<svg viewBox="-100 -100 200 200" xmlns="http://www.w3.org/2000/svg" width="500" height="500" id="face-svg">
    <defs>
      <clipPath id="leftEyeClipPath">
        <polyline points="25.37,-4.66 25.24,-5.32 25.09,-5.99 24.91,-6.66 24.71,-7.32 24.48,-7.98 24.23,-8.63 23.95,-9.26 23.64,-9.88 23.31,-10.48 22.96,-11.06 22.58,-11.61 22.18,-12.14 21.75,-12.65 21.31,-13.12 20.84,-13.56 20.38,-14.39 19.88,-15.15 19.35,-15.85 18.79,-16.48 18.2,-17.04 17.58,-17.53 16.93,-17.95 16.24,-18.29 15.53,-18.57 14.79,-18.78 14.02,-18.92 13.22,-19 12.4,-19.01 11.56,-18.96 10.7,-18.85 9.81,-18.68 8.91,-18.46 7.99,-18.19 7.06,-17.87 6.11,-17.51 5.15,-17.1 4.18,-16.66 3.21,-16.18 2.22,-15.67 1.23,-15.13 0.24,-14.56 -0.75,-13.97 -1.74,-13.36 -2.73,-12.74 -3.72,-12.1 -4.7,-11.45 -5.67,-10.79 -6.64,-10.13 -7.59,-9.46 -8.53,-8.79 -9.46,-8.13 -10.37,-7.46 -11.27,-6.8 -12.15,-6.15 -13.01,-5.5 -13.86,-4.86 -14.68,-4.23 -15.48,-3.62 -16.26,-3.01 -17.02,-2.41 -17.75,-1.83 -18.46,-1.26 -19.14,-0.7 -19.81,-0.15 -20.44,0.39 -21.06,0.91 -21.65,1.43 -22.22,1.94 -22.76,2.43 -23.29,2.92 -23.79,3.39 -24.27,3.86 -24.72,4.32 -25.15,4.76 -25.56,5.2 -25.94,5.63 -26.3,6.05 -26.63,6.46 -26.95,6.87 -24.39,10.81 -24.22,11.06 -24.02,11.31 -23.79,11.56 -23.54,11.8 -23.26,12.04 -22.96,12.28 -22.63,12.51 -22.28,12.73 -21.91,12.96 -21.51,13.17 -21.09,13.38 -20.64,13.59 -20.17,13.78 -19.68,13.97 -19.17,14.15 -18.63,14.33 -18.07,14.5 -17.49,14.66 -16.88,14.82 -16.25,14.96 -15.59,15.1 -14.92,15.22 -14.23,15.34 -13.51,15.44 -12.78,15.52 -12.03,15.6 -11.27,15.65 -10.49,15.7 -9.69,15.72 -8.88,15.74 -8.06,15.73 -7.23,15.71 -6.4,15.68 -5.55,15.62 -4.69,15.56 -3.83,15.47 -2.97,15.37 -2.1,15.26 -1.23,15.13 -0.36,14.98 0.51,14.82 1.37,14.65 2.24,14.46 3.1,14.26 3.96,14.05 4.81,13.83 5.65,13.6 6.48,13.36 7.31,13.11 8.12,12.85 8.93,12.59 9.72,12.31 10.5,12.04 11.26,11.75 12.01,11.47 12.75,11.18 13.47,10.89 14.18,10.6 14.87,10.3 15.54,10 16.19,9.71 16.83,9.41 17.45,9.12 18.04,8.82 18.59,8.49 19.12,8.14 19.63,7.79 20.13,7.43 20.61,7.05 21.08,6.67 21.53,6.27 21.96,5.86 22.38,5.43 22.77,4.98 23.15,4.52 23.51,4.04 23.85,3.55 24.16,3.03 24.46,2.49" />
      </clipPath>
      <clipPath id="rightEyeClipPath">
        <polyline points="-25.52,-4.76 -25.37,-5.15 -25.2,-5.54 -25.01,-5.93 -24.78,-6.31 -24.53,-6.7 -24.26,-7.08 -23.95,-7.45 -23.62,-7.82 -23.27,-8.17 -22.89,-8.51 -22.48,-8.85 -22.05,-9.16 -21.59,-9.47 -21.11,-9.76 -20.6,-10.03 -20.13,-10.51 -19.62,-10.96 -19.07,-11.37 -18.48,-11.75 -17.85,-12.09 -17.19,-12.39 -16.49,-12.65 -15.75,-12.88 -14.99,-13.07 -14.19,-13.22 -13.36,-13.33 -12.5,-13.41 -11.61,-13.45 -10.7,-13.46 -9.76,-13.43 -8.81,-13.37 -7.83,-13.29 -6.83,-13.17 -5.82,-13.02 -4.8,-12.85 -3.76,-12.66 -2.72,-12.44 -1.66,-12.2 -0.6,-11.94 0.46,-11.66 1.52,-11.36 2.59,-11.05 3.65,-10.73 4.71,-10.4 5.76,-10.05 6.8,-9.7 7.84,-9.34 8.86,-8.97 9.87,-8.6 10.87,-8.22 11.85,-7.85 12.81,-7.47 13.76,-7.09 14.69,-6.71 15.6,-6.34 16.48,-5.96 17.35,-5.59 18.19,-5.22 19.01,-4.86 19.81,-4.5 20.59,-4.14 21.34,-3.79 22.06,-3.45 22.77,-3.11 23.45,-2.77 24.11,-2.44 24.74,-2.11 25.36,-1.78 25.95,-1.46 26.52,-1.14 27.08,-0.83 27.61,-0.52 28.11,-0.22 28.6,0.08 29.06,0.38 29.51,0.68 29.93,0.97 30.33,1.25 30.71,1.54 25.93,6.39 25.67,6.7 25.39,7 25.08,7.31 24.74,7.61 24.38,7.9 24,8.19 23.59,8.48 23.16,8.76 22.7,9.03 22.22,9.3 21.72,9.56 21.19,9.81 20.64,10.06 20.07,10.29 19.48,10.51 18.86,10.73 18.21,10.95 17.55,11.15 16.86,11.34 16.14,11.52 15.4,11.69 14.65,11.84 13.87,11.98 13.07,12.1 12.25,12.21 11.42,12.3 10.56,12.37 9.7,12.42 8.82,12.45 7.92,12.46 7.02,12.45 6.1,12.42 5.18,12.37 4.25,12.3 3.31,12.21 2.37,12.1 1.43,11.97 0.48,11.82 -0.46,11.66 -1.4,11.47 -2.34,11.27 -3.27,11.05 -4.2,10.82 -5.11,10.57 -6.02,10.31 -6.92,10.04 -7.8,9.75 -8.67,9.46 -9.53,9.15 -10.37,8.84 -11.19,8.52 -11.99,8.2 -12.77,7.88 -13.54,7.55 -14.28,7.22 -14.99,6.89 -15.69,6.57 -16.35,6.24 -17,5.92 -17.62,5.61 -18.21,5.3 -18.78,5 -19.32,4.7 -19.83,4.41 -20.34,4.08 -20.82,3.75 -21.29,3.42 -21.74,3.08 -22.17,2.73 -22.58,2.38 -22.97,2.03 -23.35,1.66 -23.7,1.3 -24.03,0.92 -24.34,0.54 -24.63,0.14 -24.9,-0.26 -25.15,-0.68 -25.38,-1.1" />
      </clipPath>
      <filter id="fuzzy">
        <feTurbulence id="turbulence" baseFrequency="0.05" numOctaves="3" type="noise" result="noise" />
        <feDisplacementMap in="SourceGraphic" in2="noise" scale="2" />
      </filter>
      <linearGradient id="rainbowGradient" x1="0%" y1="0%" x2="100%" y2="0%">
        <stop offset="0%" style="stop-color: [object Object]; stop-opacity: 1" />
        <stop offset="21.5%" style="stop-color: [object Object]; stop-opacity: 1" />
        <stop offset="100%" style="stop-color: [object Object]; stop-opacity: 1" />
      </linearGradient>
    </defs>
    <rect x="-100" y="-100" width="100%" height="100%" fill="rgb(188, 143, 143)" />
    <polyline id="faceContour" points="74.61,-0.04 74.69,1.33 74.7,2.97 74.72,4.17 74.51,6.07 74.55,7.62 74.4,7.37 74.4,9.8 74.38,11.59 74.26,13.02 73.66,15.61 73.54,15.3 73.7,16.25 73.49,17.43 73.07,20.28 72.57,21.54 72.15,23.5 72.78,21.82 71.66,26.7 71.82,25.07 71.17,28.37 70.65,29.96 70.47,30.65 69.91,31.85 69.29,33.98 68.78,35.9 68.62,36.53 67.73,38.84 67.15,39.44 66.89,40.48 66.03,42.33 65.65,43.19 65.15,44.04 65.17,44.81 64.46,46.38 63.93,46.64 63.84,48 63.42,48.49 61.02,52.51 61.45,51.8 59.76,54.33 59.65,54.23 58.85,56.38 59.04,55.32 57.07,59.15 56.25,60.04 55.58,60.78 55,61.42 54.84,61.74 54.09,63.23 52.7,64.68 52.69,64.65 51.11,66.77 50.88,66.6 50.42,67.61 47.42,69.93 47.64,69.87 47.68,70.3 45.39,71.77 43.47,74.34 42.52,74.6 42.96,74.27 42.56,75.3 39.81,77.02 40.7,76.34 38.25,78.22 38.9,77.89 36.43,79.35 35.37,79.86 33.21,81.55 33.87,81.13 34.32,81.11 32.35,82.29 31.32,82.97 29.46,84 27.07,85.01 26.47,85.28 26.11,85.56 24.66,86.11 24.08,86.49 23.91,86.43 22.65,86.89 23.01,86.66 20.3,87.94 18.69,88.05 17.29,88.41 16.51,88.68 15.27,88.89 13.35,89.65 11.18,89.98 10.18,90.35 10.06,90.07 8.96,90.41 9.66,90.44 6.33,90.59 6.13,90.98 5.17,90.78 2.41,90.86 4.32,90.84 1.61,91.03 -0.11,91.07 -2.29,91.14 -2.26,91.09 -3.75,90.89 -4.34,90.69 -7.16,90.43 -7.36,90.82 -8.61,90.67 -9.53,90.51 -11.13,89.84 -9.81,90.32 -11.53,89.96 -14.14,89.53 -14.01,89.37 -16.63,88.63 -17.57,88.55 -18.26,88.47 -18.47,88.35 -19.81,87.83 -22.87,86.59 -24.21,86.3 -23.34,86.53 -25.07,85.45 -26.6,85.22 -26.87,85.4 -28.47,84.07 -30.6,83.4 -33,81.84 -30.51,83.06 -32.22,82.4 -34.03,81.02 -34.78,80.36 -34.6,80.36 -37.38,79.05 -36.78,79.17 -39.31,77.65 -40.64,76.6 -41,76.23 -42.6,74.78 -44.13,73.8 -44.85,72.48 -45.12,73 -44.48,73.21 -46.66,71.17 -46.62,71.15 -48.21,69.19 -50.05,67.64 -49.24,68.16 -51.06,66.88 -52.51,65.14 -51.64,65.81 -53.72,63.2 -55.21,61.79 -55.21,61.63 -56.5,59.61 -56.62,59.51 -57.3,58.57 -58.48,56.85 -59.17,55.14 -60.22,54.06 -61.3,52.6 -61.43,51.6 -61.69,51.59 -62.7,49.33 -63.82,47.3 -64.23,47.01 -64.48,45.89 -64.63,45.76 -65.64,43.46 -66.36,42.71 -67,40.77 -67.4,39.32 -67.84,38.17 -67.36,39.54 -68.54,35.94 -69.2,34.5 -69.87,32.53 -69.99,31.85 -70.58,29.81 -70.55,29.89 -71.41,27.1 -71.1,28.21 -71.91,25.1 -72.28,24.08 -72.48,22.11 -72.83,21.68 -73.04,18.69 -72.73,20.69 -73.32,17.95 -73.77,14.97 -73.87,15.75 -73.84,15.11 -74.07,10.59 -74.4,9.82 -74.54,9.08 -74.54,8.64 -74.62,7.72 -74.84,3.96 -74.74,1.08 -74.86,3.67 -74.79,-0.68 -74.87,-1.53 -74.5,-2.24 -74.57,-4.68 -74.85,-4.78 -74.29,-9 -74.53,-8.77 -74.5,-8.37 -74.54,-10.28 -74.07,-12.11 -73.6,-15.93 -73.56,-14.98 -73.42,-15.54 -72.74,-20.59 -73.17,-19.51 -72.62,-22.48 -72.6,-21.79 -72.13,-24.46 -71.4,-25.86 -71.33,-26.32 -70.78,-30.05 -70.83,-29.69 -70.1,-31.67 -70.11,-32.17 -69.57,-32.8 -69.22,-35.08 -68.56,-36.12 -68.3,-37.34 -67.95,-37.84 -67.51,-38.71 -66.9,-41.22 -65.61,-44.02 -65.48,-44.65 -64.77,-45.47 -64.73,-46.05 -63.31,-48.33 -62.94,-49.53 -63.06,-49.32 -62.38,-50.64 -60.27,-53.43 -60.4,-53.42 -59.61,-55.04 -58.58,-56.59 -58.96,-56.14 -58.08,-57.29 -57.06,-59.04 -56.2,-60.44 -55.31,-60.78 -54.33,-62.63 -53.08,-64.06 -54.19,-62.71 -52.17,-65.76 -51.41,-66.37 -50.72,-66.74 -49.37,-68.84 -49.14,-68.79 -48.78,-69.31 -46.72,-71 -45.48,-72.09 -43.56,-73.93 -44.38,-73.3 -42.17,-75.5 -41.9,-75.29 -40.06,-77.25 -39.14,-77.32 -38.97,-77.67 -38.54,-77.88 -37.98,-78.6 -35.25,-80.17 -34.1,-81.08 -32.29,-81.85 -32.63,-82.01 -31.82,-82.5 -31.29,-82.85 -28.82,-84.11 -29.46,-83.65 -27,-84.97 -27.89,-84.64 -24.1,-85.98 -23.54,-86.12 -21.58,-87.23 -22.3,-86.95 -21.28,-87.21 -17.78,-88.45 -18.21,-88.55 -16.67,-88.64 -17.09,-88.66 -16.03,-88.83 -14.66,-89.54 -11.66,-90.13 -13.07,-89.65 -11.69,-90.27 -8.4,-90.46 -7.97,-90.75 -6.55,-90.78 -6.08,-91 -3.92,-91.1 -4.32,-91.04 -1.15,-91.04 -1.87,-91.17 1.51,-90.96 -0.08,-91.01 1.93,-91.07 1.81,-91.21 3.99,-90.96 6.02,-90.8 7.26,-90.81 9.02,-90.31 10.08,-90.16 10.92,-90.17 12.05,-89.81 13.4,-89.63 14.17,-89.32 15.38,-89.03 17.67,-88.36 18.39,-88.49 18.41,-88.46 21.32,-87.2 20.47,-87.64 21.57,-87.19 22.89,-86.52 23.72,-86.39 25.56,-85.62 24.89,-85.81 28.11,-84.25 27.92,-84.66 29.95,-83.3 32.09,-82.46 30.95,-82.63 33.84,-81.27 32.95,-81.55 35.75,-79.94 35.2,-80.35 36.73,-79.57 38.87,-78 39.09,-77.74 39.02,-77.94 39.78,-77.16 43.08,-74.72 41.89,-75.65 43.16,-74.38 44.94,-73.01 44.9,-72.69 46.1,-71.27 47.32,-70.15 49.33,-68.56 49.72,-68.61 50.86,-67.11 51.24,-66.28 52.28,-65.39 53,-64.32 53.07,-63.93 54.51,-62.5 55.85,-60.63 56.07,-60.13 55.74,-60.35 59.13,-55.9 58.87,-57.07 59.92,-54.83 59.41,-55.45 60.47,-54.04 60.86,-52.62 61.61,-51.02 61.61,-51.19 62.75,-49.04 64.15,-47.35 64.09,-47.6 65.05,-44.78 65.34,-43.89 65.53,-44.17 67.27,-39.3 66.83,-40.86 67.69,-38.48 68.73,-36.37 68.77,-35.56 69.19,-34.28 69.84,-33.04 70.05,-32.39 70.28,-31.04 70.78,-29.3 71.11,-29.01 70.99,-28.21 71.55,-26.61 71.96,-24.9 72.51,-21.81 72.73,-20.18 73.47,-18.05 72.94,-19.67 73.49,-16.19 73.8,-15.98 74.15,-13.54 74.01,-14.08 73.96,-12.96 74.05,-11.45 74.26,-8.11 74.86,-5.83 74.66,-4.99 74.7,-3.79 74.55,-2.68 74.73,-0.04 74.61,-0.04 74.69,1.33" fill="rgb(255, 127, 80)" stroke="black" stroke-width="1.6666666666666665" stroke-linejoin="round" filter="url(#fuzzy)" />
    <g transform="translate(34.99 -25.88)">
      <polyline id="rightCountour" points="-25.52,-4.76 -25.37,-5.15 -25.2,-5.54 -25.01,-5.93 -24.78,-6.31 -24.53,-6.7 -24.26,-7.08 -23.95,-7.45 -23.62,-7.82 -23.27,-8.17 -22.89,-8.51 -22.48,-8.85 -22.05,-9.16 -21.59,-9.47 -21.11,-9.76 -20.6,-10.03 -20.13,-10.51 -19.62,-10.96 -19.07,-11.37 -18.48,-11.75 -17.85,-12.09 -17.19,-12.39 -16.49,-12.65 -15.75,-12.88 -14.99,-13.07 -14.19,-13.22 -13.36,-13.33 -12.5,-13.41 -11.61,-13.45 -10.7,-13.46 -9.76,-13.43 -8.81,-13.37 -7.83,-13.29 -6.83,-13.17 -5.82,-13.02 -4.8,-12.85 -3.76,-12.66 -2.72,-12.44 -1.66,-12.2 -0.6,-11.94 0.46,-11.66 1.52,-11.36 2.59,-11.05 3.65,-10.73 4.71,-10.4 5.76,-10.05 6.8,-9.7 7.84,-9.34 8.86,-8.97 9.87,-8.6 10.87,-8.22 11.85,-7.85 12.81,-7.47 13.76,-7.09 14.69,-6.71 15.6,-6.34 16.48,-5.96 17.35,-5.59 18.19,-5.22 19.01,-4.86 19.81,-4.5 20.59,-4.14 21.34,-3.79 22.06,-3.45 22.77,-3.11 23.45,-2.77 24.11,-2.44 24.74,-2.11 25.36,-1.78 25.95,-1.46 26.52,-1.14 27.08,-0.83 27.61,-0.52 28.11,-0.22 28.6,0.08 29.06,0.38 29.51,0.68 29.93,0.97 30.33,1.25 30.71,1.54 25.93,6.39 25.67,6.7 25.39,7 25.08,7.31 24.74,7.61 24.38,7.9 24,8.19 23.59,8.48 23.16,8.76 22.7,9.03 22.22,9.3 21.72,9.56 21.19,9.81 20.64,10.06 20.07,10.29 19.48,10.51 18.86,10.73 18.21,10.95 17.55,11.15 16.86,11.34 16.14,11.52 15.4,11.69 14.65,11.84 13.87,11.98 13.07,12.1 12.25,12.21 11.42,12.3 10.56,12.37 9.7,12.42 8.82,12.45 7.92,12.46 7.02,12.45 6.1,12.42 5.18,12.37 4.25,12.3 3.31,12.21 2.37,12.1 1.43,11.97 0.48,11.82 -0.46,11.66 -1.4,11.47 -2.34,11.27 -3.27,11.05 -4.2,10.82 -5.11,10.57 -6.02,10.31 -6.92,10.04 -7.8,9.75 -8.67,9.46 -9.53,9.15 -10.37,8.84 -11.19,8.52 -11.99,8.2 -12.77,7.88 -13.54,7.55 -14.28,7.22 -14.99,6.89 -15.69,6.57 -16.35,6.24 -17,5.92 -17.62,5.61 -18.21,5.3 -18.78,5 -19.32,4.7 -19.83,4.41 -20.34,4.08 -20.82,3.75 -21.29,3.42 -21.74,3.08 -22.17,2.73 -22.58,2.38 -22.97,2.03 -23.35,1.66 -23.7,1.3 -24.03,0.92 -24.34,0.54 -24.63,0.14 -24.9,-0.26 -25.15,-0.68 -25.38,-1.1" fill="white" stroke="white" stroke-width="0" stroke-linejoin="round" filter="url(#fuzzy)" />
    </g>
    <g transform="translate(-38.64 -29.44)">
      <polyline id="leftCountour" points="25.37,-4.66 25.24,-5.32 25.09,-5.99 24.91,-6.66 24.71,-7.32 24.48,-7.98 24.23,-8.63 23.95,-9.26 23.64,-9.88 23.31,-10.48 22.96,-11.06 22.58,-11.61 22.18,-12.14 21.75,-12.65 21.31,-13.12 20.84,-13.56 20.38,-14.39 19.88,-15.15 19.35,-15.85 18.79,-16.48 18.2,-17.04 17.58,-17.53 16.93,-17.95 16.24,-18.29 15.53,-18.57 14.79,-18.78 14.02,-18.92 13.22,-19 12.4,-19.01 11.56,-18.96 10.7,-18.85 9.81,-18.68 8.91,-18.46 7.99,-18.19 7.06,-17.87 6.11,-17.51 5.15,-17.1 4.18,-16.66 3.21,-16.18 2.22,-15.67 1.23,-15.13 0.24,-14.56 -0.75,-13.97 -1.74,-13.36 -2.73,-12.74 -3.72,-12.1 -4.7,-11.45 -5.67,-10.79 -6.64,-10.13 -7.59,-9.46 -8.53,-8.79 -9.46,-8.13 -10.37,-7.46 -11.27,-6.8 -12.15,-6.15 -13.01,-5.5 -13.86,-4.86 -14.68,-4.23 -15.48,-3.62 -16.26,-3.01 -17.02,-2.41 -17.75,-1.83 -18.46,-1.26 -19.14,-0.7 -19.81,-0.15 -20.44,0.39 -21.06,0.91 -21.65,1.43 -22.22,1.94 -22.76,2.43 -23.29,2.92 -23.79,3.39 -24.27,3.86 -24.72,4.32 -25.15,4.76 -25.56,5.2 -25.94,5.63 -26.3,6.05 -26.63,6.46 -26.95,6.87 -24.39,10.81 -24.22,11.06 -24.02,11.31 -23.79,11.56 -23.54,11.8 -23.26,12.04 -22.96,12.28 -22.63,12.51 -22.28,12.73 -21.91,12.96 -21.51,13.17 -21.09,13.38 -20.64,13.59 -20.17,13.78 -19.68,13.97 -19.17,14.15 -18.63,14.33 -18.07,14.5 -17.49,14.66 -16.88,14.82 -16.25,14.96 -15.59,15.1 -14.92,15.22 -14.23,15.34 -13.51,15.44 -12.78,15.52 -12.03,15.6 -11.27,15.65 -10.49,15.7 -9.69,15.72 -8.88,15.74 -8.06,15.73 -7.23,15.71 -6.4,15.68 -5.55,15.62 -4.69,15.56 -3.83,15.47 -2.97,15.37 -2.1,15.26 -1.23,15.13 -0.36,14.98 0.51,14.82 1.37,14.65 2.24,14.46 3.1,14.26 3.96,14.05 4.81,13.83 5.65,13.6 6.48,13.36 7.31,13.11 8.12,12.85 8.93,12.59 9.72,12.31 10.5,12.04 11.26,11.75 12.01,11.47 12.75,11.18 13.47,10.89 14.18,10.6 14.87,10.3 15.54,10 16.19,9.71 16.83,9.41 17.45,9.12 18.04,8.82 18.59,8.49 19.12,8.14 19.63,7.79 20.13,7.43 20.61,7.05 21.08,6.67 21.53,6.27 21.96,5.86 22.38,5.43 22.77,4.98 23.15,4.52 23.51,4.04 23.85,3.55 24.16,3.03 24.46,2.49" fill="white" stroke="white" stroke-width="0" stroke-linejoin="round" filter="url(#fuzzy)" />
    </g>
    <g transform="translate(34.99 -25.88)">
      <polyline id="rightUpper" points="-25.53,-1.65 -25.64,-1.86 -25.72,-2.09 -25.79,-2.36 -25.82,-2.65 -25.84,-2.96 -25.83,-3.3 -25.79,-3.65 -25.72,-4.01 -25.63,-4.38 -25.52,-4.76 -25.37,-5.15 -25.2,-5.54 -25.01,-5.93 -24.78,-6.31 -24.53,-6.7 -24.26,-7.08 -23.95,-7.45 -23.62,-7.82 -23.27,-8.17 -22.89,-8.51 -22.48,-8.85 -22.05,-9.16 -21.59,-9.47 -21.11,-9.76 -20.6,-10.03 -20.13,-10.51 -19.62,-10.96 -19.07,-11.37 -18.48,-11.75 -17.85,-12.09 -17.19,-12.39 -16.49,-12.65 -15.75,-12.88 -14.99,-13.07 -14.19,-13.22 -13.36,-13.33 -12.5,-13.41 -11.61,-13.45 -10.7,-13.46 -9.76,-13.43 -8.81,-13.37 -7.83,-13.29 -6.83,-13.17 -5.82,-13.02 -4.8,-12.85 -3.76,-12.66 -2.72,-12.44 -1.66,-12.2 -0.6,-11.94 0.46,-11.66 1.52,-11.36 2.59,-11.05 3.65,-10.73 4.71,-10.4 5.76,-10.05 6.8,-9.7 7.84,-9.34 8.86,-8.97 9.87,-8.6 10.87,-8.22 11.85,-7.85 12.81,-7.47 13.76,-7.09 14.69,-6.71 15.6,-6.34 16.48,-5.96 17.35,-5.59 18.19,-5.22 19.01,-4.86 19.81,-4.5 20.59,-4.14 21.34,-3.79 22.06,-3.45 22.77,-3.11 23.45,-2.77 24.11,-2.44 24.74,-2.11 25.36,-1.78 25.95,-1.46 26.52,-1.14 27.08,-0.83 27.61,-0.52 28.11,-0.22 28.6,0.08 29.06,0.38 29.51,0.68 29.93,0.97 30.33,1.25 30.71,1.54 31.07,1.82 31.41,2.1 31.73,2.37 32.02,2.64 32.3,2.91 32.56,3.18 32.8,3.45 33.03,3.71 33.23,3.97 33.42,4.23" fill="none" stroke="black" stroke-width="1.6666666666666665" stroke-linejoin="round" filter="url(#fuzzy)" />
      <polyline id="rightLower" points="-26.43,-6.32 -26.42,-5.7 -26.4,-5.1 -26.35,-4.53 -26.28,-3.98 -26.19,-3.46 -26.07,-2.95 -25.93,-2.46 -25.77,-2 -25.58,-1.54 -25.38,-1.1 -25.15,-0.68 -24.9,-0.26 -24.63,0.14 -24.34,0.54 -24.03,0.92 -23.7,1.3 -23.35,1.66 -22.97,2.03 -22.58,2.38 -22.17,2.73 -21.74,3.08 -21.29,3.42 -20.82,3.75 -20.34,4.08 -19.83,4.41 -19.32,4.7 -18.78,5 -18.21,5.3 -17.62,5.61 -17,5.92 -16.35,6.24 -15.69,6.57 -14.99,6.89 -14.28,7.22 -13.54,7.55 -12.77,7.88 -11.99,8.2 -11.19,8.52 -10.37,8.84 -9.53,9.15 -8.67,9.46 -7.8,9.75 -6.92,10.04 -6.02,10.31 -5.11,10.57 -4.2,10.82 -3.27,11.05 -2.34,11.27 -1.4,11.47 -0.46,11.66 0.48,11.82 1.43,11.97 2.37,12.1 3.31,12.21 4.25,12.3 5.18,12.37 6.1,12.42 7.02,12.45 7.92,12.46 8.82,12.45 9.7,12.42 10.56,12.37 11.42,12.3 12.25,12.21 13.07,12.1 13.87,11.98 14.65,11.84 15.4,11.69 16.14,11.52 16.86,11.34 17.55,11.15 18.21,10.95 18.86,10.73 19.48,10.51 20.07,10.29 20.64,10.06 21.19,9.81 21.72,9.56 22.22,9.3 22.7,9.03 23.16,8.76 23.59,8.48 24,8.19 24.38,7.9 24.74,7.61 25.08,7.31 25.39,7 25.67,6.7 25.93,6.39 26.17,6.08 26.38,5.77 26.57,5.46 26.73,5.14 26.87,4.83 26.99,4.52 27.08,4.21 27.15,3.9 27.2,3.58 27.23,3.27" fill="none" stroke="black" stroke-width="2.2222222222222223" stroke-linejoin="round" filter="url(#fuzzy)" />
      <circle r="4.298" cx="-10.08473317312604" cy="-6.82551000166135" stroke="black" fill="none" stroke-width="1.0" filter="url(#fuzzy)" clip-path="url(#rightEyeClipPath)" /><circle r="4.046" cx="-10.63973317312604" cy="-9.83051000166135" stroke="black" fill="none" stroke-width="1.0" filter="url(#fuzzy)" clip-path="url(#rightEyeClipPath)" /><circle r="4.632" cx="-14.12473317312604" cy="-9.91051000166135" stroke="black" fill="none" stroke-width="1.0" filter="url(#fuzzy)" clip-path="url(#rightEyeClipPath)" /><circle r="3.77" cx="-12.42973317312604" cy="-9.02551000166135" stroke="black" fill="none" stroke-width="1.0" filter="url(#fuzzy)" clip-path="url(#rightEyeClipPath)" /><circle r="3.368" cx="-10.02973317312604" cy="-10.22551000166135" stroke="black" fill="none" stroke-width="1.0" filter="url(#fuzzy)" clip-path="url(#rightEyeClipPath)" /><circle r="4.4719999999999995" cx="-11.83473317312604" cy="-7.30551000166135" stroke="black" fill="none" stroke-width="1.0" filter="url(#fuzzy)" clip-path="url(#rightEyeClipPath)" /><circle r="3.706" cx="-9.85473317312604" cy="-6.35051000166135" stroke="black" fill="none" stroke-width="1.0" filter="url(#fuzzy)" clip-path="url(#rightEyeClipPath)" /><circle r="3.694" cx="-12.66973317312604" cy="-10.18051000166135" stroke="black" fill="none" stroke-width="1.0" filter="url(#fuzzy)" clip-path="url(#rightEyeClipPath)" /><circle r="3.4" cx="-10.58973317312604" cy="-7.84551000166135" stroke="black" fill="none" stroke-width="1.0" filter="url(#fuzzy)" clip-path="url(#rightEyeClipPath)" /><circle r="3.156" cx="-11.83973317312604" cy="-9.40551000166135" stroke="black" fill="none" stroke-width="1.0" filter="url(#fuzzy)" clip-path="url(#rightEyeClipPath)" />
      </g>
    <g transform="translate(-38.64 -29.44)">
      <polyline id="leftUpper" points="25.11,0.69 25.26,0.35 25.38,-0.06 25.48,-0.51 25.54,-1.01 25.58,-1.55 25.6,-2.13 25.58,-2.73 25.54,-3.36 25.47,-4 25.37,-4.66 25.24,-5.32 25.09,-5.99 24.91,-6.66 24.71,-7.32 24.48,-7.98 24.23,-8.63 23.95,-9.26 23.64,-9.88 23.31,-10.48 22.96,-11.06 22.58,-11.61 22.18,-12.14 21.75,-12.65 21.31,-13.12 20.84,-13.56 20.38,-14.39 19.88,-15.15 19.35,-15.85 18.79,-16.48 18.2,-17.04 17.58,-17.53 16.93,-17.95 16.24,-18.29 15.53,-18.57 14.79,-18.78 14.02,-18.92 13.22,-19 12.4,-19.01 11.56,-18.96 10.7,-18.85 9.81,-18.68 8.91,-18.46 7.99,-18.19 7.06,-17.87 6.11,-17.51 5.15,-17.1 4.18,-16.66 3.21,-16.18 2.22,-15.67 1.23,-15.13 0.24,-14.56 -0.75,-13.97 -1.74,-13.36 -2.73,-12.74 -3.72,-12.1 -4.7,-11.45 -5.67,-10.79 -6.64,-10.13 -7.59,-9.46 -8.53,-8.79 -9.46,-8.13 -10.37,-7.46 -11.27,-6.8 -12.15,-6.15 -13.01,-5.5 -13.86,-4.86 -14.68,-4.23 -15.48,-3.62 -16.26,-3.01 -17.02,-2.41 -17.75,-1.83 -18.46,-1.26 -19.14,-0.7 -19.81,-0.15 -20.44,0.39 -21.06,0.91 -21.65,1.43 -22.22,1.94 -22.76,2.43 -23.29,2.92 -23.79,3.39 -24.27,3.86 -24.72,4.32 -25.15,4.76 -25.56,5.2 -25.94,5.63 -26.3,6.05 -26.63,6.46 -26.95,6.87 -27.23,7.26 -27.5,7.65 -27.74,8.04 -27.96,8.41 -28.16,8.79 -28.33,9.15 -28.48,9.51 -28.61,9.86 -28.72,10.21 -28.81,10.56" fill="none" stroke="black" stroke-width="2.2222222222222223" stroke-linejoin="round" filter="url(#fuzzy)" />
      <polyline id="leftLower" points="26.02,-4.5 25.99,-3.65 25.93,-2.83 25.84,-2.05 25.72,-1.31 25.57,-0.6 25.4,0.07 25.2,0.72 24.97,1.33 24.73,1.92 24.46,2.49 24.16,3.03 23.85,3.55 23.51,4.04 23.15,4.52 22.77,4.98 22.38,5.43 21.96,5.86 21.53,6.27 21.08,6.67 20.61,7.05 20.13,7.43 19.63,7.79 19.12,8.14 18.59,8.49 18.04,8.82 17.45,9.12 16.83,9.41 16.19,9.71 15.54,10 14.87,10.3 14.18,10.6 13.47,10.89 12.75,11.18 12.01,11.47 11.26,11.75 10.5,12.04 9.72,12.31 8.93,12.59 8.12,12.85 7.31,13.11 6.48,13.36 5.65,13.6 4.81,13.83 3.96,14.05 3.1,14.26 2.24,14.46 1.37,14.65 0.51,14.82 -0.36,14.98 -1.23,15.13 -2.1,15.26 -2.97,15.37 -3.83,15.47 -4.69,15.56 -5.55,15.62 -6.4,15.68 -7.23,15.71 -8.06,15.73 -8.88,15.74 -9.69,15.72 -10.49,15.7 -11.27,15.65 -12.03,15.6 -12.78,15.52 -13.51,15.44 -14.23,15.34 -14.92,15.22 -15.59,15.1 -16.25,14.96 -16.88,14.82 -17.49,14.66 -18.07,14.5 -18.63,14.33 -19.17,14.15 -19.68,13.97 -20.17,13.78 -20.64,13.59 -21.09,13.38 -21.51,13.17 -21.91,12.96 -22.28,12.73 -22.63,12.51 -22.96,12.28 -23.26,12.04 -23.54,11.8 -23.79,11.56 -24.02,11.31 -24.22,11.06 -24.39,10.81 -24.55,10.56 -24.67,10.3 -24.77,10.05 -24.85,9.79 -24.9,9.54 -24.93,9.28 -24.93,9.02 -24.91,8.76 -24.86,8.51 -24.8,8.25" fill="none" stroke="black" stroke-width="2.2222222222222223" stroke-linejoin="round" filter="url(#fuzzy)" />
      <circle r="3.848" cx="-3.506326005470832" cy="3.1753654246187475" stroke="black" fill="none" stroke-width="1.0" filter="url(#fuzzy)" clip-path="url(#leftEyeClipPath)" /><circle r="3.798" cx="-0.6813260054708321" cy="2.435365424618748" stroke="black" fill="none" stroke-width="1.0" filter="url(#fuzzy)" clip-path="url(#leftEyeClipPath)" /><circle r="4.16" cx="-1.3713260054708316" cy="2.9153654246187486" stroke="black" fill="none" stroke-width="1.0" filter="url(#fuzzy)" clip-path="url(#leftEyeClipPath)" /><circle r="4.316" cx="0.6536739945291679" cy="0.24036542461874788" stroke="black" fill="none" stroke-width="1.0" filter="url(#fuzzy)" clip-path="url(#leftEyeClipPath)" /><circle r="3.872" cx="1.0736739945291678" cy="3.355365424618748" stroke="black" fill="none" stroke-width="1.0" filter="url(#fuzzy)" clip-path="url(#leftEyeClipPath)" /><circle r="3.36" cx="0.7586739945291683" cy="4.490365424618748" stroke="black" fill="none" stroke-width="1.0" filter="url(#fuzzy)" clip-path="url(#leftEyeClipPath)" /><circle r="4.41" cx="0.603673994529168" cy="1.405365424618748" stroke="black" fill="none" stroke-width="1.0" filter="url(#fuzzy)" clip-path="url(#leftEyeClipPath)" /><circle r="3.336" cx="-3.216326005470832" cy="3.8853654246187475" stroke="black" fill="none" stroke-width="1.0" filter="url(#fuzzy)" clip-path="url(#leftEyeClipPath)" /><circle r="4.218" cx="-3.361326005470832" cy="1.7603654246187475" stroke="black" fill="none" stroke-width="1.0" filter="url(#fuzzy)" clip-path="url(#leftEyeClipPath)" /><circle r="4.79" cx="-3.446326005470832" cy="1.385365424618748" stroke="black" fill="none" stroke-width="1.0" filter="url(#fuzzy)" clip-path="url(#leftEyeClipPath)" />
    </g>
    <g id="hairs">
      <polyline points="-4.32,-91.04 -2.25,-91.05 -0.85,-91.02 0.36,-90.98 1.51,-90.93 2.69,-90.88 3.93,-90.81 5.23,-90.73 6.47,-90.64 7.53,-90.54 8.28,-90.46 8.62,-90.42 8.46,-90.42 7.78,-90.48 6.58,-90.58 4.9,-90.72 2.79,-90.86" fill="none" stroke="url(#rainbowGradient)" stroke-width="2" stroke-linejoin="round" filter="url(#fuzzy)" /><polyline points="60.86,-52.62 61.42,-51.5 62.01,-50.5 62.66,-49.44 63.28,-48.39 63.79,-47.42 64.17,-46.56 64.42,-45.82 64.57,-45.24 64.59,-44.84 64.48,-44.66 64.21,-44.74 63.77,-45.12 63.14,-45.82 62.29,-46.87 61.2,-48.3 59.84,-50.13 58.19,-52.37 56.23,-55.05 53.99,-58.19 51.49,-61.78 48.72,-65.82 45.56,-70.39" fill="none" stroke="url(#rainbowGradient)" stroke-width="2" stroke-linejoin="round" filter="url(#fuzzy)" /><polyline points="61.61,-51.19 62.54,-49.47 62.94,-48.32 62.85,-47.44 62.33,-46.72 61.45,-46.12 60.2,-45.65 58.57,-45.34 56.53,-45.22 54.06,-45.31 51.16,-45.62 47.79,-46.19 43.96,-47.02 39.65,-48.11 34.83,-49.44 29.5,-50.99 23.61,-52.74 17.17,-54.69 10.21,-56.83 2.76,-59.19 -5.13,-61.79 -13.51,-64.68 -22.49,-67.84 -32.14,-71.31" fill="none" stroke="url(#rainbowGradient)" stroke-width="2" stroke-linejoin="round" filter="url(#fuzzy)" /><polyline points="-29.46,-83.65 -27.8,-84.5 -26.27,-85.12 -24.56,-85.75 -22.85,-86.37 -21.26,-86.95 -19.76,-87.49 -18.34,-87.98 -17.03,-88.42 -15.93,-88.79 -15.1,-89.07 -14.54,-89.28 -14.23,-89.4 -14.17,-89.45 -14.45,-89.39 -15.15,-89.18 -16.08,-88.88" fill="none" stroke="url(#rainbowGradient)" stroke-width="2" stroke-linejoin="round" filter="url(#fuzzy)" /><polyline points="-16.67,-88.64 -16.61,-88.71 -15.99,-88.88 -15.27,-89.02 -14.74,-89.03 -14.47,-88.87 -14.47,-88.55 -14.78,-88.04 -15.47,-87.34 -16.61,-86.4 -18.28,-85.2 -20.48,-83.72 -23.24,-81.95 -26.56,-79.91 -30.44,-77.6 -34.9,-75.02 -40.01,-72.15 -45.79,-69.03" fill="none" stroke="url(#rainbowGradient)" stroke-width="2" stroke-linejoin="round" filter="url(#fuzzy)" /><polyline points="55.85,-60.63 56.16,-60.05 56.93,-58.94 57.89,-57.65 58.75,-56.46 59.44,-55.41 60,-54.47 60.47,-53.58 60.9,-52.74 61.3,-51.98 61.65,-51.34 61.93,-50.83 62.1,-50.51 62.13,-50.41 61.95,-50.58 61.55,-51.05 60.92,-51.87 60.06,-53.07 58.97,-54.66 57.62,-56.69 56.02,-59.16 54.24,-62.04" fill="none" stroke="url(#rainbowGradient)" stroke-width="2" stroke-linejoin="round" filter="url(#fuzzy)" /><polyline points="-39.14,-77.32 -38.68,-77.7 -37.53,-78.32 -35.73,-79.22 -33.48,-80.27 -31.04,-81.33 -28.58,-82.34 -26.17,-83.29 -23.78,-84.2 -21.37,-85.09 -18.92,-85.96 -16.42,-86.81 -13.93,-87.64 -11.49,-88.43 -9.22,-89.19 -7.26,-89.9 -5.66,-90.54" fill="none" stroke="url(#rainbowGradient)" stroke-width="2" stroke-linejoin="round" filter="url(#fuzzy)" /><polyline points="-1.15,-91.04 -0.95,-91.06 -0.44,-90.99 -0.21,-90.88 -0.25,-90.71 -0.5,-90.45 -1.03,-90.06 -1.95,-89.55 -3.4,-88.91 -5.5,-88.15 -8.34,-87.28 -11.93,-86.29 -16.25,-85.19 -21.26,-83.98 -27.03,-82.66" fill="none" stroke="url(#rainbowGradient)" stroke-width="2" stroke-linejoin="round" filter="url(#fuzzy)" /><polyline points="44.94,-73.01 45.29,-72.39 46.11,-71.48 47.04,-70.59 47.83,-69.86 48.36,-69.32 48.58,-68.97 48.51,-68.81 48.15,-68.87 47.49,-69.15 46.52,-69.68 45.19,-70.49 43.46,-71.61 41.27,-73.09 38.6,-74.95 35.46,-77.2 31.85,-79.87 27.66,-83" fill="none" stroke="url(#rainbowGradient)" stroke-width="2" stroke-linejoin="round" filter="url(#fuzzy)" /><polyline points="46.1,-71.27 47.02,-70.24 47.12,-69.44 46.24,-68.87 44.37,-68.44 41.53,-68.13 37.72,-67.94 32.93,-67.88 27.18,-67.96 20.45,-68.21 12.66,-68.63 3.72,-69.21 -6.45,-69.94 -17.84,-70.79 -30.39,-71.93" fill="none" stroke="url(#rainbowGradient)" stroke-width="2" stroke-linejoin="round" filter="url(#fuzzy)" /><polyline points="14.17,-89.32 15.58,-88.96 17.01,-88.61 18.26,-88.28 19.38,-87.93 20.39,-87.58 21.29,-87.25 22.11,-86.93 22.82,-86.65 23.43,-86.41 23.88,-86.21 24.16,-86.08 24.22,-86.02 24,-86.06 23.44,-86.21 22.45,-86.5 20.93,-86.97 18.84,-87.64 16.23,-88.54" fill="none" stroke="url(#rainbowGradient)" stroke-width="2" stroke-linejoin="round" filter="url(#fuzzy)" /><polyline points="-3.92,-91.1 -3.3,-91.03 -1.92,-90.94 -0.43,-90.8 1.06,-90.62 2.6,-90.4 4.25,-90.14 6.06,-89.84 8,-89.51 10.03,-89.14 12.04,-88.76 13.96,-88.37 15.72,-88.01 17.29,-87.68 18.64,-87.41 19.78,-87.18 20.7,-87.02 21.4,-86.91 21.86,-86.86 22.05,-86.89 21.89,-87.01 21.37,-87.25" fill="none" stroke="url(#rainbowGradient)" stroke-width="2" stroke-linejoin="round" filter="url(#fuzzy)" /><polyline points="-27.89,-84.64 -24.91,-85.44 -22.28,-85.65 -19.43,-85.48 -16.09,-85.03 -12.13,-84.35 -7.61,-83.49 -2.65,-82.42 2.68,-81.16 8.37,-79.73 14.46,-78.18 20.94,-76.52 27.73,-74.78 34.72,-72.95 41.85,-70.98" fill="none" stroke="url(#rainbowGradient)" stroke-width="2" stroke-linejoin="round" filter="url(#fuzzy)" /><polyline points="41.89,-75.65 42.86,-74.49 43.11,-73.47 42.68,-72.5 41.64,-71.52 39.97,-70.55 37.6,-69.6 34.45,-68.69 30.47,-67.83 25.66,-66.98 20,-66.14 13.5,-65.28 6.16,-64.41 -2,-63.53 -11.04,-62.65 -21.01,-61.79 -31.99,-60.9 -43.99,-59.97" fill="none" stroke="url(#rainbowGradient)" stroke-width="2" stroke-linejoin="round" filter="url(#fuzzy)" /><polyline points="36.73,-79.57 38.17,-78.48 39.04,-77.79 39.9,-77.07 40.92,-76.21 42,-75.27 43.1,-74.29 44.16,-73.31 45.19,-72.33 46.19,-71.38 47.14,-70.48 48.01,-69.66 48.75,-68.97 49.32,-68.44 49.67,-68.09 49.76,-67.94 49.61,-68.02 49.22,-68.32 48.62,-68.84 47.8,-69.59 46.76,-70.58 45.46,-71.82 43.8,-73.38 41.62,-75.41" fill="none" stroke="url(#rainbowGradient)" stroke-width="2" stroke-linejoin="round" filter="url(#fuzzy)" /><polyline points="-32.29,-81.85 -31.98,-82.1 -30.68,-82.48 -28.64,-82.92 -26.08,-83.38 -23.1,-83.82 -19.78,-84.26 -16.13,-84.7 -12.25,-85.16 -8.23,-85.61 -4.16,-86.03 -0.08,-86.4 4.02,-86.74 8.12,-87.06 12.23,-87.33 16.44,-87.46" fill="none" stroke="url(#rainbowGradient)" stroke-width="2" stroke-linejoin="round" filter="url(#fuzzy)" /><polyline points="-17.78,-88.45 -17.67,-88.54 -17.16,-88.65 -16.49,-88.81 -15.69,-89.03 -14.84,-89.27 -14.04,-89.46 -13.4,-89.59 -12.95,-89.62 -12.75,-89.57 -12.86,-89.4 -13.36,-89.12 -14.33,-88.69 -15.8,-88.11 -17.78,-87.38 -20.24,-86.52 -23.15,-85.54 -26.61,-84.41" fill="none" stroke="url(#rainbowGradient)" stroke-width="2" stroke-linejoin="round" filter="url(#fuzzy)" /><polyline points="35.75,-79.94 35.8,-79.9 36.3,-79.38 36.56,-78.78 36.4,-78.23 35.86,-77.7 34.98,-77.16 33.73,-76.59 32.08,-76.01 29.97,-75.42 27.4,-74.83 24.36,-74.23 20.85,-73.66 16.85,-73.14 12.31,-72.68 7.17,-72.28 1.38,-71.93 -5.08,-71.61 -12.2,-71.32 -20.02,-71.02 -28.61,-70.65 -38.13,-70.12" fill="none" stroke="url(#rainbowGradient)" stroke-width="2" stroke-linejoin="round" filter="url(#fuzzy)" /><polyline points="9.02,-90.31 10.11,-90.09 11.45,-89.67 13.07,-89.03 14.93,-88.2 17.01,-87.22 19.25,-86.11 21.58,-84.92 23.94,-83.67 26.29,-82.38 28.61,-81.06 30.9,-79.74 33.17,-78.41 35.42,-77.1 37.64,-75.81 39.8,-74.57 41.86,-73.4 43.77,-72.32 45.46,-71.35 46.78,-70.53" fill="none" stroke="url(#rainbowGradient)" stroke-width="2" stroke-linejoin="round" filter="url(#fuzzy)" /><polyline points="44.94,-73.01 45.18,-72.4 45.62,-71.53 45.92,-70.68 45.84,-69.98 45.27,-69.43 44.17,-69 42.54,-68.69 40.39,-68.49 37.75,-68.38 34.61,-68.38 30.97,-68.48 26.81,-68.69 22.11,-69.03 16.81,-69.5 10.87,-70.1 4.19,-70.83 -3.29,-71.69 -11.55,-72.71 -20.4,-73.93 -29.62,-75.45" fill="none" stroke="url(#rainbowGradient)" stroke-width="2" stroke-linejoin="round" filter="url(#fuzzy)" /><polyline points="-29.46,-83.65 -27.84,-84.5 -26.46,-85.1 -25,-85.68 -23.61,-86.24 -22.39,-86.74 -21.29,-87.18 -20.29,-87.56 -19.41,-87.88 -18.7,-88.12 -18.21,-88.27 -17.94,-88.33 -17.88,-88.31 -18.05,-88.19 -18.48,-87.96 -19.24,-87.6 -20.34,-87.11 -21.79,-86.49 -23.59,-85.74 -25.84,-84.84 -28.65,-83.74" fill="none" stroke="url(#rainbowGradient)" stroke-width="2" stroke-linejoin="round" filter="url(#fuzzy)" /><polyline points="32.95,-81.55 34.62,-80.59 35.46,-80.06 36.04,-79.57 36.35,-79.12 36.35,-78.75 36.06,-78.45 35.48,-78.18 34.59,-77.97 33.37,-77.8 31.79,-77.71 29.82,-77.69 27.46,-77.75 24.7,-77.92 21.52,-78.21 17.9,-78.65 13.77,-79.28 9.08,-80.07 3.75,-81.01 -2.23,-82.09 -8.75,-83.35 -15.7,-84.8" fill="none" stroke="url(#rainbowGradient)" stroke-width="2" stroke-linejoin="round" filter="url(#fuzzy)" /><polyline points="-6.08,-91 -4.61,-91.05 -3.42,-91.06 -2.26,-91.06 -1.2,-91.06 -0.31,-91.05 0.41,-91.05 0.98,-91.04 1.43,-91.01 1.75,-90.96 1.86,-90.87 1.66,-90.76 1.03,-90.63 -0.14,-90.47 -1.89,-90.3 -4.21,-90.12 -6.98,-89.95 -10.17,-89.81" fill="none" stroke="url(#rainbowGradient)" stroke-width="2" stroke-linejoin="round" filter="url(#fuzzy)" /><polyline points="-16.03,-88.83 -14.43,-89.39 -12.95,-89.73 -11.55,-89.96 -10.04,-90.17 -8.44,-90.37 -6.89,-90.57 -5.49,-90.73 -4.26,-90.86 -3.2,-90.95 -2.32,-91.01 -1.63,-91.04 -1.2,-91.05 -1.11,-91.05 -1.44,-91.05 -2.19,-91.05 -3.33,-91.03 -4.83,-90.95" fill="none" stroke="url(#rainbowGradient)" stroke-width="2" stroke-linejoin="round" filter="url(#fuzzy)" /><polyline points="-40.06,-77.25 -39.25,-77.41 -38.26,-77.73 -36.81,-78.24 -34.85,-78.92 -32.52,-79.68 -29.99,-80.42 -27.37,-81.08 -24.67,-81.67 -21.9,-82.19 -19.02,-82.69 -16.03,-83.17 -12.95,-83.65 -9.79,-84.14 -6.59,-84.64 -3.39,-85.14 -0.22,-85.62 2.86,-86.08 5.84,-86.49 8.73,-86.87 11.56,-87.22 14.33,-87.52 16.89,-87.8" fill="none" stroke="url(#rainbowGradient)" stroke-width="2" stroke-linejoin="round" filter="url(#fuzzy)" /><polyline points="36.73,-79.57 38.02,-78.55 38.44,-78.04 38.56,-77.6 38.53,-77.12 38.27,-76.63 37.69,-76.16 36.76,-75.74 35.46,-75.35 33.77,-75.01 31.68,-74.72 29.14,-74.52 26.11,-74.41 22.54,-74.43 18.41,-74.57 13.71,-74.85 8.46,-75.26 2.65,-75.79 -3.67,-76.46 -10.51,-77.25 -17.93,-78.17 -26.14,-79.17" fill="none" stroke="url(#rainbowGradient)" stroke-width="2" stroke-linejoin="round" filter="url(#fuzzy)" /><polyline points="21.57,-87.19 22.67,-86.69 23.56,-86.3 24.27,-85.92 24.85,-85.51 25.27,-85.08 25.5,-84.64 25.45,-84.23 25.09,-83.85 24.39,-83.52 23.34,-83.25 21.94,-83.03 20.2,-82.86 18.08,-82.73 15.56,-82.64 12.59,-82.58 9.15,-82.56 5.21,-82.58 0.74,-82.62 -4.29,-82.68 -9.9,-82.78 -16.02,-82.96 -22.48,-83.3" fill="none" stroke="url(#rainbowGradient)" stroke-width="2" stroke-linejoin="round" filter="url(#fuzzy)" /><polyline points="-21.58,-87.23 -21.4,-87.16 -20.01,-87.35 -18.17,-87.53 -16.23,-87.59 -14.21,-87.52 -12.04,-87.37 -9.66,-87.18 -7.08,-86.95 -4.32,-86.7 -1.42,-86.42 1.58,-86.1 4.64,-85.75 7.74,-85.37 10.81,-84.96 13.83,-84.52 16.79,-84.06 19.67,-83.59 22.47,-83.1 25.14,-82.63 27.6,-82.2 29.84,-81.81 31.82,-81.46" fill="none" stroke="url(#rainbowGradient)" stroke-width="2" stroke-linejoin="round" filter="url(#fuzzy)" /><polyline points="-28.82,-84.11 -28.46,-84.09 -27.1,-84.34 -25.19,-84.58 -22.91,-84.75 -20.43,-84.81 -17.81,-84.75 -15.05,-84.58 -12.14,-84.33 -9.09,-83.98 -5.92,-83.55 -2.65,-83.05 0.72,-82.49 4.21,-81.89 7.81,-81.25 11.5,-80.58 15.23,-79.9 18.97,-79.22 22.65,-78.54 26.23,-77.9 29.7,-77.3 33.05,-76.74 36.27,-76.23 39.24,-75.82" fill="none" stroke="url(#rainbowGradient)" stroke-width="2" stroke-linejoin="round" filter="url(#fuzzy)" /><polyline points="-24.1,-85.98 -23.25,-86.34 -22.28,-86.78 -21.24,-87.2 -20.07,-87.62 -18.89,-88.03 -17.83,-88.38 -16.94,-88.66 -16.21,-88.88 -15.61,-89.05 -15.12,-89.19 -14.79,-89.26 -14.67,-89.27 -14.82,-89.17 -15.33,-88.96 -16.24,-88.61 -17.58,-88.15 -19.3,-87.55 -21.47,-86.81" fill="none" stroke="url(#rainbowGradient)" stroke-width="2" stroke-linejoin="round" filter="url(#fuzzy)" /><polyline points="49.72,-68.61 50.45,-67.42 50.7,-66.52 50.58,-65.75 50.09,-65.04 49.24,-64.35 48.01,-63.69 46.39,-63.06 44.34,-62.49 41.84,-62 38.83,-61.61 35.29,-61.33 31.17,-61.16 26.45,-61.09 21.14,-61.08 15.23,-61.11 8.75,-61.18 1.71,-61.33 -5.88,-61.57 -14.05,-61.91 -22.83,-62.34 -32.33,-62.82 -42.67,-63.15" fill="none" stroke="url(#rainbowGradient)" stroke-width="2" stroke-linejoin="round" filter="url(#fuzzy)" /><polyline points="21.57,-87.19 22.64,-86.71 23.47,-86.36 24.06,-86.06 24.39,-85.79 24.43,-85.57 24.11,-85.41 23.35,-85.34 22.07,-85.41 20.23,-85.64 17.76,-86.05 14.62,-86.64 10.73,-87.43 6.05,-88.42 0.56,-89.63" fill="none" stroke="url(#rainbowGradient)" stroke-width="2" stroke-linejoin="round" filter="url(#fuzzy)" /><polyline points="-13.07,-89.65 -11.41,-90.08 -9.89,-90.28 -8.84,-90.33 -8.19,-90.24 -7.83,-90.01 -7.74,-89.64 -7.93,-89.12 -8.42,-88.43 -9.25,-87.59 -10.46,-86.59 -12.04,-85.42 -13.98,-84.07 -16.25,-82.52 -18.87,-80.76 -21.86,-78.77 -25.28,-76.55 -29.19,-74.11 -33.68,-71.42 -38.81,-68.46 -44.58,-65.2 -50.99,-61.54" fill="none" stroke="url(#rainbowGradient)" stroke-width="2" stroke-linejoin="round" filter="url(#fuzzy)" /><polyline points="-6.55,-90.78 -5.67,-90.93 -4.49,-91 -3.24,-91.03 -2.03,-91.04 -0.93,-91.04 0,-91.04 0.76,-91.04 1.39,-91.04 1.91,-91.02 2.29,-90.98 2.47,-90.93 2.31,-90.87 1.72,-90.8 0.63,-90.74 -0.96,-90.69 -3.05,-90.64 -5.57,-90.57" fill="none" stroke="url(#rainbowGradient)" stroke-width="2" stroke-linejoin="round" filter="url(#fuzzy)" /><polyline points="-39.14,-77.32 -38.78,-77.69 -37.93,-78.31 -36.61,-79.17 -35.03,-80.17 -33.45,-81.13 -32.02,-81.99 -30.8,-82.72 -29.75,-83.33 -28.87,-83.83 -28.18,-84.23 -27.72,-84.49 -27.52,-84.61 -27.6,-84.59 -27.96,-84.41 -28.7,-84.04 -30.02,-83.4" fill="none" stroke="url(#rainbowGradient)" stroke-width="2" stroke-linejoin="round" filter="url(#fuzzy)" /><polyline points="-38.97,-77.67 -38.32,-78.12 -37.13,-78.94 -35.69,-79.88 -34.32,-80.76 -33.14,-81.5 -32.16,-82.11 -31.32,-82.63 -30.57,-83.08 -29.89,-83.45 -29.29,-83.76 -28.78,-83.98 -28.41,-84.1 -28.23,-84.1 -28.31,-83.94 -28.74,-83.6 -29.55,-83.04 -30.7,-82.28 -32.14,-81.37 -33.84,-80.33 -35.86,-79.14 -38.44,-77.63" fill="none" stroke="url(#rainbowGradient)" stroke-width="2" stroke-linejoin="round" filter="url(#fuzzy)" /><polyline points="30.95,-82.63 32.62,-81.78 33.37,-81.29 33.76,-80.92 33.86,-80.64 33.63,-80.44 33.02,-80.35 31.97,-80.39 30.45,-80.58 28.44,-80.9 25.9,-81.37 22.79,-82.01 19.06,-82.84 14.68,-83.86 9.61,-85.1 3.77,-86.56 -3.08,-88.27" fill="none" stroke="url(#rainbowGradient)" stroke-width="2" stroke-linejoin="round" filter="url(#fuzzy)" /><polyline points="64.15,-47.35 64.15,-46.91 63.92,-46.19 63.26,-45.75 62.11,-45.64 60.41,-45.92 58.12,-46.61 55.19,-47.77 51.58,-49.42 47.23,-51.59 42.12,-54.31 36.2,-57.59 29.47,-61.42 21.94,-65.8 13.58,-70.71 4.29,-76.16 -6,-82.11" fill="none" stroke="url(#rainbowGradient)" stroke-width="2" stroke-linejoin="round" filter="url(#fuzzy)" /><polyline points="51.24,-66.28 52.09,-65.41 52.79,-64.54 53.48,-63.64 54.17,-62.72 54.81,-61.85 55.34,-61.08 55.75,-60.46 55.99,-60.02 56,-59.83 55.77,-59.91 55.28,-60.25 54.53,-60.85 53.54,-61.71 52.3,-62.83 50.82,-64.23 49.09,-65.96 47.07,-68.02 44.67,-70.48 41.82,-73.38 38.63,-76.66" fill="none" stroke="url(#rainbowGradient)" stroke-width="2" stroke-linejoin="round" filter="url(#fuzzy)" /><polyline points="14.17,-89.32 15.43,-88.97 16.4,-88.63 16.9,-88.29 16.97,-87.92 16.66,-87.49 15.97,-87 14.91,-86.46 13.46,-85.85 11.6,-85.15 9.3,-84.36 6.52,-83.49 3.27,-82.54 -0.49,-81.55 -4.82,-80.49 -9.8,-79.36 -15.5,-78.15 -21.91,-76.84 -28.99,-75.45 -36.69,-73.98" fill="none" stroke="url(#rainbowGradient)" stroke-width="2" stroke-linejoin="round" filter="url(#fuzzy)" /><polyline points="46.1,-71.27 47.44,-70.11 48.72,-68.99 49.84,-67.91 50.83,-66.8 51.75,-65.68 52.64,-64.54 53.5,-63.41 54.35,-62.3 55.17,-61.21 55.96,-60.18 56.69,-59.23 57.33,-58.39 57.85,-57.72 58.19,-57.26 58.33,-57.05 58.25,-57.1 57.96,-57.4 57.47,-57.96 56.82,-58.76 55.99,-59.84 55,-61.18 53.82,-62.82 52.41,-64.79" fill="none" stroke="url(#rainbowGradient)" stroke-width="2" stroke-linejoin="round" filter="url(#fuzzy)" /><polyline points="-37.98,-78.6 -35.68,-79.81 -33.65,-80.56 -31.67,-81 -29.57,-81.23 -27.2,-81.35 -24.5,-81.39 -21.46,-81.37 -18.11,-81.29 -14.48,-81.16 -10.59,-80.98 -6.5,-80.76 -2.28,-80.49 2,-80.18 6.32,-79.85 10.64,-79.49 14.98,-79.13 19.32,-78.76 23.64,-78.36 27.95,-77.91 32.29,-77.41 36.55,-76.94" fill="none" stroke="url(#rainbowGradient)" stroke-width="2" stroke-linejoin="round" filter="url(#fuzzy)" /><polyline points="55.85,-60.63 55.96,-60.2 56.15,-59.53 56.12,-58.94 55.56,-58.72 54.35,-58.93 52.55,-59.49 50.2,-60.36 47.33,-61.53 43.9,-63.02 39.87,-64.88 35.19,-67.14 29.81,-69.83 23.68,-72.98 16.76,-76.6 9.05,-80.72 0.61,-85.38" fill="none" stroke="url(#rainbowGradient)" stroke-width="2" stroke-linejoin="round" filter="url(#fuzzy)" /><polyline points="27.92,-84.66 29.65,-83.61 30.78,-82.93 31.54,-82.44 32.11,-82.02 32.54,-81.66 32.81,-81.35 32.89,-81.1 32.72,-80.93 32.26,-80.84 31.48,-80.84 30.37,-80.93 28.95,-81.11 27.22,-81.4 25.15,-81.79 22.7,-82.31 19.83,-82.97 16.49,-83.78 12.67,-84.76 8.35,-85.93 3.52,-87.3 -1.87,-88.9" fill="none" stroke="url(#rainbowGradient)" stroke-width="2" stroke-linejoin="round" filter="url(#fuzzy)" /><polyline points="12.05,-89.81 13.27,-89.55 14.62,-89.16 16.15,-88.68 17.74,-88.18 19.31,-87.65 20.81,-87.11 22.23,-86.55 23.57,-86 24.83,-85.48 26,-84.98 27.07,-84.53 28,-84.14 28.76,-83.84 29.29,-83.64 29.53,-83.58 29.37,-83.7 28.71,-84.03 27.42,-84.63" fill="none" stroke="url(#rainbowGradient)" stroke-width="2" stroke-linejoin="round" filter="url(#fuzzy)" />
    </g>
    
        <g id="pointNose">
          <g id="rightNose"><circle r="2.0860000000000003" cx="10.17" cy="15.48" stroke="black" fill="none" stroke-width="1.0" filter="url(#fuzzy)" /><circle r="2.8899999999999997" cx="11.534" cy="18.672" stroke="black" fill="none" stroke-width="1.0" filter="url(#fuzzy)" /><circle r="1.9260000000000002" cx="9.89" cy="18.768" stroke="black" fill="none" stroke-width="1.0" filter="url(#fuzzy)" /><circle r="1.026" cx="11.798" cy="16.823999999999998" stroke="black" fill="none" stroke-width="1.0" filter="url(#fuzzy)" /><circle r="1.502" cx="10.698" cy="17.855999999999998" stroke="black" fill="none" stroke-width="1.0" filter="url(#fuzzy)" /><circle r="1.862" cx="9.158" cy="15.168" stroke="black" fill="none" stroke-width="1.0" filter="url(#fuzzy)" /><circle r="2.5380000000000003" cx="11.718" cy="16.264" stroke="black" fill="none" stroke-width="1.0" filter="url(#fuzzy)" /><circle r="1.026" cx="10.686" cy="15.003999999999998" stroke="black" fill="none" stroke-width="1.0" filter="url(#fuzzy)" /><circle r="1.5819999999999999" cx="9.066" cy="15.712" stroke="black" fill="none" stroke-width="1.0" filter="url(#fuzzy)" /><circle r="1.06" cx="10.886" cy="18.088" stroke="black" fill="none" stroke-width="1.0" filter="url(#fuzzy)" /></g>
          <g id="leftNose"><circle r="2.682" cx="-10.152000000000001" cy="22.151999999999997" stroke="black" fill="none" stroke-width="1.0" filter="url(#fuzzy)" /><circle r="1.53" cx="-10.116" cy="19.564" stroke="black" fill="none" stroke-width="1.0" filter="url(#fuzzy)" /><circle r="1.9340000000000002" cx="-9.044" cy="20.747999999999998" stroke="black" fill="none" stroke-width="1.0" filter="url(#fuzzy)" /><circle r="2.992" cx="-9.072" cy="21.432" stroke="black" fill="none" stroke-width="1.0" filter="url(#fuzzy)" /><circle r="1.688" cx="-10.792" cy="22.816" stroke="black" fill="none" stroke-width="1.0" filter="url(#fuzzy)" /><circle r="1.404" cx="-8.996" cy="21.323999999999998" stroke="black" fill="none" stroke-width="1.0" filter="url(#fuzzy)" /><circle r="1.994" cx="-11.096" cy="20.244" stroke="black" fill="none" stroke-width="1.0" filter="url(#fuzzy)" /><circle r="2.496" cx="-9.456" cy="20.668" stroke="black" fill="none" stroke-width="1.0" filter="url(#fuzzy)" /><circle r="1.512" cx="-12.264000000000001" cy="21.38" stroke="black" fill="none" stroke-width="1.0" filter="url(#fuzzy)" /><circle r="2.358" cx="-10.82" cy="19.868" stroke="black" fill="none" stroke-width="1.0" filter="url(#fuzzy)" /></g>
        </g>
      
    <g id="mouth">
      <polyline points="-26.7,48.83 -26.44,48.05 -26.17,47.29 -25.88,46.57 -25.59,45.87 -25.28,45.2 -24.96,44.55 -24.62,43.93 -24.28,43.34 -23.92,42.77 -23.55,42.22 -23.17,41.7 -22.78,41.2 -22.38,40.73 -21.97,40.28 -21.55,39.85 -21.12,39.44 -20.67,39.06 -20.22,38.69 -19.76,38.35 -19.29,38.03 -18.81,37.73 -18.32,37.45 -17.83,37.19 -17.32,36.94 -16.81,36.72 -16.29,36.51 -15.76,36.33 -15.22,36.16 -14.68,36 -14.13,35.87 -13.57,35.74 -13.01,35.64 -12.44,35.55 -11.86,35.48 -11.28,35.42 -10.69,35.38 -10.1,35.34 -9.5,35.33 -8.9,35.32 -8.29,35.33 -7.68,35.36 -7.06,35.39 -6.44,35.43 -5.82,35.49 -5.19,35.56 -4.56,35.64 -3.92,35.72 -3.28,35.82 -2.64,35.93 -2,36.04 -1.35,36.17 -0.71,36.3 -0.06,36.44 0.6,36.59 1.25,36.74 1.9,36.91 2.56,37.07 3.21,37.25 3.87,37.42 4.53,37.61 5.18,37.8 5.84,37.99 6.5,38.18 7.15,38.38 7.81,38.59 8.46,38.79 9.11,39 9.76,39.21 10.41,39.42 11.06,39.63 11.71,39.85 12.35,40.06 12.99,40.27 13.63,40.48 14.26,40.7 14.9,40.91 15.52,41.12 16.15,41.32 16.77,41.53 17.39,41.73 18,41.93 18.61,42.12 19.21,42.31 19.81,42.5 20.4,42.68 20.99,42.86 21.57,43.03 22.15,43.19 22.71,43.35 23.28,43.5 23.84,43.65 24.39,43.78 24.93,43.91 25.46,44.04 25.99,44.15 26.51,44.25 27.03,44.34 27.53,44.43 28.03,44.5 28.52,44.57 28.03,44.5 27.53,44.43 27.03,44.34 26.51,44.25 25.99,44.15 25.46,44.04 24.93,43.91 24.39,43.78 23.84,43.65 23.28,43.5 22.71,43.35 22.15,43.19 21.57,43.03 20.99,42.86 20.4,42.68 19.81,42.5 19.21,42.31 18.61,42.12 18,41.93 17.39,41.73 16.77,41.53 16.15,41.32 15.52,41.12 14.9,40.91 14.26,40.7 13.63,40.48 12.99,40.27 12.35,40.06 11.71,39.85 11.06,39.63 10.41,39.42 9.76,39.21 9.11,39 8.46,38.79 7.81,38.59 7.15,38.38 6.5,38.18 5.84,37.99 5.18,37.8 4.53,37.61 3.87,37.42 3.21,37.25 2.56,37.07 1.9,36.91 1.25,36.74 0.6,36.59 -0.06,36.44 -0.71,36.3 -1.35,36.17 -2,36.04 -2.64,35.93 -3.28,35.82 -3.92,35.72 -4.56,35.64 -5.19,35.56 -5.82,35.49 -6.44,35.43 -7.06,35.39 -7.68,35.36 -8.29,35.33 -8.9,35.32 -9.5,35.33 -10.1,35.34 -10.69,35.38 -11.28,35.42 -11.86,35.48 -12.44,35.55 -13.01,35.64 -13.57,35.74 -14.13,35.87 -14.68,36 -15.22,36.16 -15.76,36.33 -16.29,36.51 -16.81,36.72 -17.32,36.94 -17.83,37.19 -18.32,37.45 -18.81,37.73 -19.29,38.03 -19.76,38.35 -20.22,38.69 -20.67,39.06 -21.12,39.44 -21.55,39.85 -21.97,40.28 -22.38,40.73 -22.78,41.2 -23.17,41.7 -23.55,42.22 -23.92,42.77 -24.28,43.34 -24.62,43.93 -24.96,44.55 -25.28,45.2 -25.59,45.87 -25.88,46.57 -26.17,47.29 -26.44,48.05" fill="rgb(215,127,140)" stroke="black" stroke-width="3" stroke-linejoin="round" filter="url(#fuzzy)" />
    </g>
  </svg>