<svg viewBox="-100 -100 200 200" xmlns="http://www.w3.org/2000/svg" width="500" height="500" id="face-svg">
    <defs>
      <clipPath id="leftEyeClipPath">
        <polyline points="30.98,-2.54 30.75,-2.68 30.47,-2.82 30.14,-2.96 29.78,-3.09 29.37,-3.21 28.92,-3.33 28.44,-3.44 27.92,-3.55 27.37,-3.65 26.79,-3.75 26.18,-3.84 25.54,-3.93 24.88,-4.01 24.19,-4.09 23.48,-4.17 22.66,-4.25 21.81,-4.33 20.94,-4.4 20.04,-4.47 19.12,-4.54 18.18,-4.6 17.23,-4.66 16.25,-4.72 15.27,-4.78 14.28,-4.83 13.28,-4.88 12.27,-4.93 11.27,-4.98 10.26,-5.02 9.25,-5.06 8.25,-5.09 7.25,-5.13 6.26,-5.16 5.27,-5.18 4.3,-5.2 3.34,-5.22 2.4,-5.23 1.47,-5.24 0.55,-5.24 -0.34,-5.24 -1.22,-5.24 -2.07,-5.23 -2.91,-5.22 -3.72,-5.2 -4.51,-5.17 -5.28,-5.15 -6.02,-5.11 -6.74,-5.07 -7.43,-5.03 -8.1,-4.98 -8.74,-4.93 -9.36,-4.87 -9.95,-4.8 -10.51,-4.73 -11.06,-4.66 -11.57,-4.58 -12.07,-4.49 -12.54,-4.4 -12.98,-4.31 -13.41,-4.21 -13.81,-4.1 -14.2,-3.99 -14.56,-3.88 -14.91,-3.76 -15.23,-3.64 -15.54,-3.51 -15.84,-3.38 -16.11,-3.24 -16.37,-3.1 -16.62,-2.96 -16.85,-2.81 -17.06,-2.65 -17.26,-2.49 -17.44,-2.32 -17.61,-2.15 -17.77,-1.98 -17.91,-1.8 -18.04,-1.61 -18.16,-1.42 -18.52,-0.67 -18.32,-0.48 -18.12,-0.28 -17.91,-0.09 -17.68,0.1 -17.44,0.3 -17.2,0.49 -16.94,0.69 -16.66,0.89 -16.38,1.08 -16.08,1.28 -15.76,1.47 -15.44,1.67 -15.09,1.86 -14.74,2.05 -14.37,2.24 -13.98,2.42 -13.58,2.61 -13.16,2.8 -12.72,2.98 -12.27,3.16 -11.79,3.34 -11.3,3.51 -10.78,3.68 -10.25,3.84 -9.69,4 -9.11,4.15 -8.51,4.29 -7.89,4.43 -7.25,4.55 -6.59,4.67 -5.9,4.78 -5.19,4.88 -4.46,4.96 -3.71,5.04 -2.94,5.1 -2.15,5.16 -1.34,5.2 -0.51,5.23 0.34,5.24 1.21,5.25 2.09,5.24 2.99,5.22 3.9,5.18 4.82,5.13 5.76,5.07 6.7,5 7.66,4.91 8.62,4.81 9.58,4.69 10.56,4.57 11.53,4.43 12.5,4.28 13.48,4.12 14.45,3.95 15.41,3.76 16.37,3.57 17.31,3.37 18.25,3.16 19.17,2.94 20.08,2.72 20.96,2.49 21.83,2.25 22.68,2.01 23.5,1.76 24.19,1.57 24.87,1.38 25.52,1.19 26.16,0.99 26.76,0.79 27.34,0.59 27.89,0.39 28.41,0.19 28.9,-0.01 29.35,-0.2 29.76,-0.4 30.14,-0.59 30.48,-0.78 30.77,-0.97 31.02,-1.15" />
      </clipPath>
      <clipPath id="rightEyeClipPath">
        <polyline points="-29.18,-2.85 -29.43,-3.04 -29.61,-3.22 -29.72,-3.39 -29.78,-3.56 -29.78,-3.71 -29.71,-3.86 -29.59,-4 -29.42,-4.13 -29.2,-4.26 -28.92,-4.37 -28.6,-4.49 -28.23,-4.59 -27.82,-4.69 -27.37,-4.79 -26.87,-4.88 -26.36,-4.97 -25.79,-5.05 -25.17,-5.13 -24.49,-5.21 -23.77,-5.28 -23.01,-5.35 -22.2,-5.42 -21.36,-5.48 -20.48,-5.54 -19.57,-5.59 -18.62,-5.65 -17.66,-5.69 -16.67,-5.74 -15.66,-5.78 -14.63,-5.82 -13.59,-5.85 -12.54,-5.88 -11.48,-5.91 -10.42,-5.93 -9.36,-5.95 -8.3,-5.96 -7.24,-5.97 -6.19,-5.97 -5.15,-5.97 -4.12,-5.96 -3.11,-5.95 -2.11,-5.93 -1.13,-5.91 -0.17,-5.88 0.78,-5.85 1.69,-5.8 2.59,-5.76 3.46,-5.71 4.3,-5.65 5.11,-5.58 5.9,-5.51 6.66,-5.43 7.39,-5.34 8.09,-5.25 8.76,-5.15 9.4,-5.05 10.01,-4.94 10.6,-4.82 11.15,-4.69 11.68,-4.56 12.18,-4.42 12.66,-4.27 13.11,-4.12 13.54,-3.96 13.94,-3.8 14.33,-3.63 14.69,-3.45 15.03,-3.26 15.35,-3.07 15.64,-2.87 15.92,-2.67 16.18,-2.45 16.42,-2.23 16.64,-2 16.84,-1.77 17.02,-1.52 17.18,-1.27 17.33,-1.02 17.47,-0.75 19.18,-0.56 19.01,-0.33 18.84,-0.1 18.66,0.13 18.47,0.37 18.27,0.6 18.07,0.83 17.85,1.07 17.63,1.3 17.4,1.53 17.15,1.76 16.9,1.99 16.64,2.22 16.37,2.44 16.09,2.66 15.8,2.88 15.5,3.1 15.18,3.32 14.85,3.53 14.51,3.74 14.16,3.94 13.79,4.14 13.41,4.34 13.01,4.52 12.59,4.7 12.16,4.87 11.71,5.03 11.24,5.18 10.76,5.32 10.26,5.44 9.73,5.56 9.19,5.66 8.63,5.75 8.05,5.82 7.45,5.88 6.82,5.93 6.18,5.96 5.52,5.98 4.83,5.98 4.12,5.96 3.4,5.93 2.65,5.88 1.88,5.82 1.09,5.74 0.28,5.65 -0.55,5.54 -1.4,5.42 -2.27,5.28 -3.16,5.13 -4.07,4.97 -4.99,4.79 -5.93,4.6 -6.88,4.4 -7.85,4.18 -8.83,3.96 -9.82,3.73 -10.82,3.48 -11.83,3.23 -12.85,2.98 -13.87,2.71 -14.9,2.45 -15.92,2.18 -16.95,1.9 -17.97,1.62 -18.98,1.35 -19.79,1.12 -20.58,0.89 -21.37,0.66 -22.14,0.43 -22.89,0.2 -23.63,-0.03 -24.35,-0.26 -25.05,-0.49 -25.72,-0.72 -26.37,-0.94 -26.98,-1.16 -27.57,-1.38 -28.12,-1.59 -28.64,-1.8 -29.11,-2" />
      </clipPath>
      <filter id="fuzzy">
        <feTurbulence id="turbulence" baseFrequency="0.05" numOctaves="3" type="noise" result="noise" />
        <feDisplacementMap in="SourceGraphic" in2="noise" scale="2" />
      </filter>
      <linearGradient id="rainbowGradient" x1="0%" y1="0%" x2="100%" y2="0%">
        <stop offset="0%" style="stop-color: [object Object]; stop-opacity: 1" />
        <stop offset="50%" style="stop-color: [object Object]; stop-opacity: 1" />
        <stop offset="100%" style="stop-color: [object Object]; stop-opacity: 1" />
      </linearGradient>
    </defs>
    <rect x="-100" y="-100" width="100%" height="100%" fill="rgb(255, 255, 224)" />
    <polyline id="faceContour" points="66.2,0.75 66.29,1.17 66.26,2.09 66.12,3.93 65.98,5.35 65.9,6.05 66.07,6.11 65.83,8.68 65.67,8.91 65.52,10.87 65.43,10.33 65.16,12.19 65.31,11.66 64.99,13.7 64.58,15.75 64.32,16.63 63.85,19.62 63.47,20.54 63.46,20.83 63.12,21.85 63.02,22.78 62.49,23.65 62.16,25.12 62.06,25.86 61.97,26.05 61,28.77 60.76,29.12 60.2,30.47 60.25,30.33 59.64,32.14 59.16,33.06 57.62,35.95 57.23,36.88 57.4,36.35 56.65,37.86 56.68,38.27 55.94,39.12 55,40.94 54.71,41.67 53.64,43.07 53.23,43.56 52.57,44.71 52.06,45.64 52.25,45.23 50.57,47.47 50.25,47.95 50.3,48 48.95,49.56 49.23,49.14 47.37,51.42 46.37,52.37 45.81,53.05 45.8,53.48 44.2,54.82 42.96,55.58 42.31,56.56 42.41,56.7 41.27,57.3 40.38,58.27 39.26,59.32 38.4,60.28 37.55,60.73 37.59,60.48 36.34,61.53 36.19,61.67 35.29,62.04 33.58,63.28 34.1,62.97 31.18,64.75 29.48,65.99 30.42,65.49 30.7,65.24 28.36,66.31 27.38,67.01 26.67,67.23 24.85,68.42 22.66,69.08 22.91,68.8 22.85,68.86 21.14,69.75 20.3,69.97 19.84,70.12 18.42,70.71 16.99,71.02 14.97,71.55 15.39,71.7 14.33,71.85 13.35,72.15 13.5,71.85 10.53,72.82 10.38,72.72 10.14,72.69 7.09,73.16 6.2,73.21 6.12,73.21 5.46,73.48 4.6,73.33 3.11,73.46 1.93,73.64 1.28,73.62 1.05,73.72 -2.06,73.59 -2.8,73.54 -2.09,73.47 -2.68,73.64 -4.84,73.33 -6.01,73.43 -7.84,73.03 -8.19,72.94 -10.15,72.57 -10.73,72.72 -11.67,72.35 -12.71,72.08 -12.77,72.17 -13.56,71.91 -14.75,71.81 -16.91,70.89 -17.13,70.95 -18.37,70.7 -19.02,70.58 -19.46,70.19 -22.02,69.28 -22.67,69.05 -23.25,69.09 -25.13,67.95 -26.07,67.71 -25.62,67.65 -26.63,67.44 -27.7,66.89 -28.91,66 -30.68,65.13 -30.98,65.06 -32.64,63.95 -33.5,63.55 -32.83,63.6 -33.24,63.7 -35.52,62 -35.08,62.34 -37.87,60.03 -39.16,59.29 -39.34,59.48 -39.53,58.94 -41.05,57.63 -40.57,57.71 -42.8,56.02 -43.01,55.55 -43.61,55.46 -44.56,54.41 -45.78,52.89 -45,54.03 -46.83,51.93 -47.52,51 -48.93,49.21 -48.85,49.13 -49.37,49.08 -50.17,47.94 -51.3,46.3 -51.15,46.41 -52.51,44.73 -52.3,44.89 -53.6,42.78 -54.08,41.96 -54.99,40.84 -55.43,39.86 -56.34,38.52 -56.66,38.09 -57.6,36 -57.74,35.82 -58.17,35.24 -57.9,35.2 -59.42,32.07 -59.23,32.8 -59.27,32.19 -59.85,31.46 -60.65,29.62 -61.29,26.98 -61.21,27.38 -61.5,26.87 -62.5,24.16 -62.07,25.28 -62.36,24.65 -63.33,21.22 -63.58,20.6 -63.48,19.82 -63.96,18.23 -64.37,16.61 -64.51,16.18 -64.52,16.43 -64.96,13.78 -65.08,12.25 -65.18,10.97 -65.36,10.37 -65.52,10.21 -65.77,7.68 -65.94,6.13 -65.82,6.1 -66.04,4.4 -65.88,2.95 -66.03,1.4 -66.12,1.22 -66.08,-1.33 -66.17,-1.01 -66.11,-2.53 -66.09,-4.45 -65.97,-5.5 -65.82,-5.2 -65.87,-6.05 -65.61,-8.44 -65.36,-10.84 -65.56,-9.11 -65.25,-11.38 -64.92,-13.32 -64.99,-12.53 -64.92,-13.75 -64.47,-16.5 -64.05,-18.41 -64.31,-17.13 -63.91,-18.21 -63.63,-19.54 -62.88,-23.1 -62.59,-23.68 -62.52,-23.39 -62.46,-23.77 -61.45,-26.58 -60.97,-27.8 -61.35,-27.77 -60.79,-28.72 -59.6,-31.19 -59.8,-31.16 -59.88,-31.24 -59.65,-31.71 -58.08,-34.83 -58.01,-35.34 -57.21,-36.92 -57.25,-36.68 -55.81,-39.29 -55.48,-39.8 -54.39,-41.9 -54.99,-40.57 -54.29,-41.72 -53.16,-44 -53.82,-43.08 -52.4,-44.82 -51.22,-46.32 -51.75,-45.75 -50.44,-47.91 -50.21,-47.85 -49.99,-48.09 -47.83,-50.96 -47,-51.5 -46.11,-52.65 -46.48,-52.2 -45.33,-53.31 -44.75,-53.98 -43.53,-55.33 -43.15,-55.57 -42.34,-56.49 -40.55,-57.77 -41.32,-57.63 -38.74,-59.39 -38.92,-59.52 -38.32,-59.9 -38.26,-59.94 -36.86,-60.79 -35.45,-62.08 -34.53,-62.7 -32.8,-63.74 -32.74,-63.78 -32.52,-64.05 -31.46,-64.58 -29.42,-65.98 -30.02,-65.52 -27.12,-66.87 -27.19,-67.08 -27.42,-66.82 -24.7,-68.19 -24.43,-68.39 -23.71,-68.76 -21.85,-69.62 -20.83,-69.96 -20.73,-69.76 -18.73,-70.43 -19.61,-70.07 -15.78,-71.46 -14.81,-71.61 -15.96,-71.19 -14.78,-71.78 -12.81,-72.24 -12.3,-72.34 -12.72,-72.37 -10.35,-72.59 -8.73,-72.77 -8.61,-72.78 -8.07,-73.03 -6.08,-73.35 -4.12,-73.55 -4.39,-73.41 -4.24,-73.54 -2.19,-73.53 -1.56,-73.7 0.04,-73.55 0.31,-73.65 1.51,-73.56 1.91,-73.58 4.23,-73.49 6.32,-73.4 6.44,-73.16 7.9,-73.06 9.25,-72.86 9.9,-72.83 10.79,-72.66 12.85,-72.09 10.75,-72.71 13.6,-71.92 15.11,-71.64 14.61,-71.82 15.72,-71.64 16.34,-71.2 17.35,-71.08 20.06,-70.24 19.52,-70.25 21.76,-69.32 23.57,-68.7 22.97,-68.84 23.29,-68.82 25.82,-67.63 25.72,-67.64 28,-66.54 28.94,-66.2 29.07,-66.28 29.85,-65.37 31.74,-64.79 31.42,-64.71 34.09,-63.07 33.74,-63.27 33.4,-63.38 35.05,-62.57 35.98,-61.49 37.08,-60.94 36.87,-61.35 39.54,-59.15 40.82,-57.95 40.48,-58.28 41.39,-57.28 42.83,-55.85 44.22,-54.92 43.71,-55.18 43.75,-54.96 45.16,-53.52 45.23,-53.74 47.19,-51.71 47.79,-50.86 48.04,-50.73 48.37,-50.44 49.76,-48.37 50.16,-47.76 51.01,-47.23 50.85,-47.23 52.05,-45.31 52.92,-44.4 53.95,-42.74 53.7,-43.06 54.15,-42.02 55.71,-39.94 55.75,-39.31 56.12,-38.61 56.97,-36.96 57.49,-36.91 58.28,-34.77 58.22,-35.22 59.13,-33.33 59.17,-32.95 60.04,-30.91 60.31,-30.12 61.21,-27.78 60.42,-29.77 61.41,-27.91 61.65,-26.71 62.2,-25.41 62.51,-24.32 62.8,-22.97 63.66,-20.65 63.48,-20.93 63.9,-19.39 64.39,-17.3 64.06,-18.53 64.79,-15.23 65,-14.1 64.96,-14.2 65.08,-12.71 65.66,-9.71 65.49,-11.14 65.59,-9.44 65.59,-8.63 65.95,-6.96 65.82,-7.5 66,-5.01 66.08,-3.18 66.13,-3.37 66.18,-0.48 66.2,0.75 66.29,1.17" fill="rgb(205, 92, 92)" stroke="black" stroke-width="1.6666666666666665" stroke-linejoin="round" filter="url(#fuzzy)" />
    <g transform="translate(42.7 -25.19)">
      <polyline id="rightCountour" points="-29.18,-2.85 -29.43,-3.04 -29.61,-3.22 -29.72,-3.39 -29.78,-3.56 -29.78,-3.71 -29.71,-3.86 -29.59,-4 -29.42,-4.13 -29.2,-4.26 -28.92,-4.37 -28.6,-4.49 -28.23,-4.59 -27.82,-4.69 -27.37,-4.79 -26.87,-4.88 -26.36,-4.97 -25.79,-5.05 -25.17,-5.13 -24.49,-5.21 -23.77,-5.28 -23.01,-5.35 -22.2,-5.42 -21.36,-5.48 -20.48,-5.54 -19.57,-5.59 -18.62,-5.65 -17.66,-5.69 -16.67,-5.74 -15.66,-5.78 -14.63,-5.82 -13.59,-5.85 -12.54,-5.88 -11.48,-5.91 -10.42,-5.93 -9.36,-5.95 -8.3,-5.96 -7.24,-5.97 -6.19,-5.97 -5.15,-5.97 -4.12,-5.96 -3.11,-5.95 -2.11,-5.93 -1.13,-5.91 -0.17,-5.88 0.78,-5.85 1.69,-5.8 2.59,-5.76 3.46,-5.71 4.3,-5.65 5.11,-5.58 5.9,-5.51 6.66,-5.43 7.39,-5.34 8.09,-5.25 8.76,-5.15 9.4,-5.05 10.01,-4.94 10.6,-4.82 11.15,-4.69 11.68,-4.56 12.18,-4.42 12.66,-4.27 13.11,-4.12 13.54,-3.96 13.94,-3.8 14.33,-3.63 14.69,-3.45 15.03,-3.26 15.35,-3.07 15.64,-2.87 15.92,-2.67 16.18,-2.45 16.42,-2.23 16.64,-2 16.84,-1.77 17.02,-1.52 17.18,-1.27 17.33,-1.02 17.47,-0.75 19.18,-0.56 19.01,-0.33 18.84,-0.1 18.66,0.13 18.47,0.37 18.27,0.6 18.07,0.83 17.85,1.07 17.63,1.3 17.4,1.53 17.15,1.76 16.9,1.99 16.64,2.22 16.37,2.44 16.09,2.66 15.8,2.88 15.5,3.1 15.18,3.32 14.85,3.53 14.51,3.74 14.16,3.94 13.79,4.14 13.41,4.34 13.01,4.52 12.59,4.7 12.16,4.87 11.71,5.03 11.24,5.18 10.76,5.32 10.26,5.44 9.73,5.56 9.19,5.66 8.63,5.75 8.05,5.82 7.45,5.88 6.82,5.93 6.18,5.96 5.52,5.98 4.83,5.98 4.12,5.96 3.4,5.93 2.65,5.88 1.88,5.82 1.09,5.74 0.28,5.65 -0.55,5.54 -1.4,5.42 -2.27,5.28 -3.16,5.13 -4.07,4.97 -4.99,4.79 -5.93,4.6 -6.88,4.4 -7.85,4.18 -8.83,3.96 -9.82,3.73 -10.82,3.48 -11.83,3.23 -12.85,2.98 -13.87,2.71 -14.9,2.45 -15.92,2.18 -16.95,1.9 -17.97,1.62 -18.98,1.35 -19.79,1.12 -20.58,0.89 -21.37,0.66 -22.14,0.43 -22.89,0.2 -23.63,-0.03 -24.35,-0.26 -25.05,-0.49 -25.72,-0.72 -26.37,-0.94 -26.98,-1.16 -27.57,-1.38 -28.12,-1.59 -28.64,-1.8 -29.11,-2" fill="white" stroke="white" stroke-width="0" stroke-linejoin="round" filter="url(#fuzzy)" />
    </g>
    <g transform="translate(-32.09 -23.17)">
      <polyline id="leftCountour" points="30.98,-2.54 30.75,-2.68 30.47,-2.82 30.14,-2.96 29.78,-3.09 29.37,-3.21 28.92,-3.33 28.44,-3.44 27.92,-3.55 27.37,-3.65 26.79,-3.75 26.18,-3.84 25.54,-3.93 24.88,-4.01 24.19,-4.09 23.48,-4.17 22.66,-4.25 21.81,-4.33 20.94,-4.4 20.04,-4.47 19.12,-4.54 18.18,-4.6 17.23,-4.66 16.25,-4.72 15.27,-4.78 14.28,-4.83 13.28,-4.88 12.27,-4.93 11.27,-4.98 10.26,-5.02 9.25,-5.06 8.25,-5.09 7.25,-5.13 6.26,-5.16 5.27,-5.18 4.3,-5.2 3.34,-5.22 2.4,-5.23 1.47,-5.24 0.55,-5.24 -0.34,-5.24 -1.22,-5.24 -2.07,-5.23 -2.91,-5.22 -3.72,-5.2 -4.51,-5.17 -5.28,-5.15 -6.02,-5.11 -6.74,-5.07 -7.43,-5.03 -8.1,-4.98 -8.74,-4.93 -9.36,-4.87 -9.95,-4.8 -10.51,-4.73 -11.06,-4.66 -11.57,-4.58 -12.07,-4.49 -12.54,-4.4 -12.98,-4.31 -13.41,-4.21 -13.81,-4.1 -14.2,-3.99 -14.56,-3.88 -14.91,-3.76 -15.23,-3.64 -15.54,-3.51 -15.84,-3.38 -16.11,-3.24 -16.37,-3.1 -16.62,-2.96 -16.85,-2.81 -17.06,-2.65 -17.26,-2.49 -17.44,-2.32 -17.61,-2.15 -17.77,-1.98 -17.91,-1.8 -18.04,-1.61 -18.16,-1.42 -18.52,-0.67 -18.32,-0.48 -18.12,-0.28 -17.91,-0.09 -17.68,0.1 -17.44,0.3 -17.2,0.49 -16.94,0.69 -16.66,0.89 -16.38,1.08 -16.08,1.28 -15.76,1.47 -15.44,1.67 -15.09,1.86 -14.74,2.05 -14.37,2.24 -13.98,2.42 -13.58,2.61 -13.16,2.8 -12.72,2.98 -12.27,3.16 -11.79,3.34 -11.3,3.51 -10.78,3.68 -10.25,3.84 -9.69,4 -9.11,4.15 -8.51,4.29 -7.89,4.43 -7.25,4.55 -6.59,4.67 -5.9,4.78 -5.19,4.88 -4.46,4.96 -3.71,5.04 -2.94,5.1 -2.15,5.16 -1.34,5.2 -0.51,5.23 0.34,5.24 1.21,5.25 2.09,5.24 2.99,5.22 3.9,5.18 4.82,5.13 5.76,5.07 6.7,5 7.66,4.91 8.62,4.81 9.58,4.69 10.56,4.57 11.53,4.43 12.5,4.28 13.48,4.12 14.45,3.95 15.41,3.76 16.37,3.57 17.31,3.37 18.25,3.16 19.17,2.94 20.08,2.72 20.96,2.49 21.83,2.25 22.68,2.01 23.5,1.76 24.19,1.57 24.87,1.38 25.52,1.19 26.16,0.99 26.76,0.79 27.34,0.59 27.89,0.39 28.41,0.19 28.9,-0.01 29.35,-0.2 29.76,-0.4 30.14,-0.59 30.48,-0.78 30.77,-0.97 31.02,-1.15" fill="white" stroke="white" stroke-width="0" stroke-linejoin="round" filter="url(#fuzzy)" />
    </g>
    <g transform="translate(42.7 -25.19)">
      <polyline id="rightUpper" points="-22.61,-0.31 -23.63,-0.63 -24.57,-0.93 -25.42,-1.21 -26.19,-1.48 -26.88,-1.74 -27.48,-1.99 -28.02,-2.22 -28.48,-2.44 -28.86,-2.65 -29.18,-2.85 -29.43,-3.04 -29.61,-3.22 -29.72,-3.39 -29.78,-3.56 -29.78,-3.71 -29.71,-3.86 -29.59,-4 -29.42,-4.13 -29.2,-4.26 -28.92,-4.37 -28.6,-4.49 -28.23,-4.59 -27.82,-4.69 -27.37,-4.79 -26.87,-4.88 -26.36,-4.97 -25.79,-5.05 -25.17,-5.13 -24.49,-5.21 -23.77,-5.28 -23.01,-5.35 -22.2,-5.42 -21.36,-5.48 -20.48,-5.54 -19.57,-5.59 -18.62,-5.65 -17.66,-5.69 -16.67,-5.74 -15.66,-5.78 -14.63,-5.82 -13.59,-5.85 -12.54,-5.88 -11.48,-5.91 -10.42,-5.93 -9.36,-5.95 -8.3,-5.96 -7.24,-5.97 -6.19,-5.97 -5.15,-5.97 -4.12,-5.96 -3.11,-5.95 -2.11,-5.93 -1.13,-5.91 -0.17,-5.88 0.78,-5.85 1.69,-5.8 2.59,-5.76 3.46,-5.71 4.3,-5.65 5.11,-5.58 5.9,-5.51 6.66,-5.43 7.39,-5.34 8.09,-5.25 8.76,-5.15 9.4,-5.05 10.01,-4.94 10.6,-4.82 11.15,-4.69 11.68,-4.56 12.18,-4.42 12.66,-4.27 13.11,-4.12 13.54,-3.96 13.94,-3.8 14.33,-3.63 14.69,-3.45 15.03,-3.26 15.35,-3.07 15.64,-2.87 15.92,-2.67 16.18,-2.45 16.42,-2.23 16.64,-2 16.84,-1.77 17.02,-1.52 17.18,-1.27 17.33,-1.02 17.47,-0.75 17.58,-0.48 17.69,-0.21 17.77,0.08 17.85,0.37 17.91,0.66 17.95,0.97 17.99,1.27 18.01,1.59 18.02,1.91 18.02,2.24" fill="none" stroke="black" stroke-width="1.6666666666666665" stroke-linejoin="round" filter="url(#fuzzy)" />
      <polyline id="rightLower" points="-30.96,-3.57 -31.07,-3.46 -31.1,-3.34 -31.06,-3.2 -30.95,-3.06 -30.78,-2.9 -30.55,-2.74 -30.27,-2.56 -29.93,-2.38 -29.54,-2.19 -29.11,-2 -28.64,-1.8 -28.12,-1.59 -27.57,-1.38 -26.98,-1.16 -26.37,-0.94 -25.72,-0.72 -25.05,-0.49 -24.35,-0.26 -23.63,-0.03 -22.89,0.2 -22.14,0.43 -21.37,0.66 -20.58,0.89 -19.79,1.12 -18.98,1.35 -17.97,1.62 -16.95,1.9 -15.92,2.18 -14.9,2.45 -13.87,2.71 -12.85,2.98 -11.83,3.23 -10.82,3.48 -9.82,3.73 -8.83,3.96 -7.85,4.18 -6.88,4.4 -5.93,4.6 -4.99,4.79 -4.07,4.97 -3.16,5.13 -2.27,5.28 -1.4,5.42 -0.55,5.54 0.28,5.65 1.09,5.74 1.88,5.82 2.65,5.88 3.4,5.93 4.12,5.96 4.83,5.98 5.52,5.98 6.18,5.96 6.82,5.93 7.45,5.88 8.05,5.82 8.63,5.75 9.19,5.66 9.73,5.56 10.26,5.44 10.76,5.32 11.24,5.18 11.71,5.03 12.16,4.87 12.59,4.7 13.01,4.52 13.41,4.34 13.79,4.14 14.16,3.94 14.51,3.74 14.85,3.53 15.18,3.32 15.5,3.1 15.8,2.88 16.09,2.66 16.37,2.44 16.64,2.22 16.9,1.99 17.15,1.76 17.4,1.53 17.63,1.3 17.85,1.07 18.07,0.83 18.27,0.6 18.47,0.37 18.66,0.13 18.84,-0.1 19.01,-0.33 19.18,-0.56 19.34,-0.78 19.49,-1.01 19.63,-1.23 19.77,-1.46 19.9,-1.67 20.03,-1.89 20.15,-2.1 20.26,-2.31 20.37,-2.52 20.47,-2.73" fill="none" stroke="black" stroke-width="2.2222222222222223" stroke-linejoin="round" filter="url(#fuzzy)" />
      <circle r="4.178" cx="10.370890228091074" cy="-2.2748356357169524" stroke="black" fill="none" stroke-width="1.0" filter="url(#fuzzy)" clip-path="url(#rightEyeClipPath)" /><circle r="4.67" cx="8.320890228091075" cy="-3.5498356357169523" stroke="black" fill="none" stroke-width="1.0" filter="url(#fuzzy)" clip-path="url(#rightEyeClipPath)" /><circle r="3.748" cx="7.585890228091076" cy="-2.1898356357169524" stroke="black" fill="none" stroke-width="1.0" filter="url(#fuzzy)" clip-path="url(#rightEyeClipPath)" /><circle r="4.808" cx="10.610890228091076" cy="-3.3598356357169523" stroke="black" fill="none" stroke-width="1.0" filter="url(#fuzzy)" clip-path="url(#rightEyeClipPath)" /><circle r="4.13" cx="11.700890228091076" cy="-4.129835635716952" stroke="black" fill="none" stroke-width="1.0" filter="url(#fuzzy)" clip-path="url(#rightEyeClipPath)" /><circle r="3.818" cx="9.990890228091075" cy="-4.6448356357169525" stroke="black" fill="none" stroke-width="1.0" filter="url(#fuzzy)" clip-path="url(#rightEyeClipPath)" /><circle r="4.51" cx="8.840890228091075" cy="-0.3448356357169522" stroke="black" fill="none" stroke-width="1.0" filter="url(#fuzzy)" clip-path="url(#rightEyeClipPath)" /><circle r="3.9379999999999997" cx="9.705890228091075" cy="-1.2948356357169524" stroke="black" fill="none" stroke-width="1.0" filter="url(#fuzzy)" clip-path="url(#rightEyeClipPath)" /><circle r="3.548" cx="9.890890228091076" cy="-3.3198356357169523" stroke="black" fill="none" stroke-width="1.0" filter="url(#fuzzy)" clip-path="url(#rightEyeClipPath)" /><circle r="3.9459999999999997" cx="7.925890228091076" cy="-0.7848356357169517" stroke="black" fill="none" stroke-width="1.0" filter="url(#fuzzy)" clip-path="url(#rightEyeClipPath)" />
      </g>
    <g transform="translate(-32.09 -23.17)">
      <polyline id="leftUpper" points="30.22,-0.64 30.58,-0.87 30.88,-1.09 31.1,-1.3 31.26,-1.5 31.36,-1.69 31.4,-1.88 31.37,-2.05 31.3,-2.22 31.16,-2.38 30.98,-2.54 30.75,-2.68 30.47,-2.82 30.14,-2.96 29.78,-3.09 29.37,-3.21 28.92,-3.33 28.44,-3.44 27.92,-3.55 27.37,-3.65 26.79,-3.75 26.18,-3.84 25.54,-3.93 24.88,-4.01 24.19,-4.09 23.48,-4.17 22.66,-4.25 21.81,-4.33 20.94,-4.4 20.04,-4.47 19.12,-4.54 18.18,-4.6 17.23,-4.66 16.25,-4.72 15.27,-4.78 14.28,-4.83 13.28,-4.88 12.27,-4.93 11.27,-4.98 10.26,-5.02 9.25,-5.06 8.25,-5.09 7.25,-5.13 6.26,-5.16 5.27,-5.18 4.3,-5.2 3.34,-5.22 2.4,-5.23 1.47,-5.24 0.55,-5.24 -0.34,-5.24 -1.22,-5.24 -2.07,-5.23 -2.91,-5.22 -3.72,-5.2 -4.51,-5.17 -5.28,-5.15 -6.02,-5.11 -6.74,-5.07 -7.43,-5.03 -8.1,-4.98 -8.74,-4.93 -9.36,-4.87 -9.95,-4.8 -10.51,-4.73 -11.06,-4.66 -11.57,-4.58 -12.07,-4.49 -12.54,-4.4 -12.98,-4.31 -13.41,-4.21 -13.81,-4.1 -14.2,-3.99 -14.56,-3.88 -14.91,-3.76 -15.23,-3.64 -15.54,-3.51 -15.84,-3.38 -16.11,-3.24 -16.37,-3.1 -16.62,-2.96 -16.85,-2.81 -17.06,-2.65 -17.26,-2.49 -17.44,-2.32 -17.61,-2.15 -17.77,-1.98 -17.91,-1.8 -18.04,-1.61 -18.16,-1.42 -18.27,-1.23 -18.36,-1.03 -18.44,-0.83 -18.52,-0.63 -18.58,-0.42 -18.63,-0.2 -18.67,0.01 -18.7,0.23 -18.73,0.46 -18.74,0.69" fill="none" stroke="black" stroke-width="2.2222222222222223" stroke-linejoin="round" filter="url(#fuzzy)" />
      <polyline id="leftLower" points="30.46,-2.61 30.8,-2.51 31.08,-2.39 31.28,-2.27 31.41,-2.13 31.49,-1.99 31.5,-1.83 31.46,-1.67 31.37,-1.51 31.22,-1.33 31.02,-1.15 30.77,-0.97 30.48,-0.78 30.14,-0.59 29.76,-0.4 29.35,-0.2 28.9,-0.01 28.41,0.19 27.89,0.39 27.34,0.59 26.76,0.79 26.16,0.99 25.52,1.19 24.87,1.38 24.19,1.57 23.5,1.76 22.68,2.01 21.83,2.25 20.96,2.49 20.08,2.72 19.17,2.94 18.25,3.16 17.31,3.37 16.37,3.57 15.41,3.76 14.45,3.95 13.48,4.12 12.5,4.28 11.53,4.43 10.56,4.57 9.58,4.69 8.62,4.81 7.66,4.91 6.7,5 5.76,5.07 4.82,5.13 3.9,5.18 2.99,5.22 2.09,5.24 1.21,5.25 0.34,5.24 -0.51,5.23 -1.34,5.2 -2.15,5.16 -2.94,5.1 -3.71,5.04 -4.46,4.96 -5.19,4.88 -5.9,4.78 -6.59,4.67 -7.25,4.55 -7.89,4.43 -8.51,4.29 -9.11,4.15 -9.69,4 -10.25,3.84 -10.78,3.68 -11.3,3.51 -11.79,3.34 -12.27,3.16 -12.72,2.98 -13.16,2.8 -13.58,2.61 -13.98,2.42 -14.37,2.24 -14.74,2.05 -15.09,1.86 -15.44,1.67 -15.76,1.47 -16.08,1.28 -16.38,1.08 -16.66,0.89 -16.94,0.69 -17.2,0.49 -17.44,0.3 -17.68,0.1 -17.91,-0.09 -18.12,-0.28 -18.32,-0.48 -18.52,-0.67 -18.7,-0.86 -18.87,-1.04 -19.03,-1.23 -19.19,-1.41 -19.33,-1.6 -19.46,-1.78 -19.59,-1.95 -19.71,-2.13 -19.82,-2.3 -19.93,-2.47" fill="none" stroke="black" stroke-width="2.2222222222222223" stroke-linejoin="round" filter="url(#fuzzy)" />
      <circle r="3.482" cx="-7.382471515902898" cy="2.3314160574458622" stroke="black" fill="none" stroke-width="1.0" filter="url(#fuzzy)" clip-path="url(#leftEyeClipPath)" /><circle r="4.418" cx="-10.082471515902899" cy="2.296416057445862" stroke="black" fill="none" stroke-width="1.0" filter="url(#fuzzy)" clip-path="url(#leftEyeClipPath)" /><circle r="4.934" cx="-11.037471515902897" cy="1.5814160574458622" stroke="black" fill="none" stroke-width="1.0" filter="url(#fuzzy)" clip-path="url(#leftEyeClipPath)" /><circle r="3.214" cx="-11.167471515902898" cy="-1.0885839425541382" stroke="black" fill="none" stroke-width="1.0" filter="url(#fuzzy)" clip-path="url(#leftEyeClipPath)" /><circle r="3.7640000000000002" cx="-8.417471515902898" cy="0.31141605744586176" stroke="black" fill="none" stroke-width="1.0" filter="url(#fuzzy)" clip-path="url(#leftEyeClipPath)" /><circle r="3.388" cx="-7.127471515902898" cy="0.656416057445862" stroke="black" fill="none" stroke-width="1.0" filter="url(#fuzzy)" clip-path="url(#leftEyeClipPath)" /><circle r="4.55" cx="-8.4924715159029" cy="2.001416057445862" stroke="black" fill="none" stroke-width="1.0" filter="url(#fuzzy)" clip-path="url(#leftEyeClipPath)" /><circle r="3.36" cx="-7.492471515902898" cy="-0.6435839425541381" stroke="black" fill="none" stroke-width="1.0" filter="url(#fuzzy)" clip-path="url(#leftEyeClipPath)" /><circle r="4.414" cx="-11.202471515902898" cy="2.0614160574458618" stroke="black" fill="none" stroke-width="1.0" filter="url(#fuzzy)" clip-path="url(#leftEyeClipPath)" /><circle r="3.698" cx="-11.862471515902898" cy="-0.4785839425541383" stroke="black" fill="none" stroke-width="1.0" filter="url(#fuzzy)" clip-path="url(#leftEyeClipPath)" />
    </g>
    <g id="hairs">
      <polyline points="-35.45,-62.08 -34.44,-62.73 -33.55,-63.3 -32.84,-63.75 -32.17,-64.16 -31.51,-64.56 -30.87,-64.91 -30.31,-65.19 -29.88,-65.36 -29.6,-65.43 -29.49,-65.36 -29.57,-65.16 -29.85,-64.8 -30.36,-64.26 -31.13,-63.52 -32.18,-62.57 -33.53,-61.41 -35.17,-60.04 -37.09,-58.5 -39.33,-56.75 -42.04,-54.67 -45.48,-51.98" fill="none" stroke="rgb(85, 107, 47)" stroke-width="2" stroke-linejoin="round" filter="url(#fuzzy)" /><polyline points="19.52,-70.25 21.4,-69.47 22.76,-68.86 23.91,-68.27 25.15,-67.6 26.56,-66.82 28.07,-65.96 29.6,-65.1 31.07,-64.24 32.46,-63.41 33.77,-62.6 34.99,-61.84 36.07,-61.15 36.98,-60.58 37.65,-60.18 38.09,-59.96 38.26,-59.95 38.09,-60.18 37.52,-60.69" fill="none" stroke="rgb(85, 107, 47)" stroke-width="2" stroke-linejoin="round" filter="url(#fuzzy)" /><polyline points="51.01,-47.23 51.26,-46.69 51.87,-45.73 52.45,-44.82 52.88,-44.07 53.16,-43.46 53.31,-42.96 53.33,-42.57 53.23,-42.31 52.98,-42.21 52.57,-42.31 51.97,-42.6 51.16,-43.11 50.12,-43.83 48.85,-44.77 47.33,-45.94 45.54,-47.36 43.46,-49.07 41.06,-51.11 38.37,-53.48 35.41,-56.15 32.22,-59.08 28.74,-62.28 24.67,-65.92" fill="none" stroke="rgb(85, 107, 47)" stroke-width="2" stroke-linejoin="round" filter="url(#fuzzy)" /><polyline points="-20.83,-69.96 -20.03,-69.92 -18.39,-69.95 -16.12,-69.95 -13.4,-69.84 -10.39,-69.59 -7.14,-69.19 -3.63,-68.68 0.15,-68.1 4.19,-67.45 8.43,-66.77 12.82,-66.06 17.28,-65.36 21.73,-64.66 26.17,-63.92 30.66,-63.14" fill="none" stroke="rgb(85, 107, 47)" stroke-width="2" stroke-linejoin="round" filter="url(#fuzzy)" /><polyline points="-36.86,-60.79 -35.5,-61.82 -34.07,-62.6 -32.59,-63.21 -31.01,-63.72 -29.25,-64.2 -27.28,-64.69 -25.11,-65.19 -22.79,-65.69 -20.36,-66.16 -17.84,-66.62 -15.26,-67.07 -12.63,-67.52 -9.96,-67.95 -7.28,-68.37 -4.59,-68.77 -1.93,-69.14 0.65,-69.48 3.14,-69.82 5.48,-70.18 7.65,-70.55 9.61,-70.93 11.38,-71.27 13.04,-71.57" fill="none" stroke="rgb(85, 107, 47)" stroke-width="2" stroke-linejoin="round" filter="url(#fuzzy)" /><polyline points="-38.26,-59.94 -36.83,-60.87 -35.25,-61.85 -33.6,-62.75 -31.92,-63.56 -30.19,-64.32 -28.39,-65.07 -26.48,-65.85 -24.48,-66.64 -22.44,-67.44 -20.41,-68.22 -18.42,-68.97 -16.49,-69.69 -14.66,-70.37 -12.92,-71.02 -11.29,-71.63 -9.8,-72.16 -8.56,-72.61 -7.88,-72.91" fill="none" stroke="rgb(85, 107, 47)" stroke-width="2" stroke-linejoin="round" filter="url(#fuzzy)" /><polyline points="-4.39,-73.41 -3.79,-73.49 -2.92,-73.52 -2.21,-73.51 -1.77,-73.44 -1.63,-73.31 -1.8,-73.12 -2.28,-72.86 -3.13,-72.53 -4.43,-72.12 -6.31,-71.63 -8.85,-71.03 -12.12,-70.32 -16.12,-69.46 -21.02,-68.4" fill="none" stroke="rgb(85, 107, 47)" stroke-width="2" stroke-linejoin="round" filter="url(#fuzzy)" /><polyline points="-14.81,-71.61 -15.12,-71.52 -14.58,-71.7 -13.88,-71.89 -13.26,-72 -12.75,-72.02 -12.36,-71.97 -12.14,-71.84 -12.11,-71.63 -12.31,-71.34 -12.79,-70.94 -13.57,-70.42 -14.71,-69.74 -16.22,-68.91 -18.07,-67.92 -20.26,-66.81 -22.79,-65.58 -25.69,-64.21 -29.03,-62.65 -32.85,-60.88 -37.16,-58.88" fill="none" stroke="rgb(85, 107, 47)" stroke-width="2" stroke-linejoin="round" filter="url(#fuzzy)" /><polyline points="31.42,-64.71 32.91,-63.77 33.3,-63.47 33.35,-63.32 33.26,-63.19 32.99,-63.11 32.44,-63.12 31.54,-63.27 30.17,-63.59 28.26,-64.11 25.7,-64.91 22.45,-66 18.44,-67.4 13.56,-69.12 7.75,-71.2" fill="none" stroke="rgb(85, 107, 47)" stroke-width="2" stroke-linejoin="round" filter="url(#fuzzy)" /><polyline points="-8.61,-72.78 -7.46,-72.94 -5.61,-72.9 -3.56,-72.64 -1.37,-72.2 1.06,-71.62 3.8,-70.9 6.81,-70.08 10.02,-69.17 13.35,-68.21 16.77,-67.23 20.25,-66.23 23.73,-65.26 27.09,-64.35 30.21,-63.5 33.16,-62.56" fill="none" stroke="rgb(85, 107, 47)" stroke-width="2" stroke-linejoin="round" filter="url(#fuzzy)" /><polyline points="48.37,-50.44 49.27,-49.04 49.59,-48.37 49.51,-48.05 49.13,-47.88 48.42,-47.82 47.33,-47.95 45.8,-48.31 43.79,-48.95 41.29,-49.86 38.29,-51.06 34.79,-52.57 30.74,-54.41 26.13,-56.61 20.92,-59.18 15.14,-62.13 8.84,-65.49 1.96,-69.25" fill="none" stroke="rgb(85, 107, 47)" stroke-width="2" stroke-linejoin="round" filter="url(#fuzzy)" /><polyline points="-10.35,-72.59 -9.27,-72.72 -8.55,-72.84 -7.84,-72.96 -7.18,-73.04 -6.71,-73.05 -6.52,-72.97 -6.62,-72.81 -6.99,-72.56 -7.65,-72.21 -8.64,-71.76 -9.99,-71.21 -11.73,-70.55 -13.89,-69.78 -16.52,-68.86 -19.71,-67.78 -23.55,-66.53 -28,-65.14" fill="none" stroke="rgb(85, 107, 47)" stroke-width="2" stroke-linejoin="round" filter="url(#fuzzy)" /><polyline points="-12.81,-72.24 -12.48,-72.3 -12,-72.32 -11.41,-72.28 -10.98,-72.17 -10.83,-71.96 -10.96,-71.64 -11.41,-71.19 -12.22,-70.58 -13.42,-69.8 -15.04,-68.83 -17.11,-67.65 -19.62,-66.24 -22.64,-64.6 -26.18,-62.71 -30.3,-60.56 -35,-58.12 -40.34,-55.35" fill="none" stroke="rgb(85, 107, 47)" stroke-width="2" stroke-linejoin="round" filter="url(#fuzzy)" /><polyline points="-38.32,-59.9 -37.78,-60.26 -36.69,-61.01 -35.44,-61.87 -34.2,-62.7 -33.04,-63.44 -31.96,-64.11 -30.92,-64.73 -29.92,-65.32 -28.94,-65.88 -28.01,-66.41 -27.19,-66.87 -26.48,-67.27 -25.91,-67.58 -25.49,-67.8 -25.22,-67.93 -25.13,-67.96 -25.25,-67.88 -25.61,-67.65 -26.24,-67.28 -27.18,-66.74 -28.38,-66.06 -29.79,-65.28 -31.28,-64.48" fill="none" stroke="rgb(85, 107, 47)" stroke-width="2" stroke-linejoin="round" filter="url(#fuzzy)" /><polyline points="56.97,-36.96 57.5,-36.4 57.97,-35.56 58.39,-34.7 58.78,-33.82 59.13,-32.97 59.42,-32.19 59.63,-31.58 59.74,-31.16 59.75,-30.92 59.67,-30.83 59.5,-30.89 59.22,-31.08 58.83,-31.44 58.3,-32.02 57.62,-32.87 56.78,-34.01 55.75,-35.49 54.52,-37.32 53.07,-39.5 51.4,-42.04 49.55,-44.94 47.6,-48.16 45.73,-51.57" fill="none" stroke="rgb(85, 107, 47)" stroke-width="2" stroke-linejoin="round" filter="url(#fuzzy)" /><polyline points="53.95,-42.74 53.91,-42.59 54.06,-41.92 54.09,-41.19 53.85,-40.62 53.32,-40.25 52.48,-40.08 51.32,-40.09 49.81,-40.29 47.95,-40.67 45.72,-41.21 43.11,-41.94 40.12,-42.88 36.73,-44.06 32.94,-45.5 28.72,-47.19 24.08,-49.12 18.98,-51.26 13.38,-53.59 7.26,-56.14 0.64,-58.96 -6.42,-62.13 -13.88,-65.71" fill="none" stroke="rgb(85, 107, 47)" stroke-width="2" stroke-linejoin="round" filter="url(#fuzzy)" /><polyline points="20.06,-70.24 20.46,-69.92 21.68,-69.29 22.98,-68.62 24.27,-67.91 25.63,-67.13 27.12,-66.26 28.69,-65.33 30.28,-64.37 31.83,-63.42 33.31,-62.49 34.71,-61.6 36.01,-60.75 37.19,-59.98 38.22,-59.29 39.12,-58.69 39.89,-58.17 40.56,-57.72 41.08,-57.39 41.29,-57.3 41.04,-57.62" fill="none" stroke="rgb(85, 107, 47)" stroke-width="2" stroke-linejoin="round" filter="url(#fuzzy)" /><polyline points="6.44,-73.16 7.75,-73.04 8.86,-72.91 9.79,-72.77 10.57,-72.64 11.18,-72.51 11.63,-72.39 11.92,-72.3 12,-72.23 11.82,-72.19 11.37,-72.16 10.66,-72.16 9.67,-72.17 8.36,-72.2 6.64,-72.28 4.44,-72.42 1.77,-72.65 -1.2,-73.01" fill="none" stroke="rgb(85, 107, 47)" stroke-width="2" stroke-linejoin="round" filter="url(#fuzzy)" /><polyline points="59.13,-33.33 59.38,-32.55 59.78,-31.49 60.1,-30.62 60.29,-30.09 60.34,-29.86 60.28,-29.87 60.09,-30.08 59.75,-30.55 59.22,-31.35 58.45,-32.61 57.4,-34.44 56.03,-36.92 54.35,-40.04 52.44,-43.65" fill="none" stroke="rgb(85, 107, 47)" stroke-width="2" stroke-linejoin="round" filter="url(#fuzzy)" /><polyline points="9.9,-72.83 10.78,-72.6 11.29,-72.36 11.55,-72.1 11.66,-71.77 11.56,-71.37 11.22,-70.91 10.62,-70.37 9.8,-69.73 8.72,-68.97 7.36,-68.1 5.65,-67.12 3.54,-66.06 0.99,-64.9 -2,-63.67 -5.44,-62.35 -9.3,-60.93 -13.59,-59.42 -18.36,-57.79 -23.69,-55.99 -29.66,-53.98 -36.24,-51.78 -43.24,-49.6" fill="none" stroke="rgb(85, 107, 47)" stroke-width="2" stroke-linejoin="round" filter="url(#fuzzy)" /><polyline points="-12.72,-72.37 -10.76,-72.55 -9.29,-72.71 -8.01,-72.86 -6.71,-73.02 -5.4,-73.18 -4.17,-73.31 -3.1,-73.4 -2.2,-73.48 -1.46,-73.53 -0.89,-73.56 -0.53,-73.59 -0.44,-73.59 -0.68,-73.58 -1.25,-73.56 -2.12,-73.52 -3.13,-73.49" fill="none" stroke="rgb(85, 107, 47)" stroke-width="2" stroke-linejoin="round" filter="url(#fuzzy)" /><polyline points="-30.02,-65.52 -28,-66.4 -26.47,-66.85 -24.66,-67.22 -22.44,-67.6 -19.87,-67.97 -17.01,-68.32 -13.94,-68.62 -10.72,-68.85 -7.39,-69.05 -3.97,-69.24 -0.48,-69.42 3.07,-69.59 6.62,-69.73 10.06,-69.85 13.3,-69.99 16.42,-70.19" fill="none" stroke="rgb(85, 107, 47)" stroke-width="2" stroke-linejoin="round" filter="url(#fuzzy)" /><polyline points="29.07,-66.28 29.96,-65.56 30.72,-65.02 31.21,-64.58 31.35,-64.23 31.17,-63.98 30.7,-63.78 29.99,-63.62 29.02,-63.47 27.79,-63.35 26.24,-63.26 24.33,-63.24 22.02,-63.29 19.25,-63.45 16.01,-63.73 12.23,-64.14 7.89,-64.68 2.93,-65.36 -2.58,-66.2 -8.56,-67.19 -14.93,-68.35" fill="none" stroke="rgb(85, 107, 47)" stroke-width="2" stroke-linejoin="round" filter="url(#fuzzy)" /><polyline points="-38.74,-59.39 -1.7,-55.05 -1.32,-57.05 -1.52,-57.81 0.24,-57.2 2.12,-56.11 3.12,-54.98 3.29,-53.99 3.22,-53.25 3.5,-52.79 4.41,-52.65 6.05,-52.83 8.46,-53.36 11.58,-54.18 15.09,-55.15 18.41,-56.03 21.05,-56.59 22.9,-56.52 24.05,-55.55 24.39,-53.68 24.01,-51.49 24.76,-50.03 30.84,-49.84 43.03,-49.67 52.05,-45.31" fill="none" stroke="rgb(85, 107, 47)" stroke-width="2" stroke-linejoin="round" filter="url(#fuzzy)" /><polyline points="-6.08,-73.35 -0.16,-65.1 -13.71,-62.24 -19.97,-63.06 -17.02,-65.18 -8.75,-67.02 0.69,-67.93 8.41,-67.91 13.13,-67.11 15.04,-65.66 14.95,-63.71 13.29,-61.54 9.5,-59.59 2.69,-58.25 -6.37,-57.76 -13.49,-58.16 -12.17,-59.35 0.43,-61.09 14.02,-63.44 -4.12,-73.55" fill="none" stroke="rgb(85, 107, 47)" stroke-width="2" stroke-linejoin="round" filter="url(#fuzzy)" /><polyline points="-41.32,-57.63 -11.58,-59.91 2.05,-55.86 5.25,-55.26 4.57,-57.87 2.11,-61.02 -0.86,-62.73 -2.94,-62.64 -2.9,-61.56 -0.22,-60.44 4.75,-59.7 10.86,-59.16 16.56,-58.45 20.3,-57.56 20.99,-57.07 18.5,-57.8 15.42,-59.91 17.11,-63.22 10.75,-72.71" fill="none" stroke="rgb(85, 107, 47)" stroke-width="2" stroke-linejoin="round" filter="url(#fuzzy)" /><polyline points="-2.19,-73.53 -0.78,-70.43 8.36,-65.12 10.41,-61.08 7.54,-59.21 4.77,-58.93 3.92,-59.49 4.35,-60.33 4.93,-61.15 5,-61.81 4.72,-62.12 5.09,-61.78 7.57,-60.51 13.26,-58.21 21.98,-55.07 31.93,-51.72 40.33,-49.16 44.95,-48.44 45.66,-49.95 44.45,-52.72 42.88,-55.5 39.54,-59.15" fill="none" stroke="rgb(85, 107, 47)" stroke-width="2" stroke-linejoin="round" filter="url(#fuzzy)" /><polyline points="47.19,-51.71 34.7,-53.75 19.78,-60.56 13.09,-64.48 12.05,-64.97 13.17,-63.73 13.01,-62.54 9.6,-62.27 3.52,-62.76 -2.96,-63.32 -7.69,-63.29 -10.15,-62.37 -11.38,-60.86 -12.8,-59.56 -14.77,-59.47 -16.29,-61.17 -16.04,-64.29 -13.75,-67.65 -10.46,-70.11 -7.79,-71.46 -8.37,-72.13 -14.81,-71.61" fill="none" stroke="rgb(85, 107, 47)" stroke-width="2" stroke-linejoin="round" filter="url(#fuzzy)" /><polyline points="21.76,-69.32 18.07,-64.52 14.96,-61.03 8.22,-62.38 3.89,-64.13 3.36,-63.94 4.74,-62.13 5.82,-60.19 5.49,-59.32 3.81,-59.82 1.73,-61.09 0.72,-62.19 2.23,-62.35 7.01,-61.22 14.72,-58.94 24.08,-55.97 33.29,-52.98 40.41,-50.74 43.81,-49.86 42.75,-50.38 35.87,-53.42 9.25,-72.86" fill="none" stroke="rgb(85, 107, 47)" stroke-width="2" stroke-linejoin="round" filter="url(#fuzzy)" /><polyline points="48.04,-50.73 6.18,-61.27 -13.26,-62.58 -18.35,-61.99 -15.11,-60.79 -6.95,-59.34 3.12,-58.17 12.36,-57.68 19.37,-57.59 24.52,-57.06 28.96,-55.43 33,-53.13 35.33,-51.65 33.99,-52.65 28.43,-56.65 21.08,-62.24 16.48,-66.74 17.58,-68.13 20.39,-67.65 7.9,-73.06" fill="none" stroke="rgb(85, 107, 47)" stroke-width="2" stroke-linejoin="round" filter="url(#fuzzy)" /><polyline points="29.85,-65.37 -1.64,-66.81 -2.21,-69.15 4.22,-70.11 9.18,-70.08 10.65,-69.63 9.51,-69.03 7.54,-68.43 6.23,-67.77 6.39,-66.83 8.31,-65.21 12.14,-62.61 17.63,-59.05 23.84,-54.99 29.12,-51.16 32.07,-48.22 32.68,-46.4 32.52,-45.54 32.98,-45.63 32.33,-47.51 26.04,-52.46 17.05,-58.89 40.82,-57.95" fill="none" stroke="rgb(85, 107, 47)" stroke-width="2" stroke-linejoin="round" filter="url(#fuzzy)" /><polyline points="62.2,-25.41 5.84,-45.62 6.17,-50.49 17.85,-49.46 23.68,-48.85 21.58,-50.13 14.1,-52.73 4.16,-55.7 -5.66,-58.31 -12.97,-60.21 -15.81,-61.24 -13.21,-61.25 -5.88,-60.13 3.54,-58.06 10.8,-55.66 11.24,-53.74 2.04,-52.74 -15.29,-52.4 -33.49,-52.36 -41.95,-53.81 -32.52,-64.05" fill="none" stroke="rgb(85, 107, 47)" stroke-width="2" stroke-linejoin="round" filter="url(#fuzzy)" /><polyline points="62.8,-22.97 27.79,-53.43 12.36,-63.1 4.62,-65.47 3.78,-65.18 7.86,-64.01 13.96,-62.79 19.38,-62 22.38,-61.93 22.63,-62.5 21.15,-63.19 19.67,-63.28 19.63,-62.28 21.45,-60.27 24.2,-58.05 25.86,-56.91 24.28,-57.99 18.81,-61.36 11.75,-65.72 8,-69.06 11.7,-69.86 29.07,-66.28" fill="none" stroke="rgb(85, 107, 47)" stroke-width="2" stroke-linejoin="round" filter="url(#fuzzy)" /><polyline points="-43.53,-55.33 5.05,-60.06 18.14,-61.79 19.61,-62.16 18.06,-62.95 16.22,-64.6 15.35,-66.3 15.87,-67.23 17.22,-67.3 17.97,-67.05 16.78,-66.94 13.77,-66.69 11.04,-65.19 11.02,-61.28 13.56,-55.26 19.16,-48.39 59.17,-32.95" fill="none" stroke="rgb(85, 107, 47)" stroke-width="2" stroke-linejoin="round" filter="url(#fuzzy)" /><polyline points="10.75,-72.71 -12.33,-65.16 -6.32,-59.2 3.62,-55.41 8.02,-54.26 8.95,-55.12 9.24,-57.01 9.08,-59.12 7.64,-60.78 4.94,-61.61 2,-61.51 0.02,-60.8 -0.21,-59.92 1.54,-59.26 5.03,-59.03 9.57,-59.31 13.78,-60.09 15.95,-61.19 14.84,-62.02 11.03,-61.52 8.39,-58.12 15.05,-49.98 38.56,-36.8 61.21,-27.78" fill="none" stroke="rgb(85, 107, 47)" stroke-width="2" stroke-linejoin="round" filter="url(#fuzzy)" />
    </g>
    
        <g id="lineNose">
        <path d="M -9.33,21.740000000000002 Q 9.48, 28.89 0.07500000000000018, -4.800000000000001" fill="none" stroke="black" stroke-width="3" stroke-linejoin="round" filter="url(#fuzzy)"></path>
        </g>
      
    <g id="mouth">
      <polyline points="-36.52,65.25 -36.05,64.37 -35.56,63.5 -35.06,62.64 -34.54,61.79 -34.01,60.96 -33.47,60.14 -32.91,59.33 -32.34,58.53 -31.76,57.75 -31.17,56.98 -30.57,56.22 -29.95,55.47 -29.33,54.74 -28.69,54.02 -28.04,53.32 -27.39,52.63 -26.72,51.96 -26.04,51.3 -25.36,50.65 -24.67,50.02 -23.96,49.41 -23.25,48.81 -22.53,48.23 -21.81,47.66 -21.07,47.11 -20.33,46.57 -19.58,46.05 -18.83,45.55 -18.07,45.07 -17.3,44.6 -16.53,44.15 -15.76,43.72 -14.98,43.3 -14.19,42.91 -13.4,42.53 -12.6,42.17 -11.81,41.83 -11,41.51 -10.2,41.21 -9.39,40.92 -8.58,40.66 -7.77,40.41 -6.96,40.19 -6.14,39.99 -5.32,39.8 -4.51,39.64 -3.69,39.5 -2.87,39.38 -2.05,39.28 -1.23,39.2 -0.41,39.14 0.4,39.11 1.22,39.09 2.04,39.1 2.85,39.14 3.66,39.19 4.47,39.27 5.27,39.37 6.08,39.49 6.88,39.64 7.67,39.81 8.47,40.01 9.25,40.23 10.04,40.47 10.82,40.74 11.59,41.03 12.36,41.35 13.12,41.7 13.88,42.07 14.63,42.46 15.37,42.88 16.11,43.33 16.84,43.8 17.56,44.3 18.28,44.83 18.99,45.38 19.68,45.97 20.37,46.57 21.05,47.21 21.72,47.87 22.39,48.56 23.04,49.28 23.68,50.03 24.31,50.81 24.93,51.62 25.54,52.45 26.14,53.32 26.72,54.21 27.3,55.13 27.86,56.09 28.41,57.07 28.95,58.08 29.47,59.13 29.98,60.2 30.47,61.31 30.96,62.45 31.42,63.61 31.87,64.82 32.31,66.05 32.31,66.05 31.62,66.02 30.94,65.98 30.25,65.95 29.56,65.92 28.87,65.89 28.18,65.86 27.49,65.83 26.81,65.81 26.12,65.78 25.43,65.75 24.74,65.72 24.05,65.7 23.36,65.67 22.68,65.65 21.99,65.63 21.3,65.6 20.61,65.58 19.92,65.56 19.23,65.54 18.54,65.51 17.86,65.49 17.17,65.47 16.48,65.45 15.79,65.44 15.1,65.42 14.41,65.4 13.73,65.38 13.04,65.36 12.35,65.35 11.66,65.33 10.97,65.32 10.28,65.3 9.6,65.29 8.91,65.27 8.22,65.26 7.53,65.25 6.84,65.24 6.15,65.22 5.47,65.21 4.78,65.2 4.09,65.19 3.4,65.18 2.71,65.17 2.02,65.16 1.34,65.16 0.65,65.15 -0.04,65.14 -0.73,65.13 -1.42,65.13 -2.11,65.12 -2.79,65.11 -3.48,65.11 -4.17,65.1 -4.86,65.1 -5.55,65.1 -6.24,65.09 -6.92,65.09 -7.61,65.09 -8.3,65.08 -8.99,65.08 -9.68,65.08 -10.37,65.08 -11.05,65.08 -11.74,65.08 -12.43,65.08 -13.12,65.08 -13.81,65.08 -14.5,65.08 -15.18,65.08 -15.87,65.08 -16.56,65.08 -17.25,65.08 -17.94,65.09 -18.63,65.09 -19.31,65.09 -20,65.1 -20.69,65.1 -21.38,65.1 -22.07,65.11 -22.76,65.11 -23.45,65.12 -24.13,65.12 -24.82,65.13 -25.51,65.13 -26.2,65.14 -26.89,65.15 -27.58,65.15 -28.26,65.16 -28.95,65.17 -29.64,65.18 -30.33,65.18 -31.02,65.19 -31.71,65.2 -32.39,65.21 -33.08,65.22 -33.77,65.23 -34.46,65.24 -35.15,65.25 -35.84,65.26" fill="rgb(215,127,140)" stroke="black" stroke-width="3" stroke-linejoin="round" filter="url(#fuzzy)" />
    </g>
  </svg>