<svg viewBox="-100 -100 200 200" xmlns="http://www.w3.org/2000/svg" width="500" height="500" id="face-svg">
    <defs>
      <clipPath id="leftEyeClipPath">
        <polyline points="30.72,6.81 30.45,6.36 30.13,5.91 29.78,5.44 29.4,4.97 28.99,4.49 28.54,4 28.07,3.5 27.57,2.99 27.04,2.48 26.49,1.96 25.92,1.43 25.33,0.89 24.72,0.35 24.08,-0.2 23.44,-0.75 22.66,-1.29 21.87,-1.85 21.06,-2.43 20.24,-3.02 19.4,-3.63 18.55,-4.26 17.68,-4.89 16.81,-5.53 15.92,-6.17 15.03,-6.82 14.12,-7.46 13.21,-8.1 12.3,-8.73 11.38,-9.34 10.45,-9.95 9.53,-10.54 8.6,-11.11 7.67,-11.65 6.74,-12.17 5.81,-12.67 4.89,-13.14 3.96,-13.58 3.04,-13.98 2.13,-14.35 1.22,-14.69 0.32,-14.99 -0.57,-15.25 -1.45,-15.47 -2.32,-15.66 -3.18,-15.81 -4.03,-15.91 -4.86,-15.98 -5.68,-16.01 -6.49,-16.01 -7.28,-15.96 -8.05,-15.88 -8.8,-15.76 -9.54,-15.61 -10.25,-15.43 -10.95,-15.21 -11.62,-14.97 -12.28,-14.69 -12.91,-14.4 -13.51,-14.08 -14.1,-13.74 -14.66,-13.38 -15.19,-13 -15.7,-12.62 -16.18,-12.22 -16.64,-11.82 -17.08,-11.4 -17.49,-10.98 -17.88,-10.54 -18.24,-10.1 -18.58,-9.64 -18.9,-9.18 -19.19,-8.71 -19.46,-8.24 -19.7,-7.77 -19.91,-7.29 -20.1,-6.82 -20.27,-6.34 -20.41,-5.86 -20.52,-5.39 -24.91,1.81 -24.58,2.16 -24.24,2.51 -23.87,2.86 -23.5,3.2 -23.1,3.54 -22.69,3.88 -22.26,4.21 -21.82,4.54 -21.36,4.87 -20.89,5.2 -20.4,5.52 -19.9,5.85 -19.38,6.17 -18.85,6.49 -18.3,6.81 -17.74,7.13 -17.16,7.45 -16.56,7.77 -15.95,8.1 -15.32,8.42 -14.68,8.74 -14.03,9.07 -13.36,9.4 -12.68,9.73 -11.98,10.06 -11.28,10.4 -10.56,10.73 -9.83,11.07 -9.09,11.41 -8.34,11.75 -7.59,12.08 -6.82,12.42 -6.04,12.76 -5.26,13.09 -4.47,13.42 -3.67,13.75 -2.86,14.07 -2.05,14.38 -1.22,14.69 -0.4,14.98 0.44,15.27 1.28,15.55 2.13,15.81 2.98,16.06 3.84,16.29 4.7,16.5 5.57,16.7 6.44,16.88 7.32,17.03 8.21,17.16 9.09,17.27 9.99,17.35 10.88,17.4 11.78,17.43 12.69,17.42 13.59,17.39 14.5,17.32 15.41,17.23 16.32,17.1 17.23,16.93 18.13,16.74 19.04,16.51 19.94,16.25 20.84,15.96 21.55,15.82 22.25,15.67 22.94,15.51 23.62,15.33 24.28,15.13 24.92,14.92 25.55,14.7 26.16,14.47 26.75,14.22 27.32,13.96 27.86,13.7 28.37,13.42 28.86,13.14 29.31,12.85 29.73,12.55" />
      </clipPath>
      <clipPath id="rightEyeClipPath">
        <polyline points="-28.87,9.8 -28.66,9.21 -28.39,8.61 -28.08,8 -27.73,7.38 -27.34,6.75 -26.91,6.11 -26.45,5.47 -25.95,4.81 -25.43,4.15 -24.88,3.47 -24.31,2.79 -23.71,2.1 -23.1,1.4 -22.47,0.7 -21.82,-0.01 -20.95,-0.68 -20.07,-1.38 -19.18,-2.1 -18.3,-2.86 -17.41,-3.63 -16.53,-4.43 -15.64,-5.23 -14.76,-6.06 -13.89,-6.88 -13.02,-7.72 -12.16,-8.55 -11.3,-9.38 -10.45,-10.2 -9.61,-11.01 -8.78,-11.81 -7.95,-12.59 -7.14,-13.34 -6.33,-14.07 -5.54,-14.77 -4.75,-15.43 -3.97,-16.06 -3.21,-16.66 -2.45,-17.21 -1.7,-17.72 -0.97,-18.18 -0.24,-18.6 0.47,-18.97 1.17,-19.29 1.86,-19.57 2.53,-19.79 3.19,-19.96 3.84,-20.08 4.48,-20.15 5.1,-20.17 5.7,-20.14 6.29,-20.06 6.87,-19.94 7.43,-19.77 7.97,-19.55 8.49,-19.3 9,-19 9.48,-18.67 9.95,-18.3 10.4,-17.91 10.82,-17.48 11.23,-17.03 11.61,-16.56 11.97,-16.07 12.3,-15.57 12.61,-15.06 12.9,-14.53 13.17,-13.99 13.41,-13.43 13.63,-12.86 13.83,-12.28 14.01,-11.68 14.16,-11.08 14.29,-10.47 14.39,-9.85 14.47,-9.24 14.52,-8.61 14.55,-7.99 14.55,-7.37 14.52,-6.75 22.25,3.99 21.93,4.38 21.61,4.77 21.27,5.15 20.91,5.53 20.54,5.91 20.16,6.28 19.76,6.66 19.36,7.02 18.93,7.39 18.5,7.75 18.05,8.12 17.6,8.48 17.13,8.84 16.65,9.19 16.16,9.55 15.65,9.91 15.13,10.27 14.59,10.62 14.04,10.98 13.49,11.34 12.91,11.7 12.33,12.06 11.74,12.43 11.13,12.79 10.52,13.16 9.9,13.53 9.26,13.9 8.62,14.27 7.97,14.64 7.31,15.01 6.64,15.38 5.96,15.75 5.27,16.11 4.58,16.47 3.87,16.83 3.16,17.18 2.44,17.52 1.71,17.86 0.97,18.18 0.22,18.5 -0.54,18.8 -1.31,19.09 -2.08,19.37 -2.87,19.62 -3.67,19.86 -4.48,20.08 -5.3,20.28 -6.13,20.46 -6.96,20.61 -7.81,20.73 -8.68,20.83 -9.55,20.9 -10.43,20.93 -11.32,20.94 -12.22,20.91 -13.13,20.85 -14.05,20.76 -14.97,20.63 -15.9,20.46 -16.84,20.26 -17.78,20.03 -18.72,19.75 -19.66,19.44 -20.6,19.1 -21.29,18.93 -21.97,18.74 -22.64,18.53 -23.28,18.31 -23.91,18.07 -24.52,17.82 -25.1,17.55 -25.65,17.26 -26.18,16.97 -26.67,16.66 -27.13,16.33 -27.55,16 -27.93,15.66 -28.27,15.32 -28.56,14.96" />
      </clipPath>
      <filter id="fuzzy">
        <feTurbulence id="turbulence" baseFrequency="0.05" numOctaves="3" type="noise" result="noise" />
        <feDisplacementMap in="SourceGraphic" in2="noise" scale="2" />
      </filter>
      <linearGradient id="rainbowGradient" x1="0%" y1="0%" x2="100%" y2="0%">
        <stop offset="0%" style="stop-color: [object Object]; stop-opacity: 1" />
        <stop offset="17.6%" style="stop-color: [object Object]; stop-opacity: 1" />
        <stop offset="100%" style="stop-color: [object Object]; stop-opacity: 1" />
      </linearGradient>
    </defs>
    <rect x="-100" y="-100" width="100%" height="100%" fill="rgb(204, 204, 255)" />
    <polyline id="faceContour" points="81.75,-0.72 81.74,0.72 81.83,4.45 81.58,6.14 81.57,7.38 81.22,8.82 81.3,7.28 81.19,9.63 81.29,11.92 80.66,15.6 80.19,17.45 80.54,17.46 80.7,16.19 80.24,19.26 79.98,20.98 79.59,22.98 79.57,22.78 78.87,25.27 78.71,26.09 78,28.3 77.79,29.94 77.21,32.05 77.36,31.38 76.19,34.59 76.54,34.77 75.65,36.86 75.74,36.6 73.86,40.67 74.1,40.75 73.21,43.57 73.06,43.32 72.29,45.91 71.67,46.87 70.98,48.21 70.38,49.18 70.06,50.13 69.09,51.65 67.62,54.68 67.06,55.86 67.23,55.16 65.17,58.31 65.15,58.44 63.32,61.19 65.41,58.2 62.97,61.59 61.1,64.3 61.03,64.7 59.21,66.77 59.65,66.65 59.47,66.75 58.06,68.25 55.97,70.76 56.99,69.67 54.81,71.98 55.47,71.11 53.13,73.7 52.96,73.85 49.45,77.08 49.62,77.06 50.52,76.03 47.53,78.88 46.09,79.9 45.81,80.09 44.12,81.55 43.91,82.07 42.24,82.56 41.65,83.73 39.89,84.4 38.1,85.56 37.31,86.23 37.66,86.3 36.68,86.76 35.34,87.2 33.63,88.51 33.42,88.74 29.98,90.55 31.12,89.84 28.26,90.81 26.98,91.35 27.5,91.44 25.04,92.52 23.27,93.02 24.23,92.63 22.49,93.11 20.85,94.08 19.82,94.15 18.25,94.45 14.69,95.41 16.35,95.08 13.84,95.41 13.76,95.73 12.53,95.99 11.71,96.16 8.09,96.73 9.05,96.39 5.6,96.58 6.75,96.54 5.8,96.73 1.7,97.1 1.4,97.25 -1.03,97.23 -1.58,97.01 -2.9,96.77 -4.36,97.1 -4.2,97.01 -5.84,96.85 -8.13,96.52 -9.08,96.45 -11.56,95.94 -9.76,96.49 -14.61,95.64 -14.6,95.45 -15.93,95.13 -16.49,95.14 -19.4,94.04 -20.49,93.8 -21.65,93.32 -20.97,93.76 -22.73,93.06 -24.51,92.74 -27.02,91.69 -27.15,91.68 -28.71,90.6 -27.54,91.5 -30.62,90.05 -31.95,89.56 -33.85,88.08 -33.02,88.69 -33.68,88.25 -36.5,86.66 -35.38,87.5 -39.28,85.36 -39.09,84.9 -41.45,83.57 -42.06,82.93 -41.43,83.73 -42.5,82.97 -45.18,80.99 -47.16,79.32 -46.45,79.78 -48.58,77.88 -48.64,77.97 -50.77,76.13 -50.34,76.47 -52.47,74.32 -52.69,74.38 -54.31,72.6 -55.88,71.01 -55.3,71.65 -56.79,69.78 -56.5,70.15 -59.74,66.01 -59.27,66.91 -59.22,66.82 -61.93,63.57 -61.59,64.17 -62.54,62.33 -62.9,61.73 -65.34,58.66 -64.26,59.78 -65.74,57.68 -66.69,55.78 -67.46,55.12 -68.06,53.17 -68.93,52.9 -69.22,51.6 -70.38,49.58 -71.89,46.85 -72,45.71 -72.16,45.34 -72.16,45.25 -73.91,41.97 -73.76,41.66 -74.43,40.27 -74.38,40.33 -75.07,38.84 -75.55,36.38 -77.12,32 -76.78,32.77 -77.28,31.84 -78.02,29.98 -78.79,25.91 -79.2,24.98 -78.62,25.84 -78.81,25.05 -79.31,23.02 -79.55,21.84 -80.04,19.68 -80.25,18.15 -81.11,14.46 -80.76,15.19 -81.27,11.74 -81.39,11.6 -81.43,11.12 -81.64,9.04 -81.46,8.35 -81.41,6.81 -81.89,5.48 -81.71,1.72 -81.77,0.58 -81.65,-1.05 -81.75,-0.98 -81.55,-3.06 -81.76,-4.17 -81.77,-6.2 -81.69,-5.72 -81.76,-7.18 -81.29,-9 -81.07,-12.77 -80.88,-13.77 -81.17,-12.88 -80.91,-15.49 -80.53,-16.62 -79.65,-21.35 -79.65,-21.5 -79.36,-24.3 -78.75,-26.68 -78.26,-28.14 -78.87,-26.22 -78.37,-27.92 -77.45,-31.08 -77.6,-31.04 -77.43,-31.51 -76.73,-33.35 -76.34,-35.31 -75.37,-37.44 -74.94,-38.69 -74.25,-40.33 -73.83,-41.83 -73.56,-42.59 -72.88,-44.04 -71.84,-46.42 -71.63,-47.01 -71.59,-46.91 -70.16,-50.42 -70.46,-48.97 -69.6,-50.68 -68.6,-53.11 -67.63,-54.7 -66.8,-55.65 -65.78,-57.87 -66.09,-57.55 -64.67,-60.11 -64.25,-60.44 -62.95,-61.82 -61.63,-63.74 -60.46,-65.23 -61.38,-64.17 -60.66,-64.85 -58.79,-67.65 -56.18,-70.55 -56.39,-70.6 -56.18,-70.37 -55.35,-71.59 -53.48,-73.35 -52.9,-74.06 -53,-74.19 -50.73,-76.17 -49.7,-76.81 -47.94,-78.62 -48.99,-77.61 -46.72,-79.77 -47.42,-79.04 -45.22,-80.92 -43.78,-82.08 -42.78,-82.66 -41.83,-83.69 -41.75,-83.59 -39.3,-85.09 -39.63,-84.92 -36.1,-87.35 -35.27,-87.71 -35.56,-87.68 -32.04,-89.29 -32.53,-89.3 -32.36,-89.44 -29.38,-90.68 -27.9,-91.39 -27.54,-91.32 -25.41,-92.29 -24.69,-92.46 -26.59,-91.78 -22.9,-93.04 -20.42,-94.17 -20.38,-93.9 -18.85,-94.35 -18.15,-94.71 -14.44,-95.36 -15.87,-95.39 -13.05,-95.82 -13.97,-95.81 -12.84,-95.95 -11.4,-96.19 -8.64,-96.77 -6.67,-96.84 -6.17,-96.77 -5.46,-96.97 -2.59,-96.91 -1.82,-96.93 -2.94,-96.88 1.5,-97.28 -0.16,-97.05 3.9,-96.77 4.32,-97.2 5.34,-96.73 6.1,-96.63 7.87,-96.77 9.11,-96.4 10.17,-96.46 9.8,-96.59 14.36,-95.48 13.63,-95.51 13.74,-95.72 18.38,-94.45 17.76,-94.75 18.42,-94.75 20.86,-93.92 21.6,-93.74 24.71,-92.5 24.25,-92.82 25.59,-92.15 27.83,-91.44 27.58,-91.55 30.04,-90.54 29.43,-90.43 32.45,-89.35 33.52,-88.59 32.68,-88.73 35,-87.78 36.12,-86.99 35.53,-87.46 38.12,-86.07 39.35,-85.23 40.33,-84.44 40,-84.64 42.69,-82.57 44.54,-81.24 44.81,-81.38 44.71,-81.26 46.7,-79.77 49.51,-77.29 50.69,-76.32 49.33,-77.45 50.61,-76.53 52.35,-74.34 53.81,-73.14 53.77,-73.05 54.39,-72.39 54.73,-72.15 55.48,-71.25 57.48,-68.51 58.34,-67.77 59.24,-66.82 61.44,-63.85 61.08,-64.36 62,-62.9 62.54,-62.6 65.04,-59.38 64.66,-59.32 66.68,-56.23 64.98,-58.47 66.2,-56.81 68,-53.73 68.55,-52.52 70.2,-49.56 69.87,-50.64 69.73,-50.77 71.41,-46.99 71.19,-47.91 72.15,-45.1 72.68,-44.35 73.92,-41.61 74.59,-39.85 74.21,-40.54 74.85,-39.61 75.68,-36.98 76.29,-35.18 76.9,-33.31 76.66,-33.63 78.03,-29.87 77.37,-31.54 78.44,-27.41 78.14,-27.66 78.26,-27.47 78.97,-24.93 79.58,-22.21 79.86,-21.49 79.91,-19.68 80.78,-16.34 80.38,-17.33 80.99,-12.84 81.04,-12.76 80.96,-13.67 81.38,-10.42 81.71,-7.01 81.26,-7.95 81.64,-6.64 81.63,-5.34 81.78,-4.29 81.91,-1.31 81.75,-0.72 81.74,0.72" fill="rgb(200, 162, 200)" stroke="black" stroke-width="1.6666666666666665" stroke-linejoin="round" filter="url(#fuzzy)" />
    <g transform="translate(52.22 -30.89)">
      <polyline id="rightCountour" points="-28.87,9.8 -28.66,9.21 -28.39,8.61 -28.08,8 -27.73,7.38 -27.34,6.75 -26.91,6.11 -26.45,5.47 -25.95,4.81 -25.43,4.15 -24.88,3.47 -24.31,2.79 -23.71,2.1 -23.1,1.4 -22.47,0.7 -21.82,-0.01 -20.95,-0.68 -20.07,-1.38 -19.18,-2.1 -18.3,-2.86 -17.41,-3.63 -16.53,-4.43 -15.64,-5.23 -14.76,-6.06 -13.89,-6.88 -13.02,-7.72 -12.16,-8.55 -11.3,-9.38 -10.45,-10.2 -9.61,-11.01 -8.78,-11.81 -7.95,-12.59 -7.14,-13.34 -6.33,-14.07 -5.54,-14.77 -4.75,-15.43 -3.97,-16.06 -3.21,-16.66 -2.45,-17.21 -1.7,-17.72 -0.97,-18.18 -0.24,-18.6 0.47,-18.97 1.17,-19.29 1.86,-19.57 2.53,-19.79 3.19,-19.96 3.84,-20.08 4.48,-20.15 5.1,-20.17 5.7,-20.14 6.29,-20.06 6.87,-19.94 7.43,-19.77 7.97,-19.55 8.49,-19.3 9,-19 9.48,-18.67 9.95,-18.3 10.4,-17.91 10.82,-17.48 11.23,-17.03 11.61,-16.56 11.97,-16.07 12.3,-15.57 12.61,-15.06 12.9,-14.53 13.17,-13.99 13.41,-13.43 13.63,-12.86 13.83,-12.28 14.01,-11.68 14.16,-11.08 14.29,-10.47 14.39,-9.85 14.47,-9.24 14.52,-8.61 14.55,-7.99 14.55,-7.37 14.52,-6.75 22.25,3.99 21.93,4.38 21.61,4.77 21.27,5.15 20.91,5.53 20.54,5.91 20.16,6.28 19.76,6.66 19.36,7.02 18.93,7.39 18.5,7.75 18.05,8.12 17.6,8.48 17.13,8.84 16.65,9.19 16.16,9.55 15.65,9.91 15.13,10.27 14.59,10.62 14.04,10.98 13.49,11.34 12.91,11.7 12.33,12.06 11.74,12.43 11.13,12.79 10.52,13.16 9.9,13.53 9.26,13.9 8.62,14.27 7.97,14.64 7.31,15.01 6.64,15.38 5.96,15.75 5.27,16.11 4.58,16.47 3.87,16.83 3.16,17.18 2.44,17.52 1.71,17.86 0.97,18.18 0.22,18.5 -0.54,18.8 -1.31,19.09 -2.08,19.37 -2.87,19.62 -3.67,19.86 -4.48,20.08 -5.3,20.28 -6.13,20.46 -6.96,20.61 -7.81,20.73 -8.68,20.83 -9.55,20.9 -10.43,20.93 -11.32,20.94 -12.22,20.91 -13.13,20.85 -14.05,20.76 -14.97,20.63 -15.9,20.46 -16.84,20.26 -17.78,20.03 -18.72,19.75 -19.66,19.44 -20.6,19.1 -21.29,18.93 -21.97,18.74 -22.64,18.53 -23.28,18.31 -23.91,18.07 -24.52,17.82 -25.1,17.55 -25.65,17.26 -26.18,16.97 -26.67,16.66 -27.13,16.33 -27.55,16 -27.93,15.66 -28.27,15.32 -28.56,14.96" fill="white" stroke="white" stroke-width="0" stroke-linejoin="round" filter="url(#fuzzy)" />
    </g>
    <g transform="translate(-52.120000000000005 -26.56)">
      <polyline id="leftCountour" points="30.72,6.81 30.45,6.36 30.13,5.91 29.78,5.44 29.4,4.97 28.99,4.49 28.54,4 28.07,3.5 27.57,2.99 27.04,2.48 26.49,1.96 25.92,1.43 25.33,0.89 24.72,0.35 24.08,-0.2 23.44,-0.75 22.66,-1.29 21.87,-1.85 21.06,-2.43 20.24,-3.02 19.4,-3.63 18.55,-4.26 17.68,-4.89 16.81,-5.53 15.92,-6.17 15.03,-6.82 14.12,-7.46 13.21,-8.1 12.3,-8.73 11.38,-9.34 10.45,-9.95 9.53,-10.54 8.6,-11.11 7.67,-11.65 6.74,-12.17 5.81,-12.67 4.89,-13.14 3.96,-13.58 3.04,-13.98 2.13,-14.35 1.22,-14.69 0.32,-14.99 -0.57,-15.25 -1.45,-15.47 -2.32,-15.66 -3.18,-15.81 -4.03,-15.91 -4.86,-15.98 -5.68,-16.01 -6.49,-16.01 -7.28,-15.96 -8.05,-15.88 -8.8,-15.76 -9.54,-15.61 -10.25,-15.43 -10.95,-15.21 -11.62,-14.97 -12.28,-14.69 -12.91,-14.4 -13.51,-14.08 -14.1,-13.74 -14.66,-13.38 -15.19,-13 -15.7,-12.62 -16.18,-12.22 -16.64,-11.82 -17.08,-11.4 -17.49,-10.98 -17.88,-10.54 -18.24,-10.1 -18.58,-9.64 -18.9,-9.18 -19.19,-8.71 -19.46,-8.24 -19.7,-7.77 -19.91,-7.29 -20.1,-6.82 -20.27,-6.34 -20.41,-5.86 -20.52,-5.39 -24.91,1.81 -24.58,2.16 -24.24,2.51 -23.87,2.86 -23.5,3.2 -23.1,3.54 -22.69,3.88 -22.26,4.21 -21.82,4.54 -21.36,4.87 -20.89,5.2 -20.4,5.52 -19.9,5.85 -19.38,6.17 -18.85,6.49 -18.3,6.81 -17.74,7.13 -17.16,7.45 -16.56,7.77 -15.95,8.1 -15.32,8.42 -14.68,8.74 -14.03,9.07 -13.36,9.4 -12.68,9.73 -11.98,10.06 -11.28,10.4 -10.56,10.73 -9.83,11.07 -9.09,11.41 -8.34,11.75 -7.59,12.08 -6.82,12.42 -6.04,12.76 -5.26,13.09 -4.47,13.42 -3.67,13.75 -2.86,14.07 -2.05,14.38 -1.22,14.69 -0.4,14.98 0.44,15.27 1.28,15.55 2.13,15.81 2.98,16.06 3.84,16.29 4.7,16.5 5.57,16.7 6.44,16.88 7.32,17.03 8.21,17.16 9.09,17.27 9.99,17.35 10.88,17.4 11.78,17.43 12.69,17.42 13.59,17.39 14.5,17.32 15.41,17.23 16.32,17.1 17.23,16.93 18.13,16.74 19.04,16.51 19.94,16.25 20.84,15.96 21.55,15.82 22.25,15.67 22.94,15.51 23.62,15.33 24.28,15.13 24.92,14.92 25.55,14.7 26.16,14.47 26.75,14.22 27.32,13.96 27.86,13.7 28.37,13.42 28.86,13.14 29.31,12.85 29.73,12.55" fill="white" stroke="white" stroke-width="0" stroke-linejoin="round" filter="url(#fuzzy)" />
    </g>
    <g transform="translate(52.22 -30.89)">
      <polyline id="rightUpper" points="-27.4,15.57 -27.91,14.98 -28.33,14.4 -28.66,13.83 -28.9,13.26 -29.07,12.69 -29.16,12.12 -29.18,11.55 -29.14,10.97 -29.03,10.39 -28.87,9.8 -28.66,9.21 -28.39,8.61 -28.08,8 -27.73,7.38 -27.34,6.75 -26.91,6.11 -26.45,5.47 -25.95,4.81 -25.43,4.15 -24.88,3.47 -24.31,2.79 -23.71,2.1 -23.1,1.4 -22.47,0.7 -21.82,-0.01 -20.95,-0.68 -20.07,-1.38 -19.18,-2.1 -18.3,-2.86 -17.41,-3.63 -16.53,-4.43 -15.64,-5.23 -14.76,-6.06 -13.89,-6.88 -13.02,-7.72 -12.16,-8.55 -11.3,-9.38 -10.45,-10.2 -9.61,-11.01 -8.78,-11.81 -7.95,-12.59 -7.14,-13.34 -6.33,-14.07 -5.54,-14.77 -4.75,-15.43 -3.97,-16.06 -3.21,-16.66 -2.45,-17.21 -1.7,-17.72 -0.97,-18.18 -0.24,-18.6 0.47,-18.97 1.17,-19.29 1.86,-19.57 2.53,-19.79 3.19,-19.96 3.84,-20.08 4.48,-20.15 5.1,-20.17 5.7,-20.14 6.29,-20.06 6.87,-19.94 7.43,-19.77 7.97,-19.55 8.49,-19.3 9,-19 9.48,-18.67 9.95,-18.3 10.4,-17.91 10.82,-17.48 11.23,-17.03 11.61,-16.56 11.97,-16.07 12.3,-15.57 12.61,-15.06 12.9,-14.53 13.17,-13.99 13.41,-13.43 13.63,-12.86 13.83,-12.28 14.01,-11.68 14.16,-11.08 14.29,-10.47 14.39,-9.85 14.47,-9.24 14.52,-8.61 14.55,-7.99 14.55,-7.37 14.52,-6.75 14.47,-6.13 14.39,-5.52 14.29,-4.91 14.16,-4.31 14,-3.72 13.82,-3.13 13.62,-2.55 13.39,-1.98 13.13,-1.42 12.85,-0.87" fill="none" stroke="black" stroke-width="1.6666666666666665" stroke-linejoin="round" filter="url(#fuzzy)" />
      <polyline id="rightLower" points="-27.84,11.53 -28.28,11.83 -28.62,12.15 -28.87,12.48 -29.04,12.82 -29.12,13.17 -29.14,13.52 -29.09,13.88 -28.97,14.24 -28.79,14.6 -28.56,14.96 -28.27,15.32 -27.93,15.66 -27.55,16 -27.13,16.33 -26.67,16.66 -26.18,16.97 -25.65,17.26 -25.1,17.55 -24.52,17.82 -23.91,18.07 -23.28,18.31 -22.64,18.53 -21.97,18.74 -21.29,18.93 -20.6,19.1 -19.66,19.44 -18.72,19.75 -17.78,20.03 -16.84,20.26 -15.9,20.46 -14.97,20.63 -14.05,20.76 -13.13,20.85 -12.22,20.91 -11.32,20.94 -10.43,20.93 -9.55,20.9 -8.68,20.83 -7.81,20.73 -6.96,20.61 -6.13,20.46 -5.3,20.28 -4.48,20.08 -3.67,19.86 -2.87,19.62 -2.08,19.37 -1.31,19.09 -0.54,18.8 0.22,18.5 0.97,18.18 1.71,17.86 2.44,17.52 3.16,17.18 3.87,16.83 4.58,16.47 5.27,16.11 5.96,15.75 6.64,15.38 7.31,15.01 7.97,14.64 8.62,14.27 9.26,13.9 9.9,13.53 10.52,13.16 11.13,12.79 11.74,12.43 12.33,12.06 12.91,11.7 13.49,11.34 14.04,10.98 14.59,10.62 15.13,10.27 15.65,9.91 16.16,9.55 16.65,9.19 17.13,8.84 17.6,8.48 18.05,8.12 18.5,7.75 18.93,7.39 19.36,7.02 19.76,6.66 20.16,6.28 20.54,5.91 20.91,5.53 21.27,5.15 21.61,4.77 21.93,4.38 22.25,3.99 22.54,3.59 22.83,3.19 23.09,2.78 23.35,2.37 23.58,1.95 23.81,1.53 24.01,1.1 24.21,0.67 24.39,0.23 24.55,-0.22" fill="none" stroke="black" stroke-width="2.2222222222222223" stroke-linejoin="round" filter="url(#fuzzy)" />
      <circle r="3.192" cx="-9.90564425074442" cy="-2.204300738667321" stroke="black" fill="none" stroke-width="1.0" filter="url(#fuzzy)" clip-path="url(#rightEyeClipPath)" /><circle r="4.6" cx="-6.375644250744419" cy="-1.5443007386673213" stroke="black" fill="none" stroke-width="1.0" filter="url(#fuzzy)" clip-path="url(#rightEyeClipPath)" /><circle r="4.3919999999999995" cx="-9.16564425074442" cy="0.17569926133267888" stroke="black" fill="none" stroke-width="1.0" filter="url(#fuzzy)" clip-path="url(#rightEyeClipPath)" /><circle r="4.418" cx="-9.04064425074442" cy="-1.0943007386673216" stroke="black" fill="none" stroke-width="1.0" filter="url(#fuzzy)" clip-path="url(#rightEyeClipPath)" /><circle r="4.896" cx="-6.07064425074442" cy="1.1556992613326793" stroke="black" fill="none" stroke-width="1.0" filter="url(#fuzzy)" clip-path="url(#rightEyeClipPath)" /><circle r="3.842" cx="-8.275644250744419" cy="-0.3843007386673212" stroke="black" fill="none" stroke-width="1.0" filter="url(#fuzzy)" clip-path="url(#rightEyeClipPath)" /><circle r="4.686" cx="-8.33064425074442" cy="-2.704300738667321" stroke="black" fill="none" stroke-width="1.0" filter="url(#fuzzy)" clip-path="url(#rightEyeClipPath)" /><circle r="3.266" cx="-7.060644250744419" cy="0.460699261332679" stroke="black" fill="none" stroke-width="1.0" filter="url(#fuzzy)" clip-path="url(#rightEyeClipPath)" /><circle r="4.38" cx="-9.36064425074442" cy="1.2356992613326794" stroke="black" fill="none" stroke-width="1.0" filter="url(#fuzzy)" clip-path="url(#rightEyeClipPath)" /><circle r="3.884" cx="-7.2406442507444195" cy="0.670699261332679" stroke="black" fill="none" stroke-width="1.0" filter="url(#fuzzy)" clip-path="url(#rightEyeClipPath)" />
      </g>
    <g transform="translate(-52.120000000000005 -26.56)">
      <polyline id="leftUpper" points="30.97,10.92 31.19,10.53 31.34,10.14 31.44,9.74 31.49,9.34 31.48,8.93 31.42,8.52 31.31,8.1 31.16,7.68 30.96,7.25 30.72,6.81 30.45,6.36 30.13,5.91 29.78,5.44 29.4,4.97 28.99,4.49 28.54,4 28.07,3.5 27.57,2.99 27.04,2.48 26.49,1.96 25.92,1.43 25.33,0.89 24.72,0.35 24.08,-0.2 23.44,-0.75 22.66,-1.29 21.87,-1.85 21.06,-2.43 20.24,-3.02 19.4,-3.63 18.55,-4.26 17.68,-4.89 16.81,-5.53 15.92,-6.17 15.03,-6.82 14.12,-7.46 13.21,-8.1 12.3,-8.73 11.38,-9.34 10.45,-9.95 9.53,-10.54 8.6,-11.11 7.67,-11.65 6.74,-12.17 5.81,-12.67 4.89,-13.14 3.96,-13.58 3.04,-13.98 2.13,-14.35 1.22,-14.69 0.32,-14.99 -0.57,-15.25 -1.45,-15.47 -2.32,-15.66 -3.18,-15.81 -4.03,-15.91 -4.86,-15.98 -5.68,-16.01 -6.49,-16.01 -7.28,-15.96 -8.05,-15.88 -8.8,-15.76 -9.54,-15.61 -10.25,-15.43 -10.95,-15.21 -11.62,-14.97 -12.28,-14.69 -12.91,-14.4 -13.51,-14.08 -14.1,-13.74 -14.66,-13.38 -15.19,-13 -15.7,-12.62 -16.18,-12.22 -16.64,-11.82 -17.08,-11.4 -17.49,-10.98 -17.88,-10.54 -18.24,-10.1 -18.58,-9.64 -18.9,-9.18 -19.19,-8.71 -19.46,-8.24 -19.7,-7.77 -19.91,-7.29 -20.1,-6.82 -20.27,-6.34 -20.41,-5.86 -20.52,-5.39 -20.61,-4.92 -20.67,-4.45 -20.71,-3.99 -20.72,-3.53 -20.71,-3.08 -20.67,-2.64 -20.61,-2.2 -20.52,-1.77 -20.42,-1.35 -20.29,-0.94" fill="none" stroke="black" stroke-width="2.2222222222222223" stroke-linejoin="round" filter="url(#fuzzy)" />
      <polyline id="leftLower" points="31.49,9.76 31.56,9.99 31.57,10.24 31.52,10.51 31.41,10.79 31.24,11.07 31.03,11.36 30.77,11.66 30.47,11.96 30.12,12.26 29.73,12.55 29.31,12.85 28.86,13.14 28.37,13.42 27.86,13.7 27.32,13.96 26.75,14.22 26.16,14.47 25.55,14.7 24.92,14.92 24.28,15.13 23.62,15.33 22.94,15.51 22.25,15.67 21.55,15.82 20.84,15.96 19.94,16.25 19.04,16.51 18.13,16.74 17.23,16.93 16.32,17.1 15.41,17.23 14.5,17.32 13.59,17.39 12.69,17.42 11.78,17.43 10.88,17.4 9.99,17.35 9.09,17.27 8.21,17.16 7.32,17.03 6.44,16.88 5.57,16.7 4.7,16.5 3.84,16.29 2.98,16.06 2.13,15.81 1.28,15.55 0.44,15.27 -0.4,14.98 -1.22,14.69 -2.05,14.38 -2.86,14.07 -3.67,13.75 -4.47,13.42 -5.26,13.09 -6.04,12.76 -6.82,12.42 -7.59,12.08 -8.34,11.75 -9.09,11.41 -9.83,11.07 -10.56,10.73 -11.28,10.4 -11.98,10.06 -12.68,9.73 -13.36,9.4 -14.03,9.07 -14.68,8.74 -15.32,8.42 -15.95,8.1 -16.56,7.77 -17.16,7.45 -17.74,7.13 -18.3,6.81 -18.85,6.49 -19.38,6.17 -19.9,5.85 -20.4,5.52 -20.89,5.2 -21.36,4.87 -21.82,4.54 -22.26,4.21 -22.69,3.88 -23.1,3.54 -23.5,3.2 -23.87,2.86 -24.24,2.51 -24.58,2.16 -24.91,1.81 -25.22,1.45 -25.51,1.09 -25.79,0.72 -26.05,0.34 -26.29,-0.03 -26.51,-0.42 -26.72,-0.81 -26.91,-1.2 -27.09,-1.6 -27.25,-2" fill="none" stroke="black" stroke-width="2.2222222222222223" stroke-linejoin="round" filter="url(#fuzzy)" />
      <circle r="4.536" cx="0.7349783761578372" cy="-0.3457058685548198" stroke="black" fill="none" stroke-width="1.0" filter="url(#fuzzy)" clip-path="url(#leftEyeClipPath)" /><circle r="3.592" cx="2.5949783761578367" cy="0.6992941314451802" stroke="black" fill="none" stroke-width="1.0" filter="url(#fuzzy)" clip-path="url(#leftEyeClipPath)" /><circle r="4.97" cx="4.124978376157837" cy="2.8842941314451807" stroke="black" fill="none" stroke-width="1.0" filter="url(#fuzzy)" clip-path="url(#leftEyeClipPath)" /><circle r="4.244" cx="3.4799783761578365" cy="-0.2707058685548196" stroke="black" fill="none" stroke-width="1.0" filter="url(#fuzzy)" clip-path="url(#leftEyeClipPath)" /><circle r="4.78" cx="-0.07502162384216327" cy="1.3442941314451806" stroke="black" fill="none" stroke-width="1.0" filter="url(#fuzzy)" clip-path="url(#leftEyeClipPath)" /><circle r="3.5060000000000002" cx="-0.07502162384216327" cy="4.27929413144518" stroke="black" fill="none" stroke-width="1.0" filter="url(#fuzzy)" clip-path="url(#leftEyeClipPath)" /><circle r="3.702" cx="4.044978376157837" cy="0.15929413144518056" stroke="black" fill="none" stroke-width="1.0" filter="url(#fuzzy)" clip-path="url(#leftEyeClipPath)" /><circle r="4.494" cx="0.41497837615783695" cy="4.009294131445181" stroke="black" fill="none" stroke-width="1.0" filter="url(#fuzzy)" clip-path="url(#leftEyeClipPath)" /><circle r="4.964" cx="2.0099783761578376" cy="2.9792941314451804" stroke="black" fill="none" stroke-width="1.0" filter="url(#fuzzy)" clip-path="url(#leftEyeClipPath)" /><circle r="4.132" cx="3.334978376157837" cy="2.1742941314451807" stroke="black" fill="none" stroke-width="1.0" filter="url(#fuzzy)" clip-path="url(#leftEyeClipPath)" />
    </g>
    <g id="hairs">
      <polyline points="10.17,-96.46 10.99,-96.27 12.27,-95.92 13.31,-95.6 14.15,-95.31 14.8,-95.03 15.24,-94.73 15.43,-94.41 15.35,-94.04 14.98,-93.65 14.25,-93.23 13.15,-92.8 11.66,-92.38 9.75,-91.97 7.42,-91.54 4.62,-91.1 1.33,-90.63 -2.48,-90.14 -6.82,-89.62 -11.69,-89.11 -17.08,-88.59 -23,-88.09 -29.39,-87.66" fill="none" stroke="url(#rainbowGradient)" stroke-width="2" stroke-linejoin="round" filter="url(#fuzzy)" /><polyline points="35.53,-87.46 37.59,-86.25 39.17,-85.16 40.61,-84.05 42.1,-82.85 43.66,-81.61 45.18,-80.41 46.6,-79.3 47.92,-78.26 49.13,-77.29 50.18,-76.43 50.98,-75.77 51.39,-75.45 51.37,-75.52 50.99,-75.92 50.54,-76.38" fill="none" stroke="url(#rainbowGradient)" stroke-width="2" stroke-linejoin="round" filter="url(#fuzzy)" /><polyline points="61.08,-64.36 61.84,-63.22 62.44,-62.15 62.72,-61.2 62.53,-60.54 61.89,-60.19 60.85,-60.06 59.47,-60.07 57.72,-60.23 55.55,-60.61 52.87,-61.29 49.66,-62.29 45.92,-63.61 41.66,-65.21 36.93,-67.06 31.71,-69.16 25.94,-71.54 19.56,-74.24 12.5,-77.31 4.74,-80.79 -3.64,-84.66 -12.67,-88.84" fill="none" stroke="url(#rainbowGradient)" stroke-width="2" stroke-linejoin="round" filter="url(#fuzzy)" /><polyline points="24.25,-92.82 25.59,-92.23 26.67,-91.78 27.44,-91.38 27.97,-90.99 28.27,-90.61 28.28,-90.27 27.95,-89.98 27.24,-89.76 26.15,-89.61 24.69,-89.51 22.86,-89.46 20.65,-89.46 18.04,-89.5 14.95,-89.6 11.32,-89.76 7.11,-89.99 2.25,-90.33 -3.29,-90.78 -9.67,-91.3 -17.23,-91.71" fill="none" stroke="url(#rainbowGradient)" stroke-width="2" stroke-linejoin="round" filter="url(#fuzzy)" /><polyline points="-32.04,-89.29 -31.91,-89.41 -30.6,-89.77 -28.57,-90.22 -26.23,-90.64 -23.75,-90.98 -21.18,-91.23 -18.47,-91.44 -15.56,-91.64 -12.45,-91.84 -9.16,-92.03 -5.76,-92.2 -2.32,-92.34 1.09,-92.47 4.41,-92.57 7.6,-92.66 10.63,-92.74 13.52,-92.79 16.27,-92.83 18.92,-92.86 21.59,-92.84" fill="none" stroke="url(#rainbowGradient)" stroke-width="2" stroke-linejoin="round" filter="url(#fuzzy)" /><polyline points="35.53,-87.46 37.49,-86.35 38.73,-85.54 39.62,-84.89 40.35,-84.3 40.94,-83.78 41.31,-83.39 41.39,-83.15 41.16,-83.07 40.56,-83.15 39.55,-83.43 38.03,-83.98 35.96,-84.81 33.35,-85.93 30.18,-87.3 26.45,-88.96 22.12,-90.97 16.99,-93.42" fill="none" stroke="url(#rainbowGradient)" stroke-width="2" stroke-linejoin="round" filter="url(#fuzzy)" /><polyline points="-2.94,-96.88 -0.29,-97.06 1.25,-97.04 2.58,-96.98 3.75,-96.91 4.76,-96.84 5.63,-96.75 6.35,-96.65 6.91,-96.54 7.31,-96.4 7.5,-96.23 7.47,-96.03 7.2,-95.81 6.67,-95.58 5.87,-95.34 4.76,-95.1 3.31,-94.85 1.46,-94.58 -0.83,-94.28 -3.61,-93.96 -6.93,-93.62 -10.86,-93.24 -15.47,-92.8 -20.55,-92.37" fill="none" stroke="url(#rainbowGradient)" stroke-width="2" stroke-linejoin="round" filter="url(#fuzzy)" /><polyline points="52.35,-74.34 53.26,-73.55 53.68,-73.09 53.98,-72.66 54.28,-72.14 54.57,-71.52 54.78,-70.88 54.83,-70.32 54.64,-69.91 54.14,-69.72 53.32,-69.75 52.16,-70 50.66,-70.47 48.79,-71.17 46.53,-72.12 43.87,-73.34 40.81,-74.81 37.36,-76.53 33.52,-78.48 29.27,-80.71 24.56,-83.26 19.31,-86.21 13.45,-89.53 7.14,-93.19" fill="none" stroke="url(#rainbowGradient)" stroke-width="2" stroke-linejoin="round" filter="url(#fuzzy)" /><polyline points="40.33,-84.44 40.93,-83.96 42.25,-82.98 43.49,-82.09 44.54,-81.33 45.48,-80.61 46.33,-79.92 47,-79.33 47.42,-78.93 47.52,-78.74 47.31,-78.76 46.81,-78.99 46,-79.43 44.85,-80.12 43.33,-81.1 41.45,-82.35 39.2,-83.88 36.47,-85.73 33.21,-87.98" fill="none" stroke="url(#rainbowGradient)" stroke-width="2" stroke-linejoin="round" filter="url(#fuzzy)" /><polyline points="42.69,-82.57 43.9,-81.76 44.62,-81.27 45.37,-80.65 46.15,-79.92 46.79,-79.23 47.15,-78.69 47.21,-78.32 46.99,-78.08 46.5,-77.97 45.72,-78.01 44.65,-78.19 43.27,-78.52 41.6,-78.98 39.62,-79.55 37.35,-80.24 34.72,-81.09 31.7,-82.13 28.19,-83.43 24.16,-85.01 19.59,-86.86 14.51,-88.97 9.02,-91.32 3.32,-93.94" fill="none" stroke="url(#rainbowGradient)" stroke-width="2" stroke-linejoin="round" filter="url(#fuzzy)" /><polyline points="57.48,-68.51 58.24,-67.65 58.81,-66.6 58.99,-65.65 58.74,-64.87 58.09,-64.21 57.05,-63.63 55.59,-63.15 53.66,-62.8 51.23,-62.6 48.32,-62.52 44.92,-62.53 41.04,-62.64 36.64,-62.87 31.69,-63.27 26.18,-63.88 20.08,-64.68 13.4,-65.63 6.12,-66.7 -1.74,-67.87 -10.18,-69.19 -19.16,-70.74 -28.64,-72.61 -38.68,-74.81" fill="none" stroke="url(#rainbowGradient)" stroke-width="2" stroke-linejoin="round" filter="url(#fuzzy)" /><polyline points="55.48,-71.25 56.86,-69.3 57.53,-68.02 57.68,-66.99 57.3,-66.17 56.4,-65.54 55.01,-65.05 53.13,-64.67 50.73,-64.42 47.74,-64.31 44.14,-64.36 39.93,-64.56 35.13,-64.86 29.74,-65.29 23.75,-65.86 17.1,-66.64 9.75,-67.64 1.67,-68.84 -7.15,-70.2 -16.66,-71.72 -26.77,-73.46 -37.37,-75.57" fill="none" stroke="url(#rainbowGradient)" stroke-width="2" stroke-linejoin="round" filter="url(#fuzzy)" /><polyline points="70.2,-49.56 69.93,-50.15 69.77,-50 69.51,-49.64 68.97,-49.42 68.07,-49.47 66.75,-49.89 64.95,-50.76 62.62,-52.16 59.73,-54.09 56.26,-56.54 52.2,-59.47 47.53,-62.93 42.22,-66.96 36.25,-71.62 29.59,-76.93 22.21,-82.88 14.06,-89.46" fill="none" stroke="url(#rainbowGradient)" stroke-width="2" stroke-linejoin="round" filter="url(#fuzzy)" /><polyline points="61.44,-63.85 61.27,-63.87 61.11,-63.45 60.65,-62.95 59.63,-62.6 57.9,-62.6 55.42,-63 52.22,-63.76 48.32,-64.81 43.69,-66.12 38.26,-67.76 31.92,-69.83 24.59,-72.4 16.23,-75.43 6.86,-78.85 -3.38,-82.68 -14.12,-87.14" fill="none" stroke="url(#rainbowGradient)" stroke-width="2" stroke-linejoin="round" filter="url(#fuzzy)" /><polyline points="-15.87,-95.39 -14.36,-95.62 -13.84,-95.63 -13.48,-95.53 -13.2,-95.28 -13.17,-94.86 -13.6,-94.2 -14.6,-93.3 -16.23,-92.13 -18.54,-90.68 -21.55,-88.92 -25.31,-86.84 -29.81,-84.41 -35.03,-81.62 -41.07,-78.42 -48.11,-74.68" fill="none" stroke="url(#rainbowGradient)" stroke-width="2" stroke-linejoin="round" filter="url(#fuzzy)" /><polyline points="64.98,-58.47 65.85,-56.67 65.85,-54.97 64.81,-53.78 62.69,-53.15 59.54,-52.98 55.41,-53.1 50.34,-53.37 44.31,-53.76 37.3,-54.28 29.26,-54.99 20.15,-55.96 9.94,-57.24 -1.4,-58.9 -13.82,-60.93 -27.31,-63.28 -42.02,-65.76" fill="none" stroke="url(#rainbowGradient)" stroke-width="2" stroke-linejoin="round" filter="url(#fuzzy)" /><polyline points="-27.9,-91.39 -26.86,-91.51 -25.17,-91.62 -23.09,-91.57 -20.46,-91.44 -17.23,-91.27 -13.5,-91.01 -9.4,-90.63 -5.03,-90.12 -0.46,-89.51 4.26,-88.81 9.09,-88.03 14,-87.17 18.96,-86.26 23.93,-85.4 28.87,-84.63 33.86,-83.87 39.07,-82.84" fill="none" stroke="url(#rainbowGradient)" stroke-width="2" stroke-linejoin="round" filter="url(#fuzzy)" /><polyline points="53.81,-73.14 54.02,-72.83 54.55,-72.19 55.37,-71.2 56.41,-69.9 57.59,-68.44 58.79,-66.96 59.92,-65.56 60.93,-64.3 61.81,-63.2 62.55,-62.26 63.13,-61.51 63.53,-60.97 63.71,-60.69 63.64,-60.71 63.32,-61.05 62.74,-61.72 61.9,-62.74 60.72,-64.19 59.12,-66.23 57.05,-68.98" fill="none" stroke="url(#rainbowGradient)" stroke-width="2" stroke-linejoin="round" filter="url(#fuzzy)" /><polyline points="27.58,-91.55 29.07,-90.8 29.9,-90.16 30.4,-89.53 30.51,-88.9 30.24,-88.29 29.62,-87.65 28.66,-86.98 27.37,-86.24 25.72,-85.43 23.68,-84.54 21.24,-83.59 18.36,-82.59 15,-81.53 11.15,-80.42 6.75,-79.26 1.82,-78.04 -3.67,-76.77 -9.72,-75.46 -16.37,-74.16 -23.63,-72.89 -31.52,-71.61 -40.14,-70.08 -49.78,-67.91" fill="none" stroke="url(#rainbowGradient)" stroke-width="2" stroke-linejoin="round" filter="url(#fuzzy)" /><polyline points="5.34,-96.73 6.46,-96.61 7.99,-96.37 9.67,-95.98 11.51,-95.46 13.51,-94.8 15.67,-94.04 17.92,-93.21 20.24,-92.34 22.57,-91.45 24.89,-90.56 27.16,-89.67 29.34,-88.8 31.39,-87.98 33.25,-87.23 34.89,-86.58 36.29,-86.02 37.42,-85.58 38.23,-85.31 38.72,-85.22 39.07,-85.2" fill="none" stroke="url(#rainbowGradient)" stroke-width="2" stroke-linejoin="round" filter="url(#fuzzy)" /><polyline points="38.12,-86.07 39.2,-85.27 40.26,-84.4 41.52,-83.37 42.93,-82.21 44.41,-81 45.89,-79.77 47.36,-78.51 48.81,-77.25 50.18,-76.02 51.44,-74.88 52.53,-73.86 53.47,-72.97 54.24,-72.23 54.82,-71.67 55.2,-71.33 55.37,-71.19 55.37,-71.24 55.24,-71.4 55.01,-71.66 54.63,-72.06 53.95,-72.77 52.72,-74.1" fill="none" stroke="url(#rainbowGradient)" stroke-width="2" stroke-linejoin="round" filter="url(#fuzzy)" /><polyline points="61.44,-63.85 61.22,-63.83 60.92,-63.3 60.24,-62.59 58.92,-61.95 56.79,-61.54 53.81,-61.4 50.01,-61.48 45.44,-61.71 40.1,-62.07 33.94,-62.61 26.85,-63.43 18.79,-64.55 9.72,-65.96 -0.31,-67.62 -11.23,-69.54 -23,-71.77 -35.66,-74.33" fill="none" stroke="url(#rainbowGradient)" stroke-width="2" stroke-linejoin="round" filter="url(#fuzzy)" /><polyline points="44.54,-81.24 44.91,-81.1 45.85,-80.32 47.24,-79.11 48.69,-77.83 49.98,-76.65 51.1,-75.59 52.09,-74.62 52.97,-73.74 53.7,-73 54.26,-72.44 54.63,-72.06 54.86,-71.83 54.95,-71.72 54.88,-71.77 54.54,-72.08 53.82,-72.81 52.68,-74.01 51.35,-75.43" fill="none" stroke="url(#rainbowGradient)" stroke-width="2" stroke-linejoin="round" filter="url(#fuzzy)" /><polyline points="-6.67,-96.84 -5.82,-96.8 -4.25,-96.73 -2.3,-96.59 -0.19,-96.41 2.05,-96.19 4.42,-95.95 6.89,-95.68 9.35,-95.39 11.7,-95.1 13.85,-94.82 15.73,-94.57 17.28,-94.4 18.38,-94.34 18.86,-94.43" fill="none" stroke="url(#rainbowGradient)" stroke-width="2" stroke-linejoin="round" filter="url(#fuzzy)" /><polyline points="64.98,-58.47 66.17,-56.61 67.1,-54.83 67.61,-53.54 67.7,-52.77 67.4,-52.41 66.79,-52.31 65.9,-52.36 64.76,-52.55 63.34,-52.9 61.61,-53.48 59.53,-54.33 57.08,-55.5 54.22,-56.99 50.96,-58.81 47.27,-60.93 43.12,-63.37 38.52,-66.15 33.45,-69.31 27.91,-72.86 21.91,-76.82 15.41,-81.19 8.37,-85.99 0.89,-91.21" fill="none" stroke="url(#rainbowGradient)" stroke-width="2" stroke-linejoin="round" filter="url(#fuzzy)" /><polyline points="54.39,-72.39 54.95,-71.8 55.92,-70.63 57.05,-69.26 58.17,-67.91 59.16,-66.69 59.99,-65.66 60.64,-64.82 61.13,-64.17 61.45,-63.68 61.6,-63.38 61.54,-63.29 61.25,-63.47 60.7,-63.94 59.91,-64.69 58.88,-65.72 57.59,-67.07 55.95,-68.85 53.79,-71.22 51,-74.27 47.76,-77.83" fill="none" stroke="url(#rainbowGradient)" stroke-width="2" stroke-linejoin="round" filter="url(#fuzzy)" /><polyline points="-6.67,-96.84 -5.85,-96.79 -4.39,-96.7 -2.62,-96.52 -0.71,-96.26 1.34,-95.96 3.55,-95.6 5.89,-95.2 8.31,-94.75 10.73,-94.27 13.11,-93.78 15.42,-93.29 17.65,-92.82 19.78,-92.36 21.8,-91.91 23.7,-91.47 25.46,-91.04 27.05,-90.65 28.45,-90.32 29.6,-90.09 30.2,-90.06" fill="none" stroke="url(#rainbowGradient)" stroke-width="2" stroke-linejoin="round" filter="url(#fuzzy)" /><polyline points="4.32,-97.2 5.31,-96.88 6.46,-96.72 7.7,-96.59 8.91,-96.46 10.07,-96.31 11.16,-96.13 12.14,-95.94 12.98,-95.76 13.62,-95.6 14.03,-95.47 14.17,-95.37 14,-95.32 13.47,-95.3 12.55,-95.32 11.16,-95.39 9.24,-95.54 6.79,-95.76 3.89,-96.05 0.74,-96.42" fill="none" stroke="url(#rainbowGradient)" stroke-width="2" stroke-linejoin="round" filter="url(#fuzzy)" /><polyline points="61.44,-63.85 61.5,-63.76 62.07,-63.02 62.81,-62.02 63.5,-61.03 63.98,-60.23 64.24,-59.67 64.31,-59.34 64.22,-59.17 63.98,-59.2 63.51,-59.51 62.76,-60.2 61.67,-61.34 60.19,-62.95 58.29,-65.04 55.95,-67.62 53.23,-70.64 50.23,-74.04 46.9,-77.84" fill="none" stroke="url(#rainbowGradient)" stroke-width="2" stroke-linejoin="round" filter="url(#fuzzy)" /><polyline points="-25.41,-92.29 -25.08,-92.34 -24.22,-92.58 -22.72,-93.03 -20.98,-93.53 -19.22,-94.01 -17.51,-94.43 -15.88,-94.82 -14.35,-95.17 -12.95,-95.48 -11.68,-95.76 -10.51,-96 -9.42,-96.21 -8.4,-96.4 -7.5,-96.55 -6.77,-96.67 -6.31,-96.74 -6.2,-96.76 -6.47,-96.72 -7.17,-96.62 -8.26,-96.47 -9.65,-96.27 -11.19,-96.04 -12.95,-95.77" fill="none" stroke="url(#rainbowGradient)" stroke-width="2" stroke-linejoin="round" filter="url(#fuzzy)" /><polyline points="18.38,-94.45 18.25,-94.59 18.77,-94.44 19.47,-94.14 20,-93.78 20.13,-93.44 19.79,-93.15 18.95,-92.91 17.62,-92.72 15.78,-92.57 13.37,-92.45 10.34,-92.35 6.6,-92.28 2.11,-92.27 -3.19,-92.31 -9.43,-92.36 -16.98,-92.24" fill="none" stroke="url(#rainbowGradient)" stroke-width="2" stroke-linejoin="round" filter="url(#fuzzy)" /><polyline points="69.87,-50.64 70.18,-49.84 70.72,-48.58 71.22,-47.41 71.64,-46.35 71.95,-45.46 72.1,-44.83 72.06,-44.52 71.8,-44.53 71.36,-44.84 70.72,-45.41 69.89,-46.27 68.82,-47.5 67.49,-49.15 65.87,-51.27 63.96,-53.89 61.74,-57 59.18,-60.64 56.16,-64.92 52.58,-69.91 48.56,-75.53" fill="none" stroke="url(#rainbowGradient)" stroke-width="2" stroke-linejoin="round" filter="url(#fuzzy)" /><polyline points="38.12,-86.07 38.96,-85.32 39.31,-84.6 39.36,-83.76 39.1,-82.82 38.4,-81.86 37.2,-80.86 35.5,-79.8 33.29,-78.68 30.51,-77.51 27.11,-76.31 23.06,-75.08 18.34,-73.8 12.96,-72.44 6.92,-71.03 0.23,-69.59 -7.14,-68.13 -15.2,-66.59 -23.97,-64.9 -33.47,-63.04 -43.69,-61.08 -54.57,-59.18" fill="none" stroke="url(#rainbowGradient)" stroke-width="2" stroke-linejoin="round" filter="url(#fuzzy)" /><polyline points="24.25,-92.82 25.66,-92.22 26.94,-91.72 28.04,-91.27 29.04,-90.81 29.95,-90.35 30.72,-89.92 31.31,-89.56 31.7,-89.27 31.88,-89.05 31.85,-88.9 31.6,-88.82 31.11,-88.82 30.36,-88.89 29.3,-89.05 27.92,-89.32 26.18,-89.7 24.06,-90.23 21.53,-90.91 18.57,-91.77 15.17,-92.78 11.28,-93.94 6.52,-95.31" fill="none" stroke="url(#rainbowGradient)" stroke-width="2" stroke-linejoin="round" filter="url(#fuzzy)" /><polyline points="9.8,-96.59 12.57,-95.89 14.01,-95.53 15.34,-95.22 16.71,-94.91 18.06,-94.59 19.35,-94.26 20.56,-93.92 21.65,-93.59 22.57,-93.28 23.28,-93.02 23.74,-92.81 23.95,-92.67 23.87,-92.59 23.51,-92.59 22.85,-92.66 21.85,-92.81 20.5,-93.07 18.77,-93.44 16.67,-93.91 14.16,-94.48 11.23,-95.17 7.94,-96.04" fill="none" stroke="url(#rainbowGradient)" stroke-width="2" stroke-linejoin="round" filter="url(#fuzzy)" /><polyline points="62.54,-62.6 63.93,-60.49 64.16,-59.41 63.71,-58.87 62.8,-58.58 61.51,-58.36 59.8,-58.24 57.58,-58.33 54.73,-58.74 51.22,-59.53 47.04,-60.64 42.2,-62.04 36.74,-63.7 30.66,-65.62 23.91,-67.84 16.42,-70.4 8.08,-73.32 -1.15,-76.64 -11.17,-80.35 -21.64,-84.49" fill="none" stroke="url(#rainbowGradient)" stroke-width="2" stroke-linejoin="round" filter="url(#fuzzy)" /><polyline points="-20.38,-93.9 -18.85,-94.26 -16.97,-94.51 -14.93,-94.62 -12.81,-94.59 -10.58,-94.44 -8.14,-94.2 -5.4,-93.91 -2.39,-93.56 0.81,-93.18 4.11,-92.76 7.42,-92.3 10.67,-91.81 13.84,-91.31 16.91,-90.81 19.87,-90.34 22.74,-89.89 25.49,-89.47 28.08,-89.08 30.49,-88.67 32.83,-88.19" fill="none" stroke="url(#rainbowGradient)" stroke-width="2" stroke-linejoin="round" filter="url(#fuzzy)" /><polyline points="-1.82,-96.93 -1.56,-96.95 -0.54,-96.9 0.36,-96.72 1,-96.42 1.31,-96.01 1.27,-95.48 0.89,-94.83 0.16,-94.04 -0.92,-93.11 -2.34,-92.01 -4.14,-90.74 -6.32,-89.3 -8.93,-87.66 -12.01,-85.83 -15.6,-83.77 -19.73,-81.49 -24.39,-79 -29.56,-76.33 -35.26,-73.5 -41.57,-70.44 -48.63,-67.09 -56.44,-63.51" fill="none" stroke="url(#rainbowGradient)" stroke-width="2" stroke-linejoin="round" filter="url(#fuzzy)" /><polyline points="-2.94,-96.88 -0.26,-97.05 1.35,-97.03 2.81,-96.96 4.15,-96.88 5.38,-96.8 6.49,-96.71 7.52,-96.62 8.43,-96.52 9.23,-96.4 9.88,-96.28 10.35,-96.15 10.6,-96.02 10.59,-95.91 10.29,-95.82 9.68,-95.76 8.75,-95.72 7.46,-95.7 5.79,-95.71 3.68,-95.77 1.07,-95.87 -2.14,-96.03 -6.14,-96.18" fill="none" stroke="url(#rainbowGradient)" stroke-width="2" stroke-linejoin="round" filter="url(#fuzzy)" /><polyline points="-25.41,-92.29 -24.93,-92.32 -23.68,-92.49 -21.49,-92.86 -18.8,-93.27 -15.89,-93.63 -12.86,-93.92 -9.75,-94.17 -6.61,-94.39 -3.54,-94.59 -0.59,-94.77 2.23,-94.93 4.98,-95.07 7.65,-95.19 10.08,-95.33 11.95,-95.51" fill="none" stroke="url(#rainbowGradient)" stroke-width="2" stroke-linejoin="round" filter="url(#fuzzy)" /><polyline points="52.35,-74.34 53.21,-73.56 53.5,-73.13 53.58,-72.74 53.56,-72.27 53.45,-71.69 53.18,-71.1 52.66,-70.58 51.8,-70.21 50.55,-70.02 48.87,-70.04 46.76,-70.26 44.22,-70.66 41.24,-71.26 37.83,-72.06 33.95,-73.09 29.59,-74.33 24.73,-75.76 19.34,-77.37 13.39,-79.18 6.84,-81.24 -0.43,-83.57 -8.47,-86.12 -17.02,-88.91" fill="none" stroke="url(#rainbowGradient)" stroke-width="2" stroke-linejoin="round" filter="url(#fuzzy)" /><polyline points="25.59,-92.15 27.12,-91.65 28.26,-91.18 29.4,-90.65 30.55,-90.07 31.66,-89.5 32.67,-88.96 33.54,-88.48 34.29,-88.07 34.92,-87.72 35.41,-87.43 35.73,-87.21 35.85,-87.08 35.74,-87.04 35.36,-87.11 34.68,-87.33 33.65,-87.72 32.22,-88.31 30.34,-89.13 27.96,-90.18 25.04,-91.47 21.56,-93.02" fill="none" stroke="url(#rainbowGradient)" stroke-width="2" stroke-linejoin="round" filter="url(#fuzzy)" /><polyline points="17.76,-94.75 18.92,-94.49 20.55,-93.97 22.25,-93.37 23.85,-92.77 25.33,-92.21 26.67,-91.69 27.89,-91.19 28.97,-90.74 29.89,-90.35 30.6,-90.03 31.04,-89.82 31.17,-89.75 30.93,-89.84 30.31,-90.1 29.29,-90.54 27.86,-91.15 26.16,-91.88" fill="none" stroke="url(#rainbowGradient)" stroke-width="2" stroke-linejoin="round" filter="url(#fuzzy)" /><polyline points="-12.84,-95.95 -11.22,-96.22 -9.68,-96.4 -8.62,-96.4 -8.08,-96.24 -8,-95.92 -8.37,-95.44 -9.21,-94.82 -10.52,-94.03 -12.31,-93.06 -14.62,-91.88 -17.53,-90.46 -21.12,-88.78 -25.41,-86.86 -30.39,-84.75 -35.99,-82.46 -42.26,-79.97" fill="none" stroke="url(#rainbowGradient)" stroke-width="2" stroke-linejoin="round" filter="url(#fuzzy)" /><polyline points="54.73,-72.15 55.72,-70.88 56.8,-69.5 57.7,-68.34 58.36,-67.42 58.73,-66.77 58.81,-66.36 58.63,-66.18 58.18,-66.23 57.43,-66.52 56.32,-67.11 54.81,-68.04 52.89,-69.32 50.59,-70.93 47.89,-72.85 44.78,-75.12 41.17,-77.85 37.01,-81.11 32.24,-84.91 26.79,-89.2" fill="none" stroke="url(#rainbowGradient)" stroke-width="2" stroke-linejoin="round" filter="url(#fuzzy)" /><polyline points="18.38,-94.45 18.25,-94.56 18.76,-94.33 19.45,-93.87 20,-93.3 20.23,-92.67 20.08,-92 19.53,-91.29 18.6,-90.51 17.29,-89.66 15.58,-88.74 13.46,-87.73 10.9,-86.63 7.86,-85.46 4.33,-84.19 0.29,-82.84 -4.24,-81.4 -9.26,-79.86 -14.78,-78.23 -20.81,-76.49 -27.43,-74.61 -34.75,-72.47 -42.89,-69.89 -51.88,-66.89" fill="none" stroke="url(#rainbowGradient)" stroke-width="2" stroke-linejoin="round" filter="url(#fuzzy)" /><polyline points="-27.54,-91.32 -25.93,-91.87 -24.61,-91.97 -22.86,-91.96 -20.53,-91.92 -17.78,-91.8 -14.76,-91.55 -11.56,-91.19 -8.22,-90.7 -4.77,-90.12 -1.22,-89.45 2.41,-88.71 6.13,-87.92 9.97,-87.11 13.94,-86.27 18.04,-85.4 22.21,-84.46 26.41,-83.44 30.56,-82.36 34.59,-81.3 38.42,-80.33 42.1,-79.45 45.93,-78.37" fill="none" stroke="url(#rainbowGradient)" stroke-width="2" stroke-linejoin="round" filter="url(#fuzzy)" /><polyline points="70.2,-49.56 70.02,-50.09 70.13,-49.76 70.33,-49.13 70.45,-48.54 70.43,-48.13 70.2,-48.02 69.71,-48.32 68.88,-49.12 67.72,-50.44 66.19,-52.27 64.28,-54.6 61.91,-57.52 59.02,-61.14 55.65,-65.46 51.91,-70.42 47.75,-76" fill="none" stroke="url(#rainbowGradient)" stroke-width="2" stroke-linejoin="round" filter="url(#fuzzy)" /><polyline points="14.36,-95.48 14.35,-95.41 15.56,-95.04 17.32,-94.5 19.23,-93.86 21.2,-93.15 23.22,-92.38 25.25,-91.57 27.22,-90.77 29.06,-89.99 30.72,-89.29 32.17,-88.68 33.4,-88.18 34.39,-87.78 35.1,-87.51 35.5,-87.38 35.58,-87.38 35.42,-87.47" fill="none" stroke="url(#rainbowGradient)" stroke-width="2" stroke-linejoin="round" filter="url(#fuzzy)" /><polyline points="71.41,-46.99 71.44,-46.91 71.6,-46.08 71.58,-45.29 71.23,-44.87 70.46,-44.93 69.25,-45.46 67.62,-46.37 65.55,-47.64 63.02,-49.31 59.99,-51.45 56.42,-54.13 52.28,-57.38 47.56,-61.22 42.23,-65.66 36.3,-70.7 29.79,-76.33 22.7,-82.5 14.9,-89.24" fill="none" stroke="url(#rainbowGradient)" stroke-width="2" stroke-linejoin="round" filter="url(#fuzzy)" /><polyline points="-39.3,-85.09 -38.36,-85.61 -36.34,-86.52 -34.02,-87.34 -31.48,-88.04 -28.71,-88.67 -25.68,-89.28 -22.41,-89.87 -18.9,-90.45 -15.25,-91.02 -11.54,-91.55 -7.85,-92.04 -4.23,-92.52 -0.68,-93.01 2.83,-93.53 6.31,-94.03 9.69,-94.47 12.6,-94.89" fill="none" stroke="url(#rainbowGradient)" stroke-width="2" stroke-linejoin="round" filter="url(#fuzzy)" /><polyline points="-24.69,-92.46 -24.65,-92.4 -22.87,-92.84 -20.74,-93.27 -18.56,-93.57 -16.33,-93.77 -14.03,-93.91 -11.68,-94 -9.32,-94.04 -6.92,-94.04 -4.47,-94.01 -1.93,-93.95 0.7,-93.87 3.39,-93.78 6.08,-93.66 8.69,-93.53 11.17,-93.39 13.46,-93.27 15.56,-93.16 17.46,-93.08 19.16,-93.01 20.67,-92.96 21.96,-92.92 23.13,-92.85" fill="none" stroke="url(#rainbowGradient)" stroke-width="2" stroke-linejoin="round" filter="url(#fuzzy)" /><polyline points="-2.94,-96.88 -0.29,-97.06 1.27,-97.04 2.63,-96.98 3.83,-96.92 4.86,-96.84 5.71,-96.76 6.41,-96.68 6.94,-96.58 7.26,-96.47 7.36,-96.34 7.19,-96.19 6.68,-96.04 5.79,-95.88 4.47,-95.72 2.71,-95.57 0.54,-95.42 -1.99,-95.29 -4.87,-95.17 -8.22,-95.06 -12.32,-94.94" fill="none" stroke="url(#rainbowGradient)" stroke-width="2" stroke-linejoin="round" filter="url(#fuzzy)" /><polyline points="44.81,-81.38 45.42,-80.77 46.74,-79.65 47.95,-78.61 48.79,-77.86 49.28,-77.36 49.55,-76.99 49.63,-76.74 49.48,-76.65 49.04,-76.77 48.3,-77.12 47.25,-77.68 45.88,-78.45 44.17,-79.43 42.07,-80.69 39.51,-82.29 36.42,-84.28 32.74,-86.72 28.64,-89.56" fill="none" stroke="url(#rainbowGradient)" stroke-width="2" stroke-linejoin="round" filter="url(#fuzzy)" /><polyline points="-56.18,-70.55 1.91,-70.8 -0.95,-73.24 -8.75,-72.16 -8.88,-71.25 -6.95,-72.88 -8.31,-76.32 -12.6,-79.25 -16.21,-79.82 -16.15,-77.86 -11.92,-74.79 -5.16,-72.67 1.96,-72.64 7.84,-73.66 11.15,-72.55 11,-66.17 14.73,-54.24 75.68,-36.98" fill="none" stroke="url(#rainbowGradient)" stroke-width="2" stroke-linejoin="round" filter="url(#fuzzy)" /><polyline points="40,-84.64 -3.83,-83.65 0.81,-84.35 14.03,-82.08 20.97,-78.96 19.31,-76.63 12.04,-75.26 4.26,-74.12 0.51,-72.55 1.97,-70.6 6.04,-69.08 9.37,-68.63 12.22,-68.76 19.06,-67.89 32.62,-65.21 45.42,-63.42 38.71,-70.25 -8.64,-96.77" fill="none" stroke="url(#rainbowGradient)" stroke-width="2" stroke-linejoin="round" filter="url(#fuzzy)" /><polyline points="-13.05,-95.82 6.98,-91.37 9.76,-88.26 5.07,-88.84 2.77,-90.14 3.58,-90.2 3.62,-88.7 -0.01,-86.1 -6.47,-82.89 -11.91,-79.35 -12.47,-75.56 -6.84,-71.79 3.34,-68.71 15.22,-67.2 26.6,-67.77 35.53,-70.09 37.95,-74.04 25.34,-82.1 -13.97,-95.81" fill="none" stroke="url(#rainbowGradient)" stroke-width="2" stroke-linejoin="round" filter="url(#fuzzy)" /><polyline points="-36.1,-87.35 -7.33,-82.21 19.25,-73.01 23.54,-70.43 14.4,-72.79 4.55,-76.24 -0.38,-79.18 -1.19,-81.67 -0.39,-83.71 0.75,-84.59 2.1,-83.44 3.64,-80.14 5.66,-75.67 9.91,-71.55 18.71,-68.97 28.95,-69.5 24.01,-77.75 -18.15,-94.71" fill="none" stroke="url(#rainbowGradient)" stroke-width="2" stroke-linejoin="round" filter="url(#fuzzy)" /><polyline points="20.86,-93.92 12.86,-83.02 -2.14,-81.43 -2.01,-83.8 5.36,-85.58 12.02,-85.76 15.23,-84.99 15.44,-84.04 13.73,-83.39 10.75,-83.24 7.07,-83.59 3.8,-84.19 2.58,-84.52 4.81,-84.04 10.62,-82.49 18.48,-80.17 25.76,-77.93 30.2,-76.73 31.32,-77.01 30.6,-78.28 30.09,-79.22 30.14,-78.75 32.22,-75.83 64.66,-59.32" fill="none" stroke="url(#rainbowGradient)" stroke-width="2" stroke-linejoin="round" filter="url(#fuzzy)" /><polyline points="58.34,-67.77 3.32,-68.42 -12.26,-70.45 -22.96,-73.15 -27.11,-77.01 -23.81,-81.46 -15.91,-85.42 -7.13,-88.2 -0.29,-89.74 2.97,-90.44 2.1,-90.64 -2.4,-90.4 -8.96,-89.71 -15.23,-88.68 -18.51,-87.78 -16.73,-87.56 -9.58,-88.2 0.78,-89.1 10.8,-89.22 19.21,-87.93 29.94,-85.64 39.35,-85.23" fill="none" stroke="url(#rainbowGradient)" stroke-width="2" stroke-linejoin="round" filter="url(#fuzzy)" /><polyline points="78.03,-29.87 41.6,-62.61 15.96,-75.24 4.54,-79.05 3.62,-80.15 9,-80.32 14.97,-79.88 16.75,-79.5 13.26,-79.98 7.1,-81.39 1.73,-82.95 -0.76,-83.94 1.24,-84.58 10.61,-85.92 26.61,-87.6 35,-87.78" fill="none" stroke="url(#rainbowGradient)" stroke-width="2" stroke-linejoin="round" filter="url(#fuzzy)" /><polyline points="68.55,-52.52 54.2,-69.6 46.01,-77 40.53,-80.46 37.77,-81.34 37.86,-79.87 39.74,-77 42.28,-73.92 44.8,-71.3 46.71,-69.21 47.06,-67.58 44.86,-66.48 39.91,-66.13 33.22,-66.82 26.52,-68.8 21.09,-72.16 17.21,-76.56 15.27,-80.88 16.72,-83.58 20.89,-84.63 16.7,-87.63 -15.87,-95.39" fill="none" stroke="url(#rainbowGradient)" stroke-width="2" stroke-linejoin="round" filter="url(#fuzzy)" /><polyline points="-48.99,-77.61 12.94,-66.98 28.28,-71.46 34.32,-72.55 33.88,-71.63 28.42,-71.77 22.26,-73.62 18.94,-76.29 19.08,-78.71 21.16,-80.24 23.37,-80.64 24.66,-79.89 24.85,-78.14 24.1,-75.67 22.48,-72.84 19.85,-70.07 15.87,-67.79 10.38,-66.45 4.12,-66.53 -0.27,-68.15 1.71,-70.46 13.35,-71.32 29.63,-68.99 29.73,-68.27 -24.69,-92.46" fill="none" stroke="url(#rainbowGradient)" stroke-width="2" stroke-linejoin="round" filter="url(#fuzzy)" /><polyline points="55.48,-71.25 56.26,-59.07 37.79,-59.3 21.85,-62.95 12.35,-66.45 5.82,-69.82 1.49,-73.27 0.87,-76.3 4.35,-78.39 9.95,-79.56 14.56,-80.31 16.15,-81.14 14.98,-82.18 13.09,-83.23 12.65,-83.99 14.29,-84.3 16.85,-84.24 18.46,-84.03 18.26,-83.88 17.05,-83.91 15.9,-84.09 13.64,-83.95 6.82,-82.81 -1.05,-81.98 30.04,-90.54" fill="none" stroke="url(#rainbowGradient)" stroke-width="2" stroke-linejoin="round" filter="url(#fuzzy)" /><polyline points="-13.97,-95.81 -8.77,-85.85 -17.72,-75.76 -12.67,-71.91 -1.02,-73.31 6.81,-76.45 6.77,-78.43 1.05,-78.21 -4.93,-76.54 -6.14,-74.94 -0.55,-74.41 10.64,-74.66 24.19,-74.7 35.56,-74.5 40,-75.5 40.03,-76.02 64.66,-59.32" fill="none" stroke="url(#rainbowGradient)" stroke-width="2" stroke-linejoin="round" filter="url(#fuzzy)" /><polyline points="-56.18,-70.37 -27.11,-69.84 -0.61,-70.67 2.84,-73.6 -4.84,-77.17 -13.62,-80.06 -20.44,-81.63 -25.31,-81.87 -28.17,-81.09 -28.32,-79.75 -25.1,-78.45 -18.64,-77.77 -9.74,-78 0.71,-78.97 12.17,-79.99 24.01,-80.16 34.68,-79.19 41.41,-78.22 40.83,-80.1 30.45,-87.21 13.74,-95.72" fill="none" stroke="url(#rainbowGradient)" stroke-width="2" stroke-linejoin="round" filter="url(#fuzzy)" /><polyline points="54.39,-72.39 14.15,-71.93 21.14,-72.07 25.61,-74.68 23.52,-77.24 18.92,-78.43 15.13,-78.73 14.36,-78.72 17.23,-78.4 22.25,-77.8 26.41,-77.6 27.08,-78.67 23.7,-81.16 18.25,-84.03 14,-85.61 13.75,-84.73 18.8,-81.49 28.81,-76.72 42.39,-70.23 58.54,-58.72 74.21,-40.54" fill="none" stroke="url(#rainbowGradient)" stroke-width="2" stroke-linejoin="round" filter="url(#fuzzy)" /><polyline points="-35.27,-87.71 12.8,-83.88 30.08,-81.06 35.55,-78.26 32.03,-77.39 23.14,-77.55 13.16,-77.38 4.89,-76.67 -0.57,-75.99 -3.02,-75.65 -2.79,-75.47 -0.76,-75.09 1.75,-74.42 3.64,-73.78 4.78,-73.63 6.35,-74.11 10.12,-74.81 17.19,-74.96 26.66,-74.13 35.4,-72.96 39.43,-73.38 36.29,-77.28 26.12,-84.13 8.14,-90.34 -25.41,-92.29" fill="none" stroke="url(#rainbowGradient)" stroke-width="2" stroke-linejoin="round" filter="url(#fuzzy)" /><polyline points="-39.3,-85.09 -9.05,-86.77 -10.9,-86.98 -10.94,-85.99 -4.46,-83.93 6.07,-81.49 16.58,-79.63 23.37,-78.93 24.41,-79.3 19.97,-80.13 12.37,-80.72 5.14,-80.51 1.57,-79.33 3.12,-77.56 8.63,-76.07 14.87,-75.98 18.59,-78.05 18.76,-81.97 17.52,-86.23 18.2,-88.92 21.52,-89.41 23.28,-89.46 18.53,-91.97 18.38,-94.45" fill="none" stroke="url(#rainbowGradient)" stroke-width="2" stroke-linejoin="round" filter="url(#fuzzy)" /><polyline points="-0.16,-97.05 -22.95,-80.5 -5.66,-78.63 12.03,-80.35 18.02,-83.34 14.06,-86.01 5.94,-87.67 -1.29,-88.51 -5.18,-88.72 -5.76,-87.99 -4.57,-85.84 -3.42,-82.51 -3.86,-79.49 -7.71,-78.76 -17.19,-80.87 -29.18,-84.49 -20.38,-93.9" fill="none" stroke="url(#rainbowGradient)" stroke-width="2" stroke-linejoin="round" filter="url(#fuzzy)" /><polyline points="20.86,-93.92 13.4,-91.86 2.54,-83.49 -1.2,-74.44 1.49,-69.2 6.97,-68.35 11.71,-70.64 13.64,-74.53 12.66,-78.7 9.95,-82.1 6.89,-84 4.59,-84.05 4.06,-82.24 6.19,-78.81 10.99,-74.18 16.82,-69.2 20.92,-65.12 21.6,-63.23 20.76,-63.81 23.64,-65.42 33.65,-66.16 45.11,-67.33 43.29,-75.74 20.86,-93.92" fill="none" stroke="url(#rainbowGradient)" stroke-width="2" stroke-linejoin="round" filter="url(#fuzzy)" /><polyline points="-39.3,-85.09 -24.44,-82.4 1.4,-78.58 18.64,-73.59 28.8,-70.11 34.08,-69.85 34.23,-72.81 29.01,-77.52 19.42,-82 7.28,-84.87 -5.2,-85.82 -15.63,-85.39 -21.7,-84.43 -21.74,-83.76 -15.58,-84.3 -5.5,-86.96 3.29,-91.59 5.66,-95.7 3.9,-96.77" fill="none" stroke="url(#rainbowGradient)" stroke-width="2" stroke-linejoin="round" filter="url(#fuzzy)" /><polyline points="10.17,-96.46 23.1,-85.85 20.04,-77.73 14,-74.93 10.3,-74.31 5.36,-74.67 -1.73,-75.77 -6.79,-77.01 -5.44,-77.69 2.24,-77.91 11.33,-78.9 15.68,-81.85 11.58,-86.04 -1.73,-88.71 -22.4,-88.04 -36.1,-87.35" fill="none" stroke="url(#rainbowGradient)" stroke-width="2" stroke-linejoin="round" filter="url(#fuzzy)" /><polyline points="46.7,-79.77 41.56,-75.97 32.49,-72.4 25.15,-74.22 22.7,-77.69 20.67,-81.36 15.1,-84.81 5.44,-87.26 -6.67,-87.84 -18.99,-86.35 -29.32,-83.54 -35.52,-80.77 -35.71,-79.23 -28.85,-79.23 -15.67,-79.87 0.49,-79.5 13.4,-77.26 14.42,-75.52 -4.75,-80.5 -35.27,-87.71" fill="none" stroke="url(#rainbowGradient)" stroke-width="2" stroke-linejoin="round" filter="url(#fuzzy)" /><polyline points="24.71,-92.5 -16.72,-86.15 -19.4,-84.69 -4.8,-84.05 12.38,-83.63 25.51,-83.34 33.36,-83.05 36.79,-82.81 36.81,-82.85 34.12,-83.41 29.22,-84.57 22.8,-86.23 16.07,-88.08 10.7,-89.54 8.5,-89.81 10.84,-87.88 17.78,-82.93 26.81,-75.18 31.25,-67.24 20.28,-64.66 -12.8,-72.72 -41.75,-83.59" fill="none" stroke="url(#rainbowGradient)" stroke-width="2" stroke-linejoin="round" filter="url(#fuzzy)" /><polyline points="10.17,-96.46 -11.29,-91.49 -3.93,-91.68 7.91,-90.5 16.68,-86.91 22.7,-81.4 28.43,-74.86 34.97,-68.08 41.1,-61.72 44.34,-56.64 42.82,-54.03 36.75,-54.87 28.41,-59.1 20.27,-65.23 12.9,-70.75 5.6,-73.04 0.54,-69.59 9.1,-57.24 76.66,-33.63" fill="none" stroke="url(#rainbowGradient)" stroke-width="2" stroke-linejoin="round" filter="url(#fuzzy)" /><polyline points="24.71,-92.5 -3.3,-89.28 -0.29,-83.8 10.04,-81.66 15.03,-82.27 15.16,-83.62 14.38,-84.77 15.07,-85.63 17.75,-86 21.97,-85.22 26.53,-82.7 29.45,-78.57 28.55,-73.98 22.54,-70.61 11.87,-69.84 -1.64,-71.91 -15.36,-75.46 -23.73,-78.24 -12.25,-78.96 46.7,-79.77" fill="none" stroke="url(#rainbowGradient)" stroke-width="2" stroke-linejoin="round" filter="url(#fuzzy)" /><polyline points="73.92,-41.61 40.2,-52.64 8.69,-65.04 2.43,-71.73 11.29,-72.15 22.13,-69.51 27.57,-66.88 26.15,-65.8 19.73,-66.57 10.95,-68.83 2.06,-71.91 -5.29,-75.14 -9.94,-78.01 -11.11,-80.21 -8.57,-81.58 -2.8,-82.04 4.9,-81.71 12.64,-81.01 18.79,-80.6 22.88,-81.05 25.7,-82.4 27.85,-84.04 28.64,-84.99 30.22,-83.44 55.48,-71.25" fill="none" stroke="url(#rainbowGradient)" stroke-width="2" stroke-linejoin="round" filter="url(#fuzzy)" /><polyline points="4.32,-97.2 -23.94,-83.7 -13.12,-81.81 5.12,-79.13 16.11,-77.15 18.85,-76.91 18.73,-77.11 19.83,-76.59 22.15,-75.74 23.59,-75.81 22.84,-77.36 20.29,-79.54 17.26,-80.58 15.88,-78.88 20.11,-74.06 34.44,-67.19 54.7,-61.5 57.48,-68.51" fill="none" stroke="url(#rainbowGradient)" stroke-width="2" stroke-linejoin="round" filter="url(#fuzzy)" /><polyline points="74.85,-39.61 46.06,-45.36 15.07,-59 -0.8,-69.31 -4.24,-74.72 0.31,-76.68 7.05,-76.87 11.25,-76.41 11.39,-76.04 8.76,-76.22 5.49,-77.29 2.99,-79.4 1.71,-82.41 1.53,-85.85 2.06,-89.15 2.57,-91.79 2.06,-93.56 -0.09,-94.47 -3.41,-94.62 -6.12,-94.08 -5.98,-93.19 -3.64,-93.01 -18.15,-94.71" fill="none" stroke="url(#rainbowGradient)" stroke-width="2" stroke-linejoin="round" filter="url(#fuzzy)" /><polyline points="14.36,-95.48 -3.47,-74.41 12.92,-72.59 22.07,-77.22 23.39,-80.66 23.03,-80.98 24.41,-79.4 27.14,-77.88 29.24,-77.61 29.64,-78.52 29.03,-79.66 28.93,-80.04 30.36,-79.34 32.92,-78.09 35,-77.17 34.81,-77.15 31.28,-77.87 24.61,-78.79 16.12,-79.75 8.29,-81.32 4.68,-83.91 9.39,-85.44 27.49,-79.12 68.55,-52.52" fill="none" stroke="url(#rainbowGradient)" stroke-width="2" stroke-linejoin="round" filter="url(#fuzzy)" /><polyline points="49.51,-77.29 36.62,-74.21 17.12,-81.79 10.26,-87.67 10.89,-89.96 12.93,-89.41 14.55,-86.72 16.94,-82.51 21.27,-77.87 26.63,-74.14 30.34,-72.19 30.01,-71.97 25.36,-72.81 18.77,-74.09 14.86,-75.18 19.51,-74.71 32.6,-73.6 20.86,-93.92" fill="none" stroke="url(#rainbowGradient)" stroke-width="2" stroke-linejoin="round" filter="url(#fuzzy)" /><polyline points="21.6,-93.74 -14.06,-86.37 -16.89,-80.48 -7.5,-75.79 3.58,-75.28 11.7,-77.72 16.16,-80.36 17.39,-81.67 15.72,-81.79 11.84,-81.59 7.48,-81.76 5.21,-82.4 7.21,-83.04 13.97,-83.02 23.66,-81.84 32.44,-79.62 35.37,-77.51 27.55,-78.34 7.54,-86.16 -5.46,-96.97" fill="none" stroke="url(#rainbowGradient)" stroke-width="2" stroke-linejoin="round" filter="url(#fuzzy)" /><polyline points="24.25,-92.82 41.18,-80.27 43.31,-79.36 41.97,-79.86 36.46,-80.58 25.94,-81.48 13.3,-81.96 4.27,-81.02 3.63,-78 11.67,-73.31 23.65,-68.68 32.67,-66.47 33.72,-68.26 25.29,-73.91 7.81,-81.81 -15.06,-89.08 -25.41,-92.29" fill="none" stroke="url(#rainbowGradient)" stroke-width="2" stroke-linejoin="round" filter="url(#fuzzy)" /><polyline points="-18.15,-94.71 23.51,-78.94 25.93,-74.73 22.07,-75.39 20.25,-78.92 19.81,-83.42 19.84,-87.12 20.2,-89.12 20.66,-89.39 20.88,-88.3 20.89,-86.28 21.26,-83.68 22.54,-80.89 24.67,-78.37 26.93,-76.59 28.57,-75.84 29.47,-76.2 29.91,-77.73 29.68,-80.5 28.09,-84.34 25.85,-88.14 26.65,-89.57 40.33,-84.44" fill="none" stroke="url(#rainbowGradient)" stroke-width="2" stroke-linejoin="round" filter="url(#fuzzy)" /><polyline points="-35.56,-87.68 23.51,-67.62 38.02,-70.69 41.09,-74.16 37.48,-76.31 29.92,-77.6 23.18,-77.78 21.05,-76.68 23.96,-74.87 29.44,-73.36 34.06,-73.05 35.13,-74.24 31.32,-76.45 22.5,-78.52 9.49,-79.23 -5.82,-78.04 -19.86,-75.8 -26.74,-74.58 -19.96,-76.62 -1.35,-83.79 -6.67,-96.84" fill="none" stroke="url(#rainbowGradient)" stroke-width="2" stroke-linejoin="round" filter="url(#fuzzy)" /><polyline points="6.1,-96.63 13.32,-84.75 29.31,-76.56 35.22,-75.92 32.65,-77.79 26.24,-79.45 20.57,-79.94 18.64,-79.04 21.11,-76.88 26.76,-73.89 33.74,-70.66 40.57,-67.86 46.28,-66.3 49.96,-66.64 50.55,-68.92 46.76,-72.39 36.48,-76.17 16.36,-80.18 -14.68,-84.22 -39.3,-85.09" fill="none" stroke="url(#rainbowGradient)" stroke-width="2" stroke-linejoin="round" filter="url(#fuzzy)" /><polyline points="-60.66,-64.85 -23.04,-71.37 1.1,-74.66 4.12,-80.06 0.19,-84.6 -1.92,-87.17 -0.39,-87.8 3.77,-86.66 9.28,-84.21 14.76,-81.51 18.45,-79.84 18.84,-79.83 15.96,-80.8 11.98,-80.9 10.13,-78.35 11.83,-73.06 13.83,-67.46 8.3,-65.69 -10.39,-70.48 -31.67,-79.9 -24.69,-92.46" fill="none" stroke="url(#rainbowGradient)" stroke-width="2" stroke-linejoin="round" filter="url(#fuzzy)" /><polyline points="58.34,-67.77 11.72,-82.7 9.94,-84.76 18.46,-79 22.39,-72.64 19.34,-69.57 13.43,-69.68 9.27,-70.94 8.61,-71.56 9.94,-71.18 10.25,-70.65 7.55,-71.08 2.42,-72.88 -2.11,-75.42 -2.49,-77.39 3.06,-77.66 13.19,-76.04 23.85,-73.72 30.36,-72.65 30.3,-74.14 25.41,-77.42 20.69,-80.23 18.27,-82.88 -6.17,-96.77" fill="none" stroke="url(#rainbowGradient)" stroke-width="2" stroke-linejoin="round" filter="url(#fuzzy)" /><polyline points="-12.84,-95.95 9.13,-70.45 -9.12,-69.77 -23.01,-74.22 -28.35,-78.56 -29.26,-81.68 -28.85,-83.48 -27.35,-84.19 -23.38,-84.14 -16.07,-83.54 -6.41,-82.59 2.79,-81.61 8.29,-81.04 8.23,-81.29 3.37,-82.46 -2.93,-84.24 -6.41,-86.02 -4.04,-87.05 4.45,-86.74 16.39,-85.09 27.14,-83.41 31.06,-84.41 23.03,-89.71 -0.16,-97.05" fill="none" stroke="url(#rainbowGradient)" stroke-width="2" stroke-linejoin="round" filter="url(#fuzzy)" /><polyline points="-6.67,-96.84 -4.88,-96.93 -2.19,-96.97 0.6,-96.95 3.29,-96.85 5.92,-96.69 8.58,-96.46 11.33,-96.13 14.2,-95.72 17.14,-95.2 20.1,-94.6 23.03,-93.91 25.92,-93.15 28.82,-92.32 31.78,-91.43 34.82,-90.49 37.96,-89.48 41.2,-88.4 44.54,-87.23 48,-85.97 51.59,-84.6 55.27,-83.1 58.91,-81.51 62.34,-79.83 65.43,-78.11 68.21,-76.4 70.97,-74.7 74.18,-73 78.21,-71.15 82.94,-68.51" fill="none" stroke="url(#rainbowGradient)" stroke-width="2" stroke-linejoin="round" filter="url(#fuzzy)" /><polyline points="-14.44,-95.36 -14.12,-95.74 -12.26,-96.09 -9.72,-96.39 -7.03,-96.61 -4.3,-96.75 -1.52,-96.82 1.39,-96.81 4.44,-96.72 7.63,-96.55 10.99,-96.28 14.51,-95.92 18.21,-95.47 22.08,-94.93 26.12,-94.3 30.38,-93.59 34.89,-92.79 39.7,-91.91 44.78,-90.96 50.06,-89.94 55.41,-88.85 60.71,-87.69 65.83,-86.46 70.73,-85.13 75.45,-83.72 80.15,-82.2 85.09,-80.6 90.51,-78.92 96.48,-77.2 102.73,-75.48 108.69,-73.85 113.45,-72.4 114.69,-71.25" fill="none" stroke="url(#rainbowGradient)" stroke-width="2" stroke-linejoin="round" filter="url(#fuzzy)" /><polyline points="-20.38,-93.9 -20.11,-94.62 -18.54,-95.2 -16.22,-95.69 -13.24,-96.1 -9.91,-96.41 -6.52,-96.63 -3.23,-96.76 -0.05,-96.79 3.08,-96.73 6.24,-96.6 9.51,-96.37 12.93,-96.06 16.51,-95.66 20.27,-95.17 24.17,-94.59 28.15,-93.92 32.13,-93.18 36.05,-92.37 39.91,-91.49 43.76,-90.56 47.75,-89.55 52.01,-88.48 56.66,-87.32 61.7,-86.07 67.02,-84.71 72.47,-83.22 77.94,-81.62 83.46,-79.93 89.17,-78.2 95.11,-76.47 100.83,-74.79 105.19,-73.27 107.64,-72.15" fill="none" stroke="url(#rainbowGradient)" stroke-width="2" stroke-linejoin="round" filter="url(#fuzzy)" /><polyline points="-24.69,-92.46 -22.85,-93.12 -20.98,-93.83 -18.99,-94.5 -16.81,-95.09 -14.41,-95.59 -11.78,-96.01 -8.95,-96.33 -6,-96.56 -2.96,-96.69 0.12,-96.73 3.25,-96.68 6.48,-96.55 9.82,-96.33 13.28,-96.02 16.84,-95.62 20.49,-95.13 24.19,-94.55 27.97,-93.88 31.87,-93.14 35.95,-92.33 40.24,-91.45 44.72,-90.51 49.31,-89.49 53.96,-88.41 58.67,-87.23 63.5,-85.97 68.55,-84.59 73.88,-83.1 79.39,-81.51 84.96,-79.84 90.54,-78.13 96.23,-76.4 102.26,-74.66 108.76,-72.88 115.83,-71 123.67,-68.9 131.02,-66.82" fill="none" stroke="url(#rainbowGradient)" stroke-width="2" stroke-linejoin="round" filter="url(#fuzzy)" /><polyline points="-32.04,-89.29 -31.24,-89.94 -29.2,-90.88 -26.93,-91.76 -24.54,-92.59 -22.07,-93.37 -19.59,-94.11 -17.15,-94.75 -14.78,-95.31 -12.43,-95.76 -10.07,-96.12 -7.66,-96.39 -5.18,-96.58 -2.62,-96.69 0.04,-96.71 2.79,-96.66 5.65,-96.52 8.61,-96.29 11.7,-95.97 14.91,-95.56 18.25,-95.07 21.69,-94.48 25.22,-93.81 28.76,-93.04 32.26,-92.19 35.62,-91.26 38.78,-90.27 41.77,-89.23 44.75,-88.13 48,-86.96 51.73,-85.68 55.82,-84.25 59.51,-82.57" fill="none" stroke="url(#rainbowGradient)" stroke-width="2" stroke-linejoin="round" filter="url(#fuzzy)" /><polyline points="-35.56,-87.68 -40.35,-89.09 -37.1,-90.24 -33.13,-91.21 -30.06,-92.07 -27.78,-92.86 -25.95,-93.6 -24.21,-94.27 -22.2,-94.88 -19.67,-95.41 -16.54,-95.87 -12.9,-96.24 -8.97,-96.53 -4.95,-96.72 -0.95,-96.82 3.04,-96.84 7.1,-96.77 11.32,-96.64 15.79,-96.42 20.57,-96.14 25.64,-95.78 31.06,-95.36 37.81,-94.75" fill="none" stroke="url(#rainbowGradient)" stroke-width="2" stroke-linejoin="round" filter="url(#fuzzy)" /><polyline points="-39.3,-85.09 -36.92,-86.72 -34.93,-87.93 -32.88,-89.06 -30.77,-90.11 -28.62,-91.08 -26.46,-91.97 -24.31,-92.78 -22.14,-93.53 -19.9,-94.21 -17.57,-94.82 -15.09,-95.36 -12.46,-95.82 -9.7,-96.19 -6.84,-96.48 -3.95,-96.67 -1.08,-96.77 1.72,-96.78 4.45,-96.72 7.11,-96.57 9.76,-96.35 12.44,-96.05 15.17,-95.65 18.05,-95.16 21.24,-94.52 24.98,-93.66 29.17,-92.5" fill="none" stroke="url(#rainbowGradient)" stroke-width="2" stroke-linejoin="round" filter="url(#fuzzy)" /><polyline points="-42.78,-82.66 -41.4,-83.8 -39.37,-85.32 -37.54,-86.88 -35.87,-88.29 -34.01,-89.51 -31.86,-90.57 -29.51,-91.53 -27.09,-92.4 -24.67,-93.2 -22.29,-93.94 -19.92,-94.6 -17.51,-95.16 -15,-95.64 -12.35,-96.03 -9.52,-96.33 -6.49,-96.54 -3.27,-96.67 0.13,-96.72 3.67,-96.68 7.35,-96.57 11.14,-96.36 15.06,-96.07 19.1,-95.68 23.28,-95.21 27.6,-94.65 32.07,-94 36.75,-93.25 41.66,-92.4 46.68,-91.45 51.51,-90.46 55.82,-89.51 58.83,-88.73" fill="none" stroke="url(#rainbowGradient)" stroke-width="2" stroke-linejoin="round" filter="url(#fuzzy)" /><polyline points="79.86,-21.49 80.7,-17.35 81.59,-14.38 82.43,-11.76 83.43,-9.17 84.92,-6.49 86.99,-3.7 89.29,-0.8 91.27,2.14 92.49,5.08 92.88,7.98 92.71,10.82 92.42,13.62 92.41,16.37 92.85,19.09 93.74,21.8 94.98,24.51 96.4,27.22 97.88,29.94 99.24,32.65 100.21,35.39 100.51,38.17 100.01,41 98.9,43.86 97.68,46.69 96.9,49.49 96.84,52.39 97.11,55.86" fill="none" stroke="url(#rainbowGradient)" stroke-width="2" stroke-linejoin="round" filter="url(#fuzzy)" /><polyline points="-48.99,-77.61 -48.53,-79.41 -48.92,-81.39 -49.13,-83.2 -48.34,-84.82 -46.59,-86.27 -44.38,-87.58 -42.12,-88.77 -39.88,-89.86 -37.56,-90.87 -34.99,-91.79 -32.12,-92.63 -29.02,-93.4 -25.8,-94.09 -22.56,-94.72 -19.31,-95.27 -16.02,-95.74 -12.63,-96.13 -9.06,-96.42 -5.3,-96.63 -1.35,-96.74 2.74,-96.77 6.93,-96.71 11.17,-96.57 15.46,-96.35 19.85,-96.05 24.46,-95.66 29.47,-95.16 35.16,-94.52 41.66,-93.66 49.06,-92.5" fill="none" stroke="url(#rainbowGradient)" stroke-width="2" stroke-linejoin="round" filter="url(#fuzzy)" /><polyline points="-49.7,-76.81 -51.23,-77.9 -54.2,-79.52 -54.61,-81.31 -52.56,-83.06 -49.84,-84.67 -47.53,-86.13 -45.72,-87.45 -44.09,-88.66 -42.4,-89.77 -40.54,-90.78 -38.43,-91.71 -36.02,-92.56 -33.24,-93.34 -30.12,-94.05 -26.72,-94.7 -23.12,-95.27 -19.37,-95.77 -15.44,-96.19 -11.31,-96.52 -6.92,-96.75 -2.29,-96.89 2.48,-96.92 7.15,-96.87 11.56,-96.79 16.17,-96.77" fill="none" stroke="url(#rainbowGradient)" stroke-width="2" stroke-linejoin="round" filter="url(#fuzzy)" /><polyline points="-53,-74.19 -53.17,-76.18 -53.48,-77.81 -52.49,-79.51 -50.89,-81.27 -49.23,-82.98 -47.73,-84.58 -46.26,-86.05 -44.52,-87.39 -42.22,-88.61 -39.32,-89.73 -36.02,-90.75 -32.63,-91.68 -29.41,-92.54 -26.48,-93.32 -23.82,-94.04 -21.32,-94.68 -18.8,-95.26 -16.09,-95.75 -13.06,-96.17 -9.65,-96.49 -5.92,-96.72 -2.05,-96.85 1.78,-96.89 5.41,-96.85 8.84,-96.77 12.28,-96.66 15.98,-96.46" fill="none" stroke="url(#rainbowGradient)" stroke-width="2" stroke-linejoin="round" filter="url(#fuzzy)" /><polyline points="79.58,-22.21 83.76,-19.65 84.14,-16.79 85.12,-13.86 87.08,-10.95 89.34,-8.06 91.23,-5.11 92.47,-2.09 93.02,0.97 93.07,4.05 92.94,7.1 92.96,10.09 93.41,13.02 94.4,15.9 95.91,18.74 97.81,21.56 99.93,24.38 102.09,27.19 104.17,30.02 106.08,32.84 107.73,35.64 109.05,38.4 109.9,41.12 110.13,43.78 109.68,46.36 108.63,48.88 107.22,51.33 105.79,53.72 104.61,56.09 103.76,58.46 103.11,60.88 102.47,63.32 101.62,65.73 100.17,68 97.54,70.14 94.32,71.98" fill="none" stroke="url(#rainbowGradient)" stroke-width="2" stroke-linejoin="round" filter="url(#fuzzy)" /><polyline points="-62.95,-61.82 -61.22,-64.27 -59.85,-66.4 -58.89,-68.52 -58.44,-70.52 -58.28,-72.38 -58.14,-74.14 -57.8,-75.85 -57.11,-77.54 -56.02,-79.24 -54.52,-80.93 -52.7,-82.58 -50.64,-84.16 -48.41,-85.66 -46.06,-87.04 -43.61,-88.31 -41.11,-89.47 -38.61,-90.54 -36.18,-91.51 -33.82,-92.4 -31.46,-93.21 -28.99,-93.95 -26.28,-94.62 -23.24,-95.22 -19.81,-95.74 -15.98,-96.19 -11.8,-96.55 -7.34,-96.81 -2.64,-96.97 2.31,-97 7.06,-96.77" fill="none" stroke="url(#rainbowGradient)" stroke-width="2" stroke-linejoin="round" filter="url(#fuzzy)" /><polyline points="-67.63,-54.7 -69.77,-51.85 -72.35,-49.59 -75.05,-47.21 -77.61,-44.66 -80.06,-41.99 -82.61,-39.25 -85.65,-36.51 -89.48,-33.8 -94.06,-31.11 -98.86,-28.4 -103.11,-25.6 -106.15,-22.66 -107.82,-19.62 -108.59,-16.56 -109.23,-13.56 -110.41,-10.7 -112.34,-7.99 -114.91,-5.41 -118.12,-2.88 -122.22,-0.26 -127.49,2.77 -134.9,6.81" fill="none" stroke="url(#rainbowGradient)" stroke-width="2" stroke-linejoin="round" filter="url(#fuzzy)" /><polyline points="-69.6,-50.68 -72.78,-49.44 -75.44,-47.18 -76.67,-44.6 -77.87,-41.89 -79.71,-39.13 -82.12,-36.38 -84.94,-33.67 -88.08,-30.98 -91.56,-28.27 -95.29,-25.46 -99.12,-22.52 -102.94,-19.49 -106.78,-16.43 -110.65,-13.45 -114.43,-10.6 -117.87,-7.88 -120.81,-5.27 -123.42,-2.68 -126.05,0.01 -128.85,2.96 -131.96,6.17 -136.35,9.04" fill="none" stroke="url(#rainbowGradient)" stroke-width="2" stroke-linejoin="round" filter="url(#fuzzy)" /><polyline points="-73.83,-41.83 -79.01,-38.75 -84.92,-35.76 -88.52,-33 -91.68,-30.38 -95.45,-27.71 -99.15,-24.88 -101.71,-21.89 -102.78,-18.81 -102.72,-15.76 -102.23,-12.8 -101.98,-9.96 -102.43,-7.21 -103.87,-4.5 -106.32,-1.77 -109.46,1.02 -112.69,3.89 -115.35,6.82 -117.1,9.8 -118.14,12.78 -119.16,15.77 -120.75,18.71 -122.91,21.53 -125.17,24.13 -127.89,26.59 -132.61,29.98" fill="none" stroke="url(#rainbowGradient)" stroke-width="2" stroke-linejoin="round" filter="url(#fuzzy)" /><polyline points="-74.25,-40.33 -75.54,-37.28 -77,-34.31 -78.64,-31.66 -80.27,-29.18 -81.78,-26.64 -83.25,-23.87 -84.95,-20.85 -87.07,-17.67 -89.66,-14.44 -92.48,-11.27 -95.17,-8.19 -97.39,-5.24 -99,-2.37 -100.08,0.44 -100.91,3.21 -101.79,5.95 -102.92,8.68 -104.35,11.42 -106.05,14.18 -107.89,16.99 -109.68,19.84 -111.19,22.69 -112.21,25.53 -112.72,28.36 -113.03,31.25 -113.72,34.26 -115.22,37.32 -116.96,40.05 -117.45,41.97" fill="none" stroke="url(#rainbowGradient)" stroke-width="2" stroke-linejoin="round" filter="url(#fuzzy)" /><polyline points="-76.34,-35.31 -77.16,-32.47 -77.97,-30.08 -78.96,-27.54 -80.16,-24.7 -81.45,-21.63 -82.59,-18.47 -83.42,-15.38 -83.9,-12.41 -84.12,-9.57 -84.22,-6.81 -84.33,-4.08 -84.53,-1.31 -84.83,1.51 -85.22,4.4 -85.66,7.34 -86.09,10.31 -86.44,13.27 -86.67,16.22 -86.73,19.12 -86.59,21.98 -86.28,24.82 -85.78,27.68 -85.13,30.6 -84.32,33.58 -83.36,36.59 -82.33,39.49 -81.42,42.13 -80.88,44.35 -81.28,45.71" fill="none" stroke="url(#rainbowGradient)" stroke-width="2" stroke-linejoin="round" filter="url(#fuzzy)" /><polyline points="77.37,-31.54 78.27,-28.1 79.38,-24.77 80.52,-21.4 81.66,-18.15 82.96,-15.12 84.53,-12.27 86.32,-9.52 88.1,-6.77 89.62,-3.96 90.71,-1.09 91.34,1.82 91.59,4.74 91.57,7.64 91.36,10.49 91.03,13.3 90.7,16.05 90.51,18.78 90.63,21.49 91.19,24.2 92.15,26.91 93.38,29.62 94.63,32.31 95.63,35.01 96.07,37.77 95.62,40.66 94.32,43.68 93.46,46.87" fill="none" stroke="url(#rainbowGradient)" stroke-width="2" stroke-linejoin="round" filter="url(#fuzzy)" /><polyline points="78.03,-29.87 86.17,-27.92 91.05,-25.69 93.81,-23 94.56,-20.11 93.82,-17.15 92.47,-14.2 91.31,-11.27 90.82,-8.34 91.23,-5.38 92.61,-2.38 94.9,0.66 97.87,3.72 101.2,6.75 104.53,9.74 107.55,12.68 110.07,15.56 112.02,18.4 113.45,21.22 114.44,24.03 115.09,26.84 115.53,29.67 115.84,32.49 116,35.31 115.97,38.1 115.64,40.84 115.02,43.52 114.2,46.12 113.3,48.65 112.45,51.11 111.76,53.48 111.42,55.65 111.63,57.41 112.44,58.2" fill="none" stroke="url(#rainbowGradient)" stroke-width="2" stroke-linejoin="round" filter="url(#fuzzy)" /><polyline points="76.66,-33.63 77.69,-31.09 78.84,-28.07 79.87,-24.83 80.84,-21.53 81.82,-18.32 82.78,-15.29 83.64,-12.42 84.32,-9.64 84.8,-6.87 85.09,-4.06 85.26,-1.2 85.36,1.71 85.41,4.63 85.43,7.53 85.39,10.38 85.33,13.19 85.24,15.95 85.15,18.68 85.02,21.39 84.85,24.1 84.64,26.81 84.43,29.52 84.26,32.19 84.1,34.86 83.83,37.6 83.26,40.49 82.31,43.32" fill="none" stroke="url(#rainbowGradient)" stroke-width="2" stroke-linejoin="round" filter="url(#fuzzy)" /><polyline points="68,-53.73 65.12,-51.15 63.54,-49.31 64.93,-47.09 66.86,-44.53 68.2,-41.87 68.93,-39.21 69.36,-36.57 69.59,-33.9 69.52,-31.14 69.05,-28.27 68.17,-25.29 67.08,-22.24 66.05,-19.18 65.29,-16.17 64.83,-13.23 64.53,-10.35 64.2,-7.51 63.75,-4.66 63.18,-1.79 62.58,1.12 61.94,4.05 61.15,6.97 59.98,9.86 58.22,12.69 55.75,15.47 52.64,18.19 49.17,20.88 45.83,23.62 43.24,26.45 41.39,29.23 38.24,31.38" fill="none" stroke="url(#rainbowGradient)" stroke-width="2" stroke-linejoin="round" filter="url(#fuzzy)" /><polyline points="64.66,-59.32 65.87,-57.33 68.12,-54.56 71.45,-52.01 76.08,-49.65 81.32,-47.26 86.29,-44.75 90.72,-42.16 94.91,-39.55 99.26,-36.94 103.86,-34.31 108.4,-31.6 112.36,-28.77 115.37,-25.82 117.35,-22.77 118.62,-19.69 119.71,-16.65 121.04,-13.72 122.67,-10.91 124.31,-8.18 125.68,-5.45 127.02,-2.6 129.31,0.45 133.45,3.57 138.78,6.2 142.24,7.28" fill="none" stroke="url(#rainbowGradient)" stroke-width="2" stroke-linejoin="round" filter="url(#fuzzy)" /><polyline points="61.44,-63.85 64.05,-62.14 68.51,-59.86 72.01,-57.62 73.94,-55.37 75.22,-53.02 76.89,-50.57 79.48,-48.04 82.9,-45.46 86.75,-42.83 90.6,-40.17 94.09,-37.47 97,-34.76 99.27,-32.04 100.98,-29.32 102.44,-26.59 104.11,-23.84 106.46,-21.05 109.72,-18.21 113.8,-15.35 118.26,-12.45 122.47,-9.53 125.93,-6.58 128.41,-3.59 130.07,-0.56 131.33,2.51 132.74,5.59 134.84,8.65 137.96,11.64 141.95,14.55 145.97,17.36 148.81,20.06 149.59,22.72 148.88,25.27" fill="none" stroke="url(#rainbowGradient)" stroke-width="2" stroke-linejoin="round" filter="url(#fuzzy)" /><polyline points="58.34,-67.77 60.69,-64.8 62.71,-62.37 64.82,-60.06 67.09,-57.81 69.57,-55.57 72.17,-53.25 74.69,-50.84 76.89,-48.36 78.69,-45.82 80.22,-43.24 81.72,-40.62 83.43,-37.95 85.49,-35.25 87.83,-32.55 90.23,-29.88 92.4,-27.24 94.12,-24.58 95.36,-21.85 96.31,-19.02 97.33,-16.11 98.67,-13.2 100.38,-10.41 102.46,-7.82 105.1,-5.34" fill="none" stroke="url(#rainbowGradient)" stroke-width="2" stroke-linejoin="round" filter="url(#fuzzy)" /><polyline points="38.12,-86.07 40.67,-84.46 43,-82.86 45.52,-81.21 48.28,-79.49 51.16,-77.75 54.01,-75.98 56.75,-74.17 59.36,-72.26 61.89,-70.21 64.42,-68.03 67,-65.74 69.63,-63.39 72.24,-61.02 74.73,-58.66 77.06,-56.3 79.26,-53.93 81.47,-51.52 83.9,-49.05 86.73,-46.54 89.97,-43.97 93.42,-41.35 96.73,-38.67 99.55,-35.93 101.86,-33.18 104,-30.5 106.4,-27.94 109.2,-25.41 112.38,-22.62 116.16,-19.68" fill="none" stroke="url(#rainbowGradient)" stroke-width="2" stroke-linejoin="round" filter="url(#fuzzy)" /><polyline points="29.43,-90.43 33.39,-89.02 37.68,-87.95 41.34,-86.82 44.51,-85.51 47.87,-84.03 51.82,-82.42 56.31,-80.74 61.1,-79.02 65.94,-77.29 70.64,-75.53 75,-73.73 78.84,-71.87 82,-69.92 84.46,-67.89 86.44,-65.77 88.37,-63.57 90.79,-61.28 93.98,-58.88 97.78,-56.39 101.56,-53.9 104.86,-51.55 108.27,-49.43 113.23,-47.27 118.35,-44.35" fill="none" stroke="url(#rainbowGradient)" stroke-width="2" stroke-linejoin="round" filter="url(#fuzzy)" /><polyline points="17.76,-94.75 21.18,-93.83 23.67,-92.95 25.87,-92.1 28.15,-91.2 30.6,-90.21 33.09,-89.15 35.54,-88 37.9,-86.76 40.24,-85.42 42.63,-83.96 45.09,-82.4 47.61,-80.75 50.15,-79.05 52.67,-77.31 55.14,-75.51 57.57,-73.67 59.95,-71.76 62.29,-69.78 64.52,-67.71 66.63,-65.56 68.59,-63.33 70.47,-61.01 72.34,-58.62 74.31,-56.19 76.4,-53.72 78.58,-51.26 80.72,-48.77 82.67,-46.25 84.34,-43.66 85.76,-41.02 87.13,-38.39 88.73,-35.88 90.62,-33.58 92.08,-31.54" fill="none" stroke="url(#rainbowGradient)" stroke-width="2" stroke-linejoin="round" filter="url(#fuzzy)" /><polyline points="6.1,-96.63 8.53,-96.44 11,-96.08 13.73,-95.56 16.56,-94.96 19.33,-94.29 22.02,-93.53 24.61,-92.69 27.1,-91.76 29.56,-90.76 32.04,-89.71 34.62,-88.58 37.34,-87.39 40.19,-86.12 43.11,-84.76 45.99,-83.3 48.76,-81.77 51.36,-80.16 53.81,-78.49 56.15,-76.78 58.44,-75.02 60.74,-73.19 63.12,-71.26 65.67,-69.16 68.47,-66.88 71.55,-64.45 74.75,-61.95 77.65,-59.54 79.69,-57.51 80.13,-56.81" fill="none" stroke="url(#rainbowGradient)" stroke-width="2" stroke-linejoin="round" filter="url(#fuzzy)" /><polyline points="3.9,-96.77 5.88,-96.72 8.28,-96.55 10.92,-96.24 13.56,-95.81 16.17,-95.28 18.86,-94.66 21.8,-93.95 25.12,-93.17 28.82,-92.34 32.81,-91.47 36.88,-90.53 40.84,-89.54 44.56,-88.48 48.06,-87.35 51.47,-86.13 54.93,-84.78 58.51,-83.29 62.18,-81.68 65.9,-79.98 69.62,-78.25 73.11,-76.52 75.81,-74.34" fill="none" stroke="url(#rainbowGradient)" stroke-width="2" stroke-linejoin="round" filter="url(#fuzzy)" />
    </g>
    
        <g id="lineNose">
        <path d="M -12.11,31.35 Q 13.49, 42.825 0.6900000000000004, -5.618" fill="none" stroke="black" stroke-width="3" stroke-linejoin="round" filter="url(#fuzzy)"></path>
        </g>
      
    <g id="mouth">
      <polyline points="-17.94,82.61 -17.41,81.87 -16.88,81.14 -16.35,80.4 -15.82,79.67 -15.28,78.94 -14.75,78.21 -14.21,77.49 -13.67,76.76 -13.14,76.05 -12.6,75.33 -12.06,74.62 -11.52,73.92 -10.97,73.22 -10.43,72.52 -9.89,71.84 -9.35,71.15 -8.81,70.48 -8.27,69.81 -7.73,69.16 -7.19,68.5 -6.65,67.86 -6.11,67.23 -5.57,66.61 -5.03,65.99 -4.49,65.39 -3.96,64.8 -3.42,64.21 -2.89,63.64 -2.36,63.08 -1.83,62.54 -1.3,62 -0.77,61.48 -0.25,60.98 0.28,60.48 0.8,60 1.32,59.54 1.83,59.09 2.35,58.65 2.86,58.24 3.37,57.83 3.87,57.45 4.38,57.08 4.88,56.73 5.37,56.4 5.87,56.08 6.36,55.79 6.84,55.51 7.33,55.25 7.81,55.02 8.28,54.8 8.76,54.6 9.22,54.43 9.69,54.28 10.15,54.14 10.6,54.04 11.05,53.95 11.5,53.89 11.94,53.85 12.38,53.83 12.81,53.84 13.24,53.87 13.66,53.93 14.07,54.02 14.49,54.13 14.89,54.27 15.29,54.43 15.68,54.62 16.07,54.84 16.45,55.09 16.83,55.36 17.2,55.67 17.56,56 17.92,56.36 18.27,56.76 18.62,57.18 18.95,57.63 19.28,58.12 19.61,58.64 19.92,59.19 20.23,59.77 20.53,60.38 20.83,61.03 21.11,61.71 21.39,62.43 21.66,63.18 21.93,63.97 22.18,64.79 22.43,65.64 22.67,66.54 22.9,67.47 23.12,68.43 23.33,69.44 23.54,70.48 23.74,71.56 23.92,72.68 24.1,73.83 24.27,75.03 24.43,76.27 24.58,77.54 24.58,77.54 24.15,76.56 23.73,75.61 23.3,74.68 22.88,73.79 22.45,72.93 22.03,72.1 21.6,71.3 21.18,70.53 20.75,69.78 20.33,69.07 19.9,68.38 19.48,67.73 19.05,67.1 18.63,66.5 18.2,65.92 17.78,65.37 17.35,64.85 16.93,64.36 16.5,63.89 16.08,63.45 15.65,63.03 15.23,62.64 14.8,62.27 14.37,61.93 13.95,61.61 13.52,61.31 13.1,61.04 12.67,60.79 12.25,60.56 11.82,60.36 11.4,60.18 10.97,60.02 10.55,59.88 10.12,59.77 9.7,59.67 9.27,59.59 8.85,59.54 8.42,59.51 8,59.49 7.57,59.49 7.15,59.52 6.72,59.56 6.3,59.62 5.87,59.7 5.45,59.79 5.02,59.91 4.6,60.04 4.17,60.19 3.74,60.35 3.32,60.53 2.89,60.73 2.47,60.94 2.04,61.16 1.62,61.41 1.19,61.66 0.77,61.93 0.34,62.22 -0.08,62.52 -0.51,62.83 -0.93,63.15 -1.36,63.49 -1.78,63.84 -2.21,64.2 -2.63,64.57 -3.06,64.96 -3.48,65.36 -3.91,65.76 -4.33,66.18 -4.76,66.61 -5.18,67.05 -5.61,67.49 -6.03,67.95 -6.46,68.41 -6.88,68.89 -7.31,69.37 -7.74,69.86 -8.16,70.36 -8.59,70.86 -9.01,71.37 -9.44,71.89 -9.86,72.42 -10.29,72.95 -10.71,73.49 -11.14,74.03 -11.56,74.58 -11.99,75.13 -12.41,75.68 -12.84,76.25 -13.26,76.81 -13.69,77.38 -14.11,77.95 -14.54,78.52 -14.96,79.1 -15.39,79.68 -15.81,80.26 -16.24,80.84 -16.66,81.43 -17.09,82.01 -17.51,82.6" fill="rgb(215,127,140)" stroke="black" stroke-width="3" stroke-linejoin="round" filter="url(#fuzzy)" />
    </g>
  </svg>