<svg viewBox="-100 -100 200 200" xmlns="http://www.w3.org/2000/svg" width="500" height="500" id="face-svg">
    <defs>
      <clipPath id="leftEyeClipPath">
        <polyline points="29.16,3 28.78,2.75 28.38,2.49 27.94,2.23 27.48,1.95 26.99,1.67 26.47,1.38 25.92,1.08 25.35,0.77 24.75,0.45 24.13,0.13 23.48,-0.19 22.81,-0.53 22.11,-0.86 21.4,-1.21 20.66,-1.55 19.92,-1.9 19.14,-2.27 18.32,-2.65 17.47,-3.04 16.58,-3.43 15.66,-3.83 14.71,-4.24 13.74,-4.65 12.73,-5.06 11.71,-5.47 10.66,-5.88 9.6,-6.28 8.52,-6.68 7.43,-7.07 6.34,-7.44 5.23,-7.8 4.12,-8.15 3.01,-8.49 1.9,-8.8 0.8,-9.1 -0.3,-9.38 -1.39,-9.63 -2.46,-9.87 -3.52,-10.08 -4.57,-10.26 -5.6,-10.42 -6.6,-10.56 -7.59,-10.67 -8.55,-10.75 -9.48,-10.81 -10.39,-10.84 -11.27,-10.85 -12.12,-10.82 -12.94,-10.78 -13.73,-10.71 -14.49,-10.61 -15.21,-10.49 -15.9,-10.35 -16.56,-10.18 -17.19,-10 -17.78,-9.79 -18.34,-9.57 -18.86,-9.33 -19.36,-9.07 -19.82,-8.8 -20.25,-8.52 -20.66,-8.22 -21.03,-7.92 -21.38,-7.61 -21.71,-7.3 -22,-6.98 -22.28,-6.65 -22.52,-6.32 -22.74,-5.97 -22.94,-5.62 -23.11,-5.27 -23.26,-4.91 -23.38,-4.54 -23.49,-4.18 -23.57,-3.81 -23.62,-3.44 -23.66,-3.07 -23.68,-2.69 -23.68,-2.32 -21.4,0.37 -20.93,0.74 -20.45,1.1 -19.96,1.46 -19.45,1.82 -18.93,2.16 -18.41,2.5 -17.87,2.83 -17.31,3.16 -16.75,3.47 -16.18,3.79 -15.6,4.09 -15,4.39 -14.4,4.68 -13.79,4.97 -13.16,5.25 -12.53,5.52 -11.88,5.79 -11.21,6.06 -10.54,6.31 -9.85,6.57 -9.16,6.82 -8.45,7.06 -7.74,7.3 -7.01,7.53 -6.28,7.76 -5.53,7.98 -4.78,8.2 -4.03,8.41 -3.26,8.61 -2.5,8.81 -1.72,9 -0.94,9.18 -0.16,9.36 0.62,9.53 1.41,9.69 2.2,9.85 2.99,9.99 3.78,10.13 4.57,10.26 5.36,10.38 6.15,10.49 6.93,10.6 7.72,10.69 8.5,10.77 9.27,10.84 10.05,10.9 10.82,10.95 11.58,10.98 12.34,11.01 13.09,11.02 13.83,11.02 14.57,11 15.3,10.98 16.02,10.93 16.73,10.88 17.43,10.81 18.13,10.73 18.81,10.63 19.48,10.53 20.15,10.4 20.8,10.27 21.44,10.12 22.07,9.95 22.68,9.78 23.22,9.68 23.75,9.57 24.27,9.45 24.77,9.33 25.27,9.21 25.75,9.08 26.22,8.94 26.67,8.8 27.11,8.66 27.54,8.51 27.95,8.36 28.34,8.21 28.71,8.06 29.07,7.9 29.41,7.75" />
      </clipPath>
      <clipPath id="rightEyeClipPath">
        <polyline points="-24.88,2.73 -24.41,2.49 -23.9,2.23 -23.37,1.97 -22.82,1.71 -22.23,1.43 -21.62,1.15 -20.99,0.87 -20.34,0.58 -19.66,0.29 -18.97,-0.01 -18.25,-0.31 -17.52,-0.62 -16.76,-0.92 -15.99,-1.23 -15.2,-1.53 -14.36,-1.88 -13.49,-2.23 -12.6,-2.58 -11.68,-2.94 -10.73,-3.3 -9.76,-3.65 -8.78,-4.01 -7.77,-4.36 -6.75,-4.71 -5.72,-5.05 -4.68,-5.38 -3.63,-5.7 -2.57,-6.01 -1.51,-6.31 -0.45,-6.6 0.6,-6.87 1.66,-7.13 2.71,-7.37 3.75,-7.59 4.77,-7.8 5.79,-7.98 6.79,-8.15 7.77,-8.29 8.73,-8.41 9.68,-8.52 10.59,-8.6 11.49,-8.65 12.36,-8.69 13.2,-8.71 14.01,-8.7 14.79,-8.67 15.54,-8.62 16.26,-8.55 16.94,-8.46 17.59,-8.35 18.21,-8.22 18.79,-8.07 19.33,-7.9 19.84,-7.72 20.32,-7.52 20.76,-7.31 21.16,-7.08 21.53,-6.84 21.86,-6.59 22.16,-6.33 22.43,-6.06 22.67,-5.79 22.88,-5.51 23.05,-5.22 23.2,-4.93 23.32,-4.64 23.41,-4.34 23.47,-4.03 23.5,-3.72 23.5,-3.41 23.47,-3.09 23.42,-2.77 23.34,-2.45 23.23,-2.13 23.09,-1.81 22.93,-1.48 22.74,-1.16 22.53,-0.83 22.3,-0.51 20.74,-0.3 20.14,0.09 19.53,0.47 18.91,0.84 18.27,1.19 17.62,1.54 16.95,1.88 16.27,2.22 15.58,2.54 14.88,2.85 14.17,3.16 13.44,3.45 12.71,3.74 11.96,4.01 11.21,4.28 10.44,4.54 9.66,4.8 8.87,5.04 8.06,5.28 7.25,5.51 6.42,5.73 5.59,5.95 4.75,6.16 3.9,6.36 3.04,6.55 2.18,6.73 1.32,6.91 0.46,7.08 -0.41,7.24 -1.27,7.39 -2.14,7.54 -3,7.68 -3.86,7.81 -4.71,7.93 -5.56,8.05 -6.4,8.16 -7.23,8.26 -8.06,8.35 -8.87,8.44 -9.68,8.52 -10.47,8.59 -11.25,8.65 -12.01,8.71 -12.77,8.75 -13.51,8.8 -14.23,8.83 -14.94,8.86 -15.63,8.87 -16.3,8.89 -16.96,8.89 -17.6,8.89 -18.22,8.87 -18.82,8.86 -19.41,8.83 -19.98,8.8 -20.52,8.75 -21.05,8.71 -21.56,8.65 -22.06,8.59 -22.53,8.52 -22.99,8.44 -23.42,8.35 -23.84,8.26 -24.25,8.16 -24.63,8.06 -24.99,7.99 -25.34,7.92 -25.67,7.84 -25.99,7.76 -26.3,7.67 -26.59,7.59 -26.86,7.5 -27.12,7.4 -27.37,7.31 -27.6,7.21 -27.81,7.11 -28.01,7 -28.19,6.9 -28.36,6.79 -28.51,6.68" />
      </clipPath>
      <filter id="fuzzy">
        <feTurbulence id="turbulence" baseFrequency="0.05" numOctaves="3" type="noise" result="noise" />
        <feDisplacementMap in="SourceGraphic" in2="noise" scale="2" />
      </filter>
      <linearGradient id="rainbowGradient" x1="0%" y1="0%" x2="100%" y2="0%">
        <stop offset="0%" style="stop-color: [object Object]; stop-opacity: 1" />
        <stop offset="50%" style="stop-color: [object Object]; stop-opacity: 1" />
        <stop offset="100%" style="stop-color: [object Object]; stop-opacity: 1" />
      </linearGradient>
    </defs>
    <rect x="-100" y="-100" width="100%" height="100%" fill="rgb(230, 230, 250)" />
    <polyline id="faceContour" points="67.92,2.45 68.04,1.08 67.95,4.81 67.97,3.22 67.9,6.51 67.91,6.72 67.86,8.52 67.5,10.07 67.7,9.29 67.28,12.24 67.34,13.07 67.09,15.25 66.89,15.65 66.65,18.61 66.05,20.7 66.18,20.56 66.02,21.41 65.67,23.85 65.69,23.61 65.19,25.7 64.87,26.35 64.7,28.03 64.2,28.9 63.84,30.82 63.31,32.11 63.34,32.18 62.71,34.5 61.81,36.58 61.87,37.15 61.01,38.9 60.67,39.73 60.44,40.96 59.57,42.44 59.39,43.29 58.9,44.31 58.13,46.36 58.61,45.22 57.16,48.19 55.93,50.11 55.55,51.03 55.1,52.19 53.39,55.21 54.2,53.26 53.23,55.24 53.02,55.68 51.2,58.54 51.87,57.49 50.24,59.82 49.63,60.62 49.16,61.59 47.26,64 47.63,63.26 46.56,64.78 46.46,64.65 44.68,66.99 43.54,68.37 43.58,68.21 42.1,69.58 42.83,69.2 40.12,71.79 39.38,72.35 39.05,72.61 38.98,72.8 36.94,74.16 37.17,74.47 34.26,76.54 35.16,75.7 32.8,77.77 33.23,77.34 31.12,78.87 30.94,79.14 28.78,80.6 27.72,80.89 28.82,80.35 27.75,80.66 27.54,80.98 23.85,83.13 23,83.52 22.37,83.55 22.53,83.56 21.54,84.22 18.89,85.19 17.63,85.51 17.86,85.73 16.3,86.12 16.65,85.9 14.84,86.39 13.37,87.13 12.78,87.05 10.97,87.44 11.32,87.38 9.15,88.01 9.1,87.85 7.21,88.3 7.06,88.22 4.45,88.6 4.27,88.29 3.54,88.57 3.4,88.73 2.19,88.59 0.6,88.83 -1,88.87 -3.63,88.55 -2.43,88.75 -5.21,88.49 -5.95,88.22 -5.79,88.43 -8.06,88.09 -8.88,88.02 -9.26,88.02 -11.35,87.28 -12.2,87.23 -12.45,87.42 -14.56,86.65 -14.92,86.71 -15.78,86.47 -16.09,85.95 -18.1,85.52 -20.07,84.74 -19.67,84.84 -19.19,85.2 -21.92,84.12 -21.16,84.32 -24.38,82.76 -25.78,82.08 -26.76,81.71 -26.45,81.85 -29.07,80.11 -28.04,80.81 -29.99,79.57 -31.03,79.11 -32.16,78.07 -32.61,78.07 -33.31,77.25 -34.86,76.37 -36.4,74.94 -35.45,75.82 -36.16,75.12 -37.09,74.56 -39.85,72.23 -39.66,72.28 -41.62,70.21 -40.35,71.4 -43.84,67.96 -42.37,69.66 -44.56,67.08 -45.33,66.44 -46.09,65.46 -47.09,63.99 -47.99,63.01 -47.94,62.64 -48.59,62.04 -48.73,61.75 -50.04,60.43 -50.99,59.13 -51.63,57.57 -53.64,55.01 -53.1,55.37 -53.59,54.69 -54.56,52.86 -55.63,51.46 -54.89,52.46 -55.92,50.37 -56.9,48.91 -57.25,48.04 -58.57,45.28 -58.28,46.24 -58.75,45.25 -59.15,43.88 -60.7,40.54 -60.28,41.5 -60.98,39.4 -61.96,37.16 -62.19,36.12 -62.45,35.13 -62.77,34.9 -63.37,32.56 -63.79,30.73 -64.33,29.28 -64.67,28 -64.81,27 -64.91,27.17 -65.36,24.94 -65.94,21.91 -65.85,22.76 -66.24,20.38 -66.28,19.84 -66.8,17.23 -66.93,17.02 -67.46,13.32 -67.24,14.33 -67.76,10.9 -67.28,12.84 -67.71,8.79 -68,6.68 -67.79,8.11 -67.96,4.93 -68.03,4.55 -67.98,3.43 -68.07,2.08 -68.18,-2.16 -68.12,-1.57 -68.03,-2.98 -67.95,-3.92 -68.09,-5.72 -68.08,-6.24 -67.99,-7.67 -67.72,-10.42 -67.74,-10.46 -67.37,-12.5 -67.29,-14.08 -67.28,-14.48 -66.73,-17.88 -66.77,-17.45 -66.36,-20.7 -66.54,-19.45 -65.95,-22.18 -66.05,-22.26 -65.34,-25.12 -65.18,-25.56 -64.5,-28.78 -64.95,-27.51 -64.3,-28.64 -63.17,-33.22 -63.22,-33.25 -63.29,-32.51 -62.78,-34.34 -61.81,-36.8 -62.06,-37.04 -60.71,-40.42 -61.07,-39.72 -60.5,-40.45 -59.97,-42.07 -59.37,-43.32 -57.85,-46.82 -58.93,-44.87 -57.57,-47.54 -57.28,-48.36 -56.21,-50.3 -56.18,-50.49 -55.04,-52.08 -54.38,-53.79 -53.81,-54.52 -54.03,-54.34 -52.56,-56.42 -52.68,-56.03 -51.01,-58.46 -50.5,-59.36 -49.73,-60.29 -47.86,-63.03 -48.55,-61.96 -47.48,-63.59 -46.72,-64.15 -45.31,-66.19 -45.57,-66.11 -43.81,-67.71 -42.21,-69.53 -42.25,-69.57 -41.42,-70.19 -41.66,-70.12 -40.35,-71.72 -40.35,-71.58 -38.89,-72.66 -36.89,-74.61 -36.47,-75.02 -35.49,-75.81 -33.95,-76.88 -34.27,-76.38 -32.73,-77.84 -32.04,-78.15 -30.2,-79.4 -29.27,-80.26 -28.28,-80.61 -28.98,-80.16 -27.85,-81.06 -26.64,-81.64 -24.35,-82.82 -23.52,-83.03 -23.08,-83.2 -23.34,-83.13 -20.41,-84.59 -20.11,-84.72 -17.99,-85.39 -18.67,-85.35 -17.09,-86.06 -14.52,-86.53 -13.71,-86.69 -12.78,-87.3 -13.29,-86.8 -10.98,-87.69 -11.18,-87.39 -10.7,-87.66 -8.48,-88.15 -7.81,-88.04 -7.29,-88.16 -4.81,-88.44 -2.46,-88.71 -3.32,-88.58 -1.82,-88.44 -1.61,-88.6 1.03,-88.85 0.56,-88.54 3.72,-88.63 1.94,-88.49 3.71,-88.54 5.68,-88.55 5.19,-88.57 7.19,-88.03 10.23,-87.48 9.98,-87.83 10.18,-87.6 13.52,-87.12 14.09,-86.65 14.98,-86.39 15.76,-86.04 15.65,-86.27 17.99,-85.68 18.19,-85.6 18.01,-85.34 20.38,-84.61 20.07,-84.62 20.91,-84.42 21.88,-83.84 25.24,-82.56 25.6,-82.35 26.37,-81.7 27.13,-81.23 26.33,-81.68 29.03,-80.25 30,-79.6 30.85,-79.06 32.49,-77.96 33.87,-76.81 33.52,-76.88 34.5,-76.74 35.62,-75.77 37.53,-74.09 36.74,-74.63 39.24,-72.74 37.94,-73.38 40.52,-71.66 41.39,-70.63 42.47,-69.21 43.1,-68.46 43.3,-68.39 44.08,-67.61 45.1,-66.71 45.97,-65.74 47.16,-64.27 47,-63.8 47.99,-62.95 47.98,-63.09 50.59,-59.21 51.32,-58.24 51.25,-58.62 52.37,-56.75 52.51,-56.31 53.32,-54.58 53.04,-55.37 54.45,-52.99 54.78,-52.92 55.8,-50.64 55.61,-51.5 55.79,-50.35 56.61,-48.95 57.97,-46.68 58.96,-44.12 58.43,-45.37 59.58,-43.07 60.39,-40.86 60.48,-40.35 61.78,-37.44 62,-35.94 61.95,-36.94 62.33,-36.19 62.17,-35.92 63.19,-32.16 63.5,-32.32 63.88,-30.82 64.36,-29.02 64.92,-26.79 65.12,-25.54 65.29,-25.14 65.43,-24.09 65.97,-21.96 65.91,-21.86 66.65,-17.89 66.62,-18.64 66.56,-18.57 66.95,-15.47 67.55,-11.91 67.36,-11.61 67.35,-12.02 67.59,-10.25 67.44,-10.42 67.9,-5.98 67.92,-6.46 68.01,-2.88 67.87,-3.47 68.18,-0.49 67.92,2.45 68.04,1.08" fill="rgb(210, 180, 140)" stroke="black" stroke-width="1.6666666666666665" stroke-linejoin="round" filter="url(#fuzzy)" />
    <g transform="translate(43.75 -21.36)">
      <polyline id="rightCountour" points="-24.88,2.73 -24.41,2.49 -23.9,2.23 -23.37,1.97 -22.82,1.71 -22.23,1.43 -21.62,1.15 -20.99,0.87 -20.34,0.58 -19.66,0.29 -18.97,-0.01 -18.25,-0.31 -17.52,-0.62 -16.76,-0.92 -15.99,-1.23 -15.2,-1.53 -14.36,-1.88 -13.49,-2.23 -12.6,-2.58 -11.68,-2.94 -10.73,-3.3 -9.76,-3.65 -8.78,-4.01 -7.77,-4.36 -6.75,-4.71 -5.72,-5.05 -4.68,-5.38 -3.63,-5.7 -2.57,-6.01 -1.51,-6.31 -0.45,-6.6 0.6,-6.87 1.66,-7.13 2.71,-7.37 3.75,-7.59 4.77,-7.8 5.79,-7.98 6.79,-8.15 7.77,-8.29 8.73,-8.41 9.68,-8.52 10.59,-8.6 11.49,-8.65 12.36,-8.69 13.2,-8.71 14.01,-8.7 14.79,-8.67 15.54,-8.62 16.26,-8.55 16.94,-8.46 17.59,-8.35 18.21,-8.22 18.79,-8.07 19.33,-7.9 19.84,-7.72 20.32,-7.52 20.76,-7.31 21.16,-7.08 21.53,-6.84 21.86,-6.59 22.16,-6.33 22.43,-6.06 22.67,-5.79 22.88,-5.51 23.05,-5.22 23.2,-4.93 23.32,-4.64 23.41,-4.34 23.47,-4.03 23.5,-3.72 23.5,-3.41 23.47,-3.09 23.42,-2.77 23.34,-2.45 23.23,-2.13 23.09,-1.81 22.93,-1.48 22.74,-1.16 22.53,-0.83 22.3,-0.51 20.74,-0.3 20.14,0.09 19.53,0.47 18.91,0.84 18.27,1.19 17.62,1.54 16.95,1.88 16.27,2.22 15.58,2.54 14.88,2.85 14.17,3.16 13.44,3.45 12.71,3.74 11.96,4.01 11.21,4.28 10.44,4.54 9.66,4.8 8.87,5.04 8.06,5.28 7.25,5.51 6.42,5.73 5.59,5.95 4.75,6.16 3.9,6.36 3.04,6.55 2.18,6.73 1.32,6.91 0.46,7.08 -0.41,7.24 -1.27,7.39 -2.14,7.54 -3,7.68 -3.86,7.81 -4.71,7.93 -5.56,8.05 -6.4,8.16 -7.23,8.26 -8.06,8.35 -8.87,8.44 -9.68,8.52 -10.47,8.59 -11.25,8.65 -12.01,8.71 -12.77,8.75 -13.51,8.8 -14.23,8.83 -14.94,8.86 -15.63,8.87 -16.3,8.89 -16.96,8.89 -17.6,8.89 -18.22,8.87 -18.82,8.86 -19.41,8.83 -19.98,8.8 -20.52,8.75 -21.05,8.71 -21.56,8.65 -22.06,8.59 -22.53,8.52 -22.99,8.44 -23.42,8.35 -23.84,8.26 -24.25,8.16 -24.63,8.06 -24.99,7.99 -25.34,7.92 -25.67,7.84 -25.99,7.76 -26.3,7.67 -26.59,7.59 -26.86,7.5 -27.12,7.4 -27.37,7.31 -27.6,7.21 -27.81,7.11 -28.01,7 -28.19,6.9 -28.36,6.79 -28.51,6.68" fill="white" stroke="white" stroke-width="0" stroke-linejoin="round" filter="url(#fuzzy)" />
    </g>
    <g transform="translate(-25.27 -25.58)">
      <polyline id="leftCountour" points="29.16,3 28.78,2.75 28.38,2.49 27.94,2.23 27.48,1.95 26.99,1.67 26.47,1.38 25.92,1.08 25.35,0.77 24.75,0.45 24.13,0.13 23.48,-0.19 22.81,-0.53 22.11,-0.86 21.4,-1.21 20.66,-1.55 19.92,-1.9 19.14,-2.27 18.32,-2.65 17.47,-3.04 16.58,-3.43 15.66,-3.83 14.71,-4.24 13.74,-4.65 12.73,-5.06 11.71,-5.47 10.66,-5.88 9.6,-6.28 8.52,-6.68 7.43,-7.07 6.34,-7.44 5.23,-7.8 4.12,-8.15 3.01,-8.49 1.9,-8.8 0.8,-9.1 -0.3,-9.38 -1.39,-9.63 -2.46,-9.87 -3.52,-10.08 -4.57,-10.26 -5.6,-10.42 -6.6,-10.56 -7.59,-10.67 -8.55,-10.75 -9.48,-10.81 -10.39,-10.84 -11.27,-10.85 -12.12,-10.82 -12.94,-10.78 -13.73,-10.71 -14.49,-10.61 -15.21,-10.49 -15.9,-10.35 -16.56,-10.18 -17.19,-10 -17.78,-9.79 -18.34,-9.57 -18.86,-9.33 -19.36,-9.07 -19.82,-8.8 -20.25,-8.52 -20.66,-8.22 -21.03,-7.92 -21.38,-7.61 -21.71,-7.3 -22,-6.98 -22.28,-6.65 -22.52,-6.32 -22.74,-5.97 -22.94,-5.62 -23.11,-5.27 -23.26,-4.91 -23.38,-4.54 -23.49,-4.18 -23.57,-3.81 -23.62,-3.44 -23.66,-3.07 -23.68,-2.69 -23.68,-2.32 -21.4,0.37 -20.93,0.74 -20.45,1.1 -19.96,1.46 -19.45,1.82 -18.93,2.16 -18.41,2.5 -17.87,2.83 -17.31,3.16 -16.75,3.47 -16.18,3.79 -15.6,4.09 -15,4.39 -14.4,4.68 -13.79,4.97 -13.16,5.25 -12.53,5.52 -11.88,5.79 -11.21,6.06 -10.54,6.31 -9.85,6.57 -9.16,6.82 -8.45,7.06 -7.74,7.3 -7.01,7.53 -6.28,7.76 -5.53,7.98 -4.78,8.2 -4.03,8.41 -3.26,8.61 -2.5,8.81 -1.72,9 -0.94,9.18 -0.16,9.36 0.62,9.53 1.41,9.69 2.2,9.85 2.99,9.99 3.78,10.13 4.57,10.26 5.36,10.38 6.15,10.49 6.93,10.6 7.72,10.69 8.5,10.77 9.27,10.84 10.05,10.9 10.82,10.95 11.58,10.98 12.34,11.01 13.09,11.02 13.83,11.02 14.57,11 15.3,10.98 16.02,10.93 16.73,10.88 17.43,10.81 18.13,10.73 18.81,10.63 19.48,10.53 20.15,10.4 20.8,10.27 21.44,10.12 22.07,9.95 22.68,9.78 23.22,9.68 23.75,9.57 24.27,9.45 24.77,9.33 25.27,9.21 25.75,9.08 26.22,8.94 26.67,8.8 27.11,8.66 27.54,8.51 27.95,8.36 28.34,8.21 28.71,8.06 29.07,7.9 29.41,7.75" fill="white" stroke="white" stroke-width="0" stroke-linejoin="round" filter="url(#fuzzy)" />
    </g>
    <g transform="translate(43.75 -21.36)">
      <polyline id="rightUpper" points="-27.97,4.61 -27.81,4.48 -27.62,4.33 -27.39,4.16 -27.12,3.99 -26.83,3.81 -26.5,3.61 -26.14,3.41 -25.75,3.19 -25.33,2.96 -24.88,2.73 -24.41,2.49 -23.9,2.23 -23.37,1.97 -22.82,1.71 -22.23,1.43 -21.62,1.15 -20.99,0.87 -20.34,0.58 -19.66,0.29 -18.97,-0.01 -18.25,-0.31 -17.52,-0.62 -16.76,-0.92 -15.99,-1.23 -15.2,-1.53 -14.36,-1.88 -13.49,-2.23 -12.6,-2.58 -11.68,-2.94 -10.73,-3.3 -9.76,-3.65 -8.78,-4.01 -7.77,-4.36 -6.75,-4.71 -5.72,-5.05 -4.68,-5.38 -3.63,-5.7 -2.57,-6.01 -1.51,-6.31 -0.45,-6.6 0.6,-6.87 1.66,-7.13 2.71,-7.37 3.75,-7.59 4.77,-7.8 5.79,-7.98 6.79,-8.15 7.77,-8.29 8.73,-8.41 9.68,-8.52 10.59,-8.6 11.49,-8.65 12.36,-8.69 13.2,-8.71 14.01,-8.7 14.79,-8.67 15.54,-8.62 16.26,-8.55 16.94,-8.46 17.59,-8.35 18.21,-8.22 18.79,-8.07 19.33,-7.9 19.84,-7.72 20.32,-7.52 20.76,-7.31 21.16,-7.08 21.53,-6.84 21.86,-6.59 22.16,-6.33 22.43,-6.06 22.67,-5.79 22.88,-5.51 23.05,-5.22 23.2,-4.93 23.32,-4.64 23.41,-4.34 23.47,-4.03 23.5,-3.72 23.5,-3.41 23.47,-3.09 23.42,-2.77 23.34,-2.45 23.23,-2.13 23.09,-1.81 22.93,-1.48 22.74,-1.16 22.53,-0.83 22.3,-0.51 22.04,-0.19 21.75,0.13 21.45,0.44 21.12,0.76 20.77,1.07 20.4,1.37 20.01,1.68 19.59,1.98 19.16,2.27 18.71,2.57" fill="none" stroke="black" stroke-width="1.6666666666666665" stroke-linejoin="round" filter="url(#fuzzy)" />
      <polyline id="rightLower" points="-28.96,5.58 -29.01,5.69 -29.03,5.79 -29.03,5.9 -29.01,6.01 -28.98,6.12 -28.92,6.23 -28.84,6.35 -28.75,6.46 -28.64,6.57 -28.51,6.68 -28.36,6.79 -28.19,6.9 -28.01,7 -27.81,7.11 -27.6,7.21 -27.37,7.31 -27.12,7.4 -26.86,7.5 -26.59,7.59 -26.3,7.67 -25.99,7.76 -25.67,7.84 -25.34,7.92 -24.99,7.99 -24.63,8.06 -24.25,8.16 -23.84,8.26 -23.42,8.35 -22.99,8.44 -22.53,8.52 -22.06,8.59 -21.56,8.65 -21.05,8.71 -20.52,8.75 -19.98,8.8 -19.41,8.83 -18.82,8.86 -18.22,8.87 -17.6,8.89 -16.96,8.89 -16.3,8.89 -15.63,8.87 -14.94,8.86 -14.23,8.83 -13.51,8.8 -12.77,8.75 -12.01,8.71 -11.25,8.65 -10.47,8.59 -9.68,8.52 -8.87,8.44 -8.06,8.35 -7.23,8.26 -6.4,8.16 -5.56,8.05 -4.71,7.93 -3.86,7.81 -3,7.68 -2.14,7.54 -1.27,7.39 -0.41,7.24 0.46,7.08 1.32,6.91 2.18,6.73 3.04,6.55 3.9,6.36 4.75,6.16 5.59,5.95 6.42,5.73 7.25,5.51 8.06,5.28 8.87,5.04 9.66,4.8 10.44,4.54 11.21,4.28 11.96,4.01 12.71,3.74 13.44,3.45 14.17,3.16 14.88,2.85 15.58,2.54 16.27,2.22 16.95,1.88 17.62,1.54 18.27,1.19 18.91,0.84 19.53,0.47 20.14,0.09 20.74,-0.3 21.32,-0.69 21.89,-1.09 22.45,-1.51 22.99,-1.93 23.51,-2.36 24.02,-2.8 24.52,-3.25 25,-3.7 25.46,-4.17 25.92,-4.64" fill="none" stroke="black" stroke-width="2.2222222222222223" stroke-linejoin="round" filter="url(#fuzzy)" />
      <circle r="3.524" cx="12.01274655172664" cy="4.317407341747377" stroke="black" fill="none" stroke-width="1.0" filter="url(#fuzzy)" clip-path="url(#rightEyeClipPath)" /><circle r="3.186" cx="8.26774655172664" cy="3.5074073417473777" stroke="black" fill="none" stroke-width="1.0" filter="url(#fuzzy)" clip-path="url(#rightEyeClipPath)" /><circle r="4.63" cx="9.73274655172664" cy="3.617407341747377" stroke="black" fill="none" stroke-width="1.0" filter="url(#fuzzy)" clip-path="url(#rightEyeClipPath)" /><circle r="4.7059999999999995" cx="9.002746551726641" cy="5.302407341747378" stroke="black" fill="none" stroke-width="1.0" filter="url(#fuzzy)" clip-path="url(#rightEyeClipPath)" /><circle r="4.302" cx="9.05274655172664" cy="5.0974073417473775" stroke="black" fill="none" stroke-width="1.0" filter="url(#fuzzy)" clip-path="url(#rightEyeClipPath)" /><circle r="4.524" cx="8.64274655172664" cy="2.407407341747377" stroke="black" fill="none" stroke-width="1.0" filter="url(#fuzzy)" clip-path="url(#rightEyeClipPath)" /><circle r="4.106" cx="12.57274655172664" cy="4.252407341747377" stroke="black" fill="none" stroke-width="1.0" filter="url(#fuzzy)" clip-path="url(#rightEyeClipPath)" /><circle r="3.624" cx="11.467746551726641" cy="5.5974073417473775" stroke="black" fill="none" stroke-width="1.0" filter="url(#fuzzy)" clip-path="url(#rightEyeClipPath)" /><circle r="3.68" cx="12.81274655172664" cy="1.3224073417473772" stroke="black" fill="none" stroke-width="1.0" filter="url(#fuzzy)" clip-path="url(#rightEyeClipPath)" /><circle r="4.934" cx="10.38774655172664" cy="4.067407341747377" stroke="black" fill="none" stroke-width="1.0" filter="url(#fuzzy)" clip-path="url(#rightEyeClipPath)" />
      </g>
    <g transform="translate(-25.27 -25.58)">
      <polyline id="leftUpper" points="31.29,4.93 31.21,4.78 31.1,4.62 30.96,4.45 30.8,4.27 30.6,4.08 30.37,3.89 30.11,3.68 29.82,3.46 29.51,3.23 29.16,3 28.78,2.75 28.38,2.49 27.94,2.23 27.48,1.95 26.99,1.67 26.47,1.38 25.92,1.08 25.35,0.77 24.75,0.45 24.13,0.13 23.48,-0.19 22.81,-0.53 22.11,-0.86 21.4,-1.21 20.66,-1.55 19.92,-1.9 19.14,-2.27 18.32,-2.65 17.47,-3.04 16.58,-3.43 15.66,-3.83 14.71,-4.24 13.74,-4.65 12.73,-5.06 11.71,-5.47 10.66,-5.88 9.6,-6.28 8.52,-6.68 7.43,-7.07 6.34,-7.44 5.23,-7.8 4.12,-8.15 3.01,-8.49 1.9,-8.8 0.8,-9.1 -0.3,-9.38 -1.39,-9.63 -2.46,-9.87 -3.52,-10.08 -4.57,-10.26 -5.6,-10.42 -6.6,-10.56 -7.59,-10.67 -8.55,-10.75 -9.48,-10.81 -10.39,-10.84 -11.27,-10.85 -12.12,-10.82 -12.94,-10.78 -13.73,-10.71 -14.49,-10.61 -15.21,-10.49 -15.9,-10.35 -16.56,-10.18 -17.19,-10 -17.78,-9.79 -18.34,-9.57 -18.86,-9.33 -19.36,-9.07 -19.82,-8.8 -20.25,-8.52 -20.66,-8.22 -21.03,-7.92 -21.38,-7.61 -21.71,-7.3 -22,-6.98 -22.28,-6.65 -22.52,-6.32 -22.74,-5.97 -22.94,-5.62 -23.11,-5.27 -23.26,-4.91 -23.38,-4.54 -23.49,-4.18 -23.57,-3.81 -23.62,-3.44 -23.66,-3.07 -23.68,-2.69 -23.68,-2.32 -23.65,-1.95 -23.61,-1.59 -23.56,-1.22 -23.48,-0.86 -23.39,-0.5 -23.28,-0.14 -23.15,0.21 -23.01,0.56 -22.86,0.9 -22.69,1.24" fill="none" stroke="black" stroke-width="2.2222222222222223" stroke-linejoin="round" filter="url(#fuzzy)" />
      <polyline id="leftLower" points="31.5,6.38 31.41,6.48 31.29,6.6 31.15,6.73 30.97,6.86 30.77,7 30.54,7.14 30.29,7.29 30.02,7.44 29.72,7.59 29.41,7.75 29.07,7.9 28.71,8.06 28.34,8.21 27.95,8.36 27.54,8.51 27.11,8.66 26.67,8.8 26.22,8.94 25.75,9.08 25.27,9.21 24.77,9.33 24.27,9.45 23.75,9.57 23.22,9.68 22.68,9.78 22.07,9.95 21.44,10.12 20.8,10.27 20.15,10.4 19.48,10.53 18.81,10.63 18.13,10.73 17.43,10.81 16.73,10.88 16.02,10.93 15.3,10.98 14.57,11 13.83,11.02 13.09,11.02 12.34,11.01 11.58,10.98 10.82,10.95 10.05,10.9 9.27,10.84 8.5,10.77 7.72,10.69 6.93,10.6 6.15,10.49 5.36,10.38 4.57,10.26 3.78,10.13 2.99,9.99 2.2,9.85 1.41,9.69 0.62,9.53 -0.16,9.36 -0.94,9.18 -1.72,9 -2.5,8.81 -3.26,8.61 -4.03,8.41 -4.78,8.2 -5.53,7.98 -6.28,7.76 -7.01,7.53 -7.74,7.3 -8.45,7.06 -9.16,6.82 -9.85,6.57 -10.54,6.31 -11.21,6.06 -11.88,5.79 -12.53,5.52 -13.16,5.25 -13.79,4.97 -14.4,4.68 -15,4.39 -15.6,4.09 -16.18,3.79 -16.75,3.47 -17.31,3.16 -17.87,2.83 -18.41,2.5 -18.93,2.16 -19.45,1.82 -19.96,1.46 -20.45,1.1 -20.93,0.74 -21.4,0.37 -21.86,-0.02 -22.31,-0.4 -22.74,-0.8 -23.17,-1.2 -23.58,-1.6 -23.98,-2.02 -24.37,-2.44 -24.74,-2.87 -25.11,-3.3 -25.46,-3.74" fill="none" stroke="black" stroke-width="2.2222222222222223" stroke-linejoin="round" filter="url(#fuzzy)" />
      <circle r="4.072" cx="-8.145037501933231" cy="-0.5051028883185347" stroke="black" fill="none" stroke-width="1.0" filter="url(#fuzzy)" clip-path="url(#leftEyeClipPath)" /><circle r="3.5220000000000002" cx="-10.575037501933231" cy="2.399897111681465" stroke="black" fill="none" stroke-width="1.0" filter="url(#fuzzy)" clip-path="url(#leftEyeClipPath)" /><circle r="3.922" cx="-7.6350375019332315" cy="0.9148971116814657" stroke="black" fill="none" stroke-width="1.0" filter="url(#fuzzy)" clip-path="url(#leftEyeClipPath)" /><circle r="3.8040000000000003" cx="-8.885037501933231" cy="-0.5901028883185346" stroke="black" fill="none" stroke-width="1.0" filter="url(#fuzzy)" clip-path="url(#leftEyeClipPath)" /><circle r="3.984" cx="-6.540037501933231" cy="2.7048971116814657" stroke="black" fill="none" stroke-width="1.0" filter="url(#fuzzy)" clip-path="url(#leftEyeClipPath)" /><circle r="4.216" cx="-6.320037501933231" cy="3.1848971116814653" stroke="black" fill="none" stroke-width="1.0" filter="url(#fuzzy)" clip-path="url(#leftEyeClipPath)" /><circle r="4.1240000000000006" cx="-7.330037501933231" cy="1.3648971116814654" stroke="black" fill="none" stroke-width="1.0" filter="url(#fuzzy)" clip-path="url(#leftEyeClipPath)" /><circle r="3.388" cx="-10.49003750193323" cy="2.864897111681466" stroke="black" fill="none" stroke-width="1.0" filter="url(#fuzzy)" clip-path="url(#leftEyeClipPath)" /><circle r="4.384" cx="-8.11503750193323" cy="3.1748971116814655" stroke="black" fill="none" stroke-width="1.0" filter="url(#fuzzy)" clip-path="url(#leftEyeClipPath)" /><circle r="3.776" cx="-6.980037501933231" cy="-1.2401028883185345" stroke="black" fill="none" stroke-width="1.0" filter="url(#fuzzy)" clip-path="url(#leftEyeClipPath)" />
    </g>
    <g id="hairs">
      <polyline points="30,-79.6 31.05,-78.89 32.19,-78.07 33.18,-77.35 34.07,-76.71 34.91,-76.1 35.73,-75.48 36.48,-74.89 37.15,-74.34 37.7,-73.85 38.12,-73.44 38.41,-73.12 38.51,-72.92 38.39,-72.89 37.99,-73.08 37.28,-73.51 36.27,-74.19 34.98,-75.08 33.45,-76.14 31.72,-77.39 29.8,-78.85 27.62,-80.59" fill="none" stroke="rgb(50, 205, 50)" stroke-width="2" stroke-linejoin="round" filter="url(#fuzzy)" /><polyline points="-7.29,-88.16 -5.22,-88.39 -3.86,-88.51 -3.01,-88.55 -2.38,-88.55 -1.87,-88.54 -1.51,-88.5 -1.37,-88.43 -1.54,-88.31 -2.05,-88.16 -2.89,-87.97 -4.12,-87.72 -5.8,-87.39 -8.07,-86.95 -11.03,-86.41 -14.57,-85.83" fill="none" stroke="rgb(50, 205, 50)" stroke-width="2" stroke-linejoin="round" filter="url(#fuzzy)" /><polyline points="53.04,-55.37 54.03,-53.76 54.59,-52.81 54.87,-52.16 54.99,-51.65 55.02,-51.15 54.96,-50.67 54.79,-50.27 54.44,-50.04 53.86,-50.02 53.04,-50.24 51.95,-50.73 50.6,-51.51 48.98,-52.62 47.07,-54.09 44.88,-55.93 42.4,-58.11 39.64,-60.59 36.59,-63.34 33.24,-66.38 29.55,-69.76 25.42,-73.56 20.71,-77.82 15.38,-82.59" fill="none" stroke="rgb(50, 205, 50)" stroke-width="2" stroke-linejoin="round" filter="url(#fuzzy)" /><polyline points="-10.7,-87.66 -8.95,-87.92 -7.37,-87.98 -5.58,-87.97 -3.59,-87.93 -1.54,-87.83 0.47,-87.67 2.46,-87.48 4.42,-87.29 6.31,-87.1 8.11,-86.92 9.78,-86.75 11.31,-86.59 12.72,-86.44 14.01,-86.31 15.12,-86.2 15.88,-86.14" fill="none" stroke="rgb(50, 205, 50)" stroke-width="2" stroke-linejoin="round" filter="url(#fuzzy)" /><polyline points="14.09,-86.65 14.89,-86.4 15.65,-86.18 16.49,-85.95 17.35,-85.69 18.19,-85.4 19,-85.09 19.77,-84.78 20.52,-84.47 21.25,-84.16 21.94,-83.85 22.53,-83.57 22.95,-83.34 23.16,-83.18 23.14,-83.1 22.9,-83.1 22.44,-83.17 21.74,-83.32 20.74,-83.59 19.38,-83.98 17.63,-84.52 15.45,-85.22 12.8,-86.08 9.43,-87.16" fill="none" stroke="rgb(50, 205, 50)" stroke-width="2" stroke-linejoin="round" filter="url(#fuzzy)" /><polyline points="37.94,-73.38 39.88,-71.9 41.24,-70.56 42.32,-69.36 43.27,-68.27 44.17,-67.24 45.07,-66.22 45.97,-65.19 46.83,-64.17 47.61,-63.21 48.28,-62.37 48.82,-61.68 49.21,-61.19 49.39,-60.94 49.35,-61.01 49.05,-61.4 48.51,-62.12 47.73,-63.19 46.63,-64.7" fill="none" stroke="rgb(50, 205, 50)" stroke-width="2" stroke-linejoin="round" filter="url(#fuzzy)" /><polyline points="-14.52,-86.53 -13.79,-86.76 -13.16,-86.97 -12.54,-87.15 -11.9,-87.3 -11.27,-87.43 -10.66,-87.54 -10.08,-87.59 -9.57,-87.6 -9.19,-87.53 -9,-87.4 -9.08,-87.18 -9.46,-86.87 -10.17,-86.46 -11.21,-85.96 -12.59,-85.35 -14.28,-84.65 -16.3,-83.86 -18.65,-82.98 -21.4,-81.98 -24.66,-80.76 -28.51,-79.31" fill="none" stroke="rgb(50, 205, 50)" stroke-width="2" stroke-linejoin="round" filter="url(#fuzzy)" /><polyline points="18.19,-85.6 18.63,-85.26 19.37,-84.93 20.05,-84.62 20.75,-84.28 21.42,-83.9 21.96,-83.53 22.24,-83.2 22.21,-82.95 21.88,-82.76 21.27,-82.62 20.41,-82.52 19.26,-82.44 17.78,-82.42 15.9,-82.47 13.6,-82.62 10.87,-82.88 7.73,-83.26 4.22,-83.73 0.33,-84.31 -3.94,-85 -8.59,-85.84" fill="none" stroke="rgb(50, 205, 50)" stroke-width="2" stroke-linejoin="round" filter="url(#fuzzy)" /><polyline points="13.52,-87.12 14.12,-86.75 14.7,-86.49 15.21,-86.3 15.64,-86.14 15.93,-85.99 16.06,-85.83 15.98,-85.68 15.69,-85.53 15.17,-85.38 14.4,-85.23 13.36,-85.1 11.98,-84.98 10.19,-84.91 7.96,-84.91 5.27,-85 2.16,-85.17 -1.32,-85.41 -5.19,-85.7 -9.53,-86.06" fill="none" stroke="rgb(50, 205, 50)" stroke-width="2" stroke-linejoin="round" filter="url(#fuzzy)" /><polyline points="20.07,-84.62 21.11,-84.23 22.57,-83.59 24.06,-82.89 25.34,-82.23 26.41,-81.64 27.36,-81.09 28.28,-80.54 29.2,-79.98 30.09,-79.42 30.89,-78.91 31.52,-78.49 31.95,-78.2 32.16,-78.03 32.14,-78 31.92,-78.09 31.49,-78.3 30.82,-78.65 29.82,-79.19 28.42,-79.94 26.6,-80.91 24.47,-82.06 22.29,-83.31" fill="none" stroke="rgb(50, 205, 50)" stroke-width="2" stroke-linejoin="round" filter="url(#fuzzy)" /><polyline points="13.52,-87.12 14.02,-86.71 14.29,-86.33 14.29,-85.93 14.01,-85.45 13.41,-84.88 12.46,-84.18 11.12,-83.35 9.4,-82.39 7.28,-81.26 4.76,-79.95 1.79,-78.45 -1.67,-76.77 -5.7,-74.94 -10.35,-72.98 -15.65,-70.89 -21.59,-68.62 -28.17,-66.08 -35.44,-63.23 -43.51,-59.98" fill="none" stroke="rgb(50, 205, 50)" stroke-width="2" stroke-linejoin="round" filter="url(#fuzzy)" /><polyline points="-7.29,-88.16 -5.06,-88.33 -3.27,-88.28 -1.65,-88.05 0.08,-87.73 2.02,-87.34 4.16,-86.88 6.41,-86.37 8.7,-85.8 11.02,-85.21 13.34,-84.59 15.69,-83.96 18.03,-83.31 20.31,-82.67 22.41,-82.12 24.21,-81.68 25.61,-81.41 26.49,-81.33" fill="none" stroke="rgb(50, 205, 50)" stroke-width="2" stroke-linejoin="round" filter="url(#fuzzy)" /><polyline points="41.39,-70.63 42.25,-69.53 42.9,-68.8 43.51,-68.16 44.15,-67.51 44.79,-66.82 45.37,-66.15 45.84,-65.54 46.2,-65 46.46,-64.55 46.59,-64.2 46.58,-63.99 46.39,-63.96 45.96,-64.17 45.26,-64.65 44.3,-65.4 43.06,-66.43 41.53,-67.76 39.68,-69.4 37.49,-71.34 34.96,-73.6 32.16,-76.13 29.3,-78.83" fill="none" stroke="rgb(50, 205, 50)" stroke-width="2" stroke-linejoin="round" filter="url(#fuzzy)" /><polyline points="13.52,-87.12 14.22,-86.69 15.1,-86.26 16.1,-85.81 17.24,-85.31 18.46,-84.73 19.75,-84.09 21.08,-83.39 22.47,-82.64 23.93,-81.85 25.45,-81.02 26.99,-80.17 28.51,-79.34 29.93,-78.54 31.21,-77.81 32.31,-77.18 33.25,-76.66 34.05,-76.24 34.7,-75.91 35.2,-75.67 35.51,-75.55 35.54,-75.63 35.2,-75.95 34.48,-76.48" fill="none" stroke="rgb(50, 205, 50)" stroke-width="2" stroke-linejoin="round" filter="url(#fuzzy)" /><polyline points="17.99,-85.68 18.38,-85.35 19.38,-84.58 20.85,-83.48 22.66,-82.12 24.8,-80.5 27.21,-78.67 29.8,-76.66 32.43,-74.54 35.03,-72.35 37.59,-70.1 40.11,-67.83 42.64,-65.55 45.17,-63.27 47.65,-61 50.05,-58.84" fill="none" stroke="rgb(50, 205, 50)" stroke-width="2" stroke-linejoin="round" filter="url(#fuzzy)" /><polyline points="44.08,-67.61 44.93,-66.78 45.51,-66.04 45.78,-65.51 45.74,-65.22 45.45,-65.14 44.91,-65.26 44.01,-65.64 42.62,-66.43 40.66,-67.7 38.12,-69.48 35.02,-71.75 31.41,-74.5 27.29,-77.76 22.78,-81.51" fill="none" stroke="rgb(50, 205, 50)" stroke-width="2" stroke-linejoin="round" filter="url(#fuzzy)" /><polyline points="21.88,-83.84 24.06,-82.95 25.02,-82.4 25.43,-81.99 25.56,-81.62 25.55,-81.22 25.42,-80.78 25.11,-80.29 24.54,-79.8 23.63,-79.34 22.35,-78.93 20.68,-78.58 18.61,-78.28 16.14,-78 13.25,-77.75 9.94,-77.53 6.2,-77.34 2.06,-77.21 -2.5,-77.11 -7.54,-77.04 -13.19,-76.95 -19.52,-76.84 -26.54,-76.72" fill="none" stroke="rgb(50, 205, 50)" stroke-width="2" stroke-linejoin="round" filter="url(#fuzzy)" /><polyline points="39.24,-72.74 38.94,-72.72 39.22,-72.14 39.19,-71.57 38.55,-71.25 37.22,-71.26 35.23,-71.56 32.59,-72.12 29.32,-72.9 25.36,-73.9 20.69,-75.16 15.24,-76.75 9.02,-78.69 2.05,-80.96 -5.72,-83.52" fill="none" stroke="rgb(50, 205, 50)" stroke-width="2" stroke-linejoin="round" filter="url(#fuzzy)" /><polyline points="52.37,-56.75 52.65,-56.09 53.01,-55.38 53.4,-54.73 53.75,-54.17 53.98,-53.77 54.04,-53.58 53.92,-53.63 53.61,-53.9 53.11,-54.41 52.38,-55.23 51.36,-56.46 50.02,-58.18 48.32,-60.45 46.23,-63.37 43.64,-67.08" fill="none" stroke="rgb(50, 205, 50)" stroke-width="2" stroke-linejoin="round" filter="url(#fuzzy)" /><polyline points="-8.48,-88.15 -7.76,-88.13 -6.72,-88.2 -5.62,-88.27 -4.74,-88.28 -4.13,-88.21 -3.77,-88.08 -3.6,-87.88 -3.61,-87.61 -3.84,-87.27 -4.33,-86.84 -5.09,-86.3 -6.13,-85.66 -7.44,-84.91 -9.04,-84.03 -10.94,-83.03 -13.21,-81.89 -15.92,-80.59 -19.11,-79.11 -22.79,-77.46 -26.95,-75.67 -31.53,-73.8 -36.44,-71.9" fill="none" stroke="rgb(50, 205, 50)" stroke-width="2" stroke-linejoin="round" filter="url(#fuzzy)" /><polyline points="3.72,-88.63 3.16,-88.56 3.76,-88.52 4.63,-88.46 5.51,-88.34 6.28,-88.18 6.83,-88.01 7.08,-87.86 6.93,-87.72 6.34,-87.58 5.24,-87.44 3.59,-87.32 1.38,-87.24 -1.35,-87.19 -4.54,-87.17 -8.29,-87.12" fill="none" stroke="rgb(50, 205, 50)" stroke-width="2" stroke-linejoin="round" filter="url(#fuzzy)" /><polyline points="-3.32,-88.58 -2.14,-88.54 -1.04,-88.59 0.05,-88.62 1.03,-88.62 1.84,-88.6 2.49,-88.56 3.01,-88.52 3.43,-88.45 3.69,-88.35 3.74,-88.22 3.48,-88.08 2.86,-87.92 1.83,-87.77 0.39,-87.6 -1.46,-87.44 -3.75,-87.28 -6.49,-87.16 -9.67,-87.09" fill="none" stroke="rgb(50, 205, 50)" stroke-width="2" stroke-linejoin="round" filter="url(#fuzzy)" /><polyline points="55.8,-50.64 55.76,-50.81 56,-50.15 56.37,-49.17 56.67,-48.22 56.79,-47.47 56.69,-46.97 56.39,-46.68 55.87,-46.63 55.11,-46.85 54.06,-47.42 52.7,-48.38 51.03,-49.73 49.07,-51.42 46.84,-53.4 44.36,-55.65 41.62,-58.17 38.59,-61 35.25,-64.2 31.57,-67.79 27.55,-71.84 23.19,-76.4 18.5,-81.49" fill="none" stroke="rgb(50, 205, 50)" stroke-width="2" stroke-linejoin="round" filter="url(#fuzzy)" /><polyline points="-12.78,-87.3 -12.36,-87.13 -11.13,-87.1 -9.52,-87 -7.55,-86.8 -5.25,-86.52 -2.67,-86.17 0.14,-85.75 3.08,-85.27 6.07,-84.73 9.06,-84.14 12,-83.51 14.91,-82.87 17.8,-82.21 20.64,-81.54 23.36,-80.89 25.83,-80.34 27.97,-79.96" fill="none" stroke="rgb(50, 205, 50)" stroke-width="2" stroke-linejoin="round" filter="url(#fuzzy)" /><polyline points="-13.29,-86.8 -11.83,-87.31 -10.95,-87.53 -10.09,-87.71 -9.18,-87.87 -8.27,-88 -7.43,-88.09 -6.76,-88.13 -6.36,-88.11 -6.32,-88.02 -6.69,-87.85 -7.47,-87.6 -8.67,-87.24 -10.3,-86.79 -12.4,-86.24 -15.09,-85.55 -18.56,-84.62" fill="none" stroke="rgb(50, 205, 50)" stroke-width="2" stroke-linejoin="round" filter="url(#fuzzy)" /><polyline points="60.39,-40.86 60.53,-39.95 60.3,-39.17 59.42,-39.15 57.88,-39.82 55.7,-40.96 52.91,-42.42 49.48,-44.22 45.38,-46.43 40.58,-49.14 35.04,-52.43 28.74,-56.34 21.67,-60.96 13.83,-66.31 5.22,-72.38 -4.19,-79.1" fill="none" stroke="rgb(50, 205, 50)" stroke-width="2" stroke-linejoin="round" filter="url(#fuzzy)" /><polyline points="42.47,-69.21 43.02,-68.6 43.67,-67.91 44.49,-67.02 45.41,-65.96 46.35,-64.81 47.26,-63.65 48.13,-62.48 48.97,-61.33 49.79,-60.21 50.54,-59.17 51.17,-58.28 51.65,-57.61 51.94,-57.2 52.03,-57.08 51.89,-57.27 51.5,-57.82 50.8,-58.82 49.77,-60.26 48.5,-61.98" fill="none" stroke="rgb(50, 205, 50)" stroke-width="2" stroke-linejoin="round" filter="url(#fuzzy)" /><polyline points="-38.89,-72.66 -37.27,-74 -35.74,-74.75 -33.98,-75.23 -31.96,-75.54 -29.62,-75.75 -26.97,-75.89 -24.03,-75.97 -20.84,-75.95 -17.45,-75.82 -13.89,-75.59 -10.14,-75.27 -6.22,-74.91 -2.12,-74.53 2.13,-74.14 6.48,-73.72 10.91,-73.27 15.42,-72.77 19.99,-72.23 24.6,-71.68 29.17,-71.1 33.7,-70.44 38.26,-69.63" fill="none" stroke="rgb(50, 205, 50)" stroke-width="2" stroke-linejoin="round" filter="url(#fuzzy)" /><polyline points="-30.2,-79.4 -29.18,-79.91 -27.95,-79.99 -26.29,-79.89 -24.04,-79.74 -21.27,-79.52 -18.08,-79.17 -14.59,-78.67 -10.84,-77.99 -6.81,-77.17 -2.52,-76.23 2.01,-75.18 6.77,-74.02 11.73,-72.74 16.86,-71.35 22.12,-69.88 27.44,-68.36 32.7,-66.87 37.79,-65.54 42.72,-64.48" fill="none" stroke="rgb(50, 205, 50)" stroke-width="2" stroke-linejoin="round" filter="url(#fuzzy)" /><polyline points="57.97,-46.68 58.21,-45.41 57.63,-45.01 56.41,-44.81 54.5,-44.85 51.78,-45.3 48.18,-46.32 43.64,-48 38.13,-50.32 31.67,-53.2 24.29,-56.55 15.94,-60.31 6.51,-64.53 -4.13,-69.23 -16.01,-74.43" fill="none" stroke="rgb(50, 205, 50)" stroke-width="2" stroke-linejoin="round" filter="url(#fuzzy)" /><polyline points="47.99,-62.95 48.66,-62.04 49.64,-60.61 50.37,-59.51 50.8,-58.76 51,-58.24 51.02,-57.9 50.86,-57.73 50.54,-57.74 50.05,-57.91 49.37,-58.27 48.49,-58.82 47.37,-59.56 45.99,-60.51 44.34,-61.66 42.41,-63.05 40.17,-64.71 37.65,-66.69 34.83,-69.01 31.71,-71.67 28.27,-74.69 24.43,-78.1 20.14,-81.91" fill="none" stroke="rgb(50, 205, 50)" stroke-width="2" stroke-linejoin="round" filter="url(#fuzzy)" /><polyline points="26.37,-81.7 26.91,-81.35 27.77,-80.77 29.05,-79.9 30.52,-78.85 32.03,-77.72 33.49,-76.59 34.85,-75.51 36.12,-74.5 37.3,-73.55 38.41,-72.66 39.43,-71.83 40.33,-71.09 41.09,-70.46 41.68,-69.96 42.11,-69.59 42.37,-69.36 42.42,-69.33 42.17,-69.64 41.52,-70.43" fill="none" stroke="rgb(50, 205, 50)" stroke-width="2" stroke-linejoin="round" filter="url(#fuzzy)" /><polyline points="-40.35,-71.58 -38.73,-72.75 -36.98,-73.82 -35.13,-74.63 -33.13,-75.24 -30.91,-75.73 -28.46,-76.16 -25.76,-76.55 -22.84,-76.92 -19.73,-77.25 -16.48,-77.52 -13.13,-77.74 -9.68,-77.92 -6.11,-78.08 -2.42,-78.24 1.37,-78.38 5.22,-78.49 9.07,-78.58 12.9,-78.64 16.73,-78.67 20.56,-78.66 24.35,-78.62 27.87,-78.69" fill="none" stroke="rgb(50, 205, 50)" stroke-width="2" stroke-linejoin="round" filter="url(#fuzzy)" /><polyline points="29.03,-80.25 29.89,-79.65 30.66,-79.01 31.19,-78.43 31.37,-77.97 31.2,-77.64 30.72,-77.4 29.92,-77.21 28.8,-77.08 27.31,-77.02 25.43,-77.06 23.16,-77.18 20.44,-77.39 17.21,-77.7 13.42,-78.13 9.01,-78.72 4,-79.47 -1.58,-80.38 -7.78,-81.4 -14.83,-82.41" fill="none" stroke="rgb(50, 205, 50)" stroke-width="2" stroke-linejoin="round" filter="url(#fuzzy)" /><polyline points="3.71,-88.54 5.12,-88.42 6.58,-88.02 8.42,-87.41 10.48,-86.69 12.63,-85.88 14.86,-84.98 17.13,-84 19.4,-82.97 21.62,-81.91 23.77,-80.85 25.85,-79.83 27.83,-78.86 29.67,-77.99 31.36,-77.2 32.9,-76.49 34.34,-75.81 35.73,-75.13" fill="none" stroke="rgb(50, 205, 50)" stroke-width="2" stroke-linejoin="round" filter="url(#fuzzy)" /><polyline points="30.85,-79.06 32.16,-78.12 32.99,-77.49 33.52,-77.1 33.88,-76.81 34.07,-76.59 34,-76.49 33.59,-76.55 32.83,-76.83 31.72,-77.31 30.23,-78.02 28.31,-78.99 25.84,-80.26 22.76,-81.9 19.11,-83.94" fill="none" stroke="rgb(50, 205, 50)" stroke-width="2" stroke-linejoin="round" filter="url(#fuzzy)" /><polyline points="-2.46,-88.71 -2.53,-88.6 -1.8,-88.56 -0.72,-88.56 0.46,-88.54 1.64,-88.51 2.74,-88.46 3.76,-88.4 4.73,-88.34 5.66,-88.26 6.51,-88.17 7.26,-88.08 7.86,-87.99 8.26,-87.9 8.43,-87.83 8.36,-87.77 8.02,-87.74 7.37,-87.73 6.36,-87.77 4.99,-87.85 3.26,-87.96 1.26,-88.12 -0.83,-88.35" fill="none" stroke="rgb(50, 205, 50)" stroke-width="2" stroke-linejoin="round" filter="url(#fuzzy)" /><polyline points="20.38,-84.61 20.53,-84.49 21.38,-84.13 22.6,-83.59 23.86,-83.01 24.95,-82.47 25.84,-82 26.57,-81.59 27.2,-81.2 27.75,-80.84 28.2,-80.51 28.53,-80.23 28.68,-80.03 28.62,-79.93 28.34,-79.95 27.82,-80.08 27.06,-80.33 26.05,-80.69 24.76,-81.18 23.14,-81.84 21.14,-82.68 18.71,-83.7 15.89,-84.9 12.9,-86.2" fill="none" stroke="rgb(50, 205, 50)" stroke-width="2" stroke-linejoin="round" filter="url(#fuzzy)" /><polyline points="51.32,-58.24 51.55,-57.99 51.95,-57.27 52.28,-56.56 52.53,-55.98 52.69,-55.51 52.76,-55.17 52.7,-54.95 52.47,-54.88 52.07,-54.94 51.5,-55.14 50.76,-55.46 49.85,-55.95 48.72,-56.65 47.34,-57.6 45.66,-58.84 43.66,-60.41 41.31,-62.31 38.64,-64.59 35.67,-67.26 32.41,-70.34 28.89,-73.81 25.09,-77.59 20.89,-81.67" fill="none" stroke="rgb(50, 205, 50)" stroke-width="2" stroke-linejoin="round" filter="url(#fuzzy)" /><polyline points="33.87,-76.81 33.98,-76.74 34.62,-76.35 35.38,-75.79 36.07,-75.21 36.6,-74.71 36.96,-74.3 37.17,-73.97 37.18,-73.74 36.95,-73.64 36.46,-73.71 35.66,-73.99 34.56,-74.49 33.16,-75.21 31.45,-76.13 29.4,-77.26 26.99,-78.61 24.19,-80.23 20.99,-82.16 17.42,-84.45" fill="none" stroke="rgb(50, 205, 50)" stroke-width="2" stroke-linejoin="round" filter="url(#fuzzy)" /><polyline points="15.76,-86.04 16.23,-86.04 16.95,-85.86 17.46,-85.65 17.75,-85.45 17.86,-85.26 17.78,-85.1 17.51,-84.95 17,-84.82 16.16,-84.73 14.85,-84.72 12.97,-84.82 10.44,-85.04 7.28,-85.35 3.56,-85.75 -0.73,-86.21 -5.7,-86.75" fill="none" stroke="rgb(50, 205, 50)" stroke-width="2" stroke-linejoin="round" filter="url(#fuzzy)" /><polyline points="58.96,-44.12 58.94,-44.23 59.32,-43.28 59.71,-42.16 59.95,-41.24 60,-40.68 59.81,-40.57 59.39,-40.88 58.75,-41.52 57.91,-42.42 56.86,-43.57 55.61,-44.99 54.11,-46.77 52.33,-48.95 50.24,-51.61 47.82,-54.8 45.08,-58.53 41.99,-62.84 38.46,-67.78 34.41,-73.42" fill="none" stroke="rgb(50, 205, 50)" stroke-width="2" stroke-linejoin="round" filter="url(#fuzzy)" /><polyline points="15.76,-86.04 16.01,-85.97 16.08,-85.56 15.52,-84.95 14.3,-84.16 12.46,-83.18 9.97,-81.98 6.82,-80.52 2.97,-78.78 -1.67,-76.77 -7.23,-74.52 -13.79,-72.08 -21.38,-69.46 -29.99,-66.57 -39.67,-63.19" fill="none" stroke="rgb(50, 205, 50)" stroke-width="2" stroke-linejoin="round" filter="url(#fuzzy)" /><polyline points="3.72,-88.63 3.17,-88.56 3.79,-88.52 4.72,-88.44 5.69,-88.3 6.62,-88.12 7.42,-87.91 8.04,-87.7 8.44,-87.48 8.61,-87.24 8.52,-87.01 8.14,-86.78 7.44,-86.56 6.42,-86.35 5.06,-86.12 3.34,-85.88 1.26,-85.6 -1.19,-85.29 -3.99,-84.94 -7.18,-84.55 -10.78,-84.09 -14.78,-83.59 -19.05,-83.19" fill="none" stroke="rgb(50, 205, 50)" stroke-width="2" stroke-linejoin="round" filter="url(#fuzzy)" /><polyline points="54.45,-52.99 54.76,-52.49 54.77,-51.94 54.43,-51.5 53.84,-51.04 52.98,-50.56 51.8,-50.16 50.23,-49.93 48.22,-49.9 45.76,-50.1 42.83,-50.52 39.42,-51.2 35.49,-52.18 31.02,-53.49 26,-55.13 20.47,-57.07 14.44,-59.25 7.93,-61.65 0.88,-64.24 -6.81,-67.02 -15.22,-69.98 -24.34,-73.14" fill="none" stroke="rgb(50, 205, 50)" stroke-width="2" stroke-linejoin="round" filter="url(#fuzzy)" /><polyline points="60.39,-40.86 60.69,-39.9 60.93,-38.96 60.83,-38.72 60.37,-39.13 59.61,-39.99 58.57,-41.17 57.24,-42.71 55.56,-44.72 53.47,-47.31 50.95,-50.56 47.95,-54.54 44.44,-59.35 40.29,-65.16 35.42,-71.97" fill="none" stroke="rgb(50, 205, 50)" stroke-width="2" stroke-linejoin="round" filter="url(#fuzzy)" /><polyline points="7.19,-88.03 8.95,-87.74 9.6,-87.58 9.9,-87.33 9.91,-86.98 9.45,-86.55 8.4,-86.1 6.74,-85.63 4.46,-85.12 1.52,-84.54 -2.09,-83.85 -6.38,-83.08 -11.28,-82.26 -16.77,-81.45 -23,-80.59" fill="none" stroke="rgb(50, 205, 50)" stroke-width="2" stroke-linejoin="round" filter="url(#fuzzy)" /><polyline points="5.19,-88.57 7.23,-88.1 8.96,-87.77 10.37,-87.51 11.69,-87.24 12.96,-86.93 14.12,-86.62 15.11,-86.35 15.88,-86.13 16.45,-85.98 16.81,-85.88 16.94,-85.83 16.82,-85.85 16.39,-85.95 15.55,-86.19 14.14,-86.59 12.11,-87.16" fill="none" stroke="rgb(50, 205, 50)" stroke-width="2" stroke-linejoin="round" filter="url(#fuzzy)" /><polyline points="-28.28,-80.61 -28.32,-80.61 -27.59,-81.05 -26.57,-81.6 -25.58,-82.09 -24.8,-82.44 -24.27,-82.65 -23.96,-82.73 -23.87,-82.67 -24.04,-82.47 -24.5,-82.07 -25.31,-81.47 -26.52,-80.6 -28.18,-79.43 -30.42,-77.88 -33.33,-75.94 -36.83,-73.73" fill="none" stroke="rgb(50, 205, 50)" stroke-width="2" stroke-linejoin="round" filter="url(#fuzzy)" /><polyline points="30,-79.6 31.04,-78.91 32.12,-78.13 33.03,-77.48 33.79,-76.93 34.48,-76.43 35.11,-75.94 35.66,-75.47 36.1,-75.05 36.4,-74.69 36.56,-74.41 36.55,-74.21 36.33,-74.13 35.87,-74.2 35.15,-74.44 34.19,-74.85 32.98,-75.44 31.54,-76.19 29.85,-77.1 27.88,-78.19 25.59,-79.47 23,-80.96 20.14,-82.69 16.99,-84.69" fill="none" stroke="rgb(50, 205, 50)" stroke-width="2" stroke-linejoin="round" filter="url(#fuzzy)" /><polyline points="-32.73,-77.84 -31.52,-78.36 -29.67,-78.96 -27.52,-79.38 -25.09,-79.6 -22.29,-79.73 -19.06,-79.84 -15.39,-79.95 -11.36,-80.03 -7.09,-80.05 -2.63,-80.01 1.99,-79.92 6.75,-79.81 11.64,-79.66 16.63,-79.42 21.62,-79.14 26.46,-78.95" fill="none" stroke="rgb(50, 205, 50)" stroke-width="2" stroke-linejoin="round" filter="url(#fuzzy)" /><polyline points="-32.73,-77.84 -12.55,-82.82 -0.65,-80.79 4.19,-77.88 2.98,-75.9 -0.63,-74.84 -2.8,-74.57 -1.39,-74.95 3.56,-75.65 10.5,-76.24 17.42,-76.53 22.56,-76.69 25.01,-77.09 25.08,-77.78 23.89,-78.29 21.93,-78.08 17.04,-77.34 5.03,-77.34 -12.86,-79.45 -12.78,-87.3" fill="none" stroke="rgb(50, 205, 50)" stroke-width="2" stroke-linejoin="round" filter="url(#fuzzy)" /><polyline points="54.45,-52.99 10.97,-69.27 9.25,-75.96 17.87,-75.17 26.74,-70.94 31.62,-67.4 32.43,-66.28 31.53,-66.93 31,-67.98 31.08,-68.84 30.67,-69.82 28.53,-71.4 23.57,-73.64 14.33,-75.88 -0.61,-76.55 -20.66,-73.39 -40.41,-66.02 -47.86,-63.03" fill="none" stroke="rgb(50, 205, 50)" stroke-width="2" stroke-linejoin="round" filter="url(#fuzzy)" /><polyline points="-18.67,-85.35 -26.48,-76.33 -15.77,-71.37 2.11,-68.87 16.49,-66.78 23.33,-65.99 23.81,-67.36 21.49,-70.13 19.67,-72.54 20.04,-73.03 22.75,-70.92 26.85,-66.68 30.72,-61.77 32.85,-57.96 32.89,-56.5 32.27,-57.55 32.9,-60.58 34.34,-65.38 33.21,-72.04 29.23,-78.38 33.87,-76.81" fill="none" stroke="rgb(50, 205, 50)" stroke-width="2" stroke-linejoin="round" filter="url(#fuzzy)" /><polyline points="-2.46,-88.71 17.7,-74.66 33.11,-62.06 32.96,-61.03 21.75,-65.62 6.7,-70.21 -6.34,-72.73 -14.19,-73.3 -16.4,-72.72 -14.38,-71.68 -10.07,-70.59 -4.86,-69.51 0.62,-68.33 6.02,-66.92 10.87,-65.3 14.56,-63.75 16.28,-62.77 14.9,-62.91 8.94,-64.5 -1.16,-67.41 -8.2,-70.96 3.64,-73.76 44.08,-67.61" fill="none" stroke="rgb(50, 205, 50)" stroke-width="2" stroke-linejoin="round" filter="url(#fuzzy)" /><polyline points="-14.52,-86.53 -28.95,-76.41 -26.58,-74.44 -20.15,-75.32 -13.25,-76.92 -5.17,-77.77 5,-76.58 16.78,-73.12 28.33,-68.51 37.21,-64.51 41.43,-62.46 40,-62.71 33.02,-64.95 21.96,-68.84 10.68,-74.12 5.5,-79.78 11.77,-82.54 33.87,-76.81" fill="none" stroke="rgb(50, 205, 50)" stroke-width="2" stroke-linejoin="round" filter="url(#fuzzy)" /><polyline points="30.85,-79.06 23.72,-66.56 10.6,-67.88 9.99,-69.87 16.35,-68.17 24.13,-63.92 29.51,-60.26 30.31,-59.38 26.67,-61.23 20.89,-64.2 15.81,-66.65 13.11,-68.08 12.55,-69.17 12.76,-70.92 12.75,-73.7 12.65,-76.79 12.65,-78.58 12.37,-77.03 16.37,-69.65 55.79,-50.35" fill="none" stroke="rgb(50, 205, 50)" stroke-width="2" stroke-linejoin="round" filter="url(#fuzzy)" /><polyline points="0.56,-88.54 -29.74,-72.36 -37.35,-70.18 -37.05,-70.45 -31.66,-69.8 -21.59,-67.68 -9.05,-64.92 2.28,-62.84 9.66,-62.35 12.82,-63.32 13.48,-64.89 13.89,-66.29 15.42,-67.53 17.62,-69.38 18.28,-72.52 14.96,-76.66 8.17,-80.29 4.38,-81.36 15.17,-77.57 47.98,-63.09" fill="none" stroke="rgb(50, 205, 50)" stroke-width="2" stroke-linejoin="round" filter="url(#fuzzy)" /><polyline points="36.74,-74.63 35.57,-70.91 31.58,-69.16 21.63,-72.95 12.15,-77.53 7.14,-80.79 6.75,-82.54 8.95,-82.98 11.4,-82.32 12.39,-80.76 11.23,-78.51 8.62,-75.73 6.59,-72.65 7.27,-69.82 11.14,-68.13 16.31,-68.37 20.87,-70.37 26.14,-72.48 34.81,-71.92 47.99,-62.95" fill="none" stroke="rgb(50, 205, 50)" stroke-width="2" stroke-linejoin="round" filter="url(#fuzzy)" /><polyline points="-47.48,-63.59 9.82,-59.68 22.54,-64.01 20.01,-67.69 9.94,-69.63 -2.39,-69.21 -11.86,-66.89 -15.24,-64.08 -12.79,-62.26 -7.32,-62.22 -1.83,-63.77 2.16,-66.03 3.63,-68.07 0.39,-69.22 -9.25,-68.87 -20.01,-66.64 -12.91,-64.11 44.08,-67.61" fill="none" stroke="rgb(50, 205, 50)" stroke-width="2" stroke-linejoin="round" filter="url(#fuzzy)" /><polyline points="37.53,-74.09 25.31,-80.29 19.65,-79.58 11,-78.54 2.42,-79.06 -1,-80 2.49,-79.68 10.9,-77.52 20.1,-74.59 25.8,-73.02 25.55,-74.44 20.09,-78.6 13.07,-83.27 8.05,-86.2 3.13,-87.09 -12.78,-87.3" fill="none" stroke="rgb(50, 205, 50)" stroke-width="2" stroke-linejoin="round" filter="url(#fuzzy)" /><polyline points="3.72,-88.63 27.91,-72.81 36.62,-64.15 39.22,-58.99 33.92,-58.82 22.92,-61.8 11.57,-64.95 4.24,-66.41 2.03,-66.03 3.33,-64.79 5.85,-63.79 8.27,-63.66 10.63,-64.46 13.45,-65.91 16.9,-67.66 20.56,-69.64 23.62,-72.15 24.97,-75.6 23.56,-79.75 19.78,-83.31 10.23,-87.48" fill="none" stroke="rgb(50, 205, 50)" stroke-width="2" stroke-linejoin="round" filter="url(#fuzzy)" /><polyline points="20.38,-84.61 6.89,-83.45 9.4,-77.34 16.35,-73.04 18.51,-71.92 15.85,-72.39 11.49,-73.08 7.75,-73.49 5.5,-73.37 4.63,-72.3 4.57,-70.06 4.59,-67.05 4.11,-64.29 2.58,-62.68 -0.82,-62.44 -6.97,-63.17 -15.19,-64.65 -20.76,-67.26 -14.86,-71.33 8.97,-75.17 41.39,-70.63" fill="none" stroke="rgb(50, 205, 50)" stroke-width="2" stroke-linejoin="round" filter="url(#fuzzy)" /><polyline points="18.01,-85.34 18.12,-84.88 19.7,-80.39 19.8,-74 17.46,-70.07 14.65,-69.69 12.62,-71.07 10.88,-72.12 8.41,-72.01 4.88,-71.2 1.08,-70.53 -1.5,-70.3 -1.56,-70.06 0.7,-69.2 2.93,-67.83 1.76,-66.99 -3.98,-67.88 -10.25,-70.52 -8.33,-73.82 8,-77.94 25.6,-82.35" fill="none" stroke="rgb(50, 205, 50)" stroke-width="2" stroke-linejoin="round" filter="url(#fuzzy)" /><polyline points="9.98,-87.83 20.69,-80.68 20.4,-74.95 18.87,-71.76 18.09,-71.13 16.85,-71.86 14.3,-72.64 10.55,-72.88 6.33,-72.64 2.52,-72.31 -0.32,-72.26 -1.97,-72.62 -2.08,-73.14 -0.08,-73.28 4.4,-72.48 10.71,-70.52 16.94,-67.73 20.77,-64.97 21.04,-63.32 18.87,-63.48 16.85,-65.49 16.28,-68.85 14.48,-73.48 5.83,-80.8 -4.81,-88.44" fill="none" stroke="rgb(50, 205, 50)" stroke-width="2" stroke-linejoin="round" filter="url(#fuzzy)" /><polyline points="21.88,-83.84 38.68,-69.17 39.25,-68.21 33.86,-70.38 26.78,-72.61 19.82,-74.22 14.86,-74.72 13.45,-73.46 14.8,-70.45 15.31,-66.77 10.87,-63.97 0.33,-63.17 -12.71,-64.48 -21.72,-67.22 -21.2,-70.13 -8.67,-70.57 18.65,-62.9 63.5,-32.32" fill="none" stroke="rgb(50, 205, 50)" stroke-width="2" stroke-linejoin="round" filter="url(#fuzzy)" /><polyline points="35.62,-75.77 28.81,-54.82 14.26,-51.25 11.01,-51.98 15.82,-53.88 23.3,-56.8 29.2,-60.76 31.76,-65.09 31.42,-68.65 29.35,-70.42 26.17,-70.04 21.65,-67.95 15.59,-64.98 9.1,-61.94 4.73,-59.44 4.77,-58.14 8.9,-59.04 13.81,-62.92 17.05,-68.98 21.87,-73.49 34.49,-70.68 52.51,-56.31" fill="none" stroke="rgb(50, 205, 50)" stroke-width="2" stroke-linejoin="round" filter="url(#fuzzy)" /><polyline points="33.52,-76.88 27.21,-74.46 11.62,-72.77 1.46,-69.91 -4.33,-68.33 -7.23,-67.93 -6.83,-67.43 -2.97,-66.34 3.39,-65.23 10.55,-64.93 16.64,-65.86 20.04,-67.77 19.75,-70.01 15.88,-71.83 9.49,-72.73 2.45,-72.65 -2.38,-71.77 -0.21,-69.79 14.64,-64.91 41.7,-52.91 63.88,-30.82" fill="none" stroke="rgb(50, 205, 50)" stroke-width="2" stroke-linejoin="round" filter="url(#fuzzy)" /><polyline points="45.97,-65.74 31.31,-72.83 24.13,-73.77 19.87,-75.59 19.14,-76.93 19.41,-76.7 17.95,-74.92 13.5,-72.46 6.42,-70.61 -1.69,-70.2 -8.66,-70.97 -12.45,-72.06 -11.65,-72.82 -5.8,-73.32 4.14,-73.75 16.06,-73.5 27.69,-71.51 34.69,-70.05 20.38,-84.61" fill="none" stroke="rgb(50, 205, 50)" stroke-width="2" stroke-linejoin="round" filter="url(#fuzzy)" /><polyline points="60.39,-40.86 20.16,-59.56 26.78,-61.58 36.21,-60.11 38.73,-60.3 35.76,-62.22 31.26,-64.23 27.92,-65.05 25.88,-64.66 23.46,-64 19.12,-64.15 13.01,-65.61 7.04,-68.05 3.62,-70.65 4.01,-72.63 7.31,-73.64 10.69,-74.03 10.83,-74.55 5.84,-75.79 -3.72,-77.43 -15.43,-78.38 -24.17,-79.02 -14.52,-86.53" fill="none" stroke="rgb(50, 205, 50)" stroke-width="2" stroke-linejoin="round" filter="url(#fuzzy)" /><polyline points="-17.99,-85.39 3.58,-70.29 2.52,-59.79 -1.57,-57.28 -6.84,-60.72 -10.19,-65.32 -8.53,-68.07 -1.22,-68.71 9.03,-68.51 17.39,-68.79 19.83,-70.31 15.94,-73.22 9.42,-76.94 5.57,-79.99 7.85,-79.36 20.02,-68.96 62,-35.94" fill="none" stroke="rgb(50, 205, 50)" stroke-width="2" stroke-linejoin="round" filter="url(#fuzzy)" /><polyline points="35.62,-75.77 7.04,-79.5 4.13,-82.56 1.93,-84.6 -2.15,-84.88 -6.5,-82.87 -9.31,-78.72 -9.41,-73.51 -6.45,-68.75 -0.87,-65.7 6.25,-64.83 13.31,-65.91 18.44,-68.39 20.16,-71.67 18.1,-75.08 13.42,-77.8 8.53,-79.01 5.97,-78.32 6.96,-76.28 10.79,-74.29 15.58,-73.66 20.01,-74.04 20.31,-74.92 -7.29,-88.16" fill="none" stroke="rgb(50, 205, 50)" stroke-width="2" stroke-linejoin="round" filter="url(#fuzzy)" /><polyline points="59.58,-43.07 18.01,-66.5 12.48,-75.62 8.42,-78.81 1.45,-79.39 -5.57,-79.13 -10.3,-78.7 -12.21,-78.27 -12.02,-77.87 -10.87,-77.36 -9.57,-76.53 -8,-75.28 -5.1,-73.74 0.35,-71.97 8.69,-69.49 18.28,-65.55 24.15,-60.59 16.98,-57.97 -12.4,-61.17 -52.68,-56.03" fill="none" stroke="rgb(50, 205, 50)" stroke-width="2" stroke-linejoin="round" filter="url(#fuzzy)" /><polyline points="-13.29,-86.8 26.45,-63.81 27.94,-63.28 19.55,-65.69 9.64,-68.5 1.39,-71.91 -2.34,-75.07 -0.09,-76.76 6.95,-76.5 15.76,-74.74 23.57,-72.24 29.74,-69.15 35.73,-64.81 42.62,-59.1 47.88,-54.73 44.49,-58.4 20.91,-84.42" fill="none" stroke="rgb(50, 205, 50)" stroke-width="2" stroke-linejoin="round" filter="url(#fuzzy)" /><polyline points="-35.49,-75.81 -2.21,-81.17 5.69,-81.64 7.19,-78.96 6.84,-74.84 3.32,-70.94 -2.69,-67.8 -8.15,-65.37 -10.42,-63.82 -8.8,-63.46 -4.09,-64.17 2.1,-65.24 7.63,-66.16 10.24,-67.45 8.9,-70.44 5.11,-75.28 2.52,-79.14 8.51,-76.89 47.16,-64.27" fill="none" stroke="rgb(50, 205, 50)" stroke-width="2" stroke-linejoin="round" filter="url(#fuzzy)" /><polyline points="5.68,-88.55 -11.21,-84.56 -11,-81.08 -3,-77.4 5.79,-73.11 14.6,-68.48 23.44,-64.43 30.6,-62.19 34.31,-62.38 34.95,-64.11 34.91,-65.34 36.54,-64.36 39.74,-61.73 40.54,-61.81 32.91,-71.18 20.07,-84.62" fill="none" stroke="rgb(50, 205, 50)" stroke-width="2" stroke-linejoin="round" filter="url(#fuzzy)" /><polyline points="15.76,-86.04 8.35,-72.23 25.59,-62.34 38.84,-57.75 46.37,-54.87 50.4,-52.44 51.93,-51.18 50.76,-52.23 46.61,-55.95 39.92,-61.62 32.1,-67.71 25.14,-72.54 20.89,-74.91 20.17,-74.61 22.29,-72.46 25.14,-70.02 25.99,-68.9 22.73,-69.95 15.06,-72.63 5.42,-74.95 -1.19,-73.97 -0.5,-67.57 -0.01,-58.14 -47.86,-63.03" fill="none" stroke="rgb(50, 205, 50)" stroke-width="2" stroke-linejoin="round" filter="url(#fuzzy)" /><polyline points="29.03,-80.25 14,-83.49 3.07,-81.94 -2.57,-77.37 -6.76,-73.11 -10.24,-71.23 -12.71,-71.78 -14.54,-73.67 -16.25,-75.58 -17.66,-76.64 -17.98,-76.54 -16.6,-75.5 -13.84,-73.93 -11,-72.29 -9.65,-70.95 -10.38,-70.23 -12.02,-70.48 -12.17,-71.85 -9.29,-74.05 -4.78,-76.02 -0.88,-75.76 9.85,-69.29 57.97,-46.68" fill="none" stroke="rgb(50, 205, 50)" stroke-width="2" stroke-linejoin="round" filter="url(#fuzzy)" /><polyline points="-48.55,-61.96 -21.96,-72.35 0.5,-65.42 17.86,-58.79 24.61,-57.95 22.49,-61.27 16.61,-65.93 11.78,-69.87 10.72,-71.98 13.71,-71.91 19.29,-70.07 25.51,-67.28 30.96,-64.18 34.81,-61.11 35.85,-58.7 31.44,-58.52 18.55,-62.17 -1.02,-68.71 -12.27,-74.72 18.01,-85.34" fill="none" stroke="rgb(50, 205, 50)" stroke-width="2" stroke-linejoin="round" filter="url(#fuzzy)" /><polyline points="-32.04,-78.15 -0.43,-75.03 8.55,-72.59 17.98,-67.55 24.16,-62.49 25.33,-60.09 23.25,-60.63 19.1,-62.8 12.42,-65.27 3.03,-67.49 -7.47,-69.53 -16.5,-71.48 -22.47,-73.13 -25.51,-74.12 -25.8,-74.81 -21.47,-76.49 -9.65,-80.1 7.66,-84.01 15.76,-86.04" fill="none" stroke="rgb(50, 205, 50)" stroke-width="2" stroke-linejoin="round" filter="url(#fuzzy)" /><polyline points="15.76,-86.04 0.12,-75.75 12.27,-72.38 18.91,-73.11 18.16,-75.25 14.1,-76.99 9.3,-78.1 4.61,-79.1 0.39,-80.32 -2.77,-81.68 -4.17,-82.8 -3.55,-83.22 -1.64,-82.59 -0.16,-80.8 -1.02,-78.21 -5.1,-75.75 -10.92,-74.69 -14.6,-75.92 -11.84,-78.99 -2.21,-81.94 5.95,-83.3 -10.98,-87.69" fill="none" stroke="rgb(50, 205, 50)" stroke-width="2" stroke-linejoin="round" filter="url(#fuzzy)" /><polyline points="35.62,-75.77 8.18,-73.59 16.11,-71.06 23.88,-68.14 24.68,-67.01 20.02,-68.32 13.35,-71.19 7.77,-74.33 4.77,-76.78 3.85,-78.14 3.27,-78.48 1.85,-77.98 0.21,-76.78 0.62,-74.99 5.28,-72.82 14.29,-70.49 24.88,-68.06 32.71,-65.22 34.07,-61.88 27.91,-59.53 20.46,-61.19 50.59,-59.21" fill="none" stroke="rgb(50, 205, 50)" stroke-width="2" stroke-linejoin="round" filter="url(#fuzzy)" /><polyline points="27.13,-81.23 0.9,-64.39 3.38,-63.18 5.83,-68.48 8.4,-72.43 10.74,-73.07 11.53,-71.4 10.8,-68.94 9.91,-66.84 10.44,-65.64 13.22,-65.27 17.94,-65.24 23.28,-65.01 27.45,-64.4 28.91,-63.68 27.09,-63.38 22.65,-63.9 17.16,-65.21 12.06,-66.87 7.73,-68.07 3.43,-68.15 -1.92,-67.47 -8.8,-68.04 -17.81,-71.17 -45.31,-66.19" fill="none" stroke="rgb(50, 205, 50)" stroke-width="2" stroke-linejoin="round" filter="url(#fuzzy)" /><polyline points="-4.81,-88.44 30.35,-58.26 26.86,-58.04 18.53,-63.23 16.53,-65.9 19.97,-65.39 24.7,-63.83 27.55,-63.24 27.61,-64.23 25.91,-66.11 24.39,-67.65 24.81,-67.8 28.03,-66.11 33.67,-62.76 40.31,-58.55 46.14,-54.65 49.49,-52.22 49.23,-52.02 44.71,-54.16 35.34,-58.21 20.5,-64.01 2.36,-73.58 5.68,-88.55" fill="none" stroke="rgb(50, 205, 50)" stroke-width="2" stroke-linejoin="round" filter="url(#fuzzy)" /><polyline points="15.65,-86.27 27.95,-72.32 15.12,-74.24 5.07,-75.13 4.82,-72.74 9.61,-69.26 13.12,-67.1 12.99,-67.21 11,-69.02 10.51,-71.34 13.51,-73.13 19.1,-73.9 24.14,-73.65 26.6,-72.27 29.49,-68.44 41.14,-59.03 59.58,-43.07" fill="none" stroke="rgb(50, 205, 50)" stroke-width="2" stroke-linejoin="round" filter="url(#fuzzy)" /><polyline points="-4.81,-88.44 -3.44,-88.35 -2.71,-88.14 -1.95,-88.04 -1.05,-88 -0.09,-87.97 0.88,-87.93 1.8,-87.88 2.69,-87.8 3.58,-87.7 4.53,-87.55 5.56,-87.34 6.68,-87.06 7.85,-86.72 9.02,-86.35 10.18,-85.94 11.34,-85.48 12.54,-84.93 13.68,-84.37 14.57,-84.06" fill="none" stroke="rgb(50, 205, 50)" stroke-width="2" stroke-linejoin="round" filter="url(#fuzzy)" /><polyline points="66.95,-15.47 66.6,-17.38 66.2,-18.34 65.71,-19.24 65.11,-20.28 64.48,-21.39 63.93,-22.53 63.53,-23.67 63.22,-24.84 62.89,-26.04 62.45,-27.26 61.87,-28.48 61.18,-29.67 60.42,-30.81 59.68,-31.87 59.01,-32.82 58.41,-33.52 57.83,-33.85 57.14,-33.85 56.23,-34.08" fill="none" stroke="rgb(50, 205, 50)" stroke-width="2" stroke-linejoin="round" filter="url(#fuzzy)" /><polyline points="-44.11,-98.32 -41.98,-98.49 -39.75,-97.62 -37.8,-96.92 -36.28,-96.66 -35.07,-96.64 -33.9,-96.53 -32.6,-96.13 -31.11,-95.43 -29.52,-94.52 -27.91,-93.58 -26.38,-92.79 -24.98,-92.38 -23.74,-92.53 -22.64,-93.25 -21.61,-94.28 -20.55,-95.14 -19.35,-95.37 -17.95,-94.77 -16.45,-93.54 -15.02,-92.12 -13.79,-90.77 -12.74,-89.53 -11.76,-88.33 -11.18,-87.39 -11.18,-87.39 -11.79,-88.81 -12.56,-88.63 -13.4,-88.61 -14.42,-88.91 -15.62,-89.35 -16.94,-89.86 -18.28,-90.32 -19.58,-90.61 -20.81,-90.61 -21.97,-90.37 -23.11,-90.07 -24.28,-89.88 -25.51,-89.94 -26.84,-90.22 -28.23,-90.62 -29.62,-91.03 -30.93,-91.34 -32.06,-91.47 -33.03,-91.36 -33.98,-91.02 -35.17,-90.65 -36.76,-90.68 -38.27,-91.01 -12.78,-87.3 -13.8,-87.18 -15.15,-87.4 -16.55,-87.51 -17.8,-87.36 -18.93,-87.13 -20.08,-87.06 -21.33,-87.32 -22.67,-87.94 -24.05,-88.82 -25.43,-89.77 -26.82,-90.54 -28.19,-90.88 -29.49,-90.73 -30.64,-90.29 -31.57,-90.09 -32.39,-90.68 -33.38,-91.55 -50.48,-102.07 -48.29,-99.96 -46.58,-99.42 -44.88,-98.83 -43.15,-98.13 -41.4,-97.47 -39.66,-96.9 -37.98,-96.4 -36.43,-95.93 -35,-95.47 -33.65,-95.07 -32.33,-94.77 -31.01,-94.58 -29.63,-94.33 -28.17,-93.7 -26.57,-92.39 -24.85,-90.41 -23.08,-88.23 -21.42,-86.52 -20.01,-85.7 -18.93,-85.63 -18.12,-85.86 -17.09,-86.06 -23.34,-83.13 -21.28,-84.06 -19.95,-84.49 -18.84,-84.63 -17.71,-84.5 -16.5,-84.1 -15.27,-83.53 -14.09,-82.91 -13.04,-82.34 -12.1,-81.85 -11.24,-81.42 -10.4,-81.06 -9.54,-80.71 -8.62,-80.33 -7.62,-79.85 -6.54,-79.27 -5.42,-78.64 -4.3,-78.03 -3.28,-77.41 -2.39,-76.63 -1.59,-75.53 -0.65,-74.31 0.85,-73.9 -24.35,-82.82 -28.11,-87.79 -29.55,-87.78 -30,-86.11 -30.36,-84.58 -31.1,-83.86 -32.28,-83.93 -33.75,-84.44 -35.28,-85 -36.71,-85.32 -37.97,-85.26 -39.06,-84.75 -40.05,-83.88 -41.05,-82.85 -42.17,-81.93 -43.48,-81.36 -44.93,-81.24 -46.42,-81.5 -47.85,-81.98 -49.17,-82.57 -50.4,-83.07 -51.55,-83.03 -53.02,-81.95" fill="none" stroke="rgb(50, 205, 50)" stroke-width="2" stroke-linejoin="round" filter="url(#fuzzy)" /><polyline points="-53.26,-77.26 -50.49,-77.32 -48.62,-77.47 -47.43,-77.71 -46.51,-77.87 -45.52,-77.8 -44.3,-77.54 -42.93,-77.3 -41.53,-77.31 -40.2,-77.66 -38.97,-78.16 -37.75,-78.54 -36.49,-78.59 -35.19,-78.37 -33.92,-78.15 -32.72,-78.2 -31.56,-78.66 -30.37,-79.41 -29.27,-80.26" fill="none" stroke="rgb(50, 205, 50)" stroke-width="2" stroke-linejoin="round" filter="url(#fuzzy)" /><polyline points="-71.16,-70.38 -69.06,-69.46 -66.09,-67.73 -63.7,-66.92 -61.82,-66.89 -60.09,-67.19 -58.31,-67.46 -56.41,-67.53 -54.42,-67.31 -52.42,-66.85 -50.55,-66.38 -48.94,-66.18 -47.64,-66.4 -46.59,-66.96 -45.56,-67.5 -43.81,-67.71 -36.1,-94.91 -36.97,-91.86 -37.68,-89.78 -38.2,-87.93 -38.63,-86.15 -39.12,-84.49 -39.72,-82.9 -40.35,-81.2 -40.92,-79.31 -41.39,-77.31 -41.77,-75.41 -42.06,-73.76 -42.27,-72.38 -42.41,-71.19 -42.56,-70.14 -42.9,-69.1 -43.81,-67.71" fill="none" stroke="rgb(50, 205, 50)" stroke-width="2" stroke-linejoin="round" filter="url(#fuzzy)" /><polyline points="-49.97,-42.19 -49.34,-43.4 -49.19,-44.7 -49.22,-46.2 -49.44,-47.83 -49.74,-49.47 -49.99,-51.02 -50.08,-52.46 -49.96,-53.85 -49.7,-55.28 -49.34,-56.78 -48.9,-58.27 -48.36,-59.64 -47.86,-60.87 -47.69,-62.11 -47.48,-63.59" fill="none" stroke="rgb(50, 205, 50)" stroke-width="2" stroke-linejoin="round" filter="url(#fuzzy)" /><polyline points="-47.86,-63.03 -48.12,-63.03 -47.97,-64.16 -48,-66.2 -48.51,-69.23 -49.44,-73.06 -50.46,-77.15 -51.27,-80.84 -51.63,-83.65 -51.49,-85.39 -50.93,-86.29 -50.13,-86.84 -49.33,-87.68 -48.71,-89.37 -48.3,-92.12 -47.98,-95.55 -48.06,-98.86" fill="none" stroke="rgb(50, 205, 50)" stroke-width="2" stroke-linejoin="round" filter="url(#fuzzy)" /><polyline points="-52.56,-56.42 -52.37,-57.08 -51.71,-58.36 -51.03,-59.79 -50.46,-61.28 -50.02,-62.8 -49.7,-64.36 -49.4,-65.94 -49.02,-67.47 -48.51,-68.91 -47.89,-70.26 -47.24,-71.62 -46.7,-73.07 -46.32,-74.64 -46.08,-76.28 -45.88,-77.9 -45.6,-79.43 -45.18,-80.91 -44.6,-82.43 -43.86,-84.02 -42.98,-85.56 -41.99,-86.92 -41.03,-88.11 -40.4,-89.36 -40.41,-90.08" fill="none" stroke="rgb(50, 205, 50)" stroke-width="2" stroke-linejoin="round" filter="url(#fuzzy)" /><polyline points="-54.38,-53.79 -55.03,-52.24 -55.65,-50.97 -56.26,-49.83 -56.86,-48.7 -57.42,-47.58 -57.94,-46.45 -58.44,-45.3 -58.93,-44.12 -59.4,-42.91 -59.86,-41.71 -60.28,-40.55 -60.67,-39.41 -61.04,-38.23 -61.42,-36.98 -61.81,-35.66 -62.18,-34.39 -62.48,-33.4 -62.62,-32.92 -62.55,-32.89" fill="none" stroke="rgb(50, 205, 50)" stroke-width="2" stroke-linejoin="round" filter="url(#fuzzy)" /><polyline points="65.97,-21.96 65.48,-23.55 65.18,-24.7 64.86,-25.8 64.47,-27 64.01,-28.31 63.49,-29.64 62.94,-30.95 62.4,-32.19 61.92,-33.33 61.49,-34.35 61.12,-35.26 60.76,-36.11 60.39,-37.01 59.94,-38.07 59.39,-39.31 58.76,-40.69 58.1,-42.06 57.51,-43.09 57.29,-42.88" fill="none" stroke="rgb(50, 205, 50)" stroke-width="2" stroke-linejoin="round" filter="url(#fuzzy)" /><polyline points="-55.04,-52.08 -54.63,-53.48 -54.24,-54.39 -53.74,-55.17 -53.13,-56.01 -52.46,-57 -51.76,-58.13 -51.06,-59.35 -50.39,-60.62 -49.76,-61.87 -49.18,-63.1 -48.63,-64.3 -48.08,-65.52 -47.48,-66.75 -46.83,-68.02 -46.11,-69.3 -45.34,-70.54 -44.59,-71.64 -43.96,-72.49 -43.58,-73.08 -43.57,-73.34 -56.18,-50.49 -55.31,-51.99 -54.77,-53.28 -54.42,-54.4 -54.18,-55.56 -53.94,-56.82 -53.6,-58.17 -53.1,-59.53 -52.48,-60.88 -51.81,-62.18 -51.13,-63.42 -50.45,-64.56 -49.76,-65.59 -49.04,-66.58 -48.29,-67.61 -47.54,-68.77 -46.8,-70.13 -46.08,-71.72 -45.47,-73.44 -45.31,-74.61 -57.85,-46.82 -58.32,-46.47 -58.09,-47.42 -57.69,-48.72 -57.37,-50.17 -57.22,-51.77 -57.22,-53.47 -57.36,-55.26 -57.59,-57.09 -57.87,-58.97 -58.14,-60.91 -58.33,-62.92 -58.37,-64.98 -58.21,-67.02 -57.88,-68.98 -57.45,-70.85 -57.08,-72.6 -56.82,-74.18 -56.57,-75.67 -56.38,-77.41" fill="none" stroke="rgb(50, 205, 50)" stroke-width="2" stroke-linejoin="round" filter="url(#fuzzy)" /><polyline points="-57.85,-46.82 -60.85,-45.57 -61.7,-43.88 -62.63,-42.82 -63.87,-42.2 -65.26,-41.66 -66.7,-41.02 -68.15,-40.26 -69.51,-39.42 -70.74,-38.52 -71.85,-37.57 -72.93,-36.57 -74.13,-35.55 -75.54,-34.56 -77.2,-33.61 -79.03,-32.67 -80.94,-31.67 -82.84,-30.55 -84.65,-29.33 -86.33,-28.15 -87.97,-27.35 -89.21,-27.83" fill="none" stroke="rgb(50, 205, 50)" stroke-width="2" stroke-linejoin="round" filter="url(#fuzzy)" /><polyline points="65.43,-24.09 71.53,-27.38 71.45,-28.45 70.19,-29.37 69.01,-30.55 68.45,-32.08 68.55,-33.9 69.05,-35.83 69.66,-37.69 70.25,-39.43 70.9,-41.1 71.69,-42.88 72.63,-44.88 73.57,-47.14 74.34,-49.58 74.82,-52.05 75.06,-54.41 75.27,-56.7 75.73,-59.17 76.46,-62.33 75.9,-65.63" fill="none" stroke="rgb(50, 205, 50)" stroke-width="2" stroke-linejoin="round" filter="url(#fuzzy)" /><polyline points="54.46,-42.29 55.3,-40.37 56.3,-38.96 57.32,-37.8 58.21,-36.81 58.86,-35.95 59.31,-35.18 59.68,-34.42 60.1,-33.6 60.65,-32.67 61.33,-31.65 62.1,-30.55 62.91,-29.38 63.69,-28.16 64.36,-26.93 64.85,-25.81 65.16,-24.9 65.43,-24.09" fill="none" stroke="rgb(50, 205, 50)" stroke-width="2" stroke-linejoin="round" filter="url(#fuzzy)" /><polyline points="-45.75,-49.11 -46.75,-48.18 -47.58,-47.83 -48.45,-47.47 -49.27,-46.89 -50.07,-46.16 -50.96,-45.44 -52,-44.83 -53.15,-44.32 -54.32,-43.84 -55.43,-43.3 -56.45,-42.62 -57.43,-41.79 -58.38,-40.9 -59.3,-40.15 -60.15,-39.89 -60.71,-40.42 -45.84,-55.57 -46.93,-55.18 -47.81,-54.31 -48.66,-53.46 -49.48,-52.72 -50.25,-52.06 -50.98,-51.41 -51.69,-50.71 -52.39,-49.92 -53.1,-49.05 -53.83,-48.14 -54.6,-47.24 -55.43,-46.37 -56.31,-45.55 -57.21,-44.72 -58.07,-43.84 -58.86,-42.86 -59.55,-41.81 -60.14,-40.78 -60.66,-39.82 -61.14,-38.86 -61.61,-37.73 -61.81,-36.8 -62.78,-34.34 -63.45,-36.95 -63.16,-38.5 -62.76,-39.76 -62.47,-40.97 -62.37,-42.34 -62.42,-43.91 -62.53,-45.61 -62.59,-47.33 -62.6,-49.02 -62.58,-50.72 -62.59,-52.49 -62.61,-54.3 -62.59,-56.09 -62.43,-57.75 -62.07,-59.17 -61.5,-60.35 -60.79,-61.33 -60.03,-62.26 -59.3,-63.31 -58.65,-64.62 -58.11,-66.29 -57.71,-68.39 -57.3,-70.96 -56.16,-73.97" fill="none" stroke="rgb(50, 205, 50)" stroke-width="2" stroke-linejoin="round" filter="url(#fuzzy)" /><polyline points="-62.78,-34.34 -62.15,-36.15 -61.7,-37.57 -61.28,-38.78 -60.87,-39.86 -60.43,-40.92 -59.95,-42.04 -59.44,-43.23 -58.93,-44.43 -58.42,-45.61 -57.9,-46.77 -57.36,-47.91 -56.8,-49.05 -56.22,-50.19 -55.62,-51.3 -55.04,-52.37 -54.47,-53.37 -53.93,-54.28 -53.4,-55.12 -52.82,-55.95 -52.12,-56.9 -51.01,-58.46 -63.17,-33.22 -64.89,-30.53 -67.2,-29.76 -69.09,-29.25 -70.28,-28.36 -70.99,-27.12 -71.46,-25.73 -71.89,-24.37 -72.45,-23.11 -73.25,-21.98 -74.27,-20.9 -75.39,-19.78 -76.47,-18.54 -77.39,-17.17 -78.15,-15.73 -78.88,-14.29 -79.95,-13.05 -82.51,-12.7 -64.3,-28.64 -63.51,-31.43 -63,-32.56 -62.58,-33.4 -62.17,-34.42 -61.72,-35.59 -61.21,-36.79 -60.65,-37.91 -60.04,-38.92 -59.35,-39.85 -58.57,-40.73 -57.66,-41.56 -56.63,-42.3 -55.49,-42.92 -54.31,-43.45 -53.13,-43.96 -52.03,-44.52 -51.08,-45.2 -50.33,-46.08 -49.68,-47.15 -48.6,-48.06" fill="none" stroke="rgb(50, 205, 50)" stroke-width="2" stroke-linejoin="round" filter="url(#fuzzy)" /><polyline points="64.92,-26.79 65.26,-25.86 65.97,-25.11 66.78,-24.2 67.48,-23.09 68.05,-21.87 68.64,-20.62 69.35,-19.37 70.16,-18.11 71.01,-16.8 71.8,-15.48 72.55,-14.19 73.29,-12.95 74.07,-11.75 74.87,-10.49 75.65,-9.09 76.39,-7.54 77.12,-5.86 77.84,-4.11 78.54,-2.29 79.27,-0.41 80.22,1.22 80.81,1.29" fill="none" stroke="rgb(50, 205, 50)" stroke-width="2" stroke-linejoin="round" filter="url(#fuzzy)" /><polyline points="63.5,-32.32 63.26,-33.28 63.43,-34.96 63.65,-36.33 63.69,-37.33 63.57,-38.29 63.42,-39.46 63.32,-40.95 63.26,-42.66 63.17,-44.45 62.97,-46.17 62.61,-47.78 62.09,-49.29 61.49,-50.79 60.95,-52.31 60.61,-53.83 60.58,-55.32 60.81,-56.81 61.12,-58.4 61.13,-59.49 62.33,-36.19 63.68,-37.51 63.54,-38.15 63.22,-39.28 63.09,-40.94 63.16,-42.9 63.38,-44.99 63.61,-47.07 63.66,-49.02 63.42,-50.77 62.99,-52.37 62.6,-53.98 62.52,-55.78 62.89,-57.89 63.63,-60.25 64.5,-62.72 65.27,-65.1 65.8,-67.28 66.11,-69.25 66.28,-71.11 66.36,-72.9 66.38,-74.56 66.45,-76.14 66.27,-77.57 61.78,-37.44 61.44,-39.95 61.47,-42.04 61.1,-43.66 60.46,-44.99 59.81,-46.3 59.22,-47.7 58.7,-49.12 58.21,-50.47 57.71,-51.67 57.19,-52.71 56.65,-53.64 56.12,-54.57 55.66,-55.56 55.32,-56.66 55.08,-57.86 54.9,-59.15 54.69,-60.48 54.37,-61.84 53.87,-63.27 53.2,-64.86 52.44,-66.63 51.79,-68.3 51.47,-69.87 59.58,-43.07 58.7,-44.23 58.05,-45.08 57.42,-46.3 56.77,-47.66 56.16,-48.91 55.57,-49.94 55,-50.76 54.39,-51.49 53.74,-52.18 53.07,-52.87 52.41,-53.55 51.78,-54.21 51.18,-54.88 50.53,-55.53 49.81,-56 49.32,-55.98 57.97,-46.68 58.98,-45.55 59.75,-44.81 60.44,-43.7 61.3,-42.45 62.35,-41.31 63.5,-40.37 64.68,-39.66 65.96,-39.16 67.44,-38.81 69.14,-38.49 70.96,-38.06 72.7,-37.39 74.23,-36.43 75.55,-35.23 76.79,-33.92 78.05,-32.65 79.26,-31.5 80.14,-30.37 80.54,-28.97 80.72,-26.86 41.76,-59.72 42.41,-58.67 43.11,-58.21 43.84,-57.62 44.72,-56.85 45.82,-56.13 47.12,-55.66 48.49,-55.44 49.8,-55.33 50.93,-55.15 51.89,-54.84 52.7,-54.38 53.44,-53.78 54.12,-53.02 54.73,-52.13 55.22,-51.34 55.61,-51.5" fill="none" stroke="rgb(50, 205, 50)" stroke-width="2" stroke-linejoin="round" filter="url(#fuzzy)" /><polyline points="51.25,-58.62 51.55,-59.57 50.77,-60.81 49.91,-62.31 49.29,-63.86 48.95,-65.45 48.8,-67.19 48.8,-69.13 48.88,-71.27 49.02,-73.54 49.17,-75.78 49.2,-77.85 48.96,-79.59 48.37,-80.99 47.47,-82.22 46.52,-83.61 45.89,-85.52 45.76,-88.19 45.06,-91.54 50.59,-59.21 48.93,-61.68 48.17,-63.04 47.81,-64.27 47.58,-65.64 47.33,-67.11 46.99,-68.55 46.57,-69.89 46.18,-71.21 45.87,-72.65 45.66,-74.33 45.46,-76.29 45.18,-78.42 44.74,-80.52 44.15,-82.3 43.46,-83.72 42.18,-85.69 47,-63.8 48.08,-63.38 49.24,-62.49 50.55,-61.53 51.71,-60.63 52.67,-59.81 53.56,-59.13 54.46,-58.57 55.37,-58.06 56.28,-57.54 57.18,-57 58.08,-56.42 58.97,-55.81 59.86,-55.13 60.73,-54.33 61.64,-53.38 62.61,-52.32 63.68,-51.22 64.81,-50.12 65.93,-49.03 67.05,-47.88 68.24,-46.61 69.55,-45.19 70.69,-42.83" fill="none" stroke="rgb(50, 205, 50)" stroke-width="2" stroke-linejoin="round" filter="url(#fuzzy)" /><polyline points="47,-63.8 48.68,-64.2 50.64,-64.3 52.64,-64.12 54.19,-63.59 55.14,-62.71 55.78,-61.72 56.52,-60.95 57.6,-60.57 59.05,-60.56 60.69,-60.7 62.28,-60.73 63.66,-60.56 64.9,-60.29 66.24,-60.12 67.96,-60.06 70.19,-59.74 73.47,-59.17" fill="none" stroke="rgb(50, 205, 50)" stroke-width="2" stroke-linejoin="round" filter="url(#fuzzy)" /><polyline points="45.97,-65.74 45.49,-67.16 45.08,-68.51 44.84,-69.9 44.53,-71.16 43.99,-72.27 43.28,-73.38 42.53,-74.62 41.83,-75.97 41.19,-77.34 40.57,-78.6 39.89,-79.71 39.11,-80.67 38.27,-81.57 37.5,-82.54 37.01,-83.75 36.78,-85.21 36.01,-86.4 54.02,-50.03 53.99,-50.21 53.63,-51.13 53.21,-52.19 52.78,-53.21 52.35,-54.14 51.91,-55.04 51.45,-55.95 50.93,-56.93 50.36,-58 49.71,-59.15 49.01,-60.36 48.28,-61.54 47.58,-62.66 46.91,-63.69 46.27,-64.68 45.59,-65.65 44.86,-66.59 44.12,-67.43 43.47,-68.11 43.1,-68.46 42.47,-69.21 43.84,-74.66 43.4,-76.99 42.61,-78.44 42,-79.88 41.36,-81.11 40.47,-81.8 39.33,-82.05 38.15,-82.24 37.11,-82.78 36.3,-83.91 35.68,-85.59 35.09,-87.55 34.41,-89.45 33.58,-91.02 32.63,-92.17 31.65,-92.96 30.71,-93.54 29.82,-94.13 28.89,-95.04 27.78,-96.57 26.34,-98.66 24.82,-100.22 41.39,-70.63 42.16,-69.44 42.59,-68.41 42.93,-67.41 43.38,-66.45 43.98,-65.55 44.64,-64.65 45.26,-63.71 45.79,-62.69 46.25,-61.55 46.69,-60.22 47.18,-58.72 47.75,-57.17 48.31,-55.8 48.66,-54.61 48.82,-52.9 39.24,-72.74 37.73,-73.92 36.81,-74.71 35.92,-75.48 35.06,-76.19 34.21,-76.83 33.34,-77.45 32.42,-78.08 31.43,-78.74 30.4,-79.42 29.38,-80.08 28.41,-80.71 27.49,-81.29 26.6,-81.84 25.7,-82.37 24.73,-82.92 23.66,-83.5 22.55,-84.07 21.48,-84.62 20.5,-85.1 19.66,-85.52 18.93,-85.9 18.39,-86.25 18.16,-86.5" fill="none" stroke="rgb(50, 205, 50)" stroke-width="2" stroke-linejoin="round" filter="url(#fuzzy)" /><polyline points="59.36,-80.57 57.28,-79.06 55.76,-79.25 54.51,-79.92 53.27,-80.41 51.91,-80.46 50.35,-80.11 48.6,-79.51 46.71,-78.79 44.78,-78.07 42.92,-77.44 41.26,-77.04 39.9,-77.05 38.88,-77.59 38.13,-78.63 37.48,-79.89 36.74,-80.81 35.79,-80.89 34.6,-80.06 32.49,-77.96 12.53,-107.13 12.26,-103.88 13.02,-101.93 14.3,-101.06 15.57,-100.53 16.58,-99.63 17.33,-98.19 17.97,-96.54 18.63,-95.17 19.37,-94.34 20.19,-93.97 21.02,-93.79 21.79,-93.38 22.39,-92.15 22.78,-89.44 23.35,-85.47 25.24,-82.56" fill="none" stroke="rgb(50, 205, 50)" stroke-width="2" stroke-linejoin="round" filter="url(#fuzzy)" /><polyline points="20.91,-84.42 20.31,-84.6 19.67,-84.89 18.96,-85.27 18.25,-85.74 17.56,-86.36 16.87,-87.15 16.18,-88.08 15.44,-89.06 14.6,-89.99 13.64,-90.78 12.56,-91.39 11.39,-91.83 10.16,-92.13 8.88,-92.39 7.57,-92.71 6.3,-93.19 5.11,-93.77 4.07,-94.29 3.39,-94.61 3.99,-95.1 35.27,-69.64 34.13,-71.48 33.32,-72.73 32.67,-73.61 32.01,-74.39 31.26,-75.25 30.42,-76.2 29.51,-77.16 28.58,-78.04 27.67,-78.76 26.81,-79.3 25.98,-79.67 25.11,-79.97 24.15,-80.38 23.09,-81.08 22,-82.13 21.04,-83.35 20.44,-84.31 20.38,-84.61 18.19,-85.6 18.72,-85.57 19.66,-85.69 20.62,-85.76 21.7,-85.71 22.92,-85.55 24.2,-85.35 25.42,-85.13 26.49,-84.9 27.44,-84.61 28.32,-84.2 29.22,-83.61 30.19,-82.87 31.29,-82.12 32.48,-81.5 33.71,-81.12 34.83,-81 35.75,-81.17 36.73,-81.7" fill="none" stroke="rgb(50, 205, 50)" stroke-width="2" stroke-linejoin="round" filter="url(#fuzzy)" /><polyline points="15.65,-86.27 15.5,-86.46 14.96,-86.98 14.15,-87.73 13.15,-88.69 12.06,-89.84 10.96,-91.17 9.84,-92.62 8.67,-94.12 7.48,-95.51 6.29,-96.67 5.17,-97.6 4.15,-98.47 3.26,-99.45 2.44,-100.57 1.6,-101.75 1.18,-102.53" fill="none" stroke="rgb(50, 205, 50)" stroke-width="2" stroke-linejoin="round" filter="url(#fuzzy)" /><polyline points="14.98,-86.39 14.21,-88 13.36,-91.45 12.31,-93.79 11.1,-94.37 9.79,-94.28 8.46,-94.58 7.2,-95.7 6.05,-97.53 4.99,-99.65 4,-101.57 3.02,-103.01 2,-103.97 0.91,-104.77 -0.24,-105.76 -1.41,-107.07 -2.56,-108.44 -3.71,-109.42 -4.98,-109.79 -6.55,-109.83 -8.43,-110.4 -10.03,-113.16" fill="none" stroke="rgb(50, 205, 50)" stroke-width="2" stroke-linejoin="round" filter="url(#fuzzy)" /><polyline points="5.68,-88.55 4.1,-88.71 3.12,-89.47 2.33,-90.61 1.46,-91.6 0.49,-92.18 -0.51,-92.37 -1.51,-92.34 -2.51,-92.26 -3.55,-92.22 -4.68,-92.22 -5.9,-92.28 -7.19,-92.45 -8.48,-92.8 -9.73,-93.37 -10.88,-94.07 -11.91,-94.72 -12.89,-95 -14.46,-94.46" fill="none" stroke="rgb(50, 205, 50)" stroke-width="2" stroke-linejoin="round" filter="url(#fuzzy)" /><polyline points="-23.34,-83.13 -23.11,-84.38 -22.11,-85.35 -19.33,-86.14 -16.2,-86.77 -13.4,-87.25 -10.99,-87.62 -8.81,-87.9 -6.67,-88.11 -4.47,-88.25 -2.15,-88.32 0.33,-88.33 2.99,-88.25 5.82,-88.09 8.78,-87.86 11.81,-87.54 14.82,-87.15 17.77,-86.69 20.65,-86.16 23.51,-85.56 26.47,-84.89 29.64,-84.15 33.08,-83.32 36.75,-82.41 40.55,-81.42 44.39,-80.35 48.27,-79.21 52.36,-78.01 56.85,-76.77 61.85,-75.49 67.17,-74.12 72.37,-72.54 77.35,-70.63 83.53,-68.46" fill="none" stroke="rgb(50, 205, 50)" stroke-width="2" stroke-linejoin="round" filter="url(#fuzzy)" /><polyline points="-30.2,-79.4 -29.64,-80.41 -28.86,-81.38 -27.47,-82.34 -25.83,-83.28 -24.11,-84.14 -22.32,-84.92 -20.47,-85.6 -18.51,-86.19 -16.35,-86.71 -13.95,-87.16 -11.35,-87.54 -8.6,-87.85 -5.8,-88.08 -2.98,-88.23 -0.17,-88.29 2.67,-88.27 5.58,-88.15 8.6,-87.95 11.75,-87.67 15.06,-87.31 18.53,-86.88 22.19,-86.39 26.07,-85.84 30.21,-85.23 34.62,-84.55 39.27,-83.77 44.12,-82.9 49.08,-81.92 54.08,-80.84 59.04,-79.67 63.94,-78.43 68.85,-77.11 73.91,-75.72 79.27,-74.26 84.95,-72.75 90.74,-71.16 95.87,-69.21" fill="none" stroke="rgb(50, 205, 50)" stroke-width="2" stroke-linejoin="round" filter="url(#fuzzy)" /><polyline points="-42.25,-69.57 -41.99,-70.53 -42.49,-72.04 -42.91,-73.64 -42.61,-75.15 -41.48,-76.54 -39.66,-77.83 -37.38,-79.03 -34.92,-80.16 -32.48,-81.22 -30.21,-82.21 -28.1,-83.16 -26.07,-84.05 -23.99,-84.87 -21.77,-85.61 -19.38,-86.27 -16.84,-86.83 -14.21,-87.28 -11.53,-87.65 -8.81,-87.92 -6.05,-88.12 -3.2,-88.24 -0.21,-88.28 2.97,-88.25 6.4,-88.14 10.1,-87.94 14.06,-87.67 18.21,-87.31 22.41,-86.89 26.57,-86.4 30.64,-85.85 34.7,-85.23 38.93,-84.52 43.5,-83.72 48.25,-82.85 52.33,-82.05 54.21,-81.68" fill="none" stroke="rgb(50, 205, 50)" stroke-width="2" stroke-linejoin="round" filter="url(#fuzzy)" /><polyline points="-59.97,-42.07 -63.92,-39.71 -67.55,-37.32 -70.44,-34.98 -73.7,-32.67 -77.68,-30.36 -82.18,-28.03 -86.64,-25.63 -90.25,-23.15 -92.37,-20.58 -92.86,-17.91 -92.1,-15.19 -90.79,-12.46 -89.62,-9.74 -89.12,-7.07 -89.54,-4.43 -90.87,-1.79 -92.92,0.89 -95.39,3.62 -97.98,6.41 -100.45,9.24 -102.68,12.07 -104.65,14.85 -106.43,17.56 -108.05,20.17 -109.54,22.68 -110.9,25.09 -112.05,27.47 -112.67,29.91 -112.94,32.5 -114.91,35.13" fill="none" stroke="rgb(50, 205, 50)" stroke-width="2" stroke-linejoin="round" filter="url(#fuzzy)" /><polyline points="64.92,-26.79 66.16,-24.65 67.82,-22.05 69.48,-19.44 71.63,-16.91 74.24,-14.4 76.75,-11.85 78.6,-9.17 79.56,-6.36 79.82,-3.47 79.73,-0.59 79.62,2.21 79.63,4.88 79.7,7.45 79.68,9.97 79.43,12.47 78.94,14.99 78.29,17.52 77.68,20.06 77.27,22.6 77.21,25.13 77.55,27.65 78.28,30.17 79.32,32.68 80.52,35.18 81.72,37.64 82.75,40.06 83.44,42.43 83.73,44.77 83.62,47.1 83.21,49.39 82.66,51.63 82.13,53.76 81.75,55.82 81.26,58 79.48,60.62" fill="none" stroke="rgb(50, 205, 50)" stroke-width="2" stroke-linejoin="round" filter="url(#fuzzy)" /><polyline points="59.58,-43.07 57.31,-40.19 56.24,-37.58 57.17,-35.18 58.43,-32.78 59.16,-30.3 59.12,-27.74 58.4,-25.15 57.27,-22.54 56.06,-19.95 54.97,-17.37 54,-14.78 53.03,-12.15 51.95,-9.45 50.73,-6.68 49.46,-3.86 48.26,-1.05 47.2,1.72 46.29,4.42 45.51,7.03 44.79,9.58 44.09,12.1 43.38,14.63 42.6,17.17 41.68,19.71 40.51,22.25 39,24.78 37.12,27.31 34.89,29.85 32.43,32.38 29.9,34.91 27.44,37.39 25.16,39.81 23.07,42.15 21.13,44.45 19.31,46.85 17.64,49.54 16.1,52.19" fill="none" stroke="rgb(50, 205, 50)" stroke-width="2" stroke-linejoin="round" filter="url(#fuzzy)" /><polyline points="58.43,-45.37 60.53,-41.61 61.87,-38.98 62.56,-36.81 63.1,-34.6 63.73,-32.21 64.46,-29.67 65.23,-27.05 65.96,-24.4 66.61,-21.71 67.16,-18.98 67.62,-16.2 68,-13.39 68.32,-10.58 68.59,-7.81 68.81,-5.08 68.97,-2.4 69.08,0.23 69.12,2.85 69.11,5.48 69.05,8.13 68.95,10.8 68.8,13.47 68.62,16.13 68.38,18.75 68.08,21.31 67.71,23.82 67.29,26.28 66.8,28.72 66.26,31.18 65.65,33.68 64.95,36.21 64.19,38.74 63.41,41.2 62.61,43.65 61.59,46.36" fill="none" stroke="rgb(50, 205, 50)" stroke-width="2" stroke-linejoin="round" filter="url(#fuzzy)" /><polyline points="51.25,-58.62 59.23,-56.75 59.24,-55.02 58.75,-53.12 59.52,-50.96 61.81,-48.57 65.29,-46.05 69.29,-43.5 73.11,-40.98 76.35,-38.5 79.04,-36.07 81.5,-33.64 84.02,-31.19 86.72,-28.7 89.57,-26.17 92.52,-23.61 95.6,-21.05 98.88,-18.51 102.29,-16.03 105.55,-13.62 108.37,-11.22 110.79,-8.72 113.33,-5.85 116.56,-2.29 120.92,2.45" fill="none" stroke="rgb(50, 205, 50)" stroke-width="2" stroke-linejoin="round" filter="url(#fuzzy)" /><polyline points="33.52,-76.88 38.24,-75.75 41.64,-74.41 43.05,-72.81 44.02,-71.09 45.22,-69.34 46.63,-67.58 48.14,-65.77 49.79,-63.88 51.69,-61.9 54.03,-59.87 56.89,-57.81 60.21,-55.76 63.81,-53.71 67.38,-51.64 70.67,-49.54 73.51,-47.36 75.92,-45.12 78.02,-42.81 80.03,-40.46 82.16,-38.08 84.63,-35.67 87.55,-33.23 91.02,-30.75 95.01,-28.22 99.37,-25.63 103.79,-22.99 107.88,-20.3 111.26,-17.54 113.82,-14.72 115.78,-11.85 117.56,-8.95 119.47,-6.1 121.46,-3.37 123.28,-0.89 124.86,1.25 125.67,3.22" fill="none" stroke="rgb(50, 205, 50)" stroke-width="2" stroke-linejoin="round" filter="url(#fuzzy)" /><polyline points="13.52,-87.12 14.77,-86.57 16.25,-86.06 17.96,-85.46 19.79,-84.73 21.66,-83.91 23.51,-83.01 25.33,-82.03 27.11,-80.97 28.87,-79.83 30.61,-78.63 32.31,-77.37 33.99,-76.05 35.65,-74.65 37.3,-73.17 38.93,-71.61 40.56,-69.98 42.15,-68.29 43.71,-66.54 45.23,-64.72 46.71,-62.8 48.15,-60.79 49.54,-58.72 50.82,-56.65 51.96,-54.65 52.96,-52.76 53.84,-50.94 54.69,-49.12 55.55,-47.18 56.28,-45.37" fill="none" stroke="rgb(50, 205, 50)" stroke-width="2" stroke-linejoin="round" filter="url(#fuzzy)" /><polyline points="7.19,-88.03 10.13,-87.68 13.02,-87.18 15.42,-86.65 17.51,-86.1 19.56,-85.48 21.69,-84.78 23.91,-83.99 26.23,-83.12 28.59,-82.17 30.96,-81.15 33.32,-80.05 35.66,-78.88 38,-77.66 40.35,-76.39 42.73,-75.04 45.15,-73.61 47.67,-72.07 50.34,-70.44 53.22,-68.78 56.23,-67.16 59.07,-65.6 61.28,-64.16 62.68,-63.09" fill="none" stroke="rgb(50, 205, 50)" stroke-width="2" stroke-linejoin="round" filter="url(#fuzzy)" /><polyline points="3.71,-88.54 6.33,-88.28 9.01,-87.82 11.79,-87.32 14.71,-86.8 17.65,-86.26 20.53,-85.69 23.42,-85.05 26.46,-84.32 29.8,-83.48 33.5,-82.53 37.46,-81.47 41.5,-80.33 45.42,-79.11 49.09,-77.82 52.52,-76.46 55.79,-75.06 58.98,-73.6 62.16,-72.09 65.37,-70.54 68.63,-68.94 71.99,-67.27 75.53,-65.53 79.46,-63.72 84.06,-61.87 89.64,-60.01 96.33,-58.19 103.85,-56.43 111.4,-54.71 117.92,-52.96 122.72,-51.1 126.02,-48.95" fill="none" stroke="rgb(50, 205, 50)" stroke-width="2" stroke-linejoin="round" filter="url(#fuzzy)" /><polyline points="1.94,-88.49 4.75,-88.37 7.04,-88.05 8.91,-87.63 10.53,-87.15 12.07,-86.62 13.61,-86.04 15.17,-85.4 16.78,-84.67 18.45,-83.87 20.16,-82.98 21.79,-82 23.2,-80.95 24.27,-79.83 24.94,-78.64 25.23,-77.37 25.23,-76.04 25.08,-74.64 24.99,-73.15 25.12,-71.6 25.6,-69.97 26.39,-68.27 27.36,-66.5 28.29,-64.66 28.94,-62.74 29.18,-60.74 28.98,-58.7 28.43,-56.66 27.63,-54.65 26.71,-52.69 25.75,-50.75 24.86,-48.75 24.23,-46.54 24.11,-43.96 24.42,-40.88 22.86,-37.44" fill="none" stroke="rgb(50, 205, 50)" stroke-width="2" stroke-linejoin="round" filter="url(#fuzzy)" />
    </g>
    
        <g id="pointNose">
          <g id="rightNose"><circle r="2.52" cx="7.129999999999999" cy="19.664" stroke="black" fill="none" stroke-width="1.0" filter="url(#fuzzy)" /><circle r="2.5620000000000003" cx="9.626" cy="20.768" stroke="black" fill="none" stroke-width="1.0" filter="url(#fuzzy)" /><circle r="2.15" cx="6.43" cy="22.892" stroke="black" fill="none" stroke-width="1.0" filter="url(#fuzzy)" /><circle r="1.042" cx="8.370000000000001" cy="20.1" stroke="black" fill="none" stroke-width="1.0" filter="url(#fuzzy)" /><circle r="2.452" cx="6.698" cy="22.064" stroke="black" fill="none" stroke-width="1.0" filter="url(#fuzzy)" /><circle r="1.74" cx="5.882" cy="20.544" stroke="black" fill="none" stroke-width="1.0" filter="url(#fuzzy)" /><circle r="1.97" cx="7.538" cy="23.276" stroke="black" fill="none" stroke-width="1.0" filter="url(#fuzzy)" /><circle r="1.712" cx="8.166" cy="21.416" stroke="black" fill="none" stroke-width="1.0" filter="url(#fuzzy)" /><circle r="2.112" cx="7.178000000000001" cy="20.532" stroke="black" fill="none" stroke-width="1.0" filter="url(#fuzzy)" /><circle r="1.6179999999999999" cx="7.3100000000000005" cy="20.864" stroke="black" fill="none" stroke-width="1.0" filter="url(#fuzzy)" /></g>
          <g id="leftNose"><circle r="1.246" cx="-9.46" cy="15.195999999999998" stroke="black" fill="none" stroke-width="1.0" filter="url(#fuzzy)" /><circle r="2.548" cx="-9.796" cy="15.376000000000001" stroke="black" fill="none" stroke-width="1.0" filter="url(#fuzzy)" /><circle r="1.458" cx="-8.024000000000001" cy="15.5" stroke="black" fill="none" stroke-width="1.0" filter="url(#fuzzy)" /><circle r="2.676" cx="-10.748" cy="18.024" stroke="black" fill="none" stroke-width="1.0" filter="url(#fuzzy)" /><circle r="1.28" cx="-9.152" cy="15.347999999999999" stroke="black" fill="none" stroke-width="1.0" filter="url(#fuzzy)" /><circle r="2.01" cx="-7.5120000000000005" cy="17.308" stroke="black" fill="none" stroke-width="1.0" filter="url(#fuzzy)" /><circle r="1.438" cx="-8.556000000000001" cy="15.120000000000001" stroke="black" fill="none" stroke-width="1.0" filter="url(#fuzzy)" /><circle r="2.952" cx="-9.332" cy="14.68" stroke="black" fill="none" stroke-width="1.0" filter="url(#fuzzy)" /><circle r="1.738" cx="-7.9239999999999995" cy="14.791999999999998" stroke="black" fill="none" stroke-width="1.0" filter="url(#fuzzy)" /><circle r="1.318" cx="-9.164" cy="15.347999999999999" stroke="black" fill="none" stroke-width="1.0" filter="url(#fuzzy)" /></g>
        </g>
      
    <g id="mouth">
      <polyline points="-64.74,32.91 -64.65,34.15 -64.51,35.37 -64.32,36.57 -64.08,37.75 -63.78,38.92 -63.44,40.06 -63.06,41.19 -62.62,42.3 -62.14,43.39 -61.61,44.46 -61.04,45.51 -60.43,46.54 -59.77,47.54 -59.07,48.53 -58.33,49.5 -57.55,50.45 -56.73,51.37 -55.88,52.27 -54.98,53.16 -54.05,54.01 -53.09,54.85 -52.09,55.66 -51.05,56.46 -49.98,57.22 -48.88,57.97 -47.75,58.69 -46.59,59.39 -45.4,60.06 -44.18,60.71 -42.93,61.33 -41.65,61.93 -40.35,62.5 -39.03,63.05 -37.68,63.57 -36.3,64.07 -34.91,64.54 -33.49,64.98 -32.05,65.4 -30.59,65.79 -29.11,66.15 -27.61,66.49 -26.1,66.8 -24.57,67.08 -23.02,67.33 -21.46,67.55 -19.89,67.75 -18.3,67.91 -16.7,68.05 -15.09,68.16 -13.46,68.24 -11.83,68.28 -10.19,68.3 -8.54,68.29 -6.89,68.25 -5.23,68.17 -3.56,68.07 -1.89,67.93 -0.22,67.76 1.46,67.56 3.14,67.33 4.82,67.06 6.5,66.76 8.18,66.43 9.86,66.07 11.53,65.67 13.2,65.24 14.87,64.77 16.53,64.27 18.18,63.74 19.83,63.17 21.47,62.57 23.11,61.93 24.73,61.26 26.34,60.55 27.94,59.8 29.53,59.02 31.11,58.2 32.67,57.35 34.22,56.46 35.75,55.53 37.26,54.56 38.76,53.56 40.24,52.51 41.7,51.43 43.14,50.31 44.56,49.16 45.96,47.96 47.33,46.72 48.68,45.45 50.01,44.14 51.31,42.78 52.59,41.39 53.84,39.95 55.06,38.47 56.25,36.96 57.42,35.4 58.55,33.8 59.65,32.16 60.72,30.48 61.76,28.75 60.72,30.48 59.65,32.16 58.55,33.8 57.42,35.4 56.25,36.96 55.06,38.47 53.84,39.95 52.59,41.39 51.31,42.78 50.01,44.14 48.68,45.45 47.33,46.72 45.96,47.96 44.56,49.16 43.14,50.31 41.7,51.43 40.24,52.51 38.76,53.56 37.26,54.56 35.75,55.53 34.22,56.46 32.67,57.35 31.11,58.2 29.53,59.02 27.94,59.8 26.34,60.55 24.73,61.26 23.11,61.93 21.47,62.57 19.83,63.17 18.18,63.74 16.53,64.27 14.87,64.77 13.2,65.24 11.53,65.67 9.86,66.07 8.18,66.43 6.5,66.76 4.82,67.06 3.14,67.33 1.46,67.56 -0.22,67.76 -1.89,67.93 -3.56,68.07 -5.23,68.17 -6.89,68.25 -8.54,68.29 -10.19,68.3 -11.83,68.28 -13.46,68.24 -15.09,68.16 -16.7,68.05 -18.3,67.91 -19.89,67.75 -21.46,67.55 -23.02,67.33 -24.57,67.08 -26.1,66.8 -27.61,66.49 -29.11,66.15 -30.59,65.79 -32.05,65.4 -33.49,64.98 -34.91,64.54 -36.3,64.07 -37.68,63.57 -39.03,63.05 -40.35,62.5 -41.65,61.93 -42.93,61.33 -44.18,60.71 -45.4,60.06 -46.59,59.39 -47.75,58.69 -48.88,57.97 -49.98,57.22 -51.05,56.46 -52.09,55.66 -53.09,54.85 -54.05,54.01 -54.98,53.16 -55.88,52.27 -56.73,51.37 -57.55,50.45 -58.33,49.5 -59.07,48.53 -59.77,47.54 -60.43,46.54 -61.04,45.51 -61.61,44.46 -62.14,43.39 -62.62,42.3 -63.06,41.19 -63.44,40.06 -63.78,38.92 -64.08,37.75 -64.32,36.57 -64.51,35.37 -64.65,34.15" fill="rgb(215,127,140)" stroke="black" stroke-width="3" stroke-linejoin="round" filter="url(#fuzzy)" />
    </g>
  </svg>