<svg viewBox="-100 -100 200 200" xmlns="http://www.w3.org/2000/svg" width="500" height="500" id="face-svg">
    <defs>
      <clipPath id="leftEyeClipPath">
        <polyline points="24.64,2.06 24.46,1.61 24.26,1.16 24.03,0.7 23.78,0.24 23.51,-0.22 23.21,-0.67 22.89,-1.12 22.54,-1.56 22.17,-2 21.78,-2.42 21.36,-2.84 20.92,-3.24 20.46,-3.62 19.98,-3.99 19.47,-4.35 19.02,-4.94 18.52,-5.5 17.98,-6.02 17.41,-6.5 16.8,-6.94 16.15,-7.34 15.47,-7.7 14.75,-8.02 14.01,-8.29 13.23,-8.52 12.43,-8.71 11.6,-8.86 10.75,-8.97 9.87,-9.04 8.98,-9.07 8.07,-9.06 7.14,-9.02 6.2,-8.94 5.25,-8.83 4.29,-8.69 3.33,-8.51 2.36,-8.31 1.39,-8.08 0.42,-7.83 -0.54,-7.56 -1.5,-7.26 -2.46,-6.95 -3.4,-6.62 -4.33,-6.27 -5.25,-5.91 -6.16,-5.54 -7.05,-5.16 -7.93,-4.77 -8.78,-4.37 -9.61,-3.97 -10.43,-3.57 -11.22,-3.16 -11.99,-2.76 -12.73,-2.35 -13.45,-1.95 -14.15,-1.55 -14.82,-1.16 -15.46,-0.77 -16.08,-0.39 -16.68,-0.01 -17.24,0.36 -17.79,0.72 -18.3,1.07 -18.8,1.41 -19.27,1.74 -19.72,2.07 -20.14,2.39 -20.55,2.69 -20.93,2.99 -21.28,3.28 -21.62,3.57 -21.93,3.84 -22.23,4.1 -22.5,4.36 -22.75,4.6 -22.97,4.84 -23.18,5.06 -23.37,5.28 -23.54,5.49 -24.38,8.38 -24,8.37 -23.61,8.36 -23.21,8.34 -22.79,8.33 -22.36,8.31 -21.92,8.29 -21.46,8.26 -20.98,8.24 -20.49,8.21 -19.99,8.19 -19.48,8.16 -18.94,8.13 -18.4,8.1 -17.84,8.07 -17.27,8.03 -16.68,8 -16.07,7.97 -15.45,7.93 -14.81,7.9 -14.16,7.86 -13.49,7.83 -12.8,7.8 -12.1,7.76 -11.39,7.73 -10.66,7.7 -9.92,7.67 -9.17,7.65 -8.4,7.62 -7.63,7.6 -6.84,7.58 -6.05,7.57 -5.24,7.56 -4.43,7.55 -3.61,7.54 -2.79,7.54 -1.96,7.54 -1.13,7.54 -0.29,7.55 0.54,7.56 1.38,7.57 2.21,7.59 3.04,7.61 3.87,7.63 4.69,7.66 5.51,7.69 6.32,7.72 7.12,7.75 7.91,7.79 8.69,7.83 9.46,7.86 10.21,7.9 10.95,7.94 11.68,7.98 12.38,8.03 13.07,8.06 13.75,8.1 14.4,8.14 15.03,8.17 15.64,8.2 16.24,8.23 16.8,8.25 17.35,8.27 17.87,8.28 18.37,8.29 18.86,8.28 19.34,8.26 19.8,8.23 20.24,8.2 20.67,8.16 21.08,8.11 21.48,8.05 21.86,7.98 22.22,7.9 22.57,7.81 22.9,7.7 23.21,7.59 23.51,7.46 23.78,7.32 24.04,7.16" />
      </clipPath>
      <clipPath id="rightEyeClipPath">
        <polyline points="-23.4,1.57 -23.19,1.01 -22.96,0.45 -22.71,-0.12 -22.44,-0.69 -22.15,-1.25 -21.84,-1.8 -21.52,-2.35 -21.17,-2.88 -20.81,-3.4 -20.43,-3.9 -20.02,-4.39 -19.6,-4.85 -19.16,-5.29 -18.7,-5.71 -18.22,-6.11 -17.78,-6.82 -17.31,-7.49 -16.8,-8.1 -16.26,-8.65 -15.69,-9.15 -15.09,-9.59 -14.46,-9.97 -13.8,-10.3 -13.11,-10.57 -12.4,-10.78 -11.66,-10.94 -10.89,-11.04 -10.11,-11.09 -9.3,-11.09 -8.48,-11.04 -7.64,-10.94 -6.79,-10.79 -5.92,-10.61 -5.04,-10.38 -4.15,-10.12 -3.26,-9.82 -2.36,-9.49 -1.45,-9.13 -0.55,-8.75 0.36,-8.34 1.26,-7.9 2.16,-7.46 3.05,-6.99 3.93,-6.51 4.8,-6.02 5.67,-5.52 6.52,-5.02 7.35,-4.51 8.17,-4.01 8.98,-3.5 9.76,-2.99 10.53,-2.49 11.27,-2 12,-1.51 12.7,-1.03 13.38,-0.57 14.04,-0.11 14.67,0.33 15.28,0.76 15.86,1.18 16.42,1.58 16.96,1.97 17.47,2.34 17.95,2.7 18.42,3.04 18.86,3.37 19.27,3.69 19.66,3.99 20.03,4.28 20.38,4.55 20.71,4.81 21.01,5.05 21.28,5.28 21.54,5.5 21.77,5.7 21.98,5.89 22.17,6.06 22.33,6.22 22.47,6.36 26.42,9.86 26.02,9.79 25.61,9.72 25.18,9.65 24.74,9.58 24.28,9.51 23.81,9.43 23.32,9.36 22.82,9.29 22.3,9.22 21.76,9.15 21.21,9.08 20.64,9.01 20.06,8.94 19.46,8.88 18.85,8.81 18.22,8.75 17.57,8.68 16.9,8.62 16.22,8.56 15.51,8.51 14.79,8.45 14.06,8.4 13.3,8.36 12.54,8.31 11.75,8.28 10.95,8.24 10.14,8.22 9.31,8.19 8.47,8.18 7.62,8.16 6.76,8.16 5.89,8.16 5.01,8.17 4.12,8.18 3.23,8.2 2.34,8.22 1.44,8.26 0.54,8.29 -0.36,8.34 -1.25,8.38 -2.15,8.44 -3.04,8.5 -3.92,8.56 -4.79,8.63 -5.66,8.7 -6.51,8.78 -7.35,8.85 -8.18,8.94 -8.99,9.02 -9.78,9.1 -10.55,9.19 -11.31,9.27 -12.04,9.36 -12.75,9.44 -13.44,9.53 -14.1,9.61 -14.73,9.68 -15.34,9.76 -15.91,9.83 -16.46,9.89 -16.99,9.95 -17.48,10 -17.94,10.04 -18.37,10.08 -18.83,10.11 -19.27,10.14 -19.7,10.16 -20.1,10.18 -20.49,10.18 -20.86,10.18 -21.22,10.18 -21.55,10.16 -21.87,10.14 -22.17,10.1 -22.45,10.06 -22.71,10.01 -22.96,9.94 -23.19,9.87 -23.4,9.78" />
      </clipPath>
      <filter id="fuzzy">
        <feTurbulence id="turbulence" baseFrequency="0.05" numOctaves="3" type="noise" result="noise" />
        <feDisplacementMap in="SourceGraphic" in2="noise" scale="2" />
      </filter>
      <linearGradient id="rainbowGradient" x1="0%" y1="0%" x2="100%" y2="0%">
        <stop offset="0%" style="stop-color: [object Object]; stop-opacity: 1" />
        <stop offset="50%" style="stop-color: [object Object]; stop-opacity: 1" />
        <stop offset="100%" style="stop-color: [object Object]; stop-opacity: 1" />
      </linearGradient>
    </defs>
    <rect x="-100" y="-100" width="100%" height="100%" fill="rgb(255, 253, 208)" />
    <polyline id="faceContour" points="61.97,0.89 61.86,-0.44 61.95,2.61 61.68,4.43 61.8,3.85 61.82,6.71 61.47,8.52 61.44,9.88 61.44,10.57 61.24,11.24 61.39,11.21 60.84,14.82 61.05,14.45 60.68,16.95 60.47,17.56 59.95,19.67 59.68,21.02 59.64,22.9 59.35,23.24 59.19,24.67 58.66,26.32 58.69,26.08 57.72,30.1 57.66,29.84 56.88,32.43 57.23,31.98 56.75,32.84 56.44,33.68 56.36,34.46 54.95,38.03 54.63,38.78 54.87,38.38 54.22,39.83 54.09,40.05 53.3,42 52.88,43.49 51.88,45.13 52.18,44.92 51.68,45.66 51.32,46.47 50.67,47.8 49.46,49.85 48.65,51.36 47.94,52.42 47.41,53.81 46.17,55.37 45.7,55.7 46.69,54.39 44.82,57.19 45.3,56.68 43.44,59.37 43.6,59.29 42.13,60.94 41.87,61.34 40.43,62.9 40.84,62.2 40.18,63.33 39.08,64.22 37.23,66.28 36.78,66.88 35.53,67.78 35.33,68.22 35.3,68.39 34.58,68.82 34.14,69.46 31.36,71.54 31.72,71.36 32.28,70.89 29.36,72.92 29.2,73.28 28.31,73.73 28.44,74.03 26.54,75.07 25.24,75.91 24.39,76.3 23.46,77.08 22.93,77.26 21.83,77.69 22.05,77.62 18.95,79.03 18.83,79.12 17.7,79.79 16.5,80.01 16.62,80.22 15.35,80.44 13.09,81.34 13.88,81.2 11.37,81.64 12.49,81.49 10.67,81.92 9.56,82.16 9.62,82.11 7.27,82.39 7.39,82.56 5.64,82.75 5.56,82.7 4.24,82.84 2.53,83.06 0.91,83.05 1.34,83.27 0.16,83.28 -0.89,83.19 -2.83,83.11 -1.79,82.93 -4.82,82.87 -3.9,83.02 -5.26,82.95 -6.72,82.47 -8.48,82.38 -8.91,82.37 -10.6,81.81 -9.82,82.25 -11.52,81.51 -11.38,81.66 -14.56,80.67 -13.95,81.2 -17.05,79.88 -15.8,80.26 -16.63,79.89 -17.14,79.91 -19.68,78.83 -20.34,78.6 -20.08,78.67 -22.34,77.79 -21.34,77.86 -23.7,76.83 -23.94,76.68 -26.89,74.85 -25.73,75.37 -28.06,74.17 -26.69,74.96 -28.92,73.67 -29.43,73.34 -30.29,72.43 -31.91,71.43 -32.04,71.35 -33.01,70.32 -33.7,69.79 -34.38,68.77 -35.14,68.39 -37.6,66.15 -37.64,66.03 -37.52,66.34 -38.37,65.14 -39.37,63.97 -40.88,62.63 -41.2,62.27 -41.67,61.4 -42.49,60.28 -43.59,59.26 -44.07,58.46 -45.07,56.92 -45.86,55.69 -45.74,56 -46.99,53.94 -46.22,55.58 -47.9,53.16 -48.48,51.61 -49.6,50.17 -49.81,49.41 -50.28,48.63 -50.2,48.67 -50.91,47.29 -51.83,45.23 -52.52,44.21 -52.98,43.6 -53.38,42.16 -53.1,42.64 -54.09,40.86 -54.84,38.64 -54.51,39.19 -55.8,35.69 -56.17,34.74 -56.18,35.27 -57.12,32.59 -57.22,32.27 -57.82,30.25 -58.19,28.83 -58.59,26.54 -58.61,26.75 -58.83,26.06 -59.18,24.55 -59.43,22.78 -60.1,20.77 -60.17,20.38 -60.44,19.12 -60.33,18.2 -60.4,18.47 -60.59,16.35 -60.87,15.63 -61.31,13.58 -61.4,11.34 -61.37,10.54 -61.38,10.28 -61.62,6.51 -61.84,5.3 -61.67,6.64 -61.75,3.35 -61.78,2.07 -61.83,-0.22 -61.85,-0.74 -62.06,-0.49 -61.98,-2.83 -61.82,-3.9 -61.74,-6.35 -61.77,-4.74 -61.79,-7.47 -61.82,-8.01 -61.54,-8.8 -61.33,-10.23 -61.1,-13.79 -60.95,-14.37 -60.86,-15.76 -60.78,-15.26 -60.34,-18.55 -60.43,-18.93 -59.95,-21.13 -59.66,-23.12 -59.21,-23.79 -58.88,-25.46 -59.42,-24.2 -58.58,-27.53 -58.4,-27.87 -58.01,-29.51 -57.64,-30.85 -57.08,-32.02 -56.75,-33.61 -56.96,-33.18 -55.82,-35.79 -55.08,-37.77 -54.76,-38.75 -54.98,-38.28 -54.41,-40.09 -54.13,-40.31 -52.66,-44.16 -53.5,-42.37 -53.15,-43.22 -51.94,-45.57 -50.93,-47.26 -50.52,-47.99 -50.25,-48.88 -49.88,-49.52 -48.62,-51.41 -49.3,-50.36 -48.13,-52.04 -47.04,-53.88 -45.8,-56.03 -44.47,-57.87 -44.85,-57.08 -44.96,-57.3 -43.48,-59.13 -42.31,-60.28 -41.83,-61.16 -40.81,-62.44 -40.99,-62.33 -40.37,-63.03 -39.86,-63.6 -38.67,-64.72 -37.34,-66.42 -36.58,-67.17 -35.41,-68.04 -35.17,-68.34 -35.01,-68.51 -33.17,-69.97 -32.76,-70.41 -32.62,-70.4 -31.18,-72.04 -30.34,-72.52 -29.14,-73.27 -28.62,-73.77 -27.63,-74.24 -26.93,-74.91 -26.44,-75.16 -25.57,-75.44 -25.16,-75.96 -22.61,-77.21 -22.88,-77 -21.93,-77.62 -20.72,-78.05 -21.05,-77.92 -20.42,-78.43 -17.92,-79.27 -16.61,-80.08 -16.24,-80.21 -15.92,-80.02 -13.49,-80.87 -14.01,-80.74 -12.89,-81.29 -11.77,-81.39 -11.49,-81.57 -8.07,-82.09 -10.45,-81.8 -8.15,-82.23 -5.74,-82.52 -6.28,-82.39 -5.35,-82.72 -3.99,-82.96 -2.84,-82.9 -0.7,-83.2 -1.58,-82.9 1.34,-83.14 0.43,-83.14 0.31,-82.94 3.88,-82.95 5.48,-82.68 4.82,-82.63 5.43,-82.51 5.93,-82.5 8.43,-82.22 8,-82.47 10.27,-81.75 10.7,-81.79 12.7,-81.25 10.9,-81.86 12.58,-81.2 13.51,-80.88 16.49,-80.17 17.16,-79.88 17.6,-79.42 18.31,-79.53 18.14,-79.5 18.4,-79.28 21.09,-77.82 22.07,-77.46 21.47,-77.66 23.25,-77.03 24.15,-76.39 25.96,-75.29 27.1,-74.74 27.08,-74.53 26.74,-74.72 30.41,-72.35 30.47,-72.36 32.14,-70.93 31.17,-71.64 32.04,-71.12 34.26,-69.12 33.9,-69.55 34.25,-69.05 35.73,-67.71 35.24,-68.18 37.04,-66.17 38.98,-64.39 38.08,-65.74 38.44,-65.18 41.3,-61.78 40.57,-62.55 42.05,-60.98 42.05,-60.91 42.57,-59.98 44.14,-57.96 44.96,-57.1 45.14,-56.96 45.72,-55.97 45.77,-55.66 47.8,-52.44 47.54,-52.74 48.01,-52 49.05,-50.98 49.43,-49.63 50.26,-48.54 50.54,-47.75 50.42,-48.52 52.45,-44.2 52.27,-44.26 53.02,-43.16 52.86,-42.97 54.3,-39.98 54.13,-40 54.88,-38.23 54.67,-39.04 55.22,-37.32 55.76,-35.92 55.71,-36 56.55,-33.33 57.39,-31.2 57.57,-29.96 58.16,-28.81 58.5,-27.6 58.33,-27.19 58.86,-25.27 59.36,-23.5 59.48,-23.02 59.43,-22.53 60.19,-19.93 59.88,-20.38 60.45,-17.93 60.73,-15.94 60.87,-15.63 61.06,-14.42 61.12,-13.61 61.08,-11.97 61.34,-10.96 61.5,-10.01 61.64,-9.02 61.83,-6.3 61.83,-5.23 61.86,-5.59 61.87,-3.19 62.05,-0.9 61.97,0.89 61.86,-0.44" fill="rgb(160, 82, 45)" stroke="black" stroke-width="1.6666666666666665" stroke-linejoin="round" filter="url(#fuzzy)" />
    <g transform="translate(33.72 -23.799999999999997)">
      <polyline id="rightCountour" points="-23.4,1.57 -23.19,1.01 -22.96,0.45 -22.71,-0.12 -22.44,-0.69 -22.15,-1.25 -21.84,-1.8 -21.52,-2.35 -21.17,-2.88 -20.81,-3.4 -20.43,-3.9 -20.02,-4.39 -19.6,-4.85 -19.16,-5.29 -18.7,-5.71 -18.22,-6.11 -17.78,-6.82 -17.31,-7.49 -16.8,-8.1 -16.26,-8.65 -15.69,-9.15 -15.09,-9.59 -14.46,-9.97 -13.8,-10.3 -13.11,-10.57 -12.4,-10.78 -11.66,-10.94 -10.89,-11.04 -10.11,-11.09 -9.3,-11.09 -8.48,-11.04 -7.64,-10.94 -6.79,-10.79 -5.92,-10.61 -5.04,-10.38 -4.15,-10.12 -3.26,-9.82 -2.36,-9.49 -1.45,-9.13 -0.55,-8.75 0.36,-8.34 1.26,-7.9 2.16,-7.46 3.05,-6.99 3.93,-6.51 4.8,-6.02 5.67,-5.52 6.52,-5.02 7.35,-4.51 8.17,-4.01 8.98,-3.5 9.76,-2.99 10.53,-2.49 11.27,-2 12,-1.51 12.7,-1.03 13.38,-0.57 14.04,-0.11 14.67,0.33 15.28,0.76 15.86,1.18 16.42,1.58 16.96,1.97 17.47,2.34 17.95,2.7 18.42,3.04 18.86,3.37 19.27,3.69 19.66,3.99 20.03,4.28 20.38,4.55 20.71,4.81 21.01,5.05 21.28,5.28 21.54,5.5 21.77,5.7 21.98,5.89 22.17,6.06 22.33,6.22 22.47,6.36 26.42,9.86 26.02,9.79 25.61,9.72 25.18,9.65 24.74,9.58 24.28,9.51 23.81,9.43 23.32,9.36 22.82,9.29 22.3,9.22 21.76,9.15 21.21,9.08 20.64,9.01 20.06,8.94 19.46,8.88 18.85,8.81 18.22,8.75 17.57,8.68 16.9,8.62 16.22,8.56 15.51,8.51 14.79,8.45 14.06,8.4 13.3,8.36 12.54,8.31 11.75,8.28 10.95,8.24 10.14,8.22 9.31,8.19 8.47,8.18 7.62,8.16 6.76,8.16 5.89,8.16 5.01,8.17 4.12,8.18 3.23,8.2 2.34,8.22 1.44,8.26 0.54,8.29 -0.36,8.34 -1.25,8.38 -2.15,8.44 -3.04,8.5 -3.92,8.56 -4.79,8.63 -5.66,8.7 -6.51,8.78 -7.35,8.85 -8.18,8.94 -8.99,9.02 -9.78,9.1 -10.55,9.19 -11.31,9.27 -12.04,9.36 -12.75,9.44 -13.44,9.53 -14.1,9.61 -14.73,9.68 -15.34,9.76 -15.91,9.83 -16.46,9.89 -16.99,9.95 -17.48,10 -17.94,10.04 -18.37,10.08 -18.83,10.11 -19.27,10.14 -19.7,10.16 -20.1,10.18 -20.49,10.18 -20.86,10.18 -21.22,10.18 -21.55,10.16 -21.87,10.14 -22.17,10.1 -22.45,10.06 -22.71,10.01 -22.96,9.94 -23.19,9.87 -23.4,9.78" fill="white" stroke="white" stroke-width="0" stroke-linejoin="round" filter="url(#fuzzy)" />
    </g>
    <g transform="translate(-38.68 -26.2)">
      <polyline id="leftCountour" points="24.64,2.06 24.46,1.61 24.26,1.16 24.03,0.7 23.78,0.24 23.51,-0.22 23.21,-0.67 22.89,-1.12 22.54,-1.56 22.17,-2 21.78,-2.42 21.36,-2.84 20.92,-3.24 20.46,-3.62 19.98,-3.99 19.47,-4.35 19.02,-4.94 18.52,-5.5 17.98,-6.02 17.41,-6.5 16.8,-6.94 16.15,-7.34 15.47,-7.7 14.75,-8.02 14.01,-8.29 13.23,-8.52 12.43,-8.71 11.6,-8.86 10.75,-8.97 9.87,-9.04 8.98,-9.07 8.07,-9.06 7.14,-9.02 6.2,-8.94 5.25,-8.83 4.29,-8.69 3.33,-8.51 2.36,-8.31 1.39,-8.08 0.42,-7.83 -0.54,-7.56 -1.5,-7.26 -2.46,-6.95 -3.4,-6.62 -4.33,-6.27 -5.25,-5.91 -6.16,-5.54 -7.05,-5.16 -7.93,-4.77 -8.78,-4.37 -9.61,-3.97 -10.43,-3.57 -11.22,-3.16 -11.99,-2.76 -12.73,-2.35 -13.45,-1.95 -14.15,-1.55 -14.82,-1.16 -15.46,-0.77 -16.08,-0.39 -16.68,-0.01 -17.24,0.36 -17.79,0.72 -18.3,1.07 -18.8,1.41 -19.27,1.74 -19.72,2.07 -20.14,2.39 -20.55,2.69 -20.93,2.99 -21.28,3.28 -21.62,3.57 -21.93,3.84 -22.23,4.1 -22.5,4.36 -22.75,4.6 -22.97,4.84 -23.18,5.06 -23.37,5.28 -23.54,5.49 -24.38,8.38 -24,8.37 -23.61,8.36 -23.21,8.34 -22.79,8.33 -22.36,8.31 -21.92,8.29 -21.46,8.26 -20.98,8.24 -20.49,8.21 -19.99,8.19 -19.48,8.16 -18.94,8.13 -18.4,8.1 -17.84,8.07 -17.27,8.03 -16.68,8 -16.07,7.97 -15.45,7.93 -14.81,7.9 -14.16,7.86 -13.49,7.83 -12.8,7.8 -12.1,7.76 -11.39,7.73 -10.66,7.7 -9.92,7.67 -9.17,7.65 -8.4,7.62 -7.63,7.6 -6.84,7.58 -6.05,7.57 -5.24,7.56 -4.43,7.55 -3.61,7.54 -2.79,7.54 -1.96,7.54 -1.13,7.54 -0.29,7.55 0.54,7.56 1.38,7.57 2.21,7.59 3.04,7.61 3.87,7.63 4.69,7.66 5.51,7.69 6.32,7.72 7.12,7.75 7.91,7.79 8.69,7.83 9.46,7.86 10.21,7.9 10.95,7.94 11.68,7.98 12.38,8.03 13.07,8.06 13.75,8.1 14.4,8.14 15.03,8.17 15.64,8.2 16.24,8.23 16.8,8.25 17.35,8.27 17.87,8.28 18.37,8.29 18.86,8.28 19.34,8.26 19.8,8.23 20.24,8.2 20.67,8.16 21.08,8.11 21.48,8.05 21.86,7.98 22.22,7.9 22.57,7.81 22.9,7.7 23.21,7.59 23.51,7.46 23.78,7.32 24.04,7.16" fill="white" stroke="white" stroke-width="0" stroke-linejoin="round" filter="url(#fuzzy)" />
    </g>
    <g transform="translate(33.72 -23.799999999999997)">
      <polyline id="rightUpper" points="-24.65,5.99 -24.59,5.72 -24.51,5.39 -24.43,5.02 -24.33,4.61 -24.21,4.17 -24.08,3.69 -23.94,3.19 -23.77,2.67 -23.6,2.13 -23.4,1.57 -23.19,1.01 -22.96,0.45 -22.71,-0.12 -22.44,-0.69 -22.15,-1.25 -21.84,-1.8 -21.52,-2.35 -21.17,-2.88 -20.81,-3.4 -20.43,-3.9 -20.02,-4.39 -19.6,-4.85 -19.16,-5.29 -18.7,-5.71 -18.22,-6.11 -17.78,-6.82 -17.31,-7.49 -16.8,-8.1 -16.26,-8.65 -15.69,-9.15 -15.09,-9.59 -14.46,-9.97 -13.8,-10.3 -13.11,-10.57 -12.4,-10.78 -11.66,-10.94 -10.89,-11.04 -10.11,-11.09 -9.3,-11.09 -8.48,-11.04 -7.64,-10.94 -6.79,-10.79 -5.92,-10.61 -5.04,-10.38 -4.15,-10.12 -3.26,-9.82 -2.36,-9.49 -1.45,-9.13 -0.55,-8.75 0.36,-8.34 1.26,-7.9 2.16,-7.46 3.05,-6.99 3.93,-6.51 4.8,-6.02 5.67,-5.52 6.52,-5.02 7.35,-4.51 8.17,-4.01 8.98,-3.5 9.76,-2.99 10.53,-2.49 11.27,-2 12,-1.51 12.7,-1.03 13.38,-0.57 14.04,-0.11 14.67,0.33 15.28,0.76 15.86,1.18 16.42,1.58 16.96,1.97 17.47,2.34 17.95,2.7 18.42,3.04 18.86,3.37 19.27,3.69 19.66,3.99 20.03,4.28 20.38,4.55 20.71,4.81 21.01,5.05 21.28,5.28 21.54,5.5 21.77,5.7 21.98,5.89 22.17,6.06 22.33,6.22 22.47,6.36 22.59,6.5 22.69,6.62 22.77,6.72 22.83,6.82 22.86,6.9 22.88,6.98 22.88,7.04 22.85,7.09 22.81,7.13 22.75,7.16" fill="none" stroke="black" stroke-width="1.6666666666666665" stroke-linejoin="round" filter="url(#fuzzy)" />
      <polyline id="rightLower" points="-24.66,8.21 -24.6,8.43 -24.52,8.64 -24.43,8.83 -24.33,9.01 -24.21,9.17 -24.08,9.32 -23.93,9.45 -23.77,9.58 -23.59,9.69 -23.4,9.78 -23.19,9.87 -22.96,9.94 -22.71,10.01 -22.45,10.06 -22.17,10.1 -21.87,10.14 -21.55,10.16 -21.22,10.18 -20.86,10.18 -20.49,10.18 -20.1,10.18 -19.7,10.16 -19.27,10.14 -18.83,10.11 -18.37,10.08 -17.94,10.04 -17.48,10 -16.99,9.95 -16.46,9.89 -15.91,9.83 -15.34,9.76 -14.73,9.68 -14.1,9.61 -13.44,9.53 -12.75,9.44 -12.04,9.36 -11.31,9.27 -10.55,9.19 -9.78,9.1 -8.99,9.02 -8.18,8.94 -7.35,8.85 -6.51,8.78 -5.66,8.7 -4.79,8.63 -3.92,8.56 -3.04,8.5 -2.15,8.44 -1.25,8.38 -0.36,8.34 0.54,8.29 1.44,8.26 2.34,8.22 3.23,8.2 4.12,8.18 5.01,8.17 5.89,8.16 6.76,8.16 7.62,8.16 8.47,8.18 9.31,8.19 10.14,8.22 10.95,8.24 11.75,8.28 12.54,8.31 13.3,8.36 14.06,8.4 14.79,8.45 15.51,8.51 16.22,8.56 16.9,8.62 17.57,8.68 18.22,8.75 18.85,8.81 19.46,8.88 20.06,8.94 20.64,9.01 21.21,9.08 21.76,9.15 22.3,9.22 22.82,9.29 23.32,9.36 23.81,9.43 24.28,9.51 24.74,9.58 25.18,9.65 25.61,9.72 26.02,9.79 26.42,9.86 26.8,9.93 27.16,9.99 27.52,10.06 27.85,10.12 28.18,10.18 28.49,10.24 28.78,10.3 29.07,10.36 29.34,10.41 29.6,10.47" fill="none" stroke="black" stroke-width="2.2222222222222223" stroke-linejoin="round" filter="url(#fuzzy)" />
      <circle r="4.036" cx="12.517601098912623" cy="6.772935224026224" stroke="black" fill="none" stroke-width="1.0" filter="url(#fuzzy)" clip-path="url(#rightEyeClipPath)" /><circle r="4.7940000000000005" cx="11.567601098912624" cy="6.427935224026225" stroke="black" fill="none" stroke-width="1.0" filter="url(#fuzzy)" clip-path="url(#rightEyeClipPath)" /><circle r="4.928" cx="11.767601098912623" cy="4.002935224026224" stroke="black" fill="none" stroke-width="1.0" filter="url(#fuzzy)" clip-path="url(#rightEyeClipPath)" /><circle r="3.144" cx="9.752601098912622" cy="6.222935224026225" stroke="black" fill="none" stroke-width="1.0" filter="url(#fuzzy)" clip-path="url(#rightEyeClipPath)" /><circle r="4.8420000000000005" cx="11.582601098912622" cy="6.207935224026224" stroke="black" fill="none" stroke-width="1.0" filter="url(#fuzzy)" clip-path="url(#rightEyeClipPath)" /><circle r="4.304" cx="12.302601098912623" cy="3.9429352240262245" stroke="black" fill="none" stroke-width="1.0" filter="url(#fuzzy)" clip-path="url(#rightEyeClipPath)" /><circle r="4.336" cx="8.962601098912623" cy="4.687935224026225" stroke="black" fill="none" stroke-width="1.0" filter="url(#fuzzy)" clip-path="url(#rightEyeClipPath)" /><circle r="4.824" cx="11.962601098912623" cy="7.577935224026223" stroke="black" fill="none" stroke-width="1.0" filter="url(#fuzzy)" clip-path="url(#rightEyeClipPath)" /><circle r="4.066" cx="11.237601098912624" cy="6.282935224026225" stroke="black" fill="none" stroke-width="1.0" filter="url(#fuzzy)" clip-path="url(#rightEyeClipPath)" /><circle r="3.398" cx="10.177601098912623" cy="3.917935224026224" stroke="black" fill="none" stroke-width="1.0" filter="url(#fuzzy)" clip-path="url(#rightEyeClipPath)" />
      </g>
    <g transform="translate(-38.68 -26.2)">
      <polyline id="leftUpper" points="25.3,5.45 25.32,5.25 25.32,5.01 25.3,4.73 25.27,4.42 25.22,4.08 25.14,3.71 25.05,3.32 24.94,2.92 24.8,2.49 24.64,2.06 24.46,1.61 24.26,1.16 24.03,0.7 23.78,0.24 23.51,-0.22 23.21,-0.67 22.89,-1.12 22.54,-1.56 22.17,-2 21.78,-2.42 21.36,-2.84 20.92,-3.24 20.46,-3.62 19.98,-3.99 19.47,-4.35 19.02,-4.94 18.52,-5.5 17.98,-6.02 17.41,-6.5 16.8,-6.94 16.15,-7.34 15.47,-7.7 14.75,-8.02 14.01,-8.29 13.23,-8.52 12.43,-8.71 11.6,-8.86 10.75,-8.97 9.87,-9.04 8.98,-9.07 8.07,-9.06 7.14,-9.02 6.2,-8.94 5.25,-8.83 4.29,-8.69 3.33,-8.51 2.36,-8.31 1.39,-8.08 0.42,-7.83 -0.54,-7.56 -1.5,-7.26 -2.46,-6.95 -3.4,-6.62 -4.33,-6.27 -5.25,-5.91 -6.16,-5.54 -7.05,-5.16 -7.93,-4.77 -8.78,-4.37 -9.61,-3.97 -10.43,-3.57 -11.22,-3.16 -11.99,-2.76 -12.73,-2.35 -13.45,-1.95 -14.15,-1.55 -14.82,-1.16 -15.46,-0.77 -16.08,-0.39 -16.68,-0.01 -17.24,0.36 -17.79,0.72 -18.3,1.07 -18.8,1.41 -19.27,1.74 -19.72,2.07 -20.14,2.39 -20.55,2.69 -20.93,2.99 -21.28,3.28 -21.62,3.57 -21.93,3.84 -22.23,4.1 -22.5,4.36 -22.75,4.6 -22.97,4.84 -23.18,5.06 -23.37,5.28 -23.54,5.49 -23.68,5.68 -23.81,5.87 -23.92,6.05 -24.02,6.22 -24.09,6.39 -24.15,6.54 -24.18,6.68 -24.21,6.82 -24.21,6.95 -24.21,7.07" fill="none" stroke="black" stroke-width="2.2222222222222223" stroke-linejoin="round" filter="url(#fuzzy)" />
      <polyline id="leftLower" points="25.63,4.58 25.55,4.94 25.46,5.26 25.35,5.57 25.22,5.86 25.07,6.12 24.9,6.36 24.71,6.59 24.51,6.8 24.29,6.98 24.04,7.16 23.78,7.32 23.51,7.46 23.21,7.59 22.9,7.7 22.57,7.81 22.22,7.9 21.86,7.98 21.48,8.05 21.08,8.11 20.67,8.16 20.24,8.2 19.8,8.23 19.34,8.26 18.86,8.28 18.37,8.29 17.87,8.28 17.35,8.27 16.8,8.25 16.24,8.23 15.64,8.2 15.03,8.17 14.4,8.14 13.75,8.1 13.07,8.06 12.38,8.03 11.68,7.98 10.95,7.94 10.21,7.9 9.46,7.86 8.69,7.83 7.91,7.79 7.12,7.75 6.32,7.72 5.51,7.69 4.69,7.66 3.87,7.63 3.04,7.61 2.21,7.59 1.38,7.57 0.54,7.56 -0.29,7.55 -1.13,7.54 -1.96,7.54 -2.79,7.54 -3.61,7.54 -4.43,7.55 -5.24,7.56 -6.05,7.57 -6.84,7.58 -7.63,7.6 -8.4,7.62 -9.17,7.65 -9.92,7.67 -10.66,7.7 -11.39,7.73 -12.1,7.76 -12.8,7.8 -13.49,7.83 -14.16,7.86 -14.81,7.9 -15.45,7.93 -16.07,7.97 -16.68,8 -17.27,8.03 -17.84,8.07 -18.4,8.1 -18.94,8.13 -19.48,8.16 -19.99,8.19 -20.49,8.21 -20.98,8.24 -21.46,8.26 -21.92,8.29 -22.36,8.31 -22.79,8.33 -23.21,8.34 -23.61,8.36 -24,8.37 -24.38,8.38 -24.74,8.39 -25.08,8.4 -25.41,8.4 -25.73,8.4 -26.04,8.4 -26.33,8.4 -26.61,8.39 -26.88,8.38 -27.13,8.37 -27.37,8.36" fill="none" stroke="black" stroke-width="2.2222222222222223" stroke-linejoin="round" filter="url(#fuzzy)" />
      <circle r="4.96" cx="-2.345097210159948" cy="5.317834210873767" stroke="black" fill="none" stroke-width="1.0" filter="url(#fuzzy)" clip-path="url(#leftEyeClipPath)" /><circle r="4.936" cx="-5.980097210159949" cy="8.172834210873766" stroke="black" fill="none" stroke-width="1.0" filter="url(#fuzzy)" clip-path="url(#leftEyeClipPath)" /><circle r="4.708" cx="-6.130097210159948" cy="7.9628342108737655" stroke="black" fill="none" stroke-width="1.0" filter="url(#fuzzy)" clip-path="url(#leftEyeClipPath)" /><circle r="3.246" cx="-3.4800972101599488" cy="3.777834210873767" stroke="black" fill="none" stroke-width="1.0" filter="url(#fuzzy)" clip-path="url(#leftEyeClipPath)" /><circle r="3.846" cx="-3.3250972101599485" cy="3.8278342108737666" stroke="black" fill="none" stroke-width="1.0" filter="url(#fuzzy)" clip-path="url(#leftEyeClipPath)" /><circle r="3.93" cx="-1.5450972101599483" cy="4.097834210873767" stroke="black" fill="none" stroke-width="1.0" filter="url(#fuzzy)" clip-path="url(#leftEyeClipPath)" /><circle r="4.558" cx="-1.6200972101599485" cy="4.662834210873767" stroke="black" fill="none" stroke-width="1.0" filter="url(#fuzzy)" clip-path="url(#leftEyeClipPath)" /><circle r="4.914" cx="-1.4450972101599486" cy="5.1278342108737665" stroke="black" fill="none" stroke-width="1.0" filter="url(#fuzzy)" clip-path="url(#leftEyeClipPath)" /><circle r="3.906" cx="-4.940097210159949" cy="4.197834210873767" stroke="black" fill="none" stroke-width="1.0" filter="url(#fuzzy)" clip-path="url(#leftEyeClipPath)" /><circle r="4.976" cx="-1.590097210159949" cy="7.487834210873768" stroke="black" fill="none" stroke-width="1.0" filter="url(#fuzzy)" clip-path="url(#leftEyeClipPath)" />
    </g>
    <g id="hairs">
      <polyline points="30.47,-72.36 31.29,-71.6 31.55,-71.25 31.75,-70.86 31.81,-70.47 31.64,-70.12 31.21,-69.82 30.55,-69.56 29.64,-69.34 28.46,-69.18 26.97,-69.09 25.13,-69.1 22.93,-69.2 20.33,-69.4 17.3,-69.68 13.8,-70.08 9.83,-70.58 5.4,-71.19 0.55,-71.94 -4.7,-72.88 -10.37,-74.04 -16.45,-75.44" fill="none" stroke="rgb(149, 69, 53)" stroke-width="2" stroke-linejoin="round" filter="url(#fuzzy)" /><polyline points="5.93,-82.5 7.46,-82.34 8.29,-82.18 8.83,-81.97 9.02,-81.76 8.82,-81.56 8.28,-81.33 7.46,-81.05 6.34,-80.71 4.82,-80.33 2.75,-79.92 0,-79.49 -3.43,-79.05 -7.46,-78.61 -11.96,-78.16 -17,-77.65" fill="none" stroke="rgb(149, 69, 53)" stroke-width="2" stroke-linejoin="round" filter="url(#fuzzy)" /><polyline points="8,-82.47 9.46,-81.98 9.99,-81.64 9.84,-81.32 9.21,-80.92 8.24,-80.37 6.93,-79.67 5.13,-78.84 2.67,-77.89 -0.57,-76.84 -4.61,-75.69 -9.4,-74.41 -14.89,-72.95 -21.06,-71.31 -27.9,-69.61" fill="none" stroke="rgb(149, 69, 53)" stroke-width="2" stroke-linejoin="round" filter="url(#fuzzy)" /><polyline points="-26.44,-75.16 -25.35,-75.47 -23.56,-75.82 -21.25,-76.06 -18.54,-76.14 -15.49,-76.06 -12.07,-75.88 -8.28,-75.64 -4.09,-75.38 0.48,-75.08 5.32,-74.71 10.34,-74.24 15.44,-73.7 20.58,-73.11 25.93,-72.35" fill="none" stroke="rgb(149, 69, 53)" stroke-width="2" stroke-linejoin="round" filter="url(#fuzzy)" /><polyline points="-10.45,-81.8 -8.5,-82.12 -7.28,-82.27 -6.59,-82.32 -6.16,-82.29 -5.91,-82.17 -5.86,-81.94 -6.1,-81.59 -6.71,-81.09 -7.72,-80.45 -9.12,-79.65 -10.89,-78.67 -13.04,-77.51 -15.63,-76.19 -18.75,-74.71 -22.41,-73.07 -26.57,-71.3 -31.17,-69.39" fill="none" stroke="rgb(149, 69, 53)" stroke-width="2" stroke-linejoin="round" filter="url(#fuzzy)" /><polyline points="5.43,-82.51 6.3,-82.45 7.24,-82.34 7.96,-82.2 8.39,-82.04 8.47,-81.88 8.15,-81.74 7.44,-81.59 6.39,-81.42 5.01,-81.23 3.21,-81.02 0.84,-80.82 -2.19,-80.67 -5.88,-80.55 -10.27,-80.42" fill="none" stroke="rgb(149, 69, 53)" stroke-width="2" stroke-linejoin="round" filter="url(#fuzzy)" /><polyline points="-26.93,-74.91 -26.36,-75.18 -25.64,-75.54 -24.86,-75.95 -24.16,-76.31 -23.61,-76.55 -23.26,-76.65 -23.07,-76.63 -23.04,-76.5 -23.15,-76.23 -23.43,-75.8 -23.96,-75.18 -24.79,-74.32 -25.94,-73.23 -27.41,-71.91 -29.2,-70.39 -31.33,-68.62 -33.84,-66.53 -36.83,-64.04 -40.45,-61.03" fill="none" stroke="rgb(149, 69, 53)" stroke-width="2" stroke-linejoin="round" filter="url(#fuzzy)" /><polyline points="-26.44,-75.16 -25.49,-75.56 -24.14,-76.16 -22.55,-76.8 -20.87,-77.41 -19.13,-77.97 -17.33,-78.53 -15.46,-79.12 -13.53,-79.73 -11.58,-80.37 -9.67,-80.98 -7.89,-81.53 -6.32,-81.98 -5.07,-82.36 -4.27,-82.68" fill="none" stroke="rgb(149, 69, 53)" stroke-width="2" stroke-linejoin="round" filter="url(#fuzzy)" /><polyline points="-26.44,-75.16 -25.56,-75.56 -24.42,-76.13 -23.18,-76.72 -21.97,-77.25 -20.79,-77.74 -19.6,-78.22 -18.36,-78.7 -17.07,-79.2 -15.77,-79.7 -14.53,-80.17 -13.41,-80.59 -12.45,-80.93 -11.67,-81.2 -11.09,-81.41 -10.71,-81.56 -10.52,-81.65 -10.57,-81.67 -10.9,-81.61 -11.59,-81.46 -12.63,-81.2" fill="none" stroke="rgb(149, 69, 53)" stroke-width="2" stroke-linejoin="round" filter="url(#fuzzy)" /><polyline points="-20.42,-78.43 -18.54,-79.14 -17.41,-79.58 -16.69,-79.8 -16.18,-79.87 -15.84,-79.83 -15.67,-79.68 -15.68,-79.41 -15.89,-78.98 -16.31,-78.39 -16.97,-77.63 -17.88,-76.7 -19.08,-75.59 -20.57,-74.28 -22.42,-72.74 -24.64,-70.94 -27.25,-68.89 -30.22,-66.62 -33.55,-64.17 -37.32,-61.45 -41.73,-58.18" fill="none" stroke="rgb(149, 69, 53)" stroke-width="2" stroke-linejoin="round" filter="url(#fuzzy)" /><polyline points="53.02,-43.16 53.11,-42.37 53.08,-41.41 52.64,-40.8 51.76,-40.54 50.47,-40.5 48.78,-40.6 46.7,-40.79 44.21,-41.08 41.29,-41.5 37.92,-42.13 34.05,-43.02 29.66,-44.23 24.72,-45.76 19.21,-47.58 13.13,-49.68 6.49,-52.04 -0.71,-54.69 -8.46,-57.63 -16.81,-60.87 -25.8,-64.37" fill="none" stroke="rgb(149, 69, 53)" stroke-width="2" stroke-linejoin="round" filter="url(#fuzzy)" /><polyline points="52.27,-44.26 52.7,-43.44 52.87,-42.71 52.81,-42.18 52.47,-42.02 51.81,-42.28 50.84,-42.9 49.58,-43.82 48.02,-45.01 46.14,-46.48 43.88,-48.3 41.16,-50.55 37.97,-53.31 34.31,-56.66 30.23,-60.59 25.74,-65.09 20.72,-70.15 14.95,-75.86" fill="none" stroke="rgb(149, 69, 53)" stroke-width="2" stroke-linejoin="round" filter="url(#fuzzy)" /><polyline points="54.13,-40 54.46,-39.1 54.35,-38.79 53.99,-38.63 53.36,-38.61 52.43,-38.76 51.16,-39.16 49.51,-39.93 47.42,-41.15 44.88,-42.89 41.85,-45.17 38.32,-47.98 34.26,-51.32 29.63,-55.19 24.44,-59.63 18.74,-64.63 12.59,-70.19 5.94,-76.34" fill="none" stroke="rgb(149, 69, 53)" stroke-width="2" stroke-linejoin="round" filter="url(#fuzzy)" /><polyline points="17.6,-79.42 18.2,-79.29 19.1,-78.67 20.5,-77.6 22.29,-76.23 24.28,-74.68 26.39,-73 28.59,-71.21 30.88,-69.31 33.18,-67.37 35.41,-65.45 37.5,-63.64 39.46,-61.97 41.36,-60.4 43.22,-58.81" fill="none" stroke="rgb(149, 69, 53)" stroke-width="2" stroke-linejoin="round" filter="url(#fuzzy)" /><polyline points="-35.17,-68.34 -34.55,-68.86 -33.6,-69.63 -32.65,-70.41 -31.68,-71.21 -30.69,-72 -29.72,-72.75 -28.84,-73.41 -28.1,-73.95 -27.53,-74.35 -27.15,-74.62 -26.97,-74.74 -27,-74.7 -27.28,-74.49 -27.88,-74.07 -28.89,-73.36 -30.43,-72.23" fill="none" stroke="rgb(149, 69, 53)" stroke-width="2" stroke-linejoin="round" filter="url(#fuzzy)" /><polyline points="-35.17,-68.34 -34.25,-68.71 -32.41,-69.04 -29.97,-69.13 -26.92,-69 -23.24,-68.69 -18.96,-68.19 -14.16,-67.48 -8.89,-66.57 -3.2,-65.46 2.92,-64.16 9.43,-62.7 16.33,-61.1 23.59,-59.39 31.21,-57.53 39.2,-55.32" fill="none" stroke="rgb(149, 69, 53)" stroke-width="2" stroke-linejoin="round" filter="url(#fuzzy)" /><polyline points="-26.44,-75.16 -25.66,-75.52 -24.82,-75.97 -24.09,-76.33 -23.58,-76.51 -23.31,-76.51 -23.24,-76.36 -23.33,-76.06 -23.55,-75.62 -23.96,-75 -24.63,-74.15 -25.62,-73.03 -26.99,-71.61 -28.74,-69.91 -30.87,-67.92 -33.41,-65.57 -36.45,-62.72 -40.07,-59.23 -44.33,-55.06" fill="none" stroke="rgb(149, 69, 53)" stroke-width="2" stroke-linejoin="round" filter="url(#fuzzy)" /><polyline points="34.25,-69.05 35.23,-68.12 36.12,-67.2 37.12,-66.15 38.12,-65.09 39.09,-64.05 40.02,-62.97 40.94,-61.88 41.82,-60.81 42.63,-59.79 43.36,-58.85 44.02,-58 44.57,-57.29 45.01,-56.74 45.31,-56.37 45.45,-56.19 45.43,-56.21 45.23,-56.45 44.8,-56.99 44.14,-57.87 43.28,-59.06 42.2,-60.51" fill="none" stroke="rgb(149, 69, 53)" stroke-width="2" stroke-linejoin="round" filter="url(#fuzzy)" /><polyline points="-0.7,-83.2 -0.48,-83 0.47,-82.8 1.69,-82.47 3.2,-82.01 4.92,-81.44 6.74,-80.78 8.58,-80.05 10.46,-79.27 12.39,-78.44 14.39,-77.57 16.43,-76.67 18.48,-75.75 20.49,-74.83 22.44,-73.92 24.33,-73.03 26.17,-72.16 27.95,-71.34 29.67,-70.55 31.25,-69.82 32.6,-69.18 33.65,-68.71 34.46,-68.43" fill="none" stroke="rgb(149, 69, 53)" stroke-width="2" stroke-linejoin="round" filter="url(#fuzzy)" /><polyline points="32.14,-70.93 31.94,-71.07 32.59,-70.49 33.46,-69.7 34.33,-68.86 35.19,-67.98 36.08,-67.05 37.01,-66.08 37.94,-65.11 38.85,-64.16 39.71,-63.27 40.49,-62.44 41.18,-61.69 41.75,-61.04 42.21,-60.52 42.52,-60.15 42.69,-59.95 42.71,-59.93 42.55,-60.11 42.2,-60.54 41.61,-61.24 40.81,-62.16 39.88,-63.21 38.83,-64.34" fill="none" stroke="rgb(149, 69, 53)" stroke-width="2" stroke-linejoin="round" filter="url(#fuzzy)" /><polyline points="-2.84,-82.9 -1.39,-82.95 -0.12,-82.77 1.34,-82.43 3.05,-81.97 5.06,-81.41 7.3,-80.76 9.64,-80.04 11.99,-79.27 14.32,-78.48 16.65,-77.68 19,-76.87 21.34,-76.06 23.6,-75.25 25.6,-74.55 26.96,-74.19" fill="none" stroke="rgb(149, 69, 53)" stroke-width="2" stroke-linejoin="round" filter="url(#fuzzy)" /><polyline points="26.74,-74.72 28.95,-73.19 29.61,-72.42 29.37,-71.98 28.52,-71.68 27.18,-71.43 25.34,-71.22 22.95,-71.07 19.95,-70.98 16.31,-70.94 12.02,-70.94 7.07,-71.01 1.41,-71.2 -5.02,-71.55 -12.26,-72.03 -20.29,-72.55" fill="none" stroke="rgb(149, 69, 53)" stroke-width="2" stroke-linejoin="round" filter="url(#fuzzy)" /><polyline points="52.27,-44.26 52.78,-43.36 53.19,-42.4 53.54,-41.5 53.77,-40.84 53.85,-40.48 53.79,-40.4 53.59,-40.55 53.27,-40.91 52.79,-41.49 52.13,-42.38 51.23,-43.68 50.07,-45.49 48.61,-47.9 46.87,-50.91 44.8,-54.54 42.24,-58.98" fill="none" stroke="rgb(149, 69, 53)" stroke-width="2" stroke-linejoin="round" filter="url(#fuzzy)" /><polyline points="54.88,-38.23 46.25,-45.75 32.18,-57.83 22.02,-63.78 16.93,-65.6 14.44,-66.05 11.73,-66.11 7.55,-65.75 2.36,-64.92 -2.38,-63.82 -5.37,-62.82 -6.24,-62.45 -5.44,-63.18 -3.39,-65.07 0.06,-67.35 4.88,-68.83 8.97,-69.1 7.67,-69.4 -2.64,-71.71 -16.63,-75.82 -17.92,-79.27" fill="none" stroke="rgb(149, 69, 53)" stroke-width="2" stroke-linejoin="round" filter="url(#fuzzy)" /><polyline points="-16.24,-80.21 1.63,-76.78 16.37,-71.81 20.87,-70.73 19.88,-71.77 17.91,-72.44 16.71,-71.91 16.41,-70.64 16.64,-69.4 16.99,-68.72 17.3,-68.66 17.73,-68.91 18.71,-69.02 20.52,-68.7 23.01,-68.01 25.77,-67.2 28.56,-66.37 31.46,-65.36 34.65,-63.79 38.1,-61.44 41.15,-59.02 41.39,-59.92 34.25,-69.05" fill="none" stroke="rgb(149, 69, 53)" stroke-width="2" stroke-linejoin="round" filter="url(#fuzzy)" /><polyline points="18.4,-79.28 15.38,-76.51 23.27,-69.46 24.87,-64.29 20.59,-62.71 15.07,-64.07 10.59,-66.83 6.95,-69.63 3.89,-71.62 2.27,-72.48 3.37,-72.29 7.5,-71.49 13.31,-70.72 18.24,-70.65 19.77,-71.64 16.8,-73.67 10.42,-76.09 4.02,-77.4 2.76,-74.56 14.46,-61.87 58.33,-27.19" fill="none" stroke="rgb(149, 69, 53)" stroke-width="2" stroke-linejoin="round" filter="url(#fuzzy)" /><polyline points="-21.93,-77.62 -29.82,-68.42 -19.07,-68.86 -4.16,-69.33 6.54,-70.18 10.81,-71.58 10.69,-72.35 9.34,-71.41 9.14,-68.65 11.17,-64.84 15.4,-61.03 21,-57.94 26.69,-55.8 31.08,-54.37 32.84,-53.47 30.45,-53.8 21.97,-57.4 6.72,-66.02 -10.33,-76.05 -22.61,-77.21" fill="none" stroke="rgb(149, 69, 53)" stroke-width="2" stroke-linejoin="round" filter="url(#fuzzy)" /><polyline points="54.67,-39.04 -0.06,-59.29 -12.56,-66.37 -5.67,-66.19 6.53,-63.36 16.16,-60.97 20.98,-60.12 21.95,-60.53 20.72,-61.46 18.51,-62.53 16.2,-63.79 14.73,-65.25 15.18,-66.33 18.41,-65.94 24.3,-63.26 31.37,-58.8 36.94,-54.74 38.77,-53.58 38.13,-55.17 40.89,-55.46 44.14,-57.96" fill="none" stroke="rgb(149, 69, 53)" stroke-width="2" stroke-linejoin="round" filter="url(#fuzzy)" /><polyline points="58.16,-28.81 29.9,-42.66 0.31,-51.87 -11.88,-57.84 -11.75,-61.53 -5.58,-63.43 2.45,-64.35 9.02,-65.23 11.92,-66.52 11,-67.75 8.41,-68.15 7.13,-67.66 8.83,-67.67 13.14,-69.75 21.57,-71.74 38.08,-65.74" fill="none" stroke="rgb(149, 69, 53)" stroke-width="2" stroke-linejoin="round" filter="url(#fuzzy)" /><polyline points="-49.88,-49.52 3.87,-48.23 2.49,-57.87 -7.41,-64.68 -10.79,-67.83 -7.21,-67.69 -0.86,-64.92 4.22,-60.83 6.62,-56.86 7.98,-53.87 10.8,-52.04 15.14,-51.42 17.31,-52.47 12.56,-55.93 0.02,-61.8 -15.35,-67.94 -27.95,-70.11 -35.41,-68.04" fill="none" stroke="rgb(149, 69, 53)" stroke-width="2" stroke-linejoin="round" filter="url(#fuzzy)" /><polyline points="-44.96,-57.3 -16.49,-72.31 -10.42,-74.09 -7.98,-71.38 -2.54,-68.7 3.99,-67.36 8.43,-66.94 9.28,-66.73 7.15,-66.28 4.33,-65.4 3.71,-63.92 7.12,-61.75 14.12,-59.03 22,-56.25 27.3,-54.16 27.81,-53.44 23.84,-54.32 17.84,-56.6 12.72,-60.26 9.54,-66.2 5.69,-75.3 3.88,-82.95" fill="none" stroke="rgb(149, 69, 53)" stroke-width="2" stroke-linejoin="round" filter="url(#fuzzy)" /><polyline points="-45.8,-56.03 -29.33,-62.49 -4.21,-61.42 13.57,-56.88 22.15,-52.68 26.1,-49.8 28.86,-48.51 31.4,-48.86 33.51,-50.5 34.55,-52.94 33.61,-55.79 29.99,-58.55 23.89,-60.47 16.56,-60.99 9.69,-60.81 4.87,-62.24 3.82,-67.18 8.91,-72.95 32.14,-70.93" fill="none" stroke="rgb(149, 69, 53)" stroke-width="2" stroke-linejoin="round" filter="url(#fuzzy)" /><polyline points="27.1,-74.74 -1.29,-67.58 6.92,-66.06 16.16,-67.11 19.96,-69.76 20.02,-72.08 18.13,-73.06 15.1,-72.96 11.75,-72.59 9.3,-72.4 8.87,-72.25 10.8,-71.7 14.24,-70.69 17.34,-69.79 17.85,-69.85 14.09,-71.2 5.85,-73.15 -5.5,-74.35 -17.3,-74.54 -17.92,-79.27" fill="none" stroke="rgb(149, 69, 53)" stroke-width="2" stroke-linejoin="round" filter="url(#fuzzy)" /><polyline points="-35.01,-68.51 4.96,-71.76 20.72,-70.7 22.94,-69.86 16.3,-70.34 5.94,-71.44 -3.96,-72.48 -11.68,-72.98 -17.53,-72.51 -22.12,-70.78 -25.15,-67.87 -25.4,-64.35 -21.96,-61.3 -15.7,-60.02 -9.95,-61.46 -9.09,-65.23 -15.3,-69.03 -25.6,-69.92 -32.75,-68.48 -26.93,-74.91" fill="none" stroke="rgb(149, 69, 53)" stroke-width="2" stroke-linejoin="round" filter="url(#fuzzy)" /><polyline points="-6.28,-82.39 -12.56,-75 -10.42,-67.31 -7.61,-64.58 -6.46,-63.73 -4.11,-62.03 0.29,-59.45 4.83,-57.46 7.27,-57.33 6.85,-59.19 4.32,-62.16 1.05,-64.97 -1.73,-66.66 -3.28,-66.95 -3.48,-66.37 -2.98,-65.93 -3.19,-66.65 -5.6,-68.95 -10.47,-72.14 -16.17,-74.6 -21.23,-74.42 -28.89,-68.99 -48.13,-52.04" fill="none" stroke="rgb(149, 69, 53)" stroke-width="2" stroke-linejoin="round" filter="url(#fuzzy)" /><polyline points="55.71,-36 12.88,-54.7 14.63,-61.61 19.95,-62.62 20.07,-62.65 16.73,-63.16 12.47,-63.82 8.11,-64.37 4.3,-64.85 2.98,-65.17 6.37,-64.94 14.64,-63.87 24.62,-62.34 31.21,-61.66 30.6,-63.23 23.85,-65.99 21.55,-62.88 54.67,-39.04" fill="none" stroke="rgb(149, 69, 53)" stroke-width="2" stroke-linejoin="round" filter="url(#fuzzy)" /><polyline points="5.48,-82.68 -3.61,-78.58 -0.37,-74.46 4.21,-70.1 7.1,-66.38 7.69,-63.56 6.57,-62.06 3.59,-62.22 -1.93,-63.6 -9.04,-65.11 -14.09,-66.11 -12.32,-67.03 -1.73,-68.5 13.43,-70.27 24.97,-71.28 38.08,-65.74" fill="none" stroke="rgb(149, 69, 53)" stroke-width="2" stroke-linejoin="round" filter="url(#fuzzy)" /><polyline points="52.45,-44.2 20.38,-56.13 -7.14,-60.36 -20.09,-64.07 -25.43,-66.62 -27.8,-67.8 -28.02,-68.51 -25.75,-69.48 -21.07,-70.6 -14.68,-71.25 -7.52,-70.83 -0.58,-69.27 5.1,-67.02 8.43,-64.8 8.56,-63.27 5.16,-62.7 -1.13,-62.9 -8.55,-63.36 -14.19,-63.55 -14.54,-63.38 -6.98,-63.36 8.12,-63.87 25.92,-63.72 40.2,-58.81 53.02,-43.16" fill="none" stroke="rgb(149, 69, 53)" stroke-width="2" stroke-linejoin="round" filter="url(#fuzzy)" /><polyline points="10.9,-81.86 -15.32,-72.26 -12.14,-70.91 -5.55,-69.51 -3.36,-67.98 -2.44,-67.21 1.3,-66.89 8.5,-66.24 16.97,-64.95 24.02,-63.3 28.24,-61.81 29.78,-60.83 29.68,-60.45 28.91,-60.54 27.91,-60.85 26.67,-60.98 25.19,-60.63 23.59,-59.9 21.96,-59.72 19.82,-61.59 16.16,-66.58 11.39,-73.58 11.27,-78.57 22.07,-77.46" fill="none" stroke="rgb(149, 69, 53)" stroke-width="2" stroke-linejoin="round" filter="url(#fuzzy)" /><polyline points="45.72,-55.97 29.93,-51.61 2.72,-58 -11,-63.34 -10.19,-66.65 -0.8,-67.67 10.96,-66.59 20.48,-64.57 25,-63.13 23.62,-63.15 17.36,-64.53 8.82,-66.54 1.35,-68.52 -2.36,-70.25 -1.45,-71.87 2.94,-73.43 8.7,-74.55 14.11,-74.56 17.9,-73.19 16.82,-71.71 3.17,-72.78 -30.34,-72.52" fill="none" stroke="rgb(149, 69, 53)" stroke-width="2" stroke-linejoin="round" filter="url(#fuzzy)" /><polyline points="30.41,-72.35 21.79,-70.88 18.97,-64.84 19.91,-59.54 18.8,-58.05 16.06,-60.27 13.09,-64.92 9.89,-70.38 6.08,-75.11 2.23,-78.22 -0.42,-79.78 -1.29,-80.39 -1.09,-80.61 -0.15,-80.46 5.89,-79.26 27.08,-74.53" fill="none" stroke="rgb(149, 69, 53)" stroke-width="2" stroke-linejoin="round" filter="url(#fuzzy)" /><polyline points="44.14,-57.96 13.8,-73.09 6.17,-75.76 6.72,-72.25 10.91,-67.56 15.37,-64.91 17.91,-65.05 18.37,-66.79 17.73,-68.45 16.75,-69 15.51,-68.45 13.77,-67.51 11.71,-66.9 10.06,-66.95 9.52,-67.57 9.94,-68.57 10.14,-69.86 8.96,-71.5 6.71,-73.25 5.8,-74.14 8.84,-72.27 14.16,-65.88 8.85,-56.7 -43.48,-59.13" fill="none" stroke="rgb(149, 69, 53)" stroke-width="2" stroke-linejoin="round" filter="url(#fuzzy)" /><polyline points="58.5,-27.6 25.75,-57.37 13.62,-65.6 7.68,-68.46 5.78,-69.34 3.74,-69.53 -0.81,-69.68 -6.46,-69.69 -9.97,-68.9 -9.15,-66.57 -4.02,-62.52 3.25,-57.68 9.09,-54.02 9.67,-53.6 3.15,-56.91 -8.28,-61.84 -18.88,-66.67 -10.45,-81.8" fill="none" stroke="rgb(149, 69, 53)" stroke-width="2" stroke-linejoin="round" filter="url(#fuzzy)" /><polyline points="8.43,-82.22 -15.51,-76.08 -18.4,-75.83 -13.31,-75.94 -6.3,-74.29 0.8,-71.05 7.89,-67.09 14.81,-63.05 20.46,-59.35 23.11,-56.57 21.77,-55.42 17.27,-56.24 12.12,-58.75 8.99,-62 8.99,-64.52 10,-64.23 3.14,-59.83 -43.48,-59.13" fill="none" stroke="rgb(149, 69, 53)" stroke-width="2" stroke-linejoin="round" filter="url(#fuzzy)" /><polyline points="-27.63,-74.24 -24.25,-66.59 -10.42,-70.25 -1.09,-73.13 4.09,-72.88 5.88,-71.08 4.78,-70.19 2.18,-71.22 0.25,-73.08 1.01,-73.3 5.99,-69.71 16.01,-61.82 29.9,-51.75 41.97,-44.66 41.53,-48.95 16.49,-80.17" fill="none" stroke="rgb(149, 69, 53)" stroke-width="2" stroke-linejoin="round" filter="url(#fuzzy)" /><polyline points="-47.04,-53.88 -19.01,-66.83 -7.22,-66.52 -2.25,-66.41 -0.88,-67.5 0.84,-67.99 4.06,-67.41 7.52,-66.66 9.86,-66.69 10.78,-67.69 10.76,-69.12 10.39,-70.19 9.96,-70.32 9.52,-69.41 8.91,-67.82 7.9,-66.17 6.49,-65.05 5.19,-64.57 5.07,-64.26 6.8,-63.25 9.21,-61.28 8.83,-59.83 2.89,-62.25 -6.06,-70.11 -26.44,-75.16" fill="none" stroke="rgb(149, 69, 53)" stroke-width="2" stroke-linejoin="round" filter="url(#fuzzy)" /><polyline points="-10.45,-81.8 25.47,-59.72 26.04,-59.26 19.38,-61.23 17.42,-60.56 20.99,-57.93 27.07,-55.05 32.57,-53.36 35.66,-53.66 36.04,-55.87 34.48,-59.08 31.88,-62.17 28.59,-64.46 24.33,-65.95 18.92,-67.04 13.06,-67.95 8.56,-68.56 7.41,-68.58 10.23,-67.91 15.37,-66.83 19.76,-65.66 21.44,-64.57 21.29,-64.09 22.48,-65.54 42.05,-60.98" fill="none" stroke="rgb(149, 69, 53)" stroke-width="2" stroke-linejoin="round" filter="url(#fuzzy)" /><polyline points="-32.62,-70.4 -0.15,-75.5 14.67,-73.93 19.99,-70.23 18.64,-67.27 12.95,-65.56 4.48,-64.53 -5.05,-63.6 -13.03,-62.51 -16.67,-61.4 -14.66,-60.69 -8.11,-61.01 -0.13,-62.98 6.03,-66.65 9,-71.1 10.41,-74.79 13.63,-76.36 20.45,-75.5 28.02,-73.22 30.41,-72.35" fill="none" stroke="rgb(149, 69, 53)" stroke-width="2" stroke-linejoin="round" filter="url(#fuzzy)" /><polyline points="-26.93,-74.91 -4.88,-71.95 10.93,-65.75 12.75,-63.13 8.51,-63.52 3.98,-64.53 0.68,-64.67 -2.09,-64.12 -5.34,-63.89 -9.23,-64.63 -12.78,-66.13 -14.22,-67.7 -11.83,-68.7 -4.82,-68.75 5.74,-67.73 16.55,-65.9 22.75,-64.51 20.16,-65.65 9.58,-70.22 2.75,-74.84 27.08,-74.53" fill="none" stroke="rgb(149, 69, 53)" stroke-width="2" stroke-linejoin="round" filter="url(#fuzzy)" /><polyline points="55.22,-37.32 52.57,-38.42 44.7,-48.29 38.02,-55.39 32.78,-58.98 28.2,-60.46 23.41,-61.06 17.42,-61.7 9.99,-62.84 2.22,-64.34 -4.17,-65.78 -8.04,-66.84 -9.7,-67.53 -10.51,-68.1 -11.67,-68.7 -13.12,-69.26 -13.68,-69.49 -12.03,-69.01 -7.92,-67.41 -2.06,-64.42 4.99,-60.87 12.03,-60.48 11.39,-69.21 -10.45,-81.8" fill="none" stroke="rgb(149, 69, 53)" stroke-width="2" stroke-linejoin="round" filter="url(#fuzzy)" /><polyline points="-1.58,-82.9 -20.97,-74.06 -23.31,-69.5 -11.22,-67.22 6.46,-64.25 21.57,-61.11 29.76,-59.56 30.62,-60.19 26.46,-61.98 20.94,-63.23 17.74,-62.8 19.06,-60.97 24.14,-59.45 29.41,-60.29 31.03,-63.83 27.77,-67.57 17.96,-69.72 -16.24,-80.21" fill="none" stroke="rgb(149, 69, 53)" stroke-width="2" stroke-linejoin="round" filter="url(#fuzzy)" /><polyline points="-16.24,-80.21 -3.28,-77.27 1.72,-74.17 -3.04,-72.27 -7.84,-71.43 -8.1,-72 -4.64,-73.74 0.17,-75.87 4.78,-77.57 8.79,-78.35 12.3,-78.06 15.29,-76.76 17.25,-74.69 17.44,-72.34 15.62,-70.34 12.83,-69.27 11.37,-69.38 13.39,-70.47 18.79,-71.73 25.51,-71.47 33.53,-67.16 44.14,-57.96" fill="none" stroke="rgb(149, 69, 53)" stroke-width="2" stroke-linejoin="round" filter="url(#fuzzy)" /><polyline points="-2.84,-82.9 -1.54,-83.5 -0.71,-84.33 0.04,-84.82 0.83,-84.81 1.73,-84.58 2.74,-84.43 3.76,-84.56 4.73,-85.01 5.64,-85.76 6.57,-86.7 7.56,-87.65 8.64,-88.43 9.78,-88.99 10.97,-89.55 12.12,-90.49 12.96,-92.06 12.5,-93.9" fill="none" stroke="rgb(149, 69, 53)" stroke-width="2" stroke-linejoin="round" filter="url(#fuzzy)" /><polyline points="-6.28,-82.39 -6.7,-82.92 -7.78,-82.8 -8.83,-82.77 -9.81,-82.98 -10.8,-83.33 -11.8,-83.71 -12.78,-84.03 -13.74,-84.27 -14.68,-84.45 -15.61,-84.56 -16.58,-84.63 -17.62,-84.65 -18.75,-84.62 -19.96,-84.53 -21.17,-84.43 -22.21,-84.41 -22.96,-84.44 -23.86,-84.44 -6.28,-82.39 -5.26,-82.43 -4.1,-82.09 -2.95,-81.67 -1.91,-81.16 -1,-80.45 -0.17,-79.57 0.65,-78.68 1.51,-77.94 2.41,-77.46 3.31,-77.21 4.15,-77.06 4.91,-76.83 5.63,-76.4 6.37,-75.78 7.18,-75.04 8.04,-74.25 8.93,-73.28 9.83,-71.81 10.89,-69.63 -5.74,-82.52 -5.53,-79.79 -4.89,-80.1 -3.95,-80.41 -2.92,-80.39 -1.92,-80.25 -1.01,-80.13 -0.15,-80.04 0.69,-79.97 1.56,-79.86 2.47,-79.65 3.36,-79.3 4.21,-78.79 4.99,-78.14 5.72,-77.36 6.46,-76.42 7.24,-75.33 8.05,-74.15 8.87,-73.09 9.64,-72.36 10.1,-71.89 9.51,-71.42 -8.15,-82.23 -9.24,-82.01 -9.86,-81.9 -10.69,-81.81 -11.63,-81.78 -12.57,-81.82 -13.49,-81.9 -14.39,-81.99 -15.32,-82.08 -16.3,-82.16 -17.34,-82.19 -18.41,-82.12 -19.48,-81.93 -20.49,-81.65 -21.42,-81.34 -22.25,-81.09 -23.05,-80.9 -23.88,-80.71 -24.84,-80.43 -25.96,-79.96 -26.97,-79.55 -8.07,-82.09 -8.93,-83.09 -8.32,-84.78 -7.38,-86.31 -6.45,-87.81 -5.52,-89.4 -4.52,-90.88 -3.47,-91.98 -2.41,-92.55 -1.38,-92.64 -0.4,-92.44 0.56,-92.16 1.55,-91.92 2.62,-91.8 3.75,-91.86 4.82,-92.25 5.76,-93.1 6.65,-94.43 7.85,-95.97 9.99,-97.43 -14.01,-80.74 -12.96,-80.99 -11.9,-80.82 -10.83,-80.42 -9.81,-79.87 -8.83,-79.26 -7.85,-78.65 -6.89,-78.11 -5.94,-77.71 -5,-77.48 -4.07,-77.36 -3.13,-77.24 -2.21,-77.06 -1.32,-76.78 -0.5,-76.38 0.29,-75.79 1.07,-74.9 1.93,-73.61 2.85,-71.85 3.67,-69.72 4.13,-67.61 4.38,-66.45 -16.61,-80.08 -18.01,-79.09 -19.23,-78.18 -20.02,-77.16 -20.55,-76.09 -21.04,-75.11 -21.63,-74.35 -22.33,-73.75 -23.09,-73.19 -23.82,-72.54 -24.47,-71.75 -25.03,-70.84 -25.56,-69.95 -26.13,-69.19 -26.8,-68.6 -27.54,-68.06 -28.29,-67.3 -29.02,-66.13 -30.01,-64.77 -17.92,-79.27 -17.09,-80.43 -16.42,-81.17 -15.7,-81.86 -14.96,-82.62 -14.21,-83.43 -13.43,-84.2 -12.6,-84.82 -11.71,-85.24 -10.77,-85.48 -9.81,-85.68 -8.84,-85.98 -7.87,-86.5 -6.92,-87.27 -5.97,-88.23 -4.98,-89.22 -3.91,-90.07 -2.77,-90.69 -1.63,-91.17 -0.45,-91.75 1.5,-92.91 -21.93,-77.62 -22.47,-76.73 -23,-75.55 -23.72,-74.53 -24.49,-73.75 -25.2,-73.1 -25.84,-72.47 -26.44,-71.81 -27.04,-71.11 -27.66,-70.32 -28.3,-69.45 -28.97,-68.49 -29.62,-67.48 -30.14,-66.39 -30.4,-65.26 -30.61,-64.56 -21.93,-77.62 -23.48,-79.97 -25.37,-82.84 -27.29,-85.25 -28.71,-86.16 -29.6,-85.73 -30.31,-84.88 -31.17,-84.42 -32.32,-84.64 -33.71,-85.3 -35.2,-85.97 -36.72,-86.48 -38.34,-87.06 -40.16,-88.13 -42.18,-89.74 -44.41,-91.39 -48.15,-94.21 -25.16,-75.96 -23.2,-75.47 -22.37,-76.02 -21.73,-76.5 -21.05,-76.77 -20.28,-76.99 -19.41,-77.28 -18.45,-77.65 -17.46,-78 -16.48,-78.25 -15.53,-78.36 -14.63,-78.33 -13.75,-78.25 -12.9,-78.14 -12.03,-78.02 -11.09,-77.88 -10.11,-77.77 -9.34,-77.72 -9.9,-77.48 -5.31,-69.6 -5.73,-70.55 -6.82,-71.93 -7.84,-73.01 -8.75,-73.7 -9.63,-74.12 -10.51,-74.38 -11.37,-74.52 -12.2,-74.53 -12.99,-74.41 -13.8,-74.22 -14.66,-74.09 -15.63,-74.2 -16.74,-74.64 -17.95,-75.37 -19.16,-76.19 -20.25,-76.86 -21.16,-77.22 -21.93,-77.26 -22.67,-77.08 -23.55,-76.72 -25.16,-75.96" fill="none" stroke="rgb(149, 69, 53)" stroke-width="2" stroke-linejoin="round" filter="url(#fuzzy)" /><polyline points="-25.57,-75.44 -26.08,-74.58 -26.5,-73.55 -27.07,-72.78 -27.78,-72.22 -28.59,-71.73 -29.44,-71.21 -30.29,-70.64 -31.11,-70.01 -31.87,-69.34 -32.57,-68.63 -33.21,-67.88 -33.83,-67.13 -34.43,-66.37 -35.06,-65.56 -35.72,-64.64 -36.46,-63.55 -37.25,-62.35 -38.03,-61.17 -38.52,-60.15 -25.57,-75.44 -26.31,-75.21 -27.08,-75.12 -28.08,-75.41 -29.35,-76.12 -30.72,-76.9 -32.02,-77.32 -33.15,-77.24 -34.18,-76.88 -35.25,-76.61 -36.47,-76.69 -37.86,-77.16 -39.34,-77.86 -40.84,-78.53 -42.27,-78.91 -43.64,-78.85 -45,-78.36 -46.42,-77.63 -47.91,-77.02 -49.46,-77.23" fill="none" stroke="rgb(149, 69, 53)" stroke-width="2" stroke-linejoin="round" filter="url(#fuzzy)" /><polyline points="-7.11,-93.3 -7.53,-93.18 -8.66,-92.09 -9.72,-91.08 -10.71,-90.4 -11.69,-89.95 -12.65,-89.51 -13.56,-88.92 -14.41,-88.1 -15.21,-87.1 -16.01,-86.05 -16.84,-85.03 -17.73,-84.12 -18.66,-83.31 -19.59,-82.51 -20.45,-81.64 -21.19,-80.65 -21.84,-79.6 -22.46,-78.6 -23.14,-77.75 -23.93,-77.08 -24.81,-76.5 -25.69,-75.94 -26.42,-75.4 -26.93,-74.91 -27.63,-74.24 -28.49,-73.82 -29.44,-73.51 -30.46,-73.21 -31.45,-72.79 -32.39,-72.31 -33.33,-71.91 -34.32,-71.69 -35.38,-71.64 -36.51,-71.68 -37.67,-71.71 -38.86,-71.64 -40.05,-71.42 -41.22,-71.03 -42.31,-70.49 -43.27,-69.83 -44.07,-69.1 -44.79,-68.37 -45.54,-67.71 -46.47,-67.13 -47.61,-66.57 -48.94,-65.94 -50.34,-65.38 -51.44,-65.46" fill="none" stroke="rgb(149, 69, 53)" stroke-width="2" stroke-linejoin="round" filter="url(#fuzzy)" /><polyline points="-29.14,-73.27 -28.39,-73.43 -27.61,-73.7 -26.91,-74.15 -26.18,-74.57 -25.36,-74.88 -24.46,-75.06 -23.5,-75.11 -22.55,-75.05 -21.61,-74.87 -20.68,-74.6 -19.73,-74.31 -18.75,-74.06 -17.75,-73.91 -16.73,-73.85 -15.74,-73.81 -14.78,-73.68 -13.85,-73.39 -12.95,-72.97 -12.09,-72.58 -11.26,-72.34 -10.35,-72.21 -9.14,-71.98 -7.05,-71.72 -59.96,-68.68 -58.03,-70.23 -56.99,-71.37 -55.73,-71.43 -54,-70.84 -51.98,-70.09 -50,-69.49 -48.28,-69.21 -46.93,-69.31 -45.94,-69.78 -45.13,-70.49 -44.3,-71.21 -43.26,-71.7 -41.95,-71.83 -40.45,-71.68 -38.95,-71.44 -37.6,-71.31 -36.48,-71.42 -35.57,-71.79 -34.75,-72.3 -33.92,-72.74 -32.9,-72.84 -31.61,-72.61 -30.34,-72.52" fill="none" stroke="rgb(149, 69, 53)" stroke-width="2" stroke-linejoin="round" filter="url(#fuzzy)" /><polyline points="-31.18,-72.04 -33.3,-73.41 -33.9,-72.51 -34.57,-71.77 -35.44,-71.39 -36.35,-71.08 -37.24,-70.63 -38.14,-70.03 -39.1,-69.36 -40.09,-68.68 -41.07,-68.02 -41.96,-67.35 -42.75,-66.66 -43.49,-65.95 -44.27,-65.28 -45.17,-64.69 -46.19,-64.2 -47.29,-63.8 -48.39,-63.43 -49.4,-62.98 -50.38,-62.33 -51.5,-61.42 -52.95,-60.3 -54.72,-59.05 -56.22,-57.43" fill="none" stroke="rgb(149, 69, 53)" stroke-width="2" stroke-linejoin="round" filter="url(#fuzzy)" /><polyline points="-42.9,-52.47 -42.52,-53.82 -42.4,-54.55 -42.19,-55.44 -41.83,-56.55 -41.39,-57.75 -40.92,-58.88 -40.45,-59.87 -39.98,-60.75 -39.47,-61.56 -38.88,-62.39 -38.22,-63.29 -37.5,-64.29 -36.77,-65.35 -36.1,-66.4 -35.48,-67.36 -34.89,-68.2 -34.25,-68.96 -33.47,-69.74 -32.76,-70.41" fill="none" stroke="rgb(149, 69, 53)" stroke-width="2" stroke-linejoin="round" filter="url(#fuzzy)" /><polyline points="-33.17,-69.97 -33.88,-72.72 -33.77,-74.33 -32.88,-74.83 -31.88,-75.36 -31.13,-76.46 -30.61,-77.93 -30.13,-79.34 -29.55,-80.36 -28.85,-81.04 -28.07,-81.64 -27.3,-82.47 -26.56,-83.69 -25.9,-85.24 -25.33,-86.93 -24.75,-88.55 -23.79,-89.63" fill="none" stroke="rgb(149, 69, 53)" stroke-width="2" stroke-linejoin="round" filter="url(#fuzzy)" /><polyline points="-33.17,-69.97 -33.34,-71.63 -33.8,-74.67 -34.01,-77.74 -33.69,-79.84 -32.95,-80.93 -31.98,-81.35 -30.96,-81.44 -29.96,-81.47 -29.04,-81.65 -28.21,-82.2 -27.48,-83.23 -26.85,-84.81 -26.37,-86.91 -26.02,-89.38 -25.77,-91.88 -25.6,-94.04 -25.8,-95.49" fill="none" stroke="rgb(149, 69, 53)" stroke-width="2" stroke-linejoin="round" filter="url(#fuzzy)" /><polyline points="60.45,-17.93 65.92,-17.87 66.83,-16.99 67.01,-15.93 67.1,-14.79 67.28,-13.59 67.61,-12.37 68.06,-11.1 68.54,-9.78 68.95,-8.42 69.25,-7.01 69.51,-5.55 69.87,-4.07 70.44,-2.57 71.22,-1.08 72.09,0.39 72.95,1.87 73.77,3.4 74.63,5.02 75.63,6.76 76.71,8.61 77.69,10.48 78.4,12.18 78.68,13.5 78.25,14.37" fill="none" stroke="rgb(149, 69, 53)" stroke-width="2" stroke-linejoin="round" filter="url(#fuzzy)" /><polyline points="-35.41,-68.04 -36.55,-67.44 -37.79,-66.92 -38.96,-66.27 -39.95,-65.55 -40.79,-64.92 -41.59,-64.48 -42.45,-64.23 -43.44,-64.07 -44.6,-63.93 -45.87,-63.74 -47.2,-63.55 -48.5,-63.54 -49.71,-63.88 -50.87,-64.36 -52.33,-64.01" fill="none" stroke="rgb(149, 69, 53)" stroke-width="2" stroke-linejoin="round" filter="url(#fuzzy)" /><polyline points="-34.09,-102.92 -33.23,-97.89 -33.21,-95.13 -33.55,-93.31 -33.95,-91.59 -34.25,-89.49 -34.38,-86.86 -34.44,-83.96 -34.59,-81.26 -34.93,-79.12 -35.47,-77.59 -36.06,-76.38 -36.52,-75.03 -36.72,-73.31 -36.71,-71.3 -36.7,-69.37 -36.91,-67.77 -37.34,-66.42" fill="none" stroke="rgb(149, 69, 53)" stroke-width="2" stroke-linejoin="round" filter="url(#fuzzy)" /><polyline points="-38.67,-64.72 -39.71,-64.03 -40.72,-63.95 -41.7,-64.03 -42.66,-64 -43.63,-63.74 -44.59,-63.25 -45.54,-62.65 -46.58,-62.12 -47.78,-61.76 -49.2,-61.58 -50.78,-61.44 -52.4,-61.2 -53.91,-60.74 -55.19,-60.05 -56.22,-59.19 -57.06,-58.28 -57.87,-57.39 -58.76,-56.58 -59.85,-55.82 -61.2,-55.09 -62.84,-54.42 -64.68,-54.04 -66.51,-54.53 -68.33,-57.3" fill="none" stroke="rgb(149, 69, 53)" stroke-width="2" stroke-linejoin="round" filter="url(#fuzzy)" /><polyline points="-39.86,-63.6 -40.37,-63.11 -40.85,-62.67 -41.4,-62.15 -42.09,-61.54 -42.97,-60.94 -44.04,-60.51 -45.3,-60.33 -46.73,-60.35 -48.31,-60.44 -50.04,-60.52 -51.91,-60.54 -53.82,-60.5 -55.65,-60.37 -57.23,-60.11 -58.49,-59.63 -59.45,-58.92 -60.24,-58.01 -61.07,-56.99 -62.11,-55.94 -63.41,-54.94 -64.83,-54.17 -65.98,-54.08 -66.45,-55.73 -43.48,-59.13 -44.47,-58.1 -45.16,-57.83 -45.98,-57.57 -47.02,-57 -48.19,-56.18 -49.41,-55.33 -50.61,-54.63 -51.76,-54.1 -52.83,-53.66 -53.81,-53.19 -54.71,-52.58 -55.58,-51.78 -56.5,-50.8 -57.53,-49.76 -58.62,-48.91 -59.43,-48.7 -59.77,-50.13 -44.85,-57.08 -44.26,-57.46 -43.29,-58.28 -42.43,-59.3 -41.71,-60.23 -41.05,-60.95 -40.37,-61.45 -39.6,-61.8 -38.73,-62.13 -37.77,-62.55 -36.78,-63.08 -35.79,-63.63 -34.81,-64.06 -33.85,-64.27 -32.91,-64.3 -31.99,-64.4 -31.1,-64.81 -30.43,-65.41" fill="none" stroke="rgb(149, 69, 53)" stroke-width="2" stroke-linejoin="round" filter="url(#fuzzy)" /><polyline points="-44.47,-57.87 -44.81,-57.82 -45.36,-59.52 -46.31,-62.7 -47.37,-66.36 -48.16,-69.58 -48.46,-71.89 -48.16,-73.17 -47.35,-73.69 -46.27,-73.99 -45.24,-74.71 -44.56,-76.36 -44.44,-79.15 -44.93,-82.93 -45.86,-87.14 -46.74,-90.55 -46.47,-90.92 -49.3,-50.36 -49.33,-50.6 -50.2,-50.37 -51.29,-50.06 -52.19,-49.43 -52.83,-48.41 -53.32,-47.18 -53.8,-45.96 -54.32,-44.85 -54.88,-43.85 -55.48,-42.94 -56.11,-42.06 -56.77,-41.21 -57.49,-40.35 -58.26,-39.48 -59.11,-38.57 -60.03,-37.62 -61.02,-36.68 -62.04,-35.74 -63.09,-34.82 -64.16,-33.88 -65.25,-32.88 -66.35,-31.77 -67.4,-30.35 -68.14,-27.75" fill="none" stroke="rgb(149, 69, 53)" stroke-width="2" stroke-linejoin="round" filter="url(#fuzzy)" /><polyline points="-49.88,-49.52 -49.26,-50.69 -48.77,-51.49 -48.1,-52.59 -47.3,-53.89 -46.51,-55.17 -45.78,-56.3 -45.13,-57.3 -44.52,-58.23 -43.92,-59.17 -43.32,-60.12 -42.71,-61.07 -42.12,-61.97 -41.54,-62.81 -40.94,-63.61 -40.29,-64.44 -39.59,-65.34 -38.83,-66.32 -38.03,-67.36 -37.25,-68.35 -36.55,-69.23 -35.94,-69.98 -35.27,-70.73 -34.05,-71.83" fill="none" stroke="rgb(149, 69, 53)" stroke-width="2" stroke-linejoin="round" filter="url(#fuzzy)" /><polyline points="-49.88,-49.52 -49.12,-50.53 -48.45,-51.08 -47.45,-51.72 -46.2,-52.44 -44.93,-53.12 -43.8,-53.71 -42.85,-54.23 -42.04,-54.77 -41.3,-55.4 -40.57,-56.09 -39.83,-56.76 -39.03,-57.24 -38.18,-57.46 -37.31,-57.49 -36.44,-57.52 -35.52,-57.72 -34.42,-58.12 -33.03,-58.75" fill="none" stroke="rgb(149, 69, 53)" stroke-width="2" stroke-linejoin="round" filter="url(#fuzzy)" /><polyline points="-40.71,-63.57 -41.14,-63.06 -41.53,-62.45 -42.07,-61.65 -42.74,-60.72 -43.44,-59.77 -44.1,-58.85 -44.71,-57.95 -45.29,-57.03 -45.92,-56 -46.63,-54.84 -47.38,-53.62 -48.1,-52.44 -48.75,-51.38 -49.3,-50.47 -49.78,-49.63 -50.2,-48.8 -50.58,-48 -50.93,-47.26 -53.15,-43.22 -52.33,-45.38 -52.22,-47.45 -52.48,-49.41 -52.85,-51.27 -53.1,-52.96 -53.05,-54.4 -52.7,-55.71 -52.24,-57.15 -51.93,-58.99 -51.93,-61.3 -52.24,-63.93 -52.69,-66.6 -53.07,-69.11 -53.24,-71.37 -53.16,-73.4 -52.86,-75.2 -52.42,-76.76 -51.97,-78.11 -51.72,-79.56 -51.95,-81.72 -52.61,-84.93 -52.52,-87.9" fill="none" stroke="rgb(149, 69, 53)" stroke-width="2" stroke-linejoin="round" filter="url(#fuzzy)" /><polyline points="-53.5,-42.37 -53.39,-42.51 -53.88,-41.48 -54.5,-40.45 -55.11,-39.57 -55.68,-38.71 -56.25,-37.75 -56.86,-36.71 -57.54,-35.64 -58.25,-34.59 -58.93,-33.52 -59.51,-32.41 -59.97,-31.24 -60.36,-30.02 -60.74,-28.82 -61.16,-27.68 -61.63,-26.62 -62.14,-25.61 -62.68,-24.57 -63.25,-23.41 -63.87,-22.08 -64.5,-20.6 -65.06,-18.91 -65.82,-16.53 -52.66,-44.16 -53.77,-41.68 -54.38,-40.28 -54.79,-39.3 -55.16,-38.42 -55.6,-37.46 -56.1,-36.38 -56.64,-35.24 -57.18,-34.11 -57.73,-33.03 -58.27,-31.96 -58.8,-30.87 -59.27,-29.7 -59.66,-28.46 -60,-27.17 -60.3,-26.08 -60.35,-26.09" fill="none" stroke="rgb(149, 69, 53)" stroke-width="2" stroke-linejoin="round" filter="url(#fuzzy)" /><polyline points="-54.98,-38.28 -54.99,-38.17 -55.35,-37.23 -55.86,-35.97 -56.36,-34.68 -56.81,-33.47 -57.22,-32.3 -57.62,-31.14 -58.01,-29.97 -58.38,-28.79 -58.72,-27.64 -59.05,-26.51 -59.36,-25.42 -59.68,-24.33 -60.01,-23.2 -60.36,-21.99 -60.71,-20.68 -61.01,-19.31 -61.28,-17.95 -61.52,-16.67 -61.75,-15.5 -61.98,-14.36 -62.2,-12.91 -62.43,-10.41" fill="none" stroke="rgb(149, 69, 53)" stroke-width="2" stroke-linejoin="round" filter="url(#fuzzy)" /><polyline points="-80.14,-18.89 -78.72,-19.82 -76.85,-20.68 -75.2,-21.89 -73.75,-23.26 -72.37,-24.63 -71.02,-25.87 -69.6,-26.88 -68.08,-27.66 -66.45,-28.28 -64.82,-28.87 -63.29,-29.55 -61.97,-30.37 -60.91,-31.33 -60.12,-32.38 -59.48,-33.4 -58.74,-34.21 -57.5,-34.73 -55.82,-35.79 -57.64,-30.85 -57.82,-32.31 -57.72,-33.49 -57.7,-34.85 -57.79,-36.44 -57.89,-38.06 -57.92,-39.49 -57.82,-40.71 -57.6,-41.81 -57.35,-42.94 -57.21,-44.2 -57.32,-45.6 -57.64,-47.13 -57.98,-48.89 -57.93,-50.98 -57.44,-53.3" fill="none" stroke="rgb(149, 69, 53)" stroke-width="2" stroke-linejoin="round" filter="url(#fuzzy)" /><polyline points="52.89,-0.38 53.33,-0.21 53.73,-1.15 54.12,-2.41 54.51,-3.67 54.87,-4.87 55.17,-6.04 55.41,-7.21 55.65,-8.38 55.96,-9.56 56.38,-10.73 56.84,-11.89 57.22,-13.02 57.35,-14.09 57.16,-15.11 56.68,-16.12 56.17,-17.17 55.92,-18.34 56.17,-19.66 56.83,-21.05 57.54,-22.42 57.84,-23.68 57.75,-25.07 58.33,-27.19" fill="none" stroke="rgb(149, 69, 53)" stroke-width="2" stroke-linejoin="round" filter="url(#fuzzy)" /><polyline points="57.39,-31.2 57.73,-30.1 58.21,-29.1 58.65,-28.11 59.04,-27.06 59.46,-25.98 59.89,-24.91 60.33,-23.85 60.73,-22.8 61.09,-21.72 61.43,-20.57 61.77,-19.37 62.16,-18.14 62.65,-16.98 63.18,-15.92 63.64,-14.94 63.83,-13.87 63.69,-12.49" fill="none" stroke="rgb(149, 69, 53)" stroke-width="2" stroke-linejoin="round" filter="url(#fuzzy)" /><polyline points="55.76,-35.92 57.93,-36.31 59.78,-35.56 60.31,-33.93 60.38,-32.21 60.63,-30.75 61.26,-29.61 62.31,-28.7 63.71,-27.94 65.37,-27.26 67.21,-26.64 69.1,-26.02 70.9,-25.3 72.44,-24.4 73.69,-23.26 74.9,-21.96 76.46,-20.74 78.3,-19.79 79.83,-18.86 54.3,-39.98 54.1,-42.54 53.83,-43.93 53.71,-45.3 53.88,-47.09 54.43,-49.33 55.28,-51.84 56.25,-54.43 57.15,-56.97 57.82,-59.31 58.16,-61.38 58.15,-63.15 57.85,-64.71 57.4,-66.19 56.96,-67.78 56.76,-69.53 56.82,-71.34 56.84,-72.85 56.71,-74.47" fill="none" stroke="rgb(149, 69, 53)" stroke-width="2" stroke-linejoin="round" filter="url(#fuzzy)" /><polyline points="52.27,-44.26 52.84,-43.36 53.57,-42.48 54.53,-41.72 55.58,-41.14 56.64,-40.68 57.75,-40.29 58.93,-39.86 60.1,-39.28 61.12,-38.42 61.95,-37.26 62.66,-35.89 63.43,-34.52 64.41,-33.29 65.56,-32.25 66.71,-31.28 67.68,-30.26 68.44,-29.12 69.17,-27.97 70.1,-26.96 71.34,-25.94 72.57,-24.03 50.54,-47.75 50.43,-48.93 49.92,-49.99 49.4,-51.08 49.02,-52.3 48.83,-53.72 48.79,-55.37 48.78,-57.08 48.64,-58.66 48.29,-59.98 47.75,-61.08 47.11,-62.12 46.51,-63.28 46.05,-64.66 45.73,-66.25 45.49,-67.96 45.21,-69.67 44.83,-71.26 44.32,-72.67 43.72,-73.95 43.05,-75.17 42.28,-76.39 41.4,-77.52 40.55,-78.54 39.73,-80.11" fill="none" stroke="rgb(149, 69, 53)" stroke-width="2" stroke-linejoin="round" filter="url(#fuzzy)" /><polyline points="39.26,-74.4 39.47,-73.94 40.06,-72.36 40.6,-70.79 41.07,-69.41 41.58,-68.12 42.15,-66.9 42.78,-65.78 43.45,-64.76 44.13,-63.79 44.8,-62.8 45.41,-61.73 45.94,-60.58 46.39,-59.36 46.8,-58.13 47.21,-56.91 47.66,-55.71 48.14,-54.57 48.65,-53.51 49.18,-52.5 49.66,-51.43 49.96,-50.04 50.26,-48.54" fill="none" stroke="rgb(149, 69, 53)" stroke-width="2" stroke-linejoin="round" filter="url(#fuzzy)" /><polyline points="49.43,-49.63 50.25,-52.18 50.08,-53.6 49.91,-55 50.03,-56.88 50.62,-59.42 51.58,-62.46 52.56,-65.5 53.09,-68.01 52.88,-69.64 51.97,-70.47 50.73,-70.93 49.6,-71.62 48.95,-73.01 48.81,-75.22 49,-77.97 49.17,-80.71 49.09,-82.91 48.68,-84.67 48.08,-87.13 47.19,-91.3 49.05,-50.98 49.42,-49.74 49.77,-48.67 50.19,-47.7 50.73,-46.69 51.3,-45.61 51.84,-44.49 52.31,-43.36 52.69,-42.22 53.02,-41.09 53.29,-40.01 53.52,-38.98 53.76,-38.01 54.02,-37.08 54.32,-36.11 54.67,-35.03 55.04,-33.76 55.43,-32.3 55.85,-30.73 56.22,-29.25 56.47,-27.97" fill="none" stroke="rgb(149, 69, 53)" stroke-width="2" stroke-linejoin="round" filter="url(#fuzzy)" /><polyline points="48.01,-52 51.81,-57.21 51.94,-58.85 50.9,-59.55 50.04,-60.47 49.66,-61.89 49.64,-63.76 49.77,-65.91 49.87,-68.1 49.77,-70.07 49.42,-71.71 48.91,-73.16 48.44,-74.79 48.22,-76.89 48.27,-79.46 48.43,-82.13 48.41,-84.57 48.03,-86.83 47.46,-88.94 47.63,-90.27" fill="none" stroke="rgb(149, 69, 53)" stroke-width="2" stroke-linejoin="round" filter="url(#fuzzy)" /><polyline points="51.4,-33.21 51.99,-34.05 52.06,-35.06 51.95,-35.97 51.77,-36.81 51.56,-37.71 51.34,-38.72 51.15,-39.87 51,-41.13 50.86,-42.46 50.68,-43.8 50.42,-45.1 50.08,-46.32 49.69,-47.45 49.28,-48.52 48.88,-49.58 48.49,-50.66 48.1,-51.65 47.8,-52.32 47.8,-52.44 27.76,-77.57 30.11,-75.59 31.3,-74.5 32.03,-73.7 32.61,-72.99 33.2,-72.31 33.84,-71.65 34.5,-71.01 35.16,-70.36 35.84,-69.65 36.52,-68.86 37.2,-67.97 37.87,-67.03 38.53,-66.05 39.19,-65.07 39.87,-64.11 40.57,-63.19 41.3,-62.36 42.02,-61.59 42.7,-60.78 43.38,-59.72 44.13,-58.36 44.96,-57.1 36.67,-101.11 35.5,-97.04 35.73,-94.26 36.64,-92.17 37.57,-90.48 38.21,-88.77 38.51,-86.76 38.57,-84.45 38.56,-82.07 38.63,-79.9 38.88,-78.11 39.31,-76.67 39.89,-75.46 40.56,-74.36 41.3,-73.32 42.09,-72.34 42.87,-71.35 43.53,-70.18 43.98,-68.69 44.2,-66.92 44.39,-65.17 44.82,-63.79 45.68,-62.83 46.57,-61.59 44.96,-57.1" fill="none" stroke="rgb(149, 69, 53)" stroke-width="2" stroke-linejoin="round" filter="url(#fuzzy)" /><polyline points="55.65,-39.74 55.46,-39.61 55.06,-40.28 54.59,-41.25 54.08,-42.32 53.54,-43.38 52.99,-44.46 52.43,-45.55 51.87,-46.65 51.31,-47.72 50.75,-48.71 50.17,-49.65 49.58,-50.55 48.98,-51.44 48.4,-52.35 47.83,-53.31 47.22,-54.31 46.56,-55.3 45.87,-56.16 45.29,-56.77 44.96,-57.1 44.14,-57.96 43.06,-59.51 42.59,-60.84 42.41,-62.27 42.2,-63.7 41.79,-65.01 41.21,-66.17 40.57,-67.23 39.94,-68.27 39.32,-69.36 38.68,-70.48 38.04,-71.6 37.47,-72.69 37.04,-73.8 36.78,-75.01 36.48,-76.48 35.44,-78.65" fill="none" stroke="rgb(149, 69, 53)" stroke-width="2" stroke-linejoin="round" filter="url(#fuzzy)" /><polyline points="42.05,-60.91 42.67,-59.57 43.55,-58.42 44.23,-57.4 44.65,-56.32 44.85,-55.04 44.97,-53.61 45.14,-52.2 45.46,-50.96 45.91,-49.91 46.4,-48.95 46.8,-47.95 47.04,-46.8 47.14,-45.51 47.21,-44.15 47.35,-42.8 47.57,-41.52 47.82,-40.3 47.94,-39.05 47.83,-37.61 47.51,-35.96 47.19,-34.87 40.57,-62.55 41.83,-61.88 42.64,-61.24 43.4,-60.4 44.16,-59.48 44.9,-58.6 45.57,-57.75 46.21,-56.9 46.88,-56.05 47.59,-55.21 48.37,-54.43 49.21,-53.72 50.08,-53.08 50.97,-52.45 51.85,-51.84 52.72,-51.29 53.63,-50.78 54.74,-49.99 56.52,-47.63" fill="none" stroke="rgb(149, 69, 53)" stroke-width="2" stroke-linejoin="round" filter="url(#fuzzy)" /><polyline points="38.08,-65.74 38.89,-64.45 39.68,-62.8 40.21,-61.37 40.61,-60.11 41.02,-58.95 41.46,-57.8 41.88,-56.62 42.23,-55.37 42.46,-54.05 42.62,-52.66 42.74,-51.25 42.85,-49.85 42.92,-48.44 42.95,-47.04 42.96,-45.66 43.03,-44.38 43.2,-43.24 43.4,-42.2 43.51,-41.06 43.49,-39.63 43.47,-37.93 43.21,-36.59" fill="none" stroke="rgb(149, 69, 53)" stroke-width="2" stroke-linejoin="round" filter="url(#fuzzy)" /><polyline points="38.98,-64.39 36.67,-64.77 35.59,-65.96 34.81,-66.75 34.06,-67.19 33.33,-67.51 32.6,-67.86 31.88,-68.25 31.15,-68.61 30.36,-68.9 29.48,-69.11 28.47,-69.21 27.36,-69.18 26.19,-69 25.04,-68.7 23.93,-68.4 22.84,-68.29 21.71,-68.5 20.52,-68.91 19.01,-68.77" fill="none" stroke="rgb(149, 69, 53)" stroke-width="2" stroke-linejoin="round" filter="url(#fuzzy)" /><polyline points="60.57,-74.16 57.92,-72.54 55.91,-71.73 53.95,-71.35 52.08,-71.18 50.33,-71.01 48.73,-70.88 47.34,-70.95 46.11,-71.28 44.89,-71.6 43.49,-71.51 41.79,-70.8 39.87,-69.66 38,-68.7 36.47,-68.37 35.36,-68.52 34.25,-69.05 34.26,-69.12 34.06,-73.59 34.14,-76.33 33.5,-76.93 32.47,-77 31.37,-77.38 30.39,-78.21 29.52,-79.28 28.67,-80.32 27.76,-81.18 26.77,-81.92 25.78,-82.74 24.86,-83.85 24.07,-85.36 23.4,-87.21 22.82,-89.24 22.29,-91.23 21.78,-93.06 21.26,-94.69 20.68,-96.22 19.89,-97.7 18.75,-99.11 17.23,-100.46 15.51,-101.88 13.83,-103.87" fill="none" stroke="rgb(149, 69, 53)" stroke-width="2" stroke-linejoin="round" filter="url(#fuzzy)" /><polyline points="32.04,-71.12 31.57,-71.25 31.19,-71.51 30.47,-71.94 29.47,-72.4 28.37,-72.81 27.31,-73.13 26.32,-73.43 25.35,-73.74 24.36,-74.1 23.35,-74.47 22.36,-74.8 21.38,-75 20.39,-75.08 19.35,-75.14 18.3,-75.24 17.49,-75.23 17.26,-74.98" fill="none" stroke="rgb(149, 69, 53)" stroke-width="2" stroke-linejoin="round" filter="url(#fuzzy)" /><polyline points="30.41,-72.35 28.53,-74.75 28.1,-76.91 27.99,-79.37 27.76,-81.95 27.31,-84.42 26.73,-86.7 26.09,-88.81 25.41,-90.7 24.63,-92.18 23.75,-93.17 22.85,-93.84 22.09,-94.69 21.55,-96.31 21.18,-98.99 20.76,-102.39 19.92,-105.61 18.46,-107.81 16.62,-109.3 14.98,-112.49" fill="none" stroke="rgb(149, 69, 53)" stroke-width="2" stroke-linejoin="round" filter="url(#fuzzy)" /><polyline points="35.73,-67.71 34.72,-68.67 34.08,-69.27 33.45,-69.83 32.77,-70.4 32.08,-70.96 31.38,-71.52 30.6,-72.1 29.74,-72.72 28.81,-73.37 27.89,-74.01 26.98,-74.62 26.08,-75.2 25.13,-75.78 24.12,-76.36 23.13,-76.9 22.28,-77.33 21.68,-77.59 21.09,-77.82" fill="none" stroke="rgb(149, 69, 53)" stroke-width="2" stroke-linejoin="round" filter="url(#fuzzy)" /><polyline points="16.49,-80.17 17.44,-81.64 18.01,-81.78 18.57,-81.9 19.31,-82.23 20.29,-82.81 21.5,-83.62 22.85,-84.6 24.28,-85.62 25.77,-86.59 27.32,-87.46 28.87,-88.18 30.36,-88.71 31.75,-89.07 33.15,-89.37 34.73,-89.67 36.59,-89.9 38.58,-89.92 40.96,-90.4" fill="none" stroke="rgb(149, 69, 53)" stroke-width="2" stroke-linejoin="round" filter="url(#fuzzy)" /><polyline points="0.38,-99.18 3.31,-96.88 4.82,-95.06 5.61,-93.19 6.22,-91.38 6.93,-89.81 7.77,-88.54 8.71,-87.55 9.69,-86.82 10.63,-86.37 11.48,-86.2 12.19,-86.1 12.78,-85.52 13.42,-83.92 14.46,-81.62 16.49,-80.17 12.7,-81.25 12.07,-81.4 12.67,-80.99 13.75,-80.35 14.93,-79.7 15.96,-79.1 16.75,-78.51 17.34,-77.88 17.85,-77.19 18.41,-76.47 19.09,-75.74 19.86,-75.03 20.6,-74.35 21.28,-73.71 22.02,-73.05 22.79,-72.09 12.7,-81.25 12.07,-81.3 12.67,-80.78 13.8,-80.25 15.01,-79.84 16.07,-79.48 16.91,-79.09 17.56,-78.61 18.16,-78.04 18.78,-77.4 19.48,-76.73 20.24,-76.04 21.03,-75.32 21.82,-74.53 22.65,-73.67 23.58,-72.79 24.57,-71.98 25.4,-71.28 25.69,-70.72 10.7,-81.79 9.9,-82.14 8.88,-82.53 7.88,-82.78 6.95,-83.08 6.12,-83.58 5.34,-84.33 4.52,-85.21 3.62,-86.1 2.63,-86.85 1.65,-87.44 0.71,-87.87 -0.18,-88.21 -1.08,-88.48 -2.08,-88.71 -3.21,-88.91 -4.46,-89.2 -5.73,-89.68 -6.88,-90.31" fill="none" stroke="rgb(149, 69, 53)" stroke-width="2" stroke-linejoin="round" filter="url(#fuzzy)" /><polyline points="38.7,-85.41 36.64,-85.49 34.94,-85.97 33.39,-86.36 31.98,-86.38 30.63,-86.19 29.32,-86.09 28.06,-86.24 26.86,-86.54 25.66,-86.72 24.43,-86.55 23.15,-85.92 21.83,-84.93 20.56,-83.76 19.4,-82.65 18.34,-81.78 17.36,-81.24 16.34,-81.02 15.23,-81.06 14.05,-81.25 12.97,-81.52 12.18,-81.81 11.71,-81.99 10.7,-81.79 8,-82.47 9.69,-82.46 10.83,-82.89 11.64,-83.21 12.39,-83.36 13.31,-83.55 14.48,-83.95 15.78,-84.58 17.06,-85.29 18.2,-85.94 19.19,-86.48 20.08,-86.91 21.01,-87.25 22.03,-87.45 23.13,-87.53 24.26,-87.65 25.45,-88.12 26.84,-89.04 28.44,-89.98 8.43,-82.22 6.86,-84.5 5.94,-84.87 5.21,-84.57 4.38,-84.34 3.41,-84.39 2.38,-84.71 1.39,-85.24 0.44,-85.96 -0.49,-86.81 -1.46,-87.79 -2.5,-88.88 -3.63,-90.1 -4.8,-91.46 -5.99,-92.87 -7.19,-94.27 -8.4,-95.6 -9.63,-96.88 -10.82,-98.03 -11.95,-98.75 -13.17,-98.85 -14.42,-99.7 -9.94,-70.58 -8.59,-72.15 -8,-73.32 -7.33,-74.61 -6.56,-75.93 -5.76,-77.1 -4.94,-78 -4.05,-78.53 -3.12,-78.71 -2.17,-78.66 -1.27,-78.64 -0.44,-78.87 0.34,-79.47 1.16,-80.24 2.16,-80.9 3.4,-81.34 4.58,-81.94 4.82,-82.63 3.88,-82.95 4.78,-82.88 5.23,-82.92 5.8,-82.91 6.57,-82.84 7.49,-82.73 8.46,-82.59 9.41,-82.44 10.32,-82.28 11.18,-82.14 12.03,-81.99 12.94,-81.85 13.93,-81.7 14.96,-81.54 15.99,-81.35 16.93,-81.14 17.76,-80.93 18.5,-80.71 19.25,-80.48 20.1,-80.23 21.04,-79.93 21.96,-79.64 22.76,-79.45 23.91,-79.21" fill="none" stroke="rgb(149, 69, 53)" stroke-width="2" stroke-linejoin="round" filter="url(#fuzzy)" /><polyline points="0.31,-82.94 0.43,-82.92 0.13,-82.87 -0.53,-82.68 -1.38,-82.38 -2.35,-82.05 -3.36,-81.74 -4.35,-81.47 -5.29,-81.26 -6.21,-81.08 -7.13,-80.93 -8.05,-80.77 -8.92,-80.58 -9.74,-80.3 -10.66,-79.86 -11.47,-79.31" fill="none" stroke="rgb(149, 69, 53)" stroke-width="2" stroke-linejoin="round" filter="url(#fuzzy)" />
    </g>
    
        <g id="pointNose">
          <g id="rightNose"><circle r="2.52" cx="10.979999999999999" cy="16.53" stroke="black" fill="none" stroke-width="1.0" filter="url(#fuzzy)" /><circle r="2.822" cx="9.568" cy="18.202" stroke="black" fill="none" stroke-width="1.0" filter="url(#fuzzy)" /><circle r="2.324" cx="9.152" cy="18.342000000000002" stroke="black" fill="none" stroke-width="1.0" filter="url(#fuzzy)" /><circle r="2.74" cx="9.224" cy="15.074000000000002" stroke="black" fill="none" stroke-width="1.0" filter="url(#fuzzy)" /><circle r="2.854" cx="10.264" cy="16.450000000000003" stroke="black" fill="none" stroke-width="1.0" filter="url(#fuzzy)" /><circle r="1.458" cx="8.979999999999999" cy="16.314" stroke="black" fill="none" stroke-width="1.0" filter="url(#fuzzy)" /><circle r="2.3899999999999997" cx="8.404" cy="15.030000000000001" stroke="black" fill="none" stroke-width="1.0" filter="url(#fuzzy)" /><circle r="1.304" cx="10.515999999999998" cy="17.018" stroke="black" fill="none" stroke-width="1.0" filter="url(#fuzzy)" /><circle r="2.194" cx="8.712" cy="15.262" stroke="black" fill="none" stroke-width="1.0" filter="url(#fuzzy)" /><circle r="2.628" cx="10" cy="14.562000000000001" stroke="black" fill="none" stroke-width="1.0" filter="url(#fuzzy)" /></g>
          <g id="leftNose"><circle r="1.972" cx="-7.616" cy="22.538" stroke="black" fill="none" stroke-width="1.0" filter="url(#fuzzy)" /><circle r="2.652" cx="-9.544" cy="23.878" stroke="black" fill="none" stroke-width="1.0" filter="url(#fuzzy)" /><circle r="1.158" cx="-7.244" cy="23.910000000000004" stroke="black" fill="none" stroke-width="1.0" filter="url(#fuzzy)" /><circle r="1.504" cx="-8.144" cy="21.654000000000003" stroke="black" fill="none" stroke-width="1.0" filter="url(#fuzzy)" /><circle r="1.6680000000000001" cx="-7.176" cy="23.03" stroke="black" fill="none" stroke-width="1.0" filter="url(#fuzzy)" /><circle r="1.13" cx="-6.832" cy="21.046000000000003" stroke="black" fill="none" stroke-width="1.0" filter="url(#fuzzy)" /><circle r="2.192" cx="-7.436" cy="20.838" stroke="black" fill="none" stroke-width="1.0" filter="url(#fuzzy)" /><circle r="1.002" cx="-8.268" cy="22.814" stroke="black" fill="none" stroke-width="1.0" filter="url(#fuzzy)" /><circle r="2.996" cx="-6.3919999999999995" cy="23.330000000000002" stroke="black" fill="none" stroke-width="1.0" filter="url(#fuzzy)" /><circle r="1.362" cx="-7.912" cy="24.786" stroke="black" fill="none" stroke-width="1.0" filter="url(#fuzzy)" /></g>
        </g>
      
    <g id="mouth">
      <polyline points="26.38,59.47 26.27,59.7 26.32,60.47 25.96,60.89 26.01,61.01 25.75,61.75 26,61.36 25.52,61.98 25.39,62.08 24.52,63.07 25.02,62.61 24.89,62.72 24.33,63.3 23.19,64.12 22.75,64.29 23.12,64.14 22.04,64.74 22.48,64.6 20.35,65.63 20.97,65.25 19.48,65.84 19.92,65.8 18.53,66.29 18.21,66.35 18.49,66.23 17.61,66.49 17.39,66.64 16.01,66.91 14.65,67.23 14.13,67.34 13.08,67.58 13.56,67.5 10.99,67.89 11.27,67.87 11.52,67.79 10.39,67.97 8.98,68.11 6.44,68.3 7.02,68.27 7.47,68.23 6.38,68.31 4.71,68.39 3.54,68.41 2.32,68.42 0.4,68.38 0.15,68.38 0.59,68.38 -1.01,68.34 -0.59,68.35 -3.31,68.2 -4.02,68.14 -4.08,68.14 -7.23,67.82 -5.23,68.04 -7.54,67.78 -6.96,67.85 -9.74,67.47 -8.84,67.6 -11.29,67.2 -11.42,67.18 -11.5,67.17 -13.04,66.89 -16.08,66.16 -16.47,66.08 -16.48,66.07 -16.39,66.12 -17.92,65.7 -19.24,65.31 -20.25,64.93 -21.2,64.65 -19.89,65.06 -20.82,64.73 -22.45,64.12 -22.63,64.1 -23.01,63.92 -25.19,62.9 -25.06,62.98 -26.56,62.19 -26.16,62.38 -26.2,62.36 -27.23,61.84 -27.01,61.93 -27.6,61.61 -28.56,60.88 -28.65,60.86 -30.09,59.58 -29.4,60.3 -30.67,59.01 -30.18,59.53 -30.45,59.4 -31.11,58.62 -31.57,57.85 -32,57.38 -31.95,57.26 -32,57.24 -32.07,57.12 -32.13,56.67 -32.36,56.42 -32.36,55.66 -32.23,54.79 -32.34,54.55 -32.36,54.64 -32.09,54 -32.04,53.99 -32.24,54.28 -32.16,53.95 -31.61,52.81 -31.23,52.51 -31.1,52.19 -31.32,52.58 -30.53,51.7 -30.79,52.07 -30.06,51.3 -29.96,51.3 -28.88,50.39 -29.04,50.65 -27.87,49.88 -28.76,50.36 -27.23,49.54 -26.83,49.47 -26.77,49.37 -25.94,48.99 -25.52,48.84 -24,48.39 -24.63,48.64 -23.35,48.18 -23.76,48.29 -22.92,48.12 -21.89,47.83 -19.35,47.29 -20.76,47.62 -18.46,47.16 -17.92,47.08 -17.03,46.98 -15.17,46.77 -16.73,46.94 -15.64,46.81 -14.2,46.69 -13.25,46.63 -11.24,46.53 -9.76,46.46 -9.83,46.48 -8.57,46.47 -8.97,46.46 -6.72,46.49 -5.74,46.51 -4.12,46.59 -4.2,46.58 -3.1,46.65 -2.34,46.71 -1.19,46.81 -0.77,46.85 -1.06,46.82 0.32,46.96 2.68,47.26 1.74,47.14 4.31,47.5 3.25,47.33 6.17,47.85 4.94,47.61 8.31,48.27 7.65,48.15 7.89,48.17 10.95,48.89 11.37,49.03 12.31,49.32 12.59,49.35 13.58,49.72 12.17,49.27 12.98,49.51 15.64,50.41 15.73,50.42 15.61,50.36 18.11,51.41 18.71,51.62 17.39,51.08 18.31,51.46 19.17,51.85 20.22,52.43 20.66,52.73 21.29,53.05 21.22,53.06 22.24,53.6 22.11,53.51 23.54,54.66 23.09,54.26 24.42,55.54 23.79,54.82 24.09,55.15 25.01,56.24 24.63,55.72 25.03,56.17 25.48,56.63 25.89,57.2 25.76,57.3 26.23,58.2 26.17,58.64 26.37,59.1 26.47,59.13 26.33,60.1" fill="rgb(215,127,140)" stroke="black" stroke-width="3" stroke-linejoin="round" filter="url(#fuzzy)" />
    </g>
  </svg>