<svg viewBox="-100 -100 200 200" xmlns="http://www.w3.org/2000/svg" width="500" height="500" id="face-svg">
    <defs>
      <clipPath id="leftEyeClipPath">
        <polyline points="20.79,-4.8 20.72,-4.98 20.63,-5.15 20.51,-5.31 20.36,-5.46 20.18,-5.61 19.98,-5.74 19.75,-5.87 19.49,-6 19.22,-6.11 18.92,-6.22 18.59,-6.33 18.25,-6.43 17.88,-6.52 17.5,-6.6 17.09,-6.69 16.65,-6.77 16.19,-6.85 15.7,-6.93 15.19,-7 14.65,-7.06 14.1,-7.13 13.52,-7.18 12.92,-7.24 12.3,-7.29 11.66,-7.33 11.01,-7.37 10.34,-7.41 9.65,-7.44 8.95,-7.47 8.24,-7.5 7.51,-7.52 6.77,-7.54 6.02,-7.56 5.26,-7.57 4.49,-7.58 3.72,-7.58 2.94,-7.58 2.15,-7.58 1.36,-7.58 0.57,-7.57 -0.22,-7.56 -1.02,-7.54 -1.81,-7.52 -2.6,-7.5 -3.39,-7.48 -4.18,-7.45 -4.96,-7.42 -5.73,-7.39 -6.5,-7.36 -7.26,-7.32 -8.01,-7.28 -8.75,-7.23 -9.48,-7.19 -10.2,-7.14 -10.91,-7.08 -11.6,-7.03 -12.28,-6.97 -12.95,-6.91 -13.61,-6.85 -14.24,-6.78 -14.87,-6.71 -15.48,-6.64 -16.07,-6.57 -16.64,-6.49 -17.2,-6.41 -17.75,-6.33 -18.28,-6.25 -18.79,-6.16 -19.29,-6.08 -19.78,-5.98 -20.25,-5.89 -20.71,-5.79 -21.16,-5.7 -21.58,-5.59 -22,-5.49 -22.39,-5.38 -22.77,-5.27 -23.14,-5.16 -23.49,-5.05 -19.33,-0.54 -19.17,-0.24 -18.98,0.06 -18.78,0.37 -18.56,0.67 -18.31,0.97 -18.05,1.28 -17.77,1.58 -17.48,1.88 -17.16,2.18 -16.82,2.48 -16.47,2.77 -16.1,3.07 -15.72,3.35 -15.31,3.64 -14.89,3.92 -14.45,4.2 -14,4.47 -13.52,4.74 -13.03,5.01 -12.52,5.27 -11.99,5.52 -11.45,5.76 -10.89,5.99 -10.32,6.21 -9.73,6.42 -9.14,6.62 -8.53,6.8 -7.91,6.96 -7.27,7.11 -6.63,7.24 -5.98,7.35 -5.33,7.45 -4.66,7.52 -3.99,7.58 -3.31,7.62 -2.63,7.64 -1.95,7.63 -1.26,7.61 -0.57,7.57 0.12,7.5 0.81,7.42 1.51,7.31 2.2,7.19 2.89,7.04 3.58,6.88 4.26,6.7 4.94,6.5 5.62,6.28 6.29,6.04 6.96,5.79 7.62,5.53 8.28,5.25 8.93,4.96 9.57,4.65 10.2,4.34 10.82,4.01 11.44,3.68 12.04,3.34 12.63,3 13.22,2.65 13.79,2.3 14.35,1.95 14.9,1.6 15.43,1.25 15.89,0.95 16.33,0.65 16.75,0.36 17.17,0.06 17.56,-0.24 17.95,-0.54 18.31,-0.83 18.66,-1.12 18.99,-1.41 19.3,-1.69 19.59,-1.97 19.86,-2.24 20.11,-2.51 20.33,-2.77 20.53,-3.02" />
      </clipPath>
      <clipPath id="rightEyeClipPath">
        <polyline points="-19.42,-6.18 -19.22,-6.48 -18.99,-6.77 -18.73,-7.04 -18.44,-7.3 -18.12,-7.54 -17.78,-7.76 -17.42,-7.98 -17.03,-8.17 -16.62,-8.36 -16.18,-8.54 -15.73,-8.7 -15.25,-8.86 -14.76,-9 -14.25,-9.13 -13.72,-9.26 -13.13,-9.38 -12.52,-9.5 -11.88,-9.6 -11.23,-9.7 -10.56,-9.79 -9.86,-9.88 -9.16,-9.96 -8.43,-10.03 -7.69,-10.09 -6.94,-10.15 -6.18,-10.2 -5.41,-10.25 -4.63,-10.29 -3.84,-10.33 -3.04,-10.36 -2.24,-10.38 -1.43,-10.4 -0.63,-10.42 0.18,-10.43 0.99,-10.44 1.8,-10.44 2.61,-10.44 3.41,-10.43 4.21,-10.42 5,-10.41 5.78,-10.39 6.56,-10.37 7.33,-10.34 8.09,-10.31 8.83,-10.27 9.57,-10.23 10.29,-10.19 11,-10.14 11.69,-10.08 12.37,-10.03 13.04,-9.96 13.68,-9.9 14.32,-9.83 14.93,-9.75 15.52,-9.67 16.1,-9.59 16.66,-9.5 17.2,-9.4 17.72,-9.3 18.23,-9.2 18.71,-9.09 19.17,-8.98 19.62,-8.86 20.04,-8.74 20.45,-8.61 20.84,-8.48 21.22,-8.35 21.57,-8.21 21.91,-8.06 22.23,-7.91 22.53,-7.75 22.82,-7.59 23.09,-7.42 23.34,-7.25 23.58,-7.07 23.8,-6.88 24,-6.7 24.18,-6.5 24.35,-6.3 20.24,-0.74 19.82,-0.32 19.39,0.1 18.94,0.52 18.47,0.94 17.99,1.36 17.49,1.78 16.98,2.21 16.45,2.63 15.91,3.05 15.35,3.46 14.78,3.88 14.2,4.28 13.6,4.69 12.99,5.08 12.37,5.47 11.73,5.86 11.08,6.25 10.41,6.62 9.73,7 9.04,7.36 8.34,7.7 7.63,8.04 6.9,8.36 6.17,8.66 5.44,8.95 4.69,9.22 3.94,9.46 3.19,9.68 2.44,9.88 1.68,10.06 0.93,10.21 0.17,10.33 -0.58,10.43 -1.33,10.5 -2.08,10.54 -2.82,10.55 -3.55,10.53 -4.28,10.49 -5,10.41 -5.71,10.3 -6.41,10.17 -7.1,10.01 -7.78,9.81 -8.45,9.59 -9.1,9.35 -9.74,9.07 -10.37,8.77 -10.98,8.45 -11.57,8.11 -12.15,7.74 -12.72,7.35 -13.26,6.94 -13.79,6.52 -14.31,6.08 -14.8,5.62 -15.28,5.16 -15.73,4.68 -16.17,4.19 -16.59,3.7 -16.99,3.21 -17.37,2.71 -17.73,2.21 -18.07,1.71 -18.39,1.22 -18.67,0.8 -18.92,0.38 -19.16,-0.05 -19.37,-0.47 -19.57,-0.89 -19.74,-1.31 -19.89,-1.72 -20.01,-2.13 -20.12,-2.53 -20.19,-2.93 -20.24,-3.32 -20.26,-3.7 -20.25,-4.07 -20.22,-4.43 -20.15,-4.78" />
      </clipPath>
      <filter id="fuzzy">
        <feTurbulence id="turbulence" baseFrequency="0.05" numOctaves="3" type="noise" result="noise" />
        <feDisplacementMap in="SourceGraphic" in2="noise" scale="2" />
      </filter>
      <linearGradient id="rainbowGradient" x1="0%" y1="0%" x2="100%" y2="0%">
        <stop offset="0%" style="stop-color: [object Object]; stop-opacity: 1" />
        <stop offset="50%" style="stop-color: [object Object]; stop-opacity: 1" />
        <stop offset="100%" style="stop-color: [object Object]; stop-opacity: 1" />
      </linearGradient>
    </defs>
    <rect x="-100" y="-100" width="100%" height="100%" fill="rgb(204, 204, 255)" />
    <polyline id="faceContour" points="62.66,0.41 62.9,2.16 62.63,5.26 62.74,3.67 62.74,4.23 62.52,6.01 62.52,8.1 62.26,10.57 62.21,10.39 62.43,10.95 61.94,14.12 61.99,14.59 61.4,17.67 61.54,18.52 61.01,21.12 61,21.92 60.52,23.63 60.79,22.74 60.35,25.62 60.05,25.31 60.29,25.68 59.5,29.01 58.74,31.97 58.76,31.2 58.19,33.52 57.77,35.66 58.29,33.06 57.7,35.72 56.68,37.97 55.79,41.1 55.89,40.54 56,40.28 54.77,43.55 54.48,44.19 54.08,45.16 53.37,47.35 53.6,46.79 52.24,49.61 52.37,49.53 50.84,52.73 50.92,52.06 49.62,54.88 49.28,55.46 48.67,56.36 48.98,56.04 48.37,56.87 46.84,60.01 46.93,59.61 45.48,61.76 44.71,62.9 44.69,62.74 43.15,65.37 43.12,65.37 41.36,67.37 41.5,67.1 40.83,68.23 39.02,69.88 39.19,69.8 37.47,71.91 38.05,70.91 37.44,71.62 36.46,72.8 34.98,74.26 34.32,74.53 34.72,74.74 33.15,75.93 31.55,77.36 31.12,77.51 30.13,78.64 28.38,79.72 29.82,78.46 28.05,79.98 27.81,79.99 24.77,82.09 25.61,81.76 24.21,82.65 23.2,82.98 23.59,82.91 22.01,83.68 21.68,84.05 18.98,85.27 19.84,84.77 17.48,85.83 15,86.63 14.96,86.92 14.77,87.05 14,87.28 13.62,87.5 11.69,87.63 10.18,88.1 9.87,88.28 7.94,88.61 8.28,88.74 7.56,88.86 4.81,89.21 4.88,88.95 4.46,89 3.31,89.44 2.49,89.25 1.36,89.36 -0.23,89.24 -1.43,89.58 -3.11,89.12 -3.51,89.13 -4.22,89.39 -3.6,89.49 -4.6,89.14 -7.41,88.9 -8.72,88.71 -8.35,88.57 -10.59,88.03 -10.49,88.36 -11.89,87.84 -12.77,87.69 -14.52,86.82 -13.32,87.27 -14.94,86.68 -16.87,86.04 -18.88,85.31 -19.22,85.37 -18.75,85.18 -19.55,84.76 -21.73,84.04 -21.75,83.85 -23.62,82.66 -24.07,82.58 -26.13,81.28 -26.01,81.13 -26.47,80.99 -27.54,80.2 -29.12,79.31 -29.26,79.2 -30.48,78.15 -32.14,76.63 -31.7,77.37 -33.64,75.57 -33.11,75.95 -34.78,74.39 -35.81,73.5 -35.71,73.21 -36.97,72.56 -38.59,70.8 -38.3,70.77 -39.15,70.21 -40.92,67.87 -40.12,69.01 -41.71,66.85 -42.84,65.1 -42.5,65.78 -43.77,63.72 -43.83,63.86 -45.14,61.97 -45.46,62.03 -46.92,59.06 -46.9,59.26 -48.16,57.41 -48.25,56.84 -49.03,55.77 -50.11,53.97 -50.1,54.2 -49.9,54.03 -51.54,51.03 -51.87,50.2 -52.03,49.8 -53.45,47.35 -52.75,48.51 -54.3,45.2 -54.76,43.65 -55.46,41.92 -55.19,42.56 -55.52,41.85 -56.99,37.95 -56.39,39.86 -57.31,36.32 -57.37,36.11 -57.8,34.55 -58.4,33.15 -58.33,33.36 -59.13,30.27 -59.13,29.77 -60.1,25.95 -59.94,26.19 -60.19,25.67 -60.53,23.25 -60.88,22.24 -60.88,22.16 -61.43,19.05 -61.41,19.18 -61.59,17.48 -61.86,16 -62.11,14.02 -61.88,14.13 -62.24,10.5 -62.33,9.11 -62.64,6.19 -62.52,6.73 -62.49,6.66 -62.74,4.28 -62.55,3.79 -62.84,2.62 -62.74,0.89 -62.67,-0.58 -62.82,-1.87 -62.61,-6.26 -62.6,-6.16 -62.64,-6.6 -62.59,-5.86 -62.5,-9.54 -62.26,-12.03 -61.9,-13.52 -62.02,-13.97 -61.85,-15.95 -61.81,-16.15 -61.4,-17.81 -61.3,-18.71 -60.97,-21.53 -61.12,-21.03 -60.52,-24.58 -60.3,-24.46 -59.82,-27.57 -60.01,-26.88 -59.53,-28.46 -59.27,-29.43 -58.86,-31.1 -58.19,-33.45 -57.96,-34.04 -57.21,-36.78 -57.27,-36.93 -57.14,-37.07 -56.54,-38.84 -55.33,-42.29 -55.44,-41.84 -55.38,-41.89 -54.85,-43.11 -53.82,-45.69 -53.62,-46.13 -52.78,-48.06 -51.98,-49.9 -52.18,-50.06 -51.32,-51.3 -50.02,-53.99 -50.21,-53.69 -49.32,-54.99 -49.54,-54.65 -47.63,-58.51 -47.82,-58.1 -46.38,-60.21 -45.8,-61.01 -45.64,-61.29 -45,-62.15 -44.14,-63.74 -44.29,-63.67 -41.77,-66.59 -42.08,-66.35 -41.45,-66.92 -41.11,-67.48 -39.9,-69.34 -39.11,-70.17 -38.21,-70.92 -37.8,-71.6 -37.51,-71.57 -34.93,-74.23 -34.49,-74.54 -33.44,-75.58 -34.36,-74.71 -32.3,-76.75 -31.9,-76.67 -30.7,-77.85 -29.93,-78.69 -29.92,-78.37 -29.09,-79.2 -25.93,-81.22 -27.46,-80.31 -24.84,-82.14 -24.97,-82.14 -24.05,-82.45 -23.33,-83.02 -22.26,-83.45 -21.49,-84.04 -20.04,-84.68 -18.9,-85.29 -19.37,-84.87 -17.6,-85.72 -18.07,-85.69 -15.57,-86.4 -16.08,-86.37 -12.23,-87.53 -12.02,-87.61 -12.23,-87.64 -9.12,-88.17 -10.38,-88.2 -7.32,-88.84 -7.08,-88.62 -6.35,-89.08 -6.47,-88.77 -5.09,-89.08 -5.93,-88.87 -3.65,-89.2 -2.14,-89.12 -1,-89.41 0.49,-89.49 1.52,-89.32 2.23,-89.1 3.91,-88.99 4.21,-89.31 5.63,-89.03 4.72,-89.32 6.52,-88.95 6.21,-89.04 8.28,-88.63 9.49,-88.29 10.7,-88.13 11.54,-87.74 13.94,-86.96 13.51,-87.46 15.08,-86.52 14.37,-86.9 15.95,-86.63 17.9,-85.62 17.82,-85.75 18.83,-85.09 20.01,-84.63 22.04,-83.42 22.64,-83.12 23.19,-82.89 24.67,-82.22 25,-81.87 24.94,-81.9 25.91,-81.49 29.14,-79.1 27.83,-80.03 28.83,-79.43 29.15,-79.03 31.46,-77.54 32.02,-76.75 33.25,-75.63 33.58,-75.26 34.73,-74.19 35.49,-73.68 36.28,-73.06 35.82,-73.4 37.47,-71.53 37.98,-71.23 38.96,-69.93 40.04,-68.93 40.75,-68.1 41.52,-66.9 43.08,-64.94 43.29,-64.49 42.7,-65.61 45.25,-61.94 44.77,-62.31 45.49,-61.61 46.25,-60.28 47.71,-58.07 48.15,-57.21 48.25,-57.22 48.29,-56.7 49.41,-55.23 49.7,-54.33 51.23,-51.85 51.22,-51.5 52.21,-49.9 52.15,-49.97 53.94,-46.01 53.98,-45.44 53.6,-46.5 53.85,-46.26 55.14,-42.52 55.41,-41.93 55.51,-41.56 56,-40.37 56.98,-37.62 56.93,-37.45 56.96,-36.89 57.75,-35.07 58.01,-33.9 58.63,-32.56 59.22,-29.62 59.4,-29.28 59.31,-29.03 60.2,-25.69 60.15,-25.75 60.89,-21.61 60.84,-22.09 61.36,-19.55 61.02,-21.36 61.61,-16.56 61.54,-18.35 61.63,-16.04 62.1,-14.07 62.14,-13.23 62.16,-11.65 62.65,-7.91 62.25,-10.06 62.45,-7.57 62.74,-4.23 62.67,-4.25 62.83,-2.21 62.8,-1.99 62.66,0.41 62.9,2.16" fill="rgb(210, 105, 30)" stroke="black" stroke-width="1.6666666666666665" stroke-linejoin="round" filter="url(#fuzzy)" />
    <g transform="translate(40.55 -25.43)">
      <polyline id="rightCountour" points="-19.42,-6.18 -19.22,-6.48 -18.99,-6.77 -18.73,-7.04 -18.44,-7.3 -18.12,-7.54 -17.78,-7.76 -17.42,-7.98 -17.03,-8.17 -16.62,-8.36 -16.18,-8.54 -15.73,-8.7 -15.25,-8.86 -14.76,-9 -14.25,-9.13 -13.72,-9.26 -13.13,-9.38 -12.52,-9.5 -11.88,-9.6 -11.23,-9.7 -10.56,-9.79 -9.86,-9.88 -9.16,-9.96 -8.43,-10.03 -7.69,-10.09 -6.94,-10.15 -6.18,-10.2 -5.41,-10.25 -4.63,-10.29 -3.84,-10.33 -3.04,-10.36 -2.24,-10.38 -1.43,-10.4 -0.63,-10.42 0.18,-10.43 0.99,-10.44 1.8,-10.44 2.61,-10.44 3.41,-10.43 4.21,-10.42 5,-10.41 5.78,-10.39 6.56,-10.37 7.33,-10.34 8.09,-10.31 8.83,-10.27 9.57,-10.23 10.29,-10.19 11,-10.14 11.69,-10.08 12.37,-10.03 13.04,-9.96 13.68,-9.9 14.32,-9.83 14.93,-9.75 15.52,-9.67 16.1,-9.59 16.66,-9.5 17.2,-9.4 17.72,-9.3 18.23,-9.2 18.71,-9.09 19.17,-8.98 19.62,-8.86 20.04,-8.74 20.45,-8.61 20.84,-8.48 21.22,-8.35 21.57,-8.21 21.91,-8.06 22.23,-7.91 22.53,-7.75 22.82,-7.59 23.09,-7.42 23.34,-7.25 23.58,-7.07 23.8,-6.88 24,-6.7 24.18,-6.5 24.35,-6.3 20.24,-0.74 19.82,-0.32 19.39,0.1 18.94,0.52 18.47,0.94 17.99,1.36 17.49,1.78 16.98,2.21 16.45,2.63 15.91,3.05 15.35,3.46 14.78,3.88 14.2,4.28 13.6,4.69 12.99,5.08 12.37,5.47 11.73,5.86 11.08,6.25 10.41,6.62 9.73,7 9.04,7.36 8.34,7.7 7.63,8.04 6.9,8.36 6.17,8.66 5.44,8.95 4.69,9.22 3.94,9.46 3.19,9.68 2.44,9.88 1.68,10.06 0.93,10.21 0.17,10.33 -0.58,10.43 -1.33,10.5 -2.08,10.54 -2.82,10.55 -3.55,10.53 -4.28,10.49 -5,10.41 -5.71,10.3 -6.41,10.17 -7.1,10.01 -7.78,9.81 -8.45,9.59 -9.1,9.35 -9.74,9.07 -10.37,8.77 -10.98,8.45 -11.57,8.11 -12.15,7.74 -12.72,7.35 -13.26,6.94 -13.79,6.52 -14.31,6.08 -14.8,5.62 -15.28,5.16 -15.73,4.68 -16.17,4.19 -16.59,3.7 -16.99,3.21 -17.37,2.71 -17.73,2.21 -18.07,1.71 -18.39,1.22 -18.67,0.8 -18.92,0.38 -19.16,-0.05 -19.37,-0.47 -19.57,-0.89 -19.74,-1.31 -19.89,-1.72 -20.01,-2.13 -20.12,-2.53 -20.19,-2.93 -20.24,-3.32 -20.26,-3.7 -20.25,-4.07 -20.22,-4.43 -20.15,-4.78" fill="white" stroke="white" stroke-width="0" stroke-linejoin="round" filter="url(#fuzzy)" />
    </g>
    <g transform="translate(-23.54 -29.86)">
      <polyline id="leftCountour" points="20.79,-4.8 20.72,-4.98 20.63,-5.15 20.51,-5.31 20.36,-5.46 20.18,-5.61 19.98,-5.74 19.75,-5.87 19.49,-6 19.22,-6.11 18.92,-6.22 18.59,-6.33 18.25,-6.43 17.88,-6.52 17.5,-6.6 17.09,-6.69 16.65,-6.77 16.19,-6.85 15.7,-6.93 15.19,-7 14.65,-7.06 14.1,-7.13 13.52,-7.18 12.92,-7.24 12.3,-7.29 11.66,-7.33 11.01,-7.37 10.34,-7.41 9.65,-7.44 8.95,-7.47 8.24,-7.5 7.51,-7.52 6.77,-7.54 6.02,-7.56 5.26,-7.57 4.49,-7.58 3.72,-7.58 2.94,-7.58 2.15,-7.58 1.36,-7.58 0.57,-7.57 -0.22,-7.56 -1.02,-7.54 -1.81,-7.52 -2.6,-7.5 -3.39,-7.48 -4.18,-7.45 -4.96,-7.42 -5.73,-7.39 -6.5,-7.36 -7.26,-7.32 -8.01,-7.28 -8.75,-7.23 -9.48,-7.19 -10.2,-7.14 -10.91,-7.08 -11.6,-7.03 -12.28,-6.97 -12.95,-6.91 -13.61,-6.85 -14.24,-6.78 -14.87,-6.71 -15.48,-6.64 -16.07,-6.57 -16.64,-6.49 -17.2,-6.41 -17.75,-6.33 -18.28,-6.25 -18.79,-6.16 -19.29,-6.08 -19.78,-5.98 -20.25,-5.89 -20.71,-5.79 -21.16,-5.7 -21.58,-5.59 -22,-5.49 -22.39,-5.38 -22.77,-5.27 -23.14,-5.16 -23.49,-5.05 -19.33,-0.54 -19.17,-0.24 -18.98,0.06 -18.78,0.37 -18.56,0.67 -18.31,0.97 -18.05,1.28 -17.77,1.58 -17.48,1.88 -17.16,2.18 -16.82,2.48 -16.47,2.77 -16.1,3.07 -15.72,3.35 -15.31,3.64 -14.89,3.92 -14.45,4.2 -14,4.47 -13.52,4.74 -13.03,5.01 -12.52,5.27 -11.99,5.52 -11.45,5.76 -10.89,5.99 -10.32,6.21 -9.73,6.42 -9.14,6.62 -8.53,6.8 -7.91,6.96 -7.27,7.11 -6.63,7.24 -5.98,7.35 -5.33,7.45 -4.66,7.52 -3.99,7.58 -3.31,7.62 -2.63,7.64 -1.95,7.63 -1.26,7.61 -0.57,7.57 0.12,7.5 0.81,7.42 1.51,7.31 2.2,7.19 2.89,7.04 3.58,6.88 4.26,6.7 4.94,6.5 5.62,6.28 6.29,6.04 6.96,5.79 7.62,5.53 8.28,5.25 8.93,4.96 9.57,4.65 10.2,4.34 10.82,4.01 11.44,3.68 12.04,3.34 12.63,3 13.22,2.65 13.79,2.3 14.35,1.95 14.9,1.6 15.43,1.25 15.89,0.95 16.33,0.65 16.75,0.36 17.17,0.06 17.56,-0.24 17.95,-0.54 18.31,-0.83 18.66,-1.12 18.99,-1.41 19.3,-1.69 19.59,-1.97 19.86,-2.24 20.11,-2.51 20.33,-2.77 20.53,-3.02" fill="white" stroke="white" stroke-width="0" stroke-linejoin="round" filter="url(#fuzzy)" />
    </g>
    <g transform="translate(40.55 -25.43)">
      <polyline id="rightUpper" points="-19.48,-2.04 -19.65,-2.56 -19.78,-3.05 -19.87,-3.52 -19.92,-3.96 -19.92,-4.38 -19.89,-4.78 -19.83,-5.16 -19.72,-5.52 -19.59,-5.86 -19.42,-6.18 -19.22,-6.48 -18.99,-6.77 -18.73,-7.04 -18.44,-7.3 -18.12,-7.54 -17.78,-7.76 -17.42,-7.98 -17.03,-8.17 -16.62,-8.36 -16.18,-8.54 -15.73,-8.7 -15.25,-8.86 -14.76,-9 -14.25,-9.13 -13.72,-9.26 -13.13,-9.38 -12.52,-9.5 -11.88,-9.6 -11.23,-9.7 -10.56,-9.79 -9.86,-9.88 -9.16,-9.96 -8.43,-10.03 -7.69,-10.09 -6.94,-10.15 -6.18,-10.2 -5.41,-10.25 -4.63,-10.29 -3.84,-10.33 -3.04,-10.36 -2.24,-10.38 -1.43,-10.4 -0.63,-10.42 0.18,-10.43 0.99,-10.44 1.8,-10.44 2.61,-10.44 3.41,-10.43 4.21,-10.42 5,-10.41 5.78,-10.39 6.56,-10.37 7.33,-10.34 8.09,-10.31 8.83,-10.27 9.57,-10.23 10.29,-10.19 11,-10.14 11.69,-10.08 12.37,-10.03 13.04,-9.96 13.68,-9.9 14.32,-9.83 14.93,-9.75 15.52,-9.67 16.1,-9.59 16.66,-9.5 17.2,-9.4 17.72,-9.3 18.23,-9.2 18.71,-9.09 19.17,-8.98 19.62,-8.86 20.04,-8.74 20.45,-8.61 20.84,-8.48 21.22,-8.35 21.57,-8.21 21.91,-8.06 22.23,-7.91 22.53,-7.75 22.82,-7.59 23.09,-7.42 23.34,-7.25 23.58,-7.07 23.8,-6.88 24,-6.7 24.18,-6.5 24.35,-6.3 24.5,-6.1 24.63,-5.89 24.75,-5.67 24.85,-5.45 24.94,-5.22 25.01,-4.99 25.07,-4.76 25.11,-4.52 25.13,-4.28 25.15,-4.03" fill="none" stroke="black" stroke-width="1.6666666666666665" stroke-linejoin="round" filter="url(#fuzzy)" />
      <polyline id="rightLower" points="-17.5,-7.46 -17.95,-7.27 -18.35,-7.06 -18.71,-6.84 -19.03,-6.59 -19.31,-6.33 -19.55,-6.05 -19.75,-5.75 -19.92,-5.44 -20.05,-5.12 -20.15,-4.78 -20.22,-4.43 -20.25,-4.07 -20.26,-3.7 -20.24,-3.32 -20.19,-2.93 -20.12,-2.53 -20.01,-2.13 -19.89,-1.72 -19.74,-1.31 -19.57,-0.89 -19.37,-0.47 -19.16,-0.05 -18.92,0.38 -18.67,0.8 -18.39,1.22 -18.07,1.71 -17.73,2.21 -17.37,2.71 -16.99,3.21 -16.59,3.7 -16.17,4.19 -15.73,4.68 -15.28,5.16 -14.8,5.62 -14.31,6.08 -13.79,6.52 -13.26,6.94 -12.72,7.35 -12.15,7.74 -11.57,8.11 -10.98,8.45 -10.37,8.77 -9.74,9.07 -9.1,9.35 -8.45,9.59 -7.78,9.81 -7.1,10.01 -6.41,10.17 -5.71,10.3 -5,10.41 -4.28,10.49 -3.55,10.53 -2.82,10.55 -2.08,10.54 -1.33,10.5 -0.58,10.43 0.17,10.33 0.93,10.21 1.68,10.06 2.44,9.88 3.19,9.68 3.94,9.46 4.69,9.22 5.44,8.95 6.17,8.66 6.9,8.36 7.63,8.04 8.34,7.7 9.04,7.36 9.73,7 10.41,6.62 11.08,6.25 11.73,5.86 12.37,5.47 12.99,5.08 13.6,4.69 14.2,4.28 14.78,3.88 15.35,3.46 15.91,3.05 16.45,2.63 16.98,2.21 17.49,1.78 17.99,1.36 18.47,0.94 18.94,0.52 19.39,0.1 19.82,-0.32 20.24,-0.74 20.64,-1.15 21.02,-1.56 21.39,-1.96 21.74,-2.36 22.07,-2.75 22.38,-3.14 22.68,-3.53 22.96,-3.9 23.22,-4.27 23.47,-4.64" fill="none" stroke="black" stroke-width="2.2222222222222223" stroke-linejoin="round" filter="url(#fuzzy)" />
      <circle r="4.656" cx="15.959912195829936" cy="3.196218837295147" stroke="black" fill="none" stroke-width="1.0" filter="url(#fuzzy)" clip-path="url(#rightEyeClipPath)" /><circle r="3.136" cx="17.414912195829935" cy="1.4562188372951472" stroke="black" fill="none" stroke-width="1.0" filter="url(#fuzzy)" clip-path="url(#rightEyeClipPath)" /><circle r="3.14" cx="14.399912195829934" cy="1.5762188372951478" stroke="black" fill="none" stroke-width="1.0" filter="url(#fuzzy)" clip-path="url(#rightEyeClipPath)" /><circle r="4.32" cx="14.634912195829934" cy="1.7512188372951467" stroke="black" fill="none" stroke-width="1.0" filter="url(#fuzzy)" clip-path="url(#rightEyeClipPath)" /><circle r="4.57" cx="16.799912195829936" cy="3.7612188372951474" stroke="black" fill="none" stroke-width="1.0" filter="url(#fuzzy)" clip-path="url(#rightEyeClipPath)" /><circle r="3.04" cx="16.089912195829935" cy="3.816218837295147" stroke="black" fill="none" stroke-width="1.0" filter="url(#fuzzy)" clip-path="url(#rightEyeClipPath)" /><circle r="3.842" cx="16.744912195829933" cy="1.5462188372951475" stroke="black" fill="none" stroke-width="1.0" filter="url(#fuzzy)" clip-path="url(#rightEyeClipPath)" /><circle r="4.0280000000000005" cx="15.694912195829936" cy="1.0162188372951473" stroke="black" fill="none" stroke-width="1.0" filter="url(#fuzzy)" clip-path="url(#rightEyeClipPath)" /><circle r="3.076" cx="14.944912195829936" cy="1.5062188372951475" stroke="black" fill="none" stroke-width="1.0" filter="url(#fuzzy)" clip-path="url(#rightEyeClipPath)" /><circle r="3.44" cx="16.119912195829933" cy="1.2112188372951476" stroke="black" fill="none" stroke-width="1.0" filter="url(#fuzzy)" clip-path="url(#rightEyeClipPath)" />
      </g>
    <g transform="translate(-23.54 -29.86)">
      <polyline id="leftUpper" points="19.55,-2.46 19.85,-2.74 20.1,-3.02 20.31,-3.28 20.48,-3.53 20.62,-3.77 20.72,-4 20.79,-4.21 20.82,-4.42 20.82,-4.62 20.79,-4.8 20.72,-4.98 20.63,-5.15 20.51,-5.31 20.36,-5.46 20.18,-5.61 19.98,-5.74 19.75,-5.87 19.49,-6 19.22,-6.11 18.92,-6.22 18.59,-6.33 18.25,-6.43 17.88,-6.52 17.5,-6.6 17.09,-6.69 16.65,-6.77 16.19,-6.85 15.7,-6.93 15.19,-7 14.65,-7.06 14.1,-7.13 13.52,-7.18 12.92,-7.24 12.3,-7.29 11.66,-7.33 11.01,-7.37 10.34,-7.41 9.65,-7.44 8.95,-7.47 8.24,-7.5 7.51,-7.52 6.77,-7.54 6.02,-7.56 5.26,-7.57 4.49,-7.58 3.72,-7.58 2.94,-7.58 2.15,-7.58 1.36,-7.58 0.57,-7.57 -0.22,-7.56 -1.02,-7.54 -1.81,-7.52 -2.6,-7.5 -3.39,-7.48 -4.18,-7.45 -4.96,-7.42 -5.73,-7.39 -6.5,-7.36 -7.26,-7.32 -8.01,-7.28 -8.75,-7.23 -9.48,-7.19 -10.2,-7.14 -10.91,-7.08 -11.6,-7.03 -12.28,-6.97 -12.95,-6.91 -13.61,-6.85 -14.24,-6.78 -14.87,-6.71 -15.48,-6.64 -16.07,-6.57 -16.64,-6.49 -17.2,-6.41 -17.75,-6.33 -18.28,-6.25 -18.79,-6.16 -19.29,-6.08 -19.78,-5.98 -20.25,-5.89 -20.71,-5.79 -21.16,-5.7 -21.58,-5.59 -22,-5.49 -22.39,-5.38 -22.77,-5.27 -23.14,-5.16 -23.49,-5.05 -23.83,-4.93 -24.15,-4.81 -24.45,-4.69 -24.75,-4.56 -25.02,-4.44 -25.28,-4.31 -25.53,-4.18 -25.76,-4.04 -25.98,-3.91 -26.19,-3.77" fill="none" stroke="black" stroke-width="2.2222222222222223" stroke-linejoin="round" filter="url(#fuzzy)" />
      <polyline id="leftLower" points="20.85,-4.98 20.97,-4.84 21.06,-4.69 21.11,-4.52 21.12,-4.34 21.1,-4.14 21.05,-3.94 20.96,-3.72 20.85,-3.5 20.7,-3.26 20.53,-3.02 20.33,-2.77 20.11,-2.51 19.86,-2.24 19.59,-1.97 19.3,-1.69 18.99,-1.41 18.66,-1.12 18.31,-0.83 17.95,-0.54 17.56,-0.24 17.17,0.06 16.75,0.36 16.33,0.65 15.89,0.95 15.43,1.25 14.9,1.6 14.35,1.95 13.79,2.3 13.22,2.65 12.63,3 12.04,3.34 11.44,3.68 10.82,4.01 10.2,4.34 9.57,4.65 8.93,4.96 8.28,5.25 7.62,5.53 6.96,5.79 6.29,6.04 5.62,6.28 4.94,6.5 4.26,6.7 3.58,6.88 2.89,7.04 2.2,7.19 1.51,7.31 0.81,7.42 0.12,7.5 -0.57,7.57 -1.26,7.61 -1.95,7.63 -2.63,7.64 -3.31,7.62 -3.99,7.58 -4.66,7.52 -5.33,7.45 -5.98,7.35 -6.63,7.24 -7.27,7.11 -7.91,6.96 -8.53,6.8 -9.14,6.62 -9.73,6.42 -10.32,6.21 -10.89,5.99 -11.45,5.76 -11.99,5.52 -12.52,5.27 -13.03,5.01 -13.52,4.74 -14,4.47 -14.45,4.2 -14.89,3.92 -15.31,3.64 -15.72,3.35 -16.1,3.07 -16.47,2.77 -16.82,2.48 -17.16,2.18 -17.48,1.88 -17.77,1.58 -18.05,1.28 -18.31,0.97 -18.56,0.67 -18.78,0.37 -18.98,0.06 -19.17,-0.24 -19.33,-0.54 -19.47,-0.83 -19.6,-1.13 -19.71,-1.42 -19.79,-1.71 -19.86,-1.99 -19.91,-2.27 -19.94,-2.55 -19.95,-2.82 -19.94,-3.09 -19.91,-3.36" fill="none" stroke="black" stroke-width="2.2222222222222223" stroke-linejoin="round" filter="url(#fuzzy)" />
      <circle r="4.216" cx="-5.022640263037303" cy="2.396109878660396" stroke="black" fill="none" stroke-width="1.0" filter="url(#fuzzy)" clip-path="url(#leftEyeClipPath)" /><circle r="3.916" cx="-4.942640263037303" cy="1.8861098786603963" stroke="black" fill="none" stroke-width="1.0" filter="url(#fuzzy)" clip-path="url(#leftEyeClipPath)" /><circle r="4.2940000000000005" cx="-2.9926402630373032" cy="3.481109878660396" stroke="black" fill="none" stroke-width="1.0" filter="url(#fuzzy)" clip-path="url(#leftEyeClipPath)" /><circle r="4.89" cx="-2.687640263037303" cy="4.021109878660396" stroke="black" fill="none" stroke-width="1.0" filter="url(#fuzzy)" clip-path="url(#leftEyeClipPath)" /><circle r="4.0600000000000005" cx="-4.217640263037303" cy="4.516109878660396" stroke="black" fill="none" stroke-width="1.0" filter="url(#fuzzy)" clip-path="url(#leftEyeClipPath)" /><circle r="3.496" cx="-6.427640263037302" cy="1.9561098786603965" stroke="black" fill="none" stroke-width="1.0" filter="url(#fuzzy)" clip-path="url(#leftEyeClipPath)" /><circle r="3.44" cx="-4.547640263037303" cy="3.4061098786603967" stroke="black" fill="none" stroke-width="1.0" filter="url(#fuzzy)" clip-path="url(#leftEyeClipPath)" /><circle r="4.2219999999999995" cx="-1.9326402630373032" cy="4.611109878660397" stroke="black" fill="none" stroke-width="1.0" filter="url(#fuzzy)" clip-path="url(#leftEyeClipPath)" /><circle r="3.87" cx="-2.2976402630373034" cy="1.2561098786603964" stroke="black" fill="none" stroke-width="1.0" filter="url(#fuzzy)" clip-path="url(#leftEyeClipPath)" /><circle r="3.362" cx="-5.392640263037303" cy="2.936109878660396" stroke="black" fill="none" stroke-width="1.0" filter="url(#fuzzy)" clip-path="url(#leftEyeClipPath)" />
    </g>
    <g id="hairs">
      <polyline points="-2.14,-89.12 -0.94,-89.3 0.32,-89.31 1.56,-89.24 2.73,-89.14 3.78,-89.06 4.68,-89.01 5.41,-88.98 5.97,-88.95 6.42,-88.92 6.78,-88.87 7.05,-88.81 7.2,-88.75 7.14,-88.69 6.76,-88.66 5.94,-88.69 4.62,-88.82 2.78,-89.08" fill="none" stroke="rgb(255, 0, 255)" stroke-width="2" stroke-linejoin="round" filter="url(#fuzzy)" /><polyline points="51.22,-51.5 51.94,-50.25 52.57,-48.94 53.11,-47.71 53.5,-46.79 53.76,-46.12 53.95,-45.58 54.08,-45.15 54.12,-44.88 54.03,-44.86 53.81,-45.13 53.42,-45.73 52.86,-46.69 52.1,-48.09 51.09,-49.99 49.81,-52.44 48.28,-55.38 46.65,-58.64" fill="none" stroke="rgb(255, 0, 255)" stroke-width="2" stroke-linejoin="round" filter="url(#fuzzy)" /><polyline points="37.47,-71.53 37.88,-70.96 37.99,-70.13 37.64,-69.22 36.74,-68.29 35.25,-67.41 33.12,-66.6 30.33,-65.87 26.88,-65.2 22.78,-64.55 18.03,-63.91 12.59,-63.27 6.44,-62.63 -0.46,-61.98 -8.14,-61.39 -16.61,-60.9 -25.81,-60.56 -35.71,-60.36" fill="none" stroke="rgb(255, 0, 255)" stroke-width="2" stroke-linejoin="round" filter="url(#fuzzy)" /><polyline points="53.6,-46.5 54.07,-45.42 54.56,-44.03 54.88,-42.98 55.05,-42.22 55.09,-41.67 55,-41.32 54.76,-41.18 54.37,-41.27 53.82,-41.59 53.1,-42.14 52.18,-42.98 51.04,-44.12 49.68,-45.6 48.08,-47.44 46.24,-49.65 44.15,-52.26 41.79,-55.3 39.16,-58.82 36.27,-62.82 33.12,-67.3 29.68,-72.23 25.96,-77.61" fill="none" stroke="rgb(255, 0, 255)" stroke-width="2" stroke-linejoin="round" filter="url(#fuzzy)" /><polyline points="-12.23,-87.53 -11.94,-87.63 -11.24,-87.81 -10.31,-88.04 -9.35,-88.27 -8.49,-88.47 -7.8,-88.61 -7.32,-88.69 -7.03,-88.7 -6.9,-88.66 -6.9,-88.57 -7.05,-88.42 -7.38,-88.21 -7.95,-87.93 -8.8,-87.58 -9.98,-87.14 -11.51,-86.64 -13.44,-86.06 -15.85,-85.38 -18.83,-84.51" fill="none" stroke="rgb(255, 0, 255)" stroke-width="2" stroke-linejoin="round" filter="url(#fuzzy)" /><polyline points="9.49,-88.29 10.49,-88.05 11.26,-87.72 11.62,-87.41 11.48,-87.12 10.85,-86.85 9.8,-86.55 8.36,-86.21 6.48,-85.82 4.08,-85.37 1.08,-84.87 -2.59,-84.31 -6.97,-83.72 -12.14,-83.12 -18.13,-82.59" fill="none" stroke="rgb(255, 0, 255)" stroke-width="2" stroke-linejoin="round" filter="url(#fuzzy)" /><polyline points="35.82,-73.4 36.97,-72.09 37.66,-71.19 38.08,-70.41 38.26,-69.69 38.19,-69.05 37.81,-68.52 37.1,-68.13 36.03,-67.89 34.62,-67.78 32.86,-67.79 30.75,-67.91 28.31,-68.14 25.51,-68.49 22.33,-69 18.74,-69.69 14.69,-70.55 10.19,-71.57 5.23,-72.73 -0.16,-74.02 -5.98,-75.48 -12.27,-77.14 -19.21,-78.9" fill="none" stroke="rgb(255, 0, 255)" stroke-width="2" stroke-linejoin="round" filter="url(#fuzzy)" /><polyline points="-10.38,-88.2 -8.18,-88.49 -6.58,-88.44 -5.01,-88.2 -3.23,-87.81 -1.12,-87.32 1.34,-86.75 4.12,-86.14 7.12,-85.52 10.21,-84.88 13.26,-84.25 16.22,-83.58 19.1,-82.85 21.94,-82.05 24.56,-81.34" fill="none" stroke="rgb(255, 0, 255)" stroke-width="2" stroke-linejoin="round" filter="url(#fuzzy)" /><polyline points="-1,-89.41 0.34,-89.36 1.62,-89.13 2.95,-88.83 4.31,-88.5 5.67,-88.12 7.03,-87.7 8.44,-87.22 9.94,-86.69 11.54,-86.1 13.24,-85.46 15,-84.8 16.77,-84.11 18.5,-83.43 20.12,-82.77 21.62,-82.14 22.96,-81.58 24.14,-81.09 25.17,-80.71 26.01,-80.43 26.64,-80.27 27.08,-80.2 27.43,-80.13 27.96,-79.88" fill="none" stroke="rgb(255, 0, 255)" stroke-width="2" stroke-linejoin="round" filter="url(#fuzzy)" /><polyline points="-24.84,-82.14 -24.47,-82.2 -23.42,-82.32 -21.9,-82.43 -20.03,-82.49 -17.88,-82.45 -15.52,-82.28 -12.97,-81.99 -10.26,-81.58 -7.35,-81.09 -4.25,-80.56 -0.95,-79.97 2.52,-79.35 6.12,-78.67 9.78,-77.94 13.46,-77.15 17.11,-76.34 20.7,-75.54 24.21,-74.78 27.63,-74.04 30.92,-73.3 34.14,-72.53" fill="none" stroke="rgb(255, 0, 255)" stroke-width="2" stroke-linejoin="round" filter="url(#fuzzy)" /><polyline points="-21.49,-84.04 -20.34,-84.55 -19.61,-84.84 -19.09,-85.01 -18.62,-85.11 -18.15,-85.16 -17.68,-85.14 -17.27,-85.03 -17.01,-84.78 -16.94,-84.39 -17.12,-83.81 -17.57,-83.05 -18.29,-82.1 -19.31,-80.93 -20.63,-79.56 -22.26,-77.96 -24.21,-76.12 -26.48,-74.02 -29.03,-71.65 -31.86,-68.98 -34.98,-66.05 -38.39,-62.91 -42.14,-59.6 -46.34,-55.97" fill="none" stroke="rgb(255, 0, 255)" stroke-width="2" stroke-linejoin="round" filter="url(#fuzzy)" /><polyline points="-6.47,-88.77 -5.52,-88.85 -4.38,-88.69 -2.76,-88.4 -0.82,-87.97 1.31,-87.4 3.53,-86.69 5.8,-85.86 8.1,-84.92 10.42,-83.9 12.74,-82.82 15.05,-81.7 17.37,-80.55 19.73,-79.37 22.14,-78.16 24.61,-76.91 27.1,-75.65 29.55,-74.41 31.89,-73.23 34.03,-72.2 35.93,-71.34 37.58,-70.6" fill="none" stroke="rgb(255, 0, 255)" stroke-width="2" stroke-linejoin="round" filter="url(#fuzzy)" /><polyline points="32.02,-76.75 32.81,-75.91 33.12,-75.27 33.04,-74.75 32.56,-74.34 31.65,-73.99 30.33,-73.66 28.62,-73.33 26.49,-72.99 23.9,-72.65 20.79,-72.35 17.14,-72.1 12.89,-71.95 8.03,-71.92 2.53,-72.02 -3.64,-72.25 -10.47,-72.58 -17.89,-73.06 -25.83,-73.79" fill="none" stroke="rgb(255, 0, 255)" stroke-width="2" stroke-linejoin="round" filter="url(#fuzzy)" /><polyline points="-10.38,-88.2 -8.18,-88.46 -6.59,-88.3 -5.03,-87.89 -3.24,-87.28 -1.11,-86.51 1.41,-85.62 4.32,-84.61 7.53,-83.49 10.95,-82.27 14.46,-80.96 17.98,-79.6 21.45,-78.22 24.84,-76.87 28.11,-75.57 31.26,-74.31 34.31,-73.04" fill="none" stroke="rgb(255, 0, 255)" stroke-width="2" stroke-linejoin="round" filter="url(#fuzzy)" /><polyline points="14.37,-86.9 15.74,-86.46 16.59,-85.94 17,-85.38 17.13,-84.75 17,-84.04 16.56,-83.27 15.73,-82.48 14.46,-81.66 12.74,-80.78 10.57,-79.84 7.97,-78.8 4.94,-77.65 1.48,-76.39 -2.47,-75.03 -6.89,-73.57 -11.81,-72.02 -17.23,-70.36 -23.22,-68.55 -29.87,-66.58 -37.14,-64.48" fill="none" stroke="rgb(255, 0, 255)" stroke-width="2" stroke-linejoin="round" filter="url(#fuzzy)" /><polyline points="-1,-89.41 0.31,-89.39 1.53,-89.24 2.73,-89.08 3.91,-88.93 5.03,-88.79 6.1,-88.64 7.14,-88.46 8.18,-88.26 9.25,-88.05 10.32,-87.82 11.35,-87.6 12.29,-87.39 13.07,-87.22 13.65,-87.09 14.01,-87.01 14.13,-86.99 14,-87.04 13.6,-87.15 12.85,-87.36 11.72,-87.67 10.19,-88.09" fill="none" stroke="rgb(255, 0, 255)" stroke-width="2" stroke-linejoin="round" filter="url(#fuzzy)" /><polyline points="-15.57,-86.4 -14.82,-86.65 -13.27,-87.01 -11.71,-87.26 -10.15,-87.43 -8.54,-87.53 -6.87,-87.59 -5.17,-87.61 -3.49,-87.57 -1.83,-87.5 -0.2,-87.39 1.46,-87.26 3.16,-87.13 4.9,-87 6.64,-86.88 8.31,-86.78 9.83,-86.72 11.14,-86.68 12.23,-86.68 13.1,-86.71 13.72,-86.77 14.07,-86.84 14.29,-86.84" fill="none" stroke="rgb(255, 0, 255)" stroke-width="2" stroke-linejoin="round" filter="url(#fuzzy)" /><polyline points="49.7,-54.33 50.63,-52.66 50.98,-51.71 51.04,-51 50.83,-50.47 50.33,-50.22 49.51,-50.31 48.35,-50.7 46.89,-51.36 45.1,-52.24 42.96,-53.36 40.44,-54.75 37.51,-56.45 34.12,-58.49 30.28,-60.88 26,-63.64 21.33,-66.77 16.31,-70.28 10.96,-74.18 5.26,-78.52 -0.84,-83.36" fill="none" stroke="rgb(255, 0, 255)" stroke-width="2" stroke-linejoin="round" filter="url(#fuzzy)" /><polyline points="-5.09,-89.08 -4.93,-89.03 -3.86,-89.1 -2.64,-89.18 -1.52,-89.22 -0.56,-89.21 0.19,-89.15 0.73,-89.06 1.02,-88.93 1.08,-88.78 0.9,-88.59 0.51,-88.36 -0.05,-88.07 -0.77,-87.72 -1.66,-87.3 -2.76,-86.81 -4.13,-86.25 -5.82,-85.64 -7.86,-84.98 -10.27,-84.29 -13.07,-83.56 -16.24,-82.77 -19.77,-81.89 -23.76,-80.85" fill="none" stroke="rgb(255, 0, 255)" stroke-width="2" stroke-linejoin="round" filter="url(#fuzzy)" /><polyline points="36.28,-73.06 36.4,-72.79 36.96,-72.1 37.5,-71.36 37.92,-70.68 38.17,-70.07 38.22,-69.56 38.04,-69.18 37.6,-68.96 36.89,-68.93 35.9,-69.06 34.62,-69.36 33.03,-69.81 31.12,-70.42 28.84,-71.21 26.19,-72.19 23.13,-73.39 19.67,-74.84 15.87,-76.54 11.78,-78.47 7.45,-80.62 2.86,-83.01 -2.06,-85.7" fill="none" stroke="rgb(255, 0, 255)" stroke-width="2" stroke-linejoin="round" filter="url(#fuzzy)" /><polyline points="-33.44,-75.58 -33.45,-75.56 -32.73,-76.17 -31.9,-76.86 -31.13,-77.49 -30.44,-78.04 -29.81,-78.51 -29.24,-78.91 -28.77,-79.21 -28.46,-79.37 -28.36,-79.34 -28.48,-79.11 -28.82,-78.68 -29.39,-78.03 -30.19,-77.16 -31.23,-76.05 -32.54,-74.69 -34.14,-73.09 -36.08,-71.22 -38.44,-69.01 -41.26,-66.37" fill="none" stroke="rgb(255, 0, 255)" stroke-width="2" stroke-linejoin="round" filter="url(#fuzzy)" /><polyline points="25.91,-81.49 27.57,-80.2 27.9,-79.74 27.92,-79.35 27.81,-78.86 27.51,-78.28 26.89,-77.7 25.86,-77.18 24.4,-76.75 22.46,-76.43 20.06,-76.2 17.18,-76.04 13.82,-75.92 9.96,-75.8 5.59,-75.69 0.69,-75.59 -4.75,-75.54 -10.74,-75.59 -17.32,-75.74 -24.53,-76.02" fill="none" stroke="rgb(255, 0, 255)" stroke-width="2" stroke-linejoin="round" filter="url(#fuzzy)" /><polyline points="15.95,-86.63 17.16,-85.99 17.8,-85.56 18.3,-85.11 18.67,-84.61 18.79,-84.13 18.59,-83.69 18,-83.31 17.04,-82.99 15.7,-82.7 14,-82.4 11.92,-82.09 9.43,-81.78 6.49,-81.48 3.09,-81.19 -0.77,-80.93 -5.09,-80.66 -9.92,-80.4 -15.32,-80.15 -21.44,-79.92" fill="none" stroke="rgb(255, 0, 255)" stroke-width="2" stroke-linejoin="round" filter="url(#fuzzy)" /><polyline points="25.91,-81.49 27.51,-80.23 27.68,-79.85 27.38,-79.61 26.8,-79.33 25.86,-79.01 24.4,-78.76 22.29,-78.64 19.46,-78.69 15.9,-78.93 11.61,-79.37 6.61,-80.02 0.9,-80.85 -5.56,-81.84 -12.9,-82.93" fill="none" stroke="rgb(255, 0, 255)" stroke-width="2" stroke-linejoin="round" filter="url(#fuzzy)" /><polyline points="-30.7,-77.85 -30.09,-78.39 -29.34,-78.92 -28.35,-79.6 -27.31,-80.32 -26.34,-81 -25.49,-81.58 -24.78,-82.05 -24.18,-82.43 -23.71,-82.7 -23.37,-82.87 -23.22,-82.91 -23.31,-82.79 -23.69,-82.47 -24.39,-81.95 -25.39,-81.24 -26.66,-80.35 -28.22,-79.27 -30.13,-77.98" fill="none" stroke="rgb(255, 0, 255)" stroke-width="2" stroke-linejoin="round" filter="url(#fuzzy)" /><polyline points="40.75,-68.1 41.38,-66.91 41.44,-66.02 40.82,-65.46 39.62,-65.05 37.85,-64.71 35.51,-64.44 32.56,-64.25 28.96,-64.18 24.66,-64.26 19.62,-64.55 13.81,-65.05 7.23,-65.74 -0.16,-66.52 -8.42,-67.33 -17.6,-68.19 -27.6,-69.33" fill="none" stroke="rgb(255, 0, 255)" stroke-width="2" stroke-linejoin="round" filter="url(#fuzzy)" /><polyline points="3.91,-88.99 4.55,-89.04 5.5,-88.79 6.7,-88.35 8.22,-87.74 10.05,-86.99 12.15,-86.12 14.42,-85.16 16.76,-84.15 19.1,-83.1 21.37,-82.05 23.49,-81.02 25.43,-80.06 27.18,-79.2 28.78,-78.47 30.23,-77.9" fill="none" stroke="rgb(255, 0, 255)" stroke-width="2" stroke-linejoin="round" filter="url(#fuzzy)" /><polyline points="-16.08,-86.37 -13.66,-87.1 -12.57,-87.39 -11.93,-87.51 -11.5,-87.5 -11.29,-87.39 -11.36,-87.12 -11.79,-86.69 -12.61,-86.06 -13.83,-85.25 -15.41,-84.24 -17.33,-83.02 -19.61,-81.57 -22.36,-79.82 -25.66,-77.77 -29.53,-75.46 -33.97,-72.95" fill="none" stroke="rgb(255, 0, 255)" stroke-width="2" stroke-linejoin="round" filter="url(#fuzzy)" /><polyline points="15.08,-86.52 15.3,-86.47 16.56,-85.76 18.23,-84.63 20.11,-83.2 22.18,-81.53 24.43,-79.67 26.79,-77.69 29.18,-75.65 31.54,-73.6 33.84,-71.57 36.1,-69.54 38.35,-67.47 40.64,-65.31 42.91,-63.15 44.91,-61.28" fill="none" stroke="rgb(255, 0, 255)" stroke-width="2" stroke-linejoin="round" filter="url(#fuzzy)" /><polyline points="-24.84,-82.14 -24.62,-82.27 -24.01,-82.58 -23.24,-82.99 -22.41,-83.43 -21.61,-83.85 -20.89,-84.21 -20.28,-84.48 -19.8,-84.66 -19.43,-84.75 -19.15,-84.76 -18.97,-84.69 -18.9,-84.53 -18.99,-84.26 -19.29,-83.86 -19.84,-83.32 -20.67,-82.62 -21.78,-81.76 -23.19,-80.72 -24.97,-79.47 -27.15,-77.97 -29.73,-76.23 -32.63,-74.32 -35.73,-72.32" fill="none" stroke="rgb(255, 0, 255)" stroke-width="2" stroke-linejoin="round" filter="url(#fuzzy)" /><polyline points="17.82,-85.75 18.92,-85.12 20.18,-84.44 21.39,-83.8 22.47,-83.23 23.4,-82.74 24.2,-82.3 24.9,-81.9 25.53,-81.53 26.08,-81.18 26.51,-80.88 26.81,-80.64 26.93,-80.49 26.86,-80.44 26.56,-80.5 26.01,-80.7 25.18,-81.06 24.04,-81.61 22.57,-82.36 20.77,-83.31 18.67,-84.43 16.35,-85.73" fill="none" stroke="rgb(255, 0, 255)" stroke-width="2" stroke-linejoin="round" filter="url(#fuzzy)" /><polyline points="-29.09,-79.2 -27.02,-80.28 -25.24,-80.67 -22.99,-80.85 -20.23,-80.87 -16.98,-80.76 -13.27,-80.56 -9.13,-80.29 -4.61,-79.96 0.23,-79.55 5.32,-79.04 10.65,-78.39 16.22,-77.62 22,-76.76 27.86,-75.92" fill="none" stroke="rgb(255, 0, 255)" stroke-width="2" stroke-linejoin="round" filter="url(#fuzzy)" /><polyline points="44.77,-62.31 45.27,-61.48 45.36,-60.52 44.86,-59.79 43.69,-59.41 41.86,-59.36 39.42,-59.51 36.39,-59.79 32.75,-60.18 28.43,-60.72 23.4,-61.49 17.61,-62.51 11.06,-63.81 3.7,-65.4 -4.52,-67.31 -13.64,-69.57 -23.51,-72.2" fill="none" stroke="rgb(255, 0, 255)" stroke-width="2" stroke-linejoin="round" filter="url(#fuzzy)" /><polyline points="-12.02,-87.61 -11.49,-87.75 -10.61,-87.95 -9.9,-88.1 -9.45,-88.14 -9.35,-88.05 -9.63,-87.81 -10.28,-87.44 -11.28,-86.91 -12.59,-86.23 -14.26,-85.36 -16.37,-84.28 -19.05,-82.96 -22.34,-81.44 -26.2,-79.79" fill="none" stroke="rgb(255, 0, 255)" stroke-width="2" stroke-linejoin="round" filter="url(#fuzzy)" /><polyline points="43.29,-64.49 43.37,-64.33 43.57,-63.43 43.38,-62.59 42.8,-61.84 41.82,-61.15 40.39,-60.56 38.48,-60.11 36.08,-59.8 33.18,-59.58 29.8,-59.4 25.92,-59.24 21.54,-59.14 16.62,-59.11 11.14,-59.19 5.08,-59.38 -1.58,-59.72 -8.83,-60.26 -16.7,-61.01 -25.25,-61.85 -34.52,-62.59" fill="none" stroke="rgb(255, 0, 255)" stroke-width="2" stroke-linejoin="round" filter="url(#fuzzy)" /><polyline points="-6.35,-89.08 -5.97,-88.86 -5.02,-88.61 -3.58,-88.26 -1.68,-87.77 0.55,-87.15 3,-86.39 5.56,-85.5 8.18,-84.5 10.82,-83.42 13.46,-82.28 16.09,-81.1 18.71,-79.88 21.33,-78.62 23.95,-77.33 26.59,-76.06 29.19,-74.85 31.7,-73.74 34.05,-72.73 36.15,-71.85" fill="none" stroke="rgb(255, 0, 255)" stroke-width="2" stroke-linejoin="round" filter="url(#fuzzy)" /><polyline points="15.08,-86.52 15.18,-86.61 16.11,-86.33 17.2,-85.89 18.23,-85.43 19.17,-84.97 19.99,-84.54 20.62,-84.21 20.97,-84.03 20.98,-84.01 20.59,-84.17 19.81,-84.49 18.68,-84.96 17.29,-85.55 15.69,-86.24" fill="none" stroke="rgb(255, 0, 255)" stroke-width="2" stroke-linejoin="round" filter="url(#fuzzy)" /><polyline points="-5.09,-89.08 -4.78,-88.94 -3.26,-88.75 -1.27,-88.44 0.93,-87.96 3.25,-87.31 5.65,-86.53 8.11,-85.64 10.6,-84.69 13.09,-83.71 15.55,-82.71 17.99,-81.71 20.43,-80.69 22.9,-79.66 25.4,-78.61 27.91,-77.54 30.38,-76.42 32.71,-75.27" fill="none" stroke="rgb(255, 0, 255)" stroke-width="2" stroke-linejoin="round" filter="url(#fuzzy)" /><polyline points="36.28,-73.06 36.25,-72.78 36.34,-72.02 36.13,-71.16 35.48,-70.28 34.33,-69.38 32.65,-68.48 30.41,-67.62 27.56,-66.81 24.09,-66.05 20,-65.35 15.29,-64.68 9.95,-64.01 3.95,-63.32 -2.72,-62.6 -10.07,-61.88 -18.12,-61.24 -26.87,-60.76 -36.28,-60.47" fill="none" stroke="rgb(255, 0, 255)" stroke-width="2" stroke-linejoin="round" filter="url(#fuzzy)" /><polyline points="-20.04,-84.68 -19.22,-85.01 -18.33,-85.22 -17.14,-85.48 -15.64,-85.79 -13.87,-86.13 -11.92,-86.49 -9.87,-86.83 -7.83,-87.14 -5.83,-87.41 -3.9,-87.64 -2.07,-87.84 -0.39,-88.03 1.08,-88.21 2.28,-88.38 3.21,-88.55 3.9,-88.73 4.41,-88.9 4.8,-89.08" fill="none" stroke="rgb(255, 0, 255)" stroke-width="2" stroke-linejoin="round" filter="url(#fuzzy)" /><polyline points="8.28,-88.63 9.46,-88.32 10.71,-87.98 11.97,-87.6 13.12,-87.26 14.08,-86.96 14.86,-86.72 15.5,-86.52 16.02,-86.35 16.38,-86.21 16.56,-86.11 16.51,-86.08 16.15,-86.14 15.38,-86.35 14.03,-86.78 12.04,-87.46" fill="none" stroke="rgb(255, 0, 255)" stroke-width="2" stroke-linejoin="round" filter="url(#fuzzy)" /><polyline points="62.1,-14.07 63.12,-13.12 64.05,-11.77 65.2,-10.47 66.49,-9.21 67.8,-7.86 69,-6.44 70,-4.96 70.68,-3.47 70.99,-1.95 70.97,-0.41 70.85,1.13 70.95,2.62 71.53,4.01 72.62,5.35 73.94,6.74 75.08,8.3 75.91,10.04 76.91,11.78 78.71,13.21 79.94,14.02" fill="none" stroke="rgb(255, 0, 255)" stroke-width="2" stroke-linejoin="round" filter="url(#fuzzy)" /><polyline points="62.1,-14.07 61.8,-15.8 61.66,-17.1 61.6,-18.22 61.55,-19.31 61.47,-20.41 61.36,-21.58 61.2,-22.86 61.01,-24.28 60.8,-25.78 60.57,-27.28 60.36,-28.75 60.18,-30.18 60,-31.65 59.78,-33.18 59.45,-34.73 59.01,-36.24 58.5,-37.88 0.49,-89.49 1.42,-89.11 2.35,-88.74 3.24,-88.56 4.01,-88.46 4.69,-88.35 5.33,-88.13 6,-87.73 6.75,-87.1 7.59,-86.27 8.52,-85.33 9.5,-84.38 10.49,-83.54 11.43,-82.83 12.28,-82.21 13.01,-81.57 13.64,-80.87 14.27,-80.13 15.03,-79.47 15.88,-78.89 16.22,-78.02 -2.14,-89.12 -1.01,-92.35 0.17,-92.35 1.27,-92.2 2.28,-92.05 3.2,-91.81 4.03,-91.61 4.79,-91.58 5.54,-91.73 6.34,-91.96 7.23,-92.19 8.23,-92.4 9.35,-92.63 10.55,-92.92 11.77,-93.26 12.95,-93.6 14.04,-93.87 15.03,-94.04 15.94,-94.15 16.88,-94.28 17.92,-94.49 19.04,-94.77 20.12,-95.21 21.23,-95.94 23.59,-112.83 21.25,-112.2 19.66,-111.08 18.57,-110.62 17.57,-110.55 16.46,-110.44 15.16,-109.96 13.7,-108.86 12.15,-107.11 10.6,-104.84 9.15,-102.28 7.86,-99.7 6.74,-97.37 5.77,-95.53 4.91,-94.3 4.07,-93.65 3.2,-93.38 2.24,-93.28 1.19,-93.32 0.05,-93.72 -1.17,-94.65 -2.44,-94.92 -3.65,-89.2 14.61,-91.09 12.67,-91.3 11.25,-91.48 9.98,-91.66 8.8,-91.74 7.73,-91.68 6.81,-91.54 6.01,-91.38 5.28,-91.27 4.56,-91.2 3.79,-91.16 2.93,-91.07 1.98,-90.9 0.94,-90.65 -0.19,-90.35 -1.38,-90.01 -2.61,-89.68 -3.82,-89.38 -4.87,-89.13 -5.64,-88.96 -6.47,-88.77 -6.35,-89.08 -7.07,-89.21 -8.01,-89.32 -9.06,-89.32 -10.15,-89.63 -11.32,-90.53 -12.61,-91.94 -14,-93.44 -15.43,-94.53 -16.82,-95.06 -18.16,-95.39 -19.46,-96.11 -20.76,-97.58 -21.98,-99.55 -23.05,-101.26 -24.09,-101.8" fill="none" stroke="rgb(255, 0, 255)" stroke-width="2" stroke-linejoin="round" filter="url(#fuzzy)" /><polyline points="10.13,-108.36 8.4,-106.9 7.35,-105.18 6.54,-103.56 5.79,-101.8 4.97,-99.75 4.06,-97.61 3.05,-95.79 1.97,-94.59 0.84,-94.04 -0.34,-93.83 -1.55,-93.52 -2.76,-92.79 -3.9,-91.63 -4.87,-90.38 -5.61,-89.47 -6.12,-89.06 -6.35,-89.08 -7.08,-88.62 -7.91,-88.32 -9,-87.96 -9.97,-87.34 -10.87,-86.46 -11.75,-85.36 -12.65,-84.12 -13.58,-82.84 -14.49,-81.62 -15.35,-80.56 -16.13,-79.68 -16.82,-78.92 -17.45,-78.18 -18.05,-77.36 -18.65,-76.41 -19.28,-75.33 -19.89,-74.15 -20.43,-72.82 -20.88,-71.41 -21.45,-70.56" fill="none" stroke="rgb(255, 0, 255)" stroke-width="2" stroke-linejoin="round" filter="url(#fuzzy)" /><polyline points="6.7,-96.11 6.48,-96.02 5.91,-95.23 5.29,-94.29 4.59,-93.55 3.77,-93.17 2.85,-93.11 1.84,-93.2 0.76,-93.21 -0.4,-92.99 -1.59,-92.49 -2.78,-91.75 -3.9,-90.91 -4.85,-90.12 -5.59,-89.51 -6.13,-89.12 -6.58,-88.89 -7.08,-88.62 -7.08,-88.62 -7.99,-89.07 -9.27,-90.1 -10.54,-91.49 -11.75,-92.51 -12.93,-92.88 -14.1,-92.72 -15.28,-92.27 -16.42,-91.73 -17.49,-91.22 -18.48,-90.79 -19.41,-90.48 -20.3,-90.26 -21.23,-90.15 -22.23,-90.17 -23.35,-90.43 -24.57,-90.96 -25.84,-91.72 -27.1,-92.53 -28.27,-93.12 -29.35,-93.38 -30.33,-93.78 -30.64,-95.95" fill="none" stroke="rgb(255, 0, 255)" stroke-width="2" stroke-linejoin="round" filter="url(#fuzzy)" /><polyline points="61.63,-16.04 62.77,-17.69 63.73,-19 64.28,-20.3 64.59,-21.63 64.82,-23.07 65.16,-24.73 65.74,-26.65 66.48,-28.74 67.23,-30.84 67.81,-32.87 68.15,-34.8 68.25,-36.63 68.17,-38.39 67.94,-40.04 67.59,-41.58 67.24,-43.09 67.12,-44.73 67.45,-46.69 68.27,-49.03 69.32,-51.58 70.12,-54.06 70.32,-56.4 70.29,-59 71.11,-61.69 -9.12,-88.17 -9.18,-88.8 -8.32,-88.94 -7.48,-89.05 -6.81,-89.28 -6.21,-89.65 -5.57,-90.18 -4.8,-90.84 -3.87,-91.61 -2.81,-92.44 -1.65,-93.28 -0.46,-94.03 0.71,-94.6 1.82,-94.99 2.87,-95.28 3.82,-95.61 4.67,-96.08 5.42,-96.65 6.09,-97.19 6.79,-97.6 7.66,-97.91 9.14,-97.74 -12.23,-87.64 -10.6,-90.04 -9.47,-89.95 -8.47,-89.69 -7.62,-89.8 -6.93,-90.29 -6.32,-91.02 -5.66,-91.79 -4.89,-92.48 -3.95,-93.08 -2.88,-93.61 -1.7,-94.13 -0.5,-94.69 0.69,-95.28 1.83,-95.9 2.91,-96.56 3.89,-97.34 4.78,-98.24 5.56,-99.2 6.27,-100.07 7.01,-100.74 7.95,-101.38 9.61,-102.78 -15.57,-86.4 -17.3,-86.69 -18.69,-88.69 -19.97,-90.9 -21.11,-92.28 -22.13,-92.71 -23.09,-92.46 -24.04,-91.98 -25.06,-91.69 -26.21,-91.91 -27.51,-92.69 -28.93,-93.82 -30.42,-94.96 -31.9,-95.81 -33.34,-96.23 -34.72,-96.3 -36.06,-96.35 -37.51,-96.86 -39.27,-98.24 -41.34,-100.36 -42.97,-102.1 6.25,-118.3 6.42,-117.18 5.69,-116.4 4.61,-115.23 3.37,-113.84 2.06,-112.25 0.71,-110.39 -0.65,-108.21 -1.98,-105.83 -3.23,-103.49 -4.35,-101.46 -5.33,-99.89 -6.19,-98.8 -6.97,-98.09 -7.74,-97.6 -8.56,-97.22 -9.47,-96.89 -10.45,-96.53 -11.46,-96.03 -12.42,-95.1 -13.32,-93.47 -14.26,-91.27 -15.34,-89.13 -15.57,-86.4 -18.07,-85.69 -18.68,-87.75 -19.36,-88.12 -19.95,-87.47 -20.67,-86.81 -21.66,-86.73 -22.85,-87.26 -24.12,-88.12 -25.36,-88.96 -26.52,-89.6 -27.64,-90.05 -28.76,-90.35 -29.89,-90.37 -31.03,-90.02 -32.25,-89.48 -33.55,-89.5 -34.52,-90.76" fill="none" stroke="rgb(255, 0, 255)" stroke-width="2" stroke-linejoin="round" filter="url(#fuzzy)" /><polyline points="-18.07,-85.69 -16.26,-85.44 -14.89,-85.53 -13.52,-85.14 -12.25,-84.41 -11.11,-83.71 -10.08,-83.24 -9.11,-82.98 -8.2,-82.81 -7.37,-82.61 -6.64,-82.36 -6.02,-82.11 -5.49,-81.9 -4.95,-81.64 -4.26,-81.16 -3.25,-80.59 -1.94,-80.64" fill="none" stroke="rgb(255, 0, 255)" stroke-width="2" stroke-linejoin="round" filter="url(#fuzzy)" /><polyline points="-17.6,-85.72 -17.45,-86.95 -16.58,-88.29 -15.52,-89.91 -14.5,-91.98 -13.55,-94.12 -12.63,-95.96 -11.68,-97.31 -10.69,-98.14 -9.71,-98.49 -8.77,-98.46 -7.89,-98.36 -7.07,-98.57 -6.29,-99.49 -5.47,-101.36 -4.54,-104.15 -3.45,-107.47 -2.21,-110.68 -0.84,-113.12 0.57,-114.44 1.98,-114.99 3.36,-115.74 4.69,-117.55 5.65,-119.94 -17.6,-85.72 -18.85,-85.95 -19.92,-87.21 -21,-88.04 -21.98,-87.96 -22.87,-87.31 -23.7,-86.55 -24.56,-86.02 -25.5,-85.86 -26.55,-86.07 -27.74,-86.54 -29.04,-87.11 -30.42,-87.65 -31.82,-88.11 -33.14,-88.47 -34.31,-88.73 -35.44,-88.82 -36.76,-88.36 -36.67,-88.15 -35.17,-88.15 -34.05,-88.06 -32.88,-87.8 -31.6,-87.59 -30.35,-87.61 -29.21,-87.87 -28.2,-88.22 -27.25,-88.51 -26.31,-88.69 -25.38,-88.88 -24.44,-89.18 -23.47,-89.47 -22.41,-89.49 -21.28,-89.11 -20.24,-88.58 -19.3,-87.95 -17.6,-85.72 -17.6,-85.72 -17.18,-85.49 -16.13,-85.69 -14.93,-86.13 -13.72,-86.55 -12.58,-86.85 -11.51,-87.06 -10.5,-87.24 -9.54,-87.41 -8.63,-87.56 -7.8,-87.63 -7.03,-87.58 -6.31,-87.4 -5.6,-87.14 -4.83,-86.85 -3.96,-86.6 -2.96,-86.43 -1.87,-86.34 -0.73,-86.29 0.39,-86.19 1.46,-85.96 2.46,-85.58 3.38,-85.21 4.02,-85.3 -19.37,-84.87 -17.85,-83.64 -16.71,-82.84 -15.61,-82.81 -14.49,-83.31 -13.38,-83.83 -12.28,-84.04 -11.21,-83.86 -10.16,-83.42 -9.15,-82.9 -8.21,-82.37 -7.34,-81.76 -6.57,-80.89 -5.88,-79.69 -5.24,-78.23 -4.59,-76.75 -3.84,-75.54 -2.93,-74.75 -1.86,-74.36 -0.83,-73.64 -18.9,-85.29 -20.24,-85.52 -21.5,-85.57 -22.71,-85.85 -23.81,-86.07 -24.83,-86.18 -25.87,-86.36 -27,-86.72 -28.19,-87.12 -29.4,-87.39 -30.56,-87.39 -31.67,-87.15 -32.72,-86.8 -33.74,-86.41 -34.72,-86.01 -35.67,-85.56 -36.59,-85.09 -37.5,-84.69 -38.46,-84.4 -39.55,-84.11 -40.89,-83.68 -42.54,-83.19 -44.1,-83.53" fill="none" stroke="rgb(255, 0, 255)" stroke-width="2" stroke-linejoin="round" filter="url(#fuzzy)" /><polyline points="-28.7,-64.88 -28.95,-65.4 -28.95,-67.37 -28.73,-69.21 -28.35,-70.6 -27.85,-71.67 -27.27,-72.6 -26.59,-73.42 -25.82,-74.13 -25.01,-74.74 -24.24,-75.36 -23.56,-76.08 -22.95,-76.89 -22.35,-77.69 -21.73,-78.56 -21.13,-79.81 -20.6,-81.8 -20.04,-84.68 -31.52,-58.5 -31.68,-60.11 -31.29,-61.52 -30.8,-63.01 -30.36,-64.41 -29.97,-65.61 -29.57,-66.65 -29.11,-67.57 -28.57,-68.38 -27.96,-69.11 -27.31,-69.84 -26.67,-70.69 -26.08,-71.79 -25.54,-73.18 -25.07,-74.77 -24.63,-76.43 -24.22,-78.06 -23.83,-79.63 -23.42,-81.11 -22.91,-82.39 -22.24,-83.32 -21.49,-84.04 -21.49,-84.04 -20.3,-84.43 -19.39,-84.3 -18.57,-83.81 -17.71,-83.22 -16.78,-82.86 -15.8,-82.9 -14.76,-83.26 -13.68,-83.71 -12.59,-83.98 -11.53,-83.97 -10.51,-83.71 -9.51,-83.3 -8.46,-82.71 -7.34,-81.92 -6.49,-81.19 -21.49,-84.04 -22.73,-85.08 -23.85,-85.65 -24.64,-85.21 -25.39,-84.63 -26.29,-84.35 -27.36,-84.4 -28.57,-84.64 -29.82,-84.89 -31.01,-84.98 -32.1,-84.84 -33.11,-84.55 -34.12,-84.25 -35.17,-84.08 -36.27,-84.05 -37.35,-84.04 -38.36,-83.85 -39.4,-83.42 -40.63,-82.93 -42.15,-82.69 -43.69,-82.84 -44.8,-83.16 -24.84,-82.14 -26.32,-81.06 -27.24,-80.31 -28.14,-79.5 -28.99,-78.69 -29.76,-77.9 -30.46,-77.13 -31.13,-76.31 -31.76,-75.43 -32.35,-74.5 -32.93,-73.54 -33.53,-72.57 -34.2,-71.62 -34.95,-70.71 -35.74,-69.86 -36.55,-69.04 -37.31,-68.22 -38.03,-67.34 -38.7,-66.39 -39.29,-65.39 -39.74,-64.47 -39.97,-63.79 -39.83,-63.49" fill="none" stroke="rgb(255, 0, 255)" stroke-width="2" stroke-linejoin="round" filter="url(#fuzzy)" /><polyline points="-43.98,-72.2 -42.69,-73.36 -41.84,-74.47 -41.05,-75.35 -40.13,-75.97 -39.02,-76.36 -37.8,-76.61 -36.59,-76.78 -35.48,-76.92 -34.48,-77.07 -33.54,-77.27 -32.64,-77.54 -31.77,-77.91 -30.94,-78.4 -30.15,-79.03 -29.39,-79.88 -28.64,-81.02 -27.9,-82.34 -27.04,-83.22 -24.84,-82.14 -25.93,-81.22 -26.32,-81.41 -25.8,-82.16 -25.08,-82.7 -24.28,-83.06 -23.43,-83.38 -22.55,-83.75 -21.68,-84.2 -20.83,-84.72 -20.03,-85.29 -19.26,-85.88 -18.49,-86.48 -17.66,-87.06 -16.74,-87.58 -15.71,-88.04 -14.6,-88.45 -13.46,-88.86 -12.36,-89.31 -11.31,-89.81 -10.3,-90.39 -9.28,-91 -8.26,-91.56 -7.31,-91.97 -6.57,-92.2" fill="none" stroke="rgb(255, 0, 255)" stroke-width="2" stroke-linejoin="round" filter="url(#fuzzy)" /><polyline points="-29.09,-79.2 -29.84,-79.11 -30.39,-78.73 -31.11,-78.34 -31.99,-78.03 -32.93,-77.77 -33.83,-77.48 -34.67,-77.07 -35.51,-76.55 -36.39,-75.94 -37.35,-75.3 -38.35,-74.68 -39.36,-74.1 -40.36,-73.55 -41.37,-73.02 -42.37,-72.5 -43.32,-71.99 -44.16,-71.47 -44.89,-70.89 -45.84,-70.2 -47.82,-68.75" fill="none" stroke="rgb(255, 0, 255)" stroke-width="2" stroke-linejoin="round" filter="url(#fuzzy)" /><polyline points="-29.92,-78.37 -30.06,-77.9 -30.67,-77.27 -31.41,-76.55 -32.17,-75.85 -32.91,-75.2 -33.64,-74.56 -34.39,-73.87 -35.18,-73.11 -35.99,-72.28 -36.8,-71.41 -37.58,-70.5 -38.3,-69.56 -38.98,-68.59 -39.62,-67.61 -40.22,-66.63 -40.81,-65.68 -41.41,-64.73 -42.02,-63.77 -42.65,-62.78 -43.25,-61.76 -43.81,-60.79 -44.27,-59.92 -44.65,-59.17 -45.03,-58.46" fill="none" stroke="rgb(255, 0, 255)" stroke-width="2" stroke-linejoin="round" filter="url(#fuzzy)" /><polyline points="-10.64,-77.49 -11.82,-78.71 -13.3,-79.13 -14.55,-79.25 -15.54,-79.17 -16.38,-79.04 -17.16,-79.01 -17.96,-79.12 -18.83,-79.34 -19.74,-79.52 -20.66,-79.55 -21.53,-79.39 -22.36,-79.08 -23.16,-78.76 -24.01,-78.63 -24.97,-78.81 -26.09,-79.25 -27.33,-79.57 -28.67,-79.26 -29.92,-78.37 -30.7,-77.85 -31.64,-76.98 -32.45,-76.25 -33.1,-75.51 -33.62,-74.67 -34.1,-73.63 -34.61,-72.37 -35.16,-70.98 -35.7,-69.56 -36.17,-68.16 -36.59,-66.8 -37.04,-65.52 -37.59,-64.37 -38.19,-63.35 -38.67,-62.38 -38.92,-61.37 -34.36,-74.71 -33.11,-72.71 -33.8,-72.67 -34.91,-72.49 -35.97,-71.91 -36.83,-71.04 -37.48,-69.96 -37.95,-68.67 -38.28,-67.18 -38.48,-65.55 -38.56,-63.82 -38.55,-62.04 -38.51,-60.26 -38.54,-58.54 -38.69,-56.96 -38.98,-55.61 -39.33,-54.49 -39.62,-53.57 -39.93,-53.18" fill="none" stroke="rgb(255, 0, 255)" stroke-width="2" stroke-linejoin="round" filter="url(#fuzzy)" /><polyline points="-33.44,-75.58 -34.82,-75.6 -36.22,-75.25 -37.82,-75.29 -39.33,-75.45 -40.57,-75.33 -41.53,-74.77 -42.29,-73.86 -42.96,-72.81 -43.63,-71.8 -44.38,-70.93 -45.22,-70.2 -46.13,-69.53 -47.04,-68.83 -47.93,-68.11 -48.82,-67.44 -49.82,-66.97 -51.04,-66.76 -52.46,-66.67 -53.95,-66.38 -55.34,-65.42 -57.28,-63.2 -33.44,-75.58 -34.42,-74.74 -35.6,-74.01 -36.84,-73.4 -37.96,-72.85 -38.92,-72.27 -39.76,-71.56 -40.51,-70.71 -41.18,-69.76 -41.8,-68.76 -42.42,-67.79 -43.09,-66.88 -43.83,-66.05 -44.63,-65.29 -45.48,-64.6 -46.34,-63.98 -47.19,-63.39 -48.03,-62.76 -48.87,-62 -49.72,-61.04 -50.6,-59.86 -51.5,-58.61 -52.19,-58.19 -34.49,-74.54 -35.39,-73.6 -36.4,-72.32 -37.18,-71.16 -37.84,-70.11 -38.48,-69.11 -39.1,-68.12 -39.71,-67.12 -40.27,-66.1 -40.8,-65.06 -41.34,-64.03 -41.9,-63.01 -42.47,-62.01 -43.05,-61.04 -43.59,-60.06 -44.09,-59.05 -44.56,-57.98 -45.03,-56.83 -45.53,-55.63 -46.04,-54.4 -46.53,-53.18 -46.95,-52.04 -47.25,-51 -47.47,-49.84 -47.93,-47.91 -34.93,-74.23 -37.57,-74.3 -39.03,-74.36 -39.97,-74 -40.82,-73.42 -41.86,-73 -43.11,-72.92 -44.44,-73.05 -45.72,-73.15 -46.97,-73.13 -48.35,-73.11 -50.04,-73.34 -52.04,-73.97 -54.23,-74.96 -56.39,-76.17 -57.47,-76.54" fill="none" stroke="rgb(255, 0, 255)" stroke-width="2" stroke-linejoin="round" filter="url(#fuzzy)" /><polyline points="69.29,-45.75 68.74,-44.93 67.74,-43.19 66.94,-41.15 66.33,-39.03 65.86,-36.92 65.45,-34.91 65.07,-33.03 64.66,-31.21 64.15,-29.34 63.55,-27.37 62.89,-25.35 62.23,-23.43 61.66,-21.85 61.29,-20.93 61.02,-21.36" fill="none" stroke="rgb(255, 0, 255)" stroke-width="2" stroke-linejoin="round" filter="url(#fuzzy)" /><polyline points="-50.43,-61.95 -49.68,-61.7 -48.84,-62.33 -48.05,-63 -47.29,-63.6 -46.54,-64.24 -45.8,-65 -45.05,-65.85 -44.26,-66.66 -43.43,-67.32 -42.55,-67.81 -41.67,-68.23 -40.79,-68.75 -39.93,-69.43 -39.1,-70.21 -38.35,-70.94 -37.8,-71.6" fill="none" stroke="rgb(255, 0, 255)" stroke-width="2" stroke-linejoin="round" filter="url(#fuzzy)" /><polyline points="-38.21,-70.92 -38.09,-72.27 -37.54,-73.74 -36.8,-75.22 -36.25,-76.87 -35.86,-78.49 -35.4,-79.78 -34.77,-80.71 -34.05,-81.57 -33.4,-82.79 -32.97,-84.72 -32.78,-87.46 -32.76,-90.78 -32.71,-94.18 -32.47,-97.08 -31.92,-99.01 -31.04,-99.89 -29.94,-100 -28.78,-99.9 -27.68,-100.18 -26.73,-101.27 -25.9,-103.36 -25.16,-106.53 -24.6,-110.99" fill="none" stroke="rgb(255, 0, 255)" stroke-width="2" stroke-linejoin="round" filter="url(#fuzzy)" /><polyline points="-38.21,-70.92 -37.67,-71.47 -36.77,-72.23 -35.77,-73.11 -34.85,-73.87 -34.03,-74.47 -33.25,-74.94 -32.46,-75.38 -31.66,-75.82 -30.85,-76.31 -30.03,-76.86 -29.22,-77.47 -28.39,-78.12 -27.55,-78.78 -26.69,-79.4 -25.85,-79.97 -25.02,-80.46 -24.21,-80.89 -23.4,-81.25 -22.55,-81.56 -21.63,-81.84 -20.63,-82.15 -19.53,-82.54 -18.4,-83" fill="none" stroke="rgb(255, 0, 255)" stroke-width="2" stroke-linejoin="round" filter="url(#fuzzy)" /><polyline points="-39.9,-69.34 -38.65,-69.13 -37.55,-69.05 -36.79,-69.71 -36.06,-70.65 -35.22,-71.51 -34.33,-72.17 -33.48,-72.68 -32.7,-73.11 -31.94,-73.51 -31.15,-73.88 -30.3,-74.17 -29.43,-74.35 -28.54,-74.36 -27.53,-74.19 -26.08,-73.93 -23.55,-73.77" fill="none" stroke="rgb(255, 0, 255)" stroke-width="2" stroke-linejoin="round" filter="url(#fuzzy)" /><polyline points="-39.9,-69.34 -39.34,-70.42 -38.91,-71.64 -38.58,-73.24 -38.43,-75.56 -38.47,-78.47 -38.56,-81.43 -38.52,-83.91 -38.26,-85.76 -37.79,-87.19 -37.24,-88.58 -36.7,-90.13 -36.19,-91.76 -35.65,-93.37 -35.04,-95.09 -34.46,-97.42 -34.15,-100.46 -35.21,-102.99 -39.9,-69.34 -41,-73.41 -40.71,-74.97 -40.61,-77.1 -40.4,-79.3 -39.71,-80.71 -38.61,-81.17 -37.38,-81.15 -36.29,-81.28 -35.51,-82.02 -35.03,-83.51 -34.77,-85.61 -34.63,-88.07 -34.5,-90.69 -34.29,-93.38 -33.9,-95.98 -33.24,-98.14 -32.37,-99.73 -30.65,-101.34" fill="none" stroke="rgb(255, 0, 255)" stroke-width="2" stroke-linejoin="round" filter="url(#fuzzy)" /><polyline points="-30.98,-97.03 -33.4,-94.85 -34.26,-92.5 -34.75,-90.65 -35.2,-89.05 -35.68,-87.48 -36.16,-85.93 -36.58,-84.37 -36.89,-82.65 -37.1,-80.68 -37.26,-78.48 -37.5,-76.26 -37.88,-74.27 -38.37,-72.69 -38.94,-71.47 -39.55,-70.39 -40.24,-69.14 -41.11,-67.48" fill="none" stroke="rgb(255, 0, 255)" stroke-width="2" stroke-linejoin="round" filter="url(#fuzzy)" /><polyline points="-41.45,-66.92 -40.78,-67.58 -39.98,-68.55 -39.13,-69.34 -38.18,-69.76 -37.08,-69.86 -35.88,-69.88 -34.71,-70.04 -33.66,-70.36 -32.73,-70.68 -31.85,-70.78 -30.91,-70.64 -29.9,-70.44 -28.87,-70.4 -27.86,-70.54 -27.1,-71.24" fill="none" stroke="rgb(255, 0, 255)" stroke-width="2" stroke-linejoin="round" filter="url(#fuzzy)" /><polyline points="-24.52,-84.06 -25.23,-83.7 -25.94,-83.08 -26.73,-82.31 -27.59,-81.51 -28.48,-80.75 -29.37,-80.05 -30.22,-79.41 -31.03,-78.78 -31.81,-78.14 -32.56,-77.46 -33.27,-76.74 -33.97,-75.97 -34.68,-75.17 -35.43,-74.33 -36.23,-73.45 -37.05,-72.56 -37.86,-71.66 -38.64,-70.77 -39.41,-69.88 -40.18,-68.96 -40.95,-68.03 -41.61,-67.16 -42.08,-66.35" fill="none" stroke="rgb(255, 0, 255)" stroke-width="2" stroke-linejoin="round" filter="url(#fuzzy)" /><polyline points="-39.91,-104.93 -40.56,-102.65 -41.69,-101.59 -42.52,-100.17 -42.87,-98.02 -42.82,-95.18 -42.57,-91.88 -42.32,-88.43 -42.19,-85.14 -42.24,-82.26 -42.51,-79.94 -43.03,-78.23 -43.73,-76.98 -44.49,-75.97 -45.15,-74.9 -45.55,-73.51 -45.64,-71.65 -45.48,-69.35 -45.23,-66.82 -45.07,-64.39 -45.15,-62.47 -45.64,-61.29" fill="none" stroke="rgb(255, 0, 255)" stroke-width="2" stroke-linejoin="round" filter="url(#fuzzy)" /><polyline points="-47.82,-58.1 -48.42,-57.74 -49.9,-57.41 -51.96,-57.9 -54.3,-58.83 -56.57,-59.6 -58.54,-59.87 -60.19,-59.65 -61.59,-59.06 -62.8,-58.19 -63.94,-57.12 -65.27,-56.07 -67.09,-55.31 -69.29,-54.89 -71.22,-54.58 -72.46,-54.69 -49.32,-54.99 -49.98,-54.14 -50.62,-53.3 -51.28,-52.26 -51.89,-51.13 -52.47,-49.97 -53.08,-48.81 -53.77,-47.66 -54.54,-46.54 -55.35,-45.5 -56.14,-44.57 -56.83,-43.76 -57.42,-42.99 -57.98,-42 -58.66,-40.46 -59.39,-38.53" fill="none" stroke="rgb(255, 0, 255)" stroke-width="2" stroke-linejoin="round" filter="url(#fuzzy)" /><polyline points="60.84,-22.09 61.2,-23.05 61.36,-24.86 61.48,-26.71 61.9,-28.6 62.71,-30.61 63.64,-32.69 64.36,-34.71 64.64,-36.55 64.57,-38.21 64.47,-39.82 64.7,-41.58 65.37,-43.58 66.23,-45.76 66.86,-47.84 67.09,-49.59 67.34,-51.02 67.6,-52.13" fill="none" stroke="rgb(255, 0, 255)" stroke-width="2" stroke-linejoin="round" filter="url(#fuzzy)" /><polyline points="-52.18,-50.06 -51.4,-51.56 -50.88,-53.03 -50.68,-54.48 -50.73,-56.15 -50.94,-58.16 -51.25,-60.5 -51.65,-63.06 -52.17,-65.8 -52.88,-68.74 -53.75,-71.87 -54.69,-75.13 -55.51,-78.36 -56,-81.35 -56.01,-83.85 -55.58,-85.71 -54.97,-87.02 -54.8,-88.49 -55.6,-91.27" fill="none" stroke="rgb(255, 0, 255)" stroke-width="2" stroke-linejoin="round" filter="url(#fuzzy)" /><polyline points="-79.01,-32.05 -77.5,-33.99 -74.95,-34.26 -72.28,-34.4 -69.94,-34.86 -68.09,-35.71 -66.81,-36.92 -66.05,-38.36 -65.63,-39.86 -65.25,-41.26 -64.65,-42.43 -63.62,-43.29 -62.07,-43.78 -60.12,-43.89 -58.06,-43.77 -56.28,-43.75 -55,-44.22 -54.15,-45.25 -53.62,-46.13" fill="none" stroke="rgb(255, 0, 255)" stroke-width="2" stroke-linejoin="round" filter="url(#fuzzy)" /><polyline points="-54.85,-43.11 -54.17,-41.54 -53.75,-40.39 -54.04,-39.46 -54.47,-38.38 -54.78,-37.15 -54.92,-35.85 -54.92,-34.49 -54.83,-33.04 -54.69,-31.52 -54.6,-29.99 -54.64,-28.55 -54.78,-27.24 -54.94,-26.04 -54.97,-24.86 -54.77,-23.58 -54.35,-22.18 -53.83,-20.7 -53.38,-19.2 -53.05,-17.77 -52.8,-16.4 -52.59,-15.06 -52.53,-13.73 -68.68,-27.9 -67.38,-28.18 -66.32,-29.01 -65.65,-29.94 -65.22,-31.04 -64.76,-32.25 -63.98,-33.44 -62.8,-34.48 -61.37,-35.36 -59.96,-36.13 -58.78,-36.91 -57.92,-37.78 -57.27,-38.82 -56.68,-40 -56.08,-41.12 -55.58,-41.8 -55.38,-41.89" fill="none" stroke="rgb(255, 0, 255)" stroke-width="2" stroke-linejoin="round" filter="url(#fuzzy)" /><polyline points="60.89,-21.61 62.25,-25.18 63.49,-27.7 63.84,-29.56 64.24,-31.38 65,-33.42 65.93,-35.64 66.84,-37.95 67.69,-40.25 68.56,-42.51 69.46,-44.75 70.44,-47.04 71.58,-49.54 72.98,-52.33 74.46,-55.12 75.44,-57.18 75.31,-58.07" fill="none" stroke="rgb(255, 0, 255)" stroke-width="2" stroke-linejoin="round" filter="url(#fuzzy)" /><polyline points="-55.33,-42.29 -55.16,-42 -54.5,-42.13 -53.81,-42.87 -53.27,-44.07 -52.79,-45.41 -52.25,-46.68 -51.59,-47.8 -50.82,-48.73 -49.96,-49.53 -49.04,-50.2 -48.09,-50.77 -47.13,-51.25 -46.13,-51.69 -45.08,-52.15 -43.98,-52.67 -42.89,-53.29 -41.87,-53.96 -40.86,-54.42" fill="none" stroke="rgb(255, 0, 255)" stroke-width="2" stroke-linejoin="round" filter="url(#fuzzy)" /><polyline points="-57.96,-34.04 -57.85,-36.04 -58.55,-37.74 -59.83,-39.92 -61.41,-42.59 -62.81,-45.21 -63.57,-47.26 -63.57,-48.68 -63.11,-49.84 -62.68,-51.25 -62.69,-53.24 -63.29,-55.89 -64.46,-59.06 -66.08,-62.52 -67.7,-65.77 -67.72,-67.69" fill="none" stroke="rgb(255, 0, 255)" stroke-width="2" stroke-linejoin="round" filter="url(#fuzzy)" /><polyline points="-58.86,-31.1 -58.96,-33.31 -60.23,-35.84 -61.24,-37.98 -61.5,-39.55 -61.33,-40.91 -61.17,-42.35 -61.17,-43.93 -61.27,-45.57 -61.39,-47.25 -61.53,-49.04 -61.74,-51.02 -62.07,-53.23 -62.46,-55.58 -62.8,-57.95 -63.01,-60.21 -63.04,-62.3 -62.92,-64.24 -62.74,-66.1 -62.6,-67.98 -62.62,-70.09 -62.9,-72.7 -63.38,-75.85 -63.5,-78.77 -61.88,-80.33" fill="none" stroke="rgb(255, 0, 255)" stroke-width="2" stroke-linejoin="round" filter="url(#fuzzy)" /><polyline points="-58.86,-31.1 -59.62,-29.91 -60.35,-28.97 -61.23,-28.19 -62.02,-27.32 -62.6,-26.22 -62.97,-24.93 -63.25,-23.52 -63.53,-22.09 -63.89,-20.71 -64.32,-19.4 -64.77,-18.15 -65.21,-16.91 -65.61,-15.65 -65.99,-14.31 -66.36,-12.87 -66.77,-11.36 -67.2,-9.85 -67.65,-8.43 -68.09,-7.14 -68.55,-5.88 -69.11,-4.46 -69.89,-2.68 -70.76,-0.71 -71.15,1.01 -58.86,-31.1 -59.11,-29.67 -59.07,-28.38 -58.89,-27.15 -58.82,-25.93 -58.97,-24.7 -59.27,-23.45 -59.58,-22.15 -59.81,-20.82 -59.93,-19.48 -59.97,-18.16 -59.97,-16.88 -59.98,-15.64 -59.97,-14.4 -59.93,-13.1 -59.83,-11.72 -59.68,-10.26 -59.52,-8.8 -59.39,-7.46 -59.3,-6.31 -59.22,-5.27 -59.09,-4.05 -58.89,-2.33 -58.36,-0.54" fill="none" stroke="rgb(255, 0, 255)" stroke-width="2" stroke-linejoin="round" filter="url(#fuzzy)" /><polyline points="64.94,-65.72 64.03,-63.69 63.23,-61.07 62.91,-58.67 62.97,-56.74 63.25,-55.29 63.63,-54.1 63.95,-52.89 64.1,-51.46 64.02,-49.78 63.71,-47.88 63.2,-45.87 62.52,-43.78 61.73,-41.67 60.96,-39.62 60.4,-37.69 60.23,-35.96 60.5,-34.45 61.04,-33.08 61.47,-31.72 61.41,-30.2 60.83,-28.46 60.25,-26.71 60.15,-25.75" fill="none" stroke="rgb(255, 0, 255)" stroke-width="2" stroke-linejoin="round" filter="url(#fuzzy)" /><polyline points="59.31,-29.03 62.62,-27.87 63.07,-26.11 63.06,-24.39 63.1,-22.93 63.27,-21.72 63.69,-20.68 64.45,-19.75 65.61,-18.85 67.13,-17.95 68.9,-16.95 70.79,-15.81 72.64,-14.48 74.21,-13 75.08,-11.71 74.76,-12.09 59.31,-29.03 60.05,-29.88 60.46,-31.3 60.5,-32.92 60.18,-34.43 59.78,-35.82 59.49,-37.17 59.36,-38.56 59.35,-40 59.36,-41.49 59.38,-43.03 59.42,-44.63 59.45,-46.23 59.44,-47.76 59.36,-49.14 59.25,-50.37 59.16,-51.62 59.06,-53.09 58.84,-54.81 58.44,-56.55 58.14,-58.46" fill="none" stroke="rgb(255, 0, 255)" stroke-width="2" stroke-linejoin="round" filter="url(#fuzzy)" /><polyline points="59.31,-29.03 59.96,-29.88 61.74,-32.09 63.3,-34.61 63.97,-36.72 63.95,-38.41 63.79,-39.96 63.87,-41.63 64.23,-43.49 64.71,-45.47 65.11,-47.42 65.31,-49.26 65.26,-50.92 65.01,-52.38 64.61,-53.66 64.18,-54.89 63.89,-56.28 63.88,-58.07 64.24,-60.38 64.91,-63.14 65.65,-66.13 66.23,-69.14 66.46,-72.04 66.33,-74.74 66.18,-77.7" fill="none" stroke="rgb(255, 0, 255)" stroke-width="2" stroke-linejoin="round" filter="url(#fuzzy)" /><polyline points="53.28,-3.59 54.06,-5.92 54.53,-7.35 54.71,-8.49 54.78,-9.68 55.02,-11.02 55.59,-12.48 56.44,-13.98 57.41,-15.46 58.32,-16.86 59.04,-18.17 59.49,-19.4 59.66,-20.57 59.62,-21.78 59.48,-23.14 59.38,-24.71 59.36,-26.46 59.35,-28.17 59.4,-29.28" fill="none" stroke="rgb(255, 0, 255)" stroke-width="2" stroke-linejoin="round" filter="url(#fuzzy)" /><polyline points="59.22,-29.62 60.41,-29.61 60.78,-28.57 61.16,-27.12 61.57,-25.58 61.92,-24.1 62.18,-22.73 62.36,-21.47 62.51,-20.28 62.64,-19.1 62.77,-17.88 62.91,-16.61 63.07,-15.27 63.28,-13.89 63.54,-12.48 63.86,-11.06 64.2,-9.65 64.55,-8.24 64.89,-6.8 65.2,-5.36 65.49,-3.93 65.75,-2.55 65.96,-1.15 66.1,0.45 66.5,2.29" fill="none" stroke="rgb(255, 0, 255)" stroke-width="2" stroke-linejoin="round" filter="url(#fuzzy)" /><polyline points="58.01,-33.9 60.53,-33.31 62.37,-32.5 62.7,-31.17 62.65,-29.63 63,-28.14 64.04,-26.84 65.77,-25.81 68,-25.04 70.39,-24.43 72.48,-23.8 73.86,-22.94 74.4,-21.76 74.48,-20.33 74.89,-18.85 76.36,-17.53 79.04,-16.46 83.06,-15.57" fill="none" stroke="rgb(255, 0, 255)" stroke-width="2" stroke-linejoin="round" filter="url(#fuzzy)" /><polyline points="63.86,-74.98 63.86,-72 63.65,-69.06 63.01,-65.88 62.09,-62.65 61.24,-59.66 60.77,-57.17 60.83,-55.32 61.29,-54.07 61.87,-53.08 62.2,-51.96 62.15,-50.45 61.81,-48.59 61.47,-46.65 61.33,-44.86 61.37,-43.24 61.33,-41.67 60.95,-40.05 59.9,-38.12 57.75,-35.07 52.84,-62.78 52.26,-61.65 52.22,-60.42 52.48,-59.01 52.9,-57.49 53.41,-56 53.94,-54.58 54.41,-53.15 54.75,-51.68 54.96,-50.19 55.11,-48.8 55.27,-47.58 55.49,-46.48 55.74,-45.35 55.92,-44.07 55.99,-42.65 56.03,-41.22 56.3,-39.71 56.98,-37.62" fill="none" stroke="rgb(255, 0, 255)" stroke-width="2" stroke-linejoin="round" filter="url(#fuzzy)" /><polyline points="55.41,-41.93 55.83,-41.38 56.39,-40.33 56.89,-39.17 57.28,-38.04 57.63,-36.94 58.02,-35.8 58.49,-34.59 59.01,-33.3 59.53,-32 60,-30.7 60.44,-29.44 60.89,-28.16 61.38,-26.74 61.89,-24.97 62.45,-22.17" fill="none" stroke="rgb(255, 0, 255)" stroke-width="2" stroke-linejoin="round" filter="url(#fuzzy)" /><polyline points="53.6,-46.5 54.05,-45.34 54.47,-43.68 54.59,-42.06 54.52,-40.51 54.46,-39.03 54.51,-37.67 54.66,-36.41 54.86,-35.19 55.05,-33.94 55.18,-32.6 55.22,-31.16 55.17,-29.66 55.11,-28.16 55.07,-26.68 55.1,-25.23 55.18,-23.78 55.25,-22.33 55.26,-20.91 55.21,-19.62 55.03,-18.48 54.66,-17.2 54.65,-14.69 53.6,-46.5 54,-45.3 54.52,-43.7 54.93,-42.29 55.24,-41 55.47,-39.73 55.64,-38.44 55.75,-37.13 55.85,-35.81 55.96,-34.47 56.12,-33.1 56.3,-31.7 56.49,-30.29 56.71,-28.89 56.96,-27.5 57.26,-26.12 57.59,-24.73 57.88,-23.33 58.05,-21.95 58.06,-20.64 57.94,-19.43 57.74,-18.28 57.54,-17.18 57.37,-17.11 68.09,-24.17 66.71,-26.92 65.55,-28.57 64.66,-29.94 63.97,-31.23 63.34,-32.5 62.63,-33.75 61.77,-34.93 60.76,-35.97 59.7,-36.88 58.68,-37.7 57.79,-38.54 57.07,-39.48 56.52,-40.55 56.17,-41.78 56.05,-43.25 56.11,-45.08 55.9,-46.95 53.6,-46.5" fill="none" stroke="rgb(255, 0, 255)" stroke-width="2" stroke-linejoin="round" filter="url(#fuzzy)" /><polyline points="53.6,-46.5 54.57,-45.8 55.49,-44.5 56.9,-43.77 59.02,-43.71 61.55,-43.95 63.83,-44.02 65.4,-43.6 66.23,-42.64 66.66,-41.32 67.16,-39.89 68.02,-38.55 69.29,-37.37 70.82,-36.35 72.5,-35.46 74.31,-34.61 75.99,-33.6 76.41,-32.71 53.94,-46.01 54.66,-46.49 55.29,-46.75 55.94,-46.31 56.58,-45.4 57.19,-44.32 57.71,-43.18 58.1,-41.96 58.39,-40.7 58.64,-39.45 58.95,-38.25 59.38,-37.12 59.96,-35.97 60.69,-34.72 61.56,-33.37 62.53,-32.04 63.55,-31.32 64.34,-31.72 63.61,-32.6 62.86,-34.09 62.15,-35.57 61.42,-36.83 60.65,-37.88 59.86,-38.8 59.1,-39.7 58.41,-40.67 57.81,-41.72 57.26,-42.81 56.65,-43.88 55.92,-44.84 55.09,-45.57 54.36,-45.94 54.02,-45.95 53.94,-46.01 53.94,-46.01 53,-48.8 52.72,-50.65 52.71,-52.46 52.7,-54.29 52.48,-55.96 52.03,-57.32 51.41,-58.35 50.73,-59.19 50.06,-60 49.47,-60.96 48.97,-62.17 48.56,-63.59 48.23,-65.16 47.94,-66.73 47.62,-68.22 47.29,-69.59 46.95,-70.91 46.6,-72.35 46.11,-74.08 45.28,-75.67" fill="none" stroke="rgb(255, 0, 255)" stroke-width="2" stroke-linejoin="round" filter="url(#fuzzy)" /><polyline points="52.15,-49.97 52.02,-50.48 51.84,-51.7 51.54,-53.15 51.09,-54.55 50.6,-55.86 50.19,-57.11 49.87,-58.34 49.57,-59.56 49.22,-60.8 48.79,-62.09 48.35,-63.44 47.94,-64.88 47.58,-66.37 47.28,-67.87 46.98,-69.34 46.64,-70.77 46.21,-72.19 45.67,-73.67 45.08,-75.3 44.58,-77.16 44.3,-79.53 50.07,-89.88 50.36,-87.16 50.94,-85.12 51.23,-82.74 51.14,-80.06 50.78,-77.26 50.28,-74.44 49.78,-71.68 49.41,-69.11 49.26,-66.81 49.34,-64.82 49.58,-63.13 49.9,-61.67 50.25,-60.38 50.62,-59.21 51.06,-58.1 51.56,-56.93 52,-55.55 52.23,-53.89 52.21,-52.1 52.17,-50.63 52.15,-49.97 52.15,-49.97 52.41,-50.86 53.26,-53.13 54.22,-55.93 54.93,-58.68 55.18,-60.93 54.89,-62.39 54.18,-63.22 53.33,-63.85 52.63,-64.77 52.18,-66.16 51.91,-67.91 51.68,-69.76 51.45,-71.61 51.33,-73.58 51.49,-75.79 52.05,-77.94 53.42,-80.52 42.26,-85.1 42.8,-85.47 43.48,-84.3 43.92,-82.33 44.22,-80.03 44.52,-77.77 44.9,-75.69 45.36,-73.88 45.89,-72.34 46.45,-71.03 47,-69.83 47.45,-68.55 47.76,-67.06 47.93,-65.34 48.05,-63.49 48.29,-61.78 48.73,-60.44 49.33,-59.51 49.84,-58.75 49.98,-57.63 49.74,-55.88 49.7,-54.33 49.7,-54.33 51.28,-53.16 52.4,-52.43 53.26,-51.53 54.01,-50.49 54.67,-49.43 55.27,-48.5 55.92,-47.74 56.81,-47.18 58.09,-46.8 59.8,-46.61 61.81,-46.55 63.83,-46.42 65.5,-45.99 66.67,-45.2 67.5,-44.27 68.47,-43.49 70.45,-42.78" fill="none" stroke="rgb(255, 0, 255)" stroke-width="2" stroke-linejoin="round" filter="url(#fuzzy)" /><polyline points="59.38,-36.06 58.69,-37.3 58.29,-38.25 57.87,-39.26 57.36,-40.33 56.78,-41.41 56.2,-42.47 55.66,-43.53 55.18,-44.58 54.78,-45.58 54.41,-46.54 54,-47.48 53.51,-48.48 52.91,-49.55 52.28,-50.68 51.66,-51.86 51.08,-53.14 50.42,-54.5 49.41,-55.23" fill="none" stroke="rgb(255, 0, 255)" stroke-width="2" stroke-linejoin="round" filter="url(#fuzzy)" /><polyline points="52.54,-29.17 52.6,-30.61 52.64,-31.99 52.67,-33.28 52.69,-34.51 52.64,-35.73 52.5,-36.95 52.29,-38.16 52.04,-39.35 51.74,-40.48 51.39,-41.52 51,-42.48 50.62,-43.44 50.31,-44.49 50.1,-45.73 49.98,-47.16 49.88,-48.72 49.72,-50.29 49.4,-51.75 48.88,-53 48.18,-53.97 47.44,-54.68 46.91,-55.27 47,-56.26 47.71,-58.07 56.5,-42.75 55.92,-43.99 55.3,-45.35 54.81,-46.25 54.36,-46.97 53.87,-47.79 53.31,-48.79 52.71,-49.92 52.07,-51.09 51.42,-52.26 50.74,-53.42 50.06,-54.53 49.42,-55.57 48.88,-56.48 48.45,-57.27 48.04,-57.99 47.4,-58.85 46.25,-60.28 45.49,-61.61 47.02,-61 49.44,-61.65 51.44,-62.31 52.69,-62.37 53.45,-61.82 54.01,-60.81 54.58,-59.57 55.35,-58.37 56.44,-57.42 57.89,-56.8 59.65,-56.45 61.64,-56.34 63.86,-56.58 66.3,-57.34 68.8,-58.41 70.71,-58.43 71.22,-54.92 41.15,-92.23 42.55,-91.76 43.05,-90.24 43.15,-88.35 43.03,-86.05 42.91,-83.51 42.95,-81.06 43.26,-78.93 43.8,-77.16 44.44,-75.59 45.04,-74.01 45.53,-72.4 45.95,-70.91 46.32,-69.58 46.4,-67.86 45.77,-64.87 44.77,-62.31" fill="none" stroke="rgb(255, 0, 255)" stroke-width="2" stroke-linejoin="round" filter="url(#fuzzy)" /><polyline points="42.7,-65.61 44.39,-63.56 45.82,-63.31 47.54,-63.68 49.24,-63.89 50.64,-63.7 51.78,-63.28 52.96,-62.97 54.44,-62.99 56.27,-63.26 58.26,-63.53 60.15,-63.5 61.72,-63.01 62.95,-62.07 63.99,-60.87 64.99,-59.62 66,-58.56 66.92,-58 67.92,-58.43 69.28,-59.52 22.09,-72.35 22.64,-72.71 23.79,-73 24.9,-73.13 25.85,-73.18 26.74,-73.1 27.64,-72.85 28.56,-72.42 29.48,-71.9 30.4,-71.37 31.29,-70.89 32.17,-70.52 33.05,-70.28 33.95,-70.14 34.86,-70.03 35.78,-69.87 36.69,-69.53 37.57,-68.97 38.4,-68.15 39.14,-67.07 39.79,-65.78 40.41,-64.46 41.15,-63.62 42.13,-64 42.7,-65.61 45.39,-43.38 45.46,-45.15 45.02,-46.32 44.67,-47.71 44.64,-49.37 44.81,-51.07 44.99,-52.62 45.06,-53.99 44.96,-55.3 44.71,-56.61 44.27,-57.84 43.65,-58.82 42.92,-59.64 42.38,-60.77 42.43,-62.78 43.29,-64.49 25.67,-80.74 27.46,-79.53 28.15,-79.07 28.78,-78.65 29.58,-78.09 30.51,-77.4 31.46,-76.64 32.37,-75.88 33.22,-75.15 34,-74.48 34.73,-73.86 35.43,-73.28 36.11,-72.69 36.8,-72.06 37.53,-71.34 38.31,-70.53 39.13,-69.64 39.98,-68.69 40.87,-67.67 41.84,-66.5 43.08,-64.94" fill="none" stroke="rgb(255, 0, 255)" stroke-width="2" stroke-linejoin="round" filter="url(#fuzzy)" /><polyline points="43.08,-64.94 42,-66.75 41.46,-68.67 41.22,-70.86 40.97,-72.94 40.59,-74.74 40.23,-76.5 40.06,-78.52 40.12,-80.83 40.22,-83.15 40.15,-85.18 39.82,-86.9 39.38,-88.71 39.07,-91.2 39,-94.72 38.94,-98.81 38.34,-101.95 37.03,-102.03" fill="none" stroke="rgb(255, 0, 255)" stroke-width="2" stroke-linejoin="round" filter="url(#fuzzy)" /><polyline points="40.75,-68.1 41.7,-66.99 42.6,-66.11 43.4,-65.54 44.27,-65.14 45.23,-64.79 46.24,-64.38 47.25,-63.84 48.22,-63.17 49.13,-62.4 49.94,-61.59 50.59,-60.76 51.11,-59.89 51.61,-58.95 52.27,-57.94 53.18,-56.9 54.25,-55.91 54.92,-55.21 40.04,-68.93 40.88,-68.16 41.78,-67.2 42.67,-66.43 43.48,-65.8 44.22,-65.14 44.94,-64.4 45.7,-63.62 46.52,-62.83 47.37,-62.03 48.24,-61.25 49.08,-60.53 49.91,-59.87 50.72,-59.25 51.54,-58.59 52.38,-57.79 53.27,-56.84 54.2,-55.83 55.1,-54.92 55.91,-54.25 56.73,-54.36 40.77,-45.57 40.5,-46.82 40.9,-48.28 41.55,-50.12 41.92,-51.92 41.79,-53.34 41.25,-54.36 40.65,-55.3 40.32,-56.56 40.38,-58.32 40.69,-60.38 40.93,-62.32 40.77,-63.78 40.08,-64.68 39.05,-65.24 38.24,-66.23 38.96,-69.93" fill="none" stroke="rgb(255, 0, 255)" stroke-width="2" stroke-linejoin="round" filter="url(#fuzzy)" /><polyline points="14.63,-70.39 15.8,-71.15 17.05,-71.6 18.3,-72.14 19.47,-72.8 20.53,-73.44 21.49,-73.93 22.39,-74.25 23.28,-74.45 24.19,-74.55 25.1,-74.59 26.02,-74.53 26.92,-74.38 27.84,-74.14 28.78,-73.78 29.73,-73.33 30.67,-72.81 31.61,-72.3 32.54,-71.91 33.46,-71.69 34.31,-71.55 35.03,-71.38 35.82,-71.31 37.47,-71.53" fill="none" stroke="rgb(255, 0, 255)" stroke-width="2" stroke-linejoin="round" filter="url(#fuzzy)" /><polyline points="36.28,-73.06 36.21,-75.11 35.88,-76.74 35.03,-77.38 34.07,-77.95 33.21,-78.95 32.46,-80.35 31.78,-81.84 31.1,-83.18 30.42,-84.32 29.74,-85.38 29.05,-86.48 28.37,-87.66 27.73,-88.86 27.15,-90.01 26.59,-91.11 25.98,-92.12 25.34,-93.05 24.85,-94.07" fill="none" stroke="rgb(255, 0, 255)" stroke-width="2" stroke-linejoin="round" filter="url(#fuzzy)" /><polyline points="35.49,-73.68 34.78,-74.52 34.03,-75.41 33.35,-76.59 32.66,-77.94 31.9,-79.25 31.13,-80.5 30.44,-81.84 29.9,-83.46 29.49,-85.44 29.17,-87.72 28.89,-90.12 28.57,-92.43 28.17,-94.52 27.64,-96.3 26.94,-97.8 26.08,-99.09 25.07,-100.27 24,-101.51 22.95,-102.97 21.98,-104.76 21.08,-106.81 20.17,-108.88 19.4,-110.79 19.77,-113.42 34.73,-74.19 35.37,-73.66 35.89,-73.15 36.47,-72.54 37.15,-71.81 37.91,-70.96 38.72,-70.02 39.53,-69.04 40.34,-68.02 41.11,-67 41.83,-66.01 42.51,-65.06 43.16,-64.13 43.79,-63.21 44.43,-62.28 45.07,-61.31 45.72,-60.3 46.36,-59.27 46.95,-58.25 47.48,-57.3 47.95,-56.42 48.4,-55.55 48.94,-54.54 49.67,-53.24 50.77,-51.38 33.58,-75.26 33.11,-76.08 32.37,-77.24 31.53,-78.5 30.75,-79.83 30.11,-81.2 29.53,-82.48 28.9,-83.55 28.16,-84.34 27.34,-84.9 26.48,-85.31 25.64,-85.69 24.83,-86.15 24.01,-86.79 23.16,-87.69 22.28,-88.91 21.4,-90.42 20.55,-92.03 19.75,-93.43 18.92,-94.45 17.64,-95.8 33.25,-75.63 33.82,-75.17 34.53,-74.55 35.22,-73.99 35.85,-73.46 36.49,-72.91 37.19,-72.28 37.97,-71.58 38.83,-70.84 39.73,-70.04 40.65,-69.19 41.54,-68.28 42.38,-67.35 43.12,-66.5 43.77,-65.82 44.52,-65.09 46.12,-63.14" fill="none" stroke="rgb(255, 0, 255)" stroke-width="2" stroke-linejoin="round" filter="url(#fuzzy)" /><polyline points="15.75,-98.2 15.61,-96.78 16.02,-95.82 16.63,-94.85 17.4,-93.85 18.25,-92.81 19.16,-91.77 20.12,-90.77 21.13,-89.88 22.17,-89.17 23.21,-88.61 24.18,-88.12 25.06,-87.56 25.83,-86.86 26.53,-86.01 27.22,-85.04 27.89,-83.96 28.51,-82.81 29.07,-81.62 29.66,-80.54 30.49,-79.74 31.6,-78.97 32.02,-76.75 29.15,-79.03 30.42,-76.9 30.94,-74.64 31.35,-72.78 31.89,-71.52 32.53,-70.72 33.19,-70.14 33.78,-69.52 34.24,-68.65 34.54,-67.4 34.73,-65.79 34.89,-63.98 35.09,-62.15 35.39,-60.49 35.83,-59.06 36.37,-57.91 36.91,-57 37.34,-56.19 37.61,-55.03 38.16,-52.25 29.15,-79.03 28.49,-78.65 27.62,-77.84 26.64,-77.32 25.63,-77.18 24.67,-77.21 23.78,-77.23 22.92,-77.22 22.07,-77.28 21.21,-77.46 20.31,-77.76 19.37,-78.11 18.39,-78.4 17.4,-78.55 16.39,-78.45 15.38,-78.02 14.36,-77.23 13.39,-76.11 12.51,-74.87 11.73,-73.82 10.94,-73.22 9.51,-72.26" fill="none" stroke="rgb(255, 0, 255)" stroke-width="2" stroke-linejoin="round" filter="url(#fuzzy)" /><polyline points="28.83,-79.43 28.9,-81.47 29.17,-84.66 28.74,-86.73 27.91,-87.63 27.08,-88.23 26.4,-89.21 25.86,-90.79 25.37,-92.95 24.85,-95.51 24.23,-98.1 23.44,-100.22 22.46,-101.54 21.34,-102.26 20.25,-103.08 19.33,-104.73 18.7,-107.34 18.32,-110.45 17.71,-114.64 24.94,-81.9 24.59,-81.31 23.87,-80.89 23.01,-80.76 22.05,-80.74 21.02,-80.89 20,-81.26 18.99,-81.71 17.99,-82 16.99,-82 15.99,-81.75 15.03,-81.36 14.15,-80.89 13.37,-80.26 12.61,-79.42 11.74,-78.62 10.29,-78.19 24.67,-82.22 25.05,-82.21 25.91,-82.62 27.21,-83.32 28.56,-84 29.81,-84.53 31.07,-85.03 32.5,-85.72 34.16,-86.64 35.96,-87.72 37.78,-88.76 39.51,-89.61 41.08,-90.22 42.48,-90.58 43.76,-90.8 45.03,-91.01 46.43,-91.37 48.1,-91.96 49.96,-92.55 51.76,-92.59 53.83,-92.69" fill="none" stroke="rgb(255, 0, 255)" stroke-width="2" stroke-linejoin="round" filter="url(#fuzzy)" /><polyline points="24.67,-82.22 25.07,-82.28 25.89,-82.6 26.92,-82.6 27.84,-82.12 28.59,-81.32 29.29,-80.42 30.07,-79.6 30.98,-78.91 31.99,-78.34 33.04,-77.85 34.05,-77.42 35.01,-77.01 35.9,-76.63 36.73,-76.3 37.55,-75.99 38.37,-75.62 39.22,-75.11 40.13,-74.42 41.11,-73.57 42.17,-72.61" fill="none" stroke="rgb(255, 0, 255)" stroke-width="2" stroke-linejoin="round" filter="url(#fuzzy)" /><polyline points="23.19,-82.89 22.38,-82.51 21.31,-82.48 20.21,-82.93 19.16,-83.48 18.17,-83.93 17.24,-84.29 16.34,-84.57 15.49,-84.78 14.7,-84.9 13.93,-84.91 13.13,-84.84 12.24,-84.71 11.21,-84.56 10.09,-84.35 8.96,-84.08 7.85,-84.01 20.01,-84.63 19.12,-85.6 18.47,-86.91 17.73,-87.86 16.89,-88.51 16.09,-89.22 15.4,-90.26 14.78,-91.63 14.12,-93.07 13.3,-94.3 12.28,-95.22 11.13,-96.07 9.94,-97.19 8.79,-98.71 7.71,-100.22 6.7,-101.24 5.42,-102.54 18.83,-85.09 18.11,-85.75 17.4,-86.73 16.63,-87.88 15.92,-89.15 15.29,-90.49 14.64,-91.83 13.89,-93.08 12.99,-94.21 11.97,-95.24 10.87,-96.29 9.77,-97.54 8.74,-99.21 7.84,-101.53 7.1,-104.57 6.48,-108.12 5.88,-111.62 5.16,-114.41 4.24,-116.16 3.1,-117.22 1.88,-118.44 0.66,-120.3" fill="none" stroke="rgb(255, 0, 255)" stroke-width="2" stroke-linejoin="round" filter="url(#fuzzy)" /><polyline points="17.9,-85.62 17.02,-90.13 16.09,-91.11 15.38,-91.71 14.65,-92.16 13.78,-92.43 12.75,-92.68 11.63,-93.1 10.48,-93.8 9.38,-94.79 8.36,-96.04 7.46,-97.46 6.68,-99 5.96,-100.66 5.27,-102.48 4.51,-104.55 3.64,-106.89 2.63,-109.29 1.48,-111.28 0.19,-112.41 -1.26,-113.04 -2.77,-115.35 13.51,-87.46 13.12,-87.31 12.05,-87.46 10.87,-87.71 9.69,-87.99 8.58,-88.25 7.56,-88.48 6.68,-88.63 5.91,-88.71 5.24,-88.73 4.57,-88.7 3.86,-88.66 3.06,-88.62 2.17,-88.61 1.19,-88.6 0.14,-88.57 -0.99,-88.48 -2.12,-88.26" fill="none" stroke="rgb(255, 0, 255)" stroke-width="2" stroke-linejoin="round" filter="url(#fuzzy)" /><polyline points="35.36,-101.67 34.72,-99.97 33.24,-100.11 31.89,-100.37 30.59,-99.84 29.25,-98.73 27.86,-97.5 26.43,-96.32 24.92,-95.13 23.35,-93.86 21.78,-92.67 20.33,-91.83 19.07,-91.55 18,-91.84 17.09,-92.49 16.32,-93.25 15.66,-94.04 15.07,-94.81 14.16,-94.39 11.54,-87.74" fill="none" stroke="rgb(255, 0, 255)" stroke-width="2" stroke-linejoin="round" filter="url(#fuzzy)" /><polyline points="11.54,-87.74 12.97,-86.98 13.64,-86.06 14.14,-85.09 14.72,-84.28 15.42,-83.65 16.23,-83.11 17.09,-82.6 18.01,-82.11 18.96,-81.6 19.92,-80.97 20.8,-80.11 21.53,-79 22.11,-77.72 22.55,-76.49 22.85,-75.59 22.87,-75.11 23.91,-64.83 23.89,-66.02 23.77,-67.12 23.47,-68.34 23.07,-69.74 22.66,-71.23 22.29,-72.73 21.94,-74.25 21.54,-75.78 21.06,-77.29 20.45,-78.66 19.7,-79.75 18.82,-80.46 17.86,-80.85 16.89,-81.11 15.99,-81.52 15.2,-82.23 14.54,-83.16 13.92,-83.95 13.25,-84.35 12.44,-84.71 11.55,-86.1 10.7,-88.13" fill="none" stroke="rgb(255, 0, 255)" stroke-width="2" stroke-linejoin="round" filter="url(#fuzzy)" /><polyline points="9.49,-88.29 8.29,-89.16 7.3,-91.04 6.59,-93.41 6.01,-95.04 5.41,-95.68 4.73,-96.04 3.95,-96.93 3.07,-98.63 2.07,-100.84 0.96,-102.98 -0.28,-104.64 -1.66,-105.78 -3.17,-106.65 -4.75,-107.77 -6.13,-109.84 -6.45,-112.95" fill="none" stroke="rgb(255, 0, 255)" stroke-width="2" stroke-linejoin="round" filter="url(#fuzzy)" /><polyline points="23.64,-77.41 23.17,-78.2 22.47,-78.99 21.66,-79.68 20.75,-80.33 19.78,-81.01 18.83,-81.76 17.92,-82.57 17.07,-83.38 16.26,-84.11 15.47,-84.7 14.7,-85.12 13.91,-85.41 13.09,-85.64 12.19,-85.93 11.21,-86.37 10.16,-86.94 9.06,-87.55 7.94,-88.11 6.88,-88.56 5.91,-88.95 4.72,-89.32 3.91,-88.99 4.4,-89.19 4.94,-89.31 5.49,-89.43 6.16,-89.53 7.01,-89.63 8.02,-89.78 9.16,-89.99 10.37,-90.32 11.61,-90.79 12.81,-91.43 13.93,-92.17 14.96,-92.9 15.92,-93.52 16.89,-94 17.97,-94.49 19.18,-95.24 20.37,-96.34 21.54,-97.35" fill="none" stroke="rgb(255, 0, 255)" stroke-width="2" stroke-linejoin="round" filter="url(#fuzzy)" /><polyline points="1.52,-89.32 2.41,-89.16 3.34,-89.04 4.11,-88.82 4.75,-88.4 5.34,-87.77 5.97,-86.98 6.71,-86.14 7.57,-85.38 8.55,-84.78 9.58,-84.32 10.6,-83.9 11.54,-83.37 12.36,-82.65 13.05,-81.76 13.66,-80.79 14.27,-79.84 14.95,-78.93 15.67,-78.06 16.3,-77.16 16.78,-75.84" fill="none" stroke="rgb(255, 0, 255)" stroke-width="2" stroke-linejoin="round" filter="url(#fuzzy)" />
    </g>
    
        <g id="pointNose">
          <g id="rightNose"><circle r="1.148" cx="8.648" cy="27.014" stroke="black" fill="none" stroke-width="1.0" filter="url(#fuzzy)" /><circle r="2.4219999999999997" cx="8.964" cy="28.593999999999998" stroke="black" fill="none" stroke-width="1.0" filter="url(#fuzzy)" /><circle r="2.442" cx="7.279999999999999" cy="28.198" stroke="black" fill="none" stroke-width="1.0" filter="url(#fuzzy)" /><circle r="2.4699999999999998" cx="5.8839999999999995" cy="28.374" stroke="black" fill="none" stroke-width="1.0" filter="url(#fuzzy)" /><circle r="1.502" cx="7.443999999999999" cy="27.93" stroke="black" fill="none" stroke-width="1.0" filter="url(#fuzzy)" /><circle r="1.708" cx="6.916" cy="29.782" stroke="black" fill="none" stroke-width="1.0" filter="url(#fuzzy)" /><circle r="1.022" cx="7.776" cy="28.278" stroke="black" fill="none" stroke-width="1.0" filter="url(#fuzzy)" /><circle r="2.214" cx="6.6" cy="26.962" stroke="black" fill="none" stroke-width="1.0" filter="url(#fuzzy)" /><circle r="1.6219999999999999" cx="9.576" cy="27.142" stroke="black" fill="none" stroke-width="1.0" filter="url(#fuzzy)" /><circle r="2.124" cx="7.696" cy="27.977999999999998" stroke="black" fill="none" stroke-width="1.0" filter="url(#fuzzy)" /></g>
          <g id="leftNose"><circle r="1.5979999999999999" cx="-8.948" cy="20.72" stroke="black" fill="none" stroke-width="1.0" filter="url(#fuzzy)" /><circle r="2.2199999999999998" cx="-7.628" cy="21.948" stroke="black" fill="none" stroke-width="1.0" filter="url(#fuzzy)" /><circle r="2.956" cx="-8.596" cy="22.392" stroke="black" fill="none" stroke-width="1.0" filter="url(#fuzzy)" /><circle r="1.148" cx="-10.264" cy="22.112" stroke="black" fill="none" stroke-width="1.0" filter="url(#fuzzy)" /><circle r="2.9939999999999998" cx="-8.5" cy="21.311999999999998" stroke="black" fill="none" stroke-width="1.0" filter="url(#fuzzy)" /><circle r="2.9139999999999997" cx="-9.404" cy="24.028" stroke="black" fill="none" stroke-width="1.0" filter="url(#fuzzy)" /><circle r="2.692" cx="-7.72" cy="22.96" stroke="black" fill="none" stroke-width="1.0" filter="url(#fuzzy)" /><circle r="1.036" cx="-7.9239999999999995" cy="22.264" stroke="black" fill="none" stroke-width="1.0" filter="url(#fuzzy)" /><circle r="1.708" cx="-7.688" cy="22.964" stroke="black" fill="none" stroke-width="1.0" filter="url(#fuzzy)" /><circle r="1.6019999999999999" cx="-9.28" cy="21.488" stroke="black" fill="none" stroke-width="1.0" filter="url(#fuzzy)" /></g>
        </g>
      
    <g id="mouth">
      <polyline points="8.15,56.67 8.35,58.38 8.33,59.09 8.31,58.09 8.2,58.98 8.25,59.17 8.07,60.39 7.85,61.61 7.75,62.13 7.86,61.98 7.58,62.53 7.39,63.37 7.17,63.9 6.79,64.74 6.34,65.42 6.24,65.6 6.5,64.99 5.42,66.9 5.48,66.78 5.15,67.26 4.89,67.58 4.06,68.5 4.45,68.08 4.04,68.55 3.92,68.71 2.98,69.59 2.34,70.28 1.57,70.84 1.72,70.72 0.54,71.63 -0.73,72.47 0.32,71.78 -1.95,73.25 -2.18,73.28 -2.58,73.5 -2.92,73.7 -3.37,73.91 -5.18,74.71 -4.03,74.22 -4.86,74.57 -6.13,75.06 -6.52,75.21 -7.17,75.42 -8.85,75.87 -9.28,75.98 -8.82,75.87 -10.66,76.27 -10.42,76.22 -12.15,76.5 -12.71,76.57 -13.84,76.68 -13.68,76.67 -13.75,76.67 -14.68,76.73 -16.16,76.77 -16.24,76.78 -17.96,76.71 -17.85,76.73 -19.28,76.62 -20.51,76.49 -20.9,76.41 -20.57,76.49 -21.33,76.32 -22.65,76.05 -22.18,76.2 -24.01,75.72 -23.28,75.94 -25.23,75.31 -24.85,75.52 -27.29,74.63 -25.94,75.16 -28,74.24 -28.52,73.95 -29.27,73.67 -29.48,73.44 -28.75,73.81 -30.01,73.22 -29.85,73.18 -30.64,72.75 -31.54,72.04 -31.66,72.03 -32.52,71.28 -33.75,70.23 -32.94,70.85 -34.33,69.5 -34.33,69.48 -34.47,69.32 -35.05,68.74 -35.54,67.98 -36.1,67.21 -35.52,68.09 -36.08,67.16 -36.02,67.13 -36.27,66.64 -37.12,65.05 -37.07,65.02 -37.42,63.68 -37.14,64.64 -37.56,62.79 -37.78,62.28 -37.71,62.25 -37.6,62.55 -37.72,61.86 -37.73,61.15 -37.71,59.94 -37.65,59.23 -37.64,59.21 -37.55,58.17 -37.29,57.13 -37.23,56.78 -37.37,57.26 -37.35,57.07 -37.13,56.53 -36.45,54.86 -36.12,54.49 -35.91,53.99 -35.44,53.32 -35.52,53.46 -34.63,52.04 -35.13,52.79 -34.5,51.99 -34.49,51.83 -33.09,50.2 -33.57,50.75 -33.18,50.31 -31.75,49.04 -31.84,49.15 -30.86,48.34 -30.17,47.83 -29.27,47.21 -29.24,47.2 -30.39,47.91 -28.92,46.95 -28.25,46.59 -27.23,45.96 -27.89,46.35 -25.92,45.35 -25.46,45.15 -25.97,45.4 -24.55,44.78 -23.92,44.53 -22.4,44.02 -21.9,43.87 -22.15,43.98 -20.82,43.6 -19.79,43.35 -20.05,43.42 -18.88,43.16 -17.51,42.95 -16.74,42.85 -16.27,42.8 -15.87,42.76 -16.2,42.79 -15.51,42.73 -13.53,42.65 -12.26,42.65 -12.54,42.66 -12.34,42.64 -9.7,42.84 -11.3,42.71 -9.08,42.89 -8.26,43.04 -8.94,42.95 -6.39,43.39 -5.24,43.67 -5.35,43.69 -5.57,43.57 -4.67,43.89 -5.02,43.77 -3.03,44.39 -2.59,44.55 -2.07,44.81 -1.33,45.07 -0.69,45.46 -1.04,45.29 0.14,45.87 -0.09,45.79 1.79,46.98 2.79,47.69 1.92,47 2.94,47.86 3.09,47.86 3.96,48.64 3.96,48.8 4.55,49.35 4.98,49.78 5.81,50.79 5.82,50.97 6.02,51.13 5.75,50.87 6.1,51.33 7.28,53.34 7.25,53.37 6.99,52.76 7.35,53.74 7.62,54.06 7.94,55.23 8.01,55.76 7.88,55.46 8.35,57.65" fill="rgb(215,127,140)" stroke="black" stroke-width="3" stroke-linejoin="round" filter="url(#fuzzy)" />
    </g>
  </svg>