<svg xmlns="http://www.w3.org/2000/svg" width="500" height="500" viewBox="-100 -100 200 200"><defs><clipPath id="c"><path d="m28.77-5.43-.25-.16-.29-.16-.33-.14-.36-.14-.4-.14-.43-.12-.46-.12-.49-.11-.52-.11-.55-.1-.57-.09-.6-.09-.62-.08-.64-.08-.66-.07-.73-.08-.75-.08-.79-.06-.81-.07-.84-.06-.85-.05-.88-.05-.9-.05-.91-.04-.92-.04-.93-.04-.94-.03-.94-.03-.95-.02-.95-.02-.94-.02-.95-.01-.93-.01-.93-.01-.92-.01H1.17l-.86.01h-.85l-.82.01-.8.01-.78.02-.76.01-.73.02-.71.02-.69.02-.66.03-.63.02-.61.03-.59.03-.55.03-.54.03-.5.04-.48.03-.46.04-.44.03-.41.04-.39.04-.36.04-.35.05-.33.04-.31.05-.3.04-.28.05-.26.05-.25.05-.23.05-.22.05-.21.05-.19.05-.18.06-.17.06-.16.05-.14.06-.14.06-.12.06-.12.07-.11.06.07 5.81.17.31.19.31.19.31.2.32.21.31.22.31.23.32.24.31.25.31.26.31.27.31.29.3.29.31.31.29.33.29.33.29.35.29.37.29.38.27.4.27.42.27.43.25.46.24.48.23.49.22.52.21.54.18.56.18.59.15.61.14.62.12.65.1.68.09.69.06.71.04.74.02h.75l.77-.03.8-.04.8-.07.83-.09.84-.11.85-.13.86-.15.88-.17.88-.19.89-.21.9-.23.9-.24.9-.26.91-.28.9-.3.9-.3.89-.32.88-.33.87-.34.87-.35.84-.36.83-.36.81-.36.79-.37.77-.37.74-.37.72-.37.64-.32.62-.31.6-.31.58-.32.56-.31.54-.31.51-.31.48-.3.46-.3.42-.3.4-.29.36-.29.33-.28.29-.27.26-.26"/></clipPath><clipPath id="b"><path d="m-29.49-3.76.22-.11.25-.11.29-.11.32-.1.35-.1.39-.09.42-.09.45-.08.47-.08.51-.08.53-.07.56-.07.58-.06.61-.07.63-.05.65-.07.69-.06.72-.06.75-.05.79-.05.82-.05.84-.04.87-.05.88-.04.91-.03.93-.04.93-.03.95-.02.96-.03.97-.02.97-.02.97-.02.97-.01.97-.02.96-.01h.96l.94-.01H.13l.87.01.85.01.83.01.8.01.78.01.76.01.73.02.71.02.68.02.66.02.63.02.6.02.57.03.55.02.53.03.5.03.47.03.45.02.43.03.41.04.38.03.37.03.34.03.34.03.31.04.3.03.28.03.26.04.25.03.24.04.22.04.21.03.19.04.18.04.17.04.16.03.14.04.14.04.18 4.22-.17.22-.18.22-.18.22-.19.21-.2.23-.21.22-.22.22-.24.22-.24.22-.25.22-.27.21-.28.22-.29.21-.3.21-.32.21-.33.21-.34.21-.37.2-.37.2-.4.2-.41.19-.44.19-.45.18-.47.17-.5.16-.51.16-.54.14-.56.14-.59.12-.6.11-.63.1-.65.09-.67.08-.7.06-.71.04-.74.04-.76.02h-.77l-.8-.01-.81-.03-.83-.04-.84-.05-.86-.07-.87-.09-.88-.1-.9-.11-.9-.13-.9-.14-.92-.15-.91-.17-.92-.18-.91-.19-.92-.2-.9-.22-.91-.22-.89-.23-.88-.24-.87-.24-.86-.25-.83-.26-.82-.26-.8-.27-.78-.26-.75-.27-.68-.22-.66-.22-.64-.22-.63-.22-.61-.22-.58-.22-.57-.22-.54-.22-.52-.22-.49-.22-.47-.21-.44-.21-.41-.2-.38-.21-.34-.19"/></clipPath><filter id="a"><feTurbulence baseFrequency=".05" numOctaves="3" result="noise" type="noise"/><feDisplacementMap in="SourceGraphic" in2="noise" scale="2"/></filter></defs><rect width="100%" height="100%" x="-100" y="-100" fill="#F2A6D6"/><path fill="#20DF66" stroke="#000" stroke-linejoin="round" stroke-width="1.667" d="m56.57 1.27-.09-.42-.06 1.47h.02l.07 1.63-.16 2.97-.01.44-.2 2.52.1-.71-.01 1.4-.15.48-.1 2.31-.33 2.45-.19 1.06.03.54-.77 3.46.02-.15-.35 2.57-.06.22.1.31-.69 3.34-.3.27-.19 1.77-.46 1.21-.08.37-.93 3.54.35-1.28-.73 2.57-.48 1.67.4-1.08-1.1 2.95.37-1-1.48 3.83.38-.45-.57 1.71-.86 1.51-.52 1.06.18.18-1.31 2.59.4-.87-.33.94-.47 1.06-1.94 3.84-.68.84.66-.77-.77.9-.9 1.47-.81 1.5.47-.29-1.57 1.93-.39 1.16-.94 1.01.02.02-1.88 2.7-.03-.04-.8 1.14-.53.37-1.06 1.56-.3-.02-.11.52-.87 1.1-2.09 1.74.25.14-.17-.01-1.22 1.41-1 .57-.73 1.15-.41.26-.77.24-1.49 1.63.59-.82-1.57 1.48-1.4.83-1.41.95 1.01-.68-1.63.99-.46.59-1.57.69-.22.12-.18.15-1.91.84-.12-.07-1.35.97-.06-.09-1.21.5-1.92.85.56-.35-2.69.87.48-.14-1.44.54-.76.05h-.47l-1.89.51-1.65.33 1.93-.4-1.01.16-2.08.07-.87.26.51-.07-2.12.17-1.45.19.48-.31-2.56.2.78-.22-1.92.11-1.36-.21.37.06-1.56-.2-1.69-.43.46.18-.97-.23-1.5-.58-1.09-.28-.37-.15-.28-.07-1.98-.49-.84-.51.04.04-1.05-.38-1.11-.53-1.63-.47.1-.07-.89-.62-.14-.09-1.35-.6-2.5-1.5.64.47-1.74-1.57.21.25-.05.17-1.56-1.27-1.45-1.21-.04.03-.47-.34-.83-.8-1.22-.87-.83-.67-.64-.64-.84-.84-.26-.35-1.23-1.55-.32-.23-1.04-1.51-1.14-1.27-.25.08-1.25-1.81-.73-.92-.48-.48-.36-.91-.66-.84-.83-.94-.02-.12-1.14-2.07-.1.04-1.34-2.21.62.91-.32-.8-1.39-1.98-.81-1.84.27.35-.42-.63-.73-1.33-1.19-2.46-.07-.37-1.51-3.23.05-.25.42 1.42-1.47-3.94.23.33-1.2-3.23.13.19-.51-1.58-.75-2.61.44 1.76-.24-1.04-1.44-4.36.07.34-.1.01-.26-1.59-.46-2.47-.08-.54-.33-1.58-.55-1.85.15.67-.42-2.13-.43-3.38-.16-1.29.02 1.29.06-.41-.41-3.5-.02-.38-.39-3.72.14.33-.13-.44-.4-3.4.18 2.14-.14-3.84-.1-1.33-.02-.27-.12-.23.07-3.15.01.05-.08-1.68v-.67l.34-2.8.04-3.35-.02.54.19-.92.17-2.95-.1.57.3-2.56.06-.2.1-1.9.13-.4.25-2.21.36-2.44.01-.11.17-.78.44-2.63-.06-.06.58-2.86.24-1.04.23-.1.67-2.5.08-.42.47-1.85.64-2.23-.26.73.17-.99 1.04-3.14-.16.57.53-1.87.25-.19.46-1.56 1.39-3-.14.28.37-1.3.37-.33.09-.44 1.51-3.61.37-.55-.43.77.93-1.59.01-.26 1.57-2.65.9-1.76.12-.34.78-.98.52-1.23.02-.1.9-1.05 1.1-1.73.71-.9-.11.16.67-1.17 1.34-1.81.46-.46-.71.85 1.64-1.7.18-.34 1.84-2.15 1.55-1.68-.99 1.21 1.53-1.56-.34.2 2.03-2.09 1.24-.9-.71.62.86-.76 2.31-2-.62.56 1.58-1.24.11-.1 1.03-.52.32-.21 2.35-1.4-1.36.66 1.1-.76 2.19-.93.72-.72.52-.34.7-.23 1.2-.37.84-.21 1.81-.91-.41.21.56-.21.62-.32.98-.36 2.16-.55-.2.29.67-.46 2.1-.35.51-.16.56.12 1.49-.21-.21.11.88-.18 1.79-.23.95-.11.66.25.39-.24.73.27 1.05.05h.82l.82-.09 1.12.2 2.24.52-1.04-.42 2.39.46-.19.23-.05-.1 1.93.29 1.51.7h.01l1.7.5.84.22-.34.04 1.6.73 1.72.45.13.14 1.77 1.03.12-.14.7.62 1 .57 1.36.94-.18-.34 1.11 1.01.94.44 1.23 1.01.39.19.13.29.95.47 1.58 1.57-.3-.05.76.4.83.62 1.04 1.06 1.56 1.52-.73-.4 2.67 2.74-.36-.3.56.62 1.25 1.42.07-.09 1.54 1.99-.51-.56.8 1.03.37.56 1.37 1.79.69 1.24.2-.04 1.77 2.64.39 1.26.25-.01.7 1.25-.14.1.79 1.16.83 1.92.5.65.46 1.44.83 1.69.04.16.77 1.59-.19-.32.55 1.05.9 2.02.13.42.69 2.03.34 1.21.29.72.76 1.74-.04-.2.16 1.12 1.09 3.57.12-.34.57 2.52-.16.25.55 2.26.59 1.8.07 1.26-.12-.57.36 1.69.27.52.3 1.86.01-.44.46 3.3.33 2.78-.04.84-.01-.33.37 2.59-.05-.69.29 2.61.32 2.69-.18.35-.08-1.2.28 2.77.21 3.19v1.06l-.17-.56.05 3.74-.09-.42" filter="url(#a)"/><path fill="#fff" d="m-29.49-3.76.22-.11.25-.11.29-.11.32-.1.35-.1.39-.09.42-.09.45-.08.47-.08.51-.08.53-.07.56-.07.58-.06.61-.07.63-.05.65-.07.69-.06.72-.06.75-.05.79-.05.82-.05.84-.04.87-.05.88-.04.91-.03.93-.04.93-.03.95-.02.96-.03.97-.02.97-.02.97-.02.97-.01.97-.02.96-.01h.96l.94-.01H.13l.87.01.85.01.83.01.8.01.78.01.76.01.73.02.71.02.68.02.66.02.63.02.6.02.57.03.55.02.53.03.5.03.47.03.45.02.43.03.41.04.38.03.37.03.34.03.34.03.31.04.3.03.28.03.26.04.25.03.24.04.22.04.21.03.19.04.18.04.17.04.16.03.14.04.14.04.18 4.22-.17.22-.18.22-.18.22-.19.21-.2.23-.21.22-.22.22-.24.22-.24.22-.25.22-.27.21-.28.22-.29.21-.3.21-.32.21-.33.21-.34.21-.37.2-.37.2-.4.2-.41.19-.44.19-.45.18-.47.17-.5.16-.51.16-.54.14-.56.14-.59.12-.6.11-.63.1-.65.09-.67.08-.7.06-.71.04-.74.04-.76.02h-.77l-.8-.01-.81-.03-.83-.04-.84-.05-.86-.07-.87-.09-.88-.1-.9-.11-.9-.13-.9-.14-.92-.15-.91-.17-.92-.18-.91-.19-.92-.2-.9-.22-.91-.22-.89-.23-.88-.24-.87-.24-.86-.25-.83-.26-.82-.26-.8-.27-.78-.26-.75-.27-.68-.22-.66-.22-.64-.22-.63-.22-.61-.22-.58-.22-.57-.22-.54-.22-.52-.22-.49-.22-.47-.21-.44-.21-.41-.2-.38-.21-.34-.19" filter="url(#a)" transform="translate(36.8 -22.85)"/><path fill="#fff" d="m28.77-5.43-.25-.16-.29-.16-.33-.14-.36-.14-.4-.14-.43-.12-.46-.12-.49-.11-.52-.11-.55-.1-.57-.09-.6-.09-.62-.08-.64-.08-.66-.07-.73-.08-.75-.08-.79-.06-.81-.07-.84-.06-.85-.05-.88-.05-.9-.05-.91-.04-.92-.04-.93-.04-.94-.03-.94-.03-.95-.02-.95-.02-.94-.02-.95-.01-.93-.01-.93-.01-.92-.01H1.17l-.86.01h-.85l-.82.01-.8.01-.78.02-.76.01-.73.02-.71.02-.69.02-.66.03-.63.02-.61.03-.59.03-.55.03-.54.03-.5.04-.48.03-.46.04-.44.03-.41.04-.39.04-.36.04-.35.05-.33.04-.31.05-.3.04-.28.05-.26.05-.25.05-.23.05-.22.05-.21.05-.19.05-.18.06-.17.06-.16.05-.14.06-.14.06-.12.06-.12.07-.11.06.07 5.81.17.31.19.31.19.31.2.32.21.31.22.31.23.32.24.31.25.31.26.31.27.31.29.3.29.31.31.29.33.29.33.29.35.29.37.29.38.27.4.27.42.27.43.25.46.24.48.23.49.22.52.21.54.18.56.18.59.15.61.14.62.12.65.1.68.09.69.06.71.04.74.02h.75l.77-.03.8-.04.8-.07.83-.09.84-.11.85-.13.86-.15.88-.17.88-.19.89-.21.9-.23.9-.24.9-.26.91-.28.9-.3.9-.3.89-.32.88-.33.87-.34.87-.35.84-.36.83-.36.81-.36.79-.37.77-.37.74-.37.72-.37.64-.32.62-.31.6-.31.58-.32.56-.31.54-.31.51-.31.48-.3.46-.3.42-.3.4-.29.36-.29.33-.28.29-.27.26-.26" filter="url(#a)" transform="translate(-26.86 -25.48)"/><g fill="none" stroke="#000" transform="translate(36.8 -22.85)"><path stroke-linejoin="round" stroke-width="1.667" d="m-29.5-2.28-.19-.17-.14-.17-.1-.17-.06-.15-.02-.15.03-.15.06-.14.11-.13.14-.13.18-.12.22-.11.25-.11.29-.11.32-.1.35-.1.39-.09.42-.09.45-.08.47-.08.51-.08.53-.07.56-.07.58-.06.61-.07.63-.05.65-.07.69-.06.72-.06.75-.05.79-.05.82-.05.84-.04.87-.05.88-.04.91-.03.93-.04.93-.03.95-.02.96-.03.97-.02.97-.02.97-.02.97-.01.97-.02.96-.01h.96l.94-.01H.13l.87.01.85.01.83.01.8.01.78.01.76.01.73.02.71.02.68.02.66.02.63.02.6.02.57.03.55.02.53.03.5.03.47.03.45.02.43.03.41.04.38.03.37.03.34.03.34.03.31.04.3.03.28.03.26.04.25.03.24.04.22.04.21.03.19.04.18.04.17.04.16.03.14.04.14.04.13.04.11.04.11.04.1.04.1.04.08.04.08.04.07.04.07.04.06.04" filter="url(#a)"/><path stroke-linejoin="round" stroke-width="2.222" d="m-30.33-3.36-.04.11v.12l.05.13.09.14.13.15.18.16.2.17.25.18.28.18.32.19.34.19.38.21.41.2.44.21.47.21.49.22.52.22.54.22.57.22.58.22.61.22.63.22.64.22.66.22.68.22.75.27.78.26.8.27.82.26.83.26.86.25.87.24.88.24.89.23.91.22.9.22.92.2.91.19.92.18.91.17.92.15.9.14.9.13.9.11.88.1.87.09.86.07.84.05.83.04.81.03.8.01h.77l.76-.02.74-.04.71-.04.7-.06.67-.08.65-.09.63-.1.6-.11.59-.12.56-.14.54-.14.51-.16.5-.16.47-.17.45-.18.44-.19.41-.19.4-.2.37-.2.37-.2.34-.21.33-.21.32-.21.3-.21.29-.21.28-.22.27-.21.25-.22.24-.22.24-.22.22-.22.21-.22.2-.23.19-.21.18-.22.18-.22.17-.22.16-.21.15-.21.14-.21.14-.21.14-.21.13-.2.12-.2.12-.19.11-.2.11-.19" filter="url(#a)"/><circle cx="3.346" cy="4.841" r="4.046" clip-path="url(#b)" filter="url(#a)"/><circle cx=".921" cy="4.721" r="3.18" clip-path="url(#b)" filter="url(#a)"/><circle cx="3.101" cy=".436" r="4.408" clip-path="url(#b)" filter="url(#a)"/><circle cx="2.196" cy=".871" r="3.51" clip-path="url(#b)" filter="url(#a)"/><circle cx="3.116" cy="4.321" r="4.574" clip-path="url(#b)" filter="url(#a)"/><circle cx="1.261" cy="2.691" r="3.448" clip-path="url(#b)" filter="url(#a)"/><circle cx="4.361" cy="2.811" r="4.162" clip-path="url(#b)" filter="url(#a)"/><circle cx="4.221" cy=".141" r="4.524" clip-path="url(#b)" filter="url(#a)"/><circle cx="5.101" cy="3.296" r="4.842" clip-path="url(#b)" filter="url(#a)"/><circle cx="2.781" cy="4.491" r="3.554" clip-path="url(#b)" filter="url(#a)"/></g><g fill="none" stroke="#000" transform="translate(-26.86 -25.48)"><path stroke-linejoin="round" stroke-width="2.222" d="m28.85-3.29.21-.26.16-.25.11-.24.06-.23.01-.22-.04-.2-.08-.2-.13-.19-.17-.18-.21-.17-.25-.16-.29-.16-.33-.14-.36-.14-.4-.14-.43-.12-.46-.12-.49-.11-.52-.11-.55-.1-.57-.09-.6-.09-.62-.08-.64-.08-.66-.07-.73-.08-.75-.08-.79-.06-.81-.07-.84-.06-.85-.05-.88-.05-.9-.05-.91-.04-.92-.04-.93-.04-.94-.03-.94-.03-.95-.02-.95-.02-.94-.02-.95-.01-.93-.01-.93-.01-.92-.01H1.17l-.86.01h-.85l-.82.01-.8.01-.78.02-.76.01-.73.02-.71.02-.69.02-.66.03-.63.02-.61.03-.59.03-.55.03-.54.03-.5.04-.48.03-.46.04-.44.03-.41.04-.39.04-.36.04-.35.05-.33.04-.31.05-.3.04-.28.05-.26.05-.25.05-.23.05-.22.05-.21.05-.19.05-.18.06-.17.06-.16.05-.14.06-.14.06-.12.06-.12.07-.11.06-.1.06-.09.07-.08.06-.07.07-.07.07-.07.07-.05.07-.05.07-.05.07-.04.08" filter="url(#a)"/><path stroke-linejoin="round" stroke-width="2.222" d="m29.03-5.24.2.15.15.16.09.17.04.19v.2l-.05.21-.09.22-.14.24-.18.24-.21.26-.26.26-.29.27-.33.28-.36.29-.4.29-.42.3-.46.3-.48.3-.51.31-.54.31-.56.31-.58.32-.6.31-.62.31-.64.32-.72.37-.74.37-.77.37-.79.37-.81.36-.83.36-.84.36-.87.35-.87.34-.88.33-.89.32-.9.3-.9.3-.91.28-.9.26-.9.24-.9.23-.89.21-.88.19-.88.17-.86.15-.85.13-.84.11-.83.09-.8.07-.8.04-.77.03h-.75l-.74-.02-.71-.04-.69-.06-.68-.09-.65-.1-.62-.12-.61-.14-.59-.15-.56-.18-.54-.18-.52-.21-.49-.22-.48-.23-.46-.24-.43-.25-.42-.27-.4-.27-.38-.27-.37-.29-.35-.29-.33-.29-.33-.29-.31-.29-.29-.31-.29-.3-.27-.31-.26-.31-.25-.31-.24-.31-.23-.32-.22-.31-.21-.31-.2-.32-.19-.31-.19-.31-.17-.31-.17-.3-.17-.31-.16-.3-.15-.29-.14-.3-.14-.28-.14-.29-.13-.28-.12-.28-.12-.27" filter="url(#a)"/><circle cx="5.733" cy="-3.416" r="4.608" clip-path="url(#c)" filter="url(#a)"/><circle cx="4.353" cy="-4.181" r="4.096" clip-path="url(#c)" filter="url(#a)"/><circle cx="3.783" cy="-.966" r="4.906" clip-path="url(#c)" filter="url(#a)"/><circle cx="5.488" cy="-3.861" r="3.348" clip-path="url(#c)" filter="url(#a)"/><circle cx="6.268" cy="-3.286" r="4.546" clip-path="url(#c)" filter="url(#a)"/><circle cx="3.198" cy="-.161" r="4.508" clip-path="url(#c)" filter="url(#a)"/><circle cx="5.418" cy="-.771" r="4.732" clip-path="url(#c)" filter="url(#a)"/><circle cx="5.223" cy="-1.366" r="4.792" clip-path="url(#c)" filter="url(#a)"/><circle cx="4.708" cy="-1.706" r="4.386" clip-path="url(#c)" filter="url(#a)"/><circle cx="3.928" cy="-4.231" r="3.236" clip-path="url(#c)" filter="url(#a)"/></g><g fill="none" stroke="#3D1386" stroke-linejoin="round" stroke-width="2"><path d="m-26.52-87.67 1.07.43.98-.01.85-.26.96-.16 1.11.04 1.16.21 1.15.33 1.12.39 1.07.4 1.01.31.93.13.84-.09.77-.29.76-.4.79-.39.86-.22.94.09 1.01.43 1.04.69 1.04.68.99.43.93.12 1.14-.08-26.92 13.65.36-.44.86-.82.82-.69.74-.57.75-.54.76-.55.75-.55.73-.53.72-.5.71-.46.71-.44.73-.43.73-.42.78-.43.85-.46.89-.49.89-.48.82-.41.8-.33.96-.28" filter="url(#a)"/><path d="m-12.95-71.47-1.09-1.4-.99-.82-.92-.5-.91-.18-.9.1-.85.29-.82.31-.81.19-.84-.04-.89-.24-.9-.29-.89-.2h-.84l-.81.23-.78.41-.77.45-.79.39-.85.31-.94.35-.97.54-.41.33m10.54 7.49-1.04.04-.84.01-.93-.15-.93-.19-.88-.12-.92-.09-.98-.16-1.05-.3-1.09-.4-1.1-.35-1.07-.14-.98.28-.79.75-.58 1.04-.49.86-.67.16-1.09-.45-1.95-.64m-7.57-10.03.08.73.09 2.02.06 2.29.08 2.18.09 1.99.03 1.81-.09 1.67-.28 1.57-.47 1.45-.6 1.32-.61 1.2-.46 1.16-.2 1.25.05 1.48.15 1.73.02 1.82-.16 1.45-.24.67m98.81 8.67-.53-1.37-.38-1.21-.35-1.24-.37-1.24-.37-1.23-.34-1.19-.25-1.14-.19-1.07-.18-1.03-.23-1.02-.32-1.06-.38-1.15-.42-1.27-.43-1.37-.62-1.59" filter="url(#a)"/><path d="m48.94-42.87 2.82-.19 2.1-.08.62.94.53 1 1.05.71 1.4.6 1.39.77 1.28.96 1.24 1.05 1.28 1.06 1.25 1.1 1.14 1.17 1.1 1.08 1.18.76 1.25.42.52 1.18L42.77-56l.79-2.1.88-3.37.25-2.77-.5-1.66-.84-1.08-.79-1.02-.59-1.2-.36-1.38-.23-1.49-.18-1.56-.22-1.59-.26-1.62-.29-1.72-.23-2-.08-2.54.12-3.22.21-3.7-.06-3.55-.75-2.7m-7.93 25.98.04-.31-.58-.98-.66-1.18-.59-1.14-.56-.99-.58-.82-.61-.74-.6-.8-.56-.93-.54-1.05-.56-1.07-.63-.98-.69-.86-.71-.83-.68-.94-.68-1.15-.69-1.42-.62-1.46" filter="url(#a)"/><path d="m28.25-73.49.74.53.83.75.84.92.77 1.02.7 1.07.65 1.05.61.99.61.88.61.77.61.69.59.65.54.67.49.72.5.84.52.99.57 1.14.52 1.06.31.5-1.16-4.63-.41-.59-.42-.57-.46-.6-.54-.66-.6-.7-.64-.73-.67-.76-.7-.78-.73-.82-.77-.84-.79-.83-.8-.8-.77-.73-.74-.68-.7-.62-.68-.59-.67-.58-.65-.55-.59-.48-.61-.48-.89-.7m-.94-.44-.72-.71-.6-.57-.63-.83-.62-1.09-.59-1.23-.62-1.2-.71-1.09-.8-.93-.88-.75-.91-.59-.89-.46-.85-.44-.83-.52-.86-.68-.94-.92-1.15-1.28-1.55-1.78" filter="url(#a)"/><path d="m31.87-94.94-2.4 2.53-1.5.59-1.05-.21-.95-.17-1.06.31-1.22.95-1.34 1.48-1.37 1.72-1.36 1.61-1.3 1.14-1.18.35-.99-.57-.76-1.06-.66-.09-1.23 3.68m42.4 69.99 1.32 2.14 2.34 2.42 2.3 2.57 1.69 2.57 1.01 2.47.78 2.34 1.11 2.28 1.66 2.3 1.92 2.38 1.72 2.48 1.22 2.58.72 2.66.36 2.69.16 2.68.04 2.64.08 2.57.37 2.51.95 2.47 1.6 2.46 1.92 2.45 1.7 2.4 1.03 2.29.31 2.19-.15 2.23.68 2.5M-1.54-85.19l-2.1.3-1.72.24-1.73.3-1.8.37-1.82.43-1.82.49-1.87.56-1.96.67-2.04.77-2.09.86-2.05.93-1.97.99-1.9 1.02-1.89 1.06-1.96 1.12-2.08 1.19-2.19 1.28-2.25 1.36-2.33 1.39-2.42 1.39-2.42 1.4-1.78 1.2" filter="url(#a)"/><path d="m-1.54-85.19-2.16.3-1.81.25-1.88.31-2.02.39-2.1.44-2.1.52-2.03.61-1.99.7-2.02.8-2.17.89-2.36.96-2.57 1.02-2.67 1.07-2.66 1.12-2.55 1.19-2.43 1.25-2.37 1.31-2.47 1.37-2.68 1.43-2.99 1.47-3.24 1.53-3.37 1.57-3.34 1.64-3.15 1.71-2.86 1.78-2.59 1.85-2.38 1.94-2.37 2.01-2.54 2.06-2.94 2.08-3.45 2.07-3.93 2.09-4.09 2.2-3.49 2.52-1.23 2.54" filter="url(#a)"/><path d="m-3.33-84.96-1.21.11-1.89.22-2.06.35-1.99.45-1.85.52-1.74.59-1.69.65-1.73.71-1.8.76-1.85.82-1.9.88-1.91.95-1.94 1.03-1.99 1.11-2.07 1.19-2.16 1.29-2.23 1.39-2.29 1.47-2.29 1.56-2.26 1.6-2.21 1.62-2.16 1.61-2.1 1.62-2.06 1.65-2.01 1.73-1.96 1.84-2.09 2.16-2.59 3.23" filter="url(#a)"/><path d="m-4.21-84.78-1.43.14-1.67.27-1.81.39-1.89.44-1.97.5-2.08.58-2.16.67-2.18.79-2.18.88-2.15.94-2.14 1-2.1 1.04-2.07 1.08-2.07 1.15-2.17 1.21-2.37 1.28-2.62 1.36-2.8 1.39-2.78 1.43-2.6 1.46-2.32 1.51-2.12 1.56-2.05 1.68-2.36 2.07" filter="url(#a)"/><path d="m-4-84.89-1.86.21-1.46.37-1.37.47-1.33.54-1.24.61-1.21.66-1.24.72-1.32.77-1.38.84-1.37.9-1.28.97-1.13 1.06-.98 1.13-.87 1.22-.82 1.32-.85 1.41-.89 1.48-.9 1.56-.83 1.59-.63 1.63-.35 1.66-.02 1.7.27 1.75.48 1.83.55 1.9.48 1.99.37 2.03.24 2.04.12 2.05-.01 2.1-.15 2.17-.02 2.17 1.04 1.97" filter="url(#a)"/><path d="m-5.49-84.68-1.69.26-2.17.43-2.08.47-2.04.51-2.2.59-2.4.7-2.46.81-2.37.91-2.16.97-1.96 1.02-1.86 1.07-1.88 1.12-2.04 1.18-2.24 1.24-2.46 1.31-2.59 1.37-2.61 1.42-2.49 1.47-2.28 1.52-2.05 1.56-1.9 1.63-1.9 1.69-2.03 1.76-2.19 1.85-2.27 1.93-2.19 2.02-1.98 2.08-1.84 2.1-1.99 2.02-2.58 1.7-3.27 1.15" filter="url(#a)"/><path d="m-6.05-84.8-2.07.44-1.82.49-1.82.57-1.87.62-1.97.66-2.07.73-2.14.78-2.17.84-2.12.92-2 .98-1.82 1.06-1.63 1.15-1.51 1.24-1.52 1.33-1.65 1.42-1.89 1.49-2.14 1.56-2.35 1.61-2.5 1.64-2.54 1.68-2.53 1.72-2.42 1.77-2.27 1.85-2.03 1.91-1.77 1.97-1.5 2.02-1.32 2.05-1.3 2.07-1.46 2.09-1.78 2.11-2.1 2.12-2.25 2.15-2.05 2.21-1.58 2.29-1.31 2.26-1.58 2.13" filter="url(#a)"/><path d="m-6.05-84.8-2.46.44-2.81.49-2.44.57-1.89.62-1.6.67-1.58.72-1.67.78-1.76.85-1.85.91-1.93.99-2.03 1.07-2.17 1.15-2.37 1.24-2.56 1.33-2.72 1.42-2.78 1.5-2.78 1.56-2.72 1.6-2.69 1.65-2.73 1.68-2.89 1.73-3.11 1.78-3.33 1.84-3.49 1.92-3.5 1.97-3.31 2.02-2.99 2.05-2.66 2.07-2.47 2.09-2.56 2.11-2.93 2.14-3.38 2.16-3.65 2.21-3.57 2.26-3.32 2.28-3.15 2.27-2.85 2.39" filter="url(#a)"/><path d="m-6.56-84.64-2.61.63-2.39.49-2.06.51-2 .59-2.14.71-2.29.83-2.27.92-2.15.98-1.96 1.04-1.82 1.08-1.7 1.13-1.63 1.19-1.61 1.26-1.64 1.33-1.74 1.38-1.89 1.44-2.05 1.48-2.17 1.54-2.24 1.59-2.3 1.65-2.36 1.72-2.49 1.79-2.66 1.87-2.82 1.94-2.91 2-2.9 2.05-2.84 2.09-2.78 2.11-2.81 2.16-2.86 2.22-2.85 2.27-2.66 2.27-2.13 2.15-1.31 2.09-1 2.85" filter="url(#a)"/><path d="m-8.66-84.29-2.35.39-2.42.58-1.7.63-1.5.67-1.57.72-1.72.78-1.87.85-1.98.91-2.04.98-2.05 1.06-2.06 1.15-2.09 1.23-2.18 1.34-2.37 1.41-2.61 1.5-2.83 1.56-2.97 1.61-2.93 1.64-2.69 1.67-2.33 1.71-1.94 1.77-1.65 1.84-1.54 1.91-1.62 1.98-1.82 2.02-2.08 2.05-2.31 2.06-2.53 2.08-2.7 2.1-2.8 2.12-2.85 2.13-3.04 2.22-3.36 2.36-2.11 2.12" filter="url(#a)"/><path d="m-9.13-84.12-2.71.76-1.7.67-1.54.66-1.58.71-1.62.78-1.61.84-1.59.9-1.57.97-1.56 1.05-1.59 1.13-1.6 1.23-1.64 1.32-1.65 1.41-1.67 1.5-1.67 1.56-1.65 1.6-1.6 1.63-1.56 1.64-1.54 1.68-1.5 1.74-1.48 1.82-1.41 1.9-1.32 1.99-1.22 2.04-1.14 2.02-1.15 2.03-1.27 2.08-1.45 2.24-1.5 2.4" filter="url(#a)"/><path d="m-9.13-84.12-2.81.76-2.62.67-2.14.66-1.67.71-1.57.78-1.84.84-2.22.91-2.49.98-2.54 1.05-2.44 1.13-2.31 1.23-2.24 1.33-2.29 1.41-2.39 1.5-2.46 1.56-2.48 1.6-2.45 1.63-2.39 1.66-2.37 1.69-2.4 1.74-2.41 1.83-2.41 1.9-2.39 1.99-2.45 2.02-2.7 2.04-3.15 2.05-3.53 2.09-3.38 2.16-2.75 2.17-3.48 1.96" filter="url(#a)"/><path d="m-11.29-83.57-.99.52-.8.55-1.22.71-1.61.85-1.7.95-1.58 1-1.39 1.04-1.27 1.07-1.22 1.13-1.2 1.18-1.17 1.26-1.07 1.32-.94 1.38-.78 1.43-.59 1.47-.41 1.53-.24 1.57-.1 1.64-.02 1.7-.03 1.77-.09 1.86-.18 1.94-.2 2-.11 2.05.08 2.08.26 2.06.36 2.07.37 2.2.25 2.51-.52 2.53m17.13-45.01-1.47.57-2.36.63-2.73.71-2.59.78-2.33.86-2.23.92-2.27.99-2.33 1.06-2.34 1.16-2.26 1.25-2.16 1.35-2.11 1.43-2.16 1.51-2.29 1.57-2.52 1.62-2.83 1.64-3.19 1.69-3.64 1.72-4.15 1.79-4.62 1.84-4.96 1.92-4.97 1.98-4.57 2.02-3.81 2.05-2.86 2.07-2.03 2.09-1.59 2.11-1.69 2.13-2.25 2.17-3.11 2.21-4.02 2.27-4.64 2.32-4.58 2.43-3.82 2.68-4.2 3.3" filter="url(#a)"/><path d="m-12.27-83.21-3.23.57-3.79.63-3.05.71-2.33.79-1.86.85-1.71.92-1.72.99-1.76 1.07-1.75 1.16-1.71 1.26-1.72 1.34-1.81 1.44-2.01 1.51-2.25 1.57-2.5 1.62-2.68 1.65-2.76 1.69-2.76 1.73-2.71 1.78-2.7 1.86-2.76 1.91-2.9 1.98-3.1 2.02-3.32 2.05-3.46 2.08-3.53 2.09-3.53 2.11-3.5 2.15-3.52 2.17-3.64 2.22-3.79 2.29-3.81 2.36-3.46 2.47-2.87 2.67-2.83 2.91-4.13 2.91" filter="url(#a)"/><path d="m-12.89-82.89-.98.34-1.74.69-1.93.87-1.96.96-1.93 1.02-1.86 1.03-1.73 1.05-1.6 1.1-1.49 1.17-1.45 1.24-1.47 1.31-1.49 1.37-1.53 1.41-1.52 1.45-1.48 1.5-1.45 1.54-1.42 1.59-1.46 1.66-1.54 1.73-1.63 1.81-1.65 1.91-1.54 2-1.3 1.95-1.11 1.42" filter="url(#a)"/><path d="m-14.85-81.98-1.81.64-1.74.8-1.76.88-1.8.93-1.81.98-1.76 1.07-1.68 1.17-1.61 1.26-1.61 1.36-1.65 1.44-1.71 1.53-1.74 1.58-1.71 1.62-1.62 1.66-1.51 1.69-1.4 1.73-1.35 1.79-1.35 1.85-1.39 1.92-1.42 1.98-1.41 2.02-1.35 2.05-1.26 2.08-1.16 2.09-1.09 2.12-1.07 2.14-1.12 2.19-1.22 2.23-1.34 2.29-1.42 2.37-1.44 2.48-1.4 2.59-1.31 2.66-1.05 2.43-.67 1.57" filter="url(#a)"/><path d="m-16.89-81.4-6.06.81-1.06.93-.56.94-1.09.98-1.69 1.07-2.3 1.17-2.9 1.27-3.37 1.37-3.48 1.46-3.17 1.54-2.6 1.59-2.02 1.63-1.7 1.66-1.69 1.7-1.96 1.74-2.35 1.8-2.73 1.86-3.03 1.93-3.25 1.98-3.38 2.03-3.42 2.05-3.35 2.09-3.18 2.1-2.94 2.13-2.7 2.16-2.54 2.2-2.57 2.26-2.84 2.32-3.28 2.39-3.73 2.48-3.89 2.55-3.55 2.61-2.85 2.65-2.3 2.68-2.35 2.73-2.46 2.78-.42 2.68" filter="url(#a)"/><path d="m-16.89-81.4-1.55.8-1.58.92-1.5.92-1.48.96-1.49 1.04-1.5 1.14-1.51 1.24-1.51 1.33-1.52 1.43-1.54 1.51-1.52 1.58-1.49 1.61-1.42 1.62-1.35 1.64-1.29 1.67-1.25 1.72-1.23 1.81-1.25 1.91-1.26 1.99-1.24 2.02-1.17 2.02-1.08 2.01-1.01 2.08-1.05 2.22-1.17 2.39" filter="url(#a)"/><path d="m-16.89-81.4-1.33.8-.66.92-.25.92-.6.97-1.19 1.04-1.54 1.15-1.53 1.24-1.19 1.33-.75 1.43-.39 1.52-.27 1.58-.39 1.61-.65 1.63-.88 1.64-.95 1.68-.82 1.74-.51 1.82-.02 1.9.56 1.99 1.21 2.02 1.74 2.03 1.91 2.03 1.55 2.08.85 2.15.64 2.16 1.51 1.95m2.73-40.76-2.69 1.18-1.51.93-1.4.95-1.54 1.05-1.68 1.15-1.69 1.26-1.69 1.35-1.7 1.45-1.76 1.53-1.82 1.58-1.87 1.63-1.85 1.64-1.81 1.66-1.73 1.69-1.61 1.76-1.48 1.84-1.34 1.91-1.25 1.98-1.22 2.02-1.29 2.04-1.38 2.05-1.46 2.07-1.47 2.09-1.47 2.1-1.54 2.12-1.74 2.2-1.82 2.36-1.13 2.1" filter="url(#a)"/><path d="m-18.11-80.83-4.21 1.19-2.88.94-2.02.96-2.19 1.07-2.51 1.17-2.61 1.28-2.52 1.37-2.38 1.47-2.29 1.54-2.26 1.6-2.27 1.64-2.26 1.67-2.2 1.69-2.11 1.74-2.07 1.8-2.12 1.87-2.26 1.93-2.46 1.99-2.64 2.02-2.75 2.06-2.69 2.09-2.48 2.1-2.16 2.13-1.8 2.17-1.49 2.21-1.31 2.26-1.3 2.32-1.42 2.4-1.62 2.48-1.82 2.55-2.07 2.61-2.36 2.65-2.72 2.67-2.97 2.71-2.85 2.72-2.16 2.62-.09 2.44" filter="url(#a)"/><path d="m-18.11-80.83-1.94 1.18-1.41.92-1.39.94-1.43 1.04-1.48 1.14-1.49 1.24-1.48 1.34-1.48 1.43-1.44 1.51-1.4 1.59-1.33 1.61-1.24 1.62-1.15 1.64-1.09 1.66-1.02 1.72-.98 1.81-.95 1.91-.91 1.99-.89 2.02-.86 2.02-.83 2-.85 2.07-.93 2.22-1.07 2.39" filter="url(#a)"/><path d="m-21.02-79.18-.62.52-1.34.88-1.5 1.03-1.54 1.15-1.55 1.25L-29.1-73l-1.54 1.44-1.54 1.53-1.52 1.59-1.47 1.62-1.41 1.63-1.34 1.63-1.29 1.67-1.27 1.73-1.28 1.82-1.27 1.91-1.25 1.98-1.18 2.02-1.1 2.02-1.02 2.03-.99 2.07-1.04 2.15-1.05 2.15-.94 1.94" filter="url(#a)"/><path d="m-23.11-77.68-3.5.91-2.65 1.1-1.14 1.22-.9 1.31-1.23 1.39-1.52 1.43-1.61 1.47-1.54 1.5-1.4 1.55-1.33 1.61-1.33 1.67-1.41 1.74-1.58 1.82-1.77 1.9-2 1.96-2.22 2.01-2.42 2.06-2.53 2.1-2.53 2.14-2.39 2.17-2.18 2.2-1.98 2.24-1.85 2.26-1.86 2.27-2 2.3-2.21 2.34-2.47 2.38-2.71 2.45-2.82 2.55-2.72 2.64-2.52 2.68-2.53 2.57" filter="url(#a)"/><path d="m-24.46-76.95-2.18 1.25-2.94 1.21-4.28 1.3-5.07 1.39-4.58 1.44-3.35 1.45-2.21 1.47-1.82 1.52-2.28 1.58-3.29 1.63-4.26 1.71-4.73 1.79-4.58 1.87-4.06 1.93-3.63 2.01-3.46 2.04-3.37 2.07-3.1 2.08-2.75 2.12-2.96 2.2-4.26 2.3-6.14 2.28-6.24 1.93-1.29 1.01M55.58-15.79l2.12 1.16 3.89 2.11 2.59 2.45 1.39 2.52 1.61 2.51 2.49 2.51L72.6 0l2.53 2.55 1.66 2.57.83 2.57.36 2.59.19 2.59.16 2.62.13 2.62.16 2.61.33 2.57.71 2.54 1.19 2.52 1.71 2.46 2.31 2.31 3.12 2.03 4.25 1.81 5.01 1.91 2.75 2.66" filter="url(#a)"/><path d="m55.58-15.79 15.33 1.18-2.93 2.14-3.9 2.47-1.97 2.53-.58 2.54.16 2.54.75 2.55 1.55 2.57 2.62 2.59 3.73 2.6 4.55 2.61 4.83 2.62 4.43 2.63 3.49 2.63 2.2 2.61.84 2.57-.33 2.53-1.14 2.47-1.46 2.39-1.23 2.29-.54 2.21.44 2.15 1.46 2.14 2.15 2.16 2.24 2.18 1.66 2.17.68 2.18-.22 2.29-.53 2.34 1.29 1.43M-26.15-75.61l-2.29 1.17-1.47 1.28-1.89 1.43-2.39 1.46-2.64 1.46-2.62 1.49-2.53 1.54-2.57 1.59-2.78 1.66-3.1 1.74-3.42 1.81-3.63 1.89-3.78 1.96-3.9 2.02-4.06 2.06-4.27 2.09-4.44 2.12-4.46 2.16-4.25 2.19-3.87 2.23-3.48 2.25-3.36 2.26-3.58 2.28-3.98 2.31-4.29 2.34-4.29 2.39-4.03 2.53-2.72 3m92.4-53.27-1.2.96-2.47 1.52-2.72 1.51-2.31 1.48-1.87 1.5-1.84 1.55-2.2 1.62-2.71 1.7-3.11 1.77-3.19 1.85-3.01 1.92-2.71 1.98-2.46 2.04-2.3 2.09-2.2 2.12-2.07 2.15-1.84 2.19-1.54 2.22-1.3 2.25-1.24 2.28-1.43 2.31-1.87 2.34-2.42 2.38-2.94 2.43-3.22 2.46-3.23 2.5-3.03 2.53-2.82 2.54-2.8 2.56-3.1 2.59-3.65 2.64-4.14 2.71-4.25 2.76-3.71 2.73-2.65 2.62-1.89 2.44-2.52 2.04" filter="url(#a)"/><path d="m-28.7-73.41-2.08.74-1.67 1.28-1.53 1.6-1.75 1.71-1.95 1.69-1.92 1.66-1.66 1.66-1.33 1.71-1.09 1.78-1 1.87-1.03 1.95-1.12 2.01-1.21 2.03-1.25 2.06-1.29 2.08-1.34 2.1-1.45 2.12-1.62 2.15-1.77 2.2-1.88 2.25-1.86 2.32-1.7 2.39-1.43 2.47-1.12 2.55-.88 2.6-.76 2.63-.82 2.67-1.05 2.69-1.42 2.71-1.78 2.61-1.7 2.42" filter="url(#a)"/><path d="m-30.92-71.24-1.4 1.34-1.86 1.93-1.72 1.77-1.6 1.64-1.5 1.63-1.36 1.7-1.21 1.8-1.12 1.9-1.08 1.97-1.11 2.03-1.17 2.05-1.26 2.08-1.32 2.09-1.36 2.12-1.34 2.14-1.24 2.19-1.13 2.23-1.01 2.29-.95 2.35-.94 2.42-.95 2.49-.96 2.55-.95 2.59-.86 2.62-.75 2.62-.63 2.62-.54 2.62-.5 2.61-.53 2.64-.58 2.7-.61 2.76-.55 2.77-.37 2.71-.2 2.63-.15 2.65.06 2.2" filter="url(#a)"/><path d="m-31.46-70.89-2.71 2.92-2.15 1.89-2.26 1.55-2.68 1.55-3.1 1.65-3.32 1.77-3.25 1.88-2.93 1.96-2.46 2.02-1.93 2.04-1.5 2.05-1.25 2.07-1.29 2.08-1.61 2.1-2.09 2.13-2.57 2.18-2.92 2.22-3.11 2.3-3.22 2.37-3.42 2.46-3.75 2.55-3.97 2.59-3.62 2.61-2.59 2.63-1.9 2.77-2.03 2.71m66.08-55.37-1.51 1.95-1.13 1.64-.97 1.62-1.01 1.69-1.1 1.75-1.15 1.84-1.15 1.92-1.09 2-1.05 2.04-1.01 2.08-.98 2.11-.94 2.13-.88 2.17-.8 2.2-.7 2.24-.62 2.26-.54 2.28-.49 2.3-.44 2.35-.39 2.39-.3 2.45-.21 2.51-.12 2.53-.06 2.52-.05 2.46-.09 2.39-.13 2.5-.2 3.11" filter="url(#a)"/><path d="m-35.03-66.72-1.74 1.22-1.43 1.57-1.37 1.68-1.25 1.77-1.15 1.86-1.13 1.95-1.17 2.01-1.19 2.07-1.2 2.09-1.19 2.13-1.15 2.15-1.11 2.19-1.07 2.22-1.04 2.25-1.02 2.28-1.02 2.31-1 2.34-.99 2.37-.94 2.42-.85 2.46-.74 2.5-.61 2.52-.51 2.54-.46 2.56-.46 2.58-.49 2.64-.55 2.69-.58 2.72-.57 2.68-.49 2.56-.37 2.36-.32 2.09-.42 1.75" filter="url(#a)"/><path d="m-35.03-66.72-3.3 1.22-3.5 1.56-2.42 1.69-1.62 1.77-1.6 1.85-1.74 1.94-1.7 2.02-1.63 2.06-1.83 2.09-2.37 2.13-3 2.15-3.38 2.18-3.23 2.22-2.53 2.25-1.57 2.28-.71 2.3-.32 2.33-.55 2.37-1.32 2.42-2.41 2.46-3.52 2.49-4.37 2.52-4.78 2.54-4.67 2.54-4.15 2.58-3.38 2.64-2.67 2.7-2.23 2.75-2.23 2.72-2.62 2.6-3.13 2.43-1.8 2.03" filter="url(#a)"/><path d="m-36.67-65.02-3.92.61-3.32 1.45-.81 1.7.09 1.82-.12 1.92-.74 2.01-1.36 2.05-1.9 2.07-2.29 2.07-2.48 2.08-2.47 2.1-2.28 2.13-2.02 2.17-1.79 2.22-1.71 2.27-1.8 2.34-1.96 2.42-2.1 2.48-2.13 2.55-1.98 2.59-1.68 2.61-1.27 2.63-.92 2.61-.78 2.58-.96 2.58-1.35 2.6-1.67 2.7-1.63 2.83L-85.24 0l-.72 2.42-.54 1.36" filter="url(#a)"/><path d="m-36.67-65.02-.47.6-1.08 1.44-1.39 1.68-1.69 1.8-2 1.91-2.16 2-2.11 2.04-1.86 2.05-1.55 2.06-1.25 2.06-1.05 2.08-.99 2.11-1.11 2.14-1.34 2.18-1.61 2.24-1.79 2.31-1.85 2.39-1.79 2.47-1.68 2.53-1.64 2.59-1.76 2.63-1.99 2.65-2.11 2.68-1.77 2.68-1.07 2.59-.48 2.41" filter="url(#a)"/><path d="m-36.42-65.41-2.27 2.28-1.13 1.86-1.01 1.85-1.12 1.95-1.25 2.03-1.33 2.07-1.32 2.08-1.26 2.07-1.18 2.09-1.13 2.11-1.14 2.13-1.2 2.18-1.28 2.23-1.36 2.29-1.38 2.35-1.31 2.43-1.19 2.49-1.02 2.55-.83 2.59-.68 2.62-.55 2.62-.48 2.61-.48 2.61-.54 2.62-.64 2.63-.77 2.69-.86 2.73-.86 2.74-.7 2.67-.42 2.55-.07 2.36.1 1.87-.41.78" filter="url(#a)"/><path d="m-38.32-62.59-2.67 2.14-1.32 1.9-1.49 1.97-1.8 2.06-1.8 2.1-1.51 2.12-1.14 2.14-.87 2.16-.77 2.19-.82 2.24-.92 2.26-1.01 2.29-1.06 2.32-1.05 2.35-.98 2.39-.89 2.43-.8 2.47-.76 2.51-.77 2.53-.86 2.55-.94 2.58-1 2.6-1.01 2.63-.95 2.65-.85 2.65-.76 2.61-.72 2.57-.67 2.53-.62 2.53-.52 2.58-.4 2.68-.3 2.7-.27 2.54-.37 2.28-.82 3.05m126.6-43.58 6.84 4.15 2.82 2.67 1.62 2.46.11 2.49-.96 2.52-1.14 2.53-.58 2.53.46 2.54 1.69 2.57 2.81 2.58 3.53 2.59 3.68 2.6 3.19 2.62 2.22 2.62 1.06 2.63.07 2.61-.49 2.58-.57 2.54-.3 2.48.02 2.41.21 2.29.26 2.17.19 2.1.05 2.12-.11 2.23-.07 2.26.3 2.02.38 1.67" filter="url(#a)"/><path d="m54.79-21.87 1.24 4.15.78 2.67 1.47 2.46 1.83 2.49 1.54 2.52 1.01 2.53.7 2.53.76 2.54 1.09 2.57 1.42 2.58 1.47 2.59 1.14 2.6.58 2.62.02 2.62-.33 2.63-.38 2.61-.2 2.58.08 2.54.35 2.48.5 2.41.54 2.29.51 2.17.42 2.1.37 2.12.45 2.23.62 2.26.35 2.02-1.33 1.67M-40.13-59.96l-1 1.46-1.11 1.88-1.14 2.05-1.12 2.1-1.07 2.11-1 2.1-.94 2.12-.89 2.16-.86 2.21-.82 2.24-.78 2.26-.73 2.28-.68 2.3-.65 2.34-.6 2.4-.57 2.44-.54 2.49-.48 2.51-.43 2.51-.36 2.49-.31 2.49-.26 2.59-.25 2.78-.25 2.98-.31 3.17m16.23-57.31-2.12 2.15-4.11 2.17-6.2 2.16-5.55 2.13-3.09 2.12-.73 2.15.43 2.19.33 2.23-.52 2.26-1.54 2.29-2.25 2.31-2.46 2.34-2.18 2.39-1.64 2.42-1.18 2.47-1.07 2.5-1.39 2.53-1.98 2.55-2.52 2.57-2.73 2.59L-86-9.66l-1.78 2.65-1.04 2.65-.59 2.61-.7 2.56-1.43 2.5-2.5 2.49-3.39 2.58-3.39 2.73-2.21 2.8-.72 2.4-2.74.73" filter="url(#a)"/><path d="m-41.57-57.58-1.54 2.07-2.11 2.37-2.2 2.13-1.86 2.03-1.55 2.04-1.57 2.09-1.83 2.13-2.22 2.16-2.64 2.22-3.05 2.28-3.38 2.35-3.53 2.43-3.49 2.5-3.26 2.55-2.98 2.6-2.75 2.61-2.58 2.61-2.38 2.61-2.1 2.59-1.79 2.6-1.69 2.63-1.97 2.68-2.61 2.72-3.22 2.73-3.26 2.66-2.55 2.54-1.59 2.34-1.55 1.86-3.95.77" filter="url(#a)"/><path d="m-41.57-57.58-9.93 2.06-3.05 2.37-1.25 2.13-1.22 2.02-2.28 2.03-3.32 2.08-3.62 2.13-3.19 2.15-2.48 2.21-1.9 2.27-1.69 2.34-1.79 2.42-1.96 2.49-2.01 2.55-1.81 2.59-1.46 2.61-1.26 2.61-1.42 2.6-1.97 2.58-2.66 2.57-3.08 2.6-3 2.68-2.64 2.77-2.36 2.78-2.12 2.65-1.46 2.62-2.02 3.62m66.05-65.21-1.82 3.28-1.16 2.17-1.1 1.95-1.26 2.02-1.41 2.11-1.53 2.14-1.65 2.19-1.75 2.24-1.8 2.3-1.76 2.37-1.65 2.46-1.53 2.51-1.44 2.57-1.38 2.61-1.33 2.62-1.24 2.62-1.08 2.63-.86 2.62-.6 2.63-.37 2.65-.23 2.66-.22 2.67-.31 2.64-.49 2.58-.64 2.49-.74 2.41-.73 2.36-.61 2.36-.43 2.43-.32 2.51-.34 2.59-.51 2.58-.4 2.39.24 2.04" filter="url(#a)"/><path d="m-45.88-50-.98 1.04-2.55 2.07-2.81 2.2-2.71 2.18-2.63 2.17-2.26 2.22-1.48 2.28-.58 2.37.06 2.45.19 2.52-.18 2.57-.9 2.61-1.79 2.62-2.7 2.61-3.43 2.62-3.85 2.6-3.89 2.62-3.64 2.64-3.28 2.66-3.02 2.68-3.01 2.65-3.16 2.59-3.27 2.48-3.07 2.37-2.43 2.3-1.59 2.3-1.3 2.39-2.34 2.53-4.24 2.71-2.54 3.79" filter="url(#a)"/><path d="m-45.45-50.77-1.64 2.95-1.66 2.1-1.76 2.15-1.58 2.28-1.37 2.31-1.24 2.3-1.21 2.31-1.23 2.34-1.37 2.38-1.57 2.44-1.8 2.48-1.99 2.52-2.1 2.54-2.1 2.55-1.99 2.57-1.8 2.6-1.6 2.63-1.47 2.64-1.4 2.63-1.36 2.6-1.24 2.57-.98 2.54-.61 2.55-.3 2.57-.23 2.59-.46 2.6-.94 2.54-1.41 2.46-1.63 2.44-1.35 2.54-.36 2.73.43 2.93m41.32-80.38-1.24 2.96-.48 2.11-.04 2.16.44 2.29 1.04 2.32 1.6 2.32 1.85 2.32 1.72 2.35 1.29 2.4.77 2.45.35 2.49.12 2.53.09 2.55.19 2.57.37 2.59.56 2.61.75 2.63.94 2.63L-34-3.86l1.34 2.61 1.54 2.59 1.66 2.57 1.71 2.57 1.67 2.57 1.56 2.58 1.51 2.57 1.59 2.55 1.83 2.53 2.21 2.52 2.51 2.51 2.58 2.51 2.37 2.48 1.98 2.39 1.63 2.28 1.47 2.26 1.63 2.5 1.15 2.99" filter="url(#a)"/><path d="m-47.33-46.61-.9 1.08-2.1 1.88-3.43 2.29-4.32 2.33-4.59 2.27-4.15 2.25-3.31 2.28-2.59 2.34-2.3 2.4-2.43 2.45-2.72 2.48-2.86 2.51-2.7 2.5-2.23 2.5-1.53 2.54-.78 2.6-.25 2.68-.35 2.72-1.43 2.68-3.34 2.56-5.24 2.38-7.32 2m60.87-51.72-.6 1.1-.94 1.92-1.09 2.3-.95 2.35-.79 2.29-.73 2.28-.76 2.32-.84 2.37-.88 2.43-.86 2.48-.79 2.5-.69 2.53-.6 2.54-.55 2.56-.53 2.58-.51 2.62-.45 2.65-.36 2.63-.21 2.6-.06 2.54.02 2.5.05 2.5.02 2.57-.03 2.67-.08 2.68-.15 2.52-.13 2.26.19 3.03" filter="url(#a)"/><path d="m-47.42-46.17-14.11 1.85-.44 2.02.95 2.08-.81 2.18-2.73 2.28-3.66 2.37-3.66 2.46-3.27 2.52-2.85 2.58-2.49 2.62-2.1 2.62-1.7 2.61-1.41 2.6-1.33 2.6-1.47 2.61-1.71 2.63-1.88 2.66-1.85 2.68-1.7 2.65-1.63 2.57-1.76 2.48-2.02 2.36-2.12 2.28-2.03 2.3-2.04 2.39-2.52 2.53-3.04 2.7-4.17 3.78m68.81-68.38-2.43 2.31-1.81 2.08-1.8 2.19-2.46 2.3-2.53 2.4-1.82 2.49-1.03 2.55-.85 2.6-1.4 2.63-2.43 2.64-3.41 2.63-3.98 2.62-3.9 2.62-3.24 2.63-2.24 2.64-1.2 2.66-.4 2.65-.04 2.62-.11 2.55-.51 2.49-1.05 2.43-1.55 2.39-1.87 2.4-1.99 2.44-1.89 2.48-1.63 2.52-1.22 2.53-.74 2.49-.32 2.43-.1 2.4-.13 2.41-.92 2.48-4.4 1.94" filter="url(#a)"/><path d="m-48.16-44.54-2.69 2.31-2.44 2.1-1.37 2.19-.5 2.32-.07 2.41-.07 2.49-.34 2.56-.69 2.62-1.01 2.63-1.19 2.64-1.23 2.64-1.16 2.63-1.02 2.64-.9 2.64-.82 2.65-.85 2.65-.95 2.65-1.12 2.61-1.31 2.56-1.48 2.5-1.59 2.45-1.65 2.43-1.6 2.42-1.47 2.45-1.2 2.48-.84 2.5-.36 2.5.16 2.47.6 2.43.84 2.39.85 2.33.66 2.26.39 2.21.1 2.2-.09 2.31.29 2.6 2.08 3.06" filter="url(#a)"/><path d="m-48.02-44.82-1.96 3.59-1.05 2.6-.98 2.27-1.27 2.24-1.64 2.32-1.96 2.4-2.3 2.47-2.64 2.51-2.93 2.54-2.97 2.56-2.68 2.57-2.16 2.59-1.56 2.62-1.14 2.63-.95 2.64-.97 2.63-1.06 2.61-1.09 2.59-.96 2.57-.74 2.57-.49 2.57-.39 2.57-.48 2.56-.76 2.55-1.15 2.54-1.5 2.51-1.7 2.5-1.63 2.49-1.27 2.46-.66 2.41.01 2.39.44 2.39.39 2.42-.18 2.4-.87 2.19-.66 1.83 1.06 2.28M54.48-23.29l3.76 2.47 4.37 2.89 2.54 2.64.66 2.52-.35 2.5-.07 2.51 1.11 2.5 2.38 2.52 3.04 2.52 2.82 2.55 1.92 2.57.84 2.57.06 2.58-.16 2.6.07 2.62.47 2.63.79 2.61.89 2.56.89 2.55 1.01 2.57 1.44 2.61 2.33 2.46L89 35.19l4.99 1.01" filter="url(#a)"/><path d="m54.48-23.29 2.47 2.46.63 2.88-.03 2.63.27 2.51.87 2.49 1.36 2.5 1.49 2.49 1.32 2.5.97 2.52.68 2.54.57 2.55.66 2.56.84 2.57.93 2.58.84 2.62.53 2.64.08 2.61-.35 2.52-.56 2.47-.35 2.59.08 2.95-.66 3.43M-50.49-38.77l-.72 3.16.09 2.46.61 2.44.71 2.55.56 2.62.48 2.63.66 2.63.99 2.6 1.32 2.59 1.5 2.58 1.56 2.59 1.54 2.62 1.56 2.65 1.51 2.67 1.37 2.64 1.09 2.56.83 2.45.79 2.35 1.09 2.29 1.62 2.31 2.1 2.39 2.37 2.52 2.6 2.62 2.89 2.7 1.95 2.17m-31.07-63.79-2.53 3.16-1.89 2.46-1.39 2.44-1.29 2.55-1.85 2.62-2.85 2.63-3.79 2.63-4.33 2.6-4.35 2.59-3.98 2.58-3.46 2.59-2.93 2.62-2.44 2.65-2.02 2.67-1.72 2.64-1.61 2.56-1.69 2.45-1.8 2.35-1.81 2.29-1.63 2.31-1.42 2.39-1.58 2.52-2.34 2.62-3.36 2.7-5.5 2.17" filter="url(#a)"/><path d="m-51.53-35.63-6.41 1.39-7.09 2.35-2.26 2.46.78 2.46.59 2.48-1.3 2.51-3.09 2.52-3.79 2.51-3.48 2.52-2.7 2.56-2.12 2.6-2.07 2.65-2.48 2.63-2.98 2.58-3.25 2.5-3.24 2.44-3.24 2.44-3.59 2.55-4.04 2.71-3.8 2.77-2.6 2.35-2.99.69" filter="url(#a)"/><path d="m-51.53-35.63-3.21 1.42-2.54 2.38-.95 2.49-.45 2.48-.33 2.52-.25 2.54-.23 2.54-.34 2.55-.54 2.57-.76 2.59-.98 2.63-1.2 2.64-1.43 2.63-1.63 2.59-1.77 2.55-1.83 2.54-1.8 2.53-1.72 2.56-1.56 2.57-1.3 2.57-.95 2.53-.57 2.49-.23 2.49v2.51l.07 2.54-.07 2.52-.46 2.4-1.11 2.02-1.86.73m30-70.12-.3 1.44-.62 2.39-.65 2.51-.61 2.5-.58 2.54-.55 2.55-.54 2.57-.5 2.57-.46 2.59-.4 2.61-.34 2.64-.26 2.65-.18 2.63-.09 2.61-.01 2.58.06 2.56.13 2.57.18 2.56.24 2.57.28 2.56.33 2.55.37 2.53.4 2.51.42 2.5.45 2.47.47 2.45.51 2.42.54 2.4.6 2.38.67 2.37.72 2.35.79 2.28.87 2.2.97 2.23 1.01 2.23.64 1.39" filter="url(#a)"/><path d="m-51.44-35.37-1.34 3.4-1.33 2.68-1.63 2.46-2.69 2.49-4.1 2.53-5.1 2.53-5.22 2.53-4.55 2.53-3.58 2.57-2.91 2.61-2.76 2.65-2.94 2.62-3.07 2.58-2.76 2.53-1.87 2.48-.67 2.5.31 2.55.44 2.6-.67 2.59-2.72 2.51-4.63 2.38-4.91 2.35-3.13 2.48-.45 2.82" filter="url(#a)"/><path d="m-52.08-33.14-3.46 2.41-4.46 2.72-3.69 2.75-2.29 2.7-1.22 2.66-.59 2.63-.25 2.62-.18 2.61-.37 2.63-.79 2.65-1.34 2.66-1.85 2.66-2.16 2.61-2.23 2.55-2.09 2.48-1.87 2.44-1.68 2.41-1.59 2.43-1.53 2.44-1.42 2.48-1.16 2.48-.75 2.49-.26 2.45.16 2.42.32 2.37.11 2.33-.54 2.29-1.48 2.27-2.35 2.31-2.62 2.38-1.84 2.5-.25 2.58 1.14 2.5.89 2.2-1.53 1.7" filter="url(#a)"/><path d="m-53.3-28.37-2.28 1.72-2.43 2.44-1.31 2.61-.05 2.59.45 2.53.32 2.52-.08 2.58-.6 2.63-1.09 2.65-1.5 2.64-1.68 2.58-1.56 2.54-1.19 2.51-.65 2.51-.19 2.55.08 2.57.07 2.56-.11 2.52-.37 2.48-.56 2.47-.71 2.5-.75 2.53-.61 2.51-.2 2.39.12 2.01-1.3.72m125.69-58.3 1.33 2.5.46 2.71.31 2.67.62 2.56 1.08 2.5 1.37 2.49 1.33 2.51 1.02 2.49.59 2.43.22 2.38.06 2.34.07 2.35.18 2.39.32 2.48.41 2.57.45 2.64.44 2.69.39 2.7.29 2.65.15 2.59-.05 2.51-.25 2.47-.41 2.48-.45 2.53-.34 2.48.03 2.25.63 1.69" filter="url(#a)"/><path d="m53.85-25.5 1.97 2.2 1.71 2.61.97 2.72.77 2.65.8 2.57.79 2.55.64 2.53.46 2.55.36 2.55.45 2.56.78 2.58 1.23 2.59 1.66 2.61 1.89 2.61 1.82 2.63 1.45 2.63.92 2.63.38 2.61-.03 2.59L72.6 26l-.34 2.48-.26 2.4-.04 2.3.26 2.23.56 2.16.7 2.15.59 2.17.3 2.18v2.18l-.12 2.19-.18 2.3-.47 2.34-1.23 1.44" filter="url(#a)"/><path d="m53.85-25.5 2.6 2.17 3.44 2.58 2.59 2.69 2 2.62 2.2 2.54 2.51 2.52 2.26 2.51 1.5 2.5.83 2.52.83 2.53 1.77 2.54 3.3 2.57 4.68 2.57 5.21 2.57 4.5 2.6 2.82 2.62.97 2.64-.12 2.61.12 2.56 1.46 2.53 2.93 2.6 3.35 2.75 2.51 2.73 1.18 2.04M53.85-25.5l.81 2.17L56-20.75l1.47 2.69 1.31 2.62 1.05 2.54 1.01 2.52 1.33 2.51 1.95 2.5 2.56 2.52 2.86 2.53 2.76 2.54 2.33 2.57 1.77 2.57 1.32 2.57 1.09 2.6 1.1 2.62 1.29 2.64 1.53 2.61 1.58 2.56 1.29 2.53.77 2.6.44 2.75.48 2.73-.07 2.04M53.97-24.93l.4 1.58.74 2.26 1.06 2.56 1.27 2.6 1.27 2.57 1.1 2.54.87 2.53.6 2.52.34 2.49.1 2.46-.05 2.41-.06 2.4.06 2.41.25 2.46.45 2.52.58 2.58.61 2.64.54 2.67.38 2.67.18 2.64-.06 2.6-.26 2.55-.45 2.51-.56 2.47-.64 2.42-.67 2.36-.68 2.29-.66 2.22-.66 2.15-.63 2.08-.62 2.04-.6 1.97-.54 1.92-.51 1.86-.53 1.86-.68 1.88-1.01 1.56" filter="url(#a)"/><path d="m52.23-32.68 3.37 2.22 3.64 2.31 2.39 2.27 1.63 2.26.98 2.35.28 2.43-.26 2.49-.35 2.51.03 2.5.69 2.5 1.38 2.5 2 2.48 2.54 2.44L73.53.96l3.24 2.33 3.14 2.3 2.58 2.35 1.58 2.43.35 2.54-.72 2.65-1.2 2.75-.75 2.8.5 2.85 1.8 2.81 2.01 2.43M50.98-37.37l.96 3.71.58 2.85.28 2.5.03 2.35-.19 2.34-.3 2.38-.3 2.44-.22 2.5-.12 2.51-.06 2.52-.06 2.51-.1 2.51-.15 2.48-.22 2.45-.33 2.4-.43 2.37-.56 2.37-.66 2.4-.72 2.48-.75 2.56-.74 2.65-.72 2.71-.73 2.72-.78 2.68-.88 2.6-1.06 2.49-1.26 2.42-1.45 2.51-1.49 2.68-.95 2.43" filter="url(#a)"/><path d="m50.26-38.91 1.92 2.31 2.31 2.82 2.94 2.7 3 2.5 3.21 2.37 3.71 2.32 3.99 2.35 3.61 2.41 2.72 2.46 1.75 2.48 1.21 2.48 1.2 2.49 1.54 2.5 1.92 2.5 2.07 2.46L89.3.62l1.65 2.26 1.46 2.2 1.55 2.2 1.94 2.31 2.28 2.61.72 3.61" filter="url(#a)"/><path d="m50.26-38.91 1.05 2.36 1.44 2.86 1.69 2.73 2.15 2.53 2.63 2.42 2.86 2.38 2.78 2.41 2.54 2.46 2.24 2.49 1.88 2.52 1.47 2.53 1.08 2.52.76 2.51.58 2.49.51 2.45.49 2.42.48 2.41.42 2.4.33 2.45.23 2.5.11 2.57v2.64l-.03 2.68.03 2.68.24 2.66.57 2.61.87 2.56 1.02 2.51.87 2.5.48 2.48.09 2.43-.13 2.32-.28 2.23-.76 2.25-1.44 2.53" filter="url(#a)"/><path d="m48.81-43.29 1.09 2.22 1.83 2.24 2.4 2.46 2.4 2.61 1.95 2.6 1.37 2.52.85 2.45.44 2.43.17 2.43.06 2.46.14 2.49.37 2.52.7 2.52 1.02 2.52 1.27 2.51 1.39 2.49 1.35 2.46 1.21 2.42 1.03 2.41.83 2.41.69 2.44.58 2.51.5 2.57.42 2.64.34 2.68.21 2.69.06 2.67-.16 2.61-.44 2.56-.72 2.51-.84 2.51-.66 2.5-.17 2.45.27 2.31.18 2.1-.08 2.18m-22.05-89.1-1.3 2.19-5.12 2.19-4.6 2.43-2.13 2.57-.05 2.58 1.03 2.5 1.24 2.41.9 2.37.3 2.38-.41 2.42-1.12 2.46-1.69 2.48-1.97 2.5-1.88 2.49-1.52 2.51-1.18 2.51-1.13 2.46L26.73.55l-1.96 2.29-2.38 2.2-2.72 2.21-3.34 2.32-4.41 2.63-4.78 3.61" filter="url(#a)"/><path d="m47.36-46.36 9.6 2.72 2.08 2.4 3.03 2.37 3.39 2.49 2.39 2.56.93 2.57-.36 2.52-1.12 2.46-1.31 2.43-1.03 2.44-.44 2.47.22 2.49.81 2.51 1.27 2.52 1.6 2.52 1.84 2.51 2.05 2.49 2.23 2.46L76.87.99l2.31 2.41 2.17 2.41 1.92 2.44 1.68 2.49 1.52 2.58 1.42 2.64 1.32 2.69 1.08 2.7.66 2.67.12 2.62-.35 2.54-.56 2.51-.43 2.51.05 2.55.8 2.5 1.31 2.27.37 1.72" filter="url(#a)"/><path d="m44.95-51.57 1.62 1.93 2.56 1.88 2.17 2.01 1.51 2.15 1.32 2.27 1.54 2.37 1.88 2.45L59.66-34l2.12 2.52 1.91 2.5 1.57 2.47 1.15 2.46.77 2.45.44 2.46.21 2.49.07 2.51.02 2.51.07 2.52.2 2.52.38 2.49.55 2.46.69 2.42.77 2.4.78 2.4.73 2.42.64 2.48.54 2.57.42 2.65.29 2.72.14 2.75-.04 2.71-.19 2.62-.18 2.48.04 2.36.11 2.55-.73 3.39" filter="url(#a)"/><path d="m44.95-51.57 4.98 1.91 3.84 1.85 1.18 1.97.34 2.12.6 2.22L57-39.17l1.48 2.43 1.66 2.49 1.67 2.5 1.58 2.48 1.48 2.44 1.46 2.4 1.58 2.4 1.87 2.43L72-17.15l2.51 2.48 2.55 2.49 2.31 2.5 1.86 2.52 1.39 2.56 1.17 2.54L85.22.36l2.28 2.21 3.3 2.12 2.58 2.67" filter="url(#a)"/><path d="m44.12-53.49 2.11 2.54 1.72 2.28 1 2.02.91 1.99 1.27 2.07 1.69 2.18 1.89 2.26 1.83 2.33 1.61 2.38 1.36 2.4 1.15 2.42.97 2.41.81 2.42.69 2.45.65 2.47.71 2.5.9 2.53 1.18 2.53 1.45 2.53 1.65 2.54 1.65 2.53 1.44 2.55 1.08 2.56.7 2.59.48 2.58.56 2.55.85 2.51 1.09 2.62.75 3.02-.15 3.6" filter="url(#a)"/><path d="m43.33-54.65 1.65 2.6 1.06 2.14.94 1.99 1.01 2.03 1.15 2.11 1.23 2.22 1.22 2.32 1.14 2.42.99 2.47.84 2.5.74 2.48.7 2.44.72 2.4.75 2.4.77 2.42.71 2.46.61 2.48.53 2.48.49 2.5.52 2.52.58 2.58.65 2.6.71 2.45.66 2.02.26 1.57" filter="url(#a)"/><path d="m43.47-54.75 1.1 1.7 1.03 2.15.96 2.14.89 2.05.86 2.04.84 2.11.83 2.18.83 2.27.84 2.34.84 2.38.83 2.41.78 2.42.7 2.43.61 2.44.5 2.46.41 2.49.34 2.51.29 2.53.26 2.54.25 2.55.23 2.55.22 2.55.2 2.57.16 2.57.13 2.59.09 2.6.03 2.61-.02 2.63-.08 2.66-.13 2.69-.2 2.66-.27 2.55-.38 2.41-.55 2.51-.62 2.87m-12.8-85.16 1.61 1.68 2.16 2.13 2.32 2.12 2.91 2.03 3.73 2.01 4.22 2.07 4 2.15 3.11 2.24 1.95 2.31 1.04 2.36.65 2.39.77 2.4 1.16 2.4 1.57 2.39 1.9 2.42 2.15 2.46 2.42 2.49 2.69 2.52 2.97 2.53 3.15 2.53 3.17 2.51 3.07 2.49 3.02 2.46 3.1 2.44 3.3 2.64 3.76 3.5" filter="url(#a)"/><path d="m42.77-56 .01 1.77-.21 2.11-.05 2.06.39 2 .87 2.03 1.1 2.1.98 2.2.6 2.29.05 2.39-.55 2.46-1.02 2.5-1.3 2.47-1.31 2.42-1.14 2.37-.89 2.36-.69 2.4-.59 2.47-.57 2.5-.62 2.46-.79 2.36-1.35 2.22-2.59 1.9" filter="url(#a)"/><path d="M40.36-59.89 42.07-57l1.39 2.06 1.65 1.95 2.13 2.01 2.39 2.03 2.34 2.02 2.13 2.05 2 2.09 2.06 2.16 2.34 2.23 2.65 2.3 2.86 2.36 2.8 2.39 2.48 2.4 1.98 2.4 1.49 2.4 1.2 2.43 1.25 2.46 1.63 2.5 2.22 2.53 2.78 2.53 2.97 2.53 2.64 2.53 2 2.49 1.61 2.47L94.9.77l2.05 2.65 1.1 3.5" filter="url(#a)"/><path d="M40.36-59.89 42.14-57l1.51 2.06 1.55 1.96 1.69 2.01 1.79 2.03 1.78 2.03 1.72 2.05 1.64 2.09 1.49 2.17 1.25 2.24.96 2.3.66 2.36.49 2.39.48 2.4.65 2.41.93 2.41 1.19 2.43 1.34 2.47 1.33 2.5 1.18 2.52 1.02 2.54.94 2.53 1 2.52 1.12 2.51 1.17 2.51L72.07.98l.81 2.71.48 3.02-.25 3.17M39.47-61.09l9.23 1.86.75 2.16.05 2.05 1.09 2.01 1.91 2.03 1.92 2.04 1.33 2.05.68 2.07.38 2.12.47 2.19.83 2.25 1.3 2.32 1.76 2.36 2.16 2.4 2.52 2.41 2.79 2.43 2.91 2.43 2.84 2.46 2.58 2.49 2.18 2.51 1.77 2.52 1.5 2.55 1.49 2.54 1.82 2.55 2.43 2.55 3.13 2.56 3.63 2.58 3.62 2.59 2.96 2.59 1.8 2.58.62 2.59.1 2.68.65 2.91 1.83 3.12 2.18 2.83" filter="url(#a)"/><path d="m38.1-62.88 6.31 2.68 5.21 2.18 1.81 1.96.41 1.94.43 1.98.82 2.02 1.23 2.05 1.69 2.1 2.26 2.16 2.87 2.25 3.35 2.33 3.53 2.41 3.37 2.45 2.96 2.49 2.48 2.48 2.15 2.46L81-24.48l2.06 2.45 2.1 2.46 1.97 2.48 1.6 2.5 1.08 2.51.62 2.53.47 2.52.7 2.52 1.23 2.48L94.69.39l2.43 2.35 2.92 2.28 3.35 2.29 3.62 2.38 3.38 2.57 2.4 2.77 2.93 2.38" filter="url(#a)"/><path d="m36.93-64.47 1.57 1.98 1.62 2.24 1.35 2.11 1.18 2.01 1.1 1.98 1.08 1.99 1.04 2.02.98 2.06.91 2.11.85 2.18.83 2.25.8 2.34.78 2.4.75 2.45.73 2.48.68 2.48.63 2.48.58 2.46.53 2.46.47 2.47.43 2.49.38 2.5.34 2.52.28 2.53.23 2.52.18 2.51.14 2.47.09 2.43.04 2.37v2.34l-.04 2.35-.09 2.43-.15 2.56-.21 2.68-.3 2.76-.42 2.78-.44 2.79" filter="url(#a)"/><path d="m37.44-63.91.67 1.04 1.03 1.69 1.15 1.95 1.16 2.04 1.11 2.04 1.04 2.03.98 2.04.92 2.04.88 2.06.86 2.08.83 2.13.8 2.18.77 2.25.71 2.31.66 2.35.6 2.39.56 2.41.5 2.43.45 2.44.41 2.46.35 2.48.3 2.51.25 2.53.18 2.55.14 2.54.07 2.55.02 2.55-.04 2.56-.07 2.58-.09 2.6-.11 2.6-.14 2.56-.19 2.52-.3 2.64-.5 3.03-.76 3.62" filter="url(#a)"/><path d="m35.9-65.9 1.08 1.57 1.27 1.95 1.21 2.09.99 2.07.76 2.01.58 2 .47 2 .45 2.03.5 2.06.57 2.11.65 2.17.66 2.26.63 2.32.59 2.4.55 2.45.51 2.48.5 2.48.47 2.47.42 2.46.34 2.46.25 2.47.12 2.49-.01 2.5-.15 2.52-.28 2.53-.41 2.53-.51 2.51-.61 2.48L46.83.4l-.72 2.36-.76 2.32-.79 2.33-.79 2.41-.72 2.56-.63 2.71-.62 2.77-1.21 2.86" filter="url(#a)"/><path d="m34.58-67.23 1.43 1.35 1.79 1.59 2.25 1.87 2.56 2 2.77 2.01 2.9 1.98 2.83 1.97 2.56 1.97 2.18 1.99 1.82 2.02 1.62 2.05 1.6 2.11 1.68 2.19 1.78 2.27 1.82 2.37 1.77 2.45 1.72 2.5 1.8 2.49 2.11 2.44 2.56 2.36L79-22.93l2.74 2.38 2.11 2.57 1.4 2.74 2.02 2.55" filter="url(#a)"/><path d="m34.58-67.23 2.81 1.36 2.91 1.61 1.91 1.88 1.4 2 1.24 2.02 1.19 2 1.12 1.98 1.15 1.99 1.25 2.01L51-48.35l1.59 2.08 1.68 2.14 1.69 2.21 1.64 2.3 1.54 2.38 1.38 2.44 1.2 2.48 1 2.48.87 2.45.83 2.42.91 2.41 1.05 2.44 1.19 2.47 1.32 2.5 1.44 2.49 1.58 2.43 1.65 2.43 1.5 2.59.47 3.3M31.71-70.29l-1.16-1.17-1.24-1.15L28-73.73l-1.37-1.08-1.41-1.06-1.44-1.03-1.48-.99-1.54-.97-1.6-.92-1.66-.86-1.7-.8-1.72-.72-1.71-.64-1.67-.55-1.65-.48-1.66-.39-1.69-.32-1.74-.27-1.76-.2-1.7-.13-1.69-.01-2.07.19" filter="url(#a)"/><path d="m32.44-69.89-2.05-2-1.33-1.46-.97-1.24-.94-1.14-1.16-1.08-1.45-1.03-1.69-.97-1.85-.9-1.89-.84-1.88-.77-1.85-.7-1.83-.62-1.84-.55-1.83-.47-1.85-.39-1.85-.3-1.85-.22-1.85-.14-1.88-.06-1.9.01-1.96.08-2.01.15-2.06.22-2.11.3-2.12.36-2.12.43-2.13.51-2.17.59-2.24.7-2.36.82-2.44.92-2.44.99-2.31.99-2.16.98-1.93 1.11" filter="url(#a)"/><path d="m30.88-71.41-1.54-1.3-1.35-1.12-1.4-1.1L25.15-76l-1.5-1.03-1.55-1-1.61-.97-1.66-.91-1.71-.84-1.74-.78-1.73-.69-1.73-.61-1.71-.52-1.7-.45-1.7-.36-1.71-.28-1.7-.21-1.71-.14L0-84.84l-1.68.02-1.67.1-1.66.19-1.66.26-1.65.35-1.65.43-1.64.5-1.61.57-1.57.64-1.55.7-1.5.77-1.46.82-1.39.89-1.39.92-1.33.83" filter="url(#a)"/><path d="m30.88-71.41-1.45-1.3-1.26-1.12-1.22-1.09-1.24-1.07-1.29-1.03-1.4-1-1.49-.97-1.57-.91-1.61-.85-1.64-.77-1.67-.7-1.7-.61-1.75-.53-1.79-.44-1.85-.37-1.91-.29-1.95-.21-1.98-.14-2.01-.06-2.01.02-2.02.09-2.07.18-2.11.26-2.17.34-2.23.42-2.25.5-2.25.57-2.22.62-2.2.69-2.25.77-2.13.8-1.05.53" filter="url(#a)"/><path d="m29.01-73.09 3.37-.79 1.34-1.08-1.69-1.07-2.52-1.04-2.29-1-2.02-.96-1.97-.91-2.06-.85-2.15-.77-2.16-.69-2.08-.61-1.99-.52-1.96-.44-1.98-.36-2.06-.29-2.2-.21-2.34-.14-2.5-.06-2.64.02-2.8.1-2.94.18-3.08.26-3.22.34-3.39.42-3.61.5-3.9.57-4.21.63-4.48.68-4.61.77-4.25.8-1.77.53" filter="url(#a)"/><path d="m29.01-73.09-.98-.79-1.32-1.08-1.4-1.07-1.45-1.03-1.52-1-1.58-.96-1.66-.91-1.71-.85-1.73-.78-1.74-.69-1.73-.61-1.72-.52-1.71-.44-1.72-.37-1.73-.29-1.75-.21-1.75-.14-1.75-.06-1.74.01-1.73.1-1.74.17-1.75.26-1.76.33-1.77.43-1.76.5-1.73.56-1.7.62-1.72.68-1.87.82-2.39 1.23" filter="url(#a)"/><path d="m28.55-73.44-1.73-1.51-1.18-1.12-1.24-1.03-1.45-.99-1.65-.96-1.76-.91-1.82-.85-1.82-.78-1.79-.69-1.75-.61-1.72-.52-1.71-.44-1.72-.36-1.74-.29-1.79-.22-1.81-.15-1.84-.06-1.85.01-1.89.09-1.94.16-2 .25-2.05.33-2.08.41-2.05.51-1.98.58-1.93.6-2.27.59" filter="url(#a)"/><path d="m26.02-75.48-.89-.75-1.26-.95-1.37-.99-1.43-.97-1.55-.91-1.67-.85-1.73-.77-1.73-.68-1.72-.59-1.72-.5-1.75-.43-1.8-.34-1.88-.27-1.93-.19-1.97-.11-2.01-.03-2.03.04-2.06.13-2.1.21-2.15.28-2.19.37-2.23.45-2.24.52-2.22.59-2.16.65-2.08.72-2 .78-1.92.84-1.91.9-1.97.98-2.14 1.05-2.36 1.13-2.62 1.22-2.82 1.27-2.94 1.36-3.07 1.62-3.66 2.64" filter="url(#a)"/><path d="m25.5-75.96-1.74-1.2-1.51-1.03-1.42-.97-1.36-.92-1.33-.85-1.35-.77-1.38-.68-1.47-.59-1.6-.5-1.76-.43-1.95-.34-2.12-.27-2.22-.2-2.28-.12-2.3-.04-2.3.03-2.33.12-2.37.19-2.44.28-2.53.36-2.63.43-2.76.51-2.9.58-3.04.64-3.15.7-3.18.77-3.09.82-2.99.86-2.95.88-3.06.83-3.47.7" filter="url(#a)"/><path d="m25.5-75.96-1.38-1.2-1.62-1.03-1.6-.98-1.44-.92-1.33-.85-1.36-.77-1.49-.67-1.69-.59-1.85-.51-1.96-.42-2.02-.34-2.05-.27-2.07-.19-2.1-.12-2.14-.04-2.19.04-2.27.11-2.38.2-2.51.28-2.65.36-2.79.44-2.9.51-2.95.58-2.94.65-2.87.7-2.79.77-2.73.82-2.74.87-2.88.92-3.19 1-3.8 1.23-5.45 1.97" filter="url(#a)"/><path d="m22.22-78.42-1.28-.74-1.43-.84-1.44-.8-1.51-.74-1.62-.68-1.74-.61-1.82-.54-1.85-.46-1.83-.38-1.8-.28-1.75-.21-1.73-.13-1.73-.06-1.74.01-1.78.07-1.83.14-1.87.21-1.9.29-1.88.34-1.8.4-1.65.43-1.59.48-2.27.75" filter="url(#a)"/><path d="m22.22-78.42-1.33-.74-1.58-.85-1.68-.8-1.72-.74-1.74-.68-1.76-.61-1.76-.54-1.74-.45-1.7-.37-1.68-.29-1.64-.2-1.63-.12-1.62-.06-1.63.02-1.63.08-1.65.15-1.67.22-1.66.28-1.64.36-1.59.4-1.52.47-1.48.52-1.53.63-1.58.74-1.37.89" filter="url(#a)"/><path d="m22.22-78.42 1.13-.75-2.09-.86-2.38-.81-2.13-.74-1.95-.68-1.87-.6-1.84-.53-1.82-.45-1.81-.35-1.81-.27-1.8-.19-1.81-.1-1.84-.04-1.88.04-1.93.12-1.99.18-2.03.25-2.07.33-2.1.39-2.13.48-2.18.56-2.25.64-2.32.73-2.39.82-2.4.9-2.37.97-2.3 1.02-2.2 1.08-2.16 1.14-2.17 1.2-2.28 1.29-2.44 1.35-2.6 1.41-2.71 1.44-2.77 1.46-2.71 1.56-2.63 1.83" filter="url(#a)"/><path d="m22.22-78.42-.23-.74.38-.85-.77-.8-1.98-.74-2.51-.68-2.47-.61-2.22-.54-1.98-.45-1.87-.37-1.86-.29-1.95-.2-2.07-.12-2.24-.06-2.4.02-2.55.08-2.66.15-2.72.22-2.75.28-2.77.36-2.81.4-2.9.47-3.11.52-3.43.63-3.75.74-3.8.89" filter="url(#a)"/><path d="m20.04-79.59-1.56-.69-1.72-.84-1.79-.77-1.78-.66-1.73-.57-1.69-.48-1.67-.39-1.69-.33-1.69-.25-1.7-.17-1.69-.1-1.67-.02-1.66.06-1.64.15-1.63.22-1.63.3-1.62.39-1.63.46-1.6.53-1.57.6-1.54.67-1.5.73-1.45.79-1.42.85-1.4.92-1.39 1-1.39 1.07-1.4 1.15-1.4 1.25-1.39 1.35-1.38 1.47-1.37 1.6-1.33 1.7-1.19 1.67-.99 1.52-1.21 1.98" filter="url(#a)"/><path d="m19.22-80.07-1.31-1.05-2.08-.83-1.89-.65-1.71-.56-1.66-.47-1.69-.39-1.76-.33-1.83-.25-1.88-.19-1.93-.11-1.96-.03-2 .04-2.06.13-2.12.2-2.19.28-2.24.36-2.29.44-2.35.51-2.42.58-2.53.64-2.63.7-2.74.76-2.83.83-2.91.87-2.9.92-2.43.82" filter="url(#a)"/><path d="m17.32-81.24-2.37-.85-1.75-.6-1.67-.52-1.65-.46-1.65-.39-1.68-.32-1.72-.25-1.73-.18-1.72-.1-1.69-.03-1.67.05-1.65.13-1.64.21-1.63.29-1.61.36-1.6.45-1.58.51-1.56.59-1.54.64-1.52.71-1.49.76-1.41.82-1.33.86-1.25.87-1.16.82-.95.7" filter="url(#a)"/><path d="m15.6-81.69-1.49-.72-1.72-.64-1.67-.53-1.58-.43-1.54-.34-1.6-.24-1.74-.16-1.89-.09-2.04-.01-2.17.05-2.3.13-2.41.19-2.51.27-2.55.33-2.55.42-2.47.48-2.38.57-2.28.66-2.22.74-2.18.84-2.2.9-2.25.98-2.35 1.03-2.53 1.09-2.78 1.14-3.07 1.22-3.34 1.28-3.5 1.35-3.54 1.41-3.53 1.44-3.65 1.48-3.93 1.52-4.17 1.58-3.81 1.7-2.17 2.09" filter="url(#a)"/><path d="m14-82.42-.95-.36-1.49-.48-1.58-.46-1.61-.39-1.68-.3-1.76-.25-1.81-.17-1.82-.09-1.81-.02-1.81.07-1.81.14-1.83.23-1.86.3-1.87.38-1.87.46-1.86.53-1.83.6-1.81.66-1.79.72-1.78.77-1.78.84-1.79.9-1.82.96-1.85 1.05-1.92 1.13-1.97 1.22-1.94 1.22-1.73 1.11-1.2.76" filter="url(#a)"/><path d="m14-82.42-.68-.36-1.09-.49-1.3-.46-1.6-.38-1.91-.31-2.09-.23-2.16-.17-2.15-.08-2.11-.01-2.07.08-2.08.16-2.11.24-2.17.32-2.27.4-2.38.47-2.48.55-2.58.61-2.6.68-2.6.75-2.54.8-2.52.88-2.54.94-2.65 1.01-2.84 1.1-3.05 1.18-3.21 1.28-3.29 1.37-3.27 1.47-3.16 1.55-2.95 1.6-2.71 1.63-2.58 1.62-2.73 1.62-3.32 1.65-4.04 1.68-3.87 1.62-2.34 1.39" filter="url(#a)"/><path d="m13.5-82.68-1.9-.57-1.67-.51-1.45-.39-1.5-.3-1.68-.24-1.85-.17-1.97-.09-2.06-.01-2.13.06-2.24.15-2.37.22-2.54.31-2.7.38-2.87.46-3.03.53-3.13.59-3.18.66-3.19.72-3.16.77-3.1.84-3.05.88-3 .96-3.04 1.03-3.27 1.15-3.73 1.25-4.1 1.3-3.84 1.46" filter="url(#a)"/><path d="m11.8-83.18-1.58-.53-1.71-.41-1.71-.32-1.68-.23-1.67-.15-1.67-.07-1.72-.01-1.79.05-1.86.13-1.93.19-2 .26-2.04.34-2.1.4-2.16.47-2.28.56-2.42.64-2.56.74-2.63.83-2.59.91-2.47.97-2.34 1.02-2.28 1.06-2.36 1.11-2.52 1.19-2.65 1.29-2.67 1.37-2.53 1.41-2.44 1.42-3.03 1.82" filter="url(#a)"/><path d="m10.28-83.88-1.85-.3-1.77-.31-1.68-.23-1.65-.13-1.63-.07H.05l-1.67.07-1.7.14-1.71.2-1.72.28-1.71.35-1.71.42-1.69.5-1.68.58-1.69.66-1.71.76-1.71.85-1.71.91-1.68.99-1.65 1.04-1.61 1.09-1.58 1.16-1.54 1.22-1.53 1.29-1.49 1.35-1.46 1.41-1.41 1.44-1.36 1.49-1.35 1.54-1.33 1.59-1.32 1.65-1.29 1.71-1.27 1.74-1.3 1.89" filter="url(#a)"/><path d="m8.35-84.17-.42-.14-1.32-.22-1.71-.22-1.89-.16L1-84.99h-2.1l-2.22.09-2.32.17-2.39.25-2.42.34-2.37.41-2.26.48-2.13.56-2.03.63-1.99.68-2.07.75-2.22.82-2.46.87-2.7.95-2.93 1.02-3.07 1.11-3.14 1.19-3.12 1.28-3.04 1.38-2.96 1.47-2.91 1.54-2.91 1.6-2.95 1.62-3.14 1.63-3.5 1.63-4.05 1.67-4.48 1.73-4.28 1.85-3.19 2.18-2.1 3.24" filter="url(#a)"/><path d="m8.35-84.17.22-.14-1.51-.22-1.96-.22-1.97-.16-1.9-.09H-.6l-1.8.08-1.82.16-1.9.23-2.01.32-2.19.39-2.38.47-2.57.54-2.72.61-2.81.67-2.8.72-2.7.79-2.57.84-2.5.91-2.54.97-2.7 1.05-2.87 1.13-2.94 1.21-2.89 1.27-2.99 1.34-3.82 1.61-5.97 2.63" filter="url(#a)"/><path d="m8.4-84.07-1.74-.47-1.63-.23-1.73-.12-1.86-.05h-2l-2.09.07-2.1.14-2.08.21-2.08.28-2.13.35-2.22.43-2.35.5-2.47.59-2.57.67-2.63.76-2.65.85-2.67.92-2.73.99-2.83 1.04-2.98 1.1-3.1 1.17-3.15 1.22-3.07 1.29-2.9 1.35-2.74 1.41-2.75 1.45-3 1.5-3.49 1.54-4.02 1.59-4.36 1.66-4.25 1.71-3.61 1.78-3.18 1.87-5.06 2" filter="url(#a)"/><path d="m8.4-84.07-1.78-.46-1.61-.24-1.65-.12-1.66-.05H0l-1.74.07-1.78.13-1.82.21-1.83.27-1.83.35-1.84.42-1.84.49-1.86.58-1.88.66-1.88.76-1.89.84-1.9.92-1.89.98-1.91 1.03-1.93 1.09-1.93 1.15-1.91 1.21-1.87 1.28-1.82 1.36-1.78 1.4-1.79 1.43-1.86 1.48-1.96 1.51-1.96 1.58-1.82 1.7-1.98 2.08" filter="url(#a)"/><path d="m7.24-84.34-2.64-.45L2.58-85l-1.82-.07-1.83.02-1.97.1-2.12.18-2.28.26-2.43.34-2.54.42-2.62.5-2.62.56-2.55.64-2.45.69-2.37.76-2.39.81-2.55.89-2.84.95-3.14 1.03-3.39 1.1-3.51 1.2-3.51 1.29-3.48 1.38-3.48 1.47-3.59 1.55-3.76 1.59-3.92 1.62-3.97 1.64-3.93 1.64-3.86 1.69-3.92 1.78-4.12 1.91-4.57 2.17-5.17 2.49-4.21 2.4" filter="url(#a)"/><path d="m7.24-84.34-2.78-.45-1.98-.2-1.46-.09-1.25.01-1.23.1-1.32.16-1.39.24-1.39.32-1.27.39-1.07.48-.86.54-.71.6-.64.67-.63.72-.62.77-.47.84-.09.88.5.95 1.15 1.04 1.53 1.14 1.25 1.25.45 1.29.76 1.45" filter="url(#a)"/><path d="m5-84.86-1.63-.08-1.66-.05H-.04l-1.9.07-2.04.14-2.12.22-2.12.29-2.09.36-2.06.42-2.09.5-2.18.59-2.29.67-2.36.77-2.37.85-2.32.93-2.27.99-2.23 1.04-2.3 1.1-2.46 1.16-2.72 1.22-2.99 1.29-3.21 1.35-3.31 1.4-3.27 1.45-3.15 1.49-3.05 1.53-3.06 1.59-3.15 1.65-3.13 1.7-2.81 1.74-1.81 1.88" filter="url(#a)"/><path d="m5-84.86-1.76-.08-1.68-.05H-.11l-1.73.08-1.77.14-1.8.22-1.82.3-1.84.36-1.88.44-1.92.51-1.97.6-2.01.69-2.06.77-2.07.87-2.07.93-2.04 1-1.98 1.06-1.93 1.11-1.88 1.18-1.88 1.24-1.92 1.3-2 1.36-2.11 1.42-2.18 1.46-2.19 1.51-2.13 1.57-2.03 1.62-1.95 1.69-1.98 1.76-2.12 1.84-2.28 1.94-2.35 2.03-2.28 2.11-2.17 2.19-2.23 2.2-1.9 1.65" filter="url(#a)"/><path d="m5-84.86-1.79-.08-1.67-.05H-.18l-1.83.07-1.98.14-2.1.22-2.15.28-2.12.36-2.02.42-1.94.5-1.9.58-1.97.68-2.13.76-2.36.85-2.65.93-3 .98-3.37 1.04-3.73 1.1-4.06 1.15-4.3 1.22-4.47 1.28-4.56 1.35-4.55 1.41-4.44 1.44-4.23 1.48-3.96 1.52-3.68 1.58-3.34 1.65-2.72 1.7-1.5 1.49" filter="url(#a)"/><path d="m3.06-84.97-1.62-.04-1.52-.01-1.58.07-1.6.14-1.59.21-1.54.28-1.49.36-1.39.41-1.31.48-1.26.56-1.3.66-1.39.75-1.49.84-1.55.92-1.52.98-1.4 1.02-1.23 1.05-1.08 1.11-.94 1.19-.83 1.28-.71 1.37-.62 1.4-.63 1.41-.78 1.81" filter="url(#a)"/><path d="m2.24-84.97-1.61-.18-1.66.02-1.72.12-1.72.2-1.73.27-1.76.35-1.82.43-1.89.51-1.97.58-2.01.65-2 .7-1.95.77-1.88.83-1.83.9-1.78.97-1.76 1.04-1.75 1.13-1.73 1.21-1.71 1.31-1.69 1.39-1.69 1.48-1.7 1.54-1.73 1.6-1.75 1.62-1.76 1.66-1.78 1.69-1.82 1.75-1.92 1.82-2.06 1.92-2.21 1.99-2.3 2.04-2.27 2.04-2.04 2.03-1.64 2.1-1.26 2.25-1.55 2.42" filter="url(#a)"/><path d="m1.19-85.02-1.34-.02-1.7.07-1.83.15-1.88.23-1.86.31-1.81.37-1.74.44-1.7.52-1.7.61-1.75.7-1.81.79-1.85.88-1.89.94-1.92 1.01-1.93 1.07-1.94 1.13-1.94 1.18-1.95 1.25-1.95 1.31-1.95 1.37-1.98 1.42-1.99 1.48-2.01 1.52-2.01 1.58-1.96 1.64-1.91 1.7-1.83 1.78-1.77 1.86-1.72 1.94-1.71 2.01-1.75 2.06-1.85 2.08-1.95 2.08-2.06 2.09-2.1 2.2-1.98 2.52-1.37 2.55" filter="url(#a)"/></g><path fill="none" stroke="#000" stroke-linejoin="round" stroke-width="3" d="M-7.14 1.03Q7.69 3.525.275-4.96" filter="url(#a)"/><path fill="#66CC8B" stroke="#000" stroke-linejoin="round" stroke-width="3" d="m19.87 56.08.05-.5-.27.62-.12.65-.09.13-.04.4-.56.82-.42.45-.48.56-.14.24-.22.35.39-.41-.51.3-.67.74-.54.27-.25.21-.65.47.06-.09-.95.63-.74.31-.64.31h-.11l-.34.25-1.3.46-.57.09-.7.25.02.01.39-.18-.42.2-1.84.34-.09.08-.12-.02-.37.1-1.66.28.4-.05-.94.1-.85.04-.69.06-.49.03-1.72.04-.79.03-.77-.02-.23-.03-.7-.02-2.33-.16-1.02-.12-.86-.12 1.39.17-1.53-.18-1.32-.22-1.43-.28.52.11-.65-.13-1.44-.33.5.13-2.85-.75.2.06-1.31-.42.82.27-1.18-.38.09.01-1.74-.6-.3-.16-.55-.2-1.94-.85-.07-.02-.86-.42-.62-.32-.71-.43-.43-.24.48.3-1.08-.66-.52-.35-.7-.47.53.34-1.67-1.11-.2-.24-1.28-1.03.52.38-.23-.15-.67-.75-.96-1.06.04.1.08.22-1.22-1.71.4.64-.45-.56.06-.13-.83-1.49-.24-.43.32.9-.57-1.61-.15-.68-.14-.43v.24l.14.13-.07-1.06-.09.35.07-.65.02-.02.07-1.83.27-.36.06-.14-.25.59.53-1.61-.1.48.01-.4.83-1.02-.18.2.69-1.01v.23l-.15-.05.37-.2-.08-.15 1.04-.8-.02-.02.96-.65.48-.39.55-.24 1.23-.54.21-.08v-.12l-.18.05.36-.15.75-.27.56-.11.19-.17 2.73-.66.16-.06 1.15-.19.31-.1-.1.04 1.67-.19-.61.08-.06-.02 2.96-.26-1.05.08 1.13-.08 1.29-.03 1.87.01-1.65-.02.42-.02 2.3.08.4.01 1.75.15.46.06-.27-.04.92.1 1.14.17 1.17.19.56.1 1.64.33-.2-.05.36.09 1.17.29-.58-.16 1.31.33 1.65.48 1.66.55-.48-.16 1.29.49 1.04.38-.48-.18.5.19 2.18.96-.28-.16.59.3.67.33.78.49-.14-.15.72.43 1.4.89.18.13.43.26-.16-.1.79.51 1.13.96.29.17.55.61-.24-.23.41.39.79.69.54.77.01.02.46.44.12.26.81 1.23-.19-.38.32.68-.16-.26.74 1.64-.37-.8.22.68.26.31.31 1.49-.19-.41.04.93-.02.02-.03 1.05.07-.36" filter="url(#a)"/></svg>