<svg viewBox="-100 -100 200 200" xmlns="http://www.w3.org/2000/svg" width="500" height="500" id="face-svg">
    <defs>
      <clipPath id="leftEyeClipPath">
        <polyline points="32.64,-6.34 32.21,-6.9 31.74,-7.48 31.24,-8.07 30.71,-8.67 30.15,-9.28 29.56,-9.89 28.95,-10.51 28.31,-11.13 27.64,-11.74 26.96,-12.35 26.25,-12.96 25.53,-13.56 24.79,-14.15 24.03,-14.73 23.27,-15.29 22.35,-16.1 21.42,-16.88 20.47,-17.63 19.51,-18.35 18.54,-19.05 17.56,-19.7 16.58,-20.32 15.59,-20.91 14.6,-21.45 13.6,-21.95 12.6,-22.41 11.61,-22.83 10.61,-23.2 9.62,-23.53 8.63,-23.81 7.65,-24.04 6.67,-24.23 5.7,-24.37 4.74,-24.47 3.79,-24.51 2.85,-24.52 1.93,-24.47 1.01,-24.39 0.11,-24.25 -0.78,-24.08 -1.65,-23.86 -2.51,-23.6 -3.35,-23.3 -4.18,-22.97 -4.98,-22.59 -5.77,-22.18 -6.54,-21.73 -7.3,-21.24 -8.03,-20.73 -8.74,-20.18 -9.43,-19.6 -10.11,-19 -10.76,-18.37 -11.39,-17.71 -12,-17.03 -12.59,-16.33 -13.16,-15.61 -13.71,-14.87 -14.23,-14.12 -14.74,-13.35 -15.22,-12.56 -15.69,-11.77 -16.13,-10.96 -16.56,-10.14 -16.96,-9.32 -17.35,-8.49 -17.71,-7.64 -18.06,-6.79 -18.4,-5.92 -18.71,-5.04 -19.01,-4.15 -19.28,-3.26 -19.54,-2.35 -19.79,-1.44 -20.01,-0.52 -20.22,0.41 -20.41,1.35 -20.58,2.29 -20.74,3.23 -19.08,9.93 -18.87,10.86 -18.64,11.77 -18.4,12.67 -18.13,13.55 -17.85,14.42 -17.56,15.26 -17.25,16.09 -16.93,16.89 -16.58,17.67 -16.23,18.42 -15.86,19.15 -15.47,19.84 -15.07,20.51 -14.65,21.15 -14.22,21.76 -13.77,22.35 -13.3,22.91 -12.82,23.44 -12.32,23.94 -11.81,24.4 -11.27,24.82 -10.73,25.2 -10.16,25.53 -9.58,25.82 -8.99,26.06 -8.38,26.26 -7.76,26.4 -7.12,26.49 -6.47,26.52 -5.8,26.51 -5.12,26.44 -4.43,26.32 -3.72,26.15 -3,25.92 -2.27,25.65 -1.52,25.32 -0.77,24.95 0,24.54 0.78,24.08 1.57,23.58 2.37,23.04 3.19,22.47 4.01,21.87 4.85,21.24 5.69,20.58 6.54,19.9 7.41,19.21 8.28,18.5 9.16,17.78 10.05,17.06 10.95,16.34 11.85,15.62 12.76,14.91 13.68,14.22 14.6,13.54 15.53,12.88 16.46,12.24 17.39,11.63 18.32,11.06 19.26,10.52 20.19,10.02 21.12,9.55 22.05,9.13 22.97,8.76 23.71,8.24 24.44,7.74 25.16,7.25 25.87,6.78 26.56,6.32 27.24,5.88 27.9,5.44 28.55,5.03 29.17,4.62 29.77,4.23 30.35,3.84 30.9,3.47 31.42,3.1 31.91,2.75 32.37,2.4" />
      </clipPath>
      <clipPath id="rightEyeClipPath">
        <polyline points="-30.97,-2.4 -30.67,-2.84 -30.33,-3.3 -29.97,-3.78 -29.58,-4.26 -29.17,-4.75 -28.73,-5.25 -28.26,-5.75 -27.77,-6.25 -27.25,-6.75 -26.72,-7.25 -26.16,-7.75 -25.59,-8.25 -24.99,-8.74 -24.38,-9.22 -23.75,-9.69 -23.05,-10.35 -22.32,-11 -21.57,-11.62 -20.8,-12.22 -20.01,-12.8 -19.2,-13.36 -18.37,-13.89 -17.53,-14.38 -16.67,-14.85 -15.8,-15.29 -14.91,-15.7 -14.01,-16.07 -13.1,-16.4 -12.18,-16.7 -11.25,-16.97 -10.32,-17.2 -9.37,-17.39 -8.43,-17.55 -7.47,-17.66 -6.52,-17.75 -5.56,-17.79 -4.61,-17.8 -3.65,-17.78 -2.7,-17.72 -1.75,-17.62 -0.8,-17.49 0.14,-17.33 1.07,-17.14 2,-16.91 2.92,-16.66 3.83,-16.37 4.73,-16.06 5.62,-15.72 6.49,-15.36 7.36,-14.98 8.21,-14.57 9.05,-14.14 9.87,-13.69 10.67,-13.23 11.46,-12.74 12.24,-12.25 12.99,-11.74 13.73,-11.22 14.45,-10.68 15.15,-10.14 15.84,-9.59 16.5,-9.04 17.15,-8.48 17.78,-7.92 18.39,-7.35 18.98,-6.79 19.55,-6.22 20.11,-5.64 20.65,-5.06 21.18,-4.47 21.69,-3.89 22.18,-3.3 22.66,-2.71 23.12,-2.12 23.56,-1.52 23.98,-0.93 24.39,-0.34 24.78,0.25 25.16,0.84 24.98,10.95 24.7,11.47 24.4,11.98 24.09,12.49 23.76,12.98 23.42,13.47 23.05,13.94 22.67,14.4 22.28,14.85 21.86,15.28 21.43,15.7 20.99,16.1 20.53,16.48 20.05,16.84 19.56,17.19 19.05,17.52 18.52,17.83 17.97,18.13 17.4,18.41 16.82,18.66 16.22,18.9 15.6,19.11 14.96,19.29 14.3,19.44 13.63,19.57 12.94,19.66 12.23,19.73 11.51,19.76 10.77,19.75 10.02,19.72 9.25,19.65 8.46,19.55 7.67,19.42 6.86,19.25 6.03,19.05 5.2,18.82 4.35,18.56 3.5,18.28 2.63,17.96 1.75,17.62 0.86,17.26 -0.03,16.87 -0.93,16.46 -1.84,16.04 -2.75,15.6 -3.67,15.14 -4.59,14.68 -5.52,14.21 -6.45,13.74 -7.38,13.26 -8.31,12.78 -9.24,12.31 -10.17,11.84 -11.1,11.38 -12.02,10.94 -12.95,10.51 -13.86,10.1 -14.77,9.71 -15.67,9.34 -16.57,8.99 -17.45,8.68 -18.33,8.39 -19.19,8.13 -20.04,7.9 -20.88,7.7 -21.59,7.39 -22.29,7.09 -22.98,6.79 -23.65,6.51 -24.31,6.24 -24.95,5.97 -25.57,5.72 -26.18,5.47 -26.76,5.23 -27.32,5 -27.86,4.77 -28.38,4.55 -28.87,4.33 -29.33,4.12 -29.76,3.91" />
      </clipPath>
      <filter id="fuzzy">
        <feTurbulence id="turbulence" baseFrequency="0.05" numOctaves="3" type="noise" result="noise" />
        <feDisplacementMap in="SourceGraphic" in2="noise" scale="2" />
      </filter>
      <linearGradient id="rainbowGradient" x1="0%" y1="0%" x2="100%" y2="0%">
        <stop offset="0%" style="stop-color: [object Object]; stop-opacity: 1" />
        <stop offset="50%" style="stop-color: [object Object]; stop-opacity: 1" />
        <stop offset="100%" style="stop-color: [object Object]; stop-opacity: 1" />
      </linearGradient>
    </defs>
    <rect x="-100" y="-100" width="100%" height="100%" fill="rgb(255, 253, 208)" />
    <polyline id="faceContour" points="77.04,-0.41 77.18,0.1 76.89,4.71 77.03,5.17 77.15,4.16 76.73,6.36 76.79,7.87 76.79,8.74 76.56,9.26 76.28,11.69 75.97,13.12 75.77,14.57 75.34,16.99 75.24,17.67 75.39,17.18 74.99,18.75 74.91,20.54 74.54,21.83 73.34,25.58 73.68,25 73.11,26.08 72.41,28.62 72.29,29.23 71.99,30.14 72.05,29.39 71.24,32.52 70.28,34.56 70.26,34.69 69.23,36.62 70.03,34.99 69.23,36.7 67.74,40.56 68.01,39.12 66.35,42.63 66.56,42.19 66.05,43.54 64.28,46.35 65.11,44.87 63.83,47.48 63.42,48.15 61.81,50.19 62.5,49.75 60.57,52.14 59.64,53.08 58.19,55.43 58.54,54.66 56.44,57.32 56.01,57.56 55.59,58.29 54.85,58.91 54.15,60.1 53.24,60.86 53.52,60.71 53.44,60.65 50.74,63.48 48.66,65.08 49.49,64.58 47.18,66.76 46.81,66.71 46.4,67.22 45.36,68.02 45.4,68.21 43.55,69.38 43.97,69.19 42.08,70.63 40.22,71.9 38.04,73.25 38.32,73.16 35.61,74.5 36.91,73.83 36.93,73.67 34.29,75.66 32.95,75.96 31.66,76.89 31.61,76.92 30.19,77.4 28.64,77.94 27.38,78.48 25.54,79.31 23.04,80.29 25.1,79.7 23.37,80.28 23.15,80.33 21.22,80.78 19.59,81.39 16.84,82.3 16.46,82.03 16.38,82.38 15.91,82.22 13.21,82.89 12.61,82.89 10.36,83.32 8.42,83.82 9.01,83.61 8.96,83.55 7.32,83.72 4.39,84.04 2.44,84.3 2.04,84.03 1.77,84.21 -1.1,84.18 -0.68,84.05 -3.34,84.04 -4.17,83.98 -5.6,83.85 -6.26,83.87 -5.77,83.87 -8.36,83.79 -11.12,83.33 -8.81,83.74 -11.16,83.4 -13.07,83.05 -15.23,82.42 -16.18,82.52 -16.18,82.16 -18.4,81.61 -19.41,81.67 -18.45,81.86 -21.74,80.69 -23.2,80.41 -23.18,80.29 -23.02,80.33 -25.27,79.27 -27.08,78.83 -27.52,78.43 -29.29,78.07 -29.34,77.64 -31.24,77.02 -32.76,76.35 -35.82,74.53 -35.14,74.7 -35.12,74.8 -36.27,74.26 -39.92,72.15 -39.26,72.59 -42.02,70.55 -40.92,71.05 -41.64,70.69 -43,69.98 -44.48,68.54 -46.32,67.15 -47.04,66.67 -48.56,65.16 -49,64.84 -49.8,64.28 -50.22,63.71 -51.1,62.76 -53.18,61.15 -51.92,62.37 -53.24,60.71 -55.41,58.5 -55.69,58.02 -56.36,57.34 -56.94,56.76 -57.98,55.15 -58.67,54.79 -59.83,53.26 -60.3,52.53 -60.61,51.64 -61.26,50.59 -61.8,50.49 -64.33,46.66 -64.36,46.33 -63.72,47.21 -65.85,44.21 -65.13,44.87 -65.86,43.54 -67.49,40.49 -66.95,41.72 -67.59,39.82 -68.69,38.62 -69.91,35.67 -69.67,35.96 -70.18,35.13 -71.23,32.08 -71.1,32.48 -71.84,30.14 -72.45,29.27 -72.5,28.16 -72.87,27.71 -73.75,24.55 -73.76,25.05 -73.81,24.66 -74.68,21.16 -74.62,21.9 -74.48,21.28 -75.07,19.18 -75.22,17.4 -75.6,15.8 -75.95,13.76 -76.24,12.47 -76.35,11.68 -76.51,9.47 -76.43,9.47 -76.79,6.49 -77.06,5.32 -77.06,6.16 -76.92,2.81 -77.08,0.54 -76.95,2.44 -77.28,-0.78 -77.03,-0.5 -77,-3.31 -76.77,-5.89 -76.92,-4.3 -77.02,-5.43 -76.64,-7.73 -76.93,-8.02 -76.36,-12.8 -76.23,-11.81 -76.2,-12.5 -76.09,-13.18 -75.7,-16.66 -75.95,-15.54 -75.08,-18.53 -75.17,-18.01 -74.84,-19.94 -74.3,-23.04 -74.03,-24.13 -74.16,-22.7 -73.21,-25.88 -73.02,-26.96 -72.13,-29.34 -71.68,-30.59 -71.65,-30.78 -71.52,-31.08 -70.63,-33.77 -70.07,-35.61 -69.88,-35.47 -69.06,-36.9 -68.71,-37.99 -68.89,-38.04 -67.82,-40.31 -66.74,-42.09 -66.19,-42.8 -65.51,-44.33 -65.71,-44.11 -64.5,-45.85 -64.43,-46.44 -62.92,-48.33 -62.01,-49.76 -61.97,-50.1 -61.25,-51.08 -60.92,-51.68 -59.47,-53.66 -59.2,-54.12 -57.31,-56.41 -56.82,-56.68 -56.38,-57.53 -56.25,-57.85 -54.39,-60.04 -53.93,-60.34 -54.17,-60.06 -52.58,-61.61 -50.98,-63.32 -50.99,-63.42 -50.49,-63.69 -48.66,-65.17 -47.55,-66.37 -44.88,-68.33 -44.19,-69.07 -43.44,-69.85 -43.97,-69.37 -42.33,-70.38 -41.31,-71.38 -41.5,-70.95 -38.54,-72.84 -38.78,-72.74 -37.13,-73.98 -35.81,-74.59 -34.04,-75.72 -34.23,-75.53 -33.28,-75.94 -30.25,-77.52 -31.09,-77.08 -30.22,-77.74 -29.05,-78.17 -27.7,-78.64 -26.56,-79.13 -24.16,-79.85 -23.27,-80.46 -21.3,-81.04 -21.96,-80.8 -21.21,-81.07 -19.77,-81.55 -18.63,-81.72 -16.57,-82.38 -15.81,-82.46 -12.84,-83.06 -12.44,-83.05 -13.77,-83.08 -9.63,-83.56 -8.58,-83.68 -8.71,-83.73 -7.44,-84.03 -7.6,-83.71 -4.54,-84.17 -3.3,-84.24 -1.1,-84.35 0.18,-84.12 0.59,-84.2 2.42,-84.44 2.02,-84.21 4.16,-84.15 4.71,-84.27 7.66,-83.94 5.44,-84.05 7.01,-83.8 10.5,-83.59 10.87,-83.29 10.59,-83.66 13.76,-83.1 15.25,-82.49 14.16,-82.97 17.98,-82.17 16.86,-82.42 18.27,-81.91 19.23,-81.81 22.99,-80.33 21.58,-80.99 23.88,-79.99 25.09,-79.86 24.57,-79.92 27.71,-78.84 28.87,-78.22 29.76,-77.82 32.43,-76.45 30.2,-77.54 33.1,-76.23 33.35,-75.99 33.65,-75.92 36.52,-74.14 37.66,-73.83 37.72,-73.46 39.78,-72.09 40.38,-72.06 40.63,-71.68 42.68,-70.29 44.32,-68.96 44.23,-69 44.47,-68.7 45.89,-67.79 47.75,-65.88 47.85,-65.92 49.32,-64.96 50.06,-64.08 51.04,-63.52 52.68,-61.54 52.98,-61.29 53.5,-60.88 54.36,-59.56 56.86,-57.18 55.82,-58.02 57.07,-56.56 56.91,-56.96 59.64,-53.56 59.72,-53.08 60.69,-52.02 61.44,-50.74 61.06,-51.47 61.93,-49.82 63.79,-47.31 63.73,-47.74 64.21,-46.76 65.72,-43.69 66.5,-42.96 65.85,-43.5 66.68,-42.71 67.94,-39.97 68.1,-39.92 67.97,-39.34 69.56,-36.68 69.99,-34.91 70.28,-34.23 71.46,-31.97 71.65,-31.05 71.72,-30.68 72.02,-30.23 72.67,-28.71 73.46,-26.27 73.75,-24.9 73.98,-23.6 74.11,-23.79 74.73,-21.55 74.44,-21.44 75.15,-18.4 75.41,-18.37 75.64,-16.24 75.53,-16.58 75.74,-14.31 76.21,-11.6 76.1,-12.07 76.45,-10.42 76.8,-7.65 76.85,-8.55 76.72,-7.51 76.87,-6.28 77.07,-3.21 77.2,-2.2 77.16,-0.92 77.04,-0.41 77.18,0.1" fill="rgb(128, 128, 0)" stroke="black" stroke-width="1.6666666666666665" stroke-linejoin="round" filter="url(#fuzzy)" />
    <g transform="translate(36.739999999999995 -23.689999999999998)">
      <polyline id="rightCountour" points="-30.97,-2.4 -30.67,-2.84 -30.33,-3.3 -29.97,-3.78 -29.58,-4.26 -29.17,-4.75 -28.73,-5.25 -28.26,-5.75 -27.77,-6.25 -27.25,-6.75 -26.72,-7.25 -26.16,-7.75 -25.59,-8.25 -24.99,-8.74 -24.38,-9.22 -23.75,-9.69 -23.05,-10.35 -22.32,-11 -21.57,-11.62 -20.8,-12.22 -20.01,-12.8 -19.2,-13.36 -18.37,-13.89 -17.53,-14.38 -16.67,-14.85 -15.8,-15.29 -14.91,-15.7 -14.01,-16.07 -13.1,-16.4 -12.18,-16.7 -11.25,-16.97 -10.32,-17.2 -9.37,-17.39 -8.43,-17.55 -7.47,-17.66 -6.52,-17.75 -5.56,-17.79 -4.61,-17.8 -3.65,-17.78 -2.7,-17.72 -1.75,-17.62 -0.8,-17.49 0.14,-17.33 1.07,-17.14 2,-16.91 2.92,-16.66 3.83,-16.37 4.73,-16.06 5.62,-15.72 6.49,-15.36 7.36,-14.98 8.21,-14.57 9.05,-14.14 9.87,-13.69 10.67,-13.23 11.46,-12.74 12.24,-12.25 12.99,-11.74 13.73,-11.22 14.45,-10.68 15.15,-10.14 15.84,-9.59 16.5,-9.04 17.15,-8.48 17.78,-7.92 18.39,-7.35 18.98,-6.79 19.55,-6.22 20.11,-5.64 20.65,-5.06 21.18,-4.47 21.69,-3.89 22.18,-3.3 22.66,-2.71 23.12,-2.12 23.56,-1.52 23.98,-0.93 24.39,-0.34 24.78,0.25 25.16,0.84 24.98,10.95 24.7,11.47 24.4,11.98 24.09,12.49 23.76,12.98 23.42,13.47 23.05,13.94 22.67,14.4 22.28,14.85 21.86,15.28 21.43,15.7 20.99,16.1 20.53,16.48 20.05,16.84 19.56,17.19 19.05,17.52 18.52,17.83 17.97,18.13 17.4,18.41 16.82,18.66 16.22,18.9 15.6,19.11 14.96,19.29 14.3,19.44 13.63,19.57 12.94,19.66 12.23,19.73 11.51,19.76 10.77,19.75 10.02,19.72 9.25,19.65 8.46,19.55 7.67,19.42 6.86,19.25 6.03,19.05 5.2,18.82 4.35,18.56 3.5,18.28 2.63,17.96 1.75,17.62 0.86,17.26 -0.03,16.87 -0.93,16.46 -1.84,16.04 -2.75,15.6 -3.67,15.14 -4.59,14.68 -5.52,14.21 -6.45,13.74 -7.38,13.26 -8.31,12.78 -9.24,12.31 -10.17,11.84 -11.1,11.38 -12.02,10.94 -12.95,10.51 -13.86,10.1 -14.77,9.71 -15.67,9.34 -16.57,8.99 -17.45,8.68 -18.33,8.39 -19.19,8.13 -20.04,7.9 -20.88,7.7 -21.59,7.39 -22.29,7.09 -22.98,6.79 -23.65,6.51 -24.31,6.24 -24.95,5.97 -25.57,5.72 -26.18,5.47 -26.76,5.23 -27.32,5 -27.86,4.77 -28.38,4.55 -28.87,4.33 -29.33,4.12 -29.76,3.91" fill="white" stroke="white" stroke-width="0" stroke-linejoin="round" filter="url(#fuzzy)" />
    </g>
    <g transform="translate(-34.19 -25.919999999999998)">
      <polyline id="leftCountour" points="32.64,-6.34 32.21,-6.9 31.74,-7.48 31.24,-8.07 30.71,-8.67 30.15,-9.28 29.56,-9.89 28.95,-10.51 28.31,-11.13 27.64,-11.74 26.96,-12.35 26.25,-12.96 25.53,-13.56 24.79,-14.15 24.03,-14.73 23.27,-15.29 22.35,-16.1 21.42,-16.88 20.47,-17.63 19.51,-18.35 18.54,-19.05 17.56,-19.7 16.58,-20.32 15.59,-20.91 14.6,-21.45 13.6,-21.95 12.6,-22.41 11.61,-22.83 10.61,-23.2 9.62,-23.53 8.63,-23.81 7.65,-24.04 6.67,-24.23 5.7,-24.37 4.74,-24.47 3.79,-24.51 2.85,-24.52 1.93,-24.47 1.01,-24.39 0.11,-24.25 -0.78,-24.08 -1.65,-23.86 -2.51,-23.6 -3.35,-23.3 -4.18,-22.97 -4.98,-22.59 -5.77,-22.18 -6.54,-21.73 -7.3,-21.24 -8.03,-20.73 -8.74,-20.18 -9.43,-19.6 -10.11,-19 -10.76,-18.37 -11.39,-17.71 -12,-17.03 -12.59,-16.33 -13.16,-15.61 -13.71,-14.87 -14.23,-14.12 -14.74,-13.35 -15.22,-12.56 -15.69,-11.77 -16.13,-10.96 -16.56,-10.14 -16.96,-9.32 -17.35,-8.49 -17.71,-7.64 -18.06,-6.79 -18.4,-5.92 -18.71,-5.04 -19.01,-4.15 -19.28,-3.26 -19.54,-2.35 -19.79,-1.44 -20.01,-0.52 -20.22,0.41 -20.41,1.35 -20.58,2.29 -20.74,3.23 -19.08,9.93 -18.87,10.86 -18.64,11.77 -18.4,12.67 -18.13,13.55 -17.85,14.42 -17.56,15.26 -17.25,16.09 -16.93,16.89 -16.58,17.67 -16.23,18.42 -15.86,19.15 -15.47,19.84 -15.07,20.51 -14.65,21.15 -14.22,21.76 -13.77,22.35 -13.3,22.91 -12.82,23.44 -12.32,23.94 -11.81,24.4 -11.27,24.82 -10.73,25.2 -10.16,25.53 -9.58,25.82 -8.99,26.06 -8.38,26.26 -7.76,26.4 -7.12,26.49 -6.47,26.52 -5.8,26.51 -5.12,26.44 -4.43,26.32 -3.72,26.15 -3,25.92 -2.27,25.65 -1.52,25.32 -0.77,24.95 0,24.54 0.78,24.08 1.57,23.58 2.37,23.04 3.19,22.47 4.01,21.87 4.85,21.24 5.69,20.58 6.54,19.9 7.41,19.21 8.28,18.5 9.16,17.78 10.05,17.06 10.95,16.34 11.85,15.62 12.76,14.91 13.68,14.22 14.6,13.54 15.53,12.88 16.46,12.24 17.39,11.63 18.32,11.06 19.26,10.52 20.19,10.02 21.12,9.55 22.05,9.13 22.97,8.76 23.71,8.24 24.44,7.74 25.16,7.25 25.87,6.78 26.56,6.32 27.24,5.88 27.9,5.44 28.55,5.03 29.17,4.62 29.77,4.23 30.35,3.84 30.9,3.47 31.42,3.1 31.91,2.75 32.37,2.4" fill="white" stroke="white" stroke-width="0" stroke-linejoin="round" filter="url(#fuzzy)" />
    </g>
    <g transform="translate(36.739999999999995 -23.689999999999998)">
      <polyline id="rightUpper" points="-32.05,0.72 -32.12,0.56 -32.15,0.36 -32.13,0.12 -32.08,-0.16 -31.98,-0.47 -31.85,-0.8 -31.68,-1.17 -31.48,-1.56 -31.24,-1.97 -30.97,-2.4 -30.67,-2.84 -30.33,-3.3 -29.97,-3.78 -29.58,-4.26 -29.17,-4.75 -28.73,-5.25 -28.26,-5.75 -27.77,-6.25 -27.25,-6.75 -26.72,-7.25 -26.16,-7.75 -25.59,-8.25 -24.99,-8.74 -24.38,-9.22 -23.75,-9.69 -23.05,-10.35 -22.32,-11 -21.57,-11.62 -20.8,-12.22 -20.01,-12.8 -19.2,-13.36 -18.37,-13.89 -17.53,-14.38 -16.67,-14.85 -15.8,-15.29 -14.91,-15.7 -14.01,-16.07 -13.1,-16.4 -12.18,-16.7 -11.25,-16.97 -10.32,-17.2 -9.37,-17.39 -8.43,-17.55 -7.47,-17.66 -6.52,-17.75 -5.56,-17.79 -4.61,-17.8 -3.65,-17.78 -2.7,-17.72 -1.75,-17.62 -0.8,-17.49 0.14,-17.33 1.07,-17.14 2,-16.91 2.92,-16.66 3.83,-16.37 4.73,-16.06 5.62,-15.72 6.49,-15.36 7.36,-14.98 8.21,-14.57 9.05,-14.14 9.87,-13.69 10.67,-13.23 11.46,-12.74 12.24,-12.25 12.99,-11.74 13.73,-11.22 14.45,-10.68 15.15,-10.14 15.84,-9.59 16.5,-9.04 17.15,-8.48 17.78,-7.92 18.39,-7.35 18.98,-6.79 19.55,-6.22 20.11,-5.64 20.65,-5.06 21.18,-4.47 21.69,-3.89 22.18,-3.3 22.66,-2.71 23.12,-2.12 23.56,-1.52 23.98,-0.93 24.39,-0.34 24.78,0.25 25.16,0.84 25.52,1.43 25.86,2.02 26.18,2.6 26.49,3.18 26.78,3.76 27.06,4.34 27.32,4.91 27.57,5.48 27.8,6.05 28.02,6.61" fill="none" stroke="black" stroke-width="1.6666666666666665" stroke-linejoin="round" filter="url(#fuzzy)" />
      <polyline id="rightLower" points="-32.11,1.46 -32.06,1.76 -31.97,2.05 -31.83,2.32 -31.65,2.57 -31.43,2.81 -31.17,3.04 -30.87,3.26 -30.53,3.48 -30.16,3.69 -29.76,3.91 -29.33,4.12 -28.87,4.33 -28.38,4.55 -27.86,4.77 -27.32,5 -26.76,5.23 -26.18,5.47 -25.57,5.72 -24.95,5.97 -24.31,6.24 -23.65,6.51 -22.98,6.79 -22.29,7.09 -21.59,7.39 -20.88,7.7 -20.04,7.9 -19.19,8.13 -18.33,8.39 -17.45,8.68 -16.57,8.99 -15.67,9.34 -14.77,9.71 -13.86,10.1 -12.95,10.51 -12.02,10.94 -11.1,11.38 -10.17,11.84 -9.24,12.31 -8.31,12.78 -7.38,13.26 -6.45,13.74 -5.52,14.21 -4.59,14.68 -3.67,15.14 -2.75,15.6 -1.84,16.04 -0.93,16.46 -0.03,16.87 0.86,17.26 1.75,17.62 2.63,17.96 3.5,18.28 4.35,18.56 5.2,18.82 6.03,19.05 6.86,19.25 7.67,19.42 8.46,19.55 9.25,19.65 10.02,19.72 10.77,19.75 11.51,19.76 12.23,19.73 12.94,19.66 13.63,19.57 14.3,19.44 14.96,19.29 15.6,19.11 16.22,18.9 16.82,18.66 17.4,18.41 17.97,18.13 18.52,17.83 19.05,17.52 19.56,17.19 20.05,16.84 20.53,16.48 20.99,16.1 21.43,15.7 21.86,15.28 22.28,14.85 22.67,14.4 23.05,13.94 23.42,13.47 23.76,12.98 24.09,12.49 24.4,11.98 24.7,11.47 24.98,10.95 25.24,10.42 25.49,9.88 25.72,9.34 25.94,8.8 26.14,8.25 26.32,7.69 26.49,7.14 26.64,6.58 26.78,6.02 26.9,5.45" fill="none" stroke="black" stroke-width="2.2222222222222223" stroke-linejoin="round" filter="url(#fuzzy)" />
      <circle r="3.79" cx="-16.898928002878637" cy="1.864704287671037" stroke="black" fill="none" stroke-width="1.0" filter="url(#fuzzy)" clip-path="url(#rightEyeClipPath)" /><circle r="4.542" cx="-13.218928002878638" cy="-0.4452957123289627" stroke="black" fill="none" stroke-width="1.0" filter="url(#fuzzy)" clip-path="url(#rightEyeClipPath)" /><circle r="4.216" cx="-13.728928002878638" cy="-1.5002957123289629" stroke="black" fill="none" stroke-width="1.0" filter="url(#fuzzy)" clip-path="url(#rightEyeClipPath)" /><circle r="4.798" cx="-12.918928002878637" cy="-0.2702957123289629" stroke="black" fill="none" stroke-width="1.0" filter="url(#fuzzy)" clip-path="url(#rightEyeClipPath)" /><circle r="4.406" cx="-15.613928002878637" cy="-1.5502957123289627" stroke="black" fill="none" stroke-width="1.0" filter="url(#fuzzy)" clip-path="url(#rightEyeClipPath)" /><circle r="3.334" cx="-12.698928002878638" cy="-1.2802957123289627" stroke="black" fill="none" stroke-width="1.0" filter="url(#fuzzy)" clip-path="url(#rightEyeClipPath)" /><circle r="3.826" cx="-13.678928002878639" cy="0.5397042876710372" stroke="black" fill="none" stroke-width="1.0" filter="url(#fuzzy)" clip-path="url(#rightEyeClipPath)" /><circle r="3.2439999999999998" cx="-13.968928002878638" cy="-1.9102957123289628" stroke="black" fill="none" stroke-width="1.0" filter="url(#fuzzy)" clip-path="url(#rightEyeClipPath)" /><circle r="3.502" cx="-13.143928002878638" cy="1.4347042876710372" stroke="black" fill="none" stroke-width="1.0" filter="url(#fuzzy)" clip-path="url(#rightEyeClipPath)" /><circle r="3.276" cx="-16.793928002878637" cy="2.0347042876710377" stroke="black" fill="none" stroke-width="1.0" filter="url(#fuzzy)" clip-path="url(#rightEyeClipPath)" />
      </g>
    <g transform="translate(-34.19 -25.919999999999998)">
      <polyline id="leftUpper" points="34.43,-2.26 34.49,-2.49 34.49,-2.77 34.43,-3.09 34.32,-3.46 34.16,-3.86 33.94,-4.3 33.68,-4.77 33.37,-5.27 33.03,-5.79 32.64,-6.34 32.21,-6.9 31.74,-7.48 31.24,-8.07 30.71,-8.67 30.15,-9.28 29.56,-9.89 28.95,-10.51 28.31,-11.13 27.64,-11.74 26.96,-12.35 26.25,-12.96 25.53,-13.56 24.79,-14.15 24.03,-14.73 23.27,-15.29 22.35,-16.1 21.42,-16.88 20.47,-17.63 19.51,-18.35 18.54,-19.05 17.56,-19.7 16.58,-20.32 15.59,-20.91 14.6,-21.45 13.6,-21.95 12.6,-22.41 11.61,-22.83 10.61,-23.2 9.62,-23.53 8.63,-23.81 7.65,-24.04 6.67,-24.23 5.7,-24.37 4.74,-24.47 3.79,-24.51 2.85,-24.52 1.93,-24.47 1.01,-24.39 0.11,-24.25 -0.78,-24.08 -1.65,-23.86 -2.51,-23.6 -3.35,-23.3 -4.18,-22.97 -4.98,-22.59 -5.77,-22.18 -6.54,-21.73 -7.3,-21.24 -8.03,-20.73 -8.74,-20.18 -9.43,-19.6 -10.11,-19 -10.76,-18.37 -11.39,-17.71 -12,-17.03 -12.59,-16.33 -13.16,-15.61 -13.71,-14.87 -14.23,-14.12 -14.74,-13.35 -15.22,-12.56 -15.69,-11.77 -16.13,-10.96 -16.56,-10.14 -16.96,-9.32 -17.35,-8.49 -17.71,-7.64 -18.06,-6.79 -18.4,-5.92 -18.71,-5.04 -19.01,-4.15 -19.28,-3.26 -19.54,-2.35 -19.79,-1.44 -20.01,-0.52 -20.22,0.41 -20.41,1.35 -20.58,2.29 -20.74,3.23 -20.88,4.19 -21,5.14 -21.1,6.11 -21.19,7.07 -21.27,8.04 -21.32,9.02 -21.37,9.99 -21.39,10.97 -21.41,11.95 -21.4,12.94" fill="none" stroke="black" stroke-width="2.2222222222222223" stroke-linejoin="round" filter="url(#fuzzy)" />
      <polyline id="leftLower" points="34.58,-1.27 34.6,-0.85 34.56,-0.45 34.45,-0.06 34.3,0.31 34.09,0.67 33.83,1.02 33.53,1.36 33.18,1.71 32.8,2.05 32.37,2.4 31.91,2.75 31.42,3.1 30.9,3.47 30.35,3.84 29.77,4.23 29.17,4.62 28.55,5.03 27.9,5.44 27.24,5.88 26.56,6.32 25.87,6.78 25.16,7.25 24.44,7.74 23.71,8.24 22.97,8.76 22.05,9.13 21.12,9.55 20.19,10.02 19.26,10.52 18.32,11.06 17.39,11.63 16.46,12.24 15.53,12.88 14.6,13.54 13.68,14.22 12.76,14.91 11.85,15.62 10.95,16.34 10.05,17.06 9.16,17.78 8.28,18.5 7.41,19.21 6.54,19.9 5.69,20.58 4.85,21.24 4.01,21.87 3.19,22.47 2.37,23.04 1.57,23.58 0.78,24.08 0,24.54 -0.77,24.95 -1.52,25.32 -2.27,25.65 -3,25.92 -3.72,26.15 -4.43,26.32 -5.12,26.44 -5.8,26.51 -6.47,26.52 -7.12,26.49 -7.76,26.4 -8.38,26.26 -8.99,26.06 -9.58,25.82 -10.16,25.53 -10.73,25.2 -11.27,24.82 -11.81,24.4 -12.32,23.94 -12.82,23.44 -13.3,22.91 -13.77,22.35 -14.22,21.76 -14.65,21.15 -15.07,20.51 -15.47,19.84 -15.86,19.15 -16.23,18.42 -16.58,17.67 -16.93,16.89 -17.25,16.09 -17.56,15.26 -17.85,14.42 -18.13,13.55 -18.4,12.67 -18.64,11.77 -18.87,10.86 -19.08,9.93 -19.28,8.99 -19.46,8.04 -19.63,7.08 -19.78,6.11 -19.91,5.13 -20.03,4.14 -20.13,3.15 -20.22,2.15 -20.29,1.15 -20.35,0.14" fill="none" stroke="black" stroke-width="2.2222222222222223" stroke-linejoin="round" filter="url(#fuzzy)" />
      <circle r="4.486" cx="-12.844287104910066" cy="-5.635654369381172" stroke="black" fill="none" stroke-width="1.0" filter="url(#fuzzy)" clip-path="url(#leftEyeClipPath)" /><circle r="4.474" cx="-12.189287104910067" cy="-5.075654369381171" stroke="black" fill="none" stroke-width="1.0" filter="url(#fuzzy)" clip-path="url(#leftEyeClipPath)" /><circle r="4.52" cx="-10.804287104910067" cy="-3.5106543693811707" stroke="black" fill="none" stroke-width="1.0" filter="url(#fuzzy)" clip-path="url(#leftEyeClipPath)" /><circle r="3.9779999999999998" cx="-8.644287104910067" cy="-4.740654369381171" stroke="black" fill="none" stroke-width="1.0" filter="url(#fuzzy)" clip-path="url(#leftEyeClipPath)" /><circle r="3.346" cx="-9.314287104910067" cy="-7.840654369381171" stroke="black" fill="none" stroke-width="1.0" filter="url(#fuzzy)" clip-path="url(#leftEyeClipPath)" /><circle r="3.088" cx="-9.234287104910067" cy="-8.25065436938117" stroke="black" fill="none" stroke-width="1.0" filter="url(#fuzzy)" clip-path="url(#leftEyeClipPath)" /><circle r="4.1739999999999995" cx="-9.864287104910067" cy="-8.145654369381171" stroke="black" fill="none" stroke-width="1.0" filter="url(#fuzzy)" clip-path="url(#leftEyeClipPath)" /><circle r="3.9619999999999997" cx="-8.779287104910068" cy="-4.630654369381171" stroke="black" fill="none" stroke-width="1.0" filter="url(#fuzzy)" clip-path="url(#leftEyeClipPath)" /><circle r="3.4" cx="-9.394287104910067" cy="-7.535654369381171" stroke="black" fill="none" stroke-width="1.0" filter="url(#fuzzy)" clip-path="url(#leftEyeClipPath)" /><circle r="4.508" cx="-12.124287104910067" cy="-4.4806543693811705" stroke="black" fill="none" stroke-width="1.0" filter="url(#fuzzy)" clip-path="url(#leftEyeClipPath)" />
    </g>
    <g id="hairs">
      <polyline points="76.21,-11.6 75.14,-10.17 74.23,-8.18 73.07,-5.77 71.98,-3.15 71.05,-0.51 70.19,2.05 69.23,4.54 68.08,7 66.79,9.48 65.44,12 64.16,14.56 62.96,17.14 61.83,19.71 60.73,22.24 59.69,24.71 58.72,27.11 57.87,29.43 57.07,31.68 56.2,33.88 55.07,36.03 53.55,38.2 51.64,40.47 49.51,42.91 47.45,45.46 45.63,47.88 42.9,50.19" fill="none" stroke="rgb(220, 208, 186)" stroke-width="2" stroke-linejoin="round" filter="url(#fuzzy)" /><polyline points="0.59,-84.2 2.31,-84.2 4.48,-84.11 7.11,-83.91 10.04,-83.61 13.02,-83.22 15.85,-82.74 18.51,-82.18 21.05,-81.57 23.57,-80.89 26.17,-80.16 28.91,-79.36 31.83,-78.49 34.86,-77.56 37.95,-76.58 41.04,-75.53 44.1,-74.4 47.13,-73.2 50.09,-71.91 52.91,-70.55 55.58,-69.12 58.17,-67.66 60.9,-66.15 64.01,-64.62 67.64,-63.02 71.7,-61.32 75.63,-59.56" fill="none" stroke="rgb(220, 208, 186)" stroke-width="2" stroke-linejoin="round" filter="url(#fuzzy)" /><polyline points="-1.1,-84.35 0.64,-84.26 2.65,-84.2 4.93,-84.08 7.6,-83.88 10.86,-83.58 14.73,-83.19 19.01,-82.71 23.38,-82.16 27.59,-81.55 31.59,-80.87 35.49,-80.13 39.48,-79.32 43.67,-78.45 48.01,-77.52 52.3,-76.53 56.3,-75.46 59.83,-74.33 62.85,-73.11 65.49,-71.82 68.02,-70.45 70.8,-69.03 74.21,-67.55 78.59,-66.04 84.09,-64.48 90.52,-62.89 97.39,-61.26 104.13,-59.65 110.49,-58.17 116.04,-56.96" fill="none" stroke="rgb(220, 208, 186)" stroke-width="2" stroke-linejoin="round" filter="url(#fuzzy)" /><polyline points="-1.1,-84.35 0.66,-84.26 2.63,-84.19 5.03,-84.07 7.75,-83.87 10.62,-83.56 13.59,-83.16 16.71,-82.68 19.99,-82.12 23.4,-81.5 26.87,-80.81 30.37,-80.05 33.9,-79.23 37.51,-78.35 41.2,-77.4 44.96,-76.38 48.68,-75.29 52.26,-74.13 55.58,-72.89 58.59,-71.59 61.3,-70.21 63.81,-68.77 66.24,-67.28 68.8,-65.75 71.65,-64.17 74.89,-62.54 78.46,-60.85 82.21,-59.09 85.95,-57.24 89.71,-55.3 93.72,-53.27 98.28,-51.19 103.32,-49.09 108.07,-46.94 111.73,-44.82 116.03,-43.5" fill="none" stroke="rgb(220, 208, 186)" stroke-width="2" stroke-linejoin="round" filter="url(#fuzzy)" /><polyline points="-3.3,-84.24 -0.52,-84.22 1.76,-84.2 3.89,-84.08 5.93,-83.9 7.9,-83.66 9.8,-83.38 11.62,-83.04 13.35,-82.62 15.05,-82.1 16.77,-81.49 18.52,-80.79 20.33,-79.99 22.17,-79.12 23.99,-78.17 25.76,-77.15 27.47,-76.07 29.11,-74.91 30.7,-73.7 32.21,-72.41 33.61,-71.06 34.82,-69.64 35.79,-68.14 36.48,-66.57 36.93,-64.91 37.19,-63.17 37.35,-61.37 37.45,-59.51 37.54,-57.62 37.58,-55.73 37.51,-53.85 37.21,-51.97 36.56,-50.05 35.64,-48.02 35,-45.8 36.08,-42.96" fill="none" stroke="rgb(220, 208, 186)" stroke-width="2" stroke-linejoin="round" filter="url(#fuzzy)" /><polyline points="-7.44,-84.03 -4.61,-84.15 -2.09,-84.21 0.11,-84.21 2.19,-84.15 4.31,-84.03 6.55,-83.83 8.89,-83.53 11.31,-83.15 13.75,-82.69 16.16,-82.15 18.52,-81.54 20.82,-80.87 23.08,-80.13 25.3,-79.33 27.5,-78.47 29.67,-77.54 31.81,-76.54 33.92,-75.48 36,-74.35 38.06,-73.13 40.1,-71.84 42.1,-70.47 44.08,-69.05 46.03,-67.57 47.94,-66.06 49.8,-64.5 51.58,-62.9 53.27,-61.27 54.82,-59.66 56.22,-58.17 57.45,-56.96" fill="none" stroke="rgb(220, 208, 186)" stroke-width="2" stroke-linejoin="round" filter="url(#fuzzy)" /><polyline points="-13.77,-83.08 -10.77,-83.56 -8.45,-83.86 -5.7,-84.05 -2.83,-84.14 -0.03,-84.15 2.69,-84.1 5.4,-83.98 8.21,-83.77 11.21,-83.48 14.47,-83.11 17.98,-82.65 21.67,-82.12 25.46,-81.52 29.26,-80.84 33.05,-80.11 36.86,-79.3 40.72,-78.43 44.64,-77.5 48.58,-76.5 52.55,-75.43 56.55,-74.29 60.66,-73.07 64.99,-71.77 69.58,-70.4 74.38,-68.98 79.23,-67.5 83.85,-65.97 88.02,-64.41 91.65,-62.8 95,-61.16 98.53,-59.46 102.63,-57.66 107.25,-55.66 111.95,-53.3 116.96,-50.74" fill="none" stroke="rgb(220, 208, 186)" stroke-width="2" stroke-linejoin="round" filter="url(#fuzzy)" /><polyline points="-13.77,-83.08 -9.96,-83.56 -7.19,-83.86 -4.69,-84.05 -2.33,-84.14 -0.11,-84.16 2.06,-84.1 4.26,-83.98 6.52,-83.78 8.86,-83.49 11.27,-83.12 13.69,-82.66 16.1,-82.13 18.48,-81.53 20.8,-80.86 23.09,-80.12 25.34,-79.32 27.55,-78.46 29.74,-77.52 31.89,-76.53 34.01,-75.46 36.11,-74.32 38.18,-73.11 40.23,-71.81 42.26,-70.45 44.26,-69.02 46.24,-67.54 48.17,-66.02 50.06,-64.46 51.88,-62.86 53.63,-61.23 55.29,-59.57 56.9,-57.86 58.62,-55.93 60.88,-53.08" fill="none" stroke="rgb(220, 208, 186)" stroke-width="2" stroke-linejoin="round" filter="url(#fuzzy)" /><polyline points="-12.44,-83.05 -11.81,-83.42 -9.64,-83.65 -6.93,-83.83 -3.98,-83.97 -0.98,-84.05 1.97,-84.06 4.88,-83.99 7.8,-83.84 10.82,-83.64 13.97,-83.38 17.22,-83.05 20.55,-82.65 23.97,-82.17 27.52,-81.6 31.28,-80.93 35.29,-80.17 39.55,-79.33 43.98,-78.41 48.43,-77.43 52.76,-76.38 56.85,-75.26 60.64,-74.07 64.13,-72.82 67.41,-71.52 70.71,-70.16 74.44,-68.74 79.08,-67.24 84.84,-65.61 90.94,-63.75 95.79,-61.54" fill="none" stroke="rgb(220, 208, 186)" stroke-width="2" stroke-linejoin="round" filter="url(#fuzzy)" /><polyline points="-12.44,-83.05 -10.53,-83.42 -9.04,-83.65 -6.98,-83.83 -4.34,-83.97 -1.46,-84.05 1.45,-84.05 4.33,-83.97 7.17,-83.83 10.01,-83.62 12.85,-83.35 15.74,-83.01 18.77,-82.59 22.05,-82.1 25.7,-81.51 29.76,-80.82 34.17,-80.05 38.79,-79.2 43.43,-78.27 47.94,-77.27 52.27,-76.2 56.51,-75.07 60.78,-73.86 65.24,-72.59 69.94,-71.26 74.87,-69.86 79.99,-68.39 85.28,-66.84 90.8,-65.19 96.56,-63.46 102.42,-61.64 107.98,-59.75 112.87,-57.81 117.25,-55.84 122.25,-53.85 128.57,-52.02" fill="none" stroke="rgb(220, 208, 186)" stroke-width="2" stroke-linejoin="round" filter="url(#fuzzy)" /><polyline points="-16.57,-82.38 -14.96,-82.85 -13.51,-83.21 -11.22,-83.52 -8.51,-83.78 -5.69,-83.97 -2.86,-84.09 -0.02,-84.14 2.89,-84.11 5.94,-84.02 9.21,-83.86 12.79,-83.62 16.75,-83.29 21.1,-82.88 25.76,-82.39 30.62,-81.83 35.5,-81.22 40.29,-80.55 45.05,-79.82 50.12,-78.98 55.81,-77.99 61.46,-76.92 65.5,-76.23" fill="none" stroke="rgb(220, 208, 186)" stroke-width="2" stroke-linejoin="round" filter="url(#fuzzy)" /><polyline points="-18.63,-81.72 -15.95,-82.37 -13.66,-82.89 -11.58,-83.27 -9.4,-83.56 -6.97,-83.77 -4.34,-83.92 -1.65,-84.01 0.98,-84.02 3.5,-83.96 5.9,-83.84 8.24,-83.65 10.61,-83.4 13.07,-83.09 15.7,-82.71 18.55,-82.25 21.63,-81.69 24.89,-81.04 28.22,-80.3 31.48,-79.47 34.58,-78.58 37.48,-77.62 40.27,-76.59 43.14,-75.49 46.33,-74.31 49.95,-73.06 53.96,-71.75 58.02,-70.36 61.25,-69" fill="none" stroke="rgb(220, 208, 186)" stroke-width="2" stroke-linejoin="round" filter="url(#fuzzy)" /><polyline points="-19.77,-81.55 -16.82,-82.25 -14.47,-82.76 -12.44,-83.16 -10.4,-83.49 -8.2,-83.75 -5.81,-83.94 -3.29,-84.05 -0.7,-84.08 1.94,-84.05 4.67,-83.93 7.54,-83.74 10.6,-83.47 13.83,-83.11 17.18,-82.67 20.56,-82.16 23.89,-81.57 27.12,-80.91 30.29,-80.19 33.49,-79.4 36.86,-78.55 40.51,-77.63 44.49,-76.65 48.81,-75.6 53.36,-74.47 58.02,-73.27 62.63,-71.98 67.04,-70.62 71.18,-69.2 75.11,-67.72 79.07,-66.21 83.38,-64.66 88.32,-63.05 93.81,-61.33 99.12,-59.56" fill="none" stroke="rgb(220, 208, 186)" stroke-width="2" stroke-linejoin="round" filter="url(#fuzzy)" /><polyline points="-19.77,-81.55 -16.87,-82.25 -14.63,-82.76 -12.61,-83.16 -10.46,-83.49 -8.08,-83.75 -5.55,-83.94 -2.96,-84.05 -0.34,-84.09 2.33,-84.06 5.11,-83.96 8.06,-83.77 11.21,-83.51 14.58,-83.16 18.16,-82.73 21.96,-82.22 26,-81.65 30.26,-81 34.72,-80.29 39.37,-79.51 44.16,-78.67 49.06,-77.77 54.01,-76.81 58.92,-75.78 63.72,-74.69 68.37,-73.5 72.94,-72.23 77.5,-70.87 82.08,-69.45 86.88,-67.92 94.61,-65.88" fill="none" stroke="rgb(220, 208, 186)" stroke-width="2" stroke-linejoin="round" filter="url(#fuzzy)" /><polyline points="-19.77,-81.55 -16.81,-82.25 -14.42,-82.76 -12.28,-83.16 -10.16,-83.49 -7.94,-83.75 -5.6,-83.94 -3.16,-84.05 -0.62,-84.08 2.03,-84.05 4.81,-83.93 7.74,-83.74 10.81,-83.47 14.01,-83.11 17.28,-82.67 20.6,-82.16 23.95,-81.57 27.31,-80.91 30.68,-80.19 34.03,-79.4 37.4,-78.55 40.83,-77.63 44.42,-76.65 48.26,-75.6 52.46,-74.47 57.05,-73.27 62.04,-71.98 67.35,-70.62 72.93,-69.2 78.69,-67.72 84.53,-66.21 90.36,-64.66 96.12,-63.05 101.88,-61.33 106.98,-59.56" fill="none" stroke="rgb(220, 208, 186)" stroke-width="2" stroke-linejoin="round" filter="url(#fuzzy)" /><polyline points="-21.21,-81.07 -19.36,-81.71 -17.38,-82.31 -15.24,-82.81 -13.19,-83.21 -11.08,-83.51 -8.59,-83.74 -5.59,-83.9 -2.21,-84 1.33,-84.03 4.83,-83.99 8.18,-83.88 11.38,-83.71 14.5,-83.48 17.67,-83.2 21.04,-82.86 24.88,-82.45 29.45,-81.94 34.94,-81.31 41.26,-80.57 47.96,-79.73 54.4,-78.85 60.21,-78.05 64.59,-77.54" fill="none" stroke="rgb(220, 208, 186)" stroke-width="2" stroke-linejoin="round" filter="url(#fuzzy)" /><polyline points="-21.21,-81.07 -18.62,-81.72 -15.98,-82.32 -13.54,-82.82 -11.28,-83.22 -9.01,-83.52 -6.6,-83.74 -4.04,-83.89 -1.38,-83.98 1.3,-84 3.95,-83.94 6.59,-83.82 9.22,-83.63 11.87,-83.38 14.56,-83.07 17.31,-82.69 20.1,-82.22 22.96,-81.66 25.87,-81.01 28.86,-80.27 31.94,-79.44 35.14,-78.54 38.52,-77.58 42.13,-76.54 46.02,-75.44 50.16,-74.25 54.45,-73.01 58.72,-71.7 62.87,-70.36 67.11,-69.02 72.12,-67.79" fill="none" stroke="rgb(220, 208, 186)" stroke-width="2" stroke-linejoin="round" filter="url(#fuzzy)" /><polyline points="-21.3,-81.04 -21.83,-81.28 -19.8,-81.76 -17.16,-82.29 -14.57,-82.77 -12.14,-83.17 -9.77,-83.48 -7.29,-83.71 -4.65,-83.88 -1.87,-83.98 0.94,-84.02 3.71,-83.98 6.42,-83.87 9.1,-83.7 11.82,-83.48 14.63,-83.2 17.55,-82.86 20.58,-82.45 23.79,-81.94 27.27,-81.32 31.15,-80.57 35.41,-79.73 39.82,-78.85 43.83,-78.06 46.06,-77.54" fill="none" stroke="rgb(220, 208, 186)" stroke-width="2" stroke-linejoin="round" filter="url(#fuzzy)" /><polyline points="75.53,-16.58 76.07,-12.98 76.55,-10.51 77.34,-8.16 78.85,-5.68 81.37,-3.08 84.9,-0.46 89.03,2.11 93,4.64 95.96,7.16 97.34,9.68 97.1,12.24 95.79,14.81 94.25,17.39 93.31,19.96 93.49,22.48 94.84,24.95 97.06,27.36 99.63,29.71 102.04,32.01 104.01,34.28 105.45,36.55 106.46,38.83 107.21,41.15 107.79,43.49 108.23,45.86 108.45,48.21 108.33,50.5 107.75,52.7 106.68,54.77 105.28,56.68 103.95,58.42 103.1,60.03 102.71,61.59 101.85,63.2 99.38,64.88 96.86,66.71" fill="none" stroke="rgb(220, 208, 186)" stroke-width="2" stroke-linejoin="round" filter="url(#fuzzy)" /><polyline points="-27.7,-78.64 -30.57,-79.71 -27.65,-80.5 -24.4,-81.13 -21.71,-81.7 -19.37,-82.22 -17.02,-82.69 -14.42,-83.09 -11.54,-83.42 -8.44,-83.67 -5.22,-83.85 -1.94,-83.97 1.38,-84.01 4.77,-83.99 8.26,-83.89 11.93,-83.73 15.79,-83.51 19.79,-83.25 23.87,-82.93 28.01,-82.55 32.25,-82.08 36.67,-81.47 41.42,-80.72 47.02,-79.82 54.03,-78.84" fill="none" stroke="rgb(220, 208, 186)" stroke-width="2" stroke-linejoin="round" filter="url(#fuzzy)" /><polyline points="-29.05,-78.17 -30.17,-79.14 -27.61,-80.02 -24.32,-80.77 -21.33,-81.44 -18.87,-82.03 -16.77,-82.55 -14.74,-82.99 -12.54,-83.35 -10.05,-83.63 -7.3,-83.84 -4.38,-83.98 -1.36,-84.04 1.72,-84.03 4.87,-83.94 8.12,-83.78 11.51,-83.54 15.04,-83.21 18.69,-82.8 22.46,-82.32 26.3,-81.76 30.24,-81.13 34.32,-80.44 38.63,-79.68 43.18,-78.85 47.9,-77.95 52.5,-77.02 56.7,-76.06 60.66,-75.03 65.48,-73.73 72.63,-72.09" fill="none" stroke="rgb(220, 208, 186)" stroke-width="2" stroke-linejoin="round" filter="url(#fuzzy)" /><polyline points="-29.05,-78.17 -30.24,-79.14 -27.5,-80.01 -24.4,-80.76 -21.81,-81.43 -19.64,-82.02 -17.55,-82.54 -15.27,-82.98 -12.67,-83.35 -9.81,-83.64 -6.82,-83.86 -3.8,-84 -0.82,-84.07 2.16,-84.08 5.19,-84.01 8.36,-83.87 11.69,-83.65 15.18,-83.34 18.76,-82.95 22.42,-82.48 26.11,-81.93 29.8,-81.32 33.39,-80.68 36.83,-80.04 40.58,-79.35 46.71,-78.22" fill="none" stroke="rgb(220, 208, 186)" stroke-width="2" stroke-linejoin="round" filter="url(#fuzzy)" /><polyline points="-30.22,-77.74 -27.63,-78.68 -25.05,-79.61 -22.78,-80.4 -20.66,-81.06 -18.5,-81.64 -16.25,-82.17 -13.94,-82.65 -11.63,-83.06 -9.32,-83.39 -6.98,-83.65 -4.57,-83.85 -2.12,-83.98 0.32,-84.04 2.69,-84.03 4.95,-83.94 7.11,-83.79 9.2,-83.58 11.29,-83.33 13.35,-83.05 15.38,-82.74 17.45,-82.34 19.77,-81.81" fill="none" stroke="rgb(220, 208, 186)" stroke-width="2" stroke-linejoin="round" filter="url(#fuzzy)" /><polyline points="-31.09,-77.08 -28.84,-78.1 -26.33,-79.06 -23.86,-79.92 -21.41,-80.69 -18.96,-81.37 -16.49,-81.97 -14.06,-82.5 -11.69,-82.95 -9.39,-83.32 -7.17,-83.62 -5.04,-83.85 -3,-84 -1.06,-84.08 0.78,-84.09 2.57,-84.04 4.33,-83.91 6.09,-83.7 7.86,-83.41 9.63,-83.03 11.38,-82.56 13.06,-82.01 14.62,-81.36 15.92,-80.62 16.53,-79.99" fill="none" stroke="rgb(220, 208, 186)" stroke-width="2" stroke-linejoin="round" filter="url(#fuzzy)" /><polyline points="-30.25,-77.52 -29.46,-77.99 -27.8,-78.76 -25.87,-79.58 -23.86,-80.35 -21.75,-81.02 -19.5,-81.61 -17.14,-82.15 -14.73,-82.63 -12.29,-83.03 -9.81,-83.37 -7.28,-83.63 -4.65,-83.82 -1.95,-83.94 0.79,-83.99 3.5,-83.97 6.16,-83.88 8.75,-83.73 11.27,-83.52 13.77,-83.25 16.29,-82.94 18.91,-82.55 21.7,-82.08 24.75,-81.48 28.11,-80.72 31.83,-79.82 35.83,-78.84" fill="none" stroke="rgb(220, 208, 186)" stroke-width="2" stroke-linejoin="round" filter="url(#fuzzy)" /><polyline points="-33.28,-75.94 -32,-77.01 -31.04,-78.03 -29.67,-78.98 -27.75,-79.84 -25.58,-80.62 -23.46,-81.31 -21.48,-81.92 -19.6,-82.46 -17.63,-82.91 -15.34,-83.3 -12.6,-83.61 -9.41,-83.84 -5.87,-84 -2.15,-84.1 1.62,-84.12 5.45,-84.08 9.42,-83.96 13.72,-83.78 18.48,-83.5 23.72,-83.13 29.31,-82.68 34.9,-82.23 39.4,-81.91" fill="none" stroke="rgb(220, 208, 186)" stroke-width="2" stroke-linejoin="round" filter="url(#fuzzy)" /><polyline points="-34.23,-75.53 -31.83,-76.91 -30,-77.84 -28.43,-78.7 -27.05,-79.53 -25.68,-80.28 -24.11,-80.96 -22.17,-81.57 -19.84,-82.11 -17.21,-82.59 -14.38,-83.01 -11.46,-83.35 -8.47,-83.62 -5.41,-83.82 -2.27,-83.95 0.95,-84.01 4.2,-84 7.45,-83.91 10.71,-83.76 14.02,-83.56 17.44,-83.31 21.06,-83.02 25,-82.67 29.33,-82.25 33.9,-81.69 38.14,-80.99" fill="none" stroke="rgb(220, 208, 186)" stroke-width="2" stroke-linejoin="round" filter="url(#fuzzy)" /><polyline points="-37.13,-73.98 -34.97,-75.22 -33.43,-76.14 -31.82,-77.05 -29.9,-77.98 -27.72,-78.89 -25.43,-79.74 -23.13,-80.52 -20.86,-81.23 -18.59,-81.85 -16.29,-82.39 -13.91,-82.86 -11.44,-83.25 -8.91,-83.57 -6.35,-83.81 -3.8,-83.97 -1.28,-84.07 1.21,-84.09 3.7,-84.05 6.25,-83.93 8.92,-83.74 11.74,-83.46 14.67,-83.08 17.68,-82.62 20.72,-82.09 23.85,-81.42 27.96,-80.33" fill="none" stroke="rgb(220, 208, 186)" stroke-width="2" stroke-linejoin="round" filter="url(#fuzzy)" /><polyline points="-38.78,-72.74 -34.49,-74.28 -31.95,-75.58 -29.66,-76.71 -27.4,-77.71 -25.21,-78.62 -23.13,-79.45 -21.09,-80.21 -19.03,-80.9 -16.9,-81.52 -14.7,-82.07 -12.46,-82.55 -10.24,-82.96 -8.04,-83.29 -5.89,-83.56 -3.78,-83.75 -1.73,-83.87 0.25,-83.92 2.1,-83.9 3.82,-83.81 5.36,-83.65 6.75,-83.43 7.98,-83.15 9.1,-82.8 10.18,-82.37 11.26,-81.85 12.42,-81.23 13.65,-80.5 14.88,-79.68 15.97,-78.81 16.82,-77.9 17.49,-76.92 18.16,-75.73 18.65,-74.14" fill="none" stroke="rgb(220, 208, 186)" stroke-width="2" stroke-linejoin="round" filter="url(#fuzzy)" /><polyline points="-41.31,-71.38 -39.2,-72.71 -37.64,-73.94 -35.98,-75.03 -34.08,-76.04 -31.99,-77.01 -29.8,-77.94 -27.56,-78.84 -25.31,-79.69 -23.05,-80.47 -20.76,-81.17 -18.43,-81.8 -16.03,-82.34 -13.59,-82.81 -11.1,-83.19 -8.57,-83.5 -6.03,-83.73 -3.48,-83.89 -0.91,-83.97 1.68,-83.98 4.31,-83.91 7.02,-83.76 9.84,-83.53 12.78,-83.22 15.86,-82.83 19.07,-82.35 22.36,-81.8 25.68,-81.18 28.98,-80.5 32.21,-79.74 35.37,-78.91 38.48,-78.01 41.49,-77.08 44.3,-76.18 47.14,-75.27 51.21,-73.83" fill="none" stroke="rgb(220, 208, 186)" stroke-width="2" stroke-linejoin="round" filter="url(#fuzzy)" /><polyline points="-42.33,-70.38 -44.69,-71.34 -45.2,-72.68 -43.13,-74.06 -40.37,-75.35 -37.59,-76.51 -34.83,-77.54 -32.11,-78.48 -29.6,-79.33 -27.4,-80.11 -25.5,-80.81 -23.73,-81.44 -21.89,-82 -19.8,-82.5 -17.35,-82.92 -14.51,-83.28 -11.26,-83.56 -7.62,-83.77 -3.67,-83.92 0.52,-83.99 4.81,-83.98 9.15,-83.91 13.47,-83.76 17.78,-83.56 22.09,-83.31 26.46,-83.02 31.01,-82.68 35.96,-82.25 41.41,-81.7 47.8,-80.99" fill="none" stroke="rgb(220, 208, 186)" stroke-width="2" stroke-linejoin="round" filter="url(#fuzzy)" /><polyline points="-42.33,-70.38 -40.95,-71.32 -39.1,-72.65 -37.22,-74.02 -35.32,-75.31 -33.34,-76.46 -31.26,-77.5 -29.12,-78.43 -26.94,-79.29 -24.75,-80.07 -22.55,-80.78 -20.28,-81.41 -17.93,-81.99 -15.52,-82.5 -13.09,-82.95 -10.68,-83.32 -8.24,-83.62 -5.69,-83.86 -2.97,-84.03 -0.11,-84.15 2.73,-84.19 5.52,-84.12 8.74,-83.94" fill="none" stroke="rgb(220, 208, 186)" stroke-width="2" stroke-linejoin="round" filter="url(#fuzzy)" /><polyline points="-43.44,-69.85 -42.5,-70.48 -41.08,-71.48 -39.33,-72.72 -37.42,-74.03 -35.37,-75.28 -33.2,-76.43 -30.95,-77.48 -28.7,-78.43 -26.48,-79.29 -24.3,-80.07 -22.12,-80.78 -19.9,-81.41 -17.6,-81.98 -15.22,-82.48 -12.78,-82.91 -10.27,-83.26 -7.72,-83.55 -5.12,-83.77 -2.49,-83.91 0.14,-83.98 2.72,-83.98 5.23,-83.9 7.66,-83.76 10.04,-83.56 12.42,-83.31 14.82,-83.02 17.27,-82.68 19.85,-82.25 22.67,-81.7 25.66,-80.99" fill="none" stroke="rgb(220, 208, 186)" stroke-width="2" stroke-linejoin="round" filter="url(#fuzzy)" /><polyline points="-50.99,-63.42 -49.97,-65.43 -48.78,-67.36 -47.84,-68.9 -47.57,-70.2 -47.34,-71.43 -46.36,-72.66 -44.43,-73.89 -41.96,-75.1 -39.52,-76.24 -37.51,-77.3 -35.95,-78.27 -34.62,-79.16 -33.2,-79.96 -31.46,-80.68 -29.26,-81.34 -26.62,-81.92 -23.6,-82.44 -20.27,-82.88 -16.69,-83.26 -12.85,-83.56 -8.76,-83.8 -4.43,-83.96 0.02,-84.05 4.45,-84.07 8.73,-84.01 12.86,-83.86 17.14,-83.64 22.16,-83.36 28.44,-83.1" fill="none" stroke="rgb(220, 208, 186)" stroke-width="2" stroke-linejoin="round" filter="url(#fuzzy)" /><polyline points="-50.98,-63.32 -50.43,-64.42 -49.86,-66.16 -49.5,-67.88 -48.92,-69.46 -47.77,-70.9 -46.14,-72.24 -44.36,-73.49 -42.65,-74.64 -41.06,-75.72 -39.43,-76.73 -37.59,-77.69 -35.42,-78.61 -32.94,-79.47 -30.24,-80.27 -27.42,-81.01 -24.53,-81.67 -21.57,-82.25 -18.49,-82.76 -15.28,-83.18 -11.97,-83.54 -8.63,-83.81 -5.32,-84.01 -2.11,-84.13 0.97,-84.18 3.97,-84.17 7.09,-84.1 10.83,-83.93 16.71,-83.59" fill="none" stroke="rgb(220, 208, 186)" stroke-width="2" stroke-linejoin="round" filter="url(#fuzzy)" /><polyline points="-50.98,-63.32 -49.91,-64.41 -48.19,-66.14 -46.78,-67.85 -45.72,-69.42 -44.7,-70.87 -43.43,-72.21 -41.75,-73.45 -39.7,-74.6 -37.38,-75.68 -34.95,-76.69 -32.54,-77.65 -30.22,-78.57 -27.99,-79.44 -25.82,-80.25 -23.65,-81 -21.41,-81.67 -19.08,-82.27 -16.65,-82.79 -14.1,-83.23 -11.39,-83.6 -8.46,-83.9 -5.29,-84.12 -2.02,-84.23 0.79,-84.2" fill="none" stroke="rgb(220, 208, 186)" stroke-width="2" stroke-linejoin="round" filter="url(#fuzzy)" /><polyline points="-52.58,-61.61 -62.16,-63.43 -61.37,-65.38 -57.86,-67.19 -53.91,-68.74 -50.23,-70.1 -46.93,-71.36 -43.95,-72.61 -41.21,-73.84 -38.65,-75.05 -36.24,-76.19 -33.95,-77.25 -31.75,-78.23 -29.61,-79.12 -27.47,-79.93 -25.32,-80.66 -23.13,-81.32 -20.89,-81.91 -18.58,-82.43 -16.17,-82.88 -13.58,-83.26 -10.72,-83.57 -7.52,-83.81 -3.96,-83.98 -0.14,-84.08 3.76,-84.11 7.57,-84.05 11.18,-83.9 14.73,-83.66 19.46,-83.29" fill="none" stroke="rgb(220, 208, 186)" stroke-width="2" stroke-linejoin="round" filter="url(#fuzzy)" /><polyline points="75.15,-18.4 76.64,-16.36 78.72,-14.17 80.82,-11.81 82.79,-9.37 84.64,-6.93 86.46,-4.48 88.24,-2.03 89.86,0.43 91.2,2.9 92.32,5.38 93.39,7.86 94.64,10.34 96.23,12.83 98.1,15.32 100.03,17.81 101.77,20.32 103.19,22.89 104.4,25.48 105.66,28.02 106.98,30.4 107.9,32.59 108.81,34.69" fill="none" stroke="rgb(220, 208, 186)" stroke-width="2" stroke-linejoin="round" filter="url(#fuzzy)" /><polyline points="-56.25,-57.85 -54.5,-59.9 -53.23,-61.68 -51.67,-63.49 -49.67,-65.29 -47.45,-67 -45.25,-68.55 -43.15,-69.97 -41.12,-71.3 -39.09,-72.57 -37.05,-73.81 -34.96,-75.01 -32.84,-76.14 -30.69,-77.2 -28.51,-78.18 -26.31,-79.08 -24.08,-79.89 -21.83,-80.62 -19.55,-81.28 -17.24,-81.87 -14.89,-82.38 -12.51,-82.82 -10.08,-83.2 -7.61,-83.49 -5.1,-83.72 -2.57,-83.87 -0.03,-83.96 2.47,-83.96 4.89,-83.9 7.22,-83.76 9.49,-83.56 11.71,-83.32 13.94,-83.03 16.18,-82.68 18.48,-82.26 20.9,-81.7 23.38,-80.99" fill="none" stroke="rgb(220, 208, 186)" stroke-width="2" stroke-linejoin="round" filter="url(#fuzzy)" /><polyline points="-56.38,-57.53 -54.86,-59.35 -53.41,-60.89 -51.8,-62.51 -50.08,-64.21 -48.3,-65.93 -46.49,-67.59 -44.63,-69.17 -42.73,-70.65 -40.83,-72.02 -38.98,-73.29 -37.19,-74.47 -35.42,-75.57 -33.62,-76.6 -31.74,-77.58 -29.75,-78.51 -27.64,-79.38 -25.44,-80.2 -23.14,-80.95 -20.74,-81.63 -18.24,-82.23 -15.67,-82.75 -13.03,-83.2 -10.33,-83.57 -7.58,-83.86 -4.77,-84.08 -2,-84.2 0.5,-84.22 2.42,-84.21" fill="none" stroke="rgb(220, 208, 186)" stroke-width="2" stroke-linejoin="round" filter="url(#fuzzy)" /><polyline points="-56.38,-57.53 -60.42,-59.35 -60.23,-60.88 -60.27,-62.49 -60.29,-64.19 -59.71,-65.91 -58.29,-67.57 -56.11,-69.15 -53.46,-70.62 -50.72,-72 -48.18,-73.27 -45.91,-74.45 -43.77,-75.55 -41.57,-76.58 -39.18,-77.55 -36.64,-78.48 -34.05,-79.37 -31.55,-80.19 -29.15,-80.95 -26.79,-81.64 -24.32,-82.25 -21.59,-82.78 -18.49,-83.23 -15.01,-83.61 -11.24,-83.93 -7.15,-84.17 -2.09,-84.35" fill="none" stroke="rgb(220, 208, 186)" stroke-width="2" stroke-linejoin="round" filter="url(#fuzzy)" /><polyline points="-56.38,-57.53 -55.94,-59.34 -54.35,-60.87 -52.62,-62.47 -50.93,-64.17 -49.26,-65.88 -47.6,-67.55 -45.92,-69.12 -44.2,-70.6 -42.4,-71.97 -40.52,-73.24 -38.6,-74.42 -36.67,-75.52 -34.76,-76.55 -32.83,-77.53 -30.8,-78.46 -28.64,-79.35 -26.35,-80.18 -23.96,-80.95 -21.53,-81.65 -19.09,-82.27 -16.68,-82.8 -14.26,-83.25 -11.71,-83.65 -9.48,-84.03" fill="none" stroke="rgb(220, 208, 186)" stroke-width="2" stroke-linejoin="round" filter="url(#fuzzy)" /><polyline points="-57.31,-56.41 -58.65,-57.8 -59.27,-59.31 -57.97,-60.86 -55.65,-62.49 -53.04,-64.18 -50.55,-65.87 -48.32,-67.53 -46.3,-69.1 -44.41,-70.58 -42.59,-71.96 -40.82,-73.24 -39.13,-74.43 -37.52,-75.53 -35.96,-76.57 -34.36,-77.55 -32.63,-78.48 -30.7,-79.36 -28.52,-80.18 -26.09,-80.94 -23.48,-81.62 -20.73,-82.22 -17.9,-82.75 -14.99,-83.19 -11.96,-83.57 -8.8,-83.86 -5.52,-84.08 -2.29,-84.2 0.62,-84.22 2.91,-84.21" fill="none" stroke="rgb(220, 208, 186)" stroke-width="2" stroke-linejoin="round" filter="url(#fuzzy)" /><polyline points="-59.2,-54.12 -57.67,-56.23 -56.48,-58.06 -55.48,-59.83 -54.79,-61.61 -54.21,-63.4 -53.51,-65.16 -52.59,-66.83 -51.48,-68.39 -50.19,-69.83 -48.73,-71.19 -47.09,-72.49 -45.27,-73.73 -43.27,-74.93 -41.12,-76.07 -38.8,-77.13 -36.32,-78.12 -33.71,-79.02 -31.01,-79.84 -28.24,-80.58 -25.44,-81.25 -22.61,-81.84 -19.73,-82.36 -16.76,-82.81 -13.67,-83.19 -10.4,-83.49 -6.94,-83.72 -3.31,-83.88 0.46,-83.97 4.28,-83.98 8.07,-83.92 11.82,-83.78 15.53,-83.59 19.25,-83.34 22.99,-83.07 26.78,-82.75 30.84,-82.35 35.59,-81.81" fill="none" stroke="rgb(220, 208, 186)" stroke-width="2" stroke-linejoin="round" filter="url(#fuzzy)" /><polyline points="-59.47,-53.66 -57.85,-55.84 -57.01,-57.59 -56.9,-59.19 -56.97,-60.77 -56.56,-62.4 -55.44,-64.07 -53.78,-65.75 -51.89,-67.4 -49.95,-68.97 -48.05,-70.46 -46.15,-71.85 -44.24,-73.14 -42.33,-74.33 -40.48,-75.44 -38.7,-76.48 -36.93,-77.47 -35.1,-78.41 -33.14,-79.31 -30.99,-80.16 -28.62,-80.94 -26.01,-81.64 -23.23,-82.27 -20.43,-82.81 -17.52,-83.24 -12.63,-83.68" fill="none" stroke="rgb(220, 208, 186)" stroke-width="2" stroke-linejoin="round" filter="url(#fuzzy)" /><polyline points="-59.47,-53.66 -58.08,-55.86 -57.74,-57.62 -57.85,-59.24 -57.7,-60.85 -56.99,-62.49 -55.64,-64.18 -53.68,-65.86 -51.23,-67.51 -48.5,-69.08 -45.74,-70.56 -43.15,-71.94 -40.84,-73.23 -38.81,-74.42 -36.96,-75.53 -35.17,-76.58 -33.33,-77.56 -31.37,-78.49 -29.25,-79.36 -26.93,-80.17 -24.44,-80.92 -21.8,-81.59 -19.06,-82.18 -16.25,-82.7 -13.41,-83.13 -10.56,-83.49 -7.7,-83.77 -4.84,-83.97 -2.01,-84.1 0.76,-84.15 3.47,-84.14 6.2,-84.07 9.07,-83.93 12.07,-83.75 14.07,-83.66" fill="none" stroke="rgb(220, 208, 186)" stroke-width="2" stroke-linejoin="round" filter="url(#fuzzy)" /><polyline points="74.44,-21.44 84.85,-18.68 85.85,-15.94 87.07,-13.3 88.62,-10.79 89.79,-8.31 90.69,-5.79 91.7,-3.23 92.99,-0.65 94.46,1.91 95.93,4.44 97.25,6.96 98.37,9.49 99.22,12.04 99.74,14.61 99.83,17.19 99.41,19.75 98.52,22.28 97.32,24.75 96.1,27.16 95.13,29.51 94.63,31.8 94.6,34.06 94.88,36.31 95.2,38.57 95.32,40.88 95.14,43.25 94.74,45.65 94.25,48.05 93.76,50.41 93.19,52.71 92.33,54.88 91.16,56.85 90.44,58.53 91.4,60.1" fill="none" stroke="rgb(220, 208, 186)" stroke-width="2" stroke-linejoin="round" filter="url(#fuzzy)" /><polyline points="-62.01,-49.76 -61.45,-51.45 -61.5,-53.49 -62.05,-55.47 -62.35,-57.3 -61.89,-59.01 -60.76,-60.67 -59.31,-62.33 -57.76,-64 -56.12,-65.67 -54.31,-67.3 -52.32,-68.88 -50.21,-70.37 -48.12,-71.77 -46.12,-73.07 -44.26,-74.28 -42.55,-75.4 -40.95,-76.46 -39.36,-77.45 -37.66,-78.4 -35.74,-79.29 -33.54,-80.14 -31.06,-80.92 -28.35,-81.62 -25.41,-82.25 -22.25,-82.79 -18.94,-83.24 -15.47,-83.65 -12.27,-84.03" fill="none" stroke="rgb(220, 208, 186)" stroke-width="2" stroke-linejoin="round" filter="url(#fuzzy)" /><polyline points="-64.43,-46.44 -62.99,-49.08 -61.94,-51.28 -60.71,-53.38 -59.39,-55.36 -58.09,-57.2 -56.83,-58.93 -55.61,-60.61 -54.37,-62.28 -53.09,-63.96 -51.71,-65.62 -50.15,-67.26 -48.4,-68.83 -46.44,-70.33 -44.32,-71.73 -42.1,-73.04 -39.86,-74.25 -37.64,-75.38 -35.46,-76.44 -33.32,-77.43 -31.2,-78.38 -29.1,-79.28 -26.97,-80.13 -24.74,-80.91 -22.36,-81.62 -19.79,-82.24 -17.13,-82.79 -14.49,-83.24 -11.81,-83.65 -9.55,-84.03" fill="none" stroke="rgb(220, 208, 186)" stroke-width="2" stroke-linejoin="round" filter="url(#fuzzy)" /><polyline points="-64.43,-46.44 -62.74,-49.08 -61.2,-51.29 -59.74,-53.39 -58.39,-55.37 -57.13,-57.21 -55.87,-58.95 -54.52,-60.64 -53.01,-62.31 -51.31,-63.99 -49.47,-65.66 -47.54,-67.29 -45.55,-68.86 -43.54,-70.35 -41.53,-71.75 -39.56,-73.06 -37.61,-74.27 -35.69,-75.4 -33.76,-76.46 -31.78,-77.45 -29.71,-78.4 -27.54,-79.29 -25.26,-80.13 -22.89,-80.9 -20.45,-81.6 -17.96,-82.21 -15.45,-82.75 -12.92,-83.21 -10.33,-83.6 -7.61,-83.92 -4.67,-84.17 -1.25,-84.35" fill="none" stroke="rgb(220, 208, 186)" stroke-width="2" stroke-linejoin="round" filter="url(#fuzzy)" /><polyline points="-65.71,-44.11 -69.68,-46.55 -68.62,-48.93 -68.42,-51.16 -68.33,-53.27 -67.12,-55.25 -64.75,-57.11 -61.93,-58.87 -59.37,-60.57 -57.43,-62.25 -56.14,-63.93 -55.32,-65.6 -54.67,-67.23 -53.93,-68.8 -52.89,-70.3 -51.48,-71.7 -49.79,-73.01 -47.93,-74.23 -46.03,-75.37 -44.14,-76.43 -42.18,-77.43 -40.01,-78.38 -37.48,-79.28 -34.54,-80.12 -31.28,-80.9 -27.89,-81.6 -24.58,-82.22 -21.43,-82.77 -18.3,-83.23 -14.89,-83.62 -11.2,-83.95 -7.34,-84.17" fill="none" stroke="rgb(220, 208, 186)" stroke-width="2" stroke-linejoin="round" filter="url(#fuzzy)" /><polyline points="-66.19,-42.8 -65.98,-44.47 -64.93,-46.61 -63.45,-48.85 -61.9,-51.05 -60.51,-53.15 -59.41,-55.14 -58.64,-57 -58.09,-58.78 -57.53,-60.49 -56.73,-62.18 -55.57,-63.86 -54.08,-65.52 -52.41,-67.15 -50.71,-68.73 -49.08,-70.24 -47.51,-71.65 -45.94,-72.97 -44.25,-74.19 -42.38,-75.33 -40.32,-76.39 -38.12,-77.4 -35.86,-78.35 -33.6,-79.26 -31.29,-80.11 -28.87,-80.9 -26.23,-81.62 -23.39,-82.26 -20.48,-82.8 -17.47,-83.24 -12.89,-83.68" fill="none" stroke="rgb(220, 208, 186)" stroke-width="2" stroke-linejoin="round" filter="url(#fuzzy)" /><polyline points="-66.19,-42.8 -67.93,-44.47 -69.91,-46.6 -71.76,-48.84 -72.57,-51.04 -72.13,-53.14 -70.72,-55.13 -68.78,-56.99 -66.6,-58.76 -64.34,-60.47 -62.04,-62.16 -59.75,-63.84 -57.54,-65.5 -55.46,-67.14 -53.56,-68.72 -51.85,-70.22 -50.29,-71.64 -48.81,-72.96 -47.27,-74.18 -45.55,-75.32 -43.55,-76.38 -41.32,-77.38 -38.97,-78.34 -36.63,-79.26 -34.3,-80.12 -31.85,-80.91 -29.06,-81.64 -25.92,-82.29 -23.06,-82.82 -22.5,-83.08" fill="none" stroke="rgb(220, 208, 186)" stroke-width="2" stroke-linejoin="round" filter="url(#fuzzy)" /><polyline points="-66.74,-42.09 -67.67,-44.08 -68.61,-45.98 -69.25,-47.88 -69.66,-49.79 -69.44,-51.71 -68.53,-53.64 -67.33,-55.56 -66.41,-57.44 -66.04,-59.28 -66.16,-61.1 -66.42,-62.88 -66.51,-64.62 -66.21,-66.3 -65.42,-67.89 -64.11,-69.36 -62.33,-70.75 -60.2,-72.07 -57.92,-73.35 -55.68,-74.6 -53.56,-75.8 -51.47,-76.93 -49.22,-77.97 -46.68,-78.93 -43.88,-79.81 -41.16,-80.59 -38.92,-81.2 -36.85,-81.72" fill="none" stroke="rgb(220, 208, 186)" stroke-width="2" stroke-linejoin="round" filter="url(#fuzzy)" /><polyline points="74.73,-21.55 75.19,-18.85 75.67,-16.5 76.27,-14.16 76.99,-11.76 77.71,-9.31 78.33,-6.84 78.79,-4.36 79.1,-1.87 79.31,0.63 79.46,3.13 79.61,5.64 79.76,8.16 79.93,10.68 80.04,13.2 80.03,15.73 79.86,18.26 79.51,20.8 79.02,23.32 78.46,25.81 77.87,28.24 77.28,30.61 76.7,32.92 76.1,35.19 75.45,37.45 74.75,39.68 74.05,41.84 73.35,43.91 72.57,45.92 71.5,48.02 70.01,50.33 68.16,53.08" fill="none" stroke="rgb(220, 208, 186)" stroke-width="2" stroke-linejoin="round" filter="url(#fuzzy)" /><polyline points="-69.06,-36.9 -69.53,-34.87 -68.57,-32.39 -67.11,-29.84 -65.91,-27.26 -65.13,-24.66 -64.45,-22.06 -63.4,-19.49 -61.57,-16.96 -58.77,-14.49 -55.27,-12.08 -51.67,-9.71 -48.71,-7.36 -46.87,-5.01 -46.12,-2.65 -45.98,-0.27 -45.71,2.13 -44.76,4.56 -42.9,7.04 -40.25,9.6 -37.06,12.22 -33.49,14.88 -29.47,17.53 -24.76,20.04 -19.49,22.32 -15.96,25.05" fill="none" stroke="rgb(220, 208, 186)" stroke-width="2" stroke-linejoin="round" filter="url(#fuzzy)" /><polyline points="-69.88,-35.47 -71.23,-33.49 -74.84,-31.25 -79.42,-28.9 -83.26,-26.46 -86.54,-23.98 -90.46,-21.5 -95.78,-19.05 -102.28,-16.61 -109.08,-14.16 -115.08,-11.68 -119.51,-9.19 -122.07,-6.69 -122.99,-4.2 -122.93,-1.72 -122.72,0.78 -123.09,3.3 -124.41,5.87 -126.52,8.48 -128.89,11.15 -130.89,13.84 -132.18,16.51 -132.86,19.1 -133.38,21.59 -134.26,23.94 -135.81,26.19 -137.97,28.42 -140.27,30.74 -141.79,33.23 -141.48,35.93 -139.52,38.8 -139.17,41.72" fill="none" stroke="rgb(220, 208, 186)" stroke-width="2" stroke-linejoin="round" filter="url(#fuzzy)" /><polyline points="-70.07,-35.61 -71.75,-32.35 -72.83,-29.76 -74.18,-27.17 -76.18,-24.55 -78.75,-21.95 -81.53,-19.37 -84.18,-16.85 -86.66,-14.38 -89.18,-11.97 -91.95,-9.61 -94.91,-7.26 -97.75,-4.91 -100.15,-2.55 -101.99,-0.17 -103.5,2.24 -105.18,4.68 -107.59,7.16 -111.08,9.72 -115.63,12.33 -120.75,14.97 -125.68,17.59 -129.75,20.12 -132.86,22.54 -135.45,25.02 -137.64,27.71" fill="none" stroke="rgb(220, 208, 186)" stroke-width="2" stroke-linejoin="round" filter="url(#fuzzy)" /><polyline points="-70.07,-35.61 -71.74,-32.35 -74.18,-29.77 -76.86,-27.18 -80.03,-24.57 -84.33,-21.97 -89.79,-19.4 -95.56,-16.87 -100.28,-14.41 -102.98,-12.01 -103.58,-9.65 -102.97,-7.31 -102.46,-4.96 -103.13,-2.61 -105.52,-0.23 -109.55,2.17 -114.65,4.59 -119.93,7.07 -124.43,9.62 -127.59,12.24 -129.65,14.9 -131.7,17.54 -134.88,20.05 -139.67,22.33 -144.93,25.05" fill="none" stroke="rgb(220, 208, 186)" stroke-width="2" stroke-linejoin="round" filter="url(#fuzzy)" /><polyline points="-70.63,-33.77 -76.55,-31.27 -76.95,-28.92 -77.18,-26.48 -77.89,-23.99 -78.78,-21.53 -79.62,-19.11 -80.31,-16.7 -80.89,-14.29 -81.46,-11.83 -82.12,-9.35 -82.97,-6.87 -84.01,-4.4 -85.2,-1.95 -86.45,0.49 -87.68,2.95 -88.86,5.47 -89.94,8.05 -90.89,10.71 -91.68,13.46 -92.3,16.28 -92.76,19.08 -92.99,21.66 -93.06,23.69 -94.55,24.55" fill="none" stroke="rgb(220, 208, 186)" stroke-width="2" stroke-linejoin="round" filter="url(#fuzzy)" /><polyline points="-70.63,-33.77 -78.81,-31.25 -79.95,-28.87 -79.94,-26.41 -80.81,-23.9 -82.45,-21.41 -84.27,-18.97 -85.92,-16.53 -87.45,-14.08 -89.06,-11.61 -90.93,-9.11 -93.12,-6.61 -95.65,-4.12 -98.45,-1.63 -101.43,0.86 -104.38,3.39 -107.1,5.95 -109.39,8.57 -111.21,11.23 -112.66,13.92 -113.89,16.57 -115.07,19.16 -116.22,21.64 -117.33,24 -118.42,26.28 -119.62,28.54 -121.11,30.89 -122.85,33.37 -124.4,36.02 -125.19,38.74 -125.56,41.36 -126.1,43.54" fill="none" stroke="rgb(220, 208, 186)" stroke-width="2" stroke-linejoin="round" filter="url(#fuzzy)" /><polyline points="-70.63,-33.77 -71.79,-31.27 -72.77,-28.92 -73.6,-26.48 -74.43,-23.99 -75.35,-21.53 -76.31,-19.11 -77.24,-16.7 -78.1,-14.29 -78.92,-11.83 -79.76,-9.35 -80.66,-6.87 -81.57,-4.4 -82.4,-1.95 -83.02,0.49 -83.4,2.95 -83.57,5.47 -83.66,8.05 -83.82,10.71 -84.11,13.46 -84.5,16.28 -84.86,19.08 -85.09,21.66 -85.04,23.69 -84.65,24.55" fill="none" stroke="rgb(220, 208, 186)" stroke-width="2" stroke-linejoin="round" filter="url(#fuzzy)" /><polyline points="-71.52,-31.08 -72.96,-29.53 -77.26,-27 -82.65,-24.34 -86.93,-21.69 -89.85,-19.09 -92.08,-16.54 -94.21,-14.05 -96.51,-11.62 -98.97,-9.22 -101.39,-6.84 -103.52,-4.45 -105.21,-2.04 -106.39,0.39 -107.14,2.86 -107.56,5.36 -107.73,7.9 -107.71,10.47 -107.54,13.05 -107.27,15.63 -107.01,18.2 -106.91,20.73 -107.15,23.21 -107.82,25.65 -108.89,28.05 -110.21,30.42 -111.5,32.75 -112.46,35.06 -112.9,37.36 -112.86,39.64 -112.56,41.91 -112.2,44.13 -111.77,46.29 -111.11,48.39 -110.32,50.48 -110.12,52.61 -111.1,54.75 -112.78,56.76" fill="none" stroke="rgb(220, 208, 186)" stroke-width="2" stroke-linejoin="round" filter="url(#fuzzy)" /><polyline points="-71.65,-30.78 -74.93,-28.83 -79.59,-26.4 -82.3,-23.87 -83.08,-21.38 -83.68,-18.95 -85.1,-16.55 -87.16,-14.13 -89.16,-11.66 -90.67,-9.17 -91.69,-6.68 -92.56,-4.2 -93.51,-1.74 -94.58,0.72 -95.66,3.21 -96.67,5.75 -97.67,8.35 -98.87,11.02 -100.44,13.73 -102.36,16.45 -104.37,19.09 -105.99,21.58 -106.82,23.86 -106.76,25.97 -106.24,28.03 -106.14,30.12 -107.35,32.08" fill="none" stroke="rgb(220, 208, 186)" stroke-width="2" stroke-linejoin="round" filter="url(#fuzzy)" /><polyline points="-72.13,-29.34 -82.06,-26.44 -88.38,-23.8 -89.64,-21.29 -88.71,-18.88 -88.22,-16.52 -89.3,-14.12 -91.72,-11.67 -94.64,-9.18 -97.23,-6.69 -99.13,-4.23 -100.55,-1.79 -102.14,0.65 -104.67,3.11 -108.59,5.63 -113.7,8.21 -119.12,10.87 -123.67,13.61 -126.64,16.38 -128.45,19.1 -130.49,21.61 -133.76,23.79 -137.4,25.7 -142.32,28.16" fill="none" stroke="rgb(220, 208, 186)" stroke-width="2" stroke-linejoin="round" filter="url(#fuzzy)" /><polyline points="-72.13,-29.34 -68.75,-26.43 -66.71,-23.78 -64.24,-21.26 -60.46,-18.85 -57.02,-16.47 -55.46,-14.06 -55.82,-11.6 -57.04,-9.11 -58.04,-6.61 -58.26,-4.14 -57.68,-1.69 -56.44,0.77 -54.58,3.25 -52.1,5.79 -49.05,8.38 -45.68,11.05 -42.42,13.77 -39.64,16.48 -37.53,19.12 -35.82,21.6 -33.89,23.87 -30.97,25.98 -26.83,28.03 -22.49,30.12 -20.04,32.08" fill="none" stroke="rgb(220, 208, 186)" stroke-width="2" stroke-linejoin="round" filter="url(#fuzzy)" /><polyline points="-72.13,-29.34 -73.9,-26.39 -76.19,-23.72 -77.61,-21.18 -78.3,-18.73 -78.94,-16.31 -79.97,-13.86 -81.35,-11.37 -82.82,-8.86 -84.07,-6.34 -84.94,-3.83 -85.46,-1.33 -85.79,1.18 -86.21,3.73 -86.97,6.31 -88.23,8.94 -90,11.6 -92.12,14.26 -94.23,16.88 -95.9,19.44 -96.79,21.92 -96.75,24.33 -95.92,26.71 -94.66,29.07 -93.36,31.46 -92.34,33.87 -91.67,36.3 -91.28,38.69 -90.98,41.01 -90.63,43.24 -90.17,45.39 -89.62,47.49 -88.99,49.57 -88.26,51.58 -87.56,53.49 -87.05,55.34 -86.8,57.34" fill="none" stroke="rgb(220, 208, 186)" stroke-width="2" stroke-linejoin="round" filter="url(#fuzzy)" /><polyline points="73.98,-23.6 81.16,-21.32 82.5,-18.92 83.39,-16.56 84.53,-14.19 85.96,-11.77 87.73,-9.32 89.85,-6.85 92.26,-4.36 94.78,-1.86 97.21,0.64 99.36,3.16 101.14,5.67 102.57,8.2 103.71,10.73 104.69,13.26 105.62,15.8 106.57,18.34 107.58,20.87 108.6,23.39 109.51,25.88 110.2,28.31 110.64,30.69 110.92,33.02 111.2,35.3 111.68,37.55 112.49,39.76 113.64,41.93 115,44.07 116.24,46.18 116.95,48.32 116.73,50.52 115.56,52.78 113.98,55.02 113.04,57.16 113.51,58.91" fill="none" stroke="rgb(220, 208, 186)" stroke-width="2" stroke-linejoin="round" filter="url(#fuzzy)" /><polyline points="73.98,-23.6 74.82,-21.34 75.61,-18.95 76.37,-16.61 77.15,-14.26 77.89,-11.87 78.5,-9.43 78.92,-6.98 79.14,-4.51 79.2,-2.03 79.2,0.46 79.24,2.95 79.41,5.45 79.74,7.95 80.2,10.46 80.71,12.98 81.14,15.5 81.38,18.02 81.36,20.56 81.08,23.1 80.61,25.61 80.07,28.06 79.51,30.41 78.92,32.67 78.21,34.9 77.32,37.23 76.28,39.7 75.24,42.05 74.42,43.54" fill="none" stroke="rgb(220, 208, 186)" stroke-width="2" stroke-linejoin="round" filter="url(#fuzzy)" /><polyline points="72.67,-28.71 74.34,-25.83 75.12,-23.55 75.81,-21.23 76.88,-18.77 78.4,-16.23 80.11,-13.69 81.66,-11.18 82.85,-8.68 83.78,-6.16 84.71,-3.61 85.92,-1.06 87.51,1.48 89.37,4 91.28,6.49 93.03,9 94.51,11.53 95.69,14.09 96.53,16.67 96.98,19.26 96.98,21.82 96.64,24.32 96.21,26.74 96.04,29.09 96.33,31.39 97.09,33.63 98.06,35.67 98.79,37.36 98.85,39.12" fill="none" stroke="rgb(220, 208, 186)" stroke-width="2" stroke-linejoin="round" filter="url(#fuzzy)" /><polyline points="71.46,-31.97 72.64,-30.37 74.05,-28.27 75.6,-26 77.27,-23.69 78.74,-21.31 79.69,-18.86 80.09,-16.35 80.12,-13.83 80.05,-11.31 80.07,-8.8 80.26,-6.27 80.64,-3.72 81.17,-1.17 81.82,1.37 82.52,3.9 83.2,6.41 83.78,8.92 84.18,11.46 84.36,14.02 84.27,16.61 83.93,19.2 83.41,21.76 82.82,24.27 82.3,26.71 81.95,29.06 81.72,31.37 81.47,33.61 81.14,35.66 80.9,37.36 80.58,39.12" fill="none" stroke="rgb(220, 208, 186)" stroke-width="2" stroke-linejoin="round" filter="url(#fuzzy)" /><polyline points="69.99,-34.91 72.43,-32.55 74.34,-30.47 75.44,-28.31 76.41,-26.07 77.89,-23.76 80.29,-21.39 83.6,-18.95 87.37,-16.45 91,-13.94 93.96,-11.43 96.07,-8.92 97.38,-6.39 98.09,-3.84 98.42,-1.29 98.65,1.25 99.06,3.76 99.92,6.27 101.35,8.77 103.22,11.3 105.15,13.86 106.74,16.46 107.72,19.06 108.2,21.65 108.58,24.18 109.25,26.59 110.1,28.92 110.41,31.3 109.71,33.97 108.87,36.62" fill="none" stroke="rgb(220, 208, 186)" stroke-width="2" stroke-linejoin="round" filter="url(#fuzzy)" /><polyline points="69.99,-34.91 67.98,-32.54 65.97,-30.44 65.05,-28.26 64.57,-26.01 64.55,-23.68 65.04,-21.29 65.78,-18.83 66.18,-16.33 65.71,-13.8 64.18,-11.28 61.85,-8.74 59.27,-6.2 57,-3.64 55.36,-1.08 54.28,1.47 53.43,4 52.48,6.54 51.22,9.07 49.7,11.62 48.08,14.19 46.57,16.77 45.28,19.35 44.14,21.9 43,24.39 41.62,26.82 39.83,29.18 37.55,31.48 34.84,33.71 31.93,35.9 29.11,38.1 26.75,40.39 25.06,42.84 23.85,45.4 22.11,47.85 18.76,50.19" fill="none" stroke="rgb(220, 208, 186)" stroke-width="2" stroke-linejoin="round" filter="url(#fuzzy)" /><polyline points="69.56,-36.68 72.44,-34.21 75.32,-31.79 77.4,-29.34 79.41,-26.84 81.42,-24.31 83.26,-21.81 85.06,-19.35 87.16,-16.92 89.89,-14.49 93.34,-12.05 97.29,-9.6 101.25,-7.14 104.6,-4.66 106.79,-2.16 107.51,0.34 106.81,2.86 105.08,5.38 102.86,7.9 100.72,10.43 99.05,12.97 98.01,15.51 97.58,18.06 97.64,20.6 98.1,23.13 98.92,25.63 100.13,28.08 101.76,30.47 103.81,32.8 106.17,35.09 108.62,37.36 110.82,39.6 112.46,41.77 113.42,43.86 113.9,45.89 114.24,48 114.38,50.32 112.94,53.08" fill="none" stroke="rgb(220, 208, 186)" stroke-width="2" stroke-linejoin="round" filter="url(#fuzzy)" /><polyline points="68.1,-39.92 69.65,-37.02 72.48,-34.41 76.44,-31.92 80.35,-29.45 83.35,-26.95 85.25,-24.45 86.4,-21.96 87.37,-19.51 88.65,-17.08 90.47,-14.66 92.74,-12.24 95.17,-9.8 97.42,-7.35 99.27,-4.88 100.72,-2.4 101.92,0.09 103.05,2.6 104.21,5.11 105.34,7.62 106.3,10.14 106.96,12.66 107.36,15.19 107.66,17.73 108.11,20.28 108.9,22.85 110,25.4 111.2,27.9 112.22,30.25 112.92,32.43 113.22,34.49 112.71,36.8 110.31,40.56" fill="none" stroke="rgb(220, 208, 186)" stroke-width="2" stroke-linejoin="round" filter="url(#fuzzy)" /><polyline points="65.85,-43.5 71.65,-40.77 77.19,-38.29 79.59,-35.75 79.88,-33.27 79.64,-30.9 79.92,-28.59 80.94,-26.29 82.42,-23.97 83.87,-21.6 85.03,-19.17 85.84,-16.7 86.48,-14.2 87.16,-11.7 88.08,-9.19 89.33,-6.66 90.93,-4.11 92.79,-1.56 94.72,0.98 96.51,3.5 97.93,5.99 98.84,8.48 99.29,11 99.47,13.56 99.66,16.17 99.93,18.81 100.03,21.51 99.6,24.21 98.99,26.73 99.46,29.23" fill="none" stroke="rgb(220, 208, 186)" stroke-width="2" stroke-linejoin="round" filter="url(#fuzzy)" /><polyline points="65.85,-43.5 65.37,-40.76 65.2,-38.26 66.01,-35.72 66.57,-33.24 66.42,-30.85 65.79,-28.53 65.08,-26.22 64.61,-23.88 64.5,-21.49 64.74,-19.05 65.19,-16.58 65.67,-14.07 66.05,-11.55 66.26,-9.03 66.29,-6.49 66.18,-3.94 65.96,-1.38 65.62,1.16 65.12,3.69 64.41,6.22 63.45,8.74 62.19,11.28 60.66,13.85 58.9,16.45 57.02,19.05 55.14,21.64 53.33,24.16 51.59,26.6 49.9,28.97 48.32,31.31 46.9,33.67 45.48,35.74 44.22,36.7" fill="none" stroke="rgb(220, 208, 186)" stroke-width="2" stroke-linejoin="round" filter="url(#fuzzy)" /><polyline points="66.5,-42.96 67.94,-41.85 71.74,-39.74 77.13,-37.28 83,-34.78 88.65,-32.3 93.96,-29.84 99.09,-27.37 104.13,-24.9 108.91,-22.44 113.18,-20.02 116.86,-17.63 120.14,-15.26 123.24,-12.88 126.15,-10.49 128.77,-8.07 131.3,-5.64 134.52,-3.21 139.64,-0.75 147.3,1.74 156.36,4.24 164.28,6.6 175.18,8.74" fill="none" stroke="rgb(220, 208, 186)" stroke-width="2" stroke-linejoin="round" filter="url(#fuzzy)" /><polyline points="66.5,-42.96 67.69,-41.82 69.56,-39.65 71.26,-37.16 72.51,-34.62 73.36,-32.09 73.94,-29.59 74.44,-27.08 74.95,-24.58 75.51,-22.1 76.09,-19.64 76.64,-17.2 77.17,-14.77 77.66,-12.33 78.15,-9.89 78.64,-7.43 79.13,-4.96 79.6,-2.47 80.03,0.02 80.4,2.53 80.69,5.04 80.9,7.56 81.03,10.08 81.09,12.61 81.06,15.14 80.95,17.69 80.75,20.24 80.47,22.81 80.1,25.37 79.63,27.87 79.06,30.23 78.35,32.41 77.46,34.48 76.31,36.8 74.84,40.56" fill="none" stroke="rgb(220, 208, 186)" stroke-width="2" stroke-linejoin="round" filter="url(#fuzzy)" /><polyline points="65.72,-43.69 66.67,-42.56 68.39,-40.57 70.07,-38.24 71.5,-35.79 72.74,-33.35 73.89,-30.98 75.03,-28.65 76.19,-26.33 77.42,-23.99 78.74,-21.61 80.16,-19.18 81.6,-16.71 82.99,-14.21 84.19,-11.7 85.09,-9.18 85.67,-6.65 85.95,-4.1 86.02,-1.55 85.97,0.99 85.94,3.52 86.01,6.02 86.25,8.53 86.66,11.06 87.19,13.63 87.74,16.23 88.25,18.87 88.73,21.52 89.19,24.11 89.55,26.47 89.65,28.38 89.09,29.39" fill="none" stroke="rgb(220, 208, 186)" stroke-width="2" stroke-linejoin="round" filter="url(#fuzzy)" /><polyline points="65.72,-43.69 66.96,-42.56 68.97,-40.57 70.99,-38.24 72.67,-35.79 74.04,-33.35 75.27,-30.98 76.48,-28.65 77.74,-26.33 79.07,-23.99 80.52,-21.61 82.1,-19.18 83.78,-16.71 85.43,-14.21 86.9,-11.7 88.05,-9.18 88.88,-6.65 89.51,-4.1 90.2,-1.55 91.18,0.99 92.55,3.52 94.24,6.02 95.99,8.53 97.5,11.06 98.62,13.63 99.34,16.23 99.78,18.87 100,21.52 99.97,24.11 99.75,26.47 99.69,28.38 99.96,29.39" fill="none" stroke="rgb(220, 208, 186)" stroke-width="2" stroke-linejoin="round" filter="url(#fuzzy)" /><polyline points="64.21,-46.76 66.42,-44.06 69.75,-41.92 74.68,-39.63 79.08,-37.19 81.55,-34.69 82.23,-32.18 82.05,-29.68 81.95,-27.17 82.43,-24.68 83.56,-22.2 85.16,-19.74 86.95,-17.3 88.7,-14.87 90.3,-12.44 91.76,-10 93.17,-7.54 94.59,-5.08 96.03,-2.59 97.5,-0.1 99.05,2.4 100.79,4.91 102.81,7.43 105.15,9.95 107.66,12.47 110.09,15 112.16,17.54 113.7,20.09 114.76,22.69 115.43,25.31 115.67,27.89 115.3,30.32 114.62,32.55 115.85,34.69" fill="none" stroke="rgb(220, 208, 186)" stroke-width="2" stroke-linejoin="round" filter="url(#fuzzy)" /><polyline points="64.21,-46.76 83.53,-44.06 80.68,-41.93 76.68,-39.64 75.63,-37.2 77.27,-34.7 80.52,-32.2 84.38,-29.7 88.08,-27.19 91.18,-24.7 93.62,-22.22 95.67,-19.76 97.79,-17.33 100.36,-14.9 103.54,-12.47 107.11,-10.04 110.66,-7.58 113.79,-5.12 116.36,-2.64 118.65,-0.15 121.23,2.35 124.6,4.86 128.93,7.37 133.87,9.89 138.65,12.41 142.45,14.94 144.92,17.46 146.41,20.01 147.89,22.62 150.14,25.28 152.8,27.92 154.36,30.33 153.73,32.52" fill="none" stroke="rgb(220, 208, 186)" stroke-width="2" stroke-linejoin="round" filter="url(#fuzzy)" /><polyline points="63.79,-47.31 64.68,-45.93 65.83,-44 67,-41.89 68.19,-39.61 69.42,-37.19 70.68,-34.72 71.94,-32.21 73.17,-29.7 74.34,-27.19 75.43,-24.69 76.43,-22.21 77.35,-19.75 78.17,-17.3 78.87,-14.86 79.43,-12.42 79.84,-9.97 80.11,-7.51 80.26,-5.03 80.31,-2.54 80.31,-0.04 80.25,2.46 80.15,4.98 80.01,7.5 79.81,10.03 79.57,12.56 79.29,15.1 78.96,17.65 78.58,20.21 78.14,22.78 77.64,25.35 77.07,27.85 76.44,30.21 75.79,32.4 75.17,34.48 74.49,36.79 73.08,40.56" fill="none" stroke="rgb(220, 208, 186)" stroke-width="2" stroke-linejoin="round" filter="url(#fuzzy)" /><polyline points="61.44,-50.74 62.24,-49.35 62.97,-47.31 63.33,-45.14 63.6,-42.95 63.9,-40.71 64.11,-38.39 64.17,-36.03 64.18,-33.65 64.34,-31.29 64.74,-28.95 65.23,-26.62 65.5,-24.29 65.21,-21.91 64.19,-19.5 62.48,-17.04 60.32,-14.56 58.05,-12.06 55.91,-9.55 53.94,-7.03 52.03,-4.48 50.02,-1.91 47.89,0.65 45.81,3.16 44.03,5.61 42.66,8.06 41.47,10.59 39.88,13.25 37,15.78 32.23,17.18" fill="none" stroke="rgb(220, 208, 186)" stroke-width="2" stroke-linejoin="round" filter="url(#fuzzy)" /><polyline points="59.72,-53.08 68.95,-51.19 75.41,-49.36 76.04,-47.35 74.88,-45.24 74.3,-43.07 74.9,-40.85 76.6,-38.56 79.19,-36.21 82.55,-33.85 86.64,-31.5 91.37,-29.18 96.68,-26.88 102.46,-24.57 108.54,-22.22 114.65,-19.82 120.38,-17.37 125.34,-14.89 129.26,-12.41 132.28,-9.95 134.92,-7.48 137.73,-4.94 140.81,-2.26 143.7,0.51 147.25,3.04 156.01,4.16" fill="none" stroke="rgb(220, 208, 186)" stroke-width="2" stroke-linejoin="round" filter="url(#fuzzy)" /><polyline points="59.64,-53.56 67.52,-52.15 69.78,-50.41 71.45,-48.43 74.5,-46.36 78.69,-44.25 82.83,-42.08 86.01,-39.81 88.13,-37.46 89.68,-35.04 91.14,-32.58 92.71,-30.1 94.32,-27.61 95.9,-25.13 97.53,-22.66 99.38,-20.2 101.55,-17.77 103.89,-15.36 106.16,-12.94 108.16,-10.52 109.89,-8.08 111.56,-5.63 113.34,-3.16 115.28,-0.67 117.27,1.82 119.35,4.31 121.83,6.79 125.08,9.26 129.2,11.83 134.31,14.57" fill="none" stroke="rgb(220, 208, 186)" stroke-width="2" stroke-linejoin="round" filter="url(#fuzzy)" /><polyline points="50.06,-64.08 54.1,-62.05 58.95,-60.17 62.02,-58.25 63.38,-56.35 64.05,-54.47 64.88,-52.59 66.31,-50.69 68.5,-48.73 71.36,-46.72 74.55,-44.65 77.61,-42.5 80.16,-40.28 82.11,-37.97 83.68,-35.6 85.26,-33.17 87.16,-30.71 89.47,-28.23 92,-25.74 94.45,-23.25 96.57,-20.8 98.38,-18.39 100.17,-16.02 102.36,-13.66 105.2,-11.24 108.25,-8.89 108.93,-7.51" fill="none" stroke="rgb(220, 208, 186)" stroke-width="2" stroke-linejoin="round" filter="url(#fuzzy)" /><polyline points="44.47,-68.7 49.12,-66.57 52.93,-64.92 54.87,-63.31 56.05,-61.65 57.4,-59.91 59.29,-58.08 61.69,-56.16 64.39,-54.15 67.11,-52.09 69.62,-50 71.84,-47.88 73.84,-45.74 75.82,-43.56 77.95,-41.33 80.38,-39.05 83.11,-36.74 86.05,-34.39 89.04,-32.04 91.9,-29.71 94.46,-27.39 96.63,-25.08 98.44,-22.74 100.13,-20.34 101.99,-17.86 104.22,-15.31 106.64,-12.78 108.74,-10.42 110.08,-8.33 111.1,-6.28" fill="none" stroke="rgb(220, 208, 186)" stroke-width="2" stroke-linejoin="round" filter="url(#fuzzy)" /><polyline points="44.47,-68.7 47.4,-66.57 49.93,-64.92 52.25,-63.31 54.64,-61.65 57.2,-59.91 59.85,-58.08 62.44,-56.16 64.88,-54.15 67.12,-52.09 69.18,-50 71.09,-47.88 72.95,-45.74 74.92,-43.56 77.19,-41.33 79.9,-39.05 83.01,-36.74 86.22,-34.39 89.13,-32.04 91.36,-29.71 92.8,-27.39 93.66,-25.08 94.43,-22.74 95.6,-20.34 97.46,-17.86 100.04,-15.31 103.18,-12.78 106.59,-10.42 109.74,-8.33 112.24,-6.28" fill="none" stroke="rgb(220, 208, 186)" stroke-width="2" stroke-linejoin="round" filter="url(#fuzzy)" /><polyline points="39.78,-72.09 42.53,-71.08 44.36,-69.65 45.91,-68.15 47.52,-66.61 49.27,-65.03 51.16,-63.42 53.18,-61.75 55.31,-60.01 57.5,-58.19 59.67,-56.28 61.77,-54.3 63.77,-52.26 65.67,-50.17 67.52,-48.06 69.34,-45.92 71.16,-43.74 72.97,-41.52 74.77,-39.25 76.51,-36.93 78.15,-34.58 79.66,-32.23 81,-29.89 82.19,-27.58 83.32,-25.29 84.45,-22.98 85.64,-20.6 86.89,-18.1 88.22,-15.4 89.76,-12.59 91.52,-10.42" fill="none" stroke="rgb(220, 208, 186)" stroke-width="2" stroke-linejoin="round" filter="url(#fuzzy)" /><polyline points="37.72,-73.46 43.03,-72.03 47.98,-70.57 51.2,-69.11 53.92,-67.57 56.87,-65.93 60.13,-64.19 63.58,-62.38 67.02,-60.51 70.2,-58.63 72.89,-56.74 74.98,-54.84 76.58,-52.94 77.98,-51.01 79.57,-49.05 81.67,-47.04 84.4,-44.98 87.69,-42.84 91.25,-40.63 94.74,-38.34 97.85,-35.97 100.44,-33.55 102.57,-31.08 104.56,-28.59 106.79,-26.07 109.58,-23.55 112.86,-21.04 116.01,-18.61 118.17,-16.32 121.07,-14.31" fill="none" stroke="rgb(220, 208, 186)" stroke-width="2" stroke-linejoin="round" filter="url(#fuzzy)" /><polyline points="37.72,-73.46 40.94,-72.03 44.11,-70.57 47.37,-69.1 50.74,-67.56 54.13,-65.92 57.44,-64.18 60.63,-62.36 63.81,-60.5 67.18,-58.61 70.86,-56.72 74.73,-54.82 78.53,-52.91 81.97,-50.98 84.9,-49.01 87.43,-47 89.87,-44.93 92.61,-42.79 95.98,-40.57 100.12,-38.27 104.96,-35.9 110.22,-33.48 115.43,-31.01 120.16,-28.52 124.16,-26.01 127.46,-23.49 130.33,-21.01 133.12,-18.6 136.25,-16.31 140.19,-14.16 145.49,-12.07" fill="none" stroke="rgb(220, 208, 186)" stroke-width="2" stroke-linejoin="round" filter="url(#fuzzy)" /><polyline points="37.66,-73.83 39.06,-72.43 40.56,-71.09 42.13,-69.67 43.39,-68.18 44.05,-66.64 44.1,-65.07 43.71,-63.46 43.13,-61.79 42.51,-60.05 41.88,-58.23 41.13,-56.33 40.2,-54.36 39.11,-52.32 37.95,-50.24 36.87,-48.14 35.99,-46 35.42,-43.82 35.23,-41.6 35.37,-39.33 35.61,-37.01 35.55,-34.66 34.83,-32.3 33.28,-29.97 31.04,-27.66 28.5,-25.38 26.03,-23.1 23.66,-20.76 20.93,-18.27 16.74,-15.43 9.67,-11.6" fill="none" stroke="rgb(220, 208, 186)" stroke-width="2" stroke-linejoin="round" filter="url(#fuzzy)" /><polyline points="33.35,-75.99 36.32,-74.53 39.65,-73.27 43.58,-71.96 47.97,-70.57 52.27,-69.11 55.81,-67.56 58.31,-65.91 60.03,-64.18 61.53,-62.38 63.27,-60.53 65.43,-58.65 67.9,-56.75 70.48,-54.84 73.1,-52.92 75.87,-50.97 79.02,-48.99 82.75,-46.97 87.15,-44.88 92.11,-42.73 97.3,-40.5 102.28,-38.2 106.62,-35.82 110.04,-33.39 112.53,-30.93 114.42,-28.43 116.21,-25.92 118.44,-23.42 121.43,-20.95 125.05,-18.51 128.72,-16.11 131.6,-13.72 133.3,-11.29 134.42,-8.91 136.01,-7.51" fill="none" stroke="rgb(220, 208, 186)" stroke-width="2" stroke-linejoin="round" filter="url(#fuzzy)" /><polyline points="33.35,-75.99 35.91,-74.55 38.36,-73.31 41.07,-72.03 43.74,-70.67 46.08,-69.25 48.11,-67.75 50.07,-66.15 52.17,-64.45 54.49,-62.68 56.97,-60.86 59.45,-59 61.84,-57.13 64.1,-55.27 66.27,-53.4 68.44,-51.53 70.66,-49.62 72.94,-47.67 75.23,-45.69 77.42,-43.7 79.53,-41.68 81.85,-39.46 85.09,-36.68" fill="none" stroke="rgb(220, 208, 186)" stroke-width="2" stroke-linejoin="round" filter="url(#fuzzy)" /><polyline points="29.76,-77.82 32.44,-77.1 37.84,-75.93 42.85,-74.65 46.54,-73.34 49.27,-71.99 51.79,-70.59 54.6,-69.12 57.85,-67.57 61.51,-65.93 65.55,-64.21 70.05,-62.42 75.04,-60.58 80.39,-58.71 85.66,-56.81 90.34,-54.9 93.98,-52.98 96.47,-51.03 98.06,-49.04 99.34,-47.01 101.01,-44.92 103.64,-42.77 107.52,-40.54 112.55,-38.24 118.31,-35.86 124.22,-33.44 129.8,-30.96 134.74,-28.47 138.94,-25.96 142.39,-23.45 145.08,-20.97 147.18,-18.53 149.33,-16.13 152.6,-13.73 157.61,-11.29 163.11,-8.92 166.61,-7.51" fill="none" stroke="rgb(220, 208, 186)" stroke-width="2" stroke-linejoin="round" filter="url(#fuzzy)" /><polyline points="27.71,-78.84 29.81,-78 32.91,-77.07 36.98,-75.96 41.34,-74.75 45.32,-73.49 48.75,-72.18 51.98,-70.83 55.63,-69.41 60.15,-67.92 65.6,-66.34 71.7,-64.68 78.11,-62.93 84.58,-61.12 91,-59.26 97.25,-57.39 103.07,-55.53 108.15,-53.69 112.48,-51.85 116.53,-49.96 120.87,-47.96 125.28,-45.76 129.34,-42.96" fill="none" stroke="rgb(220, 208, 186)" stroke-width="2" stroke-linejoin="round" filter="url(#fuzzy)" /><polyline points="22.99,-80.33 27.38,-79.95 29.19,-79.23 31.12,-78.28 33.24,-77.27 35.47,-76.22 37.87,-75.11 40.57,-73.92 43.67,-72.64 47.17,-71.28 50.97,-69.86 54.89,-68.38 58.73,-66.86 62.37,-65.3 65.79,-63.68 69.05,-62.01 72.23,-60.28 75.41,-58.47 78.62,-56.59 81.85,-54.64 85.08,-52.62 88.29,-50.56 91.48,-48.45 94.63,-46.32 97.71,-44.15 100.72,-41.94 103.72,-39.66 106.87,-37.33 110.34,-34.95 114.22,-32.56 118.37,-30.2 122.52,-27.9 126.56,-25.64 130.92,-23.5 136.4,-21.44" fill="none" stroke="rgb(220, 208, 186)" stroke-width="2" stroke-linejoin="round" filter="url(#fuzzy)" /><polyline points="19.23,-81.81 22.73,-80.92 25.87,-79.96 29.46,-79 33.07,-78.03 36.38,-77 39.67,-75.88 43.4,-74.68 47.77,-73.41 52.51,-72.09 57.16,-70.69 61.32,-69.23 64.88,-67.69 67.99,-66.08 70.91,-64.38 73.9,-62.62 77.1,-60.8 80.5,-58.94 83.98,-57.05 87.38,-55.15 90.62,-53.24 93.78,-51.3 97.12,-49.33 101.04,-47.32 105.9,-45.26 111.85,-43.13 118.7,-40.92 125.9,-38.63 132.81,-36.26 138.99,-33.82 144.46,-31.35 149.61,-28.84 154.62,-26.3 158.75,-23.73 160.51,-21.15 161.65,-18.4" fill="none" stroke="rgb(220, 208, 186)" stroke-width="2" stroke-linejoin="round" filter="url(#fuzzy)" /><polyline points="17.98,-82.17 19.49,-81.58 21.66,-80.82 23.84,-80.05 26.08,-79.21 28.39,-78.29 30.68,-77.31 32.92,-76.27 35.1,-75.17 37.24,-73.99 39.36,-72.72 41.45,-71.39 43.54,-69.98 45.61,-68.52 47.64,-67.02 49.62,-65.47 51.52,-63.88 53.34,-62.23 55.1,-60.52 56.83,-58.74 58.56,-56.87 60.31,-54.93 62.08,-52.92 63.83,-50.86 65.53,-48.76 67.15,-46.65 68.67,-44.53 70.11,-42.39 71.5,-40.19 72.91,-37.8 74.48,-35.03 76.28,-31.97" fill="none" stroke="rgb(220, 208, 186)" stroke-width="2" stroke-linejoin="round" filter="url(#fuzzy)" /><polyline points="10.5,-83.59 11.95,-83.3 14.41,-82.76 16.84,-82.16 19.14,-81.51 21.36,-80.81 23.54,-80.04 25.74,-79.21 27.94,-78.31 30.12,-77.34 32.26,-76.32 34.36,-75.22 36.42,-74.05 38.46,-72.8 40.47,-71.47 42.45,-70.08 44.39,-68.63 46.3,-67.14 48.16,-65.6 49.96,-64.01 51.72,-62.37 53.42,-60.67 55.08,-58.9 56.72,-57.04 58.33,-55.1 59.91,-53.09 61.46,-51.02 62.95,-48.92 64.36,-46.8 65.7,-44.69 66.93,-42.62 68,-40.71 68.61,-39.34" fill="none" stroke="rgb(220, 208, 186)" stroke-width="2" stroke-linejoin="round" filter="url(#fuzzy)" /><polyline points="7.01,-83.8 10.26,-83.41 12.73,-83.11 14.87,-82.74 17.04,-82.25 19.35,-81.63 21.78,-80.9 24.24,-80.07 26.7,-79.19 29.14,-78.24 31.59,-77.24 34.08,-76.17 36.59,-75.03 39.06,-73.83 41.45,-72.56 43.76,-71.24 46,-69.86 48.25,-68.42 50.52,-66.89 52.84,-65.26 55.19,-63.54 57.54,-61.73 59.89,-59.85 62.18,-57.95 63.61,-56.56" fill="none" stroke="rgb(220, 208, 186)" stroke-width="2" stroke-linejoin="round" filter="url(#fuzzy)" /><polyline points="4.71,-84.27 6.6,-84 9.42,-83.67 12.42,-83.24 15.3,-82.74 17.88,-82.16 20.2,-81.53 22.35,-80.84 24.47,-80.08 26.64,-79.26 28.89,-78.38 31.24,-77.43 33.67,-76.42 36.2,-75.34 38.82,-74.19 41.51,-72.96 44.21,-71.65 46.88,-70.28 49.49,-68.85 52.05,-67.36 54.58,-65.84 57.11,-64.28 59.6,-62.67 62.05,-61.02 64.44,-59.31 66.83,-57.49 69.33,-55.52 72.02,-53.38 74.75,-51.28 77.38,-49.82" fill="none" stroke="rgb(220, 208, 186)" stroke-width="2" stroke-linejoin="round" filter="url(#fuzzy)" /><polyline points="4.71,-84.27 6.61,-84 9.37,-83.66 12.52,-83.23 15.88,-82.72 19.16,-82.13 22.26,-81.49 25.31,-80.79 28.56,-80.02 32.19,-79.19 36.14,-78.29 40.21,-77.33 44.1,-76.3 47.6,-75.19 50.67,-74.02 53.46,-72.77 56.23,-71.44 59.26,-70.05 62.71,-68.61 66.58,-67.11 70.71,-65.56 74.82,-63.96 78.69,-62.31 82.15,-60.59 85.25,-58.81 88.14,-56.95 91.04,-55 94.13,-52.99 97.43,-50.93 100.84,-48.83 104.27,-46.71 107.77,-44.58 111.58,-42.43 115.88,-40.22 120.5,-37.82 125,-35.04 130.04,-31.97" fill="none" stroke="rgb(220, 208, 186)" stroke-width="2" stroke-linejoin="round" filter="url(#fuzzy)" /><polyline points="4.16,-84.15 6.77,-83.94 8.72,-83.69 10.74,-83.4 12.8,-83.07 14.93,-82.66 17.18,-82.14 19.6,-81.52 22.19,-80.78 24.91,-79.96 27.74,-79.07 30.59,-78.1 33.39,-77.07 36.06,-75.97 38.55,-74.8 40.85,-73.57 43.01,-72.27 45.11,-70.9 47.25,-69.46 49.47,-67.95 51.82,-66.36 54.29,-64.68 56.84,-62.94 59.45,-61.14 62.06,-59.29 64.63,-57.41 67.08,-55.52 69.38,-53.61 71.53,-51.7 73.59,-49.75 75.67,-47.77 77.77,-45.76 79.82,-43.7 81.76,-41.59 83.74,-39.32 86.05,-36.81 88.13,-34.23" fill="none" stroke="rgb(220, 208, 186)" stroke-width="2" stroke-linejoin="round" filter="url(#fuzzy)" />
    </g>
    
        <g id="lineNose">
        <path d="M -10.39,22.58 Q 10.88, 36.224999999999994 0.2450000000000001, -4.876" fill="none" stroke="black" stroke-width="3" stroke-linejoin="round" filter="url(#fuzzy)"></path>
        </g>
      
    <g id="mouth">
      <polyline points="-42.86,73.25 -42,71.88 -41.13,70.55 -40.26,69.26 -39.39,68 -38.52,66.77 -37.65,65.57 -36.77,64.41 -35.9,63.29 -35.02,62.2 -34.15,61.14 -33.27,60.11 -32.39,59.11 -31.52,58.15 -30.64,57.22 -29.76,56.32 -28.88,55.45 -28,54.62 -27.12,53.81 -26.24,53.04 -25.36,52.3 -24.47,51.58 -23.59,50.9 -22.71,50.25 -21.83,49.62 -20.95,49.03 -20.07,48.47 -19.19,47.93 -18.31,47.42 -17.42,46.95 -16.54,46.5 -15.66,46.07 -14.78,45.68 -13.91,45.32 -13.03,44.98 -12.15,44.67 -11.27,44.38 -10.4,44.12 -9.52,43.89 -8.64,43.69 -7.77,43.51 -6.9,43.35 -6.03,43.23 -5.16,43.13 -4.29,43.05 -3.42,43 -2.55,42.97 -1.68,42.96 -0.82,42.99 0.04,43.03 0.91,43.1 1.77,43.19 2.62,43.31 3.48,43.44 4.34,43.61 5.19,43.79 6.04,44 6.89,44.22 7.74,44.47 8.59,44.75 9.43,45.04 10.27,45.35 11.11,45.69 11.95,46.04 12.78,46.42 13.61,46.82 14.44,47.23 15.27,47.67 16.1,48.13 16.92,48.6 17.74,49.1 18.56,49.61 19.37,50.14 20.18,50.69 20.99,51.26 21.8,51.85 22.6,52.45 23.4,53.07 24.2,53.71 24.99,54.37 25.78,55.04 26.57,55.73 27.35,56.43 28.13,57.15 28.91,57.89 29.68,58.64 30.45,59.41 31.22,60.2 31.98,60.99 32.74,61.81 33.5,62.64 34.25,63.48 34.99,64.33 35.74,65.2 36.48,66.09 37.21,66.98 37.94,67.89 38.67,68.82 39.39,69.75 40.11,70.7 40.82,71.66 40.11,70.7 39.39,69.75 38.67,68.82 37.94,67.89 37.21,66.98 36.48,66.09 35.74,65.2 34.99,64.33 34.25,63.48 33.5,62.64 32.74,61.81 31.98,60.99 31.22,60.2 30.45,59.41 29.68,58.64 28.91,57.89 28.13,57.15 27.35,56.43 26.57,55.73 25.78,55.04 24.99,54.37 24.2,53.71 23.4,53.07 22.6,52.45 21.8,51.85 20.99,51.26 20.18,50.69 19.37,50.14 18.56,49.61 17.74,49.1 16.92,48.6 16.1,48.13 15.27,47.67 14.44,47.23 13.61,46.82 12.78,46.42 11.95,46.04 11.11,45.69 10.27,45.35 9.43,45.04 8.59,44.75 7.74,44.47 6.89,44.22 6.04,44 5.19,43.79 4.34,43.61 3.48,43.44 2.62,43.31 1.77,43.19 0.91,43.1 0.04,43.03 -0.82,42.99 -1.68,42.96 -2.55,42.97 -3.42,43 -4.29,43.05 -5.16,43.13 -6.03,43.23 -6.9,43.35 -7.77,43.51 -8.64,43.69 -9.52,43.89 -10.4,44.12 -11.27,44.38 -12.15,44.67 -13.03,44.98 -13.91,45.32 -14.78,45.68 -15.66,46.07 -16.54,46.5 -17.42,46.95 -18.31,47.42 -19.19,47.93 -20.07,48.47 -20.95,49.03 -21.83,49.62 -22.71,50.25 -23.59,50.9 -24.47,51.58 -25.36,52.3 -26.24,53.04 -27.12,53.81 -28,54.62 -28.88,55.45 -29.76,56.32 -30.64,57.22 -31.52,58.15 -32.39,59.11 -33.27,60.11 -34.15,61.14 -35.02,62.2 -35.9,63.29 -36.77,64.41 -37.65,65.57 -38.52,66.77 -39.39,68 -40.26,69.26 -41.13,70.55 -42,71.88" fill="rgb(215,127,140)" stroke="black" stroke-width="3" stroke-linejoin="round" filter="url(#fuzzy)" />
    </g>
  </svg>