<svg viewBox="-100 -100 200 200" xmlns="http://www.w3.org/2000/svg" width="500" height="500" id="face-svg">
    <defs>
      <clipPath id="leftEyeClipPath">
        <polyline points="30.48,-1.08 30.31,-1.63 30.11,-2.18 29.88,-2.74 29.61,-3.29 29.31,-3.84 28.97,-4.39 28.61,-4.92 28.21,-5.44 27.79,-5.95 27.33,-6.44 26.85,-6.9 26.33,-7.35 25.79,-7.77 25.22,-8.17 24.62,-8.54 24.03,-9.27 23.4,-9.93 22.72,-10.54 22.01,-11.09 21.26,-11.57 20.47,-11.99 19.64,-12.34 18.79,-12.63 17.89,-12.86 16.97,-13.02 16.02,-13.12 15.03,-13.16 14.03,-13.14 12.99,-13.07 11.94,-12.95 10.87,-12.77 9.77,-12.55 8.67,-12.28 7.55,-11.97 6.42,-11.61 5.28,-11.23 4.13,-10.81 2.98,-10.36 1.83,-9.88 0.67,-9.38 -0.47,-8.85 -1.62,-8.31 -2.75,-7.76 -3.88,-7.19 -5,-6.61 -6.1,-6.03 -7.19,-5.44 -8.26,-4.85 -9.31,-4.26 -10.35,-3.67 -11.35,-3.09 -12.34,-2.51 -13.3,-1.94 -14.24,-1.39 -15.15,-0.84 -16.02,-0.3 -16.87,0.22 -17.69,0.73 -18.48,1.23 -19.24,1.71 -19.97,2.18 -20.66,2.63 -21.32,3.07 -21.95,3.5 -22.55,3.91 -23.12,4.31 -23.65,4.7 -24.16,5.07 -24.64,5.43 -25.08,5.77 -25.5,6.1 -25.88,6.42 -26.23,6.73 -26.55,7.03 -26.85,7.31 -27.1,7.58 -27.33,7.84 -27.53,8.09 -27.7,8.32 -28.41,10.35 -28.13,10.38 -27.83,10.41 -27.5,10.43 -27.14,10.46 -26.76,10.48 -26.36,10.49 -25.93,10.51 -25.47,10.52 -24.99,10.53 -24.49,10.54 -23.96,10.54 -23.41,10.54 -22.83,10.54 -22.23,10.53 -21.61,10.52 -20.96,10.51 -20.29,10.5 -19.59,10.48 -18.87,10.46 -18.12,10.43 -17.36,10.41 -16.56,10.37 -15.75,10.34 -14.92,10.3 -14.06,10.26 -13.19,10.21 -12.3,10.16 -11.4,10.11 -10.47,10.06 -9.54,10 -8.59,9.94 -7.63,9.88 -6.66,9.81 -5.68,9.74 -4.69,9.67 -3.69,9.6 -2.69,9.53 -1.68,9.45 -0.67,9.38 0.34,9.3 1.35,9.22 2.36,9.14 3.36,9.07 4.37,8.99 5.37,8.91 6.36,8.83 7.35,8.76 8.32,8.68 9.29,8.6 10.25,8.53 11.2,8.46 12.13,8.38 13.06,8.31 13.96,8.24 14.86,8.17 15.73,8.1 16.59,8.03 17.43,7.96 18.25,7.89 19.06,7.82 19.84,7.75 20.6,7.67 21.35,7.59 22.07,7.51 22.71,7.37 23.34,7.22 23.96,7.06 24.55,6.89 25.13,6.71 25.68,6.51 26.22,6.29 26.73,6.06 27.23,5.81 27.7,5.55 28.14,5.26 28.56,4.95 28.96,4.61 29.33,4.25 29.67,3.87" />
      </clipPath>
      <clipPath id="rightEyeClipPath">
        <polyline points="-28.17,-1.38 -27.98,-1.91 -27.76,-2.45 -27.5,-3 -27.2,-3.54 -26.86,-4.08 -26.49,-4.61 -26.08,-5.13 -25.63,-5.64 -25.15,-6.14 -24.63,-6.61 -24.08,-7.07 -23.49,-7.51 -22.87,-7.92 -22.22,-8.31 -21.53,-8.67 -20.9,-9.39 -20.21,-10.05 -19.47,-10.65 -18.67,-11.18 -17.83,-11.66 -16.93,-12.07 -15.99,-12.41 -15,-12.7 -13.98,-12.91 -12.91,-13.07 -11.8,-13.17 -10.66,-13.21 -9.49,-13.19 -8.3,-13.11 -7.07,-12.99 -5.83,-12.81 -4.57,-12.58 -3.3,-12.31 -2.02,-12 -0.73,-11.65 0.56,-11.26 1.85,-10.84 3.13,-10.39 4.41,-9.92 5.67,-9.42 6.93,-8.9 8.16,-8.36 9.37,-7.8 10.56,-7.24 11.73,-6.66 12.86,-6.08 13.96,-5.5 15.03,-4.91 16.06,-4.32 17.06,-3.73 18.01,-3.15 18.92,-2.58 19.78,-2.01 20.6,-1.45 21.38,-0.91 22.11,-0.37 22.79,0.15 23.42,0.66 24,1.16 24.53,1.64 25.02,2.11 25.46,2.57 25.85,3.01 26.19,3.44 26.49,3.85 26.74,4.25 26.94,4.64 27.1,5.02 27.21,5.38 27.28,5.73 27.3,6.07 27.27,6.39 27.2,6.7 27.08,7 26.91,7.29 26.7,7.57 26.44,7.84 26.14,8.09 25.8,8.34 28.88,10.11 28.29,10.15 27.68,10.19 27.05,10.23 26.39,10.26 25.71,10.29 25.02,10.32 24.29,10.35 23.55,10.37 22.79,10.39 22.01,10.4 21.22,10.42 20.4,10.43 19.57,10.43 18.72,10.44 17.86,10.44 16.97,10.43 16.07,10.43 15.14,10.42 14.2,10.41 13.24,10.39 12.27,10.37 11.29,10.35 10.3,10.32 9.3,10.29 8.29,10.25 7.28,10.22 6.26,10.17 5.25,10.13 4.23,10.08 3.21,10.02 2.19,9.97 1.18,9.91 0.18,9.85 -0.82,9.78 -1.81,9.71 -2.8,9.64 -3.77,9.57 -4.73,9.49 -5.67,9.42 -6.61,9.34 -7.53,9.26 -8.43,9.18 -9.32,9.09 -10.19,9.01 -11.04,8.92 -11.87,8.84 -12.69,8.75 -13.49,8.67 -14.27,8.58 -15.03,8.49 -15.77,8.4 -16.49,8.31 -17.2,8.22 -17.88,8.13 -18.55,8.03 -19.2,7.94 -19.83,7.84 -20.44,7.74 -21.04,7.64 -21.62,7.53 -22.18,7.42 -22.73,7.31 -23.26,7.18 -23.77,7.05 -24.23,6.87 -24.68,6.67 -25.11,6.46 -25.52,6.23 -25.92,5.98 -26.3,5.72 -26.67,5.44 -27.02,5.13 -27.35,4.8 -27.67,4.45 -27.97,4.08 -28.25,3.67 -28.52,3.24 -28.76,2.77 -28.98,2.28" />
      </clipPath>
      <filter id="fuzzy">
        <feTurbulence id="turbulence" baseFrequency="0.05" numOctaves="3" type="noise" result="noise" />
        <feDisplacementMap in="SourceGraphic" in2="noise" scale="2" />
      </filter>
      <linearGradient id="rainbowGradient" x1="0%" y1="0%" x2="100%" y2="0%">
        <stop offset="0%" style="stop-color: [object Object]; stop-opacity: 1" />
        <stop offset="50%" style="stop-color: [object Object]; stop-opacity: 1" />
        <stop offset="100%" style="stop-color: [object Object]; stop-opacity: 1" />
      </linearGradient>
    </defs>
    <rect x="-100" y="-100" width="100%" height="100%" fill="rgb(240, 128, 128)" />
    <polyline id="faceContour" points="85.49,2.33 85.6,0.99 85.9,2.19 85.41,4.47 85.74,5.7 85.18,7.54 85.23,7.67 85.22,11.18 85.17,11.44 85.06,10.48 84.52,14.93 84.45,15.05 84.32,15.72 84.18,18.01 83.74,19.75 82.92,22.08 82.99,22.57 82.97,22.37 81.95,25.86 81.85,26.16 81.12,29.61 80.54,30.66 80.32,32 79.51,33.32 79.89,33.28 78.66,35.88 78.57,35.97 77.94,37.92 77.33,39.17 77.3,39.52 76.08,41.2 76.13,41.46 75.3,43.77 75.58,42.6 73.65,46.6 73,47.16 72.21,48.44 72.02,48.84 70.58,51.7 70.3,51.74 68.66,53.99 68.92,53.65 67.92,54.97 66.46,57.05 66.95,56.39 65.83,57.95 65.32,58.64 62.71,61.78 61.59,62.91 60.96,63.47 59.95,64.63 59.18,65.08 58.3,66.2 58.49,65.95 56.84,67.91 55.14,69.3 54.63,69.69 53.76,70.46 52.5,71.42 49.4,73.81 49.47,73.81 50.01,73.27 48.86,74.29 47.28,75.57 46.93,75.57 42.73,78.15 43.38,78.11 41.78,78.98 42.47,78.55 41.34,79.38 39.17,80.33 39.21,80.39 37.84,80.83 35.42,82.18 32.17,83.75 31.86,83.8 31.47,84.03 32.05,84.05 29.37,84.79 26.76,86.1 27,85.7 24.57,86.66 23.93,86.56 22.81,87.14 21.91,87.49 20.39,87.73 18.28,88.2 16.44,88.96 15.68,88.82 15.1,88.94 13.66,89.22 12.56,89.42 10.26,89.79 10.42,89.6 6.84,90.17 6.78,89.93 3.56,90.4 4.38,90.35 3.97,90.4 2.56,90.29 -0.43,90.37 -1.53,90.31 -2.17,90.44 -3.51,90.32 -5.92,90.23 -5.71,90.31 -10.19,89.64 -10.75,89.83 -9.19,90.01 -11.41,89.39 -14.62,88.89 -13.52,89.09 -15.14,88.92 -16.83,88.49 -18.71,88.03 -20.26,87.75 -20.68,87.82 -21.69,87.44 -24.59,86.72 -24.87,86.45 -27.77,85.7 -27.72,85.35 -28.1,85.35 -29.35,84.71 -29.73,84.97 -33.05,83.43 -34.66,82.52 -36.68,81.69 -37.07,81.52 -36.21,82.06 -37.9,81.13 -38.77,80.35 -42.19,78.72 -43.34,77.71 -42.66,78.18 -45.74,76.12 -46.83,75.76 -46.52,75.91 -46.8,75.55 -49.61,73.48 -49.66,73.37 -52.1,71.93 -51.95,72.09 -53.79,70.3 -55.39,68.96 -54.3,69.8 -55.83,68.71 -56.18,68.29 -59.47,64.71 -60.23,64.3 -59.89,64.44 -61.37,62.93 -61.74,63 -62.68,61.82 -63.45,60.83 -64.51,59.85 -67.01,56.74 -66.82,56.56 -67.87,55.31 -68.78,53.85 -69.23,53.02 -71.28,50.3 -69.85,52.6 -71.85,49.5 -72.62,47.54 -72.4,48.15 -74.79,44.5 -74.62,44.69 -75.07,43.1 -76.43,41.1 -76.99,39.33 -76.37,40.97 -77.75,38.21 -78.55,36.57 -78.06,37.69 -78.32,36.56 -80.32,31.24 -80.06,32.51 -80.99,29.21 -80.94,29.91 -81.59,27.06 -81.76,27.22 -82.03,25.69 -82.34,24.9 -83.49,20.94 -83.66,20.21 -83.59,18.76 -84.02,17.95 -84.33,17.1 -84.9,13.64 -84.97,12.14 -84.71,12.97 -84.93,12.32 -85.2,10.05 -85.1,8.78 -85.5,7.31 -85.56,4.16 -85.84,3.43 -85.65,2.37 -85.6,1.01 -85.81,-1.02 -85.48,-2.2 -85.62,-3.2 -85.43,-4.93 -85.7,-4.44 -85.56,-5.93 -85.44,-8.22 -85.1,-9.64 -84.93,-11.58 -84.71,-12.19 -84.61,-15.33 -84.46,-15.79 -84.29,-16.46 -84.46,-16.43 -83.72,-19.13 -83.67,-19.91 -82.85,-22.91 -82.4,-24.49 -82.33,-24.78 -81.92,-26.75 -81.05,-28.85 -81.51,-27.98 -81.26,-29.19 -81.04,-29.79 -80.32,-31.16 -78.91,-34.81 -78.03,-37.35 -78.54,-35.9 -77.82,-37.71 -76.22,-41.71 -75.77,-42.74 -75.9,-42.2 -76.13,-41.89 -74.89,-43.72 -73.67,-45.99 -73.07,-47.73 -72.22,-48.8 -71.23,-49.81 -69.99,-51.96 -70.39,-51.11 -70.32,-51.67 -67.78,-55.34 -67.77,-55.51 -66.73,-56.68 -66.09,-57.78 -64.64,-59.09 -64.56,-59.76 -63.02,-61.49 -62.72,-61.84 -62.13,-62 -61.64,-62.49 -59.88,-64.68 -57.36,-66.96 -56.91,-67.45 -56.59,-67.97 -55.53,-69.15 -55.07,-69.28 -52.31,-71.28 -52.98,-71.23 -52.85,-71.41 -51.27,-72.8 -49.2,-74.04 -47.36,-75.14 -45.83,-76.45 -46.15,-76.15 -43.86,-78.01 -42.12,-78.79 -42.37,-78.92 -40.82,-79.3 -41.79,-78.92 -38.15,-81.15 -37.28,-81.22 -37.8,-81.32 -34.78,-82.52 -34.39,-82.75 -31.57,-84.16 -32.85,-83.61 -31.18,-84.11 -29.49,-85.08 -28.48,-85.38 -25.75,-86.38 -24.21,-86.59 -24.46,-86.69 -23.68,-86.92 -21.86,-87.44 -21.88,-87.6 -19.91,-87.99 -17.17,-88.62 -14.76,-88.97 -13.93,-89.4 -12.83,-89.41 -11.89,-89.55 -9.69,-89.94 -11.23,-89.78 -9.51,-89.94 -7.74,-89.91 -5.56,-90.13 -5.29,-90.11 -2.94,-90.24 -1.8,-90.38 -0.14,-90.61 3.16,-90.36 2.65,-90.23 4.31,-90.14 5.28,-90.48 6.47,-90.35 7.32,-90.3 8,-89.86 9.84,-89.63 11.73,-89.77 13.02,-89.22 15.04,-89.09 17.58,-88.61 16.83,-88.55 19.12,-88.18 19.53,-87.84 21.24,-87.4 23.06,-86.97 23.06,-87.1 24.99,-86.5 28.23,-85.46 26.18,-86.02 29.31,-85.13 29.13,-85.17 31.01,-84.15 32.61,-83.61 32.47,-83.71 36.75,-81.67 35.96,-81.87 39.58,-80.18 39.1,-80.37 41.3,-79.28 41.48,-79.23 41.28,-79.14 45.32,-76.9 43.72,-77.62 44.68,-77.08 48.35,-74.76 49.7,-73.76 48.24,-74.84 51.63,-72.3 51.22,-72.48 53.1,-70.74 54.18,-70.25 54.47,-69.81 55.23,-69.23 56.75,-67.98 58.41,-65.82 58.64,-65.92 59.71,-64.74 59.72,-65.11 61.27,-63.28 62.71,-61.71 64.1,-60.07 63.53,-60.4 64.86,-59.22 66.9,-56.58 66.06,-57.56 68.42,-54.68 69.67,-52.99 69.35,-52.86 70.69,-51.39 72.01,-49.25 72.27,-48.52 71.75,-49.53 74.21,-44.75 73.58,-46.12 74.99,-44.05 74.81,-44.37 75.57,-42.79 75.92,-41.34 76.11,-41.89 77.76,-38.58 77.87,-37.85 78.35,-36.16 79.99,-32.71 79.43,-34.1 79.87,-32.1 80.15,-32.14 80.7,-29.98 81.3,-28.37 81.7,-27.43 81.65,-27.18 82.95,-23.13 82.93,-21.86 83.2,-21.08 83.54,-20.11 83.82,-18.56 84.26,-16.26 84.41,-15.86 84.57,-13.4 84.72,-12.91 84.96,-11.39 85.09,-10.75 85.11,-8.78 85.15,-9.11 85.75,-5.19 85.51,-4.78 85.78,-4.08 85.92,-0.13 85.49,2.33 85.6,0.99" fill="rgb(255, 127, 80)" stroke="black" stroke-width="1.6666666666666665" stroke-linejoin="round" filter="url(#fuzzy)" />
    <g transform="translate(32.31 -25.5)">
      <polyline id="rightCountour" points="-28.17,-1.38 -27.98,-1.91 -27.76,-2.45 -27.5,-3 -27.2,-3.54 -26.86,-4.08 -26.49,-4.61 -26.08,-5.13 -25.63,-5.64 -25.15,-6.14 -24.63,-6.61 -24.08,-7.07 -23.49,-7.51 -22.87,-7.92 -22.22,-8.31 -21.53,-8.67 -20.9,-9.39 -20.21,-10.05 -19.47,-10.65 -18.67,-11.18 -17.83,-11.66 -16.93,-12.07 -15.99,-12.41 -15,-12.7 -13.98,-12.91 -12.91,-13.07 -11.8,-13.17 -10.66,-13.21 -9.49,-13.19 -8.3,-13.11 -7.07,-12.99 -5.83,-12.81 -4.57,-12.58 -3.3,-12.31 -2.02,-12 -0.73,-11.65 0.56,-11.26 1.85,-10.84 3.13,-10.39 4.41,-9.92 5.67,-9.42 6.93,-8.9 8.16,-8.36 9.37,-7.8 10.56,-7.24 11.73,-6.66 12.86,-6.08 13.96,-5.5 15.03,-4.91 16.06,-4.32 17.06,-3.73 18.01,-3.15 18.92,-2.58 19.78,-2.01 20.6,-1.45 21.38,-0.91 22.11,-0.37 22.79,0.15 23.42,0.66 24,1.16 24.53,1.64 25.02,2.11 25.46,2.57 25.85,3.01 26.19,3.44 26.49,3.85 26.74,4.25 26.94,4.64 27.1,5.02 27.21,5.38 27.28,5.73 27.3,6.07 27.27,6.39 27.2,6.7 27.08,7 26.91,7.29 26.7,7.57 26.44,7.84 26.14,8.09 25.8,8.34 28.88,10.11 28.29,10.15 27.68,10.19 27.05,10.23 26.39,10.26 25.71,10.29 25.02,10.32 24.29,10.35 23.55,10.37 22.79,10.39 22.01,10.4 21.22,10.42 20.4,10.43 19.57,10.43 18.72,10.44 17.86,10.44 16.97,10.43 16.07,10.43 15.14,10.42 14.2,10.41 13.24,10.39 12.27,10.37 11.29,10.35 10.3,10.32 9.3,10.29 8.29,10.25 7.28,10.22 6.26,10.17 5.25,10.13 4.23,10.08 3.21,10.02 2.19,9.97 1.18,9.91 0.18,9.85 -0.82,9.78 -1.81,9.71 -2.8,9.64 -3.77,9.57 -4.73,9.49 -5.67,9.42 -6.61,9.34 -7.53,9.26 -8.43,9.18 -9.32,9.09 -10.19,9.01 -11.04,8.92 -11.87,8.84 -12.69,8.75 -13.49,8.67 -14.27,8.58 -15.03,8.49 -15.77,8.4 -16.49,8.31 -17.2,8.22 -17.88,8.13 -18.55,8.03 -19.2,7.94 -19.83,7.84 -20.44,7.74 -21.04,7.64 -21.62,7.53 -22.18,7.42 -22.73,7.31 -23.26,7.18 -23.77,7.05 -24.23,6.87 -24.68,6.67 -25.11,6.46 -25.52,6.23 -25.92,5.98 -26.3,5.72 -26.67,5.44 -27.02,5.13 -27.35,4.8 -27.67,4.45 -27.97,4.08 -28.25,3.67 -28.52,3.24 -28.76,2.77 -28.98,2.28" fill="white" stroke="white" stroke-width="0" stroke-linejoin="round" filter="url(#fuzzy)" />
    </g>
    <g transform="translate(-48.29 -30.11)">
      <polyline id="leftCountour" points="30.48,-1.08 30.31,-1.63 30.11,-2.18 29.88,-2.74 29.61,-3.29 29.31,-3.84 28.97,-4.39 28.61,-4.92 28.21,-5.44 27.79,-5.95 27.33,-6.44 26.85,-6.9 26.33,-7.35 25.79,-7.77 25.22,-8.17 24.62,-8.54 24.03,-9.27 23.4,-9.93 22.72,-10.54 22.01,-11.09 21.26,-11.57 20.47,-11.99 19.64,-12.34 18.79,-12.63 17.89,-12.86 16.97,-13.02 16.02,-13.12 15.03,-13.16 14.03,-13.14 12.99,-13.07 11.94,-12.95 10.87,-12.77 9.77,-12.55 8.67,-12.28 7.55,-11.97 6.42,-11.61 5.28,-11.23 4.13,-10.81 2.98,-10.36 1.83,-9.88 0.67,-9.38 -0.47,-8.85 -1.62,-8.31 -2.75,-7.76 -3.88,-7.19 -5,-6.61 -6.1,-6.03 -7.19,-5.44 -8.26,-4.85 -9.31,-4.26 -10.35,-3.67 -11.35,-3.09 -12.34,-2.51 -13.3,-1.94 -14.24,-1.39 -15.15,-0.84 -16.02,-0.3 -16.87,0.22 -17.69,0.73 -18.48,1.23 -19.24,1.71 -19.97,2.18 -20.66,2.63 -21.32,3.07 -21.95,3.5 -22.55,3.91 -23.12,4.31 -23.65,4.7 -24.16,5.07 -24.64,5.43 -25.08,5.77 -25.5,6.1 -25.88,6.42 -26.23,6.73 -26.55,7.03 -26.85,7.31 -27.1,7.58 -27.33,7.84 -27.53,8.09 -27.7,8.32 -28.41,10.35 -28.13,10.38 -27.83,10.41 -27.5,10.43 -27.14,10.46 -26.76,10.48 -26.36,10.49 -25.93,10.51 -25.47,10.52 -24.99,10.53 -24.49,10.54 -23.96,10.54 -23.41,10.54 -22.83,10.54 -22.23,10.53 -21.61,10.52 -20.96,10.51 -20.29,10.5 -19.59,10.48 -18.87,10.46 -18.12,10.43 -17.36,10.41 -16.56,10.37 -15.75,10.34 -14.92,10.3 -14.06,10.26 -13.19,10.21 -12.3,10.16 -11.4,10.11 -10.47,10.06 -9.54,10 -8.59,9.94 -7.63,9.88 -6.66,9.81 -5.68,9.74 -4.69,9.67 -3.69,9.6 -2.69,9.53 -1.68,9.45 -0.67,9.38 0.34,9.3 1.35,9.22 2.36,9.14 3.36,9.07 4.37,8.99 5.37,8.91 6.36,8.83 7.35,8.76 8.32,8.68 9.29,8.6 10.25,8.53 11.2,8.46 12.13,8.38 13.06,8.31 13.96,8.24 14.86,8.17 15.73,8.1 16.59,8.03 17.43,7.96 18.25,7.89 19.06,7.82 19.84,7.75 20.6,7.67 21.35,7.59 22.07,7.51 22.71,7.37 23.34,7.22 23.96,7.06 24.55,6.89 25.13,6.71 25.68,6.51 26.22,6.29 26.73,6.06 27.23,5.81 27.7,5.55 28.14,5.26 28.56,4.95 28.96,4.61 29.33,4.25 29.67,3.87" fill="white" stroke="white" stroke-width="0" stroke-linejoin="round" filter="url(#fuzzy)" />
    </g>
    <g transform="translate(32.31 -25.5)">
      <polyline id="rightUpper" points="-28.06,2.55 -28.23,2.35 -28.36,2.1 -28.46,1.79 -28.53,1.43 -28.56,1.04 -28.55,0.6 -28.51,0.14 -28.43,-0.35 -28.32,-0.85 -28.17,-1.38 -27.98,-1.91 -27.76,-2.45 -27.5,-3 -27.2,-3.54 -26.86,-4.08 -26.49,-4.61 -26.08,-5.13 -25.63,-5.64 -25.15,-6.14 -24.63,-6.61 -24.08,-7.07 -23.49,-7.51 -22.87,-7.92 -22.22,-8.31 -21.53,-8.67 -20.9,-9.39 -20.21,-10.05 -19.47,-10.65 -18.67,-11.18 -17.83,-11.66 -16.93,-12.07 -15.99,-12.41 -15,-12.7 -13.98,-12.91 -12.91,-13.07 -11.8,-13.17 -10.66,-13.21 -9.49,-13.19 -8.3,-13.11 -7.07,-12.99 -5.83,-12.81 -4.57,-12.58 -3.3,-12.31 -2.02,-12 -0.73,-11.65 0.56,-11.26 1.85,-10.84 3.13,-10.39 4.41,-9.92 5.67,-9.42 6.93,-8.9 8.16,-8.36 9.37,-7.8 10.56,-7.24 11.73,-6.66 12.86,-6.08 13.96,-5.5 15.03,-4.91 16.06,-4.32 17.06,-3.73 18.01,-3.15 18.92,-2.58 19.78,-2.01 20.6,-1.45 21.38,-0.91 22.11,-0.37 22.79,0.15 23.42,0.66 24,1.16 24.53,1.64 25.02,2.11 25.46,2.57 25.85,3.01 26.19,3.44 26.49,3.85 26.74,4.25 26.94,4.64 27.1,5.02 27.21,5.38 27.28,5.73 27.3,6.07 27.27,6.39 27.2,6.7 27.08,7 26.91,7.29 26.7,7.57 26.44,7.84 26.14,8.09 25.8,8.34 25.42,8.58 24.99,8.8 24.52,9.02 24.01,9.23 23.46,9.43 22.87,9.62 22.24,9.81 21.58,9.98 20.88,10.15 20.15,10.32" fill="none" stroke="black" stroke-width="1.6666666666666665" stroke-linejoin="round" filter="url(#fuzzy)" />
      <polyline id="rightLower" points="-29.95,-5 -29.97,-4.05 -29.96,-3.15 -29.93,-2.31 -29.86,-1.52 -29.78,-0.78 -29.66,-0.08 -29.53,0.57 -29.37,1.18 -29.19,1.74 -28.98,2.28 -28.76,2.77 -28.52,3.24 -28.25,3.67 -27.97,4.08 -27.67,4.45 -27.35,4.8 -27.02,5.13 -26.67,5.44 -26.3,5.72 -25.92,5.98 -25.52,6.23 -25.11,6.46 -24.68,6.67 -24.23,6.87 -23.77,7.05 -23.26,7.18 -22.73,7.31 -22.18,7.42 -21.62,7.53 -21.04,7.64 -20.44,7.74 -19.83,7.84 -19.2,7.94 -18.55,8.03 -17.88,8.13 -17.2,8.22 -16.49,8.31 -15.77,8.4 -15.03,8.49 -14.27,8.58 -13.49,8.67 -12.69,8.75 -11.87,8.84 -11.04,8.92 -10.19,9.01 -9.32,9.09 -8.43,9.18 -7.53,9.26 -6.61,9.34 -5.67,9.42 -4.73,9.49 -3.77,9.57 -2.8,9.64 -1.81,9.71 -0.82,9.78 0.18,9.85 1.18,9.91 2.19,9.97 3.21,10.02 4.23,10.08 5.25,10.13 6.26,10.17 7.28,10.22 8.29,10.25 9.3,10.29 10.3,10.32 11.29,10.35 12.27,10.37 13.24,10.39 14.2,10.41 15.14,10.42 16.07,10.43 16.97,10.43 17.86,10.44 18.72,10.44 19.57,10.43 20.4,10.43 21.22,10.42 22.01,10.4 22.79,10.39 23.55,10.37 24.29,10.35 25.02,10.32 25.71,10.29 26.39,10.26 27.05,10.23 27.68,10.19 28.29,10.15 28.88,10.11 29.44,10.06 29.98,10.02 30.49,9.97 30.98,9.92 31.45,9.87 31.89,9.81 32.31,9.75 32.7,9.7 33.07,9.64 33.42,9.57" fill="none" stroke="black" stroke-width="2.2222222222222223" stroke-linejoin="round" filter="url(#fuzzy)" />
      <circle r="3.5060000000000002" cx="22.81607204555036" cy="6.172075478578041" stroke="black" fill="none" stroke-width="1.0" filter="url(#fuzzy)" clip-path="url(#rightEyeClipPath)" /><circle r="3.126" cx="20.426072045550363" cy="9.857075478578041" stroke="black" fill="none" stroke-width="1.0" filter="url(#fuzzy)" clip-path="url(#rightEyeClipPath)" /><circle r="3.852" cx="21.35107204555036" cy="7.757075478578042" stroke="black" fill="none" stroke-width="1.0" filter="url(#fuzzy)" clip-path="url(#rightEyeClipPath)" /><circle r="3.22" cx="19.246072045550363" cy="9.337075478578042" stroke="black" fill="none" stroke-width="1.0" filter="url(#fuzzy)" clip-path="url(#rightEyeClipPath)" /><circle r="3.588" cx="21.49607204555036" cy="9.47707547857804" stroke="black" fill="none" stroke-width="1.0" filter="url(#fuzzy)" clip-path="url(#rightEyeClipPath)" /><circle r="3.582" cx="22.61607204555036" cy="9.327075478578042" stroke="black" fill="none" stroke-width="1.0" filter="url(#fuzzy)" clip-path="url(#rightEyeClipPath)" /><circle r="4.046" cx="19.871072045550363" cy="10.00207547857804" stroke="black" fill="none" stroke-width="1.0" filter="url(#fuzzy)" clip-path="url(#rightEyeClipPath)" /><circle r="4.41" cx="21.95607204555036" cy="6.077075478578042" stroke="black" fill="none" stroke-width="1.0" filter="url(#fuzzy)" clip-path="url(#rightEyeClipPath)" /><circle r="3.004" cx="22.946072045550363" cy="8.62707547857804" stroke="black" fill="none" stroke-width="1.0" filter="url(#fuzzy)" clip-path="url(#rightEyeClipPath)" /><circle r="4.016" cx="20.516072045550363" cy="7.342075478578041" stroke="black" fill="none" stroke-width="1.0" filter="url(#fuzzy)" clip-path="url(#rightEyeClipPath)" />
      </g>
    <g transform="translate(-48.29 -30.11)">
      <polyline id="leftUpper" points="30.19,3 30.39,2.79 30.54,2.51 30.66,2.19 30.74,1.82 30.79,1.41 30.79,0.96 30.77,0.48 30.71,-0.02 30.61,-0.54 30.48,-1.08 30.31,-1.63 30.11,-2.18 29.88,-2.74 29.61,-3.29 29.31,-3.84 28.97,-4.39 28.61,-4.92 28.21,-5.44 27.79,-5.95 27.33,-6.44 26.85,-6.9 26.33,-7.35 25.79,-7.77 25.22,-8.17 24.62,-8.54 24.03,-9.27 23.4,-9.93 22.72,-10.54 22.01,-11.09 21.26,-11.57 20.47,-11.99 19.64,-12.34 18.79,-12.63 17.89,-12.86 16.97,-13.02 16.02,-13.12 15.03,-13.16 14.03,-13.14 12.99,-13.07 11.94,-12.95 10.87,-12.77 9.77,-12.55 8.67,-12.28 7.55,-11.97 6.42,-11.61 5.28,-11.23 4.13,-10.81 2.98,-10.36 1.83,-9.88 0.67,-9.38 -0.47,-8.85 -1.62,-8.31 -2.75,-7.76 -3.88,-7.19 -5,-6.61 -6.1,-6.03 -7.19,-5.44 -8.26,-4.85 -9.31,-4.26 -10.35,-3.67 -11.35,-3.09 -12.34,-2.51 -13.3,-1.94 -14.24,-1.39 -15.15,-0.84 -16.02,-0.3 -16.87,0.22 -17.69,0.73 -18.48,1.23 -19.24,1.71 -19.97,2.18 -20.66,2.63 -21.32,3.07 -21.95,3.5 -22.55,3.91 -23.12,4.31 -23.65,4.7 -24.16,5.07 -24.64,5.43 -25.08,5.77 -25.5,6.1 -25.88,6.42 -26.23,6.73 -26.55,7.03 -26.85,7.31 -27.1,7.58 -27.33,7.84 -27.53,8.09 -27.7,8.32 -27.83,8.55 -27.94,8.77 -28.02,8.98 -28.07,9.18 -28.08,9.37 -28.08,9.55 -28.04,9.72 -27.97,9.89 -27.88,10.05 -27.77,10.2" fill="none" stroke="black" stroke-width="2.2222222222222223" stroke-linejoin="round" filter="url(#fuzzy)" />
      <polyline id="leftLower" points="31.36,-1.9 31.35,-1.14 31.3,-0.42 31.22,0.25 31.1,0.88 30.94,1.47 30.75,2.02 30.53,2.53 30.27,3.01 29.99,3.45 29.67,3.87 29.33,4.25 28.96,4.61 28.56,4.95 28.14,5.26 27.7,5.55 27.23,5.81 26.73,6.06 26.22,6.29 25.68,6.51 25.13,6.71 24.55,6.89 23.96,7.06 23.34,7.22 22.71,7.37 22.07,7.51 21.35,7.59 20.6,7.67 19.84,7.75 19.06,7.82 18.25,7.89 17.43,7.96 16.59,8.03 15.73,8.1 14.86,8.17 13.96,8.24 13.06,8.31 12.13,8.38 11.2,8.46 10.25,8.53 9.29,8.6 8.32,8.68 7.35,8.76 6.36,8.83 5.37,8.91 4.37,8.99 3.36,9.07 2.36,9.14 1.35,9.22 0.34,9.3 -0.67,9.38 -1.68,9.45 -2.69,9.53 -3.69,9.6 -4.69,9.67 -5.68,9.74 -6.66,9.81 -7.63,9.88 -8.59,9.94 -9.54,10 -10.47,10.06 -11.4,10.11 -12.3,10.16 -13.19,10.21 -14.06,10.26 -14.92,10.3 -15.75,10.34 -16.56,10.37 -17.36,10.41 -18.12,10.43 -18.87,10.46 -19.59,10.48 -20.29,10.5 -20.96,10.51 -21.61,10.52 -22.23,10.53 -22.83,10.54 -23.41,10.54 -23.96,10.54 -24.49,10.54 -24.99,10.53 -25.47,10.52 -25.93,10.51 -26.36,10.49 -26.76,10.48 -27.14,10.46 -27.5,10.43 -27.83,10.41 -28.13,10.38 -28.41,10.35 -28.66,10.32 -28.89,10.28 -29.09,10.24 -29.27,10.2 -29.42,10.16 -29.55,10.12 -29.65,10.07 -29.73,10.03 -29.79,9.98 -29.82,9.93" fill="none" stroke="black" stroke-width="2.2222222222222223" stroke-linejoin="round" filter="url(#fuzzy)" />
      <circle r="4.5920000000000005" cx="12.700532678864025" cy="-0.5672969799133716" stroke="black" fill="none" stroke-width="1.0" filter="url(#fuzzy)" clip-path="url(#leftEyeClipPath)" /><circle r="4.5440000000000005" cx="14.385532678864028" cy="-1.4472969799133715" stroke="black" fill="none" stroke-width="1.0" filter="url(#fuzzy)" clip-path="url(#leftEyeClipPath)" /><circle r="4.8580000000000005" cx="14.600532678864028" cy="0.9777030200866283" stroke="black" fill="none" stroke-width="1.0" filter="url(#fuzzy)" clip-path="url(#leftEyeClipPath)" /><circle r="3.03" cx="12.025532678864026" cy="-0.6622969799133713" stroke="black" fill="none" stroke-width="1.0" filter="url(#fuzzy)" clip-path="url(#leftEyeClipPath)" /><circle r="4.016" cx="13.725532678864028" cy="0.3827030200866286" stroke="black" fill="none" stroke-width="1.0" filter="url(#fuzzy)" clip-path="url(#leftEyeClipPath)" /><circle r="4.002" cx="12.115532678864026" cy="-0.002296979913371633" stroke="black" fill="none" stroke-width="1.0" filter="url(#fuzzy)" clip-path="url(#leftEyeClipPath)" /><circle r="4.796" cx="12.425532678864027" cy="-1.0472969799133716" stroke="black" fill="none" stroke-width="1.0" filter="url(#fuzzy)" clip-path="url(#leftEyeClipPath)" /><circle r="4.724" cx="12.995532678864027" cy="1.242703020086628" stroke="black" fill="none" stroke-width="1.0" filter="url(#fuzzy)" clip-path="url(#leftEyeClipPath)" /><circle r="3.292" cx="15.570532678864026" cy="-1.9722969799133716" stroke="black" fill="none" stroke-width="1.0" filter="url(#fuzzy)" clip-path="url(#leftEyeClipPath)" /><circle r="4.782" cx="12.780532678864027" cy="-1.9222969799133716" stroke="black" fill="none" stroke-width="1.0" filter="url(#fuzzy)" clip-path="url(#leftEyeClipPath)" />
    </g>
    <g id="hairs">
      <polyline points="-25.75,-86.38 -24.46,-86.45 -22.86,-86.33 -20.56,-86.08 -17.52,-85.7 -13.76,-85.19 -9.36,-84.55 -4.45,-83.78 0.78,-82.89 6.22,-81.85 11.79,-80.66 17.47,-79.33 23.27,-77.9 29.16,-76.44 35.14,-75 41.25,-73.58 47.57,-72.04" fill="none" stroke="rgb(221, 160, 221)" stroke-width="2" stroke-linejoin="round" filter="url(#fuzzy)" /><polyline points="56.75,-67.98 57.91,-66.59 58.69,-65.79 59.37,-65.15 60.04,-64.49 60.66,-63.82 61.16,-63.22 61.45,-62.8 61.47,-62.62 61.2,-62.72 60.62,-63.11 59.7,-63.81 58.38,-64.89 56.55,-66.4 54.12,-68.46 51.06,-71.09 47.79,-74.08" fill="none" stroke="rgb(221, 160, 221)" stroke-width="2" stroke-linejoin="round" filter="url(#fuzzy)" /><polyline points="-5.29,-90.11 -3.33,-90.23 -1.48,-90.32 0.36,-90.34 2.04,-90.31 3.46,-90.27 4.59,-90.24 5.47,-90.23 6.1,-90.22 6.47,-90.2 6.54,-90.15 6.27,-90.11 5.54,-90.11 4.14,-90.18 1.72,-90.31" fill="none" stroke="rgb(221, 160, 221)" stroke-width="2" stroke-linejoin="round" filter="url(#fuzzy)" /><polyline points="-5.29,-90.11 -3.44,-90.23 -1.97,-90.29 -0.72,-90.25 0.19,-90.12 0.71,-89.93 0.84,-89.68 0.63,-89.36 0.09,-88.95 -0.73,-88.44 -1.85,-87.83 -3.26,-87.12 -5.01,-86.31 -7.18,-85.38 -9.85,-84.32 -13.11,-83.12 -17.02,-81.75 -21.62,-80.21 -26.93,-78.48 -32.86,-76.59 -39.28,-74.64 -45.89,-72.81" fill="none" stroke="rgb(221, 160, 221)" stroke-width="2" stroke-linejoin="round" filter="url(#fuzzy)" /><polyline points="58.64,-65.92 59.41,-65.14 60.14,-64.41 60.91,-63.54 61.6,-62.67 62.11,-61.92 62.43,-61.33 62.55,-60.87 62.47,-60.54 62.17,-60.35 61.61,-60.33 60.78,-60.51 59.64,-60.92 58.17,-61.58 56.37,-62.51 54.21,-63.72 51.67,-65.22 48.73,-67.03 45.37,-69.15 41.6,-71.6 37.39,-74.38 32.76,-77.49 27.74,-80.92 22.48,-84.66" fill="none" stroke="rgb(221, 160, 221)" stroke-width="2" stroke-linejoin="round" filter="url(#fuzzy)" /><polyline points="49.7,-73.76 49.68,-73.74 50.73,-72.84 51.98,-71.76 53.22,-70.66 54.43,-69.6 55.6,-68.54 56.73,-67.49 57.81,-66.47 58.8,-65.53 59.66,-64.71 60.36,-64.03 60.91,-63.51 61.28,-63.16 61.45,-62.98 61.4,-63 61.11,-63.26 60.54,-63.79 59.63,-64.68 58.3,-66.03 56.51,-67.83" fill="none" stroke="rgb(221, 160, 221)" stroke-width="2" stroke-linejoin="round" filter="url(#fuzzy)" /><polyline points="-11.23,-89.78 -9.69,-89.85 -8.42,-89.83 -7.54,-89.72 -7.06,-89.52 -6.95,-89.2 -7.26,-88.74 -8.07,-88.09 -9.49,-87.24 -11.62,-86.16 -14.52,-84.86 -18.2,-83.31 -22.61,-81.52 -27.7,-79.5 -33.41,-77.26 -39.84,-74.78 -47.23,-72.01" fill="none" stroke="rgb(221, 160, 221)" stroke-width="2" stroke-linejoin="round" filter="url(#fuzzy)" /><polyline points="26.18,-86.02 28.25,-85.39 29.62,-84.87 30.86,-84.33 32.07,-83.79 33.23,-83.26 34.24,-82.76 35.02,-82.36 35.46,-82.1 35.49,-82 35.04,-82.1 34.11,-82.39 32.69,-82.86 30.76,-83.51 28.3,-84.37 25.27,-85.48 21.61,-86.85" fill="none" stroke="rgb(221, 160, 221)" stroke-width="2" stroke-linejoin="round" filter="url(#fuzzy)" /><polyline points="51.22,-72.48 52.44,-71.29 52.72,-70.63 52.3,-70.16 51.31,-69.7 49.74,-69.29 47.51,-68.99 44.54,-68.85 40.82,-68.88 36.31,-69.03 31.01,-69.29 24.87,-69.66 17.85,-70.17 9.9,-70.86 1.03,-71.77 -8.72,-72.94 -19.33,-74.41 -30.89,-76.16" fill="none" stroke="rgb(221, 160, 221)" stroke-width="2" stroke-linejoin="round" filter="url(#fuzzy)" /><polyline points="-42.12,-78.79 -41.64,-78.94 -40.2,-79.15 -37.99,-79.49 -35.15,-79.87 -31.82,-80.23 -28.09,-80.54 -24.01,-80.79 -19.64,-80.99 -15.02,-81.14 -10.2,-81.25 -5.18,-81.33 0.03,-81.4 5.42,-81.45 10.95,-81.46 16.53,-81.41 22.11,-81.27 27.7,-81.04 33.38,-80.74" fill="none" stroke="rgb(221, 160, 221)" stroke-width="2" stroke-linejoin="round" filter="url(#fuzzy)" /><polyline points="58.41,-65.82 58.85,-65.57 59.52,-65 60.34,-64.2 61.23,-63.25 62.1,-62.28 62.86,-61.4 63.49,-60.64 63.97,-60.01 64.31,-59.52 64.47,-59.2 64.42,-59.08 64.13,-59.19 63.56,-59.59 62.69,-60.3 61.48,-61.36 59.91,-62.8 58,-64.63 55.75,-66.82 53.11,-69.41 49.75,-72.63" fill="none" stroke="rgb(221, 160, 221)" stroke-width="2" stroke-linejoin="round" filter="url(#fuzzy)" /><polyline points="75.92,-41.34 76.3,-40.96 76.53,-40.03 76.35,-39.31 75.69,-39.06 74.54,-39.38 72.85,-40.33 70.61,-41.85 67.82,-43.88 64.47,-46.41 60.54,-49.46 55.99,-53.05 50.81,-57.25 44.95,-62.09 38.4,-67.65 31.06,-74.03 22.68,-81.25" fill="none" stroke="rgb(221, 160, 221)" stroke-width="2" stroke-linejoin="round" filter="url(#fuzzy)" /><polyline points="28.23,-85.46 27.8,-85.54 28.75,-85.14 30.09,-84.54 31.62,-83.81 33.28,-83 35.01,-82.13 36.75,-81.24 38.43,-80.37 39.98,-79.56 41.35,-78.83 42.52,-78.2 43.49,-77.68 44.27,-77.25 44.85,-76.93 45.23,-76.72 45.39,-76.62 45.33,-76.67 45.01,-76.86 44.4,-77.23 43.5,-77.78 42.31,-78.48 40.86,-79.33" fill="none" stroke="rgb(221, 160, 221)" stroke-width="2" stroke-linejoin="round" filter="url(#fuzzy)" /><polyline points="48.35,-74.76 48.84,-74.31 48.79,-74.05 48.45,-73.76 47.63,-73.56 46.16,-73.56 43.95,-73.81 40.96,-74.32 37.17,-75.07 32.58,-76.06 27.15,-77.34 20.83,-78.96 13.5,-80.97 5.1,-83.36 -4.34,-86.05" fill="none" stroke="rgb(221, 160, 221)" stroke-width="2" stroke-linejoin="round" filter="url(#fuzzy)" /><polyline points="-29.49,-85.08 -27.9,-85.47 -25.86,-85.75 -23.79,-85.8 -21.64,-85.68 -19.24,-85.44 -16.48,-85.11 -13.33,-84.72 -9.83,-84.27 -6.07,-83.75 -2.15,-83.16 1.83,-82.47 5.82,-81.71 9.8,-80.87 13.79,-79.97 17.8,-79.03 21.88,-78.06 26.03,-77.06 30.25,-76.04 34.47,-75.02 38.62,-74.04 42.62,-73.15 46.46,-72.32 50.26,-71.4" fill="none" stroke="rgb(221, 160, 221)" stroke-width="2" stroke-linejoin="round" filter="url(#fuzzy)" /><polyline points="-5.29,-90.11 -3.36,-90.24 -1.6,-90.33 0.12,-90.37 1.66,-90.35 2.95,-90.33 3.98,-90.31 4.77,-90.29 5.32,-90.25 5.6,-90.2 5.57,-90.14 5.16,-90.06 4.32,-89.99 2.97,-89.91 1.05,-89.85 -1.56,-89.82 -5.05,-89.83" fill="none" stroke="rgb(221, 160, 221)" stroke-width="2" stroke-linejoin="round" filter="url(#fuzzy)" /><polyline points="64.1,-60.07 64.08,-59.86 64.47,-59.09 64.73,-58.23 64.7,-57.43 64.32,-56.75 63.54,-56.23 62.32,-55.88 60.64,-55.73 58.48,-55.79 55.83,-56.06 52.71,-56.53 49.13,-57.23 45.06,-58.15 40.5,-59.3 35.39,-60.66 29.72,-62.2 23.47,-63.91 16.65,-65.78 9.3,-67.83 1.43,-70.09 -7.01,-72.59 -16.15,-75.33 -26.26,-78.3" fill="none" stroke="rgb(221, 160, 221)" stroke-width="2" stroke-linejoin="round" filter="url(#fuzzy)" /><polyline points="74.99,-44.05 75.05,-43.82 75.27,-43.16 75.48,-42.48 75.62,-41.84 75.64,-41.27 75.47,-40.87 75.05,-40.75 74.33,-41.02 73.3,-41.7 71.95,-42.81 70.29,-44.29 68.34,-46.12 66.09,-48.3 63.51,-50.85 60.58,-53.81 57.22,-57.24 53.37,-61.23 48.95,-65.87 43.89,-71.24 38.22,-77.28" fill="none" stroke="rgb(221, 160, 221)" stroke-width="2" stroke-linejoin="round" filter="url(#fuzzy)" /><polyline points="64.1,-60.07 64.08,-59.89 64.46,-59.2 64.69,-58.47 64.59,-57.88 64.11,-57.49 63.2,-57.32 61.83,-57.44 59.96,-57.86 57.58,-58.6 54.65,-59.66 51.15,-61.06 47.03,-62.8 42.26,-64.9 36.82,-67.36 30.69,-70.19 23.86,-73.37 16.32,-76.9 8.01,-80.81 -1.16,-85.08" fill="none" stroke="rgb(221, 160, 221)" stroke-width="2" stroke-linejoin="round" filter="url(#fuzzy)" /><polyline points="39.58,-80.18 39.82,-80.03 40.51,-79.66 41.21,-79.24 41.87,-78.8 42.46,-78.36 42.96,-77.93 43.31,-77.55 43.47,-77.24 43.35,-77.03 42.92,-76.96 42.14,-77.04 40.97,-77.27 39.39,-77.68 37.35,-78.28 34.84,-79.06 31.85,-80.02 28.4,-81.18 24.5,-82.55 20.16,-84.16 15.37,-86.03 10.09,-88.08" fill="none" stroke="rgb(221, 160, 221)" stroke-width="2" stroke-linejoin="round" filter="url(#fuzzy)" /><polyline points="15.04,-89.09 16.37,-88.73 16.68,-88.4 16.51,-88.02 15.86,-87.55 14.63,-87.02 12.72,-86.41 10.07,-85.72 6.59,-84.94 2.21,-84.07 -3.11,-83.13 -9.39,-82.14 -16.62,-81.09 -24.92,-79.89 -34.59,-78.36" fill="none" stroke="rgb(221, 160, 221)" stroke-width="2" stroke-linejoin="round" filter="url(#fuzzy)" /><polyline points="26.18,-86.02 28.36,-85.31 30.06,-84.55 31.88,-83.62 33.89,-82.54 36.08,-81.35 38.33,-80.11 40.53,-78.88 42.56,-77.74 44.37,-76.71 45.9,-75.84 47.12,-75.14 48.01,-74.65 48.57,-74.4 48.85,-74.32" fill="none" stroke="rgb(221, 160, 221)" stroke-width="2" stroke-linejoin="round" filter="url(#fuzzy)" /><polyline points="-28.48,-85.38 -26.18,-86.04 -24.23,-86.34 -22.23,-86.5 -19.89,-86.6 -17.11,-86.71 -13.91,-86.82 -10.35,-86.93 -6.56,-87.05 -2.7,-87.15 1.1,-87.21 4.79,-87.22 8.34,-87.18 11.78,-87.1 15.11,-86.99 18.29,-86.88 21.05,-86.89" fill="none" stroke="rgb(221, 160, 221)" stroke-width="2" stroke-linejoin="round" filter="url(#fuzzy)" /><polyline points="69.67,-52.99 69.66,-52.5 69.64,-51.73 69.1,-51.13 67.93,-50.82 66.12,-50.79 63.68,-51.03 60.61,-51.59 56.87,-52.47 52.41,-53.65 47.22,-55.12 41.25,-56.82 34.49,-58.76 26.94,-60.94 18.59,-63.41 9.44,-66.25 -0.56,-69.5 -11.58,-73.18 -23.84,-77.19" fill="none" stroke="rgb(221, 160, 221)" stroke-width="2" stroke-linejoin="round" filter="url(#fuzzy)" /><polyline points="-42.37,-78.92 -41.32,-79.24 -40.18,-79.8 -38.8,-80.51 -37.37,-81.24 -35.94,-81.93 -34.57,-82.59 -33.28,-83.19 -32.17,-83.71 -31.25,-84.14 -30.54,-84.46 -30.02,-84.68 -29.72,-84.79 -29.69,-84.77 -30.03,-84.57 -30.87,-84.17 -32.22,-83.55 -33.99,-82.76 -35.97,-81.92" fill="none" stroke="rgb(221, 160, 221)" stroke-width="2" stroke-linejoin="round" filter="url(#fuzzy)" /><polyline points="51.22,-72.48 52.69,-71.23 53.71,-70.43 54.56,-69.72 55.38,-68.99 56.14,-68.25 56.79,-67.59 57.26,-67.06 57.53,-66.69 57.62,-66.45 57.52,-66.34 57.2,-66.37 56.65,-66.58 55.82,-67 54.67,-67.65 53.17,-68.57 51.27,-69.78 48.9,-71.33 46.02,-73.25 42.61,-75.58 38.71,-78.3 34.31,-81.41" fill="none" stroke="rgb(221, 160, 221)" stroke-width="2" stroke-linejoin="round" filter="url(#fuzzy)" /><polyline points="-2.94,-90.24 -1.54,-90.36 0.21,-90.37 1.92,-90.31 3.44,-90.23 4.83,-90.16 6.11,-90.09 7.34,-90 8.49,-89.9 9.57,-89.78 10.54,-89.66 11.35,-89.55 11.93,-89.46 12.23,-89.4 12.19,-89.38 11.79,-89.4 11.02,-89.44 9.88,-89.51 8.35,-89.62 6.39,-89.8 3.83,-90.12" fill="none" stroke="rgb(221, 160, 221)" stroke-width="2" stroke-linejoin="round" filter="url(#fuzzy)" /><polyline points="-42.37,-78.92 -41.35,-79.23 -40.29,-79.77 -39.04,-80.44 -37.78,-81.1 -36.6,-81.7 -35.54,-82.22 -34.66,-82.65 -34,-82.95 -33.61,-83.11 -33.48,-83.13 -33.61,-83 -34.01,-82.73 -34.74,-82.28 -35.91,-81.64 -37.64,-80.72 -40.02,-79.46 -42.97,-77.88" fill="none" stroke="rgb(221, 160, 221)" stroke-width="2" stroke-linejoin="round" filter="url(#fuzzy)" /><polyline points="-34.78,-82.52 -33.69,-82.94 -32.09,-83.32 -30.16,-83.56 -27.77,-83.76 -24.91,-83.94 -21.66,-84.07 -18.17,-84.13 -14.53,-84.09 -10.79,-83.98 -6.92,-83.82 -2.91,-83.62 1.26,-83.42 5.57,-83.22 9.96,-83.02 14.38,-82.81 18.72,-82.55 22.96,-82.23 27.09,-81.86 31.13,-81.43 35.12,-80.93" fill="none" stroke="rgb(221, 160, 221)" stroke-width="2" stroke-linejoin="round" filter="url(#fuzzy)" /><polyline points="53.1,-70.74 53.98,-70.2 54.89,-69.41 55.99,-68.36 57.21,-67.16 58.4,-65.98 59.45,-64.93 60.33,-64.06 61.06,-63.35 61.59,-62.83 61.88,-62.54 61.83,-62.59 61.4,-63.01 60.66,-63.74 59.67,-64.68" fill="none" stroke="rgb(221, 160, 221)" stroke-width="2" stroke-linejoin="round" filter="url(#fuzzy)" /><polyline points="54.47,-69.81 55.23,-69.01 55.72,-67.98 55.65,-67.04 54.96,-66.26 53.7,-65.57 51.91,-64.89 49.61,-64.18 46.77,-63.47 43.33,-62.78 39.26,-62.12 34.55,-61.51 29.17,-60.91 23.09,-60.31 16.27,-59.71 8.68,-59.13 0.33,-58.63 -8.78,-58.26 -18.62,-58.05 -29.21,-57.98 -40.6,-57.96 -52.81,-57.88" fill="none" stroke="rgb(221, 160, 221)" stroke-width="2" stroke-linejoin="round" filter="url(#fuzzy)" /><polyline points="75.57,-42.79 75.82,-41.86 75.95,-41.03 75.86,-40.1 75.42,-39.27 74.59,-38.69 73.34,-38.46 71.65,-38.57 69.52,-39 66.96,-39.68 63.94,-40.58 60.46,-41.67 56.49,-42.97 52.02,-44.51 47.06,-46.32 41.61,-48.45 35.66,-50.93 29.19,-53.78 22.14,-56.98 14.46,-60.51 6.09,-64.35 -2.94,-68.53 -12.51,-73.09 -22.3,-78.19" fill="none" stroke="rgb(221, 160, 221)" stroke-width="2" stroke-linejoin="round" filter="url(#fuzzy)" /><polyline points="35.96,-81.87 38.13,-80.82 39.03,-80.29 39.36,-79.93 39.3,-79.64 38.89,-79.38 38.15,-79.17 37.05,-79 35.56,-78.9 33.61,-78.89 31.12,-79 27.99,-79.25 24.13,-79.63 19.49,-80.15 14.03,-80.81 7.75,-81.62 0.7,-82.61 -7.02,-83.78 -15.39,-85.13" fill="none" stroke="rgb(221, 160, 221)" stroke-width="2" stroke-linejoin="round" filter="url(#fuzzy)" /><polyline points="-42.37,-78.92 -41.16,-79.15 -39.52,-79.45 -37.29,-79.74 -34.65,-79.9 -31.64,-79.91 -28.29,-79.79 -24.64,-79.54 -20.69,-79.16 -16.48,-78.68 -11.98,-78.11 -7.22,-77.48 -2.22,-76.79 2.95,-76.03 8.24,-75.21 13.61,-74.31 19.05,-73.34 24.58,-72.34 30.22,-71.32 35.93,-70.33 41.67,-69.36 47.38,-68.36 53.08,-67.15" fill="none" stroke="rgb(221, 160, 221)" stroke-width="2" stroke-linejoin="round" filter="url(#fuzzy)" /><polyline points="13.02,-89.22 14.86,-89.01 16.19,-88.77 17.13,-88.52 17.87,-88.27 18.45,-88.02 18.85,-87.77 19.03,-87.55 18.95,-87.34 18.55,-87.17 17.8,-87.01 16.67,-86.9 15.16,-86.8 13.22,-86.73 10.81,-86.66 7.88,-86.6 4.32,-86.54 0.07,-86.49 -4.92,-86.47 -10.55,-86.53 -16.72,-86.7" fill="none" stroke="rgb(221, 160, 221)" stroke-width="2" stroke-linejoin="round" filter="url(#fuzzy)" /><polyline points="-38.15,-81.15 -37.1,-81.15 -34.98,-81.11 -31.77,-80.94 -27.72,-80.55 -23.01,-79.88 -17.66,-78.95 -11.64,-77.8 -4.96,-76.47 2.33,-74.99 10.11,-73.37 18.24,-71.6 26.65,-69.69 35.32,-67.66 44.29,-65.52 53.71,-63.17" fill="none" stroke="rgb(221, 160, 221)" stroke-width="2" stroke-linejoin="round" filter="url(#fuzzy)" /><polyline points="-34.78,-82.52 -33.52,-82.87 -31.38,-83.04 -28.58,-82.94 -25,-82.69 -20.62,-82.31 -15.55,-81.79 -9.95,-81.11 -3.97,-80.26 2.32,-79.25 8.95,-78.09 15.95,-76.79 23.32,-75.41 31,-74.01 38.82,-72.68 46.64,-71.38" fill="none" stroke="rgb(221, 160, 221)" stroke-width="2" stroke-linejoin="round" filter="url(#fuzzy)" /><polyline points="-37.28,-81.22 -36.62,-81.62 -34.85,-82.27 -32.74,-82.93 -30.5,-83.54 -28.1,-84.11 -25.48,-84.69 -22.63,-85.29 -19.62,-85.9 -16.58,-86.5 -13.65,-87.06 -10.89,-87.57 -8.33,-88.06 -5.91,-88.52 -3.56,-88.98 -1.27,-89.43 0.93,-89.84 2.86,-90.12" fill="none" stroke="rgb(221, 160, 221)" stroke-width="2" stroke-linejoin="round" filter="url(#fuzzy)" /><polyline points="64.86,-59.22 65.75,-57.67 65.58,-56.71 64.71,-55.81 63.03,-55.03 60.47,-54.42 56.99,-54.01 52.59,-53.8 47.26,-53.78 40.99,-53.96 33.79,-54.33 25.6,-54.9 16.42,-55.67 6.19,-56.62 -5.12,-57.67 -17.6,-58.72 -31.36,-59.67 -46.33,-60.58" fill="none" stroke="rgb(221, 160, 221)" stroke-width="2" stroke-linejoin="round" filter="url(#fuzzy)" /><polyline points="66.9,-56.58 66.94,-56.45 67.54,-55.51 67.92,-54.68 67.92,-54.17 67.53,-53.98 66.74,-54.14 65.52,-54.64 63.88,-55.5 61.79,-56.75 59.22,-58.41 56.12,-60.52 52.46,-63.08 48.19,-66.1 43.32,-69.56 37.84,-73.48 31.72,-77.91 24.85,-82.9" fill="none" stroke="rgb(221, 160, 221)" stroke-width="2" stroke-linejoin="round" filter="url(#fuzzy)" /><polyline points="-41.79,-78.92 -38.99,-80.35 -36.66,-81.09 -34.05,-81.69 -30.92,-82.3 -27.34,-82.92 -23.42,-83.52 -19.22,-84.08 -14.74,-84.63 -9.99,-85.19 -5.07,-85.75 -0.08,-86.3 4.85,-86.8 9.6,-87.25 14.21,-87.7" fill="none" stroke="rgb(221, 160, 221)" stroke-width="2" stroke-linejoin="round" filter="url(#fuzzy)" /><polyline points="69.67,-52.99 69.7,-52.46 69.81,-51.59 69.51,-50.82 68.67,-50.26 67.32,-49.91 65.46,-49.75 63.08,-49.82 60.14,-50.11 56.64,-50.6 52.55,-51.27 47.87,-52.08 42.6,-53.02 36.71,-54.1 30.2,-55.37 23.03,-56.88 15.19,-58.69 6.66,-60.85 -2.63,-63.31 -12.69,-65.99 -23.52,-68.85 -35.02,-71.92" fill="none" stroke="rgb(221, 160, 221)" stroke-width="2" stroke-linejoin="round" filter="url(#fuzzy)" /><polyline points="59.71,-64.74 60.24,-64.35 61.29,-63.22 62.39,-61.96 63.4,-60.76 64.33,-59.65 65.21,-58.58 66.04,-57.54 66.81,-56.56 67.48,-55.67 68.02,-54.92 68.39,-54.34 68.58,-53.96 68.57,-53.82 68.34,-53.92 67.9,-54.29 67.24,-54.92 66.37,-55.82 65.26,-57.03 63.88,-58.58 62.2,-60.48 60.25,-62.72 58.09,-65.2 55.78,-67.84" fill="none" stroke="rgb(221, 160, 221)" stroke-width="2" stroke-linejoin="round" filter="url(#fuzzy)" /><polyline points="-34.39,-82.75 -32.84,-83.53 -32.09,-83.86 -31.33,-84.15 -30.5,-84.43 -29.77,-84.61 -29.32,-84.63 -29.28,-84.42 -29.7,-83.98 -30.55,-83.31 -31.76,-82.44 -33.29,-81.35 -35.18,-80.04 -37.49,-78.47 -40.35,-76.61 -43.87,-74.42 -48.12,-71.86 -53.27,-68.77" fill="none" stroke="rgb(221, 160, 221)" stroke-width="2" stroke-linejoin="round" filter="url(#fuzzy)" /><polyline points="-34.78,-82.52 -33.74,-82.99 -32.29,-83.51 -30.63,-83.97 -28.63,-84.46 -26.28,-85.01 -23.69,-85.57 -20.99,-86.11 -18.32,-86.61 -15.74,-87.07 -13.26,-87.5 -10.86,-87.92 -8.51,-88.34 -6.21,-88.77 -3.98,-89.18 -1.9,-89.56 -0.1,-89.87 1.32,-90.08 2.28,-90.16" fill="none" stroke="rgb(221, 160, 221)" stroke-width="2" stroke-linejoin="round" filter="url(#fuzzy)" /><polyline points="-32.85,-83.61 -31.07,-84.16 -28.9,-84.7 -26.37,-85.13 -23.6,-85.44 -20.71,-85.63 -17.7,-85.72 -14.5,-85.75 -11.04,-85.75 -7.3,-85.73 -3.32,-85.69 0.8,-85.66 4.92,-85.62 8.88,-85.58 12.61,-85.54 16.1,-85.51 19.38,-85.48 22.52,-85.43 25.66,-85.38" fill="none" stroke="rgb(221, 160, 221)" stroke-width="2" stroke-linejoin="round" filter="url(#fuzzy)" /><polyline points="-11.23,-89.78 -9.33,-89.76 -6.99,-89.49 -4.32,-89 -1.33,-88.33 2.01,-87.48 5.68,-86.46 9.6,-85.3 13.68,-83.99 17.86,-82.56 22.09,-81.04 26.37,-79.47 30.69,-77.85 35.05,-76.2 39.47,-74.48 43.97,-72.68 48.51,-70.82 52.91,-69.07" fill="none" stroke="rgb(221, 160, 221)" stroke-width="2" stroke-linejoin="round" filter="url(#fuzzy)" /><polyline points="-37.8,-81.32 -35.59,-82.23 -33.98,-82.94 -32.66,-83.54 -31.45,-84.06 -30.23,-84.57 -28.97,-85.06 -27.74,-85.53 -26.69,-85.91 -25.96,-86.16 -25.66,-86.26 -25.8,-86.19 -26.34,-85.97 -27.21,-85.61 -28.36,-85.14 -29.86,-84.5 -31.99,-83.62" fill="none" stroke="rgb(221, 160, 221)" stroke-width="2" stroke-linejoin="round" filter="url(#fuzzy)" /><polyline points="69.35,-52.86 70.29,-51.44 70.43,-50.39 69.86,-49.69 68.69,-49.2 66.98,-48.89 64.68,-48.8 61.76,-48.93 58.2,-49.28 54.01,-49.8 49.19,-50.47 43.73,-51.27 37.59,-52.19 30.73,-53.27 23.08,-54.53 14.6,-56.03 5.22,-57.78 -5.07,-59.79 -16.21,-62.04 -28.01,-64.56 -40.16,-67.55" fill="none" stroke="rgb(221, 160, 221)" stroke-width="2" stroke-linejoin="round" filter="url(#fuzzy)" /><polyline points="73.58,-46.12 74.39,-44.85 74.65,-44.16 74.67,-43.63 74.53,-43.18 74.21,-42.81 73.68,-42.54 72.89,-42.46 71.77,-42.65 70.29,-43.19 68.44,-44.12 66.21,-45.42 63.6,-47.06 60.62,-49.03 57.23,-51.32 53.41,-53.93 49.1,-56.9 44.27,-60.26 38.91,-64.06 33.04,-68.34 26.71,-73.14 20,-78.44 12.91,-84.21" fill="none" stroke="rgb(221, 160, 221)" stroke-width="2" stroke-linejoin="round" filter="url(#fuzzy)" /><polyline points="72.01,-49.25 71.87,-48.81 71.27,-48.16 70.11,-47.45 68.21,-46.93 65.51,-46.66 61.98,-46.57 57.64,-46.61 52.48,-46.73 46.48,-46.91 39.61,-47.13 31.82,-47.43 23.04,-47.87 13.28,-48.54 2.55,-49.54 -9.15,-50.87 -21.8,-52.45 -35.43,-54.15 -50.12,-55.91" fill="none" stroke="rgb(221, 160, 221)" stroke-width="2" stroke-linejoin="round" filter="url(#fuzzy)" /><polyline points="-29.49,-85.08 -28.13,-85.51 -26.76,-85.9 -25.84,-86.12 -25.31,-86.17 -25.02,-86.11 -24.85,-85.94 -24.77,-85.66 -24.83,-85.25 -25.12,-84.66 -25.77,-83.85 -26.9,-82.79 -28.57,-81.45 -30.81,-79.82 -33.59,-77.91 -36.85,-75.76 -40.53,-73.38 -44.64,-70.75 -49.22,-67.8 -54.4,-64.48 -60.25,-60.77" fill="none" stroke="rgb(221, 160, 221)" stroke-width="2" stroke-linejoin="round" filter="url(#fuzzy)" /><polyline points="63.53,-60.4 64.64,-59.12 65.12,-58.06 65.01,-57.23 64.37,-56.58 63.16,-56.14 61.36,-55.93 58.94,-55.98 55.89,-56.31 52.18,-56.91 47.78,-57.77 42.67,-58.89 36.81,-60.29 30.21,-61.97 22.87,-63.94 14.8,-66.18 5.98,-68.67 -3.67,-71.38 -14.24,-74.28 -25.67,-77.46" fill="none" stroke="rgb(221, 160, 221)" stroke-width="2" stroke-linejoin="round" filter="url(#fuzzy)" /><polyline points="15.04,-89.09 16.61,-88.74 17.62,-88.47 18.62,-88.18 19.65,-87.9 20.61,-87.63 21.45,-87.39 22.07,-87.2 22.42,-87.05 22.43,-86.96 22.09,-86.93 21.38,-86.97 20.31,-87.07 18.88,-87.23 17.06,-87.45 14.78,-87.75 11.96,-88.17 8.4,-88.75 3.84,-89.52" fill="none" stroke="rgb(221, 160, 221)" stroke-width="2" stroke-linejoin="round" filter="url(#fuzzy)" /><polyline points="72.27,-48.52 72.24,-48.22 72.05,-47.49 71.15,-47.29 69.47,-47.66 67,-48.49 63.75,-49.7 59.73,-51.28 54.92,-53.24 49.32,-55.62 42.86,-58.45 35.46,-61.82 27.03,-65.82 17.46,-70.5 6.6,-75.84 -5.76,-81.72" fill="none" stroke="rgb(221, 160, 221)" stroke-width="2" stroke-linejoin="round" filter="url(#fuzzy)" /><polyline points="58.41,-65.82 58.6,-65.63 58.5,-65.21 58.03,-64.65 57.13,-63.99 55.68,-63.34 53.6,-62.8 50.86,-62.39 47.43,-62.09 43.31,-61.87 38.45,-61.72 32.81,-61.66 26.33,-61.69 18.99,-61.86 10.79,-62.19 1.75,-62.72 -8.1,-63.46 -18.8,-64.4 -30.44,-65.47 -43.06,-66.68" fill="none" stroke="rgb(221, 160, 221)" stroke-width="2" stroke-linejoin="round" filter="url(#fuzzy)" /><polyline points="-23.68,-86.92 -22.53,-87.25 -21.74,-87.38 -21,-87.35 -20.5,-87.13 -20.53,-86.66 -21.27,-85.88 -22.78,-84.76 -25.07,-83.27 -28.15,-81.37 -32.05,-79 -36.76,-76.14 -42.24,-72.83 -48.43,-69.21 -55.35,-65.45" fill="none" stroke="rgb(221, 160, 221)" stroke-width="2" stroke-linejoin="round" filter="url(#fuzzy)" /><polyline points="-46.15,-76.15 -44.06,-77.46 -42.17,-78.07 -40.19,-78.31 -37.86,-78.38 -35.07,-78.41 -31.83,-78.4 -28.21,-78.35 -24.26,-78.23 -20.03,-78.03 -15.56,-77.76 -10.87,-77.41 -5.99,-76.99 -0.9,-76.51 4.38,-75.99 9.82,-75.44 15.37,-74.83 20.99,-74.16 26.64,-73.4 32.29,-72.59 37.92,-71.8 43.46,-71.14 48.91,-70.58" fill="none" stroke="rgb(221, 160, 221)" stroke-width="2" stroke-linejoin="round" filter="url(#fuzzy)" />
    </g>
    
        <g id="pointNose">
          <g id="rightNose"><circle r="2.02" cx="15.14" cy="6.3580000000000005" stroke="black" fill="none" stroke-width="1.0" filter="url(#fuzzy)" /><circle r="2.534" cx="11.383999999999999" cy="7.974" stroke="black" fill="none" stroke-width="1.0" filter="url(#fuzzy)" /><circle r="1.266" cx="12.192" cy="6.994" stroke="black" fill="none" stroke-width="1.0" filter="url(#fuzzy)" /><circle r="1.49" cx="14.783999999999999" cy="7.114000000000001" stroke="black" fill="none" stroke-width="1.0" filter="url(#fuzzy)" /><circle r="2.7039999999999997" cx="14.956" cy="7.406000000000001" stroke="black" fill="none" stroke-width="1.0" filter="url(#fuzzy)" /><circle r="1.822" cx="11.968" cy="6.602" stroke="black" fill="none" stroke-width="1.0" filter="url(#fuzzy)" /><circle r="1.6440000000000001" cx="11.324" cy="7.77" stroke="black" fill="none" stroke-width="1.0" filter="url(#fuzzy)" /><circle r="1.912" cx="12.184" cy="6.506" stroke="black" fill="none" stroke-width="1.0" filter="url(#fuzzy)" /><circle r="2.79" cx="13.524" cy="8.062000000000001" stroke="black" fill="none" stroke-width="1.0" filter="url(#fuzzy)" /><circle r="2.996" cx="15.119999999999997" cy="5.106" stroke="black" fill="none" stroke-width="1.0" filter="url(#fuzzy)" /></g>
          <g id="leftNose"><circle r="1.5819999999999999" cx="-8.832" cy="2.2640000000000002" stroke="black" fill="none" stroke-width="1.0" filter="url(#fuzzy)" /><circle r="2.1799999999999997" cx="-11.304" cy="2.2520000000000007" stroke="black" fill="none" stroke-width="1.0" filter="url(#fuzzy)" /><circle r="2.302" cx="-11.816" cy="-0.9399999999999995" stroke="black" fill="none" stroke-width="1.0" filter="url(#fuzzy)" /><circle r="2.234" cx="-8.120000000000001" cy="-0.13999999999999968" stroke="black" fill="none" stroke-width="1.0" filter="url(#fuzzy)" /><circle r="1.712" cx="-11.812" cy="0.5160000000000005" stroke="black" fill="none" stroke-width="1.0" filter="url(#fuzzy)" /><circle r="1.1360000000000001" cx="-9.468" cy="-0.8479999999999996" stroke="black" fill="none" stroke-width="1.0" filter="url(#fuzzy)" /><circle r="1.3780000000000001" cx="-11.064" cy="2.08" stroke="black" fill="none" stroke-width="1.0" filter="url(#fuzzy)" /><circle r="2.708" cx="-10.8" cy="-0.6199999999999997" stroke="black" fill="none" stroke-width="1.0" filter="url(#fuzzy)" /><circle r="2.778" cx="-9.328" cy="1.2960000000000003" stroke="black" fill="none" stroke-width="1.0" filter="url(#fuzzy)" /><circle r="2.234" cx="-11.56" cy="0.9400000000000004" stroke="black" fill="none" stroke-width="1.0" filter="url(#fuzzy)" /></g>
        </g>
      
    <g id="mouth">
      <polyline points="-29.08,56.34 -28.6,55.4 -28.12,54.48 -27.63,53.6 -27.13,52.76 -26.63,51.94 -26.12,51.16 -25.6,50.41 -25.07,49.69 -24.54,49 -24.01,48.35 -23.46,47.72 -22.91,47.12 -22.36,46.55 -21.8,46 -21.23,45.49 -20.66,45 -20.08,44.54 -19.5,44.11 -18.91,43.7 -18.31,43.31 -17.72,42.95 -17.11,42.62 -16.5,42.31 -15.89,42.02 -15.27,41.76 -14.65,41.51 -14.03,41.29 -13.4,41.09 -12.76,40.92 -12.12,40.76 -11.48,40.62 -10.84,40.5 -10.19,40.4 -9.54,40.32 -8.88,40.26 -8.22,40.21 -7.56,40.18 -6.9,40.17 -6.23,40.17 -5.56,40.19 -4.89,40.22 -4.21,40.27 -3.53,40.33 -2.85,40.41 -2.17,40.5 -1.49,40.6 -0.8,40.71 -0.12,40.83 0.57,40.97 1.26,41.12 1.95,41.27 2.65,41.44 3.34,41.61 4.04,41.8 4.73,41.99 5.43,42.19 6.13,42.39 6.82,42.61 7.52,42.83 8.22,43.05 8.92,43.28 9.62,43.52 10.31,43.75 11.01,44 11.71,44.24 12.41,44.49 13.1,44.74 13.8,44.99 14.5,45.25 15.19,45.5 15.88,45.76 16.58,46.01 17.27,46.26 17.96,46.52 18.64,46.77 19.33,47.02 20.01,47.26 20.7,47.51 21.38,47.74 22.05,47.98 22.73,48.21 23.4,48.43 24.07,48.65 24.74,48.87 25.41,49.07 26.07,49.27 26.73,49.47 27.39,49.65 28.04,49.83 28.69,49.99 29.34,50.15 29.98,50.3 30.62,50.43 31.25,50.56 31.89,50.67 32.51,50.77 33.14,50.86 33.75,50.94 34.37,51 34.37,51 33.73,51.01 33.1,51.01 32.46,51.01 31.83,51 31.2,50.99 30.56,50.97 29.93,50.95 29.29,50.92 28.66,50.89 28.02,50.85 27.39,50.81 26.75,50.77 26.12,50.73 25.49,50.68 24.85,50.63 24.22,50.58 23.58,50.52 22.95,50.46 22.31,50.4 21.68,50.34 21.04,50.28 20.41,50.21 19.78,50.15 19.14,50.08 18.51,50.01 17.87,49.94 17.24,49.87 16.6,49.8 15.97,49.73 15.33,49.66 14.7,49.59 14.07,49.52 13.43,49.46 12.8,49.39 12.16,49.32 11.53,49.26 10.89,49.19 10.26,49.13 9.62,49.07 8.99,49.01 8.36,48.96 7.72,48.91 7.09,48.86 6.45,48.81 5.82,48.76 5.18,48.72 4.55,48.68 3.91,48.65 3.28,48.62 2.65,48.59 2.01,48.57 1.38,48.55 0.74,48.54 0.11,48.53 -0.53,48.53 -1.16,48.53 -1.8,48.54 -2.43,48.55 -3.06,48.57 -3.7,48.59 -4.33,48.62 -4.97,48.66 -5.6,48.7 -6.24,48.76 -6.87,48.81 -7.51,48.88 -8.14,48.95 -8.78,49.03 -9.41,49.12 -10.04,49.21 -10.68,49.31 -11.31,49.43 -11.95,49.55 -12.58,49.68 -13.22,49.81 -13.85,49.96 -14.49,50.12 -15.12,50.28 -15.75,50.46 -16.39,50.64 -17.02,50.84 -17.66,51.05 -18.29,51.26 -18.93,51.49 -19.56,51.73 -20.2,51.98 -20.83,52.24 -21.46,52.51 -22.1,52.79 -22.73,53.09 -23.37,53.4 -24,53.71 -24.64,54.05 -25.27,54.39 -25.91,54.75 -26.54,55.12 -27.17,55.5 -27.81,55.9 -28.44,56.31" fill="rgb(215,127,140)" stroke="black" stroke-width="3" stroke-linejoin="round" filter="url(#fuzzy)" />
    </g>
  </svg>