<svg viewBox="-100 -100 200 200" xmlns="http://www.w3.org/2000/svg" width="500" height="500" id="face-svg">
    <defs>
      <clipPath id="leftEyeClipPath">
        <polyline points="23.72,-5.83 23.64,-5.88 23.54,-5.92 23.42,-5.97 23.29,-6.01 23.13,-6.05 22.96,-6.09 22.77,-6.13 22.55,-6.17 22.31,-6.2 22.06,-6.24 21.78,-6.27 21.48,-6.31 21.15,-6.34 20.81,-6.37 20.44,-6.4 20.16,-6.43 19.85,-6.46 19.49,-6.49 19.09,-6.52 18.65,-6.55 18.18,-6.58 17.66,-6.61 17.11,-6.64 16.52,-6.67 15.89,-6.7 15.23,-6.72 14.53,-6.75 13.81,-6.77 13.05,-6.8 12.26,-6.82 11.45,-6.84 10.62,-6.86 9.76,-6.88 8.88,-6.9 7.99,-6.91 7.07,-6.93 6.14,-6.94 5.21,-6.95 4.26,-6.97 3.3,-6.97 2.33,-6.98 1.37,-6.99 0.4,-6.99 -0.57,-6.99 -1.54,-7 -2.51,-6.99 -3.47,-6.99 -4.42,-6.99 -5.36,-6.98 -6.3,-6.97 -7.22,-6.97 -8.13,-6.96 -9.03,-6.94 -9.91,-6.93 -10.78,-6.92 -11.63,-6.9 -12.47,-6.88 -13.28,-6.86 -14.08,-6.84 -14.86,-6.82 -15.62,-6.8 -16.36,-6.78 -17.09,-6.76 -17.79,-6.73 -18.47,-6.71 -19.14,-6.68 -19.79,-6.66 -20.42,-6.63 -21.04,-6.6 -21.64,-6.57 -22.22,-6.55 -22.79,-6.52 -23.34,-6.49 -23.87,-6.46 -24.39,-6.43 -24.89,-6.39 -25.37,-6.36 -25.84,-6.33 -26.29,-6.3 -25.94,-2.42 -25.53,-2.22 -25.12,-2.01 -24.69,-1.8 -24.25,-1.59 -23.81,-1.37 -23.35,-1.14 -22.88,-0.91 -22.4,-0.68 -21.91,-0.44 -21.41,-0.2 -20.9,0.04 -20.39,0.29 -19.86,0.54 -19.32,0.8 -18.78,1.05 -18.22,1.31 -17.65,1.58 -17.07,1.85 -16.48,2.12 -15.88,2.39 -15.27,2.67 -14.65,2.94 -14.03,3.22 -13.39,3.49 -12.75,3.77 -12.1,4.04 -11.44,4.31 -10.78,4.58 -10.12,4.84 -9.45,5.09 -8.77,5.34 -8.09,5.58 -7.41,5.82 -6.73,6.04 -6.05,6.25 -5.36,6.45 -4.67,6.64 -3.99,6.82 -3.3,6.97 -2.61,7.12 -1.93,7.24 -1.24,7.35 -0.56,7.44 0.12,7.51 0.8,7.56 1.47,7.58 2.14,7.59 2.81,7.57 3.48,7.53 4.13,7.46 4.79,7.37 5.44,7.25 6.09,7.11 6.73,6.94 7.36,6.75 7.99,6.53 8.62,6.29 9.23,6.02 9.84,5.73 10.45,5.41 11.05,5.07 11.64,4.7 12.22,4.32 12.79,3.92 13.29,3.66 13.79,3.39 14.27,3.11 14.75,2.82 15.22,2.53 15.68,2.23 16.13,1.93 16.57,1.62 17,1.3 17.42,0.99 17.83,0.67 18.23,0.35 18.61,0.04 18.98,-0.27 19.34,-0.58" />
      </clipPath>
      <clipPath id="rightEyeClipPath">
        <polyline points="-22.34,-6.4 -22.24,-6.47 -22.13,-6.54 -21.99,-6.6 -21.83,-6.65 -21.66,-6.71 -21.46,-6.76 -21.24,-6.81 -21,-6.86 -20.74,-6.91 -20.45,-6.95 -20.14,-6.99 -19.81,-7.03 -19.45,-7.07 -19.07,-7.1 -18.67,-7.14 -18.36,-7.17 -18,-7.2 -17.6,-7.23 -17.17,-7.26 -16.69,-7.29 -16.17,-7.32 -15.61,-7.34 -15.01,-7.37 -14.37,-7.39 -13.7,-7.42 -13,-7.44 -12.26,-7.46 -11.49,-7.48 -10.69,-7.49 -9.87,-7.51 -9.02,-7.53 -8.15,-7.54 -7.26,-7.56 -6.34,-7.57 -5.42,-7.58 -4.48,-7.59 -3.52,-7.6 -2.56,-7.61 -1.59,-7.61 -0.62,-7.62 0.36,-7.62 1.34,-7.62 2.32,-7.63 3.29,-7.63 4.26,-7.63 5.23,-7.63 6.18,-7.62 7.13,-7.62 8.06,-7.61 8.98,-7.61 9.89,-7.6 10.78,-7.59 11.65,-7.58 12.51,-7.57 13.35,-7.56 14.17,-7.55 14.97,-7.54 15.75,-7.53 16.51,-7.51 17.25,-7.5 17.97,-7.48 18.67,-7.47 19.34,-7.45 20,-7.43 20.63,-7.42 21.25,-7.4 21.85,-7.38 22.43,-7.36 22.99,-7.34 23.54,-7.32 24.06,-7.3 24.57,-7.28 25.06,-7.26 25.54,-7.24 25.99,-7.21 26.43,-7.19 26.85,-7.17 27.25,-7.15 27.64,-7.12 24.7,-3.91 24.17,-3.72 23.64,-3.52 23.09,-3.31 22.53,-3.1 21.97,-2.88 21.4,-2.65 20.82,-2.42 20.23,-2.17 19.63,-1.93 19.03,-1.67 18.42,-1.41 17.81,-1.14 17.19,-0.86 16.57,-0.58 15.95,-0.29 15.31,0.01 14.67,0.31 14.02,0.62 13.37,0.94 12.71,1.26 12.05,1.59 11.39,1.93 10.72,2.27 10.06,2.61 9.4,2.96 8.74,3.32 8.08,3.67 7.43,4.03 6.78,4.38 6.13,4.73 5.49,5.08 4.86,5.43 4.23,5.77 3.61,6.11 3,6.43 2.39,6.75 1.79,7.05 1.2,7.34 0.62,7.62 0.04,7.88 -0.53,8.12 -1.09,8.34 -1.65,8.54 -2.19,8.72 -2.74,8.87 -3.27,8.99 -3.81,9.09 -4.33,9.16 -4.85,9.2 -5.37,9.2 -5.89,9.18 -6.4,9.11 -6.92,9.02 -7.43,8.88 -7.94,8.71 -8.45,8.51 -8.96,8.26 -9.48,7.98 -9.99,7.66 -10.51,7.31 -11.03,6.91 -11.55,6.49 -12.08,6.02 -12.6,5.53 -13.02,5.25 -13.44,4.94 -13.86,4.63 -14.27,4.3 -14.68,3.96 -15.08,3.6 -15.48,3.24 -15.88,2.87 -16.27,2.49 -16.65,2.1 -17.03,1.71 -17.39,1.32 -17.75,0.93 -18.1,0.54 -18.44,0.15" />
      </clipPath>
      <filter id="fuzzy">
        <feTurbulence id="turbulence" baseFrequency="0.05" numOctaves="3" type="noise" result="noise" />
        <feDisplacementMap in="SourceGraphic" in2="noise" scale="2" />
      </filter>
      <linearGradient id="rainbowGradient" x1="0%" y1="0%" x2="100%" y2="0%">
        <stop offset="0%" style="stop-color: [object Object]; stop-opacity: 1" />
        <stop offset="50%" style="stop-color: [object Object]; stop-opacity: 1" />
        <stop offset="100%" style="stop-color: [object Object]; stop-opacity: 1" />
      </linearGradient>
    </defs>
    <rect x="-100" y="-100" width="100%" height="100%" fill="rgb(245, 245, 220)" />
    <polyline id="faceContour" points="59.86,1.56 59.91,1.23 59.66,4.44 59.77,2.97 59.64,5.11 59.55,6.24 59.59,8.51 59.27,10.86 59.36,11.41 59.2,11.16 59.25,13.19 59.11,14.51 58.72,16.85 58.68,17 58.29,18.49 58.29,19.2 57.88,21.46 57.88,20.99 57.21,25 57.14,26.07 56.87,27.23 56.75,27.1 56.44,28.64 55.62,31.61 54.93,33.9 54.95,33.72 55.08,33.8 54.31,35.82 53.68,38.18 53.66,38.22 53.2,39.53 52.67,41.28 51.96,42.83 51.55,44.12 51.72,43.57 50.35,46.99 50.9,45.2 50.68,46.03 50.3,46.78 48.92,49.59 48.45,50.67 48.3,50.66 47.32,52.9 45.8,55.5 46.1,55.13 45.43,56.25 44.57,57.48 44.99,57.11 44.37,57.75 42.82,60.52 41.55,62.22 41.64,62.01 40.35,63.63 40.74,63.26 39.48,64.92 38.7,66.06 38.34,66.27 37.02,67.93 37.43,67.67 36.53,68.25 36.27,68.61 34.76,70.45 34.88,70.47 33.42,71.59 31.75,73.23 30.97,74.01 31.12,73.75 30.72,74.09 29.17,75.3 28.46,76.16 26.93,77.21 25.62,78.1 24.04,78.95 23.43,79.28 23.12,79.75 23.15,79.74 22.05,80.46 20.91,80.89 20.37,81.31 18.57,82.03 16.97,83.05 17.22,82.78 16.44,83.25 15.94,83.09 14.87,83.61 12.71,84.61 13.29,84.09 10.89,85.03 11.1,85.07 10.79,85.21 8.43,85.48 7.82,85.78 7.88,85.73 6.68,85.83 4.65,86.19 5,86.01 4.15,86.43 2.28,86.23 2.08,86.57 2.19,86.3 -0.35,86.38 -1.26,86.6 -2.38,86.23 -1.9,86.29 -3.61,86.28 -4.62,86.09 -4.28,86.02 -6.22,86.18 -7.73,85.67 -9.41,85.27 -9.62,85.39 -11.02,85.1 -11.4,84.9 -11.14,85.09 -12.41,84.71 -14.32,83.8 -14.68,83.96 -17.06,82.8 -16.16,83.48 -18.08,82.26 -17.91,82.58 -19.05,81.86 -21.31,80.56 -22.19,80.05 -21.94,80.47 -22.48,80.38 -22.82,79.78 -24.41,79.13 -24.66,78.99 -26.6,77.4 -26.79,77.45 -28.11,76.16 -29.33,75.42 -28.61,75.97 -30.88,74.08 -31.95,73.15 -31.75,73.15 -32.51,72.61 -33.25,71.81 -35.51,69.71 -35.42,69.81 -35.81,69.31 -37.13,67.68 -36.15,68.77 -37.7,67.13 -39.12,65.33 -40.59,63.48 -39.96,64.06 -41.5,62.66 -42.13,61.37 -42.58,60.74 -42.93,60.57 -43.97,58.62 -45.03,57.07 -45.46,56.25 -44.43,57.76 -45.78,55.64 -47.1,53.41 -46.96,53.76 -48.4,50.95 -48.6,50.48 -49.31,48.81 -49.36,48.58 -50.06,47.09 -50.16,46.9 -51.02,45.27 -51.45,43.89 -51.72,43.28 -52.57,41.22 -52.82,40.17 -53.15,39.77 -54.02,37.19 -54.2,36.06 -54.44,35.38 -54.95,33.71 -55.2,33.37 -55.73,31.86 -56.45,29.08 -56.21,29.92 -56.75,28.01 -56.77,27.26 -57.28,24.86 -57.2,25.23 -57.39,23.99 -58.01,21.1 -58.36,19.09 -58.34,19.38 -58.71,16.98 -58.77,16.69 -58.95,14.04 -59.07,13.83 -59.39,11.52 -59.31,10.9 -59.49,8.23 -59.53,8.08 -59.77,5.82 -59.63,5.44 -59.77,5.97 -59.7,2.91 -59.9,2.48 -59.79,-0.01 -59.76,-0.45 -59.71,-1.69 -59.88,-2.93 -59.88,-4.12 -59.75,-5.9 -59.6,-8.8 -59.48,-10.87 -59.45,-10.32 -59.36,-11.63 -58.99,-13.99 -59.12,-13.33 -58.77,-16.72 -58.63,-16.91 -58.46,-18.93 -58.12,-21.12 -57.81,-21.29 -57.35,-24.21 -57.22,-25.13 -57.05,-25.5 -57.01,-26.55 -56.93,-26.68 -56.07,-29.9 -55.98,-30.88 -55.45,-31.98 -55.36,-32.72 -55.04,-34.1 -54.36,-35.56 -54.03,-37.18 -53.22,-39.32 -53.37,-38.69 -52.18,-41.89 -52.57,-40.9 -51.65,-44.09 -51.22,-44.62 -50.27,-47.02 -50.87,-45.51 -49.57,-48.68 -49.81,-48.27 -49.23,-48.74 -48.3,-50.87 -48.41,-50.92 -46.7,-54.06 -46.69,-54.1 -45.8,-55.43 -46.1,-55.19 -44.64,-57.24 -43.82,-59.03 -44.31,-57.7 -43.12,-59.86 -42.64,-60.63 -41.17,-62.7 -41.34,-62.25 -39.66,-64.94 -40.23,-64.01 -38.95,-65.83 -37.98,-66.76 -37.11,-67.8 -36.34,-68.62 -34.84,-69.94 -34.62,-70.32 -34.19,-70.88 -32.77,-72.26 -32.61,-72.21 -31.22,-73.41 -30.93,-73.9 -30.36,-74.55 -28.47,-76.14 -29.4,-75.15 -28.79,-75.71 -27.27,-76.87 -26.63,-77.5 -24.77,-78.81 -24.53,-78.94 -23.71,-79.11 -23.65,-79.24 -21.85,-80.29 -20.83,-80.81 -19.85,-81.25 -19.22,-81.75 -19.37,-81.81 -17.34,-82.83 -16.21,-82.92 -15.19,-83.52 -14.81,-83.7 -13.63,-84.2 -14.22,-83.97 -12.4,-84.58 -10.37,-85.08 -9.83,-85.26 -9.1,-85.39 -8.57,-85.4 -8.32,-85.31 -6.37,-86.08 -6.67,-85.98 -5.42,-86.25 -3.19,-86.25 -2.65,-86.39 -1.25,-86.54 -0.59,-86.59 0.36,-86.54 1.09,-86.39 2.46,-86.24 3.12,-86.29 4.75,-85.95 4.49,-85.96 3.74,-86.32 7.32,-85.7 8.34,-85.62 7.44,-85.8 10.35,-84.97 9.9,-85.31 11.35,-84.81 12.01,-84.43 11.7,-84.54 13.42,-83.99 15,-83.82 16.31,-83.06 16.28,-82.94 17.04,-82.88 18.12,-82.22 19.67,-81.78 19.92,-81.39 21.05,-81.09 21.48,-80.29 23.26,-79.48 24.68,-78.72 25.63,-78.23 26.26,-77.56 26.79,-77.29 27.93,-76.18 27.85,-76.3 28.03,-76.34 28.5,-75.94 31.09,-73.73 30.7,-74.28 31.81,-73.28 33.09,-71.9 34.55,-70.26 33.84,-71.19 35.6,-69.53 36.37,-68.65 37.22,-67.68 37.87,-66.82 37.08,-67.74 38.39,-66.39 38.92,-65.5 40.92,-62.78 40.66,-63.39 41.5,-62.13 43.27,-59.67 42.18,-61.23 44.02,-58.51 44.1,-58.49 45.27,-56.63 46.03,-55.25 45.57,-55.91 46.44,-54.35 47.59,-52.12 47.73,-52.13 48.6,-50.1 48.32,-50.63 49.41,-48.83 50.16,-47.06 50.14,-46.76 50.78,-45.62 51.34,-44.43 52.69,-41.19 52.5,-41.8 52.72,-40.75 53.41,-39.31 53.52,-38.33 54.08,-36.59 54.93,-34.43 54.64,-35.16 55.01,-33.66 55.67,-32.09 56.2,-30.27 56.5,-28.69 56.3,-29.32 56.85,-26.88 57.05,-25.74 57.13,-26.35 57.82,-22.08 58.04,-20.63 57.81,-22.32 58.31,-18.52 58.66,-17.33 58.78,-16.61 58.97,-15.41 59.16,-13.25 59.1,-12.94 59.28,-11.33 59.58,-9.28 59.44,-9.43 59.59,-6.23 59.72,-4.06 59.83,-2.92 59.81,-1.22 59.86,-0.05 59.86,1.56 59.91,1.23" fill="rgb(255, 215, 0)" stroke="black" stroke-width="1.6666666666666665" stroke-linejoin="round" filter="url(#fuzzy)" />
    <g transform="translate(40.78 -24.919999999999998)">
      <polyline id="rightCountour" points="-22.34,-6.4 -22.24,-6.47 -22.13,-6.54 -21.99,-6.6 -21.83,-6.65 -21.66,-6.71 -21.46,-6.76 -21.24,-6.81 -21,-6.86 -20.74,-6.91 -20.45,-6.95 -20.14,-6.99 -19.81,-7.03 -19.45,-7.07 -19.07,-7.1 -18.67,-7.14 -18.36,-7.17 -18,-7.2 -17.6,-7.23 -17.17,-7.26 -16.69,-7.29 -16.17,-7.32 -15.61,-7.34 -15.01,-7.37 -14.37,-7.39 -13.7,-7.42 -13,-7.44 -12.26,-7.46 -11.49,-7.48 -10.69,-7.49 -9.87,-7.51 -9.02,-7.53 -8.15,-7.54 -7.26,-7.56 -6.34,-7.57 -5.42,-7.58 -4.48,-7.59 -3.52,-7.6 -2.56,-7.61 -1.59,-7.61 -0.62,-7.62 0.36,-7.62 1.34,-7.62 2.32,-7.63 3.29,-7.63 4.26,-7.63 5.23,-7.63 6.18,-7.62 7.13,-7.62 8.06,-7.61 8.98,-7.61 9.89,-7.6 10.78,-7.59 11.65,-7.58 12.51,-7.57 13.35,-7.56 14.17,-7.55 14.97,-7.54 15.75,-7.53 16.51,-7.51 17.25,-7.5 17.97,-7.48 18.67,-7.47 19.34,-7.45 20,-7.43 20.63,-7.42 21.25,-7.4 21.85,-7.38 22.43,-7.36 22.99,-7.34 23.54,-7.32 24.06,-7.3 24.57,-7.28 25.06,-7.26 25.54,-7.24 25.99,-7.21 26.43,-7.19 26.85,-7.17 27.25,-7.15 27.64,-7.12 24.7,-3.91 24.17,-3.72 23.64,-3.52 23.09,-3.31 22.53,-3.1 21.97,-2.88 21.4,-2.65 20.82,-2.42 20.23,-2.17 19.63,-1.93 19.03,-1.67 18.42,-1.41 17.81,-1.14 17.19,-0.86 16.57,-0.58 15.95,-0.29 15.31,0.01 14.67,0.31 14.02,0.62 13.37,0.94 12.71,1.26 12.05,1.59 11.39,1.93 10.72,2.27 10.06,2.61 9.4,2.96 8.74,3.32 8.08,3.67 7.43,4.03 6.78,4.38 6.13,4.73 5.49,5.08 4.86,5.43 4.23,5.77 3.61,6.11 3,6.43 2.39,6.75 1.79,7.05 1.2,7.34 0.62,7.62 0.04,7.88 -0.53,8.12 -1.09,8.34 -1.65,8.54 -2.19,8.72 -2.74,8.87 -3.27,8.99 -3.81,9.09 -4.33,9.16 -4.85,9.2 -5.37,9.2 -5.89,9.18 -6.4,9.11 -6.92,9.02 -7.43,8.88 -7.94,8.71 -8.45,8.51 -8.96,8.26 -9.48,7.98 -9.99,7.66 -10.51,7.31 -11.03,6.91 -11.55,6.49 -12.08,6.02 -12.6,5.53 -13.02,5.25 -13.44,4.94 -13.86,4.63 -14.27,4.3 -14.68,3.96 -15.08,3.6 -15.48,3.24 -15.88,2.87 -16.27,2.49 -16.65,2.1 -17.03,1.71 -17.39,1.32 -17.75,0.93 -18.1,0.54 -18.44,0.15" fill="white" stroke="white" stroke-width="0" stroke-linejoin="round" filter="url(#fuzzy)" />
    </g>
    <g transform="translate(-32.92 -23.95)">
      <polyline id="leftCountour" points="23.72,-5.83 23.64,-5.88 23.54,-5.92 23.42,-5.97 23.29,-6.01 23.13,-6.05 22.96,-6.09 22.77,-6.13 22.55,-6.17 22.31,-6.2 22.06,-6.24 21.78,-6.27 21.48,-6.31 21.15,-6.34 20.81,-6.37 20.44,-6.4 20.16,-6.43 19.85,-6.46 19.49,-6.49 19.09,-6.52 18.65,-6.55 18.18,-6.58 17.66,-6.61 17.11,-6.64 16.52,-6.67 15.89,-6.7 15.23,-6.72 14.53,-6.75 13.81,-6.77 13.05,-6.8 12.26,-6.82 11.45,-6.84 10.62,-6.86 9.76,-6.88 8.88,-6.9 7.99,-6.91 7.07,-6.93 6.14,-6.94 5.21,-6.95 4.26,-6.97 3.3,-6.97 2.33,-6.98 1.37,-6.99 0.4,-6.99 -0.57,-6.99 -1.54,-7 -2.51,-6.99 -3.47,-6.99 -4.42,-6.99 -5.36,-6.98 -6.3,-6.97 -7.22,-6.97 -8.13,-6.96 -9.03,-6.94 -9.91,-6.93 -10.78,-6.92 -11.63,-6.9 -12.47,-6.88 -13.28,-6.86 -14.08,-6.84 -14.86,-6.82 -15.62,-6.8 -16.36,-6.78 -17.09,-6.76 -17.79,-6.73 -18.47,-6.71 -19.14,-6.68 -19.79,-6.66 -20.42,-6.63 -21.04,-6.6 -21.64,-6.57 -22.22,-6.55 -22.79,-6.52 -23.34,-6.49 -23.87,-6.46 -24.39,-6.43 -24.89,-6.39 -25.37,-6.36 -25.84,-6.33 -26.29,-6.3 -25.94,-2.42 -25.53,-2.22 -25.12,-2.01 -24.69,-1.8 -24.25,-1.59 -23.81,-1.37 -23.35,-1.14 -22.88,-0.91 -22.4,-0.68 -21.91,-0.44 -21.41,-0.2 -20.9,0.04 -20.39,0.29 -19.86,0.54 -19.32,0.8 -18.78,1.05 -18.22,1.31 -17.65,1.58 -17.07,1.85 -16.48,2.12 -15.88,2.39 -15.27,2.67 -14.65,2.94 -14.03,3.22 -13.39,3.49 -12.75,3.77 -12.1,4.04 -11.44,4.31 -10.78,4.58 -10.12,4.84 -9.45,5.09 -8.77,5.34 -8.09,5.58 -7.41,5.82 -6.73,6.04 -6.05,6.25 -5.36,6.45 -4.67,6.64 -3.99,6.82 -3.3,6.97 -2.61,7.12 -1.93,7.24 -1.24,7.35 -0.56,7.44 0.12,7.51 0.8,7.56 1.47,7.58 2.14,7.59 2.81,7.57 3.48,7.53 4.13,7.46 4.79,7.37 5.44,7.25 6.09,7.11 6.73,6.94 7.36,6.75 7.99,6.53 8.62,6.29 9.23,6.02 9.84,5.73 10.45,5.41 11.05,5.07 11.64,4.7 12.22,4.32 12.79,3.92 13.29,3.66 13.79,3.39 14.27,3.11 14.75,2.82 15.22,2.53 15.68,2.23 16.13,1.93 16.57,1.62 17,1.3 17.42,0.99 17.83,0.67 18.23,0.35 18.61,0.04 18.98,-0.27 19.34,-0.58" fill="white" stroke="white" stroke-width="0" stroke-linejoin="round" filter="url(#fuzzy)" />
    </g>
    <g transform="translate(40.78 -24.919999999999998)">
      <polyline id="rightUpper" points="-22.53,-5.51 -22.56,-5.62 -22.58,-5.73 -22.59,-5.83 -22.59,-5.92 -22.58,-6.01 -22.56,-6.1 -22.53,-6.18 -22.48,-6.26 -22.42,-6.33 -22.34,-6.4 -22.24,-6.47 -22.13,-6.54 -21.99,-6.6 -21.83,-6.65 -21.66,-6.71 -21.46,-6.76 -21.24,-6.81 -21,-6.86 -20.74,-6.91 -20.45,-6.95 -20.14,-6.99 -19.81,-7.03 -19.45,-7.07 -19.07,-7.1 -18.67,-7.14 -18.36,-7.17 -18,-7.2 -17.6,-7.23 -17.17,-7.26 -16.69,-7.29 -16.17,-7.32 -15.61,-7.34 -15.01,-7.37 -14.37,-7.39 -13.7,-7.42 -13,-7.44 -12.26,-7.46 -11.49,-7.48 -10.69,-7.49 -9.87,-7.51 -9.02,-7.53 -8.15,-7.54 -7.26,-7.56 -6.34,-7.57 -5.42,-7.58 -4.48,-7.59 -3.52,-7.6 -2.56,-7.61 -1.59,-7.61 -0.62,-7.62 0.36,-7.62 1.34,-7.62 2.32,-7.63 3.29,-7.63 4.26,-7.63 5.23,-7.63 6.18,-7.62 7.13,-7.62 8.06,-7.61 8.98,-7.61 9.89,-7.6 10.78,-7.59 11.65,-7.58 12.51,-7.57 13.35,-7.56 14.17,-7.55 14.97,-7.54 15.75,-7.53 16.51,-7.51 17.25,-7.5 17.97,-7.48 18.67,-7.47 19.34,-7.45 20,-7.43 20.63,-7.42 21.25,-7.4 21.85,-7.38 22.43,-7.36 22.99,-7.34 23.54,-7.32 24.06,-7.3 24.57,-7.28 25.06,-7.26 25.54,-7.24 25.99,-7.21 26.43,-7.19 26.85,-7.17 27.25,-7.15 27.64,-7.12 28.01,-7.1 28.37,-7.07 28.7,-7.05 29.03,-7.03 29.34,-7 29.63,-6.98 29.91,-6.95 30.18,-6.93 30.43,-6.9 30.67,-6.88" fill="none" stroke="black" stroke-width="1.6666666666666665" stroke-linejoin="round" filter="url(#fuzzy)" />
      <polyline id="rightLower" points="-20.99,-2.91 -20.82,-2.71 -20.64,-2.49 -20.43,-2.23 -20.19,-1.94 -19.94,-1.64 -19.67,-1.31 -19.39,-0.96 -19.08,-0.6 -18.77,-0.23 -18.44,0.15 -18.1,0.54 -17.75,0.93 -17.39,1.32 -17.03,1.71 -16.65,2.1 -16.27,2.49 -15.88,2.87 -15.48,3.24 -15.08,3.6 -14.68,3.96 -14.27,4.3 -13.86,4.63 -13.44,4.94 -13.02,5.25 -12.6,5.53 -12.08,6.02 -11.55,6.49 -11.03,6.91 -10.51,7.31 -9.99,7.66 -9.48,7.98 -8.96,8.26 -8.45,8.51 -7.94,8.71 -7.43,8.88 -6.92,9.02 -6.4,9.11 -5.89,9.18 -5.37,9.2 -4.85,9.2 -4.33,9.16 -3.81,9.09 -3.27,8.99 -2.74,8.87 -2.19,8.72 -1.65,8.54 -1.09,8.34 -0.53,8.12 0.04,7.88 0.62,7.62 1.2,7.34 1.79,7.05 2.39,6.75 3,6.43 3.61,6.11 4.23,5.77 4.86,5.43 5.49,5.08 6.13,4.73 6.78,4.38 7.43,4.03 8.08,3.67 8.74,3.32 9.4,2.96 10.06,2.61 10.72,2.27 11.39,1.93 12.05,1.59 12.71,1.26 13.37,0.94 14.02,0.62 14.67,0.31 15.31,0.01 15.95,-0.29 16.57,-0.58 17.19,-0.86 17.81,-1.14 18.42,-1.41 19.03,-1.67 19.63,-1.93 20.23,-2.17 20.82,-2.42 21.4,-2.65 21.97,-2.88 22.53,-3.1 23.09,-3.31 23.64,-3.52 24.17,-3.72 24.7,-3.91 25.22,-4.1 25.73,-4.28 26.22,-4.45 26.71,-4.62 27.18,-4.78 27.64,-4.93 28.09,-5.08 28.53,-5.23 28.96,-5.37 29.38,-5.5" fill="none" stroke="black" stroke-width="2.2222222222222223" stroke-linejoin="round" filter="url(#fuzzy)" />
      <circle r="3.414" cx="-10.304593421607297" cy="-0.04257707212259998" stroke="black" fill="none" stroke-width="1.0" filter="url(#fuzzy)" clip-path="url(#rightEyeClipPath)" /><circle r="3.584" cx="-9.354593421607298" cy="-0.5275770721225999" stroke="black" fill="none" stroke-width="1.0" filter="url(#fuzzy)" clip-path="url(#rightEyeClipPath)" /><circle r="3.8120000000000003" cx="-9.184593421607296" cy="0.8974229278774" stroke="black" fill="none" stroke-width="1.0" filter="url(#fuzzy)" clip-path="url(#rightEyeClipPath)" /><circle r="3.9699999999999998" cx="-12.644593421607297" cy="-3.3125770721225996" stroke="black" fill="none" stroke-width="1.0" filter="url(#fuzzy)" clip-path="url(#rightEyeClipPath)" /><circle r="3.066" cx="-10.359593421607297" cy="1.1874229278774" stroke="black" fill="none" stroke-width="1.0" filter="url(#fuzzy)" clip-path="url(#rightEyeClipPath)" /><circle r="4.042" cx="-9.449593421607297" cy="-0.8775770721225995" stroke="black" fill="none" stroke-width="1.0" filter="url(#fuzzy)" clip-path="url(#rightEyeClipPath)" /><circle r="3.184" cx="-9.539593421607297" cy="-2.0375770721225996" stroke="black" fill="none" stroke-width="1.0" filter="url(#fuzzy)" clip-path="url(#rightEyeClipPath)" /><circle r="4.0920000000000005" cx="-9.204593421607296" cy="-3.3975770721225995" stroke="black" fill="none" stroke-width="1.0" filter="url(#fuzzy)" clip-path="url(#rightEyeClipPath)" /><circle r="4.364" cx="-10.594593421607296" cy="1.0524229278774002" stroke="black" fill="none" stroke-width="1.0" filter="url(#fuzzy)" clip-path="url(#rightEyeClipPath)" /><circle r="4.434" cx="-11.999593421607297" cy="-2.6325770721226" stroke="black" fill="none" stroke-width="1.0" filter="url(#fuzzy)" clip-path="url(#rightEyeClipPath)" />
      </g>
    <g transform="translate(-32.92 -23.95)">
      <polyline id="leftUpper" points="23.9,-5.27 23.92,-5.34 23.93,-5.4 23.94,-5.46 23.94,-5.52 23.93,-5.58 23.91,-5.63 23.89,-5.69 23.85,-5.74 23.79,-5.79 23.72,-5.83 23.64,-5.88 23.54,-5.92 23.42,-5.97 23.29,-6.01 23.13,-6.05 22.96,-6.09 22.77,-6.13 22.55,-6.17 22.31,-6.2 22.06,-6.24 21.78,-6.27 21.48,-6.31 21.15,-6.34 20.81,-6.37 20.44,-6.4 20.16,-6.43 19.85,-6.46 19.49,-6.49 19.09,-6.52 18.65,-6.55 18.18,-6.58 17.66,-6.61 17.11,-6.64 16.52,-6.67 15.89,-6.7 15.23,-6.72 14.53,-6.75 13.81,-6.77 13.05,-6.8 12.26,-6.82 11.45,-6.84 10.62,-6.86 9.76,-6.88 8.88,-6.9 7.99,-6.91 7.07,-6.93 6.14,-6.94 5.21,-6.95 4.26,-6.97 3.3,-6.97 2.33,-6.98 1.37,-6.99 0.4,-6.99 -0.57,-6.99 -1.54,-7 -2.51,-6.99 -3.47,-6.99 -4.42,-6.99 -5.36,-6.98 -6.3,-6.97 -7.22,-6.97 -8.13,-6.96 -9.03,-6.94 -9.91,-6.93 -10.78,-6.92 -11.63,-6.9 -12.47,-6.88 -13.28,-6.86 -14.08,-6.84 -14.86,-6.82 -15.62,-6.8 -16.36,-6.78 -17.09,-6.76 -17.79,-6.73 -18.47,-6.71 -19.14,-6.68 -19.79,-6.66 -20.42,-6.63 -21.04,-6.6 -21.64,-6.57 -22.22,-6.55 -22.79,-6.52 -23.34,-6.49 -23.87,-6.46 -24.39,-6.43 -24.89,-6.39 -25.37,-6.36 -25.84,-6.33 -26.29,-6.3 -26.73,-6.27 -27.15,-6.23 -27.55,-6.2 -27.95,-6.17 -28.32,-6.13 -28.68,-6.1 -29.03,-6.06 -29.36,-6.03 -29.68,-6 -29.99,-5.96" fill="none" stroke="black" stroke-width="2.2222222222222223" stroke-linejoin="round" filter="url(#fuzzy)" />
      <polyline id="leftLower" points="21.95,-2.96 21.78,-2.81 21.59,-2.63 21.37,-2.43 21.14,-2.21 20.88,-1.97 20.61,-1.72 20.32,-1.45 20.01,-1.17 19.68,-0.88 19.34,-0.58 18.98,-0.27 18.61,0.04 18.23,0.35 17.83,0.67 17.42,0.99 17,1.3 16.57,1.62 16.13,1.93 15.68,2.23 15.22,2.53 14.75,2.82 14.27,3.11 13.79,3.39 13.29,3.66 12.79,3.92 12.22,4.32 11.64,4.7 11.05,5.07 10.45,5.41 9.84,5.73 9.23,6.02 8.62,6.29 7.99,6.53 7.36,6.75 6.73,6.94 6.09,7.11 5.44,7.25 4.79,7.37 4.13,7.46 3.48,7.53 2.81,7.57 2.14,7.59 1.47,7.58 0.8,7.56 0.12,7.51 -0.56,7.44 -1.24,7.35 -1.93,7.24 -2.61,7.12 -3.3,6.97 -3.99,6.82 -4.67,6.64 -5.36,6.45 -6.05,6.25 -6.73,6.04 -7.41,5.82 -8.09,5.58 -8.77,5.34 -9.45,5.09 -10.12,4.84 -10.78,4.58 -11.44,4.31 -12.1,4.04 -12.75,3.77 -13.39,3.49 -14.03,3.22 -14.65,2.94 -15.27,2.67 -15.88,2.39 -16.48,2.12 -17.07,1.85 -17.65,1.58 -18.22,1.31 -18.78,1.05 -19.32,0.8 -19.86,0.54 -20.39,0.29 -20.9,0.04 -21.41,-0.2 -21.91,-0.44 -22.4,-0.68 -22.88,-0.91 -23.35,-1.14 -23.81,-1.37 -24.25,-1.59 -24.69,-1.8 -25.12,-2.01 -25.53,-2.22 -25.94,-2.42 -26.33,-2.62 -26.71,-2.81 -27.08,-3 -27.44,-3.18 -27.79,-3.36 -28.12,-3.53 -28.45,-3.7 -28.76,-3.86 -29.07,-4.02 -29.36,-4.18" fill="none" stroke="black" stroke-width="2.2222222222222223" stroke-linejoin="round" filter="url(#fuzzy)" />
      <circle r="4.172" cx="7.450739077830729" cy="5.195784147799106" stroke="black" fill="none" stroke-width="1.0" filter="url(#fuzzy)" clip-path="url(#leftEyeClipPath)" /><circle r="3.088" cx="8.680739077830728" cy="5.705784147799106" stroke="black" fill="none" stroke-width="1.0" filter="url(#fuzzy)" clip-path="url(#leftEyeClipPath)" /><circle r="4.396" cx="6.175739077830727" cy="3.5857841477991057" stroke="black" fill="none" stroke-width="1.0" filter="url(#fuzzy)" clip-path="url(#leftEyeClipPath)" /><circle r="3.052" cx="8.520739077830727" cy="5.185784147799106" stroke="black" fill="none" stroke-width="1.0" filter="url(#fuzzy)" clip-path="url(#leftEyeClipPath)" /><circle r="3.398" cx="5.485739077830727" cy="3.9807841477991053" stroke="black" fill="none" stroke-width="1.0" filter="url(#fuzzy)" clip-path="url(#leftEyeClipPath)" /><circle r="4.702" cx="8.030739077830727" cy="4.6807841477991055" stroke="black" fill="none" stroke-width="1.0" filter="url(#fuzzy)" clip-path="url(#leftEyeClipPath)" /><circle r="4.268" cx="7.230739077830727" cy="3.235784147799105" stroke="black" fill="none" stroke-width="1.0" filter="url(#fuzzy)" clip-path="url(#leftEyeClipPath)" /><circle r="3.182" cx="8.480739077830727" cy="2.0907841477991056" stroke="black" fill="none" stroke-width="1.0" filter="url(#fuzzy)" clip-path="url(#leftEyeClipPath)" /><circle r="4.558" cx="5.890739077830727" cy="6.610784147799105" stroke="black" fill="none" stroke-width="1.0" filter="url(#fuzzy)" clip-path="url(#leftEyeClipPath)" /><circle r="4.758" cx="7.030739077830727" cy="3.700784147799105" stroke="black" fill="none" stroke-width="1.0" filter="url(#fuzzy)" clip-path="url(#leftEyeClipPath)" />
    </g>
    <g id="hairs">
      <polyline points="28.5,-75.94 5.11,-79.69 5.68,-76.94 12.41,-72.37 15.47,-68.73 11.92,-67.37 3.41,-68.22 -6.41,-70.27 -14.44,-72.36 -19.53,-73.68 -21.98,-73.89 -22.32,-73 -20.47,-71.11 -15.86,-68.42 -8.15,-65.64 1.91,-64.35 12.6,-65.94 22.34,-70.08 21.05,-81.09" fill="none" stroke="rgb(149, 69, 53)" stroke-width="2" stroke-linejoin="round" filter="url(#fuzzy)" /><polyline points="11.7,-84.54 11.6,-83.25 9.17,-81.28 9.69,-78.84 14.83,-75.09 21.02,-70.45 24.56,-66.33 24.48,-63.96 22.3,-63.58 20.14,-64.64 19.15,-66.34 19.2,-68.02 19.69,-69.02 20.02,-68.89 17.94,-69.16 6.82,-74.87 -16.21,-82.92" fill="none" stroke="rgb(149, 69, 53)" stroke-width="2" stroke-linejoin="round" filter="url(#fuzzy)" /><polyline points="1.09,-86.39 -8.64,-77.6 3.27,-77.12 14.15,-77.51 20.22,-77.56 23.17,-76.8 25.32,-74.73 27.62,-71.5 29.59,-68.05 30.24,-65.6 29.04,-64.79 26.25,-65.39 22.52,-66.56 18.28,-67.35 13.4,-67.15 7.17,-65.83 -1.19,-63.78 -11.14,-61.89 -18.55,-61.16 -14.56,-61.75 10.18,-60.39 53.41,-39.31" fill="none" stroke="rgb(149, 69, 53)" stroke-width="2" stroke-linejoin="round" filter="url(#fuzzy)" /><polyline points="30.7,-74.28 14.7,-74.1 16.74,-70 12.69,-69.62 5.24,-72.07 0.16,-74.94 -0.36,-76.85 2.71,-77.56 7.23,-77.4 11.29,-76.89 14.04,-76.39 15.52,-76.11 16.08,-75.97 15.63,-75.77 13.33,-75.3 8.18,-74.62 0.2,-74.15 -8.27,-74.54 -12.76,-76.25 -10,-78.9 -4.67,-81.04 -19.37,-81.81" fill="none" stroke="rgb(149, 69, 53)" stroke-width="2" stroke-linejoin="round" filter="url(#fuzzy)" /><polyline points="-43.12,-59.86 12.17,-56.56 28.86,-54.35 27.8,-57.44 21.83,-62.21 15.07,-66.55 8.21,-69.8 2.04,-71.82 -2.11,-72.75 -3.36,-72.95 -2.02,-72.91 0.51,-73.09 2.41,-73.72 2.65,-74.73 1.72,-75.82 1.58,-76.59 4.21,-76.72 9.67,-76.03 15.56,-74.29 19.41,-70.74 24.49,-62.24 54.93,-34.43" fill="none" stroke="rgb(149, 69, 53)" stroke-width="2" stroke-linejoin="round" filter="url(#fuzzy)" /><polyline points="-14.81,-83.7 -2.83,-83.49 5.16,-79.66 9.23,-75.98 11.09,-73.11 13.31,-71.01 16.16,-69.94 18.33,-70.11 18.8,-71.31 17.82,-73.06 16.58,-74.81 16.13,-76.21 16.68,-77.19 17.57,-77.84 17.82,-78.24 16.91,-78.29 15.23,-77.54 14.5,-75.06 17.83,-69.2 28.64,-57.75 46.06,-40.13 56.85,-26.88" fill="none" stroke="rgb(149, 69, 53)" stroke-width="2" stroke-linejoin="round" filter="url(#fuzzy)" /><polyline points="27.93,-76.18 4.93,-77.77 6.97,-72.25 10.96,-68.02 10.28,-66.32 6.18,-65.67 1.01,-65.68 -3.14,-66.56 -4.42,-67.91 -1.66,-68.58 4.89,-67.66 13.18,-65.46 19.59,-63.79 20.01,-64.81 12.1,-68.64 -1.83,-72.07 -11.59,-72.99 9.9,-85.31" fill="none" stroke="rgb(149, 69, 53)" stroke-width="2" stroke-linejoin="round" filter="url(#fuzzy)" /><polyline points="-41.17,-62.7 -35.54,-67.72 -27.18,-73.35 -21.81,-77.1 -20.59,-78.36 -21.34,-77.72 -21.17,-75.84 -17.46,-73.14 -8.76,-70 3.91,-66.97 16.46,-65.11 23.46,-65.82 22.09,-69.87 16.12,-75.88 15.65,-79.96 24.68,-78.72" fill="none" stroke="rgb(149, 69, 53)" stroke-width="2" stroke-linejoin="round" filter="url(#fuzzy)" /><polyline points="53.41,-39.31 23.34,-57.32 10.13,-62.23 10.04,-66.8 13.98,-70.35 18.65,-71.32 22.75,-70.55 24.99,-70.07 24.52,-71.17 21.57,-73.72 17.52,-76.58 14.14,-78.5 12.79,-78.7 13.77,-77.1 16.17,-74.29 18.28,-71.4 18.34,-69.86 15.28,-70.95 9.23,-75.09 2.58,-80.86 0.41,-85.14 3.74,-86.32" fill="none" stroke="rgb(149, 69, 53)" stroke-width="2" stroke-linejoin="round" filter="url(#fuzzy)" /><polyline points="18.12,-82.22 20.95,-63.67 11.99,-63.38 15.47,-61.01 25.41,-55.73 32.98,-51.61 34.34,-51.25 30.27,-54.36 23.4,-58.89 15.81,-62.77 8.52,-64.99 2.47,-65.51 -0.65,-64.83 0.61,-63.83 5.09,-63.93 8.76,-66.5 9.84,-71.27 15.71,-75.29 31.09,-73.73" fill="none" stroke="rgb(149, 69, 53)" stroke-width="2" stroke-linejoin="round" filter="url(#fuzzy)" /><polyline points="36.37,-68.65 0.52,-71.63 -1.49,-75.07 4.83,-74.86 12.15,-72.21 17.46,-69.19 19.45,-67.42 18.38,-67.43 15.78,-68.61 12.91,-69.97 9.85,-70.94 6.64,-71.16 5.52,-69.61 11.74,-64.64 29.61,-56.94 45.57,-55.91" fill="none" stroke="rgb(149, 69, 53)" stroke-width="2" stroke-linejoin="round" filter="url(#fuzzy)" /><polyline points="-37.98,-66.76 4.25,-69.46 15.22,-68.92 16.53,-66.21 15.3,-65.17 13.93,-67.2 13.23,-71.14 13.53,-74.83 14.36,-76.71 14.31,-76.52 11.97,-74.87 7.51,-72.56 3.3,-70.14 2.29,-68.21 5.14,-67.66 10.27,-68.41 21.5,-64.44 54.08,-36.59" fill="none" stroke="rgb(149, 69, 53)" stroke-width="2" stroke-linejoin="round" filter="url(#fuzzy)" /><polyline points="10.35,-84.97 12.18,-73.05 23.91,-64.62 27.73,-65.46 25.6,-69.02 21.18,-71.39 16.8,-72.17 14.06,-72.17 13.38,-72.17 13.34,-72.91 11.52,-74.98 6.71,-78.15 -0.19,-80.96 -8.22,-81.6 -17.71,-79.97 -21.85,-80.29" fill="none" stroke="rgb(149, 69, 53)" stroke-width="2" stroke-linejoin="round" filter="url(#fuzzy)" /><polyline points="48.6,-50.1 31.45,-66.97 28.6,-68.53 22.81,-67.11 12.71,-66.4 2.52,-67.08 -4.13,-68.69 -6.39,-70.65 -5.26,-72.41 -2.12,-73.4 2.19,-73.06 7.31,-71.01 12.93,-67.37 18.35,-62.93 22.27,-59.08 23.17,-57.4 20.27,-58.88 14.7,-63.18 9.62,-68.48 8.2,-72.37 10.01,-73.59 8.97,-73.64 -1.41,-77.2 -6.67,-85.98" fill="none" stroke="rgb(149, 69, 53)" stroke-width="2" stroke-linejoin="round" filter="url(#fuzzy)" /><polyline points="36.37,-68.65 37.27,-63.67 28.93,-68.07 21.77,-71.43 16.35,-72.89 12.3,-73.34 10.4,-73.18 10.7,-72.55 11.81,-71.71 12.01,-71.03 10.63,-70.74 8.31,-70.87 6.35,-71.29 5.82,-71.79 6.93,-71.92 8.8,-71.11 9.93,-69.08 8.82,-66.56 4.46,-65.73 -3.01,-69.23 -7.84,-76.78 11.7,-84.54" fill="none" stroke="rgb(149, 69, 53)" stroke-width="2" stroke-linejoin="round" filter="url(#fuzzy)" /><polyline points="28.5,-75.94 18.79,-73.37 21.37,-69.57 23.68,-68.67 25.11,-67.47 23.73,-66.35 18.33,-66.81 10.01,-68.97 1.33,-71.48 -5.18,-72.82 -7.68,-72.07 -5.12,-69.12 2.41,-64.31 13.06,-58.38 23.08,-52.7 28.29,-49.26 26.84,-49.84 21.05,-54.47 14.52,-60.48 1.05,-63.2 -46.69,-54.1" fill="none" stroke="rgb(149, 69, 53)" stroke-width="2" stroke-linejoin="round" filter="url(#fuzzy)" /><polyline points="35.6,-69.53 9.22,-62.49 15.51,-54.78 18.42,-51.37 17.28,-53.37 15.51,-59.43 13.72,-67.11 11.28,-74.07 7.8,-78.92 3.64,-81.4 0.08,-81.79 -0.53,-80.16 4,-75.74 11.65,-67.31 8.57,-56.7 -42.64,-60.63" fill="none" stroke="rgb(149, 69, 53)" stroke-width="2" stroke-linejoin="round" filter="url(#fuzzy)" /><polyline points="7.44,-85.8 23.16,-61.32 20.56,-61.19 16.95,-61.92 13.11,-61.2 10.96,-59.84 11.44,-58.55 13.67,-57.85 16.49,-58.03 19.45,-58.95 22.5,-60.2 25.43,-61.27 27.62,-61.89 28.22,-62.11 26.54,-62.22 22.41,-62.57 16.47,-63.28 10.19,-64.26 5.54,-65.33 4.32,-66.39 7.18,-67.18 12.31,-67.11 15.05,-65.89 15.08,-63.99 45.27,-56.63" fill="none" stroke="rgb(149, 69, 53)" stroke-width="2" stroke-linejoin="round" filter="url(#fuzzy)" /><polyline points="-8.32,-85.31 -1.57,-80.99 9.08,-76.93 12.19,-74.04 10.15,-72.28 6.31,-71.78 2.84,-72.12 0.71,-72.36 -0.06,-71.88 0.15,-70.81 0.92,-69.96 2,-70.15 3.12,-71.63 3.87,-73.89 3.76,-76.04 2.58,-77.36 0.78,-77.54 -0.27,-76.65 1.33,-74.67 7.35,-71.24 18.55,-65.75 33.19,-58.47 45.11,-52.42 48.6,-50.1" fill="none" stroke="rgb(149, 69, 53)" stroke-width="2" stroke-linejoin="round" filter="url(#fuzzy)" /><polyline points="-20.83,-80.81 -12.89,-80.69 -8.95,-75.47 1.9,-69.54 12.3,-66.11 15.63,-66.24 11.79,-68.88 5.06,-72.17 -0.14,-74.53 -2.27,-75.08 -2.67,-73.53 -3.23,-70.07 -3.93,-65.56 -3.1,-62.03 1.91,-62.43 36.37,-68.65" fill="none" stroke="rgb(149, 69, 53)" stroke-width="2" stroke-linejoin="round" filter="url(#fuzzy)" /><polyline points="-31.22,-73.41 -17.83,-76.63 -11.17,-75.95 -6.6,-77.14 -6.19,-78.68 -8.37,-79.58 -10.54,-80.05 -11.31,-80.58 -10.72,-81.33 -9.36,-82.02 -7.58,-82.17 -5.25,-81.25 -2.07,-78.98 1.89,-75.5 5.84,-71.53 8.57,-68.11 9.45,-66.02 9.54,-65.01 11.59,-63.53 18.25,-59.68 28.93,-53.41 37.15,-48.62 30.65,-53.8 -8.32,-85.31" fill="none" stroke="rgb(149, 69, 53)" stroke-width="2" stroke-linejoin="round" filter="url(#fuzzy)" /><polyline points="44.02,-58.51 25.47,-67.35 27.01,-64.02 27.02,-62.53 26.01,-63.3 25.57,-65 25.13,-66.74 23.69,-67.85 20.64,-68.09 15.63,-68.05 8.83,-68.65 1.74,-70.12 -1.94,-71.47 3.83,-70.67 24.26,-64.38 50.16,-47.06" fill="none" stroke="rgb(149, 69, 53)" stroke-width="2" stroke-linejoin="round" filter="url(#fuzzy)" /><polyline points="31.09,-73.73 4.04,-80.73 -7.72,-82.3 -11.5,-81.15 -10.07,-78.17 -5.52,-74.17 -0.93,-69.85 1.93,-65.49 4.46,-61.11 9.49,-56.75 17.27,-52.97 23.7,-50.88 24.23,-51.69 21.21,-55.84 25.55,-62.46 31.81,-73.28" fill="none" stroke="rgb(149, 69, 53)" stroke-width="2" stroke-linejoin="round" filter="url(#fuzzy)" /><polyline points="18.12,-82.22 2.71,-80.36 0.5,-75.43 2.3,-69.98 3.62,-65.86 0.67,-64.41 -5.67,-65.74 -11.45,-68.55 -13.33,-70.82 -10.44,-70.82 -3.68,-68.18 5.48,-64.55 15,-63.06 21.72,-65.96 23.35,-71.24 24.96,-70.93 47.73,-52.13" fill="none" stroke="rgb(149, 69, 53)" stroke-width="2" stroke-linejoin="round" filter="url(#fuzzy)" /><polyline points="55.01,-33.66 42.46,-46.75 29.42,-54.88 19.8,-58.86 12.13,-63.17 5.51,-68.14 -0.27,-72.02 -4.55,-73.39 -6.55,-72.43 -6.38,-70.88 -5.5,-70.84 -5.5,-73.12 -6.26,-76.48 -4.88,-78.59 2.54,-78.2 14.99,-77.2 13.42,-83.99" fill="none" stroke="rgb(149, 69, 53)" stroke-width="2" stroke-linejoin="round" filter="url(#fuzzy)" /><polyline points="-44.31,-57.7 9.13,-52.01 14.75,-60.55 11.42,-67.77 7.77,-72.01 3.04,-73.62 -1.67,-72.96 -2.72,-70.64 2.11,-67.64 10.66,-65.15 17.35,-64.12 17.54,-64.4 12.69,-63.91 11.91,-60.1 23.6,-56.93 25.63,-78.23" fill="none" stroke="rgb(149, 69, 53)" stroke-width="2" stroke-linejoin="round" filter="url(#fuzzy)" /><polyline points="-17.34,-82.83 -0.11,-81.67 4.87,-75.93 4.88,-70.96 3.5,-69.19 2.83,-69.39 3.84,-69.68 7.39,-69.16 13.5,-67.93 20.11,-66.78 23.36,-66.85 19.79,-69.07 8.67,-73.09 -7.27,-76.34 -22.86,-75.8 -28.79,-75.71" fill="none" stroke="rgb(149, 69, 53)" stroke-width="2" stroke-linejoin="round" filter="url(#fuzzy)" /><polyline points="25.63,-78.23 25.05,-73.68 26.8,-69.44 23.11,-70.62 16.82,-73.55 10,-75.92 4.08,-76.87 0.55,-76.26 0.33,-74.47 2.96,-72.23 6.52,-70.35 8.66,-69.44 7.78,-69.72 3.95,-71.05 -1.33,-73 -6.02,-74.94 -8.62,-76.12 -8.57,-75.85 -6.09,-73.78 -1.48,-70.19 5.11,-65.87 13.2,-61.87 20.08,-59.51 15.12,-62 -28.79,-75.71" fill="none" stroke="rgb(149, 69, 53)" stroke-width="2" stroke-linejoin="round" filter="url(#fuzzy)" /><polyline points="-44.64,-57.24 -27.01,-59.5 -11.78,-64.8 -9.18,-67.28 -8.96,-67.74 -5.76,-68.43 -0.92,-70.24 2.5,-72.54 3.21,-74.03 1.91,-73.67 -0.14,-71.22 -2.36,-67.54 -4.54,-64.23 -5.49,-62.68 -2.49,-62.82 6.18,-63.08 15.4,-63.06 8.91,-66.61 -32.61,-72.21" fill="none" stroke="rgb(149, 69, 53)" stroke-width="2" stroke-linejoin="round" filter="url(#fuzzy)" /><polyline points="-19.37,-81.81 -16.81,-74.31 -4.32,-72.36 -0.13,-70.56 0.05,-69.23 1.14,-68.94 3.24,-69.61 4.1,-70.5 1.99,-70.86 -2.89,-70.63 -8.32,-70.51 -11.03,-71.16 -8.79,-72.38 -2.22,-73.23 6.55,-73.36 17.27,-74.25 21.48,-80.29" fill="none" stroke="rgb(149, 69, 53)" stroke-width="2" stroke-linejoin="round" filter="url(#fuzzy)" /><polyline points="-2.65,-86.39 8.22,-74.8 -3.67,-72.15 -11.41,-71.6 -12.09,-71.95 -9.36,-72.88 -7.21,-74.15 -7.48,-75.47 -9.59,-76.61 -11.52,-77.37 -11.43,-77.67 -8.89,-77.39 -5.21,-76.48 -2.82,-75.07 -3.88,-73.63 -8.63,-72.73 -14.61,-72.6 -17.49,-72.88 -12.73,-73.36 4.22,-74.62 33.84,-71.19" fill="none" stroke="rgb(149, 69, 53)" stroke-width="2" stroke-linejoin="round" filter="url(#fuzzy)" /><polyline points="44.1,-58.49 10.94,-69.68 4.24,-73.05 3.74,-72.09 6.97,-68.99 11.65,-66.05 15.54,-64.47 17.51,-64.28 17.59,-65.04 16.38,-66.4 14.55,-68.25 12.5,-70.47 10.23,-72.88 7.57,-75.18 4.61,-77.07 2.05,-78.22 1.17,-78.29 3.2,-77.02 8.2,-74.45 14.11,-71.22 16.95,-68.73 12.75,-68.93 1.88,-73.3 -6.02,-80.87 3.74,-86.32" fill="none" stroke="rgb(149, 69, 53)" stroke-width="2" stroke-linejoin="round" filter="url(#fuzzy)" /><polyline points="31.09,-73.73 -11.33,-68.94 -19.99,-69.68 -15.12,-72.23 -6.56,-73.03 1.1,-72.17 5.6,-71.19 6.39,-71.07 4.2,-71.81 0.5,-72.87 -3.04,-73.72 -4.94,-74.04 -4.3,-73.72 -0.94,-72.81 4.54,-71.58 11.1,-70.49 17.5,-70 22.71,-70.16 26.32,-70.31 28.83,-69.39 31.01,-67.13 33.73,-64.14 48.6,-50.1" fill="none" stroke="rgb(149, 69, 53)" stroke-width="2" stroke-linejoin="round" filter="url(#fuzzy)" /><polyline points="9.9,-85.31 21.11,-68.54 8.19,-69.69 -1.36,-72.7 -2.62,-73.59 2.65,-71.15 11.94,-66.03 22.33,-60.21 30.64,-56.07 34.53,-55.38 33.79,-58.45 30.4,-63.85 27.31,-68.85 26.68,-70.83 28.52,-69.33 30.2,-67.68 27.23,-72.33 21.05,-81.09" fill="none" stroke="rgb(149, 69, 53)" stroke-width="2" stroke-linejoin="round" filter="url(#fuzzy)" /><polyline points="45.27,-56.63 46.03,-48.91 35.34,-54.88 24.06,-63.74 16.59,-68.93 11.64,-70.34 7.7,-70.06 4.97,-69.52 3.99,-69.06 4.24,-68.7 4.04,-68.58 1.81,-68.86 -2.82,-69.42 -8.67,-69.72 -13.71,-69.07 -16.02,-67.14 -14.56,-64.28 -9.63,-61.51 -3,-60.07 2.55,-60.71 4.43,-63.06 1.99,-65.7 -2.17,-67.29 -5.64,-68.59 -32.77,-72.26" fill="none" stroke="rgb(149, 69, 53)" stroke-width="2" stroke-linejoin="round" filter="url(#fuzzy)" /><polyline points="10.35,-84.97 -0.68,-82.61 2.33,-77.1 11.3,-71.14 16.19,-67.18 15.24,-66.44 12.01,-68.04 10.05,-70.09 10.23,-71.21 11.29,-71.16 11.7,-70.38 10.83,-69.31 9.06,-68.14 7.19,-66.99 6.22,-66.22 7.44,-66.17 12.16,-66.61 20.36,-66.41 29.05,-64.42 32.06,-61.08 20.11,-60.58 -27.27,-76.87" fill="none" stroke="rgb(149, 69, 53)" stroke-width="2" stroke-linejoin="round" filter="url(#fuzzy)" /><polyline points="-37.11,-67.8 1.54,-74.15 13.56,-72.55 13.39,-68.65 10.14,-65.63 7.34,-64.18 5.68,-63.84 4.9,-64.16 4.38,-64.83 3.64,-65.5 2.61,-65.82 1.44,-65.88 0.41,-66.22 -0.1,-67.35 0.47,-69.05 2.14,-70.25 3.7,-69.88 3.18,-68.4 0.42,-68.72 -1.79,-74.62 -15.19,-83.52" fill="none" stroke="rgb(149, 69, 53)" stroke-width="2" stroke-linejoin="round" filter="url(#fuzzy)" /><polyline points="-14.81,-83.7 -14.09,-73.74 3.53,-72.3 17.49,-69.8 23.77,-66.75 23.73,-65.37 21.67,-65.56 21.9,-65.64 26.05,-64.21 32.58,-61.17 38.43,-57.46 40.86,-54.44 38.26,-53.44 30.31,-55.3 18.36,-59.02 2.3,-60.63 -43.12,-59.86" fill="none" stroke="rgb(149, 69, 53)" stroke-width="2" stroke-linejoin="round" filter="url(#fuzzy)" /><polyline points="-8.32,-85.31 -20.99,-78.52 -20.77,-77.7 -14.49,-79.78 -6.71,-81.29 1.38,-80.87 9.19,-78.55 15.46,-74.94 18.7,-70.9 18.21,-67.33 14.65,-65.07 9.88,-64.59 6.13,-65.77 4.98,-67.91 6.45,-70.16 8.89,-72.09 9.79,-74.03 7.78,-76.48 4.89,-78.74 7.13,-77.53 21.96,-66.5 55.01,-33.66" fill="none" stroke="rgb(149, 69, 53)" stroke-width="2" stroke-linejoin="round" filter="url(#fuzzy)" /><polyline points="-20.83,-80.81 -20.43,-73.7 -5.57,-63.58 10.75,-57.92 20.76,-56.92 24.72,-57.93 24.9,-59.08 23.21,-59.97 21.08,-60.99 19.47,-62.53 18.56,-64.57 17.65,-66.64 15.63,-68.18 11.72,-68.78 6.13,-68.4 0.46,-67.27 -2.8,-65.79 -1.49,-64.36 4.75,-63.28 14.02,-62.48 23.63,-61.29 32.55,-58.35 42.37,-52.12 49.41,-48.83" fill="none" stroke="rgb(149, 69, 53)" stroke-width="2" stroke-linejoin="round" filter="url(#fuzzy)" /><polyline points="59.16,-13.25 59.87,-12.66 61.72,-11.74 64.3,-10.71 66.54,-9.44 67.93,-7.87 68.73,-6.1 69.41,-4.31 70.32,-2.61 71.51,-1.03 72.85,0.42 74.24,1.78 75.62,3.08 76.93,4.34 78.05,5.63 78.89,7.1 79.71,9.01 82.23,11.75" fill="none" stroke="rgb(149, 69, 53)" stroke-width="2" stroke-linejoin="round" filter="url(#fuzzy)" /><polyline points="-2.65,-86.39 -1.54,-86.63 -0.64,-86.75 0.24,-86.9 1.13,-87.06 2.01,-87.2 2.87,-87.35 3.68,-87.5 4.47,-87.65 5.3,-87.8 6.19,-87.93 7.14,-88.03 8.11,-88.09 9.06,-88.11 9.96,-88.12 10.81,-88.16 11.59,-88.28 12.29,-88.48 13,-88.7 14.13,-88.43" fill="none" stroke="rgb(149, 69, 53)" stroke-width="2" stroke-linejoin="round" filter="url(#fuzzy)" /><polyline points="-3.19,-86.25 -4.89,-86.27 -5.99,-86.26 -6.84,-86.12 -7.6,-85.92 -8.31,-85.73 -9.03,-85.56 -9.8,-85.41 -10.67,-85.24 -11.61,-85.06 -12.56,-84.86 -13.45,-84.64 -14.23,-84.41 -14.93,-84.18 -15.65,-83.93 -16.49,-83.71 -17.5,-83.6" fill="none" stroke="rgb(149, 69, 53)" stroke-width="2" stroke-linejoin="round" filter="url(#fuzzy)" /><polyline points="-3.19,-86.25 -4.92,-86.55 -6.07,-86.88 -6.98,-87.23 -7.82,-87.68 -8.64,-88.19 -9.48,-88.66 -10.39,-89.11 -11.4,-89.59 -12.5,-90.23 -13.65,-91.08 -14.82,-92.16 -16,-93.41 -17.2,-94.74 -18.47,-96.06 -19.82,-97.28 -21.22,-98.39 -22.61,-99.47 -23.96,-100.58 -25.2,-101.48 -26.32,-101.59 -27.3,-100.32" fill="none" stroke="rgb(149, 69, 53)" stroke-width="2" stroke-linejoin="round" filter="url(#fuzzy)" /><polyline points="12.78,-95.49 11.57,-94.81 10.61,-94.62 9.58,-94.08 8.49,-93.13 7.36,-92.04 6.29,-91.11 5.34,-90.49 4.49,-90.22 3.69,-90.25 2.87,-90.46 1.99,-90.73 1.09,-90.92 0.17,-90.86 -0.72,-90.37 -1.62,-89.37 -2.49,-87.98 -3.19,-86.25 -3.19,-86.25 -4.89,-86.33 -6.01,-86.44 -6.93,-86.97 -7.83,-88.06 -8.72,-89.45 -9.6,-90.66 -10.5,-91.34 -11.47,-91.57 -12.53,-91.73 -13.69,-92.21 -14.87,-93.23 -16,-94.63 -17.07,-96.02 -18.12,-97.05 -19.3,-97.93 -20.74,-99.07" fill="none" stroke="rgb(149, 69, 53)" stroke-width="2" stroke-linejoin="round" filter="url(#fuzzy)" /><polyline points="-5.42,-86.25 -3.77,-85.45 -2.64,-85.48 -1.68,-85.39 -0.78,-85.08 0.08,-84.67 0.94,-84.27 1.78,-83.88 2.58,-83.44 3.32,-82.87 4.01,-82.21 4.71,-81.52 5.47,-80.88 6.32,-80.28 7.17,-79.64 7.96,-78.84 8.69,-77.98 9.03,-77.83 11.37,-79.92 10.68,-80.59 9.93,-81.15 9.16,-81.68 8.35,-82.18 7.49,-82.61 6.6,-82.95 5.73,-83.22 4.91,-83.41 4.14,-83.54 3.38,-83.64 2.61,-83.78 1.79,-83.98 0.95,-84.18 0.08,-84.3 -0.79,-84.29 -1.71,-84.2 -2.72,-84.19 -3.86,-84.35 -5.21,-84.72 -6.67,-85.98" fill="none" stroke="rgb(149, 69, 53)" stroke-width="2" stroke-linejoin="round" filter="url(#fuzzy)" /><polyline points="-24.32,-81.49 -22.81,-82.24 -21.66,-82.69 -20.73,-83.01 -19.89,-83.32 -19.02,-83.63 -18.1,-83.92 -17.16,-84.18 -16.24,-84.44 -15.38,-84.69 -14.55,-84.93 -13.7,-85.15 -12.81,-85.33 -11.86,-85.46 -10.9,-85.54 -9.99,-85.59 -9.18,-85.61 -8.45,-85.64 -7.72,-85.71 -6.99,-85.87 -6.67,-85.98" fill="none" stroke="rgb(149, 69, 53)" stroke-width="2" stroke-linejoin="round" filter="url(#fuzzy)" /><polyline points="-6.67,-85.98 -6.99,-85.85 -7.72,-85.62 -8.44,-85.43 -9.16,-85.26 -9.95,-85.07 -10.83,-84.83 -11.76,-84.56 -12.67,-84.25 -13.53,-83.93 -14.35,-83.58 -15.16,-83.2 -15.98,-82.79 -16.84,-82.36 -17.71,-81.9 -18.56,-81.43 -19.4,-80.96 -20.23,-80.48 -21.09,-79.98 -22,-79.44 -22.9,-78.9 -23.65,-78.45 -24.29,-78.16" fill="none" stroke="rgb(149, 69, 53)" stroke-width="2" stroke-linejoin="round" filter="url(#fuzzy)" /><polyline points="-6.67,-85.98 -5.24,-85.46 -3.89,-85.2 -2.74,-84.78 -1.72,-84.33 -0.79,-83.93 0.09,-83.57 0.95,-83.21 1.78,-82.82 2.57,-82.32 3.3,-81.67 4,-80.84 4.7,-79.89 5.44,-78.93 6.22,-78.08 7.02,-77.41 7.82,-76.91 8.57,-76.47 9.24,-75.85 9.77,-74.83 10.17,-73.43 10.54,-72 11.29,-70.69" fill="none" stroke="rgb(149, 69, 53)" stroke-width="2" stroke-linejoin="round" filter="url(#fuzzy)" /><polyline points="-8.32,-85.31 -7.14,-86.8 -6.24,-87.43 -5.19,-87.41 -4.05,-87.38 -2.94,-87.68 -1.88,-88.36 -0.89,-89.2 0.06,-89.95 0.99,-90.42 1.89,-90.58 2.77,-90.55 3.63,-90.51 4.49,-90.6 5.38,-90.88 6.33,-91.29 7.33,-91.71 8.36,-92 9.36,-92.1 10.32,-92.08 11.23,-92.02 12.06,-92.08 12.71,-92.44 12.91,-93.27 58.97,-15.41 57.14,-15.98 56.29,-16.92 55.95,-18.13 55.77,-19.4 55.58,-20.64 55.32,-21.85 54.98,-23.05 54.59,-24.19 54.2,-25.28 53.84,-26.32 53.52,-27.35 53.18,-28.37 52.75,-29.38 52.16,-30.34 51.45,-31.18 50.7,-31.91 50.05,-32.64 49.39,-33.56 48.29,-34.59" fill="none" stroke="rgb(149, 69, 53)" stroke-width="2" stroke-linejoin="round" filter="url(#fuzzy)" /><polyline points="-9.83,-85.26 -9.2,-85.26 -8.58,-85.28 -7.88,-85.42 -7.09,-85.61 -6.2,-85.78 -5.22,-85.92 -4.18,-86.03 -3.13,-86.11 -2.1,-86.15 -1.13,-86.15 -0.2,-86.1 0.71,-86.02 1.6,-85.9 2.47,-85.77 3.26,-85.64 3.93,-85.51 4.48,-85.39 5.23,-85.25 7.26,-84.92" fill="none" stroke="rgb(149, 69, 53)" stroke-width="2" stroke-linejoin="round" filter="url(#fuzzy)" /><polyline points="-10.37,-85.08 -12.28,-85.9 -13.5,-86.23 -14.29,-85.9 -15.03,-85.63 -15.96,-85.9 -17.1,-86.71 -18.35,-87.75 -19.58,-88.63 -20.73,-89.13 -21.81,-89.31 -22.91,-89.42 -24.1,-89.76 -25.44,-90.52 -26.91,-91.68 -28.44,-93.06 -30,-94.36 -31.52,-95.29 -32.96,-95.7 -34.28,-95.65 -35.48,-95.58 -36.7,-96.25 -38.14,-97.93 -40.1,-98.48" fill="none" stroke="rgb(149, 69, 53)" stroke-width="2" stroke-linejoin="round" filter="url(#fuzzy)" /><polyline points="-16.21,-82.92 -17.36,-82.43 -18.32,-81.69 -19.09,-81.09 -19.84,-80.62 -20.63,-80.13 -21.46,-79.58 -22.27,-78.98 -23.04,-78.36 -23.78,-77.72 -24.51,-77.02 -25.26,-76.26 -26.04,-75.44 -26.79,-74.62 -27.46,-73.86 -28,-73.23 -28.5,-72.68 -29.12,-72.04 -29.75,-71.08 -3.46,-112.82 -4.63,-111.83 -6.01,-109.2 -7.2,-106.95 -8.16,-104.95 -8.97,-102.95 -9.7,-101.01 -10.4,-99.19 -11.11,-97.39 -11.86,-95.48 -12.66,-93.5 -13.47,-91.67 -14.24,-90.1 -14.9,-88.68 -15.47,-87.15 -16.03,-85.47 -16.75,-83.91 -17.8,-82.74 -19.37,-81.81" fill="none" stroke="rgb(149, 69, 53)" stroke-width="2" stroke-linejoin="round" filter="url(#fuzzy)" /><polyline points="-54.14,-81.52 -52.96,-83.82 -51.41,-83.78 -49.34,-82.92 -47.08,-81.86 -44.9,-80.92 -42.96,-80.29 -41.35,-80.08 -40.07,-80.34 -39.09,-81.05 -38.32,-82.09 -37.66,-83.3 -37,-84.42 -36.22,-85.16 -35.22,-85.27 -33.99,-84.65 -32.55,-83.44 -31.02,-81.94 -29.49,-80.58 -28.05,-79.65 -26.74,-79.24 -25.59,-79.16 -24.65,-79.19 -23.97,-79.21 -23.65,-79.24 -23.71,-79.11 -23.13,-79.36 -22.08,-79.54 -20.97,-79.47 -19.91,-79.06 -18.87,-78.37 -17.83,-77.66 -16.81,-77.14 -15.82,-76.81 -14.87,-76.51 -13.97,-76.04 -13.15,-75.35 -12.36,-74.55 -11.54,-73.95 -10.52,-73.97 -9.08,-74.5" fill="none" stroke="rgb(149, 69, 53)" stroke-width="2" stroke-linejoin="round" filter="url(#fuzzy)" /><polyline points="-23.71,-79.11 -23.2,-79.75 -22.37,-80.86 -21.51,-81.9 -20.74,-82.91 -20.05,-84.12 -19.39,-85.59 -18.72,-87.22 -18.03,-88.89 -17.32,-90.48 -16.61,-91.93 -15.88,-93.2 -15.08,-94.29 -14.2,-95.28 -13.27,-96.29 -12.35,-97.43 -11.47,-98.71 -10.66,-100.01 -9.88,-101.23 -9.1,-102.38 -8.26,-103.56 -7.3,-104.84 -6.02,-106.23 -4.01,-108.42" fill="none" stroke="rgb(149, 69, 53)" stroke-width="2" stroke-linejoin="round" filter="url(#fuzzy)" /><polyline points="-23.71,-79.11 -23.17,-79.58 -22.2,-80.21 -21.27,-80.92 -20.45,-81.66 -19.67,-82.32 -18.85,-82.83 -17.96,-83.22 -17.04,-83.52 -16.14,-83.8 -15.28,-84.1 -14.45,-84.43 -13.62,-84.81 -12.76,-85.21 -11.86,-85.63 -10.95,-86.06 -10.09,-86.48 -9.3,-86.89 -8.58,-87.3 -7.86,-87.7 -7.14,-88.06 -6.43,-88.32 -5.56,-88.55 58.66,-17.33 58.51,-18.96 58.67,-20.56 58.99,-22.02 59.35,-23.55 59.75,-25.19 60.3,-26.92 61.16,-28.73 62.31,-30.62 63.54,-32.54 64.56,-34.43 65.14,-36.25 65.34,-38.05 65.59,-39.89 66.64,-41.78 68.95,-43.23" fill="none" stroke="rgb(149, 69, 53)" stroke-width="2" stroke-linejoin="round" filter="url(#fuzzy)" /><polyline points="-29.4,-75.15 -29.34,-75.37 -30.08,-75.1 -31.14,-75.14 -32.44,-75.66 -33.89,-76.49 -35.38,-77.34 -36.77,-77.94 -38.02,-78.13 -39.12,-77.9 -40.19,-77.41 -41.37,-76.91 -42.77,-76.67 -44.44,-76.86 -46.36,-77.49 -48.43,-78.44 -50.56,-79.5 -52.6,-80.35 -54.37,-80.57 -55.99,-80.21 -58.31,-80.94" fill="none" stroke="rgb(149, 69, 53)" stroke-width="2" stroke-linejoin="round" filter="url(#fuzzy)" /><polyline points="-30.36,-74.55 -31.48,-75.39 -32.31,-75.23 -33.14,-74.83 -34.08,-74.58 -35.08,-74.41 -36.03,-74.11 -36.86,-73.51 -37.63,-72.62 -38.44,-71.64 -39.39,-70.8 -40.49,-70.22 -41.66,-69.86 -42.77,-69.57 -43.75,-69.2 -44.66,-68.84 -45.48,-69.25" fill="none" stroke="rgb(149, 69, 53)" stroke-width="2" stroke-linejoin="round" filter="url(#fuzzy)" /><polyline points="-30.93,-73.9 -31.45,-73.21 -32.19,-72.53 -32.9,-71.8 -33.55,-70.94 -34.13,-69.94 -34.69,-68.82 -35.28,-67.66 -35.93,-66.52 -36.64,-65.47 -37.37,-64.5 -38.09,-63.58 -38.76,-62.67 -39.38,-61.72 -39.96,-60.7 -40.51,-59.6 -41.03,-58.46 -41.54,-57.36 -42.01,-56.37 -42.45,-55.45 -42.98,-54.31 -43.87,-52.52" fill="none" stroke="rgb(149, 69, 53)" stroke-width="2" stroke-linejoin="round" filter="url(#fuzzy)" /><polyline points="-30.93,-73.9 -32.02,-74.54 -32.65,-73.61 -33.27,-72.62 -34,-71.86 -34.84,-71.31 -35.79,-70.88 -36.83,-70.49 -37.94,-70.1 -39.06,-69.67 -40.15,-69.2 -41.17,-68.66 -42.08,-67.99 -42.88,-67.17 -43.6,-66.21 -44.32,-65.18 -45.1,-64.21 -45.96,-63.42 -46.86,-62.84 -47.79,-62.39 -48.88,-61.73 -50.25,-60.16 -17.79,-100.5 -18.14,-98.37 -18.93,-96.57 -19.81,-94.84 -20.61,-93.08 -21.3,-91.32 -21.91,-89.57 -22.51,-87.83 -23.12,-86.16 -23.78,-84.67 -24.5,-83.52 -25.33,-82.79 -26.26,-82.39 -27.25,-82.11 -28.18,-81.63 -28.93,-80.7 -29.41,-79.29 -29.67,-77.64 -29.89,-76.1 -30.26,-74.9 -30.8,-74.02 -31.22,-73.41 -13.56,-69.36 -14.88,-70.5 -15.96,-70.99 -16.85,-71.41 -17.73,-71.81 -18.62,-72.1 -19.54,-72.24 -20.46,-72.32 -21.37,-72.4 -22.28,-72.49 -23.2,-72.53 -24.14,-72.52 -25.11,-72.47 -26.1,-72.53 -27.11,-72.8 -28.11,-73.26 -29.08,-73.74 -29.98,-73.94 -30.81,-73.7 -31.59,-73.1 -32.61,-72.21" fill="none" stroke="rgb(149, 69, 53)" stroke-width="2" stroke-linejoin="round" filter="url(#fuzzy)" /><polyline points="-41.55,-54.11 -40.73,-55.75 -40.35,-57.52 -40.04,-59.15 -39.67,-60.49 -39.18,-61.55 -38.61,-62.46 -37.99,-63.37 -37.32,-64.34 -36.61,-65.33 -35.85,-66.29 -35.06,-67.16 -34.3,-67.94 -33.64,-68.74 -33.15,-69.92 -32.77,-72.26 -18.64,-78.73 -18.86,-78.87 -19.47,-78.79 -20.28,-78.48 -21.15,-77.99 -21.99,-77.46 -22.8,-76.99 -23.62,-76.61 -24.48,-76.3 -25.38,-75.99 -26.29,-75.67 -27.15,-75.3 -27.93,-74.89 -28.62,-74.45 -29.27,-73.99 -29.94,-73.53 -30.68,-73.11 -31.49,-72.71 -32.31,-72.3 -33.15,-71.76 -34.19,-70.88" fill="none" stroke="rgb(149, 69, 53)" stroke-width="2" stroke-linejoin="round" filter="url(#fuzzy)" /><polyline points="-34.19,-70.88 -33.56,-72.72 -33.29,-74.59 -32.79,-75.84 -32.1,-76.58 -31.4,-77.2 -30.77,-77.92 -30.19,-78.77 -29.6,-79.7 -28.94,-80.69 -28.23,-81.72 -27.49,-82.78 -26.75,-83.86 -26.02,-84.9 -25.26,-85.89 -24.48,-86.85 -23.68,-87.85 -22.9,-89.02 -22.19,-90.46 -21.52,-92.13 -20.82,-93.88 -19.97,-95.42 -18.96,-96.57 -17.99,-97.45 -17.45,-98.61 -17.39,-67.44 -18.41,-67.33 -19.45,-67.64 -20.36,-68.06 -21.22,-68.37 -22.09,-68.49 -23,-68.49 -23.96,-68.51 -24.91,-68.59 -25.8,-68.7 -26.62,-68.78 -27.42,-68.83 -28.26,-68.9 -29.14,-68.97 -30.04,-68.94 -30.91,-68.77 -31.8,-68.55 -32.74,-68.46 -33.79,-68.62 -34.96,-68.89 -36.34,-68.62" fill="none" stroke="rgb(149, 69, 53)" stroke-width="2" stroke-linejoin="round" filter="url(#fuzzy)" /><polyline points="-37.11,-67.8 -36.69,-69.51 -36.27,-71.16 -35.89,-72.66 -35.46,-73.96 -34.98,-75.2 -34.51,-76.55 -34.15,-78.16 -33.92,-80.12 -33.84,-82.41 -33.93,-85.04 -34.21,-87.93 -34.53,-90.87 -34.57,-93.46 -34.13,-95.66 -33.99,-98.94" fill="none" stroke="rgb(149, 69, 53)" stroke-width="2" stroke-linejoin="round" filter="url(#fuzzy)" /><polyline points="-64.84,-63.68 -62.4,-61.32 -60.04,-60.22 -58.07,-60.07 -56.74,-60.8 -55.99,-62.15 -55.48,-63.63 -54.81,-64.74 -53.71,-65.23 -52.14,-65.05 -50.23,-64.4 -48.21,-63.58 -46.32,-62.9 -44.71,-62.66 -43.52,-63.05 -42.82,-64.17 -42.65,-65.97 -42.8,-68.05 -42.42,-69.07 -38.95,-65.83 -39.66,-64.94 -39.67,-64.98 -39.09,-65.86 -38.31,-66.88 -37.47,-67.89 -36.67,-68.92 -35.96,-69.98 -35.32,-71.09 -34.73,-72.2 -34.15,-73.28 -33.56,-74.31 -32.94,-75.28 -32.32,-76.19 -31.7,-77.03 -31.08,-77.82 -30.46,-78.56 -29.81,-79.26 -29.07,-79.94 -28.25,-80.61 -27.36,-81.3 -26.48,-81.98 -25.69,-82.64 -25.01,-83.25 -24.28,-83.85 -23.01,-84.56 -61.34,-54.88 -58.33,-55.18 -56.34,-54.89 -54.74,-54.78 -53.42,-55.13 -52.42,-55.96 -51.65,-57.06 -50.93,-58.1 -50.08,-58.85 -49.04,-59.27 -47.88,-59.53 -46.74,-59.76 -45.65,-59.92 -44.62,-60.02 -43.6,-60.23 -42.64,-60.63" fill="none" stroke="rgb(149, 69, 53)" stroke-width="2" stroke-linejoin="round" filter="url(#fuzzy)" /><polyline points="-49.29,-38.35 -48.82,-40.65 -48.5,-42.2 -48.26,-43.38 -48.05,-44.39 -47.85,-45.37 -47.66,-46.38 -47.44,-47.48 -47.17,-48.65 -46.84,-49.89 -46.45,-51.12 -46.01,-52.3 -45.56,-53.41 -45.11,-54.48 -44.7,-55.56 -44.33,-56.66 -44,-57.74 -43.65,-58.71 -43.2,-59.66 -42.64,-60.63" fill="none" stroke="rgb(149, 69, 53)" stroke-width="2" stroke-linejoin="round" filter="url(#fuzzy)" /><polyline points="-44.31,-57.7 -44.18,-60.57 -43.92,-62.68 -43.13,-63.77 -42.29,-64.62 -41.7,-65.81 -41.46,-67.61 -41.48,-69.96 -41.6,-72.6 -41.64,-75.23 -41.56,-77.71 -41.39,-80.12 -41.26,-82.63 -41.22,-85.31 -41.2,-88.05 -41.09,-90.58 -40.77,-92.7 -40.24,-94.4 -39.64,-95.91 -39.12,-97.53 -38.77,-99.3 -38.44,-100.96 -37.87,-102.24 -37,-103.57 -36.59,-106.49 -45.8,-55.43 -50.04,-61.26 -48.73,-61.47 -47.19,-61.4 -46.47,-62.33 -46.41,-64.2 -46.56,-66.46 -46.57,-68.58 -46.28,-70.3 -45.73,-71.66 -45.05,-72.87 -44.37,-74.18 -43.75,-75.7 -43.22,-77.46 -42.78,-79.43 -42.42,-81.59 -42.19,-83.96 -42.06,-86.52 -41.98,-89.17 -41.84,-91.71 -41.56,-93.99 -41.14,-96.06 -40.58,-97.99 -39.78,-100.03 -38.92,-104.11 -45.8,-55.43 -46.08,-53.92 -46.75,-52.84 -47.4,-51.65 -47.92,-50.41 -48.34,-49.26 -48.7,-48.22 -49.02,-47.24 -49.28,-46.25 -49.48,-45.17 -49.62,-43.96 -49.72,-42.63 -49.8,-41.23 -49.91,-39.84 -50.05,-38.5 -50.25,-37.22 -50.47,-35.94 -50.68,-34.6 -50.85,-33.13 -50.99,-31.62 -51.24,-30.28" fill="none" stroke="rgb(149, 69, 53)" stroke-width="2" stroke-linejoin="round" filter="url(#fuzzy)" /><polyline points="-46.69,-54.1 -45.92,-54.79 -45.32,-55.52 -44.58,-56.21 -43.71,-56.69 -42.78,-57.01 -41.83,-57.32 -40.85,-57.69 -39.85,-58.06 -38.83,-58.38 -37.83,-58.64 -36.91,-58.93 -36.07,-59.32 -35.2,-59.75 -34.11,-60.03 -33.09,-60.46" fill="none" stroke="rgb(149, 69, 53)" stroke-width="2" stroke-linejoin="round" filter="url(#fuzzy)" /><polyline points="-41.88,-92.35 -41.85,-88.26 -42.09,-85.93 -42.45,-83.95 -42.76,-81.77 -42.94,-79.29 -43.03,-76.67 -43.09,-74.15 -43.16,-71.82 -43.27,-69.71 -43.44,-67.81 -43.71,-66.1 -44.12,-64.61 -44.64,-63.33 -45.26,-62.24 -45.9,-61.28 -46.52,-60.36 -47.07,-59.36 -47.48,-58.23 -47.71,-56.94 -47.77,-55.46 -47.8,-53.58 -48.41,-50.92 -48.3,-50.87 -49.02,-52.92 -48.79,-54.63 -48.12,-55.64 -47.44,-56.47 -46.87,-57.39 -46.39,-58.42 -45.93,-59.51 -45.46,-60.62 -44.98,-61.79 -44.5,-63.05 -44.06,-64.45 -43.7,-66 -43.39,-67.62 -43.06,-69.21 -42.62,-70.67 -42.01,-71.97 -41.24,-73.15 -40.41,-74.35 -39.66,-75.7 -39.04,-77.11 -38.52,-78.27 -38.18,-79.16 -62.35,-27.38 -62.23,-27.99 -61.79,-28.8 -61.23,-29.88 -60.59,-31.1 -59.88,-32.28 -59.11,-33.38 -58.32,-34.43 -57.54,-35.49 -56.8,-36.6 -56.1,-37.75 -55.45,-38.93 -54.85,-40.11 -54.28,-41.26 -53.7,-42.4 -53.09,-43.49 -52.45,-44.53 -51.82,-45.51 -51.24,-46.43 -50.77,-47.33 -50.4,-48.2 -50.02,-49.01 -49.36,-49.73 -48.3,-50.87" fill="none" stroke="rgb(149, 69, 53)" stroke-width="2" stroke-linejoin="round" filter="url(#fuzzy)" /><polyline points="-49.57,-48.68 -50.41,-47 -51.08,-46.25 -51.82,-45.46 -52.63,-44.54 -53.5,-43.6 -54.41,-42.7 -55.33,-41.79 -56.26,-40.86 -57.22,-39.9 -58.26,-38.94 -59.37,-38 -60.56,-37.1 -61.85,-36.25 -63.26,-35.45 -64.77,-34.65 -66.28,-33.83 -67.65,-32.95 -68.79,-32.06 -69.71,-31.21 -70.47,-30.28 -71.02,-28.88 -71.63,-26.38" fill="none" stroke="rgb(149, 69, 53)" stroke-width="2" stroke-linejoin="round" filter="url(#fuzzy)" /><polyline points="-78.1,-32.97 -75.52,-32.91 -74.41,-33.42 -73.03,-33.97 -71.09,-34.51 -68.83,-35.03 -66.57,-35.56 -64.6,-36.17 -63.01,-36.92 -61.73,-37.8 -60.64,-38.79 -59.55,-39.77 -58.36,-40.64 -57.05,-41.35 -55.69,-41.94 -54.45,-42.58 -53.47,-43.45 -52.75,-44.65 -52.02,-46.05 -50.27,-47.02" fill="none" stroke="rgb(149, 69, 53)" stroke-width="2" stroke-linejoin="round" filter="url(#fuzzy)" /><polyline points="-35.31,-64.51 -36.22,-63.71 -37.17,-63.02 -37.98,-62.36 -38.72,-61.68 -39.44,-60.96 -40.19,-60.21 -40.97,-59.45 -41.76,-58.71 -42.51,-57.99 -43.23,-57.27 -43.9,-56.52 -44.54,-55.73 -45.16,-54.89 -45.78,-54.02 -46.41,-53.09 -47.06,-52.12 -47.71,-51.11 -48.35,-50.11 -48.94,-49.16 -49.46,-48.3 -49.92,-47.5 -50.29,-46.82 -50.27,-47.02" fill="none" stroke="rgb(149, 69, 53)" stroke-width="2" stroke-linejoin="round" filter="url(#fuzzy)" /><polyline points="-51.65,-44.09 -51.03,-44.81 -50.26,-45.36 -49.36,-45.66 -48.57,-46.04 -47.96,-46.65 -47.42,-47.42 -46.82,-48.25 -46.11,-49.06 -45.31,-49.83 -44.48,-50.53 -43.65,-51.12 -42.77,-51.58 -41.82,-51.89 -40.8,-52.05 -39.76,-52.1 -38.78,-52.11 -37.82,-52.2 -37.07,-52.71 -52.18,-41.89 -52.3,-39.44 -52.09,-37.71 -52.06,-36.17 -52.18,-34.7 -52.31,-33.29 -52.39,-31.94 -52.4,-30.64 -52.34,-29.31 -52.15,-27.92 -51.82,-26.46 -51.34,-25 -50.75,-23.65 -50.13,-22.44 -49.47,-21.27 -48.85,-19.87 -48.43,-17.83" fill="none" stroke="rgb(149, 69, 53)" stroke-width="2" stroke-linejoin="round" filter="url(#fuzzy)" /><polyline points="-53.37,-38.69 -52.67,-40.66 -52.24,-41.96 -51.81,-43.22 -51.37,-44.43 -50.96,-45.52 -50.58,-46.5 -50.2,-47.4 -49.81,-48.29 -49.39,-49.21 -48.92,-50.2 -48.4,-51.29 -47.86,-52.43 -47.32,-53.57 -46.8,-54.63 -46.29,-55.6 -45.73,-56.61 -45.04,-57.88 -44.23,-59.57 -36.27,-55.24 -37.4,-54.03 -38.25,-53.18 -39.16,-52.8 -40.14,-52.64 -41.09,-52.43 -41.95,-52.04 -42.72,-51.48 -43.46,-50.82 -44.23,-50.12 -45.05,-49.42 -45.88,-48.73 -46.66,-48.02 -47.32,-47.29 -47.87,-46.51 -48.33,-45.7 -48.79,-44.86 -49.32,-44.01 -49.98,-43.16 -50.74,-42.28 -51.5,-41.35 -52.16,-40.37 -52.79,-39.5 -53.22,-39.32" fill="none" stroke="rgb(149, 69, 53)" stroke-width="2" stroke-linejoin="round" filter="url(#fuzzy)" /><polyline points="-40.45,-54.49 -41.27,-53.03 -42.14,-52.13 -43.06,-51.69 -43.96,-51.26 -44.76,-50.6 -45.46,-49.74 -46.12,-48.81 -46.79,-47.96 -47.45,-47.22 -48.07,-46.54 -48.62,-45.84 -49.12,-45.07 -49.63,-44.23 -50.25,-43.34 -51.01,-42.45 -51.8,-41.55 -52.49,-40.61 -53.01,-39.66 -53.22,-39.32 -55.36,-32.72 -54.93,-34.02 -54.43,-35.39 -53.94,-36.73 -53.47,-37.97 -53.01,-39.12 -52.54,-40.22 -52.04,-41.31 -51.5,-42.39 -50.93,-43.43 -50.35,-44.41 -49.8,-45.27 -49.28,-46.01 -48.8,-46.66 -48.38,-47.15 -47.93,-47.45" fill="none" stroke="rgb(149, 69, 53)" stroke-width="2" stroke-linejoin="round" filter="url(#fuzzy)" /><polyline points="-53.77,-5.31 -53.87,-7.42 -54.39,-8.87 -54.95,-10.02 -55.3,-11.09 -55.36,-12.18 -55.19,-13.3 -54.91,-14.5 -54.68,-15.78 -54.6,-17.16 -54.69,-18.62 -54.91,-20.1 -55.16,-21.55 -55.36,-22.9 -55.44,-24.1 -55.34,-25.18 -55.09,-26.22 -54.83,-27.37 -54.78,-28.76 -55.03,-30.33 -55.33,-31.76 -55.36,-32.72" fill="none" stroke="rgb(149, 69, 53)" stroke-width="2" stroke-linejoin="round" filter="url(#fuzzy)" /><polyline points="68.24,1.78 67.9,0.16 67.01,-1.38 66.17,-3.01 65.58,-4.75 65.18,-6.53 64.83,-8.26 64.46,-9.88 64.1,-11.39 63.75,-12.8 63.38,-14.14 62.92,-15.41 62.34,-16.63 61.66,-17.83 60.98,-19.03 60.37,-20.26 59.87,-21.51 59.39,-22.77 58.83,-24.01 58.14,-25.2 57.42,-26.34 56.86,-27.42 56.54,-28.41 56.5,-28.69 54.64,-35.16 55.19,-35.8 55.55,-37.43 55.38,-38.91 54.9,-40.1 54.41,-41.22 54.13,-42.49 54.09,-44.02 54.19,-45.75 54.27,-47.52 54.22,-49.19 54.02,-50.71 53.75,-52.14 53.51,-53.59 53.38,-55.13 53.32,-56.74 53.26,-58.38 53.09,-59.98 52.85,-61.53 52.68,-63.09 52.71,-64.82 52.78,-66.9 52.36,-69.46" fill="none" stroke="rgb(149, 69, 53)" stroke-width="2" stroke-linejoin="round" filter="url(#fuzzy)" /><polyline points="54.93,-34.43 55.09,-34.5 55.64,-33.71 56.51,-32.73 57.42,-31.74 58.17,-30.76 58.71,-29.73 59.07,-28.62 59.31,-27.4 59.5,-26.09 59.71,-24.73 59.95,-23.36 60.24,-22.02 60.58,-20.69 60.97,-19.39 61.41,-18.11 61.92,-16.86 62.49,-15.63 63.12,-14.41 63.79,-13.19 64.51,-11.95 65.32,-10.68 66.08,-9.26 66.64,-6.97" fill="none" stroke="rgb(149, 69, 53)" stroke-width="2" stroke-linejoin="round" filter="url(#fuzzy)" /><polyline points="54.93,-34.43 54.9,-34.38 55.2,-33.46 55.61,-32.25 56.01,-31.01 56.36,-29.85 56.66,-28.72 56.92,-27.59 57.17,-26.41 57.41,-25.17 57.65,-23.88 57.9,-22.57 58.15,-21.26 58.41,-19.97 58.67,-18.68 58.92,-17.41 59.14,-16.14 59.33,-14.88 59.49,-13.63 59.63,-12.37 59.77,-11.11 59.91,-9.83 60.05,-8.43 60.18,-6.29 54.08,-36.59 54.81,-35.46 55.41,-34.82 55.9,-33.92 56.34,-32.78 56.78,-31.6 57.31,-30.51 57.92,-29.54 58.58,-28.61 59.22,-27.62 59.81,-26.52 60.34,-25.3 60.85,-24.02 61.34,-22.77 61.82,-21.51 62.26,-20.17 62.62,-18.78 62.78,-17.75" fill="none" stroke="rgb(149, 69, 53)" stroke-width="2" stroke-linejoin="round" filter="url(#fuzzy)" /><polyline points="50.14,-46.76 49.77,-47.35 48.97,-48.11 48.13,-48.81 47.45,-49.55 46.91,-50.41 46.39,-51.33 45.83,-52.25 45.23,-53.1 44.6,-53.87 43.92,-54.56 43.15,-55.18 42.25,-55.69 41.27,-56.06 40.34,-56.33 39.53,-56.6 38.24,-57.25 45.57,-55.91 45.56,-55.95 45.02,-56.69 44.22,-57.46 43.24,-57.99 42.14,-58.26 41.02,-58.45 39.99,-58.78 39.09,-59.38 38.32,-60.18 37.6,-61.03 36.87,-61.76 36.11,-62.3 35.34,-62.67 34.58,-62.98 33.84,-63.34 33.12,-63.77 32.36,-64.24 31.55,-64.68 30.66,-65.04 29.68,-65.3 28.64,-65.45 27.59,-65.54 26.51,-65.61 24.64,-65.65" fill="none" stroke="rgb(149, 69, 53)" stroke-width="2" stroke-linejoin="round" filter="url(#fuzzy)" /><polyline points="63.08,-45.17 61.46,-45.38 60.1,-45.79 59.04,-46.37 58.04,-47.12 57.06,-48.03 56.17,-49.1 55.42,-50.25 54.71,-51.33 53.86,-52.18 52.73,-52.67 51.36,-52.83 49.9,-52.85 48.56,-53 47.46,-53.49 46.62,-54.33 46.06,-55.17 46.03,-55.25" fill="none" stroke="rgb(149, 69, 53)" stroke-width="2" stroke-linejoin="round" filter="url(#fuzzy)" /><polyline points="44.1,-58.49 44.92,-56.94 45.47,-55.95 45.91,-55.08 46.34,-54.09 46.81,-53.03 47.29,-51.97 47.74,-50.95 48.17,-49.95 48.56,-48.91 48.93,-47.82 49.3,-46.7 49.69,-45.57 50.16,-44.37 50.77,-42.8 51.69,-40.41 44.02,-58.51 44.34,-57.87 44.65,-56.59 44.84,-55.26 45.1,-54.06 45.47,-52.96 45.89,-51.87 46.29,-50.77 46.65,-49.65 46.95,-48.51 47.22,-47.33 47.45,-46.09 47.66,-44.79 47.84,-43.43 47.98,-42.03 48.04,-40.57 47.96,-39.07 47.7,-37.53 47.34,-35.99 47.09,-34.53 47.18,-33.2 47.54,-31.82 47.44,-29.74 34,-90.57 35.3,-87.54 35.85,-85.38 36.4,-83.48 37.09,-81.89 37.83,-80.55 38.54,-79.31 39.2,-78.1 39.81,-76.92 40.36,-75.79 40.78,-74.62 41.01,-73.22 41.07,-71.45 41.06,-69.4 41.16,-67.33 41.53,-65.59 42.21,-64.38 43.12,-63.67 44.12,-63.29 44.83,-62.64 44.02,-58.51" fill="none" stroke="rgb(149, 69, 53)" stroke-width="2" stroke-linejoin="round" filter="url(#fuzzy)" /><polyline points="42.18,-61.23 47.29,-64.49 47.47,-62.4 47.12,-59.98 47.23,-58.33 47.96,-57.49 49.26,-57.27 50.98,-57.46 52.91,-57.83 54.78,-58.13 56.41,-58.14 57.67,-57.73 58.59,-56.88 59.3,-55.73 60.02,-54.48 60.98,-53.35 62.26,-52.46 63.82,-51.85 65.49,-51.43 67.19,-51.07 69.08,-50.77 71.35,-50.52 73.43,-49.68" fill="none" stroke="rgb(149, 69, 53)" stroke-width="2" stroke-linejoin="round" filter="url(#fuzzy)" /><polyline points="38.92,-65.5 38,-65.76 37.23,-65.84 36.73,-66.08 36.2,-66.43 35.44,-66.65 34.42,-66.61 33.21,-66.31 31.96,-65.94 30.77,-65.73 29.71,-65.84 28.75,-66.17 27.77,-66.42 26.64,-66.37 25.36,-66.23 24.3,-66.18" fill="none" stroke="rgb(149, 69, 53)" stroke-width="2" stroke-linejoin="round" filter="url(#fuzzy)" /><polyline points="38.39,-66.39 37.81,-67.25 37.69,-68.01 37.46,-68.92 36.97,-69.86 36.32,-70.77 35.61,-71.73 34.94,-72.86 34.33,-74.21 33.74,-75.7 33.13,-77.17 32.47,-78.5 31.78,-79.66 31.13,-80.7 30.58,-81.71 30.13,-82.73 29.71,-83.69 29.22,-84.56 28.63,-85.4 27.97,-86.48 27.3,-88.15 26.47,-90.45 37.08,-67.74 38.08,-66.36 38.88,-64.84 39.63,-63.51 40.38,-62.42 41.11,-61.48 41.78,-60.57 42.39,-59.63 42.98,-58.66 43.54,-57.67 44.1,-56.67 44.64,-55.68 45.15,-54.69 45.64,-53.66 46.09,-52.61 46.52,-51.53 46.93,-50.45 47.34,-49.38 47.75,-48.32 48.16,-47.25 48.54,-46.13 48.91,-44.97 49.32,-43.7 49.89,-42.11 50.71,-39.64 21.92,-106.64 22.75,-103.44 23.67,-101.51 24.57,-100.11 25.57,-99.06 26.65,-98.06 27.72,-96.84 28.68,-95.34 29.5,-93.65 30.18,-91.99 30.78,-90.52 31.32,-89.32 31.8,-88.24 32.2,-87.01 32.47,-85.32 32.62,-83.05 32.72,-80.36 32.85,-77.6 33.12,-75.05 33.53,-72.9 33.97,-71.45 33.84,-71.19" fill="none" stroke="rgb(149, 69, 53)" stroke-width="2" stroke-linejoin="round" filter="url(#fuzzy)" /><polyline points="34.55,-70.26 33.36,-71.9 32.28,-73.01 31.33,-73.84 30.45,-74.56 29.64,-75.22 28.92,-75.81 28.3,-76.33 27.74,-76.8 27.19,-77.28 26.58,-77.79 25.87,-78.35 25.05,-78.96 24.11,-79.6 23.07,-80.26 22.02,-80.9 21.07,-81.5 20.3,-82.02 19.84,-82.5" fill="none" stroke="rgb(149, 69, 53)" stroke-width="2" stroke-linejoin="round" filter="url(#fuzzy)" /><polyline points="30.7,-74.28 31.98,-73.6 33.4,-73.36 34.69,-73.33 35.8,-73.18 36.73,-72.76 37.53,-72.14 38.24,-71.49 38.92,-70.9 39.61,-70.36 40.35,-69.77 41.15,-69.1 42.03,-68.32 42.95,-67.52 43.92,-66.77 44.91,-66.13 45.92,-65.62 46.94,-65.17 47.97,-64.67 49.04,-63.99 50.3,-62.93 31.09,-73.73 31.55,-74.52 32.59,-74.63 33.62,-74.11 34.6,-73.52 35.57,-73.06 36.54,-72.69 37.45,-72.26 38.22,-71.71 38.82,-71.05 39.33,-70.41 39.95,-69.89 40.83,-69.44 41.98,-68.89 43.11,-68.18 43.64,-68.04 27.85,-76.3 28.51,-76.81 29.55,-76.84 30.51,-76.19 31.38,-75.28 32.27,-74.42 33.19,-73.68 34.12,-73.04 35.01,-72.43 35.88,-71.81 36.72,-71.21 37.56,-70.72 38.36,-70.44 39.13,-70.4 39.89,-70.53 40.72,-70.49 41.5,-69.84 11.18,-91.81 11.26,-91.46 11.82,-90.93 12.5,-90.38 13.26,-89.65 14.1,-88.77 15,-87.87 15.9,-87.09 16.8,-86.51 17.7,-86.11 18.62,-85.86 19.57,-85.65 20.53,-85.4 21.48,-84.98 22.42,-84.29 23.34,-83.33 24.26,-82.16 25.15,-80.95 25.97,-79.82 26.67,-78.78 27.29,-77.75 27.93,-76.18 25.63,-78.23 26.44,-78.26 27.27,-78.41 27.92,-78.26 28.47,-77.93 29.1,-77.57 29.87,-77.21 30.77,-76.8 31.73,-76.32 32.73,-75.77 33.7,-75.14 34.62,-74.43 35.47,-73.65 36.28,-72.84 37.05,-72.06 37.81,-71.4 38.53,-70.88 39.19,-70.47 39.85,-70.08 40.64,-69.53 41.81,-68.59 43.7,-67.04 24.68,-78.72 23.43,-79.86 22.5,-81.51 21.7,-82.81 20.88,-83.66 20.06,-84.41 19.27,-85.32 18.53,-86.46 17.84,-87.81 17.14,-89.33 16.41,-90.99 15.65,-92.8 14.9,-94.76 14.19,-96.84 13.54,-99.02 12.93,-101.29 12.28,-103.78 11.56,-106.71 10.87,-110.04 10.94,-112.28" fill="none" stroke="rgb(149, 69, 53)" stroke-width="2" stroke-linejoin="round" filter="url(#fuzzy)" /><polyline points="23.26,-79.48 24.3,-78.42 24.76,-76.59 25.05,-74.78 25.39,-73.48 25.8,-72.64 26.26,-72.02 26.77,-71.45 27.38,-70.87 28.08,-70.25 28.84,-69.57 29.58,-68.74 30.23,-67.68 30.75,-66.38 31.16,-64.93 31.52,-63.49 31.9,-62.18 32.3,-61.1 32.69,-60.22 33.01,-59.43 33.24,-58.53 33.4,-57.23 33.67,-55.31 34.78,-53.35" fill="none" stroke="rgb(149, 69, 53)" stroke-width="2" stroke-linejoin="round" filter="url(#fuzzy)" /><polyline points="0.41,-97.22 1.36,-97.09 2.41,-96.3 3.35,-95.56 4.17,-94.74 4.93,-93.77 5.74,-92.72 6.61,-91.69 7.53,-90.75 8.45,-89.99 9.36,-89.43 10.23,-89.06 11.08,-88.81 11.9,-88.55 12.71,-88.11 13.52,-87.42 14.36,-86.51 15.21,-85.57 16.08,-84.87 16.99,-84.6 17.94,-84.69 18.9,-84.6 19.66,-83.41 19.92,-81.39" fill="none" stroke="rgb(149, 69, 53)" stroke-width="2" stroke-linejoin="round" filter="url(#fuzzy)" /><polyline points="19.92,-81.39 20.91,-81.11 22.02,-80.79 23.26,-80.59 24.5,-80.45 25.61,-80.28 26.52,-79.97 27.25,-79.5 27.87,-78.98 28.47,-78.51 29.16,-78.2 30.01,-78.07 31.03,-78.09 32.22,-78.19 33.51,-78.3 34.83,-78.34 36.09,-78.23 37.23,-77.97 38.3,-77.65 39.52,-77.44 40.91,-77.22" fill="none" stroke="rgb(149, 69, 53)" stroke-width="2" stroke-linejoin="round" filter="url(#fuzzy)" /><polyline points="19.67,-81.78 18.43,-82.49 17.56,-83.4 16.85,-84.33 16.09,-85.08 15.2,-85.53 14.24,-85.77 13.29,-85.93 12.39,-86.13 11.57,-86.45 10.77,-86.89 9.97,-87.45 9.14,-88.1 8.27,-88.79 7.38,-89.48 6.47,-90.09 5.59,-90.6 4.75,-90.99 3.93,-91.29 3.09,-91.5 2.2,-91.7 1.25,-91.93 0.31,-92.27 -0.57,-92.72 -1.35,-93.17" fill="none" stroke="rgb(149, 69, 53)" stroke-width="2" stroke-linejoin="round" filter="url(#fuzzy)" /><polyline points="19.67,-81.78 20.18,-81.49 21.08,-81.45 22.29,-81.73 23.65,-82.08 24.94,-82.21 26.05,-82.03 26.98,-81.67 27.81,-81.34 28.58,-81.18 29.38,-81.23 30.26,-81.47 31.3,-81.88 32.57,-82.45 34.02,-83.11 35.53,-83.62 36.99,-83.62 38.51,-82.95 40.33,-82.01 15,-83.82 13.62,-84.16 12.64,-84.61 11.91,-85.1 11.24,-85.58 10.53,-86.07 9.76,-86.62 8.93,-87.28 8.06,-88.07 7.17,-88.94 6.28,-89.82 5.43,-90.6 4.61,-91.22 3.8,-91.66 2.97,-91.97 2.08,-92.24 1.15,-92.56 0.2,-93.03 -0.76,-93.71 -1.73,-94.57 -2.71,-95.29 -3.53,-95.44 12.01,-84.43 12.45,-84.86 13.55,-85.08 14.73,-85.18 15.83,-85.32 16.88,-85.67 17.98,-86.31 19.14,-87.13 20.32,-87.85 21.46,-88.24 22.56,-88.21 23.65,-87.87 24.78,-87.43 25.96,-87.06 27.18,-86.9 28.4,-86.98 29.58,-87.29 30.7,-87.83 31.77,-88.57 32.81,-89.49 33.93,-90.34 35.4,-90.65 38,-90.13" fill="none" stroke="rgb(149, 69, 53)" stroke-width="2" stroke-linejoin="round" filter="url(#fuzzy)" /><polyline points="9.9,-85.31 11.03,-85.4 12.06,-87.01 13.25,-89.39 14.55,-91.33 15.77,-92.19 16.81,-92.05 17.69,-91.35 18.52,-90.53 19.37,-89.85 20.29,-89.4 21.31,-89.27 22.46,-89.59 23.82,-90.49 25.48,-91.89 27.44,-93.32 29.33,-93.54" fill="none" stroke="rgb(149, 69, 53)" stroke-width="2" stroke-linejoin="round" filter="url(#fuzzy)" /><polyline points="7.44,-85.8 9.24,-85.36 10.2,-85.17 10.95,-84.99 11.67,-84.79 12.45,-84.57 13.33,-84.34 14.27,-84.12 15.23,-83.94 16.15,-83.79 17.05,-83.68 17.95,-83.59 18.87,-83.49 19.8,-83.35 20.7,-83.13 21.59,-82.82 22.57,-82.39 23.94,-81.81" fill="none" stroke="rgb(149, 69, 53)" stroke-width="2" stroke-linejoin="round" filter="url(#fuzzy)" /><polyline points="7.44,-85.8 9.26,-85.39 10.22,-85.18 10.98,-85 11.73,-84.82 12.54,-84.62 13.43,-84.38 14.36,-84.11 15.29,-83.82 16.2,-83.51 17.07,-83.18 17.94,-82.83 18.81,-82.45 19.7,-82.03 20.61,-81.57 21.57,-81.05 22.57,-80.49 23.62,-79.9 24.66,-79.31 25.63,-78.76 26.49,-78.25 27.28,-77.7 28.19,-76.9 8.34,-85.62 8.35,-84.62 9,-83.07 9.67,-81.8 10.33,-81.03 11.01,-80.68 11.74,-80.43 12.51,-80.01 13.32,-79.35 14.11,-78.51 14.82,-77.63 15.46,-76.72 16.05,-75.67 16.63,-74.35 17.17,-72.75 17.45,-71.31 -12.68,-104 -11.87,-102.98 -11.12,-102.73 -10.3,-102.06 -9.36,-100.78 -8.3,-99.02 -7.15,-97.09 -5.94,-95.35 -4.71,-93.97 -3.51,-92.92 -2.37,-92.01 -1.31,-91.15 -0.31,-90.43 0.66,-90.12 1.63,-90.28 2.6,-90.47 3.51,-89.78 4.25,-87.71 4.49,-85.96 4.49,-85.96 4.19,-86.03 3.39,-86.13 2.47,-86.19 1.54,-86.21 0.64,-86.17 -0.27,-86.07 -1.19,-85.92 -2.16,-85.71 -3.17,-85.46 -4.21,-85.21 -5.22,-84.96 -6.17,-84.73 -7.03,-84.49 -7.79,-84.2 -8.45,-83.86 -9.03,-83.49 -9.57,-83.1 -10.07,-82.55 4.75,-85.95 4.65,-86.12 5.22,-86.13 6.2,-86.02 7.24,-85.91 8.21,-85.84 9.1,-85.8 9.93,-85.77 10.71,-85.72 11.46,-85.63 12.22,-85.51 13.07,-85.34 14.05,-85.09 15.14,-84.76 16.1,-84.44 16.56,-84.39 3.12,-86.29 4.38,-91.9 4.99,-93.67 5.75,-93.92 6.77,-93.92 7.93,-94.25 9.09,-95.02 10.22,-96.06 11.29,-97.17 12.29,-98.11 13.23,-98.7 14.14,-98.89 15.16,-98.89 16.4,-99.14 17.91,-100.11 19.45,-101.86 20.24,-103.14" fill="none" stroke="rgb(149, 69, 53)" stroke-width="2" stroke-linejoin="round" filter="url(#fuzzy)" /><polyline points="1.09,-86.39 2.21,-86.11 3.11,-85.85 3.84,-85.58 4.52,-85.14 5.25,-84.47 6.07,-83.68 6.93,-82.9 7.78,-82.23 8.61,-81.69 9.38,-81.22 10.13,-80.8 10.86,-80.38 11.61,-79.95 12.39,-79.49 13.2,-78.99 14.02,-78.46 14.82,-77.92 15.59,-77.39 16.35,-76.85 17.09,-76.22 17.8,-75.45 18.43,-74.49 18.94,-73.4 19.37,-72.4" fill="none" stroke="rgb(149, 69, 53)" stroke-width="2" stroke-linejoin="round" filter="url(#fuzzy)" /><polyline points="1.09,-86.39 2.21,-86.25 3.11,-86.07 3.85,-85.94 4.54,-85.85 5.32,-85.77 6.2,-85.67 7.13,-85.52 8.05,-85.32 8.92,-85.08 9.75,-84.82 10.53,-84.55 11.29,-84.27 12.07,-83.98 12.91,-83.69 13.82,-83.37 14.76,-83.02 15.65,-82.65 16.4,-82.3 17.09,-81.95 17.94,-81.41" fill="none" stroke="rgb(149, 69, 53)" stroke-width="2" stroke-linejoin="round" filter="url(#fuzzy)" /><polyline points="-1.25,-86.54 -3.77,-86.24 -5.91,-85.91 -7.76,-85.57 -9.6,-85.18 -11.73,-84.72 -14.32,-84.18 -17.37,-83.56 -20.66,-82.87 -23.87,-82.12 -26.8,-81.31 -29.45,-80.43 -32.05,-79.49 -34.85,-78.48 -38.01,-77.41 -41.47,-76.27 -45.06,-75.08 -48.62,-73.84 -52.18,-72.51 -55.9,-71.08 -60.03,-69.51 -64.78,-67.8 -70.1,-65.97 -75.64,-64.05 -80.78,-62.1 -85.12,-60.19 -88.99,-58.41 -92.27,-57.24" fill="none" stroke="rgb(149, 69, 53)" stroke-width="2" stroke-linejoin="round" filter="url(#fuzzy)" /><polyline points="-14.81,-83.7 -19.25,-82.89 -23.37,-82.05 -26.16,-81.21 -28.44,-80.32 -30.84,-79.37 -33.54,-78.33 -36.4,-77.22 -39.22,-76.06 -41.9,-74.85 -44.49,-73.59 -47.14,-72.24 -50.04,-70.78 -53.36,-69.18 -57.17,-67.46 -61.37,-65.64 -65.77,-63.77 -70.2,-61.9 -74.59,-60.09 -78.9,-58.37 -82.96,-56.75 -86.53,-55.15 -89.95,-53.33 -94.99,-50.87" fill="none" stroke="rgb(149, 69, 53)" stroke-width="2" stroke-linejoin="round" filter="url(#fuzzy)" /><polyline points="-17.34,-82.83 -19.44,-81.8 -21.74,-80.76 -23.96,-79.72 -25.96,-78.67 -27.87,-77.6 -29.81,-76.49 -31.83,-75.32 -33.84,-74.06 -35.76,-72.73 -37.59,-71.33 -39.42,-69.85 -41.35,-68.3 -43.49,-66.67 -45.89,-64.95 -48.5,-63.14 -51.19,-61.24 -53.84,-59.26 -56.35,-57.24 -58.73,-55.2 -61.05,-53.2 -63.43,-51.26 -65.92,-49.38 -68.52,-47.54 -71.13,-45.63 -73.65,-43.54 -76.13,-41.2 -78.77,-38.56 -81.69,-35.66 -83.9,-32.72" fill="none" stroke="rgb(149, 69, 53)" stroke-width="2" stroke-linejoin="round" filter="url(#fuzzy)" /><polyline points="-23.65,-79.24 -24.95,-78.57 -26.5,-77.54 -27.96,-76.44 -29.39,-75.28 -30.83,-74.02 -32.3,-72.68 -33.78,-71.26 -35.28,-69.77 -36.8,-68.21 -38.34,-66.58 -39.89,-64.85 -41.43,-63.03 -42.93,-61.12 -44.38,-59.14 -45.75,-57.11 -47.03,-55.07 -48.22,-53.08 -49.33,-51.14 -50.38,-49.27 -51.38,-47.4 -52.36,-45.46 -53.33,-43.35 -54.3,-41 -55.3,-38.43 -56.32,-35.7 -57.32,-33.05 -58.1,-30.88" fill="none" stroke="rgb(149, 69, 53)" stroke-width="2" stroke-linejoin="round" filter="url(#fuzzy)" /><polyline points="-24.77,-78.81 -29.31,-77.11 -32.01,-75.75 -34.59,-74.54 -37.7,-73.31 -41.37,-71.96 -45.42,-70.43 -49.55,-68.76 -53.39,-66.97 -56.57,-65.12 -58.86,-63.26 -60.37,-61.42 -61.5,-59.61 -62.84,-57.83 -64.93,-56.02 -68.05,-54.15 -72.13,-52.16 -76.81,-50.05 -81.59,-47.84 -86.05,-45.58 -89.97,-43.32 -93.45,-41.05 -96.78,-38.82 -100.11,-36.6 -103.47,-34.1" fill="none" stroke="rgb(149, 69, 53)" stroke-width="2" stroke-linejoin="round" filter="url(#fuzzy)" /><polyline points="-46.69,-54.1 -49.03,-51.52 -51.54,-49.7 -53.67,-48.05 -55.22,-46.24 -56.46,-44.15 -57.84,-41.81 -59.6,-39.3 -61.72,-36.7 -64.01,-34.08 -66.28,-31.5 -68.36,-28.95 -70.19,-26.43 -71.79,-23.9 -73.34,-21.34 -75.09,-18.72 -77.26,-16.07 -79.9,-13.39 -82.84,-10.7 -85.72,-8 -88.12,-5.29 -89.76,-2.62 -90.64,-0.01 -91.01,2.48 -91.24,4.83 -91.69,7.1 -92.55,9.37 -93.83,11.75 -95.38,14.26 -96.98,16.79 -97.52,19.09" fill="none" stroke="rgb(149, 69, 53)" stroke-width="2" stroke-linejoin="round" filter="url(#fuzzy)" /><polyline points="-48.41,-50.92 -49.4,-49.36 -50.75,-47.98 -52.59,-46.23 -54.8,-44.11 -57.18,-41.71 -59.55,-39.14 -61.75,-36.5 -63.7,-33.86 -65.39,-31.26 -66.89,-28.7 -68.28,-26.16 -69.55,-23.6 -70.67,-21 -71.59,-18.37 -72.29,-15.7 -72.85,-13.01 -73.4,-10.31 -74.09,-7.62 -75.01,-4.94 -76.16,-2.31 -77.42,0.26 -78.62,2.77 -79.55,5.22 -80.09,7.65 -80.26,10.08 -80.2,12.56 -80.14,15.1 -80.29,17.69 -80.69,20.31 -81.23,22.91 -81.63,25.46 -81.67,27.96 -81.33,30.42 -81.01,32.86 -81.24,35.27 -82.04,37.62 -81.6,40.17" fill="none" stroke="rgb(149, 69, 53)" stroke-width="2" stroke-linejoin="round" filter="url(#fuzzy)" /><polyline points="-49.81,-48.27 -52.15,-46.01 -54.72,-43.85 -57.18,-41.59 -59.42,-39.31 -61.44,-37.03 -63.32,-34.73 -65.34,-32.4 -67.87,-30.02 -71.17,-27.59 -75.15,-25.11 -79.39,-22.59 -83.3,-20.01 -86.32,-17.4 -88.23,-14.75 -89.19,-12.07 -89.67,-9.37 -90.3,-6.68 -91.56,-4.01 -93.56,-1.37 -96.03,1.23 -98.42,3.81 -100.16,6.4 -101.02,9 -101.21,11.62 -101.34,14.26 -102.03,16.9 -103.46,19.52 -105.35,22.16 -107.39,24.81 -109.86,27.41 -113.6,29.92" fill="none" stroke="rgb(149, 69, 53)" stroke-width="2" stroke-linejoin="round" filter="url(#fuzzy)" /><polyline points="-50.27,-47.02 -51.6,-44.41 -53.17,-41.85 -54.94,-39.18 -56.84,-36.46 -58.88,-33.78 -61.18,-31.2 -63.94,-28.71 -67.4,-26.26 -71.59,-23.79 -76.3,-21.25 -81.14,-18.65 -85.74,-16 -89.9,-13.33 -93.7,-10.66 -97.34,-7.97 -100.98,-5.27 -104.53,-2.57 -107.61,0.05 -109.78,2.53 -110.9,4.8 -111.26,6.93 -111.67,9.07 -113.4,11.48 -117.15,14.04" fill="none" stroke="rgb(149, 69, 53)" stroke-width="2" stroke-linejoin="round" filter="url(#fuzzy)" /><polyline points="-56.07,-29.9 -57.64,-27.13 -58.38,-24.57 -58.85,-21.99 -59.41,-19.39 -60.15,-16.76 -61.04,-14.08 -62,-11.37 -63.01,-8.64 -64.07,-5.93 -65.18,-3.26 -66.3,-0.63 -67.35,1.96 -68.24,4.55 -68.87,7.14 -69.25,9.75 -69.43,12.37 -69.54,14.99 -69.71,17.6 -70.01,20.19 -70.41,22.75 -70.79,25.25 -71,27.69 -70.92,30.07 -70.54,32.41 -69.99,34.73 -69.46,37.08 -69.12,39.45 -68.89,41.83 -68.49,44.2 -67.77,46.49 -67.17,48.6 -67.47,50.48" fill="none" stroke="rgb(149, 69, 53)" stroke-width="2" stroke-linejoin="round" filter="url(#fuzzy)" /><polyline points="-56.93,-26.68 -56.92,-25.31 -57.23,-23.23 -57.61,-20.6 -57.95,-17.79 -58.23,-14.99 -58.49,-12.26 -58.73,-9.55 -58.94,-6.85 -59.12,-4.17 -59.23,-1.53 -59.26,1.02 -59.22,3.5 -59.08,5.93 -58.86,8.35 -58.55,10.8 -58.16,13.29 -57.71,15.83 -57.22,18.4 -56.69,20.98 -56.13,23.55 -55.54,26.08 -54.93,28.59 -54.27,31.07 -53.57,33.52 -52.82,35.95 -52.01,38.35 -51.14,40.7 -50.21,43 -49.22,45.24 -48.18,47.43 -47.09,49.59 -45.95,51.78 -44.76,53.98 -43.55,56.14 -42.34,58.14 -41.18,59.95 -40.1,61.37" fill="none" stroke="rgb(149, 69, 53)" stroke-width="2" stroke-linejoin="round" filter="url(#fuzzy)" /><polyline points="56.5,-28.69 57.17,-26.98 58.14,-24.7 59.13,-22.04 59.93,-19.36 60.49,-16.72 60.84,-14.09 61.1,-11.4 61.34,-8.64 61.61,-5.83 61.9,-3.03 62.19,-0.3 62.47,2.34 62.71,4.89 62.92,7.38 63.09,9.86 63.21,12.34 63.26,14.85 63.21,17.39 63.05,19.95 62.78,22.53 62.42,25.11 62.05,27.68 61.67,30.23 61.29,32.75 60.85,35.23 60.34,37.66 59.82,39.99 59.37,42.11 59.03,43.57" fill="none" stroke="rgb(149, 69, 53)" stroke-width="2" stroke-linejoin="round" filter="url(#fuzzy)" /><polyline points="55.67,-32.09 60.42,-29.38 63.42,-27.12 64.81,-24.69 66.7,-22.1 69.22,-19.46 71.6,-16.84 73.53,-14.2 75.44,-11.51 77.98,-8.76 81.54,-5.95 86.05,-3.16 91.04,-0.43 95.88,2.2 99.96,4.75 102.84,7.24 104.26,9.71 104.26,12.19 103.17,14.69 101.62,17.23 100.37,19.79 100.05,22.37 100.83,24.95 102.42,27.53 104.34,30.09 106.41,32.61 108.61,35.1 110.24,37.51 110.19,39.53" fill="none" stroke="rgb(149, 69, 53)" stroke-width="2" stroke-linejoin="round" filter="url(#fuzzy)" /><polyline points="52.69,-41.19 53.31,-40.03 54.64,-38 56.53,-35.75 58.98,-33.49 61.68,-31.21 64.24,-28.9 66.6,-26.53 69.06,-24.1 71.9,-21.61 75.2,-19.06 78.71,-16.44 82.05,-13.75 84.96,-11 87.42,-8.23 89.74,-5.51 92.37,-2.89 95.62,-0.38 99.37,2.04 103.17,4.49 106.76,7.02 110.57,9.59 115.12,11.98 119.63,14.51" fill="none" stroke="rgb(149, 69, 53)" stroke-width="2" stroke-linejoin="round" filter="url(#fuzzy)" /><polyline points="42.18,-61.23 43.96,-58.59 45.48,-56.3 46.91,-54.24 48.42,-52.19 50.14,-50.05 52.04,-47.8 54.01,-45.49 55.93,-43.16 57.71,-40.83 59.32,-38.52 60.69,-36.21 61.77,-33.9 62.54,-31.57 63.05,-29.21 63.4,-26.81 63.74,-24.35 64.23,-21.84 64.95,-19.26 65.93,-16.62 67.16,-13.93 68.59,-11.19 70.15,-8.44 71.8,-5.72 73.45,-3.06 75.01,-0.48 76.38,2.04 77.47,4.55 78.27,7.07 78.77,9.6 79.09,12.1 79.46,14.54 80.03,16.93 80.05,19.2" fill="none" stroke="rgb(149, 69, 53)" stroke-width="2" stroke-linejoin="round" filter="url(#fuzzy)" /><polyline points="40.66,-63.39 42.55,-60.62 43.69,-58.65 44.5,-56.85 45.24,-54.97 46.03,-53.01 46.85,-51 47.62,-48.96 48.31,-46.86 48.94,-44.71 49.54,-42.49 50.14,-40.21 50.69,-37.89 51.13,-35.53 51.38,-33.14 51.38,-30.73 51.14,-28.28 50.74,-25.8 50.29,-23.27 49.92,-20.71 49.74,-18.13 49.73,-15.52 49.79,-12.88 49.76,-10.15 49.45,-7.3 48.81,-4.34 47.85,-1.37 46.71,1.41 45.53,3.71 44.23,5.11" fill="none" stroke="rgb(149, 69, 53)" stroke-width="2" stroke-linejoin="round" filter="url(#fuzzy)" /><polyline points="38.39,-66.39 40.67,-63.86 42.56,-62.15 45.11,-60.44 48.71,-58.56 53.12,-56.59 57.59,-54.58 61.28,-52.53 63.77,-50.41 65.23,-48.21 66.27,-45.95 67.61,-43.66 69.66,-41.37 72.53,-39.08 76.05,-36.81 79.92,-34.55 83.86,-32.28 87.64,-29.98 91.1,-27.64 94.19,-25.26 96.95,-22.83 99.52,-20.36 102.3,-17.84 106.06,-15.31 110.78,-12.94" fill="none" stroke="rgb(149, 69, 53)" stroke-width="2" stroke-linejoin="round" filter="url(#fuzzy)" /><polyline points="35.6,-69.53 38.69,-68.18 40.52,-66.85 43.33,-65.13 46.85,-63.17 50.42,-61.14 53.51,-59.13 55.76,-57.15 57.19,-55.19 58.04,-53.21 58.64,-51.2 59.27,-49.16 60.16,-47.06 61.45,-44.91 63.29,-42.7 65.71,-40.43 68.61,-38.12 71.69,-35.77 74.56,-33.38 76.84,-30.97 78.31,-28.52 79.03,-26.04 79.29,-23.51 79.53,-20.95 80.17,-18.36 81.48,-15.78 83.49,-13.17 86,-10.48 88.76,-7.61 91.47,-4.51 93.71,-1.32 94.91,1.56" fill="none" stroke="rgb(149, 69, 53)" stroke-width="2" stroke-linejoin="round" filter="url(#fuzzy)" /><polyline points="33.84,-71.19 36.1,-69.06 37.91,-67.32 39.9,-65.66 41.91,-64 43.63,-62.3 45.07,-60.53 46.46,-58.67 48.06,-56.74 49.96,-54.75 52.12,-52.69 54.37,-50.57 56.55,-48.38 58.57,-46.13 60.38,-43.85 61.99,-41.55 63.48,-39.26 64.97,-36.98 66.61,-34.71 68.51,-32.44 70.65,-30.14 72.91,-27.8 75.07,-25.41 77,-22.98 78.67,-20.51 80.03,-17.9 80.47,-15.41" fill="none" stroke="rgb(149, 69, 53)" stroke-width="2" stroke-linejoin="round" filter="url(#fuzzy)" /><polyline points="33.84,-71.19 35.47,-69.07 36.68,-67.34 37.97,-65.69 39.29,-64.05 40.56,-62.37 41.75,-60.62 42.87,-58.78 43.9,-56.87 44.85,-54.9 45.71,-52.87 46.49,-50.78 47.2,-48.61 47.87,-46.37 48.5,-44.08 49.08,-41.79 49.63,-39.51 50.12,-37.25 50.58,-35.01 50.98,-32.81 51.29,-30.66 51.51,-28.46 51.61,-25.74" fill="none" stroke="rgb(149, 69, 53)" stroke-width="2" stroke-linejoin="round" filter="url(#fuzzy)" /><polyline points="31.81,-73.28 30.12,-74.24 28.62,-75.39 26.97,-76.49 24.92,-77.57 22.47,-78.66 19.79,-79.73 17.12,-80.74 14.66,-81.66 12.55,-82.48 10.81,-83.2 9.37,-83.82 8.15,-84.36 7.02,-84.82 5.91,-85.21 4.77,-85.53 3.58,-85.78 2.35,-85.95 1.1,-86.05 -0.14,-86.06 -1.34,-86 -2.49,-85.84 -3.58,-85.61 -4.61,-85.3 -5.55,-84.92 -6.37,-84.46 -7.01,-83.92 -7.4,-83.31 -7.49,-82.61 -7.25,-81.86 -6.72,-81.04 -6.08,-80.15 -6.18,-79.11" fill="none" stroke="rgb(149, 69, 53)" stroke-width="2" stroke-linejoin="round" filter="url(#fuzzy)" /><polyline points="19.92,-81.39 20.82,-82.16 21.05,-82.9 19.34,-83.56 17.11,-84.12 15.13,-84.6 13.36,-85.01 11.51,-85.37 9.39,-85.66 6.99,-85.89 4.41,-86.05 1.71,-86.12 -1.06,-86.12 -3.91,-86.03 -6.85,-85.85 -9.9,-85.6 -13.07,-85.28 -16.34,-84.88 -19.73,-84.41 -23.28,-83.86 -27.06,-83.24 -31.15,-82.55 -35.55,-81.8 -40.11,-81 -44.58,-80.17 -48.72,-79.37 -51.79,-78.81" fill="none" stroke="rgb(149, 69, 53)" stroke-width="2" stroke-linejoin="round" filter="url(#fuzzy)" /><polyline points="17.04,-82.88 16.72,-83.27 16.2,-83.84 15.33,-84.42 13.72,-84.91 11.53,-85.32 9.1,-85.63 6.67,-85.86 4.3,-86.03 1.98,-86.13 -0.36,-86.16 -2.79,-86.11 -5.33,-85.97 -8.01,-85.75 -10.82,-85.46 -13.73,-85.08 -16.7,-84.63 -19.66,-84.1 -22.58,-83.49 -25.48,-82.79 -28.44,-82.01 -31.6,-81.15 -35.06,-80.22 -38.8,-79.24 -42.65,-78.22 -46.34,-77.15 -49.69,-76.04 -52.77,-74.87 -55.87,-73.61 -59.31,-72.28 -63.28,-70.91 -67.98,-69.51 -73.68,-67.8" fill="none" stroke="rgb(149, 69, 53)" stroke-width="2" stroke-linejoin="round" filter="url(#fuzzy)" /><polyline points="3.74,-86.32 3.61,-86.18 2.25,-86.24 0.43,-86.29 -1.62,-86.24 -3.78,-86.08 -6.01,-85.84 -8.27,-85.52 -10.53,-85.13 -12.8,-84.67 -15.06,-84.13 -17.29,-83.53 -19.46,-82.85 -21.58,-82.1 -23.7,-81.29 -25.86,-80.41 -28.12,-79.47 -30.53,-78.46 -33.11,-77.39 -35.86,-76.25 -38.75,-75.05 -41.75,-73.78 -44.84,-72.43 -47.98,-70.97 -51.18,-69.39 -54.41,-67.69 -57.62,-65.87 -60.76,-63.99 -63.74,-62.1 -66.58,-60.24 -69.32,-58.5 -71.93,-56.91 -74.29,-55.46 -75.76,-54.06" fill="none" stroke="rgb(149, 69, 53)" stroke-width="2" stroke-linejoin="round" filter="url(#fuzzy)" /><polyline points="3.74,-86.32 3.62,-86.18 2.25,-86.24 0.36,-86.29 -1.72,-86.23 -3.83,-86.07 -5.93,-85.83 -8.09,-85.5 -10.44,-85.11 -13.01,-84.65 -15.75,-84.11 -18.53,-83.5 -21.26,-82.81 -23.9,-82.06 -26.54,-81.24 -29.33,-80.36 -32.42,-79.41 -35.83,-78.39 -39.47,-77.31 -43.13,-76.16 -46.58,-74.94 -49.69,-73.65 -52.49,-72.27 -55.17,-70.79 -58,-69.2 -61.18,-67.5 -64.78,-65.72 -68.68,-63.88 -72.67,-62.02 -76.57,-60.19 -80.3,-58.41 -83.83,-56.65 -87.05,-54.85 -89.84,-52.9 -92.44,-50.67 -95.65,-48.16 -99.95,-45.51" fill="none" stroke="rgb(149, 69, 53)" stroke-width="2" stroke-linejoin="round" filter="url(#fuzzy)" />
    </g>
    
        <g id="pointNose">
          <g id="rightNose"><circle r="1.72" cx="9.53" cy="18.566" stroke="black" fill="none" stroke-width="1.0" filter="url(#fuzzy)" /><circle r="2.8040000000000003" cx="7.962" cy="21.442" stroke="black" fill="none" stroke-width="1.0" filter="url(#fuzzy)" /><circle r="2.34" cx="9.293999999999999" cy="19.338" stroke="black" fill="none" stroke-width="1.0" filter="url(#fuzzy)" /><circle r="1.998" cx="8.829999999999998" cy="20.53" stroke="black" fill="none" stroke-width="1.0" filter="url(#fuzzy)" /><circle r="1.248" cx="7.042" cy="18.87" stroke="black" fill="none" stroke-width="1.0" filter="url(#fuzzy)" /><circle r="1.092" cx="7.754" cy="20.753999999999998" stroke="black" fill="none" stroke-width="1.0" filter="url(#fuzzy)" /><circle r="2.49" cx="8.049999999999999" cy="22.054" stroke="black" fill="none" stroke-width="1.0" filter="url(#fuzzy)" /><circle r="1.458" cx="9.274" cy="20.794" stroke="black" fill="none" stroke-width="1.0" filter="url(#fuzzy)" /><circle r="2.886" cx="6.686" cy="21.342" stroke="black" fill="none" stroke-width="1.0" filter="url(#fuzzy)" /><circle r="2.0380000000000003" cx="9.725999999999999" cy="20.314" stroke="black" fill="none" stroke-width="1.0" filter="url(#fuzzy)" /></g>
          <g id="leftNose"><circle r="2.808" cx="-8.129999999999999" cy="28.186" stroke="black" fill="none" stroke-width="1.0" filter="url(#fuzzy)" /><circle r="1.612" cx="-9.802" cy="24.914" stroke="black" fill="none" stroke-width="1.0" filter="url(#fuzzy)" /><circle r="1.256" cx="-6.837999999999999" cy="26.498" stroke="black" fill="none" stroke-width="1.0" filter="url(#fuzzy)" /><circle r="2.092" cx="-8.91" cy="28.194" stroke="black" fill="none" stroke-width="1.0" filter="url(#fuzzy)" /><circle r="2.85" cx="-8.294" cy="26.01" stroke="black" fill="none" stroke-width="1.0" filter="url(#fuzzy)" /><circle r="2.6" cx="-8.046" cy="27.182000000000002" stroke="black" fill="none" stroke-width="1.0" filter="url(#fuzzy)" /><circle r="1.312" cx="-7.2139999999999995" cy="25.650000000000002" stroke="black" fill="none" stroke-width="1.0" filter="url(#fuzzy)" /><circle r="1.534" cx="-6.805999999999999" cy="27.046" stroke="black" fill="none" stroke-width="1.0" filter="url(#fuzzy)" /><circle r="2.534" cx="-8.41" cy="27.866" stroke="black" fill="none" stroke-width="1.0" filter="url(#fuzzy)" /><circle r="2.142" cx="-8.038" cy="27.97" stroke="black" fill="none" stroke-width="1.0" filter="url(#fuzzy)" /></g>
        </g>
      
    <g id="mouth">
      <polyline points="-23.9,49.95 -23.22,49.4 -22.55,48.86 -21.89,48.33 -21.24,47.82 -20.6,47.32 -19.96,46.83 -19.33,46.35 -18.71,45.89 -18.1,45.44 -17.49,45 -16.89,44.58 -16.29,44.17 -15.71,43.77 -15.13,43.38 -14.55,43.01 -13.98,42.65 -13.42,42.3 -12.87,41.96 -12.32,41.64 -11.77,41.33 -11.23,41.03 -10.7,40.75 -10.17,40.48 -9.65,40.22 -9.13,39.97 -8.62,39.73 -8.12,39.51 -7.61,39.3 -7.12,39.11 -6.63,38.92 -6.14,38.75 -5.65,38.59 -5.17,38.44 -4.7,38.31 -4.23,38.18 -3.76,38.07 -3.3,37.98 -2.84,37.89 -2.38,37.82 -1.93,37.76 -1.48,37.71 -1.03,37.67 -0.59,37.65 -0.15,37.64 0.29,37.64 0.72,37.65 1.15,37.68 1.58,37.72 2.01,37.77 2.43,37.83 2.86,37.9 3.28,37.99 3.7,38.09 4.11,38.2 4.53,38.32 4.94,38.46 5.36,38.61 5.77,38.77 6.18,38.94 6.59,39.12 7,39.32 7.4,39.53 7.81,39.75 8.22,39.98 8.62,40.22 9.03,40.48 9.43,40.75 9.84,41.03 10.24,41.32 10.65,41.62 11.05,41.94 11.46,42.27 11.87,42.61 12.27,42.96 12.68,43.32 13.09,43.7 13.5,44.09 13.91,44.49 14.33,44.9 14.74,45.32 15.15,45.75 15.57,46.2 15.99,46.66 16.41,47.13 16.83,47.61 17.26,48.1 17.68,48.61 18.11,49.13 18.54,49.66 18.98,50.2 19.42,50.75 19.85,51.31 20.3,51.89 20.74,52.48 21.19,53.07 21.64,53.69 22.1,54.31 22.56,54.94 23.02,55.59 23.02,55.59 22.55,55.19 22.08,54.8 21.61,54.41 21.14,54.03 20.67,53.66 20.2,53.3 19.74,52.94 19.27,52.59 18.8,52.25 18.33,51.91 17.86,51.58 17.39,51.26 16.92,50.94 16.45,50.63 15.98,50.33 15.51,50.03 15.04,49.74 14.57,49.46 14.11,49.18 13.64,48.91 13.17,48.65 12.7,48.4 12.23,48.15 11.76,47.91 11.29,47.67 10.82,47.44 10.35,47.22 9.88,47.01 9.41,46.8 8.95,46.6 8.48,46.41 8.01,46.22 7.54,46.04 7.07,45.87 6.6,45.71 6.13,45.55 5.66,45.4 5.19,45.25 4.72,45.11 4.25,44.98 3.78,44.86 3.32,44.74 2.85,44.63 2.38,44.53 1.91,44.44 1.44,44.35 0.97,44.27 0.5,44.19 0.03,44.13 -0.44,44.07 -0.91,44.01 -1.38,43.97 -1.85,43.93 -2.31,43.9 -2.78,43.87 -3.25,43.86 -3.72,43.85 -4.19,43.84 -4.66,43.85 -5.13,43.86 -5.6,43.88 -6.07,43.9 -6.54,43.94 -7.01,43.98 -7.48,44.03 -7.94,44.08 -8.41,44.14 -8.88,44.21 -9.35,44.29 -9.82,44.37 -10.29,44.46 -10.76,44.56 -11.23,44.66 -11.7,44.78 -12.17,44.9 -12.64,45.02 -13.11,45.16 -13.57,45.3 -14.04,45.45 -14.51,45.6 -14.98,45.77 -15.45,45.94 -15.92,46.12 -16.39,46.3 -16.86,46.5 -17.33,46.7 -17.8,46.9 -18.27,47.12 -18.74,47.34 -19.2,47.57 -19.67,47.81 -20.14,48.05 -20.61,48.3 -21.08,48.56 -21.55,48.83 -22.02,49.11 -22.49,49.39 -22.96,49.68 -23.43,49.97" fill="rgb(215,127,140)" stroke="black" stroke-width="3" stroke-linejoin="round" filter="url(#fuzzy)" />
    </g>
  </svg>