<svg viewBox="-100 -100 200 200" xmlns="http://www.w3.org/2000/svg" width="500" height="500" id="face-svg">
    <defs>
      <clipPath id="leftEyeClipPath">
        <polyline points="21.2,-6.16 20.93,-6.31 20.65,-6.46 20.33,-6.6 20,-6.74 19.64,-6.87 19.27,-7 18.88,-7.11 18.46,-7.23 18.04,-7.34 17.6,-7.45 17.14,-7.55 16.67,-7.65 16.19,-7.74 15.7,-7.83 15.2,-7.92 14.6,-8 13.99,-8.08 13.36,-8.16 12.73,-8.23 12.1,-8.31 11.45,-8.38 10.81,-8.46 10.16,-8.53 9.5,-8.6 8.85,-8.66 8.19,-8.73 7.54,-8.79 6.88,-8.85 6.22,-8.91 5.57,-8.97 4.92,-9.02 4.27,-9.07 3.63,-9.11 2.99,-9.16 2.35,-9.2 1.72,-9.23 1.1,-9.26 0.48,-9.29 -0.14,-9.31 -0.74,-9.32 -1.34,-9.34 -1.92,-9.34 -2.5,-9.34 -3.07,-9.34 -3.64,-9.33 -4.19,-9.32 -4.73,-9.3 -5.26,-9.27 -5.78,-9.24 -6.29,-9.2 -6.78,-9.16 -7.27,-9.11 -7.74,-9.05 -8.2,-8.99 -8.65,-8.92 -9.09,-8.85 -9.51,-8.77 -9.92,-8.69 -10.32,-8.6 -10.7,-8.5 -11.07,-8.4 -11.43,-8.3 -11.77,-8.19 -12.1,-8.07 -12.41,-7.96 -12.72,-7.83 -13.01,-7.7 -13.29,-7.57 -13.55,-7.43 -13.81,-7.29 -14.05,-7.14 -14.28,-6.99 -14.5,-6.83 -14.71,-6.67 -14.9,-6.5 -15.08,-6.33 -15.25,-6.15 -15.4,-5.97 -15.55,-5.79 -15.03,-1.99 -14.78,-1.66 -14.53,-1.33 -14.27,-1 -13.99,-0.67 -13.71,-0.33 -13.42,0.01 -13.12,0.35 -12.81,0.69 -12.49,1.04 -12.16,1.38 -11.82,1.73 -11.47,2.08 -11.12,2.42 -10.76,2.77 -10.39,3.11 -10.01,3.46 -9.62,3.8 -9.22,4.15 -8.81,4.49 -8.39,4.83 -7.96,5.17 -7.53,5.5 -7.09,5.83 -6.64,6.15 -6.19,6.46 -5.73,6.76 -5.26,7.05 -4.79,7.33 -4.31,7.6 -3.82,7.85 -3.33,8.08 -2.84,8.31 -2.34,8.51 -1.84,8.7 -1.33,8.86 -0.82,9.01 -0.3,9.14 0.22,9.24 0.74,9.32 1.27,9.38 1.8,9.42 2.34,9.43 2.88,9.42 3.42,9.38 3.97,9.32 4.52,9.23 5.08,9.12 5.64,8.98 6.2,8.82 6.77,8.63 7.35,8.41 7.92,8.17 8.51,7.9 9.09,7.61 9.68,7.3 10.27,6.97 10.87,6.61 11.47,6.23 12.07,5.84 12.67,5.42 13.28,4.99 13.88,4.54 14.49,4.08 15.09,3.61 15.56,3.26 16.03,2.91 16.49,2.55 16.94,2.19 17.38,1.82 17.81,1.45 18.23,1.08 18.64,0.7 19.04,0.33 19.42,-0.04 19.78,-0.41 20.13,-0.78 20.46,-1.14 20.77,-1.49 21.05,-1.84" />
      </clipPath>
      <clipPath id="rightEyeClipPath">
        <polyline points="-23.3,-7.12 -23.06,-7.34 -22.79,-7.55 -22.49,-7.74 -22.17,-7.93 -21.82,-8.1 -21.44,-8.27 -21.04,-8.42 -20.62,-8.57 -20.18,-8.71 -19.72,-8.85 -19.25,-8.97 -18.76,-9.09 -18.26,-9.2 -17.74,-9.3 -17.22,-9.4 -16.56,-9.5 -15.89,-9.59 -15.21,-9.67 -14.53,-9.75 -13.84,-9.83 -13.15,-9.9 -12.46,-9.97 -11.77,-10.04 -11.08,-10.1 -10.39,-10.16 -9.71,-10.21 -9.03,-10.26 -8.35,-10.31 -7.67,-10.35 -7.01,-10.39 -6.34,-10.43 -5.69,-10.46 -5.04,-10.49 -4.4,-10.52 -3.77,-10.54 -3.15,-10.56 -2.54,-10.58 -1.94,-10.59 -1.34,-10.6 -0.76,-10.6 -0.19,-10.6 0.37,-10.6 0.92,-10.59 1.46,-10.58 1.98,-10.56 2.5,-10.54 3,-10.52 3.49,-10.49 3.97,-10.46 4.44,-10.42 4.89,-10.37 5.34,-10.33 5.77,-10.28 6.19,-10.22 6.59,-10.16 6.98,-10.1 7.37,-10.03 7.74,-9.95 8.09,-9.87 8.44,-9.79 8.77,-9.71 9.09,-9.61 9.4,-9.52 9.7,-9.42 9.98,-9.32 10.26,-9.21 10.52,-9.1 10.78,-8.99 11.02,-8.87 11.25,-8.75 11.48,-8.62 11.69,-8.49 11.89,-8.35 12.09,-8.21 12.27,-8.06 12.44,-7.91 12.61,-7.76 12.76,-7.6 12.9,-7.44 12.92,-3.06 12.73,-2.71 12.54,-2.36 12.34,-2 12.13,-1.63 11.92,-1.26 11.7,-0.88 11.48,-0.5 11.24,-0.12 11.01,0.27 10.76,0.66 10.51,1.05 10.25,1.44 9.99,1.84 9.73,2.24 9.45,2.64 9.17,3.04 8.88,3.45 8.59,3.86 8.28,4.27 7.97,4.67 7.66,5.08 7.34,5.48 7.01,5.88 6.67,6.27 6.33,6.66 5.98,7.04 5.63,7.41 5.26,7.76 4.9,8.11 4.52,8.44 4.14,8.76 3.74,9.06 3.35,9.34 2.94,9.61 2.52,9.85 2.1,10.08 1.66,10.28 1.22,10.45 0.76,10.6 0.3,10.73 -0.18,10.83 -0.67,10.89 -1.17,10.94 -1.68,10.95 -2.21,10.92 -2.75,10.87 -3.3,10.79 -3.87,10.67 -4.45,10.52 -5.05,10.34 -5.66,10.13 -6.29,9.88 -6.93,9.6 -7.58,9.29 -8.25,8.94 -8.94,8.56 -9.64,8.16 -10.35,7.72 -11.07,7.25 -11.81,6.76 -12.56,6.24 -13.31,5.7 -14.08,5.13 -14.85,4.55 -15.42,4.14 -15.98,3.72 -16.55,3.29 -17.1,2.86 -17.65,2.41 -18.19,1.96 -18.72,1.51 -19.24,1.05 -19.74,0.59 -20.23,0.13 -20.7,-0.33 -21.15,-0.78 -21.58,-1.23 -21.98,-1.67 -22.35,-2.11" />
      </clipPath>
      <filter id="fuzzy">
        <feTurbulence id="turbulence" baseFrequency="0.05" numOctaves="3" type="noise" result="noise" />
        <feDisplacementMap in="SourceGraphic" in2="noise" scale="2" />
      </filter>
      <linearGradient id="rainbowGradient" x1="0%" y1="0%" x2="100%" y2="0%">
        <stop offset="0%" style="stop-color: [object Object]; stop-opacity: 1" />
        <stop offset="50%" style="stop-color: [object Object]; stop-opacity: 1" />
        <stop offset="100%" style="stop-color: [object Object]; stop-opacity: 1" />
      </linearGradient>
    </defs>
    <rect x="-100" y="-100" width="100%" height="100%" fill="rgb(255, 255, 224)" />
    <polyline id="faceContour" points="54.14,0.38 54.06,0.09 53.94,1.92 53.98,2.25 53.94,4.11 53.8,4.83 53.84,7.68 53.72,8.94 53.5,11.18 53.53,9.95 53.35,11.47 53.06,13.53 52.87,15.22 52.81,16.58 52.77,15.99 52.36,19.04 52.34,18.65 52.06,20.31 51.96,21.21 51.67,23.12 51.43,23.45 51.04,24.81 50.8,26.42 50.5,27.69 50.27,27.97 50,29.3 49.73,29.96 49.3,31.69 49.13,32.44 48.3,34.63 47.9,35.67 47.93,35.46 47.4,37.09 47.36,37.39 46.27,39.59 46.07,40.47 45.85,40.77 44.35,43.88 44.45,43.94 44.41,43.66 43.48,45.48 42.52,47.44 42.71,47.33 42.62,47.39 42.06,48.53 41.83,48.73 40.19,51.61 39.21,53.19 39.57,52.69 38.07,54.95 37.25,56.02 37.4,55.71 36.88,56.37 36.43,57.05 36.06,57.34 35.64,58.31 34.63,59.1 33.96,60.08 33.96,59.92 32.63,61.62 31.58,62.69 30.51,63.59 30.43,63.75 29.6,64.95 27.69,66.27 29.2,64.87 27.45,66.48 26.68,66.93 25.63,67.71 24.07,69.06 24.45,68.86 22.95,69.74 23.21,69.84 22.29,70.3 21.71,70.56 20.91,71.21 20.83,71.26 17.9,72.92 17.35,73.18 16.79,73.3 16.7,73.29 16.28,73.62 15.25,73.92 15.15,74.16 13.76,74.75 13.03,74.9 12.03,75.23 9.82,75.8 10.68,75.51 9.22,76.17 8.75,76.01 7.67,76.32 6.86,76.47 6.34,76.51 4.84,77.01 4.34,76.82 2.44,76.97 3.97,77.07 2.31,77.12 1.58,77.28 0.07,77.25 -1.39,77.09 -1.12,77.17 -2.01,77.23 -3.87,76.91 -3.93,77.05 -5.86,76.75 -6.24,76.8 -7.23,76.45 -7.88,76.35 -6.85,76.64 -8.96,76.16 -9.68,75.88 -12.27,75.12 -12.52,75.24 -13.22,74.82 -14.3,74.36 -14.09,74.5 -15.89,73.67 -16.11,73.8 -15.57,73.96 -17.6,73.2 -18.27,72.79 -18.07,72.88 -20.42,71.62 -20.63,71.16 -21.34,70.79 -23,69.72 -23.54,69.61 -23.7,69.19 -24.09,69.1 -24.23,68.85 -25.99,67.58 -26.73,66.91 -27.54,66.6 -28.31,65.57 -28.94,65.35 -29.77,64.53 -30.45,63.67 -30.19,64 -32.7,61.19 -32.27,61.8 -33.42,60.77 -33.57,60.3 -34.66,59.03 -34.75,59.03 -35.51,58.19 -36.71,56.63 -36.83,56.47 -36.56,56.75 -37.95,55 -38.36,54.35 -38.38,54.3 -40.48,50.98 -40.29,51.33 -41.39,49.47 -41.97,48.67 -42.26,48.06 -42.53,47.43 -42.27,47.87 -43.54,45.6 -44.21,44.4 -44.72,43.56 -45.09,42.43 -46.05,40.2 -45.8,40.7 -46.39,39.43 -47.16,38.03 -47.17,37 -47.69,36.17 -47.93,35.48 -48.44,33.92 -49.14,31.63 -49.05,32.57 -49.15,31.97 -49.89,29.07 -50.58,27.52 -50.53,27.12 -51.04,25.51 -51.09,24.54 -51.31,24.59 -51.43,23.37 -51.7,22.05 -52.07,20.7 -52.25,19.72 -52.61,16.97 -52.63,17.46 -52.55,17.04 -53.34,12.88 -53.17,13.22 -53.52,11.42 -53.27,11.86 -53.54,9.52 -53.59,8.45 -53.76,8.46 -53.75,5.97 -53.92,5.76 -53.98,4.83 -53.86,2.47 -53.97,2.05 -53.98,0.3 -54.01,-1.57 -53.92,-4.03 -54.07,-2.53 -53.94,-5.02 -53.9,-6.62 -53.68,-7.54 -53.7,-9.2 -53.61,-9.93 -53.56,-9.38 -53.55,-10.75 -53.24,-12.59 -52.91,-14.77 -52.65,-17.14 -52.82,-15.94 -52.85,-16.11 -52.32,-19.13 -51.91,-21.48 -51.41,-23.57 -51.41,-24.18 -51.37,-23.98 -51.1,-25.09 -51.15,-25.15 -50.12,-28.37 -49.79,-30.2 -49.99,-29.54 -49.71,-30.19 -48.96,-32.58 -49.22,-31.82 -48.41,-34.4 -47.51,-36.37 -47.76,-35.99 -47.31,-36.86 -46.96,-37.82 -46.54,-38.84 -45.55,-41.43 -45.53,-41.38 -44.4,-44.12 -45.23,-42.3 -43.6,-45.19 -43.6,-45.15 -42.55,-47.19 -42.93,-46.79 -41.94,-48.58 -41.51,-49.49 -41.18,-49.59 -40.91,-50.25 -40.21,-51.38 -39.21,-53.13 -39.22,-52.93 -38.49,-54.23 -37.54,-55.65 -36.78,-56.45 -35.9,-57.49 -35.19,-58.56 -35.17,-58.55 -34.28,-59.5 -33.48,-60.25 -33.1,-61.1 -32.75,-61.17 -32.03,-62.26 -31.15,-63.09 -30.19,-64.18 -29.44,-64.81 -29.95,-64.2 -29.35,-64.94 -27.38,-66.54 -27.57,-66.34 -26.19,-67.57 -25.21,-68.38 -24.17,-68.93 -23.41,-69.81 -22.64,-70.31 -22.89,-69.96 -21.73,-70.55 -20.14,-71.68 -19.19,-72.09 -20.42,-71.59 -18.96,-72.11 -16.77,-73.53 -16.64,-73.39 -15.71,-73.86 -14.79,-74.14 -12.94,-74.97 -14.04,-74.61 -11.85,-75.48 -11.44,-75.57 -10.79,-75.48 -9.28,-76.1 -9.31,-76.04 -8.57,-76.26 -7.17,-76.36 -6.81,-76.64 -5.37,-76.73 -5.73,-76.79 -4.12,-76.76 -4.31,-77.02 -2.71,-77.22 -1.76,-77.28 -0.17,-77.22 0.09,-77.34 1.73,-77.08 2.03,-77.25 1.28,-77.22 3.46,-77 3.81,-77.11 4.52,-76.93 6.35,-76.47 6.55,-76.43 7.16,-76.37 8.08,-76.24 8.32,-76.28 10.23,-75.82 10.15,-75.86 11.47,-75.4 11.29,-75.57 12.98,-75 14.63,-74.28 15.3,-73.88 15.41,-73.97 17.19,-73.16 17.04,-73.26 18.31,-72.68 18.13,-72.83 20.73,-71.38 20.08,-71.58 20.96,-70.97 22.91,-69.89 22.3,-70.25 24.22,-68.8 25.11,-68.3 26.19,-67.48 25.38,-68.02 26.14,-67.59 28.29,-65.96 28.57,-65.16 28.55,-65.55 28.73,-65.29 29.8,-64.58 31.17,-63.05 32.12,-61.9 32.94,-61.34 32.71,-61.29 32.93,-61.25 34.22,-59.88 35.87,-57.63 35.24,-58.27 35.7,-57.7 37.44,-55.49 37.07,-56.06 38.1,-54.71 39.07,-53.2 39.28,-53.28 39.85,-52.34 40.02,-51.96 41.48,-49.68 41.75,-49.4 41.66,-49.24 42.69,-47.15 42.5,-47.54 44.37,-44.15 44.25,-43.85 44.4,-43.65 46.01,-40.89 46.21,-40.06 46.38,-39.75 46.74,-38.59 46.66,-38.87 47.03,-38.12 47.99,-35.18 47.85,-35.76 48.74,-33.51 49.08,-31.6 49.15,-31.74 49.67,-30.2 49.92,-28.93 50.02,-29.45 50.53,-27.45 50.65,-26.57 51.16,-24.94 51.34,-23.89 51.42,-23.77 51.66,-22.96 52.27,-19.75 52.32,-18.73 52.56,-18.37 52.63,-17.11 52.95,-15.52 53.17,-14.32 53.38,-11.58 53.62,-10.52 53.44,-11.67 53.63,-9.17 53.81,-8.58 53.89,-7.84 53.84,-5.87 53.87,-5.08 54.05,-3.08 53.86,-4.34 54.01,-0.6 54.14,0.38 54.06,0.09" fill="rgb(255, 0, 255)" stroke="black" stroke-width="1.6666666666666665" stroke-linejoin="round" filter="url(#fuzzy)" />
    <g transform="translate(23.96 -22.78)">
      <polyline id="rightCountour" points="-23.3,-7.12 -23.06,-7.34 -22.79,-7.55 -22.49,-7.74 -22.17,-7.93 -21.82,-8.1 -21.44,-8.27 -21.04,-8.42 -20.62,-8.57 -20.18,-8.71 -19.72,-8.85 -19.25,-8.97 -18.76,-9.09 -18.26,-9.2 -17.74,-9.3 -17.22,-9.4 -16.56,-9.5 -15.89,-9.59 -15.21,-9.67 -14.53,-9.75 -13.84,-9.83 -13.15,-9.9 -12.46,-9.97 -11.77,-10.04 -11.08,-10.1 -10.39,-10.16 -9.71,-10.21 -9.03,-10.26 -8.35,-10.31 -7.67,-10.35 -7.01,-10.39 -6.34,-10.43 -5.69,-10.46 -5.04,-10.49 -4.4,-10.52 -3.77,-10.54 -3.15,-10.56 -2.54,-10.58 -1.94,-10.59 -1.34,-10.6 -0.76,-10.6 -0.19,-10.6 0.37,-10.6 0.92,-10.59 1.46,-10.58 1.98,-10.56 2.5,-10.54 3,-10.52 3.49,-10.49 3.97,-10.46 4.44,-10.42 4.89,-10.37 5.34,-10.33 5.77,-10.28 6.19,-10.22 6.59,-10.16 6.98,-10.1 7.37,-10.03 7.74,-9.95 8.09,-9.87 8.44,-9.79 8.77,-9.71 9.09,-9.61 9.4,-9.52 9.7,-9.42 9.98,-9.32 10.26,-9.21 10.52,-9.1 10.78,-8.99 11.02,-8.87 11.25,-8.75 11.48,-8.62 11.69,-8.49 11.89,-8.35 12.09,-8.21 12.27,-8.06 12.44,-7.91 12.61,-7.76 12.76,-7.6 12.9,-7.44 12.92,-3.06 12.73,-2.71 12.54,-2.36 12.34,-2 12.13,-1.63 11.92,-1.26 11.7,-0.88 11.48,-0.5 11.24,-0.12 11.01,0.27 10.76,0.66 10.51,1.05 10.25,1.44 9.99,1.84 9.73,2.24 9.45,2.64 9.17,3.04 8.88,3.45 8.59,3.86 8.28,4.27 7.97,4.67 7.66,5.08 7.34,5.48 7.01,5.88 6.67,6.27 6.33,6.66 5.98,7.04 5.63,7.41 5.26,7.76 4.9,8.11 4.52,8.44 4.14,8.76 3.74,9.06 3.35,9.34 2.94,9.61 2.52,9.85 2.1,10.08 1.66,10.28 1.22,10.45 0.76,10.6 0.3,10.73 -0.18,10.83 -0.67,10.89 -1.17,10.94 -1.68,10.95 -2.21,10.92 -2.75,10.87 -3.3,10.79 -3.87,10.67 -4.45,10.52 -5.05,10.34 -5.66,10.13 -6.29,9.88 -6.93,9.6 -7.58,9.29 -8.25,8.94 -8.94,8.56 -9.64,8.16 -10.35,7.72 -11.07,7.25 -11.81,6.76 -12.56,6.24 -13.31,5.7 -14.08,5.13 -14.85,4.55 -15.42,4.14 -15.98,3.72 -16.55,3.29 -17.1,2.86 -17.65,2.41 -18.19,1.96 -18.72,1.51 -19.24,1.05 -19.74,0.59 -20.23,0.13 -20.7,-0.33 -21.15,-0.78 -21.58,-1.23 -21.98,-1.67 -22.35,-2.11" fill="white" stroke="white" stroke-width="0" stroke-linejoin="round" filter="url(#fuzzy)" />
    </g>
    <g transform="translate(-25.28 -20.52)">
      <polyline id="leftCountour" points="21.2,-6.16 20.93,-6.31 20.65,-6.46 20.33,-6.6 20,-6.74 19.64,-6.87 19.27,-7 18.88,-7.11 18.46,-7.23 18.04,-7.34 17.6,-7.45 17.14,-7.55 16.67,-7.65 16.19,-7.74 15.7,-7.83 15.2,-7.92 14.6,-8 13.99,-8.08 13.36,-8.16 12.73,-8.23 12.1,-8.31 11.45,-8.38 10.81,-8.46 10.16,-8.53 9.5,-8.6 8.85,-8.66 8.19,-8.73 7.54,-8.79 6.88,-8.85 6.22,-8.91 5.57,-8.97 4.92,-9.02 4.27,-9.07 3.63,-9.11 2.99,-9.16 2.35,-9.2 1.72,-9.23 1.1,-9.26 0.48,-9.29 -0.14,-9.31 -0.74,-9.32 -1.34,-9.34 -1.92,-9.34 -2.5,-9.34 -3.07,-9.34 -3.64,-9.33 -4.19,-9.32 -4.73,-9.3 -5.26,-9.27 -5.78,-9.24 -6.29,-9.2 -6.78,-9.16 -7.27,-9.11 -7.74,-9.05 -8.2,-8.99 -8.65,-8.92 -9.09,-8.85 -9.51,-8.77 -9.92,-8.69 -10.32,-8.6 -10.7,-8.5 -11.07,-8.4 -11.43,-8.3 -11.77,-8.19 -12.1,-8.07 -12.41,-7.96 -12.72,-7.83 -13.01,-7.7 -13.29,-7.57 -13.55,-7.43 -13.81,-7.29 -14.05,-7.14 -14.28,-6.99 -14.5,-6.83 -14.71,-6.67 -14.9,-6.5 -15.08,-6.33 -15.25,-6.15 -15.4,-5.97 -15.55,-5.79 -15.03,-1.99 -14.78,-1.66 -14.53,-1.33 -14.27,-1 -13.99,-0.67 -13.71,-0.33 -13.42,0.01 -13.12,0.35 -12.81,0.69 -12.49,1.04 -12.16,1.38 -11.82,1.73 -11.47,2.08 -11.12,2.42 -10.76,2.77 -10.39,3.11 -10.01,3.46 -9.62,3.8 -9.22,4.15 -8.81,4.49 -8.39,4.83 -7.96,5.17 -7.53,5.5 -7.09,5.83 -6.64,6.15 -6.19,6.46 -5.73,6.76 -5.26,7.05 -4.79,7.33 -4.31,7.6 -3.82,7.85 -3.33,8.08 -2.84,8.31 -2.34,8.51 -1.84,8.7 -1.33,8.86 -0.82,9.01 -0.3,9.14 0.22,9.24 0.74,9.32 1.27,9.38 1.8,9.42 2.34,9.43 2.88,9.42 3.42,9.38 3.97,9.32 4.52,9.23 5.08,9.12 5.64,8.98 6.2,8.82 6.77,8.63 7.35,8.41 7.92,8.17 8.51,7.9 9.09,7.61 9.68,7.3 10.27,6.97 10.87,6.61 11.47,6.23 12.07,5.84 12.67,5.42 13.28,4.99 13.88,4.54 14.49,4.08 15.09,3.61 15.56,3.26 16.03,2.91 16.49,2.55 16.94,2.19 17.38,1.82 17.81,1.45 18.23,1.08 18.64,0.7 19.04,0.33 19.42,-0.04 19.78,-0.41 20.13,-0.78 20.46,-1.14 20.77,-1.49 21.05,-1.84" fill="white" stroke="white" stroke-width="0" stroke-linejoin="round" filter="url(#fuzzy)" />
    </g>
    <g transform="translate(23.96 -22.78)">
      <polyline id="rightUpper" points="-23.39,-4.16 -23.61,-4.53 -23.77,-4.88 -23.87,-5.21 -23.92,-5.53 -23.92,-5.83 -23.88,-6.12 -23.79,-6.39 -23.67,-6.64 -23.5,-6.89 -23.3,-7.12 -23.06,-7.34 -22.79,-7.55 -22.49,-7.74 -22.17,-7.93 -21.82,-8.1 -21.44,-8.27 -21.04,-8.42 -20.62,-8.57 -20.18,-8.71 -19.72,-8.85 -19.25,-8.97 -18.76,-9.09 -18.26,-9.2 -17.74,-9.3 -17.22,-9.4 -16.56,-9.5 -15.89,-9.59 -15.21,-9.67 -14.53,-9.75 -13.84,-9.83 -13.15,-9.9 -12.46,-9.97 -11.77,-10.04 -11.08,-10.1 -10.39,-10.16 -9.71,-10.21 -9.03,-10.26 -8.35,-10.31 -7.67,-10.35 -7.01,-10.39 -6.34,-10.43 -5.69,-10.46 -5.04,-10.49 -4.4,-10.52 -3.77,-10.54 -3.15,-10.56 -2.54,-10.58 -1.94,-10.59 -1.34,-10.6 -0.76,-10.6 -0.19,-10.6 0.37,-10.6 0.92,-10.59 1.46,-10.58 1.98,-10.56 2.5,-10.54 3,-10.52 3.49,-10.49 3.97,-10.46 4.44,-10.42 4.89,-10.37 5.34,-10.33 5.77,-10.28 6.19,-10.22 6.59,-10.16 6.98,-10.1 7.37,-10.03 7.74,-9.95 8.09,-9.87 8.44,-9.79 8.77,-9.71 9.09,-9.61 9.4,-9.52 9.7,-9.42 9.98,-9.32 10.26,-9.21 10.52,-9.1 10.78,-8.99 11.02,-8.87 11.25,-8.75 11.48,-8.62 11.69,-8.49 11.89,-8.35 12.09,-8.21 12.27,-8.06 12.44,-7.91 12.61,-7.76 12.76,-7.6 12.9,-7.44 13.03,-7.28 13.16,-7.11 13.27,-6.93 13.37,-6.76 13.47,-6.57 13.55,-6.39 13.63,-6.2 13.69,-6.01 13.75,-5.82 13.8,-5.62" fill="none" stroke="black" stroke-width="1.6666666666666665" stroke-linejoin="round" filter="url(#fuzzy)" />
      <polyline id="rightLower" points="-23.91,-5.46 -23.99,-5.25 -24,-5 -23.95,-4.72 -23.85,-4.41 -23.71,-4.07 -23.51,-3.72 -23.28,-3.34 -23,-2.94 -22.69,-2.53 -22.35,-2.11 -21.98,-1.67 -21.58,-1.23 -21.15,-0.78 -20.7,-0.33 -20.23,0.13 -19.74,0.59 -19.24,1.05 -18.72,1.51 -18.19,1.96 -17.65,2.41 -17.1,2.86 -16.55,3.29 -15.98,3.72 -15.42,4.14 -14.85,4.55 -14.08,5.13 -13.31,5.7 -12.56,6.24 -11.81,6.76 -11.07,7.25 -10.35,7.72 -9.64,8.16 -8.94,8.56 -8.25,8.94 -7.58,9.29 -6.93,9.6 -6.29,9.88 -5.66,10.13 -5.05,10.34 -4.45,10.52 -3.87,10.67 -3.3,10.79 -2.75,10.87 -2.21,10.92 -1.68,10.95 -1.17,10.94 -0.67,10.89 -0.18,10.83 0.3,10.73 0.76,10.6 1.22,10.45 1.66,10.28 2.1,10.08 2.52,9.85 2.94,9.61 3.35,9.34 3.74,9.06 4.14,8.76 4.52,8.44 4.9,8.11 5.26,7.76 5.63,7.41 5.98,7.04 6.33,6.66 6.67,6.27 7.01,5.88 7.34,5.48 7.66,5.08 7.97,4.67 8.28,4.27 8.59,3.86 8.88,3.45 9.17,3.04 9.45,2.64 9.73,2.24 9.99,1.84 10.25,1.44 10.51,1.05 10.76,0.66 11.01,0.27 11.24,-0.12 11.48,-0.5 11.7,-0.88 11.92,-1.26 12.13,-1.63 12.34,-2 12.54,-2.36 12.73,-2.71 12.92,-3.06 13.09,-3.4 13.27,-3.74 13.43,-4.07 13.58,-4.39 13.73,-4.71 13.88,-5.02 14.01,-5.33 14.14,-5.63 14.26,-5.92 14.37,-6.2" fill="none" stroke="black" stroke-width="2.2222222222222223" stroke-linejoin="round" filter="url(#fuzzy)" />
      <circle r="3.722" cx="5.668271885750963" cy="-1.578636828737774" stroke="black" fill="none" stroke-width="1.0" filter="url(#fuzzy)" clip-path="url(#rightEyeClipPath)" /><circle r="3.76" cx="4.348271885750963" cy="-0.7136368287377737" stroke="black" fill="none" stroke-width="1.0" filter="url(#fuzzy)" clip-path="url(#rightEyeClipPath)" /><circle r="4.51" cx="5.783271885750963" cy="0.8913631712622268" stroke="black" fill="none" stroke-width="1.0" filter="url(#fuzzy)" clip-path="url(#rightEyeClipPath)" /><circle r="4.232" cx="2.2332718857509635" cy="-1.7036368287377734" stroke="black" fill="none" stroke-width="1.0" filter="url(#fuzzy)" clip-path="url(#rightEyeClipPath)" /><circle r="3.792" cx="4.168271885750963" cy="-2.6736368287377736" stroke="black" fill="none" stroke-width="1.0" filter="url(#fuzzy)" clip-path="url(#rightEyeClipPath)" /><circle r="4.288" cx="2.9782718857509636" cy="-2.2736368287377737" stroke="black" fill="none" stroke-width="1.0" filter="url(#fuzzy)" clip-path="url(#rightEyeClipPath)" /><circle r="3.324" cx="6.2732718857509635" cy="-3.578636828737774" stroke="black" fill="none" stroke-width="1.0" filter="url(#fuzzy)" clip-path="url(#rightEyeClipPath)" /><circle r="3.416" cx="4.638271885750964" cy="-3.6486368287377737" stroke="black" fill="none" stroke-width="1.0" filter="url(#fuzzy)" clip-path="url(#rightEyeClipPath)" /><circle r="3.36" cx="5.668271885750963" cy="-1.5236368287377737" stroke="black" fill="none" stroke-width="1.0" filter="url(#fuzzy)" clip-path="url(#rightEyeClipPath)" /><circle r="4.344" cx="2.463271885750963" cy="-1.8236368287377736" stroke="black" fill="none" stroke-width="1.0" filter="url(#fuzzy)" clip-path="url(#rightEyeClipPath)" />
      </g>
    <g transform="translate(-25.28 -20.52)">
      <polyline id="leftUpper" points="22.08,-4.13 22.17,-4.38 22.2,-4.62 22.2,-4.84 22.16,-5.06 22.08,-5.26 21.97,-5.46 21.82,-5.65 21.64,-5.82 21.43,-5.99 21.2,-6.16 20.93,-6.31 20.65,-6.46 20.33,-6.6 20,-6.74 19.64,-6.87 19.27,-7 18.88,-7.11 18.46,-7.23 18.04,-7.34 17.6,-7.45 17.14,-7.55 16.67,-7.65 16.19,-7.74 15.7,-7.83 15.2,-7.92 14.6,-8 13.99,-8.08 13.36,-8.16 12.73,-8.23 12.1,-8.31 11.45,-8.38 10.81,-8.46 10.16,-8.53 9.5,-8.6 8.85,-8.66 8.19,-8.73 7.54,-8.79 6.88,-8.85 6.22,-8.91 5.57,-8.97 4.92,-9.02 4.27,-9.07 3.63,-9.11 2.99,-9.16 2.35,-9.2 1.72,-9.23 1.1,-9.26 0.48,-9.29 -0.14,-9.31 -0.74,-9.32 -1.34,-9.34 -1.92,-9.34 -2.5,-9.34 -3.07,-9.34 -3.64,-9.33 -4.19,-9.32 -4.73,-9.3 -5.26,-9.27 -5.78,-9.24 -6.29,-9.2 -6.78,-9.16 -7.27,-9.11 -7.74,-9.05 -8.2,-8.99 -8.65,-8.92 -9.09,-8.85 -9.51,-8.77 -9.92,-8.69 -10.32,-8.6 -10.7,-8.5 -11.07,-8.4 -11.43,-8.3 -11.77,-8.19 -12.1,-8.07 -12.41,-7.96 -12.72,-7.83 -13.01,-7.7 -13.29,-7.57 -13.55,-7.43 -13.81,-7.29 -14.05,-7.14 -14.28,-6.99 -14.5,-6.83 -14.71,-6.67 -14.9,-6.5 -15.08,-6.33 -15.25,-6.15 -15.4,-5.97 -15.55,-5.79 -15.68,-5.6 -15.79,-5.4 -15.9,-5.21 -16,-5.01 -16.08,-4.8 -16.15,-4.59 -16.21,-4.38 -16.26,-4.17 -16.29,-3.95 -16.32,-3.73" fill="none" stroke="black" stroke-width="2.2222222222222223" stroke-linejoin="round" filter="url(#fuzzy)" />
      <polyline id="leftLower" points="22.27,-4.47 22.31,-4.3 22.32,-4.11 22.28,-3.89 22.2,-3.65 22.09,-3.38 21.94,-3.1 21.76,-2.81 21.55,-2.5 21.32,-2.17 21.05,-1.84 20.77,-1.49 20.46,-1.14 20.13,-0.78 19.78,-0.41 19.42,-0.04 19.04,0.33 18.64,0.7 18.23,1.08 17.81,1.45 17.38,1.82 16.94,2.19 16.49,2.55 16.03,2.91 15.56,3.26 15.09,3.61 14.49,4.08 13.88,4.54 13.28,4.99 12.67,5.42 12.07,5.84 11.47,6.23 10.87,6.61 10.27,6.97 9.68,7.3 9.09,7.61 8.51,7.9 7.92,8.17 7.35,8.41 6.77,8.63 6.2,8.82 5.64,8.98 5.08,9.12 4.52,9.23 3.97,9.32 3.42,9.38 2.88,9.42 2.34,9.43 1.8,9.42 1.27,9.38 0.74,9.32 0.22,9.24 -0.3,9.14 -0.82,9.01 -1.33,8.86 -1.84,8.7 -2.34,8.51 -2.84,8.31 -3.33,8.08 -3.82,7.85 -4.31,7.6 -4.79,7.33 -5.26,7.05 -5.73,6.76 -6.19,6.46 -6.64,6.15 -7.09,5.83 -7.53,5.5 -7.96,5.17 -8.39,4.83 -8.81,4.49 -9.22,4.15 -9.62,3.8 -10.01,3.46 -10.39,3.11 -10.76,2.77 -11.12,2.42 -11.47,2.08 -11.82,1.73 -12.16,1.38 -12.49,1.04 -12.81,0.69 -13.12,0.35 -13.42,0.01 -13.71,-0.33 -13.99,-0.67 -14.27,-1 -14.53,-1.33 -14.78,-1.66 -15.03,-1.99 -15.26,-2.31 -15.48,-2.62 -15.69,-2.93 -15.89,-3.24 -16.08,-3.54 -16.26,-3.84 -16.43,-4.13 -16.59,-4.41 -16.74,-4.7 -16.88,-4.97" fill="none" stroke="black" stroke-width="2.2222222222222223" stroke-linejoin="round" filter="url(#fuzzy)" />
      <circle r="3.214" cx="9.846755534423858" cy="3.681701788952828" stroke="black" fill="none" stroke-width="1.0" filter="url(#fuzzy)" clip-path="url(#leftEyeClipPath)" /><circle r="4.364" cx="13.496755534423858" cy="3.2367017889528285" stroke="black" fill="none" stroke-width="1.0" filter="url(#fuzzy)" clip-path="url(#leftEyeClipPath)" /><circle r="3.848" cx="11.981755534423858" cy="0.19670178895282797" stroke="black" fill="none" stroke-width="1.0" filter="url(#fuzzy)" clip-path="url(#leftEyeClipPath)" /><circle r="4.024" cx="13.166755534423856" cy="1.066701788952828" stroke="black" fill="none" stroke-width="1.0" filter="url(#fuzzy)" clip-path="url(#leftEyeClipPath)" /><circle r="4.37" cx="8.621755534423857" cy="0.7267017889528278" stroke="black" fill="none" stroke-width="1.0" filter="url(#fuzzy)" clip-path="url(#leftEyeClipPath)" /><circle r="4.692" cx="9.481755534423858" cy="3.4417017889528285" stroke="black" fill="none" stroke-width="1.0" filter="url(#fuzzy)" clip-path="url(#leftEyeClipPath)" /><circle r="3.93" cx="9.696755534423858" cy="2.4917017889528275" stroke="black" fill="none" stroke-width="1.0" filter="url(#fuzzy)" clip-path="url(#leftEyeClipPath)" /><circle r="3.414" cx="10.466755534423857" cy="4.431701788952828" stroke="black" fill="none" stroke-width="1.0" filter="url(#fuzzy)" clip-path="url(#leftEyeClipPath)" /><circle r="3.7880000000000003" cx="12.361755534423857" cy="2.971701788952828" stroke="black" fill="none" stroke-width="1.0" filter="url(#fuzzy)" clip-path="url(#leftEyeClipPath)" /><circle r="4.458" cx="11.741755534423858" cy="0.016701788952827812" stroke="black" fill="none" stroke-width="1.0" filter="url(#fuzzy)" clip-path="url(#leftEyeClipPath)" />
    </g>
    <g id="hairs">
      <polyline points="-1.76,-77.28 -0.57,-77.26 0.34,-77.23 1.12,-77.2 1.79,-77.16 2.42,-77.11 3.05,-77.05 3.68,-76.97 4.24,-76.88 4.7,-76.79 5.01,-76.71 5.14,-76.65 5.05,-76.6 4.73,-76.56 4.16,-76.52 3.33,-76.48 2.24,-76.43 0.92,-76.38 -0.63,-76.35 -2.46,-76.34 -4.65,-76.36" fill="none" stroke="rgb(230, 230, 250)" stroke-width="2" stroke-linejoin="round" filter="url(#fuzzy)" /><polyline points="11.29,-75.57 12.62,-75 13.28,-74.44 13.28,-73.92 12.69,-73.38 11.58,-72.79 9.92,-72.11 7.73,-71.32 4.98,-70.42 1.66,-69.42 -2.28,-68.32 -6.92,-67.09 -12.31,-65.71 -18.5,-64.16 -25.47,-62.53" fill="none" stroke="rgb(230, 230, 250)" stroke-width="2" stroke-linejoin="round" filter="url(#fuzzy)" /><polyline points="-4.12,-76.76 -3.61,-76.86 -2.28,-76.65 -0.54,-76.17 1.4,-75.45 3.47,-74.54 5.62,-73.47 7.88,-72.27 10.26,-70.95 12.8,-69.53 15.5,-68.02 18.33,-66.42 21.23,-64.76 24.14,-63.08 27.02,-61.39 29.88,-59.68 32.75,-57.92 35.57,-56.14" fill="none" stroke="rgb(230, 230, 250)" stroke-width="2" stroke-linejoin="round" filter="url(#fuzzy)" /><polyline points="20.08,-71.58 21.16,-70.87 22.31,-70.05 23.49,-69.15 24.7,-68.16 25.9,-67.14 27.06,-66.14 28.17,-65.14 29.25,-64.15 30.28,-63.19 31.23,-62.29 32.06,-61.52 32.75,-60.86 33.35,-60.33 33.83,-59.91 34.09,-59.75 33.87,-60.13" fill="none" stroke="rgb(230, 230, 250)" stroke-width="2" stroke-linejoin="round" filter="url(#fuzzy)" /><polyline points="37.07,-56.06 37.85,-54.85 38.15,-53.96 38.04,-53.27 37.59,-52.62 36.84,-51.96 35.77,-51.31 34.36,-50.67 32.6,-50.05 30.48,-49.44 28.01,-48.83 25.16,-48.23 21.9,-47.66 18.23,-47.14 14.12,-46.7 9.56,-46.36 4.53,-46.13 -0.94,-46.01 -6.86,-45.98 -13.2,-46.01 -19.97,-46.09 -27.17,-46.19 -34.8,-46.39" fill="none" stroke="rgb(230, 230, 250)" stroke-width="2" stroke-linejoin="round" filter="url(#fuzzy)" /><polyline points="10.23,-75.82 10.52,-75.74 11.11,-75.55 11.84,-75.3 12.63,-75 13.34,-74.7 13.9,-74.43 14.24,-74.22 14.37,-74.08 14.29,-73.98 14.02,-73.92 13.54,-73.9 12.83,-73.92 11.86,-73.99 10.57,-74.13 8.9,-74.35 6.84,-74.64 4.37,-75 1.51,-75.45 -1.74,-76.01" fill="none" stroke="rgb(230, 230, 250)" stroke-width="2" stroke-linejoin="round" filter="url(#fuzzy)" /><polyline points="-27.38,-66.54 -27.09,-66.77 -26.36,-67.36 -25.6,-67.95 -24.95,-68.42 -24.48,-68.71 -24.17,-68.83 -24.02,-68.77 -24.01,-68.56 -24.18,-68.16 -24.55,-67.57 -25.14,-66.75 -25.94,-65.71 -26.95,-64.42 -28.22,-62.87 -29.77,-61.05 -31.63,-58.94 -33.82,-56.56 -36.37,-53.89 -39.34,-50.76" fill="none" stroke="rgb(230, 230, 250)" stroke-width="2" stroke-linejoin="round" filter="url(#fuzzy)" /><polyline points="-7.17,-76.36 -6.48,-76.53 -5.48,-76.56 -4.31,-76.52 -2.95,-76.44 -1.39,-76.35 0.33,-76.23 2.14,-76.09 3.95,-75.91 5.69,-75.72 7.3,-75.51 8.75,-75.3 10.06,-75.1 11.23,-74.92 12.24,-74.79 12.94,-74.77" fill="none" stroke="rgb(230, 230, 250)" stroke-width="2" stroke-linejoin="round" filter="url(#fuzzy)" /><polyline points="-29.35,-64.94 -28.05,-66 -27.14,-66.73 -26.24,-67.45 -25.37,-68.14 -24.58,-68.76 -23.91,-69.25 -23.37,-69.61 -22.96,-69.85 -22.67,-69.98 -22.52,-70 -22.52,-69.9 -22.67,-69.68 -22.97,-69.34 -23.43,-68.86 -24.11,-68.2 -25.04,-67.33 -26.28,-66.21 -27.81,-64.88 -29.63,-63.34 -31.74,-61.57" fill="none" stroke="rgb(230, 230, 250)" stroke-width="2" stroke-linejoin="round" filter="url(#fuzzy)" /><polyline points="-25.21,-68.38 -24.26,-68.99 -23.37,-69.56 -22.46,-70.05 -21.45,-70.51 -20.33,-71.01 -19.14,-71.52 -17.92,-72.04 -16.68,-72.57 -15.4,-73.09 -14.09,-73.6 -12.8,-74.11 -11.58,-74.58 -10.46,-75.01 -9.49,-75.4 -8.68,-75.72 -8.03,-75.99 -7.52,-76.19 -7.16,-76.34 -6.94,-76.44 -6.9,-76.48 -7.09,-76.47 -7.57,-76.39" fill="none" stroke="rgb(230, 230, 250)" stroke-width="2" stroke-linejoin="round" filter="url(#fuzzy)" /><polyline points="-27.57,-66.34 -26.23,-67.3 -24.79,-67.93 -23.21,-68.31 -21.49,-68.49 -19.58,-68.49 -17.46,-68.38 -15.11,-68.18 -12.55,-67.92 -9.8,-67.58 -6.87,-67.18 -3.76,-66.72 -0.49,-66.21 2.91,-65.65 6.41,-65.02 9.97,-64.34 13.55,-63.6 17.14,-62.83 20.72,-62.03 24.3,-61.22 27.88,-60.37 31.61,-59.34" fill="none" stroke="rgb(230, 230, 250)" stroke-width="2" stroke-linejoin="round" filter="url(#fuzzy)" /><polyline points="-1.76,-77.28 -0.44,-77.13 0.9,-76.72 2.39,-76.07 4.04,-75.2 5.92,-74.14 8.07,-72.9 10.47,-71.5 13.06,-69.98 15.78,-68.36 18.59,-66.66 21.46,-64.9 24.37,-63.09 27.3,-61.26 30.23,-59.43 33.15,-57.57 36.08,-55.57" fill="none" stroke="rgb(230, 230, 250)" stroke-width="2" stroke-linejoin="round" filter="url(#fuzzy)" /><polyline points="46.38,-39.75 46.48,-39.07 46.3,-38.6 45.89,-38.03 45.23,-37.43 44.23,-36.9 42.87,-36.53 41.12,-36.35 38.97,-36.4 36.41,-36.68 33.46,-37.18 30.1,-37.86 26.33,-38.71 22.14,-39.72 17.52,-40.89 12.44,-42.23 6.92,-43.75 0.94,-45.46 -5.49,-47.36 -12.39,-49.5 -19.76,-51.93 -27.57,-54.67" fill="none" stroke="rgb(230, 230, 250)" stroke-width="2" stroke-linejoin="round" filter="url(#fuzzy)" /><polyline points="41.48,-49.68 41.63,-49.38 41.73,-48.87 41.8,-48.23 41.77,-47.6 41.58,-47.07 41.17,-46.73 40.52,-46.6 39.59,-46.74 38.37,-47.15 36.83,-47.85 34.97,-48.83 32.79,-50.04 30.27,-51.46 27.42,-53.08 24.23,-54.9 20.71,-56.98 16.85,-59.34 12.64,-62.05 8.06,-65.11 3.07,-68.51 -2.42,-72.24" fill="none" stroke="rgb(230, 230, 250)" stroke-width="2" stroke-linejoin="round" filter="url(#fuzzy)" /><polyline points="26.19,-67.48 25.98,-67.61 26.43,-67.2 26.92,-66.68 27.22,-66.26 27.3,-65.94 27.23,-65.66 27.03,-65.39 26.66,-65.15 26.07,-64.97 25.22,-64.89 24.11,-64.93 22.72,-65.07 21.07,-65.3 19.14,-65.63 16.9,-66.07 14.34,-66.64 11.45,-67.35 8.21,-68.2 4.6,-69.19 0.58,-70.34 -3.85,-71.63 -8.59,-73.1" fill="none" stroke="rgb(230, 230, 250)" stroke-width="2" stroke-linejoin="round" filter="url(#fuzzy)" /><polyline points="37.07,-56.06 37.97,-54.85 38.63,-53.95 39.12,-53.26 39.52,-52.65 39.85,-52.07 40.09,-51.54 40.25,-51.09 40.29,-50.73 40.23,-50.47 40.04,-50.33 39.73,-50.32 39.27,-50.49 38.62,-50.89 37.75,-51.54 36.65,-52.49 35.3,-53.75 33.7,-55.31 31.87,-57.15 29.8,-59.24 27.51,-61.58 24.99,-64.15 22.25,-66.99 19.19,-70.18" fill="none" stroke="rgb(230, 230, 250)" stroke-width="2" stroke-linejoin="round" filter="url(#fuzzy)" /><polyline points="-22.64,-70.31 -22.4,-70.3 -21.69,-70.67 -20.99,-71.05 -20.43,-71.33 -19.97,-71.51 -19.55,-71.63 -19.19,-71.66 -18.92,-71.59 -18.79,-71.39 -18.85,-71.03 -19.11,-70.49 -19.58,-69.76 -20.27,-68.84 -21.17,-67.72 -22.29,-66.39 -23.64,-64.87 -25.23,-63.15 -27.07,-61.24 -29.15,-59.12 -31.5,-56.77 -34.12,-54.16 -37.03,-51.3 -40.23,-48.21" fill="none" stroke="rgb(230, 230, 250)" stroke-width="2" stroke-linejoin="round" filter="url(#fuzzy)" /><polyline points="25.11,-68.3 25.71,-67.8 26.24,-67.31 27.04,-66.56 27.97,-65.65 28.91,-64.7 29.83,-63.74 30.78,-62.76 31.75,-61.74 32.73,-60.71 33.67,-59.71 34.52,-58.79 35.27,-57.98 35.9,-57.29 36.43,-56.69 36.84,-56.23 37.11,-55.92 37.19,-55.83 37.07,-55.98 36.73,-56.42 36.09,-57.22" fill="none" stroke="rgb(230, 230, 250)" stroke-width="2" stroke-linejoin="round" filter="url(#fuzzy)" /><polyline points="-7.17,-76.36 -6.53,-76.55 -5.68,-76.64 -4.74,-76.69 -3.68,-76.73 -2.5,-76.76 -1.23,-76.79 0.06,-76.81 1.3,-76.8 2.44,-76.78 3.42,-76.75 4.24,-76.72 4.9,-76.68 5.41,-76.64 5.8,-76.61 6.02,-76.58 6.02,-76.58 5.69,-76.65 4.91,-76.84" fill="none" stroke="rgb(230, 230, 250)" stroke-width="2" stroke-linejoin="round" filter="url(#fuzzy)" /><polyline points="11.29,-75.57 12.88,-74.94 14.28,-74.24 15.53,-73.53 16.75,-72.78 18.01,-71.97 19.31,-71.09 20.66,-70.15 22.05,-69.14 23.45,-68.09 24.85,-67.03 26.21,-65.97 27.51,-64.95 28.74,-64 29.86,-63.13 30.85,-62.38 31.66,-61.79 32.25,-61.42 32.57,-61.31 32.64,-61.4" fill="none" stroke="rgb(230, 230, 250)" stroke-width="2" stroke-linejoin="round" filter="url(#fuzzy)" /><polyline points="31.17,-63.05 31.99,-62.14 32.61,-61.45 33.2,-60.74 33.9,-59.86 34.69,-58.84 35.5,-57.77 36.29,-56.72 37.02,-55.73 37.71,-54.82 38.34,-54 38.91,-53.28 39.39,-52.68 39.76,-52.22 40.02,-51.9 40.14,-51.75 40.12,-51.77 39.95,-51.99 39.6,-52.44 39.05,-53.16 38.31,-54.14 37.35,-55.46" fill="none" stroke="rgb(230, 230, 250)" stroke-width="2" stroke-linejoin="round" filter="url(#fuzzy)" /><polyline points="47.99,-35.18 48.06,-34.97 48.17,-34.21 48.07,-33.64 47.72,-33.45 47.11,-33.64 46.24,-34.19 45.08,-35.07 43.62,-36.26 41.86,-37.78 39.78,-39.66 37.36,-41.94 34.6,-44.62 31.47,-47.72 27.97,-51.24 24.08,-55.25 19.78,-59.8 15,-64.96 9.64,-70.73" fill="none" stroke="rgb(230, 230, 250)" stroke-width="2" stroke-linejoin="round" filter="url(#fuzzy)" /><polyline points="4.52,-76.93 5.76,-76.63 6.52,-76.48 7.14,-76.37 7.75,-76.27 8.33,-76.16 8.85,-76.03 9.29,-75.88 9.63,-75.71 9.85,-75.52 9.95,-75.32 9.9,-75.12 9.66,-74.93 9.2,-74.76 8.5,-74.63 7.55,-74.53 6.35,-74.45 4.9,-74.38 3.17,-74.33 1.17,-74.3 -1.15,-74.31 -3.82,-74.34 -6.84,-74.41 -10.1,-74.54" fill="none" stroke="rgb(230, 230, 250)" stroke-width="2" stroke-linejoin="round" filter="url(#fuzzy)" /><polyline points="15.41,-73.97 16.6,-73.43 17.41,-73.05 18.21,-72.65 19.05,-72.2 19.89,-71.7 20.71,-71.2 21.46,-70.72 22.12,-70.29 22.67,-69.93 23.06,-69.65 23.27,-69.49 23.27,-69.47 23.04,-69.58 22.58,-69.82 21.9,-70.17 20.97,-70.66 19.77,-71.31 18.27,-72.15 16.55,-73.13" fill="none" stroke="rgb(230, 230, 250)" stroke-width="2" stroke-linejoin="round" filter="url(#fuzzy)" /><polyline points="-22.89,-69.96 -21.7,-70.64 -20.69,-71.25 -19.91,-71.71 -19.18,-72.11 -18.39,-72.52 -17.58,-72.92 -16.79,-73.3 -16.08,-73.62 -15.5,-73.87 -15.05,-74.04 -14.74,-74.13 -14.57,-74.13 -14.56,-74.04 -14.72,-73.86 -15.07,-73.58 -15.61,-73.18 -16.38,-72.66 -17.4,-72 -18.7,-71.17 -20.3,-70.17 -22.22,-69 -24.46,-67.63 -27.08,-66.03" fill="none" stroke="rgb(230, 230, 250)" stroke-width="2" stroke-linejoin="round" filter="url(#fuzzy)" /><polyline points="17.19,-73.16 17.35,-73.05 17.68,-72.72 17.95,-72.24 18.04,-71.66 17.9,-71.02 17.51,-70.31 16.87,-69.54 15.96,-68.72 14.74,-67.85 13.19,-66.94 11.27,-66 8.99,-64.99 6.32,-63.91 3.28,-62.73 -0.16,-61.46 -4,-60.08 -8.23,-58.61 -12.83,-57.03 -17.81,-55.34 -23.2,-53.59 -29.01,-51.88 -35.25,-50.28" fill="none" stroke="rgb(230, 230, 250)" stroke-width="2" stroke-linejoin="round" filter="url(#fuzzy)" /><polyline points="46.01,-40.89 46.03,-40.29 45.69,-39.92 45.01,-39.68 43.97,-39.48 42.58,-39.28 40.8,-39.1 38.61,-39.03 35.96,-39.11 32.85,-39.42 29.23,-39.98 25.11,-40.78 20.47,-41.81 15.3,-43.04 9.62,-44.45 3.4,-46.05 -3.35,-47.86 -10.66,-49.91 -18.53,-52.25 -26.91,-54.85" fill="none" stroke="rgb(230, 230, 250)" stroke-width="2" stroke-linejoin="round" filter="url(#fuzzy)" /><polyline points="-11.85,-75.48 -11.21,-75.51 -10.14,-75.5 -8.81,-75.45 -7.29,-75.33 -5.58,-75.14 -3.7,-74.87 -1.7,-74.55 0.4,-74.18 2.55,-73.79 4.77,-73.36 7.07,-72.91 9.44,-72.43 11.83,-71.92 14.18,-71.41 16.44,-70.91 18.6,-70.37 20.68,-69.79 22.59,-69.23" fill="none" stroke="rgb(230, 230, 250)" stroke-width="2" stroke-linejoin="round" filter="url(#fuzzy)" /><polyline points="-20.42,-71.59 -18.81,-72.21 -17.14,-72.71 -15.46,-72.97 -13.67,-73.07 -11.73,-73.06 -9.64,-72.97 -7.4,-72.79 -5.03,-72.54 -2.54,-72.22 0.06,-71.84 2.74,-71.41 5.46,-70.95 8.2,-70.48 10.94,-70.02 13.66,-69.56 16.38,-69.06 19.13,-68.48 21.88,-67.85 24.42,-67.42" fill="none" stroke="rgb(230, 230, 250)" stroke-width="2" stroke-linejoin="round" filter="url(#fuzzy)" /><polyline points="8.08,-76.24 8.58,-76.11 9.02,-75.8 9.11,-75.38 8.88,-74.83 8.36,-74.13 7.55,-73.28 6.35,-72.27 4.72,-71.13 2.58,-69.86 -0.08,-68.43 -3.27,-66.82 -7.01,-65.01 -11.28,-62.97 -16.09,-60.72 -21.46,-58.25 -27.45,-55.54 -34.05,-52.59" fill="none" stroke="rgb(230, 230, 250)" stroke-width="2" stroke-linejoin="round" filter="url(#fuzzy)" /><polyline points="-19.19,-72.09 -19.51,-71.96 -18.94,-72.23 -18.25,-72.51 -17.77,-72.64 -17.58,-72.56 -17.71,-72.25 -18.17,-71.7 -18.98,-70.91 -20.15,-69.84 -21.71,-68.48 -23.69,-66.82 -26.13,-64.85 -29.07,-62.53 -32.58,-59.78" fill="none" stroke="rgb(230, 230, 250)" stroke-width="2" stroke-linejoin="round" filter="url(#fuzzy)" /><polyline points="28.57,-65.16 28.72,-65.24 29.26,-64.81 30.08,-64.04 30.99,-63.14 31.81,-62.3 32.49,-61.59 33.03,-61.02 33.45,-60.54 33.78,-60.16 33.99,-59.88 34.03,-59.78 33.84,-59.91 33.4,-60.33 32.69,-61.03 31.78,-61.95 30.73,-63.01 29.6,-64.25" fill="none" stroke="rgb(230, 230, 250)" stroke-width="2" stroke-linejoin="round" filter="url(#fuzzy)" /><polyline points="-10.79,-75.48 -9.82,-75.86 -9.22,-76.01 -8.71,-76.08 -8.26,-76.08 -7.96,-76.01 -7.83,-75.84 -7.89,-75.58 -8.12,-75.23 -8.52,-74.77 -9.09,-74.21 -9.87,-73.51 -10.91,-72.67 -12.28,-71.66 -14,-70.48 -16.08,-69.13 -18.52,-67.62 -21.29,-65.95 -24.39,-64.1 -27.84,-62.11 -31.63,-59.96" fill="none" stroke="rgb(230, 230, 250)" stroke-width="2" stroke-linejoin="round" filter="url(#fuzzy)" /><polyline points="22.91,-69.89 22.82,-69.7 22.85,-69.03 22.36,-68.3 21.17,-67.59 19.31,-66.85 16.83,-65.99 13.71,-65.02 9.88,-63.95 5.29,-62.8 -0.09,-61.53 -6.26,-60.05 -13.25,-58.32 -21.1,-56.41 -29.81,-54.53" fill="none" stroke="rgb(230, 230, 250)" stroke-width="2" stroke-linejoin="round" filter="url(#fuzzy)" /><polyline points="47.99,-35.18 48.07,-34.96 48.22,-34.18 48.19,-33.57 47.93,-33.34 47.44,-33.48 46.72,-33.97 45.75,-34.77 44.54,-35.88 43.05,-37.31 41.26,-39.1 39.16,-41.3 36.71,-43.93 33.88,-47 30.66,-50.53 27.05,-54.56 23.09,-59.12 18.78,-64.24 14,-69.92" fill="none" stroke="rgb(230, 230, 250)" stroke-width="2" stroke-linejoin="round" filter="url(#fuzzy)" /><polyline points="-22.64,-70.31 -22.28,-70.3 -21.18,-70.64 -19.83,-71.01 -18.37,-71.31 -16.76,-71.55 -14.96,-71.77 -12.97,-71.98 -10.83,-72.16 -8.59,-72.31 -6.29,-72.4 -3.96,-72.45 -1.62,-72.47 0.74,-72.45 3.08,-72.4 5.39,-72.35 7.62,-72.3 9.77,-72.27 11.81,-72.25 13.77,-72.25 15.66,-72.26 17.35,-72.34" fill="none" stroke="rgb(230, 230, 250)" stroke-width="2" stroke-linejoin="round" filter="url(#fuzzy)" /><polyline points="25.38,-68.02 26.42,-67.29 27.4,-66.47 28.11,-65.85 28.67,-65.36 29.21,-64.87 29.77,-64.33 30.3,-63.8 30.75,-63.31 31.07,-62.93 31.24,-62.66 31.26,-62.49 31.12,-62.44 30.83,-62.5 30.37,-62.69 29.72,-63.04 28.88,-63.56 27.82,-64.25 26.56,-65.12 25.06,-66.17 23.32,-67.42 21.31,-68.89 19.02,-70.58 16.35,-72.55" fill="none" stroke="rgb(230, 230, 250)" stroke-width="2" stroke-linejoin="round" filter="url(#fuzzy)" /><polyline points="-31.15,-63.09 -30.36,-63.92 -29.78,-64.44 -29.19,-64.93 -28.46,-65.53 -27.62,-66.22 -26.72,-66.96 -25.82,-67.69 -24.96,-68.36 -24.19,-68.96 -23.52,-69.46 -22.98,-69.85 -22.57,-70.13 -22.28,-70.31 -22.13,-70.37 -22.14,-70.3 -22.34,-70.09 -22.72,-69.74 -23.29,-69.23 -24.05,-68.59 -25.01,-67.81 -26.14,-66.93 -27.44,-65.95 -29.04,-64.77" fill="none" stroke="rgb(230, 230, 250)" stroke-width="2" stroke-linejoin="round" filter="url(#fuzzy)" /><polyline points="6.55,-76.43 7.35,-76.21 8.52,-75.71 10.02,-74.94 11.76,-73.93 13.71,-72.73 15.84,-71.35 18.13,-69.82 20.58,-68.15 23.1,-66.41 25.63,-64.62 28.1,-62.82 30.48,-61.06 32.73,-59.39 34.93,-57.7" fill="none" stroke="rgb(230, 230, 250)" stroke-width="2" stroke-linejoin="round" filter="url(#fuzzy)" /><polyline points="44.37,-44.15 44.29,-43.81 44.25,-43.22 43.99,-42.64 43.32,-42.35 42.19,-42.4 40.62,-42.75 38.64,-43.33 36.26,-44.07 33.45,-44.97 30.18,-46.06 26.42,-47.39 22.14,-49.02 17.33,-50.99 12.01,-53.32 6.16,-56.01 -0.26,-59.02 -7.32,-62.3 -14.93,-65.93" fill="none" stroke="rgb(230, 230, 250)" stroke-width="2" stroke-linejoin="round" filter="url(#fuzzy)" /><polyline points="6.55,-76.43 7.25,-76.33 8.12,-76.17 9.11,-75.94 10.14,-75.67 11.15,-75.39 12.11,-75.1 13.01,-74.81 13.83,-74.52 14.5,-74.28 14.92,-74.12 14.99,-74.09 14.64,-74.24 13.81,-74.57 12.59,-75.03" fill="none" stroke="rgb(230, 230, 250)" stroke-width="2" stroke-linejoin="round" filter="url(#fuzzy)" /><polyline points="-27.57,-66.34 -26.28,-67.36 -24.99,-68.16 -23.68,-68.83 -22.33,-69.38 -20.91,-69.86 -19.39,-70.3 -17.75,-70.74 -16.01,-71.17 -14.2,-71.6 -12.33,-72.03 -10.4,-72.45 -8.42,-72.87 -6.43,-73.29 -4.47,-73.69 -2.59,-74.08 -0.83,-74.45 0.8,-74.81 2.31,-75.15 3.73,-75.44 5.05,-75.7 6.21,-75.92 7.15,-76.13" fill="none" stroke="rgb(230, 230, 250)" stroke-width="2" stroke-linejoin="round" filter="url(#fuzzy)" /><polyline points="6.35,-76.47 6.74,-76.4 7.42,-76.27 8.28,-76.09 9.24,-75.86 10.23,-75.6 11.21,-75.31 12.18,-75.01 13.12,-74.7 14,-74.39 14.8,-74.11 15.46,-73.87 15.93,-73.69 16.19,-73.59 16.21,-73.58 15.97,-73.67 15.44,-73.87 14.58,-74.2 13.4,-74.63 11.98,-75.16" fill="none" stroke="rgb(230, 230, 250)" stroke-width="2" stroke-linejoin="round" filter="url(#fuzzy)" /><polyline points="-20.42,-71.59 -18.94,-72.27 -17.66,-72.91 -16.64,-73.4 -15.78,-73.78 -15.06,-74.09 -14.49,-74.32 -14.08,-74.47 -13.84,-74.52 -13.77,-74.46 -13.92,-74.3 -14.3,-74.01 -14.96,-73.6 -15.91,-73.07 -17.14,-72.4 -18.7,-71.57 -20.68,-70.51 -23.17,-69.18" fill="none" stroke="rgb(230, 230, 250)" stroke-width="2" stroke-linejoin="round" filter="url(#fuzzy)" /><polyline points="47.85,-35.76 38.37,-48.67 35.1,-49.95 33.15,-49.13 30.36,-49.03 25.79,-50.71 20.48,-53.53 15.98,-56.34 12.87,-58.5 10.58,-59.99 8.29,-61.03 6.01,-61.85 4.7,-62.62 5.38,-63.49 8.23,-64.5 12.38,-65.43 16.48,-65.81 19.02,-65.37 18.11,-64.67 12.77,-64.48 9.6,-63.07 38.1,-54.71" fill="none" stroke="rgb(230, 230, 250)" stroke-width="2" stroke-linejoin="round" filter="url(#fuzzy)" /><polyline points="35.24,-58.27 16.93,-67.86 18.61,-65.8 19.85,-61.79 14.57,-60.78 5.24,-62.75 -3.51,-65.74 -8.67,-68.22 -9.61,-69.6 -7.18,-69.94 -2.72,-69.47 2.54,-68.43 7.7,-67.01 11.99,-65.46 14.18,-64.09 11.67,-63.42 1.21,-63.92 -14.75,-65.88 -14.79,-74.14" fill="none" stroke="rgb(230, 230, 250)" stroke-width="2" stroke-linejoin="round" filter="url(#fuzzy)" /><polyline points="35.7,-57.7 20.58,-61.12 6.18,-61.52 3.06,-59.75 5.07,-59.47 6.85,-61.43 7.01,-64.37 5.97,-67.12 4.19,-69.37 1.66,-71.27 -1.71,-72.77 -5.9,-73.52 -10.47,-73.22 -14.19,-72.08 -14.3,-71.31 -6.16,-72.75 12.98,-75" fill="none" stroke="rgb(230, 230, 250)" stroke-width="2" stroke-linejoin="round" filter="url(#fuzzy)" /><polyline points="6.55,-76.43 16.45,-53.95 12.18,-55.08 14.69,-58.55 19.12,-60.55 20.92,-61.46 19.98,-61.25 18.24,-59.66 16.68,-57.21 14.36,-55.22 9.59,-54.83 2.02,-56.24 -6.32,-58.79 -11.87,-61.79 -11.88,-64.97 -6.29,-68.02 2.52,-69.79 12.49,-68.56 23.85,-64.41 29.8,-64.58" fill="none" stroke="rgb(230, 230, 250)" stroke-width="2" stroke-linejoin="round" filter="url(#fuzzy)" /><polyline points="-6.81,-76.64 -3.68,-75.42 0.36,-71.2 9.37,-64.94 17,-60.3 19.14,-59.65 15.95,-62.18 9.68,-65.27 2.78,-66.57 -2.65,-65.11 -5.17,-61.47 -4.92,-57.4 -4.08,-55.39 -5.49,-57.58 -10.19,-63.44 -18.5,-67.08 -34.28,-59.5" fill="none" stroke="rgb(230, 230, 250)" stroke-width="2" stroke-linejoin="round" filter="url(#fuzzy)" /><polyline points="-14.04,-74.61 23.1,-52.04 27.46,-53.07 22.5,-57.76 20.56,-58.5 23.38,-55.45 26.88,-52.24 26.73,-52.02 21.75,-55.34 14.32,-60.3 8.34,-64.27 6.22,-65.84 6.63,-65.68 5.44,-65.9 0.87,-68.43 -0.61,-73.23 8.08,-76.24" fill="none" stroke="rgb(230, 230, 250)" stroke-width="2" stroke-linejoin="round" filter="url(#fuzzy)" /><polyline points="29.8,-64.58 27.76,-59.37 12.71,-63.37 0.22,-64.69 -6.74,-63.74 -10.36,-62.61 -12.27,-62.11 -11.92,-62 -7.96,-61.84 -0.39,-61.47 8.38,-60.96 14.67,-60.24 15.88,-59.01 12,-57.12 3.53,-55.9 -12.64,-58.57 -32.75,-61.17" fill="none" stroke="rgb(230, 230, 250)" stroke-width="2" stroke-linejoin="round" filter="url(#fuzzy)" /><polyline points="-15.71,-73.86 5.87,-62.58 4.51,-60.97 7.26,-58.91 12.44,-57.74 15.69,-58.99 16.39,-62.02 15.97,-65.24 15.64,-67.45 15.56,-68.28 15.18,-68.07 13.86,-67.48 11.45,-67.14 8.41,-67.4 5.72,-68.14 4.37,-68.88 5.16,-68.9 8.44,-67.55 14.05,-64.59 20.89,-60.69 26.48,-57.66 27.39,-57.85 20.7,-62.58 5.8,-70.45 -11.44,-75.57" fill="none" stroke="rgb(230, 230, 250)" stroke-width="2" stroke-linejoin="round" filter="url(#fuzzy)" /><polyline points="44.25,-43.85 27.57,-55.79 8.8,-62.59 -0.62,-66.27 -2.37,-68.6 -0.98,-70.07 0.59,-70.92 1.3,-71.25 1.23,-70.85 0.73,-69.37 -0.05,-66.68 -1.18,-63.2 -2.63,-59.76 -4.05,-57.22 -4.86,-55.95 -4.57,-55.64 -2.94,-55.59 0.04,-55.14 4.29,-54.16 9.53,-53.09 15.23,-52.64 20.85,-53.38 26.02,-55.46 30.37,-58.28 38.1,-54.71" fill="none" stroke="rgb(230, 230, 250)" stroke-width="2" stroke-linejoin="round" filter="url(#fuzzy)" /><polyline points="39.28,-53.28 30.03,-57.37 16.13,-65.61 5.14,-70.18 -3.51,-71.02 -10.35,-69.45 -15.04,-66.73 -16.81,-63.87 -15.45,-61.53 -11.81,-60.07 -7.5,-59.53 -3.93,-59.8 -1.56,-60.63 0.03,-61.69 1.51,-62.71 3,-63.55 4.02,-64.35 4.09,-65.24 3.74,-66.07 4.56,-66.24 7.63,-65.13 10.65,-62.93 7.14,-61.56 -6.94,-64.72 -11.44,-75.57" fill="none" stroke="rgb(230, 230, 250)" stroke-width="2" stroke-linejoin="round" filter="url(#fuzzy)" /><polyline points="-2.71,-77.22 5.27,-75.65 5.72,-75.21 6.03,-73.26 5.68,-69.63 4.2,-65.63 2.06,-62.9 -0.08,-62.24 -1.86,-63.42 -3.29,-65.57 -4.69,-67.72 -6.29,-69.17 -7.9,-69.63 -8.76,-69.16 -7.95,-68.03 -5.04,-66.62 -0.81,-65.33 2.93,-64.5 4.62,-64.41 4.97,-65.06 7.55,-65.84 15.91,-64.94 28.93,-58.87 46.21,-40.06" fill="none" stroke="rgb(230, 230, 250)" stroke-width="2" stroke-linejoin="round" filter="url(#fuzzy)" /><polyline points="-2.71,-77.22 6.25,-75.44 7.16,-74.03 6.82,-72.53 5.57,-70.72 2.76,-68.39 -0.41,-65.38 -2.05,-61.95 -1.54,-58.89 -0.07,-57.27 0.27,-57.76 -2.03,-60.03 -6.62,-62.79 -11.19,-64.72 -12.83,-65.37 -9.85,-65.14 -1.52,-64.07 15.44,-59.98 44.25,-43.85" fill="none" stroke="rgb(230, 230, 250)" stroke-width="2" stroke-linejoin="round" filter="url(#fuzzy)" /><polyline points="46.38,-39.75 -6.29,-48.54 -15.49,-57.56 -10.55,-64.3 -3.76,-68.01 2.22,-69.56 7.17,-69.92 10.61,-69.52 12,-68.37 11.57,-66.38 10.4,-63.73 9.66,-60.99 9.72,-58.99 10.09,-58.48 10.51,-59.68 11.93,-62.31 15.65,-65.4 22.12,-66.8 28.57,-65.16" fill="none" stroke="rgb(230, 230, 250)" stroke-width="2" stroke-linejoin="round" filter="url(#fuzzy)" /><polyline points="38.1,-54.71 42.16,-44.92 35.72,-47.65 24.52,-55.55 14.61,-62.94 8.23,-67.68 5.28,-69.74 4.92,-70 6.24,-69.45 8.41,-68.75 10.77,-68.03 12.82,-67.1 14.1,-65.77 14.13,-64.13 12.66,-62.61 9.92,-61.79 6.82,-62.03 4.63,-63.25 4.4,-64.98 6.61,-66.55 10.92,-67.51 16.02,-68.04 19.02,-69.21 17.37,-71.98 17.19,-73.16" fill="none" stroke="rgb(230, 230, 250)" stroke-width="2" stroke-linejoin="round" filter="url(#fuzzy)" /><polyline points="-16.77,-73.53 -0.89,-72.33 6.21,-70.61 4.2,-69.35 0.44,-67.16 -0.99,-64.53 0.05,-62.65 1.96,-61.96 2.99,-61.79 2.19,-61.09 -0.38,-59.29 -3.99,-56.97 -8,-55.55 -11.49,-56.35 -11.65,-59.32 -3.71,-62.82 12.27,-65.88 15.3,-73.88" fill="none" stroke="rgb(230, 230, 250)" stroke-width="2" stroke-linejoin="round" filter="url(#fuzzy)" /><polyline points="-23.41,-69.81 2.38,-64.73 19.38,-55.32 20.91,-52.29 14.49,-53.94 7.88,-57.21 3.9,-60.6 1.63,-63.69 -0.63,-66.48 -3.35,-69.02 -5.68,-71.29 -6.56,-73.11 -5.8,-74.31 -3.87,-74.82 -0.75,-74.73 4.59,-74.36 11.24,-74.16 10.15,-75.86" fill="none" stroke="rgb(230, 230, 250)" stroke-width="2" stroke-linejoin="round" filter="url(#fuzzy)" /><polyline points="46.38,-39.75 25.24,-53.35 8.37,-61.79 -0.8,-67.17 -5.99,-70.43 -8.28,-72.3 -7.72,-73.17 -4.7,-73.13 -0.13,-72.12 4.94,-70.24 9.39,-67.87 12.22,-65.58 12.72,-63.94 10.83,-63.3 7.36,-63.71 3.94,-64.91 2.63,-66.28 5.03,-67.04 10.86,-66.76 15.8,-66.46 10.39,-68.9 -14.79,-74.14" fill="none" stroke="rgb(230, 230, 250)" stroke-width="2" stroke-linejoin="round" filter="url(#fuzzy)" /><polyline points="10.15,-75.86 24.03,-63.15 20.19,-66.2 16.14,-69.4 14.87,-70.03 13.7,-69.59 10.59,-69.61 6.21,-70.39 2.61,-71.33 0.84,-71.81 0.24,-71.65 -0.56,-70.86 -2.63,-69.14 -7.84,-66.07 -18.81,-63.39 -23.41,-69.81" fill="none" stroke="rgb(230, 230, 250)" stroke-width="2" stroke-linejoin="round" filter="url(#fuzzy)" /><polyline points="-6.81,-76.64 13.72,-68.89 12.23,-67.52 4.83,-69.1 -0.03,-70.66 -2.23,-71.07 -4.32,-70.39 -7.45,-69.2 -10.85,-68.26 -13.41,-68 -15.16,-68.21 -17.26,-68.05 -20.82,-66.57 -25.64,-63.48 -29.94,-59.7 -31.05,-57.27 -27.22,-58.24 -22.17,-61.36 -38.49,-54.23" fill="none" stroke="rgb(230, 230, 250)" stroke-width="2" stroke-linejoin="round" filter="url(#fuzzy)" /><polyline points="22.3,-70.25 9.37,-69.14 1.23,-62.78 -5.72,-58.34 -12.23,-57.87 -16.03,-60.23 -16.65,-63.4 -15.57,-65.9 -14.44,-67.26 -13.95,-67.83 -13.88,-68.18 -13.71,-68.6 -12.87,-68.97 -10.73,-68.86 -6.55,-67.76 0.12,-65.26 8.76,-61.12 17.22,-55.56 21.08,-50.07 13.67,-48.04 -10.88,-51.7 -42.55,-47.19" fill="none" stroke="rgb(230, 230, 250)" stroke-width="2" stroke-linejoin="round" filter="url(#fuzzy)" /><polyline points="28.29,-65.96 11.04,-65.92 6.27,-62.48 -0.38,-60.56 -7.74,-59.58 -12.6,-59.73 -13.15,-61.28 -10.49,-63.52 -7.85,-65.27 -8.2,-65.93 -12.04,-65.8 -16.88,-65.43 -18.92,-64.81 -16.1,-63.48 -13.88,-60.24 -41.51,-49.49" fill="none" stroke="rgb(230, 230, 250)" stroke-width="2" stroke-linejoin="round" filter="url(#fuzzy)" /><polyline points="-16.77,-73.53 -18,-71.56 -15.31,-69.85 -7.17,-68.75 1.29,-67.72 6.98,-67.11 10.28,-66.62 13.05,-65.46 16.25,-63.45 19.28,-61.35 20.79,-60.2 19.9,-60.43 16.71,-61.69 12.16,-63.45 7.43,-65.61 3.38,-68.34 -0.19,-71.32 -4.78,-73.39 -11.54,-73.68 -15.71,-73.86" fill="none" stroke="rgb(230, 230, 250)" stroke-width="2" stroke-linejoin="round" filter="url(#fuzzy)" /><polyline points="-8.57,-76.26 11.99,-68.7 12.02,-66.42 10.43,-64.71 8.96,-63.6 5.27,-63.54 -0.27,-64.35 -5.14,-65.52 -7.31,-66.51 -6.46,-66.83 -3.62,-66.15 -0.01,-64.4 3.84,-61.79 8.15,-58.64 13.08,-55.34 17.87,-52.46 20.78,-50.67 20.49,-50.12 18.2,-49.9 18.84,-48.61 28.95,-46.81 39.85,-52.34" fill="none" stroke="rgb(230, 230, 250)" stroke-width="2" stroke-linejoin="round" filter="url(#fuzzy)" /><polyline points="32.71,-61.29 30.59,-53.1 15.95,-59.46 3.33,-63.66 -6.3,-64.77 -12.87,-64.99 -15.71,-65.86 -14.82,-67.62 -11.26,-69.72 -6.56,-71.45 -1.99,-72.28 1.76,-72.01 4.58,-70.66 6.63,-68.44 8.2,-65.68 9.47,-62.93 10.38,-60.82 10.59,-59.89 9.62,-60.1 7.41,-60.47 4.74,-59.28 2.78,-55.27 1.54,-49.33 -3.37,-45.18 -41.94,-48.58" fill="none" stroke="rgb(230, 230, 250)" stroke-width="2" stroke-linejoin="round" filter="url(#fuzzy)" /><polyline points="-1.76,-77.28 -10.15,-67.68 3.09,-65.84 15.33,-64.72 21.62,-63.41 22.32,-62.6 19,-63.21 13.92,-65.24 9.73,-67.61 8.18,-69.01 8.79,-68.85 8.63,-67.48 3.54,-65.86 -8.84,-64.71 -25.32,-62.46 -39.21,-53.13" fill="none" stroke="rgb(230, 230, 250)" stroke-width="2" stroke-linejoin="round" filter="url(#fuzzy)" /><polyline points="-1.76,-77.28 6.81,-73.96 7.87,-69.96 5.6,-66.73 3.45,-64.35 2.48,-62.52 2.12,-60.94 1.1,-59.71 -1.3,-59.21 -4.4,-59.61 -6.47,-60.63 -5.96,-61.62 -2.62,-61.9 2.26,-61.11 6.4,-59.34 7.58,-57.29 4.54,-56.06 -2,-56.7 -8.71,-59.51 -10.15,-63.94 -1.27,-69.77 15.41,-73.97" fill="none" stroke="rgb(230, 230, 250)" stroke-width="2" stroke-linejoin="round" filter="url(#fuzzy)" /><polyline points="15.41,-73.97 4.49,-73.44 -0.64,-72.01 3.13,-69.07 10.01,-64.42 15.27,-59.75 17.27,-56.53 16.16,-55.03 12.45,-54.72 6.82,-54.88 0.51,-55.07 -4.81,-55.25 -7.83,-55.69 -8.41,-56.8 -7.55,-58.81 -6.43,-61.56 -5.31,-64.51 -3.29,-66.96 0.7,-68.46 6.31,-69 11.33,-69.13 13.25,-69.54 12.81,-70.4 16.09,-70.49 25.38,-68.02" fill="none" stroke="rgb(230, 230, 250)" stroke-width="2" stroke-linejoin="round" filter="url(#fuzzy)" /><polyline points="-5.37,-76.73 10.14,-53.86 3.31,-55.94 4.14,-61.14 10.95,-64.08 17.95,-64.87 22.7,-64.4 25.37,-63.31 26.88,-61.96 27.75,-60.32 27.73,-58.16 25.48,-55.96 19.47,-55.7 11.88,-59.04 14.16,-61.53 42.69,-47.15" fill="none" stroke="rgb(230, 230, 250)" stroke-width="2" stroke-linejoin="round" filter="url(#fuzzy)" /><polyline points="-33.1,-61.1 0.83,-67.7 8.86,-70.46 7.06,-68.84 3.55,-63.8 1.73,-58.24 2.17,-54.88 4.01,-54.71 5.81,-57.16 6.09,-61.02 4.09,-65.12 0.33,-68.63 -3.45,-70.96 -4.97,-71.71 -2.24,-70.46 5.68,-66.67 17.96,-60.19 31.24,-52.31 40.71,-45.6 48.74,-33.51" fill="none" stroke="rgb(230, 230, 250)" stroke-width="2" stroke-linejoin="round" filter="url(#fuzzy)" /><polyline points="51.16,-24.94 29.13,-55.63 22.77,-65.55 21.36,-68.08 22.12,-67.44 24.13,-64.95 25.63,-61.85 24.62,-59.28 20.41,-57.81 14.11,-57.23 7.6,-57.1 1.9,-57.2 -3.43,-57.68 -9.18,-58.82 -14.73,-60.6 -17.25,-62.44 -13.05,-63.19 -0.07,-61.86 18.63,-60.11 22.3,-70.25" fill="none" stroke="rgb(230, 230, 250)" stroke-width="2" stroke-linejoin="round" filter="url(#fuzzy)" /><polyline points="47.03,-38.12 29.15,-58.12 19.68,-63.31 18.4,-62.08 21.21,-59.95 23.76,-59.47 24.63,-60.31 24.28,-60.87 23.12,-60.01 20.83,-57.85 17.12,-55.45 12.55,-54.05 8.7,-54.3 7.26,-56 8.91,-58.35 12.65,-60.54 16.26,-62.34 17.42,-64.09 15.07,-66.34 10.33,-69.04 6.4,-71.27 7.26,-71.52 15.19,-68.23 28.92,-59.34 46.38,-39.75" fill="none" stroke="rgb(230, 230, 250)" stroke-width="2" stroke-linejoin="round" filter="url(#fuzzy)" /><polyline points="-24.17,-68.93 -5.12,-72.68 -0.94,-70.22 -1.18,-64.88 -4.75,-60.64 -9.84,-58.95 -13.91,-59.37 -15.64,-60.94 -15.35,-62.94 -14.12,-64.97 -12.78,-66.79 -11.57,-68.24 -10.18,-69.17 -8.11,-69.53 -4.91,-69.23 -0.37,-68.11 5.43,-66 11.88,-63.01 17.52,-60 19.88,-58.53 16.09,-59.65 4.12,-61.86 -16.66,-60.68 -40.91,-50.25" fill="none" stroke="rgb(230, 230, 250)" stroke-width="2" stroke-linejoin="round" filter="url(#fuzzy)" />
    </g>
    
        <g id="lineNose">
        <path d="M -7.66,5.4 Q 7.48, 3.75 -0.08999999999999986, -3.958" fill="none" stroke="black" stroke-width="3" stroke-linejoin="round" filter="url(#fuzzy)"></path>
        </g>
      
    <g id="mouth">
      <polyline points="32.13,34.78 32.14,34.95 32.26,35.4 32.37,35.86 32.45,36.77 32.38,36.36 32.53,37.1 32.46,37.74 32.48,38.96 32.44,39.13 32.32,39.48 32.28,40.1 32.14,40.44 32.24,40.29 32.11,41.06 31.74,42.28 31.5,42.77 31.32,42.97 31.59,42.52 31.1,43.71 30.7,44.35 30.11,45.37 30.25,44.99 29.78,45.72 29.37,46.41 29.44,46.29 28.96,46.98 28.7,47.27 28.33,47.59 27.3,48.64 26.82,49.13 26.76,49.16 26.62,49.3 26.21,49.66 25.86,49.93 25.15,50.49 24.23,51.08 24.79,50.74 23.05,51.81 23.85,51.39 21.95,52.45 22.31,52.23 21.89,52.48 20.58,53.09 19.81,53.41 20.04,53.32 20.29,53.21 19.06,53.7 17.61,54.18 17.48,54.22 16.33,54.53 16.49,54.49 16.99,54.36 15.55,54.7 15.18,54.77 14.65,54.88 14.15,54.95 13.63,55.04 12.17,55.17 11.86,55.21 10.23,55.22 9.66,55.26 10.86,55.24 9.52,55.22 7.69,55.12 7.46,55.03 6.91,55.01 6.5,54.96 5.96,54.85 5.21,54.69 6.09,54.87 4.72,54.52 3.92,54.24 3.7,54.19 2.39,53.8 3.28,54.07 1.7,53.39 2.16,53.59 0.87,53 0.14,52.7 -0.31,52.43 0.22,52.64 -0.35,52.27 -0.94,52.03 -1.99,51.09 -1.38,51.72 -2.91,50.32 -2.53,50.62 -2.25,50.81 -3.59,49.44 -3.63,49.58 -4.16,48.82 -4.26,48.53 -4.47,48.42 -4.64,48.14 -4.87,47.43 -5.15,47.03 -5.61,46.21 -5.18,46.84 -5.55,46 -5.87,45.45 -6.08,44.1 -6.18,43.65 -6.14,43.16 -6.26,43.32 -6.28,43.15 -6.32,43.3 -6.21,41.88 -6.25,41.28 -6.24,41.11 -6.18,40.63 -6.1,40.44 -6.08,40.12 -5.82,39.17 -5.65,38.13 -5.68,38.67 -5.64,38.37 -5.5,38.03 -4.93,36.66 -5.02,36.67 -4.67,35.92 -4.07,35.01 -3.95,34.84 -4.08,35.09 -3.52,34.23 -2.76,33.23 -3.2,33.66 -2.97,33.48 -1.55,31.86 -1.47,31.83 -1.56,31.84 -1.33,31.58 -0.71,31.04 0.22,30.21 0.11,30.31 0.44,30.06 1.74,29.14 1.28,29.45 2.21,28.87 3.55,28.02 4.14,27.71 3.59,27.99 3.75,27.94 4.84,27.39 5.94,26.89 7.26,26.36 5.66,26.98 6.77,26.55 8.21,26.03 7.56,26.26 9.78,25.58 9.9,25.56 11.46,25.21 11.49,25.21 12.06,25.11 12.51,25.04 12.29,25.08 13.51,24.92 14.36,24.83 15.53,24.78 15.31,24.8 16.71,24.79 15.95,24.79 16.77,24.79 17.14,24.81 18.45,24.93 19.8,25.1 18.8,24.92 20.09,25.12 20.63,25.24 21.64,25.51 22.8,25.79 22.96,25.86 21.9,25.57 22.76,25.84 23.94,26.17 24.02,26.27 25.56,26.89 25.35,26.85 26.61,27.5 26.53,27.54 26.48,27.44 27.29,28.01 27.6,28.33 27.76,28.44 28.26,28.73 27.9,28.58 29.25,29.75 29.42,29.86 29.45,30.02 30.2,30.85 30.34,31.13 31.09,31.99 30.64,31.39 31.46,32.84 31.1,32.2 31.48,32.88 31.71,33.6 32.02,34.15 31.84,33.61" fill="rgb(215,127,140)" stroke="black" stroke-width="3" stroke-linejoin="round" filter="url(#fuzzy)" />
    </g>
  </svg>