<svg viewBox="-100 -100 200 200" xmlns="http://www.w3.org/2000/svg" width="500" height="500" id="face-svg">
    <defs>
      <clipPath id="leftEyeClipPath">
        <polyline points="28.31,7.03 27.94,6.65 27.55,6.25 27.14,5.83 26.7,5.39 26.24,4.94 25.75,4.48 25.24,4 24.71,3.51 24.16,3 23.6,2.49 23.01,1.96 22.4,1.43 21.78,0.88 21.14,0.33 20.48,-0.22 19.78,-0.82 19.04,-1.43 18.29,-2.05 17.51,-2.69 16.71,-3.34 15.89,-4 15.05,-4.66 14.2,-5.32 13.33,-5.98 12.44,-6.63 11.54,-7.27 10.63,-7.91 9.71,-8.52 8.79,-9.12 7.85,-9.7 6.92,-10.26 5.98,-10.79 5.03,-11.29 4.09,-11.77 3.15,-12.21 2.22,-12.61 1.28,-12.98 0.36,-13.32 -0.56,-13.61 -1.47,-13.86 -2.37,-14.08 -3.25,-14.25 -4.13,-14.38 -4.98,-14.46 -5.83,-14.51 -6.66,-14.51 -7.47,-14.47 -8.26,-14.39 -9.03,-14.26 -9.78,-14.1 -10.51,-13.9 -11.22,-13.66 -11.91,-13.39 -12.58,-13.08 -13.22,-12.74 -13.85,-12.37 -14.44,-11.97 -15.02,-11.55 -15.57,-11.1 -16.1,-10.63 -16.61,-10.14 -17.09,-9.64 -17.55,-9.12 -17.99,-8.59 -18.41,-8.06 -18.81,-7.52 -19.19,-6.96 -19.54,-6.4 -19.88,-5.82 -20.2,-5.23 -20.49,-4.64 -20.77,-4.04 -21.03,-3.44 -21.27,-2.83 -21.48,-2.22 -21.68,-1.6 -21.86,-0.99 -22.03,-0.38 -22.17,0.23 -22.35,8.33 -21.98,8.64 -21.6,8.94 -21.2,9.23 -20.79,9.51 -20.37,9.79 -19.94,10.05 -19.49,10.31 -19.02,10.56 -18.55,10.8 -18.06,11.02 -17.56,11.24 -17.04,11.45 -16.52,11.65 -15.98,11.85 -15.42,12.03 -14.86,12.2 -14.28,12.37 -13.68,12.53 -13.07,12.68 -12.44,12.82 -11.8,12.95 -11.15,13.07 -10.49,13.19 -9.81,13.29 -9.12,13.39 -8.42,13.47 -7.71,13.55 -6.99,13.62 -6.26,13.68 -5.52,13.73 -4.77,13.78 -4.01,13.81 -3.25,13.84 -2.48,13.86 -1.7,13.87 -0.91,13.88 -0.12,13.88 0.67,13.87 1.47,13.86 2.27,13.84 3.07,13.82 3.88,13.79 4.68,13.76 5.49,13.73 6.3,13.69 7.1,13.65 7.91,13.6 8.71,13.56 9.51,13.51 10.31,13.46 11.1,13.41 11.89,13.35 12.67,13.3 13.45,13.25 14.22,13.2 14.98,13.15 15.73,13.1 16.48,13.05 17.22,13 17.95,12.96 18.66,12.91 19.37,12.87 20.06,12.83 20.75,12.8 21.34,12.75 21.92,12.7 22.49,12.65 23.04,12.6 23.59,12.55 24.12,12.5 24.64,12.45 25.14,12.4 25.62,12.35 26.09,12.3 26.54,12.25 26.98,12.19 27.39,12.13 27.78,12.08 28.15,12.02" />
      </clipPath>
      <clipPath id="rightEyeClipPath">
        <polyline points="-27,6.07 -26.63,5.77 -26.24,5.46 -25.83,5.13 -25.4,4.79 -24.95,4.43 -24.48,4.06 -23.99,3.68 -23.49,3.29 -22.97,2.89 -22.43,2.47 -21.88,2.05 -21.31,1.62 -20.73,1.18 -20.13,0.73 -19.53,0.28 -18.86,-0.19 -18.18,-0.68 -17.48,-1.18 -16.76,-1.7 -16.02,-2.22 -15.27,-2.76 -14.5,-3.3 -13.71,-3.84 -12.91,-4.38 -12.1,-4.92 -11.28,-5.46 -10.44,-5.99 -9.6,-6.5 -8.75,-7.01 -7.89,-7.5 -7.02,-7.97 -6.15,-8.42 -5.28,-8.85 -4.4,-9.26 -3.53,-9.64 -2.65,-9.99 -1.78,-10.32 -0.91,-10.61 -0.04,-10.87 0.82,-11.1 1.68,-11.3 2.52,-11.46 3.36,-11.59 4.19,-11.68 5.01,-11.74 5.82,-11.76 6.61,-11.75 7.39,-11.7 8.15,-11.62 8.9,-11.5 9.63,-11.35 10.35,-11.17 11.05,-10.96 11.73,-10.72 12.38,-10.46 13.02,-10.17 13.64,-9.85 14.24,-9.51 14.82,-9.15 15.38,-8.78 15.92,-8.38 16.43,-7.98 16.92,-7.56 17.4,-7.13 17.85,-6.7 18.28,-6.26 18.69,-5.81 19.08,-5.35 19.46,-4.88 19.81,-4.4 20.14,-3.92 20.45,-3.43 20.75,-2.93 21.02,-2.43 21.27,-1.93 21.51,-1.43 21.72,-0.93 21.92,-0.43 22.09,0.07 24.69,7.4 24.34,7.61 23.97,7.81 23.59,8.01 23.19,8.2 22.78,8.39 22.35,8.57 21.9,8.74 21.44,8.9 20.96,9.06 20.46,9.22 19.95,9.36 19.43,9.51 18.88,9.64 18.32,9.77 17.75,9.89 17.16,10.01 16.54,10.12 15.91,10.22 15.27,10.32 14.6,10.41 13.92,10.5 13.22,10.58 12.5,10.66 11.76,10.73 11.01,10.79 10.24,10.85 9.46,10.9 8.66,10.94 7.85,10.98 7.03,11.02 6.19,11.04 5.35,11.07 4.49,11.09 3.62,11.1 2.74,11.11 1.86,11.11 0.97,11.11 0.08,11.11 -0.82,11.1 -1.72,11.09 -2.62,11.08 -3.53,11.06 -4.43,11.04 -5.33,11.02 -6.22,11 -7.11,10.97 -8,10.95 -8.87,10.92 -9.74,10.89 -10.6,10.86 -11.45,10.83 -12.28,10.8 -13.1,10.77 -13.91,10.74 -14.7,10.71 -15.47,10.68 -16.22,10.65 -16.96,10.62 -17.67,10.59 -18.37,10.57 -19.04,10.54 -19.69,10.52 -20.31,10.5 -20.92,10.48 -21.49,10.45 -22.05,10.43 -22.59,10.4 -23.11,10.37 -23.62,10.35 -24.12,10.32 -24.59,10.3 -25.05,10.27 -25.49,10.24 -25.91,10.22 -26.31,10.19 -26.69,10.16 -27.05,10.14 -27.39,10.11 -27.71,10.08" />
      </clipPath>
      <filter id="fuzzy">
        <feTurbulence id="turbulence" baseFrequency="0.05" numOctaves="3" type="noise" result="noise" />
        <feDisplacementMap in="SourceGraphic" in2="noise" scale="2" />
      </filter>
      <linearGradient id="rainbowGradient" x1="0%" y1="0%" x2="100%" y2="0%">
        <stop offset="0%" style="stop-color: [object Object]; stop-opacity: 1" />
        <stop offset="50%" style="stop-color: [object Object]; stop-opacity: 1" />
        <stop offset="100%" style="stop-color: [object Object]; stop-opacity: 1" />
      </linearGradient>
    </defs>
    <rect x="-100" y="-100" width="100%" height="100%" fill="rgb(188, 143, 143)" />
    <polyline id="faceContour" points="67.48,0.22 67.29,0.98 67.48,2.86 67.25,5.89 67.34,5.23 67.06,6.32 67.16,8.77 66.91,11.01 67.06,10.23 66.6,12.93 66.75,13.25 66.53,14.97 66.41,14.58 66.12,17.65 65.9,17.8 65.87,19.31 65.17,21.24 65.01,22.55 64.73,23.65 64.62,25.12 64.22,26.35 63.54,29.73 63.31,29.35 63.39,29.17 62.72,32.13 62.25,33.03 62.16,33.82 61.87,35.08 61.15,37.26 60.75,38.02 59.55,40.5 59.51,41.2 59.07,42.52 59.06,42.47 58.1,44.03 56.81,46.78 57.33,45.62 55.91,49.3 54.72,50.93 54.64,50.9 54.46,51.49 53.24,53.58 53.37,53.44 52.11,55.55 52.82,54.33 51.53,56.22 49.6,59.12 51.01,57.15 48.71,60.52 47.49,61.96 47.3,62.37 47.09,62.61 46.2,63.71 45.38,64.86 43.93,66.17 42.78,67.56 42.87,67.5 41.84,68.52 41.82,68.54 40.37,70.11 39.58,70.93 38.03,72.08 37.6,72.39 38.1,72.09 36.61,73.22 35.91,73.97 34.46,75.13 33,76.26 33.15,76.24 31.73,77.12 29.77,78.3 30.2,78.24 28.83,79.16 28.42,79.08 27.46,80.1 24.56,81.36 26.24,80.75 23.83,81.82 23.04,82.11 22.43,82.39 21.64,82.85 21.03,82.99 18.73,83.85 17.98,84.3 17.97,84.22 15.61,84.86 14.88,85.29 14.79,85.4 12.26,86.03 11.79,86.26 9.63,86.55 8.91,86.55 9.25,86.61 6.99,86.93 7.75,86.76 4.56,87.4 3.96,87.19 4.53,87.22 0.78,87.61 1.36,87.25 -1.69,87.36 -2.03,87.59 -3.37,87.17 -4.66,87.16 -4.13,87.13 -5.83,87.22 -5.32,87.18 -8.16,86.72 -8.08,86.75 -11.34,86.24 -11.32,86.2 -12.38,85.88 -12.45,85.78 -14.65,85.55 -15.01,85.45 -16.11,85.07 -17.23,84.79 -18.42,84.21 -18.58,83.95 -19.69,83.68 -21.64,83.06 -21.52,82.9 -21.2,83.08 -23.69,81.87 -24.28,81.71 -26.15,80.51 -26.14,80.73 -26.39,80.31 -28.29,79.29 -29.28,78.73 -30.21,78.21 -30.31,77.96 -32.04,76.73 -33.23,76.11 -33.78,75.75 -35.22,74.4 -36.46,73.73 -37.6,72.84 -37.32,72.97 -39.8,70.74 -41,69.45 -40.39,69.83 -40.89,69.47 -41.03,69.31 -42.23,67.94 -44.22,65.94 -44.79,65.3 -46.29,63.82 -46.09,63.97 -46.69,63.52 -47.59,62.02 -48.39,60.93 -49.32,59.7 -49.08,60.26 -50.62,57.49 -50.68,57.59 -50.94,57.64 -52.54,54.93 -53.42,53.55 -53.27,53.76 -54.84,50.65 -54.96,50.63 -55.46,49.61 -56.11,48.58 -57.11,46.63 -57.92,44.84 -58.08,44.39 -59.16,42.46 -58.88,42.47 -59.45,41.34 -59.64,40.53 -61.2,36.93 -61.5,36.33 -61.14,37.45 -62.14,34.26 -62.41,33.12 -63.13,30.87 -63.19,30.89 -63.47,29.62 -63.33,30.23 -64.15,26.7 -64.81,24.99 -64.48,26.27 -65.37,21.48 -65.11,22.71 -65.59,21.53 -65.87,19.17 -66.18,17.42 -66.21,15.96 -66.25,15.54 -66.44,14.38 -66.77,13.25 -66.85,13.57 -67.1,8.01 -67.51,6.01 -67.34,6.9 -67.37,6.42 -67.62,2.98 -67.37,0.71 -67.55,0.33 -67.39,-0.78 -67.37,-1.81 -67.31,-4.09 -67.58,-3.42 -67.41,-6.04 -67.18,-6.04 -67.25,-8.86 -67.08,-9.76 -66.92,-10.33 -66.7,-12.73 -66.86,-13.28 -66.4,-14.89 -66.4,-17.02 -66.51,-15.74 -65.57,-21.36 -65.49,-21.85 -65.14,-22.57 -65.61,-20.99 -64.65,-24.32 -64.48,-26.22 -64.13,-26.58 -64.08,-27.7 -63.86,-28.87 -63.61,-29.68 -62.34,-33.43 -62.53,-33.09 -61.79,-34.7 -61.56,-35.92 -60.67,-38.37 -60.65,-38.53 -60.45,-39.18 -59.06,-42.39 -59.38,-41.49 -59.18,-41.91 -57.72,-45.1 -58.41,-43.98 -57.09,-46.32 -55.4,-49.99 -55.8,-49.51 -55.78,-49.28 -54.42,-51.44 -54.58,-51.51 -52.89,-54.57 -52.7,-54.44 -51.78,-56.01 -50.86,-57.33 -50.05,-58.59 -50.79,-57.71 -48.02,-61.27 -48.26,-61.09 -48.03,-61.61 -47.22,-62.61 -45.54,-64.68 -45.24,-64.81 -44.8,-65.39 -44.71,-65.47 -43.2,-67.46 -40.85,-69.56 -40.8,-69.59 -39.59,-71.02 -40.05,-70.62 -39.19,-71.21 -38.8,-71.71 -36.98,-73.12 -36.27,-73.81 -35.47,-74.16 -34.93,-74.8 -32.79,-76.4 -32.57,-76.57 -31.17,-77.36 -31.1,-77.61 -30.28,-78.3 -28.59,-79.01 -26.92,-80.18 -26.66,-80.33 -26.25,-80.63 -23.72,-81.89 -23.05,-82 -22.58,-82.49 -21.14,-82.98 -22.2,-82.62 -19.32,-84 -18.66,-84.11 -18.93,-84.04 -17.93,-84.45 -16.21,-85.06 -16.03,-84.9 -13.26,-85.66 -13.31,-85.6 -10.24,-86.37 -12.1,-86.17 -10.43,-86.22 -8.68,-86.83 -5.73,-87.14 -5.81,-86.95 -5.22,-87.27 -3.85,-87.47 -2.65,-87.21 -2.27,-87.46 -0.81,-87.32 1.07,-87.57 2.37,-87.5 2.36,-87.22 2.5,-87.25 3.56,-87.22 6.16,-87.23 7.99,-86.63 6.94,-86.79 9.31,-86.43 8.73,-86.75 11.34,-86.33 10.29,-86.55 12.65,-85.64 13.89,-85.62 15.78,-84.8 17.39,-84.59 16.94,-84.69 18.67,-84.13 19.56,-83.74 20.68,-83.13 19.81,-83.69 21,-82.98 23.67,-81.64 24.55,-81.22 23.9,-81.7 25.99,-80.62 26.94,-80.08 26.97,-80.03 28.35,-79.18 29.6,-78.58 30.57,-77.8 31.82,-77.12 32.34,-76.96 32.1,-76.89 33.98,-75.38 33.89,-75.33 35.43,-74.62 37.72,-72.46 38.36,-71.74 38.85,-71.2 40.62,-69.74 39.76,-70.37 42.38,-67.91 43,-67.38 43.75,-66.18 43.69,-66.73 44.71,-65.3 44.5,-65.41 47.02,-62.31 46.61,-63.02 47.95,-61.27 48.85,-60.03 48.64,-60.69 50.38,-58.18 50.57,-57.72 51.41,-56.42 51.55,-56.1 53.09,-54.01 52.12,-55.66 52.97,-53.76 53.94,-52.24 55.53,-49.52 56.41,-47.83 56.57,-47.61 56.66,-47.11 57.22,-45.83 58.2,-43.66 59.42,-41.06 59.24,-42.09 59.56,-40.36 59.87,-40.45 60.43,-38.89 60.45,-38.63 61.19,-36.87 61.83,-34.12 62.33,-32.54 61.88,-34.44 62.91,-30.97 63.66,-28.27 63.69,-28 64.07,-27.45 64.76,-24.36 64.38,-25.56 64.83,-24 65.33,-21.61 65.91,-18.57 66.01,-18.16 66.15,-17.3 66.26,-16.07 66.16,-15.34 66.68,-13.82 66.86,-12.48 66.7,-11.14 66.67,-11.59 67.2,-6.97 67.27,-7.2 67.14,-6.12 67.35,-5.47 67.18,-3.55 67.21,-1.38 67.48,0.22 67.29,0.98" fill="rgb(210, 105, 30)" stroke="black" stroke-width="1.6666666666666665" stroke-linejoin="round" filter="url(#fuzzy)" />
    <g transform="translate(42.03 -24.77)">
      <polyline id="rightCountour" points="-27,6.07 -26.63,5.77 -26.24,5.46 -25.83,5.13 -25.4,4.79 -24.95,4.43 -24.48,4.06 -23.99,3.68 -23.49,3.29 -22.97,2.89 -22.43,2.47 -21.88,2.05 -21.31,1.62 -20.73,1.18 -20.13,0.73 -19.53,0.28 -18.86,-0.19 -18.18,-0.68 -17.48,-1.18 -16.76,-1.7 -16.02,-2.22 -15.27,-2.76 -14.5,-3.3 -13.71,-3.84 -12.91,-4.38 -12.1,-4.92 -11.28,-5.46 -10.44,-5.99 -9.6,-6.5 -8.75,-7.01 -7.89,-7.5 -7.02,-7.97 -6.15,-8.42 -5.28,-8.85 -4.4,-9.26 -3.53,-9.64 -2.65,-9.99 -1.78,-10.32 -0.91,-10.61 -0.04,-10.87 0.82,-11.1 1.68,-11.3 2.52,-11.46 3.36,-11.59 4.19,-11.68 5.01,-11.74 5.82,-11.76 6.61,-11.75 7.39,-11.7 8.15,-11.62 8.9,-11.5 9.63,-11.35 10.35,-11.17 11.05,-10.96 11.73,-10.72 12.38,-10.46 13.02,-10.17 13.64,-9.85 14.24,-9.51 14.82,-9.15 15.38,-8.78 15.92,-8.38 16.43,-7.98 16.92,-7.56 17.4,-7.13 17.85,-6.7 18.28,-6.26 18.69,-5.81 19.08,-5.35 19.46,-4.88 19.81,-4.4 20.14,-3.92 20.45,-3.43 20.75,-2.93 21.02,-2.43 21.27,-1.93 21.51,-1.43 21.72,-0.93 21.92,-0.43 22.09,0.07 24.69,7.4 24.34,7.61 23.97,7.81 23.59,8.01 23.19,8.2 22.78,8.39 22.35,8.57 21.9,8.74 21.44,8.9 20.96,9.06 20.46,9.22 19.95,9.36 19.43,9.51 18.88,9.64 18.32,9.77 17.75,9.89 17.16,10.01 16.54,10.12 15.91,10.22 15.27,10.32 14.6,10.41 13.92,10.5 13.22,10.58 12.5,10.66 11.76,10.73 11.01,10.79 10.24,10.85 9.46,10.9 8.66,10.94 7.85,10.98 7.03,11.02 6.19,11.04 5.35,11.07 4.49,11.09 3.62,11.1 2.74,11.11 1.86,11.11 0.97,11.11 0.08,11.11 -0.82,11.1 -1.72,11.09 -2.62,11.08 -3.53,11.06 -4.43,11.04 -5.33,11.02 -6.22,11 -7.11,10.97 -8,10.95 -8.87,10.92 -9.74,10.89 -10.6,10.86 -11.45,10.83 -12.28,10.8 -13.1,10.77 -13.91,10.74 -14.7,10.71 -15.47,10.68 -16.22,10.65 -16.96,10.62 -17.67,10.59 -18.37,10.57 -19.04,10.54 -19.69,10.52 -20.31,10.5 -20.92,10.48 -21.49,10.45 -22.05,10.43 -22.59,10.4 -23.11,10.37 -23.62,10.35 -24.12,10.32 -24.59,10.3 -25.05,10.27 -25.49,10.24 -25.91,10.22 -26.31,10.19 -26.69,10.16 -27.05,10.14 -27.39,10.11 -27.71,10.08" fill="white" stroke="white" stroke-width="0" stroke-linejoin="round" filter="url(#fuzzy)" />
    </g>
    <g transform="translate(-26.69 -24.05)">
      <polyline id="leftCountour" points="28.31,7.03 27.94,6.65 27.55,6.25 27.14,5.83 26.7,5.39 26.24,4.94 25.75,4.48 25.24,4 24.71,3.51 24.16,3 23.6,2.49 23.01,1.96 22.4,1.43 21.78,0.88 21.14,0.33 20.48,-0.22 19.78,-0.82 19.04,-1.43 18.29,-2.05 17.51,-2.69 16.71,-3.34 15.89,-4 15.05,-4.66 14.2,-5.32 13.33,-5.98 12.44,-6.63 11.54,-7.27 10.63,-7.91 9.71,-8.52 8.79,-9.12 7.85,-9.7 6.92,-10.26 5.98,-10.79 5.03,-11.29 4.09,-11.77 3.15,-12.21 2.22,-12.61 1.28,-12.98 0.36,-13.32 -0.56,-13.61 -1.47,-13.86 -2.37,-14.08 -3.25,-14.25 -4.13,-14.38 -4.98,-14.46 -5.83,-14.51 -6.66,-14.51 -7.47,-14.47 -8.26,-14.39 -9.03,-14.26 -9.78,-14.1 -10.51,-13.9 -11.22,-13.66 -11.91,-13.39 -12.58,-13.08 -13.22,-12.74 -13.85,-12.37 -14.44,-11.97 -15.02,-11.55 -15.57,-11.1 -16.1,-10.63 -16.61,-10.14 -17.09,-9.64 -17.55,-9.12 -17.99,-8.59 -18.41,-8.06 -18.81,-7.52 -19.19,-6.96 -19.54,-6.4 -19.88,-5.82 -20.2,-5.23 -20.49,-4.64 -20.77,-4.04 -21.03,-3.44 -21.27,-2.83 -21.48,-2.22 -21.68,-1.6 -21.86,-0.99 -22.03,-0.38 -22.17,0.23 -22.35,8.33 -21.98,8.64 -21.6,8.94 -21.2,9.23 -20.79,9.51 -20.37,9.79 -19.94,10.05 -19.49,10.31 -19.02,10.56 -18.55,10.8 -18.06,11.02 -17.56,11.24 -17.04,11.45 -16.52,11.65 -15.98,11.85 -15.42,12.03 -14.86,12.2 -14.28,12.37 -13.68,12.53 -13.07,12.68 -12.44,12.82 -11.8,12.95 -11.15,13.07 -10.49,13.19 -9.81,13.29 -9.12,13.39 -8.42,13.47 -7.71,13.55 -6.99,13.62 -6.26,13.68 -5.52,13.73 -4.77,13.78 -4.01,13.81 -3.25,13.84 -2.48,13.86 -1.7,13.87 -0.91,13.88 -0.12,13.88 0.67,13.87 1.47,13.86 2.27,13.84 3.07,13.82 3.88,13.79 4.68,13.76 5.49,13.73 6.3,13.69 7.1,13.65 7.91,13.6 8.71,13.56 9.51,13.51 10.31,13.46 11.1,13.41 11.89,13.35 12.67,13.3 13.45,13.25 14.22,13.2 14.98,13.15 15.73,13.1 16.48,13.05 17.22,13 17.95,12.96 18.66,12.91 19.37,12.87 20.06,12.83 20.75,12.8 21.34,12.75 21.92,12.7 22.49,12.65 23.04,12.6 23.59,12.55 24.12,12.5 24.64,12.45 25.14,12.4 25.62,12.35 26.09,12.3 26.54,12.25 26.98,12.19 27.39,12.13 27.78,12.08 28.15,12.02" fill="white" stroke="white" stroke-width="0" stroke-linejoin="round" filter="url(#fuzzy)" />
    </g>
    <g transform="translate(42.03 -24.77)">
      <polyline id="rightUpper" points="-29.39,8.15 -29.27,8.02 -29.12,7.87 -28.94,7.71 -28.74,7.52 -28.51,7.32 -28.25,7.11 -27.97,6.87 -27.67,6.62 -27.35,6.36 -27,6.07 -26.63,5.77 -26.24,5.46 -25.83,5.13 -25.4,4.79 -24.95,4.43 -24.48,4.06 -23.99,3.68 -23.49,3.29 -22.97,2.89 -22.43,2.47 -21.88,2.05 -21.31,1.62 -20.73,1.18 -20.13,0.73 -19.53,0.28 -18.86,-0.19 -18.18,-0.68 -17.48,-1.18 -16.76,-1.7 -16.02,-2.22 -15.27,-2.76 -14.5,-3.3 -13.71,-3.84 -12.91,-4.38 -12.1,-4.92 -11.28,-5.46 -10.44,-5.99 -9.6,-6.5 -8.75,-7.01 -7.89,-7.5 -7.02,-7.97 -6.15,-8.42 -5.28,-8.85 -4.4,-9.26 -3.53,-9.64 -2.65,-9.99 -1.78,-10.32 -0.91,-10.61 -0.04,-10.87 0.82,-11.1 1.68,-11.3 2.52,-11.46 3.36,-11.59 4.19,-11.68 5.01,-11.74 5.82,-11.76 6.61,-11.75 7.39,-11.7 8.15,-11.62 8.9,-11.5 9.63,-11.35 10.35,-11.17 11.05,-10.96 11.73,-10.72 12.38,-10.46 13.02,-10.17 13.64,-9.85 14.24,-9.51 14.82,-9.15 15.38,-8.78 15.92,-8.38 16.43,-7.98 16.92,-7.56 17.4,-7.13 17.85,-6.7 18.28,-6.26 18.69,-5.81 19.08,-5.35 19.46,-4.88 19.81,-4.4 20.14,-3.92 20.45,-3.43 20.75,-2.93 21.02,-2.43 21.27,-1.93 21.51,-1.43 21.72,-0.93 21.92,-0.43 22.09,0.07 22.25,0.57 22.38,1.07 22.5,1.56 22.6,2.05 22.68,2.53 22.74,3.01 22.79,3.49 22.81,3.95 22.82,4.42 22.82,4.87" fill="none" stroke="black" stroke-width="1.6666666666666665" stroke-linejoin="round" filter="url(#fuzzy)" />
      <polyline id="rightLower" points="-29.66,9.72 -29.58,9.77 -29.46,9.81 -29.32,9.85 -29.16,9.89 -28.98,9.92 -28.77,9.96 -28.54,9.99 -28.28,10.02 -28.01,10.05 -27.71,10.08 -27.39,10.11 -27.05,10.14 -26.69,10.16 -26.31,10.19 -25.91,10.22 -25.49,10.24 -25.05,10.27 -24.59,10.3 -24.12,10.32 -23.62,10.35 -23.11,10.37 -22.59,10.4 -22.05,10.43 -21.49,10.45 -20.92,10.48 -20.31,10.5 -19.69,10.52 -19.04,10.54 -18.37,10.57 -17.67,10.59 -16.96,10.62 -16.22,10.65 -15.47,10.68 -14.7,10.71 -13.91,10.74 -13.1,10.77 -12.28,10.8 -11.45,10.83 -10.6,10.86 -9.74,10.89 -8.87,10.92 -8,10.95 -7.11,10.97 -6.22,11 -5.33,11.02 -4.43,11.04 -3.53,11.06 -2.62,11.08 -1.72,11.09 -0.82,11.1 0.08,11.11 0.97,11.11 1.86,11.11 2.74,11.11 3.62,11.1 4.49,11.09 5.35,11.07 6.19,11.04 7.03,11.02 7.85,10.98 8.66,10.94 9.46,10.9 10.24,10.85 11.01,10.79 11.76,10.73 12.5,10.66 13.22,10.58 13.92,10.5 14.6,10.41 15.27,10.32 15.91,10.22 16.54,10.12 17.16,10.01 17.75,9.89 18.32,9.77 18.88,9.64 19.43,9.51 19.95,9.36 20.46,9.22 20.96,9.06 21.44,8.9 21.9,8.74 22.35,8.57 22.78,8.39 23.19,8.2 23.59,8.01 23.97,7.81 24.34,7.61 24.69,7.4 25.03,7.18 25.34,6.96 25.65,6.73 25.94,6.5 26.21,6.26 26.47,6.01 26.72,5.76 26.95,5.5 27.17,5.24 27.38,4.98" fill="none" stroke="black" stroke-width="2.2222222222222223" stroke-linejoin="round" filter="url(#fuzzy)" />
      <circle r="4.532" cx="7.05674320091728" cy="-3.36118126627565" stroke="black" fill="none" stroke-width="1.0" filter="url(#fuzzy)" clip-path="url(#rightEyeClipPath)" /><circle r="4.9" cx="5.94174320091728" cy="-5.96618126627565" stroke="black" fill="none" stroke-width="1.0" filter="url(#fuzzy)" clip-path="url(#rightEyeClipPath)" /><circle r="4.214" cx="4.866743200917281" cy="-4.976181266275651" stroke="black" fill="none" stroke-width="1.0" filter="url(#fuzzy)" clip-path="url(#rightEyeClipPath)" /><circle r="4.564" cx="4.9167432009172805" cy="-2.21618126627565" stroke="black" fill="none" stroke-width="1.0" filter="url(#fuzzy)" clip-path="url(#rightEyeClipPath)" /><circle r="3.098" cx="6.301743200917281" cy="-4.07118126627565" stroke="black" fill="none" stroke-width="1.0" filter="url(#fuzzy)" clip-path="url(#rightEyeClipPath)" /><circle r="3.424" cx="5.766743200917281" cy="-1.5711812662756506" stroke="black" fill="none" stroke-width="1.0" filter="url(#fuzzy)" clip-path="url(#rightEyeClipPath)" /><circle r="3.124" cx="8.236743200917282" cy="-2.0411812662756503" stroke="black" fill="none" stroke-width="1.0" filter="url(#fuzzy)" clip-path="url(#rightEyeClipPath)" /><circle r="4.87" cx="6.361743200917282" cy="-5.39118126627565" stroke="black" fill="none" stroke-width="1.0" filter="url(#fuzzy)" clip-path="url(#rightEyeClipPath)" /><circle r="4.364" cx="4.731743200917281" cy="-3.5311812662756505" stroke="black" fill="none" stroke-width="1.0" filter="url(#fuzzy)" clip-path="url(#rightEyeClipPath)" /><circle r="3.782" cx="6.9517432009172815" cy="-5.06118126627565" stroke="black" fill="none" stroke-width="1.0" filter="url(#fuzzy)" clip-path="url(#rightEyeClipPath)" />
      </g>
    <g transform="translate(-26.69 -24.05)">
      <polyline id="leftUpper" points="30.37,9.7 30.3,9.53 30.2,9.34 30.07,9.13 29.91,8.89 29.72,8.63 29.49,8.35 29.24,8.05 28.96,7.73 28.65,7.39 28.31,7.03 27.94,6.65 27.55,6.25 27.14,5.83 26.7,5.39 26.24,4.94 25.75,4.48 25.24,4 24.71,3.51 24.16,3 23.6,2.49 23.01,1.96 22.4,1.43 21.78,0.88 21.14,0.33 20.48,-0.22 19.78,-0.82 19.04,-1.43 18.29,-2.05 17.51,-2.69 16.71,-3.34 15.89,-4 15.05,-4.66 14.2,-5.32 13.33,-5.98 12.44,-6.63 11.54,-7.27 10.63,-7.91 9.71,-8.52 8.79,-9.12 7.85,-9.7 6.92,-10.26 5.98,-10.79 5.03,-11.29 4.09,-11.77 3.15,-12.21 2.22,-12.61 1.28,-12.98 0.36,-13.32 -0.56,-13.61 -1.47,-13.86 -2.37,-14.08 -3.25,-14.25 -4.13,-14.38 -4.98,-14.46 -5.83,-14.51 -6.66,-14.51 -7.47,-14.47 -8.26,-14.39 -9.03,-14.26 -9.78,-14.1 -10.51,-13.9 -11.22,-13.66 -11.91,-13.39 -12.58,-13.08 -13.22,-12.74 -13.85,-12.37 -14.44,-11.97 -15.02,-11.55 -15.57,-11.1 -16.1,-10.63 -16.61,-10.14 -17.09,-9.64 -17.55,-9.12 -17.99,-8.59 -18.41,-8.06 -18.81,-7.52 -19.19,-6.96 -19.54,-6.4 -19.88,-5.82 -20.2,-5.23 -20.49,-4.64 -20.77,-4.04 -21.03,-3.44 -21.27,-2.83 -21.48,-2.22 -21.68,-1.6 -21.86,-0.99 -22.03,-0.38 -22.17,0.23 -22.29,0.84 -22.4,1.44 -22.49,2.04 -22.56,2.63 -22.62,3.22 -22.66,3.81 -22.68,4.38 -22.69,4.95 -22.68,5.51 -22.66,6.07" fill="none" stroke="black" stroke-width="2.2222222222222223" stroke-linejoin="round" filter="url(#fuzzy)" />
      <polyline id="leftLower" points="30.39,11.25 30.31,11.35 30.19,11.44 30.03,11.52 29.85,11.6 29.63,11.68 29.39,11.75 29.12,11.82 28.82,11.89 28.5,11.95 28.15,12.02 27.78,12.08 27.39,12.13 26.98,12.19 26.54,12.25 26.09,12.3 25.62,12.35 25.14,12.4 24.64,12.45 24.12,12.5 23.59,12.55 23.04,12.6 22.49,12.65 21.92,12.7 21.34,12.75 20.75,12.8 20.06,12.83 19.37,12.87 18.66,12.91 17.95,12.96 17.22,13 16.48,13.05 15.73,13.1 14.98,13.15 14.22,13.2 13.45,13.25 12.67,13.3 11.89,13.35 11.1,13.41 10.31,13.46 9.51,13.51 8.71,13.56 7.91,13.6 7.1,13.65 6.3,13.69 5.49,13.73 4.68,13.76 3.88,13.79 3.07,13.82 2.27,13.84 1.47,13.86 0.67,13.87 -0.12,13.88 -0.91,13.88 -1.7,13.87 -2.48,13.86 -3.25,13.84 -4.01,13.81 -4.77,13.78 -5.52,13.73 -6.26,13.68 -6.99,13.62 -7.71,13.55 -8.42,13.47 -9.12,13.39 -9.81,13.29 -10.49,13.19 -11.15,13.07 -11.8,12.95 -12.44,12.82 -13.07,12.68 -13.68,12.53 -14.28,12.37 -14.86,12.2 -15.42,12.03 -15.98,11.85 -16.52,11.65 -17.04,11.45 -17.56,11.24 -18.06,11.02 -18.55,10.8 -19.02,10.56 -19.49,10.31 -19.94,10.05 -20.37,9.79 -20.79,9.51 -21.2,9.23 -21.6,8.94 -21.98,8.64 -22.35,8.33 -22.71,8.01 -23.05,7.68 -23.38,7.35 -23.69,7 -23.99,6.65 -24.28,6.29 -24.55,5.93 -24.82,5.55 -25.07,5.17 -25.3,4.79" fill="none" stroke="black" stroke-width="2.2222222222222223" stroke-linejoin="round" filter="url(#fuzzy)" />
      <circle r="3.19" cx="-3.222543714338981" cy="6.385382082073846" stroke="black" fill="none" stroke-width="1.0" filter="url(#fuzzy)" clip-path="url(#leftEyeClipPath)" /><circle r="3.224" cx="-5.542543714338981" cy="10.450382082073846" stroke="black" fill="none" stroke-width="1.0" filter="url(#fuzzy)" clip-path="url(#leftEyeClipPath)" /><circle r="3.024" cx="-2.3875437143389813" cy="9.790382082073847" stroke="black" fill="none" stroke-width="1.0" filter="url(#fuzzy)" clip-path="url(#leftEyeClipPath)" /><circle r="3.768" cx="-4.0275437143389805" cy="10.475382082073846" stroke="black" fill="none" stroke-width="1.0" filter="url(#fuzzy)" clip-path="url(#leftEyeClipPath)" /><circle r="3.904" cx="-2.777543714338981" cy="7.975382082073846" stroke="black" fill="none" stroke-width="1.0" filter="url(#fuzzy)" clip-path="url(#leftEyeClipPath)" /><circle r="4.106" cx="-3.057543714338981" cy="9.245382082073846" stroke="black" fill="none" stroke-width="1.0" filter="url(#fuzzy)" clip-path="url(#leftEyeClipPath)" /><circle r="3.662" cx="-1.7325437143389815" cy="10.545382082073846" stroke="black" fill="none" stroke-width="1.0" filter="url(#fuzzy)" clip-path="url(#leftEyeClipPath)" /><circle r="4.828" cx="-4.337543714338981" cy="6.885382082073846" stroke="black" fill="none" stroke-width="1.0" filter="url(#fuzzy)" clip-path="url(#leftEyeClipPath)" /><circle r="4.264" cx="-4.587543714338981" cy="11.280382082073846" stroke="black" fill="none" stroke-width="1.0" filter="url(#fuzzy)" clip-path="url(#leftEyeClipPath)" /><circle r="3.034" cx="-3.957543714338981" cy="7.670382082073846" stroke="black" fill="none" stroke-width="1.0" filter="url(#fuzzy)" clip-path="url(#leftEyeClipPath)" />
    </g>
    <g id="hairs">
      <polyline points="23.67,-81.64 24.01,-81.4 23.97,-81.1 23.67,-80.63 22.96,-80.03 21.76,-79.34 20.03,-78.56 17.72,-77.71 14.79,-76.82 11.19,-75.89 6.89,-74.92 1.86,-73.89 -3.94,-72.71 -10.56,-71.31 -18.04,-69.67 -26.37,-67.88 -35.44,-66.19" fill="none" stroke="rgb(34, 139, 34)" stroke-width="2" stroke-linejoin="round" filter="url(#fuzzy)" /><polyline points="48.85,-60.03 48.8,-59.87 48.35,-59.17 47.09,-58.58 44.94,-58.22 41.87,-58.12 37.85,-58.23 32.91,-58.49 27.06,-58.83 20.31,-59.25 12.63,-59.85 3.88,-60.74 -6.08,-61.94 -17.43,-63.33 -30.31,-64.59" fill="none" stroke="rgb(34, 139, 34)" stroke-width="2" stroke-linejoin="round" filter="url(#fuzzy)" /><polyline points="59.87,-40.45 60.26,-39.3 60.58,-38.26 60.87,-37.18 61.07,-36.25 61.15,-35.59 61.11,-35.2 60.93,-35.05 60.6,-35.2 60.08,-35.7 59.36,-36.62 58.42,-37.95 57.27,-39.69 55.92,-41.8 54.33,-44.33 52.46,-47.34 50.27,-50.97 47.72,-55.26 44.87,-60.19 41.72,-65.7" fill="none" stroke="rgb(34, 139, 34)" stroke-width="2" stroke-linejoin="round" filter="url(#fuzzy)" /><polyline points="52.12,-55.66 52.9,-53.95 53.55,-52.37 53.88,-51.08 53.76,-50.2 53.2,-49.68 52.28,-49.4 51.01,-49.29 49.41,-49.39 47.42,-49.72 45.01,-50.34 42.18,-51.23 38.92,-52.38 35.26,-53.73 31.19,-55.27 26.72,-56.99 21.83,-58.93 16.49,-61.12 10.69,-63.61 4.41,-66.38 -2.42,-69.43 -9.9,-72.75 -18.11,-76.36" fill="none" stroke="rgb(34, 139, 34)" stroke-width="2" stroke-linejoin="round" filter="url(#fuzzy)" /><polyline points="-13.26,-85.66 -12.55,-85.8 -11.47,-86.02 -10.27,-86.22 -8.84,-86.41 -7.21,-86.61 -5.54,-86.79 -3.98,-86.94 -2.6,-87.05 -1.44,-87.14 -0.48,-87.21 0.28,-87.27 0.86,-87.33 1.22,-87.37 1.26,-87.41 0.75,-87.42 -0.47,-87.41" fill="none" stroke="rgb(34, 139, 34)" stroke-width="2" stroke-linejoin="round" filter="url(#fuzzy)" /><polyline points="38.85,-71.2 39.85,-70.3 40.44,-69.61 40.88,-68.94 41.05,-68.39 40.89,-68.03 40.4,-67.82 39.63,-67.7 38.59,-67.65 37.27,-67.7 35.61,-67.87 33.57,-68.18 31.12,-68.66 28.24,-69.32 24.92,-70.15 21.16,-71.16 16.91,-72.36 12.12,-73.77 6.77,-75.4 0.88,-77.24 -5.46,-79.27 -12.09,-81.49" fill="none" stroke="rgb(34, 139, 34)" stroke-width="2" stroke-linejoin="round" filter="url(#fuzzy)" /><polyline points="-35.47,-74.16 -34.55,-74.99 -33.46,-75.84 -32.48,-76.55 -31.61,-77.17 -30.78,-77.73 -29.96,-78.27 -29.18,-78.75 -28.47,-79.16 -27.88,-79.47 -27.46,-79.66 -27.22,-79.69 -27.22,-79.57 -27.45,-79.29 -27.92,-78.85 -28.63,-78.25 -29.55,-77.5 -30.7,-76.59 -32.1,-75.49 -33.83,-74.11 -35.99,-72.38 -38.65,-70.22 -41.74,-67.71" fill="none" stroke="rgb(34, 139, 34)" stroke-width="2" stroke-linejoin="round" filter="url(#fuzzy)" /><polyline points="43.69,-66.73 44.47,-65.61 45.33,-64.44 46.3,-63.19 47.25,-61.97 48.15,-60.83 48.96,-59.79 49.68,-58.84 50.31,-58 50.83,-57.27 51.23,-56.71 51.47,-56.36 51.52,-56.28 51.37,-56.49 51.02,-56.97 50.47,-57.7 49.68,-58.74 48.51,-60.35" fill="none" stroke="rgb(34, 139, 34)" stroke-width="2" stroke-linejoin="round" filter="url(#fuzzy)" /><polyline points="-22.2,-82.62 -20.18,-83.52 -18.97,-83.95 -17.93,-84.27 -16.77,-84.59 -15.45,-84.92 -14.03,-85.26 -12.61,-85.59 -11.28,-85.9 -10.08,-86.18 -9.04,-86.42 -8.13,-86.63 -7.37,-86.8 -6.81,-86.91 -6.55,-86.97 -6.7,-86.95 -7.28,-86.85 -8.23,-86.67 -9.39,-86.45 -10.76,-86.17" fill="none" stroke="rgb(34, 139, 34)" stroke-width="2" stroke-linejoin="round" filter="url(#fuzzy)" /><polyline points="-18.66,-84.11 -18.38,-84.21 -17.39,-84.51 -16.03,-84.86 -14.5,-85.21 -12.94,-85.56 -11.48,-85.88 -10.18,-86.18 -9.06,-86.43 -8.08,-86.65 -7.24,-86.82 -6.64,-86.95 -6.43,-87 -6.78,-86.95 -7.83,-86.78 -9.64,-86.48" fill="none" stroke="rgb(34, 139, 34)" stroke-width="2" stroke-linejoin="round" filter="url(#fuzzy)" /><polyline points="35.43,-74.62 37.11,-73 38.25,-71.85 39.25,-70.85 40.23,-69.87 41.22,-68.86 42.2,-67.86 43.1,-66.93 43.89,-66.08 44.57,-65.32 45.15,-64.66 45.64,-64.08 46.03,-63.62 46.29,-63.3 46.41,-63.15 46.36,-63.2 46.13,-63.45 45.69,-63.92 44.98,-64.68 43.95,-65.77 42.6,-67.22 41,-68.95" fill="none" stroke="rgb(34, 139, 34)" stroke-width="2" stroke-linejoin="round" filter="url(#fuzzy)" /><polyline points="-0.81,-87.32 0.79,-87.39 2.06,-87.22 3.28,-86.92 4.71,-86.54 6.41,-86.09 8.29,-85.59 10.22,-85.06 12.11,-84.53 13.91,-84.01 15.66,-83.5 17.36,-83 19.05,-82.48 20.72,-81.95 22.33,-81.43 23.78,-80.95 24.97,-80.57 25.79,-80.33 26.27,-80.24 26.54,-80.21" fill="none" stroke="rgb(34, 139, 34)" stroke-width="2" stroke-linejoin="round" filter="url(#fuzzy)" /><polyline points="26.94,-80.08 27.44,-79.75 28.46,-79.11 29.61,-78.37 30.75,-77.62 31.8,-76.89 32.78,-76.18 33.74,-75.44 34.71,-74.68 35.69,-73.9 36.64,-73.12 37.51,-72.39 38.24,-71.78 38.78,-71.31 39.08,-71.03 39.14,-70.96 38.93,-71.1 38.45,-71.48 37.69,-72.09 36.69,-72.9 35.52,-73.88 34.2,-74.98 32.67,-76.21" fill="none" stroke="rgb(34, 139, 34)" stroke-width="2" stroke-linejoin="round" filter="url(#fuzzy)" /><polyline points="6.16,-87.23 7.01,-86.83 7.08,-86.52 6.78,-86.14 6.08,-85.63 4.92,-84.92 3.28,-83.99 1.12,-82.85 -1.62,-81.52 -5.02,-80.02 -9.22,-78.35 -14.35,-76.43 -20.51,-74.15 -27.76,-71.42 -36,-68.31" fill="none" stroke="rgb(34, 139, 34)" stroke-width="2" stroke-linejoin="round" filter="url(#fuzzy)" /><polyline points="51.41,-56.42 51.7,-55.89 51.77,-55.51 51.54,-55.28 51.11,-55.03 50.45,-54.79 49.46,-54.77 48,-55.1 46.02,-55.87 43.51,-57.06 40.5,-58.63 37,-60.59 32.95,-62.98 28.27,-65.86 22.9,-69.24 16.87,-73.1 10.22,-77.4 2.92,-82.14" fill="none" stroke="rgb(34, 139, 34)" stroke-width="2" stroke-linejoin="round" filter="url(#fuzzy)" /><polyline points="2.5,-87.25 4.01,-87.14 5.78,-86.84 7.39,-86.42 8.88,-85.94 10.39,-85.4 11.98,-84.79 13.69,-84.11 15.52,-83.34 17.45,-82.52 19.45,-81.65 21.44,-80.77 23.37,-79.89 25.18,-79.05 26.85,-78.25 28.35,-77.52 29.7,-76.86 30.91,-76.29 31.97,-75.8 32.84,-75.46 33.43,-75.32 33.65,-75.39 33.64,-75.54" fill="none" stroke="rgb(34, 139, 34)" stroke-width="2" stroke-linejoin="round" filter="url(#fuzzy)" /><polyline points="-21.14,-82.98 -20.92,-83.06 -19.68,-83.36 -18.24,-83.53 -16.64,-83.58 -14.81,-83.55 -12.73,-83.47 -10.42,-83.35 -7.94,-83.17 -5.37,-82.94 -2.73,-82.65 -0.04,-82.33 2.71,-81.98 5.48,-81.62 8.26,-81.25 10.97,-80.89 13.58,-80.54 16.06,-80.21 18.4,-79.91 20.65,-79.62 22.84,-79.32 25.01,-78.98 27.13,-78.59 29.08,-78.13" fill="none" stroke="rgb(34, 139, 34)" stroke-width="2" stroke-linejoin="round" filter="url(#fuzzy)" /><polyline points="-19.32,-84 -18.55,-83.9 -17.05,-83.51 -14.67,-82.89 -11.49,-82.01 -7.63,-80.84 -3.24,-79.42 1.56,-77.76 6.67,-75.93 12.08,-73.92 17.85,-71.72 24.01,-69.28 30.52,-66.57 37.19,-63.64 43.87,-60.64" fill="none" stroke="rgb(34, 139, 34)" stroke-width="2" stroke-linejoin="round" filter="url(#fuzzy)" /><polyline points="-26.92,-80.18 -26.25,-80.32 -24.67,-80.45 -22.51,-80.42 -19.98,-80.17 -17.17,-79.69 -14.06,-79.01 -10.61,-78.17 -6.84,-77.18 -2.77,-76.07 1.57,-74.87 6.16,-73.58 11.03,-72.18 16.16,-70.64 21.52,-68.96 27.03,-67.15 32.59,-65.27 38.13,-63.41 43.57,-61.72" fill="none" stroke="rgb(34, 139, 34)" stroke-width="2" stroke-linejoin="round" filter="url(#fuzzy)" /><polyline points="-32.79,-76.4 -32.32,-76.7 -31.73,-77.09 -31.16,-77.46 -30.61,-77.78 -30.15,-77.99 -29.89,-78.01 -29.93,-77.77 -30.32,-77.24 -31.06,-76.4 -32.19,-75.25 -33.76,-73.76 -35.82,-71.88 -38.39,-69.59 -41.36,-66.93 -44.61,-64.08" fill="none" stroke="rgb(34, 139, 34)" stroke-width="2" stroke-linejoin="round" filter="url(#fuzzy)" /><polyline points="56.41,-47.83 56.57,-47.48 56.85,-46.76 57.24,-45.79 57.62,-44.84 57.88,-44.13 57.95,-43.76 57.84,-43.69 57.57,-43.87 57.15,-44.23 56.57,-44.77 55.81,-45.53 54.84,-46.58 53.63,-47.99 52.17,-49.79 50.42,-52.04 48.36,-54.76 45.91,-58.03 43.05,-61.88 39.82,-66.27 36.27,-71.18" fill="none" stroke="rgb(34, 139, 34)" stroke-width="2" stroke-linejoin="round" filter="url(#fuzzy)" /><polyline points="-22.58,-82.49 -21.71,-82.81 -20.9,-83.16 -19.97,-83.56 -19.04,-83.93 -18.13,-84.26 -17.21,-84.56 -16.28,-84.85 -15.38,-85.1 -14.56,-85.32 -13.89,-85.48 -13.4,-85.59 -13.08,-85.63 -12.93,-85.61 -12.96,-85.51 -13.21,-85.33 -13.73,-85.05 -14.55,-84.68 -15.73,-84.2 -17.28,-83.6 -19.24,-82.85 -21.62,-81.98 -24.27,-81.03" fill="none" stroke="rgb(34, 139, 34)" stroke-width="2" stroke-linejoin="round" filter="url(#fuzzy)" /><polyline points="-5.73,-87.14 -5.62,-87.08 -5.26,-87.05 -4.91,-86.92 -4.71,-86.66 -4.75,-86.26 -5.08,-85.72 -5.79,-85.03 -6.92,-84.17 -8.51,-83.14 -10.55,-81.91 -13.05,-80.44 -16.06,-78.7 -19.66,-76.67 -23.87,-74.38 -28.67,-71.93 -34.02,-69.33 -40.04,-66.41" fill="none" stroke="rgb(34, 139, 34)" stroke-width="2" stroke-linejoin="round" filter="url(#fuzzy)" /><polyline points="48.64,-60.69 49.85,-58.88 50.63,-57.65 51.28,-56.63 51.86,-55.71 52.41,-54.85 52.93,-53.99 53.45,-53.09 53.96,-52.19 54.41,-51.36 54.76,-50.7 54.95,-50.27 54.97,-50.11 54.81,-50.22 54.47,-50.63 53.93,-51.39 53.16,-52.54 52.14,-54.09 50.86,-56.04 49.31,-58.39 47.39,-61.26" fill="none" stroke="rgb(34, 139, 34)" stroke-width="2" stroke-linejoin="round" filter="url(#fuzzy)" /><polyline points="8.73,-86.75 10.38,-86.4 11.71,-85.93 13.34,-85.28 15.22,-84.52 17.19,-83.69 19.13,-82.83 20.99,-81.94 22.77,-81.05 24.46,-80.18 26.05,-79.34 27.57,-78.53 28.99,-77.79 30.27,-77.15 31.31,-76.69 32.01,-76.44 32.41,-76.34 32.57,-76.38" fill="none" stroke="rgb(34, 139, 34)" stroke-width="2" stroke-linejoin="round" filter="url(#fuzzy)" /><polyline points="37.72,-72.46 38.39,-71.73 39.24,-70.87 40.2,-69.91 41.22,-68.88 42.25,-67.82 43.2,-66.83 44.02,-65.96 44.67,-65.23 45.18,-64.64 45.55,-64.2 45.77,-63.94 45.8,-63.91 45.62,-64.13 45.22,-64.62 44.59,-65.36 43.68,-66.44" fill="none" stroke="rgb(34, 139, 34)" stroke-width="2" stroke-linejoin="round" filter="url(#fuzzy)" /><polyline points="59.87,-40.45 60.23,-39.35 60.46,-38.45 60.61,-37.6 60.59,-37.02 60.38,-36.81 59.97,-37 59.35,-37.56 58.47,-38.56 57.29,-40.07 55.78,-42.17 53.91,-44.9 51.67,-48.27 49,-52.28 45.85,-56.98 42.16,-62.44 38.03,-68.67" fill="none" stroke="rgb(34, 139, 34)" stroke-width="2" stroke-linejoin="round" filter="url(#fuzzy)" /><polyline points="35.43,-74.62 37.06,-73.05 38.08,-72.04 38.85,-71.28 39.51,-70.63 40.06,-70.06 40.49,-69.58 40.71,-69.26 40.68,-69.13 40.38,-69.21 39.82,-69.47 39.01,-69.92 37.95,-70.55 36.6,-71.41 34.9,-72.55 32.78,-74.03 30.17,-75.89 27.04,-78.14 23.63,-80.69" fill="none" stroke="rgb(34, 139, 34)" stroke-width="2" stroke-linejoin="round" filter="url(#fuzzy)" /><polyline points="53.94,-52.24 55.14,-50.14 55.82,-48.87 56.19,-48.06 56.42,-47.43 56.56,-46.9 56.59,-46.53 56.44,-46.47 56.07,-46.79 55.46,-47.52 54.58,-48.63 53.45,-50.1 52.03,-51.93 50.32,-54.15 48.29,-56.82 45.92,-60.05 43.13,-63.97 39.79,-68.7" fill="none" stroke="rgb(34, 139, 34)" stroke-width="2" stroke-linejoin="round" filter="url(#fuzzy)" /><polyline points="56.41,-47.83 56.45,-47.61 56.35,-47.29 56.1,-46.97 55.57,-46.91 54.61,-47.37 53.14,-48.48 51.12,-50.23 48.6,-52.55 45.58,-55.38 42.05,-58.7 37.94,-62.56 33.22,-67.04 27.78,-72.29 21.44,-78.46" fill="none" stroke="rgb(34, 139, 34)" stroke-width="2" stroke-linejoin="round" filter="url(#fuzzy)" /><polyline points="-38.8,-71.71 -37.37,-72.82 -36.25,-73.67 -35.15,-74.48 -34.01,-75.31 -32.84,-76.14 -31.7,-76.93 -30.62,-77.67 -29.6,-78.36 -28.63,-78.98 -27.74,-79.55 -26.98,-80.02 -26.39,-80.38 -26.02,-80.61 -25.89,-80.67 -26.05,-80.55 -26.53,-80.24 -27.32,-79.75 -28.37,-79.09 -29.63,-78.29 -31.12,-77.38" fill="none" stroke="rgb(34, 139, 34)" stroke-width="2" stroke-linejoin="round" filter="url(#fuzzy)" /><polyline points="-35.47,-74.16 -34.55,-74.99 -33.42,-75.86 -32.41,-76.6 -31.52,-77.22 -30.7,-77.78 -29.95,-78.28 -29.28,-78.7 -28.77,-79 -28.46,-79.14 -28.43,-79.09 -28.72,-78.81 -29.38,-78.27 -30.45,-77.46 -31.98,-76.37 -33.98,-74.96 -36.45,-73.2" fill="none" stroke="rgb(34, 139, 34)" stroke-width="2" stroke-linejoin="round" filter="url(#fuzzy)" /><polyline points="19.81,-83.69 21.23,-82.91 22.54,-82.24 23.42,-81.8 23.95,-81.51 24.22,-81.31 24.25,-81.19 24.02,-81.13 23.51,-81.16 22.67,-81.3 21.44,-81.58 19.73,-82.04 17.43,-82.7 14.45,-83.57 10.78,-84.62 6.6,-85.83" fill="none" stroke="rgb(34, 139, 34)" stroke-width="2" stroke-linejoin="round" filter="url(#fuzzy)" /><polyline points="16.94,-84.69 18.18,-84.19 18.75,-83.77 18.83,-83.36 18.6,-82.89 18.15,-82.31 17.41,-81.65 16.29,-80.92 14.73,-80.16 12.69,-79.34 10.19,-78.47 7.21,-77.52 3.77,-76.51 -0.16,-75.43 -4.64,-74.28 -9.76,-73.02 -15.6,-71.58 -22.21,-69.93 -29.47,-68.12 -37.18,-66.37" fill="none" stroke="rgb(34, 139, 34)" stroke-width="2" stroke-linejoin="round" filter="url(#fuzzy)" /><polyline points="15.78,-84.8 16.71,-84.66 17.18,-84.47 17.44,-84.21 17.43,-83.93 17.09,-83.64 16.44,-83.34 15.51,-83.01 14.25,-82.67 12.59,-82.33 10.46,-82.03 7.83,-81.75 4.67,-81.49 0.97,-81.23 -3.34,-80.97 -8.33,-80.67 -14.02,-80.37 -20.31,-80.15" fill="none" stroke="rgb(34, 139, 34)" stroke-width="2" stroke-linejoin="round" filter="url(#fuzzy)" /><polyline points="59.87,-40.45 60.21,-39.34 60.36,-38.42 60.38,-37.54 60.2,-36.88 59.79,-36.53 59.15,-36.47 58.28,-36.69 57.14,-37.21 55.71,-38.09 53.94,-39.35 51.81,-41.01 49.33,-43.05 46.48,-45.44 43.3,-48.2 39.77,-51.36 35.88,-54.97 31.62,-59.08 26.95,-63.72 21.79,-68.88 16.02,-74.54 9.49,-80.67" fill="none" stroke="rgb(34, 139, 34)" stroke-width="2" stroke-linejoin="round" filter="url(#fuzzy)" /><polyline points="38.85,-71.2 39.78,-70.31 40.15,-69.62 40.25,-68.94 39.93,-68.38 39.14,-67.99 37.88,-67.73 36.18,-67.56 34.06,-67.43 31.5,-67.35 28.44,-67.36 24.84,-67.48 20.67,-67.73 15.9,-68.1 10.52,-68.6 4.55,-69.24 -2.04,-70.02 -9.29,-70.95 -17.29,-71.98 -26.1,-73.04" fill="none" stroke="rgb(34, 139, 34)" stroke-width="2" stroke-linejoin="round" filter="url(#fuzzy)" /><polyline points="19.56,-83.74 20.19,-83.42 20.82,-83.1 21.78,-82.62 22.88,-82.07 23.92,-81.56 24.85,-81.1 25.66,-80.69 26.36,-80.33 26.94,-80.01 27.39,-79.74 27.67,-79.54 27.74,-79.46 27.55,-79.5 27.09,-79.69 26.37,-80 25.41,-80.43 24.21,-80.99 22.72,-81.68 20.9,-82.53 18.71,-83.55" fill="none" stroke="rgb(34, 139, 34)" stroke-width="2" stroke-linejoin="round" filter="url(#fuzzy)" /><polyline points="-2.27,-87.46 -0.83,-87.42 0.37,-87.41 1.19,-87.35 1.75,-87.24 2.22,-87.1 2.64,-86.91 2.97,-86.69 3.11,-86.43 3.01,-86.13 2.63,-85.79 1.98,-85.39 1.07,-84.92 -0.09,-84.36 -1.52,-83.71 -3.24,-82.98 -5.3,-82.17 -7.73,-81.3 -10.58,-80.37 -13.88,-79.37 -17.65,-78.27 -21.91,-77.06 -26.61,-75.79 -31.65,-74.49" fill="none" stroke="rgb(34, 139, 34)" stroke-width="2" stroke-linejoin="round" filter="url(#fuzzy)" /><polyline points="26.94,-80.08 27.44,-79.75 28.46,-79.11 29.64,-78.36 30.79,-77.61 31.84,-76.9 32.79,-76.23 33.65,-75.59 34.47,-74.97 35.22,-74.38 35.88,-73.86 36.35,-73.48 36.57,-73.28 36.5,-73.31 36.14,-73.56 35.52,-74.02 34.66,-74.68 33.48,-75.57 31.82,-76.82" fill="none" stroke="rgb(34, 139, 34)" stroke-width="2" stroke-linejoin="round" filter="url(#fuzzy)" /><polyline points="61.83,-34.12 25.92,-53.55 22.26,-58.56 16.33,-65.38 9.3,-72.79 4.76,-78.7 2.86,-82.46 2.07,-84.35 1.1,-84.91 -0.3,-84.66 -1.58,-83.98 -1.93,-83.04 -0.84,-81.78 1.58,-79.86 4.64,-76.93 7.34,-73.13 9.11,-69.38 11.08,-66.79 16.22,-65.26 21.89,-65.55 -3.85,-87.47" fill="none" stroke="rgb(34, 139, 34)" stroke-width="2" stroke-linejoin="round" filter="url(#fuzzy)" /><polyline points="56.41,-47.83 14.7,-64.09 17.9,-64.04 21.31,-60.27 15.35,-59.83 6.01,-62.6 0.81,-65.56 2.82,-66.49 10.53,-65.38 19.81,-63.8 26.51,-63.44 28.43,-64.91 26.14,-67.65 22.06,-70.67 17.9,-73.26 12.34,-75.03 2.26,-75.54 -8.38,-75.87 11.34,-86.33" fill="none" stroke="rgb(34, 139, 34)" stroke-width="2" stroke-linejoin="round" filter="url(#fuzzy)" /><polyline points="43.75,-66.18 41.54,-65.24 35.96,-62.06 19.76,-63.41 0.81,-66.73 -13.18,-70.21 -19.21,-73.26 -18.02,-75.55 -12.06,-76.77 -4,-76.82 4.05,-75.99 10.82,-74.83 15.85,-73.97 19.09,-73.81 20.53,-74.38 19.88,-75.41 16.82,-76.51 11.68,-77.39 6.28,-78.08 4.02,-78.86 7.2,-80.18 10.01,-82.65 -5.81,-86.95" fill="none" stroke="rgb(34, 139, 34)" stroke-width="2" stroke-linejoin="round" filter="url(#fuzzy)" /><polyline points="-40.8,-69.59 -3.7,-71.92 -6.44,-76.21 -12.95,-78.1 -14.7,-78.09 -12.44,-77.28 -9.18,-76.32 -6.94,-75.41 -5.78,-74.42 -4.27,-73.13 -0.89,-71.31 4.47,-68.95 10.1,-66.35 13.17,-64.1 11.43,-62.9 4.62,-63.24 -5.1,-65.12 -14.21,-68.02 -19.68,-71.07 -20.55,-73.47 -18.34,-74.77 -16.14,-75.22 -16.21,-76.19 -16.61,-80.13 -18.93,-84.04" fill="none" stroke="rgb(34, 139, 34)" stroke-width="2" stroke-linejoin="round" filter="url(#fuzzy)" /><polyline points="-48.02,-61.27 -16.7,-67.73 -19.93,-68.88 -21.11,-70.95 -15.9,-72.9 -6.26,-73.3 5.46,-71.94 17.31,-69.32 28.05,-65.83 36.98,-61.89 43.18,-58.4 44.97,-56.98 40.06,-59.13 26.6,-64.82 5.14,-71.46 -17.09,-76.1 -16.03,-84.9" fill="none" stroke="rgb(34, 139, 34)" stroke-width="2" stroke-linejoin="round" filter="url(#fuzzy)" /><polyline points="-50.79,-57.71 -20.38,-55.8 9.61,-54.7 18.48,-60.22 15.4,-66.97 10.9,-70.76 9.26,-71.51 10.33,-71.3 12.89,-71.72 16.35,-72.66 20.46,-72.99 24.45,-71.97 26.41,-70.05 23.43,-68.58 12.84,-68.47 -4.39,-69.6 -16.56,-72.48 8.73,-86.75" fill="none" stroke="rgb(34, 139, 34)" stroke-width="2" stroke-linejoin="round" filter="url(#fuzzy)" /><polyline points="-48.03,-61.61 -24.62,-70.36 -20.72,-66.64 -13.86,-62.83 -5.79,-61.88 2.02,-62.97 9.87,-64.41 17.45,-65.06 23.3,-64.57 25.56,-63.27 22.97,-61.99 15.71,-61.52 5.69,-62.32 -4.15,-64.26 -11.27,-66.82 -14.82,-69.27 -15.7,-70.9 -15.37,-71.17 -14.49,-69.94 -13.37,-67.71 -14.2,-65.82 -21.25,-66.2 -33.71,-69.46 -40.05,-70.62" fill="none" stroke="rgb(34, 139, 34)" stroke-width="2" stroke-linejoin="round" filter="url(#fuzzy)" /><polyline points="-12.1,-86.17 -12.46,-72.35 -0.07,-66.02 8,-63.45 11.76,-62.9 13.43,-63.55 15,-65.17 16.78,-67.65 17.8,-70.62 17.04,-73.43 14.3,-75.55 10.38,-76.83 6.51,-77.45 3.62,-77.71 1.6,-77.81 -0.71,-77.86 -4.76,-77.81 -11.25,-77.41 -19.5,-76.22 -26.49,-74.66 -24,-76.09 2.5,-87.25" fill="none" stroke="rgb(34, 139, 34)" stroke-width="2" stroke-linejoin="round" filter="url(#fuzzy)" /><polyline points="7.99,-86.63 36.51,-64.94 48.47,-52.21 48.28,-48.95 40.3,-51.12 28.89,-54.85 17.51,-58.64 8.32,-62.43 1.94,-66.19 -1.94,-69.69 -2.99,-72.8 0.56,-75 10.67,-74.31 26.83,-67.84 44.28,-57.01 48.64,-60.69" fill="none" stroke="rgb(34, 139, 34)" stroke-width="2" stroke-linejoin="round" filter="url(#fuzzy)" /><polyline points="32.34,-76.96 4.8,-78.45 1.1,-73.7 2.78,-69.6 0.01,-67.84 -4.73,-68.29 -6.95,-70.06 -5.6,-72.11 -2.53,-73.53 0.21,-73.79 1.72,-72.97 1.99,-71.87 1.02,-71.63 -1.39,-72.95 -4.97,-75.49 -8.08,-77.95 -7.56,-78.91 0.25,-77.55 16.74,-73.6 36.4,-67.83 43,-67.38" fill="none" stroke="rgb(34, 139, 34)" stroke-width="2" stroke-linejoin="round" filter="url(#fuzzy)" /><polyline points="48.85,-60.03 6.25,-61.38 0.78,-67.77 -2.34,-73.43 -3.02,-75.78 0.69,-74.95 7.6,-72.15 15.39,-68.74 22.14,-65.83 26.63,-64.15 28.18,-64.07 26.85,-65.46 23.53,-67.72 19.74,-69.95 16.91,-71.45 15.51,-72.04 14.66,-72.17 12.61,-72.58 7.91,-73.74 0.86,-75.46 -5.64,-77.03 -6.72,-77.71 1.78,-77.19 18.41,-76.36 23.9,-81.7" fill="none" stroke="rgb(34, 139, 34)" stroke-width="2" stroke-linejoin="round" filter="url(#fuzzy)" /><polyline points="-12.1,-86.17 -14.17,-75.08 5.09,-70.99 18.09,-70.78 22.03,-72.89 20.49,-74.98 16.43,-75.97 11.37,-76.04 6.29,-75.77 2.17,-75.47 -0.02,-75.1 0.33,-74.45 3.12,-73.4 7.47,-72.02 11.92,-70.48 14.86,-68.96 15.11,-67.48 12.41,-65.87 8.17,-63.61 5.58,-60.02 7.98,-55.09 14.59,-51.09 16.74,-53.58 5.3,-68.02 6.94,-86.79" fill="none" stroke="rgb(34, 139, 34)" stroke-width="2" stroke-linejoin="round" filter="url(#fuzzy)" /><polyline points="-26.92,-80.18 6.55,-75.16 14.8,-71.06 7.82,-70.56 -1.34,-69.63 -7.8,-67.9 -11.92,-66.51 -14.24,-66.13 -13.91,-66.85 -10.4,-68.67 -5.07,-71.5 -0.37,-74.85 2.47,-77.84 4.59,-79.76 7.8,-80.59 12.67,-80.87 20.14,-80.53 29.6,-78.58" fill="none" stroke="rgb(34, 139, 34)" stroke-width="2" stroke-linejoin="round" filter="url(#fuzzy)" /><polyline points="-38.8,-71.71 3.36,-72.4 5.39,-69.42 -5.5,-66.18 -12.55,-63.23 -13.66,-61.52 -12.81,-61.74 -12.98,-63.64 -13.9,-66.28 -13.33,-68.79 -9.34,-70.76 -2.01,-72.26 6.4,-73.46 12.81,-74.45 15.07,-75.15 13.02,-75.44 8.27,-75.35 3.94,-75.04 6.04,-73.93 23.24,-69.75 50.57,-57.72" fill="none" stroke="rgb(34, 139, 34)" stroke-width="2" stroke-linejoin="round" filter="url(#fuzzy)" /><polyline points="46.61,-63.02 40.44,-65.07 21.64,-72.21 3.54,-76.63 -6.46,-78.22 -7.61,-78.27 -3.48,-77.69 1.51,-76.89 4.95,-76.07 7.11,-75.23 9.89,-74.22 14.99,-72.71 22.58,-70.34 31.03,-67.07 37.82,-63.42 40.53,-59.94 35.91,-56.73 14.08,-54.52 -52.7,-54.44" fill="none" stroke="rgb(34, 139, 34)" stroke-width="2" stroke-linejoin="round" filter="url(#fuzzy)" /><polyline points="38.36,-71.74 43.86,-57.49 33.92,-53.43 22.85,-56 16.28,-61.62 14.52,-67.55 16.29,-72.08 19.53,-74.77 22.13,-76 22.71,-76.08 20.95,-74.88 17.36,-72.17 13.06,-68.27 9.33,-64.46 7.24,-62.49 7.34,-63.27 10.14,-65.58 17.13,-66.53 29.29,-65.99 30.57,-77.8" fill="none" stroke="rgb(34, 139, 34)" stroke-width="2" stroke-linejoin="round" filter="url(#fuzzy)" /><polyline points="-32.79,-76.4 -15.69,-60.27 13.14,-53.4 26.45,-54.91 29.49,-58.89 29.77,-61.62 29.48,-62.82 27.84,-63.65 24.39,-64.87 20,-66.5 15.81,-68.19 12.1,-69.75 8.26,-71.19 3.76,-72.48 -0.98,-73.45 -4.65,-73.99 -6.01,-74.35 -5.07,-75.17 -3.21,-76.82 -1.8,-78.4 0.55,-76.79 12.77,-65.85 61.83,-34.12" fill="none" stroke="rgb(34, 139, 34)" stroke-width="2" stroke-linejoin="round" filter="url(#fuzzy)" /><polyline points="-2.27,-87.46 -4.53,-80.35 0.8,-78.28 2.09,-78.46 3.98,-78.26 6.92,-77.42 8.51,-76.48 7.95,-75.5 6.65,-74.07 5.71,-72.36 3.66,-71.35 -2.47,-71.81 -12.8,-72.87 -20.02,-72.59 -8.88,-70.51 42.38,-67.91" fill="none" stroke="rgb(34, 139, 34)" stroke-width="2" stroke-linejoin="round" filter="url(#fuzzy)" /><polyline points="3.56,-87.22 2.95,-80.66 -8.21,-77.69 -8.2,-74.75 2.88,-69.49 18.11,-62.78 30.52,-57 36.32,-53.95 35.05,-53.84 27.9,-55.64 16.25,-58.05 1.71,-60.17 -12.98,-61.66 -23.64,-62.58 -26.54,-63.07 -22.19,-63.06 -18.76,-62.22 -29.31,-61.35 -44.71,-65.47" fill="none" stroke="rgb(34, 139, 34)" stroke-width="2" stroke-linejoin="round" filter="url(#fuzzy)" /><polyline points="60.45,-38.63 9.59,-66.75 -1.98,-76.51 -0.87,-77.44 2.57,-75.6 5.05,-73.84 5,-72.84 1.76,-72.39 -3.32,-72.14 -7.15,-71.81 -6.9,-71.28 -1.98,-70.39 5.68,-68.93 13.18,-66.77 18.2,-64.22 20.04,-62.12 21.78,-60.97 33.73,-57.87 58.2,-43.66" fill="none" stroke="rgb(34, 139, 34)" stroke-width="2" stroke-linejoin="round" filter="url(#fuzzy)" /><polyline points="6.16,-87.23 -6.78,-82.44 -1.68,-78.29 1.62,-74.27 1.59,-71.16 1.93,-69.01 4.82,-67.76 9.75,-67.31 14.95,-67.38 19.02,-67.51 21.26,-67.41 20.99,-67.2 17.49,-67.21 11.16,-67.62 4.77,-68.37 2.38,-69.73 5.25,-72.68 8.06,-78.04 2.26,-83.79 -16.03,-84.9" fill="none" stroke="rgb(34, 139, 34)" stroke-width="2" stroke-linejoin="round" filter="url(#fuzzy)" /><polyline points="44.5,-65.41 18.68,-78.75 8.78,-81.26 8.81,-78.88 10.81,-75.81 10.05,-74 6.59,-73.54 2.85,-73.59 1.18,-73.44 2.4,-73.1 4.88,-73.18 4.87,-73.99 -1.04,-74.63 -13.37,-73.18 -29.79,-69.54 -36.98,-73.12" fill="none" stroke="rgb(34, 139, 34)" stroke-width="2" stroke-linejoin="round" filter="url(#fuzzy)" /><polyline points="29.6,-78.58 39.34,-63.72 27.94,-62.98 12.08,-68.63 1.95,-73.64 -1.29,-75.53 0.06,-74.84 3.38,-73.13 6.63,-71.64 8.79,-70.81 9.95,-70.48 10.81,-70.43 11.89,-70.68 12.82,-71.44 12.58,-72.75 10.51,-74.12 7.09,-74.36 3.52,-72.07 -0.24,-66.73 -6.98,-60.26 -19.18,-57.7 -28.29,-65.11 -5.81,-86.95" fill="none" stroke="rgb(34, 139, 34)" stroke-width="2" stroke-linejoin="round" filter="url(#fuzzy)" /><polyline points="37.72,-72.46 -2.96,-77.4 -21.12,-75.74 -25.28,-73.25 -20.36,-72.27 -11.5,-72.08 -2.07,-71.25 6.84,-69.13 15.16,-65.81 22.76,-61.67 28.96,-57.36 32.11,-54.2 29.48,-54.07 18.93,-58.34 2.3,-66.32 -12.69,-74.88 -19.12,-80.05 -31.17,-77.36" fill="none" stroke="rgb(34, 139, 34)" stroke-width="2" stroke-linejoin="round" filter="url(#fuzzy)" /><polyline points="-40.85,-69.56 -17.36,-67.36 -2.5,-61.71 1.21,-59.22 0.65,-58.73 -1.75,-59.61 -5.44,-61.73 -8.95,-64.15 -9.83,-65.15 -6.2,-63.36 1.52,-58.91 10.52,-53.59 17.47,-49.87 20.96,-49.44 21.38,-52.57 18.07,-58.49 13.29,-64.93 44.71,-65.3" fill="none" stroke="rgb(34, 139, 34)" stroke-width="2" stroke-linejoin="round" filter="url(#fuzzy)" /><polyline points="16.94,-84.69 -3.97,-67.97 8.87,-67.62 17.3,-69.52 16.57,-69.21 10.96,-67.04 6.01,-64.72 4.56,-63.39 6.04,-62.93 8.77,-62.19 12.23,-60.03 16.93,-56.51 22.31,-53.38 25.45,-53.26 23.22,-57.73 16.25,-65.98 9.07,-75.14 1.47,-82.24 -17.93,-84.45" fill="none" stroke="rgb(34, 139, 34)" stroke-width="2" stroke-linejoin="round" filter="url(#fuzzy)" /><polyline points="52.97,-53.76 28.3,-72.3 21,-75.87 18.14,-76.91 15.22,-79 12.99,-81.05 11.97,-81.64 11.05,-80.44 8.85,-78.04 5.84,-75.31 4.84,-72.88 8.92,-70.99 17.58,-69.81 24.92,-69.99 23.12,-73.04 11.92,-79.87 13.89,-85.62" fill="none" stroke="rgb(34, 139, 34)" stroke-width="2" stroke-linejoin="round" filter="url(#fuzzy)" /><polyline points="-23.72,-81.89 -22.09,-78.84 -10.66,-75.42 -0.48,-72.83 6.85,-72.09 11.43,-73.11 12.52,-75.45 10.06,-78.43 5.42,-81.25 0.73,-83.32 -2.2,-84.41 -2.49,-84.63 -0.32,-84.26 3.05,-83.63 5.08,-83.15 2.77,-83.16 -4.45,-83.62 -10.01,-84.33 2.37,-87.5" fill="none" stroke="rgb(34, 139, 34)" stroke-width="2" stroke-linejoin="round" filter="url(#fuzzy)" /><polyline points="-31.17,-77.36 -4.74,-73.54 17.15,-66.11 20.2,-65.64 12.15,-70.12 3.17,-75.17 -1.24,-78.12 -0.38,-78.13 3.27,-75.55 6.24,-71.63 6.48,-68.26 5.07,-67.14 5.06,-68.79 6.72,-72.36 3.71,-76.61 -11.17,-80.15 -26.92,-80.18" fill="none" stroke="rgb(34, 139, 34)" stroke-width="2" stroke-linejoin="round" filter="url(#fuzzy)" /><polyline points="-3.85,-87.47 27.42,-68.66 29.05,-66 25.53,-67.15 24.02,-68.04 24.82,-67.77 27.54,-66.62 31.03,-65.73 32.97,-66.28 31.19,-68.45 25.51,-70.94 18.19,-71.67 11.93,-69.64 5.1,-66.78 -13.07,-66.31 -50.79,-57.71" fill="none" stroke="rgb(34, 139, 34)" stroke-width="2" stroke-linejoin="round" filter="url(#fuzzy)" />
    </g>
    
        <g id="lineNose">
        <path d="M -8.52,10.93 Q 10.77, 22.035 1.125, -5.45" fill="none" stroke="black" stroke-width="3" stroke-linejoin="round" filter="url(#fuzzy)"></path>
        </g>
      
    <g id="mouth">
      <polyline points="-39.25,65.14 -38.82,64.81 -38.37,64.46 -37.88,64.11 -37.36,63.74 -36.81,63.36 -36.24,62.97 -35.64,62.57 -35.01,62.17 -34.36,61.75 -33.68,61.33 -32.98,60.9 -32.26,60.47 -31.51,60.03 -30.75,59.58 -29.96,59.13 -29.15,58.67 -28.32,58.21 -27.47,57.75 -26.6,57.29 -25.72,56.82 -24.82,56.35 -23.9,55.88 -22.97,55.41 -22.02,54.94 -21.06,54.47 -20.08,54 -19.09,53.53 -18.09,53.07 -17.08,52.61 -16.06,52.15 -15.03,51.69 -13.99,51.24 -12.94,50.8 -11.88,50.36 -10.81,49.92 -9.74,49.49 -8.66,49.07 -7.58,48.66 -6.5,48.26 -5.41,47.86 -4.31,47.47 -3.22,47.09 -2.12,46.73 -1.02,46.37 0.08,46.03 1.17,45.69 2.27,45.37 3.36,45.06 4.45,44.77 5.54,44.49 6.63,44.23 7.71,43.97 8.78,43.74 9.85,43.52 10.91,43.32 11.96,43.14 13.01,42.97 14.04,42.82 15.07,42.69 16.08,42.58 17.09,42.49 18.08,42.42 19.06,42.38 20.03,42.35 20.98,42.34 21.92,42.36 22.85,42.4 23.75,42.47 24.65,42.56 25.52,42.67 26.37,42.81 27.21,42.98 28.03,43.17 28.83,43.39 29.6,43.64 30.36,43.91 31.09,44.22 31.8,44.55 32.48,44.91 33.15,45.31 33.78,45.73 34.39,46.18 34.98,46.67 35.53,47.19 36.06,47.74 36.56,48.33 37.03,48.95 37.47,49.6 37.89,50.29 38.26,51.02 38.61,51.78 38.93,52.57 39.21,53.41 39.45,54.28 39.66,55.19 39.84,56.14 39.98,57.13 40.08,58.16 40.15,59.23 40.17,60.34 40.15,59.23 40.08,58.16 39.98,57.13 39.84,56.14 39.66,55.19 39.45,54.28 39.21,53.41 38.93,52.57 38.61,51.78 38.26,51.02 37.89,50.29 37.47,49.6 37.03,48.95 36.56,48.33 36.06,47.74 35.53,47.19 34.98,46.67 34.39,46.18 33.78,45.73 33.15,45.31 32.48,44.91 31.8,44.55 31.09,44.22 30.36,43.91 29.6,43.64 28.83,43.39 28.03,43.17 27.21,42.98 26.37,42.81 25.52,42.67 24.65,42.56 23.75,42.47 22.85,42.4 21.92,42.36 20.98,42.34 20.03,42.35 19.06,42.38 18.08,42.42 17.09,42.49 16.08,42.58 15.07,42.69 14.04,42.82 13.01,42.97 11.96,43.14 10.91,43.32 9.85,43.52 8.78,43.74 7.71,43.97 6.63,44.23 5.54,44.49 4.45,44.77 3.36,45.06 2.27,45.37 1.17,45.69 0.08,46.03 -1.02,46.37 -2.12,46.73 -3.22,47.09 -4.31,47.47 -5.41,47.86 -6.5,48.26 -7.58,48.66 -8.66,49.07 -9.74,49.49 -10.81,49.92 -11.88,50.36 -12.94,50.8 -13.99,51.24 -15.03,51.69 -16.06,52.15 -17.08,52.61 -18.09,53.07 -19.09,53.53 -20.08,54 -21.06,54.47 -22.02,54.94 -22.97,55.41 -23.9,55.88 -24.82,56.35 -25.72,56.82 -26.6,57.29 -27.47,57.75 -28.32,58.21 -29.15,58.67 -29.96,59.13 -30.75,59.58 -31.51,60.03 -32.26,60.47 -32.98,60.9 -33.68,61.33 -34.36,61.75 -35.01,62.17 -35.64,62.57 -36.24,62.97 -36.81,63.36 -37.36,63.74 -37.88,64.11 -38.37,64.46 -38.82,64.81" fill="rgb(215,127,140)" stroke="black" stroke-width="3" stroke-linejoin="round" filter="url(#fuzzy)" />
    </g>
  </svg>