<svg xmlns="http://www.w3.org/2000/svg" width="500" height="500" viewBox="-100 -100 200 200"><defs><clipPath id="c"><path d="m23.15 6.27-.1-.48-.14-.51-.18-.54-.22-.55-.26-.57-.28-.58-.33-.59-.35-.59-.38-.6-.4-.6-.43-.59-.45-.6-.48-.58-.49-.58-.51-.57-.65-.85-.66-.83-.68-.8-.69-.76-.7-.73-.71-.69-.72-.65-.74-.6-.73-.57-.74-.51-.75-.47-.75-.43-.76-.37-.75-.32-.76-.28-.75-.22-.76-.18-.75-.13-.76-.08-.74-.03-.75.02-.74.05-.74.11-.73.15-.72.18-.72.23-.71.27-.7.3-.7.34-.68.37-.68.4-.67.42-.66.46-.64.48-.64.5-.63.52-.61.54-.61.56-.59.57-.58.58-.56.59-.56.59-.54.61-.53.6-.51.61-.51.61-.48.6-.48.6-.46.6-.44.59-.44.58-.42.58-.41.58-.4.57-.39.57-.37.56-.36.55-.35.54-.34.54-.33.52-.31.52-.3.51-.29.49-.28.49-1.19 7.73.36-.11.38-.12.38-.11.4-.13.41-.12.41-.13.42-.14.44-.14.44-.14.45-.14.46-.14.47-.15.48-.15.49-.15.49-.16.51-.15.52-.16.53-.16.54-.17.55-.16.56-.16.57-.17.58-.16.59-.16.6-.16.61-.16.61-.15.63-.15.63-.15.64-.14.65-.14.65-.13.67-.12.67-.12.67-.11.69-.11.69-.09.69-.09.7-.07.71-.07.7-.06.72-.05.72-.04.72-.03.72-.02.73-.01h.73l.73.01.74.01.73.03.74.03.73.04.73.05.74.05.73.06.72.07.72.06.72.07.71.07.7.07.69.06.68.07.67.05.66.05.51-.06.5-.07.47-.08.46-.11.44-.12.42-.15.39-.17.36-.2.34-.22.3-.26.28-.29.24-.32.2-.37.16-.4.12-.44"/></clipPath><clipPath id="b"><path d="m-21.85 6.26.38-.27.41-.28.44-.3.46-.31.49-.33.51-.34.53-.35.54-.36.56-.36.58-.37.58-.37.59-.37.6-.37.6-.37.61-.37.84-.51.84-.51.82-.5.81-.48.8-.47.78-.46.77-.44.76-.42.74-.4.73-.37.7-.36.7-.33.68-.3.66-.28.65-.25.63-.23.62-.19.61-.17.59-.14.58-.11.57-.08.56-.05.55-.02h.54l.52.03.52.06.51.09.5.11.5.13.48.16.48.18.48.21.46.22.46.25.46.26.45.29.44.29.43.31.43.33.42.34.42.34.4.36.4.36.4.37.38.38.37.38.37.38.35.38.35.38.33.38.33.37.31.38.31.38.29.37.29.38.28.37.27.37.26.37.24.36.24.36.22.36.21.34.2.35.19.33 1.47 5.85-.46-.1-.47-.1-.48-.11-.49-.11-.5-.11-.51-.12-.51-.12-.52-.13-.53-.13-.53-.14-.54-.14-.54-.14-.55-.15-.55-.15-.56-.16-.57-.16-.57-.17-.59-.16-.58-.18-.59-.17-.6-.18-.6-.18-.6-.19-.61-.18-.6-.19-.61-.19-.61-.19-.6-.18-.61-.19-.6-.19-.61-.18-.6-.18-.6-.18-.6-.17-.6-.17-.59-.16-.6-.15-.59-.14-.59-.14-.59-.13-.59-.12-.59-.1-.59-.1-.59-.08-.59-.07-.59-.06-.59-.04-.59-.02-.59-.01h-.6l-.6.02-.6.04-.61.05-.6.07-.62.09-.61.1-.62.12-.62.14-.62.15-.63.17-.63.18-.63.19-.63.21-.63.21-.45.1-.44.1-.44.1-.41.11-.41.1-.39.09-.37.1-.35.09-.33.08-.31.08-.28.06-.26.06-.22.05-.2.03-.15.02"/></clipPath><linearGradient id="d" x1="0%" x2="100%" y1="0%" y2="0%"><stop offset="0%" style="stop-color:#3658b9;stop-opacity:1"/><stop offset="10%" style="stop-color:#463d83;stop-opacity:1"/><stop offset="100%" style="stop-color:#1968ee;stop-opacity:1"/></linearGradient><filter id="a"><feTurbulence baseFrequency=".05" numOctaves="3" result="noise" type="noise"/><feDisplacementMap in="SourceGraphic" in2="noise" scale="2"/></filter></defs><rect width="100%" height="100%" x="-100" y="-100" fill="#F2A6C0"/><path fill="#20DF9D" stroke="#000" stroke-linejoin="round" stroke-width="1.667" d="m66.03.33.15 1.98-.11 2.08-.02.92-.11-.87.05 2.85-.21 1.88.15-.74-.18 2.11-.41 3.05-.09.13-.05 2.46-.21.95.01.8-.04.13-.43 1.53-.49 2.91-.41 2.9-.38 1.35.45-2.05-.65 3.43.03-.32-.99 3.22-.94 3.61.6-2.54-.32 1.26-.95 3.07-.46 1.14-.14.7-.52 1.46-.32 1.2-.73 2.38-.23-.13-.79 1.73-.89 2.55-.59 1.02-.67 1.6-.18.38-.66 1.31-.42 1.04-.49.05.2.08-1.01 1.86-1.32 2.24-.43.9-.48.71-1.28 2.3.2-.32-1.34 1.63.2.27-1.59 1.56-1.33 2-.07-.09.04.27-1.21 1.43-1.18.94-1.69 2.24 1.07-1.36-1.54 2.16-1.53 1.19.18-.51-1.21 1.72.05-.09-.86.5-1.44 1.52-.64.57-1.11 1 .06-.23-2.51 2.16.59-.24-2.11 1.32-.78.85-.89.09-.87.62-.43.17-2.21 1.77-.47.05-.54.23-1.59.86.33-.3-2.81 1.52-.07-.03-2.9 1 .98-.25-2.63.9-.69.34-1.28.15-.94.23.54-.1-1.31.44-1.07.41-2.45.16.6-.16-.72.51-2.01.14-.8-.11-1.58.11.51-.05-2.23.4-1.33.07-.99-.32-.27.26h-1.39l.45-.14-3.75-.35-.32-.08-1.28.07.86-.04-2.12-.28-1.86-.47-.17.02-.53-.01-1.45-.44-.77-.14-1.79-.51-.78-.53-.18.37-1.21-.76.56.27-3.62-1.21-1.33-.6h.56l-2.19-1.01-1.45-.53.21-.1-.63-.45-1.76-.73.8.35-2.85-1.74-.14-.28-2.47-1.73.69.65v.07l-1.58-1.27-1.83-1.65-.62-.49-1.9-1.24.74.81-.2-.71-1.97-1.71-.78-.61-1.08-1.18-.51-.59-1.33-1.27.27.29-1.52-1.68-.58-.73.06-.1-1.63-2 .45.39-2.52-3.04-.45-.29-.24-.97-1.39-2.07-.08.04-.75-1.45-.73-.57-1.26-2.49-.21-.6.44 1.08-1.68-2.92-.05-.35-.45-.34-1.26-2.67-.48-1.18-.36-1.12-.55-.66-.81-2.55-1.21-2.11.04-.46.07-.58-.48-.55-.77-2.5-.24-.74-.95-2.81.74 1.99-.89-2.22-.55-2.26.21.79-1.56-5.79.51 2.44-.7-3.66-.19-.77-.19-.12-.5-3.46-.19-.34-.06-1.47-.08-.46-.78-4.09.01-.29-.01-1.58-.27-3.27-.14 1.77-.19-3.24.24.48-.15-.26-.17-2.6-.1-3.72.06.85.03-1.95-.15-1.29-.11-1.41.08.97.1-3.73.14-.64v-3.59L-66-6.29l.24-3.25.16-1.88.32-2.83.24-1.27-.08-1.35.12.22.16-1.87.45-2.6.17-.03.17-2.34-.18 1.54.59-3.23-.13.98.95-4.43.47-1.76.3-.87.21-.37.33-1.51v.41l1.43-5.15-.82 2.77 1.16-3.71-.12.15.97-2.31 1.12-2.86-.5.37.88-1.12.91-2.13-.23.12.76-1.74.96-1.71.41-.68 1-2.57.52-.96-.36.88.33-.49 1.83-2.84.01-.93 1.44-2.05 1.49-2.22-.34.71 1.22-1.96-.07.28.76-.86.73-1.09.6-.8.78-1.04 1.81-2.45-.04-.02-.08.29 1.05-1.4 1.96-1.89.64-.92 1.27-1.05.1-.41-.18.47 2.4-2.01-.46.22 1.03-.8 1.48-1.25 1.56-1.01.81-1.01.54.12.8-.91.46-.63 2.54-1.2-.27.2.94-.67 1.99-.95h-.72l1.35-.43-.15.14 2.42-1.39.97-.53 1.41-.4-.68.25 1.93-.8.4.02 2.78-1.4-.44.34 1.69-.3.2-.37 3.28-.6.7-.1-.4-.2 1.59-.05-.29-.07 2.05-.28.48-.14 3.03-.33-.3.29.92-.24.22.2 1.96-.15 1.46.01h.7l-.35-.01 2.67.11-.1.17-.21.07 4.24.49.15.01-.81-.02 3.27.57 1.33.03 1.29.44-.37-.2.29.18.99.51 2.08.38-.22.21.82.15 2.92 1.13.26.04.82.48 1.19.58.83.25 1.15.96.21-.09 1.05.5 1.94 1.22-.39-.26 1.57 1 .02-.03 1.79 1.31 1.07 1.12.85.27 1.15.97-.43-.37 3.1 2.74-.78-.51 1.56 1.33-.35-.3 1.57 1.76 1.83 1.35 1.09 1.23-.49-.7.84 1.16 1.47 1.91.12-.15 1.63 2.11.75 1.11.51.52v.19l1.49 1.84 1.39 1.63.67 1.34-1.36-2.13 1.6 2.67.6.82 1.01 1.55 1.07 2.26.23.96.74.75.26.34.85 1.87.69 1.44.88 1.94.17.48-.1-.85.73 1.39.51 1.25.7 3.01.81 1.19.33 1.1.68 2.42.42.7.15.28.49 2.14.42.67.28 2 .02-.29.36.96.98 4.39-.04.02.42 2.13.2.77-.11-.43 1.08 5.66-.39-1.81.46 2.18-.04.78.03.14.41 2.36.3 3.78.14-1.08.07 1.24.2 2.19.03 2.24.23 2.87-.32-2.09.07 1.38.11 4.65-.08-.21.15 1.98" filter="url(#a)"/><path fill="#fff" d="m-21.85 6.26.38-.27.41-.28.44-.3.46-.31.49-.33.51-.34.53-.35.54-.36.56-.36.58-.37.58-.37.59-.37.6-.37.6-.37.61-.37.84-.51.84-.51.82-.5.81-.48.8-.47.78-.46.77-.44.76-.42.74-.4.73-.37.7-.36.7-.33.68-.3.66-.28.65-.25.63-.23.62-.19.61-.17.59-.14.58-.11.57-.08.56-.05.55-.02h.54l.52.03.52.06.51.09.5.11.5.13.48.16.48.18.48.21.46.22.46.25.46.26.45.29.44.29.43.31.43.33.42.34.42.34.4.36.4.36.4.37.38.38.37.38.37.38.35.38.35.38.33.38.33.37.31.38.31.38.29.37.29.38.28.37.27.37.26.37.24.36.24.36.22.36.21.34.2.35.19.33 1.47 5.85-.46-.1-.47-.1-.48-.11-.49-.11-.5-.11-.51-.12-.51-.12-.52-.13-.53-.13-.53-.14-.54-.14-.54-.14-.55-.15-.55-.15-.56-.16-.57-.16-.57-.17-.59-.16-.58-.18-.59-.17-.6-.18-.6-.18-.6-.19-.61-.18-.6-.19-.61-.19-.61-.19-.6-.18-.61-.19-.6-.19-.61-.18-.6-.18-.6-.18-.6-.17-.6-.17-.59-.16-.6-.15-.59-.14-.59-.14-.59-.13-.59-.12-.59-.1-.59-.1-.59-.08-.59-.07-.59-.06-.59-.04-.59-.02-.59-.01h-.6l-.6.02-.6.04-.61.05-.6.07-.62.09-.61.1-.62.12-.62.14-.62.15-.63.17-.63.18-.63.19-.63.21-.63.21-.45.1-.44.1-.44.1-.41.11-.41.1-.39.09-.37.1-.35.09-.33.08-.31.08-.28.06-.26.06-.22.05-.2.03-.15.02" filter="url(#a)" transform="translate(33.37 -22.82)"/><path fill="#fff" d="m23.15 6.27-.1-.48-.14-.51-.18-.54-.22-.55-.26-.57-.28-.58-.33-.59-.35-.59-.38-.6-.4-.6-.43-.59-.45-.6-.48-.58-.49-.58-.51-.57-.65-.85-.66-.83-.68-.8-.69-.76-.7-.73-.71-.69-.72-.65-.74-.6-.73-.57-.74-.51-.75-.47-.75-.43-.76-.37-.75-.32-.76-.28-.75-.22-.76-.18-.75-.13-.76-.08-.74-.03-.75.02-.74.05-.74.11-.73.15-.72.18-.72.23-.71.27-.7.3-.7.34-.68.37-.68.4-.67.42-.66.46-.64.48-.64.5-.63.52-.61.54-.61.56-.59.57-.58.58-.56.59-.56.59-.54.61-.53.6-.51.61-.51.61-.48.6-.48.6-.46.6-.44.59-.44.58-.42.58-.41.58-.4.57-.39.57-.37.56-.36.55-.35.54-.34.54-.33.52-.31.52-.3.51-.29.49-.28.49-1.19 7.73.36-.11.38-.12.38-.11.4-.13.41-.12.41-.13.42-.14.44-.14.44-.14.45-.14.46-.14.47-.15.48-.15.49-.15.49-.16.51-.15.52-.16.53-.16.54-.17.55-.16.56-.16.57-.17.58-.16.59-.16.6-.16.61-.16.61-.15.63-.15.63-.15.64-.14.65-.14.65-.13.67-.12.67-.12.67-.11.69-.11.69-.09.69-.09.7-.07.71-.07.7-.06.72-.05.72-.04.72-.03.72-.02.73-.01h.73l.73.01.74.01.73.03.74.03.73.04.73.05.74.05.73.06.72.07.72.06.72.07.71.07.7.07.69.06.68.07.67.05.66.05.51-.06.5-.07.47-.08.46-.11.44-.12.42-.15.39-.17.36-.2.34-.22.3-.26.28-.29.24-.32.2-.37.16-.4.12-.44" filter="url(#a)" transform="translate(-43.17 -27.49)"/><g fill="none" stroke="#000" transform="translate(33.37 -22.82)"><path stroke-linejoin="round" stroke-width="1.667" d="m-23.05 7.35-.15.05-.08.01-.01-.03.05-.06.11-.11.17-.13.21-.17.26-.19.3-.22.34-.24.38-.27.41-.28.44-.3.46-.31.49-.33.51-.34.53-.35.54-.36.56-.36.58-.37.58-.37.59-.37.6-.37.6-.37.61-.37.84-.51.84-.51.82-.5.81-.48.8-.47.78-.46.77-.44.76-.42.74-.4.73-.37.7-.36.7-.33.68-.3.66-.28.65-.25.63-.23.62-.19.61-.17.59-.14.58-.11.57-.08.56-.05.55-.02h.54l.52.03.52.06.51.09.5.11.5.13.48.16.48.18.48.21.46.22.46.25.46.26.45.29.44.29.43.31.43.33.42.34.42.34.4.36.4.36.4.37.38.38.37.38.37.38.35.38.35.38.33.38.33.37.31.38.31.38.29.37.29.38.28.37.27.37.26.37.24.36.24.36.22.36.21.34.2.35.19.33.17.34.17.32.15.32.13.31.13.3.11.29.1.29.08.28.08.27.06.27" filter="url(#a)"/><path stroke-linejoin="round" stroke-width="2.222" d="m-22.28 6.94-.36.25-.29.22-.22.18-.17.15-.11.12-.05.09-.01.06.04.04.08.02.13.01.15-.02.2-.03.22-.05.26-.06.28-.06.31-.08.33-.08.35-.09.37-.1.39-.09.41-.1.41-.11.44-.1.44-.1.45-.1.63-.21.63-.21.63-.19.63-.18.63-.17.62-.15.62-.14.62-.12.61-.1.62-.09.6-.07.61-.05.6-.04.6-.02h.6l.59.01.59.02.59.04.59.06.59.07.59.08.59.1.59.1.59.12.59.13.59.14.59.14.6.15.59.16.6.17.6.17.6.18.6.18.61.18.6.19.61.19.6.18.61.19.61.19.6.19.61.18.6.19.6.18.6.18.59.17.58.18.59.16.57.17.57.16.56.16.55.15.55.15.54.14.54.14.53.14.53.13.52.13.51.12.51.12.5.11.49.11.48.11.47.1.46.1.46.09.44.09.44.08.42.08.42.07.4.07.39.07.39.06.37.06.37.05" filter="url(#a)"/><circle cx="-4.443" cy="2.954" r="3.754" clip-path="url(#b)" filter="url(#a)"/><circle cx="-3.493" cy="4.534" r="3.234" clip-path="url(#b)" filter="url(#a)"/><circle cx="-3.618" cy="4.909" r="4.082" clip-path="url(#b)" filter="url(#a)"/><circle cx="-3.313" cy="7.074" r="4.154" clip-path="url(#b)" filter="url(#a)"/><circle cx="-1.893" cy="7.359" r="4.674" clip-path="url(#b)" filter="url(#a)"/><circle cx="-.963" cy="3.209" r="4.824" clip-path="url(#b)" filter="url(#a)"/><circle cx="-3.033" cy="7.219" r="4.74" clip-path="url(#b)" filter="url(#a)"/><circle cx="-1.578" cy="2.684" r="3.492" clip-path="url(#b)" filter="url(#a)"/><circle cx="-5.118" cy="4.454" r="3.098" clip-path="url(#b)" filter="url(#a)"/><circle cx="-.708" cy="6.474" r="4.458" clip-path="url(#b)" filter="url(#a)"/></g><g fill="none" stroke="#000" transform="translate(-43.17 -27.49)"><path stroke-linejoin="round" stroke-width="2.222" d="m21.17 8.76.48.02.41-.06.35-.13.28-.18.21-.25.16-.29.1-.34.04-.38v-.42l-.05-.46-.1-.48-.14-.51-.18-.54-.22-.55-.26-.57-.28-.58-.33-.59-.35-.59-.38-.6-.4-.6-.43-.59-.45-.6-.48-.58-.49-.58-.51-.57-.65-.85-.66-.83-.68-.8-.69-.76-.7-.73-.71-.69-.72-.65-.74-.6-.73-.57-.74-.51-.75-.47-.75-.43-.76-.37-.75-.32-.76-.28-.75-.22-.76-.18-.75-.13-.76-.08-.74-.03-.75.02-.74.05-.74.11-.73.15-.72.18-.72.23-.71.27-.7.3-.7.34-.68.37-.68.4-.67.42-.66.46-.64.48-.64.5-.63.52-.61.54-.61.56-.59.57-.58.58-.56.59-.56.59-.54.61-.53.6-.51.61-.51.61-.48.6-.48.6-.46.6-.44.59-.44.58-.42.58-.41.58-.4.57-.39.57-.37.56-.36.55-.35.54-.34.54-.33.52-.31.52-.3.51-.29.49-.28.49-.26.47-.25.46-.24.45-.23.44-.21.43-.2.42-.2.4-.18.39-.17.38-.15.37" filter="url(#a)"/><path stroke-linejoin="round" stroke-width="2.222" d="m21.5 1.04.45 1.05.37.98.31.9.25.83.18.77.13.71.07.65.01.59-.03.54-.08.5-.12.44-.16.4-.2.37-.24.32-.28.29-.3.26-.34.22-.36.2-.39.17-.42.15-.44.12-.46.11-.47.08-.5.07-.51.06-.66-.05-.67-.05-.68-.07-.69-.06-.7-.07-.71-.07-.72-.07-.72-.06-.72-.07-.73-.06-.74-.05-.73-.05-.73-.04-.74-.03-.73-.03-.74-.01-.73-.01H5.1l-.73.01-.72.02-.72.03-.72.04-.72.05-.7.06-.71.07-.7.07-.69.09-.69.09-.69.11-.67.11-.67.12-.67.12-.65.13-.65.14-.64.14-.63.15-.63.15-.61.15-.61.16-.6.16-.59.16-.58.16-.57.17-.56.16-.55.16-.54.17-.53.16-.52.16-.51.15-.49.16-.49.15-.48.15-.47.15-.46.14-.45.14-.44.14-.44.14-.42.14-.41.13-.41.12-.4.13-.38.11-.38.12-.36.11-.36.11-.35.1-.34.1-.32.1-.32.09-.31.08-.3.08-.29.08-.28.08-.27.07" filter="url(#a)"/><circle cx="-13.89" cy="7.427" r="4.48" clip-path="url(#c)" filter="url(#a)"/><circle cx="-12.85" cy="9.157" r="4.68" clip-path="url(#c)" filter="url(#a)"/><circle cx="-14.44" cy="8.362" r="3.584" clip-path="url(#c)" filter="url(#a)"/><circle cx="-15.13" cy="8.167" r="4.932" clip-path="url(#c)" filter="url(#a)"/><circle cx="-14.295" cy="7.927" r="3.742" clip-path="url(#c)" filter="url(#a)"/><circle cx="-12.795" cy="9.067" r="4.324" clip-path="url(#c)" filter="url(#a)"/><circle cx="-13.915" cy="9.957" r="3.74" clip-path="url(#c)" filter="url(#a)"/><circle cx="-15.335" cy="11.992" r="3.626" clip-path="url(#c)" filter="url(#a)"/><circle cx="-16.15" cy="9.832" r="3.64" clip-path="url(#c)" filter="url(#a)"/><circle cx="-12.91" cy="7.907" r="4.484" clip-path="url(#c)" filter="url(#a)"/></g><g fill="none" stroke="url(#d)" stroke-linejoin="round" stroke-width="2"><path d="m56.48-46.8.16-.06.43.87.51 1.31.49 1.38.42 1.22.3.92.15.57-.01.2-.19-.19-.37-.58-.58-1.03-.79-1.49-1.02-1.96-1.19-2.37-1.33-2.72-1.46-3.1-1.78-3.81m-71.61-27.99 1.01-.43 1.03-.31 1.15-.32 1.35-.37 1.51-.42 1.59-.41 1.6-.4 1.58-.37 1.52-.34 1.42-.31 1.27-.27 1.08-.23.87-.18.68-.14.48-.11.28-.09.09-.06-.17-.03-.69.01M-26.28-83l1.33-.57 1.12-.21 1.49-.1 1.93-.07 2.31-.04 2.56.03 2.76.14 2.93.23 3.1.29 3.27.33 3.41.38 3.52.43 3.6.48 3.64.52 3.6.53 3.52.53 3.44.54 3.39.6 3.38.62 3.19.47" filter="url(#a)"/><path d="m31.77-79.18.82.41.75.55.72.63.65.63.53.55.39.48.27.4.13.31-.06.19-.31.05-.58-.12-.85-.28-1.12-.44-1.37-.6-1.64-.79-1.95-1.01-2.32-1.25-2.79-1.51-3.3-1.76-3.7-2.04-3.81-2.3m40.66 33.46.48.58.2.56-.04.5-.37.23-.76-.22-1.18-.72-1.6-1.14-1.97-1.47-2.36-1.75-2.78-2.08-3.28-2.52-3.88-3.08-4.54-3.72-5.2-4.4-5.82-5.07-6.7-5.72" filter="url(#a)"/><path d="m51.59-56.84.77 1.69.53 1.09.45.86.41.8.34.75.25.62.1.39-.06.16-.2-.04-.35-.2-.5-.33-.66-.51-.85-.75-1.06-1.06-1.3-1.44-1.55-1.86-1.83-2.28-2.13-2.7-2.42-3.12-2.77-3.57-3.12-4.08-3.43-4.55m-68.38 1.13 1.12-.89 1.19-.93 1.03-.79.83-.62.66-.46.53-.33.43-.2.31-.06.15.11-.05.31-.25.49-.47.69-.67.88-.85 1.06-1.07 1.28-1.33 1.55-1.65 1.88-2.03 2.3-2.41 2.74-2.79 3.14-3.09 3.41-3.3 3.35" filter="url(#a)"/><path d="m-35.71-76.06.28-.14 1.32-.6 1.93-.74 2.24-.72 2.46-.62 2.66-.54 2.87-.48 3.1-.44 3.3-.4 3.44-.37 3.56-.34 3.62-.31 3.67-.29 3.72-.29 3.79-.3 3.87-.3 3.9-.26 3.82-.24 3.56-.27m19.96 13-.15-.04.08.65-.07.83-.4.83-.81.76-1.29.67-1.76.57-2.24.5-2.74.41-3.25.31-3.78.19-4.34.12-4.89.08-5.45.1-6.05.13-6.65.08-7.25-.07-7.84-.28-8.5-.39-9.3-.24" filter="url(#a)"/><path d="m28.89-81.58.6.46 1.16.96 1.28 1.07 1.27 1.1 1.27 1.12 1.25 1.16 1.22 1.17 1.16 1.13 1.07 1.05.97.96.87.84.72.66.49.43.19.12-.1-.18-.35-.44-.44-.57m10.07 13.7.74 1.66.42 1 .27.71.17.61.02.53-.15.35-.36.1-.6-.15-.83-.37-1.05-.53-1.27-.66-1.48-.83-1.72-1.04-1.98-1.33-2.29-1.67-2.62-2.03-3.01-2.42-3.41-2.79-3.82-3.17-4.23-3.53-4.65-3.92-5.05-4.29-5.21-4.65m13.88.35.83.61.69.4.65.38.54.36.34.31.13.26-.08.22-.31.15-.6.06-.92-.06-1.28-.22-1.67-.36-2.06-.52-2.5-.68-3.01-.88-3.56-1.06-4.08-1.26-4.49-1.45" filter="url(#a)"/><path d="m4.28-90.14 2.53.36.83.34.25.45-.06.61-.49.77-1.04.91-1.62 1.08-2.16 1.29-2.67 1.53-3.14 1.76-3.65 1.99-4.17 2.2-4.75 2.38-5.38 2.58-6.1 2.8-6.93 3.15-7.9 3.72m24.41-24.89.96-.32 1.18-.45 1.12-.36 1.11-.31 1.11-.29 1.03-.26.88-.21.71-.15.54-.1.41-.04.28.02.15.07-.04.14-.26.21-.51.29-.78.37-1.06.45-1.35.54-1.67.62-1.94.69-2.22.74-2.54.85-3.03 1.03m69.87 19.02 1.33 1.68 1.01 1.37.7 1.07.62 1.03.68 1.16.74 1.3.75 1.32.64 1.16.48.87.3.53.1.18-.1-.18-.36-.65-.68-1.26-1.07-1.92M13.38-88.82l.68.36 1.27.6 1.53.73 1.71.86 1.85.96 1.94 1.04 1.93 1.06 1.81 1.03 1.66.96 1.51.87 1.34.79 1.16.66.89.46.52.18" filter="url(#a)"/><path d="m-31.29-79.91.89-.14 1.62-.36 2.31-.33 2.84-.21 3.27-.08 3.64.04 3.98.16 4.32.25 4.62.31 4.92.33 5.19.33 5.4.34 5.59.45 5.7.53 5.62.43" filter="url(#a)"/><path d="m13.38-88.82.4.28.42.38.15.42-.24.47-.65.54-1.12.61-1.67.68-2.31.74-2.96.81-3.65.88-4.38.97-5.16 1.1-5.99 1.24-6.8 1.37-7.47 1.33m59.82-2.18.9.52 1.02.87 1.18 1.14 1.27 1.32 1.29 1.37 1.29 1.36L40-71.24l1.28 1.32 1.23 1.27 1.12 1.17.93 1 .7.76.41.46.16.16v-.03m8.91 14.47.63 1.36.42.95.23.53.12.4.06.45-.01.5-.11.47-.26.3-.44.03-.66-.28-.89-.63-1.12-.97-1.36-1.31-1.59-1.62-1.84-1.94-2.08-2.25-2.34-2.56-2.61-2.91-2.89-3.3-3.2-3.76-3.53-4.23-3.89-4.71-4.42-5.2" filter="url(#a)"/><path d="m28.91-81.61 1.41 1.1.98.79.68.57.46.46.26.39.05.3-.21.18-.51.05-.8-.09-1.14-.24-1.5-.42-1.93-.64-2.38-.89-2.85-1.12-3.28-1.35-3.69-1.58-4.13-1.82-4.66-2.1m47.22 34.4.46.6.15.65-.12.65-.45.43-.86.08-1.27-.3-1.69-.59-2.1-.78-2.49-.94-2.9-1.13-3.35-1.4-3.83-1.76-4.39-2.18-4.99-2.62-5.61-3.04-6.23-3.45-6.81-3.84-7.43-4.23-8.15-4.57" filter="url(#a)"/><path d="m36.87-75.05 1.36 1.45.83 1 .2.6-.3.38-.69.29-1.05.23-1.44.15h-1.9l-2.38-.17-2.92-.36-3.46-.55-4.01-.74-4.58-.97-5.22-1.2-5.9-1.42-6.61-1.57-7.29-1.71-7.88-1.97" filter="url(#a)"/><path d="m-13.13-88.82 2.44-.26 1.78.2 1.85.55 2.21.82 2.68 1.05 3.13 1.25 3.51 1.44 3.77 1.63 3.95 1.79 4.08 1.9 4.2 1.97 4.34 2.03 4.47 2.15 4.63 2.34 4.76 2.58 4.75 2.59m9.24 10.21.26.77.16.61v.61l-.22.57-.51.41-.84.14-1.18-.14-1.51-.35-1.82-.48-2.14-.6-2.49-.72-2.88-.92-3.31-1.17-3.76-1.49-4.22-1.81-4.7-2.15-5.17-2.47-5.62-2.78-6.07-3.1-6.52-3.42-7.07-3.67-7.83-3.77" filter="url(#a)"/><path d="m41.36-70.71-.06-.05.38.61.42.76.29.71.07.59-.18.42-.44.27-.72.11-1-.06-1.33-.24-1.66-.43-2.01-.61-2.35-.76-2.71-.9-3.07-1.05-3.46-1.24-3.85-1.48-4.25-1.78-4.64-2.06-5.12-2.31-5.74-2.52-6.5-2.72M-26.28-83l1.25-.64.9-.4 1.08-.41 1.37-.49 1.56-.55 1.63-.56 1.63-.53 1.61-.5 1.59-.48 1.57-.46 1.52-.44 1.42-.41 1.27-.35 1.09-.31.89-.26.65-.21.35-.15-.04-.08-.55.01m16.62 1.13 1.2.16.95.28.89.36 1.01.45 1.19.53 1.33.6 1.43.63 1.46.65 1.42.64 1.33.6 1.18.54.99.45.78.36.57.24.34.12.14.01-.08-.1-.39-.25-.83-.5" filter="url(#a)"/><path d="m7.86-89.66 2.39.4 1.3.25.57.22.14.22-.11.29-.28.34-.44.42-.65.46-.9.51-1.21.56-1.58.6-2.01.65-2.48.68-2.95.74-3.42.78-3.91.83-4.42.91-5 1.02-5.69 1.19-6.41 1.35m67.64 3.95 1.29 1.05.55.56.11.31-.14.22-.36.13-.64-.04-1.01-.27-1.45-.59-1.99-.92-2.54-1.28-3.11-1.63-3.73-2.02-4.45-2.47-5.19-2.98-5.65-3.4" filter="url(#a)"/><path d="m-5.72-90.26 1.78-.11.62.1.21.22-.02.34-.25.47-.59.62-1.01.78-1.46.95-1.91 1.16-2.4 1.4-2.91 1.66-3.49 1.96-4.13 2.23-4.74 2.43-5.3 2.57-5.98 2.88" filter="url(#a)"/><path d="m-32.1-78.9.82-.68 1.03-.55 1.33-.61 1.59-.65 1.78-.65 1.89-.61 1.94-.59 1.99-.57 2.03-.56 2.09-.55 2.16-.55 2.22-.56 2.25-.54 2.21-.5 2.12-.48 1.97-.44 1.8-.43 1.6-.42 1.38-.38 1.05-.35.57-.34m44.66 28.03 1.17 1.96.74 1.39.47 1.16.18.9-.09.62-.35.38-.6.17-.85-.03-1.13-.24-1.41-.49-1.72-.75-2.03-.97-2.33-1.16-2.66-1.34-2.97-1.51-3.32-1.74-3.71-2.04-4.14-2.36-4.6-2.73-5.06-3.08-5.46-3.43-5.76-3.76-5.99-4.12m-11.78-3.1 1.4-.32 1.48-.35 1.5-.31 1.36-.24 1.22-.2 1.16-.15 1.17-.15 1.17-.14 1.15-.12 1.05-.12.89-.08.69-.06.48-.04.25-.01-.02-.01h-.3l-.58.01-.83.01-1.31.03" filter="url(#a)"/><path d="m12.46-89.06.76.25.44.15.55.21.71.25.8.29.8.3.75.3.63.29.47.26.26.23.04.17-.19.12-.43.06h-.66l-.9-.06-1.17-.12-1.46-.18-1.78-.25-2.09-.32-2.38-.41-2.71-.5-3.17-.6-3.79-.71" filter="url(#a)"/><path d="m17.34-87.39 1.98.76 1.2.51 1 .46.91.46.84.43.72.38.58.31.41.23.19.14-.07.01-.4-.13-.75-.27-1.12-.43-1.51-.62-1.95-.84-2.53-1.14" filter="url(#a)"/><path d="m-2.07-90.54.81.12 1.38.09 1.46.13 1.43.18 1.45.24 1.5.28 1.58.33 1.62.35 1.63.34 1.56.34 1.47.3 1.3.26 1.09.2.8.13.44.05.05-.05-.29-.13-.4-.19m26.37 19.23.42.41.49.73.18.5-.2.18-.56-.11-.95-.39-1.41-.76-1.92-1.18-2.45-1.61-2.94-2-3.4-2.35-3.94-2.73-4.77-3.25-6.02-3.94" filter="url(#a)"/><path d="m43.18-68.34.41.41.44.73.12.52-.26.21-.62-.03-1.02-.3-1.51-.62-2.05-1-2.63-1.38-3.2-1.73-3.74-2.04-4.3-2.38-4.89-2.82-5.54-3.34-6.13-3.91" filter="url(#a)"/><path d="m16.52-87.54 1.06.39.79.55.13.57-.51.59-1.08.64-1.68.72-2.31.81-2.95.9-3.63.99-4.32 1.07-5.04 1.14-5.77 1.19-6.51 1.25-7.29 1.34-8.18 1.53" filter="url(#a)"/><path d="m36.87-75.05 1.42 1.47.98 1.01.47.64.07.44-.18.36-.42.3-.67.22-.97.08-1.31-.1-1.69-.29-2.1-.49-2.52-.68-2.96-.91-3.41-1.15-3.84-1.38-4.29-1.6-4.78-1.76-5.37-1.93-6.07-2.12-6.77-2.41m-27.6 8.71 1.37-1.09 1.13-.88.88-.68.71-.52.62-.43.54-.34.41-.2.24-.03.01.16-.25.38-.51.6-.74.82-.98 1.04-1.23 1.3-1.55 1.6-1.93 1.93-2.33 2.26-2.68 2.51-2.96 2.62" filter="url(#a)"/><path d="m14.66-88.13 1.19.34.48.42.24.55-.05.67-.47.76-.96.85-1.48.96-2 1.08-2.52 1.21-3.05 1.32-3.58 1.46-4.16 1.6-4.76 1.78-5.4 1.96-6.02 2.11-6.63 2.22-7.25 2.29-7.94 2.38m89.68 4.96.69 1.04.72 1.29.59 1.18.43.92.29.72.18.56.05.4-.11.22-.28-.01-.47-.27-.67-.49-.86-.69-1.06-.86-1.25-1.05-1.47-1.3-1.72-1.6-1.99-1.96-2.27-2.37-2.58-2.76-2.88-3.17-3.19-3.56-3.54-3.98-3.89-4.42" filter="url(#a)"/><path d="m-17.76-87.11 1.06-.29 1.51-.34 1.65-.22 1.85-.13 2.04-.07 2.16-.04 2.18.02 2.17.07 2.18.1 2.23.14 2.29.15 2.3.16 2.26.18 2.16.18 2.01.18 1.86.17 1.71.13 1.55.11 1.42.11" filter="url(#a)"/><path d="m14.66-88.13 1.16.34.42.39.12.53-.24.64-.75.74-1.31.82-1.9.89-2.5.98-3.09 1.07-3.71 1.16-4.38 1.3-5.1 1.48-5.9 1.69-6.71 1.87-7.4 1.93-7.9 1.75m10.87-13.83.65-.31 1.3-.62 1.35-.58 1.27-.48 1.25-.44 1.28-.43 1.31-.43 1.3-.42 1.26-.39 1.15-.35 1.01-.29.82-.24.6-.18.35-.11.12-.05-.09.02-.36.09-.72.19-1.21.32-1.73.43" filter="url(#a)"/><path d="m11.13-89.09 14.01 12.63 3.16 6.07-.46 1.71-6.7-2.5L9.5-74.82l-12.76-2.37-9.91-.75-4.12.09 2.96.26 9.32.38 13.02 1.1 12.98 2.83 9.21 5.13.74 5.69-18.55 1.13-59.9-1.55" filter="url(#a)"/><path d="m-32.1-78.9 29.72 2.12 9.39 3.41-4.16-1.42-3.57-2.56 2.25-1.48 6.18.04 6 1.16 2.94 1.71-.7 1.82-3.26 1.53-4.23.93-4.01.15-3.09-.47-1.62-.68.36-.52 2.33-.24 3.21-.2 1.86-.53-1.54-1.04-5.33-1.44-8.06-1.08-11.03 1.19-16.19 6.23-14.01 9.07" filter="url(#a)"/><path d="m33.34-78.31-27.77.13-4.86-1.4-2.91-2.07.34-1.1 3.49.31 3.36 1.35.21 1.67-3.1 1.21-3.96.21-1.96-.74 1.02-.89 2.44.2 1.04 2.18-2.79 3.97-8.09 4.37-13.86 2.93-15.96 1.04-8.3 3.03" filter="url(#a)"/><path d="m33.77-77.94-23.98.32L-2-70.25l-6.95 4.35-4.63.56 1.14-1.48 7.75-1.94 10.66-1.65 8.33-1.31 2.59-1.06-3.09-.56-5.93.63-5.16 2.42-2.16 3.73 1.03 2.85 3.39-1.22 4.83-6.73.67-9.28-23.6-7.88" filter="url(#a)"/><path d="M-21.39-85.63 13.96-75.5l13.16 5.4-2.59-3.31-7.83-5.63-6.98-4.13L5-84.76l-3.44.73-3.22 2.33-3.01 3.07-1.93 2.92.02 2.24 2.16 1.51 3.73 1.12 4.29 1.08 3.87 1.18 2.92 1.13 2.36 1 3.26 1.13 6.12 1.9 9.76 3.25 11.09 4.15 7.91 4.25 9.82 15.46" filter="url(#a)"/><path d="m16.74-87.75-41.47 16.47-13.11 3.47-1.43-.97 5.37-3.12 9.85-3.85 11.86-3.32 11.5-2.02 9.38-.51 6.34.83 2.88 1.88-.82 2.49-4.51 2.57-7.53 1.93-8.9.63-7.82-1.01-4.65-2.52-1.02-3.35.99-3.24.67-2.29-.08-1.02 2.44.14 12.08 1.5 34.58 4.75" filter="url(#a)"/><path d="m24.51-83.95-33.45 5.21-2.29-1.36 7.64 1.95 10.38 4.27 7.71 3.52 2.6 1.49-1.8-.24-4.14-1.37-4.6-2.22-3.73-2.86-1.92-3.06.31-2.61 2.29-1.58 3.29-.46 3.05.25 1.82.36.23.21-1.08.74-1.14 2.98.78 6.77-.43 6.77-36.98-17.34" filter="url(#a)"/><path d="m60.71-36.31-25.23-8.15L8.07-57.51-2.6-65.97l-.4-3.86 4.01-1.21 5.61-.58 5.22-1.52 3.29-2.97.86-3.66-.87-2.89-.96-.63 1.27 2.68 4.89 5.88 4.93 6.01-8.95-1.22-45.79-11.39" filter="url(#a)"/><path d="m-38.03-74.11-.85 6.37 13.58-2.01 13.66-5.46 8.07-4.78L.17-82.2l1.71.68.85 2.66.16 2.89-.51 1.39-.79-.88-.27-2.58 1.06-2.71L5.13-82l4 1.04 3.97 3.05 2.16 3.67-.87 2.14-2.96-1.17-1.64-3.93-1.27-3.52-26.28-6.39" filter="url(#a)"/><path d="m47.68-62.72-12.74-5.72-2.37 4.73-7.95.76-9.4-2.92-6.59-4.51-2.74-4.61.11-3.85 1.48-2.62 1.63-1.27.84-.06-1.01.83-3.63 1.48-5.42 2.23-3.74 3.38 2.62 4.41 10.38 4.09 14.91 4.32 35.4 22.34" filter="url(#a)"/><path d="m40.27-71.94 7.17 10.89-2.23-1.96-4.68-4.2-5.02-3.07-6.48-1.68-9.04-.95-10.61-.81-9.56-.98-6.12-1.08-1.93-.85 1.33-.31 2.86.28 3.04.65 2.91.86 3.25 1.33 3.69 2.36 2.39 3.28-2.73 2.02-9.91-3.33-11.21-9.93-11.05-4.96" filter="url(#a)"/><path d="M30.7-80.3 9.07-78.69l-6.96 2.05-9.46.46-6.76.92-.27 1.78 5.69 1.68 8.95.73 9.64-.16 8.76-.38 7.03-.11 4.55.02 1.24-.31-2.67-.71-6.79-.61-10.6-.28-11.63-.61-.43-.78 40.91 3.06" filter="url(#a)"/><path d="M61.9-31.5 32.98-55.17 8.38-69.65l-8.84-8.44-.86-4.64 1.36-1.71 2.71 1.25 5.08 3.94 7.5 5.14 7.98 3.91 5.64.76 1.6-2.53-1.95-4-3.73-3-5.68-.35-14.95 2.81-46.14 6.26" filter="url(#a)"/><path d="m-2.99-90.3.51 2.02 1.25 3.29 5.89 4.06 4.53 3.87 1.22 2.7-.71.86-1.06-.97-.63-2.05.33-1.94 1.9-.85 3.87.67 5.44 2.05 5.67 2.97 3.83 3.26-.43 2.53-6.76.54L9.19-69.3l-11.23-2.98 7.58.22 45.04 13.67" filter="url(#a)"/><path d="m-36.17-75.84 50.08 5.96L31-66.45l2.48 1.88-7.11-2.02-11.05-4.72-9.81-4.82-5.96-2.97-1.99-.26.94 2.35 2.85 4.18 4.13 4.71 4.85 3.83 4.6 1.87 2.96-.43.13-2.13-2.64-2.49-3.57-1.41-1.71.18 2.24.28 5.77-3.7-9.59-17.53" filter="url(#a)"/><path d="m-51.26-56.71 4.38-5.63 8.15-3.25 15.09.11 18.82 2.77 16.37 2.76 9.38.84 1.64-1.55-3.75-3.44-5.68-4.31-4.71-3.96-2.23-2.6.51-.86 2.56.57 3.16 1.17 1.66.9-1.83-.06-5.72-1.32-7.46-2.31-4.57-2.38 6.89-.75 35.82 5.26" filter="url(#a)"/><path d="m60.14-37.29-18.22-23.9-13.65-8.02-6.93-2.63-2.65-1.73-2.18-1.53-2.73-.81-2.58-.31-2.24-.71-2.41-1.33-2.29-.62.12 2.03 5.79 4.76 11.68 3.68 8.18-4.3-12.69-14.68" filter="url(#a)"/><path d="m40.27-71.94 4.69 7.14-6.48-.99-13.57-3.73-12.25-2.31-6.99-.48-3.8.14-4.08-.21-4.87-.73-3.01-.9 1.24-.7 4.24-.51 2.04-.71L-8.04-77l-12.78-.37-12.64 1.84-2.25-.53" filter="url(#a)"/><path d="m20.26-86.26 15.96 14.32 2.52 6.6-7.61-.56-9.42-2.79-6.58-1.82-3.86-.37-2.59.45-1.97.51-1.44.07-1.36-.67-2.14-1.32-3.73-1.52-5.51-1.2-6.21-.63-4.26.04 1.4 1.26 9.03 3.05 9.99 1.68-27.49-14.79" filter="url(#a)"/><path d="m16.74-87.75 2.42 1.76-5.08 1.12-9.42 1.11-9.6.54-7.39.2-4.64.23-1.89.28.77.28 2.79.56 3.55 1.36 3.52 2.62 5.17 4.24L8.61-67.4l19.31 4.51-.21-19.43" filter="url(#a)"/><path d="M38.44-73.29.02-66.35l-2.58-5.1-.28-5.94-.02-3.01 2.42.03 5.31 1.76 6.74 2.29 6.21 2.16 4.36 1.76 2.1 1.1.24.18-.76-.69-.77-1-.13-.29.29 1.4-.1 3.38-.88 4.45-.57 3.57.18.69-9.01-3.41-52.71-9.12" filter="url(#a)"/><path d="M51.59-56.84 27.2-67.33l-3.94 2.42-3.67.52-6.77-2.65-9.12-4.24-8.33-3.96-4.66-2.69-.15-1.17 3.77.36 7.12 1.93 9.68 3.36 8.84 3.84 1.41 1.45-7.08-5.18 16.4-6.96" filter="url(#a)"/><path d="m-49.81-59.69 24.23-12.65 14.16 3.89 7.1 2.17 1.73-3.4-.61-5.63-1.98-4.27-3.23-1.68-3.39.48-1.28 2.06 3.11 3.51 8.51 4.66 12.98 4.93 15.42 5.47 17.89 10.52L61.9-31.5" filter="url(#a)"/><path d="m-13.33-88.45 15.61 6.9 22.54 11.71 14.59 10.38 4.52 6.52-3.53 1.88-7.37-1.95-7.05-3.79-4.76-3.37-3.02-1.6-2.81.06-3.34.4-2.94-.47-.51-1.29 3.39-.65 5.19.7-1.42-1.1L-2-73.52l-18.42-12.64" filter="url(#a)"/><path d="m-31.29-79.91 34.5.01 5.25-.17.27 1.92-1.13 1.54-2.65.53-3.77.02-3.79-.23-2.36-.65.16-1.13 2.93-1.32 5.21-.98 6.46-.27 6.56.48 5.68 1.08 4.24 1.51 2.77 1.97 1.83 2.58 1.79 3.34 2.65 3.95 3.77 3.9 3.7 2.58 1.27-.25-.83-2 12.21 12.28" filter="url(#a)"/><path d="m-9.55-89.72 6.68 6.02-3.12 2.26-.47-1.15 1.16-1.11 3.75.7 7.43 2.76 9.8 4.21 8.61 4.35 3.58 2.93-3.34.61-8.28-.74-6.9.73 2.76 4.88 16 8.22 19.01 4.58-1.44-14.8" filter="url(#a)"/><path d="m-30.75-79.79 23.76-1.77 14.31 7.04 13.12 7.6 10.83 6.33 7.26 5.11 2.98 3.77-.63 2.27-2.2.74-1.7-.88-.44-2.63.04-4.39-.78-5.59-2.01-5.47-2.22-3.64-.61-.44 2.18 2.71 4.16 3.72 3.11 1.1-1.4-4.02-7.48-7.89-17.86-12.52" filter="url(#a)"/><path d="m30.7-80.3-14.03-3.35-10.84 4.52-5.64 5.67-.12 3 4.61.14 7.68-1.23 8.1-1.34 5.79-.95 2-.59-1.48-.2-3.13.51-2.86 1.53-2.42 2.28-4.79 1.86-10.85-.19-14.98-3.24-4.73-6.69L8.67-89.64" filter="url(#a)"/><path d="M57.62-45.01 28.21-72.7 13.2-80.1l-8.88 2.96-6.05 6.29-4.92 5.11-2.98 2.58.36.71 3.18-.15 3.46-.54 1.17-.98-1.55-1.54-2.23-2.11-.04-2.56 3.55-2.84 5.93-2.96 5.26-2.9 1.83-2.49-2.32-1.42-5.04.63-5.26 3.43.1 4.58 35-3.64" filter="url(#a)"/><path d="m-2.07-90.54 7.2 2.38 12.34 7.2L26-72.89l.47 4-6.66-.91-9.66-3.34-8.41-2.69-4.48-.18.3 2.57 4.51 4.26 6.87 4.22 6.55 2.4 3.35-.55-1.65-3.4-6.47-4.94-9.23-4.57-9.18-2.74-6.88-.78-3.82.06-1.37-1.12 11.51-9.24" filter="url(#a)"/><path d="m-39.3-73.06 29.98 2.98-2.64-.84.77-1.96 5.45-1.04 5.11-.52 2.67-.7 1.47-.9 2.29-.58 4.13.41 5.72 1.62L22-72.21l5.7 2.13 3.93.84 1.52-.91-.7-2.25-1.96-2.61-1.71-1.86.17-.07 3.46 2.68 6.75 5.62 6.12 5.2-5.01-8.5" filter="url(#a)"/><path d="m-47.51-62.88 46.96-5.19.94-5.34-3.96 1.01.74 4.3 4.09 3.8 4.88 1.77 3.93.07 1.7-.68-1.27-.81-3.86-.82-4.73-.99-3.37-1.36-.58-1.82 1.91-2.15 2.69-2.24 1.71-2.05.29-1.58.17-.75 2.12.74 5.52 3.17 9 6.05 10.52 6.53 3.63-1.91-24.39-25.96" filter="url(#a)"/><path d="M55.43-49.22 17.36-70.1l-8.71-5.85-3.06 1.14.59 3.86 1.75 3.1.71.71.3-1.08 2.2-.9 5.59.93 8.21 3.05 8.16 4.07 4.79 3.51-1.29 1.73-8.64-.49-15.05-2.64-17.13-4.47-11.2-5.78 3.87-5.7 22.97-1.42 36.26 13.61" filter="url(#a)"/><path d="m24.72-84.04 21.63 28.67 2.6 7.64-9.94-6.74L25.03-65.8 13.3-75.23 6.34-80.5l-2.43-1.31.57 1.53 1.33 2.95-.38 2.92-3.84 1.69-6.9-.12-7.13-1.67-3.6-2.25 1.91-1.5 5.62.16 3.73.88-3.94-2.47 3-10.57" filter="url(#a)"/><path d="m-23.81-84.24 14.36-3.52 7.15.95 6.79 3.39 5.02 3.16.56 1.12-3.7-.95-5.72-1.88-5.68-1.55-4.73-.53-3.5.58-1.68 1.6 1.41 2.92 6.18 5.1 11.81 7.94 14 8.89-.35 2.34-54.28-21.16" filter="url(#a)"/></g><g fill="none" stroke="#000"><circle cx="7.414" cy="34.078" r="2.958" filter="url(#a)"/><circle cx="7.882" cy="33.886" r="2.368" filter="url(#a)"/><circle cx="7.61" cy="32.886" r="1.04" filter="url(#a)"/><circle cx="8.07" cy="34.146" r="2.946" filter="url(#a)"/><circle cx="9.654" cy="33.606" r="2.258" filter="url(#a)"/><circle cx="8.338" cy="36.002" r="1.728" filter="url(#a)"/><circle cx="8.058" cy="35.89" r="1.274" filter="url(#a)"/><circle cx="8.238" cy="33.582" r="2.006" filter="url(#a)"/><circle cx="6.514" cy="34.37" r="1.306" filter="url(#a)"/><circle cx="7.218" cy="34.562" r="1.51" filter="url(#a)"/><circle cx="-9.464" cy="35.32" r="2.818" filter="url(#a)"/><circle cx="-11.456" cy="37.168" r="1.752" filter="url(#a)"/><circle cx="-9.296" cy="36.22" r="1.462" filter="url(#a)"/><circle cx="-11.444" cy="33.744" r="1.808" filter="url(#a)"/><circle cx="-9.244" cy="36.36" r="1.616" filter="url(#a)"/><circle cx="-11.792" cy="33.756" r="2.408" filter="url(#a)"/><circle cx="-10.968" cy="37.132" r="2.542" filter="url(#a)"/><circle cx="-12.144" cy="37.34" r="1.944" filter="url(#a)"/><circle cx="-9.52" cy="34.416" r="2.39" filter="url(#a)"/><circle cx="-8.796" cy="36.312" r="1.77" filter="url(#a)"/></g><path fill="#66CCA9" stroke="#000" stroke-linejoin="round" stroke-width="3" d="m30.04 60.57.07.15-.21.19.21.55-.09 1.01-.05-.39-.31 1.46.32-.31-.66 1.49.05.01.17-.15-.22.33-1.03 1.64.24-.41.21-.02-1.27 1.63.46-.69-.25.44-.7.75-1.36 1.42.8-.81-1.46 1.5-.79.58 1.1-.93-2.42 1.89-.46.38.42-.34-.29.15-1.85 1.24-1 .51.01.01-1.08.59-.4.15.32-.12-.04.02-2.79 1.22.23-.09-1.08.43-2.17.82.33-.09-1.65.53.75-.24-1.79.53-.88.25.45-.1-.66.17-3.2.75 1.83-.4-.82.18-2.62.54-.57.1-.45.07-2.35.33 1.48-.2-.33.05-2.56.3-2.31.17-.62.03-1.03.02 1.13-.01h-.91l-1.31.05-1.41-.02-.39.01-2.22-.17.28.07-1.52-.15 1.31.1-1.61-.14-.84-.09-1.63-.3.03-.02-1.71-.34.74.23-.91-.22-2.25-.72-.21.03-1.27-.44-.46-.27-.37-.18.03-.02-.78-.35.14.08-.36-.07-1.03-.69-1.2-.81-.29-.1-.46-.33.68.39-.4-.34-1.22-1 .61.41-1.51-1.52.84.93-.83-1.11-.25-.67-.27.03.21.22-.37-.65-.27-1.65-.04.83v-.58l-.11-.71.11.25.01-.59-.07-.84-.07-.15-.01-.15.27-1.03.39-.9.28-.47-.17-.12.69-1.18-.32.55.95-1.45-.64.85.85-1.17.67-.62-.31.28 1.29-1.41.77-.6-.72.56 1.18-.89 1.24-1.06-.63.4.58-.32.43-.39.58-.4 1.03-.56-.26.12 1.06-.63.55-.36 2.46-1.2-.79.34.99-.46.41-.15.43-.22 3.1-1.22.07-.07 1.35-.46 1.05-.3.15-.07 1.57-.43-.35.09.86-.23 1.85-.45-.86.2 2.56-.57-.03.01-.84.17 3.49-.64.44-.06H.88l.18-.02 3.28-.38.96-.08h.05l.63-.05-1.04.1 1.55-.11 2.48-.04 1.22-.01.12-.01.38.05.87.03-.5-.02 1.63.1 1.17.08 1.14.1.61.14-.6-.12.9.17 3.26.59.32.05-.6-.07 2.2.63.12-.01.76.31-.81-.37 2.34 1.03.58.15-.47-.25-.13.04 2 1.1-.5-.38.41.31.47.18 1.01.86.54.45.02-.12.23.25.02.14 1.02 1.33-.26-.34.76 1.12-.38-.61.67.88-.19.05.38.51.14.14" filter="url(#a)"/></svg>