<svg viewBox="-100 -100 200 200" xmlns="http://www.w3.org/2000/svg" width="500" height="500" id="face-svg">
    <defs>
      <clipPath id="leftEyeClipPath">
        <polyline points="27.15,1.02 26.98,0.57 26.79,0.13 26.56,-0.3 26.3,-0.72 26.01,-1.13 25.69,-1.54 25.34,-1.95 24.96,-2.35 24.54,-2.74 24.11,-3.13 23.64,-3.52 23.14,-3.9 22.62,-4.27 22.07,-4.65 21.5,-5.02 20.95,-5.37 20.35,-5.73 19.71,-6.09 19.04,-6.46 18.32,-6.83 17.57,-7.21 16.78,-7.58 15.96,-7.96 15.1,-8.34 14.21,-8.71 13.3,-9.08 12.35,-9.45 11.38,-9.8 10.39,-10.15 9.38,-10.5 8.35,-10.82 7.31,-11.14 6.25,-11.45 5.19,-11.73 4.11,-12 3.03,-12.26 1.94,-12.49 0.86,-12.71 -0.23,-12.91 -1.31,-13.08 -2.38,-13.23 -3.45,-13.36 -4.51,-13.47 -5.55,-13.55 -6.58,-13.61 -7.6,-13.65 -8.59,-13.66 -9.57,-13.64 -10.52,-13.61 -11.46,-13.54 -12.37,-13.46 -13.25,-13.35 -14.11,-13.22 -14.94,-13.07 -15.74,-12.9 -16.51,-12.7 -17.25,-12.49 -17.96,-12.26 -18.65,-12.01 -19.3,-11.75 -19.92,-11.47 -20.51,-11.18 -21.07,-10.88 -21.6,-10.56 -22.1,-10.24 -22.58,-9.91 -23.02,-9.57 -23.44,-9.22 -23.83,-8.85 -24.19,-8.48 -24.52,-8.09 -24.82,-7.7 -25.1,-7.3 -25.34,-6.89 -25.56,-6.48 -25.76,-6.06 -25.92,-5.63 -26.06,-5.2 -26.17,-4.76 -29.51,1.05 -29.03,1.38 -28.52,1.71 -28,2.04 -27.46,2.37 -26.91,2.7 -26.33,3.04 -25.74,3.37 -25.14,3.71 -24.51,4.05 -23.87,4.39 -23.22,4.73 -22.54,5.07 -21.85,5.41 -21.15,5.75 -20.43,6.09 -19.69,6.44 -18.93,6.78 -18.15,7.12 -17.35,7.47 -16.53,7.81 -15.7,8.15 -14.85,8.49 -13.99,8.82 -13.11,9.16 -12.21,9.49 -11.3,9.81 -10.38,10.12 -9.44,10.43 -8.5,10.73 -7.54,11.03 -6.58,11.31 -5.61,11.58 -4.63,11.84 -3.64,12.08 -2.66,12.32 -1.67,12.53 -0.67,12.73 0.32,12.92 1.31,13.08 2.3,13.23 3.28,13.35 4.26,13.46 5.23,13.54 6.19,13.6 7.14,13.64 8.08,13.65 9.01,13.64 9.93,13.61 10.83,13.54 11.71,13.45 12.58,13.34 13.42,13.2 14.25,13.03 15.05,12.83 15.84,12.6 16.6,12.35 17.33,12.07 18.04,11.77 18.72,11.44 19.38,11.08 20.01,10.7 20.61,10.29 21.19,9.87 21.73,9.42 22.26,9.12 22.77,8.81 23.25,8.49 23.72,8.15 24.16,7.81 24.59,7.46 24.99,7.1 25.37,6.74 25.73,6.37 26.06,6 26.37,5.62 26.65,5.24 26.91,4.86 27.14,4.48 27.35,4.11" />
      </clipPath>
      <clipPath id="rightEyeClipPath">
        <polyline points="-30.39,-0.76 -30.18,-1.1 -29.93,-1.44 -29.65,-1.78 -29.34,-2.1 -28.99,-2.42 -28.62,-2.73 -28.21,-3.03 -27.77,-3.33 -27.31,-3.63 -26.81,-3.92 -26.29,-4.2 -25.74,-4.48 -25.16,-4.75 -24.55,-5.02 -23.92,-5.29 -23.31,-5.55 -22.66,-5.81 -21.96,-6.08 -21.23,-6.34 -20.45,-6.61 -19.63,-6.87 -18.78,-7.13 -17.89,-7.39 -16.97,-7.65 -16.02,-7.9 -15.03,-8.14 -14.03,-8.39 -12.99,-8.62 -11.94,-8.85 -10.87,-9.07 -9.78,-9.27 -8.68,-9.47 -7.56,-9.66 -6.44,-9.84 -5.31,-10 -4.18,-10.15 -3.05,-10.29 -1.91,-10.41 -0.79,-10.51 0.33,-10.61 1.44,-10.68 2.55,-10.74 3.63,-10.78 4.71,-10.81 5.76,-10.82 6.8,-10.81 7.81,-10.78 8.81,-10.74 9.78,-10.68 10.72,-10.6 11.64,-10.5 12.53,-10.39 13.39,-10.26 14.23,-10.12 15.03,-9.96 15.8,-9.78 16.54,-9.59 17.25,-9.39 17.93,-9.18 18.58,-8.95 19.2,-8.71 19.79,-8.46 20.35,-8.2 20.88,-7.93 21.38,-7.66 21.85,-7.37 22.29,-7.08 22.71,-6.78 23.1,-6.46 23.47,-6.14 23.8,-5.81 24.11,-5.47 24.39,-5.12 24.65,-4.76 24.88,-4.4 25.08,-4.03 25.26,-3.66 25.42,-3.28 25.55,-2.89 29.62,0.51 29.22,0.78 28.8,1.05 28.36,1.33 27.9,1.6 27.43,1.88 26.94,2.16 26.43,2.45 25.9,2.73 25.35,3.02 24.79,3.31 24.2,3.6 23.6,3.89 22.98,4.18 22.34,4.47 21.68,4.76 21,5.05 20.3,5.35 19.57,5.64 18.82,5.94 18.05,6.23 17.26,6.52 16.45,6.81 15.61,7.1 14.75,7.38 13.87,7.66 12.96,7.93 12.04,8.2 11.09,8.46 10.13,8.71 9.15,8.96 8.15,9.19 7.13,9.41 6.1,9.63 5.05,9.83 3.99,10.01 2.92,10.18 1.85,10.34 0.76,10.48 -0.33,10.61 -1.43,10.71 -2.53,10.8 -3.63,10.87 -4.73,10.92 -5.82,10.95 -6.91,10.96 -7.99,10.95 -9.06,10.92 -10.12,10.86 -11.16,10.78 -12.19,10.68 -13.21,10.55 -14.2,10.41 -15.16,10.23 -16.11,10.04 -17.03,9.82 -17.92,9.58 -18.78,9.32 -19.61,9.03 -20.4,8.73 -21.17,8.4 -21.89,8.05 -22.58,7.69 -23.24,7.3 -23.85,6.9 -24.47,6.63 -25.07,6.34 -25.64,6.05 -26.19,5.74 -26.71,5.43 -27.2,5.12 -27.67,4.79 -28.12,4.47 -28.53,4.14 -28.92,3.8 -29.28,3.47 -29.61,3.13 -29.91,2.79 -30.18,2.45 -30.42,2.12" />
      </clipPath>
      <filter id="fuzzy">
        <feTurbulence id="turbulence" baseFrequency="0.05" numOctaves="3" type="noise" result="noise" />
        <feDisplacementMap in="SourceGraphic" in2="noise" scale="2" />
      </filter>
      <linearGradient id="rainbowGradient" x1="0%" y1="0%" x2="100%" y2="0%">
        <stop offset="0%" style="stop-color: [object Object]; stop-opacity: 1" />
        <stop offset="22.7%" style="stop-color: [object Object]; stop-opacity: 1" />
        <stop offset="100%" style="stop-color: [object Object]; stop-opacity: 1" />
      </linearGradient>
    </defs>
    <rect x="-100" y="-100" width="100%" height="100%" fill="rgb(152, 251, 152)" />
    <polyline id="faceContour" points="75.22,-0.12 75.34,0.29 75.3,0.73 75.31,4.12 75.12,5.58 75.36,6.75 75.09,7.06 75.03,7.64 74.75,11.55 74.52,11.44 74.46,13.9 74.57,14.55 74.29,14.89 73.57,16.91 73.55,17.62 73.6,19.09 73.36,19.99 72.92,21.48 72.81,21.8 71.73,24.52 71.81,23.81 71.57,26.23 70.35,28.78 70.83,28.64 69.76,30.92 70.17,30.55 70.02,30.3 68.24,34.85 67.44,36.73 67.87,35.36 67.05,37.17 66.71,37.92 66.54,38.69 64.94,41.73 64.14,42.1 64.62,41.97 64.32,43.14 62.94,44.88 62.26,46.25 62.22,46.14 60.25,49.56 61.17,48.66 59.19,50.24 59.12,50.45 57.4,53.37 58.21,52.59 57.88,52.4 55,55.45 55.25,56.17 53.13,58.22 53.28,57.81 52.67,58.27 51.82,59.72 52,59.57 50.46,61.35 49.27,61.88 48.28,62.38 46.53,64.24 45.48,65.47 46.85,64.13 45.58,65.48 42.76,67.46 41.39,68.27 40.58,68.73 41.22,68.48 39.44,70.11 37.64,70.99 37.16,70.95 36.79,71.67 34.91,72.81 35.06,72.37 32.8,73.75 32.92,73.45 32.01,74.05 29.54,75.02 28.73,75.68 27.88,75.97 27.05,76.11 26.19,76.69 25.52,76.99 22.59,78.01 23.35,77.98 19.39,79.01 20.15,78.71 17.58,79.39 17.62,79.78 16.93,79.62 16.07,80.24 14.03,80.42 15.45,80.01 12.07,80.82 11.09,80.97 8.62,81.39 8.44,81.24 8.06,81.51 5.44,81.41 6.2,81.42 4.86,81.9 2.56,81.66 0.23,81.71 0.14,81.8 -2.35,81.91 -3.78,81.71 -3.73,81.66 -6.96,81.35 -6.28,81.47 -6.58,81.45 -7.74,81.22 -9.12,81.2 -9.14,80.88 -11.05,80.86 -11.1,81.01 -15.06,80.44 -15.84,79.96 -16.6,79.94 -16.72,79.91 -17.54,79.29 -19.6,78.94 -19.55,78.8 -22.03,78.45 -23.07,77.89 -24.99,77.54 -25.22,77.33 -26.44,76.72 -27.17,76.05 -28.08,75.28 -30.92,74.76 -29.81,75.28 -30.83,74.74 -32.35,73.94 -34.04,73.01 -35.15,71.97 -35.02,72.44 -35.55,72.21 -38.91,70.38 -40.28,69.28 -41.58,68.34 -40.17,69.01 -43.19,67.49 -41.99,68.01 -43.5,66.44 -45.49,65.17 -46.26,64.79 -47.38,63.79 -48.55,62.29 -49.3,61.55 -49.86,61.54 -49.68,61.73 -51.33,60.22 -53.21,58.11 -53.66,58.12 -53.75,56.68 -55.76,55.37 -54.86,56.14 -57.31,53.73 -57.21,52.96 -58.45,51.4 -57.95,52.81 -59.4,50.45 -60.17,49.13 -60.96,48.25 -61.11,47.48 -62.97,45.83 -63.58,44.82 -64.46,43.32 -64.02,43.27 -64.36,42.68 -64.82,41.62 -64.89,41.34 -66.58,38.83 -67.45,36.38 -67.99,35.97 -68.36,34.44 -69.09,33.1 -69.39,31.15 -70.1,30.47 -69.65,30.6 -70.15,29.17 -71.08,26.46 -71.34,27.27 -71.33,25.37 -71.9,25.06 -72.81,22.18 -72.61,21.49 -72.95,21.43 -73.46,18.8 -73.68,16.46 -73.85,15.88 -74.37,15.05 -74.05,13.94 -74.2,13.04 -74.69,11.27 -74.86,10.72 -75.16,9.44 -74.95,7.7 -75.08,6.67 -75.08,5.95 -75.39,4.63 -75.28,3.24 -75.54,1.69 -75.18,-0.41 -75.24,-3.09 -75.59,-2.68 -75.14,-4.87 -75.06,-5.65 -75.43,-5.32 -75.2,-7.85 -74.74,-9.6 -74.64,-10.27 -74.6,-12.73 -74.45,-13.51 -74.08,-15.82 -74.58,-13.84 -73.95,-17.27 -73.06,-19.45 -72.79,-20.92 -73.55,-19.08 -73.1,-20.27 -72.44,-22.27 -71.95,-24.43 -71.92,-24.95 -71.3,-26.65 -70.87,-27.25 -69.97,-29.84 -70.15,-30.3 -69.96,-30.55 -69.11,-32.43 -69.12,-33.07 -68.64,-34.14 -67.42,-37.11 -67.03,-37.88 -65.87,-39.81 -66.45,-39.41 -65.93,-39.71 -65.59,-40.37 -64.5,-42.37 -63.14,-44.64 -63.61,-44.38 -61.87,-46.98 -61.74,-46.95 -60.91,-48.55 -59.57,-50.55 -60.77,-48.36 -58.42,-51.99 -58.28,-52.48 -57.29,-52.53 -56.05,-54.91 -55.62,-55.06 -54.81,-56.17 -54.22,-56.89 -54.13,-56.77 -53.25,-57.98 -51.59,-59.33 -51.57,-59.78 -49.47,-61.92 -49.24,-62.39 -47.3,-64.24 -47.19,-63.91 -47.62,-63.57 -44.81,-65.48 -43.76,-66.69 -43.26,-66.81 -42.25,-67.37 -42.47,-67.69 -40.8,-68.68 -39.8,-69.76 -39.39,-69.86 -38.63,-70.37 -37.05,-71.14 -34.87,-72.16 -35.44,-72.69 -32.69,-73.42 -33.32,-73.52 -31.54,-74.1 -28.68,-75.61 -28.07,-75.77 -29.18,-75.49 -27.97,-75.91 -26.36,-76.89 -25.04,-77.11 -22.57,-78.05 -23.31,-78 -21.73,-78.15 -20.38,-78.96 -19,-79.32 -17.87,-79.55 -15.69,-79.85 -15.49,-80.24 -15.75,-80.14 -11.07,-81.05 -10.92,-80.91 -9.31,-81.07 -9.4,-81.34 -9.57,-81.32 -6.95,-81.62 -8.17,-81.35 -5.82,-81.73 -2.55,-81.64 -2.71,-81.9 -0.31,-81.78 0.01,-82.06 0.71,-81.8 1.89,-81.93 3.05,-81.87 3.73,-81.5 5.36,-81.64 5.69,-81.49 7.15,-81.51 9.23,-81.04 11.1,-80.72 10.59,-80.96 12.3,-80.89 14.7,-80.44 15.35,-80.35 17.09,-79.83 18.78,-79.58 18.06,-79.31 18.66,-79.36 21.73,-78.7 21.6,-78.1 23.59,-77.77 23.3,-77.79 24.49,-77.51 27.35,-76.33 27.81,-76.3 28.9,-75.53 30.84,-74.6 30.13,-75.28 32.49,-73.81 33.08,-73.5 33.68,-73.32 36.19,-71.97 36.96,-71.22 37.59,-70.76 38.4,-70.31 37.74,-70.88 41.1,-68.82 41.05,-68.71 41.26,-68.72 42.4,-67.79 43.91,-66.22 45.09,-65.43 47.03,-63.96 47.14,-63.49 47.52,-63.69 48.57,-62.43 50.39,-61.14 50.28,-60.6 52.35,-59.36 52.36,-59.22 54.04,-56.84 52.75,-58.39 54.96,-55.92 54.73,-56.47 56.84,-54.19 56.66,-54.05 56.96,-53.91 58.12,-52.36 59.41,-49.9 60.82,-48.4 60,-49.53 62.33,-46.7 63.34,-44.82 62.62,-45.69 63.18,-44.36 64.94,-42.62 65.03,-42.16 65.03,-42.18 66.69,-38.74 66.22,-39.83 68,-35.8 66.97,-36.99 68.64,-34.94 69.32,-32.17 69.58,-32.6 69.86,-30.67 69.93,-30.58 70.72,-28.31 70.66,-29.02 71.41,-26 72.02,-24.19 71.73,-25.03 72.21,-23.18 72.57,-22.66 73.56,-19.04 73.51,-18.65 73.65,-17.23 74.02,-14.85 74.14,-14.82 74.66,-12.18 74.62,-11.09 74.84,-10.21 74.82,-10.38 74.99,-9.19 75.3,-6.51 75.36,-5.12 75.53,-3.84 75.3,-4.51 75.7,-0.83 75.31,-1.67 75.22,-0.12 75.34,0.29" fill="rgb(210, 180, 140)" stroke="black" stroke-width="1.6666666666666665" stroke-linejoin="round" filter="url(#fuzzy)" />
    <g transform="translate(46.37 -22.990000000000002)">
      <polyline id="rightCountour" points="-30.39,-0.76 -30.18,-1.1 -29.93,-1.44 -29.65,-1.78 -29.34,-2.1 -28.99,-2.42 -28.62,-2.73 -28.21,-3.03 -27.77,-3.33 -27.31,-3.63 -26.81,-3.92 -26.29,-4.2 -25.74,-4.48 -25.16,-4.75 -24.55,-5.02 -23.92,-5.29 -23.31,-5.55 -22.66,-5.81 -21.96,-6.08 -21.23,-6.34 -20.45,-6.61 -19.63,-6.87 -18.78,-7.13 -17.89,-7.39 -16.97,-7.65 -16.02,-7.9 -15.03,-8.14 -14.03,-8.39 -12.99,-8.62 -11.94,-8.85 -10.87,-9.07 -9.78,-9.27 -8.68,-9.47 -7.56,-9.66 -6.44,-9.84 -5.31,-10 -4.18,-10.15 -3.05,-10.29 -1.91,-10.41 -0.79,-10.51 0.33,-10.61 1.44,-10.68 2.55,-10.74 3.63,-10.78 4.71,-10.81 5.76,-10.82 6.8,-10.81 7.81,-10.78 8.81,-10.74 9.78,-10.68 10.72,-10.6 11.64,-10.5 12.53,-10.39 13.39,-10.26 14.23,-10.12 15.03,-9.96 15.8,-9.78 16.54,-9.59 17.25,-9.39 17.93,-9.18 18.58,-8.95 19.2,-8.71 19.79,-8.46 20.35,-8.2 20.88,-7.93 21.38,-7.66 21.85,-7.37 22.29,-7.08 22.71,-6.78 23.1,-6.46 23.47,-6.14 23.8,-5.81 24.11,-5.47 24.39,-5.12 24.65,-4.76 24.88,-4.4 25.08,-4.03 25.26,-3.66 25.42,-3.28 25.55,-2.89 29.62,0.51 29.22,0.78 28.8,1.05 28.36,1.33 27.9,1.6 27.43,1.88 26.94,2.16 26.43,2.45 25.9,2.73 25.35,3.02 24.79,3.31 24.2,3.6 23.6,3.89 22.98,4.18 22.34,4.47 21.68,4.76 21,5.05 20.3,5.35 19.57,5.64 18.82,5.94 18.05,6.23 17.26,6.52 16.45,6.81 15.61,7.1 14.75,7.38 13.87,7.66 12.96,7.93 12.04,8.2 11.09,8.46 10.13,8.71 9.15,8.96 8.15,9.19 7.13,9.41 6.1,9.63 5.05,9.83 3.99,10.01 2.92,10.18 1.85,10.34 0.76,10.48 -0.33,10.61 -1.43,10.71 -2.53,10.8 -3.63,10.87 -4.73,10.92 -5.82,10.95 -6.91,10.96 -7.99,10.95 -9.06,10.92 -10.12,10.86 -11.16,10.78 -12.19,10.68 -13.21,10.55 -14.2,10.41 -15.16,10.23 -16.11,10.04 -17.03,9.82 -17.92,9.58 -18.78,9.32 -19.61,9.03 -20.4,8.73 -21.17,8.4 -21.89,8.05 -22.58,7.69 -23.24,7.3 -23.85,6.9 -24.47,6.63 -25.07,6.34 -25.64,6.05 -26.19,5.74 -26.71,5.43 -27.2,5.12 -27.67,4.79 -28.12,4.47 -28.53,4.14 -28.92,3.8 -29.28,3.47 -29.61,3.13 -29.91,2.79 -30.18,2.45 -30.42,2.12" fill="white" stroke="white" stroke-width="0" stroke-linejoin="round" filter="url(#fuzzy)" />
    </g>
    <g transform="translate(-35.339999999999996 -22.69)">
      <polyline id="leftCountour" points="27.15,1.02 26.98,0.57 26.79,0.13 26.56,-0.3 26.3,-0.72 26.01,-1.13 25.69,-1.54 25.34,-1.95 24.96,-2.35 24.54,-2.74 24.11,-3.13 23.64,-3.52 23.14,-3.9 22.62,-4.27 22.07,-4.65 21.5,-5.02 20.95,-5.37 20.35,-5.73 19.71,-6.09 19.04,-6.46 18.32,-6.83 17.57,-7.21 16.78,-7.58 15.96,-7.96 15.1,-8.34 14.21,-8.71 13.3,-9.08 12.35,-9.45 11.38,-9.8 10.39,-10.15 9.38,-10.5 8.35,-10.82 7.31,-11.14 6.25,-11.45 5.19,-11.73 4.11,-12 3.03,-12.26 1.94,-12.49 0.86,-12.71 -0.23,-12.91 -1.31,-13.08 -2.38,-13.23 -3.45,-13.36 -4.51,-13.47 -5.55,-13.55 -6.58,-13.61 -7.6,-13.65 -8.59,-13.66 -9.57,-13.64 -10.52,-13.61 -11.46,-13.54 -12.37,-13.46 -13.25,-13.35 -14.11,-13.22 -14.94,-13.07 -15.74,-12.9 -16.51,-12.7 -17.25,-12.49 -17.96,-12.26 -18.65,-12.01 -19.3,-11.75 -19.92,-11.47 -20.51,-11.18 -21.07,-10.88 -21.6,-10.56 -22.1,-10.24 -22.58,-9.91 -23.02,-9.57 -23.44,-9.22 -23.83,-8.85 -24.19,-8.48 -24.52,-8.09 -24.82,-7.7 -25.1,-7.3 -25.34,-6.89 -25.56,-6.48 -25.76,-6.06 -25.92,-5.63 -26.06,-5.2 -26.17,-4.76 -29.51,1.05 -29.03,1.38 -28.52,1.71 -28,2.04 -27.46,2.37 -26.91,2.7 -26.33,3.04 -25.74,3.37 -25.14,3.71 -24.51,4.05 -23.87,4.39 -23.22,4.73 -22.54,5.07 -21.85,5.41 -21.15,5.75 -20.43,6.09 -19.69,6.44 -18.93,6.78 -18.15,7.12 -17.35,7.47 -16.53,7.81 -15.7,8.15 -14.85,8.49 -13.99,8.82 -13.11,9.16 -12.21,9.49 -11.3,9.81 -10.38,10.12 -9.44,10.43 -8.5,10.73 -7.54,11.03 -6.58,11.31 -5.61,11.58 -4.63,11.84 -3.64,12.08 -2.66,12.32 -1.67,12.53 -0.67,12.73 0.32,12.92 1.31,13.08 2.3,13.23 3.28,13.35 4.26,13.46 5.23,13.54 6.19,13.6 7.14,13.64 8.08,13.65 9.01,13.64 9.93,13.61 10.83,13.54 11.71,13.45 12.58,13.34 13.42,13.2 14.25,13.03 15.05,12.83 15.84,12.6 16.6,12.35 17.33,12.07 18.04,11.77 18.72,11.44 19.38,11.08 20.01,10.7 20.61,10.29 21.19,9.87 21.73,9.42 22.26,9.12 22.77,8.81 23.25,8.49 23.72,8.15 24.16,7.81 24.59,7.46 24.99,7.1 25.37,6.74 25.73,6.37 26.06,6 26.37,5.62 26.65,5.24 26.91,4.86 27.14,4.48 27.35,4.11" fill="white" stroke="white" stroke-width="0" stroke-linejoin="round" filter="url(#fuzzy)" />
    </g>
    <g transform="translate(46.37 -22.990000000000002)">
      <polyline id="rightUpper" points="-30.8,3.31 -30.9,2.84 -30.97,2.39 -31.01,1.95 -31.02,1.53 -31,1.12 -30.94,0.73 -30.85,0.34 -30.73,-0.04 -30.58,-0.4 -30.39,-0.76 -30.18,-1.1 -29.93,-1.44 -29.65,-1.78 -29.34,-2.1 -28.99,-2.42 -28.62,-2.73 -28.21,-3.03 -27.77,-3.33 -27.31,-3.63 -26.81,-3.92 -26.29,-4.2 -25.74,-4.48 -25.16,-4.75 -24.55,-5.02 -23.92,-5.29 -23.31,-5.55 -22.66,-5.81 -21.96,-6.08 -21.23,-6.34 -20.45,-6.61 -19.63,-6.87 -18.78,-7.13 -17.89,-7.39 -16.97,-7.65 -16.02,-7.9 -15.03,-8.14 -14.03,-8.39 -12.99,-8.62 -11.94,-8.85 -10.87,-9.07 -9.78,-9.27 -8.68,-9.47 -7.56,-9.66 -6.44,-9.84 -5.31,-10 -4.18,-10.15 -3.05,-10.29 -1.91,-10.41 -0.79,-10.51 0.33,-10.61 1.44,-10.68 2.55,-10.74 3.63,-10.78 4.71,-10.81 5.76,-10.82 6.8,-10.81 7.81,-10.78 8.81,-10.74 9.78,-10.68 10.72,-10.6 11.64,-10.5 12.53,-10.39 13.39,-10.26 14.23,-10.12 15.03,-9.96 15.8,-9.78 16.54,-9.59 17.25,-9.39 17.93,-9.18 18.58,-8.95 19.2,-8.71 19.79,-8.46 20.35,-8.2 20.88,-7.93 21.38,-7.66 21.85,-7.37 22.29,-7.08 22.71,-6.78 23.1,-6.46 23.47,-6.14 23.8,-5.81 24.11,-5.47 24.39,-5.12 24.65,-4.76 24.88,-4.4 25.08,-4.03 25.26,-3.66 25.42,-3.28 25.55,-2.89 25.65,-2.5 25.74,-2.1 25.79,-1.7 25.83,-1.29 25.84,-0.88 25.84,-0.47 25.81,-0.05 25.76,0.37 25.69,0.79 25.6,1.22" fill="none" stroke="black" stroke-width="1.6666666666666665" stroke-linejoin="round" filter="url(#fuzzy)" />
      <polyline id="rightLower" points="-31.16,-0.75 -31.22,-0.52 -31.25,-0.28 -31.26,-0.02 -31.23,0.25 -31.17,0.54 -31.08,0.84 -30.96,1.15 -30.81,1.47 -30.63,1.79 -30.42,2.12 -30.18,2.45 -29.91,2.79 -29.61,3.13 -29.28,3.47 -28.92,3.8 -28.53,4.14 -28.12,4.47 -27.67,4.79 -27.2,5.12 -26.71,5.43 -26.19,5.74 -25.64,6.05 -25.07,6.34 -24.47,6.63 -23.85,6.9 -23.24,7.3 -22.58,7.69 -21.89,8.05 -21.17,8.4 -20.4,8.73 -19.61,9.03 -18.78,9.32 -17.92,9.58 -17.03,9.82 -16.11,10.04 -15.16,10.23 -14.2,10.41 -13.21,10.55 -12.19,10.68 -11.16,10.78 -10.12,10.86 -9.06,10.92 -7.99,10.95 -6.91,10.96 -5.82,10.95 -4.73,10.92 -3.63,10.87 -2.53,10.8 -1.43,10.71 -0.33,10.61 0.76,10.48 1.85,10.34 2.92,10.18 3.99,10.01 5.05,9.83 6.1,9.63 7.13,9.41 8.15,9.19 9.15,8.96 10.13,8.71 11.09,8.46 12.04,8.2 12.96,7.93 13.87,7.66 14.75,7.38 15.61,7.1 16.45,6.81 17.26,6.52 18.05,6.23 18.82,5.94 19.57,5.64 20.3,5.35 21,5.05 21.68,4.76 22.34,4.47 22.98,4.18 23.6,3.89 24.2,3.6 24.79,3.31 25.35,3.02 25.9,2.73 26.43,2.45 26.94,2.16 27.43,1.88 27.9,1.6 28.36,1.33 28.8,1.05 29.22,0.78 29.62,0.51 30.01,0.24 30.38,-0.02 30.74,-0.28 31.08,-0.54 31.4,-0.8 31.71,-1.05 32.01,-1.3 32.29,-1.54 32.56,-1.79 32.82,-2.03" fill="none" stroke="black" stroke-width="2.2222222222222223" stroke-linejoin="round" filter="url(#fuzzy)" />
      <circle r="4.534" cx="17.94545315058692" cy="-0.7758910962293657" stroke="black" fill="none" stroke-width="1.0" filter="url(#fuzzy)" clip-path="url(#rightEyeClipPath)" /><circle r="4.348" cx="18.350453150586922" cy="-1.8708910962293657" stroke="black" fill="none" stroke-width="1.0" filter="url(#fuzzy)" clip-path="url(#rightEyeClipPath)" /><circle r="3.166" cx="16.065453150586922" cy="0.9491089037706346" stroke="black" fill="none" stroke-width="1.0" filter="url(#fuzzy)" clip-path="url(#rightEyeClipPath)" /><circle r="4.364" cx="15.660453150586921" cy="2.1841089037706336" stroke="black" fill="none" stroke-width="1.0" filter="url(#fuzzy)" clip-path="url(#rightEyeClipPath)" /><circle r="3.362" cx="15.18045315058692" cy="0.42910890377063415" stroke="black" fill="none" stroke-width="1.0" filter="url(#fuzzy)" clip-path="url(#rightEyeClipPath)" /><circle r="3.792" cx="15.455453150586923" cy="-1.3058910962293657" stroke="black" fill="none" stroke-width="1.0" filter="url(#fuzzy)" clip-path="url(#rightEyeClipPath)" /><circle r="4.534" cx="13.955453150586923" cy="-1.7508910962293658" stroke="black" fill="none" stroke-width="1.0" filter="url(#fuzzy)" clip-path="url(#rightEyeClipPath)" /><circle r="3.41" cx="14.210453150586922" cy="0.26910890377063446" stroke="black" fill="none" stroke-width="1.0" filter="url(#fuzzy)" clip-path="url(#rightEyeClipPath)" /><circle r="3.646" cx="15.355453150586921" cy="1.124108903770634" stroke="black" fill="none" stroke-width="1.0" filter="url(#fuzzy)" clip-path="url(#rightEyeClipPath)" /><circle r="3.408" cx="14.50545315058692" cy="-0.990891096229366" stroke="black" fill="none" stroke-width="1.0" filter="url(#fuzzy)" clip-path="url(#rightEyeClipPath)" />
      </g>
    <g transform="translate(-35.339999999999996 -22.69)">
      <polyline id="leftUpper" points="27.04,6.17 27.19,5.58 27.32,5.01 27.41,4.46 27.47,3.92 27.49,3.41 27.49,2.9 27.45,2.41 27.38,1.94 27.28,1.47 27.15,1.02 26.98,0.57 26.79,0.13 26.56,-0.3 26.3,-0.72 26.01,-1.13 25.69,-1.54 25.34,-1.95 24.96,-2.35 24.54,-2.74 24.11,-3.13 23.64,-3.52 23.14,-3.9 22.62,-4.27 22.07,-4.65 21.5,-5.02 20.95,-5.37 20.35,-5.73 19.71,-6.09 19.04,-6.46 18.32,-6.83 17.57,-7.21 16.78,-7.58 15.96,-7.96 15.1,-8.34 14.21,-8.71 13.3,-9.08 12.35,-9.45 11.38,-9.8 10.39,-10.15 9.38,-10.5 8.35,-10.82 7.31,-11.14 6.25,-11.45 5.19,-11.73 4.11,-12 3.03,-12.26 1.94,-12.49 0.86,-12.71 -0.23,-12.91 -1.31,-13.08 -2.38,-13.23 -3.45,-13.36 -4.51,-13.47 -5.55,-13.55 -6.58,-13.61 -7.6,-13.65 -8.59,-13.66 -9.57,-13.64 -10.52,-13.61 -11.46,-13.54 -12.37,-13.46 -13.25,-13.35 -14.11,-13.22 -14.94,-13.07 -15.74,-12.9 -16.51,-12.7 -17.25,-12.49 -17.96,-12.26 -18.65,-12.01 -19.3,-11.75 -19.92,-11.47 -20.51,-11.18 -21.07,-10.88 -21.6,-10.56 -22.1,-10.24 -22.58,-9.91 -23.02,-9.57 -23.44,-9.22 -23.83,-8.85 -24.19,-8.48 -24.52,-8.09 -24.82,-7.7 -25.1,-7.3 -25.34,-6.89 -25.56,-6.48 -25.76,-6.06 -25.92,-5.63 -26.06,-5.2 -26.17,-4.76 -26.26,-4.32 -26.32,-3.88 -26.35,-3.43 -26.36,-2.98 -26.34,-2.53 -26.3,-2.08 -26.24,-1.63 -26.15,-1.17 -26.05,-0.71 -25.92,-0.26" fill="none" stroke="black" stroke-width="2.2222222222222223" stroke-linejoin="round" filter="url(#fuzzy)" />
      <polyline id="leftLower" points="27.91,0.86 27.99,1.11 28.03,1.39 28.05,1.68 28.03,1.99 27.99,2.32 27.92,2.66 27.82,3.01 27.69,3.37 27.53,3.74 27.35,4.11 27.14,4.48 26.91,4.86 26.65,5.24 26.37,5.62 26.06,6 25.73,6.37 25.37,6.74 24.99,7.1 24.59,7.46 24.16,7.81 23.72,8.15 23.25,8.49 22.77,8.81 22.26,9.12 21.73,9.42 21.19,9.87 20.61,10.29 20.01,10.7 19.38,11.08 18.72,11.44 18.04,11.77 17.33,12.07 16.6,12.35 15.84,12.6 15.05,12.83 14.25,13.03 13.42,13.2 12.58,13.34 11.71,13.45 10.83,13.54 9.93,13.61 9.01,13.64 8.08,13.65 7.14,13.64 6.19,13.6 5.23,13.54 4.26,13.46 3.28,13.35 2.3,13.23 1.31,13.08 0.32,12.92 -0.67,12.73 -1.67,12.53 -2.66,12.32 -3.64,12.08 -4.63,11.84 -5.61,11.58 -6.58,11.31 -7.54,11.03 -8.5,10.73 -9.44,10.43 -10.38,10.12 -11.3,9.81 -12.21,9.49 -13.11,9.16 -13.99,8.82 -14.85,8.49 -15.7,8.15 -16.53,7.81 -17.35,7.47 -18.15,7.12 -18.93,6.78 -19.69,6.44 -20.43,6.09 -21.15,5.75 -21.85,5.41 -22.54,5.07 -23.22,4.73 -23.87,4.39 -24.51,4.05 -25.14,3.71 -25.74,3.37 -26.33,3.04 -26.91,2.7 -27.46,2.37 -28,2.04 -28.52,1.71 -29.03,1.38 -29.51,1.05 -29.98,0.73 -30.43,0.4 -30.87,0.09 -31.29,-0.23 -31.69,-0.55 -32.08,-0.86 -32.45,-1.17 -32.8,-1.48 -33.14,-1.79 -33.46,-2.09" fill="none" stroke="black" stroke-width="2.2222222222222223" stroke-linejoin="round" filter="url(#fuzzy)" />
      <circle r="3.176" cx="-2.433650704622438" cy="-1.8946075707973442" stroke="black" fill="none" stroke-width="1.0" filter="url(#fuzzy)" clip-path="url(#leftEyeClipPath)" /><circle r="4.242" cx="-2.8686507046224383" cy="-1.079607570797344" stroke="black" fill="none" stroke-width="1.0" filter="url(#fuzzy)" clip-path="url(#leftEyeClipPath)" /><circle r="4.244" cx="-4.878650704622438" cy="2.680392429202656" stroke="black" fill="none" stroke-width="1.0" filter="url(#fuzzy)" clip-path="url(#leftEyeClipPath)" /><circle r="4.068" cx="-3.948650704622438" cy="-1.1696075707973441" stroke="black" fill="none" stroke-width="1.0" filter="url(#fuzzy)" clip-path="url(#leftEyeClipPath)" /><circle r="3.466" cx="-2.9836507046224385" cy="1.4703924292026556" stroke="black" fill="none" stroke-width="1.0" filter="url(#fuzzy)" clip-path="url(#leftEyeClipPath)" /><circle r="4.302" cx="-3.7536507046224377" cy="1.4153924292026563" stroke="black" fill="none" stroke-width="1.0" filter="url(#fuzzy)" clip-path="url(#leftEyeClipPath)" /><circle r="4.966" cx="-5.038650704622438" cy="-1.339607570797344" stroke="black" fill="none" stroke-width="1.0" filter="url(#fuzzy)" clip-path="url(#leftEyeClipPath)" /><circle r="4.938" cx="-6.0686507046224385" cy="2.890392429202656" stroke="black" fill="none" stroke-width="1.0" filter="url(#fuzzy)" clip-path="url(#leftEyeClipPath)" /><circle r="4.344" cx="-4.143650704622438" cy="1.5853924292026562" stroke="black" fill="none" stroke-width="1.0" filter="url(#fuzzy)" clip-path="url(#leftEyeClipPath)" /><circle r="3.314" cx="-3.8336507046224377" cy="-0.30960757079734424" stroke="black" fill="none" stroke-width="1.0" filter="url(#fuzzy)" clip-path="url(#leftEyeClipPath)" />
    </g>
    <g id="hairs">
      <polyline points="37.74,-70.88 39.91,-69.5 41.11,-68.65 42.17,-67.81 43.34,-66.83 44.63,-65.73 45.91,-64.66 47.03,-63.73 47.91,-63.01 48.5,-62.54 48.82,-62.29 48.86,-62.26 48.62,-62.46 48.07,-62.93 47.07,-63.79" fill="none" stroke="url(#rainbowGradient)" stroke-width="2" stroke-linejoin="round" filter="url(#fuzzy)" /><polyline points="50.39,-61.14 50.8,-60.5 51.45,-59.83 51.9,-59.27 52.08,-58.87 52.03,-58.63 51.77,-58.54 51.29,-58.59 50.56,-58.79 49.54,-59.14 48.21,-59.66 46.56,-60.37 44.55,-61.31 42.16,-62.52 39.33,-64.05 35.97,-65.95 32.01,-68.23 27.38,-70.89 22.12,-73.93 16.48,-77.23" fill="none" stroke="url(#rainbowGradient)" stroke-width="2" stroke-linejoin="round" filter="url(#fuzzy)" /><polyline points="43.91,-66.22 44.91,-65.41 45.29,-64.79 44.96,-64.45 44.03,-64.29 42.54,-64.25 40.44,-64.31 37.67,-64.54 34.14,-64.97 29.77,-65.63 24.52,-66.53 18.38,-67.67 11.38,-69.05 3.55,-70.65 -5.21,-72.47 -15.14,-74.52" fill="none" stroke="url(#rainbowGradient)" stroke-width="2" stroke-linejoin="round" filter="url(#fuzzy)" /><polyline points="33.68,-73.32 35.37,-72.29 36.12,-71.65 36.29,-71.27 36.09,-71.03 35.62,-70.86 34.84,-70.73 33.71,-70.64 32.17,-70.59 30.19,-70.58 27.71,-70.63 24.68,-70.78 21.06,-71.08 16.77,-71.55 11.79,-72.2 6.1,-72.99 -0.31,-73.91 -7.4,-74.97 -15,-76.29" fill="none" stroke="url(#rainbowGradient)" stroke-width="2" stroke-linejoin="round" filter="url(#fuzzy)" /><polyline points="27.81,-76.3 28.99,-75.59 30.1,-75.03 31.16,-74.5 32.26,-73.93 33.39,-73.33 34.51,-72.7 35.56,-72.1 36.48,-71.55 37.25,-71.09 37.85,-70.72 38.29,-70.44 38.57,-70.26 38.66,-70.16 38.55,-70.16 38.24,-70.25 37.7,-70.46 36.91,-70.8 35.81,-71.33 34.33,-72.1 32.4,-73.14 29.93,-74.45 26.86,-76.03" fill="none" stroke="url(#rainbowGradient)" stroke-width="2" stroke-linejoin="round" filter="url(#fuzzy)" /><polyline points="-5.82,-81.73 -3.5,-81.67 -1.68,-81.57 0.15,-81.38 2.1,-81.1 4.18,-80.72 6.42,-80.26 8.8,-79.73 11.3,-79.16 13.87,-78.56 16.48,-77.95 19.05,-77.36 21.5,-76.83 23.73,-76.37 25.69,-75.98 27.39,-75.66 28.94,-75.34" fill="none" stroke="url(#rainbowGradient)" stroke-width="2" stroke-linejoin="round" filter="url(#fuzzy)" /><polyline points="-19,-79.32 -17.64,-79.56 -16.19,-79.8 -14.66,-80.04 -12.92,-80.26 -11.05,-80.46 -9.19,-80.63 -7.43,-80.76 -5.78,-80.86 -4.18,-80.94 -2.58,-81 -0.95,-81.06 0.66,-81.12 2.19,-81.17 3.55,-81.23 4.65,-81.28 5.46,-81.32 5.96,-81.36 6.14,-81.4 5.99,-81.46 5.55,-81.52 4.88,-81.56" fill="none" stroke="url(#rainbowGradient)" stroke-width="2" stroke-linejoin="round" filter="url(#fuzzy)" /><polyline points="-2.71,-81.9 -0.96,-81.83 0.38,-81.7 1.78,-81.48 3.36,-81.15 5.12,-80.75 7.04,-80.28 9.1,-79.76 11.26,-79.21 13.5,-78.63 15.76,-78.06 18,-77.49 20.19,-76.94 22.31,-76.4 24.34,-75.86 26.25,-75.33 28,-74.8 29.55,-74.31 30.88,-73.88 31.95,-73.57 32.68,-73.44 32.96,-73.5" fill="none" stroke="url(#rainbowGradient)" stroke-width="2" stroke-linejoin="round" filter="url(#fuzzy)" /><polyline points="17.09,-79.83 17.87,-79.56 17.96,-79.22 17.88,-78.73 17.53,-78.1 16.77,-77.36 15.51,-76.5 13.73,-75.5 11.43,-74.34 8.57,-73 5.09,-71.51 0.96,-69.87 -3.86,-68.13 -9.39,-66.27 -15.63,-64.27 -22.61,-62.09 -30.37,-59.7 -38.97,-57.11 -48.39,-54.48" fill="none" stroke="url(#rainbowGradient)" stroke-width="2" stroke-linejoin="round" filter="url(#fuzzy)" /><polyline points="-17.87,-79.55 -16.4,-79.84 -15.33,-80.12 -14.1,-80.39 -12.79,-80.64 -11.67,-80.83 -10.84,-80.97 -10.31,-81.05 -10.01,-81.08 -9.86,-81.04 -9.86,-80.95 -10.02,-80.8 -10.42,-80.57 -11.15,-80.28 -12.3,-79.9 -13.94,-79.41 -16.12,-78.8 -18.84,-78.06 -21.99,-77.21 -25.29,-76.35" fill="none" stroke="url(#rainbowGradient)" stroke-width="2" stroke-linejoin="round" filter="url(#fuzzy)" /><polyline points="-15.49,-80.24 -14.45,-80.4 -12.71,-80.68 -11.3,-80.9 -10.28,-81.07 -9.51,-81.2 -8.84,-81.3 -8.19,-81.37 -7.56,-81.4 -6.98,-81.4 -6.54,-81.37 -6.33,-81.29 -6.43,-81.16 -6.89,-80.97 -7.73,-80.7 -8.92,-80.37 -10.47,-79.96 -12.37,-79.48 -14.68,-78.91 -17.48,-78.25 -20.84,-77.45 -24.76,-76.49" fill="none" stroke="url(#rainbowGradient)" stroke-width="2" stroke-linejoin="round" filter="url(#fuzzy)" /><polyline points="62.33,-46.7 62.67,-45.77 62.43,-45.53 61.92,-45.49 61.06,-45.67 59.71,-46.15 57.81,-46.94 55.32,-48.09 52.19,-49.65 48.39,-51.66 43.88,-54.19 38.66,-57.26 32.7,-60.9 25.98,-65.17 18.43,-70.12 10.02,-75.7" fill="none" stroke="url(#rainbowGradient)" stroke-width="2" stroke-linejoin="round" filter="url(#fuzzy)" /><polyline points="43.91,-66.22 45.07,-65.37 45.92,-64.67 46.37,-64.2 46.58,-63.86 46.59,-63.6 46.39,-63.43 45.88,-63.4 45,-63.56 43.68,-63.94 41.9,-64.56 39.64,-65.42 36.92,-66.52 33.71,-67.85 29.98,-69.44 25.68,-71.31 20.81,-73.47 15.41,-75.89 9.49,-78.61" fill="none" stroke="url(#rainbowGradient)" stroke-width="2" stroke-linejoin="round" filter="url(#fuzzy)" /><polyline points="-39.8,-69.76 -39.18,-70.04 -38.12,-70.59 -36.83,-71.3 -35.52,-72.03 -34.28,-72.73 -33.11,-73.36 -32.02,-73.94 -31.03,-74.44 -30.2,-74.85 -29.6,-75.14 -29.26,-75.3 -29.17,-75.33 -29.32,-75.23 -29.72,-74.98 -30.43,-74.56 -31.53,-73.93 -33.1,-73.07 -35.09,-72.02 -37.38,-70.88" fill="none" stroke="url(#rainbowGradient)" stroke-width="2" stroke-linejoin="round" filter="url(#fuzzy)" /><polyline points="-15.69,-79.85 -14.98,-79.96 -12.91,-79.76 -9.88,-79.28 -6.39,-78.51 -2.63,-77.47 1.4,-76.2 5.8,-74.75 10.63,-73.14 15.95,-71.37 21.7,-69.44 27.79,-67.37 34.04,-65.2 40.32,-62.93 46.75,-60.4" fill="none" stroke="url(#rainbowGradient)" stroke-width="2" stroke-linejoin="round" filter="url(#fuzzy)" /><polyline points="33.68,-73.32 35.48,-72.26 36.53,-71.56 37.24,-71.08 37.81,-70.71 38.3,-70.37 38.72,-70.05 39.04,-69.75 39.21,-69.47 39.24,-69.22 39.09,-69.03 38.72,-68.94 38.08,-68.99 37.12,-69.22 35.8,-69.62 34.11,-70.19 32.02,-70.92 29.53,-71.81 26.62,-72.89 23.27,-74.16 19.39,-75.68 14.97,-77.46 10.15,-79.45" fill="none" stroke="url(#rainbowGradient)" stroke-width="2" stroke-linejoin="round" filter="url(#fuzzy)" /><polyline points="-26.36,-76.89 -24.91,-77.27 -23.61,-77.69 -22.44,-78.08 -21.24,-78.47 -19.97,-78.85 -18.7,-79.22 -17.51,-79.55 -16.45,-79.82 -15.55,-80.04 -14.83,-80.2 -14.33,-80.29 -14.11,-80.29 -14.25,-80.21 -14.76,-80.03 -15.62,-79.76 -16.81,-79.39 -18.33,-78.91 -20.24,-78.29 -22.65,-77.51 -25.65,-76.55" fill="none" stroke="url(#rainbowGradient)" stroke-width="2" stroke-linejoin="round" filter="url(#fuzzy)" /><polyline points="56.96,-53.91 58.02,-52.32 58.87,-50.98 59.39,-50.13 59.61,-49.65 59.54,-49.47 59.14,-49.6 58.37,-50.09 57.23,-50.96 55.73,-52.2 53.83,-53.85 51.46,-55.94 48.54,-58.52 45.03,-61.63 40.91,-65.34 36.09,-69.78" fill="none" stroke="url(#rainbowGradient)" stroke-width="2" stroke-linejoin="round" filter="url(#fuzzy)" /><polyline points="-8.17,-81.35 -5.77,-81.55 -3.59,-81.56 -1.68,-81.48 0.09,-81.33 1.83,-81.11 3.59,-80.84 5.41,-80.52 7.3,-80.15 9.26,-79.76 11.27,-79.34 13.31,-78.9 15.36,-78.46 17.36,-78.04 19.26,-77.65 21,-77.31 22.58,-77.02 23.95,-76.78 25.13,-76.57 26.08,-76.4 26.75,-76.29 27.11,-76.27 27.21,-76.35" fill="none" stroke="url(#rainbowGradient)" stroke-width="2" stroke-linejoin="round" filter="url(#fuzzy)" /><polyline points="-5.82,-81.73 -3.51,-81.69 -1.71,-81.62 0.1,-81.47 2,-81.25 3.99,-80.96 6.09,-80.62 8.27,-80.25 10.5,-79.86 12.75,-79.46 14.95,-79.08 17.04,-78.73 18.91,-78.44 20.43,-78.23 21.51,-78.12 22.35,-78.03" fill="none" stroke="url(#rainbowGradient)" stroke-width="2" stroke-linejoin="round" filter="url(#fuzzy)" /><polyline points="24.49,-77.51 26.22,-76.71 26.73,-76.15 26.46,-75.65 25.47,-75.16 23.76,-74.66 21.33,-74.13 18.14,-73.56 14.14,-72.92 9.23,-72.24 3.33,-71.54 -3.63,-70.87 -11.64,-70.23 -20.67,-69.58 -30.81,-68.76" fill="none" stroke="url(#rainbowGradient)" stroke-width="2" stroke-linejoin="round" filter="url(#fuzzy)" /><polyline points="-37.05,-71.14 -35.23,-71.83 -32.98,-72.11 -29.93,-72.11 -26.06,-71.9 -21.44,-71.52 -16.2,-70.97 -10.46,-70.23 -4.24,-69.3 2.52,-68.2 9.84,-66.96 17.67,-65.61 25.91,-64.11 34.5,-62.41 43.45,-60.55" fill="none" stroke="url(#rainbowGradient)" stroke-width="2" stroke-linejoin="round" filter="url(#fuzzy)" /><polyline points="63.34,-44.82 63.13,-44.94 63.48,-44.34 63.94,-43.63 64.28,-42.98 64.48,-42.43 64.51,-41.98 64.38,-41.69 64.06,-41.6 63.52,-41.77 62.75,-42.24 61.72,-43.06 60.4,-44.24 58.79,-45.8 56.89,-47.73 54.7,-50.02 52.22,-52.67 49.46,-55.69 46.41,-59.13 42.95,-63.12 38.87,-67.8" fill="none" stroke="url(#rainbowGradient)" stroke-width="2" stroke-linejoin="round" filter="url(#fuzzy)" /><polyline points="-11.07,-81.05 -10.56,-81.03 -9.86,-81.12 -9.17,-81.24 -8.4,-81.35 -7.5,-81.45 -6.47,-81.54 -5.4,-81.61 -4.38,-81.67 -3.53,-81.71 -2.9,-81.73 -2.52,-81.72 -2.4,-81.67 -2.54,-81.58 -2.96,-81.46 -3.71,-81.29 -4.83,-81.08 -6.33,-80.82 -8.19,-80.52 -10.43,-80.18 -13.15,-79.81 -16.48,-79.41" fill="none" stroke="url(#rainbowGradient)" stroke-width="2" stroke-linejoin="round" filter="url(#fuzzy)" /><polyline points="38.4,-70.31 38.67,-70.15 39.22,-69.54 39.32,-68.93 39.01,-68.3 38.36,-67.58 37.36,-66.81 35.95,-66.03 34.05,-65.29 31.63,-64.61 28.65,-63.98 25.13,-63.37 21.05,-62.76 16.4,-62.17 11.16,-61.58 5.28,-61.01 -1.27,-60.43 -8.5,-59.8 -16.42,-59.1 -25,-58.36 -34.22,-57.61 -44.05,-56.99" fill="none" stroke="url(#rainbowGradient)" stroke-width="2" stroke-linejoin="round" filter="url(#fuzzy)" /><polyline points="36.96,-71.22 37.39,-70.87 37.5,-70.65 37.38,-70.41 36.95,-70.18 36.07,-69.99 34.67,-69.85 32.75,-69.76 30.29,-69.72 27.22,-69.8 23.43,-70.04 18.85,-70.48 13.46,-71.11 7.28,-71.92 0.34,-72.89 -7.45,-74.02 -16.3,-75.32" fill="none" stroke="url(#rainbowGradient)" stroke-width="2" stroke-linejoin="round" filter="url(#fuzzy)" />
    </g>
    
        <g id="lineNose">
        <path d="M -10.57,26.68 Q 9.21, 30.765 -0.6799999999999997, -4.224" fill="none" stroke="black" stroke-width="3" stroke-linejoin="round" filter="url(#fuzzy)"></path>
        </g>
      
    <g id="mouth">
      <polyline points="19.79,44.52 19.82,44.41 19.5,44.95 19.62,44.71 19.64,45.32 19.33,45.85 19.13,46.72 19.37,46 19.12,46.52 18.72,47.28 18.1,48.28 17.72,48.46 17.57,48.83 16.6,49.61 16.55,49.85 16.19,50.01 16.54,49.77 14.63,51.26 15.15,50.81 15.05,50.83 14.93,51.06 13.25,52.16 13.18,52.08 11.75,52.91 11.93,52.9 9.31,54.08 9.96,53.77 8.31,54.61 8.3,54.55 6.88,55.17 8.06,54.68 6.63,55.22 3.59,56.31 3.7,56.31 3.82,56.24 0.74,57.17 3.19,56.45 1.66,56.92 -1.99,57.91 -2.6,58.06 -3.56,58.28 -2.02,57.93 -2.41,58.02 -5.68,58.72 -5.52,58.68 -9.14,59.34 -7.92,59.13 -8.99,59.31 -12.22,59.78 -12.32,59.79 -14.25,60.01 -13.9,59.97 -13.17,59.89 -15.66,60.15 -17.38,60.29 -18.83,60.39 -20.81,60.47 -19.71,60.42 -20.32,60.46 -20.92,60.47 -25.18,60.51 -22.47,60.53 -25.44,60.48 -25.53,60.49 -27.59,60.44 -27.28,60.44 -30.01,60.26 -30.38,60.23 -30.54,60.24 -32.31,60.06 -31.78,60.12 -35.14,59.64 -35.8,59.55 -34.76,59.73 -36.8,59.32 -35.74,59.51 -37.76,59.07 -38.57,58.89 -39.79,58.47 -40.17,58.41 -40.69,58.26 -42.18,57.63 -40.93,58.17 -43.24,57.21 -43.77,56.94 -43.93,56.83 -44.29,56.54 -43.69,56.88 -44.21,56.61 -44.88,56.23 -46.36,55.03 -45.69,55.62 -46.73,54.92 -47.08,54.13 -46.69,54.77 -47.44,53.67 -47.69,53.32 -47.68,52.95 -47.82,52.47 -48.01,51.87 -48.02,51.5 -48.1,51.73 -47.93,51.21 -48.15,51.1 -48.16,50.73 -47.82,50.2 -47.72,50.05 -47.63,49.2 -47.36,49.03 -46.84,48.26 -46.75,48.01 -46.56,47.97 -46.15,47.34 -46.4,47.47 -45.94,46.96 -45.47,46.77 -43.92,45.41 -44.56,45.78 -44.76,45.89 -44.07,45.48 -42.56,44.48 -42.73,44.59 -40.16,43.05 -39.43,42.69 -39.9,42.82 -39.41,42.66 -39.15,42.53 -38.66,42.29 -37.59,41.83 -36.64,41.39 -35.73,41.05 -35.96,41.07 -32.67,39.87 -32.32,39.82 -32.99,40.01 -32.22,39.73 -31.32,39.5 -28.73,38.71 -27.31,38.36 -25.74,37.97 -26.01,38.03 -26.98,38.26 -24.22,37.64 -23.09,37.38 -24.11,37.59 -22.28,37.23 -20.01,36.82 -18.15,36.53 -17.52,36.44 -17.24,36.41 -13.77,35.99 -15.3,36.16 -13.68,35.98 -13.78,35.99 -13.09,35.92 -11.57,35.79 -8.73,35.6 -7.79,35.57 -7.4,35.55 -6.39,35.52 -5.85,35.53 -3.09,35.52 -2.95,35.51 -3.65,35.51 -1.21,35.55 -1.02,35.58 2.67,35.84 1.77,35.77 1.53,35.74 3.88,35.99 5.2,36.12 5.28,36.12 5.91,36.2 5.74,36.16 7.39,36.51 8.41,36.73 10.89,37.23 9.29,36.9 11.25,37.4 11.53,37.47 12.72,37.82 13.41,38.15 12.86,37.93 15.14,38.9 14.26,38.39 14.63,38.57 16.59,39.75 15.75,39.32 16.81,39.75 17.21,40.17 17.96,40.89 17.72,40.71 18.2,40.9 18.2,41.03 19.01,42.24 18.69,41.47 19.38,42.94 19.46,43.43 19.5,42.96 19.38,43.11" fill="rgb(215,127,140)" stroke="black" stroke-width="3" stroke-linejoin="round" filter="url(#fuzzy)" />
    </g>
  </svg>