<svg viewBox="-100 -100 200 200" xmlns="http://www.w3.org/2000/svg" width="500" height="500" id="face-svg">
    <defs>
      <clipPath id="leftEyeClipPath">
        <polyline points="28.03,-4.83 27.8,-5.22 27.54,-5.62 27.27,-6.02 26.97,-6.43 26.65,-6.85 26.31,-7.26 25.95,-7.68 25.56,-8.09 25.14,-8.51 24.71,-8.92 24.25,-9.32 23.76,-9.72 23.26,-10.11 22.73,-10.5 22.17,-10.87 21.68,-11.41 21.15,-11.93 20.57,-12.43 19.95,-12.91 19.29,-13.37 18.6,-13.8 17.86,-14.2 17.08,-14.58 16.27,-14.94 15.42,-15.26 14.54,-15.55 13.63,-15.82 12.69,-16.05 11.72,-16.25 10.72,-16.43 9.7,-16.57 8.66,-16.68 7.6,-16.77 6.53,-16.82 5.44,-16.84 4.33,-16.84 3.22,-16.81 2.1,-16.75 0.97,-16.66 -0.16,-16.55 -1.29,-16.41 -2.42,-16.25 -3.55,-16.06 -4.67,-15.85 -5.79,-15.63 -6.89,-15.38 -7.99,-15.11 -9.07,-14.83 -10.15,-14.52 -11.2,-14.21 -12.24,-13.88 -13.27,-13.54 -14.27,-13.18 -15.25,-12.82 -16.22,-12.44 -17.16,-12.06 -18.08,-11.67 -18.98,-11.27 -19.86,-10.88 -20.71,-10.47 -21.54,-10.07 -22.35,-9.66 -23.14,-9.25 -23.9,-8.85 -24.64,-8.44 -25.36,-8.04 -26.06,-7.63 -26.75,-7.22 -27.41,-6.82 -28.05,-6.41 -28.67,-6.01 -29.27,-5.6 -29.86,-5.2 -30.42,-4.8 -30.97,-4.4 -31.49,-4.01 -32,-3.62 -32.49,-3.23 -32.96,-2.84 -32.82,10.8 -32.34,11.22 -31.84,11.64 -31.32,12.05 -30.78,12.46 -30.22,12.86 -29.64,13.26 -29.05,13.65 -28.43,14.03 -27.8,14.4 -27.15,14.76 -26.48,15.11 -25.79,15.45 -25.08,15.77 -24.35,16.08 -23.6,16.37 -22.83,16.66 -22.03,16.93 -21.22,17.19 -20.38,17.43 -19.52,17.65 -18.64,17.85 -17.74,18.03 -16.81,18.18 -15.86,18.31 -14.9,18.41 -13.91,18.48 -12.9,18.52 -11.88,18.53 -10.84,18.5 -9.78,18.45 -8.71,18.36 -7.63,18.24 -6.54,18.09 -5.44,17.91 -4.33,17.7 -3.21,17.45 -2.09,17.18 -0.97,16.88 0.16,16.55 1.28,16.19 2.4,15.81 3.51,15.41 4.61,14.99 5.7,14.55 6.78,14.09 7.85,13.62 8.9,13.14 9.93,12.66 10.93,12.16 11.92,11.66 12.88,11.17 13.81,10.67 14.71,10.18 15.58,9.7 16.42,9.24 17.22,8.78 17.98,8.34 18.71,7.92 19.4,7.53 20.05,7.15 20.66,6.8 21.23,6.48 21.76,6.19 22.25,5.93 22.8,5.59 23.32,5.25 23.82,4.93 24.3,4.61 24.76,4.31 25.19,4.02 25.59,3.74 25.98,3.47 26.34,3.21 26.68,2.96 27,2.72 27.29,2.5 27.56,2.28 27.81,2.07 28.04,1.86" />
      </clipPath>
      <clipPath id="rightEyeClipPath">
        <polyline points="-24.95,-6.61 -24.74,-6.99 -24.51,-7.38 -24.26,-7.79 -23.99,-8.2 -23.7,-8.62 -23.4,-9.05 -23.07,-9.49 -22.73,-9.92 -22.37,-10.36 -21.99,-10.81 -21.59,-11.25 -21.17,-11.69 -20.73,-12.13 -20.27,-12.56 -19.79,-13 -19.35,-13.55 -18.87,-14.1 -18.36,-14.63 -17.82,-15.16 -17.25,-15.68 -16.65,-16.18 -16.01,-16.67 -15.34,-17.14 -14.65,-17.59 -13.92,-18.02 -13.16,-18.43 -12.38,-18.82 -11.57,-19.18 -10.73,-19.51 -9.87,-19.82 -8.98,-20.1 -8.08,-20.35 -7.15,-20.57 -6.2,-20.77 -5.24,-20.93 -4.26,-21.07 -3.26,-21.17 -2.26,-21.24 -1.24,-21.28 -0.21,-21.3 0.82,-21.28 1.87,-21.23 2.91,-21.16 3.96,-21.05 5.01,-20.92 6.06,-20.76 7.11,-20.58 8.16,-20.37 9.2,-20.14 10.24,-19.88 11.26,-19.6 12.28,-19.3 13.29,-18.98 14.29,-18.65 15.28,-18.29 16.25,-17.93 17.21,-17.54 18.15,-17.15 19.08,-16.74 19.99,-16.33 20.89,-15.91 21.76,-15.48 22.62,-15.05 23.46,-14.61 24.28,-14.18 25.08,-13.74 25.87,-13.29 26.64,-12.84 27.4,-12.39 28.14,-11.94 28.86,-11.48 29.57,-11.02 30.26,-10.56 30.94,-10.11 31.59,-9.65 32.23,-9.19 32.86,-8.74 33.46,-8.28 34.05,-7.83 34.31,13.01 33.75,13.61 33.16,14.22 32.56,14.81 31.94,15.41 31.3,15.99 30.65,16.57 29.98,17.13 29.29,17.69 28.58,18.23 27.86,18.75 27.12,19.26 26.36,19.75 25.59,20.22 24.8,20.67 23.99,21.1 23.16,21.51 22.32,21.91 21.45,22.29 20.56,22.64 19.66,22.97 18.74,23.26 17.8,23.52 16.84,23.74 15.87,23.92 14.88,24.07 13.88,24.17 12.87,24.22 11.85,24.23 10.81,24.2 9.77,24.12 8.72,23.99 7.66,23.81 6.6,23.59 5.53,23.32 4.46,23 3.4,22.64 2.33,22.23 1.27,21.78 0.21,21.3 -0.84,20.77 -1.88,20.21 -2.91,19.62 -3.93,19 -4.93,18.35 -5.92,17.68 -6.89,16.98 -7.85,16.28 -8.78,15.56 -9.69,14.83 -10.57,14.1 -11.43,13.37 -12.27,12.65 -13.07,11.93 -13.85,11.23 -14.6,10.54 -15.31,9.88 -16,9.24 -16.65,8.64 -17.26,8.07 -17.84,7.53 -18.39,7.04 -18.91,6.58 -19.39,6.18 -19.83,5.82 -20.32,5.33 -20.78,4.87 -21.23,4.43 -21.66,4 -22.06,3.59 -22.45,3.2 -22.81,2.84 -23.16,2.49 -23.48,2.16 -23.79,1.86 -24.08,1.57 -24.34,1.3 -24.59,1.05 -24.82,0.82 -25.03,0.6" />
      </clipPath>
      <filter id="fuzzy">
        <feTurbulence id="turbulence" baseFrequency="0.05" numOctaves="3" type="noise" result="noise" />
        <feDisplacementMap in="SourceGraphic" in2="noise" scale="2" />
      </filter>
      <linearGradient id="rainbowGradient" x1="0%" y1="0%" x2="100%" y2="0%">
        <stop offset="0%" style="stop-color: [object Object]; stop-opacity: 1" />
        <stop offset="50%" style="stop-color: [object Object]; stop-opacity: 1" />
        <stop offset="100%" style="stop-color: [object Object]; stop-opacity: 1" />
      </linearGradient>
    </defs>
    <rect x="-100" y="-100" width="100%" height="100%" fill="rgb(112, 66, 20)" />
    <polyline id="faceContour" points="72.63,-1.32 73.02,0.03 72.64,0.76 72.7,4.84 72.41,6.17 72.58,7.37 72.48,9.08 72.56,7.63 72.1,11.67 72.28,11.62 72.1,13.23 71.71,14.87 71.52,16.39 71.64,16.2 71.1,17.55 70.95,19.5 70.37,21.95 70.66,21.05 69.61,25.8 70.17,23.94 69.36,26.66 68.47,30.08 68.41,30.15 68.07,31.15 67.66,31.98 67.64,32.04 66.99,33.95 66.33,35.78 65.62,37.88 65.47,37.92 64.72,38.95 64.95,39.75 63.27,42.6 64.2,40.89 62.44,44.85 61.93,45.05 60.95,47.02 60.38,48.37 59.19,50.55 59.98,48.99 59.11,50.52 57.3,53 56.02,55.03 56.41,54.29 56.06,55.2 56.13,55.44 54.92,57.01 53.01,59.27 54.02,58.13 52.29,60.63 52.17,60.3 50.1,62.83 49.51,63.5 48.5,64.74 46.6,66.36 46.41,66.63 46.72,66.24 46.74,65.99 43.69,69.11 44,68.99 42.99,69.57 43.44,69.37 41.37,71.39 40.38,72.31 39.04,73.06 38.68,73.17 36.89,74.57 35.49,75.61 35.22,75.65 34.51,76.2 34.25,76.42 32.59,77.19 31.62,77.86 29.66,79.06 27.62,80.26 27.85,79.56 27.78,80.04 25.62,80.63 23.27,81.97 23.46,81.72 22.77,81.98 20.56,82.8 19.88,83.1 19.58,83.32 18.33,83.63 18.55,83.93 16.82,84.42 16.18,84.3 14.16,84.76 12.94,84.99 12.86,85.31 9.86,85.82 8.48,86.07 8.15,86.2 5.08,86.3 7.16,86.12 5.07,86.23 4.44,86.53 2.11,86.46 2.38,86.51 0.1,86.69 -1.16,86.65 -2.07,86.41 -2.44,86.45 -4.53,86.49 -6.76,85.93 -6.97,85.89 -8.92,85.96 -9.22,85.8 -10.5,85.72 -12.24,85.34 -12.5,85.33 -13.58,84.94 -16.03,84.53 -14.29,84.77 -17.6,83.82 -17.23,84.03 -18.22,83.72 -20.16,83.04 -20.88,82.88 -21.83,82.51 -22.22,82.38 -24.15,81.44 -24.96,81.05 -26.6,80.68 -28.15,79.83 -27.94,79.69 -29.78,78.72 -31.56,78 -32.38,77.66 -33.85,76.57 -33.1,77.16 -36.19,74.96 -37.09,74.43 -36,75.26 -38.59,73.45 -39.48,72.76 -39.41,72.96 -40.7,71.33 -40.88,71.1 -42.34,70.22 -44.58,68.77 -44.18,68.71 -46.53,66.42 -45.73,67.14 -46.37,67.08 -47.23,65.8 -50.05,62.65 -50.28,63 -49.19,63.98 -52.61,59.75 -52.53,60.07 -52.2,60.55 -54.47,57.37 -54.83,56.69 -56.34,54.78 -56.13,55.23 -57.99,52.28 -57.5,52.54 -57.19,52.97 -58.07,51.72 -59.12,50.28 -60.99,46.66 -60.7,47.94 -61.65,46.12 -61.23,46.6 -62.9,43.52 -62.74,43.47 -63.84,41.64 -64.09,41.16 -64.26,39.93 -65.52,37.63 -65.78,36.75 -66.02,35.94 -67.27,33.78 -67.91,31 -67.35,31.79 -68.25,30.53 -68.53,29.28 -68.74,27.88 -69.02,27.34 -69.69,24.86 -70.24,24.13 -70.6,22.15 -70.91,20.34 -70.72,21.43 -71.2,18.7 -71.46,16.68 -71.81,14.74 -71.8,13.69 -71.65,13.89 -72.05,12.64 -71.95,13.15 -72.14,10.27 -72.63,9.13 -72.62,7.03 -72.74,5.56 -72.58,2.68 -72.58,1.7 -72.77,1.64 -72.8,1.07 -72.6,0.6 -72.6,-2.06 -72.81,-5.8 -72.49,-4.25 -72.57,-7.06 -72.43,-7.05 -72.54,-9.5 -72.33,-10.96 -71.97,-13.38 -71.91,-13.24 -71.79,-15.36 -71.14,-17.1 -71.14,-17.19 -70.86,-20.09 -70.54,-19.93 -70.51,-21.24 -70.02,-24.06 -70.38,-22.36 -69.48,-25.59 -69.3,-26.75 -68.97,-28.1 -68.65,-28.33 -68.06,-31.14 -67.18,-32.87 -67.03,-33.81 -67.02,-33.88 -66.6,-35.68 -65.93,-36.86 -65.61,-37.24 -64.71,-40 -64.27,-40.99 -64.07,-41.5 -63.05,-42.9 -62.66,-44.32 -62.06,-45.58 -61.16,-46.83 -61.01,-47.15 -60.11,-49.03 -60.56,-48.3 -59.23,-50.47 -58.05,-51.79 -56.98,-53.93 -56.65,-53.72 -55.59,-55.6 -56.63,-54.65 -54.78,-56.97 -54.52,-57.27 -53.52,-59.04 -53.13,-59.21 -52.41,-59.92 -50.59,-62.18 -50.74,-62.32 -48.74,-64.4 -47.89,-65.11 -46.9,-66.08 -45.95,-66.73 -46.49,-66.55 -43.09,-69.75 -44.13,-68.65 -41.27,-71.18 -41.87,-71.13 -40.49,-71.63 -40.19,-72 -38.79,-72.91 -38.25,-73.58 -37.18,-74.44 -37.54,-74.21 -35.09,-75.61 -33.5,-76.33 -33.93,-76.66 -31.5,-78.12 -32.49,-77.46 -30.26,-78.57 -28.06,-79.83 -29.66,-78.97 -26.7,-80.09 -24.59,-81.06 -26.04,-80.79 -24.61,-81.63 -22.69,-82.07 -22.05,-82.63 -18.96,-83.34 -18.71,-83.59 -19.2,-83.3 -17.16,-83.98 -15.36,-84.44 -15.09,-84.74 -13.79,-85.12 -12.34,-85.05 -12.3,-85.49 -9.1,-85.75 -8.7,-86.03 -6.97,-86.05 -7.18,-86.19 -7,-86.09 -5.01,-86.18 -5.51,-86.14 -2.2,-86.48 -1.13,-86.53 -0.66,-86.49 1.77,-86.62 1.85,-86.32 3.71,-86.3 2.81,-86.25 4.64,-86.23 6.78,-86 7.3,-86.08 7.58,-85.83 11.17,-85.46 12.5,-85.25 12.92,-85.15 15.41,-84.35 13.61,-84.83 15.33,-84.54 17.82,-84.11 17.53,-83.97 20.25,-83.01 19.68,-83.36 21.83,-82.74 24.02,-81.64 23.61,-81.9 24.98,-81.24 26.22,-80.74 26.61,-80.49 26.61,-80.63 29.4,-79.16 28.64,-79.43 30.63,-78.56 31.08,-78.22 33.73,-76.9 33.87,-76.41 34.83,-75.88 36.44,-74.87 38.08,-73.44 37.02,-74.44 38.47,-73.66 39.21,-72.78 40.91,-71.96 42.09,-70.68 43.91,-68.82 42.89,-69.91 45.58,-67.16 45.43,-67.14 46.75,-66.29 48.24,-65.05 47.61,-65.54 49.9,-62.92 50.17,-62.5 50.31,-63.07 51.39,-61.44 52.34,-60.15 52.91,-59.38 54.1,-57.76 53.71,-58.01 54.9,-56.85 57.08,-53.96 57.74,-52.84 57.3,-53.87 58.25,-51.82 58.03,-52.41 59.56,-49.82 60.08,-49.08 60.36,-48.06 60.52,-47.86 61.72,-45.21 63.22,-42.55 63.49,-42.62 63.86,-41.25 64.72,-39.83 64.84,-38.55 65.78,-37.57 65.74,-37.05 66.27,-36.48 66.69,-34.64 67.36,-32.6 67.46,-32.39 67.51,-31.72 68.36,-29.3 68.59,-27.98 69.03,-27.42 69.84,-24.92 69.83,-25.24 70.43,-22.61 70.51,-21.76 70.82,-20.29 71.37,-18.22 70.96,-18.4 71.46,-17.48 71.85,-14.27 71.9,-14.04 71.66,-13.73 72.11,-12.43 72.35,-8.97 72.82,-6.89 72.84,-5.16 72.79,-5.75 72.66,-3.17 72.93,-2.03 72.66,-2.56 72.63,-1.32 73.02,0.03" fill="rgb(128, 128, 0)" stroke="black" stroke-width="1.6666666666666665" stroke-linejoin="round" filter="url(#fuzzy)" />
    <g transform="translate(49.41 -28.310000000000002)">
      <polyline id="rightCountour" points="-24.95,-6.61 -24.74,-6.99 -24.51,-7.38 -24.26,-7.79 -23.99,-8.2 -23.7,-8.62 -23.4,-9.05 -23.07,-9.49 -22.73,-9.92 -22.37,-10.36 -21.99,-10.81 -21.59,-11.25 -21.17,-11.69 -20.73,-12.13 -20.27,-12.56 -19.79,-13 -19.35,-13.55 -18.87,-14.1 -18.36,-14.63 -17.82,-15.16 -17.25,-15.68 -16.65,-16.18 -16.01,-16.67 -15.34,-17.14 -14.65,-17.59 -13.92,-18.02 -13.16,-18.43 -12.38,-18.82 -11.57,-19.18 -10.73,-19.51 -9.87,-19.82 -8.98,-20.1 -8.08,-20.35 -7.15,-20.57 -6.2,-20.77 -5.24,-20.93 -4.26,-21.07 -3.26,-21.17 -2.26,-21.24 -1.24,-21.28 -0.21,-21.3 0.82,-21.28 1.87,-21.23 2.91,-21.16 3.96,-21.05 5.01,-20.92 6.06,-20.76 7.11,-20.58 8.16,-20.37 9.2,-20.14 10.24,-19.88 11.26,-19.6 12.28,-19.3 13.29,-18.98 14.29,-18.65 15.28,-18.29 16.25,-17.93 17.21,-17.54 18.15,-17.15 19.08,-16.74 19.99,-16.33 20.89,-15.91 21.76,-15.48 22.62,-15.05 23.46,-14.61 24.28,-14.18 25.08,-13.74 25.87,-13.29 26.64,-12.84 27.4,-12.39 28.14,-11.94 28.86,-11.48 29.57,-11.02 30.26,-10.56 30.94,-10.11 31.59,-9.65 32.23,-9.19 32.86,-8.74 33.46,-8.28 34.05,-7.83 34.31,13.01 33.75,13.61 33.16,14.22 32.56,14.81 31.94,15.41 31.3,15.99 30.65,16.57 29.98,17.13 29.29,17.69 28.58,18.23 27.86,18.75 27.12,19.26 26.36,19.75 25.59,20.22 24.8,20.67 23.99,21.1 23.16,21.51 22.32,21.91 21.45,22.29 20.56,22.64 19.66,22.97 18.74,23.26 17.8,23.52 16.84,23.74 15.87,23.92 14.88,24.07 13.88,24.17 12.87,24.22 11.85,24.23 10.81,24.2 9.77,24.12 8.72,23.99 7.66,23.81 6.6,23.59 5.53,23.32 4.46,23 3.4,22.64 2.33,22.23 1.27,21.78 0.21,21.3 -0.84,20.77 -1.88,20.21 -2.91,19.62 -3.93,19 -4.93,18.35 -5.92,17.68 -6.89,16.98 -7.85,16.28 -8.78,15.56 -9.69,14.83 -10.57,14.1 -11.43,13.37 -12.27,12.65 -13.07,11.93 -13.85,11.23 -14.6,10.54 -15.31,9.88 -16,9.24 -16.65,8.64 -17.26,8.07 -17.84,7.53 -18.39,7.04 -18.91,6.58 -19.39,6.18 -19.83,5.82 -20.32,5.33 -20.78,4.87 -21.23,4.43 -21.66,4 -22.06,3.59 -22.45,3.2 -22.81,2.84 -23.16,2.49 -23.48,2.16 -23.79,1.86 -24.08,1.57 -24.34,1.3 -24.59,1.05 -24.82,0.82 -25.03,0.6" fill="white" stroke="white" stroke-width="0" stroke-linejoin="round" filter="url(#fuzzy)" />
    </g>
    <g transform="translate(-35.55 -25.77)">
      <polyline id="leftCountour" points="28.03,-4.83 27.8,-5.22 27.54,-5.62 27.27,-6.02 26.97,-6.43 26.65,-6.85 26.31,-7.26 25.95,-7.68 25.56,-8.09 25.14,-8.51 24.71,-8.92 24.25,-9.32 23.76,-9.72 23.26,-10.11 22.73,-10.5 22.17,-10.87 21.68,-11.41 21.15,-11.93 20.57,-12.43 19.95,-12.91 19.29,-13.37 18.6,-13.8 17.86,-14.2 17.08,-14.58 16.27,-14.94 15.42,-15.26 14.54,-15.55 13.63,-15.82 12.69,-16.05 11.72,-16.25 10.72,-16.43 9.7,-16.57 8.66,-16.68 7.6,-16.77 6.53,-16.82 5.44,-16.84 4.33,-16.84 3.22,-16.81 2.1,-16.75 0.97,-16.66 -0.16,-16.55 -1.29,-16.41 -2.42,-16.25 -3.55,-16.06 -4.67,-15.85 -5.79,-15.63 -6.89,-15.38 -7.99,-15.11 -9.07,-14.83 -10.15,-14.52 -11.2,-14.21 -12.24,-13.88 -13.27,-13.54 -14.27,-13.18 -15.25,-12.82 -16.22,-12.44 -17.16,-12.06 -18.08,-11.67 -18.98,-11.27 -19.86,-10.88 -20.71,-10.47 -21.54,-10.07 -22.35,-9.66 -23.14,-9.25 -23.9,-8.85 -24.64,-8.44 -25.36,-8.04 -26.06,-7.63 -26.75,-7.22 -27.41,-6.82 -28.05,-6.41 -28.67,-6.01 -29.27,-5.6 -29.86,-5.2 -30.42,-4.8 -30.97,-4.4 -31.49,-4.01 -32,-3.62 -32.49,-3.23 -32.96,-2.84 -32.82,10.8 -32.34,11.22 -31.84,11.64 -31.32,12.05 -30.78,12.46 -30.22,12.86 -29.64,13.26 -29.05,13.65 -28.43,14.03 -27.8,14.4 -27.15,14.76 -26.48,15.11 -25.79,15.45 -25.08,15.77 -24.35,16.08 -23.6,16.37 -22.83,16.66 -22.03,16.93 -21.22,17.19 -20.38,17.43 -19.52,17.65 -18.64,17.85 -17.74,18.03 -16.81,18.18 -15.86,18.31 -14.9,18.41 -13.91,18.48 -12.9,18.52 -11.88,18.53 -10.84,18.5 -9.78,18.45 -8.71,18.36 -7.63,18.24 -6.54,18.09 -5.44,17.91 -4.33,17.7 -3.21,17.45 -2.09,17.18 -0.97,16.88 0.16,16.55 1.28,16.19 2.4,15.81 3.51,15.41 4.61,14.99 5.7,14.55 6.78,14.09 7.85,13.62 8.9,13.14 9.93,12.66 10.93,12.16 11.92,11.66 12.88,11.17 13.81,10.67 14.71,10.18 15.58,9.7 16.42,9.24 17.22,8.78 17.98,8.34 18.71,7.92 19.4,7.53 20.05,7.15 20.66,6.8 21.23,6.48 21.76,6.19 22.25,5.93 22.8,5.59 23.32,5.25 23.82,4.93 24.3,4.61 24.76,4.31 25.19,4.02 25.59,3.74 25.98,3.47 26.34,3.21 26.68,2.96 27,2.72 27.29,2.5 27.56,2.28 27.81,2.07 28.04,1.86" fill="white" stroke="white" stroke-width="0" stroke-linejoin="round" filter="url(#fuzzy)" />
    </g>
    <g transform="translate(49.41 -28.310000000000002)">
      <polyline id="rightUpper" points="-26.28,-3.82 -26.2,-3.99 -26.12,-4.18 -26.02,-4.41 -25.91,-4.66 -25.79,-4.94 -25.65,-5.23 -25.5,-5.55 -25.33,-5.89 -25.15,-6.24 -24.95,-6.61 -24.74,-6.99 -24.51,-7.38 -24.26,-7.79 -23.99,-8.2 -23.7,-8.62 -23.4,-9.05 -23.07,-9.49 -22.73,-9.92 -22.37,-10.36 -21.99,-10.81 -21.59,-11.25 -21.17,-11.69 -20.73,-12.13 -20.27,-12.56 -19.79,-13 -19.35,-13.55 -18.87,-14.1 -18.36,-14.63 -17.82,-15.16 -17.25,-15.68 -16.65,-16.18 -16.01,-16.67 -15.34,-17.14 -14.65,-17.59 -13.92,-18.02 -13.16,-18.43 -12.38,-18.82 -11.57,-19.18 -10.73,-19.51 -9.87,-19.82 -8.98,-20.1 -8.08,-20.35 -7.15,-20.57 -6.2,-20.77 -5.24,-20.93 -4.26,-21.07 -3.26,-21.17 -2.26,-21.24 -1.24,-21.28 -0.21,-21.3 0.82,-21.28 1.87,-21.23 2.91,-21.16 3.96,-21.05 5.01,-20.92 6.06,-20.76 7.11,-20.58 8.16,-20.37 9.2,-20.14 10.24,-19.88 11.26,-19.6 12.28,-19.3 13.29,-18.98 14.29,-18.65 15.28,-18.29 16.25,-17.93 17.21,-17.54 18.15,-17.15 19.08,-16.74 19.99,-16.33 20.89,-15.91 21.76,-15.48 22.62,-15.05 23.46,-14.61 24.28,-14.18 25.08,-13.74 25.87,-13.29 26.64,-12.84 27.4,-12.39 28.14,-11.94 28.86,-11.48 29.57,-11.02 30.26,-10.56 30.94,-10.11 31.59,-9.65 32.23,-9.19 32.86,-8.74 33.46,-8.28 34.05,-7.83 34.62,-7.39 35.18,-6.94 35.72,-6.51 36.24,-6.07 36.74,-5.64 37.23,-5.21 37.7,-4.79 38.16,-4.38 38.6,-3.97 39.03,-3.56" fill="none" stroke="black" stroke-width="1.6666666666666665" stroke-linejoin="round" filter="url(#fuzzy)" />
      <polyline id="rightLower" points="-26.31,-0.99 -26.24,-0.85 -26.16,-0.71 -26.06,-0.57 -25.96,-0.42 -25.84,-0.28 -25.71,-0.12 -25.57,0.04 -25.4,0.22 -25.23,0.4 -25.03,0.6 -24.82,0.82 -24.59,1.05 -24.34,1.3 -24.08,1.57 -23.79,1.86 -23.48,2.16 -23.16,2.49 -22.81,2.84 -22.45,3.2 -22.06,3.59 -21.66,4 -21.23,4.43 -20.78,4.87 -20.32,5.33 -19.83,5.82 -19.39,6.18 -18.91,6.58 -18.39,7.04 -17.84,7.53 -17.26,8.07 -16.65,8.64 -16,9.24 -15.31,9.88 -14.6,10.54 -13.85,11.23 -13.07,11.93 -12.27,12.65 -11.43,13.37 -10.57,14.1 -9.69,14.83 -8.78,15.56 -7.85,16.28 -6.89,16.98 -5.92,17.68 -4.93,18.35 -3.93,19 -2.91,19.62 -1.88,20.21 -0.84,20.77 0.21,21.3 1.27,21.78 2.33,22.23 3.4,22.64 4.46,23 5.53,23.32 6.6,23.59 7.66,23.81 8.72,23.99 9.77,24.12 10.81,24.2 11.85,24.23 12.87,24.22 13.88,24.17 14.88,24.07 15.87,23.92 16.84,23.74 17.8,23.52 18.74,23.26 19.66,22.97 20.56,22.64 21.45,22.29 22.32,21.91 23.16,21.51 23.99,21.1 24.8,20.67 25.59,20.22 26.36,19.75 27.12,19.26 27.86,18.75 28.58,18.23 29.29,17.69 29.98,17.13 30.65,16.57 31.3,15.99 31.94,15.41 32.56,14.81 33.16,14.22 33.75,13.61 34.31,13.01 34.86,12.4 35.39,11.79 35.91,11.19 36.41,10.58 36.89,9.98 37.35,9.37 37.8,8.77 38.23,8.18 38.65,7.59 39.05,7" fill="none" stroke="black" stroke-width="2.2222222222222223" stroke-linejoin="round" filter="url(#fuzzy)" />
      <circle r="4.566" cx="-10.311204814483876" cy="-1.6247674488714337" stroke="black" fill="none" stroke-width="1.0" filter="url(#fuzzy)" clip-path="url(#rightEyeClipPath)" /><circle r="4.6579999999999995" cx="-13.476204814483877" cy="0.22023255112856654" stroke="black" fill="none" stroke-width="1.0" filter="url(#fuzzy)" clip-path="url(#rightEyeClipPath)" /><circle r="3.83" cx="-10.881204814483876" cy="0.45523255112856686" stroke="black" fill="none" stroke-width="1.0" filter="url(#fuzzy)" clip-path="url(#rightEyeClipPath)" /><circle r="3.7720000000000002" cx="-11.431204814483877" cy="0.23523255112856623" stroke="black" fill="none" stroke-width="1.0" filter="url(#fuzzy)" clip-path="url(#rightEyeClipPath)" /><circle r="4.728" cx="-14.191204814483877" cy="-3.8297674488714337" stroke="black" fill="none" stroke-width="1.0" filter="url(#fuzzy)" clip-path="url(#rightEyeClipPath)" /><circle r="3.416" cx="-13.461204814483876" cy="-0.059767448871433704" stroke="black" fill="none" stroke-width="1.0" filter="url(#fuzzy)" clip-path="url(#rightEyeClipPath)" /><circle r="4.336" cx="-12.766204814483876" cy="-2.4497674488714334" stroke="black" fill="none" stroke-width="1.0" filter="url(#fuzzy)" clip-path="url(#rightEyeClipPath)" /><circle r="3.176" cx="-11.851204814483877" cy="0.40523255112856615" stroke="black" fill="none" stroke-width="1.0" filter="url(#fuzzy)" clip-path="url(#rightEyeClipPath)" /><circle r="3.168" cx="-13.141204814483876" cy="-0.6747674488714339" stroke="black" fill="none" stroke-width="1.0" filter="url(#fuzzy)" clip-path="url(#rightEyeClipPath)" /><circle r="4.628" cx="-11.651204814483876" cy="-3.699767448871434" stroke="black" fill="none" stroke-width="1.0" filter="url(#fuzzy)" clip-path="url(#rightEyeClipPath)" />
      </g>
    <g transform="translate(-35.55 -25.77)">
      <polyline id="leftUpper" points="29.39,-1.93 29.32,-2.11 29.23,-2.31 29.14,-2.55 29.03,-2.82 28.9,-3.1 28.76,-3.41 28.61,-3.75 28.43,-4.09 28.24,-4.46 28.03,-4.83 27.8,-5.22 27.54,-5.62 27.27,-6.02 26.97,-6.43 26.65,-6.85 26.31,-7.26 25.95,-7.68 25.56,-8.09 25.14,-8.51 24.71,-8.92 24.25,-9.32 23.76,-9.72 23.26,-10.11 22.73,-10.5 22.17,-10.87 21.68,-11.41 21.15,-11.93 20.57,-12.43 19.95,-12.91 19.29,-13.37 18.6,-13.8 17.86,-14.2 17.08,-14.58 16.27,-14.94 15.42,-15.26 14.54,-15.55 13.63,-15.82 12.69,-16.05 11.72,-16.25 10.72,-16.43 9.7,-16.57 8.66,-16.68 7.6,-16.77 6.53,-16.82 5.44,-16.84 4.33,-16.84 3.22,-16.81 2.1,-16.75 0.97,-16.66 -0.16,-16.55 -1.29,-16.41 -2.42,-16.25 -3.55,-16.06 -4.67,-15.85 -5.79,-15.63 -6.89,-15.38 -7.99,-15.11 -9.07,-14.83 -10.15,-14.52 -11.2,-14.21 -12.24,-13.88 -13.27,-13.54 -14.27,-13.18 -15.25,-12.82 -16.22,-12.44 -17.16,-12.06 -18.08,-11.67 -18.98,-11.27 -19.86,-10.88 -20.71,-10.47 -21.54,-10.07 -22.35,-9.66 -23.14,-9.25 -23.9,-8.85 -24.64,-8.44 -25.36,-8.04 -26.06,-7.63 -26.75,-7.22 -27.41,-6.82 -28.05,-6.41 -28.67,-6.01 -29.27,-5.6 -29.86,-5.2 -30.42,-4.8 -30.97,-4.4 -31.49,-4.01 -32,-3.62 -32.49,-3.23 -32.96,-2.84 -33.42,-2.46 -33.85,-2.08 -34.27,-1.71 -34.68,-1.34 -35.06,-0.97 -35.43,-0.61 -35.79,-0.25 -36.13,0.1 -36.45,0.45 -36.76,0.79" fill="none" stroke="black" stroke-width="2.2222222222222223" stroke-linejoin="round" filter="url(#fuzzy)" />
      <polyline id="leftLower" points="29.4,-0.03 29.33,0.17 29.24,0.37 29.15,0.56 29.04,0.74 28.91,0.92 28.77,1.11 28.62,1.29 28.45,1.48 28.25,1.67 28.04,1.86 27.81,2.07 27.56,2.28 27.29,2.5 27,2.72 26.68,2.96 26.34,3.21 25.98,3.47 25.59,3.74 25.19,4.02 24.76,4.31 24.3,4.61 23.82,4.93 23.32,5.25 22.8,5.59 22.25,5.93 21.76,6.19 21.23,6.48 20.66,6.8 20.05,7.15 19.4,7.53 18.71,7.92 17.98,8.34 17.22,8.78 16.42,9.24 15.58,9.7 14.71,10.18 13.81,10.67 12.88,11.17 11.92,11.66 10.93,12.16 9.93,12.66 8.9,13.14 7.85,13.62 6.78,14.09 5.7,14.55 4.61,14.99 3.51,15.41 2.4,15.81 1.28,16.19 0.16,16.55 -0.97,16.88 -2.09,17.18 -3.21,17.45 -4.33,17.7 -5.44,17.91 -6.54,18.09 -7.63,18.24 -8.71,18.36 -9.78,18.45 -10.84,18.5 -11.88,18.53 -12.9,18.52 -13.91,18.48 -14.9,18.41 -15.86,18.31 -16.81,18.18 -17.74,18.03 -18.64,17.85 -19.52,17.65 -20.38,17.43 -21.22,17.19 -22.03,16.93 -22.83,16.66 -23.6,16.37 -24.35,16.08 -25.08,15.77 -25.79,15.45 -26.48,15.11 -27.15,14.76 -27.8,14.4 -28.43,14.03 -29.05,13.65 -29.64,13.26 -30.22,12.86 -30.78,12.46 -31.32,12.05 -31.84,11.64 -32.34,11.22 -32.82,10.8 -33.29,10.38 -33.74,9.96 -34.17,9.54 -34.59,9.11 -34.99,8.69 -35.37,8.27 -35.74,7.85 -36.09,7.44 -36.43,7.03 -36.75,6.62" fill="none" stroke="black" stroke-width="2.2222222222222223" stroke-linejoin="round" filter="url(#fuzzy)" />
      <circle r="4.58" cx="-17.079620444760444" cy="5.237850315729781" stroke="black" fill="none" stroke-width="1.0" filter="url(#fuzzy)" clip-path="url(#leftEyeClipPath)" /><circle r="3.504" cx="-16.564620444760443" cy="3.357850315729781" stroke="black" fill="none" stroke-width="1.0" filter="url(#fuzzy)" clip-path="url(#leftEyeClipPath)" /><circle r="4.386" cx="-18.48962044476044" cy="5.697850315729781" stroke="black" fill="none" stroke-width="1.0" filter="url(#fuzzy)" clip-path="url(#leftEyeClipPath)" /><circle r="3.778" cx="-21.224620444760443" cy="7.722850315729781" stroke="black" fill="none" stroke-width="1.0" filter="url(#fuzzy)" clip-path="url(#leftEyeClipPath)" /><circle r="3.446" cx="-19.684620444760444" cy="3.062850315729781" stroke="black" fill="none" stroke-width="1.0" filter="url(#fuzzy)" clip-path="url(#leftEyeClipPath)" /><circle r="3.34" cx="-19.009620444760444" cy="5.712850315729781" stroke="black" fill="none" stroke-width="1.0" filter="url(#fuzzy)" clip-path="url(#leftEyeClipPath)" /><circle r="3.142" cx="-16.554620444760445" cy="5.95285031572978" stroke="black" fill="none" stroke-width="1.0" filter="url(#fuzzy)" clip-path="url(#leftEyeClipPath)" /><circle r="4.34" cx="-16.76962044476044" cy="4.532850315729781" stroke="black" fill="none" stroke-width="1.0" filter="url(#fuzzy)" clip-path="url(#leftEyeClipPath)" /><circle r="3.778" cx="-17.094620444760444" cy="4.89785031572978" stroke="black" fill="none" stroke-width="1.0" filter="url(#fuzzy)" clip-path="url(#leftEyeClipPath)" /><circle r="3.686" cx="-18.349620444760443" cy="4.992850315729781" stroke="black" fill="none" stroke-width="1.0" filter="url(#fuzzy)" clip-path="url(#leftEyeClipPath)" />
    </g>
    <g id="hairs">
      <polyline points="-40.49,-71.63 -39.77,-72.16 -38.61,-72.86 -37.22,-73.6 -35.61,-74.35 -33.76,-75.12 -31.7,-75.94 -29.5,-76.77 -27.21,-77.61 -24.85,-78.43 -22.45,-79.22 -20.03,-79.99 -17.65,-80.75 -15.33,-81.49 -13.11,-82.2 -11.01,-82.9 -9.03,-83.55 -7.15,-84.17 -5.33,-84.75 -3.59,-85.28 -2.01,-85.77 -0.85,-86.2" fill="none" stroke="rgb(184, 115, 51)" stroke-width="2" stroke-linejoin="round" filter="url(#fuzzy)" /><polyline points="17.82,-84.11 18.35,-83.78 19.45,-83.36 20.68,-82.92 21.94,-82.45 23.13,-81.99 24.2,-81.55 25.13,-81.16 25.91,-80.81 26.58,-80.51 27.14,-80.24 27.58,-80.02 27.9,-79.84 28.04,-79.73 27.97,-79.69 27.63,-79.76 26.97,-79.96 25.94,-80.31 24.52,-80.83 22.67,-81.54 20.31,-82.47 17.3,-83.59" fill="none" stroke="rgb(184, 115, 51)" stroke-width="2" stroke-linejoin="round" filter="url(#fuzzy)" /><polyline points="48.24,-65.05 48.39,-64.72 48.98,-63.97 49.44,-63.38 49.72,-62.93 49.84,-62.56 49.79,-62.25 49.54,-62.07 49.05,-62.04 48.32,-62.19 47.3,-62.55 45.94,-63.15 44.21,-64.03 42.06,-65.23 39.5,-66.72 36.55,-68.5 33.24,-70.53 29.56,-72.85 25.42,-75.5 20.63,-78.54 14.91,-81.95" fill="none" stroke="rgb(184, 115, 51)" stroke-width="2" stroke-linejoin="round" filter="url(#fuzzy)" /><polyline points="23.61,-81.9 24.76,-81.36 25.54,-80.97 26.07,-80.66 26.46,-80.36 26.73,-80.05 26.85,-79.74 26.79,-79.43 26.52,-79.14 25.99,-78.88 25.17,-78.67 23.99,-78.55 22.42,-78.53 20.4,-78.62 17.92,-78.82 14.98,-79.09 11.6,-79.42 7.79,-79.81 3.5,-80.25 -1.35,-80.78 -6.83,-81.44 -12.84,-82.29" fill="none" stroke="rgb(184, 115, 51)" stroke-width="2" stroke-linejoin="round" filter="url(#fuzzy)" /><polyline points="46.75,-66.29 47.62,-65.49 48.15,-64.83 48.55,-64.21 48.75,-63.73 48.74,-63.37 48.5,-63.09 48.02,-62.89 47.29,-62.8 46.29,-62.84 45.01,-63.02 43.43,-63.38 41.52,-63.94 39.23,-64.74 36.53,-65.78 33.37,-67.08 29.75,-68.6 25.66,-70.33 21.08,-72.26 16.04,-74.43 10.6,-76.86 4.85,-79.57 -1.06,-82.61" fill="none" stroke="rgb(184, 115, 51)" stroke-width="2" stroke-linejoin="round" filter="url(#fuzzy)" /><polyline points="54.1,-57.76 54.15,-57.44 54.52,-56.43 54.6,-55.38 54.15,-54.55 53.16,-53.95 51.7,-53.44 49.81,-52.96 47.52,-52.47 44.82,-51.96 41.67,-51.46 38.08,-50.96 34.01,-50.49 29.43,-50.08 24.31,-49.75 18.63,-49.53 12.39,-49.45 5.58,-49.51 -1.79,-49.7 -9.7,-50 -18.14,-50.41 -27.09,-50.92 -36.51,-51.6 -46.46,-52.51" fill="none" stroke="rgb(184, 115, 51)" stroke-width="2" stroke-linejoin="round" filter="url(#fuzzy)" /><polyline points="-33.5,-76.33 -33.04,-76.86 -31.78,-77.4 -30.1,-77.88 -28.07,-78.32 -25.76,-78.74 -23.25,-79.14 -20.57,-79.52 -17.77,-79.9 -14.85,-80.27 -11.83,-80.63 -8.69,-80.98 -5.47,-81.3 -2.21,-81.57 1.03,-81.8 4.23,-81.99 7.37,-82.14 10.44,-82.29 13.38,-82.44 16.08,-82.63 18.28,-82.92" fill="none" stroke="rgb(184, 115, 51)" stroke-width="2" stroke-linejoin="round" filter="url(#fuzzy)" /><polyline points="-12.34,-85.05 -11.58,-85.37 -10.54,-85.52 -9.9,-85.5 -9.8,-85.3 -10.17,-84.92 -10.92,-84.39 -11.98,-83.69 -13.37,-82.83 -15.14,-81.79 -17.41,-80.54 -20.29,-79.05 -23.88,-77.27 -28.26,-75.13 -33.52,-72.6 -39.64,-69.64" fill="none" stroke="rgb(184, 115, 51)" stroke-width="2" stroke-linejoin="round" filter="url(#fuzzy)" /><polyline points="-7.18,-86.19 -6.43,-86.08 -5.05,-85.9 -3.24,-85.62 -1.12,-85.24 1.2,-84.72 3.62,-84.07 6.1,-83.32 8.61,-82.48 11.17,-81.56 13.82,-80.59 16.55,-79.58 19.39,-78.53 22.29,-77.44 25.23,-76.33 28.15,-75.2 30.98,-74.08 33.65,-73 36.11,-71.97 38.33,-71.01 40.35,-70.15 42.09,-69.56" fill="none" stroke="rgb(184, 115, 51)" stroke-width="2" stroke-linejoin="round" filter="url(#fuzzy)" /><polyline points="-12.3,-85.49 -10.01,-85.72 -8.42,-85.87 -7.1,-85.96 -5.84,-86 -4.53,-86.02 -3.1,-86.04 -1.63,-86.09 -0.19,-86.14 1.09,-86.2 2.12,-86.25 2.83,-86.28 3.18,-86.29 3.2,-86.29 2.93,-86.32 2.4,-86.41" fill="none" stroke="rgb(184, 115, 51)" stroke-width="2" stroke-linejoin="round" filter="url(#fuzzy)" /><polyline points="28.64,-79.43 30.04,-78.71 30.95,-78.03 31.46,-77.34 31.56,-76.68 31.22,-76.06 30.42,-75.5 29.17,-75.01 27.45,-74.56 25.3,-74.11 22.71,-73.61 19.67,-73.07 16.12,-72.5 12.01,-71.95 7.32,-71.44 2.04,-71 -3.86,-70.63 -10.37,-70.35 -17.52,-70.15 -25.33,-70.02 -33.94,-69.72" fill="none" stroke="rgb(184, 115, 51)" stroke-width="2" stroke-linejoin="round" filter="url(#fuzzy)" /><polyline points="-15.36,-84.44 -14.83,-84.69 -14.1,-84.83 -13.41,-84.86 -12.84,-84.8 -12.51,-84.61 -12.54,-84.27 -12.99,-83.73 -13.87,-83 -15.14,-82.06 -16.77,-80.92 -18.74,-79.58 -21.09,-78.01 -23.92,-76.17 -27.31,-74.03 -31.32,-71.54 -36,-68.7 -41.33,-65.54 -47.26,-62.22" fill="none" stroke="rgb(184, 115, 51)" stroke-width="2" stroke-linejoin="round" filter="url(#fuzzy)" /><polyline points="-41.87,-71.13 -40.55,-71.63 -38.84,-72.28 -36.64,-73.07 -33.98,-73.92 -30.87,-74.83 -27.34,-75.8 -23.43,-76.82 -19.25,-77.9 -14.89,-78.99 -10.42,-80.08 -5.86,-81.14 -1.21,-82.17 3.61,-83.13 8.56,-84.02" fill="none" stroke="rgb(184, 115, 51)" stroke-width="2" stroke-linejoin="round" filter="url(#fuzzy)" /><polyline points="-15.09,-84.74 -13.91,-84.97 -12.89,-85.1 -11.95,-85.19 -11.17,-85.19 -10.66,-85.07 -10.46,-84.82 -10.57,-84.42 -10.9,-83.9 -11.42,-83.24 -12.13,-82.43 -13.06,-81.47 -14.26,-80.33 -15.78,-79 -17.68,-77.48 -19.98,-75.76 -22.67,-73.85 -25.74,-71.74 -29.17,-69.45 -32.95,-66.97 -37.1,-64.31 -41.67,-61.43 -46.78,-58.23 -52.57,-54.58" fill="none" stroke="rgb(184, 115, 51)" stroke-width="2" stroke-linejoin="round" filter="url(#fuzzy)" /><polyline points="34.83,-75.88 36.05,-75 36.53,-74.52 36.49,-74.29 36.15,-74.11 35.56,-73.91 34.64,-73.73 33.28,-73.64 31.39,-73.7 28.9,-73.97 25.74,-74.45 21.89,-75.14 17.31,-76.07 12,-77.22 5.95,-78.6 -0.83,-80.18 -8.41,-81.97" fill="none" stroke="rgb(184, 115, 51)" stroke-width="2" stroke-linejoin="round" filter="url(#fuzzy)" /><polyline points="58.25,-51.82 58.2,-51.59 57.86,-50.85 56.82,-50.23 55.04,-49.79 52.54,-49.48 49.32,-49.31 45.32,-49.37 40.47,-49.74 34.73,-50.46 28.06,-51.52 20.45,-52.92 11.89,-54.64 2.34,-56.64 -8.24,-58.83 -19.91,-61.14 -32.67,-63.59" fill="none" stroke="rgb(184, 115, 51)" stroke-width="2" stroke-linejoin="round" filter="url(#fuzzy)" /><polyline points="15.41,-84.35 14.61,-84.49 14.55,-84.17 14.28,-83.56 13.4,-82.72 11.79,-81.68 9.42,-80.43 6.24,-78.96 2.18,-77.25 -2.85,-75.28 -8.9,-73.04 -15.98,-70.5 -24.08,-67.68 -33.18,-64.62 -43.26,-61.26" fill="none" stroke="rgb(184, 115, 51)" stroke-width="2" stroke-linejoin="round" filter="url(#fuzzy)" /><polyline points="-28.06,-79.83 -28.17,-79.65 -27.07,-80.08 -25.91,-80.62 -24.84,-81.14 -23.79,-81.63 -22.72,-82.09 -21.71,-82.48 -20.87,-82.79 -20.28,-82.97 -19.96,-83.05 -19.91,-83 -20.13,-82.85 -20.63,-82.57 -21.5,-82.15 -22.76,-81.58 -24.45,-80.83 -26.62,-79.91 -29.22,-78.85" fill="none" stroke="rgb(184, 115, 51)" stroke-width="2" stroke-linejoin="round" filter="url(#fuzzy)" /><polyline points="51.39,-61.44 52.07,-60.43 52.41,-59.74 52.41,-59.33 52.12,-59.12 51.51,-59.12 50.49,-59.41 48.94,-60.1 46.82,-61.24 44.13,-62.8 40.87,-64.76 37.01,-67.1 32.43,-69.88 27,-73.15 20.74,-76.95 13.89,-81.24" fill="none" stroke="rgb(184, 115, 51)" stroke-width="2" stroke-linejoin="round" filter="url(#fuzzy)" /><polyline points="58.03,-52.41 59.05,-50.61 59.44,-49.61 59.5,-48.9 59.37,-48.29 59.04,-47.8 58.45,-47.54 57.52,-47.58 56.19,-47.99 54.43,-48.77 52.22,-49.91 49.57,-51.41 46.48,-53.25 42.95,-55.42 39,-57.92 34.61,-60.77 29.78,-64 24.47,-67.64 18.63,-71.69 12.21,-76.16 5.25,-81.09" fill="none" stroke="rgb(184, 115, 51)" stroke-width="2" stroke-linejoin="round" filter="url(#fuzzy)" /><polyline points="-12.34,-85.05 -11.46,-85.41 -10.09,-85.68 -8.91,-85.86 -7.99,-85.99 -7.25,-86.06 -6.59,-86.11 -5.96,-86.13 -5.34,-86.14 -4.8,-86.12 -4.4,-86.07 -4.22,-85.96 -4.31,-85.8 -4.7,-85.58 -5.4,-85.31 -6.44,-84.97 -7.8,-84.58 -9.52,-84.1 -11.61,-83.54 -14.03,-82.9 -16.77,-82.18 -19.95,-81.37 -24.01,-80.36" fill="none" stroke="rgb(184, 115, 51)" stroke-width="2" stroke-linejoin="round" filter="url(#fuzzy)" /><polyline points="2.81,-86.25 4.68,-86.1 6.61,-85.76 8.66,-85.26 10.96,-84.63 13.47,-83.89 16.02,-83.1 18.48,-82.3 20.79,-81.49 23,-80.67 25.17,-79.85 27.29,-79.04 29.23,-78.32 30.87,-77.74 32.26,-77.3" fill="none" stroke="rgb(184, 115, 51)" stroke-width="2" stroke-linejoin="round" filter="url(#fuzzy)" /><polyline points="43.91,-68.82 43.82,-68.87 44.23,-68.26 44.45,-67.72 44.32,-67.39 43.79,-67.23 42.81,-67.25 41.36,-67.46 39.39,-67.86 36.89,-68.48 33.87,-69.29 30.33,-70.32 26.27,-71.59 21.65,-73.14 16.41,-74.97 10.46,-77.07 3.64,-79.41 -4.12,-82.05" fill="none" stroke="rgb(184, 115, 51)" stroke-width="2" stroke-linejoin="round" filter="url(#fuzzy)" /><polyline points="11.17,-85.46 12.28,-85.25 13.28,-84.99 14.2,-84.75 15.11,-84.52 16.08,-84.29 17.08,-84.04 18.04,-83.77 18.91,-83.51 19.62,-83.27 20.14,-83.07 20.43,-82.92 20.46,-82.83 20.18,-82.82 19.55,-82.91 18.52,-83.1 17.06,-83.39 15.18,-83.78 12.91,-84.25 10.22,-84.81 6.92,-85.48" fill="none" stroke="rgb(184, 115, 51)" stroke-width="2" stroke-linejoin="round" filter="url(#fuzzy)" /><polyline points="7.58,-85.83 10.26,-85.51 12.06,-85.18 13.46,-84.83 14.71,-84.47 15.93,-84.11 17.21,-83.73 18.54,-83.34 19.86,-82.93 21.13,-82.53 22.29,-82.15 23.31,-81.81 24.15,-81.52 24.79,-81.29 25.2,-81.14 25.36,-81.08 25.25,-81.13 24.84,-81.3 24.08,-81.61 22.91,-82.08 21.39,-82.64" fill="none" stroke="rgb(184, 115, 51)" stroke-width="2" stroke-linejoin="round" filter="url(#fuzzy)" /><polyline points="-33.5,-76.33 -33.11,-76.89 -32.07,-77.53 -30.78,-78.16 -29.3,-78.81 -27.74,-79.47 -26.13,-80.12 -24.53,-80.77 -22.97,-81.41 -21.46,-82.02 -20.04,-82.61 -18.73,-83.14 -17.59,-83.59 -16.69,-83.95 -16.1,-84.2 -15.82,-84.34 -15.86,-84.36 -16.28,-84.24 -17.29,-83.91" fill="none" stroke="rgb(184, 115, 51)" stroke-width="2" stroke-linejoin="round" filter="url(#fuzzy)" /><polyline points="6.78,-86 7.42,-85.96 8.57,-85.78 9.88,-85.56 11.01,-85.34 11.82,-85.13 12.33,-84.94 12.62,-84.76 12.72,-84.58 12.64,-84.39 12.35,-84.17 11.81,-83.93 10.99,-83.68 9.83,-83.42 8.32,-83.17 6.41,-82.92 4.1,-82.7 1.36,-82.51 -1.81,-82.33 -5.48,-82.14 -9.7,-81.91 -14.54,-81.63 -19.99,-81.27" fill="none" stroke="rgb(184, 115, 51)" stroke-width="2" stroke-linejoin="round" filter="url(#fuzzy)" /><polyline points="50.31,-63.07 50.97,-61.76 50.91,-60.85 50.12,-60.27 48.62,-59.96 46.43,-59.83 43.54,-59.87 39.86,-60.13 35.27,-60.68 29.73,-61.57 23.22,-62.75 15.78,-64.18 7.42,-65.82 -1.89,-67.67 -12.28,-69.76 -24.02,-72.02" fill="none" stroke="rgb(184, 115, 51)" stroke-width="2" stroke-linejoin="round" filter="url(#fuzzy)" /><polyline points="43.91,-68.82 43.77,-68.9 44.03,-68.37 43.98,-67.98 43.46,-67.84 42.41,-67.97 40.78,-68.34 38.53,-68.99 35.59,-69.94 31.91,-71.21 27.43,-72.77 22.13,-74.63 15.97,-76.83 8.97,-79.45 1.17,-82.56" fill="none" stroke="rgb(184, 115, 51)" stroke-width="2" stroke-linejoin="round" filter="url(#fuzzy)" /><polyline points="-32.49,-77.46 -30.39,-78.41 -28.4,-79.02 -26.22,-79.46 -23.69,-79.88 -20.86,-80.3 -17.77,-80.71 -14.4,-81.09 -10.75,-81.46 -6.87,-81.79 -2.86,-82.07 1.15,-82.3 5.09,-82.51 8.92,-82.72 12.6,-82.97 16.14,-83.18" fill="none" stroke="rgb(184, 115, 51)" stroke-width="2" stroke-linejoin="round" filter="url(#fuzzy)" /><polyline points="17.53,-83.97 19.32,-83.36 20.67,-82.88 22.08,-82.3 23.5,-81.66 24.86,-80.99 26.17,-80.32 27.43,-79.65 28.67,-78.98 29.89,-78.31 31.1,-77.64 32.28,-76.99 33.4,-76.37 34.43,-75.81 35.33,-75.32 36.06,-74.91 36.6,-74.61 36.94,-74.42 37.06,-74.36 36.94,-74.44 36.55,-74.71 35.88,-75.18 34.9,-75.85 33.51,-76.78" fill="none" stroke="rgb(184, 115, 51)" stroke-width="2" stroke-linejoin="round" filter="url(#fuzzy)" /><polyline points="-15.09,-84.74 -13.78,-84.98 -12.35,-85.16 -10.72,-85.34 -8.99,-85.5 -7.29,-85.63 -5.68,-85.7 -4.15,-85.75 -2.65,-85.77 -1.13,-85.78 0.42,-85.8 1.96,-85.82 3.41,-85.84 4.66,-85.87 5.59,-85.9 6.13,-85.93 6.28,-85.98 6.08,-86.04 5.56,-86.11 4.57,-86.18" fill="none" stroke="rgb(184, 115, 51)" stroke-width="2" stroke-linejoin="round" filter="url(#fuzzy)" /><polyline points="50.31,-63.07 51.13,-61.71 51.53,-60.71 51.51,-59.98 51.13,-59.43 50.41,-59.02 49.33,-58.71 47.83,-58.57 45.84,-58.66 43.31,-58.98 40.24,-59.52 36.63,-60.23 32.49,-61.09 27.8,-62.1 22.58,-63.26 16.81,-64.6 10.48,-66.14 3.52,-67.91 -4.13,-69.99 -12.51,-72.38 -21.82,-74.95" fill="none" stroke="rgb(184, 115, 51)" stroke-width="2" stroke-linejoin="round" filter="url(#fuzzy)" /><polyline points="47.61,-65.54 49.12,-63.83 49.9,-63 50.47,-62.39 50.97,-61.76 51.4,-61.14 51.72,-60.58 51.92,-60.12 51.99,-59.78 51.9,-59.6 51.59,-59.63 51.01,-59.91 50.12,-60.48 48.9,-61.33 47.37,-62.45 45.55,-63.81 43.43,-65.42 41.03,-67.29 38.34,-69.45 35.35,-71.89 32.03,-74.69 28.19,-77.98" fill="none" stroke="rgb(184, 115, 51)" stroke-width="2" stroke-linejoin="round" filter="url(#fuzzy)" /><polyline points="-40.49,-71.63 -39.89,-72.15 -39.09,-72.8 -38.3,-73.44 -37.5,-74.04 -36.69,-74.6 -35.88,-75.13 -35.13,-75.6 -34.5,-75.98 -34.01,-76.24 -33.67,-76.36 -33.49,-76.32 -33.49,-76.13 -33.69,-75.77 -34.13,-75.22 -34.82,-74.49 -35.8,-73.54 -37.07,-72.35 -38.64,-70.9 -40.51,-69.18 -42.71,-67.18 -45.26,-64.94 -48.18,-62.46 -51.4,-59.74" fill="none" stroke="rgb(184, 115, 51)" stroke-width="2" stroke-linejoin="round" filter="url(#fuzzy)" /><polyline points="26.61,-80.49 27.27,-80.22 28.26,-79.72 29.2,-79.22 30.1,-78.73 30.94,-78.25 31.65,-77.8 32.15,-77.43 32.37,-77.19 32.26,-77.11 31.77,-77.22 30.89,-77.53 29.62,-78.03 27.97,-78.69 25.91,-79.49 23.43,-80.46 20.56,-81.64 17.28,-83.13" fill="none" stroke="rgb(184, 115, 51)" stroke-width="2" stroke-linejoin="round" filter="url(#fuzzy)" /><polyline points="20.25,-83.01 20.68,-82.9 22.14,-82.22 23.86,-81.29 25.63,-80.23 27.42,-79.08 29.26,-77.87 31.15,-76.6 33.09,-75.28 35.08,-73.93 37.09,-72.58 39.09,-71.24 41.02,-69.95 42.84,-68.7 44.47,-67.55 45.83,-66.61 46.91,-65.95" fill="none" stroke="rgb(184, 115, 51)" stroke-width="2" stroke-linejoin="round" filter="url(#fuzzy)" /><polyline points="43.91,-68.82 43.88,-68.86 44.48,-68.22 45.01,-67.64 45.31,-67.27 45.32,-67.09 45.02,-67.12 44.36,-67.37 43.31,-67.88 41.82,-68.7 39.86,-69.81 37.38,-71.23 34.34,-73.01 30.71,-75.19 26.45,-77.84 21.48,-80.97" fill="none" stroke="rgb(184, 115, 51)" stroke-width="2" stroke-linejoin="round" filter="url(#fuzzy)" /><polyline points="-18.96,-83.34 -18.71,-83.48 -18,-83.68 -16.88,-83.98 -15.58,-84.33 -14.25,-84.67 -12.94,-84.98 -11.67,-85.25 -10.47,-85.48 -9.39,-85.69 -8.48,-85.85 -7.77,-85.96 -7.26,-86.04 -6.94,-86.07 -6.82,-86.07 -6.9,-86.02 -7.25,-85.93 -7.91,-85.79 -8.93,-85.59 -10.31,-85.33 -12.07,-84.98 -14.24,-84.55" fill="none" stroke="rgb(184, 115, 51)" stroke-width="2" stroke-linejoin="round" filter="url(#fuzzy)" /><polyline points="71.9,-14.04 72.51,-15.21 73.91,-17.03 74.99,-18.63 75.41,-19.96 75.35,-21.21 75.1,-22.49 74.89,-23.85 74.87,-25.32 75.15,-26.91 75.74,-28.63 76.48,-30.44 77.12,-32.27 77.42,-34.03 77.48,-35.64 77.82,-37.07 78.59,-38.04 84.13,15.44 83.27,13.84 82.83,12.37 82.32,10.94 81.65,9.57 80.85,8.15 79.96,6.59 79.03,4.9 78.13,3.17 77.41,1.53 76.99,0.06 76.87,-1.21 76.91,-2.33 76.89,-3.37 76.6,-4.4 75.98,-5.51 75.08,-6.76 74.1,-8.22 73.24,-9.93 72.59,-11.76 72.1,-13.3 71.9,-14.04" fill="none" stroke="rgb(184, 115, 51)" stroke-width="2" stroke-linejoin="round" filter="url(#fuzzy)" /><polyline points="57.3,-53.87 58.41,-52.99 59.45,-52.41 60.5,-51.71 61.92,-51.24 63.88,-51.1 66.19,-51.08 68.52,-50.86 70.52,-50.29 72.05,-49.37 73.21,-48.27 74.28,-47.19 75.48,-46.27 76.83,-45.56 78.05,-44.94 78.98,-44.39 80.49,-44.31 30.59,-61.52 31.64,-60.92 33.06,-60.98 34.66,-61.24 36.17,-61.37 37.55,-61.37 38.86,-61.34 40.11,-61.28 41.28,-61.12 42.34,-60.8 43.29,-60.36 44.19,-59.85 45.08,-59.34 46,-58.89 47.02,-58.57 48.2,-58.4 49.52,-58.35 50.9,-58.3 52.16,-58.09 53.13,-57.57 53.84,-56.65 54.74,-55.34 57.08,-53.96" fill="none" stroke="rgb(184, 115, 51)" stroke-width="2" stroke-linejoin="round" filter="url(#fuzzy)" /><polyline points="57.08,-53.96 57.19,-53.15 57.24,-52.54 57.4,-51.76 57.53,-50.67 57.45,-49.25 57.11,-47.52 56.64,-45.63 56.27,-43.75 56.17,-42 56.36,-40.44 56.69,-39.03 56.94,-37.69 57,-36.34 56.93,-35.02 56.95,-33.84 57.15,-32.94 57.27,-32.21 56.45,-31.07" fill="none" stroke="rgb(184, 115, 51)" stroke-width="2" stroke-linejoin="round" filter="url(#fuzzy)" /><polyline points="57.53,-32.85 57.25,-33.94 57.38,-35.32 57.58,-36.78 57.66,-38.24 57.59,-39.74 57.48,-41.35 57.43,-43.06 57.45,-44.76 57.46,-46.34 57.34,-47.73 57.05,-48.91 56.64,-49.91 56.24,-50.72 56.08,-51.47 56.55,-52.55 57.08,-53.96 40.91,-71.96 43.75,-73.57 44.8,-72.74 45.65,-71.79 46.79,-71.27 48.27,-71.2 49.89,-71.37 51.42,-71.42 52.66,-71.12 53.61,-70.43 54.37,-69.52 55.17,-68.66 56.27,-68.11 57.82,-68.02 59.8,-68.35 61.99,-68.89 64.09,-69.32 65.89,-69.26 67.64,-68.35 70.2,-66.37 17.53,-83.97 17.2,-85.29 16.34,-86.75 15.45,-87.34 14.55,-87.41 13.55,-87.48 12.41,-87.8 11.14,-88.34 9.81,-88.94 8.47,-89.43 7.17,-89.7 5.95,-89.79 4.81,-89.8 3.75,-89.86 2.75,-90.02 1.74,-90.27 0.68,-90.58 -0.49,-90.9 -1.8,-91.21 -3.25,-91.52 -4.71,-91.78 -5.36,-92.18" fill="none" stroke="rgb(184, 115, 51)" stroke-width="2" stroke-linejoin="round" filter="url(#fuzzy)" /><polyline points="12.92,-85.15 14.21,-84.92 14.94,-85.08 15.94,-85.42 17.17,-85.85 18.51,-86.35 19.88,-86.83 21.23,-87.18 22.57,-87.42 23.93,-87.71 25.34,-88.28 26.8,-89.21 28.28,-90.37 29.73,-91.5 31.12,-92.4 32.5,-93.05 33.96,-93.64 35.59,-94.34 37.4,-95.12 39.32,-95.77 41.28,-96.29 43.35,-97.34 45.89,-99.96 38.19,-87.08 36.08,-88.22 34.28,-87.95 32.7,-87.37 31.32,-86.91 30.1,-86.65 28.99,-86.51 27.93,-86.42 26.89,-86.36 25.81,-86.35 24.68,-86.36 23.47,-86.3 22.19,-86.14 20.86,-85.92 19.54,-85.75 18.29,-85.77 17.12,-86.04 16.08,-86.41 15.16,-86.62 14.34,-86.48 13.44,-86.08 12.5,-85.25" fill="none" stroke="rgb(184, 115, 51)" stroke-width="2" stroke-linejoin="round" filter="url(#fuzzy)" /><polyline points="-7.18,-86.19 -5.28,-86.26 -3.01,-86.33 -0.78,-86.33 1.45,-86.25 3.78,-86.09 6.28,-85.86 8.92,-85.55 11.65,-85.17 14.37,-84.73 17.03,-84.21 19.59,-83.62 22.09,-82.95 24.6,-82.2 27.2,-81.37 29.97,-80.48 32.93,-79.5 36.07,-78.46 39.28,-77.33 42.46,-76.13 45.48,-74.85 48.31,-73.48 50.95,-72.05 53.48,-70.55 56.06,-69.01 58.81,-67.44 61.82,-65.87 65.08,-64.27 68.43,-62.62 71.66,-60.89 74.69,-59.05 77.74,-57.08 81.22,-55.08 84.44,-53.87" fill="none" stroke="rgb(184, 115, 51)" stroke-width="2" stroke-linejoin="round" filter="url(#fuzzy)" /><polyline points="-12.3,-85.49 -9.61,-85.87 -7.35,-86.08 -5.12,-86.21 -2.78,-86.28 -0.28,-86.27 2.38,-86.2 5.15,-86.04 8.01,-85.81 10.94,-85.51 13.98,-85.14 17.17,-84.7 20.5,-84.19 23.96,-83.6 27.48,-82.93 31,-82.18 34.47,-81.36 37.9,-80.46 41.38,-79.49 44.99,-78.44 48.8,-77.31 52.79,-76.11 56.86,-74.82 60.84,-73.46 64.64,-72.03 68.26,-70.53 71.84,-68.99 75.6,-67.42 79.79,-65.84 84.63,-64.22 90.25,-62.56 96.6,-60.82 103.37,-59 110.03,-57.11 116.17,-55.26 121.71,-53.67 125.82,-52.41" fill="none" stroke="rgb(184, 115, 51)" stroke-width="2" stroke-linejoin="round" filter="url(#fuzzy)" /><polyline points="-17.16,-83.98 -15.03,-84.59 -12.59,-85.07 -10.33,-85.46 -8.29,-85.76 -6.28,-85.98 -4.16,-86.13 -1.9,-86.21 0.46,-86.22 2.86,-86.15 5.28,-86 7.74,-85.76 10.26,-85.45 12.84,-85.06 15.49,-84.6 18.17,-84.07 20.81,-83.47 23.36,-82.82 25.82,-82.11 28.2,-81.34 30.59,-80.49 33.07,-79.57 35.72,-78.54 38.56,-77.43 41.52,-76.23 44.53,-74.97 47.49,-73.64 50.34,-72.24 53.17,-70.73 56.26,-69.05 60.04,-67.15 64.5,-65.05" fill="none" stroke="rgb(184, 115, 51)" stroke-width="2" stroke-linejoin="round" filter="url(#fuzzy)" /><polyline points="-18.96,-83.34 -18.09,-83.65 -16.36,-84.24 -14.56,-84.81 -12.75,-85.28 -10.87,-85.65 -8.84,-85.91 -6.62,-86.09 -4.21,-86.19 -1.62,-86.22 1.12,-86.17 4,-86.05 7,-85.86 10.1,-85.6 13.25,-85.27 16.4,-84.88 19.52,-84.42 22.62,-83.89 25.72,-83.28 28.9,-82.58 32.22,-81.8 35.77,-80.96 39.61,-80.07 43.81,-79.13 48.37,-78.11 53.05,-77 56.48,-75.88" fill="none" stroke="rgb(184, 115, 51)" stroke-width="2" stroke-linejoin="round" filter="url(#fuzzy)" /><polyline points="-22.05,-82.63 -19.6,-83.39 -17.35,-83.99 -15.08,-84.51 -12.84,-84.98 -10.69,-85.37 -8.64,-85.69 -6.6,-85.92 -4.49,-86.09 -2.27,-86.18 0.02,-86.21 2.36,-86.16 4.72,-86.03 7.08,-85.81 9.47,-85.52 11.9,-85.16 14.37,-84.71 16.86,-84.2 19.33,-83.62 21.73,-82.98 24.03,-82.3 26.19,-81.58 28.26,-80.81 30.34,-79.96 32.58,-78.97 35.13,-77.79 37.99,-76.39 40.8,-74.87" fill="none" stroke="rgb(184, 115, 51)" stroke-width="2" stroke-linejoin="round" filter="url(#fuzzy)" /><polyline points="-22.05,-82.63 -19.54,-83.38 -17.62,-83.98 -15.63,-84.51 -13.5,-84.97 -11.36,-85.37 -9.25,-85.68 -7.12,-85.93 -4.9,-86.1 -2.54,-86.2 -0.09,-86.24 2.42,-86.2 4.96,-86.08 7.55,-85.88 10.19,-85.61 12.9,-85.26 15.69,-84.83 18.59,-84.33 21.63,-83.75 24.76,-83.12 27.86,-82.44 30.74,-81.73 33.31,-81.05 35.39,-80.63" fill="none" stroke="rgb(184, 115, 51)" stroke-width="2" stroke-linejoin="round" filter="url(#fuzzy)" /><polyline points="71.46,-17.48 75.91,-14.53 76.89,-11.62 77.36,-8.75 78,-6.06 78.74,-3.5 79.33,-0.95 79.66,1.68 79.89,4.38 80.23,7.09 80.73,9.77 81.34,12.38 81.93,14.96 82.4,17.53 82.77,20.12 83.11,22.72 83.5,25.29 84.01,27.8 84.72,30.24 85.62,32.63 86.57,35.02 87.26,37.43 87.29,39.89 86.73,42.4 87.18,44.85" fill="none" stroke="rgb(184, 115, 51)" stroke-width="2" stroke-linejoin="round" filter="url(#fuzzy)" /><polyline points="-24.59,-81.06 -23.71,-81.75 -21.81,-82.52 -19.62,-83.23 -17.36,-83.87 -15.11,-84.42 -12.89,-84.9 -10.74,-85.3 -8.65,-85.62 -6.58,-85.87 -4.47,-86.05 -2.3,-86.15 -0.07,-86.18 2.21,-86.13 4.51,-86.01 6.83,-85.8 9.16,-85.52 11.49,-85.15 13.83,-84.71 16.15,-84.2 18.43,-83.63 20.64,-82.99 22.75,-82.31 24.75,-81.59 26.68,-80.82 28.6,-79.96 30.65,-78.98 32.94,-77.79 35.48,-76.39 38.13,-74.87" fill="none" stroke="rgb(184, 115, 51)" stroke-width="2" stroke-linejoin="round" filter="url(#fuzzy)" /><polyline points="-41.27,-71.18 -43.55,-69.35 -46.18,-67.2 -49.55,-65.04 -53.56,-62.97 -57.71,-61.02 -61.46,-59.16 -64.47,-57.33 -66.73,-55.45 -68.45,-53.51 -69.89,-51.48 -71.28,-49.37 -72.79,-47.19 -74.53,-44.95 -76.58,-42.65 -78.96,-40.3 -81.59,-37.89 -84.36,-35.44 -87.12,-32.95 -89.75,-30.45 -92.17,-27.94 -94.32,-25.44 -96.16,-22.94 -97.63,-20.44 -98.69,-17.9 -99.4,-15.29 -100,-12.61 -100.86,-9.87 -102.4,-7.12 -104.88,-4.42 -108.25,-1.81 -111.99,0.73 -115.38,3.31 -117.83,6.15 -119.63,9.43 -121.46,13.15" fill="none" stroke="rgb(184, 115, 51)" stroke-width="2" stroke-linejoin="round" filter="url(#fuzzy)" /><polyline points="-43.09,-69.75 -41.17,-67.23 -42.06,-65 -43.62,-62.91 -44.62,-60.98 -44.77,-59.16 -44.45,-57.38 -44.25,-55.55 -44.53,-53.64 -45.3,-51.64 -46.34,-49.55 -47.39,-47.39 -48.29,-45.17 -48.95,-42.9 -49.26,-40.57 -49.12,-38.19 -48.41,-35.76 -47.14,-33.28 -45.4,-30.76 -43.44,-28.24 -41.58,-25.75 -40.11,-23.33 -39.14,-20.97 -38.51,-18.61 -37.85,-16.11 -36.79,-13.36 -35.21,-10.38 -33.22,-7.05" fill="none" stroke="rgb(184, 115, 51)" stroke-width="2" stroke-linejoin="round" filter="url(#fuzzy)" /><polyline points="-50.74,-62.32 -52.26,-60.44 -53.57,-58.85 -54.81,-57.23 -56.03,-55.48 -57.29,-53.58 -58.58,-51.56 -59.89,-49.46 -61.18,-47.3 -62.43,-45.08 -63.65,-42.81 -64.82,-40.5 -65.93,-38.13 -66.96,-35.71 -67.93,-33.24 -68.84,-30.72 -69.67,-28.2 -70.43,-25.71 -71.1,-23.32 -71.66,-21.03 -72.15,-18.75 -72.61,-16.3 -73.1,-13.57 -73.66,-10.96" fill="none" stroke="rgb(184, 115, 51)" stroke-width="2" stroke-linejoin="round" filter="url(#fuzzy)" /><polyline points="-56.63,-54.65 -57.51,-53.31 -59.2,-51.42 -60.96,-49.39 -62.49,-47.36 -63.9,-45.3 -65.41,-43.16 -67.12,-40.96 -68.96,-38.69 -70.8,-36.39 -72.58,-34.06 -74.32,-31.69 -76.09,-29.28 -77.95,-26.82 -79.89,-24.32 -81.83,-21.8 -83.66,-19.27 -85.34,-16.72 -86.9,-14.16 -88.42,-11.57 -89.94,-8.93 -91.44,-6.26 -92.84,-3.56 -94.1,-0.86 -95.25,1.82 -96.33,4.48 -97.22,7.16 -97.67,9.8 -97.94,12.14 -99.43,13.69" fill="none" stroke="rgb(184, 115, 51)" stroke-width="2" stroke-linejoin="round" filter="url(#fuzzy)" /><polyline points="-62.66,-44.32 -66.26,-41.9 -67.46,-39.56 -68.98,-37.13 -71.38,-34.63 -73.94,-32.08 -75.86,-29.51 -76.93,-26.97 -77.46,-24.46 -77.94,-21.98 -78.76,-19.49 -80.08,-16.93 -81.83,-14.3 -83.88,-11.62 -86.08,-8.9 -88.32,-6.19 -90.6,-3.51 -92.91,-0.86 -95.22,1.77 -97.42,4.38 -99.35,6.97 -100.81,9.51 -101.64,12.01 -101.81,14.47 -101.45,16.92 -100.85,19.38 -100.42,21.9 -100.55,24.45 -101.41,27.02 -102.77,29.54 -104.04,32.02 -104.57,34.48 -104.16,36.99 -103.55,39.51 -105.02,41.64" fill="none" stroke="rgb(184, 115, 51)" stroke-width="2" stroke-linejoin="round" filter="url(#fuzzy)" /><polyline points="70.43,-22.61 70.85,-20.36 71.52,-17.91 72.48,-15.3 73.47,-12.56 74.24,-9.81 74.68,-7.13 74.81,-4.54 74.75,-2.01 74.62,0.49 74.52,2.99 74.5,5.5 74.53,8.01 74.58,10.53 74.57,13.05 74.45,15.6 74.19,18.18 73.77,20.79 73.2,23.43 72.5,26.05 71.73,28.64 70.93,31.15 70.14,33.57 69.38,35.91 68.61,38.22 67.79,40.53 66.86,42.87 65.8,45.26 64.64,47.65 63.43,50 62.24,52.22 61.1,54.31 59.86,56.42 57.64,59.27" fill="none" stroke="rgb(184, 115, 51)" stroke-width="2" stroke-linejoin="round" filter="url(#fuzzy)" /><polyline points="-67.18,-32.87 -70.44,-29.28 -75.4,-26.42 -78.28,-23.91 -79.46,-21.55 -80.53,-19.15 -82.09,-16.62 -83.89,-13.95 -85.56,-11.2 -86.9,-8.44 -87.91,-5.71 -88.58,-3.02 -88.94,-0.37 -89.03,2.25 -88.95,4.85 -88.86,7.43 -88.91,9.97 -89.25,12.48 -90.02,14.96 -91.32,17.44 -93.16,19.93 -95.39,22.43 -97.73,24.96 -99.76,27.48 -101.12,29.98 -101.63,32.45 -101.36,34.88 -100.63,37.26 -99.82,39.58 -99.19,41.84 -98.77,44.06 -98.44,46.26 -98.06,48.48 -97.64,50.72 -97.27,52.96 -96.72,55.19 -95.2,57.54 -92.58,60.55" fill="none" stroke="rgb(184, 115, 51)" stroke-width="2" stroke-linejoin="round" filter="url(#fuzzy)" /><polyline points="-68.97,-28.1 -70.75,-25.79 -72.17,-23.3 -73.78,-20.68 -74.95,-18.09 -75.75,-15.53 -76.68,-12.96 -78.01,-10.33 -79.63,-7.66 -81.29,-4.96 -82.77,-2.25 -84.02,0.45 -85.12,3.11 -86.14,5.75 -87.04,8.36 -87.73,10.95 -88.15,13.51 -88.3,16.06 -88.32,18.59 -88.38,21.1 -88.61,23.6 -89.06,26.09 -89.68,28.58 -90.37,31.08 -91.01,33.61 -91.5,36.15 -91.74,38.71 -91.69,41.23 -91.36,43.67 -90.8,45.99 -90.15,48.14 -89.48,50.1 -88.82,51.88 -88.07,53.58 -86.98,55.39 -85.39,57.54 -83.71,60.07" fill="none" stroke="rgb(184, 115, 51)" stroke-width="2" stroke-linejoin="round" filter="url(#fuzzy)" /><polyline points="66.27,-36.48 67.62,-33.52 69.69,-30.97 71.71,-28.38 73.5,-25.8 75.04,-23.26 76.17,-20.75 76.81,-18.22 77.06,-15.64 77.12,-13 77.15,-10.35 77.27,-7.72 77.53,-5.13 77.98,-2.58 78.65,-0.07 79.55,2.44 80.6,4.94 81.68,7.44 82.68,9.93 83.5,12.43 84.12,14.93 84.51,17.47 84.68,20.07 84.61,22.76 84.29,25.52 83.74,28.25 83,30.83 82.18,33.2 81.42,35.55 81.24,37.92" fill="none" stroke="rgb(184, 115, 51)" stroke-width="2" stroke-linejoin="round" filter="url(#fuzzy)" /><polyline points="60.52,-47.86 64.82,-43.99 71.47,-41.37 76.02,-39.13 78.25,-36.97 79.61,-34.77 81,-32.5 82.76,-30.16 85.08,-27.74 88.04,-25.28 91.45,-22.77 94.88,-20.22 97.78,-17.65 99.75,-15.06 100.64,-12.43 100.62,-9.8 100.08,-7.16 99.51,-4.52 99.41,-1.88 100.1,0.79 101.65,3.49 103.89,6.2 106.54,8.9 109.32,11.54 112.08,14.12 114.78,16.69 117.52,19.33 120.4,22.07 123.39,24.82 125.9,27.4 126.11,30.15" fill="none" stroke="rgb(184, 115, 51)" stroke-width="2" stroke-linejoin="round" filter="url(#fuzzy)" /><polyline points="57.08,-53.96 58.05,-53.28 60.28,-51.65 62.89,-49.47 65.26,-47.02 67.25,-44.5 69.17,-42.06 71.46,-39.71 74.5,-37.43 78.39,-35.18 82.96,-32.91 87.83,-30.59 92.56,-28.21 96.77,-25.78 100.15,-23.3 102.57,-20.79 104.15,-18.25 105.32,-15.67 106.77,-13.06 109.18,-10.41 112.89,-7.76 117.7,-5.18 123.04,-2.68 128.33,-0.2 132.98,2.52 135.73,5.74 133.73,9.08" fill="none" stroke="rgb(184, 115, 51)" stroke-width="2" stroke-linejoin="round" filter="url(#fuzzy)" /><polyline points="54.9,-56.85 57.49,-53.9 59.92,-51.79 62.45,-49.78 64.56,-47.65 66.28,-45.41 67.86,-43.1 69.45,-40.78 70.99,-38.45 72.41,-36.11 73.68,-33.74 74.9,-31.33 76.28,-28.87 78.03,-26.37 80.32,-23.85 83.27,-21.31 86.85,-18.74 90.89,-16.14 95.09,-13.52 99.08,-10.89 102.53,-8.26 105.32,-5.65 107.56,-3.08 109.58,-0.53 111.74,2 114.31,4.52 117.29,7.03 120.33,9.54 122.89,12.04 124.43,14.53 124.79,17.04 124.33,19.6 123.91,22.33 124.59,25.38 127.23,28.68 131.57,31.15" fill="none" stroke="rgb(184, 115, 51)" stroke-width="2" stroke-linejoin="round" filter="url(#fuzzy)" /><polyline points="54.1,-57.76 61.19,-56.09 67.05,-54 68.75,-51.97 68.75,-49.96 68.74,-47.87 69.54,-45.67 71.51,-43.41 74.58,-41.13 78.33,-38.85 82.14,-36.57 85.54,-34.26 88.35,-31.89 90.77,-29.47 93.14,-27.01 95.77,-24.53 98.76,-22.06 102.02,-19.59 105.44,-17.09 108.98,-14.51 112.49,-11.75 115.65,-8.77 118.25,-5.7 120.38,-3.17" fill="none" stroke="rgb(184, 115, 51)" stroke-width="2" stroke-linejoin="round" filter="url(#fuzzy)" /><polyline points="52.34,-60.15 54.13,-58.13 57.35,-56.13 62.03,-54.08 67.42,-52.06 72.93,-50.02 77.96,-47.91 81.93,-45.72 84.49,-43.47 85.64,-41.19 85.68,-38.91 85.18,-36.62 84.72,-34.3 84.85,-31.94 85.97,-29.51 88.31,-27.05 91.85,-24.57 96.37,-22.09 101.41,-19.62 106.51,-17.12 111.41,-14.53 116.04,-11.76 120.18,-8.78 123.28,-5.7 124.03,-3.17" fill="none" stroke="rgb(184, 115, 51)" stroke-width="2" stroke-linejoin="round" filter="url(#fuzzy)" /><polyline points="47.61,-65.54 49.98,-63.18 53.08,-61.3 56.76,-59.45 60.02,-57.56 62.62,-55.63 64.83,-53.66 66.97,-51.59 69.17,-49.39 71.37,-47.09 73.48,-44.72 75.41,-42.34 77.1,-39.98 78.6,-37.65 80.02,-35.33 81.55,-33.01 83.38,-30.65 85.63,-28.25 88.27,-25.8 91.11,-23.31 93.85,-20.78 96.19,-18.22 97.97,-15.62 99.21,-13 100.08,-10.35 100.84,-7.71 101.71,-5.08 102.79,-2.45 104.08,0.2 105.55,2.94 107.22,5.78 109.15,8.64 111.42,11.32 114.07,13.77 117.7,16.39" fill="none" stroke="rgb(184, 115, 51)" stroke-width="2" stroke-linejoin="round" filter="url(#fuzzy)" /><polyline points="46.75,-66.29 52.91,-64.96 58.94,-63.21 62.5,-61.41 65.02,-59.58 67.7,-57.71 70.88,-55.82 74.2,-53.88 77.29,-51.85 80.14,-49.7 83.06,-47.43 86.37,-45.07 90.18,-42.7 94.37,-40.36 98.73,-38.06 103.04,-35.8 107.15,-33.54 110.96,-31.25 114.48,-28.9 117.87,-26.48 121.49,-24 125.67,-21.48 130.48,-19 135.5,-16.64 139.5,-14.4 141.69,-12.43" fill="none" stroke="rgb(184, 115, 51)" stroke-width="2" stroke-linejoin="round" filter="url(#fuzzy)" /><polyline points="38.47,-73.66 41.09,-71.67 44.42,-69.67 48.29,-67.95 52.19,-66.38 55.74,-64.82 58.84,-63.19 61.66,-61.48 64.35,-59.69 66.98,-57.85 69.53,-55.94 72.08,-53.98 74.79,-51.92 77.89,-49.77 81.46,-47.51 85.45,-45.19 89.65,-42.84 93.82,-40.49 97.71,-38.17 101.14,-35.88 104.02,-33.59 106.44,-31.27 108.72,-28.9 111.31,-26.48 114.61,-23.99 118.64,-21.48 122.97,-18.97 126.88,-16.49 129.58,-13.95 131.12,-11.03 135.69,-6.89" fill="none" stroke="rgb(184, 115, 51)" stroke-width="2" stroke-linejoin="round" filter="url(#fuzzy)" /><polyline points="29.4,-79.16 31.12,-78.25 33.3,-77.02 35.57,-75.7 37.73,-74.33 39.72,-72.88 41.55,-71.36 43.29,-69.79 45,-68.19 46.69,-66.58 48.38,-64.95 50.08,-63.27 51.77,-61.55 53.45,-59.76 55.1,-57.92 56.71,-56.01 58.25,-54.02 59.71,-51.95 61.1,-49.79 62.43,-47.56 63.72,-45.25 64.98,-42.92 66.22,-40.57 67.45,-38.24 68.63,-35.91 69.76,-33.59 70.8,-31.24 71.74,-28.85 72.61,-26.42 73.41,-23.93 74.19,-21.41 74.97,-18.87 75.76,-16.3 76.53,-13.66 77.25,-10.89 77.85,-8 78.28,-5.09 78.56,-2.03" fill="none" stroke="rgb(184, 115, 51)" stroke-width="2" stroke-linejoin="round" filter="url(#fuzzy)" /><polyline points="12.5,-85.25 16.04,-84.68 17.49,-84.25 19.35,-83.69 21.97,-82.98 25.02,-82.16 28.08,-81.28 30.84,-80.34 33.18,-79.33 35.18,-78.25 36.99,-77.09 38.82,-75.85 40.85,-74.52 43.17,-73.13 45.79,-71.67 48.66,-70.15 51.7,-68.6 54.84,-67.02 58.05,-65.4 61.31,-63.76 64.57,-62.06 67.83,-60.32 71.05,-58.52 74.23,-56.66 77.44,-54.76 80.75,-52.77 84.25,-50.68 87.93,-48.44 91.64,-46.05 95.11,-43.57 98.13,-41.12 100.61,-38.84 102.87,-36.76 106.82,-34.64" fill="none" stroke="rgb(184, 115, 51)" stroke-width="2" stroke-linejoin="round" filter="url(#fuzzy)" /><polyline points="11.17,-85.46 13.56,-85.12 16.26,-84.63 18.79,-84.02 21.05,-83.35 23.1,-82.65 25.08,-81.9 27.11,-81.1 29.3,-80.21 31.66,-79.23 34.16,-78.15 36.76,-76.98 39.41,-75.72 42.07,-74.4 44.72,-72.99 47.34,-71.51 49.96,-69.94 52.62,-68.29 55.34,-66.6 58.09,-64.88 60.78,-63.14 63.32,-61.36 65.79,-59.53 68.4,-57.61 71.41,-55.61 74.84,-53.58 78.32,-51.62 81.28,-49.8 83.02,-48.06" fill="none" stroke="rgb(184, 115, 51)" stroke-width="2" stroke-linejoin="round" filter="url(#fuzzy)" />
    </g>
    
        <g id="lineNose">
        <path d="M -10.58,18.48 Q 8.88, 32.835 -0.8499999999999996, -5.456" fill="none" stroke="black" stroke-width="3" stroke-linejoin="round" filter="url(#fuzzy)"></path>
        </g>
      
    <g id="mouth">
      <polyline points="-54.92,25.95 -53.85,27.71 -52.77,29.43 -51.68,31.09 -50.57,32.71 -49.46,34.28 -48.34,35.81 -47.2,37.28 -46.06,38.72 -44.91,40.1 -43.76,41.44 -42.59,42.74 -41.42,43.99 -40.23,45.2 -39.05,46.37 -37.85,47.49 -36.65,48.57 -35.44,49.6 -34.23,50.6 -33.01,51.55 -31.79,52.46 -30.56,53.33 -29.33,54.16 -28.09,54.95 -26.85,55.7 -25.61,56.41 -24.36,57.09 -23.12,57.72 -21.86,58.32 -20.61,58.87 -19.36,59.39 -18.1,59.88 -16.85,60.33 -15.59,60.74 -14.33,61.11 -13.07,61.45 -11.82,61.76 -10.56,62.03 -9.31,62.27 -8.05,62.47 -6.8,62.64 -5.55,62.78 -4.31,62.88 -3.06,62.95 -1.82,62.99 -0.58,63 0.65,62.98 1.88,62.93 3.1,62.84 4.32,62.73 5.54,62.59 6.75,62.42 7.95,62.22 9.15,61.99 10.34,61.73 11.52,61.45 12.7,61.14 13.87,60.81 15.03,60.44 16.18,60.05 17.33,59.64 18.46,59.2 19.59,58.74 20.7,58.25 21.81,57.74 22.91,57.2 23.99,56.64 25.07,56.06 26.13,55.46 27.18,54.83 28.22,54.19 29.25,53.52 30.26,52.83 31.26,52.12 32.25,51.39 33.23,50.64 34.19,49.87 35.13,49.09 36.07,48.28 36.98,47.46 37.88,46.62 38.77,45.76 39.64,44.89 40.49,44 41.33,43.09 42.15,42.17 42.95,41.23 43.73,40.28 44.5,39.32 45.25,38.33 45.98,37.34 46.69,36.33 47.38,35.31 48.05,34.28 48.7,33.24 49.33,32.18 49.94,31.11 50.53,30.04 51.09,28.95 51.64,27.85 51.64,27.85 50.57,28.42 49.51,28.99 48.44,29.55 47.38,30.11 46.31,30.66 45.24,31.2 44.18,31.74 43.11,32.27 42.05,32.8 40.98,33.32 39.92,33.83 38.85,34.33 37.78,34.83 36.72,35.31 35.65,35.79 34.59,36.27 33.52,36.73 32.46,37.18 31.39,37.63 30.33,38.06 29.26,38.49 28.19,38.91 27.13,39.32 26.06,39.72 25,40.1 23.93,40.48 22.87,40.85 21.8,41.2 20.74,41.55 19.67,41.88 18.6,42.2 17.54,42.52 16.47,42.81 15.41,43.1 14.34,43.38 13.28,43.64 12.21,43.89 11.15,44.13 10.08,44.35 9.01,44.56 7.95,44.76 6.88,44.94 5.82,45.11 4.75,45.27 3.69,45.41 2.62,45.53 1.56,45.65 0.49,45.74 -0.58,45.82 -1.64,45.89 -2.71,45.94 -3.77,45.98 -4.84,45.99 -5.9,46 -6.97,45.98 -8.03,45.95 -9.1,45.91 -10.17,45.84 -11.23,45.76 -12.3,45.66 -13.36,45.55 -14.43,45.41 -15.49,45.26 -16.56,45.09 -17.62,44.9 -18.69,44.69 -19.76,44.46 -20.82,44.22 -21.89,43.95 -22.95,43.67 -24.02,43.36 -25.08,43.04 -26.15,42.69 -27.22,42.33 -28.28,41.94 -29.35,41.54 -30.41,41.11 -31.48,40.66 -32.54,40.19 -33.61,39.7 -34.67,39.18 -35.74,38.65 -36.81,38.09 -37.87,37.51 -38.94,36.9 -40,36.28 -41.07,35.63 -42.13,34.96 -43.2,34.26 -44.26,33.54 -45.33,32.8 -46.4,32.03 -47.46,31.24 -48.53,30.42 -49.59,29.58 -50.66,28.71 -51.72,27.82 -52.79,26.9 -53.85,25.96" fill="rgb(215,127,140)" stroke="black" stroke-width="3" stroke-linejoin="round" filter="url(#fuzzy)" />
    </g>
  </svg>