<svg viewBox="-100 -100 200 200" xmlns="http://www.w3.org/2000/svg" width="500" height="500" id="face-svg">
    <defs>
      <clipPath id="leftEyeClipPath">
        <polyline points="25.55,8.07 25.44,7.85 25.31,7.61 25.14,7.36 24.93,7.09 24.69,6.82 24.43,6.53 24.12,6.22 23.79,5.91 23.43,5.58 23.04,5.24 22.62,4.89 22.18,4.53 21.71,4.15 21.21,3.77 20.69,3.38 20.17,3.03 19.62,2.66 19.02,2.26 18.39,1.84 17.73,1.4 17.03,0.94 16.3,0.46 15.54,-0.04 14.75,-0.54 13.94,-1.06 13.1,-1.58 12.25,-2.1 11.37,-2.63 10.48,-3.15 9.57,-3.66 8.65,-4.17 7.72,-4.67 6.79,-5.16 5.85,-5.63 4.91,-6.08 3.96,-6.51 3.02,-6.92 2.09,-7.3 1.16,-7.66 0.23,-8 -0.68,-8.3 -1.58,-8.58 -2.46,-8.82 -3.33,-9.04 -4.19,-9.22 -5.02,-9.37 -5.84,-9.48 -6.63,-9.57 -7.4,-9.62 -8.15,-9.64 -8.88,-9.63 -9.58,-9.59 -10.25,-9.52 -10.9,-9.42 -11.52,-9.29 -12.12,-9.14 -12.69,-8.97 -13.23,-8.77 -13.75,-8.55 -14.23,-8.32 -14.7,-8.07 -15.14,-7.8 -15.55,-7.53 -15.94,-7.25 -16.31,-6.96 -16.65,-6.66 -16.98,-6.35 -17.28,-6.04 -17.55,-5.71 -17.81,-5.38 -18.04,-5.04 -18.26,-4.7 -18.45,-4.35 -18.62,-4 -18.77,-3.65 -18.89,-3.3 -19,-2.96 -19.09,-2.61 -19.17,-2.26 -19.62,-1.99 -19.39,-1.53 -19.14,-1.08 -18.87,-0.65 -18.6,-0.24 -18.31,0.17 -18.01,0.55 -17.69,0.93 -17.36,1.29 -17.02,1.64 -16.66,1.97 -16.29,2.29 -15.91,2.6 -15.51,2.9 -15.1,3.19 -14.68,3.47 -14.24,3.73 -13.79,3.99 -13.32,4.23 -12.84,4.47 -12.34,4.7 -11.82,4.92 -11.29,5.13 -10.75,5.34 -10.19,5.54 -9.61,5.73 -9.02,5.92 -8.42,6.1 -7.8,6.27 -7.17,6.45 -6.53,6.62 -5.87,6.78 -5.2,6.94 -4.52,7.1 -3.83,7.26 -3.13,7.41 -2.42,7.56 -1.7,7.71 -0.97,7.85 -0.23,8 0.51,8.14 1.26,8.28 2.02,8.41 2.78,8.54 3.54,8.67 4.31,8.8 5.08,8.92 5.86,9.04 6.63,9.16 7.4,9.27 8.17,9.37 8.94,9.47 9.7,9.57 10.46,9.65 11.22,9.73 11.97,9.81 12.71,9.87 13.44,9.93 14.17,9.98 14.88,10.02 15.58,10.05 16.27,10.07 16.95,10.08 17.61,10.07 18.25,10.06 18.82,10.09 19.37,10.11 19.91,10.12 20.43,10.13 20.94,10.14 21.43,10.14 21.91,10.13 22.37,10.12 22.81,10.11 23.23,10.09 23.64,10.06 24.02,10.03 24.37,10 24.71,9.96 25.01,9.92" />
      </clipPath>
      <clipPath id="rightEyeClipPath">
        <polyline points="-25.41,5.11 -25.12,4.97 -24.81,4.82 -24.47,4.66 -24.09,4.49 -23.7,4.32 -23.28,4.14 -22.83,3.95 -22.36,3.75 -21.87,3.55 -21.35,3.34 -20.81,3.12 -20.25,2.89 -19.67,2.65 -19.07,2.41 -18.45,2.17 -17.81,1.95 -17.14,1.72 -16.44,1.47 -15.71,1.21 -14.96,0.93 -14.17,0.64 -13.37,0.34 -12.53,0.03 -11.68,-0.29 -10.81,-0.61 -9.92,-0.94 -9.02,-1.27 -8.1,-1.6 -7.18,-1.93 -6.24,-2.25 -5.3,-2.57 -4.36,-2.89 -3.41,-3.19 -2.46,-3.49 -1.52,-3.77 -0.58,-4.04 0.35,-4.3 1.28,-4.54 2.19,-4.77 3.09,-4.98 3.98,-5.17 4.85,-5.35 5.71,-5.5 6.55,-5.64 7.37,-5.75 8.16,-5.85 8.94,-5.92 9.69,-5.97 10.42,-6.01 11.12,-6.02 11.8,-6.02 12.45,-5.99 13.08,-5.95 13.67,-5.89 14.24,-5.81 14.79,-5.72 15.31,-5.61 15.8,-5.49 16.26,-5.36 16.7,-5.22 17.11,-5.06 17.49,-4.9 17.86,-4.73 18.19,-4.56 18.51,-4.38 18.8,-4.2 19.08,-4.01 19.32,-3.82 19.55,-3.62 19.76,-3.42 19.94,-3.21 20.1,-3 20.25,-2.79 20.37,-2.58 20.47,-2.37 20.55,-2.16 20.61,-1.95 20.66,-1.74 20.68,-1.54 21.29,1.95 20.94,2.07 20.57,2.18 20.19,2.29 19.8,2.39 19.39,2.49 18.97,2.59 18.53,2.68 18.08,2.77 17.62,2.85 17.14,2.94 16.65,3.01 16.14,3.09 15.62,3.17 15.09,3.24 14.54,3.31 13.97,3.38 13.39,3.44 12.79,3.51 12.17,3.57 11.54,3.63 10.89,3.7 10.23,3.76 9.55,3.82 8.85,3.88 8.14,3.95 7.41,4.01 6.67,4.08 5.91,4.14 5.14,4.21 4.36,4.28 3.56,4.35 2.76,4.42 1.94,4.5 1.12,4.58 0.29,4.65 -0.55,4.73 -1.39,4.81 -2.24,4.9 -3.09,4.98 -3.95,5.06 -4.8,5.15 -5.65,5.24 -6.5,5.32 -7.35,5.41 -8.19,5.49 -9.03,5.57 -9.85,5.66 -10.67,5.74 -11.48,5.82 -12.27,5.89 -13.05,5.96 -13.82,6.03 -14.57,6.1 -15.3,6.16 -16.01,6.21 -16.7,6.26 -17.36,6.3 -18.01,6.34 -18.63,6.37 -19.22,6.39 -19.79,6.41 -20.33,6.42 -20.85,6.42 -21.33,6.41 -21.81,6.43 -22.27,6.45 -22.7,6.46 -23.12,6.47 -23.52,6.48 -23.9,6.48 -24.25,6.48 -24.59,6.48 -24.9,6.47 -25.19,6.46 -25.45,6.45 -25.7,6.43 -25.91,6.41 -26.11,6.39 -26.27,6.37" />
      </clipPath>
      <filter id="fuzzy">
        <feTurbulence id="turbulence" baseFrequency="0.05" numOctaves="3" type="noise" result="noise" />
        <feDisplacementMap in="SourceGraphic" in2="noise" scale="2" />
      </filter>
      <linearGradient id="rainbowGradient" x1="0%" y1="0%" x2="100%" y2="0%">
        <stop offset="0%" style="stop-color: [object Object]; stop-opacity: 1" />
        <stop offset="50%" style="stop-color: [object Object]; stop-opacity: 1" />
        <stop offset="100%" style="stop-color: [object Object]; stop-opacity: 1" />
      </linearGradient>
    </defs>
    <rect x="-100" y="-100" width="100%" height="100%" fill="rgb(255, 228, 225)" />
    <polyline id="faceContour" points="60.54,1.59 60.51,1.66 60.45,2.49 60.42,4.32 60.57,4.55 60.39,5.29 60.34,7.38 60.1,8.41 60.35,7.5 60.11,9.04 59.96,10.29 59.78,12.08 59.37,14.94 59.14,15.45 59.05,15.65 59.15,16.12 58.62,18.02 58.73,18.04 57.97,21.32 57.69,21.77 57.6,21.91 57.35,22.79 56.99,24.38 56.87,24.79 56.33,26.9 56.17,26.93 55.62,28.42 54.96,30.3 54.77,31.26 54.14,31.92 53.72,33.05 53.22,34.64 52.28,36.38 52.14,36.9 51.55,38.03 51.47,38.22 51.51,38.07 51.03,38.75 50.5,40.15 49.34,41.92 48.77,42.78 47.81,44.48 48.35,43.59 47.8,44.49 46.71,45.96 47.02,45.73 44.68,48.68 45.54,47.99 44.06,49.82 43.13,51.01 41.96,52.06 42.78,51.09 41.3,53.06 40.08,54.24 39.93,54.29 38.82,55.38 38.02,56.5 37.74,56.59 36.54,57.58 35.26,58.66 36.13,58.13 34.48,59.56 34.96,58.97 33.14,60.57 33.39,60.22 32.59,61.08 30.23,62.63 29.85,62.97 28.71,63.91 27.49,64.47 27.97,64.24 27.82,64.33 24.84,65.78 25.12,65.89 23.37,66.85 22.19,67.28 21.49,67.81 22.12,67.28 20.97,68.05 20.54,68.18 18.17,68.94 17.14,69.44 18.11,69.16 15.41,69.96 13.85,70.31 15.75,69.86 14.09,70.35 11.99,70.77 11.67,70.92 10.19,71.32 9.46,71.49 8.84,71.49 7.72,71.92 6.91,71.87 6.6,71.82 4.98,72.07 3.51,72.4 1.9,72.36 2.4,72.17 0.53,72.33 0.49,72.2 -0.31,72.25 -1.69,72.43 -2.85,72.17 -3.87,72.07 -4.13,72.24 -4.71,72.29 -5.46,71.95 -6.07,72.16 -8.15,71.74 -10.35,71.43 -10.85,71.09 -12.43,70.84 -12.27,70.81 -13.24,70.54 -13.21,70.55 -15.16,70.14 -16,69.71 -16.18,69.82 -18.51,68.88 -18.11,68.88 -19.27,68.56 -20.8,67.97 -21.02,67.71 -22.15,67.25 -23.67,66.39 -24.23,66.28 -24.51,66.05 -24.51,66.15 -26.05,65.35 -27.68,64.23 -28.51,63.81 -29.16,63.51 -29.71,63.08 -30.6,62.36 -30.89,62.31 -31.92,61.31 -33.24,60.31 -33.42,60.16 -34.33,59.7 -34.79,59.03 -36.81,57.41 -37.58,56.92 -37.56,56.55 -39.43,54.74 -39.65,54.79 -40.38,53.66 -40.57,53.91 -41.12,53.21 -41.89,51.93 -43.42,50.51 -44.14,49.56 -43.88,49.85 -44.74,48.88 -46.08,47.08 -45.42,47.82 -47.11,45.61 -47.46,44.81 -47.93,43.96 -48.16,43.67 -48.22,44.13 -49.84,40.85 -49.89,41.13 -50.53,39.67 -51.32,38.47 -52.14,36.87 -52.68,36.05 -52.25,36.26 -52.63,35.7 -53.43,33.92 -53.79,33.28 -54.84,31 -54.88,30.62 -55.34,29.45 -55.95,28.14 -56.36,26.57 -56.28,26.23 -56.61,25.92 -56.68,25.28 -57.42,23.27 -57.57,21.85 -58,21.12 -58.03,21 -58.06,20.23 -58.45,19.54 -58.63,17.62 -59.37,14.57 -59.18,14.7 -59.46,13.63 -59.32,14.27 -60.01,10.02 -60.15,9.25 -59.97,9.4 -60.21,6.32 -60.11,8.09 -60.35,3.7 -60.53,3.01 -60.56,4.4 -60.61,2.31 -60.61,1.82 -60.6,-1.55 -60.54,-1.55 -60.54,-2.24 -60.48,-3.47 -60.46,-3.22 -60.56,-4.54 -60.28,-5.31 -60.22,-6.59 -60.02,-9.98 -60.2,-9.32 -60.01,-10.68 -59.47,-13.23 -59.35,-13.77 -59.61,-13.04 -58.94,-16.38 -58.96,-17.05 -58.75,-17.01 -58.67,-18.55 -58.29,-19.26 -57.8,-20.98 -57.38,-22.77 -57.77,-22.19 -57.7,-22.55 -56.75,-25.5 -56.11,-27.72 -55.96,-27.76 -55.47,-29.26 -55.62,-28.68 -54.9,-30.21 -54.73,-31.39 -54.03,-32.56 -53.26,-34.26 -53.01,-34.45 -52.69,-35.4 -51.42,-38.58 -51.51,-38.34 -51.13,-38.84 -50.6,-39.85 -50.18,-40.6 -49.5,-41.85 -48.84,-42.7 -48.72,-42.87 -47.83,-44.64 -46.96,-45.73 -46.54,-46.45 -45.74,-47.2 -45.74,-47.76 -45.3,-48.25 -44.42,-49.27 -42.72,-51.38 -42.94,-51.21 -42.15,-52.04 -40.93,-53.2 -40.98,-53.22 -41.07,-53.12 -39.8,-54.69 -39.27,-55.01 -38.6,-55.87 -37.43,-57.21 -37.27,-57.08 -35.52,-58.97 -35.92,-58.26 -35.03,-59.02 -32.9,-60.55 -33.12,-60.54 -31.04,-62.32 -29.84,-62.76 -30.42,-62.59 -29.35,-63.48 -28.73,-63.7 -28.05,-64.13 -26.19,-65.07 -24.69,-66.16 -26.45,-65.3 -24.64,-66.22 -24.54,-66.31 -21.31,-67.79 -21.1,-67.97 -20.72,-67.92 -18.02,-69.27 -18.5,-69.19 -17.56,-69.22 -16.14,-69.61 -14.9,-70.18 -15.63,-70.08 -14.6,-70.13 -14.11,-70.41 -11.7,-71.01 -10.55,-71.36 -10.39,-71.51 -10.07,-71.36 -8.75,-71.51 -7.19,-71.91 -6.02,-71.99 -5.84,-72.07 -3.97,-72.16 -4.34,-72.09 -1.58,-72.59 -1.16,-72.5 -1.22,-72.56 1.02,-72.51 0.4,-72.55 3.12,-72.43 3.84,-72.3 3.87,-72.38 5.2,-71.98 5.78,-72.25 5.63,-72.15 6.2,-71.92 9.08,-71.76 9.69,-71.63 10.54,-71.44 11.87,-70.89 12.49,-71.02 11.77,-71.12 13.38,-70.58 14.36,-70.38 16.81,-69.51 16.14,-69.93 17.86,-69.41 18.47,-69.05 19.28,-68.81 20.1,-68.18 21.39,-67.85 21.92,-67.63 22.61,-67.38 25.18,-65.85 25.52,-65.71 25.38,-65.71 26.95,-64.77 27.3,-64.66 27.24,-64.59 28.65,-63.85 29.03,-63.5 30.49,-62.68 31.28,-62.3 31.04,-62.37 33.45,-60.6 34.14,-59.84 34.19,-59.84 35.6,-58.52 37.49,-56.91 37.69,-56.76 38.37,-56.14 38.45,-56.22 39.06,-55.38 39.91,-54.25 41.08,-53.26 41.3,-52.89 42.38,-51.9 42.62,-51.38 43.05,-50.96 44.75,-48.64 45.43,-47.86 46.36,-46.48 45.86,-47.46 46.53,-46.07 47.07,-45.82 47.98,-44.13 48.39,-43.42 48.94,-42.76 50.03,-41.16 49.45,-41.64 50.67,-39.75 51.69,-38.05 51.11,-38.61 51.97,-37.47 53.19,-35.01 52.28,-36.58 53.67,-33.74 54.39,-31.62 54.27,-32.37 54.59,-31.09 55.2,-29.84 55.22,-29.82 55.49,-28.71 56.92,-25.12 56.84,-25.12 57.18,-24.23 57.49,-23.19 57.33,-23.23 57.85,-21.89 58.28,-20.42 58.42,-18.83 58.74,-17.79 58.86,-17.51 58.88,-16.5 59.52,-14.18 59.78,-12.62 59.46,-13.5 59.68,-11.62 59.7,-12.07 60.22,-8.61 60.01,-8.93 60.27,-5.98 60.32,-6.18 60.49,-3.57 60.51,-3.28 60.56,-2.36 60.46,-1.1 60.54,1.59 60.51,1.66" fill="rgb(220, 20, 60)" stroke="black" stroke-width="1.6666666666666665" stroke-linejoin="round" filter="url(#fuzzy)" />
    <g transform="translate(38.74 -18.43)">
      <polyline id="rightCountour" points="-25.41,5.11 -25.12,4.97 -24.81,4.82 -24.47,4.66 -24.09,4.49 -23.7,4.32 -23.28,4.14 -22.83,3.95 -22.36,3.75 -21.87,3.55 -21.35,3.34 -20.81,3.12 -20.25,2.89 -19.67,2.65 -19.07,2.41 -18.45,2.17 -17.81,1.95 -17.14,1.72 -16.44,1.47 -15.71,1.21 -14.96,0.93 -14.17,0.64 -13.37,0.34 -12.53,0.03 -11.68,-0.29 -10.81,-0.61 -9.92,-0.94 -9.02,-1.27 -8.1,-1.6 -7.18,-1.93 -6.24,-2.25 -5.3,-2.57 -4.36,-2.89 -3.41,-3.19 -2.46,-3.49 -1.52,-3.77 -0.58,-4.04 0.35,-4.3 1.28,-4.54 2.19,-4.77 3.09,-4.98 3.98,-5.17 4.85,-5.35 5.71,-5.5 6.55,-5.64 7.37,-5.75 8.16,-5.85 8.94,-5.92 9.69,-5.97 10.42,-6.01 11.12,-6.02 11.8,-6.02 12.45,-5.99 13.08,-5.95 13.67,-5.89 14.24,-5.81 14.79,-5.72 15.31,-5.61 15.8,-5.49 16.26,-5.36 16.7,-5.22 17.11,-5.06 17.49,-4.9 17.86,-4.73 18.19,-4.56 18.51,-4.38 18.8,-4.2 19.08,-4.01 19.32,-3.82 19.55,-3.62 19.76,-3.42 19.94,-3.21 20.1,-3 20.25,-2.79 20.37,-2.58 20.47,-2.37 20.55,-2.16 20.61,-1.95 20.66,-1.74 20.68,-1.54 21.29,1.95 20.94,2.07 20.57,2.18 20.19,2.29 19.8,2.39 19.39,2.49 18.97,2.59 18.53,2.68 18.08,2.77 17.62,2.85 17.14,2.94 16.65,3.01 16.14,3.09 15.62,3.17 15.09,3.24 14.54,3.31 13.97,3.38 13.39,3.44 12.79,3.51 12.17,3.57 11.54,3.63 10.89,3.7 10.23,3.76 9.55,3.82 8.85,3.88 8.14,3.95 7.41,4.01 6.67,4.08 5.91,4.14 5.14,4.21 4.36,4.28 3.56,4.35 2.76,4.42 1.94,4.5 1.12,4.58 0.29,4.65 -0.55,4.73 -1.39,4.81 -2.24,4.9 -3.09,4.98 -3.95,5.06 -4.8,5.15 -5.65,5.24 -6.5,5.32 -7.35,5.41 -8.19,5.49 -9.03,5.57 -9.85,5.66 -10.67,5.74 -11.48,5.82 -12.27,5.89 -13.05,5.96 -13.82,6.03 -14.57,6.1 -15.3,6.16 -16.01,6.21 -16.7,6.26 -17.36,6.3 -18.01,6.34 -18.63,6.37 -19.22,6.39 -19.79,6.41 -20.33,6.42 -20.85,6.42 -21.33,6.41 -21.81,6.43 -22.27,6.45 -22.7,6.46 -23.12,6.47 -23.52,6.48 -23.9,6.48 -24.25,6.48 -24.59,6.48 -24.9,6.47 -25.19,6.46 -25.45,6.45 -25.7,6.43 -25.91,6.41 -26.11,6.39 -26.27,6.37" fill="white" stroke="white" stroke-width="0" stroke-linejoin="round" filter="url(#fuzzy)" />
    </g>
    <g transform="translate(-32.11 -20.21)">
      <polyline id="leftCountour" points="25.55,8.07 25.44,7.85 25.31,7.61 25.14,7.36 24.93,7.09 24.69,6.82 24.43,6.53 24.12,6.22 23.79,5.91 23.43,5.58 23.04,5.24 22.62,4.89 22.18,4.53 21.71,4.15 21.21,3.77 20.69,3.38 20.17,3.03 19.62,2.66 19.02,2.26 18.39,1.84 17.73,1.4 17.03,0.94 16.3,0.46 15.54,-0.04 14.75,-0.54 13.94,-1.06 13.1,-1.58 12.25,-2.1 11.37,-2.63 10.48,-3.15 9.57,-3.66 8.65,-4.17 7.72,-4.67 6.79,-5.16 5.85,-5.63 4.91,-6.08 3.96,-6.51 3.02,-6.92 2.09,-7.3 1.16,-7.66 0.23,-8 -0.68,-8.3 -1.58,-8.58 -2.46,-8.82 -3.33,-9.04 -4.19,-9.22 -5.02,-9.37 -5.84,-9.48 -6.63,-9.57 -7.4,-9.62 -8.15,-9.64 -8.88,-9.63 -9.58,-9.59 -10.25,-9.52 -10.9,-9.42 -11.52,-9.29 -12.12,-9.14 -12.69,-8.97 -13.23,-8.77 -13.75,-8.55 -14.23,-8.32 -14.7,-8.07 -15.14,-7.8 -15.55,-7.53 -15.94,-7.25 -16.31,-6.96 -16.65,-6.66 -16.98,-6.35 -17.28,-6.04 -17.55,-5.71 -17.81,-5.38 -18.04,-5.04 -18.26,-4.7 -18.45,-4.35 -18.62,-4 -18.77,-3.65 -18.89,-3.3 -19,-2.96 -19.09,-2.61 -19.17,-2.26 -19.62,-1.99 -19.39,-1.53 -19.14,-1.08 -18.87,-0.65 -18.6,-0.24 -18.31,0.17 -18.01,0.55 -17.69,0.93 -17.36,1.29 -17.02,1.64 -16.66,1.97 -16.29,2.29 -15.91,2.6 -15.51,2.9 -15.1,3.19 -14.68,3.47 -14.24,3.73 -13.79,3.99 -13.32,4.23 -12.84,4.47 -12.34,4.7 -11.82,4.92 -11.29,5.13 -10.75,5.34 -10.19,5.54 -9.61,5.73 -9.02,5.92 -8.42,6.1 -7.8,6.27 -7.17,6.45 -6.53,6.62 -5.87,6.78 -5.2,6.94 -4.52,7.1 -3.83,7.26 -3.13,7.41 -2.42,7.56 -1.7,7.71 -0.97,7.85 -0.23,8 0.51,8.14 1.26,8.28 2.02,8.41 2.78,8.54 3.54,8.67 4.31,8.8 5.08,8.92 5.86,9.04 6.63,9.16 7.4,9.27 8.17,9.37 8.94,9.47 9.7,9.57 10.46,9.65 11.22,9.73 11.97,9.81 12.71,9.87 13.44,9.93 14.17,9.98 14.88,10.02 15.58,10.05 16.27,10.07 16.95,10.08 17.61,10.07 18.25,10.06 18.82,10.09 19.37,10.11 19.91,10.12 20.43,10.13 20.94,10.14 21.43,10.14 21.91,10.13 22.37,10.12 22.81,10.11 23.23,10.09 23.64,10.06 24.02,10.03 24.37,10 24.71,9.96 25.01,9.92" fill="white" stroke="white" stroke-width="0" stroke-linejoin="round" filter="url(#fuzzy)" />
    </g>
    <g transform="translate(38.74 -18.43)">
      <polyline id="rightUpper" points="-26.68,6.21 -26.69,6.11 -26.67,6.02 -26.62,5.92 -26.54,5.82 -26.42,5.72 -26.28,5.61 -26.11,5.49 -25.9,5.37 -25.67,5.24 -25.41,5.11 -25.12,4.97 -24.81,4.82 -24.47,4.66 -24.09,4.49 -23.7,4.32 -23.28,4.14 -22.83,3.95 -22.36,3.75 -21.87,3.55 -21.35,3.34 -20.81,3.12 -20.25,2.89 -19.67,2.65 -19.07,2.41 -18.45,2.17 -17.81,1.95 -17.14,1.72 -16.44,1.47 -15.71,1.21 -14.96,0.93 -14.17,0.64 -13.37,0.34 -12.53,0.03 -11.68,-0.29 -10.81,-0.61 -9.92,-0.94 -9.02,-1.27 -8.1,-1.6 -7.18,-1.93 -6.24,-2.25 -5.3,-2.57 -4.36,-2.89 -3.41,-3.19 -2.46,-3.49 -1.52,-3.77 -0.58,-4.04 0.35,-4.3 1.28,-4.54 2.19,-4.77 3.09,-4.98 3.98,-5.17 4.85,-5.35 5.71,-5.5 6.55,-5.64 7.37,-5.75 8.16,-5.85 8.94,-5.92 9.69,-5.97 10.42,-6.01 11.12,-6.02 11.8,-6.02 12.45,-5.99 13.08,-5.95 13.67,-5.89 14.24,-5.81 14.79,-5.72 15.31,-5.61 15.8,-5.49 16.26,-5.36 16.7,-5.22 17.11,-5.06 17.49,-4.9 17.86,-4.73 18.19,-4.56 18.51,-4.38 18.8,-4.2 19.08,-4.01 19.32,-3.82 19.55,-3.62 19.76,-3.42 19.94,-3.21 20.1,-3 20.25,-2.79 20.37,-2.58 20.47,-2.37 20.55,-2.16 20.61,-1.95 20.66,-1.74 20.68,-1.54 20.69,-1.33 20.68,-1.13 20.65,-0.93 20.61,-0.74 20.55,-0.55 20.47,-0.36 20.38,-0.18 20.28,-0.01 20.16,0.16 20.02,0.33" fill="none" stroke="black" stroke-width="1.6666666666666665" stroke-linejoin="round" filter="url(#fuzzy)" />
      <polyline id="rightLower" points="-26.46,6.05 -26.57,6.08 -26.65,6.12 -26.7,6.15 -26.72,6.18 -26.71,6.22 -26.68,6.25 -26.62,6.28 -26.53,6.31 -26.41,6.34 -26.27,6.37 -26.11,6.39 -25.91,6.41 -25.7,6.43 -25.45,6.45 -25.19,6.46 -24.9,6.47 -24.59,6.48 -24.25,6.48 -23.9,6.48 -23.52,6.48 -23.12,6.47 -22.7,6.46 -22.27,6.45 -21.81,6.43 -21.33,6.41 -20.85,6.42 -20.33,6.42 -19.79,6.41 -19.22,6.39 -18.63,6.37 -18.01,6.34 -17.36,6.3 -16.7,6.26 -16.01,6.21 -15.3,6.16 -14.57,6.1 -13.82,6.03 -13.05,5.96 -12.27,5.89 -11.48,5.82 -10.67,5.74 -9.85,5.66 -9.03,5.57 -8.19,5.49 -7.35,5.41 -6.5,5.32 -5.65,5.24 -4.8,5.15 -3.95,5.06 -3.09,4.98 -2.24,4.9 -1.39,4.81 -0.55,4.73 0.29,4.65 1.12,4.58 1.94,4.5 2.76,4.42 3.56,4.35 4.36,4.28 5.14,4.21 5.91,4.14 6.67,4.08 7.41,4.01 8.14,3.95 8.85,3.88 9.55,3.82 10.23,3.76 10.89,3.7 11.54,3.63 12.17,3.57 12.79,3.51 13.39,3.44 13.97,3.38 14.54,3.31 15.09,3.24 15.62,3.17 16.14,3.09 16.65,3.01 17.14,2.94 17.62,2.85 18.08,2.77 18.53,2.68 18.97,2.59 19.39,2.49 19.8,2.39 20.19,2.29 20.57,2.18 20.94,2.07 21.29,1.95 21.64,1.83 21.96,1.71 22.28,1.58 22.58,1.44 22.87,1.3 23.15,1.16 23.42,1.01 23.67,0.85 23.92,0.7 24.15,0.53" fill="none" stroke="black" stroke-width="2.2222222222222223" stroke-linejoin="round" filter="url(#fuzzy)" />
      <circle r="3.472" cx="-13.718404244890248" cy="5.756362920237557" stroke="black" fill="none" stroke-width="1.0" filter="url(#fuzzy)" clip-path="url(#rightEyeClipPath)" /><circle r="4.214" cx="-11.903404244890247" cy="4.226362920237557" stroke="black" fill="none" stroke-width="1.0" filter="url(#fuzzy)" clip-path="url(#rightEyeClipPath)" /><circle r="4.832" cx="-12.513404244890248" cy="3.851362920237557" stroke="black" fill="none" stroke-width="1.0" filter="url(#fuzzy)" clip-path="url(#rightEyeClipPath)" /><circle r="3.46" cx="-11.143404244890249" cy="3.371362920237557" stroke="black" fill="none" stroke-width="1.0" filter="url(#fuzzy)" clip-path="url(#rightEyeClipPath)" /><circle r="4.016" cx="-11.993404244890248" cy="6.681362920237557" stroke="black" fill="none" stroke-width="1.0" filter="url(#fuzzy)" clip-path="url(#rightEyeClipPath)" /><circle r="4.51" cx="-11.583404244890248" cy="4.891362920237556" stroke="black" fill="none" stroke-width="1.0" filter="url(#fuzzy)" clip-path="url(#rightEyeClipPath)" /><circle r="4.974" cx="-13.413404244890248" cy="3.3313629202375568" stroke="black" fill="none" stroke-width="1.0" filter="url(#fuzzy)" clip-path="url(#rightEyeClipPath)" /><circle r="3.6879999999999997" cx="-10.763404244890248" cy="2.9563629202375568" stroke="black" fill="none" stroke-width="1.0" filter="url(#fuzzy)" clip-path="url(#rightEyeClipPath)" /><circle r="4.702" cx="-13.578404244890248" cy="3.8363629202375567" stroke="black" fill="none" stroke-width="1.0" filter="url(#fuzzy)" clip-path="url(#rightEyeClipPath)" /><circle r="3.202" cx="-11.518404244890249" cy="5.196362920237557" stroke="black" fill="none" stroke-width="1.0" filter="url(#fuzzy)" clip-path="url(#rightEyeClipPath)" />
      </g>
    <g transform="translate(-32.11 -20.21)">
      <polyline id="leftUpper" points="24.56,9.82 24.83,9.68 25.06,9.53 25.25,9.37 25.4,9.21 25.52,9.05 25.6,8.87 25.64,8.69 25.64,8.49 25.61,8.29 25.55,8.07 25.44,7.85 25.31,7.61 25.14,7.36 24.93,7.09 24.69,6.82 24.43,6.53 24.12,6.22 23.79,5.91 23.43,5.58 23.04,5.24 22.62,4.89 22.18,4.53 21.71,4.15 21.21,3.77 20.69,3.38 20.17,3.03 19.62,2.66 19.02,2.26 18.39,1.84 17.73,1.4 17.03,0.94 16.3,0.46 15.54,-0.04 14.75,-0.54 13.94,-1.06 13.1,-1.58 12.25,-2.1 11.37,-2.63 10.48,-3.15 9.57,-3.66 8.65,-4.17 7.72,-4.67 6.79,-5.16 5.85,-5.63 4.91,-6.08 3.96,-6.51 3.02,-6.92 2.09,-7.3 1.16,-7.66 0.23,-8 -0.68,-8.3 -1.58,-8.58 -2.46,-8.82 -3.33,-9.04 -4.19,-9.22 -5.02,-9.37 -5.84,-9.48 -6.63,-9.57 -7.4,-9.62 -8.15,-9.64 -8.88,-9.63 -9.58,-9.59 -10.25,-9.52 -10.9,-9.42 -11.52,-9.29 -12.12,-9.14 -12.69,-8.97 -13.23,-8.77 -13.75,-8.55 -14.23,-8.32 -14.7,-8.07 -15.14,-7.8 -15.55,-7.53 -15.94,-7.25 -16.31,-6.96 -16.65,-6.66 -16.98,-6.35 -17.28,-6.04 -17.55,-5.71 -17.81,-5.38 -18.04,-5.04 -18.26,-4.7 -18.45,-4.35 -18.62,-4 -18.77,-3.65 -18.89,-3.3 -19,-2.96 -19.09,-2.61 -19.17,-2.26 -19.22,-1.92 -19.25,-1.58 -19.27,-1.25 -19.27,-0.93 -19.25,-0.6 -19.22,-0.29 -19.17,0.02 -19.1,0.32 -19.02,0.61 -18.93,0.9" fill="none" stroke="black" stroke-width="2.2222222222222223" stroke-linejoin="round" filter="url(#fuzzy)" />
      <polyline id="leftLower" points="26.44,9.38 26.45,9.44 26.43,9.5 26.36,9.56 26.27,9.61 26.14,9.67 25.97,9.73 25.78,9.78 25.55,9.83 25.3,9.88 25.01,9.92 24.71,9.96 24.37,10 24.02,10.03 23.64,10.06 23.23,10.09 22.81,10.11 22.37,10.12 21.91,10.13 21.43,10.14 20.94,10.14 20.43,10.13 19.91,10.12 19.37,10.11 18.82,10.09 18.25,10.06 17.61,10.07 16.95,10.08 16.27,10.07 15.58,10.05 14.88,10.02 14.17,9.98 13.44,9.93 12.71,9.87 11.97,9.81 11.22,9.73 10.46,9.65 9.7,9.57 8.94,9.47 8.17,9.37 7.4,9.27 6.63,9.16 5.86,9.04 5.08,8.92 4.31,8.8 3.54,8.67 2.78,8.54 2.02,8.41 1.26,8.28 0.51,8.14 -0.23,8 -0.97,7.85 -1.7,7.71 -2.42,7.56 -3.13,7.41 -3.83,7.26 -4.52,7.1 -5.2,6.94 -5.87,6.78 -6.53,6.62 -7.17,6.45 -7.8,6.27 -8.42,6.1 -9.02,5.92 -9.61,5.73 -10.19,5.54 -10.75,5.34 -11.29,5.13 -11.82,4.92 -12.34,4.7 -12.84,4.47 -13.32,4.23 -13.79,3.99 -14.24,3.73 -14.68,3.47 -15.1,3.19 -15.51,2.9 -15.91,2.6 -16.29,2.29 -16.66,1.97 -17.02,1.64 -17.36,1.29 -17.69,0.93 -18.01,0.55 -18.31,0.17 -18.6,-0.24 -18.87,-0.65 -19.14,-1.08 -19.39,-1.53 -19.62,-1.99 -19.85,-2.47 -20.06,-2.96 -20.26,-3.46 -20.44,-3.98 -20.61,-4.52 -20.78,-5.07 -20.93,-5.63 -21.06,-6.21 -21.19,-6.8 -21.31,-7.41" fill="none" stroke="black" stroke-width="2.2222222222222223" stroke-linejoin="round" filter="url(#fuzzy)" />
      <circle r="3.596" cx="6.606199346082445" cy="5.919467331373676" stroke="black" fill="none" stroke-width="1.0" filter="url(#fuzzy)" clip-path="url(#leftEyeClipPath)" /><circle r="3.048" cx="3.5961993460824457" cy="4.954467331373675" stroke="black" fill="none" stroke-width="1.0" filter="url(#fuzzy)" clip-path="url(#leftEyeClipPath)" /><circle r="3.2640000000000002" cx="3.6911993460824455" cy="4.209467331373675" stroke="black" fill="none" stroke-width="1.0" filter="url(#fuzzy)" clip-path="url(#leftEyeClipPath)" /><circle r="3.664" cx="7.161199346082444" cy="4.499467331373676" stroke="black" fill="none" stroke-width="1.0" filter="url(#fuzzy)" clip-path="url(#leftEyeClipPath)" /><circle r="3.266" cx="5.616199346082446" cy="6.039467331373675" stroke="black" fill="none" stroke-width="1.0" filter="url(#fuzzy)" clip-path="url(#leftEyeClipPath)" /><circle r="4.2940000000000005" cx="3.2211993460824457" cy="5.919467331373676" stroke="black" fill="none" stroke-width="1.0" filter="url(#fuzzy)" clip-path="url(#leftEyeClipPath)" /><circle r="3.358" cx="3.1361993460824458" cy="4.584467331373675" stroke="black" fill="none" stroke-width="1.0" filter="url(#fuzzy)" clip-path="url(#leftEyeClipPath)" /><circle r="3.604" cx="6.901199346082446" cy="2.129467331373676" stroke="black" fill="none" stroke-width="1.0" filter="url(#fuzzy)" clip-path="url(#leftEyeClipPath)" /><circle r="3.586" cx="6.411199346082444" cy="3.8194673313736764" stroke="black" fill="none" stroke-width="1.0" filter="url(#fuzzy)" clip-path="url(#leftEyeClipPath)" /><circle r="3.702" cx="3.2711993460824456" cy="5.849467331373676" stroke="black" fill="none" stroke-width="1.0" filter="url(#fuzzy)" clip-path="url(#leftEyeClipPath)" />
    </g>
    <g id="hairs">
      <polyline points="-14.11,-70.41 -12.19,-70.86 -10.71,-71.09 -9.31,-71.17 -7.75,-71.18 -5.98,-71.18 -4.04,-71.17 -2.03,-71.15 0,-71.12 2,-71.08 3.96,-71.03 5.83,-70.98 7.57,-70.93 9.12,-70.86 10.4,-70.81 11.33,-70.8 11.82,-70.89" fill="none" stroke="rgb(220, 208, 186)" stroke-width="2" stroke-linejoin="round" filter="url(#fuzzy)" /><polyline points="5.2,-71.98 5.64,-72.1 6.24,-72.04 7.19,-71.9 8.3,-71.74 9.36,-71.57 10.19,-71.42 10.71,-71.31 10.89,-71.25 10.74,-71.24 10.34,-71.26 9.72,-71.32 8.84,-71.43 7.58,-71.63 5.83,-71.94" fill="none" stroke="rgb(220, 208, 186)" stroke-width="2" stroke-linejoin="round" filter="url(#fuzzy)" /><polyline points="30.49,-62.68 31.04,-62.36 31.61,-61.87 32.16,-61.29 32.56,-60.74 32.76,-60.27 32.72,-59.91 32.39,-59.7 31.73,-59.66 30.69,-59.81 29.28,-60.11 27.51,-60.55 25.4,-61.12 22.91,-61.81 20.03,-62.67 16.7,-63.69 12.89,-64.9 8.61,-66.29 3.87,-67.89 -1.33,-69.74" fill="none" stroke="rgb(220, 208, 186)" stroke-width="2" stroke-linejoin="round" filter="url(#fuzzy)" /><polyline points="50.67,-39.75 51.09,-38.83 50.98,-38.45 50.59,-38.2 49.87,-38.1 48.78,-38.21 47.27,-38.56 45.31,-39.23 42.86,-40.26 39.9,-41.65 36.43,-43.39 32.43,-45.44 27.89,-47.8 22.76,-50.52 17.03,-53.66 10.71,-57.31 3.85,-61.48 -3.54,-66.1" fill="none" stroke="rgb(220, 208, 186)" stroke-width="2" stroke-linejoin="round" filter="url(#fuzzy)" /><polyline points="50.67,-39.75 51.1,-38.79 51.04,-38.27 50.75,-37.8 50.18,-37.37 49.29,-37.05 48.05,-36.86 46.42,-36.86 44.39,-37.07 41.94,-37.49 39.06,-38.09 35.76,-38.83 32.04,-39.73 27.89,-40.82 23.29,-42.15 18.22,-43.76 12.63,-45.63 6.52,-47.75 -0.1,-50.08 -7.16,-52.65 -14.61,-55.51 -22.46,-58.74" fill="none" stroke="rgb(220, 208, 186)" stroke-width="2" stroke-linejoin="round" filter="url(#fuzzy)" /><polyline points="46.53,-46.07 46.98,-45.46 47.13,-44.63 46.92,-43.87 46.32,-43.21 45.34,-42.62 43.97,-42.09 42.21,-41.62 40.04,-41.21 37.46,-40.87 34.46,-40.6 31.03,-40.4 27.17,-40.28 22.85,-40.23 18.06,-40.27 12.76,-40.41 6.95,-40.62 0.63,-40.92 -6.18,-41.28 -13.45,-41.72 -21.18,-42.28 -29.43,-42.98 -38.28,-43.81" fill="none" stroke="rgb(220, 208, 186)" stroke-width="2" stroke-linejoin="round" filter="url(#fuzzy)" /><polyline points="26.95,-64.77 27.14,-64.67 27.28,-64.5 27.33,-64.31 27.16,-64.15 26.67,-64.07 25.78,-64.09 24.46,-64.21 22.64,-64.44 20.28,-64.81 17.31,-65.34 13.69,-66.08 9.4,-67.06 4.34,-68.31 -1.64,-69.83" fill="none" stroke="rgb(220, 208, 186)" stroke-width="2" stroke-linejoin="round" filter="url(#fuzzy)" /><polyline points="11.87,-70.89 12.1,-70.93 12.23,-70.77 12.45,-70.43 12.58,-69.99 12.43,-69.48 11.9,-68.91 10.97,-68.26 9.63,-67.53 7.89,-66.71 5.74,-65.79 3.17,-64.76 0.16,-63.62 -3.32,-62.36 -7.3,-60.99 -11.81,-59.54 -16.86,-58.06 -22.44,-56.56 -28.58,-55.01 -35.4,-53.26" fill="none" stroke="rgb(220, 208, 186)" stroke-width="2" stroke-linejoin="round" filter="url(#fuzzy)" /><polyline points="-24.54,-66.31 -22.14,-67.17 -20.1,-67.37 -17.76,-67.24 -14.98,-66.88 -11.8,-66.28 -8.22,-65.47 -4.3,-64.46 -0.05,-63.3 4.51,-62 9.41,-60.56 14.67,-58.99 20.27,-57.27 26.1,-55.43 31.98,-53.57 37.69,-51.94" fill="none" stroke="rgb(220, 208, 186)" stroke-width="2" stroke-linejoin="round" filter="url(#fuzzy)" /><polyline points="-10.07,-71.36 -8.86,-71.54 -7.9,-71.67 -7.31,-71.68 -7.04,-71.59 -7.08,-71.39 -7.44,-71.09 -8.18,-70.65 -9.37,-70.06 -11.05,-69.3 -13.22,-68.37 -15.88,-67.27 -19.1,-65.96 -23.06,-64.37 -27.83,-62.46" fill="none" stroke="rgb(220, 208, 186)" stroke-width="2" stroke-linejoin="round" filter="url(#fuzzy)" /><polyline points="-24.69,-66.16 -25.09,-65.84 -23.98,-66.02 -22.05,-66.34 -19.67,-66.65 -17.02,-66.88 -14.2,-67.02 -11.24,-67.09 -8.16,-67.08 -4.97,-67.02 -1.69,-66.92 1.66,-66.78 5.07,-66.61 8.54,-66.42 12.09,-66.21 15.71,-66 19.39,-65.74 23.13,-65.35" fill="none" stroke="rgb(220, 208, 186)" stroke-width="2" stroke-linejoin="round" filter="url(#fuzzy)" /><polyline points="28.65,-63.85 29.2,-63.41 29.72,-62.92 30,-62.41 30.06,-61.85 29.89,-61.23 29.45,-60.58 28.7,-59.94 27.61,-59.33 26.15,-58.77 24.27,-58.29 21.96,-57.86 19.21,-57.45 16.02,-57.06 12.42,-56.65 8.39,-56.25 3.93,-55.86 -0.97,-55.51 -6.32,-55.17 -12.16,-54.82 -18.49,-54.44 -25.35,-54.06 -32.8,-53.7" fill="none" stroke="rgb(220, 208, 186)" stroke-width="2" stroke-linejoin="round" filter="url(#fuzzy)" /><polyline points="31.28,-62.3 31.84,-61.77 33.04,-60.68 34.33,-59.46 35.66,-58.15 37.02,-56.79 38.37,-55.44 39.62,-54.17 40.72,-53.03 41.68,-52.01 42.54,-51.08 43.32,-50.22 44.03,-49.44 44.59,-48.81 44.88,-48.49" fill="none" stroke="rgb(220, 208, 186)" stroke-width="2" stroke-linejoin="round" filter="url(#fuzzy)" /><polyline points="38.45,-56.22 39.07,-55.38 39.67,-54.61 40.11,-54.01 40.33,-53.57 40.35,-53.26 40.16,-53.04 39.76,-52.93 39.12,-52.96 38.19,-53.19 36.93,-53.68 35.31,-54.44 33.3,-55.44 30.91,-56.67 28.12,-58.11 24.95,-59.78 21.43,-61.7 17.56,-63.9 13.33,-66.4 8.68,-69.21" fill="none" stroke="rgb(220, 208, 186)" stroke-width="2" stroke-linejoin="round" filter="url(#fuzzy)" /><polyline points="3.87,-72.38 5.01,-72.07 6.14,-71.68 7.6,-71.08 9.5,-70.26 11.78,-69.26 14.28,-68.09 16.88,-66.8 19.5,-65.41 22.12,-64 24.73,-62.58 27.38,-61.15 30.09,-59.72 32.81,-58.26 35.43,-56.82 37.86,-55.44" fill="none" stroke="rgb(220, 208, 186)" stroke-width="2" stroke-linejoin="round" filter="url(#fuzzy)" /><polyline points="11.77,-71.12 13.27,-70.6 14.82,-69.99 16.38,-69.31 17.92,-68.54 19.49,-67.68 21.12,-66.71 22.83,-65.66 24.6,-64.53 26.42,-63.35 28.25,-62.16 30.04,-60.98 31.74,-59.87 33.31,-58.85 34.72,-57.94 35.97,-57.11 37.07,-56.39 37.98,-55.79 38.66,-55.42" fill="none" stroke="rgb(220, 208, 186)" stroke-width="2" stroke-linejoin="round" filter="url(#fuzzy)" /><polyline points="6.2,-71.92 8.21,-71.77 9.4,-71.6 10.22,-71.42 10.8,-71.25 11.2,-71.09 11.48,-70.94 11.68,-70.76 11.77,-70.57 11.7,-70.39 11.4,-70.21 10.84,-70.05 9.99,-69.89 8.84,-69.75 7.39,-69.61 5.61,-69.48 3.47,-69.35 0.97,-69.23 -1.87,-69.14 -5.04,-69.12 -8.57,-69.17 -12.64,-69.22" fill="none" stroke="rgb(220, 208, 186)" stroke-width="2" stroke-linejoin="round" filter="url(#fuzzy)" /><polyline points="-21.31,-67.79 -20.76,-67.94 -19.52,-68.17 -17.9,-68.38 -16.05,-68.48 -14.03,-68.48 -11.84,-68.41 -9.51,-68.28 -7.05,-68.11 -4.44,-67.94 -1.69,-67.78 1.18,-67.61 4.11,-67.43 7.04,-67.22 9.95,-66.98 12.84,-66.71 15.7,-66.42 18.51,-66.13 21.27,-65.79 24.08,-65.35" fill="none" stroke="rgb(220, 208, 186)" stroke-width="2" stroke-linejoin="round" filter="url(#fuzzy)" /><polyline points="54.39,-31.62 54.29,-31.76 54.1,-31.4 53.67,-30.96 52.98,-30.55 51.98,-30.2 50.62,-30.03 48.85,-30.11 46.65,-30.49 43.99,-31.14 40.88,-32.02 37.35,-33.11 33.39,-34.39 29,-35.88 24.17,-37.62 18.85,-39.6 13.04,-41.84 6.74,-44.35 -0.03,-47.17 -7.25,-50.33 -14.98,-53.79 -23.45,-57.36" fill="none" stroke="rgb(220, 208, 186)" stroke-width="2" stroke-linejoin="round" filter="url(#fuzzy)" /><polyline points="51.69,-38.05 29.86,-53.05 14.97,-59.94 7.09,-63.64 2.94,-66.29 2.12,-67.96 4.68,-68.26 9.81,-67.12 15.79,-65.03 20.37,-62.7 21.67,-60.57 19.42,-58.46 15.55,-56.03 13.55,-53.65 16.14,-52.86 22.91,-54.78 31.16,-57.21 35.6,-58.52" fill="none" stroke="rgb(220, 208, 186)" stroke-width="2" stroke-linejoin="round" filter="url(#fuzzy)" /><polyline points="39.91,-54.25 3,-60.98 -12.31,-61.68 -11.44,-62.35 -4.95,-62.97 -0.36,-63.66 0.19,-64.55 -1.51,-65.57 -2.59,-66.52 -1.15,-67.07 3.33,-66.6 10.5,-64.38 19.5,-59.92 28.68,-53.56 35.23,-46.8 35.64,-41.96 28.02,-40.93 19.92,-42.57 53.19,-35.01" fill="none" stroke="rgb(220, 208, 186)" stroke-width="2" stroke-linejoin="round" filter="url(#fuzzy)" /><polyline points="-7.19,-71.91 10.88,-67.7 16.46,-65.07 11.9,-65.17 3.55,-65.8 -4.93,-65.81 -11.93,-65.18 -16.81,-64.33 -19.5,-63.49 -20.14,-62.68 -18.76,-61.8 -15.44,-60.87 -10.71,-60.07 -5.81,-59.64 -2.22,-59.81 -0.75,-60.53 -0.68,-61.48 -0.04,-62.15 3.01,-62.05 8.47,-60.95 14.02,-59.04 16.76,-56.79 16.2,-54.48 18.15,-51.04 51.69,-38.05" fill="none" stroke="rgb(220, 208, 186)" stroke-width="2" stroke-linejoin="round" filter="url(#fuzzy)" /><polyline points="39.06,-55.38 31.14,-56.15 28.57,-53.21 30.13,-49.89 29.19,-48.96 25.24,-49.51 20.19,-50.11 15.34,-50.22 11.2,-50.04 8.34,-49.89 7.62,-49.85 9.67,-49.84 14.12,-49.95 19.17,-50.68 22.11,-52.71 20.79,-56.31 15.37,-60.81 9.18,-64.76 7.31,-66.81 13.04,-66.68 23.53,-65.09 31.04,-62.37" fill="none" stroke="rgb(220, 208, 186)" stroke-width="2" stroke-linejoin="round" filter="url(#fuzzy)" /><polyline points="-16.14,-69.61 -8.53,-62.42 6.12,-59.06 13.52,-58.58 14.51,-59.84 11.96,-61.99 8.8,-64.22 7,-66.05 7.19,-67.3 8.86,-68.03 10.89,-68.4 12.15,-68.62 11.91,-68.89 10.02,-69.26 6.92,-69.51 3.56,-69.19 1.34,-67.65 2.2,-64.36 8.4,-59.45 20.27,-54.52 29.52,-54.38 12.49,-71.02" fill="none" stroke="rgb(220, 208, 186)" stroke-width="2" stroke-linejoin="round" filter="url(#fuzzy)" /><polyline points="-3.97,-72.16 -9.9,-69.16 -5.92,-65.35 0.66,-62.65 3.36,-61.66 2.72,-61.67 1.09,-61.44 -0.65,-60.3 -2.86,-58.54 -5.62,-57.01 -8.1,-56.48 -8.97,-57.12 -7.48,-58.57 -3.95,-60.13 0.61,-61.14 5.3,-61.16 9.88,-60.1 14.37,-58.32 18.25,-56.71 20.07,-56.36 18.71,-57.94 15.65,-61.08 15.23,-64.41 19.66,-66.53 25.38,-65.71" fill="none" stroke="rgb(220, 208, 186)" stroke-width="2" stroke-linejoin="round" filter="url(#fuzzy)" /><polyline points="3.84,-72.3 2.63,-69.42 3.79,-61.18 10.31,-52.78 18.24,-48.18 21.63,-48.19 18.81,-51.33 12.41,-55.56 6.44,-59.38 3.68,-62.21 4.58,-64.02 7.71,-64.88 11.13,-64.8 13.71,-63.75 15.59,-62.01 17.57,-60.27 19.77,-59.64 20.76,-61.09 18.29,-64.69 11.91,-68.99 4.38,-71.83 -1.58,-72.59" fill="none" stroke="rgb(220, 208, 186)" stroke-width="2" stroke-linejoin="round" filter="url(#fuzzy)" /><polyline points="-4.34,-72.09 0.43,-71.98 -2.19,-70.09 -8.23,-66.25 -12.02,-62.06 -11.02,-58.67 -5.88,-56.09 1.1,-53.87 7.14,-52 10.05,-50.97 9.14,-51.22 5.47,-52.59 0.9,-54.41 -3.18,-56.03 -6.28,-57.19 -8.15,-58.03 -7.6,-58.56 -2.56,-58.28 8.14,-56.21 21.89,-51.67 30.13,-45.61 17.62,-42.77 -40.93,-53.2" fill="none" stroke="rgb(220, 208, 186)" stroke-width="2" stroke-linejoin="round" filter="url(#fuzzy)" /><polyline points="-42.72,-51.38 -17.19,-57.39 -10.34,-54.86 -8.88,-54.4 -10.06,-56.37 -11.2,-58.94 -10.76,-60.84 -8.33,-61.81 -4.18,-62.22 0.83,-62.47 5.65,-62.74 9.66,-62.85 12.92,-62.53 16.15,-61.51 20.24,-59.71 25.57,-57.17 31.76,-54.09 37.73,-50.7 42.19,-47.41 43.92,-44.98 41.27,-44.95 31.39,-49.86 11.22,-61.25 -14.11,-70.41" fill="none" stroke="rgb(220, 208, 186)" stroke-width="2" stroke-linejoin="round" filter="url(#fuzzy)" /><polyline points="1.02,-72.51 -3.46,-68.73 10.09,-62.98 23.77,-57.81 30.55,-55.91 30.53,-57.27 26.72,-60.26 22.04,-63.11 17.92,-64.81 14.21,-65.15 10.2,-64.33 6,-62.7 2.84,-61.19 0.9,-61.81 -3.94,-66.35 -10.39,-71.51" fill="none" stroke="rgb(220, 208, 186)" stroke-width="2" stroke-linejoin="round" filter="url(#fuzzy)" /><polyline points="47.07,-45.82 2.21,-58.49 -10.45,-60.35 -4.33,-58.62 7.65,-56.29 15.94,-54.73 17.25,-54.5 13.56,-55.39 8.97,-56.72 6.53,-57.76 6.79,-58.16 8.43,-58.06 9.97,-57.73 11.01,-57.22 11.96,-56.29 12.61,-54.8 11.13,-53.14 5.09,-52.1 -5.47,-52.19 -15.26,-53.26 -15.46,-55.76 -3.77,-62.01 -7.19,-71.91" fill="none" stroke="rgb(220, 208, 186)" stroke-width="2" stroke-linejoin="round" filter="url(#fuzzy)" /><polyline points="56.92,-25.12 26.12,-47.88 22.98,-52.38 22.69,-52.69 18.97,-52.14 11.58,-51.96 3.66,-52.28 -1.93,-52.74 -4.71,-53 -6.02,-52.8 -7.22,-51.79 -8.59,-49.69 -9.82,-46.78 -10.87,-44.27 -11.27,-43.72 -8.11,-45.84 -1.12,-51 -26.19,-65.07" fill="none" stroke="rgb(220, 208, 186)" stroke-width="2" stroke-linejoin="round" filter="url(#fuzzy)" /><polyline points="33.45,-60.6 -2.16,-60.18 -5.29,-62.52 -1.12,-62.01 2.38,-59.87 3.09,-58.55 2.58,-58.87 3.32,-60.01 6.57,-60.61 11.71,-59.87 16.88,-57.85 19.88,-55.17 19.25,-52.61 14.8,-50.69 7.55,-49.57 -0.93,-49.22 -9.2,-49.61 -15.96,-50.88 -19.42,-53.22 -17,-56.62 -7.13,-60.67 7.15,-64.44 15.75,-67.43 5.63,-72.15" fill="none" stroke="rgb(220, 208, 186)" stroke-width="2" stroke-linejoin="round" filter="url(#fuzzy)" /><polyline points="-26.19,-65.07 -9.71,-65.36 5.41,-59.82 10.02,-56.46 8.31,-56.89 6.03,-58.85 5.18,-60.55 4.66,-61.6 2.98,-62.25 -0.03,-62.73 -3.2,-63 -4.71,-62.9 -2.64,-62.15 4.45,-60.66 15.29,-59.32 20.54,-61.14 -1.22,-72.56" fill="none" stroke="rgb(220, 208, 186)" stroke-width="2" stroke-linejoin="round" filter="url(#fuzzy)" /><polyline points="1.02,-72.51 1.37,-72.7 2.35,-72.85 3.29,-72.99 4.09,-73.16 4.81,-73.36 5.53,-73.53 6.32,-73.7 7.22,-73.91 8.24,-74.21 9.32,-74.58 10.38,-74.91 11.35,-75.13 12.22,-75.18 13.04,-75.1 13.89,-74.98 14.85,-74.93 15.95,-75.03 17.13,-75.3 18.27,-75.66 19.33,-75.87 20.26,-75.76" fill="none" stroke="rgb(220, 208, 186)" stroke-width="2" stroke-linejoin="round" filter="url(#fuzzy)" /><polyline points="-17.23,-66.24 -17.27,-66.55 -16.73,-66.98 -16.04,-67.43 -15.38,-67.83 -14.73,-68.18 -14.02,-68.49 -13.22,-68.79 -12.35,-69.09 -11.45,-69.39 -10.57,-69.7 -9.71,-70 -8.83,-70.28 -7.93,-70.52 -6.99,-70.7 -6.05,-70.84 -5.11,-71 -4.16,-71.24 -3.2,-71.6 -2.24,-72.02 -1.47,-72.32 -1.22,-72.56 16.52,-93.98 15.47,-93.56 13.8,-90.63 12.11,-87.84 10.48,-85.44 8.98,-83.37 7.7,-81.6 6.65,-80.05 5.75,-78.62 4.93,-77.3 4.09,-76.2 3.19,-75.5 2.23,-75.25 1.22,-75.27 0.23,-75.12 -0.67,-74.33 -1.16,-72.5" fill="none" stroke="rgb(220, 208, 186)" stroke-width="2" stroke-linejoin="round" filter="url(#fuzzy)" /><polyline points="9.89,-78.2 7.79,-78.19 6.74,-78.3 6.07,-78.18 5.43,-77.71 4.71,-76.97 3.9,-76.15 3,-75.41 2.04,-74.83 1.06,-74.43 0.13,-74.19 -0.75,-74.03 -1.62,-73.77 -2.54,-73.22 -3.52,-72.49 -3.97,-72.16" fill="none" stroke="rgb(220, 208, 186)" stroke-width="2" stroke-linejoin="round" filter="url(#fuzzy)" /><polyline points="-6.02,-71.99 -7.18,-71.41 -8.26,-70.75 -9.11,-69.8 -9.84,-68.86 -10.6,-68.21 -11.45,-67.85 -12.33,-67.58 -13.15,-67.24 -13.86,-66.75 -14.47,-66.1 -15.01,-65.3 -15.53,-64.34 -16.04,-63.26 -16.59,-62.14 -17.19,-61.07 -17.86,-60.1 -18.59,-59.16 -19.36,-58.03 -20.16,-56.64 -20.78,-55.85 -7.19,-71.91 -8.61,-72.3 -9.66,-72.66 -10.58,-73.07 -11.66,-74 -12.93,-75.43 -14.29,-77.06 -15.63,-78.68 -16.91,-80.27 -18.17,-81.84 -19.44,-83.32 -20.73,-84.59 -22.03,-85.54 -23.36,-86.16 -24.74,-86.5 -26.19,-86.65 -27.74,-86.76 -29.38,-86.92 -31,-87.15 -32.41,-87.26 -33.43,-87.06 -34.18,-86.55 -35.27,-86.05 -37.64,-86.06" fill="none" stroke="rgb(220, 208, 186)" stroke-width="2" stroke-linejoin="round" filter="url(#fuzzy)" /><polyline points="-8.75,-71.51 -7.44,-71.7 -6.41,-71.76 -5.49,-71.72 -4.56,-71.5 -3.61,-71.08 -2.66,-70.56 -1.73,-70.09 -0.82,-69.74 0.07,-69.48 0.94,-69.23 1.8,-68.92 2.61,-68.53 3.37,-68.06 4.07,-67.56 4.74,-67.05 5.4,-66.56 6.12,-66.06 6.91,-65.46 7.75,-64.71 8.6,-63.82 9.38,-62.91 10.01,-62.13 10.35,-61.5 10.01,-60.52 -10.07,-71.36 -8.84,-71.87 -7.68,-72.41 -6.7,-73.57 -5.84,-75.48 -5,-77.77 -4.11,-79.92 -3.17,-81.56 -2.19,-82.65 -1.2,-83.52 -0.18,-84.75 0.93,-86.79 2.17,-89.69 3.49,-92.72 4.61,-94.62 5.14,-96.06 -14.11,-70.41 -12.27,-70.53 -11.18,-70.83 -10.4,-70.99 -9.62,-71 -8.75,-70.95 -7.79,-70.92 -6.82,-70.94 -5.88,-71.01 -4.95,-71.09 -4.03,-71.13 -3.08,-71.11 -2.14,-71.01 -1.27,-70.83 -0.4,-70.61 0.99,-70.47 6.48,-83.08 6.23,-81.89 5.6,-81.29 4.81,-80.79 3.9,-80.26 2.9,-79.75 1.87,-79.24 0.85,-78.68 -0.15,-78.05 -1.13,-77.38 -2.11,-76.79 -3.1,-76.34 -4.1,-76.03 -5.1,-75.79 -6.09,-75.5 -7.08,-75.1 -8.04,-74.57 -8.97,-73.95 -9.82,-73.27 -10.62,-72.55 -11.44,-71.83 -12.43,-71.13 -13.63,-70.54 -14.6,-70.13 -15.63,-70.08 -15.86,-71.22 -16.92,-72.48 -18.33,-74.28 -19.66,-75.65 -20.73,-75.89 -21.61,-75.11 -22.49,-73.91 -23.53,-72.97 -24.81,-72.71 -26.28,-73.19 -27.82,-74.27 -29.35,-75.66 -30.91,-77.13 -32.58,-78.45 -34.39,-79.5 -36.13,-80.36 -37.71,-81.56 3.2,-59.83 2.93,-60.58 2.18,-60.49 1.32,-60.48 0.49,-60.83 -0.32,-61.58 -1.14,-62.65 -1.99,-63.9 -2.87,-65.13 -3.78,-66.17 -4.7,-66.97 -5.64,-67.52 -6.58,-67.91 -7.53,-68.22 -8.47,-68.49 -9.39,-68.71 -10.29,-68.82 -11.2,-68.79 -12.14,-68.59 -13.07,-68.3 -13.93,-68.11 -14.63,-68.23 -15.2,-68.68 -16.14,-69.61" fill="none" stroke="rgb(220, 208, 186)" stroke-width="2" stroke-linejoin="round" filter="url(#fuzzy)" /><polyline points="-16.14,-69.61 -17.38,-69.81 -18.32,-69.88 -19.44,-70.39 -20.85,-71.42 -22.42,-72.59 -23.97,-73.46 -25.39,-73.85 -26.65,-73.92 -27.83,-73.97 -29.05,-74.27 -30.43,-74.95 -32.01,-76.01 -33.8,-77.4 -35.7,-78.99 -37.57,-80.61 -39.3,-81.95 -40.79,-82.62 -42.05,-82.28 -43.06,-80.99 -43.49,-80.05 -5.02,-83.41 -5.22,-82.19 -5.94,-80.64 -6.84,-79.35 -7.81,-78.36 -8.8,-77.54 -9.74,-76.78 -10.61,-76.04 -11.47,-75.38 -12.37,-74.79 -13.31,-74.24 -14.2,-73.64 -14.97,-72.92 -15.57,-72.09 -16.1,-71.24 -16.74,-70.44 -17.58,-69.7 -18.5,-69.19" fill="none" stroke="rgb(220, 208, 186)" stroke-width="2" stroke-linejoin="round" filter="url(#fuzzy)" /><polyline points="-18.5,-69.19 -17.79,-70.63 -17.01,-71.66 -16.22,-71.77 -15.45,-71.63 -14.66,-71.73 -13.83,-72.19 -12.96,-72.93 -12.09,-73.81 -11.24,-74.69 -10.38,-75.51 -9.5,-76.27 -8.56,-76.96 -7.59,-77.58 -6.59,-78.1 -5.58,-78.49 -4.54,-78.79 -3.49,-79.12 -2.44,-79.6 -1.46,-80.21 -0.47,-80.68 1.14,-80.82 -18.5,-69.19 -17.5,-69.4 -16.59,-69.87 -15.92,-70.57 -15.41,-71.67 -14.9,-73.26 -14.32,-75.22 -13.64,-77.25 -12.88,-79.03 -12.06,-80.43 -11.18,-81.53 -10.24,-82.51 -9.26,-83.58 -8.24,-84.88 -7.22,-86.52 -6.19,-88.58 -5.14,-91.05 -4.05,-93.64 -2.92,-95.85 -1.78,-97.24 -0.58,-97.77 1.37,-97.35" fill="none" stroke="rgb(220, 208, 186)" stroke-width="2" stroke-linejoin="round" filter="url(#fuzzy)" /><polyline points="-18.02,-69.27 -18.35,-70.75 -18.3,-73.27 -17.85,-74.96 -17.23,-75.81 -16.64,-76.65 -16.08,-78.01 -15.47,-79.87 -14.75,-81.89 -13.93,-83.74 -13.08,-85.21 -12.23,-86.25 -11.32,-87.03 -10.22,-88 -8.97,-89.87 -7.77,-92.96 -20.72,-67.92 -18.62,-66.96 -17.7,-67.16 -16.94,-67.39 -16.16,-67.42 -15.4,-67.36 -14.7,-67.42 -14.01,-67.64 -13.24,-67.97 -12.38,-68.27 -11.46,-68.39 -10.56,-68.28 -9.7,-68.06 -8.86,-67.88 -7.92,-67.81 -6.8,-67.62 -5.6,-66.97 -5.53,-68.34 -6.04,-68.32 -6.96,-68.46 -7.97,-68.59 -8.91,-68.69 -9.78,-68.75 -10.65,-68.79 -11.58,-68.84 -12.53,-68.92 -13.46,-69.01 -14.32,-69.08 -15.1,-69.1 -15.85,-69.06 -16.6,-68.95 -17.39,-68.79 -18.24,-68.58 -19.13,-68.34 -20.06,-68.08 -20.89,-67.89 -21.31,-67.79 -30.42,-62.59 -30.46,-62.4 -31.09,-61.56 -31.9,-60.49 -32.79,-59.53 -33.7,-58.77 -34.57,-58.16 -35.36,-57.57 -36.07,-56.92 -36.73,-56.19 -37.35,-55.37 -37.92,-54.5 -38.42,-53.6 -38.83,-52.69 -39.14,-51.81 -39.39,-50.97 -39.63,-50.18 -39.93,-49.4 -40.22,-48.7 -40.2,-48.34" fill="none" stroke="rgb(220, 208, 186)" stroke-width="2" stroke-linejoin="round" filter="url(#fuzzy)" /><polyline points="-33.12,-60.54 -33.53,-60.05 -34.33,-59.23 -35.11,-58.52 -35.84,-57.91 -36.56,-57.27 -37.26,-56.57 -37.93,-55.83 -38.59,-55.07 -39.2,-54.34 -39.77,-53.65 -40.29,-52.98 -40.77,-52.31 -41.24,-51.61 -41.72,-50.83 -42.23,-50 -42.78,-49.12 -43.37,-48.25 -43.96,-47.41 -44.52,-46.64 -45.05,-45.91 -45.56,-45.16 -46.09,-44.29 -46.69,-43.18 -47.37,-41.68 -35.92,-58.26 -34.96,-59.31 -33.98,-60.46 -33.17,-61.7 -32.57,-63.13 -32.18,-64.69 -31.9,-66.16 -31.56,-67.43 -31.1,-68.57 -30.54,-69.77 -30.01,-71.21 -29.6,-72.88 -29.42,-74.65 -29.48,-76.49 -29.7,-78.72 -30.28,-81.82" fill="none" stroke="rgb(220, 208, 186)" stroke-width="2" stroke-linejoin="round" filter="url(#fuzzy)" /><polyline points="80.8,10.04 79.36,10.12 77.06,8.95 75.44,7.53 74.69,6.19 74.38,4.95 74.08,3.72 73.67,2.45 73.23,1.12 72.81,-0.24 72.31,-1.6 71.5,-2.9 70.19,-4.14 68.45,-5.34 66.53,-6.52 64.79,-7.72 63.46,-8.95 62.56,-10.15 61.98,-11.28 61.62,-12.29 61.53,-13.2 61.79,-14.13 61.91,-15.31 58.88,-16.5" fill="none" stroke="rgb(220, 208, 186)" stroke-width="2" stroke-linejoin="round" filter="url(#fuzzy)" /><polyline points="-61.51,-59.9 -58.48,-58.31 -56.49,-57.65 -54.99,-57.48 -53.46,-57.43 -51.89,-57.5 -50.45,-57.78 -49.23,-58.2 -48.11,-58.54 -46.96,-58.62 -45.77,-58.48 -44.67,-58.38 -43.7,-58.44 -42.57,-58.37 -40.88,-57.71 -38.85,-56.8 -37.43,-57.21 -37.43,-57.21 -38.34,-56.06 -39.07,-55.18 -39.62,-54.32 -39.88,-53.3 -39.81,-52.02 -39.55,-50.53 -39.32,-49.01 -39.3,-47.65 -39.53,-46.51 -39.95,-45.55 -40.45,-44.69 -40.9,-43.84 -41.24,-42.93 -41.49,-41.94 -41.68,-40.9 -41.89,-39.86 -42.17,-38.86 -42.52,-37.93 -42.85,-37.02 -43.05,-36.04 -43.05,-34.92 -42.85,-33.69 -42.54,-32.46 -42.61,-31.71 -39.27,-55.01 -39.92,-54.45 -40.55,-53.89 -41.08,-53.44 -41.64,-53.03 -42.31,-52.61 -43.16,-52.2 -44.21,-51.87 -45.45,-51.65 -46.83,-51.55 -48.22,-51.5 -49.46,-51.35 -50.43,-50.94 -51.1,-50.18 -51.59,-49.15 -52.09,-48.04 -52.79,-47.1 -53.81,-46.49 -55.13,-46.16 -56.55,-45.88 -57.59,-45.35" fill="none" stroke="rgb(220, 208, 186)" stroke-width="2" stroke-linejoin="round" filter="url(#fuzzy)" /><polyline points="-33.46,-82.61 -32.41,-82.19 -32.43,-79.97 -32.87,-77.68 -33.39,-75.76 -33.82,-74.07 -34.2,-72.53 -34.63,-71.11 -35.2,-69.83 -35.91,-68.63 -36.67,-67.43 -37.39,-66.15 -38,-64.8 -38.52,-63.48 -39.06,-62.33 -39.76,-61.46 -40.58,-60.76 -41.13,-59.7 -40.7,-57.32 -39.8,-54.69 48.57,-40.9 49.59,-39.38 50.25,-38.34 50.75,-37.49 51.22,-36.65 51.72,-35.77 52.25,-34.85 52.78,-33.91 53.28,-32.98 53.74,-32.06 54.15,-31.15 54.53,-30.21 54.89,-29.21 55.25,-28.14 55.61,-27.03 55.97,-25.93 56.32,-24.9 56.67,-23.95 57,-23.07 57.33,-22.18 57.67,-21.21 57.99,-20.13 58.3,-19.01 58.59,-18.04 58.86,-17.51 58.86,-17.51 58.67,-18.07 58.35,-19.02 57.87,-20.07 57.3,-21.05 56.77,-21.94 56.35,-22.79 56.02,-23.66 55.71,-24.6 55.35,-25.61 54.93,-26.66 54.45,-27.69 53.95,-28.67 53.45,-29.57 52.95,-30.41 52.42,-31.22 51.85,-32.04 51.24,-32.88 50.6,-33.72 49.94,-34.51 49.27,-35.22 48.58,-35.78 47.92,-36.21 47.24,-37.06" fill="none" stroke="rgb(220, 208, 186)" stroke-width="2" stroke-linejoin="round" filter="url(#fuzzy)" /><polyline points="-42.94,-51.21 -43.35,-50.78 -44.25,-49.93 -45.14,-49.16 -45.98,-48.57 -46.88,-48.14 -47.91,-47.81 -49.07,-47.52 -50.29,-47.19 -51.45,-46.78 -52.48,-46.24 -53.34,-45.56 -54.08,-44.79 -54.78,-44.01 -55.54,-43.26 -56.44,-42.59 -57.47,-41.96 -58.6,-41.29 -59.68,-40.51 -60.61,-39.55 -61.36,-38.42 -62.09,-37.22 -63.15,-36.13 -64.78,-35.29 -67.03,-34.56 -42.72,-51.38 -42.61,-51.6 -42.21,-52.24 -41.79,-52.94 -41.42,-53.64 -41.07,-54.44 -40.73,-55.39 -40.36,-56.47 -39.93,-57.57 -39.39,-58.57 -38.74,-59.42 -37.99,-60.15 -37.17,-60.81 -36.31,-61.48 -35.41,-62.21 -34.52,-63.03 -33.68,-63.98 -32.95,-65.01 -32.35,-66.08 -31.84,-67.1 -31.33,-67.98 -30.68,-68.73 -29.76,-69.45 -28.33,-70.4" fill="none" stroke="rgb(220, 208, 186)" stroke-width="2" stroke-linejoin="round" filter="url(#fuzzy)" /><polyline points="-45.74,-47.76 -44.52,-47.74 -43.35,-48.24 -42.54,-49.11 -41.98,-50.05 -41.48,-50.84 -40.94,-51.42 -40.35,-51.83 -39.73,-52.16 -39.07,-52.51 -38.35,-52.91 -37.57,-53.37 -36.74,-53.86 -35.87,-54.35 -34.91,-54.88 -33.74,-56.01" fill="none" stroke="rgb(220, 208, 186)" stroke-width="2" stroke-linejoin="round" filter="url(#fuzzy)" /><polyline points="-48.72,-42.87 -48.57,-42.11 -48.6,-41.05 -48.62,-39.86 -48.7,-38.75 -48.87,-37.77 -49.13,-36.85 -49.48,-35.93 -49.94,-34.99 -50.47,-34.02 -50.98,-33.02 -51.4,-31.95 -51.71,-30.83 -51.93,-29.68 -52.08,-28.59 -52.17,-27.66 -52.17,-26.88 -52.08,-25.83" fill="none" stroke="rgb(220, 208, 186)" stroke-width="2" stroke-linejoin="round" filter="url(#fuzzy)" /><polyline points="-49.5,-41.85 -50.16,-40.88 -51.17,-40.4 -52.48,-40.25 -53.85,-40.07 -55.16,-39.68 -56.32,-39.06 -57.26,-38.19 -57.91,-37.11 -58.34,-35.9 -58.67,-34.66 -59.03,-33.49 -59.48,-32.44 -60.04,-31.49 -60.72,-30.57 -61.54,-29.64 -62.57,-28.7 -63.8,-27.77 -65.15,-26.89 -66.44,-26.06 -67.57,-25.23 -68.55,-24.29 -69.53,-23.2 -70.62,-22.03 -71.87,-20.81" fill="none" stroke="rgb(220, 208, 186)" stroke-width="2" stroke-linejoin="round" filter="url(#fuzzy)" /><polyline points="-50.18,-40.6 -50.59,-39.84 -50.99,-39.11 -51.36,-38.31 -51.76,-37.37 -52.19,-36.29 -52.64,-35.16 -53.11,-34.04 -53.58,-32.94 -54.04,-31.89 -54.47,-30.88 -54.85,-29.93 -55.2,-29.02 -55.53,-28.09 -55.86,-27.09 -56.2,-25.97 -56.53,-24.75 -56.83,-23.56 -57.05,-22.51 -57.21,-21.6 -57.39,-20.56 -57.72,-19.07 -51.51,-38.34 -51.3,-39.12 -51.19,-40.21 -51.35,-41.63 -51.7,-43.28 -52.05,-44.96 -52.19,-46.53 -52.05,-47.88 -51.61,-48.98 -50.98,-49.86 -50.29,-50.65 -49.67,-51.48 -49.17,-52.49 -48.76,-53.68 -48.38,-54.98 -47.95,-56.26 -47.51,-57.49 -47.15,-58.69 -47.06,-59.96 -47.36,-61.19 -47.77,-61.79 -39.61,-48.9 -40.31,-48.52 -40.91,-47.85 -41.64,-47.07 -42.4,-46.36 -43.13,-45.75 -43.82,-45.2 -44.51,-44.66 -45.23,-44.08 -45.96,-43.45 -46.69,-42.75 -47.39,-42.03 -48.08,-41.32 -48.79,-40.64 -49.52,-40.02 -50.21,-39.42 -50.8,-38.89 -51.24,-38.55 -51.42,-38.58 -54.73,-31.39 -55.21,-30.41 -55.59,-29.61 -55.87,-28.88 -56.16,-28.04 -56.55,-27.03 -57.04,-25.9 -57.59,-24.77 -58.15,-23.71 -58.66,-22.74 -59.1,-21.8 -59.46,-20.82 -59.72,-19.8 -59.94,-18.78 -60.18,-17.84 -60.52,-16.94 -61.01,-15.76 -61.62,-13.48" fill="none" stroke="rgb(220, 208, 186)" stroke-width="2" stroke-linejoin="round" filter="url(#fuzzy)" /><polyline points="-55.62,-28.68 -55.17,-30.05 -55,-31.46 -55.19,-33.05 -55.78,-34.9 -56.66,-36.95 -57.55,-39.05 -58.21,-41.01 -58.51,-42.65 -58.46,-43.95 -58.18,-45.02 -57.89,-46.1 -57.89,-47.51 -58.37,-49.35 -59.35,-51.48 -61.32,-53.95 -55.47,-29.26 -59.54,-29.95 -62.48,-30 -62.9,-28.57 -62.35,-26.7 -62.03,-25.12 -62.32,-23.98 -63.13,-23.11 -64.33,-22.32 -65.8,-21.59 -67.48,-20.92 -69.29,-20.3 -71.25,-19.66 -73.57,-18.91 -76.25,-18.13 -77.89,-18.07 -55.47,-29.26 -56.38,-29.94 -57.65,-31.7 -58.55,-33.58 -58.76,-35.17 -58.55,-36.58 -58.37,-38.04 -58.49,-39.73 -58.98,-41.65 -59.67,-43.66 -60.34,-45.58 -60.82,-47.34 -61.08,-48.95 -61.17,-50.51 -61.18,-52.07 -61.18,-53.73 -61.31,-55.63 -61.73,-57.94 -62.44,-60.62 -62.82,-62.91 -61.56,-63.53 -55.47,-29.26 -55.9,-28.15 -56.38,-26.98 -56.95,-25.66 -57.51,-24.41 -57.99,-23.32 -58.39,-22.33 -58.78,-21.38 -59.21,-20.43 -59.65,-19.48 -60.08,-18.53 -60.44,-17.57 -60.75,-16.6 -61,-15.6 -61.23,-14.58 -61.47,-13.54 -61.73,-12.46 -62.03,-11.34 -62.33,-10.22 -62.62,-9.02 -63.02,-6.89" fill="none" stroke="rgb(220, 208, 186)" stroke-width="2" stroke-linejoin="round" filter="url(#fuzzy)" /><polyline points="-71.71,-7.84 -70.81,-10.18 -70.54,-11.54 -69.81,-12.71 -68.71,-13.79 -67.59,-14.81 -66.71,-15.82 -66.09,-16.85 -65.62,-17.88 -65.2,-18.9 -64.75,-19.9 -64.17,-20.87 -63.4,-21.79 -62.37,-22.57 -61.1,-23.18 -59.68,-23.68 -58.24,-24.37 -56.97,-25.69 -56.11,-27.72" fill="none" stroke="rgb(220, 208, 186)" stroke-width="2" stroke-linejoin="round" filter="url(#fuzzy)" /><polyline points="-57.7,-22.55 -56.93,-24.96 -56.4,-26.58 -56.02,-27.67 -55.69,-28.53 -55.36,-29.35 -55,-30.23 -54.59,-31.19 -54.15,-32.22 -53.67,-33.29 -53.18,-34.39 -52.7,-35.47 -52.22,-36.53 -51.75,-37.53 -51.3,-38.45 -50.86,-39.32 -50.4,-40.15 -49.93,-40.98 -49.43,-41.81 -48.92,-42.66 -48.37,-43.55 -47.74,-44.59 -46.96,-45.73" fill="none" stroke="rgb(220, 208, 186)" stroke-width="2" stroke-linejoin="round" filter="url(#fuzzy)" /><polyline points="-57.77,-22.19 -57.72,-23.41 -57.4,-25.13 -56.94,-26.59 -56.55,-27.73 -56.3,-28.72 -56.22,-29.72 -56.22,-30.82 -56.24,-32.03 -56.21,-33.33 -56.12,-34.67 -55.96,-36.02 -55.72,-37.36 -55.42,-38.64 -55.09,-39.84 -54.79,-40.93 -54.54,-41.95 -54.36,-43 -54.22,-44.21 -53.74,-45.43" fill="none" stroke="rgb(220, 208, 186)" stroke-width="2" stroke-linejoin="round" filter="url(#fuzzy)" /><polyline points="58.28,-20.42 57.78,-21.63 57.29,-22.48 56.81,-23.15 56.37,-23.85 55.95,-24.7 55.54,-25.72 55.11,-26.83 54.65,-27.91 54.12,-28.86 53.52,-29.67 52.87,-30.38 52.21,-31.08 51.55,-31.82 50.84,-32.6 50.07,-33.35 49.22,-34.02 48.38,-34.61 47.76,-35.14 47.92,-35.28" fill="none" stroke="rgb(220, 208, 186)" stroke-width="2" stroke-linejoin="round" filter="url(#fuzzy)" /><polyline points="57.85,-21.89 57.66,-22.85 58.1,-23.8 58.88,-24.99 59.41,-26.3 59.46,-27.6 59.13,-28.86 58.65,-30.04 58.25,-31.19 58.09,-32.38 58.26,-33.72 58.78,-35.31 59.6,-37.17 60.63,-39.27 61.75,-41.49 62.89,-43.76 64.05,-46.03 65.24,-48.34 66.29,-50.65 66.58,-52.9 65.35,-55.03 57.85,-21.89 57.52,-22.79 57.31,-23.46 57.07,-24.21 56.75,-25.13 56.36,-26.2 55.93,-27.36 55.51,-28.49 55.11,-29.54 54.72,-30.52 54.33,-31.44 53.92,-32.37 53.5,-33.32 53.07,-34.29 52.61,-35.27 52.14,-36.22 51.66,-37.13 51.16,-38 50.64,-38.86 50.12,-39.73 49.61,-40.6 49.1,-41.44 48.54,-42.23 47.91,-42.99 57.49,-23.19 58.35,-24.6 58.66,-25.81 58.25,-26.97 57.69,-28.22 57.48,-29.6 57.82,-31.13 58.64,-32.8 59.67,-34.53 60.5,-36.19 60.84,-37.69 60.74,-39.06 60.53,-40.45 60.63,-42.05 61.12,-43.85 61.62,-45.37 62.22,-45.81" fill="none" stroke="rgb(220, 208, 186)" stroke-width="2" stroke-linejoin="round" filter="url(#fuzzy)" /><polyline points="56.92,-25.12 57.83,-25.18 60.31,-25.52 62.78,-25.71 64.59,-25.47 65.64,-24.77 65.99,-23.67 65.91,-22.35 65.87,-21.02 66.34,-19.84 67.57,-18.85 69.48,-18.02 71.74,-17.3 73.97,-16.65 75.81,-16.03 77.07,-15.24 78.15,-13.97 81.37,-11.63" fill="none" stroke="rgb(220, 208, 186)" stroke-width="2" stroke-linejoin="round" filter="url(#fuzzy)" /><polyline points="56.92,-25.12 56.97,-24.82 57.13,-24.22 57.29,-23.49 57.45,-22.64 57.6,-21.66 57.73,-20.59 57.83,-19.47 57.9,-18.34 57.93,-17.23 57.94,-16.12 57.94,-15.04 57.94,-14 57.96,-13 58.02,-12.03 58.09,-11.04 58.12,-9.98 58.08,-8.83 57.95,-7.6 57.76,-6.35 57.57,-5.13 57.41,-4 57.27,-3.02 57.01,-2.22 55.22,-29.82 55.94,-28.33 56.87,-26.89 57.61,-25.81 58.09,-24.93 58.36,-24.09 58.55,-23.2 58.73,-22.23 58.98,-21.19 59.33,-20.14 59.77,-19.11 60.31,-18.11 60.9,-17.11 61.45,-16.09 61.88,-15.08 62.14,-14.11 62.25,-13.24 62.37,-12.39 62.74,-11.27 63.49,-9.08 39.37,-42.79 40.2,-42.38 40.97,-42.23 41.61,-42.07 42.2,-41.74 42.79,-41.23 43.38,-40.59 43.99,-39.9 44.67,-39.26 45.48,-38.7 46.4,-38.25 47.37,-37.83 48.29,-37.37 49.08,-36.8 49.71,-36.1 50.26,-35.29 50.82,-34.44 51.47,-33.6 52.2,-32.79 52.96,-32.04 53.66,-31.34 54.3,-30.71 54.87,-30.13 55.22,-29.82" fill="none" stroke="rgb(220, 208, 186)" stroke-width="2" stroke-linejoin="round" filter="url(#fuzzy)" /><polyline points="55.22,-29.82 55.81,-28.26 56.46,-26.7 57.05,-25.55 57.64,-24.71 58.28,-24 59.01,-23.29 59.81,-22.52 60.63,-21.67 61.41,-20.75 62.13,-19.77 62.81,-18.77 63.5,-17.75 64.19,-16.73 64.86,-15.74 65.47,-14.79 66.03,-13.87 66.57,-12.93 67.15,-11.85 67.7,-10.56 68.13,-9.02 68.54,-6.81 55.22,-29.82 56.43,-28.56 57.5,-27.18 58.19,-26.06 58.59,-25.12 58.94,-24.28 59.37,-23.45 59.84,-22.55 60.31,-21.58 60.79,-20.55 61.31,-19.51 61.86,-18.48 62.45,-17.45 63.06,-16.44 63.71,-15.45 64.47,-14.53 65.36,-13.66 66.29,-12.77 67.12,-11.74 67.72,-10.49 68.08,-9.09 68.3,-7.72 68.24,-7 55.2,-29.84 56.42,-31.9 57.35,-33.51 57.14,-34.5 56.62,-35.51 56.45,-36.86 56.84,-38.56 57.53,-40.42 58.14,-42.18 58.48,-43.76 58.67,-45.29 58.99,-47.01 59.57,-48.96 60.23,-50.95 60.64,-52.81 61.03,-54.76" fill="none" stroke="rgb(220, 208, 186)" stroke-width="2" stroke-linejoin="round" filter="url(#fuzzy)" /><polyline points="69.29,-14.63 68.49,-16.36 67.78,-17.94 67.1,-19.18 66.16,-20.13 64.97,-20.96 63.71,-21.78 62.53,-22.61 61.47,-23.39 60.53,-24.1 59.64,-24.76 58.79,-25.45 58.04,-26.31 57.47,-27.42 57.15,-28.79 57.12,-30.21 56.94,-31.24 54.59,-31.09" fill="none" stroke="rgb(220, 208, 186)" stroke-width="2" stroke-linejoin="round" filter="url(#fuzzy)" /><polyline points="54.27,-32.37 53.88,-30.85 53.64,-29.59 53.81,-28.5 54,-27.29 54.03,-25.94 53.93,-24.63 53.82,-23.47 53.77,-22.48 53.8,-21.6 53.89,-20.7 53.94,-19.71 53.81,-18.6 53.38,-17.4 52.6,-16.22 51.52,-15.15 50.28,-14.09" fill="none" stroke="rgb(220, 208, 186)" stroke-width="2" stroke-linejoin="round" filter="url(#fuzzy)" /><polyline points="53.67,-33.74 54.28,-32.6 54.67,-31.96 55.01,-31.27 55.46,-30.48 56.06,-29.59 56.77,-28.61 57.52,-27.6 58.23,-26.61 58.86,-25.68 59.41,-24.82 59.92,-23.97 60.46,-23.09 61.08,-22.17 61.79,-21.22 62.56,-20.26 63.34,-19.32 64.19,-18.36 65.26,-17.27 66.62,-15.92 67.76,-14.31 53.19,-35.01 52.02,-36.66 51.29,-37.64 50.76,-38.48 50.25,-39.33 49.65,-40.11 48.9,-40.76 47.98,-41.24 46.96,-41.61 45.93,-41.97 45.02,-42.4 44.29,-42.92 43.7,-43.51 43.13,-44.08 42.44,-44.57 41.56,-44.97 40.5,-45.31 39.39,-45.64 38.34,-45.97 37.39,-46.27 36.48,-46.45 35.52,-46.57 34.69,-47.16" fill="none" stroke="rgb(220, 208, 186)" stroke-width="2" stroke-linejoin="round" filter="url(#fuzzy)" /><polyline points="36.87,-50.12 37.81,-49.57 38.66,-49.24 39.46,-48.84 40.17,-48.23 40.84,-47.41 41.51,-46.54 42.19,-45.73 42.88,-45.08 43.58,-44.55 44.28,-44.08 44.97,-43.58 45.66,-43.02 46.35,-42.41 47.05,-41.75 47.74,-41.08 48.43,-40.39 49.08,-39.66 49.66,-38.86 50.13,-37.99 50.61,-37.12 51.54,-36.3 53.19,-35.01" fill="none" stroke="rgb(220, 208, 186)" stroke-width="2" stroke-linejoin="round" filter="url(#fuzzy)" /><polyline points="78.22,-16.52 75.99,-18.16 74.71,-19.81 74.13,-21.25 73.58,-22.49 72.69,-23.58 71.43,-24.53 69.92,-25.36 68.38,-26.09 67.01,-26.82 65.92,-27.64 65.12,-28.6 64.53,-29.72 63.98,-30.91 63.32,-32.04 62.39,-32.97 61.18,-33.62 59.79,-34.09 58.49,-34.57 57.54,-35.3 57,-36.36 56.65,-37.52 55.88,-38.24 51.97,-37.47 51.97,-37.47 51.37,-38.08 50.8,-38.57 49.9,-39.02 48.8,-39.4 47.73,-39.77 46.79,-40.22 45.98,-40.77 45.23,-41.34 44.47,-41.87 43.7,-42.31 42.92,-42.63 42.13,-42.87 41.23,-43.03 40.14,-43.15 38.8,-43.22 37.3,-43.22 35.93,-43.09 35.21,-43.13 57.34,-18.48 57.25,-19.94 57.04,-21.17 56.86,-22.17 56.68,-23.03 56.48,-23.87 56.21,-24.8 55.9,-25.85 55.57,-26.99 55.24,-28.15 54.94,-29.26 54.63,-30.26 54.3,-31.17 53.92,-32.05 53.5,-32.98 53.05,-33.98 52.64,-35.05 52.29,-36.14 51.85,-37.33 51.11,-38.61 51.11,-38.61 52.14,-37.5 53.6,-36.95 55.24,-36.64 56.53,-36.09 57.42,-35.3 58.15,-34.46 58.94,-33.68 59.78,-32.91 60.59,-32.04 61.3,-31.03 61.96,-29.93 62.64,-28.84 63.39,-27.84 64.24,-26.95 65.21,-26.13 66.32,-25.34 67.54,-24.53 68.79,-23.65 69.94,-22.69 71.01,-21.69 72.26,-20.67 74.03,-19.58 76.25,-18.22 77.79,-16.43 51.11,-38.61 51.36,-38.95 51.25,-40.09 51.29,-41.53 51.57,-43.12 51.96,-44.78 52.32,-46.49 52.61,-48.21 52.81,-49.85 52.88,-51.32 52.86,-52.57 52.94,-53.82 53.33,-55.43 54,-57.72 54.38,-60.5 53.36,-63.17 50.67,-39.75 49.82,-40.8 49.26,-41.45 48.67,-42.13 48.09,-42.92 47.54,-43.77 47.01,-44.58 46.47,-45.31 45.91,-45.95 45.32,-46.55 44.65,-47.17 43.9,-47.82 43.1,-48.52 42.28,-49.26 41.5,-49.99 40.78,-50.7 40.08,-51.39 39.37,-52.08 38.64,-52.78 37.92,-53.44 37.27,-53.9 36.89,-53.98" fill="none" stroke="rgb(220, 208, 186)" stroke-width="2" stroke-linejoin="round" filter="url(#fuzzy)" /><polyline points="36.39,-46.6 37.76,-46.73 38.74,-46.54 39.94,-46.34 41.2,-46.07 42.3,-45.69 43.16,-45.26 43.86,-44.84 44.51,-44.45 45.23,-44.06 46.05,-43.63 46.9,-43.12 47.72,-42.53 48.49,-41.93 49.16,-41.48 49.45,-41.64 32.65,-57.23 33.17,-56.87 34.17,-56.17 35.21,-55.58 36.1,-55.11 36.84,-54.71 37.51,-54.3 38.19,-53.84 38.89,-53.32 39.61,-52.73 40.34,-52.1 41.06,-51.45 41.81,-50.75 42.56,-50 43.31,-49.16 44.02,-48.28 44.66,-47.43 45.22,-46.72 45.78,-46.21 46.43,-45.82 47.17,-45.26 47.98,-44.13 45.86,-47.46 46.19,-46.13 46.51,-44.94 46.86,-43.81 47.15,-42.68 47.4,-41.59 47.67,-40.55 47.9,-39.52 47.97,-38.37 47.81,-37.07 47.48,-35.66 47.13,-34.26 46.96,-32.98 47.07,-31.89 47.42,-30.94 47.84,-30.03 48.17,-29.13 48.36,-28.24 48.4,-27.37 48.17,-26.45 47.17,-25.47 46.36,-46.48 47.05,-47.47 49.23,-48.76 50.89,-49.08 51.74,-48.4 52.33,-47.41 53.03,-46.52 53.86,-45.77 54.71,-45.06 55.54,-44.33 56.42,-43.62 57.4,-42.96 58.53,-42.37 59.86,-41.86 61.41,-41.42 63.17,-41.04 65.04,-40.69 66.89,-40.35 68.59,-39.99 70.13,-39.61 71.55,-39.24 72.82,-38.87 73.69,-38.13 45.43,-47.86 44.51,-48.9 43.55,-49.97 42.76,-50.86 42.08,-51.62 41.42,-52.32 40.74,-53 40.05,-53.66 39.36,-54.3 38.7,-54.89 38.06,-55.44 37.41,-55.98 36.71,-56.58 35.94,-57.26 35.1,-58.02 34.21,-58.79 33.28,-59.52 32.29,-60.21 31.27,-60.88 30.74,-61.22" fill="none" stroke="rgb(220, 208, 186)" stroke-width="2" stroke-linejoin="round" filter="url(#fuzzy)" /><polyline points="41.3,-52.89 42.07,-52.09 42.69,-51.31 43.37,-50.38 44.1,-49.37 44.79,-48.42 45.37,-47.59 45.86,-46.88 46.31,-46.21 46.76,-45.5 47.25,-44.72 47.77,-43.88 48.3,-43.02 48.79,-42.18 49.21,-41.38 49.56,-40.58 50.18,-39.36" fill="none" stroke="rgb(220, 208, 186)" stroke-width="2" stroke-linejoin="round" filter="url(#fuzzy)" /><polyline points="41.3,-52.89 41.85,-54.88 42.02,-56.88 41.59,-58.01 40.95,-58.7 40.38,-59.42 39.95,-60.5 39.69,-62.09 39.54,-64.11 39.39,-66.32 39.13,-68.44 38.66,-70.24 37.98,-71.63 37.13,-72.67 36.21,-73.52 35.32,-74.35 34.53,-75.29 33.9,-76.43 33.48,-77.87 33.28,-79.66 33.18,-81.68 32.91,-83.38 32.55,-83.8" fill="none" stroke="rgb(220, 208, 186)" stroke-width="2" stroke-linejoin="round" filter="url(#fuzzy)" /><polyline points="41.3,-52.89 40.58,-53.11 39.56,-53.42 38.63,-53.79 37.85,-54.15 37.13,-54.45 36.36,-54.72 35.48,-55.01 34.51,-55.36 33.47,-55.72 32.38,-56.01 31.23,-56.17 30.07,-56.22 28.93,-56.21 27.87,-56.15 26.78,-55.88 25.57,-55.31 24.73,-55.12" fill="none" stroke="rgb(220, 208, 186)" stroke-width="2" stroke-linejoin="round" filter="url(#fuzzy)" /><polyline points="41.08,-53.26 40.63,-54.95 40.37,-56.46 40.06,-57.52 39.77,-58.48 39.38,-59.39 38.77,-60.24 37.96,-61.04 37.05,-61.89 36.16,-62.82 35.33,-63.86 34.56,-64.94 33.83,-66.02 33.16,-67.11 32.57,-68.3 32.05,-69.72 31.57,-71.4 30.95,-73.39 41.08,-53.26 41.46,-52.7 41.98,-51.99 42.53,-51.15 43.12,-50.15 43.71,-49.06 44.23,-47.97 44.64,-46.97 44.95,-46.07 45.21,-45.22 45.44,-44.33 45.71,-43.38 46.04,-42.39 46.44,-41.43 46.83,-40.52 47.04,-39.71 46.82,-39.43 37.69,-56.76 37.17,-57.63 36.3,-58.87 35.37,-59.89 34.48,-60.81 33.68,-61.78 32.96,-62.83 32.29,-63.9 31.63,-64.91 30.99,-65.85 30.36,-66.72 29.77,-67.56 29.22,-68.36 28.67,-69.11 28.09,-69.8 27.44,-70.49 26.73,-71.26 25.93,-72.17 25.06,-73.17 24.17,-74.19 23.32,-75.23 22.55,-76.45 21.77,-77.7 46.46,-34.2 45.85,-35.75 45.72,-37.17 45.69,-38.37 45.62,-39.5 45.49,-40.62 45.32,-41.73 45.1,-42.77 44.81,-43.69 44.45,-44.51 44.04,-45.3 43.58,-46.12 43.09,-47.04 42.57,-48.03 42.03,-49.03 41.47,-50 40.92,-50.94 40.41,-51.9 39.94,-52.92 39.49,-53.97 39.03,-54.95 38.58,-55.74 38.17,-56.29 37.69,-56.76" fill="none" stroke="rgb(220, 208, 186)" stroke-width="2" stroke-linejoin="round" filter="url(#fuzzy)" /><polyline points="18.81,-70.34 19.61,-69.93 20.48,-69.49 21.38,-69.04 22.32,-68.53 23.25,-67.96 24.16,-67.36 25,-66.79 25.75,-66.28 26.45,-65.82 27.11,-65.41 27.77,-65.02 28.45,-64.6 29.17,-64.14 29.91,-63.62 30.68,-63.03 31.47,-62.37 32.29,-61.65 33.13,-60.88 33.99,-60.1 34.88,-59.27 35.96,-58.28 37.49,-56.91 34.19,-59.84 37.02,-60.84 40.1,-62.85 41.79,-63.49 42.21,-62.61 42.13,-61.04 42.17,-59.52 42.63,-58.45 43.51,-57.86 44.68,-57.62 46.02,-57.56 47.47,-57.54 49.05,-57.51 50.84,-57.56 52.93,-57.82 55.24,-58.42 57.52,-59.27 59.34,-59.98 60.4,-59.98 60.4,-58.79" fill="none" stroke="rgb(220, 208, 186)" stroke-width="2" stroke-linejoin="round" filter="url(#fuzzy)" /><polyline points="33.45,-60.6 31.95,-61.76 31.11,-62.41 30.36,-62.95 29.59,-63.46 28.85,-63.95 28.15,-64.4 27.48,-64.81 26.83,-65.21 26.17,-65.62 25.45,-66.07 24.66,-66.56 23.81,-67.08 22.91,-67.62 22,-68.14 21.09,-68.64 20.21,-69.1 19.35,-69.54 18.52,-69.94 17.69,-70.32 16.85,-70.69 15.94,-71.07 14.83,-71.51 13.63,-71.94" fill="none" stroke="rgb(220, 208, 186)" stroke-width="2" stroke-linejoin="round" filter="url(#fuzzy)" /><polyline points="29.03,-63.5 31.18,-64.95 33.26,-66.94 34.49,-67.13 35.15,-65.94 35.75,-64.43 36.6,-63.32 37.77,-62.75 39.1,-62.52 40.4,-62.45 41.62,-62.5 42.86,-62.75 44.22,-63.19 45.67,-63.56 47.07,-63.56 48.38,-63.32 49.93,-63.94 53.76,-69.7 51.67,-69.78 50,-69.81 48.19,-69.06 46.37,-68.03 44.92,-67.62 43.98,-68.28 43.33,-69.65 42.53,-70.87 41.14,-71.07 39.03,-69.93 36.46,-67.89 34,-65.87 32.09,-64.55 30.58,-63.77 29.03,-63.5" fill="none" stroke="rgb(220, 208, 186)" stroke-width="2" stroke-linejoin="round" filter="url(#fuzzy)" /><polyline points="12.31,-60.35 13.85,-61.06 14.83,-61.8 15.75,-62.44 16.69,-62.96 17.63,-63.31 18.56,-63.5 19.49,-63.53 20.42,-63.42 21.37,-63.19 22.31,-62.92 23.26,-62.76 24.22,-62.81 25.17,-63.1 26.1,-63.55 26.96,-63.93 27.72,-64.07 28.43,-63.87 29.03,-63.5 27.3,-64.66 27.62,-64.32 28.13,-63.42 28.61,-62.22 29.15,-61.11 29.84,-60.27 30.67,-59.65 31.6,-59.11 32.53,-58.53 33.41,-57.83 34.22,-57.02 34.95,-56.15 35.58,-55.28 36.15,-54.44 36.65,-53.63 37.1,-52.81 37.54,-51.95 37.98,-51.05 38.45,-50.15 38.93,-49.28 39.39,-48.4 39.81,-47.42 40.26,-46.25 40.88,-44.94 41.7,-43.93 26.95,-64.77 26.29,-66.29 25.89,-67.57 25.23,-68.67 24.45,-69.89 23.65,-71.11 22.85,-72.2 22.04,-73.19 21.26,-74.14 20.47,-75.06 19.66,-75.88 18.78,-76.5 17.81,-76.92 16.8,-77.24 15.79,-77.57 14.84,-77.99 13.99,-78.54 13.23,-79.27 12.5,-80.22 11.7,-81.43 10.74,-82.83 9.5,-84.24 8.01,-85.54 6.75,-86.51 22.61,-67.38 24.36,-66.53 25.34,-66.26 26.1,-66.18 26.84,-66.15 27.6,-66.13 28.4,-66.12 29.32,-66.17 30.41,-66.39 31.71,-66.87 33.25,-67.64 35,-68.64 36.91,-69.75 38.92,-70.81 40.93,-71.68 42.89,-72.23 44.75,-72.35 46.57,-72.31 48.57,-72.88 50.87,-74.43 5.06,-70.02 5.45,-70.13 5.99,-70.19 6.86,-70.23 7.91,-70.24 8.98,-70.23 9.96,-70.22 10.83,-70.2 11.62,-70.16 12.38,-70.09 13.18,-69.96 14.05,-69.78 14.97,-69.55 15.9,-69.3 16.81,-69.05 17.69,-68.81 18.56,-68.61 19.43,-68.4 20.32,-68.15 21.2,-67.88 21.92,-67.63" fill="none" stroke="rgb(220, 208, 186)" stroke-width="2" stroke-linejoin="round" filter="url(#fuzzy)" /><polyline points="3.77,-70.95 4.15,-71.02 4.77,-71.08 5.39,-71.1 6.1,-71.05 6.95,-70.92 7.92,-70.75 8.92,-70.59 9.87,-70.47 10.76,-70.4 11.57,-70.36 12.36,-70.3 13.17,-70.2 14.04,-70.02 14.95,-69.78 15.89,-69.5 16.8,-69.25 17.69,-69.03 18.55,-68.82 19.41,-68.57 20.31,-68.23 21.39,-67.85" fill="none" stroke="rgb(220, 208, 186)" stroke-width="2" stroke-linejoin="round" filter="url(#fuzzy)" /><polyline points="17.86,-69.41 16.48,-68.37 15.62,-68.69 14.68,-69.16 13.72,-69.51 12.88,-69.75 12.13,-69.87 11.41,-69.85 10.62,-69.66 9.7,-69.29 8.68,-68.78 7.61,-68.16 6.59,-67.47 5.72,-66.82 5.01,-66.34 4.42,-66.16 3.86,-66.19 3.49,-65.64 17.86,-69.41 18.52,-69.1 19.3,-68.77 20.16,-68.42 21.07,-68.04 22.01,-67.62 22.96,-67.15 23.89,-66.68 24.75,-66.22 25.53,-65.78 26.25,-65.38 26.94,-65.01 27.62,-64.64 28.33,-64.27 29.08,-63.88 29.87,-63.45 30.7,-62.98 31.57,-62.44 32.45,-61.85 33.36,-61.18 34.28,-60.46 35.23,-59.66 36.25,-58.78 37.32,-57.85 38.04,-57.29" fill="none" stroke="rgb(220, 208, 186)" stroke-width="2" stroke-linejoin="round" filter="url(#fuzzy)" /><polyline points="14.36,-70.38 16.17,-71.26 17.1,-71.3 17.95,-71.21 18.91,-71.35 19.98,-71.73 21.08,-72.08 22.17,-72.23 23.27,-72.19 24.43,-72.12 25.63,-72.15 26.82,-72.27 27.9,-72.38 28.84,-72.38 29.68,-72.34 30.55,-72.48 31.62,-73.04 32.87,-73.8 33.76,-73.85" fill="none" stroke="rgb(220, 208, 186)" stroke-width="2" stroke-linejoin="round" filter="url(#fuzzy)" /><polyline points="13.38,-70.58 14.71,-70.89 16.23,-72.28 17.56,-73.61 18.75,-74.53 19.95,-75.31 21.21,-76.12 22.53,-76.96 23.9,-77.72 25.3,-78.36 26.72,-78.87 28.15,-79.3 29.52,-79.65 30.78,-79.91 31.93,-80.12 33.05,-80.44 34.29,-81.13 35.76,-82.26 37.41,-83.48 39.06,-84.13 40.76,-83.8 11.77,-71.12 13.07,-70.31 14.24,-69.57 15.21,-68.8 15.96,-67.81 16.53,-66.56 17.04,-65.2 17.55,-63.94 18.13,-62.91 18.79,-62.12 19.5,-61.47 20.25,-60.75 20.97,-59.77 21.58,-58.51 21.91,-57.24 21.62,-55.97 11.77,-71.12 13.53,-72.42 15.27,-74.06 16.61,-74.65 17.6,-74.35 18.49,-73.9 19.47,-73.85 20.61,-74.3 21.89,-75.09 23.27,-76 24.73,-76.9 26.25,-77.74 27.8,-78.48 29.26,-79.03 30.52,-79.27 31.53,-79.22 32.46,-79.24 33.45,-79.91 34.52,-81.85 11.77,-71.12 12.42,-73.78 12.09,-75 11.39,-76.3 10.47,-77.51 9.43,-78.59 8.41,-79.64 7.47,-80.67 6.62,-81.55 5.83,-82.19 5.04,-82.58 4.18,-82.83 3.23,-83.18 2.21,-83.88 1.14,-85.12 0.05,-86.87 -1.06,-88.89 -2.19,-90.81 -3.4,-92.35 -4.67,-93.46 -5.96,-94.29 -7.18,-95.26 -8.2,-98.11 10.54,-71.44 11.53,-71.32 12.21,-71.65 13.03,-72.43 14.08,-73.35 15.26,-74.13 16.48,-74.74 17.7,-75.28 18.91,-75.84 20.11,-76.41 21.28,-76.85 22.42,-77.04 23.53,-76.98 24.67,-76.82 25.92,-76.79 27.3,-77.08 28.76,-77.7 30.17,-78.42 31.4,-78.92 32.4,-79.01 33.26,-78.84 34.25,-78.88 35.67,-79.61 37.6,-80.97 39.64,-81.49 5.63,-72.15 5.53,-72.53 5.04,-72.77 4.39,-73.24 3.64,-73.99 2.79,-74.88 1.85,-75.78 0.89,-76.61 -0.07,-77.31 -1.01,-77.79 -1.97,-78.06 -2.97,-78.26 -4.03,-78.65 -5.12,-79.46 -6.18,-80.71 -7.19,-81.96 -8.26,-82.56 5.63,-72.15 6.88,-73.23 8.65,-75.96 10.19,-78.16 11.38,-79.09 12.37,-79.58 13.36,-80.5 14.47,-82.06 15.75,-83.91 17.17,-85.56 18.66,-86.81 20.16,-87.83 21.68,-89.06 23.24,-90.69 24.76,-92.21 25.98,-92.71" fill="none" stroke="rgb(220, 208, 186)" stroke-width="2" stroke-linejoin="round" filter="url(#fuzzy)" /><polyline points="5.2,-71.98 4.31,-72.58 3.58,-73.09 2.7,-73.59 1.72,-74.43 0.74,-75.73 -0.22,-77.31 -1.17,-78.85 -2.16,-80.11 -3.22,-81.14 -4.35,-82.29 -5.54,-83.96 -6.77,-86.36 -8.09,-89.21 -9.54,-91.48 -11.18,-91.34" fill="none" stroke="rgb(220, 208, 186)" stroke-width="2" stroke-linejoin="round" filter="url(#fuzzy)" /><polyline points="3.87,-72.38 4.86,-72.51 5.52,-72.59 6.22,-72.79 7.14,-73.1 8.21,-73.4 9.31,-73.54 10.32,-73.51 11.22,-73.4 12.03,-73.35 12.83,-73.45 13.71,-73.71 14.71,-73.98 15.8,-74.15 16.9,-74.19 17.93,-74.18 18.91,-74.19 19.9,-74.41 23.31,-60.95 21.67,-62.11 20.69,-62.89 19.93,-63.62 19.22,-64.35 18.51,-65.01 17.78,-65.61 17.03,-66.19 16.26,-66.78 15.46,-67.39 14.64,-67.97 13.81,-68.44 13,-68.76 12.2,-68.91 11.42,-68.94 10.61,-68.97 9.75,-69.12 8.82,-69.46 7.86,-69.97 6.92,-70.51 6.09,-70.96 5.43,-71.34 4.82,-71.82 3.87,-72.38" fill="none" stroke="rgb(220, 208, 186)" stroke-width="2" stroke-linejoin="round" filter="url(#fuzzy)" />
    </g>
    
        <g id="pointNose">
          <g id="rightNose"><circle r="2.7880000000000003" cx="7.890000000000001" cy="9.421999999999999" stroke="black" fill="none" stroke-width="1.0" filter="url(#fuzzy)" /><circle r="1.592" cx="7.018000000000001" cy="12.241999999999999" stroke="black" fill="none" stroke-width="1.0" filter="url(#fuzzy)" /><circle r="1.436" cx="8.594" cy="11.666" stroke="black" fill="none" stroke-width="1.0" filter="url(#fuzzy)" /><circle r="1.9" cx="8.546" cy="10.806" stroke="black" fill="none" stroke-width="1.0" filter="url(#fuzzy)" /><circle r="2.426" cx="7.577999999999999" cy="12.49" stroke="black" fill="none" stroke-width="1.0" filter="url(#fuzzy)" /><circle r="1.192" cx="7.026" cy="10.549999999999999" stroke="black" fill="none" stroke-width="1.0" filter="url(#fuzzy)" /><circle r="1.454" cx="6.390000000000001" cy="11.597999999999999" stroke="black" fill="none" stroke-width="1.0" filter="url(#fuzzy)" /><circle r="2.238" cx="6.981999999999999" cy="9.405999999999999" stroke="black" fill="none" stroke-width="1.0" filter="url(#fuzzy)" /><circle r="2.6180000000000003" cx="7.341999999999999" cy="12.174" stroke="black" fill="none" stroke-width="1.0" filter="url(#fuzzy)" /><circle r="2.774" cx="6.7620000000000005" cy="12.558" stroke="black" fill="none" stroke-width="1.0" filter="url(#fuzzy)" /></g>
          <g id="leftNose"><circle r="1.642" cx="-8.782" cy="14.192" stroke="black" fill="none" stroke-width="1.0" filter="url(#fuzzy)" /><circle r="1.362" cx="-9.686" cy="11.175999999999998" stroke="black" fill="none" stroke-width="1.0" filter="url(#fuzzy)" /><circle r="1.17" cx="-9.373999999999999" cy="10.851999999999999" stroke="black" fill="none" stroke-width="1.0" filter="url(#fuzzy)" /><circle r="1.584" cx="-9.469999999999999" cy="12.36" stroke="black" fill="none" stroke-width="1.0" filter="url(#fuzzy)" /><circle r="1.678" cx="-10.921999999999999" cy="12.12" stroke="black" fill="none" stroke-width="1.0" filter="url(#fuzzy)" /><circle r="2.416" cx="-10.761999999999999" cy="10.755999999999998" stroke="black" fill="none" stroke-width="1.0" filter="url(#fuzzy)" /><circle r="1.9060000000000001" cx="-9.834" cy="13.2" stroke="black" fill="none" stroke-width="1.0" filter="url(#fuzzy)" /><circle r="1.45" cx="-9.873999999999999" cy="12.255999999999998" stroke="black" fill="none" stroke-width="1.0" filter="url(#fuzzy)" /><circle r="2.1100000000000003" cx="-10.834" cy="11.556" stroke="black" fill="none" stroke-width="1.0" filter="url(#fuzzy)" /><circle r="1.396" cx="-8.585999999999999" cy="13.703999999999999" stroke="black" fill="none" stroke-width="1.0" filter="url(#fuzzy)" /></g>
        </g>
      
    <g id="mouth">
      <polyline points="28.7,39.17 28.69,39.98 28.64,40.23 28.63,40.24 28.54,40.48 28.18,41.09 28.29,40.88 28.07,41.42 27.83,41.64 27.83,41.65 27.86,41.74 27.26,42.37 27.15,42.37 27.14,42.53 27,42.52 26.33,43.11 26.34,43.13 25.67,43.62 25.73,43.57 25.91,43.39 25.73,43.58 24.91,43.97 24.84,44.04 23.53,44.64 23.46,44.64 23.15,44.73 23.66,44.56 22.54,44.95 21.94,45.1 22.25,45.04 20.98,45.35 20.92,45.4 21.15,45.34 19.61,45.61 19.89,45.61 18.75,45.76 18.61,45.78 18.94,45.75 17.97,45.85 17.68,45.89 17.6,45.88 17.03,45.94 15.3,45.98 15.95,45.97 15.04,45.99 14.79,45.99 13.77,45.96 14.03,45.98 13.21,45.94 12.17,45.86 11.84,45.83 10.77,45.71 10.24,45.63 10.86,45.72 10.41,45.66 9.2,45.46 8.53,45.33 7.97,45.21 7.18,45.03 6.9,44.95 6.54,44.86 6.6,44.86 5.96,44.68 5.75,44.62 4.94,44.34 5.24,44.47 3.43,43.79 3.19,43.68 3.36,43.73 2.54,43.37 2.37,43.3 1.97,43.11 1.9,43.04 0.99,42.57 0.97,42.51 0.33,42.15 0.44,42.21 -0.08,41.86 0.05,41.98 -0.18,41.77 -0.92,41.18 -0.89,41.24 -1.76,40.4 -1.94,40.16 -2.12,40.06 -2.29,39.89 -2.53,39.41 -2.53,39.4 -2.72,39.15 -2.88,38.82 -2.94,38.88 -3.11,38.62 -3.19,38.45 -3.17,38.36 -3.22,38.03 -3.45,37.05 -3.51,36.79 -3.46,36.78 -3.51,36.85 -3.49,36.76 -3.53,36.18 -3.55,36.41 -3.46,36.16 -3.35,35.36 -3.3,35.44 -3.02,34.66 -3.04,34.88 -3.01,34.8 -2.97,34.63 -2.63,34.03 -2.83,34.31 -2.17,33.45 -1.71,33.12 -2.01,33.37 -1.81,33.23 -1.69,33.02 -1.56,32.95 -0.5,32.2 -0.56,32.25 -0.52,32.18 -0.41,32.18 0.5,31.68 0.51,31.67 0.44,31.72 1.57,31.22 1.44,31.19 2.13,30.97 2.44,30.84 3.2,30.65 3.06,30.68 3.53,30.57 3.79,30.49 4.52,30.33 5.4,30.16 5.33,30.15 6.06,30.07 6.02,30.06 7.76,29.87 6.86,29.93 8.05,29.84 7.73,29.86 9.16,29.78 9.87,29.77 9.24,29.78 10.46,29.76 11.58,29.8 11.29,29.79 12.08,29.82 11.57,29.8 12.32,29.84 13.95,29.99 14.9,30.11 14.23,30.02 14.16,30.01 14.95,30.12 15.94,30.28 15.69,30.23 16.07,30.31 17.61,30.62 18.58,30.86 17.95,30.71 19.59,31.17 19.02,31 20.45,31.46 20.59,31.48 20.64,31.53 21.75,31.96 20.92,31.61 22.73,32.38 22.94,32.46 22.95,32.52 23.59,32.84 23.71,32.91 24.03,33.05 24.81,33.53 24.93,33.61 25,33.68 25.01,33.69 25.56,34.06 26.4,34.66 26.3,34.66 26.44,34.75 26.67,34.92 26.71,35 27.13,35.4 27.03,35.26 27.19,35.56 27.64,36.12 27.65,36.14 28.27,36.96 27.98,36.56 28.48,37.46 28.35,37.38 28.62,37.97 28.55,37.82 28.6,38.07 28.75,38.73 28.71,38.74 28.7,38.99 28.78,39.09" fill="rgb(215,127,140)" stroke="black" stroke-width="3" stroke-linejoin="round" filter="url(#fuzzy)" />
    </g>
  </svg>