<svg viewBox="-100 -100 200 200" xmlns="http://www.w3.org/2000/svg" width="500" height="500" id="face-svg">
    <defs>
      <clipPath id="leftEyeClipPath">
        <polyline points="22.62,-2.17 22.58,-2.6 22.52,-3.02 22.42,-3.42 22.3,-3.8 22.16,-4.17 21.99,-4.52 21.79,-4.86 21.56,-5.19 21.31,-5.5 21.03,-5.8 20.73,-6.08 20.41,-6.36 20.06,-6.62 19.68,-6.87 19.29,-7.11 18.92,-7.37 18.51,-7.62 18.07,-7.86 17.6,-8.08 17.09,-8.3 16.55,-8.51 15.97,-8.71 15.37,-8.9 14.73,-9.08 14.07,-9.25 13.38,-9.42 12.67,-9.57 11.93,-9.71 11.17,-9.84 10.39,-9.96 9.59,-10.07 8.77,-10.17 7.93,-10.26 7.09,-10.34 6.23,-10.41 5.36,-10.47 4.49,-10.52 3.6,-10.56 2.72,-10.59 1.83,-10.61 0.94,-10.61 0.05,-10.61 -0.83,-10.6 -1.71,-10.58 -2.58,-10.54 -3.45,-10.5 -4.31,-10.45 -5.15,-10.39 -5.98,-10.31 -6.8,-10.23 -7.6,-10.15 -8.39,-10.05 -9.16,-9.94 -9.91,-9.83 -10.65,-9.71 -11.36,-9.58 -12.05,-9.45 -12.72,-9.3 -13.37,-9.16 -14,-9 -14.6,-8.84 -15.19,-8.68 -15.74,-8.51 -16.28,-8.34 -16.79,-8.16 -17.29,-7.98 -17.76,-7.79 -18.21,-7.6 -18.63,-7.41 -19.04,-7.21 -19.43,-7 -19.79,-6.79 -20.13,-6.58 -20.45,-6.37 -20.75,-6.15 -21.03,-5.92 -21.29,-5.69 -21.52,-5.46 -21.74,-5.23 -26.21,-1.47 -25.81,-1.22 -25.4,-0.96 -24.98,-0.7 -24.54,-0.43 -24.09,-0.15 -23.63,0.13 -23.15,0.41 -22.67,0.71 -22.17,1 -21.66,1.31 -21.14,1.61 -20.6,1.93 -20.06,2.24 -19.5,2.56 -18.93,2.89 -18.35,3.22 -17.75,3.55 -17.14,3.89 -16.51,4.24 -15.87,4.59 -15.22,4.94 -14.55,5.29 -13.88,5.64 -13.19,6 -12.49,6.35 -11.78,6.7 -11.06,7.05 -10.32,7.4 -9.58,7.74 -8.83,8.07 -8.08,8.4 -7.31,8.72 -6.54,9.03 -5.77,9.33 -4.99,9.62 -4.2,9.89 -3.41,10.15 -2.62,10.38 -1.83,10.61 -1.04,10.81 -0.25,10.99 0.55,11.15 1.34,11.28 2.12,11.39 2.9,11.48 3.68,11.53 4.45,11.56 5.22,11.56 5.98,11.53 6.73,11.47 7.47,11.37 8.2,11.24 8.92,11.08 9.63,10.88 10.33,10.65 11.01,10.39 11.68,10.09 12.34,9.76 12.98,9.39 13.6,8.99 14.21,8.56 14.8,8.1 15.38,7.61 15.93,7.09 16.44,6.76 16.93,6.41 17.41,6.04 17.88,5.67 18.34,5.28 18.77,4.87 19.2,4.46 19.6,4.04 19.99,3.61 20.37,3.18 20.72,2.74 21.06,2.3 21.37,1.85 21.67,1.41 21.95,0.96" />
      </clipPath>
      <clipPath id="rightEyeClipPath">
        <polyline points="-23.92,-2.46 -23.74,-2.9 -23.54,-3.33 -23.31,-3.73 -23.05,-4.12 -22.77,-4.49 -22.47,-4.84 -22.14,-5.18 -21.78,-5.49 -21.41,-5.8 -21,-6.09 -20.58,-6.37 -20.13,-6.63 -19.65,-6.88 -19.16,-7.12 -18.64,-7.35 -18.16,-7.58 -17.63,-7.8 -17.07,-8.01 -16.48,-8.21 -15.84,-8.41 -15.18,-8.6 -14.48,-8.77 -13.75,-8.95 -12.99,-9.11 -12.2,-9.27 -11.38,-9.41 -10.54,-9.56 -9.68,-9.69 -8.8,-9.81 -7.9,-9.93 -6.98,-10.04 -6.05,-10.15 -5.11,-10.24 -4.16,-10.33 -3.2,-10.41 -2.23,-10.48 -1.27,-10.54 -0.3,-10.6 0.67,-10.65 1.63,-10.69 2.59,-10.72 3.54,-10.75 4.48,-10.76 5.42,-10.77 6.33,-10.78 7.24,-10.77 8.13,-10.76 9.01,-10.74 9.86,-10.71 10.7,-10.68 11.52,-10.64 12.32,-10.59 13.09,-10.54 13.84,-10.48 14.57,-10.41 15.28,-10.34 15.96,-10.27 16.62,-10.18 17.26,-10.1 17.87,-10.01 18.46,-9.91 19.02,-9.81 19.56,-9.71 20.08,-9.6 20.58,-9.5 21.06,-9.38 21.51,-9.27 21.95,-9.15 22.36,-9.03 22.76,-8.9 23.13,-8.77 23.49,-8.64 23.82,-8.5 24.14,-8.37 24.43,-8.23 24.71,-8.08 24.97,-7.94 25.21,-7.79 25.43,-7.64 25.76,-3.03 25.31,-2.77 24.85,-2.49 24.37,-2.21 23.88,-1.93 23.38,-1.63 22.86,-1.33 22.33,-1.02 21.78,-0.71 21.22,-0.38 20.65,-0.06 20.07,0.28 19.47,0.62 18.86,0.97 18.23,1.33 17.59,1.69 16.93,2.05 16.26,2.43 15.58,2.81 14.87,3.19 14.16,3.59 13.42,3.98 12.67,4.38 11.91,4.79 11.13,5.19 10.34,5.6 9.54,6.01 8.73,6.41 7.9,6.82 7.07,7.22 6.22,7.61 5.37,8 4.51,8.38 3.64,8.75 2.77,9.11 1.89,9.46 1.01,9.79 0.13,10.11 -0.75,10.41 -1.63,10.69 -2.51,10.95 -3.38,11.18 -4.25,11.4 -5.11,11.58 -5.97,11.74 -6.81,11.87 -7.65,11.97 -8.47,12.03 -9.28,12.06 -10.08,12.06 -10.85,12.02 -11.62,11.95 -12.36,11.83 -13.08,11.68 -13.78,11.49 -14.46,11.26 -15.12,10.99 -15.75,10.67 -16.35,10.32 -16.93,9.93 -17.49,9.5 -18.02,9.03 -18.51,8.53 -18.99,7.99 -19.43,7.42 -19.88,7.06 -20.31,6.69 -20.73,6.31 -21.12,5.91 -21.5,5.49 -21.86,5.06 -22.2,4.62 -22.52,4.17 -22.82,3.72 -23.1,3.25 -23.36,2.78 -23.6,2.31 -23.81,1.84 -24.01,1.37 -24.19,0.9" />
      </clipPath>
      <filter id="fuzzy">
        <feTurbulence id="turbulence" baseFrequency="0.05" numOctaves="3" type="noise" result="noise" />
        <feDisplacementMap in="SourceGraphic" in2="noise" scale="2" />
      </filter>
      <linearGradient id="rainbowGradient" x1="0%" y1="0%" x2="100%" y2="0%">
        <stop offset="0%" style="stop-color: [object Object]; stop-opacity: 1" />
        <stop offset="50%" style="stop-color: [object Object]; stop-opacity: 1" />
        <stop offset="100%" style="stop-color: [object Object]; stop-opacity: 1" />
      </linearGradient>
    </defs>
    <rect x="-100" y="-100" width="100%" height="100%" fill="rgb(176, 224, 230)" />
    <polyline id="faceContour" points="63.49,-0.16 63.32,1.61 63.2,4.42 63.26,4.1 63.11,7.74 63.19,5.87 63.16,7.8 63.26,8.34 62.62,12.46 62.49,13.65 62.32,15.46 62.38,15.13 62.36,15.39 61.96,20.37 61.88,20.78 61.75,21.49 61.34,23.75 60.85,26.53 60.91,26.3 60.49,27 60.05,28.16 59.87,30.22 59.8,30.75 58.84,33.71 58.41,35.38 58.08,36.97 58.12,36.33 57.64,38.17 57.23,39.67 56.32,41.83 55.99,43.46 55.78,43.85 55.42,44.23 54.88,46.49 54.05,48.07 54.01,48.34 53.66,49.06 53.09,50.16 52.86,50.84 53,50.8 51.75,52.76 49.89,56.16 49.75,57.22 50.15,56.73 49.44,57.79 48.26,59.36 47.5,60.79 47.55,60.74 46.01,63.17 45.93,63.5 45.12,64.72 44.94,64.67 43.43,67.33 42.19,68.74 41.77,69.59 41.13,70.16 41.29,69.92 38.71,73.22 39.33,72.41 37.44,74.17 36.65,74.88 36.14,75.47 35.04,76.91 33.89,77.87 34.42,77.28 33.62,77.82 32.02,79.1 32.32,78.98 30.88,80.51 30.41,80.58 28.62,82.04 28.08,82.4 26.22,83.84 27.22,83.4 25.69,84.53 25.35,84.35 23.73,85.43 22.19,86.53 21.16,86.74 21.01,86.88 20.58,86.99 17.17,88.72 17.7,88.26 17.55,88.6 17.1,88.56 14.08,89.86 15.46,89.13 12.19,90.49 12.25,90.13 10.03,91.06 10.09,90.83 9.05,91.25 8.21,91.04 6.42,91.41 6.26,91.63 3.91,91.73 3.62,92.11 4.31,91.69 2.24,92.11 1.63,92.23 -1.13,92.03 -0.58,92.05 -2.69,91.97 -3.12,92.12 -4.22,91.72 -5.68,91.62 -6.33,91.58 -7.56,91.27 -8.53,91.22 -10.27,91.11 -9.93,91.1 -11.29,90.6 -11.54,90.59 -13.13,90.12 -12.81,89.92 -16.29,88.86 -16.11,88.99 -16.71,88.87 -18.9,87.77 -18.96,87.84 -19.13,87.9 -20.28,87.06 -21.25,86.83 -22.13,86.19 -23.87,85.38 -24.89,84.74 -24.75,84.86 -25.02,84.47 -28.19,82.3 -29.16,81.85 -28.39,82.28 -30.37,80.66 -31.39,80.03 -31.91,79.34 -32.04,79.5 -33.05,78.51 -34.62,77.16 -34.91,76.91 -35.87,75.73 -37.03,74.96 -36.61,74.84 -37.44,73.92 -39.72,71.39 -39.65,72.12 -40.8,70.3 -41.43,69.68 -42.08,68.95 -42.4,68.09 -42.43,68.59 -45.22,64.54 -44.52,65.46 -45.01,64.83 -46.7,62.12 -46.61,62.54 -46.94,61.32 -48.33,59.3 -49.13,58.2 -50.42,55.65 -50.09,56.43 -51.05,54.34 -51.36,53.89 -51.59,53.45 -52.86,50.85 -52.91,50.68 -53.41,49.8 -53.34,49.82 -54.93,45.49 -54.98,46.05 -54.62,46.33 -56.03,42.92 -56.67,41.19 -56.6,41.33 -57.21,38.99 -58.02,37.58 -58.35,36.66 -58.6,34.92 -59.19,32.5 -59.01,33.91 -59.98,30.19 -59.96,29.3 -60.28,27.84 -60.32,27.86 -60.76,25.09 -60.9,25.01 -61.47,22.73 -61.69,21.85 -61.94,18.97 -62.17,19.1 -62.24,18.44 -62.27,16.03 -62.39,15.36 -62.63,14.18 -62.65,12.03 -62.97,9.17 -63.21,8.43 -63.05,7.52 -63.38,4.95 -63.4,4.29 -63.44,3.41 -63.4,1.96 -63.33,-0.12 -63.41,-1.71 -63.48,-2.73 -63.41,-4.17 -63.11,-6.59 -63.09,-7.25 -63.06,-9.09 -63,-10.75 -62.88,-11.34 -62.91,-11.7 -62.41,-16.73 -62.68,-14.79 -62.26,-17.4 -61.75,-19.44 -61.89,-20.41 -61.56,-21.06 -61.08,-24.49 -61.36,-22.86 -60.53,-27.2 -60.72,-26.94 -60.52,-27.33 -59.55,-30.63 -59.41,-31.93 -59.3,-32.4 -58.74,-34.6 -58.54,-35.32 -58.43,-36.29 -57.97,-37.31 -57.56,-38.1 -56.69,-40.52 -57,-40.4 -55.47,-44.57 -55.05,-46.04 -54.94,-46.02 -54.92,-45.97 -54.16,-48.07 -53.5,-49.09 -52.41,-51.7 -52.64,-51.52 -51.91,-52.99 -51.86,-53.3 -50.76,-55.29 -49.13,-57.65 -49.13,-58.01 -48.67,-58.96 -47.69,-60.76 -46.94,-61.71 -47.03,-61.75 -46.72,-62.06 -45.41,-64 -45.49,-64.12 -44.78,-65.5 -43.41,-67.64 -43.67,-66.72 -41.76,-69.28 -40.92,-69.82 -40.56,-70.89 -39.88,-71.78 -38.95,-72.77 -38.47,-73.29 -37.24,-74.19 -37.43,-74.46 -36.37,-75.28 -33.72,-78.13 -33.85,-78.14 -32.85,-78.48 -32.82,-79.12 -31.5,-80.08 -30.39,-80.8 -29.33,-81.4 -27.5,-82.64 -28.36,-82.38 -26.17,-84.02 -26.37,-83.57 -26.01,-84.16 -24.1,-84.89 -23.66,-85.28 -22.65,-85.84 -21.03,-86.91 -18.95,-87.74 -19.99,-87.42 -19,-87.75 -17.16,-88.78 -16.78,-88.97 -15.61,-89.04 -15.57,-89.41 -12.64,-89.95 -12.71,-90.49 -10.88,-90.87 -11.33,-90.74 -8.65,-91.14 -9.62,-91.13 -7.7,-91.47 -7.53,-91.6 -5.5,-91.56 -5.27,-91.53 -4.64,-91.6 -2.47,-91.93 -2.04,-92.24 -1.43,-91.94 1.12,-92.11 0.16,-91.9 3.66,-91.88 2.33,-91.79 4.94,-91.72 5.19,-91.79 6.65,-91.64 7.91,-91.19 8.15,-91.12 9.89,-91.04 10.53,-90.79 10.79,-91.02 12.62,-90.29 13.46,-90.07 14.06,-89.78 14.6,-89.69 14.75,-89.56 15.65,-89.3 18.77,-87.99 18.66,-88.08 18.72,-88.03 19.75,-87.71 22.82,-85.62 22.85,-85.92 22.82,-85.95 23.61,-85.58 25.75,-84.06 25.52,-84.05 27.44,-83.3 27.36,-82.94 29.17,-81.88 31.26,-80.34 30.22,-80.91 30.15,-80.94 32.93,-78.7 33.37,-78.74 33.51,-77.96 34.22,-77.51 36.4,-75.13 35.25,-76.43 35.84,-75.97 37.91,-73.93 38.45,-73.4 40.19,-71.41 40.62,-70.86 41.8,-69.2 42.63,-68.3 42.35,-68.55 43.18,-67.32 43.72,-66.79 44.88,-64.63 45.3,-64.61 45.96,-63.29 47.23,-61.85 46.97,-61.73 48.42,-59 48.37,-59.49 49.47,-58.17 50.56,-55.66 51.47,-53.99 51.67,-53.45 51.73,-53.55 52.27,-52.42 52.37,-52.18 53.56,-49.1 53.7,-49.31 54.63,-46.25 55.57,-43.85 55.18,-45.59 55.88,-43.29 56.5,-42.44 56.85,-41.38 57.51,-38.76 58.09,-36.82 58.05,-37.15 58.93,-33.87 59.01,-34.12 59.27,-32.03 60.03,-30.02 59.89,-29.54 60.55,-27.38 60.84,-25.11 61.27,-24.45 60.85,-25.83 61.48,-23.13 61.97,-20.13 61.91,-19.05 62.38,-17.31 62.2,-17.79 62.47,-16.24 62.62,-14.18 62.65,-12.66 62.72,-12.04 62.9,-10.04 62.94,-8 63.1,-6.07 63.06,-6.72 63.36,-3.35 63.19,-2.85 63.38,-1.78 63.49,-0.16 63.32,1.61" fill="rgb(200, 162, 200)" stroke="black" stroke-width="1.6666666666666665" stroke-linejoin="round" filter="url(#fuzzy)" />
    <g transform="translate(32.49 -31.32)">
      <polyline id="rightCountour" points="-23.92,-2.46 -23.74,-2.9 -23.54,-3.33 -23.31,-3.73 -23.05,-4.12 -22.77,-4.49 -22.47,-4.84 -22.14,-5.18 -21.78,-5.49 -21.41,-5.8 -21,-6.09 -20.58,-6.37 -20.13,-6.63 -19.65,-6.88 -19.16,-7.12 -18.64,-7.35 -18.16,-7.58 -17.63,-7.8 -17.07,-8.01 -16.48,-8.21 -15.84,-8.41 -15.18,-8.6 -14.48,-8.77 -13.75,-8.95 -12.99,-9.11 -12.2,-9.27 -11.38,-9.41 -10.54,-9.56 -9.68,-9.69 -8.8,-9.81 -7.9,-9.93 -6.98,-10.04 -6.05,-10.15 -5.11,-10.24 -4.16,-10.33 -3.2,-10.41 -2.23,-10.48 -1.27,-10.54 -0.3,-10.6 0.67,-10.65 1.63,-10.69 2.59,-10.72 3.54,-10.75 4.48,-10.76 5.42,-10.77 6.33,-10.78 7.24,-10.77 8.13,-10.76 9.01,-10.74 9.86,-10.71 10.7,-10.68 11.52,-10.64 12.32,-10.59 13.09,-10.54 13.84,-10.48 14.57,-10.41 15.28,-10.34 15.96,-10.27 16.62,-10.18 17.26,-10.1 17.87,-10.01 18.46,-9.91 19.02,-9.81 19.56,-9.71 20.08,-9.6 20.58,-9.5 21.06,-9.38 21.51,-9.27 21.95,-9.15 22.36,-9.03 22.76,-8.9 23.13,-8.77 23.49,-8.64 23.82,-8.5 24.14,-8.37 24.43,-8.23 24.71,-8.08 24.97,-7.94 25.21,-7.79 25.43,-7.64 25.76,-3.03 25.31,-2.77 24.85,-2.49 24.37,-2.21 23.88,-1.93 23.38,-1.63 22.86,-1.33 22.33,-1.02 21.78,-0.71 21.22,-0.38 20.65,-0.06 20.07,0.28 19.47,0.62 18.86,0.97 18.23,1.33 17.59,1.69 16.93,2.05 16.26,2.43 15.58,2.81 14.87,3.19 14.16,3.59 13.42,3.98 12.67,4.38 11.91,4.79 11.13,5.19 10.34,5.6 9.54,6.01 8.73,6.41 7.9,6.82 7.07,7.22 6.22,7.61 5.37,8 4.51,8.38 3.64,8.75 2.77,9.11 1.89,9.46 1.01,9.79 0.13,10.11 -0.75,10.41 -1.63,10.69 -2.51,10.95 -3.38,11.18 -4.25,11.4 -5.11,11.58 -5.97,11.74 -6.81,11.87 -7.65,11.97 -8.47,12.03 -9.28,12.06 -10.08,12.06 -10.85,12.02 -11.62,11.95 -12.36,11.83 -13.08,11.68 -13.78,11.49 -14.46,11.26 -15.12,10.99 -15.75,10.67 -16.35,10.32 -16.93,9.93 -17.49,9.5 -18.02,9.03 -18.51,8.53 -18.99,7.99 -19.43,7.42 -19.88,7.06 -20.31,6.69 -20.73,6.31 -21.12,5.91 -21.5,5.49 -21.86,5.06 -22.2,4.62 -22.52,4.17 -22.82,3.72 -23.1,3.25 -23.36,2.78 -23.6,2.31 -23.81,1.84 -24.01,1.37 -24.19,0.9" fill="white" stroke="white" stroke-width="0" stroke-linejoin="round" filter="url(#fuzzy)" />
    </g>
    <g transform="translate(-38.65 -27.41)">
      <polyline id="leftCountour" points="22.62,-2.17 22.58,-2.6 22.52,-3.02 22.42,-3.42 22.3,-3.8 22.16,-4.17 21.99,-4.52 21.79,-4.86 21.56,-5.19 21.31,-5.5 21.03,-5.8 20.73,-6.08 20.41,-6.36 20.06,-6.62 19.68,-6.87 19.29,-7.11 18.92,-7.37 18.51,-7.62 18.07,-7.86 17.6,-8.08 17.09,-8.3 16.55,-8.51 15.97,-8.71 15.37,-8.9 14.73,-9.08 14.07,-9.25 13.38,-9.42 12.67,-9.57 11.93,-9.71 11.17,-9.84 10.39,-9.96 9.59,-10.07 8.77,-10.17 7.93,-10.26 7.09,-10.34 6.23,-10.41 5.36,-10.47 4.49,-10.52 3.6,-10.56 2.72,-10.59 1.83,-10.61 0.94,-10.61 0.05,-10.61 -0.83,-10.6 -1.71,-10.58 -2.58,-10.54 -3.45,-10.5 -4.31,-10.45 -5.15,-10.39 -5.98,-10.31 -6.8,-10.23 -7.6,-10.15 -8.39,-10.05 -9.16,-9.94 -9.91,-9.83 -10.65,-9.71 -11.36,-9.58 -12.05,-9.45 -12.72,-9.3 -13.37,-9.16 -14,-9 -14.6,-8.84 -15.19,-8.68 -15.74,-8.51 -16.28,-8.34 -16.79,-8.16 -17.29,-7.98 -17.76,-7.79 -18.21,-7.6 -18.63,-7.41 -19.04,-7.21 -19.43,-7 -19.79,-6.79 -20.13,-6.58 -20.45,-6.37 -20.75,-6.15 -21.03,-5.92 -21.29,-5.69 -21.52,-5.46 -21.74,-5.23 -26.21,-1.47 -25.81,-1.22 -25.4,-0.96 -24.98,-0.7 -24.54,-0.43 -24.09,-0.15 -23.63,0.13 -23.15,0.41 -22.67,0.71 -22.17,1 -21.66,1.31 -21.14,1.61 -20.6,1.93 -20.06,2.24 -19.5,2.56 -18.93,2.89 -18.35,3.22 -17.75,3.55 -17.14,3.89 -16.51,4.24 -15.87,4.59 -15.22,4.94 -14.55,5.29 -13.88,5.64 -13.19,6 -12.49,6.35 -11.78,6.7 -11.06,7.05 -10.32,7.4 -9.58,7.74 -8.83,8.07 -8.08,8.4 -7.31,8.72 -6.54,9.03 -5.77,9.33 -4.99,9.62 -4.2,9.89 -3.41,10.15 -2.62,10.38 -1.83,10.61 -1.04,10.81 -0.25,10.99 0.55,11.15 1.34,11.28 2.12,11.39 2.9,11.48 3.68,11.53 4.45,11.56 5.22,11.56 5.98,11.53 6.73,11.47 7.47,11.37 8.2,11.24 8.92,11.08 9.63,10.88 10.33,10.65 11.01,10.39 11.68,10.09 12.34,9.76 12.98,9.39 13.6,8.99 14.21,8.56 14.8,8.1 15.38,7.61 15.93,7.09 16.44,6.76 16.93,6.41 17.41,6.04 17.88,5.67 18.34,5.28 18.77,4.87 19.2,4.46 19.6,4.04 19.99,3.61 20.37,3.18 20.72,2.74 21.06,2.3 21.37,1.85 21.67,1.41 21.95,0.96" fill="white" stroke="white" stroke-width="0" stroke-linejoin="round" filter="url(#fuzzy)" />
    </g>
    <g transform="translate(32.49 -31.32)">
      <polyline id="rightUpper" points="-24.38,3.35 -24.43,2.64 -24.47,1.97 -24.48,1.32 -24.47,0.7 -24.44,0.11 -24.38,-0.45 -24.31,-0.99 -24.2,-1.5 -24.07,-1.99 -23.92,-2.46 -23.74,-2.9 -23.54,-3.33 -23.31,-3.73 -23.05,-4.12 -22.77,-4.49 -22.47,-4.84 -22.14,-5.18 -21.78,-5.49 -21.41,-5.8 -21,-6.09 -20.58,-6.37 -20.13,-6.63 -19.65,-6.88 -19.16,-7.12 -18.64,-7.35 -18.16,-7.58 -17.63,-7.8 -17.07,-8.01 -16.48,-8.21 -15.84,-8.41 -15.18,-8.6 -14.48,-8.77 -13.75,-8.95 -12.99,-9.11 -12.2,-9.27 -11.38,-9.41 -10.54,-9.56 -9.68,-9.69 -8.8,-9.81 -7.9,-9.93 -6.98,-10.04 -6.05,-10.15 -5.11,-10.24 -4.16,-10.33 -3.2,-10.41 -2.23,-10.48 -1.27,-10.54 -0.3,-10.6 0.67,-10.65 1.63,-10.69 2.59,-10.72 3.54,-10.75 4.48,-10.76 5.42,-10.77 6.33,-10.78 7.24,-10.77 8.13,-10.76 9.01,-10.74 9.86,-10.71 10.7,-10.68 11.52,-10.64 12.32,-10.59 13.09,-10.54 13.84,-10.48 14.57,-10.41 15.28,-10.34 15.96,-10.27 16.62,-10.18 17.26,-10.1 17.87,-10.01 18.46,-9.91 19.02,-9.81 19.56,-9.71 20.08,-9.6 20.58,-9.5 21.06,-9.38 21.51,-9.27 21.95,-9.15 22.36,-9.03 22.76,-8.9 23.13,-8.77 23.49,-8.64 23.82,-8.5 24.14,-8.37 24.43,-8.23 24.71,-8.08 24.97,-7.94 25.21,-7.79 25.43,-7.64 25.64,-7.49 25.83,-7.34 26,-7.18 26.15,-7.03 26.29,-6.87 26.42,-6.71 26.52,-6.55 26.62,-6.39 26.7,-6.22 26.76,-6.06" fill="none" stroke="black" stroke-width="1.6666666666666665" stroke-linejoin="round" filter="url(#fuzzy)" />
      <polyline id="rightLower" points="-24.81,-2.98 -24.84,-2.7 -24.85,-2.39 -24.84,-2.05 -24.81,-1.69 -24.76,-1.3 -24.68,-0.88 -24.59,-0.46 -24.48,-0.01 -24.34,0.44 -24.19,0.9 -24.01,1.37 -23.81,1.84 -23.6,2.31 -23.36,2.78 -23.1,3.25 -22.82,3.72 -22.52,4.17 -22.2,4.62 -21.86,5.06 -21.5,5.49 -21.12,5.91 -20.73,6.31 -20.31,6.69 -19.88,7.06 -19.43,7.42 -18.99,7.99 -18.51,8.53 -18.02,9.03 -17.49,9.5 -16.93,9.93 -16.35,10.32 -15.75,10.67 -15.12,10.99 -14.46,11.26 -13.78,11.49 -13.08,11.68 -12.36,11.83 -11.62,11.95 -10.85,12.02 -10.08,12.06 -9.28,12.06 -8.47,12.03 -7.65,11.97 -6.81,11.87 -5.97,11.74 -5.11,11.58 -4.25,11.4 -3.38,11.18 -2.51,10.95 -1.63,10.69 -0.75,10.41 0.13,10.11 1.01,9.79 1.89,9.46 2.77,9.11 3.64,8.75 4.51,8.38 5.37,8 6.22,7.61 7.07,7.22 7.9,6.82 8.73,6.41 9.54,6.01 10.34,5.6 11.13,5.19 11.91,4.79 12.67,4.38 13.42,3.98 14.16,3.59 14.87,3.19 15.58,2.81 16.26,2.43 16.93,2.05 17.59,1.69 18.23,1.33 18.86,0.97 19.47,0.62 20.07,0.28 20.65,-0.06 21.22,-0.38 21.78,-0.71 22.33,-1.02 22.86,-1.33 23.38,-1.63 23.88,-1.93 24.37,-2.21 24.85,-2.49 25.31,-2.77 25.76,-3.03 26.19,-3.29 26.62,-3.54 27.03,-3.79 27.43,-4.02 27.81,-4.25 28.18,-4.48 28.54,-4.69 28.89,-4.9 29.23,-5.11 29.56,-5.31" fill="none" stroke="black" stroke-width="2.2222222222222223" stroke-linejoin="round" filter="url(#fuzzy)" />
      <circle r="4.752" cx="-20.815956448544718" cy="-3.4027871585236436" stroke="black" fill="none" stroke-width="1.0" filter="url(#fuzzy)" clip-path="url(#rightEyeClipPath)" /><circle r="3.916" cx="-20.675956448544717" cy="-0.5227871585236441" stroke="black" fill="none" stroke-width="1.0" filter="url(#fuzzy)" clip-path="url(#rightEyeClipPath)" /><circle r="3.716" cx="-19.27595644854472" cy="-1.277787158523643" stroke="black" fill="none" stroke-width="1.0" filter="url(#fuzzy)" clip-path="url(#rightEyeClipPath)" /><circle r="3.778" cx="-19.05595644854472" cy="-2.8477871585236434" stroke="black" fill="none" stroke-width="1.0" filter="url(#fuzzy)" clip-path="url(#rightEyeClipPath)" /><circle r="4.66" cx="-23.670956448544718" cy="-2.537787158523644" stroke="black" fill="none" stroke-width="1.0" filter="url(#fuzzy)" clip-path="url(#rightEyeClipPath)" /><circle r="4.45" cx="-22.395956448544716" cy="-1.7577871585236435" stroke="black" fill="none" stroke-width="1.0" filter="url(#fuzzy)" clip-path="url(#rightEyeClipPath)" /><circle r="3.918" cx="-21.855956448544717" cy="-1.7277871585236437" stroke="black" fill="none" stroke-width="1.0" filter="url(#fuzzy)" clip-path="url(#rightEyeClipPath)" /><circle r="3.77" cx="-19.155956448544718" cy="-4.452787158523644" stroke="black" fill="none" stroke-width="1.0" filter="url(#fuzzy)" clip-path="url(#rightEyeClipPath)" /><circle r="3.182" cx="-19.98595644854472" cy="-4.122787158523644" stroke="black" fill="none" stroke-width="1.0" filter="url(#fuzzy)" clip-path="url(#rightEyeClipPath)" /><circle r="4.4" cx="-21.905956448544718" cy="-3.6677871585236437" stroke="black" fill="none" stroke-width="1.0" filter="url(#fuzzy)" clip-path="url(#rightEyeClipPath)" />
      </g>
    <g transform="translate(-38.65 -27.41)">
      <polyline id="leftUpper" points="21.46,3.26 21.7,2.62 21.91,2 22.1,1.4 22.26,0.83 22.39,0.28 22.49,-0.25 22.56,-0.76 22.61,-1.25 22.63,-1.72 22.62,-2.17 22.58,-2.6 22.52,-3.02 22.42,-3.42 22.3,-3.8 22.16,-4.17 21.99,-4.52 21.79,-4.86 21.56,-5.19 21.31,-5.5 21.03,-5.8 20.73,-6.08 20.41,-6.36 20.06,-6.62 19.68,-6.87 19.29,-7.11 18.92,-7.37 18.51,-7.62 18.07,-7.86 17.6,-8.08 17.09,-8.3 16.55,-8.51 15.97,-8.71 15.37,-8.9 14.73,-9.08 14.07,-9.25 13.38,-9.42 12.67,-9.57 11.93,-9.71 11.17,-9.84 10.39,-9.96 9.59,-10.07 8.77,-10.17 7.93,-10.26 7.09,-10.34 6.23,-10.41 5.36,-10.47 4.49,-10.52 3.6,-10.56 2.72,-10.59 1.83,-10.61 0.94,-10.61 0.05,-10.61 -0.83,-10.6 -1.71,-10.58 -2.58,-10.54 -3.45,-10.5 -4.31,-10.45 -5.15,-10.39 -5.98,-10.31 -6.8,-10.23 -7.6,-10.15 -8.39,-10.05 -9.16,-9.94 -9.91,-9.83 -10.65,-9.71 -11.36,-9.58 -12.05,-9.45 -12.72,-9.3 -13.37,-9.16 -14,-9 -14.6,-8.84 -15.19,-8.68 -15.74,-8.51 -16.28,-8.34 -16.79,-8.16 -17.29,-7.98 -17.76,-7.79 -18.21,-7.6 -18.63,-7.41 -19.04,-7.21 -19.43,-7 -19.79,-6.79 -20.13,-6.58 -20.45,-6.37 -20.75,-6.15 -21.03,-5.92 -21.29,-5.69 -21.52,-5.46 -21.74,-5.23 -21.93,-4.99 -22.1,-4.76 -22.26,-4.51 -22.39,-4.27 -22.5,-4.02 -22.6,-3.77 -22.67,-3.52 -22.73,-3.27 -22.76,-3.02 -22.78,-2.76" fill="none" stroke="black" stroke-width="2.2222222222222223" stroke-linejoin="round" filter="url(#fuzzy)" />
      <polyline id="leftLower" points="23.46,-2.89 23.42,-2.59 23.35,-2.27 23.26,-1.92 23.15,-1.55 23.01,-1.16 22.84,-0.75 22.65,-0.34 22.44,0.09 22.2,0.52 21.95,0.96 21.67,1.41 21.37,1.85 21.06,2.3 20.72,2.74 20.37,3.18 19.99,3.61 19.6,4.04 19.2,4.46 18.77,4.87 18.34,5.28 17.88,5.67 17.41,6.04 16.93,6.41 16.44,6.76 15.93,7.09 15.38,7.61 14.8,8.1 14.21,8.56 13.6,8.99 12.98,9.39 12.34,9.76 11.68,10.09 11.01,10.39 10.33,10.65 9.63,10.88 8.92,11.08 8.2,11.24 7.47,11.37 6.73,11.47 5.98,11.53 5.22,11.56 4.45,11.56 3.68,11.53 2.9,11.48 2.12,11.39 1.34,11.28 0.55,11.15 -0.25,10.99 -1.04,10.81 -1.83,10.61 -2.62,10.38 -3.41,10.15 -4.2,9.89 -4.99,9.62 -5.77,9.33 -6.54,9.03 -7.31,8.72 -8.08,8.4 -8.83,8.07 -9.58,7.74 -10.32,7.4 -11.06,7.05 -11.78,6.7 -12.49,6.35 -13.19,6 -13.88,5.64 -14.55,5.29 -15.22,4.94 -15.87,4.59 -16.51,4.24 -17.14,3.89 -17.75,3.55 -18.35,3.22 -18.93,2.89 -19.5,2.56 -20.06,2.24 -20.6,1.93 -21.14,1.61 -21.66,1.31 -22.17,1 -22.67,0.71 -23.15,0.41 -23.63,0.13 -24.09,-0.15 -24.54,-0.43 -24.98,-0.7 -25.4,-0.96 -25.81,-1.22 -26.21,-1.47 -26.6,-1.72 -26.98,-1.96 -27.34,-2.2 -27.69,-2.43 -28.03,-2.65 -28.36,-2.87 -28.68,-3.08 -28.98,-3.29 -29.28,-3.49 -29.56,-3.68" fill="none" stroke="black" stroke-width="2.2222222222222223" stroke-linejoin="round" filter="url(#fuzzy)" />
      <circle r="4.312" cx="-20.219575011448295" cy="-4.7850831558335205" stroke="black" fill="none" stroke-width="1.0" filter="url(#fuzzy)" clip-path="url(#leftEyeClipPath)" /><circle r="3.872" cx="-19.909575011448297" cy="-4.280083155833521" stroke="black" fill="none" stroke-width="1.0" filter="url(#fuzzy)" clip-path="url(#leftEyeClipPath)" /><circle r="3.814" cx="-18.479575011448297" cy="-2.6500831558335207" stroke="black" fill="none" stroke-width="1.0" filter="url(#fuzzy)" clip-path="url(#leftEyeClipPath)" /><circle r="3.282" cx="-19.954575011448295" cy="-2.925083155833521" stroke="black" fill="none" stroke-width="1.0" filter="url(#fuzzy)" clip-path="url(#leftEyeClipPath)" /><circle r="4.098" cx="-21.309575011448295" cy="-1.010083155833521" stroke="black" fill="none" stroke-width="1.0" filter="url(#fuzzy)" clip-path="url(#leftEyeClipPath)" /><circle r="3.4939999999999998" cx="-22.004575011448296" cy="-2.6300831558335207" stroke="black" fill="none" stroke-width="1.0" filter="url(#fuzzy)" clip-path="url(#leftEyeClipPath)" /><circle r="3.82" cx="-21.199575011448296" cy="-2.1900831558335208" stroke="black" fill="none" stroke-width="1.0" filter="url(#fuzzy)" clip-path="url(#leftEyeClipPath)" /><circle r="4.628" cx="-19.454575011448295" cy="-1.2600831558335202" stroke="black" fill="none" stroke-width="1.0" filter="url(#fuzzy)" clip-path="url(#leftEyeClipPath)" /><circle r="3.292" cx="-19.659575011448297" cy="-3.915083155833521" stroke="black" fill="none" stroke-width="1.0" filter="url(#fuzzy)" clip-path="url(#leftEyeClipPath)" /><circle r="3.404" cx="-18.324575011448296" cy="-3.9200831558335207" stroke="black" fill="none" stroke-width="1.0" filter="url(#fuzzy)" clip-path="url(#leftEyeClipPath)" />
    </g>
    <g id="hairs">
      <polyline points="14.06,-89.78 14.53,-89.66 15.18,-89.42 16.03,-89.09 16.84,-88.75 17.45,-88.45 17.85,-88.2 18.02,-87.98 17.92,-87.84 17.48,-87.8 16.65,-87.88 15.43,-88.06 13.8,-88.36 11.73,-88.77 9.16,-89.34 6.02,-90.08 2.25,-91.01" fill="none" stroke="rgb(220, 208, 186)" stroke-width="2" stroke-linejoin="round" filter="url(#fuzzy)" /><polyline points="-26.01,-84.16 -24.52,-84.77 -23.18,-85.34 -21.7,-85.95 -20.12,-86.52 -18.51,-87.04 -16.9,-87.5 -15.25,-87.91 -13.55,-88.3 -11.79,-88.68 -10,-89.04 -8.18,-89.39 -6.36,-89.72 -4.6,-90.04 -2.93,-90.32 -1.38,-90.57 0.02,-90.78 1.26,-90.96 2.34,-91.11 3.25,-91.25 3.95,-91.39 4.4,-91.55 4.64,-91.68" fill="none" stroke="rgb(220, 208, 186)" stroke-width="2" stroke-linejoin="round" filter="url(#fuzzy)" /><polyline points="4.94,-91.72 5.51,-91.69 6.3,-91.52 7.01,-91.31 7.55,-91.09 7.9,-90.86 8.06,-90.59 8,-90.26 7.69,-89.88 7.12,-89.44 6.28,-88.96 5.17,-88.42 3.81,-87.83 2.18,-87.16 0.25,-86.42 -2.02,-85.6 -4.68,-84.69 -7.76,-83.69 -11.26,-82.63 -15.18,-81.53 -19.52,-80.42 -24.29,-79.25 -29.67,-77.78" fill="none" stroke="rgb(220, 208, 186)" stroke-width="2" stroke-linejoin="round" filter="url(#fuzzy)" /><polyline points="53.7,-49.31 54.48,-46.92 54.97,-45.61 55.28,-44.83 55.52,-44.16 55.7,-43.5 55.8,-42.88 55.79,-42.38 55.64,-42.1 55.32,-42.1 54.82,-42.42 54.13,-43.07 53.25,-44.03 52.18,-45.32 50.93,-46.97 49.48,-49.01 47.82,-51.5 45.92,-54.45 43.75,-57.88 41.31,-61.75 38.66,-66 35.87,-70.63 32.96,-75.75" fill="none" stroke="rgb(220, 208, 186)" stroke-width="2" stroke-linejoin="round" filter="url(#fuzzy)" /><polyline points="25.52,-84.05 26.64,-83.43 27.05,-82.78 26.96,-82.14 26.25,-81.58 24.92,-81.12 23,-80.7 20.52,-80.27 17.44,-79.84 13.67,-79.41 9.14,-79 3.82,-78.63 -2.3,-78.3 -9.17,-78.03 -16.72,-77.82 -24.93,-77.78" fill="none" stroke="rgb(220, 208, 186)" stroke-width="2" stroke-linejoin="round" filter="url(#fuzzy)" /><polyline points="35.84,-75.97 37.26,-74.5 38.07,-73.46 38.43,-72.67 38.35,-72.13 37.79,-71.9 36.74,-71.99 35.2,-72.36 33.19,-72.96 30.71,-73.78 27.75,-74.83 24.26,-76.13 20.19,-77.73 15.51,-79.67 10.19,-81.96 4.21,-84.61 -2.27,-87.65" fill="none" stroke="rgb(220, 208, 186)" stroke-width="2" stroke-linejoin="round" filter="url(#fuzzy)" /><polyline points="55.18,-45.59 55.8,-43.84 56.33,-42.45 56.79,-41.1 57.18,-39.83 57.48,-38.75 57.68,-37.9 57.79,-37.3 57.8,-36.94 57.7,-36.83 57.47,-37.03 57.09,-37.6 56.53,-38.62 55.78,-40.14 54.82,-42.18 53.67,-44.72 52.33,-47.72 50.79,-51.19 49.02,-55.2 47.01,-59.77" fill="none" stroke="rgb(220, 208, 186)" stroke-width="2" stroke-linejoin="round" filter="url(#fuzzy)" /><polyline points="40.62,-70.86 41.52,-69.64 42.02,-68.95 42.31,-68.5 42.49,-68.12 42.58,-67.8 42.52,-67.62 42.25,-67.66 41.7,-67.95 40.83,-68.54 39.63,-69.46 38.07,-70.72 36.16,-72.36 33.89,-74.37 31.19,-76.79 27.87,-79.78 23.66,-83.58" fill="none" stroke="rgb(220, 208, 186)" stroke-width="2" stroke-linejoin="round" filter="url(#fuzzy)" /><polyline points="2.33,-91.79 4.08,-91.73 5.09,-91.61 5.79,-91.39 6.25,-91.11 6.47,-90.78 6.44,-90.4 6.15,-89.95 5.58,-89.41 4.7,-88.78 3.5,-88.05 1.95,-87.23 0.06,-86.3 -2.18,-85.24 -4.78,-84.04 -7.77,-82.68 -11.17,-81.2 -14.99,-79.62 -19.24,-77.94 -23.94,-76.14 -29.14,-74.22 -34.85,-72.13" fill="none" stroke="rgb(220, 208, 186)" stroke-width="2" stroke-linejoin="round" filter="url(#fuzzy)" /><polyline points="29.17,-81.88 30.23,-81.04 30.61,-80.68 31.04,-80.26 31.54,-79.78 31.97,-79.3 32.24,-78.9 32.33,-78.61 32.23,-78.43 31.96,-78.35 31.52,-78.36 30.9,-78.44 30.05,-78.61 28.94,-78.92 27.49,-79.4 25.67,-80.11 23.43,-81.09 20.76,-82.32 17.68,-83.8 14.21,-85.48 10.35,-87.36 5.97,-89.49" fill="none" stroke="rgb(220, 208, 186)" stroke-width="2" stroke-linejoin="round" filter="url(#fuzzy)" /><polyline points="53.56,-49.1 53.77,-48.55 53.82,-47.69 53.44,-47.42 52.58,-47.82 51.27,-48.75 49.52,-50.11 47.28,-51.92 44.51,-54.26 41.14,-57.25 37.13,-60.96 32.47,-65.44 27.12,-70.7 21.07,-76.75 14.29,-83.66" fill="none" stroke="rgb(220, 208, 186)" stroke-width="2" stroke-linejoin="round" filter="url(#fuzzy)" /><polyline points="56.5,-42.44 56.82,-41.1 56.99,-39.77 56.9,-38.82 56.54,-38.25 55.91,-38.01 54.99,-38.06 53.77,-38.39 52.24,-39.04 50.38,-40.03 48.17,-41.42 45.6,-43.22 42.64,-45.45 39.3,-48.07 35.55,-51.06 31.39,-54.43 26.82,-58.2 21.82,-62.46 16.37,-67.24 10.48,-72.51 4.17,-78.22 -2.4,-84.39" fill="none" stroke="rgb(220, 208, 186)" stroke-width="2" stroke-linejoin="round" filter="url(#fuzzy)" /><polyline points="27.36,-82.94 28.79,-81.96 29.34,-81.32 29.25,-80.91 28.78,-80.54 28.01,-80.16 26.87,-79.79 25.26,-79.47 23.13,-79.21 20.45,-79.04 17.23,-78.93 13.49,-78.89 9.23,-78.89 4.43,-78.95 -0.95,-79.07 -7.03,-79.32 -13.88,-79.68 -21.64,-80.16" fill="none" stroke="rgb(220, 208, 186)" stroke-width="2" stroke-linejoin="round" filter="url(#fuzzy)" /><polyline points="33.37,-78.74 33.77,-77.99 34.46,-77.21 35.13,-76.53 35.75,-75.93 36.38,-75.32 37.04,-74.65 37.66,-73.95 38.17,-73.32 38.5,-72.83 38.6,-72.53 38.45,-72.44 38.06,-72.57 37.45,-72.9 36.62,-73.41 35.59,-74.1 34.32,-74.99 32.79,-76.11 30.93,-77.5 28.73,-79.19 26.23,-81.16 23.45,-83.41 20.24,-85.99" fill="none" stroke="rgb(220, 208, 186)" stroke-width="2" stroke-linejoin="round" filter="url(#fuzzy)" /><polyline points="31.26,-80.34 30.75,-80.57 31.03,-80.26 31.55,-79.74 31.97,-79.25 32.16,-78.86 32.1,-78.59 31.79,-78.46 31.25,-78.45 30.47,-78.54 29.44,-78.72 28.12,-79.01 26.45,-79.43 24.37,-80.07 21.82,-80.95 18.76,-82.14 15.19,-83.61 11.12,-85.34 6.57,-87.28 1.48,-89.36" fill="none" stroke="rgb(220, 208, 186)" stroke-width="2" stroke-linejoin="round" filter="url(#fuzzy)" /><polyline points="22.85,-85.92 23.24,-85.68 24.23,-84.98 25.46,-84.06 26.78,-83.06 28.14,-82.02 29.51,-80.93 30.85,-79.85 32.11,-78.8 33.27,-77.82 34.31,-76.93 35.21,-76.15 35.95,-75.55 36.45,-75.16 36.65,-75.03 36.56,-75.16 36.22,-75.5 35.94,-75.73" fill="none" stroke="rgb(220, 208, 186)" stroke-width="2" stroke-linejoin="round" filter="url(#fuzzy)" /><polyline points="-7.7,-91.47 -6.93,-91.46 -5.62,-91.27 -4.06,-90.96 -2.25,-90.57 -0.23,-90.08 1.97,-89.48 4.31,-88.76 6.78,-87.93 9.33,-87.01 11.94,-86.03 14.58,-85.01 17.21,-84 19.78,-83.01 22.24,-82.09 24.56,-81.23 26.74,-80.43 28.82,-79.61 30.89,-78.69 32.93,-77.72" fill="none" stroke="rgb(220, 208, 186)" stroke-width="2" stroke-linejoin="round" filter="url(#fuzzy)" /><polyline points="40.62,-70.86 41.48,-69.68 41.85,-69.1 41.91,-68.82 41.76,-68.71 41.4,-68.74 40.77,-68.99 39.79,-69.54 38.39,-70.47 36.53,-71.79 34.16,-73.53 31.23,-75.76 27.68,-78.51 23.57,-81.78 19.05,-85.52" fill="none" stroke="rgb(220, 208, 186)" stroke-width="2" stroke-linejoin="round" filter="url(#fuzzy)" /><polyline points="46.97,-61.73 47.81,-60.06 48.09,-59.06 48.06,-58.07 47.66,-57.12 46.82,-56.37 45.52,-55.86 43.77,-55.52 41.6,-55.26 39.04,-55.02 36.08,-54.79 32.72,-54.61 28.91,-54.54 24.65,-54.62 19.89,-54.86 14.63,-55.25 8.85,-55.74 2.54,-56.31 -4.31,-56.96 -11.69,-57.73 -19.6,-58.65 -28.02,-59.74 -36.96,-60.98" fill="none" stroke="rgb(220, 208, 186)" stroke-width="2" stroke-linejoin="round" filter="url(#fuzzy)" /><polyline points="53.56,-49.1 53.73,-48.53 53.68,-47.64 53.13,-47.3 52.04,-47.59 50.43,-48.35 48.28,-49.47 45.57,-50.96 42.25,-52.9 38.28,-55.36 33.62,-58.44 28.25,-62.17 22.16,-66.57 15.32,-71.65 7.73,-77.4 -0.46,-83.87" fill="none" stroke="rgb(220, 208, 186)" stroke-width="2" stroke-linejoin="round" filter="url(#fuzzy)" /><polyline points="25.75,-84.06 25.99,-83.86 26.45,-83.44 26.78,-82.95 26.79,-82.49 26.39,-82.12 25.54,-81.86 24.26,-81.67 22.55,-81.54 20.41,-81.47 17.79,-81.48 14.65,-81.58 10.97,-81.81 6.73,-82.15 1.89,-82.57 -3.61,-83.01 -9.82,-83.45 -16.72,-84" fill="none" stroke="rgb(220, 208, 186)" stroke-width="2" stroke-linejoin="round" filter="url(#fuzzy)" /><polyline points="19.75,-87.71 21.64,-86.49 22.39,-86.06 22.8,-85.78 23.1,-85.48 23.3,-85.17 23.33,-84.87 23.12,-84.64 22.62,-84.48 21.78,-84.41 20.54,-84.45 18.89,-84.62 16.81,-84.91 14.31,-85.33 11.38,-85.87 7.99,-86.55 4.13,-87.37 -0.22,-88.35 -5.14,-89.5" fill="none" stroke="rgb(220, 208, 186)" stroke-width="2" stroke-linejoin="round" filter="url(#fuzzy)" /><polyline points="10.79,-91.02 12.04,-90.45 12.55,-89.98 12.53,-89.49 12.15,-88.91 11.48,-88.17 10.52,-87.25 9.2,-86.15 7.44,-84.88 5.19,-83.43 2.44,-81.79 -0.86,-79.96 -4.71,-77.97 -9.15,-75.8 -14.17,-73.48 -19.76,-71.02 -25.91,-68.43 -32.68,-65.71 -40.21,-62.68" fill="none" stroke="rgb(220, 208, 186)" stroke-width="2" stroke-linejoin="round" filter="url(#fuzzy)" /><polyline points="34.22,-77.51 35.16,-76.3 35.05,-75.86 34.62,-75.32 33.92,-74.56 32.8,-73.69 31.12,-72.8 28.8,-71.98 25.77,-71.25 22.03,-70.64 17.6,-70.13 12.5,-69.68 6.73,-69.26 0.28,-68.83 -6.89,-68.39 -14.84,-67.94 -23.66,-67.48 -33.34,-67.15" fill="none" stroke="rgb(220, 208, 186)" stroke-width="2" stroke-linejoin="round" filter="url(#fuzzy)" /><polyline points="42.63,-68.3 42.72,-68.08 43.2,-67.36 43.82,-66.47 44.45,-65.56 45.04,-64.7 45.55,-63.93 45.95,-63.27 46.23,-62.74 46.37,-62.37 46.37,-62.17 46.21,-62.15 45.87,-62.35 45.32,-62.82 44.55,-63.6 43.53,-64.73 42.24,-66.19 40.71,-67.96 38.92,-70.01 36.9,-72.35 34.75,-74.96 32.42,-77.93" fill="none" stroke="rgb(220, 208, 186)" stroke-width="2" stroke-linejoin="round" filter="url(#fuzzy)" /><polyline points="18.66,-88.08 19.26,-87.72 20.65,-86.8 22.27,-85.63 23.89,-84.37 25.52,-83.02 27.21,-81.57 28.99,-80.02 30.82,-78.41 32.67,-76.78 34.5,-75.15 36.25,-73.58 37.87,-72.11 39.31,-70.78 40.56,-69.62 41.65,-68.64 42.53,-67.91" fill="none" stroke="rgb(220, 208, 186)" stroke-width="2" stroke-linejoin="round" filter="url(#fuzzy)" /><polyline points="52.27,-52.42 52.49,-51.68 52.58,-50.8 52.31,-50.26 51.61,-50.22 50.42,-50.81 48.74,-52.05 46.54,-53.88 43.82,-56.24 40.53,-59.14 36.63,-62.62 32.07,-66.77 26.84,-71.69 20.88,-77.43 14.19,-84.05" fill="none" stroke="rgb(220, 208, 186)" stroke-width="2" stroke-linejoin="round" filter="url(#fuzzy)" /><polyline points="-4.64,-91.6 -3.07,-91.86 -1.92,-91.97 -0.79,-91.99 0.36,-91.95 1.49,-91.89 2.57,-91.82 3.59,-91.75 4.52,-91.68 5.35,-91.61 6.03,-91.53 6.56,-91.45 6.89,-91.38 7.01,-91.33 6.9,-91.28 6.55,-91.25 5.93,-91.23 5.02,-91.21 3.79,-91.2 2.24,-91.2 0.38,-91.2 -1.75,-91.24 -4.2,-91.35" fill="none" stroke="rgb(220, 208, 186)" stroke-width="2" stroke-linejoin="round" filter="url(#fuzzy)" /><polyline points="52.27,-52.42 52.6,-51.54 52.99,-50.32 53.25,-49.22 53.31,-48.37 53.15,-47.88 52.75,-47.71 52.13,-47.8 51.29,-48.09 50.22,-48.56 48.91,-49.27 47.32,-50.25 45.45,-51.55 43.26,-53.21 40.74,-55.23 37.89,-57.62 34.69,-60.39 31.13,-63.56 27.18,-67.15 22.82,-71.21 18.06,-75.73 12.89,-80.73 7.21,-86.14" fill="none" stroke="rgb(220, 208, 186)" stroke-width="2" stroke-linejoin="round" filter="url(#fuzzy)" /><polyline points="14.75,-89.56 16.02,-89.08 17.15,-88.58 17.84,-88.18 18.27,-87.79 18.52,-87.37 18.56,-86.95 18.33,-86.55 17.8,-86.17 16.98,-85.81 15.87,-85.45 14.47,-85.08 12.73,-84.71 10.63,-84.34 8.1,-83.98 5.1,-83.63 1.64,-83.31 -2.29,-83.04 -6.62,-82.81 -11.35,-82.64 -16.5,-82.51 -22.06,-82.43" fill="none" stroke="rgb(220, 208, 186)" stroke-width="2" stroke-linejoin="round" filter="url(#fuzzy)" /><polyline points="-16.78,-88.97 -15.83,-89.15 -14.78,-89.49 -13.68,-89.88 -12.67,-90.22 -11.82,-90.49 -11.12,-90.67 -10.58,-90.78 -10.18,-90.81 -9.93,-90.78 -9.84,-90.68 -9.93,-90.49 -10.24,-90.23 -10.8,-89.87 -11.67,-89.4 -12.87,-88.81 -14.43,-88.08 -16.35,-87.24 -18.61,-86.3 -21.21,-85.29 -24.27,-84.13" fill="none" stroke="rgb(220, 208, 186)" stroke-width="2" stroke-linejoin="round" filter="url(#fuzzy)" /><polyline points="-2.04,-92.24 -1.07,-92.08 -0.04,-92 0.84,-91.92 1.55,-91.83 2.1,-91.71 2.46,-91.56 2.61,-91.37 2.53,-91.12 2.17,-90.83 1.52,-90.5 0.54,-90.11 -0.79,-89.67 -2.5,-89.15 -4.64,-88.54 -7.25,-87.82 -10.34,-87.02 -13.9,-86.16 -17.87,-85.29 -22.07,-84.48" fill="none" stroke="rgb(220, 208, 186)" stroke-width="2" stroke-linejoin="round" filter="url(#fuzzy)" /><polyline points="10.79,-91.02 12.06,-90.5 12.65,-90.17 12.72,-89.92 12.41,-89.68 11.8,-89.4 10.88,-89.06 9.55,-88.69 7.71,-88.3 5.3,-87.9 2.29,-87.47 -1.38,-87 -5.86,-86.5 -11.27,-85.96 -17.46,-85.4" fill="none" stroke="rgb(220, 208, 186)" stroke-width="2" stroke-linejoin="round" filter="url(#fuzzy)" /><polyline points="-11.33,-90.74 -9.81,-90.98 -9.13,-91.06 -8.6,-91.02 -8.18,-90.86 -7.88,-90.57 -7.76,-90.16 -7.83,-89.62 -8.12,-88.94 -8.64,-88.09 -9.43,-87.05 -10.49,-85.81 -11.84,-84.38 -13.51,-82.76 -15.51,-80.96 -17.84,-78.96 -20.54,-76.74 -23.64,-74.28 -27.16,-71.52 -31.14,-68.45 -35.63,-65.01 -40.68,-61.17 -46.23,-57" fill="none" stroke="rgb(220, 208, 186)" stroke-width="2" stroke-linejoin="round" filter="url(#fuzzy)" /><polyline points="22.82,-85.62 22.97,-85.72 23.55,-85.4 24.51,-84.75 25.68,-83.92 26.93,-83.03 28.17,-82.14 29.36,-81.28 30.43,-80.5 31.35,-79.81 32.1,-79.23 32.7,-78.76 33.15,-78.4 33.42,-78.2 33.46,-78.19 33.2,-78.43 32.53,-78.98 31.37,-79.93" fill="none" stroke="rgb(220, 208, 186)" stroke-width="2" stroke-linejoin="round" filter="url(#fuzzy)" /><polyline points="-26.01,-84.16 -24.51,-84.75 -23.12,-85.29 -21.55,-85.84 -19.84,-86.35 -18.07,-86.77 -16.26,-87.11 -14.37,-87.4 -12.39,-87.66 -10.33,-87.89 -8.19,-88.12 -6,-88.33 -3.79,-88.52 -1.6,-88.7 0.52,-88.85 2.54,-88.99 4.43,-89.12 6.2,-89.24 7.83,-89.36 9.3,-89.48 10.58,-89.62 11.72,-89.75 12.86,-89.82" fill="none" stroke="rgb(220, 208, 186)" stroke-width="2" stroke-linejoin="round" filter="url(#fuzzy)" /><polyline points="19.75,-87.71 21.76,-86.4 22.87,-85.68 23.88,-84.95 25.05,-84.06 26.37,-83.02 27.79,-81.87 29.25,-80.68 30.71,-79.46 32.13,-78.27 33.45,-77.12 34.67,-76.05 35.77,-75.07 36.78,-74.18 37.69,-73.37 38.49,-72.66 39.12,-72.11 39.53,-71.8 39.62,-71.84 39.33,-72.32" fill="none" stroke="rgb(220, 208, 186)" stroke-width="2" stroke-linejoin="round" filter="url(#fuzzy)" /><polyline points="14.06,-89.78 14.61,-89.58 15.53,-89.09 16.82,-88.38 18.27,-87.51 19.77,-86.54 21.31,-85.48 22.9,-84.32 24.51,-83.09 26.13,-81.83 27.72,-80.56 29.27,-79.31 30.8,-78.07 32.29,-76.86 33.74,-75.68 35.12,-74.56 36.4,-73.51 37.55,-72.58 38.54,-71.77 39.37,-71.1 40.08,-70.55 40.67,-70.12 41.18,-69.74 41.61,-69.37" fill="none" stroke="rgb(220, 208, 186)" stroke-width="2" stroke-linejoin="round" filter="url(#fuzzy)" /><polyline points="-11.33,-90.74 -9.66,-90.97 -8.5,-91.04 -7.21,-91 -5.72,-90.87 -4.05,-90.68 -2.25,-90.43 -0.34,-90.15 1.66,-89.84 3.72,-89.49 5.81,-89.11 7.89,-88.7 9.95,-88.27 11.96,-87.83 13.89,-87.39 15.72,-86.99 17.4,-86.62 18.89,-86.31 20.19,-86.05 21.28,-85.85 22.1,-85.76 22.59,-85.84" fill="none" stroke="rgb(220, 208, 186)" stroke-width="2" stroke-linejoin="round" filter="url(#fuzzy)" /><polyline points="46.97,-61.73 47.96,-60.01 48.69,-58.89 49.42,-57.71 50.08,-56.54 50.61,-55.55 50.97,-54.81 51.2,-54.29 51.32,-53.9 51.36,-53.62 51.31,-53.43 51.15,-53.4 50.87,-53.59 50.41,-54.08 49.77,-54.94 48.89,-56.18 47.76,-57.82 46.33,-59.88 44.58,-62.37 42.52,-65.33 40.22,-68.68 37.97,-72.15" fill="none" stroke="rgb(220, 208, 186)" stroke-width="2" stroke-linejoin="round" filter="url(#fuzzy)" /><polyline points="-32.82,-79.12 -31.65,-79.93 -30.6,-80.63 -29.71,-81.22 -29.07,-81.65 -28.69,-81.88 -28.56,-81.9 -28.65,-81.71 -28.95,-81.29 -29.48,-80.64 -30.27,-79.71 -31.4,-78.47 -32.95,-76.84 -35.02,-74.78 -37.69,-72.25 -40.91,-69.29" fill="none" stroke="rgb(220, 208, 186)" stroke-width="2" stroke-linejoin="round" filter="url(#fuzzy)" /><polyline points="31.26,-80.34 30.74,-80.57 30.98,-80.24 31.45,-79.69 31.79,-79.16 31.89,-78.69 31.74,-78.32 31.35,-78.04 30.73,-77.84 29.9,-77.69 28.85,-77.57 27.56,-77.5 25.96,-77.51 24.01,-77.64 21.65,-77.93 18.85,-78.4 15.59,-79.05 11.88,-79.84 7.75,-80.76 3.19,-81.82 -1.79,-83.02 -7.26,-84.36 -13.33,-85.79" fill="none" stroke="rgb(220, 208, 186)" stroke-width="2" stroke-linejoin="round" filter="url(#fuzzy)" /><polyline points="46.97,-61.73 47.95,-60.03 48.64,-58.97 49.29,-57.89 49.84,-56.87 50.22,-56.06 50.41,-55.51 50.44,-55.18 50.35,-54.99 50.15,-54.9 49.84,-54.92 49.4,-55.08 48.79,-55.46 47.99,-56.13 46.99,-57.1 45.76,-58.4 44.3,-60 42.57,-61.91 40.57,-64.15 38.27,-66.75 35.66,-69.77 32.75,-73.24 29.52,-77.18 26.1,-81.48" fill="none" stroke="rgb(220, 208, 186)" stroke-width="2" stroke-linejoin="round" filter="url(#fuzzy)" /><polyline points="55.57,-43.85 55.53,-44.32 55.83,-43.67 56.18,-42.71 56.48,-41.7 56.68,-40.79 56.77,-40.09 56.72,-39.64 56.54,-39.48 56.22,-39.59 55.75,-40 55.11,-40.73 54.28,-41.85 53.22,-43.39 51.92,-45.43 50.36,-47.96 48.55,-50.96 46.53,-54.35 44.33,-58.11 41.92,-62.31 39.24,-67.13 36.29,-72.67" fill="none" stroke="rgb(220, 208, 186)" stroke-width="2" stroke-linejoin="round" filter="url(#fuzzy)" /><polyline points="55.18,-45.59 55.58,-44.05 55.42,-43.24 54.73,-42.82 53.47,-42.83 51.62,-43.35 49.15,-44.45 46.04,-46.15 42.27,-48.42 37.84,-51.28 32.71,-54.73 26.87,-58.82 20.28,-63.57 12.9,-69.03 4.67,-75.21 -4.62,-82.07" fill="none" stroke="rgb(220, 208, 186)" stroke-width="2" stroke-linejoin="round" filter="url(#fuzzy)" /><polyline points="14.6,-89.69 14.93,-89.43 15.39,-88.9 15.49,-88.27 15,-87.56 13.93,-86.74 12.31,-85.76 10.08,-84.63 7.2,-83.39 3.62,-82.04 -0.67,-80.57 -5.66,-78.94 -11.39,-77.12 -17.9,-75.11 -25.3,-72.87 -33.75,-70.23" fill="none" stroke="rgb(220, 208, 186)" stroke-width="2" stroke-linejoin="round" filter="url(#fuzzy)" />
    </g>
    
        <g id="lineNose">
        <path d="M -7.7,29.26 Q 10.12, 51.045 1.2099999999999995, -5.5360000000000005" fill="none" stroke="black" stroke-width="3" stroke-linejoin="round" filter="url(#fuzzy)"></path>
        </g>
      
    <g id="mouth">
      <polyline points="-20.56,43.11 -20.17,44.9 -19.78,46.65 -19.39,48.36 -18.99,50.03 -18.59,51.67 -18.19,53.27 -17.78,54.83 -17.37,56.35 -16.96,57.83 -16.54,59.28 -16.13,60.69 -15.71,62.06 -15.28,63.39 -14.86,64.68 -14.44,65.94 -14.01,67.15 -13.58,68.33 -13.15,69.47 -12.72,70.58 -12.28,71.64 -11.85,72.67 -11.41,73.66 -10.97,74.61 -10.54,75.52 -10.1,76.39 -9.66,77.23 -9.22,78.03 -8.78,78.79 -8.34,79.51 -7.9,80.19 -7.46,80.84 -7.02,81.45 -6.58,82.01 -6.14,82.54 -5.7,83.04 -5.27,83.49 -4.83,83.91 -4.39,84.29 -3.96,84.63 -3.52,84.93 -3.09,85.19 -2.66,85.42 -2.23,85.6 -1.8,85.75 -1.38,85.86 -0.95,85.93 -0.53,85.97 -0.11,85.96 0.31,85.92 0.72,85.84 1.14,85.72 1.54,85.56 1.95,85.37 2.36,85.13 2.76,84.86 3.15,84.55 3.55,84.2 3.94,83.82 4.33,83.39 4.71,82.93 5.09,82.43 5.47,81.89 5.84,81.31 6.21,80.69 6.57,80.04 6.93,79.34 7.29,78.61 7.63,77.84 7.98,77.03 8.32,76.18 8.65,75.3 8.98,74.38 9.31,73.41 9.63,72.41 9.94,71.38 10.25,70.3 10.55,69.18 10.85,68.03 11.14,66.84 11.42,65.61 11.7,64.34 11.97,63.03 12.23,61.69 12.49,60.3 12.74,58.88 12.99,57.42 13.22,55.92 13.45,54.38 13.67,52.81 13.89,51.19 14.1,49.54 14.3,47.85 14.49,46.12 14.67,44.35 14.85,42.54 15.01,40.7 15.17,38.81 15.32,36.89 15.47,34.93 15.47,34.93 15.11,35.82 14.75,36.69 14.39,37.55 14.03,38.39 13.67,39.21 13.31,40.02 12.94,40.81 12.58,41.58 12.22,42.34 11.86,43.08 11.5,43.81 11.14,44.51 10.78,45.21 10.42,45.88 10.06,46.54 9.7,47.18 9.34,47.81 8.98,48.41 8.62,49.01 8.26,49.58 7.9,50.14 7.54,50.68 7.18,51.21 6.82,51.72 6.46,52.21 6.1,52.69 5.74,53.15 5.38,53.59 5.02,54.02 4.66,54.43 4.3,54.83 3.94,55.2 3.58,55.57 3.22,55.91 2.86,56.24 2.5,56.55 2.14,56.85 1.78,57.12 1.42,57.39 1.06,57.63 0.7,57.86 0.34,58.08 -0.02,58.27 -0.39,58.45 -0.75,58.62 -1.11,58.76 -1.47,58.89 -1.83,59.01 -2.19,59.11 -2.55,59.19 -2.91,59.25 -3.27,59.3 -3.63,59.33 -3.99,59.35 -4.35,59.35 -4.71,59.33 -5.07,59.3 -5.43,59.25 -5.79,59.18 -6.15,59.1 -6.51,59 -6.87,58.88 -7.23,58.75 -7.59,58.6 -7.95,58.43 -8.31,58.25 -8.67,58.06 -9.03,57.84 -9.39,57.61 -9.75,57.36 -10.11,57.1 -10.47,56.82 -10.83,56.52 -11.19,56.21 -11.55,55.88 -11.91,55.53 -12.27,55.17 -12.63,54.79 -12.99,54.4 -13.35,53.99 -13.71,53.56 -14.08,53.12 -14.44,52.66 -14.8,52.18 -15.16,51.69 -15.52,51.18 -15.88,50.65 -16.24,50.11 -16.6,49.55 -16.96,48.98 -17.32,48.38 -17.68,47.78 -18.04,47.15 -18.4,46.51 -18.76,45.85 -19.12,45.18 -19.48,44.49 -19.84,43.79 -20.2,43.06" fill="rgb(215,127,140)" stroke="black" stroke-width="3" stroke-linejoin="round" filter="url(#fuzzy)" />
    </g>
  </svg>