<svg xmlns="http://www.w3.org/2000/svg" width="500" height="500" viewBox="-100 -100 200 200"><defs><clipPath id="c"><path d="m29.48 3.55-.14-.35-.17-.36-.2-.37-.22-.37-.25-.38-.27-.37-.31-.37-.33-.37-.36-.37-.38-.36-.42-.35-.44-.34-.46-.34-.5-.32-.52-.31-.45-.5-.5-.47-.55-.45-.59-.41-.64-.39-.67-.36-.72-.33-.76-.3-.8-.27-.84-.23-.87-.2-.9-.17-.94-.14-.97-.11-.99-.08-1.02-.04-1.04-.02-1.06.01-1.08.04-1.1.06-1.1.09-1.12.12-1.12.13-1.13.16-1.14.18-1.13.2-1.13.22-1.13.23-1.12.25-1.11.26-1.1.28-1.09.28-1.07.3-1.06.3-1.04.31-1.02.32-1 .32-.98.32-.95.33-.93.32-.9.33-.88.33-.85.32-.82.33-.8.31-.76.32-.74.31-.71.3-.69.3-.65.3-.63.28-.61.29-.58.27-.55.27-.53.27-.5.26-.47.25-.45.25-.43.24-.4.23-.37.23-.35.21-.32.22-.3.2 1.9.74.28.06.3.06.33.05.34.04.36.04.38.03.41.03.41.02.44.01.46.01.47.01h.49l.51-.01.52-.01.54-.01.56-.02.58-.02.6-.03.61-.03.63-.04.65-.04.67-.04.67-.05.7-.04.7-.05.72-.05.73-.06.74-.05.75-.05.76-.05.76-.06.78-.05.78-.05.79-.04.79-.05.8-.04.8-.04.81-.03.81-.03.81-.03.81-.02.81-.01.82-.01.81-.01.82.01h.81l.82.02.81.02.81.03.8.04.81.05.8.05.8.06.8.06.79.08.79.08.79.09.78.09.77.1.77.1.77.11.76.12.75.11.75.13.63.06.63.07.61.07.61.06.6.07.59.06.57.06.57.06.55.05.54.05.52.04.51.03.49.03.48.02.45.01"/></clipPath><clipPath id="b"><path d="m-28.76 4.16.09-.32.12-.32.14-.33.16-.34.19-.35.21-.34.24-.35.26-.34.29-.34.31-.34.34-.33.36-.33.39-.32.41-.31.44-.3.38-.47.42-.45.46-.43.5-.41.54-.38.58-.35.61-.33.66-.3.69-.27.73-.25.76-.21.8-.19.83-.16.85-.12.89-.11.92-.07.94-.04.96-.02h.99l1.01.04 1.02.05 1.04.08 1.05.11 1.07.12 1.07.15 1.08.16 1.09.19 1.09.2 1.09.21 1.09.24 1.09.24 1.09.26 1.07.27 1.07.28 1.07.28 1.05.3 1.03.3 1.02.3 1.01.31.99.32.97.31.95.32.93.32.91.31.89.32.87.31.84.31.82.3.8.3.77.3.75.29.72.29.71.28.68.28.67.27.64.27.62.27.59.26.58.25.55.25.53.24.5.24.48.23.46.22.16 1.41-.24.03-.27.03-.29.01-.3.01-.33.01h-.35l-.37-.01-.38-.01-.41-.02-.43-.03-.44-.03-.46-.04-.49-.04-.49-.05-.52-.05-.54-.06-.56-.06-.58-.07-.6-.07-.62-.08-.64-.09-.65-.08-.67-.09-.69-.1-.71-.1-.72-.1-.74-.1-.75-.1-.77-.11-.78-.11-.79-.1-.8-.11-.81-.1-.82-.11-.83-.1-.84-.09-.85-.1-.85-.09-.86-.08-.86-.08-.87-.07-.87-.06-.87-.06-.88-.05-.88-.04-.87-.03-.88-.02-.87-.01h-.87l-.87.01-.87.02-.86.04-.86.05-.85.06-.85.07-.84.08-.83.1-.83.1-.82.12-.8.13-.8.14-.79.16-.77.16-.77.17-.67.08-.65.09-.65.09-.63.09-.63.1-.61.09-.6.09-.58.09-.57.08-.55.09-.54.08-.52.07-.51.07-.48.06-.46.05"/></clipPath><linearGradient id="d" x1="0%" x2="100%" y1="0%" y2="0%"><stop offset="0%" style="stop-color:#2212e9;stop-opacity:1"/><stop offset="82.5%" style="stop-color:#a38be3;stop-opacity:1"/><stop offset="100%" style="stop-color:#74139c;stop-opacity:1"/></linearGradient><filter id="a"><feTurbulence baseFrequency=".05" numOctaves="3" result="noise" type="noise"/><feDisplacementMap in="SourceGraphic" in2="noise" scale="2"/></filter></defs><rect width="100%" height="100%" x="-100" y="-100" fill="#CBF2A6"/><path fill="#8220DF" stroke="#000" stroke-linejoin="round" stroke-width="1.667" d="m74.73 1.66-.06.92.21-.38-.41.98.04 3.67-.01.87.14-2.02-.14 2.64-.41 2.52.26-.94-.48 2.48v.93l-.24 1.58-.02.13-.71 2.21-.29 2.17-.13-.03-.65 3.98-.02.33-.57 1.66.19.09-.03-.06-1.03 2.75-1.28 3.3-.37 1.21-.09.09-.52 1.04.44-.26-1.34 2.51-.77 1.98-.45 1.24-.41-.11-.42 1.43-1.1 1.95-.71 1.23-.38.78-.28.91-.45.99-.46 1.07-.7.52-.84.7L59 51.05l-.46.7.63-1.02-.92 1.42-1.51 2.18-.5.29-1.45 2.33.07-.87-1.84 2.27.58-.26-.85.95L50 61.79l1.26-1.52-2.21 2.77.86-1.41-2.83 3.12-1.3 1.23.96-1.26-.96.97-.28.38-3.74 3 .24-.3-.17.3L40 70.41l.35-.41-2.02 1.25-1.43.84-.57.6-1.02.63-1.46.94-.11.1-1.6.96-2.99 1.4.7-.44-2.35 1.01-.9.29-1.34.78.86-.48-2.4.86-1.02.52-2.58.72 2.43-.91-2.62.98-.87.13-1.34.27.14.36-2.64.57-2.45.57 1.22-.09-2.43.17-.68.23-1.99.13h-.48l-.71.25-3.38.41 1-.17-2.47-.05-1.78.15-1.01.09-.67-.15-.78.25-.57-.19-1.96.08-1.15-.13-1.01-.01-.17-.3-2.08-.15-1.63-.07-.23-.06-.83-.15-2.46-.59-1.98-.26 1.06.29-1.02-.5-.21.09-3.33-.97.47.47-3.12-.97-.24-.32-1.02-.36-2.03-.82.05.38-3.56-1.61.2-.41-.77.03-1.02-.71-.26.36-1.42-1.3-.56-.07-1.96-1.44.33.68-1.9-1.03-2.16-1.62.8.39-1.2-.57-.64-.54-1.09-1.04-3.03-2.04-1.26-1.06.31.93-.78-1.28-1-.81-1.31-1.25-.16.14.17.3-2.71-3.03.43.58-2.51-2.55.34.47-1.29-1.61.41.34-2.43-2.71-.84-1.21-1.1-.81.69.59-2.01-2.59-.28-.16-.76-1.5-.79-1.4.88 1.51-2.57-3.57.23.1-.46-.69-1.19-2.09-.38-.56-1.75-2.95.61.67-.99-1.48.39.47-1.14-2.33-.17-1.4-1.26-1.94-.41-1.13-.23-1.27-.98-2.09.5 1.06-1.71-3.42.06.03-.32-2.07.03.78-1.31-4.5.57 1.73-.5-2.5-.22-.63-.35-.69-.29-3.6-.1 1.16-.44-3.48.29.77-.74-2.5-.13-.25-.06-2.11-.01-.64-.4-2.5.14.28-.13-3.3-.12-.41.09-2.32.09-.12.02-3 .04.21-.27-3.3-.13 2.37.11-1.95.32-.68.35-3.06-.13-1.77.35-.78-.08-.82.11-.8.68-3.65-.25 1.36.13-2.63.74-1.54-.02-.78.67-2-.36 1.47-.05-1.37 1.06-2.88.33-1.8.26-.69.54-1.06-.33.04.75-1.6.7-1.95 1.33-3.28-.86 1.08 1.01-1.46.39-1.8.19.39.55-2.46 1.14-.82.12-1.21.26-.25 1.89-3.65-.96 1.85 1.73-2.94.14-.68 1.3-1.19-.15-.06 1.31-1.93 1.13-1.46-.1-.73.82-.93.37-.14 1.33-2.23-.64 1.26 2.17-2.59.19-.5 2.05-2.49-.53.96 2.41-2.16.44-.67.64-.31.22-.55 2.22-1.87.03-.09 1.04-1.64h.38l2.51-1.72-.99.65 1.39-1.14 1.18-1.07 1.71-1.02 1.61-.74-.57.05 2.46-1.32.09-.22 2.5-1.55-.43-.22 2.12-.62.24-.27 1.25-.27.02-.73 3.9-1.53-.78.45 1.47-.36-.08-.34 1.08-.58.9.17 2.34-1.26-.11.27 1.18-.3 1.13-.59 1.7-.64 2.15-.5.37.14 1.49-.4.88.01.93-.1 1.47-.39-.29-.06 1.81-.25-.04.23 3.52-.53 1.48.06.03-.16 2.35-.17-.51.15 2.22-.24.45-.07.31-.01 2.46.28.76.19.49-.11 1.84.28 1.05.27.93-.27.38.25 3.15.29 2.52.51.45.16.35.14-.49.03 3.66.96-1.09-.36 2.02.38.17.35.72.02 3.91 1.22.41.26.23.25.51-.16 1.49.85 2.14.75.37.63.19-.39 2.56 1.66-.75-.45 3.06 1.49.88.63.44.25.49.14 1.6 1.16 1.09 1.05.48-.03.7.65.51.41 2.6 1.83.64.49L45.62-66l-.46-.04 1.26.75.86 1.08 1.72 1.7 1.03.9 1.09.87 1.3 1.32-.67-.82.67.81.65.83 2.54 3.14-.04.04 1.2 1.3.54.58-.21.21.78.47 1.21 1.93 1.46 2.13-.82-.61 1.12 1.09 1 2.51.34-.49.26 1.28.82 1.02 1.75 2.58.27.43-.44-.11.69 1.6 1.33 1.6-.04 1.57.49-.07 1.16 2.74-.46-.85.99 2.91-.08-.46.73 2.38 1.09 2.17-.37-.11.53 2.01.71 1.88.09.2.65 1.84.3 3.11.52.24v1.6l.14.01-.23.27.26 1.89.23 1.35.19 1.43.54 1.41.03 1.78.01-.08L74.4-7l.28 1.32.11 2.79-.07 1.56.04-.06-.03 3.05-.06.92" filter="url(#a)"/><path fill="#fff" d="m-28.76 4.16.09-.32.12-.32.14-.33.16-.34.19-.35.21-.34.24-.35.26-.34.29-.34.31-.34.34-.33.36-.33.39-.32.41-.31.44-.3.38-.47.42-.45.46-.43.5-.41.54-.38.58-.35.61-.33.66-.3.69-.27.73-.25.76-.21.8-.19.83-.16.85-.12.89-.11.92-.07.94-.04.96-.02h.99l1.01.04 1.02.05 1.04.08 1.05.11 1.07.12 1.07.15 1.08.16 1.09.19 1.09.2 1.09.21 1.09.24 1.09.24 1.09.26 1.07.27 1.07.28 1.07.28 1.05.3 1.03.3 1.02.3 1.01.31.99.32.97.31.95.32.93.32.91.31.89.32.87.31.84.31.82.3.8.3.77.3.75.29.72.29.71.28.68.28.67.27.64.27.62.27.59.26.58.25.55.25.53.24.5.24.48.23.46.22.16 1.41-.24.03-.27.03-.29.01-.3.01-.33.01h-.35l-.37-.01-.38-.01-.41-.02-.43-.03-.44-.03-.46-.04-.49-.04-.49-.05-.52-.05-.54-.06-.56-.06-.58-.07-.6-.07-.62-.08-.64-.09-.65-.08-.67-.09-.69-.1-.71-.1-.72-.1-.74-.1-.75-.1-.77-.11-.78-.11-.79-.1-.8-.11-.81-.1-.82-.11-.83-.1-.84-.09-.85-.1-.85-.09-.86-.08-.86-.08-.87-.07-.87-.06-.87-.06-.88-.05-.88-.04-.87-.03-.88-.02-.87-.01h-.87l-.87.01-.87.02-.86.04-.86.05-.85.06-.85.07-.84.08-.83.1-.83.1-.82.12-.8.13-.8.14-.79.16-.77.16-.77.17-.67.08-.65.09-.65.09-.63.09-.63.1-.61.09-.6.09-.58.09-.57.08-.55.09-.54.08-.52.07-.51.07-.48.06-.46.05" filter="url(#a)" transform="translate(39.3 -20.62)"/><path fill="#fff" d="m29.48 3.55-.14-.35-.17-.36-.2-.37-.22-.37-.25-.38-.27-.37-.31-.37-.33-.37-.36-.37-.38-.36-.42-.35-.44-.34-.46-.34-.5-.32-.52-.31-.45-.5-.5-.47-.55-.45-.59-.41-.64-.39-.67-.36-.72-.33-.76-.3-.8-.27-.84-.23-.87-.2-.9-.17-.94-.14-.97-.11-.99-.08-1.02-.04-1.04-.02-1.06.01-1.08.04-1.1.06-1.1.09-1.12.12-1.12.13-1.13.16-1.14.18-1.13.2-1.13.22-1.13.23-1.12.25-1.11.26-1.1.28-1.09.28-1.07.3-1.06.3-1.04.31-1.02.32-1 .32-.98.32-.95.33-.93.32-.9.33-.88.33-.85.32-.82.33-.8.31-.76.32-.74.31-.71.3-.69.3-.65.3-.63.28-.61.29-.58.27-.55.27-.53.27-.5.26-.47.25-.45.25-.43.24-.4.23-.37.23-.35.21-.32.22-.3.2 1.9.74.28.06.3.06.33.05.34.04.36.04.38.03.41.03.41.02.44.01.46.01.47.01h.49l.51-.01.52-.01.54-.01.56-.02.58-.02.6-.03.61-.03.63-.04.65-.04.67-.04.67-.05.7-.04.7-.05.72-.05.73-.06.74-.05.75-.05.76-.05.76-.06.78-.05.78-.05.79-.04.79-.05.8-.04.8-.04.81-.03.81-.03.81-.03.81-.02.81-.01.82-.01.81-.01.82.01h.81l.82.02.81.02.81.03.8.04.81.05.8.05.8.06.8.06.79.08.79.08.79.09.78.09.77.1.77.1.77.11.76.12.75.11.75.13.63.06.63.07.61.07.61.06.6.07.59.06.57.06.57.06.55.05.54.05.52.04.51.03.49.03.48.02.45.01" filter="url(#a)" transform="translate(-50.06 -19.89)"/><g fill="none" stroke="#000" transform="translate(39.3 -20.62)"><path stroke-linejoin="round" stroke-width="1.667" d="m-28.54 6.29-.11-.09-.09-.13-.07-.15-.05-.19-.04-.21-.01-.24v-.25l.03-.28.05-.29.07-.3.09-.32.12-.32.14-.33.16-.34.19-.35.21-.34.24-.35.26-.34.29-.34.31-.34.34-.33.36-.33.39-.32.41-.31.44-.3.38-.47.42-.45.46-.43.5-.41.54-.38.58-.35.61-.33.66-.3.69-.27.73-.25.76-.21.8-.19.83-.16.85-.12.89-.11.92-.07.94-.04.96-.02h.99l1.01.04 1.02.05 1.04.08 1.05.11 1.07.12 1.07.15 1.08.16 1.09.19 1.09.2 1.09.21 1.09.24 1.09.24 1.09.26 1.07.27 1.07.28 1.07.28 1.05.3 1.03.3 1.02.3 1.01.31.99.32.97.31.95.32.93.32.91.31.89.32.87.31.84.31.82.3.8.3.77.3.75.29.72.29.71.28.68.28.67.27.64.27.62.27.59.26.58.25.55.25.53.24.5.24.48.23.46.22.44.22.42.21.39.21.37.19.35.2.33.18.31.18.29.17.27.17.25.16" filter="url(#a)"/><path stroke-linejoin="round" stroke-width="2.222" d="m-28.02 6.74.2.12.23.09.26.07.29.04.32.03.35.02.37-.01.39-.01.42-.03.45-.04.46-.05.48-.06.51-.07.52-.07.54-.08.55-.09.57-.08.58-.09.6-.09.61-.09.63-.1.63-.09.65-.09.65-.09.67-.08.77-.17.77-.16.79-.16.8-.14.8-.13.82-.12.83-.1.83-.1.84-.08.85-.07.85-.06.86-.05.86-.04.87-.02.87-.01h.87l.87.01.88.02.87.03.88.04.88.05.87.06.87.06.87.07.86.08.86.08.85.09.85.1.84.09.83.1.82.11.81.1.8.11.79.1.78.11.77.11.75.1.74.1.72.1.71.1.69.1.67.09.65.08.64.09.62.08.6.07.58.07.56.06.54.06.52.05.49.05.49.04.46.04.44.03.43.03.41.02.38.01.37.01h.35l.33-.01.3-.01.29-.01.27-.03.24-.03.23-.03.21-.04.18-.05.17-.05.15-.06.13-.07.1-.07.09-.07.07-.08.06-.09" filter="url(#a)"/><circle cx="23.892" cy="7.765" r="4.96" clip-path="url(#b)" filter="url(#a)"/><circle cx="23.552" cy="6.02" r="4.98" clip-path="url(#b)" filter="url(#a)"/><circle cx="23.247" cy="3.585" r="4.926" clip-path="url(#b)" filter="url(#a)"/><circle cx="24.517" cy="8.315" r="3.988" clip-path="url(#b)" filter="url(#a)"/><circle cx="23.032" cy="3.455" r="3.264" clip-path="url(#b)" filter="url(#a)"/><circle cx="24.967" cy="7.19" r="4.78" clip-path="url(#b)" filter="url(#a)"/><circle cx="25.372" cy="5.45" r="4.732" clip-path="url(#b)" filter="url(#a)"/><circle cx="22.902" cy="7.18" r="4.246" clip-path="url(#b)" filter="url(#a)"/><circle cx="23.102" cy="8.24" r="3.902" clip-path="url(#b)" filter="url(#a)"/><circle cx="21.562" cy="7.84" r="3.092" clip-path="url(#b)" filter="url(#a)"/></g><g fill="none" stroke="#000" transform="translate(-50.06 -19.89)"><path stroke-linejoin="round" stroke-width="2.222" d="m29.64 6.12.07-.13.06-.17.04-.21.02-.23v-.25l-.02-.28-.05-.3-.07-.32-.09-.33-.12-.35-.14-.35-.17-.36-.2-.37-.22-.37-.25-.38-.27-.37-.31-.37-.33-.37-.36-.37-.38-.36-.42-.35-.44-.34-.46-.34-.5-.32-.52-.31-.45-.5-.5-.47-.55-.45-.59-.41-.64-.39-.67-.36-.72-.33-.76-.3-.8-.27-.84-.23-.87-.2-.9-.17-.94-.14-.97-.11-.99-.08-1.02-.04-1.04-.02-1.06.01-1.08.04-1.1.06-1.1.09-1.12.12-1.12.13-1.13.16-1.14.18-1.13.2-1.13.22-1.13.23-1.12.25-1.11.26-1.1.28-1.09.28-1.07.3-1.06.3-1.04.31-1.02.32-1 .32-.98.32-.95.33-.93.32-.9.33-.88.33-.85.32-.82.33-.8.31-.76.32-.74.31-.71.3-.69.3-.65.3-.63.28-.61.29-.58.27-.55.27-.53.27-.5.26-.47.25-.45.25-.43.24-.4.23-.37.23-.35.21-.32.22-.3.2-.28.2-.25.19-.23.18-.2.18-.18.16-.16.17-.14.15-.12.15-.1.14-.07.13" filter="url(#a)"/><path stroke-linejoin="round" stroke-width="2.222" d="m29.05 6.91-.2.12-.22.11-.26.1-.29.07-.32.06-.34.05-.37.03-.4.02-.41.01-.44-.01-.45-.01-.48-.02-.49-.03-.51-.03-.52-.04-.54-.05-.55-.05-.57-.06-.57-.06-.59-.06-.6-.07-.61-.06-.61-.07-.63-.07-.63-.06-.75-.13-.75-.11-.76-.12-.77-.11-.77-.1-.77-.1-.78-.09-.79-.09-.79-.08-.79-.08-.8-.06-.8-.06-.8-.05-.81-.05-.8-.04-.81-.03-.81-.02-.82-.02h-.81l-.82-.01-.81.01-.82.01-.81.01-.81.02-.81.03-.81.03-.81.03-.8.04-.8.04-.79.05-.79.04-.78.05-.78.05-.76.06-.76.05-.75.05-.74.05-.73.06-.72.05-.7.05-.7.04-.67.05-.67.04-.65.04-.63.04-.61.03-.6.03-.58.02-.56.02-.54.01-.52.01-.51.01h-.49l-.47-.01-.46-.01-.44-.01-.41-.02-.41-.03-.38-.03-.36-.04-.34-.04-.33-.05-.3-.06-.28-.06-.27-.07-.24-.07-.22-.08-.21-.08-.18-.1-.17-.09-.14-.11-.13-.1-.1-.12-.09-.12" filter="url(#a)"/><circle cx="-2.977" cy="6.3" r="4.884" clip-path="url(#c)" filter="url(#a)"/><circle cx="-2.717" cy="6.025" r="3.714" clip-path="url(#c)" filter="url(#a)"/><circle cx="-5.872" cy="3.64" r="4.106" clip-path="url(#c)" filter="url(#a)"/><circle cx="-3.752" cy="3.77" r="4.446" clip-path="url(#c)" filter="url(#a)"/><circle cx="-5.597" cy="6.235" r="3.882" clip-path="url(#c)" filter="url(#a)"/><circle cx="-6.987" cy="4.05" r="3.032" clip-path="url(#c)" filter="url(#a)"/><circle cx="-5.322" cy="5.025" r="3.342" clip-path="url(#c)" filter="url(#a)"/><circle cx="-7.167" cy="6.035" r="3.312" clip-path="url(#c)" filter="url(#a)"/><circle cx="-4.987" cy="2.945" r="3.642" clip-path="url(#c)" filter="url(#a)"/><circle cx="-6.452" cy="4.435" r="3.722" clip-path="url(#c)" filter="url(#a)"/></g><g fill="none" stroke="url(#d)" stroke-linejoin="round" stroke-width="2"><path d="m59.09-50.93.66 1.21.02.58-.22.48-.5.36-.84.21-1.22.03-1.62-.15-2.05-.39-2.53-.64-3.02-.9-3.52-1.17-4.04-1.42-4.58-1.7-5.17-1.98-5.81-2.28-6.45-2.56-7.1-2.86-7.69-3.16-8.23-3.51-8.86-3.82m66.1 15.18-.23-.25.31.48.5.81.42.79.15.57-.17.3-.49.06-.76-.13-1.03-.29-1.31-.44-1.62-.63L46.2-59l-2.4-1.1-2.86-1.37-3.29-1.64-3.72-1.91-4.14-2.18-4.56-2.48-5.04-2.82-5.56-3.2-6.22-3.59m-12.17-3.5.52-.12.7-.01.53.06.31.15.1.26-.14.39-.41.51-.71.64-1.04.77-1.4.88-1.77 1-2.15 1.16-2.57 1.32-3.01 1.5-3.55 1.69-4.15 1.86-4.79 2.01-5.44 2.17-6.06 2.37-6.67 2.48m89.47-5.53.94.78.52.52.5.52.45.53.26.42-.06.16-.5-.18-1-.56-1.53-.93-2.03-1.25-2.51-1.53-2.99-1.83-3.44-2.21-3.88-2.68" filter="url(#a)"/><path d="m20.46-79.92 2.48.83 1 .43.4.29.18.28.01.3-.25.32-.58.3-.96.28-1.37.26-1.8.24-2.26.21-2.76.17-3.3.1-3.86.05-4.43-.01-4.99-.08-5.52-.16-6.01-.3-6.41-.5" filter="url(#a)"/><path d="m37.99-71.63.81.67.59.42.55.43.52.47.37.42.11.3-.25.13-.62-.06-.96-.22-1.3-.39-1.67-.58-2.11-.83-2.66-1.14-3.39-1.51-4.21-1.87-4.98-2.19-5.45-2.38" filter="url(#a)"/><path d="m17.55-80.67 1.13.37.32.45-.12.59-.73.71-1.55.79-2.45.88-3.29 1-4.12 1.13-4.96 1.29-5.89 1.43-6.88 1.61-7.92 1.79-9 2.04-10.17 2.29M65.29-40.99l-.14.33.07.68-.11.55-.44.22-.85-.17-1.26-.56-1.69-.94-2.11-1.31-2.53-1.7-2.99-2.1-3.46-2.57-3.98-3.08-4.58-3.63-5.28-4.23-6.1-4.85-6.9-5.45-7.46-6.02m-47.01.53 1.03-.44 1.12-.6 1.04-.49.78-.31.53-.17.34-.06.2.03.06.14-.1.25-.29.38-.53.55-.8.72-1.09.92-1.44 1.16-1.85 1.41-2.28 1.65-2.77 1.9-3.27 2.16-3.81 2.42-4.36 2.75" filter="url(#a)"/><path d="m-35.96-72.63 1.7-1.08 1.3-.68 1.38-.55 1.53-.54 1.68-.59 1.79-.61 1.83-.6 1.81-.56 1.77-.53 1.73-.49 1.72-.49 1.69-.47 1.67-.47 1.6-.45 1.51-.44 1.4-.4 1.27-.35 1.09-.29.83-.21.52-.13.07-.05-.64.04m24.26 1.9 1.33.33.89.3.84.32.63.3.22.22-.26.14-.7.08-1.14.02-1.63-.02-2.22-.1-2.89-.19-3.57-.29-4.21-.41-4.77-.52-5.38-.63" filter="url(#a)"/><path d="m12.15-82.11 1.79.43 1.14.4 1.07.47 1.25.56 1.44.64 1.6.71 1.71.77 1.81.83 1.88.86 1.9.88 1.87.88 1.79.88 1.7.86 1.59.82 1.45.75 1.31.66 1.15.55.99.47.85.38.66.28.37.11-.07-.15-.55-.44M1.09-83.29l1.74.22 1.08.14.8.12.64.12.46.12.28.14.08.17-.23.2-.66.22-1.23.23-1.88.24-2.53.26-3.18.31-3.79.36-4.38.39-4.81.3" filter="url(#a)"/><path d="m4.8-82.93 1.69.39 1.82.6 2.2.86 2.7 1.15 3.1 1.42 3.3 1.64 3.37 1.81 3.39 1.95 3.46 2.05 3.56 2.11 3.64 2.16 3.71 2.2 3.78 2.28 3.87 2.41 3.85 2.42" filter="url(#a)"/><path d="m-24.67-78.65 1.29-.17 1.57-.32 1.7-.27 1.94-.24 2.21-.23 2.43-.19 2.55-.14 2.6-.08 2.59-.03 2.57.01 2.54.02 2.51.03 2.48.04 2.45.03 2.43.03 2.36.04 2.18.03 1.82-.02 1.36-.08 1.14-.07m47.24 39.27-.25.39-.28.85-.68.85-1.23.67-1.82.46-2.41.27-3.02.12-3.63-.02-4.23-.15-4.86-.27-5.51-.43-6.18-.62-6.87-.82-7.58-1.02-8.32-1.19-9.07-1.36-9.84-1.52-10.6-1.74-11.33-2.06-12-2.44" filter="url(#a)"/><path d="m17.55-80.67 1.2.36.52.43.2.54-.25.63-.92.68-1.62.74-2.31.83-2.95.95-3.61 1.06-4.32 1.18-5.08 1.29-5.88 1.43-6.69 1.59-7.56 1.77-8.49 1.9-9.43 1.92M66.87-37.9l.02 1.07-.05.77-.35.64-.72.51-1.07.38-1.43.26-1.8.12-2.2-.05-2.63-.25-3.07-.47-3.53-.67-4-.91-4.47-1.14-4.98-1.42-5.5-1.71-6.03-2.02-6.59-2.31-7.13-2.57-7.67-2.79-8.22-3-8.81-3.18-9.48-3.35-10.17-3.5m2.75-12.8 2.36-.88 1.08-.36.76-.29.74-.3.79-.3.81-.31.8-.27.72-.23.63-.18.5-.11.35-.02.15.08-.1.21-.39.34-.71.49-1.04.64-1.38.77-1.73.92-2.06 1.07-2.43 1.25-2.82 1.45-3.2 1.64-3.42 1.67" filter="url(#a)"/><path d="m-43.83-67.17 1.35-1.08 1.46-1.04 1.45-.94 1.39-.85 1.33-.82 1.28-.79 1.23-.76 1.14-.71 1.01-.61.84-.5.62-.35.4-.22.16-.09-.1.06-.42.23-.8.44-1.23.72-1.64.99m70.75.7 1.34 1.02 1.09.82.99.72 1.03.76 1.08.81 1.07.8.95.73.77.6.56.46.33.31.1.14-.17-.06-.49-.32-.83-.61-1.2-.92-1.62-1.27-2.15-1.71" filter="url(#a)"/><path d="m39.08-70.58.46.15.52.4.54.5.41.49.09.33-.32.13-.78-.07-1.23-.25-1.71-.43-2.2-.63-2.75-.88-3.34-1.2-4-1.57-4.69-1.92-5.39-2.26-6.16-2.57" filter="url(#a)"/><path d="m15.47-81.3.68.35 1.49.61 1.65.77 1.82.92 2.08 1.12 2.32 1.27 2.46 1.38 2.5 1.45 2.49 1.49 2.46 1.53 2.45 1.57 2.41 1.55 2.28 1.45 2.09 1.29 1.87 1.08 1.75 1 1.86 1.2m8.96 10.34.68 1.19.09.52-.14.36-.38.19-.68-.04-1.02-.29-1.4-.58-1.82-.9-2.31-1.29-2.86-1.68-3.45-2.09-4.09-2.5L37-60.96l-5.32-3.38-5.91-3.86-6.56-4.38-7.23-4.89m13.03-.72.9.21 1.36.61 1.42.7 1.37.72 1.32.71 1.29.69 1.23.68 1.12.6.94.52.72.4.47.26.19.1-.11-.07-.43-.26-.84-.51-1.54-.89" filter="url(#a)"/><path d="m65.54-39.5.79 1.33.27.9.02.59-.23.34-.48.12-.75-.11-1.01-.34-1.31-.59-1.64-.91-2-1.25-2.36-1.62-2.72-2-3.1-2.4-3.48-2.83-3.88-3.29-4.31-3.82-4.83-4.37-5.47-4.95-6.29-5.51-7.06-5.99m44.85 27.4-.19.03.37.69.43.77.35.67.24.56.1.42-.09.24-.3.01-.53-.22-.77-.45-.99-.71-1.24-.97-1.51-1.27-1.81-1.6-2.14-1.95-2.49-2.32-2.86-2.69-3.21-3.08-3.53-3.47-3.86-3.9-4.3-4.41m-62.5-3.11 1.02-.82 1.58-.71 1.42-.52 1.3-.44 1.28-.44 1.32-.46 1.36-.46 1.33-.43 1.23-.4 1.07-.36.85-.3.58-.23.18-.13-.38.04-1.12.27M.78-83.28l.95.1 1.48.2 1.55.23 1.58.24 1.62.24 1.64.25 1.63.23 1.55.23 1.41.22 1.17.18.81.14.4.09h-.01l-.35-.09-.54-.19m-19.43-1.58.69-.11 1.18.01 1.33.07 1.46.14 1.58.21 1.7.27 1.78.32 1.84.36 1.88.38 1.89.38 1.9.39 1.88.38 1.85.37 1.74.36 1.58.32 1.36.28 1.1.23.86.17.64.1.39.02.13-.06-.1-.11-.15-.09" filter="url(#a)"/><path d="m52.42-59.42-.35-.23-.05.56-.09.94-.41 1-.89.87-1.43.71-1.96.57-2.48.52-2.96.51-3.45.5-3.96.49-4.51.45-5.08.4-5.67.36-6.25.33-6.85.3-7.45.28-8.04.21-8.66.09-9.27-.06-9.87-.17-10.39-.26m35.94-30.8 1.02-.27.93-.16 1.18-.13 1.41-.12 1.5-.12 1.45-.11 1.3-.1 1.13-.09.95-.07.8-.05.65-.03.5.01.34.04.14.06-.11.08-.41.09-.76.11-1.14.1-1.52.12-1.82.12-2.07.13-2.39.16m27.27 1.77-.15-.1.65.16.96.29 1.08.35 1.04.34.84.31.61.27.38.22.16.19-.04.17-.27.12-.51.07-.78.01-1.08-.07-1.39-.14-1.75-.23-2.12-.33-2.51-.42-2.9-.51-3.32-.61-3.76-.72-4.21-.87M45.62-66l.03.2.49.54.56.65.38.56.07.32h-.38l-.88-.34-1.4-.66-1.89-.92-2.34-1.13-2.78-1.39-3.3-1.73-3.95-2.19-4.62-2.7-5.13-3.16" filter="url(#a)"/><path d="m-33.89-74.4 1.58-.5 1.31-.48 1.46-.56 1.66-.63 1.77-.63 1.76-.57 1.73-.53 1.7-.5 1.71-.5 1.71-.5 1.7-.48 1.63-.45 1.53-.42 1.37-.38 1.15-.32.82-.26.36-.15-.14-.08-.51-.01" filter="url(#a)"/><path d="m-37.94-71.14.39-.36 1.23-.71 1.49-.82 1.58-.81 1.62-.76 1.66-.72 1.71-.69 1.75-.68 1.77-.68 1.72-.64 1.63-.59 1.49-.53 1.31-.48 1.15-.43 1-.39.87-.35.74-.29.58-.22.37-.17.09-.09-.3-.01m-1.29.06.73-.01 1.12-.13 1.22-.15 1.23-.17 1.23-.16 1.24-.17 1.27-.16 1.28-.14 1.22-.14 1.08-.11.83-.09.53-.06.18-.01-.19.02-.63.06-1.13.11-1.65.16-2.08.16m65.78 29.63 1.09 1.73.78 1.3.62 1.05.58.97.56.93.53.86.47.76.39.64.26.44.08.2-.11-.09-.31-.38-.51-.66-.69-.96-.88-1.28-1.14-1.68-1.48-2.2-1.99-2.94" filter="url(#a)"/><path d="m57.1-53.33.75.83.52 1 .08.73-.34.4-.7.14-1.05-.08-1.42-.31-1.79-.54-2.22-.79-2.68-1.07-3.16-1.39-3.69-1.7-4.21-2.02-4.76-2.34-5.37-2.67-6.04-3.03-6.8-3.42-7.59-3.82-8.23-4.24m-3.64-5.2 1.1-.01.96-.08.95-.07.92-.06.87-.04h.82l.74.04.63.07.5.1.34.12.18.14v.14l-.19.16-.4.18-.67.2-1.02.22-1.45.25-1.93.28-2.42.32-2.86.37-3.21.39-3.54.39-3.94.43m45.87 1.81 1.37.59.63.37.32.29.09.26-.21.19-.63.08-1.13-.07-1.73-.24-2.33-.4-2.95-.56-3.61-.73-4.33-.94-5.09-1.16-5.86-1.38" filter="url(#a)"/><path d="m-17.53-81 1.49-.29.95-.11.71-.03.48.03.22.11-.05.21-.33.33-.59.47-.88.62-1.23.79-1.69.97-2.25 1.19-2.83 1.39-3.41 1.59-3.99 1.8-4.63 2.04-5.29 2.39m92.6 7.26.77.94 1.01 1.27 1.03 1.27.86 1.06.66.82.51.65.4.56.31.49.22.42.09.29-.09.13-.28-.1-.48-.32-.67-.56-.88-.79-1.12-1.05-1.4-1.34-1.74-1.7-2.08-2.05-2.35-2.36-2.55-2.61-2.77-2.89m-9.68-7.19 2.09 1.09 1 .64.48.46.2.41-.02.4-.26.37-.53.33-.82.29-1.12.27-1.46.23-1.85.18-2.29.11-2.73.02-3.17-.05-3.61-.13-4.06-.22-4.52-.33-5.01-.49-5.54-.68-6.15-.84-6.86-.9-7.66-.78" filter="url(#a)"/><path d="m29.52-76.12.71.14.99.49.95.51.78.44.5.32.15.17-.26.01-.66-.14-1.08-.33-1.53-.53-2-.75-2.52-.99-3.05-1.25-3.52-1.55" filter="url(#a)"/><path d="m29.52-76.12.76.17 1.13.57 1.19.63 1.14.62 1 .55.81.47.61.38.39.29.17.17-.08.04-.35-.12-.63-.26-.96-.45-1.37-.66-1.79-.91-2.15-1.13-2.4-1.35" filter="url(#a)"/><path d="m32.27-74.85.35.13 1.1.57 1.01.55.81.49.66.43.52.39.37.33.21.25.03.18-.18.08-.43-.02-.73-.16-1.08-.33-1.43-.5-1.77-.68-2.12-.86-2.44-1.05-2.79-1.28-3.18-1.55-3.85-1.89M.78-83.28l.92.09 1.37.17 1.4.19 1.38.18 1.38.17 1.38.18 1.37.17 1.36.18 1.26.18 1.08.17.78.14.43.08.05.02-.37-.06-.85-.13-1.31-.21-1.67-.25-1.89-.26m-34.6 4.2 1.18-.4 1.52-.37 1.71-.38 1.84-.38 2.01-.38 2.17-.39 2.29-.38 2.3-.36 2.19-.3 2.01-.27 1.81-.23 1.61-.21 1.42-.19 1.23-.18 1.02-.17.79-.17.39-.19m18 3.08 1.44.33 1.64.51 1.22.42.87.32.68.28.55.25.37.22.15.15-.14.07-.44-.05-.77-.16-1.14-.31-1.64-.48-2.33-.71-3.23-.96-4.1-1.19M-39.55-70.4l1.48-.4 2.18-.14 3.16.01 4.03.19 4.79.42 5.48.7 6.14.96 6.77 1.19 7.39 1.36 7.97 1.5 8.47 1.6 8.9 1.78 9.33 2.05 9.86 2.41" filter="url(#a)"/><path d="m14.98-81.27 2.1.53.88.23.58.19.5.24.38.28.13.27-.23.23-.63.19-1.04.15-1.44.12-1.85.08-2.31.04H9.2l-3.41-.06-4.05-.09-4.75-.09-5.48-.09-6.2-.13m-12.56-7.69 1.46.47 1.35-.03 1.26.15 1.27.18 1.34.05 1.4-.05h1.39l1.36.15 1.28.31 1.2.38 1.1.33 1 .27.94.27.93.38 1.03.55 1.37.55 2.33.06M93.72 8.62 92.7 5.43l-1.19-1.69-1.55-1.22-1.74-1.25L86.46-.1l-1.6-1.48-1.3-1.56-1.07-1.58-1.09-1.5L80-7.56l-1.74-1.15-1.77-1.05-1.41-1.07-.9-1.19-.52-1.27-.31-1.28m0 0-.01-1.3.15-.81.36-.9.67-1.24.89-1.58.89-1.76.68-1.79.35-1.7v-1.59l-.27-1.49-.46-1.41-.55-1.38-.54-1.36-.41-1.39-.15-1.47.18-1.6.48-1.74.67-1.88.73-1.98.69-2.04.58-1.98.35-1.64.16-1.05.68-.97" filter="url(#a)"/><path d="m73.35-14.57 9.4-.28.25 1.37-2.07 1.72-1.63 1.59-.56 1.44.29 1.4.77 1.46 1.08 1.52 1.37 1.54 1.63 1.52L85.67.17l1.71 1.4 1.45 1.36 1.09 1.35.8 1.36.65 1.34.67 1.3.83 1.32 1.14 1.44 1.64 1.62 1.93 1.67-.14 2.03M8.57-78.43l-.5-.44-.82-.07-.97-.06-1.02-.17-1.03-.31-1.02-.42-1-.46-.98-.39-.96-.28-.95-.14-.96-.06-1.02-.05-1.11-.11-1.23-.16-1.33-.19-1.34-.14-1.23-.07h-1l-.81.08-1 .02-.93.1.89-.52.68-1.79.59-2.72.78-2.5 1.1-1.9 1.32-1.67 1.38-1.82 1.32-1.93 1.22-1.7 1.16-1.36 1.13-1.5 1.13-2.44 1.15-3.66 1.37-3.88 2.27-2.05m-40.35 34.5.39-.14.96-.18 1.11-.11 1.19-.1 1.25-.13 1.21-.17 1.12-.2 1-.23.92-.27.9-.3.95-.32 1-.27 1.08-.16 1.15-.04 1.24.03 1.32-.03 1.36-.23 1.31-.42 1.18-.36 1.34.56" filter="url(#a)"/><path d="m-43.15-87.16 2.24-.54 1.23-.75 1.11-.53 1.32.01 1.6.61 1.8 1 1.78 1.04 1.59.79 1.34.45 1.16.21 1.1.13 1.13.13 1.16.06 1.14-.16 1.11-.44 1.12-.66 1.23-.78 1.39-.78 1.54.12 2.05 5.89-6.53 1.89-.62.03-1.12.28-1.05.32-.9.32-.85.29-.91.25-1.01.22-1.09.25-1.12.3-1.08.38-1.05.47-1.01.53-1.02.57-1.04.6-1.07.6-1.1.6-1.11.6-1.13.62-1.16.68-1.21.73-1.15.72-.79.56.15-.07" filter="url(#a)"/><path d="m5.78-99.92-.86 1.48-1.23.98-1.28.83-1.21.65-1.14.5-1.11.47-1.13.6-1.19.82-1.24 1.03-1.31 1.12-1.32 1.05-1.27.89-1.2.73-1.08.63-1 .64-.95.71-.93.8-.98.82-1.06.79-1.16.75-1.24.84-1.23 1.17-1.12 1.39-1.08.76m.11-.27-1.62 1.18-.84 1.37-.64 1.01-.68.59-.76.46-.84.54-.9.64-.92.7-.9.68-.88.66-.85.69-.79.82-.73 1.03-.65 1.24-.59 1.37-.55 1.35-.61 1.23-.76 1.07-.95 1.04-.75 1.48" filter="url(#a)"/><path d="m-21.43-79.74-1.71.93-1.09.62-.81.51-.71.48-.77.52-.87.53-.97.53-1.02.53-.99.53-.94.6-.88.69-.85.81-.82.94-.8 1.02-.78 1.07-.78 1.06-.82 1.01-.91.96-1.06.96-1.16 1.02-1.2 1.01M73.09-16.46l.39 1.59.49 1.41.75 1.29 1.14 1.18 1.4 1.11 1.45 1.13 1.4 1.25 1.43 1.39L83.1-4.6l1.79 1.56 2.02 1.56L89.13.03l2.32 1.44 2.21 1.42 1.87 1.46 1.46 1.62 1.31 1.67 1.41 1.04 1.73-.93" filter="url(#a)"/><path d="m-23.77-78.48-2.61-5.45-1.58-2.28-1.15-.91-1.34-1.01-1.62-1.16-1.7-.89-1.57-.31-1.35.21-1.21.47-1.26.34-1.48-.02-1.78-.45-2.11-.83-2.35-1.13-2.15-1.05-.43.21 23.71 14.67 1.21.09 1.21-.12 1.16-.13 1.15-.01 1.17.01 1.22-.06 1.24-.13 1.24-.1 1.2.02 1.15.19 1.09.34 1.04.42 1 .42.97.38 1.01.37 1.09.43 1.19.53 1.25.64 1.24.71 1.11.78.97.8.89.72 1.23.65" filter="url(#a)"/><path d="m-26.36-77.82-.37-.63.21-.87.58-.58.82-.43.95-.44 1-.5 1.03-.58 1.07-.64 1.11-.75 1.14-.94 1.12-1.17 1.07-1.4 1-1.51.94-1.46.92-1.21.91-.84.92-.49.95-.32 1.04-.48 1.36-1.11 2.52-1.71" filter="url(#a)"/><path d="m-26.36-77.82-.51-1.03.24-.8.68-.31.92-.08 1.05-.12 1.07-.28 1.06-.47 1.07-.68 1.08-.84 1.12-.95 1.13-.91 1.14-.76 1.12-.5 1.1-.26 1.06-.13 1.01-.17.96-.37.98-.6 1.08-.8 1.3-.84 1.51-.71 1.46-.45.66-.6m-26.19 14.19-.57.05-.83.17-.99.15-1.13.13-1.26.1-1.32.11-1.32.22-1.28.34-1.28.41-1.33.39-1.4.3-1.47.17-1.49.08-1.49.03-1.46.03-1.45.05-1.47.09-1.51.12-1.54.15-1.51.19-1.43.26-1.35.39-1.57.62-2.52 1.22m17.5 4.42-1.14.74-1.19.47-1.43.18-1.5.02-1.35.2-1.12.55-.97.84-.91 1.01-.94 1.04-1.06.92-1.24.68-1.47.37-1.68.09-1.79-.07-1.72.01-1.49.27-1.19.65-.91 1-.72 1.22-.68 1.25-.9 1.14-1.46 1.12-2.15 1.88 27.97-13.94.91-1.08.9-.77.87-.64.87-.58.94-.6 1.03-.64 1.1-.65 1.09-.66 1.06-.64 1.03-.64 1.04-.63 1.05-.65 1.04-.63 1-.55.94-.44.67-.31m5.49 9.66-.48.08-1.11-.82-1.28-.89-1.29-.59-1.19-.17-1.08.23-.99.52-.97.59-1.06.49-1.19.3-1.31.13-1.34.08-1.23.17-1.04.37-.87.57-.8.66-.83.63-.92.59-1.19.44-3.11-.97-.22.55-.62.55-.79.87-.75 1.09-.58 1.31-.43 1.47-.36 1.5-.33 1.42-.28 1.31-.2 1.24-.16 1.2-.16 1.19-.23 1.15-.34 1.12-.43 1.08-.45 1.07-.41 1.08-.37 1.1-.35 1.11-.14.99.64.04" filter="url(#a)"/><path d="m-52.73-58.81 1.54-1.66.72-1.24.6-.96.72-.85.79-.84.8-.89.76-.92.75-.89.74-.85.7-.86.69-.94.74-1.1.91-1.25 1.16-1.31 1.25-1.37m-38.09 34.56.73.74.78-.54.73-.95.72-1.06.85-1.06 1.02-.98 1.17-.89 1.21-.86 1.14-.9 1.01-.94.92-.99.9-.96.99-.87 1.14-.73 1.32-.57 1.41-.47 1.36-.45 1.19-.51.93-.62.75-.71.72-.7.83-.68.98-.76.9-.64-18.59 10.77 2.26-1.49 1.05-.87.92-.87 1.08-.79 1.23-.66 1.28-.62 1.25-.64 1.23-.63 1.22-.54 1.21-.43 1.14-.35 1-.41.85-.47.98-.46 1.7-1.04m-1.53 1.33-.97 1.49-.66.93-.58.85-.58.94-.63 1.01-.67 1.03-.67 1.02-.66 1-.65 1-.63 1.01-.6 1.03-.59 1.06-.57 1.09-.55 1.07-.55.98-.77.86" filter="url(#a)"/><path d="m-57.3-53.22-1.39-.45-1.4-.02-1.79.01-2.51-.36-3.05-.7-2.95-.59-2.18-.01-1.2.79-.49 1.38-.41 1.53-.83 1.29-1.45.9-1.92.6-2.04.5-1.83.62-1.44.83-1.07 1.01-.93 1.08-1.05 1.1-1.32 1.18-1.86 1.4-2.97 1.39-4.28.87 20.04-3.98 1.43.11 1.37-.74 1.48-.76 1.55-.65 1.6-.57 1.58-.54 1.53-.53 1.41-.57 1.26-.64 1.05-.78.77-1.01.44-1.29.17-1.54.18-1.48.75-.78 1.86.49 1.89.91" filter="url(#a)"/><path d="m-78.15-38.53 2.27-.8 1.47-.8 1.28-.76 1.26-.78 1.2-.84 1.03-.94.79-1.1.54-1.24.41-1.32.47-1.25.74-1.02 1.1-.75 1.39-.52 1.45-.51 1.29-.64 1.07-.73.99-.61 1.01-.29 1.09.21-1.19 1.07-.23 1.01-.33 1.43.04 1.69.29 1.76.21 1.61-.07 1.39-.33 1.18-.47 1.07-.49 1.06-.4 1.12-.25 1.19-.1 1.26.04 1.3.17 1.32.3 1.32.43 1.33.49 1.37.35 1.41.05 1.51-.07 1.7.45 1.87" filter="url(#a)"/><path d="m-58.49-52.15-.73.61-1.9.2-1.94.18-1.45.47-.94.83-.66 1.07-.67 1.11-.89.99-1.18.82-1.44.67-1.62.59-1.74.54-1.81.51-1.82.5-1.79.48-1.76.43-1.75.35-1.72.49-2.03 1.78 27.84-12.62.13-1.24-.31-1.66-.44-1.84-.18-1.76.24-1.58.45-1.56.41-1.71.3-1.83.38-1.66.67-1.22.93-.83.89-.86.57-1.38.16-2.07-.28-1.85M72.66-18.58l-.37-2.43-.44-1.66-.5-1.34-.52-1.25-.51-1.23-.52-1.25-.53-1.23-.56-1.19-.59-1.12-.6-1.07-.56-1.04-.51-1.04-.49-1.06-.47-1.08-.5-1.08-.54-1.02-.56-.91-.61-.85-.71-.91-.91-1.17-.97-1.25m-121.52-4.27 1.23-1.52.85-1.17.78-.82.84-.6.87-.53.9-.55.93-.62.99-.67 1.05-.68 1.15-.61 1.25-.46 1.35-.26 1.43-.06 1.47.06 1.41.07 1.27-.1 1.05-.37.87-.59.86-.58 1.07-.22 1.29.31.73 1.01-5.85 3.81-1.48-.08-1.85-.26-1.55.04-1.45.24-1.46.26-1.42.24-1.27.28-1 .42-.71.63-.47.85-.37 1.01-.41 1.08-.62 1.04-1.03.71-1.77.01-2.08-.07" filter="url(#a)"/><path d="m-82.09-24.82.61.64.46-1.03.77-1.46.92-1.4.81-1.23.65-1.16.61-1.16.71-1.19.89-1.15 1.1-1.08 1.24-.94 1.28-.82 1.24-.76 1.15-.76 1.05-.81.98-.86.97-.89.96-.91.91-.93.82-.93.75-.89 1.09-1.56-.43-33.66-.03 1.16-.39 1.24-.71 1.31-.52 1.71-.15 2.2.1 2.47.14 2.43.05 2.19.01 1.94.06 1.83.21 1.83.31 1.87.28 1.86.18 1.81.06 1.71.02 1.67.05 1.64.04 1.61-.12 1.46-.22 1.07.29-.26-3.96 8.39-1.76-3.31-3.45-3.88-2.34-3.11-.68-2.09.48-1.38.93-1.07.94-1.05.76-1.17.52-1.35.28-1.59.02-1.84-.16-2.02-.19-2.01-.04-1.79.13-1.56.06-1.6-.4-2.01-.8-2.62-.04-3.63 16.62 20.25-.97 1.49-.67.93-.57.86-.59.94-.64 1.02-.66 1.03-.68 1.03-.66 1-.65 1.01-.62 1.02-.61 1.04-.59 1.06-.58 1.09-.57 1.1-.57 1.12-.62 1.28-.63 1.81M-70.36-28l.47.48.03.89.12 1.28.29 1.5.37 1.47.37 1.33.38 1.19.37 1.14.31 1.14.17 1.16.02 1.16-.03 1.17.05 1.18.22 1.2.37 1.23.38 1.26.24 1.29.12 1.3.11 1.26.31 1.1.59.8.6.6.57 1.43M82.33 7.57l-.67-2.82-.75-1.49-.55-1.12-.39-1.17-.35-1.3-.38-1.42-.38-1.49-.34-1.51-.3-1.49-.25-1.42-.24-1.35-.26-1.31-.32-1.27-.4-1.25-.52-1.18-.59-1.08-.64-.98-.62-.88-.53-.89-.45-1-.41-1.24-.42-1.47-.52-1.42-.43-.75-1.96-5.95.13-1.84-.1-1.23-.25-1.1-.34-1.08-.36-1.11-.31-1.2-.17-1.32.01-1.44.16-1.51.25-1.56.24-1.59.2-1.67.2-1.78.31-1.88.47-1.98.53-2.07.27-2.22-.45-2.02" filter="url(#a)"/><path d="m68.93-32.06.08-.53.59-1.44 1.18-1.87 1.5-2.16 1.53-2.29 1.25-2.24.72-1.95.02-1.52-.65-1.09-1-.91-.93-1.06-.41-1.49.34-2.04 1.12-2.59 1.66-3.01 1.72-3.09 1.29-2.44.73-.43" filter="url(#a)"/><path d="m79.95-9.33-.31-.51-.41-1.14-.55-1.32-.63-1.3-.68-1.19-.67-1.05-.62-.93-.59-.89-.59-.95-.59-1.06-.59-1.21-.55-1.32-.46-1.38-.39-1.38-.34-1.36-.38-1.33-.48-1.3-.63-1.3-.74-1.14-.74-.21.66 20.46.29-1.36.18-1.27.11-1.07.12-.91.11-.89.06-.99-.03-1.16-.09-1.3-.11-1.41-.11-1.43-.1-1.42-.1-1.39-.14-1.37-.19-1.38-.28-1.39-.39-1.36-.43-1.34-.55-1.93 1.19 1.64 1.16 1.04 1.69.86 1.9.8 1.53.92 1 1.15.8 1.29.98 1.33 1.3 1.27L81.03-23l1.37 1.14 1.13 1.04 1.02.91 1.19.78 1.62.75 2.06.9 2.49 1.12 3.84 1.05-27.73-19.2 1.55-.98.05-1.22-.01-1.44.49-1.81.89-2.04.85-2 .47-1.74-.08-1.45-.51-1.24-.7-1.18-.66-1.23-.51-1.3-.37-1.38-.29-1.45-.21-1.56-.06-1.76.21-2.06.48-2.27.63-2.24.55-1.94.51-2.01 1.41-3.7" filter="url(#a)"/><path d="m68.48-33.66.73-2.68.51-1.81-.57-1.15-.9-.95-.69-1.01-.38-1.14-.23-1.28-.23-1.34-.32-1.35-.31-1.35-.21-1.42-.01-1.53.18-1.66.29-1.78.24-1.87-.09-1.89-.62-1.72-.72-1.26 1.72 22.95-1.47-1.09-.71-.93-.71-.71-.9-.69-1.02-.74-1.07-.74-1.1-.66-1.2-.49-1.36-.31-1.49-.17-1.49-.16-1.33-.3-1.08-.48-.9-.53-.93-.36-1.1-.06-1.25.11-1.26-.04-1.24-.48-1.76-1.31 21.35 6.94.01-.18-.8-.63-1.29-.7-1.42-.61-1.28-.57-1.06-.64-.86-.72-.8-.74-.84-.7-.98-.59-1.12-.43-1.21-.28-1.23-.18-1.19-.15-1.17-.19-1.25-.23-1.41-.24-1.55-.18-1.45-.09-.92.05.28.01 20.64-23.39-1.22.86-.52 1.89.08 2.16.22 2.21.08 2.15-.11 2-.15 1.77-.02 1.54.17 1.37.27 1.34.18 1.45v1.59l-.14 1.66-.13 1.6-.01 1.42.14 1.2.28 1.03.2 1.24" filter="url(#a)"/><path d="m42.14-61.62 1.32.45 1.32.67 1.35.69 1.26.6 1.12.51.95.48.82.55.73.7.7.87.72.97.76.97.81.85.88.68.92.55.96.53.96.6.91.72.79.85.66.94.6 1.01.66.99.85.14" filter="url(#a)"/><path d="m60.85-48.32.01 2.07-.43 1.62-.17 1.45.03 1.44-.01 1.44-.09 1.39-.09 1.31.04 1.19.25 1.1.38 1.04.37 1.04.14 1.11-.26 1.25-.67 1.42-.95 1.51-1.04 1.57-.83 1.86" filter="url(#a)"/><path d="m60.85-48.32.07 2.02-.27 1.48-.44 1.65-.15 1.58.18 1.34.24 1.18.13 1.15.1 1.14.21 1.13.31 1.08.21 1.13-.17 1.26-.69 1.48-1.12 1.62-1.3 1.6-1.28 1.02" filter="url(#a)"/><path d="m59.73-49.41 1.03 1.24 1.07.94 1.15.65 1.07.71.93.89.86.97.91.9 1 .79 1.07.75 1.04.81.97.89.94.93 1.01.89 1.12.81 1.11.81.9.97.71 1.25.96 1.55 1.99 1.73-30.85-53.74 1.04 1.18.88 2.2.71 2.03.51 1.82.36 1.79.27 1.92.25 2.05.31 2.05.43 1.85.6 1.47.79 1.01.93.65.93.61.76.92.48 1.45.21 1.9.09 1.98-.02 1.73-.41 1.57-.74 1.16m-1.49-2.13-1.62-2.37-.53-1.71-.15-1.26-.25-.97-.48-.92-.65-1.07-.7-1.32-.6-1.6-.43-1.82-.24-1.96-.12-2.04-.13-2.05-.36-1.95-.69-1.81-.86-1.77-.53-2.07.55-3.2m3.93 25.11-.89 1.18-1.63.58-1.81.26-1.53-.31-1.09-.85-.78-1.1-.73-.96-.91-.61-1.15-.24-1.33-.04-1.38.01-1.3-.08-1.16-.17-1.01-.25-.92-.3-.92-.27-.93-.17-.93.03-.85.16-.73-.17" filter="url(#a)"/><path d="m51.12-60.74-.45-1.66.09-2.65-.22-2.27-.55-1.65-.45-1.58-.14-1.96-.04-2.23-.23-2.15-.52-1.94-.54-1.97-.19-2.43.3-3.06.53-3.5.25-3.61-1.02-2.48" filter="url(#a)"/><path d="m50.03-61.61-.15-2.32-.81-1.59-.69-1.46-.32-1.66-.2-1.74-.37-1.64-.58-1.58-.64-1.67-.5-1.91-.28-2.14-.1-2.32-.02-2.51.07-2.84.21-3.2.34-3.09-.18-1.25 15 44.22-.07-.16-.69-1.06-.75-1.12-.69-.91-.66-.77-.7-.73-.78-.8-.86-.89-.89-.93-.87-.9-.82-.81-.77-.71-.78-.68-.84-.72-.94-.84-1.03-.95-1.09-1-1.02-.91-.79-.62-.15-.18m-1.61-1.23-.31-2.11-.13-2.87-.01-2.61-.19-1.98-.52-1.34-.78-.94-.92-.72-1.01-.62-1.06-.58-1.08-.69-1.03-.95-.9-1.35-.72-1.8-.57-2.12-.55-2.19-.7-1.95-.95-1.49-1.07-1.03-.78-.95.03-1.84m-6.22 19.7.42.02.79.22 1.03.39 1.08.46 1.04.46 1 .44 1.01.45 1.06.48 1.09.51 1.09.52 1 .51.91.49.89.52 1.02.69 1.11.92" filter="url(#a)"/><path d="m36.39-72.79 1.1 1.37.26 1.97.1 1.91.44 1.36.83.88 1.04.64 1.07.59 1 .63.9.72.79.87.71 1.05.64 1.21.6 1.24.59 1.17.53 1.05.45.98.35 1.03.28 1.2.25 1.43.21 1.63.15 1.67.15 1.39.31.89M35.46-73.18l2.61-3.89 2.53-2.94 1.17.19.6 1.4.69 1.28 1.09.67 1.59.02 1.98-.47 2.11-.61 1.94-.41 1.65.01 1.47.35 1.55.44 1.85.27h2.17l2.28-.17 2.14-.23 1.89-.47 1.88-1.13 2.47-1.76-38.85 5.78 1.06-1.48 1.49-.21 1.23.33 1.24.04 1.39-.34 1.45-.43 1.41-.29 1.4-.19 1.5-.25 1.76-.43 2.05-.59 2.23-.64 2.21-.64 2.06-.75 1.96-1.04 2.56-1.6" filter="url(#a)"/><path d="m44.54-50.48-.7-1.33-.78-1.11-.92-.97-.81-1.06-.59-1.21-.41-1.31-.36-1.33-.41-1.34-.48-1.33-.53-1.34-.52-1.35-.48-1.35-.47-1.3-.5-1.2-.57-1.07-.66-.93-.73-.84-.83-.75-1.04-.56-1.32-.14-1.37-.21-.35-4 18.67 21.67-.76-1.45-.78-1.3-.88-1.21-.9-1.12-.87-.97-.84-.84-.83-.8-.82-.85-.8-.94-.79-1.02-.75-1.04-.72-1.03-.69-.98-.67-.96-.67-.96-.68-.95-.74-.88-.87-.75-1.02-.61-1.13-.56-1.12-.63-.99-.77-.54-.66 23.75 1.19-1.77.62-.97-.32-1.12-.55-1.49-.33-1.64-.16-1.51-.19-1.28-.37-1.08-.51-1.01-.54-1.03-.46-1.11-.31-1.21-.11-1.36.1-1.53.35-1.65.54-1.62.55-1.35.27-.91-.1-.48-.3-2.14-.75 1.47.62.95.47.91.47 1 .52 1.06.56 1.08.59 1.04.58.99.57.93.58.9.58.89.59.88.61.91.64.95.69 1.01.75 1.05.78 1.02.78.9.72.76.65.73.66.84.88-51.32-24.62.66.07 1-.02 1.01-.03 1.01.09 1.03.26 1.05.44 1.09.54 1.11.57 1.12.57 1.12.57 1.16.6 1.2.61 1.27.6 1.32.54 1.31.47 1.25.37 1.13.29 1 .26.93.24.91.2.89.17.81.28.61.6.51.62L-2.2-96.46l1.78 1.25 1.18.72 1.12.74 1.15.91 1.15 1.01 1.14 1.04 1.12 1.03 1.13.97 1.2.88 1.28.83 1.36.86 1.37.9 1.27.79 1.12.44 1.02-.08 1.07-.49 1.02-.02-.73 4.01 1.58-.4 1.3-.35 1.39-.02 1.48-.06 1.44-.27 1.33-.36 1.25-.29 1.21-.1 1.21.07 1.24.08 1.32-.04 1.43-.25 1.55-.37 1.66-.38 1.72-.37 1.71-.55 1.55-.92 1.14-.87" filter="url(#a)"/><path d="m15.12-81.44-1.14-.05-1.8.29-1.82 1.2-1.59 1.77-1.35 1.68-1.18 1.14-1.07.57-1 .17-.96-.07-.95-.19-.92-.19-.88.01-.85.47-.81 1.1-.8 1.66-.82 1.86-.94 1.6-1.27 1-2.09.54 19.27-15.23 1.28 2.59.74 1.13.68.16.74.07.72.5.64 1.1.54 1.62.54 1.87.67 1.71.88 1.17 1.03.53.98.17.71.51.37 1.51.25 2.63.59 2.95-34.38-14.1.88-.4.69-.65.86-.71 1.11-.52 1.25-.31 1.25-.25 1.17-.33 1.07-.49.99-.62.94-.66.94-.59.97-.45 1.01-.28 1.04-.16 1.07-.09 1.09-.05 1.1-.01 1.09.02.97-.11 23.08-19.72-3.71.05-1.99.08-1.5.69-1.41 1.1-1.45 1.49-1.48 1.78-1.48 1.81-1.45 1.54-1.49 1.14-1.57.86-1.66.81-1.66.86-1.56.75-1.38.34-1.22-.01-1.14.54-1.08 2.5-.92 3.03" filter="url(#a)"/><path d="m16.42-66.5-.26-1.17-.46-1.21-.55-1.15-.56-1.28-.54-1.38-.63-1.28-.83-.99-1.06-.7-1.21-.57-1.24-.66-1.15-.85-1.04-.95-.99-.88-.97-.82-.98-1.03-1.12-1.22-1.74-.65-.4-6.55-.79 1.38-.95 1.86-1.05.75-1.15-.17-1.28-.61-1.38-.71-1.43-.73-1.4-.81-1.36-.95-1.3-1.1-1.28-1.2-1.29-1.2-1.33-1.11-1.4-.95-1.5-.78-1.59-.58-1.64-.32-1.63-.12-1.58-.21-1.59-.79-1.79-1.52-2.62-1.46" filter="url(#a)"/><path d="m.33-83.21-1.98.17-2.57.27-2.62.28-2.35.29-2.08.33-1.92.42-1.88.51-1.88.61-1.87.68-1.86.75-1.87.8-1.87.85-1.88.92-1.86.99-1.81 1.06-1.67 1.14-1.49 1.21-1.31 1.25-1.15 1.32-1.06 1.36-1 1.42-.97 1.48-.88 1.55-.74 1.61-.56 1.68-.43 1.75-.4 1.83-.45 1.92-.41 2.01-.17 2.12.23 2.24.18 2.37-.81 2.86" filter="url(#a)"/><path d="m-10.24-82.24-1.86.45-1.64.47-1.85.55-1.95.61-1.81.66-1.46.71-1.01.78-.67.86-.52.94-.63 1.04-.9 1.13-1.18 1.25-1.34 1.34-1.29 1.43-1.02 1.49-.55 1.54.09 1.57.81 1.6 1.51 1.66 2.06 1.73 2.47 1.83 2.91 1.89 3.32 1.84 2.71 1.57-.09 1.15m-5.1-28.21-3.86.85-2.23.77-2.29.75-2.47.81-2.48.9-2.42 1.02-2.43 1.1-2.54 1.19-2.71 1.24-2.86 1.28-2.95 1.33-2.97 1.37-2.95 1.44-2.89 1.5-2.84 1.57-2.82 1.63-2.85 1.7-2.92 1.78-2.91 1.85-2.8 1.95-2.55 2.03-2.35 2.12-2.45 2.19-2.91 2.24-3.58 2.23-4.05 2.19-4 2.15-3.52 2.12-2.66 1.85" filter="url(#a)"/><path d="m-21.43-79.74-6.21.94-1.31.83-1.69.88-2.72.99-3.17 1.08-3.11 1.2-2.79 1.29-2.44 1.4-2.22 1.48-2.22 1.53-2.46 1.58-2.89 1.61-3.39 1.65-3.85 1.69-4.24 1.74-4.48 1.77-4.53 1.78-4.34 1.77-3.94 1.75-3.46 1.75-3.16 1.78-3.23 1.84-3.71 1.95-4.4 2.08-4.9 2.21-4.83 2.34-4.35 2.42-4.8 2.48-7.7 2.38" filter="url(#a)"/><path d="m-25.67-77.73-1.72.57-2.52 1.04-2.68 1.12-2.8 1.2-3.13 1.32-3.71 1.43-4.27 1.5-4.61 1.56-4.56 1.59-4.22 1.62-3.73 1.66-3.26 1.71-2.99 1.74-2.98 1.78-3.26 1.78-3.75 1.77-4.28 1.77-4.67 1.79-4.84 1.82-4.78 1.89-4.62 1.99-4.45 2.11-4.35 2.23-4.29 2.33-4.29 2.41-4.42 2.46-4.77 2.46-5.33 2.42-5.8 2.4-5.9 2.6-6.29 3.42" filter="url(#a)"/><path d="m-26.36-77.82-3.27 1.64-2.71 1.19-2.6 1.19-2.73 1.33-2.95 1.44-3.02 1.52-2.93 1.57-2.73 1.6-2.54 1.62-2.38 1.67-2.3 1.71-2.28 1.75-2.3 1.78-2.34 1.78-2.32 1.78-2.21 1.78-2.02 1.79-1.76 1.84-1.54 1.91-1.4 2.01-1.41 2.12-1.57 2.23-1.85 2.33-2.22 2.4-2.62 2.44-2.9 2.45-2.95 2.43-2.73 2.41-2.35 2.39-2.02 2.31-1.8 2.09-2.13 1.93" filter="url(#a)"/><path d="m-31.77-75.02-2.66 1.09-2.84 1.37-2.69 1.5-2.6 1.56-2.41 1.58-2.23 1.59-2.18 1.61-2.24 1.64-2.27 1.7-2.22 1.75-2.12 1.78-2.01 1.78-1.95 1.77-1.92 1.74-1.89 1.75-1.87 1.79-1.85 1.86-1.89 1.97-2.01 2.09-2.16 2.22-2.32 2.33-2.33 2.43-2.12 2.5-1.78 2.52-1.85 2.39-2.58 1.73" filter="url(#a)"/><path d="m-41.26-69.38-2.17 1.81-1.82 1.55-1.72 1.56-1.7 1.63-1.72 1.73-1.71 1.8-1.65 1.82-1.56 1.8-1.46 1.79-1.36 1.77-1.3 1.79-1.27 1.85-1.27 1.94-1.26 2.05-1.24 2.15-1.19 2.26-1.14 2.33-1.06 2.39-.98 2.42-.91 2.41-.84 2.4-.78 2.36-.71 2.32-.65 2.27-.59 2.26-.54 2.29-.49 2.42-.48 2.61-.45 2.81-.38 2.88-.24 2.6.08 1.63" filter="url(#a)"/><path d="m-45.35-66.1 3.35 1.62-1.37 1.63-1.61 1.73-1.23 1.82-.85 1.86-.47 1.81-.14 1.76.05 1.73.04 1.74-.13 1.8-.35 1.9-.42 2.01-.19 2.14.35 2.24 1.02 2.34 1.57 2.39 1.78 2.43 1.68 2.43 1.5 2.4 1.53 2.38 1.95 2.32 2.78 2.23 3.53 2.03 3.1 1.77 1.08 1.47m-22.44-45.83-1.45 1.14-2.21 1.59-2.51 1.83-2.39 1.95-2.12 2.04-1.85 2.12-1.6 2.17-1.4 2.2-1.27 2.2-1.24 2.17-1.29 2.13-1.32 2.1-1.29 2.12-1.14 2.15-.94 2.22-.75 2.29-.65 2.33-.68 2.37-.84 2.38-1.05 2.41-1.23 2.44-1.23 2.48-1.01 2.46-.69 2.42-.7 2.55-1.46 3.13M73.18-18.34l1.54 1.81.19 2.23.21 2.47.62 2.56.85 2.59.8 2.58.52 2.53.26 2.47.14 2.4.19 2.35.34 2.36.5 2.39.54 2.47.45 2.54.24 2.6-.06 2.62-.36 2.62-.57 2.58-.7 2.53-.69 2.47-.61 2.42-.5 2.37-.4 2.33-.32 2.27-.27 2.21-.23 2.14-.21 2.05-.25 1.99-.39 1.94-.66 1.92-1.04 1.89-1.42 1.81-1.65 1.64-1.62 1.38-1.29 1.19-1.04 1.25" filter="url(#a)"/><path d="M-54.25-57.28-56.04-55l-1.29 1.64-1.14 1.58-1.15 1.67-1.22 1.79-1.3 1.92-1.38 2.06-1.4 2.19-1.39 2.29-1.33 2.37-1.22 2.41-1.11 2.42-1 2.41-.91 2.38-.84 2.34-.78 2.28-.73 2.24-.66 2.22-.6 2.27-.54 2.4-.51 2.6-.5 2.8-.48 2.87-.39 2.57-.08 1.6" filter="url(#a)"/><path d="m-54.25-57.28-2.97 2.3-2 1.66-1.09 1.6-.89 1.7-1.04 1.83-1.25 1.97-1.38 2.1-1.41 2.22-1.4 2.32-1.39 2.39-1.39 2.42-1.39 2.44-1.38 2.41-1.33 2.39-1.27 2.36-1.19 2.34-1.12 2.33-1.06 2.36-1.01 2.4-.98 2.48-.94 2.54-.89 2.58-.85 2.6-.79 2.59-.73 2.57-.7 2.57-.67 2.57-.68 2.6-.66 2.6-.64 2.59-.54 2.52-.33 2.36-.11 2.1-.13 1.64-.91 1.05" filter="url(#a)"/><path d="m-58.39-51.42-1.96 2.71-1.55 2.36-1.31 2.25-1.13 2.16-1.03 2.09-.96 2.06-.93 2.09-.91 2.16-.88 2.24-.85 2.31-.79 2.36-.73 2.38-.66 2.39-.58 2.41-.5 2.42-.44 2.42-.38 2.37-.33 2.33-.28 2.25-.22 2.21-.15 2.23-.09 2.33-.02 2.5v2.7l.06 2.85.18 2.96m11.94-55.13-2.42 3.16-3 2.57-2.39 2.47-1.53 2.48-.97 2.47-.76 2.43-.81 2.38-1.05 2.33-1.32 2.29-1.56 2.28-1.75 2.32-1.89 2.39-2.02 2.48-2.07 2.55-2.05 2.6-1.91 2.6-1.72 2.58-1.57 2.56-1.54 2.55-1.63 2.56-1.78 2.57-1.82 2.57-1.65 2.53-1.19 2.44-.6 2.3-.13 2.12-.12 1.97-.72 1.96-1.69 2.18-2.49 2.3" filter="url(#a)"/><path d="m-64.78-41.36-1.67 1.84-2.31 2.01-3.04 2.01-3.52 2.13-3.12 2.27-2.19 2.36-1.45 2.38-1.3 2.38-1.72 2.39-2.44 2.4-3.14 2.41-3.54 2.4-3.6 2.37-3.4 2.3-3.19 2.24-3.1 2.21-3.26 2.24-3.59 2.34-4.07 2.5-4.67 2.66-5.25 2.76-5.38 2.74-4 2.5" filter="url(#a)"/><path d="m-67.43-35.21-8.22 1.68-.28 2.56.67 2.55.05 2.44-.82 2.38-1.57 2.38-2.05 2.41-2.2 2.42-2.08 2.4-1.74 2.37-1.32 2.3-.93 2.27-.73 2.26-.77 2.32-1.05 2.39-1.44 2.5-1.78 2.56-1.9 2.59-1.75 2.57-1.37 2.53-.86 2.56-.42 2.69-.27 2.91-.49 3.04-.96 2.85m32.1-56.32-.79 1.76-.85 2.2-1.07 2.33-1.14 2.37-1.05 2.42-.87 2.45-.69 2.43-.56 2.38-.47 2.32-.4 2.3-.36 2.32-.32 2.37-.29 2.44-.32 2.51-.38 2.56-.46 2.6-.55 2.61-.55 2.63-.48 2.64-.28 2.64-.01 2.64.31 2.59.61 2.5.83 2.41.9 2.3.81 2.24.59 2.2.37 2.16.28 2.14.43 2.16.81 2.38 1.02 2.73" filter="url(#a)"/><path d="m-70.03-28.04-5.54 2.33-1.72 2.46-.75 2.39-.43 2.44-.51 2.47-.75 2.45-.85 2.39-.75 2.32-.57 2.31-.52 2.32-.7 2.39-1.09 2.45-1.54 2.53-1.96 2.57-2.28 2.61-2.52 2.62-2.72 2.64-2.89 2.64-2.99 2.63-2.99 2.61-2.88 2.56-2.59 2.49-2.11 2.41-1.44 2.33-.56 2.27.46 2.24 1.43 2.22 2.17 2.24 2.43 2.25 2.13 2.25 1.33 2.2.28 2.06-.69 1.84-1.25 1.67-1.1 1.71.72 1.9" filter="url(#a)"/><path d="m-70.57-26.98-.76 2.71-.84 2.49-.86 2.19-.95 2.19-1.23 2.36-1.74 2.53-2.33 2.65-2.74 2.66-2.73 2.63-2.32 2.58-1.68 2.55-1.03 2.54-.56 2.55-.31 2.54-.26 2.52-.37 2.46-.56 2.37-.79 2.28-1 2.2-1.18 2.16-1.23 2.19-1.15 2.28-.88 2.41-.36 2.55.43 2.66 1.34 2.68 1.93 2.57 1.66 2.35.42 2.2-.39 2.37M65.54-39.5l5.38 2.83 5.75 2.47 4.64 2.29 2.82 2.3 1.4 2.39.48 2.46.14 2.48.49 2.47 1.38 2.45 2.46 2.44 3.32 2.46 3.69 2.49 3.49 2.52 2.84 2.52 1.96 2.5 1.11 2.47.63 2.41.76 2.34 1.55 2.31 2.75 2.31 3.85 2.38 4.33 2.5 3.8 2.65 2.31 2.73.33 2.73-1.24 2.63-1.41 2.58.54 2.75 5.58 2.38" filter="url(#a)"/><path d="m59.09-50.93 3.02 1.97 6.37 2.2 4.96 2.11 1.92 2.03-.02 2.01-.48 2.06-.06 2.16.6 2.29 1.22 2.44 1.72 2.53 2.11 2.59 2.32 2.59 2.3 2.55 2 2.48 1.52 2.43 1.04 2.42.75 2.44.79 2.49 1.19 2.55 1.82 2.58 2.49 2.56 2.93 2.52 2.99 2.44 2.6 2.37 1.93 2.32 1.2 2.33.67 2.34.52 2.39.71 2.47.89 2.6.89 2.74 1.9 2.38" filter="url(#a)"/><path d="m57.88-52.86 3.4 2.83 3.3 1.96 3.4 1.94 4.08 2.07 4.53 2.2 4.32 2.28 3.48 2.3 2.34 2.31 1.37 2.3 1.03 2.32 1.42 2.36 2.34 2.41 3.33 2.43 4.01 2.44 4.27 2.41 4.19 2.38 3.92 2.38 3.43 2.43 2.76 2.5 2.36 2.56 2.82 2.55 1.52 2.11" filter="url(#a)"/><path d="m53.07-58.6 2.34 2.56 2.5 2.02 2.96 1.91 2.95 1.91 2.63 1.94 2.45 2 2.55 2.09 2.84 2.18 3.04 2.24 3.1 2.29 3.06 2.31 3.09 2.32 3.21 2.34 3.36 2.37 3.39 2.41 3.22 2.44 2.88 2.44 2.55 2.43 2.39 2.4 2.52 2.4 2.93 2.44 3.47 2.51 3.94 2.57 3.94 2.56 2.28 2.13M52.42-59.42l1.29 1.09 2.49 1.82 2.4 1.79 2.62 1.76 3.57 1.82 4.56 1.91 4.79 1.99 4.09 2.01 2.93 2.02 2 2 1.74 2.03 2.18 2.09 3.04 2.2 3.98 2.34 4.81 2.49 5.37 2.6 5.59 2.66 5.29 2.64 4.37 2.51 3.13 2.3 2.35 2.12 3.45 2.22 7.88 2.63" filter="url(#a)"/><path d="m52.42-59.42 2.38 1.11 2.41 1.85 1.38 1.81 1.28 1.79 1.8 1.86 2.42 1.95 2.89 2.01L70.15-45l3.32 2.04 3.38 2.07 3.26 2.1 2.96 2.18 2.49 2.29 1.97 2.4 1.52 2.49 1.3 2.55 1.4 2.56 1.75 2.55 2.2 2.49 2.56 2.44 2.71 2.41 2.64 2.43 2.54 2.49 2.51 2.56 2.53 2.61 2.43 2.62 2.04 2.56 1.46 2.43 1.07 2.32 1.3 2.27 2.22 2.33 3.16 2.39 1.41 2.33" filter="url(#a)"/><path d="m46.42-65.29 4.68 2.26 2.33 1.7 2.85 1.61 3.13 1.73 2.51 1.84 1.61 1.91 1.06 1.94 1.08 1.96 1.52 1.99 2.01 2.05 2.33 2.11 2.39 2.18 2.25 2.24 2.05 2.29 1.93 2.32 1.92 2.34 1.98 2.37 2.02 2.4 2.01 2.42 1.91 2.45 1.76 2.45 1.65 2.45 1.67 2.46 1.86 2.46 2.27 2.49 2.8 2.53 3.28 2.56 3.53 2.58 3.46 2.56 3.09 2.52 2.52 2.46 1.65 2.35.39 1.65" filter="url(#a)"/><path d="m46.42-65.29 10.79 2.26-.2 1.7-.6 1.61 1.13 1.73 2.43 1.84 2.86 1.91 2.74 1.94 2.53 1.96 2.47 1.99 2.6 2.05 2.73 2.11 2.74 2.18 2.57 2.24 2.3 2.29 2.03 2.32 1.88 2.34 1.91 2.37 2.11 2.4 2.42 2.42 2.8 2.45 3.13 2.45 3.3 2.45 3.15 2.46 2.62 2.46 1.79 2.49.92 2.53.35 2.56.36 2.58.94 2.56L115 1.88l2.59 2.46 3.23 2.35 3.09 1.65" filter="url(#a)"/><path d="m43.37-67.72 1.87 1.48 1.81 1.54 1.9 1.62 1.91 1.63 1.84 1.67 1.78 1.74 1.74 1.83 1.73 1.88 1.76 1.92 1.84 1.96 1.96 1.99 2.06 2.05 2.13 2.1 2.07 2.18 1.92 2.23 1.69 2.28 1.46 2.31 1.31 2.34 1.26 2.37 1.3 2.4 1.36 2.42 1.38 2.45 1.31 2.45 1.19 2.45 1.06 2.44.95 2.45.9 2.49.91 2.53.95 2.58 1 2.61.99 2.57.76 2.38.41 1.56" filter="url(#a)"/><path d="m40.26-69.96 10.24 1.94.78 1.67.28 1.62 2.09 1.63 3.74 1.64 4.37 1.69 3.97 1.75 2.98 1.83 1.92 1.88 1.11 1.92.69 1.97.62 2 .85 2.06 1.34 2.12 2.01 2.18 2.74 2.23 3.41 2.29 3.82 2.32 3.92 2.35 3.65 2.37 3.15 2.41 2.55 2.43 2.04 2.44 1.75 2.46 1.71 2.46 1.82 2.47 1.94 2.47 1.98 2.51 1.95 2.53 1.96 2.56 2.11 2.57 2.35 2.56 2.45 2.5 2.32 2.4 2.34 2.24 2.65 1.91.92 1.5" filter="url(#a)"/><path d="m31.52-75.3 3.03 1.6 2.24 1.33L39.14-71l2.64 1.43 2.71 1.51L47-66.51l2.19 1.58 1.93 1.61 1.8 1.65 1.76 1.68 1.78 1.74 1.77 1.8 1.75 1.85 1.71 1.89 1.68 1.94 1.67 1.98 1.65 2.03 1.63 2.08 1.63 2.16 1.66 2.21 1.71 2.27 1.82 2.3 1.92 2.33 1.99 2.34 1.96 2.38 1.85 2.43 1.7 2.49 1.52 2.5 1.26 2.44.93 2.32.86 2.26 1.43 2.46M31.52-75.3l5.69 1.59 2.53 1.33 2.97 1.35 3.38 1.43 3.17 1.49L52-66.57 54.44-65l2.45 1.6 2.73 1.63 3.26 1.66 4.04 1.72 4.97 1.78 5.89 1.84 6.52 1.88 6.57 1.92 5.99 1.95 4.91 1.99 3.78 2.05 3.02 2.13 2.86 2.22 3.1 2.28 3.25 2.31 3.01 2.29 2.67 2.25 3.01 2.23 4.3 2.42 6.26 3.12M25.52-78.35l-1.99-.46-2.36-.65-2.02-.58-1.98-.52-2.17-.49-2.37-.45-2.44-.39-2.37-.34-2.19-.26-1.99-.17-1.82-.1-1.69-.01-1.62.07-1.59.14-1.6.22-1.62.29-1.61.36-1.57.42-1.47.49-1.33.55-1.16.62-.98.68-.84.75-.72.82-.65.9-.54.99-.39 1.09-.14 1.2.19 1.3.56 1.42.89 1.5 1.03 1.55.82 1.57.24 1.55-.48 1.47-1.31 1.18" filter="url(#a)"/><path d="m24.37-78.7-3.44-1-2.41-.73-2.05-.57-2.02-.47-2.12-.41-2.25-.34-2.32-.27-2.36-.2-2.39-.12-2.45-.03-2.53.04-2.61.13-2.69.19-2.75.25-2.8.3-2.87.38-2.97.45-3.08.54-3.16.63-3.19.69-3.17.73-3.11.78-3.05.82-2.96.89-2.84.99-2.84 1.13-3.27 1.32-4.69 1.49" filter="url(#a)"/><path d="m14.98-81.27-.52-.31-1.91-.4-2.3-.34-2.42-.27-2.45-.19-2.44-.11-2.43-.02-2.47.06-2.54.14-2.59.2-2.65.25-2.71.31-2.79.37-2.91.46-3.01.54-3.03.63-2.98.69-2.91.74-2.95.76-3.07.8-3.22.86-3.25.96-3.36 1.1-3.81 1.41" filter="url(#a)"/><path d="m8.62-82.65-1.95-.07-2.2-.15-2.18-.11H.09l-2.35.09-2.49.18-2.58.23-2.65.28-2.72.34-2.88.41-3.1.5-3.39.57-3.68.65-3.92.72-4.04.77-4.03.83-3.94.88-3.8.97-3.75 1.04-3.87 1.12-4.18 1.18-4.65 1.24-5.18 1.28-5.7 1.32-6.08 1.37-6.25 1.47-6.02 1.55-5.24 1.57-3.9 1.45-2.55 1.2" filter="url(#a)"/><path d="m8.62-82.65-2.05-.07-2.17-.15-2.07-.11L.31-83l-2.08.09-2.19.17-2.22.23-2.16.27-2.08.32-2 .38-1.98.47-1.99.55-1.99.64-1.95.71-1.84.74-1.72.78-1.61.83-1.53.9-1.52 1-1.53 1.12-1.49 1.22-1.43 1.23-1.34.95" filter="url(#a)"/><path d="m1.09-83.29-1.17.1-1.98.19-2.45.24-2.52.27-2.38.3-2.26.35-2.22.42-2.25.52-2.29.6-2.3.68-2.27.75-2.22.8-2.16.86-2.1.92-2.06 1-2.03 1.07-2.01 1.15-2 1.2-1.99 1.27-1.98 1.32-1.97 1.37-1.97 1.44-1.96 1.49-1.97 1.56-1.97 1.63-1.96 1.7-1.92 1.77-1.88 1.85-1.82 1.95-1.78 2.03-1.77 2.13-1.76 2.21-1.74 2.26-1.65 2.25-1.5 2.21-1.36 2.19-1.47 2.62" filter="url(#a)"/><path d="m.78-83.28-2.32.21-2.1.16-2.13.2-2.2.26-2.23.34-2.25.4-2.25.47-2.24.53-2.2.6-2.15.66-2.11.72-2.07.8-2.05.87-2.07.96-2.09 1.06-2.14 1.15-2.19 1.25-2.23 1.34-2.27 1.43-2.25 1.49-2.22 1.55-2.15 1.6-2.07 1.65-1.99 1.69-1.92 1.74-1.86 1.77-1.79 1.79-1.73 1.78-1.66 1.75-1.59 1.74-1.53 1.74-1.49 1.8-1.51 1.89-1.59 2.08-1.71 2.35-1.81 2.38" filter="url(#a)"/><path d="m.78-83.28-2.64.21-2.48.16-2.88.19-3.21.25-3.34.33-3.32.39-3.21.46-3.11.52-3.05.58-3.06.64-3.11.7-3.24.77-3.47.83-3.7.93-3.87 1.01-3.85 1.11-3.63 1.21-3.28 1.32-2.94 1.42-2.84 1.49-3.08 1.54-3.69 1.55-4.6 1.57-5.58 1.59-6.44 1.67-6.46 1.8-4.03 1.76" filter="url(#a)"/></g><g fill="none" stroke="#000"><circle cx="8.804" cy="1.28" r="2.946" filter="url(#a)"/><circle cx="8.904" cy=".536" r="1.522" filter="url(#a)"/><circle cx="10.088" cy="2.376" r="1.636" filter="url(#a)"/><circle cx="9.404" cy="2.364" r="1.33" filter="url(#a)"/><circle cx="7.864" cy="-.376" r="1.872" filter="url(#a)"/><circle cx="8.884" cy=".512" r="1.072" filter="url(#a)"/><circle cx="9.832" cy="3.08" r="1.124" filter="url(#a)"/><circle cx="7.94" cy="2.936" r="2.244" filter="url(#a)"/><circle cx="9.588" cy=".168" r="1.372" filter="url(#a)"/><circle cx="9.436" cy=".972" r="2.364" filter="url(#a)"/><circle cx="-11.232" cy="4.68" r="2.358" filter="url(#a)"/><circle cx="-8.908" cy="3.156" r="2.362" filter="url(#a)"/><circle cx="-11.936" cy="2.2" r="2.264" filter="url(#a)"/><circle cx="-9.416" cy="4.496" r="1.73" filter="url(#a)"/><circle cx="-9.324" cy="4.596" r="1.242" filter="url(#a)"/><circle cx="-10.36" cy="2.152" r="2.262" filter="url(#a)"/><circle cx="-11.236" cy="2.716" r="1.176" filter="url(#a)"/><circle cx="-10.336" cy="2.992" r="2.54" filter="url(#a)"/><circle cx="-10.652" cy="4.524" r="1.932" filter="url(#a)"/><circle cx="-11.2" cy="3.168" r="2.65" filter="url(#a)"/></g><path fill="#9A66CC" stroke="#000" stroke-linejoin="round" stroke-width="3" d="m37.6 52.7.06 1.27-.02.2-.02.01v.2l-.24.65-.15.12.21-.1-.27.57-.51.66.39-.54-.44.73-.28.29.23-.17-.81.82-.52.53-.01.09-.3.27-.2.18-.09.02-.83.66-.46.26.73-.55-.5.41-.57.33-1.12.68.38-.21-.56.31-.58.23-1.38.63.97-.4-.85.35-1.17.5-.34.08-1.06.35-.4.12.68-.21-1.05.33-1.84.49-.81.17 1.6-.35-1.69.39.13-.03-2.09.39-.71.11 1.18-.19-2.33.34-.48.05-.58.06-.42.03-.95.07.72-.05-2.18.12h-.06l-.76.01h-.04l-.69-.01-1.19-.03.67.03-.67-.01-1.03-.05-.93-.07-.58-.06h-.02l-.67-.1-1.71-.24.52.08-.73-.12-.5-.06.23.02-1.31-.3-.48-.14-.37-.09-1.18-.33-.53-.22-.31-.05-.2-.12-.56-.24.02-.01-.32-.12-1.08-.51-.08-.08.36.26-1.08-.68-.38-.3.08.14-.32-.23-.34-.39-.07.08-.98-.95.05-.1-.11-.01-.28-.42-.19-.36-.06-.09-.27-.71-.02.08.05-.11-.07-.18-.05-.1-.15-.19.01-.37-.01-1.1.06-.2-.03-.01-.01-.01.17-.11-.09-.28.67-1.12-.29.36.04-.1.65-.92-.28.43.4-.55.04-.18.59-.72.56-.45.14-.17.66-.44.08-.09-.06.07.86-.66.12-.08-.2.21 1.16-.77.54-.31.61-.24h-.1l-.28.2 1.04-.56 1.39-.54-.22.06 1.31-.44.15-.07-.52.17 2.05-.62-.36.1 1.31-.36.18-.06-.13.04 1.69-.39-.31.07.09-.04.28-.05 1.72-.32.08-.01 1.05-.15h-.01l1.59-.19.48-.05.54-.04.86-.06.16-.01 1.76-.06h.99l1.04.02-.36-.01h.25l1.51.09-1.18-.06 1.78.11 1.2.11-.2-.01-.02-.03 1.01.15 1.03.13.3.08-.42-.1 1.27.28.7.11-.19-.03 1.9.53-.44-.14.38.1.67.26h.14l.88.33 1.1.48-.58-.22 1.13.57-.6-.31.88.46.86.48-.25-.05.36.23.8.52.11.17-.17-.23.04.18.94 1.05-.22-.32.61.75.12.36-.29-.5.35.7.25.62-.02.29-.01.28.07.37" filter="url(#a)"/></svg>