<svg viewBox="-100 -100 200 200" xmlns="http://www.w3.org/2000/svg" width="500" height="500" id="face-svg">
    <defs>
      <clipPath id="leftEyeClipPath">
        <polyline points="22.43,-3.09 22.44,-3.4 22.41,-3.69 22.35,-3.97 22.25,-4.23 22.12,-4.47 21.96,-4.7 21.76,-4.92 21.53,-5.12 21.27,-5.31 20.99,-5.5 20.67,-5.66 20.33,-5.82 19.96,-5.97 19.57,-6.11 19.15,-6.24 18.72,-6.37 18.26,-6.49 17.76,-6.6 17.23,-6.7 16.66,-6.8 16.07,-6.89 15.45,-6.97 14.81,-7.05 14.14,-7.12 13.45,-7.18 12.73,-7.24 12,-7.3 11.25,-7.35 10.48,-7.39 9.7,-7.43 8.91,-7.47 8.1,-7.5 7.29,-7.52 6.47,-7.54 5.64,-7.56 4.82,-7.57 3.99,-7.58 3.16,-7.58 2.33,-7.58 1.51,-7.57 0.69,-7.56 -0.12,-7.55 -0.92,-7.53 -1.72,-7.51 -2.5,-7.48 -3.27,-7.45 -4.03,-7.41 -4.77,-7.37 -5.5,-7.32 -6.21,-7.27 -6.9,-7.22 -7.58,-7.16 -8.23,-7.09 -8.87,-7.02 -9.49,-6.95 -10.09,-6.87 -10.66,-6.79 -11.22,-6.7 -11.75,-6.61 -12.27,-6.51 -12.76,-6.41 -13.23,-6.3 -13.69,-6.19 -14.12,-6.08 -14.53,-5.96 -14.93,-5.84 -15.3,-5.71 -15.66,-5.57 -16,-5.44 -16.32,-5.29 -16.62,-5.15 -16.9,-4.99 -17.17,-4.84 -17.42,-4.67 -17.65,-4.5 -17.86,-4.33 -18.05,-4.15 -18.23,-3.97 -18.39,-3.79 -19.25,-2.03 -19.04,-1.78 -18.83,-1.52 -18.6,-1.26 -18.35,-0.99 -18.1,-0.73 -17.83,-0.45 -17.55,-0.18 -17.25,0.1 -16.94,0.37 -16.62,0.65 -16.29,0.94 -15.94,1.22 -15.58,1.5 -15.21,1.79 -14.83,2.07 -14.43,2.36 -14.01,2.65 -13.59,2.93 -13.14,3.22 -12.68,3.51 -12.21,3.8 -11.73,4.08 -11.22,4.36 -10.71,4.63 -10.18,4.9 -9.64,5.16 -9.08,5.42 -8.51,5.67 -7.93,5.91 -7.34,6.13 -6.73,6.35 -6.11,6.55 -5.49,6.75 -4.85,6.92 -4.2,7.09 -3.54,7.23 -2.87,7.37 -2.19,7.48 -1.51,7.57 -0.82,7.65 -0.12,7.71 0.59,7.75 1.3,7.76 2.01,7.76 2.73,7.73 3.45,7.68 4.17,7.61 4.9,7.52 5.62,7.41 6.35,7.27 7.07,7.11 7.79,6.92 8.51,6.72 9.22,6.49 9.94,6.24 10.64,5.97 11.34,5.67 12.03,5.36 12.71,5.03 13.38,4.68 14.04,4.31 14.69,3.92 15.33,3.52 15.95,3.11 16.48,2.82 17,2.52 17.51,2.21 18,1.9 18.47,1.59 18.93,1.26 19.37,0.94 19.8,0.61 20.2,0.28 20.59,-0.05 20.95,-0.38 21.29,-0.7 21.61,-1.03 21.9,-1.35 22.16,-1.66" />
      </clipPath>
      <clipPath id="rightEyeClipPath">
        <polyline points="-22.49,-2.81 -22.59,-3.21 -22.65,-3.58 -22.67,-3.93 -22.65,-4.26 -22.59,-4.57 -22.49,-4.86 -22.36,-5.14 -22.19,-5.4 -21.98,-5.64 -21.75,-5.86 -21.48,-6.07 -21.19,-6.27 -20.87,-6.45 -20.52,-6.63 -20.14,-6.78 -19.73,-6.94 -19.28,-7.09 -18.8,-7.22 -18.29,-7.35 -17.75,-7.46 -17.19,-7.56 -16.6,-7.66 -15.99,-7.75 -15.35,-7.83 -14.7,-7.9 -14.03,-7.96 -13.34,-8.02 -12.63,-8.07 -11.91,-8.11 -11.18,-8.15 -10.44,-8.18 -9.69,-8.21 -8.93,-8.23 -8.16,-8.24 -7.39,-8.25 -6.62,-8.25 -5.85,-8.25 -5.08,-8.24 -4.31,-8.23 -3.54,-8.21 -2.78,-8.19 -2.03,-8.16 -1.28,-8.13 -0.54,-8.09 0.19,-8.05 0.91,-8 1.61,-7.95 2.3,-7.89 2.98,-7.83 3.65,-7.77 4.29,-7.69 4.92,-7.62 5.54,-7.54 6.14,-7.45 6.71,-7.36 7.27,-7.26 7.81,-7.16 8.33,-7.05 8.83,-6.94 9.31,-6.82 9.78,-6.7 10.22,-6.57 10.64,-6.44 11.04,-6.3 11.42,-6.15 11.79,-6 12.14,-5.85 12.46,-5.69 12.78,-5.52 13.07,-5.35 13.34,-5.17 13.6,-4.98 13.83,-4.79 14.05,-4.6 14.26,-4.39 14.44,-4.18 14.61,-3.97 14.75,-3.75 14.89,-3.52 16.76,-3.02 16.69,-2.77 16.59,-2.51 16.49,-2.25 16.37,-1.98 16.24,-1.71 16.1,-1.43 15.94,-1.15 15.77,-0.86 15.59,-0.57 15.39,-0.27 15.18,0.02 14.96,0.33 14.72,0.63 14.48,0.94 14.21,1.25 13.94,1.57 13.65,1.89 13.34,2.21 13.02,2.54 12.69,2.87 12.34,3.19 11.97,3.52 11.6,3.85 11.2,4.18 10.79,4.51 10.37,4.83 9.93,5.15 9.48,5.46 9.01,5.76 8.53,6.06 8.03,6.35 7.52,6.63 6.99,6.9 6.45,7.16 5.9,7.4 5.33,7.63 4.75,7.84 4.15,8.03 3.54,8.21 2.92,8.37 2.29,8.5 1.64,8.62 0.99,8.71 0.32,8.78 -0.36,8.82 -1.06,8.84 -1.76,8.83 -2.47,8.79 -3.19,8.72 -3.92,8.63 -4.65,8.51 -5.39,8.35 -6.14,8.17 -6.9,7.96 -7.66,7.72 -8.42,7.45 -9.19,7.15 -9.95,6.82 -10.72,6.46 -11.49,6.07 -12.25,5.66 -13.01,5.22 -13.77,4.76 -14.51,4.27 -15.11,3.95 -15.7,3.62 -16.28,3.28 -16.85,2.93 -17.4,2.57 -17.94,2.2 -18.46,1.82 -18.96,1.44 -19.45,1.06 -19.91,0.67 -20.35,0.28 -20.76,-0.11 -21.15,-0.5 -21.51,-0.88 -21.84,-1.26" />
      </clipPath>
      <filter id="fuzzy">
        <feTurbulence id="turbulence" baseFrequency="0.05" numOctaves="3" type="noise" result="noise" />
        <feDisplacementMap in="SourceGraphic" in2="noise" scale="2" />
      </filter>
      <linearGradient id="rainbowGradient" x1="0%" y1="0%" x2="100%" y2="0%">
        <stop offset="0%" style="stop-color: [object Object]; stop-opacity: 1" />
        <stop offset="50%" style="stop-color: [object Object]; stop-opacity: 1" />
        <stop offset="100%" style="stop-color: [object Object]; stop-opacity: 1" />
      </linearGradient>
    </defs>
    <rect x="-100" y="-100" width="100%" height="100%" fill="rgb(243, 229, 171)" />
    <polyline id="faceContour" points="59.08,1.51 59.22,2.82 58.94,3.66 59.08,3.35 58.82,6.53 58.91,7.35 58.7,9.75 58.57,10.03 58.56,11.89 58.56,11.13 58.14,15.5 57.95,17.6 58.11,15.37 57.9,18.65 57.52,19.84 57.47,21.12 57.22,22.49 56.7,24.97 56.83,24.61 56.33,26.92 56.67,26.04 55.64,29.4 55.52,30.03 55.2,31.98 54.67,34.62 54.38,35.54 54.53,34.63 53.93,37.06 53.46,38.03 53.1,39.48 53.09,39.42 53.04,39.66 51.86,42.72 50.92,45.11 51.58,43.76 50.89,45.93 49.68,48.4 49.89,48.47 48.66,50.94 47.83,52.69 48.48,51.07 47.01,54.17 46.19,55.88 46.07,56.05 45.51,57.14 45.14,57.52 43.9,59.73 44.33,59.11 43.85,59.68 42.59,62.28 42.56,62.1 41.44,63.83 40.78,65.03 39.38,66.89 38.75,67.15 37.56,69.03 38.48,67.84 36.13,70.82 36.34,70.2 36.1,70.63 34.52,72.38 34.61,72.48 33.8,73.5 32.88,74.53 30.75,76.25 31.33,76.13 30.16,76.8 28.54,78.43 29.01,78.01 27.26,79.05 26.62,79.92 26.15,80.04 25.06,80.91 25.17,81.1 23.79,81.83 21.65,83.01 21.66,83.29 20.06,83.97 19.35,84.42 17.97,85.13 17.8,85.45 16.43,85.74 15.17,86.61 15.51,86.53 15.85,86.06 13.27,87.24 12.17,87.46 11.32,87.68 11.15,87.88 10.16,88.05 10.24,88.1 9.43,88.41 7.17,88.61 5.33,89.04 5.25,89.09 3.65,89.17 4.09,89.4 2.54,89.27 2.87,89.3 0.77,89.24 -0.97,89.47 -1.02,89.47 -1.4,89.21 -2.47,89.29 -3.94,89.28 -4.56,89.03 -4.35,89.15 -6.03,88.88 -8.67,88.4 -9.11,88.25 -10.47,87.91 -9.76,88.37 -11.25,87.8 -11.72,87.76 -13.37,86.87 -14.13,86.76 -14.61,86.77 -16.19,86.15 -16.03,86.01 -16.59,85.95 -18.39,84.97 -18.83,84.77 -19.94,84.05 -20.69,83.62 -22.25,82.74 -22.45,82.54 -24.04,81.45 -23.62,81.93 -24.91,81.17 -25.68,80.65 -26.21,80 -27.25,79.45 -28.03,78.7 -29.59,77.38 -29.71,77.02 -30.92,76.42 -32.49,74.84 -32.06,75.02 -34.03,72.74 -33.47,73.75 -34.44,72.64 -36.68,70.17 -35.85,71.07 -36.92,69.56 -38.41,68.01 -38.79,67.51 -39.58,66.64 -39.53,66.23 -41.39,64.04 -41.43,63.86 -42.39,62.31 -42.26,62.09 -42.98,61.24 -43.47,60.25 -44.97,57.92 -44.89,57.89 -44.96,58.13 -45.79,56.09 -46.39,55.6 -46.65,54.67 -47.97,52.25 -48.1,51.69 -48.82,50.01 -48.77,50.66 -48.78,50.29 -49.81,47.8 -51.07,44.88 -51.61,43.86 -51.6,43.12 -52.23,42.11 -52.27,41.23 -52.81,39.84 -53.1,38.74 -54.08,35.73 -53.74,36.97 -54.26,34.71 -55.44,30.83 -55.37,31.02 -55.93,29.43 -55.33,30.79 -56.07,27.49 -56.22,28.09 -56.53,25.18 -56.76,24.2 -57.51,21.13 -57.34,21.29 -57.76,17.59 -57.86,17.81 -58.11,16.64 -58.06,16.69 -58.44,14.32 -58.26,13.99 -58.44,11.74 -58.54,11.49 -58.8,6.99 -58.77,6.75 -58.82,6.41 -59.1,3.66 -59.1,5.06 -59.13,1.41 -58.91,-0.99 -59.1,-2.54 -58.89,-2.26 -58.97,-2.55 -58.99,-5.54 -58.72,-7.9 -58.73,-10.09 -58.45,-11.41 -58.5,-11.39 -58.45,-14.15 -58.41,-14.39 -57.86,-17.49 -58.13,-14.88 -57.86,-17.29 -57.71,-19.09 -57.82,-19.12 -57.52,-21.21 -57.18,-21.75 -56.8,-23.55 -56.57,-26.47 -55.91,-28.63 -55.78,-29.12 -55.32,-31.5 -55.63,-30.23 -55.5,-31.26 -54.09,-35.74 -54.29,-35.25 -53.91,-36.58 -52.87,-39.84 -53.19,-38.51 -52.91,-39.8 -52.63,-40.57 -51.48,-44.31 -51.13,-44.88 -51.42,-43.85 -50.87,-45.63 -49.82,-48.04 -48.76,-50.74 -49,-49.96 -48.4,-51.27 -47.64,-52.76 -47.57,-53.17 -46.48,-55.06 -46.54,-55.23 -46.32,-55.63 -45.06,-57.93 -43.77,-60.37 -43.41,-60.5 -42.94,-61.59 -42.35,-62.04 -41.56,-63.29 -41.04,-64.35 -39.66,-66.36 -39.62,-66.34 -39.79,-66.16 -38.58,-67.9 -37.05,-69.86 -37.67,-69.19 -36.01,-71.1 -35.24,-71.76 -34.31,-72.83 -32.89,-74.27 -33.35,-73.75 -31.7,-75.79 -31.63,-75.48 -30.99,-76.45 -30.58,-76.6 -29.4,-77.48 -27.9,-79 -27.64,-79.25 -26.79,-79.59 -26.04,-80.12 -24.49,-81.25 -24.59,-81.29 -23.53,-82.17 -21.56,-83.41 -22,-83.2 -21.16,-83.56 -20.78,-83.89 -20.65,-83.78 -17,-85.69 -16.79,-85.82 -17.09,-85.51 -15.56,-86.46 -15.06,-86.45 -13.49,-87.15 -11.93,-87.61 -10.37,-88.39 -10.7,-87.97 -11.44,-87.9 -9.17,-88.49 -7.86,-88.56 -5.89,-89.28 -5.77,-89.12 -5.11,-89.1 -5.12,-89.19 -3.93,-89.31 -1.48,-89.62 -1.55,-89.31 -1.05,-89.36 -0.04,-89.62 0.1,-89.7 2.08,-89.63 3.73,-89.47 3.26,-89.49 3.88,-89.47 5.99,-89.24 7.07,-88.9 6.94,-89.08 7.87,-88.65 9.58,-88.23 9.82,-88.37 10.56,-88.13 10.57,-87.97 12.15,-87.77 12.88,-87.45 14.93,-86.6 14.8,-86.41 16.65,-86.12 17.3,-85.82 18.74,-85.11 18.05,-85.25 19.31,-84.74 20.1,-84.33 20.49,-84.25 23.5,-82.41 23.96,-81.88 25.23,-81.02 25.33,-81.04 26.33,-80.29 26.4,-80.13 28.08,-78.73 29.76,-77.22 29.46,-77.31 30.18,-76.87 30.39,-76.77 30.39,-76.79 32.11,-75.35 31.65,-75.74 35,-72.12 33.77,-73.46 36.24,-70.82 36.52,-70.33 35.63,-71.18 38.03,-68.77 37.7,-68.97 38.97,-67.34 39.64,-66.56 40.76,-64.65 41.5,-63.69 41.65,-63.42 42.11,-62.84 42.56,-62.04 43.65,-60.28 43.84,-60.2 44.29,-59.33 45.11,-58.27 46.09,-55.98 46.51,-55.72 47.21,-54.3 47.15,-53.64 48.86,-50.57 49.4,-49.46 48.92,-50.29 49.78,-48.18 50.54,-46.37 50.64,-46.58 51.85,-43.17 51.89,-43.3 51.87,-42.97 52.77,-40.67 53.35,-38.63 53.35,-38.73 53.96,-36.26 54.32,-35.04 54.81,-33.87 54.63,-34.26 55.67,-30.13 55.88,-29.08 56.19,-28.32 56.23,-26.72 56.77,-25.66 57.09,-23.76 57,-23.15 57.36,-22.28 57.64,-19.13 57.82,-19.47 57.96,-17.46 58.03,-16.92 58.39,-14.52 58.34,-13.91 58.51,-11.13 58.65,-11.72 58.81,-10.2 58.71,-9 58.92,-6.34 59.19,-4.11 58.97,-3.96 58.98,-1.93 58.98,-2.14 59.08,1.51 59.22,2.82" fill="rgb(226, 114, 91)" stroke="black" stroke-width="1.6666666666666665" stroke-linejoin="round" filter="url(#fuzzy)" />
    <g transform="translate(29.709999999999997 -30.759999999999998)">
      <polyline id="rightCountour" points="-22.49,-2.81 -22.59,-3.21 -22.65,-3.58 -22.67,-3.93 -22.65,-4.26 -22.59,-4.57 -22.49,-4.86 -22.36,-5.14 -22.19,-5.4 -21.98,-5.64 -21.75,-5.86 -21.48,-6.07 -21.19,-6.27 -20.87,-6.45 -20.52,-6.63 -20.14,-6.78 -19.73,-6.94 -19.28,-7.09 -18.8,-7.22 -18.29,-7.35 -17.75,-7.46 -17.19,-7.56 -16.6,-7.66 -15.99,-7.75 -15.35,-7.83 -14.7,-7.9 -14.03,-7.96 -13.34,-8.02 -12.63,-8.07 -11.91,-8.11 -11.18,-8.15 -10.44,-8.18 -9.69,-8.21 -8.93,-8.23 -8.16,-8.24 -7.39,-8.25 -6.62,-8.25 -5.85,-8.25 -5.08,-8.24 -4.31,-8.23 -3.54,-8.21 -2.78,-8.19 -2.03,-8.16 -1.28,-8.13 -0.54,-8.09 0.19,-8.05 0.91,-8 1.61,-7.95 2.3,-7.89 2.98,-7.83 3.65,-7.77 4.29,-7.69 4.92,-7.62 5.54,-7.54 6.14,-7.45 6.71,-7.36 7.27,-7.26 7.81,-7.16 8.33,-7.05 8.83,-6.94 9.31,-6.82 9.78,-6.7 10.22,-6.57 10.64,-6.44 11.04,-6.3 11.42,-6.15 11.79,-6 12.14,-5.85 12.46,-5.69 12.78,-5.52 13.07,-5.35 13.34,-5.17 13.6,-4.98 13.83,-4.79 14.05,-4.6 14.26,-4.39 14.44,-4.18 14.61,-3.97 14.75,-3.75 14.89,-3.52 16.76,-3.02 16.69,-2.77 16.59,-2.51 16.49,-2.25 16.37,-1.98 16.24,-1.71 16.1,-1.43 15.94,-1.15 15.77,-0.86 15.59,-0.57 15.39,-0.27 15.18,0.02 14.96,0.33 14.72,0.63 14.48,0.94 14.21,1.25 13.94,1.57 13.65,1.89 13.34,2.21 13.02,2.54 12.69,2.87 12.34,3.19 11.97,3.52 11.6,3.85 11.2,4.18 10.79,4.51 10.37,4.83 9.93,5.15 9.48,5.46 9.01,5.76 8.53,6.06 8.03,6.35 7.52,6.63 6.99,6.9 6.45,7.16 5.9,7.4 5.33,7.63 4.75,7.84 4.15,8.03 3.54,8.21 2.92,8.37 2.29,8.5 1.64,8.62 0.99,8.71 0.32,8.78 -0.36,8.82 -1.06,8.84 -1.76,8.83 -2.47,8.79 -3.19,8.72 -3.92,8.63 -4.65,8.51 -5.39,8.35 -6.14,8.17 -6.9,7.96 -7.66,7.72 -8.42,7.45 -9.19,7.15 -9.95,6.82 -10.72,6.46 -11.49,6.07 -12.25,5.66 -13.01,5.22 -13.77,4.76 -14.51,4.27 -15.11,3.95 -15.7,3.62 -16.28,3.28 -16.85,2.93 -17.4,2.57 -17.94,2.2 -18.46,1.82 -18.96,1.44 -19.45,1.06 -19.91,0.67 -20.35,0.28 -20.76,-0.11 -21.15,-0.5 -21.51,-0.88 -21.84,-1.26" fill="white" stroke="white" stroke-width="0" stroke-linejoin="round" filter="url(#fuzzy)" />
    </g>
    <g transform="translate(-31.439999999999998 -26.619999999999997)">
      <polyline id="leftCountour" points="22.43,-3.09 22.44,-3.4 22.41,-3.69 22.35,-3.97 22.25,-4.23 22.12,-4.47 21.96,-4.7 21.76,-4.92 21.53,-5.12 21.27,-5.31 20.99,-5.5 20.67,-5.66 20.33,-5.82 19.96,-5.97 19.57,-6.11 19.15,-6.24 18.72,-6.37 18.26,-6.49 17.76,-6.6 17.23,-6.7 16.66,-6.8 16.07,-6.89 15.45,-6.97 14.81,-7.05 14.14,-7.12 13.45,-7.18 12.73,-7.24 12,-7.3 11.25,-7.35 10.48,-7.39 9.7,-7.43 8.91,-7.47 8.1,-7.5 7.29,-7.52 6.47,-7.54 5.64,-7.56 4.82,-7.57 3.99,-7.58 3.16,-7.58 2.33,-7.58 1.51,-7.57 0.69,-7.56 -0.12,-7.55 -0.92,-7.53 -1.72,-7.51 -2.5,-7.48 -3.27,-7.45 -4.03,-7.41 -4.77,-7.37 -5.5,-7.32 -6.21,-7.27 -6.9,-7.22 -7.58,-7.16 -8.23,-7.09 -8.87,-7.02 -9.49,-6.95 -10.09,-6.87 -10.66,-6.79 -11.22,-6.7 -11.75,-6.61 -12.27,-6.51 -12.76,-6.41 -13.23,-6.3 -13.69,-6.19 -14.12,-6.08 -14.53,-5.96 -14.93,-5.84 -15.3,-5.71 -15.66,-5.57 -16,-5.44 -16.32,-5.29 -16.62,-5.15 -16.9,-4.99 -17.17,-4.84 -17.42,-4.67 -17.65,-4.5 -17.86,-4.33 -18.05,-4.15 -18.23,-3.97 -18.39,-3.79 -19.25,-2.03 -19.04,-1.78 -18.83,-1.52 -18.6,-1.26 -18.35,-0.99 -18.1,-0.73 -17.83,-0.45 -17.55,-0.18 -17.25,0.1 -16.94,0.37 -16.62,0.65 -16.29,0.94 -15.94,1.22 -15.58,1.5 -15.21,1.79 -14.83,2.07 -14.43,2.36 -14.01,2.65 -13.59,2.93 -13.14,3.22 -12.68,3.51 -12.21,3.8 -11.73,4.08 -11.22,4.36 -10.71,4.63 -10.18,4.9 -9.64,5.16 -9.08,5.42 -8.51,5.67 -7.93,5.91 -7.34,6.13 -6.73,6.35 -6.11,6.55 -5.49,6.75 -4.85,6.92 -4.2,7.09 -3.54,7.23 -2.87,7.37 -2.19,7.48 -1.51,7.57 -0.82,7.65 -0.12,7.71 0.59,7.75 1.3,7.76 2.01,7.76 2.73,7.73 3.45,7.68 4.17,7.61 4.9,7.52 5.62,7.41 6.35,7.27 7.07,7.11 7.79,6.92 8.51,6.72 9.22,6.49 9.94,6.24 10.64,5.97 11.34,5.67 12.03,5.36 12.71,5.03 13.38,4.68 14.04,4.31 14.69,3.92 15.33,3.52 15.95,3.11 16.48,2.82 17,2.52 17.51,2.21 18,1.9 18.47,1.59 18.93,1.26 19.37,0.94 19.8,0.61 20.2,0.28 20.59,-0.05 20.95,-0.38 21.29,-0.7 21.61,-1.03 21.9,-1.35 22.16,-1.66" fill="white" stroke="white" stroke-width="0" stroke-linejoin="round" filter="url(#fuzzy)" />
    </g>
    <g transform="translate(29.709999999999997 -30.759999999999998)">
      <polyline id="rightUpper" points="-18.7,2.6 -19.33,1.92 -19.9,1.28 -20.41,0.67 -20.86,0.09 -21.26,-0.46 -21.61,-0.99 -21.9,-1.48 -22.15,-1.95 -22.34,-2.39 -22.49,-2.81 -22.59,-3.21 -22.65,-3.58 -22.67,-3.93 -22.65,-4.26 -22.59,-4.57 -22.49,-4.86 -22.36,-5.14 -22.19,-5.4 -21.98,-5.64 -21.75,-5.86 -21.48,-6.07 -21.19,-6.27 -20.87,-6.45 -20.52,-6.63 -20.14,-6.78 -19.73,-6.94 -19.28,-7.09 -18.8,-7.22 -18.29,-7.35 -17.75,-7.46 -17.19,-7.56 -16.6,-7.66 -15.99,-7.75 -15.35,-7.83 -14.7,-7.9 -14.03,-7.96 -13.34,-8.02 -12.63,-8.07 -11.91,-8.11 -11.18,-8.15 -10.44,-8.18 -9.69,-8.21 -8.93,-8.23 -8.16,-8.24 -7.39,-8.25 -6.62,-8.25 -5.85,-8.25 -5.08,-8.24 -4.31,-8.23 -3.54,-8.21 -2.78,-8.19 -2.03,-8.16 -1.28,-8.13 -0.54,-8.09 0.19,-8.05 0.91,-8 1.61,-7.95 2.3,-7.89 2.98,-7.83 3.65,-7.77 4.29,-7.69 4.92,-7.62 5.54,-7.54 6.14,-7.45 6.71,-7.36 7.27,-7.26 7.81,-7.16 8.33,-7.05 8.83,-6.94 9.31,-6.82 9.78,-6.7 10.22,-6.57 10.64,-6.44 11.04,-6.3 11.42,-6.15 11.79,-6 12.14,-5.85 12.46,-5.69 12.78,-5.52 13.07,-5.35 13.34,-5.17 13.6,-4.98 13.83,-4.79 14.05,-4.6 14.26,-4.39 14.44,-4.18 14.61,-3.97 14.75,-3.75 14.89,-3.52 15,-3.28 15.1,-3.04 15.18,-2.8 15.24,-2.55 15.29,-2.29 15.32,-2.03 15.33,-1.76 15.33,-1.49 15.32,-1.21 15.29,-0.92" fill="none" stroke="black" stroke-width="1.6666666666666665" stroke-linejoin="round" filter="url(#fuzzy)" />
      <polyline id="rightLower" points="-22.9,-4.33 -23.01,-4.12 -23.07,-3.88 -23.08,-3.62 -23.03,-3.33 -22.94,-3.02 -22.8,-2.7 -22.61,-2.36 -22.39,-2 -22.13,-1.64 -21.84,-1.26 -21.51,-0.88 -21.15,-0.5 -20.76,-0.11 -20.35,0.28 -19.91,0.67 -19.45,1.06 -18.96,1.44 -18.46,1.82 -17.94,2.2 -17.4,2.57 -16.85,2.93 -16.28,3.28 -15.7,3.62 -15.11,3.95 -14.51,4.27 -13.77,4.76 -13.01,5.22 -12.25,5.66 -11.49,6.07 -10.72,6.46 -9.95,6.82 -9.19,7.15 -8.42,7.45 -7.66,7.72 -6.9,7.96 -6.14,8.17 -5.39,8.35 -4.65,8.51 -3.92,8.63 -3.19,8.72 -2.47,8.79 -1.76,8.83 -1.06,8.84 -0.36,8.82 0.32,8.78 0.99,8.71 1.64,8.62 2.29,8.5 2.92,8.37 3.54,8.21 4.15,8.03 4.75,7.84 5.33,7.63 5.9,7.4 6.45,7.16 6.99,6.9 7.52,6.63 8.03,6.35 8.53,6.06 9.01,5.76 9.48,5.46 9.93,5.15 10.37,4.83 10.79,4.51 11.2,4.18 11.6,3.85 11.97,3.52 12.34,3.19 12.69,2.87 13.02,2.54 13.34,2.21 13.65,1.89 13.94,1.57 14.21,1.25 14.48,0.94 14.72,0.63 14.96,0.33 15.18,0.02 15.39,-0.27 15.59,-0.57 15.77,-0.86 15.94,-1.15 16.1,-1.43 16.24,-1.71 16.37,-1.98 16.49,-2.25 16.59,-2.51 16.69,-2.77 16.76,-3.02 16.83,-3.27 16.88,-3.51 16.92,-3.75 16.95,-3.98 16.97,-4.2 16.97,-4.42 16.96,-4.64 16.94,-4.85 16.91,-5.05 16.87,-5.25" fill="none" stroke="black" stroke-width="2.2222222222222223" stroke-linejoin="round" filter="url(#fuzzy)" />
      <circle r="3.974" cx="11.530029637465903" cy="-4.6333492729960035" stroke="black" fill="none" stroke-width="1.0" filter="url(#fuzzy)" clip-path="url(#rightEyeClipPath)" /><circle r="4.23" cx="13.470029637465903" cy="-2.4233492729960027" stroke="black" fill="none" stroke-width="1.0" filter="url(#fuzzy)" clip-path="url(#rightEyeClipPath)" /><circle r="4.8260000000000005" cx="10.245029637465903" cy="-5.738349272996003" stroke="black" fill="none" stroke-width="1.0" filter="url(#fuzzy)" clip-path="url(#rightEyeClipPath)" /><circle r="3.4859999999999998" cx="12.100029637465903" cy="-3.248349272996003" stroke="black" fill="none" stroke-width="1.0" filter="url(#fuzzy)" clip-path="url(#rightEyeClipPath)" /><circle r="3.342" cx="9.890029637465902" cy="-6.228349272996002" stroke="black" fill="none" stroke-width="1.0" filter="url(#fuzzy)" clip-path="url(#rightEyeClipPath)" /><circle r="3.3" cx="9.825029637465903" cy="-5.898349272996002" stroke="black" fill="none" stroke-width="1.0" filter="url(#fuzzy)" clip-path="url(#rightEyeClipPath)" /><circle r="3.828" cx="10.180029637465903" cy="-6.038349272996003" stroke="black" fill="none" stroke-width="1.0" filter="url(#fuzzy)" clip-path="url(#rightEyeClipPath)" /><circle r="3.248" cx="9.685029637465902" cy="-5.128349272996003" stroke="black" fill="none" stroke-width="1.0" filter="url(#fuzzy)" clip-path="url(#rightEyeClipPath)" /><circle r="4.216" cx="14.180029637465903" cy="-1.9433492729960031" stroke="black" fill="none" stroke-width="1.0" filter="url(#fuzzy)" clip-path="url(#rightEyeClipPath)" /><circle r="3.896" cx="11.805029637465903" cy="-5.728349272996002" stroke="black" fill="none" stroke-width="1.0" filter="url(#fuzzy)" clip-path="url(#rightEyeClipPath)" />
      </g>
    <g transform="translate(-31.439999999999998 -26.619999999999997)">
      <polyline id="leftUpper" points="20.08,1.11 20.51,0.58 20.9,0.08 21.24,-0.39 21.53,-0.84 21.78,-1.27 21.99,-1.67 22.16,-2.06 22.29,-2.42 22.38,-2.77 22.43,-3.09 22.44,-3.4 22.41,-3.69 22.35,-3.97 22.25,-4.23 22.12,-4.47 21.96,-4.7 21.76,-4.92 21.53,-5.12 21.27,-5.31 20.99,-5.5 20.67,-5.66 20.33,-5.82 19.96,-5.97 19.57,-6.11 19.15,-6.24 18.72,-6.37 18.26,-6.49 17.76,-6.6 17.23,-6.7 16.66,-6.8 16.07,-6.89 15.45,-6.97 14.81,-7.05 14.14,-7.12 13.45,-7.18 12.73,-7.24 12,-7.3 11.25,-7.35 10.48,-7.39 9.7,-7.43 8.91,-7.47 8.1,-7.5 7.29,-7.52 6.47,-7.54 5.64,-7.56 4.82,-7.57 3.99,-7.58 3.16,-7.58 2.33,-7.58 1.51,-7.57 0.69,-7.56 -0.12,-7.55 -0.92,-7.53 -1.72,-7.51 -2.5,-7.48 -3.27,-7.45 -4.03,-7.41 -4.77,-7.37 -5.5,-7.32 -6.21,-7.27 -6.9,-7.22 -7.58,-7.16 -8.23,-7.09 -8.87,-7.02 -9.49,-6.95 -10.09,-6.87 -10.66,-6.79 -11.22,-6.7 -11.75,-6.61 -12.27,-6.51 -12.76,-6.41 -13.23,-6.3 -13.69,-6.19 -14.12,-6.08 -14.53,-5.96 -14.93,-5.84 -15.3,-5.71 -15.66,-5.57 -16,-5.44 -16.32,-5.29 -16.62,-5.15 -16.9,-4.99 -17.17,-4.84 -17.42,-4.67 -17.65,-4.5 -17.86,-4.33 -18.05,-4.15 -18.23,-3.97 -18.39,-3.79 -18.54,-3.59 -18.66,-3.4 -18.78,-3.2 -18.87,-2.99 -18.95,-2.78 -19.02,-2.57 -19.07,-2.35 -19.1,-2.13 -19.13,-1.9 -19.14,-1.67" fill="none" stroke="black" stroke-width="2.2222222222222223" stroke-linejoin="round" filter="url(#fuzzy)" />
      <polyline id="leftLower" points="22.97,-4.15 23.06,-3.98 23.11,-3.78 23.12,-3.57 23.09,-3.34 23.02,-3.09 22.91,-2.83 22.77,-2.55 22.6,-2.26 22.39,-1.97 22.16,-1.66 21.9,-1.35 21.61,-1.03 21.29,-0.7 20.95,-0.38 20.59,-0.05 20.2,0.28 19.8,0.61 19.37,0.94 18.93,1.26 18.47,1.59 18,1.9 17.51,2.21 17,2.52 16.48,2.82 15.95,3.11 15.33,3.52 14.69,3.92 14.04,4.31 13.38,4.68 12.71,5.03 12.03,5.36 11.34,5.67 10.64,5.97 9.94,6.24 9.22,6.49 8.51,6.72 7.79,6.92 7.07,7.11 6.35,7.27 5.62,7.41 4.9,7.52 4.17,7.61 3.45,7.68 2.73,7.73 2.01,7.76 1.3,7.76 0.59,7.75 -0.12,7.71 -0.82,7.65 -1.51,7.57 -2.19,7.48 -2.87,7.37 -3.54,7.23 -4.2,7.09 -4.85,6.92 -5.49,6.75 -6.11,6.55 -6.73,6.35 -7.34,6.13 -7.93,5.91 -8.51,5.67 -9.08,5.42 -9.64,5.16 -10.18,4.9 -10.71,4.63 -11.22,4.36 -11.73,4.08 -12.21,3.8 -12.68,3.51 -13.14,3.22 -13.59,2.93 -14.01,2.65 -14.43,2.36 -14.83,2.07 -15.21,1.79 -15.58,1.5 -15.94,1.22 -16.29,0.94 -16.62,0.65 -16.94,0.37 -17.25,0.1 -17.55,-0.18 -17.83,-0.45 -18.1,-0.73 -18.35,-0.99 -18.6,-1.26 -18.83,-1.52 -19.04,-1.78 -19.25,-2.03 -19.44,-2.28 -19.62,-2.53 -19.78,-2.77 -19.94,-3.01 -20.08,-3.24 -20.21,-3.47 -20.33,-3.7 -20.44,-3.92 -20.53,-4.14 -20.62,-4.35" fill="none" stroke="black" stroke-width="2.2222222222222223" stroke-linejoin="round" filter="url(#fuzzy)" />
      <circle r="3.116" cx="-9.04645807540038" cy="-4.601332569211741" stroke="black" fill="none" stroke-width="1.0" filter="url(#fuzzy)" clip-path="url(#leftEyeClipPath)" /><circle r="3.742" cx="-7.74645807540038" cy="-3.386332569211741" stroke="black" fill="none" stroke-width="1.0" filter="url(#fuzzy)" clip-path="url(#leftEyeClipPath)" /><circle r="4.194" cx="-7.876458075400381" cy="-2.2963325692117413" stroke="black" fill="none" stroke-width="1.0" filter="url(#fuzzy)" clip-path="url(#leftEyeClipPath)" /><circle r="4.096" cx="-7.93645807540038" cy="-1.521332569211741" stroke="black" fill="none" stroke-width="1.0" filter="url(#fuzzy)" clip-path="url(#leftEyeClipPath)" /><circle r="3.304" cx="-5.83145807540038" cy="-0.47133256921174116" stroke="black" fill="none" stroke-width="1.0" filter="url(#fuzzy)" clip-path="url(#leftEyeClipPath)" /><circle r="4.33" cx="-8.07645807540038" cy="-3.9063325692117408" stroke="black" fill="none" stroke-width="1.0" filter="url(#fuzzy)" clip-path="url(#leftEyeClipPath)" /><circle r="4.422" cx="-8.68145807540038" cy="-1.7963325692117413" stroke="black" fill="none" stroke-width="1.0" filter="url(#fuzzy)" clip-path="url(#leftEyeClipPath)" /><circle r="4.102" cx="-6.85145807540038" cy="-2.3763325692117414" stroke="black" fill="none" stroke-width="1.0" filter="url(#fuzzy)" clip-path="url(#leftEyeClipPath)" /><circle r="4.1899999999999995" cx="-5.51645807540038" cy="-1.7363325692117413" stroke="black" fill="none" stroke-width="1.0" filter="url(#fuzzy)" clip-path="url(#leftEyeClipPath)" /><circle r="3.006" cx="-5.8814580754003805" cy="-1.6363325692117412" stroke="black" fill="none" stroke-width="1.0" filter="url(#fuzzy)" clip-path="url(#leftEyeClipPath)" />
    </g>
    <g id="hairs">
      <polyline points="47.21,-54.3 47.44,-53.25 47.56,-52.32 47.17,-52.02 46.25,-52.28 44.84,-52.96 42.95,-54.06 40.52,-55.61 37.51,-57.69 33.86,-60.35 29.54,-63.59 24.53,-67.42 18.86,-71.85 12.57,-76.94 5.74,-82.81" fill="none" stroke="rgb(75, 0, 130)" stroke-width="2" stroke-linejoin="round" filter="url(#fuzzy)" /><polyline points="-10.37,-88.39 -10.42,-88.07 -9.55,-87.86 -7.88,-87.65 -5.76,-87.35 -3.45,-86.9 -1.06,-86.3 1.41,-85.59 4,-84.78 6.73,-83.91 9.58,-82.98 12.5,-81.99 15.46,-80.95 18.42,-79.88 21.38,-78.82 24.26,-77.84 26.96,-77.01 29.39,-76.36" fill="none" stroke="rgb(75, 0, 130)" stroke-width="2" stroke-linejoin="round" filter="url(#fuzzy)" /><polyline points="26.4,-80.13 27.7,-78.91 28.24,-78.1 28.08,-77.64 27.43,-77.39 26.39,-77.19 25.04,-76.96 23.35,-76.64 21.28,-76.24 18.76,-75.82 15.71,-75.44 12.07,-75.17 7.78,-75.01 2.85,-74.97 -2.75,-74.98 -9.01,-75 -15.94,-75.07 -23.48,-75.25" fill="none" stroke="rgb(75, 0, 130)" stroke-width="2" stroke-linejoin="round" filter="url(#fuzzy)" /><polyline points="-30.58,-76.6 -29.39,-77.57 -28.28,-78.48 -27.25,-79.25 -26.21,-79.96 -25.14,-80.67 -24.08,-81.38 -23.06,-82.07 -22.13,-82.71 -21.32,-83.26 -20.63,-83.72 -20.08,-84.07 -19.67,-84.31 -19.41,-84.46 -19.32,-84.51 -19.43,-84.45 -19.77,-84.28 -20.34,-83.96 -21.22,-83.43 -22.61,-82.57" fill="none" stroke="rgb(75, 0, 130)" stroke-width="2" stroke-linejoin="round" filter="url(#fuzzy)" /><polyline points="23.5,-82.41 24.15,-81.83 24.94,-81.22 25.74,-80.6 26.59,-79.9 27.49,-79.14 28.37,-78.38 29.14,-77.72 29.74,-77.22 30.17,-76.88 30.44,-76.66 30.62,-76.51 30.7,-76.42 30.64,-76.43 30.33,-76.66 29.66,-77.22 28.57,-78.16 27.14,-79.43" fill="none" stroke="rgb(75, 0, 130)" stroke-width="2" stroke-linejoin="round" filter="url(#fuzzy)" /><polyline points="23.5,-82.41 24.06,-81.87 24.55,-81.4 24.87,-80.98 25.06,-80.53 25.12,-80.05 25,-79.57 24.62,-79.16 23.92,-78.85 22.89,-78.64 21.57,-78.5 19.98,-78.37 18.13,-78.22 16.01,-78.04 13.57,-77.87 10.8,-77.75 7.65,-77.72 4.1,-77.81 0.12,-78 -4.32,-78.23 -9.21,-78.5 -14.55,-78.79 -20.41,-79.13" fill="none" stroke="rgb(75, 0, 130)" stroke-width="2" stroke-linejoin="round" filter="url(#fuzzy)" /><polyline points="-21.16,-83.56 -20.44,-83.78 -18.86,-84.01 -16.77,-84.14 -14.47,-84.06 -11.98,-83.77 -9.21,-83.32 -6.13,-82.73 -2.78,-82.03 0.78,-81.2 4.46,-80.25 8.21,-79.19 12.04,-78.08 15.96,-76.96 19.98,-75.86 24.04,-74.75 28.03,-73.59 31.98,-72.3" fill="none" stroke="rgb(75, 0, 130)" stroke-width="2" stroke-linejoin="round" filter="url(#fuzzy)" /><polyline points="-20.78,-83.89 -19.59,-84.23 -17.63,-84.71 -15.59,-84.94 -13.4,-84.97 -10.94,-84.91 -8.15,-84.8 -5.08,-84.64 -1.82,-84.4 1.56,-84.04 5.01,-83.53 8.57,-82.91 12.24,-82.25 15.95,-81.66 19.53,-81.22 22.85,-80.88" fill="none" stroke="rgb(75, 0, 130)" stroke-width="2" stroke-linejoin="round" filter="url(#fuzzy)" /><polyline points="9.58,-88.23 9.99,-88.22 10.64,-88.01 11.54,-87.68 12.66,-87.26 13.89,-86.77 15.14,-86.27 16.34,-85.78 17.44,-85.33 18.4,-84.94 19.18,-84.61 19.76,-84.37 20.15,-84.21 20.38,-84.11 20.46,-84.08 20.4,-84.09 20.14,-84.2 19.6,-84.46 18.64,-84.92 17.12,-85.59" fill="none" stroke="rgb(75, 0, 130)" stroke-width="2" stroke-linejoin="round" filter="url(#fuzzy)" /><polyline points="17.3,-85.82 18.09,-85.39 18.49,-85.13 18.9,-84.88 19.35,-84.59 19.75,-84.26 19.96,-83.97 19.83,-83.8 19.26,-83.81 18.19,-84.04 16.62,-84.46 14.59,-85.06 12.11,-85.83 9.1,-86.8 5.24,-88.08" fill="none" stroke="rgb(75, 0, 130)" stroke-width="2" stroke-linejoin="round" filter="url(#fuzzy)" /><polyline points="35,-72.12 34.71,-72.32 34.84,-71.77 34.65,-71.26 34.1,-70.84 33.21,-70.46 31.98,-70.09 30.36,-69.76 28.3,-69.49 25.75,-69.34 22.64,-69.35 18.98,-69.53 14.74,-69.87 9.93,-70.36 4.54,-70.95 -1.45,-71.64 -8.1,-72.4 -15.37,-73.27 -23.21,-74.31" fill="none" stroke="rgb(75, 0, 130)" stroke-width="2" stroke-linejoin="round" filter="url(#fuzzy)" /><polyline points="-17.09,-85.51 -15.88,-86.16 -14.79,-86.61 -13.71,-87.01 -12.78,-87.35 -12.08,-87.57 -11.58,-87.69 -11.2,-87.73 -10.89,-87.71 -10.67,-87.62 -10.62,-87.44 -10.81,-87.16 -11.26,-86.75 -11.98,-86.21 -12.96,-85.55 -14.22,-84.77 -15.78,-83.84 -17.69,-82.76 -19.96,-81.51 -22.55,-80.11 -25.41,-78.6 -28.46,-77.08" fill="none" stroke="rgb(75, 0, 130)" stroke-width="2" stroke-linejoin="round" filter="url(#fuzzy)" /><polyline points="58.34,-13.91 58.74,-11.49 59.04,-8.54 59.34,-5.46 59.56,-2.47 59.67,0.39 59.71,3.13 59.71,5.79 59.68,8.38 59.61,10.91 59.46,13.39 59.24,15.84 58.93,18.28 58.56,20.74 58.15,23.23 57.72,25.76 57.29,28.31 56.86,30.85 56.41,33.35 55.93,35.75 55.38,38.07 54.75,40.35 53.99,42.7 53.08,45.24 52.02,48.07 51.07,50.94" fill="none" stroke="rgb(75, 0, 130)" stroke-width="2" stroke-linejoin="round" filter="url(#fuzzy)" /><polyline points="58.34,-13.91 58.59,-11.5 58.79,-8.56 58.96,-5.49 59.1,-2.5 59.17,0.34 59.18,3.08 59.11,5.73 58.99,8.32 58.82,10.84 58.61,13.31 58.36,15.74 58.08,18.17 57.75,20.61 57.38,23.09 56.96,25.61 56.5,28.17 55.98,30.74 55.44,33.26 54.87,35.65 54.26,37.9 53.61,40.07 52.95,42.15 52.49,43.76" fill="none" stroke="rgb(75, 0, 130)" stroke-width="2" stroke-linejoin="round" filter="url(#fuzzy)" /><polyline points="-1.05,-89.36 -2.34,-89.4 -4.25,-89.22 -6.25,-88.94 -8.21,-88.6 -10.09,-88.2 -11.91,-87.72 -13.71,-87.13 -15.55,-86.44 -17.45,-85.65 -19.42,-84.8 -21.45,-83.9 -23.55,-82.94 -25.74,-81.93 -28.03,-80.85 -30.4,-79.73 -32.82,-78.57 -35.25,-77.36 -37.65,-76.09 -40.05,-74.71 -42.47,-73.16 -44.89,-71.41 -47.23,-69.58 -49.44,-67.85 -51.85,-66.34" fill="none" stroke="rgb(75, 0, 130)" stroke-width="2" stroke-linejoin="round" filter="url(#fuzzy)" /><polyline points="-1.48,-89.62 -4.41,-89.29 -6.81,-88.96 -9.05,-88.61 -11.17,-88.2 -13.28,-87.72 -15.42,-87.13 -17.61,-86.43 -19.83,-85.63 -22.16,-84.77 -24.7,-83.86 -27.56,-82.9 -30.76,-81.88 -34.21,-80.8 -37.75,-79.67 -41.17,-78.5 -44.35,-77.29 -47.4,-76 -50.64,-74.6 -54.45,-73.04 -58.86,-71.33 -63.31,-69.54 -66.88,-67.78 -69.41,-66.11 -73.76,-64.35" fill="none" stroke="rgb(75, 0, 130)" stroke-width="2" stroke-linejoin="round" filter="url(#fuzzy)" /><polyline points="-5.11,-89.1 -6.94,-88.97 -9.39,-88.54 -11.88,-87.98 -14.31,-87.35 -16.58,-86.66 -18.67,-85.91 -20.63,-85.12 -22.55,-84.26 -24.49,-83.33 -26.46,-82.33 -28.44,-81.25 -30.44,-80.09 -32.45,-78.86 -34.45,-77.55 -36.44,-76.2 -38.42,-74.79 -40.39,-73.33 -42.37,-71.82 -44.4,-70.23 -46.51,-68.57 -48.72,-66.84 -51.01,-65.05 -53.42,-63.18 -56.07,-61.19 -59.12,-59.03 -62.43,-56.72 -64.25,-55.06" fill="none" stroke="rgb(75, 0, 130)" stroke-width="2" stroke-linejoin="round" filter="url(#fuzzy)" /><polyline points="-10.7,-87.97 -12.3,-87.39 -14.04,-86.65 -15.64,-85.9 -17.1,-85.11 -18.42,-84.26 -19.56,-83.33 -20.56,-82.34 -21.49,-81.26 -22.37,-80.11 -23.18,-78.87 -23.91,-77.57 -24.63,-76.21 -25.44,-74.82 -26.42,-73.38 -27.55,-71.89 -28.69,-70.33 -29.58,-68.68 -30.04,-66.96 -30.09,-65.21 -29.96,-63.45 -29.85,-61.76 -29.81,-60.37" fill="none" stroke="rgb(75, 0, 130)" stroke-width="2" stroke-linejoin="round" filter="url(#fuzzy)" /><polyline points="-17,-85.69 -23.41,-84.3 -29.16,-83.22 -33.34,-82.17 -36.6,-81.06 -39.23,-79.85 -41.32,-78.56 -42.97,-77.2 -44.42,-75.8 -46.06,-74.35 -48.3,-72.85 -51.32,-71.28 -55.05,-69.65 -59.19,-67.93 -63.4,-66.14 -67.47,-64.27 -71.3,-62.32 -74.87,-60.3 -78.15,-58.21 -81.07,-56.05 -83.59,-53.86 -85.82,-51.63 -88.03,-49.37 -90.57,-47.12 -93.71,-44.86 -97.42,-42.61 -101.36,-40.3 -105.2,-37.84 -109.2,-35.21 -114.56,-32.69 -122.59,-31.5" fill="none" stroke="rgb(75, 0, 130)" stroke-width="2" stroke-linejoin="round" filter="url(#fuzzy)" /><polyline points="-30.58,-76.6 -31.84,-75.37 -33.47,-74.04 -35.21,-72.62 -36.82,-71.07 -38.27,-69.41 -39.62,-67.65 -40.95,-65.82 -42.3,-63.92 -43.69,-61.95 -45.13,-59.89 -46.62,-57.77 -48.15,-55.6 -49.7,-53.39 -51.23,-51.16 -52.7,-48.91 -54.08,-46.65 -55.36,-44.37 -56.56,-42.07 -57.68,-39.71 -58.72,-37.3 -59.67,-34.83 -60.56,-32.29 -61.46,-29.68 -62.41,-26.96 -63.48,-24.12 -64.65,-21.22 -65.84,-18.29 -66.7,-14.88" fill="none" stroke="rgb(75, 0, 130)" stroke-width="2" stroke-linejoin="round" filter="url(#fuzzy)" /><polyline points="-30.99,-76.45 -32.63,-75.43 -36.42,-73.82 -40.4,-71.96 -43.2,-70.07 -45.06,-68.21 -46.81,-66.35 -49,-64.46 -51.69,-62.52 -54.59,-60.51 -57.37,-58.45 -59.88,-56.36 -62.17,-54.22 -64.39,-52.05 -66.7,-49.82 -69.15,-47.53 -71.7,-45.18 -74.31,-42.79 -76.97,-40.37 -79.8,-37.93 -82.94,-35.45 -86.54,-32.92 -90.6,-30.33 -95.02,-27.7 -99.57,-25.07 -104.07,-22.51 -108.45,-20.09 -112.6,-17.84 -116.28,-15.64 -119.19,-13.3 -121.58,-10.51 -125.19,-7.03 -132.19,-2.55" fill="none" stroke="rgb(75, 0, 130)" stroke-width="2" stroke-linejoin="round" filter="url(#fuzzy)" /><polyline points="-30.99,-76.45 -34.93,-75.45 -36.81,-73.87 -38.59,-72.02 -40.1,-70.15 -41.31,-68.31 -42.43,-66.48 -43.66,-64.63 -45.06,-62.71 -46.64,-60.73 -48.33,-58.7 -50.13,-56.63 -52,-54.54 -53.9,-52.41 -55.81,-50.24 -57.67,-47.98 -59.46,-45.64 -61.18,-43.25 -62.86,-40.85 -64.52,-38.49 -66.23,-36.15 -68.05,-33.76 -70.03,-31.26 -72.15,-28.8 -74.63,-26.47" fill="none" stroke="rgb(75, 0, 130)" stroke-width="2" stroke-linejoin="round" filter="url(#fuzzy)" /><polyline points="-30.99,-76.45 -32,-75.45 -33.96,-73.87 -36.84,-72.04 -40.16,-70.16 -43.37,-68.32 -46.1,-66.5 -48.18,-64.65 -49.68,-62.74 -50.83,-60.77 -51.93,-58.74 -53.24,-56.68 -54.92,-54.59 -56.99,-52.48 -59.41,-50.31 -62.05,-48.06 -64.72,-45.72 -67.26,-43.32 -69.6,-40.92 -71.8,-38.58 -74,-36.28 -76.41,-33.89 -79.17,-31.27 -81.42,-29.12" fill="none" stroke="rgb(75, 0, 130)" stroke-width="2" stroke-linejoin="round" filter="url(#fuzzy)" /><polyline points="-32.89,-74.27 -35.3,-71.93 -37.27,-69.9 -38.87,-68.06 -40.23,-66.26 -41.46,-64.4 -42.64,-62.46 -43.8,-60.45 -44.96,-58.38 -46.1,-56.28 -47.21,-54.15 -48.29,-51.98 -49.33,-49.75 -50.33,-47.46 -51.3,-45.11 -52.24,-42.72 -53.15,-40.31 -54.04,-37.87 -54.92,-35.39 -55.8,-32.87 -56.69,-30.28 -57.58,-27.65 -58.44,-25.02 -59.25,-22.47 -59.95,-20.06 -60.53,-17.81 -60.96,-15.63 -61.28,-13.28 -61.55,-10.5 -61.82,-7.03 -62.24,-2.55" fill="none" stroke="rgb(75, 0, 130)" stroke-width="2" stroke-linejoin="round" filter="url(#fuzzy)" /><polyline points="-34.31,-72.83 -45.21,-71.18 -45.01,-69.38 -44.55,-67.55 -45.73,-65.71 -48.11,-63.82 -50.99,-61.85 -53.91,-59.78 -56.67,-57.65 -59.36,-55.47 -62.26,-53.26 -65.71,-51.03 -69.84,-48.78 -74.42,-46.53 -78.97,-44.26 -82.99,-41.97 -86.19,-39.63 -88.62,-37.23 -90.57,-34.75 -92.39,-32.22 -94.37,-29.62 -96.81,-26.91 -100.18,-24.08 -104.99,-21.19 -110.86,-18.28 -114.74,-14.88" fill="none" stroke="rgb(75, 0, 130)" stroke-width="2" stroke-linejoin="round" filter="url(#fuzzy)" /><polyline points="-36.01,-71.1 -37.54,-69.35 -39.13,-67.44 -40.93,-65.58 -43.01,-63.68 -45.12,-61.68 -46.97,-59.58 -48.51,-57.41 -49.91,-55.2 -51.41,-52.96 -53.21,-50.7 -55.38,-48.43 -57.85,-46.14 -60.41,-43.83 -62.84,-41.48 -64.96,-39.08 -66.72,-36.62 -68.21,-34.1 -69.6,-31.51 -71.07,-28.87 -72.72,-26.2 -74.51,-23.51 -76.3,-20.85 -77.94,-18.24 -79.36,-15.69 -80.63,-13.17 -81.89,-10.63 -83.3,-8.01 -84.89,-5.24 -86.54,-2.34 -88.1,0.63 -89.49,3.49 -90.88,5.82 -93.01,6.99" fill="none" stroke="rgb(75, 0, 130)" stroke-width="2" stroke-linejoin="round" filter="url(#fuzzy)" /><polyline points="-41.56,-63.29 -45.24,-61.55 -48.3,-59.43 -50.04,-57.18 -51.69,-54.92 -53.55,-52.67 -55.24,-50.4 -56.51,-48.12 -57.44,-45.82 -58.37,-43.5 -59.69,-41.14 -61.64,-38.72 -64.23,-36.24 -67.27,-33.69 -70.44,-31.09 -73.43,-28.44 -76.01,-25.76 -78.13,-23.09 -79.87,-20.44 -81.39,-17.82 -82.84,-15.23 -84.29,-12.64 -85.76,-10.02 -87.21,-7.35 -88.66,-4.62 -90.18,-1.85 -91.9,0.93 -93.95,3.69 -96.4,6.38 -99.16,9 -102.03,11.55 -104.63,14.05 -106.53,16.53 -107.43,19.05 -107.55,21.76 -107.89,24.74 -109.07,27.49" fill="none" stroke="rgb(75, 0, 130)" stroke-width="2" stroke-linejoin="round" filter="url(#fuzzy)" /><polyline points="-42.94,-61.59 -44.2,-59.55 -45.55,-57.16 -46.79,-54.9 -48.1,-52.67 -49.59,-50.42 -51.23,-48.15 -52.89,-45.87 -54.44,-43.58 -55.8,-41.25 -56.99,-38.86 -58.07,-36.4 -59.12,-33.88 -60.18,-31.28 -61.24,-28.64 -62.26,-25.96 -63.24,-23.28 -64.21,-20.62 -65.22,-18.03 -66.3,-15.49 -67.42,-12.98 -68.43,-10.44 -69.2,-7.81 -69.69,-5.06 -69.99,-2.2 -70.28,0.69 -70.72,3.48 -71.3,6.03 -72.01,8.43 -72.8,11.74" fill="none" stroke="rgb(75, 0, 130)" stroke-width="2" stroke-linejoin="round" filter="url(#fuzzy)" /><polyline points="-46.48,-55.06 -47.78,-52.7 -49.27,-50.27 -51.08,-47.88 -53.37,-45.56 -56.06,-43.26 -58.9,-40.93 -61.53,-38.52 -63.7,-36.02 -65.28,-33.45 -66.27,-30.83 -66.82,-28.16 -67.15,-25.47 -67.48,-22.78 -68.01,-20.13 -68.82,-17.51 -69.92,-14.92 -71.24,-12.32 -72.74,-9.7 -74.35,-7.02 -76.01,-4.3 -77.69,-1.54 -79.36,1.21 -81.02,3.94 -82.66,6.62 -84.28,9.24 -85.82,11.82 -87.18,14.36 -88.3,16.9 -89.19,19.46 -90.03,22.06 -91.03,24.68 -92.24,27.3 -93.4,29.95 -94.04,32.78 -93.77,35.93 -92.13,38.74" fill="none" stroke="rgb(75, 0, 130)" stroke-width="2" stroke-linejoin="round" filter="url(#fuzzy)" /><polyline points="-46.48,-55.06 -47.77,-52.72 -49.1,-50.3 -50.33,-47.92 -51.51,-45.62 -52.78,-43.35 -54.2,-41.04 -55.82,-38.65 -57.68,-36.18 -59.8,-33.63 -62.11,-31.03 -64.49,-28.37 -66.78,-25.68 -68.82,-23 -70.56,-20.35 -72.02,-17.76 -73.31,-15.21 -74.52,-12.68 -75.76,-10.11 -77.05,-7.46 -78.41,-4.72 -79.85,-1.92 -81.31,0.89 -82.67,3.65 -83.77,6.32 -84.5,8.92 -85.01,11.49 -85.62,13.99 -86.69,16.16 -88.71,17.59" fill="none" stroke="rgb(75, 0, 130)" stroke-width="2" stroke-linejoin="round" filter="url(#fuzzy)" /><polyline points="-48.4,-51.27 -49.63,-49.54 -52.94,-46.98 -56.88,-44.36 -59.68,-41.85 -61.23,-39.43 -62.29,-37.03 -63.45,-34.59 -64.81,-32.07 -66.27,-29.47 -67.72,-26.84 -69.16,-24.25 -70.63,-21.75 -72.18,-19.34 -73.84,-16.98 -75.7,-14.57 -77.82,-12.06 -80.27,-9.41 -83.03,-6.63 -85.95,-3.81 -88.78,-0.98 -91.26,1.86 -93.21,4.77 -94.76,7.82 -96.17,10.96 -97.57,14 -98.36,16.69" fill="none" stroke="rgb(75, 0, 130)" stroke-width="2" stroke-linejoin="round" filter="url(#fuzzy)" /><polyline points="-52.63,-40.57 -53.33,-38.64 -53.99,-36.62 -54.74,-34.28 -55.54,-31.7 -56.32,-29 -57.05,-26.29 -57.76,-23.67 -58.5,-21.16 -59.33,-18.74 -60.27,-16.33 -61.3,-13.86 -62.34,-11.28 -63.32,-8.59 -64.17,-5.8 -64.91,-2.96 -65.55,-0.09 -66.16,2.8 -66.76,5.69 -67.37,8.57 -67.96,11.41 -68.51,14.21 -69.03,16.95 -69.49,19.65 -69.88,22.32 -70.15,24.95 -70.23,27.51 -70.13,29.96 -69.91,32.32 -69.69,34.64 -69.51,37.01 -69.33,39.46 -69.05,41.87 -68.48,43.86" fill="none" stroke="rgb(75, 0, 130)" stroke-width="2" stroke-linejoin="round" filter="url(#fuzzy)" /><polyline points="57,-23.15 57.7,-19.94 58.38,-17.27 59.16,-14.7 60.14,-12.17 61.26,-9.63 62.38,-7.07 63.46,-4.47 64.54,-1.83 65.69,0.84 66.87,3.54 67.93,6.27 68.69,9.02 69.07,11.8 69.11,14.59 68.95,17.36 68.8,20.09 68.79,22.78 68.97,25.41 69.34,27.98 69.82,30.48 70.31,32.92 70.69,35.31 70.82,37.65 70.65,39.97 70.2,42.3 69.56,44.66 68.86,47.05 68.16,49.43 67.48,51.74 66.79,53.93 66.12,55.97 65.44,57.9 64.69,59.85 63.92,61.91 63.49,63.83" fill="none" stroke="rgb(75, 0, 130)" stroke-width="2" stroke-linejoin="round" filter="url(#fuzzy)" /><polyline points="-54.09,-35.74 -58.89,-31.76 -62.04,-28.83 -63.73,-26.04 -64.33,-23.35 -64.33,-20.87 -64.24,-18.57 -64.44,-16.29 -65.04,-13.91 -65.95,-11.36 -67.05,-8.66 -68.21,-5.85 -69.4,-3.01 -70.59,-0.15 -71.81,2.73 -73.11,5.61 -74.53,8.5 -76.09,11.34 -77.7,14.11 -79.21,16.81 -80.48,19.47 -81.45,22.15 -82.15,24.87 -82.74,27.52 -83.54,29.94 -84.99,32.09 -86.03,34.71" fill="none" stroke="rgb(75, 0, 130)" stroke-width="2" stroke-linejoin="round" filter="url(#fuzzy)" /><polyline points="56.77,-25.66 57.11,-22.92 57.51,-20.12 57.88,-17.47 58.19,-14.89 58.45,-12.36 58.66,-9.84 58.82,-7.3 58.94,-4.73 59.02,-2.12 59.04,0.52 59.01,3.19 58.92,5.88 58.79,8.61 58.62,11.38 58.39,14.16 58.11,16.94 57.76,19.68 57.36,22.38 56.9,25.01 56.4,27.59 55.87,30.12 55.32,32.58 54.76,34.93 54.18,37.13 53.55,39.2 52.76,41.46 51.4,45.11" fill="none" stroke="rgb(75, 0, 130)" stroke-width="2" stroke-linejoin="round" filter="url(#fuzzy)" /><polyline points="56.77,-25.66 57.22,-22.92 58.02,-20.13 58.97,-17.48 59.9,-14.91 60.88,-12.38 62,-9.87 63.19,-7.33 64.24,-4.76 65.02,-2.16 65.49,0.48 65.79,3.14 66.11,5.83 66.56,8.56 67.17,11.32 67.84,14.1 68.46,16.88 68.93,19.63 69.22,22.32 69.34,24.95 69.32,27.53 69.21,30.07 68.99,32.55 68.64,34.93 68.2,37.07 67.96,38.78 68.36,39.66" fill="none" stroke="rgb(75, 0, 130)" stroke-width="2" stroke-linejoin="round" filter="url(#fuzzy)" /><polyline points="56.23,-26.72 69.92,-24.23 69.73,-21.93 69.34,-19.52 70.38,-16.98 71.34,-14.31 71.33,-11.52 70.53,-8.65 69.61,-5.73 69.19,-2.82 69.54,0.03 70.58,2.83 72.05,5.54 73.7,8.19 75.39,10.78 77.11,13.33 78.89,15.84 80.71,18.35 82.48,20.86 84.08,23.39 85.41,25.92 86.42,28.46 87.13,30.99 87.58,33.49 87.8,35.94 87.85,38.37 87.78,40.78 87.72,43.19 87.76,45.6 87.91,48.02 88.02,50.41 87.82,52.74 87.15,54.96 86.07,57.03 84.95,58.9 84.2,60.65 83.87,62.53 83.78,65.03" fill="none" stroke="rgb(75, 0, 130)" stroke-width="2" stroke-linejoin="round" filter="url(#fuzzy)" /><polyline points="53.96,-36.26 55.25,-33.64 57.24,-30.96 59.47,-28.35 62.39,-25.74 66.19,-23.1 70.11,-20.45 73.08,-17.81 74.53,-15.21 74.76,-12.63 74.58,-10.05 74.79,-7.48 75.78,-4.88 77.49,-2.25 79.54,0.4 81.49,3.08 83.05,5.8 84.18,8.54 85.02,11.31 85.82,14.1 86.76,16.87 87.89,19.63 89.12,22.33 90.26,24.99 91.15,27.58 91.78,30.11 92.29,32.56 92.92,34.93 93.85,37.21 95.04,39.42 96.34,41.66 97.71,43.97 99.51,46.27 102.66,48.47" fill="none" stroke="rgb(75, 0, 130)" stroke-width="2" stroke-linejoin="round" filter="url(#fuzzy)" /><polyline points="51.87,-42.97 57.86,-39.43 62,-36.53 62.9,-33.82 62.66,-31.19 62.23,-28.58 61.92,-25.96 61.96,-23.34 62.53,-20.71 63.69,-18.09 65.36,-15.49 67.36,-12.92 69.55,-10.35 71.8,-7.79 74.07,-5.21 76.38,-2.6 78.77,0.03 81.33,2.7 84.11,5.39 87.03,8.12 89.83,10.89 92.18,13.69 93.89,16.49 95.14,19.27 96.47,21.99 98.46,24.64 101.15,27.21 103.77,29.77 105.27,32.45 105.94,35.54" fill="none" stroke="rgb(75, 0, 130)" stroke-width="2" stroke-linejoin="round" filter="url(#fuzzy)" /><polyline points="51.87,-42.97 54.26,-39.46 55.45,-36.59 56.78,-33.91 58.72,-31.3 61.25,-28.73 64.07,-26.15 66.74,-23.55 68.86,-20.94 70.28,-18.34 71.15,-15.77 71.92,-13.23 73.19,-10.71 75.48,-8.19 78.96,-5.65 83.29,-3.08 87.69,-0.48 91.3,2.14 93.76,4.75 95.46,7.36 97.07,10.03 98.39,13.06 97.24,17.6" fill="none" stroke="rgb(75, 0, 130)" stroke-width="2" stroke-linejoin="round" filter="url(#fuzzy)" /><polyline points="49.78,-48.18 52.51,-46.16 54.24,-43.73 57.03,-41.23 60.28,-38.72 62.96,-36.15 64.82,-33.51 66.31,-30.84 67.93,-28.18 69.92,-25.59 72.26,-23.06 74.92,-20.57 77.9,-18.07 81.24,-15.52 84.86,-12.87 88.48,-10.1 91.75,-7.23 94.49,-4.31 96.96,-1.4 99.7,1.41 102.86,4.12 105.49,6.83 106.45,9.75" fill="none" stroke="rgb(75, 0, 130)" stroke-width="2" stroke-linejoin="round" filter="url(#fuzzy)" /><polyline points="46.51,-55.72 49.38,-53.27 53.03,-50.77 57.02,-48.47 61.94,-46.21 67.33,-43.89 72.03,-41.49 75.21,-39.02 76.96,-36.47 78.03,-33.86 79.32,-31.2 81.42,-28.56 84.5,-25.96 88.52,-23.43 93.32,-20.94 98.66,-18.47 104.07,-15.95 108.84,-13.34 112.42,-10.6 115.04,-7.68 117.83,-4.62 121.64,-1.55 126.55,1.51" fill="none" stroke="rgb(75, 0, 130)" stroke-width="2" stroke-linejoin="round" filter="url(#fuzzy)" /><polyline points="43.84,-60.2 43.47,-58.12 41.23,-55.78 40.73,-53.33 42.24,-50.91 44.42,-48.53 46.13,-46.17 46.93,-43.77 46.95,-41.31 46.56,-38.78 46.1,-36.2 45.7,-33.56 45.25,-30.91 44.57,-28.26 43.58,-25.63 42.35,-23.03 41.1,-20.43 40.03,-17.81 39.25,-15.15 38.65,-12.43 38,-9.65 37.09,-6.81 35.82,-3.94 34.29,-1.09 32.75,1.73 31.45,4.5 30.47,7.19 29.62,9.8 28.56,12.35 27.05,14.84 25.13,17.3 23.17,19.75 21.55,22.18 20.32,24.56 18.9,26.96 15.74,30.03" fill="none" stroke="rgb(75, 0, 130)" stroke-width="2" stroke-linejoin="round" filter="url(#fuzzy)" /><polyline points="43.65,-60.28 45.95,-58.68 48.49,-56.49 50.31,-54.18 51.68,-51.86 52.95,-49.52 54.41,-47.15 56.23,-44.75 58.36,-42.29 60.58,-39.79 62.58,-37.25 64.16,-34.67 65.34,-32.07 66.24,-29.47 67.09,-26.86 68.08,-24.24 69.31,-21.62 70.86,-19 72.7,-16.41 74.74,-13.84 76.74,-11.31 78.4,-8.79 79.53,-6.25 80.28,-3.67 81.25,-1.01 83.05,1.61 86.51,3.35" fill="none" stroke="rgb(75, 0, 130)" stroke-width="2" stroke-linejoin="round" filter="url(#fuzzy)" /><polyline points="41.65,-63.42 44.85,-61.93 46.67,-60.15 49.51,-58.12 52.94,-55.91 55.82,-53.59 57.81,-51.24 59.45,-48.91 61.45,-46.57 64.15,-44.21 67.45,-41.81 71.05,-39.34 74.64,-36.8 78,-34.2 81.01,-31.55 83.62,-28.9 85.95,-26.28 88.29,-23.73 90.96,-21.25 94.09,-18.79 97.51,-16.3 100.86,-13.75 103.91,-11.07 106.21,-8.04 107.46,-4.11" fill="none" stroke="rgb(75, 0, 130)" stroke-width="2" stroke-linejoin="round" filter="url(#fuzzy)" /><polyline points="41.5,-63.69 42.38,-62.38 43.47,-60.62 44.64,-58.62 45.82,-56.46 46.98,-54.2 48.1,-51.88 49.18,-49.53 50.21,-47.13 51.21,-44.7 52.16,-42.22 53.06,-39.7 53.91,-37.13 54.69,-34.54 55.41,-31.93 56.07,-29.3 56.68,-26.67 57.24,-24.03 57.76,-21.4 58.24,-18.77 58.69,-16.16 59.1,-13.57 59.46,-10.98 59.77,-8.4 60,-5.81 60.17,-3.2 60.27,-0.56 60.3,2.09 60.26,4.77 60.18,7.49 60.06,10.27 59.9,13.15 59.7,16.08 59.44,18.81 59.09,21.12" fill="none" stroke="rgb(75, 0, 130)" stroke-width="2" stroke-linejoin="round" filter="url(#fuzzy)" /><polyline points="37.7,-68.97 39.5,-66.64 41.34,-64.56 43.66,-62.64 46.29,-60.73 48.68,-58.72 50.5,-56.6 51.79,-54.39 52.83,-52.12 53.93,-49.79 55.34,-47.43 57.18,-45.02 59.47,-42.57 62.12,-40.07 64.91,-37.53 67.56,-34.96 69.83,-32.37 71.61,-29.76 72.95,-27.14 74.09,-24.52 75.29,-21.89 76.78,-19.25 78.72,-16.64 81.18,-14.07 84.18,-11.54 87.53,-9.04 90.68,-6.56 92.77,-4.17 93.99,-2.14" fill="none" stroke="rgb(75, 0, 130)" stroke-width="2" stroke-linejoin="round" filter="url(#fuzzy)" /><polyline points="30.18,-76.87 33.1,-76.35 36.36,-75.05 38.53,-73.28 40.39,-71.35 42.45,-69.43 44.69,-67.58 46.88,-65.8 48.88,-64.05 50.79,-62.28 52.79,-60.45 55.05,-58.51 57.59,-56.45 60.34,-54.27 63.22,-52.01 66.22,-49.71 69.39,-47.4 72.87,-45.06 76.77,-42.7 81.04,-40.29 85.43,-37.82 89.55,-35.27 93.29,-32.56 97.22,-29.59 100.96,-26.72" fill="none" stroke="rgb(75, 0, 130)" stroke-width="2" stroke-linejoin="round" filter="url(#fuzzy)" /><polyline points="30.18,-76.87 31.34,-76.36 34.28,-75.07 38.18,-73.31 42.04,-71.38 45.39,-69.46 48.23,-67.62 50.8,-65.84 53.34,-64.11 55.89,-62.36 58.41,-60.55 60.84,-58.63 63.28,-56.58 65.95,-54.4 69.06,-52.15 72.71,-49.85 76.86,-47.55 81.27,-45.25 85.49,-42.9 88.92,-40.51 91.38,-38.1 94.14,-35.83 99.39,-34.26" fill="none" stroke="rgb(75, 0, 130)" stroke-width="2" stroke-linejoin="round" filter="url(#fuzzy)" /><polyline points="18.74,-85.11 22.95,-84.58 26.78,-83.64 29.29,-82.46 31.58,-81.2 34.02,-79.93 36.39,-78.72 38.46,-77.53 40.37,-76.3 42.61,-74.96 45.81,-73.46 50.33,-71.8 56.07,-70.03 62.46,-68.23 68.59,-66.45 73.54,-64.71 76.77,-63.01 78.54,-61.29 80.09,-59.5 83.22,-57.55 89.31,-55.35 98.27,-52.78 108.39,-49.46" fill="none" stroke="rgb(75, 0, 130)" stroke-width="2" stroke-linejoin="round" filter="url(#fuzzy)" /><polyline points="14.93,-86.6 16.64,-86.01 18.18,-85.32 19.78,-84.51 21.61,-83.54 23.68,-82.42 25.88,-81.22 28.04,-79.99 30.07,-78.77 31.97,-77.55 33.8,-76.28 35.64,-74.9 37.52,-73.39 39.42,-71.74 41.31,-70 43.18,-68.21 45.03,-66.43 46.92,-64.66 48.87,-62.91 50.88,-61.13 52.92,-59.26 55.03,-57.25 57.3,-55.06 59.8,-52.72 62.51,-50.35 65.29,-48.23 67.39,-46.58" fill="none" stroke="rgb(75, 0, 130)" stroke-width="2" stroke-linejoin="round" filter="url(#fuzzy)" /><polyline points="12.88,-87.45 14.86,-86.59 16.79,-85.82 18.97,-84.94 21.57,-83.91 24.48,-82.76 27.44,-81.56 30.21,-80.33 32.61,-79.08 34.58,-77.79 36.16,-76.45 37.44,-75.06 38.57,-73.62 39.7,-72.12 40.99,-70.56 42.55,-68.93 44.43,-67.22 46.64,-65.44 49.14,-63.58 51.85,-61.65 54.72,-59.66 57.67,-57.6 60.65,-55.46 63.63,-53.25 66.58,-50.97 69.48,-48.64 72.28,-46.28 74.92,-43.9 77.43,-41.48 80.12,-38.91 82.82,-36.26" fill="none" stroke="rgb(75, 0, 130)" stroke-width="2" stroke-linejoin="round" filter="url(#fuzzy)" /><polyline points="9.58,-88.23 10.68,-87.98 12.15,-87.47 13.6,-86.82 14.86,-86.11 16.03,-85.34 17.25,-84.48 18.58,-83.51 20.01,-82.44 21.48,-81.29 22.91,-80.09 24.27,-78.88 25.49,-77.64 26.55,-76.35 27.47,-74.97 28.27,-73.47 29.01,-71.84 29.76,-70.11 30.56,-68.33 31.39,-66.54 32.17,-64.78 32.78,-63.03 33.07,-61.27 33.01,-59.42 32.72,-57.42 32.53,-55.21 32.65,-52.77 32.83,-50.22 32.71,-48.18" fill="none" stroke="rgb(75, 0, 130)" stroke-width="2" stroke-linejoin="round" filter="url(#fuzzy)" /><polyline points="7.87,-88.65 9.85,-88.32 11.76,-87.85 13.65,-87.25 15.53,-86.56 17.44,-85.76 19.47,-84.86 21.75,-83.85 24.28,-82.75 27.01,-81.58 29.83,-80.36 32.66,-79.11 35.5,-77.81 38.39,-76.47 41.36,-75.07 44.35,-73.62 47.27,-72.11 49.98,-70.54 52.37,-68.9 54.45,-67.19 56.32,-65.4 58.18,-63.53 60.27,-61.6 62.78,-59.59 65.78,-57.52 69.16,-55.37 72.69,-53.15 76.12,-50.87 79.33,-48.53 82.48,-46.15 85.93,-43.74 90.08,-41.28 95.02,-38.74 100.27,-36.1 105.09,-33.32 110.57,-30.13" fill="none" stroke="rgb(75, 0, 130)" stroke-width="2" stroke-linejoin="round" filter="url(#fuzzy)" /><polyline points="0.1,-89.7 -1.45,-89.52 -3.66,-89.39 -5.87,-89.18 -7.75,-88.9 -9.45,-88.55 -11.22,-88.13 -13.22,-87.62 -15.45,-87 -17.86,-86.29 -20.37,-85.5 -22.94,-84.63 -25.56,-83.7 -28.27,-82.71 -31.13,-81.66 -34.19,-80.55 -37.45,-79.39 -40.87,-78.16 -44.38,-76.85 -47.89,-75.46 -51.32,-73.97 -54.65,-72.39 -57.88,-70.72 -61.05,-68.98 -64.19,-67.17 -67.32,-65.3 -70.42,-63.38 -73.44,-61.41 -76.36,-59.39 -79.18,-57.32 -81.96,-55.23 -84.86,-53.12 -88.12,-50.98 -92.02,-48.74 -96.62,-46.34 -101.42,-43.76 -105.59,-41.03 -110.39,-38.51" fill="none" stroke="rgb(75, 0, 130)" stroke-width="2" stroke-linejoin="round" filter="url(#fuzzy)" />
    </g>
    
        <g id="lineNose">
        <path d="M -8.94,25.41 Q 6.99, 25.200000000000003 -0.9749999999999996, -5.958" fill="none" stroke="black" stroke-width="3" stroke-linejoin="round" filter="url(#fuzzy)"></path>
        </g>
      
    <g id="mouth">
      <polyline points="-42.94,38 -42.08,38.31 -41.21,38.62 -40.32,38.95 -39.43,39.27 -38.52,39.61 -37.6,39.95 -36.67,40.29 -35.73,40.64 -34.78,41 -33.82,41.35 -32.85,41.72 -31.87,42.08 -30.89,42.45 -29.89,42.82 -28.89,43.19 -27.88,43.56 -26.87,43.93 -25.84,44.31 -24.81,44.68 -23.78,45.05 -22.74,45.42 -21.69,45.8 -20.64,46.17 -19.59,46.53 -18.53,46.9 -17.46,47.26 -16.4,47.62 -15.33,47.98 -14.26,48.33 -13.18,48.67 -12.11,49.02 -11.03,49.35 -9.95,49.68 -8.87,50.01 -7.79,50.33 -6.71,50.64 -5.64,50.94 -4.56,51.24 -3.48,51.52 -2.4,51.8 -1.33,52.07 -0.26,52.33 0.81,52.58 1.88,52.82 2.94,53.05 4,53.27 5.05,53.47 6.1,53.66 7.15,53.85 8.19,54.01 9.23,54.17 10.25,54.31 11.28,54.44 12.29,54.55 13.3,54.65 14.3,54.73 15.3,54.79 16.28,54.84 17.26,54.88 18.23,54.89 19.19,54.89 20.14,54.87 21.08,54.83 22.01,54.77 22.93,54.7 23.83,54.6 24.73,54.49 25.61,54.35 26.49,54.19 27.35,54.01 28.19,53.81 29.03,53.59 29.85,53.35 30.65,53.08 31.44,52.79 32.22,52.47 32.98,52.13 33.73,51.77 34.46,51.38 35.17,50.96 35.87,50.52 36.55,50.06 37.21,49.56 37.85,49.04 38.48,48.49 39.09,47.91 39.68,47.31 40.25,46.67 40.8,46.01 41.33,45.32 41.84,44.6 42.33,43.84 42.8,43.06 43.25,42.24 43.67,41.39 44.08,40.51 44.46,39.6 44.81,38.65 45.15,37.67 45.46,36.66 45.15,37.67 44.81,38.65 44.46,39.6 44.08,40.51 43.67,41.39 43.25,42.24 42.8,43.06 42.33,43.84 41.84,44.6 41.33,45.32 40.8,46.01 40.25,46.67 39.68,47.31 39.09,47.91 38.48,48.49 37.85,49.04 37.21,49.56 36.55,50.06 35.87,50.52 35.17,50.96 34.46,51.38 33.73,51.77 32.98,52.13 32.22,52.47 31.44,52.79 30.65,53.08 29.85,53.35 29.03,53.59 28.19,53.81 27.35,54.01 26.49,54.19 25.61,54.35 24.73,54.49 23.83,54.6 22.93,54.7 22.01,54.77 21.08,54.83 20.14,54.87 19.19,54.89 18.23,54.89 17.26,54.88 16.28,54.84 15.3,54.79 14.3,54.73 13.3,54.65 12.29,54.55 11.28,54.44 10.25,54.31 9.23,54.17 8.19,54.01 7.15,53.85 6.1,53.66 5.05,53.47 4,53.27 2.94,53.05 1.88,52.82 0.81,52.58 -0.26,52.33 -1.33,52.07 -2.4,51.8 -3.48,51.52 -4.56,51.24 -5.64,50.94 -6.71,50.64 -7.79,50.33 -8.87,50.01 -9.95,49.68 -11.03,49.35 -12.11,49.02 -13.18,48.67 -14.26,48.33 -15.33,47.98 -16.4,47.62 -17.46,47.26 -18.53,46.9 -19.59,46.53 -20.64,46.17 -21.69,45.8 -22.74,45.42 -23.78,45.05 -24.81,44.68 -25.84,44.31 -26.87,43.93 -27.88,43.56 -28.89,43.19 -29.89,42.82 -30.89,42.45 -31.87,42.08 -32.85,41.72 -33.82,41.35 -34.78,41 -35.73,40.64 -36.67,40.29 -37.6,39.95 -38.52,39.61 -39.43,39.27 -40.32,38.95 -41.21,38.62 -42.08,38.31" fill="rgb(215,127,140)" stroke="black" stroke-width="3" stroke-linejoin="round" filter="url(#fuzzy)" />
    </g>
  </svg>