<svg xmlns="http://www.w3.org/2000/svg" width="500" height="500" viewBox="-100 -100 200 200"><defs><clipPath id="c"><path d="m26.2-6.32-.03-.64-.07-.62-.09-.6-.13-.59-.16-.57-.19-.55-.22-.54-.26-.52-.28-.5-.31-.49-.34-.47-.37-.46-.4-.44-.42-.42-.45-.41-.41-.48-.46-.47-.49-.45-.54-.43-.58-.42-.61-.39-.65-.37-.69-.35-.72-.33-.76-.31-.78-.28-.81-.27-.84-.24-.86-.22-.89-.19-.9-.18-.93-.15-.93-.13-.95-.11-.97-.09-.97-.06-.97-.05-.99-.02-.98-.01-.98.02-.99.03-.98.05-.97.07-.97.09-.96.11-.95.12-.93.13-.93.15-.9.16-.9.18-.88.19-.85.2-.85.21-.82.22-.8.22-.78.24-.76.24-.74.25-.72.25-.7.25-.68.26-.66.27-.63.26-.62.26-.6.27-.58.26-.56.27-.55.27-.53.26-.51.27-.49.27-.48.27-.45.27-.45.27-.42.26-.42.27-.39.26-.38.26-.36.26 2.42 9.37.29.51.3.51.32.52.33.53.34.53.35.55.36.55.37.56.38.56.39.58.4.58.42.58.42.59.43.6.44.6.46.62.46.61.48.63.49.63.5.64.51.64.52.64.53.65.54.64.55.64.56.64.57.64.57.63.58.62.59.61.6.6.61.58.61.56.62.55.62.52.64.5.64.48.64.44.65.41.66.38.67.34.67.3.67.26.69.22.68.17.7.12.7.07.7.02.71-.03.72-.09.72-.15.73-.21.73-.26.73-.33.74-.39.75-.45.75-.51.75-.57.76-.64.75-.69.76-.75.76-.81.76-.86.76-.92.62-.58.61-.61.6-.64.6-.66.6-.68.58-.71.58-.72.56-.74.56-.76.54-.77.52-.77.52-.79.49-.79.48-.79.46-.79"/></clipPath><clipPath id="b"><path d="m-26.72-8.32-.04-.63v-.61l.04-.59.07-.58.12-.55.15-.54.18-.51.22-.5.26-.49.29-.47.33-.45.35-.44.39-.42.42-.41.45-.39.42-.42.46-.42.51-.4.55-.38.59-.38.64-.37.67-.35.71-.34.75-.32.78-.31.82-.29.84-.28.87-.27.89-.25.92-.23.93-.21.95-.2.97-.18.98-.17.98-.15 1-.12 1-.12 1-.09 1-.08 1-.05 1-.04.99-.03.98-.01.98.01.96.03.95.04.93.06.92.08.9.08.89.11.86.11.85.13.82.14.8.16.78.16.76.17.74.19.71.19.69.19.67.21.65.21.62.22.61.21.58.23.56.22.55.23.52.23.51.23.49.24.47.24.46.24.44.24.41.25.41.24.38.25.37.25.36.24.34.25.32.24-4.4 10.4-.3.65-.31.66-.32.67-.32.67-.33.69-.34.69-.35.7-.35.71-.36.72-.36.72-.37.73-.37.74-.37.74-.38.75-.39.75-.39.77-.39.77-.41.77-.4.79-.41.78-.42.79-.41.79-.42.8-.42.79-.41.78-.42.78-.42.77-.43.77-.42.75-.42.73-.42.72-.43.7-.42.67-.43.65-.43.62-.44.59-.44.56-.44.52-.45.47-.46.44-.46.39-.48.34-.48.3-.5.23-.51.19-.52.12-.54.06h-.55l-.57-.07-.59-.13-.61-.2-.63-.27-.65-.34-.67-.41-.7-.49-.72-.55-.74-.63-.77-.7-.8-.77-.81-.84-.84-.91-.87-.97-.89-1.03-.9-1.09-.66-.7-.66-.72-.66-.75-.67-.78-.67-.8-.67-.82-.67-.85-.67-.86-.66-.87-.65-.89-.65-.89-.63-.89-.62-.9-.61-.89-.59-.89"/></clipPath><filter id="a"><feTurbulence baseFrequency=".05" numOctaves="3" result="noise" type="noise"/><feDisplacementMap in="SourceGraphic" in2="noise" scale="2"/></filter></defs><rect width="100%" height="100%" x="-100" y="-100" fill="#A6E1F2"/><path fill="#DF4B20" stroke="#000" stroke-linejoin="round" stroke-width="1.667" d="m64.6-1.08-.09 3.53v1.27l-.09-.04v.79l.02 2.21-.1.35-.31 2.68-.02.45.05 1.53-.51 2.86.05-.47.2-.55-.49 3.28-.56 2.23.01.05-.76 3.52.23-1.3-.23 2.52-.29-.12-.1 1.32-.5 1.31.19-.33-1.18 4.24.4-1.76-1.05 2.77-.24 1.22-.58 2.36-.83 1.96.04-.55-.52 1.31-.05.76-.77 1.28-.03.41-.58 1.29-1.11 2.48.13-.88-1.33 2.86-.97 1.71-.15.26-.26.6-.17.32-.53.58-.99 1.83.11.12L49 53.33l-1.74 2.43 1.06-1.29-1.77 2.43.23-.38-.42.72-1.42 1.96.41-.65-1.85 2.37-.42.51-.4.29-.77.69-1.04 1.23-.5.44-.51.66-1.38 1.41-2.73 2.37.15.03.56-.94-2.69 2.28 1.05-.75-1.62 1.49-1.85 1.05 1.07-.38-.51-.05-2.16 1.63-.8.43-1.13.66-.51.79-1.62.69-1.49.87-.93.26 1.05-.6-3.8 1.86 1.68-.64-.54.23-4.06 1.47-.33.1.26.18.51-.32-3.4 1.32-1.93.22-.15.36.56-.29-3.02.57.43-.1-1.14.37-1.17.11-1.23.15.73.11-1.85.08-.74.17-2.25.09-1.02.11-1.38.15-1.29-.14-1.03.06-.8-.23-.69.1-.08.14-1.89-.23-1.87-.17.2-.1-.44-.29-1.63-.06-1.69-.22-1.61-.36h-.03l.95.15-1.9-.54-2.13-.58-1.48-.62-1.17-.55 1.23.57-2.68-.81-.52-.41-1.69-.47-.39-.42-2.34-.83-.84-.5-.04-.06-.21-.38-2.49-1.25.91.53-1.73-.83-.37-.48-2.27-1.68 1 .85-2.07-1.38-.09-.26-.95-.71-.91-.32.07-.18-3.07-2.66.91.65-1.43-1.08-1.49-1.69.32.29-1.43-1.18-.36-.75-1.61-1.6-.79-.7-.08-.56-1.09-.93-.11-.06-1.2-1.61-.44-.54-.7-.84-.9-1.16.27.53-1.49-2.2-.54-1.1-1.17-1.71-.63-.91.2.3-.86-1.29-.63-1.49-.78-1.44-.19.04-.92-2.36.11.5-1.06-2.16-.55-1.18.34.44-.72-1.79-.42-.92-1.28-2.58-.14-.84-.58-1.81-.28-.58-.58-1.83-.42-1.93-.34-1.01.24 1-1.44-4.52.19.4-.35-1.92.04 1.16-.37-2.43-.23-1.13-.29-1.34-.3-2.03-.17-.48-.19-2.43-.08.67-.34-1.97-.07-1.46.03-.47-.2-1.11-.31-3.72.06 1.64-.16-2.91.09-.37.07-1.28-.08-2.81-.06-1.48-.07-.69.19-.94-.01.11.16-3.34.02-2 .01-.94-.08 1.81.09-2.19.32-1.85.35-1.82-.17-.56.27-1.97.32-1.05-.04-1.03.87-3.22-.26-.23.51-1.11.19-.82.14-.98-.14.64.94-4.14.45-1.5.15-.19-.39.85 1.27-3.85.11-.16.38-1.27-.16.93 1.26-3.76.16-.12.53-1.86.61-1.06.45-1.12.77-1.97.2-.13 1.07-2.17.9-1.75-.54.56 2.05-3.19-.71.96 1.03-1.72.2.03.18-.83 2.08-2.81.31-.17.62-1.02-.99 1.01 2.39-2.61.9-2.04.04.22 1.08-1.17.87-.86-.01-.07-.18.07 2.24-2.39.46-.78-.37.5 1.72-1.71 1.74-1.86.43-.16.32-.23.24-.34 1.5-1 .22-.38 2.05-1.77.97-.54.23-.27.49-.67 1.1-.45 1.66-.92.82-.82.56-.27 1.48-.75.48-.12.09-.36 1.5-.83 1.39-.67.76-.23.89-.46 1.32-.62.35-.08 1.06-.34 1.26-.63 2.12-.47-.36.13.2-.15.69.02 1.42-.64.89-.26.88-.05 2.36-.42 1.99-.44.23.01.42-.1.33.14.66-.32 1.34.06 1.76-.36 2.07-.03-.14.08 2.75.17 1.12-.01-2.43.11 3.2-.06 1.11.04-1.01.01 1.66.35 1.56.1 1.64.1.4.19-.15.11.67.22 2.61.33-.16.19 1.67.34 1.16.41.31.25 2.97.94.79.42.78.3 1.33.34.03.12 1.14.57-1.18-.67 2.48 1.38 1.57.59 1.71 1.26-.75-.72 1.94 1.05.2.45 1.13.67.84.89-.1-.15 2.24 1.27 1.13.92-.09.12 1.89 1.8.44.16-.16-.13 2.35 1.85-.4-.12.74.49 1.71 1.81-.31-.09 1.66 1.59.16.26 1.71 2.23.37.1.76.8.01.23.76 1.09 1.29 1.59.11.59 2.06 2.19-.08-.03-.11-.04 1.31 2.19 1.05 1.27-.02.25.46.82.15.61 1.12 1.65.8 1.54.95 1.87-.08-.03.74 1.67.88 1.34-.15.15.6 1.73-.35-1.05 1.78 3.95-.43-1 .77 2.81.43.62.68 2.71-.09-.93-.07.25 1.47 4.08.3 1.26-.2-.13.54 1.71v-.14l.19 1.05.44 2.15.47 3.48.36.72-.12.94.32.89-.08.44.49 2.08-.17-1.11.22 2.54.34 2.42.02.39-.06 1.65.25 2.47.05.95-.05.73.01.44.07.67-.09 3.53" filter="url(#a)"/><path fill="#fff" d="m-26.72-8.32-.04-.63v-.61l.04-.59.07-.58.12-.55.15-.54.18-.51.22-.5.26-.49.29-.47.33-.45.35-.44.39-.42.42-.41.45-.39.42-.42.46-.42.51-.4.55-.38.59-.38.64-.37.67-.35.71-.34.75-.32.78-.31.82-.29.84-.28.87-.27.89-.25.92-.23.93-.21.95-.2.97-.18.98-.17.98-.15 1-.12 1-.12 1-.09 1-.08 1-.05 1-.04.99-.03.98-.01.98.01.96.03.95.04.93.06.92.08.9.08.89.11.86.11.85.13.82.14.8.16.78.16.76.17.74.19.71.19.69.19.67.21.65.21.62.22.61.21.58.23.56.22.55.23.52.23.51.23.49.24.47.24.46.24.44.24.41.25.41.24.38.25.37.25.36.24.34.25.32.24-4.4 10.4-.3.65-.31.66-.32.67-.32.67-.33.69-.34.69-.35.7-.35.71-.36.72-.36.72-.37.73-.37.74-.37.74-.38.75-.39.75-.39.77-.39.77-.41.77-.4.79-.41.78-.42.79-.41.79-.42.8-.42.79-.41.78-.42.78-.42.77-.43.77-.42.75-.42.73-.42.72-.43.7-.42.67-.43.65-.43.62-.44.59-.44.56-.44.52-.45.47-.46.44-.46.39-.48.34-.48.3-.5.23-.51.19-.52.12-.54.06h-.55l-.57-.07-.59-.13-.61-.2-.63-.27-.65-.34-.67-.41-.7-.49-.72-.55-.74-.63-.77-.7-.8-.77-.81-.84-.84-.91-.87-.97-.89-1.03-.9-1.09-.66-.7-.66-.72-.66-.75-.67-.78-.67-.8-.67-.82-.67-.85-.67-.86-.66-.87-.65-.89-.65-.89-.63-.89-.62-.9-.61-.89-.59-.89" filter="url(#a)" transform="translate(24.25 -23.29)"/><path fill="#fff" d="m26.2-6.32-.03-.64-.07-.62-.09-.6-.13-.59-.16-.57-.19-.55-.22-.54-.26-.52-.28-.5-.31-.49-.34-.47-.37-.46-.4-.44-.42-.42-.45-.41-.41-.48-.46-.47-.49-.45-.54-.43-.58-.42-.61-.39-.65-.37-.69-.35-.72-.33-.76-.31-.78-.28-.81-.27-.84-.24-.86-.22-.89-.19-.9-.18-.93-.15-.93-.13-.95-.11-.97-.09-.97-.06-.97-.05-.99-.02-.98-.01-.98.02-.99.03-.98.05-.97.07-.97.09-.96.11-.95.12-.93.13-.93.15-.9.16-.9.18-.88.19-.85.2-.85.21-.82.22-.8.22-.78.24-.76.24-.74.25-.72.25-.7.25-.68.26-.66.27-.63.26-.62.26-.6.27-.58.26-.56.27-.55.27-.53.26-.51.27-.49.27-.48.27-.45.27-.45.27-.42.26-.42.27-.39.26-.38.26-.36.26 2.42 9.37.29.51.3.51.32.52.33.53.34.53.35.55.36.55.37.56.38.56.39.58.4.58.42.58.42.59.43.6.44.6.46.62.46.61.48.63.49.63.5.64.51.64.52.64.53.65.54.64.55.64.56.64.57.64.57.63.58.62.59.61.6.6.61.58.61.56.62.55.62.52.64.5.64.48.64.44.65.41.66.38.67.34.67.3.67.26.69.22.68.17.7.12.7.07.7.02.71-.03.72-.09.72-.15.73-.21.73-.26.73-.33.74-.39.75-.45.75-.51.75-.57.76-.64.75-.69.76-.75.76-.81.76-.86.76-.92.62-.58.61-.61.6-.64.6-.66.6-.68.58-.71.58-.72.56-.74.56-.76.54-.77.52-.77.52-.79.49-.79.48-.79.46-.79" filter="url(#a)" transform="translate(-41.32 -26.89)"/><g fill="none" stroke="#000" transform="translate(24.25 -23.29)"><path stroke-linejoin="round" stroke-width="1.667" d="m-24.07-.67-.45-.89-.41-.85-.37-.83-.32-.8-.29-.78-.24-.75-.2-.72-.16-.7-.12-.67-.09-.66-.04-.63v-.61l.04-.59.07-.58.12-.55.15-.54.18-.51.22-.5.26-.49.29-.47.33-.45.35-.44.39-.42.42-.41.45-.39.42-.42.46-.42.51-.4.55-.38.59-.38.64-.37.67-.35.71-.34.75-.32.78-.31.82-.29.84-.28.87-.27.89-.25.92-.23.93-.21.95-.2.97-.18.98-.17.98-.15 1-.12 1-.12 1-.09 1-.08 1-.05 1-.04.99-.03.98-.01.98.01.96.03.95.04.93.06.92.08.9.08.89.11.86.11.85.13.82.14.8.16.78.16.76.17.74.19.71.19.69.19.67.21.65.21.62.22.61.21.58.23.56.22.55.23.52.23.51.23.49.24.47.24.46.24.44.24.41.25.41.24.38.25.37.25.36.24.34.25.32.24.31.25.3.24.28.24.27.24.25.24.24.24.23.23.22.23.21.23.19.23" filter="url(#a)"/><path stroke-linejoin="round" stroke-width="2.222" d="m-26.9-4.9.22.52.27.6.33.64.37.7.41.74.45.78.49.8.51.84.55.86.56.87.59.89.61.89.62.9.63.89.65.89.65.89.66.87.67.86.67.85.67.82.67.8.67.78.66.75.66.72.66.7.9 1.09.89 1.03.87.97.84.91.81.84.8.77.77.7.74.63.72.55.7.49.67.41.65.34.63.27.61.2.59.13.57.07h.55l.54-.06.52-.12.51-.19.5-.23.48-.3.48-.34.46-.39.46-.44.45-.47.44-.52.44-.56.44-.59.43-.62.43-.65.42-.67.43-.7.42-.72.42-.73.42-.75.43-.77.42-.77.42-.78.41-.78.42-.79.42-.8.41-.79.42-.79.41-.78.4-.79.41-.77.39-.77.39-.77.39-.75.38-.75.37-.74.37-.74.37-.73.36-.72.36-.72.35-.71.35-.7.34-.69.33-.69.32-.67.32-.67.31-.66.3-.65.29-.64.29-.63.27-.63.26-.61.26-.61.24-.6.24-.59.22-.58.22-.57.2-.57" filter="url(#a)"/><circle cx="-9.373" cy="-3.725" r="3.644" clip-path="url(#b)" filter="url(#a)"/><circle cx="-12.838" cy="-2.715" r="3.354" clip-path="url(#b)" filter="url(#a)"/><circle cx="-9.348" cy="-3.835" r="3.476" clip-path="url(#b)" filter="url(#a)"/><circle cx="-10.493" cy="-3.52" r="4.47" clip-path="url(#b)" filter="url(#a)"/><circle cx="-13.993" cy="-6.375" r="3.36" clip-path="url(#b)" filter="url(#a)"/><circle cx="-11.988" cy="-4.39" r="3.7" clip-path="url(#b)" filter="url(#a)"/><circle cx="-12.163" cy="-3.195" r="3.108" clip-path="url(#b)" filter="url(#a)"/><circle cx="-10.043" cy="-4.67" r="4.066" clip-path="url(#b)" filter="url(#a)"/><circle cx="-13.783" cy="-2.43" r="4.732" clip-path="url(#b)" filter="url(#a)"/><circle cx="-11.413" cy="-6.29" r="4" clip-path="url(#b)" filter="url(#a)"/></g><g fill="none" stroke="#000" transform="translate(-41.32 -26.89)"><path stroke-linejoin="round" stroke-width="2.222" d="m24.75.94.29-.8.25-.78.23-.77.19-.75.17-.74.13-.72.09-.7.07-.68.03-.67v-.65l-.03-.64-.07-.62-.09-.6-.13-.59-.16-.57-.19-.55-.22-.54-.26-.52-.28-.5-.31-.49-.34-.47-.37-.46-.4-.44-.42-.42-.45-.41-.41-.48-.46-.47-.49-.45-.54-.43-.58-.42-.61-.39-.65-.37-.69-.35-.72-.33-.76-.31-.78-.28-.81-.27-.84-.24-.86-.22-.89-.19-.9-.18-.93-.15-.93-.13-.95-.11-.97-.09-.97-.06-.97-.05-.99-.02-.98-.01-.98.02-.99.03-.98.05-.97.07-.97.09-.96.11-.95.12-.93.13-.93.15-.9.16-.9.18-.88.19-.85.2-.85.21-.82.22-.8.22-.78.24-.76.24-.74.25-.72.25-.7.25-.68.26-.66.27-.63.26-.62.26-.6.27-.58.26-.56.27-.55.27-.53.26-.51.27-.49.27-.48.27-.45.27-.45.27-.42.26-.42.27-.39.26-.38.26-.36.26-.35.26-.34.25-.32.25-.31.25-.29.24-.28.25-.27.23-.25.24-.25.23-.23.23" filter="url(#a)"/><path stroke-linejoin="round" stroke-width="2.222" d="m26.64-3.39-.16.54-.2.59-.24.64-.27.66-.31.7-.33.73-.37.74-.39.76-.41.78-.44.79-.46.79-.48.79-.49.79-.52.79-.52.77-.54.77-.56.76-.56.74-.58.72-.58.71-.6.68-.6.66-.6.64-.61.61-.62.58-.76.92-.76.86-.76.81-.76.75-.75.69-.76.64-.75.57-.75.51-.75.45-.74.39-.73.33-.73.26-.73.21-.72.15-.72.09-.71.03-.7-.02-.7-.07-.7-.12-.68-.17-.69-.22-.67-.26-.67-.3-.67-.34-.66-.38-.65-.41-.64-.44-.64-.48-.64-.5-.62-.52-.62-.55-.61-.56-.61-.58-.6-.6-.59-.61-.58-.62-.57-.63-.57-.64-.56-.64-.55-.64-.54-.64-.53-.65-.52-.64-.51-.64-.5-.64-.49-.63-.48-.63-.46-.61-.46-.62-.44-.6-.43-.6-.42-.59-.42-.58-.4-.58-.39-.58-.38-.56-.37-.56-.36-.55-.35-.55-.34-.53-.33-.53-.32-.52-.3-.51-.29-.51-.29-.49-.27-.49-.25-.48-.25-.48-.23-.46-.23-.46-.21-.46-.2-.44-.19-.44-.18-.43" filter="url(#a)"/><circle cx="-20.614" cy="1.344" r="3.188" clip-path="url(#c)" filter="url(#a)"/><circle cx="-20.974" cy="-.476" r="4.378" clip-path="url(#c)" filter="url(#a)"/><circle cx="-20.294" cy="-.846" r="4.332" clip-path="url(#c)" filter="url(#a)"/><circle cx="-19.414" cy=".634" r="4.472" clip-path="url(#c)" filter="url(#a)"/><circle cx="-17.154" cy=".274" r="3.438" clip-path="url(#c)" filter="url(#a)"/><circle cx="-19.954" cy="-2.416" r="3.692" clip-path="url(#c)" filter="url(#a)"/><circle cx="-21.654" cy="-2.971" r="4.802" clip-path="url(#c)" filter="url(#a)"/><circle cx="-20.269" cy="-.431" r="4.594" clip-path="url(#c)" filter="url(#a)"/><circle cx="-20.844" cy="-1.456" r="4.54" clip-path="url(#c)" filter="url(#a)"/><circle cx="-21.539" cy=".619" r="3.788" clip-path="url(#c)" filter="url(#a)"/></g><g fill="none" stroke="#13862D" stroke-linejoin="round" stroke-width="2"><path d="m7.94-81.44-18.04 3.68-3.31.95.35 2.52 3.61 3.74 5.01 3.45 4.16 2.09 3.27.83 4.05.5 6.1.96 7.53 1.29 6.62.63 3.17-1.12-1.44-3.13-5.25-4.02-6.51-2.75-4.13.88 1.51 5.52 3.14 5.4-28.82-20.75" filter="url(#a)"/><path d="M23.13-76.61 2.06-68.35l5.19 3.02 3.02 1.11 2.14.13 3.21-.19 3.44.05 2.39.37.62.2-1.57-.61-3.91-1.7-5.79-2.36-6.34-2.01-5.11-.65-2.25 1.18 1.62 2.71 5.77 3.63 9.62 4.16 12.38 4.65 12.39 4.42 7.15 1.05-4.23-7.91-18.67-19.51" filter="url(#a)"/><path d="m-25.5-75.13 44.62 18.86 9.89-2.5 1.43-3.71-.93-2.14-1.21-.79-.93.02-.49.5.36.88 1.62 1.17 2.64 1.11 2.62.51 1.22-.47-1.18-1.36-3.87-1.56-6.31-.92-8.31.09-9.48.47-8.88-.52-5.26-2.46.83-3.32L.4-72.71l29.83.11" filter="url(#a)"/><path d="m-19.2-78.38 45.89 21.21 7.1 1.54-11.08-5.27-15.99-5.44-13.47-2.78-7.53-.04-.74 1.49 4.62 1.82 6.47 1.55 3.92 1.19-1.8.8-7.53.32-9.76-.29-6.83-1.05-.65-2.17 2.94-3.15-2.5-1.71-11.48 3.76" filter="url(#a)"/><path d="M28.9-73.72-.55-67.15l-1.86-.55.66-.98 1.31.55 1.76 1.75 2.42 2.32 3.25 2.32 3.46 1.69 2.62.42 1.14-1.24-.46-2.8-2.01-3.6-2.55-2.96-.3-.87 3.82 1.43-.99 1.16-37.13-6.98" filter="url(#a)"/><path d="m30.23-72.6-19.71-4.1L.49-74.1l-4.96 4.98.08 3.43.92.45-1.71-1.42-4.54-1.5-5.35-.62-3.97.13-1.15.17 2.3-.43 5.64-1.21 7.79-1.68 7.4-1.5 3.6-.73-2.8.14-8.77.63-10.1.58-6.81.88-17.85 7.22" filter="url(#a)"/><path d="m21.99-77.18-35.37 7.61 1.41-.54 11.35 1.73 10.23 4.94 6.98 5.6 4.49 4.04 2.49 1.71.5-.28-.99-1.49-1.49-2L20.31-58l-1.28-2.28-2.21-2.54-4.14-2.75-6.53-2.65-8.65-2.12-9.42-1.48-7.82-1.01-4.48-.17-4.75 3.6-19.96 15.66" filter="url(#a)"/><path d="m45.17-58.8-14.46 7.76-21.68-7.52-7.65-5.33 2.03.45 4.53 4.23 2.33 4.51-.54 2.34-.93-.34 1.5-2.18 4.56-2.91 5.63-2.98 3.76-2.91.09-2.73-3.06-2.21-3.88-1.18-2.43-.05-.8.17-.49-.69 4.41 1.33 31.23 15.9" filter="url(#a)"/><path d="m30.23-72.6.01 11.16-2.49 4.26 2.53 3.36 1 1.72-2.49-.17-5.12-1.76-6.65-2.83-6.88-3.16-5.13-2.56-1.21-1.04 3.83.97 8.04 2.73 9.72 3.44 8.22 2.73 4.26.82-.55-1.52-4.41-3.26-5.75-3.51-3.75-2.01.8.45 4.65 1.81 4.92.89 17.77 10.61" filter="url(#a)"/><path d="m-38.05-66.44 40.49-5.39 17.93-.05L28.32-70l2.92 2.52-1.49 1.44-5.4-.75-7.42-2.57-7.27-2.98-6.22-1.93-5.51-.11-4.86 1.54-2.64 2.29 1.72 1.68 5.46.02 4.32-1.18 2.75.15 31.74 2.16" filter="url(#a)"/><path d="m-5.71-81.58 7.13 5.54 8.59 8.05-2.13 5.63-5.82 2.78-4.32 1.21-2.56.48-2.16-.18-2.37-1-2.24-1.79-1.46-2.26-.1-2.13 1.89-1.24 4.74.46 8.28 2.66 11.48 4.67 12.59 5.4 10.1 3.93 3.95.51-3.78-2.75-9.19-2.45-4.45 4.33 39.05 24.31" filter="url(#a)"/><path d="m56.67-39.17-39.6-24.58-2.33-7.5 4.42-.01.28 2.1-4.51 1.95-5.24 1.19-2.44.27.73-.76 1.97-1.66L11.23-70l.13-.81-.56 1.07-1.05 2.57-1.79 2.27-1.67-.24 1.54-3.23 7.44-3.85 9.86-1.37 5.94 1.88m32.85 59.48.21-1.59 1.32-1.37 1.56-1.41 1.39-1.6 1-1.81.42-1.84-.2-1.68-.57-1.4-.51-1.2-.05-1.19.52-1.41.89-1.78.92-2.3.94-2.79 2.19-2.74" filter="url(#a)"/><path d="M20.75-104.66 19-103.47l-1.96 3.13-1.74 2.58-1.5 1.87-1.28 1.65-1.16 1.66-1.13 1.55-1.13 1.21-1.12.84-1.08.61-.99.51-.89.31-.78-.24-.65-.87-.58-.42-.96 2.35-2.07 4.58 1.86.18.83.34.56.6.62.76.69.75.76.67.81.61.84.6.83.57.79.55.74.58.7.74.7.98.71 1.23.73 1.36.75 1.32.78 1.21.95 1.14 1.53 1.52L-.02-82.15l-.55-.18-1.23-.37-1.33-.54-1.16-.63-.98-.85-.93-1.34-1.02-2.08-1.27-2.85-1.55-3.37-1.79-3.45-1.85-2.99-1.73-2.02-1.45-.77-1.08.36-.72.79-.43.01.01-.77L.12-82.23l-1.85-.75-1.57-1.15-1.21-1-.93-.67-.8-.43-.82-.25-.97-.17-1.16-.21-1.34-.4-1.43-.71-1.43-1.05-1.37-1.34-1.26-1.56-1.16-1.7-1.13-1.7-1.21-1.39-1.39-.84-1.68-.7-1.95-1.95" filter="url(#a)"/><path d="m-12.61-66.49.01-1.84.37-1.67.67-1.02.93-.35 1.07-.29 1.07-.87.94-1.59.76-1.93.62-1.71.56-1.1.64-.59.82-.49 1.08-.82 1.42-1.03 1.77-.44-3.83.39 1.55-4.94 1.4-1.98 1.24.15 1.06 1.04.9.83h.82l.82-.89.88-1.41.93-1.44 1.01-1.15 1.15-.89 1.25-.76 1.19-.74.86-.83.35-1.68-40.38-10.24 2.15 2.61 1.78 2.25 1.81 2.27 1.83 2.51 1.66 2.37 1.36 1.77 1.09.96.95.26.97-.08 1.12.03 1.32.47 1.49.83 1.49.64 1.28-.29.9-1.55.57-1.65.61 1.56 1.25 9.91" filter="url(#a)"/><path d="m-6.46-81.62.38-.6.52-1.24.82-1.25 1.1-.77 1.26-.29 1.3-.1 1.25-.17 1.13-.44 1.02-.76.95-1.04.92-1.24.95-1.31 1-1.28 1.08-1.24 1.16-1.23 1.2-1.28 1.19-1.3 1.15-1.24 1.14-1.16 1.26-1.15 1.44-1.23 1.53-1.23 1.74-.87-42.11 41.64.67-1.13.31-1.36.36-1.35.52-1.24.63-1.16.67-1.08.68-1.03.71-.93.73-.82.77-.71.77-.63.75-.59.71-.55.66-.52.66-.51.71-.52.84-.55.99-.54 1.2-.54 1.35-.69 1.26-1.26.67-1.51-.23-.01-1.92.24-1.77-.61-1.61-1.5-1.4-1.58-1.12-.94-.87-.15-.73.4-.73.57-.82.51-.96.33-1.06.08-1.17-.2-1.26-.51-1.35-.74-1.39-.76-1.37-.54-1.26-.11-1.1.21-1.01.19-1.11-.24-1.67-.54" filter="url(#a)"/><path d="M63.43-14.31v-.58l-.03-.86-.04-1.17-.12-1.45-.18-1.58-.19-1.53-.15-1.39-.1-1.25-.07-1.18-.07-1.2-.09-1.28-.09-1.34-.06-1.39v-1.4l.07-1.43.08-1.48.07-1.56-.01-1.61-.15-1.58-.29-1.42.08-.52 1.34 27.2.07-.59-.06-.83-.18-1.11-.25-1.39-.27-1.55-.23-1.53-.2-1.36-.18-1.19-.18-1.08-.22-1.09-.27-1.16-.31-1.24-.31-1.26-.29-1.17-.26-1.11-.29-1.22-.35-1.55-.5-2.19-90.29-32.1.58-.79.84-.88.9-.88.88-.79.82-.69.78-.59.78-.52.8-.49.84-.46.91-.42.94-.38.94-.37.91-.41.88-.48.89-.55.95-.54 1.07-.46 1.02-.37.29-.59" filter="url(#a)"/><path d="m-32.09-71.13.69-.6.97-.62 1.03-.63.97-.59.89-.54.84-.5.8-.46.81-.46.86-.47.9-.48.93-.46.94-.44.91-.41.9-.38.91-.37 1.02-.38 1.26-.43 1.7-.47" filter="url(#a)"/><path d="m-18.14-78.72-.55 1.48-.61 1.1-.83.49-.92.35-.9.51-.83.7-.76.82-.73.79-.73.71-.77.62-.81.56-.83.57-.83.63-.79.71-.73.81-.68.89-.66.97-.65 1.05-.63 1.11-.57 1.14-.45 1.1-.27 1-.04.97-.05.69" filter="url(#a)"/><path d="m-37.4-82.9 1.47.9 1.72.81 1.64.53 1.46.35 1.31.33 1.21.36 1.15.39 1.12.35 1.12.26 1.14.15 1.12.03 1.07-.08 1.02-.09.95-.01.89.04.87-.14M54.78 3.8l1.05-.46.83-.7.83-1.06.79-1.19.59-1.12.27-1.02-.03-.98-.25-1.01-.35-1.12-.3-1.21-.14-1.29.1-1.33.32-1.31.54-1.24.95-1.16 1.68-1.22 1.85-1.13-.27-.86-.21-1.1-.34-1.42-.54-1.51-.7-1.38-.75-1.13-.69-.95-.56-.89-.45-.94-.4-1.05-.44-1.11-.51-1.07-.56-.98-.58-.91-.58-.96-.54-1.05-.45-.94-.45.16" filter="url(#a)"/><path d="m-19.55-78.3.55-.37.88-.66.92-.78.81-.85.66-.9.61-.93.67-.95.8-.95.96-.95 1.09-.87 1.17-.69 1.17-.44 1.1-.22.98-.15.9-.29.88-.6.98-.93 1.16-1.19 1.34-1.27 1.44-1.3 1.51-1.25 2.13-.17 1.85-11.87-1.86.83-1.85.59-1.68 1.73-1.58 2.25-1.46 2.03-1.29 1.51-1.11.98-1.02.58-1.03.29-1.12.08h-1.24l-1.31.12-1.28.47-1.15.97-.96 1.47-.76 1.76-.63 1.79-.61 1.57-.66 1.33-.74 1.31-.71 1.73-.54 2.34-.44 2.32-.85 1.15-3.04 1.36.1-4.1.44-2.29.9-.54 1-.2.98-.36.95-.61.88-1.03.7-1.66.48-2.32.35-2.69.36-2.66.54-2.35.8-2.07 1.09-1.94 1.43-1.7 1.96-1.13 2.27-1.96-15.23 29.61.17-3.91-.41-5.42.15-3.39.62-1.82.8-1.41.85-1.49.88-1.47.87-1.32.79-1.12.7-.9.69-.79.75-1.11.75-2.34.56-4.22.53-4.29 10.54 35.55-.5.02-.48-.27-.64-.34-.89-.29-1.09-.18-1.18-.03-1.16.04-1.07.04-.97-.03-.87-.11-.81-.13-.8-.1-.84-.04h-.92l-.96.02-.99.05-.97.11-.95.19-.99.22-1.07.2-1.22.29-1.37.62-.09.36-1.13-.85-1.26-.51-1.17-.02-1.03.47-1 .61-1.06.4-1.2.06-1.36-.28-1.52-.48-1.6-.57-1.65-.58-1.65-.64-1.68-.73-1.7-.78-1.7-.66-1.62-.26-1.42.32-1.17.8-1.09.82-1.66.35-3.01.52 30.2 2.13-1.1.72-.78.98-.74 1.13-.8.98-.77.86-.65.98-.48 1.29-.33 1.61-.31 1.72-.38 1.54-.53 1.12-.71.68-.82.39-.83.38-.75.62-.55 1.04-.29 1.45-.04 1.79.16 2 .22 1.96.2 1.46.19.57m99.26 34.1-.03.84-.29.93-.16.97.01 1.07.03 1.22-.07 1.34-.16 1.4-.2 1.39-.21 1.32-.24 1.24-.31 1.16-.37 1.13-.38 1.12-.36 1.14-.33 1.13-.32 1.1-.32 1.06-.32 1.03-.28 1.08-.24 1.14-.31 1.16-.59 1.06-1.12.94" filter="url(#a)"/><path d="m-30.5-72.25-1.14-.2-1.39-1.01-1.85-1.66-1.95-1.44-1.53-.37-.91.8-.5 1.45-.46 1.41-.76.87-1.25.14-1.74-.49-2.05-.87-2.2-1-2.29-1.08-2.47-1.33-2.67-1.71-2.48-1.76-1.66-.98-1.18.2" filter="url(#a)"/><path d="m-11.97-87.6-.91.41-.9.79-.77.96-.65.86-.64.67-.7.55-.81.54-.86.61-.9.68-.89.73-.89.7-.92.62-.96.52-.97.46-.95.45-.86.54-.76.71-.66.88-.64.97-.73.94-.9.85-1.26.91-2.79 1.93-1.38 1.35-.87.98-.59.93-.37 1.07-.22 1.3-.2 1.51-.26 1.57-.38 1.47-.49 1.24-.55 1.04-.49.97-.35 1.01-.2 1.07-.15 1.05-.21.93-.27.9-.1 1.19.15 2.04" filter="url(#a)"/><path d="m-35.34-68.55 1.65-.99 1.03-.62.88-.3.92-.14 1-.19 1.02-.29 1-.29 1-.18h.98l.98.14.97.17.97.13 1.02.11 1.08.2 1.11.31 1.06.19.94-.71-39.54 7.64 1.48.58 1.48.31 1.65-.11 1.53-.36 1.3-.43 1.06-.44.92-.42.88-.38.88-.39.9-.48.86-.67.81-.86.84-.9 1-.7 1.18-.3 1.24.08 1.12.27 1.13.36 1.45.04-1.08.63-.82.19-.91.1-1.07.19-1.16.34-1.13.47-1.05.54-1.01.51-1.06.35-1.16.12-1.32-.14-1.4-.24-1.4-.14-1.29.18-1.12.55-1.02.78-1.04.71-1.24.39-1.58.01-1.9.01-1.83.66-.66 1.61" filter="url(#a)"/><path d="m-57.07-52.57 1.26-.82.88-.73.89-.9.9-.92.91-.78.91-.67.94-.62.96-.66.94-.7.91-.7.86-.64.82-.57.79-.54.76-.55.75-.62.77-.69.83-.74.89-.76.97-.77.98-.69.9-.46.72-.08.47.01 14.27-39.94-1.15 1.95-.61 2.92-.56 2.68-.76 2-.96 1.31-1.05 1.01-.94 1.21-.7 1.73-.46 2.26-.3 2.54-.29 2.51-.38 2.25-.54 1.87-.69 1.48-.83 1.07-.93.73-.98.53-.96.62-.92.9-1.01.97-1.32.41-1.17.32 3 7.01-.32.23.35-.33.6-.52.79-.68.9-.77.91-.79.88-.75.85-.7.83-.65.86-.64.89-.62.9-.61.89-.59.85-.57.81-.54.81-.54.83-.53.9-.53.96-.51.99-.47.99-.46 1.11-.59-18.33 12.55 1.35 1.52.65.04.47-.74.6-.88.88-.6 1.13-.16 1.24.15 1.22.19 1.09-.05.92-.41.8-.69.76-.75.79-.6.85-.33.91-.07.95.1.99.19 1.05.28 1.12.42 1.14.54 1.09.55.97.43.73.56" filter="url(#a)"/><path d="m-63.03-60.02.48.84.95-.05 1.08-.45 1.21-.59 1.27-.62 1.22-.6 1.1-.62 1.05-.64 1.1-.63 1.23-.48 1.39-.22 1.53.1 1.55.32 1.46.33 1.24.09 1.03-.23.93-.42.99-.38 1.15-.28 1.36-.58 1.66-1.31-1.74 1.86-1.15.87-.78.46-.93.35-1.16.1-1.28-.15-1.31-.23-1.3-.17-1.26.05-1.13.37-.9.75-.68 1.06-.56 1.21-.59 1.15-.79.94-1.07.66-1.3.42-1.36.29-1.24.35-1 .53-.83.75-.89.82-1.26.7-1.88.58-2.83.7" filter="url(#a)"/><path d="m-39.79-64.58-1.3.64-1.23-.21-1.2-.03-1.15.12-1.24-.04-1.33-.21-1.31-.14-1.18.17-1.04.52-1.01.69-1.07.67-1.15.57-1.13.57-1.01.69-.85.9-.75 1.02-.8.95-.99.69-1.25.38-1.53.17-1.76.08-2 .11-2.25.37-2.01 1.51" filter="url(#a)"/><path d="m-25.26-80.64-.92 1.1-.7.55-.75.44-.82.55-.84.72-.85.87-.82.97-.79.97-.78.92-.83.81-.88.72-.93.67-.92.66-.84.7-.73.78-.61.88-.57.99-.61 1.1-.69 1.18-.68 1.11-.49.78-.29.58 3.04-35.25-.9 3-.06 3.43.3 3.5.26 3.34-.13 2.67-.7 1.66-1.14.71-1.24.25-.99.44-.5 1.16-.01 2.09.34 2.86.48 3.23.45 3.09.22 2.47-.34 1.79-1.32 1.95m.18-.07-.39.2-.73.46-.81.65-.86.78-.9.82-.85.82-.79.79-.75.78-.76.78-.8.77-.81.77-.75.77-.67.78-.6.81-.6.86-.65.91-.74.96-.81 1.04-.86 1.09-.9 1.05-.92 1.31" filter="url(#a)"/><path d="m-45.64-58.39.29-.28.54-.6.55-.59.53-.61.56-.69.62-.78.68-.84.74-.87.8-.87.82-.86.79-.8.72-.69.66-.61.65-.6.74-.7.92-.9 1.43-1.29m-12.04 12.58-1.66 1.19-.85 1.32-.59.91-.61.77-.72.78-.81.79-.85.73-.87.66-.87.62-.86.63-.84.71-.8.83-.75.98-.69 1.11-.67 1.2-.66 1.24-.7 1.23-.77 1.18-.92 1.11-1.05 1.06-1.11 1.03-.98 1.02-.68.87-.77.66" filter="url(#a)"/><path d="m-32.31-76.54-.74.85-.51.93-.55 1.08-.69 1.13-.78 1.09-.78 1.01-.72.94-.66.89-.65.87-.69.86-.76.85-.81.85-.8.86-.74.88-.67.91-.59.86-.58.75-.57.63-.55.65-.45.82-.37 1.05-.57 1.43-2.33 2.79-3.34.03-.88.97-.35 1.01-.54.76-.84.57-1.02.55-1.04.69-.95.89-.88 1.03-.89 1.1-.96 1.09-1.02 1.04-1.06 1.03-1.1 1.01-1.21.96-1.4.83-1.62.64-1.73.53-1.61.58-1.26.84-.87 1.01-.59.71-.49.04 23.39-14.27-1.04-2.92.55-1.69.32-1.48.28-1.24.51-1 .67-.99.65-1.15.48-1.33.32-1.39.26-1.31.31-1.17.41-1.05.49-1.05.54-1.14.52-1.33.5-1.6.57-1.91.73-1.97.45-1.56-7.72 27.25-1.31.39-.99.37-1.15.43-1.17.57-1.07.78-1.05.9-1.15.88-1.31.78-1.45.71-1.55.67-1.68.66-1.93.6-2.23.47-2.39.3-2.25.03-3.15-.57 25.51-7.21-.27.09.17-.63.31-.93.5-1.04.65-.99.69-.9.63-.84.57-.9.54-1.04.54-1.2.52-1.28.5-1.2.49-1.03.46-.8.26-.35-8.97 17.42.39-1.32.23-1.16.35-1.04.44-.89.5-.84.55-.88.56-.96.56-1.02.55-1.05.54-1.03.58-1.02.63-.98.68-.95.71-.91.67-.87.62-.82.58-.79.55-.79.57-.83.6-.9.61-.98.68-1.06.95-1.3 1.4-1.87" filter="url(#a)"/><path d="m-54.06-44.81-1.68-3.1.47-.94.5-.94.15-1.19-.03-1.35-.04-1.45v-1.6l-.07-1.82-.22-2.01-.37-2.1-.36-2.1-.15-2.04.22-1.94.54-1.69.71-1.19 1.17-.67-2.88 30.4-.82.87-1.27.69-.98.94-.61 1.17-.46 1.2-.51 1.08-.67.94-.92.78-1.22.66-1.47.57-1.57.58-1.48.71-1.24.92-1.01 1.03-.93 1.01-1.01.85-1.2.72-1.39.73-1.63 1.05-1.87 2.25 33.92-34.91-.51.35-.82 1.06-.82.97-.72.75-.67.69-.68.75-.69.85-.65.87-.6.85-.55.82-.54.79-.57.81-.62.86-.66.95-.68 1.06-.65 1.15-.61 1.17-.62 1.41-1.06 2.18-4.77-1.3-1.42.81-1.59.67-1.69.45-1.32.57-.81.88-.38 1.14-.16 1.26-.24 1.25-.7 1.18-1.45 1.03-2.16.77-2.57.39-2.62.08-2.3.17 34.46-22.37-1.19 1.99-.81.93-.7.55-.66.49-.63.59-.59.76-.57.92-.6 1.01-.68 1.03-.78.99-.84.97-.78.99-.67 1.09-.59 1.21-.72 1.36" filter="url(#a)"/><path d="m-48.47-53.12-1.39 1.89-.71 1.1-.49.79-.46.71-.49.75-.53.84-.57.95-.59 1.05-.6 1.11-.61 1.16-.59 1.17-.57 1.17-.55 1.19-.54 1.25-.53 1.49" filter="url(#a)"/><path d="m-84.16-17.85 1.88-1.7 2.64-1.15 2.87-1.01 2.64-.94 2.15-.86 1.62-.81 1.18-.82.96-.88.89-.94.9-1 .89-1.03.87-.98.88-.9.94-.8 1-.74.88-.77.57-.91.26-1.15.45-1.29 2 .03m-2.63 7.38-.63.57-.88 1.26-.83 1.31-.71 1.08-.6.91-.5.86-.48.95-.55 1.06-.71 1.17-.85 1.24-.85 1.27-.72 1.29-.55 1.31-.56 1.35-.98 1.42-1.66 1.6" filter="url(#a)"/><path d="m-60.92-27.43-1.05 2.31-1.46.69-1 .53-.39.8-.23 1.02-.44 1.16-.77 1.2-1.09 1.22-1.46 1.17-1.97 1.11-2.57 1.03-3.03 1.02-3.04 1.06-2.4 1.08-1.21.9-.01.44.04.39 22.08-17.13.04-1.11-.17-.85-.13-1.04-.04-1.19.04-1.25.07-1.26.07-1.34.04-1.45-.03-1.59-.09-1.7-.09-1.76-.01-1.72.18-1.61.39-1.47.54-1.39.53-1.39.36-1.49.07-1.66-.23-1.8-.43-1.86-.47-1.84-.27-1.79.32-1.84 1.77-2.23M61.31-25.55l-.03-.51-.29-1.4-.2-1.56-.07-1.42-.07-1.29-.16-1.25-.25-1.27-.29-1.29-.3-1.3-.25-1.28-.19-1.24-.12-1.22-.11-1.2-.18-1.16-.31-1.13-.44-1.15-.49-1.25-.45-1.48-.36-1.72-.32-1.71-.2-1.22m5.28 27.18.24.25.53.56.55.81.69 1.09.9 1.31 1.13 1.35 1.22 1.24 1.14 1.09.94.94.73.88.67.85.84.88 1.08 1.01 1.21 1.28 1.35 1.47 2.22.85" filter="url(#a)"/><path d="m59.81-31.01.28 1.26.34 1.84.07 1.58-.09 1.27-.08 1.1.04 1.09.15 1.2.16 1.35v1.47l-.27 1.5-.58 1.43-.79 1.31-.81 1.16-.64 1.03-.39.96-.22 1.02-.21 1.19-.31 1.34-.61.97 3.37-25.85 1.15 1.17.87.61 1.13.77 1.19.97 1.03 1.03.84 1 .75.98.81 1.04.94 1.12 1.13 1.22 1.26 1.26 1.31 1.23 1.23 1.16 1.06 1.08.83 1.04.6 1.06.37 1.15.21 1.31.18 1.48.36 1.62.73 1.69 1.02 1.75.93 1.84 1.14 1.58-21.07-29.16.3 1.6.01 1.01.09 1.21.14 1.37.04 1.36-.12 1.29-.24 1.23-.32 1.28-.35 1.36-.32 1.46-.19 1.47-.02 1.38.13 1.24.2 1.07.17.95.07.92-.05.97-.12 1.05-.16 1.18-.26 1.29-.5 1.38-.75 1.49-.7 1.86 1.75-32.85 3.57-2.59-.9-.83-1.44-.36-.93-.59-.36-1.01v-1.34l.14-1.58.18-1.75.2-1.88.21-1.97.2-1.96.15-1.87.08-1.74.04-1.69.07-1.74.13-1.85.14-1.89-.01-1.75-.3-1.55-.56-1.56-.52-1.93-.2-2.82" filter="url(#a)"/><path d="m57.02-38.12.25.25.65 1.07.64 1.17.61 1.16.68 1.08.8.96.93.87 1.04.87 1.11.92 1.09.94 1.01.92.94.84.89.81.9.92.95 1.21 1.03 1.66 1.16 1.95 1.64 1.31-16.92-20.64-.13-.57-.34-1.03-.42-1.13-.49-1.17-.54-1.21-.52-1.27-.47-1.26-.4-1.2-.37-1.14-.39-1.07-.43-1.03-.48-1-.52-.99-.56-.98-.62-.99-.7-1.05-.74-1.13-.71-1.17-.55-1.08-.15-.73 7.19 16.2-.69-1.49-.57-1.24-.38-1.07-.23-1.07-.17-1.16-.15-1.31-.15-1.35-.22-1.31-.35-1.19-.52-1.11-.68-1.09-.74-1.11-.66-1.15-.48-1.16-.21-1.16-.15-1.24" filter="url(#a)"/><path d="m54.08-44.85.42 1.46.32 1.1.46.96.47.9.42.9.39.92.38 1 .38 1.08.36 1.16.34 1.21.32 1.23.31 1.21.31 1.18.33 1.19.33 1.2.32 1.21.27 1.17.19 1.07.13.99.07 1.03.09 1.29.17 1.85.4 2.7-9.25-31.81-.25-.81-.22-1.08-.41-1.13-.55-1.02-.64-.91-.68-.87-.73-.89-.74-.94-.71-.95-.67-.96-.61-.95-.6-.94-.6-.96-.64-.99-.68-1.01-.71-1.01-.73-.98-.74-.93-.72-.88-.69-.85-.69-.86-.69-.92-.32-.69" filter="url(#a)"/><path d="m51.57-49.72-.96-1.32-.71-1.13-.54-.91-.56-.89-.62-.96-.67-1.04-.66-1.03-.63-.99-.58-.9-.59-.83-.64-.81-.7-.85-.76-.92-.75-.97-.69-1-.66-1.04-1.03-1.37" filter="url(#a)"/><path d="m49.32-53.14-.17-.96-.5-1.51-.47-1.59-.22-1.75.06-1.94.19-2 .14-2 .06-2.02.01-2.12-.01-2.24-.04-2.27-.13-2.14-.3-1.88-.47-1.57-.63-1.29-.71-1.15-.68-1.23-.54-1.58-.3-2.16-.1-2.82-.04-3.23-.33-3.05-.89-1.98-.83-.28" filter="url(#a)"/><path d="m29.46-68.35 1.8.6 1.2.53.99.45.91.41.86.41.8.44.78.51.76.56.77.61.79.64.81.68.81.74.79.81.78.82.75.79.74.7.76.61.77.58.78.72.8.97.92 1.21 1.57 1.45" filter="url(#a)"/><path d="m49.4-53.11-1.38-1.65-.88-1.25-.7-1.11-.57-.99-.51-.92-.53-.89-.59-.9-.68-.93-.73-.93-.76-.93-.76-.89-.75-.84-.73-.81-.69-.8-.64-.82-.59-.82-.46-.67-.32-.34 2.09-3.92.2.6.27 1.11.41 1.2.46 1.21.47 1.21.51 1.22.58 1.17.72 1.03.84.88.88.77.8.78.62.89.44 1.03.39 1.12.5 1.12.63 1.21.56 1.65.9 2.21" filter="url(#a)"/><path d="m47.34-55.3-.25-1.05-.47-1.23-.51-1.01-.53-.85-.57-.79-.65-.85-.67-.96-.64-1.11-.58-1.24-.51-1.32-.47-1.32-.49-1.21-.57-1.04-.65-.85-.66-.79-.6-.87-.6-1.16-1.18-1.67" filter="url(#a)"/><path d="m69.9-42.12-1.11-2.89-1.4-.69-1.42-.27-1.36-.32-1.32-.46-1.27-.6-1.23-.71-1.25-.75-1.25-.74-1.21-.72L56-51l-.87-.8-.65-.93-.49-1.06-.41-1.14-.45-1.1-.65-.87-1.03-.52-1.43-.26-1.64-.23-2.44.43-.76-1.09 2.24-.64.8 1.24.94 1.01 1.2.53 1.16.37 1.02.47.94.59.96.58 1.02.53 1.05.48 1.1.53 1.15.64 1.22.8 1.22.92 1.24.84 1.43.49 1.43.71-20.12-10.09-.38-.18-.57-.53-.75-.69-.82-.82-.8-.9-.77-.9-.76-.84-.76-.75-.78-.65-.78-.56-.81-.48-.81-.42-.83-.41-.84-.44-.85-.55-.9-.65-1.12-.72-1.71-.86" filter="url(#a)"/><path d="m44.04-59.7-1.21-1.56-.88-1.05-.79-.88-.76-.82-.74-.76-.73-.72-.73-.67-.73-.64-.73-.64-.76-.64-.8-.66-.84-.69-.88-.7-.91-.69-.9-.65-.85-.62-.8-.6-.8-.6-.9-.66-1.34-.82m15.37 12.84 1.4 1.19 1.19.26 1.36-.3 1.44-.32 1.51-.15 1.62-.03h1.71l1.65.06 1.42.25 1.1.55.84.82.69.98.66.96.83.68 1.35.11 2.21-.49 2.6-.03-23.74-4.8.61.63 1 .62.98.44.8.47.65.67.63.85.69.94.78.94.83.85.86.73.9.62.95.56.96.63.83.74.58.72.56.53" filter="url(#a)"/><path d="m40.51-63.78-.44-.11-.95-.29-1.08-.04-1.15.21-1.13.2-1.02.01-.93-.16-.94-.22-1-.2-1.08-.13-1.14.02-1.18.24-1.2.48-1.15.64-1.15.88-1.2 1.62 16.74-3.15 1.53.71 1.07.8.9.84.94.58 1.17.17 1.52-.23 1.76-.4 1.78-.29 1.61.02 1.37.32 1.2.51 1.15.56 1.21.48 1.39.32 1.66.05 1.94-.22 2.12-.33 1.99.03 1.74.71 1.93 1.1 2.48 1.06" filter="url(#a)"/><path d="m40.82-63.69 1.5-1.54 1.49-.31 1.47.06 1.4.15 1.18.3.92.53.74.77.76.85.98.77 1.3.5 1.57.19 1.72-.05 1.73-.1 1.66.02 1.66.14 1.82.03 2.03-.45 1.72-.35M26.53-87.87l-.3.91.84 1.71 1.08 1.56.99 1.23.82 1.1.66 1.16.56 1.29.57 1.29.66 1.13.79.9.89.78.87.85.76 1.05.64 1.22.61 1.17.69.89.8.6.68.66.13 1.32-.16 1.55-7.02-27.45.91 1.72.3 1.75.13 2.3.21 2.28.4 1.85.53 1.53.56 1.52.55 1.65.59 1.64.66 1.46.65 1.31.44 1.49.07 1.94-.08 2.2.18 1.7.18.62m0 0-.42-.17-1.03-.12-1.04-.02-1.01-.09-.98-.24-.95-.42-.92-.58-.88-.65-.86-.59-.83-.49-.82-.38-.83-.28-.83-.17-.81-.01-.83.21-1.21.13" filter="url(#a)"/><path d="m38.77-65.87 1.63-2.5 1.21-.48.56 1.13.6 1.25 1.01.71 1.35.24 1.5-.03 1.54-.14 1.56-.23 1.6-.25 1.59-.15 1.49.15 1.28.54 1.04.9.82 1.05.84.89 1.24.49 1.89.28 1.52 1.24-24.27-5.09-1.24-1.61-.4-1.42-.49-1.14-.67-1.03-.74-1.1-.72-1.23-.7-1.26-.7-1.19-.68-1.1-.68-1.04-.68-1.05-.67-1.1-.73-1.13-.83-1.09-.95-.96-1.03-.78-.94-.68-.72-.69-.48-.8-.48-.86-.98-.43" filter="url(#a)"/><path d="m36.42-67.72-.04-.24-.41-.83-.46-1.36-.51-1.53-.64-1.35-.76-1.09-.77-1-.66-1.15-.51-1.44-.39-1.7-.37-1.77-.47-1.65-.69-1.45-.95-1.42-1.08-1.64-.81-1.87.56-1.74 9.12 23.36-.52-.97-.82-1-.61-1.5-.22-2.44.19-3.37.41-3.81.3-3.48-.09-2.52-.55-1.43-.87-.8-.9-1.01-.72-1.95-.54-3-.52-3.34-.62-2.56-.54-1.3-.09-2.75-8.6-.01 2.48 2.13 1.15 2.81.76 2.26.46 2.22.22 2.5.12 2.65.22 2.58.39 2.36.54 2.1.63 1.86.64 1.61.67 1.33.68 1.07.68.93.64.98.62 1.13.64 1.25.7 1.3.6 1.33.14.88" filter="url(#a)"/><path d="m34.34-69.67.71-5.4 1.35-6.51.31-3.48-.84-.58-1.43.78-1.38.57-.99-.5-.63-1.65-.45-2.51-.46-2.93-.51-2.98-.43-2.75-.21-2.4-.01-2.05-.37-.04-2.96 4.09.87 1.24.17 2.11-.02 2.54.07 2.74.31 2.72.48 2.58.51 2.38.46 2.12.45 1.79.48 1.45.54 1.17.54 1.06.5 1.1.56 1.19 1.25 1.23" filter="url(#a)"/><path d="m61.06-71.33-1.3-.14-2.21.47-1.63-.03-1.14-.43-1.04-.56-1.12-.54-1.27-.45-1.43-.26-1.56-.02-1.63.18-1.58.22-1.43.08-1.21-.17-1.05-.33-1.03-.29-1.15-.03-1.35.31-1.52.53-1.59.54-1.59.4-1.44.12-.72.02 13.78 19.32-.42-.79-.57-1.02-.46-.99-.44-.91-.47-.89-.53-.93-.59-.99-.63-1.01-.67-.97-.68-.9-.69-.86-.66-.84-.61-.86-.58-.89-.58-.89-.6-.87-.65-.86-.72-.87-.8-.89-.93-.89-.98-.81-.52-.39.57.3 1.01.73.94.88.81.89.76.83.74.71.74.65.73.63.72.67.69.76.68.84.68.91.7.93.72.92.72.92.68.88.62.86.56.85.54.88.58.96.67 1.09.82 1.28 1.34 1.63L29.1-73.27l1.18.04 1.09-.07 1.38-.49 1.54-.59 1.51-.39 1.45-.26 1.5-.42 1.71-.84 1.89-1.21 1.87-1.18 1.69-.76 1.55-.41 1.71-.49 2.01-.82 1.93-.54 2.22.1M29.1-73.27l.31-2.76-.16-2.14-.4-1.78-.87-.96-1.17-.4-1.11-.39-.83-.74-.57-1.09-.46-1.23-.54-1.22-.72-1.18-.93-1.27-1.1-1.49-1.17-1.77-1.03-1.99-.72-2.7-4.77-8.14.21 1 1.04.32 1.13 1.33.98 2.39.88 2.88.92 2.76.99 2.38 1.01 2.06.94 1.93.78 1.89.63 1.8.5 1.57.46 1.29.51 1.06.68.96.95.88 1.21.63 1.03.45-.75 2.17" filter="url(#a)"/><path d="m26.96-74.77 3.18-3.9.7 1.2.41 1.62.72.91 1.17.07 1.59-.65 1.9-1.14 2.03-1.37 2.03-1.39 1.95-1.27 1.82-1.04 1.65-.71 1.4-.24 1.07.39 1.04.91 2.37.27-41.82-1.57.22.34.82.33 1.04.35 1.07.39 1.08.41 1.11.44 1.16.48 1.17.51 1.12.51 1.03.49.9.41.77.32.66.27.65.28.77.39 1.06.6 1.4.84 1.51 1.27-15.66-18.68 1.89.64 1.07 1.41 1.07.89 1.22.45 1.31.4 1.27.7 1.09 1.18.82 1.69.54 2 .35 1.95.33 1.44.51.58.87-.16 1.19.19.42 4.06-1.57-.59 1.42.49 1.05.4.88.23.85.22.85.31.81.47.81.59.85.64.91.63.98.56 1.01.49 1.01.43.98.39.92.39.88.4.87.39.89.4.96.6 1.39 1.18-20.8-10.59 2.16.69 2.2-1.1 2.31-2.59 2.01-2.42 1.48-1.17 1.08-.01.98.4 1.15.17 1.39-.24 1.5-.32 1.43-.01 1.29.36 1.35.27 1.63-.45 1.91-1.16 1.82-.7 2.17.94" filter="url(#a)"/><path d="m23.13-76.61-.91-.09-.84.07-.93-.04-1.04-.26-1.13-.4-1.19-.38-1.19-.3-1.16-.21-1.11-.13-1.05-.09-.98-.06-.93-.03h-.88l-.86.03-.88.1-.91.18-.91.31-.89.43-.83.52-.76.55-.67.48-.58.35-.8.17-1.72-.16m22.01-1.61-.24-.83-.77-.48-.97-.67-1.12-.68-1.22-.52-1.23-.36-1.19-.28-1.13-.29-1.05-.34-.97-.4-.9-.42-.84-.45-.83-.46-.86-.47-.94-.44-.96-.37-.91-.27-.88-.22-1.19-.25-2.31-.17 18.37 7.61.91-.03.81.05.8-.31.97-.75 1.21-1 1.43-1.03 1.54-.96 1.57-.9 1.55-.85 1.49-.79 1.47-.73 1.46-.65 1.46-.52 1.47-.36 1.46-.13 1.43.13 1.35.38 1.23.57 1.12.62 1.14.4 1.6-.2 2.83-.21" filter="url(#a)"/><path d="m16.09-79.3 1.83 1.87 1.04 1.37.43 2.13.21 2.24.28 1.56.51.75.71.25.86.14.92.25.91.39.85.46.77.52.65.69.46 1.04.29 1.45.17 1.78.19 1.84.3 1.72.24 1.62-.26 1.49M16.09-79.3l2.61-1.34 1.64-.7 1.3-.73.97-.32.74.16.74.19 1.01-.26 1.38-.86 1.68-1.28 1.78-1.39 1.71-1.23 1.55-.95 1.42-.69 1.36-.49 1.3-.37 1.11-.34.33.06 3.38.35-2.61.79-1.91 1.38-1.56.95-1.26.23-1.05-.32-.97-.58-1.05-.53-1.2-.27-1.36.14-1.45.63-1.47 1.16-1.43 1.58-1.36 1.71-1.29 1.46-1.23.92-1.22.28-1.27-.19-1.32-.29-1.31.13-1.16.35M-5.73-69.94l.14-1.37.28-1.04.48-.84.72-.71.93-.58 1.06-.42 1.11-.31 1.07-.24.98-.21.87-.18.78-.15.74-.17.75-.3.8-.56.9-.88 1-1.07 1.04-1.01.96-.67.72-.25.46-.01.44.09m-15.91-6.99 1.5.65 1.56.77 1.43.71 1.25.64 1.07.53.9.36.78.21.74.12.74.14.77.26.84.42.93.52 1.01.53.96.43.64.29.12.19.15-.11-.73-.45-1.08-.92-1.08-.77-.95-.43-.84-.24-.77-.24-.74-.32-.74-.42-.79-.47-.93-.47-1.1-.48-1.28-.54-1.41-.64-1.46-.59-1.32-.37-.99-.5" filter="url(#a)"/><path d="m9.58-81.34.19.95.31 1.3.6 1.19.78 1.12.85 1.09.91.93 1 .65 1.09.39 1.1.35.99.6.78 1.08.5 1.57.27 1.82.16 1.7.2 1.28.41.87.77.83.99 1.39L4.72-81.89l1.52.41 1.3.47.99.67.73.96.63 1.17.65 1.21.73 1.11.84.93.91.78.97.67 1.02.6 1.04.59.99.66.87.81.69.96.5 1.05.34.94.3.6.45.27 1 1.2L5.73-81.9l-.08.01.9-.21 1.16-.55 1.15-.96 1.09-1.35 1.09-1.54 1.14-1.4 1.18-1 1.21-.51 1.24-.1 1.3.13 1.36.13 1.44-.02 1.46-.2 1.41-.35 1.29-.42 1.12-.44.97-.41.86-.3h.94l1.42.2 2.45-1.02" filter="url(#a)"/><path d="m4.62-81.94.59-.21.6-.7 1.02-1.61 1.27-2.25 1.27-2.23 1.16-1.86 1.13-1.6 1.21-1.66 1.37-1.86 1.52-2 1.61-1.91 1.68-1.62 1.74-1.15 1.8-.56 1.85-.11 1.8-.29 1.55-1.04 4.76 17.62-2.02-.79-1.93-.04-1.49.23-1.12.3-.96.36-.99.43-1.11.43-1.22.3-1.3.08-1.32-.18-1.29-.37-1.25-.4-1.23-.23-1.19.09-1.18.47-1.12.74-1.06.84-1.01.75-1 .55-1.03.4-1.05.35-.89.36-.58.29-.59.08" filter="url(#a)"/><path d="m25.56-96.2-1.85 2.71-1.85 1.18-1.77.62-1.67.8-1.58 1.1-1.47 1.15-1.36 1-1.22.79-1.09.65-1 .52-.94.35-.96.2-1.01.16-1.02.38-.98.77-.93 1.01-1.21.74-2.23.19" filter="url(#a)"/><path d="m1.42-81.88 2.33-1.81 1.31-2.55.98-1.53.98-.32 1.06.08 1.05-.02 1.01-.18.99-.27 1.03-.36 1.14-.56 1.31-.88 1.47-1.23 1.62-1.47 1.74-1.5 1.79-1.3 1.78-1.01 1.72-.83 1.65-.99 1.62-1.55 1.7-2.27 1.98-2.5M18.99-66.64l-.14-.99-.57-.79-.83-.55-1.01-.45-1.06-.54-1.01-.8-.9-1.16-.81-1.46-.74-1.58-.71-1.5-.69-1.28-.7-.99-.74-.71-.81-.52-.9-.4-.92-.36-.86-.32-.83-.27-1.14-.27-2.2-.3m1.31-.1.33-.07.32-.36.67-.55.82-.45.88-.27.94-.17.98-.18.99-.23.97-.31.96-.34.97-.32 1.02-.24 1.09-.16 1.18-.14 1.29-.24 1.41-.4 1.52-.46 1.55-.29 1.45.01 1.27.22 1.3.18" filter="url(#a)"/><path d="m2.73-81.98.32.22.26.58.59.57.76.28.85.02.9-.04.91.08.89.28.83.44.81.5.83.46.87.37.94.34.98.39 1 .54 1.03.75 1.01.93 1 1.04.93 1.02.85.85.74.56.68.29.8.28" filter="url(#a)"/></g><g fill="none" stroke="#000"><circle cx="9.83" cy="20.924" r="1.046" filter="url(#a)"/><circle cx="9.242" cy="18.144" r="2.642" filter="url(#a)"/><circle cx="8.282" cy="18.244" r="1.372" filter="url(#a)"/><circle cx="8.95" cy="18.224" r="2.654" filter="url(#a)"/><circle cx="7.774" cy="18.332" r="1.624" filter="url(#a)"/><circle cx="8.934" cy="21.208" r="1.324" filter="url(#a)"/><circle cx="8.426" cy="17.676" r="2.416" filter="url(#a)"/><circle cx="8.438" cy="18.72" r="1.858" filter="url(#a)"/><circle cx="11.326" cy="18.948" r="2.552" filter="url(#a)"/><circle cx="8.022" cy="19.416" r="2.416" filter="url(#a)"/><circle cx="-11.19" cy="19.966" r="1.24" filter="url(#a)"/><circle cx="-8.814" cy="18.082" r="2.688" filter="url(#a)"/><circle cx="-11.126" cy="20.73" r="2.286" filter="url(#a)"/><circle cx="-8.938" cy="19.558" r="1.388" filter="url(#a)"/><circle cx="-8.402" cy="19.158" r="2.352" filter="url(#a)"/><circle cx="-9.05" cy="19.706" r="2.002" filter="url(#a)"/><circle cx="-11.482" cy="17.41" r="2.826" filter="url(#a)"/><circle cx="-9.514" cy="17.806" r="1.288" filter="url(#a)"/><circle cx="-9.19" cy="20.23" r="1.466" filter="url(#a)"/><circle cx="-9.374" cy="20.366" r="1.658" filter="url(#a)"/></g><path fill="#CC7D66" stroke="#000" stroke-linejoin="round" stroke-width="3" d="m-49.15 28.64.21.31.24.33.26.32.3.34.32.34.35.34.38.35.41.35.43.36.46.36.49.36.51.37.54.37.56.38.58.37.61.38.64.38.65.38.68.38.7.38.72.39.74.38.77.38.78.38.8.38.83.38.84.38.86.38.88.37.89.38.92.37.93.36.95.37.96.36.98.35.99.35 1.01.35 1.03.34 1.03.34 1.05.33 1.07.32 1.07.32 1.09.31 1.1.31 1.11.3 1.13.29 1.13.28 1.14.28 1.15.26 1.17.26 1.17.25 1.18.24 1.18.23 1.2.22 1.2.21 1.21.2 1.21.19 1.22.17 1.22.17 1.23.15 1.24.15 1.24.13 1.24.11 1.24.1 1.25.09 1.25.08 1.25.06 1.26.05 1.25.03 1.26.02 1.25.01 1.26-.02 1.25-.03 1.26-.04 1.25-.06 1.25-.08 1.25-.1 1.24-.11 1.24-.13 1.24-.15 1.23-.17 1.23-.18 1.23-.21 1.22-.22 1.21-.24 1.2-.27 1.2-.28 1.2-.31 1.18-.32 1.18-.35 1.17-.37 1.16-.39 1.15-.41 1.14-.44 1.13-.46 1.12-.48 1.11-.5 1.1-.53 1.09-.55 1.07-.58-1.07.58-1.09.55-1.1.53-1.11.5-1.12.48-1.13.46-1.14.44-1.15.41-1.16.39-1.17.37-1.18.35-1.18.32-1.2.31-1.2.28-1.2.27-1.21.24-1.22.22-1.23.21-1.23.18-1.23.17-1.24.15-1.24.13-1.24.11-1.25.1-1.25.08-1.25.06-1.26.04-1.25.03-1.26.02-1.25-.01-1.26-.02-1.25-.03-1.26-.05-1.25-.06-1.25-.08-1.25-.09-1.24-.1-1.24-.11-1.24-.13-1.24-.15-1.23-.15-1.22-.17-1.22-.17-1.21-.19-1.21-.2-1.2-.21-1.2-.22-1.18-.23-1.18-.24-1.17-.25-1.17-.26-1.15-.26-1.14-.28-1.13-.28-1.13-.29-1.11-.3-1.1-.31-1.09-.31-1.07-.32-1.07-.32-1.05-.33-1.03-.34-1.03-.34-1.01-.35-.99-.35-.98-.35-.96-.36-.95-.37-.93-.36-.92-.37-.89-.38-.88-.37-.86-.38-.84-.38-.83-.38-.8-.38-.78-.38-.77-.38-.74-.38-.72-.39-.7-.38-.68-.38-.65-.38-.64-.38-.61-.38-.58-.37-.56-.38-.54-.37-.51-.37-.49-.36-.46-.36-.43-.36-.41-.35-.38-.35-.35-.34-.32-.34-.3-.34-.26-.32-.24-.33" filter="url(#a)"/></svg>