<svg xmlns="http://www.w3.org/2000/svg" width="500" height="500" viewBox="-100 -100 200 200"><defs><clipPath id="c"><path d="m27.2-2.84-.19-.09-.21-.09-.25-.1-.26-.09L26-3.3l-.31-.09-.33-.1-.36-.09-.38-.09-.4-.1-.42-.09-.45-.1-.46-.1-.49-.09-.5-.1-.51-.09-.53-.09-.57-.1-.59-.1-.63-.1-.65-.11-.69-.11-.71-.1-.73-.11-.77-.11-.79-.11-.81-.11-.83-.11-.86-.11-.87-.1-.89-.1-.9-.1-.92-.09-.94-.09-.94-.08-.95-.08-.96-.07-.97-.06-.96-.06-.97-.04-.97-.04-.97-.03-.97-.03-.95-.01-.96-.01-.94.01-.93.02-.92.02-.91.03-.89.05-.87.05-.86.07-.84.07-.82.08-.79.1-.78.1-.74.11-.73.12-.7.13-.68.14-.64.14-.63.15-.59.16-.57.16-.54.17-.51.18-.49.18-.46.19-.44.2-.41.2-.39.21-.35.22-.34.22-.3.23-.28.23-.25.24-.22.24-.2.25-.17.26-6.25 2.19.45.2.47.2.48.2.5.21.52.2.52.2.55.21.55.2.57.21.59.2.59.21.61.2.63.2.63.2.65.19.67.2.68.2.69.19.71.19.73.19.74.19.75.18.76.17.77.17.79.16.8.16.8.15.81.14.83.13.83.12.83.11.84.11.85.09.85.07.86.07.85.06.86.04.86.03.86.01.87.01.86-.01.85-.03.86-.04.85-.05.85-.06.85-.08.84-.1.84-.1.83-.12.82-.14.82-.14.8-.16.8-.17.8-.18.78-.19.77-.2.76-.21.75-.22.74-.23.73-.23.72-.24.7-.25.7-.25.67-.26.6-.19.58-.2.57-.2.56-.2.55-.21.53-.2.52-.21.5-.2.49-.2.47-.2.45-.2.43-.2.42-.19.4-.19.37-.18"/></clipPath><clipPath id="b"><path d="m-24.28-2.22.1-.15.12-.15.16-.15.18-.15.21-.15.23-.14.27-.15.29-.15.32-.14.34-.15.37-.15.39-.15.42-.14.44-.15.46-.15.46-.13.48-.14.53-.15.55-.15.59-.15.63-.16.65-.16.69-.16.72-.16.75-.17.77-.16.8-.17.83-.16.84-.16.87-.15.88-.15.91-.15.91-.14.93-.14.94-.12.95-.12.96-.11.96-.1.96-.08.95-.08.96-.07.95-.05.95-.04.93-.03.93-.01h.91l.89.01.88.03.85.04.84.05.81.07.79.08.76.1.74.11.7.12.68.14.64.15.61.16.58.17.54.19.51.19.48.21.43.21.41.22.36.23.33.24.3.25.26.26.23.26.19.28.15.29.11.29.08.3.05.31v.32l-.03.32-.07.33-.1.34-.14.34L27.79.32l-.53.24-.56.24-.56.25-.58.24-.6.24-.61.25-.62.24-.63.24-.64.25-.66.24-.66.24-.67.24-.68.24-.69.24-.7.24-.71.23-.73.24-.73.23-.75.23-.75.23-.75.22-.76.22-.77.21-.77.21-.77.2-.77.2-.77.19-.76.18-.77.16-.76.16-.76.15-.75.14-.75.13-.74.11-.74.1-.73.09-.72.07-.72.06-.7.05-.71.03-.69.02h-.69l-.67-.02-.68-.03-.66-.05-.66-.06-.66-.08-.65-.1-.64-.11-.64-.13-.64-.14-.64-.16-.63-.17-.63-.19-.63-.2-.63-.22-.63-.23-.63-.24-.63-.25-.63-.27-.64-.27-.63-.28-.64-.29-.64-.3-.51-.22-.49-.22-.5-.23-.49-.23-.48-.23-.47-.24-.47-.23-.45-.24-.45-.23-.43-.24-.43-.23-.41-.23-.39-.23-.38-.22-.37-.22"/></clipPath><filter id="a"><feTurbulence baseFrequency=".05" numOctaves="3" result="noise" type="noise"/><feDisplacementMap in="SourceGraphic" in2="noise" scale="2"/></filter></defs><rect width="100%" height="100%" x="-100" y="-100" fill="#DBA6F2"/><path fill="#59DF20" stroke="#000" stroke-linejoin="round" stroke-width="1.667" d="m73.14.23.14 1.17-.26 1.16.09 1.47-.26 1.86.17.34L73 7.71l-.25 3.15-.17-.29.02.97-.81 3.05.13.05.01.91-.32 1.96-.36 2.18-.21 1.29-.57 1.73.4-1.18-.38 1.3-.47 1.59-.64 2.75.18-.3-1.01 2.78-.56 2.06.49-1.11-.58 1.8-.65 1.37-1.08 2.76-.19-.08-.42 1.29.3-.46-1.63 3.34-.14.62L62.96 43l-.14.41-1.44 2.7.04-.09-.32.95-.77 1.09-1.49 2.91.01-.42v.54l-.9 1-.79 1.33-1.79 2.06.24.11-1.16 1.48-.21.51-1.22 1.58-1.11 1.27-.16-.03-1.12 1.33.28.04-1.93 2.01-.53.54-1.24.98-.62.33-.47.78-.99.59-.46.96-1.37.81-.28.37-2.24 1.59.51.01-2.09 1.57-.94.56-.61.31-.3.16-1.92 1.35-.98.72-1.87 1.2-.96.32-.55.39-.51.31-.89.66.18-.32-1.79.99-1.7.93-2.23.83-.5.45-1.82.28-.37.14-2.05 1-.05.07.81-.49-4.41 1.44.39-.14-1.44.36-1.63.48-.78.13-.82-.07-1.15.4.18-.18-2.02.41-2.88.13-.83.36-.63.07-.32-.29-2.65.08v-.04l-1.39.36-1.04-.3-2.23.1-.22.11-1.94-.36-.17.15-1.33-.3-2.07-.15-.38-.29-.15.13-2.2-.29-1.78-.52 1.05.44-1.62-.75-2.49-.34-1.3-.26-1.41-.7.59.31-.69-.25-.88-.44-1.35-.31-.59-.32-1.26-.48-2.26-.69-.76-.8-2.25-.71.39-.12-1.82-.79-.68-.38.53.22-2.56-1.33-1.93-.86.59-.04-1.07-.76-.92-.36-2.65-1.66.37-.25-2.7-1.77 1.24.96-2.96-2.19-.11-.37.36-.01-3.16-2.19.8-.02-1.66-1.32-.46-.49-1.17-.65-.96-1.04-1.49-1.74-.58-.91-.18-.35-1.05-.89-1.9-2.3-.04-.46.02-.33-.5-.22-1.21-1.95-1.25-1.12.5-.19-.55-.24-1.26-2-.36-.57-.67-1.5-.79-1.05-1.07-1.61-.43-1.01-1.06-2.06.33.26-.88-1.88-.57-.71-.73-1.84-1.21-2.47.28.58-.44-.76-.34-2.38-.91-1.1h.11l-.74-2.55-.78-1.87.27.75-.49-1.4-.83-2.75.29-.68-.41-.77-.07-.81-.62-2.16.15.16-.84-2.94-.03-2.21-.34-.14.12-.53-.51-3.83.05-.76-.13-.93.03.65-.44-3.6-.01-1.84.18 1.21-.16-1.94-.05-3.06-.12-2.2.2-.47-.31-.2.1-.06.34-1.92-.11.03.3-2.88.25-2.49.19-2.2-.07-.33.17-1.97.37-2.77.05-.72.01.21.31-.8.41-1.41.49-2.45-.16.83.25-1.39.31-1.63.16-.56.68-2.13.29-1.04.9-3.42-.03.79.6-2.33.22-.79.58-1.23-.06.38.74-1.64 1.13-2.49.26-1.76 1.01-1.75-.62 1.05 1.63-2.7-.31.41 1.77-2.98-.32-.25 1.03-1.29.25-.29.83-1.38 1.82-2.87-.8 1.67.22-1.12 2.67-3.45-.05-.41 1.18-1.65-.11.66 1.76-2.12.22-.73.61-.86.96-.65 1.35-1.51.07-.02.33-.76 2.6-2.18H-47l1.02-.74.73-.71 2.18-1.92-.21.38 1.12-.72 2.5-2.5-.76.8 1.05-.93.46-.67.62-.26.93-.48 2.69-2.05.39-.08.58-.48 3.1-1.63-.82.35 1-.38 1.01-.78 1.57-.74.04.26 2.67-1.04.56-.43.38-.25 1.68-.54-.07-.02 2.28-1.05 1.8-.43-.66.4 3.13-1.02.38-.04.93-.33 1.52-.19-.71.21 3.79-.8.78-.07 1.63-.35-.66.02 2.93-.15-.74-.3 1.37-.11 2.7.16-1.06-.25 2.03.24 2.67-.22.3.18 1.02-.03.13-.02 2.28.04-.32.21.7-.2 2.31.32 1.75.42.59-.13.74.08 1.57.56.97.21 1.15.27 2.11.53.92.02.74.47.81.09 2.8 1.19-.09.01-1.07-.73 1.98.96 1.48.36.68.5.61.35 1.24.3 2.91 1.62.37.04 1.43.75 2.12 1.4-.32-.34 1.1.69.43.62.18.12 2.02 1.02 1.74 1.23.83.81 1.89 1.52.6.16.81.97-.03-.14.57.59 1.02 1.02.63.46 1.92 1.79-1.27-1.4 1.37 1.36 2.28 2.27.26.41.51.56 1.24 1.23.22.38 2.53 3.1-.68-.63 1.57 1.91.51.9.68.65.38.97 1.06 1.18-.01.51.62.33 2.15 3.67-.63-1.07 1.16 2.46.8.72.6.77.05.88 1.06 1.94-.47-.81 2.22 4.19-.28-.61.58 1.11.93 3.65.13-.24-.27-.39.99 1.86.26 1.23.98 2.72.29 1.65-.28-.88.65 2.41.27-.22.5 1.6.61 2.83.67 2.42-.16-.64.24 1.9.32 2.38-.36-2.14.43 3.35.34 1.64.26 1.46.29 3.22.26.74-.06-.91-.03 1.46.23.56-.03 2-.02 1.45-.13 2.05.17 1.43.14 1.17" filter="url(#a)"/><path fill="#fff" d="m-24.28-2.22.1-.15.12-.15.16-.15.18-.15.21-.15.23-.14.27-.15.29-.15.32-.14.34-.15.37-.15.39-.15.42-.14.44-.15.46-.15.46-.13.48-.14.53-.15.55-.15.59-.15.63-.16.65-.16.69-.16.72-.16.75-.17.77-.16.8-.17.83-.16.84-.16.87-.15.88-.15.91-.15.91-.14.93-.14.94-.12.95-.12.96-.11.96-.1.96-.08.95-.08.96-.07.95-.05.95-.04.93-.03.93-.01h.91l.89.01.88.03.85.04.84.05.81.07.79.08.76.1.74.11.7.12.68.14.64.15.61.16.58.17.54.19.51.19.48.21.43.21.41.22.36.23.33.24.3.25.26.26.23.26.19.28.15.29.11.29.08.3.05.31v.32l-.03.32-.07.33-.1.34-.14.34L27.79.32l-.53.24-.56.24-.56.25-.58.24-.6.24-.61.25-.62.24-.63.24-.64.25-.66.24-.66.24-.67.24-.68.24-.69.24-.7.24-.71.23-.73.24-.73.23-.75.23-.75.23-.75.22-.76.22-.77.21-.77.21-.77.2-.77.2-.77.19-.76.18-.77.16-.76.16-.76.15-.75.14-.75.13-.74.11-.74.1-.73.09-.72.07-.72.06-.7.05-.71.03-.69.02h-.69l-.67-.02-.68-.03-.66-.05-.66-.06-.66-.08-.65-.1-.64-.11-.64-.13-.64-.14-.64-.16-.63-.17-.63-.19-.63-.2-.63-.22-.63-.23-.63-.24-.63-.25-.63-.27-.64-.27-.63-.28-.64-.29-.64-.3-.51-.22-.49-.22-.5-.23-.49-.23-.48-.23-.47-.24-.47-.23-.45-.24-.45-.23-.43-.24-.43-.23-.41-.23-.39-.23-.38-.22-.37-.22" filter="url(#a)" transform="translate(36.95 -29.01)"/><path fill="#fff" d="m27.2-2.84-.19-.09-.21-.09-.25-.1-.26-.09L26-3.3l-.31-.09-.33-.1-.36-.09-.38-.09-.4-.1-.42-.09-.45-.1-.46-.1-.49-.09-.5-.1-.51-.09-.53-.09-.57-.1-.59-.1-.63-.1-.65-.11-.69-.11-.71-.1-.73-.11-.77-.11-.79-.11-.81-.11-.83-.11-.86-.11-.87-.1-.89-.1-.9-.1-.92-.09-.94-.09-.94-.08-.95-.08-.96-.07-.97-.06-.96-.06-.97-.04-.97-.04-.97-.03-.97-.03-.95-.01-.96-.01-.94.01-.93.02-.92.02-.91.03-.89.05-.87.05-.86.07-.84.07-.82.08-.79.1-.78.1-.74.11-.73.12-.7.13-.68.14-.64.14-.63.15-.59.16-.57.16-.54.17-.51.18-.49.18-.46.19-.44.2-.41.2-.39.21-.35.22-.34.22-.3.23-.28.23-.25.24-.22.24-.2.25-.17.26-6.25 2.19.45.2.47.2.48.2.5.21.52.2.52.2.55.21.55.2.57.21.59.2.59.21.61.2.63.2.63.2.65.19.67.2.68.2.69.19.71.19.73.19.74.19.75.18.76.17.77.17.79.16.8.16.8.15.81.14.83.13.83.12.83.11.84.11.85.09.85.07.86.07.85.06.86.04.86.03.86.01.87.01.86-.01.85-.03.86-.04.85-.05.85-.06.85-.08.84-.1.84-.1.83-.12.82-.14.82-.14.8-.16.8-.17.8-.18.78-.19.77-.2.76-.21.75-.22.74-.23.73-.23.72-.24.7-.25.7-.25.67-.26.6-.19.58-.2.57-.2.56-.2.55-.21.53-.2.52-.21.5-.2.49-.2.47-.2.45-.2.43-.2.42-.19.4-.19.37-.18" filter="url(#a)" transform="translate(-39.5 -27.79)"/><g fill="none" stroke="#000" transform="translate(36.95 -29.01)"><path stroke-linejoin="round" stroke-width="1.667" d="m-23.63-.55-.2-.19-.17-.18-.14-.18-.11-.17-.07-.17-.05-.16-.02-.16.01-.16.03-.15.07-.15.1-.15.12-.15.16-.15.18-.15.21-.15.23-.14.27-.15.29-.15.32-.14.34-.15.37-.15.39-.15.42-.14.44-.15.46-.15.46-.13.48-.14.53-.15.55-.15.59-.15.63-.16.65-.16.69-.16.72-.16.75-.17.77-.16.8-.17.83-.16.84-.16.87-.15.88-.15.91-.15.91-.14.93-.14.94-.12.95-.12.96-.11.96-.1.96-.08.95-.08.96-.07.95-.05.95-.04.93-.03.93-.01h.91l.89.01.88.03.85.04.84.05.81.07.79.08.76.1.74.11.7.12.68.14.64.15.61.16.58.17.54.19.51.19.48.21.43.21.41.22.36.23.33.24.3.25.26.26.23.26.19.28.15.29.11.29.08.3.05.31v.32l-.03.32-.07.33-.1.34-.14.34-.18.36-.22.35-.25.36-.29.37-.32.37-.35.38-.39.38-.42.38-.46.39-.48.4" filter="url(#a)"/><path stroke-linejoin="round" stroke-width="2.222" d="m-24.8-.91.1.11.13.13.17.14.2.16.22.16.26.18.28.19.3.2.33.2.34.22.37.22.38.22.39.23.41.23.43.23.43.24.45.23.45.24.47.23.47.24.48.23.49.23.5.23.49.22.51.22.64.3.64.29.63.28.64.27.63.27.63.25.63.24.63.23.63.22.63.2.63.19.63.17.64.16.64.14.64.13.64.11.65.1.66.08.66.06.66.05.68.03.67.02h.69l.69-.02.71-.03.7-.05.72-.06.72-.07.73-.09.74-.1.74-.11.75-.13.75-.14.76-.15.76-.16.77-.16.76-.18.77-.19.77-.2.77-.2.77-.21.77-.21.76-.22.75-.22.75-.23.75-.23.73-.23.73-.24.71-.23.7-.24.69-.24.68-.24.67-.24.66-.24.66-.24.64-.25.63-.24.62-.24.61-.25.6-.24.58-.24.56-.25.56-.24.53-.24.52-.24.51-.23.49-.24.48-.23.46-.24.44-.23.42-.22.41-.23.4-.22.38-.23" filter="url(#a)"/><circle cx=".947" cy="-2.342" r="3.812" clip-path="url(#b)" filter="url(#a)"/><circle cx="-.343" cy="-.757" r="3.058" clip-path="url(#b)" filter="url(#a)"/><circle cx="1.557" cy="-2.107" r="3.312" clip-path="url(#b)" filter="url(#a)"/><circle cx="-.813" cy=".173" r="4.58" clip-path="url(#b)" filter="url(#a)"/><circle cx="1.587" cy="-2.407" r="4.548" clip-path="url(#b)" filter="url(#a)"/><circle cx="-.548" cy="-.587" r="4.722" clip-path="url(#b)" filter="url(#a)"/><circle cx="1.352" cy="-3.397" r="3.604" clip-path="url(#b)" filter="url(#a)"/><circle cx="-1.678" cy="-1.557" r="4.218" clip-path="url(#b)" filter="url(#a)"/><circle cx="-3.173" cy=".273" r="4.192" clip-path="url(#b)" filter="url(#a)"/><circle cx="1.052" cy="-3.362" r="4.786" clip-path="url(#b)" filter="url(#a)"/></g><g fill="none" stroke="#000" transform="translate(-39.5 -27.79)"><path stroke-linejoin="round" stroke-width="2.222" d="m27.79-1.86.05-.11.03-.1v-.1l-.02-.1-.05-.1-.07-.1-.09-.09-.12-.09-.15-.1-.17-.09-.19-.09-.21-.09-.25-.1-.26-.09L26-3.3l-.31-.09-.33-.1-.36-.09-.38-.09-.4-.1-.42-.09-.45-.1-.46-.1-.49-.09-.5-.1-.51-.09-.53-.09-.57-.1-.59-.1-.63-.1-.65-.11-.69-.11-.71-.1-.73-.11-.77-.11-.79-.11-.81-.11-.83-.11-.86-.11-.87-.1-.89-.1-.9-.1-.92-.09-.94-.09-.94-.08-.95-.08-.96-.07-.97-.06-.96-.06-.97-.04-.97-.04-.97-.03-.97-.03-.95-.01-.96-.01-.94.01-.93.02-.92.02-.91.03-.89.05-.87.05-.86.07-.84.07-.82.08-.79.1-.78.1-.74.11-.73.12-.7.13-.68.14-.64.14-.63.15-.59.16-.57.16-.54.17-.51.18-.49.18-.46.19-.44.2-.41.2-.39.21-.35.22-.34.22-.3.23-.28.23-.25.24-.22.24-.2.25-.17.26-.14.25-.12.27-.09.26-.06.28-.04.27-.01.28.01.28.03.29.06.29.08.29" filter="url(#a)"/><path stroke-linejoin="round" stroke-width="2.222" d="m27.73-1.44-.11.09-.14.11-.17.12-.21.12-.23.14-.25.15-.28.15-.31.17-.33.17-.36.18-.37.18-.4.19-.42.19-.43.2-.45.2-.47.2-.49.2-.5.2-.52.21-.53.2-.55.21-.56.2-.57.2-.58.2-.6.19-.67.26-.7.25-.7.25-.72.24-.73.23-.74.23-.75.22-.76.21-.77.2-.78.19-.8.18-.8.17-.8.16-.82.14-.82.14-.83.12-.84.1-.84.1-.85.08-.85.06-.85.05-.86.04-.85.03-.86.01-.87-.01-.86-.01-.86-.03-.86-.04-.85-.06-.86-.07-.85-.07-.85-.09-.84-.11-.83-.11-.83-.12-.83-.13-.81-.14-.8-.15-.8-.16-.79-.16-.77-.17-.76-.17-.75-.18-.74-.19-.73-.19-.71-.19-.69-.19-.68-.2-.67-.2-.65-.19-.63-.2-.63-.2-.61-.2-.59-.21-.59-.2-.57-.21-.55-.2-.55-.21-.52-.2-.52-.2-.5-.21-.48-.2-.47-.2-.45-.2-.44-.2-.43-.2-.41-.19-.39-.19-.38-.19-.36-.19-.35-.19-.34-.18-.32-.18-.31-.18" filter="url(#a)"/><circle cx=".6" cy="-1.342" r="4.614" clip-path="url(#c)" filter="url(#a)"/><circle cx="-.66" cy="-3.027" r="4.378" clip-path="url(#c)" filter="url(#a)"/><circle cx="3.405" cy="-2.987" r="3.336" clip-path="url(#c)" filter="url(#a)"/><circle cx="2.555" cy="-.947" r="3.446" clip-path="url(#c)" filter="url(#a)"/><circle cx="3.395" cy="-4.387" r="4.288" clip-path="url(#c)" filter="url(#a)"/><circle cx="2.245" cy="-2.687" r="4.384" clip-path="url(#c)" filter="url(#a)"/><circle cx="-.585" cy="-2.442" r="3.156" clip-path="url(#c)" filter="url(#a)"/><circle cx=".03" cy="-3.947" r="4.838" clip-path="url(#c)" filter="url(#a)"/><circle cx="2.11" cy="-4.172" r="3.092" clip-path="url(#c)" filter="url(#a)"/><circle cx="-.26" cy="-3.502" r="3.888" clip-path="url(#c)" filter="url(#a)"/></g><g fill="none" stroke="#133586" stroke-linejoin="round" stroke-width="2"><path d="m62.55-44.18.5 1.2.02.89-.37.79-.86.6-1.38.35-1.91.05-2.46-.25-2.98-.51-3.5-.72-4.03-.93-4.6-1.17-5.19-1.45-5.81-1.76-6.47-2.04-7.14-2.3-7.83-2.5-8.51-2.73-9.17-3.06-9.77-3.49-10.37-3.9m-10.09-5.02.64-.58 1.13-.69 1.53-.87 1.74-.98 1.79-.97 1.73-.92 1.63-.83 1.52-.76 1.38-.67 1.24-.6 1.07-.52.86-.42.57-.3.21-.15-.19.03-.56.19m76.69 23.11 1.15 1.46.74 1.01.56.8.45.69.35.59.28.53.18.43.06.3-.11.12-.3-.1-.51-.37-.74-.64-1-.93-1.28-1.25-1.62-1.61-2-2-2.44-2.45-2.86-2.89-3.21-3.3-3.38-3.69m-57.09-11.07 2.04-.63 1-.23.56-.02.31.13.11.28-.16.43-.55.61-1.03.83-1.57 1.08-2.1 1.34-2.64 1.61-3.18 1.92-3.75 2.25-4.34 2.55-4.98 2.87-5.72 3.21" filter="url(#a)"/><path d="m60.57-47.94-.23-.04-.08.71-.38.75-.82.64-1.28.57-1.74.51-2.18.46-2.67.39-3.17.28-3.71.15-4.26-.01-4.82-.18-5.37-.34-5.93-.45-6.49-.57-7.06-.68-7.66-.84-8.26-1.02-8.87-1.21-9.47-1.39-10.05-1.56-10.58-1.73m14.09-24.31 1.36-.59 1.97-.3 2.56-.11h3.05l3.48.1 3.87.21 4.26.32 4.65.42 5.02.51 5.33.61 5.58.71 5.81.83 5.97.93 6.02.98 5.87.93m8.66 3.2.2.13.52.48.64.6.62.55.51.48.39.39.28.34.14.27-.03.15h-.24l-.51-.19-.82-.42-1.19-.68-1.62-1-2.09-1.34-2.56-1.71-2.97-2.06-3.33-2.38-3.7-2.69m-55.08-.93 1.91-.79 1.28-.55 1.18-.46 1.27-.45 1.38-.45 1.46-.45 1.46-.43 1.42-.39 1.33-.35 1.22-.31 1.1-.27.98-.22.84-.19.67-.13.44-.09.13-.03-.2.04-.55.1-.84.16-1.1.23-1.43.31-2.01.48m63.11 17.93 1.21 1.47-.08.72-.91.42-1.64.28-2.4.16-3.25-.03-4.18-.27-5.17-.57-6.16-.87-7.18-1.18-8.22-1.48-9.34-1.74-10.53-2-11.64-2.31m46.64-8.04.74.47 1.11.56 1.42.71 1.53.78 1.5.79 1.37.75 1.17.68.95.57.77.48.61.4.49.32.4.28.28.2.09.09-.18-.09-.57-.32-1.03-.6-1.54-.91-2.08-1.2-2.66-1.49" filter="url(#a)"/><path d="m-42.16-69.5 1.73-1.36 1.52-.41 1.96-.14 2.58-.05h3.22l3.82.05 4.33.13 4.76.24 5.1.39 5.4.54 5.68.69 5.93.82 6.19.9 6.42.96 6.63.96 6.77.94 6.8.89 6.81.88" filter="url(#a)"/><path d="m43.01-69.2.31.63-.3.63-1.07.54-1.93.42-2.79.37-3.62.37-4.49.35-5.46.31-6.51.24-7.64.16-8.79.09-9.99.02-11.27-.08-12.6-.2m46.71-18.64 1.37.34 1.47.38 1.38.42 1.34.45 1.27.46 1.18.45 1.09.41 1.02.39.99.39.99.4.95.39.87.37.73.32.54.23.28.13-.03.01-.35-.14-.68-.28-1-.41-1.26-.54-1.38-.58-1.22-.52M-39.66-72l-.03.21.82-.35 1.34-.54 1.78-.66 2.14-.73 2.42-.77 2.58-.77 2.67-.73 2.72-.69 2.75-.65 2.79-.6 2.85-.58 2.92-.55 2.98-.53 3.01-.5 2.99-.47 2.92-.46 2.8-.46 2.64-.47 2.47-.45 2.22-.42 1.85-.41" filter="url(#a)"/><path d="m61.1-46.55.41.55-.25.35-.84.11-1.4-.16-1.97-.46-2.61-.83-3.29-1.24-4.07-1.7-4.88-2.24-5.76-2.79-6.66-3.36-7.54-3.87-8.37-4.37-9.18-4.91-9.99-5.57m8.28-8.46 1.5.1 1.11.16 1.34.23 1.54.29 1.62.33 1.62.36 1.6.4 1.58.41 1.57.43 1.52.42 1.41.39 1.26.35 1.05.28.8.21.55.14.3.05.08-.03-.11-.08-.26-.11-.37-.13-.47-.14-.81-.3m-36.13-2.08 1.29.01 1.87.21 2.53.39 2.93.59 3.16.82 3.4 1.03 3.67 1.23 3.96 1.4 4.24 1.57 4.51 1.7 4.71 1.81 4.86 1.88 4.94 1.9 4.92 1.87 4.79 1.79 4.66 1.75" filter="url(#a)"/><path d="m59.94-49.01.8 1.71.2.94-.31.63-.76.46-1.15.35-1.56.24-2 .1-2.48-.09-2.99-.3-3.52-.56-4.06-.83-4.6-1.06-5.16-1.27-5.74-1.45-6.35-1.63-6.99-1.86-7.62-2.14-8.21-2.45-8.74-2.76-9.19-3.08-9.57-3.51m16.86-16.44.57-.08 1.48-.27 1.38-.26 1.1-.2.85-.15.66-.1.47-.04.28.01.08.07-.18.14-.48.2-.87.27-1.34.35-1.89.44-2.45.54-2.99.67-3.49.76" filter="url(#a)"/><path d="m-7.71-85.02.55.08 1.66.25 2.21.46 2.7.67 3.13.87 3.5 1.04 3.8 1.18 4.03 1.28 4.15 1.36 4.19 1.43 4.26 1.52 4.33 1.61 4.34 1.65 4.26 1.58M16.83-83.19l.91.19 1.11.41 1.25.52 1.24.53 1.18.52 1.18.54 1.24.57 1.32.64 1.4.69 1.44.72 1.46.74 1.4.72 1.29.67 1.1.57.84.44.54.28.24.11-.01-.04-.19-.14-.3-.21-.39-.28-.58-.39-.95-.62" filter="url(#a)"/><path d="m-6.18-85.45 1.49-.04 1.29-.01 1.13-.01 1.09.01 1 .01.8.04.59.05.36.07.16.11-.01.14-.2.17-.39.22-.65.25-.95.29-1.3.34-1.68.4-2.06.44-2.45.49-2.84.52-3.25.55-3.72.6-4.4.71m57.14 5.21.65.38 1.01.64.85.66.48.51-.02.27-.58-.04-1.16-.34-1.73-.62-2.26-.88-2.78-1.1-3.35-1.36-4.06-1.66-4.93-2.02-5.82-2.34" filter="url(#a)"/><path d="m37.17-73.75 1.29 1.02.84.81.4.57-.12.3-.64.06-1.13-.13-1.58-.28-2.04-.43-2.53-.59-3.04-.77-3.61-.95-4.17-1.14-4.78-1.31-5.42-1.54-6.14-1.84-6.91-2.15m67.77 43.26h-.17l-.27.64-.66.5-1.17.08-1.67-.27-2.17-.52-2.69-.76-3.25-1.07-3.87-1.47-4.51-1.9-5.17-2.32-5.84-2.7-6.51-3.05-7.2-3.41-7.9-3.85-8.61-4.37-9.37-4.88-10.3-5.3" filter="url(#a)"/><path d="m42.23-70.03.48.59.24.34.18.33.07.31-.1.23-.35.11h-.62l-.91-.1-1.22-.21-1.58-.36-1.97-.53-2.37-.73-2.81-.94-3.29-1.18-3.84-1.44-4.47-1.73-5.12-2.06-5.72-2.38-6.24-2.7" filter="url(#a)"/><path d="m43.01-69.2.69.69.82.77.81.73.76.66.71.66.7.67.66.67.58.62.45.54.31.42.15.29-.05.12-.3-.1-.6-.37-.94-.69-1.29-1.01-1.64-1.32-1.92-1.61-2.13-1.84-2.28-2.06-2.39-2.23" filter="url(#a)"/><path d="m45.23-67.13.79.81-.09.29-.4.35-.83.33-1.43.17-2.1-.07-2.8-.28-3.51-.5-4.3-.73-5.14-1.01-6.05-1.31-6.99-1.62-7.93-1.95-8.84-2.26-9.71-2.61m43.94-.53.75.32 1.15.64 1.11.66.95.6.82.54.77.52.74.51.72.49.63.45.47.35.21.18-.13-.03-.53-.29-.98-.57-1.45-.83-1.91-1.11-2.39-1.35-2.78-1.59m-43.64-4.93.88-.21.75-.06.69.03.57.12.27.26-.13.43-.56.63-.96.83-1.37 1.06-1.76 1.29-2.16 1.54-2.61 1.79-3.08 2.07-3.61 2.35-4.19 2.64-4.82 2.91-5.44 3.17-5.96 3.44m39.8-25.47 1.08-.23.91-.15.97-.14.96-.12.91-.09.79-.05.63-.01.39.02.08.06-.33.11-.85.14-1.49.21-2.23.3-2.93.37" filter="url(#a)"/><path d="m-3.17-85.65 1.85.13 1.29.08.63.14.12.2-.27.28-.62.37-.97.48-1.35.62-1.79.76-2.32.93-2.94 1.1-3.6 1.26-4.26 1.42-4.85 1.54-5.4 1.62-5.91 1.59" filter="url(#a)"/><path d="m-8.37-85 1.94-.09 1.51.11 1.79.32 2.11.51 2.4.66 2.64.8 2.82.9 2.91 1 2.97 1.07 3 1.11 3.04 1.16 3.1 1.17 3.16 1.2 3.18 1.2 3.15 1.19 3.04 1.15 2.9 1.1 2.82 1.16 2.84 1.29" filter="url(#a)"/><path d="m59.94-49.01.86 1.68.4.87v.47l-.31.24-.59.02-.88-.19-1.22-.46-1.62-.79-2.06-1.16-2.53-1.6-3.04-2.06-3.53-2.53-4.02-2.96-4.51-3.36-5.05-3.8-5.69-4.32-6.43-4.92-7.21-5.5m-43.93 1.95 1-.49 1.06-.54 1.06-.48 1.03-.44.96-.39.84-.34.72-.28.59-.21.47-.13.32-.01.15.09-.05.22-.27.35-.52.49-.77.62-1.04.78-1.35.95-1.67 1.13-2.06 1.32-2.49 1.53-2.94 1.74-3.32 1.92-3.52 1.99" filter="url(#a)"/><path d="m38.91-72.52.66.88-.04.83-1 .65-2 .54-2.95.51-3.84.55-4.74.61-5.68.66-6.68.7-7.73.73-8.8.81-9.91.91-11.06.92-12.26.84m50.69-21.61 1.35.33 1.45.35 1.33.36 1.21.37 1.09.36.92.31.69.23.49.17.33.11.16.07h-.09l-.44-.12-.86-.27-1.33-.42-2-.62m45.74 40.52.23.48.59 1.19.48 1.1.31.9.15.65-.01.37-.15.1-.3-.13-.46-.36-.66-.66-.89-1.03-1.13-1.46-1.39-1.9-1.63-2.31-1.88-2.69-2.12-3.08-2.43-3.58-2.8-4.22-3.15-4.9" filter="url(#a)"/><path d="m10.29-84.84.98.23 1.28.36 1.4.39 1.47.41 1.45.4 1.37.39 1.24.37 1.08.34.88.28.69.22.52.17.37.12.25.09.13.07-.06.01-.29-.06-.63-.2-1.05-.34-1.5-.5-2.09-.66m25.26 13.69.22.15.57.53.74.67.75.68.73.65.7.65.67.65.63.63.54.6.44.52.29.41.13.28-.07.12-.33-.1-.6-.34-.9-.62-1.19-.87-1.44-1.13-1.65-1.35-1.84-1.56-2.07-1.78-2.43-2.1-3.01-2.56m-58.11-5.86 1.42-.38 1.73-.34 2.22-.29 2.57-.2 2.84-.12 3.04-.07 3.16-.03H6.01l3.33.01 3.18.01 2.97.04 2.91.14" filter="url(#a)"/><path d="M1.83-85.45h.72l.54.08.36.15.16.24-.04.34-.29.45-.64.56-1.06.67-1.52.8-1.98.91-2.43 1.03-2.91 1.15-3.44 1.27-4.06 1.42-4.75 1.59-5.46 1.77-6.2 1.94-7.02 2.19" filter="url(#a)"/><path d="m-38.91-72.8.94-.43 1.56-.75 1.88-.83 2.02-.79 2.11-.72 2.17-.65 2.25-.59 2.33-.57 2.44-.54 2.55-.52 2.64-.52 2.71-.49 2.72-.48 2.7-.47 2.63-.46 2.54-.45 2.42-.45 2.27-.43 2.07-.41 1.85-.4 1.64-.39 1.41-.4" filter="url(#a)"/></g><path fill="none" stroke="#000" stroke-linejoin="round" stroke-width="3" d="M-8.49 13.27Q10.45 8.535.98-5.264" filter="url(#a)"/><path fill="#84CC66" stroke="#000" stroke-linejoin="round" stroke-width="3" d="m43.41 63.32-.2 1.57.12-.32.01 1.39-.44.88.38-.66-.56 1.56.06-.31.02.19-.04.36-.14.52-.7 1.36-.53.68-.58.83.65-.79-1.72 2.23-.12.18.19-.44-1.18 1.37-.76.61-.45.44-.85.57.22.01-.1-.11-.01.02-1.97 1.33-.03.01-1.33.86-.54.25-.35.23-.76.34-1.43.63-.27.11.4-.18-2.16.84-.44.1-.02.01.09.01-2.87.83.29-.06.04-.05-1.49.39-.97.18-2.36.42.97-.16-.91.14-3.11.34 1.8-.16-.92.09-.59.05-3.19.15.4-.01-2.46-.01.52.01h.36l-3.66-.2-.93-.09.02-.01-.8-.07.5.07-2.17-.33.79.13-.76-.14-3.32-.69.82.18-2.31-.63-.53-.17.32.07-1.98-.69.39.17-1.87-.77.88.38-1.74-.71.02-.01.14.09-2.98-1.72-.45-.13-.35-.27.91.47-.48-.26-.96-.52-1.95-1.64-.08-.02-.32-.31.31.12-.45-.31-.98-1.21-.26-.17-.35-.64-1.03-1.29.7 1.09-.22-.5-.17-.34-.69-1.49-.53-1.18-.28-.7.22.14-.15-.53-.05-1.05-.22-.02.06-.54.02-.54.01.32-.02-1.22-.06.15.44-2.07-.23 1.16.63-1.89.19-.36-.09-.35.44-.85-.01.47.51-1.32v-.03l.33-.34 1.06-1.43.37-.18-.78.6 1.29-1.25.76-.75-.49.56 1.93-1.73-.24.26.09-.29 1.05-.69-.04-.01.81-.53 1.79-.99-.72.45 2.76-1.47-.93.52-.18-.01.84-.35 2.69-1.09-.24.08 1.38-.53 1.37-.41 1.15-.29.8-.21-1.04.26.15-.01 1.28-.34.94-.18.84-.17 3.48-.49-.98.1.11-.01 3.07-.28-.46.03 1.75-.09.5-.01 1.94-.01.86.03.54.03.68.03-.54-.03 2.36.18-1.39-.12 1.24.1 1.69.2 1.75.26 1.42.27 1.11.24.42.15-.23-.06.56.14.31.08 2.09.62-.01.02 1.12.45.86.29.81.3-.8-.28 1.2.51.75.33 1.81 1.03 1.1.63-.22-.11.29.27.86.53-.4-.24.65.41.96.7 1.31 1.3.02.17.91.92-.08.02-.19-.43.96 1.57.54.82-.33-.62.87 1.47.03.69-.22-.8.73 1.85-.07.36-.38-1.14.53 1.53.21.87-.17.54" filter="url(#a)"/></svg>