<svg xmlns="http://www.w3.org/2000/svg" width="500" height="500" viewBox="-100 -100 200 200"><defs><clipPath id="c"><path d="m24.6-10.41-.23-.31-.26-.3-.28-.3-.31-.29-.32-.29-.35-.29-.37-.28-.39-.28-.42-.27-.43-.27-.46-.26-.48-.26-.5-.24-.52-.24-.54-.24-.51-.3-.54-.3-.58-.28-.62-.27-.65-.26-.67-.25-.71-.23-.74-.22-.77-.2-.79-.18-.81-.17-.84-.15-.86-.14-.87-.12-.89-.1-.9-.08-.91-.07-.92-.04-.93-.03-.93-.01-.94.01-.93.03-.93.05-.93.06-.92.09-.92.1-.9.12-.9.15-.87.16-.87.18-.85.19-.83.22-.81.23-.79.26-.77.27-.74.28-.73.31-.7.32-.67.34-.66.35-.62.37-.6.39-.58.4-.55.42-.52.43-.5.45-.47.45-.46.48-.42.48-.41.49-.38.51-.36.53-.34.54-.32.55-.3.57-.27.58-.26.59-.23.61-.21.63-.19.64-.18.65-.15.66-.13.68-.12.69.45 2.59.26.69.28.69.29.69.31.69.32.68.35.68.36.67.37.67.4.66.41.65.43.64.45.62.46.62.48.6.5.59.52.58.53.57.56.56.57.54.6.52.61.5.64.48.65.45.67.43.69.39.71.37.72.33.74.29.76.26.77.23.79.18.79.14.81.11.82.06.83.02.84-.02.84-.06.85-.1.85-.15.86-.18.86-.23.85-.27.86-.3.85-.34.84-.38.84-.41.83-.44.81-.48.81-.5.79-.53.78-.56.76-.57.74-.6.73-.61.7-.63.68-.64.66-.65.63-.65.61-.66.58-.66.55-.66.53-.65.5-.64.47-.64.48-.57.46-.57.45-.57.43-.57.41-.56.39-.56.38-.56.35-.55.34-.54.32-.53.29-.52.28-.51.26-.5.24-.49.23-.47"/></clipPath><clipPath id="b"><path d="m-23.9-9.49.18-.29.2-.28.23-.28.25-.27.28-.27.3-.26.33-.25.35-.25.38-.24.4-.24.43-.24.45-.22.47-.22.5-.22.52-.21.47-.24.51-.24.54-.23.59-.23.63-.21.67-.22.7-.2.74-.19.77-.19.8-.17.83-.17.86-.15.88-.14.9-.13.92-.12.93-.11.95-.09.96-.08.97-.06.97-.05.98-.03.97-.02h.98l.97.02.96.03.95.05.94.07.92.08.91.11.89.12.87.14.85.16.82.17.8.2.77.22.75.23.71.25.69.27.66.29.63.31.59.33.57.35.53.36.5.38.47.39.44.42.4.43.38.44.35.46.32.48.3.49.26.51.24.52.21.54.18.56.15.58.13.59.1.61.07.63.05.64.02.66-.01.68-.03.69-.05.7.54-.84-.31.68-.32.68-.34.69-.36.68-.37.68-.39.67-.4.67-.42.67-.43.66-.45.66-.46.64-.48.64-.49.63-.51.62-.52.61-.54.61-.55.6-.57.59-.58.58-.6.56-.62.55-.63.53-.64.51-.66.49-.66.47-.68.44-.7.41-.7.39-.71.35-.72.33-.72.29-.74.26-.73.22-.75.19-.75.15-.75.12-.75.07-.75.04h-.76l-.75-.04-.75-.08-.75-.12-.74-.15-.74-.2-.73-.23-.73-.27-.71-.31-.71-.34-.7-.38-.69-.41-.68-.44-.67-.47-.65-.5-.64-.52-.62-.56-.62-.57-.59-.6-.58-.61-.57-.63-.54-.64-.53-.66-.52-.66-.49-.68-.48-.67-.45-.55-.44-.56-.43-.55-.41-.57-.4-.56-.39-.56-.37-.56-.36-.56-.35-.56-.33-.55-.32-.54-.3-.54-.29-.52-.27-.52-.26-.5"/></clipPath><filter id="a"><feTurbulence baseFrequency=".05" numOctaves="3" result="noise" type="noise"/><feDisplacementMap in="SourceGraphic" in2="noise" scale="2"/></filter></defs><rect width="100%" height="100%" x="-100" y="-100" fill="#C6A6F2"/><path fill="#8FDF20" stroke="#000" stroke-linejoin="round" stroke-width="1.667" d="m59.97.63-.08 2.19.16.82-.2 1.51-.12 1.64.14-.63.07 1.68-.41 4.19.13-1.41-.05 1.16-.14 1.48-.09.81-.45 1.96-.49 4.46.3-1.37-.27.82-.47 2.88.02-.03-.12 1.56-.46 1.36-.25 1.85-.53 2.47.17-1.37-.57 2.56-.23.9-.47 1.57.11-.05-.96 3.41-.42 1.1-.02.14-.57 2.34-.41.65-1.19 3.63-.06.25-1.12 2.46.32-.49-.52 1.21-.3.53-.2.64-1.27 2.46-.57 1.05-.28.79-.31.82-.66 1.44-.79.88-1 2.08-.95 1.77-.11-.12.28-.42-1.07 1.8-1.4 1.89.45-.39-2.79 4.03-.13.09.62-.77-.41.49-1.23 1.92-1.17 1.11.06-.13-1.03 1.05-1.27 1.84-1.21.89-.16.24-.17.11-1.89 2-.85.68-.42.79-1.02.37-.63.97-1.29.78.68-.47-.89.33-2.97 2.49 1.35-1.13-2.34 1.93-1.44.4.29.08-.96.69-1.01.46.24-.39-.79.76-2.4 1.23-.47.12-1.44.52-.17-.04-1.8.7-.1-.05-1.49.56-1.7.79-.08-.13-1.02.04.82.13-.87.13-2.06.39-2.07.05-1.56.43 1.17.02-1.81.12-.72-.28-1.34.21-1.61-.04.98-.11-1.87-.02-.55-.03-.76-.18-2.18-.15.96.14-3.51-.18.89.06-.27-.04-1.09-.5-1.15.03-2.52-1.06-.99-.18h.03l-2.08-.81.13.41.38-.1-1.99-.64-1.79-1.01-.25-.06.02-.21-2.69-1.31 1.07.71-3.09-1.78-.39-.02.48.07-2.19-1.5-.68-.31-.63-.44.24-.16-2.52-1.81 1.51 1.03-3.4-2.6.04-.14-.53-.57-.44-.5-1.63-1.32-.33-.13-.84-1.35-1.3-1.1.56.6-1.29-1.36-.81-1.14-1.35-1.54-.52-.56.62.66-1.7-2.1-.97-1.88.05.4-.89-1.15-.43-.64-2.09-3.24-.19-.4-.21-.31-.63-1.29-.44-1-.44-.31-.56-1.55-.5-.75-.45-.93-1.5-3.34-.12.22-.35-1.2-.85-1.87-.62-1.4.04.49-.53-2.19-.72-1.7-.7-1.54-.17-.66.14.13-.58-1.8-.7-2.38.21 1.4-1.1-3.61-.12-1.29.03-.07-.77-2.91-.15-.81-.41-1.16.11-.35-.59-2.74-.35-1.75-.53-2.84-.05.78.23.48-.68-4.07.26.23-.35-2.12-.38-3.01.2 1.53-.33-2.86.07-1.04-.28-1.7-.21-3.16-.03.55-.04-.99-.07-3.13.27-1.01-.13.28.06-1.99.05-2-.03-.77-.13-2.23.32-2.46-.09-.91.07-.83.1-1.01.37-2.07-.06.42.16-3.4.33-2.01-.17.72.23-.35.54-4.63.09.57.36-1.82-.08-.73.33-1.68.78-2.78.39-1.49-.33.21.72-2.6-.23.37.64-1.66.05-.49.68-1.58.43-2.01.77-2.42-.38 1.4.52-1.5.8-2.04.71-2.51.93-1.98-.14.1.81-1.87-.3.78.8-2.12 1.15-2.41.81-1.29-.13-.07.26-.47 1.32-2.3.07-.4.79-1.41.36-.05 1.06-2.42.8-1.36.43-.3-.02.27 2.5-4.17-.94 1.47.59-.61.79-1.06.16-.62 2.27-2.55.52-.76.27-.54.89-.45.93-1.32-.86.61 1.73-1.66 1.75-1.69.8-.47.4-.64.6-.67.67-.2 1.87-1.85-.19.52.22-.27 2.05-1.99.92-.25.17-.27-.03.25 1.72-1.18 1.63-1.03.65-.49.6-.13.55-.72 1.79-.69 1.76-.72.83-.63-.9.51 2.03-.56.04-.14 1.19-.49 1-.24-.47.25 1.17-.73 2.6-.34-1.31.17 3.24-.53.08-.11 2.39-.48 1.08-.14-1.04.35 2.21-.1.53.08.62-.41.67.19 1.43.06 1.29.17.41-.19 1.54.31 1.51.24-.3-.21.64.22.47.07 1.67.27.22-.22 1.96.67 1.32.54.08-.23.9.52 1.08.31 1.15.47.29.09 2.36.83-1.65-.75 1.36.54 2.55 1.58.15-.07.8.46 1.62.58.32.48.68.24.75.7.5.64 1.33.63 1.8 1.4.06-.28 1.74 1.96.31.19 1.54 1.33-.87-1.11 2.15 2.43-.35-.45 1.3.89.5.98 1.04.94.49.33.32.57 1.51 1.53.24.65 1.55 2.04.02.34 1.09 1.23.38-.04 1.51 2.45-.11.17 1.28 1.9.79 1.18.61.99-.46-.98 1.77 3.26-.13.18.32.37.8 1.36.47.81 1.15 2.1.43.73.71 1.9-.79-1.24 1.55 3.06.36.85.91 2.47.09-.23-.01.13.62 1.79.93 3.41.21-.74.58 2.47.36.99-.46-.68.94 2.78.37 1.47.27 1.06.44 1.29.55 2.46-.21.26.55.68-.06.87.64 3.27.17 1.12.25.07.21 3.15-.3-1.88.64 3.87.36 1.79.32 2.92-.25.63.07-1.42.24 3.92.17.54.13 1.48-.09 2.86.1 1.61v-1.25l.11.56-.1 3.92-.08 2.19" filter="url(#a)"/><path fill="#fff" d="m-23.9-9.49.18-.29.2-.28.23-.28.25-.27.28-.27.3-.26.33-.25.35-.25.38-.24.4-.24.43-.24.45-.22.47-.22.5-.22.52-.21.47-.24.51-.24.54-.23.59-.23.63-.21.67-.22.7-.2.74-.19.77-.19.8-.17.83-.17.86-.15.88-.14.9-.13.92-.12.93-.11.95-.09.96-.08.97-.06.97-.05.98-.03.97-.02h.98l.97.02.96.03.95.05.94.07.92.08.91.11.89.12.87.14.85.16.82.17.8.2.77.22.75.23.71.25.69.27.66.29.63.31.59.33.57.35.53.36.5.38.47.39.44.42.4.43.38.44.35.46.32.48.3.49.26.51.24.52.21.54.18.56.15.58.13.59.1.61.07.63.05.64.02.66-.01.68-.03.69-.05.7.54-.84-.31.68-.32.68-.34.69-.36.68-.37.68-.39.67-.4.67-.42.67-.43.66-.45.66-.46.64-.48.64-.49.63-.51.62-.52.61-.54.61-.55.6-.57.59-.58.58-.6.56-.62.55-.63.53-.64.51-.66.49-.66.47-.68.44-.7.41-.7.39-.71.35-.72.33-.72.29-.74.26-.73.22-.75.19-.75.15-.75.12-.75.07-.75.04h-.76l-.75-.04-.75-.08-.75-.12-.74-.15-.74-.2-.73-.23-.73-.27-.71-.31-.71-.34-.7-.38-.69-.41-.68-.44-.67-.47-.65-.5-.64-.52-.62-.56-.62-.57-.59-.6-.58-.61-.57-.63-.54-.64-.53-.66-.52-.66-.49-.68-.48-.67-.45-.55-.44-.56-.43-.55-.41-.57-.4-.56-.39-.56-.37-.56-.36-.56-.35-.56-.33-.55-.32-.54-.3-.54-.29-.52-.27-.52-.26-.5" filter="url(#a)" transform="translate(24.42 -22.41)"/><path fill="#fff" d="m24.6-10.41-.23-.31-.26-.3-.28-.3-.31-.29-.32-.29-.35-.29-.37-.28-.39-.28-.42-.27-.43-.27-.46-.26-.48-.26-.5-.24-.52-.24-.54-.24-.51-.3-.54-.3-.58-.28-.62-.27-.65-.26-.67-.25-.71-.23-.74-.22-.77-.2-.79-.18-.81-.17-.84-.15-.86-.14-.87-.12-.89-.1-.9-.08-.91-.07-.92-.04-.93-.03-.93-.01-.94.01-.93.03-.93.05-.93.06-.92.09-.92.1-.9.12-.9.15-.87.16-.87.18-.85.19-.83.22-.81.23-.79.26-.77.27-.74.28-.73.31-.7.32-.67.34-.66.35-.62.37-.6.39-.58.4-.55.42-.52.43-.5.45-.47.45-.46.48-.42.48-.41.49-.38.51-.36.53-.34.54-.32.55-.3.57-.27.58-.26.59-.23.61-.21.63-.19.64-.18.65-.15.66-.13.68-.12.69.45 2.59.26.69.28.69.29.69.31.69.32.68.35.68.36.67.37.67.4.66.41.65.43.64.45.62.46.62.48.6.5.59.52.58.53.57.56.56.57.54.6.52.61.5.64.48.65.45.67.43.69.39.71.37.72.33.74.29.76.26.77.23.79.18.79.14.81.11.82.06.83.02.84-.02.84-.06.85-.1.85-.15.86-.18.86-.23.85-.27.86-.3.85-.34.84-.38.84-.41.83-.44.81-.48.81-.5.79-.53.78-.56.76-.57.74-.6.73-.61.7-.63.68-.64.66-.65.63-.65.61-.66.58-.66.55-.66.53-.65.5-.64.47-.64.48-.57.46-.57.45-.57.43-.57.41-.56.39-.56.38-.56.35-.55.34-.54.32-.53.29-.52.28-.51.26-.5.24-.49.23-.47" filter="url(#a)" transform="translate(-34.46 -24.41)"/><g fill="none" stroke="#000" transform="translate(24.42 -22.41)"><path stroke-linejoin="round" stroke-width="1.667" d="m-24.49-6.35-.03-.33-.01-.34.01-.32.02-.33.05-.31.07-.32.08-.3.11-.31.13-.29.16-.29.18-.29.2-.28.23-.28.25-.27.28-.27.3-.26.33-.25.35-.25.38-.24.4-.24.43-.24.45-.22.47-.22.5-.22.52-.21.47-.24.51-.24.54-.23.59-.23.63-.21.67-.22.7-.2.74-.19.77-.19.8-.17.83-.17.86-.15.88-.14.9-.13.92-.12.93-.11.95-.09.96-.08.97-.06.97-.05.98-.03.97-.02h.98l.97.02.96.03.95.05.94.07.92.08.91.11.89.12.87.14.85.16.82.17.8.2.77.22.75.23.71.25.69.27.66.29.63.31.59.33.57.35.53.36.5.38.47.39.44.42.4.43.38.44.35.46.32.48.3.49.26.51.24.52.21.54.18.56.15.58.13.59.1.61.07.63.05.64.02.66-.01.68-.03.69-.05.7-.08.73-.1.73-.13.76-.14.76-.17.78-.19.8-.21.8-.23.82-.25.84-.27.84" filter="url(#a)"/><path stroke-linejoin="round" stroke-width="2.222" d="m-24.99-6.52.09.29.09.33.12.35.14.37.15.4.18.42.18.44.21.46.22.48.24.49.26.5.27.52.29.52.3.54.32.54.33.55.35.56.36.56.37.56.39.56.4.56.41.57.43.55.44.56.45.55.48.67.49.68.52.66.53.66.54.64.57.63.58.61.59.6.62.57.62.56.64.52.65.5.67.47.68.44.69.41.7.38.71.34.71.31.73.27.73.23.74.2.74.15.75.12.75.08.75.04h.76l.75-.04.75-.07.75-.12.75-.15.75-.19.73-.22.74-.26.72-.29.72-.33.71-.35.7-.39.7-.41.68-.44.66-.47.66-.49.64-.51.63-.53.62-.55.6-.56.58-.58.57-.59.55-.6.54-.61.52-.61.51-.62.49-.63.48-.64.46-.64.45-.66.43-.66.42-.67.4-.67.39-.67.37-.68.36-.68.34-.69.32-.68.31-.68.29-.69.28-.68.26-.68.25-.68.23-.67.22-.68.2-.67.19-.66.17-.67.16-.66" filter="url(#a)"/><circle cx="-12.57" cy="-11.177" r="4.622" clip-path="url(#b)" filter="url(#a)"/><circle cx="-12.475" cy="-10.952" r="4.262" clip-path="url(#b)" filter="url(#a)"/><circle cx="-9.24" cy="-10.602" r="3.026" clip-path="url(#b)" filter="url(#a)"/><circle cx="-12.785" cy="-13.907" r="3.57" clip-path="url(#b)" filter="url(#a)"/><circle cx="-10.91" cy="-12.087" r="4.138" clip-path="url(#b)" filter="url(#a)"/><circle cx="-11.81" cy="-10.702" r="3.3" clip-path="url(#b)" filter="url(#a)"/><circle cx="-9.925" cy="-10.892" r="4.724" clip-path="url(#b)" filter="url(#a)"/><circle cx="-12.1" cy="-10.637" r="4.702" clip-path="url(#b)" filter="url(#a)"/><circle cx="-12.64" cy="-13.452" r="3.046" clip-path="url(#b)" filter="url(#a)"/><circle cx="-12.075" cy="-11.487" r="4.16" clip-path="url(#b)" filter="url(#a)"/></g><g fill="none" stroke="#000" transform="translate(-34.46 -24.41)"><path stroke-linejoin="round" stroke-width="2.222" d="m25.82-7.43-.04-.28-.05-.29-.07-.3-.09-.29-.11-.31-.13-.3-.15-.3-.17-.31-.19-.3-.22-.3-.23-.31-.26-.3-.28-.3-.31-.29-.32-.29-.35-.29-.37-.28-.39-.28-.42-.27-.43-.27-.46-.26-.48-.26-.5-.24-.52-.24-.54-.24-.51-.3-.54-.3-.58-.28-.62-.27-.65-.26-.67-.25-.71-.23-.74-.22-.77-.2-.79-.18-.81-.17-.84-.15-.86-.14-.87-.12-.89-.1-.9-.08-.91-.07-.92-.04-.93-.03-.93-.01-.94.01-.93.03-.93.05-.93.06-.92.09-.92.1-.9.12-.9.15-.87.16-.87.18-.85.19-.83.22-.81.23-.79.26-.77.27-.74.28-.73.31-.7.32-.67.34-.66.35-.62.37-.6.39-.58.4-.55.42-.52.43-.5.45-.47.45-.46.48-.42.48-.41.49-.38.51-.36.53-.34.54-.32.55-.3.57-.27.58-.26.59-.23.61-.21.63-.19.64-.18.65-.15.66-.13.68-.12.69-.1.71-.08.71-.06.73-.04.74-.03.76-.01.76v.78l.02.79.04.79.04.81" filter="url(#a)"/><path stroke-linejoin="round" stroke-width="2.222" d="m25.95-7.17-.03.31-.06.33-.07.35-.09.37-.11.38-.12.4-.15.42-.16.43-.18.45-.2.47-.23.47-.24.49-.26.5-.28.51-.29.52-.32.53-.34.54-.35.55-.38.56-.39.56-.41.56-.43.57-.45.57-.46.57-.48.57-.47.64-.5.64-.53.65-.55.66-.58.66-.61.66-.63.65-.66.65-.68.64-.7.63-.73.61-.74.6-.76.57-.78.56-.79.53-.81.5-.81.48-.83.44-.84.41-.84.38-.85.34-.86.3-.85.27-.86.23-.86.18-.85.15-.85.1-.84.06-.84.02-.83-.02-.82-.06-.81-.11-.79-.14-.79-.18-.77-.23-.76-.26-.74-.29-.72-.33-.71-.37-.69-.39-.67-.43-.65-.45-.64-.48-.61-.5-.6-.52-.57-.54-.56-.56-.53-.57-.52-.58-.5-.59-.48-.6-.46-.62-.45-.62-.43-.64-.41-.65-.4-.66-.37-.67-.36-.67-.35-.68-.32-.68-.31-.69-.29-.69-.28-.69-.26-.69-.24-.7-.23-.69-.21-.69-.2-.69-.18-.68-.17-.69-.15-.68-.14-.67-.12-.67-.12-.67" filter="url(#a)"/><circle cx="7.396" cy="-7.122" r="3.004" clip-path="url(#c)" filter="url(#a)"/><circle cx="9.266" cy="-3.547" r="4.868" clip-path="url(#c)" filter="url(#a)"/><circle cx="4.811" cy="-3.237" r="4.682" clip-path="url(#c)" filter="url(#a)"/><circle cx="4.966" cy="-7.872" r="3.04" clip-path="url(#c)" filter="url(#a)"/><circle cx="8.566" cy="-5.062" r="4.736" clip-path="url(#c)" filter="url(#a)"/><circle cx="7.656" cy="-5.997" r="3.968" clip-path="url(#c)" filter="url(#a)"/><circle cx="8.141" cy="-6.247" r="3.482" clip-path="url(#c)" filter="url(#a)"/><circle cx="7.141" cy="-4.217" r="3.78" clip-path="url(#c)" filter="url(#a)"/><circle cx="9.411" cy="-7.202" r="4.11" clip-path="url(#c)" filter="url(#a)"/><circle cx="6.616" cy="-7.707" r="4.414" clip-path="url(#c)" filter="url(#a)"/></g><g fill="none" stroke="#135686" stroke-linejoin="round" stroke-width="2"><path d="m-23.23-82.85 1.19-.75.76-.46.61-.31.57-.23.46-.1.25.1-.06.34-.39.61-.69.86-.97 1.09-1.25 1.32-1.54 1.55-1.85 1.83-2.19 2.13-2.56 2.48-2.96 2.85-3.45 3.33-3.97 3.81m26.98-24.91.5-.19.99-.15 1.24-.07 1.47-.02 1.74.02 1.98.06 2.15.1 2.27.13 2.31.16 2.26.18 2.18.21 2.06.22 1.97.24 1.89.23 1.83.23 1.75.23 1.62.21 1.42.21 1.28.22" filter="url(#a)"/><path d="m-24.95-81.67 1.56-1.04 1.33-.84 1.13-.68 1.05-.6 1.04-.56 1-.52.85-.43.6-.29.29-.12-.06.05-.42.23-.8.42-1.12.58-1.41.72m62.38 21.1.29.64.59.96.51.82.35.59.18.38.02.21h-.14l-.31-.24-.51-.5-.73-.78-.98-1.11-1.28-1.51-1.61-1.94-1.96-2.42-2.35-2.94-2.85-3.62m-47.94-11.52.39-.28.28-.05.35-.01.32.04.19.13.03.26-.13.4-.28.57-.45.75-.64.92-.87 1.12-1.16 1.33-1.51 1.58-1.91 1.86-2.34 2.15-2.78 2.48-3.2 2.8-3.62 3.12-4.01 3.4-4.35 3.59" filter="url(#a)"/><path d="m39.47-67.63.13.47.04.52-.3.52-.72.44-1.23.31-1.78.11-2.37-.15-3.01-.41-3.65-.65-4.3-.87-4.98-1.09-5.66-1.31-6.32-1.57-6.96-1.85-7.67-2.11-8.64-2.24m35.68-8.55-.48-.19.81.46 1.17.65 1.19.66 1.12.64 1.04.61.97.62.92.61.89.61.85.61.8.59.72.53.58.43.4.31.18.15-.06-.01-.3-.2-.51-.35-.7-.5-.88-.64-1.08-.77-1.37-.95-1.76-1.17" filter="url(#a)"/><path d="m46.22-56.95.38.6.37.81.24.83.02.69-.24.51-.5.3-.75.12-.99-.05-1.23-.24-1.51-.46-1.81-.68-2.13-.9-2.47-1.12-2.82-1.33-3.19-1.58-3.57-1.86-3.95-2.16-4.3-2.44-4.64-2.73-4.96-3.02-5.3-3.31-5.73-3.63-6.26-3.93m11.96-7.41 1.33.24.91.13.64.09.59.09.61.11.64.13.62.16.53.18.39.18.22.18.03.17-.19.15-.42.14-.69.13-.98.12-1.26.13-1.55.13-1.81.13-2.08.12-2.36.08-2.64.03-2.97-.02-3.3-.05" filter="url(#a)"/><path d="m-14.25-87.45 1.09-.35 1.04-.2 1.23-.18 1.5-.18 1.72-.19 1.86-.17 1.91-.16 1.89-.14 1.77-.12 1.56-.09 1.3-.06 1.02-.05.78-.05.56-.05.37-.06m-30.44 7.85.33-.2.9-.39 1.34-.57 1.54-.61 1.65-.6 1.71-.56 1.79-.53 1.85-.5 1.84-.45 1.82-.39 1.77-.34 1.71-.29 1.66-.26 1.61-.26 1.54-.26 1.46-.26 1.36-.26 1.22-.26 1.06-.25.86-.22.7-.18.55-.15m45.68 41.58.29.97-.05.61-.5.13-.89-.16-1.28-.39-1.7-.71-2.17-1.15-2.69-1.66-3.24-2.18-3.77-2.7-4.34-3.19-4.92-3.67-5.59-4.19-6.35-4.73-7.15-5.31-7.78-5.99m33.79 6.62.95.82.61.68.38.5.15.33-.07.21-.3.09-.58-.08-.91-.32-1.31-.64-1.74-.98-2.18-1.34L24.86-78l-3.22-2.09-3.85-2.54-4.54-3.04" filter="url(#a)"/><path d="m-18.01-85.91 1.43-.51 1.23-.17 1.39.05 1.71.14 2.02.19 2.26.26 2.49.31 2.69.38 2.89.42 3.06.47 3.2.5 3.29.55 3.32.6 3.27.62 3.12.62 2.9.55 2.75.49" filter="url(#a)"/><path d="m-15.42-87.26-.06.18.53-.1.57-.14.46-.08.34.01.24.09.16.2.07.3-.04.42-.22.57-.45.73-.74.93-1.08 1.14-1.42 1.35-1.74 1.56-2.06 1.73-2.35 1.91-2.66 2.13-3.01 2.37-3.39 2.62-3.8 2.91-4.29 3.4m55.44-23.95.61.21.51.19.32.21.24.27.11.31-.14.27-.51.2-.94.14-1.41.07-1.88.02-2.34-.04-2.79-.09-3.21-.16-3.67-.28-4.23-.4-4.82-.52m48.56 19.29.72.81.3.59-.08.46-.49.23-.93-.1-1.45-.51-2.01-.93-2.61-1.35-3.22-1.76-3.86-2.18-4.49-2.62-5.12-3.06-5.8-3.5-6.67-3.97" filter="url(#a)"/><path d="m33.82-74.67.44.83.18.62-.18.5-.55.49-.94.49-1.37.44-1.87.33-2.39.2-2.94.04-3.5-.1-4.07-.25-4.67-.39L6.63-72l-6-.72-6.69-.94-7.4-1.17-8.2-1.26" filter="url(#a)"/><path d="m35.85-72.42.49.76.44.89.17.83-.17.68-.51.5-.86.33-1.22.19-1.59.07-2.01-.07-2.45-.24-2.96-.43-3.48-.63-4.01-.82-4.55-1.01-5.09-1.17-5.66-1.33-6.24-1.49-6.77-1.71-7.12-2.05" filter="url(#a)"/><path d="m34.32-73.69.85.79.78.85.86 1.06.94 1.24.97 1.33.95 1.31.9 1.25.83 1.15.76 1.06.67.94.56.81.43.61.24.35.03.04-.21-.33-.46-.72-.71-1.12-.99-1.52m-66.64-17.33.7-.13 1.54-.39 1.88-.27 2.08-.06 2.33.12 2.59.28 2.83.43 3.01.57 3.15.74 3.26.88 3.39 1.01 3.52 1.12 3.66 1.19 3.8 1.27 3.9 1.3 3.98 1.32 4.03 1.3 4.03 1.23 4 1.18 3.91 1.17M28-79.91l1.26 1.35.86.8.66.59.57.5.51.48.44.44.36.4.26.34.14.26v.17l-.16.09-.35-.03-.56-.16-.79-.34-1.03-.52-1.28-.74-1.54-.94-1.82-1.17-2.14-1.4-2.5-1.67-2.84-1.98-3.08-2.25m37.86 42.84.66 2.09.41 1.13.25.84.15.68.07.57.01.45-.07.29-.18.07-.32-.25-.48-.61-.67-1-.84-1.38-1.04-1.78-1.23-2.19-1.44-2.66-1.69-3.2-1.93-3.76-2.17-4.29-2.38-4.73-2.6-5.19" filter="url(#a)"/><path d="m-14.29-87.31.48-.19.92-.15 1.13-.06 1.33-.01 1.57.03 1.78.07 1.95.11 2.06.15 2.12.21 2.12.26 2.09.32 2.03.36 1.99.39 1.95.41 1.91.4 1.85.37 1.76.34 1.64.28 1.48.23 1.3.16 1.1.11.96.06.87.06m-47.19 1.75.28-.22.73-.42 1.04-.62 1.14-.68 1.11-.65 1.07-.61 1.04-.56.98-.51.88-.44.74-.34.58-.26.41-.17.26-.09h.07l-.12.1-.34.2-.56.32-.78.45-1.03.58-1.35.76-1.76.95-2.13 1.09" filter="url(#a)"/><path d="m24.81-81.66 1.21.7.88.65.51.54.17.42-.19.23-.6.04-1.01-.17-1.43-.34-1.87-.51-2.31-.68-2.79-.88-3.3-1.09-3.84-1.35-4.36-1.65-4.78-1.97" filter="url(#a)"/><path d="m35.36-72.75.47.45.59.7.62.82.54.8.41.69.25.52.09.37-.08.2-.29.04-.53-.14-.79-.38-1.08-.64-1.38-.92-1.68-1.2-1.97-1.48-2.3-1.76-2.65-2.06-3.01-2.4-3.37-2.72-3.64-3.01" filter="url(#a)"/><path d="m40.58-66.06.63.63.74 1.1.7 1.12.63 1.02.53.86.42.71.3.56.2.43.08.29-.02.14-.13-.01-.27-.18-.42-.37-.6-.6-.8-.86-1.01-1.13-1.2-1.41-1.42-1.7-1.65-2.05-1.94-2.46-2.28-2.95-2.58-3.37m-19.94-12.3.92.32.71.22.73.26.74.27.68.26.57.23.46.21.35.2.24.21.11.19-.07.17-.28.11-.56.05-.83-.01-1.11-.08-1.38-.13-1.64-.2-1.9-.27-2.19-.37-2.56-.47-3.04-.56-3.6-.62m-3.73-.76.71-.19 1.06-.19.9-.09.75-.04.66-.01h.59l.49.01.37.05.22.08.02.13-.21.16-.46.2-.77.23-1.07.25-1.39.29-1.71.32-2 .35-2.26.34-2.45.33" filter="url(#a)"/><path d="m40.58-66.06.45.56.21.91-.19.84-.63.66-1.1.43-1.61.23-2.11.04-2.61-.13-3.12-.27-3.65-.41-4.17-.55-4.72-.69-5.31-.86-5.93-1.05-6.57-1.28-7.23-1.51-7.89-1.69-8.7-1.75M28-79.91l1.3 1.41.99.98.9.87.9.89.92.95.94.99.95 1.02.91.98.84.91.75.82.63.71.5.58.34.41.15.19-.08-.12-.36-.5-.66-.9-.96-1.25" filter="url(#a)"/><path d="m52.21-44.64.32 1.71-.38 1.08-1.18.3-1.99-.33-2.79-.86-3.59-1.31-4.38-1.72-5.21-2.15-6.04-2.65-6.91-3.22-7.84-3.83-8.82-4.41-9.82-5.01-10.61-5.75" filter="url(#a)"/><path d="m30.72-77.54 1.13 1.46.12.75-.44.63-.95.64-1.5.65-2.08.67-2.67.7-3.27.74-3.89.75-4.57.73-5.29.68-6.06.67-6.9.71-7.75.77-8.57.79-9.35.65m1.36-12.26 1.24-1.09.92-.59 1.08-.63 1.25-.67 1.35-.67 1.43-.64 1.51-.64 1.58-.67 1.64-.68 1.67-.68 1.66-.66 1.65-.63 1.61-.59 1.52-.53 1.4-.47 1.23-.42 1.06-.36.87-.32.7-.29.56-.25.41-.2.26-.14-.04-.08m7.78.08.86.12.34.07.23.12.2.17.13.24-.04.32-.29.4-.61.46-.99.53-1.37.59-1.78.65-2.18.7-2.6.75-3.07.8-3.56.91-4.05 1.02-4.48 1.1-4.99 1.16" filter="url(#a)"/><path d="m-.96-90.17.79.15.83.13.64.13.38.16.05.2-.34.24-.78.3-1.24.38-1.7.49-2.14.61-2.61.73-3.15.87-3.87 1.05-4.85 1.32" filter="url(#a)"/><path d="m-18.01-85.91 1.27-.58.7-.33.54-.2.52-.16.5-.14.43-.11.33-.04.24.01.15.09.04.17-.09.27-.29.38-.52.52-.81.66-1.15.81-1.51.99-1.87 1.15-2.22 1.32-2.61 1.54-3.12 1.84-3.8 2.32m62-2.14 1.07 1.45-.04.71-.71.56-1.35.55-2.02.52-2.73.49-3.47.5-4.25.51-5.08.54-5.97.52-6.86.41-7.74.24-8.63.08-9.59-.06" filter="url(#a)"/><path d="m39.49-67.29.84.9.65.82.51.84.35.75.16.59-.04.37-.27.15-.5-.06-.72-.26-.96-.46-1.2-.66-1.46-.88-1.73-1.1-2.04-1.35-2.39-1.63-2.76-1.94-3.12-2.25-3.44-2.55-3.7-2.84-3.94-3.17-4.29-3.57" filter="url(#a)"/><path d="m40.58-66.06.53.58.42.96.19.9-.09.74-.4.53-.71.34-1.03.18-1.35.04-1.67-.08-2.01-.2-2.35-.3-2.72-.42-3.11-.54-3.53-.7-3.95-.86-4.39-1.05-4.81-1.23-5.22-1.44-5.68-1.64-6.18-1.84-6.68-2.05-7-2.38m33.11-11.76.89.43.87.35.74.29.57.23.37.19.21.19.05.19-.11.18-.35.14-.62.09h-.96l-1.31-.09-1.7-.17-2.11-.24-2.58-.3-3.11-.34-3.69-.42-4.15-.57" filter="url(#a)"/><path d="m15.37-86.89 1.2.4.64.25.81.4.92.47.88.46.75.39.58.33.41.28.24.22.08.18-.1.11-.28.04-.5-.07-.8-.19-1.14-.34-1.52-.51-1.9-.69-2.22-.86-2.47-1.02-2.59-1.15m37.99 31.06.05.3.32.58.44.78.45.82.36.73.2.54.04.3-.13.06-.3-.21-.49-.5-.69-.86-.94-1.24-1.18-1.63-1.42-1.99-1.7-2.4-1.97-2.86-2.3-3.39-2.72-4.06M1.14-89.92l1.01.09.88.07.76.09.56.12.34.11.17.14.05.16-.05.2-.2.24-.39.28-.66.32-.96.34-1.3.37-1.69.43-2.09.48-2.51.53-2.93.58-3.35.63-3.85.75-4.49 1.01" filter="url(#a)"/><path d="m-15.42-87.26.05.19.9-.09 1.17-.14 1.3-.1 1.43-.07 1.58-.03 1.73-.02 1.87-.01h1.97l2.01.01 2.01.03 1.96.06 1.86.08 1.77.11 1.64.13 1.53.12 1.38.1 1.23.07 1.05.01.88-.03.79-.01.74.07" filter="url(#a)"/><path d="m-19.8-85.22 1.68-.64 1.42-.48 1.19-.31 1.16-.21 1.24-.16 1.34-.16 1.44-.15 1.51-.14 1.59-.15 1.64-.14 1.7-.14 1.71-.15 1.7-.13 1.65-.11 1.54-.09 1.39-.06 1.22-.05 1.03-.04.85-.05.69-.07.47-.1.2-.13-.12-.17m27.41 16.63.58.78.7.94.6.91.43.76.27.6.1.45-.07.31-.26.18-.49.02-.74-.17-1.02-.41-1.32-.66-1.64-.92-1.98-1.17-2.31-1.43-2.62-1.67-2.92-1.91-3.18-2.16-3.47-2.43-3.85-2.74-4.47-3.14m44.03 41.51.04.68-.07 1.23-.41 1.13-.85.83-1.32.54-1.77.31-2.21.17-2.65.05-3.09-.05-3.56-.19-4.04-.36-4.53-.58-5.02-.8-5.52-1.02-6.03-1.2-6.56-1.37-7.09-1.53-7.66-1.71-8.23-1.88-8.81-2.04-9.35-2.24" filter="url(#a)"/><path d="m-29.96-77.81 1.27-1.08 1-.58 1.2-.61 1.43-.65 1.57-.64 1.68-.62 1.8-.61 1.93-.62 2.02-.65 2.08-.64 2.1-.63 2.09-.6 2.05-.58 1.96-.54 1.83-.49 1.65-.43 1.48-.39 1.34-.36 1.25-.32 1.21-.27 1.29-.21" filter="url(#a)"/><path d="m-34.18-74.14 1.38-1.25 1.02-.88.92-.77.95-.76 1.01-.77 1.04-.77 1.04-.76 1.04-.74 1.01-.72.97-.67.9-.61.82-.55.72-.48.59-.39.41-.29.21-.15v-.01l-.24.15-.51.34-.84.53-1.12.69-1.19.71m57.87 7.62.65.95.79.94.86 1.02.92 1.17.98 1.3 1 1.35.96 1.34.9 1.24.82 1.14.74 1.02.63.89.52.73.37.51.18.25-.05-.09-.31-.48-.57-.92-.84-1.41m6.94 12.8.96 2.08.24 1.05-.32.26-.83-.37-1.27-.83-1.7-1.24-2.18-1.7-2.73-2.29-3.33-2.98-3.99-3.68-4.63-4.39-5.24-5.04-5.76-5.71-6.2-6.46" filter="url(#a)"/><path d="m52.13-44.54.07-.01.14.54.19.83.11.77-.04.49-.23.16-.44-.17-.62-.45-.83-.75-1.03-1.05-1.28-1.4-1.54-1.81-1.83-2.27-2.11-2.73-2.38-3.2-2.65-3.64-2.93-4.09-3.26-4.58-3.63-5.13-3.91-5.63" filter="url(#a)"/><path d="m35.85-72.42.47.78.37.96.05.95-.33.86-.72.74-1.1.64-1.5.59-1.93.54-2.37.49-2.85.43-3.36.33-3.89.22-4.39.11-4.91-.01-5.41-.1-5.95-.16-6.53-.18-7.16-.11-7.83-.04-8.42-.09m54.47-18.25.22.43-.05.49-.37.61-.75.72-1.19.81-1.73.88-2.37.94-3.07.99-3.83 1.02-4.57 1.02-5.31 1.01-6.04 1.02-6.8 1.08-7.65 1.22-8.69 1.57" filter="url(#a)"/><path d="m-16.32-86.75 18.41 3.4-2.52 5.2-3.84 4.23-.96 1.85 2.01.14 4.18-.68 4.96-.74 4.37-.12 3.05.92 1.9 1.95 1.61 2.58 2.31 2.77 3.44 2.61 4.06 2.16 3.36 1.24 1.5-.18-.74-1.84-2.68-3.34-4.32-4.37-5.47-4.52-3.4-2.98 6.86 1.53 20.59 11.46" filter="url(#a)"/><path d="m-24.92-81.92 7.27 21.41 15.07 6.04 6.4-1.63 2.44-4.05 2.81-4.57 4.39-3.96 4.96-2.38 3.84-.45 1.39.93-1.37 1.05-3.29-.1-3.6-1.86-2.48-3.17-1.13-3.29-.93-2.09-2.41.05-4.92 2.42-7.07 4.22-5.91 4.38 7.38 3.28 48.43 8.56" filter="url(#a)"/><path d="M-48.1-54.04 3.45-65.63l19.16.55-2.68-1.44-11.65-3.77-10.74-4.03-5.3-3.1.55-1.94 4.72-1.08 6.64-.53 6.89.01 6.55.83 5.96 1.52 4.29 1.3 2.58 1.46 9.07 8.56" filter="url(#a)"/><path d="m5.59-89.6 13.19 10.16 2.55 2.13 3.91 2.01 2.72 1.27-.08-.13-2.18-1.02-2.46-.84-1.02.4 1.18 2.16 2.9 3.59 3.09 3.91 1.59 3-.88 1.36-3.03-.14-3.7-.86-2.55-.87-.33-.71 1.47-1.14 1.15-2.61-2.15-4.99-6.57-7.88.98-6.09" filter="url(#a)"/><path d="m22.56-83.72 3.45 4.42-1.1 5.99-8.4 2.73-10.9-.26-6.89-.79-.51.01 3.72.66 4.16.65 2.29.25.47-.05h-.13l-.14.32-.86.8-2.53 1.47-3.97 2.2-3.9 2.36-2.35.96.19-2.12 5.78-4.67 16.9-3.69 16.48-1.21" filter="url(#a)"/><path d="M55.76-33.15 32.52-60.64l-11.04-7.94-8.74-5.65-5.56-4.18-3.37-2.05-3.28-.35-3.93.38-3.3.28-.73-.04 2.84-.05 5.98.24 7.9.34 8.47.3 8.06 1.11 3.92.3" filter="url(#a)"/><path d="m-43.03-62.48 10.47-3.15 14.02-2.55 11.6-1.04 8.56-2.41 5.65-3.33 3.37-2.6 1.3-.98-.94.57-3.08 1.7-4.46 2.3-4.81 2.33-4.51 1.7-4.23.51-4.25-.88-4.16-1.88-3.15-2.04-.68-1.39 3.19-.51 7.5-.12 8.85-.33-1.64.99-36.45 9.8" filter="url(#a)"/><path d="M-37.66-70.02 12-63.27l5.64-8.04-6.38-7.13-5.83-2.49-2.45 1.83.26 4.39 1.61 4.61 1.58 2.63.28-.51-1.39-3.07-1.28-3.37 2.68-.57 9.72 4.53 14.5 8.52 8.69 3.66-13.49-22.75" filter="url(#a)"/><path d="m-2.11-89.84 4.92 2.76-9.51 3.25-9.18 2.6-4.08 1.78.99 1.92 4.45 2.6 5.85 3.02 5.61 2.87 4.49 2.31 3.31 1.57 2.41.79 1.87.01 1.54-.79 1.22-1.58.81-2.31.37-2.82.02-3.02-.18-2.96-.2-2.79-.12-2.42-1.21-1.62-7.58-.57-24.04.74" filter="url(#a)"/><path d="M56.47-30.8 39.09-44.35l-13.34-15.2-1.27-7.66 2.75-2.9 1.52-1.46-1.2-1.51L24-74.97l-4.81-2.18-4.72-2.31-3.51-2.17-1.74-1.77-.15-1.11.84-.28 1.19.66 1.16 1.61 1.29 2.49 2.02 3.2 3.26 3.5 3.95 3.13 2.56 2.51-1.79 3.35-12.28 5.54-51.2-8.67" filter="url(#a)"/><path d="m-35.91-72.48 10.46-3.35 9.91 3.15 6.84 2.72 5.36 1.58 6.61.66 7.51-.19 6.54-.75 4.25-.9 1.63-1.05-1.01-1.65-3.53-2.66-5.43-3.39-5.9-3.13-4.47-1.84-1.37-.05 2.47 1.79 5.73 3.97 6.03 6.9-4.23 7.49-47.4-9.3" filter="url(#a)"/><path d="M49.31-50.92 37.59-62.77 21.46-67.7l-10.77-1.17-2.5.2.5-1.02-1.36-2.92-3.84-3.48-3.87-2.09-1.24.37 2.31 2.68 4.65 3.82 4.38 3.38 1.59 1.52-2.59-.88-6.39-2.25-2.64-1.01 35.67-2.2" filter="url(#a)"/><path d="m54.45-37.4-56.82-19-14.8-10.64-1.52-5.27 2.8-2.78 5.07-.72 6.77 1.14 6.7 2.16 4.2 1.89.47.72-2.39-.43-3.15-.84-2.24-.59-.9-.36.15-.79.88-1.88.93-3.06-1.28-3.44-6.2-2.33-9.09-.39 1.68-3.3m73.88 75.09-.93-2.3-.73-1.97-.36-1.62-.23-1.32-.3-1.13-.49-1.06-.7-1.03-.87-.97-.96-.89-.97-.79-.9-.76-.79-.8-.64-.94-.44-1.12-.3-1.28-.56-1.35-1.55-1.32" filter="url(#a)"/><path d="m-15.82-97.05 1.05-.53.87.47.9.9 1.01.9 1.11.78 1.18.7 1.23.68 1.26.62 1.2.43 1.08.12.92-.21.79-.35.78.05.81 1.11.67 1.21-5.87.81-1.67 2.35-.74 2.82-.72 1.71-.79.52-.8-.31-.82-.7-.8-.68-.74-.36-.68.14-.64.64-.62 1.04-.65 1.28-.67 1.39-.68 1.42-.66 1.42-.64 1.44-.59 1.49-.54 1.5-.48 1.45-.4 1.25-.43.95-.64.94-.85 2.35" filter="url(#a)"/><path d="m-10.07-88.83.01-.77-1.1-1.81-1.13-1.7-.98-1.3-.92-1.1-.92-1.01-.91-.79-.84-.41-.78.07-.8.45-.95.61-1.15.55-1.26.35-1.2-.15-1.12-1.3m83.39 82-.54 2.06-.48 1.11.02.96.11 1.15-.16 1.35-.57 1.44-.88 1.4-.95 1.3-.76 1.19-.45 1.17-.25 1.27L54.1.64l-.43 1.43-.62 1.31-.79 1.07-1 .72-1.4-.04" filter="url(#a)"/><path d="m-11.36-88.66 1.32-2.06.8-2.75 1.01-1.99 1.16-1.26 1.13-.72 1.02-.24.93.23.88.5.87.46.88.12.92-.33.98-.66 1.04-.84 1.11-.97 1.17-1.11 1.19-1.26 1.05-1.24.37-1.04-20.76 16.51.41.1.72.31.71.2.74.09.83.09.94.12 1.02.14 1.09.1 1.11.09 1.09.12 1 .22.87.32.77.32.74.23.74.26.61.65" filter="url(#a)"/><path d="m-16.32-86.75.28.26-.51 1.1-.77 1.61-.85 1.49-.88 1.05-.91.65-.92.44-.9.44-.83.55-.73.72-.63.89-.58 1.02-.54 1.09-.54 1.1-.52 1.1-.48 1.14-.41 1.27-.33 1.41-.31 1.49-.35 1.49-.5 1.54-.74 1.79-.86 2.28 14.71-26.43-.21-.87.47-1.12.66-.74.69-.65.69-.59.75-.42.86-.27.97-.24 1.05-.33 1.11-.45 1.14-.48 1.11-.41 1.04-.31.96-.24.86-.3.82-.52.8-.82.8-1.01.89-.84 1.2-.36m-26.19 16.56 1.34-1.73 1.09-1.26.92-.89.85-.92.84-1.13.85-1.28.82-1.31.75-1.26.68-1.17.64-1.04.64-.93.66-.86.68-.84.71-.93.75-1.15.81-1.47.9-1.75 1.01-1.7 1.18-1.28.84-1.31-20.29 26.74.37-1.63.7-1.72.58-1.53.38-1.78.35-1.93.54-1.69.8-1.16.98-.62 1.05-.38 1.04-.47 1.06-.79 1.06-1.16.94-1.43.49-1.42-.47-1.03" filter="url(#a)"/><path d="m-31.63-76.3.54-.4.88.06.99.07.88-.25.78-.47.78-.42.87-.16.95.13.99.29.99.28.98.12.94-.1.92-.26.92-.3.93-.24 1.01-.17 1.05-.22.98-.3.64-.16-.13.42m-17.69 2.55-1.4 1.6-.94.97-.65.68-.57.65-.61.72-.66.86-.69.98-.7 1.05-.67 1.05-.62.99-.57.93-.54.89-.54.9-.56.94-.57.99-.59 1.04-.58 1.09-.59 1.09-.58 1.09-.56 1.06-.56 1.1-.58 1.17-.45.95m11.3-19.44 1.42-1.78 1.14-1.45.83-1.22.61-1.17.56-1.12.58-1.05.6-1.04.61-1.07.61-1.1.65-1.08.67-.97.69-.81.7-.68.78-.75.91-1.08.97-1.54.74-1.59m81.41 73.06.04-.09.49 1.49.81 1.71.94 1.47.89 1.23.72 1.15.55 1.21.43 1.35.31 1.45.2 1.45.14 1.36.13 1.23.21 1.22.37 1.44.63 1.84.92 2.03 1.3 1.48" filter="url(#a)"/><path d="m-36.87-71.32-.75.13-.77 1.11-.86 1.21-.86.94-.82.62-.77.46-.74.49-.71.63-.68.79-.67.92-.65 1.02-.67 1.05-.7 1.01-.75.93-.78.84-.81.87-.77 1.02-.55.9 7.15 14.64-.5-.77.03-1.5.1-1.69-.06-1.71-.14-1.62-.06-1.48.09-1.36.16-1.35.17-1.42.18-1.49.23-1.46.36-1.32.49-1.14.54-1.05.47-1.11.28-1.24.15-1.23.15-1.02.29-.84.17-.93" filter="url(#a)"/><path d="m-40.09-66.85-.36 1.17-.35.7-.45.76-.55.9-.56 1.02-.51 1.13-.48 1.22-.43 1.27-.42 1.28-.39 1.24-.4 1.19-.4 1.13-.4 1.1-.42 1.08-.43 1.14-.41 1.21-.37 1.29-.25 1.29-.09 1.24.04 1.17.01 1.17-.3 1.47 4.98-20.8 1.3-2.41.53-.81.44-.65.54-.85.65-1.06.71-1.14.72-1.09.68-.98.62-.88.6-.86.62-.89.66-1 .71-1.11.75-1.17.72-1.13.67-.99.7-.84.9-.86 1.39-1.4-30.46 30.87 1.55-.71.68-.74.6-.71.75-.75.95-.79 1.12-.76 1.22-.59 1.22-.43 1.11-.4.95-.52.85-.64.91-.54 1.14-.24 1.26-.23 1.03-1.31-6.49 12.94-3.28-3.05-2.03-.9.02 1.49.42 2.3-.25 1.93-1.27 1.06-2.22.16-2.77-.39-2.81-.39-2.45.05-1.99.54-1.73.75-1.67.59-1.82.12-3.02-1.46m23.54 6.22.81.45.02 1.37-.38 1.39-.27 1.35.05 1.36.31 1.37.35 1.33.28 1.3.19 1.31.18 1.37.26 1.48.35 1.55.42 1.56.38 1.5.24 1.39.02 1.28-.1 1.15.07 1.07.51 1.15.78 1.54-.01 2.21" filter="url(#a)"/><path d="m-54.06-39.13-5.25-3.97-2.33-.18-.63 1.42.15 1.86.37 1.79.1 1.44-.47 1.03-.99.73-1.17.71-1.1.96-1.04 1.26-1.24 1.36-1.67 1.19-2.17.85-2.77.79 17.53-2.25.46-1.63.41-.91.48-.85.5-.99.47-1.15.43-1.2.41-1.19.42-1.15.45-1.19.49-1.27.55-1.34.58-1.31.58-1.17.55-.97.48-.82.45-.89.59-1.25.93-1.89M57.36-27.4l-1.1-.29-.89-.67-.52-1.11-.47-1.21-.61-1.13-.72-1-.69-.94-.57-.96-.49-.98-.5-.99-.57-.96-.64-.95-.64-.92-.66-.86-.69-.78-.79-.67-.9-.61-.89-.62-.75-.69-.61-.7-.68-.59-1.04-.43-1.22-.88" filter="url(#a)"/><path d="m59.2-55.7-1.15 2.78-.33 1.95.16 1.26.41 1.1.49 1.24.44 1.4.35 1.48.19 1.47-.03 1.5-.26 1.59-.46 1.73-.54 1.87-.5 1.92-.33 1.85-.04 1.68.09 1.48-.88 1.32" filter="url(#a)"/><path d="m56.47-30.8.71 1.45.79.75.71.8.59 1.07.46 1.27.35 1.33.23 1.31.15 1.29.12 1.34.19 1.48.3 1.66.41 1.73.45 1.48.43.73.31-.62m16.01 4.46-1.37-1.49-2.42-1.32-1.94-1.22-1.5-1.16-1.16-1.32-.79-1.59-.46-1.79-.38-1.75-.64-1.51-1.09-1.19-1.5-.97-1.58-.93-1.34-1.04-.98-1.12-.84-1.04-1.03-.79-1.25-.67-1.13-.94-1.25-.98" filter="url(#a)"/><path d="m56.03-32.09.87 1.18.35 1.3.44 1.05.77.9 1.18.87 1.48.86 1.55.87 1.39.94 1.13 1.07 1.07 1.23 1.28 1.36 1.66 1.43 1.88 1.41 1.78 1.31 1.54 1.15 1.46 1.13 1.59 1.4 1.18 1.39M54.91-36.72l-.7.84.42 1.2.49 1.33.36 1.37.24 1.35.18 1.29.14 1.25.09 1.26.04 1.29v1.35l-.08 1.38-.13 1.38-.19 1.36-.23 1.39-.3 1.51-.38 1.67-.44 1.77-.41 1.56-.28.85-.13-.42" filter="url(#a)"/><path d="m53.76-39.44.64-.05.92.51 1.19.4 1.22.48 1.05.76.83 1.05.65 1.24.58 1.28.64 1.2.78 1.08.91 1 .89 1.04.74 1.23.64 1.38.82 1.3 1.25.98 1.39.49.14-.58-35.1-38.68.87.15.85.63.8.63.83.54.9.5.94.51.93.57.92.58.91.53.9.47.81.49.64.65.45.88.32 1.06.39 1.04.71.78 1.17.47 1.31.47.8.8 1.5 16.63.64-.31.29-1.05-.03-1.27-.19-1.37-.21-1.42-.21-1.37-.2-1.24-.22-1.17-.26-1.19-.3-1.28-.31-1.33-.24-1.29-.15-1.15-.17-1.02-.37-.9-11.04-17.36-.13-1.62-.4-1.52-.61-.94-.66-.75-.65-.8-.62-.89-.57-.99-.5-1.12-.42-1.26-.37-1.36-.4-1.35-.52-1.28-.67-1.17-.81-1.07-.92-1.02-1.18-1.51" filter="url(#a)"/><path d="m15.16-81.81 1.51.26 1.35.36 1.11.25.96.21.88.21.83.19.83.19.86.23.89.31.94.4.97.48.98.52.96.5.93.46.87.42.81.39.74.42.71.47.71.54.73.63.76.75.87.87" filter="url(#a)"/><path d="m35.36-72.75-.81-1-.71-.87-.7-.7-.66-.64-.64-.68-.62-.75-.65-.83-.71-.9-.78-.93-.86-.9-.9-.86-.91-.82-.88-.76-.82-.7-.78-.62-.76-.55-.79-.47-.85-.43-.9-.47-1.02-.72-1.66-1.45" filter="url(#a)"/><path d="m32.52-75.56 1 .86.78.83.69.78.66.8.65.87.68.98.69 1.03.71 1.04.7 1.01.7.96.69.96.69 1 .69 1.07.7 1.13.73 1.16.73 1.16.63 1.04" filter="url(#a)"/><path d="m38.37-65.38-.33-.94-.71-1.09-.77-1.03-.73-.96-.67-.89-.64-.83-.65-.78-.64-.77-.62-.78-.6-.79-.6-.8-.6-.81-.63-.82-.69-.84-.77-.85-.84-.83-.92-.81-.95-.75-.93-.68-.86-.57-.74-.47-.59-.46-.33-.79-2.57-.97.75-1.24.93-.4.84.37.76.6.77.55.87.41 1.01.22h1.17l1.31-.21 1.36-.32 1.31-.26 1.17-.01.96.35.75.72.62.99.59 1.06.67.9.81.62.97.32 1.05.14 1.05.18 1.03.36 1.12.39 1.16-.1M5.59-89.6l.64.12.79.08.94.1 1 .15 1.02.15.99.11.96.04.92-.01h.9l.89.06.85.14.82.22.8.26.84.29.93.3 1.01.28 1.05.26 1.03.28.98.3.77.17" filter="url(#a)"/></g><path fill="none" stroke="#000" stroke-linejoin="round" stroke-width="3" d="M-9.76 20.94Q9.31 31.065-.225-4.946" filter="url(#a)"/><path fill="#A1CC66" stroke="#000" stroke-linejoin="round" stroke-width="3" d="m-25.26 73.16.59-1.07.6-1.04.6-1.02.61-1 .62-.97.63-.94.62-.92.64-.9.64-.87.65-.85.65-.82.65-.8.66-.78.66-.75.67-.73.67-.7.67-.68.68-.66.68-.63.68-.61.68-.59.69-.56.69-.54.68-.51.69-.5.7-.47.69-.45.69-.42.69-.4.69-.38.69-.36.69-.33.69-.31.69-.29.69-.27.68-.25.68-.22.69-.2.67-.18.68-.15.67-.14.67-.11.67-.09.66-.08.66-.04.65-.03.65-.01.64.02.64.03.64.06.62.08.63.1.61.12.61.14.6.16.6.18.59.21.58.22.57.24.57.27.56.28.55.3.54.33.53.34.52.36.51.39.51.4.49.42.48.45.48.46.46.48.45.5.44.52.42.54.42.55.4.58.39.6.38.61.37.63.35.66.34.67.32.69.32.7.29.73.29.74.26.77.26.78.24.79.22.82.21.83.19.86.17.87.16.88.14.91.12.92.11.94.09.96.07.97.06.99.03 1.01-.03-1.01-.06-.99-.07-.97-.09-.96-.11-.94-.12-.92-.14-.91-.16-.88-.17-.87-.19-.86-.21-.83-.22-.82-.24-.79-.26-.78-.26-.77-.29-.74-.29-.73-.32-.7-.32-.69-.34-.67-.35-.66-.37-.63-.38-.61-.39-.6-.4-.58-.42-.55-.42-.54-.44-.52-.45-.5-.46-.48-.48-.46-.48-.45-.49-.42-.51-.4-.51-.39-.52-.36-.53-.34-.54-.33-.55-.3-.56-.28-.57-.27-.57-.24-.58-.22-.59-.21-.6-.18-.6-.16-.61-.14-.61-.12-.63-.1-.62-.08-.64-.06-.64-.03-.64-.02-.65.01-.65.03-.66.04-.66.08-.67.09-.67.11-.67.14-.68.15-.67.18-.69.2-.68.22-.68.25-.69.27-.69.29-.69.31-.69.33-.69.36-.69.38-.69.4-.69.42-.69.45-.7.47-.69.5-.68.51-.69.54-.69.56-.68.59-.68.61-.68.63-.68.66-.67.68-.67.7-.67.73-.66.75-.66.78-.65.8-.65.82-.65.85-.64.87-.64.9-.62.92-.63.94-.62.97-.61 1-.6 1.02-.6 1.04" filter="url(#a)"/></svg>