<svg xmlns="http://www.w3.org/2000/svg" width="500" height="500" viewBox="-100 -100 200 200"><defs><clipPath id="c"><path d="m22.11 2.84-.08-.31-.1-.31-.13-.32-.15-.32-.18-.32-.2-.32-.23-.31-.24-.32-.28-.31-.29-.31-.32-.31-.33-.29-.36-.3-.38-.28-.41-.28-.39-.4-.42-.38-.45-.37-.49-.35-.51-.33-.54-.31-.57-.3-.59-.27-.62-.25-.65-.23-.67-.21-.7-.19-.71-.16-.74-.14-.75-.12-.78-.1-.79-.07-.8-.06-.82-.03-.83-.01-.84.01-.85.02-.85.05-.86.07-.87.08-.87.1-.86.12-.87.13-.87.15-.86.16-.86.17-.86.19-.84.19-.84.21-.83.21-.82.22-.81.23-.79.24-.78.24-.76.25-.75.24-.74.25-.71.26-.7.25-.68.25-.67.26-.64.25-.63.25-.6.24-.59.25-.57.24-.56.23-.53.24-.52.23-.5.23-.49.23-.47.22-.45.22-.43.22-.42.21-.39.2-.38.2-.36.2-.35.19-1.49 2.97.41-.02.43-.02.44-.03.46-.02.46-.03.48-.02.49-.03.51-.02.51-.02.53-.02.54-.02.55-.02.56-.02.57-.01.58-.02.6-.01.61-.01.63-.01.63-.01h.65l.66-.01.67.01h.68l.7.01.7.01.71.02.71.02.73.03.73.03.74.03.74.04.75.05.75.05.76.05.75.06.76.06.76.06.76.07.76.07.75.07.76.08.75.07.75.08.75.08.74.08.73.07.73.08.72.07.71.08.71.07.7.06.69.06.67.06.67.04.66.05.65.03.63.03.63.01.61.01h.6l.58-.02.57-.02.56-.04.54-.05.48-.03.47-.04.46-.05.45-.06.43-.07.42-.08.41-.09.39-.1.37-.12.36-.12.34-.14.32-.15.31-.16.29-.18.27-.19"/></clipPath><clipPath id="b"><path d="m-25.18 2.16.15-.38.18-.38.19-.38.22-.39.25-.38.27-.38.29-.38.31-.37.34-.36.36-.36.39-.34.41-.34.43-.32.45-.31.48-.29.43-.48.46-.46.51-.42.54-.4.58-.36.62-.33.64-.3.69-.27.71-.23.75-.2.77-.16.8-.13.83-.1.85-.07.87-.04.89-.01.91.02.92.05.93.08.95.1.95.12.97.15.96.17.97.19.97.2.96.23.97.24.95.25.95.26.95.28.93.29.91.29.91.3.89.31.87.31.86.31.84.32.82.31.8.32.78.31.75.31.74.31.71.31.69.3.67.29.64.29.62.28.6.28.58.27.56.26.54.26.51.24.5.25.48.23.45.23.44.22.42.21.39.21.38.2.36.19.34.18.33.17.3.17.28.16 1.07 2.25-.38-.05-.4-.06-.4-.05-.43-.05-.43-.05-.45-.06-.46-.05-.47-.05-.49-.04-.5-.05-.52-.05-.53-.04-.54-.04-.55-.04-.57-.03-.58-.04-.6-.03-.62-.03-.63-.02-.64-.03-.66-.02-.68-.01-.69-.01h-1.42l-.73.01-.75.01-.75.02-.77.03-.78.03-.78.04-.8.04-.81.05-.81.06-.82.06-.82.07-.83.07-.83.08-.84.09-.83.08-.84.1-.84.09-.83.1-.83.09-.83.1-.82.11-.82.1-.81.1-.8.09-.79.1-.78.09-.76.09-.76.08-.74.08-.73.07-.71.07-.69.05-.68.05-.65.04-.64.03-.62.01-.6.01-.58-.01-.56-.02h-.53l-.51-.01-.51-.02-.48-.03-.47-.04-.46-.04-.44-.06-.43-.07-.41-.07-.39-.09-.38-.1-.36-.12-.34-.12-.32-.14-.3-.15"/></clipPath><filter id="a"><feTurbulence baseFrequency=".05" numOctaves="3" result="noise" type="noise"/><feDisplacementMap in="SourceGraphic" in2="noise" scale="2"/></filter></defs><rect width="100%" height="100%" x="-100" y="-100" fill="#D6A6F2"/><path fill="#67DF20" stroke="#000" stroke-linejoin="round" stroke-width="1.667" d="m63.64.08-.16 1.1-.07.99.07 3.12-.2 1.43.11-1.2.04 1.17-.26 2.97-.21 1.7-.1.32.05 1.41-.18.8-.61 4.25.05.88-.16-.02-.34 2.27-.16 1.41-.12-.05-.13 2.07-.32.55-.73 2.68v.69l-.15.9-1.04 3.41-.53 2.26.25-.45-.62 1.51-.2.4.37-.84-1.23 3.53-.78 1.81.22.02-.17.28-1.79 4.5-.02.06-.32.56-1 1.96-.22.06-.45 1.77-.65.98-.06.66-.84 1.76-.1-.31-.98 1.81-.78 1.77-.26.54-1.82 2.1-.23.79-.73 1.26-.14.18-.67 1.11-1.04 1-.77 1.68-.29.01-1.73 2.04-.56.77.18-.48-1.28 2.21-.3-.05-1.83 1.62.09-.17-1.58 2.15-1.15.46-.2.26-.79 1.13.56-.6-1.92 1.53-1.38 1.26-.37.01-.81.95-.23.25-3.32 2.28 1.58-1.14-1.12.7-2.31 1.53-.41.18.03.32-1.38.4-2.7 1.3 1.46-.54-2.33 1-.44.22-1.4.79-.07.11-1.37.41-1.62.28.48-.13-2.58.93-.47.15-.55.09.05.1-1.41.14-2.54.47-1.12.48-.16-.04.3-.04-2.13.12-.92.27-1.22-.1-.97.27-1.65-.35-1.31.21 1.18.12-4.05-.23.35-.14-.77-.22-.91.14.12-.07-2.64-.55-1.02-.05-1.44-.3-.56-.06-.41-.4-.03-.06-2.16-.4-2.32-.94 1.22.79-.58-.27-3.32-1.31.88-.1-2.2-.77-.35-.11-1.05-.65-.25-.22-.78-.12-1.19-1.1-1.24-.57-1.1-.69.27.38-2.56-2.09-1.5-.5.86.14-.46-.32-1.53-.83-1.13-1.21-.85-.6-.32-.29-.92-1.13-1.16-.5-.54-.66-2.15-2.4 1.43 1.27-1.94-1.38-1.24-1.42-.1-.7-.99-.54-.39-.85-.52-.8-.99-1.12-1.53-1.81.4.52-1.75-2.6-.76-.92-1.43-2.36 1.34 1.85-1.37-2.05.14.06-.87-1.17-1.62-2.9-.56-.95-.77-1.47-.02-.23-.72-1.3-.36-.61-.2-1.01-1.62-3.57.57 1.44-1.19-3.05-.62-1.55.36 1.21-.62-2.31-.77-1.5h.18l-1.28-3.28.36 1.21-.64-2.09-1.05-3.52.46 1.11-1.09-2.98-.13-1.24-.47-1.58.09-.44-.5-2.03.04.54-.74-3.64.23.5-.82-4.56.5 1.89-.43-2.48-.33-2.16-.08-.39.2.78-.4-3.54-.11-1.44-.33-1.64-.13-2.99.16-.31.08 1.16-.28-2.88.01-2.02-.07-2.18.02-.94.15-.34-.01-2.99.14-1.5v-.52l.12-2.14-.05-.6.19-.74-.03-.67.49-3.08.12-2.7.03.66.19-1.7.27-1.76-.03-.03.5-2.54.07-.25-.01-.35 1.02-3.96.31-1.35.34-1.72.4-1.57.15-1.15-.14.55.79-2.53.46-.4.27-1.65-.14-.04.78-1.9.55-.76.44-2.35.93-2.23-.55 1.36.56-1.7 1.08-2.15.16-.47 1.01-2.2.69-1.08 1.05-2.54-.28.71 1.09-1.8.18-.73 1.94-3.27.44-.69.15-.48.69-.73.36-.81.14-.19.55-1.06.66-.93 1.26-1.41.49-.47.94-1.36.79-1.13 1.3-1.33-.13-.09 1.29-1.44 1.26-1.36-.37.45 1.49-1.56.45-.66.93-.6.32-.44 2.06-1.83.13-.16.85-.62 1.27-.8 1.15-1.04-.29.09.11.13 1.24-.93 2.37-1.62 1.05-.48.04-.43-.32.32 2.18-1.25 1.21-.57h-.16l2.48-1.37.65-.41.48.14 2.74-1.39.4.19.21-.34v.02l1.07-.2 1.58-.65.66-.13 1.29-.43.87-.42.97.2 2.86-.44.02-.27.62.01-.83-.01.83.24 1.98-.2.94-.37 2.23.06.71-.18.32.17.4-.04.36.08 1.76.01 2.77.27.04.02 1.91.38-.58-.38.43.12 1.4.26 2.13.67-.27-.15.77.05 1.84.56.47.58 1.02-.02-.02-.11 1.35.69 2.89 1.08.84.38.18.36.16-.2L24-82.64l-.71-.5 1.44.86.95.66.47.32 1.14.87.22-.06 2.57 1.9-.65-.44.14.04 1.73 1.63.32-.05 1.9 1.13.44 1.33.41-.09.77.88 1.37 1.31 1.42 1.14-.04.41-.1-.75 1.69 2.07 1.26 1.87 1.32.93-1.21-1.11 2.19 2.76.06-.36 1.26 1.79 1.33 1.72.41 1.08.11-.33.38.97.71 1.16.92 1.02.46 1.65 1.27 1.78.44 1.24-.25-1.07 1.53 2.63-.31-.35 1.66 3.23-.2-.13.38 1.07.9 1.71.9 2.06-.33-.61.6 1.43 1.34 3.26-.53-1.15.88 2.69.26-.13.32 1.52.9 2.63.16.76h.1l.96 3.65.1.82.18-.07.36 1.86.16.96.48 1.93.31 1.47.47 2.53.11.78.31 1.66.06.46.31 3.29.07.25.25 1.31.06-.5.19 2.78v1.4l.03.41.35 3.3-.11.88.12 1.6.09 1.27-.12.6.2 1.7-.16 1.1" filter="url(#a)"/><path fill="#fff" d="m-25.18 2.16.15-.38.18-.38.19-.38.22-.39.25-.38.27-.38.29-.38.31-.37.34-.36.36-.36.39-.34.41-.34.43-.32.45-.31.48-.29.43-.48.46-.46.51-.42.54-.4.58-.36.62-.33.64-.3.69-.27.71-.23.75-.2.77-.16.8-.13.83-.1.85-.07.87-.04.89-.01.91.02.92.05.93.08.95.1.95.12.97.15.96.17.97.19.97.2.96.23.97.24.95.25.95.26.95.28.93.29.91.29.91.3.89.31.87.31.86.31.84.32.82.31.8.32.78.31.75.31.74.31.71.31.69.3.67.29.64.29.62.28.6.28.58.27.56.26.54.26.51.24.5.25.48.23.45.23.44.22.42.21.39.21.38.2.36.19.34.18.33.17.3.17.28.16 1.07 2.25-.38-.05-.4-.06-.4-.05-.43-.05-.43-.05-.45-.06-.46-.05-.47-.05-.49-.04-.5-.05-.52-.05-.53-.04-.54-.04-.55-.04-.57-.03-.58-.04-.6-.03-.62-.03-.63-.02-.64-.03-.66-.02-.68-.01-.69-.01h-1.42l-.73.01-.75.01-.75.02-.77.03-.78.03-.78.04-.8.04-.81.05-.81.06-.82.06-.82.07-.83.07-.83.08-.84.09-.83.08-.84.1-.84.09-.83.1-.83.09-.83.1-.82.11-.82.1-.81.1-.8.09-.79.1-.78.09-.76.09-.76.08-.74.08-.73.07-.71.07-.69.05-.68.05-.65.04-.64.03-.62.01-.6.01-.58-.01-.56-.02h-.53l-.51-.01-.51-.02-.48-.03-.47-.04-.46-.04-.44-.06-.43-.07-.41-.07-.39-.09-.38-.1-.36-.12-.34-.12-.32-.14-.3-.15" filter="url(#a)" transform="translate(28.88 -21.37)"/><path fill="#fff" d="m22.11 2.84-.08-.31-.1-.31-.13-.32-.15-.32-.18-.32-.2-.32-.23-.31-.24-.32-.28-.31-.29-.31-.32-.31-.33-.29-.36-.3-.38-.28-.41-.28-.39-.4-.42-.38-.45-.37-.49-.35-.51-.33-.54-.31-.57-.3-.59-.27-.62-.25-.65-.23-.67-.21-.7-.19-.71-.16-.74-.14-.75-.12-.78-.1-.79-.07-.8-.06-.82-.03-.83-.01-.84.01-.85.02-.85.05-.86.07-.87.08-.87.1-.86.12-.87.13-.87.15-.86.16-.86.17-.86.19-.84.19-.84.21-.83.21-.82.22-.81.23-.79.24-.78.24-.76.25-.75.24-.74.25-.71.26-.7.25-.68.25-.67.26-.64.25-.63.25-.6.24-.59.25-.57.24-.56.23-.53.24-.52.23-.5.23-.49.23-.47.22-.45.22-.43.22-.42.21-.39.2-.38.2-.36.2-.35.19-1.49 2.97.41-.02.43-.02.44-.03.46-.02.46-.03.48-.02.49-.03.51-.02.51-.02.53-.02.54-.02.55-.02.56-.02.57-.01.58-.02.6-.01.61-.01.63-.01.63-.01h.65l.66-.01.67.01h.68l.7.01.7.01.71.02.71.02.73.03.73.03.74.03.74.04.75.05.75.05.76.05.75.06.76.06.76.06.76.07.76.07.75.07.76.08.75.07.75.08.75.08.74.08.73.07.73.08.72.07.71.08.71.07.7.06.69.06.67.06.67.04.66.05.65.03.63.03.63.01.61.01h.6l.58-.02.57-.02.56-.04.54-.05.48-.03.47-.04.46-.05.45-.06.43-.07.42-.08.41-.09.39-.1.37-.12.36-.12.34-.14.32-.15.31-.16.29-.18.27-.19" filter="url(#a)" transform="translate(-34.31 -21.78)"/><g fill="none" stroke="#000" transform="translate(28.88 -21.37)"><path stroke-linejoin="round" stroke-width="1.667" d="m-25.53 5.19-.05-.2-.03-.23-.02-.26.01-.28.02-.31.04-.32.06-.34.09-.35.1-.37.13-.37.15-.38.18-.38.19-.38.22-.39.25-.38.27-.38.29-.38.31-.37.34-.36.36-.36.39-.34.41-.34.43-.32.45-.31.48-.29.43-.48.46-.46.51-.42.54-.4.58-.36.62-.33.64-.3.69-.27.71-.23.75-.2.77-.16.8-.13.83-.1.85-.07.87-.04.89-.01.91.02.92.05.93.08.95.1.95.12.97.15.96.17.97.19.97.2.96.23.97.24.95.25.95.26.95.28.93.29.91.29.91.3.89.31.87.31.86.31.84.32.82.31.8.32.78.31.75.31.74.31.71.31.69.3.67.29.64.29.62.28.6.28.58.27.56.26.54.26.51.24.5.25.48.23.45.23.44.22.42.21.39.21.38.2.36.19.34.18.33.17.3.17.28.16.27.15.25.15.24.14.21.13.2.12.19.12.16.11.16.1.14.09.12.09" filter="url(#a)"/><path stroke-linejoin="round" stroke-width="2.222" d="m-25.84 4.48.11.29.12.27.14.26.17.24.18.23.21.22.23.2.24.19.27.18.29.16.3.15.32.14.34.12.36.12.38.1.39.09.41.07.43.07.44.06.46.04.47.04.48.03.51.02.51.01h.53l.56.02.58.01.6-.01.62-.01.64-.03.65-.04.68-.05.69-.05.71-.07.73-.07.74-.08.76-.08.76-.09.78-.09.79-.1.8-.09.81-.1.82-.1.82-.11.83-.1.83-.09.83-.1.84-.09.84-.1.83-.08.84-.09.83-.08.83-.07.82-.07.82-.06.81-.06.81-.05.8-.04.78-.04.78-.03.77-.03.75-.02.75-.01.73-.01h1.42l.69.01.68.01.66.02.64.03.63.02.62.03.6.03.58.04.57.03.55.04.54.04.53.04.52.05.5.05.49.04.47.05.46.05.45.06.43.05.43.05.4.05.4.06.38.05.37.05.35.05.34.05.33.05.32.05.31.05.29.05.28.04.27.05.26.04" filter="url(#a)"/><circle cx="8.596" cy="1.206" r="3.458" clip-path="url(#b)" filter="url(#a)"/><circle cx="8.411" cy="4.356" r="4.842" clip-path="url(#b)" filter="url(#a)"/><circle cx="8.186" cy="1.656" r="4.672" clip-path="url(#b)" filter="url(#a)"/><circle cx="5.031" cy="4.136" r="4.616" clip-path="url(#b)" filter="url(#a)"/><circle cx="9.636" cy="5.131" r="3.864" clip-path="url(#b)" filter="url(#a)"/><circle cx="6.006" cy="2.126" r="4.578" clip-path="url(#b)" filter="url(#a)"/><circle cx="5.996" cy="1.961" r="4.098" clip-path="url(#b)" filter="url(#a)"/><circle cx="6.206" cy="1.671" r="3.308" clip-path="url(#b)" filter="url(#a)"/><circle cx="5.096" cy="4.861" r="4.006" clip-path="url(#b)" filter="url(#a)"/><circle cx="5.976" cy="1.436" r="3.006" clip-path="url(#b)" filter="url(#a)"/></g><g fill="none" stroke="#000" transform="translate(-34.31 -21.78)"><path stroke-linejoin="round" stroke-width="2.222" d="m21.43 5.31.19-.17.16-.19.13-.22.11-.23.08-.25.05-.26.03-.27v-.29l-.02-.29-.05-.3-.08-.31-.1-.31-.13-.32-.15-.32-.18-.32-.2-.32-.23-.31-.24-.32-.28-.31-.29-.31-.32-.31-.33-.29-.36-.3-.38-.28-.41-.28-.39-.4-.42-.38-.45-.37-.49-.35-.51-.33-.54-.31-.57-.3-.59-.27-.62-.25-.65-.23-.67-.21-.7-.19-.71-.16-.74-.14-.75-.12-.78-.1-.79-.07-.8-.06-.82-.03-.83-.01-.84.01-.85.02-.85.05-.86.07-.87.08-.87.1-.86.12-.87.13-.87.15-.86.16-.86.17-.86.19-.84.19-.84.21-.83.21-.82.22-.81.23-.79.24-.78.24-.76.25-.75.24-.74.25-.71.26-.7.25-.68.25-.67.26-.64.25-.63.25-.6.24-.59.25-.57.24-.56.23-.53.24-.52.23-.5.23-.49.23-.47.22-.45.22-.43.22-.42.21-.39.2-.38.2-.36.2-.35.19-.33.19-.31.18-.29.17-.28.17-.26.16-.24.16-.23.16-.21.14-.2.14-.18.14" filter="url(#a)"/><path stroke-linejoin="round" stroke-width="2.222" d="m22.7 2.55-.02.34-.06.33-.08.31-.1.3-.14.28-.16.27-.18.25-.2.23-.23.22-.24.21-.27.19-.29.18-.31.16-.32.15-.34.14-.36.12-.37.12-.39.1-.41.09-.42.08-.43.07-.45.06-.46.05-.47.04-.48.03-.54.05-.56.04-.57.02-.58.02h-.6l-.61-.01-.63-.01-.63-.03-.65-.03-.66-.05-.67-.04-.67-.06-.69-.06-.7-.06-.71-.07-.71-.08-.72-.07-.73-.08-.73-.07-.74-.08-.75-.08-.75-.08-.75-.07-.76-.08-.75-.07-.76-.07-.76-.07-.76-.06-.76-.06-.75-.06-.76-.05-.75-.05-.75-.05-.74-.04-.74-.03-.73-.03-.73-.03-.71-.02-.71-.02-.7-.01-.7-.01h-.68l-.67-.01-.66.01h-.65l-.63.01-.63.01-.61.01-.6.01-.58.02-.57.01-.56.02-.55.02-.54.02-.53.02-.51.02-.51.02-.49.03-.48.02-.46.03-.46.02-.44.03-.43.02-.41.02-.41.03-.39.02-.37.02-.37.02-.35.02-.34.02-.32.02-.32.01-.3.02-.29.01" filter="url(#a)"/><circle cx="-11.603" cy="-1.897" r="3.276" clip-path="url(#c)" filter="url(#a)"/><circle cx="-8.308" cy="-2.692" r="4.018" clip-path="url(#c)" filter="url(#a)"/><circle cx="-11.923" cy="-2.797" r="4.016" clip-path="url(#c)" filter="url(#a)"/><circle cx="-12.488" cy="-.972" r="4.78" clip-path="url(#c)" filter="url(#a)"/><circle cx="-11.338" cy="-3.187" r="4.68" clip-path="url(#c)" filter="url(#a)"/><circle cx="-12.903" cy="-4.017" r="4.512" clip-path="url(#c)" filter="url(#a)"/><circle cx="-8.503" cy="-2.832" r="4.6" clip-path="url(#c)" filter="url(#a)"/><circle cx="-11.288" cy=".463" r="3.954" clip-path="url(#c)" filter="url(#a)"/><circle cx="-8.583" cy="-2.692" r="3.066" clip-path="url(#c)" filter="url(#a)"/><circle cx="-10.678" cy="-1.367" r="3.828" clip-path="url(#c)" filter="url(#a)"/></g><g fill="none" stroke="#133E86" stroke-linejoin="round" stroke-width="2"><path d="m27.29-80.43.76.43.93.66.78.6.78.62.83.66.86.69.79.67.68.58.53.48.36.34.15.17-.07-.02-.32-.23-.56-.42-.78-.6-1.06-.82-1.47-1.16-1.96-1.57M54.1-46.72l.52 1.24.32.84.32.88.27.83.17.66.06.46-.05.28-.19.1-.32-.12-.49-.39-.67-.69-.86-1.04-1.08-1.42-1.29-1.81-1.52-2.21-1.76-2.61-2.01-3.03-2.26-3.49-2.53-4-2.84-4.57-3.23-5.15" filter="url(#a)"/><path d="m49.95-55.05.28.65.28.49.3.63.22.68.09.6-.06.45-.24.28-.43.07-.62-.15-.85-.39-1.08-.63-1.34-.9-1.61-1.18-1.88-1.46-2.16-1.75-2.43-2.03-2.7-2.34-3-2.66-3.32-3.01-3.66-3.4-4.05-3.8-4.49-4.26-4.93-4.7m-25.13-3.61.83-.22 1.06-.27 1.15-.25 1.16-.21 1.01-.17.78-.13.55-.08.35-.03h.23l.09.04-.1.08-.39.14-.76.22-1.2.3-1.61.38-1.9.42-2.01.43" filter="url(#a)"/><path d="m46.59-60.66.73 1.15.79 1.31.76 1.38.7 1.25.61 1.05.51.87.42.73.32.6.2.43.04.19-.15-.16-.38-.58-.61-1.05-.87-1.52-1.07-1.92-1.21-2.16m-60.24-28.38.9-.19 1.24-.2 1.49-.13 1.63-.05h1.63l1.56.06 1.51.11 1.55.16 1.64.17 1.75.17 1.81.17 1.8.16 1.71.16 1.59.15 1.44.15 1.32.13 1.2.1 1.05.06.81.01.43-.09-.03-.21-.27-.25m41.71 46.25-.16-.12.08.6.02.65-.14.58-.34.4-.57.16-.8-.12-1.05-.42-1.32-.75-1.6-1.08-1.88-1.4-2.17-1.7-2.46-2.01-2.76-2.35-3.08-2.73-3.44-3.14-3.85-3.6-4.3-4.08-4.78-4.56-5.16-5.04-5.41-5.56-5.51-6.05" filter="url(#a)"/><path d="m39.48-69.98.92 1.28.3.56-.12.3-.4.22-.69.13-1.08-.03-1.57-.28-2.14-.58-2.72-.92-3.23-1.23-3.71-1.51-4.19-1.78-4.76-2.06-5.5-2.41-6.41-2.83-7.27-3.32M46.1-61.3l.14.08.16.53.09.7-.07.71-.29.6-.57.39-.88.15-1.19-.06-1.53-.24-1.88-.41-2.25-.56-2.62-.73-2.99-.94-3.38-1.16-3.75-1.41-4.13-1.66-4.53-1.93-4.98-2.18-5.49-2.44-6.07-2.68-6.66-2.92-7.29-3.08" filter="url(#a)"/><path d="m31.62-77.41 1.28 1.02.66.78.42.62.29.57.13.51-.09.42-.31.32-.55.26-.78.2-1.05.13-1.37.03-1.69-.07-2.02-.18-2.36-.28-2.7-.41-3.05-.55-3.41-.73-3.8-.92L7-76.78l-4.7-1.21-5.21-1.31-5.74-1.39-6.35-1.47m30.06-4.67.53.18 1.18.5 1.23.54 1.02.48.81.42.66.38.52.36.35.32.15.27-.08.21-.31.15-.55.09-.78.01-1.03-.06-1.32-.14-1.63-.21-1.96-.29-2.26-.35-2.53-.45L6.31-85l-2.95-.71-3.25-.82-3.87-.86" filter="url(#a)"/><path d="m10.96-88 .87.2.73.31.34.29-.03.25-.31.26-.62.32-1.02.34-1.52.32-2.1.26-2.69.21-3.34.17-4.11.14-4.99.12-5.79.05m55.68 17.58-.22-.04.53.73.62.83.51.77.3.59.06.37-.19.14-.42-.04-.62-.2-.85-.36-1.11-.57-1.41-.84-1.76-1.17-2.12-1.5-2.47-1.82-2.79-2.11-3.15-2.41-3.53-2.77-3.94-3.14-4.21-3.47m-1.72-3.2.63.41.86.35 1.16.5 1.4.67 1.51.77 1.5.81 1.45.81 1.39.82 1.34.8 1.27.77 1.17.74 1.08.69.96.62.83.55.7.45.54.34.37.21.18.08-.02-.06-.21-.21-.42-.33-.57-.44-.53-.42" filter="url(#a)"/><path d="m5.9-88.92.45.08.56.07.47.07.49.11.49.15.44.19.28.2.09.21-.14.22-.38.24-.63.25-.86.28-1.1.3-1.37.3-1.68.3-2.03.27-2.46.25-2.93.26-3.49.27-4.06.29-4.7.38m30.7-2.58.82.07 1.05.37 1.4.62 1.51.74 1.48.76 1.4.75 1.34.76 1.28.73 1.19.71 1.08.64.93.57.79.48.62.38.44.26.26.15.06.02-.13-.11-.36-.26-.65-.46-1-.69" filter="url(#a)"/><path d="m-15.51-86.64 4.62.62 1.32 2.25-1.09 3.44L-12-76.3l-1.11 3.87.18 3.08 2.42 2.12 4.18 1.14 4.22.04 2.56-1.26.29-2.5L-.47-73l-1.05-2.98.7-1.99 2.7-.7 2.82.35-.59.8-6.56.86-9.58 1.37 1.16 2.02 40.95-5.32" filter="url(#a)"/><path d="m.29-89.41-5.26 2.89 7.22.96 7.68 2.02 7.6 3.96 7.84 5.65 7.06 6.18 4.49 5.05.33 2.54-4.39-.27-8.28-2.26-10.04-2.81-9.14-2.29-6.43-1.61-3.89-1.75-2.94-3-2.75-4.03-4.45-.99-25.67 10.51" filter="url(#a)"/><path d="m-46.73-60.69 13.26-10.89 7.84-3.86 9.38-3.93L-7.16-82l7.75-.57 5.75 1.17 3.24 2.32.76 2.99-1.2 2.96-2.68 1.98-3.49.44-2.48-.56 1.24-.68 4.47-1.32-3.55-3.28-34.97-.33" filter="url(#a)"/><path d="M52.82-49.5 30.89-67.03l-11.93-3.61-7.17-1.81-5.54-3.66-3.63-4.36-1.85-3.45-.92-1.85-.8-.12-.86 1.45-.53 2.76.58 3.65 2.47 4.01 4.71 3.85 6.23 3.2 5.59 2.05 1.66.18-4.93-2.45L3.48-72.5l-8.94-7.07 2.25-6.38L7.27-88.9" filter="url(#a)"/><path d="m58.7-34.26-28.19-8.08L.23-53.55l-12.44-11.12-1.71-8.78 1.85-5.85 2.49-3.53 2.33-2.05 1.73-1.15.71-.52-.41.03-1.22.6-1.47 1.28-1.06 2.17-.04 3.21 1.26 4.02 1.84 4.08.13 3.11-4.67 1.61-10.03.77-8.94.66 6.73-2.59 42.81-17.19" filter="url(#a)"/><path d="m20.3-84.43-29.61 9.78 1.68 5.66 12.92 7.16 15.5 5.25 11.45 1.42 4.15-2.26-2.78-4.87-6.66-5.78-6.3-4.75-2.9-2.16.27.7-.21 2.4-4.3 2-6.26-.72-.24-6.02-6-12.66" filter="url(#a)"/><path d="M54.67-45.27 14.53-69.85l-7.65-4.28-.65 1.94 2.67 2.2 5.39 1.86 5.31 1.57 2.19.45-1.77-1.5-4.12-3.11-3.68-3.24-1.07-1.6 2.11 1.06 4.11 3.48 3.67 4.45.66 3.42-3.5.64-6.16-2.97-5.17-5.99-1.82-6.8-1.94-4.66-18.83-3.37" filter="url(#a)"/><path d="M56.08-41.73 31.02-66.86l-1.76-4.05-3.21.48-8.66.48-9.84.67-6.28 1.49-1.02 1.75 3.1.88 5.02-.56 4.77-1.88 2.55-2.97-1.2-3.96-5.07-4.32-7.01-3.17-6.31-.95-3.4-.32 13.2-5.63" filter="url(#a)"/><path d="m56.96-39.04-8.35-4.92-22.27-8.48-19.16-8.49-7.32-4.62 2.56.14 7.39 2.89 8.5 2.76 7.4.63 4.91-1.77 2.18-2.62.76-1.09.37 1.06-2.29-.8-8.03-9.09 2.07-8.18" filter="url(#a)"/><path d="m7.85-88.52 8.36 3.13 7.1 4.45 1.76 4.16-5.96 3.06L7.8-72.18l-11.25-.28-6.71-1.69-1.09-1.81 2.71-.66 3.44.58 1.1.28-3.17-1.72-5.93-3.48-1.5-3.22L.29-89.41" filter="url(#a)"/><path d="m43.1-65.89-10.42-2.86-6.16-.99-.66 1.48-3.06 1.14-7.13.43-9.17.34-8.87.56-6.68.73-3.2.68.17.28 1.83-.58 1.69-1.56 1.81-1.86 4.42-.67 8.4 1.6 7.38.45-22.52-21.53" filter="url(#a)"/><path d="M20.3-84.43 8.49-87.2l-8.51-.5-4.28 1.27-.59 2.53 1.38 2.88 2.23 2.43 3.24 1.82 4.75 1.52 6.07 1.46 6.43 1.34 5.63 1.01 3.88.49 1.35-.06-2.04-.64-6.16-1.28-10.19-1.84-12.46-1.85-11.18-.51-4.97 2.64 9.99 6.29 51.3 4.1" filter="url(#a)"/><path d="m-39.44-70.1 37.02-1.49 7.63-1.24 1.74-.1-2.45.52-5.48-.07-5.56-1.46-2.88-2.65.74-2.85 3.4-2.14 4.3-1.05 3.9-.23 3.3.13 3.16.18 3.26.29 3.03 1.03 2.67 3.09 3.12 6.32.71 5.45-27.74-22.35" filter="url(#a)"/><path d="m-48.37-57.98 33.15-13.94 15.43.8 3.85 2.54-2.68-.12-6.12-2.35-6.72-2.52-4.99-1.14-1.59.68 2.69 2.06 6.65 2.54 8.78 2.07 7.98.84 4.28-.6-.68-1.62-4.43-1.73-4.83-.91-1.57.42 2.87 1.65 3.82 2.07-2.72 1.22-14.79-.6-19.76-2.31.91-10.5" filter="url(#a)"/><path d="m-15.51-86.64 44.67 30.37 6.71 5.03-5.28-.67-3.29-1.33.47-2.15.5-3.72-2.34-5.04-4.89-5.25-5.01-4.2-2.66-2.5.54-.93 2.65-.14 2.6-.35.77-1.24-1.43-2.05-2.64-2-2.82-.91-3.23.7-4 2.48 2.03 5.7 37.85 12.46" filter="url(#a)"/><path d="m.29-89.41-1.08 1.69-1.35-.04-1.26-.26-1.03-.2-.79-.06-.65.11-.64.28-.73.44-.85.55-.95.58-1 .58-.99.54-.96.5-.88.47-.8.45-.71.45-.63.49-.63.58-.74.69-.87.82-.84.82-.57.74 7.75-8.84-.61 3.37-.48 3.58-.66 1.64-.67.63-.53.61-.48.87-.56.93-.72.77-.84.62-.86.7-.79.99-.67 1.38-.58 1.63-.59 1.53-.69.9-.49-.35 5.62-18.41-.6-.72-1-.12-1.19.23-1.27.08-1.4-.4-1.52-.95-1.61-1.34-1.57-1.39-1.45-1.11-1.28-.64-1.13-.1-1.07.35-1.04.66-1.02.73-1.01.54-1.01.12-1.1-.36-1.34-.64-1.65-.7-2.07-1.5 25.33 7.26-.49-.07-1.03-.17-1.26-.11-1.26.03-1.22.21-1.17.26-1.17.15-1.2-.09-1.23-.39-1.3-.63-1.37-.79-1.42-.8-1.42-.66-1.31-.4-1.15-.05-.94.34-.8.65-.78.78-.92.66-1.15.35-1.37.05-1.53-.15-1.62-.38-1.66-.72 28.56 2.27.26-.04.52-.05.78-.19.93-.23 1.01-.19 1.07-.14 1.08-.09L-9-87.3l1-.01.88.06.78.17.7.29.74.39.84.46.98.47 1.06.43 1.03.37.87.36.64.4.42.51.34.43-36.38-.53 1.35-.29.94-.11.78.01.85-.11.98-.35 1.01-.63.94-.76.87-.69.88-.44.98-.12 1.11.11 1.2.17 1.23.11 1.25.05 1.28.11 1.35.19 1.39.04.99-.09" filter="url(#a)"/><path d="m-2.54-85.53-1.08-.1-.98-.01-.68-.14-.51-.28-.57-.31-.74-.24-.92-.08-1.03.09-1.06.2-1.06.22-1.03.14-1 .03-.91-.05-.76-.07-.54-.03-.34.01-.37-.34" filter="url(#a)"/><path d="m-36.95-97.26.18.64 1.21 1.24 1.41.12 1.3-.67 1.22-.46 1.29.49 1.5 1.61 1.73 2.38 1.85 2.52 1.78 2.04 1.55 1.2 1.34.43 1.23.04 1.31-.14 1.93-.67-2.74 1.39-.68-.11-1.02.16-1.19.06-1.31-.38-1.41-.88-1.43-1.17-1.39-1.15-1.34-.87-1.33-.59-1.39-.48-1.44-.59-1.46-.76-1.43-.86-1.43-.84-1.52-.88-1.76-1.12-2-1.4-2.08-1.28-1.88-.6-1.54.12-.98.96L.61-89.24l-.55-.06-1 .05-1.22.09-1.18.1-1.02.08-.82.07-.71.07-.7.09-.79.12-.91.17-.99.19-1.05.23-1.05.26-1.01.27-.94.27-.86.27-.79.26-.74.26-.76.28-.87.32-1 .39-1.11.46-1.23.57-1.78.97m0 0-.35.19-.89.38-.89.39-.81.42-.81.48-.89.53-.94.51-.95.41-.92.32-.88.27-.86.29-.85.38-.87.48-.9.55-.93.6-.93.59-.93.58-.9.57-.88.54-.87.52-.88.54-.9.61-.89.62-.38.46 17.39-9.73.54.26 1.06-.25 1.15-.15 1.21.18 1.28.51 1.29.58 1.2.33 1.03-.08.85-.39.71-.48.67-.31.73.02.84.37.97.63 1.03.72 1.05.62 1.09.45 1.29.32 1.9.16-26.83 1.59-.77.39-1.05.12-1.28-.09-1.23-.01-1.07.2-.99.3-1.05.19-1.13.06-1.15.1-1.05.35-.92.67-.87.88-.98.82-1.19.56-1.29.41-1.14.66-1.23 1.01" filter="url(#a)"/><path d="m-33.3-76.1-1.48 1.22-1.07.56-1.21-.1-1.53-.76-1.72-1.07-1.72-.98-1.65-.68-1.61-.42-1.62-.27-1.6-.11-1.55.09-1.45.32-1.39.44-1.4.41-1.46.24-1.47.06h-1.39l-1.21.06-1.12.14-1.24.08-1.61-.04-2.19.22-2.96 1.7 48.51-17.22-.53.74-.9.94-1.01.98-.97.98-.88 1-.78 1.03-.72 1.02-.72 1.01-.77.98-.82.92-.83.81-.81.66-.78.54-.76.48-.79.47-.83.54-.83.71-.74 1.06-.58 1.53-.47 1.64-.65.94m98.75 54.56-.37-1.39-.41-1.42-.63-1.43-.73-1.37-.66-1.29-.57-1.2-.56-1.1-.62-1.02-.66-1-.68-1-.69-1.02-.7-1.02-.74-.98-.75-.93-.76-.87-.78-.8-.85-.71-.94-.63-1.02-.54-1.06-.49-1.04-.5-.99-.58-1.06-.62-1.38-.18" filter="url(#a)"/><path d="m45.25-35.89 1.69.82 1.37.17 1.38.13 1.28.34 1.07.61.86.85.74.97.77.97.88.91.94.82.88.83.73.9.63 1.02.65 1.15.76 1.24.8 1.33.65 1.4.42 1.39.39 1.37M-41.9-67.24l.74-1.19.42-1.32.55-1.13.69-.86.72-.77.66-.87.6-1.04.57-1.21.57-1.29.61-1.31.64-1.3.63-1.28.58-1.31.47-1.42.3-1.51.21-1.54.37-1.43.94-1.36 1.93-1.57" filter="url(#a)"/><path d="m-32.71-81.83-.89 1.16-.81.85-.81.86-.83.89-.77.96-.65 1.08-.54 1.19-.47 1.24-.47 1.22-.52 1.14-.61 1.04-.69.94-.76.88-.79.92-.73 1.06-.61 1.2-.46.92m-15.97 15.97 1.17-1.48 1.05-1.16.99-1.18 1.01-1.1 1.01-.97.95-.93.89-1.02.81-1.15.78-1.21.78-1.1.81-.83.86-.5.87-.26.8-.22.69-.38.64-.62.75-.86 1.11-1M61.83-20.33l-.09-1.29-.15-1.69-.13-1.71.05-1.66.28-1.65.47-1.64.45-1.62.27-1.58.02-1.52-.19-1.48-.31-1.45-.33-1.46-.28-1.46-.19-1.51-.02-1.59.16-1.74.34-1.89.42-1.99.43-2.03.42-2.1.41-2.28.28-2.42-.17-1.87" filter="url(#a)"/><path d="m-45.38-62.87-.19-2.81 1.01-.7.95-.8.58-1.43.18-2.07-.12-2.53-.24-2.7-.18-2.61-.04-2.36.13-2.14.25-1.98.38-1.88.49-1.82.58-1.76.66-1.71.7-1.65.71-1.67.59-1.99.12-2.7-.84-3.13" filter="url(#a)"/><path d="m-45.53-95.63 1.09 4.05.13 2.56.15 2.66.37 3.05.41 3.07.24 2.75-.02 2.27-.25 1.89-.38 1.66-.46 1.56-.54 1.46-.63 1.33-.65 1.24-.48 1.44-.07 1.92.03 1.84" filter="url(#a)"/><path d="m-46.59-60.88-.09-1.9.78-.93.78-1.02.53-1.45.33-1.75.33-1.75.45-1.51.57-1.31.58-1.27.47-1.43.31-1.66.2-1.86.17-1.92.27-1.78.51-1.46.91-1.18 1.73-1.22" filter="url(#a)"/><path d="m-47.09-59.88 1.15.46.21-.84.32-1.03.59-.91.83-.76.96-.63 1.01-.59.98-.59.93-.66.84-.7.81-.69.81-.6.83-.47.86-.35.86-.31.88-.27.94-.21 1.12-.19 1.59-.63-20.63-24.46.76 1.86.77 3.76.17 3.06-.4 2.04-.62 1.6-.39 1.91.06 2.58.42 3.04.53 3.1.51 2.85.55 2.6.63 2.39.54 1.98.09 1.29-.2 1.1-1.38-.48-2.83-1.14-2.32-.21-1.54.58-1.27.75-1.31.68-1.37.68-1.42.79-1.41.9-1.34.96-1.15 1.05-.88 1.12-.72 1.14-.82 1.09-1.22.97-1.9.77-2.78.38-3.53.19 29.04-9.74-.64 1.48-.57 1.96-.41 1.78-.4 1.46-.51 1.26-.58 1.2-.58 1.26-.52 1.34-.44 1.36-.38 1.33-.31 1.29-.25 1.27-.18 1.3-.13 1.35-.11 1.36-.12 1.33-.13 1.25-.13 1.17-.06 1.13.03 1.16.14 1.13.25.98.47 1.01 20.29-33.62-1.78-.36-1.17.19-.77.66-.81.67-1.04.38-1.22.14-1.18.19-.92.47-.58.86-.29 1.12-.14 1.14-.18.95-.39.63-.66.33-.95.21-1.47.3-3.56-.46" filter="url(#a)"/><path d="m-34.23-63.05-.64-.77-.77.37-.83.56-.91.49-.98.42-1.02.43-1.02.48-.97.51-.93.52-.89.48-.86.39-.85.27-.85.21-.85.23-.8.41-.78.7-.76 1.04-.76 1.27-.74 1.28-.63.89-.23-.02" filter="url(#a)"/><path d="m-54.05-47.07.48-2.18.19-2.05-.31-2.24-.26-2.1.15-1.74.53-1.47.65-1.38.53-1.41.34-1.45.2-1.43.13-1.4.15-1.38.2-1.4.26-1.48.33-1.58.37-1.72.35-1.9.25-2.16.12-2.42.04-2.54.15-2.38.38-2.02.31-1.87-.84-2.14-4.7 43.84 1.21-1.45 1.21-.98 1.05-.77.93-.73.93-.74 1.05-.67 1.24-.48 1.33-.25 1.26-.09 1.07-.05.9-.06.82-.05.85-.01.98.03 1.17.09 1.31.19 1.11.2-19.66 8.44 1.38-1.09.53-1.44.48-1.5.56-1.39.63-1.2.68-1.06.75-1 .81-1.02.84-1.06.81-1.02.72-.9.64-.7.55-.53.51-.42.48-.39.52-.56-10.9 15.62-3.01.43-1.3 1.22-.1 1.71.01 1.54-.42 1.14-1.01.73-1.57.39-2.02.17-2.23.12-2.15.29-1.73.69-1.18 1.18-.69 1.61-.55 1.82-.8 1.71-1.33 1.41-1.74 1.09-1.72.98-1.13 1.13-.25 1.38.33 1.31-.46.09" filter="url(#a)"/><path d="m-56.23-41.88-.43 1.77-.4 1.35-.27 1.19-.14 1.13-.05 1.12-.01 1.15.02 1.14.01 1.12-.04 1.11-.14 1.17-.22 1.32-.22 1.57-.19 1.86-.15 1.97.11 1.36 1.68-17.98-.41-2.62-.52-1.97.02-1.23.41-1.06.48-1.25.38-1.54.28-1.73.23-1.78.27-1.7.34-1.57.43-1.49.5-1.55.52-1.69.48-1.79.33-1.72.13-1.47.12-1.29-5.18 30.15-.35-.94-.75-2-.92-2.4-.64-2.19-.23-1.78.12-1.48.35-1.35.5-1.35.58-1.41.59-1.5.54-1.57.45-1.67.32-1.82.12-2.07-.12-2.4-.36-2.74-.55-2.91-.59-2.82-.45-2.44-.22-1.91.01-1.47.08-1.39-.13-1.89-.67-3.05m.79 51.73-4.01-.25-1.31 1.28-.03 2.02.16 2.02-.1 1.69-.44 1.34-.72 1.11-.87 1.01-.91.99-.88 1.05-.82 1.17-.76 1.34-.68 1.53-.63 1.59-.82 1.35-1.31.87-1.33.54M54.99 1.02 55.43 0l.45-1.04.56-1.06.49-1.13.42-1.25.41-1.35.48-1.42.5-1.41.44-1.35.26-1.26.03-1.15-.15-1.09-.21-1.1-.13-1.19.06-1.31.24-1.43.33-1.53.31-1.62.22-1.68.12-1.71.03-1.66-.1-1.55-.25-1.57" filter="url(#a)"/><path d="m64.06-6.02-.28-2.3-.15-1.53-.14-1.34-.15-1.2-.16-1.11-.17-1.08-.18-1.13-.21-1.21-.23-1.29-.25-1.35-.26-1.41-.29-1.46-.31-1.51-.33-1.52-.35-1.45-.33-1.32-.29-1.07-.22-.49m-1.16-4.47-.3-1.27-.23-1.66.05-1.69.18-1.62.08-1.5-.12-1.38-.31-1.27-.42-1.23-.44-1.24-.38-1.3-.31-1.38-.27-1.44-.29-1.43-.34-1.38-.42-1.3-.42-1.25-.33-1.29-.18-1.48-.03-1.78-.02-2.1-.19-2.17-.5-1.77m3.55 28.15-2.5-.18-.82-.87-.13-1.41-.2-1.32-.52-1.02-.74-.84-.78-.83-.67-.96-.52-1.09-.41-1.15-.41-1.13-.48-1.02-.59-.88-.72-.77-.84-.67-.95-.6-1.02-.5-1.02-.41-.95-.35-.8-.36-.74-.38-.9-.37-1.32-.35-1.76-.33" filter="url(#a)"/><path d="m57.65-63.54-.52 1.71-.3 1.43-.18 1.67-.2 1.91-.27 2.03-.27 2-.11 1.81.13 1.56.37 1.3.48 1.15.4 1.2.12 1.46-.25 1.74-.33 1.71.24 1.82" filter="url(#a)"/><path d="m56.08-41.73.29-.41.03-1.55.23-1.81.41-1.89.33-1.86.2-1.84.24-1.96.41-2.18.52-2.31.37-2.14.04-1.75-.19-1.45-.03-1.64.48-2.46.81-3.33-.3-2.36-4.65 28.83 1.18 1.65.93.73.67.83.45 1.12.43 1.25.6 1.23.79 1.15.89 1.07.87 1.07.74 1.1.6 1.16.54 1.23.59 1.28.73 1.32.87 1.34.91 1.38.83 1.41.66 1.45.53 1.48.53 1.46.63 1.36.75 1.13.83.7 1.02-.12" filter="url(#a)"/><path d="m54.67-45.27.12-.41-.25-1.23-.35-1.38-.3-1.38-.27-1.37-.29-1.36-.29-1.35-.23-1.35-.19-1.36-.17-1.44-.19-1.59-.18-1.81-.15-1.99-.14-1.99-.14-1.85-.06-1.67 31.96 34.38-2.07-1.38-2.8-.51-3.11-.08-2.56-.29-1.79-.73-1.32-1.01-1.22-1.05-1.33-.97-1.42-.87-1.48-.76-1.6-.54-1.79-.27-1.78-.2-1.34-.63-.92-1.25-2.35-.31.33.61-.39.5.02 1.33.17 1.4.07 1.37.07 1.32.19 1.25.35 1.19.39 1.21.27 1.29.08 1.39-.1 1.47-.17 1.45-.14 1.35-.12 1.25-.2 1.29-.36 1.44-.27 1.54.2 1.37 2.17-5.33-.3-1.15.01-1.07v-1.27l-.1-1.37-.22-1.34-.3-1.3-.34-1.27-.32-1.25-.26-1.24-.21-1.23-.17-1.24-.19-1.28-.22-1.28-.25-1.18-.22-1.02-.04-1.65-1.28-2.78-.6-.4-.86-.9-1.06-.57-1.1-.33-1-.37-.85-.6-.71-.88-.61-1.06-.61-1.03-.67-.82-.77-.52-.86-.27-.95-.14-1.08-.17-1.2-.26-1.18-.22-.79.3" filter="url(#a)"/><path d="m53.02-49.37-1.01-2.13-.44-1.44-.2-1.32-.22-1.22-.42-1.14-.6-1.1-.68-1.11-.62-1.17-.47-1.23-.34-1.26-.3-1.26-.38-1.22-.54-1.16-.73-1.11-.83-1.06-.79-1.02-.59-.94-.35-.78-.6-.7 7.23 16.86.98-.89-.34-.95-.58-1.3-.51-1.48-.39-1.53-.24-1.52-.12-1.58-.01-1.74.05-1.96.05-2.16v-2.26l-.1-2.18-.28-1.9-.51-1.51-.74-1.2-.83-1.2-.71-1.51-.36-1.97.12-2.38.48-2.77.13-3.37" filter="url(#a)"/><path d="m60.52-41.48-.74-1.56-.6-1.06-.63-1.11-.67-1.07-.69-.99-.73-.95-.79-.9-.85-.86-.88-.81-.88-.82-.8-.88-.69-.9-.61-.74-.54-.42-.47-.5" filter="url(#a)"/><path d="m59.55-38.97-.4-1.06-.63-.78-.64-.84-.63-.95-.62-1.02-.59-1.07-.55-1.1-.51-1.12-.52-1.12-.56-1.1-.62-1.04-.65-1.02-.64-1.01-.57-1-.48-.93-.48-.8-.68-.74-1.1-1.16m-.46-1.65 3.63-1.95.95 1 .91.7.79.68.5 1.06.37 1.34.48 1.32.79 1.06 1.19.72 1.63.36 2.03.04 2.29-.14 2.37-.15 2.24-.01 1.97.26 1.62.56 1.29.85 1.03 1.16.97 1.48 1.49 1.42 3.21-.03-9.73-11.42-1.8 1.15-2.33.25-2.21-.07-1.64-.47-1.07-.93-.77-1.15-.81-1-1.11-.6-1.45-.16-1.65.05-1.62-.07-1.37-.49-.99-.98-.66-1.26-.82-.73-1.81 1.11-2.03 2.22-.63-1.29-.64-1.74-.34-2.07-.19-2.02-.28-1.71-.44-1.42-.56-1.3-.59-1.32-.58-1.35-.54-1.42-.49-1.51-.43-1.68-.37-1.88-.34-2.04-.35-2.08-.43-1.98-.57-1.75-.71-1.44-.81-1.13-.8-.95-.66-1.05-.49-1.59-.46-2.28-.38-1.98" filter="url(#a)"/><path d="m43.1-65.89-.62-.19-.74-.61-.67-.68-.76-.71-.9-.69-.94-.58-.92-.45-.89-.36-.9-.36-.9-.41-.88-.53-.8-.64-.73-.73-.76-.75-.91-.53-.82.07 10.89 5.75.86-.62.33-2.47.46-3.52.34-3.23.01-2.39-.33-1.74-.5-1.55-.52-1.67-.53-1.76-.62-1.59-.79-1.21-.95-.87-1.01-.74-.92-.87-.78-1.15-.64-1.38-.61-1.53-.6-1.66-.59-1.92-.48-2.32-.4-2.63-.42-2.49-.31-2.19.95-3.16 7.94 44.84.51.72.4.6.57.85.71 1 .75 1.08.69 1.07.58 1.03.47.98.4.97.4 1.03.45 1.13.52 1.26.55 1.32.48 1.26.26.93-.14-.02" filter="url(#a)"/><path d="m37.79-72.05 2.32.26 2.06-.28 1.63-.38 1.45-.36 1.31-.03 1.14.47.97.89.87 1.06.83.94.91.6 1.05.23 1.18.09 1.25.27 1.29.56 1.26.82" filter="url(#a)"/><path d="m37.89-71.3.19.7.95 1 .9 1.12.67 1.14.53 1.15.54 1.15.58 1.15.63 1.11.65 1.03.65.95.61.88.58.88.55.95.52 1.06.5 1.16.45 1.23.42 1.21.39 1.16.38 1.1.39 1.11.37 1.18.33 1.25.17 1.18-.07 1.14-11.84-26.4-1.13-1.38-.85-1.39-.56-1.52-.3-1.91-.22-2.16-.34-2.01-.47-1.68-.54-1.44-.48-1.46-.41-1.56-.45-1.57-.59-1.39-.71-1.23-.67-1.44-.47-2.2-.32-3.2-.7-3.29-2.23-9.08v2.22l.53 2.62.69 2.94.59 2.97.43 2.93.39 2.67.46 2.23.55 1.8.6 1.57.54 1.55.39 1.67.12 1.98-.13 2.55-.14 2.83.11 1.68-9.02-22.4.15 2.78.34 1.91.65 1.71.74 1.8.71 1.82.69 1.6.71 1.24.78.9.82.69.82.66.73.83.53 1.14.3 1.46.21 1.64.36 1.5.48.72m7.37 21.07-.67-1.3-.24-1.47-.32-1.18-.51-.88-.58-.9-.53-1.14-.41-1.36-.34-1.42-.34-1.36-.4-1.29-.46-1.25-.49-1.29-.5-1.32-.54-1.29-.62-1.16-.75-.96-.79-.82-.63-.79-.2-.79.41-.28-2.57-1.9-.32-.68-.27-1.76-.42-1.7-.65-1.17-.86-.8-.94-.74-.94-.97-.89-1.34-.84-1.74-.83-2.1-.83-2.35-.83-2.48-.78-2.51-.75-2.46-.73-2.28-.78-2.01-.84-1.78-.79-1.92-.78-2.3-1.62-1.37" filter="url(#a)"/><path d="m27.29-80.43-.51-1.94-.86-.43-.91-.36-.9-.64-.9-.85-.93-.9-.95-.86-1-.8-1.05-.76-1.06-.76-1.05-.76-1-.75-.95-.75-.89-.76-.87-.82-.87-.86-.87-.9-.89-.87-.9-.77-.85-.64-.74-.54-.64-.51-.67-.48-.5-.23 3.11 4.63 1.38.63.75.84.74.87.81.78.83.61.87.48.94.41 1.05.41 1.14.45 1.14.51 1.04.65.91.91.85 1.18.87 1.23.84.89.93.61" filter="url(#a)"/><path d="m24-82.64.03-.18.74.01h.95l1-.02 1.01.02.97.14.9.27.82.4.81.48.86.44.99.31 1.13.12 1.23-.05 1.28-.1h1.25l1.19.19 1.12.31 1.09.25 1.07.09 1.09.19 1.2.87 1.46 1.67-26.07-7.56-1.3-.74-1.44-1.08-1.18-.78-.97-.48-.87-.42-.84-.51-.84-.61-.85-.61-.87-.56-.87-.5-.86-.45-.84-.44-.84-.44-.9-.43-.99-.45-1.1-.5-1.14-.6-1.1-.76-.94-.86-.78-.8-.74-.48-1.01-.04-1.74.04 5.8 14.31 1.76-.43 1.04-.23.76-.25.67-.35.73-.42.84-.48.91-.48.93-.4.92-.25.89-.1.87.04.83.09.81.07.94.05 1.32.23 2.15.72" filter="url(#a)"/><path d="m-2.98-73.68.95-2.15.99-1.06.79-.58.67-.76.7-1.04.83-1.16.97-1.07 1.05-.87L5-83l.94-.46.83-.42.81-.54.85-.73.93-.85.97-.78.93-.56.95-.26 1.36.21 29.07-9.65-1.64-1.3-1.51-.09-1.52.71-1.44.89-1.37.83-1.4.81-1.46.89-1.48.99-1.48.95-1.4.68-1.27.19-1.13-.41-1.02-.83-1-.88-1.1-.52h-1.27l-1.4.31-1.39.17-1.24-.14-1.1.1-1.14 1.3-1.42 2.54-1.73 1.9-.5.1.17-.12.7.18.87.29.88.29.91.29.97.31 1.06.35 1.12.39 1.11.42 1.08.45 1.05.47 1.01.48.98.5.95.49.91.49.87.47.87.5.86.52.86.54.77.5.49.31.14-.03M5.94-88.9l-.84-.03-1.4.06-1.23.29-.96.47-.82.54-.81.51-.88.45-.96.38-.98.35-.91.39-.81.49-.7.63-.66.74-.68.77-.78.72-.86.66-.92.64-.93.68-.9.75-.85.75-.78.7-.62.7-.35.75-.2.26" filter="url(#a)"/><path d="m.29-89.41 1.23.13 1.83.15 1.99.2 2.06.26 2.14.36 2.24.45 2.36.55 2.47.65 2.58.74 2.67.84 2.75.93 2.82 1.01 2.92 1.07 3.04 1.13 3.15 1.18 3.21 1.22 3.13 1.27 2.92 1.32 2.61 1.39 2.32 1.46 2.17 1.52 2.28 1.61 2.65 1.68 3.24 1.78 3.94 1.87 4.55 1.96 4.91 2.05 4.9 2.12 4.47 2.2 3.79 2.22 3.09 2.21 2.63 2.16 2.63 2.22 4.24 2.84" filter="url(#a)"/><path d="m-.42-89.23 1.39.03 2.1.12 2.55.19 2.74.24 2.67.3 2.39.38 2.13.48 2.04.59 2.2.71 2.58.81 3.03.89 3.44.94 3.7.99 3.79 1.03 3.7 1.09 3.56 1.14L47-78.07l3.34 1.31 3.35 1.4 3.42 1.48 3.56 1.58 3.74 1.66 4 1.72 4.34 1.78 4.7 1.8 5.07 1.8 5.41 1.79 5.69 1.83 5.84 2.08 7.74 2.79" filter="url(#a)"/><path d="m-5.57-88.72 2.65-.38 2.35-.12 2.37.02 2.53.1 2.67.18 2.82.25 3 .33 3.11.42 3.1.51 2.9.6 2.61.7 2.36.79 2.35.89 2.67.98 3.3 1.05 4.08 1.11 4.83 1.13 5.38 1.15 5.68 1.18 5.83 1.27 5.8 1.37 5.35 1.41 4.12 1.24 2.36.49" filter="url(#a)"/><path d="m-5.57-88.72 2.66-.38 2.3-.12 2.21.02 2.24.11 2.3.18 2.4.25 2.52.34 2.59.43 2.59.51 2.52.61 2.51.71 2.63.8 2.9.89 3.29.99 3.69 1.05 4 1.11 4.14 1.14 4.11 1.17L50-77.7l3.85 1.28 3.83 1.36 4.01 1.42 4.39 1.45 4.91 1.5 5.02 1.51 1.72.89" filter="url(#a)"/><path d="m-5.57-88.72 2.74-.38 2.4-.12 2.18.02 2.18.11 2.2.18 2.24.25 2.39.34 2.67.43 3.03.51 3.33.61 3.52.71 3.64.8 3.81.89 4.05.99 4.28 1.05 4.34 1.11 4.11 1.14 3.7 1.17 3.42 1.21 3.61 1.28 4.32 1.36 5.32 1.42 6.07 1.45 6.29 1.5 6.09 1.51 4.53.89" filter="url(#a)"/><path d="m-5.57-88.72 2.61-.38 2.27-.12 2.05.01 1.98.11 1.99.18 2.04.25 2.1.33 2.16.41 2.24.51 2.32.59 2.46.69 2.6.79 2.74.88 2.83.98 2.82 1.05 2.71 1.11 2.54 1.13 2.38 1.13 2.36 1.16 2.56 1.27 3.06 1.42 3.87 1.59 5.12 1.92" filter="url(#a)"/><path d="m-6.4-88.96 2.79-.05 2.17-.08 1.9-.01 1.85.08 1.79.15 1.65.22 1.48.28 1.35.36 1.31.45 1.34.56 1.41.67 1.49.78 1.56.87 1.56.92 1.49.97 1.36.98 1.19 1.03.99 1.09.78 1.16.61 1.25.48 1.34.42 1.44.48 1.58.81 1.62" filter="url(#a)"/><path d="m-5.57-88.95.93-.01 1.83-.14 1.98-.08 1.94.01 1.91.09 1.91.17 1.92.24 1.93.32 1.94.41 1.95.5 1.98.59 2 .68 2.04.77 2.07.88 2.1.97 2.08 1.06 2.01 1.11 1.87 1.12 1.72 1.11 1.61 1.13 1.66 1.24 1.82 1.41 1.8 1.21" filter="url(#a)"/><path d="m-6.19-88.96.76-.01 1.84-.06 2.02-.04H.44l2 .09 1.98.15 1.92.22 1.87.3 1.84.38 1.84.47 1.9.58 1.95.68 2 .79 2.01.87 1.97.92 1.91.98 1.83 1.03 1.78 1.07 1.73 1.14 1.71 1.21 1.72 1.3 1.71 1.38 1.72 1.48 1.71 1.57 1.72 1.65 1.71 1.74 1.67 1.8 1.6 1.82 1.47 1.82L47-61.9l.93 1.24" filter="url(#a)"/><path d="m-6.21-88.69.59-.15 1.12-.12 1.67-.12 1.93-.07 2.02.01 2.05.09 2.07.17 2.1.25 2.16.33 2.23.41 2.3.51 2.37.6 2.43.69 2.5.79 2.57.89 2.64.98 2.66 1.05 2.6 1.1 2.42 1.13 2.21 1.17 2.1 1.2 2.23 1.28 2.62 1.36 3.02 1.42 3.11 1.45 2.91 1.59 4.17 2.57" filter="url(#a)"/><path d="m-6.21-88.69.64-.15 1.21-.13 1.73-.11 1.98-.07 2.05.02 2.04.1 2.03.18 2.01.26 2.05.35 2.12.43 2.23.53 2.35.62 2.5.72 2.62.81 2.71.91 2.74.98 2.71 1.06 2.65 1.11 2.58 1.16 2.55 1.21 2.56 1.25 2.61 1.32 2.68 1.37 2.73 1.43 2.77 1.51 2.76 1.57 2.7 1.65 2.57 1.76 2.41 1.85 2.25 1.94 2.19 2.02 2.32 2.12 2.57 2.35 2.97 2.75" filter="url(#a)"/><path d="m-9.07-88.25 1.65-.45 1.47-.19 1.92-.11 2.15-.05H.34l2.26.08 2.27.14 2.24.2 2.21.28 2.2.36 2.24.45 2.37.55 2.57.66 2.83.77 3.12.86 3.39.92 3.55.96 3.59.99 3.46 1.03 3.18 1.09 2.83 1.17 2.53 1.25 2.44 1.34 2.73 1.45 3.51 1.58 4.74 1.62" filter="url(#a)"/><path d="m-10.91-88.03 1.66-.32 1.85-.29 1.86-.2 1.92-.13 1.96-.06 1.99.01 2.02.07 2 .14 2 .21 1.97.28 1.99.37 2.04.45 2.13.56 2.21.67 2.26.77 2.28.85 2.23.92 2.15.96 2.06 1.01 2.01 1.05 1.99 1.11 2.03 1.18 2.08 1.27 2.15 1.36 2.24 1.44 2.34 1.54 2.43 1.63 2.51 1.77 2.78 2.23" filter="url(#a)"/><path d="m-10.91-88.03 1.9-.32 1.79-.29 1.79-.2 1.89-.13 1.98-.05H.5l2.11.08 2.14.15 2.17.21 2.19.3 2.23.37 2.29.48 2.35.57 2.42.68 2.44.77 2.44.86 2.42.92 2.41.97 2.42 1.03 2.48 1.07 2.54 1.14 2.59 1.21 2.59 1.3 2.57 1.39 2.56 1.47 2.62 1.57 2.77 1.66 2.92 1.73 2.96 1.8 2.77 1.83 2.37 1.83 2.28 1.73 2.97 1.24" filter="url(#a)"/><path d="m-12.2-87.6 2.18-.61 1.82-.34 1.53-.22 1.67-.16 2-.11 2.28-.06 2.45.01 2.52.09 2.55.16 2.59.24 2.67.32 2.84.41 3.02.5 3.19.59 3.32.69 3.38.79 3.42.88 3.46.97 3.54 1.05 3.65 1.1 3.76 1.13L49.57-79l4.2 1.21 4.63 1.28 5.2 1.36 5.66 1.42 5.81 1.45 5.65 1.6 5.71 2.57" filter="url(#a)"/><path d="m-12.2-87.6 2.18-.61 2.11-.34 1.74-.22 1.66-.16 1.75-.12 1.88-.06 2 .01 2.08.07 2.16.16 2.22.23 2.26.3 2.3.4 2.34.48 2.39.58 2.42.66 2.48.77 2.54.86 2.63.96 2.75 1.06 2.84 1.12 2.82 1.13 2.62 1.08 2.31 1.08 2.21 1.28 3.18 1.93" filter="url(#a)"/><path d="m-12.2-87.6 2.25-.61 2.06-.34 1.67-.22 1.6-.16 1.76-.12 1.95-.06h2.09l2.17.08 2.22.15 2.26.22 2.34.31 2.44.39 2.57.48 2.74.56 2.93.66 3.14.76 3.34.86 3.54.96 3.72 1.06 3.82 1.14 3.73 1.14 3.26 1.03 2.63.87 3.82 1.03" filter="url(#a)"/><path d="m-12.86-87.47 4-.46 1.76-.37 1.38-.3 1.41-.2 1.49-.13 1.55-.07 1.56.01 1.55.07 1.51.15 1.47.22 1.4.29 1.33.38 1.24.47 1.15.57 1.02.68.91.77.76.85.63.92.52.98.47 1.03.46 1.08.49 1.14.5 1.22.42 1.3.22 1.4-.08 1.48-.43 1.57-.76 1.65-.96 1.74-1 1.78-.91 1.82-.83 1.8-.93 1.74-1.45 1.65-2.62 1.76" filter="url(#a)"/><path d="m-14.44-86.82 1.83-.71 2.04-.56 1.91-.37 1.72-.26 1.7-.18 1.86-.13 2.08-.06L1-89.1l2.47.07 2.62.14 2.76.21 2.95.29 3.17.38 3.42.46 3.66.56 3.84.64 4 .73 4.19.84 4.5.95 4.93 1.08 5.31 1.22 5.35 1.37 5.48 1.57" filter="url(#a)"/><path d="m-15.51-86.64 1.42-.37 1.78-.54 1.84-.48 1.81-.38 1.81-.27 1.87-.19 1.99-.13 2.11-.06 2.22.01 2.31.07 2.39.16 2.42.23 2.42.31 2.41.41 2.36.49 2.35.58 2.4.68 2.55.78 2.79.87 3.08.97 3.4 1.04 3.67 1.1 3.82 1.13 3.83 1.16 3.71 1.2 3.56 1.27 3.43 1.38 3.3 1.42 2.93 1.25 1.62.5" filter="url(#a)"/><path d="m-15.72-86.3.94-.46 1.66-.54 1.84-.48 1.85-.41 1.81-.31 1.83-.23 1.87-.16 1.93-.08 1.98-.02 2.01.04 2.02.12 1.99.18 1.95.24 1.92.32 1.92.4 2 .5 2.14.62 2.29.74 2.42.86 2.44.96 2.31.97 2.06.91 1.78.84 1.63.8" filter="url(#a)"/><path d="m-15.72-86.3.99-.46 1.76-.54 1.97-.49 1.95-.4 1.87-.31 1.8-.23 1.77-.16 1.77-.08 1.76-.01 1.75.05 1.73.12 1.7.18 1.67.26 1.62.33 1.59.42 1.57.52 1.56.63 1.54.75 1.51.85 1.46.92 1.36.95 1.27.96 1.2.96 1.18 1.03 1.21 1.21 1.01 1.48" filter="url(#a)"/><path d="m-18.86-85.1.72-.9 1.35-.67 2.03-.57 2.17-.49 2.06-.41 2-.32 2.04-.24 2.14-.17 2.25-.09 2.38-.02 2.49.04 2.6.11 2.71.18 2.77.24 2.81.32 2.86.4 2.95.5 3.15.62 3.38.74 3.57.86 3.6.95 3.46.97 3.36.92 3.66.84 4.94.8m13.92 65.57.57 1.72.99 2.11 1.05 2.45 1.24 2.63 1.82 2.66 2.77 2.64 3.66 2.61 4.07 2.59 3.73 2.61 2.72 2.65 1.36 2.69.1 2.72-.78 2.7-1.13 2.66-.95 2.64-.43 2.64.28 2.64.88 2.61 1.11 2.48.9 2.18.5 2.06-.74 3.38M62.51-14.92l.33 1.74.42 2.13.47 2.47.55 2.64.7 2.69.85 2.65.93 2.63.92 2.62.81 2.64.64 2.67.42 2.71.24 2.71.11 2.71.06 2.69.07 2.66.08 2.63.06 2.6-.01 2.53-.08 2.44-.2 2.35-.36 2.29-.56 2.33-.75 2.47-.8 2.61-.51 2.56.51 2.11" filter="url(#a)"/><path d="m62.51-14.92 4.78 1.74 1.45 2.15 1.87 2.47 1.73 2.66.86 2.68.03 2.67-.18 2.63.32 2.63 1.24 2.65 2.11 2.68 2.6 2.71 2.58 2.72 2.14 2.72 1.47 2.69.76 2.66.18 2.63-.19 2.59-.33 2.53-.29 2.45-.11 2.38.13 2.34.35 2.36.48 2.42.52 2.45.53 2.36.57 2.13.68 1.78 1.04 1.49M-19.34-85.24l4.42-.84 1.16-.51 1.03-.45 1.55-.47 1.88-.44 1.9-.37 1.72-.29 1.52-.22 1.4-.15 1.34-.09 1.29-.02 1.22.04 1.13.11.98.19.81.26.63.35.47.43.32.52.15.61-.04.7-.14.74-.06.51" filter="url(#a)"/><path d="m-22.31-83.46 1.76-1.02 1.54-.77 1.46-.7 1.42-.64 1.52-.57 1.72-.49 1.93-.41 2.08-.33 2.17-.25 2.25-.17 2.32-.09 2.38-.03 2.47.05 2.54.11 2.61.19 2.67.26 2.75.34 2.86.42 3.02.53 3.21.64 3.39.74 3.49.84 3.45.91 3.26.95 2.98.98 2.78 1.01 2.86 1.07 3.29 1.17 3.97 1.24 4.53 1.25 4.68 1.19" filter="url(#a)"/><path d="m-22.31-83.46 1.8-1.02 1.57-.77 1.49-.7 1.46-.64 1.49-.57 1.61-.49 1.77-.41 1.95-.33 2.14-.25 2.28-.17 2.39-.09 2.47-.02 2.53.05 2.56.11 2.57.19 2.59.26 2.65.35 2.74.43 2.91.53 3.13.64 3.36.75 3.56.83 3.7.91 3.79.96 3.88.98 4.04 1.03 4.29 1.08 4.57 1.16 4.75 1.25 4.57 1.33 4.04 1.44 4.73 1.79" filter="url(#a)"/><path d="m-22.31-83.46 1.14-1.01 1.86-.76 1.76-.69 1.59-.64 1.62-.57 1.79-.5 1.95-.43 2.03-.34 2.07-.26 2.11-.18 2.16-.12L.02-89l2.32.02 2.39.09 2.4.15 2.35.21 2.29.28 2.27.34 2.34.42 2.61.51 3.31.66 5.06 1.15" filter="url(#a)"/><path d="m-22.31-83.46-4.62-1.02 1.08-.77 3.01-.69 3.39-.64 3.14-.57 2.77-.5 2.43-.41 2.24-.34 2.18-.25 2.23-.17 2.34-.1 2.48-.03 2.59.04 2.66.11 2.69.17 2.73.25 2.8.32 2.93.41 3.15.51 3.44.62 3.71.73 3.93.86 4.04.93 4.05.96 4.05.94 4.07.91 4.03.97 4.21 1.19" filter="url(#a)"/><path d="m-22.31-83.46 2.03-1.02 1.88-.78 1.81-.69 1.78-.64 1.8-.57 1.83-.49 1.84-.42 1.84-.32 1.85-.25 1.84-.16 1.85-.09 1.86-.02 1.84.05 1.83.12 1.81.19 1.78.27 1.75.36 1.74.44 1.75.54 1.77.65 1.78.75 1.77.83 1.71.9 1.62.96 1.51 1 1.4 1.05 1.33 1.1 1.32 1.18 1.32 1.26 1.32 1.36 1.26 1.44 1.17 1.53 1.12 1.55 1.24 1.4" filter="url(#a)"/><path d="m-23.52-82.89 1.47-.88 1.82-1.05 1.7-.88 1.6-.68 1.66-.56 1.78-.5 1.89-.44 1.93-.38 1.95-.3 1.98-.23 2.03-.16 2.11-.1 2.21-.04 2.31.04 2.42.1 2.53.18 2.64.25 2.71.33 2.76.42 2.78.51 2.96.61 3.57.76 5.04 1.1" filter="url(#a)"/><path d="m-25.7-81.64 1.13-1.51 2.58-1.11 2.46-.87 2.13-.73 1.91-.66 1.81-.58 1.79-.5 1.8-.43 1.82-.34 1.88-.26 1.95-.19 2.05-.11 2.16-.04 2.24.03 2.3.09 2.35.16 2.36.22 2.38.29 2.4.36 2.47.46 2.63.57 2.9.71 3.22.9 3.52 1.12 4.51 1.42" filter="url(#a)"/><path d="m-25.38-81.96 1.29-.86 1.57-.96 1.99-.97 2.07-.85 1.94-.7 1.82-.59 1.71-.51 1.65-.45 1.59-.38 1.61-.31 1.74-.24 2-.17 2.3-.1 2.6-.04 2.84.02 3 .1 3.1.17 3.18.24 3.3.32 3.49.42 3.66.49 3.55.53 3.32.55" filter="url(#a)"/><path d="m-25.38-81.96 1.07-.87 1.71-.97 1.99-.97 1.98-.85 1.92-.7 1.9-.59 1.93-.51 1.94-.44 1.93-.37 1.91-.3 1.93-.23 2.02-.16 2.15-.09 2.29-.02 2.42.04 2.5.12 2.55.2 2.57.27 2.59.36 2.65.45 2.8.54 3.02.63 3.31.72 3.54.82 3.62.93 3.51 1.07 3.38 1.21 3.21 1.24M62.2-18.21l-3.7 2.75-1.64 2.59-3.02 2.77-3.15 2.81-2.09 2.72-.85 2.63-.07 2.56.21 2.53.17 2.52v2.55l-.34 2.6-.95 2.64-1.87 2.68-3.02 2.68-4.2 2.66-5.15 2.65-5.6 2.68-5.48 2.7-4.98 2.68-4.35 2.53-3.55 2.32-2.06 2.16.56 1.97" filter="url(#a)"/><path d="m-30.08-78.5 2.63-1.91 1.81-1.28 1.52-1.06 1.53-1 1.66-.92 1.81-.83 1.94-.71 2.01-.61 2.05-.53 2.03-.45 2.01-.38 1.97-.3 1.95-.23 1.95-.15 1.97-.09 2.02-.02 2.06.06 2.1.13 2.14.22 2.18.29 2.21.38 2.23.47 2.25.56 2.28.66 2.32.76 2.35.86 2.39.95 2.41 1.05 2.41 1.1 2.36 1.13 2.25 1.13 2.12 1.15 2.01 1.25 1.95 1.43 1.8 1.23" filter="url(#a)"/><path d="m-30.19-78.63 1.64-1.07 1.65-1.16 1.42-1.13 1.45-1.06 1.67-.98 1.91-.88 2-.78 1.97-.69 1.86-.6 1.79-.52 1.79-.44 1.87-.36 2-.28 2.15-.2 2.3-.12 2.42-.06 2.49.02 2.55.08 2.57.15 2.57.21 2.58.28 2.63.35 2.7.44 2.83.54 3.07.68 3.46.87 2.96.91" filter="url(#a)"/><path d="m-30.19-78.63 1.74-1.07 1.87-1.18 1.84-1.13 1.85-1.07 1.85-.98 1.82-.87 1.78-.78 1.77-.68 1.79-.6 1.83-.51 1.88-.43 1.93-.35 1.97-.27 2-.18 2.04-.12 2.06-.03 2.07.03 2.09.1 2.08.18 2.07.24 2.06.33 2.08.42 2.14.52 2.22.62 2.3.74 2.36.83 2.33.91 2.22.96 2.06.97 1.95 1 1.97 1.06L34-78.79l2.4 1.29 2.55 1.22" filter="url(#a)"/><path d="m-29.9-78.72-.42-.58 1.06-1.15 1.84-1.14 2.15-1.06 2.21-1 2.13-.93 2.01-.83 1.89-.73 1.82-.63 1.82-.54 1.85-.46 1.87-.4 1.92-.32 1.95-.25 2-.18 2.08-.11 2.17-.05 2.23.02 2.29.1 2.31.16 2.34.24 2.37.32 2.43.41 2.52.49 2.53.54 2.4.55" filter="url(#a)"/><path d="m-29.9-78.72.84-.58 1.39-1.14 1.25-1.14 1.3-1.07 1.56-.99 1.8-.93 1.94-.84 1.96-.72 1.94-.63 1.96-.55 1.97-.46 1.99-.4 1.99-.32 1.99-.25 2.02-.19 2.07-.11 2.13-.05 2.21.01 2.27.09 2.34.16 2.42.23 2.52.31 2.61.42 2.67.5 2.39.54" filter="url(#a)"/><path d="m-31.05-77.68.52-.95.15-1.07.61-1.12 1.22-1.1 1.54-1.06 1.66-.98 1.78-.88 1.96-.79 2.11-.7 2.2-.61 2.22-.53 2.24-.45 2.29-.37 2.35-.29 2.47-.22 2.6-.13L-.36-89l2.99.01 3.21.07 3.42.13 3.53.2 3.58.26 3.68.33 4.02.44 4.84.75M-33.3-76.1l-3.41 1.87-3.22 1.63-3.02 1.69-2.84 1.8-2.26 1.87-1.55 1.88-1.11 1.87-1.21 1.9-1.71 1.95-2.38 2.06-2.86 2.16-2.95 2.26-2.65 2.32-2.08 2.37-1.56 2.4-1.25 2.4-1.28 2.41-1.58 2.41-2 2.41-2.38 2.43-2.65 2.46-2.82 2.5-2.96 2.54-3.12 2.57-3.25 2.6-3.28 2.61-3.09 2.61-2.67 2.6-2.15 2.62-1.66 2.65-1.37 2.7-1.27 2.76-1.23 2.8-1.16 2.73-1.74 2.32" filter="url(#a)"/><path d="m-36.61-73.23-2.61 1.77-2.13 1.55-2.34 1.67-2.4 1.77-1.96 1.81-1.35 1.81-.96 1.82-.87 1.89-1.03 2.01-1.3 2.15-1.65 2.3-1.99 2.4-2.31 2.46-2.51 2.47-2.55 2.42-2.4 2.37-2.15 2.33-1.92 2.32-1.85 2.38-1.95 2.48-2.16 2.59-2.33 2.69-2.35 2.72-2.19 2.7-1.89 2.64-1.58 2.64-1.5 2.73-2.03 2.69-3.39 2.5m156.4-11.52.41 2.95.67 2.35 1.21 2.36 2.05 2.51 3.05 2.63 3.9 2.68 4.24 2.67 3.97 2.66L84.7 4.8l1.73 2.67.27 2.71-.96 2.72-1.63 2.73-1.58 2.72-.93 2.7.02 2.67.92 2.63 1.51 2.59 1.7 2.53 1.61 2.47 1.42 2.43 1.29 2.4 1.25 2.38 1.24 2.37 1.11 2.35.79 2.31.23 2.27-.53 2.23-1.36 2.22-1.95 2.23-1.92 2.22-1.09 2.16-.18 2.07-.68 2.06-1.88 2.1" filter="url(#a)"/><path d="m-38.55-71.01-1.03 1.17-1.36 1.61-1.48 1.82-1.47 1.85-1.38 1.82-1.3 1.82-1.29 1.9-1.3 2.03-1.35 2.17-1.36 2.32-1.34 2.42-1.27 2.47-1.19 2.46-1.08 2.43-.97 2.39-.86 2.36-.77 2.38-.71 2.43-.67 2.5-.66 2.59-.64 2.65-.64 2.69-.63 2.7-.62 2.67-.59 2.66-.54 2.64-.48 2.64-.43 2.66-.37 2.73-.3 2.84-.23 2.93-.15 2.64-.22.99m28.68-76.38-1.08 1.17-1.45 1.61-1.68 1.81-1.84 1.85-2.17 1.82-2.77 1.82-3.61 1.89-4.4 2.02-4.83 2.18-4.73 2.32-4.13 2.41-3.21 2.47-2.23 2.46-1.41 2.43-.98 2.38-1 2.36-1.42 2.37-2.06 2.42-2.67 2.5-3.02 2.59-3.08 2.65-2.9 2.7-2.68 2.69-2.63 2.67-2.87 2.66-3.32 2.63-3.7 2.63-3.73 2.63-3.39 2.7-2.99 2.91-3.02 3.35-4.28 4.13" filter="url(#a)"/><path d="m-38.18-71.46-6.22 2.31-1.35 2.02-1.17 1.92-1.46 1.84-1.56 1.82-1.6 1.88-1.77 2.02-2.05 2.15-2.38 2.28-2.73 2.34-3.16 2.37-3.69 2.39-4.37 2.39-5.1 2.39-5.74 2.38-6.05 2.38-5.9 2.39-5.29 2.41-4.4 2.46-3.48 2.54-2.75 2.58-2.24 2.6-1.99 2.59-2.05 2.6-2.68 2.61-4.43 2.53-7.45 1.98m93.06-62.17-1.35 2.33.37 2.02 1.29 1.93.77 1.85-.02 1.84-.44 1.91-.61 2.04-.68 2.17-.71 2.29-.57 2.35-.2 2.38.31 2.4.75 2.4.91 2.41.71 2.4.23 2.41-.34 2.42-.74 2.45-.83 2.49-.57 2.53.01 2.58.79 2.59 1.67 2.6 2.49 2.6 3.08 2.6 3.28 2.61 2.97 2.64 2.34 2.69 1.73 2.76 1.5 2.79 1.55 2.73 2.42 2.31M-39.44-70.1l-1.57 1.75-2.01 1.95-1.8 1.9-1.43 1.83-1.24 1.81-1.27 1.88-1.49 2.03-1.81 2.19-2.12 2.33-2.33 2.44-2.37 2.48-2.23 2.46-1.96 2.43-1.7 2.39-1.51 2.37-1.5 2.39-1.61 2.44-1.79 2.51-1.89 2.59-1.86 2.65-1.68 2.69-1.41 2.69-1.19 2.67-1.1 2.67-1.15 2.65-1.29 2.66-1.42 2.69-1.38 2.73-1.15 2.79-.78 2.82-.51 2.81-.71 2.84-1.3 3.23-.54 4.32" filter="url(#a)"/><path d="m-40.6-68.57-5.97 2.2-5.28 1.97-2.36 1.82-.85 1.78-.51 1.86-.69 2.02-1.04 2.21-1.44 2.36-1.81 2.45-2.02 2.5-2 2.47-1.79 2.44-1.54 2.39-1.36 2.38-1.4 2.4-1.64 2.45-2 2.52-2.34 2.59-2.56 2.65-2.62 2.69-2.55 2.69-2.41 2.68-2.31 2.67-2.26 2.67-2.24 2.69-2.2 2.7-2.15 2.74-2.2 2.78-2.43 2.81-2.78 2.84-2.96 2.84-2.53 2.84-1.47 2.83-.55 2.79-.94 2.84-1.92 2.91" filter="url(#a)"/><path d="m-40.6-68.57-2.25 2.19-2.31 1.97-1.89 1.81-1.46 1.77-1.35 1.85-1.48 2-1.72 2.2-1.84 2.35-1.81 2.45-1.64 2.49-1.44 2.48-1.3 2.43-1.27 2.38-1.28 2.35-1.28 2.37-1.25 2.43-1.21 2.5-1.22 2.59-1.29 2.66-1.43 2.69-1.57 2.69-1.69 2.67-1.72 2.65-1.7 2.65-1.61 2.65-1.43 2.67-1.15 2.72-.87 2.8-.67 2.83-.75 2.72-1.12 2.47-1.2 3.09" filter="url(#a)"/><path d="m-42.69-66.11-3.92 1.86-6.57 1.78-4.41 1.72-1.84 1.82-.6 2.01-.38 2.22-.69 2.39-1.22 2.48-1.88 2.51-2.62 2.49-3.37 2.43-3.98 2.4-4.21 2.38-3.97 2.39-3.28 2.46-2.41 2.53-1.67 2.59-1.28 2.66-1.28 2.68-1.51 2.69-1.69 2.69-1.66 2.68-1.44 2.68-1.22 2.69-1.24 2.71-1.62 2.74-2.21 2.78-2.72 2.81-2.88 2.83-2.68 2.84-2.27 2.84-1.99 2.84-1.98 2.82-2.22 2.81-2.65 2.79-3.32 2.6-4.77 2" filter="url(#a)"/><path d="m-44.12-64.28-3.89 1.92-3.1 1.64-4.23 1.73-3.61 1.98-1.92 2.21-.48 2.4.15 2.5.12 2.53-.31 2.49-.92 2.43-1.63 2.36-2.37 2.33-3.06 2.35-3.59 2.42-3.9 2.5-3.95 2.59-3.77 2.67-3.39 2.69-2.93 2.68-2.53 2.67-2.38 2.65-2.55 2.63-3 2.65-3.39 2.66-3.36 2.72-2.78 2.79-1.96 2.83-1.37 2.71-1.12 2.46-.48 3.09M61.83-20.33l-1.53 2.34-2.05 2.5-2.94 2.64-2.11 2.75-.69 2.78.15 2.73.14 2.65-.41 2.59-1.07 2.56-1.48 2.56-1.51 2.59-1.27 2.62L46 13.64l-1.1 2.68-1.48 2.69-2.13 2.69-2.8 2.68-3.31 2.68-3.51 2.67-3.38 2.63-2.98 2.56-2.54 2.5-2.29 2.46-2.44 2.43-3.1 2.36-4.14 2.23-4.94 2.09-3.44 2.35M-46.59-60.88l-.73 1.27-1.23 1.97-1.52 2.36-1.62 2.46-1.58 2.46-1.46 2.44-1.3 2.41-1.16 2.41-1.07 2.41-1 2.41-.94 2.41-.88 2.44-.8 2.47-.72 2.5-.63 2.56-.55 2.58-.51 2.6-.48 2.61-.48 2.62-.5 2.63-.53 2.65-.57 2.67-.6 2.7-.64 2.73-.65 2.74-.61 2.75-.47 2.73-.27 2.7-.05 2.64L-70 14l.23 2.47.22 2.47.11 2.6-.01 2.78.16 2.65" filter="url(#a)"/><path d="m-47.78-59.15-1.11 1.87-2.12 2.39-3.37 2.54-4.35 2.6-4.73 2.6-4.49 2.52-3.72 2.4-2.63 2.32-1.59 2.28-.93 2.31-.75 2.38-.91 2.49-1.2 2.61-1.51 2.67-1.87 2.69-2.37 2.68-2.93 2.65-3.26 2.63-3.08 2.62-2.36 2.62-1.58 2.63-1.4 2.7-2.03 2.83-2.79 2.91-3.11 2.62-5.49.96" filter="url(#a)"/><path d="m-48.37-57.98-4.33 3.09-.98 2.61-.92 2.65-1.26 2.63-1.29 2.54-1.11 2.41-.87 2.32-.77 2.28-.78 2.32-.87 2.4-.96 2.52-1.01 2.61-1 2.68-.97 2.69-.92 2.69-.84 2.66-.78 2.65-.72 2.64-.68 2.66-.65 2.68-.64 2.72-.61 2.77-.62 2.8-.6 2.82-.59 2.83-.52 2.84-.37 2.8-.05 2.67.86 3.23" filter="url(#a)"/><path d="m-50.31-54.71-1.6 2.32-1.35 2.34-1.89 2.36-2.83 2.36-3.77 2.39-4.27 2.4-4.03 2.41-3.17 2.4-2.08 2.41-1.2 2.45-.8 2.5-.95 2.55-1.47 2.58-2.15 2.6-2.81 2.61-3.32 2.61-3.67 2.61-3.81 2.64-3.74 2.66-3.47 2.69-3 2.72-2.47 2.74-1.99 2.75-1.7 2.73-1.66 2.71-1.95 2.63-2.47 2.52-2.97 2.41-2.96 2.4-2.27 2.66-1.61 3.05" filter="url(#a)"/><path d="m-51.58-52.18-8.44 2.17-5.37 2.38-1.82 2.35-.7 2.37-1.09 2.4-2.1 2.41-3.04 2.39-3.48 2.39-3.33 2.43-2.73 2.49-1.86 2.55-.86 2.58v2.6l.54 2.59.57 2.6.08 2.6-.78 2.62-1.78 2.65-2.62 2.68-3.19 2.72L-97.1.53l-3.76 2.75-4.01 2.74-4.17 2.74-4.04 2.68-3.7 2.52-3.63 2.12-3.7 1.26" filter="url(#a)"/><path d="m-51.3-52.89-5.67 3.25-4.85 2.9-2.33 2.61-1.33 2.39-1.22 2.28-1.37 2.26-1.5 2.32-1.38 2.43-1.01 2.55-.55 2.65-.21 2.69-.16 2.71-.39 2.7-.8 2.69-1.17 2.67-1.31 2.68-1.18 2.69-.87 2.71-.55 2.75-.41 2.78-.58 2.81-.98 2.82-1.44 2.82-1.75 2.82-1.72 2.8-1.39 2.77-.9 2.73-.5 2.67-.39 2.6-.48 2.55-.62 2.52-.71 2.49-.84 2.38-1.14 2.22-1.33 2.52m41.98-89.69-.93 2.81-.68 2.37-.62 2.35-.54 2.42-.42 2.42-.34 2.39-.3 2.4-.29 2.44-.25 2.5-.22 2.56-.19 2.59-.2 2.6-.22 2.6-.2 2.61-.08 2.61.11 2.64.33 2.66.54 2.69.64 2.72.62 2.73.47 2.74.24 2.73.04 2.68-.03 2.62.12 2.53.43 2.46.8 2.45 1.09 2.6 1.31 2.77 1.63 2.63" filter="url(#a)"/><path d="m-52.35-50.35-2.33 2.8-1.57 2.35-1.57 2.33-1.84 2.4-2.05 2.41-1.95 2.37-1.57 2.37-1.07 2.41-.65 2.48-.37 2.55-.25 2.58-.26 2.59-.36 2.58-.49 2.58-.66 2.58-.8 2.6-.9 2.64-.96 2.67-1.02 2.71-1.04 2.73-.99 2.74-.86 2.74-.69 2.77-.67 2.81-.56 2.76" filter="url(#a)"/><path d="m-52.35-50.35-2.18 2.79-2.11 2.35-1.57 2.32-1.17 2.4-1.11 2.41-1.3 2.37-1.67 2.36-2.14 2.4-2.55 2.48-2.73 2.54-2.55 2.58-2.03 2.58-1.42 2.58-1 2.57-.96 2.58-1.27 2.59-1.74 2.63-2.14 2.66-2.32 2.72-2.23 2.73-1.88 2.73-1.49 2.71-1.61 2.78-1.8 2.93m42.28-60.71-.91 2.77-1.03 2.58-.78 2.33-.6 2.24-.55 2.22-.58 2.31-.61 2.42-.62 2.56-.6 2.67-.52 2.71-.44 2.72-.36 2.7-.3 2.69-.26 2.67-.23 2.68-.19 2.7-.14 2.72-.06 2.75.03 2.78.14 2.81.24 2.82.31 2.82.37 2.81.4 2.8.42 2.76.44 2.72.49 2.67.54 2.61.62 2.55.68 2.52.75 2.48.8 2.46.86 2.44.93 2.46.94 2.37.62 1.44" filter="url(#a)"/><path d="m-54.05-47.07-1.38 2.11-1.55 2.21-2.73 2.45-3.5 2.46-3.58 2.4-3.34 2.4-3.1 2.45-2.91 2.52-2.69 2.58-2.41 2.6-2.12 2.62-1.85 2.62-1.63 2.62-1.38 2.64-1.05 2.65-.64 2.68-.18 2.7.24 2.73.6 2.73.83 2.73.9 2.7.78 2.67.46 2.63-.05 2.58-.69 2.57-1.34 2.57-1.9 2.61-2.26 2.67-2.28 2.74-1.89 2.81-1.11 2.87-.25 2.82.06 2.57-.47 1.99-.03 1.31" filter="url(#a)"/><path d="m-55.29-44.45-.52 1.6-1.05 2.55-1.32 2.53-1.65 2.4-2.01 2.37-2.21 2.43-2.07 2.52-1.61 2.58-.97 2.61-.42 2.62-.13 2.61-.17 2.62-.46 2.63-.85 2.65-1.21 2.67-1.43 2.7-1.44 2.72-1.31 2.74-1.05 2.72-.74 2.71-.44 2.66-.23 2.62-.11 2.58-.12 2.55-.14 2.56-.17 2.59-.13 2.66-.05 2.74.09 2.82.31 2.93.61 2.98.62 2.72-.36 1.9" filter="url(#a)"/><path d="m-55.3-44.11-1.29 3.71-1.12 2.76-.91 2.37-.79 2.31-.78 2.39-.79 2.52-.78 2.59-.7 2.62-.57 2.61-.43 2.6-.33 2.61-.26 2.61-.23 2.64-.21 2.66-.21 2.7-.18 2.72-.14 2.73-.09 2.73-.04 2.7.02 2.67.06 2.61.12 2.55.16 2.52.19 2.52.25 2.58.31 2.63.41 2.69.56 2.74.77 3.06 1.23 4.23" filter="url(#a)"/><path d="m-55.3-44.11-2.43 3.71-3.73 2.76-2.47 2.37-.81 2.31.1 2.39.29 2.52.12 2.59-.14 2.62-.38 2.61-.59 2.6-.75 2.61-.94 2.61-1.1 2.64-1.24 2.66-1.31 2.7-1.3 2.72-1.23 2.73-1.11 2.73-1.04 2.7-1.02 2.67-1.1 2.61-1.23 2.55-1.39 2.52-1.54 2.52-1.62 2.58-1.51 2.63-1.04 2.69-.24 2.74.32 3.06-.71 4.23" filter="url(#a)"/><path d="m-56.67-39.53-1.67 2.31-1.13 2.12-.78 2.18-.59 2.34-.61 2.52-.7 2.61-.83 2.63-.88 2.6-.88 2.6-.8 2.59-.7 2.6-.59 2.62-.52 2.65-.51 2.69-.59 2.71-.69 2.73-.75 2.73-.73 2.7-.63 2.67-.52 2.6-.49 2.53-.59 2.47-.69 2.48-.62 2.57-.27 2.7.23 2.71.48 2.66" filter="url(#a)"/><path d="m-56.67-39.53-2.37 2.32-.43 2.13-.32 2.19-.55 2.36-.72 2.53-.76 2.61-.7 2.63-.59 2.62-.5 2.61-.45 2.6-.43 2.61-.38 2.64-.31 2.67-.22 2.69-.12 2.72-.04 2.73v2.73l.01 2.7-.01 2.66-.03 2.61-.04 2.56-.02 2.53.03 2.53.14 2.58.27 2.64.46 2.72.66 2.81.82 3 .89 3.25.76 2.89" filter="url(#a)"/><path d="m-57.22-38.77-1.01 1.93-1.59 2.08-2.41 2.35-3.69 2.61-4.79 2.77-5.14 2.8-4.59 2.76-3.51 2.69-2.39 2.66-1.65 2.65-1.43 2.66-1.59 2.68-1.87 2.71-1.97 2.75-1.78 2.78-1.33 2.8-.76 2.81-.32 2.82-.19 2.81-.43 2.79-.98 2.75-1.63 2.71-2.09 2.65-2.15 2.6-1.71 2.54-.87 2.5.09 2.48.69 2.44.48 2.44-.61 2.45-1.99 2.36-2.81 1.43" filter="url(#a)"/><path d="m-58-36.87-.57 1.89-1.4 2.08-2.05 2.32-2.27 2.55-2.26 2.65-2.16 2.64-1.97 2.6-1.65 2.59-1.21 2.58-.76 2.59-.42 2.62-.21 2.65-.15 2.69-.15 2.71-.15 2.72-.24 2.73-.46 2.7-.88 2.67-1.42 2.59-1.91 2.53-2.13 2.46-2.03 2.47-1.69 2.58-1.31 2.69-.9 2.7-.02 2.66" filter="url(#a)"/><path d="m-58-36.87-.58 1.91-2 2.11-4.08 2.36-4.76 2.58-3.63 2.66-1.76 2.66-.27 2.63.32 2.62.11 2.62-.53 2.63-1.23 2.65-1.71 2.68-1.85 2.71-1.75 2.73-1.54 2.74-1.33 2.72-1.24 2.7-1.22 2.66-1.27 2.63-1.36 2.59-1.53 2.58-1.81 2.6-2.16 2.63-2.51 2.67-2.67 2.73-2.61 2.75-2.31 2.74-1.88 2.69-1.42 2.6-.99 2.48-.69 2.4-.76 2.37-1.27 2.28-1.4 1.98 1.01 1.6M-58-36.87l2.01 1.9.9 2.1-.47 2.34-.55 2.56-.17 2.66.06 2.65.15 2.62.25 2.6.42 2.6.6 2.61.67 2.64.59 2.67.48 2.69.4 2.72.37 2.73.36 2.73.34 2.7.34 2.65.42 2.61.63 2.56.99 2.54 1.35 2.55 1.63 2.58 1.77 2.66 1.87 2.73 1.99 2.81 2.14 2.93 2.16 2.97 1.9 2.71 1.27 1.89" filter="url(#a)"/><path d="m-58.13-35.18-1.26 2.29-1.44 2.3-1.45 2.62-1.54 2.71-1.79 2.67-1.97 2.61-2.02 2.59-2.02 2.58-2.13 2.61-2.39 2.62-2.75 2.67L-82-4.22l-3.36 2.72-3.44 2.73-3.31 2.72-2.92 2.69-2.39 2.66-1.94 2.6-1.83 2.55-2.18 2.52-2.81 2.52-3.44 2.58-3.76 2.64-3.67 2.71-3.06 2.8-1.89 3-.32 3.24 1.06 2.88" filter="url(#a)"/><path d="m-58.13-35.18-2.08 2.31-1 2.33-1.27 2.63-1.27 2.73-.94 2.68-.58 2.63-.34 2.61-.26 2.61-.33 2.63-.45 2.65-.58 2.69-.63 2.71-.59 2.73-.47 2.74-.28 2.72-.07 2.7.13 2.66.28 2.62.39 2.6.42 2.58.41 2.6.4 2.63.39 2.68.44 2.72.5 2.74.56 2.73.6 2.68.57 2.59.48 2.48.39 2.4.32 2.33.34 2.24.48 2.07.7 1.9 1.02 2.07" filter="url(#a)"/><path d="m-59.79-30.08-1.76 3.23-1.95 3.12-1.21 2.76-1.02 2.59-1.41 2.56-2.05 2.61-2.68 2.63-3.14 2.67-3.22 2.7-2.79 2.74L-82.9.31l-.72 2.8.37 2.81 1.13 2.81 1.4 2.79 1.16 2.78.51 2.74-.43 2.7-1.46 2.63-2.43 2.58-3.08 2.53-3.18 2.49-2.59 2.46-1.5 2.43-.36 2.42.19 2.44-.15 2.35-.49 1.42m155.47-68.6.94 3.43 1.91 2.93L67-16.1l3.4 2.49 2.31 2.47.87 2.53v5.24l.62 2.65 1.4 2.65 1.95 2.66 2.11 2.67 1.98 2.7 1.74 2.71 1.56 2.73 1.45 2.72 1.3 2.7 1.08 2.67.81 2.64.7 2.59.96 2.54 1.6 2.47 2.46 2.41 3.11 2.39 3.22 2.38 2.65 2.39 1.66 2.39.71 2.33.04 2.21-.49 2.12-1.28 2.17-2.32 2.45-1.73 2.7" filter="url(#a)"/><path d="m60.46-27.04.87 3.16 2.02 2.87 3.72 2.69 4.09 2.63 3.09 2.68 1.97 2.72 1.58 2.74 1.77 2.7 1.98 2.66 1.93 2.6 1.77 2.57 1.91 2.56 2.56 2.58 3.49 2.61 4.27 2.65 4.4 2.69 3.78 2.68 2.69 2.68 1.72 2.68 1.23 2.69 1.16 2.7 1.07 2.66.73 2.56.4 2.44.51 2.42.5 2.7-1 3.67" filter="url(#a)"/><path d="m59.94-29.86 3.15 2.87 6.98 2.94 5.68 2.83 2.17 2.7-.5 2.66-1.57 2.67-1.49 2.71-.89 2.72-.08 2.7.79 2.64L75.77.17l2.17 2.56 2.33 2.53 2.06 2.56 1.57 2.59 1.12 2.65.96 2.69 1.11 2.69 1.34 2.64 1.49 2.61 1.51 2.68 1.49 2.89 1.21 3.01.67 2.47" filter="url(#a)"/><path d="m59.94-29.86 2.44 2.87.54 2.94.56 2.83.61 2.7.45 2.66.3 2.67.3 2.71.43 2.72.53 2.7.55 2.64.45 2.59.3 2.56.15 2.53.08 2.56.09 2.59.12 2.65.19 2.69.22 2.69.23 2.64.16 2.61.02 2.68-.14 2.89-.12 3.01.23 2.47" filter="url(#a)"/><path d="m59.76-29.79 7.94 2.18 4.9 2.77-.18 2.91-1.05 2.83.17 2.68 1.49 2.57 2.29 2.53 2.56 2.56 2.48 2.59 2.15 2.62 1.66 2.64 1.18 2.65.81 2.65.58 2.67.47 2.69.46 2.71.51 2.73.58 2.71.6 2.71.55 2.68.48 2.65.53 2.6.75 2.55 1.11 2.47 1.36 2.39 1.23 2.34.65 2.37-.03 2.45-.11 2.53.71 2.46 1.55 2.16.19 1.74" filter="url(#a)"/><path d="m59.66-30.61.38 1.48.52 2.4.56 2.72.53 2.77.47 2.72.41 2.7.36 2.71.29 2.73.22 2.73.14 2.71.07 2.66V.34l-.04 2.6-.08 2.58-.12 2.61-.16 2.63-.2 2.66-.25 2.68-.31 2.7-.38 2.69-.45 2.7-.53 2.69-.59 2.68-.64 2.65-.66 2.58-.71 2.51-.77 2.47-.86 2.47-.95 2.41-.95 2.14-.98 1.8m4.62-82.85 1.11 2.72 1.37 2.29 1.99 2.47 2.57 2.64 2.89 2.7 3.01 2.7 3.11 2.68 3.36 2.69 3.68 2.71 3.92 2.71 3.82 2.7L92.7-2.6 95.01 0l1.22 2.56.35 2.55.03 2.55.39 2.6 1.28 2.65 2.34 2.7 3.16 2.7 3.52 2.63 3.6 2.56 3.85 2.65 4.38 3.04 3.13 3.74" filter="url(#a)"/><path d="m58.6-34.26 1.41 2.73.95 2.31.73 2.5 1.19 2.66 2.05 2.72 2.92 2.71 3.43 2.7 3.51 2.71 3.26 2.73 2.8 2.72 2.23 2.7 1.68 2.66L86.08.22l1.2 2.59 1.29 2.58 1.45 2.6 1.53 2.62 1.49 2.66 1.35 2.69 1.2 2.69 1.03 2.69.81 2.69.49 2.7.12 2.71-.09 2.67.02 2.57.29 2.45.34 2.43-.03 2.71-.48 3.68" filter="url(#a)"/><path d="m58.6-34.26 5.58 2.72 1.54 2.3.07 2.47.07 2.65.5 2.71.81 2.69.86 2.69.84 2.69.94 2.72 1.29 2.71 1.76 2.7 2.15 2.65L77.23.05l1.87 2.57 1.22 2.55.51 2.57.01 2.6-.06 2.66.27 2.69.79 2.69 1.15 2.65 1.14 2.62.8 2.7.65 2.89 1.1 3.02 1.29 2.48" filter="url(#a)"/><path d="m57.54-37.65 3.81 3.16.33 2.69.53 2.52 1.69 2.57 2.72 2.67 3.08 2.71 2.78 2.71 2.15 2.72 1.5 2.73 1.01 2.74.65 2.73.34 2.7.05 2.68-.24 2.64-.44 2.62-.48 2.61-.36 2.62-.11 2.65.21 2.67.44 2.69.5 2.7.36 2.71.06 2.7-.31 2.69-.66 2.67-.93 2.64-1.06 2.58-1.07 2.53-.96 2.48-.71 2.42-.39 2.37-.01 2.29.36 2.21.66 2.18.64 2.12.05 1.79" filter="url(#a)"/><path d="m57.22-39.17 1.01 3.12.9 2.63.8 2.66.74 2.75.69 2.81.63 2.82.56 2.77.46 2.67.37 2.59.28 2.54.23 2.54.18 2.56.15 2.6.11 2.61.09 2.62.05 2.61.01 2.62L64.41 9l-.15 2.71-.25 2.75-.33 2.76-.35 2.69-.34 2.62-.42 2.6-.71 2.8m-4.64-67.1 1.82 3.15 4 2.65 4.98 2.7 4.07 2.78 2.76 2.83 1.78 2.84 1.07 2.77.51 2.69.18 2.62.07 2.59.13 2.58.22 2.59.22 2.62.19 2.64.23 2.64.43 2.66.77 2.67 1.1 2.69 1.27 2.71 1.17 2.73.84 2.72.43 2.71.19 2.69.28 2.66.7 2.63 1.24 2.57 1.7 2.47 1.94 2.36 2.02 2.28 1.93 2.32 1.36 2.52-.03 2.79-1.86 2.83" filter="url(#a)"/><path d="m55.27-43.84 2.01 2.27.67 2.6.51 2.67.61 2.68.73 2.71.81 2.76.79 2.8.72 2.79.59 2.76.46 2.68.39 2.61.34 2.57.35 2.56.35 2.58.36 2.6.37 2.61.37 2.62.36 2.62.32 2.64.23 2.66.12 2.71-.02 2.76-.12 2.76-.17 2.7-.2 2.63-.29 2.61-.69 2.81" filter="url(#a)"/><path d="m53.2-48.43 1.35 2.78 1.09 2.14 1.26 2.24 1.72 2.43 2.42 2.57 3.1 2.67 3.45 2.73 3.36 2.77 2.91 2.8 2.3 2.79 1.67 2.75 1.15 2.71.72 2.65.39 2.63.19 2.61.15 2.61.33 2.63.68 2.64 1.12 2.65 1.45 2.66 1.55 2.68 1.36 2.7.96 2.72.48 2.73.13 2.73.02 2.72.17 2.69.49 2.68.85 2.63.99 2.58.81 2.48.31 2.38-.26 2.29-.53 2.33-.28 2.52.42 2.8 1.91 2.84" filter="url(#a)"/><path d="m53.2-48.43 3.08 2.77 2.82 2.14 2.72 2.22 2.72 2.42 2.83 2.57 2.96 2.65 2.89 2.72 2.43 2.76 1.69 2.8.89 2.78.35 2.76.23 2.69.54 2.65 1.09 2.61 1.64 2.59L84-6.7l1.84 2.62 1.49 2.63 1.06 2.64.82 2.65.9 2.67 1.26 2.69 1.77 2.71 2.19 2.74 2.3 2.73 2.07 2.71 1.54 2.69.87 2.69.26 2.7.07 2.72.4 2.57.75 1.91-.31.44" filter="url(#a)"/><path d="m53.2-48.43 2.11 2.77 1.76 2.12 1.52 2.21 1.39 2.42 1.16 2.55.9 2.65.7 2.7.57 2.76.49 2.79.43 2.78.38 2.75.37 2.7.38 2.63.4 2.59.43 2.58.46 2.59.47 2.61.47 2.63.47 2.63.45 2.63.44 2.65.46 2.68.47 2.71.47 2.75.42 2.75.26 2.71.03 2.63-.23 2.55-.26 2.42.48 2.01M52.82-49.5l5.95 2.44L61-44.58l1.78 2.5 1.53 2.43 1.31 2.39 1.44 2.41 1.78 2.44 2.01 2.48 1.98 2.54 1.86 2.58 1.92 2.63 2.32 2.65 3.03 2.67 3.8 2.67 4.25 2.71 4.04 2.73 3.09 2.72 1.75 2.67.79 2.62.98 2.55 2.28 2.47 3.45 2.42 3.84 2.96M52.82-49.5l-7.58 2.48 2 2.53 1.58 2.53-.44 2.47-1.41 2.44-1.09 2.46-.14 2.5.72 2.54 1.13 2.59 1.13 2.63.85 2.68.48 2.69.08 2.72-.33 2.72-.74 2.73-1.07 2.72-1.31 2.71-1.35 2.68-1.25 2.65-1.02 2.63-.77 2.61-.58 2.63-.47 2.64-.41 2.67-.42 2.7-.48 2.7-.66 2.71-.93 2.71-1.29 2.71-1.62 2.7-1.87 2.67-2.06 2.6-2.22 2.51-2.43 2.49-2.45 2.55-1.87 2.58-.55 1.79" filter="url(#a)"/><path d="m51.36-52.6 2.23 2.81 1.82 2.6 1.21 2.55 1 2.51.91 2.46.85 2.44.81 2.44.86 2.47 1 2.52 1.19 2.56 1.36 2.61 1.46 2.65 1.43 2.67 1.3 2.69 1.08 2.71.88 2.72.74 2.72.69 2.71.73 2.67.79 2.63.82 2.58.78 2.55.65 2.54.38 2.59.05 2.68-.22 2.82-.15 2.88.39 2.63.89 1.82" filter="url(#a)"/><path d="m51.36-52.6 1.3 2.8 1.16 2.57 1.09 2.54 1 2.49.92 2.44.84 2.42.77 2.42.71 2.44.65 2.49.61 2.54.57 2.59.54 2.63.5 2.65.45 2.67.4 2.68.32 2.71.26 2.73.19 2.72.14 2.69.09 2.62.06 2.55.02 2.49-.04 2.41-.12 2.97" filter="url(#a)"/><path d="m50.14-54.88 1.52 2.45 1.61 2.6 1.43 2.58 1.26 2.56 1.25 2.52 1.3 2.48 1.31 2.46 1.25 2.47 1.16 2.49 1.08 2.53 1.02 2.58.96 2.62.88 2.66.81 2.68.75 2.71.73 2.71.75 2.73.8 2.72.88 2.71.93 2.68.94 2.64.89 2.61.72 2.6.49 2.6.24 2.63.05 2.67.02 2.7.12 2.71.29 2.68.42 2.66.42 2.72.28 2.91v3.04l-.75 2.51M50.39-53.81l-1.2 1.83.22 2.02-1.31 2.06-2.19 2.08-1.64 2.14-.42 2.26.5 2.38.66 2.49.09 2.6-.79 2.67-1.49 2.74-1.77 2.76L39.47-23l-1.14 2.74-.71 2.7-.5 2.64-.6 2.59-.94 2.57-1.42 2.59-1.92 2.6-2.27 2.63L27.6.68l-2.12 2.61-1.63 2.61-1.17 2.64-1.08 2.74-1.43 2.87L18.09 17l-2.37 2" filter="url(#a)"/><path d="m48.22-58.48 2.74 2.41 1.93 1.89 1.16 2.08 1.26 2.32 1.74 2.44 2.2 2.49 2.47 2.5 2.45 2.48 2.14 2.47 1.64 2.47 1.14 2.49.74 2.53.56 2.57.57 2.62.75 2.64 1.03 2.68 1.35 2.7 1.67 2.72 1.93 2.72 2.1 2.73 2.16 2.71 2.1 2.68L85.97-.5l1.62 2.6 1.2 2.58.68 2.57.2 2.61-.1 2.69-.09 2.77.27 2.78.73 2.62 1.1 2.3 1.3 2.23M46.1-61.3l-3.08 1.18-1.25 1.8 1.41 1.93 1.73 1.98.94 2.1.14 2.23-.32 2.36-.51 2.43-.68 2.44-1.04 2.44-1.7 2.42-2.57 2.42-3.37 2.42-3.8 2.46-3.63 2.5-2.92 2.57-1.97 2.63-1.2 2.66-1.07 2.61-1.69 2.49-2.46 2.46-3.42 3.09" filter="url(#a)"/><path d="m46.1-61.3 1.75 1.21 1.97 1.83 1.42 1.96 1.39 2.03 1.88 2.15 2.69 2.28 3.58 2.39L65.1-45l4.7 2.47 4.68 2.48 4.27 2.46 3.56 2.48 2.66 2.49 1.64 2.52.68 2.56v2.61l-.18 2.64.21 2.67 1.04 2.7 1.99 2.71 2.67 2.73 2.8 2.73 2.3 2.72 1.39 2.7.48 2.64.04 2.59.39 2.54 1.53 2.5 3.11 2.53 4.44 2.62 4.63 2.95 2.06 3.98" filter="url(#a)"/><path d="m46.1-61.3 1.03 1.2 1.97 1.82 3.15 1.94 4.43 2.01 5.1 2.13 4.82 2.26 3.75 2.38 2.41 2.44 1.29 2.46.75 2.46.84 2.45 1.35 2.45 1.94 2.46 2.29 2.5 2.31 2.54 2.12 2.59 2.01 2.63 2.24 2.66 2.88 2.67 3.7 2.69 4.27 2.72L105-9.08l3.76 2.77 3.43 2.7 3.95 2.65 4.6 2.8 1.44 3.45" filter="url(#a)"/><path d="m43.1-65.89 2.29 2.59 2.18 2.02 2.37 2.07 2.3 2.19 2 2.23 1.66 2.2 1.47 2.17 1.4 2.14 1.37 2.15 1.3 2.18 1.21 2.27 1.15 2.35 1.2 2.46 1.4 2.56 1.75 2.64 2.18 2.71 2.58 2.76 2.84 2.78 2.86 2.76 2.55 2.71 1.97 2.64 1.31 2.58.86 2.56.83 2.58 1.21 2.63L89.1-2.3 91.17.35l1.87 2.61 1.18 2.41.56 1.32" filter="url(#a)"/><path d="m43.04-65.53 2.04 1.67 2.22 1.78 2.47 1.79 2.65 1.85 2.56 1.91 2.58 1.98 2.95 2.09 3.4 2.22 3.52 2.33 3.14 2.4 2.47 2.43 1.88 2.44 1.63 2.42 1.73 2.41 1.98 2.42 2.2 2.44 2.37 2.47 2.66 2.57 3.24 2.68 4.08 2.76 4.81 2.79 3.56 3.01" filter="url(#a)"/><path d="m39.48-69.98 4.04 2.31 2.87 1.91 1.18 1.81.78 1.8 1.31 1.82 2.2 1.87 3.05 1.94 3.64 2.02 3.97 2.12 4.05 2.24 3.88 2.32 3.41 2.4 2.71 2.44 1.95 2.45 1.4 2.45 1.21 2.45 1.41 2.47 1.84 2.49 2.26 2.53 2.45 2.59 2.24 2.63 1.66 2.66.97 2.66.69 2.65 1.22 2.72 2.44 2.89 3.85 3.05 5.12 2.8M37.89-71.3l1.82 1.67 1.79 1.9 1.66 1.87 1.6 1.82 1.52 1.81 1.42 1.83 1.3 1.87 1.22 1.93 1.17 2.01 1.14 2.11 1.11 2.22 1.06 2.32 1.01 2.39.96 2.43.94 2.45.94 2.44.97 2.45 1.01 2.45 1.02 2.48 1.01 2.52.95 2.58.86 2.65.79 2.68.75 2.63.78 2.52.77 2.48.42 3.11" filter="url(#a)"/><path d="m36.51-72.85 1.93 1.54 2.18 1.74 1.88 1.85 1.73 1.85 1.8 1.84 1.91 1.84 1.92 1.86 1.81 1.9 1.6 1.97 1.33 2.06 1.11 2.15.95 2.24.91 2.33.99 2.4 1.14 2.44 1.33 2.46 1.48 2.47 1.6 2.49 1.65 2.5 1.65 2.53 1.58 2.57 1.49 2.6 1.33 2.65 1.11 2.67.86 2.7.62 2.72.43 2.74.4 2.75.51 2.74.74 2.72.95 2.66.99 2.6.81 2.54.5 2.49.27 2.51.48 2.41M34.37-75.04l3.31 1.89 4.6 1.73 5.53 1.77 4.58 1.81 2.92 1.82 2.02 1.81 2.23 1.82 3.1 1.83 3.87 1.87 4.04 1.93 3.5 1.99 2.62 2.1 1.95 2.2 1.89 2.3 2.53 2.38 3.59 2.43 4.6 2.44 5.18 2.44 5.14 2.43 4.52 2.43 3.59 2.44 2.69 2.48 2.25 2.57 2.83 2.71 4.5 2.78 3.3 2.43" filter="url(#a)"/><path d="m34.37-75.04 2.05 1.89 2.2 1.72 2.12 1.76 1.95 1.8 1.9 1.82 2.07 1.81 2.4 1.81 2.74 1.82 2.92 1.86 2.93 1.91 2.79 1.98 2.6 2.07 2.41 2.19 2.2 2.3 1.99 2.38 1.82 2.43 1.77 2.44 1.89 2.43 2.16 2.42 2.45 2.41 2.58 2.4 2.48 2.36 2.39 2.45 1.4 2.94" filter="url(#a)"/><path d="m33.96-74.95 2.77 1.14 4.55 1.37 5.81 1.49 6.2 1.61 5.23 1.74 3.47 1.86 1.91 1.95 1.15 2.03 1.19 2.1 1.71 2.14 2.33 2.16 2.82 2.17 3.19 2.16 3.48 2.13 3.83 2.13 4.17 2.14 4.44 2.2 4.57 2.28 4.68 2.4 4.8 2.5 4.78 2.6 4.28 2.66 3.35 2.75 2.84 2.85 3.36 2.96 4.27 2.76" filter="url(#a)"/><path d="m29.57-78.99 2.16 1.7 2.58 1.67 2.68 1.55 2.24 1.52 1.78 1.54 1.63 1.63 1.74 1.73 2.01 1.84 2.28 1.94 2.46 2.01 2.47 2.08 2.32 2.13 2.06 2.17 1.77 2.16 1.55 2.16 1.46 2.14 1.49 2.12 1.56 2.14 1.66 2.2 1.74 2.27 1.79 2.4 1.8 2.5 1.75 2.59 1.71 2.66 1.73 2.72 1.81 2.89 1.86 3.42" filter="url(#a)"/><path d="m29.43-79.03 2.1 1.45 3.09 1.37 3.75 1.47 3.77 1.59 3.7 1.68 3.71 1.75 3.54 1.79 3.02 1.81 2.3 1.83 1.67 1.83 1.42 1.86 1.56 1.9 2 1.95 2.59 2.03 3.21 2.12 3.81 2.21 4.26 2.3 4.42 2.38 4.2 2.42 3.62 2.45 2.89 2.45 2.29 2.46 2.03 2.47 2.17 2.49 2.52 2.54 2.78 2.59 2.65 2.66 2.19 2.69 1.9 2.65 2.64 2.54 4.68 2.5 7.01 3.12" filter="url(#a)"/><path d="m30.08-78.59 2.78.34 1.84 1.18 1.89 1.45 1.89 1.5 1.87 1.51 1.84 1.56 1.74 1.63 1.66 1.73 1.68 1.83 1.83 1.92 2.05 2.01 2.27 2.08 2.43 2.13 2.5 2.15 2.49 2.17 2.39 2.16 2.24 2.13 2.08 2.13 1.93 2.13 1.88 2.17 1.9 2.27 2.04 2.39 2.26 2.5 2.43 2.6 2.28 2.62 1.62 2.6 1 2.59" filter="url(#a)"/><path d="m30.08-78.59.55.35 2.24 1.19 2.91 1.46 2.82 1.51 2.65 1.52 2.7 1.58 2.92 1.65 3.17 1.74 3.31 1.85 3.28 1.95 3.14 2.02 2.93 2.09 2.71 2.14 2.53 2.16 2.37 2.17 2.2 2.17 2.04 2.16 1.92 2.16 1.94 2.19 2.12 2.25 2.48 2.32 2.87 2.42 3.17 2.52 3.32 2.61 3.33 2.7 3.28 2.78 3.23 2.85 3.19 2.89 3.11 2.86 3.02 2.7 3.1 2.41 4.44 2.14" filter="url(#a)"/><path d="m27.29-80.43 2.54 1.21 3.15 1.01 3.15 1.23 2.42 1.41 1.97 1.48 2.16 1.52 2.75 1.58 3.34 1.66 3.71 1.75 3.77 1.85 3.55 1.94 3.1 2.02 2.5 2.09 1.87 2.13 1.33 2.16.99 2.17.97 2.17 1.28 2.17 1.8 2.18L76-44.5l2.76 2.26 2.91 2.33 2.86 2.43 2.74 2.52 2.74 2.62 2.84 2.7 2.94 2.78 2.82 2.83 2.55 2.86 2.4 2.81 2.76 2.66 3.49 2.41 3.6 2.13 2.15 1.89" filter="url(#a)"/><path d="m27.29-80.43 2.65 1.19 3.39.99 2.95 1.2 1.93 1.39 1.29 1.45 1.21 1.49 1.47 1.54 1.85 1.6 2.17 1.7 2.34 1.8 2.37 1.9 2.35 1.98 2.41 2.06 2.64 2.11 3.06 2.16 3.54 2.18 3.8 2.16 3.6 2.12 2.86 2.07 1.93 2.02 1.56 1.95 2.39 1.97 3.76 2.23" filter="url(#a)"/><path d="m23.29-83.14 3.19 1.38 2.96 1.23 3.62 1.14 3.78 1.15 3.36 1.25 2.72 1.36 2.23 1.43 2.06 1.5 2.2 1.56 2.64 1.63 3.29 1.73 3.97 1.82 4.51 1.91 4.77 1.99 4.73 2.07 4.48 2.12 4.2 2.16 4.01 2.17 3.95 2.16 3.95 2.14 3.84 2.12 3.48 2.13 2.91 2.17 2.39 2.25 2.44 2.39 3.43 2.52 5.31 2.63 7.55 2.66 9.52 2.37M23.29-83.14l.29 1.38 1.79 1.24 1.59 1.13 1.47 1.16L30-76.97l1.68 1.36 1.7 1.44 1.65 1.5 1.51 1.57 1.35 1.64 1.15 1.74.95 1.83.75 1.92.61 2 .52 2.07.52 2.12.6 2.15.69 2.17.75 2.17.71 2.15.53 2.14.28 2.16.06 2.2-.05 2.29-.01 2.39.08 2.51.11 2.6-.02 2.67-.26 2.73-.41 2.91-.15 3.43" filter="url(#a)"/><path d="m24-82.64 1.12.55 1.6.83 1.89 1.03 2.09 1.18 2.33 1.28 2.57 1.37 2.79 1.46 2.94 1.54 2.99 1.61 3 1.69 2.99 1.74 3.02 1.78 3.12 1.79 3.28 1.8 3.48 1.82 3.73 1.83 4.05 1.87 4.4 1.91 4.6 1.98 4.48 2.11 3.98 2.26 3.32 2.43 3.1 2.67 5.27 3.53M16.39-86.25l2.7 1.09 2.05.99 2 1.11 1.95 1.18 1.84 1.2 1.73 1.19 1.63 1.23 1.6 1.28 1.58 1.36 1.57 1.43 1.56 1.49 1.55 1.57 1.53 1.65 1.53 1.74 1.51 1.83L44.2-64l1.45 2 1.41 2.06 1.36 2.12 1.31 2.15 1.25 2.17 1.2 2.17 1.13 2.16 1.07 2.16 1.02 2.18.96 2.22.94 2.31.9 2.4.88 2.52.84 2.6.79 2.69.74 2.76.7 2.88.66 2.99.56 2.79" filter="url(#a)"/><path d="m15.06-86.83 1.85.77 2.07.9 2.02.99 1.99 1.09 1.93 1.15 1.83 1.17 1.72 1.19 1.64 1.21 1.62 1.27 1.61 1.34 1.62 1.4 1.59 1.48 1.58 1.54 1.55 1.62 1.54 1.7 1.52 1.79 1.51 1.89 1.48 1.97 1.46 2.06 1.42 2.11 1.38 2.17 1.34 2.18 1.28 2.18 1.19 2.14 1.09 2.1.98 2.04.92 1.97.91 1.99 1.06 2.25" filter="url(#a)"/><path d="m15.06-86.83 2.78.77 2.48.91 1.97.99 1.97 1.09 2.11 1.16 2.16 1.18 2.12 1.19 2.04 1.22 1.98 1.28 1.98 1.35 2.03 1.41 2.1 1.49 2.15 1.55 2.14 1.63 2.06 1.72 1.94 1.81 1.8 1.9 1.7 1.99 1.67 2.05 1.75 2.12 1.93 2.16 2.11 2.17 2.22 2.17 2.17 2.15 1.95 2.12 1.66 2.12 1.42 2.15 1.4 2.25 1.54 2.39 1.66 2.54 1.49 2.68 1.39 3.33" filter="url(#a)"/><path d="m10.96-88 2.37.58 2.41.65 3.1.74 3.72.85 3.86.96 3.54 1.05 3.01 1.1 2.49 1.15 2.21 1.16 2.23 1.19 2.47 1.23 2.8 1.31 3.1 1.37 3.28 1.43 3.41 1.48 3.54 1.55 3.79 1.63 4.1 1.74 4.38 1.85 4.48 1.93 4.49 1.94 4.93 1.98 5.87 2.3" filter="url(#a)"/><path d="m7.27-88.9 1.86.42 1.98.51 1.95.58 1.93.66 1.94.76 1.99.85 2.01.96 2.02 1.04 1.96 1.1 1.87 1.14 1.8 1.18 1.72 1.21 1.68 1.27 1.68 1.33 1.68 1.39 1.68 1.46 1.65 1.52 1.63 1.6 1.6 1.68 1.58 1.78 1.55 1.87 1.53 1.96 1.48 2.05 1.44 2.12 1.43 2.19 1.43 2.22 1.41 2.2 1.31 2.15 1.18 2.21 1.31 2.83" filter="url(#a)"/><path d="m5.94-88.9 1.64.14 1.87.34 1.94.46 2.01.56 2.13.64 2.29.74 2.42.83 2.46.93 2.41 1.01 2.27 1.08 2.13 1.13 2.06 1.15 2.09 1.19 2.15 1.23 2.23 1.29 2.24 1.36 2.19 1.42 2.12 1.47 2.06 1.52 2.08 1.6 2.19 1.73 2.4 1.91 2.4 2.03 1.66 1.51" filter="url(#a)"/><path d="m3.13-89.19 2.51.22 2.04.25 1.87.36 1.9.46 1.99.57 2.08.66 2.16.75 2.2.86 2.23.95 2.22 1.03 2.16 1.09 2.08 1.14 1.95 1.19 1.83 1.23 1.73 1.28 1.67 1.34 1.64 1.4 1.67 1.48 1.73 1.54 1.83 1.63 1.95 1.7 2.12 1.8 2.26 1.89 2.39 1.97 2.44 2.05 2.39 2.12 2.26 2.16 2.06 2.19 1.86 2.18 1.71 2.15 1.63 2.12 1.6 2.09 1.53 2.09 1.48 2.21 1.65 2.59 2.25 3.43" filter="url(#a)"/><path d="m1.01-89.28 2.26.14 2.22.19 2.06.26 2.1.36 2.35.46 2.71.56 3.06.66 3.26.75 3.26.85 3.09.94 2.84 1.02L32.86-82l2.61 1.14 2.74 1.18 3.01 1.23 3.28 1.29 3.48 1.34 3.55 1.4 3.51 1.48 3.42 1.54 3.41 1.62 3.53 1.71 3.8 1.8 4.14 1.88 4.47 1.97 4.69 2.06 4.72 2.11 4.59 2.17 4.3 2.18 3.98 2.18 3.76 2.16 3.76 2.12 3.94 2.09 3.97 2.09 3.46 2.21 2.83 2.6 4.19 3.43" filter="url(#a)"/><path d="m1.01-89.28 2.53.14 3.34.18 3.41.26 3.02.35 2.62.44 2.32.54 2.14.64 2.11.73 2.29.83 2.65.92 3.14 1 3.63 1.08 4.02 1.12 4.27 1.15 4.35 1.2 4.31 1.24 4.28 1.3 4.38 1.36 4.66 1.43 5.03 1.48 5.22 1.54 5.09 1.63 4.8 1.74 4.75 1.86 5.13 1.95 5.53 1.87 5.07 1.8" filter="url(#a)"/><path d="m.61-89.24 1.86.12 2.57.21 2.75.25 2.82.3 2.71.39 2.51.49 2.31.6 2.16.73 2.06.82 2 .9 1.99.96 2.04 1.01 2.16 1.04 2.31 1.11 2.47 1.17 2.63 1.25 2.78 1.33 2.91 1.42 3.04 1.51 3.19 1.59 3.37 1.67 3.59 1.72 3.85 1.77 4.11 1.8 4.35 1.81 4.52 1.83 4.59 1.86 4.47 1.87 4.13 1.92 3.65 1.98 3.36 2.1 3.4 2.26 3.05 2.3.58 1.88" filter="url(#a)"/><path d="m.61-89.24 1.73.12 2.27.21 1.98.25 1.69.3 1.48.38 1.33.49 1.23.61 1.22.72 1.32.82 1.44.9 1.53.96 1.51 1 1.37 1.05 1.15 1.1.97 1.16.88 1.25.93 1.33 1.05 1.42 1.17 1.5 1.2 1.59 1.08 1.66.87 1.72.63 1.77.46 1.8.36 1.82.3 1.82.21 1.85.02 1.86-.19 1.9-.29 1.95-.18 2.1.15 2.41.76 2.7" filter="url(#a)"/></g><path fill="none" stroke="#000" stroke-linejoin="round" stroke-width="3" d="M-8.36 21.02Q8.03 40.305-.165-4.974" filter="url(#a)"/><path fill="#8CCC66" stroke="#000" stroke-linejoin="round" stroke-width="3" d="m6.98 63.39-.11.7.09-.79.01 1.46-.03-.11.08.66-.12.55-.09.68-.05.03-.05.15-.13.8-.24.55-.12.41.09-.49-.04.27-.46 1.06.17-.25-.34.44-.58 1.15.21-.36-.01.13-.54.67-.22.27-.34.5-.26.27-.12.24-.79.74-.04.03-.39.36-1.82 1.54.7-.52-.41.33-.79.54-1.1.77.24-.16-.63.38-.11.09-1.61.81-.01.01-.61.31.5-.23-2 .84-.38.14.86-.33-1.91.7-.86.25-.6.16.59-.16-.41.12-1.62.38-.9.17-.12.02-.05.01-1.95.26.13-.01-.56.04.36-.03-1.91.11.43.01h-.86l-.78-.01-1.18-.04-.5-.06.73.05-2.18-.17-.1-.05-.4-.06h-.06l-.01-.01-.53-.1-.68-.16-.49-.14-1.65-.5.7.27-1.12-.39-.46-.2-.42-.11-1.17-.57.13.06-1.04-.64.09.07-.33-.16.06-.03-.09-.1-1.24-.79-.65-.59-.22-.33-.05-.01.27.17-.95-.93-.16-.23.4.4-1.14-1.56.36.67-.69-1.42-.23-.23.35.56-.59-1.47.25.85-.05-.4-.25-.76.03-.16-.27-.88-.11-.52.15-.57.01-.02-.03-.02-.05-.78.22-.96-.17.4.13-.3.32-1.45.01.1.48-.96-.34.54.43-.82.07-.27.01-.02.47-.9-.02.21.6-.91.27-.38.45-.62.18-.15 1.02-1.17-.25.22.29-.26-.1.1.88-.72v-.01l1.56-1.2-.36.21 1.21-.82.55-.37.23-.12-.33.18 1.27-.72-.49.31 1.25-.68-.27.15 1.08-.5.68-.3.62-.24.09-.05 1-.35.84-.28-.47.15 2.01-.56-.14.03 1.05-.24.61-.12-.07.01 1.84-.29-.84.12-.1.02 1.54-.2.32-.05 1.45-.08.1-.01h1.66l-.63-.03 1.38.03-.38-.01.93.06.35.04.93.1 1.24.21-.69-.12 1.05.13 1.39.32-.46-.05-.02-.06 1.5.43.3.12.48.18 1.05.36.21.17.5.21.09.09-.44-.19 1.82 1-.55-.31.57.23.45.36.74.67.03.01.46.39.68.73.46.42-.6-.6.73.86.02.14.23.35.34.33.35.85.33.61.02.27.13.26-.04-.11.1.26" filter="url(#a)"/></svg>