<svg xmlns="http://www.w3.org/2000/svg" width="500" height="500" viewBox="-100 -100 200 200"><defs><clipPath id="c"><path d="m28.17-5.79-.18-.7-.22-.69-.27-.67-.3-.65-.35-.63-.39-.6-.42-.59-.46-.56-.49-.55-.53-.51-.56-.5-.59-.47-.62-.45-.64-.42-.67-.4-.73-.57-.77-.53-.8-.49-.83-.46-.87-.41-.9-.38-.92-.34-.95-.3-.97-.26-.99-.22-1.01-.18-1.02-.15-1.04-.11-1.05-.08-1.06-.05-1.07-.01-1.07.02-1.07.05-1.07.07-1.07.11-1.06.12-1.06.15-1.05.18-1.03.19-1.03.21-1.01.23-1 .25-.98.25-.97.28-.94.28-.92.29-.91.31-.88.31-.85.31-.84.32-.8.33-.79.33-.76.33-.73.33-.7.33-.68.33-.66.33-.63.32-.6.33-.58.32-.56.32-.53.31-.51.31-.49.31-.47.3-.44.3-.43.3-.4.29-.39.29-.37.29-.35.28-.33.28-.31.27-.29.27-.28.27-.26.27-.24.26-.23.25-.21.26 4.1 8.12.46.4.47.41.49.42.5.42.51.43.52.43.54.44.54.44.55.44.57.45.57.45.59.45.59.45.6.45.61.46.63.46.63.46.65.46.66.46.67.46.67.46.69.46.7.45.7.44.71.44.72.43.72.42.73.4.73.4.74.37.74.36.75.35.75.32.75.3.75.28.76.25.76.23.76.21.76.17.76.14.77.11.76.09.77.04.76.01.77-.02.76-.06.77-.1.76-.13.77-.18.76-.21.76-.26.76-.29.76-.33.76-.38.75-.41.76-.45.75-.5.74-.53.75-.57.74-.6.73-.65.72-.67.72-.71.71-.74.57-.55.55-.57.54-.59.53-.62.51-.63.49-.65.47-.66.46-.69.43-.7.41-.71.38-.73.36-.74.33-.75.3-.76.27-.77"/></clipPath><clipPath id="b"><path d="m-28.46-6.08.34-.56.38-.53.42-.53.45-.5.48-.5.51-.47.54-.45.57-.44.61-.43.63-.4.65-.39.69-.37.7-.35.74-.34.75-.31.78-.42.82-.4.86-.37.89-.35.93-.32.96-.29.98-.28 1.02-.24 1.03-.22 1.07-.2 1.08-.17 1.09-.15 1.12-.13 1.12-.1 1.14-.08 1.14-.06 1.14-.03 1.15-.02h1.15l1.14.03 1.14.04 1.13.05 1.12.08 1.11.08 1.09.11 1.08.11 1.07.13 1.04.14 1.02.15 1 .17.98.17.95.17.93.19.9.19.87.2.84.21.82.2.79.21.76.22.73.21.7.22.67.22.65.22.62.22.59.22.56.22.54.21.52.22.49.21.47.21.45.21.42.21.41.21.38.2.37.21.34.2.33.2.3.19.29.2.27.19.25.19.24.19.21.18.21.19-6.37 7.25-.57.35-.58.37-.6.37-.6.38-.63.39-.63.4-.65.4-.66.41-.67.42-.68.43-.7.43-.71.44-.71.45-.73.46-.74.46-.75.47-.77.47-.78.48-.79.49-.8.5-.82.5-.82.5-.84.51-.84.5-.85.51-.85.51-.87.5-.86.5-.87.5-.88.48-.87.48-.88.47-.88.45-.87.44-.88.42-.87.41-.87.38-.86.36-.86.33-.86.31-.85.28-.84.24-.83.21-.83.18-.82.14-.8.1-.8.06-.78.01-.78-.03-.76-.07-.75-.12-.74-.17-.72-.22-.71-.27-.7-.32-.68-.37-.66-.43-.65-.47-.64-.52-.62-.58-.6-.62-.59-.67-.57-.72-.55-.76-.48-.48-.48-.51-.45-.54-.44-.55-.42-.58-.41-.59-.38-.61-.37-.63-.35-.64-.33-.66-.31-.66-.28-.67-.26-.68-.24-.68-.21-.68"/></clipPath><filter id="a"><feTurbulence baseFrequency=".05" numOctaves="3" result="noise" type="noise"/><feDisplacementMap in="SourceGraphic" in2="noise" scale="2"/></filter></defs><rect width="100%" height="100%" x="-100" y="-100" fill="#A6F2EC"/><path fill="#DF202F" stroke="#000" stroke-linejoin="round" stroke-width="1.667" d="m72.7.68.18.51-.27.03.04 1.1.13 1.76-.55 3.28.29-1v1.82l-.19-.55-.2 2.12.01.56-.82 4.56.36-1.66-.13 1.62-.74 2.34-.44 2.57.34-1.44-.59 1.63-.63 2.61-.05.49-.19.7-.26 1.23.02-.38-.81 2.6-1.11 2.47.38-.96-.78 2.36-.11.02-.65 1.51.04.35-1.27 2.32-.39.87-.95 1.68.53-.79-1.68 3.26-.55.44.17-.22-.62 1.54-1.63 2.56-1.18 1.63-.14.27-.41.48-.6.84-.09.24-.55.55-1.67 1.98-1.28 1.4 1.07-.86-1.19 1.24-.69.67-.46.96L50 56.31l.95-1.17-1.88 1.71.02.04-1.53 1.58.05.25-3.19 2.56-.86.6.42-.06-1.36.98-.91.66-1.23.62.7-.41-3.12 2.44.99-.76-2.08 1.44.46-.2-2.92 1.55-.7.46-.56.35-2.65 1.04.87-.34-2.41 1.36-1.33.65.86-.44-2.92 1.03 1.16-.32-1.33.66-2.06.66-1.6.6.6-.34-3.26 1.14-.54.07-1.59.54-.02.17-.07.02-2.88.66-.38-.17-.69.42-1.82.23.56-.19-1.97.33-2.04.37-.48.01-1.18-.18-1.8.44-.07.08-3.17.07-.42-.17-2.03.02.63.13-1.07-.03-1.22-.12-.6-.05-2.35-.25-.69-.19-.44.04-2.19-.21.83.24-2.76-.54-.16.05-1.78-.21-3.01-.59 2.4.2-2.41-.37-1.01-.5-.8.15-1.51-.58-1.98-.84-1.27-.05-1.79-.74 1.09.21-.82-.27-1.34-.63-2.35-.64-.63-.26-.3-.47-2.7-1.11.61.33-.79-.54-2.54-1.18.03-.27-2.39-1.42-.62-.39-.11.11-2.21-1.54-.92-.66-1.25-.73-.2-.49-2.11-1.46-.43-.35-.14-.31-.94-.57-1.37-.95.05-.16-.15-.19-1.45-1.36-.98-.76-.12-.33-1.83-2.13-1.9-1.79.02.09.21-.04-.16-.12-1.99-2.35-.54-.66-.84-.67-.86-1.79-1.01-1.13-.21-.54-.66-1.07-.95-1.35h-.05l-.94-1.66-.93-1.18.13.24-1.47-2.85.36.6-1.1-1.74-.8-2.17-.04.19-.25-.92-.83-1.7-.38-1.28-.75-1.29.11.37-.89-2.8.61 1.38-1.1-2.29-.96-3.25.38.77-.55-1.25-.3-1.77-.49-2.41.24 1.22-.57-2.81-.37-.59.2-.32-.82-2.95.02-.49-.16-2.07-.05 1.07-.3-2.42-.02-.86-.07-1.95.06-.7-.18-.76-.05-1.92-.05-.59L-72.9.2l.04-1.46.12.66-.03-2.08.09-2.1-.08.21.4-3.6.16-.52.21-1.56.1-.99-.03.69-.08-1.38.66-2.64.08-.57.51-1.97.05-.73.15-1.49.04.14.28-1.75.75-1.79.67-2.44.25-.34.09-1.19-.09.67.68-1.61.66-1.76.75-1.82.07.18.71-2.06.58-1.1 1.29-2.9-1.11 1.8 1.57-2.93-.3.78 1.43-2.66-.18.37 1.04-1.96 1.28-1.85-.49.73 1.58-2.35-.04-.14 1.29-1.65-.03.11 1.59-2.4-.04-.22.92-.88.46-.57.4-.23.98-1.3 1.21-1.56.62-.36 1.44-1.5 1.26-1.48.6-.6-.37.5.96-.78 1.41-1.33 1.27-1.15.15-.3.66-.22 1.42-1.43 1.18-.58.3-.45 1.38-.93.57-.17 1.3-1.33-.05.2.28-.23 2.02-1.11 2.46-1.67.89-.19.61-.34 1.07-.71 1.25-.49-.11.22.68-.5 4.04-1.81-.58.51 1.98-1.02.74-.38.47-.07 2.63-.78-1.71.43 2.9-.74.34-.17.34.02.78-.43 3.54-.46-.81-.04 1.65-.26 1.55-.29.11-.17 1.81-.3 1.81.01.78-.15.73-.2.51.09 1.92.02 1.21-.16-.75-.11 3.06.22 2.39-.35.35.25h-.9l2.75.04.53.26.42-.04 2.36.26.37-.06 2.75.17-.28-.02.25.31 1.61.08.74.37 3.16.63 1.84.41 1.51.48-.82-.06 1.04.17.81.27 1.47.46-.73-.45 2.58 1.03.97.45.43.23 3.19 1.2-.84-.52 3 1.59-1.5-.72 2.78 1.5.71.44.08-.25.89.87 2.41 1.17 1.15.77.61.16-.57-.44 2.61 2.25.78.32.61.47.55.24 2.78 2.4.05-.18.39.21 1.51 1.83 2.12 1.67-1.04-.63.87.58 1.66 1.54-.48-.37 1.56 1.47.61 1.06.36.17 1.33 1.36-.17.18.64.34 1.03 1.38 1.98 2.6.59.85.66.77.14.36 1.51 2.32.17.31.04-.23 1.61 2.95-.14-.2.33.54.73 1.11.14.1 1.34 2.46.28 1.2.67 1.48.43.42.17 1 .41.77.36 1.05 1.03 2.08.65 1.93.37 1.08.34 1.28.11.71.31 1.01.27.86.19.91.73 2.37-.23-.18.74 2.31.12 1.08.16.21-.01 1.32.36 1.81-.22-.83.53 2.11-.12.81.25.14.2 3.48.12-.3.14 1.96.01 1.6-.04.06L72.7.68l.18.51" filter="url(#a)"/><path fill="#fff" d="m-28.46-6.08.34-.56.38-.53.42-.53.45-.5.48-.5.51-.47.54-.45.57-.44.61-.43.63-.4.65-.39.69-.37.7-.35.74-.34.75-.31.78-.42.82-.4.86-.37.89-.35.93-.32.96-.29.98-.28 1.02-.24 1.03-.22 1.07-.2 1.08-.17 1.09-.15 1.12-.13 1.12-.1 1.14-.08 1.14-.06 1.14-.03 1.15-.02h1.15l1.14.03 1.14.04 1.13.05 1.12.08 1.11.08 1.09.11 1.08.11 1.07.13 1.04.14 1.02.15 1 .17.98.17.95.17.93.19.9.19.87.2.84.21.82.2.79.21.76.22.73.21.7.22.67.22.65.22.62.22.59.22.56.22.54.21.52.22.49.21.47.21.45.21.42.21.41.21.38.2.37.21.34.2.33.2.3.19.29.2.27.19.25.19.24.19.21.18.21.19-6.37 7.25-.57.35-.58.37-.6.37-.6.38-.63.39-.63.4-.65.4-.66.41-.67.42-.68.43-.7.43-.71.44-.71.45-.73.46-.74.46-.75.47-.77.47-.78.48-.79.49-.8.5-.82.5-.82.5-.84.51-.84.5-.85.51-.85.51-.87.5-.86.5-.87.5-.88.48-.87.48-.88.47-.88.45-.87.44-.88.42-.87.41-.87.38-.86.36-.86.33-.86.31-.85.28-.84.24-.83.21-.83.18-.82.14-.8.1-.8.06-.78.01-.78-.03-.76-.07-.75-.12-.74-.17-.72-.22-.71-.27-.7-.32-.68-.37-.66-.43-.65-.47-.64-.52-.62-.58-.6-.62-.59-.67-.57-.72-.55-.76-.48-.48-.48-.51-.45-.54-.44-.55-.42-.58-.41-.59-.38-.61-.37-.63-.35-.64-.33-.66-.31-.66-.28-.67-.26-.68-.24-.68-.21-.68" filter="url(#a)" transform="translate(49.02 -28.35)"/><path fill="#fff" d="m28.17-5.79-.18-.7-.22-.69-.27-.67-.3-.65-.35-.63-.39-.6-.42-.59-.46-.56-.49-.55-.53-.51-.56-.5-.59-.47-.62-.45-.64-.42-.67-.4-.73-.57-.77-.53-.8-.49-.83-.46-.87-.41-.9-.38-.92-.34-.95-.3-.97-.26-.99-.22-1.01-.18-1.02-.15-1.04-.11-1.05-.08-1.06-.05-1.07-.01-1.07.02-1.07.05-1.07.07-1.07.11-1.06.12-1.06.15-1.05.18-1.03.19-1.03.21-1.01.23-1 .25-.98.25-.97.28-.94.28-.92.29-.91.31-.88.31-.85.31-.84.32-.8.33-.79.33-.76.33-.73.33-.7.33-.68.33-.66.33-.63.32-.6.33-.58.32-.56.32-.53.31-.51.31-.49.31-.47.3-.44.3-.43.3-.4.29-.39.29-.37.29-.35.28-.33.28-.31.27-.29.27-.28.27-.26.27-.24.26-.23.25-.21.26 4.1 8.12.46.4.47.41.49.42.5.42.51.43.52.43.54.44.54.44.55.44.57.45.57.45.59.45.59.45.6.45.61.46.63.46.63.46.65.46.66.46.67.46.67.46.69.46.7.45.7.44.71.44.72.43.72.42.73.4.73.4.74.37.74.36.75.35.75.32.75.3.75.28.76.25.76.23.76.21.76.17.76.14.77.11.76.09.77.04.76.01.77-.02.76-.06.77-.1.76-.13.77-.18.76-.21.76-.26.76-.29.76-.33.76-.38.75-.41.76-.45.75-.5.74-.53.75-.57.74-.6.73-.65.72-.67.72-.71.71-.74.57-.55.55-.57.54-.59.53-.62.51-.63.49-.65.47-.66.46-.69.43-.7.41-.71.38-.73.36-.74.33-.75.3-.76.27-.77" filter="url(#a)" transform="translate(-47.58 -25.03)"/><g fill="none" stroke="#000" transform="translate(49.02 -28.35)"><path stroke-linejoin="round" stroke-width="1.667" d="m-29.87.24-.04-.69.01-.67.05-.67.08-.65.12-.64.17-.63.2-.61.23-.6.28-.59.31-.57.34-.56.38-.53.42-.53.45-.5.48-.5.51-.47.54-.45.57-.44.61-.43.63-.4.65-.39.69-.37.7-.35.74-.34.75-.31.78-.42.82-.4.86-.37.89-.35.93-.32.96-.29.98-.28 1.02-.24 1.03-.22 1.07-.2 1.08-.17 1.09-.15 1.12-.13 1.12-.1 1.14-.08 1.14-.06 1.14-.03 1.15-.02h1.15l1.14.03 1.14.04 1.13.05 1.12.08 1.11.08 1.09.11 1.08.11 1.07.13 1.04.14 1.02.15 1 .17.98.17.95.17.93.19.9.19.87.2.84.21.82.2.79.21.76.22.73.21.7.22.67.22.65.22.62.22.59.22.56.22.54.21.52.22.49.21.47.21.45.21.42.21.41.21.38.2.37.21.34.2.33.2.3.19.29.2.27.19.25.19.24.19.21.18.21.19.18.18.18.17.16.18.14.17.13.17.12.17.1.16.1.17.08.16.07.16" filter="url(#a)"/><path stroke-linejoin="round" stroke-width="2.222" d="m-30.27-4.02-.09.5-.06.54-.03.58.01.59.04.62.07.64.11.66.13.66.16.67.19.68.21.68.24.68.26.68.28.67.31.66.33.66.35.64.37.63.38.61.41.59.42.58.44.55.45.54.48.51.48.48.55.76.57.72.59.67.6.62.62.58.64.52.65.47.66.43.68.37.7.32.71.27.72.22.74.17.75.12.76.07.78.03.78-.01.8-.06.8-.1.82-.14.83-.18.83-.21.84-.24.85-.28.86-.31.86-.33.86-.36.87-.38.87-.41.88-.42.87-.44.88-.45.88-.47.87-.48.88-.48.87-.5.86-.5.87-.5.85-.51.85-.51.84-.5.84-.51.82-.5.82-.5.8-.5.79-.49.78-.48.77-.47.75-.47.74-.46.73-.46.71-.45.71-.44.7-.43.68-.43.67-.42.66-.41.65-.4.63-.4.63-.39.6-.38.6-.37.58-.37.57-.35.55-.35.54-.34.53-.33.51-.33.5-.31.48-.31.47-.3.46-.3.44-.29.43-.28" filter="url(#a)"/><circle cx="22.2" cy="-5.107" r="4.018" clip-path="url(#b)" filter="url(#a)"/><circle cx="21.67" cy="-5.132" r="4.874" clip-path="url(#b)" filter="url(#a)"/><circle cx="20.955" cy="-4.962" r="3.968" clip-path="url(#b)" filter="url(#a)"/><circle cx="20.6" cy="-4.547" r="3.878" clip-path="url(#b)" filter="url(#a)"/><circle cx="21.09" cy="-4.822" r="4.754" clip-path="url(#b)" filter="url(#a)"/><circle cx="21.23" cy="-1.887" r="4.56" clip-path="url(#b)" filter="url(#a)"/><circle cx="23.54" cy="-6.237" r="3.56" clip-path="url(#b)" filter="url(#a)"/><circle cx="23.12" cy="-5.802" r="4.832" clip-path="url(#b)" filter="url(#a)"/><circle cx="20.475" cy="-3.792" r="4.34" clip-path="url(#b)" filter="url(#a)"/><circle cx="23.125" cy="-1.847" r="3.038" clip-path="url(#b)" filter="url(#a)"/></g><g fill="none" stroke="#000" transform="translate(-47.58 -25.03)"><path stroke-linejoin="round" stroke-width="2.222" d="m27.14 1.98.35-.81.3-.81.23-.81.18-.79.13-.79.07-.78.01-.76-.03-.76-.08-.73-.13-.73-.18-.7-.22-.69-.27-.67-.3-.65-.35-.63-.39-.6-.42-.59-.46-.56-.49-.55-.53-.51-.56-.5-.59-.47-.62-.45-.64-.42-.67-.4-.73-.57-.77-.53-.8-.49-.83-.46-.87-.41-.9-.38-.92-.34-.95-.3-.97-.26-.99-.22-1.01-.18-1.02-.15-1.04-.11-1.05-.08-1.06-.05-1.07-.01-1.07.02-1.07.05-1.07.07-1.07.11-1.06.12-1.06.15-1.05.18-1.03.19-1.03.21-1.01.23-1 .25-.98.25-.97.28-.94.28-.92.29-.91.31-.88.31-.85.31-.84.32-.8.33-.79.33-.76.33-.73.33-.7.33-.68.33-.66.33-.63.32-.6.33-.58.32-.56.32-.53.31-.51.31-.49.31-.47.3-.44.3-.43.3-.4.29-.39.29-.37.29-.35.28-.33.28-.31.27-.29.27-.28.27-.26.27-.24.26-.23.25-.21.26-.19.25-.18.24-.16.25-.15.24-.14.24-.12.23-.11.23-.1.23-.08.23-.07.22" filter="url(#a)"/><path stroke-linejoin="round" stroke-width="2.222" d="m28.81-7.69.19.76.13.77.07.78.03.78-.03.78-.07.79-.11.79-.16.79-.2.78-.23.77-.27.77-.3.76-.33.75-.36.74-.38.73-.41.71-.43.7-.46.69-.47.66-.49.65-.51.63-.53.62-.54.59-.55.57-.57.55-.71.74-.72.71-.72.67-.73.65-.74.6-.75.57-.74.53-.75.5-.76.45-.75.41-.76.38-.76.33-.76.29-.76.26-.76.21-.77.18-.76.13-.77.1-.76.06-.77.02-.76-.01-.77-.04-.76-.09-.77-.11-.76-.14-.76-.17-.76-.21-.76-.23-.76-.25-.75-.28-.75-.3-.75-.32-.75-.35-.74-.36-.74-.37-.73-.4-.73-.4-.72-.42-.72-.43-.71-.44-.7-.44-.7-.45-.69-.46-.67-.46-.67-.46-.66-.46-.65-.46-.63-.46-.63-.46-.61-.46-.6-.45-.59-.45-.59-.45-.57-.45-.57-.45-.55-.44-.54-.44-.54-.44-.52-.43-.51-.43-.5-.42-.49-.42-.47-.41-.46-.4-.46-.4-.43-.39-.43-.39-.42-.38-.4-.38-.39-.36-.37-.37-.37-.35-.35-.35-.34-.34" filter="url(#a)"/><circle cx="4.097" cy="-6.537" r="4.464" clip-path="url(#c)" filter="url(#a)"/><circle cx="5.667" cy="-9.287" r="3.334" clip-path="url(#c)" filter="url(#a)"/><circle cx="2.967" cy="-6.577" r="4.212" clip-path="url(#c)" filter="url(#a)"/><circle cx="5.667" cy="-6.527" r="4.734" clip-path="url(#c)" filter="url(#a)"/><circle cx="4.277" cy="-7.587" r="3.508" clip-path="url(#c)" filter="url(#a)"/><circle cx="1.952" cy="-6.437" r="3.836" clip-path="url(#c)" filter="url(#a)"/><circle cx="4.337" cy="-9.197" r="4.406" clip-path="url(#c)" filter="url(#a)"/><circle cx="1.867" cy="-11.112" r="3.68" clip-path="url(#c)" filter="url(#a)"/><circle cx="2.492" cy="-7.482" r="3.718" clip-path="url(#c)" filter="url(#a)"/><circle cx="4.652" cy="-8.472" r="4.668" clip-path="url(#c)" filter="url(#a)"/></g><g fill="none" stroke="#1C8613" stroke-linejoin="round" stroke-width="2"><path d="m37.55-66.52-24.31 4.49 8.9 3.95 7.55 1.87.18.25-5.39-1.61-6.95-2.9-5.78-2.84-4.45-1.47-4.49.28-5.37 1.37-4.97 1.34-1.53.76 4.08.57 7.94.97 5.75 1.39-5.43 1.09-47.54-4.22" filter="url(#a)"/><path d="m-22.83-73.64 8.24 3.96 21.17 2.59 13.32 2.71 3.75 1.5-.82.23-.9-.44.42-.75 1.35-.76 1.94-.25 2.39.75 1.96 1.67.09 2.14-1.89 2.38-1.01 2.59 2.17 1.22-3.8-5.54-36.7-16.79" filter="url(#a)"/><path d="m-30.83-70.17 20.39 2.62-.87 2.5 1.77.99 2.29.01 2.6-.52 4.96-.53 7.15-.28 6.34-.19 2.48-.47-1.8-.93-3.55-1.15-1.84-.78 1.8.34 5.22 2.1L25-61.98l16.18 7.99 19.19 10.97" filter="url(#a)"/><path d="m24.24-72.97-14.6-.75-.05 2.19 4.11.92 1.15-.73-1.69-1.16-1.78-.55.19.49 2.46 1.51 3.56 2.19 2.9 2.27.56 1.61-2.85.41-6.28-.71-8.28-1.04-7.55-.24-4.01 1.19.95 2.09 6.88 1.47 18.3.26 33.31 6.83" filter="url(#a)"/><path d="m18.38-74.87 8.11 18.7-6.68-.46-1.84-3.8-1.53-3.67-2.7-2.57-2.86-1-2.41.57-2.05 1.6-1.8 1.78-1.57 1.04-1.54-.19-1.75-1.14-1.25-1.06 1.4.1 6.36 1.3 10.62.99 9.49-1.14 4.94-1.4 19.12 9.4" filter="url(#a)"/><path d="m1.88-77.28 1.13 9.22-3.81 9.41-2.29 3.56.42-.05 6.13.04 10.75 1.48 10.64 1.82 6.07.54.39-1.18-2.7-1.74-1.65-.47 2.17 1.72 5.31 3.15 4.24 2.53-2.4.06-12.74-2.48-21.43-2.81-19.62-.23 5.06 2.16 66.27-1.58" filter="url(#a)"/><path d="M40.94-63.95 30.7-57.59l-19.97-3.58-9.17-3.05-3.51-1.75-2.16-1.23-1.62-1.11-1.15-.95-.94-.59-.43-.13 1.16.29 3.84.63 6.69.99 8.37 1.47 7.95 2.04 5.17 2.18.29.8-4.86-2.46-2.55-3.5 27.51 6.73" filter="url(#a)"/><path d="m18.38-74.87 22.88 23.66-5.68 4.47-11.94-4.57-11.43-6.07-10.43-4.07-8.17-1.33-4.19.51.12.93 3.34.33 5.24-.46 6.4-.79 6.94-.6 6.02-.38 2.63-.67-2.85-1.57-7.67-2.59L2-71.04l-.59-2.39 7.51-1.44-.61-1.95" filter="url(#a)"/><path d="m33.95-68.18-45.34 5.91.71-1.43 10.51-1.66 7.34-.11.65 1.06-5.84 1.04-9.59.27-9.44-.5-5.98-.85-1.01-.72 3.8-.18 7.37.63 8.81 1.27 6.45 1.2-1.85.42-14.68.01-21.02.49-2.72-4.82" filter="url(#a)"/><path d="M66.38-31.42 25.91-48.26l4.45-3.81 3.51-3.6-3.24-3.93-5.97-2.57-5-.48-2.79.89-1.16 1.01-.57.18-.52-.83-.22-1.47.65-1.59 1.8-1.36 2.74-.96 3.14-.48 3 .1 2.4.8 1.32 1.6-.64 2.41-4.65 2.89-12.43 2.49-23.34 1.36-28.61 1.36-11.42-.12" filter="url(#a)"/><path d="M66.38-31.42 43.15-54.66l-11.97-9.58-2.79-1.6 1.53 2.91.72 4.31-3.78 3.16-8.62.94-10.64-.85-8.55-1.71-3.4-1.91 2.52-1.89 6.94-1.78 8.77-1.45 8.22-.65 6.26.57 3.85 1.89 1.3 2.74-1.37 2.54-3.61 1.29-3.74-.17-.6-.64 1.66-.74-9.91-4.4-44.95-9.26" filter="url(#a)"/><path d="m-53.47-52.45 45.04-12.84 17.51-4.13 3.35-2.25 1.93-.26 5.37 1.97 7.63 3.52 6.29 3.89 1.55 3.14-4.76 1.49-9.72-.65-10.27-2.58-5.59-3.4.09-2.64-1.91-1.03-16.12-.15-24.8 2.22" filter="url(#a)"/><path d="m27.99-71.61-14.2-.28 2.36 1.84 3.24 2.83 4.46 4.62 6.62 6.02 7.01 5.75 4.23 3.58-.72.44-5.61-2.23-8.57-3.42-8.97-3.05-7.2-1.74-3.91-.37-.06.57 3.1 1.01 4.06.95 2.5.09.56-2.01 1.61-4.71 6-4.96 17.6 3.44" filter="url(#a)"/><path d="m-52.26-54.01 71.51 6.18 22.53-1.1 2.89-1.96-5.39-2.22-8.46-2.76-8.45-3.19-6.07-2.89-1.97-1.52 2.24.54 4.54 2.33 3.39 2.83-1.14 1.79-6.66-.25-6.86-1.98 8.83.18L62.02-40.3" filter="url(#a)"/><path d="m-13.54-75.84 4.63 9.34 21.16 3.87 14.28 1.44 5.89-.26-.53-1.79-5.15-2.54-8.32-2.15-9.7-.8-8.79.86-5.58 2.05-1.41 2.22 1.62 1.09 2.98-1.27 5.22-3.8 11.14-3.27 24.22 4.77" filter="url(#a)"/><path d="m1.88-77.28 6.55 1.46 7.79 5.34 5.15 8.3 3.31 8.4 4.23 6.32 4.93 3.15 2.53-.13-2.88-2.61-8.92-3.68-12.78-3.34L-.92-56.3l-8.75-1.11-2.61-.53 3.38-.45 7.51-.46 9.16-.11 8.2.5 4.18.64-3.52-.17-16.71.66-55.23 6.98" filter="url(#a)"/><path d="m54.29-51.61-18.27-2.95-27.28-4.59-13.92-2.52-1.52-1.37 4.1-1.04 4.71-1.45 3.31-2.12 1.63-2.31-.02-1.56-1.85.18-3.37 2.75-2.43 5.82 4.42 7.71 14.33 2.49L7.94-76.76" filter="url(#a)"/><path d="m-39.41-64.79 17.01 2.27 15.83.88 7.98-.52 5.11.21 4.95 1.56 5.81 1.75 5.77.36 3.47-1.65-.67-2.79-4.96-2.15-8.08-.06-9.2 2.1-6.23 2.87 4.46 1.76 19.34-1.46 4.03-12.86" filter="url(#a)"/><path d="M33.06-69.05 6.22-62.03l6.48 3.01 5.63 1.94 5.11 1.54 5.51.48 3.44-.83-1.3-1.64-6.58-1.83-9.93-1.59-9.77-1.2-6.16-.75-.78-.26 4.1.39 7.02 1.3 7.85 2.51 7.3 3.61 5.82 3.77 1.8 1.77-13.13-4.13-56.74-12.18" filter="url(#a)"/><path d="M60.41-43.25 35.52-59.51l-16.17-6.84-4.93-1.11-3.09.32-6.13.06-7.9-.12-6.14.28-1.85 1.16 2.62 2.21 5.05 2.98 4.55 3.04 2.05 2.26.06 1 .76-.08 4.18-.56 7.71-.65 7.81-1.25 2.4-3.41-4.29-6.07 14.15-.72" filter="url(#a)"/><path d="m-3.48-77.13 18.34 21.37-13.74-3.02-7.48-6.74-.6-4.9 1.97-2.25 3.29-.02 5.54 1.72 8.23 2.96 9.51 3.55 7.92 3.28 3.52 2.24-2.16.91-6.87.09-8.86.21-7.96.85-5.47.82-2.06-.95 4.12-3.56 11.18-4.96L4.63-77.24" filter="url(#a)"/><path d="m-55.31-50.35 68.1 1.7 12.02-3.65-5.76-5.16-7.51-3.6-5.66-1.85-4.09-.89-2.77-.35-1.17.24.46.94 1.31 1.47 1.34 1.53 1.81 1.1 4.03.42 7.2-.18 8.15-.36 5.23.29 4.65 3.56L64.7-35.09" filter="url(#a)"/><path d="m-29.58-70.66 26.74-.42.25-1.29-2.86.49-1.73 2.24-.59 2.55.07 1.87 1.3 1.15 3.88.81 7.2.71 9.71.58 10.36.59 9.29 1.1 7.56 2.34 6.04 4.05 4.56 5.33 1.52 4.69-6.59.13-25.25-8.45-61.86-12.43" filter="url(#a)"/><path d="m48.78-57.36-54.96-4.85-13.75-3.34-1.63-1.67-2 1.22-1.91 3.18 2.2 3.38 7.53 2.44 10.38 1.15 9.62-.17 6.49-1.6 2.47-3.01-2.13-3.9-7-3.83-9.91-2.91-8.03-1.73-4.3-.2-14.36 4.08" filter="url(#a)"/><path d="m5.16-76.98 2.16 3.67-7.65 2.98-3.73 3.41.06 2.18 1.17.12.53-1.18-.15-1.24.05-.68.8-.24 1.12-.19.2-.34-1.48-.36-2.17-.08-.15.41 4.09 1.11 6.37 2.08-.48 2.89-21.12 3.31-42.56 12.28" filter="url(#a)"/><path d="m19.93-73.61-.56-.16-.61-.21-1.06-.32-1.39-.41-1.48-.43-1.37-.39-1.19-.33-1.05-.26-.99-.19-1.01-.15-1.06-.12-1.11-.12-1.1-.12-1.05-.12-.97-.12-.84-.12-.71-.1-.79-.05-1.55.15-3.06-.22 2.5.21 1.6.69 1 1.19.81 1.05.84.49.94-.01 1.01-.21 1.06-.1 1.05.14.99.37.9.51.84.64.84.79.96.98 1.15 1.21 1.37 1.38 1.43 1.39 1.28 1.02-19.82-11.63.44-.12 1.42-.16 1.36-.24 1.1-.22.95-.14.93-.09.99-.09L6-78.46l1.14-.17 1.16-.21 1.14-.21 1.07-.16 1.04-.08 1.08-.04 1.28-.04 1.58-.05 1.88.01 2.01.12 1.8.07-28.6 2.33-1.59.03-1.3-.04-1.17-.26-1.19-.61-1.29-.92-1.35-.99-1.34-.72-1.24-.27-1.1.08-1.03.12-1.02-.11-1.08-.45-1.13-.63-1.24-.56-1.08-.24 14.42 6.03.66-.14 1.17.02 1.21.27 1.11.52 1.03.66 1 .7 1.01.67 1.04.57 1.08.49 1.1.39 1.08.32 1.03.24.97.14.93.01.92-.1.97-.13h1.01l1.05.29 1.02.63.9.81.6.61.21.59-28.15-6.1-.99-.29-1.53-1.69-1.84-2.97-1.89-2.97-1.66-1.9-1.37-.54-1.21.44-1.29.72-1.55.33-1.85-.46-2.02-1.23-1.95-1.53-1.74-1.17-1.58-.66-1.42-.59 38.68 13.86-1.38-.25-.95-.09-.92.03-1.01.08-1.1.07-1.13.09-1.11.12-1.1.15-1.09.17-1.1.17-1.09.17-1.08.15-1.04.14-.97.14-.91.14-.88.17-.87.2-.9.24-.95.32-1.08.44-1.48.73-26.6 1.98.52-.25 1.21-.09 1.43-.14 1.47-.08 1.42-.05 1.32-.08 1.19-.15 1.13-.2 1.14-.2 1.25-.15 1.43-.08h1.56l1.61.05 1.54.08 1.35.06 1.16.01 1.02-.04 1.05-.08 1.54-.21 2.84-.89" filter="url(#a)"/><path d="m-29.01-70.94 2.55-1.01 1.45-.22 1.22.07 1.12.08 1.03.03.97.02.93.02.93.04.94.03.98.03 1.03-.01 1.05-.05 1.07-.1 1.06-.11 1.07-.07 1.08-.03 1.09.03 1.08.08 1.07.18 1.01.34.96.47.98.48 1.1.36 1.19.47-27.64-.63-.13.44-.31 1.3-.61 1.09-.91.74-1.05.75-1.01.91-.91.99-.81.94-.69.86-.57.88-.43 1.03-.28 1.28-.16 1.49-.12 1.58-.17 1.5-.28 1.26-.43.98-.56.76-.79.75-1.15.83" filter="url(#a)"/><path d="m-29.58-70.66.87 1.16 1.57.59 1.42-.34 1.18-.72 1.01-.7.95-.51.93-.32.91-.15.91-.03.92.08.96.22 1.01.32 1.08.39 1.13.41 1.16.4 1.12.38 1.08.42 1.04.63 1.07.98 1.29 1.03-21.61-4.24.36-.12 1.14-.53 1.36-.62 1.27-.56 1.15-.48 1.03-.43.96-.38.9-.35.88-.33.87-.31.89-.3.94-.28 1-.27 1.06-.25 1.1-.26 1.09-.26 1.09-.27 1.08-.28 1.13-.26 1.22-.23 1.29-.18 1.07-.17m-26.7 8.85-2.09 1.29-1.38.84-.93.58-.78.48-.8.43-.88.42-.93.44-.97.47-.99.51-.98.53-.99.53-.99.55-.94.58-.88.62-.81.68-.74.72-.75.73-.83.76-.96.78-1.11.82-1.18.85-1.17.86-1.06.8-.85.39-4.79-12.2 2.33-.64 1.88-.23 1.38-.12 1.14-.18 1.2-.17 1.41-.08 1.57.07 1.63.17 1.59.15 1.46.01 1.31-.19 1.16-.34 1.09-.38 1.08-.27 1.13-.03 1.16.24 1.15.43 1.16.26 1.49-.49 1.76-1.18 1.11-.8.83-.75.73-.76.7-.89.72-1.1.77-1.33.86-1.48.9-1.49.9-1.44.85-1.41.77-1.41.72-1.36.71-1.19.76-1.04.9-.98.97-.22-54.74 19.79 1.13.18.94-.48 1.54-.08 2.3.44 2.63.53 2.44.17 1.97-.35 1.57-.65 1.43-.56 1.58-.15 1.86.37 2.07.72 2.13.8 2.01.67 1.8.41 1.59.17 1.44.02 1.35-.07 1.29-.12 1.22-.19 1.1-.3 1.03-.5 1.11-.85-1.3 1.33-.76.31-.9.45-.99.43-1.11.35-1.22.21-1.31.07-1.41-.04-1.51-.11-1.56-.17-1.56-.22-1.48-.23-1.38-.12-1.37.12-1.49.41-1.57.59-1.41.29" filter="url(#a)"/><path d="m-44.26-61.23.49 1.72.31 1.87-.55 1.04-.83.66-.74.61-.7.63-.75.63-.88.65-.95.7-.9.8-.76.94-.58 1.02-.42 1.08-.31 1.07-.24 1.06-.21 1.07-.19 1.12-.16 1.18-.13 1.22-.03 1.29.16 1.39.3 1.34.57.63 3.05-19.94-.91-1.09-1.13-.05-1.07.69-.91 1.1-.97 1.07-1.18.76-1.32.47-1.26.35-1.05.43-.84.6-.78.71-.91.69-1.17.57-1.41.43-1.45.43-1.22.82-1.1 1.84" filter="url(#a)"/><path d="m-48.34-57.95-.06-.17.31-1.04.44-1.36.51-1.28.56-1.13.52-1.16.41-1.39.24-1.7.12-1.93.05-2.05.02-2.09-.03-2.07-.05-1.85.09-1.06.52.19" filter="url(#a)"/><path d="M-48.34-57.95v-.12l.55-.75.56-1.21.47-1.35.49-1.21.62-1.02.74-.88.81-.8.83-.77.8-.77.71-.84.59-.95.49-1.06.54-1.11.78-1.13 1.17-1.23 1.44-1.39 1.18-1.09-6.59 2.01.01.7-.18.93-.38 1.09-.5 1.17-.56 1.19-.63 1.13-.7 1.05-.73.98-.7.98-.64 1.03-.56 1.12-.49 1.16-.43 1.14-.41 1.07-.43 1-.53 1-.69 1.06-.85 1.09-.92 1.07-.99 1.21-1.84 2.1.44-.55.43-.91.4-1.31.48-1.41.67-1.28.82-1.07.83-.93.75-.85.66-.85.63-.85.67-.86.69-.9.69-.96.66-1.02.65-1.07.67-1.05.74-.99.8-.88.87-.77.94-.76 1.01-1.18m-21.42 30.69.02-.52.54-1.05.49-1.17.38-1.17.39-1.12.47-1.06.58-1 .62-.94.64-.92.6-.9.56-.91.52-.93.53-.98.59-1.02.66-1.09.73-1.15.77-1.18.78-1.13.72-.99.61-.81.52-.67.59-.8 1-1.25m-33.44 51.15.66-.57.88-.58 1.04-.96 1.12-1.19 1.04-1.24.8-1.23.56-1.2.45-1.16.5-1.15.63-1.16.72-1.19.69-1.19.64-1.13.65-.98.79-.81 1.01-.71 1.15-.74 1.13-.87.93-.97.68-1 .6-1.35" filter="url(#a)"/><path d="m-65.69-33.1-1.01-2.18-.19-1.54-.99-1.75-1.37-1.96-1.1-1.9-.58-1.73-.16-1.61.01-1.61-.12-1.76-.43-2.01-.78-2.26-.9-2.36-.68-2.24-.21-1.96.03-1.93-.72-2.66-2.22-3.28 9.23 40.2.29-1.69.52-1.27.48-1.17.43-1.23.37-1.25.31-1.21.27-1.12.29-1.05.36-1 .46-.99.54-1.01.59-1.04.59-1.07.52-1.1.43-1.12.37-1.16.37-1.24.66-1.46-8.53 22.79 1.14-1.33.83-1.36.45-1.32.35-1.27.41-1.22.52-1.14.57-1.04.59-.93.58-.88.57-.86.6-.87.66-.89.76-.87.83-.85.86-.79.83-.77.77-.79.73-.87 1.03-1.04m125.3 23.7 1.27-1.37 3.26-2.13 2.69-2.07.92-1.64-.58-1.3-1.2-1.22-.94-1.38-.21-1.62.53-1.83.97-1.92 1.04-1.95.87-1.97.61-2 .39-2.04.26-2 .43-1.98 1.15-2.2 3.06-3.17M67.77-28.29l-1.05-1.46-.73-1.04-.45-.91-.41-.87-.52-.86-.66-.9-.74-.98-.72-1.01-.63-.99-.51-.9-.46-.78-.51-.68-.67-.69-.89-.73-.71-.32m8.63 11.04.32-1.25.36-1.21.18-1.18.11-1.31.15-1.49.15-1.59.14-1.58.12-1.52.11-1.43.07-1.34-.04-1.26-.19-1.19-.34-1.14-.43-1.14-.44-1.22-.4-1.35-.37-1.5-.38-1.66-.4-1.84-.33-2.01-.16-2.06-.04-1.79-.23-1.32-.35-1.82" filter="url(#a)"/><path d="m63.36-61.35.33 1.43.51 2.06.32 2.27.24 2.03.24 1.72.24 1.51.21 1.39.16 1.34.05 1.34-.08 1.36-.17 1.38-.2 1.36-.11 1.32.03 1.29.17 1.3.22 1.33.18 1.34.12 1.29.12 1.14.19.97.28.88.33.93-.77-1.82-1.03 1.56.54 1.22.91 1.24.84 1.26.62 1.21.41 1.12.22 1.06.08 1.03-.02 1.06-.07 1.11-.11 1.16-.12 1.21-.12 1.22-.06 1.18-.1 1.02-.31.61" filter="url(#a)"/><path d="m70.26-68.04-1.06 1.61.23 1.49.22 2.18.08 2.47.07 2.3.01 2.06-.19 1.97-.44 1.99-.63 2.02-.64 1.92-.49 1.73-.32 1.52-.23 1.38-.26 1.39-.31 1.47-.26 1.58-.12 1.65-.11 1.67-.15 1.53.14.92-.43-.42.58.46 1.1.45 1.36.58 1.19.91.88 1.22.71 1.33.71 1.27.92 1.08 1.26.87 1.7.69 2.09.57 2.24.59 1.97.75 1.41.99.9 1.18.85 1.2 1.28 1 1.72.75 2.04.81" filter="url(#a)"/><path d="m63.08-38.75 1.36 1.73 1.37 1.05 1.1.84.89.8 1 .78 1.31.76 1.58.79 1.65.87 1.51.98 1.28 1.06 1.09 1.07.95 1.05.83 1.04.7 1.07.65 1.13.74 1.15 1.04 1.14 1.44 1.06 1.79.97 1.9.89 1.78.89 1.52.91 1.2.79 1.26-.19-34.33-29.53 1.71 1.03 2.43-.36 2.56-.55 2.1-.18 1.46.25 1.11.51 1.17.57 1.38.59 1.42.72 1.19.95.89 1.13.86 1.09 1.3.76 2.05.34 2.88.05 3.55.11 3.16 1.1M45.09-79.87l1.5 3.01 1.16 1.44 1.07 1.02 1.09.99.98 1.16.81 1.36.64 1.51.48 1.6.35 1.63.23 1.59.16 1.54.17 1.45.26 1.3.43 1.12.64.9.79.71.79.65.56.85.13 1.33-.29 1.95-.3 2.38.34 2.2.81 1.4m-2.57-3.45-.74-1.04-.45-.79-.41-.76-.48-.79-.57-.8-.64-.79-.68-.74-.7-.71-.71-.69-.71-.69-.74-.72-.77-.79-.8-.86-.83-.93-.83-.98-.85-1.01-.88-1-.9-.95-.94-.87-.94-.81-.88-.72-.74-.6-.63-.49-.75-.81" filter="url(#a)"/><path d="m59.57-30.62.22-1.68-.18-1.49-.08-1.43v-1.27l-.01-1.1-.1-.98-.19-.94-.25-.94-.29-.99-.32-1.01-.37-1.02-.45-1.04-.54-1.08-.66-1.14-.77-1.22-.84-1.3-.7-1.28-.33-1.04.11-.56-1.69-1.53-.41-1.4-.28-1.39-.19-1.31-.22-1.19-.36-1.09-.53-.99-.71-.94-.85-.91-.94-.9-.98-.89-1-.89-.99-.9-.97-.91-.91-.95-.85-.97-.8-1.02-.77-1.05-.8-1.08-.85-1.13-.87-1.17-.79-1.23-.7-1.29-.88-1.46-1.92-1.79" filter="url(#a)"/><path d="m33.55-59.44 1.96.88 1.28.4 1.22.15 1.3.06 1.38.06 1.41.03 1.44.02 1.38.09 1.22.23.94.44.64.65.46.77.6.63 1.12.11 1.62.2m22.19 14.75-1.49-1.05-1.18-1.16-.96-.91-.95-.67-1.05-.5-1.16-.44-1.25-.41-1.28-.43-1.22-.52-1.06-.67-.91-.87-.79-1.04-.81-1.12-.92-1.09-1.04-.99-1.04-.88-.91-.81-.74-.76-.79-.6-1.16-.27-1.56-.14-1.48-.89" filter="url(#a)"/><path d="m49.96-56.19.8 1.58.44 1.27.49.93.61.71.67.72.69.88.68 1.08.64 1.23.58 1.29.52 1.26.49 1.16.49 1.06.47.97.43.95.35.95.29.92.27.85.22.76.13.71-.05.56" filter="url(#a)"/><path d="m61.31-40.13-.27-.61-.58-.99-.56-.92-.55-.91-.56-.96-.61-1-.68-1.07-.76-1.11-.81-1.14-.8-1.09-.76-1.01-.69-.9-.65-.8-.63-.76-.66-.74-.68-.75-.72-.73-.75-.71-.85-.74-.83-.87-1.08-1.04-1.08-1.21-.82-.74-.91-.71-1-.75-1.01-.75-1-.72-.96-.69-.94-.65-.93-.61-.93-.6-.97-.58-1-.58-1-.57-.98-.55-.95-.52-.92-.5-.91-.49-.93-.47-.98-.47-1.1-.46-1.26-.5-1.04-.42" filter="url(#a)"/><path d="m40.94-63.95-.58-1.57-1.02-.87-.74-.9-.48-1.4-.29-2.03-.2-2.38-.24-2.33-.38-1.99-.54-1.63-.65-1.46-.69-1.5-.68-1.7-.71-1.88-.78-1.93-.93-1.81-1.04-1.65-1.03-1.69-.84-1.94-.6-2.13-.59-1.96-.77-1.63 32.59 39.45-1.1.05-1.18-.39-1.24-.33L55-61.8l-1.15-.26-1.1-.32-1.12-.35-1.22-.34-1.33-.3-1.41-.26-1.41-.29-1.35-.38-1.23-.55-1.09-.7-.98-.79-.93-.77-.96-.64-1.01-.51-1.08-.44-1.14-.46-1.21-.38-1.24-.03-1.06.33h-.71L9.65-93.3l.86 1.72 1.02 1.73.88 1.33.97.89 1.2.63 1.4.64 1.45.85 1.31 1.16 1.09 1.38.86 1.38.74 1.16.74.75.84.35.96.14 1.01.26.98.72.9 1.33.79 1.84.75 1.96.88 1.65 1.71 1.41" filter="url(#a)"/><path d="m25.64-72.29 1.01 3.06 1.24.13 1.06.08.81.54.67.88.62 1.01.63 1.03.7 1 .77.91.84.77.86.62.86.54.82.59.75.74.61 1 .41 1.35.39 1.77 1.13 2.29-14.18-18.31 2.05.52 1.39-.12 1.36-.48 1.35-.48 1.23-.16 1.11.17 1.16.24 1.38-.03 1.67-.45 1.83-.75 1.8-.73 1.61-.41 1.4.04 1.3.37 1.38.42 1.57.25 1.76.07 1.82-.03 1.82-.17 1.97-.4 2.57-.1" filter="url(#a)"/><path d="m18.38-74.87-2.03-.31-1.86-.33-1.45-.29-1.13-.21-.98-.14-.97-.09-1.02-.06-1.08-.03-1.1-.03-1.08-.02-1.03-.03-1-.04-1-.02-1.02.03-1.08.1-1.13.16-1.15.21-1.11.22-1.05.2-.98.17-.92.14-.89.12-.96.16-1.33.24 20.03-1.93.01.09.59.22 1.05.3 1.37.36 1.45.39 1.36.39 1.16.38.96.34.83.31.78.28.8.29.85.33.94.37 1.02.44 1.07.5 1.11.53 1.09.53 1.03.53.94.52.92.56 1.01.69.96.8m-50.92-10.4 1.45-.07 1.5-.18 1.24-.14 1.14-.08 1.14-.04 1.15-.01 1.16.01 1.15.04 1.11.04 1.07.04 1.04.03 1.05.02 1.08.02 1.12.04 1.17.09 1.18.13 1.14.16 1.03.18.95.17.92.18.97.17 1.09.16 1.65.18" filter="url(#a)"/><path d="m7.94-76.76.91-.1 1.06-.07.91.01.94.07 1.12.13 1.33.17 1.41.21 1.38.22 1.23.19 1.07.13.96.01.91-.11.93-.16.99-.12 1.06.02 1.15.18 1.24.29 1.34.28 1.4.21 1.47.23 2.06.84" filter="url(#a)"/></g><g fill="none" stroke="#000"><circle cx="10.064" cy="23.432" r="2.06" filter="url(#a)"/><circle cx="9.856" cy="23.904" r="1.456" filter="url(#a)"/><circle cx="7.956" cy="22.092" r="2.424" filter="url(#a)"/><circle cx="8.168" cy="22.424" r="1.338" filter="url(#a)"/><circle cx="7.884" cy="21.108" r="2.226" filter="url(#a)"/><circle cx="10.772" cy="23.344" r="2.054" filter="url(#a)"/><circle cx="10.496" cy="23.864" r="2.836" filter="url(#a)"/><circle cx="8.34" cy="22.808" r="1.738" filter="url(#a)"/><circle cx="9.336" cy="22.8" r="2.15" filter="url(#a)"/><circle cx="10.076" cy="21.26" r="1.922" filter="url(#a)"/><circle cx="-10.81" cy="27.678" r="1.516" filter="url(#a)"/><circle cx="-10.378" cy="29.162" r="1.316" filter="url(#a)"/><circle cx="-10.294" cy="27.338" r="1.24" filter="url(#a)"/><circle cx="-7.706" cy="29.678" r="2.478" filter="url(#a)"/><circle cx="-9.83" cy="29.174" r="1.982" filter="url(#a)"/><circle cx="-11.086" cy="29.154" r="2.142" filter="url(#a)"/><circle cx="-7.65" cy="26.662" r="2.32" filter="url(#a)"/><circle cx="-10.682" cy="28.994" r="2.254" filter="url(#a)"/><circle cx="-8.25" cy="27.162" r="1.528" filter="url(#a)"/><circle cx="-10.01" cy="26.338" r="2.958" filter="url(#a)"/></g><path fill="#CC666E" stroke="#000" stroke-linejoin="round" stroke-width="3" d="M36.28 36.94 36 37.99l.2-.81-.27 1.35.09-.5.03.32-.43 1.06.28-.41-.11.22-1.01 1.38-.02.11.32-.5-.38.53-.99.85.2-.1-.76.63-.35.22-.36.31-.08.02-.72.58.06-.16-2.05 1.24 1.02-.55-1.08.5-1.41.72.04-.07-1.66.77-.21.03.96-.34-.98.36-1.36.5-.76.25-1.35.45-.14.02-2.23.62-.14.02.96-.21-.81.21-1.23.27-1.24.3-.48.07-.89.18-2.44.44-.73.13.06-.03-.5.09-1.82.23-.09.01-.97.11-1.76.17-1.11.09-1.58.11-.57.02-.25.01-.59.03-2.04.04.96-.01H.55l-.79.01-1.05-.04 1.55.05-.99-.04-3.71-.19 1.62.1-.54-.03-1.68-.13-1.5-.18h-.07l-.48-.02-2.41-.38-.38-.04-1.44-.28-.17-.06-1.04-.27-.8-.17.01-.08-.1.07-.75-.25.55.1-1.1-.31-1.81-.69.53.28-1.35-.67-.03.08-.38-.25-.89-.48-.62-.43-.66-.34.69.5-.97-.79-.44-.37-.18-.4.11.18-.48-.47-.23-.3.15.17-.68-1.17.25.58-.09-.62-.22-.61-.11-.01.28-.03-.22-1.12.05-.02.13-.53.12-.12.2-.34.09-.32.23-.43.26-.13.26-.42.37-.53-.21.39.89-.94.41-.5-.17.18.33-.22.06-.11.49-.32 1.14-.79 1.23-.68-1.1.65 1.11-.68.69-.3.05-.09 2.26-.92-1.44.53 2.52-1.04.31-.09-.74.31 2.38-.89-.54.21 1.42-.46-.32.13 1.04-.31 1.46-.43.05-.01.54-.14.97-.26 1.78-.37 2.16-.44-.38.06-.48.09 2.26-.39.81-.11.54-.09 1.35-.18 1.76-.21 1.54-.14-2.02.2 3.11-.29-.52.04 1.41-.09 2.07-.1 1.25-.04.82-.01.63-.01h-.14l3.32.06.28-.01-.98-.02 3.22.15.46.05 1.02.11-.94-.1.29.02 2.06.18 1.89.29-1.44-.21 1.54.22 2.28.45-.92-.17.34.04.51.1 2.86.71-1.13-.27.84.23 1.59.43-.56-.18 1.52.62.24-.01.16.17.31.07 1.18.62-.48-.21 1.79.96.43.46-.18-.26.6.54.31.18-.55-.33.39.28.67.65.18.2.41.88-.09.03.31.7.03.32-.14-.18" filter="url(#a)"/></svg>