<svg viewBox="-100 -100 200 200" xmlns="http://www.w3.org/2000/svg" width="500" height="500" id="face-svg">
    <defs>
      <clipPath id="leftEyeClipPath">
        <polyline points="29.63,-2.57 29.19,-2.72 28.71,-2.87 28.22,-3.03 27.7,-3.18 27.16,-3.34 26.6,-3.5 26.03,-3.65 25.43,-3.81 24.82,-3.96 24.2,-4.11 23.56,-4.26 22.91,-4.4 22.25,-4.54 21.58,-4.67 20.9,-4.8 20.08,-5.01 19.25,-5.21 18.42,-5.39 17.58,-5.57 16.74,-5.73 15.89,-5.88 15.04,-6.01 14.19,-6.13 13.33,-6.24 12.48,-6.33 11.63,-6.41 10.77,-6.47 9.92,-6.52 9.07,-6.56 8.22,-6.58 7.38,-6.59 6.54,-6.58 5.71,-6.56 4.88,-6.53 4.05,-6.49 3.23,-6.43 2.42,-6.36 1.62,-6.29 0.82,-6.2 0.03,-6.09 -0.75,-5.98 -1.53,-5.86 -2.29,-5.73 -3.04,-5.6 -3.78,-5.45 -4.51,-5.3 -5.23,-5.14 -5.94,-4.97 -6.64,-4.79 -7.32,-4.61 -7.99,-4.43 -8.64,-4.23 -9.28,-4.04 -9.91,-3.84 -10.52,-3.63 -11.11,-3.42 -11.69,-3.21 -12.25,-3 -12.79,-2.78 -13.32,-2.56 -13.83,-2.33 -14.32,-2.11 -14.79,-1.88 -15.25,-1.65 -15.68,-1.42 -16.1,-1.18 -16.51,-0.95 -16.89,-0.71 -17.26,-0.47 -17.61,-0.22 -17.95,0.02 -18.27,0.27 -18.57,0.52 -18.85,0.78 -19.12,1.03 -19.36,1.29 -19.59,1.55 -19.8,1.82 -20,2.08 -21.68,4.35 -21.38,4.54 -21.06,4.74 -20.73,4.93 -20.38,5.12 -20.02,5.3 -19.64,5.48 -19.25,5.66 -18.85,5.83 -18.43,5.99 -18,6.15 -17.55,6.3 -17.1,6.44 -16.63,6.58 -16.15,6.7 -15.65,6.82 -15.14,6.94 -14.61,7.05 -14.07,7.14 -13.52,7.23 -12.95,7.31 -12.37,7.38 -11.77,7.43 -11.17,7.47 -10.55,7.5 -9.91,7.51 -9.27,7.51 -8.62,7.49 -7.95,7.46 -7.28,7.41 -6.59,7.35 -5.9,7.27 -5.19,7.17 -4.48,7.06 -3.76,6.93 -3.03,6.79 -2.29,6.64 -1.54,6.47 -0.79,6.29 -0.03,6.09 0.74,5.89 1.51,5.68 2.29,5.45 3.08,5.22 3.87,4.99 4.67,4.74 5.48,4.5 6.28,4.25 7.1,4 7.92,3.75 8.74,3.51 9.57,3.26 10.4,3.03 11.23,2.8 12.07,2.57 12.91,2.36 13.75,2.16 14.6,1.97 15.44,1.79 16.29,1.63 17.13,1.49 17.98,1.36 18.82,1.25 19.66,1.16 20.49,1.09 21.17,0.95 21.84,0.82 22.5,0.7 23.16,0.58 23.8,0.47 24.44,0.37 25.05,0.28 25.66,0.19 26.25,0.11 26.82,0.03 27.38,-0.04 27.91,-0.1 28.42,-0.16 28.91,-0.21 29.38,-0.26" />
      </clipPath>
      <clipPath id="rightEyeClipPath">
        <polyline points="-31.5,-4.22 -30.89,-4.36 -30.26,-4.5 -29.59,-4.64 -28.91,-4.79 -28.2,-4.93 -27.47,-5.07 -26.72,-5.22 -25.96,-5.36 -25.18,-5.5 -24.39,-5.63 -23.6,-5.77 -22.79,-5.9 -21.98,-6.02 -21.16,-6.15 -20.33,-6.26 -19.29,-6.45 -18.24,-6.63 -17.2,-6.8 -16.17,-6.96 -15.15,-7.11 -14.14,-7.24 -13.14,-7.36 -12.15,-7.47 -11.17,-7.57 -10.21,-7.65 -9.27,-7.72 -8.34,-7.78 -7.42,-7.82 -6.53,-7.85 -5.65,-7.86 -4.79,-7.87 -3.95,-7.86 -3.13,-7.83 -2.32,-7.8 -1.54,-7.75 -0.77,-7.69 -0.02,-7.62 0.71,-7.54 1.42,-7.44 2.11,-7.33 2.78,-7.22 3.43,-7.09 4.07,-6.95 4.68,-6.8 5.28,-6.64 5.85,-6.48 6.41,-6.3 6.95,-6.11 7.46,-5.92 7.96,-5.71 8.44,-5.5 8.9,-5.28 9.34,-5.05 9.77,-4.82 10.17,-4.57 10.55,-4.32 10.92,-4.07 11.26,-3.8 11.58,-3.53 11.89,-3.25 12.18,-2.97 12.44,-2.68 12.69,-2.39 12.92,-2.09 13.12,-1.78 13.31,-1.47 13.48,-1.15 13.63,-0.82 13.77,-0.48 13.88,-0.14 13.97,0.21 14.05,0.56 14.11,0.92 14.15,1.29 14.17,1.67 14.16,2.05 14.14,2.45 14.1,2.84 14.05,3.25 16.88,4.33 16.54,4.59 16.18,4.86 15.82,5.13 15.44,5.39 15.06,5.64 14.66,5.89 14.26,6.14 13.85,6.38 13.43,6.61 13,6.84 12.57,7.05 12.13,7.26 11.68,7.46 11.23,7.64 10.77,7.82 10.3,7.99 9.82,8.16 9.34,8.31 8.84,8.45 8.34,8.57 7.83,8.68 7.32,8.78 6.8,8.85 6.28,8.91 5.75,8.95 5.22,8.97 4.68,8.97 4.14,8.95 3.6,8.91 3.05,8.85 2.5,8.76 1.94,8.65 1.38,8.52 0.81,8.37 0.24,8.2 -0.34,8.01 -0.92,7.81 -1.51,7.58 -2.11,7.33 -2.72,7.07 -3.33,6.8 -3.96,6.51 -4.59,6.21 -5.24,5.9 -5.9,5.58 -6.57,5.25 -7.26,4.92 -7.96,4.58 -8.67,4.25 -9.41,3.91 -10.16,3.58 -10.92,3.25 -11.71,2.92 -12.51,2.61 -13.33,2.31 -14.17,2.02 -15.04,1.74 -15.91,1.48 -16.81,1.24 -17.73,1.02 -18.66,0.82 -19.61,0.64 -20.58,0.49 -21.55,0.35 -22.28,0.15 -23.01,-0.04 -23.74,-0.23 -24.46,-0.4 -25.18,-0.57 -25.9,-0.72 -26.61,-0.87 -27.31,-1 -27.99,-1.13 -28.67,-1.25 -29.33,-1.36 -29.97,-1.46 -30.6,-1.55 -31.2,-1.63 -31.77,-1.71" />
      </clipPath>
      <filter id="fuzzy">
        <feTurbulence id="turbulence" baseFrequency="0.05" numOctaves="3" type="noise" result="noise" />
        <feDisplacementMap in="SourceGraphic" in2="noise" scale="2" />
      </filter>
      <linearGradient id="rainbowGradient" x1="0%" y1="0%" x2="100%" y2="0%">
        <stop offset="0%" style="stop-color: [object Object]; stop-opacity: 1" />
        <stop offset="50%" style="stop-color: [object Object]; stop-opacity: 1" />
        <stop offset="100%" style="stop-color: [object Object]; stop-opacity: 1" />
      </linearGradient>
    </defs>
    <rect x="-100" y="-100" width="100%" height="100%" fill="rgb(54, 69, 79)" />
    <polyline id="faceContour" points="73.29,0.71 73.29,1.81 73.01,3.2 72.97,3.42 72.82,5.17 73,6.56 73.07,5.5 72.76,8.28 72.61,10.85 72.37,11.25 72.44,11.43 72.05,13.38 71.76,14.54 71.45,15.79 71.62,15.81 70.97,18.97 70.64,19.04 70.26,21.02 69.9,22.5 69.77,22.64 69.81,22.55 68.96,25.17 68.33,27.56 68.08,28.03 67.38,29.56 67.99,28.06 66.81,30.37 66.9,30.8 65.84,33.29 65.9,32.68 65.56,33.71 64.38,36.17 64.96,35.05 63.85,37.04 63.15,38.38 62.22,39.62 61.94,40.86 61.1,41.85 60.62,42.7 59.24,44.67 58.96,44.88 58.61,45.45 56.81,48.17 56.96,47.61 56.3,48.45 56.49,48.24 55.7,49.24 54.27,51.02 53.2,51.95 52.46,52.83 51.23,54.28 51.57,54.14 49.71,55.71 49.47,55.85 47.59,57.6 47.04,57.97 45.58,59.31 45.89,59.15 45.68,59.38 44.1,60.43 43.73,61.13 41.53,62.65 41.85,62.43 41.21,62.82 39.09,64.01 38.72,64.26 37.62,65.01 37.83,65 35.54,66.21 32.99,67.87 32.79,67.98 32.58,68.15 31.94,68.17 28.36,70.04 29.88,69.15 28.08,70.03 26.01,70.84 24.63,71.51 24.16,71.68 22.89,72.05 21.84,72.37 22.07,72.4 20.93,72.74 20.48,72.83 19.41,72.98 16.74,73.95 16.84,73.67 15.12,74.39 13.94,74.45 12.5,74.58 11.75,74.81 10.32,75.05 9.64,75.29 6.37,75.58 7.71,75.39 5.67,75.56 4.82,75.56 2.87,75.71 2.53,75.94 2.55,75.89 0.25,76.02 -2.05,76.09 -1.09,75.8 -4.2,75.61 -5.22,75.73 -6.14,75.78 -8.24,75.25 -8.57,75.38 -8.65,75.46 -10.45,75.05 -12.48,74.63 -11.52,74.92 -13.87,74.42 -13.68,74.58 -14.11,74.33 -15.81,74.18 -17.5,73.85 -19.25,73.33 -21.6,72.77 -21.16,72.55 -23.41,71.87 -23.67,71.98 -24.51,71.51 -25.57,71.34 -26.13,71 -28.87,69.68 -30.21,69.36 -29.57,69.36 -29.9,69.15 -33.98,67.5 -33.32,67.67 -34.27,67.06 -34.73,66.81 -36.17,65.91 -37.49,65.25 -38.3,64.65 -40.13,63.3 -40.04,63.27 -41.77,62.32 -43,61.49 -42.87,61.8 -43.79,60.71 -45.1,59.85 -45.4,59.53 -46.3,58.7 -46.57,58.52 -47.74,57.57 -50.18,55.01 -50.93,54.62 -50.61,54.81 -52.86,52.71 -53.27,52.18 -52.7,52.47 -54.26,51.09 -54.49,50.84 -55.55,49.49 -55.76,49.35 -57.09,47.41 -58.23,46.27 -58.48,45.57 -59.09,44.75 -59.39,44.52 -60.52,42.95 -61.47,40.92 -60.87,42.17 -62.69,39.57 -63.05,38.69 -63.92,37.11 -63.69,37.09 -65.19,34.65 -65.36,34.53 -65.54,33.67 -66.51,31.52 -66.83,30.77 -67.88,28.34 -68.29,27.25 -68.12,28.06 -68.72,26.29 -69.18,24.65 -69.56,23.17 -69.78,23.09 -70.17,22.05 -70.59,20.04 -70.37,20.65 -70.9,19.12 -71.21,17.91 -71.4,16.42 -71.58,15.25 -71.68,15.07 -72.08,13.57 -72.46,11.64 -72.66,10.05 -72.62,8.47 -72.74,7.29 -72.97,6.36 -72.9,5.44 -73.13,3.98 -73.17,3.36 -73.17,2.09 -73.06,1.44 -73.15,-0.61 -73.3,-2.92 -73.27,-1.77 -73.27,-3.41 -72.98,-5.93 -73.17,-3.82 -73.06,-6.51 -72.66,-9.54 -72.47,-9.72 -72.5,-11.87 -72.23,-12.38 -72.03,-14.67 -72.02,-13.16 -71.96,-14.48 -71.03,-17.93 -71.4,-16.17 -71.19,-17.3 -71.06,-18.92 -70.71,-19.82 -69.71,-22.6 -69.19,-24.43 -69.39,-24.63 -69.06,-25.74 -68.5,-26.6 -67.8,-28.34 -67.33,-29.56 -66.7,-31.61 -67.32,-29.73 -66.49,-31.68 -66.24,-32.43 -65.95,-33 -65.12,-34.64 -64.02,-37.03 -64.44,-36.1 -63.26,-38.26 -62.55,-39.79 -61.48,-41.27 -61.35,-41.65 -60.49,-42.54 -60.34,-42.81 -59.85,-43.77 -58.7,-45.64 -58.19,-46.04 -57.44,-46.93 -56.49,-48.52 -55.14,-49.67 -54.43,-50.68 -54,-51.32 -53.32,-51.98 -52.59,-52.84 -52.19,-53.14 -51.89,-53.63 -49.68,-55.65 -50.45,-54.93 -49.24,-56.14 -46.86,-58.57 -45.7,-59.34 -45.31,-59.81 -45.24,-59.89 -42.75,-61.57 -42.31,-61.76 -42.55,-61.97 -40.79,-62.88 -40.73,-62.88 -39.24,-64.09 -38.47,-64.3 -37.46,-65.24 -36.58,-65.58 -34.78,-66.59 -34.1,-67.05 -32.61,-67.91 -31.31,-68.56 -31.15,-68.64 -30.49,-69 -27.65,-70.3 -26.71,-70.55 -25.61,-71.06 -25.03,-71.3 -26.51,-70.84 -24.32,-71.44 -21.95,-72.28 -20.03,-72.98 -19.01,-73.27 -19.21,-73.07 -18.06,-73.33 -17.88,-73.43 -15.08,-73.99 -14.16,-74.34 -13.39,-74.57 -13.49,-74.36 -11,-75 -9.08,-75.27 -8.8,-75.33 -6.94,-75.35 -6.06,-75.5 -5.79,-75.63 -4.15,-75.58 -2.86,-75.92 -2.73,-75.98 -0.75,-75.96 0.23,-75.94 2.82,-75.82 3.03,-75.96 3.63,-75.83 3.04,-75.64 5.64,-75.73 7.85,-75.41 7.99,-75.48 9.38,-75.33 10.6,-74.97 12.27,-74.92 13.96,-74.58 14.18,-74.44 15.2,-74 16.09,-73.93 17.2,-73.71 18.32,-73.21 17.59,-73.83 21.29,-72.63 20.3,-72.7 22.91,-72.2 24.34,-71.36 25.69,-71.1 25.65,-71.02 26.66,-70.73 27.53,-70.02 28.35,-69.83 29.91,-69.16 30.71,-68.6 32.62,-67.61 33.08,-67.42 34.72,-66.57 35.48,-66.34 35.54,-66.09 37.41,-65.21 37.7,-64.75 39.25,-64.15 40.56,-63.21 41.32,-62.64 41.97,-62.11 42.33,-61.86 43.07,-61.1 45.31,-59.47 45.35,-59.41 47.46,-57.83 47.59,-57.76 47.44,-57.72 50.16,-55.08 49.87,-55.24 51.31,-53.97 50.57,-54.82 51.57,-53.83 53.95,-51.5 54.42,-50.91 54.94,-49.97 55.72,-49.1 55.26,-49.63 57.53,-46.97 57.78,-46.49 58.16,-45.91 58.95,-44.99 59.29,-44.39 60.15,-43 61.08,-41.58 61.22,-41.44 62.83,-38.98 62.98,-38.17 63.94,-36.92 64.37,-35.71 65.23,-34.28 64.68,-35.53 65.81,-33.13 65.64,-33.1 66.42,-31.64 67.34,-29.56 68.13,-28.04 67.99,-27.63 68.58,-26.64 68.9,-25.26 69.27,-23.94 69.07,-24.4 69.53,-23.04 69.97,-21.86 70.7,-19.82 70.72,-19.69 70.96,-18.17 71.51,-16.39 71.69,-15.41 71.91,-12.92 71.72,-14.51 71.92,-13.2 72.15,-11.55 72.48,-11.08 72.63,-8.39 72.75,-6.44 73.02,-6.52 72.89,-4.08 73.1,-3.21 72.94,-2.36 73.11,-2.16 73.29,0.71 73.29,1.81" fill="rgb(255, 0, 255)" stroke="black" stroke-width="1.6666666666666665" stroke-linejoin="round" filter="url(#fuzzy)" />
    <g transform="translate(42.32 -16.86)">
      <polyline id="rightCountour" points="-31.5,-4.22 -30.89,-4.36 -30.26,-4.5 -29.59,-4.64 -28.91,-4.79 -28.2,-4.93 -27.47,-5.07 -26.72,-5.22 -25.96,-5.36 -25.18,-5.5 -24.39,-5.63 -23.6,-5.77 -22.79,-5.9 -21.98,-6.02 -21.16,-6.15 -20.33,-6.26 -19.29,-6.45 -18.24,-6.63 -17.2,-6.8 -16.17,-6.96 -15.15,-7.11 -14.14,-7.24 -13.14,-7.36 -12.15,-7.47 -11.17,-7.57 -10.21,-7.65 -9.27,-7.72 -8.34,-7.78 -7.42,-7.82 -6.53,-7.85 -5.65,-7.86 -4.79,-7.87 -3.95,-7.86 -3.13,-7.83 -2.32,-7.8 -1.54,-7.75 -0.77,-7.69 -0.02,-7.62 0.71,-7.54 1.42,-7.44 2.11,-7.33 2.78,-7.22 3.43,-7.09 4.07,-6.95 4.68,-6.8 5.28,-6.64 5.85,-6.48 6.41,-6.3 6.95,-6.11 7.46,-5.92 7.96,-5.71 8.44,-5.5 8.9,-5.28 9.34,-5.05 9.77,-4.82 10.17,-4.57 10.55,-4.32 10.92,-4.07 11.26,-3.8 11.58,-3.53 11.89,-3.25 12.18,-2.97 12.44,-2.68 12.69,-2.39 12.92,-2.09 13.12,-1.78 13.31,-1.47 13.48,-1.15 13.63,-0.82 13.77,-0.48 13.88,-0.14 13.97,0.21 14.05,0.56 14.11,0.92 14.15,1.29 14.17,1.67 14.16,2.05 14.14,2.45 14.1,2.84 14.05,3.25 16.88,4.33 16.54,4.59 16.18,4.86 15.82,5.13 15.44,5.39 15.06,5.64 14.66,5.89 14.26,6.14 13.85,6.38 13.43,6.61 13,6.84 12.57,7.05 12.13,7.26 11.68,7.46 11.23,7.64 10.77,7.82 10.3,7.99 9.82,8.16 9.34,8.31 8.84,8.45 8.34,8.57 7.83,8.68 7.32,8.78 6.8,8.85 6.28,8.91 5.75,8.95 5.22,8.97 4.68,8.97 4.14,8.95 3.6,8.91 3.05,8.85 2.5,8.76 1.94,8.65 1.38,8.52 0.81,8.37 0.24,8.2 -0.34,8.01 -0.92,7.81 -1.51,7.58 -2.11,7.33 -2.72,7.07 -3.33,6.8 -3.96,6.51 -4.59,6.21 -5.24,5.9 -5.9,5.58 -6.57,5.25 -7.26,4.92 -7.96,4.58 -8.67,4.25 -9.41,3.91 -10.16,3.58 -10.92,3.25 -11.71,2.92 -12.51,2.61 -13.33,2.31 -14.17,2.02 -15.04,1.74 -15.91,1.48 -16.81,1.24 -17.73,1.02 -18.66,0.82 -19.61,0.64 -20.58,0.49 -21.55,0.35 -22.28,0.15 -23.01,-0.04 -23.74,-0.23 -24.46,-0.4 -25.18,-0.57 -25.9,-0.72 -26.61,-0.87 -27.31,-1 -27.99,-1.13 -28.67,-1.25 -29.33,-1.36 -29.97,-1.46 -30.6,-1.55 -31.2,-1.63 -31.77,-1.71" fill="white" stroke="white" stroke-width="0" stroke-linejoin="round" filter="url(#fuzzy)" />
    </g>
    <g transform="translate(-27.980000000000004 -20.59)">
      <polyline id="leftCountour" points="29.63,-2.57 29.19,-2.72 28.71,-2.87 28.22,-3.03 27.7,-3.18 27.16,-3.34 26.6,-3.5 26.03,-3.65 25.43,-3.81 24.82,-3.96 24.2,-4.11 23.56,-4.26 22.91,-4.4 22.25,-4.54 21.58,-4.67 20.9,-4.8 20.08,-5.01 19.25,-5.21 18.42,-5.39 17.58,-5.57 16.74,-5.73 15.89,-5.88 15.04,-6.01 14.19,-6.13 13.33,-6.24 12.48,-6.33 11.63,-6.41 10.77,-6.47 9.92,-6.52 9.07,-6.56 8.22,-6.58 7.38,-6.59 6.54,-6.58 5.71,-6.56 4.88,-6.53 4.05,-6.49 3.23,-6.43 2.42,-6.36 1.62,-6.29 0.82,-6.2 0.03,-6.09 -0.75,-5.98 -1.53,-5.86 -2.29,-5.73 -3.04,-5.6 -3.78,-5.45 -4.51,-5.3 -5.23,-5.14 -5.94,-4.97 -6.64,-4.79 -7.32,-4.61 -7.99,-4.43 -8.64,-4.23 -9.28,-4.04 -9.91,-3.84 -10.52,-3.63 -11.11,-3.42 -11.69,-3.21 -12.25,-3 -12.79,-2.78 -13.32,-2.56 -13.83,-2.33 -14.32,-2.11 -14.79,-1.88 -15.25,-1.65 -15.68,-1.42 -16.1,-1.18 -16.51,-0.95 -16.89,-0.71 -17.26,-0.47 -17.61,-0.22 -17.95,0.02 -18.27,0.27 -18.57,0.52 -18.85,0.78 -19.12,1.03 -19.36,1.29 -19.59,1.55 -19.8,1.82 -20,2.08 -21.68,4.35 -21.38,4.54 -21.06,4.74 -20.73,4.93 -20.38,5.12 -20.02,5.3 -19.64,5.48 -19.25,5.66 -18.85,5.83 -18.43,5.99 -18,6.15 -17.55,6.3 -17.1,6.44 -16.63,6.58 -16.15,6.7 -15.65,6.82 -15.14,6.94 -14.61,7.05 -14.07,7.14 -13.52,7.23 -12.95,7.31 -12.37,7.38 -11.77,7.43 -11.17,7.47 -10.55,7.5 -9.91,7.51 -9.27,7.51 -8.62,7.49 -7.95,7.46 -7.28,7.41 -6.59,7.35 -5.9,7.27 -5.19,7.17 -4.48,7.06 -3.76,6.93 -3.03,6.79 -2.29,6.64 -1.54,6.47 -0.79,6.29 -0.03,6.09 0.74,5.89 1.51,5.68 2.29,5.45 3.08,5.22 3.87,4.99 4.67,4.74 5.48,4.5 6.28,4.25 7.1,4 7.92,3.75 8.74,3.51 9.57,3.26 10.4,3.03 11.23,2.8 12.07,2.57 12.91,2.36 13.75,2.16 14.6,1.97 15.44,1.79 16.29,1.63 17.13,1.49 17.98,1.36 18.82,1.25 19.66,1.16 20.49,1.09 21.17,0.95 21.84,0.82 22.5,0.7 23.16,0.58 23.8,0.47 24.44,0.37 25.05,0.28 25.66,0.19 26.25,0.11 26.82,0.03 27.38,-0.04 27.91,-0.1 28.42,-0.16 28.91,-0.21 29.38,-0.26" fill="white" stroke="white" stroke-width="0" stroke-linejoin="round" filter="url(#fuzzy)" />
    </g>
    <g transform="translate(42.32 -16.86)">
      <polyline id="rightUpper" points="-35.25,-3.22 -35.11,-3.27 -34.92,-3.34 -34.66,-3.42 -34.35,-3.51 -33.98,-3.61 -33.57,-3.72 -33.11,-3.84 -32.61,-3.96 -32.07,-4.09 -31.5,-4.22 -30.89,-4.36 -30.26,-4.5 -29.59,-4.64 -28.91,-4.79 -28.2,-4.93 -27.47,-5.07 -26.72,-5.22 -25.96,-5.36 -25.18,-5.5 -24.39,-5.63 -23.6,-5.77 -22.79,-5.9 -21.98,-6.02 -21.16,-6.15 -20.33,-6.26 -19.29,-6.45 -18.24,-6.63 -17.2,-6.8 -16.17,-6.96 -15.15,-7.11 -14.14,-7.24 -13.14,-7.36 -12.15,-7.47 -11.17,-7.57 -10.21,-7.65 -9.27,-7.72 -8.34,-7.78 -7.42,-7.82 -6.53,-7.85 -5.65,-7.86 -4.79,-7.87 -3.95,-7.86 -3.13,-7.83 -2.32,-7.8 -1.54,-7.75 -0.77,-7.69 -0.02,-7.62 0.71,-7.54 1.42,-7.44 2.11,-7.33 2.78,-7.22 3.43,-7.09 4.07,-6.95 4.68,-6.8 5.28,-6.64 5.85,-6.48 6.41,-6.3 6.95,-6.11 7.46,-5.92 7.96,-5.71 8.44,-5.5 8.9,-5.28 9.34,-5.05 9.77,-4.82 10.17,-4.57 10.55,-4.32 10.92,-4.07 11.26,-3.8 11.58,-3.53 11.89,-3.25 12.18,-2.97 12.44,-2.68 12.69,-2.39 12.92,-2.09 13.12,-1.78 13.31,-1.47 13.48,-1.15 13.63,-0.82 13.77,-0.48 13.88,-0.14 13.97,0.21 14.05,0.56 14.11,0.92 14.15,1.29 14.17,1.67 14.16,2.05 14.14,2.45 14.1,2.84 14.05,3.25 13.97,3.66 13.87,4.08 13.75,4.5 13.62,4.94 13.46,5.37 13.29,5.82 13.1,6.27 12.89,6.73 12.67,7.19 12.42,7.66" fill="none" stroke="black" stroke-width="1.6666666666666665" stroke-linejoin="round" filter="url(#fuzzy)" />
      <polyline id="rightLower" points="-35.37,-2.31 -35.24,-2.24 -35.05,-2.18 -34.81,-2.13 -34.5,-2.07 -34.15,-2.02 -33.75,-1.96 -33.31,-1.91 -32.83,-1.85 -32.32,-1.78 -31.77,-1.71 -31.2,-1.63 -30.6,-1.55 -29.97,-1.46 -29.33,-1.36 -28.67,-1.25 -27.99,-1.13 -27.31,-1 -26.61,-0.87 -25.9,-0.72 -25.18,-0.57 -24.46,-0.4 -23.74,-0.23 -23.01,-0.04 -22.28,0.15 -21.55,0.35 -20.58,0.49 -19.61,0.64 -18.66,0.82 -17.73,1.02 -16.81,1.24 -15.91,1.48 -15.04,1.74 -14.17,2.02 -13.33,2.31 -12.51,2.61 -11.71,2.92 -10.92,3.25 -10.16,3.58 -9.41,3.91 -8.67,4.25 -7.96,4.58 -7.26,4.92 -6.57,5.25 -5.9,5.58 -5.24,5.9 -4.59,6.21 -3.96,6.51 -3.33,6.8 -2.72,7.07 -2.11,7.33 -1.51,7.58 -0.92,7.81 -0.34,8.01 0.24,8.2 0.81,8.37 1.38,8.52 1.94,8.65 2.5,8.76 3.05,8.85 3.6,8.91 4.14,8.95 4.68,8.97 5.22,8.97 5.75,8.95 6.28,8.91 6.8,8.85 7.32,8.78 7.83,8.68 8.34,8.57 8.84,8.45 9.34,8.31 9.82,8.16 10.3,7.99 10.77,7.82 11.23,7.64 11.68,7.46 12.13,7.26 12.57,7.05 13,6.84 13.43,6.61 13.85,6.38 14.26,6.14 14.66,5.89 15.06,5.64 15.44,5.39 15.82,5.13 16.18,4.86 16.54,4.59 16.88,4.33 17.21,4.05 17.54,3.78 17.85,3.51 18.15,3.24 18.44,2.96 18.72,2.69 18.99,2.42 19.24,2.15 19.49,1.88 19.72,1.61" fill="none" stroke="black" stroke-width="2.2222222222222223" stroke-linejoin="round" filter="url(#fuzzy)" />
      <circle r="3.358" cx="-6.171466225932871" cy="-0.3631245761443398" stroke="black" fill="none" stroke-width="1.0" filter="url(#fuzzy)" clip-path="url(#rightEyeClipPath)" /><circle r="4.508" cx="-4.151466225932872" cy="-0.8181245761443399" stroke="black" fill="none" stroke-width="1.0" filter="url(#fuzzy)" clip-path="url(#rightEyeClipPath)" /><circle r="4.942" cx="-3.9764662259328714" cy="-2.86812457614434" stroke="black" fill="none" stroke-width="1.0" filter="url(#fuzzy)" clip-path="url(#rightEyeClipPath)" /><circle r="3.056" cx="-6.001466225932871" cy="-2.9281245761443397" stroke="black" fill="none" stroke-width="1.0" filter="url(#fuzzy)" clip-path="url(#rightEyeClipPath)" /><circle r="4.088" cx="-7.3664662259328715" cy="-5.20812457614434" stroke="black" fill="none" stroke-width="1.0" filter="url(#fuzzy)" clip-path="url(#rightEyeClipPath)" /><circle r="3.064" cx="-4.221466225932872" cy="-3.2431245761443397" stroke="black" fill="none" stroke-width="1.0" filter="url(#fuzzy)" clip-path="url(#rightEyeClipPath)" /><circle r="3.936" cx="-5.216466225932871" cy="-1.8381245761443399" stroke="black" fill="none" stroke-width="1.0" filter="url(#fuzzy)" clip-path="url(#rightEyeClipPath)" /><circle r="4.224" cx="-3.1564662259328715" cy="-0.31812457614433987" stroke="black" fill="none" stroke-width="1.0" filter="url(#fuzzy)" clip-path="url(#rightEyeClipPath)" /><circle r="3.074" cx="-5.0714662259328716" cy="-2.70812457614434" stroke="black" fill="none" stroke-width="1.0" filter="url(#fuzzy)" clip-path="url(#rightEyeClipPath)" /><circle r="3.826" cx="-3.261466225932871" cy="-3.6381245761443397" stroke="black" fill="none" stroke-width="1.0" filter="url(#fuzzy)" clip-path="url(#rightEyeClipPath)" />
      </g>
    <g transform="translate(-27.980000000000004 -20.59)">
      <polyline id="leftUpper" points="32.25,-1.5 32.17,-1.55 32.04,-1.62 31.87,-1.71 31.66,-1.8 31.41,-1.91 31.12,-2.03 30.79,-2.15 30.44,-2.29 30.05,-2.43 29.63,-2.57 29.19,-2.72 28.71,-2.87 28.22,-3.03 27.7,-3.18 27.16,-3.34 26.6,-3.5 26.03,-3.65 25.43,-3.81 24.82,-3.96 24.2,-4.11 23.56,-4.26 22.91,-4.4 22.25,-4.54 21.58,-4.67 20.9,-4.8 20.08,-5.01 19.25,-5.21 18.42,-5.39 17.58,-5.57 16.74,-5.73 15.89,-5.88 15.04,-6.01 14.19,-6.13 13.33,-6.24 12.48,-6.33 11.63,-6.41 10.77,-6.47 9.92,-6.52 9.07,-6.56 8.22,-6.58 7.38,-6.59 6.54,-6.58 5.71,-6.56 4.88,-6.53 4.05,-6.49 3.23,-6.43 2.42,-6.36 1.62,-6.29 0.82,-6.2 0.03,-6.09 -0.75,-5.98 -1.53,-5.86 -2.29,-5.73 -3.04,-5.6 -3.78,-5.45 -4.51,-5.3 -5.23,-5.14 -5.94,-4.97 -6.64,-4.79 -7.32,-4.61 -7.99,-4.43 -8.64,-4.23 -9.28,-4.04 -9.91,-3.84 -10.52,-3.63 -11.11,-3.42 -11.69,-3.21 -12.25,-3 -12.79,-2.78 -13.32,-2.56 -13.83,-2.33 -14.32,-2.11 -14.79,-1.88 -15.25,-1.65 -15.68,-1.42 -16.1,-1.18 -16.51,-0.95 -16.89,-0.71 -17.26,-0.47 -17.61,-0.22 -17.95,0.02 -18.27,0.27 -18.57,0.52 -18.85,0.78 -19.12,1.03 -19.36,1.29 -19.59,1.55 -19.8,1.82 -20,2.08 -20.17,2.35 -20.33,2.62 -20.47,2.89 -20.59,3.16 -20.69,3.44 -20.78,3.72 -20.85,4 -20.9,4.28 -20.94,4.56 -20.96,4.85" fill="none" stroke="black" stroke-width="2.2222222222222223" stroke-linejoin="round" filter="url(#fuzzy)" />
      <polyline id="leftLower" points="32.18,-0.75 32.09,-0.68 31.94,-0.63 31.75,-0.58 31.52,-0.53 31.25,-0.48 30.94,-0.44 30.6,-0.4 30.22,-0.35 29.81,-0.31 29.38,-0.26 28.91,-0.21 28.42,-0.16 27.91,-0.1 27.38,-0.04 26.82,0.03 26.25,0.11 25.66,0.19 25.05,0.28 24.44,0.37 23.8,0.47 23.16,0.58 22.5,0.7 21.84,0.82 21.17,0.95 20.49,1.09 19.66,1.16 18.82,1.25 17.98,1.36 17.13,1.49 16.29,1.63 15.44,1.79 14.6,1.97 13.75,2.16 12.91,2.36 12.07,2.57 11.23,2.8 10.4,3.03 9.57,3.26 8.74,3.51 7.92,3.75 7.1,4 6.28,4.25 5.48,4.5 4.67,4.74 3.87,4.99 3.08,5.22 2.29,5.45 1.51,5.68 0.74,5.89 -0.03,6.09 -0.79,6.29 -1.54,6.47 -2.29,6.64 -3.03,6.79 -3.76,6.93 -4.48,7.06 -5.19,7.17 -5.9,7.27 -6.59,7.35 -7.28,7.41 -7.95,7.46 -8.62,7.49 -9.27,7.51 -9.91,7.51 -10.55,7.5 -11.17,7.47 -11.77,7.43 -12.37,7.38 -12.95,7.31 -13.52,7.23 -14.07,7.14 -14.61,7.05 -15.14,6.94 -15.65,6.82 -16.15,6.7 -16.63,6.58 -17.1,6.44 -17.55,6.3 -18,6.15 -18.43,5.99 -18.85,5.83 -19.25,5.66 -19.64,5.48 -20.02,5.3 -20.38,5.12 -20.73,4.93 -21.06,4.74 -21.38,4.54 -21.68,4.35 -21.97,4.15 -22.25,3.95 -22.51,3.74 -22.75,3.54 -22.98,3.34 -23.2,3.14 -23.4,2.93 -23.59,2.73 -23.77,2.53 -23.93,2.32" fill="none" stroke="black" stroke-width="2.2222222222222223" stroke-linejoin="round" filter="url(#fuzzy)" />
      <circle r="3.268" cx="25.262284910461666" cy="-3.228342631088246" stroke="black" fill="none" stroke-width="1.0" filter="url(#fuzzy)" clip-path="url(#leftEyeClipPath)" /><circle r="4.5280000000000005" cx="23.182284910461664" cy="0.6066573689117538" stroke="black" fill="none" stroke-width="1.0" filter="url(#fuzzy)" clip-path="url(#leftEyeClipPath)" /><circle r="3.894" cx="21.452284910461664" cy="1.1966573689117537" stroke="black" fill="none" stroke-width="1.0" filter="url(#fuzzy)" clip-path="url(#leftEyeClipPath)" /><circle r="3.966" cx="22.932284910461664" cy="-3.543342631088246" stroke="black" fill="none" stroke-width="1.0" filter="url(#fuzzy)" clip-path="url(#leftEyeClipPath)" /><circle r="4.3759999999999994" cx="22.892284910461665" cy="-1.3283426310882462" stroke="black" fill="none" stroke-width="1.0" filter="url(#fuzzy)" clip-path="url(#leftEyeClipPath)" /><circle r="3.468" cx="21.522284910461664" cy="-0.4383426310882461" stroke="black" fill="none" stroke-width="1.0" filter="url(#fuzzy)" clip-path="url(#leftEyeClipPath)" /><circle r="4.5120000000000005" cx="22.792284910461664" cy="-2.958342631088246" stroke="black" fill="none" stroke-width="1.0" filter="url(#fuzzy)" clip-path="url(#leftEyeClipPath)" /><circle r="4.266" cx="25.367284910461663" cy="-1.2033426310882462" stroke="black" fill="none" stroke-width="1.0" filter="url(#fuzzy)" clip-path="url(#leftEyeClipPath)" /><circle r="4.314" cx="24.537284910461665" cy="0.16165736891175397" stroke="black" fill="none" stroke-width="1.0" filter="url(#fuzzy)" clip-path="url(#leftEyeClipPath)" /><circle r="4.412" cx="22.962284910461662" cy="-1.088342631088246" stroke="black" fill="none" stroke-width="1.0" filter="url(#fuzzy)" clip-path="url(#leftEyeClipPath)" />
    </g>
    <g id="hairs">
      <polyline points="53.95,-51.5 54.3,-50.88 54.43,-50.3 54.33,-49.79 54.01,-49.32 53.43,-48.89 52.53,-48.54 51.25,-48.29 49.6,-48.15 47.58,-48.1 45.19,-48.14 42.42,-48.28 39.24,-48.52 35.61,-48.88 31.49,-49.39 26.85,-50.08 21.68,-50.96 15.98,-52.05 9.72,-53.31 2.91,-54.72 -4.46,-56.24 -12.38,-57.87 -20.83,-59.64 -29.79,-61.65" fill="none" stroke="rgb(220, 208, 186)" stroke-width="2" stroke-linejoin="round" filter="url(#fuzzy)" /><polyline points="15.2,-74 16.16,-73.84 17.21,-73.59 18.33,-73.27 19.58,-72.88 20.97,-72.42 22.44,-71.9 23.92,-71.36 25.32,-70.84 26.59,-70.35 27.72,-69.9 28.7,-69.49 29.56,-69.11 30.31,-68.78 30.92,-68.5 31.35,-68.29 31.54,-68.2 31.46,-68.24 31.08,-68.43 30.39,-68.76 29.43,-69.23 28.25,-69.8 26.93,-70.45" fill="none" stroke="rgb(220, 208, 186)" stroke-width="2" stroke-linejoin="round" filter="url(#fuzzy)" /><polyline points="35.48,-66.34 35.96,-65.96 36.72,-65.48 37.41,-65.05 37.9,-64.7 38.1,-64.48 37.9,-64.43 37.26,-64.57 36.19,-64.91 34.69,-65.43 32.77,-66.16 30.35,-67.13 27.36,-68.4 23.68,-70.03 19.27,-72.03" fill="none" stroke="rgb(220, 208, 186)" stroke-width="2" stroke-linejoin="round" filter="url(#fuzzy)" /><polyline points="12.27,-74.92 13.38,-74.63 13.97,-74.36 14.32,-74.07 14.46,-73.77 14.38,-73.45 14.05,-73.08 13.46,-72.64 12.61,-72.12 11.44,-71.52 9.9,-70.84 7.95,-70.11 5.51,-69.33 2.59,-68.51 -0.83,-67.64 -4.73,-66.73 -9.09,-65.75 -13.93,-64.7 -19.32,-63.57 -25.29,-62.37 -31.83,-61.14 -38.94,-59.91" fill="none" stroke="rgb(220, 208, 186)" stroke-width="2" stroke-linejoin="round" filter="url(#fuzzy)" /><polyline points="50.16,-55.08 50.32,-54.88 50.8,-54.45 51.43,-53.86 52.22,-53.09 53.02,-52.26 53.7,-51.52 54.14,-50.99 54.35,-50.69 54.34,-50.61 54.12,-50.76 53.65,-51.17 52.84,-51.95 51.68,-53.14 50.18,-54.7 48.26,-56.65" fill="none" stroke="rgb(220, 208, 186)" stroke-width="2" stroke-linejoin="round" filter="url(#fuzzy)" /><polyline points="-30.49,-69 -28.27,-69.91 -26.55,-70.44 -25.02,-70.8 -23.45,-71.09 -21.61,-71.39 -19.44,-71.76 -17,-72.16 -14.45,-72.56 -11.9,-72.92 -9.4,-73.24 -6.97,-73.52 -4.57,-73.79 -2.24,-74.07 -0.04,-74.35 1.92,-74.63 3.61,-74.9 5.06,-75.14 6.41,-75.35" fill="none" stroke="rgb(220, 208, 186)" stroke-width="2" stroke-linejoin="round" filter="url(#fuzzy)" /><polyline points="12.27,-74.92 13.54,-74.6 14.62,-74.22 15.79,-73.8 17.08,-73.33 18.49,-72.81 20.01,-72.24 21.62,-71.63 23.32,-70.96 25.06,-70.26 26.8,-69.55 28.45,-68.87 29.98,-68.22 31.35,-67.64 32.57,-67.12 33.66,-66.65 34.63,-66.23 35.47,-65.88 36.11,-65.62 36.5,-65.49 36.58,-65.5 36.37,-65.67 35.9,-65.99" fill="none" stroke="rgb(220, 208, 186)" stroke-width="2" stroke-linejoin="round" filter="url(#fuzzy)" /><polyline points="28.35,-69.83 29.68,-69.19 30.93,-68.53 32.13,-67.9 33.23,-67.34 34.22,-66.83 35.08,-66.38 35.84,-65.96 36.5,-65.58 37.04,-65.25 37.42,-64.99 37.59,-64.82 37.52,-64.78 37.2,-64.85 36.63,-65.06 35.82,-65.38 34.78,-65.83 33.46,-66.44 31.77,-67.25 29.6,-68.29 26.89,-69.6 23.83,-71.09" fill="none" stroke="rgb(220, 208, 186)" stroke-width="2" stroke-linejoin="round" filter="url(#fuzzy)" /><polyline points="32.62,-67.61 33.29,-67.29 33.96,-66.91 34.39,-66.59 34.58,-66.3 34.55,-66.04 34.28,-65.82 33.7,-65.66 32.76,-65.58 31.42,-65.59 29.65,-65.71 27.45,-65.93 24.79,-66.24 21.65,-66.66 17.96,-67.2 13.69,-67.88 8.83,-68.72 3.4,-69.72 -2.62,-70.87 -9.5,-72.12" fill="none" stroke="rgb(220, 208, 186)" stroke-width="2" stroke-linejoin="round" filter="url(#fuzzy)" /><polyline points="14.18,-74.44 15.09,-74.13 15.88,-73.92 16.52,-73.73 17.03,-73.54 17.44,-73.32 17.73,-73.06 17.87,-72.76 17.78,-72.46 17.41,-72.16 16.68,-71.89 15.6,-71.63 14.15,-71.4 12.35,-71.17 10.18,-70.93 7.62,-70.67 4.63,-70.4 1.21,-70.15 -2.62,-69.96 -6.82,-69.85 -11.47,-69.8 -16.74,-69.75 -22.91,-69.56" fill="none" stroke="rgb(220, 208, 186)" stroke-width="2" stroke-linejoin="round" filter="url(#fuzzy)" /><polyline points="-0.75,-75.96 0.56,-75.92 1.92,-75.87 3.01,-75.81 3.95,-75.75 4.88,-75.67 5.81,-75.59 6.64,-75.53 7.24,-75.47 7.5,-75.43 7.42,-75.41 6.99,-75.42 6.14,-75.47 4.64,-75.57 2.29,-75.72" fill="none" stroke="rgb(220, 208, 186)" stroke-width="2" stroke-linejoin="round" filter="url(#fuzzy)" /><polyline points="26.66,-70.73 27.6,-70.11 28.84,-69.4 30.31,-68.52 31.92,-67.5 33.59,-66.41 35.27,-65.29 36.94,-64.15 38.57,-63.01 40.19,-61.86 41.79,-60.71 43.37,-59.56 44.9,-58.43 46.34,-57.36 47.64,-56.38 48.79,-55.51 49.8,-54.76 50.65,-54.13 51.29,-53.72 51.56,-53.66 51.28,-54.07" fill="none" stroke="rgb(220, 208, 186)" stroke-width="2" stroke-linejoin="round" filter="url(#fuzzy)" /><polyline points="17.2,-73.71 17.78,-73.44 18.09,-73.15 18.2,-72.69 17.97,-72.09 17.28,-71.39 16.03,-70.62 14.12,-69.78 11.54,-68.86 8.28,-67.81 4.35,-66.61 -0.26,-65.23 -5.56,-63.66 -11.57,-61.93 -18.31,-60.09 -25.84,-58.17 -34.17,-56.19 -43.3,-54.16" fill="none" stroke="rgb(220, 208, 186)" stroke-width="2" stroke-linejoin="round" filter="url(#fuzzy)" /><polyline points="-8.8,-75.33 -7.34,-75.39 -6.23,-75.48 -5.16,-75.58 -4.06,-75.67 -2.93,-75.76 -1.78,-75.82 -0.67,-75.86 0.37,-75.88 1.25,-75.87 1.92,-75.85 2.39,-75.81 2.66,-75.76 2.75,-75.7 2.65,-75.62 2.34,-75.53 1.77,-75.43 0.88,-75.33 -0.37,-75.21 -2.06,-75.09 -4.28,-74.95 -7.06,-74.77 -10.32,-74.57" fill="none" stroke="rgb(220, 208, 186)" stroke-width="2" stroke-linejoin="round" filter="url(#fuzzy)" /><polyline points="17.2,-73.71 17.89,-73.47 18.51,-73.25 19.17,-72.92 19.7,-72.52 20.01,-72.09 19.99,-71.65 19.58,-71.22 18.78,-70.77 17.59,-70.3 16.06,-69.8 14.18,-69.23 11.94,-68.62 9.29,-67.95 6.21,-67.25 2.66,-66.53 -1.4,-65.8 -5.97,-65.07 -11.04,-64.34 -16.61,-63.61 -22.66,-62.88 -29.22,-62.13 -36.52,-61.27" fill="none" stroke="rgb(220, 208, 186)" stroke-width="2" stroke-linejoin="round" filter="url(#fuzzy)" /><polyline points="41.32,-62.64 41.72,-62.25 41.88,-61.89 41.83,-61.54 41.44,-61.29 40.55,-61.23 39.04,-61.42 36.84,-61.86 33.93,-62.53 30.3,-63.45 25.93,-64.64 20.76,-66.16 14.77,-68 7.98,-70.13 0.29,-72.52" fill="none" stroke="rgb(220, 208, 186)" stroke-width="2" stroke-linejoin="round" filter="url(#fuzzy)" /><polyline points="50.16,-55.08 50.21,-54.95 50.34,-54.72 50.4,-54.42 50.38,-54.04 50.16,-53.67 49.62,-53.41 48.7,-53.35 47.36,-53.48 45.6,-53.81 43.43,-54.33 40.84,-55.03 37.8,-55.93 34.31,-57.03 30.34,-58.35 25.88,-59.89 20.89,-61.65 15.3,-63.65 9.04,-65.89 2.04,-68.4 -5.65,-71.22" fill="none" stroke="rgb(220, 208, 186)" stroke-width="2" stroke-linejoin="round" filter="url(#fuzzy)" /><polyline points="-39.24,-64.09 -38.33,-64.51 -37.09,-65.15 -35.58,-65.86 -33.91,-66.62 -32.14,-67.39 -30.31,-68.14 -28.45,-68.87 -26.55,-69.57 -24.63,-70.26 -22.74,-70.92 -20.95,-71.54 -19.29,-72.09 -17.78,-72.59 -16.38,-73.04 -15.06,-73.45 -13.81,-73.84 -12.72,-74.19 -11.89,-74.48 -11.44,-74.68 -11.44,-74.77 -12.03,-74.7" fill="none" stroke="rgb(220, 208, 186)" stroke-width="2" stroke-linejoin="round" filter="url(#fuzzy)" /><polyline points="-5.79,-75.63 -4.33,-75.67 -2.99,-75.75 -1.56,-75.77 0.01,-75.73 1.63,-75.66 3.18,-75.57 4.61,-75.47 5.93,-75.36 7.17,-75.25 8.36,-75.13 9.47,-75.03 10.42,-74.96 11.13,-74.91 11.52,-74.89 11.53,-74.92 11.08,-75 10.2,-75.12 9,-75.28" fill="none" stroke="rgb(220, 208, 186)" stroke-width="2" stroke-linejoin="round" filter="url(#fuzzy)" /><polyline points="-0.75,-75.96 0.48,-75.92 1.54,-75.86 2.19,-75.77 2.6,-75.64 2.92,-75.47 3.18,-75.25 3.3,-74.97 3.21,-74.62 2.85,-74.22 2.17,-73.74 1.15,-73.18 -0.27,-72.54 -2.11,-71.83 -4.39,-71.03 -7.09,-70.17 -10.22,-69.23 -13.76,-68.21 -17.7,-67.13 -22.04,-65.97 -26.79,-64.75 -32.01,-63.44 -37.92,-61.95" fill="none" stroke="rgb(220, 208, 186)" stroke-width="2" stroke-linejoin="round" filter="url(#fuzzy)" /><polyline points="3.63,-75.83 4.07,-75.71 5.44,-75.61 6.88,-75.5 8.14,-75.38 9.23,-75.25 10.15,-75.12 10.85,-75 11.25,-74.89 11.32,-74.81 11.04,-74.77 10.42,-74.78 9.44,-74.84 8,-74.96 6.01,-75.13 3.42,-75.34 0.34,-75.61" fill="none" stroke="rgb(220, 208, 186)" stroke-width="2" stroke-linejoin="round" filter="url(#fuzzy)" /><polyline points="-21.95,-72.28 -20.48,-72.78 -19.53,-73.05 -18.74,-73.23 -17.91,-73.41 -16.99,-73.62 -16.06,-73.84 -15.18,-74.04 -14.41,-74.2 -13.76,-74.32 -13.27,-74.38 -12.98,-74.37 -12.92,-74.28 -13.14,-74.12 -13.63,-73.89 -14.39,-73.58 -15.45,-73.2 -16.86,-72.72 -18.67,-72.11 -20.88,-71.37 -23.45,-70.51 -26.39,-69.56 -29.84,-68.46" fill="none" stroke="rgb(220, 208, 186)" stroke-width="2" stroke-linejoin="round" filter="url(#fuzzy)" /><polyline points="-20.03,-72.98 -19.23,-73.13 -18.29,-73.22 -16.95,-73.37 -15.24,-73.58 -13.27,-73.83 -11.2,-74.08 -9.08,-74.32 -6.97,-74.54 -4.88,-74.75 -2.9,-74.95 -1.09,-75.12 0.46,-75.28 1.7,-75.41 2.57,-75.52 3.01,-75.62 3.11,-75.71" fill="none" stroke="rgb(220, 208, 186)" stroke-width="2" stroke-linejoin="round" filter="url(#fuzzy)" /><polyline points="30.71,-68.6 32.13,-67.88 33.2,-67.35 34.09,-66.91 34.85,-66.51 35.5,-66.14 36.07,-65.79 36.54,-65.47 36.84,-65.21 36.92,-65.03 36.75,-64.95 36.3,-64.98 35.59,-65.12 34.63,-65.36 33.41,-65.72 31.91,-66.22 30.07,-66.88 27.85,-67.74 25.22,-68.8 22.13,-70.07 18.48,-71.55 14.2,-73.28" fill="none" stroke="rgb(220, 208, 186)" stroke-width="2" stroke-linejoin="round" filter="url(#fuzzy)" /><polyline points="14.18,-74.44 15.16,-74.12 16.18,-73.86 17.19,-73.63 18.18,-73.39 19.14,-73.15 20.04,-72.9 20.83,-72.66 21.42,-72.46 21.74,-72.33 21.7,-72.3 21.25,-72.38 20.38,-72.58 19.11,-72.91 17.44,-73.39 15.29,-74.04" fill="none" stroke="rgb(220, 208, 186)" stroke-width="2" stroke-linejoin="round" filter="url(#fuzzy)" /><polyline points="-37.46,-65.24 -36.25,-65.76 -34.67,-66.44 -32.88,-67.14 -30.95,-67.83 -28.87,-68.48 -26.64,-69.11 -24.24,-69.75 -21.74,-70.37 -19.2,-70.96 -16.72,-71.52 -14.3,-72.03 -11.93,-72.53 -9.59,-73.04 -7.29,-73.55 -5.1,-74.05 -3.16,-74.5 -1.54,-74.9 -0.14,-75.24 1.34,-75.59" fill="none" stroke="rgb(220, 208, 186)" stroke-width="2" stroke-linejoin="round" filter="url(#fuzzy)" /><polyline points="-27.65,-70.3 -26.8,-70.58 -26.24,-70.79 -25.89,-70.9 -25.52,-70.98 -25.05,-71.04 -24.59,-71.07 -24.32,-70.98 -24.4,-70.72 -24.87,-70.26 -25.71,-69.6 -26.93,-68.73 -28.52,-67.63 -30.55,-66.26 -33.05,-64.62 -36.03,-62.7 -39.46,-60.54 -43.36,-58.14 -47.77,-55.52" fill="none" stroke="rgb(220, 208, 186)" stroke-width="2" stroke-linejoin="round" filter="url(#fuzzy)" /><polyline points="50.57,-54.82 51.83,-53.56 53.06,-52.27 54,-51.22 54.69,-50.39 55.24,-49.69 55.71,-49.07 56.1,-48.53 56.39,-48.09 56.55,-47.77 56.56,-47.6 56.4,-47.59 56.06,-47.76 55.53,-48.11 54.76,-48.68 53.74,-49.51 52.46,-50.63 50.9,-52.07 49.08,-53.84 46.94,-55.98 44.41,-58.52 41.37,-61.46" fill="none" stroke="rgb(220, 208, 186)" stroke-width="2" stroke-linejoin="round" filter="url(#fuzzy)" /><polyline points="-39.24,-64.09 -38.37,-64.51 -37.22,-65.17 -35.89,-65.91 -34.47,-66.68 -33.08,-67.43 -31.81,-68.11 -30.69,-68.71 -29.68,-69.23 -28.8,-69.66 -28.12,-69.99 -27.77,-70.15 -27.9,-70.09 -28.58,-69.79 -29.65,-69.31 -30.92,-68.71" fill="none" stroke="rgb(220, 208, 186)" stroke-width="2" stroke-linejoin="round" filter="url(#fuzzy)" /><polyline points="49.87,-55.24 50.54,-54.64 50.7,-54.35 50.72,-53.98 50.48,-53.64 49.78,-53.5 48.53,-53.65 46.73,-54.1 44.42,-54.84 41.58,-55.84 38.18,-57.13 34.13,-58.74 29.37,-60.68 23.87,-62.96 17.67,-65.57 10.76,-68.51 3.03,-71.83" fill="none" stroke="rgb(220, 208, 186)" stroke-width="2" stroke-linejoin="round" filter="url(#fuzzy)" /><polyline points="14.18,-74.44 15.23,-74.07 16.46,-73.67 17.84,-73.19 19.37,-72.63 21.06,-71.97 22.91,-71.23 24.86,-70.43 26.83,-69.59 28.72,-68.78 30.47,-68.03 32.03,-67.34 33.42,-66.73 34.67,-66.17 35.76,-65.7 36.61,-65.34 37.13,-65.14 37.31,-65.11" fill="none" stroke="rgb(220, 208, 186)" stroke-width="2" stroke-linejoin="round" filter="url(#fuzzy)" /><polyline points="-6.94,-75.35 -6.07,-75.44 -4.89,-75.43 -3.37,-75.34 -1.61,-75.2 0.35,-74.98 2.49,-74.69 4.72,-74.34 6.98,-73.94 9.22,-73.51 11.42,-73.06 13.6,-72.6 15.78,-72.14 17.95,-71.68 20.06,-71.23 22.06,-70.79 23.89,-70.39 25.48,-70.04 26.77,-69.79 27.69,-69.67 28.23,-69.68" fill="none" stroke="rgb(220, 208, 186)" stroke-width="2" stroke-linejoin="round" filter="url(#fuzzy)" /><polyline points="60.15,-43 60.63,-42.01 60.57,-41.23 60.01,-40.59 58.85,-40.19 57.04,-40.12 54.53,-40.4 51.31,-41.03 47.38,-41.98 42.77,-43.2 37.51,-44.66 31.56,-46.35 24.82,-48.29 17.23,-50.52 8.74,-53.11 -0.6,-56.09 -10.76,-59.47 -21.84,-63.16" fill="none" stroke="rgb(220, 208, 186)" stroke-width="2" stroke-linejoin="round" filter="url(#fuzzy)" /><polyline points="-2.73,-75.98 -1.14,-75.93 0.07,-75.83 0.85,-75.67 1.22,-75.44 1.28,-75.13 1.14,-74.73 0.84,-74.23 0.33,-73.62 -0.47,-72.89 -1.61,-72.03 -3.13,-71.02 -5.06,-69.86 -7.44,-68.57 -10.26,-67.15 -13.54,-65.61 -17.26,-63.95 -21.43,-62.18 -26.05,-60.26 -31.14,-58.18 -36.75,-55.88 -42.95,-53.3 -49.85,-50.36" fill="none" stroke="rgb(220, 208, 186)" stroke-width="2" stroke-linejoin="round" filter="url(#fuzzy)" /><polyline points="-13.39,-74.57 -12.67,-74.62 -11.21,-74.86 -9.72,-75.09 -8.38,-75.26 -7.22,-75.4 -6.22,-75.5 -5.39,-75.58 -4.71,-75.65 -4.2,-75.69 -3.9,-75.7 -3.86,-75.67 -4.16,-75.59 -4.89,-75.44 -6.13,-75.25 -7.87,-75 -9.96,-74.73 -12.3,-74.42" fill="none" stroke="rgb(220, 208, 186)" stroke-width="2" stroke-linejoin="round" filter="url(#fuzzy)" /><polyline points="10.6,-74.97 12.18,-74.79 13.6,-74.43 14.94,-73.98 16.33,-73.47 17.8,-72.9 19.37,-72.3 21.04,-71.64 22.79,-70.94 24.61,-70.2 26.46,-69.45 28.28,-68.69 30,-67.97 31.57,-67.3 32.96,-66.71 34.18,-66.2 35.24,-65.75 36.18,-65.37 36.95,-65.06 37.49,-64.87 37.69,-64.84 37.56,-64.98" fill="none" stroke="rgb(220, 208, 186)" stroke-width="2" stroke-linejoin="round" filter="url(#fuzzy)" /><polyline points="16.09,-73.93 16.88,-73.7 17.19,-73.49 17.15,-73.24 16.75,-72.91 15.92,-72.5 14.56,-72.07 12.58,-71.64 9.84,-71.22 6.25,-70.78 1.76,-70.31 -3.6,-69.78 -9.77,-69.2 -16.77,-68.6 -24.77,-67.93" fill="none" stroke="rgb(220, 208, 186)" stroke-width="2" stroke-linejoin="round" filter="url(#fuzzy)" /><polyline points="37.41,-65.21 38,-64.73 38.76,-64.2 39.32,-63.72 39.57,-63.34 39.52,-63.03 39.23,-62.8 38.68,-62.61 37.85,-62.5 36.68,-62.49 35.12,-62.61 33.15,-62.86 30.73,-63.26 27.86,-63.81 24.5,-64.53 20.63,-65.43 16.2,-66.5 11.19,-67.7 5.58,-69.03 -0.6,-70.52 -7.2,-72.28" fill="none" stroke="rgb(220, 208, 186)" stroke-width="2" stroke-linejoin="round" filter="url(#fuzzy)" /><polyline points="-0.75,-75.96 0.45,-75.92 1.45,-75.85 1.97,-75.76 2.13,-75.6 2.11,-75.4 1.95,-75.14 1.57,-74.83 0.86,-74.45 -0.29,-73.99 -1.93,-73.44 -4.12,-72.78 -6.88,-72.04 -10.25,-71.2 -14.28,-70.25 -18.99,-69.16 -24.42,-67.94 -30.61,-66.58" fill="none" stroke="rgb(220, 208, 186)" stroke-width="2" stroke-linejoin="round" filter="url(#fuzzy)" /><polyline points="27.53,-70.02 28.55,-69.65 29.8,-69.06 31.11,-68.37 32.42,-67.67 33.68,-66.99 34.86,-66.35 35.96,-65.74 36.99,-65.16 37.95,-64.61 38.84,-64.09 39.63,-63.61 40.29,-63.21 40.8,-62.89 41.12,-62.66 41.26,-62.54 41.19,-62.53 40.92,-62.64 40.43,-62.9 39.69,-63.31 38.68,-63.9 37.35,-64.66 35.67,-65.64 33.55,-66.89" fill="none" stroke="rgb(220, 208, 186)" stroke-width="2" stroke-linejoin="round" filter="url(#fuzzy)" /><polyline points="64.68,-35.53 65.12,-33.99 64.75,-33.06 63.8,-32.28 62.23,-31.68 59.96,-31.33 56.95,-31.29 53.18,-31.56 48.67,-32.09 43.39,-32.87 37.34,-33.85 30.52,-35 22.89,-36.28 14.44,-37.72 5.17,-39.35 -4.91,-41.23 -15.8,-43.41 -27.49,-45.9 -39.97,-48.77" fill="none" stroke="rgb(220, 208, 186)" stroke-width="2" stroke-linejoin="round" filter="url(#fuzzy)" /><polyline points="28.35,-69.83 29.61,-69.23 30.66,-68.66 31.52,-68.19 32.09,-67.85 32.34,-67.66 32.23,-67.6 31.76,-67.68 30.93,-67.89 29.7,-68.24 28.02,-68.78 25.8,-69.53 22.92,-70.54 19.23,-71.83 14.67,-73.41" fill="none" stroke="rgb(220, 208, 186)" stroke-width="2" stroke-linejoin="round" filter="url(#fuzzy)" /><polyline points="64.68,-35.53 65.29,-33.96 65.45,-32.99 65.38,-32.14 65.03,-31.44 64.34,-31 63.28,-30.83 61.83,-30.96 60,-31.34 57.78,-31.97 55.2,-32.82 52.24,-33.87 48.91,-35.11 45.17,-36.56 41.03,-38.22 36.46,-40.13 31.44,-42.33 25.97,-44.83 19.98,-47.65 13.44,-50.78 6.29,-54.17 -1.41,-57.81 -9.43,-61.77 -17.44,-66.19" fill="none" stroke="rgb(220, 208, 186)" stroke-width="2" stroke-linejoin="round" filter="url(#fuzzy)" /><polyline points="58.95,-44.99 59.42,-44.19 60.01,-43.23 60.56,-42.29 61.04,-41.42 61.39,-40.66 61.58,-40.06 61.59,-39.68 61.38,-39.56 60.97,-39.69 60.34,-40.06 59.49,-40.63 58.45,-41.39 57.18,-42.36 55.68,-43.55 53.93,-45.01 51.88,-46.81 49.5,-48.96 46.77,-51.51 43.65,-54.47 40.14,-57.84 36.25,-61.61 32,-65.7" fill="none" stroke="rgb(220, 208, 186)" stroke-width="2" stroke-linejoin="round" filter="url(#fuzzy)" /><polyline points="7.99,-75.48 9.28,-75.29 10.55,-75.09 11.68,-74.9 12.55,-74.72 13.09,-74.57 13.29,-74.45 13.19,-74.38 12.77,-74.37 11.98,-74.41 10.76,-74.5 8.99,-74.63 6.64,-74.81 3.69,-75.04 0.18,-75.31" fill="none" stroke="rgb(220, 208, 186)" stroke-width="2" stroke-linejoin="round" filter="url(#fuzzy)" /><polyline points="-13.39,-74.57 -12.58,-74.6 -10.84,-74.79 -8.88,-74.95 -6.91,-75.05 -4.96,-75.1 -3.02,-75.12 -1.09,-75.13 0.82,-75.13 2.71,-75.12 4.52,-75.11 6.22,-75.09 7.73,-75.08 8.93,-75.08 9.63,-75.11 9.73,-75.17" fill="none" stroke="rgb(220, 208, 186)" stroke-width="2" stroke-linejoin="round" filter="url(#fuzzy)" /><polyline points="-2.86,-75.92 -2.13,-75.94 -0.76,-75.9 0.78,-75.83 2.23,-75.75 3.55,-75.65 4.78,-75.54 6,-75.43 7.26,-75.3 8.5,-75.17 9.69,-75.05 10.74,-74.93 11.61,-74.83 12.24,-74.75 12.58,-74.71 12.56,-74.71 12.17,-74.75 11.41,-74.85 10.28,-74.99 8.7,-75.19 6.39,-75.43" fill="none" stroke="rgb(220, 208, 186)" stroke-width="2" stroke-linejoin="round" filter="url(#fuzzy)" />
    </g>
    
        <g id="pointNose">
          <g id="rightNose"><circle r="2.71" cx="10.704" cy="13.37" stroke="black" fill="none" stroke-width="1.0" filter="url(#fuzzy)" /><circle r="1.508" cx="10.428" cy="16.97" stroke="black" fill="none" stroke-width="1.0" filter="url(#fuzzy)" /><circle r="2.572" cx="11.944" cy="14.169999999999998" stroke="black" fill="none" stroke-width="1.0" filter="url(#fuzzy)" /><circle r="2.3040000000000003" cx="12.856" cy="15.181999999999999" stroke="black" fill="none" stroke-width="1.0" filter="url(#fuzzy)" /><circle r="2.356" cx="10.700000000000001" cy="17.09" stroke="black" fill="none" stroke-width="1.0" filter="url(#fuzzy)" /><circle r="2.496" cx="12.3" cy="15.745999999999999" stroke="black" fill="none" stroke-width="1.0" filter="url(#fuzzy)" /><circle r="1.608" cx="12.06" cy="14.297999999999998" stroke="black" fill="none" stroke-width="1.0" filter="url(#fuzzy)" /><circle r="2.19" cx="11.112" cy="13.601999999999999" stroke="black" fill="none" stroke-width="1.0" filter="url(#fuzzy)" /><circle r="2.396" cx="12.664" cy="16.938" stroke="black" fill="none" stroke-width="1.0" filter="url(#fuzzy)" /><circle r="2.12" cx="11.956" cy="14.677999999999997" stroke="black" fill="none" stroke-width="1.0" filter="url(#fuzzy)" /></g>
          <g id="leftNose"><circle r="1.72" cx="-9.682" cy="13.004" stroke="black" fill="none" stroke-width="1.0" filter="url(#fuzzy)" /><circle r="1.492" cx="-12.294" cy="9.203999999999999" stroke="black" fill="none" stroke-width="1.0" filter="url(#fuzzy)" /><circle r="1.8860000000000001" cx="-11.15" cy="11.692" stroke="black" fill="none" stroke-width="1.0" filter="url(#fuzzy)" /><circle r="2.126" cx="-12.694" cy="11.744" stroke="black" fill="none" stroke-width="1.0" filter="url(#fuzzy)" /><circle r="2.7199999999999998" cx="-9.218" cy="10.239999999999998" stroke="black" fill="none" stroke-width="1.0" filter="url(#fuzzy)" /><circle r="1.642" cx="-9.754000000000001" cy="11.899999999999999" stroke="black" fill="none" stroke-width="1.0" filter="url(#fuzzy)" /><circle r="1.758" cx="-12.302000000000001" cy="10.564" stroke="black" fill="none" stroke-width="1.0" filter="url(#fuzzy)" /><circle r="1.34" cx="-12.154" cy="12.956" stroke="black" fill="none" stroke-width="1.0" filter="url(#fuzzy)" /><circle r="1.96" cx="-11.202" cy="12.043999999999999" stroke="black" fill="none" stroke-width="1.0" filter="url(#fuzzy)" /><circle r="2.48" cx="-11.078000000000001" cy="10.963999999999999" stroke="black" fill="none" stroke-width="1.0" filter="url(#fuzzy)" /></g>
        </g>
      
    <g id="mouth">
      <polyline points="23.53,50.47 23.57,51.06 23.52,50.98 23.45,51.06 23.33,51.62 22.72,52.1 22.73,52.19 22.89,52.07 22.67,52.37 22.06,52.75 21.88,52.74 21.41,53.06 21.19,53.26 19.91,53.82 20.26,53.66 19.77,53.81 19.49,53.85 18.82,54.04 18.91,54.14 17.73,54.37 17.25,54.44 15.4,54.73 15.97,54.7 13.91,54.99 15.38,54.75 13.86,54.99 13.35,54.98 11.78,55.12 10.93,55.14 11.88,55.09 11.16,55.14 10.27,55.2 7.89,55.24 6.34,55.23 6.73,55.22 6.51,55.19 3.74,55.11 5.16,55.17 4.28,55.14 0.95,54.94 0.27,54.88 0.53,54.91 -0.65,54.8 -2.4,54.61 -1.62,54.71 -3.96,54.43 -4.78,54.33 -6.32,54.11 -6.26,54.12 -6.5,54.08 -9.35,53.63 -9.2,53.65 -10.24,53.47 -10.82,53.36 -10.16,53.48 -10.75,53.37 -12.92,52.94 -14.16,52.68 -15.41,52.4 -16.76,52.07 -17.92,51.77 -17.08,52.01 -17.99,51.76 -19.48,51.36 -22.09,50.62 -22.61,50.45 -23.09,50.29 -22.18,50.59 -24.01,50 -25.74,49.35 -25.81,49.33 -26.54,49.05 -26.03,49.28 -26.66,49.02 -28.76,48.12 -29.05,48.01 -29.85,47.7 -29.18,47.97 -30.63,47.25 -32.32,46.38 -31.58,46.76 -31.77,46.65 -32.97,45.97 -33.09,45.95 -33.81,45.4 -33.77,45.46 -34.34,45.07 -34.9,44.68 -35.16,44.47 -36.02,43.56 -35.75,43.67 -36.27,43.18 -36.38,42.92 -36.19,43.41 -36.91,42.25 -36.75,42.1 -36.84,41.99 -36.69,42.25 -37.04,41.7 -36.86,41.31 -36.86,41.38 -36.91,41.11 -36.78,40.39 -36.53,39.93 -36.21,39.73 -36.01,39.43 -36.34,40.01 -35.93,39.43 -35.86,39.27 -35.58,39.14 -34.95,38.84 -34.36,38.39 -33.99,38.29 -33.61,38.19 -32.78,37.88 -33.86,38.21 -32.19,37.67 -32.84,37.91 -31.53,37.48 -30.4,37.25 -31.05,37.4 -29.18,37.11 -29.09,37.11 -29.33,37.07 -28.91,37 -26.51,36.79 -27.68,36.88 -25.39,36.69 -25.41,36.68 -24.67,36.69 -22.86,36.58 -23.93,36.64 -21.8,36.61 -19.95,36.61 -20.32,36.58 -17.78,36.66 -17.29,36.71 -17.7,36.67 -16.88,36.73 -15.63,36.82 -13.34,36.99 -13.67,36.95 -11.73,37.14 -11.5,37.16 -10.8,37.24 -11.27,37.19 -10.71,37.25 -6.78,37.77 -7.26,37.7 -6.5,37.81 -4.71,38.1 -5.41,37.98 -3.85,38.25 -1.9,38.6 -3.13,38.37 -0.09,38.97 2.11,39.45 2.36,39.51 2.4,39.52 2.76,39.6 4.43,40.02 5.36,40.26 4.18,39.96 6.55,40.58 6.14,40.46 8.61,41.21 9.9,41.58 10.32,41.74 9.39,41.43 12.04,42.3 11.04,41.96 11.96,42.3 14.21,43.12 12.85,42.65 14.15,43.13 14.8,43.4 15.86,43.87 17.17,44.45 16.33,44.08 17.96,44.84 18.71,45.3 19.27,45.67 19.86,45.91 20.46,46.37 20.86,46.59 21.46,47.13 21.18,46.88 21.07,46.87 22.05,47.64 22.45,48.17 22.72,48.54 22.25,47.93 23.21,48.96 22.95,48.85 23.14,49.05 23.38,49.42 23.49,49.93 23.51,50.27 23.54,50.21 23.51,50.62" fill="rgb(215,127,140)" stroke="black" stroke-width="3" stroke-linejoin="round" filter="url(#fuzzy)" />
    </g>
  </svg>