<svg viewBox="-100 -100 200 200" xmlns="http://www.w3.org/2000/svg" width="500" height="500" id="face-svg">
    <defs>
      <clipPath id="leftEyeClipPath">
        <polyline points="24.45,-10.86 24.18,-10.94 23.88,-11.01 23.56,-11.08 23.22,-11.15 22.85,-11.21 22.47,-11.27 22.06,-11.33 21.63,-11.39 21.19,-11.45 20.72,-11.5 20.23,-11.55 19.72,-11.6 19.19,-11.65 18.64,-11.7 18.07,-11.75 17.53,-11.79 16.95,-11.83 16.34,-11.87 15.7,-11.91 15.02,-11.96 14.32,-12 13.58,-12.04 12.82,-12.08 12.04,-12.12 11.23,-12.15 10.4,-12.19 9.55,-12.23 8.68,-12.26 7.8,-12.3 6.91,-12.33 6,-12.36 5.09,-12.39 4.18,-12.41 3.26,-12.44 2.34,-12.46 1.42,-12.48 0.5,-12.5 -0.41,-12.51 -1.32,-12.52 -2.21,-12.53 -3.09,-12.54 -3.96,-12.54 -4.82,-12.54 -5.66,-12.53 -6.48,-12.53 -7.28,-12.51 -8.07,-12.5 -8.83,-12.48 -9.57,-12.45 -10.28,-12.43 -10.97,-12.4 -11.64,-12.36 -12.28,-12.32 -12.9,-12.28 -13.49,-12.23 -14.06,-12.18 -14.6,-12.12 -15.11,-12.06 -15.6,-12 -16.06,-11.93 -16.5,-11.86 -16.92,-11.79 -17.31,-11.71 -17.68,-11.63 -18.03,-11.54 -18.36,-11.46 -18.67,-11.36 -18.96,-11.27 -19.22,-11.17 -19.47,-11.07 -19.7,-10.96 -19.91,-10.85 -20.1,-10.74 -20.27,-10.62 -20.42,-10.5 -20.56,-10.38 -20.68,-10.25 -20.78,-10.12 -20.86,-9.99 -19.27,-5.32 -18.86,-4.97 -18.44,-4.61 -18.01,-4.24 -17.58,-3.87 -17.13,-3.48 -16.68,-3.08 -16.22,-2.68 -15.75,-2.27 -15.27,-1.84 -14.78,-1.41 -14.29,-0.97 -13.79,-0.52 -13.28,-0.06 -12.77,0.4 -12.25,0.87 -11.71,1.36 -11.17,1.85 -10.62,2.34 -10.06,2.85 -9.49,3.36 -8.92,3.88 -8.33,4.4 -7.74,4.93 -7.15,5.46 -6.55,5.99 -5.94,6.52 -5.33,7.04 -4.71,7.57 -4.09,8.09 -3.47,8.6 -2.85,9.1 -2.22,9.59 -1.59,10.07 -0.96,10.53 -0.32,10.97 0.31,11.4 0.94,11.8 1.58,12.18 2.21,12.53 2.84,12.86 3.47,13.15 4.1,13.41 4.73,13.64 5.36,13.82 5.98,13.97 6.61,14.08 7.22,14.15 7.84,14.17 8.45,14.14 9.06,14.07 9.67,13.95 10.27,13.78 10.87,13.55 11.47,13.28 12.06,12.95 12.65,12.57 13.23,12.14 13.81,11.66 14.38,11.12 14.95,10.54 15.51,9.91 16.06,9.23 16.61,8.5 17.15,7.73 17.62,7.26 18.08,6.76 18.53,6.25 18.97,5.72 19.41,5.17 19.84,4.61 20.26,4.03 20.67,3.45 21.07,2.86 21.46,2.26 21.83,1.65 22.2,1.05 22.55,0.44 22.89,-0.15 23.22,-0.74" />
      </clipPath>
      <clipPath id="rightEyeClipPath">
        <polyline points="-25.49,-15.89 -25.26,-15.99 -25,-16.08 -24.72,-16.16 -24.42,-16.24 -24.1,-16.32 -23.76,-16.39 -23.4,-16.46 -23.01,-16.53 -22.6,-16.6 -22.17,-16.66 -21.71,-16.71 -21.24,-16.77 -20.74,-16.82 -20.23,-16.87 -19.69,-16.92 -19.2,-16.97 -18.68,-17.01 -18.12,-17.05 -17.52,-17.09 -16.88,-17.13 -16.21,-17.17 -15.5,-17.21 -14.76,-17.25 -13.99,-17.28 -13.19,-17.31 -12.37,-17.35 -11.52,-17.38 -10.65,-17.4 -9.76,-17.43 -8.85,-17.46 -7.93,-17.48 -7,-17.5 -6.06,-17.52 -5.11,-17.53 -4.16,-17.55 -3.2,-17.56 -2.24,-17.56 -1.29,-17.57 -0.34,-17.57 0.6,-17.57 1.53,-17.57 2.45,-17.56 3.36,-17.54 4.26,-17.53 5.13,-17.51 5.99,-17.49 6.83,-17.46 7.65,-17.43 8.45,-17.39 9.23,-17.35 9.98,-17.3 10.7,-17.25 11.41,-17.2 12.08,-17.14 12.73,-17.08 13.36,-17.01 13.96,-16.93 14.53,-16.86 15.08,-16.77 15.6,-16.69 16.1,-16.6 16.57,-16.5 17.02,-16.4 17.45,-16.29 17.86,-16.18 18.24,-16.07 18.61,-15.95 18.95,-15.83 19.28,-15.7 19.58,-15.57 19.87,-15.43 20.13,-15.28 20.38,-15.14 20.61,-14.98 20.82,-14.82 21.01,-14.66 21.19,-14.49 21.35,-14.32 21.49,-14.14 21.21,-8.27 20.86,-7.79 20.51,-7.29 20.15,-6.78 19.77,-6.25 19.39,-5.71 18.99,-5.15 18.59,-4.58 18.17,-4 17.74,-3.4 17.3,-2.79 16.85,-2.16 16.39,-1.53 15.92,-0.88 15.43,-0.21 14.94,0.46 14.43,1.15 13.91,1.85 13.37,2.57 12.82,3.29 12.26,4.03 11.69,4.78 11.1,5.54 10.5,6.3 9.88,7.07 9.26,7.84 8.62,8.61 7.96,9.38 7.3,10.15 6.63,10.92 5.94,11.67 5.25,12.41 4.54,13.14 3.83,13.85 3.11,14.54 2.38,15.21 1.64,15.85 0.9,16.46 0.15,17.03 -0.6,17.57 -1.35,18.07 -2.11,18.52 -2.87,18.93 -3.63,19.29 -4.38,19.59 -5.14,19.84 -5.89,20.03 -6.64,20.16 -7.39,20.22 -8.12,20.21 -8.86,20.14 -9.58,19.99 -10.29,19.77 -11,19.47 -11.69,19.1 -12.37,18.65 -13.04,18.12 -13.7,17.52 -14.33,16.84 -14.96,16.08 -15.57,15.24 -16.16,14.33 -16.73,13.35 -17.28,12.3 -17.82,11.19 -18.33,10.51 -18.82,9.81 -19.3,9.07 -19.77,8.31 -20.23,7.52 -20.68,6.71 -21.11,5.88 -21.52,5.04 -21.93,4.18 -22.31,3.31 -22.69,2.43 -23.05,1.56 -23.39,0.68 -23.71,-0.19 -24.02,-1.05" />
      </clipPath>
      <filter id="fuzzy">
        <feTurbulence id="turbulence" baseFrequency="0.05" numOctaves="3" type="noise" result="noise" />
        <feDisplacementMap in="SourceGraphic" in2="noise" scale="2" />
      </filter>
      <linearGradient id="rainbowGradient" x1="0%" y1="0%" x2="100%" y2="0%">
        <stop offset="0%" style="stop-color: [object Object]; stop-opacity: 1" />
        <stop offset="50%" style="stop-color: [object Object]; stop-opacity: 1" />
        <stop offset="100%" style="stop-color: [object Object]; stop-opacity: 1" />
      </linearGradient>
    </defs>
    <rect x="-100" y="-100" width="100%" height="100%" fill="rgb(70, 130, 180)" />
    <polyline id="faceContour" points="56.11,0.54 56.01,0.77 56.13,2.31 55.91,6.21 55.84,5.2 55.7,7.9 55.88,7.88 55.81,8.51 55.69,8.51 55.5,12.53 55.39,11.85 55.08,15.14 54.92,17.61 54.87,18.06 54.37,20.8 54.6,18.99 54.29,21.36 54.08,22.84 53.47,25.14 53.69,25.03 53.31,26.61 53.3,26.18 52.58,30.24 52.24,30.81 51.89,32.31 52.21,31.37 51.52,33.47 51.03,35.1 50.72,35.78 50.41,37.14 49.96,38.16 49.29,40.84 49.57,39.75 49.01,41.72 48.14,43.83 47.84,44.89 47.13,46.44 46.93,46.89 46.06,48.44 45.83,49.34 44.94,50.77 44.75,51.81 44.19,52.7 44.03,52.86 42.82,55.16 42.46,55.57 42.13,56.18 41.43,57.37 40.41,58.93 40.67,58.76 39.8,59.96 38.72,61.85 38.95,61.53 38.35,62.18 36.95,63.92 35.87,65.63 35.31,66.39 34.83,66.88 34.15,67.95 33.47,68.66 31.93,70.25 32.26,69.88 32.33,69.9 31.31,71.06 30.74,71.41 29.04,73.2 27.67,74.38 27.7,74.11 27.16,74.69 26.83,75.23 24.9,76.59 23.32,77.6 24.36,77.15 22.65,78.4 22.3,78.39 22.26,78.31 20.33,79.9 19.95,79.68 20.49,79.75 17.32,81.15 17.38,81.24 17.23,81.5 16.71,81.81 15.81,81.86 13.62,83.15 12.06,83.54 11.44,83.6 11.47,83.72 10.22,84 10.17,83.99 7.77,84.81 8.77,84.6 5.62,85.04 7.55,84.75 5.38,84.95 5.28,85.11 3.82,85.2 1.45,85.34 1.72,85.54 0.67,85.52 -1.44,85.42 -1.37,85.6 -0.73,85.69 -3.19,85.29 -3.54,85.24 -5.59,85.23 -4.17,85.45 -5.43,85.19 -7.06,84.67 -8.94,84.59 -8.59,84.52 -9.75,84.08 -10.36,84.08 -10.57,84.02 -11.94,83.69 -11.81,83.72 -14,82.87 -15.51,82.13 -15.27,82.49 -17.78,81.11 -17.95,81.05 -17.58,80.97 -18.21,81.01 -19.75,80.32 -21.07,79.35 -20.72,79.36 -22.71,78.41 -23.34,77.73 -24.67,76.82 -25.04,76.44 -25.51,76.34 -25.18,76.34 -27.16,75.04 -27.77,74.15 -28,74.16 -29.45,72.87 -30.5,71.71 -30.18,72.33 -31.94,70.07 -32.65,69.49 -32.47,69.76 -34.61,67.18 -34.49,67.69 -34.82,66.89 -36.14,65.14 -36.69,64.66 -37.46,63.46 -37.66,63.45 -38.83,61.49 -38.74,61.83 -40.36,59.54 -39.7,60.61 -40.44,59.46 -40.76,58.97 -42.12,56.66 -42.83,55.2 -43.38,53.95 -44.22,52.59 -44.58,51.87 -44.77,51.5 -45.47,50.08 -45.6,49.82 -46.47,47.85 -47.11,46.6 -47.33,46.22 -47.89,44.22 -48.45,43.16 -48.92,41.64 -49.29,41.05 -49.6,39.8 -50.01,39.3 -50.54,37.07 -50.76,36.66 -51.49,33.83 -51.68,33.03 -52.04,32.61 -52.2,31.89 -52.27,30.87 -52.78,28.6 -52.64,29.53 -53.23,26.9 -53.99,23.73 -53.94,22.93 -53.93,23.99 -54.36,21.62 -54.71,19.71 -54.81,18.92 -54.71,18.81 -54.97,17.29 -55.16,14.86 -55.45,13.92 -55.51,13.43 -55.76,10.18 -55.62,10.47 -55.76,8.47 -55.92,5.75 -55.99,5.85 -56.07,4.25 -56.13,1.51 -56.01,1.82 -56.24,-0.79 -55.98,-2.08 -56.11,-3.72 -55.96,-5.43 -55.95,-5.44 -55.84,-6.95 -55.86,-9.03 -55.88,-8.37 -55.84,-10.25 -55.6,-11.05 -55.27,-13.7 -55.24,-15.33 -54.99,-17.28 -54.92,-17.86 -54.57,-19.92 -54.38,-20.59 -54.32,-21.22 -53.83,-24.27 -53.64,-25.7 -54,-23.03 -53.57,-25.56 -53.12,-27.66 -53.03,-28.11 -52.14,-31.44 -52.01,-32.44 -51.95,-31.68 -51.26,-34.77 -51,-36.21 -50.67,-36.74 -49.78,-39.9 -49.62,-40.15 -49.35,-40.5 -48.65,-42.73 -48.69,-42.36 -48.08,-43.93 -47.63,-45.45 -47.69,-45.46 -47.24,-46.22 -46.14,-48.77 -46.08,-48.88 -45.3,-50.46 -44.97,-51.54 -44.38,-52.08 -42.97,-54.76 -42.4,-56.02 -42.59,-55.31 -42.24,-56.7 -41.38,-58.01 -41.37,-57.89 -40.52,-59.42 -40.41,-59.78 -39.34,-61.07 -37.87,-63.29 -36.82,-64.43 -37.32,-63.89 -36.4,-65.09 -36.47,-65.04 -35.63,-66.12 -34.48,-67.43 -34.5,-67.49 -34.14,-67.84 -32.21,-70.11 -30.72,-71.54 -30.32,-71.95 -29.51,-72.87 -29.85,-72.67 -28.99,-73.11 -28.66,-73.63 -26.99,-74.63 -25.67,-75.85 -25.14,-76.27 -23.86,-77.34 -24.54,-77.11 -23.51,-77.68 -23.49,-77.72 -21.95,-78.74 -19.74,-80.16 -19.83,-80 -18.16,-81.08 -18.26,-81.07 -17.79,-81.2 -16.27,-81.75 -15.26,-82.29 -15.25,-82.25 -12.81,-83.46 -13.02,-83.09 -12.87,-83.08 -10.32,-83.96 -10.23,-84.23 -9.41,-84.39 -8.66,-84.4 -7.63,-84.63 -7.04,-84.79 -5.95,-85.24 -6.92,-84.89 -4.8,-85.25 -3.44,-85.3 -2.5,-85.36 -2.08,-85.55 -1.54,-85.61 0.39,-85.67 0.97,-85.45 1.93,-85.34 3,-85.39 2.51,-85.33 4.87,-85.18 5.27,-85.02 6.7,-84.79 6.91,-84.78 8.68,-84.56 8.89,-84.6 8.96,-84.3 11.03,-83.91 11.71,-83.52 12.81,-83.09 13.95,-82.74 14.37,-82.5 14.32,-82.82 16.8,-81.53 15.43,-82.18 16.35,-81.86 17.79,-81.17 19.94,-79.79 19.6,-80 19.83,-79.94 21.36,-78.94 21.87,-78.76 23.58,-77.54 24.24,-77.26 25.01,-76.6 25.24,-76.32 27.17,-74.76 27.02,-74.9 28.13,-74.11 29.38,-72.82 29.05,-73.01 30.44,-71.95 32.01,-70.43 31.23,-70.77 32.03,-70.32 33.15,-68.9 33.33,-68.91 35.31,-66.24 35.18,-66.35 34.73,-67.09 35.97,-65.81 37.8,-63.32 38.3,-62.62 38.03,-62.87 39.13,-61.04 40.1,-59.98 41.34,-57.82 40.39,-59.13 41.67,-57.5 41.5,-57.57 42.36,-56.28 43.29,-54.13 44.01,-53.27 44.37,-51.92 45.65,-49.54 44.58,-51.65 45.67,-49.57 46.47,-48.12 46.83,-47.34 47.68,-44.86 47.69,-44.55 47.59,-44.98 49.18,-41.28 49.64,-40.01 49.79,-38.74 50.18,-38.14 50.35,-37.71 51.08,-35.13 51.21,-35.2 51.45,-34.14 52.3,-30.64 52.03,-31.64 52.13,-31.34 52.71,-28.85 52.89,-27.85 53.48,-25.77 53.39,-25.53 54.05,-23.34 54.2,-22.34 54.55,-19.29 54.3,-20.67 54.62,-19.61 54.79,-18.41 54.88,-17.09 55.42,-13 55.26,-13.77 55.73,-10.18 55.57,-11.11 55.66,-9.5 55.89,-7.96 55.81,-7.42 55.92,-4.19 55.95,-3.39 56.12,-2.16 55.98,-1.51 56.11,0.54 56.01,0.77" fill="rgb(205, 92, 92)" stroke="black" stroke-width="1.6666666666666665" stroke-linejoin="round" filter="url(#fuzzy)" />
    <g transform="translate(23.740000000000002 -23.38)">
      <polyline id="rightCountour" points="-25.49,-15.89 -25.26,-15.99 -25,-16.08 -24.72,-16.16 -24.42,-16.24 -24.1,-16.32 -23.76,-16.39 -23.4,-16.46 -23.01,-16.53 -22.6,-16.6 -22.17,-16.66 -21.71,-16.71 -21.24,-16.77 -20.74,-16.82 -20.23,-16.87 -19.69,-16.92 -19.2,-16.97 -18.68,-17.01 -18.12,-17.05 -17.52,-17.09 -16.88,-17.13 -16.21,-17.17 -15.5,-17.21 -14.76,-17.25 -13.99,-17.28 -13.19,-17.31 -12.37,-17.35 -11.52,-17.38 -10.65,-17.4 -9.76,-17.43 -8.85,-17.46 -7.93,-17.48 -7,-17.5 -6.06,-17.52 -5.11,-17.53 -4.16,-17.55 -3.2,-17.56 -2.24,-17.56 -1.29,-17.57 -0.34,-17.57 0.6,-17.57 1.53,-17.57 2.45,-17.56 3.36,-17.54 4.26,-17.53 5.13,-17.51 5.99,-17.49 6.83,-17.46 7.65,-17.43 8.45,-17.39 9.23,-17.35 9.98,-17.3 10.7,-17.25 11.41,-17.2 12.08,-17.14 12.73,-17.08 13.36,-17.01 13.96,-16.93 14.53,-16.86 15.08,-16.77 15.6,-16.69 16.1,-16.6 16.57,-16.5 17.02,-16.4 17.45,-16.29 17.86,-16.18 18.24,-16.07 18.61,-15.95 18.95,-15.83 19.28,-15.7 19.58,-15.57 19.87,-15.43 20.13,-15.28 20.38,-15.14 20.61,-14.98 20.82,-14.82 21.01,-14.66 21.19,-14.49 21.35,-14.32 21.49,-14.14 21.21,-8.27 20.86,-7.79 20.51,-7.29 20.15,-6.78 19.77,-6.25 19.39,-5.71 18.99,-5.15 18.59,-4.58 18.17,-4 17.74,-3.4 17.3,-2.79 16.85,-2.16 16.39,-1.53 15.92,-0.88 15.43,-0.21 14.94,0.46 14.43,1.15 13.91,1.85 13.37,2.57 12.82,3.29 12.26,4.03 11.69,4.78 11.1,5.54 10.5,6.3 9.88,7.07 9.26,7.84 8.62,8.61 7.96,9.38 7.3,10.15 6.63,10.92 5.94,11.67 5.25,12.41 4.54,13.14 3.83,13.85 3.11,14.54 2.38,15.21 1.64,15.85 0.9,16.46 0.15,17.03 -0.6,17.57 -1.35,18.07 -2.11,18.52 -2.87,18.93 -3.63,19.29 -4.38,19.59 -5.14,19.84 -5.89,20.03 -6.64,20.16 -7.39,20.22 -8.12,20.21 -8.86,20.14 -9.58,19.99 -10.29,19.77 -11,19.47 -11.69,19.1 -12.37,18.65 -13.04,18.12 -13.7,17.52 -14.33,16.84 -14.96,16.08 -15.57,15.24 -16.16,14.33 -16.73,13.35 -17.28,12.3 -17.82,11.19 -18.33,10.51 -18.82,9.81 -19.3,9.07 -19.77,8.31 -20.23,7.52 -20.68,6.71 -21.11,5.88 -21.52,5.04 -21.93,4.18 -22.31,3.31 -22.69,2.43 -23.05,1.56 -23.39,0.68 -23.71,-0.19 -24.02,-1.05" fill="white" stroke="white" stroke-width="0" stroke-linejoin="round" filter="url(#fuzzy)" />
    </g>
    <g transform="translate(-22.590000000000003 -24.49)">
      <polyline id="leftCountour" points="24.45,-10.86 24.18,-10.94 23.88,-11.01 23.56,-11.08 23.22,-11.15 22.85,-11.21 22.47,-11.27 22.06,-11.33 21.63,-11.39 21.19,-11.45 20.72,-11.5 20.23,-11.55 19.72,-11.6 19.19,-11.65 18.64,-11.7 18.07,-11.75 17.53,-11.79 16.95,-11.83 16.34,-11.87 15.7,-11.91 15.02,-11.96 14.32,-12 13.58,-12.04 12.82,-12.08 12.04,-12.12 11.23,-12.15 10.4,-12.19 9.55,-12.23 8.68,-12.26 7.8,-12.3 6.91,-12.33 6,-12.36 5.09,-12.39 4.18,-12.41 3.26,-12.44 2.34,-12.46 1.42,-12.48 0.5,-12.5 -0.41,-12.51 -1.32,-12.52 -2.21,-12.53 -3.09,-12.54 -3.96,-12.54 -4.82,-12.54 -5.66,-12.53 -6.48,-12.53 -7.28,-12.51 -8.07,-12.5 -8.83,-12.48 -9.57,-12.45 -10.28,-12.43 -10.97,-12.4 -11.64,-12.36 -12.28,-12.32 -12.9,-12.28 -13.49,-12.23 -14.06,-12.18 -14.6,-12.12 -15.11,-12.06 -15.6,-12 -16.06,-11.93 -16.5,-11.86 -16.92,-11.79 -17.31,-11.71 -17.68,-11.63 -18.03,-11.54 -18.36,-11.46 -18.67,-11.36 -18.96,-11.27 -19.22,-11.17 -19.47,-11.07 -19.7,-10.96 -19.91,-10.85 -20.1,-10.74 -20.27,-10.62 -20.42,-10.5 -20.56,-10.38 -20.68,-10.25 -20.78,-10.12 -20.86,-9.99 -19.27,-5.32 -18.86,-4.97 -18.44,-4.61 -18.01,-4.24 -17.58,-3.87 -17.13,-3.48 -16.68,-3.08 -16.22,-2.68 -15.75,-2.27 -15.27,-1.84 -14.78,-1.41 -14.29,-0.97 -13.79,-0.52 -13.28,-0.06 -12.77,0.4 -12.25,0.87 -11.71,1.36 -11.17,1.85 -10.62,2.34 -10.06,2.85 -9.49,3.36 -8.92,3.88 -8.33,4.4 -7.74,4.93 -7.15,5.46 -6.55,5.99 -5.94,6.52 -5.33,7.04 -4.71,7.57 -4.09,8.09 -3.47,8.6 -2.85,9.1 -2.22,9.59 -1.59,10.07 -0.96,10.53 -0.32,10.97 0.31,11.4 0.94,11.8 1.58,12.18 2.21,12.53 2.84,12.86 3.47,13.15 4.1,13.41 4.73,13.64 5.36,13.82 5.98,13.97 6.61,14.08 7.22,14.15 7.84,14.17 8.45,14.14 9.06,14.07 9.67,13.95 10.27,13.78 10.87,13.55 11.47,13.28 12.06,12.95 12.65,12.57 13.23,12.14 13.81,11.66 14.38,11.12 14.95,10.54 15.51,9.91 16.06,9.23 16.61,8.5 17.15,7.73 17.62,7.26 18.08,6.76 18.53,6.25 18.97,5.72 19.41,5.17 19.84,4.61 20.26,4.03 20.67,3.45 21.07,2.86 21.46,2.26 21.83,1.65 22.2,1.05 22.55,0.44 22.89,-0.15 23.22,-0.74" fill="white" stroke="white" stroke-width="0" stroke-linejoin="round" filter="url(#fuzzy)" />
    </g>
    <g transform="translate(23.740000000000002 -23.38)">
      <polyline id="rightUpper" points="-26.86,-14.64 -26.79,-14.8 -26.71,-14.95 -26.61,-15.09 -26.5,-15.22 -26.38,-15.35 -26.24,-15.47 -26.08,-15.58 -25.9,-15.69 -25.71,-15.79 -25.49,-15.89 -25.26,-15.99 -25,-16.08 -24.72,-16.16 -24.42,-16.24 -24.1,-16.32 -23.76,-16.39 -23.4,-16.46 -23.01,-16.53 -22.6,-16.6 -22.17,-16.66 -21.71,-16.71 -21.24,-16.77 -20.74,-16.82 -20.23,-16.87 -19.69,-16.92 -19.2,-16.97 -18.68,-17.01 -18.12,-17.05 -17.52,-17.09 -16.88,-17.13 -16.21,-17.17 -15.5,-17.21 -14.76,-17.25 -13.99,-17.28 -13.19,-17.31 -12.37,-17.35 -11.52,-17.38 -10.65,-17.4 -9.76,-17.43 -8.85,-17.46 -7.93,-17.48 -7,-17.5 -6.06,-17.52 -5.11,-17.53 -4.16,-17.55 -3.2,-17.56 -2.24,-17.56 -1.29,-17.57 -0.34,-17.57 0.6,-17.57 1.53,-17.57 2.45,-17.56 3.36,-17.54 4.26,-17.53 5.13,-17.51 5.99,-17.49 6.83,-17.46 7.65,-17.43 8.45,-17.39 9.23,-17.35 9.98,-17.3 10.7,-17.25 11.41,-17.2 12.08,-17.14 12.73,-17.08 13.36,-17.01 13.96,-16.93 14.53,-16.86 15.08,-16.77 15.6,-16.69 16.1,-16.6 16.57,-16.5 17.02,-16.4 17.45,-16.29 17.86,-16.18 18.24,-16.07 18.61,-15.95 18.95,-15.83 19.28,-15.7 19.58,-15.57 19.87,-15.43 20.13,-15.28 20.38,-15.14 20.61,-14.98 20.82,-14.82 21.01,-14.66 21.19,-14.49 21.35,-14.32 21.49,-14.14 21.62,-13.96 21.73,-13.78 21.83,-13.58 21.92,-13.39 21.99,-13.19 22.04,-12.99 22.09,-12.78 22.12,-12.56 22.14,-12.35 22.15,-12.13" fill="none" stroke="black" stroke-width="1.6666666666666665" stroke-linejoin="round" filter="url(#fuzzy)" />
      <polyline id="rightLower" points="-26.14,-7.78 -26.01,-7.35 -25.87,-6.85 -25.7,-6.29 -25.51,-5.66 -25.31,-4.99 -25.09,-4.26 -24.85,-3.5 -24.59,-2.71 -24.31,-1.89 -24.02,-1.05 -23.71,-0.19 -23.39,0.68 -23.05,1.56 -22.69,2.43 -22.31,3.31 -21.93,4.18 -21.52,5.04 -21.11,5.88 -20.68,6.71 -20.23,7.52 -19.77,8.31 -19.3,9.07 -18.82,9.81 -18.33,10.51 -17.82,11.19 -17.28,12.3 -16.73,13.35 -16.16,14.33 -15.57,15.24 -14.96,16.08 -14.33,16.84 -13.7,17.52 -13.04,18.12 -12.37,18.65 -11.69,19.1 -11,19.47 -10.29,19.77 -9.58,19.99 -8.86,20.14 -8.12,20.21 -7.39,20.22 -6.64,20.16 -5.89,20.03 -5.14,19.84 -4.38,19.59 -3.63,19.29 -2.87,18.93 -2.11,18.52 -1.35,18.07 -0.6,17.57 0.15,17.03 0.9,16.46 1.64,15.85 2.38,15.21 3.11,14.54 3.83,13.85 4.54,13.14 5.25,12.41 5.94,11.67 6.63,10.92 7.3,10.15 7.96,9.38 8.62,8.61 9.26,7.84 9.88,7.07 10.5,6.3 11.1,5.54 11.69,4.78 12.26,4.03 12.82,3.29 13.37,2.57 13.91,1.85 14.43,1.15 14.94,0.46 15.43,-0.21 15.92,-0.88 16.39,-1.53 16.85,-2.16 17.3,-2.79 17.74,-3.4 18.17,-4 18.59,-4.58 18.99,-5.15 19.39,-5.71 19.77,-6.25 20.15,-6.78 20.51,-7.29 20.86,-7.79 21.21,-8.27 21.54,-8.74 21.86,-9.2 22.17,-9.64 22.48,-10.07 22.77,-10.48 23.05,-10.89 23.33,-11.28 23.59,-11.65 23.85,-12.02 24.1,-12.37" fill="none" stroke="black" stroke-width="2.2222222222222223" stroke-linejoin="round" filter="url(#fuzzy)" />
      <circle r="3.748" cx="6.214579404268656" cy="1.851754010547273" stroke="black" fill="none" stroke-width="1.0" filter="url(#fuzzy)" clip-path="url(#rightEyeClipPath)" /><circle r="3.792" cx="10.574579404268658" cy="0.7117540105472733" stroke="black" fill="none" stroke-width="1.0" filter="url(#fuzzy)" clip-path="url(#rightEyeClipPath)" /><circle r="4.058" cx="6.914579404268656" cy="0.2217540105472735" stroke="black" fill="none" stroke-width="1.0" filter="url(#fuzzy)" clip-path="url(#rightEyeClipPath)" /><circle r="3.85" cx="6.5445794042686565" cy="1.5417540105472733" stroke="black" fill="none" stroke-width="1.0" filter="url(#fuzzy)" clip-path="url(#rightEyeClipPath)" /><circle r="4.306" cx="9.544579404268656" cy="2.976754010547273" stroke="black" fill="none" stroke-width="1.0" filter="url(#fuzzy)" clip-path="url(#rightEyeClipPath)" /><circle r="3.372" cx="7.369579404268656" cy="3.3217540105472736" stroke="black" fill="none" stroke-width="1.0" filter="url(#fuzzy)" clip-path="url(#rightEyeClipPath)" /><circle r="4.95" cx="7.194579404268657" cy="2.681754010547273" stroke="black" fill="none" stroke-width="1.0" filter="url(#fuzzy)" clip-path="url(#rightEyeClipPath)" /><circle r="4.518" cx="7.944579404268655" cy="2.8717540105472734" stroke="black" fill="none" stroke-width="1.0" filter="url(#fuzzy)" clip-path="url(#rightEyeClipPath)" /><circle r="3.5" cx="9.149579404268657" cy="1.9867540105472736" stroke="black" fill="none" stroke-width="1.0" filter="url(#fuzzy)" clip-path="url(#rightEyeClipPath)" /><circle r="4.164" cx="8.209579404268656" cy="3.5017540105472733" stroke="black" fill="none" stroke-width="1.0" filter="url(#fuzzy)" clip-path="url(#rightEyeClipPath)" />
      </g>
    <g transform="translate(-22.590000000000003 -24.49)">
      <polyline id="leftUpper" points="26.1,-9.89 26.02,-10.01 25.92,-10.12 25.8,-10.23 25.67,-10.33 25.52,-10.43 25.35,-10.53 25.15,-10.62 24.94,-10.7 24.71,-10.78 24.45,-10.86 24.18,-10.94 23.88,-11.01 23.56,-11.08 23.22,-11.15 22.85,-11.21 22.47,-11.27 22.06,-11.33 21.63,-11.39 21.19,-11.45 20.72,-11.5 20.23,-11.55 19.72,-11.6 19.19,-11.65 18.64,-11.7 18.07,-11.75 17.53,-11.79 16.95,-11.83 16.34,-11.87 15.7,-11.91 15.02,-11.96 14.32,-12 13.58,-12.04 12.82,-12.08 12.04,-12.12 11.23,-12.15 10.4,-12.19 9.55,-12.23 8.68,-12.26 7.8,-12.3 6.91,-12.33 6,-12.36 5.09,-12.39 4.18,-12.41 3.26,-12.44 2.34,-12.46 1.42,-12.48 0.5,-12.5 -0.41,-12.51 -1.32,-12.52 -2.21,-12.53 -3.09,-12.54 -3.96,-12.54 -4.82,-12.54 -5.66,-12.53 -6.48,-12.53 -7.28,-12.51 -8.07,-12.5 -8.83,-12.48 -9.57,-12.45 -10.28,-12.43 -10.97,-12.4 -11.64,-12.36 -12.28,-12.32 -12.9,-12.28 -13.49,-12.23 -14.06,-12.18 -14.6,-12.12 -15.11,-12.06 -15.6,-12 -16.06,-11.93 -16.5,-11.86 -16.92,-11.79 -17.31,-11.71 -17.68,-11.63 -18.03,-11.54 -18.36,-11.46 -18.67,-11.36 -18.96,-11.27 -19.22,-11.17 -19.47,-11.07 -19.7,-10.96 -19.91,-10.85 -20.1,-10.74 -20.27,-10.62 -20.42,-10.5 -20.56,-10.38 -20.68,-10.25 -20.78,-10.12 -20.86,-9.99 -20.93,-9.85 -20.98,-9.71 -21.02,-9.57 -21.05,-9.42 -21.06,-9.27 -21.05,-9.12 -21.04,-8.97 -21.01,-8.81 -20.96,-8.65 -20.91,-8.49" fill="none" stroke="black" stroke-width="2.2222222222222223" stroke-linejoin="round" filter="url(#fuzzy)" />
      <polyline id="leftLower" points="25.5,-5.35 25.37,-5.06 25.21,-4.72 25.03,-4.33 24.83,-3.91 24.61,-3.44 24.37,-2.95 24.1,-2.43 23.83,-1.88 23.53,-1.32 23.22,-0.74 22.89,-0.15 22.55,0.44 22.2,1.05 21.83,1.65 21.46,2.26 21.07,2.86 20.67,3.45 20.26,4.03 19.84,4.61 19.41,5.17 18.97,5.72 18.53,6.25 18.08,6.76 17.62,7.26 17.15,7.73 16.61,8.5 16.06,9.23 15.51,9.91 14.95,10.54 14.38,11.12 13.81,11.66 13.23,12.14 12.65,12.57 12.06,12.95 11.47,13.28 10.87,13.55 10.27,13.78 9.67,13.95 9.06,14.07 8.45,14.14 7.84,14.17 7.22,14.15 6.61,14.08 5.98,13.97 5.36,13.82 4.73,13.64 4.1,13.41 3.47,13.15 2.84,12.86 2.21,12.53 1.58,12.18 0.94,11.8 0.31,11.4 -0.32,10.97 -0.96,10.53 -1.59,10.07 -2.22,9.59 -2.85,9.1 -3.47,8.6 -4.09,8.09 -4.71,7.57 -5.33,7.04 -5.94,6.52 -6.55,5.99 -7.15,5.46 -7.74,4.93 -8.33,4.4 -8.92,3.88 -9.49,3.36 -10.06,2.85 -10.62,2.34 -11.17,1.85 -11.71,1.36 -12.25,0.87 -12.77,0.4 -13.28,-0.06 -13.79,-0.52 -14.29,-0.97 -14.78,-1.41 -15.27,-1.84 -15.75,-2.27 -16.22,-2.68 -16.68,-3.08 -17.13,-3.48 -17.58,-3.87 -18.01,-4.24 -18.44,-4.61 -18.86,-4.97 -19.27,-5.32 -19.67,-5.66 -20.06,-5.98 -20.44,-6.3 -20.81,-6.61 -21.17,-6.92 -21.52,-7.21 -21.87,-7.49 -22.2,-7.77 -22.53,-8.03 -22.84,-8.29" fill="none" stroke="black" stroke-width="2.2222222222222223" stroke-linejoin="round" filter="url(#fuzzy)" />
      <circle r="3.68" cx="4.080093409824018" cy="1.0357582538668941" stroke="black" fill="none" stroke-width="1.0" filter="url(#fuzzy)" clip-path="url(#leftEyeClipPath)" /><circle r="3.51" cx="5.465093409824018" cy="0.24075825386689376" stroke="black" fill="none" stroke-width="1.0" filter="url(#fuzzy)" clip-path="url(#leftEyeClipPath)" /><circle r="4.36" cx="8.050093409824019" cy="1.0557582538668941" stroke="black" fill="none" stroke-width="1.0" filter="url(#fuzzy)" clip-path="url(#leftEyeClipPath)" /><circle r="4.704" cx="8.530093409824019" cy="0.11575825386689376" stroke="black" fill="none" stroke-width="1.0" filter="url(#fuzzy)" clip-path="url(#leftEyeClipPath)" /><circle r="4.502" cx="6.9350934098240185" cy="0.6157582538668942" stroke="black" fill="none" stroke-width="1.0" filter="url(#fuzzy)" clip-path="url(#leftEyeClipPath)" /><circle r="4.672" cx="3.880093409824018" cy="1.6757582538668938" stroke="black" fill="none" stroke-width="1.0" filter="url(#fuzzy)" clip-path="url(#leftEyeClipPath)" /><circle r="3.324" cx="6.690093409824019" cy="-1.814241746133106" stroke="black" fill="none" stroke-width="1.0" filter="url(#fuzzy)" clip-path="url(#leftEyeClipPath)" /><circle r="4.692" cx="7.685093409824017" cy="-1.129241746133106" stroke="black" fill="none" stroke-width="1.0" filter="url(#fuzzy)" clip-path="url(#leftEyeClipPath)" /><circle r="3.856" cx="8.310093409824017" cy="-1.6092417461331059" stroke="black" fill="none" stroke-width="1.0" filter="url(#fuzzy)" clip-path="url(#leftEyeClipPath)" /><circle r="4.006" cx="5.870093409824019" cy="0.7757582538668939" stroke="black" fill="none" stroke-width="1.0" filter="url(#fuzzy)" clip-path="url(#leftEyeClipPath)" />
    </g>
    <g id="hairs">
      <polyline points="0.39,-85.67 1.09,-85.5 1.9,-85.4 2.73,-85.32 3.6,-85.22 4.49,-85.12 5.34,-85.01 6.07,-84.91 6.63,-84.82 6.97,-84.75 7.1,-84.7 7.01,-84.66 6.68,-84.63 6.09,-84.63 5.14,-84.68 3.77,-84.8 1.94,-84.98 -0.23,-85.19" fill="none" stroke="rgb(80, 68, 68)" stroke-width="2" stroke-linejoin="round" filter="url(#fuzzy)" /><polyline points="-19.74,-80.16 -19.25,-80.32 -18.25,-80.64 -17,-80.94 -15.5,-81.22 -13.76,-81.5 -11.84,-81.78 -9.81,-82.06 -7.71,-82.32 -5.59,-82.55 -3.45,-82.77 -1.3,-82.95 0.84,-83.11 2.92,-83.23 4.91,-83.32 6.75,-83.4 8.39,-83.51 9.78,-83.69" fill="none" stroke="rgb(80, 68, 68)" stroke-width="2" stroke-linejoin="round" filter="url(#fuzzy)" /><polyline points="35.18,-66.35 35.15,-66.43 35.39,-65.82 35.31,-65.22 34.69,-64.91 33.49,-64.92 31.76,-65.22 29.49,-65.82 26.62,-66.78 23.1,-68.13 18.91,-69.84 14.04,-71.88 8.48,-74.17 2.13,-76.71 -5.14,-79.59" fill="none" stroke="rgb(80, 68, 68)" stroke-width="2" stroke-linejoin="round" filter="url(#fuzzy)" /><polyline points="17.79,-81.17 19.03,-80.36 19.51,-80.03 19.82,-79.76 20.07,-79.48 20.21,-79.2 20.12,-78.97 19.72,-78.83 18.96,-78.79 17.81,-78.86 16.25,-79.04 14.26,-79.36 11.79,-79.82 8.82,-80.44 5.38,-81.24 1.54,-82.2 -2.73,-83.32" fill="none" stroke="rgb(80, 68, 68)" stroke-width="2" stroke-linejoin="round" filter="url(#fuzzy)" /><polyline points="24.24,-77.26 24.97,-76.58 25.9,-75.65 26.97,-74.56 28.12,-73.35 29.31,-72.05 30.52,-70.67 31.76,-69.25 32.98,-67.81 34.16,-66.38 35.3,-64.98 36.39,-63.62 37.42,-62.33 38.37,-61.15 39.19,-60.19 39.81,-59.52 40.25,-59.12 40.55,-58.89 40.72,-58.75" fill="none" stroke="rgb(80, 68, 68)" stroke-width="2" stroke-linejoin="round" filter="url(#fuzzy)" /><polyline points="-13.02,-83.09 -12.27,-83.33 -11.22,-83.7 -10.32,-84.01 -9.55,-84.24 -8.88,-84.4 -8.33,-84.52 -7.88,-84.6 -7.53,-84.63 -7.3,-84.62 -7.17,-84.55 -7.17,-84.41 -7.35,-84.22 -7.73,-83.95 -8.35,-83.6 -9.25,-83.14 -10.46,-82.55 -12.04,-81.82 -14.02,-80.95 -16.34,-79.97 -18.88,-78.98 -21.47,-78.05" fill="none" stroke="rgb(80, 68, 68)" stroke-width="2" stroke-linejoin="round" filter="url(#fuzzy)" /><polyline points="0.39,-85.67 1.08,-85.5 1.87,-85.41 2.65,-85.33 3.44,-85.25 4.2,-85.17 4.87,-85.08 5.37,-85 5.65,-84.94 5.65,-84.91 5.33,-84.9 4.68,-84.89 3.7,-84.89 2.36,-84.9 0.61,-84.94 -1.69,-85.04" fill="none" stroke="rgb(80, 68, 68)" stroke-width="2" stroke-linejoin="round" filter="url(#fuzzy)" /><polyline points="-23.49,-77.72 -21.77,-78.61 -19.89,-79.11 -17.92,-79.24 -15.77,-79.05 -13.34,-78.62 -10.6,-78.02 -7.53,-77.28 -4.17,-76.45 -0.58,-75.52 3.22,-74.48 7.21,-73.3 11.37,-71.98 15.7,-70.53 20.12,-69.02 24.55,-67.52 28.94,-66.1 33.4,-64.64" fill="none" stroke="rgb(80, 68, 68)" stroke-width="2" stroke-linejoin="round" filter="url(#fuzzy)" /><polyline points="19.6,-80 20.15,-79.69 20.92,-79.19 21.66,-78.66 22.24,-78.15 22.63,-77.68 22.81,-77.26 22.8,-76.87 22.58,-76.53 22.16,-76.24 21.52,-76 20.63,-75.82 19.47,-75.71 18.04,-75.66 16.3,-75.68 14.25,-75.78 11.89,-75.94 9.21,-76.17 6.18,-76.46 2.8,-76.84 -0.96,-77.32 -5.09,-77.93 -9.51,-78.66 -14.26,-79.42" fill="none" stroke="rgb(80, 68, 68)" stroke-width="2" stroke-linejoin="round" filter="url(#fuzzy)" /><polyline points="8.96,-84.3 10.48,-83.93 11.48,-83.57 12.2,-83.26 12.69,-83 12.96,-82.78 13.03,-82.58 12.92,-82.38 12.63,-82.16 12.18,-81.91 11.54,-81.64 10.67,-81.35 9.52,-81.07 8.08,-80.8 6.32,-80.55 4.23,-80.3 1.81,-80.07 -0.98,-79.87 -4.13,-79.71 -7.69,-79.58 -11.7,-79.45 -16.3,-79.27" fill="none" stroke="rgb(80, 68, 68)" stroke-width="2" stroke-linejoin="round" filter="url(#fuzzy)" /><polyline points="29.05,-73.01 30.22,-72.02 30.92,-71.33 31.27,-70.9 31.47,-70.58 31.54,-70.33 31.44,-70.2 31.08,-70.27 30.4,-70.6 29.42,-71.18 28.15,-71.97 26.59,-72.99 24.65,-74.29 22.27,-75.94 19.38,-77.99 15.91,-80.48" fill="none" stroke="rgb(80, 68, 68)" stroke-width="2" stroke-linejoin="round" filter="url(#fuzzy)" /><polyline points="-29.85,-72.67 -29.02,-73.19 -27.93,-73.93 -26.62,-74.81 -25.25,-75.73 -23.92,-76.59 -22.66,-77.38 -21.44,-78.11 -20.21,-78.83 -18.92,-79.54 -17.61,-80.27 -16.32,-80.99 -15.1,-81.65 -14.01,-82.23 -13.08,-82.7 -12.32,-83.08 -11.75,-83.38 -11.36,-83.6 -11.23,-83.71 -11.51,-83.61" fill="none" stroke="rgb(80, 68, 68)" stroke-width="2" stroke-linejoin="round" filter="url(#fuzzy)" /><polyline points="-29.51,-72.87 -29.4,-72.94 -28.72,-73.4 -27.67,-74.12 -26.44,-75 -25.16,-75.91 -23.96,-76.78 -22.87,-77.56 -21.87,-78.25 -20.94,-78.89 -20.02,-79.5 -19.15,-80.07 -18.38,-80.58 -17.78,-80.98 -17.44,-81.23 -17.38,-81.33 -17.56,-81.28 -17.92,-81.12 -18.51,-80.8" fill="none" stroke="rgb(80, 68, 68)" stroke-width="2" stroke-linejoin="round" filter="url(#fuzzy)" /><polyline points="-9.41,-84.39 -8.62,-84.47 -7.82,-84.63 -7.12,-84.8 -6.51,-84.94 -5.94,-85.04 -5.4,-85.1 -4.97,-85.13 -4.73,-85.12 -4.79,-85.05 -5.19,-84.92 -5.96,-84.69 -7.16,-84.35 -8.84,-83.93 -10.84,-83.56" fill="none" stroke="rgb(80, 68, 68)" stroke-width="2" stroke-linejoin="round" filter="url(#fuzzy)" /><polyline points="-29.85,-72.67 -29.03,-73.19 -27.99,-73.92 -26.75,-74.8 -25.48,-75.69 -24.28,-76.53 -23.17,-77.29 -22.1,-77.99 -21.03,-78.66 -19.9,-79.33 -18.74,-80.01 -17.6,-80.67 -16.57,-81.26 -15.69,-81.76 -15.01,-82.15 -14.52,-82.43 -14.22,-82.6 -14.12,-82.69 -14.23,-82.68 -14.62,-82.54 -15.29,-82.23" fill="none" stroke="rgb(80, 68, 68)" stroke-width="2" stroke-linejoin="round" filter="url(#fuzzy)" /><polyline points="-3.44,-85.3 -2.55,-85.28 -1.42,-85.08 0.07,-84.66 1.86,-84.04 3.84,-83.25 5.95,-82.31 8.19,-81.24 10.56,-80.06 13.03,-78.8 15.59,-77.5 18.17,-76.17 20.72,-74.86 23.22,-73.57 25.6,-72.35 27.87,-71.16 30.12,-69.88 32.58,-68.26" fill="none" stroke="rgb(80, 68, 68)" stroke-width="2" stroke-linejoin="round" filter="url(#fuzzy)" /><polyline points="41.5,-57.57 42.33,-56.13 43.12,-54.64 43.8,-53.29 44.37,-52.13 44.85,-51.16 45.27,-50.31 45.65,-49.51 46,-48.76 46.3,-48.07 46.51,-47.51 46.62,-47.11 46.63,-46.91 46.54,-46.92 46.32,-47.16 45.97,-47.67 45.47,-48.48 44.8,-49.64 43.94,-51.18 42.88,-53.11 41.64,-55.41 40.22,-58.09 38.49,-61.34" fill="none" stroke="rgb(80, 68, 68)" stroke-width="2" stroke-linejoin="round" filter="url(#fuzzy)" /><polyline points="19.94,-79.79 19.8,-79.86 19.96,-79.66 20.19,-79.31 20.28,-78.92 20.1,-78.56 19.54,-78.26 18.57,-78.03 17.17,-77.87 15.32,-77.79 13,-77.79 10.18,-77.88 6.81,-78.06 2.87,-78.33 -1.67,-78.71 -6.78,-79.23 -12.37,-79.99" fill="none" stroke="rgb(80, 68, 68)" stroke-width="2" stroke-linejoin="round" filter="url(#fuzzy)" /><polyline points="37.8,-63.32 38.1,-62.84 38.41,-62.27 38.79,-61.58 39.1,-60.97 39.21,-60.58 39.09,-60.44 38.78,-60.49 38.29,-60.68 37.62,-60.99 36.74,-61.46 35.61,-62.17 34.21,-63.18 32.5,-64.52 30.5,-66.22 28.19,-68.23 25.57,-70.56 22.59,-73.21 19.17,-76.26 15.28,-79.82" fill="none" stroke="rgb(80, 68, 68)" stroke-width="2" stroke-linejoin="round" filter="url(#fuzzy)" /><polyline points="-29.85,-72.67 -28.94,-73.19 -27.61,-73.93 -25.9,-74.84 -23.98,-75.8 -21.98,-76.73 -19.95,-77.61 -17.85,-78.43 -15.65,-79.25 -13.3,-80.09 -10.85,-80.97 -8.37,-81.86 -6,-82.72 -3.82,-83.52 -1.82,-84.22 0.11,-84.83" fill="none" stroke="rgb(80, 68, 68)" stroke-width="2" stroke-linejoin="round" filter="url(#fuzzy)" /><polyline points="8.68,-84.56 8.93,-84.48 9.43,-84.26 10.03,-83.97 10.52,-83.66 10.78,-83.38 10.72,-83.14 10.34,-82.94 9.62,-82.75 8.56,-82.57 7.18,-82.38 5.47,-82.16 3.42,-81.91 0.95,-81.65 -2,-81.39 -5.49,-81.16 -9.46,-80.99 -13.76,-80.93" fill="none" stroke="rgb(80, 68, 68)" stroke-width="2" stroke-linejoin="round" filter="url(#fuzzy)" /><polyline points="-25.67,-75.85 -24.84,-76.36 -23.67,-76.83 -22.17,-77.22 -20.24,-77.62 -17.85,-78.1 -15.06,-78.66 -11.97,-79.25 -8.72,-79.8 -5.41,-80.28 -2.08,-80.71 1.23,-81.12 4.59,-81.52 8.07,-81.86 11.58,-82.14" fill="none" stroke="rgb(80, 68, 68)" stroke-width="2" stroke-linejoin="round" filter="url(#fuzzy)" /><polyline points="-5.95,-85.24 -5.83,-85.07 -4.63,-85.02 -3.14,-84.93 -1.59,-84.79 0.01,-84.58 1.68,-84.31 3.42,-83.99 5.17,-83.62 6.91,-83.23 8.6,-82.84 10.24,-82.46 11.79,-82.1 13.22,-81.78 14.51,-81.51 15.63,-81.28 16.59,-81.07 17.42,-80.88 18.02,-80.77" fill="none" stroke="rgb(80, 68, 68)" stroke-width="2" stroke-linejoin="round" filter="url(#fuzzy)" /><polyline points="41.34,-57.82 40.94,-58.3 40.83,-58.1 40.61,-57.72 40.19,-57.28 39.48,-56.92 38.41,-56.76 36.92,-56.9 34.98,-57.35 32.59,-58.1 29.75,-59.11 26.46,-60.34 22.7,-61.8 18.43,-63.52 13.61,-65.53 8.24,-67.85 2.31,-70.47 -4.17,-73.45 -11.08,-76.94" fill="none" stroke="rgb(80, 68, 68)" stroke-width="2" stroke-linejoin="round" filter="url(#fuzzy)" /><polyline points="-29.51,-72.87 -29.34,-72.9 -28.5,-73.27 -27.2,-73.86 -25.59,-74.56 -23.84,-75.26 -22.02,-75.9 -20.16,-76.47 -18.24,-76.99 -16.22,-77.48 -14.06,-77.99 -11.79,-78.52 -9.45,-79.05 -7.08,-79.57 -4.74,-80.04 -2.45,-80.48 -0.22,-80.88 1.95,-81.26 4.07,-81.63 6.16,-81.97 8.21,-82.25 10.16,-82.48 12.02,-82.63" fill="none" stroke="rgb(80, 68, 68)" stroke-width="2" stroke-linejoin="round" filter="url(#fuzzy)" /><polyline points="-10.32,-83.96 -10.04,-84.15 -9.56,-84.23 -9.09,-84.23 -8.74,-84.17 -8.56,-84.01 -8.54,-83.73 -8.67,-83.33 -8.93,-82.79 -9.36,-82.12 -9.99,-81.31 -10.86,-80.36 -11.99,-79.23 -13.42,-77.92 -15.19,-76.38 -17.32,-74.59 -19.85,-72.55 -22.75,-70.26 -25.99,-67.77 -29.55,-65.1 -33.48,-62.23 -37.84,-59.03" fill="none" stroke="rgb(80, 68, 68)" stroke-width="2" stroke-linejoin="round" filter="url(#fuzzy)" /><polyline points="41.67,-57.5 41.63,-57.21 41.52,-56.58 41.04,-56.03 40.05,-55.82 38.45,-56.06 36.21,-56.79 33.33,-57.98 29.81,-59.55 25.64,-61.46 20.76,-63.71 15.14,-66.41 8.73,-69.62 1.51,-73.35 -6.57,-77.5" fill="none" stroke="rgb(80, 68, 68)" stroke-width="2" stroke-linejoin="round" filter="url(#fuzzy)" /><polyline points="38.3,-62.62 38.32,-62.32 38.46,-61.59 38.3,-60.99 37.66,-60.74 36.52,-60.82 34.91,-61.15 32.85,-61.63 30.35,-62.25 27.36,-63.02 23.84,-64.04 19.71,-65.37 14.92,-67.07 9.46,-69.14 3.34,-71.55 -3.41,-74.27 -10.65,-77.39" fill="none" stroke="rgb(80, 68, 68)" stroke-width="2" stroke-linejoin="round" filter="url(#fuzzy)" /><polyline points="27.17,-74.76 27.45,-74.55 28.15,-73.94 28.93,-73.22 29.68,-72.51 30.37,-71.85 30.96,-71.27 31.42,-70.8 31.75,-70.44 31.93,-70.2 31.94,-70.13 31.73,-70.27 31.24,-70.67 30.47,-71.37 29.4,-72.35 28.03,-73.6 26.33,-75.2" fill="none" stroke="rgb(80, 68, 68)" stroke-width="2" stroke-linejoin="round" filter="url(#fuzzy)" /><polyline points="30.44,-71.95 31.28,-71.05 31.66,-70.58 32.04,-70.11 32.45,-69.59 32.79,-69.1 32.97,-68.74 32.98,-68.52 32.82,-68.45 32.48,-68.5 31.94,-68.69 31.19,-69.04 30.18,-69.58 28.9,-70.35 27.34,-71.37 25.44,-72.68 23.15,-74.33 20.45,-76.33 17.27,-78.66 13.56,-81.32" fill="none" stroke="rgb(80, 68, 68)" stroke-width="2" stroke-linejoin="round" filter="url(#fuzzy)" /><polyline points="-4.8,-85.25 -3.71,-85.3 -2.95,-85.35 -2.35,-85.36 -1.82,-85.29 -1.4,-85.14 -1.14,-84.91 -1.07,-84.61 -1.2,-84.24 -1.55,-83.78 -2.13,-83.23 -2.96,-82.57 -4.08,-81.82 -5.5,-80.98 -7.22,-80.05 -9.26,-79.02 -11.62,-77.87 -14.36,-76.54 -17.54,-74.97 -21.25,-73.13 -25.47,-71.08 -29.99,-69.06" fill="none" stroke="rgb(80, 68, 68)" stroke-width="2" stroke-linejoin="round" filter="url(#fuzzy)" /><polyline points="-1.54,-85.61 -0.16,-85.57 0.67,-85.44 1.2,-85.27 1.55,-85.06 1.74,-84.79 1.79,-84.44 1.63,-84.01 1.22,-83.49 0.52,-82.87 -0.48,-82.17 -1.79,-81.37 -3.39,-80.46 -5.31,-79.41 -7.6,-78.21 -10.32,-76.82 -13.54,-75.24 -17.23,-73.49 -21.36,-71.64 -25.88,-69.69 -30.88,-67.54" fill="none" stroke="rgb(80, 68, 68)" stroke-width="2" stroke-linejoin="round" filter="url(#fuzzy)" /><polyline points="-4.8,-85.25 -3.6,-85.25 -2.48,-85.16 -1.27,-84.96 0.1,-84.64 1.62,-84.2 3.24,-83.66 4.93,-83.03 6.67,-82.33 8.48,-81.56 10.33,-80.76 12.22,-79.93 14.1,-79.09 15.96,-78.26 17.77,-77.44 19.51,-76.64 21.21,-75.83 22.85,-75.03 24.43,-74.25 25.91,-73.52 27.24,-72.9 28.37,-72.4 29.38,-71.96 30.45,-71.4" fill="none" stroke="rgb(80, 68, 68)" stroke-width="2" stroke-linejoin="round" filter="url(#fuzzy)" /><polyline points="6.91,-84.78 7.96,-84.59 8.3,-84.29 8.34,-83.83 8.13,-83.18 7.56,-82.37 6.56,-81.43 5.05,-80.36 3.02,-79.17 0.47,-77.85 -2.6,-76.38 -6.17,-74.74 -10.25,-72.9 -14.9,-70.78 -20.23,-68.31 -26.36,-65.47 -33.27,-62.39" fill="none" stroke="rgb(80, 68, 68)" stroke-width="2" stroke-linejoin="round" filter="url(#fuzzy)" /><polyline points="-23.51,-77.68 -22.84,-78.01 -21.41,-78.55 -19.75,-79 -18.02,-79.23 -16.23,-79.28 -14.32,-79.18 -12.27,-78.99 -10.04,-78.72 -7.66,-78.38 -5.15,-77.98 -2.52,-77.5 0.2,-76.96 2.98,-76.36 5.8,-75.74 8.64,-75.1 11.49,-74.45 14.3,-73.81 17.08,-73.16 19.82,-72.49 22.55,-71.78 25.29,-71 28.02,-70.23 30.6,-69.64" fill="none" stroke="rgb(80, 68, 68)" stroke-width="2" stroke-linejoin="round" filter="url(#fuzzy)" /><polyline points="25.24,-76.32 26.53,-75.26 27.44,-74.48 28.32,-73.65 29.22,-72.76 30.13,-71.84 31.03,-70.91 31.89,-69.99 32.71,-69.09 33.49,-68.21 34.24,-67.36 34.93,-66.57 35.53,-65.88 36.02,-65.33 36.39,-64.92 36.64,-64.66 36.75,-64.55 36.7,-64.6 36.5,-64.82 36.13,-65.22 35.58,-65.88 34.74,-66.9 33.56,-68.38" fill="none" stroke="rgb(80, 68, 68)" stroke-width="2" stroke-linejoin="round" filter="url(#fuzzy)" /><polyline points="-30.72,-71.54 -30.11,-71.98 -29.22,-72.3 -27.98,-72.52 -26.32,-72.74 -24.23,-73 -21.79,-73.27 -19.1,-73.5 -16.24,-73.67 -13.26,-73.74 -10.15,-73.73 -6.89,-73.67 -3.45,-73.59 0.18,-73.49 3.95,-73.36 7.81,-73.17 11.7,-72.92 15.56,-72.65 19.39,-72.37 23.26,-72.03 27.33,-71.49" fill="none" stroke="rgb(80, 68, 68)" stroke-width="2" stroke-linejoin="round" filter="url(#fuzzy)" /><polyline points="-18.26,-81.07 -17.44,-81.33 -16.28,-81.7 -15.01,-82.1 -13.69,-82.48 -12.32,-82.82 -10.94,-83.14 -9.54,-83.45 -8.14,-83.74 -6.77,-84.02 -5.46,-84.26 -4.25,-84.48 -3.18,-84.67 -2.26,-84.85 -1.49,-85 -0.87,-85.14 -0.37,-85.26 -0.04,-85.36 0.02,-85.46 -0.37,-85.57" fill="none" stroke="rgb(80, 68, 68)" stroke-width="2" stroke-linejoin="round" filter="url(#fuzzy)" /><polyline points="-19.74,-80.16 -19.29,-80.33 -18.41,-80.68 -17.35,-81.01 -16.1,-81.33 -14.68,-81.67 -13.13,-82.01 -11.5,-82.34 -9.83,-82.65 -8.14,-82.94 -6.46,-83.2 -4.82,-83.45 -3.25,-83.7 -1.78,-83.93 -0.44,-84.15 0.78,-84.36 1.86,-84.54 2.79,-84.69 3.56,-84.81 4.14,-84.92 4.56,-85.04" fill="none" stroke="rgb(80, 68, 68)" stroke-width="2" stroke-linejoin="round" filter="url(#fuzzy)" /><polyline points="41.67,-57.5 41.81,-57.11 42.22,-56.19 42.61,-55.2 42.84,-54.37 42.86,-53.8 42.67,-53.52 42.28,-53.46 41.69,-53.58 40.9,-53.85 39.9,-54.29 38.66,-54.93 37.17,-55.79 35.42,-56.88 33.4,-58.23 31.08,-59.86 28.42,-61.83 25.42,-64.15 22.06,-66.84 18.36,-69.88 14.36,-73.25 10.04,-76.96 5.37,-81.05" fill="none" stroke="rgb(80, 68, 68)" stroke-width="2" stroke-linejoin="round" filter="url(#fuzzy)" /><polyline points="-9.41,-84.39 -8.44,-84.33 -7.08,-84.1 -5.42,-83.66 -3.46,-83 -1.14,-82.14 1.55,-81.1 4.55,-79.89 7.8,-78.51 11.22,-76.98 14.77,-75.34 18.4,-73.63 22.08,-71.89 25.79,-70.12 29.48,-68.31 33.02,-66.66" fill="none" stroke="rgb(80, 68, 68)" stroke-width="2" stroke-linejoin="round" filter="url(#fuzzy)" /><polyline points="41.67,-57.5 41.61,-57.14 41.43,-56.3 40.83,-55.4 39.66,-54.67 37.86,-54.22 35.42,-54.09 32.34,-54.19 28.61,-54.44 24.21,-54.77 19.1,-55.17 13.26,-55.72 6.69,-56.47 -0.59,-57.46 -8.6,-58.66 -17.34,-60.1 -26.86,-61.89" fill="none" stroke="rgb(80, 68, 68)" stroke-width="2" stroke-linejoin="round" filter="url(#fuzzy)" /><polyline points="-23.86,-77.34 -23.89,-77.34 -23.16,-77.61 -21.9,-78.03 -20.3,-78.54 -18.5,-79.04 -16.62,-79.47 -14.71,-79.81 -12.75,-80.08 -10.73,-80.29 -8.64,-80.49 -6.49,-80.66 -4.31,-80.83 -2.13,-81 0.01,-81.15 2.11,-81.29 4.16,-81.41 6.14,-81.53 8.03,-81.64 9.78,-81.75 11.34,-81.91 12.75,-82.06 14.33,-82.06" fill="none" stroke="rgb(80, 68, 68)" stroke-width="2" stroke-linejoin="round" filter="url(#fuzzy)" /><polyline points="47.68,-44.86 47.78,-44.5 48.16,-43.56 48.66,-42.28 49.11,-41.05 49.46,-40.03 49.7,-39.24 49.86,-38.63 49.93,-38.2 49.92,-37.94 49.81,-37.87 49.6,-38.01 49.28,-38.37 48.86,-38.97 48.31,-39.82 47.64,-40.95 46.82,-42.39 45.83,-44.19 44.66,-46.37 43.28,-48.98 41.7,-52.03 39.97,-55.46 38.16,-59.2 36.17,-63.39" fill="none" stroke="rgb(80, 68, 68)" stroke-width="2" stroke-linejoin="round" filter="url(#fuzzy)" /><polyline points="47.69,-44.55 47.99,-43.89 48.45,-42.58 48.67,-41.56 48.6,-41.02 48.28,-40.89 47.74,-41.09 46.98,-41.58 45.97,-42.37 44.7,-43.5 43.15,-45.01 41.31,-46.92 39.2,-49.22 36.81,-51.9 34.13,-54.96 31.13,-58.46 27.75,-62.45 23.95,-66.99 19.66,-72.11 14.77,-77.85" fill="none" stroke="rgb(80, 68, 68)" stroke-width="2" stroke-linejoin="round" filter="url(#fuzzy)" /><polyline points="25.24,-76.32 26.47,-75.33 27.18,-74.73 27.73,-74.21 28.17,-73.73 28.47,-73.31 28.6,-72.96 28.55,-72.72 28.3,-72.58 27.85,-72.53 27.17,-72.57 26.26,-72.73 25.1,-73.03 23.66,-73.47 21.93,-74.07 19.91,-74.82 17.57,-75.72 14.87,-76.78 11.79,-78.03 8.33,-79.49 4.51,-81.14 0.22,-83.02" fill="none" stroke="rgb(80, 68, 68)" stroke-width="2" stroke-linejoin="round" filter="url(#fuzzy)" /><polyline points="8.68,-84.56 9.02,-84.46 9.81,-84.16 10.88,-83.75 12.03,-83.32 13.14,-82.89 14.14,-82.51 15.02,-82.17 15.78,-81.87 16.43,-81.6 16.99,-81.37 17.45,-81.16 17.8,-81 17.98,-80.91 17.97,-80.91 17.74,-80.99 17.32,-81.17 16.69,-81.44 15.8,-81.81 14.59,-82.33" fill="none" stroke="rgb(80, 68, 68)" stroke-width="2" stroke-linejoin="round" filter="url(#fuzzy)" /><polyline points="42.36,-56.28 43.07,-54.68 43.46,-53.59 43.54,-52.86 43.32,-52.49 42.83,-52.37 42.11,-52.41 41.15,-52.59 39.9,-52.93 38.34,-53.47 36.45,-54.25 34.21,-55.29 31.6,-56.59 28.62,-58.19 25.23,-60.14 21.44,-62.47 17.27,-65.18 12.69,-68.24 7.69,-71.65 2.2,-75.42 -3.77,-79.59" fill="none" stroke="rgb(80, 68, 68)" stroke-width="2" stroke-linejoin="round" filter="url(#fuzzy)" /><polyline points="19.6,-80 20.26,-79.59 21.4,-78.78 22.75,-77.76 24.19,-76.6 25.64,-75.36 27.07,-74.09 28.45,-72.83 29.76,-71.62 30.98,-70.5 32.06,-69.52 32.93,-68.74 33.58,-68.17 34.07,-67.69 34.64,-67.05" fill="none" stroke="rgb(80, 68, 68)" stroke-width="2" stroke-linejoin="round" filter="url(#fuzzy)" /><polyline points="19.6,-80 20.16,-79.7 20.99,-79.2 21.82,-78.68 22.53,-78.21 23.05,-77.82 23.35,-77.52 23.43,-77.32 23.25,-77.24 22.79,-77.32 22,-77.56 20.86,-78 19.37,-78.62 17.51,-79.44 15.24,-80.46 12.5,-81.72 9.21,-83.24" fill="none" stroke="rgb(80, 68, 68)" stroke-width="2" stroke-linejoin="round" filter="url(#fuzzy)" /><polyline points="14.32,-82.82 15.62,-82.14 16.21,-81.84 16.9,-81.5 17.71,-81.07 18.49,-80.64 19.18,-80.24 19.76,-79.88 20.25,-79.56 20.64,-79.26 20.89,-79.02 20.97,-78.84 20.84,-78.74 20.49,-78.74 19.91,-78.83 19.09,-79.03 18.02,-79.34 16.67,-79.77 15.01,-80.33 13.02,-81.03 10.67,-81.89 8,-82.92 5.11,-84.09" fill="none" stroke="rgb(80, 68, 68)" stroke-width="2" stroke-linejoin="round" filter="url(#fuzzy)" /><polyline points="-25.14,-76.27 -24.46,-76.9 -24.16,-77.18 -23.83,-77.39 -23.38,-77.62 -22.9,-77.82 -22.52,-77.9 -22.34,-77.79 -22.43,-77.43 -22.81,-76.8 -23.48,-75.88 -24.42,-74.66 -25.64,-73.17 -27.14,-71.4 -28.94,-69.36 -31.08,-67.02 -33.53,-64.38 -36.3,-61.49 -39.38,-58.39" fill="none" stroke="rgb(80, 68, 68)" stroke-width="2" stroke-linejoin="round" filter="url(#fuzzy)" /><polyline points="32.03,-70.32 32.72,-69.26 32.92,-68.33 32.61,-67.5 31.81,-66.79 30.56,-66.08 28.91,-65.3 26.83,-64.44 24.25,-63.54 21.11,-62.62 17.39,-61.69 13.06,-60.76 8.11,-59.86 2.55,-59.01 -3.6,-58.22 -10.33,-57.45 -17.61,-56.67 -25.43,-55.94 -33.82,-55.37" fill="none" stroke="rgb(80, 68, 68)" stroke-width="2" stroke-linejoin="round" filter="url(#fuzzy)" /><polyline points="38.3,-62.62 38.48,-62.23 39.08,-61.28 39.69,-60.34 40.15,-59.61 40.46,-59.07 40.67,-58.63 40.82,-58.23 40.9,-57.85 40.89,-57.55 40.76,-57.38 40.45,-57.41 39.96,-57.68 39.27,-58.21 38.38,-58.97 37.29,-59.96 35.97,-61.18 34.42,-62.65 32.63,-64.39 30.61,-66.41 28.35,-68.74 25.78,-71.42 22.76,-74.57 19.23,-78.23" fill="none" stroke="rgb(80, 68, 68)" stroke-width="2" stroke-linejoin="round" filter="url(#fuzzy)" /><polyline points="-25.67,-75.85 -24.97,-76.38 -24.21,-76.88 -23.36,-77.32 -22.28,-77.8 -20.94,-78.36 -19.38,-78.98 -17.69,-79.62 -15.98,-80.23 -14.28,-80.79 -12.63,-81.3 -11.01,-81.77 -9.42,-82.23 -7.86,-82.66 -6.34,-83.08 -4.91,-83.47 -3.59,-83.83 -2.41,-84.15 -1.4,-84.46 -0.57,-84.74 0.09,-84.98 0.61,-85.17 0.95,-85.31" fill="none" stroke="rgb(80, 68, 68)" stroke-width="2" stroke-linejoin="round" filter="url(#fuzzy)" /><polyline points="46.47,-48.12 46.89,-47.03 47.26,-45.96 47.56,-45.09 47.82,-44.32 48.03,-43.64 48.12,-43.17 48.06,-43.04 47.79,-43.31 47.31,-44.02 46.62,-45.15 45.7,-46.74 44.51,-48.8 43.03,-51.44 41.22,-54.67 39.19,-58.39 37.18,-62.27" fill="none" stroke="rgb(80, 68, 68)" stroke-width="2" stroke-linejoin="round" filter="url(#fuzzy)" /><polyline points="-21.95,-78.74 -20.35,-79.61 -19.06,-80 -17.7,-80.19 -16.16,-80.22 -14.38,-80.14 -12.36,-79.99 -10.14,-79.78 -7.75,-79.51 -5.24,-79.18 -2.63,-78.8 0.06,-78.38 2.81,-77.91 5.61,-77.4 8.44,-76.84 11.29,-76.23 14.13,-75.6 16.93,-74.98 19.69,-74.38 22.43,-73.75 25.24,-73.04 28.09,-72.29" fill="none" stroke="rgb(80, 68, 68)" stroke-width="2" stroke-linejoin="round" filter="url(#fuzzy)" /><polyline points="49.64,-40.01 49.75,-39.12 49.72,-38.59 49.5,-38.23 49.04,-38.05 48.3,-38.12 47.25,-38.49 45.88,-39.21 44.17,-40.3 42.12,-41.74 39.73,-43.51 36.98,-45.63 33.83,-48.12 30.28,-51.02 26.3,-54.35 21.85,-58.15 16.92,-62.47 11.48,-67.33 5.62,-72.74 -0.49,-78.61" fill="none" stroke="rgb(80, 68, 68)" stroke-width="2" stroke-linejoin="round" filter="url(#fuzzy)" /><polyline points="-23.49,-77.72 -21.92,-78.73 -20.51,-79.57 -19.34,-80.23 -18.3,-80.77 -17.32,-81.23 -16.34,-81.67 -15.36,-82.08 -14.4,-82.47 -13.51,-82.84 -12.75,-83.14 -12.16,-83.38 -11.75,-83.54 -11.55,-83.61 -11.6,-83.6 -11.9,-83.49 -12.51,-83.27 -13.44,-82.9 -14.68,-82.4" fill="none" stroke="rgb(80, 68, 68)" stroke-width="2" stroke-linejoin="round" filter="url(#fuzzy)" /><polyline points="55.26,-13.77 55.88,-11.7 56.97,-10.72 58.43,-9.83 59.87,-8.76 61.06,-7.49 61.95,-6.09 62.51,-4.67 62.77,-3.27 62.84,-1.89 62.92,-0.49 63.23,0.97 63.93,2.54 65,4.2 66.25,5.86 67.39,7.4 68.16,8.68 68.52,9.64 68.86,10.28 69.77,10.67" fill="none" stroke="rgb(80, 68, 68)" stroke-width="2" stroke-linejoin="round" filter="url(#fuzzy)" /><polyline points="17.3,-100.07 16.68,-97.44 15.76,-95.8 14.66,-94.73 13.45,-93.69 12.23,-92.6 11.07,-91.63 10.02,-90.93 9.05,-90.52 8.13,-90.32 7.22,-90.25 6.28,-90.23 5.33,-90.22 4.39,-90.17 3.48,-89.94 2.6,-89.35 1.74,-88.32 0.83,-87.1 -0.16,-86.17 -1.22,-85.78 -2.08,-85.55" fill="none" stroke="rgb(80, 68, 68)" stroke-width="2" stroke-linejoin="round" filter="url(#fuzzy)" /><polyline points="-3.44,-85.3 -4.9,-86.9 -6,-88.52 -6.76,-89.35 -7.45,-89.75 -8.17,-89.87 -8.95,-89.89 -9.81,-90.05 -10.76,-90.5 -11.77,-91.16 -12.79,-91.75 -13.76,-92.01 -14.7,-91.89 -15.62,-91.55 -16.58,-91.3 -17.64,-91.43 -18.8,-92.13 -20.06,-93.44 -21.41,-95.28 -22.81,-97.38 -24.24,-99.18 -25.74,-100.03 -27.76,-99.59 10,-94.04 9.64,-93.05 8.94,-92.22 8.05,-91.59 7.09,-91.17 6.1,-90.91 5.13,-90.64 4.17,-90.27 3.26,-89.77 2.38,-89.22 1.5,-88.7 0.61,-88.25 -0.31,-87.82 -1.21,-87.27 -2.05,-86.6 -2.85,-85.95 -3.7,-85.52 -4.8,-85.25" fill="none" stroke="rgb(80, 68, 68)" stroke-width="2" stroke-linejoin="round" filter="url(#fuzzy)" /><polyline points="14.85,-96.32 13.5,-95.27 12.22,-94.5 11.08,-93.96 10.08,-93.51 9.14,-93.09 8.2,-92.84 7.25,-92.94 6.3,-93.41 5.35,-94.01 4.41,-94.35 3.48,-94.06 2.55,-93.07 1.62,-91.6 0.67,-90.1 -0.29,-89.06 -1.24,-88.71 -2.16,-88.96 -3.08,-89.28 -4.07,-88.92 -5.29,-87.34 -6.92,-84.89" fill="none" stroke="rgb(80, 68, 68)" stroke-width="2" stroke-linejoin="round" filter="url(#fuzzy)" /><polyline points="55.42,-13 58.76,-13.34 60.49,-12.59 60.95,-11.56 60.95,-10.39 60.93,-9.08 61.18,-7.66 61.94,-6.19 63.25,-4.76 64.87,-3.39 66.39,-2.06 67.44,-0.72 67.91,0.72 68.05,2.32 68.24,4.1 68.81,5.96 69.62,7.73 69.52,9.86" fill="none" stroke="rgb(80, 68, 68)" stroke-width="2" stroke-linejoin="round" filter="url(#fuzzy)" /><polyline points="6.63,-106.96 5.6,-106.43 4.4,-104.83 3.36,-102.78 2.37,-100.41 1.38,-98.12 0.36,-96.18 -0.65,-94.67 -1.63,-93.46 -2.58,-92.38 -3.5,-91.29 -4.4,-90.15 -5.25,-88.98 -6.02,-87.86 -6.72,-86.85 -7.38,-86.01 -8.04,-85.33 -8.72,-84.82 -9.41,-84.47 -10,-84.22 -10.32,-83.96 -27.39,-59.62 -26.97,-61.68 -26.76,-63.18 -26.72,-64.59 -26.7,-66.01 -26.53,-67.29 -26.11,-68.37 -25.51,-69.32 -24.84,-70.32 -24.26,-71.48 -23.82,-72.76 -23.44,-73.95 -23.04,-74.87 -22.48,-75.52 -21.72,-76.08 -20.83,-76.85 -19.91,-77.97 -19.07,-79.27 -18.16,-81.08 -42.87,-79.56 -41.16,-79.07 -39.98,-78.99 -38.9,-79.65 -37.79,-80.69 -36.63,-81.51 -35.4,-81.68 -34.09,-81.15 -32.75,-80.17 -31.4,-79.13 -30.1,-78.3 -28.85,-77.83 -27.68,-77.7 -26.63,-77.81 -25.73,-78.05 -24.99,-78.32 -24.36,-78.54 -23.7,-78.7 -22.84,-78.86 -21.58,-79.24 -19.74,-80.16 -40.22,-56.28 -39.57,-57.39 -38.97,-58.5 -38.3,-59.74 -37.64,-60.96 -37.07,-62.03 -36.58,-62.93 -36.14,-63.69 -35.7,-64.41 -35.22,-65.14 -34.68,-65.91 -34.06,-66.75 -33.36,-67.64 -32.57,-68.56 -31.72,-69.45 -30.89,-70.28 -30.16,-71.02 -29.6,-71.7 -29.18,-72.37 -28.77,-73.06 -28.14,-73.78 -26.99,-74.63 -34.48,-67.43 -35.37,-66.26 -35.98,-65.43 -36.47,-64.82 -36.93,-64.21 -37.46,-63.47 -38.07,-62.59 -38.74,-61.6 -39.43,-60.59 -40.07,-59.61 -40.65,-58.69 -41.17,-57.83 -41.63,-56.99 -42.08,-56.15 -42.53,-55.27 -43,-54.31 -43.52,-53.26 -44.06,-52.14 -44.62,-50.98 -45.16,-49.82 -45.67,-48.66 -46.17,-47.5 -46.65,-46.36 -47.05,-45.42 -47.2,-45.05 -35.63,-66.12 -36.27,-65.53 -36.83,-65.31 -37.39,-65.05 -37.98,-64.54 -38.66,-63.75 -39.44,-62.82 -40.26,-61.91 -41.08,-61.1 -41.83,-60.39 -42.51,-59.75 -43.12,-59.15 -43.68,-58.54 -44.23,-57.89 -44.84,-57.16 -45.61,-56.31 -46.57,-55.41 -47.6,-54.58 -48.35,-53.86" fill="none" stroke="rgb(80, 68, 68)" stroke-width="2" stroke-linejoin="round" filter="url(#fuzzy)" /><polyline points="-39.75,-38.9 -40.07,-41.38 -40.25,-43.06 -40.22,-44.47 -40.01,-45.8 -39.8,-47.23 -39.72,-48.82 -39.79,-50.49 -39.97,-52.13 -40.13,-53.66 -40.17,-54.98 -40,-56.07 -39.59,-56.94 -38.98,-57.72 -38.27,-58.6 -37.62,-59.8 -37.17,-61.37 -36.96,-63 -36.84,-64.2 -36.4,-65.09" fill="none" stroke="rgb(80, 68, 68)" stroke-width="2" stroke-linejoin="round" filter="url(#fuzzy)" /><polyline points="-37.32,-63.89 -37.35,-63.76 -37.99,-62.82 -38.77,-61.59 -39.47,-60.33 -40,-59.16 -40.41,-58.08 -40.71,-57.05 -40.95,-56.05 -41.14,-55.03 -41.32,-53.97 -41.54,-52.82 -41.84,-51.53 -42.22,-50.16 -42.65,-48.82 -43.08,-47.56 -43.52,-46.16 -41.37,-57.89 -42.39,-58.66 -42.75,-57.91 -43.14,-57.12 -43.78,-56.52 -44.57,-55.88 -45.36,-55.03 -46.07,-53.97 -46.71,-52.82 -47.31,-51.69 -47.91,-50.62 -48.51,-49.58 -49.08,-48.6 -49.64,-47.71 -50.24,-46.93 -50.95,-46.29 -51.77,-45.86 -52.39,-46.01 -41.37,-57.89 -41.94,-60.9 -42.68,-64.2 -42.69,-66.64 -41.97,-67.92 -41.01,-68.54 -40.2,-69.1 -39.68,-69.97 -39.44,-71.31 -39.39,-73.11 -39.42,-75.26 -39.4,-77.58 -39.18,-79.78 -38.68,-81.65 -37.94,-83.14 -37.12,-84.44 -36.47,-85.88 -36.15,-87.78 -36.12,-90.2 -36.13,-92.87 -35.8,-95.24 -34.9,-96.94 -33.72,-98.4 -33.41,-101.35 -42.4,-56.02 -42.82,-54.12 -43.06,-51.98 -43.48,-50.38 -44.14,-49.3 -44.89,-48.45 -45.59,-47.6 -46.16,-46.68 -46.57,-45.67 -46.85,-44.6 -47.01,-43.48 -47.09,-42.32 -47.13,-41.14 -47.19,-39.94 -47.26,-38.73 -47.35,-37.47 -47.43,-36.11 -47.48,-34.66 -47.5,-33.16 -47.53,-31.68 -47.56,-30.28 -47.58,-28.94 -47.54,-27.53 -47.46,-25.92 -47.51,-24.74 -42.97,-54.76 -42.42,-55.21 -41.93,-55.41 -41.36,-55.7 -40.68,-56.01 -39.96,-56.4 -39.23,-56.93 -38.49,-57.6 -37.7,-58.32 -36.88,-59.02 -36.06,-59.62 -35.34,-60.14 -34.73,-60.64 -34.21,-61.16 -33.71,-61.68 -33.11,-62.11 -32.4,-62.35 -31.6,-62.49 -30.7,-62.8 -29.16,-63.46" fill="none" stroke="rgb(80, 68, 68)" stroke-width="2" stroke-linejoin="round" filter="url(#fuzzy)" /><polyline points="-45.3,-50.46 -45.83,-49.22 -46.2,-48 -46.38,-46.62 -46.45,-45.26 -46.57,-44.07 -46.81,-43.07 -47.13,-42.16 -47.39,-41.21 -47.52,-40.12 -47.48,-38.84 -47.33,-37.4 -47.18,-35.86 -47.09,-34.3 -47.09,-32.78 -47.14,-31.33 -47.15,-29.95 -47.1,-28.61 -47.05,-27.21 -47.03,-25.67 -46.85,-24.4" fill="none" stroke="rgb(80, 68, 68)" stroke-width="2" stroke-linejoin="round" filter="url(#fuzzy)" /><polyline points="-46.14,-48.77 -46.01,-49.45 -45.82,-50.72 -45.61,-52.27 -45.5,-54.09 -45.59,-56.17 -45.93,-58.43 -46.43,-60.72 -46.88,-62.83 -47.09,-64.61 -47.01,-66.07 -46.71,-67.43 -46.4,-69.05 -46.25,-71.19 -46.27,-73.83 -46.35,-76.58 -46.32,-78.82 -46.05,-80.14 -45.69,-80.81 -46.15,-82.31 -44.02,-46.7 -44.44,-46.1 -45.15,-45.27 -45.8,-44.52 -46.34,-43.8 -46.78,-43.04 -47.15,-42.21 -47.48,-41.33 -47.8,-40.41 -48.15,-39.47 -48.59,-38.5 -49.13,-37.47 -49.75,-36.35 -50.36,-35.12 -50.89,-33.77 -51.38,-32.56 -52.01,-32.44 44.58,-51.65 45.78,-50.19 46.91,-49.18 47.74,-48.13 48.37,-47.05 48.95,-45.95 49.57,-44.82 50.23,-43.67 50.91,-42.52 51.58,-41.42 52.26,-40.38 52.96,-39.42 53.7,-38.51 54.45,-37.63 55.17,-36.72 55.78,-35.75 56.25,-34.7 56.59,-33.58 56.88,-32.39 57.23,-31.13 57.75,-29.86 58.46,-28.64 59.38,-27.49 60.51,-26.4 61.67,-25.42" fill="none" stroke="rgb(80, 68, 68)" stroke-width="2" stroke-linejoin="round" filter="url(#fuzzy)" /><polyline points="26.39,-62.37 27.74,-62.96 28.43,-63.21 29.14,-63.29 29.98,-63.25 30.83,-63.07 31.66,-62.83 32.48,-62.68 33.35,-62.64 34.27,-62.55 35.22,-62.24 36.14,-61.75 37.02,-61.26 37.91,-60.89 38.93,-60.56 40.1,-59.98" fill="none" stroke="rgb(80, 68, 68)" stroke-width="2" stroke-linejoin="round" filter="url(#fuzzy)" /><polyline points="38.3,-62.62 38.22,-61.82 38.84,-60.85 39.5,-59.8 39.99,-58.8 40.35,-57.89 40.67,-57 41.03,-56.08 41.45,-55.03 41.91,-53.87 42.38,-52.64 42.83,-51.43 43.23,-50.32 43.57,-49.32 43.86,-48.36 44.14,-47.31 44.45,-46.05 44.84,-44.56 45.43,-42.74 25.85,-79.17 26.43,-78.46 27.2,-77.61 27.9,-76.72 28.54,-75.78 29.14,-74.81 29.73,-73.83 30.33,-72.9 30.91,-72.05 31.47,-71.27 32.01,-70.54 32.58,-69.81 33.24,-68.98 34.01,-68.03 34.8,-67 35.18,-66.35 35.18,-66.35 34.75,-66.91 33.93,-67.86 33.08,-68.64 32.27,-69.12 31.48,-69.34 30.7,-69.48 29.92,-69.7 29.16,-70.06 28.41,-70.5 27.65,-70.93 26.88,-71.32 26.1,-71.72 25.31,-72.19 24.46,-72.6 23.7,-72.6" fill="none" stroke="rgb(80, 68, 68)" stroke-width="2" stroke-linejoin="round" filter="url(#fuzzy)" /><polyline points="27.02,-74.9 27.96,-73.95 28.74,-73.16 29.43,-72.43 30.09,-71.68 30.71,-70.94 31.3,-70.21 31.88,-69.48 32.47,-68.71 33.07,-67.9 33.66,-67.09 34.23,-66.27 34.77,-65.42 35.3,-64.47 35.83,-63.4 36.36,-62.23 36.89,-61.07 37.45,-60 38.12,-58.92 38.95,-57.61 39.89,-55.79" fill="none" stroke="rgb(80, 68, 68)" stroke-width="2" stroke-linejoin="round" filter="url(#fuzzy)" /><polyline points="25.24,-76.32 24.5,-75.67 23.66,-75.6 22.78,-76 21.91,-76.65 21.07,-77.25 20.23,-77.62 19.37,-77.74 18.49,-77.77 17.63,-77.85 16.81,-78.08 16.07,-78.43 15.39,-78.8 14.73,-79.08 14.06,-79.23 13.34,-79.24 12.56,-79.19 11.72,-79.1 10.83,-78.99 9.92,-78.81 9.03,-78.55 8.21,-78.24 7.44,-77.96 6.7,-77.8 6.15,-77.86" fill="none" stroke="rgb(80, 68, 68)" stroke-width="2" stroke-linejoin="round" filter="url(#fuzzy)" /><polyline points="15.43,-82.18 15.66,-81.96 15.06,-81.95 14.31,-81.77 13.52,-81.45 12.66,-81.07 11.73,-80.71 10.78,-80.45 9.86,-80.29 9,-80.15 8.21,-79.92 7.44,-79.57 6.65,-79.16 5.85,-78.72 5.06,-78.16 4.43,-77.51" fill="none" stroke="rgb(80, 68, 68)" stroke-width="2" stroke-linejoin="round" filter="url(#fuzzy)" /><polyline points="-9.69,-86.88 -8.87,-86.84 -8.08,-86.85 -7.36,-86.9 -6.67,-86.95 -5.91,-86.96 -5.07,-86.92 -4.17,-86.87 -3.24,-86.82 -2.31,-86.8 -1.4,-86.78 -0.49,-86.72 0.41,-86.6 1.29,-86.41 2.15,-86.19 3.01,-85.97 3.88,-85.8 4.78,-85.69 5.68,-85.6 6.58,-85.5 7.44,-85.31 8.22,-85.03 8.92,-84.68 9.69,-84.29 11.03,-83.91 11.03,-83.91 9.93,-86.41 9.34,-88.33 8.66,-88.99 7.89,-89.69 7.08,-91.14 6.24,-93.2 5.38,-95.32 4.48,-97.03 3.59,-98.23 2.7,-99.3 1.8,-100.88 0.83,-103.34 -0.3,-106.24 -1.59,-108.73 -2.74,-112.49" fill="none" stroke="rgb(80, 68, 68)" stroke-width="2" stroke-linejoin="round" filter="url(#fuzzy)" /><polyline points="8.89,-84.6 8.42,-85.91 7.54,-85.98 6.63,-86.3 5.73,-87.31 4.86,-88.94 4.01,-90.77 3.17,-92.32 2.33,-93.32 1.43,-93.85 0.48,-94.26 -0.52,-94.96 -1.57,-96.28 -2.66,-98.39 -3.82,-101.28 -5.09,-104.61 -6.41,-107.77 -7.59,-110.07 -8.44,-111.47 -9.34,-112.38" fill="none" stroke="rgb(80, 68, 68)" stroke-width="2" stroke-linejoin="round" filter="url(#fuzzy)" /><polyline points="6.91,-84.78 8.11,-84.75 8.93,-85.06 9.86,-85.83 10.95,-86.94 12.13,-88.17 13.31,-89.44 14.46,-90.75 15.52,-91.97 16.49,-92.91 17.36,-93.4 18.19,-93.48 19.05,-93.38 20.04,-93.37 21.14,-93.57 22.25,-93.83 23.26,-93.86 24.14,-93.49 25.14,-93.1 26.66,-93.65 29.12,-95.74" fill="none" stroke="rgb(80, 68, 68)" stroke-width="2" stroke-linejoin="round" filter="url(#fuzzy)" /><polyline points="5.27,-85.02 4.48,-85.83 3.56,-86.68 2.76,-87.6 1.96,-88.43 1.11,-88.89 0.21,-89.01 -0.73,-89.03 -1.7,-89.25 -2.7,-89.87 -3.72,-90.91 -4.74,-92.21 -5.73,-93.5 -6.66,-94.56 -7.54,-95.29 -8.4,-95.83 -9.3,-96.44 -10.27,-97.34 -11.32,-98.52 -12.45,-99.78 -13.62,-100.91 -14.82,-101.94 -16.01,-103.07 -17.25,-104.1 -19.35,-104.4" fill="none" stroke="rgb(80, 68, 68)" stroke-width="2" stroke-linejoin="round" filter="url(#fuzzy)" /><polyline points="-8.14,-90.25 -7.45,-89.75 -6.84,-89.4 -6.14,-88.93 -5.27,-88.44 -4.3,-88.03 -3.34,-87.73 -2.41,-87.59 -1.51,-87.65 -0.6,-87.87 0.32,-88.14 1.2,-88.2 2,-87.8 2.71,-86.88 3.46,-85.79 4.87,-85.18" fill="none" stroke="rgb(80, 68, 68)" stroke-width="2" stroke-linejoin="round" filter="url(#fuzzy)" /><polyline points="16.35,-87.06 16.47,-86.22 15.81,-86.1 15.06,-86.13 14.27,-86.07 13.39,-85.93 12.44,-85.82 11.46,-85.8 10.52,-85.88 9.63,-86.04 8.81,-86.17 8,-86.22 7.17,-86.17 6.29,-86.11 5.34,-86.07 4.21,-85.83 2.51,-85.33" fill="none" stroke="rgb(80, 68, 68)" stroke-width="2" stroke-linejoin="round" filter="url(#fuzzy)" /><polyline points="18.05,-72.22 16.64,-73.97 15.73,-75.28 15.17,-76.28 14.71,-77.08 14.23,-77.73 13.67,-78.23 13.03,-78.63 12.31,-79.03 11.52,-79.47 10.71,-79.97 9.89,-80.46 9.09,-80.9 8.32,-81.3 7.56,-81.75 6.8,-82.34 6,-83.04 5.13,-83.75 4.2,-84.35 3.3,-84.92 3,-85.39" fill="none" stroke="rgb(80, 68, 68)" stroke-width="2" stroke-linejoin="round" filter="url(#fuzzy)" />
    </g>
    
        <g id="pointNose">
          <g id="rightNose"><circle r="2.286" cx="7.571999999999999" cy="24.386" stroke="black" fill="none" stroke-width="1.0" filter="url(#fuzzy)" /><circle r="1.944" cx="9.107999999999999" cy="24.026" stroke="black" fill="none" stroke-width="1.0" filter="url(#fuzzy)" /><circle r="1.146" cx="7.276" cy="25.97" stroke="black" fill="none" stroke-width="1.0" filter="url(#fuzzy)" /><circle r="2.666" cx="10" cy="26.342" stroke="black" fill="none" stroke-width="1.0" filter="url(#fuzzy)" /><circle r="2.838" cx="8.276" cy="25.83" stroke="black" fill="none" stroke-width="1.0" filter="url(#fuzzy)" /><circle r="1.9340000000000002" cx="9.76" cy="25.802" stroke="black" fill="none" stroke-width="1.0" filter="url(#fuzzy)" /><circle r="1.968" cx="7.815999999999999" cy="26.198" stroke="black" fill="none" stroke-width="1.0" filter="url(#fuzzy)" /><circle r="2.616" cx="8.267999999999999" cy="24.346" stroke="black" fill="none" stroke-width="1.0" filter="url(#fuzzy)" /><circle r="2.6319999999999997" cx="8.767999999999999" cy="25.518" stroke="black" fill="none" stroke-width="1.0" filter="url(#fuzzy)" /><circle r="1.34" cx="9.164" cy="27.253999999999998" stroke="black" fill="none" stroke-width="1.0" filter="url(#fuzzy)" /></g>
          <g id="leftNose"><circle r="1.322" cx="-8.566" cy="28.778000000000002" stroke="black" fill="none" stroke-width="1.0" filter="url(#fuzzy)" /><circle r="1.554" cx="-10.546000000000001" cy="28.490000000000002" stroke="black" fill="none" stroke-width="1.0" filter="url(#fuzzy)" /><circle r="1.546" cx="-7.8420000000000005" cy="28.85" stroke="black" fill="none" stroke-width="1.0" filter="url(#fuzzy)" /><circle r="2.224" cx="-8.374" cy="28.114" stroke="black" fill="none" stroke-width="1.0" filter="url(#fuzzy)" /><circle r="2.808" cx="-8.734" cy="30.75" stroke="black" fill="none" stroke-width="1.0" filter="url(#fuzzy)" /><circle r="1.008" cx="-9.422" cy="29.310000000000002" stroke="black" fill="none" stroke-width="1.0" filter="url(#fuzzy)" /><circle r="1.436" cx="-9.314" cy="27.998" stroke="black" fill="none" stroke-width="1.0" filter="url(#fuzzy)" /><circle r="1.034" cx="-11.106" cy="28.21" stroke="black" fill="none" stroke-width="1.0" filter="url(#fuzzy)" /><circle r="1.708" cx="-10.002" cy="30.238" stroke="black" fill="none" stroke-width="1.0" filter="url(#fuzzy)" /><circle r="2.002" cx="-8.162" cy="27.79" stroke="black" fill="none" stroke-width="1.0" filter="url(#fuzzy)" /></g>
        </g>
      
    <g id="mouth">
      <polyline points="-28.56,34.01 -28.04,34.5 -27.52,35.02 -27.01,35.55 -26.5,36.11 -25.99,36.69 -25.48,37.29 -24.97,37.9 -24.46,38.53 -23.96,39.18 -23.45,39.84 -22.95,40.52 -22.45,41.21 -21.95,41.91 -21.45,42.63 -20.95,43.35 -20.45,44.08 -19.95,44.82 -19.45,45.57 -18.95,46.32 -18.45,47.08 -17.95,47.84 -17.45,48.6 -16.95,49.37 -16.45,50.14 -15.95,50.9 -15.45,51.67 -14.95,52.43 -14.44,53.19 -13.94,53.95 -13.43,54.7 -12.93,55.44 -12.42,56.18 -11.91,56.91 -11.39,57.63 -10.88,58.34 -10.36,59.04 -9.85,59.72 -9.33,60.39 -8.8,61.05 -8.28,61.7 -7.75,62.32 -7.22,62.93 -6.68,63.52 -6.15,64.09 -5.61,64.64 -5.06,65.17 -4.52,65.68 -3.97,66.16 -3.41,66.62 -2.86,67.06 -2.3,67.46 -1.73,67.84 -1.16,68.19 -0.59,68.52 -0.01,68.81 0.57,69.07 1.16,69.29 1.75,69.49 2.35,69.65 2.95,69.77 3.55,69.86 4.17,69.9 4.78,69.91 5.41,69.89 6.03,69.82 6.67,69.7 7.31,69.55 7.95,69.35 8.6,69.11 9.26,68.82 9.93,68.49 10.6,68.1 11.27,67.67 11.96,67.19 12.65,66.66 13.35,66.08 14.05,65.44 14.76,64.75 15.48,64 16.21,63.2 16.94,62.34 17.68,61.43 18.43,60.45 19.19,59.42 19.96,58.32 20.73,57.17 21.51,55.95 22.3,54.66 23.1,53.31 23.91,51.9 24.73,50.42 25.55,48.87 26.39,47.25 27.23,45.56 28.08,43.8 28.94,41.97 29.82,40.06 30.7,38.08 31.59,36.03 32.49,33.9 31.59,36.03 30.7,38.08 29.82,40.06 28.94,41.97 28.08,43.8 27.23,45.56 26.39,47.25 25.55,48.87 24.73,50.42 23.91,51.9 23.1,53.31 22.3,54.66 21.51,55.95 20.73,57.17 19.96,58.32 19.19,59.42 18.43,60.45 17.68,61.43 16.94,62.34 16.21,63.2 15.48,64 14.76,64.75 14.05,65.44 13.35,66.08 12.65,66.66 11.96,67.19 11.27,67.67 10.6,68.1 9.93,68.49 9.26,68.82 8.6,69.11 7.95,69.35 7.31,69.55 6.67,69.7 6.03,69.82 5.41,69.89 4.78,69.91 4.17,69.9 3.55,69.86 2.95,69.77 2.35,69.65 1.75,69.49 1.16,69.29 0.57,69.07 -0.01,68.81 -0.59,68.52 -1.16,68.19 -1.73,67.84 -2.3,67.46 -2.86,67.06 -3.41,66.62 -3.97,66.16 -4.52,65.68 -5.06,65.17 -5.61,64.64 -6.15,64.09 -6.68,63.52 -7.22,62.93 -7.75,62.32 -8.28,61.7 -8.8,61.05 -9.33,60.39 -9.85,59.72 -10.36,59.04 -10.88,58.34 -11.39,57.63 -11.91,56.91 -12.42,56.18 -12.93,55.44 -13.43,54.7 -13.94,53.95 -14.44,53.19 -14.95,52.43 -15.45,51.67 -15.95,50.9 -16.45,50.14 -16.95,49.37 -17.45,48.6 -17.95,47.84 -18.45,47.08 -18.95,46.32 -19.45,45.57 -19.95,44.82 -20.45,44.08 -20.95,43.35 -21.45,42.63 -21.95,41.91 -22.45,41.21 -22.95,40.52 -23.45,39.84 -23.96,39.18 -24.46,38.53 -24.97,37.9 -25.48,37.29 -25.99,36.69 -26.5,36.11 -27.01,35.55 -27.52,35.02 -28.04,34.5" fill="rgb(215,127,140)" stroke="black" stroke-width="3" stroke-linejoin="round" filter="url(#fuzzy)" />
    </g>
  </svg>