<svg viewBox="-100 -100 200 200" xmlns="http://www.w3.org/2000/svg" width="500" height="500" id="face-svg">
    <defs>
      <clipPath id="leftEyeClipPath">
        <polyline points="32.19,-3.7 32.03,-3.97 31.84,-4.23 31.6,-4.48 31.33,-4.72 31.02,-4.95 30.68,-5.18 30.29,-5.4 29.88,-5.62 29.43,-5.82 28.94,-6.02 28.42,-6.21 27.87,-6.4 27.29,-6.58 26.68,-6.75 26.03,-6.92 25.43,-7.11 24.78,-7.29 24.07,-7.46 23.32,-7.63 22.52,-7.79 21.68,-7.95 20.8,-8.1 19.87,-8.24 18.92,-8.38 17.92,-8.51 16.9,-8.63 15.85,-8.75 14.78,-8.85 13.69,-8.95 12.58,-9.05 11.45,-9.13 10.32,-9.2 9.17,-9.27 8.02,-9.33 6.87,-9.38 5.72,-9.42 4.58,-9.45 3.44,-9.47 2.31,-9.49 1.2,-9.49 0.1,-9.49 -0.99,-9.47 -2.05,-9.45 -3.09,-9.42 -4.11,-9.38 -5.11,-9.34 -6.08,-9.28 -7.02,-9.22 -7.93,-9.14 -8.81,-9.06 -9.66,-8.97 -10.48,-8.88 -11.26,-8.77 -12.02,-8.66 -12.74,-8.55 -13.43,-8.42 -14.09,-8.29 -14.72,-8.16 -15.32,-8.02 -15.88,-7.87 -16.42,-7.72 -16.93,-7.56 -17.41,-7.4 -17.87,-7.24 -18.31,-7.07 -18.72,-6.9 -19.11,-6.73 -19.47,-6.55 -19.81,-6.37 -20.13,-6.18 -20.43,-5.99 -20.7,-5.79 -20.96,-5.59 -21.2,-5.39 -21.41,-5.19 -21.61,-4.98 -21.79,-4.77 -21.96,-4.55 -22.1,-4.33 -22.07,-0.32 -21.8,-0.08 -21.53,0.16 -21.24,0.4 -20.94,0.65 -20.64,0.9 -20.32,1.16 -19.98,1.42 -19.64,1.68 -19.29,1.95 -18.92,2.22 -18.54,2.49 -18.15,2.76 -17.74,3.04 -17.32,3.32 -16.89,3.6 -16.44,3.88 -15.98,4.17 -15.5,4.46 -15,4.75 -14.49,5.04 -13.96,5.33 -13.41,5.61 -12.84,5.9 -12.25,6.19 -11.65,6.47 -11.02,6.74 -10.38,7.01 -9.71,7.28 -9.03,7.54 -8.33,7.79 -7.61,8.03 -6.87,8.26 -6.11,8.47 -5.33,8.68 -4.54,8.87 -3.73,9.05 -2.9,9.22 -2.05,9.36 -1.2,9.49 -0.33,9.6 0.56,9.7 1.46,9.77 2.36,9.82 3.28,9.85 4.21,9.86 5.14,9.84 6.08,9.8 7.03,9.74 7.98,9.66 8.93,9.54 9.88,9.41 10.83,9.25 11.78,9.06 12.73,8.85 13.67,8.61 14.6,8.35 15.52,8.06 16.43,7.75 17.33,7.42 18.22,7.06 19.09,6.69 19.95,6.29 20.78,5.87 21.6,5.44 22.33,5.14 23.04,4.83 23.74,4.51 24.42,4.18 25.09,3.85 25.74,3.51 26.38,3.16 26.99,2.81 27.58,2.46 28.16,2.1 28.7,1.74 29.23,1.38 29.73,1.02 30.2,0.66 30.65,0.31" />
      </clipPath>
      <clipPath id="rightEyeClipPath">
        <polyline points="-33.93,-5.19 -33.75,-5.44 -33.53,-5.67 -33.28,-5.9 -32.98,-6.12 -32.65,-6.33 -32.28,-6.54 -31.87,-6.73 -31.43,-6.92 -30.96,-7.1 -30.45,-7.27 -29.91,-7.44 -29.33,-7.6 -28.73,-7.75 -28.1,-7.9 -27.44,-8.04 -26.79,-8.19 -26.1,-8.33 -25.35,-8.47 -24.57,-8.6 -23.74,-8.73 -22.88,-8.85 -21.97,-8.97 -21.04,-9.09 -20.07,-9.2 -19.07,-9.3 -18.05,-9.4 -17,-9.49 -15.94,-9.58 -14.85,-9.66 -13.76,-9.74 -12.65,-9.81 -11.53,-9.87 -10.41,-9.93 -9.29,-9.98 -8.17,-10.02 -7.06,-10.06 -5.95,-10.09 -4.85,-10.11 -3.76,-10.13 -2.68,-10.14 -1.62,-10.14 -0.58,-10.14 0.44,-10.13 1.44,-10.11 2.41,-10.08 3.36,-10.05 4.29,-10.01 5.18,-9.96 6.05,-9.91 6.89,-9.85 7.69,-9.78 8.47,-9.7 9.22,-9.62 9.93,-9.54 10.61,-9.44 11.26,-9.34 11.88,-9.24 12.48,-9.13 13.04,-9.01 13.57,-8.89 14.07,-8.76 14.55,-8.63 15,-8.5 15.43,-8.36 15.84,-8.22 16.23,-8.07 16.59,-7.92 16.93,-7.76 17.24,-7.6 17.54,-7.44 17.82,-7.27 18.07,-7.1 18.31,-6.92 18.53,-6.74 18.72,-6.55 18.91,-6.37 19.07,-6.17 19.22,-5.98 19.35,-5.78 19.82,-2.17 19.6,-1.91 19.38,-1.64 19.14,-1.37 18.9,-1.09 18.65,-0.81 18.39,-0.52 18.13,-0.22 17.85,0.08 17.56,0.38 17.27,0.69 16.96,1.01 16.65,1.33 16.32,1.66 15.99,1.99 15.64,2.32 15.28,2.66 14.91,3.01 14.53,3.36 14.13,3.71 13.72,4.07 13.29,4.43 12.85,4.79 12.4,5.15 11.92,5.51 11.43,5.87 10.93,6.23 10.4,6.59 9.86,6.94 9.3,7.28 8.72,7.62 8.13,7.95 7.51,8.27 6.88,8.58 6.23,8.88 5.56,9.17 4.87,9.44 4.16,9.69 3.43,9.92 2.68,10.14 1.91,10.33 1.13,10.51 0.33,10.66 -0.49,10.78 -1.33,10.88 -2.18,10.95 -3.05,11 -3.93,11.01 -4.83,10.99 -5.74,10.94 -6.67,10.86 -7.61,10.75 -8.56,10.6 -9.51,10.42 -10.48,10.21 -11.46,9.96 -12.44,9.67 -13.42,9.36 -14.41,9 -15.4,8.62 -16.39,8.2 -17.38,7.75 -18.37,7.27 -19.35,6.76 -20.32,6.23 -21.13,5.88 -21.93,5.53 -22.72,5.16 -23.5,4.77 -24.27,4.38 -25.03,3.98 -25.77,3.57 -26.5,3.15 -27.21,2.73 -27.9,2.3 -28.57,1.87 -29.21,1.44 -29.83,1.02 -30.43,0.59 -30.99,0.17" />
      </clipPath>
      <filter id="fuzzy">
        <feTurbulence id="turbulence" baseFrequency="0.05" numOctaves="3" type="noise" result="noise" />
        <feDisplacementMap in="SourceGraphic" in2="noise" scale="2" />
      </filter>
      <linearGradient id="rainbowGradient" x1="0%" y1="0%" x2="100%" y2="0%">
        <stop offset="0%" style="stop-color: [object Object]; stop-opacity: 1" />
        <stop offset="50%" style="stop-color: [object Object]; stop-opacity: 1" />
        <stop offset="100%" style="stop-color: [object Object]; stop-opacity: 1" />
      </linearGradient>
    </defs>
    <rect x="-100" y="-100" width="100%" height="100%" fill="rgb(230, 230, 250)" />
    <polyline id="faceContour" points="65.43,0.94 65.49,3.44 65.56,1.74 65.46,3.2 65.38,5.3 65.53,6.22 65.07,10.32 65.08,11.17 65.04,11.28 64.8,14.82 64.82,14.72 64.75,14.98 64.34,16.4 64.21,17.52 63.81,19.71 63.71,21.42 63.35,23.45 63.05,24.56 63.14,24.94 62.98,25.86 62.48,27.97 62.25,28.01 62.01,29.46 61.74,30.83 60.28,35.63 60.4,34.74 60.12,36.16 59.37,38.13 59.86,36.88 58.86,39.66 58.68,40.92 57.9,43.14 57.44,43.91 56.88,45.18 56.09,46.96 55.95,47.67 54.85,50.03 54.49,50.78 53.58,52.66 53.3,52.66 53.3,53.37 52.95,53.4 51.52,56.68 51.68,56.11 51.04,57.24 49.94,58.9 49.87,59.32 48.19,61.79 47.89,62.42 46.55,63.87 46.03,64.75 45.19,66.16 44.23,67.07 44.13,67.59 43.92,67.24 41.5,70.33 41.91,69.86 41.1,70.72 40.2,72.04 39.47,72.8 38.02,74.25 38.34,73.91 37.21,75.2 36.98,75.21 35.33,76.76 33.73,78.25 33.1,78.57 33.59,78.2 31.79,79.7 28.8,81.84 30.15,81.1 27.79,82.58 27.41,83.04 26.9,83.14 26.97,83.08 24.58,84.58 25.5,84.1 24.07,84.97 21.33,86.09 22,85.95 18.96,87.29 18.96,87.14 17.9,87.85 17.62,87.72 16.44,88.42 14.61,88.92 14.49,88.93 13.81,88.97 13.45,89.16 10.75,89.96 11.3,89.68 8.87,90.26 8.95,90.38 7.43,90.31 5.04,90.63 5.86,90.56 4.38,90.84 2.66,91.01 1.01,91.28 2.54,91.29 -0.38,91.08 -0.86,91.22 -1.82,91.11 -4.21,90.84 -3.53,91.1 -4.71,90.65 -6.57,90.78 -8.49,90.59 -8.33,90.45 -10.34,90 -10.69,89.81 -10.4,89.96 -12.32,89.55 -11.59,89.75 -14.46,89.16 -15.63,88.64 -15.84,88.44 -17.86,87.57 -18.98,87.18 -20.07,86.7 -19.74,86.76 -21.76,86.1 -22.68,85.64 -23.63,85.27 -25.5,83.67 -26.23,83.38 -26.13,83.46 -27.24,82.7 -27.23,82.83 -28.4,82.34 -30.84,80.44 -29.66,81.04 -31.87,79.74 -32.14,79.47 -33.31,78.44 -35.14,77.02 -34.1,77.94 -35.03,77.27 -36.94,75.26 -36.88,75.36 -38.61,73.89 -40.06,71.89 -39.77,72.31 -41.17,70.84 -41.7,70.65 -42.01,69.72 -43.49,68.34 -43.43,68.35 -44.48,66.95 -45.59,65.56 -46.49,64.3 -46.53,63.98 -47.59,62.66 -48,62.13 -49.48,60.11 -49.98,59.26 -51.66,56.4 -50.4,58.11 -52.9,53.81 -52.44,54.88 -53.57,52.64 -54.34,51.17 -55.06,49.52 -54.34,50.93 -55.55,48.06 -56.07,47.11 -56.27,46.67 -56.69,45.77 -56.64,45.52 -57.47,43.66 -58.45,41.01 -58.85,39.85 -59.4,38.59 -59.19,38.93 -60.18,36.44 -59.84,36.97 -61.03,33.25 -61.53,31.43 -61.85,30.01 -61.96,29.48 -62.32,28.72 -62.79,26.46 -62.98,24.77 -63.02,25.1 -63.49,23.23 -63.42,23.62 -63.98,19.9 -63.89,19.45 -64.51,16.36 -64.34,16.92 -64.75,14.12 -64.9,11.44 -65.04,12.27 -65.31,8.93 -65.28,10.09 -65.2,7.2 -65.47,6.03 -65.62,3.56 -65.47,2.65 -65.45,0.24 -65.49,-1.02 -65.68,-1.28 -65.62,-3.59 -65.49,-3.99 -65.2,-7.89 -65.33,-6.48 -65.27,-7.76 -65.29,-9.82 -65.34,-9.26 -64.69,-13.58 -64.76,-13.72 -64.6,-16.77 -64.43,-17.06 -64.29,-18.6 -63.93,-19.8 -63.71,-21.1 -63.22,-23.96 -63.57,-22.18 -63.03,-24.4 -62.59,-27.16 -62.1,-29.39 -61.67,-30.85 -62.02,-29.94 -61.11,-32.86 -61.12,-33.07 -61.07,-33.15 -60.27,-35.25 -59.58,-38.39 -59.4,-38.87 -59.21,-38.78 -58.03,-42.21 -57.27,-44.51 -57.79,-42.63 -56.93,-45.19 -56.41,-46.79 -56.16,-47.43 -54.63,-50.43 -55.5,-48.73 -53.62,-52.47 -53.79,-51.92 -53.08,-53.56 -52.47,-54.39 -50.82,-57.63 -50.7,-57.95 -50.44,-58.41 -50.33,-58.11 -48.84,-60.81 -48.77,-61.05 -47.55,-62.96 -47.84,-62.25 -45.92,-65.18 -44.91,-66.52 -44.01,-67.53 -43.5,-68.32 -44.45,-67.27 -43.8,-67.63 -42.39,-69.28 -41.13,-70.98 -40.32,-72.14 -38.47,-73.54 -39.08,-73.16 -38.83,-73.36 -35.99,-76.06 -36.4,-75.51 -35.68,-76.31 -35.01,-77.06 -33.96,-77.94 -33.32,-78.59 -30.94,-80.4 -30.18,-80.94 -29.02,-81.78 -28.87,-81.81 -27.97,-82.47 -27.12,-82.73 -27.67,-82.61 -25.72,-84 -24.21,-84.6 -24.04,-84.78 -21.64,-86.28 -20.81,-86.2 -20.21,-86.78 -20.33,-86.89 -19.63,-87.03 -18.47,-87.23 -17.4,-88.08 -15.35,-88.83 -14.04,-88.96 -12.07,-89.58 -12.69,-89.26 -11.22,-89.64 -11.13,-89.77 -8.59,-90.51 -8.02,-90.5 -6.52,-90.62 -6.12,-90.66 -5.29,-90.91 -3.5,-90.9 -2.44,-91.14 -1.31,-91.04 -0.99,-90.97 0.37,-91.22 0.3,-91.31 2.11,-91.29 3.32,-91.21 5.34,-90.98 6.54,-90.61 6.96,-90.55 6.35,-90.58 8.89,-90.3 9.74,-89.92 10.23,-90.09 12.69,-89.57 12.17,-89.48 12.74,-89.24 12.94,-89.44 16.08,-88.62 16.5,-88.29 16.29,-88.31 17.34,-87.92 20.9,-86.34 21.64,-85.95 20.5,-86.45 23.38,-85.19 23.17,-85.5 24.27,-84.95 25.75,-84.06 26.48,-83.61 27.12,-82.96 29.4,-81.4 27.86,-82.45 30.62,-80.7 29.46,-81.32 32.84,-79.13 32.82,-78.99 33.01,-78.6 33.98,-77.94 36.06,-76.12 36.35,-76.01 36.87,-75.39 37.66,-74.36 38.9,-73.33 38.7,-73.25 39.8,-72.42 41.33,-70.88 41.59,-70.71 41.48,-70.62 43.8,-67.63 44.3,-67.11 45.24,-66.32 45.01,-66 46.53,-64.03 46.88,-63.54 48.22,-61.59 48.1,-62 49.17,-60.12 49.97,-58.87 51.06,-56.98 51.15,-56.91 51.65,-56.29 52.92,-54.01 53.09,-53.53 52.56,-54.42 54.44,-50.71 54.75,-50.01 54.48,-50.89 56.35,-46.54 56.2,-46.65 57.28,-43.97 57.25,-44.87 58.29,-42.04 58.49,-41.23 58.72,-40.66 58.74,-39.99 60.15,-36.1 60.83,-34.3 60.52,-34.28 60.82,-34.27 61.15,-32.99 61.27,-32.38 61.97,-29.79 61.89,-29.4 62.36,-28.37 62.95,-26.08 63.01,-25.42 63.48,-22.35 63.67,-21.59 63.81,-19.72 63.92,-20.07 64.64,-16.19 64.75,-14.86 64.52,-15.8 65.03,-10.87 64.85,-14.35 65.41,-8.37 65.13,-8.25 65.3,-7.2 65.29,-5.13 65.45,-6.34 65.64,-4.33 65.52,-0.16 65.43,0.94 65.49,3.44" fill="rgb(210, 180, 140)" stroke="black" stroke-width="1.6666666666666665" stroke-linejoin="round" filter="url(#fuzzy)" />
    <g transform="translate(40.16 -31.439999999999998)">
      <polyline id="rightCountour" points="-33.93,-5.19 -33.75,-5.44 -33.53,-5.67 -33.28,-5.9 -32.98,-6.12 -32.65,-6.33 -32.28,-6.54 -31.87,-6.73 -31.43,-6.92 -30.96,-7.1 -30.45,-7.27 -29.91,-7.44 -29.33,-7.6 -28.73,-7.75 -28.1,-7.9 -27.44,-8.04 -26.79,-8.19 -26.1,-8.33 -25.35,-8.47 -24.57,-8.6 -23.74,-8.73 -22.88,-8.85 -21.97,-8.97 -21.04,-9.09 -20.07,-9.2 -19.07,-9.3 -18.05,-9.4 -17,-9.49 -15.94,-9.58 -14.85,-9.66 -13.76,-9.74 -12.65,-9.81 -11.53,-9.87 -10.41,-9.93 -9.29,-9.98 -8.17,-10.02 -7.06,-10.06 -5.95,-10.09 -4.85,-10.11 -3.76,-10.13 -2.68,-10.14 -1.62,-10.14 -0.58,-10.14 0.44,-10.13 1.44,-10.11 2.41,-10.08 3.36,-10.05 4.29,-10.01 5.18,-9.96 6.05,-9.91 6.89,-9.85 7.69,-9.78 8.47,-9.7 9.22,-9.62 9.93,-9.54 10.61,-9.44 11.26,-9.34 11.88,-9.24 12.48,-9.13 13.04,-9.01 13.57,-8.89 14.07,-8.76 14.55,-8.63 15,-8.5 15.43,-8.36 15.84,-8.22 16.23,-8.07 16.59,-7.92 16.93,-7.76 17.24,-7.6 17.54,-7.44 17.82,-7.27 18.07,-7.1 18.31,-6.92 18.53,-6.74 18.72,-6.55 18.91,-6.37 19.07,-6.17 19.22,-5.98 19.35,-5.78 19.82,-2.17 19.6,-1.91 19.38,-1.64 19.14,-1.37 18.9,-1.09 18.65,-0.81 18.39,-0.52 18.13,-0.22 17.85,0.08 17.56,0.38 17.27,0.69 16.96,1.01 16.65,1.33 16.32,1.66 15.99,1.99 15.64,2.32 15.28,2.66 14.91,3.01 14.53,3.36 14.13,3.71 13.72,4.07 13.29,4.43 12.85,4.79 12.4,5.15 11.92,5.51 11.43,5.87 10.93,6.23 10.4,6.59 9.86,6.94 9.3,7.28 8.72,7.62 8.13,7.95 7.51,8.27 6.88,8.58 6.23,8.88 5.56,9.17 4.87,9.44 4.16,9.69 3.43,9.92 2.68,10.14 1.91,10.33 1.13,10.51 0.33,10.66 -0.49,10.78 -1.33,10.88 -2.18,10.95 -3.05,11 -3.93,11.01 -4.83,10.99 -5.74,10.94 -6.67,10.86 -7.61,10.75 -8.56,10.6 -9.51,10.42 -10.48,10.21 -11.46,9.96 -12.44,9.67 -13.42,9.36 -14.41,9 -15.4,8.62 -16.39,8.2 -17.38,7.75 -18.37,7.27 -19.35,6.76 -20.32,6.23 -21.13,5.88 -21.93,5.53 -22.72,5.16 -23.5,4.77 -24.27,4.38 -25.03,3.98 -25.77,3.57 -26.5,3.15 -27.21,2.73 -27.9,2.3 -28.57,1.87 -29.21,1.44 -29.83,1.02 -30.43,0.59 -30.99,0.17" fill="white" stroke="white" stroke-width="0" stroke-linejoin="round" filter="url(#fuzzy)" />
    </g>
    <g transform="translate(-36.78 -27.56)">
      <polyline id="leftCountour" points="32.19,-3.7 32.03,-3.97 31.84,-4.23 31.6,-4.48 31.33,-4.72 31.02,-4.95 30.68,-5.18 30.29,-5.4 29.88,-5.62 29.43,-5.82 28.94,-6.02 28.42,-6.21 27.87,-6.4 27.29,-6.58 26.68,-6.75 26.03,-6.92 25.43,-7.11 24.78,-7.29 24.07,-7.46 23.32,-7.63 22.52,-7.79 21.68,-7.95 20.8,-8.1 19.87,-8.24 18.92,-8.38 17.92,-8.51 16.9,-8.63 15.85,-8.75 14.78,-8.85 13.69,-8.95 12.58,-9.05 11.45,-9.13 10.32,-9.2 9.17,-9.27 8.02,-9.33 6.87,-9.38 5.72,-9.42 4.58,-9.45 3.44,-9.47 2.31,-9.49 1.2,-9.49 0.1,-9.49 -0.99,-9.47 -2.05,-9.45 -3.09,-9.42 -4.11,-9.38 -5.11,-9.34 -6.08,-9.28 -7.02,-9.22 -7.93,-9.14 -8.81,-9.06 -9.66,-8.97 -10.48,-8.88 -11.26,-8.77 -12.02,-8.66 -12.74,-8.55 -13.43,-8.42 -14.09,-8.29 -14.72,-8.16 -15.32,-8.02 -15.88,-7.87 -16.42,-7.72 -16.93,-7.56 -17.41,-7.4 -17.87,-7.24 -18.31,-7.07 -18.72,-6.9 -19.11,-6.73 -19.47,-6.55 -19.81,-6.37 -20.13,-6.18 -20.43,-5.99 -20.7,-5.79 -20.96,-5.59 -21.2,-5.39 -21.41,-5.19 -21.61,-4.98 -21.79,-4.77 -21.96,-4.55 -22.1,-4.33 -22.07,-0.32 -21.8,-0.08 -21.53,0.16 -21.24,0.4 -20.94,0.65 -20.64,0.9 -20.32,1.16 -19.98,1.42 -19.64,1.68 -19.29,1.95 -18.92,2.22 -18.54,2.49 -18.15,2.76 -17.74,3.04 -17.32,3.32 -16.89,3.6 -16.44,3.88 -15.98,4.17 -15.5,4.46 -15,4.75 -14.49,5.04 -13.96,5.33 -13.41,5.61 -12.84,5.9 -12.25,6.19 -11.65,6.47 -11.02,6.74 -10.38,7.01 -9.71,7.28 -9.03,7.54 -8.33,7.79 -7.61,8.03 -6.87,8.26 -6.11,8.47 -5.33,8.68 -4.54,8.87 -3.73,9.05 -2.9,9.22 -2.05,9.36 -1.2,9.49 -0.33,9.6 0.56,9.7 1.46,9.77 2.36,9.82 3.28,9.85 4.21,9.86 5.14,9.84 6.08,9.8 7.03,9.74 7.98,9.66 8.93,9.54 9.88,9.41 10.83,9.25 11.78,9.06 12.73,8.85 13.67,8.61 14.6,8.35 15.52,8.06 16.43,7.75 17.33,7.42 18.22,7.06 19.09,6.69 19.95,6.29 20.78,5.87 21.6,5.44 22.33,5.14 23.04,4.83 23.74,4.51 24.42,4.18 25.09,3.85 25.74,3.51 26.38,3.16 26.99,2.81 27.58,2.46 28.16,2.1 28.7,1.74 29.23,1.38 29.73,1.02 30.2,0.66 30.65,0.31" fill="white" stroke="white" stroke-width="0" stroke-linejoin="round" filter="url(#fuzzy)" />
    </g>
    <g transform="translate(40.16 -31.439999999999998)">
      <polyline id="rightUpper" points="-33.42,-2.1 -33.66,-2.46 -33.86,-2.82 -34.02,-3.16 -34.13,-3.48 -34.2,-3.8 -34.23,-4.1 -34.21,-4.39 -34.16,-4.66 -34.06,-4.93 -33.93,-5.19 -33.75,-5.44 -33.53,-5.67 -33.28,-5.9 -32.98,-6.12 -32.65,-6.33 -32.28,-6.54 -31.87,-6.73 -31.43,-6.92 -30.96,-7.1 -30.45,-7.27 -29.91,-7.44 -29.33,-7.6 -28.73,-7.75 -28.1,-7.9 -27.44,-8.04 -26.79,-8.19 -26.1,-8.33 -25.35,-8.47 -24.57,-8.6 -23.74,-8.73 -22.88,-8.85 -21.97,-8.97 -21.04,-9.09 -20.07,-9.2 -19.07,-9.3 -18.05,-9.4 -17,-9.49 -15.94,-9.58 -14.85,-9.66 -13.76,-9.74 -12.65,-9.81 -11.53,-9.87 -10.41,-9.93 -9.29,-9.98 -8.17,-10.02 -7.06,-10.06 -5.95,-10.09 -4.85,-10.11 -3.76,-10.13 -2.68,-10.14 -1.62,-10.14 -0.58,-10.14 0.44,-10.13 1.44,-10.11 2.41,-10.08 3.36,-10.05 4.29,-10.01 5.18,-9.96 6.05,-9.91 6.89,-9.85 7.69,-9.78 8.47,-9.7 9.22,-9.62 9.93,-9.54 10.61,-9.44 11.26,-9.34 11.88,-9.24 12.48,-9.13 13.04,-9.01 13.57,-8.89 14.07,-8.76 14.55,-8.63 15,-8.5 15.43,-8.36 15.84,-8.22 16.23,-8.07 16.59,-7.92 16.93,-7.76 17.24,-7.6 17.54,-7.44 17.82,-7.27 18.07,-7.1 18.31,-6.92 18.53,-6.74 18.72,-6.55 18.91,-6.37 19.07,-6.17 19.22,-5.98 19.35,-5.78 19.47,-5.58 19.58,-5.37 19.67,-5.16 19.74,-4.95 19.81,-4.74 19.86,-4.52 19.9,-4.3 19.93,-4.08 19.94,-3.86 19.95,-3.63" fill="none" stroke="black" stroke-width="1.6666666666666665" stroke-linejoin="round" filter="url(#fuzzy)" />
      <polyline id="rightLower" points="-34.58,-3.22 -34.43,-2.99 -34.22,-2.72 -33.97,-2.43 -33.66,-2.12 -33.32,-1.78 -32.93,-1.42 -32.5,-1.04 -32.03,-0.65 -31.53,-0.24 -30.99,0.17 -30.43,0.59 -29.83,1.02 -29.21,1.44 -28.57,1.87 -27.9,2.3 -27.21,2.73 -26.5,3.15 -25.77,3.57 -25.03,3.98 -24.27,4.38 -23.5,4.77 -22.72,5.16 -21.93,5.53 -21.13,5.88 -20.32,6.23 -19.35,6.76 -18.37,7.27 -17.38,7.75 -16.39,8.2 -15.4,8.62 -14.41,9 -13.42,9.36 -12.44,9.67 -11.46,9.96 -10.48,10.21 -9.51,10.42 -8.56,10.6 -7.61,10.75 -6.67,10.86 -5.74,10.94 -4.83,10.99 -3.93,11.01 -3.05,11 -2.18,10.95 -1.33,10.88 -0.49,10.78 0.33,10.66 1.13,10.51 1.91,10.33 2.68,10.14 3.43,9.92 4.16,9.69 4.87,9.44 5.56,9.17 6.23,8.88 6.88,8.58 7.51,8.27 8.13,7.95 8.72,7.62 9.3,7.28 9.86,6.94 10.4,6.59 10.93,6.23 11.43,5.87 11.92,5.51 12.4,5.15 12.85,4.79 13.29,4.43 13.72,4.07 14.13,3.71 14.53,3.36 14.91,3.01 15.28,2.66 15.64,2.32 15.99,1.99 16.32,1.66 16.65,1.33 16.96,1.01 17.27,0.69 17.56,0.38 17.85,0.08 18.13,-0.22 18.39,-0.52 18.65,-0.81 18.9,-1.09 19.14,-1.37 19.38,-1.64 19.6,-1.91 19.82,-2.17 20.03,-2.42 20.23,-2.66 20.43,-2.91 20.62,-3.14 20.8,-3.37 20.97,-3.59 21.14,-3.8 21.3,-4.01 21.46,-4.22 21.61,-4.42" fill="none" stroke="black" stroke-width="2.2222222222222223" stroke-linejoin="round" filter="url(#fuzzy)" />
      <circle r="4.272" cx="-14.284789363123453" cy="0.9816681233618749" stroke="black" fill="none" stroke-width="1.0" filter="url(#fuzzy)" clip-path="url(#rightEyeClipPath)" /><circle r="4.29" cx="-13.739789363123453" cy="0.10666812336187537" stroke="black" fill="none" stroke-width="1.0" filter="url(#fuzzy)" clip-path="url(#rightEyeClipPath)" /><circle r="3.422" cx="-12.374789363123455" cy="-1.1133318766381248" stroke="black" fill="none" stroke-width="1.0" filter="url(#fuzzy)" clip-path="url(#rightEyeClipPath)" /><circle r="3.184" cx="-10.744789363123452" cy="-1.0533318766381248" stroke="black" fill="none" stroke-width="1.0" filter="url(#fuzzy)" clip-path="url(#rightEyeClipPath)" /><circle r="4.264" cx="-14.969789363123454" cy="-1.4883318766381248" stroke="black" fill="none" stroke-width="1.0" filter="url(#fuzzy)" clip-path="url(#rightEyeClipPath)" /><circle r="4.7" cx="-11.959789363123454" cy="-0.6733318766381249" stroke="black" fill="none" stroke-width="1.0" filter="url(#fuzzy)" clip-path="url(#rightEyeClipPath)" /><circle r="4.064" cx="-14.894789363123454" cy="-1.8733318766381246" stroke="black" fill="none" stroke-width="1.0" filter="url(#fuzzy)" clip-path="url(#rightEyeClipPath)" /><circle r="4.604" cx="-11.524789363123453" cy="-1.0533318766381248" stroke="black" fill="none" stroke-width="1.0" filter="url(#fuzzy)" clip-path="url(#rightEyeClipPath)" /><circle r="4.414" cx="-15.144789363123454" cy="0.8016681233618757" stroke="black" fill="none" stroke-width="1.0" filter="url(#fuzzy)" clip-path="url(#rightEyeClipPath)" /><circle r="4.072" cx="-12.324789363123454" cy="-1.0333318766381248" stroke="black" fill="none" stroke-width="1.0" filter="url(#fuzzy)" clip-path="url(#rightEyeClipPath)" />
      </g>
    <g transform="translate(-36.78 -27.56)">
      <polyline id="leftUpper" points="31.68,-0.53 31.9,-0.89 32.08,-1.25 32.23,-1.59 32.33,-1.92 32.41,-2.24 32.44,-2.55 32.43,-2.85 32.39,-3.14 32.31,-3.43 32.19,-3.7 32.03,-3.97 31.84,-4.23 31.6,-4.48 31.33,-4.72 31.02,-4.95 30.68,-5.18 30.29,-5.4 29.88,-5.62 29.43,-5.82 28.94,-6.02 28.42,-6.21 27.87,-6.4 27.29,-6.58 26.68,-6.75 26.03,-6.92 25.43,-7.11 24.78,-7.29 24.07,-7.46 23.32,-7.63 22.52,-7.79 21.68,-7.95 20.8,-8.1 19.87,-8.24 18.92,-8.38 17.92,-8.51 16.9,-8.63 15.85,-8.75 14.78,-8.85 13.69,-8.95 12.58,-9.05 11.45,-9.13 10.32,-9.2 9.17,-9.27 8.02,-9.33 6.87,-9.38 5.72,-9.42 4.58,-9.45 3.44,-9.47 2.31,-9.49 1.2,-9.49 0.1,-9.49 -0.99,-9.47 -2.05,-9.45 -3.09,-9.42 -4.11,-9.38 -5.11,-9.34 -6.08,-9.28 -7.02,-9.22 -7.93,-9.14 -8.81,-9.06 -9.66,-8.97 -10.48,-8.88 -11.26,-8.77 -12.02,-8.66 -12.74,-8.55 -13.43,-8.42 -14.09,-8.29 -14.72,-8.16 -15.32,-8.02 -15.88,-7.87 -16.42,-7.72 -16.93,-7.56 -17.41,-7.4 -17.87,-7.24 -18.31,-7.07 -18.72,-6.9 -19.11,-6.73 -19.47,-6.55 -19.81,-6.37 -20.13,-6.18 -20.43,-5.99 -20.7,-5.79 -20.96,-5.59 -21.2,-5.39 -21.41,-5.19 -21.61,-4.98 -21.79,-4.77 -21.96,-4.55 -22.1,-4.33 -22.23,-4.12 -22.35,-3.89 -22.45,-3.67 -22.54,-3.44 -22.61,-3.21 -22.68,-2.98 -22.73,-2.75 -22.76,-2.52 -22.79,-2.28 -22.8,-2.04" fill="none" stroke="black" stroke-width="2.2222222222222223" stroke-linejoin="round" filter="url(#fuzzy)" />
      <polyline id="leftLower" points="33.33,-2.66 33.22,-2.44 33.08,-2.19 32.9,-1.93 32.68,-1.65 32.42,-1.35 32.13,-1.04 31.81,-0.72 31.45,-0.38 31.07,-0.04 30.65,0.31 30.2,0.66 29.73,1.02 29.23,1.38 28.7,1.74 28.16,2.1 27.58,2.46 26.99,2.81 26.38,3.16 25.74,3.51 25.09,3.85 24.42,4.18 23.74,4.51 23.04,4.83 22.33,5.14 21.6,5.44 20.78,5.87 19.95,6.29 19.09,6.69 18.22,7.06 17.33,7.42 16.43,7.75 15.52,8.06 14.6,8.35 13.67,8.61 12.73,8.85 11.78,9.06 10.83,9.25 9.88,9.41 8.93,9.54 7.98,9.66 7.03,9.74 6.08,9.8 5.14,9.84 4.21,9.86 3.28,9.85 2.36,9.82 1.46,9.77 0.56,9.7 -0.33,9.6 -1.2,9.49 -2.05,9.36 -2.9,9.22 -3.73,9.05 -4.54,8.87 -5.33,8.68 -6.11,8.47 -6.87,8.26 -7.61,8.03 -8.33,7.79 -9.03,7.54 -9.71,7.28 -10.38,7.01 -11.02,6.74 -11.65,6.47 -12.25,6.19 -12.84,5.9 -13.41,5.61 -13.96,5.33 -14.49,5.04 -15,4.75 -15.5,4.46 -15.98,4.17 -16.44,3.88 -16.89,3.6 -17.32,3.32 -17.74,3.04 -18.15,2.76 -18.54,2.49 -18.92,2.22 -19.29,1.95 -19.64,1.68 -19.98,1.42 -20.32,1.16 -20.64,0.9 -20.94,0.65 -21.24,0.4 -21.53,0.16 -21.8,-0.08 -22.07,-0.32 -22.32,-0.55 -22.57,-0.78 -22.81,-1 -23.03,-1.22 -23.25,-1.43 -23.46,-1.64 -23.67,-1.84 -23.86,-2.04 -24.05,-2.23 -24.23,-2.42" fill="none" stroke="black" stroke-width="2.2222222222222223" stroke-linejoin="round" filter="url(#fuzzy)" />
      <circle r="3.358" cx="4.401173042427436" cy="-2.1761952478710374" stroke="black" fill="none" stroke-width="1.0" filter="url(#fuzzy)" clip-path="url(#leftEyeClipPath)" /><circle r="4.282" cx="6.506173042427434" cy="-4.026195247871037" stroke="black" fill="none" stroke-width="1.0" filter="url(#fuzzy)" clip-path="url(#leftEyeClipPath)" /><circle r="4.868" cx="3.8811730424274353" cy="-5.1261952478710375" stroke="black" fill="none" stroke-width="1.0" filter="url(#fuzzy)" clip-path="url(#leftEyeClipPath)" /><circle r="4.21" cx="4.376173042427435" cy="-5.931195247871037" stroke="black" fill="none" stroke-width="1.0" filter="url(#fuzzy)" clip-path="url(#leftEyeClipPath)" /><circle r="4.152" cx="5.111173042427435" cy="-1.4711952478710373" stroke="black" fill="none" stroke-width="1.0" filter="url(#fuzzy)" clip-path="url(#leftEyeClipPath)" /><circle r="3.558" cx="4.5811730424274355" cy="-5.526195247871037" stroke="black" fill="none" stroke-width="1.0" filter="url(#fuzzy)" clip-path="url(#leftEyeClipPath)" /><circle r="4.056" cx="2.7561730424274353" cy="-2.5111952478710378" stroke="black" fill="none" stroke-width="1.0" filter="url(#fuzzy)" clip-path="url(#leftEyeClipPath)" /><circle r="3.642" cx="6.481173042427436" cy="-1.4511952478710377" stroke="black" fill="none" stroke-width="1.0" filter="url(#fuzzy)" clip-path="url(#leftEyeClipPath)" /><circle r="4.014" cx="2.2911730424274355" cy="-1.646195247871037" stroke="black" fill="none" stroke-width="1.0" filter="url(#fuzzy)" clip-path="url(#leftEyeClipPath)" /><circle r="4.802" cx="3.026173042427436" cy="-3.3661952478710373" stroke="black" fill="none" stroke-width="1.0" filter="url(#fuzzy)" clip-path="url(#leftEyeClipPath)" />
    </g>
    <g id="hairs">
      <polyline points="-27.97,-82.47 -31.55,-79.5 -31.49,-79.45 -30.02,-79.89 -26.75,-80.19 -21.42,-80.16 -14.66,-79.94 -7.73,-79.67 -2,-79.32 1.45,-78.64 2.01,-77.55 -0.4,-76.4 -5.35,-75.91 -11.82,-76.62 -18.21,-78.21 -22.52,-79.37 -22.07,-78.95 -9.9,-77.94 32.84,-79.13" fill="none" stroke="rgb(255, 236, 139)" stroke-width="2" stroke-linejoin="round" filter="url(#fuzzy)" /><polyline points="39.8,-72.42 39.85,-68.39 27.76,-72.21 18.08,-76.32 16.86,-77.67 21.15,-77.02 25.87,-76.3 28.13,-76.73 27.83,-78.28 26.15,-80.05 24.19,-80.97 22.3,-80.05 20.35,-76.58 18.13,-70.48 16.01,-63.34 16.91,-59.13 27.74,-61.9 39.8,-72.42" fill="none" stroke="rgb(255, 236, 139)" stroke-width="2" stroke-linejoin="round" filter="url(#fuzzy)" /><polyline points="2.11,-91.29 -8.46,-86.61 -12.43,-79.4 -8.63,-73.23 -4.52,-70.9 -2.46,-73.07 -1.09,-77.91 1,-82.8 3.85,-85.98 6.07,-86.92 5.49,-85.83 0.15,-82.99 -10.04,-78.75 -21.18,-74.11 -24.38,-70.96 -6.7,-69.56 48.1,-62" fill="none" stroke="rgb(255, 236, 139)" stroke-width="2" stroke-linejoin="round" filter="url(#fuzzy)" /><polyline points="5.34,-90.98 23.64,-74.12 27.32,-70.4 30.29,-69.05 29.49,-69.44 24.44,-70.25 17.22,-70.26 10.11,-69.52 4.64,-68.88 1.51,-69.08 0.66,-70.17 1.36,-71.65 2.59,-72.78 3.52,-72.93 3.96,-71.76 4.44,-69.33 5.89,-66.15 9.21,-62.91 14.54,-60.15 20.48,-58.17 23.78,-57.37 20.65,-58.77 10.59,-63.26 -2.89,-69.1 -40.32,-72.14" fill="none" stroke="rgb(255, 236, 139)" stroke-width="2" stroke-linejoin="round" filter="url(#fuzzy)" /><polyline points="0.3,-91.31 18.89,-77.41 17.74,-72.24 8.96,-69.96 -3.25,-70.15 -13.75,-72.2 -19.73,-75.28 -21.27,-78.39 -19.72,-80.57 -16.24,-81.02 -11.13,-79.26 -4.17,-75.3 4.52,-69.69 13.78,-63.56 21.56,-58.38 25.82,-55.47 25.65,-55.5 21.63,-58.16 15.06,-62.36 6.95,-66.8 -1.72,-70.42 -7.98,-72.26 -4.98,-70.89 16.92,-62.92 61.15,-32.99" fill="none" stroke="rgb(255, 236, 139)" stroke-width="2" stroke-linejoin="round" filter="url(#fuzzy)" /><polyline points="-50.7,-57.95 -30.37,-71.31 -8.33,-69.28 6,-64.04 8.03,-62.47 2.88,-64.95 -2.61,-68.77 -5.24,-71.54 -6.03,-72.45 -7.82,-71.99 -12.3,-71.23 -18.54,-71.08 -24.1,-71.77 -27.1,-72.56 -26.91,-72.01 -21.91,-69.38 -7.08,-66.2 20.57,-66.22 37.66,-74.36" fill="none" stroke="rgb(255, 236, 139)" stroke-width="2" stroke-linejoin="round" filter="url(#fuzzy)" /><polyline points="25.75,-84.06 28.06,-81 24.66,-80.82 17.61,-83.03 10.07,-84.82 2.96,-85.37 -2.83,-85.04 -6.13,-84.22 -6.32,-82.78 -3.85,-80.3 0.2,-76.68 4.62,-72.52 8.63,-68.95 11.99,-67.05 14.99,-67.2 18.25,-68.72 22.44,-70.02 27.88,-69.3 34.26,-65.56 40.04,-59.84 40.85,-56.09 26.59,-60.73 -24.04,-84.78" fill="none" stroke="rgb(255, 236, 139)" stroke-width="2" stroke-linejoin="round" filter="url(#fuzzy)" /><polyline points="56.2,-46.65 37.32,-43.66 19.38,-48.68 12.62,-56.25 9.59,-64.14 5.67,-70.37 0.62,-74.53 -2.9,-77.46 -2.11,-79.85 3.28,-81.55 10.75,-82.08 16.71,-81.62 18.57,-81.6 16.05,-83.81 11.71,-87.85 6.54,-90.61" fill="none" stroke="rgb(255, 236, 139)" stroke-width="2" stroke-linejoin="round" filter="url(#fuzzy)" /><polyline points="49.97,-58.87 12.84,-72.56 8.95,-69.66 18.87,-65.05 25.82,-62.92 25.46,-63.21 20.89,-64.68 16.33,-66.67 13.8,-69.29 13.06,-72.64 12.91,-76.21 12.47,-79.05 11.42,-80.39 9.78,-80.15 8.02,-79.01 7.75,-78.14 10.78,-78.69 11.74,-81.42 -14.04,-88.96" fill="none" stroke="rgb(255, 236, 139)" stroke-width="2" stroke-linejoin="round" filter="url(#fuzzy)" /><polyline points="-50.82,-57.63 -17.77,-71.85 -2.67,-71.18 1.64,-69.17 2.82,-69.3 3.96,-70.48 5.17,-70.66 5.55,-69.07 4.95,-66.48 4.36,-64.3 4.75,-63.54 5.8,-64.34 6.03,-66.09 4.25,-67.97 1.08,-69.43 -0.95,-70.29 0.86,-70.28 5.78,-68.84 5.75,-66.65 -13.01,-66.88 -48.77,-61.05" fill="none" stroke="rgb(255, 236, 139)" stroke-width="2" stroke-linejoin="round" filter="url(#fuzzy)" /><polyline points="12.94,-89.44 5.79,-77.43 -15.32,-71.06 -26.13,-70.37 -27.52,-72.47 -24.65,-74.36 -20.84,-74.51 -17.56,-73.12 -15.84,-71.29 -16.52,-70 -19.74,-69.47 -24.46,-69.34 -28.79,-69.27 -30.86,-69.27 -29.89,-69.65 -26.66,-70.54 -23,-71.56 -20.07,-72.06 -16.25,-71.82 -7.09,-71.77 10.26,-73.24 29.18,-75.8 36.35,-76.01" fill="none" stroke="rgb(255, 236, 139)" stroke-width="2" stroke-linejoin="round" filter="url(#fuzzy)" /><polyline points="-3.5,-90.9 13.04,-83.61 26.85,-76.56 32.43,-74.7 33.52,-75.33 32.84,-76.05 30.72,-75.94 26.38,-75.05 19.52,-73.9 11.22,-72.95 3.59,-72.31 -1.46,-71.76 -3.44,-71.14 -3.59,-70.75 -4.08,-71.29 -6.33,-73.17 -9.56,-75.84 -10.24,-77.92 -3.51,-78 13.39,-74.64 37,-64.4 58.72,-40.66" fill="none" stroke="rgb(255, 236, 139)" stroke-width="2" stroke-linejoin="round" filter="url(#fuzzy)" />
    </g>
    
        <g id="lineNose">
        <path d="M -7.89,27.98 Q 9.59, 30.299999999999997 0.8500000000000001, -5.912" fill="none" stroke="black" stroke-width="3" stroke-linejoin="round" filter="url(#fuzzy)"></path>
        </g>
      
    <g id="mouth">
      <polyline points="26.37,56.08 26.4,56.98 26.53,57.53 26.25,58.42 26.23,59.13 25.79,60.53 25.71,60.72 25.41,61.75 25.68,60.94 24.8,62.46 25.12,62.15 24.42,63.16 24.69,62.69 24.31,63.36 23.36,64.8 22.6,65.58 23.46,64.54 22.42,65.77 22.6,65.49 20.64,67.38 21.26,66.7 20.89,67.01 20.58,67.44 18.07,69.02 19.02,68.41 18.76,68.68 16,70.23 17.1,69.56 15.03,70.68 14.39,70.9 15.07,70.71 13.88,71.22 12.69,71.6 13.19,71.43 12.35,71.72 11.76,71.98 10.18,72.46 8.53,72.88 8.72,72.83 7.95,73.02 6.68,73.25 4.24,73.66 4.81,73.59 3.31,73.78 1.97,73.92 1.2,73.98 0.27,74.03 1.55,73.95 -0.32,74.05 -1.71,74.07 -2.31,74.07 -2.45,74.07 -4.72,73.98 -6.28,73.85 -5.02,73.96 -6.62,73.81 -8.68,73.55 -9.16,73.46 -9.56,73.41 -10.8,73.19 -12.36,72.83 -11.9,72.94 -13.34,72.6 -13.77,72.45 -14.55,72.22 -15.23,72.04 -14.74,72.19 -15.64,71.85 -16.36,71.58 -16.84,71.39 -17.96,70.99 -19.03,70.46 -19.19,70.44 -21.52,69.3 -20.99,69.52 -21.41,69.26 -23.91,67.71 -23.68,67.83 -23.77,67.81 -25.08,66.69 -24.75,67.09 -26.11,65.77 -26.17,65.9 -26.25,65.73 -26.82,64.96 -26.84,65.09 -28.43,63.02 -28.16,63.48 -29.03,62.32 -28.91,62.13 -28.72,62.44 -29.52,60.92 -29.57,60.89 -30.35,59.33 -29.93,59.99 -30.26,59.45 -30.1,59.43 -30.38,58.72 -30.47,58.17 -30.51,56.93 -30.56,56.73 -30.55,54.97 -30.74,55.29 -30.61,55.44 -30.46,55.07 -30.48,54.18 -29.8,52.28 -30.29,53.62 -29.57,51.73 -29.5,51.71 -28.88,50.53 -28.67,49.86 -28.72,50 -28.33,49.66 -27.5,48.38 -27.85,48.82 -27.21,48.04 -26.28,47.12 -25.38,46.39 -26.5,47.38 -25.99,46.92 -25.42,46.47 -22.86,44.59 -24.06,45.34 -22.45,44.3 -22.87,44.53 -21.09,43.44 -20.83,43.32 -20.57,43.19 -19.22,42.54 -18.47,42.23 -17.6,41.93 -16.47,41.47 -16.57,41.55 -16.58,41.53 -15.38,41.19 -13.26,40.6 -13.22,40.52 -12.68,40.45 -13.1,40.5 -9.85,39.89 -9.51,39.79 -8.48,39.67 -8.05,39.59 -6.01,39.4 -6.54,39.44 -6.29,39.44 -3.67,39.29 -2.35,39.27 -3.49,39.28 -0.66,39.3 0.17,39.34 0.53,39.35 2.08,39.47 2.93,39.56 4.45,39.74 4.82,39.83 3.77,39.67 5.7,39.98 6.49,40.1 6.87,40.16 6.53,40.11 7.68,40.35 10.69,41.12 9.44,40.83 10.79,41.22 11.71,41.48 11.67,41.49 12.35,41.67 13.19,41.96 15.32,42.87 15.33,42.88 16.56,43.56 16.52,43.58 18.57,44.68 19.34,45.21 17.82,44.22 19.29,45.25 20.29,45.8 20.51,45.96 22.03,47.4 21.99,47.42 21.95,47.29 22.27,47.61 23.51,48.85 23,48.26 24.16,49.84 24.29,49.86 24.33,50.21 25.07,51.05 24.78,50.58 25.41,52.09 25.62,52.62 25.75,52.98 26.1,54.03 25.94,53.2 26.1,53.91 26.47,56.19 26.63,56.39 26.49,56.58" fill="rgb(215,127,140)" stroke="black" stroke-width="3" stroke-linejoin="round" filter="url(#fuzzy)" />
    </g>
  </svg>