<svg viewBox="-100 -100 200 200" xmlns="http://www.w3.org/2000/svg" width="500" height="500" id="face-svg">
    <defs>
      <clipPath id="leftEyeClipPath">
        <polyline points="26.12,-3.18 25.84,-3.75 25.52,-4.31 25.18,-4.86 24.8,-5.41 24.4,-5.95 23.98,-6.48 23.53,-7 23.06,-7.51 22.56,-8 22.05,-8.48 21.52,-8.94 20.97,-9.39 20.4,-9.82 19.82,-10.24 19.22,-10.64 18.52,-11.21 17.81,-11.75 17.07,-12.27 16.33,-12.75 15.57,-13.2 14.79,-13.62 14.01,-14 13.21,-14.34 12.41,-14.66 11.6,-14.93 10.78,-15.17 9.95,-15.38 9.12,-15.55 8.29,-15.69 7.45,-15.8 6.61,-15.87 5.77,-15.91 4.93,-15.92 4.09,-15.9 3.25,-15.85 2.42,-15.78 1.59,-15.67 0.76,-15.54 -0.06,-15.39 -0.87,-15.21 -1.68,-15.02 -2.47,-14.8 -3.26,-14.56 -4.04,-14.3 -4.81,-14.03 -5.56,-13.75 -6.3,-13.44 -7.03,-13.13 -7.75,-12.81 -8.45,-12.47 -9.14,-12.13 -9.81,-11.78 -10.46,-11.42 -11.1,-11.06 -11.71,-10.7 -12.32,-10.33 -12.9,-9.96 -13.46,-9.59 -14.01,-9.22 -14.54,-8.84 -15.04,-8.47 -15.53,-8.11 -16,-7.74 -16.45,-7.38 -16.87,-7.02 -17.28,-6.66 -17.68,-6.31 -18.05,-5.96 -18.41,-5.61 -18.74,-5.26 -19.06,-4.92 -19.36,-4.58 -19.65,-4.25 -19.91,-3.92 -20.16,-3.59 -20.38,-3.26 -20.59,-2.94 -20.78,-2.63 -20.95,-2.32 -23.39,4.26 -22.91,4.45 -22.41,4.65 -21.91,4.86 -21.39,5.07 -20.87,5.29 -20.34,5.51 -19.8,5.74 -19.25,5.97 -18.69,6.22 -18.12,6.46 -17.55,6.72 -16.97,6.98 -16.39,7.24 -15.79,7.52 -15.19,7.79 -14.58,8.08 -13.96,8.37 -13.33,8.66 -12.69,8.97 -12.05,9.28 -11.4,9.59 -10.74,9.91 -10.08,10.23 -9.41,10.56 -8.74,10.89 -8.07,11.22 -7.39,11.55 -6.71,11.88 -6.02,12.22 -5.34,12.55 -4.65,12.87 -3.96,13.2 -3.27,13.51 -2.59,13.82 -1.89,14.12 -1.2,14.42 -0.51,14.7 0.18,14.96 0.87,15.21 1.56,15.45 2.26,15.67 2.95,15.87 3.64,16.04 4.34,16.2 5.03,16.33 5.73,16.43 6.43,16.51 7.13,16.55 7.83,16.57 8.53,16.56 9.24,16.51 9.94,16.43 10.65,16.31 11.36,16.16 12.08,15.97 12.79,15.74 13.51,15.48 14.23,15.17 14.95,14.83 15.67,14.45 16.4,14.04 17.12,13.58 17.84,13.1 18.56,12.57 19.13,12.24 19.68,11.88 20.23,11.51 20.77,11.11 21.3,10.7 21.82,10.27 22.32,9.83 22.81,9.37 23.28,8.89 23.74,8.4 24.18,7.9 24.6,7.39 24.99,6.86 25.37,6.33 25.71,5.79" />
      </clipPath>
      <clipPath id="rightEyeClipPath">
        <polyline points="-24.65,-3.62 -24.42,-4.4 -24.16,-5.17 -23.87,-5.92 -23.54,-6.66 -23.18,-7.39 -22.79,-8.1 -22.37,-8.79 -21.93,-9.47 -21.46,-10.12 -20.97,-10.76 -20.46,-11.37 -19.92,-11.96 -19.37,-12.53 -18.8,-13.07 -18.21,-13.59 -17.52,-14.33 -16.81,-15.03 -16.08,-15.69 -15.33,-16.31 -14.56,-16.89 -13.79,-17.42 -12.99,-17.9 -12.19,-18.34 -11.37,-18.74 -10.55,-19.08 -9.71,-19.39 -8.87,-19.64 -8.03,-19.86 -7.17,-20.03 -6.32,-20.16 -5.46,-20.24 -4.61,-20.29 -3.75,-20.29 -2.89,-20.26 -2.04,-20.19 -1.19,-20.09 -0.35,-19.95 0.49,-19.78 1.32,-19.58 2.14,-19.35 2.95,-19.1 3.76,-18.82 4.55,-18.51 5.33,-18.19 6.09,-17.84 6.84,-17.48 7.58,-17.1 8.3,-16.71 9.01,-16.3 9.69,-15.88 10.36,-15.46 11.01,-15.02 11.64,-14.58 12.26,-14.13 12.85,-13.68 13.42,-13.22 13.97,-12.76 14.5,-12.31 15.01,-11.85 15.5,-11.4 15.96,-10.94 16.4,-10.5 16.83,-10.05 17.23,-9.61 17.6,-9.18 17.96,-8.75 18.3,-8.32 18.62,-7.9 18.92,-7.48 19.19,-7.06 19.45,-6.65 19.68,-6.25 19.9,-5.85 20.09,-5.45 20.27,-5.07 20.42,-4.68 20.55,-4.31 20.67,-3.94 20.76,-3.57 21.77,4.42 21.21,4.66 20.65,4.91 20.08,5.17 19.5,5.44 18.91,5.72 18.32,6 17.72,6.3 17.11,6.6 16.5,6.91 15.89,7.23 15.27,7.56 14.65,7.9 14.03,8.25 13.4,8.61 12.77,8.98 12.13,9.36 11.49,9.74 10.84,10.14 10.19,10.55 9.54,10.96 8.89,11.38 8.24,11.82 7.59,12.26 6.94,12.7 6.3,13.16 5.66,13.62 5.02,14.08 4.39,14.54 3.77,15.01 3.15,15.48 2.54,15.94 1.93,16.4 1.33,16.86 0.74,17.3 0.15,17.74 -0.43,18.17 -1.01,18.58 -1.58,18.97 -2.14,19.35 -2.7,19.71 -3.26,20.04 -3.82,20.35 -4.38,20.63 -4.93,20.88 -5.48,21.09 -6.04,21.27 -6.6,21.42 -7.16,21.52 -7.72,21.58 -8.3,21.6 -8.87,21.57 -9.46,21.49 -10.05,21.37 -10.66,21.19 -11.27,20.96 -11.89,20.67 -12.53,20.34 -13.18,19.94 -13.84,19.5 -14.51,18.99 -15.19,18.44 -15.89,17.82 -16.6,17.16 -17.31,16.44 -17.83,16 -18.34,15.52 -18.84,15.02 -19.34,14.48 -19.84,13.92 -20.33,13.34 -20.8,12.73 -21.27,12.1 -21.73,11.44 -22.17,10.76 -22.6,10.07 -23.01,9.35 -23.4,8.62 -23.77,7.88 -24.11,7.12" />
      </clipPath>
      <filter id="fuzzy">
        <feTurbulence id="turbulence" baseFrequency="0.05" numOctaves="3" type="noise" result="noise" />
        <feDisplacementMap in="SourceGraphic" in2="noise" scale="2" />
      </filter>
      <linearGradient id="rainbowGradient" x1="0%" y1="0%" x2="100%" y2="0%">
        <stop offset="0%" style="stop-color: [object Object]; stop-opacity: 1" />
        <stop offset="50%" style="stop-color: [object Object]; stop-opacity: 1" />
        <stop offset="100%" style="stop-color: [object Object]; stop-opacity: 1" />
      </linearGradient>
    </defs>
    <rect x="-100" y="-100" width="100%" height="100%" fill="rgb(255, 255, 224)" />
    <polyline id="faceContour" points="70.38,0.39 70.54,2.42 70.41,1.55 70.25,5.91 70.38,6.19 70.36,7.42 70.02,10.2 69.96,9 69.74,10.33 69.51,11.57 69.83,11.83 69.25,15.53 68.94,18.57 69.13,17.76 68.83,19.47 68.8,19.53 67.83,22.39 67.69,23.51 67.97,23.78 67.24,25.83 66.76,27.98 67.08,27.47 66.38,29.79 65.91,30.85 65.64,31.66 64.84,33.93 64.48,34.5 64.26,35.95 64.13,37.28 62.54,39.87 62.01,41.37 62.71,40.62 61.19,42.95 60.97,43.6 60.35,45.65 60.11,45.24 59.74,47.15 58.26,49.01 58.59,48.78 57.57,50.57 57.3,51.54 55.65,53.23 56.72,52.11 54.3,56.1 55.05,55.28 54.67,55.95 53.24,57.32 51.3,60.48 51.67,59.3 49.24,62.71 48.96,62.99 48.35,63.59 47.13,65.14 47.35,65.43 46.1,66.2 46.52,66.72 45.74,67.26 45.04,67.77 42.59,70.12 42.02,70.61 40.67,71.63 39.91,72.28 38.51,73.87 39.49,73.07 39.52,73.17 36.71,75.06 35.12,76.35 36.33,75.86 35.89,75.84 33.55,77.31 32.43,78.12 29.83,79.63 30.68,79.27 28.85,80.37 27.21,81.07 26.25,82.17 25.8,81.81 26.13,81.91 25.47,82.19 22.84,82.9 20.75,84.3 20.48,83.88 20.36,84.35 18.81,85.09 16.48,85.68 15.57,85.81 13.96,86.2 13.06,86.69 13.34,86.57 11.2,87.1 10.32,86.97 9.04,87.32 10.02,87.16 8.36,87.3 5.81,87.9 4.78,87.85 5.46,87.85 3.24,87.79 2.07,88.02 0.59,88.27 -0.07,88.07 -1.64,87.83 -0.86,87.97 -3.3,88.17 -5.1,87.92 -6.07,87.82 -7.13,87.44 -5.97,87.49 -10.1,87.2 -9.36,87.25 -11.41,87.1 -10.78,86.88 -12.41,86.76 -14.31,86.26 -15.72,85.62 -16.23,85.54 -17.07,85.67 -19.51,84.55 -19.11,84.56 -20.87,84.35 -21.15,84.14 -21.42,83.77 -23.38,82.67 -24.72,82.44 -25.9,81.98 -27.16,81.22 -26.62,81.42 -28.75,80.36 -29.42,79.96 -30.96,79.49 -31.66,78.28 -33.23,78.05 -34.15,77.32 -36.09,75.4 -36.15,75.72 -37.02,75.3 -38.41,73.37 -39.13,73.94 -39.4,72.89 -40.39,71.97 -41.64,70.96 -41.44,70.48 -43.5,69.24 -43.63,69.2 -45.18,67.14 -44.77,67.62 -47.07,64.99 -47.15,65.82 -49.02,63.54 -48.83,63.52 -49.49,62.27 -50.6,61.43 -51.97,59.11 -52.38,58.62 -53.48,57.35 -54.64,55.78 -53.02,57.59 -55.37,54.77 -56.22,52.99 -56.98,52.1 -56.64,51 -57.26,51.36 -58.05,49.2 -58.85,48.19 -59.91,46.13 -60.2,44.99 -60.19,45.57 -61.69,42.48 -62.18,41.51 -62.43,40.73 -63.32,38.9 -63.91,37.25 -63.39,37.89 -64.1,37.03 -64.9,34.5 -65.34,34.11 -65.67,31.32 -65.7,31.94 -65.94,30.59 -66.92,27.93 -67.55,25.62 -67.54,24.37 -67.77,23.87 -67.46,24.58 -68.17,21.07 -68.38,20.77 -68.92,19.37 -69.1,17.42 -69.13,17.38 -69.47,15.01 -69.29,13.31 -69.68,11.68 -69.86,10.7 -70.12,9.97 -69.88,9.79 -70.07,7.18 -70.38,6.41 -70.1,5.24 -70.29,4.07 -70.48,0.32 -70.22,0.96 -70.24,-2.06 -70.5,-3.31 -70.29,-4.97 -70.47,-5.87 -70.25,-6.31 -70,-9.32 -70.15,-7.83 -70.02,-10.92 -70.05,-11.32 -69.61,-11.87 -69.59,-14.06 -69.22,-15.99 -69.2,-16.71 -68.63,-20.52 -68.81,-18.9 -67.71,-23.72 -68.17,-23.49 -67.46,-25.12 -67.73,-24.36 -66.75,-28.4 -66.25,-29.23 -66.24,-30.28 -65.63,-30.85 -65.52,-32.44 -65.47,-33.08 -64.56,-35.91 -64.39,-35.04 -63.91,-37.18 -63.4,-38.02 -62.8,-39.48 -61.89,-41 -61.47,-42.03 -61.04,-43.36 -59.84,-46.58 -59.31,-46.36 -60.05,-45.51 -58.63,-47.6 -59.02,-48.98 -56.61,-51.82 -57.43,-51.15 -55.23,-54.29 -55.61,-53.85 -54.84,-54.67 -53.75,-55.89 -52.72,-57.22 -51.61,-59.66 -51.36,-60.21 -50.66,-60.95 -51.31,-61.18 -49.03,-62.46 -47.41,-64.94 -47.69,-64.88 -46.92,-64.98 -45.65,-66.69 -45.56,-66.85 -45.49,-66.8 -42.91,-69.78 -42.61,-70.2 -42.21,-70.18 -40.85,-71.72 -41.02,-71.61 -38.44,-73.26 -39.81,-72.6 -38,-74.14 -36.79,-74.84 -37.05,-75.17 -34.56,-76.51 -33.49,-77.27 -32.18,-78.32 -32.18,-78.72 -31,-78.87 -29.01,-79.77 -27.56,-81.02 -29.01,-80.5 -26.52,-81.21 -25.52,-81.54 -25.87,-82.22 -24.77,-82.4 -23.09,-83.18 -21.96,-83.21 -21.02,-83.68 -19.81,-84.41 -19.63,-84.56 -16.52,-85.38 -16.08,-85.82 -13.54,-86.25 -15.85,-85.72 -14.54,-85.92 -12.63,-86.62 -10.83,-87.03 -8.89,-87.43 -9.11,-87.23 -6.96,-87.32 -6.28,-87.87 -5.39,-87.4 -2.97,-87.67 -4.13,-87.77 -1.9,-87.8 -1.57,-88.15 0.94,-88 0.87,-87.71 2.71,-88.09 4.61,-87.78 4.59,-88.03 5.24,-87.96 6.29,-87.42 6.73,-87.29 7.78,-87.3 9.5,-87.33 11.5,-86.51 11.77,-86.7 13.61,-86.31 14.46,-86.23 15.27,-85.8 16.11,-85.43 17.46,-85.05 19.03,-84.44 20.3,-84.5 21.52,-83.61 22.37,-83.63 22.18,-83.25 23.71,-82.69 24.54,-82.4 25.57,-82.34 27.5,-81.06 28.55,-80.8 28.86,-80.31 29.59,-79.87 30.32,-79.54 31.71,-78.66 33.32,-77.4 35.46,-76.09 34.2,-76.65 36.68,-75 34.94,-76.14 36.53,-75.07 39.01,-72.93 39.18,-72.58 40.47,-71.96 40.35,-71.69 42.54,-69.63 42.13,-70.2 43.68,-68.68 43.91,-68.42 44.3,-68.49 46.95,-65.32 48.25,-64.15 48.29,-64.46 48.31,-64.17 49.58,-62.04 49.6,-62.62 51.71,-59.79 50.88,-60.5 53.1,-57.98 53.52,-56.58 55.27,-55.03 55.45,-53.76 56.29,-53 56.04,-52.83 56.12,-52.67 57.44,-50.89 57.94,-49.67 58.96,-47.54 59.45,-47.37 60.28,-46.18 60.63,-44.7 61.2,-43.02 60.87,-43.84 62.22,-41.17 62.84,-39.85 62.57,-40.22 63.95,-37.05 64.09,-36.46 64.34,-35.13 64.78,-34.29 65.96,-30.69 65.97,-31.05 66.82,-28.02 66.74,-28.66 66.22,-28.99 67.48,-25.47 67.59,-25.09 68.51,-21.38 68.16,-22.41 68.52,-19.9 68.73,-18.73 68.43,-19.62 69.44,-16.14 69.38,-15.77 69.35,-13.86 69.84,-11.95 69.89,-10.51 69.74,-10.56 70.06,-6.31 70.26,-7.43 70.34,-6.25 70.44,-4.32 70.61,-2.17 70.46,-0.37 70.38,0.39 70.54,2.42" fill="rgb(210, 180, 140)" stroke="black" stroke-width="1.6666666666666665" stroke-linejoin="round" filter="url(#fuzzy)" />
    <g transform="translate(43.92 -28.23)">
      <polyline id="rightCountour" points="-24.65,-3.62 -24.42,-4.4 -24.16,-5.17 -23.87,-5.92 -23.54,-6.66 -23.18,-7.39 -22.79,-8.1 -22.37,-8.79 -21.93,-9.47 -21.46,-10.12 -20.97,-10.76 -20.46,-11.37 -19.92,-11.96 -19.37,-12.53 -18.8,-13.07 -18.21,-13.59 -17.52,-14.33 -16.81,-15.03 -16.08,-15.69 -15.33,-16.31 -14.56,-16.89 -13.79,-17.42 -12.99,-17.9 -12.19,-18.34 -11.37,-18.74 -10.55,-19.08 -9.71,-19.39 -8.87,-19.64 -8.03,-19.86 -7.17,-20.03 -6.32,-20.16 -5.46,-20.24 -4.61,-20.29 -3.75,-20.29 -2.89,-20.26 -2.04,-20.19 -1.19,-20.09 -0.35,-19.95 0.49,-19.78 1.32,-19.58 2.14,-19.35 2.95,-19.1 3.76,-18.82 4.55,-18.51 5.33,-18.19 6.09,-17.84 6.84,-17.48 7.58,-17.1 8.3,-16.71 9.01,-16.3 9.69,-15.88 10.36,-15.46 11.01,-15.02 11.64,-14.58 12.26,-14.13 12.85,-13.68 13.42,-13.22 13.97,-12.76 14.5,-12.31 15.01,-11.85 15.5,-11.4 15.96,-10.94 16.4,-10.5 16.83,-10.05 17.23,-9.61 17.6,-9.18 17.96,-8.75 18.3,-8.32 18.62,-7.9 18.92,-7.48 19.19,-7.06 19.45,-6.65 19.68,-6.25 19.9,-5.85 20.09,-5.45 20.27,-5.07 20.42,-4.68 20.55,-4.31 20.67,-3.94 20.76,-3.57 21.77,4.42 21.21,4.66 20.65,4.91 20.08,5.17 19.5,5.44 18.91,5.72 18.32,6 17.72,6.3 17.11,6.6 16.5,6.91 15.89,7.23 15.27,7.56 14.65,7.9 14.03,8.25 13.4,8.61 12.77,8.98 12.13,9.36 11.49,9.74 10.84,10.14 10.19,10.55 9.54,10.96 8.89,11.38 8.24,11.82 7.59,12.26 6.94,12.7 6.3,13.16 5.66,13.62 5.02,14.08 4.39,14.54 3.77,15.01 3.15,15.48 2.54,15.94 1.93,16.4 1.33,16.86 0.74,17.3 0.15,17.74 -0.43,18.17 -1.01,18.58 -1.58,18.97 -2.14,19.35 -2.7,19.71 -3.26,20.04 -3.82,20.35 -4.38,20.63 -4.93,20.88 -5.48,21.09 -6.04,21.27 -6.6,21.42 -7.16,21.52 -7.72,21.58 -8.3,21.6 -8.87,21.57 -9.46,21.49 -10.05,21.37 -10.66,21.19 -11.27,20.96 -11.89,20.67 -12.53,20.34 -13.18,19.94 -13.84,19.5 -14.51,18.99 -15.19,18.44 -15.89,17.82 -16.6,17.16 -17.31,16.44 -17.83,16 -18.34,15.52 -18.84,15.02 -19.34,14.48 -19.84,13.92 -20.33,13.34 -20.8,12.73 -21.27,12.1 -21.73,11.44 -22.17,10.76 -22.6,10.07 -23.01,9.35 -23.4,8.62 -23.77,7.88 -24.11,7.12" fill="white" stroke="white" stroke-width="0" stroke-linejoin="round" filter="url(#fuzzy)" />
    </g>
    <g transform="translate(-39.78 -24.32)">
      <polyline id="leftCountour" points="26.12,-3.18 25.84,-3.75 25.52,-4.31 25.18,-4.86 24.8,-5.41 24.4,-5.95 23.98,-6.48 23.53,-7 23.06,-7.51 22.56,-8 22.05,-8.48 21.52,-8.94 20.97,-9.39 20.4,-9.82 19.82,-10.24 19.22,-10.64 18.52,-11.21 17.81,-11.75 17.07,-12.27 16.33,-12.75 15.57,-13.2 14.79,-13.62 14.01,-14 13.21,-14.34 12.41,-14.66 11.6,-14.93 10.78,-15.17 9.95,-15.38 9.12,-15.55 8.29,-15.69 7.45,-15.8 6.61,-15.87 5.77,-15.91 4.93,-15.92 4.09,-15.9 3.25,-15.85 2.42,-15.78 1.59,-15.67 0.76,-15.54 -0.06,-15.39 -0.87,-15.21 -1.68,-15.02 -2.47,-14.8 -3.26,-14.56 -4.04,-14.3 -4.81,-14.03 -5.56,-13.75 -6.3,-13.44 -7.03,-13.13 -7.75,-12.81 -8.45,-12.47 -9.14,-12.13 -9.81,-11.78 -10.46,-11.42 -11.1,-11.06 -11.71,-10.7 -12.32,-10.33 -12.9,-9.96 -13.46,-9.59 -14.01,-9.22 -14.54,-8.84 -15.04,-8.47 -15.53,-8.11 -16,-7.74 -16.45,-7.38 -16.87,-7.02 -17.28,-6.66 -17.68,-6.31 -18.05,-5.96 -18.41,-5.61 -18.74,-5.26 -19.06,-4.92 -19.36,-4.58 -19.65,-4.25 -19.91,-3.92 -20.16,-3.59 -20.38,-3.26 -20.59,-2.94 -20.78,-2.63 -20.95,-2.32 -23.39,4.26 -22.91,4.45 -22.41,4.65 -21.91,4.86 -21.39,5.07 -20.87,5.29 -20.34,5.51 -19.8,5.74 -19.25,5.97 -18.69,6.22 -18.12,6.46 -17.55,6.72 -16.97,6.98 -16.39,7.24 -15.79,7.52 -15.19,7.79 -14.58,8.08 -13.96,8.37 -13.33,8.66 -12.69,8.97 -12.05,9.28 -11.4,9.59 -10.74,9.91 -10.08,10.23 -9.41,10.56 -8.74,10.89 -8.07,11.22 -7.39,11.55 -6.71,11.88 -6.02,12.22 -5.34,12.55 -4.65,12.87 -3.96,13.2 -3.27,13.51 -2.59,13.82 -1.89,14.12 -1.2,14.42 -0.51,14.7 0.18,14.96 0.87,15.21 1.56,15.45 2.26,15.67 2.95,15.87 3.64,16.04 4.34,16.2 5.03,16.33 5.73,16.43 6.43,16.51 7.13,16.55 7.83,16.57 8.53,16.56 9.24,16.51 9.94,16.43 10.65,16.31 11.36,16.16 12.08,15.97 12.79,15.74 13.51,15.48 14.23,15.17 14.95,14.83 15.67,14.45 16.4,14.04 17.12,13.58 17.84,13.1 18.56,12.57 19.13,12.24 19.68,11.88 20.23,11.51 20.77,11.11 21.3,10.7 21.82,10.27 22.32,9.83 22.81,9.37 23.28,8.89 23.74,8.4 24.18,7.9 24.6,7.39 24.99,6.86 25.37,6.33 25.71,5.79" fill="white" stroke="white" stroke-width="0" stroke-linejoin="round" filter="url(#fuzzy)" />
    </g>
    <g transform="translate(43.92 -28.23)">
      <polyline id="rightUpper" points="-24.53,4.23 -24.77,3.47 -24.95,2.7 -25.08,1.92 -25.15,1.13 -25.18,0.34 -25.16,-0.46 -25.09,-1.25 -24.99,-2.05 -24.84,-2.84 -24.65,-3.62 -24.42,-4.4 -24.16,-5.17 -23.87,-5.92 -23.54,-6.66 -23.18,-7.39 -22.79,-8.1 -22.37,-8.79 -21.93,-9.47 -21.46,-10.12 -20.97,-10.76 -20.46,-11.37 -19.92,-11.96 -19.37,-12.53 -18.8,-13.07 -18.21,-13.59 -17.52,-14.33 -16.81,-15.03 -16.08,-15.69 -15.33,-16.31 -14.56,-16.89 -13.79,-17.42 -12.99,-17.9 -12.19,-18.34 -11.37,-18.74 -10.55,-19.08 -9.71,-19.39 -8.87,-19.64 -8.03,-19.86 -7.17,-20.03 -6.32,-20.16 -5.46,-20.24 -4.61,-20.29 -3.75,-20.29 -2.89,-20.26 -2.04,-20.19 -1.19,-20.09 -0.35,-19.95 0.49,-19.78 1.32,-19.58 2.14,-19.35 2.95,-19.1 3.76,-18.82 4.55,-18.51 5.33,-18.19 6.09,-17.84 6.84,-17.48 7.58,-17.1 8.3,-16.71 9.01,-16.3 9.69,-15.88 10.36,-15.46 11.01,-15.02 11.64,-14.58 12.26,-14.13 12.85,-13.68 13.42,-13.22 13.97,-12.76 14.5,-12.31 15.01,-11.85 15.5,-11.4 15.96,-10.94 16.4,-10.5 16.83,-10.05 17.23,-9.61 17.6,-9.18 17.96,-8.75 18.3,-8.32 18.62,-7.9 18.92,-7.48 19.19,-7.06 19.45,-6.65 19.68,-6.25 19.9,-5.85 20.09,-5.45 20.27,-5.07 20.42,-4.68 20.55,-4.31 20.67,-3.94 20.76,-3.57 20.83,-3.21 20.88,-2.86 20.92,-2.52 20.93,-2.18 20.92,-1.84 20.9,-1.51 20.85,-1.19 20.79,-0.88 20.71,-0.57 20.61,-0.26" fill="none" stroke="black" stroke-width="1.6666666666666665" stroke-linejoin="round" filter="url(#fuzzy)" />
      <polyline id="rightLower" points="-25.56,-0.45 -25.63,0.26 -25.64,0.99 -25.6,1.74 -25.51,2.5 -25.37,3.27 -25.19,4.04 -24.97,4.82 -24.72,5.59 -24.43,6.36 -24.11,7.12 -23.77,7.88 -23.4,8.62 -23.01,9.35 -22.6,10.07 -22.17,10.76 -21.73,11.44 -21.27,12.1 -20.8,12.73 -20.33,13.34 -19.84,13.92 -19.34,14.48 -18.84,15.02 -18.34,15.52 -17.83,16 -17.31,16.44 -16.6,17.16 -15.89,17.82 -15.19,18.44 -14.51,18.99 -13.84,19.5 -13.18,19.94 -12.53,20.34 -11.89,20.67 -11.27,20.96 -10.66,21.19 -10.05,21.37 -9.46,21.49 -8.87,21.57 -8.3,21.6 -7.72,21.58 -7.16,21.52 -6.6,21.42 -6.04,21.27 -5.48,21.09 -4.93,20.88 -4.38,20.63 -3.82,20.35 -3.26,20.04 -2.7,19.71 -2.14,19.35 -1.58,18.97 -1.01,18.58 -0.43,18.17 0.15,17.74 0.74,17.3 1.33,16.86 1.93,16.4 2.54,15.94 3.15,15.48 3.77,15.01 4.39,14.54 5.02,14.08 5.66,13.62 6.3,13.16 6.94,12.7 7.59,12.26 8.24,11.82 8.89,11.38 9.54,10.96 10.19,10.55 10.84,10.14 11.49,9.74 12.13,9.36 12.77,8.98 13.4,8.61 14.03,8.25 14.65,7.9 15.27,7.56 15.89,7.23 16.5,6.91 17.11,6.6 17.72,6.3 18.32,6 18.91,5.72 19.5,5.44 20.08,5.17 20.65,4.91 21.21,4.66 21.77,4.42 22.31,4.19 22.84,3.96 23.37,3.74 23.88,3.53 24.39,3.33 24.88,3.13 25.36,2.94 25.83,2.75 26.29,2.58 26.74,2.4" fill="none" stroke="black" stroke-width="2.2222222222222223" stroke-linejoin="round" filter="url(#fuzzy)" />
      <circle r="4.234" cx="17.695978321829617" cy="-1.6409865113439075" stroke="black" fill="none" stroke-width="1.0" filter="url(#fuzzy)" clip-path="url(#rightEyeClipPath)" /><circle r="3.412" cx="17.960978321829618" cy="-3.2509865113439074" stroke="black" fill="none" stroke-width="1.0" filter="url(#fuzzy)" clip-path="url(#rightEyeClipPath)" /><circle r="3.276" cx="17.90097832182962" cy="-2.4309865113439075" stroke="black" fill="none" stroke-width="1.0" filter="url(#fuzzy)" clip-path="url(#rightEyeClipPath)" /><circle r="3.128" cx="19.370978321829618" cy="-1.3059865113439075" stroke="black" fill="none" stroke-width="1.0" filter="url(#fuzzy)" clip-path="url(#rightEyeClipPath)" /><circle r="3.75" cx="19.925978321829618" cy="-5.365986511343907" stroke="black" fill="none" stroke-width="1.0" filter="url(#fuzzy)" clip-path="url(#rightEyeClipPath)" /><circle r="4.646" cx="19.785978321829617" cy="-5.2659865113439075" stroke="black" fill="none" stroke-width="1.0" filter="url(#fuzzy)" clip-path="url(#rightEyeClipPath)" /><circle r="4.96" cx="19.84597832182962" cy="-2.2159865113439077" stroke="black" fill="none" stroke-width="1.0" filter="url(#fuzzy)" clip-path="url(#rightEyeClipPath)" /><circle r="4.958" cx="21.04097832182962" cy="-1.6809865113439075" stroke="black" fill="none" stroke-width="1.0" filter="url(#fuzzy)" clip-path="url(#rightEyeClipPath)" /><circle r="3.634" cx="19.48597832182962" cy="-5.740986511343907" stroke="black" fill="none" stroke-width="1.0" filter="url(#fuzzy)" clip-path="url(#rightEyeClipPath)" /><circle r="4.4" cx="17.895978321829617" cy="-5.825986511343908" stroke="black" fill="none" stroke-width="1.0" filter="url(#fuzzy)" clip-path="url(#rightEyeClipPath)" />
      </g>
    <g transform="translate(-39.78 -24.32)">
      <polyline id="leftUpper" points="26.88,2.32 27.01,1.82 27.08,1.29 27.1,0.76 27.08,0.21 27.02,-0.35 26.91,-0.91 26.77,-1.47 26.59,-2.04 26.37,-2.61 26.12,-3.18 25.84,-3.75 25.52,-4.31 25.18,-4.86 24.8,-5.41 24.4,-5.95 23.98,-6.48 23.53,-7 23.06,-7.51 22.56,-8 22.05,-8.48 21.52,-8.94 20.97,-9.39 20.4,-9.82 19.82,-10.24 19.22,-10.64 18.52,-11.21 17.81,-11.75 17.07,-12.27 16.33,-12.75 15.57,-13.2 14.79,-13.62 14.01,-14 13.21,-14.34 12.41,-14.66 11.6,-14.93 10.78,-15.17 9.95,-15.38 9.12,-15.55 8.29,-15.69 7.45,-15.8 6.61,-15.87 5.77,-15.91 4.93,-15.92 4.09,-15.9 3.25,-15.85 2.42,-15.78 1.59,-15.67 0.76,-15.54 -0.06,-15.39 -0.87,-15.21 -1.68,-15.02 -2.47,-14.8 -3.26,-14.56 -4.04,-14.3 -4.81,-14.03 -5.56,-13.75 -6.3,-13.44 -7.03,-13.13 -7.75,-12.81 -8.45,-12.47 -9.14,-12.13 -9.81,-11.78 -10.46,-11.42 -11.1,-11.06 -11.71,-10.7 -12.32,-10.33 -12.9,-9.96 -13.46,-9.59 -14.01,-9.22 -14.54,-8.84 -15.04,-8.47 -15.53,-8.11 -16,-7.74 -16.45,-7.38 -16.87,-7.02 -17.28,-6.66 -17.68,-6.31 -18.05,-5.96 -18.41,-5.61 -18.74,-5.26 -19.06,-4.92 -19.36,-4.58 -19.65,-4.25 -19.91,-3.92 -20.16,-3.59 -20.38,-3.26 -20.59,-2.94 -20.78,-2.63 -20.95,-2.32 -21.1,-2.01 -21.23,-1.71 -21.35,-1.41 -21.45,-1.12 -21.53,-0.83 -21.59,-0.55 -21.64,-0.27 -21.66,0 -21.68,0.27 -21.67,0.54" fill="none" stroke="black" stroke-width="2.2222222222222223" stroke-linejoin="round" filter="url(#fuzzy)" />
      <polyline id="leftLower" points="27.26,0.46 27.3,0.95 27.29,1.46 27.23,1.99 27.12,2.52 26.98,3.06 26.79,3.61 26.57,4.15 26.32,4.7 26.03,5.25 25.71,5.79 25.37,6.33 24.99,6.86 24.6,7.39 24.18,7.9 23.74,8.4 23.28,8.89 22.81,9.37 22.32,9.83 21.82,10.27 21.3,10.7 20.77,11.11 20.23,11.51 19.68,11.88 19.13,12.24 18.56,12.57 17.84,13.1 17.12,13.58 16.4,14.04 15.67,14.45 14.95,14.83 14.23,15.17 13.51,15.48 12.79,15.74 12.08,15.97 11.36,16.16 10.65,16.31 9.94,16.43 9.24,16.51 8.53,16.56 7.83,16.57 7.13,16.55 6.43,16.51 5.73,16.43 5.03,16.33 4.34,16.2 3.64,16.04 2.95,15.87 2.26,15.67 1.56,15.45 0.87,15.21 0.18,14.96 -0.51,14.7 -1.2,14.42 -1.89,14.12 -2.59,13.82 -3.27,13.51 -3.96,13.2 -4.65,12.87 -5.34,12.55 -6.02,12.22 -6.71,11.88 -7.39,11.55 -8.07,11.22 -8.74,10.89 -9.41,10.56 -10.08,10.23 -10.74,9.91 -11.4,9.59 -12.05,9.28 -12.69,8.97 -13.33,8.66 -13.96,8.37 -14.58,8.08 -15.19,7.79 -15.79,7.52 -16.39,7.24 -16.97,6.98 -17.55,6.72 -18.12,6.46 -18.69,6.22 -19.25,5.97 -19.8,5.74 -20.34,5.51 -20.87,5.29 -21.39,5.07 -21.91,4.86 -22.41,4.65 -22.91,4.45 -23.39,4.26 -23.87,4.07 -24.33,3.89 -24.78,3.71 -25.23,3.54 -25.66,3.38 -26.08,3.22 -26.49,3.06 -26.89,2.91 -27.28,2.76 -27.65,2.62" fill="none" stroke="black" stroke-width="2.2222222222222223" stroke-linejoin="round" filter="url(#fuzzy)" />
      <circle r="4.23" cx="-14.053636666615764" cy="4.125717978601237" stroke="black" fill="none" stroke-width="1.0" filter="url(#fuzzy)" clip-path="url(#leftEyeClipPath)" /><circle r="3.91" cx="-11.873636666615766" cy="0.3407179786012371" stroke="black" fill="none" stroke-width="1.0" filter="url(#fuzzy)" clip-path="url(#leftEyeClipPath)" /><circle r="3.282" cx="-10.958636666615766" cy="4.4107179786012365" stroke="black" fill="none" stroke-width="1.0" filter="url(#fuzzy)" clip-path="url(#leftEyeClipPath)" /><circle r="4.422" cx="-11.803636666615766" cy="2.7357179786012367" stroke="black" fill="none" stroke-width="1.0" filter="url(#fuzzy)" clip-path="url(#leftEyeClipPath)" /><circle r="4.3759999999999994" cx="-15.313636666615766" cy="4.460717978601237" stroke="black" fill="none" stroke-width="1.0" filter="url(#fuzzy)" clip-path="url(#leftEyeClipPath)" /><circle r="4.754" cx="-12.933636666615765" cy="3.2407179786012374" stroke="black" fill="none" stroke-width="1.0" filter="url(#fuzzy)" clip-path="url(#leftEyeClipPath)" /><circle r="3.676" cx="-12.203636666615765" cy="0.45571797860123686" stroke="black" fill="none" stroke-width="1.0" filter="url(#fuzzy)" clip-path="url(#leftEyeClipPath)" /><circle r="4.304" cx="-10.778636666615764" cy="3.2357179786012367" stroke="black" fill="none" stroke-width="1.0" filter="url(#fuzzy)" clip-path="url(#leftEyeClipPath)" /><circle r="4.958" cx="-12.533636666615765" cy="0.7657179786012369" stroke="black" fill="none" stroke-width="1.0" filter="url(#fuzzy)" clip-path="url(#leftEyeClipPath)" /><circle r="4.136" cx="-12.858636666615766" cy="1.360717978601237" stroke="black" fill="none" stroke-width="1.0" filter="url(#fuzzy)" clip-path="url(#leftEyeClipPath)" />
    </g>
    <g id="hairs">
      <polyline points="-5.39,-87.4 -3.91,-87.56 -2.83,-87.59 -1.5,-87.53 0.07,-87.37 1.82,-87.12 3.66,-86.82 5.51,-86.47 7.35,-86.08 9.13,-85.65 10.88,-85.21 12.62,-84.74 14.37,-84.26 16.13,-83.78 17.9,-83.31 19.61,-82.87 21.18,-82.48 22.56,-82.16 23.7,-81.92 24.63,-81.75 25.39,-81.62 26.01,-81.53 26.42,-81.52 26.41,-81.69" fill="none" stroke="rgb(80, 68, 68)" stroke-width="2" stroke-linejoin="round" filter="url(#fuzzy)" /><polyline points="31.71,-78.66 33.13,-77.59 33.95,-76.88 34.29,-76.43 34.36,-76.08 34.29,-75.73 34.11,-75.34 33.76,-74.93 33.18,-74.56 32.29,-74.27 31.09,-74.07 29.55,-73.97 27.67,-73.95 25.43,-74.01 22.81,-74.11 19.81,-74.27 16.39,-74.49 12.52,-74.81 8.16,-75.27 3.3,-75.87 -2.04,-76.61 -7.79,-77.44 -13.97,-78.38 -20.84,-79.42" fill="none" stroke="rgb(80, 68, 68)" stroke-width="2" stroke-linejoin="round" filter="url(#fuzzy)" /><polyline points="15.27,-85.8 16.32,-85.39 17.72,-84.89 19.24,-84.34 20.74,-83.78 22.14,-83.21 23.43,-82.63 24.65,-82.07 25.8,-81.54 26.87,-81.07 27.79,-80.68 28.49,-80.41 28.92,-80.26 29.06,-80.23 28.91,-80.35 28.44,-80.64 27.46,-81.2" fill="none" stroke="rgb(80, 68, 68)" stroke-width="2" stroke-linejoin="round" filter="url(#fuzzy)" /><polyline points="40.47,-71.96 40.81,-71.32 41.23,-70.6 41.36,-70 41.2,-69.47 40.8,-68.92 40.14,-68.35 39.16,-67.81 37.76,-67.35 35.91,-67 33.58,-66.75 30.78,-66.58 27.53,-66.44 23.83,-66.33 19.66,-66.23 15,-66.17 9.82,-66.19 4.11,-66.33 -2.16,-66.64 -9,-67.16 -16.39,-67.88 -24.37,-68.73 -32.92,-69.59" fill="none" stroke="rgb(80, 68, 68)" stroke-width="2" stroke-linejoin="round" filter="url(#fuzzy)" /><polyline points="-5.39,-87.4 -3.84,-87.53 -2.52,-87.47 -0.81,-87.27 1.27,-86.94 3.62,-86.5 6.12,-85.98 8.71,-85.41 11.33,-84.77 13.94,-84.09 16.5,-83.37 18.95,-82.67 21.26,-82.06 23.39,-81.57 25.35,-81.17 27.2,-80.75" fill="none" stroke="rgb(80, 68, 68)" stroke-width="2" stroke-linejoin="round" filter="url(#fuzzy)" /><polyline points="13.61,-86.31 14.42,-86.12 15.28,-85.82 16.23,-85.48 17.22,-85.14 18.13,-84.84 18.86,-84.57 19.35,-84.36 19.59,-84.19 19.6,-84.07 19.4,-83.99 19.01,-83.96 18.38,-83.98 17.44,-84.04 16.13,-84.17 14.37,-84.38 12.17,-84.68 9.55,-85.06 6.56,-85.5 3.23,-86.02 -0.51,-86.64" fill="none" stroke="rgb(80, 68, 68)" stroke-width="2" stroke-linejoin="round" filter="url(#fuzzy)" /><polyline points="39.18,-72.58 39.93,-72.02 40.19,-71.38 40.07,-70.76 39.52,-70.22 38.55,-69.73 37.17,-69.22 35.35,-68.7 33.03,-68.18 30.13,-67.72 26.59,-67.36 22.41,-67.1 17.61,-66.92 12.21,-66.81 6.21,-66.75 -0.42,-66.76 -7.7,-66.83 -15.68,-67.01 -24.42,-67.27 -34.15,-67.44" fill="none" stroke="rgb(80, 68, 68)" stroke-width="2" stroke-linejoin="round" filter="url(#fuzzy)" /><polyline points="-25.87,-82.22 -24.53,-82.54 -22.85,-82.97 -21.02,-83.43 -19.07,-83.92 -17,-84.45 -14.81,-85 -12.57,-85.52 -10.37,-86 -8.32,-86.41 -6.46,-86.76 -4.79,-87.06 -3.31,-87.34 -2.08,-87.61 -1.29,-87.88" fill="none" stroke="rgb(80, 68, 68)" stroke-width="2" stroke-linejoin="round" filter="url(#fuzzy)" /><polyline points="-16.52,-85.38 -15.5,-85.6 -14.11,-85.42 -12.34,-84.96 -9.92,-84.35 -6.83,-83.6 -3.22,-82.67 0.73,-81.57 4.88,-80.31 9.19,-78.94 13.62,-77.47 18.19,-75.92 22.85,-74.3 27.61,-72.61 32.47,-70.85 37.49,-68.99 42.75,-66.86" fill="none" stroke="rgb(80, 68, 68)" stroke-width="2" stroke-linejoin="round" filter="url(#fuzzy)" /><polyline points="-15.85,-85.72 -14.3,-86.02 -12.39,-86.35 -10.39,-86.55 -8.4,-86.62 -6.4,-86.57 -4.38,-86.45 -2.3,-86.27 -0.19,-86.05 1.95,-85.81 4.08,-85.57 6.2,-85.34 8.3,-85.12 10.37,-84.9 12.37,-84.67 14.27,-84.45 16,-84.24 17.5,-84.06 18.73,-83.9 19.72,-83.76 20.54,-83.65 21.3,-83.6" fill="none" stroke="rgb(80, 68, 68)" stroke-width="2" stroke-linejoin="round" filter="url(#fuzzy)" /><polyline points="50.88,-60.5 52.39,-58.56 53.2,-57.25 53.52,-56.44 53.37,-56.12 52.78,-56.24 51.8,-56.73 50.46,-57.5 48.76,-58.53 46.66,-59.84 44.1,-61.52 41.04,-63.64 37.42,-66.24 33.21,-69.34 28.38,-72.95 22.89,-77.09 16.7,-81.81" fill="none" stroke="rgb(80, 68, 68)" stroke-width="2" stroke-linejoin="round" filter="url(#fuzzy)" /><polyline points="0.87,-87.71 2.3,-87.83 2.93,-87.68 2.82,-87.32 2.13,-86.75 0.96,-85.98 -0.67,-85.03 -2.78,-83.88 -5.44,-82.53 -8.77,-80.93 -12.89,-79.06 -17.88,-76.88 -23.78,-74.39 -30.55,-71.64 -38.17,-68.65" fill="none" stroke="rgb(80, 68, 68)" stroke-width="2" stroke-linejoin="round" filter="url(#fuzzy)" /><polyline points="-38.44,-73.26 -38.78,-73.27 -38.21,-73.83 -37.43,-74.47 -36.64,-75.05 -35.93,-75.53 -35.37,-75.84 -35.03,-75.94 -34.94,-75.81 -35.13,-75.43 -35.62,-74.76 -36.48,-73.79 -37.73,-72.47 -39.37,-70.82 -41.35,-68.84 -43.69,-66.49 -46.44,-63.63 -49.75,-60.08" fill="none" stroke="rgb(80, 68, 68)" stroke-width="2" stroke-linejoin="round" filter="url(#fuzzy)" /><polyline points="-25.52,-81.54 -25.07,-81.96 -23.43,-82.09 -21.05,-82.02 -18.17,-81.79 -14.89,-81.43 -11.21,-80.97 -7.16,-80.39 -2.78,-79.68 1.83,-78.81 6.62,-77.78 11.58,-76.61 16.71,-75.34 22.01,-74.07 27.36,-72.89 32.65,-71.78 37.97,-70.48" fill="none" stroke="rgb(80, 68, 68)" stroke-width="2" stroke-linejoin="round" filter="url(#fuzzy)" /><polyline points="-38,-74.14 -36.84,-74.68 -35.07,-75.16 -32.59,-75.57 -29.58,-75.83 -26.16,-75.9 -22.34,-75.78 -18.14,-75.52 -13.6,-75.15 -8.76,-74.69 -3.64,-74.13 1.74,-73.47 7.4,-72.72 13.34,-71.88 19.56,-70.94 26.04,-69.89 32.61,-68.82 38.89,-68.09" fill="none" stroke="rgb(80, 68, 68)" stroke-width="2" stroke-linejoin="round" filter="url(#fuzzy)" /><polyline points="-16.08,-85.82 -14.81,-85.97 -14.02,-85.99 -12.7,-86.11 -10.83,-86.31 -8.67,-86.5 -6.43,-86.65 -4.23,-86.74 -2.12,-86.79 -0.11,-86.82 1.77,-86.85 3.5,-86.88 5.06,-86.92 6.39,-86.97 7.46,-87.02 8.17,-87.1 8.33,-87.22" fill="none" stroke="rgb(80, 68, 68)" stroke-width="2" stroke-linejoin="round" filter="url(#fuzzy)" /><polyline points="56.29,-53 56.19,-52.77 56.36,-52.24 56.62,-51.51 56.79,-50.81 56.76,-50.28 56.49,-49.97 55.93,-49.9 55.07,-50.09 53.93,-50.52 52.5,-51.19 50.78,-52.11 48.75,-53.28 46.37,-54.7 43.63,-56.41 40.52,-58.42 37.03,-60.75 33.19,-63.42 29.01,-66.48 24.49,-69.94 19.57,-73.83 14.12,-78.16 7.95,-82.86" fill="none" stroke="rgb(80, 68, 68)" stroke-width="2" stroke-linejoin="round" filter="url(#fuzzy)" /><polyline points="-37.05,-75.17 -35.1,-76.29 -33.65,-77.23 -32.44,-78.03 -31.3,-78.74 -30.19,-79.38 -29.14,-79.97 -28.23,-80.48 -27.48,-80.9 -26.91,-81.21 -26.51,-81.42 -26.3,-81.53 -26.29,-81.51 -26.53,-81.34 -27.11,-80.99 -28.09,-80.44 -29.48,-79.69 -31.23,-78.71" fill="none" stroke="rgb(80, 68, 68)" stroke-width="2" stroke-linejoin="round" filter="url(#fuzzy)" /><polyline points="36.68,-75 36.2,-75.26 37.05,-74.52 38.28,-73.48 39.46,-72.46 40.49,-71.57 41.36,-70.81 42.06,-70.18 42.6,-69.69 42.97,-69.35 43.16,-69.17 43.15,-69.17 42.88,-69.4 42.26,-69.94 41.17,-70.91 39.4,-72.49" fill="none" stroke="rgb(80, 68, 68)" stroke-width="2" stroke-linejoin="round" filter="url(#fuzzy)" /><polyline points="55.27,-55.03 55.59,-54.01 55.95,-53.25 56.33,-52.54 56.79,-51.71 57.33,-50.78 57.88,-49.82 58.37,-48.96 58.75,-48.27 58.99,-47.79 59.07,-47.54 58.99,-47.57 58.7,-47.92 58.19,-48.66 57.42,-49.83 56.36,-51.48 55.02,-53.58 53.41,-56.14 51.51,-59.11" fill="none" stroke="rgb(80, 68, 68)" stroke-width="2" stroke-linejoin="round" filter="url(#fuzzy)" /><polyline points="39.18,-72.58 40.08,-72.01 40.81,-71.36 41.45,-70.74 41.97,-70.24 42.36,-69.86 42.61,-69.59 42.68,-69.44 42.48,-69.48 41.91,-69.82 40.9,-70.5 39.45,-71.54 37.58,-72.93 35.26,-74.66 32.37,-76.81 28.76,-79.45" fill="none" stroke="rgb(80, 68, 68)" stroke-width="2" stroke-linejoin="round" filter="url(#fuzzy)" /><polyline points="22.37,-83.63 22.73,-83.22 23.64,-82.78 24.73,-82.33 25.86,-81.85 26.91,-81.37 27.82,-80.92 28.55,-80.51 29.12,-80.17 29.52,-79.88 29.74,-79.66 29.73,-79.54 29.44,-79.56 28.82,-79.78 27.83,-80.2 26.46,-80.83 24.68,-81.63 22.42,-82.61 19.58,-83.84" fill="none" stroke="rgb(80, 68, 68)" stroke-width="2" stroke-linejoin="round" filter="url(#fuzzy)" /><polyline points="56.12,-52.67 57.08,-51.19 57.65,-50.04 57.96,-49.24 57.99,-48.78 57.73,-48.61 57.17,-48.74 56.29,-49.18 55.11,-49.93 53.6,-51.02 51.75,-52.44 49.56,-54.22 47,-56.39 44.04,-58.98 40.62,-62.04 36.68,-65.6 32.17,-69.7 27.05,-74.4 21.37,-79.76" fill="none" stroke="rgb(80, 68, 68)" stroke-width="2" stroke-linejoin="round" filter="url(#fuzzy)" /><polyline points="36.68,-75 35.96,-75.35 36.1,-74.88 36.11,-74.26 35.59,-73.79 34.46,-73.53 32.69,-73.46 30.26,-73.55 27.14,-73.8 23.29,-74.18 18.73,-74.69 13.43,-75.32 7.33,-76.1 0.34,-77.09 -7.64,-78.36 -16.45,-79.92" fill="none" stroke="rgb(80, 68, 68)" stroke-width="2" stroke-linejoin="round" filter="url(#fuzzy)" /><polyline points="61.2,-43.02 61.35,-42.82 61.83,-41.86 62.26,-40.88 62.59,-40.03 62.8,-39.33 62.87,-38.84 62.79,-38.61 62.52,-38.72 62.04,-39.22 61.33,-40.2 60.35,-41.7 59.11,-43.72 57.62,-46.21 55.93,-49.14 53.99,-52.5 51.68,-56.47 48.63,-61.55" fill="none" stroke="rgb(80, 68, 68)" stroke-width="2" stroke-linejoin="round" filter="url(#fuzzy)" /><polyline points="11.77,-86.7 13.22,-86.39 14.36,-86.09 15.42,-85.75 16.52,-85.38 17.65,-85.01 18.73,-84.66 19.66,-84.36 20.38,-84.11 20.85,-83.92 21.08,-83.79 21.09,-83.74 20.89,-83.75 20.44,-83.84 19.69,-84 18.53,-84.27 16.91,-84.65 14.77,-85.18 12.17,-85.82 9.27,-86.55" fill="none" stroke="rgb(80, 68, 68)" stroke-width="2" stroke-linejoin="round" filter="url(#fuzzy)" /><polyline points="31.71,-78.66 33.1,-77.61 33.88,-76.96 34.12,-76.61 34,-76.44 33.66,-76.33 33.12,-76.25 32.35,-76.25 31.22,-76.39 29.65,-76.72 27.56,-77.26 24.89,-78.04 21.61,-79.05 17.7,-80.31 13.15,-81.81 8,-83.51 2.42,-85.43" fill="none" stroke="rgb(80, 68, 68)" stroke-width="2" stroke-linejoin="round" filter="url(#fuzzy)" /><polyline points="-1.57,-88.15 0.09,-88.01 1.19,-87.93 2.09,-87.89 2.73,-87.85 3.04,-87.76 3.03,-87.62 2.73,-87.42 2.2,-87.18 1.43,-86.93 0.36,-86.64 -1.15,-86.3 -3.22,-85.9 -5.93,-85.41 -9.27,-84.86 -13.22,-84.25 -17.81,-83.64" fill="none" stroke="rgb(80, 68, 68)" stroke-width="2" stroke-linejoin="round" filter="url(#fuzzy)" /><polyline points="29.59,-79.87 30.49,-79.36 31.57,-78.61 32.51,-77.89 33.12,-77.32 33.4,-76.91 33.42,-76.63 33.27,-76.4 32.97,-76.19 32.48,-76.02 31.76,-75.92 30.73,-75.92 29.37,-76.04 27.65,-76.3 25.59,-76.69 23.18,-77.21 20.41,-77.86 17.26,-78.62 13.69,-79.52 9.65,-80.58 5.08,-81.87 -0.08,-83.36 -5.93,-84.96" fill="none" stroke="rgb(80, 68, 68)" stroke-width="2" stroke-linejoin="round" filter="url(#fuzzy)" /><polyline points="-19.63,-84.56 -17.47,-85.19 -16.27,-85.53 -15.63,-85.66 -15.21,-85.69 -14.79,-85.66 -14.35,-85.6 -13.96,-85.45 -13.73,-85.18 -13.74,-84.76 -14.04,-84.18 -14.62,-83.44 -15.51,-82.55 -16.71,-81.5 -18.21,-80.31 -20.03,-78.95 -22.17,-77.4 -24.67,-75.64 -27.54,-73.66 -30.81,-71.46 -34.45,-69.05 -38.49,-66.4 -42.99,-63.4 -48.05,-59.85" fill="none" stroke="rgb(80, 68, 68)" stroke-width="2" stroke-linejoin="round" filter="url(#fuzzy)" /><polyline points="36.68,-75 36.07,-75.31 36.51,-74.73 37.03,-73.97 37.25,-73.28 37.08,-72.71 36.55,-72.24 35.67,-71.86 34.44,-71.54 32.88,-71.26 30.98,-71.03 28.74,-70.83 26.11,-70.68 23.04,-70.62 19.48,-70.68 15.4,-70.85 10.79,-71.11 5.66,-71.45 0.01,-71.84 -6.19,-72.27 -12.97,-72.73 -20.45,-73.23 -28.57,-73.84" fill="none" stroke="rgb(80, 68, 68)" stroke-width="2" stroke-linejoin="round" filter="url(#fuzzy)" /><polyline points="-19.81,-84.41 -18.73,-84.68 -16.94,-84.92 -15.13,-84.96 -13.35,-84.79 -11.44,-84.48 -9.26,-84.07 -6.76,-83.58 -4,-83.01 -1.05,-82.35 1.99,-81.6 5.07,-80.79 8.17,-79.94 11.28,-79.05 14.4,-78.15 17.54,-77.22 20.7,-76.26 23.88,-75.27 27.08,-74.24 30.23,-73.2 33.24,-72.22 36,-71.38 38.48,-70.69 40.9,-69.91" fill="none" stroke="rgb(80, 68, 68)" stroke-width="2" stroke-linejoin="round" filter="url(#fuzzy)" /><polyline points="-1.9,-87.8 -1.04,-87.96 0.15,-87.96 1.34,-87.94 2.43,-87.91 3.37,-87.88 4.13,-87.83 4.71,-87.75 5.16,-87.64 5.51,-87.52 5.75,-87.39 5.86,-87.26 5.76,-87.13 5.4,-87 4.71,-86.88 3.65,-86.76 2.18,-86.63 0.27,-86.48 -2.11,-86.3 -4.96,-86.09 -8.2,-85.9 -11.4,-85.86" fill="none" stroke="rgb(80, 68, 68)" stroke-width="2" stroke-linejoin="round" filter="url(#fuzzy)" /><polyline points="22.18,-83.25 23.22,-82.79 23.69,-82.33 23.7,-81.76 23.16,-81.09 21.98,-80.35 20.15,-79.54 17.7,-78.66 14.64,-77.67 10.95,-76.56 6.57,-75.34 1.39,-74.03 -4.67,-72.65 -11.62,-71.2 -19.39,-69.7 -27.93,-68.12 -37.29,-66.41" fill="none" stroke="rgb(80, 68, 68)" stroke-width="2" stroke-linejoin="round" filter="url(#fuzzy)" /><polyline points="62.84,-39.85 62.94,-39.33 63.17,-38.31 63.2,-37.44 63.02,-36.81 62.61,-36.41 61.94,-36.31 60.97,-36.58 59.67,-37.25 58.04,-38.31 56.07,-39.7 53.79,-41.39 51.15,-43.41 48.13,-45.79 44.69,-48.6 40.82,-51.88 36.54,-55.64 31.88,-59.87 26.89,-64.55 21.58,-69.68 15.91,-75.27 9.78,-81.35" fill="none" stroke="rgb(80, 68, 68)" stroke-width="2" stroke-linejoin="round" filter="url(#fuzzy)" /><polyline points="-24.77,-82.4 -23.18,-82.86 -21.49,-83.05 -19.56,-83.11 -17.29,-83.06 -14.7,-82.89 -11.85,-82.59 -8.84,-82.16 -5.73,-81.6 -2.49,-80.95 0.93,-80.23 4.56,-79.45 8.38,-78.62 12.35,-77.71 16.38,-76.72 20.39,-75.69 24.33,-74.65 28.13,-73.67 31.78,-72.76 35.35,-71.85 38.91,-70.88" fill="none" stroke="rgb(80, 68, 68)" stroke-width="2" stroke-linejoin="round" filter="url(#fuzzy)" /><polyline points="-27.56,-81.02 -27.49,-80.84 -25.84,-80.94 -23.51,-81.06 -20.66,-81.12 -17.28,-81.1 -13.4,-81 -9.08,-80.82 -4.45,-80.61 0.45,-80.38 5.6,-80.1 11,-79.74 16.63,-79.23 22.39,-78.56 28.09,-77.83" fill="none" stroke="rgb(80, 68, 68)" stroke-width="2" stroke-linejoin="round" filter="url(#fuzzy)" /><polyline points="27.5,-81.06 28.2,-80.74 28.57,-80.33 28.83,-79.84 28.99,-79.25 29,-78.58 28.72,-77.89 28.07,-77.22 26.99,-76.61 25.51,-76.01 23.67,-75.4 21.48,-74.75 18.95,-74.06 16.06,-73.35 12.76,-72.65 9.03,-71.96 4.83,-71.3 0.15,-70.65 -5.01,-69.98 -10.68,-69.26 -16.86,-68.46 -23.55,-67.58 -30.72,-66.74 -38.41,-66.02" fill="none" stroke="rgb(80, 68, 68)" stroke-width="2" stroke-linejoin="round" filter="url(#fuzzy)" /><polyline points="-29.01,-80.5 -27.04,-81.02 -25.49,-81.32 -23.83,-81.48 -21.81,-81.5 -19.43,-81.42 -16.74,-81.26 -13.8,-81.04 -10.64,-80.77 -7.3,-80.43 -3.81,-80 -0.22,-79.48 3.44,-78.87 7.17,-78.17 10.96,-77.43 14.81,-76.69 18.7,-75.97 22.56,-75.26 26.38,-74.52 30.16,-73.7 33.89,-72.81 37.46,-71.96" fill="none" stroke="rgb(80, 68, 68)" stroke-width="2" stroke-linejoin="round" filter="url(#fuzzy)" /><polyline points="0.94,-88 1.36,-87.87 2.08,-87.81 2.5,-87.68 2.47,-87.44 2,-87.09 1.15,-86.62 -0.06,-86.04 -1.68,-85.35 -3.75,-84.54 -6.38,-83.58 -9.67,-82.46 -13.73,-81.16 -18.63,-79.64 -24.35,-77.93 -30.79,-76.09" fill="none" stroke="rgb(80, 68, 68)" stroke-width="2" stroke-linejoin="round" filter="url(#fuzzy)" /><polyline points="-29.01,-79.77 -28.22,-80.49 -27.52,-80.88 -26.56,-81.29 -25.46,-81.76 -24.27,-82.26 -23.01,-82.77 -21.68,-83.27 -20.34,-83.76 -19.02,-84.25 -17.77,-84.71 -16.62,-85.15 -15.64,-85.52 -14.87,-85.81 -14.34,-86.01 -14.05,-86.13 -13.94,-86.18 -13.96,-86.17 -14.15,-86.11 -14.64,-85.95 -15.6,-85.63 -17.08,-85.14 -18.91,-84.52" fill="none" stroke="rgb(80, 68, 68)" stroke-width="2" stroke-linejoin="round" filter="url(#fuzzy)" /><polyline points="13.61,-86.31 14.49,-86.08 15.58,-85.64 16.91,-85.09 18.43,-84.47 20.03,-83.83 21.6,-83.19 23.07,-82.56 24.42,-81.96 25.66,-81.39 26.83,-80.85 27.94,-80.35 28.95,-79.9 29.75,-79.56 30.24,-79.38 30.36,-79.39 30.14,-79.56 29.7,-79.86 29.16,-80.25" fill="none" stroke="rgb(80, 68, 68)" stroke-width="2" stroke-linejoin="round" filter="url(#fuzzy)" /><polyline points="56.04,-52.83 56.27,-52.28 56.39,-51.44 56.12,-50.7 55.36,-50.23 54.08,-50.09 52.25,-50.25 49.84,-50.7 46.82,-51.43 43.21,-52.43 39,-53.71 34.18,-55.27 28.72,-57.13 22.59,-59.31 15.79,-61.82 8.33,-64.69 0.19,-67.94 -8.68,-71.61 -18.22,-75.87" fill="none" stroke="rgb(80, 68, 68)" stroke-width="2" stroke-linejoin="round" filter="url(#fuzzy)" /><polyline points="-15.85,-85.72 -14.25,-85.96 -12.19,-86.12 -9.92,-86.05 -7.56,-85.74 -5.08,-85.22 -2.45,-84.52 0.34,-83.67 3.27,-82.71 6.33,-81.67 9.48,-80.57 12.73,-79.45 16.06,-78.3 19.46,-77.11 22.91,-75.89 26.38,-74.63 29.83,-73.32 33.25,-71.95 36.61,-70.53 39.8,-69.16 42.55,-68.22" fill="none" stroke="rgb(80, 68, 68)" stroke-width="2" stroke-linejoin="round" filter="url(#fuzzy)" /><polyline points="0.87,-87.71 2.38,-87.84 3.22,-87.73 3.49,-87.45 3.36,-87 2.95,-86.39 2.3,-85.64 1.4,-84.73 0.2,-83.68 -1.38,-82.46 -3.42,-81.06 -5.98,-79.46 -9.1,-77.64 -12.75,-75.61 -16.94,-73.35 -21.67,-70.83 -26.99,-68 -32.99,-64.83 -39.77,-61.33 -47.35,-57.62" fill="none" stroke="rgb(80, 68, 68)" stroke-width="2" stroke-linejoin="round" filter="url(#fuzzy)" /><polyline points="-37.05,-75.17 -35.17,-76.25 -33.92,-77.07 -33.04,-77.67 -32.37,-78.07 -31.84,-78.32 -31.51,-78.38 -31.45,-78.24 -31.7,-77.85 -32.27,-77.21 -33.16,-76.32 -34.37,-75.18 -35.92,-73.78 -37.85,-72.04 -40.28,-69.89 -43.35,-67.22 -47.04,-64.11" fill="none" stroke="rgb(80, 68, 68)" stroke-width="2" stroke-linejoin="round" filter="url(#fuzzy)" /><polyline points="62.22,-41.17 62.36,-40.38 61.92,-39.85 60.93,-39.45 59.31,-39.34 57.03,-39.56 54.07,-40.15 50.39,-41.17 45.94,-42.69 40.68,-44.74 34.62,-47.33 27.76,-50.39 20.11,-53.88 11.66,-57.8 2.33,-62.18 -8.02,-67.08 -19.56,-72.52" fill="none" stroke="rgb(80, 68, 68)" stroke-width="2" stroke-linejoin="round" filter="url(#fuzzy)" /><polyline points="60.28,-46.18 60.55,-44.98 60.62,-44.28 60.52,-43.92 60.23,-43.8 59.67,-43.97 58.79,-44.47 57.57,-45.35 55.98,-46.64 53.97,-48.4 51.52,-50.66 48.59,-53.48 45.15,-56.92 41.2,-61.04 36.77,-65.87 31.88,-71.36 26.47,-77.49" fill="none" stroke="rgb(80, 68, 68)" stroke-width="2" stroke-linejoin="round" filter="url(#fuzzy)" /><polyline points="17.46,-85.05 18.95,-84.53 20.47,-83.93 21.98,-83.19 23.5,-82.34 25.11,-81.39 26.83,-80.37 28.63,-79.3 30.46,-78.24 32.22,-77.19 33.85,-76.19 35.31,-75.25 36.58,-74.4 37.65,-73.69 38.51,-73.15 39.1,-72.78" fill="none" stroke="rgb(80, 68, 68)" stroke-width="2" stroke-linejoin="round" filter="url(#fuzzy)" /><polyline points="-27.56,-81.02 -2.01,-77.51 3.06,-74.26 5.9,-70.68 2.54,-68.49 -6.4,-68 -15.79,-68.55 -20.92,-69.57 -20.15,-70.67 -14.76,-71.39 -7.54,-71.25 -1.23,-70 2.36,-68.04 2.64,-66.38 -0.01,-66.18 -4.48,-68.06 -9.42,-71.54 -13.74,-75.29 -17.13,-77.98 -20.28,-79.18 -24.45,-79.15 -29.05,-78.66 -24.77,-82.4" fill="none" stroke="rgb(80, 68, 68)" stroke-width="2" stroke-linejoin="round" filter="url(#fuzzy)" /><polyline points="66.82,-28.02 13.33,-63 -2.94,-73.26 -11.23,-74.52 -18.16,-73.84 -21.54,-73.84 -19.74,-74.5 -13.57,-74.78 -5.1,-73.9 3.71,-71.89 11.79,-69.39 18.82,-67.09 24.68,-65.46 28.93,-64.64 30.67,-64.51 28.94,-64.82 23.27,-65.55 14.24,-67.11 4.07,-70.14 -3.34,-74.68 -3.74,-79.35 4.84,-81.64 21.13,-79.37 40.35,-71.69" fill="none" stroke="rgb(80, 68, 68)" stroke-width="2" stroke-linejoin="round" filter="url(#fuzzy)" /><polyline points="22.37,-83.63 0.87,-69.04 19.84,-59.88 36.26,-53.63 41.21,-52.48 37.7,-55.89 30.73,-61.22 23.17,-66.09 15.75,-69.71 8.88,-72.45 3.67,-74.88 1.3,-77.1 1.6,-78.65 2.54,-78.97 1.42,-77.85 -2.64,-75.72 -6.47,-73.6 -3.62,-72.78 9.87,-74.04 26,-76.87 23.71,-82.69" fill="none" stroke="rgb(80, 68, 68)" stroke-width="2" stroke-linejoin="round" filter="url(#fuzzy)" /><polyline points="62.22,-41.17 9.88,-63.41 4.71,-72.46 7.62,-73.99 8.02,-73.74 6.39,-73.45 5.45,-72.64 6.31,-70.98 8.23,-69.11 10,-68.08 11.1,-68.51 11.75,-70.31 12.26,-72.88 12.34,-75.55 11.05,-77.94 7.55,-79.9 2.04,-81.38 -4.01,-82.18 -8.8,-82.15 -11.83,-81.26 -14.79,-79.84 -20.09,-78.76 -26.63,-79.12 -31,-78.87" fill="none" stroke="rgb(80, 68, 68)" stroke-width="2" stroke-linejoin="round" filter="url(#fuzzy)" /><polyline points="-42.61,-70.2 -35.7,-74.19 -27.37,-76.28 -18.68,-76.84 -11.66,-76.66 -7.21,-75.93 -4.53,-75.09 -2.57,-74.72 -0.96,-75.12 0.14,-76.14 0.59,-77.37 0.57,-78.5 0.52,-79.41 0.99,-80.18 2.1,-80.94 2.92,-81.66 1.92,-81.79 0.03,-79.88 6.46,-73.45 50.88,-60.5" fill="none" stroke="rgb(80, 68, 68)" stroke-width="2" stroke-linejoin="round" filter="url(#fuzzy)" /><polyline points="55.27,-55.03 6.61,-69.58 -4.36,-70.36 -9.42,-68.69 -16.36,-68.42 -21.52,-69.34 -21.11,-70.3 -14.75,-70.57 -4.73,-70.11 5.9,-69.47 14.94,-69.42 21.28,-70.54 24.12,-72.83 22.31,-75.71 14.64,-78.29 0.86,-79.49 -18.42,-76.23 -51.61,-59.66" fill="none" stroke="rgb(80, 68, 68)" stroke-width="2" stroke-linejoin="round" filter="url(#fuzzy)" /><polyline points="-16.08,-85.82 -16.71,-85.32 -16.52,-84.21 -14.22,-80.57 -7.06,-73.8 5.92,-65.7 21.55,-58.99 34.76,-55.54 41.61,-55.73 40.7,-58.72 32.83,-63.14 20.34,-67.69 6.57,-71.56 -5.07,-74.67 -12.18,-77.88 -13.36,-82.54 -13.54,-86.25" fill="none" stroke="rgb(80, 68, 68)" stroke-width="2" stroke-linejoin="round" filter="url(#fuzzy)" /><polyline points="20.3,-84.5 0.72,-82.27 2.41,-81.91 4.82,-81.5 2.64,-80.62 -4.39,-79.01 -13.71,-76.88 -21.93,-74.96 -26.49,-73.94 -26.39,-73.95 -22.04,-74.56 -14.73,-75.09 -6.01,-74.98 2.67,-74.05 10.32,-72.46 16.34,-70.57 20.15,-68.85 20.87,-67.86 17.98,-68.2 12.9,-70.47 8.5,-75.12 2.28,-81.84 -16.08,-85.82" fill="none" stroke="rgb(80, 68, 68)" stroke-width="2" stroke-linejoin="round" filter="url(#fuzzy)" /><polyline points="20.3,-84.5 3.13,-73.1 12.38,-66.24 17.31,-62.31 18.66,-61.37 17.9,-63.5 14.42,-67.72 8.67,-72.55 2.93,-76.79 -0.37,-79.72 -0.18,-80.89 2.76,-80.03 6.77,-77.25 10.3,-73.26 12.89,-69.25 15.3,-66.07 18.21,-63.4 18.92,-60.33 8.83,-57.87 -19.79,-60.54 -42.61,-70.2" fill="none" stroke="rgb(80, 68, 68)" stroke-width="2" stroke-linejoin="round" filter="url(#fuzzy)" /><polyline points="-51.36,-60.21 -27.53,-71.24 -12,-72.04 -0.31,-74.24 4.97,-77.74 6.18,-80.55 6.47,-81.4 7.17,-80.09 8.05,-77.14 8.46,-73.42 8.29,-69.83 8.07,-67.06 8.5,-65.5 9.74,-65.29 11.21,-66.3 12.06,-68.08 12.11,-69.91 12.45,-70.97 14.93,-70.78 20.39,-69.76 26.7,-69.4 28.95,-71.49 22.83,-76.34 7.38,-80.96 -25.87,-82.22" fill="none" stroke="rgb(80, 68, 68)" stroke-width="2" stroke-linejoin="round" filter="url(#fuzzy)" /><polyline points="62.84,-39.85 25.18,-56.63 -9.37,-62.1 -24.15,-66.33 -25.72,-70.71 -23.29,-74.2 -20.81,-76.17 -17.48,-76.92 -11.84,-77.04 -4.74,-76.86 0.87,-76.49 2.47,-76.2 0.06,-76.62 -2.95,-78.15 2.96,-79.48 36.53,-75.07" fill="none" stroke="rgb(80, 68, 68)" stroke-width="2" stroke-linejoin="round" filter="url(#fuzzy)" /><polyline points="-55.23,-54.29 -28.21,-74.02 -15.82,-79.11 -8.33,-78.23 -4.23,-76.16 -3.05,-75.39 -3.54,-76.2 -4.12,-77.56 -3.83,-78.33 -2.49,-77.89 -0.44,-76.47 1.88,-74.81 4.37,-73.59 7.57,-72.89 12.5,-71.95 19.57,-69.72 27.32,-65.74 31.82,-60.89 27.74,-57.16 11.56,-56.41 -13.33,-59.36 -30.56,-67.11 -12.63,-86.62" fill="none" stroke="rgb(80, 68, 68)" stroke-width="2" stroke-linejoin="round" filter="url(#fuzzy)" /><polyline points="-32.18,-78.72 -18.11,-68.23 10.13,-62.33 23.51,-61.22 22.82,-63.54 15.87,-66.8 8.39,-69.86 3.5,-72.52 3.22,-74.22 8.74,-73.82 19.51,-70.28 32.53,-63.87 42.83,-57.32 45.66,-55.64 42.49,-60.66 56.04,-52.83" fill="none" stroke="rgb(80, 68, 68)" stroke-width="2" stroke-linejoin="round" filter="url(#fuzzy)" /><polyline points="11.77,-86.7 -5.37,-74.5 6.21,-69.62 11.28,-69.47 9.75,-72.23 7.82,-74.71 6.99,-75.28 5.6,-74.38 3.49,-73.07 3.89,-71.64 10.72,-69.28 24.31,-65.13 39.7,-60.01 49.81,-57.11 52.02,-58.55 53.1,-57.98" fill="none" stroke="rgb(80, 68, 68)" stroke-width="2" stroke-linejoin="round" filter="url(#fuzzy)" /><polyline points="34.94,-76.14 -6.11,-72.49 -8.71,-70.58 -8.9,-69.17 -12.81,-69.24 -16.17,-70.34 -15.19,-71.3 -8.97,-70.98 0.76,-68.84 10.63,-65.32 17.19,-61.68 18.89,-59.28 17,-58.67 14.68,-59.26 14.33,-60.05 14.77,-60.94 10.53,-63.25 -4.25,-68.04 -27.63,-71.25 -51.61,-59.66" fill="none" stroke="rgb(80, 68, 68)" stroke-width="2" stroke-linejoin="round" filter="url(#fuzzy)" /><polyline points="-39.81,-72.6 -9.66,-78.8 -5.49,-79.32 0.92,-77.82 11.57,-75.76 21.81,-73.3 27.87,-70.84 28.59,-69.11 25.47,-68.48 21.73,-68.55 20.39,-68.45 22.41,-67.53 26,-65.96 27.65,-64.7 24.31,-64.94 15.58,-67.22 4.47,-71.02 -4.31,-75.07 -7.98,-78.1 -9.2,-78.99 -16.43,-75.44 -50.66,-60.95" fill="none" stroke="rgb(80, 68, 68)" stroke-width="2" stroke-linejoin="round" filter="url(#fuzzy)" /><polyline points="63.95,-37.05 10.3,-64.64 -1.55,-70.62 4.89,-67.83 15.9,-63.84 23.47,-61.49 25.67,-61.16 23.8,-62.35 19.6,-64.38 14.27,-66.59 8.98,-68.46 5.24,-69.65 4.31,-70.09 5.99,-70.11 8.19,-70.3 7.93,-71.11 3.73,-72.41 -2.52,-73.25 -5.52,-72.48 0.94,-69.47 19.71,-64.28 44.97,-56.57 58.96,-47.54" fill="none" stroke="rgb(80, 68, 68)" stroke-width="2" stroke-linejoin="round" filter="url(#fuzzy)" /><polyline points="42.54,-69.63 15.9,-67.74 21.96,-64.47 26.33,-64.85 24.64,-67.67 19.57,-70.66 14.32,-72.01 10.61,-71.54 8.93,-70.34 9.36,-69.51 11.83,-69.27 16.08,-69.02 21.57,-67.94 27.58,-65.65 32.94,-62.66 35.4,-60.56 31.89,-61.51 20.73,-66.43 4.61,-72.55 -12.55,-73.2 -51.31,-61.18" fill="none" stroke="rgb(80, 68, 68)" stroke-width="2" stroke-linejoin="round" filter="url(#fuzzy)" /><polyline points="-6.96,-87.32 23.24,-71.54 23.83,-67.13 16.16,-69.8 10.89,-72.19 7.2,-72.56 1.87,-72.35 -5.63,-72.93 -13.09,-74.45 -17.72,-76.35 -18.04,-77.98 -14.41,-78.79 -8.56,-78.26 -2.69,-76.16 0.88,-73.1 -0.01,-70.92 -6.11,-71.85 -13.19,-76.04 -8.71,-80.26 24.54,-82.4" fill="none" stroke="rgb(80, 68, 68)" stroke-width="2" stroke-linejoin="round" filter="url(#fuzzy)" /><polyline points="27.5,-81.06 30.55,-63.33 23.66,-60.86 17.99,-62.21 10.69,-64.68 4.05,-67.09 0.84,-69.28 1.52,-71.26 4.81,-72.8 8.89,-73.46 12.08,-73.1 13.35,-71.95 12.78,-70.56 11.67,-69.39 11.93,-68.59 15.19,-67.84 21.84,-66.71 30.56,-65.17 38.6,-63.85 43.39,-63.32 44.81,-62.98 44.21,-63.14 31.71,-78.66" fill="none" stroke="rgb(80, 68, 68)" stroke-width="2" stroke-linejoin="round" filter="url(#fuzzy)" /><polyline points="-38.44,-73.26 -28.74,-72.18 -7.24,-74.71 12.38,-73.33 26.54,-70.19 34,-67.87 35.34,-66.82 32.38,-66.26 27.03,-65.5 20.56,-64.51 13.21,-63.7 4.5,-63.36 -5.75,-63.46 -16.43,-63.78 -24.93,-64.2 -28.36,-64.76 -25.52,-65.4 -18.67,-65.95 -13.71,-66.51 -16.9,-67.79 -24.51,-71.48 -5.39,-87.4" fill="none" stroke="rgb(80, 68, 68)" stroke-width="2" stroke-linejoin="round" filter="url(#fuzzy)" /><polyline points="48.31,-64.17 11.58,-75.2 12.1,-76.49 14.89,-74.75 10.94,-74.12 4.02,-75.22 -0.94,-76.88 -2.39,-77.63 -1.44,-76.82 -0.06,-75.05 0.02,-74.06 -1.9,-75.61 -4.77,-79.81 -6.52,-84.36 -5.33,-86.69 4.61,-87.78" fill="none" stroke="rgb(80, 68, 68)" stroke-width="2" stroke-linejoin="round" filter="url(#fuzzy)" /><polyline points="-26.11,-82.98 -24.88,-83.24 -23.63,-83.59 -22.45,-83.94 -21.33,-84.32 -20.2,-84.73 -19.05,-85.13 -17.91,-85.51 -16.83,-85.82 -15.83,-86.08 -14.88,-86.3 -13.92,-86.51 -12.89,-86.73 -11.77,-86.96 -10.59,-87.19 -9.39,-87.39 -8.22,-87.55 -7.09,-87.67 -6.01,-87.76 -4.97,-87.83 -4.02,-87.91 -3.14,-88.02 -2.29,-88.16 -1.57,-88.15" fill="none" stroke="rgb(80, 68, 68)" stroke-width="2" stroke-linejoin="round" filter="url(#fuzzy)" /><polyline points="17.45,-92.53 16.5,-92.36 15.45,-92.04 14.32,-91.78 13.11,-91.53 11.83,-91.14 10.5,-90.68 9.22,-90.31 8.05,-90.16 7.03,-90.22 6.13,-90.31 5.31,-90.29 4.46,-90.08 3.53,-89.74 2.48,-89.33 1.33,-88.81 0.12,-88.29 -1.57,-88.15" fill="none" stroke="rgb(80, 68, 68)" stroke-width="2" stroke-linejoin="round" filter="url(#fuzzy)" /><polyline points="79.29,-50.97 78.59,-47.1 77.79,-44.47 77.12,-42.17 76.98,-40.12 77.28,-38.32 77.55,-36.68 77.39,-35.06 76.73,-33.38 75.8,-31.62 74.92,-29.8 74.26,-27.96 73.86,-26.17 73.66,-24.49 73.72,-23.04 73.95,-21.83 73.63,-20.64 71.61,-18.95 69.44,-16.14" fill="none" stroke="rgb(80, 68, 68)" stroke-width="2" stroke-linejoin="round" filter="url(#fuzzy)" /><polyline points="-32.18,-78.72 -32.57,-78.07 -33.37,-77.04 -34.29,-75.82 -35.13,-74.49 -35.82,-73.15 -36.45,-71.94 -37.11,-70.99 -37.82,-70.29 -38.55,-69.71 -39.25,-69.09 -39.89,-68.33 -40.49,-67.42 -41.07,-66.37 -41.65,-65.2 -42.21,-63.98 -42.65,-62.8 -42.96,-61.66 -43.36,-60.05" fill="none" stroke="rgb(80, 68, 68)" stroke-width="2" stroke-linejoin="round" filter="url(#fuzzy)" /><polyline points="67.48,-25.47 68.31,-24.55 69.52,-23.45 70.69,-22.51 71.66,-21.62 72.31,-20.67 72.69,-19.58 73,-18.36 73.53,-17.05 74.53,-15.72 76.15,-14.45 78.46,-13.26 81.4,-12.13 84.56,-10.93 87.05,-9.63 88.27,-9.34" fill="none" stroke="rgb(80, 68, 68)" stroke-width="2" stroke-linejoin="round" filter="url(#fuzzy)" /><polyline points="65.97,-31.05 66.79,-29.42 67.03,-28.58 67.36,-27.63 67.91,-26.45 68.61,-25.16 69.41,-23.89 70.3,-22.73 71.27,-21.66 72.3,-20.64 73.3,-19.59 74.22,-18.45 75.03,-17.2 75.73,-15.84 76.36,-14.41 76.95,-12.96 77.52,-11.51 78.07,-10.1 78.58,-8.72 79.05,-7.34 79.47,-5.89 79.85,-4.29 80.25,-2.52 80.84,-0.8 81.98,0.46" fill="none" stroke="rgb(80, 68, 68)" stroke-width="2" stroke-linejoin="round" filter="url(#fuzzy)" /><polyline points="65.96,-30.69 66.28,-30.26 66.58,-29.41 66.82,-28.56 67.12,-27.58 67.52,-26.4 68.01,-25.1 68.51,-23.78 68.94,-22.51 69.28,-21.31 69.54,-20.16 69.77,-19.01 70.03,-17.81 70.34,-16.53 70.72,-15.18 71.17,-13.78 71.66,-12.39 72.11,-11.01 72.39,-9.39 72.45,-6.53 59.45,-47.37 58.66,-47.97 57.84,-49.1 57.02,-50.17 56.26,-51.02 55.53,-51.67 54.79,-52.25 54.03,-52.89 53.22,-53.69 52.36,-54.64 51.48,-55.67 50.56,-56.71 49.64,-57.67 48.72,-58.53 47.84,-59.29 47.02,-59.98 46.24,-60.66 45.46,-61.38 44.62,-62.14 43.68,-62.94 42.65,-63.73 41.63,-64.4 40.7,-64.85 39.89,-65 39.43,-64.55 56.12,-52.67 56.26,-53.06 56.2,-53.68 55.79,-54.51 55.12,-55.56 54.3,-56.76 53.41,-58.02 52.53,-59.27 51.72,-60.47 50.98,-61.61 50.33,-62.69 49.73,-63.72 49.15,-64.73 48.53,-65.75 47.8,-66.79 46.95,-67.86 46.05,-68.95 45.19,-70 44.47,-70.98 43.84,-71.89 43.17,-72.89 41.92,-74.47" fill="none" stroke="rgb(80, 68, 68)" stroke-width="2" stroke-linejoin="round" filter="url(#fuzzy)" /><polyline points="44.3,-68.49 43.92,-68.65 43.48,-69.29 43.07,-70.33 42.62,-71.51 42.04,-72.6 41.33,-73.57 40.52,-74.51 39.69,-75.48 38.89,-76.48 38.11,-77.39 37.37,-78.18 36.64,-78.89 35.9,-79.65 35.13,-80.59 34.29,-81.75 33.42,-83.03 32.54,-84.27 31.74,-85.32 31.06,-86.21 30.52,-87.11 29.89,-88.11 8.19,-113.8 8.97,-112.83 10.3,-112.53 11.75,-111.4 13.09,-109.3 14.25,-106.71 15.24,-103.97 16.08,-101.1 16.8,-98.13 17.52,-95.34 18.39,-93.21 19.44,-91.82 20.48,-90.46 21.24,-88.09 21.72,-85.02 22.37,-83.63" fill="none" stroke="rgb(80, 68, 68)" stroke-width="2" stroke-linejoin="round" filter="url(#fuzzy)" /><polyline points="21.52,-83.61 20.32,-84.21 19.06,-84.63 17.84,-85.05 16.71,-85.48 15.65,-85.88 14.62,-86.24 13.57,-86.56 12.48,-86.84 11.34,-87.09 10.18,-87.31 9.04,-87.51 7.95,-87.69 6.95,-87.86 6.03,-88.02 5.16,-88.17 4.29,-88.3 3.36,-88.4 2.33,-88.49 1.21,-88.56 0.03,-88.62 -1.19,-88.64 -2.5,-88.61 -4.16,-88.55" fill="none" stroke="rgb(80, 68, 68)" stroke-width="2" stroke-linejoin="round" filter="url(#fuzzy)" /><polyline points="11.77,-86.7 13.24,-86.68 14.36,-86.77 15.38,-86.66 16.43,-86.38 17.55,-86.07 18.72,-85.83 19.89,-85.68 20.99,-85.57 22.01,-85.48 22.98,-85.37 23.95,-85.24 24.97,-85.08 26.05,-84.86 27.18,-84.6 28.31,-84.35 29.4,-84.16 30.39,-84.04 31.32,-83.93 32.26,-83.61 33.39,-82.84" fill="none" stroke="rgb(80, 68, 68)" stroke-width="2" stroke-linejoin="round" filter="url(#fuzzy)" /><polyline points="0.94,-88 2.69,-87.99 4.58,-87.8 6.83,-87.5 9.49,-87.12 12.44,-86.68 15.46,-86.2 18.35,-85.66 21.01,-85.07 23.46,-84.4 25.79,-83.66 28.14,-82.84 30.55,-81.93 33.05,-80.93 35.62,-79.83 38.23,-78.66 40.92,-77.43 43.74,-76.16 46.74,-74.84 49.92,-73.48 53.24,-72.06 56.65,-70.54 60.09,-68.92 63.59,-67.2 67.2,-65.37 71.01,-63.46 75.1,-61.49 79.55,-59.46 84.36,-57.42 89.43,-55.42 94.29,-53.56 98.11,-51.83 100.93,-49.67" fill="none" stroke="rgb(80, 68, 68)" stroke-width="2" stroke-linejoin="round" filter="url(#fuzzy)" /><polyline points="-2.97,-87.67 -1.41,-87.8 0.58,-87.89 2.57,-87.87 4.54,-87.71 6.58,-87.46 8.76,-87.11 11.07,-86.71 13.45,-86.24 15.87,-85.72 18.35,-85.15 20.9,-84.51 23.6,-83.8 26.5,-83.02 29.62,-82.15 32.91,-81.18 36.27,-80.11 39.59,-78.95 42.75,-77.72 45.73,-76.46 48.61,-75.19 51.59,-73.93 54.84,-72.63 58.35,-71.25 61.88,-69.7 65.41,-67.82 70.68,-65.32" fill="none" stroke="rgb(80, 68, 68)" stroke-width="2" stroke-linejoin="round" filter="url(#fuzzy)" /><polyline points="69.38,-15.77 69.75,-12.78 70.28,-10.17 71.17,-7.43 72.44,-4.53 73.97,-1.61 75.47,1.2 76.61,3.86 77.26,6.37 77.5,8.81 77.59,11.24 77.77,13.7 78.08,16.21 78.42,18.74 78.68,21.28 78.82,23.82 78.94,26.35 79.18,28.9 79.55,31.48 79.93,34.06 80.18,36.61 80.4,39.02 80.63,41.25 79.79,43.6" fill="none" stroke="rgb(80, 68, 68)" stroke-width="2" stroke-linejoin="round" filter="url(#fuzzy)" /><polyline points="-31,-78.87 -34.16,-77.93 -36.58,-76.52 -39.55,-74.98 -42.86,-73.46 -46.25,-72.01 -49.81,-70.58 -53.79,-69.12 -58.23,-67.59 -62.8,-65.97 -66.96,-64.26 -70.41,-62.45 -73.26,-60.56 -75.93,-58.6 -78.86,-56.59 -82.28,-54.51 -86.18,-52.37 -90.45,-50.13 -94.96,-47.8 -99.5,-45.39 -103.73,-42.92 -107.35,-40.39 -110.72,-37.82 -115.39,-35.29 -122.81,-33.08" fill="none" stroke="rgb(80, 68, 68)" stroke-width="2" stroke-linejoin="round" filter="url(#fuzzy)" /><polyline points="68.43,-19.62 84.19,-16.11 88.2,-13.1 86.07,-10.31 84.1,-7.49 84.25,-4.59 86.07,-1.7 88.84,1.1 92.21,3.77 95.99,6.31 99.8,8.78 103.09,11.23 105.43,13.71 106.64,16.22 106.91,18.76 106.64,21.3 106.32,23.85 106.41,26.4 107.1,28.96 108.17,31.53 109.14,34.1 109.7,36.62 110.29,39.03 111.9,41.27 114.62,43.36 115.84,45.24" fill="none" stroke="rgb(80, 68, 68)" stroke-width="2" stroke-linejoin="round" filter="url(#fuzzy)" /><polyline points="-32.18,-78.32 -34.71,-76.59 -37.13,-74.9 -39.28,-73.34 -41.14,-71.88 -42.8,-70.45 -44.41,-68.98 -46.02,-67.42 -47.64,-65.77 -49.26,-64.02 -50.88,-62.18 -52.49,-60.25 -54.07,-58.26 -55.62,-56.21 -57.13,-54.08 -58.6,-51.88 -60.02,-49.6 -61.43,-47.25 -62.83,-44.83 -64.24,-42.38 -65.66,-39.9 -67.07,-37.44 -68.41,-34.98 -69.64,-32.54 -70.75,-30.07 -71.81,-27.54 -72.88,-24.9 -73.99,-22.16 -75.05,-19.36 -76.01,-16.62 -76.78,-14.06" fill="none" stroke="rgb(80, 68, 68)" stroke-width="2" stroke-linejoin="round" filter="url(#fuzzy)" /><polyline points="-38.44,-73.26 -44.5,-71.68 -49.72,-69.91 -51.95,-68.16 -53.22,-66.48 -54.91,-64.78 -57.13,-63.01 -59.45,-61.12 -61.63,-59.09 -63.79,-56.95 -66.18,-54.73 -69.01,-52.48 -72.3,-50.24 -75.96,-48.02 -79.83,-45.82 -83.76,-43.61 -87.68,-41.38 -91.64,-39.13 -95.81,-36.86 -100.43,-34.58 -105.48,-32.3 -110.55,-30.02 -114.9,-27.73 -118.25,-25.44 -121.84,-23.13 -127.82,-20.52" fill="none" stroke="rgb(80, 68, 68)" stroke-width="2" stroke-linejoin="round" filter="url(#fuzzy)" /><polyline points="-50.66,-60.95 -52.47,-59 -54.57,-56.54 -57.04,-54.07 -59.46,-51.7 -61.48,-49.43 -63.12,-47.22 -64.63,-45.02 -66.24,-42.8 -68.06,-40.54 -70.02,-38.25 -71.98,-35.95 -73.75,-33.62 -75.22,-31.25 -76.33,-28.82 -77.1,-26.31 -77.6,-23.71 -77.94,-21.02 -78.25,-18.29 -78.64,-15.53 -79.18,-12.78 -79.86,-10.06 -80.63,-7.33 -81.42,-4.57 -82.16,-1.76 -82.8,1.08 -83.33,3.89 -83.72,6.59 -84.03,9.16 -84.34,11.64 -84.74,14.18 -85.27,16.89 -86.19,19.37" fill="none" stroke="rgb(80, 68, 68)" stroke-width="2" stroke-linejoin="round" filter="url(#fuzzy)" /><polyline points="-55.23,-54.29 -56.64,-51.55 -57.96,-48.81 -59.2,-46.24 -60.4,-43.73 -61.56,-41.23 -62.63,-38.74 -63.58,-36.27 -64.42,-33.82 -65.18,-31.35 -65.87,-28.83 -66.52,-26.25 -67.13,-23.61 -67.68,-20.94 -68.15,-18.26 -68.55,-15.62 -68.85,-13.04 -69.05,-10.53 -69.17,-8.08 -69.19,-5.67 -69.13,-3.22 -69,-0.69 -68.81,1.94 -68.59,4.64 -68.37,7.32 -68.15,9.9 -67.87,12.39 -67.53,14.91 -67.2,17.42" fill="none" stroke="rgb(80, 68, 68)" stroke-width="2" stroke-linejoin="round" filter="url(#fuzzy)" /><polyline points="-61.89,-41 -64.24,-38.21 -66.81,-35.7 -69.19,-33.34 -71.24,-30.96 -73.05,-28.48 -74.9,-25.88 -76.92,-23.2 -78.99,-20.49 -80.8,-17.79 -82.09,-15.16 -82.77,-12.59 -82.89,-10.1 -82.63,-7.66 -82.19,-5.23 -81.73,-2.76 -81.42,-0.23 -81.34,2.38 -81.6,5.03 -82.22,7.68 -83.15,10.31 -84.24,12.92 -85.33,15.55 -86.35,18.2 -87.45,20.83 -88.79,23.28 -89.96,25.44 -89.12,27.93" fill="none" stroke="rgb(80, 68, 68)" stroke-width="2" stroke-linejoin="round" filter="url(#fuzzy)" /><polyline points="68.51,-21.38 74.54,-20.07 75.14,-18.24 74.69,-15.89 74.06,-13.27 73.67,-10.55 73.71,-7.74 74.1,-4.88 74.73,-2.02 75.53,0.77 76.49,3.44 77.59,5.99 78.71,8.46 79.76,10.9 80.66,13.36 81.45,15.86 82.25,18.4 83.25,20.94 84.6,23.47 86.31,25.98 88.2,28.51 90.01,31.08 91.21,33.67 90.53,35.95" fill="none" stroke="rgb(80, 68, 68)" stroke-width="2" stroke-linejoin="round" filter="url(#fuzzy)" /><polyline points="-63.91,-37.18 -64.73,-35.33 -65.89,-33.03 -67.2,-30.68 -68.42,-28.3 -69.59,-25.81 -70.91,-23.17 -72.48,-20.41 -74.13,-17.59 -75.59,-14.8 -76.67,-12.07 -77.38,-9.38 -77.93,-6.68 -78.58,-3.94 -79.58,-1.16 -81.09,1.62 -83.08,4.37 -85.37,7.03 -87.66,9.59 -89.61,12.09 -91,14.55 -91.82,16.98 -92.21,19.37 -92.31,21.7 -92.27,24.09 -92.38,26.82 -92.45,30.59" fill="none" stroke="rgb(80, 68, 68)" stroke-width="2" stroke-linejoin="round" filter="url(#fuzzy)" /><polyline points="-66.25,-29.23 -68.21,-25.62 -70.8,-22.74 -74.28,-19.97 -78.05,-17.25 -81.57,-14.62 -84.84,-12.08 -88.05,-9.64 -91.17,-7.26 -94.03,-4.88 -96.45,-2.43 -98.37,0.1 -99.82,2.72 -100.82,5.37 -101.54,8.01 -102.34,10.62 -103.76,13.23 -106.19,15.83 -109.6,18.44 -113.36,21.03 -116.47,23.55 -118.14,26.06 -118.5,28.67 -118.8,31.51 -121.8,34.11" fill="none" stroke="rgb(80, 68, 68)" stroke-width="2" stroke-linejoin="round" filter="url(#fuzzy)" /><polyline points="56.29,-53 56.64,-51.84 57.53,-49.85 58.49,-47.64 59.44,-45.35 60.41,-42.96 61.41,-40.46 62.41,-37.91 63.36,-35.35 64.24,-32.85 65.02,-30.39 65.71,-27.96 66.32,-25.5 66.85,-22.97 67.31,-20.37 67.71,-17.7 68.06,-14.99 68.36,-12.28 68.6,-9.6 68.77,-6.95 68.85,-4.34 68.83,-1.73 68.71,0.89 68.51,3.53 68.25,6.18 67.94,8.78 67.59,11.35 67.18,14.06 66.66,17.09 66.11,19.47" fill="none" stroke="rgb(80, 68, 68)" stroke-width="2" stroke-linejoin="round" filter="url(#fuzzy)" /><polyline points="53.1,-57.98 56.37,-55.54 58.7,-53.63 59.89,-51.77 60.94,-49.77 62.48,-47.63 64.85,-45.36 68.22,-42.98 72.56,-40.5 77.65,-37.97 83.06,-35.44 88.26,-32.93 92.77,-30.45 96.21,-27.99 98.44,-25.5 99.57,-22.95 99.92,-20.34 99.99,-17.68 100.3,-14.97 101.25,-12.27 103,-9.58 105.4,-6.91 108.09,-4.28 110.64,-1.65 112.8,0.98 114.62,3.63 116.44,6.27 118.73,8.92 121.84,11.57 125.79,14.26 130.23,17 134.48,19.67 138.28,22 143.67,23.78" fill="none" stroke="rgb(80, 68, 68)" stroke-width="2" stroke-linejoin="round" filter="url(#fuzzy)" /><polyline points="33.32,-77.4 35.04,-76.55 38.26,-75.23 41.4,-73.66 44.1,-72.05 46.6,-70.47 49.18,-68.91 51.99,-67.32 54.97,-65.65 57.93,-63.87 60.61,-61.97 62.83,-59.95 64.56,-57.84 65.88,-55.67 66.93,-53.47 67.86,-51.27 68.81,-49.07 69.91,-46.87 71.22,-44.66 72.84,-42.42 74.79,-40.12 77.1,-37.75 79.73,-35.31 82.57,-32.78 85.46,-30.18 88.25,-27.57 90.85,-24.98 93.26,-22.44 95.57,-19.96 97.9,-17.5 100.24,-15.01 102.51,-12.44 104.54,-9.76 106.19,-6.96 107.25,-3.89 107.07,-0.37" fill="none" stroke="rgb(80, 68, 68)" stroke-width="2" stroke-linejoin="round" filter="url(#fuzzy)" /><polyline points="28.86,-80.31 30.71,-79.23 32.54,-77.97 34.39,-76.66 36.37,-75.26 38.4,-73.76 40.37,-72.22 42.22,-70.68 43.96,-69.14 45.64,-67.57 47.27,-65.94 48.9,-64.21 50.51,-62.36 52.13,-60.39 53.74,-58.3 55.32,-56.14 56.86,-53.95 58.35,-51.77 59.79,-49.6 61.21,-47.44 62.59,-45.29 63.92,-43.16 65.17,-41.02 66.34,-38.83 67.47,-36.47 68.61,-33.89 69.73,-31.05" fill="none" stroke="rgb(80, 68, 68)" stroke-width="2" stroke-linejoin="round" filter="url(#fuzzy)" /><polyline points="27.5,-81.06 29.66,-80.24 32.17,-79.17 34.28,-77.97 36.19,-76.68 38.16,-75.28 40.19,-73.8 42.22,-72.28 44.18,-70.74 46.1,-69.2 48.03,-67.63 49.98,-66 51.97,-64.28 53.95,-62.44 55.92,-60.47 57.85,-58.38 59.74,-56.23 61.59,-54.04 63.4,-51.85 65.19,-49.68 66.98,-47.52 68.78,-45.37 70.55,-43.25 72.25,-41.16 73.81,-39.02 75.22,-36.68 76.81,-34.29" fill="none" stroke="rgb(80, 68, 68)" stroke-width="2" stroke-linejoin="round" filter="url(#fuzzy)" /><polyline points="25.57,-82.34 28.07,-81.02 30.22,-79.75 32.39,-78.4 34.43,-77.06 36.28,-75.75 38.05,-74.46 39.86,-73.13 41.78,-71.71 43.79,-70.18 45.85,-68.52 47.92,-66.75 49.97,-64.9 51.98,-62.98 53.93,-61.01 55.8,-59.02 57.61,-57.04 59.39,-55.07 61.2,-53.13 63.09,-51.18 65.09,-49.18 67.16,-47.12 69.12,-45 70.87,-42.78 72.78,-39.85" fill="none" stroke="rgb(80, 68, 68)" stroke-width="2" stroke-linejoin="round" filter="url(#fuzzy)" /><polyline points="24.54,-82.4 27.95,-81.28 30.38,-80.25 32.45,-79.14 35.15,-77.93 38.9,-76.62 43.45,-75.21 48.27,-73.74 52.83,-72.21 56.82,-70.66 60.16,-69.09 62.91,-67.48 65.29,-65.8 67.51,-64.03 69.74,-62.15 72.06,-60.16 74.46,-58.08 76.92,-55.94 79.47,-53.76 82.28,-51.56 85.54,-49.37 89.44,-47.18 94.06,-44.99 99.35,-42.77 105.16,-40.51 111.34,-38.18 117.77,-35.75 124.4,-33.21 131.03,-30.56 137.22,-27.85 142.15,-25.16 145.03,-22.63 145.99,-20.41 147.21,-18.43 152.38,-15.77" fill="none" stroke="rgb(80, 68, 68)" stroke-width="2" stroke-linejoin="round" filter="url(#fuzzy)" /><polyline points="23.71,-82.69 25.73,-81.99 27.65,-80.92 29.37,-79.69 30.95,-78.37 32.43,-77.04 33.84,-75.71 35.2,-74.38 36.49,-73 37.74,-71.53 38.98,-69.95 40.27,-68.26 41.63,-66.47 43.07,-64.6 44.54,-62.67 45.97,-60.7 47.32,-58.7 48.53,-56.7 49.62,-54.69 50.6,-52.66 51.51,-50.6 52.35,-48.48 53.12,-46.29 53.79,-43.99 54.36,-41.6 54.87,-39.12 55.36,-36.59 55.85,-34.05 56.29,-31.59 56.61,-29.22 56.78,-26.91 56.84,-24.51 56.82,-21.86 56.61,-18.95 56.32,-16.14" fill="none" stroke="rgb(80, 68, 68)" stroke-width="2" stroke-linejoin="round" filter="url(#fuzzy)" /><polyline points="11.77,-86.7 16.78,-86.12 18.53,-85.39 20.38,-84.62 23.02,-83.85 26.27,-83.05 29.66,-82.19 32.86,-81.26 35.72,-80.25 38.3,-79.15 40.68,-77.96 42.92,-76.69 45.07,-75.33 47.16,-73.9 49.32,-72.42 51.63,-70.89 54.19,-69.33 57.04,-67.72 60.15,-66.05 63.48,-64.3 66.97,-62.45 70.51,-60.48 74.04,-58.42 77.5,-56.28 80.92,-54.1 84.39,-51.91 88.06,-49.72 92.08,-47.53 96.54,-45.36 101.43,-43.19 106.57,-41 111.72,-38.75 116.71,-36.38 121.66,-33.84 127.34,-31.2 134.5,-28.66" fill="none" stroke="rgb(80, 68, 68)" stroke-width="2" stroke-linejoin="round" filter="url(#fuzzy)" />
    </g>
    
        <g id="lineNose">
        <path d="M -7.82,19.52 Q 9.95, 31.065 1.0649999999999995, -5.324000000000001" fill="none" stroke="black" stroke-width="3" stroke-linejoin="round" filter="url(#fuzzy)"></path>
        </g>
      
    <g id="mouth">
      <polyline points="-52.92,42.28 -52.52,44.1 -52.11,45.89 -51.67,47.64 -51.22,49.37 -50.75,51.07 -50.27,52.74 -49.76,54.38 -49.24,55.99 -48.7,57.56 -48.15,59.11 -47.57,60.62 -46.98,62.1 -46.38,63.55 -45.75,64.96 -45.11,66.34 -44.45,67.69 -43.78,69 -43.09,70.29 -42.39,71.53 -41.66,72.74 -40.93,73.92 -40.17,75.06 -39.4,76.16 -38.62,77.23 -37.81,78.26 -37,79.26 -36.16,80.22 -35.32,81.14 -34.45,82.02 -33.58,82.87 -32.68,83.68 -31.78,84.45 -30.85,85.18 -29.92,85.87 -28.96,86.52 -28,87.13 -27.02,87.7 -26.02,88.23 -25.01,88.72 -23.99,89.17 -22.95,89.58 -21.9,89.95 -20.84,90.27 -19.76,90.55 -18.67,90.79 -17.56,90.99 -16.44,91.14 -15.31,91.25 -14.16,91.31 -13,91.33 -11.83,91.31 -10.65,91.24 -9.45,91.12 -8.24,90.96 -7.02,90.76 -5.79,90.51 -4.54,90.21 -3.28,89.86 -2.01,89.47 -0.73,89.03 0.57,88.54 1.87,88.01 3.19,87.42 4.52,86.79 5.86,86.11 7.21,85.37 8.58,84.59 9.95,83.76 11.34,82.88 12.74,81.95 14.14,80.96 15.56,79.93 16.99,78.84 18.43,77.71 19.88,76.52 21.34,75.27 22.81,73.98 24.29,72.63 25.78,71.23 27.29,69.77 28.8,68.26 30.32,66.69 31.85,65.07 33.39,63.4 34.93,61.67 36.49,59.88 38.06,58.04 39.64,56.14 41.22,54.19 42.81,52.18 44.42,50.11 46.03,47.98 47.65,45.79 49.28,43.55 50.91,41.25 52.56,38.89 54.21,36.47 55.87,33.99 57.54,31.45 57.54,31.45 56.44,31.95 55.33,32.43 54.23,32.91 53.12,33.38 52.02,33.84 50.92,34.29 49.81,34.73 48.71,35.16 47.6,35.58 46.5,36 45.39,36.4 44.29,36.8 43.18,37.18 42.08,37.56 40.97,37.93 39.87,38.29 38.76,38.64 37.66,38.98 36.56,39.31 35.45,39.63 34.35,39.95 33.24,40.26 32.14,40.55 31.03,40.84 29.93,41.12 28.82,41.4 27.72,41.66 26.61,41.92 25.51,42.17 24.4,42.41 23.3,42.64 22.19,42.86 21.09,43.08 19.99,43.29 18.88,43.49 17.78,43.68 16.67,43.86 15.57,44.04 14.46,44.21 13.36,44.37 12.25,44.53 11.15,44.67 10.04,44.81 8.94,44.94 7.83,45.07 6.73,45.18 5.63,45.29 4.52,45.39 3.42,45.49 2.31,45.58 1.21,45.66 0.1,45.73 -1,45.8 -2.11,45.86 -3.21,45.91 -4.32,45.96 -5.42,45.99 -6.53,46.03 -7.63,46.05 -8.73,46.07 -9.84,46.08 -10.94,46.09 -12.05,46.09 -13.15,46.08 -14.26,46.07 -15.36,46.05 -16.47,46.02 -17.57,45.99 -18.68,45.95 -19.78,45.91 -20.89,45.86 -21.99,45.8 -23.09,45.74 -24.2,45.67 -25.3,45.6 -26.41,45.52 -27.51,45.43 -28.62,45.34 -29.72,45.24 -30.83,45.14 -31.93,45.03 -33.04,44.92 -34.14,44.8 -35.25,44.67 -36.35,44.54 -37.46,44.41 -38.56,44.27 -39.66,44.12 -40.77,43.97 -41.87,43.82 -42.98,43.65 -44.08,43.49 -45.19,43.32 -46.29,43.14 -47.4,42.96 -48.5,42.77 -49.61,42.58 -50.71,42.39 -51.82,42.19" fill="rgb(215,127,140)" stroke="black" stroke-width="3" stroke-linejoin="round" filter="url(#fuzzy)" />
    </g>
  </svg>