<svg viewBox="-100 -100 200 200" xmlns="http://www.w3.org/2000/svg" width="500" height="500" id="face-svg">
    <defs>
      <clipPath id="leftEyeClipPath">
        <polyline points="38.46,0.78 38.32,0.64 38.16,0.49 37.95,0.34 37.72,0.19 37.44,0.04 37.12,-0.12 36.77,-0.27 36.38,-0.43 35.94,-0.59 35.46,-0.75 34.94,-0.9 34.38,-1.06 33.78,-1.22 33.14,-1.38 32.45,-1.53 31.95,-1.71 31.38,-1.9 30.72,-2.08 29.98,-2.26 29.17,-2.44 28.29,-2.62 27.33,-2.79 26.31,-2.96 25.21,-3.12 24.06,-3.28 22.84,-3.44 21.58,-3.58 20.25,-3.72 18.89,-3.85 17.48,-3.98 16.03,-4.09 14.55,-4.2 13.04,-4.3 11.5,-4.39 9.95,-4.47 8.37,-4.54 6.79,-4.6 5.21,-4.65 3.62,-4.69 2.03,-4.72 0.45,-4.74 -1.12,-4.75 -2.67,-4.75 -4.21,-4.74 -5.73,-4.73 -7.22,-4.7 -8.69,-4.66 -10.13,-4.62 -11.53,-4.57 -12.9,-4.51 -14.23,-4.44 -15.53,-4.36 -16.78,-4.28 -18,-4.19 -19.17,-4.09 -20.3,-3.99 -21.39,-3.89 -22.44,-3.78 -23.44,-3.67 -24.4,-3.55 -25.32,-3.43 -26.2,-3.31 -27.04,-3.19 -27.84,-3.07 -28.61,-2.94 -29.34,-2.82 -30.03,-2.69 -30.69,-2.57 -31.32,-2.44 -31.91,-2.31 -32.47,-2.18 -32.99,-2.06 -33.48,-1.93 -33.94,-1.8 -34.37,-1.68 -34.77,-1.55 -35.14,-1.43 -35.48,-1.3 -35.79,-1.18 -32.21,0.2 -31.65,0.28 -31.08,0.36 -30.49,0.44 -29.89,0.52 -29.27,0.6 -28.64,0.68 -28,0.76 -27.35,0.85 -26.68,0.93 -26,1.02 -25.31,1.11 -24.61,1.2 -23.89,1.29 -23.17,1.39 -22.43,1.49 -21.68,1.58 -20.92,1.69 -20.14,1.79 -19.35,1.9 -18.55,2.01 -17.73,2.12 -16.91,2.24 -16.08,2.36 -15.24,2.49 -14.39,2.62 -13.53,2.75 -12.67,2.89 -11.8,3.03 -10.93,3.18 -10.05,3.32 -9.17,3.47 -8.29,3.63 -7.4,3.78 -6.51,3.94 -5.62,4.09 -4.72,4.25 -3.83,4.41 -2.93,4.56 -2.03,4.72 -1.13,4.87 -0.23,5.02 0.67,5.17 1.57,5.31 2.48,5.44 3.38,5.57 4.29,5.7 5.19,5.81 6.1,5.91 7.01,6.01 7.92,6.09 8.83,6.17 9.74,6.23 10.66,6.28 11.57,6.31 12.49,6.33 13.41,6.33 14.33,6.32 15.25,6.3 16.18,6.25 17.11,6.19 18.03,6.12 18.96,6.02 19.88,5.91 20.81,5.79 21.57,5.74 22.33,5.69 23.08,5.63 23.83,5.56 24.56,5.48 25.29,5.4 26.01,5.31 26.72,5.22 27.42,5.12 28.11,5.01 28.78,4.9 29.44,4.79 30.08,4.67 30.7,4.55 31.3,4.43" />
      </clipPath>
      <clipPath id="rightEyeClipPath">
        <polyline points="-37.38,0.66 -37.27,0.49 -37.12,0.32 -36.95,0.14 -36.74,-0.03 -36.49,-0.21 -36.21,-0.4 -35.89,-0.58 -35.53,-0.76 -35.13,-0.94 -34.7,-1.12 -34.22,-1.3 -33.7,-1.48 -33.14,-1.65 -32.53,-1.83 -31.89,-2 -31.45,-2.22 -30.94,-2.44 -30.34,-2.65 -29.66,-2.86 -28.91,-3.06 -28.08,-3.26 -27.18,-3.45 -26.2,-3.62 -25.15,-3.79 -24.04,-3.96 -22.87,-4.11 -21.64,-4.25 -20.35,-4.38 -19.01,-4.5 -17.63,-4.61 -16.2,-4.71 -14.74,-4.79 -13.24,-4.87 -11.72,-4.93 -10.17,-4.98 -8.6,-5.02 -7.02,-5.05 -5.42,-5.07 -3.82,-5.07 -2.22,-5.07 -0.62,-5.05 0.97,-5.03 2.55,-4.99 4.12,-4.94 5.68,-4.88 7.21,-4.82 8.72,-4.74 10.2,-4.66 11.66,-4.57 13.08,-4.47 14.47,-4.36 15.83,-4.25 17.15,-4.13 18.44,-4 19.68,-3.87 20.89,-3.74 22.06,-3.6 23.19,-3.46 24.27,-3.31 25.32,-3.16 26.33,-3.01 27.3,-2.87 28.24,-2.71 29.14,-2.56 30,-2.41 30.84,-2.26 31.64,-2.11 32.4,-1.96 33.14,-1.81 33.84,-1.66 34.52,-1.51 35.16,-1.36 35.77,-1.21 36.35,-1.06 36.9,-0.92 37.43,-0.77 37.93,-0.63 38.4,-0.49 38.85,-0.35 35.22,1.49 34.67,1.55 34.1,1.6 33.52,1.66 32.92,1.72 32.3,1.78 31.67,1.84 31.02,1.9 30.35,1.97 29.67,2.03 28.97,2.1 28.26,2.16 27.53,2.24 26.78,2.31 26.02,2.38 25.24,2.46 24.45,2.54 23.63,2.62 22.8,2.7 21.95,2.78 21.08,2.87 20.19,2.96 19.29,3.06 18.38,3.16 17.44,3.26 16.5,3.36 15.54,3.47 14.56,3.58 13.58,3.7 12.58,3.81 11.58,3.93 10.56,4.05 9.54,4.18 8.51,4.3 7.47,4.43 6.43,4.56 5.38,4.69 4.33,4.82 3.28,4.94 2.22,5.07 1.17,5.19 0.11,5.31 -0.94,5.43 -1.99,5.55 -3.04,5.66 -4.08,5.76 -5.12,5.86 -6.15,5.95 -7.17,6.04 -8.19,6.11 -9.2,6.18 -10.19,6.24 -11.18,6.29 -12.15,6.32 -13.12,6.35 -14.06,6.36 -15,6.36 -15.92,6.35 -16.82,6.32 -17.71,6.28 -18.59,6.23 -19.44,6.16 -20.28,6.08 -21.1,5.99 -21.9,5.88 -22.63,5.84 -23.34,5.79 -24.04,5.74 -24.73,5.68 -25.4,5.61 -26.06,5.54 -26.7,5.46 -27.32,5.38 -27.93,5.29 -28.52,5.2 -29.1,5.1 -29.65,5 -30.19,4.9 -30.7,4.8 -31.2,4.69" />
      </clipPath>
      <filter id="fuzzy">
        <feTurbulence id="turbulence" baseFrequency="0.05" numOctaves="3" type="noise" result="noise" />
        <feDisplacementMap in="SourceGraphic" in2="noise" scale="2" />
      </filter>
      <linearGradient id="rainbowGradient" x1="0%" y1="0%" x2="100%" y2="0%">
        <stop offset="0%" style="stop-color: [object Object]; stop-opacity: 1" />
        <stop offset="50%" style="stop-color: [object Object]; stop-opacity: 1" />
        <stop offset="100%" style="stop-color: [object Object]; stop-opacity: 1" />
      </linearGradient>
    </defs>
    <rect x="-100" y="-100" width="100%" height="100%" fill="rgb(240, 128, 128)" />
    <polyline id="faceContour" points="85.39,0.2 85.32,3.09 85.65,3.68 85.54,3.62 85.14,5.74 85.4,7.49 85.34,8.19 84.89,9.2 84.92,10.87 84.69,11.76 84.35,14.99 84.44,12.86 84.04,15.65 83.85,16.16 83.35,18.64 83.58,18.02 82.57,21.73 82.41,22.5 82.48,23.27 82.21,23.78 80.97,27.13 80.91,26.99 80.41,28.77 79.77,30.28 80.21,30.08 79.04,32.32 77.92,35.04 78.48,33.84 77.63,35.45 77.13,36.96 76.43,37.42 75.39,40.05 74.42,41.77 74.33,41.76 73.44,43.32 72.51,45.23 72,45.87 70.77,47.58 70.7,47.44 70.57,47.83 70,48.31 68.68,50.61 66.97,52.71 66.63,53.14 66.44,53.39 65.53,54.6 63.2,57.17 63.44,56.95 61.57,58.99 62.13,58.38 59.7,60.6 59.97,60.21 56.61,63.48 56.99,63.05 55.67,64.38 55.48,64.23 55.37,64.28 52.69,66.65 52.51,66.58 51.93,67.29 49.33,69.21 49.68,68.94 48.38,69.96 46.92,70.78 44.89,71.97 44.96,71.84 43.42,73.09 42.65,73.12 41.35,74.08 39.83,74.82 39.41,75.15 37.43,75.9 35.02,77.16 33.88,77.79 34.83,77.39 34.1,77.66 32.06,78.35 30.35,79.13 29.5,79.43 27.64,79.94 26.43,80.28 25.32,80.77 24.85,80.89 24.71,80.92 20.97,82.23 18.49,82.74 18.5,82.56 18.39,82.68 14.49,83.29 15.33,83.47 12.14,83.74 11.99,83.87 11.33,83.81 8.97,84.03 7.52,84.13 7.99,84.35 7.02,84.42 3.69,84.65 1.37,84.69 1.94,84.45 -0.71,84.78 -0.36,84.61 -2.9,84.43 -4.11,84.35 -5.68,84.36 -6.2,84.25 -6.91,84.49 -8.4,84.36 -11.57,83.95 -10.97,83.76 -12.13,83.77 -12.69,83.88 -16.38,82.96 -17.63,82.94 -17.6,82.92 -18.81,82.67 -21.98,81.75 -24.32,81.06 -22.7,81.6 -25.21,80.97 -25.79,80.59 -28.91,79.78 -30.48,79.25 -29.77,79.49 -31.1,78.91 -32.6,78.23 -33.76,77.74 -36.14,76.55 -35.77,76.79 -37.47,76.15 -39.5,74.94 -39.42,74.95 -42.62,73.17 -42.44,73.58 -44.45,72.22 -44.75,72.07 -46.48,71.04 -46.77,70.94 -48.85,69.59 -49.88,68.69 -50.18,68.3 -49.89,68.76 -51.99,66.96 -53.37,66.08 -55.21,64.56 -55.87,63.94 -56.78,63.12 -57.71,62.79 -58.68,61.45 -59.52,60.59 -59.85,60.59 -61.44,59.07 -63.49,56.84 -63.82,56.51 -63.73,56.69 -64.66,55.23 -64.96,54.95 -67.61,51.91 -66.16,53.7 -67.91,51.71 -69.89,48.91 -69.83,49.13 -71.11,46.95 -71.43,46.63 -72.36,45.19 -72.38,45.5 -73.22,43.88 -73.44,43.33 -74.96,41.24 -74.89,40.57 -76.2,38.14 -76.74,37.13 -77.37,35.82 -78.14,33.96 -78.36,33.58 -79.35,31.17 -79.88,30.18 -79.82,29.95 -80.96,27.42 -80.89,27.72 -81.55,25.64 -81.47,25.42 -82.22,24.07 -82.65,22.33 -83.07,20.96 -83,20.94 -83.8,18.18 -83.54,18.1 -83.84,16.32 -83.79,16.19 -84.78,12.35 -84.39,12.52 -85.2,9.28 -85.03,9.59 -85.32,7.06 -85.24,7.44 -85.41,6.87 -85.56,3.17 -85.79,0.47 -85.67,0.3 -85.47,0.25 -85.55,-0.77 -85.6,-3.91 -85.46,-4.08 -85.45,-7.01 -85.3,-8.03 -84.79,-9.96 -84.73,-11.26 -85.02,-9.61 -84.89,-10.99 -84.83,-11.4 -84.64,-13.76 -84.47,-14.56 -83.59,-17.23 -83.04,-20.54 -83.66,-18.67 -82.85,-20.69 -82.41,-22.89 -82.05,-23.61 -82.04,-24.09 -81.49,-26.4 -80.53,-28.39 -81.23,-27.05 -80.36,-29.71 -79.42,-31.92 -78.53,-33.79 -78.91,-33.02 -77.63,-36.12 -77.04,-37.36 -77.42,-35.69 -76.17,-39.1 -75.49,-39.54 -75.06,-40.4 -74.47,-42.1 -73.58,-43.41 -73.74,-43.24 -71.8,-45.74 -71.07,-46.89 -70,-49.13 -69.43,-49.35 -68.11,-51.59 -68.74,-50.48 -68.85,-50.63 -67.29,-52.59 -65.27,-54.58 -64.92,-55.29 -64.25,-55.68 -64.96,-55.24 -63.71,-56.67 -60.71,-59.58 -61.33,-59.01 -59.59,-60.58 -58.42,-62.2 -58.38,-61.89 -56.22,-63.76 -55.3,-64.67 -54.96,-64.86 -53.29,-66.33 -51.85,-67.51 -51.63,-67.51 -49.61,-69.08 -49.59,-68.68 -48.34,-69.8 -45.59,-71.78 -46.93,-70.64 -45.81,-71.43 -44.98,-72.2 -43.38,-73.1 -40.97,-74.21 -40.33,-74.85 -40.79,-74.53 -37.4,-76.34 -36.78,-76.62 -36.27,-76.55 -31.72,-78.54 -32.06,-78.38 -32.77,-78.27 -31.36,-78.87 -28.48,-79.8 -29.1,-79.58 -26.6,-80.52 -25.45,-80.6 -21.64,-81.76 -22.19,-81.73 -20.78,-81.97 -19.3,-82.44 -18.31,-82.8 -17.11,-82.89 -14.25,-83.59 -14.01,-83.7 -13.4,-83.54 -12.89,-83.59 -11.14,-84.12 -9.18,-84.07 -6.48,-84.44 -8.41,-84.1 -5.85,-84.5 -4.23,-84.43 -2.44,-84.69 -2.99,-84.63 1.81,-84.77 1.77,-84.78 4.71,-84.64 2.55,-84.79 6.25,-84.41 5.33,-84.32 8.62,-84.03 9.78,-84.04 10.93,-83.99 13.04,-83.68 14.13,-83.54 14.38,-83.27 17.28,-82.9 16.33,-82.98 19.6,-82.58 20.44,-82.18 23.12,-81.62 22.41,-81.81 23.87,-81.16 26.05,-80.58 26.51,-80.6 29.32,-79.4 27.46,-80.01 28.84,-79.48 32.17,-78.15 32.64,-78.45 34.41,-77.52 34.46,-77.44 36.35,-76.65 38.79,-75.27 37.08,-76.15 40.1,-74.83 40.01,-74.75 42.38,-73.55 43.41,-72.91 42.91,-73.14 47.27,-70.61 46.96,-70.81 48.22,-69.85 49.37,-69.19 50.83,-67.77 50.82,-68.11 53.33,-66.48 53.36,-66.27 54.74,-65.32 56.45,-63.62 55.1,-64.56 58.02,-62.24 60.12,-60.13 59.4,-60.83 60.2,-60.11 61.15,-59.33 62.14,-58.07 63.17,-57.29 63.58,-56.57 64.78,-55.18 66.15,-53.69 67.61,-51.94 67.59,-51.94 69.49,-49.01 68.97,-49.92 69.52,-48.98 69.94,-48.96 71.01,-47.03 73.03,-44.11 72.74,-45.05 73.71,-42.69 74.24,-41.62 74.08,-42.18 75.73,-39.43 75.89,-39.29 76.6,-37.66 77.11,-36.17 78.14,-34.66 78.05,-34.21 79.1,-31.95 80.02,-30.21 79.76,-30.13 80.19,-28.86 80.22,-29 80.81,-27.35 81.83,-24.98 82.33,-23.42 82.82,-21.87 82.65,-21.63 83.7,-18.34 84,-16.75 83.48,-17.62 84.14,-16.48 84.15,-14.54 84.72,-12.63 84.71,-11.77 84.82,-9.6 85.02,-10.86 85.22,-6.56 85.18,-6.63 85.31,-3.8 85.33,-4.02 85.29,-3.83 85.73,-1.94 85.39,0.2 85.32,3.09" fill="rgb(221, 160, 221)" stroke="black" stroke-width="1.6666666666666665" stroke-linejoin="round" filter="url(#fuzzy)" />
    <g transform="translate(37.15 -26.889999999999997)">
      <polyline id="rightCountour" points="-37.38,0.66 -37.27,0.49 -37.12,0.32 -36.95,0.14 -36.74,-0.03 -36.49,-0.21 -36.21,-0.4 -35.89,-0.58 -35.53,-0.76 -35.13,-0.94 -34.7,-1.12 -34.22,-1.3 -33.7,-1.48 -33.14,-1.65 -32.53,-1.83 -31.89,-2 -31.45,-2.22 -30.94,-2.44 -30.34,-2.65 -29.66,-2.86 -28.91,-3.06 -28.08,-3.26 -27.18,-3.45 -26.2,-3.62 -25.15,-3.79 -24.04,-3.96 -22.87,-4.11 -21.64,-4.25 -20.35,-4.38 -19.01,-4.5 -17.63,-4.61 -16.2,-4.71 -14.74,-4.79 -13.24,-4.87 -11.72,-4.93 -10.17,-4.98 -8.6,-5.02 -7.02,-5.05 -5.42,-5.07 -3.82,-5.07 -2.22,-5.07 -0.62,-5.05 0.97,-5.03 2.55,-4.99 4.12,-4.94 5.68,-4.88 7.21,-4.82 8.72,-4.74 10.2,-4.66 11.66,-4.57 13.08,-4.47 14.47,-4.36 15.83,-4.25 17.15,-4.13 18.44,-4 19.68,-3.87 20.89,-3.74 22.06,-3.6 23.19,-3.46 24.27,-3.31 25.32,-3.16 26.33,-3.01 27.3,-2.87 28.24,-2.71 29.14,-2.56 30,-2.41 30.84,-2.26 31.64,-2.11 32.4,-1.96 33.14,-1.81 33.84,-1.66 34.52,-1.51 35.16,-1.36 35.77,-1.21 36.35,-1.06 36.9,-0.92 37.43,-0.77 37.93,-0.63 38.4,-0.49 38.85,-0.35 35.22,1.49 34.67,1.55 34.1,1.6 33.52,1.66 32.92,1.72 32.3,1.78 31.67,1.84 31.02,1.9 30.35,1.97 29.67,2.03 28.97,2.1 28.26,2.16 27.53,2.24 26.78,2.31 26.02,2.38 25.24,2.46 24.45,2.54 23.63,2.62 22.8,2.7 21.95,2.78 21.08,2.87 20.19,2.96 19.29,3.06 18.38,3.16 17.44,3.26 16.5,3.36 15.54,3.47 14.56,3.58 13.58,3.7 12.58,3.81 11.58,3.93 10.56,4.05 9.54,4.18 8.51,4.3 7.47,4.43 6.43,4.56 5.38,4.69 4.33,4.82 3.28,4.94 2.22,5.07 1.17,5.19 0.11,5.31 -0.94,5.43 -1.99,5.55 -3.04,5.66 -4.08,5.76 -5.12,5.86 -6.15,5.95 -7.17,6.04 -8.19,6.11 -9.2,6.18 -10.19,6.24 -11.18,6.29 -12.15,6.32 -13.12,6.35 -14.06,6.36 -15,6.36 -15.92,6.35 -16.82,6.32 -17.71,6.28 -18.59,6.23 -19.44,6.16 -20.28,6.08 -21.1,5.99 -21.9,5.88 -22.63,5.84 -23.34,5.79 -24.04,5.74 -24.73,5.68 -25.4,5.61 -26.06,5.54 -26.7,5.46 -27.32,5.38 -27.93,5.29 -28.52,5.2 -29.1,5.1 -29.65,5 -30.19,4.9 -30.7,4.8 -31.2,4.69" fill="white" stroke="white" stroke-width="0" stroke-linejoin="round" filter="url(#fuzzy)" />
    </g>
    <g transform="translate(-39.74 -25.02)">
      <polyline id="leftCountour" points="38.46,0.78 38.32,0.64 38.16,0.49 37.95,0.34 37.72,0.19 37.44,0.04 37.12,-0.12 36.77,-0.27 36.38,-0.43 35.94,-0.59 35.46,-0.75 34.94,-0.9 34.38,-1.06 33.78,-1.22 33.14,-1.38 32.45,-1.53 31.95,-1.71 31.38,-1.9 30.72,-2.08 29.98,-2.26 29.17,-2.44 28.29,-2.62 27.33,-2.79 26.31,-2.96 25.21,-3.12 24.06,-3.28 22.84,-3.44 21.58,-3.58 20.25,-3.72 18.89,-3.85 17.48,-3.98 16.03,-4.09 14.55,-4.2 13.04,-4.3 11.5,-4.39 9.95,-4.47 8.37,-4.54 6.79,-4.6 5.21,-4.65 3.62,-4.69 2.03,-4.72 0.45,-4.74 -1.12,-4.75 -2.67,-4.75 -4.21,-4.74 -5.73,-4.73 -7.22,-4.7 -8.69,-4.66 -10.13,-4.62 -11.53,-4.57 -12.9,-4.51 -14.23,-4.44 -15.53,-4.36 -16.78,-4.28 -18,-4.19 -19.17,-4.09 -20.3,-3.99 -21.39,-3.89 -22.44,-3.78 -23.44,-3.67 -24.4,-3.55 -25.32,-3.43 -26.2,-3.31 -27.04,-3.19 -27.84,-3.07 -28.61,-2.94 -29.34,-2.82 -30.03,-2.69 -30.69,-2.57 -31.32,-2.44 -31.91,-2.31 -32.47,-2.18 -32.99,-2.06 -33.48,-1.93 -33.94,-1.8 -34.37,-1.68 -34.77,-1.55 -35.14,-1.43 -35.48,-1.3 -35.79,-1.18 -32.21,0.2 -31.65,0.28 -31.08,0.36 -30.49,0.44 -29.89,0.52 -29.27,0.6 -28.64,0.68 -28,0.76 -27.35,0.85 -26.68,0.93 -26,1.02 -25.31,1.11 -24.61,1.2 -23.89,1.29 -23.17,1.39 -22.43,1.49 -21.68,1.58 -20.92,1.69 -20.14,1.79 -19.35,1.9 -18.55,2.01 -17.73,2.12 -16.91,2.24 -16.08,2.36 -15.24,2.49 -14.39,2.62 -13.53,2.75 -12.67,2.89 -11.8,3.03 -10.93,3.18 -10.05,3.32 -9.17,3.47 -8.29,3.63 -7.4,3.78 -6.51,3.94 -5.62,4.09 -4.72,4.25 -3.83,4.41 -2.93,4.56 -2.03,4.72 -1.13,4.87 -0.23,5.02 0.67,5.17 1.57,5.31 2.48,5.44 3.38,5.57 4.29,5.7 5.19,5.81 6.1,5.91 7.01,6.01 7.92,6.09 8.83,6.17 9.74,6.23 10.66,6.28 11.57,6.31 12.49,6.33 13.41,6.33 14.33,6.32 15.25,6.3 16.18,6.25 17.11,6.19 18.03,6.12 18.96,6.02 19.88,5.91 20.81,5.79 21.57,5.74 22.33,5.69 23.08,5.63 23.83,5.56 24.56,5.48 25.29,5.4 26.01,5.31 26.72,5.22 27.42,5.12 28.11,5.01 28.78,4.9 29.44,4.79 30.08,4.67 30.7,4.55 31.3,4.43" fill="white" stroke="white" stroke-width="0" stroke-linejoin="round" filter="url(#fuzzy)" />
    </g>
    <g transform="translate(37.15 -26.889999999999997)">
      <polyline id="rightUpper" points="-37.45,2.04 -37.48,1.94 -37.52,1.83 -37.55,1.71 -37.57,1.58 -37.58,1.44 -37.58,1.3 -37.57,1.15 -37.53,0.99 -37.47,0.83 -37.38,0.66 -37.27,0.49 -37.12,0.32 -36.95,0.14 -36.74,-0.03 -36.49,-0.21 -36.21,-0.4 -35.89,-0.58 -35.53,-0.76 -35.13,-0.94 -34.7,-1.12 -34.22,-1.3 -33.7,-1.48 -33.14,-1.65 -32.53,-1.83 -31.89,-2 -31.45,-2.22 -30.94,-2.44 -30.34,-2.65 -29.66,-2.86 -28.91,-3.06 -28.08,-3.26 -27.18,-3.45 -26.2,-3.62 -25.15,-3.79 -24.04,-3.96 -22.87,-4.11 -21.64,-4.25 -20.35,-4.38 -19.01,-4.5 -17.63,-4.61 -16.2,-4.71 -14.74,-4.79 -13.24,-4.87 -11.72,-4.93 -10.17,-4.98 -8.6,-5.02 -7.02,-5.05 -5.42,-5.07 -3.82,-5.07 -2.22,-5.07 -0.62,-5.05 0.97,-5.03 2.55,-4.99 4.12,-4.94 5.68,-4.88 7.21,-4.82 8.72,-4.74 10.2,-4.66 11.66,-4.57 13.08,-4.47 14.47,-4.36 15.83,-4.25 17.15,-4.13 18.44,-4 19.68,-3.87 20.89,-3.74 22.06,-3.6 23.19,-3.46 24.27,-3.31 25.32,-3.16 26.33,-3.01 27.3,-2.87 28.24,-2.71 29.14,-2.56 30,-2.41 30.84,-2.26 31.64,-2.11 32.4,-1.96 33.14,-1.81 33.84,-1.66 34.52,-1.51 35.16,-1.36 35.77,-1.21 36.35,-1.06 36.9,-0.92 37.43,-0.77 37.93,-0.63 38.4,-0.49 38.85,-0.35 39.27,-0.21 39.67,-0.08 40.04,0.05 40.39,0.18 40.72,0.31 41.03,0.43 41.32,0.55 41.59,0.67 41.84,0.79 42.07,0.9" fill="none" stroke="black" stroke-width="1.6666666666666665" stroke-linejoin="round" filter="url(#fuzzy)" />
      <polyline id="rightLower" points="-34.86,3.71 -34.61,3.79 -34.33,3.88 -34.03,3.97 -33.7,4.06 -33.34,4.16 -32.96,4.26 -32.55,4.37 -32.12,4.48 -31.67,4.58 -31.2,4.69 -30.7,4.8 -30.19,4.9 -29.65,5 -29.1,5.1 -28.52,5.2 -27.93,5.29 -27.32,5.38 -26.7,5.46 -26.06,5.54 -25.4,5.61 -24.73,5.68 -24.04,5.74 -23.34,5.79 -22.63,5.84 -21.9,5.88 -21.1,5.99 -20.28,6.08 -19.44,6.16 -18.59,6.23 -17.71,6.28 -16.82,6.32 -15.92,6.35 -15,6.36 -14.06,6.36 -13.12,6.35 -12.15,6.32 -11.18,6.29 -10.19,6.24 -9.2,6.18 -8.19,6.11 -7.17,6.04 -6.15,5.95 -5.12,5.86 -4.08,5.76 -3.04,5.66 -1.99,5.55 -0.94,5.43 0.11,5.31 1.17,5.19 2.22,5.07 3.28,4.94 4.33,4.82 5.38,4.69 6.43,4.56 7.47,4.43 8.51,4.3 9.54,4.18 10.56,4.05 11.58,3.93 12.58,3.81 13.58,3.7 14.56,3.58 15.54,3.47 16.5,3.36 17.44,3.26 18.38,3.16 19.29,3.06 20.19,2.96 21.08,2.87 21.95,2.78 22.8,2.7 23.63,2.62 24.45,2.54 25.24,2.46 26.02,2.38 26.78,2.31 27.53,2.24 28.26,2.16 28.97,2.1 29.67,2.03 30.35,1.97 31.02,1.9 31.67,1.84 32.3,1.78 32.92,1.72 33.52,1.66 34.1,1.6 34.67,1.55 35.22,1.49 35.75,1.43 36.26,1.38 36.76,1.32 37.24,1.26 37.71,1.21 38.16,1.15 38.59,1.09 39.01,1.04 39.41,0.98 39.79,0.92" fill="none" stroke="black" stroke-width="2.2222222222222223" stroke-linejoin="round" filter="url(#fuzzy)" />
      <circle r="4.798" cx="-3.8245540830018694" cy="-1.3545893177817272" stroke="black" fill="none" stroke-width="1.0" filter="url(#fuzzy)" clip-path="url(#rightEyeClipPath)" /><circle r="4.996" cx="-1.1545540830018695" cy="0.9304106822182732" stroke="black" fill="none" stroke-width="1.0" filter="url(#fuzzy)" clip-path="url(#rightEyeClipPath)" /><circle r="3.876" cx="-4.009554083001869" cy="-0.7195893177817272" stroke="black" fill="none" stroke-width="1.0" filter="url(#fuzzy)" clip-path="url(#rightEyeClipPath)" /><circle r="4.62" cx="-2.3445540830018694" cy="-2.2095893177817274" stroke="black" fill="none" stroke-width="1.0" filter="url(#fuzzy)" clip-path="url(#rightEyeClipPath)" /><circle r="4.666" cx="-1.5245540830018691" cy="-0.4445893177817273" stroke="black" fill="none" stroke-width="1.0" filter="url(#fuzzy)" clip-path="url(#rightEyeClipPath)" /><circle r="3.932" cx="0.7754459169981303" cy="-2.789589317781727" stroke="black" fill="none" stroke-width="1.0" filter="url(#fuzzy)" clip-path="url(#rightEyeClipPath)" /><circle r="4.902" cx="-1.5195540830018692" cy="1.1104106822182729" stroke="black" fill="none" stroke-width="1.0" filter="url(#fuzzy)" clip-path="url(#rightEyeClipPath)" /><circle r="4.998" cx="-0.009554083001869884" cy="-0.6595893177817271" stroke="black" fill="none" stroke-width="1.0" filter="url(#fuzzy)" clip-path="url(#rightEyeClipPath)" /><circle r="4.936" cx="-3.9545540830018693" cy="1.7154106822182733" stroke="black" fill="none" stroke-width="1.0" filter="url(#fuzzy)" clip-path="url(#rightEyeClipPath)" /><circle r="4.8260000000000005" cx="-2.879554083001869" cy="1.520410682218273" stroke="black" fill="none" stroke-width="1.0" filter="url(#fuzzy)" clip-path="url(#rightEyeClipPath)" />
      </g>
    <g transform="translate(-39.74 -25.02)">
      <polyline id="leftUpper" points="38.46,1.99 38.52,1.89 38.58,1.79 38.64,1.68 38.67,1.56 38.7,1.44 38.7,1.32 38.68,1.19 38.63,1.06 38.56,0.92 38.46,0.78 38.32,0.64 38.16,0.49 37.95,0.34 37.72,0.19 37.44,0.04 37.12,-0.12 36.77,-0.27 36.38,-0.43 35.94,-0.59 35.46,-0.75 34.94,-0.9 34.38,-1.06 33.78,-1.22 33.14,-1.38 32.45,-1.53 31.95,-1.71 31.38,-1.9 30.72,-2.08 29.98,-2.26 29.17,-2.44 28.29,-2.62 27.33,-2.79 26.31,-2.96 25.21,-3.12 24.06,-3.28 22.84,-3.44 21.58,-3.58 20.25,-3.72 18.89,-3.85 17.48,-3.98 16.03,-4.09 14.55,-4.2 13.04,-4.3 11.5,-4.39 9.95,-4.47 8.37,-4.54 6.79,-4.6 5.21,-4.65 3.62,-4.69 2.03,-4.72 0.45,-4.74 -1.12,-4.75 -2.67,-4.75 -4.21,-4.74 -5.73,-4.73 -7.22,-4.7 -8.69,-4.66 -10.13,-4.62 -11.53,-4.57 -12.9,-4.51 -14.23,-4.44 -15.53,-4.36 -16.78,-4.28 -18,-4.19 -19.17,-4.09 -20.3,-3.99 -21.39,-3.89 -22.44,-3.78 -23.44,-3.67 -24.4,-3.55 -25.32,-3.43 -26.2,-3.31 -27.04,-3.19 -27.84,-3.07 -28.61,-2.94 -29.34,-2.82 -30.03,-2.69 -30.69,-2.57 -31.32,-2.44 -31.91,-2.31 -32.47,-2.18 -32.99,-2.06 -33.48,-1.93 -33.94,-1.8 -34.37,-1.68 -34.77,-1.55 -35.14,-1.43 -35.48,-1.3 -35.79,-1.18 -36.08,-1.07 -36.34,-0.95 -36.57,-0.83 -36.78,-0.72 -36.96,-0.61 -37.13,-0.5 -37.27,-0.4 -37.39,-0.3 -37.48,-0.19 -37.56,-0.1" fill="none" stroke="black" stroke-width="2.2222222222222223" stroke-linejoin="round" filter="url(#fuzzy)" />
      <polyline id="leftLower" points="35.85,3.34 35.55,3.43 35.21,3.52 34.83,3.62 34.41,3.72 33.96,3.83 33.49,3.95 32.98,4.07 32.44,4.19 31.89,4.31 31.3,4.43 30.7,4.55 30.08,4.67 29.44,4.79 28.78,4.9 28.11,5.01 27.42,5.12 26.72,5.22 26.01,5.31 25.29,5.4 24.56,5.48 23.83,5.56 23.08,5.63 22.33,5.69 21.57,5.74 20.81,5.79 19.88,5.91 18.96,6.02 18.03,6.12 17.11,6.19 16.18,6.25 15.25,6.3 14.33,6.32 13.41,6.33 12.49,6.33 11.57,6.31 10.66,6.28 9.74,6.23 8.83,6.17 7.92,6.09 7.01,6.01 6.1,5.91 5.19,5.81 4.29,5.7 3.38,5.57 2.48,5.44 1.57,5.31 0.67,5.17 -0.23,5.02 -1.13,4.87 -2.03,4.72 -2.93,4.56 -3.83,4.41 -4.72,4.25 -5.62,4.09 -6.51,3.94 -7.4,3.78 -8.29,3.63 -9.17,3.47 -10.05,3.32 -10.93,3.18 -11.8,3.03 -12.67,2.89 -13.53,2.75 -14.39,2.62 -15.24,2.49 -16.08,2.36 -16.91,2.24 -17.73,2.12 -18.55,2.01 -19.35,1.9 -20.14,1.79 -20.92,1.69 -21.68,1.58 -22.43,1.49 -23.17,1.39 -23.89,1.29 -24.61,1.2 -25.31,1.11 -26,1.02 -26.68,0.93 -27.35,0.85 -28,0.76 -28.64,0.68 -29.27,0.6 -29.89,0.52 -30.49,0.44 -31.08,0.36 -31.65,0.28 -32.21,0.2 -32.75,0.13 -33.28,0.05 -33.79,-0.03 -34.29,-0.11 -34.77,-0.19 -35.24,-0.27 -35.69,-0.35 -36.13,-0.43 -36.55,-0.51 -36.96,-0.6" fill="none" stroke="black" stroke-width="2.2222222222222223" stroke-linejoin="round" filter="url(#fuzzy)" />
      <circle r="4.904" cx="30.456571463545934" cy="3.9475218460845483" stroke="black" fill="none" stroke-width="1.0" filter="url(#fuzzy)" clip-path="url(#leftEyeClipPath)" /><circle r="4.004" cx="33.46157146354593" cy="3.2375218460845474" stroke="black" fill="none" stroke-width="1.0" filter="url(#fuzzy)" clip-path="url(#leftEyeClipPath)" /><circle r="3.436" cx="31.371571463545934" cy="-0.08247815391545243" stroke="black" fill="none" stroke-width="1.0" filter="url(#fuzzy)" clip-path="url(#leftEyeClipPath)" /><circle r="3.512" cx="32.30657146354593" cy="-0.03747815391545206" stroke="black" fill="none" stroke-width="1.0" filter="url(#fuzzy)" clip-path="url(#leftEyeClipPath)" /><circle r="4.918" cx="29.02657146354593" cy="4.367521846084548" stroke="black" fill="none" stroke-width="1.0" filter="url(#fuzzy)" clip-path="url(#leftEyeClipPath)" /><circle r="4.714" cx="30.541571463545928" cy="3.427521846084548" stroke="black" fill="none" stroke-width="1.0" filter="url(#fuzzy)" clip-path="url(#leftEyeClipPath)" /><circle r="4.904" cx="33.49157146354593" cy="0.7275218460845476" stroke="black" fill="none" stroke-width="1.0" filter="url(#fuzzy)" clip-path="url(#leftEyeClipPath)" /><circle r="3.7199999999999998" cx="31.39157146354593" cy="0.23752184608454785" stroke="black" fill="none" stroke-width="1.0" filter="url(#fuzzy)" clip-path="url(#leftEyeClipPath)" /><circle r="3.87" cx="30.06157146354593" cy="4.1875218460845485" stroke="black" fill="none" stroke-width="1.0" filter="url(#fuzzy)" clip-path="url(#leftEyeClipPath)" /><circle r="3.894" cx="29.76657146354593" cy="4.517521846084547" stroke="black" fill="none" stroke-width="1.0" filter="url(#fuzzy)" clip-path="url(#leftEyeClipPath)" />
    </g>
    <g id="hairs">
      <polyline points="60.12,-60.13 59.82,-60.4 59.88,-60.24 59.91,-59.97 59.71,-59.79 59.14,-59.77 58.16,-59.97 56.72,-60.42 54.74,-61.17 52.15,-62.31 48.83,-63.89 44.73,-65.97 39.82,-68.57 34.16,-71.68 27.79,-75.25 20.77,-79.24" fill="none" stroke="rgb(204, 204, 255)" stroke-width="2" stroke-linejoin="round" filter="url(#fuzzy)" /><polyline points="68.97,-49.92 69.25,-49.33 69.18,-48.88 68.66,-48.53 67.49,-48.54 65.52,-49.05 62.71,-50.1 59.07,-51.7 54.62,-53.83 49.34,-56.47 43.17,-59.64 35.98,-63.34 27.62,-67.63 18.07,-72.57 7.46,-78.19" fill="none" stroke="rgb(204, 204, 255)" stroke-width="2" stroke-linejoin="round" filter="url(#fuzzy)" /><polyline points="-44.98,-72.2 -43.16,-73.11 -41.15,-73.98 -39.08,-74.81 -36.76,-75.64 -34.15,-76.52 -31.28,-77.43 -28.28,-78.34 -25.28,-79.22 -22.44,-80.05 -19.81,-80.81 -17.38,-81.52 -15.11,-82.18 -13.03,-82.79 -11.17,-83.34 -9.34,-83.84" fill="none" stroke="rgb(204, 204, 255)" stroke-width="2" stroke-linejoin="round" filter="url(#fuzzy)" /><polyline points="2.55,-84.79 5.09,-84.37 7.28,-83.75 9.84,-82.92 12.76,-81.89 15.94,-80.65 19.34,-79.21 22.91,-77.59 26.67,-75.8 30.61,-73.86 34.7,-71.82 38.87,-69.75 43.05,-67.69 47.12,-65.7 51.03,-63.78 54.81,-61.92 58.56,-60.02" fill="none" stroke="rgb(204, 204, 255)" stroke-width="2" stroke-linejoin="round" filter="url(#fuzzy)" /><polyline points="63.58,-56.57 64.64,-55.3 65.41,-54.23 65.74,-53.47 65.57,-53.08 64.92,-53.06 63.8,-53.41 62.24,-54.05 60.24,-54.94 57.79,-56.06 54.83,-57.47 51.29,-59.24 47.12,-61.43 42.27,-64.09 36.72,-67.21 30.43,-70.77 23.3,-74.77 15.13,-79.25" fill="none" stroke="rgb(204, 204, 255)" stroke-width="2" stroke-linejoin="round" filter="url(#fuzzy)" /><polyline points="10.93,-83.99 12.62,-83.73 13.97,-83.47 15.28,-83.2 16.65,-82.92 18.06,-82.63 19.47,-82.34 20.8,-82.04 21.98,-81.76 22.96,-81.5 23.71,-81.29 24.22,-81.13 24.44,-81.02 24.34,-80.99 23.9,-81.04 23.14,-81.16 22.06,-81.37 20.63,-81.67 18.77,-82.09 16.36,-82.63 13.32,-83.3" fill="none" stroke="rgb(204, 204, 255)" stroke-width="2" stroke-linejoin="round" filter="url(#fuzzy)" /><polyline points="26.51,-80.6 27.99,-79.93 28.84,-79.53 30.01,-79.07 31.41,-78.54 32.83,-78 34.17,-77.46 35.38,-76.95 36.45,-76.46 37.39,-76.02 38.18,-75.64 38.84,-75.31 39.34,-75.04 39.67,-74.83 39.78,-74.71 39.66,-74.68 39.24,-74.77 38.5,-75 37.43,-75.37 36.05,-75.91 34.33,-76.62 32.21,-77.53 29.56,-78.67 26.28,-80.07" fill="none" stroke="rgb(204, 204, 255)" stroke-width="2" stroke-linejoin="round" filter="url(#fuzzy)" /><polyline points="-26.6,-80.52 -24.84,-80.86 -22.82,-81.33 -20.93,-81.75 -19.05,-82.12 -17.11,-82.49 -15.09,-82.85 -13.07,-83.2 -11.14,-83.51 -9.41,-83.78 -7.97,-83.99 -6.87,-84.16 -6.08,-84.29 -5.65,-84.37 -5.69,-84.4 -6.52,-84.33" fill="none" stroke="rgb(204, 204, 255)" stroke-width="2" stroke-linejoin="round" filter="url(#fuzzy)" /><polyline points="-45.81,-71.43 -44.67,-72.24 -43.15,-73.11 -41.63,-73.94 -40.2,-74.69 -38.82,-75.4 -37.44,-76.06 -36.1,-76.69 -34.87,-77.23 -33.84,-77.69 -33.06,-78.02 -32.57,-78.22 -32.38,-78.29 -32.49,-78.21 -32.92,-77.99 -33.67,-77.6 -34.76,-77.04 -36.26,-76.28 -38.34,-75.27 -41.25,-73.92" fill="none" stroke="rgb(204, 204, 255)" stroke-width="2" stroke-linejoin="round" filter="url(#fuzzy)" /><polyline points="47.27,-70.61 47.32,-70.47 47.6,-70 47.69,-69.47 47.42,-68.99 46.71,-68.61 45.51,-68.3 43.76,-68.05 41.44,-67.88 38.51,-67.77 34.99,-67.75 30.84,-67.84 26.05,-68.08 20.57,-68.47 14.34,-69.03 7.31,-69.72 -0.6,-70.48 -9.4,-71.32 -19.1,-72.24 -29.63,-73.28" fill="none" stroke="rgb(204, 204, 255)" stroke-width="2" stroke-linejoin="round" filter="url(#fuzzy)" /><polyline points="4.71,-84.64 4.33,-84.61 5.41,-84.42 6.95,-84.2 8.68,-83.96 10.46,-83.73 12.21,-83.49 13.87,-83.23 15.42,-82.98 16.86,-82.72 18.19,-82.47 19.42,-82.25 20.5,-82.04 21.39,-81.87 22.05,-81.74 22.42,-81.66 22.47,-81.64 22.18,-81.69 21.51,-81.81 20.45,-82.01 19.02,-82.29 17.29,-82.67 15.32,-83.13" fill="none" stroke="rgb(204, 204, 255)" stroke-width="2" stroke-linejoin="round" filter="url(#fuzzy)" /><polyline points="75.73,-39.43 75.87,-38.96 75.81,-38.29 75.39,-37.78 74.54,-37.6 73.19,-37.79 71.29,-38.41 68.79,-39.51 65.65,-41.12 61.88,-43.22 57.49,-45.76 52.5,-48.73 46.88,-52.13 40.56,-56.02 33.41,-60.46 25.3,-65.5 16.24,-71.16 6.41,-77.46" fill="none" stroke="rgb(204, 204, 255)" stroke-width="2" stroke-linejoin="round" filter="url(#fuzzy)" /><polyline points="32.17,-78.15 32.74,-78.09 33.11,-77.7 33.11,-77.18 32.66,-76.61 31.66,-76.03 30.08,-75.44 27.91,-74.81 25.16,-74.15 21.8,-73.43 17.81,-72.67 13.13,-71.86 7.69,-71.03 1.42,-70.17 -5.73,-69.3 -13.78,-68.42 -22.79,-67.5 -32.76,-66.51 -43.69,-65.46" fill="none" stroke="rgb(204, 204, 255)" stroke-width="2" stroke-linejoin="round" filter="url(#fuzzy)" /><polyline points="22.41,-81.81 23.88,-81.26 25.2,-80.83 26.16,-80.49 26.78,-80.22 27.13,-79.99 27.29,-79.8 27.23,-79.65 26.88,-79.56 26.14,-79.55 24.95,-79.63 23.24,-79.8 20.93,-80.08 17.96,-80.48 14.29,-80.99 9.96,-81.61 4.92,-82.34 -1.07,-83.19" fill="none" stroke="rgb(204, 204, 255)" stroke-width="2" stroke-linejoin="round" filter="url(#fuzzy)" /><polyline points="-25.45,-80.6 -22.94,-81.3 -21.25,-81.58 -19.45,-81.7 -17.37,-81.76 -15.01,-81.76 -12.44,-81.68 -9.74,-81.54 -6.95,-81.32 -4.07,-81.05 -1.08,-80.72 2.01,-80.36 5.18,-79.98 8.38,-79.59 11.58,-79.19 14.74,-78.79 17.85,-78.42 20.87,-78.07 23.79,-77.74 26.57,-77.44 29.15,-77.15 31.5,-76.88 33.6,-76.6 35.71,-76.21" fill="none" stroke="rgb(204, 204, 255)" stroke-width="2" stroke-linejoin="round" filter="url(#fuzzy)" /><polyline points="50.82,-68.11 52.38,-66.99 53.08,-66.25 53.35,-65.63 53.27,-65.08 52.87,-64.59 52.12,-64.2 50.94,-63.95 49.29,-63.86 47.13,-63.94 44.46,-64.14 41.3,-64.45 37.63,-64.85 33.41,-65.35 28.6,-65.96 23.13,-66.69 16.99,-67.59 10.15,-68.7 2.63,-70.06 -5.53,-71.67 -14.17,-73.59 -22.96,-75.86" fill="none" stroke="rgb(204, 204, 255)" stroke-width="2" stroke-linejoin="round" filter="url(#fuzzy)" /><polyline points="47.27,-70.61 47.09,-70.44 46.68,-69.86 45.63,-69.13 43.74,-68.36 40.92,-67.56 37.11,-66.74 32.27,-65.86 26.33,-64.92 19.27,-63.92 11.07,-62.85 1.69,-61.69 -8.96,-60.47 -20.98,-59.17 -34.45,-57.79 -49.12,-56.42" fill="none" stroke="rgb(204, 204, 255)" stroke-width="2" stroke-linejoin="round" filter="url(#fuzzy)" /><polyline points="32.17,-78.15 32.74,-78.12 33.15,-77.82 33.21,-77.47 32.82,-77.14 31.85,-76.88 30.26,-76.71 28.02,-76.6 25.11,-76.55 21.48,-76.55 17.05,-76.61 11.71,-76.73 5.36,-76.92 -2.07,-77.22 -10.56,-77.68 -20.12,-78.29" fill="none" stroke="rgb(204, 204, 255)" stroke-width="2" stroke-linejoin="round" filter="url(#fuzzy)" /><polyline points="49.37,-69.19 50.16,-68.34 50.28,-67.85 49.81,-67.46 48.63,-67.15 46.67,-66.94 43.88,-66.84 40.24,-66.87 35.74,-67.05 30.31,-67.43 23.91,-68.06 16.49,-68.94 8.04,-70.03 -1.56,-71.27 -12.45,-72.65 -24.55,-74.28" fill="none" stroke="rgb(204, 204, 255)" stroke-width="2" stroke-linejoin="round" filter="url(#fuzzy)" /><polyline points="59.4,-60.83 60.02,-60.21 60.31,-59.7 60.15,-59.38 59.49,-59.3 58.3,-59.47 56.54,-59.91 54.12,-60.69 50.94,-61.87 46.89,-63.52 41.9,-65.72 35.91,-68.48 28.97,-71.81 21.17,-75.65 12.74,-79.95" fill="none" stroke="rgb(204, 204, 255)" stroke-width="2" stroke-linejoin="round" filter="url(#fuzzy)" /><polyline points="40.01,-74.75 41.81,-73.79 43.16,-73 44.53,-72.16 45.94,-71.28 47.28,-70.41 48.5,-69.6 49.6,-68.86 50.57,-68.19 51.41,-67.61 52.09,-67.12 52.58,-66.74 52.86,-66.49 52.91,-66.37 52.7,-66.42 52.19,-66.67 51.34,-67.16 50.12,-67.92 48.5,-68.96 46.5,-70.26 44.1,-71.82 41.17,-73.7" fill="none" stroke="rgb(204, 204, 255)" stroke-width="2" stroke-linejoin="round" filter="url(#fuzzy)" /><polyline points="-36.27,-76.55 -33.44,-77.77 -32.07,-78.31 -30.85,-78.72 -29.35,-79.17 -27.56,-79.67 -25.55,-80.21 -23.43,-80.76 -21.32,-81.29 -19.33,-81.8 -17.53,-82.26 -15.96,-82.66 -14.6,-83 -13.46,-83.29 -12.54,-83.53 -11.92,-83.7 -11.7,-83.8 -11.93,-83.8 -12.53,-83.73 -13.26,-83.66" fill="none" stroke="rgb(204, 204, 255)" stroke-width="2" stroke-linejoin="round" filter="url(#fuzzy)" /><polyline points="47.27,-70.61 47.32,-70.46 47.59,-69.96 47.66,-69.38 47.37,-68.84 46.65,-68.36 45.46,-67.94 43.77,-67.57 41.53,-67.24 38.72,-66.95 35.31,-66.7 31.27,-66.52 26.56,-66.43 21.16,-66.44 15.03,-66.56 8.17,-66.76 0.57,-67.02 -7.74,-67.35 -16.7,-67.81 -26.24,-68.48 -36.47,-69.35" fill="none" stroke="rgb(204, 204, 255)" stroke-width="2" stroke-linejoin="round" filter="url(#fuzzy)" /><polyline points="58.02,-62.24 59.25,-61 59.92,-60.33 60.63,-59.61 61.48,-58.74 62.4,-57.76 63.36,-56.71 64.32,-55.62 65.26,-54.54 66.13,-53.51 66.89,-52.58 67.49,-51.83 67.9,-51.3 68.11,-51.01 68.12,-50.94 67.97,-51.07 67.65,-51.37 67.15,-51.87 66.46,-52.57 65.55,-53.53 64.42,-54.75 63.05,-56.25 61.33,-58.16 58.88,-60.78" fill="none" stroke="rgb(204, 204, 255)" stroke-width="2" stroke-linejoin="round" filter="url(#fuzzy)" /><polyline points="74.24,-41.62 74.43,-41.34 74.65,-40.57 74.56,-39.87 74.09,-39.34 73.25,-39.03 72.02,-38.96 70.35,-39.16 68.22,-39.67 65.58,-40.52 62.43,-41.73 58.79,-43.26 54.65,-45.09 50.02,-47.2 44.87,-49.58 39.17,-52.28 32.87,-55.33 25.98,-58.8 18.54,-62.71 10.51,-67.1 1.77,-71.94 -7.89,-77.18" fill="none" stroke="rgb(204, 204, 255)" stroke-width="2" stroke-linejoin="round" filter="url(#fuzzy)" /><polyline points="-13.4,-83.54 -12.54,-83.69 -11.32,-83.85 -10.24,-83.91 -9.49,-83.87 -9.06,-83.75 -8.88,-83.53 -8.92,-83.23 -9.21,-82.82 -9.79,-82.3 -10.74,-81.65 -12.13,-80.88 -14.02,-79.95 -16.44,-78.87 -19.41,-77.62 -22.89,-76.2 -26.9,-74.6 -31.48,-72.82 -36.7,-70.82 -42.58,-68.62 -49.09,-66.27" fill="none" stroke="rgb(204, 204, 255)" stroke-width="2" stroke-linejoin="round" filter="url(#fuzzy)" /><polyline points="66.15,-53.69 67.16,-52.42 67.85,-51.46 68.35,-50.7 68.7,-50.14 68.97,-49.66 69.19,-49.2 69.33,-48.77 69.34,-48.43 69.15,-48.26 68.72,-48.3 68.03,-48.6 67.08,-49.14 65.87,-49.92 64.4,-50.93 62.64,-52.19 60.6,-53.72 58.26,-55.53 55.6,-57.66 52.61,-60.15 49.22,-63.04 45.44,-66.35 41.27,-70.08 36.79,-74.11" fill="none" stroke="rgb(204, 204, 255)" stroke-width="2" stroke-linejoin="round" filter="url(#fuzzy)" /><polyline points="68.97,-49.92 69.24,-49.31 69.12,-48.81 68.52,-48.37 67.24,-48.23 65.16,-48.54 62.25,-49.32 58.5,-50.57 53.92,-52.26 48.5,-54.38 42.16,-56.92 34.87,-59.91 26.63,-63.41 17.47,-67.46 7.38,-72.12 -3.89,-77.32" fill="none" stroke="rgb(204, 204, 255)" stroke-width="2" stroke-linejoin="round" filter="url(#fuzzy)" /><polyline points="-45.59,-71.78 -45.58,-71.24 -43.64,-71.28 -40.29,-71.49 -35.86,-71.69 -30.57,-71.75 -24.55,-71.64 -17.83,-71.36 -10.41,-70.94 -2.32,-70.37 6.34,-69.67 15.42,-68.89 24.75,-68.07 34.31,-67.19 44.37,-66.15" fill="none" stroke="rgb(204, 204, 255)" stroke-width="2" stroke-linejoin="round" filter="url(#fuzzy)" /><polyline points="-22.19,-81.73 -20.81,-82.02 -19.4,-82.37 -17.95,-82.71 -16.49,-83.02 -15.14,-83.29 -13.95,-83.5 -12.94,-83.66 -12.07,-83.78 -11.35,-83.87 -10.8,-83.93 -10.49,-83.94 -10.51,-83.9 -10.9,-83.8 -11.7,-83.62 -12.95,-83.35 -14.65,-83 -16.78,-82.58 -19.25,-82.13" fill="none" stroke="rgb(204, 204, 255)" stroke-width="2" stroke-linejoin="round" filter="url(#fuzzy)" /><polyline points="-11.14,-84.12 -9.31,-84.16 -7.93,-84.24 -6.78,-84.32 -5.64,-84.4 -4.51,-84.48 -3.48,-84.54 -2.65,-84.58 -2.14,-84.58 -2.06,-84.54 -2.55,-84.46 -3.71,-84.33 -5.56,-84.14 -7.98,-83.92 -10.8,-83.72" fill="none" stroke="rgb(204, 204, 255)" stroke-width="2" stroke-linejoin="round" filter="url(#fuzzy)" /><polyline points="22.41,-81.81 23.79,-81.26 24.82,-80.83 25.31,-80.47 25.27,-80.15 24.79,-79.85 23.94,-79.54 22.67,-79.23 20.9,-78.9 18.5,-78.58 15.42,-78.26 11.63,-77.96 7.13,-77.69 1.92,-77.47 -3.96,-77.3 -10.58,-77.16 -18.14,-76.97 -27.01,-76.68" fill="none" stroke="rgb(204, 204, 255)" stroke-width="2" stroke-linejoin="round" filter="url(#fuzzy)" /><polyline points="43.41,-72.91 43.99,-72.49 44.94,-71.78 45.34,-71.25 45.13,-70.93 44.33,-70.8 42.93,-70.84 40.88,-71.08 38.17,-71.5 34.73,-72.13 30.53,-72.98 25.54,-74.06 19.71,-75.38 12.92,-76.95 5.08,-78.79 -3.83,-80.96" fill="none" stroke="rgb(204, 204, 255)" stroke-width="2" stroke-linejoin="round" filter="url(#fuzzy)" /><polyline points="10.93,-83.99 12.66,-83.71 14.16,-83.39 15.72,-83.03 17.4,-82.64 19.17,-82.22 20.97,-81.79 22.69,-81.37 24.2,-80.98 25.44,-80.64 26.38,-80.37 27.03,-80.18 27.4,-80.08 27.42,-80.1 26.95,-80.27 25.82,-80.61" fill="none" stroke="rgb(204, 204, 255)" stroke-width="2" stroke-linejoin="round" filter="url(#fuzzy)" /><polyline points="29.32,-79.4 28.83,-79.5 30,-78.97 31.78,-78.21 33.69,-77.36 35.57,-76.45 37.41,-75.51 39.2,-74.55 40.9,-73.63 42.49,-72.77 43.98,-71.98 45.34,-71.26 46.53,-70.63 47.5,-70.11 48.2,-69.74 48.58,-69.54 48.56,-69.61 48.03,-70.03" fill="none" stroke="rgb(204, 204, 255)" stroke-width="2" stroke-linejoin="round" filter="url(#fuzzy)" /><polyline points="69.94,-48.96 70.97,-47.16 71.59,-45.95 71.67,-45.29 71.31,-45.01 70.56,-45.05 69.44,-45.38 67.93,-45.97 66.01,-46.85 63.61,-48.04 60.7,-49.57 57.25,-51.49 53.25,-53.84 48.68,-56.65 43.48,-59.96 37.59,-63.81 30.97,-68.19 23.56,-73.08 15.21,-78.43" fill="none" stroke="rgb(204, 204, 255)" stroke-width="2" stroke-linejoin="round" filter="url(#fuzzy)" /><polyline points="19.6,-82.58 20.62,-82.18 21.35,-81.79 21.66,-81.38 21.63,-80.89 21.24,-80.33 20.43,-79.71 19.15,-79.04 17.4,-78.31 15.18,-77.49 12.48,-76.59 9.26,-75.59 5.44,-74.5 0.98,-73.31 -4.16,-72.01 -10.02,-70.61 -16.6,-69.1 -23.91,-67.47 -31.96,-65.72 -40.76,-63.8 -50.44,-61.62" fill="none" stroke="rgb(204, 204, 255)" stroke-width="2" stroke-linejoin="round" filter="url(#fuzzy)" /><polyline points="-20.78,-81.97 -19.55,-82.34 -18.47,-82.59 -17.52,-82.72 -16.82,-82.74 -16.45,-82.6 -16.39,-82.33 -16.57,-81.91 -17,-81.35 -17.71,-80.64 -18.76,-79.76 -20.2,-78.69 -22.04,-77.42 -24.3,-75.94 -26.98,-74.22 -30.12,-72.26 -33.75,-70.08 -37.9,-67.69 -42.59,-65.11 -47.89,-62.3 -53.94,-59.09 -60.91,-55.24" fill="none" stroke="rgb(204, 204, 255)" stroke-width="2" stroke-linejoin="round" filter="url(#fuzzy)" /><polyline points="14.38,-83.27 16.16,-83.03 17.33,-82.82 18.45,-82.57 19.41,-82.29 20.11,-82.02 20.52,-81.74 20.65,-81.47 20.51,-81.21 20.06,-80.96 19.29,-80.72 18.17,-80.5 16.71,-80.28 14.89,-80.06 12.68,-79.85 10.01,-79.65 6.82,-79.45 3.06,-79.26 -1.34,-79.08 -6.36,-78.92 -11.97,-78.78 -18.16,-78.66 -25.06,-78.49" fill="none" stroke="rgb(204, 204, 255)" stroke-width="2" stroke-linejoin="round" filter="url(#fuzzy)" /><polyline points="-2.99,-84.63 0.19,-84.71 2,-84.71 3.26,-84.66 4.29,-84.57 5.27,-84.47 6.22,-84.36 7.09,-84.27 7.76,-84.19 8.12,-84.14 8.04,-84.09 7.43,-84.05 6.25,-84.02 4.49,-84 2.16,-84 -0.73,-84.03 -3.95,-84.12" fill="none" stroke="rgb(204, 204, 255)" stroke-width="2" stroke-linejoin="round" filter="url(#fuzzy)" /><polyline points="67.61,-51.94 67.85,-51.4 67.87,-50.89 67.38,-50.83 66.42,-51.09 65.03,-51.54 63.18,-52.2 60.76,-53.16 57.64,-54.55 53.76,-56.44 49.05,-58.85 43.5,-61.78 37.1,-65.22 29.83,-69.21 21.73,-73.77 13,-78.93" fill="none" stroke="rgb(204, 204, 255)" stroke-width="2" stroke-linejoin="round" filter="url(#fuzzy)" /><polyline points="48.22,-69.85 49.09,-69.1 49.38,-68.37 49.12,-67.69 48.3,-67 46.87,-66.29 44.79,-65.55 42.05,-64.79 38.64,-64 34.52,-63.2 29.64,-62.42 23.96,-61.68 17.46,-60.96 10.12,-60.24 1.95,-59.48 -7.09,-58.65 -17.02,-57.73 -27.86,-56.76 -39.51,-55.88 -51.8,-55.36" fill="none" stroke="rgb(204, 204, 255)" stroke-width="2" stroke-linejoin="round" filter="url(#fuzzy)" /><polyline points="16.33,-82.98 18.6,-82.58 19.81,-82.18 20.29,-81.77 20.2,-81.32 19.65,-80.82 18.62,-80.25 17.06,-79.62 14.91,-78.93 12.18,-78.17 8.87,-77.34 5,-76.44 0.52,-75.47 -4.66,-74.43 -10.62,-73.3 -17.41,-72.08 -25.05,-70.78 -33.55,-69.44 -42.91,-68.02" fill="none" stroke="rgb(204, 204, 255)" stroke-width="2" stroke-linejoin="round" filter="url(#fuzzy)" /><polyline points="50.83,-67.77 51.44,-67.56 52.39,-66.95 53.23,-66.3 53.9,-65.68 54.41,-65.11 54.76,-64.62 54.92,-64.24 54.82,-64.01 54.43,-63.98 53.74,-64.14 52.74,-64.48 51.45,-64.99 49.84,-65.66 47.88,-66.51 45.55,-67.57 42.8,-68.87 39.56,-70.44 35.77,-72.33 31.37,-74.57 26.39,-77.15 20.9,-80.05" fill="none" stroke="rgb(204, 204, 255)" stroke-width="2" stroke-linejoin="round" filter="url(#fuzzy)" /><polyline points="69.49,-49.01 69.2,-49.4 69.08,-49.27 68.91,-48.9 68.51,-48.48 67.74,-48.22 66.48,-48.25 64.71,-48.6 62.41,-49.28 59.56,-50.27 56.15,-51.53 52.15,-53.08 47.56,-54.93 42.35,-57.09 36.53,-59.62 30.06,-62.54 22.91,-65.86 14.96,-69.62 6.13,-73.82 -3.48,-78.45" fill="none" stroke="rgb(204, 204, 255)" stroke-width="2" stroke-linejoin="round" filter="url(#fuzzy)" /><polyline points="-9.18,-84.07 -7.84,-84.23 -7.24,-84.26 -6.61,-84.26 -6.04,-84.22 -5.68,-84.11 -5.65,-83.92 -6.05,-83.62 -6.99,-83.22 -8.55,-82.69 -10.8,-82.03 -13.77,-81.22 -17.51,-80.23 -22.05,-79.07 -27.46,-77.71 -33.76,-76.19" fill="none" stroke="rgb(204, 204, 255)" stroke-width="2" stroke-linejoin="round" filter="url(#fuzzy)" /><polyline points="20.44,-82.18 32.13,-58.97 24.52,-58.23 24.22,-61.59 29.11,-64.01 34.78,-64.57 38.13,-63.82 38.21,-62.56 35.71,-61.44 31.8,-60.91 27.33,-61.2 22.91,-62.32 19.09,-64.07 16.25,-66.15 14.26,-68.28 12.58,-70.16 10.98,-71.38 10.35,-71.36 12.65,-69.62 19.5,-66.15 30.39,-61.61 40.98,-57.17 42.12,-54.35 17.62,-55.57 -61.33,-59.01" fill="none" stroke="rgb(204, 204, 255)" stroke-width="2" stroke-linejoin="round" filter="url(#fuzzy)" /><polyline points="40.1,-74.83 44.73,-70.15 43.02,-63.88 30.82,-61.34 13.56,-61.9 -2.64,-63.54 -13.59,-65.21 -17.66,-66.7 -15.6,-68 -9.56,-69.17 -1.74,-70.28 6.31,-71.37 13.53,-72.37 18.67,-73.09 20.08,-73.34 16.28,-72.93 7.07,-71.55 -5.32,-68.96 -15.89,-65.28 -17.94,-61.32 -7.18,-58.54 10.41,-58.93 9.64,-64.54 -46.93,-70.64" fill="none" stroke="rgb(204, 204, 255)" stroke-width="2" stroke-linejoin="round" filter="url(#fuzzy)" /><polyline points="23.87,-81.16 -17.69,-70.17 -10.61,-73.22 3.89,-75.89 11.79,-76.2 11.91,-74.64 8.07,-72.2 3.91,-69.94 0.81,-68.49 -1.77,-67.71 -4.84,-66.97 -8.33,-65.63 -10.24,-63.4 -7.05,-60.5 3.74,-57.8 20,-57.13 34.04,-60.6 38.54,-68.17 37.15,-74.68 43.41,-72.91" fill="none" stroke="rgb(204, 204, 255)" stroke-width="2" stroke-linejoin="round" filter="url(#fuzzy)" /><polyline points="-40.33,-74.85 6.03,-74.89 16.86,-71.95 16.17,-67.97 8.63,-64.88 -3.36,-63.06 -14.35,-62.14 -19.25,-61.73 -16.93,-61.68 -10.32,-62.03 -3.72,-62.97 0.12,-64.61 1.22,-66.66 1.33,-68.44 2.09,-69.07 3.75,-68.07 5.56,-65.75 7.23,-63.13 9.8,-61.16 14.41,-59.79 18.58,-58.09 13.5,-56.88 -5.89,-62.46 4.71,-84.64" fill="none" stroke="rgb(204, 204, 255)" stroke-width="2" stroke-linejoin="round" filter="url(#fuzzy)" /><polyline points="55.1,-64.56 40.87,-60.18 10.42,-64.73 -3.53,-67.64 1.09,-67.28 15.76,-64.55 31.54,-61.61 42.84,-60.26 47.68,-61.1 46.37,-63.65 40.28,-66.87 31.29,-69.74 21.72,-71.56 14.31,-72.05 11.34,-71.41 13.28,-70.19 17.77,-69.22 20.59,-69.32 19.02,-70.77 16.2,-72.33 21.35,-71.22 39.65,-66.79 47.27,-70.61" fill="none" stroke="rgb(204, 204, 255)" stroke-width="2" stroke-linejoin="round" filter="url(#fuzzy)" /><polyline points="66.15,-53.69 33.23,-69.05 33.27,-70.56 35.84,-69.75 36.54,-68.91 35.34,-67.89 32.74,-66.49 30.34,-64.85 30.04,-63.34 32.46,-62.2 36.35,-61.42 39.45,-60.87 39.59,-60.75 35.43,-61.67 26.91,-64.24 15.46,-68.45 3.87,-73.54 -4.74,-78.49 -8.53,-82.25 -2.99,-84.63" fill="none" stroke="rgb(204, 204, 255)" stroke-width="2" stroke-linejoin="round" filter="url(#fuzzy)" /><polyline points="-37.4,-76.34 -38.68,-71.9 -23,-75.18 -5.5,-75.88 7.72,-73.87 13.69,-71.43 13.95,-69.76 12.49,-68.69 12.32,-67.64 14.21,-66.31 17.59,-64.61 20.92,-62.7 20.7,-61.19 12.99,-61.25 1.93,-63.06 10.8,-62.42 73.03,-44.11" fill="none" stroke="rgb(204, 204, 255)" stroke-width="2" stroke-linejoin="round" filter="url(#fuzzy)" /><polyline points="-51.63,-67.51 -18.14,-77.84 -2.58,-81.14 -0.04,-81.39 -2.71,-80.42 -4.24,-79.01 -2.11,-77.18 2.54,-74.63 6.74,-71.42 7.87,-68.15 5.15,-65.7 -0.47,-64.72 -7.39,-65.22 -14.45,-66.57 -21.03,-67.87 -26.22,-68.46 -28.33,-68.27 -25.67,-67.87 -18.32,-68.29 -9.38,-70.47 -3.41,-74.66 -1.07,-79.59 5.37,-82.55 23.12,-81.62" fill="none" stroke="rgb(204, 204, 255)" stroke-width="2" stroke-linejoin="round" filter="url(#fuzzy)" /><polyline points="-55.3,-64.67 -17.62,-77.03 3.59,-80.24 15.16,-79.97 19.97,-79.05 20.34,-78.32 17.33,-77.91 11.02,-77.92 2.02,-78.3 -7.6,-78.64 -15.37,-78.39 -20.03,-77.27 -22.09,-75.07 -20.85,-70.93 -4.4,-63.35 67.59,-51.94" fill="none" stroke="rgb(204, 204, 255)" stroke-width="2" stroke-linejoin="round" filter="url(#fuzzy)" /><polyline points="-32.06,-78.38 -17.24,-67.6 7.57,-66.38 16.77,-69.53 18.58,-71.37 20.89,-70.39 25.95,-67.49 32.77,-63.89 38.71,-60.74 40.06,-59.4 33.56,-61 18.9,-65.39 0.18,-70.65 -15.77,-74.54 -22.98,-76.79 -19.34,-79.91 -13.4,-83.54" fill="none" stroke="rgb(204, 204, 255)" stroke-width="2" stroke-linejoin="round" filter="url(#fuzzy)" /><polyline points="79.76,-30.13 15.68,-61.78 4,-72.63 3,-74.32 -0.09,-72.57 -2.58,-69.52 -0.27,-66.02 6.64,-63.05 14.69,-61.77 20.6,-62.72 23.33,-65.3 23.63,-68.27 22.48,-70.53 20.18,-71.75 16.6,-72.19 12.24,-72.17 8.72,-71.65 8.22,-70.38 12.04,-68.56 19.05,-67.1 25.21,-66.83 26.2,-66.9 27.25,-63.61 71.01,-47.03" fill="none" stroke="rgb(204, 204, 255)" stroke-width="2" stroke-linejoin="round" filter="url(#fuzzy)" /><polyline points="-43.38,-73.1 5.21,-62.41 16.48,-62 28.34,-62.56 38.26,-61.98 40.44,-61.26 33.14,-62.03 19.21,-64.9 4.11,-69.15 -7.19,-73.46 -12.2,-76.77 -10.99,-78.67 -5.8,-79.32 -1.47,-78.89 -5.05,-77.51 -18.28,-76.72 -14.25,-83.59" fill="none" stroke="rgb(204, 204, 255)" stroke-width="2" stroke-linejoin="round" filter="url(#fuzzy)" /><polyline points="-68.85,-50.63 -22.58,-68.24 3.91,-69.32 10.68,-68.26 8.21,-69 4.04,-70.7 1.07,-72.03 -0.13,-72.37 -0.05,-71.81 0.43,-71.01 0.62,-70.77 0.39,-71.57 0,-73.28 -0.43,-75.24 -1.21,-76.78 -2.82,-77.58 -5.25,-77.8 -7.49,-77.95 -7.72,-78.41 -4.3,-79.17 2.65,-79.63 9.96,-78.86 10.49,-76.02 -8.58,-69.81 -67.29,-52.59" fill="none" stroke="rgb(204, 204, 255)" stroke-width="2" stroke-linejoin="round" filter="url(#fuzzy)" /><polyline points="69.94,-48.96 49.04,-57.61 33.12,-55.8 25.35,-56.74 26.5,-59.63 28.56,-63.08 24.97,-66.23 15,-68.39 2.57,-69.34 -7.21,-69.64 -11.22,-70.11 -9.62,-70.98 -4.86,-71.6 0.64,-70.99 5.97,-69 11.57,-66.93 17.9,-67.06 25.65,-70.05 53.36,-66.27" fill="none" stroke="rgb(204, 204, 255)" stroke-width="2" stroke-linejoin="round" filter="url(#fuzzy)" /><polyline points="-44.98,-72.2 -8.04,-77.41 -4.05,-77.25 -7.28,-76.57 -5.16,-75.66 2.86,-73.84 12.87,-71.18 20.86,-68.51 24.45,-66.69 23.24,-66.17 18.42,-66.87 11.9,-68.37 5.5,-70.11 0.82,-71.45 -0.64,-71.8 2.23,-70.89 9.1,-69.05 17.14,-67.33 21.55,-67.2 18.59,-69.48 9.66,-73.32 2.6,-76.54 4.56,-78.95 -4.23,-84.43" fill="none" stroke="rgb(204, 204, 255)" stroke-width="2" stroke-linejoin="round" filter="url(#fuzzy)" /><polyline points="-65.27,-54.58 20.39,-49.01 39.34,-47.03 26.58,-50.24 7.72,-56.23 -4.36,-62.23 -7.83,-66.81 -5.97,-69.73 -2.07,-71.29 2.45,-71.87 7.43,-71.78 12.69,-71.16 17.56,-70.09 21.18,-68.7 23.08,-67.29 23.32,-66.29 22.29,-66.02 20.43,-66.37 18.41,-66.65 17.66,-66.09 20.56,-64.66 28.24,-63.79 35.93,-66.04 30.91,-72.76 -2.44,-84.69" fill="none" stroke="rgb(204, 204, 255)" stroke-width="2" stroke-linejoin="round" filter="url(#fuzzy)" /><polyline points="73.03,-44.11 38.76,-63.3 21.76,-67.06 3.25,-68.37 -8.71,-69.32 -11.05,-70.36 -8.33,-71.41 -6.06,-72.27 -5.94,-72.82 -6.21,-73.02 -4.51,-72.68 0.48,-71.44 9.62,-68.94 23.6,-65.08 40.73,-60.76 54.17,-58.71 55.54,-62.64 47.27,-70.61" fill="none" stroke="rgb(204, 204, 255)" stroke-width="2" stroke-linejoin="round" filter="url(#fuzzy)" /><polyline points="-46.93,-70.64 -40.98,-66.23 -14.65,-58.95 14.01,-55.15 30.1,-55.36 32.01,-58.13 24.82,-62.36 14.15,-67.21 3.26,-71.63 -6.83,-74.48 -15.59,-75.18 -21.27,-74.07 -21.06,-72.37 -13.44,-71.65 -0.83,-73.2 10.69,-77.08 17.65,-80.88 23.87,-81.16" fill="none" stroke="rgb(204, 204, 255)" stroke-width="2" stroke-linejoin="round" filter="url(#fuzzy)" /><polyline points="28.84,-79.48 33.78,-68.93 18.08,-72.87 11.67,-76.16 14.43,-76.02 18.78,-73.38 19.29,-70.37 15.38,-68.88 9.8,-69.49 5.61,-71.32 4.02,-72.66 4.54,-72.09 6.54,-69.25 10.53,-64.96 17.93,-60.6 29.53,-57.12 44.05,-54.73 57.11,-53.82 61.8,-56.35 53.36,-66.27" fill="none" stroke="rgb(204, 204, 255)" stroke-width="2" stroke-linejoin="round" filter="url(#fuzzy)" /><polyline points="50.83,-67.77 56.03,-61.45 50.29,-60.87 41.23,-62.47 35.42,-63.16 31.66,-63.58 27.22,-64.47 22.13,-65.52 18.37,-66.36 17.27,-67.24 18.29,-68.54 19.61,-69.95 19.89,-70.24 20.06,-68.05 23.87,-63.48 33.56,-59.94 38.31,-64.85 9.78,-84.04" fill="none" stroke="rgb(204, 204, 255)" stroke-width="2" stroke-linejoin="round" filter="url(#fuzzy)" /><polyline points="-29.1,-79.58 -1.98,-74.62 -15.75,-72 -27.51,-70.02 -26.65,-68.81 -16.18,-67.95 -3.34,-67.26 5.92,-67.05 9.23,-67.89 7.39,-70.01 2.95,-73.09 -1.23,-76.29 -2.94,-78.75 -1.15,-79.89 3.57,-79.59 9.35,-77.87 14.63,-74.67 21.56,-69.99 35.74,-66.03 40.01,-74.75" fill="none" stroke="rgb(204, 204, 255)" stroke-width="2" stroke-linejoin="round" filter="url(#fuzzy)" /><polyline points="-58.38,-61.89 22.04,-52.34 40.79,-51.45 33.94,-52.19 19.02,-53.29 4.63,-54.33 -5.27,-55.29 -9.57,-56.29 -8.98,-57.4 -4.79,-58.57 1.95,-59.64 10.51,-60.41 19.88,-60.71 28.29,-60.66 33.3,-60.81 32.8,-62.02 26.59,-64.84 17.84,-68.57 13,-70.87 19.09,-68.52 38.57,-59.52 63.57,-46.6 72.74,-45.05" fill="none" stroke="rgb(204, 204, 255)" stroke-width="2" stroke-linejoin="round" filter="url(#fuzzy)" /><polyline points="-9.18,-84.07 -1.78,-81.03 -5.03,-76.05 -0.43,-71.43 7.73,-68.66 13.75,-67.03 14.85,-65.49 11.03,-63.62 4.7,-61.49 -0.72,-59.42 -2.76,-57.87 -1.05,-57.37 2.99,-58.32 7.55,-60.7 11.63,-63.87 15.35,-66.75 19.5,-68.18 24.7,-67.36 30.11,-64.14 32.03,-59.16 25.03,-54.24 15.4,-52.01 66.15,-53.69" fill="none" stroke="rgb(204, 204, 255)" stroke-width="2" stroke-linejoin="round" filter="url(#fuzzy)" /><polyline points="78.14,-34.66 68.48,-48.22 60.61,-57.38 55.27,-61.88 50.07,-64.25 43.31,-66.74 35.34,-70.03 27.81,-73.62 22.32,-76.7 19.47,-78.74 18.69,-79.61 19.01,-79.32 20.47,-77.47 25.17,-72.72 36.92,-63.04 57.55,-49.05 71.01,-47.03" fill="none" stroke="rgb(204, 204, 255)" stroke-width="2" stroke-linejoin="round" filter="url(#fuzzy)" /><polyline points="-5.85,-84.5 -7.26,-84.34 -9.78,-84.05 -12.21,-83.68 -14.49,-83.23 -16.78,-82.7 -19.15,-82.09 -21.6,-81.38 -24.06,-80.6 -26.45,-79.73 -28.71,-78.79 -30.8,-77.75 -32.72,-76.64 -34.51,-75.46 -36.21,-74.24 -37.87,-72.97 -39.5,-71.67 -41.08,-70.34 -42.54,-68.96 -43.84,-67.51 -44.93,-65.96 -45.82,-64.32 -46.6,-62.58 -47.34,-60.78 -48.11,-58.94 -48.91,-57.11 -49.64,-55.31 -50.16,-53.56 -50.37,-51.81 -50.31,-50 -50.1,-48.01 -49.87,-45.73 -49.48,-43.16 -49.15,-40.4" fill="none" stroke="rgb(204, 204, 255)" stroke-width="2" stroke-linejoin="round" filter="url(#fuzzy)" /><polyline points="-9.18,-84.07 -12.04,-83.73 -14.43,-83.38 -16.86,-82.9 -19.43,-82.3 -22.11,-81.59 -24.82,-80.8 -27.46,-79.97 -29.99,-79.1 -32.42,-78.19 -34.8,-77.22 -37.15,-76.18 -39.5,-75.08 -41.83,-73.9 -44.13,-72.66 -46.39,-71.37 -48.59,-70.02 -50.77,-68.6 -52.91,-67.11 -55.04,-65.54 -57.15,-63.89 -59.23,-62.17 -61.3,-60.38 -63.54,-58.33 -66.79,-55.24" fill="none" stroke="rgb(204, 204, 255)" stroke-width="2" stroke-linejoin="round" filter="url(#fuzzy)" /><polyline points="84.15,-14.54 84.37,-16.93 85.31,-19.2 87.1,-21.73 89.57,-24.38 92.01,-26.94 93.91,-29.37 95.16,-31.7 95.97,-33.98 96.61,-36.25 97.33,-38.51 98.34,-40.76 99.69,-42.95 101.21,-45.06 102.55,-47.07 103.36,-49.02 103.43,-50.98 102.81,-53.02 101.9,-55.12 101.39,-57.22 101.67,-59.15 102.01,-60.81 102.65,-62.24" fill="none" stroke="rgb(204, 204, 255)" stroke-width="2" stroke-linejoin="round" filter="url(#fuzzy)" /><polyline points="-13.4,-83.54 -15.17,-83.3 -17.63,-82.78 -20.19,-82.13 -22.79,-81.41 -25.44,-80.61 -28.1,-79.73 -30.73,-78.77 -33.33,-77.72 -35.9,-76.59 -38.4,-75.4 -40.8,-74.15 -43.1,-72.88 -45.28,-71.57 -47.38,-70.24 -49.43,-68.85 -51.46,-67.39 -53.49,-65.84 -55.53,-64.18 -57.55,-62.44 -59.54,-60.64 -61.47,-58.81 -63.3,-56.99 -65.02,-55.19 -66.63,-53.4 -68.16,-51.61 -69.64,-49.73 -71.12,-47.72 -72.62,-45.54 -74.12,-43.24 -75.54,-41.01 -76.76,-39.04 -77.76,-37.36" fill="none" stroke="rgb(204, 204, 255)" stroke-width="2" stroke-linejoin="round" filter="url(#fuzzy)" /><polyline points="-13.4,-83.54 -15.13,-83.31 -17.58,-82.8 -20.12,-82.17 -22.71,-81.46 -25.35,-80.68 -28.01,-79.83 -30.66,-78.9 -33.3,-77.89 -35.93,-76.79 -38.52,-75.61 -41.04,-74.38 -43.45,-73.12 -45.73,-71.86 -47.88,-70.59 -49.97,-69.31 -52.03,-67.96 -54.11,-66.51 -56.23,-64.92 -58.44,-63.18 -60.81,-61.25 -63.39,-59.04 -66.03,-56.67" fill="none" stroke="rgb(204, 204, 255)" stroke-width="2" stroke-linejoin="round" filter="url(#fuzzy)" /><polyline points="-22.19,-81.73 -26.35,-80.7 -30.14,-79.79 -33.21,-78.91 -36.13,-78 -39.13,-77 -42.2,-75.92 -45.24,-74.75 -48.19,-73.52 -51.05,-72.22 -53.76,-70.87 -56.27,-69.44 -58.52,-67.95 -60.5,-66.38 -62.28,-64.74 -63.94,-63.04 -65.62,-61.27 -67.39,-59.45 -69.31,-57.6 -71.41,-55.71 -73.67,-53.79 -76.07,-51.83 -78.55,-49.83 -81.04,-47.76 -83.45,-45.62 -85.71,-43.45 -87.85,-41.25 -89.88,-39.07 -91.86,-36.93 -93.77,-34.8 -95.6,-32.58 -97.4,-30.16 -99.31,-27.45 -102.26,-24.09" fill="none" stroke="rgb(204, 204, 255)" stroke-width="2" stroke-linejoin="round" filter="url(#fuzzy)" /><polyline points="-26.6,-80.52 -28.88,-79.67 -31.27,-78.75 -33.72,-77.72 -36.29,-76.54 -38.86,-75.28 -41.31,-73.99 -43.62,-72.69 -45.8,-71.38 -47.88,-70.05 -49.93,-68.66 -51.97,-67.18 -54,-65.6 -56.03,-63.93 -58.03,-62.17 -59.98,-60.36 -61.86,-58.53 -63.65,-56.7 -65.36,-54.88 -67,-53.06 -68.58,-51.19 -70.12,-49.25 -71.63,-47.22 -73.12,-45.08 -74.59,-42.86 -76.01,-40.57 -77.39,-38.24 -78.7,-35.83 -79.92,-33.33 -81.05,-30.77 -82.07,-28.23 -82.92,-25.9 -83.61,-23.61" fill="none" stroke="rgb(204, 204, 255)" stroke-width="2" stroke-linejoin="round" filter="url(#fuzzy)" /><polyline points="-26.6,-80.52 -28.57,-79.67 -30.41,-78.76 -32.05,-77.74 -33.49,-76.58 -34.8,-75.32 -36.09,-74.03 -37.42,-72.74 -38.74,-71.45 -39.99,-70.14 -41.03,-68.77 -41.68,-67.32 -41.74,-65.77 -41.08,-64.1 -39.67,-62.34 -37.69,-60.53 -35.49,-58.69 -33.43,-56.87 -31.68,-55.08 -30.13,-53.32 -28.41,-51.54 -26.23,-49.68 -23.74,-47.67 -21.37,-45.49 -19.2,-43.2 -16.17,-40.98 -10.85,-39.03 -4.66,-37.36" fill="none" stroke="rgb(204, 204, 255)" stroke-width="2" stroke-linejoin="round" filter="url(#fuzzy)" /><polyline points="-29.1,-79.58 -31.05,-78.88 -33.27,-78.02 -35.82,-77.04 -38.46,-75.96 -41.02,-74.79 -43.42,-73.55 -45.69,-72.26 -47.93,-70.92 -50.27,-69.52 -52.76,-68.04 -55.37,-66.49 -58.04,-64.87 -60.64,-63.17 -63.15,-61.42 -65.59,-59.61 -68.03,-57.76 -70.52,-55.9 -73.01,-54.01 -75.42,-52.11 -77.69,-50.15 -79.93,-48.12 -82.33,-45.98 -85.06,-43.74 -88.01,-41.41 -90.84,-38.87 -92.99,-35.69" fill="none" stroke="rgb(204, 204, 255)" stroke-width="2" stroke-linejoin="round" filter="url(#fuzzy)" /><polyline points="-46.93,-70.64 -48.8,-69.77 -52.15,-68.59 -56.21,-67.11 -59.77,-65.43 -62.76,-63.63 -65.73,-61.76 -69.12,-59.87 -73.01,-58 -77.2,-56.15 -81.46,-54.33 -85.6,-52.48 -89.52,-50.57 -93.17,-48.58 -96.53,-46.49 -99.6,-44.31 -102.46,-42.05 -105.16,-39.73 -107.78,-37.36 -110.34,-34.94 -112.84,-32.5 -115.3,-30.03 -117.78,-27.56 -120.35,-25.08 -123.15,-22.59 -126.3,-20.08 -129.94,-17.57 -134.12,-15.09 -138.77,-12.67 -143.61,-10.33 -148.23,-8.03 -152.35,-5.68 -156.03,-3.17 -159.76,-0.47 -163.97,2.38 -167.84,5.22 -169.6,7.06" fill="none" stroke="rgb(204, 204, 255)" stroke-width="2" stroke-linejoin="round" filter="url(#fuzzy)" /><polyline points="-49.59,-68.68 -52.87,-67.48 -55.56,-66.03 -57.31,-64.37 -58.94,-62.59 -60.89,-60.74 -63.16,-58.87 -65.58,-56.97 -68,-55.05 -70.47,-53.1 -73.15,-51.11 -76.15,-49.07 -79.5,-46.97 -83.02,-44.82 -86.45,-42.64 -89.52,-40.44 -92.04,-38.22 -93.96,-35.97 -95.35,-33.67 -96.36,-31.31 -97.17,-28.88 -97.97,-26.39 -98.91,-23.86 -100.1,-21.32 -101.56,-18.8 -103.29,-16.32 -105.27,-13.89 -107.46,-11.49 -109.78,-9.08 -112.15,-6.6 -114.37,-4.04 -116.29,-1.41 -117.89,1.26 -119.32,4.02 -120.7,6.93 -121.95,9.59" fill="none" stroke="rgb(204, 204, 255)" stroke-width="2" stroke-linejoin="round" filter="url(#fuzzy)" /><polyline points="-49.61,-69.08 -53.26,-67.33 -56.88,-65.51 -60.84,-63.69 -65.14,-61.8 -69.1,-59.89 -72.28,-58.01 -74.8,-56.2 -77.02,-54.44 -79.2,-52.67 -81.49,-50.85 -84.01,-48.92 -86.88,-46.87 -90.16,-44.71 -93.76,-42.48 -97.42,-40.19 -100.86,-37.86 -103.97,-35.46 -106.96,-33.01 -110.32,-30.52 -114.56,-28.06 -119.66,-25.69 -124.67,-23.49 -127.92,-21.57 -127.59,-20.54" fill="none" stroke="rgb(204, 204, 255)" stroke-width="2" stroke-linejoin="round" filter="url(#fuzzy)" /><polyline points="-51.63,-67.51 -53.51,-66.14 -55.87,-64.43 -58.83,-62.61 -62.35,-60.76 -65.91,-58.89 -68.99,-57 -71.51,-55.1 -73.71,-53.18 -75.91,-51.22 -78.31,-49.2 -80.86,-47.11 -83.45,-44.97 -85.96,-42.8 -88.37,-40.61 -90.7,-38.42 -93.01,-36.22 -95.34,-33.98 -97.72,-31.66 -100.17,-29.25 -102.69,-26.75 -105.28,-24.18 -107.92,-21.58 -110.5,-19 -112.82,-16.49 -114.72,-14.13 -116.26,-12.04 -117.96,-10.24 -120.95,-8.03" fill="none" stroke="rgb(204, 204, 255)" stroke-width="2" stroke-linejoin="round" filter="url(#fuzzy)" /><polyline points="-53.29,-66.33 -56.3,-64.46 -60.44,-62.55 -64.85,-60.67 -69.07,-58.79 -72.7,-56.88 -75.46,-54.97 -77.4,-53.03 -78.83,-51.06 -80.13,-49.02 -81.52,-46.91 -83.08,-44.75 -84.77,-42.57 -86.54,-40.36 -88.45,-38.15 -90.6,-35.91 -93.13,-33.62 -96.07,-31.26 -99.26,-28.83 -102.43,-26.34 -105.23,-23.8 -107.37,-21.26 -108.81,-18.74 -109.75,-16.27 -110.59,-13.85 -111.78,-11.46 -113.6,-9.05 -116.09,-6.58 -119.03,-4.02 -122,-1.39 -124.47,1.27 -125.92,4.03 -126.31,6.93 -127.09,9.59" fill="none" stroke="rgb(204, 204, 255)" stroke-width="2" stroke-linejoin="round" filter="url(#fuzzy)" /><polyline points="-54.96,-64.86 -59.77,-63.51 -67.14,-61.67 -73.25,-59.67 -77.34,-57.75 -80.1,-55.93 -82,-54.16 -83.23,-52.38 -83.94,-50.52 -84.38,-48.54 -84.87,-46.44 -85.68,-44.25 -86.97,-41.97 -88.79,-39.64 -91.1,-37.27 -93.82,-34.85 -96.91,-32.41 -100.38,-29.95 -104.21,-27.49 -108.34,-25.02 -112.67,-22.54 -117,-20.04 -121.16,-17.53 -125.01,-15.04 -128.49,-12.63 -131.67,-10.33 -134.69,-8.09 -137.83,-5.79 -141.49,-3.3 -145.91,-0.58 -150.39,2.46 -154.1,6.87" fill="none" stroke="rgb(204, 204, 255)" stroke-width="2" stroke-linejoin="round" filter="url(#fuzzy)" /><polyline points="-58.42,-62.2 -64.34,-59.52 -66.76,-57.48 -69.96,-55.73 -74.21,-54.04 -78.35,-52.32 -81.61,-50.49 -84.15,-48.51 -86.68,-46.4 -89.77,-44.18 -93.52,-41.9 -97.54,-39.56 -101.31,-37.19 -104.46,-34.77 -106.91,-32.33 -108.88,-29.87 -110.69,-27.41 -112.63,-24.96 -114.79,-22.48 -117.03,-19.98 -119.14,-17.47 -120.91,-14.99 -122.37,-12.58 -123.78,-10.29 -125.65,-8.06 -128.49,-5.77 -132.39,-3.28 -136.57,-0.56 -139.6,2.46 -142.46,6.87" fill="none" stroke="rgb(204, 204, 255)" stroke-width="2" stroke-linejoin="round" filter="url(#fuzzy)" /><polyline points="-63.71,-56.67 -64.69,-55.52 -66.29,-53.99 -68.59,-52.32 -71.49,-50.55 -74.69,-48.61 -77.94,-46.49 -81.24,-44.26 -84.74,-41.98 -88.47,-39.67 -92.31,-37.33 -96.03,-34.93 -99.52,-32.5 -102.84,-30.05 -106.19,-27.62 -109.74,-25.23 -113.6,-22.83 -117.83,-20.36 -122.59,-17.74 -127.97,-14.99 -133.55,-12.38 -138.13,-10.48 -141.54,-9.96" fill="none" stroke="rgb(204, 204, 255)" stroke-width="2" stroke-linejoin="round" filter="url(#fuzzy)" /><polyline points="-68.11,-51.59 -67.8,-49 -66.51,-46.34 -66.87,-43.83 -68.62,-41.47 -70.73,-39.15 -72.45,-36.79 -73.44,-34.37 -73.61,-31.9 -72.98,-29.44 -71.6,-26.98 -69.51,-24.54 -66.76,-22.08 -63.34,-19.59 -59.27,-17.1 -54.61,-14.65 -49.55,-12.26 -44.49,-9.94 -39.97,-7.64 -36.48,-5.28 -34.08,-2.79 -32.25,-0.18 -30,2.49 -26.33,5.09 -20.59,7.51 -12.71,9.77 -4.99,12.35" fill="none" stroke="rgb(204, 204, 255)" stroke-width="2" stroke-linejoin="round" filter="url(#fuzzy)" /><polyline points="-69.43,-49.35 -81.11,-46.78 -85.65,-44.29 -88.48,-41.98 -91.06,-39.77 -94.51,-37.63 -98.94,-35.48 -103.61,-33.26 -107.66,-30.92 -110.71,-28.47 -112.96,-25.94 -114.97,-23.38 -117.31,-20.83 -120.4,-18.33 -124.51,-15.9 -129.71,-13.52 -135.93,-11.16 -143.02,-8.78 -150.87,-6.32 -159.3,-3.77 -167.62,-1.16 -174.42,1.5 -178.28,4.22 -179.8,7.02 -182.41,9.82 -186.03,12.52" fill="none" stroke="rgb(204, 204, 255)" stroke-width="2" stroke-linejoin="round" filter="url(#fuzzy)" /><polyline points="-71.8,-45.74 -75.7,-43.4 -76.65,-41.15 -77.52,-38.93 -78.98,-36.59 -80.97,-34.14 -83.22,-31.64 -85.39,-29.15 -87.27,-26.68 -88.91,-24.22 -90.56,-21.75 -92.6,-19.26 -95.26,-16.77 -98.59,-14.32 -102.47,-11.91 -106.65,-9.54 -110.86,-7.17 -114.83,-4.74 -118.29,-2.25 -121,0.31 -122.84,2.91 -123.93,5.52 -124.6,8.12 -125.32,10.73 -126.39,13.35 -127.8,16 -129.33,18.62 -130.89,21.16 -132.62,23.54 -134.74,25.64 -138.43,27.42" fill="none" stroke="rgb(204, 204, 255)" stroke-width="2" stroke-linejoin="round" filter="url(#fuzzy)" /><polyline points="-73.58,-43.41 -75.78,-41.01 -78.11,-38.87 -80.39,-36.56 -82.94,-34.08 -86.08,-31.55 -89.75,-29.04 -93.51,-26.57 -96.74,-24.11 -98.99,-21.64 -100.17,-19.15 -100.62,-16.66 -100.9,-14.2 -101.54,-11.8 -102.79,-9.42 -104.58,-7.03 -106.67,-4.6 -108.76,-2.1 -110.68,0.46 -112.43,3.06 -114.15,5.67 -115.94,8.28 -117.79,10.89 -119.53,13.5 -120.97,16.12 -122.08,18.7 -123.18,21.2 -124.75,23.58 -126.92,25.86 -128.77,28.12 -128.32,30.6 -124.15,33.58" fill="none" stroke="rgb(204, 204, 255)" stroke-width="2" stroke-linejoin="round" filter="url(#fuzzy)" /><polyline points="-76.17,-39.1 -79.76,-36.75 -83.13,-34.03 -85.97,-31.36 -88.92,-28.8 -91.62,-26.34 -93.59,-23.9 -94.63,-21.44 -94.85,-18.93 -94.61,-16.43 -94.37,-13.96 -94.59,-11.55 -95.61,-9.16 -97.5,-6.76 -100.13,-4.31 -103.18,-1.8 -106.31,0.76 -109.19,3.36 -111.59,5.98 -113.34,8.59 -114.38,11.21 -114.81,13.81 -114.89,16.39 -115,18.93 -115.55,21.42 -116.73,23.86 -118.47,26.27 -120.47,28.67 -122.34,31.1 -123.87,33.58 -125.01,36.1 -125.69,38.64 -125.51,41.12 -124.32,43.43 -123.93,45.19" fill="none" stroke="rgb(204, 204, 255)" stroke-width="2" stroke-linejoin="round" filter="url(#fuzzy)" /><polyline points="-77.63,-36.12 -79.01,-33.46 -81.6,-30.66 -85.33,-27.93 -89.52,-25.24 -93.4,-22.6 -96.39,-20.02 -98.17,-17.52 -98.85,-15.08 -98.78,-12.68 -98.48,-10.26 -98.43,-7.8 -98.96,-5.28 -100.15,-2.67 -101.86,-0.01 -103.78,2.7 -105.62,5.44 -107.17,8.18 -108.42,10.9 -109.49,13.57 -110.6,16.17 -111.88,18.68 -113.32,21.11 -114.77,23.45 -115.94,25.74 -116.55,28 -116.38,30.27 -115.41,32.62 -113.83,35.09 -112.15,37.7 -110.98,40.37 -110.71,42.93 -111.26,45.11 -111.95,46.63" fill="none" stroke="rgb(204, 204, 255)" stroke-width="2" stroke-linejoin="round" filter="url(#fuzzy)" /><polyline points="81.83,-24.98 82.18,-27.97 82.04,-30.17 82.31,-32.32 83.15,-34.55 84.31,-36.84 85.51,-39.14 86.52,-41.4 87.07,-43.59 86.92,-45.7 85.9,-47.75 84.09,-49.77 81.73,-51.78 79.18,-53.78 76.72,-55.76 74.53,-57.69 72.64,-59.56 70.98,-61.38 69.45,-63.13 67.98,-64.84 66.51,-66.5 65.01,-68.1 63.46,-69.64 61.82,-71.09 60.03,-72.45 58.07,-73.72 55.94,-74.92 53.68,-76.07 51.38,-77.15 49.08,-78.17 46.7,-79.07 43.98,-79.88 40.39,-80.73 35.49,-81.81" fill="none" stroke="rgb(204, 204, 255)" stroke-width="2" stroke-linejoin="round" filter="url(#fuzzy)" /><polyline points="80.19,-28.86 81.06,-30.92 83.7,-33.51 85.99,-36.08 87.05,-38.49 86.77,-40.74 85.25,-42.91 82.81,-45.03 80.01,-47.14 77.46,-49.23 75.59,-51.27 74.52,-53.26 74.1,-55.2 73.97,-57.08 73.74,-58.89 73.07,-60.66 71.79,-62.37 69.86,-64.02 67.41,-65.63 64.61,-67.2 61.68,-68.72 58.79,-70.21 56.05,-71.65 53.52,-73.04 51.2,-74.34 49.04,-75.56 46.93,-76.69 44.75,-77.72 42.4,-78.68 39.82,-79.56 37.02,-80.37 34.05,-81.11 30.96,-81.78 27.71,-82.4 24.2,-82.95 20.41,-83.45 16.51,-83.84 13.11,-84.03" fill="none" stroke="rgb(204, 204, 255)" stroke-width="2" stroke-linejoin="round" filter="url(#fuzzy)" /><polyline points="80.19,-28.86 81.34,-30.91 80.23,-33.48 79.17,-36.04 78.59,-38.44 78.34,-40.68 78.14,-42.83 77.87,-44.94 77.58,-47.04 77.44,-49.12 77.64,-51.16 78.34,-53.15 79.57,-55.08 81.16,-56.95 82.77,-58.77 83.99,-60.53 84.52,-62.24 84.29,-63.89 83.44,-65.49 82.24,-67.05 80.99,-68.57 79.8,-70.07 78.59,-71.55 77.07,-72.99 74.96,-74.36 72.23,-75.6 69.15,-76.69 65.98,-77.68 62.55,-78.66 58.48,-79.7 55.51,-80.6" fill="none" stroke="rgb(204, 204, 255)" stroke-width="2" stroke-linejoin="round" filter="url(#fuzzy)" /><polyline points="80.02,-30.21 78.69,-33.46 77.96,-36.15 77.27,-38.56 76.68,-40.76 76.48,-42.87 76.94,-44.95 78.42,-47.04 81.26,-49.12 85.51,-51.15 90.59,-53.14 95.42,-55.06 98.88,-56.93 100.28,-58.74 99.68,-60.49 97.63,-62.2 94.83,-63.85 91.77,-65.44 88.7,-66.97 85.84,-68.47 83.51,-69.97 81.97,-71.48 81.11,-73 80.08,-74.45 77.9,-75.73 75.02,-76.72 75.33,-77.52" fill="none" stroke="rgb(204, 204, 255)" stroke-width="2" stroke-linejoin="round" filter="url(#fuzzy)" /><polyline points="79.1,-31.95 78.16,-34.54 77.17,-36.97 76.17,-39.29 75.07,-41.55 73.87,-43.74 72.65,-45.8 71.39,-47.77 70.08,-49.71 68.68,-51.67 67.17,-53.67 65.6,-55.67 64,-57.62 62.41,-59.48 60.82,-61.25 59.22,-62.96 57.57,-64.64 55.84,-66.32 53.98,-67.98 51.94,-69.58 49.69,-71.14 47.38,-72.59 45.96,-73.55" fill="none" stroke="rgb(204, 204, 255)" stroke-width="2" stroke-linejoin="round" filter="url(#fuzzy)" /><polyline points="73.71,-42.69 72.82,-44.88 72.21,-47.38 71.75,-49.6 71.14,-51.64 70.19,-53.59 68.78,-55.48 66.94,-57.32 64.83,-59.1 62.65,-60.83 60.52,-62.52 58.48,-64.14 56.52,-65.72 54.56,-67.24 52.54,-68.74 50.44,-70.22 48.28,-71.69 46.07,-73.11 43.85,-74.45 41.61,-75.66 39.33,-76.75 36.97,-77.74 34.49,-78.7 31.93,-79.65 29.52,-80.52 27.41,-81.16" fill="none" stroke="rgb(204, 204, 255)" stroke-width="2" stroke-linejoin="round" filter="url(#fuzzy)" /><polyline points="73.71,-42.69 72.43,-44.88 70.79,-47.36 69.19,-49.58 67.63,-51.62 66.02,-53.56 64.38,-55.45 62.69,-57.28 60.96,-59.05 59.19,-60.78 57.39,-62.47 55.54,-64.09 53.64,-65.66 51.67,-67.18 49.6,-68.67 47.4,-70.15 45.06,-71.63 42.64,-73.08 40.22,-74.45 37.92,-75.67 35.78,-76.72 33.65,-77.64 31.11,-78.62 27.46,-80.01" fill="none" stroke="rgb(204, 204, 255)" stroke-width="2" stroke-linejoin="round" filter="url(#fuzzy)" /><polyline points="72.74,-45.05 71.84,-46.84 71.82,-48.45 71.88,-50.2 71.75,-52.18 71.33,-54.26 70.52,-56.31 69.41,-58.27 68.2,-60.11 67.07,-61.88 66.04,-63.6 64.94,-65.27 63.56,-66.9 61.76,-68.47 59.59,-69.97 57.17,-71.38 54.67,-72.71 52.22,-73.95 49.89,-75.12 47.69,-76.23 45.63,-77.27 43.7,-78.24 41.81,-79.15 39.81,-79.99 37.52,-80.77 34.78,-81.49 31.58,-82.15 28,-82.72 24.15,-83.23 20.04,-83.65 15.59,-84.03 10.8,-84.36 6.26,-84.64 3.41,-84.78" fill="none" stroke="rgb(204, 204, 255)" stroke-width="2" stroke-linejoin="round" filter="url(#fuzzy)" /><polyline points="73.03,-44.11 70.98,-47.57 69.75,-49.85 69,-51.84 68.23,-53.78 67.2,-55.67 65.91,-57.51 64.43,-59.3 62.78,-61.04 60.95,-62.73 58.94,-64.36 56.78,-65.94 54.5,-67.48 52.16,-68.99 49.78,-70.46 47.39,-71.88 45.02,-73.24 42.7,-74.53 40.44,-75.72 38.23,-76.82 36.04,-77.83 33.82,-78.76 31.55,-79.62 29.21,-80.41 26.78,-81.13 24.25,-81.79 21.6,-82.38 18.85,-82.91 16.01,-83.37 13.14,-83.76 10.3,-84.09 7.49,-84.35 4.6,-84.56 1.31,-84.69 -2.99,-84.69" fill="none" stroke="rgb(204, 204, 255)" stroke-width="2" stroke-linejoin="round" filter="url(#fuzzy)" /><polyline points="73.03,-44.11 71.51,-47.56 72.35,-49.83 74.59,-51.81 76.68,-53.73 77.38,-55.62 76.44,-57.45 74.39,-59.23 71.95,-60.96 69.61,-62.65 67.55,-64.27 65.71,-65.85 63.95,-67.38 62.14,-68.88 60.2,-70.35 58.19,-71.8 56.21,-73.18 54.34,-74.49 52.56,-75.69 50.72,-76.79 48.62,-77.8 46.14,-78.74 43.4,-79.62 40.66,-80.42 38.1,-81.15 35.61,-81.81 32.76,-82.42 29.29,-82.98 25.01,-83.54" fill="none" stroke="rgb(204, 204, 255)" stroke-width="2" stroke-linejoin="round" filter="url(#fuzzy)" /><polyline points="69.94,-48.96 71.62,-50.23 72.13,-51.93 70.42,-53.8 67.93,-55.69 65.64,-57.52 63.94,-59.3 62.81,-61.03 62.02,-62.7 61.23,-64.33 60.19,-65.89 58.76,-67.42 56.92,-68.91 54.78,-70.39 52.46,-71.83 50.08,-73.21 47.69,-74.52 45.33,-75.72 43,-76.81 40.66,-77.82 38.34,-78.75 36.06,-79.62 33.85,-80.43 31.7,-81.16 29.43,-81.82 26.8,-82.42 23.71,-82.99 20.3,-83.54" fill="none" stroke="rgb(204, 204, 255)" stroke-width="2" stroke-linejoin="round" filter="url(#fuzzy)" /><polyline points="63.58,-56.57 63.34,-58.09 64.4,-59.66 66.11,-61.33 67.08,-63.02 66.32,-64.65 63.83,-66.19 60.39,-67.69 56.9,-69.17 53.97,-70.63 51.79,-72.06 50.2,-73.43 48.88,-74.71 47.48,-75.88 45.76,-76.95 43.61,-77.93 41.05,-78.85 38.18,-79.69 35.16,-80.47 32.1,-81.19 29.07,-81.84 26.03,-82.42 22.91,-82.94 19.68,-83.4 16.4,-83.79 13.15,-84.11 9.97,-84.38 6.76,-84.6 2.92,-84.77" fill="none" stroke="rgb(204, 204, 255)" stroke-width="2" stroke-linejoin="round" filter="url(#fuzzy)" /><polyline points="63.17,-57.29 67.02,-59.08 65.51,-60.69 63.31,-62.29 61.23,-63.96 59.51,-65.65 58.35,-67.3 57.84,-68.88 57.82,-70.36 57.92,-71.74 57.62,-73.03 56.51,-74.24 54.39,-75.38 51.35,-76.46 47.68,-77.47 43.73,-78.41 39.8,-79.29 36.07,-80.11 32.57,-80.86 29.24,-81.54 25.97,-82.15 22.66,-82.69 19.22,-83.16 15.6,-83.56 11.81,-83.87 7.86,-84.11 3.78,-84.26 -0.39,-84.33 -4.65,-84.31 -9.01,-84.22 -13.5,-84.06 -18.18,-83.84 -23.1,-83.56 -28.29,-83.22 -33.74,-82.79 -39.34,-82.24 -45.01,-81.53 -50.92,-80.6" fill="none" stroke="rgb(204, 204, 255)" stroke-width="2" stroke-linejoin="round" filter="url(#fuzzy)" /><polyline points="60.12,-60.13 56.96,-63.19 55.84,-64.99 56.4,-66.44 58.05,-67.83 59.65,-69.27 60.44,-70.73 60.36,-72.18 59.63,-73.56 58.29,-74.84 56.2,-75.99 53.23,-77.03 49.6,-78 45.77,-78.9 42.21,-79.74 39.18,-80.51 36.62,-81.22 34.22,-81.86 31.66,-82.45 28.7,-82.98 25.2,-83.44 21.16,-83.83 16.84,-84.12 12.23,-84.41" fill="none" stroke="rgb(204, 204, 255)" stroke-width="2" stroke-linejoin="round" filter="url(#fuzzy)" /><polyline points="58.02,-62.24 57.34,-63.92 58.42,-65.77 60.04,-67.49 60.42,-69.08 58.68,-70.55 55.22,-71.91 51.04,-73.17 47.02,-74.35 43.58,-75.47 40.81,-76.54 38.55,-77.54 36.65,-78.48 34.94,-79.35 33.29,-80.16 31.58,-80.91 29.66,-81.59 27.38,-82.21 24.65,-82.75 21.39,-83.22 17.64,-83.62 13.47,-83.95 9,-84.21 4.32,-84.37 -0.51,-84.45 -5.51,-84.42 -10.7,-84.31 -16.06,-84.14 -21.54,-83.95 -26.91,-83.76 -30.96,-83.7" fill="none" stroke="rgb(204, 204, 255)" stroke-width="2" stroke-linejoin="round" filter="url(#fuzzy)" /><polyline points="55.1,-64.56 54.46,-65.45 53.62,-66.61 53.17,-67.95 53.11,-69.4 53.33,-70.88 53.71,-72.34 54,-73.72 53.88,-74.98 53.11,-76.12 51.58,-77.16 49.35,-78.12 46.55,-79 43.35,-79.82 39.9,-80.58 36.31,-81.27 32.66,-81.89 28.97,-82.45 25.26,-82.94 21.49,-83.36 17.65,-83.72 13.69,-84.01 9.53,-84.23 5.1,-84.38 0.31,-84.44 -4.85,-84.43 -10.34,-84.34 -16.07,-84.17 -21.91,-83.93 -27.69,-83.62 -33.29,-83.22 -38.91,-82.69 -44.61,-81.97" fill="none" stroke="rgb(204, 204, 255)" stroke-width="2" stroke-linejoin="round" filter="url(#fuzzy)" /><polyline points="50.83,-67.77 48.79,-69.45 46.89,-71 44.91,-72.54 42.92,-73.96 40.93,-75.21 38.93,-76.31 36.9,-77.3 34.89,-78.23 33.02,-79.1 31.31,-79.91 29.68,-80.65 27.91,-81.33 25.83,-81.95 23.33,-82.5 20.47,-82.98 17.39,-83.4 14.21,-83.76 10.97,-84.05 7.6,-84.26 3.99,-84.41 0.09,-84.48 -4.06,-84.46 -8.35,-84.37 -12.7,-84.2 -17.04,-83.97 -21.35,-83.67 -25.6,-83.33 -30.77,-82.8" fill="none" stroke="rgb(204, 204, 255)" stroke-width="2" stroke-linejoin="round" filter="url(#fuzzy)" /><polyline points="48.22,-69.85 48.62,-71.04 50.34,-72.58 50.62,-74.04 49.01,-75.29 46.3,-76.35 43.1,-77.32 39.74,-78.23 36.54,-79.09 33.82,-79.91 31.76,-80.65 30.3,-81.34 29.12,-81.95 27.73,-82.51 25.7,-83 22.79,-83.44 19.1,-83.81 14.96,-84.11 10.63,-84.35 6.03,-84.53 0.77,-84.63 -5.53,-84.63 -12.49,-84.5" fill="none" stroke="rgb(204, 204, 255)" stroke-width="2" stroke-linejoin="round" filter="url(#fuzzy)" /><polyline points="46.96,-70.81 46.33,-72.48 46.34,-73.62 45.32,-74.67 43.15,-75.74 40.55,-76.79 37.95,-77.8 35.4,-78.72 32.77,-79.57 29.98,-80.35 27.1,-81.07 24.21,-81.73 21.4,-82.31 18.64,-82.83 15.85,-83.27 12.92,-83.64 9.78,-83.93 6.39,-84.13 2.81,-84.26 -0.9,-84.3 -4.66,-84.26 -8.37,-84.15 -12.01,-83.97 -15.57,-83.73 -19.11,-83.41 -22.77,-83.02 -26.72,-82.54 -31.11,-81.95 -35.97,-81.26 -41.14,-80.49 -46.33,-79.67 -51.32,-78.82 -56.42,-77.89 -63.45,-76.55" fill="none" stroke="rgb(204, 204, 255)" stroke-width="2" stroke-linejoin="round" filter="url(#fuzzy)" /><polyline points="46.96,-70.81 44.64,-72.48 44.59,-73.62 45.1,-74.67 44.71,-75.74 43.11,-76.8 40.76,-77.8 38.19,-78.72 35.63,-79.57 33.09,-80.35 30.44,-81.07 27.6,-81.73 24.55,-82.31 21.3,-82.83 17.89,-83.27 14.35,-83.63 10.69,-83.92 6.92,-84.12 3.04,-84.25 -0.93,-84.29 -5,-84.25 -9.15,-84.13 -13.38,-83.95 -17.71,-83.7 -22.16,-83.38 -26.78,-82.98 -31.66,-82.49 -36.92,-81.9 -42.58,-81.22 -48.53,-80.45 -54.48,-79.63 -60.03,-78.78 -64.99,-77.89 -69.84,-76.99 -74.97,-76.34" fill="none" stroke="rgb(204, 204, 255)" stroke-width="2" stroke-linejoin="round" filter="url(#fuzzy)" /><polyline points="43.41,-72.91 42.15,-74.46 39.53,-75.63 37.24,-76.59 35.37,-77.49 33.73,-78.37 32.12,-79.23 30.36,-80.04 28.36,-80.77 26.07,-81.44 23.52,-82.03 20.75,-82.57 17.86,-83.04 14.92,-83.44 11.96,-83.78 8.99,-84.04 5.97,-84.24 2.85,-84.36 -0.39,-84.41 -3.74,-84.38 -7.18,-84.27 -10.71,-84.08 -14.29,-83.82 -17.94,-83.48 -21.61,-83.07 -25.26,-82.58 -28.86,-82.01 -32.54,-81.35 -36.78,-80.59 -41.45,-79.8" fill="none" stroke="rgb(204, 204, 255)" stroke-width="2" stroke-linejoin="round" filter="url(#fuzzy)" /><polyline points="38.79,-75.27 36.35,-76.95 34.11,-78.1 31.89,-78.97 29.55,-79.75 27.18,-80.49 24.81,-81.19 22.4,-81.85 19.89,-82.43 17.22,-82.93 14.4,-83.36 11.46,-83.72 8.44,-84.01 5.38,-84.22 2.29,-84.34 -0.81,-84.38 -3.92,-84.33 -7.03,-84.22 -10.17,-84.04 -13.34,-83.81 -16.61,-83.52 -20.03,-83.16 -23.68,-82.7 -27.7,-82.13 -32.3,-81.42 -37.57,-80.56 -42.78,-79.58" fill="none" stroke="rgb(204, 204, 255)" stroke-width="2" stroke-linejoin="round" filter="url(#fuzzy)" /><polyline points="34.46,-77.44 32.53,-78.35 30.53,-79.09 28.52,-79.81 26.33,-80.53 23.93,-81.24 21.36,-81.9 18.69,-82.47 15.98,-82.97 13.22,-83.39 10.44,-83.74 7.63,-84.02 4.81,-84.21 2.01,-84.32 -0.77,-84.35 -3.53,-84.3 -6.26,-84.17 -8.95,-83.98 -11.64,-83.73 -14.33,-83.41 -17.09,-83.02 -19.96,-82.53 -23,-81.94 -26.19,-81.25 -29.46,-80.48 -32.66,-79.66 -35.6,-78.81 -38.4,-77.88 -42.2,-76.55" fill="none" stroke="rgb(204, 204, 255)" stroke-width="2" stroke-linejoin="round" filter="url(#fuzzy)" /><polyline points="34.41,-77.52 36.53,-78.44 33.28,-79.44 30.23,-80.28 27.83,-80.99 25.52,-81.62 22.96,-82.19 20.15,-82.7 17.23,-83.15 14.31,-83.53 11.37,-83.84 8.35,-84.08 5.15,-84.25 1.72,-84.34 -1.97,-84.35 -5.92,-84.29 -10.08,-84.15 -14.4,-83.92 -18.78,-83.63 -23.11,-83.25 -27.31,-82.79 -31.36,-82.25 -35.28,-81.63 -39.19,-80.93 -43.21,-80.14 -47.47,-79.28 -52.06,-78.33 -57.12,-77.28 -62.81,-76.13 -69.19,-74.88 -76.16,-73.56 -83.45,-72.2 -90.69,-70.88 -97.74,-69.8" fill="none" stroke="rgb(204, 204, 255)" stroke-width="2" stroke-linejoin="round" filter="url(#fuzzy)" /><polyline points="27.46,-80.01 26.27,-80.57 24.52,-81.13 22.49,-81.7 20.24,-82.25 17.8,-82.76 15.25,-83.21 12.63,-83.59 9.98,-83.89 7.29,-84.13 4.56,-84.29 1.77,-84.38 -1.07,-84.38 -3.95,-84.31 -6.87,-84.16 -9.8,-83.94 -12.76,-83.63 -15.75,-83.25 -18.76,-82.79 -21.79,-82.25 -24.81,-81.63 -27.82,-80.92 -30.79,-80.14 -33.73,-79.27 -36.7,-78.32 -39.78,-77.27 -43.03,-76.12 -46.49,-74.87 -50.05,-73.55 -53.52,-72.2 -56.66,-70.87 -59.4,-69.8" fill="none" stroke="rgb(204, 204, 255)" stroke-width="2" stroke-linejoin="round" filter="url(#fuzzy)" /><polyline points="23.87,-81.16 22.57,-81.72 20.61,-82.31 18.32,-82.83 15.86,-83.28 13.29,-83.65 10.64,-83.95 7.88,-84.18 4.96,-84.34 1.87,-84.43 -1.4,-84.44 -4.82,-84.38 -8.35,-84.23 -11.92,-84.01 -15.48,-83.72 -19.01,-83.35 -22.6,-82.9 -26.39,-82.38 -30.56,-81.77 -35.24,-81.08 -40.41,-80.31 -45.93,-79.49 -51.66,-78.6 -57.72,-77.6 -64.65,-76.32 -72.85,-74.53" fill="none" stroke="rgb(204, 204, 255)" stroke-width="2" stroke-linejoin="round" filter="url(#fuzzy)" /><polyline points="22.41,-81.81 20.43,-82.27 18.48,-82.75 16.28,-83.18 13.66,-83.56 10.78,-83.88 7.8,-84.14 4.78,-84.32 1.69,-84.41 -1.57,-84.41 -5.03,-84.33 -8.72,-84.18 -12.61,-83.98 -16.61,-83.72 -20.63,-83.39 -24.63,-82.98 -28.62,-82.48 -32.68,-81.88 -36.96,-81.18 -41.57,-80.41 -46.55,-79.59 -51.89,-78.75 -57.57,-77.87 -63.59,-76.97 -68.41,-76.34" fill="none" stroke="rgb(204, 204, 255)" stroke-width="2" stroke-linejoin="round" filter="url(#fuzzy)" /><polyline points="23.12,-81.62 20.23,-82.35 17.59,-82.89 14.93,-83.33 12.31,-83.69 9.76,-83.98 7.25,-84.21 4.68,-84.37 1.98,-84.46 -0.85,-84.47 -3.76,-84.41 -6.7,-84.27 -9.65,-84.05 -12.62,-83.76 -15.61,-83.4 -18.66,-82.97 -21.77,-82.46 -25,-81.86 -28.38,-81.17 -31.93,-80.4 -35.5,-79.57 -38.5,-78.82 -39.47,-78.54" fill="none" stroke="rgb(204, 204, 255)" stroke-width="2" stroke-linejoin="round" filter="url(#fuzzy)" /><polyline points="23.12,-81.62 20.21,-82.35 17.72,-82.9 15.14,-83.34 12.44,-83.7 9.72,-83.99 7.02,-84.21 4.28,-84.35 1.48,-84.42 -1.4,-84.41 -4.34,-84.32 -7.31,-84.15 -10.28,-83.91 -13.29,-83.58 -16.37,-83.18 -19.56,-82.7 -22.88,-82.13 -26.34,-81.48 -29.88,-80.75 -33.46,-79.94 -37,-79.04 -40.48,-78.06 -43.88,-76.99 -47.19,-75.85 -50.45,-74.64 -53.68,-73.39 -56.88,-72.12 -60.04,-70.85 -63.16,-69.57 -66.25,-68.25 -69.39,-66.81 -72.55,-65.25 -75.56,-63.67 -78.59,-62.2" fill="none" stroke="rgb(204, 204, 255)" stroke-width="2" stroke-linejoin="round" filter="url(#fuzzy)" /><polyline points="23.12,-81.62 20.45,-82.35 18,-82.89 15.47,-83.34 12.94,-83.7 10.43,-83.99 7.83,-84.21 5,-84.36 1.9,-84.44 -1.43,-84.44 -4.9,-84.35 -8.43,-84.19 -11.97,-83.96 -15.52,-83.65 -19.13,-83.26 -22.91,-82.79 -26.97,-82.25 -31.39,-81.62 -36.17,-80.91 -41.24,-80.12 -46.57,-79.25 -52.11,-78.3 -57.83,-77.25 -63.57,-76.1 -69.01,-74.85 -73.93,-73.54 -78.63,-72.19 -83.9,-70.87 -89.24,-69.8" fill="none" stroke="rgb(204, 204, 255)" stroke-width="2" stroke-linejoin="round" filter="url(#fuzzy)" /><polyline points="23.12,-81.62 20.4,-82.36 17.96,-82.9 15.51,-83.34 13.09,-83.7 10.66,-83.99 8.07,-84.21 5.19,-84.35 1.97,-84.42 -1.54,-84.4 -5.26,-84.3 -9.12,-84.13 -13.1,-83.88 -17.19,-83.54 -21.41,-83.13 -25.76,-82.64 -30.21,-82.06 -34.72,-81.4 -39.19,-80.66 -43.56,-79.83 -47.79,-78.92 -51.92,-77.93 -56.02,-76.85 -60.21,-75.71 -64.57,-74.5 -69.13,-73.26 -73.91,-71.98 -78.92,-70.68 -84.21,-69.34 -89.84,-67.93 -95.77,-66.43 -101.79,-64.81 -107.55,-63.06 -112.92,-61.17 -118.21,-59.22 -124,-57.33 -130.17,-55.75 -136.25,-54.58" fill="none" stroke="rgb(204, 204, 255)" stroke-width="2" stroke-linejoin="round" filter="url(#fuzzy)" /><polyline points="1.77,-84.78 -1.92,-84.61 -4.89,-84.41 -7.56,-84.18 -10.03,-83.93 -12.4,-83.63 -14.8,-83.24 -17.27,-82.75 -19.85,-82.16 -22.51,-81.48 -25.23,-80.72 -27.97,-79.9 -30.75,-79.02 -33.57,-78.08 -36.46,-77.08 -39.39,-76.01 -42.35,-74.88 -45.27,-73.68 -48.11,-72.42 -50.85,-71.08 -53.49,-69.68 -56.06,-68.21 -58.61,-66.67 -61.18,-65.05 -63.82,-63.37 -66.57,-61.62 -69.48,-59.81 -72.56,-57.96 -75.77,-56.09 -79,-54.18 -82.1,-52.25 -84.95,-50.28 -87.54,-48.23 -89.95,-46.08 -92.27,-43.82 -94.5,-41.47 -96.78,-38.9 -99.06,-35.69" fill="none" stroke="rgb(204, 204, 255)" stroke-width="2" stroke-linejoin="round" filter="url(#fuzzy)" />
    </g>
    
        <g id="pointNose">
          <g id="rightNose"><circle r="1.04" cx="11.448" cy="2.1719999999999997" stroke="black" fill="none" stroke-width="1.0" filter="url(#fuzzy)" /><circle r="1.8279999999999998" cx="13.352" cy="1.916" stroke="black" fill="none" stroke-width="1.0" filter="url(#fuzzy)" /><circle r="2.404" cx="10.040000000000001" cy="1.7999999999999998" stroke="black" fill="none" stroke-width="1.0" filter="url(#fuzzy)" /><circle r="1.738" cx="11.416" cy="0.6000000000000001" stroke="black" fill="none" stroke-width="1.0" filter="url(#fuzzy)" /><circle r="1.114" cx="10.252" cy="1.6280000000000001" stroke="black" fill="none" stroke-width="1.0" filter="url(#fuzzy)" /><circle r="2.162" cx="10.976" cy="0.6600000000000001" stroke="black" fill="none" stroke-width="1.0" filter="url(#fuzzy)" /><circle r="1.83" cx="10.152000000000001" cy="0.6640000000000001" stroke="black" fill="none" stroke-width="1.0" filter="url(#fuzzy)" /><circle r="2.338" cx="13.244" cy="0.7120000000000002" stroke="black" fill="none" stroke-width="1.0" filter="url(#fuzzy)" /><circle r="1.358" cx="12.4" cy="1.6519999999999997" stroke="black" fill="none" stroke-width="1.0" filter="url(#fuzzy)" /><circle r="1.8719999999999999" cx="10.58" cy="1.7559999999999998" stroke="black" fill="none" stroke-width="1.0" filter="url(#fuzzy)" /></g>
          <g id="leftNose"><circle r="1.288" cx="-8.154" cy="1.5899999999999999" stroke="black" fill="none" stroke-width="1.0" filter="url(#fuzzy)" /><circle r="2.498" cx="-8.466" cy="1.7219999999999995" stroke="black" fill="none" stroke-width="1.0" filter="url(#fuzzy)" /><circle r="2.29" cx="-10.374" cy="3.7300000000000004" stroke="black" fill="none" stroke-width="1.0" filter="url(#fuzzy)" /><circle r="1.6560000000000001" cx="-10.114" cy="2.25" stroke="black" fill="none" stroke-width="1.0" filter="url(#fuzzy)" /><circle r="1.314" cx="-9.126" cy="2.33" stroke="black" fill="none" stroke-width="1.0" filter="url(#fuzzy)" /><circle r="2.292" cx="-8.818" cy="4.302" stroke="black" fill="none" stroke-width="1.0" filter="url(#fuzzy)" /><circle r="2.9059999999999997" cx="-8.658" cy="2.734" stroke="black" fill="none" stroke-width="1.0" filter="url(#fuzzy)" /><circle r="1.8319999999999999" cx="-10.406" cy="3.2620000000000005" stroke="black" fill="none" stroke-width="1.0" filter="url(#fuzzy)" /><circle r="1.234" cx="-8.65" cy="3.6419999999999995" stroke="black" fill="none" stroke-width="1.0" filter="url(#fuzzy)" /><circle r="2.152" cx="-9.086" cy="4.353999999999999" stroke="black" fill="none" stroke-width="1.0" filter="url(#fuzzy)" /></g>
        </g>
      
    <g id="mouth">
      <polyline points="52.95,36.48 52.93,36.12 53.12,36.18 53.01,37.26 52.79,37.79 53.01,37.75 52.47,38.36 52.39,38.76 52.82,38.12 52.6,38.46 51.46,39.75 51.75,39.42 51.21,40.1 51.08,40.14 50.73,40.5 50.1,41.1 49.97,41.14 49.67,41.39 48.22,42.41 47.48,42.91 47.32,42.97 46.69,43.43 46.88,43.25 45,44.45 45.22,44.33 42.77,45.55 41.9,45.96 43.7,45.14 41.24,46.32 40.62,46.6 39.87,46.9 37.25,48.03 36.18,48.49 35.64,48.67 34.51,49.13 33.58,49.44 32.59,49.8 34.75,49.04 31.82,50.11 31.43,50.21 30.01,50.72 27.86,51.41 27.89,51.4 27.57,51.49 25.93,52 24.31,52.46 23.39,52.73 21.7,53.18 22.81,52.88 19.29,53.81 18.38,54.03 18.41,54.02 18.35,54.04 13.36,55.16 13.13,55.2 11.32,55.55 11.59,55.5 10.77,55.66 9.34,55.92 7.89,56.16 9.25,55.93 7.51,56.22 4.06,56.76 4.65,56.68 4.09,56.74 2.37,56.96 1.11,57.08 -1.34,57.34 -2.22,57.39 -1.16,57.33 -3.82,57.48 -3.56,57.53 -4.46,57.56 -5.98,57.56 -7.68,57.64 -6.63,57.57 -9.47,57.58 -10.15,57.59 -11.35,57.5 -11.77,57.44 -11.9,57.38 -12.56,57.37 -13.83,57.19 -12.72,57.31 -14.81,56.99 -14.92,57.01 -16.02,56.66 -15.3,56.99 -15.99,56.8 -16.75,56.54 -17.67,56.22 -17.28,56.29 -17.99,55.9 -18.19,55.94 -18.8,55.62 -18.82,55.52 -19.47,54.91 -19.47,54.62 -20,54.07 -19.83,54.58 -19.95,54.22 -20.15,53.59 -19.85,53.32 -20.05,53.26 -19.98,53.23 -19.99,52.37 -19.61,52.17 -19.62,51.79 -19.03,51.08 -18.92,50.68 -19.37,51.32 -18.64,50.32 -17.97,49.79 -18.02,49.88 -17.48,49.22 -17.19,49.13 -16.29,48.4 -16.11,48.26 -14.95,47.32 -15.71,47.89 -14.59,47.14 -14.02,46.75 -13.57,46.49 -11.77,45.53 -11.62,45.42 -9.51,44.36 -9.02,44.1 -8.06,43.62 -8.74,43.96 -6.37,42.85 -7.38,43.31 -3.99,41.89 -4.26,42 -4.99,42.32 -3.92,41.86 -0.45,40.52 -2.24,41.2 -1.67,40.97 1.16,39.97 1.6,39.82 2.52,39.49 2.69,39.41 5.87,38.4 5.34,38.57 6.31,38.29 7.84,37.81 8.02,37.77 11.46,36.81 13.15,36.37 13.27,36.34 14.85,35.95 15.05,35.9 14.89,35.94 15.68,35.75 16.91,35.47 20.73,34.66 22.68,34.28 21.31,34.54 24.33,33.98 25.06,33.85 24.13,34.01 26.81,33.58 28.38,33.34 30.52,33.05 29.1,33.25 32.33,32.84 32.91,32.79 35.04,32.58 35.52,32.57 35.83,32.51 34.88,32.59 37.89,32.42 37.62,32.43 38.56,32.39 40.43,32.32 40.64,32.34 42.94,32.35 43.17,32.37 43,32.35 43.98,32.49 44.54,32.51 44.81,32.53 47.09,32.78 46.84,32.69 47.03,32.74 48.11,32.9 48.82,33.16 48.93,33.06 49.72,33.31 50.1,33.59 50,33.54 51.05,33.92 51.43,34.2 51.39,34.14 52.43,35.01 51.98,34.67 52.24,34.9 52.57,34.92 52.8,35.35 53.14,36.04" fill="rgb(215,127,140)" stroke="black" stroke-width="3" stroke-linejoin="round" filter="url(#fuzzy)" />
    </g>
  </svg>