<svg viewBox="-100 -100 200 200" xmlns="http://www.w3.org/2000/svg" width="500" height="500" id="face-svg">
    <defs>
      <clipPath id="leftEyeClipPath">
        <polyline points="32.22,-3.05 31.77,-3.29 31.28,-3.54 30.76,-3.79 30.2,-4.04 29.6,-4.29 28.98,-4.55 28.32,-4.8 27.62,-5.05 26.9,-5.3 26.14,-5.54 25.36,-5.78 24.55,-6.02 23.71,-6.25 22.84,-6.47 21.95,-6.69 21.04,-7.01 20.09,-7.33 19.09,-7.63 18.06,-7.91 16.98,-8.18 15.87,-8.42 14.73,-8.65 13.56,-8.86 12.36,-9.05 11.14,-9.22 9.9,-9.37 8.64,-9.5 7.37,-9.62 6.09,-9.71 4.8,-9.78 3.51,-9.83 2.23,-9.86 0.94,-9.87 -0.34,-9.86 -1.61,-9.84 -2.86,-9.8 -4.1,-9.74 -5.32,-9.66 -6.52,-9.57 -7.7,-9.46 -8.85,-9.33 -9.97,-9.2 -11.06,-9.04 -12.12,-8.88 -13.15,-8.7 -14.14,-8.51 -15.09,-8.31 -16.01,-8.1 -16.89,-7.88 -17.72,-7.65 -18.52,-7.42 -19.28,-7.17 -20,-6.92 -20.67,-6.66 -21.31,-6.4 -21.9,-6.13 -22.46,-5.85 -22.98,-5.58 -23.46,-5.29 -23.9,-5.01 -24.31,-4.72 -24.69,-4.43 -25.03,-4.14 -25.35,-3.85 -25.63,-3.56 -25.89,-3.26 -26.12,-2.96 -26.32,-2.67 -26.49,-2.36 -26.63,-2.06 -26.75,-1.76 -26.84,-1.45 -26.91,-1.14 -26.95,-0.83 -26.96,-0.52 -26.96,-0.21 -26.93,0.1 -26.88,0.42 -26.81,0.73 -22.19,5.44 -21.6,5.71 -21,5.97 -20.39,6.23 -19.76,6.49 -19.13,6.74 -18.48,6.99 -17.82,7.23 -17.15,7.47 -16.47,7.71 -15.78,7.93 -15.09,8.15 -14.38,8.36 -13.66,8.57 -12.94,8.76 -12.2,8.95 -11.45,9.13 -10.69,9.31 -9.92,9.47 -9.14,9.63 -8.35,9.78 -7.55,9.91 -6.74,10.03 -5.92,10.13 -5.09,10.22 -4.26,10.29 -3.42,10.35 -2.58,10.39 -1.73,10.41 -0.88,10.42 -0.02,10.4 0.84,10.37 1.7,10.32 2.56,10.25 3.42,10.16 4.28,10.05 5.14,9.93 5.99,9.79 6.85,9.63 7.7,9.46 8.55,9.27 9.39,9.07 10.24,8.85 11.07,8.62 11.9,8.39 12.73,8.14 13.55,7.88 14.36,7.62 15.16,7.35 15.96,7.07 16.75,6.8 17.54,6.52 18.31,6.25 19.07,5.97 19.83,5.7 20.58,5.44 21.31,5.18 22.04,4.93 22.76,4.69 23.46,4.46 24.16,4.24 24.84,4.03 25.51,3.84 26.17,3.67 26.82,3.51 27.37,3.3 27.91,3.1 28.45,2.9 28.96,2.71 29.47,2.52 29.96,2.34 30.43,2.16 30.89,1.99 31.33,1.82 31.75,1.65 32.15,1.49 32.54,1.33 32.9,1.18 33.24,1.03 33.56,0.88" />
      </clipPath>
      <clipPath id="rightEyeClipPath">
        <polyline points="-33.85,-4.66 -33.5,-4.89 -33.12,-5.12 -32.7,-5.35 -32.25,-5.59 -31.76,-5.83 -31.23,-6.06 -30.67,-6.3 -30.08,-6.54 -29.45,-6.77 -28.78,-7 -28.09,-7.23 -27.36,-7.45 -26.6,-7.67 -25.81,-7.88 -24.99,-8.09 -24.21,-8.4 -23.38,-8.69 -22.5,-8.98 -21.57,-9.25 -20.58,-9.5 -19.55,-9.74 -18.47,-9.95 -17.35,-10.16 -16.2,-10.34 -15,-10.5 -13.78,-10.65 -12.53,-10.78 -11.25,-10.89 -9.96,-10.98 -8.64,-11.05 -7.32,-11.1 -5.98,-11.14 -4.64,-11.16 -3.3,-11.15 -1.96,-11.14 -0.62,-11.1 0.7,-11.05 2.01,-10.98 3.31,-10.89 4.59,-10.79 5.85,-10.68 7.08,-10.55 8.29,-10.41 9.47,-10.25 10.61,-10.08 11.73,-9.9 12.81,-9.71 13.85,-9.5 14.86,-9.29 15.82,-9.07 16.75,-8.83 17.64,-8.59 18.49,-8.34 19.29,-8.09 20.06,-7.83 20.78,-7.56 21.47,-7.28 22.11,-7 22.72,-6.72 23.29,-6.43 23.82,-6.13 24.32,-5.84 24.79,-5.54 25.22,-5.24 25.63,-4.93 26,-4.63 26.35,-4.32 26.67,-4 26.95,-3.68 27.21,-3.36 27.45,-3.04 27.65,-2.71 27.83,-2.38 27.99,-2.05 28.12,-1.71 28.23,-1.38 28.31,-1.03 28.38,-0.69 28.42,-0.35 24.75,5.6 24.24,5.95 23.71,6.29 23.17,6.63 22.62,6.97 22.05,7.3 21.47,7.63 20.88,7.95 20.28,8.27 19.66,8.58 19.03,8.88 18.39,9.17 17.74,9.45 17.08,9.72 16.4,9.97 15.71,10.22 15.01,10.46 14.29,10.7 13.55,10.92 12.8,11.12 12.04,11.31 11.26,11.49 10.47,11.64 9.66,11.78 8.85,11.9 8.01,11.99 7.17,12.07 6.32,12.12 5.45,12.14 4.58,12.14 3.69,12.12 2.8,12.07 1.89,12 0.98,11.9 0.07,11.77 -0.86,11.62 -1.79,11.45 -2.72,11.25 -3.65,11.03 -4.59,10.79 -5.53,10.53 -6.47,10.25 -7.41,9.95 -8.35,9.64 -9.28,9.31 -10.21,8.97 -11.14,8.61 -12.06,8.25 -12.98,7.88 -13.89,7.5 -14.79,7.12 -15.68,6.74 -16.56,6.36 -17.43,5.99 -18.29,5.62 -19.13,5.25 -19.96,4.9 -20.78,4.56 -21.58,4.23 -22.36,3.92 -23.13,3.62 -23.88,3.34 -24.61,3.09 -25.32,2.85 -26.01,2.64 -26.63,2.37 -27.25,2.1 -27.85,1.84 -28.43,1.59 -29,1.35 -29.55,1.11 -30.08,0.89 -30.59,0.67 -31.09,0.45 -31.57,0.25 -32.03,0.05 -32.46,-0.14 -32.88,-0.32 -33.27,-0.5 -33.64,-0.67" />
      </clipPath>
      <filter id="fuzzy">
        <feTurbulence id="turbulence" baseFrequency="0.05" numOctaves="3" type="noise" result="noise" />
        <feDisplacementMap in="SourceGraphic" in2="noise" scale="2" />
      </filter>
      <linearGradient id="rainbowGradient" x1="0%" y1="0%" x2="100%" y2="0%">
        <stop offset="0%" style="stop-color: [object Object]; stop-opacity: 1" />
        <stop offset="50%" style="stop-color: [object Object]; stop-opacity: 1" />
        <stop offset="100%" style="stop-color: [object Object]; stop-opacity: 1" />
      </linearGradient>
    </defs>
    <rect x="-100" y="-100" width="100%" height="100%" fill="rgb(112, 66, 20)" />
    <polyline id="faceContour" points="74.5,-0.17 74.45,1.79 74.26,2.93 74.28,5.41 74.3,6.34 74.35,5.95 74.13,7.43 73.92,10.06 73.88,9.66 73.63,14.16 73.62,13.44 73.62,14.54 73.41,16.39 73.06,16.64 72.66,20.27 72.69,20.36 72.55,20.58 71.58,24.02 71.51,25.6 71.19,26.3 71.19,25.72 70.64,27.89 70.05,29.63 69.51,31.76 69.85,31.32 69.4,31.97 68.76,34.13 68.13,36.05 68.02,36.81 66.64,39.53 65.75,41.71 65.18,42.67 64.67,43.55 65.19,42.82 63.28,47.23 64.09,45.19 62.86,48 61.21,50.38 61.68,49.64 61.71,49.52 60.55,51.83 59.12,54.1 58.08,55.42 57.46,56.58 57.34,56.42 56.29,57.84 54.51,60.48 54.81,59.7 54.76,60.52 52.91,62.55 52.02,63.53 53.19,62.34 51.31,64.34 49.82,66.06 49.32,66.57 47.09,68.55 47.56,68.38 47.06,68.67 44.01,71.68 43.31,72.27 43.73,71.85 41.43,73.74 41.39,73.94 41.15,74.04 40.14,74.95 38.86,75.67 38.07,76.63 37.54,76.87 34.84,78.41 35.49,78.32 33.67,79.44 32.81,79.93 30.57,80.84 30.41,80.91 29.52,81.65 27.01,82.72 28.96,81.74 26.68,82.6 24.9,83.56 23.99,84.15 23.09,84.6 21.61,84.76 21.41,85.11 20.18,85.4 19.32,85.85 18.77,85.76 16.35,86.49 15.2,87.09 14.77,86.96 13.1,87.39 12.63,87.62 10.97,87.87 10.55,88.09 8.98,88.1 6.1,88.41 7.82,88.42 6.32,88.65 3.81,88.82 2.19,88.83 0.7,88.96 -0.27,88.99 -1.62,88.76 -2.81,88.66 -3.76,88.87 -3.5,88.6 -5.62,88.66 -5.22,88.76 -7.95,88.34 -9.74,87.91 -12.22,87.58 -11.56,87.87 -11.21,87.72 -14.69,86.93 -15.2,86.82 -16.67,86.53 -17.1,86.4 -18.09,86.05 -20.74,85.37 -21.17,85.16 -21.19,85.24 -22.58,84.77 -24.95,83.65 -24.87,83.97 -26.11,83.31 -29.2,81.79 -30.06,81.39 -30.25,81.25 -28.99,81.67 -31.35,80.5 -34.18,79.04 -32.97,79.73 -35.21,78.18 -36.06,77.61 -37.45,76.9 -39.19,75.56 -38.89,75.56 -40.28,74.81 -39.53,75.19 -42.83,72.76 -42.64,73.02 -43.6,72.11 -45.78,70.12 -45.48,70.32 -47.91,68.26 -47.3,68.73 -48.24,67.79 -48.66,67.46 -51.34,64.63 -51.54,64.19 -51.67,63.84 -52.89,62.8 -53.84,61.57 -54.06,61.37 -54.28,60.67 -57.07,57.55 -57.12,57.34 -57.95,55.92 -58.15,55.51 -59.52,53.95 -59.59,53.65 -60.49,52.27 -60.3,52.64 -61.72,49.57 -62.11,48.9 -62.75,48.32 -63.79,46.03 -63.21,47.3 -65.48,42.95 -65.39,42.82 -65.1,43.11 -66.68,40.41 -67.51,37.76 -67.53,38.46 -68.05,36.23 -68.95,33.7 -68.5,35.31 -68.55,34.84 -70.13,30.63 -69.9,31.39 -70.41,29.71 -70.5,29.23 -71.48,24.99 -71.56,25.41 -71.83,23.83 -72.15,22.05 -72.56,21.44 -72.61,20.47 -73.17,16.15 -73.18,17.36 -73.76,14.59 -73.89,13.36 -73.68,13.74 -74.07,12.22 -73.96,10.64 -74.11,8.39 -74.5,7.65 -74.36,5.84 -74.39,2.82 -74.69,1.7 -74.5,0 -74.56,-0.62 -74.67,-1.13 -74.55,-0.87 -74.39,-4.77 -74.49,-6.64 -74.54,-7.22 -74.2,-9.01 -74.25,-10.65 -74.07,-11.52 -73.71,-12.52 -73.68,-13.68 -73.49,-14.16 -73.16,-18.36 -72.89,-19.76 -72.67,-18.94 -72.1,-21.88 -72.57,-21.73 -71.78,-23.39 -71.82,-24.46 -71.3,-26.45 -70.54,-28.52 -70.21,-29.77 -70.06,-30.36 -69.39,-32.78 -69.32,-32.2 -68.56,-34.34 -68.46,-35.24 -67.95,-36.48 -67.57,-37.19 -66.77,-39.65 -66.31,-40.15 -66.27,-40.57 -65.22,-43.07 -65.34,-42.94 -64.69,-44.07 -63.62,-46.41 -62.81,-48.3 -62.28,-49.23 -62.42,-48.17 -61.23,-51.05 -60.25,-52.09 -59.35,-53.64 -59.5,-53.61 -58.04,-55.95 -56.51,-57.8 -57.07,-57.22 -55.04,-60.17 -54.71,-60.18 -54.27,-60.9 -52.99,-62.51 -52.71,-62.75 -52.01,-63.89 -51.17,-64.49 -49.22,-66.8 -48.53,-67.47 -47.5,-68.25 -46.59,-69.37 -45.88,-69.87 -46.62,-69.04 -44.25,-71.65 -42.46,-72.63 -43.05,-72.53 -41.18,-73.96 -41.84,-73.45 -40.51,-74.6 -40.36,-74.59 -37.82,-76.43 -36.92,-77.4 -37.27,-76.96 -34.88,-78.58 -33.28,-79.41 -32.44,-79.74 -30.85,-80.75 -29.96,-81.37 -29,-81.47 -28.22,-82.03 -26.45,-83.04 -24.86,-83.6 -24.16,-83.96 -24.78,-83.76 -23.78,-84.4 -20.99,-85.18 -20.16,-85.37 -20.49,-85.04 -18.79,-85.96 -16.17,-86.76 -15.32,-86.75 -13.58,-87.09 -14.37,-86.94 -12.2,-87.71 -10.76,-87.94 -9.66,-88.07 -8.31,-88.08 -8.37,-88.23 -5.56,-88.57 -5.27,-88.31 -5.14,-88.57 -2.5,-88.68 -3.41,-88.71 -0.36,-88.68 0.2,-88.78 0.18,-88.66 0.89,-88.6 3.53,-88.8 4.85,-88.66 6.76,-88.14 6.68,-88.34 8.88,-88.21 9.88,-88.03 10.05,-87.96 10.01,-87.71 13,-87.2 14.13,-87.16 14.69,-86.73 15.57,-86.6 18.37,-85.77 18.34,-85.75 19.85,-85.56 21.13,-85 21.16,-84.97 23.33,-84.47 24.29,-83.96 26.55,-82.81 25.98,-83.04 27.44,-82.47 30.05,-80.89 29.61,-81.46 29.45,-81.5 32.67,-79.61 31.65,-80.14 31.82,-80.17 34.54,-78.7 36.06,-77.74 36.66,-77.5 37.32,-76.8 38.9,-75.56 39.87,-75 41.54,-73.65 41.25,-73.99 42.5,-73.06 44.33,-71.11 44.95,-70.73 44.2,-71.28 47.52,-68.51 46.85,-68.85 48.77,-67.05 50.19,-65.58 49.79,-65.68 51.29,-64.37 52.76,-62.58 52.14,-63.56 52.86,-62.79 54.07,-60.58 54.77,-60.26 55.5,-59.1 57.45,-56.21 57.43,-56.55 58.73,-54.77 58.31,-54.84 59.5,-52.78 61.31,-50.74 60.79,-51.5 62.28,-48.93 63.07,-47.48 62.43,-48.73 62.47,-48.06 63.97,-45.29 64.87,-43.67 64.83,-43.48 65.8,-41.15 66.08,-40.38 67.27,-38.39 67.19,-38.5 67.95,-36.1 68.7,-33.89 68.4,-34.58 69.41,-31.74 69.44,-31.72 69.51,-31.82 70.35,-28.68 70.39,-28.84 71.39,-24.6 71.8,-23.3 71.64,-23.42 72.4,-21.14 72.42,-20.2 72.34,-20.68 72.9,-18.44 72.89,-17.81 73.27,-15.78 73.41,-14.05 73.53,-13.34 74.19,-9.41 74.03,-8.27 74.35,-7.54 74.22,-7.78 74.59,-3.22 74.23,-4.27 74.51,-4.67 74.4,-2.94 74.5,-0.17 74.45,1.79" fill="rgb(160, 82, 45)" stroke="black" stroke-width="1.6666666666666665" stroke-linejoin="round" filter="url(#fuzzy)" />
    <g transform="translate(31.340000000000003 -27.44)">
      <polyline id="rightCountour" points="-33.85,-4.66 -33.5,-4.89 -33.12,-5.12 -32.7,-5.35 -32.25,-5.59 -31.76,-5.83 -31.23,-6.06 -30.67,-6.3 -30.08,-6.54 -29.45,-6.77 -28.78,-7 -28.09,-7.23 -27.36,-7.45 -26.6,-7.67 -25.81,-7.88 -24.99,-8.09 -24.21,-8.4 -23.38,-8.69 -22.5,-8.98 -21.57,-9.25 -20.58,-9.5 -19.55,-9.74 -18.47,-9.95 -17.35,-10.16 -16.2,-10.34 -15,-10.5 -13.78,-10.65 -12.53,-10.78 -11.25,-10.89 -9.96,-10.98 -8.64,-11.05 -7.32,-11.1 -5.98,-11.14 -4.64,-11.16 -3.3,-11.15 -1.96,-11.14 -0.62,-11.1 0.7,-11.05 2.01,-10.98 3.31,-10.89 4.59,-10.79 5.85,-10.68 7.08,-10.55 8.29,-10.41 9.47,-10.25 10.61,-10.08 11.73,-9.9 12.81,-9.71 13.85,-9.5 14.86,-9.29 15.82,-9.07 16.75,-8.83 17.64,-8.59 18.49,-8.34 19.29,-8.09 20.06,-7.83 20.78,-7.56 21.47,-7.28 22.11,-7 22.72,-6.72 23.29,-6.43 23.82,-6.13 24.32,-5.84 24.79,-5.54 25.22,-5.24 25.63,-4.93 26,-4.63 26.35,-4.32 26.67,-4 26.95,-3.68 27.21,-3.36 27.45,-3.04 27.65,-2.71 27.83,-2.38 27.99,-2.05 28.12,-1.71 28.23,-1.38 28.31,-1.03 28.38,-0.69 28.42,-0.35 24.75,5.6 24.24,5.95 23.71,6.29 23.17,6.63 22.62,6.97 22.05,7.3 21.47,7.63 20.88,7.95 20.28,8.27 19.66,8.58 19.03,8.88 18.39,9.17 17.74,9.45 17.08,9.72 16.4,9.97 15.71,10.22 15.01,10.46 14.29,10.7 13.55,10.92 12.8,11.12 12.04,11.31 11.26,11.49 10.47,11.64 9.66,11.78 8.85,11.9 8.01,11.99 7.17,12.07 6.32,12.12 5.45,12.14 4.58,12.14 3.69,12.12 2.8,12.07 1.89,12 0.98,11.9 0.07,11.77 -0.86,11.62 -1.79,11.45 -2.72,11.25 -3.65,11.03 -4.59,10.79 -5.53,10.53 -6.47,10.25 -7.41,9.95 -8.35,9.64 -9.28,9.31 -10.21,8.97 -11.14,8.61 -12.06,8.25 -12.98,7.88 -13.89,7.5 -14.79,7.12 -15.68,6.74 -16.56,6.36 -17.43,5.99 -18.29,5.62 -19.13,5.25 -19.96,4.9 -20.78,4.56 -21.58,4.23 -22.36,3.92 -23.13,3.62 -23.88,3.34 -24.61,3.09 -25.32,2.85 -26.01,2.64 -26.63,2.37 -27.25,2.1 -27.85,1.84 -28.43,1.59 -29,1.35 -29.55,1.11 -30.08,0.89 -30.59,0.67 -31.09,0.45 -31.57,0.25 -32.03,0.05 -32.46,-0.14 -32.88,-0.32 -33.27,-0.5 -33.64,-0.67" fill="white" stroke="white" stroke-width="0" stroke-linejoin="round" filter="url(#fuzzy)" />
    </g>
    <g transform="translate(-32.61 -29.380000000000003)">
      <polyline id="leftCountour" points="32.22,-3.05 31.77,-3.29 31.28,-3.54 30.76,-3.79 30.2,-4.04 29.6,-4.29 28.98,-4.55 28.32,-4.8 27.62,-5.05 26.9,-5.3 26.14,-5.54 25.36,-5.78 24.55,-6.02 23.71,-6.25 22.84,-6.47 21.95,-6.69 21.04,-7.01 20.09,-7.33 19.09,-7.63 18.06,-7.91 16.98,-8.18 15.87,-8.42 14.73,-8.65 13.56,-8.86 12.36,-9.05 11.14,-9.22 9.9,-9.37 8.64,-9.5 7.37,-9.62 6.09,-9.71 4.8,-9.78 3.51,-9.83 2.23,-9.86 0.94,-9.87 -0.34,-9.86 -1.61,-9.84 -2.86,-9.8 -4.1,-9.74 -5.32,-9.66 -6.52,-9.57 -7.7,-9.46 -8.85,-9.33 -9.97,-9.2 -11.06,-9.04 -12.12,-8.88 -13.15,-8.7 -14.14,-8.51 -15.09,-8.31 -16.01,-8.1 -16.89,-7.88 -17.72,-7.65 -18.52,-7.42 -19.28,-7.17 -20,-6.92 -20.67,-6.66 -21.31,-6.4 -21.9,-6.13 -22.46,-5.85 -22.98,-5.58 -23.46,-5.29 -23.9,-5.01 -24.31,-4.72 -24.69,-4.43 -25.03,-4.14 -25.35,-3.85 -25.63,-3.56 -25.89,-3.26 -26.12,-2.96 -26.32,-2.67 -26.49,-2.36 -26.63,-2.06 -26.75,-1.76 -26.84,-1.45 -26.91,-1.14 -26.95,-0.83 -26.96,-0.52 -26.96,-0.21 -26.93,0.1 -26.88,0.42 -26.81,0.73 -22.19,5.44 -21.6,5.71 -21,5.97 -20.39,6.23 -19.76,6.49 -19.13,6.74 -18.48,6.99 -17.82,7.23 -17.15,7.47 -16.47,7.71 -15.78,7.93 -15.09,8.15 -14.38,8.36 -13.66,8.57 -12.94,8.76 -12.2,8.95 -11.45,9.13 -10.69,9.31 -9.92,9.47 -9.14,9.63 -8.35,9.78 -7.55,9.91 -6.74,10.03 -5.92,10.13 -5.09,10.22 -4.26,10.29 -3.42,10.35 -2.58,10.39 -1.73,10.41 -0.88,10.42 -0.02,10.4 0.84,10.37 1.7,10.32 2.56,10.25 3.42,10.16 4.28,10.05 5.14,9.93 5.99,9.79 6.85,9.63 7.7,9.46 8.55,9.27 9.39,9.07 10.24,8.85 11.07,8.62 11.9,8.39 12.73,8.14 13.55,7.88 14.36,7.62 15.16,7.35 15.96,7.07 16.75,6.8 17.54,6.52 18.31,6.25 19.07,5.97 19.83,5.7 20.58,5.44 21.31,5.18 22.04,4.93 22.76,4.69 23.46,4.46 24.16,4.24 24.84,4.03 25.51,3.84 26.17,3.67 26.82,3.51 27.37,3.3 27.91,3.1 28.45,2.9 28.96,2.71 29.47,2.52 29.96,2.34 30.43,2.16 30.89,1.99 31.33,1.82 31.75,1.65 32.15,1.49 32.54,1.33 32.9,1.18 33.24,1.03 33.56,0.88" fill="white" stroke="white" stroke-width="0" stroke-linejoin="round" filter="url(#fuzzy)" />
    </g>
    <g transform="translate(31.340000000000003 -27.44)">
      <polyline id="rightUpper" points="-35.44,-2.98 -35.42,-3.08 -35.38,-3.2 -35.3,-3.33 -35.19,-3.49 -35.06,-3.65 -34.88,-3.84 -34.68,-4.03 -34.44,-4.23 -34.16,-4.44 -33.85,-4.66 -33.5,-4.89 -33.12,-5.12 -32.7,-5.35 -32.25,-5.59 -31.76,-5.83 -31.23,-6.06 -30.67,-6.3 -30.08,-6.54 -29.45,-6.77 -28.78,-7 -28.09,-7.23 -27.36,-7.45 -26.6,-7.67 -25.81,-7.88 -24.99,-8.09 -24.21,-8.4 -23.38,-8.69 -22.5,-8.98 -21.57,-9.25 -20.58,-9.5 -19.55,-9.74 -18.47,-9.95 -17.35,-10.16 -16.2,-10.34 -15,-10.5 -13.78,-10.65 -12.53,-10.78 -11.25,-10.89 -9.96,-10.98 -8.64,-11.05 -7.32,-11.1 -5.98,-11.14 -4.64,-11.16 -3.3,-11.15 -1.96,-11.14 -0.62,-11.1 0.7,-11.05 2.01,-10.98 3.31,-10.89 4.59,-10.79 5.85,-10.68 7.08,-10.55 8.29,-10.41 9.47,-10.25 10.61,-10.08 11.73,-9.9 12.81,-9.71 13.85,-9.5 14.86,-9.29 15.82,-9.07 16.75,-8.83 17.64,-8.59 18.49,-8.34 19.29,-8.09 20.06,-7.83 20.78,-7.56 21.47,-7.28 22.11,-7 22.72,-6.72 23.29,-6.43 23.82,-6.13 24.32,-5.84 24.79,-5.54 25.22,-5.24 25.63,-4.93 26,-4.63 26.35,-4.32 26.67,-4 26.95,-3.68 27.21,-3.36 27.45,-3.04 27.65,-2.71 27.83,-2.38 27.99,-2.05 28.12,-1.71 28.23,-1.38 28.31,-1.03 28.38,-0.69 28.42,-0.35 28.44,0 28.45,0.35 28.44,0.7 28.4,1.05 28.36,1.41 28.29,1.77 28.21,2.13 28.12,2.49 28.01,2.85 27.89,3.21" fill="none" stroke="black" stroke-width="1.6666666666666665" stroke-linejoin="round" filter="url(#fuzzy)" />
      <polyline id="rightLower" points="-35.89,-2.3 -35.8,-2.12 -35.67,-1.95 -35.52,-1.79 -35.33,-1.63 -35.11,-1.47 -34.87,-1.32 -34.6,-1.16 -34.31,-1 -33.99,-0.84 -33.64,-0.67 -33.27,-0.5 -32.88,-0.32 -32.46,-0.14 -32.03,0.05 -31.57,0.25 -31.09,0.45 -30.59,0.67 -30.08,0.89 -29.55,1.11 -29,1.35 -28.43,1.59 -27.85,1.84 -27.25,2.1 -26.63,2.37 -26.01,2.64 -25.32,2.85 -24.61,3.09 -23.88,3.34 -23.13,3.62 -22.36,3.92 -21.58,4.23 -20.78,4.56 -19.96,4.9 -19.13,5.25 -18.29,5.62 -17.43,5.99 -16.56,6.36 -15.68,6.74 -14.79,7.12 -13.89,7.5 -12.98,7.88 -12.06,8.25 -11.14,8.61 -10.21,8.97 -9.28,9.31 -8.35,9.64 -7.41,9.95 -6.47,10.25 -5.53,10.53 -4.59,10.79 -3.65,11.03 -2.72,11.25 -1.79,11.45 -0.86,11.62 0.07,11.77 0.98,11.9 1.89,12 2.8,12.07 3.69,12.12 4.58,12.14 5.45,12.14 6.32,12.12 7.17,12.07 8.01,11.99 8.85,11.9 9.66,11.78 10.47,11.64 11.26,11.49 12.04,11.31 12.8,11.12 13.55,10.92 14.29,10.7 15.01,10.46 15.71,10.22 16.4,9.97 17.08,9.72 17.74,9.45 18.39,9.17 19.03,8.88 19.66,8.58 20.28,8.27 20.88,7.95 21.47,7.63 22.05,7.3 22.62,6.97 23.17,6.63 23.71,6.29 24.24,5.95 24.75,5.6 25.26,5.26 25.75,4.91 26.23,4.56 26.69,4.21 27.15,3.87 27.59,3.52 28.02,3.17 28.44,2.83 28.85,2.49 29.25,2.15" fill="none" stroke="black" stroke-width="2.2222222222222223" stroke-linejoin="round" filter="url(#fuzzy)" />
      <circle r="3.46" cx="-33.505688370899634" cy="-2.4561416816978903" stroke="black" fill="none" stroke-width="1.0" filter="url(#fuzzy)" clip-path="url(#rightEyeClipPath)" /><circle r="3.64" cx="-33.02568837089963" cy="-3.6461416816978907" stroke="black" fill="none" stroke-width="1.0" filter="url(#fuzzy)" clip-path="url(#rightEyeClipPath)" /><circle r="3.15" cx="-34.96068837089963" cy="-1.6211416816978907" stroke="black" fill="none" stroke-width="1.0" filter="url(#fuzzy)" clip-path="url(#rightEyeClipPath)" /><circle r="3.718" cx="-34.310688370899626" cy="-1.6561416816978909" stroke="black" fill="none" stroke-width="1.0" filter="url(#fuzzy)" clip-path="url(#rightEyeClipPath)" /><circle r="3.858" cx="-31.12568837089963" cy="-0.3161416816978906" stroke="black" fill="none" stroke-width="1.0" filter="url(#fuzzy)" clip-path="url(#rightEyeClipPath)" /><circle r="4.384" cx="-32.895688370899634" cy="-2.316141681697891" stroke="black" fill="none" stroke-width="1.0" filter="url(#fuzzy)" clip-path="url(#rightEyeClipPath)" /><circle r="3.202" cx="-31.16568837089963" cy="-1.3511416816978907" stroke="black" fill="none" stroke-width="1.0" filter="url(#fuzzy)" clip-path="url(#rightEyeClipPath)" /><circle r="4.3919999999999995" cx="-32.770688370899634" cy="-0.7211416816978908" stroke="black" fill="none" stroke-width="1.0" filter="url(#fuzzy)" clip-path="url(#rightEyeClipPath)" /><circle r="4.954" cx="-33.50068837089963" cy="-2.3911416816978903" stroke="black" fill="none" stroke-width="1.0" filter="url(#fuzzy)" clip-path="url(#rightEyeClipPath)" /><circle r="4.1" cx="-32.280688370899625" cy="-3.7911416816978907" stroke="black" fill="none" stroke-width="1.0" filter="url(#fuzzy)" clip-path="url(#rightEyeClipPath)" />
      </g>
    <g transform="translate(-32.61 -29.380000000000003)">
      <polyline id="leftUpper" points="34.57,-1.23 34.52,-1.33 34.42,-1.46 34.28,-1.61 34.11,-1.78 33.89,-1.96 33.63,-2.16 33.34,-2.37 33,-2.59 32.63,-2.81 32.22,-3.05 31.77,-3.29 31.28,-3.54 30.76,-3.79 30.2,-4.04 29.6,-4.29 28.98,-4.55 28.32,-4.8 27.62,-5.05 26.9,-5.3 26.14,-5.54 25.36,-5.78 24.55,-6.02 23.71,-6.25 22.84,-6.47 21.95,-6.69 21.04,-7.01 20.09,-7.33 19.09,-7.63 18.06,-7.91 16.98,-8.18 15.87,-8.42 14.73,-8.65 13.56,-8.86 12.36,-9.05 11.14,-9.22 9.9,-9.37 8.64,-9.5 7.37,-9.62 6.09,-9.71 4.8,-9.78 3.51,-9.83 2.23,-9.86 0.94,-9.87 -0.34,-9.86 -1.61,-9.84 -2.86,-9.8 -4.1,-9.74 -5.32,-9.66 -6.52,-9.57 -7.7,-9.46 -8.85,-9.33 -9.97,-9.2 -11.06,-9.04 -12.12,-8.88 -13.15,-8.7 -14.14,-8.51 -15.09,-8.31 -16.01,-8.1 -16.89,-7.88 -17.72,-7.65 -18.52,-7.42 -19.28,-7.17 -20,-6.92 -20.67,-6.66 -21.31,-6.4 -21.9,-6.13 -22.46,-5.85 -22.98,-5.58 -23.46,-5.29 -23.9,-5.01 -24.31,-4.72 -24.69,-4.43 -25.03,-4.14 -25.35,-3.85 -25.63,-3.56 -25.89,-3.26 -26.12,-2.96 -26.32,-2.67 -26.49,-2.36 -26.63,-2.06 -26.75,-1.76 -26.84,-1.45 -26.91,-1.14 -26.95,-0.83 -26.96,-0.52 -26.96,-0.21 -26.93,0.1 -26.88,0.42 -26.81,0.73 -26.72,1.05 -26.61,1.36 -26.48,1.68 -26.33,2 -26.17,2.31 -25.99,2.63 -25.8,2.95 -25.59,3.27 -25.36,3.59 -25.12,3.91" fill="none" stroke="black" stroke-width="2.2222222222222223" stroke-linejoin="round" filter="url(#fuzzy)" />
      <polyline id="leftLower" points="35.19,-0.66 35.17,-0.49 35.12,-0.33 35.03,-0.17 34.91,-0.01 34.76,0.14 34.58,0.29 34.36,0.44 34.12,0.58 33.85,0.73 33.56,0.88 33.24,1.03 32.9,1.18 32.54,1.33 32.15,1.49 31.75,1.65 31.33,1.82 30.89,1.99 30.43,2.16 29.96,2.34 29.47,2.52 28.96,2.71 28.45,2.9 27.91,3.1 27.37,3.3 26.82,3.51 26.17,3.67 25.51,3.84 24.84,4.03 24.16,4.24 23.46,4.46 22.76,4.69 22.04,4.93 21.31,5.18 20.58,5.44 19.83,5.7 19.07,5.97 18.31,6.25 17.54,6.52 16.75,6.8 15.96,7.07 15.16,7.35 14.36,7.62 13.55,7.88 12.73,8.14 11.9,8.39 11.07,8.62 10.24,8.85 9.39,9.07 8.55,9.27 7.7,9.46 6.85,9.63 5.99,9.79 5.14,9.93 4.28,10.05 3.42,10.16 2.56,10.25 1.7,10.32 0.84,10.37 -0.02,10.4 -0.88,10.42 -1.73,10.41 -2.58,10.39 -3.42,10.35 -4.26,10.29 -5.09,10.22 -5.92,10.13 -6.74,10.03 -7.55,9.91 -8.35,9.78 -9.14,9.63 -9.92,9.47 -10.69,9.31 -11.45,9.13 -12.2,8.95 -12.94,8.76 -13.66,8.57 -14.38,8.36 -15.09,8.15 -15.78,7.93 -16.47,7.71 -17.15,7.47 -17.82,7.23 -18.48,6.99 -19.13,6.74 -19.76,6.49 -20.39,6.23 -21,5.97 -21.6,5.71 -22.19,5.44 -22.77,5.18 -23.34,4.91 -23.9,4.65 -24.44,4.38 -24.97,4.11 -25.49,3.84 -25.99,3.58 -26.49,3.31 -26.97,3.05 -27.45,2.78" fill="none" stroke="black" stroke-width="2.2222222222222223" stroke-linejoin="round" filter="url(#fuzzy)" />
      <circle r="4.016" cx="7.034427043563925" cy="-1.09829160173196" stroke="black" fill="none" stroke-width="1.0" filter="url(#fuzzy)" clip-path="url(#leftEyeClipPath)" /><circle r="4.482" cx="4.334427043563926" cy="0.7067083982680398" stroke="black" fill="none" stroke-width="1.0" filter="url(#fuzzy)" clip-path="url(#leftEyeClipPath)" /><circle r="3.066" cx="7.319427043563925" cy="1.61170839826804" stroke="black" fill="none" stroke-width="1.0" filter="url(#fuzzy)" clip-path="url(#leftEyeClipPath)" /><circle r="4.3580000000000005" cx="3.8494270435639253" cy="0.57170839826804" stroke="black" fill="none" stroke-width="1.0" filter="url(#fuzzy)" clip-path="url(#leftEyeClipPath)" /><circle r="4.0920000000000005" cx="8.094427043563925" cy="1.4517083982680399" stroke="black" fill="none" stroke-width="1.0" filter="url(#fuzzy)" clip-path="url(#leftEyeClipPath)" /><circle r="3.576" cx="3.899427043563925" cy="-0.2532916017319602" stroke="black" fill="none" stroke-width="1.0" filter="url(#fuzzy)" clip-path="url(#leftEyeClipPath)" /><circle r="3.79" cx="5.659427043563925" cy="-0.17829160173196001" stroke="black" fill="none" stroke-width="1.0" filter="url(#fuzzy)" clip-path="url(#leftEyeClipPath)" /><circle r="4.208" cx="5.354427043563925" cy="2.0117083982680395" stroke="black" fill="none" stroke-width="1.0" filter="url(#fuzzy)" clip-path="url(#leftEyeClipPath)" /><circle r="4.292" cx="5.604427043563925" cy="-1.63829160173196" stroke="black" fill="none" stroke-width="1.0" filter="url(#fuzzy)" clip-path="url(#leftEyeClipPath)" /><circle r="4.798" cx="8.119427043563926" cy="1.11170839826804" stroke="black" fill="none" stroke-width="1.0" filter="url(#fuzzy)" clip-path="url(#leftEyeClipPath)" />
    </g>
    <g id="hairs">
      <polyline points="-9.66,-88.07 -5,-83.79 7.57,-74.31 21.9,-66.15 29.46,-61.21 29.71,-59.26 25.34,-59.7 18.63,-61.71 11.69,-64.04 7.54,-65.29 9.32,-64.49 17.92,-61.65 30.37,-57.94 40.92,-55.2 44.6,-54.98 40.88,-57.67 35.45,-62.01 37.42,-66.16 37.32,-76.8" fill="none" stroke="rgb(149, 69, 53)" stroke-width="2" stroke-linejoin="round" filter="url(#fuzzy)" /><polyline points="15.57,-86.6 33.14,-68.93 29,-72.19 21.49,-76.39 12.3,-78.42 3.62,-79.09 -2.33,-79.45 -5.06,-79.73 -5.28,-79.55 -3.72,-78.52 -0.47,-76.59 4.46,-74.18 10.43,-71.85 16.03,-70.14 19.81,-69.3 21.34,-69.32 21.63,-70 22.57,-71.05 25.51,-72.18 30.02,-73.22 33.44,-74.47 31.98,-77.13 23.72,-82.28 14.69,-86.73" fill="none" stroke="rgb(149, 69, 53)" stroke-width="2" stroke-linejoin="round" filter="url(#fuzzy)" /><polyline points="67.95,-36.1 66.7,-38.62 62.48,-42.57 51.06,-49.55 34.12,-57.51 17.95,-64.13 8.12,-68.24 5.85,-69.95 8.41,-70.19 12.03,-70.04 14.49,-70.1 15.64,-70.27 16.25,-69.95 16.58,-68.6 16.2,-66.24 15,-63.51 14.12,-61.4 15.23,-60.93 18.45,-62.92 20.84,-67.69 18.04,-74.26 7.58,-79.31 -12.76,-77.67 -52.71,-62.75" fill="none" stroke="rgb(149, 69, 53)" stroke-width="2" stroke-linejoin="round" filter="url(#fuzzy)" /><polyline points="44.2,-71.28 25.39,-73.21 17.56,-71.49 19.43,-72.01 21.18,-74.48 21.81,-75.71 24.37,-73.37 30,-67.82 36.02,-61.7 38.28,-58.04 34.77,-58.12 27.7,-60.82 22.38,-63.58 24.86,-63.45 41.4,-55.69 69.44,-31.72" fill="none" stroke="rgb(149, 69, 53)" stroke-width="2" stroke-linejoin="round" filter="url(#fuzzy)" /><polyline points="64.87,-43.67 -1.09,-58.28 -11.53,-68.82 -3.75,-71.59 8.5,-69.77 18.82,-66.64 24.46,-64.19 24.31,-63.3 18.71,-64.03 9.89,-65.87 1.59,-67.94 -2.56,-69.37 -0.74,-69.59 6.21,-68.6 15.44,-67 23.53,-65.72 28.01,-65.51 28.08,-66.37 24.06,-67.56 16.57,-68.22 6.36,-67.91 -8.25,-65.7 -57.07,-57.22" fill="none" stroke="rgb(149, 69, 53)" stroke-width="2" stroke-linejoin="round" filter="url(#fuzzy)" /><polyline points="-9.66,-88.07 -10.25,-72.22 3.28,-62.43 13.99,-57.7 18.94,-57.13 14.91,-60.18 3.1,-65.08 -10.95,-69.6 -21.3,-72.32 -24.27,-72.9 -18.58,-71.61 -4.41,-69.23 16,-66.8 36.3,-65.17 46.59,-65.44 37.32,-76.8" fill="none" stroke="rgb(149, 69, 53)" stroke-width="2" stroke-linejoin="round" filter="url(#fuzzy)" /><polyline points="-59.35,-53.64 7.79,-61.89 25.72,-61.76 20.59,-63 10.29,-67.34 3.98,-72.18 3.51,-75.25 7.28,-75.92 12.84,-74.77 17.85,-72.85 20.66,-71.19 20.78,-70.45 18.94,-70.94 16.4,-72.57 13.94,-75.03 11.33,-77.82 7.6,-80.27 1.94,-81.67 -5.47,-81.56 -12.98,-80.01 -17.43,-77.96 -15.09,-77.09 -4.47,-78.79 11.13,-81.52 36.06,-77.74" fill="none" stroke="rgb(149, 69, 53)" stroke-width="2" stroke-linejoin="round" filter="url(#fuzzy)" /><polyline points="67.19,-38.5 4.06,-60.76 -8.81,-75.09 -11.04,-82.17 -10.5,-84.89 -7.44,-85.17 -2.23,-83.8 3.42,-81.24 7.43,-78.09 8.59,-75 6.85,-72.5 2.83,-70.87 -2.4,-70.17 -7.17,-70.28 -8.79,-70.73 -4.32,-70.71 7.37,-69.24 23.53,-65.84 37.63,-61.37 43.29,-58.41 43,-57.54 67.19,-38.5" fill="none" stroke="rgb(149, 69, 53)" stroke-width="2" stroke-linejoin="round" filter="url(#fuzzy)" /><polyline points="-47.5,-68.25 -25.31,-75.3 -2.35,-77.21 12.79,-74.72 20.42,-70.84 21.97,-67.95 19.16,-67.05 13.96,-67.97 8.39,-69.85 4.1,-71.76 1.87,-73.03 1.62,-73.44 2.74,-73.02 4.82,-71.96 8.02,-70.43 13.02,-68.63 20.15,-66.88 28.26,-65.66 34.48,-65.65 35.26,-67.47 28.9,-71.11 19.13,-74.33 20.46,-69.92 64.87,-43.67" fill="none" stroke="rgb(149, 69, 53)" stroke-width="2" stroke-linejoin="round" filter="url(#fuzzy)" /><polyline points="31.65,-80.14 4.62,-78.29 1.6,-69.62 3.52,-65.84 2.51,-67.41 1.02,-71.32 1.19,-74.94 2.41,-76.79 3.75,-76.49 5.51,-74.65 8.42,-72.56 11.94,-71.6 14.11,-72.54 13.4,-75.14 10.63,-78.22 8.23,-80.31 6.49,-80.42 0.85,-78.94 -11.49,-78.87 -5.27,-88.31" fill="none" stroke="rgb(149, 69, 53)" stroke-width="2" stroke-linejoin="round" filter="url(#fuzzy)" /><polyline points="67.19,-38.5 44.57,-55.9 46.93,-53.14 45.08,-54.98 38.6,-61.23 32.49,-67.54 29.04,-71.68 27.53,-73.65 25.95,-74.25 22.42,-74.21 16.19,-73.99 8.12,-73.82 0.49,-73.86 -4.12,-74.18 -4.22,-74.65 -0.25,-74.8 6.08,-73.83 13.3,-70.91 20.99,-65.83 28.29,-59.6 30.66,-54.87 19.37,-55.59 -8.59,-65.88 -20.49,-85.04" fill="none" stroke="rgb(149, 69, 53)" stroke-width="2" stroke-linejoin="round" filter="url(#fuzzy)" /><polyline points="0.2,-88.78 0.59,-89.82 1.7,-91.47 3.16,-92.75 4.63,-93.31 5.98,-93.2 7.18,-92.7 8.28,-92.15 9.32,-91.73 10.36,-91.54 11.45,-91.6 12.65,-91.9 13.95,-92.42 15.33,-93.1 16.77,-93.82 18.21,-94.45 19.62,-94.93 21.01,-95.34 22.38,-95.83 23.77,-96.48 25.17,-97.04 26.65,-97.23 28.3,-97.83" fill="none" stroke="rgb(149, 69, 53)" stroke-width="2" stroke-linejoin="round" filter="url(#fuzzy)" /><polyline points="-0.36,-88.68 0.07,-88.86 0.71,-89.21 1.73,-89.41 3,-89.38 4.34,-89.25 5.64,-89.12 6.85,-89.06 7.96,-89.06 9.01,-89.1 10.04,-89.14 11.08,-89.15 12.17,-89.14 13.34,-89.11 14.55,-89.08 15.79,-89.01 17.03,-88.9 18.27,-88.78 19.48,-88.68 20.62,-88.62 21.69,-88.52 22.76,-88.33 24.35,-88.17" fill="none" stroke="rgb(149, 69, 53)" stroke-width="2" stroke-linejoin="round" filter="url(#fuzzy)" /><polyline points="-2.5,-88.68 -4.29,-89.54 -5.43,-90.79 -6.54,-92.13 -7.72,-93.39 -8.93,-94.31 -10.14,-94.73 -11.34,-94.74 -12.55,-94.58 -13.78,-94.53 -15.06,-94.79 -16.47,-95.54 -18.11,-96.92 -19.99,-98.9 -21.98,-101.16 -23.82,-103.1 -25.37,-104.29 -27.01,-104.96 -29.67,-105.3 -5.27,-88.31 -4.58,-88.69 -3.56,-89.83 -2.51,-91.98 -1.49,-94.56 -0.48,-96.68 0.57,-97.94 1.73,-98.51 3.05,-98.84 4.48,-99.28 5.97,-99.95 7.43,-100.87 8.83,-102.04 10.14,-103.49 11.33,-105.17 12.48,-107.07 13.89,-109.09 16.58,-111.23" fill="none" stroke="rgb(149, 69, 53)" stroke-width="2" stroke-linejoin="round" filter="url(#fuzzy)" /><polyline points="-5.56,-88.57 -7.42,-88.52 -8.64,-88.92 -9.89,-90.1 -11.31,-91.91 -12.8,-93.92 -14.32,-95.9 -15.86,-97.76 -17.44,-99.4 -19.05,-100.61 -20.61,-101.18 -22.08,-101.12 -23.49,-100.78 -24.93,-100.7 -26.5,-101.28 -28.15,-102.49 -29.67,-103.86 -30.9,-104.97 -32.16,-105.99 -34.04,-106.87 -5.56,-88.57 -7.57,-89.87 -8.97,-91.85 -10.17,-92.75 -11.29,-92.34 -12.39,-91.49 -13.56,-91.02 -14.87,-91.32 -16.35,-92.32 -17.97,-93.75 -19.67,-95.3 -21.38,-96.75 -23.05,-97.97 -24.63,-98.93 -26.11,-99.59 -27.46,-99.92 -28.67,-99.92 -29.82,-99.66 -30.99,-99.29 -32.29,-99.01 -33.77,-98.99 -35.42,-99.39 -37.27,-100.34 -39.34,-101.66 -41.13,-101.09 -5.56,-88.57 -5.22,-89.07 -4.54,-89.98 -3.66,-91.39 -2.68,-92.55 -1.66,-93.17 -0.63,-93.59 0.45,-94.42 1.64,-95.98 2.99,-98.15 4.49,-100.48 6.04,-102.51 7.56,-103.98 9,-104.95 10.37,-105.73 11.61,-106.81 12.41,-108.55" fill="none" stroke="rgb(149, 69, 53)" stroke-width="2" stroke-linejoin="round" filter="url(#fuzzy)" /><polyline points="-5.56,-88.57 -7.19,-86.15 -8.34,-86.14 -9.4,-86.15 -10.45,-85.8 -11.49,-85.17 -12.47,-84.39 -13.44,-83.61 -14.45,-82.96 -15.54,-82.47 -16.69,-82.1 -17.84,-81.74 -18.9,-81.24 -19.85,-80.51 -20.67,-79.47 -21.35,-78.18 -21.86,-76.79 -22.23,-75.62 -22.74,-75 -23.88,-74.98" fill="none" stroke="rgb(149, 69, 53)" stroke-width="2" stroke-linejoin="round" filter="url(#fuzzy)" /><polyline points="-8.37,-88.23 -6.49,-88.16 -5.4,-88.05 -4.47,-88.1 -3.51,-88.17 -2.52,-88.15 -1.52,-88.02 -0.53,-87.78 0.49,-87.47 1.57,-87.14 2.71,-86.82 3.91,-86.53 5.11,-86.26 6.27,-85.99 7.34,-85.71 8.34,-85.41 9.28,-85.08 10.2,-84.72 11.16,-84.28 12.17,-83.7 13.2,-82.99 14.24,-82.24 15.44,-81.6 17.36,-81.07 -8.37,-88.23 -6.41,-86.78 -5.27,-85.2 -4.32,-84.2 -3.38,-83.65 -2.42,-83.42 -1.47,-83.39 -0.52,-83.47 0.45,-83.54 1.47,-83.47 2.54,-83.1 3.65,-82.43 4.76,-81.6 5.84,-80.84 6.86,-80.33 7.8,-80.06 8.67,-79.85 9.49,-79.4 10.3,-78.47 11.12,-77.04 11.91,-75.38 12.58,-74 13.07,-72.69 -8.31,-88.08 -9.46,-87.27 -10.61,-86.46 -11.76,-85.97 -12.82,-85.53 -13.82,-84.92 -14.81,-84.15 -15.83,-83.27 -16.89,-82.38 -17.93,-81.52 -18.93,-80.71 -19.88,-79.97 -20.77,-79.3 -21.61,-78.66 -22.39,-78.01 -23.13,-77.33 -23.88,-76.58 -24.67,-75.76 -25.49,-74.86 -26.27,-73.86 -26.96,-72.73 -27.6,-71.38 -28.44,-69.9" fill="none" stroke="rgb(149, 69, 53)" stroke-width="2" stroke-linejoin="round" filter="url(#fuzzy)" /><polyline points="72.98,-36.9 73.2,-34.77 73.12,-33.5 72.95,-32.23 72.77,-30.68 72.69,-28.94 72.72,-27.17 72.81,-25.51 72.86,-24.02 72.85,-22.73 72.79,-21.59 72.75,-20.57 72.77,-19.59 72.86,-18.55 73.02,-17.33 73.27,-15.78" fill="none" stroke="rgb(149, 69, 53)" stroke-width="2" stroke-linejoin="round" filter="url(#fuzzy)" /><polyline points="-40.13,-108.99 -37.3,-104.75 -34.85,-102.18 -32.73,-100.63 -30.9,-99.32 -29.31,-98.05 -27.88,-96.96 -26.51,-96.08 -25.13,-95.34 -23.69,-94.6 -22.21,-93.82 -20.67,-93.02 -19.1,-92.33 -17.57,-91.8 -16.15,-91.31 -14.88,-90.61 -13.66,-89.58 -12.31,-88.58 -10.76,-87.94" fill="none" stroke="rgb(149, 69, 53)" stroke-width="2" stroke-linejoin="round" filter="url(#fuzzy)" /><polyline points="-25.51,-74.17 -24.4,-75.72 -23.68,-77.17 -23.15,-78.21 -22.59,-78.96 -21.89,-79.64 -21.09,-80.4 -20.23,-81.26 -19.34,-82.21 -18.37,-83.13 -17.28,-83.98 -16.12,-84.76 -15.04,-85.51 -14.16,-86.24 -13.43,-86.95 -12.2,-87.71 1.17,-116.27 0.51,-115.33 -0.21,-112.5 -1.23,-110.06 -2.42,-108.47 -3.63,-107.47 -4.76,-106.4 -5.79,-104.64 -6.71,-101.93 -7.58,-98.58 -8.44,-95.2 -9.35,-92.42 -10.37,-90.65 -11.56,-90.01 -12.88,-90.29 -13.99,-90.5 -13.58,-87.09" fill="none" stroke="rgb(149, 69, 53)" stroke-width="2" stroke-linejoin="round" filter="url(#fuzzy)" /><polyline points="-16.17,-86.76 -15.14,-86.27 -14.18,-85.96 -13.23,-86.03 -12.2,-86.24 -11.09,-86.44 -9.98,-86.54 -8.87,-86.47 -7.8,-86.18 -6.74,-85.68 -5.71,-84.97 -4.71,-84.16 -3.72,-83.38 -2.74,-82.77 -1.79,-82.39 -0.86,-82.22 0.07,-82.12 1.03,-81.9 2.06,-81.39 3.19,-80.54 4.36,-79.45 5.46,-78.28 6.44,-77.25 7.72,-76.7 -20.16,-85.37 -20.45,-88.24 -19.21,-88.73 -17.84,-89.87 -16.73,-91.82 -15.81,-93.8 -14.88,-95.29 -13.87,-96.34 -12.77,-97.31 -11.65,-98.49 -10.55,-100.04 -9.49,-102.03 -8.45,-104.52 -7.46,-107.26 -6.47,-109.69 -5.29,-111.3 -3.17,-112.59" fill="none" stroke="rgb(149, 69, 53)" stroke-width="2" stroke-linejoin="round" filter="url(#fuzzy)" /><polyline points="0.76,-75.44 0.32,-76.75 -0.2,-77.57 -0.95,-78.09 -1.84,-78.57 -2.77,-79.14 -3.72,-79.87 -4.69,-80.77 -5.69,-81.76 -6.73,-82.75 -7.81,-83.63 -8.91,-84.32 -10.02,-84.77 -11.11,-84.93 -12.17,-84.78 -13.19,-84.39 -14.23,-83.94 -15.38,-83.68 -16.7,-83.78 -18.11,-84.15 -19.39,-84.52 -20.3,-84.85 -20.99,-85.18" fill="none" stroke="rgb(149, 69, 53)" stroke-width="2" stroke-linejoin="round" filter="url(#fuzzy)" /><polyline points="72.89,-17.81 74.14,-16.22 76.23,-14.88 78.22,-13.42 79.66,-11.85 80.77,-10.33 81.87,-8.95 83.07,-7.71 84.24,-6.58 85.2,-5.53 85.92,-4.48 86.5,-3.29 87.12,-1.8 87.98,0.04 89.49,2.13 92.31,4.36 96.77,7.04" fill="none" stroke="rgb(149, 69, 53)" stroke-width="2" stroke-linejoin="round" filter="url(#fuzzy)" /><polyline points="72.89,-17.81 71.95,-18.52 71.18,-19.31 70.29,-19.98 69.34,-20.68 68.55,-21.58 68,-22.71 67.57,-24.01 67.09,-25.35 66.42,-26.61 65.61,-27.7 64.79,-28.67 64.08,-29.57 63.48,-30.46 62.92,-31.36 62.28,-32.27 61.52,-33.18 60.69,-34.1 59.79,-34.96 58.69,-35.72 57.32,-36.43 56.17,-37.68" fill="none" stroke="rgb(149, 69, 53)" stroke-width="2" stroke-linejoin="round" filter="url(#fuzzy)" /><polyline points="-44,-77.25 -42.92,-78.11 -41.71,-78.68 -40.33,-79.02 -38.92,-79.23 -37.56,-79.45 -36.22,-79.8 -34.9,-80.28 -33.62,-80.83 -32.4,-81.39 -31.24,-81.89 -30.16,-82.37 -29.1,-82.88 -27.97,-83.39 -26.57,-83.69 -24.86,-83.6 -29,-81.47 -28.6,-84.07 -27.77,-85.98 -26.95,-87.3 -26.2,-88.25 -25.42,-88.91 -24.51,-89.37 -23.47,-89.77 -22.36,-90.22 -21.21,-90.76 -20.01,-91.36 -18.77,-92.03 -17.55,-92.76 -16.38,-93.61 -15.28,-94.58 -14.22,-95.67 -13.13,-96.84 -11.98,-97.92 -10.83,-98.64 -9.83,-98.82 -9.41,-99.22" fill="none" stroke="rgb(149, 69, 53)" stroke-width="2" stroke-linejoin="round" filter="url(#fuzzy)" /><polyline points="-33.28,-79.41 -32.32,-80.01 -31.28,-80.71 -30.24,-81.31 -29.18,-81.84 -28.11,-82.35 -27.06,-82.85 -26.07,-83.35 -25.14,-83.83 -24.24,-84.28 -23.32,-84.7 -22.34,-85.09 -21.3,-85.48 -20.19,-85.85 -19.03,-86.24 -17.82,-86.62 -16.6,-87 -15.42,-87.36 -14.3,-87.69 -13.22,-88.02 -12.1,-88.33 -10.89,-88.61 -9.64,-88.81 -8.39,-88.89" fill="none" stroke="rgb(149, 69, 53)" stroke-width="2" stroke-linejoin="round" filter="url(#fuzzy)" /><polyline points="-34.88,-78.58 -33.83,-79.96 -33.07,-81.62 -32.17,-82.78 -31.18,-83.65 -30.23,-84.64 -29.34,-85.82 -28.47,-87 -27.6,-88.04 -26.75,-88.93 -25.91,-89.76 -25.04,-90.56 -24.11,-91.33 -23.09,-92.09 -22,-92.93 -20.87,-94.03 -19.72,-95.53 -18.58,-97.38 -17.52,-99.25 -16.59,-100.79 -15.8,-102.26 -14.57,-104.8 -19.21,-103.05 -21.31,-100.78 -22.56,-98.93 -23.55,-97.65 -24.53,-96.58 -25.48,-95.48 -26.33,-94.29 -27.09,-93.02 -27.82,-91.67 -28.58,-90.26 -29.37,-88.82 -30.19,-87.37 -31.06,-86 -32.01,-84.76 -33.05,-83.72 -34.2,-82.84 -35.4,-82.03 -36.54,-81.11 -37.53,-79.93 -38.33,-78.45 -39.05,-76.85 -39.87,-75.42 -40.81,-74.36 -41.84,-73.45" fill="none" stroke="rgb(149, 69, 53)" stroke-width="2" stroke-linejoin="round" filter="url(#fuzzy)" /><polyline points="-41.18,-73.96 -42.32,-72.94 -43.03,-71.86 -43.7,-70.6 -44.37,-69.43 -45.06,-68.48 -45.79,-67.7 -46.58,-66.95 -47.39,-66.1 -48.18,-65.09 -48.91,-63.92 -49.54,-62.65 -50.1,-61.36 -50.6,-60.12 -51.09,-58.95 -51.62,-57.87 -52.2,-56.84 -52.87,-55.85 -53.6,-54.86 -54.38,-53.81 -55.09,-52.63 -55.64,-51.32 -55.94,-49.97 -56.07,-48.47 -42.46,-72.63 -42.58,-73.21 -42.18,-73.82 -41.63,-74.37 -40.93,-74.94 -40.07,-75.6 -39.12,-76.37 -38.13,-77.21 -37.12,-78.1 -36.07,-79.01 -34.96,-79.93 -33.82,-80.83 -32.69,-81.68 -31.61,-82.45 -30.62,-83.1 -29.73,-83.63 -29.01,-84.33 -56.02,-57.3 -55.89,-57.69 -55.25,-58.7 -54.58,-59.71 -53.94,-60.65 -53.3,-61.55 -52.63,-62.44 -51.88,-63.35 -51.04,-64.33 -50.13,-65.37 -49.19,-66.44 -48.28,-67.45 -47.45,-68.34 -46.78,-69.02 -46.4,-69.35 -46.62,-69.04 -45.88,-69.87 -45.82,-70.33 -45.03,-71.66 -44.13,-72.74 -43.31,-73.52 -42.62,-74.19 -42,-74.91 -41.38,-75.76 -40.7,-76.77 -39.97,-77.92 -39.18,-79.18 -38.33,-80.47 -37.39,-81.72 -36.33,-82.84 -35.16,-83.81 -33.96,-84.66 -32.82,-85.48 -31.85,-86.39 -31.04,-87.29 -30.17,-87.71" fill="none" stroke="rgb(149, 69, 53)" stroke-width="2" stroke-linejoin="round" filter="url(#fuzzy)" /><polyline points="-57.85,-48.23 -57.04,-49.21 -56.65,-50.46 -56.38,-51.88 -56.03,-53.37 -55.59,-54.81 -55.1,-56.17 -54.57,-57.4 -53.98,-58.49 -53.33,-59.44 -52.64,-60.3 -51.93,-61.14 -51.21,-62.03 -50.45,-63.03 -49.61,-64.17 -48.75,-65.46 -47.97,-66.81 -47.5,-68.25" fill="none" stroke="rgb(149, 69, 53)" stroke-width="2" stroke-linejoin="round" filter="url(#fuzzy)" /><polyline points="-47.5,-68.25 -45.51,-63.47 -44.87,-60.34 -45.53,-58.88 -46.91,-58.54 -48.37,-58.54 -49.57,-58.36 -50.43,-57.83 -50.96,-56.91 -51.15,-55.59 -51.02,-53.87 -50.65,-51.83 -50.28,-49.74 -50.16,-47.87 -50.4,-46.41 -50.79,-45.34 -50.79,-43.91" fill="none" stroke="rgb(149, 69, 53)" stroke-width="2" stroke-linejoin="round" filter="url(#fuzzy)" /><polyline points="-48.53,-67.47 -49.68,-66.65 -51.49,-66.26 -53.42,-66.35 -54.96,-66.23 -56.04,-65.7 -56.88,-64.89 -57.69,-63.99 -58.56,-63.08 -59.52,-62.15 -60.58,-61.23 -61.8,-60.38 -63.23,-59.66 -64.86,-59.09 -66.64,-58.63 -68.43,-58.19 -70.15,-57.73 -71.73,-57.24 -73.11,-56.68 -74.27,-55.85 -75.28,-54.34 -76.66,-52.23 -49.22,-66.8 -48.45,-67.47 -47.55,-68.04 -46.64,-68.44 -45.75,-68.83 -44.89,-69.36 -44.04,-70.04 -43.2,-70.75 -42.37,-71.39 -41.56,-71.93 -40.74,-72.4 -39.88,-72.84 -38.96,-73.29 -37.95,-73.75 -36.87,-74.2 -35.7,-74.63 -34.46,-75.01 -33.16,-75.33 -31.81,-75.57 -30.46,-75.69 -29.15,-75.72 -27.97,-75.72 -26.96,-75.78 -26.04,-75.71" fill="none" stroke="rgb(149, 69, 53)" stroke-width="2" stroke-linejoin="round" filter="url(#fuzzy)" /><polyline points="-51.17,-64.49 -50.27,-66.93 -49.75,-68.77 -48.97,-69.75 -48.08,-70.31 -47.29,-70.95 -46.7,-71.97 -46.3,-73.46 -46.07,-75.3 -45.93,-77.23 -45.8,-79.04 -45.57,-80.59 -45.17,-81.9 -44.57,-83.12 -43.87,-84.49 -43.23,-86.23 -42.79,-88.32 -42.39,-90.46 -40.92,-92.19 -50.87,-102.81 -51.85,-98.82 -52.29,-96.38 -52.6,-94.64 -53,-93.33 -53.45,-92.02 -53.86,-90.36 -54.16,-88.29 -54.31,-85.95 -54.32,-83.55 -54.24,-81.24 -54.2,-79.11 -54.24,-77.06 -54.1,-74.57 -53.35,-70.95 -52.24,-66.61 -52.01,-63.89 -55.04,-60.17 -58.1,-60.18 -61.26,-61.27 -64.32,-62.08 -67.14,-62.56 -69.29,-62.44 -70.63,-61.61 -71.43,-60.31 -72.09,-58.92 -72.98,-57.78 -74.3,-56.97 -76.12,-56.41 -78.37,-55.98 -80.97,-55.69 -83.81,-55.67 -86.36,-55.54 -87.19,-53.38 -57.07,-57.22 -57.29,-57.1 -58.18,-56.19 -59.52,-55.42 -61.2,-55 -62.99,-54.72 -64.69,-54.37 -66.22,-53.91 -67.68,-53.41 -69.17,-52.89 -70.67,-52.28 -72.17,-51.5 -73.64,-50.64 -75.12,-49.86 -76.5,-49.11 -77.48,-48.14 -78.27,-47.39" fill="none" stroke="rgb(149, 69, 53)" stroke-width="2" stroke-linejoin="round" filter="url(#fuzzy)" /><polyline points="-54.65,-30.08 -55.92,-32.52 -56.37,-33.96 -57.16,-35.55 -58.12,-37.32 -58.88,-39.07 -59.31,-40.75 -59.52,-42.41 -59.68,-44.07 -59.8,-45.65 -59.74,-47.02 -59.34,-48.15 -58.69,-49.17 -58.11,-50.35 -58.06,-51.95 -58.42,-53.9 -58.04,-55.95" fill="none" stroke="rgb(149, 69, 53)" stroke-width="2" stroke-linejoin="round" filter="url(#fuzzy)" /><polyline points="-59.5,-53.61 -58.73,-56.01 -58.95,-58.56 -58.9,-60.44 -58.26,-61.61 -57.44,-62.57 -56.83,-63.72 -56.59,-65.28 -56.68,-67.28 -56.97,-69.67 -57.26,-72.27 -57.35,-74.83 -57.11,-77.1 -56.61,-79.04 -56.11,-80.77 -55.97,-82.57 -56.58,-84.56 -58.46,-86.57" fill="none" stroke="rgb(149, 69, 53)" stroke-width="2" stroke-linejoin="round" filter="url(#fuzzy)" /><polyline points="72.4,-21.14 72.42,-20.51 72.47,-19.8 72.45,-18.76 72.22,-17.46 71.77,-15.96 71.23,-14.32 70.75,-12.64 70.44,-10.99 70.26,-9.46 70.1,-8.08 69.87,-6.84 69.55,-5.72 69.16,-4.76 68.64,-4.06 67.79,-3.57 66.34,-2.62" fill="none" stroke="rgb(149, 69, 53)" stroke-width="2" stroke-linejoin="round" filter="url(#fuzzy)" /><polyline points="-61.23,-51.05 -61.81,-49.3 -62.02,-48.29 -61.86,-46.9 -61.3,-44.96 -60.54,-42.81 -59.86,-40.8 -59.45,-39.1 -59.33,-37.72 -59.38,-36.52 -59.45,-35.35 -59.43,-34.12 -59.31,-32.83 -59.14,-31.52 -58.88,-30.22 -58.39,-28.87 -57.53,-27.5 -57.18,-27.02" fill="none" stroke="rgb(149, 69, 53)" stroke-width="2" stroke-linejoin="round" filter="url(#fuzzy)" /><polyline points="-62.28,-49.23 -62.01,-49.39 -61.38,-50.58 -60.77,-51.99 -60.27,-53.48 -59.87,-55.05 -59.5,-56.66 -59.11,-58.27 -58.71,-59.85 -58.33,-61.4 -58,-62.93 -57.7,-64.47 -57.43,-66.05 -57.19,-67.71 -56.94,-69.48 -56.65,-71.37 -56.31,-73.35 -55.9,-75.34 -55.42,-77.21 -54.88,-78.79 -54.29,-79.96 -53.77,-80.89 -53.45,-82.26 -52.57,-85.11 -78.43,-23.49 -77.76,-25.03 -76.97,-26.49 -76.19,-28 -75.45,-29.46 -74.76,-30.81 -74.07,-32.01 -73.34,-33.09 -72.57,-34.08 -71.79,-35.04 -71.05,-36.02 -70.41,-37.08 -69.9,-38.23 -69.48,-39.43 -69.08,-40.62 -68.56,-41.71 -67.82,-42.62 -66.85,-43.38 -65.77,-44.15 -64.72,-45.14 -63.77,-46.57 -62.81,-48.3 -63.62,-46.41 -64.82,-44.87 -66.86,-44.58 -69.32,-44.75 -71.24,-44.58 -72.38,-43.87 -73.14,-42.84 -74.03,-41.8 -75.29,-40.92 -76.95,-40.24 -78.84,-39.68 -80.75,-39.13 -82.53,-38.47 -84.13,-37.65 -85.58,-36.65 -86.95,-35.47 -88.23,-34.12 -89.37,-32.64 -90.35,-31.08 -91.4,-29.6 -92.9,-28.38 -94.97,-27.46 -97.05,-26.7 -98.23,-26.63" fill="none" stroke="rgb(149, 69, 53)" stroke-width="2" stroke-linejoin="round" filter="url(#fuzzy)" /><polyline points="-65.22,-43.07 -65.28,-43.63 -65.28,-45.16 -65.42,-47.13 -65.66,-49.13 -66.12,-51.22 -66.88,-53.54 -67.81,-56.11 -68.68,-58.74 -69.24,-61.23 -69.35,-63.4 -68.97,-65.2 -68.19,-66.64 -67.17,-67.85 -66.13,-69.02 -65.31,-70.35 -64.82,-71.96 -64.63,-73.86 -64.57,-75.9 -64.4,-77.91 -63.96,-79.81 -63.24,-81.68 -62.51,-83.88 -62.27,-86.71 -62.3,-89.51" fill="none" stroke="rgb(149, 69, 53)" stroke-width="2" stroke-linejoin="round" filter="url(#fuzzy)" /><polyline points="-60.71,-71.62 -61.71,-70.14 -61.73,-68.2 -61.75,-66.27 -62.03,-64.52 -62.52,-62.92 -63.18,-61.44 -63.96,-60.07 -64.74,-58.73 -65.34,-57.31 -65.63,-55.69 -65.64,-53.92 -65.56,-52.15 -65.61,-50.52 -65.87,-49.02 -66.2,-47.5 -66.29,-45.8 -66.04,-44 -65.81,-42.35 -66.27,-40.57" fill="none" stroke="rgb(149, 69, 53)" stroke-width="2" stroke-linejoin="round" filter="url(#fuzzy)" /><polyline points="71.64,-23.42 71.5,-21.6 69.8,-20.05 68.11,-18.64 67.39,-17.39 67.58,-16.22 68.2,-15.02 68.78,-13.71 69.12,-12.28 69.15,-10.79 68.92,-9.33 68.46,-7.96 67.8,-6.72 66.99,-5.6 66.2,-4.61 65.56,-3.73 65.12,-2.85 64.73,-1.74 64.08,-0.21 63.1,1.52" fill="none" stroke="rgb(149, 69, 53)" stroke-width="2" stroke-linejoin="round" filter="url(#fuzzy)" /><polyline points="-66.77,-39.65 -66.58,-40.35 -66.58,-41.49 -66.72,-42.94 -67.1,-44.72 -67.63,-46.76 -68.05,-48.8 -68.14,-50.6 -67.89,-52.12 -67.43,-53.47 -66.94,-54.83 -66.53,-56.33 -66.23,-58.01 -65.98,-59.81 -65.75,-61.71 -65.56,-63.72 -65.5,-65.9 -65.6,-68.23 -65.8,-70.6 -65.87,-72.75 -65.54,-74.47 -64.68,-76.3" fill="none" stroke="rgb(149, 69, 53)" stroke-width="2" stroke-linejoin="round" filter="url(#fuzzy)" /><polyline points="-67.95,-36.48 -68.45,-35.4 -69.46,-34.59 -71.21,-34.13 -73.31,-33.8 -75.29,-33.33 -76.97,-32.59 -78.36,-31.57 -79.51,-30.34 -80.39,-28.98 -80.97,-27.54 -81.28,-26.11 -81.55,-24.76 -82.1,-23.55 -83.21,-22.49 -84.93,-21.41 -86.99,-20.04 -88.87,-18.2 -89.42,-16.6" fill="none" stroke="rgb(149, 69, 53)" stroke-width="2" stroke-linejoin="round" filter="url(#fuzzy)" /><polyline points="-65.57,-10.19 -66.1,-11.21 -66.86,-12.45 -67.13,-13.86 -67.11,-15.31 -67.16,-16.72 -67.5,-18.08 -68.12,-19.41 -68.83,-20.76 -69.42,-22.13 -69.69,-23.5 -69.54,-24.85 -68.96,-26.13 -68.17,-27.34 -67.51,-28.53 -67.31,-29.78 -67.64,-31.04 -69.32,-32.2" fill="none" stroke="rgb(149, 69, 53)" stroke-width="2" stroke-linejoin="round" filter="url(#fuzzy)" /><polyline points="-69.32,-32.2 -70.13,-32.19 -70.62,-31.24 -71.18,-30.09 -71.72,-28.8 -72.16,-27.38 -72.53,-25.94 -72.94,-24.57 -73.47,-23.35 -74.15,-22.27 -74.94,-21.26 -75.79,-20.21 -76.63,-19.02 -77.43,-17.63 -78.13,-16.1 -78.75,-14.63 -79.36,-13.44 -79.94,-12.43 -70.06,-30.36 -70.44,-32.29 -70.11,-33.34 -69.84,-34.45 -69.71,-35.7 -69.59,-37.01 -69.4,-38.31 -69.16,-39.61 -68.99,-40.95 -69.03,-42.41 -69.39,-44.1 -70.09,-46.09 -71.02,-48.37 -71.89,-50.77 -72.43,-53.03 -72.46,-54.86 -72.07,-56.08 -71.48,-57.01 -70.9,-59.1 -70.21,-29.77 -70.71,-28.38 -71.51,-26.88 -72.67,-25.58 -74.1,-24.54 -75.65,-23.67 -77.14,-22.85 -78.4,-21.96 -79.31,-20.87 -79.9,-19.54 -80.42,-18.04 -81.16,-16.54 -82.23,-15.17 -83.46,-13.98 -84.59,-12.85 -85.63,-11.65 -87.03,-10.27 -89.5,-8.67" fill="none" stroke="rgb(149, 69, 53)" stroke-width="2" stroke-linejoin="round" filter="url(#fuzzy)" /><polyline points="70.39,-28.84 70.64,-29.7 71.59,-31.38 72.35,-32.85 72.53,-34.04 72.42,-35.18 72.42,-36.54 72.8,-38.24 73.59,-40.28 74.59,-42.49 75.51,-44.71 76.09,-46.77 76.27,-48.64 76.3,-50.43 76.82,-52.48 78.3,-55.44" fill="none" stroke="rgb(149, 69, 53)" stroke-width="2" stroke-linejoin="round" filter="url(#fuzzy)" /><polyline points="69.41,-31.74 69.49,-31.53 69.72,-30.68 70.04,-29.35 70.39,-27.77 70.74,-26.16 71.03,-24.65 71.25,-23.29 71.38,-22.07 71.45,-20.95 71.49,-19.86 71.51,-18.74 71.53,-17.53 71.56,-16.2 71.6,-14.75 71.66,-13.18 71.72,-11.56 71.77,-9.97 71.77,-8.54 71.74,-7.28 71.68,-5.86 71.68,-3.1 69.41,-31.74 70.67,-32.07 71.73,-31.61 72.15,-30.29 72.57,-28.66 73.33,-27.11 74.43,-25.78 75.69,-24.68 76.9,-23.73 77.91,-22.83 78.65,-21.88 79.2,-20.82 79.7,-19.63 80.36,-18.3 81.36,-16.85 82.77,-15.28 84.45,-13.57 86.09,-11.74 87.27,-10.04 87.99,-8.93 68.7,-33.89 71.39,-37.77 75.67,-42.14 78.38,-45.42 79.38,-47.73 79.18,-49.41 78.22,-50.68 76.86,-51.72 75.43,-52.69 74.22,-53.7 73.44,-54.82 73.23,-56.14 73.7,-57.88 74.91,-60.33 76.83,-63.57 78.78,-67.02 78.51,-69.64 67.27,-38.39 67.44,-37.74 67.78,-36.42 68.02,-35.05 68.1,-33.78 68.12,-32.6 68.2,-31.49 68.4,-30.37 68.69,-29.15 69.03,-27.76 69.33,-26.23 69.54,-24.67 69.65,-23.19 69.71,-21.89 69.79,-20.81 69.89,-20.05 69.94,-19.99 67.27,-38.39 67.51,-37.74 68.08,-36.5 68.73,-35.32 69.46,-34.32 70.33,-33.47 71.31,-32.65 72.28,-31.73 73.1,-30.59 73.73,-29.24 74.21,-27.76 74.64,-26.28 75.13,-24.9 75.7,-23.68 76.36,-22.59 77.07,-21.57 77.85,-20.54 78.7,-19.43 79.68,-18.2 80.74,-16.81 81.77,-15.22 82.59,-13.41 83.16,-11.44 83.68,-9.66 84.57,-8.58" fill="none" stroke="rgb(149, 69, 53)" stroke-width="2" stroke-linejoin="round" filter="url(#fuzzy)" /><polyline points="65.8,-41.15 67.1,-40.64 69.17,-40.35 71.02,-39.84 72.41,-39.02 73.51,-38.04 74.53,-37.09 75.62,-36.26 76.73,-35.48 77.76,-34.59 78.68,-33.47 79.58,-32.09 80.66,-30.57 82.09,-29.11 83.8,-27.87 85.48,-26.79 86.88,-25.67 88.91,-24.8 62.47,-48.06 66.13,-47.59 68.16,-46.89 68.7,-45.49 69.14,-44.05 70.1,-42.92 71.61,-42.09 73.58,-41.5 75.9,-41.08 78.41,-40.77 80.86,-40.46 82.91,-40.01 84.38,-39.3 85.31,-38.28 86.03,-36.96 87.06,-35.45 88.9,-33.93 91.78,-32.59 95.05,-31.74 95.85,-31.33 62.43,-48.73 62.89,-47.53 63.68,-45.98 64.47,-44.58 65.25,-43.33 66.06,-42.18 66.87,-41.07 67.71,-39.96 68.55,-38.87 69.4,-37.79 70.23,-36.73 71,-35.71 71.68,-34.73 72.31,-33.75 72.91,-32.75 73.51,-31.61 74.18,-30.27 74.98,-28.71 76.01,-27.09 77.14,-25.8 77.58,-25.36" fill="none" stroke="rgb(149, 69, 53)" stroke-width="2" stroke-linejoin="round" filter="url(#fuzzy)" /><polyline points="62.43,-48.73 64.53,-48.67 66.73,-48.09 67.85,-46.87 68.61,-45.51 69.51,-44.32 70.61,-43.27 71.75,-42.26 72.77,-41.19 73.63,-40.04 74.4,-38.87 75.26,-37.79 76.39,-36.88 77.9,-36.15 79.71,-35.5 81.61,-34.73 83.4,-33.69 85.04,-32.34 86.65,-30.86 88.37,-29.48 90.12,-28.29 91.8,-27.13 93.96,-26.21 62.43,-48.73 62.47,-48.39 61.82,-48.97 61.03,-49.88 60.27,-50.93 59.53,-52.02 58.79,-53.07 58.02,-54.03 57.18,-54.89 56.24,-55.69 55.2,-56.5 54.1,-57.37 53.01,-58.3 52,-59.28 51.07,-60.31 50.18,-61.17" fill="none" stroke="rgb(149, 69, 53)" stroke-width="2" stroke-linejoin="round" filter="url(#fuzzy)" /><polyline points="48.59,-83.53 50.08,-82.05 50.69,-80.68 51.15,-79.15 51.75,-77.55 52.56,-76.1 53.56,-74.92 54.62,-73.93 55.58,-72.96 56.31,-71.86 56.75,-70.52 56.92,-68.92 56.93,-67.13 56.91,-65.22 56.95,-63.29 57.14,-61.43 57.47,-59.7 57.92,-58.14 58.44,-56.74 59,-55.47 59.61,-54.25 60.29,-53.07 61,-51.91 61.56,-50.7 62.28,-48.93" fill="none" stroke="rgb(149, 69, 53)" stroke-width="2" stroke-linejoin="round" filter="url(#fuzzy)" /><polyline points="59.5,-52.78 61.11,-51.93 62.43,-51.53 63.51,-50.99 64.33,-50.39 65,-49.73 65.72,-48.98 66.59,-48.13 67.64,-47.21 68.82,-46.27 70.05,-45.33 71.29,-44.38 72.49,-43.41 73.63,-42.39 74.69,-41.28 75.66,-40.07 76.5,-38.99 77.46,-39.16 57.86,-83.42 57.68,-82.57 57.81,-80.36 57.73,-77.76 57.43,-75.11 57.06,-72.59 56.77,-70.38 56.77,-68.61 57.17,-67.33 57.93,-66.36 58.85,-65.4 59.57,-64.09 59.82,-62.21 59.58,-59.87 59.1,-57.52 58.77,-55.6 58.85,-54.23 59.5,-52.78" fill="none" stroke="rgb(149, 69, 53)" stroke-width="2" stroke-linejoin="round" filter="url(#fuzzy)" /><polyline points="59.5,-52.78 62.02,-52.7 63.89,-52.75 65.35,-52.5 66.89,-52.4 68.42,-52.31 69.78,-51.94 71.08,-51.26 72.66,-50.53 74.79,-50.02 77.46,-49.8 80.29,-49.68 82.71,-49.3 84.3,-48.39 85.13,-46.96 85.71,-45.33 86.82,-43.99 88.95,-43.26 91.91,-43.01 94.55,-43.19 57.45,-56.21 56.08,-58.43 55.44,-60.29 55.48,-62.46 56.01,-64.96 56.72,-67.51 57.38,-69.98 57.91,-72.42 58.29,-74.86 58.41,-77.18 58.13,-79.16 57.36,-80.63 56.19,-81.63 54.91,-82.46 53.89,-83.58 53.37,-85.37 53.17,-87.8 52.69,-90.43 51.43,-92.25" fill="none" stroke="rgb(149, 69, 53)" stroke-width="2" stroke-linejoin="round" filter="url(#fuzzy)" /><polyline points="45.44,-85.46 46.17,-83.66 46.54,-82.03 47.17,-80.65 48.03,-79.54 48.86,-78.48 49.54,-77.2 50.07,-75.62 50.54,-73.86 51.08,-72.16 51.79,-70.73 52.72,-69.69 53.72,-68.93 54.52,-68.12 54.79,-66.85 54.48,-65.01 54.02,-62.91 54.11,-61.17 54.77,-60.26" fill="none" stroke="rgb(149, 69, 53)" stroke-width="2" stroke-linejoin="round" filter="url(#fuzzy)" /><polyline points="54.77,-60.26 55.68,-58.8 56.56,-57.37 57.27,-56.18 57.87,-55.08 58.39,-53.94 58.85,-52.69 59.19,-51.33 59.35,-49.88 59.3,-48.39 59.11,-46.93 58.93,-45.6 58.92,-44.41 59.13,-43.28 59.46,-42.08 59.69,-40.71 59.67,-39.17 59.5,-37.59 59.84,-36.57" fill="none" stroke="rgb(149, 69, 53)" stroke-width="2" stroke-linejoin="round" filter="url(#fuzzy)" /><polyline points="54.07,-60.58 53.28,-62.26 52.99,-63.43 52.64,-64.36 52.04,-65.2 51.27,-66.04 50.42,-66.97 49.58,-68.01 48.76,-69.15 47.94,-70.31 47.12,-71.41 46.27,-72.41 45.39,-73.31 44.48,-74.14 43.55,-74.95 42.63,-75.78 41.74,-76.7 40.87,-77.74 40.03,-78.9 39.2,-80.12 38.34,-81.33 37.37,-82.54 36.05,-83.89 33.93,-85.5" fill="none" stroke="rgb(149, 69, 53)" stroke-width="2" stroke-linejoin="round" filter="url(#fuzzy)" /><polyline points="26.47,-64.5 26.42,-65.33 27.13,-65.48 28.3,-65.54 29.52,-65.45 30.72,-65.36 32.04,-65.51 33.52,-65.98 35.06,-66.59 36.5,-67.05 37.71,-67.11 38.7,-66.74 39.55,-66.1 40.43,-65.43 41.47,-64.96 42.74,-64.74 44.2,-64.74 45.76,-64.82 47.31,-64.83 48.73,-64.69 49.94,-64.33 50.93,-63.8 51.72,-63.28 52.32,-63.02 52.86,-62.79" fill="none" stroke="rgb(149, 69, 53)" stroke-width="2" stroke-linejoin="round" filter="url(#fuzzy)" /><polyline points="50.19,-65.58 48.09,-65.83 46.01,-65.61 44.7,-66.14 43.96,-67.26 43.41,-68.47 42.77,-69.48 41.92,-70.15 40.85,-70.46 39.59,-70.42 38.19,-70.15 36.75,-69.82 35.37,-69.66 34.15,-69.74 33.13,-70.01 32.23,-70.42 31.13,-70.93 51.44,-39.58 52.55,-40.61 53.21,-41.52 53.56,-42.74 53.66,-44.11 53.69,-45.61 53.7,-47.17 53.63,-48.68 53.42,-50.08 53.08,-51.4 52.68,-52.73 52.29,-54.14 51.91,-55.58 51.49,-56.95 50.95,-58.08 50.26,-58.93 49.47,-59.58 48.71,-60.23 48.09,-61.08 47.6,-62.18 47.07,-63.35 46.33,-64.4 45.53,-65.6 45.15,-67.86 44.2,-71.28 44.95,-70.73 44.02,-71.45 42.81,-72.18 41.56,-72.52 40.34,-72.66 39.16,-72.87 38.05,-73.3 37.01,-73.93 36.01,-74.65 34.97,-75.31 33.85,-75.84 32.7,-76.2 31.58,-76.4 30.54,-76.45 29.56,-76.34 28.62,-76.07 27.87,-75.53 27.69,-74.54 41.25,-73.99 41.04,-74.35 40.19,-75.1 39.25,-76.12 38.39,-77.33 37.57,-78.6 36.68,-79.75 35.68,-80.64 34.61,-81.26 33.56,-81.71 32.6,-82.1 31.74,-82.53 30.95,-83.05 30.17,-83.69 29.37,-84.44 28.51,-85.29 27.63,-86.21 26.72,-87.18 25.75,-88.32 24.77,-89.69 41.54,-73.65 40.3,-75.05 39.57,-76.93 39.17,-79.27 38.88,-81.78 38.46,-84.1 37.85,-86.05 37.12,-87.66 36.38,-89.02 35.66,-90.24 34.96,-91.4 34.25,-92.52 33.47,-93.64 32.61,-94.7 31.61,-95.63 30.49,-96.44 29.3,-97.29 28.14,-98.49 27.13,-100.4 26.36,-103.17 25.8,-106.58 25.29,-109.94 24.63,-112.18 24.09,-112.5" fill="none" stroke="rgb(149, 69, 53)" stroke-width="2" stroke-linejoin="round" filter="url(#fuzzy)" /><polyline points="39.87,-75 44.42,-80.33 44.99,-79.26 45.54,-77.82 46.8,-77.43 48.37,-77.6 49.77,-77.49 50.8,-76.71 51.61,-75.42 52.45,-74.09 53.57,-73.13 55.02,-72.71 56.7,-72.73 58.48,-73.03 60.32,-73.57 62.29,-74.44 64.71,-75.52 68.01,-76.2" fill="none" stroke="rgb(149, 69, 53)" stroke-width="2" stroke-linejoin="round" filter="url(#fuzzy)" /><polyline points="39.87,-75 39.41,-76.86 38.23,-77.43 37.05,-77.89 35.92,-78.53 34.87,-79.37 33.95,-80.36 33.17,-81.41 32.46,-82.4 31.75,-83.25 30.98,-83.94 30.14,-84.57 29.25,-85.25 28.33,-86.07 27.39,-87.05 26.42,-88.15 25.42,-89.27 24.39,-90.32 23.33,-91.24 22.28,-92.06 21.24,-92.85 20.17,-93.67 18.99,-94.51 17.58,-95.26 16.28,-96.07" fill="none" stroke="rgb(149, 69, 53)" stroke-width="2" stroke-linejoin="round" filter="url(#fuzzy)" /><polyline points="69.41,-67.92 66.52,-69.27 64.42,-69.98 62.89,-70.69 61.76,-71.48 60.78,-72.17 59.68,-72.6 58.35,-72.77 56.84,-72.82 55.26,-72.92 53.71,-73.16 52.21,-73.5 50.74,-73.89 49.36,-74.32 48.13,-74.9 47.15,-75.78 46.36,-76.89 45.49,-77.81 44.19,-77.87 42.31,-76.81 40.29,-75.54 38.9,-75.56" fill="none" stroke="rgb(149, 69, 53)" stroke-width="2" stroke-linejoin="round" filter="url(#fuzzy)" /><polyline points="69.74,-74.27 66.84,-73.24 64.72,-73.06 63.2,-73.38 61.94,-73.74 60.65,-73.95 59.21,-74.01 57.61,-73.96 55.88,-73.87 54.11,-73.81 52.38,-73.84 50.76,-74.02 49.35,-74.43 48.17,-75.11 47.22,-76.07 46.44,-77.23 45.68,-78.37 44.75,-79.18 43.47,-79.37 41.75,-78.84 39.78,-77.93 37.99,-77.32 36.77,-77.41 36.06,-77.74 31.65,-80.14 34.53,-84.44 36.61,-85.12 37.82,-83.96 38.78,-82.6 39.81,-81.56 41,-80.9 42.35,-80.57 43.82,-80.51 45.38,-80.63 47.02,-80.86 48.75,-81.19 50.61,-81.65 52.62,-82.23 54.77,-82.88 56.99,-83.47 59.19,-83.88 61.3,-84.06 63.34,-84.11 65.38,-84.16 67.38,-84.2 69.03,-84.17 70.12,-85.47" fill="none" stroke="rgb(149, 69, 53)" stroke-width="2" stroke-linejoin="round" filter="url(#fuzzy)" /><polyline points="31.65,-80.14 31,-78.85 29.77,-78.26 28.87,-78.47 28,-78.73 26.99,-78.77 25.87,-78.75 24.74,-78.83 23.62,-79.01 22.47,-79.16 21.29,-79.1 20.09,-78.75 18.88,-78.11 17.67,-77.28 16.46,-76.43 15.22,-75.8 13.92,-75.51 12.73,-75.13" fill="none" stroke="rgb(149, 69, 53)" stroke-width="2" stroke-linejoin="round" filter="url(#fuzzy)" /><polyline points="30.05,-80.89 30.88,-83.72 31.95,-84.99 32.77,-84.64 33.66,-84.12 34.8,-83.87 36.16,-83.8 37.66,-83.84 39.27,-83.98 40.94,-84.22 42.56,-84.38 44.02,-84.28 45.3,-83.84 46.44,-83.16 47.6,-82.49 48.98,-82.14 50.73,-82.36 52.89,-83.18 55.36,-84.34 57.89,-85.37 60.2,-85.8 62.16,-85.54 63.75,-85.03 64.5,-85.09" fill="none" stroke="rgb(149, 69, 53)" stroke-width="2" stroke-linejoin="round" filter="url(#fuzzy)" /><polyline points="41.93,-55.32 42.23,-56.35 41.93,-57.75 41.49,-59.25 41.08,-60.79 40.68,-62.24 40.23,-63.52 39.69,-64.66 39.1,-65.72 38.49,-66.81 37.9,-67.99 37.35,-69.32 36.83,-70.78 36.29,-72.29 35.66,-73.7 34.88,-74.86 33.92,-75.68 32.82,-76.17 31.71,-76.46 30.73,-76.79 29.98,-77.37 29.45,-78.28 29.27,-79.32 30.05,-80.89" fill="none" stroke="rgb(149, 69, 53)" stroke-width="2" stroke-linejoin="round" filter="url(#fuzzy)" /><polyline points="27.44,-82.47 26.67,-83.35 25.86,-83.84 24.87,-84.54 23.83,-85.46 22.8,-86.42 21.81,-87.26 20.82,-87.93 19.81,-88.5 18.74,-89.09 17.64,-89.77 16.52,-90.54 15.39,-91.33 14.21,-92.04 12.89,-92.63 11.5,-93.19 10.76,-94.13" fill="none" stroke="rgb(149, 69, 53)" stroke-width="2" stroke-linejoin="round" filter="url(#fuzzy)" /><polyline points="25.98,-83.04 27.5,-82.38 28.75,-81.91 29.69,-81.68 30.53,-81.51 31.34,-81.3 32.18,-81 33.11,-80.63 34.15,-80.2 35.32,-79.74 36.52,-79.28 37.71,-78.79 38.85,-78.24 40.03,-77.59 41.36,-76.91 42.97,-76.19 4.94,-90.2 6.28,-89.85 7.34,-89.67 8.35,-89.48 9.29,-89.27 10.21,-89.03 11.18,-88.71 12.23,-88.33 13.34,-87.9 14.49,-87.46 15.65,-87.05 16.82,-86.7 17.97,-86.4 19.09,-86.13 20.17,-85.84 21.22,-85.47 22.3,-84.99 23.44,-84.41 24.63,-83.8 25.69,-83.24 25.98,-83.04" fill="none" stroke="rgb(149, 69, 53)" stroke-width="2" stroke-linejoin="round" filter="url(#fuzzy)" /><polyline points="26.55,-82.81 26.45,-81.93 27.2,-81 28.16,-80.48 28.99,-79.99 29.63,-79.29 30.17,-78.36 30.67,-77.24 31.2,-76 31.83,-74.73 32.59,-73.56 33.47,-72.57 34.39,-71.73 35.27,-70.85 36.01,-69.76 36.53,-68.35 36.85,-66.83 37.13,-65.66 37.59,-64.61" fill="none" stroke="rgb(149, 69, 53)" stroke-width="2" stroke-linejoin="round" filter="url(#fuzzy)" /><polyline points="21.16,-84.97 22.98,-84.69 24.55,-84.74 25.88,-84.67 27.03,-84.39 28.1,-84.03 29.15,-83.76 30.19,-83.66 31.26,-83.73 32.37,-83.91 33.53,-84.11 34.77,-84.26 36.09,-84.31 37.48,-84.27 38.92,-84.17 40.4,-84.06 41.88,-83.92 43.32,-83.71 44.68,-83.39 45.92,-82.91 47.08,-82.29 48.36,-81.61 49.86,-80.96 51.07,-80.37 39.38,-81.05 38.45,-81.19 37.35,-81.62 36.02,-82 34.68,-82.21 33.49,-82.29 32.46,-82.35 31.55,-82.49 30.7,-82.74 29.84,-83.11 28.94,-83.57 28,-84.12 27.02,-84.73 25.99,-85.37 24.83,-85.95 23.34,-86.1 21.16,-84.97 18.34,-85.75 19.7,-85.73 20.84,-85.62 22.08,-85.8 23.45,-86.15 24.84,-86.37 26.11,-86.3 27.26,-85.92 28.3,-85.38 29.29,-84.86 30.27,-84.48 31.29,-84.33 32.37,-84.39 33.55,-84.59 34.82,-84.84 36.17,-85.01 37.58,-85.02 39,-84.85 40.39,-84.52 41.75,-84.1 43.12,-83.63 44.5,-83.18 45.75,-82.9 46.37,-83.17" fill="none" stroke="rgb(149, 69, 53)" stroke-width="2" stroke-linejoin="round" filter="url(#fuzzy)" /><polyline points="15.57,-86.6 15.11,-88.74 14.15,-88.9 13,-89.15 11.91,-89.96 10.98,-91.17 10.16,-92.57 9.33,-94.04 8.41,-95.54 7.35,-97.01 6.14,-98.42 4.75,-99.74 3.23,-101.03 1.74,-102.42 0.62,-103.98 0.23,-104.97" fill="none" stroke="rgb(149, 69, 53)" stroke-width="2" stroke-linejoin="round" filter="url(#fuzzy)" /><polyline points="35,-67.99 34.09,-69.26 33.46,-70.52 32.65,-71.47 31.67,-72.17 30.7,-72.78 29.88,-73.46 29.22,-74.32 28.67,-75.33 28.14,-76.41 27.57,-77.51 26.93,-78.58 26.19,-79.63 25.36,-80.59 24.43,-81.43 23.4,-82.08 22.32,-82.54 21.21,-82.87 20.14,-83.22 19.15,-83.75 18.2,-84.57 17.18,-85.53 15.93,-86.32 14.69,-86.73 28.86,-79.38 28.41,-79.4 27.34,-79.97 26.28,-80.63 25.27,-81.26 24.23,-81.88 23.17,-82.48 22.11,-83.07 21.08,-83.61 20.08,-84.1 19.08,-84.56 18.05,-85.04 16.98,-85.55 15.88,-86.11 14.83,-86.63 13.92,-87.02 13,-87.2 37.07,-101.97 35.94,-100.47 34.14,-99.89 32.27,-98.99 30.45,-97.94 28.72,-97.11 27.1,-96.59 25.58,-96.29 24.16,-96.09 22.81,-95.93 21.49,-95.84 20.18,-95.83 18.85,-95.78 17.46,-95.42 15.99,-94.5 14.42,-92.98 12.81,-91.15 11.32,-89.51 10.26,-88.43 9.88,-88.03 -10.94,-115.93 -9.95,-115.02 -8.55,-115.17 -7.18,-113.39 -5.84,-110.03 -4.52,-106.1 -3.24,-102.44 -2.02,-99.76 -0.9,-98.43 0.16,-98.25 1.22,-98.32 2.39,-97.47 3.7,-95.03 5.05,-91.61 6.18,-88.98 6.68,-88.34 6.68,-88.34 6.14,-88.53 4.93,-89.05 3.54,-89.75 2.23,-90.53 1.07,-91.33 0.01,-92.22 -1.03,-93.26 -2.09,-94.44 -3.18,-95.69 -4.31,-96.94 -5.47,-98.17 -6.66,-99.35 -7.89,-100.42 -9.15,-101.29 -10.45,-101.95 -11.81,-102.49 -13.25,-103.12 -14.78,-104.13 -16.29,-105.7 -17.65,-107.63 -19.08,-108.06 33.9,-85.83 33.61,-85.63 32.56,-85.77 31.56,-86.01 30.56,-86.25 29.46,-86.47 28.29,-86.7 27.08,-86.92 25.83,-87.12 24.56,-87.26 23.3,-87.38 22.08,-87.54 20.91,-87.79 19.76,-88.11 18.61,-88.41 17.42,-88.58 16.18,-88.57 14.89,-88.39 13.59,-88.14 12.35,-87.96 11.2,-87.92 10.22,-88 9.34,-88.12 8.32,-88.23 6.68,-88.34 41.63,-101.46 38.4,-100.95 36.56,-99.75 34.97,-98.62 33.41,-97.96 31.93,-97.81 30.49,-97.9 29.02,-97.9 27.49,-97.63 25.9,-97.04 24.31,-96.14 22.71,-95.04 21.14,-93.87 19.61,-92.83 18.14,-92.11 16.74,-91.75 15.41,-91.68 14.12,-91.66 12.85,-91.52 11.64,-91.21 10.58,-90.99 9.67,-91.13 8.62,-91.2 6.68,-88.34" fill="none" stroke="rgb(149, 69, 53)" stroke-width="2" stroke-linejoin="round" filter="url(#fuzzy)" /><polyline points="6.76,-88.14 7.56,-91.27 8.63,-91.86 9.58,-91.71 10.54,-91.83 11.61,-92.3 12.82,-92.81 14.1,-93.15 15.42,-93.33 16.78,-93.57 18.21,-94.06 19.68,-94.81 21.13,-95.63 22.49,-96.28 23.77,-96.79 25.14,-97.41 27.02,-97.86 3.53,-88.8 5.13,-93.93 6.31,-93.24 7.44,-92.63 8.61,-93.29 9.74,-94.51 10.82,-95.47 11.9,-95.94 13.1,-96.24 14.43,-96.7 15.84,-97.29 17.24,-97.65 18.63,-97.62 20.05,-97.64 21.55,-98.51 23.33,-100.56" fill="none" stroke="rgb(149, 69, 53)" stroke-width="2" stroke-linejoin="round" filter="url(#fuzzy)" /><polyline points="19.7,-79.1 19.43,-79.81 18.67,-80.31 17.76,-80.92 16.79,-81.69 15.79,-82.56 14.76,-83.4 13.72,-84.16 12.67,-84.85 11.65,-85.49 10.68,-86.07 9.77,-86.51 8.87,-86.75 7.93,-86.81 6.9,-86.8 5.77,-86.92 4.49,-87.34 2.95,-88.08 0.89,-88.6 0.89,-88.6 0.38,-87.28 -0.19,-86.2 -1,-86.07 -1.97,-86.44 -2.96,-86.8 -3.92,-86.91 -4.84,-86.69 -5.75,-86.18 -6.67,-85.48 -7.59,-84.66 -8.53,-83.81 -9.49,-82.98 -10.5,-82.11 -11.51,-81.1 -12.31,-79.89 -12.28,-78.76 0.89,-88.6 3.04,-90.03 4.63,-89.8 5.97,-89.7 7.2,-90.13 8.36,-90.99 9.47,-92.03 10.57,-92.99 11.7,-93.68 12.89,-94.05 14.16,-94.26 15.52,-94.52 16.96,-95 18.47,-95.72 20.02,-96.65 21.58,-97.76 23.12,-99.01 24.6,-100.2 26.03,-100.95 27.85,-100.86" fill="none" stroke="rgb(149, 69, 53)" stroke-width="2" stroke-linejoin="round" filter="url(#fuzzy)" />
    </g>
    
        <g id="lineNose">
        <path d="M -9.27,15.9 Q 10.51, 24.645 0.6200000000000001, -5.3420000000000005" fill="none" stroke="black" stroke-width="3" stroke-linejoin="round" filter="url(#fuzzy)"></path>
        </g>
      
    <g id="mouth">
      <polyline points="52.68,43.59 52.59,43.88 52.7,44.41 52.58,44.31 52.78,45.08 52.73,45.37 52.21,46.76 52.04,46.81 52.06,46.95 52.11,46.96 51.42,47.97 51.73,47.69 51.36,48.14 50.59,49.14 50.95,48.86 49.29,50.45 49.95,50.01 49.38,50.35 47.59,51.89 48.04,51.62 47.64,51.91 45.75,53.18 44.88,53.73 45.86,53.19 45.72,53.32 44.57,54.01 42.79,54.96 43.33,54.7 40.27,56.23 40.24,56.24 40.73,56.01 39.71,56.43 38.16,57.13 37.25,57.49 36.37,57.84 36.42,57.77 34.24,58.61 34.3,58.55 31.62,59.44 29.74,59.96 30.52,59.76 30.82,59.68 27.3,60.6 28.65,60.26 26.76,60.75 25.41,61.06 23.76,61.4 24.94,61.17 23.39,61.48 21.05,61.92 18.26,62.36 19.63,62.16 16.58,62.59 17.78,62.43 15.45,62.73 14.69,62.81 14.19,62.85 11.09,63.1 13.3,62.94 11.85,63.06 8.78,63.23 6.79,63.27 6.03,63.28 4.26,63.29 6.24,63.29 3.34,63.24 3.14,63.26 1.87,63.13 1.21,63.16 -0.1,63 0.06,63.04 -0.85,62.95 -2.6,62.74 -3.71,62.56 -3.52,62.61 -4.71,62.43 -5.96,62.15 -7.52,61.8 -8.11,61.58 -7.28,61.84 -8.02,61.64 -8.67,61.52 -10.61,60.84 -10.28,61 -11.38,60.37 -12.81,59.76 -12.22,60.12 -12.36,59.9 -14.07,59.07 -14.14,58.94 -14.66,58.64 -14.77,58.51 -15.33,58.08 -15.95,57.14 -16.32,56.79 -15.87,57.47 -16.66,56.16 -16.54,56.38 -16.43,56.09 -16.86,54.96 -16.7,55.31 -16.89,55.06 -16.86,53.59 -16.83,53.44 -16.76,53.15 -17.01,53.56 -17.02,53.03 -16.19,51.34 -16.19,50.94 -16.59,51.87 -15.71,50.33 -15.19,49.86 -15.54,50.02 -15.09,49.69 -15.03,49.42 -13.29,47.84 -13.39,47.72 -12.7,47.26 -12.36,46.97 -11.85,46.66 -12.28,46.82 -11.93,46.53 -10.97,45.94 -9.76,45.13 -8.23,44.2 -7.31,43.77 -8.46,44.4 -6.99,43.51 -6.02,43.09 -5.05,42.68 -3.94,42.17 -1.99,41.34 -1.35,41.03 -1.21,41 -2.43,41.46 -0.68,40.83 0.61,40.32 0.65,40.3 1.42,40.06 5.35,38.86 6.15,38.65 7.36,38.31 7.58,38.27 7.52,38.27 8.41,38.04 10.33,37.61 12.75,37.1 13.06,37.04 14.71,36.74 13.38,36.99 16.57,36.44 18.3,36.19 16.63,36.43 18.39,36.18 20.77,35.9 20.9,35.88 23.88,35.6 22.08,35.76 25.23,35.52 26.02,35.47 28.5,35.37 27.48,35.41 28.42,35.4 31.18,35.38 29.24,35.38 31.89,35.39 33.07,35.46 34.66,35.48 33.53,35.47 37.34,35.73 37.29,35.75 37.04,35.73 37.75,35.78 39.26,35.97 40.98,36.32 40.99,36.24 43.51,36.81 42.44,36.6 44.33,37.12 43.57,36.85 43.65,36.95 44.54,37.24 46.52,37.8 45.48,37.54 47.32,38.15 47.75,38.45 48.93,39.1 48.13,38.65 50.14,39.92 49.77,39.75 50.29,40.05 50.15,39.84 50.43,40.19 50.68,40.42 51.81,41.92 52.16,42.01 52.12,42.3 52.05,42.2 52.38,43.07 52.46,43.73" fill="rgb(215,127,140)" stroke="black" stroke-width="3" stroke-linejoin="round" filter="url(#fuzzy)" />
    </g>
  </svg>