<svg viewBox="-100 -100 200 200" xmlns="http://www.w3.org/2000/svg" width="500" height="500" id="face-svg">
    <defs>
      <clipPath id="leftEyeClipPath">
        <polyline points="27.37,-7.53 27.26,-7.99 27.1,-8.42 26.92,-8.83 26.69,-9.21 26.44,-9.57 26.14,-9.91 25.82,-10.22 25.46,-10.52 25.07,-10.8 24.65,-11.05 24.2,-11.29 23.72,-11.52 23.21,-11.73 22.68,-11.92 22.12,-12.1 21.56,-12.27 20.96,-12.43 20.33,-12.58 19.65,-12.71 18.93,-12.84 18.18,-12.95 17.4,-13.06 16.58,-13.15 15.73,-13.24 14.85,-13.32 13.95,-13.39 13.02,-13.45 12.07,-13.51 11.1,-13.56 10.11,-13.6 9.11,-13.63 8.1,-13.66 7.07,-13.69 6.04,-13.7 5,-13.72 3.97,-13.72 2.93,-13.73 1.89,-13.72 0.86,-13.72 -0.17,-13.7 -1.18,-13.68 -2.19,-13.66 -3.19,-13.63 -4.17,-13.6 -5.13,-13.56 -6.08,-13.52 -7,-13.47 -7.91,-13.42 -8.8,-13.36 -9.66,-13.3 -10.5,-13.23 -11.31,-13.16 -12.1,-13.08 -12.86,-12.99 -13.59,-12.91 -14.3,-12.81 -14.98,-12.71 -15.63,-12.61 -16.25,-12.49 -16.85,-12.38 -17.42,-12.26 -17.96,-12.13 -18.47,-11.99 -18.96,-11.86 -19.42,-11.71 -19.86,-11.56 -20.28,-11.4 -20.67,-11.24 -21.03,-11.07 -21.38,-10.9 -21.69,-10.72 -21.99,-10.53 -22.26,-10.33 -22.51,-10.13 -22.73,-9.92 -22.94,-9.71 -23.12,-9.49 -23.28,-9.26 -23.41,-9.03 -23.05,-5.29 -22.72,-4.87 -22.37,-4.43 -22.01,-3.99 -21.63,-3.54 -21.24,-3.08 -20.83,-2.61 -20.41,-2.13 -19.97,-1.64 -19.52,-1.15 -19.06,-0.65 -18.58,-0.14 -18.09,0.37 -17.59,0.89 -17.07,1.41 -16.53,1.94 -15.98,2.48 -15.42,3.02 -14.84,3.57 -14.24,4.12 -13.63,4.68 -13.01,5.24 -12.37,5.8 -11.71,6.36 -11.05,6.91 -10.37,7.46 -9.68,8.01 -8.97,8.55 -8.26,9.07 -7.53,9.59 -6.8,10.1 -6.06,10.58 -5.3,11.06 -4.54,11.51 -3.77,11.94 -2.99,12.35 -2.21,12.73 -1.42,13.08 -0.63,13.41 0.17,13.7 0.97,13.96 1.77,14.19 2.58,14.37 3.39,14.52 4.2,14.63 5.01,14.69 5.82,14.72 6.62,14.69 7.43,14.62 8.24,14.5 9.04,14.34 9.84,14.12 10.63,13.86 11.42,13.54 12.2,13.18 12.98,12.76 13.75,12.29 14.51,11.78 15.27,11.21 16.01,10.6 16.74,9.94 17.47,9.24 18.18,8.49 18.88,7.71 19.57,6.89 20.15,6.35 20.73,5.79 21.29,5.22 21.84,4.62 22.38,4.02 22.9,3.4 23.4,2.77 23.89,2.14 24.36,1.5 24.81,0.85 25.24,0.2 25.64,-0.44 26.03,-1.08 26.39,-1.72 26.72,-2.34" />
      </clipPath>
      <clipPath id="rightEyeClipPath">
        <polyline points="-26.46,-4.2 -26.49,-4.83 -26.47,-5.42 -26.41,-5.98 -26.29,-6.5 -26.12,-6.99 -25.91,-7.45 -25.65,-7.88 -25.35,-8.29 -25,-8.66 -24.62,-9.01 -24.19,-9.34 -23.73,-9.64 -23.23,-9.93 -22.7,-10.19 -22.13,-10.43 -21.55,-10.66 -20.92,-10.87 -20.25,-11.07 -19.53,-11.25 -18.76,-11.42 -17.96,-11.57 -17.12,-11.71 -16.24,-11.83 -15.34,-11.95 -14.4,-12.05 -13.43,-12.14 -12.45,-12.23 -11.44,-12.3 -10.41,-12.36 -9.37,-12.42 -8.31,-12.47 -7.25,-12.51 -6.18,-12.55 -5.1,-12.58 -4.03,-12.6 -2.95,-12.61 -1.88,-12.62 -0.82,-12.63 0.23,-12.63 1.27,-12.62 2.3,-12.61 3.31,-12.6 4.3,-12.58 5.27,-12.56 6.22,-12.53 7.15,-12.49 8.05,-12.46 8.93,-12.42 9.77,-12.37 10.59,-12.32 11.38,-12.27 12.14,-12.21 12.87,-12.14 13.56,-12.08 14.22,-12.01 14.86,-11.93 15.46,-11.85 16.02,-11.77 16.56,-11.68 17.06,-11.59 17.54,-11.49 17.98,-11.39 18.4,-11.29 18.78,-11.18 19.14,-11.07 19.48,-10.95 19.79,-10.83 20.07,-10.7 20.32,-10.57 20.55,-10.43 20.75,-10.29 20.93,-10.14 21.08,-9.99 21.21,-9.83 21.31,-9.67 21.39,-9.5 21.45,-9.33 21.48,-9.15 21.49,-8.97 20.31,-5.69 19.93,-5.33 19.53,-4.95 19.12,-4.56 18.7,-4.16 18.27,-3.75 17.83,-3.34 17.38,-2.91 16.92,-2.48 16.45,-2.04 15.97,-1.58 15.48,-1.13 14.99,-0.66 14.48,-0.18 13.97,0.3 13.45,0.79 12.91,1.29 12.37,1.8 11.82,2.31 11.25,2.83 10.68,3.36 10.1,3.89 9.51,4.43 8.91,4.97 8.31,5.51 7.7,6.05 7.09,6.59 6.47,7.13 5.84,7.66 5.22,8.18 4.58,8.7 3.95,9.2 3.31,9.7 2.66,10.18 2.01,10.64 1.36,11.08 0.71,11.5 0.05,11.9 -0.61,12.28 -1.27,12.62 -1.94,12.94 -2.61,13.22 -3.29,13.48 -3.97,13.69 -4.65,13.87 -5.33,14 -6.03,14.09 -6.72,14.14 -7.42,14.15 -8.13,14.11 -8.84,14.01 -9.55,13.87 -10.27,13.68 -11,13.44 -11.73,13.14 -12.46,12.79 -13.21,12.39 -13.95,11.94 -14.7,11.43 -15.46,10.88 -16.22,10.27 -16.98,9.61 -17.74,8.91 -18.5,8.16 -19.26,7.37 -19.85,6.88 -20.43,6.36 -20.99,5.83 -21.55,5.27 -22.1,4.7 -22.63,4.12 -23.15,3.52 -23.66,2.92 -24.14,2.3 -24.61,1.68 -25.06,1.05 -25.48,0.42 -25.88,-0.2 -26.25,-0.82 -26.59,-1.43" />
      </clipPath>
      <filter id="fuzzy">
        <feTurbulence id="turbulence" baseFrequency="0.05" numOctaves="3" type="noise" result="noise" />
        <feDisplacementMap in="SourceGraphic" in2="noise" scale="2" />
      </filter>
      <linearGradient id="rainbowGradient" x1="0%" y1="0%" x2="100%" y2="0%">
        <stop offset="0%" style="stop-color: [object Object]; stop-opacity: 1" />
        <stop offset="50%" style="stop-color: [object Object]; stop-opacity: 1" />
        <stop offset="100%" style="stop-color: [object Object]; stop-opacity: 1" />
      </linearGradient>
    </defs>
    <rect x="-100" y="-100" width="100%" height="100%" fill="rgb(255, 228, 225)" />
    <polyline id="faceContour" points="69.83,1.47 69.72,0.69 69.58,2.67 69.63,3.18 69.43,4.47 69.53,6.26 69.37,8.29 69.34,8.67 69.02,10.46 69.29,9.98 68.77,11.66 69.04,11.67 68.61,12.67 68.11,16.85 67.78,18.56 67.72,18.86 67.54,18.79 67.25,20.36 66.83,22.17 66.48,23.37 66.41,23.49 65.46,26.51 65.44,27.28 64.69,28.57 65.12,27.89 63.84,30.97 64.04,30.7 63.65,31.54 62.6,33.92 62.39,34.24 61.41,37.22 62.01,35.45 60.66,38.48 60.52,38.55 60.71,38.38 59.04,41.1 58.98,41.8 58.1,42.77 56.88,45.02 56.43,45.82 56.19,45.93 55.52,46.96 54.79,48.02 54.05,49.14 54.17,48.83 52.82,50.9 52.63,51.07 51.08,52.85 50.22,53.76 49.9,54.39 49.25,55.04 49.19,54.96 47.56,56.74 45.27,59.19 46.43,58.24 44.6,59.96 43.72,60.57 42.6,61.55 43.49,60.9 41.84,62.4 41.32,62.8 38.67,64.89 38.84,64.54 38.95,64.53 37.26,65.88 35.34,67.24 36.52,66.28 34.29,67.59 33.95,68.08 31.09,69.51 31.79,69.22 31.45,69.41 28.82,70.73 28.15,71.32 28.94,70.82 27.04,71.62 25.08,72.8 25.78,72.07 23.13,73.3 22.04,73.96 21.91,74 20.4,74.36 18.51,75.02 17.75,75.08 16.41,75.51 17.12,75.46 15.69,75.96 12.83,76.43 14.79,75.85 12.18,76.61 12.29,76.4 9.32,77.24 8.27,77.07 8.74,77.29 7.15,77.48 5.01,77.64 3.87,77.69 2.36,77.9 0.94,77.77 1.32,77.73 -2.06,77.74 -1.85,77.69 -1.82,77.83 -4.7,77.75 -3.7,77.77 -5.95,77.67 -7,77.51 -8.31,77.34 -8.09,77.19 -9.32,76.95 -11.17,76.87 -10.95,76.85 -11.38,76.72 -13.82,76.41 -14.75,76.07 -14.94,76.07 -17.38,75.52 -18.24,74.98 -18.34,75.08 -20.46,74.52 -22.39,73.68 -22.06,73.96 -23.08,73.57 -25.62,72.37 -25.51,72.21 -27.84,71.18 -27.63,71.23 -29.68,70.53 -29.63,70.41 -31.51,69.22 -30.88,69.7 -31.02,69.58 -34.45,67.49 -35.07,67.12 -36.29,66.27 -37.03,66.11 -36.18,66.33 -38.09,65.22 -38.43,64.73 -40.48,63.08 -41.11,63.11 -41.28,62.83 -42.89,61.02 -43.58,60.68 -44.42,59.9 -45.41,58.91 -45.47,58.85 -46.47,57.88 -47.29,56.8 -47.35,56.89 -49.66,54.85 -50.25,53.81 -51.66,52.46 -51.01,53.25 -51.77,52.16 -53.14,50.47 -54.36,48.51 -54.56,48.32 -53.97,49.39 -55.86,46.6 -56.74,45.59 -56.5,45.45 -58.31,42.57 -58.55,41.96 -58.56,42.52 -60.11,39.58 -60.23,39.2 -60.05,39.03 -60.96,37.44 -61,37.58 -61.78,35.81 -63.08,33.18 -63.22,32.27 -63.54,31.8 -64.23,30.42 -64.74,28.86 -65.22,27.01 -65.24,27.4 -65.73,25.92 -66.21,24.78 -66.53,22.76 -66.39,23.46 -66.66,22.47 -67.29,20.31 -67.92,18.05 -67.69,17.81 -68.14,17.08 -68.11,15.87 -68.68,14.23 -68.5,13.19 -68.83,11.69 -68.9,11.08 -69,10.22 -69.26,8.94 -69.33,7.02 -69.54,6.55 -69.48,4.4 -69.62,3.17 -69.58,3.54 -69.56,1.54 -69.54,0.05 -69.78,-1.74 -69.48,-3 -69.62,-2.94 -69.53,-5.02 -69.35,-6.85 -69.46,-7.16 -69.16,-8.13 -69.25,-9.68 -68.9,-11.16 -68.65,-13.17 -68.82,-12.44 -68.23,-14.79 -68.49,-14.51 -68.28,-16.09 -67.65,-18.8 -67.39,-20.19 -67.36,-19.54 -67.19,-21.38 -66.47,-24.06 -66.25,-24.27 -66.34,-24.09 -65.59,-25.85 -65.34,-27.39 -64.65,-28.85 -64.33,-30.02 -63.89,-30.89 -64.05,-30.91 -63.61,-31.96 -62.43,-35.04 -62.34,-34.69 -61.56,-36.56 -60.75,-38.02 -60.36,-39.06 -59.43,-40.56 -60.09,-39.66 -58.68,-41.88 -58,-43.06 -57.71,-43.5 -57.29,-44.31 -55.54,-46.95 -56.16,-46 -54.86,-48.06 -55.22,-47.45 -53.63,-49.99 -53.05,-50.63 -51.44,-52.24 -50.54,-53.59 -50.44,-53.45 -50.47,-53.44 -50.35,-54.1 -47.99,-56.44 -47.61,-56.77 -47.26,-56.87 -46.22,-58.18 -45.46,-59.09 -43.66,-60.74 -43.74,-60.85 -43.31,-60.95 -41.83,-62.37 -42.19,-61.9 -41.03,-63.11 -39.63,-64.08 -38.6,-64.93 -37.29,-65.77 -36.23,-66.46 -34.88,-67.18 -33.98,-68.04 -32.95,-68.65 -32.63,-68.92 -30.98,-69.57 -31.62,-69.17 -29.93,-70.38 -29.69,-70.41 -25.95,-72.13 -24.85,-72.87 -26.37,-72.21 -24.16,-73.02 -21.69,-73.8 -22.72,-73.61 -21.43,-73.83 -18.83,-74.74 -18.39,-74.95 -19.09,-74.76 -17.21,-75.2 -16.65,-75.45 -14.41,-75.95 -14.69,-75.96 -13.3,-76.16 -11.04,-77.03 -10.08,-76.92 -9.34,-76.91 -8.62,-77.39 -8.45,-77.37 -6.02,-77.52 -4.41,-77.49 -3.31,-77.85 -4.85,-77.51 -2.72,-77.69 -1.12,-78 1.61,-77.97 -0.07,-77.68 2.15,-77.82 1.96,-77.77 4.51,-77.56 5.07,-77.68 6.73,-77.44 7.66,-77.27 10.25,-76.88 11.22,-76.78 10.18,-77.16 12.56,-76.35 14.38,-76.03 14.11,-76.31 15.1,-76.1 17.09,-75.64 17.36,-75.41 19.95,-74.56 18.93,-74.89 21.27,-74.07 21.97,-73.84 23.08,-73.33 24.36,-72.97 24.26,-73.04 26.19,-72.17 27.3,-71.54 28.77,-71 28.44,-71.12 29.82,-70.38 30.67,-69.79 31.18,-69.45 33.03,-68.42 34.04,-68.13 33.53,-68.07 34.73,-67.32 35.96,-66.93 37.12,-65.8 38.37,-64.95 39.25,-64.43 40.9,-62.8 40.88,-62.85 40.55,-63.18 42.46,-61.88 42.72,-61.27 43.65,-60.88 45.27,-59.27 47.26,-57.12 47.67,-56.75 47.77,-56.55 48.43,-55.93 49.63,-54.54 48.89,-55.44 50.37,-54.01 50.65,-53.31 51.48,-52.22 53.1,-50.35 53.97,-49.26 53.75,-49.33 55.73,-46.86 55.71,-46.61 56.25,-46.09 57.09,-44.57 57.64,-43.72 57.81,-43.83 59.09,-41.23 59.54,-40.17 60.34,-38.71 60.11,-39.34 61.13,-37.46 62.17,-35.4 62.38,-35.05 61.83,-35.86 62.74,-33.86 63.49,-32.22 63.98,-30.52 64.77,-28.33 65.28,-27.21 64.99,-27.67 65.49,-26.24 65.71,-26.28 66.65,-23.19 66.58,-22.84 66.95,-21.7 66.78,-21.76 67.26,-19.88 67.7,-18.74 67.86,-17.79 67.95,-17.02 68.33,-14.69 68.53,-12.84 68.76,-12.51 68.83,-12.59 69.13,-11.12 69.3,-8.73 69.5,-7.65 69.55,-6.58 69.59,-4.94 69.67,-4.34 69.77,-1.53 69.68,-1.41 69.83,1.47 69.72,0.69" fill="rgb(192, 64, 0)" stroke="black" stroke-width="1.6666666666666665" stroke-linejoin="round" filter="url(#fuzzy)" />
    <g transform="translate(40.61 -23.56)">
      <polyline id="rightCountour" points="-26.46,-4.2 -26.49,-4.83 -26.47,-5.42 -26.41,-5.98 -26.29,-6.5 -26.12,-6.99 -25.91,-7.45 -25.65,-7.88 -25.35,-8.29 -25,-8.66 -24.62,-9.01 -24.19,-9.34 -23.73,-9.64 -23.23,-9.93 -22.7,-10.19 -22.13,-10.43 -21.55,-10.66 -20.92,-10.87 -20.25,-11.07 -19.53,-11.25 -18.76,-11.42 -17.96,-11.57 -17.12,-11.71 -16.24,-11.83 -15.34,-11.95 -14.4,-12.05 -13.43,-12.14 -12.45,-12.23 -11.44,-12.3 -10.41,-12.36 -9.37,-12.42 -8.31,-12.47 -7.25,-12.51 -6.18,-12.55 -5.1,-12.58 -4.03,-12.6 -2.95,-12.61 -1.88,-12.62 -0.82,-12.63 0.23,-12.63 1.27,-12.62 2.3,-12.61 3.31,-12.6 4.3,-12.58 5.27,-12.56 6.22,-12.53 7.15,-12.49 8.05,-12.46 8.93,-12.42 9.77,-12.37 10.59,-12.32 11.38,-12.27 12.14,-12.21 12.87,-12.14 13.56,-12.08 14.22,-12.01 14.86,-11.93 15.46,-11.85 16.02,-11.77 16.56,-11.68 17.06,-11.59 17.54,-11.49 17.98,-11.39 18.4,-11.29 18.78,-11.18 19.14,-11.07 19.48,-10.95 19.79,-10.83 20.07,-10.7 20.32,-10.57 20.55,-10.43 20.75,-10.29 20.93,-10.14 21.08,-9.99 21.21,-9.83 21.31,-9.67 21.39,-9.5 21.45,-9.33 21.48,-9.15 21.49,-8.97 20.31,-5.69 19.93,-5.33 19.53,-4.95 19.12,-4.56 18.7,-4.16 18.27,-3.75 17.83,-3.34 17.38,-2.91 16.92,-2.48 16.45,-2.04 15.97,-1.58 15.48,-1.13 14.99,-0.66 14.48,-0.18 13.97,0.3 13.45,0.79 12.91,1.29 12.37,1.8 11.82,2.31 11.25,2.83 10.68,3.36 10.1,3.89 9.51,4.43 8.91,4.97 8.31,5.51 7.7,6.05 7.09,6.59 6.47,7.13 5.84,7.66 5.22,8.18 4.58,8.7 3.95,9.2 3.31,9.7 2.66,10.18 2.01,10.64 1.36,11.08 0.71,11.5 0.05,11.9 -0.61,12.28 -1.27,12.62 -1.94,12.94 -2.61,13.22 -3.29,13.48 -3.97,13.69 -4.65,13.87 -5.33,14 -6.03,14.09 -6.72,14.14 -7.42,14.15 -8.13,14.11 -8.84,14.01 -9.55,13.87 -10.27,13.68 -11,13.44 -11.73,13.14 -12.46,12.79 -13.21,12.39 -13.95,11.94 -14.7,11.43 -15.46,10.88 -16.22,10.27 -16.98,9.61 -17.74,8.91 -18.5,8.16 -19.26,7.37 -19.85,6.88 -20.43,6.36 -20.99,5.83 -21.55,5.27 -22.1,4.7 -22.63,4.12 -23.15,3.52 -23.66,2.92 -24.14,2.3 -24.61,1.68 -25.06,1.05 -25.48,0.42 -25.88,-0.2 -26.25,-0.82 -26.59,-1.43" fill="white" stroke="white" stroke-width="0" stroke-linejoin="round" filter="url(#fuzzy)" />
    </g>
    <g transform="translate(-34.88 -23.74)">
      <polyline id="leftCountour" points="27.37,-7.53 27.26,-7.99 27.1,-8.42 26.92,-8.83 26.69,-9.21 26.44,-9.57 26.14,-9.91 25.82,-10.22 25.46,-10.52 25.07,-10.8 24.65,-11.05 24.2,-11.29 23.72,-11.52 23.21,-11.73 22.68,-11.92 22.12,-12.1 21.56,-12.27 20.96,-12.43 20.33,-12.58 19.65,-12.71 18.93,-12.84 18.18,-12.95 17.4,-13.06 16.58,-13.15 15.73,-13.24 14.85,-13.32 13.95,-13.39 13.02,-13.45 12.07,-13.51 11.1,-13.56 10.11,-13.6 9.11,-13.63 8.1,-13.66 7.07,-13.69 6.04,-13.7 5,-13.72 3.97,-13.72 2.93,-13.73 1.89,-13.72 0.86,-13.72 -0.17,-13.7 -1.18,-13.68 -2.19,-13.66 -3.19,-13.63 -4.17,-13.6 -5.13,-13.56 -6.08,-13.52 -7,-13.47 -7.91,-13.42 -8.8,-13.36 -9.66,-13.3 -10.5,-13.23 -11.31,-13.16 -12.1,-13.08 -12.86,-12.99 -13.59,-12.91 -14.3,-12.81 -14.98,-12.71 -15.63,-12.61 -16.25,-12.49 -16.85,-12.38 -17.42,-12.26 -17.96,-12.13 -18.47,-11.99 -18.96,-11.86 -19.42,-11.71 -19.86,-11.56 -20.28,-11.4 -20.67,-11.24 -21.03,-11.07 -21.38,-10.9 -21.69,-10.72 -21.99,-10.53 -22.26,-10.33 -22.51,-10.13 -22.73,-9.92 -22.94,-9.71 -23.12,-9.49 -23.28,-9.26 -23.41,-9.03 -23.05,-5.29 -22.72,-4.87 -22.37,-4.43 -22.01,-3.99 -21.63,-3.54 -21.24,-3.08 -20.83,-2.61 -20.41,-2.13 -19.97,-1.64 -19.52,-1.15 -19.06,-0.65 -18.58,-0.14 -18.09,0.37 -17.59,0.89 -17.07,1.41 -16.53,1.94 -15.98,2.48 -15.42,3.02 -14.84,3.57 -14.24,4.12 -13.63,4.68 -13.01,5.24 -12.37,5.8 -11.71,6.36 -11.05,6.91 -10.37,7.46 -9.68,8.01 -8.97,8.55 -8.26,9.07 -7.53,9.59 -6.8,10.1 -6.06,10.58 -5.3,11.06 -4.54,11.51 -3.77,11.94 -2.99,12.35 -2.21,12.73 -1.42,13.08 -0.63,13.41 0.17,13.7 0.97,13.96 1.77,14.19 2.58,14.37 3.39,14.52 4.2,14.63 5.01,14.69 5.82,14.72 6.62,14.69 7.43,14.62 8.24,14.5 9.04,14.34 9.84,14.12 10.63,13.86 11.42,13.54 12.2,13.18 12.98,12.76 13.75,12.29 14.51,11.78 15.27,11.21 16.01,10.6 16.74,9.94 17.47,9.24 18.18,8.49 18.88,7.71 19.57,6.89 20.15,6.35 20.73,5.79 21.29,5.22 21.84,4.62 22.38,4.02 22.9,3.4 23.4,2.77 23.89,2.14 24.36,1.5 24.81,0.85 25.24,0.2 25.64,-0.44 26.03,-1.08 26.39,-1.72 26.72,-2.34" fill="white" stroke="white" stroke-width="0" stroke-linejoin="round" filter="url(#fuzzy)" />
    </g>
    <g transform="translate(40.61 -23.56)">
      <polyline id="rightUpper" points="-22.96,4.56 -23.59,3.46 -24.15,2.41 -24.65,1.41 -25.09,0.47 -25.46,-0.42 -25.78,-1.27 -26.03,-2.06 -26.23,-2.82 -26.37,-3.53 -26.46,-4.2 -26.49,-4.83 -26.47,-5.42 -26.41,-5.98 -26.29,-6.5 -26.12,-6.99 -25.91,-7.45 -25.65,-7.88 -25.35,-8.29 -25,-8.66 -24.62,-9.01 -24.19,-9.34 -23.73,-9.64 -23.23,-9.93 -22.7,-10.19 -22.13,-10.43 -21.55,-10.66 -20.92,-10.87 -20.25,-11.07 -19.53,-11.25 -18.76,-11.42 -17.96,-11.57 -17.12,-11.71 -16.24,-11.83 -15.34,-11.95 -14.4,-12.05 -13.43,-12.14 -12.45,-12.23 -11.44,-12.3 -10.41,-12.36 -9.37,-12.42 -8.31,-12.47 -7.25,-12.51 -6.18,-12.55 -5.1,-12.58 -4.03,-12.6 -2.95,-12.61 -1.88,-12.62 -0.82,-12.63 0.23,-12.63 1.27,-12.62 2.3,-12.61 3.31,-12.6 4.3,-12.58 5.27,-12.56 6.22,-12.53 7.15,-12.49 8.05,-12.46 8.93,-12.42 9.77,-12.37 10.59,-12.32 11.38,-12.27 12.14,-12.21 12.87,-12.14 13.56,-12.08 14.22,-12.01 14.86,-11.93 15.46,-11.85 16.02,-11.77 16.56,-11.68 17.06,-11.59 17.54,-11.49 17.98,-11.39 18.4,-11.29 18.78,-11.18 19.14,-11.07 19.48,-10.95 19.79,-10.83 20.07,-10.7 20.32,-10.57 20.55,-10.43 20.75,-10.29 20.93,-10.14 21.08,-9.99 21.21,-9.83 21.31,-9.67 21.39,-9.5 21.45,-9.33 21.48,-9.15 21.49,-8.97 21.48,-8.78 21.45,-8.59 21.4,-8.39 21.33,-8.19 21.24,-7.99 21.13,-7.77 21,-7.56 20.85,-7.34 20.69,-7.11 20.51,-6.89" fill="none" stroke="black" stroke-width="1.6666666666666665" stroke-linejoin="round" filter="url(#fuzzy)" />
      <polyline id="rightLower" points="-27.79,-6.28 -27.89,-5.97 -27.94,-5.6 -27.93,-5.19 -27.87,-4.74 -27.76,-4.25 -27.61,-3.73 -27.41,-3.19 -27.17,-2.62 -26.9,-2.03 -26.59,-1.43 -26.25,-0.82 -25.88,-0.2 -25.48,0.42 -25.06,1.05 -24.61,1.68 -24.14,2.3 -23.66,2.92 -23.15,3.52 -22.63,4.12 -22.1,4.7 -21.55,5.27 -20.99,5.83 -20.43,6.36 -19.85,6.88 -19.26,7.37 -18.5,8.16 -17.74,8.91 -16.98,9.61 -16.22,10.27 -15.46,10.88 -14.7,11.43 -13.95,11.94 -13.21,12.39 -12.46,12.79 -11.73,13.14 -11,13.44 -10.27,13.68 -9.55,13.87 -8.84,14.01 -8.13,14.11 -7.42,14.15 -6.72,14.14 -6.03,14.09 -5.33,14 -4.65,13.87 -3.97,13.69 -3.29,13.48 -2.61,13.22 -1.94,12.94 -1.27,12.62 -0.61,12.28 0.05,11.9 0.71,11.5 1.36,11.08 2.01,10.64 2.66,10.18 3.31,9.7 3.95,9.2 4.58,8.7 5.22,8.18 5.84,7.66 6.47,7.13 7.09,6.59 7.7,6.05 8.31,5.51 8.91,4.97 9.51,4.43 10.1,3.89 10.68,3.36 11.25,2.83 11.82,2.31 12.37,1.8 12.91,1.29 13.45,0.79 13.97,0.3 14.48,-0.18 14.99,-0.66 15.48,-1.13 15.97,-1.58 16.45,-2.04 16.92,-2.48 17.38,-2.91 17.83,-3.34 18.27,-3.75 18.7,-4.16 19.12,-4.56 19.53,-4.95 19.93,-5.33 20.31,-5.69 20.69,-6.05 21.05,-6.4 21.4,-6.74 21.73,-7.07 22.06,-7.4 22.37,-7.71 22.67,-8.01 22.96,-8.31 23.24,-8.59 23.51,-8.87" fill="none" stroke="black" stroke-width="2.2222222222222223" stroke-linejoin="round" filter="url(#fuzzy)" />
      <circle r="3.458" cx="-20.796760458087903" cy="-7.142643821309202" stroke="black" fill="none" stroke-width="1.0" filter="url(#fuzzy)" clip-path="url(#rightEyeClipPath)" /><circle r="3.388" cx="-21.2367604580879" cy="-4.622643821309201" stroke="black" fill="none" stroke-width="1.0" filter="url(#fuzzy)" clip-path="url(#rightEyeClipPath)" /><circle r="3.734" cx="-20.4267604580879" cy="-7.6476438213092015" stroke="black" fill="none" stroke-width="1.0" filter="url(#fuzzy)" clip-path="url(#rightEyeClipPath)" /><circle r="4.96" cx="-20.506760458087903" cy="-4.177643821309202" stroke="black" fill="none" stroke-width="1.0" filter="url(#fuzzy)" clip-path="url(#rightEyeClipPath)" /><circle r="3.154" cx="-20.171760458087903" cy="-4.652643821309201" stroke="black" fill="none" stroke-width="1.0" filter="url(#fuzzy)" clip-path="url(#rightEyeClipPath)" /><circle r="3.216" cx="-20.3267604580879" cy="-5.797643821309201" stroke="black" fill="none" stroke-width="1.0" filter="url(#fuzzy)" clip-path="url(#rightEyeClipPath)" /><circle r="4.812" cx="-23.956760458087903" cy="-4.932643821309202" stroke="black" fill="none" stroke-width="1.0" filter="url(#fuzzy)" clip-path="url(#rightEyeClipPath)" /><circle r="3.24" cx="-22.5217604580879" cy="-7.262643821309202" stroke="black" fill="none" stroke-width="1.0" filter="url(#fuzzy)" clip-path="url(#rightEyeClipPath)" /><circle r="3.124" cx="-21.636760458087902" cy="-7.8576438213092015" stroke="black" fill="none" stroke-width="1.0" filter="url(#fuzzy)" clip-path="url(#rightEyeClipPath)" /><circle r="3.89" cx="-20.296760458087903" cy="-7.4826438213092015" stroke="black" fill="none" stroke-width="1.0" filter="url(#fuzzy)" clip-path="url(#rightEyeClipPath)" />
      </g>
    <g transform="translate(-34.88 -23.74)">
      <polyline id="leftUpper" points="26.42,-1.16 26.69,-1.96 26.92,-2.72 27.12,-3.45 27.27,-4.13 27.38,-4.78 27.46,-5.39 27.49,-5.97 27.49,-6.52 27.45,-7.04 27.37,-7.53 27.26,-7.99 27.1,-8.42 26.92,-8.83 26.69,-9.21 26.44,-9.57 26.14,-9.91 25.82,-10.22 25.46,-10.52 25.07,-10.8 24.65,-11.05 24.2,-11.29 23.72,-11.52 23.21,-11.73 22.68,-11.92 22.12,-12.1 21.56,-12.27 20.96,-12.43 20.33,-12.58 19.65,-12.71 18.93,-12.84 18.18,-12.95 17.4,-13.06 16.58,-13.15 15.73,-13.24 14.85,-13.32 13.95,-13.39 13.02,-13.45 12.07,-13.51 11.1,-13.56 10.11,-13.6 9.11,-13.63 8.1,-13.66 7.07,-13.69 6.04,-13.7 5,-13.72 3.97,-13.72 2.93,-13.73 1.89,-13.72 0.86,-13.72 -0.17,-13.7 -1.18,-13.68 -2.19,-13.66 -3.19,-13.63 -4.17,-13.6 -5.13,-13.56 -6.08,-13.52 -7,-13.47 -7.91,-13.42 -8.8,-13.36 -9.66,-13.3 -10.5,-13.23 -11.31,-13.16 -12.1,-13.08 -12.86,-12.99 -13.59,-12.91 -14.3,-12.81 -14.98,-12.71 -15.63,-12.61 -16.25,-12.49 -16.85,-12.38 -17.42,-12.26 -17.96,-12.13 -18.47,-11.99 -18.96,-11.86 -19.42,-11.71 -19.86,-11.56 -20.28,-11.4 -20.67,-11.24 -21.03,-11.07 -21.38,-10.9 -21.69,-10.72 -21.99,-10.53 -22.26,-10.33 -22.51,-10.13 -22.73,-9.92 -22.94,-9.71 -23.12,-9.49 -23.28,-9.26 -23.41,-9.03 -23.53,-8.78 -23.63,-8.54 -23.7,-8.28 -23.76,-8.03 -23.8,-7.76 -23.82,-7.49 -23.82,-7.21 -23.8,-6.93 -23.77,-6.64 -23.72,-6.34" fill="none" stroke="black" stroke-width="2.2222222222222223" stroke-linejoin="round" filter="url(#fuzzy)" />
      <polyline id="leftLower" points="28.37,-7.23 28.37,-6.91 28.33,-6.54 28.25,-6.13 28.13,-5.68 27.97,-5.19 27.79,-4.67 27.56,-4.12 27.31,-3.55 27.03,-2.95 26.72,-2.34 26.39,-1.72 26.03,-1.08 25.64,-0.44 25.24,0.2 24.81,0.85 24.36,1.5 23.89,2.14 23.4,2.77 22.9,3.4 22.38,4.02 21.84,4.62 21.29,5.22 20.73,5.79 20.15,6.35 19.57,6.89 18.88,7.71 18.18,8.49 17.47,9.24 16.74,9.94 16.01,10.6 15.27,11.21 14.51,11.78 13.75,12.29 12.98,12.76 12.2,13.18 11.42,13.54 10.63,13.86 9.84,14.12 9.04,14.34 8.24,14.5 7.43,14.62 6.62,14.69 5.82,14.72 5.01,14.69 4.2,14.63 3.39,14.52 2.58,14.37 1.77,14.19 0.97,13.96 0.17,13.7 -0.63,13.41 -1.42,13.08 -2.21,12.73 -2.99,12.35 -3.77,11.94 -4.54,11.51 -5.3,11.06 -6.06,10.58 -6.8,10.1 -7.53,9.59 -8.26,9.07 -8.97,8.55 -9.68,8.01 -10.37,7.46 -11.05,6.91 -11.71,6.36 -12.37,5.8 -13.01,5.24 -13.63,4.68 -14.24,4.12 -14.84,3.57 -15.42,3.02 -15.98,2.48 -16.53,1.94 -17.07,1.41 -17.59,0.89 -18.09,0.37 -18.58,-0.14 -19.06,-0.65 -19.52,-1.15 -19.97,-1.64 -20.41,-2.13 -20.83,-2.61 -21.24,-3.08 -21.63,-3.54 -22.01,-3.99 -22.37,-4.43 -22.72,-4.87 -23.05,-5.29 -23.36,-5.71 -23.67,-6.12 -23.95,-6.51 -24.23,-6.9 -24.49,-7.28 -24.73,-7.65 -24.96,-8.01 -25.17,-8.36 -25.38,-8.7 -25.56,-9.03" fill="none" stroke="black" stroke-width="2.2222222222222223" stroke-linejoin="round" filter="url(#fuzzy)" />
      <circle r="3.5" cx="-13.929413880947418" cy="0.5699894011088982" stroke="black" fill="none" stroke-width="1.0" filter="url(#fuzzy)" clip-path="url(#leftEyeClipPath)" /><circle r="4.284" cx="-16.39441388094742" cy="-1.4400105988911012" stroke="black" fill="none" stroke-width="1.0" filter="url(#fuzzy)" clip-path="url(#leftEyeClipPath)" /><circle r="3.058" cx="-15.134413880947418" cy="-2.1200105988911013" stroke="black" fill="none" stroke-width="1.0" filter="url(#fuzzy)" clip-path="url(#leftEyeClipPath)" /><circle r="3.116" cx="-14.884413880947418" cy="-2.0200105988911012" stroke="black" fill="none" stroke-width="1.0" filter="url(#fuzzy)" clip-path="url(#leftEyeClipPath)" /><circle r="4.518" cx="-12.679413880947418" cy="0.7049894011088988" stroke="black" fill="none" stroke-width="1.0" filter="url(#fuzzy)" clip-path="url(#leftEyeClipPath)" /><circle r="4.958" cx="-15.599413880947418" cy="-1.5650105988911012" stroke="black" fill="none" stroke-width="1.0" filter="url(#fuzzy)" clip-path="url(#leftEyeClipPath)" /><circle r="3.008" cx="-15.289413880947418" cy="-1.5000105988911012" stroke="black" fill="none" stroke-width="1.0" filter="url(#fuzzy)" clip-path="url(#leftEyeClipPath)" /><circle r="4.652" cx="-15.979413880947419" cy="-3.3700105988911013" stroke="black" fill="none" stroke-width="1.0" filter="url(#fuzzy)" clip-path="url(#leftEyeClipPath)" /><circle r="3.77" cx="-11.814413880947418" cy="-2.8900105988911013" stroke="black" fill="none" stroke-width="1.0" filter="url(#fuzzy)" clip-path="url(#leftEyeClipPath)" /><circle r="3.844" cx="-13.039413880947418" cy="-2.4350105988911013" stroke="black" fill="none" stroke-width="1.0" filter="url(#fuzzy)" clip-path="url(#leftEyeClipPath)" />
    </g>
    <g id="hairs">
      <polyline points="29.82,-70.38 30.66,-69.82 31.69,-69.17 32.8,-68.5 33.87,-67.81 34.94,-67.1 36.04,-66.35 37.18,-65.55 38.29,-64.76 39.31,-64.03 40.15,-63.41 40.78,-62.96 41.19,-62.66 41.41,-62.5 41.48,-62.45 41.41,-62.5 41.13,-62.71 40.55,-63.15 39.55,-63.93 38.02,-65.15" fill="none" stroke="rgb(233, 236, 239)" stroke-width="2" stroke-linejoin="round" filter="url(#fuzzy)" /><polyline points="-31.62,-69.17 -30.01,-70 -27.89,-70.62 -25.38,-71.09 -22.68,-71.36 -19.79,-71.46 -16.65,-71.45 -13.22,-71.36 -9.53,-71.2 -5.58,-70.97 -1.44,-70.67 2.86,-70.32 7.27,-69.93 11.74,-69.54 16.24,-69.2 20.72,-68.91 25.11,-68.64 29.38,-68.35" fill="none" stroke="rgb(233, 236, 239)" stroke-width="2" stroke-linejoin="round" filter="url(#fuzzy)" /><polyline points="17.09,-75.64 17.94,-75.25 19.15,-74.74 20.44,-74.2 21.83,-73.6 23.29,-72.96 24.77,-72.29 26.25,-71.61 27.69,-70.93 29.05,-70.28 30.27,-69.7 31.3,-69.22 32.07,-68.86 32.61,-68.62 32.94,-68.47 33.1,-68.41 33.07,-68.46 32.6,-68.71" fill="none" stroke="rgb(233, 236, 239)" stroke-width="2" stroke-linejoin="round" filter="url(#fuzzy)" /><polyline points="26.19,-72.17 27.18,-71.66 27.83,-71.3 28.22,-71.01 28.42,-70.71 28.44,-70.43 28.24,-70.19 27.76,-70.01 26.96,-69.92 25.81,-69.89 24.3,-69.93 22.43,-70.01 20.18,-70.15 17.5,-70.36 14.3,-70.67 10.51,-71.11 6.08,-71.69 1.07,-72.41 -4.49,-73.25 -10.61,-74.17" fill="none" stroke="rgb(233, 236, 239)" stroke-width="2" stroke-linejoin="round" filter="url(#fuzzy)" /><polyline points="-25.95,-72.13 -25.32,-72.49 -24.42,-72.71 -22.95,-73 -21.13,-73.33 -19.11,-73.67 -16.98,-73.99 -14.77,-74.31 -12.52,-74.61 -10.26,-74.9 -7.99,-75.18 -5.7,-75.47 -3.43,-75.75 -1.2,-76.01 0.93,-76.27 2.92,-76.51 4.74,-76.72 6.35,-76.89 7.54,-77.02" fill="none" stroke="rgb(233, 236, 239)" stroke-width="2" stroke-linejoin="round" filter="url(#fuzzy)" /><polyline points="30.67,-69.79 31.42,-69.31 32.13,-68.81 32.48,-68.39 32.55,-67.99 32.43,-67.56 32.12,-67.09 31.58,-66.58 30.72,-66.08 29.5,-65.62 27.85,-65.21 25.79,-64.87 23.32,-64.58 20.5,-64.3 17.32,-64.03 13.79,-63.75 9.84,-63.47 5.4,-63.2 0.4,-62.98 -5.2,-62.82 -11.42,-62.72 -18.24,-62.63 -25.65,-62.52 -33.63,-62.3" fill="none" stroke="rgb(233, 236, 239)" stroke-width="2" stroke-linejoin="round" filter="url(#fuzzy)" /><polyline points="61.13,-37.46 61.44,-36.3 60.64,-36.12 59.03,-36.3 56.69,-36.59 53.59,-37.05 49.62,-37.84 44.68,-39.13 38.7,-40.99 31.62,-43.42 23.44,-46.35 14.19,-49.72 3.95,-53.56 -7.29,-57.96 -19.61,-63" fill="none" stroke="rgb(233, 236, 239)" stroke-width="2" stroke-linejoin="round" filter="url(#fuzzy)" /><polyline points="33.53,-68.07 34.48,-67.42 35.02,-66.74 35.1,-66 34.63,-65.25 33.57,-64.53 31.87,-63.88 29.53,-63.29 26.59,-62.72 23.1,-62.13 19.07,-61.48 14.48,-60.76 9.26,-59.99 3.32,-59.19 -3.42,-58.41 -11,-57.67 -19.4,-57 -28.6,-56.37 -38.73,-55.62" fill="none" stroke="rgb(233, 236, 239)" stroke-width="2" stroke-linejoin="round" filter="url(#fuzzy)" /><polyline points="21.27,-74.07 22.21,-73.64 23.54,-72.88 25.13,-71.88 26.97,-70.64 29.04,-69.18 31.25,-67.57 33.53,-65.86 35.84,-64.08 38.17,-62.25 40.53,-60.36 42.9,-58.47 45.22,-56.61 47.41,-54.86 49.43,-53.26 51.33,-51.75" fill="none" stroke="rgb(233, 236, 239)" stroke-width="2" stroke-linejoin="round" filter="url(#fuzzy)" /><polyline points="-34.88,-67.18 -33.74,-67.8 -32.09,-68.08 -29.95,-68.09 -27.3,-67.93 -24.1,-67.65 -20.33,-67.31 -16.01,-66.88 -11.25,-66.35 -6.16,-65.67 -0.82,-64.85 4.75,-63.91 10.54,-62.88 16.51,-61.81 22.66,-60.73 28.97,-59.61 35.45,-58.38 42.16,-56.85" fill="none" stroke="rgb(233, 236, 239)" stroke-width="2" stroke-linejoin="round" filter="url(#fuzzy)" /><polyline points="34.04,-68.13 34.1,-67.87 34.78,-67.4 35.64,-66.83 36.46,-66.26 37.11,-65.75 37.51,-65.37 37.6,-65.19 37.33,-65.22 36.73,-65.46 35.83,-65.87 34.63,-66.43 33.1,-67.15 31.17,-68.08 28.74,-69.29 25.76,-70.86 22.15,-72.85" fill="none" stroke="rgb(233, 236, 239)" stroke-width="2" stroke-linejoin="round" filter="url(#fuzzy)" /><polyline points="-8.45,-77.37 -6.48,-77.47 -5.18,-77.56 -4.35,-77.62 -3.65,-77.67 -2.96,-77.7 -2.31,-77.7 -1.82,-77.66 -1.56,-77.58 -1.56,-77.45 -1.79,-77.27 -2.26,-77.05 -2.99,-76.79 -4,-76.48 -5.36,-76.13 -7.14,-75.75 -9.42,-75.31 -12.26,-74.83 -15.58,-74.32 -19.3,-73.77" fill="none" stroke="rgb(233, 236, 239)" stroke-width="2" stroke-linejoin="round" filter="url(#fuzzy)" /><polyline points="26.19,-72.17 27.07,-71.66 27.41,-71.32 27.25,-71.03 26.68,-70.75 25.69,-70.47 24.24,-70.23 22.24,-70.05 19.61,-69.95 16.31,-69.91 12.33,-69.93 7.65,-69.98 2.27,-70.09 -3.87,-70.27 -10.86,-70.52 -19.09,-70.7" fill="none" stroke="rgb(233, 236, 239)" stroke-width="2" stroke-linejoin="round" filter="url(#fuzzy)" /><polyline points="-2.72,-77.69 19.36,-70.26 26.11,-62.4 23.87,-56.51 21.03,-53.48 19.19,-53.39 16.74,-55.22 12.53,-57.51 6.5,-59.3 -0.68,-60.47 -7.97,-61.42 -14.11,-62.48 -17.95,-63.7 -18.72,-64.92 -16.18,-66.09 -10.65,-67.3 -3.22,-68.61 4.29,-69.85 10.14,-70.41 13.97,-69.54 17.82,-66.11 27.41,-56.65 64.99,-27.67" fill="none" stroke="rgb(233, 236, 239)" stroke-width="2" stroke-linejoin="round" filter="url(#fuzzy)" /><polyline points="-46.22,-58.18 -23.12,-50.56 5.52,-51.32 17.95,-56.45 20.86,-61.58 20.78,-64.93 20.29,-66.12 19.81,-65.39 19.12,-63.5 17.79,-61.58 15.39,-60.76 11.81,-61.65 7.43,-64.08 2.83,-67.15 -1.48,-69.73 -5.02,-70.9 -6.55,-70.37 -3.8,-68.53 5.04,-66.42 17.67,-65.65 25.98,-67.98 31.18,-69.45" fill="none" stroke="rgb(233, 236, 239)" stroke-width="2" stroke-linejoin="round" filter="url(#fuzzy)" /><polyline points="50.37,-54.01 6.55,-66.91 -15.01,-68.52 -23.04,-66.66 -21.34,-64.5 -14.87,-62.69 -7.48,-61.07 -0.46,-59.54 5.99,-58.38 11.06,-58.21 13.43,-59.48 12.75,-61.75 10.6,-63.7 9.58,-63.9 11.27,-62.02 15.01,-59.43 18.74,-58.09 19.72,-58.27 8.55,-57.76 -47.26,-56.87" fill="none" stroke="rgb(233, 236, 239)" stroke-width="2" stroke-linejoin="round" filter="url(#fuzzy)" /><polyline points="10.25,-76.88 18.35,-72.33 12.01,-72.96 9.58,-71.91 14.15,-68.59 22.25,-64.65 29.58,-61.64 33.88,-59.94 35.22,-59.1 34.78,-58.56 33.48,-58.25 31.41,-58.51 28.11,-59.62 23.43,-61.25 18.32,-62.54 14.92,-62.51 15.6,-60.62 21.23,-57.02 29.02,-52.49 31.68,-48.76 20.19,-49.25 -6.87,-58.42 -19.09,-74.76" fill="none" stroke="rgb(233, 236, 239)" stroke-width="2" stroke-linejoin="round" filter="url(#fuzzy)" /><polyline points="14.38,-76.03 31.26,-58.57 33.55,-55.61 37.43,-54 41.26,-52.55 43.87,-50.9 44.12,-49.54 40.28,-49.81 31.65,-52.65 20.13,-57.68 9.77,-63.47 4.24,-68.4 4.27,-71.45 7.25,-72.24 9.92,-70.67 11.72,-66.99 11.43,-64 -18.83,-74.74" fill="none" stroke="rgb(233, 236, 239)" stroke-width="2" stroke-linejoin="round" filter="url(#fuzzy)" /><polyline points="-50.44,-53.45 5.78,-59.4 18.58,-62.36 13.36,-65.23 4.53,-67.29 -2.91,-68.78 -8.06,-70.11 -11.33,-71.18 -13.44,-71.55 -14.64,-70.85 -14.27,-69.02 -11.2,-66.3 -4.98,-63.11 3.29,-59.96 11.06,-57.58 15.59,-56.81 15.45,-58.3 10.94,-62 3.22,-66.9 -6.48,-71.17 -16.71,-72.92 -26.12,-71.26 -36.23,-66.46" fill="none" stroke="rgb(233, 236, 239)" stroke-width="2" stroke-linejoin="round" filter="url(#fuzzy)" /><polyline points="-53.05,-50.63 -11.21,-53.31 -7.68,-55.41 -0.42,-55.91 7.79,-55.91 11.29,-57.2 11.11,-60.07 11.04,-63.54 12.96,-66.58 15.95,-68.75 18.2,-69.96 19.05,-70.14 19.19,-69.2 19.25,-67.42 18.47,-65.89 15.84,-65.87 14.47,-67.07 23.52,-66.7 40.88,-62.85" fill="none" stroke="rgb(233, 236, 239)" stroke-width="2" stroke-linejoin="round" filter="url(#fuzzy)" /><polyline points="-32.63,-68.92 6.49,-57.66 9.71,-54.86 10.43,-51.75 13.42,-49.65 16.05,-50.44 15.9,-53.82 14.34,-57.94 15.1,-61.03 20.36,-62.36 28.78,-62.06 36.95,-60.57 42,-58.34 42.41,-56.23 34.35,-57.58 -0.07,-77.68" fill="none" stroke="rgb(233, 236, 239)" stroke-width="2" stroke-linejoin="round" filter="url(#fuzzy)" /><polyline points="53.75,-49.33 21.43,-57.07 27.61,-56.9 33.39,-58.31 34.47,-60.51 32.48,-61.83 28.02,-62.17 21.74,-62.23 15.45,-62.46 10.9,-63.02 8.03,-63.97 5.17,-65.32 1.14,-66.59 -2.58,-66.56 -1.96,-63.76 5.96,-57.86 16.78,-51.48 10.39,-50.21 -50.54,-53.59" fill="none" stroke="rgb(233, 236, 239)" stroke-width="2" stroke-linejoin="round" filter="url(#fuzzy)" /><polyline points="-26.37,-72.21 9,-70.15 16.87,-71.18 17.7,-70.96 16.81,-68.83 15.95,-64.97 16.42,-60.07 18.6,-55.07 21.42,-50.98 23.09,-48.5 22.2,-47.94 18.32,-49.22 11.79,-51.94 3.59,-55.53 -4.56,-59.42 -10.32,-63.17 -11.57,-66.48 -7.58,-69.06 0.1,-70.58 7.93,-71.02 11.6,-71.29 8,-72.95 -1.39,-76.06 -10.08,-76.92" fill="none" stroke="rgb(233, 236, 239)" stroke-width="2" stroke-linejoin="round" filter="url(#fuzzy)" /><polyline points="42.72,-61.27 32.76,-50.36 10.22,-57.53 1.8,-64.42 2.28,-67.71 1.81,-68.19 -3.75,-67.29 -12.2,-66.11 -18.72,-65.26 -19.69,-65 -14.91,-65.34 -7.44,-66.01 -1.08,-66.12 4.05,-64.16 14.23,-58.71 34.78,-51.9 42.72,-61.27" fill="none" stroke="rgb(233, 236, 239)" stroke-width="2" stroke-linejoin="round" filter="url(#fuzzy)" /><polyline points="-41.03,-63.11 7.83,-60.94 12.21,-63.2 8.24,-64.18 6.27,-64.04 7.46,-63.18 10.59,-62.11 14.09,-61.66 16.7,-62.54 17.44,-64.85 15.5,-68.01 10.56,-71.05 3.46,-73.07 -3.66,-73.29 -8.47,-70.83 -9.08,-64.35 1.28,-52.77 59.54,-40.17" fill="none" stroke="rgb(233, 236, 239)" stroke-width="2" stroke-linejoin="round" filter="url(#fuzzy)" /><polyline points="-50.47,-53.44 10.72,-48.52 16.51,-56.86 12.18,-60.5 14.3,-59.19 22.98,-56.49 32.34,-54.86 37.24,-54.81 35.09,-55.85 25.26,-57.35 9.25,-58.87 -8,-60.18 -17.72,-61.57 -10.63,-63.75 15.18,-65.66 43.65,-60.88" fill="none" stroke="rgb(233, 236, 239)" stroke-width="2" stroke-linejoin="round" filter="url(#fuzzy)" /><polyline points="-9.34,-76.91 -14.68,-61.78 0.22,-61.81 8.18,-64.41 9.42,-65.26 8.32,-64.37 7.61,-63.12 7.96,-62.56 9.22,-62.86 11.19,-63.64 13.61,-64.49 16.14,-65.12 18.67,-65.27 21.59,-64.58 25.67,-62.69 31.35,-59.51 38.24,-55.38 45.16,-51.02 50.82,-47.13 54.46,-44.06 55.66,-41.91 53.09,-41.28 42.35,-44.04 13.65,-51.43 -50.35,-54.1" fill="none" stroke="rgb(233, 236, 239)" stroke-width="2" stroke-linejoin="round" filter="url(#fuzzy)" /><polyline points="-26.37,-72.21 -1.37,-72.59 8.22,-70.82 15.28,-67.6 18.8,-64.44 19.15,-62.25 18.06,-61.06 16.84,-60.29 15.55,-59.25 13.39,-57.66 9.75,-55.78 4.99,-54.37 0.48,-54.35 -2.1,-56.25 -1.48,-59.78 2.6,-63.78 9.3,-67.05 17.41,-69.28 24.3,-71.13 23.08,-73.33" fill="none" stroke="rgb(233, 236, 239)" stroke-width="2" stroke-linejoin="round" filter="url(#fuzzy)" /><polyline points="34.73,-67.32 26.1,-69.66 28.74,-65.94 25.8,-62.67 18.03,-61.25 10.55,-61.32 6.41,-61.77 5.99,-61.54 8.33,-60.29 12.15,-58.52 16.26,-57.03 19.66,-56.32 21.61,-56.28 21.82,-56.38 20.74,-56.04 19.56,-55.13 19.28,-54.34 18.63,-55.35 11.9,-60.03 -7.27,-67.94 -24.16,-73.02" fill="none" stroke="rgb(233, 236, 239)" stroke-width="2" stroke-linejoin="round" filter="url(#fuzzy)" /><polyline points="28.44,-71.12 28.22,-65.47 21.63,-67.18 18.87,-68.74 16.32,-69.21 13.73,-68.74 12.49,-67.71 12.22,-66.62 11.08,-65.8 8.24,-65.16 5.43,-64.27 5.63,-62.78 9.91,-60.91 15.16,-59.62 15.45,-60.22 7.4,-62.84 -3.23,-64.71 1.95,-60.34 55.73,-46.86" fill="none" stroke="rgb(233, 236, 239)" stroke-width="2" stroke-linejoin="round" filter="url(#fuzzy)" /><polyline points="59.09,-41.23 12.39,-45.15 7.94,-49.2 4.24,-52.88 -0.03,-55 -2.69,-56.15 -2.62,-56.74 0.25,-56.87 4.7,-56.99 8.99,-57.8 12.16,-59.49 14.41,-61.23 16.21,-61.5 17.53,-59.4 18.27,-55.77 19.72,-53.11 24.59,-53.61 34.64,-55.07 59.09,-41.23" fill="none" stroke="rgb(233, 236, 239)" stroke-width="2" stroke-linejoin="round" filter="url(#fuzzy)" /><polyline points="61.13,-37.46 29.11,-62.12 11.73,-71.03 1.24,-74.12 -2.59,-74.89 -0.01,-74.31 7.47,-72.4 17.53,-69.02 27.9,-64.11 36.83,-58.02 42.78,-51.73 44.23,-46.89 41.19,-44.61 38.97,-42.9 48.74,-36.13 65.28,-27.21" fill="none" stroke="rgb(233, 236, 239)" stroke-width="2" stroke-linejoin="round" filter="url(#fuzzy)" /><polyline points="-51.44,-52.24 -7.85,-61.56 -5.94,-67.86 -5.22,-70.58 2.52,-70.15 13.83,-67.26 22.67,-63.31 24.61,-60.21 18.97,-59.46 9.34,-61.05 1.72,-63.56 0.29,-65.4 2.84,-66.34 0.93,-67.57 -9.37,-70.32 -2.72,-77.69" fill="none" stroke="rgb(233, 236, 239)" stroke-width="2" stroke-linejoin="round" filter="url(#fuzzy)" /><polyline points="23.08,-73.33 -4.71,-66.06 1.64,-64.45 4.68,-64.62 0.83,-65.38 -3.05,-65 -2.26,-62.73 2.87,-59.23 8.87,-55.98 11.95,-54.43 9.85,-55.26 2.77,-58.2 -6.12,-62.37 -11.53,-66.83 -9.07,-70.83 0.35,-73.62 7.96,-74.83 -4.41,-77.49" fill="none" stroke="rgb(233, 236, 239)" stroke-width="2" stroke-linejoin="round" filter="url(#fuzzy)" /><polyline points="57.09,-44.57 39.83,-49.39 28.99,-50.75 25.79,-49.96 21.53,-50.48 16.87,-52.43 14.83,-54.98 15.49,-57.93 16.92,-61.33 18.14,-64.65 20.03,-66.81 24.09,-66.66 30.79,-63.66 39.17,-58.05 47.52,-50.98 53.85,-44.8 55.82,-43.1 50.59,-49.71 34.04,-68.13" fill="none" stroke="rgb(233, 236, 239)" stroke-width="2" stroke-linejoin="round" filter="url(#fuzzy)" /><polyline points="61.13,-37.46 18.86,-50.33 26.28,-52.93 35.72,-52.94 37.06,-51.82 31.38,-49.79 23.53,-47.3 18.61,-44.85 18.8,-42.95 22.29,-42.34 24.99,-43.82 23.72,-47.61 18.38,-52.98 11.75,-58.39 7.37,-62.38 6.75,-64.28 7.9,-64.33 6.68,-63.59 1.67,-63.69 -3.66,-66.65 -26.37,-72.21" fill="none" stroke="rgb(233, 236, 239)" stroke-width="2" stroke-linejoin="round" filter="url(#fuzzy)" /><polyline points="38.37,-64.95 1.57,-64.02 -3.01,-66.85 -7.61,-68.24 -13.86,-67.48 -16.84,-65.99 -13.19,-64.93 -3.64,-64.46 8.35,-64.16 19.32,-63.46 27.61,-61.97 32.79,-59.79 33.93,-57.9 29.65,-57.63 25.79,-56.85 59.09,-41.23" fill="none" stroke="rgb(233, 236, 239)" stroke-width="2" stroke-linejoin="round" filter="url(#fuzzy)" /><polyline points="17.36,-75.41 1.63,-69.76 -10.11,-64.58 -3.62,-61.98 11.84,-59.86 25.64,-57.7 31.75,-56.18 28.98,-55.98 19.94,-57 9.57,-58.59 2.75,-59.99 1.75,-60.88 5.26,-61.46 9.91,-62.09 13.7,-62.71 18.1,-62.52 25.99,-60.74 35.2,-58.78 34.31,-62.16 10.18,-77.16" fill="none" stroke="rgb(233, 236, 239)" stroke-width="2" stroke-linejoin="round" filter="url(#fuzzy)" /><polyline points="24.26,-73.04 20.02,-69.96 21.36,-63.18 12.58,-59.85 1.29,-60.21 -5.23,-62.58 -5.46,-65.24 -1.56,-67.12 3.4,-68.08 7.14,-68.6 8.89,-69.24 9.22,-70.22 9.45,-71.25 10.86,-71.64 14.33,-70.62 20.14,-67.69 27.86,-63.04 35.95,-57.84 41.79,-54.08 42.52,-53.73 36.37,-57.35 21.16,-63.44 -19.09,-74.76" fill="none" stroke="rgb(233, 236, 239)" stroke-width="2" stroke-linejoin="round" filter="url(#fuzzy)" /><polyline points="47.26,-57.12 33.15,-62.1 22.61,-62.81 15.93,-62.77 11.2,-63.31 8.29,-64.03 6.69,-64.57 5.78,-64.68 4.77,-64.21 2.47,-63.37 -2.13,-62.79 -8.71,-63.13 -15.35,-64.32 -19.81,-65.47 -20.76,-65.46 -16.54,-64.14 -2.78,-62.46 24.09,-60.68 47.67,-56.75" fill="none" stroke="rgb(233, 236, 239)" stroke-width="2" stroke-linejoin="round" filter="url(#fuzzy)" /><polyline points="-51.44,-52.24 -40.15,-56.21 -16.13,-55.64 8.14,-55.78 22.03,-58.24 25.11,-62.23 21.68,-65.98 16.19,-67.95 12,-67.38 11.59,-64.35 15.96,-59.85 23.22,-55.72 28.47,-54.28 26.64,-57.19 16.83,-63.71 3.75,-69.8 -9.77,-69.88 -43.66,-60.74" fill="none" stroke="rgb(233, 236, 239)" stroke-width="2" stroke-linejoin="round" filter="url(#fuzzy)" /><polyline points="2.15,-77.82 21.12,-71.23 28.84,-64.96 29.42,-59.7 26.58,-56.48 24.04,-54.91 21.97,-54.5 18.55,-55.15 13.13,-56.8 7.04,-59.16 2.27,-61.7 -0.38,-63.96 -1.68,-65.74 -3.06,-67.17 -5.33,-68.5 -8.06,-69.86 -10.01,-71.1 -10.07,-71.8 -7.84,-71.39 -3.62,-69.31 1.74,-65.38 7.12,-60.29 12.8,-56.43 22.02,-58.43 19.95,-74.56" fill="none" stroke="rgb(233, 236, 239)" stroke-width="2" stroke-linejoin="round" filter="url(#fuzzy)" /><polyline points="68.76,-12.51 69.32,-10.5 70.34,-7.86 71.69,-5.1 73.04,-2.43 74.07,0.08 74.67,2.46 74.86,4.76 74.71,7.01 74.35,9.26 73.93,11.51 73.53,13.78 73.2,16.08 72.92,18.39 72.65,20.7 72.38,23.01 72.08,25.31 71.74,27.6 71.35,29.88 70.88,32.12 70.31,34.31 69.66,36.45 68.93,38.52 68.18,40.53 67.43,42.48 66.66,44.39 65.84,46.25 64.87,48.07 63.67,49.86 62.22,51.64 60.58,53.42 58.89,55.16 57.29,56.86 55.84,58.48 54.65,59.96 54.05,60.9" fill="none" stroke="rgb(233, 236, 239)" stroke-width="2" stroke-linejoin="round" filter="url(#fuzzy)" /><polyline points="-2.72,-77.69 -4.46,-77.69 -6.79,-77.5 -9.08,-77.19 -11.34,-76.8 -13.6,-76.35 -15.92,-75.85 -18.34,-75.31 -20.83,-74.72 -23.3,-74.08 -25.68,-73.37 -27.99,-72.58 -30.33,-71.71 -32.81,-70.77 -35.56,-69.73 -38.6,-68.61 -41.88,-67.41 -45.27,-66.13 -48.63,-64.8 -51.81,-63.43 -54.72,-62.03 -57.35,-60.6 -59.78,-59.14 -62.16,-57.64 -64.63,-56.11 -67.27,-54.56 -70.12,-52.98 -73.2,-51.37 -76.56,-49.7 -80.16,-47.93 -83.77,-45.99 -87.28,-43.88 -91.62,-41.88" fill="none" stroke="rgb(233, 236, 239)" stroke-width="2" stroke-linejoin="round" filter="url(#fuzzy)" /><polyline points="-2.72,-77.69 -4.08,-77.69 -6.28,-77.51 -8.89,-77.22 -11.86,-76.83 -15.11,-76.39 -18.49,-75.91 -21.9,-75.39 -25.28,-74.83 -28.6,-74.21 -31.88,-73.53 -35.16,-72.79 -38.52,-71.96 -42.01,-71.07 -45.67,-70.09 -49.57,-69.02 -53.82,-67.86 -58.58,-66.6 -64.02,-65.22 -70.26,-63.78 -77.14,-62.39 -83.86,-61.28 -88.97,-60.74" fill="none" stroke="rgb(233, 236, 239)" stroke-width="2" stroke-linejoin="round" filter="url(#fuzzy)" /><polyline points="-4.41,-77.49 -7.41,-77.29 -9.9,-77 -12.85,-76.61 -16.08,-76.13 -19.22,-75.61 -22.23,-75.05 -25.35,-74.45 -28.78,-73.79 -32.62,-73.04 -36.8,-72.19 -41.19,-71.26 -45.6,-70.27 -49.79,-69.22 -53.61,-68.14 -57.12,-66.99 -60.65,-65.78 -64.67,-64.5 -69.38,-63.17 -74.51,-61.79 -79.53,-60.36 -84.43,-58.86 -90.13,-57.4 -98.12,-56.44" fill="none" stroke="rgb(233, 236, 239)" stroke-width="2" stroke-linejoin="round" filter="url(#fuzzy)" /><polyline points="-6.02,-77.52 -8.34,-77.26 -10.49,-76.83 -12.72,-76.35 -15.12,-75.84 -17.71,-75.29 -20.39,-74.7 -23.01,-74.04 -25.47,-73.31 -27.77,-72.51 -30.01,-71.62 -32.31,-70.65 -34.82,-69.59 -37.59,-68.45 -40.57,-67.23 -43.62,-65.94 -46.58,-64.6 -49.29,-63.21 -51.71,-61.8 -53.9,-60.35 -55.99,-58.87 -58.13,-57.36 -60.47,-55.81 -63.1,-54.23 -66.05,-52.6 -69.28,-50.93 -72.68,-49.19 -76.16,-47.38 -79.58,-45.49 -82.83,-43.53 -85.78,-41.48 -88.3,-39.34 -90.34,-37.12 -91.98,-34.86 -93.47,-32.63 -95.2,-30.5 -97.56,-28.38 -100.35,-25.85" fill="none" stroke="rgb(233, 236, 239)" stroke-width="2" stroke-linejoin="round" filter="url(#fuzzy)" /><polyline points="-6.02,-77.52 -8.48,-77.26 -10.72,-76.84 -12.79,-76.36 -14.79,-75.85 -16.81,-75.31 -18.87,-74.72 -20.97,-74.07 -23.08,-73.35 -25.2,-72.56 -27.32,-71.68 -29.47,-70.72 -31.66,-69.68 -33.91,-68.55 -36.19,-67.34 -38.47,-66.05 -40.7,-64.71 -42.81,-63.34 -44.78,-61.93 -46.62,-60.49 -48.38,-59.03 -50.13,-57.53 -51.92,-56 -53.77,-54.44 -55.66,-52.84 -57.57,-51.21 -59.45,-49.51 -61.32,-47.73 -63.18,-45.85 -65.07,-43.92 -66.94,-41.99 -68.77,-40.12 -70.59,-38.02" fill="none" stroke="rgb(233, 236, 239)" stroke-width="2" stroke-linejoin="round" filter="url(#fuzzy)" /><polyline points="-9.34,-76.91 -11.57,-76.68 -14.18,-76.15 -16.85,-75.58 -19.77,-75.01 -23.12,-74.42 -26.81,-73.76 -30.6,-73 -34.24,-72.13 -37.55,-71.19 -40.44,-70.18 -42.96,-69.12 -45.29,-68.02 -47.71,-66.87 -50.5,-65.64 -53.82,-64.36 -57.68,-63.02 -62.01,-61.63 -66.77,-60.19 -71.93,-58.7 -77.32,-57.18 -82.6,-55.68 -87.02,-54.3 -87.78,-53.59" fill="none" stroke="rgb(233, 236, 239)" stroke-width="2" stroke-linejoin="round" filter="url(#fuzzy)" /><polyline points="-10.08,-76.92 -12.83,-76.33 -15.13,-75.82 -17.21,-75.29 -19.16,-74.7 -21.09,-74.05 -23.06,-73.32 -25.09,-72.51 -27.17,-71.62 -29.29,-70.64 -31.48,-69.57 -33.72,-68.42 -35.99,-67.18 -38.25,-65.88 -40.43,-64.53 -42.5,-63.14 -44.45,-61.72 -46.29,-60.27 -48.08,-58.78 -49.84,-57.27 -51.61,-55.72 -53.41,-54.13 -55.22,-52.5 -57.06,-50.81 -58.9,-49.06 -60.73,-47.24 -62.52,-45.35 -64.23,-43.37 -65.88,-41.31 -67.48,-39.18 -69.04,-36.99 -70.56,-34.77 -72.01,-32.55 -73.35,-30.38 -74.63,-28.24 -75.99,-26.08 -77.48,-23.85 -79.18,-21.38" fill="none" stroke="rgb(233, 236, 239)" stroke-width="2" stroke-linejoin="round" filter="url(#fuzzy)" /><polyline points="-11.04,-77.03 -14.13,-76.18 -16.44,-75.54 -18.34,-74.96 -20.15,-74.36 -22.05,-73.68 -24.06,-72.88 -26.16,-71.99 -28.29,-71.01 -30.39,-69.97 -32.48,-68.87 -34.55,-67.73 -36.65,-66.52 -38.78,-65.26 -40.94,-63.94 -43.1,-62.56 -45.21,-61.13 -47.24,-59.65 -49.16,-58.12 -50.99,-56.54 -52.75,-54.89 -54.49,-53.18 -56.25,-51.39 -58.02,-49.55 -59.79,-47.67 -61.51,-45.77 -63.15,-43.88 -64.67,-41.99 -66.11,-40.09 -67.55,-38.15 -69.1,-36.12 -70.78,-33.99 -72.42,-31.77 -73.78,-29.59 -75.09,-27.39" fill="none" stroke="rgb(233, 236, 239)" stroke-width="2" stroke-linejoin="round" filter="url(#fuzzy)" /><polyline points="-13.3,-76.16 -14.85,-75.81 -16.81,-75.3 -18.9,-74.72 -21.06,-74.07 -23.24,-73.35 -25.39,-72.54 -27.51,-71.65 -29.61,-70.67 -31.7,-69.61 -33.77,-68.46 -35.83,-67.23 -37.86,-65.92 -39.83,-64.57 -41.76,-63.18 -43.63,-61.76 -45.49,-60.32 -47.36,-58.85 -49.26,-57.34 -51.17,-55.8 -53.07,-54.22 -54.94,-52.6 -56.74,-50.94 -58.48,-49.21 -60.16,-47.41 -61.78,-45.53 -63.38,-43.57 -65,-41.53 -66.69,-39.39 -68.46,-37.16 -70.26,-34.86 -71.96,-32.62 -73.49,-30.65 -74.9,-28.85" fill="none" stroke="rgb(233, 236, 239)" stroke-width="2" stroke-linejoin="round" filter="url(#fuzzy)" /><polyline points="-19.09,-74.76 -20.56,-74.42 -24.14,-73.79 -27.78,-73 -30.62,-72.08 -32.85,-71.07 -34.97,-70.02 -37.36,-68.94 -40.16,-67.83 -43.25,-66.65 -46.44,-65.41 -49.58,-64.1 -52.61,-62.74 -55.58,-61.34 -58.58,-59.89 -61.66,-58.4 -64.83,-56.88 -68.09,-55.32 -71.45,-53.68 -74.87,-51.92 -78.24,-49.99 -81.64,-47.94 -85.65,-45.98 -90.64,-44.31" fill="none" stroke="rgb(233, 236, 239)" stroke-width="2" stroke-linejoin="round" filter="url(#fuzzy)" /><polyline points="-18.39,-74.95 -20.87,-74.12 -22.97,-73.38 -25.27,-72.56 -27.9,-71.66 -30.78,-70.66 -33.67,-69.58 -36.34,-68.42 -38.7,-67.16 -40.86,-65.84 -42.99,-64.46 -45.25,-63.06 -47.73,-61.64 -50.45,-60.19 -53.35,-58.71 -56.38,-57.2 -59.47,-55.65 -62.58,-54.06 -65.64,-52.43 -68.57,-50.75 -71.26,-49.01 -73.67,-47.19 -75.83,-45.29 -77.89,-43.32 -80.09,-41.26 -82.69,-39.13 -85.85,-36.94 -89.53,-34.72 -93.42,-32.51 -97.07,-30.35 -100.13,-28.22 -102.63,-26.07 -105.24,-23.84 -108.69,-21.38" fill="none" stroke="rgb(233, 236, 239)" stroke-width="2" stroke-linejoin="round" filter="url(#fuzzy)" /><polyline points="68.33,-14.69 71.79,-12.69 75.58,-10.46 76.88,-7.93 76.44,-5.28 75.59,-2.68 75.12,-0.19 75.21,2.19 75.74,4.47 76.57,6.71 77.63,8.92 78.82,11.14 79.91,13.38 80.63,15.65 80.83,17.94 80.58,20.24 80.18,22.52 80.04,24.79 80.39,27.06 81.21,29.36 82.21,31.69 82.99,34 83.26,36.14 82.97,37.96 82.31,39.54 81.32,41.8" fill="none" stroke="rgb(233, 236, 239)" stroke-width="2" stroke-linejoin="round" filter="url(#fuzzy)" /><polyline points="-21.43,-73.83 -24.61,-73.38 -27.31,-72.59 -29.71,-71.69 -31.97,-70.7 -34.18,-69.63 -36.34,-68.47 -38.48,-67.22 -40.69,-65.9 -43.03,-64.52 -45.53,-63.13 -48.17,-61.72 -50.95,-60.29 -53.88,-58.82 -56.89,-57.33 -59.89,-55.79 -62.77,-54.23 -65.51,-52.63 -68.2,-50.99 -70.97,-49.28 -73.87,-47.49 -76.83,-45.63 -79.65,-43.69 -82.23,-41.69 -84.6,-39.59 -86.96,-37.3 -89.64,-34.7 -92.31,-31.96" fill="none" stroke="rgb(233, 236, 239)" stroke-width="2" stroke-linejoin="round" filter="url(#fuzzy)" /><polyline points="-22.72,-73.61 -29.35,-73 -34.24,-72.08 -37.84,-70.98 -39.6,-69.87 -40.14,-68.77 -40.49,-67.63 -41.46,-66.42 -43.38,-65.14 -46.28,-63.8 -49.96,-62.4 -54.13,-60.95 -58.51,-59.46 -62.8,-57.92 -66.83,-56.32 -70.52,-54.66 -73.99,-52.93 -77.42,-51.14 -81.08,-49.29 -85.1,-47.42 -89.53,-45.52 -94.28,-43.62 -99.25,-41.7 -104.29,-39.77 -109.23,-37.78 -113.83,-35.74 -117.87,-33.62 -121.31,-31.44 -124.37,-29.23 -127.62,-27.02 -131.63,-24.83 -136.42,-22.64 -140.7,-20.47 -144.19,-18.8" fill="none" stroke="rgb(233, 236, 239)" stroke-width="2" stroke-linejoin="round" filter="url(#fuzzy)" /><polyline points="-21.69,-73.8 -24.87,-72.65 -27.06,-71.69 -29.11,-70.69 -31.16,-69.62 -33.25,-68.45 -35.36,-67.2 -37.45,-65.86 -39.47,-64.48 -41.39,-63.08 -43.24,-61.66 -45.08,-60.23 -46.94,-58.77 -48.82,-57.27 -50.69,-55.73 -52.49,-54.16 -54.19,-52.56 -55.78,-50.91 -57.3,-49.2 -58.8,-47.41 -60.33,-45.53 -61.92,-43.59 -63.63,-41.57 -65.52,-39.45 -67.63,-37.19 -69.86,-34.8 -71.78,-32.52 -72.72,-30.89" fill="none" stroke="rgb(233, 236, 239)" stroke-width="2" stroke-linejoin="round" filter="url(#fuzzy)" /><polyline points="-24.16,-73.02 -26.93,-72.23 -30.17,-71.01 -33.05,-69.87 -35.47,-68.81 -37.6,-67.72 -39.74,-66.55 -42.16,-65.29 -45.01,-63.97 -48.25,-62.59 -51.69,-61.18 -55.18,-59.72 -58.69,-58.23 -62.26,-56.69 -65.95,-55.11 -69.65,-53.44 -73.2,-51.67 -76.54,-49.8 -79.7,-47.86 -82.81,-45.97 -85.97,-44.14 -89.67,-42.23 -94.05,-39.66" fill="none" stroke="rgb(233, 236, 239)" stroke-width="2" stroke-linejoin="round" filter="url(#fuzzy)" /><polyline points="-24.85,-72.87 -28.53,-70.99 -30.86,-69.76 -32.83,-68.74 -34.89,-67.67 -37.09,-66.49 -39.27,-65.21 -41.35,-63.87 -43.34,-62.48 -45.31,-61.05 -47.34,-59.59 -49.38,-58.08 -51.36,-56.52 -53.19,-54.9 -54.86,-53.21 -56.44,-51.43 -58.01,-49.57 -59.62,-47.68 -61.27,-45.78 -62.89,-43.92 -64.46,-42.08 -66.04,-40.26 -67.74,-38.47 -69.63,-36.71 -71.26,-35.04" fill="none" stroke="rgb(233, 236, 239)" stroke-width="2" stroke-linejoin="round" filter="url(#fuzzy)" /><polyline points="-29.93,-70.38 -31.87,-69.5 -34.31,-68.4 -37.44,-67.12 -41.42,-65.71 -45.65,-64.27 -49.51,-62.84 -52.79,-61.4 -55.63,-59.95 -58.26,-58.46 -60.76,-56.94 -63.09,-55.37 -65.2,-53.76 -67.07,-52.1 -68.83,-50.39 -70.68,-48.62 -72.84,-46.76 -75.46,-44.83 -78.57,-42.83 -82.07,-40.76 -85.8,-38.63 -89.66,-36.47 -93.66,-34.28 -97.93,-32.09 -102.68,-29.9 -108.01,-27.72 -113.8,-25.53 -119.63,-23.34 -124.91,-21.12 -129.22,-18.89 -132.45,-16.63 -134.91,-14.36 -136.97,-12.05 -138.97,-9.69 -141.52,-7.32 -145.44,-5.05 -147.83,-3" fill="none" stroke="rgb(233, 236, 239)" stroke-width="2" stroke-linejoin="round" filter="url(#fuzzy)" /><polyline points="-32.95,-68.65 -35.34,-67.22 -38.53,-65.72 -42.28,-64.22 -46.17,-62.77 -50.16,-61.37 -54.18,-59.95 -58.03,-58.49 -61.54,-56.96 -64.66,-55.4 -67.4,-53.81 -69.77,-52.18 -71.84,-50.49 -73.88,-48.74 -76.24,-46.91 -79.22,-45 -82.85,-43.01 -86.87,-40.94 -90.85,-38.82 -94.52,-36.64 -97.91,-34.45 -101.29,-32.26 -104.96,-30.1 -109,-27.95 -113.21,-25.81 -117.27,-23.64 -120.94,-21.43 -124.19,-19.13 -127.4,-16.77 -130.82,-14.79" fill="none" stroke="rgb(233, 236, 239)" stroke-width="2" stroke-linejoin="round" filter="url(#fuzzy)" /><polyline points="-33.98,-68.04 -36.58,-66.52 -39.3,-65.04 -42.21,-63.63 -45.49,-62.22 -49.15,-60.77 -53.02,-59.27 -56.93,-57.73 -60.81,-56.12 -64.66,-54.46 -68.55,-52.72 -72.54,-50.91 -76.56,-49.04 -80.45,-47.15 -83.97,-45.25 -87.07,-43.34 -89.95,-41.43 -93.1,-39.49 -97.07,-37.49 -102.19,-35.44 -108.32,-33.33 -114.81,-31.16 -120.79,-28.96 -125.62,-26.75 -129.2,-24.52 -132.03,-22.26 -134.88,-19.93 -138.22,-17.52 -142.2,-15.07 -147.24,-12.81 -153.31,-11.16" fill="none" stroke="rgb(233, 236, 239)" stroke-width="2" stroke-linejoin="round" filter="url(#fuzzy)" /><polyline points="-33.98,-68.04 -36.28,-66.53 -38.52,-65.07 -40.64,-63.66 -42.81,-62.27 -45.3,-60.84 -48.34,-59.36 -51.99,-57.83 -56.2,-56.26 -60.76,-54.62 -65.33,-52.9 -69.49,-51.11 -72.87,-49.25 -75.39,-47.36 -77.37,-45.47 -79.51,-43.6 -82.55,-41.73 -86.93,-39.85 -92.48,-37.92 -98.47,-35.9 -103.93,-33.79 -108.29,-31.58 -111.86,-29.32 -115.69,-26.93 -120.24,-24.09" fill="none" stroke="rgb(233, 236, 239)" stroke-width="2" stroke-linejoin="round" filter="url(#fuzzy)" /><polyline points="-34.88,-67.18 -37.3,-65.7 -39.57,-64.14 -41.56,-62.69 -43.54,-61.3 -45.75,-59.9 -48.19,-58.43 -50.67,-56.9 -53,-55.32 -55.08,-53.72 -56.9,-52.08 -58.54,-50.38 -60.07,-48.62 -61.52,-46.77 -62.93,-44.85 -64.29,-42.84 -65.61,-40.77 -66.87,-38.64 -68.09,-36.47 -69.28,-34.28 -70.44,-32.1 -71.59,-29.92 -72.78,-27.76 -74.01,-25.59 -75.27,-23.41 -76.57,-21.2 -77.91,-18.98 -79.33,-16.74 -80.78,-14.51 -82.09,-12.23 -83.09,-9.76 -83.96,-7.16" fill="none" stroke="rgb(233, 236, 239)" stroke-width="2" stroke-linejoin="round" filter="url(#fuzzy)" /><polyline points="-38.6,-64.93 -41.51,-63.46 -43.17,-62.12 -44.73,-60.68 -46.38,-59.16 -48.14,-57.59 -49.97,-55.97 -51.8,-54.29 -53.56,-52.52 -55.23,-50.68 -56.81,-48.79 -58.35,-46.88 -59.92,-44.96 -61.56,-43.04 -63.28,-41.09 -65.04,-39.11 -66.79,-37.08 -68.45,-35 -69.96,-32.87 -71.24,-30.69 -72.27,-28.48 -73.07,-26.23 -73.73,-23.97 -74.37,-21.67 -75.11,-19.36 -76.06,-17.04 -77.22,-14.72 -78.56,-12.42 -79.96,-10.13 -81.3,-7.84 -82.52,-5.55 -83.57,-3.23 -84.43,-0.88 -85.06,1.51 -85.39,3.94 -85.42,6.41 -85.36,8.85 -85.86,11.08" fill="none" stroke="rgb(233, 236, 239)" stroke-width="2" stroke-linejoin="round" filter="url(#fuzzy)" /><polyline points="67.86,-17.79 75.39,-15.16 80,-12.86 79.36,-10.5 77.35,-7.98 75.98,-5.38 75.59,-2.8 76.03,-0.32 77.19,2.07 79.07,4.36 81.63,6.61 84.67,8.83 87.95,11.04 91.25,13.28 94.48,15.55 97.67,17.85 100.79,20.14 103.62,22.42 105.83,24.69 107.12,26.96 107.52,29.26 107.48,31.62 107.78,34.01 109.25,36.22 112.45,37.84 116.59,38.38" fill="none" stroke="rgb(233, 236, 239)" stroke-width="2" stroke-linejoin="round" filter="url(#fuzzy)" /><polyline points="-42.19,-61.9 -47.26,-61.05 -52.19,-59.92 -55.95,-58.47 -59.81,-56.89 -63.78,-55.3 -67.16,-53.72 -69.54,-52.13 -71.24,-50.48 -73.05,-48.75 -75.63,-46.94 -79.01,-45.04 -82.75,-43.06 -86.31,-41.02 -89.62,-38.9 -93.15,-36.71 -97.56,-34.51 -103.23,-32.33 -109.97,-30.21 -117.33,-28.12 -124.9,-26 -131.63,-23.81 -134.76,-21.38" fill="none" stroke="rgb(233, 236, 239)" stroke-width="2" stroke-linejoin="round" filter="url(#fuzzy)" /><polyline points="-42.19,-61.9 -44.03,-61.05 -46.6,-59.91 -49.16,-58.45 -51.48,-56.86 -53.81,-55.26 -56.34,-53.68 -59.1,-52.08 -62,-50.42 -64.97,-48.67 -67.99,-46.85 -71,-44.93 -73.91,-42.95 -76.62,-40.89 -79.13,-38.76 -81.68,-36.58 -84.62,-34.39 -88.2,-32.21 -92.36,-30.07 -96.7,-27.95 -100.78,-25.84 -104.6,-23.7 -108.69,-21.52 -112.94,-19.18 -114.38,-16.09" fill="none" stroke="rgb(233, 236, 239)" stroke-width="2" stroke-linejoin="round" filter="url(#fuzzy)" /><polyline points="-41.83,-62.37 -47.37,-60.8 -51.36,-59.15 -52.49,-57.54 -52.73,-55.94 -53.2,-54.27 -54.21,-52.51 -55.69,-50.65 -57.53,-48.75 -59.69,-46.83 -62.16,-44.91 -64.88,-42.99 -67.69,-41.05 -70.43,-39.08 -72.97,-37.06 -75.3,-34.99 -77.52,-32.85 -79.74,-30.68 -82.07,-28.46 -84.51,-26.22 -87.02,-23.96 -89.53,-21.67 -92.01,-19.36 -94.5,-17.04 -97.09,-14.72 -99.93,-12.42 -103.11,-10.15 -106.65,-7.87 -110.31,-5.59 -113.65,-3.28 -116.11,-0.94 -117.42,1.44 -117.99,3.87 -118.86,6.41 -122.31,8.94" fill="none" stroke="rgb(233, 236, 239)" stroke-width="2" stroke-linejoin="round" filter="url(#fuzzy)" /><polyline points="-41.83,-62.37 -44.26,-60.82 -46.73,-59.2 -49.89,-57.61 -53.41,-56.04 -56.98,-54.42 -60.42,-52.69 -63.46,-50.86 -65.84,-48.97 -67.56,-47.07 -69.03,-45.18 -70.82,-43.31 -73.36,-41.43 -76.67,-39.53 -80.39,-37.58 -84,-35.55 -87.18,-33.44 -89.92,-31.27 -92.47,-29.08 -95.14,-26.89 -98.1,-24.74 -101.31,-22.59 -104.72,-20.44 -107.64,-18.8" fill="none" stroke="rgb(233, 236, 239)" stroke-width="2" stroke-linejoin="round" filter="url(#fuzzy)" /><polyline points="-45.46,-59.09 -47.08,-57.37 -49.13,-55.86 -52.06,-54.27 -55.54,-52.52 -58.94,-50.64 -61.77,-48.7 -63.96,-46.76 -65.67,-44.85 -67.13,-42.94 -68.56,-41.03 -70.06,-39.08 -71.65,-37.07 -73.26,-35 -74.83,-32.87 -76.32,-30.7 -77.79,-28.49 -79.37,-26.26 -81.1,-24 -82.97,-21.72 -84.81,-19.41 -86.44,-17.09 -87.7,-14.77 -88.59,-12.49 -89.31,-10.23 -90.16,-7.98 -91.38,-5.72 -92.92,-3.42 -94.54,-1.1 -96.29,1.17 -98.54,3.17" fill="none" stroke="rgb(233, 236, 239)" stroke-width="2" stroke-linejoin="round" filter="url(#fuzzy)" /><polyline points="-45.46,-59.09 -61.45,-57.39 -61.87,-55.9 -60.08,-54.34 -59.56,-52.62 -60.66,-50.77 -63.13,-48.84 -66.78,-46.92 -71.42,-45.03 -76.77,-43.17 -82.58,-41.3 -88.67,-39.4 -94.94,-37.45 -101.17,-35.41 -106.97,-33.3 -111.96,-31.14 -116.08,-28.95 -119.78,-26.77 -123.62,-24.6 -127.88,-22.41 -132.66,-20.15 -138.76,-17.68 -148.34,-14.51" fill="none" stroke="rgb(233, 236, 239)" stroke-width="2" stroke-linejoin="round" filter="url(#fuzzy)" /><polyline points="67.7,-18.74 68.07,-16.51 69.09,-14.1 72.17,-11.73 77.68,-9.35 84.02,-6.95 89.17,-4.53 92.28,-2.12 93.77,0.3 94.5,2.7 95.09,5.1 95.63,7.49 95.88,9.91 95.64,12.34 94.9,14.79 93.92,17.25 93.03,19.68 92.5,22.08 92.43,24.41 92.76,26.66 93.32,28.84 93.98,30.95 94.65,33.03 95.33,35.09 96.04,37.16 96.77,39.25 97.44,41.34 97.91,43.4 98.01,45.42 97.67,47.38 96.94,49.25 95.99,51.06 95.09,52.82 94.36,54.58 93.57,56.39 92.24,58.25 90.03,60.04 86.19,61.55" fill="none" stroke="rgb(233, 236, 239)" stroke-width="2" stroke-linejoin="round" filter="url(#fuzzy)" /><polyline points="67.7,-18.74 69.61,-16.52 73.18,-14.1 75.45,-11.74 76.04,-9.36 75.89,-6.96 75.9,-4.54 76.61,-2.13 78.2,0.28 80.53,2.68 83.15,5.08 85.51,7.47 87.11,9.88 87.71,12.31 87.43,14.76 86.64,17.22 85.79,19.66 85.26,22.06 85.21,24.39 85.59,26.64 86.22,28.81 86.91,30.92 87.54,32.99 88.12,35.05 88.71,37.12 89.37,39.21 90.06,41.3 90.62,43.38 90.84,45.4 90.66,47.36 90.21,49.23 89.77,51.03 89.47,52.77 89.08,54.5 88.05,56.33 86.12,58.33 85.71,59.96" fill="none" stroke="rgb(233, 236, 239)" stroke-width="2" stroke-linejoin="round" filter="url(#fuzzy)" /><polyline points="-50.35,-54.1 -51.06,-53.19 -52.09,-51.81 -53.33,-50.15 -54.63,-48.33 -55.92,-46.41 -57.19,-44.43 -58.44,-42.37 -59.69,-40.25 -60.93,-38.08 -62.14,-35.89 -63.3,-33.68 -64.39,-31.49 -65.4,-29.31 -66.3,-27.13 -67.1,-24.95 -67.8,-22.75 -68.41,-20.54 -68.95,-18.3 -69.44,-16.03 -69.88,-13.75 -70.28,-11.43 -70.64,-9.09 -70.96,-6.72 -71.25,-4.32 -71.52,-1.92 -71.77,0.48 -71.99,2.86 -72.13,5.2 -72.16,7.5 -72.05,9.78 -71.89,11.99 -71.88,14.23" fill="none" stroke="rgb(233, 236, 239)" stroke-width="2" stroke-linejoin="round" filter="url(#fuzzy)" /><polyline points="-50.35,-54.1 -50.98,-53.21 -52.19,-51.85 -53.6,-50.22 -55.1,-48.43 -56.65,-46.55 -58.24,-44.59 -59.82,-42.58 -61.35,-40.49 -62.83,-38.35 -64.29,-36.16 -65.76,-33.97 -67.23,-31.8 -68.66,-29.66 -69.98,-27.53 -71.14,-25.4 -72.1,-23.24 -72.92,-21.05 -73.63,-18.85 -74.27,-16.64 -74.88,-14.43 -75.53,-12.18 -76.43,-9.74 -77.78,-7.16" fill="none" stroke="rgb(233, 236, 239)" stroke-width="2" stroke-linejoin="round" filter="url(#fuzzy)" /><polyline points="-50.35,-54.1 -52.29,-53.2 -54.79,-51.82 -56.69,-50.17 -58.55,-48.37 -60.92,-46.46 -63.92,-44.49 -67.4,-42.44 -71.17,-40.34 -75.16,-38.18 -79.39,-35.99 -83.81,-33.79 -88.25,-31.6 -92.39,-29.44 -95.92,-27.28 -98.76,-25.11 -101.1,-22.93 -103.38,-20.73 -106.03,-18.5 -109.28,-16.26 -113.08,-13.99 -117.21,-11.69 -121.48,-9.36 -125.73,-7 -129.71,-4.61 -133.17,-2.17 -136.5,0.33 -141.33,2.74 -147.56,4.4" fill="none" stroke="rgb(233, 236, 239)" stroke-width="2" stroke-linejoin="round" filter="url(#fuzzy)" /><polyline points="-50.35,-54.1 -52.33,-53.2 -56.6,-51.83 -59.8,-50.19 -61.42,-48.39 -62.44,-46.49 -63.81,-44.53 -66,-42.49 -69.06,-40.39 -72.86,-38.24 -77.17,-36.05 -81.86,-33.85 -86.94,-31.68 -92.51,-29.52 -98.58,-27.37 -104.88,-25.21 -110.9,-23.04 -116.05,-20.84 -119.87,-18.63 -122.33,-16.39 -123.82,-14.14 -125.17,-11.85 -127.33,-9.53 -130.99,-7.19 -136.34,-4.87 -142.97,-2.55 -147.88,0.05" fill="none" stroke="rgb(233, 236, 239)" stroke-width="2" stroke-linejoin="round" filter="url(#fuzzy)" /><polyline points="-50.44,-53.45 -55.43,-51.96 -62.84,-50.19 -70.41,-48.32 -75.78,-46.39 -78.42,-44.39 -79.15,-42.32 -79.25,-40.2 -79.68,-38.02 -80.69,-35.82 -82,-33.61 -83.21,-31.42 -84.16,-29.24 -85.01,-27.06 -86.2,-24.88 -88.15,-22.68 -91.03,-20.46 -94.68,-18.22 -98.64,-15.96 -102.29,-13.67 -105.1,-11.35 -106.8,-9.01 -107.54,-6.64 -107.76,-4.25 -108.07,-1.85 -108.93,0.55 -110.5,2.92 -112.59,5.27 -114.92,7.57 -117.36,9.86 -120.17,12.15 -123.92,14.49 -129.63,17.08" fill="none" stroke="rgb(233, 236, 239)" stroke-width="2" stroke-linejoin="round" filter="url(#fuzzy)" /><polyline points="-50.54,-53.59 -59.97,-50.79 -65.88,-48.41 -69.48,-46.37 -71.45,-44.48 -73.27,-42.62 -75.9,-40.72 -79.39,-38.76 -83.22,-36.73 -86.83,-34.63 -89.91,-32.46 -92.44,-30.26 -94.56,-28.02 -96.46,-25.77 -98.31,-23.49 -100.22,-21.19 -102.19,-18.88 -104.08,-16.56 -105.67,-14.25 -106.72,-11.94 -107.08,-9.65 -106.84,-7.35 -106.31,-5.03 -106.01,-2.71 -106.42,-0.35 -107.88,2.01 -110.48,4.39 -113.99,6.76 -117.97,9.12 -121.85,11.45 -125.15,13.75 -127.72,16.05 -129.85,18.35 -132.17,20.66 -134.95,22.95 -137.37,25.15 -138.19,27.4" fill="none" stroke="rgb(233, 236, 239)" stroke-width="2" stroke-linejoin="round" filter="url(#fuzzy)" /><polyline points="-50.54,-53.59 -58.16,-50.8 -59.95,-48.41 -60.31,-46.38 -61.05,-44.5 -62.7,-42.64 -65.29,-40.75 -68.64,-38.79 -72.45,-36.76 -76.25,-34.66 -79.65,-32.5 -82.42,-30.3 -84.62,-28.07 -86.45,-25.82 -88.11,-23.55 -89.66,-21.25 -91.02,-18.94 -92.13,-16.63 -92.97,-14.32 -93.64,-12.02 -94.29,-9.72 -95.04,-7.43 -95.98,-5.13 -97.16,-2.81 -98.63,-0.46 -100.36,1.91 -102.26,4.29 -104.14,6.67 -105.92,9.03 -107.68,11.35 -109.71,13.63 -112.15,15.9 -114.65,18.22 -116.16,20.67 -115.29,23.46" fill="none" stroke="rgb(233, 236, 239)" stroke-width="2" stroke-linejoin="round" filter="url(#fuzzy)" /><polyline points="-50.54,-53.59 -53.32,-50.83 -56.32,-48.47 -59.34,-46.46 -62.31,-44.62 -65.05,-42.8 -67.35,-40.96 -69.16,-39.05 -70.58,-37.08 -71.81,-35.02 -73.09,-32.9 -74.64,-30.73 -76.59,-28.54 -78.94,-26.34 -81.61,-24.12 -84.43,-21.87 -87.16,-19.58 -89.58,-17.23 -91.45,-14.9 -92.74,-12.64 -93.7,-10.51 -94.65,-8.52 -96.06,-6.85" fill="none" stroke="rgb(233, 236, 239)" stroke-width="2" stroke-linejoin="round" filter="url(#fuzzy)" /><polyline points="-51.44,-52.24 -53.23,-50.2 -54.65,-48.29 -56.02,-46.35 -57.41,-44.33 -58.79,-42.27 -60.11,-40.14 -61.38,-37.95 -62.58,-35.73 -63.71,-33.52 -64.78,-31.32 -65.77,-29.14 -66.68,-26.96 -67.52,-24.78 -68.3,-22.58 -69.04,-20.36 -69.76,-18.11 -70.46,-15.84 -71.15,-13.55 -71.81,-11.23 -72.43,-8.88 -72.95,-6.51 -73.35,-4.12 -73.61,-1.72 -73.73,0.67 -73.74,3.04 -73.66,5.38 -73.52,7.69 -73.36,9.98 -73.2,12.25 -73.03,14.51 -72.8,16.78 -72.44,19.21 -71.9,22.47" fill="none" stroke="rgb(233, 236, 239)" stroke-width="2" stroke-linejoin="round" filter="url(#fuzzy)" /><polyline points="-55.22,-47.45 -57.31,-45.98 -60.56,-44.35 -63.7,-42.59 -66.85,-40.73 -70.07,-38.8 -73,-36.78 -75.35,-34.68 -77.07,-32.52 -78.32,-30.32 -79.32,-28.1 -80.23,-25.86 -81.2,-23.6 -82.35,-21.32 -83.8,-19.02 -85.58,-16.71 -87.6,-14.4 -89.71,-12.12 -91.69,-9.85 -93.42,-7.59 -94.88,-5.32 -96.22,-3.02 -97.67,-0.68 -99.39,1.69 -101.44,4.09 -103.67,6.5 -105.69,8.87 -106.98,11.11 -107.56,13.19" fill="none" stroke="rgb(233, 236, 239)" stroke-width="2" stroke-linejoin="round" filter="url(#fuzzy)" /><polyline points="-59.43,-40.56 -63.08,-37.9 -64.18,-35.31 -65.03,-32.98 -65.85,-30.81 -66.59,-28.69 -67.24,-26.54 -67.85,-24.37 -68.43,-22.16 -68.98,-19.92 -69.53,-17.66 -70.07,-15.38 -70.62,-13.07 -71.17,-10.73 -71.71,-8.37 -72.22,-6 -72.69,-3.61 -73.12,-1.22 -73.52,1.16 -73.89,3.52 -74.23,5.86 -74.55,8.17 -74.81,10.47 -74.99,12.74 -75.08,15 -75.04,17.24 -74.9,19.45 -74.67,21.64 -74.37,23.82 -73.99,26 -73.49,28.23 -72.84,30.52 -72.08,32.89 -71.28,35.23 -70.61,37.39 -70.3,39.2" fill="none" stroke="rgb(233, 236, 239)" stroke-width="2" stroke-linejoin="round" filter="url(#fuzzy)" /><polyline points="-61.56,-36.56 -63.01,-34.49 -65.45,-32.13 -69.76,-29.87 -74.87,-27.66 -78.99,-25.47 -81.38,-23.25 -82.71,-20.98 -84.24,-18.67 -86.85,-16.36 -90.58,-14.06 -94.8,-11.8 -98.75,-9.56 -101.97,-7.33 -104.46,-5.07 -106.46,-2.78 -108.2,-0.46 -109.84,1.89 -111.38,4.27 -112.72,6.64 -113.81,8.98 -115.21,11.25 -118.64,13.49 -125.54,15.87" fill="none" stroke="rgb(233, 236, 239)" stroke-width="2" stroke-linejoin="round" filter="url(#fuzzy)" /><polyline points="-61.56,-36.56 -62.09,-34.46 -61.33,-32.09 -59.81,-29.81 -58.39,-27.58 -57.67,-25.36 -57.87,-23.11 -58.78,-20.82 -59.93,-18.5 -60.82,-16.17 -61.13,-13.86 -60.77,-11.58 -59.86,-9.31 -58.64,-7.03 -57.34,-4.74 -56.1,-2.43 -54.93,-0.09 -53.75,2.27 -52.49,4.64 -51.12,6.99 -49.7,9.33 -48.22,11.64 -46.58,13.93 -44.57,16.21 -42.05,18.49 -39.13,20.76 -36.24,23 -34.04,25.15 -32.76,27.14 -30.55,28.86" fill="none" stroke="rgb(233, 236, 239)" stroke-width="2" stroke-linejoin="round" filter="url(#fuzzy)" /><polyline points="-61.56,-36.56 -64.32,-34.44 -66.95,-32.06 -69.28,-29.76 -70.86,-27.51 -71.77,-25.27 -72.38,-23 -73.02,-20.69 -73.84,-18.35 -74.88,-16.02 -76.14,-13.69 -77.54,-11.39 -78.94,-9.09 -80.15,-6.79 -81.04,-4.47 -81.52,-2.14 -81.64,0.22 -81.54,2.58 -81.36,4.95 -81.24,7.31 -81.29,9.65 -81.56,11.98 -82.07,14.29 -82.79,16.58 -83.63,18.85 -84.44,21.1 -85.01,23.32 -85.16,25.53 -84.78,27.73 -83.94,29.93 -82.8,32.13 -81.61,34.34 -80.57,36.5 -79.89,38.57 -79.6,40.58 -79.57,42.64 -79.42,44.81 -79,46.6" fill="none" stroke="rgb(233, 236, 239)" stroke-width="2" stroke-linejoin="round" filter="url(#fuzzy)" /><polyline points="-61.56,-36.56 -65.22,-34.45 -70.74,-32.07 -76.15,-29.77 -80.8,-27.54 -84.5,-25.3 -87.41,-23.04 -89.92,-20.73 -92.24,-18.4 -94.28,-16.07 -95.76,-13.75 -96.53,-11.45 -96.68,-9.16 -96.54,-6.87 -96.48,-4.56 -96.78,-2.23 -97.52,0.12 -98.64,2.48 -99.97,4.85 -101.37,7.21 -102.74,9.55 -104.08,11.87 -105.42,14.18 -106.84,16.46 -108.39,18.73 -110.16,20.98 -112.17,23.2 -114.41,25.39 -116.77,27.56 -118.92,29.75 -120.47,31.99 -121.29,34.29 -121.86,36.58 -123.33,38.52 -127.32,39.58" fill="none" stroke="rgb(233, 236, 239)" stroke-width="2" stroke-linejoin="round" filter="url(#fuzzy)" /><polyline points="66.78,-21.76 68.98,-19.13 70.71,-16.67 71.69,-14.27 71.97,-11.9 71.93,-9.54 71.83,-7.16 71.73,-4.77 71.7,-2.38 71.75,0.01 71.92,2.39 72.2,4.76 72.6,7.12 73.11,9.49 73.69,11.9 74.35,14.34 75.06,16.8 75.79,19.27 76.53,21.7 77.24,24.08 77.85,26.36 78.22,28.51 78.25,30.53 77.89,32.43 77.23,34.32 76.41,36.33 75.47,38.6 74.38,41.1" fill="none" stroke="rgb(233, 236, 239)" stroke-width="2" stroke-linejoin="round" filter="url(#fuzzy)" /><polyline points="-62.43,-35.04 -63.77,-31.99 -64.81,-29.67 -65.77,-27.46 -66.81,-25.25 -67.94,-22.99 -69.08,-20.69 -70.15,-18.35 -71.09,-16.01 -71.9,-13.69 -72.59,-11.4 -73.21,-9.11 -73.77,-6.83 -74.34,-4.52 -74.96,-2.19 -75.65,0.16 -76.38,2.52 -77.11,4.88 -77.74,7.24 -78.2,9.58 -78.44,11.9 -78.43,14.2 -78.21,16.49 -77.82,18.75 -77.37,21 -76.97,23.22 -76.7,25.4 -76.58,27.57 -76.5,29.76 -76.37,31.99 -76.09,34.3 -75.68,36.58 -75.23,38.52 -75.53,39.58" fill="none" stroke="rgb(233, 236, 239)" stroke-width="2" stroke-linejoin="round" filter="url(#fuzzy)" /><polyline points="-62.43,-35.04 -64.34,-32 -67.04,-29.69 -69.06,-27.49 -69.99,-25.29 -70.29,-23.04 -70.44,-20.75 -70.67,-18.42 -71.02,-16.09 -71.44,-13.78 -71.9,-11.49 -72.43,-9.22 -73.07,-6.95 -73.83,-4.66 -74.65,-2.34 -75.46,0 -76.2,2.36 -76.86,4.72 -77.5,7.07 -78.16,9.41 -78.86,11.72 -79.53,14.01 -80.06,16.29 -80.4,18.56 -80.53,20.82 -80.52,23.05 -80.54,25.2 -80.8,27.29 -81.29,29.38 -80.92,31.8" fill="none" stroke="rgb(233, 236, 239)" stroke-width="2" stroke-linejoin="round" filter="url(#fuzzy)" /><polyline points="-63.61,-31.96 -69.07,-30.54 -74.58,-28.62 -79.48,-26.5 -82.16,-24.33 -83.06,-22.13 -83.5,-19.91 -84.27,-17.67 -85.27,-15.42 -86.02,-13.14 -86.19,-10.83 -85.96,-8.5 -85.88,-6.14 -86.64,-3.76 -88.7,-1.38 -92.19,0.98 -96.81,3.33 -101.88,5.64 -106.59,7.92 -110.26,10.19 -112.73,12.43 -114.38,14.67 -115.8,16.92 -117.22,19.18 -118.52,21.36 -120.45,22.76" fill="none" stroke="rgb(233, 236, 239)" stroke-width="2" stroke-linejoin="round" filter="url(#fuzzy)" /><polyline points="-63.89,-30.89 -64.58,-28.72 -65.08,-26.47 -65.47,-24.26 -65.78,-22.06 -65.91,-19.84 -65.71,-17.61 -65.08,-15.36 -64.09,-13.08 -62.94,-10.78 -61.85,-8.45 -60.97,-6.09 -60.34,-3.71 -59.88,-1.34 -59.46,1.03 -58.96,3.37 -58.27,5.67 -57.38,7.95 -56.3,10.21 -55.01,12.45 -53.49,14.69 -51.65,16.93 -49.47,19.19 -46.96,21.37 -44.67,22.76" fill="none" stroke="rgb(233, 236, 239)" stroke-width="2" stroke-linejoin="round" filter="url(#fuzzy)" /><polyline points="-63.89,-30.89 -64.67,-28.7 -65.49,-26.44 -66.29,-24.22 -67.01,-22 -67.64,-19.77 -68.17,-17.52 -68.62,-15.25 -69.02,-12.96 -69.36,-10.64 -69.63,-8.29 -69.82,-5.92 -69.92,-3.54 -69.96,-1.16 -69.93,1.21 -69.87,3.56 -69.78,5.88 -69.67,8.18 -69.52,10.45 -69.32,12.71 -69.05,14.95 -68.71,17.18 -68.29,19.38 -67.8,21.55 -67.27,23.67 -66.71,25.76 -66.1,27.9 -65.34,30.13 -64.45,32.27" fill="none" stroke="rgb(233, 236, 239)" stroke-width="2" stroke-linejoin="round" filter="url(#fuzzy)" /><polyline points="-65.34,-27.39 -66.06,-24.96 -66.52,-22.82 -66.84,-20.52 -67.1,-18.13 -67.36,-15.75 -67.64,-13.41 -67.93,-11.12 -68.21,-8.85 -68.47,-6.56 -68.68,-4.25 -68.81,-1.91 -68.83,0.45 -68.75,2.82 -68.56,5.19 -68.27,7.55 -67.89,9.89 -67.42,12.21 -66.86,14.51 -66.22,16.79 -65.51,19.06 -64.74,21.3 -63.95,23.53 -63.15,25.74 -62.36,27.93 -61.56,30.12 -60.73,32.31 -59.87,34.49 -58.94,36.63 -57.95,38.72 -56.88,40.76 -55.71,42.78 -54.43,44.78 -53.06,46.76 -51.61,48.73 -50.04,50.81 -48.12,53.25" fill="none" stroke="rgb(233, 236, 239)" stroke-width="2" stroke-linejoin="round" filter="url(#fuzzy)" /><polyline points="-65.59,-25.85 -67.3,-23.99 -68.51,-21.85 -69.87,-19.62 -71.31,-17.36 -72.61,-15.1 -73.64,-12.81 -74.47,-10.48 -75.32,-8.13 -76.49,-5.75 -78.23,-3.36 -80.6,-0.98 -83.43,1.39 -86.38,3.73 -89.1,6.05 -91.4,8.34 -93.37,10.61 -95.28,12.87 -97.34,15.11 -99.48,17.33 -101.38,19.53 -102.62,21.7 -102.97,23.84 -102.53,25.99 -101.67,28.19 -100.9,30.49 -100.89,32.9 -102.01,35.35 -101.87,37.44" fill="none" stroke="rgb(233, 236, 239)" stroke-width="2" stroke-linejoin="round" filter="url(#fuzzy)" /><polyline points="-65.59,-25.85 -66.12,-23.99 -66.47,-21.86 -66.81,-19.63 -67.16,-17.38 -67.47,-15.11 -67.72,-12.83 -67.92,-10.51 -68.1,-8.16 -68.25,-5.78 -68.37,-3.4 -68.41,-1.01 -68.38,1.35 -68.27,3.7 -68.09,6.01 -67.85,8.3 -67.56,10.57 -67.19,12.82 -66.74,15.06 -66.2,17.28 -65.56,19.48 -64.84,21.64 -64.06,23.77 -63.2,25.89 -62.26,28.07 -61.22,30.37 -60.09,32.87 -58.93,35.81" fill="none" stroke="rgb(233, 236, 239)" stroke-width="2" stroke-linejoin="round" filter="url(#fuzzy)" /><polyline points="-66.34,-24.09 -64.74,-22.8 -63.87,-20.53 -64.41,-18.09 -65.42,-15.67 -66.29,-13.33 -66.72,-11.06 -66.63,-8.79 -66.05,-6.52 -65.12,-4.21 -64.01,-1.87 -62.88,0.49 -61.8,2.86 -60.73,5.23 -59.61,7.59 -58.37,9.93 -56.93,12.25 -55.29,14.55 -53.43,16.83 -51.37,19.09 -49.13,21.33 -46.74,23.55 -44.29,25.76 -41.93,27.95 -39.85,30.14 -38.24,32.33 -37.14,34.5 -36.41,36.64 -35.72,38.73 -34.76,40.77 -33.39,42.79 -31.73,44.79 -30.01,46.77 -28.29,48.73 -26.52,50.81 -25.55,53.25" fill="none" stroke="rgb(233, 236, 239)" stroke-width="2" stroke-linejoin="round" filter="url(#fuzzy)" /><polyline points="66.95,-21.7 68.23,-19.78 69.35,-17.59 70.62,-15.31 72.62,-12.97 75.18,-10.55 77.87,-8.03 80.43,-5.48 82.72,-2.93 84.6,-0.45 85.92,1.95 86.56,4.28 86.51,6.56 85.92,8.8 85.08,11.05 84.33,13.3 83.98,15.58 84.22,17.88 85.03,20.18 86.21,22.48 87.48,24.77 88.51,27.06 89.11,29.36 89.27,31.68 89.24,33.95 89.4,36.1 89.95,38.06 90.44,39.93 89.65,42.12 86.88,45.02" fill="none" stroke="rgb(233, 236, 239)" stroke-width="2" stroke-linejoin="round" filter="url(#fuzzy)" /><polyline points="66.58,-22.84 68.04,-21.23 69.31,-19.08 70.2,-16.75 71.16,-14.4 72.16,-12.05 73.03,-9.7 73.71,-7.33 74.33,-4.95 75.07,-2.57 76.03,-0.19 77.26,2.17 78.77,4.53 80.63,6.87 82.9,9.22 85.6,11.6 88.63,14.03 91.67,16.51 94.27,18.99 95.99,21.47 96.7,23.91 96.76,26.29 97.04,28.52 98.15,30.39 97.66,31.54" fill="none" stroke="rgb(233, 236, 239)" stroke-width="2" stroke-linejoin="round" filter="url(#fuzzy)" /><polyline points="65.71,-26.28 66.58,-23.59 67.58,-21.33 68.33,-19.05 68.8,-16.71 69.11,-14.34 69.38,-11.96 69.63,-9.57 69.85,-7.17 70.03,-4.76 70.18,-2.35 70.3,0.05 70.41,2.45 70.51,4.84 70.57,7.24 70.58,9.65 70.5,12.08 70.33,14.53 70.05,16.98 69.67,19.43 69.2,21.83 68.63,24.18 67.98,26.44 67.27,28.62 66.51,30.72 65.73,32.77 64.9,34.81 64.02,36.87 63.05,38.98 61.98,41.12 60.82,43.24 59.62,45.31 58.41,47.28 57.23,49.16 56.01,51 54.48,52.85" fill="none" stroke="rgb(233, 236, 239)" stroke-width="2" stroke-linejoin="round" filter="url(#fuzzy)" /><polyline points="65.49,-26.24 70.28,-23.79 75.91,-21.78 79.03,-19.76 79.26,-17.64 78.69,-15.42 79.13,-13.11 81.01,-10.71 83.61,-8.23 85.82,-5.7 86.92,-3.18 86.93,-0.7 86.42,1.7 86.18,4.04 86.75,6.31 88.27,8.55 90.5,10.78 93.02,13.03 95.51,15.3 97.77,17.6 99.72,19.91 101.36,22.2 102.73,24.46 103.89,26.69 104.91,28.96 105.78,31.39 106.48,34.13 107.91,37.22" fill="none" stroke="rgb(233, 236, 239)" stroke-width="2" stroke-linejoin="round" filter="url(#fuzzy)" /><polyline points="64.77,-28.33 65.81,-27.29 68.84,-25.58 72.95,-23.56 76.84,-21.38 79.53,-19.12 80.78,-16.8 80.9,-14.44 80.48,-12.07 80.04,-9.68 79.92,-7.28 80.21,-4.88 80.92,-2.47 81.97,-0.07 83.35,2.33 85,4.73 86.87,7.13 88.87,9.54 90.9,11.97 92.9,14.42 94.88,16.88 96.87,19.33 98.9,21.74 100.91,24.09 102.8,26.36 104.51,28.54 106.05,30.64 107.48,32.69 108.81,34.72 109.84,36.79 110.3,38.9 110.06,41.06 109.28,43.21 108.29,45.29 107.36,47.25 106.57,49.11 105.13,50.9" fill="none" stroke="rgb(233, 236, 239)" stroke-width="2" stroke-linejoin="round" filter="url(#fuzzy)" /><polyline points="64.77,-28.33 66.25,-27.29 69.24,-25.58 72,-23.56 73.94,-21.38 75.25,-19.12 76.4,-16.8 77.76,-14.44 79.45,-12.07 81.33,-9.68 83.21,-7.28 84.91,-4.88 86.31,-2.47 87.4,-0.07 88.2,2.33 88.76,4.73 89.15,7.13 89.45,9.54 89.74,11.97 90.17,14.42 90.91,16.88 92.09,19.33 93.76,21.74 95.84,24.09 98.09,26.36 100.26,28.54 102.17,30.64 103.8,32.69 105.29,34.72 106.84,36.79 108.54,38.9 110.22,41.06 111.55,43.21 112.05,45.29 111.3,47.25 109.33,49.11 109.3,50.9" fill="none" stroke="rgb(233, 236, 239)" stroke-width="2" stroke-linejoin="round" filter="url(#fuzzy)" /><polyline points="61.13,-37.46 62.59,-35.34 63.67,-33.14 64.99,-30.79 66.35,-28.47 67.5,-26.24 68.45,-24.1 69.31,-22 70.2,-19.88 71.17,-17.71 72.2,-15.47 73.28,-13.15 74.41,-10.75 75.6,-8.3 76.87,-5.8 78.23,-3.31 79.67,-0.84 81.13,1.58 82.52,3.95 83.76,6.28 84.77,8.57 85.53,10.85 86.07,13.14 86.46,15.43 86.79,17.74 87.1,20.05 87.4,22.36 87.68,24.67 87.99,26.98 88.41,29.3 88.98,31.6 89.65,33.87 90.17,36.03 90.29,38.07 89.9,40.05 89.13,42.11 87.99,44.29 87.1,45.93" fill="none" stroke="rgb(233, 236, 239)" stroke-width="2" stroke-linejoin="round" filter="url(#fuzzy)" /><polyline points="59.09,-41.23 65.03,-39.14 71.42,-37.25 74.96,-35.28 76.78,-33.15 78.21,-30.92 79.66,-28.68 80.92,-26.48 81.74,-24.34 82.19,-22.23 82.58,-20.11 83.23,-17.96 84.28,-15.74 85.7,-13.45 87.35,-11.08 89.11,-8.64 90.86,-6.15 92.52,-3.65 94.03,-1.17 95.39,1.26 96.73,3.62 98.29,5.93 100.31,8.18 102.87,10.42 105.81,12.67 108.72,14.96 111.22,17.29 113.17,19.64 114.71,21.96 116.04,24.24 117.17,26.4 117.8,27.89" fill="none" stroke="rgb(233, 236, 239)" stroke-width="2" stroke-linejoin="round" filter="url(#fuzzy)" /><polyline points="57.64,-43.72 59.59,-41.4 60.95,-39.33 63.08,-37.37 66.46,-35.36 70.85,-33.24 75.85,-31.05 81.23,-28.83 86.72,-26.65 91.89,-24.51 96.22,-22.41 99.33,-20.31 101.21,-18.18 102.2,-15.99 102.82,-13.73 103.52,-11.38 104.53,-8.94 105.84,-6.44 107.3,-3.92 108.77,-1.41 110.16,1.03 111.51,3.39 112.95,5.67 114.88,7.88 117.77,10 121.43,12.08 123.97,14.5 121.99,18.56" fill="none" stroke="rgb(233, 236, 239)" stroke-width="2" stroke-linejoin="round" filter="url(#fuzzy)" /><polyline points="53.1,-50.35 54.09,-48.85 55.19,-46.97 56.14,-45.04 57.09,-43.08 58.09,-41.06 59.14,-39 60.16,-36.89 61.12,-34.76 62.02,-32.61 62.87,-30.46 63.67,-28.31 64.4,-26.16 65.06,-24 65.63,-21.82 66.13,-19.59 66.55,-17.32 66.9,-15.01 67.2,-12.67 67.43,-10.3 67.59,-7.92 67.67,-5.52 67.66,-3.11 67.56,-0.71 67.4,1.69 67.18,4.09 66.91,6.48 66.59,8.88 66.2,11.3 65.71,13.76 65.11,16.25 64.43,18.76 63.7,21.27 62.94,23.75 62.14,26.18 61.28,28.45 60.45,30.36 59.97,31.54" fill="none" stroke="rgb(233, 236, 239)" stroke-width="2" stroke-linejoin="round" filter="url(#fuzzy)" /><polyline points="51.48,-52.22 53.69,-49.67 56.1,-47.6 58.88,-45.68 61.46,-43.72 63.4,-41.72 64.78,-39.7 65.9,-37.66 67.06,-35.59 68.44,-33.47 70.03,-31.31 71.7,-29.13 73.28,-26.96 74.59,-24.82 75.54,-22.7 76.15,-20.6 76.53,-18.47 76.84,-16.29 77.27,-14.04 77.91,-11.71 78.81,-9.28 79.92,-6.76 81.14,-4.19 82.37,-1.64 83.5,0.82 84.45,3.16 85.14,5.5 85.7,7.99 86.58,10.46" fill="none" stroke="rgb(233, 236, 239)" stroke-width="2" stroke-linejoin="round" filter="url(#fuzzy)" /><polyline points="50.65,-53.31 55.72,-50.99 61.06,-49.03 64.09,-47.12 65.89,-45.21 67.69,-43.27 69.83,-41.3 72.22,-39.27 74.72,-37.21 77.38,-35.11 80.37,-32.99 83.79,-30.86 87.52,-28.75 91.23,-26.66 94.51,-24.57 97.21,-22.45 99.5,-20.29 101.89,-18.07 104.83,-15.79 108.49,-13.47 112.85,-11.14 118.14,-8.79 124.96,-6.41 133.07,-4 138.29,-1.41" fill="none" stroke="rgb(233, 236, 239)" stroke-width="2" stroke-linejoin="round" filter="url(#fuzzy)" /><polyline points="50.37,-54.01 52.19,-51.94 53.83,-49.75 55.55,-47.69 57.59,-45.7 59.91,-43.71 62.28,-41.69 64.39,-39.66 66.1,-37.6 67.43,-35.51 68.55,-33.37 69.6,-31.21 70.7,-29.02 71.83,-26.85 72.96,-24.69 74.03,-22.54 75.07,-20.39 76.12,-18.22 77.24,-15.99 78.43,-13.7 79.66,-11.34 80.86,-8.91 81.94,-6.42 82.87,-3.92 83.65,-1.43 84.33,1.02 84.95,3.4 85.56,5.71 86.13,7.97 86.65,10.2 87.1,12.44 87.45,14.74 87.66,17.11 87.7,19.48 87.73,21.69 88.58,23.49" fill="none" stroke="rgb(233, 236, 239)" stroke-width="2" stroke-linejoin="round" filter="url(#fuzzy)" /><polyline points="49.63,-54.54 50.77,-53.5 52.61,-51.75 54.55,-49.76 56.36,-47.76 58.15,-45.76 60.01,-43.76 61.87,-41.75 63.68,-39.71 65.44,-37.65 67.2,-35.56 68.98,-33.43 70.69,-31.26 72.23,-29.09 73.51,-26.91 74.51,-24.76 75.32,-22.61 76.05,-20.46 76.8,-18.28 77.61,-16.06 78.46,-13.77 79.3,-11.41 80.07,-8.98 80.79,-6.5 81.52,-3.99 82.34,-1.49 83.32,0.96 84.45,3.35 85.67,5.66 86.86,7.91 87.89,10.12 88.68,12.34 89.15,14.65 89.32,17.09 89.16,19.55 88.63,22.17" fill="none" stroke="rgb(233, 236, 239)" stroke-width="2" stroke-linejoin="round" filter="url(#fuzzy)" /><polyline points="45.27,-59.27 47.14,-57.4 48.39,-56.04 49.64,-54.6 51.05,-52.94 52.59,-51.12 54.17,-49.22 55.72,-47.28 57.22,-45.32 58.67,-43.33 60.08,-41.32 61.47,-39.27 62.82,-37.19 64.15,-35.07 65.44,-32.94 66.65,-30.8 67.76,-28.66 68.74,-26.52 69.59,-24.37 70.32,-22.19 70.95,-19.98 71.49,-17.73 71.96,-15.43 72.39,-13.1 72.79,-10.74 73.2,-8.36 73.64,-5.96 74.08,-3.55 74.48,-1.13 74.81,1.28 75.03,3.68 75.19,6.02 75.32,8.28 75.42,10.5 75.42,13.04 75.14,16.85" fill="none" stroke="rgb(233, 236, 239)" stroke-width="2" stroke-linejoin="round" filter="url(#fuzzy)" /><polyline points="45.27,-59.27 48.42,-57.4 51.08,-56.04 53.19,-54.59 55.38,-52.93 57.95,-51.1 60.75,-49.2 63.43,-47.26 65.67,-45.29 67.34,-43.3 68.49,-41.28 69.25,-39.23 69.79,-37.14 70.26,-35.03 70.76,-32.89 71.37,-30.75 72.12,-28.61 72.99,-26.46 73.98,-24.3 75.08,-22.12 76.33,-19.9 77.79,-17.64 79.49,-15.34 81.42,-13 83.56,-10.64 85.82,-8.25 88.11,-5.86 90.36,-3.45 92.47,-1.03 94.33,1.37 95.82,3.76 96.86,6.13 97.47,8.47 97.81,10.85 98.2,13.35 99,15.98 100.33,18.5 100.82,20.36" fill="none" stroke="rgb(233, 236, 239)" stroke-width="2" stroke-linejoin="round" filter="url(#fuzzy)" /><polyline points="45.27,-59.27 48.57,-57.41 49.57,-56.05 50.46,-54.62 51.71,-52.97 53.32,-51.16 55.16,-49.26 57.05,-47.33 58.88,-45.38 60.56,-43.41 62.15,-41.4 63.77,-39.36 65.55,-37.29 67.52,-35.18 69.61,-33.06 71.66,-30.93 73.47,-28.79 74.92,-26.67 76.04,-24.54 76.92,-22.38 77.71,-20.19 78.52,-17.95 79.36,-15.66 80.18,-13.33 80.96,-10.97 81.73,-8.6 82.6,-6.21 83.66,-3.81 84.94,-1.41 86.46,1.01 88.21,3.5 89.43,6.26" fill="none" stroke="rgb(233, 236, 239)" stroke-width="2" stroke-linejoin="round" filter="url(#fuzzy)" /><polyline points="43.65,-60.88 51.02,-58.23 54.91,-56.52 55.98,-55.02 56.41,-53.46 57.32,-51.76 59.16,-49.93 62.13,-48.03 66.36,-46.09 71.77,-44.11 78.01,-42.13 84.37,-40.12 90.07,-38.1 94.52,-36.04 97.58,-33.94 99.61,-31.79 101.19,-29.62 102.87,-27.44 104.92,-25.3 107.36,-23.21 110.17,-21.15 113.41,-19.08 117.18,-16.96 121.46,-14.79 126.01,-12.6 130.7,-10.37 134.71,-7.65" fill="none" stroke="rgb(233, 236, 239)" stroke-width="2" stroke-linejoin="round" filter="url(#fuzzy)" /><polyline points="42.46,-61.88 49.45,-60.23 50.18,-58.33 50.74,-56.63 52.48,-55.03 55.17,-53.4 58.12,-51.67 60.8,-49.83 62.96,-47.92 64.55,-45.96 65.74,-43.98 66.75,-41.97 67.83,-39.93 69.21,-37.87 71.02,-35.78 73.24,-33.66 75.78,-31.51 78.47,-29.34 81.13,-27.17 83.63,-25.01 85.94,-22.87 88.09,-20.72 90.14,-18.56 92.17,-16.36 94.21,-14.09 96.2,-11.74 98.05,-9.31 99.67,-6.8 100.95,-4.24 101.88,-1.7 102.51,0.78 103.02,3.17 103.71,5.52 104.96,7.85 106.85,10.05 107.92,11.66" fill="none" stroke="rgb(233, 236, 239)" stroke-width="2" stroke-linejoin="round" filter="url(#fuzzy)" /><polyline points="42.46,-61.88 44.23,-60.23 46.26,-58.33 48.22,-56.64 50.13,-55.05 51.96,-53.42 53.64,-51.69 55.16,-49.86 56.54,-47.95 57.82,-46 59.03,-44.01 60.21,-42.01 61.38,-39.98 62.58,-37.93 63.83,-35.84 65.15,-33.72 66.54,-31.57 67.99,-29.4 69.43,-27.23 70.79,-25.08 71.99,-22.95 72.98,-20.82 73.77,-18.67 74.41,-16.49 74.98,-14.24 75.57,-11.9 76.23,-9.47 76.93,-6.94 77.64,-4.34 78.29,-1.75 78.83,0.72 79.23,3 79.47,5.3 80.01,8.29" fill="none" stroke="rgb(233, 236, 239)" stroke-width="2" stroke-linejoin="round" filter="url(#fuzzy)" /><polyline points="40.55,-63.18 42.81,-61.28 45.03,-59.42 47.09,-57.75 48.95,-56.2 50.6,-54.62 52.14,-52.94 53.65,-51.15 55.15,-49.29 56.62,-47.37 58,-45.42 59.29,-43.44 60.5,-41.42 61.67,-39.38 62.86,-37.3 64.08,-35.19 65.33,-33.07 66.58,-30.93 67.8,-28.79 68.96,-26.65 70.03,-24.5 71.03,-22.33 71.98,-20.12 72.9,-17.87 73.78,-15.58 74.58,-13.25 75.26,-10.89 75.84,-8.5 76.34,-6.11 76.82,-3.7 77.31,-1.27 77.8,1.17 78.3,3.62 78.8,6.04 79.34,8.28 80.1,9.98" fill="none" stroke="rgb(233, 236, 239)" stroke-width="2" stroke-linejoin="round" filter="url(#fuzzy)" /><polyline points="40.55,-63.18 42.96,-61.29 45,-59.44 46.79,-57.78 48.62,-56.24 50.76,-54.68 53.2,-53.01 55.73,-51.24 58.04,-49.39 60,-47.48 61.66,-45.55 63.21,-43.58 64.86,-41.59 66.72,-39.56 68.77,-37.5 70.92,-35.4 73.02,-33.28 74.94,-31.15 76.6,-29.02 78.01,-26.91 79.18,-24.8 80.23,-22.67 81.29,-20.5 82.51,-18.27 84,-15.98 85.76,-13.65 87.76,-11.3 89.95,-8.93 92.24,-6.57 94.1,-4.34" fill="none" stroke="rgb(233, 236, 239)" stroke-width="2" stroke-linejoin="round" filter="url(#fuzzy)" /><polyline points="40.88,-62.85 42.72,-61.71 45.86,-60.11 49.87,-58.39 53.58,-56.73 56.25,-55.12 57.81,-53.47 58.65,-51.74 59.28,-49.92 60.12,-48.03 61.43,-46.09 63.39,-44.12 66.09,-42.12 69.54,-40.1 73.57,-38.05 77.83,-35.98 81.85,-33.86 85.23,-31.71 87.74,-29.54 89.51,-27.37 90.89,-25.23 92.36,-23.1 94.24,-20.99 96.6,-18.88 99.21,-16.73 101.83,-14.51 104.39,-12.22 107.21,-9.81 110.62,-7.24 114.46,-4.47 117.94,-1.52 122.21,1.47" fill="none" stroke="rgb(233, 236, 239)" stroke-width="2" stroke-linejoin="round" filter="url(#fuzzy)" /><polyline points="40.88,-62.85 42.38,-61.73 43.79,-60.15 44.41,-58.44 44.14,-56.79 43.62,-55.2 43.46,-53.59 43.69,-51.89 43.82,-50.09 43.33,-48.22 42.02,-46.3 40.09,-44.34 38.04,-42.37 36.33,-40.38 35.22,-38.37 34.56,-36.34 33.9,-34.25 32.71,-32.11 30.71,-29.9 28.13,-27.69 25.64,-25.53 23.91,-23.47 23.08,-21.55 22.37,-19.7 18.83,-17.79" fill="none" stroke="rgb(233, 236, 239)" stroke-width="2" stroke-linejoin="round" filter="url(#fuzzy)" /><polyline points="39.25,-64.43 40.85,-63.08 42.66,-61.7 44.7,-60.14 46.81,-58.49 48.82,-56.86 50.71,-55.26 52.52,-53.62 54.31,-51.92 56.1,-50.12 57.85,-48.26 59.5,-46.34 61.02,-44.38 62.42,-42.41 63.77,-40.41 65.14,-38.4 66.58,-36.37 68.07,-34.28 69.54,-32.13 70.88,-29.93 72.06,-27.71 73.1,-25.54 74.1,-23.49 75.09,-21.55 76.04,-19.7 76.85,-17.79" fill="none" stroke="rgb(233, 236, 239)" stroke-width="2" stroke-linejoin="round" filter="url(#fuzzy)" /><polyline points="37.12,-65.8 39.66,-64.44 41.59,-63.09 43.45,-61.64 45.43,-60.07 47.55,-58.44 49.81,-56.8 52.38,-55.15 55.44,-53.47 59.11,-51.72 63.31,-49.89 67.74,-48.01 71.98,-46.07 75.63,-44.09 78.48,-42.08 80.54,-40.05 82.07,-37.99 83.44,-35.9 85.01,-33.77 87,-31.62 89.47,-29.46 92.33,-27.29 95.41,-25.13 98.59,-22.98 101.81,-20.84 105.11,-18.67 108.54,-16.47 112.05,-14.21 115.4,-11.86 118.19,-9.43 120.08,-6.9 121.06,-4.33 121.66,-1.76 122.83,0.72 125.27,3.1 128.62,5.46 131.48,7.97 132.21,10.46" fill="none" stroke="rgb(233, 236, 239)" stroke-width="2" stroke-linejoin="round" filter="url(#fuzzy)" /><polyline points="34.73,-67.32 37.05,-65.89 39.34,-64.52 41.88,-63.14 44.82,-61.69 48.04,-60.14 51.38,-58.55 54.68,-56.93 57.82,-55.3 60.6,-53.64 62.91,-51.91 64.77,-50.12 66.43,-48.25 68.18,-46.33 70.27,-44.37 72.76,-42.39 75.56,-40.38 78.49,-38.35 81.4,-36.3 84.19,-34.19 86.77,-32.04 89.08,-29.85 91.15,-27.66 93.11,-25.5 95.24,-23.41 97.89,-21.37 101.37,-19.32 105.55,-17.16 109.12,-14.83 109.49,-12.51" fill="none" stroke="rgb(233, 236, 239)" stroke-width="2" stroke-linejoin="round" filter="url(#fuzzy)" /><polyline points="34.73,-67.32 36.97,-65.89 39.02,-64.52 41.03,-63.14 43.29,-61.68 46.08,-60.13 49.5,-58.53 53.36,-56.92 57.26,-55.29 60.82,-53.62 63.85,-51.89 66.46,-50.09 68.91,-48.22 71.5,-46.3 74.42,-44.34 77.65,-42.35 81,-40.34 84.22,-38.31 87.16,-36.24 89.88,-34.13 92.58,-31.98 95.45,-29.8 98.57,-27.62 101.83,-25.46 105.06,-23.36 108.21,-21.29 111.46,-19.22 114.94,-17.09 118.37,-14.9 120.75,-12.8 121.8,-11.12" fill="none" stroke="rgb(233, 236, 239)" stroke-width="2" stroke-linejoin="round" filter="url(#fuzzy)" /><polyline points="33.53,-68.07 37.2,-66.71 42.21,-65.23 45.71,-63.84 47.35,-62.48 48.25,-61.06 49.48,-59.57 51.57,-58.05 54.57,-56.51 58.25,-54.92 62.31,-53.26 66.51,-51.53 70.72,-49.71 74.91,-47.85 79.04,-45.94 82.99,-44 86.61,-42.03 89.85,-40.02 92.83,-37.98 95.78,-35.9 98.83,-33.76 101.84,-31.59 104.54,-29.45 107.01,-27.38 110.06,-25.39 114.53,-23.41 117.97,-21.76" fill="none" stroke="rgb(233, 236, 239)" stroke-width="2" stroke-linejoin="round" filter="url(#fuzzy)" /><polyline points="34.04,-68.13 35.24,-67.13 36.96,-65.89 38.81,-64.59 40.68,-63.23 42.58,-61.79 44.43,-60.27 46.19,-58.7 47.82,-57.11 49.35,-55.51 50.86,-53.88 52.4,-52.19 53.98,-50.43 55.57,-48.58 57.11,-46.69 58.53,-44.74 59.86,-42.77 61.11,-40.79 62.35,-38.82 63.61,-36.86 64.91,-34.87 66.21,-32.73 67.48,-30.22 68.89,-27.21" fill="none" stroke="rgb(233, 236, 239)" stroke-width="2" stroke-linejoin="round" filter="url(#fuzzy)" /><polyline points="30.67,-69.79 32.99,-68.73 36.39,-67.72 40.24,-66.53 43.62,-65.24 46.29,-63.89 48.52,-62.51 50.67,-61.08 52.97,-59.6 55.56,-58.08 58.56,-56.52 62.12,-54.92 66.24,-53.25 70.76,-51.5 75.26,-49.69 79.21,-47.82 82.19,-45.91 84.07,-43.96 85.07,-41.97 85.74,-39.96 86.75,-37.9 88.68,-35.81 91.85,-33.67 96.17,-31.53 101.14,-29.39 106,-27.29 110.07,-25.24 113.03,-23.19 115.16,-21.1 117.34,-18.99 121.67,-17.02" fill="none" stroke="rgb(233, 236, 239)" stroke-width="2" stroke-linejoin="round" filter="url(#fuzzy)" /><polyline points="29.82,-70.38 30.98,-69.39 32.57,-68.3 34.04,-67.14 35.52,-65.91 37.1,-64.61 38.79,-63.24 40.58,-61.8 42.4,-60.29 44.19,-58.73 45.86,-57.14 47.38,-55.52 48.74,-53.87 49.94,-52.16 50.98,-50.38 51.86,-48.53 52.59,-46.63 53.2,-44.68 53.73,-42.71 54.24,-40.72 54.75,-38.72 55.27,-36.7 55.78,-34.64 56.28,-32.48 56.77,-30.2 57.21,-27.88 57.51,-25.62 57.65,-23.19" fill="none" stroke="rgb(233, 236, 239)" stroke-width="2" stroke-linejoin="round" filter="url(#fuzzy)" /><polyline points="28.44,-71.12 31.86,-69.9 34.44,-68.82 35.98,-67.73 37.32,-66.54 38.88,-65.26 40.76,-63.93 43.05,-62.56 45.85,-61.13 49.25,-59.66 53.24,-58.15 57.61,-56.59 62,-55 66.05,-53.33 69.51,-51.6 72.38,-49.79 74.87,-47.93 77.29,-46.02 79.85,-44.08 82.64,-42.1 85.64,-40.09 88.76,-38.04 91.95,-35.95 95.2,-33.81 98.48,-31.64 101.65,-29.48 104.4,-27.4 106.4,-25.4 107.85,-23.42 110.47,-21.76" fill="none" stroke="rgb(233, 236, 239)" stroke-width="2" stroke-linejoin="round" filter="url(#fuzzy)" /><polyline points="28.44,-71.12 30.49,-69.9 32.24,-68.82 33.82,-67.74 35.2,-66.55 36.26,-65.28 37.01,-63.96 37.64,-62.59 38.44,-61.17 39.56,-59.7 40.96,-58.19 42.45,-56.65 43.77,-55.06 44.73,-53.41 45.2,-51.68 45.17,-49.88 44.69,-48.02 43.9,-46.12 42.97,-44.18 42.06,-42.22 41.3,-40.22 40.74,-38.19 40.39,-36.11 40.25,-33.96 40.32,-31.72 40.39,-29.51 39.99,-27.64 39.98,-26.28" fill="none" stroke="rgb(233, 236, 239)" stroke-width="2" stroke-linejoin="round" filter="url(#fuzzy)" /><polyline points="28.77,-71 30.03,-70.28 31.75,-69.36 33.7,-68.32 35.77,-67.19 37.98,-65.98 40.33,-64.7 42.76,-63.35 45.17,-61.93 47.44,-60.44 49.52,-58.9 51.4,-57.32 53.12,-55.73 54.76,-54.11 56.44,-52.44 58.24,-50.69 60.22,-48.86 62.3,-46.97 64.34,-45.03 66.23,-43.05 68,-41.02 69.81,-39.01 71.84,-37.07 74.32,-35.05" fill="none" stroke="rgb(233, 236, 239)" stroke-width="2" stroke-linejoin="round" filter="url(#fuzzy)" /><polyline points="28.77,-71 31.04,-70.27 33.72,-69.34 35.84,-68.28 37.82,-67.14 40.25,-65.91 43.3,-64.61 46.75,-63.24 50.27,-61.8 53.7,-60.29 57.04,-58.73 60.42,-57.14 63.86,-55.52 67.31,-53.86 70.65,-52.14 73.87,-50.36 77.07,-48.51 80.46,-46.61 84.17,-44.66 88.14,-42.68 92.19,-40.68 96.09,-38.67 99.88,-36.64 103.84,-34.56 108.45,-32.39 114.14,-30.15 121.07,-27.86 128.97,-25.63 136.69,-23.52 141,-21.7" fill="none" stroke="rgb(233, 236, 239)" stroke-width="2" stroke-linejoin="round" filter="url(#fuzzy)" /><polyline points="27.3,-71.54 30.37,-70.83 31.88,-69.85 33.76,-68.81 36.62,-67.69 40.3,-66.5 44.14,-65.22 47.43,-63.88 49.83,-62.49 51.41,-61.06 52.54,-59.57 53.67,-58.04 55.21,-56.47 57.4,-54.84 60.33,-53.15 63.92,-51.4 67.98,-49.58 72.22,-47.7 76.37,-45.78 80.17,-43.81 83.44,-41.81 86.14,-39.78 88.31,-37.71 90.11,-35.6 91.73,-33.48 93.37,-31.34 95.16,-29.21 97.16,-27.07 99.38,-24.94 101.87,-22.79 104.72,-20.61 108,-18.36 111.71,-16.06 115.62,-13.72 119.23,-11.36 122.03,-8.97 124.13,-6.59 126.46,-4.34" fill="none" stroke="rgb(233, 236, 239)" stroke-width="2" stroke-linejoin="round" filter="url(#fuzzy)" /><polyline points="21.27,-74.07 23.15,-73.41 25.89,-72.67 29.58,-71.82 33.73,-70.89 37.76,-69.9 41.46,-68.85 44.92,-67.73 48.24,-66.55 51.33,-65.3 53.96,-63.98 55.94,-62.61 57.28,-61.19 58.25,-59.73 59.2,-58.21 60.49,-56.65 62.34,-55.05 64.82,-53.37 67.94,-51.64 71.7,-49.83 76.07,-47.97 81.05,-46.06 86.53,-44.11 92.29,-42.13 97.96,-40.11 103.14,-38.05 107.58,-35.95 111.36,-33.81 114.91,-31.64 118.82,-29.49 123.42,-27.39 128.51,-25.34 133.44,-23.3 137.43,-21.18 140.26,-18.74" fill="none" stroke="rgb(233, 236, 239)" stroke-width="2" stroke-linejoin="round" filter="url(#fuzzy)" /><polyline points="17.09,-75.64 20.96,-74.78 24.31,-74.1 26.66,-73.42 28.5,-72.68 30.23,-71.86 32.12,-70.96 34.3,-70.01 36.86,-68.99 39.9,-67.91 43.55,-66.76 47.9,-65.54 52.93,-64.26 58.39,-62.93 63.86,-61.54 68.83,-60.1 72.89,-58.62 75.97,-57.12 78.51,-55.59 81.35,-54 85.28,-52.32 90.48,-50.52 96.3,-48.63 101.59,-46.74 105.61,-45.01 107.36,-43.83" fill="none" stroke="rgb(233, 236, 239)" stroke-width="2" stroke-linejoin="round" filter="url(#fuzzy)" /><polyline points="15.1,-76.1 17.85,-75.45 20.22,-74.72 22.76,-73.92 25.32,-73.08 27.87,-72.2 30.51,-71.3 33.32,-70.37 36.33,-69.38 39.53,-68.34 42.91,-67.22 46.46,-66.02 50.18,-64.75 54.03,-63.41 57.92,-61.99 61.74,-60.51 65.34,-58.98 68.65,-57.41 71.67,-55.8 74.48,-54.15 77.24,-52.44 80.17,-50.67 83.44,-48.84 87.19,-46.94 91.44,-44.99 96.04,-43 100.72,-40.99 105.15,-39 109.07,-37.05 112.33,-35.13 115.17,-33.11 120.6,-30.52" fill="none" stroke="rgb(233, 236, 239)" stroke-width="2" stroke-linejoin="round" filter="url(#fuzzy)" /><polyline points="14.38,-76.03 15.72,-75.84 17.88,-75.34 20.79,-74.67 24.43,-73.9 28.56,-73.06 32.71,-72.19 36.41,-71.29 39.35,-70.35 41.51,-69.35 43.14,-68.29 44.68,-67.16 46.56,-65.96 49.08,-64.68 52.32,-63.33 56.13,-61.9 60.26,-60.42 64.43,-58.88 68.41,-57.3 72.07,-55.67 75.35,-54 78.26,-52.27 80.84,-50.49 83.2,-48.64 85.52,-46.74 88.02,-44.79 90.85,-42.81 93.98,-40.8 97.18,-38.78 100.19,-36.73 102.95,-34.63 105.74,-32.46 108.99,-30.21 112.77,-27.91 116.61,-25.66 120.23,-23.54 123.64,-21.7" fill="none" stroke="rgb(233, 236, 239)" stroke-width="2" stroke-linejoin="round" filter="url(#fuzzy)" /><polyline points="10.25,-76.88 11.29,-76.76 13.15,-76.36 15.13,-75.87 17.14,-75.3 19.2,-74.64 21.27,-73.89 23.3,-73.09 25.24,-72.23 27.08,-71.34 28.83,-70.4 30.5,-69.41 32.12,-68.36 33.71,-67.24 35.27,-66.05 36.83,-64.78 38.42,-63.44 40.02,-62.04 41.65,-60.56 43.26,-59.03 44.83,-57.46 46.33,-55.85 47.75,-54.19 49.1,-52.49 50.39,-50.72 51.62,-48.88 52.8,-46.98 53.9,-45.02 54.91,-43.03 55.81,-41.02 56.62,-39.03 57.38,-37.07 58.13,-35.14 58.89,-33.11 59.67,-30.52" fill="none" stroke="rgb(233, 236, 239)" stroke-width="2" stroke-linejoin="round" filter="url(#fuzzy)" /><polyline points="7.66,-77.27 10.46,-76.84 12.79,-76.44 15.13,-75.99 17.54,-75.44 19.96,-74.83 22.3,-74.16 24.57,-73.45 26.8,-72.68 29.09,-71.86 31.48,-70.98 33.97,-70.03 36.57,-69.01 39.26,-67.93 42.05,-66.78 44.89,-65.57 47.74,-64.3 50.52,-62.96 53.16,-61.57 55.6,-60.13 57.88,-58.65 60.12,-57.14 62.51,-55.58 65.22,-53.97 68.28,-52.27 71.65,-50.48 75.22,-48.6 79.04,-46.7 83.27,-44.81 87.82,-42.84 91.5,-40.17" fill="none" stroke="rgb(233, 236, 239)" stroke-width="2" stroke-linejoin="round" filter="url(#fuzzy)" /><polyline points="7.66,-77.27 10.99,-76.84 13.12,-76.45 15.13,-76.01 17.22,-75.47 19.32,-74.87 21.37,-74.21 23.4,-73.52 25.48,-72.77 27.67,-71.97 29.96,-71.11 32.29,-70.18 34.61,-69.2 36.86,-68.15 39.04,-67.03 41.18,-65.84 43.32,-64.6 45.49,-63.3 47.69,-61.94 49.91,-60.48 52.14,-58.94 54.32,-57.4 56.26,-56.15 57.48,-55.44" fill="none" stroke="rgb(233, 236, 239)" stroke-width="2" stroke-linejoin="round" filter="url(#fuzzy)" /><polyline points="6.73,-77.44 9.25,-77.08 11.48,-76.75 14.01,-76.35 16.67,-75.87 19.21,-75.31 21.55,-74.66 23.7,-73.93 25.77,-73.14 27.83,-72.3 29.94,-71.41 32.14,-70.49 34.44,-69.52 36.89,-68.48 39.53,-67.39 42.38,-66.22 45.43,-64.98 48.57,-63.66 51.66,-62.27 54.56,-60.81 57.24,-59.29 59.8,-57.72 62.49,-56.15 65.58,-54.55 69.18,-52.9 73.08,-51.15 76.83,-49.29 80.01,-47.4 83.03,-45.62 86.9,-43.72" fill="none" stroke="rgb(233, 236, 239)" stroke-width="2" stroke-linejoin="round" filter="url(#fuzzy)" /><polyline points="5.07,-77.68 7.76,-77.27 10.32,-76.87 12.89,-76.46 15.91,-76 19.55,-75.47 23.58,-74.87 27.52,-74.22 30.99,-73.52 33.93,-72.78 36.6,-71.98 39.37,-71.12 42.53,-70.2 46.14,-69.21 50.06,-68.16 54.08,-67.04 58.14,-65.86 62.35,-64.61 66.93,-63.31 72.08,-61.95 77.95,-60.49 84.57,-58.94 91.43,-57.41 96.84,-56.16 100.11,-55.44" fill="none" stroke="rgb(233, 236, 239)" stroke-width="2" stroke-linejoin="round" filter="url(#fuzzy)" /><polyline points="4.51,-77.56 6.84,-77.35 9.05,-77.07 11.11,-76.74 13.12,-76.34 15.11,-75.86 17.13,-75.31 19.19,-74.67 21.27,-73.95 23.35,-73.16 25.39,-72.33 27.37,-71.46 29.29,-70.54 31.18,-69.57 33.04,-68.55 34.9,-67.46 36.76,-66.3 38.62,-65.07 40.47,-63.77 42.3,-62.38 44.09,-60.92 45.84,-59.39 47.54,-57.83 49.18,-56.26 50.74,-54.72 52.29,-53.14 53.95,-51.37 55.87,-49.24 57.86,-46.86" fill="none" stroke="rgb(233, 236, 239)" stroke-width="2" stroke-linejoin="round" filter="url(#fuzzy)" /><polyline points="1.96,-77.77 4.96,-77.57 8.1,-77.24 11.45,-76.86 15.11,-76.44 19.11,-75.97 23.24,-75.43 27.14,-74.82 30.55,-74.17 33.42,-73.46 36,-72.7 38.62,-71.88 41.56,-71 44.92,-70.06 48.64,-69.05 52.56,-67.98 56.46,-66.83 60.14,-65.63 63.54,-64.36 66.68,-63.02 69.73,-61.64 72.88,-60.2 76.32,-58.72 80.13,-57.21 84.32,-55.67 88.91,-54.07 93.99,-52.38 99.67,-50.57 105.85,-48.67 112.1,-46.77 117.81,-45.03 122.57,-43.83" fill="none" stroke="rgb(233, 236, 239)" stroke-width="2" stroke-linejoin="round" filter="url(#fuzzy)" /><polyline points="2.15,-77.82 4.49,-77.59 6.92,-77.34 9.3,-77.05 11.63,-76.71 14.05,-76.31 16.75,-75.83 19.88,-75.26 23.45,-74.62 27.34,-73.9 31.39,-73.11 35.37,-72.28 39.13,-71.39 42.56,-70.46 45.66,-69.48 48.52,-68.43 51.3,-67.33 54.22,-66.15 57.47,-64.9 61.2,-63.57 65.44,-62.17 70.12,-60.71 75.02,-59.19 79.9,-57.62 84.56,-56.02 89,-54.38 93.43,-52.7 98.18,-50.94 103.47,-49.1 109.21,-47.2 114.97,-45.24 120.29,-43.23 125.15,-41.15 130.31,-39.1 136.62,-37.46" fill="none" stroke="rgb(233, 236, 239)" stroke-width="2" stroke-linejoin="round" filter="url(#fuzzy)" /><polyline points="-0.07,-77.68 -1.73,-77.75 -3.82,-77.63 -6.19,-77.45 -8.84,-77.21 -11.68,-76.91 -14.55,-76.53 -17.3,-76.08 -19.85,-75.57 -22.19,-75.01 -24.43,-74.38 -26.71,-73.69 -29.21,-72.92 -32.14,-72.07 -35.7,-71.14 -40.05,-70.14 -45.19,-69.08 -50.93,-67.96 -56.86,-66.79 -62.45,-65.55 -67.27,-64.25 -71.18,-62.9 -74.42,-61.49 -77.51,-60.04 -81.05,-58.54 -85.46,-57.01 -90.8,-55.43 -96.71,-53.77 -102.63,-52 -108.26,-50.06 -114.08,-47.99 -120.73,-46.01 -125.31,-44.31" fill="none" stroke="rgb(233, 236, 239)" stroke-width="2" stroke-linejoin="round" filter="url(#fuzzy)" /><polyline points="-0.07,-77.68 -2.16,-77.76 -4.44,-77.63 -6.47,-77.46 -8.54,-77.23 -10.77,-76.94 -13.17,-76.56 -15.76,-76.12 -18.58,-75.62 -21.66,-75.08 -24.96,-74.48 -28.41,-73.81 -31.87,-73.07 -35.31,-72.24 -38.74,-71.32 -42.22,-70.34 -45.86,-69.3 -49.71,-68.22 -53.73,-67.08 -57.81,-65.87 -61.77,-64.59 -65.52,-63.26 -69.18,-61.9 -73.03,-60.45 -77.27,-58.82 -82.11,-56.87" fill="none" stroke="rgb(233, 236, 239)" stroke-width="2" stroke-linejoin="round" filter="url(#fuzzy)" />
    </g>
    
        <g id="lineNose">
        <path d="M -9.83,4.38 Q 9.35, 11.07 -0.2400000000000002, -5.098" fill="none" stroke="black" stroke-width="3" stroke-linejoin="round" filter="url(#fuzzy)"></path>
        </g>
      
    <g id="mouth">
      <polyline points="29.37,66.6 29.42,66.88 28.9,67.66 29,67.53 28.59,68.08 28.61,68.18 28.42,68.3 28.51,68.34 28.12,68.55 28.07,68.71 27.7,68.93 27.78,68.97 27.52,69.13 27.26,69.22 26.48,69.59 26.12,69.79 25.96,69.75 25.99,69.77 24.58,70.18 24.14,70.25 24.63,70.21 24.45,70.23 23.06,70.44 22.44,70.49 22.68,70.46 22.83,70.51 21.35,70.62 20.97,70.61 20.35,70.63 20.58,70.61 20.25,70.61 19.2,70.56 19.17,70.56 18.97,70.59 17.31,70.43 16.67,70.37 16.93,70.39 15.45,70.2 15.08,70.14 15.98,70.26 14.35,69.99 13.12,69.74 13.05,69.72 13.71,69.88 12.82,69.67 11.04,69.22 11.29,69.3 11.08,69.24 10.16,68.97 10.03,68.93 8.72,68.51 8.28,68.36 7.57,68.1 7.64,68.13 5.86,67.44 6.71,67.78 4.97,67.05 4.45,66.81 4.27,66.73 4.3,66.73 3.25,66.23 3.8,66.49 1.78,65.45 1.29,65.14 2.02,65.56 0.69,64.81 0.56,64.72 0.78,64.86 -0.9,63.77 -1.13,63.58 -0.55,63.96 -1.84,63.07 -2.29,62.69 -1.71,63.15 -2.76,62.29 -2.58,62.4 -3.2,61.88 -3.74,61.38 -3.46,61.65 -4.22,60.8 -4.71,60.35 -4.29,60.76 -4.99,59.95 -4.89,60.12 -5.24,59.63 -5.5,59.24 -5.66,58.94 -5.83,58.72 -5.97,58.35 -6.12,58.06 -6.29,57.26 -6.25,57.59 -6.37,57.04 -6.45,56.51 -6.44,56.33 -6.56,55.94 -6.52,55.94 -6.48,55.86 -6.45,55.94 -6.47,55.25 -6.53,55.38 -6.29,54.94 -6.26,54.86 -5.99,54.25 -5.87,53.94 -5.41,53.58 -5.53,53.61 -5,53.2 -5.31,53.5 -4.51,52.85 -4.85,53.13 -4.33,52.73 -4.13,52.55 -4.05,52.56 -3.93,52.43 -3.01,52.04 -2.7,51.91 -3.21,52.18 -1.72,51.64 -2.46,51.89 -0.91,51.49 -1.43,51.64 -1.16,51.59 -0.3,51.4 0.29,51.34 0.53,51.35 1.63,51.29 0.9,51.33 1.6,51.27 2,51.23 3.85,51.28 4.23,51.31 4.11,51.3 4.4,51.31 4.25,51.3 5.11,51.36 6.62,51.52 6.92,51.58 7.18,51.63 8.36,51.81 9.34,52.01 9.26,51.98 9.3,51.99 10.82,52.34 10.37,52.24 10.27,52.21 10.88,52.36 11.38,52.48 13.95,53.24 13.89,53.22 14.64,53.48 14.03,53.27 14.76,53.52 16.8,54.29 16.35,54.11 15.88,53.93 17.57,54.61 18.25,54.91 18.74,55.14 19.03,55.26 20.09,55.81 19.86,55.68 20.57,56.03 21.52,56.55 20.65,56.1 21.55,56.61 21.52,56.57 22.84,57.37 22.91,57.45 24.34,58.4 24.18,58.26 24.77,58.72 25.66,59.41 25.42,59.23 25.1,58.96 26.47,60.19 26.83,60.51 26.36,60.05 26.61,60.26 26.68,60.43 27.34,61.05 27.76,61.47 27.73,61.54 28.27,62.16 28.35,62.27 28.82,63.12 28.96,63.25 28.69,62.94 28.89,63.17 29.23,64.01 29.24,63.86 29.28,64.13 29.4,64.5 29.56,65.15 29.47,65.3 29.59,65.6 29.49,66.17 29.63,66.06 29.5,66.11 29.49,66.37" fill="rgb(215,127,140)" stroke="black" stroke-width="3" stroke-linejoin="round" filter="url(#fuzzy)" />
    </g>
  </svg>