<svg xmlns="http://www.w3.org/2000/svg" width="500" height="500" viewBox="-100 -100 200 200"><defs><clipPath id="c"><path d="m31.17 2.65-.35-.54-.37-.56-.4-.56-.42-.57-.44-.58-.47-.59-.49-.58-.52-.59-.54-.59-.56-.59-.59-.58-.61-.57-.63-.57-.65-.56-.68-.55-.66-.75-.69-.73-.74-.71-.77-.69-.8-.66-.84-.64-.87-.6-.9-.58-.94-.54-.96-.5-.98-.48-1.01-.43-1.03-.4-1.05-.36-1.06-.31-1.08-.28-1.09-.24-1.1-.2-1.11-.16-1.11-.12-1.11-.07-1.12-.04H1.32l-1.11.04-1.1.08-1.09.11-1.08.15-1.07.18-1.05.22-1.04.25-1.02.29-1 .31-.98.34-.95.37-.93.39-.91.42-.88.44-.85.46-.83.47-.8.5-.76.51-.74.52-.71.54-.68.54-.66.56-.62.56-.59.56-.57.57-.53.57-.51.57-.49.57-.46.57-.43.58-.41.58-.38.58-.35.58-.33.58-.31.58-.28.58-.25.57-.23.58-.21.57-.19.57-.16.56-.16 5.72.4.35.42.34.43.33.45.33.47.31.48.31.5.31.52.29.53.28.55.27.56.27.58.25.6.25.61.23.63.23.65.21.66.21.68.2.7.19.72.18.74.17.75.15.77.15.78.13.8.12.81.11.82.09.84.08.85.07.86.06.87.04.88.03.89.02.9.01.9-.01.91-.01.92-.03.92-.04.92-.05.92-.05.93-.07.92-.08.92-.08.92-.09.92-.09.92-.11.9-.1.91-.11.89-.12.89-.11.88-.12.86-.12.86-.12.85-.11.83-.12.82-.11.81-.11.79-.11.78-.1.76-.1.74-.09.73-.08.71-.08.69-.07.63-.09.61-.09.6-.08.59-.09.58-.08.56-.08.55-.08.53-.07.51-.07.49-.07.48-.07.46-.07.45-.07.42-.06.4-.06"/></clipPath><clipPath id="b"><path d="m-34.01 4.32.4-.46.42-.47.44-.49.46-.5.49-.51.51-.53.53-.53.56-.55.57-.55.59-.56.62-.56.63-.57.65-.57.67-.57.69-.57.71-.67.75-.68.77-.68.79-.68.83-.67.85-.67.88-.66.9-.64.92-.64.94-.61.95-.6.98-.57.99-.55 1-.52 1.02-.5 1.02-.46 1.03-.44 1.04-.39 1.04-.37 1.04-.32 1.05-.29 1.04-.25 1.04-.21 1.03-.17 1.03-.13 1.02-.09 1.01-.04h.99l.99.03.97.08.95.12.94.16.91.2.9.24.88.27.86.31.83.34.82.38.78.41.77.44.74.47.71.49.69.51.67.54.64.56.61.57.59.59.57.6.54.61.51.62.49.63.48.64.44.65.43.67.4.67.39.68.35.7.34.69.32.7.29.71.27.71.26.71.23.72.2.72 3.11 6.55-.26.4-.27.4-.29.39-.31.39-.32.37-.34.36-.36.36-.37.34-.4.33-.4.33-.43.31-.44.3-.46.29-.48.27-.5.27-.51.26-.54.24-.56.24-.57.22-.6.21-.62.2-.64.18-.66.18-.68.15-.71.14-.72.13-.75.11-.77.09-.78.08-.81.07-.83.05-.84.03-.87.02h-.88l-.9-.01-.91-.03-.93-.04-.94-.05-.96-.06-.97-.08-.98-.09-.99-.09-.99-.11-1.01-.12-1.01-.12-1.01-.13-1.02-.14-1.02-.14-1.02-.14-1.02-.15-1.02-.15-1.02-.15-1-.15-1.01-.15-.99-.15-.98-.14-.97-.14-.96-.13-.95-.13-.93-.12-.91-.11-.89-.1-.88-.1-.85-.08-.78-.11-.75-.11-.75-.1-.73-.1-.71-.1-.7-.09-.68-.09-.67-.08-.64-.08-.62-.08-.61-.07-.58-.07-.56-.07-.53-.06-.51-.06"/></clipPath><filter id="a"><feTurbulence baseFrequency=".05" numOctaves="3" result="noise" type="noise"/><feDisplacementMap in="SourceGraphic" in2="noise" scale="2"/></filter></defs><rect width="100%" height="100%" x="-100" y="-100" fill="#F2A6C4"/><path fill="#20DF93" stroke="#000" stroke-linejoin="round" stroke-width="1.667" d="m74.82 1.53-.22.26-.03.86.24 1.01-.17 1.78-.03.27-.25 1.36-.09 1.41-.01 1.73-.47 2.22.12 1.07-.55 4.09.05-.99-.28 1.77-.29-.33.08 1.64-.74 2.55.03.44-.36 1.3-.13.53-1.02 3.27.27-.44-.52 1.86-.13.73-.76 1.81-.26.94-.54 1.82-.64 1.77-.42-.19.03.57-.97 2.93-.39.66-.18-.19-1.56 3.54-.5 1.68-.8 1.18-.94 1.36-.39.52-.71 1.75-.26.19-.07.02-.59 1.06-1 2.29-.7.29-.91 1.59-1.55 1.5.75-.22-1.45 1.42-1.7 1.89-1.08 1.87.16-.05-2.44 2.28.36-.31-.97 1.19-.22.22-2.12 2.26-.07.35-.91-.15.06.15-.86.9-.76.48-2.52 2.51.68-.41-1.29 1.04-3.34 1.98 1.87-.79-1.99 1.48-1.48.08-.74 1.31-.47-.18-2.12 1.6-.93.59.05-.39-2.16 1.55.18.01-2.02.86-.42.13-.85.38-1.99.97-1.32.39-1.26.52-1.1.29-.42.41-2.81.88.98-.2-3.17.84-1.11.35.49-.45-3.11.68.14-.25-2.23.93-.23-.24.4-.17-3.01.79-1.23.01-1.28-.05-.01.2-.52-.21-1.67.47.17-.27-3.16-.03-1.62-.02-1.92.02 1.26.32-1.9-.46-2.4.01-1.66-.39-.89.16-.84-.46-2.39-.34.81.44-1.44-.48-2.39-.4.77.17-1.64-.68-1 .08.38.06-1.41-.64-2.27-.74-.54-.12-1.65-.42-2.79-.85.52-.23-1.1-.19-1.48-.87-.49-.36-.79-.17-1.97-1.1.15.29-2.28-1.71-.18.36-1.91-1.44.99.38-2.45-1.63-.95.01-1.76-1.37-.71-.7-2.09-1.31 1 .45-1.39-.63-1.55-1.36-.41-.55-2.9-2.51.36.11-.84-1.04-.91-.25-.33-.6-1.02-.87-.07-.33-2.77-2.44-.51-.98.1-.35-2.08-2.65-.23-.01-1.15-1.26-.36-1.13-1.75-2.04.62.73.06.04-1.77-2.8.03.72-.97-1.58-.54-.55-1.67-3.66-.63-1.24-.46-.17.87 1.12-1.57-3.4.23.51-.84-1.71-1.05-2.2-.28-.4-1.51-3.78.57 1.67-.71-2.19-.69-1.46-.79-2.12.13-.31-.36-.48-.74-2.66-.01-1.06-.12-.85-.45-1.77-.55-1.26-.54-1.02.03-.82-.11-1.9-.95-3.38.19.24-.33-1.55.08-1.71-.39-.89-.1-.46-.19-1.46.07-2.01-.45-2.03.39.15.01-1.58-.5-1.39.18-2.69-.22-.15.14-2.43-.1-1 .4-1.28.02-1.61.01-1.68.02-1-.22.93.51-2.77-.2-.37.37-2.64.2-1.81.04 1.22.82-3.71.08-1.71-.37.79.62-1.59.14-.33.8-3.91h-.21l1.28-4.01-.22.71v-.32l.93-1.93 1.25-3.73-.31 1.23.2-1.51 1.03-1.86-.04-.91.52-1.37 1.12-2.39.53-.96-.51 1.31v-1.04l2.08-3.81-.72 1.2 1.74-2.66.44-.68.18-1.08.09-.4 2.02-2.53.44-1.09.96-1.08 1.41-2.06-.36.67 1.65-1.78.12-.77.1.07.79-1.19 1.65-1.7.71-1.39.21-.41.14-.24 1.98-2.21 1.88-1.46-.02-.4.31-.57 1.17-.62 1.44-1.19.98-1.13.7-1 .09.18 1.07-.77 2.06-1.62 2.47-1.91-1.39 1.38.73-.65.65-.61 1.65-1.37 2.4-1.04.11-.21 2.2-.85 1.33-1-1.22.56 1.77-.9 1.08-.63 1.53-.44.76-.72 1.52-.26 2.13-.95 1.36-.24.23-.43.87-.05 1.84-.71 1.18-.37.09.01.51-.1 1.15-.59 1.55-.04-.21-.26 2-.23 1.39-.29 2.91-.53-2.1.37 3.25-.54 1.33-.27 1.12.35.93-.35 1.22-.01 1.18.12 1.4-.36.48.23 2.11-.24.76.38 1.06-.19.77.13.87.37.93-.08 3.13.42.62.29.38.03 1.51.26 2.96.52-.25.07.71.13 1.07.04 1.69.88.42.08 1.02.01 1.79.91 1.7.59-.48-.31 1.57.61-.02.08 2.51.97 1.13.44.86.32 1.17.75-.13.04 1.63 1.03 2.04 1.12.84.31 1.72 1.43.45.03 1.94 1.29.69.94.93.34-.99-.88 1.94 1.83 1.78 1.38.57.44.74.41.21.61 2.08 1.9 1.69 1.25.36.85.07.06 2.48 1.89.04.71.25-.26.07.36 1.4 2.14 1.16.68 1.61 2.42-.01-.09 1.11 1.11-.24.01 1.18 1.58.57.8.85 1.21.2.78 1.87 2.43.47 1.12.38.21.33 1.7 1.09 1.7-.48-1.29 1.89 3.42.49 1.53.58.98.36.96-.09.46.99 2.29.23.11.38 1.1 1.01 2.8-.26-.48.77 1.36.92 3.2.02.92.17.26.35.94.65 2.34.27.93-.16.28.46 2.13-.04.87.89 2.67.2.96.33 2.21.02-.13.17 2-.13.9.35 1.69.24 1.73-.21.42.41 3.57-.23-.66-.05 1.19.07 2.1.24 2.55-.22.26" filter="url(#a)"/><path fill="#fff" d="m-34.01 4.32.4-.46.42-.47.44-.49.46-.5.49-.51.51-.53.53-.53.56-.55.57-.55.59-.56.62-.56.63-.57.65-.57.67-.57.69-.57.71-.67.75-.68.77-.68.79-.68.83-.67.85-.67.88-.66.9-.64.92-.64.94-.61.95-.6.98-.57.99-.55 1-.52 1.02-.5 1.02-.46 1.03-.44 1.04-.39 1.04-.37 1.04-.32 1.05-.29 1.04-.25 1.04-.21 1.03-.17 1.03-.13 1.02-.09 1.01-.04h.99l.99.03.97.08.95.12.94.16.91.2.9.24.88.27.86.31.83.34.82.38.78.41.77.44.74.47.71.49.69.51.67.54.64.56.61.57.59.59.57.6.54.61.51.62.49.63.48.64.44.65.43.67.4.67.39.68.35.7.34.69.32.7.29.71.27.71.26.71.23.72.2.72 3.11 6.55-.26.4-.27.4-.29.39-.31.39-.32.37-.34.36-.36.36-.37.34-.4.33-.4.33-.43.31-.44.3-.46.29-.48.27-.5.27-.51.26-.54.24-.56.24-.57.22-.6.21-.62.2-.64.18-.66.18-.68.15-.71.14-.72.13-.75.11-.77.09-.78.08-.81.07-.83.05-.84.03-.87.02h-.88l-.9-.01-.91-.03-.93-.04-.94-.05-.96-.06-.97-.08-.98-.09-.99-.09-.99-.11-1.01-.12-1.01-.12-1.01-.13-1.02-.14-1.02-.14-1.02-.14-1.02-.15-1.02-.15-1.02-.15-1-.15-1.01-.15-.99-.15-.98-.14-.97-.14-.96-.13-.95-.13-.93-.12-.91-.11-.89-.1-.88-.1-.85-.08-.78-.11-.75-.11-.75-.1-.73-.1-.71-.1-.7-.09-.68-.09-.67-.08-.64-.08-.62-.08-.61-.07-.58-.07-.56-.07-.53-.06-.51-.06" filter="url(#a)" transform="translate(41.15 -23.5)"/><path fill="#fff" d="m31.17 2.65-.35-.54-.37-.56-.4-.56-.42-.57-.44-.58-.47-.59-.49-.58-.52-.59-.54-.59-.56-.59-.59-.58-.61-.57-.63-.57-.65-.56-.68-.55-.66-.75-.69-.73-.74-.71-.77-.69-.8-.66-.84-.64-.87-.6-.9-.58-.94-.54-.96-.5-.98-.48-1.01-.43-1.03-.4-1.05-.36-1.06-.31-1.08-.28-1.09-.24-1.1-.2-1.11-.16-1.11-.12-1.11-.07-1.12-.04H1.32l-1.11.04-1.1.08-1.09.11-1.08.15-1.07.18-1.05.22-1.04.25-1.02.29-1 .31-.98.34-.95.37-.93.39-.91.42-.88.44-.85.46-.83.47-.8.5-.76.51-.74.52-.71.54-.68.54-.66.56-.62.56-.59.56-.57.57-.53.57-.51.57-.49.57-.46.57-.43.58-.41.58-.38.58-.35.58-.33.58-.31.58-.28.58-.25.57-.23.58-.21.57-.19.57-.16.56-.16 5.72.4.35.42.34.43.33.45.33.47.31.48.31.5.31.52.29.53.28.55.27.56.27.58.25.6.25.61.23.63.23.65.21.66.21.68.2.7.19.72.18.74.17.75.15.77.15.78.13.8.12.81.11.82.09.84.08.85.07.86.06.87.04.88.03.89.02.9.01.9-.01.91-.01.92-.03.92-.04.92-.05.92-.05.93-.07.92-.08.92-.08.92-.09.92-.09.92-.11.9-.1.91-.11.89-.12.89-.11.88-.12.86-.12.86-.12.85-.11.83-.12.82-.11.81-.11.79-.11.78-.1.76-.1.74-.09.73-.08.71-.08.69-.07.63-.09.61-.09.6-.08.59-.09.58-.08.56-.08.55-.08.53-.07.51-.07.49-.07.48-.07.46-.07.45-.07.42-.06.4-.06" filter="url(#a)" transform="translate(-34.36 -22.01)"/><g fill="none" stroke="#000" transform="translate(41.15 -23.5)"><path stroke-linejoin="round" stroke-width="1.667" d="m-36.6 7.63.14-.21.18-.24.19-.27.22-.29.25-.33.27-.35.3-.37.32-.4.35-.41.37-.44.4-.46.42-.47.44-.49.46-.5.49-.51.51-.53.53-.53.56-.55.57-.55.59-.56.62-.56.63-.57.65-.57.67-.57.69-.57.71-.67.75-.68.77-.68.79-.68.83-.67.85-.67.88-.66.9-.64.92-.64.94-.61.95-.6.98-.57.99-.55 1-.52 1.02-.5 1.02-.46 1.03-.44 1.04-.39 1.04-.37 1.04-.32 1.05-.29 1.04-.25 1.04-.21 1.03-.17 1.03-.13 1.02-.09 1.01-.04h.99l.99.03.97.08.95.12.94.16.91.2.9.24.88.27.86.31.83.34.82.38.78.41.77.44.74.47.71.49.69.51.67.54.64.56.61.57.59.59.57.6.54.61.51.62.49.63.48.64.44.65.43.67.4.67.39.68.35.7.34.69.32.7.29.71.27.71.26.71.23.72.2.72.19.71.17.72.15.71.13.72.11.71.1.71.07.7.06.71.04.7.02.69" filter="url(#a)"/><path stroke-linejoin="round" stroke-width="2.222" d="m-35.62 11.15.21.05.25.05.28.05.31.04.34.05.37.05.4.05.44.06.45.05.49.06.51.06.53.06.56.07.58.07.61.07.62.08.64.08.67.08.68.09.7.09.71.1.73.1.75.1.75.11.78.11.85.08.88.1.89.1.91.11.93.12.95.13.96.13.97.14.98.14.99.15 1.01.15 1 .15 1.02.15 1.02.15 1.02.15 1.02.14 1.02.14 1.02.14 1.01.13 1.01.12 1.01.12.99.11.99.09.98.09.97.08.96.06.94.05.93.04.91.03.9.01h.88l.87-.02.84-.03.83-.05.81-.07.78-.08.77-.09.75-.11.72-.13.71-.14.68-.15.66-.18.64-.18.62-.2.6-.21.57-.22.56-.24.54-.24.51-.26.5-.27.48-.27.46-.29.44-.3.43-.31.4-.33.4-.33.37-.34.36-.36.34-.36.32-.37.31-.39.29-.39.27-.4.26-.4.25-.42.22-.42.22-.44.2-.43.18-.45.17-.45.16-.46.14-.46.13-.47.12-.47" filter="url(#a)"/><circle cx="3.983" cy="6.808" r="3.196" clip-path="url(#b)" filter="url(#a)"/><circle cx="7.678" cy="7.023" r="3.52" clip-path="url(#b)" filter="url(#a)"/><circle cx="7.543" cy="9.063" r="4.264" clip-path="url(#b)" filter="url(#a)"/><circle cx="5.118" cy="4.913" r="3.02" clip-path="url(#b)" filter="url(#a)"/><circle cx="7.578" cy="4.818" r="4.962" clip-path="url(#b)" filter="url(#a)"/><circle cx="3.953" cy="7.258" r="4.368" clip-path="url(#b)" filter="url(#a)"/><circle cx="7.308" cy="8.083" r="4.944" clip-path="url(#b)" filter="url(#a)"/><circle cx="7.093" cy="5.533" r="4.746" clip-path="url(#b)" filter="url(#a)"/><circle cx="3.403" cy="7.523" r="4.536" clip-path="url(#b)" filter="url(#a)"/><circle cx="6.733" cy="6.938" r="4.468" clip-path="url(#b)" filter="url(#a)"/></g><g fill="none" stroke="#000" transform="translate(-34.36 -22.01)"><path stroke-linejoin="round" stroke-width="2.222" d="m33.36 6.72-.12-.26-.14-.3-.17-.33-.18-.38-.21-.4-.22-.43-.26-.46-.27-.49-.3-.5-.32-.52-.35-.54-.37-.56-.4-.56-.42-.57-.44-.58-.47-.59-.49-.58-.52-.59-.54-.59-.56-.59-.59-.58-.61-.57-.63-.57-.65-.56-.68-.55-.66-.75-.69-.73-.74-.71-.77-.69-.8-.66-.84-.64-.87-.6-.9-.58-.94-.54-.96-.5-.98-.48-1.01-.43-1.03-.4-1.05-.36-1.06-.31-1.08-.28-1.09-.24-1.1-.2-1.11-.16-1.11-.12-1.11-.07-1.12-.04H1.32l-1.11.04-1.1.08-1.09.11-1.08.15-1.07.18-1.05.22-1.04.25-1.02.29-1 .31-.98.34-.95.37-.93.39-.91.42-.88.44-.85.46-.83.47-.8.5-.76.51-.74.52-.71.54-.68.54-.66.56-.62.56-.59.56-.57.57-.53.57-.51.57-.49.57-.46.57-.43.58-.41.58-.38.58-.35.58-.33.58-.31.58-.28.58-.25.57-.23.58-.21.57-.19.57-.16.56-.13.56-.12.55-.09.55-.08.55-.05.53-.03.54-.01.52v.52l.03.52.05.5" filter="url(#a)"/><path stroke-linejoin="round" stroke-width="2.222" d="m32.68 11.09-.17.07-.19.06-.22.07-.24.06-.27.06-.29.06-.32.06-.34.06-.36.06-.38.07-.4.06-.42.06-.45.07-.46.07-.48.07-.49.07-.51.07-.53.07-.55.08-.56.08-.58.08-.59.09-.6.08-.61.09-.63.09-.69.07-.71.08-.73.08-.74.09-.76.1-.78.1-.79.11-.81.11-.82.11-.83.12-.85.11-.86.12-.86.12-.88.12-.89.11-.89.12-.91.11-.9.1-.92.11-.92.09-.92.09-.92.08-.92.08-.93.07-.92.05-.92.05-.92.04-.92.03-.91.01-.9.01-.9-.01-.89-.02-.88-.03-.87-.04-.86-.06-.85-.07-.84-.08-.82-.09-.81-.11-.8-.12-.78-.13-.77-.15-.75-.15-.74-.17-.72-.18-.7-.19-.68-.2-.66-.21-.65-.21-.63-.23-.61-.23-.6-.25-.58-.25-.56-.27-.55-.27-.53-.28-.52-.29-.5-.31-.48-.31-.47-.31-.45-.33-.43-.33-.42-.34-.4-.35-.38-.36-.37-.36-.35-.37-.33-.38-.32-.38-.3-.39-.28-.39-.27-.4-.26-.4-.24-.41" filter="url(#a)"/><circle cx="20.858" cy="7.17" r="4.636" clip-path="url(#c)" filter="url(#a)"/><circle cx="24.073" cy="3.51" r="4.936" clip-path="url(#c)" filter="url(#a)"/><circle cx="21.098" cy="4.585" r="4.704" clip-path="url(#c)" filter="url(#a)"/><circle cx="24.143" cy="2.535" r="3.13" clip-path="url(#c)" filter="url(#a)"/><circle cx="21.833" cy="6.385" r="4.344" clip-path="url(#c)" filter="url(#a)"/><circle cx="22.158" cy="6.505" r="3.248" clip-path="url(#c)" filter="url(#a)"/><circle cx="21.718" cy="2.785" r="4.896" clip-path="url(#c)" filter="url(#a)"/><circle cx="24.733" cy="2.905" r="4.98" clip-path="url(#c)" filter="url(#a)"/><circle cx="20.983" cy="5.11" r="3.148" clip-path="url(#c)" filter="url(#a)"/><circle cx="24.178" cy="3.5" r="3.57" clip-path="url(#c)" filter="url(#a)"/></g><g fill="none" stroke="#581386" stroke-linejoin="round" stroke-width="2"><path d="m-21.44-83.5 2.49 8.12L.69-72.82l10.56-.33L13.8-75l.38-.83.93 1.66 1.88 3.68 2.52 3.75 1.89 1.53-1.08-1.99-5.95-4.74-10.49-5.03-12.17-3.02-6.84-1.53 17.89-5.84" filter="url(#a)"/><path d="M69.37-32.42 37.49-62.18 14.87-73.72l-10.5-1.2-2.92 2.3.43 1.76 2.26.15 3.8-1.06 4.51-1.63 3.66-1.84 1.61-1.78-.65-1.38-2.27-.62-3.23.38-4.13 1.24-5.45 1.58-6.84 1.22-7.29.35-5.91-.49-2.86-.72.96-.27 5.2.08 9.77-.81 8.05-2.47-24.51-4.57" filter="url(#a)"/><path d="m7.15-86.75-28.74 13.09 2.65 3 13.57 3.44L7.25-64.6l3.68-.1-5.81-2.62-10.2-3.51-8.29-2.87-2.13-1.53 5.17-.16L.31-74.38l11.87 2.07 8.11 3.12 2.18 3.92 1.44 4.07 12.73 2.67 15.33-4.41" filter="url(#a)"/><path d="M70.82-27.42 47.06-59.16l-7.92-9.16-9.3-3.93-13.21-3.27-12.87-2.45-8.21-1.3-2.1-.44 2.51-.05 4.11.1 3.12.31 1.45.63 1.11.98 2.22.91 1.94-.29-2.84-2.81-9.5-4.41-13.37-.97" filter="url(#a)"/><path d="M62.21-48.39 1.9-66.7l-10.56-8.94 9.42-1.4 15.05 2.77 12 3.13 4.89 1.01-2.27-1.46-7.38-2.67-10.14-2.32-10.76-1.23-9.03-.44-4.81-.25.19.49 3.89 3.98L5.47-62l61.38 22.82" filter="url(#a)"/><path d="M56.2-57.43 40.95-51.6 17-60.78 5.22-65.22l-2.09.63 2.45 1.77 3.37.55 2.32-.8.4-1.27-1.59-1.03-2.85-.67-2.62-.5-.73-.52 2.02-.76 3.92-1.39 3.5-2.47.72-3.56-3.03-3.89-5.95-3.01-6.23-1.23 1.36.67 28.42 1.97" filter="url(#a)"/><path d="M51.97-62.94 8.91-76.97l-15.65-2.58-2.06 3.44.57 6.01-3.57 5.38-6.93 2.61-5.08-.37 1.02-1.81 7.66-1.1 12.05.87 13.5 2.26 12.3 1.34 8.45-1.75 3.64-4.21 2.24-3.43-4.91-8.28" filter="url(#a)"/><path d="M63.53-46.07 17.58-68l-5.19-6.86 1.48.47 2.03 4.24 1.37 5.21.09 3.68-1.17.8-2.49-2.1-4.2-4.09-5.9-4.68-6.28-3.66-4.4-1.15-.7 2.05 2.91 4.23 4.02 3.24 2.48-2.18 3.14-9.27.58-8.97" filter="url(#a)"/><path d="m-48.57-66.51 50.6-3.95 5.77-1.69-8.39 2.59-9.37 3.45-5.6 1.89-2.2-.21-.56-1.68-.15-2.23-.31-2.07-.53-1.61-.49-1.24-.07-1.06.58-1.02 1.08-1.01 1.17-1 1-.97 1.09-.81 1.88-.2 3.2 1.1 3.44 2.75-.95 3.25-12.45.05-11.99-6.75" filter="url(#a)"/><path d="M-50.43-64.65-6.8-76.88l9.28-4.13-2.86-.1-2.2 2.13 1.1 3 1.62 2.85-.61 2.19-3.05 1.52-3.69 1.09-2.24.7.22.01 2.33-1.08 3.22-2.35 2.71-3.24L.22-77.6l-.66-2.41-1.82-.76-.95 1.25 3.38 3.36 11.25 5.44 19.18 7.43 20.41 10.55 19.81 25.32" filter="url(#a)"/><path d="M39.76-74.01 15.69-80-.77-78.8l-12.43 1.59-4.33.03 3.64-.53 8.63.33 9.82 1.79 7.65 2.94 3.4 3.25-.99 2.58-3.72 1.17-3.77-.51-1.41-1.72 1.77-1.84 3.81-.87 3.48.48 1.48.95.88-.11 5.08-1.54 10.66-1.67-3.41-7.93" filter="url(#a)"/><path d="m12.79-85.75-21.1 8.2 6.29 1.2 6.05.8 5.57 1.13 6.11 1.58 4.71 1.76 1.15 1.14-2.48-.11-4.24-1.37-3.56-1.98-1.26-1.76 1.33-.96 3.08-.07 3.49.53 2.8.83 1.58 1.08.32 1.63-.99 2.47-2.78 3.02-5.41 2.29-8.68-.6-11.61-5.37-10.25-9.03-.37-5.28" filter="url(#a)"/><path d="m19.39-84.03-22.12 2.58-1.45 5.09 14.76 6.56 18.1 7.31 13.54 6.1 6.3 3.38-.65.17-5.66-2.67-7.67-4.5-6.56-4.98-3.41-4.21-.21-2.75 1.07-1.41-.41-.72-4.13-.69-8.58-.8-12.1-.65-13.45-.25-11.85-.02-7.36-.15-1.18-.82 6.19-3.44" filter="url(#a)"/><path d="m23.9-82.52-15.11.17-19.57 4.97-11.11 4.72-1.62 2 3.42-.25 4.43-1.01 3.42-.39 1.76.97-.08 2.21-1.88 2.43-3.27 1.3-3.52-.83-2.07-3 .83-4.07 3.95-3.35 5.93-1.09 5.78 1.29 1.96 1.43-7.42-2.51-7.19-7.09" filter="url(#a)"/><path d="m.17-87.35.91-.51 1.17-.68 1.11-.38 1.04-.15 1.06-.06 1.14-.06 1.22-.05 1.29.01 1.3.08 1.31.1 1.29.06h1.25l1.22-.08 1.17-.15 1.14-.21 1.15-.23 1.17-.18 1.22-.08h1.29l1.34.02 1.17.04.37-.32-31.18 3.08-1.54.16-1.32-.04-1.17-.24-1.27-.45-1.35-.6-1.33-.64-1.24-.52-1.11-.36-1.02-.24-.98-.21-.98-.26-1.05-.31-1.12-.34-1.18-.27-1.2-.15-1.26.02-1.44.09-1.82-.1-2.04-.51-15.81 9.55 1.47-.9.74.2 1 .43 1.4.41 1.68.32 1.71.13 1.59-.06 1.4-.19 1.22-.18 1.14-.07 1.14.05 1.19.11 1.28.09 1.35.01 1.41-.11 1.45-.21 1.43-.31 1.22-.35.65-.35-22.53 12.48.34-.42.73-1.29.74-1.72.43-1.9.07-2.07-.06-2.14.18-1.96.65-1.55 1.08-1.19 1.2-1.21.96-1.71.45-2.47-.05-2.88-.13-2.31.59-1.92m-10.2 21.86-.48 1.58-.65 1.55-.71 1.36-.74 1.1-.77.94-.82.94-.85 1.05-.86 1.1-.87 1.07-.83 1.01-.75 1.05-.63 1.21-.5 1.33-.4 1.22-.15.94.87 1.64" filter="url(#a)"/><path d="m-63.98-45.32-.01.01.46-.97.49-1.15.51-1.18.59-1.23.67-1.28.71-1.3.71-1.26.69-1.16.66-1.04.64-.94.64-.86.65-.86.66-.9.68-.98.68-1.04.67-1.08.7-1.1.81-1.14.99-1.26 1.03-1.3.47-.96M-80.6-15.6l1.34-2.74.44-1.57.45-1.03.55-1.02.64-1.23.73-1.39.86-1.41.97-1.3.95-1.17.86-1.11.77-1.13.82-1.15.98-1.04 1.01-.87.79-.93.76-1.46-4.81 31.73-.08-1.45-.06-1.16-.08-.95-.04-.95V-10l.01-1.2.03-1.29.05-1.32.06-1.3.09-1.26.12-1.22.16-1.17.21-1.17.26-1.25.29-1.36.31-1.49.31-1.51.34-1.34.34-1.03.28-.86.04-1.51m141.19 4.06.72 1.66.95 1.02 1.12.91 1.08 1.08 1.02 1.25.96 1.34.85 1.35.67 1.34.45 1.33.25 1.33.15 1.36.14 1.4.18 1.42.24 1.44.33 1.42.46 1.39.63 1.37.82 1.45.88 1.63.85 1.7.9 1.07-30.77-44.21.54.43 1.24.28 1.22.39.95.7.71.98.6 1.1.64 1.02.77.87.92.72 1.02.65 1.04.66 1.03.73.99.8.97.88.92.99.84 1.15.76 1.26.8 1.04.81.36 23.1 15.3-1.68-1.53-2.43-1.14-1.62-1.17-1.21-1.22-1.48-1.21-1.98-1.17-2.24-1.12-2.08-1.11-1.59-1.14-.98-1.18-.53-1.22-.36-1.2-.45-1.13-.71-.99-1.08-.9-1.49-.95-1.77-1.21-1.3-1.45-20.34-33.29.35.75.61.84.67.88.57.86.47.91.46 1.04.51 1.16.53 1.25.47 1.31.33 1.36.15 1.4.03 1.43.01 1.4.12 1.35.27 1.26.41 1.23.43 1.27.3 1.38.15 1.44.1 1.37.29 1.28.57 1.45M39.13-74.41l.73.45.77-.04.95-.03 1.06.27 1.06.59 1.02.75 1.06.77 1.16.69 1.3.58 1.38.46 1.38.42 1.3.43 1.16.48 1.03.54.97.57 1.01.58 1.11.6 1.25.64 1.35.68 1.35.65 1.24.55 1.12.39 1.21.22 1.7.41M37.19-75.7l-.77-.48-1.08-.85-1.2-.88-1.19-.82-1.1-.75-1.01-.68-.98-.62-1.01-.55-1.04-.5-1.04-.5-1.01-.52-.95-.55-.93-.56-.95-.54-.99-.53-1.03-.5-1.05-.5-1.03-.52-.98-.52-.86-.5-.59-.42-.08-.37" filter="url(#a)"/><path d="m37.19-75.7-1.28.65-1.08-.75-1.14-.92-1.16-.82-1.11-.64-1.05-.44-1.05-.24-1.1-.08-1.18.03-1.23.13-1.21.21-1.1.28-.99.31-.94.22-1.1-.06-1.46-.45-7.37-19.51.61.84.92 1.07 1.23.71 1.26.5 1.11.62.95.95.82 1.32.76 1.61.77 1.7.81 1.58.87 1.29.9.96.91.67.9.47.91.45.98.56 1.09.75 1.1.81.93.51-.86-.32 1.33-.9 2.24-3.17 2.47-3.25 2.16-1.78 1.72-.17 1.38.83 1.31 1.04 1.5.56 1.77-.21 1.89-.74 1.68-.72 1.34-.29 1.33-.03 1.88-.33 2.31-.48.79 1.38" filter="url(#a)"/><path d="m7.15-86.75 2.19.13 1.35.01 1.3-.47 1.49-1.32 1.65-2.23 1.72-2.76 1.71-2.77 1.66-2.36 1.6-1.76 1.54-1.18 1.47-.62 1.34-.05 1.18.53 1.03 1.01.98 1.18 1.08.98 1.28.49 1.49-.08 1.65-.48 1.69-.67 1.73-.76 1.89-.9 2.26-1.13 2.65-1.35 2.41-1.34" filter="url(#a)"/><path d="m.65-87.12 1.7-3.33 1.12.64.98.79 1.02.33 1.13.05h1.23l1.29.02 1.33-.02 1.34-.12 1.33-.25 1.31-.36 1.29-.46 1.26-.53 1.26-.58 1.28-.59 1.31-.56 1.37-.57 1.43-.64 1.49-.82 1.48-1 1.42-1.12 1.38-1.04 1.51-.67 2.16.3" filter="url(#a)"/></g><g fill="none" stroke="#000"><circle cx="8.552" cy="8.438" r="2.028" filter="url(#a)"/><circle cx="9.44" cy="7.314" r="1.164" filter="url(#a)"/><circle cx="9.728" cy="9.006" r="1.604" filter="url(#a)"/><circle cx="9.008" cy="7.514" r="2.236" filter="url(#a)"/><circle cx="11.268" cy="9.458" r="1.648" filter="url(#a)"/><circle cx="10.788" cy="7.294" r="1.002" filter="url(#a)"/><circle cx="8.432" cy="9.01" r="1.918" filter="url(#a)"/><circle cx="10.396" cy="9.59" r="2.592" filter="url(#a)"/><circle cx="7.356" cy="8.198" r="2.46" filter="url(#a)"/><circle cx="8.744" cy="6.43" r="2.238" filter="url(#a)"/><circle cx="-9.714" cy="14.2" r="1.022" filter="url(#a)"/><circle cx="-10.606" cy="11.944" r="2.926" filter="url(#a)"/><circle cx="-10.794" cy="12.344" r="1.656" filter="url(#a)"/><circle cx="-11.198" cy="15.06" r="2.894" filter="url(#a)"/><circle cx="-9.03" cy="15.24" r="2.62" filter="url(#a)"/><circle cx="-9.574" cy="13.976" r="2.492" filter="url(#a)"/><circle cx="-10.81" cy="13.772" r="2.702" filter="url(#a)"/><circle cx="-12.622" cy="15.628" r="2.564" filter="url(#a)"/><circle cx="-11.87" cy="14.356" r="1.344" filter="url(#a)"/><circle cx="-9.102" cy="13.548" r="1.642" filter="url(#a)"/></g><path fill="#66CCA3" stroke="#000" stroke-linejoin="round" stroke-width="3" d="m-38.27 30.22.83.66.84.64.85.62.87.6.88.59.9.57.9.54.92.54.93.51.94.5.94.48.96.46.97.45.98.43.98.42 1 .4 1 .39 1 .37 1.02.35 1.02.34 1.03.33 1.03.31 1.03.3 1.05.29 1.04.28 1.05.26 1.05.24 1.06.24 1.06.22 1.05.21 1.07.2 1.06.19 1.06.18 1.06.17 1.06.15 1.07.15 1.06.14 1.05.12 1.06.12 1.06.11 1.05.1 1.05.09 1.04.08 1.04.07 1.04.07 1.03.05 1.02.05 1.02.05 1.01.03 1.01.03 1 .02.99.02.98.01h2.89l.95-.01.94-.02.92-.02.91-.02.91-.03.89-.03.87-.03.87-.04.85-.04.84-.04.82-.05.81-.05.79-.05.78-.05.76-.05.75-.05.72-.06.72-.05.69-.05.68-.06.65-.05.64-.06.62-.05.6-.05.58-.05.55-.05.54-.05.51-.05.5-.04.47-.04.44-.04.43-.03.4-.03.37-.03.35-.02.33-.02.3-.02.27-.01h.67l.16.01.14.02.11.02-.11-.02-.14-.02-.16-.01h-.67l-.27.01-.3.02-.33.02-.35.02-.37.03-.4.03-.43.03-.44.04-.47.04-.5.04-.51.05-.54.05-.55.05-.58.05-.6.05-.62.05-.64.06-.65.05-.68.06-.69.05-.72.05-.72.06-.75.05-.76.05-.78.05-.79.05-.81.05-.82.05-.84.04-.85.04-.87.04-.87.03-.89.03-.91.03-.91.02-.92.02-.94.02-.95.01H14.8l-.98-.01-.99-.02-1-.02-1.01-.03-1.01-.03-1.02-.05-1.02-.05-1.03-.05-1.04-.07-1.04-.07-1.04-.08-1.05-.09-1.05-.1-1.06-.11-1.06-.12-1.05-.12-1.06-.14-1.07-.15-1.06-.15-1.06-.17-1.06-.18-1.06-.19-1.07-.2-1.05-.21-1.06-.22-1.06-.24-1.05-.24-1.05-.27-1.04-.27-1.05-.29-1.03-.3-1.03-.31-1.03-.33-1.02-.34-1.02-.35-1-.37-1-.39-1-.4-.98-.42-.98-.43-.97-.45-.96-.46-.94-.48-.94-.5-.93-.51-.92-.54-.9-.54-.9-.57-.88-.59-.87-.6-.85-.62-.84-.64" filter="url(#a)"/></svg>