<svg viewBox="-100 -100 200 200" xmlns="http://www.w3.org/2000/svg" width="500" height="500" id="face-svg">
    <defs>
      <clipPath id="leftEyeClipPath">
        <polyline points="29.5,3.31 29.35,3.02 29.17,2.72 28.96,2.41 28.73,2.09 28.47,1.77 28.19,1.44 27.88,1.1 27.54,0.76 27.19,0.41 26.8,0.06 26.4,-0.3 25.96,-0.66 25.51,-1.02 25.03,-1.39 24.54,-1.75 24.04,-2.16 23.52,-2.57 22.96,-2.99 22.37,-3.41 21.74,-3.83 21.09,-4.25 20.4,-4.68 19.69,-5.09 18.94,-5.51 18.17,-5.91 17.37,-6.31 16.55,-6.7 15.7,-7.07 14.83,-7.43 13.94,-7.78 13.03,-8.11 12.1,-8.42 11.16,-8.71 10.2,-8.98 9.23,-9.23 8.25,-9.46 7.27,-9.66 6.27,-9.84 5.27,-9.99 4.26,-10.12 3.26,-10.22 2.25,-10.3 1.25,-10.35 0.24,-10.37 -0.75,-10.37 -1.75,-10.34 -2.73,-10.29 -3.7,-10.21 -4.67,-10.11 -5.62,-9.99 -6.56,-9.84 -7.48,-9.67 -8.39,-9.47 -9.29,-9.26 -10.16,-9.03 -11.02,-8.78 -11.86,-8.52 -12.67,-8.24 -13.47,-7.95 -14.25,-7.65 -15,-7.33 -15.74,-7.01 -16.45,-6.68 -17.14,-6.35 -17.81,-6.01 -18.46,-5.67 -19.08,-5.32 -19.69,-4.97 -20.28,-4.61 -20.85,-4.24 -21.4,-3.88 -21.93,-3.51 -22.43,-3.14 -22.92,-2.76 -23.39,-2.39 -23.83,-2.02 -24.26,-1.64 -24.67,-1.27 -25.05,-0.9 -28.3,7.18 -27.85,7.25 -27.39,7.31 -26.91,7.38 -26.43,7.45 -25.94,7.52 -25.43,7.59 -24.92,7.66 -24.4,7.73 -23.87,7.8 -23.33,7.87 -22.78,7.94 -22.23,8.02 -21.66,8.09 -21.09,8.17 -20.51,8.24 -19.92,8.32 -19.32,8.39 -18.7,8.47 -18.08,8.55 -17.45,8.63 -16.81,8.71 -16.17,8.79 -15.51,8.87 -14.85,8.96 -14.18,9.04 -13.5,9.12 -12.82,9.21 -12.14,9.29 -11.45,9.37 -10.75,9.45 -10.05,9.53 -9.34,9.61 -8.63,9.69 -7.91,9.77 -7.19,9.85 -6.47,9.92 -5.74,9.99 -5,10.06 -4.26,10.12 -3.52,10.18 -2.77,10.23 -2.02,10.28 -1.27,10.33 -0.5,10.37 0.26,10.4 1.04,10.43 1.81,10.45 2.6,10.47 3.39,10.48 4.18,10.48 4.98,10.47 5.79,10.45 6.6,10.43 7.42,10.39 8.25,10.35 9.08,10.3 9.92,10.23 10.76,10.16 11.61,10.08 12.46,9.99 13.32,9.89 14.18,9.78 15.04,9.66 15.91,9.54 16.6,9.45 17.29,9.37 17.97,9.28 18.65,9.18 19.32,9.08 19.99,8.97 20.64,8.86 21.28,8.75 21.92,8.63 22.53,8.51 23.14,8.38 23.73,8.26 24.3,8.12 24.85,7.99 25.38,7.85" />
      </clipPath>
      <clipPath id="rightEyeClipPath">
        <polyline points="-26.13,3.59 -25.99,3.25 -25.84,2.89 -25.66,2.53 -25.46,2.16 -25.23,1.78 -24.99,1.39 -24.72,1 -24.44,0.6 -24.13,0.19 -23.79,-0.22 -23.44,-0.63 -23.07,-1.05 -22.67,-1.47 -22.26,-1.89 -21.82,-2.31 -21.4,-2.79 -20.96,-3.28 -20.48,-3.77 -19.97,-4.26 -19.43,-4.75 -18.85,-5.24 -18.25,-5.72 -17.61,-6.2 -16.95,-6.67 -16.25,-7.13 -15.53,-7.57 -14.78,-8 -14.01,-8.42 -13.21,-8.82 -12.38,-9.19 -11.54,-9.55 -10.67,-9.89 -9.78,-10.2 -8.88,-10.48 -7.95,-10.74 -7.02,-10.98 -6.06,-11.18 -5.1,-11.36 -4.13,-11.51 -3.14,-11.63 -2.15,-11.72 -1.16,-11.78 -0.16,-11.81 0.84,-11.81 1.85,-11.79 2.85,-11.73 3.85,-11.65 4.84,-11.53 5.83,-11.39 6.81,-11.23 7.78,-11.04 8.75,-10.82 9.7,-10.59 10.64,-10.33 11.56,-10.05 12.47,-9.75 13.37,-9.44 14.25,-9.11 15.11,-8.76 15.95,-8.4 16.77,-8.04 17.57,-7.66 18.35,-7.28 19.11,-6.89 19.85,-6.5 20.57,-6.11 21.27,-5.7 21.95,-5.3 22.62,-4.89 23.26,-4.47 23.89,-4.05 24.49,-3.63 25.08,-3.2 25.64,-2.78 26.19,-2.36 26.71,-1.93 27.22,-1.51 27.7,-1.09 28.16,-0.67 29.2,8.06 28.64,8.15 28.06,8.24 27.47,8.33 26.87,8.42 26.27,8.51 25.65,8.6 25.03,8.69 24.39,8.78 23.75,8.87 23.1,8.96 22.45,9.05 21.79,9.14 21.12,9.23 20.46,9.33 19.78,9.42 19.1,9.51 18.4,9.6 17.7,9.7 17,9.79 16.29,9.89 15.57,9.99 14.86,10.08 14.14,10.18 13.43,10.28 12.71,10.37 12,10.47 11.29,10.57 10.59,10.66 9.88,10.76 9.18,10.86 8.49,10.95 7.8,11.04 7.12,11.14 6.44,11.23 5.77,11.31 5.11,11.4 4.45,11.48 3.79,11.56 3.14,11.63 2.5,11.7 1.86,11.76 1.22,11.83 0.59,11.88 -0.05,11.93 -0.68,11.97 -1.31,12.01 -1.94,12.03 -2.57,12.06 -3.2,12.07 -3.84,12.07 -4.48,12.07 -5.12,12.05 -5.77,12.03 -6.43,12 -7.09,11.96 -7.77,11.9 -8.45,11.84 -9.14,11.77 -9.84,11.68 -10.55,11.59 -11.27,11.49 -12,11.37 -12.74,11.25 -13.49,11.11 -14.06,11.03 -14.64,10.94 -15.21,10.85 -15.78,10.75 -16.34,10.64 -16.91,10.53 -17.46,10.42 -18.02,10.3 -18.56,10.18 -19.1,10.05 -19.63,9.92 -20.15,9.79 -20.66,9.66 -21.15,9.52 -21.63,9.38" />
      </clipPath>
      <filter id="fuzzy">
        <feTurbulence id="turbulence" baseFrequency="0.05" numOctaves="3" type="noise" result="noise" />
        <feDisplacementMap in="SourceGraphic" in2="noise" scale="2" />
      </filter>
      <linearGradient id="rainbowGradient" x1="0%" y1="0%" x2="100%" y2="0%">
        <stop offset="0%" style="stop-color: [object Object]; stop-opacity: 1" />
        <stop offset="50%" style="stop-color: [object Object]; stop-opacity: 1" />
        <stop offset="100%" style="stop-color: [object Object]; stop-opacity: 1" />
      </linearGradient>
    </defs>
    <rect x="-100" y="-100" width="100%" height="100%" fill="rgb(112, 66, 20)" />
    <polyline id="faceContour" points="74.58,0.88 74.53,0.35 74.3,1.9 74.4,2.86 74.22,5.19 74.04,6.16 74.15,6.86 74.16,8.63 73.79,10.49 73.67,10.87 73.5,12.05 73.12,13.06 72.87,14.34 73.11,15.13 72.92,14.64 71.97,18.65 72.04,18.98 71.98,19.03 71.81,20.66 71.2,22.01 70.23,24.65 70.51,24.36 69.84,25.44 69.15,27.72 69.74,26.84 69.32,28.16 68.57,29.65 68.64,29.6 67.63,31.57 66.14,33.98 65.96,34.72 66.13,34.35 65.66,35.67 64.37,37.66 64.3,37.51 63.44,39.07 63.52,39.43 61.82,41.67 61.64,42.43 59.89,44.36 60.28,43.9 59.32,45.56 58.91,46.12 56.93,48.16 56.32,49.09 56.91,48.83 56.46,49.33 55.28,50.56 54.58,51.03 54.17,51.29 52.86,53.12 51.73,53.89 50.44,55.36 49.97,55.66 49.63,56.12 47.53,58.03 47.05,58.57 46.99,58.33 44.57,60.06 44.84,60.07 42.39,61.85 42.66,61.64 42.18,62.32 40.51,63.03 38.56,64.26 38.26,64.63 38.31,64.33 36.53,65.52 36.09,65.49 34.03,67.05 34.51,66.76 32.68,67.56 31.72,68.16 31.37,68.24 28.27,69.55 28.15,69.52 28.44,69.56 27.2,69.95 24.18,70.97 24.5,71.13 22.48,71.75 21.37,71.85 21.79,71.93 20.8,72.34 19.16,72.53 18.23,72.89 16.44,73.25 13.98,73.84 15.28,73.77 11.95,74.23 11.82,74.19 10.57,74.45 8.09,74.65 8.56,74.88 6.86,74.87 6.58,75.01 4.22,74.97 2.49,75 2.3,75.07 1.3,75.08 -0.75,75.25 -0.92,75.28 -2.21,75.14 -2.84,75.03 -6.16,75 -5.27,74.83 -6.7,74.77 -7.27,74.8 -9.44,74.38 -9.91,74.63 -10.86,74.29 -13.75,73.81 -13.43,74.12 -16.28,73.32 -17.47,73.2 -17.04,73.17 -17.74,73.03 -18.92,72.84 -20.85,72.22 -20.83,72.14 -22.25,71.61 -22.56,71.77 -24.51,70.88 -25.02,70.97 -26.4,70.37 -28.59,69.37 -27.89,69.76 -31.51,68.25 -30.82,68.2 -33.04,67.07 -32.83,67.42 -35.38,66.05 -35.39,66.26 -38.33,64.59 -36.61,65.37 -39.14,63.92 -40.3,63.21 -42.13,61.92 -41.65,62.04 -43.07,60.97 -43.79,60.74 -44.85,59.91 -45.03,59.5 -47.75,57.76 -47.65,57.77 -47.75,57.55 -48.49,57.01 -50.63,55.26 -50.51,54.88 -51.26,54.54 -53.22,52.35 -53.24,52.42 -55.07,50.18 -56.37,49.12 -56.41,48.86 -56.03,49.01 -56.81,48.3 -57.88,47.56 -59.11,45.87 -59.15,45.34 -60.02,44.22 -60.29,43.89 -60.69,43.59 -61.99,41.25 -62.89,40.49 -64.09,38.07 -64.34,38.24 -64.6,37.3 -64.54,36.93 -65.41,35.81 -66.85,32.77 -66.91,32.59 -67.23,32.4 -67.55,32.03 -68.21,30.1 -68.82,28.13 -69.23,27.59 -69.38,26.71 -70.09,25.55 -70.78,23.81 -70.65,22.78 -71.87,20.38 -71.94,19.38 -71.83,19.79 -71.76,19.47 -72.17,18.16 -72.5,16.53 -72.7,15.6 -73.06,13.37 -73.12,13.61 -73.11,13.69 -73.76,10.41 -73.88,9.1 -74.2,8.32 -74.1,8.27 -74.18,6.25 -74.33,3.6 -74.27,4.09 -74.57,1.48 -74.36,1.49 -74.3,-0.55 -74.51,-2.31 -74.36,-2.91 -74.53,-3.17 -74.51,-4.47 -74.36,-4.89 -73.92,-7.1 -74.11,-7.18 -74.03,-8.17 -73.82,-9.53 -73.36,-12.71 -73.41,-13.37 -72.92,-14.13 -72.75,-15.33 -72.15,-17.66 -72.63,-16.99 -71.91,-18.89 -71.61,-20.15 -72.04,-19.3 -71.33,-22.13 -71.47,-21.38 -70.24,-25.09 -70.47,-24.62 -69.49,-26.79 -69.26,-27.58 -68.68,-29.45 -68.81,-29.12 -68.21,-30.17 -67.32,-32.05 -66.71,-33.33 -66.08,-34.93 -65.29,-36.01 -64.97,-36.61 -64.99,-36.74 -64.34,-38.04 -64.57,-37.62 -63.48,-39.31 -62.83,-40.43 -61.59,-42.57 -60.34,-43.73 -59.81,-45.04 -60.01,-44.23 -57.85,-47.44 -58.98,-46.23 -58.14,-47.51 -56.27,-48.94 -54.47,-51.26 -55.27,-50.38 -54.74,-50.84 -52.69,-52.92 -52.98,-53.07 -52.14,-54 -51.69,-54.56 -51.28,-54.35 -48.64,-56.94 -48.13,-57.51 -48.05,-57.75 -46.78,-58.52 -46.07,-59.39 -45.28,-60 -43.87,-60.97 -44.03,-60.83 -42.33,-61.93 -40.66,-63.27 -40.17,-63.55 -39.8,-63.79 -38.4,-64.61 -37.05,-65.63 -35.69,-65.91 -36.55,-65.81 -32.8,-67.65 -33.64,-67.17 -31.88,-67.95 -29.48,-69.02 -29.01,-69.4 -27.13,-70.32 -27.95,-69.87 -28.02,-69.95 -26.18,-70.7 -23.64,-71.18 -21.09,-72.14 -22.05,-72 -19.93,-72.56 -20.51,-72.34 -18.58,-72.84 -17.37,-73.32 -17.16,-73.23 -15.71,-73.76 -12.88,-74.42 -14.18,-74.06 -11.94,-74.23 -9.67,-74.8 -8.37,-74.77 -9.73,-74.82 -7.36,-74.8 -4.15,-75.33 -5.52,-75.27 -4.22,-75.27 -2.63,-75.41 -0.49,-75.46 -0.63,-75.39 1.7,-75.18 1.32,-75.45 5.23,-75.17 4.42,-75.05 5.8,-75.08 8.63,-75.02 7.29,-74.89 9.45,-74.68 11.17,-74.54 11.75,-74.49 11.3,-74.51 12.11,-74.45 15.23,-73.71 15.88,-73.72 18.54,-73.05 17.3,-73.43 18.98,-73.07 21.38,-72.31 21.78,-72.01 22.79,-71.87 23.92,-71.29 25.58,-70.72 26.88,-70.11 28.62,-69.47 29.42,-69.43 29.21,-69.01 29.73,-69.14 32.51,-67.74 32.49,-67.84 33.57,-67.41 34.79,-66.72 35.56,-66.31 37.64,-64.92 39.02,-64.27 39.37,-63.89 41.58,-62.39 39.55,-63.99 42.37,-61.98 41.56,-62.56 44.17,-61.05 44.6,-60.38 44.7,-60.44 45.23,-59.87 47.65,-57.99 49.63,-56.22 49.6,-56.03 50.97,-55.07 51.52,-54.38 52.47,-53.64 51.32,-54.27 53.46,-52.32 54.47,-51.41 55.81,-50.05 55.85,-49.94 56.5,-49.37 56.29,-49.25 57.6,-47.76 60.03,-44.76 60.22,-44.24 61.37,-43.23 60.74,-44.06 60.36,-43.78 62.3,-41.62 62.78,-40.62 63.75,-38.95 64.71,-37.6 63.95,-38.5 64.79,-36.9 65.83,-35.24 65.61,-35.22 67.41,-31.92 68.28,-30.62 67.24,-32.15 68.77,-29.52 69.32,-27.56 69.28,-27.54 69.84,-26.14 70.24,-25.56 70.43,-25.1 71.25,-21.5 71.55,-20.33 71.72,-19.51 71.29,-21.53 72.65,-17.49 72.51,-17.34 72.49,-17.29 72.75,-15.17 73.38,-13.21 73.18,-12.69 73.59,-12.67 73.58,-10.34 73.99,-10.47 73.91,-8.13 74.35,-5.55 74.23,-5.79 74.19,-4.52 74.36,-3.73 74.33,-2.84 74.49,-0.77 74.58,0.88 74.53,0.35" fill="rgb(255, 215, 0)" stroke="black" stroke-width="1.6666666666666665" stroke-linejoin="round" filter="url(#fuzzy)" />
    <g transform="translate(31.279999999999998 -25.57)">
      <polyline id="rightCountour" points="-26.13,3.59 -25.99,3.25 -25.84,2.89 -25.66,2.53 -25.46,2.16 -25.23,1.78 -24.99,1.39 -24.72,1 -24.44,0.6 -24.13,0.19 -23.79,-0.22 -23.44,-0.63 -23.07,-1.05 -22.67,-1.47 -22.26,-1.89 -21.82,-2.31 -21.4,-2.79 -20.96,-3.28 -20.48,-3.77 -19.97,-4.26 -19.43,-4.75 -18.85,-5.24 -18.25,-5.72 -17.61,-6.2 -16.95,-6.67 -16.25,-7.13 -15.53,-7.57 -14.78,-8 -14.01,-8.42 -13.21,-8.82 -12.38,-9.19 -11.54,-9.55 -10.67,-9.89 -9.78,-10.2 -8.88,-10.48 -7.95,-10.74 -7.02,-10.98 -6.06,-11.18 -5.1,-11.36 -4.13,-11.51 -3.14,-11.63 -2.15,-11.72 -1.16,-11.78 -0.16,-11.81 0.84,-11.81 1.85,-11.79 2.85,-11.73 3.85,-11.65 4.84,-11.53 5.83,-11.39 6.81,-11.23 7.78,-11.04 8.75,-10.82 9.7,-10.59 10.64,-10.33 11.56,-10.05 12.47,-9.75 13.37,-9.44 14.25,-9.11 15.11,-8.76 15.95,-8.4 16.77,-8.04 17.57,-7.66 18.35,-7.28 19.11,-6.89 19.85,-6.5 20.57,-6.11 21.27,-5.7 21.95,-5.3 22.62,-4.89 23.26,-4.47 23.89,-4.05 24.49,-3.63 25.08,-3.2 25.64,-2.78 26.19,-2.36 26.71,-1.93 27.22,-1.51 27.7,-1.09 28.16,-0.67 29.2,8.06 28.64,8.15 28.06,8.24 27.47,8.33 26.87,8.42 26.27,8.51 25.65,8.6 25.03,8.69 24.39,8.78 23.75,8.87 23.1,8.96 22.45,9.05 21.79,9.14 21.12,9.23 20.46,9.33 19.78,9.42 19.1,9.51 18.4,9.6 17.7,9.7 17,9.79 16.29,9.89 15.57,9.99 14.86,10.08 14.14,10.18 13.43,10.28 12.71,10.37 12,10.47 11.29,10.57 10.59,10.66 9.88,10.76 9.18,10.86 8.49,10.95 7.8,11.04 7.12,11.14 6.44,11.23 5.77,11.31 5.11,11.4 4.45,11.48 3.79,11.56 3.14,11.63 2.5,11.7 1.86,11.76 1.22,11.83 0.59,11.88 -0.05,11.93 -0.68,11.97 -1.31,12.01 -1.94,12.03 -2.57,12.06 -3.2,12.07 -3.84,12.07 -4.48,12.07 -5.12,12.05 -5.77,12.03 -6.43,12 -7.09,11.96 -7.77,11.9 -8.45,11.84 -9.14,11.77 -9.84,11.68 -10.55,11.59 -11.27,11.49 -12,11.37 -12.74,11.25 -13.49,11.11 -14.06,11.03 -14.64,10.94 -15.21,10.85 -15.78,10.75 -16.34,10.64 -16.91,10.53 -17.46,10.42 -18.02,10.3 -18.56,10.18 -19.1,10.05 -19.63,9.92 -20.15,9.79 -20.66,9.66 -21.15,9.52 -21.63,9.38" fill="white" stroke="white" stroke-width="0" stroke-linejoin="round" filter="url(#fuzzy)" />
    </g>
    <g transform="translate(-46.33 -23.73)">
      <polyline id="leftCountour" points="29.5,3.31 29.35,3.02 29.17,2.72 28.96,2.41 28.73,2.09 28.47,1.77 28.19,1.44 27.88,1.1 27.54,0.76 27.19,0.41 26.8,0.06 26.4,-0.3 25.96,-0.66 25.51,-1.02 25.03,-1.39 24.54,-1.75 24.04,-2.16 23.52,-2.57 22.96,-2.99 22.37,-3.41 21.74,-3.83 21.09,-4.25 20.4,-4.68 19.69,-5.09 18.94,-5.51 18.17,-5.91 17.37,-6.31 16.55,-6.7 15.7,-7.07 14.83,-7.43 13.94,-7.78 13.03,-8.11 12.1,-8.42 11.16,-8.71 10.2,-8.98 9.23,-9.23 8.25,-9.46 7.27,-9.66 6.27,-9.84 5.27,-9.99 4.26,-10.12 3.26,-10.22 2.25,-10.3 1.25,-10.35 0.24,-10.37 -0.75,-10.37 -1.75,-10.34 -2.73,-10.29 -3.7,-10.21 -4.67,-10.11 -5.62,-9.99 -6.56,-9.84 -7.48,-9.67 -8.39,-9.47 -9.29,-9.26 -10.16,-9.03 -11.02,-8.78 -11.86,-8.52 -12.67,-8.24 -13.47,-7.95 -14.25,-7.65 -15,-7.33 -15.74,-7.01 -16.45,-6.68 -17.14,-6.35 -17.81,-6.01 -18.46,-5.67 -19.08,-5.32 -19.69,-4.97 -20.28,-4.61 -20.85,-4.24 -21.4,-3.88 -21.93,-3.51 -22.43,-3.14 -22.92,-2.76 -23.39,-2.39 -23.83,-2.02 -24.26,-1.64 -24.67,-1.27 -25.05,-0.9 -28.3,7.18 -27.85,7.25 -27.39,7.31 -26.91,7.38 -26.43,7.45 -25.94,7.52 -25.43,7.59 -24.92,7.66 -24.4,7.73 -23.87,7.8 -23.33,7.87 -22.78,7.94 -22.23,8.02 -21.66,8.09 -21.09,8.17 -20.51,8.24 -19.92,8.32 -19.32,8.39 -18.7,8.47 -18.08,8.55 -17.45,8.63 -16.81,8.71 -16.17,8.79 -15.51,8.87 -14.85,8.96 -14.18,9.04 -13.5,9.12 -12.82,9.21 -12.14,9.29 -11.45,9.37 -10.75,9.45 -10.05,9.53 -9.34,9.61 -8.63,9.69 -7.91,9.77 -7.19,9.85 -6.47,9.92 -5.74,9.99 -5,10.06 -4.26,10.12 -3.52,10.18 -2.77,10.23 -2.02,10.28 -1.27,10.33 -0.5,10.37 0.26,10.4 1.04,10.43 1.81,10.45 2.6,10.47 3.39,10.48 4.18,10.48 4.98,10.47 5.79,10.45 6.6,10.43 7.42,10.39 8.25,10.35 9.08,10.3 9.92,10.23 10.76,10.16 11.61,10.08 12.46,9.99 13.32,9.89 14.18,9.78 15.04,9.66 15.91,9.54 16.6,9.45 17.29,9.37 17.97,9.28 18.65,9.18 19.32,9.08 19.99,8.97 20.64,8.86 21.28,8.75 21.92,8.63 22.53,8.51 23.14,8.38 23.73,8.26 24.3,8.12 24.85,7.99 25.38,7.85" fill="white" stroke="white" stroke-width="0" stroke-linejoin="round" filter="url(#fuzzy)" />
    </g>
    <g transform="translate(31.279999999999998 -25.57)">
      <polyline id="rightUpper" points="-26.31,6.2 -26.38,6.01 -26.43,5.81 -26.47,5.58 -26.48,5.35 -26.48,5.09 -26.45,4.82 -26.4,4.53 -26.33,4.23 -26.24,3.91 -26.13,3.59 -25.99,3.25 -25.84,2.89 -25.66,2.53 -25.46,2.16 -25.23,1.78 -24.99,1.39 -24.72,1 -24.44,0.6 -24.13,0.19 -23.79,-0.22 -23.44,-0.63 -23.07,-1.05 -22.67,-1.47 -22.26,-1.89 -21.82,-2.31 -21.4,-2.79 -20.96,-3.28 -20.48,-3.77 -19.97,-4.26 -19.43,-4.75 -18.85,-5.24 -18.25,-5.72 -17.61,-6.2 -16.95,-6.67 -16.25,-7.13 -15.53,-7.57 -14.78,-8 -14.01,-8.42 -13.21,-8.82 -12.38,-9.19 -11.54,-9.55 -10.67,-9.89 -9.78,-10.2 -8.88,-10.48 -7.95,-10.74 -7.02,-10.98 -6.06,-11.18 -5.1,-11.36 -4.13,-11.51 -3.14,-11.63 -2.15,-11.72 -1.16,-11.78 -0.16,-11.81 0.84,-11.81 1.85,-11.79 2.85,-11.73 3.85,-11.65 4.84,-11.53 5.83,-11.39 6.81,-11.23 7.78,-11.04 8.75,-10.82 9.7,-10.59 10.64,-10.33 11.56,-10.05 12.47,-9.75 13.37,-9.44 14.25,-9.11 15.11,-8.76 15.95,-8.4 16.77,-8.04 17.57,-7.66 18.35,-7.28 19.11,-6.89 19.85,-6.5 20.57,-6.11 21.27,-5.7 21.95,-5.3 22.62,-4.89 23.26,-4.47 23.89,-4.05 24.49,-3.63 25.08,-3.2 25.64,-2.78 26.19,-2.36 26.71,-1.93 27.22,-1.51 27.7,-1.09 28.16,-0.67 28.6,-0.26 29.03,0.15 29.43,0.56 29.81,0.96 30.17,1.35 30.51,1.74 30.84,2.13 31.14,2.5 31.43,2.88 31.69,3.24" fill="none" stroke="black" stroke-width="1.6666666666666665" stroke-linejoin="round" filter="url(#fuzzy)" />
      <polyline id="rightLower" points="-25.1,7.98 -24.9,8.11 -24.66,8.24 -24.38,8.38 -24.07,8.52 -23.72,8.66 -23.35,8.81 -22.96,8.95 -22.54,9.09 -22.09,9.24 -21.63,9.38 -21.15,9.52 -20.66,9.66 -20.15,9.79 -19.63,9.92 -19.1,10.05 -18.56,10.18 -18.02,10.3 -17.46,10.42 -16.91,10.53 -16.34,10.64 -15.78,10.75 -15.21,10.85 -14.64,10.94 -14.06,11.03 -13.49,11.11 -12.74,11.25 -12,11.37 -11.27,11.49 -10.55,11.59 -9.84,11.68 -9.14,11.77 -8.45,11.84 -7.77,11.9 -7.09,11.96 -6.43,12 -5.77,12.03 -5.12,12.05 -4.48,12.07 -3.84,12.07 -3.2,12.07 -2.57,12.06 -1.94,12.03 -1.31,12.01 -0.68,11.97 -0.05,11.93 0.59,11.88 1.22,11.83 1.86,11.76 2.5,11.7 3.14,11.63 3.79,11.56 4.45,11.48 5.11,11.4 5.77,11.31 6.44,11.23 7.12,11.14 7.8,11.04 8.49,10.95 9.18,10.86 9.88,10.76 10.59,10.66 11.29,10.57 12,10.47 12.71,10.37 13.43,10.28 14.14,10.18 14.86,10.08 15.57,9.99 16.29,9.89 17,9.79 17.7,9.7 18.4,9.6 19.1,9.51 19.78,9.42 20.46,9.33 21.12,9.23 21.79,9.14 22.45,9.05 23.1,8.96 23.75,8.87 24.39,8.78 25.03,8.69 25.65,8.6 26.27,8.51 26.87,8.42 27.47,8.33 28.06,8.24 28.64,8.15 29.2,8.06 29.75,7.97 30.29,7.88 30.82,7.79 31.34,7.7 31.84,7.61 32.33,7.52 32.81,7.43 33.28,7.34 33.73,7.25 34.17,7.15" fill="none" stroke="black" stroke-width="2.2222222222222223" stroke-linejoin="round" filter="url(#fuzzy)" />
      <circle r="3.556" cx="-2.1982661693408083" cy="-0.11838782733624242" stroke="black" fill="none" stroke-width="1.0" filter="url(#fuzzy)" clip-path="url(#rightEyeClipPath)" /><circle r="4.714" cx="-1.2982661693408084" cy="0.8166121726637576" stroke="black" fill="none" stroke-width="1.0" filter="url(#fuzzy)" clip-path="url(#rightEyeClipPath)" /><circle r="3.64" cx="-2.1932661693408084" cy="-1.0433878273362427" stroke="black" fill="none" stroke-width="1.0" filter="url(#fuzzy)" clip-path="url(#rightEyeClipPath)" /><circle r="3.194" cx="-3.078266169340808" cy="1.2866121726637574" stroke="black" fill="none" stroke-width="1.0" filter="url(#fuzzy)" clip-path="url(#rightEyeClipPath)" /><circle r="3.966" cx="0.5417338306591919" cy="-0.8683878273362426" stroke="black" fill="none" stroke-width="1.0" filter="url(#fuzzy)" clip-path="url(#rightEyeClipPath)" /><circle r="4.26" cx="0.5217338306591914" cy="-1.6883878273362427" stroke="black" fill="none" stroke-width="1.0" filter="url(#fuzzy)" clip-path="url(#rightEyeClipPath)" /><circle r="3.07" cx="0.4667338306591917" cy="0.22161217266375743" stroke="black" fill="none" stroke-width="1.0" filter="url(#fuzzy)" clip-path="url(#rightEyeClipPath)" /><circle r="4.052" cx="1.2667338306591915" cy="2.0166121726637574" stroke="black" fill="none" stroke-width="1.0" filter="url(#fuzzy)" clip-path="url(#rightEyeClipPath)" /><circle r="4.5920000000000005" cx="0.7517338306591919" cy="0.4516121726637574" stroke="black" fill="none" stroke-width="1.0" filter="url(#fuzzy)" clip-path="url(#rightEyeClipPath)" /><circle r="3.614" cx="-2.0682661693408084" cy="-0.7933878273362427" stroke="black" fill="none" stroke-width="1.0" filter="url(#fuzzy)" clip-path="url(#rightEyeClipPath)" />
      </g>
    <g transform="translate(-46.33 -23.73)">
      <polyline id="leftUpper" points="29.5,5.57 29.62,5.4 29.72,5.22 29.79,5.02 29.83,4.81 29.84,4.59 29.83,4.36 29.79,4.11 29.72,3.85 29.62,3.58 29.5,3.31 29.35,3.02 29.17,2.72 28.96,2.41 28.73,2.09 28.47,1.77 28.19,1.44 27.88,1.1 27.54,0.76 27.19,0.41 26.8,0.06 26.4,-0.3 25.96,-0.66 25.51,-1.02 25.03,-1.39 24.54,-1.75 24.04,-2.16 23.52,-2.57 22.96,-2.99 22.37,-3.41 21.74,-3.83 21.09,-4.25 20.4,-4.68 19.69,-5.09 18.94,-5.51 18.17,-5.91 17.37,-6.31 16.55,-6.7 15.7,-7.07 14.83,-7.43 13.94,-7.78 13.03,-8.11 12.1,-8.42 11.16,-8.71 10.2,-8.98 9.23,-9.23 8.25,-9.46 7.27,-9.66 6.27,-9.84 5.27,-9.99 4.26,-10.12 3.26,-10.22 2.25,-10.3 1.25,-10.35 0.24,-10.37 -0.75,-10.37 -1.75,-10.34 -2.73,-10.29 -3.7,-10.21 -4.67,-10.11 -5.62,-9.99 -6.56,-9.84 -7.48,-9.67 -8.39,-9.47 -9.29,-9.26 -10.16,-9.03 -11.02,-8.78 -11.86,-8.52 -12.67,-8.24 -13.47,-7.95 -14.25,-7.65 -15,-7.33 -15.74,-7.01 -16.45,-6.68 -17.14,-6.35 -17.81,-6.01 -18.46,-5.67 -19.08,-5.32 -19.69,-4.97 -20.28,-4.61 -20.85,-4.24 -21.4,-3.88 -21.93,-3.51 -22.43,-3.14 -22.92,-2.76 -23.39,-2.39 -23.83,-2.02 -24.26,-1.64 -24.67,-1.27 -25.05,-0.9 -25.42,-0.54 -25.77,-0.17 -26.09,0.19 -26.4,0.54 -26.69,0.9 -26.96,1.24 -27.21,1.59 -27.44,1.93 -27.66,2.26 -27.86,2.59" fill="none" stroke="black" stroke-width="2.2222222222222223" stroke-linejoin="round" filter="url(#fuzzy)" />
      <polyline id="leftLower" points="29.03,6.46 28.84,6.59 28.6,6.73 28.32,6.87 28,7.01 27.64,7.15 27.24,7.29 26.82,7.43 26.37,7.57 25.88,7.71 25.38,7.85 24.85,7.99 24.3,8.12 23.73,8.26 23.14,8.38 22.53,8.51 21.92,8.63 21.28,8.75 20.64,8.86 19.99,8.97 19.32,9.08 18.65,9.18 17.97,9.28 17.29,9.37 16.6,9.45 15.91,9.54 15.04,9.66 14.18,9.78 13.32,9.89 12.46,9.99 11.61,10.08 10.76,10.16 9.92,10.23 9.08,10.3 8.25,10.35 7.42,10.39 6.6,10.43 5.79,10.45 4.98,10.47 4.18,10.48 3.39,10.48 2.6,10.47 1.81,10.45 1.04,10.43 0.26,10.4 -0.5,10.37 -1.27,10.33 -2.02,10.28 -2.77,10.23 -3.52,10.18 -4.26,10.12 -5,10.06 -5.74,9.99 -6.47,9.92 -7.19,9.85 -7.91,9.77 -8.63,9.69 -9.34,9.61 -10.05,9.53 -10.75,9.45 -11.45,9.37 -12.14,9.29 -12.82,9.21 -13.5,9.12 -14.18,9.04 -14.85,8.96 -15.51,8.87 -16.17,8.79 -16.81,8.71 -17.45,8.63 -18.08,8.55 -18.7,8.47 -19.32,8.39 -19.92,8.32 -20.51,8.24 -21.09,8.17 -21.66,8.09 -22.23,8.02 -22.78,7.94 -23.33,7.87 -23.87,7.8 -24.4,7.73 -24.92,7.66 -25.43,7.59 -25.94,7.52 -26.43,7.45 -26.91,7.38 -27.39,7.31 -27.85,7.25 -28.3,7.18 -28.74,7.11 -29.18,7.05 -29.6,6.98 -30,6.92 -30.4,6.85 -30.79,6.79 -31.17,6.72 -31.53,6.66 -31.89,6.6 -32.23,6.53" fill="none" stroke="black" stroke-width="2.2222222222222223" stroke-linejoin="round" filter="url(#fuzzy)" />
      <circle r="4.418" cx="1.305130650693087" cy="5.646272198170136" stroke="black" fill="none" stroke-width="1.0" filter="url(#fuzzy)" clip-path="url(#leftEyeClipPath)" /><circle r="4.814" cx="4.365130650693087" cy="2.731272198170135" stroke="black" fill="none" stroke-width="1.0" filter="url(#fuzzy)" clip-path="url(#leftEyeClipPath)" /><circle r="4.906" cx="5.140130650693087" cy="6.446272198170135" stroke="black" fill="none" stroke-width="1.0" filter="url(#fuzzy)" clip-path="url(#leftEyeClipPath)" /><circle r="4.058" cx="1.0751306506930867" cy="2.486272198170136" stroke="black" fill="none" stroke-width="1.0" filter="url(#fuzzy)" clip-path="url(#leftEyeClipPath)" /><circle r="4.382" cx="2.065130650693087" cy="6.511272198170136" stroke="black" fill="none" stroke-width="1.0" filter="url(#fuzzy)" clip-path="url(#leftEyeClipPath)" /><circle r="3.212" cx="4.815130650693087" cy="5.786272198170135" stroke="black" fill="none" stroke-width="1.0" filter="url(#fuzzy)" clip-path="url(#leftEyeClipPath)" /><circle r="4.546" cx="0.620130650693087" cy="1.861272198170136" stroke="black" fill="none" stroke-width="1.0" filter="url(#fuzzy)" clip-path="url(#leftEyeClipPath)" /><circle r="4.426" cx="1.6551306506930867" cy="5.061272198170135" stroke="black" fill="none" stroke-width="1.0" filter="url(#fuzzy)" clip-path="url(#leftEyeClipPath)" /><circle r="4.67" cx="5.135130650693086" cy="5.456272198170136" stroke="black" fill="none" stroke-width="1.0" filter="url(#fuzzy)" clip-path="url(#leftEyeClipPath)" /><circle r="3.4699999999999998" cx="2.9201306506930873" cy="3.4512721981701358" stroke="black" fill="none" stroke-width="1.0" filter="url(#fuzzy)" clip-path="url(#leftEyeClipPath)" />
    </g>
    <g id="hairs">
      <polyline points="-5.52,-75.27 -4.07,-75.27 -2.38,-75.21 -0.64,-75.06 1.14,-74.83 3,-74.55 4.95,-74.23 6.96,-73.88 8.99,-73.49 11.03,-73.08 13.05,-72.65 15.03,-72.2 16.97,-71.74 18.84,-71.28 20.64,-70.83 22.34,-70.41 23.93,-70.04 25.38,-69.72 26.67,-69.47 27.76,-69.27 28.62,-69.13 29.24,-69.02 29.56,-68.98 29.47,-69.04" fill="none" stroke="rgb(255, 218, 185)" stroke-width="2" stroke-linejoin="round" filter="url(#fuzzy)" /><polyline points="61.37,-43.23 60.92,-43.57 60.84,-43.17 60.86,-42.45 60.71,-41.76 60.23,-41.26 59.37,-40.99 58.14,-40.92 56.57,-41 54.66,-41.2 52.4,-41.53 49.75,-42.04 46.69,-42.75 43.19,-43.69 39.23,-44.86 34.83,-46.28 29.97,-47.94 24.66,-49.85 18.88,-51.99 12.59,-54.35 5.68,-56.9 -1.96,-59.67 -10.36,-62.72 -19.26,-66.11" fill="none" stroke="rgb(255, 218, 185)" stroke-width="2" stroke-linejoin="round" filter="url(#fuzzy)" /><polyline points="63.95,-38.5 64.66,-37.14 65.11,-36.1 65.33,-35.3 65.27,-34.82 64.87,-34.71 64.12,-34.99 63.01,-35.63 61.54,-36.63 59.69,-38.01 57.46,-39.79 54.83,-41.99 51.77,-44.6 48.22,-47.67 44.1,-51.31 39.35,-55.62 33.99,-60.6 28.11,-66.1" fill="none" stroke="rgb(255, 218, 185)" stroke-width="2" stroke-linejoin="round" filter="url(#fuzzy)" /><polyline points="-32.8,-67.65 -32.62,-67.64 -31.3,-68.15 -29.64,-68.79 -28,-69.41 -26.46,-69.95 -24.93,-70.43 -23.31,-70.9 -21.57,-71.4 -19.77,-71.9 -18.02,-72.4 -16.43,-72.85 -15.06,-73.25 -13.89,-73.57 -12.94,-73.85 -12.19,-74.07 -11.65,-74.25 -11.35,-74.37 -11.47,-74.4 -12.35,-74.28" fill="none" stroke="rgb(255, 218, 185)" stroke-width="2" stroke-linejoin="round" filter="url(#fuzzy)" /><polyline points="64.71,-37.6 64.43,-37.74 64.55,-37.2 64.64,-36.57 64.56,-36.09 64.2,-35.9 63.5,-36.08 62.42,-36.65 60.96,-37.6 59.12,-38.93 56.88,-40.67 54.22,-42.84 51.08,-45.46 47.42,-48.54 43.19,-52.12 38.39,-56.28 33.06,-61.07 27.32,-66.48" fill="none" stroke="rgb(255, 218, 185)" stroke-width="2" stroke-linejoin="round" filter="url(#fuzzy)" /><polyline points="35.56,-66.31 37.31,-65.18 38.71,-64.24 39.91,-63.38 41.01,-62.55 42.1,-61.71 43.25,-60.81 44.46,-59.85 45.73,-58.82 47.02,-57.74 48.3,-56.65 49.54,-55.59 50.69,-54.6 51.71,-53.74 52.55,-53.04 53.19,-52.52 53.59,-52.2 53.73,-52.09 53.55,-52.27 53.07,-52.73 52.46,-53.38" fill="none" stroke="rgb(255, 218, 185)" stroke-width="2" stroke-linejoin="round" filter="url(#fuzzy)" /><polyline points="21.38,-72.31 21.92,-72.04 22.65,-71.73 23.42,-71.34 24.08,-70.93 24.49,-70.56 24.55,-70.24 24.23,-69.98 23.56,-69.76 22.57,-69.56 21.26,-69.37 19.63,-69.18 17.65,-69.01 15.31,-68.84 12.55,-68.69 9.3,-68.55 5.48,-68.44 1,-68.38 -4.12,-68.41 -9.75,-68.55 -15.66,-68.84 -21.84,-69.24" fill="none" stroke="rgb(255, 218, 185)" stroke-width="2" stroke-linejoin="round" filter="url(#fuzzy)" /><polyline points="63.75,-38.95 64.08,-38.29 63.89,-37.95 63.49,-37.54 62.86,-37.12 61.9,-36.8 60.52,-36.7 58.68,-36.88 56.34,-37.36 53.47,-38.13 50.08,-39.18 46.15,-40.51 41.69,-42.12 36.67,-44 31.1,-46.16 24.98,-48.62 18.3,-51.44 11.05,-54.66 3.19,-58.29 -5.4,-62.2 -15.06,-66.31" fill="none" stroke="rgb(255, 218, 185)" stroke-width="2" stroke-linejoin="round" filter="url(#fuzzy)" /><polyline points="49.6,-56.03 50.67,-55.18 51.45,-54.43 52.14,-53.69 52.89,-52.86 53.75,-51.94 54.65,-51 55.5,-50.09 56.28,-49.25 56.98,-48.46 57.61,-47.72 58.15,-47.05 58.56,-46.54 58.79,-46.25 58.8,-46.22 58.6,-46.43 58.2,-46.85 57.61,-47.46 56.79,-48.31 55.71,-49.46 54.42,-50.91 53.07,-52.55" fill="none" stroke="rgb(255, 218, 185)" stroke-width="2" stroke-linejoin="round" filter="url(#fuzzy)" /><polyline points="53.46,-52.32 54.46,-51.36 55.34,-50.44 56.08,-49.59 56.8,-48.71 57.58,-47.71 58.43,-46.64 59.24,-45.62 59.9,-44.81 60.34,-44.27 60.51,-44.04 60.41,-44.13 60.02,-44.57 59.33,-45.41 58.36,-46.65 57.22,-48.16" fill="none" stroke="rgb(255, 218, 185)" stroke-width="2" stroke-linejoin="round" filter="url(#fuzzy)" /><polyline points="17.3,-73.43 19.07,-72.94 20.77,-72.35 22.35,-71.73 23.93,-71.07 25.58,-70.37 27.26,-69.65 28.9,-68.94 30.43,-68.27 31.83,-67.65 33.07,-67.09 34.2,-66.58 35.21,-66.11 36.1,-65.69 36.82,-65.36 37.27,-65.15 37.36,-65.14 36.98,-65.4 36.05,-65.97" fill="none" stroke="rgb(255, 218, 185)" stroke-width="2" stroke-linejoin="round" filter="url(#fuzzy)" /><polyline points="44.7,-60.44 45.75,-59.51 47.13,-58.33 48.28,-57.3 49.09,-56.55 49.58,-56.05 49.78,-55.75 49.74,-55.61 49.51,-55.59 49.09,-55.69 48.45,-55.94 47.55,-56.37 46.34,-57.01 44.8,-57.88 42.92,-58.96 40.68,-60.26 37.98,-61.84 34.74,-63.79 30.9,-66.2 26.52,-69.02" fill="none" stroke="rgb(255, 218, 185)" stroke-width="2" stroke-linejoin="round" filter="url(#fuzzy)" /><polyline points="50.97,-55.07 51.31,-54.51 51.16,-54.13 50.71,-53.72 49.98,-53.27 48.86,-52.86 47.2,-52.57 44.94,-52.41 42.08,-52.34 38.66,-52.33 34.67,-52.36 30.07,-52.49 24.79,-52.78 18.78,-53.29 12,-54 4.49,-54.86 -3.72,-55.8 -12.66,-56.78 -22.42,-57.82 -32.98,-59.07" fill="none" stroke="rgb(255, 218, 185)" stroke-width="2" stroke-linejoin="round" filter="url(#fuzzy)" /><polyline points="-29.48,-69.02 -28.38,-69.31 -26.54,-69.26 -24.03,-68.89 -20.6,-68.31 -16.19,-67.59 -10.96,-66.69 -5.13,-65.59 1.07,-64.3 7.58,-62.88 14.42,-61.35 21.67,-59.69 29.4,-57.83 37.58,-55.72 46.05,-53.46" fill="none" stroke="rgb(255, 218, 185)" stroke-width="2" stroke-linejoin="round" filter="url(#fuzzy)" /><polyline points="-18.58,-72.84 -17.47,-73.14 -15.99,-73.35 -14.06,-73.54 -11.82,-73.67 -9.39,-73.75 -6.81,-73.79 -4.17,-73.81 -1.52,-73.83 1.08,-73.84 3.62,-73.85 6.05,-73.87 8.32,-73.88 10.42,-73.87 12.35,-73.83 13.98,-73.79" fill="none" stroke="rgb(255, 218, 185)" stroke-width="2" stroke-linejoin="round" filter="url(#fuzzy)" /><polyline points="-28.02,-69.95 -26,-70.61 -23.87,-71.2 -22.02,-71.7 -20.41,-72.11 -18.9,-72.45 -17.39,-72.78 -15.86,-73.1 -14.32,-73.43 -12.8,-73.75 -11.37,-74.06 -10.06,-74.33 -8.92,-74.57 -8.01,-74.75 -7.34,-74.89 -6.98,-74.97 -7,-74.98 -7.49,-74.93 -8.26,-74.85" fill="none" stroke="rgb(255, 218, 185)" stroke-width="2" stroke-linejoin="round" filter="url(#fuzzy)" /><polyline points="1.32,-75.45 3.7,-75.25 5,-75.13 6.1,-75.04 7.13,-74.96 8.04,-74.87 8.81,-74.79 9.38,-74.71 9.73,-74.64 9.87,-74.58 9.8,-74.52 9.5,-74.46 8.89,-74.41 7.9,-74.39 6.46,-74.41 4.57,-74.45 2.24,-74.5 -0.65,-74.56 -4.52,-74.64" fill="none" stroke="rgb(255, 218, 185)" stroke-width="2" stroke-linejoin="round" filter="url(#fuzzy)" /><polyline points="7.29,-74.89 9.09,-74.72 10.34,-74.61 11.19,-74.51 11.92,-74.4 12.69,-74.25 13.44,-74.08 14.06,-73.93 14.39,-73.8 14.38,-73.71 14,-73.66 13.23,-73.63 12.04,-73.65 10.4,-73.72 8.25,-73.86 5.55,-74.05 2.34,-74.33 -1.14,-74.74" fill="none" stroke="rgb(255, 218, 185)" stroke-width="2" stroke-linejoin="round" filter="url(#fuzzy)" /><polyline points="1.32,-75.45 3.65,-75.24 4.78,-75.12 5.62,-75.01 6.29,-74.89 6.77,-74.74 7.04,-74.57 7.05,-74.37 6.81,-74.13 6.33,-73.85 5.63,-73.51 4.7,-73.13 3.51,-72.69 1.98,-72.22 0.04,-71.68 -2.35,-71.07 -5.22,-70.39 -8.58,-69.64 -12.41,-68.84 -16.73,-67.98 -21.52,-67.09 -26.87,-66.13 -32.92,-65.04" fill="none" stroke="rgb(255, 218, 185)" stroke-width="2" stroke-linejoin="round" filter="url(#fuzzy)" /><polyline points="29.42,-69.43 29.67,-69.06 30.66,-68.53 31.96,-67.87 33.34,-67.14 34.76,-66.36 36.21,-65.51 37.69,-64.61 39.14,-63.7 40.49,-62.85 41.65,-62.11 42.57,-61.53 43.25,-61.13 43.7,-60.9 43.96,-60.8 44.05,-60.81 43.94,-60.93 43.57,-61.2 42.87,-61.68 41.74,-62.43" fill="none" stroke="rgb(255, 218, 185)" stroke-width="2" stroke-linejoin="round" filter="url(#fuzzy)" /><polyline points="35.56,-66.31 37.27,-65.23 38.53,-64.45 39.49,-63.84 40.27,-63.36 40.95,-62.93 41.61,-62.51 42.25,-62.08 42.86,-61.65 43.4,-61.23 43.85,-60.84 44.18,-60.5 44.35,-60.24 44.32,-60.1 44.03,-60.12 43.45,-60.34 42.57,-60.76 41.39,-61.36 39.95,-62.14 38.27,-63.07 36.35,-64.17 34.08,-65.48 31.3,-67.08 27.91,-69.04" fill="none" stroke="rgb(255, 218, 185)" stroke-width="2" stroke-linejoin="round" filter="url(#fuzzy)" /><polyline points="-27.95,-69.87 -27.21,-70.14 -25.44,-70.59 -23.33,-71.03 -21.25,-71.4 -19.27,-71.67 -17.31,-71.88 -15.29,-72.05 -13.17,-72.2 -10.93,-72.34 -8.6,-72.47 -6.19,-72.58 -3.74,-72.67 -1.3,-72.75 1.09,-72.81 3.37,-72.87 5.52,-72.94 7.5,-73.02 9.33,-73.11 10.98,-73.21 12.43,-73.32 13.67,-73.42 14.78,-73.5 15.78,-73.53" fill="none" stroke="rgb(255, 218, 185)" stroke-width="2" stroke-linejoin="round" filter="url(#fuzzy)" /><polyline points="-37.05,-65.63 -36.2,-65.88 -35.41,-66.25 -34.56,-66.66 -33.76,-66.99 -33.1,-67.22 -32.69,-67.29 -32.62,-67.15 -32.94,-66.78 -33.64,-66.15 -34.63,-65.28 -35.87,-64.2 -37.38,-62.9 -39.28,-61.32 -41.68,-59.44 -44.65,-57.24 -48.23,-54.65 -52.61,-51.47" fill="none" stroke="rgb(255, 218, 185)" stroke-width="2" stroke-linejoin="round" filter="url(#fuzzy)" /><polyline points="63.95,-38.5 64.68,-37.13 65.21,-36.06 65.57,-35.2 65.7,-34.65 65.55,-34.5 65.05,-34.78 64.2,-35.47 63.01,-36.59 61.47,-38.16 59.57,-40.21 57.27,-42.75 54.57,-45.78 51.46,-49.3 48,-53.35 44.19,-58.05" fill="none" stroke="rgb(255, 218, 185)" stroke-width="2" stroke-linejoin="round" filter="url(#fuzzy)" /><polyline points="28.62,-69.47 29.16,-69.32 29.78,-69.01 30.66,-68.6 31.7,-68.12 32.77,-67.63 33.79,-67.13 34.75,-66.63 35.61,-66.15 36.34,-65.73 36.87,-65.39 37.16,-65.17 37.19,-65.09 36.95,-65.14 36.47,-65.33 35.74,-65.63 34.73,-66.06 33.36,-66.65 31.59,-67.42 29.43,-68.38 26.97,-69.5 24.27,-70.78" fill="none" stroke="rgb(255, 218, 185)" stroke-width="2" stroke-linejoin="round" filter="url(#fuzzy)" /><polyline points="29.42,-69.43 29.69,-69.03 30.75,-68.42 32.17,-67.64 33.72,-66.72 35.36,-65.7 37.08,-64.56 38.86,-63.36 40.62,-62.15 42.3,-60.98 43.85,-59.9 45.25,-58.92 46.49,-58.03 47.59,-57.25 48.52,-56.58 49.28,-56.05 49.91,-55.64 50.42,-55.31 50.81,-55.07" fill="none" stroke="rgb(255, 218, 185)" stroke-width="2" stroke-linejoin="round" filter="url(#fuzzy)" /><polyline points="22.79,-71.87 24.11,-71.26 25.73,-70.53 27.44,-69.74 29.11,-68.95 30.68,-68.16 32.19,-67.39 33.66,-66.64 35.09,-65.93 36.45,-65.26 37.7,-64.65 38.79,-64.11 39.68,-63.65 40.29,-63.33 40.58,-63.18 40.7,-63.09" fill="none" stroke="rgb(255, 218, 185)" stroke-width="2" stroke-linejoin="round" filter="url(#fuzzy)" /><polyline points="-31.88,-67.95 -29.97,-68.77 -28.31,-69.37 -26.66,-69.82 -24.83,-70.21 -22.65,-70.61 -20.08,-71.08 -17.25,-71.61 -14.33,-72.14 -11.43,-72.63 -8.63,-73.07 -5.94,-73.47 -3.35,-73.84 -0.9,-74.21 1.34,-74.55 3.15,-74.84" fill="none" stroke="rgb(255, 218, 185)" stroke-width="2" stroke-linejoin="round" filter="url(#fuzzy)" /><polyline points="-7.36,-74.8 -5.42,-75.03 -4.1,-74.9 -2.43,-74.55 -0.32,-74.03 2.1,-73.36 4.74,-72.56 7.58,-71.63 10.6,-70.59 13.75,-69.45 17,-68.22 20.29,-66.95 23.59,-65.67 26.89,-64.39 30.18,-63.09 33.47,-61.74 36.74,-60.36 39.94,-58.99 43.01,-57.69 45.94,-56.52 48.86,-55.37" fill="none" stroke="rgb(255, 218, 185)" stroke-width="2" stroke-linejoin="round" filter="url(#fuzzy)" /><polyline points="-23.64,-71.18 -22.14,-71.78 -21.33,-72.1 -20.62,-72.33 -19.92,-72.53 -19.26,-72.71 -18.73,-72.84 -18.44,-72.9 -18.46,-72.85 -18.86,-72.68 -19.61,-72.38 -20.71,-71.96 -22.22,-71.41 -24.37,-70.64 -27.49,-69.53" fill="none" stroke="rgb(255, 218, 185)" stroke-width="2" stroke-linejoin="round" filter="url(#fuzzy)" /><polyline points="-4.22,-75.27 -2.74,-75.34 -1.62,-75.29 -0.82,-75.14 -0.23,-74.91 0.17,-74.61 0.34,-74.22 0.24,-73.75 -0.18,-73.17 -0.93,-72.49 -2.03,-71.7 -3.49,-70.79 -5.32,-69.75 -7.51,-68.59 -10.05,-67.29 -12.93,-65.85 -16.17,-64.26 -19.8,-62.52 -23.89,-60.6 -28.52,-58.5 -33.72,-56.19 -39.45,-53.67 -45.64,-51.01 -52.27,-48.17" fill="none" stroke="rgb(255, 218, 185)" stroke-width="2" stroke-linejoin="round" filter="url(#fuzzy)" /><polyline points="-33.64,-67.17 -31.66,-67.91 -29.46,-68.48 -27.2,-68.8 -24.81,-68.91 -22.13,-68.85 -18.99,-68.71 -15.38,-68.54 -11.37,-68.34 -7.12,-68.11 -2.76,-67.85 1.66,-67.54 6.15,-67.19 10.77,-66.8 15.52,-66.36 20.37,-65.88 25.28,-65.38 30.22,-64.83 35.34,-64.06" fill="none" stroke="rgb(255, 218, 185)" stroke-width="2" stroke-linejoin="round" filter="url(#fuzzy)" /><polyline points="65.61,-35.22 66.87,-32.95 67.42,-31.88 67.67,-31.21 67.77,-30.66 67.73,-30.23 67.53,-30.01 67.15,-29.99 66.59,-30.17 65.84,-30.57 64.88,-31.22 63.69,-32.19 62.27,-33.52 60.59,-35.23 58.61,-37.33 56.32,-39.8 53.67,-42.66 50.66,-45.92 47.31,-49.6 43.66,-53.69 39.7,-58.22 35.28,-63.24" fill="none" stroke="rgb(255, 218, 185)" stroke-width="2" stroke-linejoin="round" filter="url(#fuzzy)" /><polyline points="39.55,-63.99 41.33,-62.73 42.52,-61.91 43.61,-61.12 44.65,-60.33 45.65,-59.53 46.66,-58.69 47.61,-57.89 48.36,-57.25 48.75,-56.91 48.7,-56.94 48.2,-57.35 47.33,-58.08 46.14,-59.07 44.46,-60.42" fill="none" stroke="rgb(255, 218, 185)" stroke-width="2" stroke-linejoin="round" filter="url(#fuzzy)" /><polyline points="-31.88,-67.95 -30.16,-68.76 -29.06,-69.33 -28.33,-69.7 -27.79,-69.93 -27.28,-70.1 -26.75,-70.23 -26.32,-70.3 -26.17,-70.25 -26.44,-70.02 -27.21,-69.59 -28.47,-68.94 -30.19,-68.08 -32.35,-67.01 -34.98,-65.72 -38.18,-64.13" fill="none" stroke="rgb(255, 218, 185)" stroke-width="2" stroke-linejoin="round" filter="url(#fuzzy)" /><polyline points="33.57,-67.41 34.76,-66.7 36.17,-65.77 37.73,-64.71 39.28,-63.61 40.73,-62.54 42.1,-61.5 43.43,-60.47 44.75,-59.43 46.05,-58.4 47.31,-57.41 48.49,-56.48 49.59,-55.62 50.61,-54.8 51.53,-54.05 52.24,-53.46 52.6,-53.17 52.53,-53.27 52.2,-53.64" fill="none" stroke="rgb(255, 218, 185)" stroke-width="2" stroke-linejoin="round" filter="url(#fuzzy)" /><polyline points="-9.67,-74.8 -9.05,-74.78 -8.53,-74.79 -7.83,-74.79 -7.23,-74.75 -6.86,-74.63 -6.74,-74.41 -6.86,-74.08 -7.25,-73.64 -7.95,-73.07 -8.98,-72.38 -10.4,-71.55 -12.22,-70.6 -14.48,-69.51 -17.21,-68.27 -20.42,-66.89 -24.14,-65.35 -28.37,-63.64 -33.17,-61.7 -38.67,-59.47 -44.98,-56.91" fill="none" stroke="rgb(255, 218, 185)" stroke-width="2" stroke-linejoin="round" filter="url(#fuzzy)" /><polyline points="-11.94,-74.23 -10.06,-74.51 -8.47,-74.45 -6.62,-74.21 -4.35,-73.87 -1.73,-73.42 1.14,-72.86 4.22,-72.19 7.48,-71.44 10.89,-70.65 14.36,-69.83 17.85,-69.01 21.34,-68.19 24.83,-67.35 28.29,-66.48 31.64,-65.61 34.79,-64.79 37.61,-64.09" fill="none" stroke="rgb(255, 218, 185)" stroke-width="2" stroke-linejoin="round" filter="url(#fuzzy)" /><polyline points="35.56,-66.31 37.05,-65.27 37.67,-64.57 37.56,-64.09 36.8,-63.77 35.49,-63.54 33.68,-63.34 31.34,-63.13 28.42,-62.91 24.87,-62.68 20.65,-62.45 15.76,-62.23 10.18,-62.02 3.84,-61.87 -3.35,-61.82 -11.47,-61.9 -20.47,-62.13 -30.24,-62.57" fill="none" stroke="rgb(255, 218, 185)" stroke-width="2" stroke-linejoin="round" filter="url(#fuzzy)" /><polyline points="12.11,-74.45 14.38,-73.95 15.9,-73.64 17.01,-73.42 17.89,-73.21 18.65,-73 19.28,-72.77 19.75,-72.56 19.99,-72.38 19.95,-72.25 19.59,-72.17 18.84,-72.18 17.63,-72.29 15.88,-72.53 13.56,-72.89 10.68,-73.35 7.28,-73.91 3.45,-74.59" fill="none" stroke="rgb(255, 218, 185)" stroke-width="2" stroke-linejoin="round" filter="url(#fuzzy)" /><polyline points="7.29,-74.89 9.08,-74.72 10.25,-74.61 11,-74.52 11.61,-74.41 12.22,-74.25 12.8,-74.08 13.24,-73.89 13.43,-73.71 13.32,-73.54 12.9,-73.37 12.14,-73.2 11.03,-73.04 9.54,-72.88 7.63,-72.74 5.28,-72.62 2.45,-72.52 -0.91,-72.45 -4.84,-72.42 -9.34,-72.43 -14.48,-72.44" fill="none" stroke="rgb(255, 218, 185)" stroke-width="2" stroke-linejoin="round" filter="url(#fuzzy)" /><polyline points="26.88,-70.11 28.24,-69.62 29.27,-69.16 30.33,-68.62 31.57,-67.98 32.93,-67.28 34.32,-66.58 35.67,-65.9 36.94,-65.23 38.11,-64.59 39.11,-64.03 39.86,-63.59 40.32,-63.32 40.47,-63.23 40.33,-63.32 39.83,-63.65" fill="none" stroke="rgb(255, 218, 185)" stroke-width="2" stroke-linejoin="round" filter="url(#fuzzy)" /><polyline points="21.78,-72.01 22.74,-71.73 23.68,-71.3 24.48,-70.83 25,-70.39 25.13,-70.02 24.87,-69.69 24.22,-69.39 23.23,-69.09 21.91,-68.77 20.24,-68.44 18.22,-68.1 15.82,-67.75 13.01,-67.38 9.71,-67 5.84,-66.62 1.34,-66.27 -3.8,-65.96 -9.57,-65.69 -15.89,-65.46 -22.73,-65.25 -30.14,-65.03" fill="none" stroke="rgb(255, 218, 185)" stroke-width="2" stroke-linejoin="round" filter="url(#fuzzy)" /><polyline points="49.63,-56.22 49.71,-55.84 49.51,-55.32 48.67,-54.84 47.16,-54.4 45.03,-53.96 42.29,-53.49 38.89,-53.03 34.73,-52.63 29.76,-52.3 23.95,-52.02 17.32,-51.73 9.85,-51.42 1.52,-51.11 -7.72,-50.93 -17.88,-50.95 -29,-51.17 -41.14,-51.33" fill="none" stroke="rgb(255, 218, 185)" stroke-width="2" stroke-linejoin="round" filter="url(#fuzzy)" /><polyline points="-21.09,-72.14 -21.02,-72.18 -19.97,-72.37 -18.46,-72.6 -16.65,-72.88 -14.61,-73.19 -12.41,-73.51 -10.1,-73.81 -7.78,-74.08 -5.53,-74.33 -3.4,-74.54 -1.48,-74.73 0.14,-74.89 1.37,-75.04 2.08,-75.19" fill="none" stroke="rgb(255, 218, 185)" stroke-width="2" stroke-linejoin="round" filter="url(#fuzzy)" /><polyline points="-33.64,-67.17 -31.93,-67.94 -30.53,-68.6 -29.6,-69.05 -29.09,-69.28 -28.85,-69.32 -28.73,-69.25 -28.67,-69.07 -28.77,-68.78 -29.15,-68.31 -29.95,-67.63 -31.22,-66.69 -32.99,-65.47 -35.23,-63.97 -37.95,-62.2 -41.12,-60.18 -44.68,-57.95 -48.56,-55.51" fill="none" stroke="rgb(255, 218, 185)" stroke-width="2" stroke-linejoin="round" filter="url(#fuzzy)" /><polyline points="5.23,-75.17 5.29,-75.08 6.3,-75 7.53,-74.89 8.76,-74.75 9.92,-74.61 10.97,-74.48 11.85,-74.36 12.57,-74.26 13.14,-74.17 13.56,-74.1 13.77,-74.05 13.68,-74.04 13.18,-74.09 12.21,-74.21 10.81,-74.41 8.93,-74.7" fill="none" stroke="rgb(255, 218, 185)" stroke-width="2" stroke-linejoin="round" filter="url(#fuzzy)" /><polyline points="-9.67,-74.8 -8.9,-74.79 -7.96,-74.81 -6.56,-74.88 -4.98,-74.94 -3.36,-74.98 -1.73,-75 -0.09,-74.99 1.55,-74.96 3.12,-74.91 4.58,-74.86 5.89,-74.81 7,-74.78 7.91,-74.75 8.6,-74.74 9.05,-74.73 9.23,-74.74 9.07,-74.77 8.58,-74.84 7.74,-74.95" fill="none" stroke="rgb(255, 218, 185)" stroke-width="2" stroke-linejoin="round" filter="url(#fuzzy)" /><polyline points="-2.63,-75.41 -1.23,-75.41 -0.31,-75.34 0.47,-75.26 1.13,-75.14 1.56,-75 1.69,-74.81 1.46,-74.57 0.8,-74.28 -0.31,-73.92 -1.89,-73.5 -3.92,-73.03 -6.4,-72.51 -9.37,-71.92 -12.88,-71.2 -17.05,-70.31 -21.93,-69.28 -27.41,-68.26" fill="none" stroke="rgb(255, 218, 185)" stroke-width="2" stroke-linejoin="round" filter="url(#fuzzy)" /><polyline points="11.17,-74.54 20.64,-71.18 13.95,-70.05 1.71,-68.36 -8.91,-66.33 -15.41,-64.84 -18.21,-64.45 -18.59,-65.09 -17.53,-66.13 -15.33,-66.69 -11.65,-66.21 -5.99,-64.75 1.42,-63.03 9.02,-61.93 14.21,-61.83 14.95,-62.29 11.91,-62.54 9.61,-62.32 14.08,-62.26 22.88,-63.74 5.23,-75.17" fill="none" stroke="rgb(255, 218, 185)" stroke-width="2" stroke-linejoin="round" filter="url(#fuzzy)" /><polyline points="-18.58,-72.84 -10.99,-72.28 2.21,-69.15 15.81,-66.43 26.25,-63.87 33.44,-60.93 37.43,-58.21 37.76,-56.68 34.23,-56.7 27.38,-57.87 18.63,-59.43 10.22,-60.63 4.64,-60.83 3.4,-59.7 5.61,-57.53 7.53,-55.37 4.16,-54.66 -7.18,-56.11 -23.71,-58.64 -38.27,-59.73 -46.68,-57.41 -56.27,-48.94" fill="none" stroke="rgb(255, 218, 185)" stroke-width="2" stroke-linejoin="round" filter="url(#fuzzy)" /><polyline points="37.64,-64.92 29.61,-61.56 15.7,-65.2 13.99,-66.96 19,-65.56 23.66,-61.85 25.46,-56.8 25.72,-51.58 26.42,-47.84 27.39,-47.33 26.06,-50.9 19.93,-57.48 9.25,-63.99 -2.86,-66.72 -11.45,-63.4 -4.63,-55.05 56.5,-49.37" fill="none" stroke="rgb(255, 218, 185)" stroke-width="2" stroke-linejoin="round" filter="url(#fuzzy)" /><polyline points="63.95,-38.5 4.35,-51.13 -4.42,-58.73 -1.9,-61.66 1.82,-62.53 6.1,-62.36 12.38,-61.41 20.42,-60.23 28.22,-59.54 33.59,-59.78 35.28,-60.94 32.84,-62.7 26.23,-64.65 15.68,-66.42 2.09,-67.6 -12.55,-67.79 -25.44,-66.93 -34.07,-65.62 -37.87,-64.72 -38.4,-64.61" fill="none" stroke="rgb(255, 218, 185)" stroke-width="2" stroke-linejoin="round" filter="url(#fuzzy)" /><polyline points="-0.49,-75.46 35.67,-56.64 40.37,-54.06 34.76,-53.27 26.82,-52.09 19.57,-51.8 14.41,-53.07 11.97,-55.45 11.96,-58.09 13.15,-60.37 14.1,-62.03 14.22,-62.99 14.06,-63.21 14.72,-62.76 16.81,-61.93 19.88,-61.23 22.69,-61.3 24.16,-62.56 24.54,-64.46 25.89,-64.56 34.07,-57.19 68.77,-29.52" fill="none" stroke="rgb(255, 218, 185)" stroke-width="2" stroke-linejoin="round" filter="url(#fuzzy)" /><polyline points="18.54,-73.05 41.24,-56.29 40.2,-51.07 26.84,-53.1 14.83,-55.99 7.95,-57.51 3.44,-58.22 -0.76,-59.05 -3.56,-59.93 -3.23,-60 -0.34,-58.61 2.34,-56.41 2.24,-55.71 0.49,-58.74 8.1,-62.95 49.63,-56.22" fill="none" stroke="rgb(255, 218, 185)" stroke-width="2" stroke-linejoin="round" filter="url(#fuzzy)" /><polyline points="39.55,-63.99 26.89,-66.12 17.44,-68.37 17.08,-68.94 18.67,-68.49 17.57,-67.88 13.64,-67.44 9.78,-66.91 9.24,-65.82 13.36,-63.93 20.66,-61.43 27.87,-58.82 31.86,-56.65 31.4,-55.4 27.78,-55.55 24.01,-57.51 22.49,-61.27 21.46,-66.22 13.98,-71.55 -0.63,-75.39" fill="none" stroke="rgb(255, 218, 185)" stroke-width="2" stroke-linejoin="round" filter="url(#fuzzy)" /><polyline points="-31.88,-67.95 -19.16,-56.26 8.16,-52.34 22.29,-52.93 26.16,-55.53 24.16,-58.37 18.47,-60.83 11.14,-62.8 4.81,-64.16 1.94,-64.65 3.76,-64.06 9.81,-62.46 18,-60.36 25.26,-58.59 28.71,-57.91 26.76,-58.62 19.89,-60.39 10.58,-62.39 2.24,-63.81 -2.37,-64.41 -2.68,-64.82 -0.36,-66.06 1.6,-68.25 -3.28,-69.31 -35.69,-65.91" fill="none" stroke="rgb(255, 218, 185)" stroke-width="2" stroke-linejoin="round" filter="url(#fuzzy)" /><polyline points="45.23,-59.87 31,-64.8 33.86,-63.61 35.19,-63.3 32.48,-64.18 26.63,-65.72 19.9,-67.26 15.05,-67.95 13.76,-67.15 15.54,-64.78 17.87,-61.56 17.65,-58.7 12.96,-57.29 4.18,-57.7 -6.44,-59.48 -16.23,-61.78 -23.51,-63.9 -27.68,-65.61 -27.97,-66.98 -22.17,-68.19 -5.3,-69.13 32.49,-67.84" fill="none" stroke="rgb(255, 218, 185)" stroke-width="2" stroke-linejoin="round" filter="url(#fuzzy)" /><polyline points="49.63,-56.22 19.95,-60.88 8.68,-58.63 0.45,-56.87 -1.46,-56.27 1.68,-56.69 6.37,-57.54 9.95,-58.29 11.27,-58.95 10.18,-59.93 7.06,-61.6 2.76,-63.82 -1.13,-65.87 -2.5,-66.9 0.46,-66.31 7.85,-64.08 17.24,-60.8 24.15,-57.76 24.61,-56.84 18.67,-59.92 10.79,-66.73 -9.73,-74.82" fill="none" stroke="rgb(255, 218, 185)" stroke-width="2" stroke-linejoin="round" filter="url(#fuzzy)" /><polyline points="64.79,-36.9 36.19,-56.52 27.26,-60.77 24.52,-60.47 24.31,-58.5 23.73,-56.61 21.2,-55.77 16.03,-56.21 8.49,-57.74 0.11,-59.91 -6.75,-62.19 -10.27,-64.1 -10.57,-65.5 -9.84,-66.41 -10.94,-66.91 -14.94,-67.01 -19.31,-67.07 -19.22,-68.13 -14.85,-70.44 -27.95,-69.87" fill="none" stroke="rgb(255, 218, 185)" stroke-width="2" stroke-linejoin="round" filter="url(#fuzzy)" /><polyline points="69.84,-26.14 54.32,-43.72 40.78,-50.77 23.35,-56.16 7.75,-59.31 -0.51,-60.68 -0.25,-61.11 5.45,-60.91 11.87,-60.05 14.93,-58.59 12.42,-57.03 4.5,-56.08 -6.11,-56.35 -14.87,-57.89 -17.98,-60.12 -15.59,-62.04 -12.52,-62.54 -12.5,-60.9 -3.89,-57.09 54.47,-51.41" fill="none" stroke="rgb(255, 218, 185)" stroke-width="2" stroke-linejoin="round" filter="url(#fuzzy)" /><polyline points="1.7,-75.18 10.65,-73.32 9.96,-70.46 9.93,-65.33 11.84,-60.12 15.01,-57.11 18.51,-57 21.51,-58.99 23.32,-61.67 23.4,-63.96 21.23,-65.22 16.44,-65.2 8.84,-63.99 -1.13,-62.17 -11.32,-60.72 -17.07,-60.43 -12.48,-61.28 4.45,-62.43 23.36,-63.96 12.11,-74.45" fill="none" stroke="rgb(255, 218, 185)" stroke-width="2" stroke-linejoin="round" filter="url(#fuzzy)" /><polyline points="60.03,-44.76 40.34,-42.06 8.3,-52.01 -8.64,-60.47 -12.58,-65.73 -11.35,-67.94 -9.38,-67.63 -7.25,-65.78 -4.31,-63.5 -0.26,-61.45 4.82,-59.56 10.83,-57.39 17.23,-54.87 22.47,-52.76 24.87,-52.31 24.99,-54.09 25.87,-57.01 27.36,-59.48 16.91,-62.93 -27.95,-69.87" fill="none" stroke="rgb(255, 218, 185)" stroke-width="2" stroke-linejoin="round" filter="url(#fuzzy)" /><polyline points="28.62,-69.47 52.03,-47.16 53.42,-44.64 40.93,-49.78 22.14,-55.85 4.18,-60.02 -8.6,-61.48 -15.27,-60.43 -17.2,-57.93 -16.79,-55.56 -16.13,-54.71 -15.82,-55.91 -14.38,-58.59 -9.44,-61.72 -0.16,-64.51 10.6,-66.78 16.86,-68.82 12.98,-70.81 -2.59,-72.04 -27.95,-69.87" fill="none" stroke="rgb(255, 218, 185)" stroke-width="2" stroke-linejoin="round" filter="url(#fuzzy)" /><polyline points="68.77,-29.52 7.19,-49.57 3.59,-51.59 14.43,-51.04 19.99,-52.92 20.14,-55.67 20.3,-56.74 23.15,-55.5 27.22,-53.32 29.32,-52.13 27.44,-53.04 22.05,-55.83 15.6,-59.27 10.85,-61.99 9.1,-63.23 8.9,-63.33 6.49,-63.49 -0.93,-65.02 -10.2,-68.22 -12.96,-71.98 -15.71,-73.76" fill="none" stroke="rgb(255, 218, 185)" stroke-width="2" stroke-linejoin="round" filter="url(#fuzzy)" />
    </g>
    
        <g id="lineNose">
        <path d="M -11.45,7.45 Q 10.39, 9.855 -0.5299999999999994, -4.772" fill="none" stroke="black" stroke-width="3" stroke-linejoin="round" filter="url(#fuzzy)"></path>
        </g>
      
    <g id="mouth">
      <polyline points="-18.29,36.54 -18.05,36.1 -17.81,35.68 -17.57,35.27 -17.32,34.88 -17.07,34.5 -16.82,34.13 -16.56,33.78 -16.3,33.44 -16.04,33.11 -15.77,32.79 -15.49,32.49 -15.22,32.2 -14.94,31.92 -14.66,31.65 -14.37,31.39 -14.08,31.15 -13.78,30.91 -13.49,30.69 -13.18,30.48 -12.88,30.28 -12.57,30.09 -12.26,29.91 -11.94,29.74 -11.62,29.59 -11.3,29.44 -10.97,29.3 -10.64,29.17 -10.31,29.05 -9.97,28.95 -9.63,28.85 -9.28,28.76 -8.94,28.68 -8.58,28.61 -8.23,28.54 -7.87,28.49 -7.51,28.44 -7.14,28.41 -6.77,28.38 -6.4,28.36 -6.03,28.35 -5.65,28.34 -5.26,28.35 -4.88,28.36 -4.49,28.38 -4.1,28.4 -3.7,28.43 -3.3,28.47 -2.9,28.52 -2.49,28.57 -2.08,28.63 -1.67,28.7 -1.25,28.77 -0.83,28.85 -0.41,28.94 0.02,29.03 0.45,29.12 0.88,29.22 1.32,29.33 1.76,29.44 2.2,29.56 2.65,29.68 3.1,29.81 3.55,29.94 4,30.08 4.46,30.22 4.93,30.36 5.39,30.51 5.86,30.66 6.33,30.82 6.81,30.98 7.29,31.14 7.77,31.31 8.25,31.48 8.74,31.65 9.23,31.83 9.72,32 10.22,32.18 10.72,32.37 11.23,32.55 11.73,32.74 12.24,32.93 12.75,33.12 13.27,33.31 13.79,33.51 14.31,33.7 14.83,33.9 15.36,34.1 15.89,34.3 16.43,34.5 16.96,34.7 17.5,34.9 18.05,35.1 18.59,35.3 19.14,35.51 19.69,35.71 20.25,35.91 20.81,36.11 21.37,36.31 21.93,36.51 22.5,36.71 21.93,36.51 21.37,36.31 20.81,36.11 20.25,35.91 19.69,35.71 19.14,35.51 18.59,35.3 18.05,35.1 17.5,34.9 16.96,34.7 16.43,34.5 15.89,34.3 15.36,34.1 14.83,33.9 14.31,33.7 13.79,33.51 13.27,33.31 12.75,33.12 12.24,32.93 11.73,32.74 11.23,32.55 10.72,32.37 10.22,32.18 9.72,32 9.23,31.83 8.74,31.65 8.25,31.48 7.77,31.31 7.29,31.14 6.81,30.98 6.33,30.82 5.86,30.66 5.39,30.51 4.93,30.36 4.46,30.22 4,30.08 3.55,29.94 3.1,29.81 2.65,29.68 2.2,29.56 1.76,29.44 1.32,29.33 0.88,29.22 0.45,29.12 0.02,29.03 -0.41,28.94 -0.83,28.85 -1.25,28.77 -1.67,28.7 -2.08,28.63 -2.49,28.57 -2.9,28.52 -3.3,28.47 -3.7,28.43 -4.1,28.4 -4.49,28.38 -4.88,28.36 -5.26,28.35 -5.65,28.34 -6.03,28.35 -6.4,28.36 -6.77,28.38 -7.14,28.41 -7.51,28.44 -7.87,28.49 -8.23,28.54 -8.58,28.61 -8.94,28.68 -9.28,28.76 -9.63,28.85 -9.97,28.95 -10.31,29.05 -10.64,29.17 -10.97,29.3 -11.3,29.44 -11.62,29.59 -11.94,29.74 -12.26,29.91 -12.57,30.09 -12.88,30.28 -13.18,30.48 -13.49,30.69 -13.78,30.91 -14.08,31.15 -14.37,31.39 -14.66,31.65 -14.94,31.92 -15.22,32.2 -15.49,32.49 -15.77,32.79 -16.04,33.11 -16.3,33.44 -16.56,33.78 -16.82,34.13 -17.07,34.5 -17.32,34.88 -17.57,35.27 -17.81,35.68 -18.05,36.1" fill="rgb(215,127,140)" stroke="black" stroke-width="3" stroke-linejoin="round" filter="url(#fuzzy)" />
    </g>
  </svg>