<svg viewBox="-100 -100 200 200" xmlns="http://www.w3.org/2000/svg" width="500" height="500" id="face-svg">
    <defs>
      <clipPath id="leftEyeClipPath">
        <polyline points="32.59,-2.24 32.53,-2.46 32.43,-2.68 32.28,-2.9 32.09,-3.11 31.86,-3.33 31.58,-3.55 31.26,-3.77 30.9,-4 30.5,-4.22 30.06,-4.44 29.57,-4.66 29.05,-4.88 28.49,-5.1 27.9,-5.32 27.27,-5.54 26.71,-5.76 26.09,-5.99 25.41,-6.22 24.68,-6.45 23.88,-6.69 23.04,-6.93 22.14,-7.17 21.19,-7.41 20.2,-7.64 19.16,-7.87 18.09,-8.1 16.98,-8.33 15.84,-8.55 14.68,-8.76 13.49,-8.97 12.29,-9.17 11.07,-9.35 9.83,-9.53 8.59,-9.7 7.35,-9.86 6.1,-10 4.86,-10.13 3.62,-10.25 2.4,-10.35 1.18,-10.44 -0.01,-10.52 -1.19,-10.58 -2.35,-10.62 -3.49,-10.65 -4.6,-10.66 -5.68,-10.66 -6.74,-10.64 -7.76,-10.61 -8.75,-10.56 -9.71,-10.49 -10.63,-10.41 -11.52,-10.32 -12.38,-10.21 -13.2,-10.09 -13.98,-9.95 -14.72,-9.81 -15.44,-9.65 -16.11,-9.48 -16.76,-9.29 -17.37,-9.1 -17.95,-8.9 -18.5,-8.7 -19.02,-8.48 -19.52,-8.26 -19.99,-8.04 -20.44,-7.81 -20.86,-7.57 -21.26,-7.32 -21.63,-7.07 -21.98,-6.81 -22.3,-6.55 -22.61,-6.28 -22.89,-6.01 -23.16,-5.73 -23.4,-5.45 -23.63,-5.17 -23.84,-4.88 -24.03,-4.59 -24.21,-4.3 -23,3.74 -22.75,4.03 -22.49,4.32 -22.22,4.61 -21.93,4.89 -21.64,5.18 -21.33,5.47 -21.01,5.75 -20.67,6.03 -20.32,6.31 -19.96,6.59 -19.58,6.86 -19.19,7.13 -18.78,7.39 -18.35,7.64 -17.91,7.89 -17.46,8.14 -16.98,8.38 -16.49,8.62 -15.98,8.85 -15.45,9.07 -14.9,9.28 -14.32,9.48 -13.73,9.67 -13.11,9.85 -12.47,10.01 -11.81,10.15 -11.12,10.29 -10.41,10.4 -9.68,10.5 -8.92,10.58 -8.14,10.64 -7.34,10.68 -6.52,10.71 -5.68,10.71 -4.82,10.7 -3.94,10.66 -3.04,10.61 -2.12,10.54 -1.18,10.44 -0.23,10.33 0.73,10.2 1.71,10.05 2.69,9.88 3.69,9.7 4.7,9.5 5.71,9.29 6.73,9.06 7.75,8.81 8.77,8.56 9.79,8.29 10.8,8.01 11.82,7.72 12.82,7.43 13.82,7.12 14.8,6.82 15.78,6.5 16.74,6.19 17.68,5.87 18.6,5.56 19.51,5.24 20.39,4.93 21.24,4.62 22.08,4.32 22.88,4.02 23.63,3.74 24.36,3.46 25.07,3.19 25.77,2.91 26.45,2.64 27.1,2.36 27.74,2.09 28.36,1.83 28.95,1.56 29.52,1.3 30.06,1.05 30.58,0.79 31.07,0.54 31.54,0.3 31.98,0.06" />
      </clipPath>
      <clipPath id="rightEyeClipPath">
        <polyline points="-35.74,-0.62 -35.63,-0.82 -35.48,-1.03 -35.29,-1.23 -35.06,-1.45 -34.78,-1.66 -34.46,-1.88 -34.1,-2.11 -33.7,-2.34 -33.27,-2.57 -32.79,-2.81 -32.27,-3.05 -31.71,-3.29 -31.12,-3.54 -30.49,-3.79 -29.82,-4.04 -29.24,-4.28 -28.6,-4.53 -27.9,-4.79 -27.13,-5.06 -26.31,-5.33 -25.43,-5.62 -24.5,-5.91 -23.52,-6.2 -22.49,-6.5 -21.42,-6.8 -20.31,-7.1 -19.16,-7.4 -17.99,-7.69 -16.78,-7.98 -15.55,-8.27 -14.3,-8.54 -13.04,-8.81 -11.77,-9.07 -10.48,-9.31 -9.2,-9.55 -7.91,-9.77 -6.63,-9.97 -5.35,-10.16 -4.09,-10.33 -2.84,-10.49 -1.6,-10.63 -0.39,-10.74 0.81,-10.84 1.97,-10.92 3.11,-10.98 4.22,-11.02 5.3,-11.04 6.35,-11.03 7.37,-11.01 8.34,-10.97 9.29,-10.9 10.19,-10.82 11.06,-10.72 11.89,-10.6 12.68,-10.46 13.44,-10.31 14.16,-10.14 14.84,-9.95 15.48,-9.75 16.1,-9.54 16.68,-9.31 17.23,-9.07 17.75,-8.83 18.24,-8.58 18.7,-8.32 19.15,-8.05 19.56,-7.77 19.95,-7.48 20.31,-7.19 20.65,-6.88 20.97,-6.57 21.26,-6.26 21.53,-5.93 21.79,-5.61 22.02,-5.27 22.23,-4.93 22.42,-4.59 22.6,-4.25 22.76,-3.9 21.84,4.16 21.63,4.39 21.42,4.61 21.2,4.84 20.97,5.07 20.72,5.3 20.47,5.53 20.21,5.76 19.93,5.99 19.64,6.22 19.34,6.45 19.03,6.67 18.7,6.9 18.36,7.12 18,7.33 17.63,7.55 17.25,7.76 16.85,7.97 16.43,8.18 16,8.39 15.55,8.59 15.08,8.78 14.59,8.97 14.07,9.15 13.54,9.32 12.99,9.48 12.41,9.64 11.81,9.78 11.19,9.91 10.54,10.03 9.87,10.14 9.18,10.23 8.47,10.32 7.73,10.39 6.97,10.44 6.18,10.48 5.38,10.5 4.55,10.51 3.7,10.51 2.84,10.49 1.95,10.45 1.04,10.4 0.12,10.34 -0.83,10.26 -1.78,10.16 -2.76,10.05 -3.74,9.92 -4.74,9.79 -5.75,9.63 -6.76,9.47 -7.79,9.29 -8.82,9.1 -9.86,8.9 -10.89,8.69 -11.93,8.47 -12.97,8.24 -14.01,8 -15.04,7.75 -16.07,7.5 -17.08,7.24 -18.09,6.98 -19.08,6.72 -20.07,6.45 -21.03,6.18 -21.98,5.92 -22.81,5.69 -23.64,5.47 -24.45,5.24 -25.25,5.01 -26.03,4.78 -26.8,4.56 -27.55,4.33 -28.29,4.1 -29,3.88 -29.7,3.66 -30.37,3.44 -31.02,3.22 -31.64,3.01 -32.24,2.8 -32.81,2.6" />
      </clipPath>
      <filter id="fuzzy">
        <feTurbulence id="turbulence" baseFrequency="0.05" numOctaves="3" type="noise" result="noise" />
        <feDisplacementMap in="SourceGraphic" in2="noise" scale="2" />
      </filter>
      <linearGradient id="rainbowGradient" x1="0%" y1="0%" x2="100%" y2="0%">
        <stop offset="0%" style="stop-color: [object Object]; stop-opacity: 1" />
        <stop offset="50%" style="stop-color: [object Object]; stop-opacity: 1" />
        <stop offset="100%" style="stop-color: [object Object]; stop-opacity: 1" />
      </linearGradient>
    </defs>
    <rect x="-100" y="-100" width="100%" height="100%" fill="rgb(255, 253, 208)" />
    <polyline id="faceContour" points="68.01,1.62 67.89,1.67 68.13,2.44 67.98,4.66 67.92,4.01 67.89,4.85 67.8,5.85 67.48,8.38 67.57,9.04 67.27,11.4 67.34,11.35 67.05,11.9 66.85,13.81 66.93,13.48 66.45,15.41 66.22,16.49 65.74,17.74 65.54,19.04 65.62,19.19 64.68,21.8 64.9,21.06 64.47,23.35 63.94,24.21 64.12,24.13 63.45,25.47 62.62,27.65 62.62,28.32 61.57,30.3 61.91,29.47 61.05,32.02 60.33,33.15 60.18,33.17 59.52,34.89 59.12,35.67 59.16,35.52 57.62,38.28 57.4,38.29 57.88,37.74 55.24,41.87 55.67,41.65 55.08,42.35 54.54,43.24 53.91,43.67 52.4,45.73 52.17,45.9 51.41,46.78 51.35,47.19 49.9,48.68 48.77,49.91 49.16,49.67 48.11,50.6 47.72,51.15 46.52,52.14 46.28,52.66 44.8,54.22 43.12,55.66 42.06,56.53 43.23,55.74 41.62,56.85 40.76,57.54 39.56,58.39 38.38,59.04 39.01,58.81 37.1,60.13 36.09,60.72 36.99,60.27 34.37,62.06 33.76,62.49 33.36,62.41 32.06,63.18 30.87,63.99 30.24,64.19 28.53,65.1 28.58,65.06 28.05,65.52 24.29,67.15 23.2,67.44 24.53,66.78 22.8,67.81 22.04,68.05 21.06,68.22 20.02,68.67 17.51,69.58 18.21,69.01 16.71,69.48 16.01,69.92 13.32,70.34 13.57,70.2 14.18,70.37 11.98,70.65 12.34,70.63 9.01,71.07 9.8,71.19 5.76,71.41 6.01,71.51 5.86,71.68 4.5,71.51 4.72,71.57 1.43,71.92 2.11,71.88 -1.18,71.92 -1.35,71.79 -1.49,71.73 -4.16,71.68 -4.08,71.64 -4.96,71.64 -7.77,71.34 -7.18,71.36 -8.68,71.25 -8.89,71.24 -11.4,70.72 -11.25,70.64 -11.77,70.72 -13.19,70.5 -15.17,70 -16.02,69.65 -15.99,69.77 -17.49,69.35 -20.48,68.47 -19.76,68.85 -21.26,68.28 -22.86,67.57 -21.6,68.24 -23.47,67.56 -24.53,67.03 -25.8,66.19 -28.05,65.3 -27.76,65.61 -27.75,65.64 -28.49,65.02 -31.7,63.78 -32.45,62.91 -32.95,62.73 -33.37,62.68 -34.16,61.93 -35.06,61.57 -36.28,60.93 -36.2,60.88 -38.09,59.46 -39.79,58.34 -39.3,58.72 -40.14,57.77 -41.57,57.08 -43.4,55.04 -42.72,55.78 -44.56,54.19 -44.7,54.2 -45.85,53.05 -47.67,50.91 -48.07,50.74 -48.72,50.01 -49.59,49.28 -48.96,50.03 -50.33,48.39 -50.77,47.77 -52.22,46.05 -52.08,45.89 -53.5,44.71 -53.41,44.37 -54.37,42.83 -55.99,41.09 -55.76,41.33 -56.25,40.44 -56.54,39.62 -57.4,38.28 -58.41,36.97 -58.72,36.29 -59.48,34.88 -59.77,34.73 -59.87,34.05 -60.77,32.16 -60.9,31.81 -60.98,31.64 -61.87,30.02 -62.35,28.8 -62.97,26.69 -63.12,26.26 -63.65,25.14 -63.79,24.79 -64.53,22.76 -64.84,22.16 -65.4,20.24 -65.73,18.32 -65.22,20.4 -66.07,16.54 -66.23,15.63 -66.65,15.12 -66.64,14.38 -67.29,11.84 -67.26,11.33 -67,11.98 -67.52,9.95 -67.65,8.32 -67.54,8.18 -67.75,6.65 -67.68,5.93 -67.96,4.19 -67.94,3.38 -67.89,2.82 -67.87,1.33 -67.88,-0.41 -68.04,-2.35 -68,-3.36 -67.96,-4.28 -67.83,-4.63 -67.98,-4.97 -67.79,-5.25 -67.59,-7.73 -67.68,-8.81 -67.27,-10.95 -67.01,-11.44 -66.82,-13.44 -66.9,-13.82 -66.6,-15.37 -66.22,-16.43 -66.09,-17.39 -65.79,-18.05 -65.53,-18.58 -65.25,-20.31 -65.54,-19.5 -64.77,-22.59 -63.77,-24.66 -63.7,-25.2 -64.5,-23.24 -63.68,-25.18 -63.09,-26.83 -62.5,-28.91 -62.14,-28.84 -61.22,-30.94 -60.88,-32.18 -61.23,-31.2 -61.04,-31.92 -60.1,-33.82 -59.66,-34.78 -58.71,-35.84 -57.98,-37.95 -57.87,-38.01 -56.94,-39.52 -56.02,-40.57 -55.34,-41.6 -54.41,-43.23 -54.08,-43.78 -52.94,-45.27 -52.61,-45.72 -52.7,-45.18 -52.23,-46.01 -51.13,-47.62 -49.52,-49.1 -49.14,-49.43 -49.76,-49.08 -47.25,-51.75 -47.04,-52.03 -46.69,-52.17 -45.71,-53.28 -44.04,-54.62 -44.51,-54.22 -44.33,-54.51 -41.9,-56.51 -42.1,-56.41 -42.14,-56.54 -41.02,-57.59 -38.51,-59.1 -39.14,-58.75 -38.01,-59.71 -37.36,-60.22 -35.12,-61.5 -35.53,-61.31 -33.82,-62.41 -33.05,-62.89 -32.69,-63.03 -31.5,-63.66 -30.75,-64.17 -28.09,-65.57 -29.29,-64.69 -28.36,-65.29 -25.84,-66.23 -24.23,-67.14 -23.16,-67.6 -23.54,-67.28 -20.46,-68.38 -20.94,-68.46 -19.45,-68.72 -19.02,-68.85 -18.13,-69.14 -16.47,-69.79 -15.39,-70.09 -15.72,-70.01 -12.7,-70.5 -13.2,-70.29 -12.68,-70.57 -10.87,-70.8 -10.18,-70.98 -8.1,-71.38 -6.83,-71.61 -7.2,-71.49 -5.74,-71.42 -5.29,-71.44 -2.82,-71.89 -3.07,-71.71 -0.97,-71.77 -0.36,-71.85 1.55,-71.71 2.84,-71.68 2.57,-71.69 3.78,-71.55 6.33,-71.38 6.47,-71.34 9.63,-71.14 9.48,-71.02 9.13,-71.03 12.03,-70.68 11.47,-70.83 13.32,-70.35 12.64,-70.47 15.73,-69.88 15.13,-70.12 18.06,-69.33 18.57,-69.03 19.79,-68.92 19.82,-68.8 20.94,-68.32 23.09,-67.42 24.12,-67.21 23.22,-67.51 24.52,-66.93 26.7,-66.14 27.63,-65.48 28.26,-65.29 28.49,-65.1 29.87,-64.5 31.46,-63.66 32.43,-63.07 31.68,-63.58 33.24,-62.76 35.8,-60.96 35.5,-61.37 37.41,-60 37.45,-59.88 37.22,-60.12 39.78,-58.16 39.8,-58.32 41.06,-57.49 40.81,-57.37 43.32,-55.44 43.58,-54.96 44.41,-54.43 44.7,-54.07 45.83,-53.06 46.38,-52.33 48.21,-50.71 48.46,-50.37 47.97,-50.67 49.52,-49.07 51.16,-47.57 51.88,-46.24 52.22,-46.19 52.58,-45.39 53.82,-43.94 52.94,-44.88 54.03,-43.3 54.83,-42.11 55.06,-42.1 55.96,-40.96 56.43,-39.99 57.79,-37.88 58.19,-37.57 58.07,-37.32 58.79,-35.89 59.7,-34.18 60.75,-32.47 60.47,-33.28 61.55,-30.96 61.29,-31.36 61.41,-30.92 62.89,-27.56 62.85,-27.82 63.02,-26.92 63.94,-24.82 63.6,-24.97 63.95,-23.91 64.52,-23.03 65.59,-19.63 64.95,-21.34 65.81,-18.04 66.25,-16.36 66.21,-15.6 66.29,-15.97 66.49,-14.62 66.55,-14.4 67.03,-12.57 67.03,-11.24 67.46,-10.29 67.42,-9.44 67.59,-8.32 67.68,-6.8 68.02,-3.66 67.87,-2.98 68.09,-2.08 67.84,-1.86 67.87,-3.03 68.01,1.62 67.89,1.67" fill="rgb(226, 114, 91)" stroke="black" stroke-width="1.6666666666666665" stroke-linejoin="round" filter="url(#fuzzy)" />
    <g transform="translate(24.89 -21.630000000000003)">
      <polyline id="rightCountour" points="-35.74,-0.62 -35.63,-0.82 -35.48,-1.03 -35.29,-1.23 -35.06,-1.45 -34.78,-1.66 -34.46,-1.88 -34.1,-2.11 -33.7,-2.34 -33.27,-2.57 -32.79,-2.81 -32.27,-3.05 -31.71,-3.29 -31.12,-3.54 -30.49,-3.79 -29.82,-4.04 -29.24,-4.28 -28.6,-4.53 -27.9,-4.79 -27.13,-5.06 -26.31,-5.33 -25.43,-5.62 -24.5,-5.91 -23.52,-6.2 -22.49,-6.5 -21.42,-6.8 -20.31,-7.1 -19.16,-7.4 -17.99,-7.69 -16.78,-7.98 -15.55,-8.27 -14.3,-8.54 -13.04,-8.81 -11.77,-9.07 -10.48,-9.31 -9.2,-9.55 -7.91,-9.77 -6.63,-9.97 -5.35,-10.16 -4.09,-10.33 -2.84,-10.49 -1.6,-10.63 -0.39,-10.74 0.81,-10.84 1.97,-10.92 3.11,-10.98 4.22,-11.02 5.3,-11.04 6.35,-11.03 7.37,-11.01 8.34,-10.97 9.29,-10.9 10.19,-10.82 11.06,-10.72 11.89,-10.6 12.68,-10.46 13.44,-10.31 14.16,-10.14 14.84,-9.95 15.48,-9.75 16.1,-9.54 16.68,-9.31 17.23,-9.07 17.75,-8.83 18.24,-8.58 18.7,-8.32 19.15,-8.05 19.56,-7.77 19.95,-7.48 20.31,-7.19 20.65,-6.88 20.97,-6.57 21.26,-6.26 21.53,-5.93 21.79,-5.61 22.02,-5.27 22.23,-4.93 22.42,-4.59 22.6,-4.25 22.76,-3.9 21.84,4.16 21.63,4.39 21.42,4.61 21.2,4.84 20.97,5.07 20.72,5.3 20.47,5.53 20.21,5.76 19.93,5.99 19.64,6.22 19.34,6.45 19.03,6.67 18.7,6.9 18.36,7.12 18,7.33 17.63,7.55 17.25,7.76 16.85,7.97 16.43,8.18 16,8.39 15.55,8.59 15.08,8.78 14.59,8.97 14.07,9.15 13.54,9.32 12.99,9.48 12.41,9.64 11.81,9.78 11.19,9.91 10.54,10.03 9.87,10.14 9.18,10.23 8.47,10.32 7.73,10.39 6.97,10.44 6.18,10.48 5.38,10.5 4.55,10.51 3.7,10.51 2.84,10.49 1.95,10.45 1.04,10.4 0.12,10.34 -0.83,10.26 -1.78,10.16 -2.76,10.05 -3.74,9.92 -4.74,9.79 -5.75,9.63 -6.76,9.47 -7.79,9.29 -8.82,9.1 -9.86,8.9 -10.89,8.69 -11.93,8.47 -12.97,8.24 -14.01,8 -15.04,7.75 -16.07,7.5 -17.08,7.24 -18.09,6.98 -19.08,6.72 -20.07,6.45 -21.03,6.18 -21.98,5.92 -22.81,5.69 -23.64,5.47 -24.45,5.24 -25.25,5.01 -26.03,4.78 -26.8,4.56 -27.55,4.33 -28.29,4.1 -29,3.88 -29.7,3.66 -30.37,3.44 -31.02,3.22 -31.64,3.01 -32.24,2.8 -32.81,2.6" fill="white" stroke="white" stroke-width="0" stroke-linejoin="round" filter="url(#fuzzy)" />
    </g>
    <g transform="translate(-28.330000000000002 -20.53)">
      <polyline id="leftCountour" points="32.59,-2.24 32.53,-2.46 32.43,-2.68 32.28,-2.9 32.09,-3.11 31.86,-3.33 31.58,-3.55 31.26,-3.77 30.9,-4 30.5,-4.22 30.06,-4.44 29.57,-4.66 29.05,-4.88 28.49,-5.1 27.9,-5.32 27.27,-5.54 26.71,-5.76 26.09,-5.99 25.41,-6.22 24.68,-6.45 23.88,-6.69 23.04,-6.93 22.14,-7.17 21.19,-7.41 20.2,-7.64 19.16,-7.87 18.09,-8.1 16.98,-8.33 15.84,-8.55 14.68,-8.76 13.49,-8.97 12.29,-9.17 11.07,-9.35 9.83,-9.53 8.59,-9.7 7.35,-9.86 6.1,-10 4.86,-10.13 3.62,-10.25 2.4,-10.35 1.18,-10.44 -0.01,-10.52 -1.19,-10.58 -2.35,-10.62 -3.49,-10.65 -4.6,-10.66 -5.68,-10.66 -6.74,-10.64 -7.76,-10.61 -8.75,-10.56 -9.71,-10.49 -10.63,-10.41 -11.52,-10.32 -12.38,-10.21 -13.2,-10.09 -13.98,-9.95 -14.72,-9.81 -15.44,-9.65 -16.11,-9.48 -16.76,-9.29 -17.37,-9.1 -17.95,-8.9 -18.5,-8.7 -19.02,-8.48 -19.52,-8.26 -19.99,-8.04 -20.44,-7.81 -20.86,-7.57 -21.26,-7.32 -21.63,-7.07 -21.98,-6.81 -22.3,-6.55 -22.61,-6.28 -22.89,-6.01 -23.16,-5.73 -23.4,-5.45 -23.63,-5.17 -23.84,-4.88 -24.03,-4.59 -24.21,-4.3 -23,3.74 -22.75,4.03 -22.49,4.32 -22.22,4.61 -21.93,4.89 -21.64,5.18 -21.33,5.47 -21.01,5.75 -20.67,6.03 -20.32,6.31 -19.96,6.59 -19.58,6.86 -19.19,7.13 -18.78,7.39 -18.35,7.64 -17.91,7.89 -17.46,8.14 -16.98,8.38 -16.49,8.62 -15.98,8.85 -15.45,9.07 -14.9,9.28 -14.32,9.48 -13.73,9.67 -13.11,9.85 -12.47,10.01 -11.81,10.15 -11.12,10.29 -10.41,10.4 -9.68,10.5 -8.92,10.58 -8.14,10.64 -7.34,10.68 -6.52,10.71 -5.68,10.71 -4.82,10.7 -3.94,10.66 -3.04,10.61 -2.12,10.54 -1.18,10.44 -0.23,10.33 0.73,10.2 1.71,10.05 2.69,9.88 3.69,9.7 4.7,9.5 5.71,9.29 6.73,9.06 7.75,8.81 8.77,8.56 9.79,8.29 10.8,8.01 11.82,7.72 12.82,7.43 13.82,7.12 14.8,6.82 15.78,6.5 16.74,6.19 17.68,5.87 18.6,5.56 19.51,5.24 20.39,4.93 21.24,4.62 22.08,4.32 22.88,4.02 23.63,3.74 24.36,3.46 25.07,3.19 25.77,2.91 26.45,2.64 27.1,2.36 27.74,2.09 28.36,1.83 28.95,1.56 29.52,1.3 30.06,1.05 30.58,0.79 31.07,0.54 31.54,0.3 31.98,0.06" fill="white" stroke="white" stroke-width="0" stroke-linejoin="round" filter="url(#fuzzy)" />
    </g>
    <g transform="translate(24.89 -21.630000000000003)">
      <polyline id="rightUpper" points="-34.69,1.26 -34.95,1.07 -35.19,0.89 -35.39,0.7 -35.55,0.52 -35.68,0.34 -35.77,0.15 -35.83,-0.04 -35.84,-0.23 -35.81,-0.42 -35.74,-0.62 -35.63,-0.82 -35.48,-1.03 -35.29,-1.23 -35.06,-1.45 -34.78,-1.66 -34.46,-1.88 -34.1,-2.11 -33.7,-2.34 -33.27,-2.57 -32.79,-2.81 -32.27,-3.05 -31.71,-3.29 -31.12,-3.54 -30.49,-3.79 -29.82,-4.04 -29.24,-4.28 -28.6,-4.53 -27.9,-4.79 -27.13,-5.06 -26.31,-5.33 -25.43,-5.62 -24.5,-5.91 -23.52,-6.2 -22.49,-6.5 -21.42,-6.8 -20.31,-7.1 -19.16,-7.4 -17.99,-7.69 -16.78,-7.98 -15.55,-8.27 -14.3,-8.54 -13.04,-8.81 -11.77,-9.07 -10.48,-9.31 -9.2,-9.55 -7.91,-9.77 -6.63,-9.97 -5.35,-10.16 -4.09,-10.33 -2.84,-10.49 -1.6,-10.63 -0.39,-10.74 0.81,-10.84 1.97,-10.92 3.11,-10.98 4.22,-11.02 5.3,-11.04 6.35,-11.03 7.37,-11.01 8.34,-10.97 9.29,-10.9 10.19,-10.82 11.06,-10.72 11.89,-10.6 12.68,-10.46 13.44,-10.31 14.16,-10.14 14.84,-9.95 15.48,-9.75 16.1,-9.54 16.68,-9.31 17.23,-9.07 17.75,-8.83 18.24,-8.58 18.7,-8.32 19.15,-8.05 19.56,-7.77 19.95,-7.48 20.31,-7.19 20.65,-6.88 20.97,-6.57 21.26,-6.26 21.53,-5.93 21.79,-5.61 22.02,-5.27 22.23,-4.93 22.42,-4.59 22.6,-4.25 22.76,-3.9 22.91,-3.55 23.04,-3.19 23.15,-2.84 23.26,-2.49 23.35,-2.13 23.43,-1.77 23.49,-1.41 23.55,-1.06 23.6,-0.7 23.63,-0.34" fill="none" stroke="black" stroke-width="1.6666666666666665" stroke-linejoin="round" filter="url(#fuzzy)" />
      <polyline id="rightLower" points="-36.73,0.94 -36.51,1.07 -36.25,1.21 -35.94,1.35 -35.6,1.51 -35.22,1.67 -34.8,1.84 -34.35,2.02 -33.87,2.21 -33.36,2.4 -32.81,2.6 -32.24,2.8 -31.64,3.01 -31.02,3.22 -30.37,3.44 -29.7,3.66 -29,3.88 -28.29,4.1 -27.55,4.33 -26.8,4.56 -26.03,4.78 -25.25,5.01 -24.45,5.24 -23.64,5.47 -22.81,5.69 -21.98,5.92 -21.03,6.18 -20.07,6.45 -19.08,6.72 -18.09,6.98 -17.08,7.24 -16.07,7.5 -15.04,7.75 -14.01,8 -12.97,8.24 -11.93,8.47 -10.89,8.69 -9.86,8.9 -8.82,9.1 -7.79,9.29 -6.76,9.47 -5.75,9.63 -4.74,9.79 -3.74,9.92 -2.76,10.05 -1.78,10.16 -0.83,10.26 0.12,10.34 1.04,10.4 1.95,10.45 2.84,10.49 3.7,10.51 4.55,10.51 5.38,10.5 6.18,10.48 6.97,10.44 7.73,10.39 8.47,10.32 9.18,10.23 9.87,10.14 10.54,10.03 11.19,9.91 11.81,9.78 12.41,9.64 12.99,9.48 13.54,9.32 14.07,9.15 14.59,8.97 15.08,8.78 15.55,8.59 16,8.39 16.43,8.18 16.85,7.97 17.25,7.76 17.63,7.55 18,7.33 18.36,7.12 18.7,6.9 19.03,6.67 19.34,6.45 19.64,6.22 19.93,5.99 20.21,5.76 20.47,5.53 20.72,5.3 20.97,5.07 21.2,4.84 21.42,4.61 21.63,4.39 21.84,4.16 22.03,3.93 22.22,3.71 22.39,3.49 22.56,3.27 22.73,3.05 22.88,2.84 23.03,2.63 23.17,2.42 23.3,2.21 23.43,2.01" fill="none" stroke="black" stroke-width="2.2222222222222223" stroke-linejoin="round" filter="url(#fuzzy)" />
      <circle r="4.422" cx="1.9236820811682707" cy="5.832346667253885" stroke="black" fill="none" stroke-width="1.0" filter="url(#fuzzy)" clip-path="url(#rightEyeClipPath)" /><circle r="4.182" cx="1.3786820811682707" cy="3.8623466672538846" stroke="black" fill="none" stroke-width="1.0" filter="url(#fuzzy)" clip-path="url(#rightEyeClipPath)" /><circle r="4.704" cx="2.32368208116827" cy="5.222346667253886" stroke="black" fill="none" stroke-width="1.0" filter="url(#fuzzy)" clip-path="url(#rightEyeClipPath)" /><circle r="3.592" cx="3.123682081168271" cy="2.647346667253885" stroke="black" fill="none" stroke-width="1.0" filter="url(#fuzzy)" clip-path="url(#rightEyeClipPath)" /><circle r="4.9399999999999995" cx="3.1386820811682705" cy="6.337346667253886" stroke="black" fill="none" stroke-width="1.0" filter="url(#fuzzy)" clip-path="url(#rightEyeClipPath)" /><circle r="3.426" cx="3.7536820811682707" cy="3.047346667253885" stroke="black" fill="none" stroke-width="1.0" filter="url(#fuzzy)" clip-path="url(#rightEyeClipPath)" /><circle r="3.336" cx="4.10368208116827" cy="3.1073466672538856" stroke="black" fill="none" stroke-width="1.0" filter="url(#fuzzy)" clip-path="url(#rightEyeClipPath)" /><circle r="3.7199999999999998" cx="4.81368208116827" cy="4.367346667253885" stroke="black" fill="none" stroke-width="1.0" filter="url(#fuzzy)" clip-path="url(#rightEyeClipPath)" /><circle r="4.594" cx="4.968682081168271" cy="2.2423466672538854" stroke="black" fill="none" stroke-width="1.0" filter="url(#fuzzy)" clip-path="url(#rightEyeClipPath)" /><circle r="3.004" cx="4.64368208116827" cy="5.5723466672538855" stroke="black" fill="none" stroke-width="1.0" filter="url(#fuzzy)" clip-path="url(#rightEyeClipPath)" />
      </g>
    <g transform="translate(-28.330000000000002 -20.53)">
      <polyline id="leftUpper" points="30.83,-0.02 31.18,-0.25 31.51,-0.48 31.79,-0.7 32.03,-0.92 32.23,-1.14 32.39,-1.36 32.5,-1.58 32.58,-1.8 32.6,-2.02 32.59,-2.24 32.53,-2.46 32.43,-2.68 32.28,-2.9 32.09,-3.11 31.86,-3.33 31.58,-3.55 31.26,-3.77 30.9,-4 30.5,-4.22 30.06,-4.44 29.57,-4.66 29.05,-4.88 28.49,-5.1 27.9,-5.32 27.27,-5.54 26.71,-5.76 26.09,-5.99 25.41,-6.22 24.68,-6.45 23.88,-6.69 23.04,-6.93 22.14,-7.17 21.19,-7.41 20.2,-7.64 19.16,-7.87 18.09,-8.1 16.98,-8.33 15.84,-8.55 14.68,-8.76 13.49,-8.97 12.29,-9.17 11.07,-9.35 9.83,-9.53 8.59,-9.7 7.35,-9.86 6.1,-10 4.86,-10.13 3.62,-10.25 2.4,-10.35 1.18,-10.44 -0.01,-10.52 -1.19,-10.58 -2.35,-10.62 -3.49,-10.65 -4.6,-10.66 -5.68,-10.66 -6.74,-10.64 -7.76,-10.61 -8.75,-10.56 -9.71,-10.49 -10.63,-10.41 -11.52,-10.32 -12.38,-10.21 -13.2,-10.09 -13.98,-9.95 -14.72,-9.81 -15.44,-9.65 -16.11,-9.48 -16.76,-9.29 -17.37,-9.1 -17.95,-8.9 -18.5,-8.7 -19.02,-8.48 -19.52,-8.26 -19.99,-8.04 -20.44,-7.81 -20.86,-7.57 -21.26,-7.32 -21.63,-7.07 -21.98,-6.81 -22.3,-6.55 -22.61,-6.28 -22.89,-6.01 -23.16,-5.73 -23.4,-5.45 -23.63,-5.17 -23.84,-4.88 -24.03,-4.59 -24.21,-4.3 -24.37,-4 -24.51,-3.7 -24.65,-3.41 -24.77,-3.11 -24.87,-2.81 -24.97,-2.5 -25.05,-2.2 -25.12,-1.9 -25.19,-1.6 -25.24,-1.3" fill="none" stroke="black" stroke-width="2.2222222222222223" stroke-linejoin="round" filter="url(#fuzzy)" />
      <polyline id="leftLower" points="34.64,-2.04 34.53,-1.86 34.38,-1.66 34.19,-1.47 33.97,-1.26 33.72,-1.06 33.43,-0.84 33.12,-0.63 32.77,-0.4 32.39,-0.17 31.98,0.06 31.54,0.3 31.07,0.54 30.58,0.79 30.06,1.05 29.52,1.3 28.95,1.56 28.36,1.83 27.74,2.09 27.1,2.36 26.45,2.64 25.77,2.91 25.07,3.19 24.36,3.46 23.63,3.74 22.88,4.02 22.08,4.32 21.24,4.62 20.39,4.93 19.51,5.24 18.6,5.56 17.68,5.87 16.74,6.19 15.78,6.5 14.8,6.82 13.82,7.12 12.82,7.43 11.82,7.72 10.8,8.01 9.79,8.29 8.77,8.56 7.75,8.81 6.73,9.06 5.71,9.29 4.7,9.5 3.69,9.7 2.69,9.88 1.71,10.05 0.73,10.2 -0.23,10.33 -1.18,10.44 -2.12,10.54 -3.04,10.61 -3.94,10.66 -4.82,10.7 -5.68,10.71 -6.52,10.71 -7.34,10.68 -8.14,10.64 -8.92,10.58 -9.68,10.5 -10.41,10.4 -11.12,10.29 -11.81,10.15 -12.47,10.01 -13.11,9.85 -13.73,9.67 -14.32,9.48 -14.9,9.28 -15.45,9.07 -15.98,8.85 -16.49,8.62 -16.98,8.38 -17.46,8.14 -17.91,7.89 -18.35,7.64 -18.78,7.39 -19.19,7.13 -19.58,6.86 -19.96,6.59 -20.32,6.31 -20.67,6.03 -21.01,5.75 -21.33,5.47 -21.64,5.18 -21.93,4.89 -22.22,4.61 -22.49,4.32 -22.75,4.03 -23,3.74 -23.24,3.45 -23.47,3.17 -23.69,2.88 -23.9,2.6 -24.1,2.32 -24.3,2.05 -24.48,1.77 -24.66,1.5 -24.82,1.23 -24.98,0.97" fill="none" stroke="black" stroke-width="2.2222222222222223" stroke-linejoin="round" filter="url(#fuzzy)" />
      <circle r="4.274" cx="14.94308952526329" cy="-2.777016088225227" stroke="black" fill="none" stroke-width="1.0" filter="url(#fuzzy)" clip-path="url(#leftEyeClipPath)" /><circle r="3.7560000000000002" cx="11.258089525263287" cy="0.9129839117747736" stroke="black" fill="none" stroke-width="1.0" filter="url(#fuzzy)" clip-path="url(#leftEyeClipPath)" /><circle r="3.7880000000000003" cx="13.933089525263288" cy="-0.5870160882252269" stroke="black" fill="none" stroke-width="1.0" filter="url(#fuzzy)" clip-path="url(#leftEyeClipPath)" /><circle r="3.526" cx="10.938089525263287" cy="1.6829839117747731" stroke="black" fill="none" stroke-width="1.0" filter="url(#fuzzy)" clip-path="url(#leftEyeClipPath)" /><circle r="4.632" cx="13.648089525263288" cy="-1.0420160882252265" stroke="black" fill="none" stroke-width="1.0" filter="url(#fuzzy)" clip-path="url(#leftEyeClipPath)" /><circle r="4.82" cx="11.523089525263288" cy="0.4929839117747732" stroke="black" fill="none" stroke-width="1.0" filter="url(#fuzzy)" clip-path="url(#leftEyeClipPath)" /><circle r="4.588" cx="12.748089525263287" cy="-2.362016088225227" stroke="black" fill="none" stroke-width="1.0" filter="url(#fuzzy)" clip-path="url(#leftEyeClipPath)" /><circle r="3.368" cx="13.733089525263289" cy="0.36298391177477374" stroke="black" fill="none" stroke-width="1.0" filter="url(#fuzzy)" clip-path="url(#leftEyeClipPath)" /><circle r="3.542" cx="10.733089525263287" cy="-0.6220160882252266" stroke="black" fill="none" stroke-width="1.0" filter="url(#fuzzy)" clip-path="url(#leftEyeClipPath)" /><circle r="3.226" cx="12.733089525263289" cy="0.002983911774773418" stroke="black" fill="none" stroke-width="1.0" filter="url(#fuzzy)" clip-path="url(#leftEyeClipPath)" />
    </g>
    <g id="hairs">
      <polyline points="32.43,-63.07 36.31,-51.29 26.21,-56.75 20.15,-61.26 19.6,-61.35 22.59,-58.11 25.62,-53.96 25.77,-50.99 22.73,-50.22 18.47,-51.48 14.36,-53.76 8.69,-55.98 -1.79,-57.78 -15.25,-60.07 -20.41,-64.77 -10.18,-70.98" fill="none" stroke="rgb(0, 0, 0)" stroke-width="2" stroke-linejoin="round" filter="url(#fuzzy)" /><polyline points="33.24,-62.76 38.05,-52.81 23.56,-49.85 10.83,-50.59 9.69,-51.57 15.84,-51.54 20.91,-50.75 19.37,-50.04 10.45,-50.06 -2.84,-50.89 -15.91,-52.18 -24.74,-53.47 -27.27,-54.49 -23.84,-55.27 -17.02,-56.03 -10.61,-57.1 -8.17,-58.79 -11.43,-60.9 -20.09,-62.06 -32.84,-59.54 -49.14,-49.43" fill="none" stroke="rgb(0, 0, 0)" stroke-width="2" stroke-linejoin="round" filter="url(#fuzzy)" /><polyline points="60.75,-32.47 -1.26,-47.94 -12.41,-57.12 -7.12,-59.46 2.08,-57.7 9.96,-54.92 15.06,-52.83 17.97,-51.68 19.64,-50.88 20.45,-49.94 20.39,-48.81 19.46,-47.89 17.92,-47.61 16.29,-48 15.07,-48.73 14.25,-49.37 13,-49.87 10.4,-50.62 7.21,-51.78 6.8,-52.36 12.72,-50.28 21.43,-44.79 12.83,-40.3 -54.08,-43.78" fill="none" stroke="rgb(0, 0, 0)" stroke-width="2" stroke-linejoin="round" filter="url(#fuzzy)" /><polyline points="-54.08,-43.78 -37.56,-52.14 -13.2,-56.49 5.91,-57.38 16.61,-56.44 19.6,-55.36 16.98,-55.57 11.68,-57.28 5.94,-59.41 0.15,-60.56 -6.13,-60.19 -12.1,-58.99 -15.48,-58.35 -15.06,-59.44 -12.14,-62.63 -6.51,-67.66 2.57,-71.69" fill="none" stroke="rgb(0, 0, 0)" stroke-width="2" stroke-linejoin="round" filter="url(#fuzzy)" /><polyline points="2.84,-71.68 -3.44,-63.92 -15.29,-57.29 -14.93,-55.64 -8.32,-56.71 -0.79,-57.53 6.48,-56.71 13.54,-54.72 19.79,-52.95 24.29,-52.39 26.64,-53.03 27.18,-54.23 26.54,-55.24 25.29,-55.51 23.87,-54.61 22.9,-52.33 25.31,-48.63 39.07,-42.62 60.47,-33.28" fill="none" stroke="rgb(0, 0, 0)" stroke-width="2" stroke-linejoin="round" filter="url(#fuzzy)" /><polyline points="35.8,-60.96 -1.27,-64.16 -7.07,-66.45 -3.42,-67.25 -0.12,-67.11 -1.17,-65.98 -5.63,-63.74 -9.98,-60.68 -11.07,-57.6 -8.35,-55.43 -3.87,-54.68 -0.71,-55.11 -1.05,-55.91 -5.02,-56.28 -10.71,-56.08 -14.28,-55.88 -10.25,-56.25 6.19,-56.41 31.9,-54.35 44.7,-54.07" fill="none" stroke="rgb(0, 0, 0)" stroke-width="2" stroke-linejoin="round" filter="url(#fuzzy)" /><polyline points="47.97,-50.67 20.72,-61.72 16.54,-60.18 18.87,-55.34 17.55,-52.74 13.13,-53.31 8.91,-55.43 5.74,-57.21 1.99,-57.65 -3.58,-56.86 -9.43,-55.87 -12.01,-56.07 -9.99,-58.12 -7.84,-60.7 -14.74,-59.65 -51.13,-47.62" fill="none" stroke="rgb(0, 0, 0)" stroke-width="2" stroke-linejoin="round" filter="url(#fuzzy)" /><polyline points="-28.36,-65.29 -14.34,-60.87 5.98,-59.66 11.92,-60.76 8.49,-62.66 4.03,-64.02 2.32,-63.95 2.62,-62.38 2.39,-60.17 -0.28,-58.75 -5.35,-59.09 -10.86,-60.91 -13.83,-62.96 -11.36,-64.02 -1.36,-63.52 16.19,-60.89 37.32,-53.74 58.79,-35.89" fill="none" stroke="rgb(0, 0, 0)" stroke-width="2" stroke-linejoin="round" filter="url(#fuzzy)" /><polyline points="12.64,-70.47 13.97,-59.61 4.86,-59.01 4.06,-62.09 7.51,-64.26 10.31,-64.1 9.42,-62.29 4.72,-60.23 -0.56,-58.86 -1.85,-58.12 3.3,-57.18 12.74,-55.59 19.88,-54.72 16.2,-57.55 -2.6,-64.47 -23.54,-67.28" fill="none" stroke="rgb(0, 0, 0)" stroke-width="2" stroke-linejoin="round" filter="url(#fuzzy)" /><polyline points="-32.69,-63.03 -6.46,-60.64 2.1,-57.51 8.3,-57.75 10.34,-59.88 8.66,-62.17 5.05,-64.07 0.98,-65.6 -2.82,-66.78 -6.12,-67.5 -8.82,-67.58 -10.6,-66.91 -10.98,-65.46 -9.59,-63.29 -6.61,-60.58 -3.13,-57.67 -0.86,-55.15 -0.93,-53.75 -2.29,-54.17 -1.43,-56.66 4.57,-60.74 12.68,-65.13 12.98,-68.54 -3.07,-71.71" fill="none" stroke="rgb(0, 0, 0)" stroke-width="2" stroke-linejoin="round" filter="url(#fuzzy)" /><polyline points="-0.36,-71.85 -15.76,-65.97 -14.14,-62.82 -2.46,-61.63 10.88,-59.3 21.72,-55.66 27.8,-52.24 28.39,-50.31 24.8,-49.98 19.87,-50.49 16.27,-50.96 15.21,-50.92 16.43,-50.37 19.31,-49.55 23.65,-48.71 29.54,-47.95 36.32,-47.37 42.14,-47.24 44.62,-48.18 42.2,-50.96 34.82,-55.52 21.54,-60.59 -12.68,-70.57" fill="none" stroke="rgb(0, 0, 0)" stroke-width="2" stroke-linejoin="round" filter="url(#fuzzy)" /><polyline points="2.57,-71.69 -7.91,-66.02 -2.43,-62.99 5.23,-60.97 12.96,-59.85 19.4,-59.25 23.24,-59.07 23.82,-59.62 21.72,-60.98 18.57,-62.81 16.14,-64.51 15.46,-65.62 16.64,-65.94 19.13,-65.44 22.23,-64.14 25.19,-62 27.25,-59.03 27.5,-55.73 25.44,-53.4 23.52,-53.22 31.62,-52.02 58.07,-37.32" fill="none" stroke="rgb(0, 0, 0)" stroke-width="2" stroke-linejoin="round" filter="url(#fuzzy)" /><polyline points="-39.14,-58.75 19.75,-48.2 37.48,-43.17 34.98,-44.18 27.16,-46.51 20.81,-47.92 17.41,-48.82 16.48,-50.44 17.04,-53.48 17.77,-57.67 16.93,-62.05 13.08,-65.53 6.04,-67.21 -3.37,-66.2 -17.11,-60.51 -54.08,-43.78" fill="none" stroke="rgb(0, 0, 0)" stroke-width="2" stroke-linejoin="round" filter="url(#fuzzy)" /><polyline points="26.7,-66.14 -7.55,-62.82 -8.37,-61.46 -2.2,-57.79 4.7,-53.61 10.71,-50.5 15.91,-48.43 21.71,-46.64 28.83,-44.92 35.81,-44.02 40.15,-44.79 40.93,-47.08 39.88,-49.48 39.69,-50.77 41.54,-51.18 45.31,-50.9 47.97,-50.67" fill="none" stroke="rgb(0, 0, 0)" stroke-width="2" stroke-linejoin="round" filter="url(#fuzzy)" /><polyline points="35.5,-61.37 14.98,-65.54 15.83,-63.32 20.74,-58.6 22.67,-55.01 19.72,-53.96 14.21,-54.85 9.88,-56.67 9.27,-58.86 12.71,-61.04 18.73,-62.55 25.42,-62.46 31.88,-60.1 38.43,-55.28 46.29,-46.84 63.94,-24.82" fill="none" stroke="rgb(0, 0, 0)" stroke-width="2" stroke-linejoin="round" filter="url(#fuzzy)" /><polyline points="61.55,-30.96 41.34,-48.84 23.44,-57.77 16.56,-59.82 18.72,-58.07 25.31,-54.95 32.59,-52.06 38.43,-50.05 42.05,-48.82 43.32,-48.07 42.15,-47.8 38.29,-48.35 31.9,-50 24.09,-52.63 16.97,-55.67 12.79,-58.54 12.59,-60.94 15.67,-62.65 20.7,-62.91 27.76,-60.13 38.55,-52.6 52.53,-40.65 61.55,-30.96" fill="none" stroke="rgb(0, 0, 0)" stroke-width="2" stroke-linejoin="round" filter="url(#fuzzy)" /><polyline points="41.06,-57.49 25.88,-64.61 24.53,-64.86 27.4,-62.81 30.58,-60.8 32.52,-59.3 32.51,-57.91 30.16,-56.37 25.73,-54.92 20.31,-53.93 15.51,-53.5 12.71,-53.31 12.59,-52.84 15.21,-51.73 20.18,-50.14 26.67,-48.71 33.34,-48.16 38.8,-48.71 42.48,-49.74 45.03,-49.95 47.64,-48.29 50.17,-45.29 48.73,-45.59 32.43,-63.07" fill="none" stroke="rgb(0, 0, 0)" stroke-width="2" stroke-linejoin="round" filter="url(#fuzzy)" /><polyline points="56.43,-39.99 43.55,-50.02 42.36,-50.24 37.29,-52.76 28.07,-56.91 17.45,-60.73 8.39,-63.34 3.21,-64.63 2.86,-64.89 6.56,-64.54 11.91,-64.03 15.52,-63.62 14.26,-63.31 7.15,-62.85 -2.59,-62.05 -7.26,-61.7 -1.3,-64.37 -6.83,-71.61" fill="none" stroke="rgb(0, 0, 0)" stroke-width="2" stroke-linejoin="round" filter="url(#fuzzy)" /><polyline points="-45.71,-53.28 -16.42,-64.77 -2.76,-68.31 6.33,-68.35 10.76,-66.73 9.71,-64.28 4.58,-61.39 -1.8,-58.41 -6.96,-55.74 -9.55,-53.75 -9.29,-52.67 -6.51,-52.61 -1.93,-53.56 3.44,-55.38 8.58,-57.77 12.67,-60.25 15.21,-62.32 15.83,-63.63 14.01,-64.15 9.18,-64.12 1.73,-64.02 -5.18,-64.78 -4.15,-67.8 9.13,-71.03" fill="none" stroke="rgb(0, 0, 0)" stroke-width="2" stroke-linejoin="round" filter="url(#fuzzy)" /><polyline points="-52.94,-45.27 -32.16,-56.15 -18,-62.69 -14.36,-65.01 -13.59,-64.34 -10.05,-62.03 -2.73,-59.17 6.13,-56.51 13.53,-54.6 17.38,-53.8 16.92,-54.24 12.55,-55.56 5.78,-56.91 -0.86,-57.23 -4.57,-55.93 -4.34,-53.77 -3.47,-53.07 -9.19,-55.98 -24.51,-60.68 -32.69,-63.03" fill="none" stroke="rgb(0, 0, 0)" stroke-width="2" stroke-linejoin="round" filter="url(#fuzzy)" /><polyline points="-8.1,-71.38 4.12,-61.24 5.81,-56.69 11.92,-55.51 16.22,-54.94 16.13,-54.09 13.27,-53.17 10.42,-52.48 9.3,-52.13 10.04,-52.06 11.79,-52.22 13.48,-52.64 14.22,-53.37 13.45,-54.47 11.13,-55.9 7.78,-57.56 4.26,-59.35 1.3,-61.19 -0.73,-63.02 -1.5,-64.76 -0.34,-66.18 3.67,-66.87 10.61,-66.31 18.35,-64.31 19.71,-62.9 -7.2,-71.49" fill="none" stroke="rgb(0, 0, 0)" stroke-width="2" stroke-linejoin="round" filter="url(#fuzzy)" /><polyline points="-32.69,-63.03 -18.95,-57.44 -3.89,-57.25 -3.22,-58.9 -6.67,-60.41 -7.24,-60.9 -4.93,-59.78 -1.52,-56.84 3.22,-52.49 10.58,-47.93 19.65,-44.92 26.03,-45.06 24.67,-48.6 14.16,-53.59 -2.29,-56.85 -19.31,-58.53 -16.47,-69.79" fill="none" stroke="rgb(0, 0, 0)" stroke-width="2" stroke-linejoin="round" filter="url(#fuzzy)" /><polyline points="-10.87,-70.8 -20.79,-67.65 -23.65,-66.57 -26.39,-64.85 -27.54,-62.87 -24.62,-61.38 -17.76,-60.62 -9.78,-60.45 -4.08,-60.6 -2.44,-60.83 -4.39,-60.89 -7.97,-60.63 -11.3,-60.06 -13.37,-59.37 -13.95,-58.85 -12.65,-58.71 -8.51,-58.9 -0.61,-59.03 10.36,-58.69 21.35,-58.04 28.48,-57.81 31.56,-57.62 38.71,-52.52 60.75,-32.47" fill="none" stroke="rgb(0, 0, 0)" stroke-width="2" stroke-linejoin="round" filter="url(#fuzzy)" /><polyline points="28.26,-65.29 4.48,-67.95 1.36,-68.58 -1.15,-66.66 -5.37,-63.19 -7.49,-59.52 -5.08,-56.41 0.94,-53.92 8.13,-51.8 14.59,-49.89 19.47,-48.37 22.36,-47.61 23.08,-47.95 21.91,-49.33 19.93,-51.29 18.47,-53.19 17.92,-54.62 16.84,-55.73 12.51,-57.16 3.31,-59.43 -8.36,-62.27 -15.19,-64.67 -8,-65.93 24.52,-66.93" fill="none" stroke="rgb(0, 0, 0)" stroke-width="2" stroke-linejoin="round" filter="url(#fuzzy)" /><polyline points="37.22,-60.12 26.26,-62.52 10.4,-60.91 -0.39,-59.07 -0.19,-57.7 7.18,-56.56 15.34,-55.81 20.44,-55.76 21.93,-56.46 21.09,-57.58 19.67,-58.63 19.14,-59.23 20.43,-59.05 23.61,-57.85 27.56,-55.65 30.23,-52.91 29.67,-50.64 25.7,-50.07 20.96,-51.78 19.52,-54.84 21.45,-56.7 14.68,-56.3 -32.69,-63.03" fill="none" stroke="rgb(0, 0, 0)" stroke-width="2" stroke-linejoin="round" filter="url(#fuzzy)" /><polyline points="23.22,-67.51 38.52,-54.67 32.31,-57.08 19.32,-60.82 5.78,-61.93 -5,-60.16 -10.19,-56.49 -8.25,-52.27 -0.41,-48.85 9.57,-47.42 17.39,-48.53 20.22,-51.84 17.39,-56.27 10,-60.4 0.3,-63.13 -8.59,-64.02 -13.07,-63.6 -10.85,-63.06 -4.92,-63.29 -8.91,-62.8 -44.04,-54.62" fill="none" stroke="rgb(0, 0, 0)" stroke-width="2" stroke-linejoin="round" filter="url(#fuzzy)" /><polyline points="-52.7,-45.18 -15.58,-53.93 -19.01,-56.2 -19.84,-57 -11.03,-57.5 2.3,-57.77 14.06,-58.1 21.29,-58.78 24.12,-59.71 24.18,-60.44 23.16,-60.56 22.06,-59.89 21.12,-58.55 19.97,-56.87 17.8,-55.31 13.66,-54.36 7.09,-54.45 -0.89,-55.62 -7.13,-57.41 -7.48,-59.13 -0.01,-60.58 10.85,-62.6 13.48,-66.76 2.84,-71.68" fill="none" stroke="rgb(0, 0, 0)" stroke-width="2" stroke-linejoin="round" filter="url(#fuzzy)" /><polyline points="56.43,-39.99 39.82,-51.4 34.36,-52.6 28.08,-53.64 18.84,-55.15 8.34,-56.57 0.2,-57.27 -3.04,-56.89 -1.6,-55.59 2.15,-53.96 5.24,-52.72 5.51,-52.39 2.28,-53.08 -3.65,-54.5 -10.61,-56.18 -16.61,-57.64 -19.89,-58.58 -19.18,-58.76 -14.2,-58.03 -6.44,-56.52 0.52,-55.3 2.92,-56.65 0,-62.14 -20.46,-68.38" fill="none" stroke="rgb(0, 0, 0)" stroke-width="2" stroke-linejoin="round" filter="url(#fuzzy)" /><polyline points="39.8,-58.32 7.11,-56.31 17.56,-53.13 27.47,-51.75 28.45,-54.01 25.15,-57.96 22.97,-61.02 23.56,-61.9 25.06,-60.85 24.2,-58.95 18.59,-57.37 8.37,-56.97 -3.5,-58.07 -12.76,-60.45 -16.41,-63.31 -13.9,-65.19 -4.63,-63.86 16.9,-55.05 62.89,-27.56" fill="none" stroke="rgb(0, 0, 0)" stroke-width="2" stroke-linejoin="round" filter="url(#fuzzy)" /><polyline points="-12.7,-70.5 27.33,-56.11 38.51,-51.92 38.35,-52.16 37.07,-52.55 37.71,-51.59 38.66,-50.09 37.54,-49.26 33.56,-49.65 27.69,-51.1 21.7,-53.1 17,-55.03 13.99,-56.34 12.04,-56.7 9.99,-56.2 6.87,-55.34 2.7,-54.67 -1.43,-54.39 -3.9,-54.23 -3.69,-53.9 -1.19,-53.79 2.37,-55.16 5.71,-58.82 3.02,-62.87 -30.75,-64.17" fill="none" stroke="rgb(0, 0, 0)" stroke-width="2" stroke-linejoin="round" filter="url(#fuzzy)" /><polyline points="58.07,-37.32 27.2,-55.23 14.73,-59.37 14.46,-58.63 14.38,-58.48 11.07,-59.72 6.75,-60.68 4.19,-60.09 4.41,-58.3 6.73,-56.73 9.84,-56.69 12.63,-58.54 14.44,-61.59 14.73,-64.62 12.46,-66.5 4.98,-66.12 -13.58,-61.28 -52.94,-45.27" fill="none" stroke="rgb(0, 0, 0)" stroke-width="2" stroke-linejoin="round" filter="url(#fuzzy)" /><polyline points="46.38,-52.33 30.04,-62.3 26.06,-64.34 28.82,-61.83 33.83,-57.5 36.46,-53.99 34.47,-52.71 29.14,-53.36 24.14,-54.57 22.86,-54.85 26.19,-53.56 32.09,-51.17 36.97,-48.93 37.73,-48.01 32.87,-48.77 22.36,-50.7 7.8,-52.82 -4.17,-53.64 4.46,-49.91 61.29,-31.36" fill="none" stroke="rgb(0, 0, 0)" stroke-width="2" stroke-linejoin="round" filter="url(#fuzzy)" /><polyline points="-52.94,-45.27 5.58,-43.47 17.89,-52.08 21.94,-55.93 20.31,-55.67 12.13,-54.39 0.93,-53.46 -8.03,-52.88 -11.79,-52.36 -10.62,-51.81 -6.2,-51.09 0.05,-50.06 6.46,-48.9 9.65,-48.34 5.14,-49.67 -7.23,-55.87 -0.97,-71.77" fill="none" stroke="rgb(0, 0, 0)" stroke-width="2" stroke-linejoin="round" filter="url(#fuzzy)" /><polyline points="31.68,-63.58 6.21,-61.67 -14.66,-57.75 -18.97,-55.63 -13.66,-54.99 -7.31,-55.37 -3.73,-55.94 -2.36,-56.05 -1.34,-55.83 0.79,-55.74 5,-55.74 12.01,-55.1 21.52,-53.24 30.92,-50.97 35.5,-50.59 31.32,-54.27 19.69,-61.18 11.52,-66.18 31.46,-63.66" fill="none" stroke="rgb(0, 0, 0)" stroke-width="2" stroke-linejoin="round" filter="url(#fuzzy)" /><polyline points="55.06,-42.1 53.36,-41.39 45.31,-46.78 40.77,-49.47 39.13,-49.75 36.56,-50.45 31.82,-52.63 26.29,-55.45 21.65,-57.61 18.41,-58.46 15.92,-58.24 13.34,-57.51 10.35,-56.73 7.24,-56.03 4.46,-55.35 2.37,-54.6 1.58,-53.83 3.61,-53.06 10.45,-52.42 21.8,-52.46 31.42,-54.78 28.77,-61.52 12.03,-70.68" fill="none" stroke="rgb(0, 0, 0)" stroke-width="2" stroke-linejoin="round" filter="url(#fuzzy)" /><polyline points="-19.02,-68.85 4.03,-67.39 19.63,-63.52 28.51,-59.94 32.24,-57.74 31.03,-57.03 25.16,-57.44 16.14,-58.66 7.18,-60.32 2.48,-61.68 5.06,-61.78 14.64,-60.04 27.14,-56.92 36.52,-54.19 38.35,-54.23 34.5,-57.69 43.32,-55.44" fill="none" stroke="rgb(0, 0, 0)" stroke-width="2" stroke-linejoin="round" filter="url(#fuzzy)" /><polyline points="-2.82,-71.89 -15.06,-61.73 -8.18,-62.27 -3.36,-62.97 -2,-61.56 -2.91,-58.84 -4.22,-56.27 -4.27,-54.89 -2.21,-54.95 2.16,-55.93 8.49,-56.9 15.71,-57.22 22.14,-56.84 26,-56.24 26.35,-55.85 23.84,-55.72 20.59,-55.59 19.19,-55.42 20.68,-55.74 22.25,-57.42 16.78,-60.71 -3.18,-63.12 -41.9,-56.51" fill="none" stroke="rgb(0, 0, 0)" stroke-width="2" stroke-linejoin="round" filter="url(#fuzzy)" /><polyline points="-5.74,-71.42 26.71,-51.9 33.5,-51.05 35.09,-52.37 32.43,-54.07 26.68,-55.6 20.11,-56.53 14.53,-56.94 10.95,-57.25 9.77,-57.76 10.79,-58.41 13.14,-58.91 15.33,-59.09 15.82,-59.02 13.77,-58.95 9.63,-58.81 5,-57.89 1.98,-55.05 2.26,-49.69 6.91,-42.84 17.59,-36.94 38.4,-33.58 59.7,-34.18" fill="none" stroke="rgb(0, 0, 0)" stroke-width="2" stroke-linejoin="round" filter="url(#fuzzy)" /><polyline points="67.03,-11.24 66.89,-10.29 66.2,-9.16 65.52,-7.82 65.24,-6.4 65.33,-5.05 65.52,-3.89 65.59,-2.91 65.47,-2.02 65.22,-1.14 64.91,-0.2 64.53,0.79 64.03,1.76 63.35,2.66 62.47,3.47 61.49,4.22 60.51,5 59.6,5.91 58.75,7 57.99,8.23 57.38,9.73" fill="none" stroke="rgb(0, 0, 0)" stroke-width="2" stroke-linejoin="round" filter="url(#fuzzy)" /><polyline points="-0.97,-71.77 -2.41,-72.09 -3.61,-73.56 -4.88,-76.07 -6.15,-78.88 -7.32,-81.14 -8.4,-82.25 -9.43,-82.14 -10.48,-81.2 -11.55,-80.01 -12.63,-79.08 -13.72,-78.71 -14.85,-79.01 -16.09,-80 -17.49,-81.66 -19.07,-83.84 -20.79,-85.91 -22.53,-85.89 -3.07,-71.71 -3.56,-71.78 -4.59,-71.91 -5.61,-72.15 -6.55,-72.5 -7.49,-72.91 -8.52,-73.31 -9.64,-73.61 -10.78,-73.75 -11.88,-73.79 -12.93,-73.87 -13.95,-74.12 -14.98,-74.58 -16.05,-75.09 -17.12,-75.42 -18.25,-75.45 -19.73,-75.24 -6.83,-71.61 -8.82,-76.6 -10.24,-76.57 -11.37,-75.39 -12.38,-74.58 -13.35,-74.38 -14.33,-74.51 -15.34,-74.73 -16.43,-75.02 -17.63,-75.56 -18.97,-76.47 -20.38,-77.62 -21.73,-78.67 -22.95,-79.39 -24.11,-79.84 -25.52,-80.15 -27.92,-79.78" fill="none" stroke="rgb(0, 0, 0)" stroke-width="2" stroke-linejoin="round" filter="url(#fuzzy)" /><polyline points="-8.1,-71.38 -7.36,-72.16 -6.9,-74.35 -6.29,-76.88 -5.44,-79.09 -4.41,-81 -3.26,-82.69 -2.04,-84.05 -0.76,-84.96 0.54,-85.52 1.82,-86.01 3.04,-86.73 4.3,-87.88 5.73,-89.54 7.32,-91.27 8.33,-91.78 -10.18,-70.98 -8.59,-71.36 -7.57,-71.59 -6.75,-71.67 -5.91,-71.7 -4.96,-71.74 -3.94,-71.8 -2.86,-71.87 -1.75,-71.94 -0.64,-71.98 0.46,-71.99 1.53,-71.98 2.58,-71.95 3.65,-71.93 4.8,-71.9 6.08,-71.86 7.47,-71.79 8.83,-71.7 9.57,-71.65 -29.91,-57.65 -29.14,-58.7 -28.27,-59.51 -27.45,-60.16 -26.66,-60.8 -25.82,-61.55 -24.92,-62.44 -24.01,-63.42 -23.13,-64.41 -22.28,-65.34 -21.46,-66.14 -20.63,-66.78 -19.79,-67.26 -18.92,-67.63 -18.03,-67.92 -17.11,-68.17 -16.17,-68.38 -15.23,-68.56 -14.31,-68.7 -13.44,-68.88 -12.65,-69.24 -11.89,-69.85 -11.05,-70.56 -10.18,-70.98" fill="none" stroke="rgb(0, 0, 0)" stroke-width="2" stroke-linejoin="round" filter="url(#fuzzy)" /><polyline points="-10.87,-70.8 -9.84,-71.02 -8.66,-71.21 -7.66,-71.33 -6.76,-71.39 -5.85,-71.42 -4.89,-71.45 -3.86,-71.48 -2.78,-71.51 -1.68,-71.54 -0.57,-71.54 0.53,-71.52 1.62,-71.47 2.71,-71.39 3.81,-71.29 4.96,-71.18 6.13,-71.05 7.29,-70.92 8.38,-70.77 9.36,-70.61 10.24,-70.45 11.11,-70.27 12.01,-70.05 13.2,-69.69" fill="none" stroke="rgb(0, 0, 0)" stroke-width="2" stroke-linejoin="round" filter="url(#fuzzy)" /><polyline points="-12.7,-70.5 -14.55,-69.98 -15.59,-69.64 -16.48,-69.16 -17.32,-68.48 -18.08,-67.66 -18.8,-66.82 -19.5,-66.03 -20.24,-65.3 -21.01,-64.59 -21.83,-63.83 -22.69,-62.99 -23.56,-62.04 -24.43,-61.02 -25.2,-59.93 -25.8,-58.76 -26.22,-57.46 -26.6,-56.01 -27.04,-54.48 -27.56,-53.13" fill="none" stroke="rgb(0, 0, 0)" stroke-width="2" stroke-linejoin="round" filter="url(#fuzzy)" /><polyline points="-19.02,-68.85 -19.76,-69.01 -20.89,-69.73 -22.15,-70.44 -23.37,-70.7 -24.56,-70.57 -25.79,-70.29 -27.1,-70.03 -28.45,-69.84 -29.77,-69.72 -31.04,-69.63 -32.25,-69.51 -33.4,-69.32 -34.48,-69.02 -35.52,-68.65 -36.56,-68.29 -37.7,-68.08 -39.01,-68.09 -40.49,-68.22 -42.04,-68.25 -43.56,-68.02 -45.19,-67.83" fill="none" stroke="rgb(0, 0, 0)" stroke-width="2" stroke-linejoin="round" filter="url(#fuzzy)" /><polyline points="-28.36,-65.29 -26.3,-66.1 -24.76,-66.48 -23.4,-66.19 -22.06,-65.45 -20.8,-64.72 -19.68,-64.3 -18.7,-64.25 -17.82,-64.46 -16.97,-64.76 -16.1,-65.06 -15.23,-65.29 -14.34,-65.44 -13.45,-65.45 -12.54,-65.27 -11.58,-64.86 -10.58,-64.27 -9.52,-63.59 -8.45,-62.95 -7.42,-62.37 -6.49,-61.79 -5.65,-61.17 -4.82,-60.6 -3.86,-60.42 -2.38,-60.76" fill="none" stroke="rgb(0, 0, 0)" stroke-width="2" stroke-linejoin="round" filter="url(#fuzzy)" /><polyline points="-42.1,-56.41 -42.01,-57.31 -41.81,-59.11 -41.33,-60.6 -40.66,-61.63 -39.95,-62.52 -39.23,-63.45 -38.48,-64.36 -37.66,-65.17 -36.83,-65.9 -36.06,-66.73 -35.42,-67.81 -34.91,-69.22 -34.46,-70.89 -33.98,-72.61 -33.54,-74.07 -33.25,-75.03 -32.96,-75.9" fill="none" stroke="rgb(0, 0, 0)" stroke-width="2" stroke-linejoin="round" filter="url(#fuzzy)" /><polyline points="-44.04,-54.62 -45.87,-54.11 -46.92,-53.41 -47.98,-52.96 -49.19,-52.67 -50.49,-52.42 -51.77,-52.13 -53.03,-51.77 -54.26,-51.35 -55.47,-50.92 -56.62,-50.54 -57.72,-50.22 -58.81,-49.96 -60,-49.7 -61.32,-49.35 -62.65,-48.8 -63.8,-47.91 -64.77,-46.77 -66.19,-45.94 -74.03,-48.46 -72.55,-48.37 -70.29,-48.45 -67.67,-48.47 -65.48,-48.79 -63.97,-49.51 -62.98,-50.45 -62.23,-51.35 -61.5,-52.07 -60.75,-52.7 -59.99,-53.37 -59.17,-54.13 -58.07,-54.74 -56.39,-54.78 -53.92,-53.94 -50.92,-52.55 -48.24,-51.72 -47.04,-52.03" fill="none" stroke="rgb(0, 0, 0)" stroke-width="2" stroke-linejoin="round" filter="url(#fuzzy)" /><polyline points="66.21,-15.6 66.15,-16.72 66.08,-18.25 66.12,-19.79 66.22,-21.25 66.36,-22.65 66.58,-24.03 66.96,-25.42 67.51,-26.85 68.13,-28.31 68.68,-29.78 69.04,-31.2 69.16,-32.54 69.07,-33.77 68.87,-34.9 68.7,-36.04 68.68,-37.29 68.91,-38.8 69.41,-40.62 70.08,-42.66 70.67,-44.54 70.92,-45.81 71.03,-46.57" fill="none" stroke="rgb(0, 0, 0)" stroke-width="2" stroke-linejoin="round" filter="url(#fuzzy)" /><polyline points="-49.76,-49.08 -48.1,-50.84 -47.19,-51.77 -46.45,-52.48 -45.74,-53.13 -45.05,-53.76 -44.38,-54.37 -43.72,-54.96 -43.05,-55.56 -42.36,-56.17 -41.64,-56.79 -40.87,-57.42 -40.06,-58.05 -39.23,-58.69 -38.37,-59.32 -37.49,-59.95 -36.6,-60.56 -35.71,-61.16 -34.82,-61.74 -33.96,-62.27 -33.15,-62.76 -32.35,-63.22 -31.55,-63.68 -30.75,-64.17 -49.76,-49.08 -49.15,-48.7 -48.5,-47.16 -48.3,-45.5 -48.58,-44.28 -49.06,-43.46 -49.53,-42.84 -49.93,-42.22 -50.25,-41.44 -50.43,-40.4 -50.38,-39.06 -50.09,-37.44 -49.63,-35.68 -49.12,-33.96 -48.58,-32.42 -48.36,-31.65" fill="none" stroke="rgb(0, 0, 0)" stroke-width="2" stroke-linejoin="round" filter="url(#fuzzy)" /><polyline points="-51.13,-47.62 -49.98,-48.58 -49.18,-49.08 -48.31,-49.52 -47.31,-49.95 -46.25,-50.34 -45.21,-50.7 -44.23,-51.04 -43.31,-51.36 -42.43,-51.66 -41.55,-51.91 -40.67,-52.14 -39.76,-52.35 -38.83,-52.54 -37.83,-52.7 -36.77,-52.82 -35.7,-52.97 -34.7,-53.19 -33.72,-53.43 -32.57,-53.45 -31.17,-53.01 -30.32,-52.32" fill="none" stroke="rgb(0, 0, 0)" stroke-width="2" stroke-linejoin="round" filter="url(#fuzzy)" /><polyline points="-61.04,-31.92 -61.91,-34.35 -61.2,-35.61 -60.7,-36.95 -60.95,-38.75 -61.77,-40.91 -62.67,-43.14 -63.22,-45.19 -63.29,-46.94 -63.01,-48.45 -62.71,-49.9 -62.69,-51.46 -63.1,-53.21 -63.76,-55.04 -64.3,-56.81 -64.44,-58.55 -64.29,-60.53 -64.12,-62.76 -63.65,-64.02 -62.5,-28.91 -63.36,-27.23 -64.49,-26.13 -65.44,-25.5 -66.27,-25 -67.23,-24.44 -68.37,-23.73 -69.48,-22.88 -70.38,-21.97 -71.09,-21.06 -71.77,-20.2 -72.58,-19.4 -73.63,-18.62 -74.95,-17.84 -76.56,-17.03 -78.44,-16.19 -80.56,-15.29 -82.96,-14.32 -85.63,-13.19 -87.53,-11.4 -78.26,-4.93 -77.29,-5.27 -76.57,-5.87 -75.97,-6.86 -75.54,-8.16 -75.15,-9.58 -74.7,-11 -74.15,-12.34 -73.51,-13.57 -72.79,-14.71 -71.98,-15.74 -71.09,-16.68 -70.18,-17.54 -69.34,-18.35 -68.63,-19.17 -68.03,-20.03 -67.44,-20.96 -66.75,-21.95 -65.97,-22.95 -65.23,-23.82 -64.67,-24.34 -64.28,-24.48 -63.68,-25.18 -63.68,-25.18 -64,-24.38 -64.01,-24.1 -63.96,-23.39 -63.74,-22.23 -63.33,-20.9 -62.87,-19.6 -62.56,-18.47 -62.5,-17.49 -62.67,-16.62 -62.94,-15.77 -63.14,-14.88 -63.17,-13.9 -63,-12.83 -62.69,-11.67 -62.32,-10.45 -61.99,-9.19 -61.74,-7.91 -61.59,-6.67 -61.45,-5.57 -61.23,-4.71 -60.97,-4.16 -61.18,-3.86" fill="none" stroke="rgb(0, 0, 0)" stroke-width="2" stroke-linejoin="round" filter="url(#fuzzy)" /><polyline points="64.95,-21.34 65.35,-21.26 65.22,-22.39 65.66,-23.89 67.02,-25.63 68.89,-27.53 70.54,-29.34 71.39,-30.9 71.44,-32.22 71.24,-33.5 71.51,-35.03 72.68,-36.92 74.57,-39.08 76.45,-41.21 77.41,-43 77.29,-44.69 78.11,-47.68" fill="none" stroke="rgb(0, 0, 0)" stroke-width="2" stroke-linejoin="round" filter="url(#fuzzy)" /><polyline points="64.52,-23.03 64.04,-23.84 63.65,-24.58 63.16,-25.31 62.56,-26.1 61.93,-26.96 61.36,-27.88 60.87,-28.83 60.45,-29.77 60.05,-30.65 59.6,-31.48 59.07,-32.29 58.44,-33.1 57.71,-33.91 56.92,-34.72 56.12,-35.51 55.35,-36.3 54.63,-37.13 53.92,-38.03 53.16,-38.9 52.32,-39.51 51.63,-39.65" fill="none" stroke="rgb(0, 0, 0)" stroke-width="2" stroke-linejoin="round" filter="url(#fuzzy)" /><polyline points="61.41,-30.92 60.66,-30.89 60.38,-31.33 59.86,-31.88 58.92,-32.39 57.6,-32.81 56.11,-33.21 54.76,-33.67 53.74,-34.3 53.05,-35.1 52.47,-35.96 51.79,-36.75 50.89,-37.36 49.81,-37.77 48.64,-38.03 47.45,-38.17 46.28,-38.04 45.36,-37.03" fill="none" stroke="rgb(0, 0, 0)" stroke-width="2" stroke-linejoin="round" filter="url(#fuzzy)" /><polyline points="60.47,-33.28 61.9,-34.23 62.37,-35.79 62.14,-37.21 61.89,-38.58 61.92,-40.05 62.1,-41.62 62.22,-43.18 62.16,-44.63 61.96,-45.97 61.75,-47.26 61.65,-48.57 61.72,-49.93 61.94,-51.37 62.29,-52.92 62.67,-54.57 62.92,-56.26 62.87,-57.94 62.48,-59.61 61.97,-61.33 61.68,-63.06 61.89,-64.54 62.48,-65.72" fill="none" stroke="rgb(0, 0, 0)" stroke-width="2" stroke-linejoin="round" filter="url(#fuzzy)" /><polyline points="50.5,-80.75 49.88,-78.29 49.96,-75.71 50,-73.25 50,-70.92 50.11,-68.79 50.4,-66.94 50.86,-65.37 51.37,-63.99 51.85,-62.64 52.2,-61.2 52.38,-59.59 52.42,-57.85 52.39,-56.07 52.4,-54.33 52.52,-52.7 52.77,-51.18 53.15,-49.81 53.65,-48.65 54.27,-47.75 54.95,-47.12 55.52,-46.56 55.63,-45.68 55.08,-44.02 54.83,-42.11" fill="none" stroke="rgb(0, 0, 0)" stroke-width="2" stroke-linejoin="round" filter="url(#fuzzy)" /><polyline points="52.94,-44.88 52.07,-43.82 51.48,-44.12 50.78,-44.64 49.96,-45.28 49.19,-46.13 48.52,-47.13 47.91,-48.14 47.26,-49.02 46.48,-49.71 45.56,-50.21 44.51,-50.55 43.35,-50.75 42.13,-50.84 40.87,-50.86 39.62,-50.89 38.44,-51.02 37.39,-51.3 36.48,-51.72 35.64,-52.19 34.78,-52.55 33.86,-52.71 32.93,-52.71 31.99,-52.66 30.54,-52.79" fill="none" stroke="rgb(0, 0, 0)" stroke-width="2" stroke-linejoin="round" filter="url(#fuzzy)" /><polyline points="29.56,-68.31 30.14,-67.84 31.13,-67.25 32.1,-66.63 32.96,-65.98 33.78,-65.29 34.66,-64.57 35.58,-63.87 36.5,-63.2 37.39,-62.58 38.24,-61.98 39.03,-61.37 39.79,-60.7 40.51,-59.94 41.19,-59.08 41.85,-58.14 42.52,-57.18 43.2,-56.24 43.92,-55.39 44.66,-54.63 45.44,-53.92 46.24,-53.15 47.06,-52.2 47.85,-51.12 48.46,-50.37" fill="none" stroke="rgb(0, 0, 0)" stroke-width="2" stroke-linejoin="round" filter="url(#fuzzy)" /><polyline points="39.8,-58.32 39,-58.43 37.69,-58.36 36.6,-58.37 35.71,-58.6 34.81,-58.95 33.84,-59.34 32.85,-59.78 31.92,-60.32 31.09,-60.96 30.32,-61.63 29.55,-62.27 28.73,-62.79 27.84,-63.15 26.86,-63.33 25.81,-63.35 24.7,-63.23 23.58,-63.02 22.51,-62.76 21.49,-62.54 20.48,-62.39 19.38,-62.29 18.32,-62.11 17.71,-61.66" fill="none" stroke="rgb(0, 0, 0)" stroke-width="2" stroke-linejoin="round" filter="url(#fuzzy)" /><polyline points="33.24,-62.76 32.39,-63.23 31.91,-63.65 31.32,-64.29 30.6,-65.04 29.82,-65.79 29.03,-66.47 28.19,-67.09 27.3,-67.64 26.35,-68.11 25.41,-68.53 24.52,-68.94 23.67,-69.41 22.8,-69.97 21.89,-70.62 21.01,-71.29 20.29,-71.94 19.52,-72.55 29.87,-64.5 31.79,-65.26 33.84,-67.32 35.61,-68.74 36.93,-68.86 37.96,-68.13 38.87,-67.21 39.8,-66.49 40.81,-66.04 41.95,-65.84 43.3,-65.92 44.92,-66.29 46.81,-66.91 48.85,-67.62 50.88,-68.21 52.71,-68.46 54.21,-68.33 55.39,-67.9 56.46,-67.37 57.71,-66.96 59.75,-67.41" fill="none" stroke="rgb(0, 0, 0)" stroke-width="2" stroke-linejoin="round" filter="url(#fuzzy)" /><polyline points="28.49,-65.1 29.93,-64.75 31.32,-64.79 32.47,-64.83 33.52,-64.72 34.63,-64.48 35.8,-64.19 36.96,-63.91 38.09,-63.66 39.2,-63.49 40.33,-63.39 41.53,-63.36 42.82,-63.38 44.19,-63.42 45.59,-63.4 46.97,-63.23 48.26,-62.87 49.44,-62.42 50.56,-62.07 51.77,-61.92 53.14,-61.53" fill="none" stroke="rgb(0, 0, 0)" stroke-width="2" stroke-linejoin="round" filter="url(#fuzzy)" /><polyline points="15.73,-69.88 13.85,-70.26 12.87,-70.53 12.06,-70.8 11.25,-71.05 10.41,-71.27 9.5,-71.46 8.51,-71.61 7.42,-71.75 6.27,-71.88 5.1,-72.01 3.94,-72.15 2.82,-72.3 1.71,-72.43 0.6,-72.55 -0.51,-72.62 -1.64,-72.65 -2.77,-72.63 -3.87,-72.59 -4.93,-72.56 -5.91,-72.57 -6.81,-72.63 -7.67,-72.66 -8.72,-72.56 -10.36,-72.26 27.33,-54.84 28.09,-56.08 27.86,-57.15 27.41,-58.41 26.93,-59.66 26.41,-60.78 25.81,-61.74 25.12,-62.59 24.38,-63.39 23.64,-64.13 22.9,-64.81 22.15,-65.44 21.36,-66.02 20.52,-66.56 19.68,-67.08 18.85,-67.63 18,-68.27 17.06,-68.99 16.07,-69.64 15.73,-69.88" fill="none" stroke="rgb(0, 0, 0)" stroke-width="2" stroke-linejoin="round" filter="url(#fuzzy)" /><polyline points="9.63,-71.14 9.61,-70.93 10.04,-70.47 10.68,-69.64 11.36,-68.69 12.09,-67.95 12.92,-67.54 13.86,-67.34 14.84,-67.04 15.78,-66.41 16.6,-65.37 17.25,-64.05 17.77,-62.68 18.28,-61.46 18.96,-60.21 19.89,-58.09 6.33,-71.38 4.45,-71.67 3.29,-72.11 2.33,-72.61 1.31,-73.25 0.17,-74.26 -1.05,-75.74 -2.32,-77.59 -3.59,-79.47 -4.82,-80.99 -5.98,-81.88 -7.07,-82.07 -8.13,-81.75 -9.23,-81.3 -10.42,-81.1 -11.73,-81.45 -13.14,-82.47 -14.61,-84.12 -16.12,-86.22 -17.66,-88.52 -19.26,-90.76 -20.8,-92.77 -22.22,-94.13" fill="none" stroke="rgb(0, 0, 0)" stroke-width="2" stroke-linejoin="round" filter="url(#fuzzy)" />
    </g>
    
        <g id="pointNose">
          <g id="rightNose"><circle r="1.312" cx="11.05" cy="2.2140000000000004" stroke="black" fill="none" stroke-width="1.0" filter="url(#fuzzy)" /><circle r="2.574" cx="11.942" cy="4.234" stroke="black" fill="none" stroke-width="1.0" filter="url(#fuzzy)" /><circle r="1.634" cx="12.986" cy="3.726" stroke="black" fill="none" stroke-width="1.0" filter="url(#fuzzy)" /><circle r="2.042" cx="11.474" cy="3.7380000000000004" stroke="black" fill="none" stroke-width="1.0" filter="url(#fuzzy)" /><circle r="2.964" cx="12.05" cy="4.338" stroke="black" fill="none" stroke-width="1.0" filter="url(#fuzzy)" /><circle r="1.9100000000000001" cx="11.038" cy="2.5780000000000003" stroke="black" fill="none" stroke-width="1.0" filter="url(#fuzzy)" /><circle r="1.958" cx="10.602" cy="3.338" stroke="black" fill="none" stroke-width="1.0" filter="url(#fuzzy)" /><circle r="2.6" cx="9.506" cy="3.7540000000000004" stroke="black" fill="none" stroke-width="1.0" filter="url(#fuzzy)" /><circle r="1.674" cx="11.47" cy="2.2780000000000005" stroke="black" fill="none" stroke-width="1.0" filter="url(#fuzzy)" /><circle r="2.058" cx="9.146" cy="3.3260000000000005" stroke="black" fill="none" stroke-width="1.0" filter="url(#fuzzy)" /></g>
          <g id="leftNose"><circle r="2.3520000000000003" cx="-8.236" cy="0.8900000000000006" stroke="black" fill="none" stroke-width="1.0" filter="url(#fuzzy)" /><circle r="1.646" cx="-9.192" cy="0.010000000000000675" stroke="black" fill="none" stroke-width="1.0" filter="url(#fuzzy)" /><circle r="1.6139999999999999" cx="-8.372" cy="2.106" stroke="black" fill="none" stroke-width="1.0" filter="url(#fuzzy)" /><circle r="2.262" cx="-8.228000000000002" cy="2.202" stroke="black" fill="none" stroke-width="1.0" filter="url(#fuzzy)" /><circle r="1.924" cx="-10.112" cy="3.450000000000001" stroke="black" fill="none" stroke-width="1.0" filter="url(#fuzzy)" /><circle r="1.528" cx="-9.120000000000001" cy="2.498000000000001" stroke="black" fill="none" stroke-width="1.0" filter="url(#fuzzy)" /><circle r="2.668" cx="-10.476" cy="3.6420000000000003" stroke="black" fill="none" stroke-width="1.0" filter="url(#fuzzy)" /><circle r="1.642" cx="-8.756" cy="1.1220000000000008" stroke="black" fill="none" stroke-width="1.0" filter="url(#fuzzy)" /><circle r="2.3040000000000003" cx="-9.492" cy="3.130000000000001" stroke="black" fill="none" stroke-width="1.0" filter="url(#fuzzy)" /><circle r="1.5739999999999998" cx="-7.376" cy="3.630000000000001" stroke="black" fill="none" stroke-width="1.0" filter="url(#fuzzy)" /></g>
        </g>
      
    <g id="mouth">
      <polyline points="-54.04,39.04 -53.54,39.73 -53.02,40.43 -52.47,41.13 -51.91,41.83 -51.32,42.54 -50.72,43.25 -50.09,43.95 -49.44,44.66 -48.77,45.37 -48.09,46.08 -47.38,46.79 -46.65,47.49 -45.91,48.2 -45.15,48.9 -44.37,49.59 -43.57,50.28 -42.76,50.97 -41.93,51.65 -41.08,52.32 -40.21,52.99 -39.33,53.65 -38.44,54.3 -37.53,54.94 -36.6,55.57 -35.66,56.2 -34.71,56.81 -33.74,57.41 -32.76,58 -31.76,58.57 -30.75,59.13 -29.73,59.68 -28.7,60.22 -27.66,60.73 -26.6,61.24 -25.53,61.72 -24.45,62.19 -23.36,62.64 -22.26,63.07 -21.16,63.49 -20.04,63.88 -18.91,64.26 -17.77,64.61 -16.62,64.94 -15.47,65.25 -14.31,65.54 -13.14,65.8 -11.96,66.04 -10.78,66.25 -9.58,66.44 -8.39,66.6 -7.18,66.74 -5.98,66.85 -4.76,66.93 -3.54,66.98 -2.32,67.01 -1.09,67 0.14,66.96 1.38,66.9 2.62,66.8 3.86,66.67 5.11,66.5 6.36,66.31 7.61,66.07 8.86,65.81 10.11,65.5 11.37,65.17 12.62,64.79 13.88,64.38 15.13,63.93 16.39,63.44 17.64,62.91 18.9,62.35 20.15,61.74 21.4,61.09 22.65,60.4 23.9,59.66 25.14,58.89 26.38,58.07 27.62,57.2 28.86,56.29 30.09,55.34 31.31,54.34 32.54,53.29 33.75,52.2 34.97,51.05 36.17,49.86 37.37,48.62 38.57,47.33 39.76,45.99 40.94,44.59 42.11,43.15 43.28,41.65 44.44,40.1 45.59,38.5 46.73,36.84 47.87,35.13 48.99,33.36 50.11,31.53 51.21,29.65 51.21,29.65 50.16,30.37 49.11,31.07 48.06,31.75 47,32.41 45.95,33.05 44.9,33.67 43.85,34.28 42.79,34.86 41.74,35.43 40.69,35.98 39.64,36.51 38.58,37.02 37.53,37.52 36.48,38 35.43,38.46 34.37,38.9 33.32,39.33 32.27,39.74 31.22,40.13 30.16,40.51 29.11,40.88 28.06,41.23 27.01,41.56 25.95,41.88 24.9,42.18 23.85,42.47 22.8,42.74 21.74,43 20.69,43.25 19.64,43.48 18.59,43.7 17.53,43.9 16.48,44.09 15.43,44.27 14.38,44.44 13.32,44.6 12.27,44.74 11.22,44.87 10.17,44.99 9.11,45.09 8.06,45.19 7.01,45.27 5.95,45.35 4.9,45.41 3.85,45.46 2.8,45.51 1.74,45.54 0.69,45.56 -0.36,45.57 -1.41,45.58 -2.47,45.57 -3.52,45.56 -4.57,45.54 -5.62,45.51 -6.68,45.47 -7.73,45.42 -8.78,45.36 -9.83,45.3 -10.89,45.23 -11.94,45.16 -12.99,45.07 -14.04,44.98 -15.1,44.88 -16.15,44.78 -17.2,44.67 -18.25,44.56 -19.31,44.44 -20.36,44.31 -21.41,44.18 -22.46,44.04 -23.52,43.9 -24.57,43.76 -25.62,43.61 -26.67,43.46 -27.73,43.3 -28.78,43.14 -29.83,42.98 -30.88,42.81 -31.94,42.64 -32.99,42.47 -34.04,42.29 -35.09,42.12 -36.15,41.94 -37.2,41.76 -38.25,41.57 -39.3,41.39 -40.36,41.21 -41.41,41.02 -42.46,40.83 -43.51,40.65 -44.57,40.46 -45.62,40.27 -46.67,40.08 -47.72,39.9 -48.78,39.71 -49.83,39.53 -50.88,39.34 -51.93,39.16 -52.99,38.98" fill="rgb(215,127,140)" stroke="black" stroke-width="3" stroke-linejoin="round" filter="url(#fuzzy)" />
    </g>
  </svg>