<svg xmlns="http://www.w3.org/2000/svg" width="500" height="500" viewBox="-100 -100 200 200"><defs><clipPath id="c"><path d="m34.32-2.59-.02-.08-.05-.08-.08-.08-.12-.08-.15-.07-.18-.07-.22-.07-.26-.07-.3-.06-.33-.07-.38-.06-.41-.06-.44-.05-.49-.06-.52-.05-.37-.07-.44-.06-.51-.06-.58-.06-.63-.05-.71-.06-.76-.04-.82-.05-.89-.04-.94-.03-.99-.03-1.04-.03-1.09-.03-1.14-.02-1.17-.01-1.22-.02-1.25-.01h-1.28l-1.3-.01h-1.33l-1.35.01-1.36.01-1.38.01-1.39.01-1.39.02-1.39.02-1.39.02-1.39.03-1.38.02-1.37.04-1.35.03-1.34.04-1.32.03-1.3.04-1.28.05-1.25.04-1.22.05-1.19.05-1.16.05-1.13.05-1.1.05-1.06.06-1.03.05-1 .06-.95.06-.93.06-.88.06-.86.06-.81.07-.79.06-.75.07-.72.06-.69.07-.66.07-.63.07-.59.07-.56.07-.53.07-.5.08-.48.07-.44.08-.41.07-.38.08-.35.08-.92 1.68.46.12.49.13.5.12.51.13.53.13.54.13.56.13.57.13.58.13.6.13.61.14.62.13.63.14.65.13.66.14.67.14.69.13.7.14.72.14.72.13.74.14.75.13.77.14.77.13.78.13.79.12.79.13.81.11.81.12.81.11.83.1.83.1.83.09.83.09.85.08.84.07.85.07.85.05.86.05.86.04.86.03.86.02.87.01.87.01.87-.01.88-.02.88-.03.88-.04.88-.06.89-.06.89-.07.9-.09.9-.09.9-.11.91-.11.91-.13.91-.14.91-.14.92-.16.92-.16.93-.18.92-.18.93-.19.92-.19.76-.14.76-.14.75-.15.75-.14.74-.16.73-.15.73-.15.71-.16.71-.16.69-.16.68-.16.66-.15.65-.16.64-.15.61-.16"/></clipPath><clipPath id="b"><path d="m-30.58-3.38.06-.09.1-.09.13-.08.15-.08.19-.08.22-.08.25-.07.28-.07.32-.07.36-.07.39-.06.42-.07.46-.06.49-.05.53-.06.38-.07.44-.06.51-.07.57-.05.63-.06.7-.05.76-.05.82-.05.87-.04.94-.03.98-.04 1.04-.03 1.08-.02 1.13-.03 1.17-.02 1.2-.01 1.24-.01 1.27-.01h5.31l1.37.01 1.37.02 1.38.01 1.38.02 1.38.03 1.37.02 1.37.03 1.35.04 1.34.03 1.32.04 1.3.04 1.28.05 1.25.04 1.22.05 1.2.06 1.16.05 1.13.06 1.1.06 1.06.06 1.02.07.99.06.95.07.91.07.87.07.84.08.8.08.76.07.72.08.69.09.65.08.62.09.59.08.55.09.51.1.48.09.44.1.41.09.38.1.34.11.31.1.27.11.25.1.14 1.66-.55.15-.56.16-.58.17-.6.16-.62.16-.64.17-.66.17-.68.17-.69.17-.72.17-.73.17-.74.18-.76.17-.78.18-.79.17-.81.18-.84.17-.85.18-.86.18-.88.17-.9.18-.91.17-.92.17-.94.17-.94.17-.95.16-.96.15-.97.16-.97.14-.98.14-.98.14-.98.12-.98.12-.98.11-.98.11-.98.09-.97.08-.97.07-.96.07-.96.05-.94.03-.94.03-.93.02h-.92l-.91-.01-.9-.03-.89-.04-.87-.05-.86-.07-.85-.08-.84-.09-.82-.11-.81-.12-.79-.13-.78-.15-.76-.16-.75-.18-.74-.18-.72-.2-.71-.21-.69-.22-.68-.23-.66-.24-.65-.25-.59-.17-.58-.18-.56-.19-.56-.18-.54-.2-.53-.19-.52-.19-.5-.2-.5-.2-.48-.2-.46-.2-.45-.2-.44-.19-.42-.2-.41-.19"/></clipPath><filter id="a"><feTurbulence baseFrequency=".05" numOctaves="3" result="noise" type="noise"/><feDisplacementMap in="SourceGraphic" in2="noise" scale="2"/></filter></defs><rect width="100%" height="100%" x="-100" y="-100" fill="#4682B4"/><path fill="olive" stroke="#000" stroke-linejoin="round" stroke-width="1.667" d="m83.5 1.02-.18-.29.14 2.15-.28.21.08 2.36.07.25-.21 3.64-.19 1.14-.18-.42-.49 2.64.49-.72-.8 5.22-.26-.51-.09.54-.56 2.2-.57 3.16-.18-.45-.56 2.82.73-1.76-.92 2.99-.18 2.09-.33-.87-.93 2.83.32-.19-1.15 3.88-.22-.38-1.46 3.47.42-.53-.64 1.62-.58 1.37-.46 1.18-.33-.22-1.21 1.92-.5 1.62.49-.3-1.72 2.97-.7.79-.59 1.07-1.07 1.35-1.23 2.08-.56.4-.38 1.3-.96.29-.98 2.08.25.24-1.97 1.91-.98.86-1.04 1.22-.25.34-.48.12L59 62.49l-1.59 1.65-1.43 1.1.73-.25-1.48 1.52-.62-.02-.68.96-2.24 1.65-.28.62-1.06.6-3 2.7.72-.6-1.67.86-.65.74-2.25.72-1.7 1.62.59-.5-.75.7.08.19-3.29 1.62-1.4.61-.09.59-1.21.13-1.63 1.02.32-.32-2.62.94-2.56 1.63 1.62-1-1.51.84-3.84 1.56.94-.47-2.71.75-.54.45-.85.05-2.86.83-.65.11-.03-.16-2.78.96-1.89.05-.34.29-1.03.27-.1-.01-1.36.21-3.56.32-.4-.13 1.23-.04-2.57.33-2.04.06-.35-.1-1.97.08-2.2-.08-1.24.42-1.8-.34h-.36l-2.56-.08-.82.11-.65-.16.14.06-4.75-.7 2.57.05-3.64-.54-1.04-.07.74.22-2.04-.21-.6-.28-4.41-.86-.16.02.39-.46-3.01-.45-2.12-.82.36-.21-.7.09-3.29-1.12-.53-.36-1.9-.64-.45-.55-1.21-.16-.4-.6-1.25-.59-1.03-.69-3.16-1.15 1.03.27-1.47-.64-.89-.58-1.72-1.02-1.41-1.13-1.13-.4.86.17-1.68-.94-.42-.59-2.83-1.81-1.48-.79-1.24-1.4 1.22 1.02-2.83-2.35-.05-.2-.89-.97-.6-.18-2.18-2.65-.15.31-2.4-2.56-1.81-1.73-.19-.55.81.68-.81-.55-1.42-2.64-1.66-1.82-.61-.62.07.57-1.98-3.23-.14-.15-1.39-1.62-.13-.72-.12.45-1.39-1.94-1-2.75-1.42-1.92.7-.13-1.41-1.53-.08-.55-.31-.8-1.1-.85-.76-3.51-.07 1.38-.92-3.24.07-.22-.99-2.09-.44-.47-.88-2.35.07-.53-.09.68-.58-2.58-.31-1.94-.09-1.19-.82-2.22.31 1.22-.91-2.86-.3-2.03-.38-2.04.56 1.07-.66-2.44-.3-1.75.04-.25-.26-4.38-.04 1.1-.48-2.61.38 1.09-.56-4.45.17-1.8-.14 2.37.3-3.19-.3-2.45.48-2.36-.11-.49.13-.2-.25-1.87.26-3.08.17.51.17-2.24-.03.23.2-1.49.22-1.67.59-1.53-.26-.23.49-1.73.66-1.63.14-1.95.17-.46.6-2.25-.08-.41.01-.56.82-2.1.35-.97 1.14-3.78 1.01-1.32-.43-.21.3-.32.62-1.48.97-1.4.68-1.69-.59.75.48-.88 1.61-2.75.11-1.06.99-1.33-.22-.03 2.6-3.93.57-1.47-.15.14.29-.03 1.71-2.92.53-.64.38-.37 1.9-2.69 1.66-1.54-1.24.51.25.75 1.24-2.11 1.02-.67 1.21-1.41 1.19-1.44 1.52-2.19.16.06 1.05-.85 1.49-1.7 1.75-1.38-.14.04 1.05-.77 1.01-.6.85-.56 1.28-1.47.58.07 2.24-2.24-.3.44 1.02-.99 2.32-1.25.14-.79 2.45-1.16.32-.08 1.5-.51-.73.25 3.91-1.9-.99.09 1.96-.75 1.06-.41.82-.6 1.87-.79 1.07-.22-.2.03 3.73-1.45-.34-.18 3.76-.83-.29.13 1.77-.66 2.03-.46.56-.05.36-.02.39-.36 1.19-.14 2.33-.87 1.48.09 1.11-.04 1.88-.67 1.99.15-.32-.45 2.36.14 2.24-.41.31.37 1.31-.24.3-.17 1.71.12 1.26.03 3.17-.03-.92.03 3.88.43-1.38-.17 2.13-.03 2.44.23 1.4.39-.46-.05 2.1.3 1.59.47-.53-.38 2.35 1.01h.28l1.67.02 2.16.9.76.38 1.18-.02 2.6.97-.24-.64.97.79 3.25 1.14.62.39 1.83.47-.34.27.98-.07 2.88 1.54-.46.06 2.56 1.29.94.38.85.89 1.13-.2 1.38.87-.47.25 3 1.67.22.09 1.29.61.9.6 1.21 1.46-.96-.88 3.35 2.76.73.15.19.83 1.75 1.71.07-.28 2.22 2.31.36-.06.83.88 1.31 1.11.17.58.62.79 1.48 1.13 1.36 1.38 1 1.91 1.68 1.53v-.41l.31 1.11 1.85 2.09-.18-.52 1.84 3.26-.35-.5 1.59 2.29.33.35 1.32 1.84-.08.23 2.03 3.57-1.41-1.86 2.26 2.93.45 1.62-.68-.36 1.54 2.08-.04-.41.68 2.51 1.3 2.94.12.4.74 1.58-.36.02.07.02 1.19 2.07.32 1.97.77 3.18.35.92.16-.16.02 1.77.78 1.29-.1 1.61.59 1.02.19 1.61.04.99.37 1.08.3 3.11-.18-.42.63 1.64-.13 2.29-.11-2.3.38 4.57.21 1.76.06 1.25-.39.41.4 2.87-.18-.29" filter="url(#a)"/><path fill="#fff" d="m-30.58-3.38.06-.09.1-.09.13-.08.15-.08.19-.08.22-.08.25-.07.28-.07.32-.07.36-.07.39-.06.42-.07.46-.06.49-.05.53-.06.38-.07.44-.06.51-.07.57-.05.63-.06.7-.05.76-.05.82-.05.87-.04.94-.03.98-.04 1.04-.03 1.08-.02 1.13-.03 1.17-.02 1.2-.01 1.24-.01 1.27-.01h5.31l1.37.01 1.37.02 1.38.01 1.38.02 1.38.03 1.37.02 1.37.03 1.35.04 1.34.03 1.32.04 1.3.04 1.28.05 1.25.04 1.22.05 1.2.06 1.16.05 1.13.06 1.1.06 1.06.06 1.02.07.99.06.95.07.91.07.87.07.84.08.8.08.76.07.72.08.69.09.65.08.62.09.59.08.55.09.51.1.48.09.44.1.41.09.38.1.34.11.31.1.27.11.25.1.14 1.66-.55.15-.56.16-.58.17-.6.16-.62.16-.64.17-.66.17-.68.17-.69.17-.72.17-.73.17-.74.18-.76.17-.78.18-.79.17-.81.18-.84.17-.85.18-.86.18-.88.17-.9.18-.91.17-.92.17-.94.17-.94.17-.95.16-.96.15-.97.16-.97.14-.98.14-.98.14-.98.12-.98.12-.98.11-.98.11-.98.09-.97.08-.97.07-.96.07-.96.05-.94.03-.94.03-.93.02h-.92l-.91-.01-.9-.03-.89-.04-.87-.05-.86-.07-.85-.08-.84-.09-.82-.11-.81-.12-.79-.13-.78-.15-.76-.16-.75-.18-.74-.18-.72-.2-.71-.21-.69-.22-.68-.23-.66-.24-.65-.25-.59-.17-.58-.18-.56-.19-.56-.18-.54-.2-.53-.19-.52-.19-.5-.2-.5-.2-.48-.2-.46-.2-.45-.2-.44-.19-.42-.2-.41-.19" filter="url(#a)" transform="translate(31.78 -31.75)"/><path fill="#fff" d="m34.32-2.59-.02-.08-.05-.08-.08-.08-.12-.08-.15-.07-.18-.07-.22-.07-.26-.07-.3-.06-.33-.07-.38-.06-.41-.06-.44-.05-.49-.06-.52-.05-.37-.07-.44-.06-.51-.06-.58-.06-.63-.05-.71-.06-.76-.04-.82-.05-.89-.04-.94-.03-.99-.03-1.04-.03-1.09-.03-1.14-.02-1.17-.01-1.22-.02-1.25-.01h-1.28l-1.3-.01h-1.33l-1.35.01-1.36.01-1.38.01-1.39.01-1.39.02-1.39.02-1.39.02-1.39.03-1.38.02-1.37.04-1.35.03-1.34.04-1.32.03-1.3.04-1.28.05-1.25.04-1.22.05-1.19.05-1.16.05-1.13.05-1.1.05-1.06.06-1.03.05-1 .06-.95.06-.93.06-.88.06-.86.06-.81.07-.79.06-.75.07-.72.06-.69.07-.66.07-.63.07-.59.07-.56.07-.53.07-.5.08-.48.07-.44.08-.41.07-.38.08-.35.08-.92 1.68.46.12.49.13.5.12.51.13.53.13.54.13.56.13.57.13.58.13.6.13.61.14.62.13.63.14.65.13.66.14.67.14.69.13.7.14.72.14.72.13.74.14.75.13.77.14.77.13.78.13.79.12.79.13.81.11.81.12.81.11.83.1.83.1.83.09.83.09.85.08.84.07.85.07.85.05.86.05.86.04.86.03.86.02.87.01.87.01.87-.01.88-.02.88-.03.88-.04.88-.06.89-.06.89-.07.9-.09.9-.09.9-.11.91-.11.91-.13.91-.14.91-.14.92-.16.92-.16.93-.18.92-.18.93-.19.92-.19.76-.14.76-.14.75-.15.75-.14.74-.16.73-.15.73-.15.71-.16.71-.16.69-.16.68-.16.66-.15.65-.16.64-.15.61-.16" filter="url(#a)" transform="translate(-35.88 -27.71)"/><g fill="none" stroke="#000" transform="translate(31.78 -31.75)"><path stroke-linejoin="round" stroke-width="1.667" d="m-30.19-2.39-.09-.1-.09-.11-.08-.1-.07-.11-.06-.1-.04-.1-.02-.09-.01-.1.02-.09.05-.09.06-.09.1-.09.13-.08.15-.08.19-.08.22-.08.25-.07.28-.07.32-.07.36-.07.39-.06.42-.07.46-.06.49-.05.53-.06.38-.07.44-.06.51-.07.57-.05.63-.06.7-.05.76-.05.82-.05.87-.04.94-.03.98-.04 1.04-.03 1.08-.02 1.13-.03 1.17-.02 1.2-.01 1.24-.01 1.27-.01h5.31l1.37.01 1.37.02 1.38.01 1.38.02 1.38.03 1.37.02 1.37.03 1.35.04 1.34.03 1.32.04 1.3.04 1.28.05 1.25.04 1.22.05 1.2.06 1.16.05 1.13.06 1.1.06 1.06.06 1.02.07.99.06.95.07.91.07.87.07.84.08.8.08.76.07.72.08.69.09.65.08.62.09.59.08.55.09.51.1.48.09.44.1.41.09.38.1.34.11.31.1.27.11.25.1.21.11.18.11.15.12.12.11.09.12.06.12.04.12v.12l-.02.12-.04.12" filter="url(#a)"/><path stroke-linejoin="round" stroke-width="2.222" d="m-29.96-1.9.23.11.24.12.27.13.28.14.31.15.32.16.34.17.36.18.38.18.39.18.41.19.42.2.44.19.45.2.46.2.48.2.5.2.5.2.52.19.53.19.54.2.56.18.56.19.58.18.59.17.65.25.66.24.68.23.69.22.71.21.72.2.74.18.75.18.76.16.78.15.79.13.81.12.82.11.84.09.85.08.86.07.87.05.89.04.9.03.91.01h.92l.93-.02.94-.03.94-.03.96-.05.96-.07.97-.07.97-.08.98-.09.98-.11.98-.11.98-.12.98-.12.98-.14.98-.14.97-.14.97-.16.96-.15.95-.16.94-.17.94-.17.92-.17.91-.17.9-.18.88-.17.86-.18.85-.18.84-.17.81-.18.79-.17.78-.18.76-.17.74-.18.73-.17.72-.17.69-.17.68-.17.66-.17.64-.17.62-.16.6-.16.58-.17.56-.16.55-.15.52-.16.5-.15.48-.15.46-.15.44-.14.42-.14.4-.14.38-.14.36-.14.34-.13" filter="url(#a)"/><circle cx="6.714" cy="3.325" r="3.228" clip-path="url(#b)" filter="url(#a)"/><circle cx="7.809" cy="3.645" r="4.718" clip-path="url(#b)" filter="url(#a)"/><circle cx="5.829" cy="-.415" r="4.792" clip-path="url(#b)" filter="url(#a)"/><circle cx="5.969" cy="-.71" r="4.974" clip-path="url(#b)" filter="url(#a)"/><circle cx="8.714" cy=".92" r="3.538" clip-path="url(#b)" filter="url(#a)"/><circle cx="6.499" cy=".21" r="4.752" clip-path="url(#b)" filter="url(#a)"/><circle cx="6.939" cy="1.87" r="4.672" clip-path="url(#b)" filter="url(#a)"/><circle cx="5.059" cy="3.94" r="4.5" clip-path="url(#b)" filter="url(#a)"/><circle cx="9.159" cy="1.28" r="3.678" clip-path="url(#b)" filter="url(#a)"/><circle cx="7.379" cy=".455" r="3.074" clip-path="url(#b)" filter="url(#a)"/></g><g fill="none" stroke="#000" transform="translate(-35.88 -27.71)"><path stroke-linejoin="round" stroke-width="2.222" d="m33.07-1.71.21-.09.2-.1.18-.09.16-.09.15-.09.12-.08.1-.09.07-.09.04-.08.02-.08-.02-.08-.05-.08-.08-.08-.12-.08-.15-.07-.18-.07-.22-.07-.26-.07-.3-.06-.33-.07-.38-.06-.41-.06-.44-.05-.49-.06-.52-.05-.37-.07-.44-.06-.51-.06-.58-.06-.63-.05-.71-.06-.76-.04-.82-.05-.89-.04-.94-.03-.99-.03-1.04-.03-1.09-.03-1.14-.02-1.17-.01-1.22-.02-1.25-.01h-1.28l-1.3-.01h-1.33l-1.35.01-1.36.01-1.38.01-1.39.01-1.39.02-1.39.02-1.39.02-1.39.03-1.38.02-1.37.04-1.35.03-1.34.04-1.32.03-1.3.04-1.28.05-1.25.04-1.22.05-1.19.05-1.16.05-1.13.05-1.1.05-1.06.06-1.03.05-1 .06-.95.06-.93.06-.88.06-.86.06-.81.07-.79.06-.75.07-.72.06-.69.07-.66.07-.63.07-.59.07-.56.07-.53.07-.5.08-.48.07-.44.08-.41.07-.38.08-.35.08-.33.08-.29.08-.27.08-.25.08-.21.08-.19.08-.17.09-.15.08-.12.09-.09.08" filter="url(#a)"/><path stroke-linejoin="round" stroke-width="2.222" d="m32.61-1.36-.33.09-.36.1-.39.11-.44.11-.46.13-.49.13-.53.14-.54.14-.58.14-.59.15-.61.16-.64.15-.65.16-.66.15-.68.16-.69.16-.71.16-.71.16-.73.15-.73.15-.74.16-.75.14-.75.15-.76.14-.76.14-.92.19-.93.19-.92.18-.93.18-.92.16-.92.16-.91.14-.91.14-.91.13-.91.11-.9.11-.9.09-.9.09-.89.07-.89.06-.88.06-.88.04-.88.03-.88.02-.87.01-.87-.01-.87-.01-.86-.02-.86-.03-.86-.04-.86-.05-.85-.05-.85-.07-.84-.07-.85-.08-.83-.09-.83-.09-.83-.1-.83-.1-.81-.11-.81-.12-.81-.11-.79-.13-.79-.12-.78-.13-.77-.13-.77-.14-.75-.13-.74-.14-.72-.13-.72-.14-.7-.14-.69-.13-.67-.14-.66-.14-.65-.13-.63-.14-.62-.13-.61-.14-.6-.13-.58-.13-.57-.13-.56-.13-.54-.13-.53-.13-.51-.13-.5-.12-.49-.13-.46-.12-.46-.12-.43-.11-.42-.12-.41-.11-.39-.12-.37-.11-.36-.1-.34-.11-.33-.1-.31-.11" filter="url(#a)"/><circle cx="26.113" cy="-1.295" r="4.764" clip-path="url(#c)" filter="url(#a)"/><circle cx="23.143" cy="-.6" r="4.712" clip-path="url(#c)" filter="url(#a)"/><circle cx="24.308" cy="2.33" r="3.686" clip-path="url(#c)" filter="url(#a)"/><circle cx="22.773" cy="-1.065" r="3.138" clip-path="url(#c)" filter="url(#a)"/><circle cx="24.668" cy="-.825" r="4.852" clip-path="url(#c)" filter="url(#a)"/><circle cx="24.773" cy="-1.13" r="3.788" clip-path="url(#c)" filter="url(#a)"/><circle cx="24.453" cy="-2.315" r="4.624" clip-path="url(#c)" filter="url(#a)"/><circle cx="27.023" cy="-2.235" r="4.932" clip-path="url(#c)" filter="url(#a)"/><circle cx="22.258" cy="2.16" r="4.776" clip-path="url(#c)" filter="url(#a)"/><circle cx="24.148" cy="-1.71" r="4.51" clip-path="url(#c)" filter="url(#a)"/></g><g fill="none" stroke="#32CD32" stroke-linejoin="round" stroke-width="2"><path d="m-26.49-84.11 2.4-.53 1.37-.32 1.06-.25.83-.18.58-.08h.38l.25.08.15.16.05.26-.11.37-.35.51-.65.65-.97.8-1.34.96-1.72 1.13-2.14 1.3-2.59 1.52-3.06 1.74-3.54 1.98-3.99 2.24-4.46 2.52-5 2.89-5.67 3.31m113.02-.56.05.58-.23.68-.71.74-1.39.7-2.23.53-3.14.28-4.11.02-5.07-.18-6.05-.33-7.03-.46-8.04-.62-9.07-.8-10.13-1-11.24-1.21-12.4-1.41-13.58-1.63" filter="url(#a)"/><path d="m-23.02-84.81 1.6-.52 1.18-.3.72-.15.43-.07.3-.01.22.04.08.15-.15.26-.51.41-.94.57-1.47.77-2.03 1-2.62 1.25-3.23 1.51-3.85 1.74-4.52 1.98-5.27 2.26M-.02-88.48l1.62.03 1.67.07 1.55.12 1.47.13 1.47.15 1.44.15 1.38.17 1.24.17 1.08.16.89.16.7.13.53.12.33.08.13.05-.12.01-.43-.03-.81-.1-1.24-.15-1.68-.23-2.11-.3-2.5-.41" filter="url(#a)"/><path d="m13.6-87.35.82.29.21.31-.12.43-.48.52-.97.62-1.54.73-2.24.82-3.02.95-3.86 1.07-4.72 1.22L-7.91-79l-6.5 1.56-7.49 1.74-8.61 1.9-9.76 2.04m7.65-9.74 1.54-.58 1.36-.46 1.53-.51 1.72-.57 1.81-.57 1.79-.53 1.68-.47 1.53-.4 1.32-.35 1.12-.3.91-.24.73-.21.56-.16.38-.1.17-.04-.07.03-.33.11-.6.17-.94.24-1.43.33-2.14.51" filter="url(#a)"/><path d="m-34.5-80.49 1.31-.41 2.04-.39 2.65-.29 3.22-.2 3.78-.14 4.28-.1 4.71-.04 5.01.04 5.21.12 5.36.2 5.45.27 5.52.36 5.53.41 5.5.41 5.35.27m38.96 31.01.43.59.32.69.02.47-.35.11-.75-.32-1.18-.78-1.65-1.28-2.16-1.81-2.72-2.38-3.32-2.96-3.95-3.57-4.65-4.25-5.36-5.03-5.96-5.83" filter="url(#a)"/><path d="m-18.66-85.98.4-.11.68-.2.92-.2.99-.14.89-.04.7.07.45.17.18.3-.12.43-.43.56-.77.7-1.12.85-1.48.99-1.86 1.15-2.22 1.34-2.62 1.54-3.04 1.76-3.52 1.99-4.04 2.25-4.59 2.54-5.17 2.83-5.74 3.13-6.36 3.42m109.82-7.2 1.39 1.48.5.83-.02.67-.44.64-.83.67-1.18.7-1.57.73-1.99.72-2.48.68-3.01.58-3.58.49-4.15.38-4.71.31-5.29.25-5.87.18-6.47.14-7.09.09-7.75.06-8.4.01h-18.88l-10.56.01-11.3-.08" filter="url(#a)"/><path d="m66.3-54.02.71 1.92-.62.83-1.62.41-2.65.11-3.73-.17-4.87-.5-6.06-.86-7.27-1.23-8.55-1.6-9.87-1.94-11.24-2.3-12.58-2.68-13.89-3.06-15.24-3.37" filter="url(#a)"/><path d="m64.32-56.29.11.11.26.64.2.74-.03.66-.32.53-.63.37-.94.19-1.29.01-1.66-.18-2.06-.38-2.48-.61-2.93-.84-3.4-1.08-3.88-1.33-4.38-1.58L36-60.86l-5.41-2.03-5.91-2.26-6.4-2.52-6.85-2.83-7.27-3.23-7.7-3.64-8.32-3.99m25.46-5.99 1.1.3 1.05.3 1.29.4 1.51.45 1.65.48 1.69.51 1.66.5 1.59.47 1.46.45 1.31.4 1.14.36.94.31.71.24.42.14.1.03-.28-.1-.68-.26-1.08-.41-1.45-.53-1.82-.63m-45.13-1.99.53-.07.67-.16.96-.25 1.22-.29 1.36-.29 1.32-.25 1.16-.2.9-.14.59-.07.26.01-.09.08-.44.16-.82.23-1.27.3-1.79.37-2.39.49-2.88.59" filter="url(#a)"/><path d="m69.38-48.97.41.64.24.81-.11.68-.5.44-.92.17-1.35-.1-1.8-.39-2.25-.67-2.72-.94-3.19-1.18-3.72-1.46-4.27-1.77-4.88-2.14-5.52-2.57-6.19-2.99-6.86-3.37-7.55-3.68-8.25-3.98L1-75.8l-9.53-4.8" filter="url(#a)"/><path d="m-42.92-76.43 2.07-.76 2.19-.42 2.72-.37 3.38-.41 4-.45 4.54-.45 5.01-.43 5.39-.4 5.72-.4 5.97-.4 6.16-.39 6.35-.36 6.55-.3 6.73-.2m-1.98-2.78 1.46.25 1.53.43 1.55.57 1.68.71 1.77.81 1.75.83 1.69.83 1.61.8 1.54.8 1.49.78 1.4.73 1.28.66 1.12.56.92.43.71.32.49.19.24.08-.05-.07-.39-.25-.71-.5-.98-.73" filter="url(#a)"/><path d="m32.09-81.85.1.26.57.46.51.62.22.66-.15.66-.58.63-1.02.59-1.49.59-1.95.62-2.41.67-2.9.7-3.4.75-3.93.77-4.5.8-5.06.84-5.63.86-6.2.87-6.79.88-7.42.87-8.13.92-8.92 1.04-9.76 1.23" filter="url(#a)"/><path d="M71.57-44.84 73-42.68l.51 1.16.12.65-.06.43-.21.33-.41.19-.66-.07-.97-.44-1.32-.86-1.66-1.28-2-1.63-2.33-1.95-2.67-2.28-3.04-2.67-3.47-3.16-3.96-3.72-4.5-4.31-5.03-4.88-5.46-5.36-5.89-5.84" filter="url(#a)"/></g><path fill="none" stroke="#000" stroke-linejoin="round" stroke-width="3" d="M-12.07 22.58Q10.18 39.9-.945-5.836" filter="url(#a)"/><path fill="#D77F8C" stroke="#000" stroke-linejoin="round" stroke-width="3" d="m-34.56 55.52.47-.8.49-.78.5-.76.51-.73.53-.71.54-.69.55-.67.56-.64.58-.63.58-.6.6-.58.6-.57.62-.54.63-.52.64-.5.64-.48.66-.46.66-.44.67-.43.69-.4.68-.38.7-.37.7-.35.71-.33.72-.31.73-.29.72-.27.74-.26.74-.24.75-.23.75-.2.75-.19.76-.17.77-.16.76-.14.77-.13.78-.1.77-.1.78-.07.78-.07.78-.05.79-.03.78-.02h.79l.79.01.78.02.79.04.79.05.78.07.79.07.78.09.78.11.79.11.77.13.78.14.77.15.77.17.77.17.76.19.76.2.76.21.75.22.74.23.74.24.74.25.73.26.72.27.72.28.71.29.7.3.7.31.69.31.68.33.67.33.66.34.66.35.64.36.64.36.63.37.61.38.61.39.6.39.58.4.58.41.56.41.55.41.54.43.52.43.52.43.5.44.48.45.48.44.46.46.44.46.43.46.42.46.4.47.38.48.37.47-.65-.28-.66-.28-.65-.28-.66-.28-.65-.28-.66-.27-.65-.27-.66-.27-.65-.26-.66-.27-.65-.25-.66-.26-.65-.25-.66-.25-.65-.25-.66-.24-.65-.24-.66-.23-.65-.23-.66-.23-.65-.22-.66-.22-.65-.21-.66-.21-.65-.2-.66-.2-.65-.19-.65-.19-.66-.18-.65-.18-.66-.17-.65-.17-.66-.16-.65-.15-.66-.15-.65-.15-.66-.13-.65-.13-.66-.13-.65-.11-.66-.11-.65-.11-.66-.1-.65-.09-.66-.08-.65-.07-.66-.07-.65-.06-.66-.05-.65-.05-.66-.04-.65-.03-.66-.02-.65-.01h-1.31l-.66.01-.65.02-.66.03-.65.04-.65.05-.66.06-.65.07-.66.07-.65.09-.66.09-.65.11-.66.11-.65.13-.66.13-.65.15-.66.16-.65.16-.66.18-.65.19-.66.2-.65.21-.66.22-.65.23-.66.24-.65.26-.66.26-.65.28-.66.29-.65.31-.66.31-.65.33-.66.33-.65.36-.66.36-.65.38-.66.38-.65.41-.65.41-.66.43-.65.44-.66.46-.65.47-.66.48" filter="url(#a)"/></svg>