<svg xmlns="http://www.w3.org/2000/svg" width="500" height="500" viewBox="-100 -100 200 200"><defs><clipPath id="c"><path d="m33.78 2.12-.15-.6-.2-.62-.25-.63-.29-.64-.34-.64-.38-.64-.42-.63-.46-.64-.5-.63-.55-.61-.57-.61-.62-.59-.65-.58-.68-.56-.71-.54-.73-.85-.77-.8-.82-.77-.87-.72-.91-.67-.95-.63-.99-.57-1.03-.53-1.06-.47-1.1-.42-1.11-.36-1.15-.31-1.16-.26-1.18-.21-1.2-.15-1.21-.1-1.21-.06H8.34l-1.22.04-1.22.09-1.22.14-1.2.17-1.2.22-1.19.26-1.17.29-1.15.33-1.13.36-1.11.39-1.09.42-1.05.45-1.04.47-1 .5-.97.51-.93.53-.91.55-.86.56-.84.57-.8.59-.76.59-.72.59-.69.6-.65.61-.62.6-.58.6-.54.6-.51.6-.48.59-.44.59-.41.58-.39.58-.35.57-.33.56-.29.56-.27.55-.24.54-.21.54-.18.54-.15.52-.13.52-.1.5-.07.5-.05.49-.03.48V7l-1.15 4.91.4.18.4.17.42.16.42.16.44.15.45.14.46.14.47.13.47.12.49.12.5.11.51.1.52.1.53.09.54.08.55.07.56.07.58.06.59.06.6.04.61.04.63.03.63.03.65.02h.66l.67.01.68-.01.69-.01.7-.02.71-.03.72-.03.73-.04.74-.05.75-.05.77-.06.77-.06.78-.07.79-.07.8-.08.81-.08.82-.08.83-.09.83-.09.85-.09.86-.09.86-.09.87-.1.88-.09.89-.1.9-.09.91-.1.91-.09.92-.09.92-.09.93-.1.94-.09.94-.08.94-.09.94-.09.95-.09.95-.09.94-.09.94-.09.94-.09.75-.15.75-.15.74-.17.72-.18.71-.18.7-.2.69-.22.66-.22.65-.25.63-.26.6-.28.58-.29.56-.32.52-.35.5-.36"/></clipPath><clipPath id="b"><path d="m-30.92.76.37-.85.41-.86.44-.87.48-.88.51-.87.54-.86.58-.85.61-.84.64-.81.66-.8.69-.77.72-.75.75-.71.77-.68.79-.65.83-1.13.87-1.06.91-.98.94-.9.97-.82 1-.73 1.03-.65 1.06-.57 1.08-.47 1.1-.4 1.12-.31 1.14-.22 1.15-.15 1.15-.06 1.17.01 1.17.08 1.17.16 1.17.22 1.17.29 1.15.35 1.15.4 1.14.46 1.13.51 1.11.56 1.09.59 1.06.64 1.05.67 1.02.71 1 .73.96.75.94.78.9.79.87.81.84.81.8.83.77.82.72.83.7.83.65.83.62.82.57.81.54.8.5.8.47.78.42.76.39.75.36.74.32.72.28.71.26.69.22.68.19.66.15.65.12.63.09.62.06.6.03.59-.01.57-.04.56-.06.54-.1.52-.13.51-.15.5-.19.48 1.49 4.89-.54.11-.56.11-.57.1-.59.1-.59.09-.61.09-.63.08-.63.07-.64.07-.66.06-.67.06-.67.05-.69.04-.69.04-.71.03-.72.02-.74.02-.74.02h-1.52l-.78-.01-.79-.01-.79-.02-.8-.03-.81-.03-.81-.04-.81-.05-.83-.05-.82-.06-.83-.07-.83-.07-.83-.07-.83-.08-.83-.09-.83-.09-.83-.09-.83-.1-.82-.09-.83-.1-.82-.11-.82-.1-.81-.1-.81-.11-.81-.1-.8-.11-.8-.1-.8-.1-.79-.1-.79-.09-.78-.09-.77-.09-.78-.09-.76-.08-.76-.08-.76-.07-.75-.07-.75-.06-.74-.07-.73-.05-.73-.06-.72-.05-.71-.05-.71-.05-.7-.04-.57-.12-.57-.13-.56-.13-.54-.14-.53-.16-.52-.16-.5-.18-.48-.18-.47-.21-.45-.22-.44-.23-.41-.26-.39-.28-.36-.29-.35-.33"/></clipPath><filter id="a"><feTurbulence baseFrequency=".05" numOctaves="3" result="noise" type="noise"/><feDisplacementMap in="SourceGraphic" in2="noise" scale="2"/></filter></defs><rect width="100%" height="100%" x="-100" y="-100" fill="#C3B091"/><path fill="#C8A2C8" stroke="#000" stroke-linejoin="round" stroke-width="1.667" d="m77.54.45-.13-.1.02.74-.14 3.86-.01.55.11-.08-.09 1.71-.2.1-.19.84-.28 2.44.23-.46-.79 4.19.19-.56-.41 1.06-.2 1.12.02-.1-.6 2.26-.53 2.23-.22.14-.29 1.33-.69 2.04.05-.07-.33.75-.34.02-.36 1.81-.49.1-.91 2.3-.2 1.02-.09.3-.41.32-.79 1.67-1.3 2.71.27-1.02-1.26 2.15.18.06-1.28 2.1-.49.38.15-.21-1.58 1.92-.76 1.16-1.09 1.36-.08.28.01-.31-2.28 3.09-.86.88-.51.6.73-.59-1.65 1.61-.67.43-1.31 1.4-.79.85.11-.32-1.99 1.82-.97 1.23-2.38 1.58 1.42-.75-3.08 2.04-.27.35.55-.22-2.22 1.14.05.02-2.15 1.51-.03.12-1.99 1.02.88-.19-.56.08-3.24 2.1.3-.23-1.17.6-1.92.87-1.5.55-1.96 1.11.79-.26-2.62 1.1-.06-.14-1.33.57-2.07.65-1.54.57-.17.21-.52.12.04.03-3.47.83-1.64.48 1.79-.48-2.2.85-1.53.16-.88.25-2.86.62-.36.13.36-.19-2.39.45-.93-.04-1.1.17-1.52.37-1.89.09.2-.17-.65-.07-3.58.23.56.24-3.13.02-.43-.19.22.11-1.37.16-2.51-.16-.74-.18-1.15-.03-.46-.09-3.15-.14-1.29-.12-.06-.2-1.22-.22-2.64-.17.55-.02-.31-.1-1.44-.22-2.39-.34-.67-.25-1.58-.48-.93-.33-.85-.17-1.4-.48.06.07-3.47-1.1-.71-.24-.43-.16-.8-.09-.44-.22-2.25-1.07-.87-.51-1.71-.45-2.05-1.07.08.05-1.23-.78.12.02-2.85-1.12-1.51-1.16-.07-.15-.93-.6-.3-.23-1.28-.68-1.27-.68-1.8-1.37.87.49-2.34-1.75-.65-.14-.89-.76-1.37-1.04-.26-.44.26.28-.92-.9-2.27-2.09.31.51-1.94-1.67-.54-1.02-.74-.38-.67-.94-1.51-1.33.1-.31-.61-.89-1.2-1.12-1.28-1.69.78 1.08-1.43-2.17-1.88-2.21.89 1.4-2.28-3.51.59.93-.86-1.41-.59-1.11.13.1-1.55-2.5-.84-1.65-.5-.83.2-.32-.8-1.37-.55-1.1.39 1.44-.69-2.1-.35-.83-.63-1.36-.74-2.75-.79-1.4.22-.34-.27.21-.22-.82-.79-3.33.45 1.39-.48-1.64-.76-3.43.15.65-.34-.73-.17-1.2-.25-2.33-.08.25-.27-3.36.1 1.56.04-3.09-.42-1.83-.02.09.32-1.18-.22-.55.11-1.12.16-1.06-.29-.66.08-1.85.35-.53v-1.62l.08-1.72-.12.15.63-2.36.12-.9.24-.87-.04-1.74.15-.27.53-1.07.32-1.7-.4.88.97-2.83.85-2.86-.04-.47.2-.43.54-1.04.23-.4.86-2.14.11-.7.43-1.23.06.78 1-2.28.15-.32.51-1.52.81-1.15.8-1.75-.76 1.2 2.61-4.13-.33.68.1.18.93-1.95 1.1-1.4.06.16 1.03-1.77.99-1.06 1.02-1.07.83-1.06 1.09-1.3.33-.51-.6.49 2.1-1.9.07-.18.91-.94.36-.41 2.81-2.63-1.1.78.93-.63.37-.35 2.17-1.87 1.12-.91.96-.54 2.44-1.8-.93.59h.17l2.65-2.14-.3.62 1.8-1.45 2.19-1.26.11-.11.3-.21v.04l1.4-.81 1.22-.57 2.29-.98 1.03-.66 1.48-.54 1.84-1.02-2.22 1.17 3.75-1.58.32-.31 1.89-.76-.54.23.74-.11.84-.55 2.64-.71.52.07 1.23-.46 1.61-.46.44-.05 1.75-.57.37-.11 3.59-.64 1.28-.03-1.01.12 2.45-.38 2.07-.25.49-.35.83-.08.93.07.88-.12 1.25.04 1.68-.07 1.68-.19.93.08 1.17-.04 2.15-.02 1.07.16H3.1l2.96-.04-.76.08-.24-.15 3.57.29-.13.19 1.48-.08 3.33.44-.4.25.97-.01 1.22.33 1.04.09.69.19 1.97.26.64.32 2.88.55-.04.35 1.26.01 2.03.6 1.1.44-.9-.19 1.87.5 2.2.92 1.44.39.03.04 1.6.82 3.03 1.45-.65-.31.43-.05L37.49-63l1.89.88.21.08.32.49 1.11.49.35.02 3.22 2.03.54.72.67.17.05.22 1.51.75.82.84.31.06 3.12 2.38-.94-.39 1.79 1.46 1.04.79-.35-.49 1.28 1.15-.13-.01 2.13 2.27.5.1.92.98.52.58 1.32 1.35 1.86 2.4-.2-.33 1.54 1.55-.8-.65 2.05 2.51.42.34-.26.17.93 1.57.4.49 1.6 2.03.39.85.33.09-.41-.1 1.18 1.4.38 1.16 1.12 2.11.07.25 1.12 1.98.49 1.11.5 1.1.02.39-.02-.12 1.28 3.46h-.1l.47.97-.17.3.61 1.56.47 1.17.5 1.61.19 1.11.22 1.21.07.17.51 2.19-.04-.41.38 2.24.55 3.33-.15-.99-.02 1.65-.05-.01.4 2.57.04-.14.07 2.21-.07 1-.02 1.03-.13-.1" filter="url(#a)"/><path fill="#fff" d="m-30.92.76.37-.85.41-.86.44-.87.48-.88.51-.87.54-.86.58-.85.61-.84.64-.81.66-.8.69-.77.72-.75.75-.71.77-.68.79-.65.83-1.13.87-1.06.91-.98.94-.9.97-.82 1-.73 1.03-.65 1.06-.57 1.08-.47 1.1-.4 1.12-.31 1.14-.22 1.15-.15 1.15-.06 1.17.01 1.17.08 1.17.16 1.17.22 1.17.29 1.15.35 1.15.4 1.14.46 1.13.51 1.11.56 1.09.59 1.06.64 1.05.67 1.02.71 1 .73.96.75.94.78.9.79.87.81.84.81.8.83.77.82.72.83.7.83.65.83.62.82.57.81.54.8.5.8.47.78.42.76.39.75.36.74.32.72.28.71.26.69.22.68.19.66.15.65.12.63.09.62.06.6.03.59-.01.57-.04.56-.06.54-.1.52-.13.51-.15.5-.19.48 1.49 4.89-.54.11-.56.11-.57.1-.59.1-.59.09-.61.09-.63.08-.63.07-.64.07-.66.06-.67.06-.67.05-.69.04-.69.04-.71.03-.72.02-.74.02-.74.02h-1.52l-.78-.01-.79-.01-.79-.02-.8-.03-.81-.03-.81-.04-.81-.05-.83-.05-.82-.06-.83-.07-.83-.07-.83-.07-.83-.08-.83-.09-.83-.09-.83-.09-.83-.1-.82-.09-.83-.1-.82-.11-.82-.1-.81-.1-.81-.11-.81-.1-.8-.11-.8-.1-.8-.1-.79-.1-.79-.09-.78-.09-.77-.09-.78-.09-.76-.08-.76-.08-.76-.07-.75-.07-.75-.06-.74-.07-.73-.05-.73-.06-.72-.05-.71-.05-.71-.05-.7-.04-.57-.12-.57-.13-.56-.13-.54-.14-.53-.16-.52-.16-.5-.18-.48-.18-.47-.21-.45-.22-.44-.23-.41-.26-.39-.28-.36-.29-.35-.33" filter="url(#a)" transform="translate(33.05 -17.19)"/><path fill="#fff" d="m33.78 2.12-.15-.6-.2-.62-.25-.63-.29-.64-.34-.64-.38-.64-.42-.63-.46-.64-.5-.63-.55-.61-.57-.61-.62-.59-.65-.58-.68-.56-.71-.54-.73-.85-.77-.8-.82-.77-.87-.72-.91-.67-.95-.63-.99-.57-1.03-.53-1.06-.47-1.1-.42-1.11-.36-1.15-.31-1.16-.26-1.18-.21-1.2-.15-1.21-.1-1.21-.06H8.34l-1.22.04-1.22.09-1.22.14-1.2.17-1.2.22-1.19.26-1.17.29-1.15.33-1.13.36-1.11.39-1.09.42-1.05.45-1.04.47-1 .5-.97.51-.93.53-.91.55-.86.56-.84.57-.8.59-.76.59-.72.59-.69.6-.65.61-.62.6-.58.6-.54.6-.51.6-.48.59-.44.59-.41.58-.39.58-.35.57-.33.56-.29.56-.27.55-.24.54-.21.54-.18.54-.15.52-.13.52-.1.5-.07.5-.05.49-.03.48V7l-1.15 4.91.4.18.4.17.42.16.42.16.44.15.45.14.46.14.47.13.47.12.49.12.5.11.51.1.52.1.53.09.54.08.55.07.56.07.58.06.59.06.6.04.61.04.63.03.63.03.65.02h.66l.67.01.68-.01.69-.01.7-.02.71-.03.72-.03.73-.04.74-.05.75-.05.77-.06.77-.06.78-.07.79-.07.8-.08.81-.08.82-.08.83-.09.83-.09.85-.09.86-.09.86-.09.87-.1.88-.09.89-.1.9-.09.91-.1.91-.09.92-.09.92-.09.93-.1.94-.09.94-.08.94-.09.94-.09.95-.09.95-.09.94-.09.94-.09.94-.09.75-.15.75-.15.74-.17.72-.18.71-.18.7-.2.69-.22.66-.22.65-.25.63-.26.6-.28.58-.29.56-.32.52-.35.5-.36" filter="url(#a)" transform="translate(-42.85 -16.68)"/><g fill="none" stroke="#000" transform="translate(33.05 -17.19)"><path stroke-linejoin="round" stroke-width="1.667" d="m-32.46 7.21-.04-.36.01-.46.05-.52.1-.59.13-.65.18-.7.22-.75.26-.78.29-.8.34-.84.37-.85.41-.86.44-.87.48-.88.51-.87.54-.86.58-.85.61-.84.64-.81.66-.8.69-.77.72-.75.75-.71.77-.68.79-.65.83-1.13.87-1.06.91-.98.94-.9.97-.82 1-.73 1.03-.65 1.06-.57 1.08-.47 1.1-.4 1.12-.31 1.14-.22 1.15-.15 1.15-.06 1.17.01 1.17.08 1.17.16 1.17.22 1.17.29 1.15.35 1.15.4 1.14.46 1.13.51 1.11.56 1.09.59 1.06.64 1.05.67 1.02.71 1 .73.96.75.94.78.9.79.87.81.84.81.8.83.77.82.72.83.7.83.65.83.62.82.57.81.54.8.5.8.47.78.42.76.39.75.36.74.32.72.28.71.26.69.22.68.19.66.15.65.12.63.09.62.06.6.03.59-.01.57-.04.56-.06.54-.1.52-.13.51-.15.5-.19.48-.21.47-.24.45-.26.44-.29.43-.32.41-.34.41-.36.38-.39.38-.41.37-.44.35" filter="url(#a)"/><path stroke-linejoin="round" stroke-width="2.222" d="M-33.04 6.1v.68l.04.63.08.58.13.54.16.51.19.47.23.44.26.4.29.38.31.34.35.33.36.29.39.28.41.26.44.23.45.22.47.21.48.18.5.18.52.16.53.16.54.14.56.13.57.13.57.12.7.04.71.05.71.05.72.05.73.06.73.05.74.07.75.06.75.07.76.07.76.08.76.08.78.09.77.09.78.09.79.09.79.1.8.1.8.1.8.11.81.1.81.11.81.1.82.1.82.11.83.1.82.09.83.1.83.09.83.09.83.09.83.08.83.07.83.07.83.07.82.06.83.05.81.05.81.04.81.03.8.03.79.02.79.01.78.01h1.52l.74-.02.74-.02.72-.02.71-.03.69-.04.69-.04.67-.05.67-.06.66-.06.64-.07.63-.07.63-.08.61-.09.59-.09.59-.1.57-.1.56-.11.54-.11.53-.12.52-.13.5-.12.49-.14.48-.14.46-.14.44-.14.44-.16.42-.15.4-.16" filter="url(#a)"/><circle cx="-22.871" cy="1.989" r="3.376" clip-path="url(#b)" filter="url(#a)"/><circle cx="-23.201" cy="3.404" r="3.27" clip-path="url(#b)" filter="url(#a)"/><circle cx="-26.151" cy="6.239" r="4.268" clip-path="url(#b)" filter="url(#a)"/><circle cx="-22.376" cy="3.034" r="3.288" clip-path="url(#b)" filter="url(#a)"/><circle cx="-23.546" cy="2.909" r="3.032" clip-path="url(#b)" filter="url(#a)"/><circle cx="-23.546" cy="2.599" r="3.206" clip-path="url(#b)" filter="url(#a)"/><circle cx="-25.991" cy="5.379" r="4.684" clip-path="url(#b)" filter="url(#a)"/><circle cx="-22.086" cy="4.929" r="4.056" clip-path="url(#b)" filter="url(#a)"/><circle cx="-26.121" cy="5.399" r="3.026" clip-path="url(#b)" filter="url(#a)"/><circle cx="-25.271" cy="4.334" r="4.626" clip-path="url(#b)" filter="url(#a)"/></g><g fill="none" stroke="#000" transform="translate(-42.85 -16.68)"><path stroke-linejoin="round" stroke-width="2.222" d="m32.47 6.52.38-.23.32-.3.26-.35.21-.39.15-.44.1-.48.05-.51v-.55l-.06-.56-.1-.59-.15-.6-.2-.62-.25-.63-.29-.64-.34-.64-.38-.64-.42-.63-.46-.64-.5-.63-.55-.61-.57-.61-.62-.59-.65-.58-.68-.56-.71-.54-.73-.85-.77-.8-.82-.77-.87-.72-.91-.67-.95-.63-.99-.57-1.03-.53-1.06-.47-1.1-.42-1.11-.36-1.15-.31-1.16-.26-1.18-.21-1.2-.15-1.21-.1-1.21-.06H8.34l-1.22.04-1.22.09-1.22.14-1.2.17-1.2.22-1.19.26-1.17.29-1.15.33-1.13.36-1.11.39-1.09.42-1.05.45-1.04.47-1 .5-.97.51-.93.53-.91.55-.86.56-.84.57-.8.59-.76.59-.72.59-.69.6-.65.61-.62.6-.58.6-.54.6-.51.6-.48.59-.44.59-.41.58-.39.58-.35.57-.33.56-.29.56-.27.55-.24.54-.21.54-.18.54-.15.52-.13.52-.1.5-.07.5-.05.49-.03.48V7l.02.46.04.45.07.45.09.44.1.42.13.42.15.41.16.4.19.39.2.38" filter="url(#a)"/><path stroke-linejoin="round" stroke-width="2.222" d="m34.98 2.47-.04.71-.1.67-.15.63-.21.58-.25.55-.3.51-.35.49-.39.44-.42.42-.46.4-.5.36-.52.35-.56.32-.58.29-.6.28-.63.26-.65.25-.66.22-.69.22-.7.2-.71.18-.72.18-.74.17-.75.15-.75.15-.94.09-.94.09-.94.09-.95.09-.95.09-.94.09-.94.09-.94.08-.94.09-.93.1-.92.09-.92.09-.91.09-.91.1-.9.09-.89.1-.88.09-.87.1-.86.09-.86.09-.85.09-.83.09-.83.09-.82.08-.81.08-.8.08-.79.07-.78.07-.77.06-.77.06-.75.05-.74.05-.73.04-.72.03-.71.03-.7.02-.69.01-.68.01-.67-.01h-.66l-.65-.02-.63-.03-.63-.03-.61-.04-.6-.04-.59-.06-.58-.06-.56-.07-.55-.07-.54-.08-.53-.09-.52-.1-.51-.1-.5-.11-.49-.12-.47-.12-.47-.13-.46-.14-.45-.14-.44-.15-.42-.16-.42-.16-.4-.17-.4-.18-.38-.18-.37-.19-.36-.2-.35-.2-.34-.2-.33-.21-.32-.22-.3-.22-.3-.22-.29-.23" filter="url(#a)"/><circle cx="-1.093" cy="-9.419" r="3.402" clip-path="url(#c)" filter="url(#a)"/><circle cx="-.668" cy="-10.439" r="3.764" clip-path="url(#c)" filter="url(#a)"/><circle cx="-.158" cy="-9.879" r="3.696" clip-path="url(#c)" filter="url(#a)"/><circle cx="1.057" cy="-9.969" r="4.838" clip-path="url(#c)" filter="url(#a)"/><circle cx="-2.478" cy="-6.064" r="4.846" clip-path="url(#c)" filter="url(#a)"/><circle cx="-2.103" cy="-9.859" r="3.994" clip-path="url(#c)" filter="url(#a)"/><circle cx="-.513" cy="-10.169" r="4.342" clip-path="url(#c)" filter="url(#a)"/><circle cx="-1.803" cy="-9.604" r="4.822" clip-path="url(#c)" filter="url(#a)"/><circle cx=".287" cy="-9.874" r="3.964" clip-path="url(#c)" filter="url(#a)"/><circle cx="-.663" cy="-5.969" r="4.678" clip-path="url(#c)" filter="url(#a)"/></g><g fill="none" stroke="#2C222B" stroke-linejoin="round" stroke-width="2"><path d="m73.95 9.67.24-.33.28-.92.31-.9.33-.84.33-.84.32-.93.29-1.04.26-1.09.19-1.1.11-1.06V-.4l-.09-1.02-.14-1.03-.15-1.04-.08-1.05.01-1.02.1-.99.13-1.03.09-1.16-.02-1.37-.09-1.38.08-.54M-34.74-64.29l-1.28.72-1.32.87-.95 1.02-.53 1.13-.28 1.11-.26 1.03-.33 1.05-.37 1.17-.38 1.31-.42 1.28-.55 1.04-.71.67-.81.42-.73.52-.49 1-.18 1.65-.05 2.12-.66 2.09 6.98-18.56 1.79-.85 1.36-.7 1.1-.6.95-.51.9-.46.91-.45.92-.45.89-.45.86-.45.86-.45.91-.49.97-.54 1.04-.59 1.08-.61 1.1-.57 1.11-.52 1.17-.46 1.29-.44 1.52-.45 1.84-.44 1.79-.21-18.6-3.45.1.88-.88.77-1.05.88-.9 1.04-.77 1.14-.79 1.18-.92 1.13-1.05 1.05-1.11.96-1.05.89-.94.83-.85.74-.85.63-.91.54-.99.54-1.01.65-.91.84-.71 1.06-.45 1.23-.25 1.3-.26 1.26-.52 1.14-.86 1.04-.96.97-8.02 7.64-.53.73-.76.97-.83 1.04-.85 1.05-.81 1.04-.76 1-.7.97-.62.94-.57.9-.54.89-.51.87-.52.91-.52.96-.51 1-.5 1.04-.49 1.08-.48 1.1-.47 1.19-.62 1.63" filter="url(#a)"/><path d="m-70.33-30.01.85-1.22.73-1.09.78-.93.85-.83.99-.67 1.18-.51 1.29-.42 1.25-.45 1.09-.58.94-.72.86-.81.88-.81 1.01-.71 1.16-.55 1.3-.34 1.36-.16 1.31-.08 1.21-.09 1.1-.15 1.07-.24 1.13-.3 1.55-.32 2.99-.22-28.63 15.95-.76-1.09-.35-.92.39-.72.59-.81.5-.98.38-1.11.33-1.16.34-1.16.38-1.11.41-1.07.39-1.05.34-1.04.3-1.08.29-1.14.31-1.19.36-1.26.45-1.3.54-1.35.63-1.36.72-1.36.85-1.4M67.62-35.15l.77-.15.29.53.48.89.61 1.09.65 1.18.66 1.17.64 1.13.63 1.05.61.98.59.94.54.94.49.94.42.96.37.99.34 1 .34 1.03.37 1.08.41 1.12.42 1.14.44 1.1.42 1.03.42.95.4.86.39.29M45.13-58.29l1.17-.54 2.01-1.19 2.79-1.7 2.66-1.24 1.85-.15 1.01.87.5 1.38.43 1.34.67.98.99.58 1.25.32 1.4.25 1.53.28 1.64.32 1.81.33 1.96.34 2.1.35 2.18.38 2.17.37 2.13.24 2.14.03 2.28.02 1.9 1.74-53.86-13.42.32 1.81.68 1.03.91.91.95.77.93.57.94.4.9.43.73.68.41 1.11.1 1.51-.05 1.71.12 1.63.54 1.29.95.9.84.84-.35 1.64-15.22-19.5-.19-2.61-.95-.82-1.3-.39-1.35-.33-1.25-.47-1.09-.84-.94-1.29-.86-1.68-.87-1.89-.96-1.96-1.08-1.93-1.2-1.77-1.26-1.41-1.27-.89-1.21-.31-1.15.02-1.07-.16-1.06-.86-1.14-1.77-1.33-2.37-1.65-2.28-1.74-1.43 15.26 25.34 1.15-.06 1.2-.52 1.23-.29 1.27.07 1.3.25 1.33.23 1.31.15 1.29.07 1.26-.05 1.25-.2 1.29-.36 1.38-.46 1.55-.4 1.65-.21 1.46-.06.78-.24" filter="url(#a)"/><path d="m12.91-70.77.99.09 1.03.17 1.06.19 1.14.23 1.2.28 1.25.31 1.25.33 1.21.35 1.15.34 1.1.33 1.05.35 1.04.36 1.06.4 1.1.45 1.15.5 1.19.53 1.19.57 1.16.57 1.07.53.88.43.76.39 1.2.66m-48.91-8.57-6.46.39-4 .53-3.49.57-2.68.59-1.96.6-1.61.65-1.64.71-1.91.79-2.44.88-3.12.98-3.88 1.03-4.52 1.08-4.84 1.13-4.8 1.16-4.43 1.22-3.93 1.27-3.48 1.33-3.2 1.38-3.07 1.43-3.04 1.47-3.04 1.51-3.06 1.57-3.19 1.63-3.54 1.71-4.17 1.79-5.04 1.86-5.96 1.92-6.72 1.96-7.13 1.98-7.16 1.98-6.75 1.99-5.75 1.96-4 1.82-3.46 1.15" filter="url(#a)"/><path d="m-11.77-70.98-2.34.38-2.93.53-2.76.56-2.52.57-2.39.6-2.42.62-2.63.68-2.9.76-3.15.86-3.28.96-3.32 1.02-3.32 1.07-3.36 1.09-3.43 1.11-3.53 1.17-3.65 1.24-3.77 1.31-3.91 1.37-3.95 1.4-3.72 1.42-3.12 1.44-2.41 1.49-2.13 1.5-2.65 1.37" filter="url(#a)"/><path d="m-14.22-70.6-1.04.19-2.32.5-2.43.63-2.18.68-1.88.72-1.64.75-1.47.79-1.36.83-1.22.88-.96.93-.51.98.19 1.05 1.03 1.1 1.83 1.17 2.36 1.24 2.44 1.31 2.03 1.39 1.32 1.48.74 1.54.61 1.57 1.06 1.54 1.73 1.46 2.34 1.35 3.1 1.28 2.54 1.65" filter="url(#a)"/><path d="m-14.49-70.69-4.48.7-3.52.7-4.63.71-5.52.73-5.33.75-4.42.8-3.4.84-2.53.89-1.91.94-1.62.99-1.83 1.06-2.55 1.12-3.64 1.18-4.8 1.26-5.74 1.33-6.24 1.4-6.28 1.47-6.03 1.53-5.7 1.54-5.54 1.52-5.65 1.49-5.96 1.48-6.33 1.51-6.69 1.63-7.09 1.83-7.04 2.11-6.29 2.68" filter="url(#a)"/><path d="m-28.22-67.1-2.01.81-2.4.91-2.89.89-3.48.93-3.76.99-3.69 1.06-3.55 1.13-3.52 1.19-3.58 1.26-3.65 1.33-3.7 1.41-3.84 1.48-4.19 1.53-4.8 1.54-5.54 1.51-6.17 1.48-6.37 1.45-5.89 1.5-4.74 1.61-3.68 1.82-4.16 2.11-6.05 2.66m80.6-25.58-1.16.77-1.48 1.1-1.48 1.27-1.33 1.32-1.3 1.37-1.33 1.47-1.29 1.53-1.07 1.56-.69 1.55-.23 1.54.15 1.54.37 1.55.39 1.61.26 1.65.08 1.71-.06 1.76-.13 1.8-.14 1.83-.08 1.88.01 1.91.11 1.94.21 1.96.33 2.01.49 2.07.73 2.16.98 2.25 1.02 2.32.82 2.31.61 2.15m-3.11-44.57-6.09 1.29-2.96 1.41-2.31 1.43-1.81 1.46-1.65 1.53-2.02 1.6-2.66 1.68-3.15 1.77-3.27 1.85-2.99 1.9-2.53 1.94-2.1 1.96-1.91 1.95-2.04 1.95-2.55 1.93-3.32 1.92-4.22 1.92-4.98 1.94-5.41 1.99-5.35 2.04-4.79 2.1-3.9 2.15-2.88 2.18-1.97 2.19-1.31 2.2-.95 2.2-.92 2.18-1.32 2.16-2.24 2.11-3.51 2.03-4.29 1.89-4.47 1.73m88.81-55.07-2.49 1.65-1.53 1.49-1.56 1.43-1.64 1.48-1.66 1.6-1.64 1.7-1.57 1.75-1.46 1.79-1.34 1.81-1.28 1.84-1.29 1.89-1.36 1.92-1.41 1.95-1.41 1.99-1.36 2.03-1.26 2.09-1.2 2.15-1.2 2.19-1.27 2.22-1.37 2.2-1.42 2.2-1.36 2.22-1.22 2.28-1.13 2.36-1.31 2.31-1.67 1.94" filter="url(#a)"/><path d="m-70.33-30.01-2.47 1.98-2.81 1.7-4.35 1.81-3.96 1.99-2.1 2.13-.27 2.21.75 2.22.93 2.22.59 2.2.07 2.18-.48 2.17-.96 2.14-1.33 2.11-1.52 2.09-1.52 2.08-1.3 2.1-.95 2.14-.58 2.19-.28 2.23-.11 2.25-.08 2.27-.13 2.24-.25 2.21-.35 2.16-.43 2.11-.47 2.05-.45 1.99-.33 1.96-.07 1.94.34 1.98.82 2.03 1.13 2.02 1.04 1.91.62 1.72.38 1.64.76 2.15" filter="url(#a)"/><path d="m-70.33-30.01-2.16 1.97-4.82 1.69-4.47 1.79-2.29 1.97-.57 2.12-.09 2.2-.4 2.21-.88 2.21-1.08 2.19-.99 2.18-.73 2.16-.59 2.13-.73 2.09-1.19 2.07-1.86 2.06-2.45 2.07-2.69 2.11-2.42 2.16-1.75 2.24-.96 2.27-.38 2.28-.26 2.26-.58 2.22-1.1 2.17-1.47 2.15-1.42 2.1-.97 1.95-.36 1.71.06 1.57-.64 2.01M70.22-30.49l9.54-2.49 5.38-1.8-2.76-1.72-4.75-1.78-3.32-1.84-1.37-1.82.09-1.78.93-1.72 1.25-1.66 1.07-1.62.45-1.57-.41-1.53-1.19-1.49-1.67-1.43-1.89-1.36-2-1.31-2.19-1.25-2.55-1.2-2.9-1.16-3.06-1.12-2.91-1.08-2.54-1.02-2.16-.98-1.97-.93-2.01-.86-2.1-.79-2.14-.73-2.27-.66-2.96-.63-4.81-.54" filter="url(#a)"/><path d="m67.54-35.16 1.37-.86 2.66-1.56 4.47-1.62 3.49-1.59 1.6-1.66.66-1.77.71-1.84.98-1.8.7-1.7-.25-1.55-1.52-1.42-2.57-1.35-2.96-1.33-2.69-1.34-2.09-1.34-1.59-1.3-1.4-1.23-1.37-1.13-1.3-1.03-.97-.95-.65-.98-3.48-1.47" filter="url(#a)"/><path d="m64.56-40.26.25-2.18 1.24-1.74.37-1.65-.66-1.61-1.01-1.58-.56-1.55.07-1.51.25-1.48-.29-1.42-1.28-1.35-2.31-1.28-3.04-1.23-3.28-1.18-3.15-1.14-2.82-1.11-2.49-1.06-2.29-1.01-2.16-.96-2.09-.91-2.03-.84-2.05-.78-2.24-.71-2.6-.65-2.97-.59-3.03-.52-2.43-.42-.93-.3" filter="url(#a)"/><path d="m64.14-40.6-1.39-1.78-1.81-2-1.98-2.08-1.93-1.93-1.8-1.7-1.71-1.5-1.69-1.39-1.74-1.34-1.8-1.33-1.87-1.33-1.92-1.29-1.94-1.25-1.96-1.19-1.98-1.12-2.03-1.07-2.07-1.01-2.13-.96-2.2-.92-2.24-.86-2.28-.79-2.31-.74-2.31-.66-2.31-.59-2.28-.53-2.26-.47-2.22-.4-2.21-.33-2.18-.26-2.15-.2-2.11-.12-2.11-.07h-2.25l-2.51.07" filter="url(#a)"/><path d="m62.89-42.46-.11-1.85-.07-2.21-1.08-2-1.75-1.69-1.89-1.45L56.18-53l-1.71-1.31-1.67-1.32-1.66-1.33-1.71-1.3-1.77-1.26-1.87-1.18-1.98-1.12-2.1-1.06-2.23-1.01-2.31-.96-2.38-.93-2.41-.87-2.44-.8-2.47-.74-2.48-.67-2.46-.6-2.44-.54-2.44-.47-2.5-.42-2.58-.37-2.64-.28-3.16-.17" filter="url(#a)"/><path d="m61.55-43.68 1.05-2.93-.57-2.13-.72-1.67.18-1.41 1.48-1.3 2.18-1.3 1.68-1.32.22-1.33-1.53-1.31-2.91-1.25-3.54-1.18-3.48-1.11-3.04-1.06-2.57-1-2.31-.96-2.34-.9-2.57-.85-2.91-.79-3.24-.72-3.47-.66-3.59-.58-3.57-.52-3.47-.45-3.35-.39-3.3-.32-3.35-.25L9-71.56l-3.76-.12-4.04-.07-4.35-.01-4.56.03-4.53.07-4.14.14-3.62.29" filter="url(#a)"/><path d="m54.43-51.35-1.23-1.14-.57-1.52.88-1.46 1.04-1.31-.14-1.23-1.63-1.18-2.57-1.16-2.81-1.13-2.59-1.08-2.32-1.04-2.21-.99-2.25-.93-2.38-.87-2.45-.81-2.42-.74-2.32-.67-2.23-.61-2.24-.55-2.38-.47-2.61-.41-2.85-.35-3.06-.28-3.21-.21-3.38-.15-3.64-.09-4-.03-4.39.02-4.64.07-4.64.11-4.44.19-4.62.39" filter="url(#a)"/><path d="m50.67-54.26-2.53-1.56-2.76-1.19-3.04-1.12-3.04-1.14-2.84-1.16-2.61-1.13-2.47-1.08-2.45-1.04-2.52-.98-2.65-.92-2.68-.87-2.59-.8-2.32-.74-1.97-.66-1.64-.61-1.44-.53-1.4-.48-1.46-.4-1.54-.34-1.56-.28-1.48-.21-1.31-.15-1.13-.09-.94-.02-.78.02-.55.07-.26.11.09.19.25.39" filter="url(#a)"/><path d="m44.59-59.01 2.02-1.6-3.08-1.2-3.4-1.05-2.84-1-2.32-.96-1.95-.91-1.74-.85-1.69-.79-1.79-.72-1.97-.65-2.17-.59-2.31-.53-2.42-.47-2.51-.4-2.59-.33-2.65-.28-2.7-.21-2.78-.14-2.92-.09-3.21-.02-3.56.02-3.83.08-3.73.11" filter="url(#a)"/><path d="m22.28-68.69-2.44-.73-1.71-.53-1.38-.43-1.6-.38-2.01-.31-2.35-.26-2.54-.18-2.66-.13-2.76-.06-2.87-.02-2.99.04-3.13.09-3.28.15-3.48.21-3.78.28-4.19.35-4.75.43-5.38.5-5.82.6-5.77.65-5.32.68-4.93.64" filter="url(#a)"/><path d="m18.8-69.91-1.49-.41-2.12-.36-2.35-.32-2.41-.27-2.36-.21-2.34-.14-2.41-.08-2.54-.02-2.7.04-2.86.09-3.01.16-3.16.22-3.33.3-3.49.36-3.65.43-3.74.49-3.77.53-3.76.57-3.77.61-3.88.66-4.11.72-4.4.81-4.62.92-4.58 1-4.21 1.06-3.68 1.06-3.32 1.04-3.62 1.04-4.75 1.2-6.73 1.65" filter="url(#a)"/><path d="m13.31-71.02-3.71-.34-2.35-.23-2.01-.12-2.2-.05H.56l-2.64.05-2.7.1-2.7.18-2.72.24-2.76.32-2.85.39-2.95.44-3.02.51-3.02.55-2.97.59-2.88.64-2.83.71-2.83.77-2.9.84-2.99.92-3 .99-2.92 1.05-2.75 1.09-2.56 1.14-2.52 1.18-2.73 1.25-3.21 1.31-3.82 1.37-4.41 1.41-4.69 1.44-4.52 1.46-3.93 1.5-3.11 1.52-2.42 1.53-2.25 1.62" filter="url(#a)"/></g><g fill="none" stroke="#000"><circle cx="10.016" cy="10.362" r="2.1" filter="url(#a)"/><circle cx="9.66" cy="13.69" r="1.06" filter="url(#a)"/><circle cx="8.204" cy="10.246" r="2.428" filter="url(#a)"/><circle cx="6.844" cy="10.95" r="1.426" filter="url(#a)"/><circle cx="9.544" cy="10.174" r="1.414" filter="url(#a)"/><circle cx="8.38" cy="10.562" r="1.718" filter="url(#a)"/><circle cx="8.884" cy="10.518" r="2.808" filter="url(#a)"/><circle cx="7.412" cy="11.194" r="2.238" filter="url(#a)"/><circle cx="10.42" cy="11.162" r="1.624" filter="url(#a)"/><circle cx="9.604" cy="12.47" r="2.232" filter="url(#a)"/><circle cx="-12.196" cy="18.296" r="1.158" filter="url(#a)"/><circle cx="-11.536" cy="18.12" r="1.736" filter="url(#a)"/><circle cx="-11.08" cy="18.452" r="2.534" filter="url(#a)"/><circle cx="-13.828" cy="15.284" r="2.412" filter="url(#a)"/><circle cx="-13.916" cy="18.5" r="2.994" filter="url(#a)"/><circle cx="-14.652" cy="16.416" r="2.056" filter="url(#a)"/><circle cx="-13.768" cy="17.58" r="1.588" filter="url(#a)"/><circle cx="-14.068" cy="15.18" r="2.54" filter="url(#a)"/><circle cx="-14.092" cy="15.852" r="2.118" filter="url(#a)"/><circle cx="-10.72" cy="18.392" r="2.498" filter="url(#a)"/></g><path fill="#D77F8C" stroke="#000" stroke-linejoin="round" stroke-width="3" d="m1.02 46.79.17 1.53.08.01-.15.47.06.44-.05.35-.17.37.09-.33-.08.68-.27.79-.28.47.07-.1-.23.55-.2.25-.12.33-.45.56-.2.33.18-.3-.06.12-1.05 1.16-.11.21-.08.11-.45.33-.01.01-.04.02-.88.85-.95.66.18-.08-.48.28.49-.34-1.72 1.12-.3.17.56-.32-.13.09-1.33.66-.76.36-.3.15-1.18.46 1.24-.46-1.31.49-.21.1-1.18.4-.55.16-.01.01h.01l-1.16.3-1.33.3.96-.21-1.65.33-.86.14-.51.07-.48.05.55-.06-.83.09-.09.01-1.49.1-1.08.03.04-.01-1.08-.02.44.03-.16-.01-1.71-.07-.8-.1-.77-.08-.61-.12 1.13.17-2.16-.37-.27-.09 1.08.24-.96-.15-1.7-.47.27.02-.62-.2.01.06.08-.02-.88-.33-1.6-.66.89.43-1.57-.88-.17.01.03-.02-.36-.32-.92-.54.62.47-.9-.74-.09-.1-.54-.43.23.15-.56-.64-.25-.19-.22-.19-.46-.9-.22-.31.03.2-.2-.32-.32-.84-.06-.44.06.3-.01-.01-.2-1.2-.05.54-.09-1.44-.05-.22.13-.37-.03.65.04-.9-.07.11-.02-.12.4-1.36-.2.43.35-.9.32-.68-.02-.02-.21.43.19-.55.86-1.22-.47.73.31-.64.58-.66.5-.63-.49.51 1.17-1.15-.2.19.01-.1.62-.52-.03.08 1.07-.94.63-.39-.32.18.62-.38.02-.02.55-.35 1.16-.72-.28.21 1.4-.75.14-.07.69-.29.89-.34-.99.38 1.78-.68-.87.33 1.41-.51.81-.23-.7.2.79-.22 1.75-.44.45-.11.19-.03.61-.11-.17.03 2.1-.31-.55.07.31-.04 1.79-.14.61-.04h-.22l-.08.02.37-.02.55-.01 2.17.06-.46-.04h.26l.79.08.6.05.12.03.21.02 1.76.26-.16-.02 1.26.29.04.01.14.05 1.51.47.38.1.37.19-.74-.33.41.17 1.54.66-.19-.13.91.56-.5-.34.85.49.52.39.15-.01.42.33-.12-.06.8.57.69.82-.47-.53.7.73.08.1.27.4.18.2-.07.02.73 1.31.02-.09.02.12.28.74.14.22-.08.36.16-.01" filter="url(#a)"/></svg>