<svg xmlns="http://www.w3.org/2000/svg" width="500" height="500" viewBox="-100 -100 200 200"><defs><clipPath id="c"><path d="m37.27 9.17-.56-.43-.58-.43-.61-.45-.64-.46-.67-.46-.69-.47-.71-.48-.74-.48-.75-.49-.78-.48-.8-.48-.81-.49-.83-.48-.84-.47-.86-.47-.95-.61-.97-.61-1-.59-1.01-.58-1.03-.57-1.05-.54-1.06-.53-1.08-.51-1.08-.48-1.09-.47-1.09-.43-1.09-.41-1.09-.38-1.09-.35-1.08-.32-1.08-.29-1.07-.26-1.05-.23-1.05-.2-1.02-.17-1.01-.13-1-.1-.97-.08-.95-.04-.93-.01-.9.02-.88.05-.86.08-.83.1-.8.13-.77.16-.75.18-.72.2-.69.22-.66.25-.64.26-.6.28-.58.29-.55.31-.53.32-.5.33-.48.34-.45.35-.43.35-.4.36-.39.36-.37.36-.34.35-.34.36-.31.35-.31.35-.28.35-.27.34-.26.34-.25.34-.23.33-.22.33-.21.32-.19.31-.19.31-.18.3-.16.29-.16.28-.15.27.58 6.25.11-.05.13-.06.13-.07.14-.07.15-.08.17-.08.17-.09.18-.09.2-.1.21-.1.22-.1.24-.11.25-.1.26-.12.28-.11.3-.12.31-.12.32-.12.35-.12.37-.13.38-.13.41-.12.44-.12.45-.13.48-.12.51-.11.53-.11.56-.11.59-.11.62-.09.64-.09.67-.09.7-.07.72-.07.76-.05.78-.05.81-.04.83-.03.86-.01.88-.01.91.01.93.02.95.03.98.05.99.05 1.01.08 1.03.08 1.04.1 1.05.11 1.06.12 1.08.13 1.08.15 1.08.16 1.09.18 1.09.18 1.09.19 1.08.21 1.08.22 1.07.22 1.06.23 1.04.24 1.03.25 1.02.25.99.26.88.18.87.19.85.19.84.19.83.2.81.19.79.19.77.19.75.19.73.18.7.18.68.17.65.17.63.17.6.15"/></clipPath><clipPath id="b"><path d="m-39.39 6.25.65-.37.68-.38.71-.39.74-.39.76-.4.79-.4.81-.4.83-.39.84-.4.86-.39.88-.39.89-.38.89-.37.91-.37.92-.36 1.09-.51 1.09-.5 1.11-.48 1.11-.46 1.12-.44 1.11-.41 1.12-.39 1.11-.36 1.1-.34 1.09-.31 1.09-.28 1.08-.25 1.06-.22 1.04-.2 1.03-.17 1.01-.14.99-.11.98-.08.95-.06.92-.03.91-.01.88.02.85.04.83.07.8.08.78.11.75.13.72.15.7.16.67.18.64.19.62.21.59.22.57.23.54.24.51.25.49.25.47.26.45.27.42.26.41.27.38.27.36.27.35.26.33.27.32.26.3.25.28.25.28.24.26.23.26.23.24.22.23.21.23.21.21.19.21.19.2.18.19.18.18.16.18.15.18.14.16.13.16.13.16.11-.4 4.28-.05-.04-.05-.05-.06-.05-.06-.06-.07-.06-.07-.06-.08-.07-.09-.07-.1-.07-.11-.08-.12-.08-.12-.07-.14-.09-.14-.08-.16-.08-.17-.09-.18-.08-.2-.09-.2-.09-.23-.09-.24-.08-.26-.09-.28-.08-.3-.08-.32-.08-.34-.07-.37-.06-.39-.07-.42-.05-.44-.05-.47-.04-.5-.04-.53-.03L5 5.03l-.59-.01H3.15l-.68.02-.71.03-.74.03-.78.04-.8.06-.84.06-.86.08-.89.08-.93.09-.95.1-.98.12-1.01.12-1.03.12-1.06.14-1.08.14-1.1.16-1.13.15-1.14.17-1.16.17-1.17.17-1.18.18-1.2.18-1.2.19-1.21.19-1.21.18-1.21.19-1.21.19-.99.15-.99.15-.98.14-.97.15-.96.15-.95.14-.94.14-.92.13-.91.14-.88.13-.87.12-.84.12-.81.11-.78.11-.76.1"/></clipPath><filter id="a"><feTurbulence baseFrequency=".05" numOctaves="3" result="noise" type="noise"/><feDisplacementMap in="SourceGraphic" in2="noise" scale="2"/></filter></defs><rect width="100%" height="100%" x="-100" y="-100" fill="#E0B0FF"/><path fill="#C8A2C8" stroke="#000" stroke-linejoin="round" stroke-width="1.667" d="m64.23-.92.21 1.99-.14-.18-.16 5.29.31-2.7-.26 5.59-.13-2.17-.18 3.18-.2 3.47.08-.24-.35 2.46.19.49-.55 3.82-.09.81-.47 2.5-.01-.67-.34 2.03-.62 3.39.11-1.02.09.55-.51 1.08-.21 1.33.06.51-.51 2.03-.9 2.69-.98 3.74.29-.14-.62 1.17-.15 1.1v-.31l-1.17 3.83.15-.89-.74 2.3-1.31 3.1.44-.74-1.32 3.25.13.07-.94 1.7-.5 1.2-.47.98.38-.88-.7 2.07-1.23 2.09-.75 1.79-.07-.02-2.13 3.41.41-.6-1.35 2.5-.49.43.11-.32-.57 1.35-1.48 2.09-.41.07.21.11-1.38 1.86-1.26 1.76-.77.77-.36.79-.4.08-1.11 1.52-2.1 2.07-.58.63-.09.16-2.24 1.98.67-.46-.49.6-1.86 1.77-.27.18-1.35 1.14-.9.71-.92.66-.44.35-.88.76.07-.37-2.51 1.88-2.15 1.45 1.06-.92-1.55.99-.75.25.03.48-2.17.64-.39.26-1.87.94h.59l-2.26.68-1.46.29.46.29-2.3.52-.15-.17-1.37.72-.87.27.38-.17-3.48.56.64.09-1.66-.01-.39.3-1.41-.14-.1.3-1.14-.13-2.1.16-1.16.06-1.44-.2-1.17.07.96-.08-.74.27-2.45-.6-.89-.14-1.87.07-.22-.33v.36l-2.63-.7.38.22-1.05-.51-1.27-.24-1.94-.53.8-.24-2.85-.93-.3.02-1.45-.44.85.4-1.86-.71-1.28-.89-.74-.18.01-.42-1.52-.66.06.09-2.16-1.47-1.65-1.05-1.16-1.04-1.05-.52-.54-.38-.74-.61-1.45-1.19-.01.04-.31-.63-.89-.45-1.99-1.83-.51-.39-.58-.5-.57-.86-1.85-2.09-1.53-1.5.87.95-.97-1.21-.6-.29-1.33-1.58-1.43-2.23.73 1.1-1.08-1.49-1.22-2.04-.34-.53-1.39-2.12-.03-.01-.88-1.08-.65-1.4-1.19-2.09.07.24-.76-1.42-.52-1.46-.83-.87-.38-1.58-1.47-2.81.43 1.03-1.25-3.25-.56-1.06.25.78-.07-.25-1.63-3.84-.63-1.73.28.43-.6-1.72.18.43-1.81-5.81.25 1.09-.81-2.7.1.85-.56-2.37-.79-3.18.31.81-.91-3.71-.24-1.63v1.06l-.62-3.04.01-.24-.5-3.12-.13-.64.16.63-.51-3.95-.31-2.77.09 1.8-.28-1.92.02-.08-.28-3.39-.03.24-.27-4.56-.18.29.01-1.22-.14-3.88-.05.28.24-.17V-.14l.01-2.01-.09.16-.08-2.31.24-1.71-.01-1.25.07-3.25.28-.62-.2-.04.33-3.31v-.68l.2-2.18.65-2.67-.2.43-.03-.82.2-1.39.4-1.45.15-1.62.44-1.87.21-.25.59-3.14.17-.9.41-2.58.24-.02-.19-.29 1.25-4.18-.24 1.43.64-3.27.41-1.3-.03.94 1.1-3.62.47-1.16.16-.55.92-2.72.61-1.49-.57 1.32 1.32-2.77 1.47-3.88-.36 1.2.51-1.33-.2.53 1.23-2.11 1.28-2.94.31-.38.49-1.3.07.12.6-1.31.74-.9 1.02-1.49-.18-.48 1.53-1.77 1.2-1.66 1.62-2.47-.25.23-.6 1.04 2.53-3.75.5-.67 1.92-1.88-.88.81 1.11-1.13.79-1.23 1.86-1.98-.96.94.3-.22 2.43-2.01.77-1.06.15-.24.54-.33 1.13-.91 1.12-.94 1.42-1.44.54-.34-.01.08 1.1-.92.43.09 2.37-1.65.78-.6 1.36-.6.74-.62 1.29-.5-.88.48 3.49-1.55.8-.45-1.34.35 3.46-1.13-.99.16 1.55-.66 1.23-.47 1.38-.09.57-.14 1.79-.78.25.3 2.28-.73.6.35.78-.45 1.01-.14.6-.11-.17.08 2.92-.01-.49.15 2.76-.27-1 .08 2.08-.17.82.33.43-.27 2.69.56.18.1-.14-.11 1.59.19 1.15.18.86.44 1.14.25 1.87.1.26.33 2.38.95.79.18.38.05.27.08 1.09.64.73.41.56.21.94.16 2.12 1.26.48.46.21-.14 3.1 2.03-.39-.21 1.29.46-1.02-.37 2.65 1.94.18.28 2.29 1.29.47.54-.1.09 1.68 1.47.09.08.59.52 1.53 1.69 1.99 1.68-1.45-1.22 1.51 1.08 1.47 1.89 1.59 1.71.04.33.59.57 1.15 1.08.1.5 1.75 2.19-.57-.89 1.85 2.78.47.63.34.76 1.31 1.76.37 1.06.05-.12 1.34 2.41.74 1.58-.21-.71L50.78-59l1.5 2.46.23.6-.28-.18 1.53 2.54-.1.36.58.98.58 1.94.8 1.64.03.76.11-.06.99 3.06.22.26 1 2.79.12.71.72 1.95.18 1.16.6 1.2.06-.12.35 1.82 1.01 4.52-.1-.73.04.89.85 3.4.06-.08.12.47.14 1.53.27 2.2.7 2.89-.22.57.67 2.65.02 1.81-.31-1.89.72 4.82-.03-.05.16 2.18.1.72-.2.24.16 2.19.05.99.26 3.47-.19-1.02-.05 2.44.21 1.99" filter="url(#a)"/><path fill="#fff" d="m-39.39 6.25.65-.37.68-.38.71-.39.74-.39.76-.4.79-.4.81-.4.83-.39.84-.4.86-.39.88-.39.89-.38.89-.37.91-.37.92-.36 1.09-.51 1.09-.5 1.11-.48 1.11-.46 1.12-.44 1.11-.41 1.12-.39 1.11-.36 1.1-.34 1.09-.31 1.09-.28 1.08-.25 1.06-.22 1.04-.2 1.03-.17 1.01-.14.99-.11.98-.08.95-.06.92-.03.91-.01.88.02.85.04.83.07.8.08.78.11.75.13.72.15.7.16.67.18.64.19.62.21.59.22.57.23.54.24.51.25.49.25.47.26.45.27.42.26.41.27.38.27.36.27.35.26.33.27.32.26.3.25.28.25.28.24.26.23.26.23.24.22.23.21.23.21.21.19.21.19.2.18.19.18.18.16.18.15.18.14.16.13.16.13.16.11-.4 4.28-.05-.04-.05-.05-.06-.05-.06-.06-.07-.06-.07-.06-.08-.07-.09-.07-.1-.07-.11-.08-.12-.08-.12-.07-.14-.09-.14-.08-.16-.08-.17-.09-.18-.08-.2-.09-.2-.09-.23-.09-.24-.08-.26-.09-.28-.08-.3-.08-.32-.08-.34-.07-.37-.06-.39-.07-.42-.05-.44-.05-.47-.04-.5-.04-.53-.03L5 5.03l-.59-.01H3.15l-.68.02-.71.03-.74.03-.78.04-.8.06-.84.06-.86.08-.89.08-.93.09-.95.1-.98.12-1.01.12-1.03.12-1.06.14-1.08.14-1.1.16-1.13.15-1.14.17-1.16.17-1.17.17-1.18.18-1.2.18-1.2.19-1.21.19-1.21.18-1.21.19-1.21.19-.99.15-.99.15-.98.14-.97.15-.96.15-.95.14-.94.14-.92.13-.91.14-.88.13-.87.12-.84.12-.81.11-.78.11-.76.1" filter="url(#a)" transform="translate(33.24 -25.56)"/><path fill="#fff" d="m37.27 9.17-.56-.43-.58-.43-.61-.45-.64-.46-.67-.46-.69-.47-.71-.48-.74-.48-.75-.49-.78-.48-.8-.48-.81-.49-.83-.48-.84-.47-.86-.47-.95-.61-.97-.61-1-.59-1.01-.58-1.03-.57-1.05-.54-1.06-.53-1.08-.51-1.08-.48-1.09-.47-1.09-.43-1.09-.41-1.09-.38-1.09-.35-1.08-.32-1.08-.29-1.07-.26-1.05-.23-1.05-.2-1.02-.17-1.01-.13-1-.1-.97-.08-.95-.04-.93-.01-.9.02-.88.05-.86.08-.83.1-.8.13-.77.16-.75.18-.72.2-.69.22-.66.25-.64.26-.6.28-.58.29-.55.31-.53.32-.5.33-.48.34-.45.35-.43.35-.4.36-.39.36-.37.36-.34.35-.34.36-.31.35-.31.35-.28.35-.27.34-.26.34-.25.34-.23.33-.22.33-.21.32-.19.31-.19.31-.18.3-.16.29-.16.28-.15.27.58 6.25.11-.05.13-.06.13-.07.14-.07.15-.08.17-.08.17-.09.18-.09.2-.1.21-.1.22-.1.24-.11.25-.1.26-.12.28-.11.3-.12.31-.12.32-.12.35-.12.37-.13.38-.13.41-.12.44-.12.45-.13.48-.12.51-.11.53-.11.56-.11.59-.11.62-.09.64-.09.67-.09.7-.07.72-.07.76-.05.78-.05.81-.04.83-.03.86-.01.88-.01.91.01.93.02.95.03.98.05.99.05 1.01.08 1.03.08 1.04.1 1.05.11 1.06.12 1.08.13 1.08.15 1.08.16 1.09.18 1.09.18 1.09.19 1.08.21 1.08.22 1.07.22 1.06.23 1.04.24 1.03.25 1.02.25.99.26.88.18.87.19.85.19.84.19.83.2.81.19.79.19.77.19.75.19.73.18.7.18.68.17.65.17.63.17.6.15" filter="url(#a)" transform="translate(-34.28 -24.91)"/><g fill="none" stroke="#000" transform="translate(33.24 -25.56)"><path stroke-linejoin="round" stroke-width="1.667" d="m-43.67 9.01.21-.16.26-.2.32-.22.36-.25.42-.28.46-.29.5-.32.55-.33.58-.35.62-.36.65-.37.68-.38.71-.39.74-.39.76-.4.79-.4.81-.4.83-.39.84-.4.86-.39.88-.39.89-.38.89-.37.91-.37.92-.36 1.09-.51 1.09-.5 1.11-.48 1.11-.46 1.12-.44 1.11-.41 1.12-.39 1.11-.36 1.1-.34 1.09-.31 1.09-.28 1.08-.25 1.06-.22 1.04-.2 1.03-.17 1.01-.14.99-.11.98-.08.95-.06.92-.03.91-.01.88.02.85.04.83.07.8.08.78.11.75.13.72.15.7.16.67.18.64.19.62.21.59.22.57.23.54.24.51.25.49.25.47.26.45.27.42.26.41.27.38.27.36.27.35.26.33.27.32.26.3.25.28.25.28.24.26.23.26.23.24.22.23.21.23.21.21.19.21.19.2.18.19.18.18.16.18.15.18.14.16.13.16.13.16.11.15.1.15.08.15.08.14.07.14.05.14.05.14.03.13.03.13.01h.13" filter="url(#a)"/><path stroke-linejoin="round" stroke-width="2.222" d="m-42.99 10.82.27.01.33-.01.4-.02.45-.04.5-.04.55-.06.6-.06.64-.08.68-.08.71-.09.76-.1.78-.11.81-.11.84-.12.87-.12.88-.13.91-.14.92-.13.94-.14.95-.14.96-.15.97-.15.98-.14.99-.15.99-.15 1.21-.19 1.21-.19 1.21-.18 1.21-.19 1.2-.19 1.2-.18 1.18-.18 1.17-.17 1.16-.17 1.14-.17 1.13-.15 1.1-.16 1.08-.14 1.06-.14 1.03-.12 1.01-.12.98-.12.95-.1.93-.09.89-.08.86-.08.84-.06.8-.06.78-.04.74-.03.71-.03.68-.02h1.26l.59.01.56.02.53.03.5.04.47.04.44.05.42.05.39.07.37.06.34.07.32.08.3.08.28.08.26.09.24.08.23.09.2.09.2.09.18.08.17.09.16.08.14.08.14.09.12.07.12.08.11.08.1.07.09.07.08.07.07.06.07.06.06.06.06.05.05.05.05.04.04.04.04.04.03.03.03.02.03.02.03.02.02.01h.05" filter="url(#a)"/><circle cx="-16.961" cy="7.313" r="4.558" clip-path="url(#b)" filter="url(#a)"/><circle cx="-17.516" cy="6.143" r="4.2" clip-path="url(#b)" filter="url(#a)"/><circle cx="-15.781" cy="5.363" r="3.022" clip-path="url(#b)" filter="url(#a)"/><circle cx="-19.471" cy="5.748" r="3.944" clip-path="url(#b)" filter="url(#a)"/><circle cx="-18.221" cy="3.463" r="4.836" clip-path="url(#b)" filter="url(#a)"/><circle cx="-17.526" cy="7.423" r="4.128" clip-path="url(#b)" filter="url(#a)"/><circle cx="-19.031" cy="7.748" r="4.094" clip-path="url(#b)" filter="url(#a)"/><circle cx="-15.521" cy="4.188" r="4.532" clip-path="url(#b)" filter="url(#a)"/><circle cx="-17.581" cy="4.278" r="3.614" clip-path="url(#b)" filter="url(#a)"/><circle cx="-17.776" cy="4.743" r="4.336" clip-path="url(#b)" filter="url(#a)"/></g><g fill="none" stroke="#000" transform="translate(-34.28 -24.91)"><path stroke-linejoin="round" stroke-width="2.222" d="m40.91 12.22-.19-.18-.24-.21-.27-.25-.31-.27-.35-.3-.39-.33-.42-.35-.46-.37-.49-.39-.52-.4-.56-.43-.58-.43-.61-.45-.64-.46-.67-.46-.69-.47-.71-.48-.74-.48-.75-.49-.78-.48-.8-.48-.81-.49-.83-.48-.84-.47-.86-.47-.95-.61-.97-.61-1-.59-1.01-.58-1.03-.57-1.05-.54-1.06-.53-1.08-.51-1.08-.48-1.09-.47-1.09-.43-1.09-.41-1.09-.38-1.09-.35-1.08-.32-1.08-.29-1.07-.26-1.05-.23-1.05-.2-1.02-.17-1.01-.13-1-.1-.97-.08-.95-.04-.93-.01-.9.02-.88.05-.86.08-.83.1-.8.13-.77.16-.75.18-.72.2-.69.22-.66.25-.64.26-.6.28-.58.29-.55.31-.53.32-.5.33-.48.34-.45.35-.43.35-.4.36-.39.36-.37.36-.34.35-.34.36-.31.35-.31.35-.28.35-.27.34-.26.34-.25.34-.23.33-.22.33-.21.32-.19.31-.19.31-.18.3-.16.29-.16.28-.15.27-.15.26-.13.25-.13.24-.13.23-.11.22-.12.21-.1.2-.1.18-.1.18-.1.16" filter="url(#a)"/><path stroke-linejoin="round" stroke-width="2.222" d="m40.59 13.92-.22-.02-.26-.05-.31-.06-.35-.08-.39-.09-.42-.1-.47-.12-.5-.13-.53-.14-.56-.15-.6-.15-.63-.17-.65-.17-.68-.17-.7-.18-.73-.18-.75-.19-.77-.19-.79-.19-.81-.19-.83-.2-.84-.19-.85-.19-.87-.19-.88-.18-.99-.26-1.02-.25-1.03-.25-1.04-.24-1.06-.23-1.07-.22-1.08-.22-1.08-.21-1.09-.19L14.65 8l-1.09-.18-1.08-.16-1.08-.15-1.08-.13-1.06-.12-1.05-.11-1.04-.1-1.03-.08-1.01-.08-.99-.05-.98-.05-.95-.03-.93-.02-.91-.01-.88.01-.86.01-.83.03-.81.04-.78.05-.76.05-.72.07-.7.07-.67.09-.64.09-.62.09-.59.11-.56.11-.53.11-.51.11-.48.12-.45.13-.44.12-.41.12-.38.13-.37.13-.35.12-.32.12-.31.12-.3.12-.28.11-.26.12-.25.1-.24.11-.22.1-.21.1-.2.1-.18.09-.17.09-.17.08-.15.08-.14.07-.13.07-.13.06-.11.05-.11.05-.1.05-.1.04-.09.03-.08.03-.08.02-.07.01-.06.01h-.12" filter="url(#a)"/><circle cx="6.555" cy="-2.42" r="4.304" clip-path="url(#c)" filter="url(#a)"/><circle cx="4.4" cy="-2.4" r="3.352" clip-path="url(#c)" filter="url(#a)"/><circle cx="1.83" cy="-.035" r="4.776" clip-path="url(#c)" filter="url(#a)"/><circle cx="3.21" cy="1.375" r="4.894" clip-path="url(#c)" filter="url(#a)"/><circle cx="5.105" cy="-2.335" r="4.66" clip-path="url(#c)" filter="url(#a)"/><circle cx="3.095" cy=".695" r="4.582" clip-path="url(#c)" filter="url(#a)"/><circle cx="3.96" cy="-.605" r="4.676" clip-path="url(#c)" filter="url(#a)"/><circle cx="5.81" cy="2.07" r="4.682" clip-path="url(#c)" filter="url(#a)"/><circle cx="2.225" cy=".17" r="3.474" clip-path="url(#c)" filter="url(#a)"/><circle cx="6.315" cy="-1.025" r="3.548" clip-path="url(#c)" filter="url(#a)"/></g><g fill="none" stroke="#556B2F" stroke-linejoin="round" stroke-width="2"><path d="m-4.13-96.26 1.74.07.77.17.28.3-.09.46-.44.67-.8.9-1.22 1.15-1.72 1.42-2.25 1.68-2.82 1.96-3.36 2.25-3.95 2.59-4.6 3-5.32 3.46-6.05 3.85-6.72 4.16" filter="url(#a)"/><path d="m-33.5-82.36.45-.31 1.03-.55 1.45-.73 1.71-.79 1.86-.76 1.97-.69 2.1-.64 2.25-.63 2.41-.65 2.53-.68 2.59-.69 2.62-.67 2.6-.61 2.57-.56 2.56-.52 2.52-.47 2.45-.44 2.29-.42 2.07-.43 1.78-.46 1.5-.45m31.23 20.24.7.87.25.75-.11.64-.48.52-.87.4-1.31.26-1.77.08-2.27-.1-2.79-.31-3.34-.51-3.89-.72-4.46-.91-5.09-1.11-5.74-1.29-6.46-1.49-7.18-1.74-7.84-2.1-8.35-2.49" filter="url(#a)"/><path d="m22.25-90.44.47.4.62.55.47.61.13.59-.18.6-.44.67-.66.76-.92.82-1.22.87-1.57.88-1.95.91-2.33.94-2.71.99-3.1 1.05-3.5 1.13-3.93 1.21-4.38 1.27-4.81 1.34-5.26 1.4-5.74 1.49-6.34 1.64-7 1.82-7.53 1.88" filter="url(#a)"/><path d="m50.78-59 .78 1.51-.12.49-.7-.02-1.19-.37-1.73-.74-2.31-1.15-2.95-1.63-3.63-2.18-4.34-2.77-5.06-3.38-5.77-3.97-6.48-4.57-7.25-5.21-8.09-5.99" filter="url(#a)"/><path d="m41.04-74.27.79.91.53.82.35.74.18.67-.02.59-.23.48-.48.35-.74.2-1.01.03-1.29-.13-1.58-.29-1.87-.46-2.18-.64-2.53-.83-2.91-1.04-3.31-1.27L21-75.66l-4.18-1.75-4.61-1.98-5.04-2.21-5.46-2.42-5.86-2.65-6.42-2.89m64.81 37.32.4 1.58-.03.99-.45.61-.81.43-1.15.3-1.54.14-1.96-.08-2.43-.36-2.92-.68-3.45-.99-3.97-1.29-4.49-1.58-5.01-1.85-5.52-2.15-6.06-2.47-6.64-2.82-7.27-3.15-7.89-3.5-8.47-3.91-8.91-4.4" filter="url(#a)"/><path d="m52.51-55.94.16.48.35.83.23.71.06.52-.13.28-.35-.03-.58-.38-.82-.74-1.05-1.09-1.33-1.48-1.63-1.93-2.02-2.46-2.44-3.07-2.85-3.71-3.23-4.35-3.49-4.88-3.68-5.27m-66.41 3.22 1.76-1.57 1.09-1.03.9-.81.92-.78.99-.81 1.02-.82.97-.78.9-.69.81-.61.74-.52.67-.45.57-.36.42-.26.24-.13.03.02-.19.18-.42.35-.68.56-1 .78L-28.3-86l-1.64 1.19-1.79 1.24" filter="url(#a)"/><path d="m-28.61-86.48.93-.65.98-.55.96-.54.8-.39.54-.17.28.07.01.33-.24.57-.51.83-.83 1.11-1.18 1.44-1.57 1.8-1.94 2.17-2.31 2.52-2.68 2.87-3.06 3.2-3.46 3.52-3.86 3.8M33.09-82.6l.1.32.06.75-.29.92-.83.91-1.42.92-1.99 1.02-2.56 1.12-3.18 1.19-3.88 1.22-4.6 1.24-5.38 1.31-6.13 1.4-6.9 1.52-7.66 1.58-8.41 1.62-9.19 1.6-9.93 1.48" filter="url(#a)"/><path d="m-11.27-94.78 1.33-.45 1.08-.22.95-.14.76-.09.55-.03.36.04.2.12.03.22-.14.31-.34.39-.59.49-.84.58-1.11.68-1.41.81-1.74.95-2.12 1.11-2.52 1.26-2.93 1.38-3.29 1.5-3.69 1.68-4.36 2.07m73.28 8.93.44.8.56.84.47.76.33.68.16.55-.04.39-.27.19-.51-.02-.74-.24-.98-.45-1.24-.7-1.53-.96-1.85-1.24-2.25-1.58-2.67-1.94-3.13-2.33-3.59-2.71-4.04-3.1-4.48-3.48-5.01-3.87" filter="url(#a)"/><path d="m-9.23-95.26 1.62-.39.97-.16.69-.08.52-.03.41.05.31.14.2.22.04.29-.14.36-.37.44-.59.54-.86.67-1.14.79-1.46.91-1.8 1.05-2.14 1.17-2.51 1.31-2.87 1.46-3.22 1.58-3.55 1.66-3.93 1.77-4.48 2.09M2.14-96.48l.95.31 1.44.53 1.72.77 1.87.99 2.05 1.18 2.26 1.36 2.49 1.53 2.67 1.66 2.8 1.77 2.9 1.86 2.92 1.92 2.9 1.95 2.82 1.93 2.7 1.89 2.57 1.8 2.44 1.69 2.23 1.41" filter="url(#a)"/><path d="m-1.21-96.27.44.09 1.13.12 1.35.23 1.55.36 1.7.45 1.82.53 1.86.59 1.86.62 1.86.65 1.85.66 1.86.66 1.83.66 1.79.65 1.69.61 1.53.55 1.26.45.92.28.54.07.34-.07" filter="url(#a)"/><path d="m-9.48-95.56.83.03 1.26-.12 1.27-.12 1.21-.1 1.18-.07 1.19-.04 1.19-.01L-.18-96H.94l1.01-.02.87-.01.73-.01.56-.01h.36l.08-.01-.25-.04-.61-.05-.94-.07-1.08-.07" filter="url(#a)"/><path d="m-22.57-90.16.85-.51 1.03-.41 1.25-.44 1.41-.49 1.45-.5 1.45-.48 1.45-.45 1.45-.43 1.44-.41 1.4-.38 1.31-.34 1.2-.31 1.05-.25.84-.21.59-.17.3-.12.01-.1-.23-.05-.43.01m.62-.06 2.04.15 1.65.39 1.76.61 2 .85 2.26 1.07 2.51 1.29 2.71 1.46 2.85 1.61 2.95 1.72 3.03 1.81 3.1 1.88 3.19 1.95 3.24 1.98 3.25 1.99 3.18 1.95 3.05 1.85 2.78 1.6" filter="url(#a)"/><path d="m47.44-65.46.34.82.49.91.56 1.03.54 1 .49.93.43.85.33.72.2.53.06.34-.1.13-.26-.09-.42-.3-.61-.53-.79-.79-.98-1.08-1.18-1.37-1.38-1.67-1.59-1.99-1.8-2.33-2.02-2.69-2.3-3.11-2.65-3.59-3.08-4.1" filter="url(#a)"/><path d="m46.13-67.22.93 1.39.62 1.05.55.99.54.98.49.92.43.82.34.68.21.49.06.27-.11.02-.31-.26-.49-.53-.72-.84-.95-1.18-1.21-1.56-1.48-1.96-1.73-2.34-1.98-2.74-2.33-3.25-2.79-3.89" filter="url(#a)"/><path d="m41.04-74.27.64.91.08.85-.39.82-.87.79-1.38.76-1.9.7-2.47.64-3.05.55-3.67.46-4.3.4-4.94.34-5.62.3-6.3.26-6.98.18-7.66.07-8.42-.02-9.32.02-10.38.26" filter="url(#a)"/><path d="m47.81-64.4.37.56.51.98.37.81.22.61.05.41-.16.16-.43-.18-.73-.56-1.05-.93-1.37-1.31-1.67-1.68-2.01-2.08-2.37-2.53-2.81-3.06-3.29-3.64-3.77-4.22-4.28-4.84m24.55 25.37.12.2.31.96.06.86-.32.53-.69.21-1.05-.03-1.39-.24-1.77-.46-2.17-.69-2.6-.96-3.03-1.24-3.49-1.52-3.95-1.81-4.41-2.09-4.9-2.4-5.39-2.74-5.88-3.14-6.4-3.55-6.96-3.95-7.82-4.2m-21.71 4.43.38-.34.8-.62 1.07-.84 1.17-.92 1.11-.88.99-.76.86-.63.76-.53.63-.42.44-.28.16-.11-.19.12-.55.35-.86.53-1.09.68" filter="url(#a)"/><path d="m54.24-52.24.56 1.67.45 1.27.36 1.03.33.94.32.91.27.82.17.61.04.3-.13-.09-.33-.53-.52-.99-.72-1.43-.92-1.87-1.14-2.36-1.39-2.95-1.66-3.65-1.97-4.38M37.35-78.77l1.33 1.63.99 1.21.74.89.6.72.53.66.44.6.35.52.22.42.08.29-.1.11-.29-.1-.52-.33-.78-.6-1.06-.9-1.37-1.23-1.66-1.55-1.92-1.87-2.15-2.16-2.42-2.46-2.99-3" filter="url(#a)"/><path d="m50.78-59 .81 1.56-.03.61-.52.2-.95-.06-1.39-.33-1.87-.63-2.39-.99-2.95-1.39-3.55-1.83-4.17-2.28-4.83-2.7-5.5-3.13-6.21-3.62-6.98-4.14-7.8-4.72-8.72-5.26m1.71-8.52.49-.04.65.02.72.05.56.06.27.1-.04.14-.37.23-.71.32-1.11.42-1.6.53-2.19.65-2.82.74-3.39.81-3.9.9" filter="url(#a)"/><path d="m-13.22-94.55 1.18-.14 1.17-.25 1.23-.27 1.25-.24 1.2-.21 1.08-.18.92-.14.73-.12.57-.07.41-.04h.24l.05.03-.23.07-.6.1-1.02.15-1.51.21-2.01.3m14.68-.52 1.51.35 1.65.71 1.9 1 2.18 1.26 2.4 1.48 2.57 1.67 2.65 1.81 2.67 1.92 2.66 1.97 2.65 2.01 2.65 2.04 2.67 2.05 2.65 2 2.57 1.9 2.35 1.61m-65.78-17.47 1.13-.56.96-.5.91-.44.92-.43.89-.41.78-.36.6-.27.41-.18.21-.06v.06l-.26.22-.58.41-.96.62-1.37.8-1.74.97-2.05 1.07-2.33 1.15" filter="url(#a)"/><path d="m41.04-74.27.84.92.66.87.58.82.49.75.39.66.24.53.07.36-.14.15-.36-.08-.61-.35-.86-.6-1.11-.89-1.37-1.17-1.67-1.49-2.02-1.87-2.45-2.31-2.89-2.78-3.37-3.27-3.9-3.76" filter="url(#a)"/><path d="m28.75-85.99 1.45.96.52.65.07.57-.2.59-.46.61-.72.64-1.03.64-1.38.63-1.77.63-2.16.63-2.57.63-3.02.61-3.49.57-3.99.51-4.49.44-5 .38-5.49.36-6.01.35-6.55.32-7.05.23-7.59.05" filter="url(#a)"/><path d="m28.57-86.27.65.51.79.59.51.49.22.38v.3l-.2.23-.42.14-.69.02-1.02-.12-1.37-.28-1.74-.44-2.14-.6-2.58-.78-3.08-1.03-3.62-1.31-4.15-1.6-4.6-1.86-5.02-2.1" filter="url(#a)"/><path d="m28.57-86.27.75.57 1.05.78.95.79.88.79.86.82.88.84.88.86.86.82.79.78.71.69.6.6.46.48.31.35.12.17-.08-.02-.31-.25-.53-.47-.74-.69-.95-.91-1.16-1.13-1.42-1.4-1.86-1.78M-6.95-95.99l.6.11.6-.09.5-.06.36.01.25.1.07.18-.18.25-.52.34-.91.43-1.33.54-1.79.68-2.3.85-2.91 1.07-3.68 1.31-4.47 1.51" filter="url(#a)"/><path d="m37.29-78.63-.51-.37.33.63.38.93.08.87-.31.71-.71.58-1.07.49-1.42.44-1.76.39-2.13.34-2.51.29-2.93.23-3.36.15-3.81.07-4.28-.03-4.75-.13-5.23-.23-5.73-.34-6.21-.46-6.65-.63-7.12-.77-7.75-.75m1.02-10 .5-.27.76-.38 1.12-.56 1.43-.7 1.62-.78 1.69-.8 1.68-.76 1.61-.7 1.56-.65 1.49-.6 1.41-.56 1.3-.52 1.16-.48 1.02-.44.88-.37.74-.3.55-.23.28-.13-.08-.05-.49.01" filter="url(#a)"/><path d="m33.09-82.6.29.29.61.64.61.71.45.58.24.47.07.41-.12.35-.34.23-.63.08-.94-.11-1.27-.29-1.6-.47-1.93-.64-2.28-.8-2.65-.99-3.04-1.2-3.46-1.44-3.88-1.7-4.27-1.97-4.65-2.23-5.08-2.41" filter="url(#a)"/><path d="m33.09-82.6.17.3.24.71.02.82-.39.77-.84.73-1.26.76-1.69.79-2.16.8-2.69.75-3.24.68-3.8.64-4.37.62-4.96.63-5.58.65-6.23.7-6.9.75-7.53.69-8.07.5-8.65.34m-2.16-9.1.89-.74 1.24-1.11 1.13-1.02 1.01-.9.98-.84.98-.83.93-.78.81-.67.62-.53.43-.36.28-.21.14-.09-.03.07-.31.3-.72.62-1.2.97-1.64 1.26m46.83-9.5.54.13.28.15.14.22v.27l-.17.32-.35.35-.6.38-.88.41-1.26.43-1.67.43-2.15.4-2.67.37-3.21.35-3.78.36-4.37.43-4.98.51-5.64.54-6.28.47" filter="url(#a)"/><path d="m44.04-70.5-8.77-2.75-4.55 5.33-12.65-.4-12.55-4.41-6.18-5.1-.63-3.95.46-2.19-1.9-.52-4.53.77-4.56 1.38-1.26 1.36 3.66 1.34 6.88 2.22 5.43 4.05-.54 5.2-4.7 3.95 8.08 4.99 55.22 28.78" filter="url(#a)"/><path d="m-34.27-81.3 1.87.61 11.03-.95 13.08 1.47 10.57 3.75 7.84 3.52 6.77 1.97 6.45.74 4.84.14.9-.42-4.53-1.38-9.15-2.44-10.63-2.98-8.03-2.46-2.33-1.13 4.54.08 11.33.82 17.31 4.91L54.82-50.3" filter="url(#a)"/><path d="m25.65-88.3-3.71 5.23-11.18.33-3.21 3.79 4.27 6.33 6.48 5.89 4.4 3.5 1.36.74-.64-1.39-1.9-2.72-3.49-3.44-5.65-3.62-7.22-3.17-6.87-2.11-4.27-.79-.54.18 2.52.43 4.1.07 5.19-.48 7.35-1 9.13-1.5 6.76-1.35 8.82 4.61" filter="url(#a)"/><path d="M61.01-30.61 29.8-58.96l-8.32-5.63-10.92-4.09L.42-71.85l-5.85-1.42-2.23-.23-.76-.08-.4-.46.51-.77 2.69-.9 5.41-1.01 7.25-1.12 7.2-.8 5.27.43 1.95 2.34-2.65 3.6-8.09 2.9-9.29 1.4 7.19 5.53 52.33 31.99" filter="url(#a)"/><path d="M-47.19-65.07 7.12-73.3l16.52-5.31 4.05-1.51.66 2.69-2.04 4.33-5 2.68-6.51-.56-5.83-3.18-3.82-3.79-1.79-2.49-.62-.65-.63-.23-.86-2.56 1.35-6.35-.46-6.25" filter="url(#a)"/><path d="m-6.95-95.99 32.5 23.64.29-4.83-4.59-6.46-.87-1.58 2.91 2.68 3.63 4.17 1.43 3.23-2.13 1.28-5.31-.43-7.08-1.33-7.24-1.5-6.18-1.14-4.55-.41-2.83.58-1.21 1.49.33 1.84 1.78 1.22 3.05-.11L.85-74.9l3.45-1.46.38-1.52-5.3-3.64-9.13-6.89-12.82-1.75" filter="url(#a)"/><path d="m-28.61-86.48 15.55-5.44 4.72-1.21-1.78.43-2.98.93-.89.79 2.55.59 5.57 1.03 6.97 2.32 6.5 3.85 5.09 4.69 4.52 4.47 5.46 3.42 5.41 1.28 2.99-1.65 18.87 10.45" filter="url(#a)"/><path d="m-43.87-70.18 24.91-10.18L1.81-84.4l6.16-2.54L3.49-88l-9.07 1.2-8.79 2.72-5.16 2.22v.17l4.61-1.52 7.52-1.08 9.19 1.58 10.63 4.4 11.12 4.17 8.11-.6 1.64-5.71-1.78-3.71" filter="url(#a)"/><path d="m54.24-52.24-9-10.69-15.03-9.94-10.99-6.73-2.67-2.56h1.88l.87.67-3.05.42-6.42.13-7.23.03-5.37.12-2.06.34 1.15.72 3.26.91 4.08.11L6.97-81l-.92-5.26-10.26-5.3-17.21.76" filter="url(#a)"/><path d="m8.86-95.5 12.47 13.72-10.63-1.35-8.14-1.07-.77 2.32 3.97 4.59 4.91 4.26 2.86 1.7-.94-1.7-4.85-4.28-7.13-5.08-6.77-4.15-4.47-2.28-2.42-.29-2.5 1.66-4.01 3.38-2 2.31L-1.7-96.12" filter="url(#a)"/><path d="M55.76-47.96 15.78-73.92l-17.81-5.26 1.7 1.05 7.89 2.73 4.66 2.46-.19 1.2-1.68-.11.52-.8 3.59-.86 4.55-.72 2.36-.8-1.78-1.29-5.4-2.05-6.48-2.77-4.69-3.12-1.48-2.85 1.84-1.84 6.36.23 13.9 4.33 18.55 11.2" filter="url(#a)"/><path d="m31.51-84.16-41.71 3.99-8.31.16.51-.92 1.25.91 2.22 3.15 3.46 3.3 3.39.65 2.11-3.29 1.06-6.04 1.42-5.97L.4-91.38l7.22 1.41 12.61 7.39 18.41 15.17L56.75-44.9" filter="url(#a)"/><path d="m-30.56-84.78 37.23 8.17 22.01 13.82 2.57 2.98-7.79-5.15-8.65-7.65-5.11-6.14-1.62-2.62-.24 1.08-1.18 3.32-3.67 3.17-6.35 1.01-7.84-1.74-7.42-3.47-5.54-3.46-3.19-2.04-.49-.43 5.88-1.47L3.39-96.42" filter="url(#a)"/><path d="M-49.62-61.49 1.57-72.34l26.29 4.7 6.16 1.16-7.44-4.06-13.71-5.43-13.6-3.74-9.3-1.22-3.24.68 2.51 1.59 6.65 1.64 8.61.9 8.22-.53 5.51-2.23.96-3.47-4.23-3.45-8.57-1.77-10.96.99-9.24 1.45 12.6-11.14" filter="url(#a)"/><path d="m-38.92-76.48 15.3-9.49 16.13.49 16.65 6.34 11.34 5.28 2.64.84-4.97-2.65-8.81-3.59-8.58-2.65-5.52-1.18-1.56-.06 1.57.63 3.04 1.01 3.01 1.13 2.13.77.85-.14-.87-1.15-3.07-1.5-5.14-.81-5.15.46.49 2.5 16.97 9.81 52.12 33.49" filter="url(#a)"/><path d="M9.72-95.06-.79-91.02l5.36 8.51 5.79 5.52 2.23 1.85.09.6.25.75 1.51.84 2.18.44 1.42-.08-.34-.3-1.9-.09-2.36.4-1.58.98.04 1.45 2.01 1.74 3.86 1.73 4.81 1.22 3.79.04.12-1.82-5.21-4.21-8.79-6.48-5.68-7.04 6.5-3.66 15.44 2.64" filter="url(#a)"/><path d="m-6.35-95.64 17.71 4.39 14.22 10.18 11.24 10.86 6.88 6.89 2.79 2.31-.52-.89-3.27-2.65-5.58-3.36-7.23-3.42-7.96-3.1-7.56-2.51-5.44-1.31-.59 1.23 7 5.34 14.55 9.74 16.58 11.6 10.37 9.33 4.17 10.4" filter="url(#a)"/><path d="m-9.23-95.26-4.68 6.23.77 6.14 4.35 5.74 8.25 4.88 7.35 3.78 2.89 2.36-1.41.9-3.35-.24-2.82-.9-.75-1.18 1.92-1.31 4.57-1.31 6.89-.89 8.47.21 8.38 1.47 5.18.88-2.18-4.08-11.73-11.98L8.86-95.5" filter="url(#a)"/><path d="m31.04-84.7-9.68 8.39-19.59.03-4.11-.74 8.95.61 12.92 1.98L30-72.23l6.13 1.53 2.77.81.75.16-.94-.92-3.19-2.69-5.87-4.44-8.21-5.01-9.49-3.86-9.3-1.71-5.24-.44 17.96-4.63" filter="url(#a)"/><path d="m15.37-93.43 19.78 28.5-3.64 10.31L27-53.57l-.32-2.89 1.07-4.07-.55-4-3.66-3.62-6.64-3.19-7.91-2.64-6.7-1.98-3.42-1.37.49-.85 3.39-.31 4.35.4 3.48 1.24 2.1 1.94 2.09 2.25 4.47 2.07 7.67 1.28 8.12.37 6.93 4.33 17.63 27.78m3.66 19.93.62 3.94.9 3.23 1.12 2.93.89 2.73.48 2.65.2 2.74.12 2.95.13 3.17.1 3.32-.07 3.32-.33 3.2-.55 2.99-.67 2.76-.62 2.6-.44 2.52-.18 2.56.05 2.64.2 2.75.16 2.78-.07 2.75-.44 2.63-.85 2.52-1.08 2.45-.97 2.4-.45 2.1.53 1.06" filter="url(#a)"/><path d="m1.06-96.39 1.48.01 2.25.19 2.6.3 2.9.4 3.11.47 3.09.55 2.86.6 2.65.66 2.67.71 2.97.77 3.38.85 3.66.94 3.6 1.03 3.24 1.14 2.76 1.25 2.44 1.35 2.52 1.44 2.99 1.51 3.73 1.57 4.51 1.62 5.19 1.65 5.58 1.66 5.59 1.65 5.38 1.65 5.42 1.85 5.49 2.59" filter="url(#a)"/><path d="m1.06-96.39 1.29.01 2.1.19 2.7.31 2.82.4 2.66.48 2.51.55 2.46.61 2.52.66 2.59.72 2.62.78 2.66.87 2.73.95 2.87 1.05 3.08 1.15 3.31 1.27 3.48 1.36 3.56 1.45 3.6 1.51 3.72 1.58 4.04 1.62 4.6 1.66 5.28 1.69 5.77 1.73 5.75 1.82 5.11 1.92 4.1 2.08 3.32 2.18 3.31 2.3 5.64 2.96" filter="url(#a)"/><path d="M-4.56-96.23h1.05l1.77.03 2.05.06 2.14.11 2.13.18 2.14.27 2.18.36 2.23.45 2.22.54 2.17.61 2.08.71 2.03.79 2.03.88 2.09.98 2.2 1.06 2.31 1.12 2.4 1.17 2.45 1.22 2.47 1.27 2.46 1.33 2.47 1.43 2.47 1.54 2.43 1.67 2.36 1.81 2.25 1.93 2.21 2.01 2.24 2.08 1.84 2.01" filter="url(#a)"/><path d="m-6.35-95.64 1.44-.37 1.5-.13 1.81-.02 2.07.05 2.17.11 2.18.19 2.17.27 2.16.37 2.15.46 2.12.54 2.08.63 2.06.71 2.07.81 2.09.9 2.17.98 2.25 1.06 2.33 1.13 2.4 1.19 2.43 1.25 2.43 1.31 2.38 1.38 2.3 1.48 2.22 1.58 2.16 1.69 2.16 1.8 2.22 1.89 2.34 1.95 2.44 1.99 2.45 2 2.35 2.02L61-64.37l2.25 2.11 2.37 2.34 2.82 3.38" filter="url(#a)"/><path d="m-6.35-95.64 1.39-.37 1.49-.13 1.83-.02 2.12.04 2.3.11 2.36.18 2.39.26 2.41.36 2.48.44 2.57.53 2.67.61 2.73.7 2.72.78 2.66.88 2.62.97L31-89.24l2.67 1.12 2.8 1.16 2.94 1.21 3.08 1.26 3.21 1.32 3.4 1.41 3.67 1.53 3.97 1.66 4.12 1.81 3.9 1.94 3.5 2.04 4.45 2.28" filter="url(#a)"/><path d="m-6.95-95.99 1.4-.12 1.82-.11 1.96-.06 1.95-.01 1.97.07 2.09.15 2.27.26 2.46.34 2.6.43 2.67.51 2.67.57 2.63.63 2.61.68 2.7.74 2.91.81 3.19.88 3.46.98 3.6 1.08 3.6 1.21 3.63 1.34 3.93 1.44 4.48 1.5 4.91 1.65 5.36 2.39" filter="url(#a)"/><path d="m-9.23-95.26 2.28-.39 1.74-.28 1.67-.15 1.86-.05 2.09.02 2.23.1 2.27.16 2.29.25 2.31.33 2.4.43 2.49.5 2.58.58 2.63.66 2.65.75 2.69.84 2.8.95 2.95 1.05 3.12 1.12 3.22 1.16 3.21 1.16 3.13 1.16 3.04 1.14 3.26 1.25" filter="url(#a)"/><path d="m-9.23-95.26 2.28-.39 1.72-.28 1.69-.15 1.87-.05 2.08.03 2.23.1 2.37.17 2.57.25 2.82.34 3.11.43 3.37.51 3.53.59 3.58.68 3.62.76 3.79.85 4.15.96 4.65 1.05 5.04 1.12 5.06 1.15 4.53 1.18 3.77 1.22 3.43 1.25 4.2 1.34 5.65 1.34 4.94.96" filter="url(#a)"/><path d="m-9.23-95.26 2.25-.39 1.68-.28 1.65-.15 1.83-.05 2.03.03 2.14.09 2.17.17 2.19.25 2.23.34 2.31.42 2.4.51 2.47.59 2.53.66 2.57.76 2.6.85 2.62.95 2.66 1.05 2.69 1.12 2.71 1.16 2.66 1.17 2.54 1.19 2.43 1.25 2.37 1.43 2.55 1.83m16.51 65.3 2.95 2.5 2.94 2.15 1.58 2.28.73 2.63.84 2.97L74.07.67l2.01 3.18 2.09 3.11L79.85 10l.95 2.97.09 2.94-.64 2.9-1.09 2.86-1.15 2.79-.81 2.75-.18 2.7.56 2.69 1.18 2.68 1.51 2.69 1.41 2.69.93 2.7.21 2.67-.51 2.65-1 2.58-1.14 2.51-.96 2.44-.63 2.39-.27 2.34v2.25l.11 2.08.08 1.9-.15 1.77-.84 1.87-3.11 2.57" filter="url(#a)"/><path d="m63.56-15.01.89 2.48L66-10.41l.98 2.23.34 2.57.19 2.93.39 3.14.68 3.17.92 3.1 1.1 3 1.14 2.94.95 2.91.56 2.9.04 2.85-.43 2.78-.7 2.7-.7 2.64-.48 2.64-.13 2.65.22 2.65.51 2.64.64 2.65.65 2.8.61 2.98.55 2.88-.37 2.15M-11.27-94.78l2.15-.44 2.03-.38 1.82-.27 1.79-.16 1.9-.05 2.04.02 2.13.11 2.15.19 2.13.27 2.1.36 2.07.44 2.06.54 2.09.62 2.15.71 2.25.8 2.38.9 2.51.98 2.61 1.05 2.64 1.13 2.61 1.18 2.51 1.25 2.41 1.31 2.34 1.38 2.32 1.48 2.36 1.58 2.4 1.69 2.44 1.8 2.4 1.89 2.32 1.95 2.19 1.99 2.08 2 2.02 2.03 2.05 2.05 2.14 2.11 2.3 2.35 3.21 3.38" filter="url(#a)"/><path d="m-11.27-94.78 1.83-.44 1.64-.38 1.57-.27 1.82-.16 2.24-.07 2.59.02 2.77.09 2.82.16 2.88.24 3.04.33 3.27.42 3.56.5 3.84.58 4.13.66 4.43.74 4.7.84 4.82.95 4.68 1.05 4.34 1.12 4 1.16 3.94 1.17 4.22 1.15 4.84 1.14 6.8 1.26" filter="url(#a)"/><path d="m-13.22-94.55.2-.3 2.52-.37 2.57-.35 2.25-.25 2.08-.16 2.09-.07 2.19.02 2.29.1 2.36.18 2.39.27 2.39.35 2.38.45 2.38.53 2.44.61 2.56.71 2.72.8 2.93.88 3.11.98 3.26 1.05L35.24-88l3.42 1.18 3.51 1.24 3.63 1.31 3.8 1.37 3.99 1.47 4.21 1.58 4.43 1.69 4.66 1.8 4.87 1.89 4.93 1.95 4.81 1.99 4.52 2.01 4.34 2.01 4.56 2.01 4.92 1.9 4.62 1.36" filter="url(#a)"/><path d="m-13.22-94.55 1.99-.3 2.11-.37 2.01-.34 1.85-.26 1.77-.17 1.77-.06 1.81.01 1.82.1 1.79.18 1.73.26 1.69.35 1.66.43 1.61.53 1.56.61 1.46.69 1.32.79 1.15.88.98.97.84 1.05.71 1.11.63 1.17.6 1.23.62 1.28.66 1.35.73 1.44.77 1.55.77 1.68.65 1.8.38 1.92v1.99l-.26 2v1.89l1.01 1.57" filter="url(#a)"/><path d="m-16-93.42 2.42-.81 2.16-.52 2.03-.42 1.9-.35 1.83-.26 1.88-.17 2.02-.07H.42l2.32.09 2.45.17 2.59.26 2.76.34 2.92.43 3.04.51 3.05.6 2.94.69 2.76.78 2.56.87 2.46.96 2.47 1.04 2.63 1.11L38.28-87l3.25 1.21 3.59 1.26 3.89 1.33 4.08 1.41 4.15 1.53 4.05 1.67 3.85 1.81 3.77 1.94 4.17 2.05 5.6 2.29" filter="url(#a)"/><path d="m-16-93.42 2.6-.81 2.16-.52 2.04-.43 1.96-.34 1.87-.26 1.84-.17 1.87-.07L.25-96l1.95.09 1.97.18 1.97.26 1.96.35 1.95.44 1.93.52 1.9.61 1.88.71 1.84.79 1.82.88 1.79.97 1.75 1.05 1.71 1.12 1.64 1.17 1.58 1.24 1.5 1.29 1.46 1.37 1.44 1.47 1.45 1.56 1.47 1.69 1.51 1.8 1.53 1.9 1.52 1.96 1.43 1.99 1.3 2 1.14 2.04 1.1 2.15 1.14 2.29" filter="url(#a)"/><path d="m-15.01-93.58 1.01-.53 1.79-.58 2.03-.51 2.06-.4 2.04-.28 2.02-.19 2.03-.09L0-96.17l2.05.08 2.09.16 2.19.25 2.31.35 2.44.43 2.55.5 2.56.58 2.51.64 2.38.71 2.23.78 2.11.86 2.07.95 2.09 1.04 2.21 1.14 2.38 1.25 2.59 1.34 2.79 1.43 2.99 1.51 3.14 1.58 3.24 1.62 3.35 1.66 3.46 1.71 3.66 1.74 3.89 1.83 4.02 1.93 3.81 2.08 3.19 2.2 2.63 2.31 3.39 2.98" filter="url(#a)"/><path d="m-15.01-93.58 1.17-.52 1.85-.57 2.03-.52 2.02-.4 1.96-.3 1.92-.19 1.89-.11 1.86-.04 1.84.05 1.84.12 1.88.21 1.95.31 2.02.39 2.07.48 2.07.54 1.99.6 1.88.64 1.79.7 1.76.76 1.82.84 1.9.97 2.28 1.32" filter="url(#a)"/><path d="m-17.13-92.8 1.61-.67 1.58-.6 1.87-.57 2.02-.5 2.03-.41 2.01-.29 1.97-.2 1.93-.11 1.91-.03 1.92.05 1.94.14 2 .23 2.08.32 2.18.41 2.25.48 2.3.55 2.28.62 2.25.67 2.18.73 2.12.8 2.08.88 2.08.96 2.14 1.07 2.31 1.2 2.5 1.35 2.58 1.44 2.3 1.35 1.39.93" filter="url(#a)"/><path d="m-17.93-92.35.32-.39 1.55-.66 1.98-.64 2.12-.56 2.09-.46 2.01-.37 1.94-.28 1.93-.19 1.96-.09L0-96.01l2.11.07 2.16.15 2.21.22 2.23.32 2.26.4 2.27.48 2.28.57 2.27.64 2.29.73 2.35.84 2.43.94 2.48 1.05 2.45 1.13 2.3 1.16 2.14 1.18 1.99 1.16 1.42.9m25.9 67.25.77 1.39 2.23 2.68 3.39 2.92 5.41 2.85 7.28 2.74 7.76 2.68 6.61 2.76 4.32 2.94 1.59 3.16-.85 3.29-2.4 3.32-2.7 3.21-1.89 3-.4 2.77 1.19 2.58 2.57 2.49 3.58 2.53 4.08 2.64 3.82 2.77 2.72 2.84 1.13 2.78.09 2.61.64 2.43 2.52 2.42 1.74 2.81" filter="url(#a)"/><path d="m-21.42-90.8 3.29-1.5 2.24-.95 1.94-.72 1.93-.61 1.96-.51 1.97-.41 1.96-.3 1.95-.21 1.94-.12 1.91-.03 1.9.04 1.91.14 1.95.22 1.99.31 2.05.4 2.09.48 2.08.55 2.04.61 1.99.66 1.94.73 1.92.79 1.9.86 1.91.95 1.92 1.05 2 1.2 2.17 1.39 2.35 1.58 2.08 1.6" filter="url(#a)"/><path d="m-20.54-91.28 1.68-.78 1.39-.66 1.66-.66 1.85-.63 1.94-.55 1.96-.46 1.97-.37 1.97-.28 2.01-.19 2.04-.1 2.09-.01 2.12.07 2.13.15 2.15.24 2.15.32 2.15.41 2.15.49 2.15.58 2.15.66 2.16.75 2.16.85 2.19.95 2.22 1.04 2.23 1.11 2.24 1.16L32.6-86l2.15 1.22 2.04 1.27 1.87 1.33 1.73 1.36 1.32.97" filter="url(#a)"/><path d="m-20.54-91.28 1.71-.78 1.38-.66 1.69-.66 1.93-.63 2.04-.55 2.03-.46 1.98-.37 1.94-.28 1.93-.19 1.97-.1 2.03-.01 2.08.07 2.11.15 2.15.24 2.16.32 2.18.41 2.2.49 2.22.58 2.23.66 2.24.75 2.24.85 2.25.95 2.23 1.04 2.2 1.11 2.12 1.16L32.75-86l1.96 1.22 1.91 1.27 1.86 1.33 1.78 1.36 1.12.97m-69.99-6.63-1.91.88-1.97 1.38-1.86 1.51-1.83 1.55-1.92 1.62-2.13 1.7-2.38 1.78-2.53 1.86-2.44 1.92-2.16 1.99-1.78 2.04-1.43 2.09-1.26 2.13-1.25 2.18-1.36 2.23-1.51 2.27-1.62 2.31-1.71 2.37-1.75 2.42-1.79 2.49-1.83 2.56-1.88 2.64-1.88 2.67-1.83 2.67-1.67 2.62-1.41 2.61-1.17 2.68-1.18 2.89-1.51 3.07-1.55 2.95" filter="url(#a)"/><path d="m-28.6-86.56-1.87 1.67-1.74 1.53-1.55 1.44-1.39 1.44-1.32 1.48-1.33 1.61-1.39 1.78-1.47 1.95-1.51 2.11-1.5 2.2-1.46 2.23-1.38 2.24-1.29 2.2-1.2 2.19-1.12 2.2-1.05 2.23-1 2.31-.97 2.39-.93 2.48-.91 2.54-.87 2.59-.83 2.63-.77 2.66-.7 2.71-.63 2.78-.56 2.82-.49 2.83-.43 2.76-.35 2.65-.27 2.55-.21 2.53-.17 2.67-.1 3.03m124.23-8.34 3.59 3.68 2.2 2.79-.31 2.38-1.13 2.37-.89 2.6L66-2.76l.25 3.08.77 3.14 1.16 3.09 1.33 3 1.28 2.94 1.06 2.91.85 2.9.78 2.87.83 2.78.89 2.69.74 2.62.39 2.63.01 2.67-.06 2.66.27 2.53.54 2.44-.15 2.83-1.91 4.19M-29.14-86.22l-5.16 1.93-1.67 1.59-.84 1.56-.96 1.62-1.37 1.69-1.92 1.78-2.63 1.86-3.43 1.92-4.11 1.99-4.48 2.03-4.45 2.09-4.09 2.13-3.55 2.18-3.01 2.21-2.55 2.27-2.2 2.31-1.93 2.35-1.8 2.41-1.88 2.48-2.19 2.56-2.65 2.64-3.07 2.69-3.31 2.67-3.44 2.59-3.59 2.54-3.76 2.63-3.61 2.97-3.78 3.29" filter="url(#a)"/><path d="m-30.56-84.78-2.46 1.5-2.74 1.39-3.73 1.38-4.36 1.42-4.27 1.53-3.55 1.71-2.56 1.91-1.75 2.09-1.52 2.22-1.91 2.25-2.59 2.24-3.18 2.17-3.46 2.11-3.6 2.07-3.92 2.1-4.61 2.17-5.45 2.33-6.02 2.5-6.11 2.66-6.13 2.77-6.44 2.69-5.2 1.64M63.09-20.04l.78 2.38.86 2.3.58 2.64.27 2.82.1 2.81.1 2.74.15 2.72.19 2.79.17 2.95.12 3.14.06 3.28v3.3l-.06 3.2-.13 3.01-.2 2.78-.24 2.6-.25 2.51-.25 2.53-.21 2.64-.19 2.78-.17 2.84-.2 2.78-.26 2.62-.35 2.43-.45 2.42-.25 2.82M-37.9-78.03l-1.69 2.04L-41.3-74l-2.06 1.97-2.61 2-3.01 2.05-3.05 2.11-2.77 2.13-2.4 2.18-2.2 2.22-2.24 2.27-2.51 2.31-2.82 2.36-3.1 2.41-3.29 2.48-3.38 2.56-3.35 2.63-3.19 2.66-2.88 2.66-2.57 2.61-2.33 2.61-2.17 2.67-2.03 2.76-2.05 2.75-2.76 2.34-5.12 1.25" filter="url(#a)"/><path d="m-38.69-76.8-1.52 1.05-2.69 1.92-2.98 2.28-2.59 2.38-1.86 2.34-1.27 2.25-1 2.16-1.01 2.08-1.17 2.09-1.4 2.13-1.65 2.25-1.91 2.37-2.14 2.48-2.27 2.56-2.25 2.57-2.09 2.54-1.88 2.54-1.73 2.62-1.73 2.79-1.88 2.98-2.12 3-2.33 2.56" filter="url(#a)"/><path d="m-40.84-74.6-1.93 2.79-1.4 1.97-1.55 2.07-1.66 2.16-1.75 2.19-1.84 2.21-1.93 2.27-2.02 2.31-2.04 2.37-2.02 2.42-1.95 2.48-1.82 2.54-1.68 2.6-1.52 2.65-1.35 2.67-1.17 2.68-.99 2.69-.77 2.7-.58 2.71-.38 2.74-.26 2.77-.2 2.8-.26 2.84-.4 2.89-.61 2.93-.82 2.96-.99 2.99-1.07 2.98-1.07 2.95-.98 2.91-.86 2.85-.74 2.83-.66 2.81-.59 2.82-.52 2.86-.44 2.85-.55 1.79" filter="url(#a)"/><path d="m-41.34-73.93-3.28 2.52-2.91 2.5-2.03 2.41-1.91 2.25-2.36 2.13-3.09 2.07-3.8 2.09-4.33 2.16-4.55 2.28-4.38 2.41-3.96 2.5-3.44 2.57-3.03 2.58-2.8 2.61-2.68 2.63-2.54 2.69-2.27 2.77-1.98 2.81-1.87 2.81-2.17 2.73-2.76 2.61-3.03 2.52-2.17 2.5-.58 2.65-2.43 3" filter="url(#a)"/><path d="m-43.27-71.22-13.8 2.44.46 2.47 2.38 2.26 1.15 2.11-.67 2.06-2.47 2.1-3.89 2.19-4.59 2.31-4.35 2.44-3.42 2.52-2.24 2.59-1.4 2.61-1.22 2.64-1.72 2.68-2.67 2.72-3.61 2.75-4.15 2.78-4.09 2.77-3.46 2.74-2.56 2.71-1.76 2.7-1.41 2.74-1.56 2.82-2.05 2.92-2.56 3-2.8 3.01-2.84 2.98-2.97 2.87-3.37 2.81-2.74 3.58M62.39-22.93l1.52 3.51 1.01 3.3 1.12 2.83 1.31 2.51 1.55 2.49 1.86 2.66 2.13 2.88L75.1.3l2.05 3.11 1.88 3.08 1.85 3.02 2.01 2.96 2.26 2.93 2.37 2.9 2.22 2.86 1.76 2.79 1.1 2.71.39 2.65-.15 2.64-.45 2.66-.44 2.65-.2 2.61.08 2.6.23 2.83.42 3.28 1.2 3.14M-45.84-67.32l-.96 2.14-.71 2.01-.04 2.08.78 2.23.97 2.33.49 2.37-.16 2.42-.54 2.46-.42 2.54.16 2.61.94 2.66 1.59 2.67 1.83 2.68 1.56 2.68.88 2.69.05 2.7-.62 2.73-.89 2.75-.72 2.79-.2 2.84.45 2.87 1.08 2.93 1.56 2.97 1.87 2.98 2.07 2.98 2.26 2.95 2.53 2.89 2.86 2.84 3.11 2.81 2.99 2.78 2.34 2.8 1.86 3.02 3.01 4.56m-33.51-87.99-.97 1.91-1.05 1.91-1.06 1.95-1.07 2.03-1.08 2.14-1.08 2.3-1.07 2.44-1.05 2.55-1.01 2.59-.97 2.6-.9 2.61-.83 2.65-.77 2.7-.71 2.75-.65 2.79-.61 2.78-.56 2.71-.5 2.66-.45 2.62-.4 2.67-.36 2.78-.33 2.94-.29 3.03-.2 2.89.03 2.4" filter="url(#a)"/><path d="m-48.21-63.58-1.38 1.92-1.27 1.93-1.11 2-1.12 2.12-1.29 2.29-1.58 2.46-1.95 2.56-2.3 2.59-2.57 2.6-2.64 2.6-2.45 2.63-2.12 2.68-1.78 2.76-1.61 2.8-1.61 2.77-1.66 2.71-1.67 2.63-1.63 2.58-1.57 2.62-1.48 2.77-1.23 3-1.1 3.18-2.61 3.08" filter="url(#a)"/><path d="m-48.21-63.58-1.19 1.95-1.2 1.96-1.26 2.05-1.32 2.17-1.42 2.35-1.55 2.5-1.59 2.59-1.51 2.63-1.32 2.65-1.11 2.66-.94 2.7-.87 2.73-.87 2.77-.9 2.79-.9 2.77-.86 2.76-.77 2.76-.66 2.76-.59 2.81-.55 2.86-.57 2.92-.61 2.97-.65 3.01-.62 3.05-.52 3.07-.36 3.08-.18 3.05-.01 2.99.12 2.85.19 2.71.21 2.62.11 2.65-.05 2.74-.12 2.55.15 1.52m23.55-92.1-.88 1.53-1.68 2.22-2.46 2.42-2.77 2.39-2.74 2.37-2.66 2.42-2.59 2.51-2.45 2.6-2.16 2.65-1.82 2.67-1.58 2.66-1.51 2.64-1.51 2.65-1.45 2.66-1.28 2.69-1.09 2.72-1.1 2.74-1.42 2.78-2.07 2.83-2.91 2.9-3.72 2.97-4.29 3.04-4.14 3.03-2.53 2.92.83 2.95" filter="url(#a)"/><path d="m-50.11-60.19-1.34 2.6-1.11 2.15-1.2 2.34-1.32 2.56-1.4 2.66-1.45 2.67-1.49 2.66-1.51 2.66-1.49 2.7-1.37 2.75-1.18 2.78-.93 2.79-.69 2.78-.53 2.77-.46 2.76-.46 2.78-.51 2.82-.54 2.87-.55 2.93-.51 2.98-.45 3.02-.36 3.04-.27 3.06-.18 3.04-.12 3.01-.06 2.95-.04 2.85-.03 2.76-.03 2.68-.03 2.65-.01 2.65.06 2.68.2 2.77.36 2.93.56 3.2.8 3.45.91 3.88M62.12-25.13l1.12 4.07 1.54 2.93 1.58 2.66L68-12.75l1.53 2.79 1.01 2.79.26 2.75-.41 2.75-.72 2.83-.69 2.97-.43 3.13-.13 3.26.1 3.28.23 3.18.37 3.01.53 2.8.76 2.63 1.02 2.55 1.17 2.56 1.15 2.65.88 2.76.45 2.81.04 2.76-.16 2.65-.04 2.52.24 2.5.1 2.67-.86 2.84" filter="url(#a)"/><path d="m62.12-25.13 1.71 4.09.52 2.95.72 2.68 1.37 2.74 2.05 2.81 2.48 2.81 2.48 2.78 2.13 2.79L77.2 1.4l1.3 3.01 1.26 3.15 1.47 3.24 1.73 3.23 1.83 3.13 1.72 2.99 1.48 2.84 1.27 2.71 1.19 2.65 1.24 2.64 1.32 2.67 1.29 2.71 1.07 2.72.62 2.69-.03 2.63-.71 2.55-1.26 2.47-1.52 2.4-1.39 2.37-.89 2.34-.22 2.34.44 2.36.82 2.34.62 2.22-.24 1.97.41 1.88" filter="url(#a)"/><path d="m62.12-25.13 1.27 4.06 2.86 2.93 3.88 2.66 3.43 2.71 2.79 2.79 2.73 2.79 2.97 2.75 2.89 2.74 2.3 2.81 1.4 2.96.62 3.14.2 3.26.14 3.28.31 3.2.6 3.01 1.06 2.8 1.72 2.61 2.47 2.52 2.96 2.54 2.84 2.65 1.97 2.78.68 2.84-.37 2.79-.54 2.62.23 2.44 1.09 2.42 1.38 2.82M-54.35-51.28l-3.67 2.11-4.4 2.62-3.87 2.72-3.21 2.75-2.64 2.72-2.48 2.65-2.64 2.61-2.66 2.61-2.29 2.66-1.62 2.69-1.01 2.72-.77 2.75-.95 2.78-1.43 2.84-2.05 2.91-2.75 2.95-3.47 2.99-3.99 2.98-3.89 2.93-3.02 2.83-2.06 2.71-2.02 2.66-1 3.22m57.14-61.96-2.8 3.35-1.94 2.84-2.2 2.82-2.68 2.77-2.64 2.68-1.92 2.65-.89 2.67-.05 2.71.31 2.74.19 2.79L-70-19l-.9 2.87-1.51 2.9-2 2.94-2.26 2.97-2.25 2.96-1.94 2.96-1.39 2.92-.74 2.89-.18 2.86.16 2.83.19 2.8-.01 2.79-.3 2.78-.48 2.77-.51 2.77-.38 2.78-.26 2.78-.31 2.76-.54 2.73-.81 2.72-.83 2.75-.51 2.87.03 2.96.46 2.72-.09 1.26" filter="url(#a)"/><path d="m-56.63-45.62-.78 2.13-1.02 2.74-1.17 2.8-1.34 2.68-1.65 2.62-2.1 2.65-2.55 2.71-2.83 2.74-2.8 2.79-2.47 2.81-1.97 2.86-1.48 2.91-1.18 2.94-1.18 2.96-1.51 2.97-2.06 2.96-2.66 2.92-3.12 2.89-3.3 2.85-3.13 2.82-2.64 2.8-1.99 2.79-1.34 2.77-.81 2.77-.46 2.77-.24 2.78-.14 2.77-.22 2.76-.56 2.74-1.15 2.71-1.71 2.75-1.76 2.86-1.01 2.96-.04 2.72-1.17 1.26" filter="url(#a)"/><path d="m-60.39-33.91-15.71 1.37 1.8 2.53 2.54 2.86 1.23 2.84.46 2.78-.03 2.79-.65 2.83-1.39 2.9-2.13 2.95-2.77 2.98-3.21 2.97-3.43 2.95-3.36 2.91L-90 4.62l-2.24 2.83-1.32 2.81-.51 2.78-.06 2.77-.11 2.75-.6 2.75-1.33 2.76-2.03 2.77-2.59 2.77-2.98 2.75-3.17 2.7-2.92 2.66-1.99 2.71-.42 2.93.97 3.29.72 4.22m49.73-81.89-1.92 3.33-1.26 2.77-.74 2.58-.62 2.57-.59 2.66-.5 2.8-.4 2.91-.27 2.98-.16 3.03-.05 3.05.07 3.06.17 3.05.24 3.03.27 2.98.28 2.9.25 2.82.23 2.74.23 2.7.25 2.69.28 2.71.35 2.76.43 2.81.52 2.86.6 2.86.66 2.81.69 2.69.7 2.54.68 2.37.69 2.27.71 2.27.77 2.36.86 2.5.87 2.4.59 1.68M61.86-27.13l1.68 2.77 3.34 3.14 2.32 2.88 1.31 2.76 1.19 2.76 1.34 2.79 1.28 2.78.97 2.76.66 2.76.5 2.84.55 2.98.84 3.13 1.32 3.24 1.96 3.27 2.64 3.17 3.22 3.01 3.52 2.82 3.46 2.64 3.03 2.56 2.26 2.57 1.25 2.66.13 2.76-.88 2.81-1.49 2.77-1.39 2.64-.71 2.53.05 2.5.41 2.67 1.13 2.85" filter="url(#a)"/><path d="m59.65-36.95 1.12 4.3 2.29 2.82 4.14 2.69 4.42 2.81 3.26 2.87 1.81 2.86.91 2.83.69 2.82.94 2.8 1.35 2.8 1.64 2.81 1.72 2.83 1.57 2.92 1.31 3.01 1.06 3.12.96 3.19 1.03 3.19L91 16.84l1.12 3 .85 2.87.3 2.74-.4 2.67-1.01 2.65-1.3 2.68-1.17 2.71-.68 2.73v2.71l.61 2.65 1.03 2.56 1.2 2.48 1.1 2.4.78 2.35.36 2.32.02 2.35-.23 2.44-.83 2.57-1.4 2.74" filter="url(#a)"/><path d="m59.59-36.83.64 2.36 1.04 2.92 1.23 2.92 1.2 2.9 1.12 2.96 1.15 3 1.29 2.94 1.41 2.86 1.42 2.77 1.36 2.77 1.33 2.82 1.43 2.91 1.7 2.99 2.11 3.04 2.49 3.05 2.73 3.04 2.75 3 2.56 2.96 2.21 2.92 1.82 2.87 1.48 2.82 1.26 2.77 1.09 2.72.94 2.7.68 2.69.29 2.7-.21 2.7-.65 2.72-.88 2.71-.86 2.69L95 51l-.73 2.5-1.1 2.4-1.72 2.43-1.99 2.6-1.48 2.74-.79 2.36M58.99-38.03l4.63 2.3 4.85 2.88 2.95 2.73 2.69 2.69 3.79 2.77 4.52 2.8 3.8 2.8 1.88 2.78-.24 2.77-1.53 2.77-1.55 2.75-.45 2.71 1.21 2.68L88.35.09l3.87 2.81 4.23 3.05 4.1 3.33 3.86 3.56 3.67 3.6 3.07 3.39 1.91 2.92.73 2" filter="url(#a)"/><path d="m58.99-38.03 1.65 2.33 1.94 2.9 3.97 2.76 5.03 2.73 4.12 2.79 2.1 2.83.3 2.83-.52 2.81-.36 2.79.43 2.79 1.39 2.77 2.2 2.76 2.74 2.77L86.96.66l2.97 2.95 2.79 3.11 2.51 3.24 2.25 3.31 1.95 3.25 1.55 3.08.97 2.83.27 2.56-.23 2.4-.11 2.4.83 2.62 2.07 2.95 2.57 3.13 2.24 2.69" filter="url(#a)"/><path d="m57.97-41.85 1.17 2.45 1.91 2.42 1.79 2.59 1.2 2.74.74 2.82.63 2.88.85 2.93 1.27 2.96 1.72 2.91 2.03 2.84 2.06 2.77 1.8 2.76 1.3 2.79.75 2.89.31 2.97.07 3.03.03 3.06.13 3.03.31 2.99.5 2.97.61 2.93.57 2.9.35 2.82-.03 2.72-.39 2.66-.59 2.66-.52 2.72-.22 2.72.22 2.47.68 2.04 1.15 2.22" filter="url(#a)"/><path d="m55.62-48.66 1.71 1.58 1.18 2.55.98 2.82.73 2.86.58 2.85.56 2.81.61 2.8.66 2.8.69 2.81.67 2.82.62 2.82.57 2.82.53 2.81.48 2.8.4 2.78.3 2.78.18 2.81.07 2.86-.01 2.97-.05 3.1-.04 3.23-.02 3.29-.03 3.25-.06 3.09-.13 2.86-.2 2.6-.26 2.42-.31 2.43-.37 2.62-.43 2.95-.43 3.14-.32 2.71" filter="url(#a)"/><path d="m54.82-50.3 2.72 2.54 3.36 2.71 3.66 2.68 2.83 2.62 1.7 2.62 1.16 2.67 1.46 2.74 2.19 2.81 2.83 2.87 3.02 2.92 2.74 2.92 2.16 2.9 1.55 2.86 1.08 2.82.87 2.81.93 2.84 1.14 2.91L91.6-.09l1.49 3.02 1.42 3.04L95.66 9l.78 3.01.43 2.98.21 2.93.19 2.89.38 2.83.66 2.76.96 2.72 1.12 2.69 1.08 2.68.79 2.68.27 2.68-.41 2.7-1.12 2.82-1.37 3.01-.33 2.92 1.79 2.19" filter="url(#a)"/><path d="m52.23-56.12 1.53 2.76 1.74 2.7 2.53 2.68 3.44 2.66 3.79 2.64 3.37 2.61 2.47 2.61 1.65 2.64 1.36 2.7 1.88 2.76 3.06 2.83 4.46 2.89 5.53 2.92 5.79 2.9 5.06 2.83 3.61 2.76 2.04 2.69.97 2.72.72 2.83L108.41-1l1.88 3.12 2.35 3.14 2.51 3.01 2.56 2.82 2.57 2.8 1.88 3.12 1.53 3.88" filter="url(#a)"/><path d="m52.51-55.94-.64 2.06 1.06 2.07 1.2 2.18 1 2.35.79 2.52.63 2.65.47 2.74.32 2.77.15 2.77v2.75l-.11 2.76-.14 2.76-.16 2.79-.24 2.79-.45 2.77-.73 2.77-.92 2.79-.9 2.84-.68 2.84-.44 2.7-.28 2.33-.03 1.83M50.78-59l3 2.64 2.52 2.29 2.15 2.19 2.07 2.24 2.03 2.37 1.85 2.53 1.66 2.65 1.72 2.73 2.1 2.77 2.61 2.78 3.07 2.77 3.42 2.78 3.67 2.78 3.9 2.8 4.1 2.8 4.11 2.79 3.74 2.8 2.91 2.8 1.76 2.8.78 2.75.51 2.65 1.35 2.46 2.75 2.34 3.04 2.45 1.93 2.94m-63.8-68.14 8.34 3.29 7.62 2.37 3.66 2.36 1.28 2.48.37 2.57.55 2.61 1.43 2.62 2.51 2.6 3.31 2.6 3.69 2.64 3.81 2.68 3.88 2.74 4.03 2.82 4.13 2.87 4.04 2.93 3.73 2.93 3.39 2.85 3.29 2.73 3.62 2.59 4.33 2.55 5.1 2.7 5.48 3.04 5.17 3.5 4.52 3.81 3.27 3.43" filter="url(#a)"/><path d="m49.73-61.24 2.52 3.29 2.08 2.37 2.33 2.34 2.71 2.48 2.7 2.57 2.19 2.61 1.55 2.6 1.07 2.6.88 2.6.88 2.63.94 2.67 1.09 2.74 1.4 2.8 1.97 2.88 2.79 2.93 3.68 2.94 4.34 2.87 4.4 2.72 3.71 2.54 2.4 2.47.99 2.59.09 3-.02 3.67 1.12 4.51" filter="url(#a)"/><path d="m49.73-61.24 3.13 3.31 1.7 2.4 1.82 2.39 2.58 2.51 2.99 2.6 2.83 2.63 2.32 2.64 1.89 2.63 1.77 2.65 2.04 2.67 2.56 2.73 3.17 2.79 3.7 2.84 4.07 2.89 4.23 2.9 4.17 2.89 3.84 2.85 3.3 2.8 2.65 2.78 2.05 2.8 1.67 2.88 1.52 2.97 1.54 3.04 1.62 3.07 1.67 3.04 1.66 2.99 1.53 2.98 1.26 3.01.99 3.04 1.01 2.98 1.46 2.68 2.22 2.12 4.36 1.82m-81.19-94.6 1.65 3.15 1.34 2.53 1.17 2.36 1 2.27.89 2.27.81 2.32.8 2.43.8 2.54.79 2.66.78 2.72.73 2.78.7 2.79.64 2.8.58 2.81.53 2.81.46 2.82.39 2.82.32 2.82.26 2.82.2 2.8.15 2.79.1 2.77.05 2.76-.03 2.8-.11 2.9-.18 3.08-.25 3.31-.3 3.49-.33 3.53-.37 3.35-.45 2.96-.51 2.44-.53 2.14" filter="url(#a)"/><path d="m47.81-64.4 1.91 2.01 1.25 2.15 1.24 2.27 1.3 2.35 1.33 2.42 1.32 2.5 1.28 2.58 1.23 2.61 1.14 2.63 1.06 2.64.98 2.66.94 2.68.92 2.74.93 2.79.91 2.84.91 2.88.89 2.9.87 2.89.84 2.85.79 2.81.74 2.79.66 2.82.57 2.88.49 2.97.4 3.04.29 3.07.18 3.04.08 3.01.04 2.98.04 3.01.07 3.05.1 2.98.07 2.69v2.12l-.24 1.83m-27.21-97.3 1.4 2.49.79 2.22.02 2.21-.4 2.28-.41 2.34-.25 2.42-.12 2.5-.04 2.56.02 2.6.08 2.62.09 2.64.04 2.65-.1 2.69-.32 2.72-.61 2.79-.92 2.84-1.23 2.88-1.45 2.9-1.51 2.89-1.35 2.84-.99 2.81-.55 2.77-.25 2.79-.26 2.87-.61 2.98-1.23 3.07-1.88 3.09-2.35 3.04-2.5 2.96-2.28 2.94-1.78 3.03-1.37 3.22-1.95 3.46-4.31 4.25" filter="url(#a)"/><path d="m46.13-67.22-2.55 2.49 1.36 2.22 2.16 2.22 1.83 2.28 1.34 2.34 1.02 2.43.91 2.5.88 2.56.8 2.6.61 2.63.31 2.63-.03 2.66-.31 2.69-.47 2.73-.5 2.79-.45 2.84-.38 2.88-.35 2.9-.36 2.89-.42 2.85-.47 2.8-.5 2.79-.47 2.81-.41 2.88-.31 2.97-.19 3.05-.1 3.08-.12 3.05-.31 2.99-.7 2.97-1.19 3.02-1.7 3.13-2.03 3.13-2.02 2.79-1.55 1.3" filter="url(#a)"/><path d="m46.13-67.22 1.46 2.47 1.23 2.21 1.03 2.2.79 2.26.54 2.32.41 2.4.37 2.47.39 2.55.38 2.58.38 2.61.43 2.61.53 2.63.63 2.65.68 2.7.6 2.75.42 2.82.18 2.88-.04 2.92-.15 2.93-.16 2.86-.06 2.75.02 2.62.02 2.57-.16 2.71-.48 3.04-.84 3.51-.95 3.82-.32 3.45m-8.14-77.68 2.26 1.76 1.43 2.07 1.97 2.15 2.43 2.19 2.47 2.24 2.43 2.31 2.42 2.37 2.46 2.46 2.47 2.52 2.51 2.57 2.66 2.6 2.93 2.59 3.23 2.61 3.45 2.62 3.53 2.67 3.47 2.72 3.34 2.79 3.29 2.87 3.45 2.97 3.89 3.03 4.43 3 4.69 2.77 4.38 2.4 3.27 2.1 1.03 2.42" filter="url(#a)"/><path d="m42.29-72.69 9.96 1.88 3.99 2.32 3.61 2.33 4.03 2.32 3.66 2.33 2.8 2.33 2 2.32 1.51 2.3 1.21 2.31.96 2.35.78 2.43.76 2.51 1.01 2.62 1.46 2.69 2 2.74 2.48 2.78 2.82 2.79 3.02 2.79 3.13 2.81 3.29 2.81 3.56 2.82 3.93 2.82 4.27 2.82 4.3 2.82 3.87 2.82 3.18 2.77 2.76 2.67 3.11 2.5 4 2.37 4.43 2.46 5.54 2.96" filter="url(#a)"/><path d="m42.19-73.19 1.05 2.32-.46 2.02-1.48 2.01-1.37 2.07-.56 2.14.43 2.2 1.23 2.27 1.59 2.34 1.43 2.41.85 2.48.04 2.53-.8 2.59-1.5 2.61-1.96 2.63-2.14 2.65-2.05 2.68-1.72 2.72-1.22 2.78-.56 2.83.14 2.88.78 2.91 1.17 2.89 1.15 2.86.66 2.79-.26 2.73-1.4 2.74-2.44 2.84-3.11 3.01L26.4 1.9l-3.1 3.2-2.73 3.03-2.19 2.74-1.26 2.59-.77 2.8m24.06-91.43 2.92 1.1 3.69 1.52 3.66 1.88 3.08 2.11 2.07 2.22 1.21 2.28.97 2.3 1.4 2.31 2.24 2.3 3.07 2.28 3.62 2.29 3.81 2.32 3.78 2.38 3.69 2.48 3.65 2.58L87-40.15l4.01 2.74 4.51 2.76 5.12 2.77 5.53 2.76 5.49 2.79 4.97 2.84 4.36 2.86 4.33 2.72 5.58 2.52 8.12 3.26" filter="url(#a)"/><path d="M38.82-76.88 43-74.95l2.35 1.97 2.52 2.01 2.49 2.01 2.43 2.04 2.55 2.09 2.71 2.14 2.64 2.2 2.37 2.27 2.09 2.34 2.03 2.4L69.45-51l2.73 2.53 3.14 2.58 3.32 2.6 3.16 2.63L84.56-38l2.32 2.69 2.01 2.72 1.95 2.78 2.09 2.84 2.28 2.88 2.39 2.9 2.35 2.9 2.18 2.86 1.98 2.79 1.85 2.75 1.91 2.75 2.24 2.84 2.78 3.01 3.26 3.17 3.31 3.2 2.77 3.03 1.98 2.75 1.39 2.6-.33 2.8" filter="url(#a)"/><path d="m38.82-76.88 1.96 1.92L43.31-73l2.6 2 2.64 2 2.7 2.03 2.6 2.07 2.32 2.13 1.94 2.19 1.57 2.25 1.27 2.32 1.06 2.39.97 2.46 1 2.52 1.15 2.57 1.44 2.59 1.86 2.62 2.33 2.63 2.76 2.66 3.06 2.69 3.19 2.76 3.13 2.81 2.96 2.89 2.68 2.95 2.35 2.97 1.91 2.91 1.51 2.76 1.35 2.55 1.71 2.4 2.58 2.46 3.31 2.85 1.63 3.64" filter="url(#a)"/><path d="m35.84-79.85 8.02 2.54 3.41 2.16 2.75 2.06 2.62 2.01 2.41 2.02 2.2 2.03 1.96 2.08 1.67 2.12 1.39 2.19 1.28 2.25 1.43 2.31 1.77 2.39 2.19 2.45 2.49 2.52 2.58 2.56 2.48 2.59 2.29 2.62 2.06 2.63 1.88 2.65 1.78 2.69 1.82 2.75 2 2.81 2.26 2.89 2.56 2.97 2.77 3 2.91 2.95 2.94 2.77 2.72 2.5 2.15 2.26 1.78 2.27 3.5 2.45" filter="url(#a)"/><path d="m35.84-79.85 3.28 2.52 3.04 2.16 3.26 2.04 3.25 2 3.69 2 4.66 2.02 5.58 2.05 5.8 2.11 5.15 2.16 3.98 2.23 2.75 2.29 1.84 2.36 1.43 2.43 1.57 2.5 2.18 2.56 3.08 2.58 4.09 2.59 4.89 2.59 5.3 2.61 5.35 2.65 5.34 2.69 5.6 2.73 6.09 2.78 5.8 2.93 3.63 3.33 1.25 3.93" filter="url(#a)"/><path d="m33.77-82 4.31 2.35 5.61 1.79 3.38 1.74.93 1.75-.04 1.82.22 1.95 1.08 2.08 2.15 2.18 3.2 2.25 4.02 2.29 4.45 2.31 4.36 2.32 3.85 2.32 3.14 2.33 2.61 2.37 2.53 2.44 2.99 2.51 3.83 2.6 4.73 2.68 5.35 2.73 5.46 2.77 5.05 2.79 4.31 2.81 3.44 2.81 2.66 2.82 2.1 2.83 1.84 2.82 1.94 2.82 2.26 2.84L128.09-9l2.69 2.88 3.14 2.75 4.61 2.39 4.91 1.87" filter="url(#a)"/><path d="m33.77-82 2.93 2.35 3.36 1.79 3.64 1.74 3.08 1.75 2.19 1.82 1.42 1.95.92 2.08.64 2.18.55 2.25.59 2.29.72 2.31.92 2.32 1.11 2.32 1.29 2.33 1.42 2.37 1.51 2.44 1.6 2.51 1.7 2.6 1.84 2.68 2.04 2.73 2.25 2.77 2.45 2.79 2.55 2.81 2.49 2.81 2.21 2.82 1.75 2.83 1.22 2.82.78 2.82.62 2.84.78 2.88 1.17 2.88 1.66 2.75 2.1 2.39L90.49.89" filter="url(#a)"/><path d="m33.09-82.6 1.42 1.27 1.8 1.69 1.71 1.72 1.6 1.73 1.56 1.75 1.58 1.83 1.63 1.94 1.74 2.06 1.83 2.16 1.92 2.23 1.94 2.28 1.87 2.3 1.74 2.31 1.57 2.3 1.41 2.32 1.32 2.35 1.29 2.41 1.31 2.5 1.38 2.58 1.41 2.67 1.43 2.74 1.41 2.77 1.42 2.78 1.54 2.79 1.77 2.8 2.01 2.84 2.05 2.85 1.69 2.78.95 2.7.42 2.85 1.03 3.07M31.04-84.7l.92.94 1.72 1.35 2.58 1.54 3.39 1.68 3.8 1.81 3.64 1.9 3.07 1.95 2.35 1.97 1.78 1.98 1.45 2 1.36 2.03 1.38 2.07 1.41 2.12 1.42 2.17 1.49 2.23 1.77 2.29 2.23 2.38 2.79 2.47 3.15 2.57 3.14 2.68 2.64 2.73 1.35 2.65" filter="url(#a)"/><path d="m31.04-84.7 1.14.95 2.23 1.37 2.53 1.56 2.38 1.71 2.06 1.83 1.86 1.92 1.87 1.97 1.99 1.99 2.08 2.01 1.99 2.04 1.74 2.06 1.41 2.11 1.14 2.16 1.03 2.22 1.11 2.28 1.35 2.35 1.67 2.43 1.95 2.49 2.03 2.56 1.89 2.58 1.53 2.6 1.12 2.59.88 2.6.93 2.65 1.25 2.72 1.59 2.7 1.67 2.53.92 2.79" filter="url(#a)"/><path d="m31.04-84.7.99.96 1.85 1.38 2.05 1.57L38-79.07l2.16 1.84 2.35 1.93 2.53 1.98 2.59 2 2.49 2.02 2.36 2.05 2.32 2.08 2.47 2.13 2.8 2.18 3.17 2.24 3.45 2.3 3.47 2.37 3.18 2.45L76-49l2.07 2.55 1.6 2.59 1.43 2.61 1.62 2.62 2.05 2.65 2.6 2.67 3.03 2.73 3.31 2.79 3.44 2.87 3.54 3.01 3.56 3.17 3.27 3.26 2.35 3.07 1.45 2.46" filter="url(#a)"/><path d="m28.57-86.27 2.13 1.29 2.7 1.25 3.34 1.41 3.11 1.56 2.34 1.71 1.69 1.83 1.44 1.91 1.57 1.97 1.89 2 2.23 2.02 2.53 2.06 2.71 2.08 2.73 2.14 2.64 2.18 2.48 2.25 2.35 2.3 2.36 2.38 2.53 2.45 2.82 2.5 3.16 2.56 3.42 2.59 3.58 2.61 3.64 2.63 3.67 2.65 3.77 2.69 3.87 2.74 3.86 2.81 3.53 2.89 2.81 3 1.88 3.1 1.19 3.11 1.17 2.88 1.86 2.3 3.19 1.43" filter="url(#a)"/><path d="m25.92-88.21 3.16 1.96 3.69 1.69L36.25-83l2.72 1.56 1.94 1.6 1.58 1.65 1.7 1.68 2.26 1.72 3.22 1.78 4.4 1.87 5.62 1.99 6.59 2.09 7.13 2.19 7.18 2.25 6.77 2.29 6.01 2.3 5.07 2.27 4.48 2.22 4.77 2.17 5.73 2.11 5.19 2.11.48 2.51M25.92-88.21l2.7 1.99 2.41 1.71 2.06 1.6 1.84 1.6 1.77 1.63 1.77 1.69 1.84 1.72 1.93 1.79 2 1.86 2.03 1.95 1.98 2.05 1.92 2.15L52-64.26l1.76 2.27 1.69 2.29 1.62 2.31 1.52 2.33 1.42 2.34 1.35 2.37 1.32 2.44 1.36 2.51 1.43 2.59 1.52 2.67 1.57 2.73 1.56 2.77 1.48 2.79 1.38 2.81 1.36 2.82 1.44 2.83 1.64 2.83 1.84 2.82 1.86 2.8 1.61 2.83 1.17 2.94.84 3.13 1.3 3.7" filter="url(#a)"/><path d="m25.65-88.3-1.42.75.72 1.4 2.22 1.53 2.42 1.55 1.96 1.57 1.32 1.6.66 1.64.05 1.67-.49 1.72-.87 1.78-.99 1.86-.76 1.98-.35 2.09.05 2.18.21 2.25.13 2.29-.08 2.31-.23 2.28-.41 2.23-.94 2.17-2.15 2.04-3.54 1.45m2.88-40.13 1.45.68 1.96 1.1 2.12 1.22 2.23 1.31 2.39 1.41 2.65 1.54 3.04 1.66 3.58 1.79 4.26 1.87 4.89 1.93 5.25 1.98 5.19 2 4.73 2.03 4.05 2.05 3.45 2.1 3.15 2.15 3.21 2.21 3.53 2.26 3.96 2.34 4.32 2.41 4.54 2.49 4.62 2.57 4.5 2.61 4.09 2.6 3.46 2.53 3.17 2.44 4.42 2.46 6.82 3.01" filter="url(#a)"/><path d="m22.94-90.12 2.26 1.34 3.46 1.24 4.73 1.4 4.34 1.5 2.94 1.54 1.73 1.57 1.36 1.61 1.73 1.64 2.45 1.68 3.12 1.73 3.53 1.79 3.74 1.88 3.91 1.99 4.2 2.09 4.62 2.18 5.08 2.26 5.41 2.29 5.44 2.3 5.19 2.28 4.83 2.24 4.62 2.17 4.68 2.13 4.6 2.11 6.38 2.52" filter="url(#a)"/><path d="m16.54-93.2 4.27.72 1.37.82 1.18.91 1.59.99 2.25 1.09 2.94 1.22 3.38 1.34 3.47 1.43 3.33 1.5 3.11 1.57L46.36-80l2.88 1.65 2.92 1.7 3.08 1.75 3.3 1.82 3.49 1.9 3.57 2 3.49 2.09 3.33 2.18 3.22 2.25 3.29 2.29 3.51 2.3 3.73 2.29L90-53.51l3.92 2.24 4.2 2.27 4.66 2.37 4.72 2.6 4.1 2.92 4.27 3.08M12.99-94.38l2.07.83 1.56.68 1.7.79 1.86.95 1.91 1.08 1.88 1.15 1.78 1.18 1.67 1.22L29-85.25l1.5 1.33 1.47 1.4 1.45 1.51 1.41 1.62 1.35 1.73 1.26 1.82 1.13 1.9.99 1.95.84 1.99.73 2.01.64 2.05.57 2.08.51 2.12.45 2.18.42 2.23.43 2.29.52 2.36.62 2.47.62 2.58.69 2.73" filter="url(#a)"/><path d="m10.86-94.81 2.25.58 2.09.66 1.89.7 1.87.81 1.96.95 2.05 1.05 2.09 1.13 2.12 1.18 2.15 1.21 2.2 1.26 2.3 1.32 2.4 1.4 2.47 1.5 2.45 1.62 2.35 1.72 2.17 1.82 1.98 1.89 1.85 1.95 1.84 1.98 1.98 2.01 2.23 2.04 2.51 2.08 2.7 2.12 2.74 2.17 2.64 2.23 2.47 2.26 2.42 2.35 2.79 2.46 3.95 2.46" filter="url(#a)"/><path d="m6.12-95.87 3.48.45 2.79.56 2.38.61 2.6.66 3.08.72 3.39.81 3.42.93 3.23 1.02 2.96 1.1 2.74 1.16 2.59 1.19 2.49 1.24 2.45 1.3 2.47 1.38 2.63 1.48 2.97 1.58 3.46 1.71 3.96 1.8 4.26 1.9 4.28 1.94 4.12 1.98 4.07 1.99 4.3 2 4.59 2.03 4.43 2.1 3.81 2.33 4.14 3.36" filter="url(#a)"/><path d="m6.12-95.87 2.55.46 2.3.56 2.17.62 2.06.67 1.98.73 1.96.84 2 .94 2.05 1.04 2.08 1.11 2.07 1.17 2.03 1.22 1.94 1.28 1.84 1.34 1.75 1.42 1.69 1.53 1.65 1.62 1.67 1.73 1.73 1.82 1.79 1.89 1.84 1.96 1.86 1.99 1.85 2.03 1.82 2.06 1.77 2.11 1.73 2.15 1.68 2.2 1.64 2.26 1.62 2.33 1.6 2.41 1.61 2.51 1.61 2.6 1.59 2.67 1.52 2.71 1.46 2.63 1.65 2.43" filter="url(#a)"/><path d="m6.26-95.76 1.91.25 2.62.46 2.62.58 2.31.63 2.06.68 1.98.72 2.11.78 2.32.87 2.57.96 2.73 1.06 2.79 1.16 2.85 1.28 2.95 1.38 3.18 1.46 3.54 1.52 3.96 1.58 4.33 1.62 4.58 1.66 4.66 1.7 4.57 1.75 4.34 1.82 3.97 1.94 3.55 2.06 3.34 2.18 3.63 2.27 4.72 2.33L97.83-59" filter="url(#a)"/></g><g fill="none" stroke="#000"><circle cx="9.11" cy="25.968" r="2.158" filter="url(#a)"/><circle cx="7.066" cy="28.72" r="2.234" filter="url(#a)"/><circle cx="7.41" cy="27.668" r="2.136" filter="url(#a)"/><circle cx="6.026" cy="25.276" r="1.664" filter="url(#a)"/><circle cx="5.634" cy="27.448" r="2.992" filter="url(#a)"/><circle cx="8.23" cy="25.404" r="2.348" filter="url(#a)"/><circle cx="8.494" cy="28.836" r="1.216" filter="url(#a)"/><circle cx="6.874" cy="25.86" r="1.004" filter="url(#a)"/><circle cx="7.25" cy="27.064" r="1.656" filter="url(#a)"/><circle cx="8.57" cy="25.196" r="1.818" filter="url(#a)"/><circle cx="-7.784" cy="34.226" r="1.386" filter="url(#a)"/><circle cx="-6.976" cy="36.63" r="2.532" filter="url(#a)"/><circle cx="-8.324" cy="35.01" r="2.934" filter="url(#a)"/><circle cx="-7.54" cy="34.722" r="1.644" filter="url(#a)"/><circle cx="-9.188" cy="35.69" r="2.634" filter="url(#a)"/><circle cx="-8.736" cy="36.762" r="1.2" filter="url(#a)"/><circle cx="-6.824" cy="33.866" r="1.728" filter="url(#a)"/><circle cx="-9.556" cy="33.918" r="1.902" filter="url(#a)"/><circle cx="-9.664" cy="34.126" r="1.062" filter="url(#a)"/><circle cx="-8.968" cy="36.082" r="1.766" filter="url(#a)"/></g><path fill="#D77F8C" stroke="#000" stroke-linejoin="round" stroke-width="3" d="m14.32 44.85.1.42-.18-.64.24 1.66.04.15.02.02-.07.6.04.57.06.28-.26.8-.02.15-.23.91-.02.42-.04.03-.12.45.14-.42-.27.75-.18.33-.08.17-.95 1.89.4-.82-1.11 1.75.1-.13-.69.88-.04.13h.07l-.16.16-.75.85-1.02.98.87-.81-.94.94-.76.67.09-.09-1.75 1.38L8 58.42l-1.94 1.45-.45.27.87-.57-2.36 1.48.28-.13.53-.31-1.33.75-1.32.69.81-.43-.79.43-.86.39-2.02.84 1.29-.53-2.46.94 1.21-.42-2.58.84.58-.17-1.78.49 1.05-.27-1.64.41-.2.04-.77.15.17-.03-.4.07-2 .32-.82.08.73-.07-2.2.16-.73.05 1.02-.05-1.68.05.49-.04-2.05-.05.52.05-.35-.05-.81-.06-1.26-.11.25-.01-2.18-.43-.51-.05.48.04-1.6-.34 1.06.28-1.89-.6.64.23-1.14-.44-.13-.09-.78-.37.17.05-1.64-.86.65.41-.43-.39-.42-.27-.48-.25-1.02-.9-.38-.32-.44-.57.47.39-.65-.79.18.34-.95-1.27-.38-.62.28.18.01.12-.3-.64-.21-.53-.24-.38-.23-.95v-.31l.03-.46-.14-.4.1-.05.03-1.16-.11.16.15-1.04.03.52-.03-.83.1-.05.07-.18.08-.31.57-1.89.02.1.27-.73.11-.29.1-.17.34-.49.01-.13.64-.91.26-.42-.09.23.22-.41.62-.74.29-.31 1.47-1.51-.3.26 1.17-1.14-.81.74 1.35-1.17.41-.29-.09.09.05-.1 1.08-.76.06-.09 1-.63.35-.22.72-.44.04-.02 1-.59 1.49-.71.65-.29-.31.12 1.3-.55.22-.09 2.02-.72-1.31.45 2.34-.76-.61.18.69-.21 1.59-.42-.55.13.28-.05.85-.19.97-.21.08-.02 2.36-.35-.98.16 2.44-.27.87-.04h.02l-.35.01 1.01-.01.34.03.26-.01 1.64.08.84.06-.85-.04 1.68.14 1.51.27-1-.13 1.32.26.79.27.07-.01h.06l1.1.42.67.15-.48-.06 1.12.47-.26-.14 1.43.65-.11-.07 1.2.91.12.11.85.55-.45-.37.6.49.15.11.83 1 .16.11-.05.04.45.72-.06.04.1-.01.47.72.41 1.19-.05-.4" filter="url(#a)"/></svg>