<svg xmlns="http://www.w3.org/2000/svg" width="500" height="500" viewBox="-100 -100 200 200"><defs><clipPath id="c"><path d="m34.27-8.33-.22-.35-.26-.32-.3-.32-.35-.29-.39-.29-.43-.27-.47-.26-.51-.25-.54-.23-.59-.23-.62-.21-.65-.21-.68-.2-.72-.19-.74-.18-.77-.17-.81-.16-.85-.17-.9-.15-.95-.16-.97-.14-1.02-.15-1.05-.14-1.07-.13-1.11-.13-1.13-.12-1.15-.12-1.16-.12-1.19-.1-1.19-.11-1.21-.09-1.21-.09-1.21-.08-1.21-.08-1.21-.07-1.21-.06-1.2-.05-1.19-.04-1.17-.04-1.16-.02-1.15-.02-1.12-.01h-1.1l-1.08.01-1.06.02-1.03.03-1.01.04-.97.05-.95.07-.92.07-.89.08-.86.09-.82.1-.8.11-.76.13-.73.13-.71.14-.67.15-.64.16-.62.17-.59.18-.56.19-.53.19-.51.21-.49.21-.47.22-.45.22-.42.24-.4.25-.38.25-.36.26-.35.27-.32.28-.3.29-.29.29-.27.31-.25.31-.24.32-.22.32.5 8.29.28.58.3.58.32.59.33.58.34.59.36.58.38.59.39.58.41.57.43.57.45.57.46.56.48.55.51.53.52.54.55.52.56.52.59.52.61.49.63.49.66.47.69.45.71.42.74.41.76.38.8.35.81.32.85.29.87.26.9.23.92.19.95.15.97.12.99.08 1.02.04h1.03l1.06-.04 1.07-.08 1.09-.12 1.11-.15 1.11-.2 1.13-.23 1.14-.28 1.14-.31 1.15-.34 1.15-.38 1.15-.41 1.15-.45 1.14-.47 1.14-.5 1.12-.53 1.12-.55 1.09-.58 1.09-.59 1.06-.61 1.03-.63 1.02-.63.98-.65.96-.65.92-.66.89-.65.85-.66.81-.65.77-.64.73-.56.71-.56.68-.55.65-.56.61-.55.59-.54.56-.54.52-.53.48-.53.45-.51.41-.5.38-.49.33-.48.29-.46.25-.45"/></clipPath><clipPath id="b"><path d="m-34.47-6.56.24-.29.28-.28.32-.27.37-.25.42-.24.46-.24.49-.22.54-.21.57-.21.61-.19.65-.19.67-.18.71-.17.74-.16.76-.16.82-.15.86-.15.89-.14.94-.14.98-.14 1.01-.13 1.04-.13 1.06-.12 1.1-.12 1.11-.11 1.14-.11 1.16-.1 1.16-.1 1.18-.1 1.19-.08 1.19-.09 1.2-.07 1.19-.07 1.2-.07 1.19-.06 1.18-.05 1.16-.04 1.16-.04 1.14-.03 1.13-.02 1.11-.02 1.08-.01H4l1.04.01 1.01.01.99.02.97.03.93.04.91.05.87.05.85.06.81.07.79.08.75.08.73.09.69.1.66.11.64.11.61.12.58.13.55.13.53.14.5.14.48.15.46.15.44.16.41.16.4.17.37.18.36.18.34.19.31.19.3.2.29.2.26.21.25.21.24.22.22.22.2.23-.96 7.04-.28.46-.29.47-.3.47-.32.47-.34.47-.35.47-.36.48-.38.46-.4.47-.41.46-.43.46-.45.46-.46.45-.48.44-.5.43-.52.44-.54.43-.56.42-.58.41-.6.41-.63.39-.64.38-.68.36-.7.35-.72.32-.75.31-.77.29-.8.26-.82.24-.85.21-.87.18-.89.16-.92.13-.94.1-.96.08-.98.04-1 .01-1.01-.02-1.04-.06-1.05-.08-1.06-.11-1.08-.15-1.08-.18-1.1-.2-1.1-.24-1.11-.27-1.11-.29-1.11-.32-1.11-.35-1.11-.37-1.1-.39-1.09-.42-1.08-.44-1.07-.45-1.06-.47-1.03-.49-1.02-.5-1-.52-.97-.52-.95-.53-.91-.53-.89-.54-.85-.54-.82-.54-.74-.45-.72-.45-.7-.45-.67-.46-.63-.45-.61-.45-.58-.45-.55-.44-.51-.44-.47-.43-.44-.42-.39-.42-.36-.41-.32-.39-.27-.39"/></clipPath><filter id="a"><feTurbulence baseFrequency=".05" numOctaves="3" result="noise" type="noise"/><feDisplacementMap in="SourceGraphic" in2="noise" scale="2"/></filter></defs><rect width="100%" height="100%" x="-100" y="-100" fill="linen"/><path fill="olive" stroke="#000" stroke-linejoin="round" stroke-width="1.667" d="m75.15 1.47.24-.31-.34.88.32 1.33-.11 1.72-.33-.04-.13 4.38-.24 1.79.22-.4-.17 2.01-.45 1.75-.16 1.86-.2.01-.15 2.99.02.08-.44.61-.03 1.39-.11.7-1.19 4.53-.43.58.16 1.13-.46.44h-.08l-.66 2.93.45-.42-1.21 3.11-.2-.37-1.53 4.89.02-.47-.71 1.79-.59.72-.15 1.37-1.5 2.9.68-.7-.88 2.2-.47.66-.27.14-1.74 3.19-.07-.06-.68 1.93-1 1.19-.49.35-1.14 1.62.05.45-.77 1.09L56 60.44l-.31.19-.96.98.59.41-.66.61-1.84 1.57-1.93 2.42.45-.39-1.82 2.33.4-1.17-.84 1.95-.72.16-2.48 2.01.31.57.16-.75-2.71 2.46-.91.54.66-.05L40.98 76l-2.15 1.51-.35.11.04.53-.95.65-2.37 1.02-.45.53-2.53 1.64 1.86-1.28-3.38 2.41.04-.35-1.32.8-1.38.57-.78.24-.89.41-.88.83-1.13.46-1.84.54.54-.15-.91.65-2.4.5-.37.03-1.34.6-.38.06-2.91.9.95-.41-1.34.18-1.78.44-.29.25-3.89.52-.92.28 1.14-.14-1.27-.09-4.06.47.44-.18-2.24.14-.06.08-1.52.26-.97-.31-2.63-.08 2.12.38-3.7-.48.14-.14-1.64-.13-1.6-.22-2.08-.22.22.07-.14.21-2.47-.67-2.54-.68.89.36-1.15-.06-.88-.66-3.24-.56-.28-.2-.99-.34-.58-.04-1.84-.82-.5-.47-1.29-.45-1.09-.6-2.3-.71.97.24-2.57-1.34-2.27-.94-.83-.34-.57-.48-.3-.32-1.89-1.4 1.13.87-2.01-1.65-2.3-1.34-.96-.82.44.67-2.71-2.04-.39-.28-1.11-1.24.01.15-1.41-1.15-.55-.72-2.77-2.52 1.14.76-1.59-1.65-.51-.53-.02.46-.86-1.4-1.68-1.94-.6-.7-1.23-1.18-.58-.8-.7-.99-1.51-2.76-.38-.1-.45-.36-.97-1.84.29.72-1.33-2.2-1.02-1.5-1.44-1.96.33.05-.79-1.63-.48-.38-.14-.14-1.95-4.25.08-.18-1.52-2.12.45.41-1.03-2.04-.65-2.68-.76-1.12.78 1.48-.99-2.81-.19-1.19-1.21-2.33.14-.03-.92-2.68-.23-.83-.46-1.37.01-1.08-.92-3.52.57 2.12-1.01-3.43-.29-.99-.1-.47.2-1.1-.61-1.15-.64-3.29.49.83-.77-3.37.45.07-.49-1.31-.2-2.52-.17-2.16-.05 1.16-.11-5.42.1-.78-.09-.25.05-2.1.1.41.14-2.49-.19-2.12.27-1.33.14-.46.09-2.59-.16-.23.17-1.9.39-.54-.06-2.17.31-2.8.23.41-.07-.69.6-3.68-.24.43.78-1.62-.02-.64.99-3.26-.24.84.27-1.91.54-1.93.47-1.9.93-1.26.76-3.37-.75 1.02.84-1.92 1.02-2.12.17.26.21-1.51.34-.38 1.59-3.51-.57 1.46 1.32-3.65.56-.8.36-.74 1.26-2.25-.42.25-.32.56 1.87-2.61.07-.72.96-1.83.37-.41 1.95-2.73.11.16-.06-.4 1.17-1.96.69-.73 1.4-1.01 1.07-1.71.66-1.67.08-.1 2.86-2.94.3.13-.26.28-.15.06 3.82-4.25.46-.1-1.05.75 1.64-1.54.03.08 2.6-2.2-1.04.26 2.74-1.73.64-.45 2.2-1.53-.51-.06 1.17-.91.89-.58 1.73-.44.47-1.12.63.02 3.22-1.88-1.59.79 1.78-.81 2.42-.93.68-.56.26-.13 1.7-.78.7-.34 2.55-.75.2-.22 2.19-1.09-.21.24-.24-.05 1.64-.71 1.25-.19 1.55-.5 1.37-.12 1.82-.57 1.37-.13 1.76-.22 1.52-.43-1.42.34 1.6-.11 2.07-.47.37.1 1 .05 3.35-.36.85-.12.04.07 2.01.18-.03.13 3.49.15-.54-.15 1.28.06.44-.08 2.41.38 2.71.35-.4.05-.55-.23 2.82.77 1.12.06 1.01.62.79.19.33-.04 2.07.41.78.18 2.07.83.47.06-.04.52 1.29.16 2.3 1.07.07-.14 3.28 1.47.85.52-.46-.19 2.1 1.09 1.82.94.69.65.6.23.79.21.83.79 1.12.93 1.92 1.23-1.15-1.04 1.62 1.32 2.19 1.77.18.14 1.65 1.26-.31.24 1.64 1.35.62.12.78 1.09 2.11 1.85.04.08.11-.04 2.06 2.34 1.37 1.57-.19-.25 2.55 3.36-.89-1.28 1.48 2.16 1.02.62.73 1.27 1.5 2.29-.17-.32.35 1.31 1.29.53.37 1.59.24.56 2.14 2.82-.17-.09.96 2.62-.26-1.62 1.14 2.44.9 2.09.79 1.55.19 1.01-.38-.6.48.49 1.66 4.27-.31-.85.68 1.53.26 1.24.3.8 1.06 3.15.89 1.57-.25.44 1.07 2.82-.47-.7 1.25 3.45-.07.62.15.64L73.62-20l-.94-3.59 1.01 4.58-.16-.03.64 2.83-.22.09.71 2.8-.14 1.28.28.06.29 3.11-.22.49.19 3.66.28.83v.01l-.28-.06-.03 2.24.12 3.17.24-.31" filter="url(#a)"/><path fill="#fff" d="m-34.47-6.56.24-.29.28-.28.32-.27.37-.25.42-.24.46-.24.49-.22.54-.21.57-.21.61-.19.65-.19.67-.18.71-.17.74-.16.76-.16.82-.15.86-.15.89-.14.94-.14.98-.14 1.01-.13 1.04-.13 1.06-.12 1.1-.12 1.11-.11 1.14-.11 1.16-.1 1.16-.1 1.18-.1 1.19-.08 1.19-.09 1.2-.07 1.19-.07 1.2-.07 1.19-.06 1.18-.05 1.16-.04 1.16-.04 1.14-.03 1.13-.02 1.11-.02 1.08-.01H4l1.04.01 1.01.01.99.02.97.03.93.04.91.05.87.05.85.06.81.07.79.08.75.08.73.09.69.1.66.11.64.11.61.12.58.13.55.13.53.14.5.14.48.15.46.15.44.16.41.16.4.17.37.18.36.18.34.19.31.19.3.2.29.2.26.21.25.21.24.22.22.22.2.23-.96 7.04-.28.46-.29.47-.3.47-.32.47-.34.47-.35.47-.36.48-.38.46-.4.47-.41.46-.43.46-.45.46-.46.45-.48.44-.5.43-.52.44-.54.43-.56.42-.58.41-.6.41-.63.39-.64.38-.68.36-.7.35-.72.32-.75.31-.77.29-.8.26-.82.24-.85.21-.87.18-.89.16-.92.13-.94.1-.96.08-.98.04-1 .01-1.01-.02-1.04-.06-1.05-.08-1.06-.11-1.08-.15-1.08-.18-1.1-.2-1.1-.24-1.11-.27-1.11-.29-1.11-.32-1.11-.35-1.11-.37-1.1-.39-1.09-.42-1.08-.44-1.07-.45-1.06-.47-1.03-.49-1.02-.5-1-.52-.97-.52-.95-.53-.91-.53-.89-.54-.85-.54-.82-.54-.74-.45-.72-.45-.7-.45-.67-.46-.63-.45-.61-.45-.58-.45-.55-.44-.51-.44-.47-.43-.44-.42-.39-.42-.36-.41-.32-.39-.27-.39" filter="url(#a)" transform="translate(44.6 -24.2)"/><path fill="#fff" d="m34.27-8.33-.22-.35-.26-.32-.3-.32-.35-.29-.39-.29-.43-.27-.47-.26-.51-.25-.54-.23-.59-.23-.62-.21-.65-.21-.68-.2-.72-.19-.74-.18-.77-.17-.81-.16-.85-.17-.9-.15-.95-.16-.97-.14-1.02-.15-1.05-.14-1.07-.13-1.11-.13-1.13-.12-1.15-.12-1.16-.12-1.19-.1-1.19-.11-1.21-.09-1.21-.09-1.21-.08-1.21-.08-1.21-.07-1.21-.06-1.2-.05-1.19-.04-1.17-.04-1.16-.02-1.15-.02-1.12-.01h-1.1l-1.08.01-1.06.02-1.03.03-1.01.04-.97.05-.95.07-.92.07-.89.08-.86.09-.82.1-.8.11-.76.13-.73.13-.71.14-.67.15-.64.16-.62.17-.59.18-.56.19-.53.19-.51.21-.49.21-.47.22-.45.22-.42.24-.4.25-.38.25-.36.26-.35.27-.32.28-.3.29-.29.29-.27.31-.25.31-.24.32-.22.32.5 8.29.28.58.3.58.32.59.33.58.34.59.36.58.38.59.39.58.41.57.43.57.45.57.46.56.48.55.51.53.52.54.55.52.56.52.59.52.61.49.63.49.66.47.69.45.71.42.74.41.76.38.8.35.81.32.85.29.87.26.9.23.92.19.95.15.97.12.99.08 1.02.04h1.03l1.06-.04 1.07-.08 1.09-.12 1.11-.15 1.11-.2 1.13-.23 1.14-.28 1.14-.31 1.15-.34 1.15-.38 1.15-.41 1.15-.45 1.14-.47 1.14-.5 1.12-.53 1.12-.55 1.09-.58 1.09-.59 1.06-.61 1.03-.63 1.02-.63.98-.65.96-.65.92-.66.89-.65.85-.66.81-.65.77-.64.73-.56.71-.56.68-.55.65-.56.61-.55.59-.54.56-.54.52-.53.48-.53.45-.51.41-.5.38-.49.33-.48.29-.46.25-.45" filter="url(#a)" transform="translate(-43.33 -23.31)"/><g fill="none" stroke="#000" transform="translate(44.6 -24.2)"><path stroke-linejoin="round" stroke-width="1.667" d="m-33.86-2.77-.32-.46-.26-.44-.2-.42-.14-.41-.08-.38-.03-.37.03-.35.08-.33.13-.32.18-.31.24-.29.28-.28.32-.27.37-.25.42-.24.46-.24.49-.22.54-.21.57-.21.61-.19.65-.19.67-.18.71-.17.74-.16.76-.16.82-.15.86-.15.89-.14.94-.14.98-.14 1.01-.13 1.04-.13 1.06-.12 1.1-.12 1.11-.11 1.14-.11 1.16-.1 1.16-.1 1.18-.1 1.19-.08 1.19-.09 1.2-.07 1.19-.07 1.2-.07 1.19-.06 1.18-.05 1.16-.04 1.16-.04 1.14-.03 1.13-.02 1.11-.02 1.08-.01H4l1.04.01 1.01.01.99.02.97.03.93.04.91.05.87.05.85.06.81.07.79.08.75.08.73.09.69.1.66.11.64.11.61.12.58.13.55.13.53.14.5.14.48.15.46.15.44.16.41.16.4.17.37.18.36.18.34.19.31.19.3.2.29.2.26.21.25.21.24.22.22.22.2.23.19.23.18.24.16.24.15.24.14.25.13.25.12.26.11.25.1.27.08.26" filter="url(#a)"/><path stroke-linejoin="round" stroke-width="2.222" d="m-34.5-6.72-.26.21-.19.23-.14.25-.08.27-.03.29.03.31.08.33.13.34.18.36.22.37.27.39.32.39.36.41.39.42.44.42.47.43.51.44.55.44.58.45.61.45.63.45.67.46.7.45.72.45.74.45.82.54.85.54.89.54.91.53.95.53.97.52 1 .52 1.02.5 1.03.49 1.06.47 1.07.45 1.08.44 1.09.42 1.1.39 1.11.37 1.11.35 1.11.32 1.11.29 1.11.27 1.1.24 1.1.2 1.08.18 1.08.15 1.06.11 1.05.08 1.04.06 1.01.02 1-.01.98-.04.96-.08.94-.1.92-.13.89-.16.87-.18.85-.21.82-.24.8-.26.77-.29.75-.31.72-.32.7-.35.68-.36.64-.38.63-.39.6-.41.58-.41.56-.42.54-.43.52-.44.5-.43.48-.44.46-.45.45-.46.43-.46.41-.46.4-.47.38-.46.36-.48.35-.47.34-.47.32-.47.3-.47.29-.47.28-.46.27-.47.25-.46.25-.45.23-.45.22-.45.21-.44.2-.43.18-.43.18-.43.17-.42" filter="url(#a)"/><circle cx="-14.948" cy=".584" r="3.766" clip-path="url(#b)" filter="url(#a)"/><circle cx="-14.898" cy="-.671" r="3.874" clip-path="url(#b)" filter="url(#a)"/><circle cx="-12.833" cy="-.801" r="4.092" clip-path="url(#b)" filter="url(#a)"/><circle cx="-14.948" cy="-1.176" r="3.398" clip-path="url(#b)" filter="url(#a)"/><circle cx="-15.788" cy="1.174" r="3.484" clip-path="url(#b)" filter="url(#a)"/><circle cx="-13.293" cy="2.704" r="3.624" clip-path="url(#b)" filter="url(#a)"/><circle cx="-13.643" cy="2.429" r="4.746" clip-path="url(#b)" filter="url(#a)"/><circle cx="-15.253" cy="2.479" r="4.372" clip-path="url(#b)" filter="url(#a)"/><circle cx="-13.518" cy="-.761" r="4.008" clip-path="url(#b)" filter="url(#a)"/><circle cx="-16.018" cy="3.014" r="4.748" clip-path="url(#b)" filter="url(#a)"/></g><g fill="none" stroke="#000" transform="translate(-43.33 -23.31)"><path stroke-linejoin="round" stroke-width="2.222" d="m33.68-3.82.29-.55.24-.53.19-.51.13-.48.08-.46.03-.43-.02-.42-.07-.4-.12-.37-.16-.36-.22-.35-.26-.32-.3-.32-.35-.29-.39-.29-.43-.27-.47-.26-.51-.25-.54-.23-.59-.23-.62-.21-.65-.21-.68-.2-.72-.19-.74-.18-.77-.17-.81-.16-.85-.17-.9-.15-.95-.16-.97-.14-1.02-.15-1.05-.14-1.07-.13-1.11-.13-1.13-.12-1.15-.12-1.16-.12-1.19-.1-1.19-.11-1.21-.09-1.21-.09-1.21-.08-1.21-.08-1.21-.07-1.21-.06-1.2-.05-1.19-.04-1.17-.04-1.16-.02-1.15-.02-1.12-.01h-1.1l-1.08.01-1.06.02-1.03.03-1.01.04-.97.05-.95.07-.92.07-.89.08-.86.09-.82.1-.8.11-.76.13-.73.13-.71.14-.67.15-.64.16-.62.17-.59.18-.56.19-.53.19-.51.21-.49.21-.47.22-.45.22-.42.24-.4.25-.38.25-.36.26-.35.27-.32.28-.3.29-.29.29-.27.31-.25.31-.24.32-.22.32-.21.33-.19.34-.18.35-.17.35-.15.36-.14.37-.13.37-.12.38-.11.38-.09.39" filter="url(#a)"/><path stroke-linejoin="round" stroke-width="2.222" d="m34.26-8.75.24.23.18.26.13.28.08.31.03.33-.01.35-.07.37-.12.39-.16.41-.2.43-.25.45-.29.46-.33.48-.38.49-.41.5-.45.51-.48.53-.52.53-.56.54-.59.54-.61.55-.65.56-.68.55-.71.56-.73.56-.77.64-.81.65-.85.66-.89.65-.92.66-.96.65-.98.65-1.02.63-1.03.63-1.06.61-1.09.59-1.09.58-1.12.55-1.12.53-1.14.5-1.14.47-1.15.45-1.15.41-1.15.38-1.15.34-1.14.31-1.14.28-1.13.23-1.11.2-1.11.15-1.09.12-1.07.08-1.06.04h-1.03l-1.02-.04-.99-.08-.97-.12-.95-.15-.92-.19-.9-.23-.87-.26-.85-.29-.81-.32-.8-.35-.76-.38-.74-.41-.71-.42-.69-.45-.66-.47-.63-.49-.61-.49-.59-.52-.56-.52-.55-.52-.52-.54-.51-.53-.48-.55-.46-.56-.45-.57-.43-.57-.41-.57-.39-.58-.38-.59-.36-.58-.34-.59-.33-.58-.32-.59-.3-.58-.28-.58-.27-.57-.26-.57-.25-.57-.23-.56-.22-.56-.21-.55-.2-.54-.19-.53-.18-.53-.17-.52" filter="url(#a)"/><circle cx="-11.326" cy="-9.245" r="3.176" clip-path="url(#c)" filter="url(#a)"/><circle cx="-9.126" cy="-5.63" r="3.936" clip-path="url(#c)" filter="url(#a)"/><circle cx="-9.136" cy="-9.68" r="4.384" clip-path="url(#c)" filter="url(#a)"/><circle cx="-9.641" cy="-7.13" r="3.708" clip-path="url(#c)" filter="url(#a)"/><circle cx="-10.581" cy="-10.005" r="3.902" clip-path="url(#c)" filter="url(#a)"/><circle cx="-9.951" cy="-9.575" r="3.424" clip-path="url(#c)" filter="url(#a)"/><circle cx="-11.131" cy="-5.8" r="3.964" clip-path="url(#c)" filter="url(#a)"/><circle cx="-8.896" cy="-10.145" r="3.154" clip-path="url(#c)" filter="url(#a)"/><circle cx="-10.271" cy="-7.565" r="3.812" clip-path="url(#c)" filter="url(#a)"/><circle cx="-10.096" cy="-8.285" r="4.534" clip-path="url(#c)" filter="url(#a)"/></g><g fill="none" stroke="#F0F" stroke-linejoin="round" stroke-width="2"><path d="M-7.84-90.3 17.4-78.47l-1.22 6.62-7.33-.72-3.46-2.58-.97-.95-1.76 1.16L-1-72.76l-4.43 2.02-3.05 1.31.17.6 3.81.07 6.37-.38 7.17-.75 6.36-.96L19.19-72l-1.77-1.5L6.4-75.13l-20.96-.17-24.52 4.74-21.12 15.83" filter="url(#a)"/><path d="m-50.23-67.41 44.72-9.43 30.36 5.13 15.17 6.44 1.74 1.69-7.31-3.35-10.51-5.73-8.86-5.36-4.79-3.47-.7-1.32 1.94.46 2.43 1.55.76 1.83-2.43 1.39-5.44.76-6.13.68-3.39 1.46.85 2.32 1.23 1.71-7.04-1.04-17.32-4.13.16-9.97" filter="url(#a)"/><path d="m-30.55-83.05 10.35 1.63 3.78 5.81 12.03 3.27 11.03-.47 3.25-3.01-4.5-3.24-8.43-1.81-7.92-.14-4.13.77.9.98 5.2 1.19 7.93 1.92 9.47 2.88L18.82-70l10.16 2.62 7.82 1.62 6.14 2.67 22.84 19.57" filter="url(#a)"/><path d="m46.5-71.38-63.91 7.05-11.56 5.09 15.88 2.25 20.88-1.78 12.13-5.07-.14-6.01-9.26-4.49-12.6-1.36-10.59 2.3-5.71 5.32-1.77 6.49-2.43 4.88-7.86.66-12.1-3.86-8-4.73-3.33 1.53" filter="url(#a)"/><path d="m71.62-28.06-7.84-6.49-22.25-14.16-20.27-12.57-10.54-8.25-2.36-4.72 2.1-2.27 3.57-.65 3.09.11 1.7.05.27-.46-.71-.92-1.24-1.08-1.41-.84-1.18-.34-.18.32L16-79.25l3.61 1.82 4.35 2.38 2.58 2.69-1.42 2.8-4.95 2.72-7.8.26-40.5-17.4" filter="url(#a)"/><path d="m10.66-90.19-16.4 1.9-1.05 1.8-1.9 2.66-3.71 2.73-2.6 2.3-1.64 2.12-2.21 2.08-1.86 1.49 2.46.27 10.48-.59 17.77.16 18.52 2.31 8.72 3.25-14.15-.84-57.68-12.62" filter="url(#a)"/><path d="m-41.18-76.08 28.44-6.78 14.08 2.75 9.91 7.36 5.27 7.87 1.76 5.41-.82 1.83-2.66-1.19-3.21-2.86-2.42-3.5-.86-3.76.85-3.87 2.71-3.48 4.56-2.27 5.55-.49 4.42 1.22 1.01 2.65-3.43 4.29-11.63 4.67-52.89-10.3" filter="url(#a)"/><path d="m-50.27-67.82 65.91 1.83 22.65 2.05 1.7.56L33-65.77l-6.78-4.21-2.46-3.71 1.22-1.66 1.92.37.21 1.14-1.71.48-1.63-.69 1.14-.96 5.23.52 7.88 3.22 6.43 5.26-1.89 4.27-22.39-1.06-67.32-8.15" filter="url(#a)"/><path d="m22.08-86.59-29.05 5.93-1.23 8.78 3.76 6.1 3.92 3.17 5.47.68 6.3-1.73 5.31-3.47 3.6-3.78 2.1-2.73.39-1.12-2.22.17-5.19.99-6.58 1.69-4.43 2.34 1.12 2.15 6.92-.01 8.69-3.64 4.78-5.61-4.19-4.16-29.57-9.69" filter="url(#a)"/><path d="m-7.84-90.3 40.42 34.39-11.72 7.07-24.54-4.86-16.11-8.51-4.45-8.16 3.09-5.91 6.1-3.01 6.33-.34 5.38 1.6 4.28 2.64 3.52 3 2.9 2.94 2.05 2.66 1.86 2.46 5.18 2.49 12.21 1.59 10.85-4.65L19.58-88" filter="url(#a)"/><path d="m-35.06-80.05 59.07 19.92 9.37-.65-2.75-2.13-5.45.14-9.12.31-12.69-.95-13.32-1.7-9.66-1.44-2.17-.79 6.32-.27 10.73-.07 6.93-.93-1.26-3.66 3.43-5.44 39.4 3.53" filter="url(#a)"/><path d="M63.4-48.39 21.31-72.17l-28.82-4.36-14.23 1.19-3.2 1.67 3 .74 5.87-.51 7.17-1.41 7.64-1.54 7.13-.85 5.61.23 3.53 1.17 1.66 1.59.72 1.42.94.91 2.01.53 3.19.62 3.48 1.17 1.82 1.58-2.28 1.06-7.64-.77-10.63-2.95-5.69-2.48 12.03 6.25 53.93 30.07" filter="url(#a)"/><path d="m39.28-77.63-39.8-1.58-6.45 1.02 4.06 1.42 4.24-.01-.72-.9-5.59-.88-7.65-.46-6.91.01-4.53.46-1.47.9 1.95 1.32 5.46 1.6 8.49 1.69L.4-71.57l9.25.86 5.94-.13 1.24-1.14-2.61-1.37-3.13.01.16 3.01 3.47 5.94-.11 5.13-7.84-3.66 27.85-17.87" filter="url(#a)"/><path d="m60.47-53.74-26.9-13.15-27.3-4.77-11.35.1 2.13 1.83L6.07-68l10 .72 7.04-.3 2.21-.76-2.81-.69-6.66-.3-8.16.23-6.64.73-2.48.96 2.56.62 6.23-.23 7.12-1.15 6.01-1.42 5.33-.54 6.85 1.2 9.03 2.83 8.38 3.9 6.23 7.59 14.84 25.85" filter="url(#a)"/><path d="m-15.86-89.06 13.34-.38 3.21 1.08-2.02 2.35-.01 3.09 2.92 2.69 2.83 1.57.27.67-2.3.46-3.19.8-2.44 1.12-1.16 1.07-.27.66.08.25.5.24 1.5.8 2.97 1.65 4.37 2.18 5.36 1.73 6.14.19 6.95-1.61 7.5-1.91 7.78.74 9.05 4.81 3.3-2.34" filter="url(#a)"/><path d="m-.16-91.03 21.69 11.67 16.32 11.53 1.75 4.05-7.06.14-7.18.02-3.1 1.05-.09 1.3.08.5-.88-.5-.77-.81.81-.27 2.36.48 2.36.63.83-.06-.6-.87-.62-.89-.38.01-2.98.68-9.92-.58L-3-67.67l-5.04-10.21 30.12-8.71" filter="url(#a)"/><path d="m-43.92-74.35 48.75 14.1 8.46-3.72 5.58-4.33.4-1.88-6.27-.48-8.24-.36-5.04-.93-1.18-1.72-.35-2.47-1.65-2.78-.66-1.79 5.63 1.36 14.2 6.01 13.88 5.72L8.9-90.36" filter="url(#a)"/><path d="M31.51-82.61 23.6-65.77 4.53-67.55l-2.96-5.06 5.34-2.81 4.45-.3.1.88-3.08 1.07-3.07.97-.09 1 4.22 1.13 7.7 1.08 8.86.7 7.47.02 4.36-.67.88-1.09-1.99-1.24-3.85-1.36-4.86-1.75-5.59-2.56-6.66-3.48-8.07-3.79-8.46-2.91-6.93-1.11-12.15.98" filter="url(#a)"/><path d="m-50.27-67.82 39.8-12.14 9.09.53 2.45 4.85 1.18 3.24-.54.67-3.25-.26-5.65-.18-5.34-.71-1.2-2.31 4.79-3.83 8.41-3.78 6.99-2.02 2.19-.04-3.76.34-27.13-3.08" filter="url(#a)"/><path d="m-19.85-87.85-15.53 13.19 8.27 2.35 12.2 3.68 8.1 3.74 5.01 1.67 4.96-.83 5.78-2.83 5.59-3.77 4.03-3.34 1.29-1.81-2.51-.13-7.12.78-11.83.66-15.5-.16-16.26.07-19.84 9.8" filter="url(#a)"/><path d="m-50.23-67.41 52.6-6.54 6.57-1.79-8.5-1.34-4.24-.45 4.3 1.41 8.35 2.81L14.87-71l.22-.08-4.55-2.79-5.29-4.03-2.31-3.19 1.45-1.02 2.09 1.26-3.2 2.81-14.27 3.64-23.65 3.73-9.28-3.68" filter="url(#a)"/><path d="m11.21-89.96 6.54 7.53 1.77 7.06-5.16 3.93-3.48 2.36.2 1.13 1.6.54.23.5-2.58.14-5.12-1.05-5.91-2.3-4.44-2.35-1.19-.83 2.73 1.01 7.72.97 17.14-1.85 20.68-2.41" filter="url(#a)"/><path d="m-17.41-88.56 25.7 13.53 6.75 5.33 9.82 2.69 6.99.1 1.43-2.31-2.82-3.38-5.2-2.97-6.33-1.69-6.25-.41-4.68.32-1.86.29 1.33-.25 3.8-.89 4.78-1.23 4.08-1.2 2.07-.91-.51-.34-2.78.96L14-77.71 5.44-72.9l-11.37.61 19.41-17.13" filter="url(#a)"/><path d="M6.49-90.74 4.97-80.69l-22.2 6.08-14.22 3.31-1.67.64 7.5-1.06 11.36-1.23L-3-73.47l9.59-.12 7.77-.56 5.86-1.41 3.62-1.93 1.42-1.56-.17-.44-1.9.69-7.47.3-20.11-2.71-26.16-1.84" filter="url(#a)"/><path d="m-38.85-78.12 44.41 2.6 2.03-5.67-4.91-3.84-3.53-1.13-1.4.35-.13.77.29.81.27.96.27 1.26.49 1.62 1.04 1.91 1.98 2.21 3.01 2.47 3.24 2.5 1.74 1.84-1.17.19-3.36-2.08-2.46-3.97.97-4.27 2.77-2.84-1.56-1.38-24.99-4.04" filter="url(#a)"/><path d="m11.61-90.01 3.01 4.99-4.78 6.58L5.4-75.1l-2.05.47-.41-.7 1.08-.84 2.11-.56 2.1-.09 1.63.56 1.88 1.39 3.34 2.29 5.14 3.03 5.84 3.35 4.62 3.14 1.93 2.43-1.19 1.39-4.01.19-6.24-1.17-6.61-2.57-2.28-3.61 7.34-4.32 12.61-5.53 1.79-4.77" filter="url(#a)"/><path d="M68.29-38.08 56.48-51.26l-6.36-6.81-.38-.29-3.28.26-10.19-1.43-14.79-2.49L7.9-64.28.7-65.44l.67.14 5.89 1.04 6.26 1.24 2.3.64-3.68-.48-9.24-1.56-12.8-1.94-13.63-1.34-11.09-.39-4.62-.78 5.18-4.12 13.34-8.97 2.06-6.41" filter="url(#a)"/><path d="M14.6-89.36 9.02-76.84l12.72 7.09.46-1.12-9.03-3.06-9.55-.98-3.14 1.67 5.25 3.09 10.33 2.77 9.26.95 3.08-1.51-4.55-3.33-10.04-3.53L2.55-77l-7.28-.46-2.83.19-31.29-.85m113.51 64.8 3.28.53 1.59 1.06.91 1.45.13 1.64-.4 1.6-.54 1.42-.3 1.25.2 1.17.77 1.21 1.22 1.27L83 .58l1.57 1.27 1.7 1.28 1.97 1.37 2.19 1.59 1.8 2.06 1.05 3.61M-28.23-109.86l1.31 1.51 1.22.59 1.13 1 1.23 1.34 1.43 1.47 1.62 1.49 1.75 1.48 1.8 1.43 1.77 1.31 1.65 1.12 1.49.9 1.3.67 1.13.51 1.06.43 1.07.45 1.17.54 1.31.65 1.44.66 1.49.47 1.22.19.48.62" filter="url(#a)"/><path d="m18.47-99.7-1.1.5-1.29.45-1.39.65-1.27.53-1.17.4-1.17.34-1.24.35-1.29.35-1.29.37-1.24.4-1.2.41-1.18.38-1.17.33-1.16.26-1.17.21-1.22.12-1.35-.07-1.5-.4-1.34-.21-.5 3.56m-21.77-16.44 1.13 1 1.36 1.31 1.27 1.81 1.25 1.68 1.29 1.11 1.38.58 1.5.47 1.64.77 1.74 1.21 1.72 1.34 1.57.99 1.26.32.92-.12.78.24 1.11 1.58 1.85 2.15" filter="url(#a)"/><path d="m-7.84-90.3-1.68-8.6-.65-1.25-.8.73-1.06 1.6-1.27 1.58-1.44.98-1.54.19-1.58-.47-1.51-.86-1.4-.97-1.25-.88-1.19-.7-1.23-.63-1.45-.8-1.78-1.26-2.1-1.9-2.27-2.41-2.13-2.33-1.57-1.34-1.12-.42 11.17 40.66-.94-1.49.43-1.19.81-1.05.82-1 .77-1.08.75-1.23.75-1.35.76-1.41.73-1.33.71-1.13.71-.85.76-.59.82-.48.93-.57 1.03-.74 1.13-.88 1.23-.91 1.3-.81 1.31-.72 1.16-.71.71-.79-.43-.5" filter="url(#a)"/><path d="m-44.66-96.63 1.48-.87 1.58.06 1.71.42 1.7.55 1.67.55 1.62.48 1.61.46 1.59.47 1.57.48 1.54.41 1.49.29 1.42.22 1.35.24 1.25.29 1.14.28 1.02.12.98-.08 1.06-.12 1.26.16 1.5.63 1.66.9 1.67.65 1.49.16-31.84-11.34 2.29 1.87 2.24 1.55 1.96 1.47 1.81 1.05 1.61.41 1.42-.09 1.31-.27 1.34-.1 1.44.2 1.53.42 1.47.34 1.24-.04.92-.46.71-.42.89.67 1.59 2.89 1.96 3.17-30.65-8.09 1.91.33 1.65.03 1.8.53 1.84.71 1.78.71 1.69.59 1.58.38 1.47.11 1.38-.12 1.34-.15h1.36l1.46.32 1.56.58 1.61.58 1.5.21 1.25-.31.98-.26.84 1.26.76 3.49" filter="url(#a)"/><path d="m-46.32-73.74 1.64-1.38 1.12-.89 1.15-.84 1.15-.8 1.08-.74 1.02-.65.98-.6 1-.56 1.01-.56 1.03-.57 1.04-.58 1.05-.57 1.06-.54 1.08-.51 1.09-.51 1.1-.51 1.09-.51 1.12-.5 1.15-.48 1.21-.45 1.26-.44 1.23-.43 1.08-.3.52.05.21-.24-.63-2.4-.05-2.5.72-1.33 1.19-.6 1.41-.34 1.47-.43 1.44-.62 1.35-.76 1.23-.76 1.12-.75 1.05-.86 1.03-1.16 1.07-1.58 1.18-1.99 1.29-2.18 1.4-2.11 1.47-1.87 1.48-1.77 1.45-1.96 1.48-2.19 1.6-2 1.67-1.46.83-2.08M74.17-16.21l.53-2.24.9-1.83 1.11-1.65 1.47-1.66 1.73-1.82 1.63-1.94 1.18-1.93.68-1.87.47-1.88.66-2.03.93-2.22.89-2.37.64-2.59 1-3.05 2.5-3.35" filter="url(#a)"/><path d="m-27.19-84.67-.78-.48-1.54-.89-1.79-1.05-1.53-.48-1.25.12-1.25.2-1.45-.18-1.67-.62-1.75-.81-1.69-.68-1.61-.43-1.65-.35-1.88-.57-2.23-.94-2.44-1.12-2.26-.74-1.75.19-1.31.99-1.54.73-2.3.21 32.73 7.59.78.08 1.01.31 1.34.69 1.41.51 1.26-.02 1.04-.48.87-.62.79-.5.82-.26.93-.05 1.06.08 1.19.12 1.29.17 1.36.26 1.37.43 1.31.63 1.17.76.94.75.76.58.88.45 1.52.92" filter="url(#a)"/><path d="m-28.13-83.98-1.9.7-1.23.41-1.03.32-1.06.37-1.07.46-1.06.53-1.01.59-.99.6-1 .58-1.04.55-1.12.52-1.19.54-1.19.6-1.15.69-1.06.75-.95.73-.87.59-.8.38-.84.32-1.26.83-2.65 2.61m24.47-13.67-.87-5.08-.15-3.44 1.11-.47 1.39-.18 1.16-1.1.84-1.97.6-2.38.52-2.35.61-1.98.83-1.45 1.09-1.08 1.31-1.14 1.39-1.69 1.39-2.4 1.35-2.74 1.32-2.36 1.26-1.38 1.13-.41 1-.2 1.18-1.01 1.93-2.86" filter="url(#a)"/><path d="m-33.96-81.15 1.82-.89.96-.35 1.02-.4 1.1-.47 1.11-.48 1.08-.44 1.1-.42 1.14-.39 1.15-.38 1.12-.36 1.02-.33.86-.3.73-.24.74-.19.91-.15 1.18-.14 1.37-.27m89.08 68.31.66 1.92.92 1.39.99 1.31.92 1.31.81 1.38.71 1.46.66 1.51.67 1.49.76 1.35.83 1.2.78 1.13.57 1.2.21 1.32L82.91.3l-.14 1.22.32 1.04 1.16 1.21M-62.72-73.48l1.38-.65 1.57-.5 1.78-.12 1.59-.02 1.32-.23 1.16-.5 1.08-.69.99-.8.89-.82.88-.74 1.01-.54 1.25-.25 1.54.08 1.75.31 1.8.35 1.66.19 1.39-.1 1.11-.34.95-.5 1.05-.5 1.51-.2m0 0-1.28.69-.79 1.02-.57 1.21-.6 1.24-.68 1.27-.68 1.39-.54 1.6-.39 1.75-.3 1.74-.29 1.55-.35 1.33-.4 1.16-.45 1.11-.45 1.16-.37 1.26-.2 1.38v1.53l.02 1.61-.21 1.53-.42 1.3-.01 1.64" filter="url(#a)"/><path d="m-62.19-75.71 1.91.42 2.26.26 1.73.18 1.3-.16 1.13-.53 1.09-.71 1.03-.73.98-.65.96-.57 1.03-.48 1.16-.39 1.33-.3 1.45-.23 1.54-.13h1.56l1.5.14 1.37.17 1.21.02 1.18-.24 1.41-.41" filter="url(#a)"/><path d="m-36.79-79.61-.91.47-.79.59-.95.53-1.31.23-1.7-.21-1.92-.54-1.92-.59-1.7-.37-1.41-.02-1.15.31-1.01.56-.96.73-.95.86-.94.9-.92.87-.96.78-1.11.68-1.36.61-1.6.51-1.77.44-1.7.93 26.15-7.69-.92.37-.99.22-1.24.34-1.3.52-1.21.7-1.12.74-1.13.55-1.22.22-1.37-.16-1.49-.37-1.57-.3-1.53.04-1.29.43-.94.69-.68.68-1.09.61-2.59 1.26 44.28-4.21-1.06.08-.94-.62-.79-.65-.81-.43-.96-.3-1.12-.29-1.23-.29-1.27-.28-1.27-.25-1.26-.22-1.25-.2-1.25-.12-1.17.06-1.07.33-.94.64-.85.88-.85.93-.97.71-1.23.17-1.51-.39-1.97-1.18" filter="url(#a)"/><path d="m-20.96-91.51-.45.28-1.08.45-1.19.69-1.17.9-1.09.99-1.03.96-1.01.89-1.01.82-1.02.76-1.03.71-1.04.65-1.05.58-1.07.54-1.07.52-1.02.58-.95.69-.83.84-.75.95-.79.99-.97 1-1.34 1.05-2 1.32M62.02-36.33l.98.95 1.16.82 1.07 1.06.92 1.26.81 1.3.76 1.25.7 1.18.59 1.18.45 1.23.4 1.26.57 1.19.86.99 1 .73.78.73.62 2.19m-119.17-53.4 1.16-2.13.38-2.19.15-2.74.23-2.62.43-2.11.57-1.71.57-1.65.49-1.9.41-2.24.36-2.48.39-2.53.49-2.41.61-2.26.68-2.28.72-2.48.75-2.57.78-2.32.79-2.01.82-3.28-15.27 48.63-.13-.35.42-1.43.5-1.92.51-1.57.53-1.15.5-1.12.38-1.45.28-1.88.28-2.12.46-2.01.73-1.61.97-1.16 1.03-.94.85-1.12.58-1.63.49-1.97.69-1.75.67-1.53" filter="url(#a)"/><path d="m-53.13-64.88 1.22-2.63.4-1.34.46-.89.66-.98.76-1.08.77-1.03.72-.9.71-.82.75-.8.85-.84.91-.93.96-1.08.93-1.24.86-1.34.76-1.31.65-1.17.6-1.08.79-.84m-14.5 22.07-2.62-.3-1.6.55-1.16.79-1.12.68-1.17.55-1.17.59-1.13.75-1.1.89-1.16.87-1.32.69-1.51.43-1.59.24-1.53.22-1.43.36-1.38.55-1.43.73-1.49.87-1.46 1-1.39 1.13-1.45 1.13-1.72.93-1.9.68" filter="url(#a)"/><path d="m-56.34-60.39-1.09.59-.84.8-.76.75-.72.89-.69 1.08-.7 1.18-.72 1.16-.73 1.06-.73.92-.71.8-.69.76-.7.78-.73.87-.8.98-.85 1.08-.87 1.13-.87 1.17-.83 1.14-.79 1.04-.67.74-.37.21 15.17-18.4.77-.92.8-1.3.72-1.46.73-1.41.78-1.26.77-1.12.72-1.05.64-1.06.63-1.12.66-1.15.71-1.07.71-.93.69-.81.66-.84.64-1.04.62-1.32.61-1.58 1.17-2.19" filter="url(#a)"/><path d="m-57.03-59.66.75-.92.97-1.08.91-1.22.84-1.26.81-1.21.78-1.11.71-.99.68-.93.7-.96.76-1.02.75-1.04.66-.97.56-.83.58-.79.86-1.02 1.58-1.76" filter="url(#a)"/><path d="m-40.23-84.37-.69 1-.53 1.3-.72 1.47-.86 1.45-.92 1.3-.94 1.11-.9.94-.85.84-.78.82-.74.87-.75.91-.76.95-.77.97-.74.99-.68 1.06-.64 1.18-.64 1.3-.7 1.37-.79 1.36-.9 1.28-1.01 1.15-1.02 1.15-.64 1.9-2.37 3.38.45-1.15.62-1.26.59-1.02.43-1.09.33-1.33.38-1.47.55-1.46.78-1.31.92-1.21.94-1.21.82-1.29.6-1.29.3-1.03-.06-.54-.45-.37m-8.26 42.7-.5-2.17-.4-1.3.11-1.05.33-1 .24-1.05.04-1.2-.16-1.39-.28-1.58-.32-1.69-.2-1.69.04-1.57.38-1.28.74-.88.87-.44.15-.38-2.88-1.84" filter="url(#a)"/><path d="M-63.47-49.16v-.41l-.66.04-1.06.41-1.17.71-1.13.9-1.09 1-1.04 1.03-1.07 1-1.2.87-1.44.69-1.7.53-1.83.47-1.82.55-1.72.73-1.6.96-1.52 1.25-1.43 1.53-1.41 1.73-1.63 1.74-2.31 1.52 34.56-42.6-.03-.28.23.84-.02 1.51-.38 1.69-.58 1.67-.63 1.66-.62 1.64-.6 1.57-.59 1.46-.57 1.33-.54 1.24-.52 1.2-.53 1.24-.53 1.33-.5 1.43-.47 1.51-.39 1.56-.22 1.53.08.66L-47-73.1l-1.17 1.24-1.33 1.53-.93 1.09-.72.88-.7.92-.76 1.06-.82 1.16-.86 1.22-.88 1.2-.86 1.18-.81 1.13-.76 1.1-.69 1.08-.65 1.1-.65 1.12-.66 1.15-.69 1.18-.68 1.15-.64 1.07-.55.93-.43.8-.31.79-.34 1-.46 1.04-28.68 28.9 1-2.01 1.63-1.01 1.56-1.05 1.39-1.17 1.32-1.18 1.25-1.18 1.12-1.22.95-1.29.73-1.41.51-1.55.37-1.67.35-1.73.48-1.68.71-1.52.99-1.28 1.29-1.01 1.61-.71 1.86-.47 1.9-.39 1.63-.53 1.19-.82.8-1.09.8-1.16 2.68-.97-1.32 3.65.59-2.87-.65-2.59-.69-2.12.01-1.29.63-.71.83-.63.64-.95.31-1.43-.01-1.84-.19-2.08-.2-2.07-.11-1.98-.02-1.89-.02-1.98-.07-2.18-.12-2.42-.07-2.56.04-2.62.07-2.76.09-2.99.46-2.77 1.17-.81.29 23.36-.06.48-.34 1.02-.42 1.47-.39 1.64-.34 1.64-.29 1.53-.2 1.41-.03 1.29.11 1.25.15 1.29.08 1.37-.12 1.46-.3 1.49-.36 1.28.1.1m143.5-17.66.98 2.81.1 2.69-.97 2.68-1.45 2.5-1.38 2.28-1.01 2.05-.54 1.85-.18 1.67-.01 1.6.04 1.61.02 1.7.03 1.77.09 1.78.18 1.71.4 1.55.76 1.34 1.06 1.18.59 1.29-1.48 1.8-2.59 1.74" filter="url(#a)"/><path d="m-67.59-40.1-.41.94-.76.73-1.07.76-1.26.76-1.38.81-1.48.95-1.53 1.1-1.45 1.24-1.18 1.35-.89 1.37-.79 1.3-1.05 1.17-1.43 1.1-1.38 1.19-1.32 1.33" filter="url(#a)"/><path d="m-69.83-34.81.32.37.15 1.66.42 2.04.42 1.99.16 1.73-.1 1.47-.23 1.31-.23 1.24-.17 1.22-.12 1.22-.14 1.21-.19 1.2-.24 1.19-.22 1.2-.12 1.25.08 1.3.29 1.34.5 1.34.64 1.31.7 1.27.69 1.23.62 1.2.45 1.26-.01 1.51-3.67-32.06.71-1.76.25-1.53-.24-1.51-.4-1.58-.26-1.62-.03-1.61.05-1.68-.12-1.87-.5-2.14-.92-2.36-1.2-2.44-1.22-2.31-.95-2.05-.5-1.83-.14-1.84-.23-2.21-.72-2.67-.99-2.39" filter="url(#a)"/><path d="m-69.84-32.46-.22-2.29.06-1.22.12-1.21-.02-1.34-.21-1.47-.31-1.57-.23-1.61-.04-1.59.17-1.57.3-1.55.31-1.58.26-1.54.25-1.37.3-1.04.3-.74.13-.95.27-2.39-2.37 26.29-1.22-2.57-2.18-2.82-1.46-2.19-.36-1.55.54-1.1.87-.92.7-1.08.21-1.46-.37-1.94-.82-2.35-.98-2.55-.82-2.5-.48-2.27-.43-2.11-1.04-2.21-1.88-2.06-.51.14" filter="url(#a)"/><path d="m-58.25-57.46-1.38 1.95-.88 1.37-.72 1.23-.62 1.12-.55.99-.48.9-.44.87-.46.94-.5 1.04-.54 1.15-.55 1.22-.56 1.25-.55 1.24-.53 1.19-.49 1.14-.48 1.09-.45 1.08-.44 1.09-.39 1.12-.35 1.23-.43 1.47-.73 1.58m143.1 6.51-.24-1.24-.38-1.48-.34-1.41-.36-1.4-.39-1.46-.44-1.51-.46-1.51-.47-1.45-.45-1.37-.44-1.29-.43-1.22-.41-1.17-.4-1.11-.39-1.09-.4-1.08-.42-1.13-.47-1.21-.52-1.23-.52-1.18-.48-1.1-.45-1.09-.6-1.3-1.26-2.03 10.01 26.69.12.41.65 1.19.79 1.21.73 1.12.61 1.07.57 1.06.67 1.1.78 1.18.77 1.26.65 1.36.49 1.42.39 1.43.37 1.43.36 1.47.36 1.61.4 1.91.27 2.76-10.05-25.81-.39-.78-.8-1.34-.92-1.4-.9-1.22-.86-1.07-.81-.97-.8-.91-.83-.83-.88-.73-.93-.65-.99-.6-1.07-.57-1.16-.55-1.22-.52-1.2-.52-1.14-.53-1.07-.57-1.07-.59-1.13-.59-1.13-.57-.98-.62-.69-.77-.59-.8" filter="url(#a)"/><path d="m70.55-30.88 3.53.71 1.12 1.15 1.15 1.15.85 1.22.33 1.31.01 1.35.04 1.35.33 1.31.73 1.29 1.05 1.29 1.19 1.31 1.13 1.37.98 1.45.84 1.53.85 1.6 1.02 1.62 1.25 1.58 1.43 1.48 1.47 1.32 1.41 1.22 1.26 1.3.97 1.63.36 1.86-.27.92" filter="url(#a)"/><path d="m69.91-32.89.94 1.12 1.34.84 1.14.97.81 1.16.7 1.25.73 1.22.76 1.16.73 1.12.67 1.11.59 1.18.57 1.27.64 1.36.83 1.39 1.09 1.38 1.34 1.32 1.43 1.3 1.09 1.36.42 1.54.33 1.21-7.79-65.77-2.18 4.16-1.95 3.92-1.11 3.24-.16 2.37.58 1.59.93 1.11.84 1.1.29 1.52-.58 2.16-1.42 2.72-1.91 2.87-1.84 2.63-1.3 2.17-.63 1.81-.07 1.58.24 1.25.29 1.12-.68-1.53.46 1.38.39 1.36.43 1.5.49 1.58.47 1.54.4 1.48.3 1.41.22 1.39.17 1.39.13 1.37.1 1.32.06 1.23.04 1.15.03 1.12.02 1.25.01 1.52.24 1.98-3.65-23.12-.69-3.05.98-2.24 1.43-2.05.81-1.78-.05-1.49-.6-1.29-.68-1.26-.44-1.45-.03-1.78.31-2.1.48-2.3.44-2.32.29-2.19.19-2.09.27-2.16.49-2.43.69-2.77.66-2.98.38-2.91.06-2.6.15-2.12 1.01-.7-7.81 41.79.38 2.93.6 1.22.56 1.01.49 1.19.39 1.41.26 1.57.13 1.64.05 1.62.04 1.54.08 1.46.14 1.39.17 1.33.16 1.28.15 1.2.11 1.15.1 1.13.1 1.21.08 1.33-.03 1.34-.25.82-.01-.03-.19-1.96.1-1.53.08-1.27.04-1.14-.01-1.16-.1-1.22-.18-1.28-.26-1.3-.31-1.33-.32-1.37-.28-1.45-.22-1.54-.17-1.59-.17-1.58-.24-1.46-.33-1.32-.46-1.2-.59-1.17-.74-1.12-.58-.87 1.13-.77" filter="url(#a)"/><path d="m65.97-43.93.19.49.34.45.53.84.6 1.08.57 1.15.55 1.15.59 1.19.67 1.26.76 1.34.77 1.39.71 1.4.63 1.34.6 1.29.63 1.3.65 1.41.58 1.13" filter="url(#a)"/><path d="m54.52-68.5.38.78.71 1.2.65 1.19.69 1.18.71 1.2.66 1.25.57 1.26.49 1.23.5 1.16.54 1.11.62 1.09.65 1.14.63 1.2.55 1.25.45 1.25.42 1.17.57 1.09.83 1.14.91 1.45-.08 2.23 8.71 19.69.17 1.25-.29-.81-.42-1.26-.49-1.33-.55-1.32-.57-1.31-.6-1.34-.61-1.37-.61-1.41-.62-1.43-.58-1.4-.55-1.34-.52-1.26-.48-1.22-.44-1.19-.39-1.13-.32-1.03-.29-.91-.45-.87-.79-1.06-1-1.59" filter="url(#a)"/><path d="m63.14-50.01 4.19-.18 1.78 1.09.82 1.22.52 1.03.65.86 1.02.72 1.48.59 1.85.48 2.01.47 1.85.66 1.45 1.02.94 1.45.56 1.75.48 1.8.78 1.56 1.47 1.15 2.41.89 3.51 1.67-28.3-19.14 2.58-1.37 2.63-.9 1.32.35.74 1.09.55 1.35.48 1.33.54 1.13.71.92.94.78 1.19.74 1.43.69 1.69.62 1.95.54 2.28.54 2.64.75 2.64 1.25.93 2.25M62.61-50.92l-1.34-2.07-.77-1.37-.45-1.27-.13-1.41.08-1.6.1-1.68-.1-1.65-.34-1.56-.5-1.48-.52-1.46-.46-1.52-.41-1.6-.41-1.72-.53-1.84-.89-1.97-1.82-2.02" filter="url(#a)"/><path d="m62.61-50.92.34.35.59.64.67.81.8.98.84 1.05.73 1.06.55 1.02.44 1.01.45 1.01.52 1.04.61 1.06.7 1.04.8 1.05.94 1.1 1.1 1.24 1.15 1.38.92 1.38-.02.99" filter="url(#a)"/><path d="m59.86-55.89-.74-.83-.28-1.11-.02-1.56.02-1.86-.22-1.74-.62-1.33-.94-.97-1.08-.84-1.02-.97-.86-1.23-.7-1.49-.57-1.64-.49-1.7-.47-1.7-.46-1.71-.46-1.72-.46-1.72-.48-1.65-.54-1.49-.58-1.41-.56-1.55-.61-1.93-1.43-2.04 13.57 34.19-.71-.86-.34-1.04-.33-1.22-.54-1.24-.74-1.17-.79-1.14-.77-1.17-.75-1.19-.77-1.21-.83-1.19-.86-1.19-.86-1.19-.83-1.2-.77-1.2-.75-1.19-.76-1.15-.78-1.1-.78-1.05-.75-1.06-.72-1.12-.75-1.21-.95-1.29-1.29-1.42-1.6-1.56 17.55 26.84.77-.51.83.32 1.23.42 2.15-.11 2.96-.65 3.03-.67 2.36-.16 1.39.59.67 1.2.42 1.47.58 1.44.91 1.19 1.27.79 1.74.3 2.42-.14 3.05-.21 2.7.42.17.73-30.88-9.98.63 1.54.49 1.39.46 1.07.53.93.61.94.68.99.72 1.07.71 1.1.65 1.11.57 1.13.48 1.16.42 1.24.36 1.3.31 1.31.25 1.22.2 1.09.19 1.02.27 1.18.33 1.42.15.58-1.7-3.81.32-.13v-.98l-.27-1.35-.45-1.38-.52-1.25-.52-1.13-.5-1.09-.52-1.12-.58-1.17-.61-1.17-.6-1.16-.5-1.14-.41-1.1-.38-1.03-.51-1-.71-1.16-.55-1.62" filter="url(#a)"/><path d="m42.88-97.59.75 1.72.65 1.96.34 2.18.23 2.27.34 2.18.5 1.95.64 1.67.76 1.37.87 1.07.99.86 1.06.74 1.05.77.94.95.76 1.25.54 1.59.33 1.92.22 2.16.21 2.17.41 1.87.84 1.18 1.38.36 1.33.38-1.86 4.05-1.61-1.5-1.45-2.46-.5-2.14-.41-2.03-.57-1.65-.66-1.4-.59-1.44-.42-1.71-.29-1.93-.29-1.94-.42-1.7-.63-1.39-.81-1.18-.88-1.13-.86-1.23-.8-1.33-.75-1.34-.73-1.31-.73-1.3-.71-1.37-.58-1.56-.36-1.84-.06-2.26.17-2.91L52-65.83l-.37-.38-.95-.99-1.02-.98-.96-.85-.94-.77-.93-.76-.92-.78-.9-.79-.88-.8-.86-.8-.88-.81-.91-.78-.94-.74-.95-.68-.95-.62-.94-.56-.92-.52-.91-.48-.9-.42-.9-.37-.94-.37-1.08-.47-1.39-.67-1.83-.83 21.99 14.9 1.35.65 1.16.62 1.09.68 1.2.56 1.56.24 1.97-.13 2.14-.25 1.91-.07 1.47.32 1.04.68.88.88.97.91 1.23.84 1.49.75 1.63.69 1.49.65 1.04.48.86-.99-24.48-7.51-1.14-1.75-.27-1.57.01-1.93-.11-1.99-.33-1.8-.45-1.63-.44-1.62-.39-1.71-.38-1.82-.46-1.85-.54-1.91-.47-2.07-.24-2.28-.12-2.26-.38-2.1-.51-2.75" filter="url(#a)"/><path d="m48.65-69.45 2.18-1.38 2.48-.6 1.5.71 1.02 1.17.96 1.08 1.06.86 1.19.69 1.27.64 1.3.67 1.28.66 1.25.59 1.29.43 1.45.21 1.85-.11 2.42-.62 2.57-1.06-28-6.96 2.19-5.4 1.07-3.96-.07-2.14-.55-1.55-.69-1.57-.71-1.67-.71-1.56-.76-1.32-.74-1.26-.6-1.62-.31-2.3-.03-2.85.07-2.8-.2-1.96-1.18.28m2.6 31.56-.95-1.18-.66-.97-.77-.94-.82-1.1-.73-1.33-.56-1.6-.36-1.88-.22-2.12-.19-2.18-.29-1.98-.48-1.6-.69-1.23-.85-1.1-.87-1.33-.77-1.86-.56-2.44-.45-2.69-.9-2.5-2.29-2.66" filter="url(#a)"/><path d="m63.4-48.39-.71-1.82-.72-1.38-.77-1.29-.74-1.21-.68-1.09-.64-1.01-.64-.97-.67-.98-.7-1.01-.76-1.04-.79-1.05-.82-1.04-.83-1.05-.86-1.05-.88-1.07-.92-1.07-.93-1.05-.92-1.01-.9-.94-.9-.89-.92-.87-.97-.87-1.01-.81-1.26-.98-1.52-1.64-1.18-2.46-.7-1.53-.78-.64-.85-.53-.81-.76-.73-.95-.71-1.01-.75-1.03-.79-1.09-.83-1.23-.84-1.41-.84-1.56-.92-1.58-1.05-1.42-1.23-1.15-1.34-.92-1.28-.8-1.01-.89-.52-1.21-.1-1.63 15.07 22.03 2 .36 1.73-.42 1.5-.36 1.34-.09 1.23.2 1.22.36 1.42.21 1.8-.25 2.26-.82 2.64-1.21 2.78-1.21 2.67-.85 2.36-.31 2 .17 1.65.52 1.35.79 1.1 1.11 1.06 1.3 1.3 1.08" filter="url(#a)"/><path d="m38.13-78.67 1.62-2.71-.08-1.98-.26-2.28-.37-1.95-.75-.98-1.16-.08-1.38.24-1.38-.04-1.2-.69-.97-1.46-.8-2.18-.7-2.7-.71-2.93-.76-2.81-.8-2.46-.79-2.08-.77-1.81-.84-1.6-1.1-1.37-1.24-.6" filter="url(#a)"/><path d="m25.3-113.73 1.49 2.09.29 3.56.12 3.84.53 3 .97 2.03 1.15 1.63 1.02 1.87.75 2.4.51 2.76.46 2.7.54 2.29.66 1.72.73 1.22.69.89.66.83.66.97.83 1.07" filter="url(#a)"/><path d="M70.89-81.18 67.96-83l-2.76.13-2.86.68-2.38.31-1.7-.38-1.17-.95-.97-1.15-1.02-1.01-1.21-.67-1.4-.27-1.59.08-1.73.35-1.83.51-1.88.62-1.83.63-1.68.55-1.49.38-1.41.32-1.55.62-1.69 1.02-1.19.44 26.07 4.53-2.47-.58-2.2-.14-1.61-.23-1.1-.73-.8-1.22-.7-1.38-.8-1.18-1-.77-1.23-.35-1.4-.09-1.47-.02-1.45-.08-1.36-.2-1.22-.28-1.15-.28-1.2-.12-1.45.34-1.8 1.28-1.66 1.5 20.25-6.18-.98-.4-1.98.93-2.06 1.11-1.81.58-1.5-.14-1.33-.44-1.37-.17-1.52.4-1.63.82-1.59.81-1.45.55-1.26.34-1.13.36-1.04.44-.89.11.56.69.58.61.65.72.75.75.82.68.83.65.83.7.83.81.83.89.84.93.82.91.81.85.81.79.82.79.82.87.78 1 .67 1.05.43.81.07.36L29.41-83.7l.71-2.62-.41-2.36-1.23-1.18-1.34-1-1.16-1.18-.98-1.32-.87-1.39-.85-1.44-.88-1.52-.91-1.61-.92-1.69-.93-1.8-.92-2.01-.89-2.37-.87-2.71-.88-2.77-.91-2.32-1.05-1.47-1.29-.8-1.63-1.05-1.79-2.46-1.11-3.53" filter="url(#a)"/><path d="m25.74-85.5.89-5.66-1.13-.5-1.46 1.01-1.28.74-1.11-.02-1.01-.72-.94-1.16-.93-1.27-.94-1.1-.99-.8-1.04-.53-1.09-.36-1.09-.33-1.1-.4-1.11-.51-1.15-.59-1.21-.65-1.23-.69-1.22-.71-1.18-.75-1.21-.84-1.31-1.05-1.41-1.43-1.68-1.75 22.27 18.98 1.58-.17 1.6.1 1.52.31 1.56.02 1.7-.57 1.91-1.26L34.08-90l2.24-2.09L38.46-94l1.89-1.36 1.61-.72 1.47-.31 1.49-.26 1.64-.46 1.77-.66 1.89-.69 2.04-.64 2.27-.75 2.41-.96 2.11-.91 1.55-1.38M18.8-88.18l1 .38.98.65.76.87.71 1.02.81 1.06.96 1.02 1.08.94 1.13.84 1.12.75 1.07.68 1.02.68.98.76.86.91.64 1.14.39 1.32.29 1.32.5.96" filter="url(#a)"/><path d="m16.4-88.55.84-.04 1.25-.01 1.26.05 1.18.03 1.13-.06 1.15-.06 1.21.02 1.31.11 1.38.16 1.44.14 1.45.09 1.43.07 1.38.09 1.33.14 1.26.22 1.17.28 1.1.34 1.06.37 1.06.37 1.06.36 1.02.35 1.03.37 1.3.6 2.14 1.05-29.94-5.04.73.25.94 1.13.82 1.81.71 1.75.72 1.26.8.76.92.48 1.02.5 1.05.77.97 1.18.78 1.59.57 1.81.46 1.84.57 1.91.63 2.69L14.6-89.36l.89.39.89.08 1.06-.19 1.26-.46 1.37-.72 1.43-1 1.48-1.18 1.5-1.17 1.5-.89 1.48-.4 1.44.13 1.4.47 1.44.47 1.53.18 1.62-.17 1.62-.31 1.51-.18 1.34.06 1.29.06 1.45-.33 1.83-.82 2.21-.81 2.1.8-33.64 5.99.92.23.9.03 1.01.03 1.15-.02 1.26-.23 1.31-.55 1.36-.78 1.39-.79 1.43-.62 1.46-.34 1.45-.02 1.44.24 1.41.38 1.38.41 1.37.34 1.37.24 1.35.15 1.31.08 1.28-.01 1.34-.14 1.41-.19h1.38l.99.25-.16-.33m-33.45.81 2.11.45 1.47-.03 1.25-.6 1.23-1.05 1.29-1.17 1.33-.92 1.28-.45 1.19-.04 1.15.09 1.19-.11 1.38-.57 1.68-1.06 2-1.47 2.26-1.68 2.34-1.78 2.06-2.03.91-2.08M11.21-89.96l-.72 1.09-1.51.42-1.44-.29-1.22-.42-1.09-.27-1.06-.1-1.08.05-1.1.21-1.11.39-1.13.58-1.17.74-1.19.81-1.19.79-1.15.72-1.07.61-.94.51-.83.45-.77.46-.85.55-1.03.65-1.24.7-1.41.79" filter="url(#a)"/><path d="m8.9-90.36 1.6.22.74.1.77.11.96.17 1.05.22 1.05.24 1.04.25 1.03.26 1.05.27 1.07.29 1.05.32 1.03.34 1.01.35 1.05.38 1.15.4 1.25.44 1.33.49 1.3.52 1.12.5.93.46 1.34.63" filter="url(#a)"/><path d="m22.12-87.11-.86-.25-1.2-.38-1.21-.33-1.12-.28-1.02-.24-.98-.25-.99-.27-1.02-.27-1.01-.25-.97-.22-.96-.2-1.06-.18-1.25-.17-1.37-.17-1.24-.11-1.09-.04m0 0-.53-.95-1.23-1.49-1.24-.98-1.19-.62-1.25-.65-1.34-.78-1.39-.76-1.4-.71-1.35-.72-1.29-.79-1.22-.84-1.19-.81-1.22-.65-1.3-.43-1.42-.22-1.52-.03-1.59.09-1.59.11-1.55-.05-1.49-.46-1.35-1.02-1.16-1.42-1.1-1.11-1.74.23" filter="url(#a)"/><path d="m-25.85-114.39.42 2.3 1.1 2.24 1.38.96 1.56.31 1.72.38 1.83.8 1.86 1.25 1.8 1.53 1.64 1.59 1.46 1.52 1.29 1.47 1.23 1.51 1.23 1.58 1.3 1.54 1.37 1.31 1.4.9 1.37.42 1.27.08 1.15.01 1.12.23 1.37.58 2.29 1.31m-3.49-.15-.5-.28-.89-.44-1.06-.34-1.25-.23-1.35-.22-1.35-.25-1.26-.26-1.16-.23-1.07-.23-1.03-.25-1.1-.33-1.22-.46-1.42-.66-1.61-.98-1.76-1.31-1.83-1.55-1.79-1.49-1.57-1.13-1.19-.62-.61-.25.12.11" filter="url(#a)"/><path d="m-.16-91.03 2.19.2 2.53.15 2.68.21 2.64.3 2.56.39 2.52.48 2.65.58 2.96.65 3.41.74 3.88.81 4.25.89 4.4.96 4.32 1.03 4.08 1.08 3.77 1.13 3.52 1.18 3.38 1.22L59-77.77l3.63 1.32 3.91 1.4 4.12 1.5 4.07 1.61 3.92 1.57 4.68.88" filter="url(#a)"/><path d="m-.16-91.03 2.45.2 2.84.16 2.82.22 2.54.3 2.29.41 2.23.51 2.32.59 2.45.68 2.57.76 2.63.84 2.65.92 2.65.99 2.64 1.05 2.64 1.11 2.62 1.16 2.56 1.22 2.47 1.27 2.36 1.35 2.3 1.42 2.3 1.51 2.4 1.62L55.15-71l2.79 1.85 2.96 1.94 3 1.99 2.86 2.02 2.55 1.98 2.17 1.95 1.91 1.94 1.99 1.96 2.5 2.03 3.25 2.14 3.67 2.39 2.96 3.33" filter="url(#a)"/><path d="m-.16-91.03 2.19.2 2.6.15 2.87.21 2.91.3 2.79.4 2.58.49 2.46.58 2.53.66 2.82.74 3.28.83 3.77.89 4.17.97 4.4 1.03 4.44 1.09 4.31 1.14 4.05 1.19 3.71 1.23 3.36 1.28 3.07 1.34 2.89 1.43 2.91 1.53 3.22 1.65 3.89 1.79 4.83 2.02 5.51 2.45 6.03 2.97" filter="url(#a)"/><path d="m-1.05-90.98 1.34.05 2.4.12 3.41.16 3.98.22 3.95.31 3.43.4 2.75.5 2.19.59 1.94.67 2.12.76 2.63.83 3.28.92 3.87.98 4.14 1.04 4.03 1.11 3.58 1.16 3 1.21 2.54 1.27 2.4 1.34 2.65 1.41 3.16 1.51 3.71 1.62 4.07 1.73 4.22 1.85 4.25 1.94 4.36 2.01 4.66 2.02 5.07 1.98 5.39 1.94 5.38 1.92 4.91 1.94 4.16 1.99 3.6 1.96 1.54 1.51" filter="url(#a)"/><path d="m-1.05-90.98 1.35.05 2.12.12 2.55.16 2.77.22 2.79.32 2.66.4 2.48.5 2.33.59 2.3.68 2.36.76 2.52.84 2.71.91 2.88.99 3.02 1.05 3.07 1.11 3.06 1.16 3 1.22 2.93 1.28 2.89 1.35 2.9 1.43 3 1.52 3.12 1.63 3.26 1.74 3.41 1.84 3.53 1.93 3.61 1.99 3.61 2.01 3.48 1.99 3.19 1.96 2.81 1.96 2.45 1.99 2.27 2.07L91.73-51l2.67 2.43 3.1 2.77 3.28 2.88" filter="url(#a)"/><path d="m-4.4-90.62 3.41-.22 2.74.04 2.42.14 2.34.21 2.38.28 2.48.35 2.56.42 2.62.49 2.64.55 2.67.64 2.69.75 2.75.84 2.81.95 2.84 1.03 2.83 1.09 2.76 1.16 2.65 1.21 2.54 1.26 2.45 1.33 2.37 1.4 2.33 1.48 2.37 1.55 2.47 1.61 2.65 1.68 2.87 1.76 3.06 1.85 3.19 1.98 3.18 2.1 3.06 2.22 2.8 2.26 2.48 2.22 2.7 2.28 4.69 2.79" filter="url(#a)"/><path d="m-5.4-90.67 3.14-.18 2.3-.02 2.25.08 2.34.15 2.36.21 2.37.3 2.39.38 2.43.48 2.52.56 2.61.64 2.73.73 2.81.81 2.85.88 2.84.96 2.82 1.02 2.81 1.08L39-81.45l2.87 1.17 2.86 1.22 2.79 1.27 2.72 1.32 2.77 1.4 2.95 1.51 3.1 1.61 2.9 1.57 1.91.89" filter="url(#a)"/><path d="m-7.84-90.3 2.72-.31 2.62-.16 2.39-.04 2.38.06 2.49.15 2.65.22 2.86.31 3.11.4 3.35.49 3.49.57 3.43.67 3.22.75 2.89.83 2.61.9 2.45.98 2.45 1.04 2.59 1.1 2.82 1.16 3.09 1.21 3.38 1.27 3.66 1.34 3.96 1.41 4.24 1.51 4.52 1.62 4.78 1.73 5 1.84 5.21 1.95 5.35 2 5.36 2.02 5.21 1.99 4.86 1.95 4.43 1.92 4.16 1.94 4.5 1.99 5.39 1.97 3.72 1.51" filter="url(#a)"/><path d="m-9.44-90.19 3.61-.36 2.58-.16 2.45-.05 2.37.04 2.28.12 2.15.2 2.04.27 1.93.35 1.83.41 1.75.48 1.67.56 1.64.65 1.6.74 1.58.84 1.57.94 1.56 1.02 1.53 1.09 1.5 1.15 1.43 1.21 1.34 1.27 1.2 1.34 1.05 1.4.92 1.48.83 1.55.81 1.62.81 1.69.83 1.77.76 1.87.6 1.98.4 2.1.25 2.2.28 2.26.42 2.29.44 2.34.03 2.51-.88 2.63" filter="url(#a)"/><path d="m-8.02-90.53.81.03 1.97-.13 2.44-.11 2.6-.03 2.73.06 2.81.13 2.77.22 2.65.31 2.52.39 2.47.48 2.51.58 2.61.66 2.7.74 2.75.82 2.73.9 2.7.97 2.71 1.04 2.81 1.1 2.98 1.15 3.19 1.21 3.34 1.27 3.41 1.33L53.56-76l3.26 1.5 3.16 1.61 3.12 1.72 3.17 1.85 3.3 1.95 3.45 2.02 3.52 2.03 3.48 1.99 3.38 1.93 3.36 1.9 3.55 1.95 3.86 2.11 3.82 2.43" filter="url(#a)"/><path d="m-8.02-90.53.88.03 2-.13 2.41-.11 2.49-.03 2.55.05 2.67.13 2.83.22 2.99.3 3.1.38 3.13.48 3.05.56L23-88l2.73.74 2.58.81 2.48.89 2.47.97 2.56 1.02 2.71 1.09 2.92 1.15 3.14 1.19 3.39 1.25 3.63 1.3 3.85 1.37 4.03 1.46 4.14 1.56 4.24 1.7 4.36 1.84 4.53 2.01 4.72 2.15 4.75 2.17 4.53 1.94 5.08 1.69" filter="url(#a)"/><path d="m-8.02-90.53.96.03 2-.13 2.32-.11 2.38-.04 2.44.05 2.55.12 2.65.21 2.75.28 2.82.37 2.91.47 3.02.54 3.13.64 3.26.71 3.37.79 3.5.88 3.63.94 3.78 1.01 3.9 1.08 3.99 1.13 4.04 1.17 4.1 1.21 4.22 1.24 4.41 1.28 4.52 1.34 4.45 1.42 4.3 1.43" filter="url(#a)"/><path d="m-9.54-90.1.46-.2 2.29-.22 2.73-.15 2.82-.06 2.81.02 2.77.11 2.71.17 2.63.26 2.56.32 2.49.38 2.48.45 2.51.52 2.58.59 2.68.68 2.78.8 2.9.9 3.01 1.01 3.05 1.09 3.02 1.12 2.94 1.14 2.92 1.13 3.12 1.19 3.63 1.36 4.27 1.63 4.47 1.68" filter="url(#a)"/><path d="m-17.41-88.56 2.83-.61 2.53-.52 2.22-.39 2.16-.27 2.27-.19 2.4-.12 2.5-.03 2.56.04 2.6.11 2.62.2 2.67.28 2.72.37 2.77.46 2.82.54 2.8.63 2.75.71 2.65.8 2.58.87 2.57.95 2.64 1.01 2.78 1.08 2.93 1.13 3.02 1.18 3.06 1.23 3.04 1.26 3.04 1.33 3.05 1.41 3.02 1.51 2.85 1.62 2.67 1.58 2.6.9" filter="url(#a)"/><path d="m-18.66-88.37 2.76-.63 2.61-.51 2.36-.38 2.24-.3 2.29-.23 2.38-.15 2.44-.08H.86l2.38.08 2.3.15 2.23.23 2.16.3 2.11.36 2.08.43 2.06.49 2.07.55 2.11.64 2.16.75 2.26.88 2.36 1.03 2.43 1.14 2.37 1.18 2.12 1.1 1.68.76" filter="url(#a)"/><path d="m-20.06-87.61 1.79-.7 2.22-.62 2.27-.51 2.24-.4 2.27-.31 2.37-.24 2.52-.15 2.6-.07H.86l2.62.09 2.59.16 2.55.23 2.52.31 2.5.38 2.52.44 2.57.52 2.66.6 2.81.68 3.01.8 3.22.9 3.42 1 3.58 1.07 3.7 1.12 3.75 1.15 3.76 1.17 3.73 1.24 3.67 1.37 3.57 1.55 3.43 1.67 4.02 1.57" filter="url(#a)"/><path d="m-19.85-87.85.31-.17 1.63-.5 2.32-.55 2.55-.5 2.54-.4 2.51-.29 2.54-.21 2.63-.13 2.77-.04 2.93.04 3.07.11 3.15.2 3.18.28 3.14.36 3.08.46 3.01.54 2.96.63 2.93.72 2.96.8 3.06.87 3.22.95 3.46 1.02 3.74 1.08 4.03 1.13 4.3 1.19 4.54 1.23 4.72 1.29 4.84 1.36 4.84 1.43 4.71 1.54 4.56 1.65L85-69.95l5.17 2.03 6.01 2.45 5.34 3" filter="url(#a)"/><path d="m-19.85-87.85.13-.17 1.27-.5 1.81-.56 2.27-.49 2.59-.4 2.75-.29 2.81-.21 2.83-.12 2.89-.04 2.99.03 3.09.12 3.19.2 3.2.29 3.16.37 3.08.46 3.05.55 3.12.63 3.32.72 3.6.8 3.9.88 4.14.96 4.24 1.02 4.18 1.08 3.97 1.14 3.67 1.19 3.36 1.25 3.22 1.31 3.35 1.37 3.84 1.46 4.59 1.57 5.41 1.69 6.04 1.85 6.31 2.01 6.26 2.15 5.82 2.18 4.86 1.95 4.95 1.7" filter="url(#a)"/><path d="m-22.04-86.76 1.52-.78 1.68-.7 1.95-.62 2.16-.51 2.29-.42 2.41-.32 2.55-.25 2.68-.17 2.8-.1 2.83-.01 2.82.06 2.77.14 2.76.21 2.78.28 2.81.35 2.81.41 2.79.47 2.79.51 2.91.59 3.2.69 3.7.82 4.57 1.07 6.51 1.53m30.12 67.3.5 2.49.31 2.54.32 2.73.43 2.75.53 2.71.54 2.68.45 2.68.28 2.69.13 2.7-.01 2.7-.12 2.69-.19 2.68-.26 2.66-.31 2.62-.36 2.58-.42 2.55-.47 2.53-.52 2.55-.52 2.58-.51 2.63-.5 2.64-.5 2.63-.53 2.56-.61 2.47-.74 2.39-.87 2.31-.99 2.26-1.1 2.22-1.14 2.16-1.12 2.09-1.11 2.01-1.12 1.92-1.2 1.8-1.17 1.71-1.05 1.8" filter="url(#a)"/><path d="m74.17-16.21.42 2.49.51 2.54 1.12 2.73 1.76 2.76 1.8 2.71 1.36 2.69.9 2.68.76 2.68.88 2.71 1.01 2.7.97 2.7.75 2.68.43 2.65.17 2.63.04 2.58-.03 2.55-.08 2.54-.24 2.55-.48 2.59-.78 2.62-1.03 2.64-1.2 2.62-1.24 2.56-1.17 2.47-1.04 2.39-.87 2.32-.67 2.26-.46 2.21-.29 2.15-.25 2.09-.44 2.01-.84 1.92-1.31 1.85-1.62 1.82-1.78 1.92-1.8 2.28M-28.13-83.98l1.42-.8 1.96-.89 2.11-.87 2.14-.81 2.2-.72 2.27-.63 2.3-.53 2.32-.44 2.34-.34 2.36-.26 2.4-.19 2.44-.09 2.43-.02 2.41.05 2.35.14 2.28.21 2.22.29 2.17.35 2.13.42 2.11.48 2.11.56 2.16.64 2.22.74 2.33.88 2.45 1.02 2.51 1.14 2.44 1.19 2.2 1.11 1.74.77" filter="url(#a)"/><path d="m-28.13-83.98 1.4-.81 1.91-.9 2.04-.87 2.08-.8 2.17-.72 2.27-.63 2.35-.52 2.4-.44 2.44-.34 2.5-.25 2.55-.17 2.6-.08 2.62-.01 2.61.08 2.55.15 2.49.23 2.44.3 2.4.38 2.43.45 2.49.52 2.61.61 2.73.7 2.84.8 2.9.9 2.91.99 2.88 1.06 2.86 1.13 2.86 1.17 2.9 1.22 2.96 1.29 2.97 1.38 2.94 1.48 2.87 1.54 2.88 1.58 3.13 1.62 3.54 1.74 3.17 2.05" filter="url(#a)"/><path d="m-28.13-83.98-2.04-.8 2.25-.89 3.12-.87 2.92-.8 2.56-.72 2.27-.63 2.12-.54 2.13-.44 2.29-.35 2.52-.26 2.79-.18 3-.11 3.14-.02 3.23.05 3.29.13 3.38.21 3.5.28 3.62.35 3.73.41 3.79.46 3.85.53 3.97.61 4.18.71 4.44.86 4.66 1.03 4.67 1.21 3.48 1.14" filter="url(#a)"/><path d="m-30.55-83.05 1.96-1.26 2.33-1.06 2.02-.92 1.65-.78 1.62-.69 1.89-.61 2.27-.55 2.54-.49 2.67-.41 2.69-.32 2.68-.25 2.69-.16 2.76-.08 2.87-.01 3.02.08 3.19.15 3.35.23 3.5.31 3.63.4 3.79.49 3.99.58 4.25.66 4.52.74 4.83.84 5.21.91 5.56.91 5.02.64" filter="url(#a)"/><path d="m-32.33-82.24 2.37-1.37 1.87-1.06 2.23-.95 2.33-.88 2.31-.81 2.3-.72 2.35-.63 2.39-.53 2.43-.44 2.44-.35 2.47-.26 2.5-.17 2.52-.1 2.54-.01 2.52.07 2.5.14 2.46.22 2.43.3 2.4.36 2.39.44 2.39.51 2.42.59 2.46.69 2.54.78 2.64.9 2.74.99 2.8 1.07 2.77 1.12 2.66 1.15 2.52 1.18 2.43 1.24 2.48 1.37 2.65 1.56 2.66 1.67 1.86 1.58" filter="url(#a)"/><path d="m-32.33-82.24 2.78-1.37 1.6-1.06 1.33-.95 1.31-.88 1.49-.81 1.82-.72 2.22-.63 2.54-.53 2.75-.44 2.88-.34 2.99-.26 3.07-.18 3.15-.09 3.19-.01 3.22.07 3.25.14 3.32.23 3.47.29 3.67.37 3.95.44 4.24.52 4.53.6 4.77.69 4.95.79 5.04.89 5.06.99 5.02 1.07 4.91 1.12 4.8 1.16 4.76 1.19 4.91 1.27 5.3 1.37 5.79 1.51 5.96 1.59 5.96 1.52 7.53 1.31" filter="url(#a)"/><path d="m-30.74-83.03 1.06-.47 1.95-.88 2.16-.94 2.12-.89 2.03-.79 2.04-.7 2.13-.62 2.24-.56 2.31-.49 2.33-.42 2.32-.34 2.29-.25 2.27-.17 2.28-.09 2.28-.01 2.31.06 2.33.14 2.33.21 2.32.3 2.28.39 2.25.48 2.23.57 2.18.64 2.11.71 2.08.8 2.65.99" filter="url(#a)"/><path d="m-33.96-81.15-1.54-1.19-.05-1.18 2.45-1.07 3.19-.96 2.91-.89 2.53-.81 2.4-.73 2.48-.63 2.63-.54 2.74-.44 2.82-.36 2.9-.26 2.97-.19 3.04-.1 3.1-.01 3.14.06 3.16.14 3.2.22 3.3.29 3.47.36 3.71.43 4.02.5 4.37.59 4.74.68 5.06.78 5.29.89 5.37.99 5.24 1.07 4.94 1.13 4.64 1.14 4.56 1.15 4.82 1.21 5.41 1.36 6.39 1.64 6.99 1.7m-18.9 55.14-4.72 3.15-1.55 3.32.55 3.1 1.07 2.78.6 2.55-.03 2.44-.38 2.48-.46 2.59-.36 2.71-.23 2.78-.12 2.8-.1 2.76-.16 2.7-.34 2.65-.6 2.62-.93 2.64-1.28 2.66-1.6 2.68-1.84 2.68-1.94 2.65-1.87 2.59-1.67 2.52-1.42 2.46-1.23 2.41-1.21 2.38-1.36 2.33-1.63 2.28-1.82 2.25-1.96 2.32-2.12 2.42-1.97 1.95m32.68-80.65 12.41 3.1.29 3.28-2.45 3.09-1.6 2.77-.17 2.5.81 2.39L84.22.5l2.02 2.52 2.79 2.67 3.56 2.79 4.06 2.82 4.15 2.76 3.9 2.66 3.37 2.56 2.65 2.52 1.77 2.55.86 2.63.21 2.7.11 2.79.61 2.87 1.52 2.85 2.36 2.17" filter="url(#a)"/><path d="m73.53-19.04 3.55 3.16 2.35 3.32.47 3.1-.06 2.79-.1 2.55-.14 2.45-.25 2.49-.33 2.6-.28 2.72-.04 2.78.32 2.8.68 2.76.93 2.7.96 2.66.77 2.63.41 2.65.09 2.66-.11 2.68-.07 2.68.16 2.64.42 2.59.59 2.52.52 2.47.22 2.41-.17 2.38-.49 2.33-.62 2.3-.55 2.26-.42 2.23-.28 2.2-.27 2.11-.72 2.13-1.91 2.91M-37.68-79.03l1.52-1.02 1.54-1.09 2.09-1.12 2.29-1.11 2.21-1.05 2.1-.98 2.05-.9 2.07-.82 2.13-.74 2.21-.66 2.29-.56 2.35-.47 2.43-.38 2.53-.3 2.63-.21 2.74-.14 2.82-.05 2.86.02 2.88.11 2.89.18 2.93.26 2.96.34 2.93.4 2.8.43 2.78.43 3.55.46" filter="url(#a)"/><path d="m-38.85-78.12 1.99-1.47 1.98-1.38 1.98-1.22 1.88-1.08 1.66-1 1.41-.94 1.28-.87 1.33-.8 1.62-.71 2.03-.64 2.48-.57 2.83-.49 3.04-.42 3.1-.33 3.05-.25 2.97-.17 2.88-.09 2.83-.01 2.82.07 2.86.16 2.91.23 2.99.32 3.08.41 3.17.5 3.27.59 3.39.67 3.53.76 3.68.84 3.84.92 3.91 1 3.85 1.07 3.74 1.11 3.6 1.11 3.18 1.01" filter="url(#a)"/><path d="m-38.34-78.06 2.9-.96 1.73-1.02 1.9-1.08 2.1-1.1 2.2-1.1 2.32-1.04 2.45-.98 2.5-.9 2.46-.83 2.33-.75 2.18-.66 2.05-.57 1.95-.48 1.89-.39 1.84-.3 1.76-.23 1.66-.14 1.53-.06 1.35.02 1.18.1.98.17.8.26.63.34.49.42.24.44-.3.31" filter="url(#a)"/><path d="m-38.34-78.06.46-.97.2-1.03.82-1.09 1.68-1.12 2.15-1.1 2.29-1.04 2.25-.98 2.19-.9 2.17-.82 2.22-.73 2.35-.65 2.51-.55 2.69-.46 2.84-.37 2.96-.29 3.03-.19 3.07-.11 3.09-.04 3.13.05 3.17.13 3.23.21 3.28.28 3.34.35 3.37.42 3.42.49 3.53.57 3.74.66 4.08.77 4.53.88 4.94 1 5.15 1.1 4.96 1.14 4.44 1.13 3.9 1.07 3.59.97 1.93.61" filter="url(#a)"/><path d="m-40.54-76.53 1.59-1.5 1.71-1.45 1.86-1.35 1.9-1.21 1.91-1.1 1.92-1.01 1.98-.95 2-.88 2.01-.81 2.06-.72 2.14-.66 2.27-.59 2.41-.52 2.51-.45 2.57-.36 2.58-.29 2.6-.2 2.6-.13 2.64-.05 2.72.03 2.89.1 3.1.17 3.02.2 1.36.07" filter="url(#a)"/><path d="m-41.18-76.08 1.89-1.57.55-1.2.16-1.11.81-1.1 1.69-1.1 2.21-1.09 2.32-1.04 2.26-.98 2.2-.91 2.22-.84 2.33-.76 2.45-.67 2.56-.58 2.66-.5 2.75-.4 2.83-.32 2.97-.23 3.13-.16 3.29-.07h3.4l3.39.08 3.35.14 3.42.21 3.61.32" filter="url(#a)"/><path d="m-41.18-76.08 2.22-1.56 1.93-1.21 1.9-1.1 1.93-1.09 2.03-1.1 2.14-1.08 2.24-1.05 2.28-.98 2.29-.91 2.28-.84 2.25-.77 2.22-.68 2.18-.59 2.14-.5 2.09-.41 2.06-.32 2.12-.25 2.2-.17 2.3-.08 2.29.01 2.02.07 1.26.03" filter="url(#a)"/><path d="m-43.92-74.35 1.56-1.89.91-1.64.94-1.49 1.51-1.36 1.95-1.23 2-1.12 1.78-1.03 1.59-.95 1.6-.89 1.81-.81 2.15-.73 2.49-.66 2.77-.59 2.92-.52 2.98-.45 3.03-.36 3.1-.29 3.2-.2 3.33-.12 3.48-.05 3.66.03 3.89.1 4.12.17 4.1.24 3.7.31 4.21.52" filter="url(#a)"/><path d="m-42.88-74.61 1.85-1.51 1.75-1.41 1.49-1.25 1.47-1.16 1.68-1.12 1.96-1.11 2.16-1.09 2.26-1.04 2.26-.98 2.23-.9 2.21-.83 2.21-.75 2.25-.66 2.31-.57 2.37-.48 2.44-.39 2.49-.3 2.55-.22 2.59-.13 2.61-.05 2.6.03 2.56.11 2.51.19 2.46.26 2.41.33 2.41.4 2.41.45 2.48.51 2.55.57 2.62.65 2.55.73 2.64.83m43.23 66.49.72 2.61.56 2.49.95 2.55 1.63 2.66 2.27 2.69 2.71 2.66L85.6-.71l3.43 2.62 3.65 2.64 3.53 2.66 2.94 2.66 2.11 2.65 1.41 2.66 1.24 2.65 1.73 2.64 2.72 2.6 3.82 2.49 4.52 2.3 4.55 2.15 3.99 2.23 2.59 2.72-.89 3.61" filter="url(#a)"/><path d="m-45.51-72.49 1.21-1.84 1.85-1.62 1.81-1.42 1.6-1.27 1.48-1.18 1.4-1.14 1.31-1.11 1.15-1.08.97-1.04.9-.99 1.07-.92 1.5-.85 2.09-.77 2.6-.68 2.91-.6 3-.5 2.99-.42 3.09-.32 3.43-.25 3.96-.16 4.52-.09h4.82l4.77.08 4.65.11 5.52.19" filter="url(#a)"/><path d="m-47.15-70.95.36-1.58.41-1.76.98-1.73 1.22-1.64 1.49-1.52 1.91-1.38 2.37-1.26 2.68-1.14 2.77-1.05 2.66-.97 2.44-.9 2.23-.81 2.11-.75 2.13-.66 2.28-.6 2.5-.52 2.71-.45 2.86-.37 2.92-.29 2.96-.2 2.99-.12 3.05-.05 3.16.03 3.31.11 3.5.18 3.65.25 3.73.36 3.85.51 3.77.71" filter="url(#a)"/><path d="m-46.1-71.7-7.75-1.17 3.74-1.51 4.69-1.51 3.63-1.41 2.64-1.3 1.98-1.21 1.53-1.15 1.29-1.12 1.24-1.09 1.38-1.04 1.62-.98 1.91-.91 2.18-.84 2.4-.76 2.58-.67 2.71-.58 2.84-.49 2.96-.4 3.12-.32 3.28-.22 3.46-.15 3.63-.06 3.76.02 3.86.1 3.9.18 3.92.26 3.94.33 4 .4 4.15.44 4.41.48 4.78.54 4.82.73" filter="url(#a)"/><path d="m-46.56-71.6-1.61-.13-.62-1.1.38-1.51.67-1.62.99-1.6 1.49-1.51 1.9-1.39 1.98-1.27 1.79-1.15 1.59-1.06 1.54-.98 1.74-.91 2.09-.82 2.48-.75 2.85-.68 3.11-.6 3.29-.54 3.39-.46 3.44-.39 3.51-.3 3.64-.21 3.86-.14 4.1-.06 4.39.02 4.88.1 5.94.2 8.6.45m-75.23 22.66-7 .65-5.69 1.66-1.19 1.99-.21 2.05-1.53 2.05-3.33 2.03-4.43 2.04-4.58 2.06-4.13 2.08-3.6 2.11-3.36 2.16-3.37 2.25-3.36 2.36-3.13 2.5-2.68 2.62-2.28 2.72-2.22 2.8-2.67 2.82-3.51 2.77-4.37 2.67-4.78 2.49-4.33 2.35-3.04 2.4-2.36 3.44m81.3-55.13-.84.79-1.47 2.03-1.36 2.34-.89 2.36-.35 2.31-.05 2.25-.01 2.2-.11 2.18-.23 2.19-.31 2.23-.36 2.26-.4 2.3-.37 2.33-.27 2.38-.1 2.43.15 2.5.41 2.57.61 2.62.75 2.66.78 2.67.73 2.69.68 2.68.66 2.69.76 2.69.94 2.71 1.14 2.76 1.28 2.83 1.23 2.92 1.03 3.02.77 3.1.63 3.11.82 3.06 1.53 2.98 2.99 2.68" filter="url(#a)"/><path d="m-49.97-67.69-2.41 2.44-1.86 2.24-1.76 2.15-1.71 2.08-1.64 2.05-1.54 2.06-1.43 2.09-1.34 2.11-1.3 2.15-1.29 2.21-1.35 2.32-1.45 2.42-1.54 2.55-1.58 2.65-1.55 2.72-1.43 2.76-1.28 2.76-1.09 2.73-.93 2.67-.78 2.64-.67 2.6-.59 2.61-.54 2.64-.54 2.66-.59 2.67-.6 2.65-.54 2.6-.43 2.55-.36 2.67-.42 3.16-.59 4.12m34.83-78.86-5.48 2.9-4.38 2.64-4.94 2.4-5.63 2.3-4.9 2.22-2.99 2.17-.98 2.13.18 2.15.06 2.19-1.12 2.25-2.8 2.27-4.26 2.29-4.9 2.31-4.48 2.37-3.23 2.46-1.83 2.55-1.03 2.62-1.35 2.65-2.65 2.66-4.16 2.67-4.97 2.67-4.71 2.65-4.08 2.57-4.15 2.5-5.17 2.67" filter="url(#a)"/><path d="M-53.21-64.78-56.46-62l-1.86 2.35-1.87 2.27-2.54 2.23-3.39 2.18-4 2.15-4.17 2.18-3.82 2.22-3.14 2.27-2.38 2.31-1.79 2.34-1.47 2.37-1.49 2.44-1.81 2.5-2.29 2.58-2.81 2.63-3.09 2.66-3.01 2.67-2.52 2.69-1.81 2.68-1.14 2.7-.84 2.7-1.09 2.73-1.84 2.77-2.86 2.84-3.74 2.93-4.12 3-3.83 3.05-3.07 3.04-2.45 2.98-2.63 2.83-3.58 2.59-3.85 2.22-.24 1.72" filter="url(#a)"/><path d="M-53.21-64.78-55.59-62l-2.1 2.35-2.29 2.27-2.48 2.23-2.69 2.18-2.87 2.15-2.98 2.18-3.01 2.22-3.02 2.27-3 2.31-2.99 2.34-2.95 2.37-2.89 2.44-2.83 2.5-2.76 2.58-2.68 2.63-2.54 2.66-2.32 2.67-2.06 2.69-1.78 2.68-1.58 2.7-1.51 2.7-1.47 2.73-1.37 2.77-1.09 2.84-.73 2.93-.55 3-.91 3.05-1.89 3.04-3.08 2.98-3.68 2.83-2.94 2.59-1.28 2.22-1.81 1.72" filter="url(#a)"/><path d="m-53.87-63.11-6.4 2.46-4.68 2.07-2.94 1.99-2.45 2.05-2.64 2.09-2.62 2.12-2.11 2.15-1.38 2.21-.79 2.32-.52 2.44-.48 2.57-.61 2.66-.79 2.74-.96 2.77-1.14 2.75-1.33 2.73-1.52 2.68-1.69 2.64-1.84 2.62-1.97 2.62-2.06 2.63-2.14 2.66-2.19 2.66-2.25 2.65-2.31 2.66-2.42 2.67-2.45 2.73-2.18 2.82-1.52 2.88-.75 2.84-.49 2.9-.35 3.59" filter="url(#a)"/><path d="m-56.34-60.39-.75 2.02.37 1.86-.14 2.04-.92 2.12-1.25 2.13-1.15 2.15-.91 2.23-.71 2.34-.62 2.47-.66 2.59-.76 2.68-.87 2.75-.93 2.77-.89 2.76-.73 2.73-.44 2.69-.07 2.66.3 2.64.64 2.64.84 2.65.9 2.66.8 2.68.61 2.68.39 2.7.23 2.72.17 2.76.21 2.8.34 2.84.51 2.85.66 2.86.78 2.84.88 2.8.94 2.72 1.02 2.66 1.13 2.61 1.32 2.67 1.85 2.59" filter="url(#a)"/><path d="m-58.2-57.7 1.92 1.17.94 2.03-.8 2.18-1.38 2.14-1.37 2.14-1.16 2.21-.84 2.32-.35 2.47.23 2.59.77 2.7 1.13 2.76 1.27 2.78 1.24 2.76 1.15 2.73 1.04 2.68.9 2.65.73 2.63.47 2.64.18 2.64-.08 2.66-.24 2.67-.23 2.68-.07 2.69.2 2.71.5 2.76.79 2.79 1.06 2.84 1.32 2.86 1.63 2.86 1.93 2.85 2.13 2.8 2.15 2.72 1.9 2.61 1.44 2.59 1.55 3" filter="url(#a)"/><path d="m-58.14-57.3.69 2.42-.78 2.22-1.5 2.06-1.33 2.1-.79 2.21-.22 2.31.19 2.33.36 2.34.3 2.37.04 2.44-.28 2.51-.58 2.59-.75 2.64-.76 2.67-.66 2.69-.48 2.68-.29 2.69-.09 2.7.08 2.71.25 2.74.47 2.8.72 2.85.96 2.92 1.13 2.97 1.2 3 1.16 2.96 1.03 2.88.91 2.72.87 2.52.91 2.33 1.01 2.22 1.05 2.32 1 2.65 1.09 2.67m-8.97-84.66-1.36 2.25-1.11 1.99-1.05 2.01-1.14 2.21-1.22 2.34-1.27 2.35-1.25 2.34-1.2 2.36-1.11 2.43-1.02 2.52-.92 2.6-.83 2.65-.75 2.67-.68 2.69-.64 2.68-.59 2.69-.57 2.7-.54 2.72-.51 2.74-.44 2.8-.35 2.85-.24 2.92-.11 2.97-.01 2.98.06 2.95.06 2.85.02 2.71-.05 2.53-.06 2.37v2.29l.12 2.35.25 2.55.35 2.7.43 2.61" filter="url(#a)"/><path d="m-61.53-52.49-2.9 2.15-2.96 1.79-2.72 2.17-2.26 2.38-1.79 2.36-1.73 2.29-2.04 2.29-2.5 2.37-2.96 2.48-3.41 2.58-3.89 2.64-4.27 2.65-4.3 2.66-3.89 2.65-3.19 2.65-2.58 2.65-2.44 2.64-2.87 2.64-3.51 2.68-3.75 2.75-3.11 2.87-1.54 3.08.4 3.23 1.65 2.36m62.49-60.29 1.86 1.92.03 1.89.65 2.04.7 2.25.36 2.44.15 2.59.1 2.7v2.76l-.2 2.8-.34 2.77-.28 2.71-.03 2.62.31 2.55.58 2.54.81 2.55 1.09 2.61 1.58 2.66 2.3 2.67 2.97 2.66 3.26 2.55L-42.27.7l4.82 1.4" filter="url(#a)"/><path d="m-63.47-49.16-5.71.59-3.95 2.16-.54 2.52-.19 2.43-1.63 2.3-3.41 2.29-4.53 2.39-4.61 2.51-3.75 2.6-2.45 2.65-1.29 2.68-.74 2.67-.86 2.67-1.46 2.67-2.08 2.67-2.41 2.68-2.24 2.71-1.66 2.75-.95 2.83-.5 2.91-.54 2.99-1.05 3.04-1.81 3.04-2.5 2.95-3.05 2.81-3.68 2.56-4.76 2.2-7.31 1.71" filter="url(#a)"/><path d="m-62.73-49.97-3.15 3.15-1.84 2.97-2.12 2.52-2.09 2.26-1.77 2.24-1.56 2.35-1.65 2.51-1.93 2.62-2.18 2.66-2.24 2.67-2.11 2.67-1.89 2.66-1.67 2.66-1.53 2.66-1.43 2.66-1.27 2.7-1.03 2.74-.79 2.81-.64 2.91-.73 2.99-1 3.06-1.36 3.06-1.67 2.99-1.84 2.86-1.77 2.64-1.53 2.31" filter="url(#a)"/><path d="m-62.73-49.97-2.77 3.14-2.67 2.97-2.02 2.51-2.64 2.25-4.13 2.22-5.3 2.35-5.31 2.5-4.19 2.6-2.66 2.66-1.55 2.66-1.36 2.66-2.03 2.65-3.06 2.65-3.81 2.65-3.87 2.65-3.2 2.66-2.33 2.71-1.92 2.79L-120 .2l-3.68 3.01-4.58 3.1-4.17 3.1-2.64 3.07.14 3.17" filter="url(#a)"/><path d="m-62.73-49.97-2.29 3.18-2.13 2.97-2.03 2.54-2.81 2.28-3.96 2.27-4.79 2.39-4.98 2.53-4.57 2.63-3.83 2.67-3.03 2.69-2.32 2.68-1.89 2.69-1.83 2.68-2.14 2.69-2.71 2.71-3.31 2.74-3.7 2.8-3.73 2.85-3.4 2.92-2.79 2.96-2.07 2.97-1.41 2.93-1.04 2.83-1.01 2.69-1.3 2.53-1.8 2.39-2.39 2.33-3.11 2.38-4.03 2.54-4.96 2.71-4.68 2.84-.14 3.12" filter="url(#a)"/><path d="m-63.99-47.72-3.92 1.82-1.21 2.34-1.4 2.57-2.36 2.69-2.96 2.77-3.11 2.83-3.12 2.83-3.12 2.79-2.99 2.72-2.65 2.66-2.19 2.61-1.94 2.6-2.14 2.62-2.76 2.63-3.53 2.65-4.03 2.67-3.95 2.67-3.32 2.68-2.37 2.7-1.53 2.75-1.04 2.79-1.04 2.83-1.37 2.85-1.86 2.84-2.29 2.82-2.38 2.78-1.85 2.72-.72 2.63.32 2.6.22 2.66-1.01 2.57" filter="url(#a)"/><path d="m-64.35-46.98-5.35 3.48-.99 2.49-1.59 2.17-3.04 2.19-3.91 2.38-4.1 2.56-3.89 2.66-3.6 2.7-3.36 2.7-3.17 2.7-3.08 2.69-3.05 2.7-3.03 2.7-2.89 2.73-2.53 2.77-1.87 2.81-1.01 2.87-.1 2.92.59 2.94.84 2.93.54 2.88-.27 2.8-1.32 2.68-2.29 2.57-2.78 2.49-2.62 2.45-1.87 2.47-.85 2.52-.06 2.58.16 2.62-.27 2.61-1.04 2.56-1.62 2.51-1.49 2.52-.48 2.72 1.14 3.52m64.25-96.59.61 3.48 1.32 2.5 1.98 2.16.58 2.2-.98 2.39-1.49 2.55-.9 2.66.21 2.7 1.36 2.71 2.23 2.7 2.71 2.69 2.78 2.7 2.53 2.71 2.02 2.73 1.38 2.77.7 2.82.12 2.87-.26 2.92-.39 2.94-.28 2.92.05 2.88.5 2.79 1.06 2.68 1.73 2.58 2.48 2.5 3.24 2.47 3.9 2.48 4.23 2.52 4.16 2.57 3.71 2.61 3.13 2.6 2.8 2.58 2.88 2.55 3.26 2.57 3.21 2.68 2.04 2.84-.24 2.58" filter="url(#a)"/><path d="m-64.35-46.98-12.85 3.45-1.98 2.47.38 2.13-1.19 2.15-3.83 2.33-5.9 2.52-6.55 2.63-5.78 2.68-4.15 2.67-2.34 2.66-.83 2.66.09 2.65.34 2.66-.08 2.66-1.01 2.69-2.24 2.73-3.47 2.81-4.58 2.91-5.5 2.99-6.29 3.05-6.8 3.06-6.68 2.98-5.46 2.86-3.24 2.64-.71 2.3" filter="url(#a)"/><path d="m-64.35-46.98-2.4 3.44-3.54 2.46-4.06 2.11-4.29 2.13-3.95 2.3-2.81 2.51-1.29 2.62-.08 2.66.37 2.66-.06 2.65-1.11 2.64-2.35 2.64-3.28 2.64-3.65 2.63-3.47 2.64-3.1 2.69-2.86 2.76-2.78 2.88-2.59 3.02-2.31 3.12-2.67 3.04-4.33 3.09" filter="url(#a)"/><path d="m-64.35-46.98-2.13 3.45-2.37 2.47-1.82 2.12-1.57 2.14-1.88 2.32-2.34 2.52-2.55 2.63-2.47 2.67-2.24 2.67-1.99 2.65-1.74 2.66-1.46 2.65-1.19 2.65-1 2.65-1.04 2.67-1.35 2.72-1.87 2.8-2.5 2.9-3.02 3-3.21 3.07-2.85 3.08-2.05 3.02-1.69 2.93-3.96 2.65" filter="url(#a)"/><path d="m-64.91-46.18-1.46 2.51-1.24 2.69-1.03 2.73-1.01 2.8-1.05 2.85-1.06 2.85-1.02 2.8-.92 2.72-.83 2.65-.75 2.61-.7 2.6-.66 2.62-.61 2.64-.54 2.65-.43 2.67-.29 2.67-.15 2.69-.04 2.72.01 2.75.02 2.8.01 2.82.02 2.84.08 2.83.21 2.82.37 2.77.5 2.72.57 2.68.53 2.66.41 2.67.36 2.64.41 2.31.49 1.01" filter="url(#a)"/><path d="m-65.66-43.99-1.85 3.07-2.57 2.7-3.26 2.78-3.18 2.85-2.49 2.86-1.75 2.8-1.29 2.71-1.17 2.63-1.2 2.57-1.3 2.57-1.52 2.6-1.89 2.62-2.43 2.65-3.01 2.65-3.45 2.65-3.59 2.66-3.38 2.68-2.85 2.73-2.19 2.79-1.68 2.82-1.58 2.85-1.9 2.84-2.29 2.84-2.16 2.8-1.34 2.7-1.14 2.44-4.18 2.23m58.71-69.2-.74 2.02-.97 2.71-.96 2.88-.93 2.89-.86 2.82-.76 2.71-.66 2.62-.55 2.56-.45 2.57-.37 2.6-.31 2.63-.25 2.65-.19 2.66-.14 2.66-.08 2.66-.01 2.7.05 2.74.14 2.79.21 2.82.31 2.84.38 2.83.45 2.82.5 2.77.52 2.7.57 2.62.64 2.59.78 2.65.93 2.56" filter="url(#a)"/><path d="m-67.8-38.59-1.77 1.78-2.62 2.32-1.95 2.72-1.23 2.8-1.25 2.74-1.76 2.69-2.24 2.67L-83-18.2l-2.26 2.66-2.05 2.68-1.92 2.68-1.9 2.73-1.91 2.78-1.77 2.85-1.45 2.91-.97 2.97-.6 2.97-.55 2.92-.92 2.82-1.51 2.67-1.99 2.51-2.04 2.36-1.65 2.31-1.05 2.37-.39 2.53.23 2.71.29 2.82-1.76 3.11" filter="url(#a)"/><path d="m-69.83-34.81-1.87 2.6-.81 2.92-1.65 2.87-3.01 2.71-3.74 2.6-3.38 2.56-2.23 2.57-.9 2.62.1 2.66.57 2.67.58 2.69.3 2.69-.04 2.71-.29 2.74-.36 2.77-.28 2.8-.14 2.82.01 2.84.06 2.82.03 2.79-.07 2.76-.14 2.73-.15 2.69-.08 2.65.03 2.62.15 2.59.19 2.57.15 2.53.07 2.51.06 2.45.22 2.36.6 2.24 1.11 2.15 1.53 2.1 1.55 2.09.62 2.03" filter="url(#a)"/><path d="m-70.77-31.2-12.92 2.99-.73 2.53 1.42 2.56.08 2.64-1.43 2.69-1.95 2.69-1.72 2.7-1.41 2.72-1.39 2.77-1.54 2.82-1.49 2.89-1.02 2.94-.26 2.95.52 2.93.94 2.87.86 2.76.32 2.67-.45 2.57-1.21 2.5-1.69 2.49-1.81 2.5-1.56 2.52-1.03 2.56-.42 2.59.12 2.59.47 2.59.62 2.59.61 2.58.51 2.58.38 2.55.18 2.49-.1 2.36-.35 2.19-.37 2.03.22 1.95 1.59 2.13 3.67 2.26" filter="url(#a)"/><path d="m-71.24-29.3-.85 3.23-.87 2.68-.79 2.48-.63 2.45-.47 2.53-.35 2.61-.29 2.66-.26 2.68-.24 2.68-.23 2.67-.18 2.69-.14 2.72-.06 2.76.05 2.79.17 2.83.29 2.83.39 2.81.46 2.8.5 2.75.53 2.72.58 2.67.62 2.64.69 2.61.75 2.58.81 2.55.89 2.53.97 2.55 1.02 2.54.97 2.39.8 1.97.44 1.47" filter="url(#a)"/><path d="m-71.24-29.3-.83 3.24-.91 2.69-.92 2.5-.96 2.47-1.08 2.55-1.17 2.62-1.16 2.68-.97 2.69-.7 2.69-.41 2.69-.19 2.71-.05 2.74.05 2.78.1 2.81.17 2.83.25 2.83.33 2.82.36 2.79.35 2.76.26 2.72.16 2.69.08 2.65.05 2.62.09 2.59.19 2.55.31 2.53.45 2.48.56 2.42.7 2.35.88 2.26 1.11 2.2 1.33 2.16 1.45 2.15 1.38 2.17 1.21 2.16 1.14 2.07 1.76 1.88m138.2-89.93 8.72 3.42 5.91 2.5.77 2.37.23 2.43 1.42 2.54 1.86 2.62 1.26 2.66.39 2.66-.06 2.65-.01 2.65.34 2.66.81 2.67 1.33 2.67 1.94 2.67 2.59 2.67 3.13 2.66 3.39 2.64 3.26 2.6 2.84 2.49 2.19 2.35 1.43 2.27.69 2.35.23 2.65.34 3.02-.5 2.9" filter="url(#a)"/><path d="m72.4-25.31.95 1.29.71 2.04.73 2.73.86 3.07.99 3.14 1.21 3.01 1.55 2.82 1.87 2.66 1.97 2.56 1.7 2.55 1.15 2.61.54 2.69.12 2.75.04 2.78.22 2.75.52 2.7.7 2.65.71 2.63.52 2.63.25 2.67v2.69l-.17 2.7-.23 2.68-.15 2.6.13 2.52.6 2.44 1.17 2.42 1.5 2.44 1.24 2.42.09 2.2-2.55 1.72" filter="url(#a)"/><path d="m70.55-30.88 5.01 2.73 3.51 3.22.33 3.04-.87 2.76-.84 2.61-.43 2.57-.05 2.6.19 2.64.33 2.68.47 2.68.67 2.69 1 2.69 1.37 2.69 1.72 2.7 1.94 2.7 1.94 2.7 1.73 2.68 1.32 2.66.84 2.63.41 2.59.06 2.56-.16 2.54-.31 2.55-.46 2.59-.62 2.63-.83 2.67-1 2.65-1.15 2.59-1.25 2.48-1.33 2.39-1.36 2.32-1.27 2.27-.98 2.24-.48 2.19-.14 2.13-.61 2.03-2.47 1.99m-6.23-95.08-.07 2.72-.61 3.21-.65 3.04.07 2.75.74 2.6.93 2.56.62 2.59.02 2.63-.56 2.66-.98 2.68-1.14 2.68-1.09 2.68-.92 2.69-.73 2.69-.57 2.69-.45 2.69-.37 2.68-.35 2.66-.44 2.63-.61 2.58-.84 2.53-1.04 2.51-1.17 2.51-1.22 2.56L57.89 36l-1.29 2.73-1.45 2.74-1.68 2.62-1.85 2.45-1.87 2.3-1.73 2.32-1.68 2.44-2.02 2.27" filter="url(#a)"/><path d="m70.8-31.32 1.06 2.86 2.25 2.26 2.72 2.12 2.21 2.36 1.97 2.68 2.6 2.91 3.55 3 3.98 2.94 3.5 2.82 2.44 2.71 1.44 2.62 1 2.62 1.22 2.64 1.79 2.7 2.29 2.75 2.39 2.76 2 2.75 1.28 2.71.52 2.68.03 2.67.02 2.66.51 2.67 1.38 2.69 2.3 2.68 2.96 2.65 3.07 2.6 2.57 2.54 1.57 2.48.34 2.43-.78 2.39-1.51 2.34-1.69 2.31-1.42 2.27-1.07 2.26-1.08 2.22-.98 1.92-.07 1.28M70.8-31.32l.91 2.85.62 2.26.66 2.12.74 2.34.74 2.66.64 2.91.55 3 .5 2.94.53 2.82.6 2.7.67 2.61.7 2.6.63 2.63.51 2.7.35 2.74.19 2.77.07 2.75v2.71l-.02 2.67-.03 2.64-.07 2.65-.14 2.67-.26 2.69-.42 2.7-.59 2.67-.73 2.61-.83 2.53-.87 2.46-.81 2.43-.69 2.41-.57 2.36-.53 2.2-.62 1.96-.54 1.88" filter="url(#a)"/><path d="m68.29-38.08 2.11 2.76 1.45 3.19 2.04 2.9 2.34 2.55 2.16 2.42 1.88 2.49 1.79 2.67 1.91 2.84 2.14 2.92 2.33 2.9 2.4 2.81 2.32 2.71 2.12 2.64L97.11.33l1.55 2.64 1.28 2.69 1.07 2.74.93 2.77.81 2.75.72 2.71.64 2.66.51 2.65.34 2.64.09 2.67-.19 2.7-.39 2.72-.38 2.69-.01 2.62.64 2.52 1.26 2.44 1.37 2.42.58 2.51-.66 2.58-.35 2.26" filter="url(#a)"/><path d="m67.61-39.61 2.74 2.93 2.45 2.9 1.23 2.84.62 2.88.55 2.92.78 2.85 1.07 2.76 1.21 2.68 1.13 2.63.91 2.62.66 2.64.51 2.66.48 2.68.52 2.68.55 2.68.58 2.69.57 2.7.56 2.69.54 2.7.46 2.68.27 2.67v2.63l-.32 2.59-.58 2.54-.66 2.51-.53 2.5-.2 2.57.18 2.66.47 2.77.48 2.78.15 2.65-.38 2.41-.87 2.23-1.17 2.35-2 2.84" filter="url(#a)"/><path d="m66.26-43.03 1.31 3.16 1.6 3.02 1.6 2.92 1.24 2.87.85 2.89.66 2.89.64 2.84.73 2.75.88 2.68.96 2.63.92 2.62.77 2.64.5 2.65.23 2.66.03 2.68-.04 2.67v2.69l.13 2.68.3 2.7.42 2.69.46 2.69.41 2.67.26 2.65.04 2.61-.18 2.51-.36 2.42-.5 2.37-.62 2.45-.78 2.69-1 3.01-1.22 3.3-1.18 3.68" filter="url(#a)"/><path d="m66.16-42.92 8.29 1.05 9.56 2.29 3.49 2.71-.3 2.81-.41 2.85 1.73 2.87 4.3 2.87 6.05 2.83 6.55 2.75 5.92 2.67 4.63 2.62 3.09 2.61 1.61 2.62.45 2.64-.25 2.65-.28 2.66.43 2.66 1.71 2.67 3.16 2.68 4.24 2.68 4.47 2.68 3.8 2.68 2.69 2.68 2 2.73 2.38 2.78 3.47 2.72 3.54 2.25.81 1.11" filter="url(#a)"/><path d="m65.18-45.48 4.13 1.85 9.07 1.82 6.39 2.26 1.76 2.58-.38 2.73.28 2.8 2.24 2.84 4.1 2.85 5.13 2.82 5.24 2.74 4.74 2.65 4.09 2.59 3.73 2.57 3.89 2.6 4.5 2.62 5 2.64 4.85 2.63 3.93 2.62 3.22 2.63 4.12 2.68 6.48 2.75 6.99 2.76 2.13 3.03" filter="url(#a)"/><path d="m63.4-48.39 4.4 1.52.57 2.06.77 2.22 2.29 2.32 3.83 2.43 4.63 2.56 4.36 2.63 3.34 2.6 2.21 2.54 1.59 2.49 1.77 2.51 2.61 2.62 3.6 2.77 4.19 2.89 4.06 2.92 3.22 2.86 2.02 2.7 1.08 2.52.9 2.4 1.58 2.38 2.7 2.54 3.69 2.85 4.19 3.2 2.74 2.69" filter="url(#a)"/><path d="m62.44-51.01 1.77 1.97 2.7 2.52 2.14 2.37 1.78 2.33 2.12 2.44 2.58 2.6 2.66 2.72 2.27 2.81 1.64 2.84 1.07 2.85.67 2.82.44 2.77.35 2.71.37 2.68.45 2.65.61 2.66.82 2.66 1.09 2.68 1.39 2.68 1.74 2.68 2.08 2.7 2.42 2.7 2.7 2.7 2.84 2.7 2.82 2.7 2.56 2.68 2.09 2.65 1.51 2.6.93 2.54.5 2.46.27 2.44.2 2.51.18 2.69.19 2.95.23 3.11-.03 3-.89 2.29" filter="url(#a)"/><path d="m62.44-51.01 1.19 1.95 1.55 2.49 1.79 2.35 2.23 2.29 2.46 2.4 2.29 2.56 1.82 2.69 1.34 2.78 1.02 2.83.88 2.84.94 2.82 1.12 2.75 1.41 2.68 1.76 2.63 2.06 2.61 2.24 2.61 2.23 2.64 2.11 2.65 1.94 2.65 1.8 2.65 1.62 2.66 1.37 2.69 1.09 2.71 1.08 2.7 1.33 2.64 1.24 2.58.05 2.68" filter="url(#a)"/><path d="m62.44-51.01 4.6 1.96.78 2.51 1.03 2.36 2.04 2.31 2.62 2.43 2.57 2.58 2.19 2.71 1.77 2.79 1.47 2.84 1.28 2.85 1.13 2.81.97 2.76.81 2.7.67 2.66.58 2.64.57 2.64.61 2.65.73 2.66.86 2.67 1.06 2.68 1.27 2.68 1.5 2.69 1.71 2.69 1.77 2.69 1.57 2.7 1.08 2.69.4 2.72-.2 2.71-.3 2.61.29 2.3 1.17 1.84 2.22 1.89" filter="url(#a)"/><path d="m62.44-51.01 1.76 1.97 1.62 2.51 1.2 2.37 1.42 2.32 1.99 2.44 2.44 2.59 2.49 2.71 2.14 2.81 1.61 2.84 1.16 2.85.92 2.82.91 2.76 1.03 2.71 1.17 2.67 1.28 2.65 1.34 2.65 1.39 2.66 1.42 2.67 1.43 2.67 1.32 2.69 1.06 2.69.64 2.69.17 2.7-.2 2.7-.35 2.7-.22 2.69.13 2.67.56 2.62.94 2.52 1.16 2.41 1.14 2.31.83 2.38.23 2.67-.63 3.05-1.27 2.93m-36.2-94.82 2.16 2.29 5.51 2.34 9.49 2.39 9.89 2.32 6.59 2.3 2.1 2.4-1.11 2.52-2.01 2.65-.89 2.75 1.18 2.82 3.24 2.83 4.58 2.82 5.02 2.75 4.73 2.66 4.08 2.59 3.64 2.56 3.86 2.59 4.73 2.65 5.63 2.66 5.54 2.63L142.6.31l3.3 2.35 5.4 2.43" filter="url(#a)"/><path d="m60.23-54.3 6.37 2.87 4.19 2.31 1.2 2.14.34 2.16.48 2.23.8 2.35 1.19 2.45 1.64 2.55 2.11 2.6 2.4 2.59 2.42 2.57 2.14 2.56 1.67 2.6 1.2 2.68.9 2.77.87 2.84 1.1 2.86 1.53 2.81 1.99 2.72 2.35 2.62L99.6-.44l2.25 2.58 1.67 2.67.9 2.79.15 2.87-.2 2.86.06 2.74.9 2.51 1.82 2.34L109 23.5l-.14 3.83" filter="url(#a)"/><path d="m60.23-54.3 2.51 2.86 3.1 2.3 3.15 2.13 2.21 2.14 1.23 2.22.92 2.32 1.21 2.44 1.65 2.54 1.89 2.59 1.81 2.59 1.55 2.56 1.27 2.52 1.07 2.56 1.01 2.64 1.03 2.77 1.13 2.87 1.27 2.9 1.49 2.84 1.78 2.71 2.08 2.57 2.26 2.45 2.25 2.46 2.08 2.6 1.85 2.83 1.44 3.08.43 3.13-1.05 3.12" filter="url(#a)"/><path d="m60.23-54.3 7.9 2.84 9.01 2.29 4.77 2.1.55 2.12-1.63 2.19-1.71 2.29-.42 2.41 1.31 2.52 2.78 2.59 3.61 2.58 3.92 2.53 4.12 2.46 4.75 2.46 6.13 2.56 8.07 2.74 9.68 2.95 9.79 3.05 7.69 2.99 4.23 2.75 1.98 2.4 2.78 2.2 2.89 2.44" filter="url(#a)"/><path d="m58.39-57.41 1.59 1.43 3.62 2.08 3.74 2.27 2.97 2.24 2.04 2.2 1.34 2.21 1.02 2.25 1.12 2.33 1.44 2.44 1.74 2.52 1.8 2.57 1.6 2.58 1.29 2.56 1.08 2.55 1.08 2.57 1.31 2.66 1.67 2.76 2.01 2.86 2.25 2.9 2.38 2.84 2.37 2.72 2.21 2.58 1.85 2.47 1.31 2.48.79 2.59.69 2.84 1.35 3.08 2.55 3.14 3.7 3.13" filter="url(#a)"/><path d="m55.14-61.59 1.94 1.86 2.12 1.92 1.87 2 1.49 2.12 1.31 2.22 1.33 2.29 1.48 2.33 1.71 2.37 2.04 2.42 2.42 2.49 2.77 2.58 3.01 2.68 3.07 2.75 2.93 2.8 2.63 2.81 2.24 2.8 1.88 2.77 1.61 2.72 1.5 2.69 1.49 2.67 1.53 2.66 1.53 2.66 1.43 2.67 1.22 2.68.94 2.69.67 2.69.41 2.7.21 2.7.04 2.71-.05 2.7-.05 2.72L104 20l.47 2.72.77 2.62.7 2.32.18 1.85.6 1.9M53.66-63.75 60.21-61l2.06 2.48 1.2 2.28L64.96-54l1.9 2.25 2.24 2.23 2.53 2.22 2.77 2.24 2.98 2.27 3.17 2.36L83.91-38l3.49 2.51 3.5 2.56 3.41 2.57 3.28 2.57 3.21 2.57 3.24 2.6 3.35 2.67 3.48 2.77 3.56 2.85 3.48 2.87 3.23 2.84 2.7 2.72 1.98 2.61 1.23 2.53.72 2.52.66 2.64 1.07 2.82 1.68 3.03 2.1 3.11 1.89 3.07 1.01 3.01" filter="url(#a)"/><path d="m53.66-63.75 3.19 2.73 3.77 2.46 4.32 2.26 5.39 2.22 5.81 2.23 4.75 2.21 2.81 2.2 1.24 2.2.87 2.24 1.63 2.31 2.86 2.4 3.89 2.5 4.42 2.56 4.53 2.57 4.44 2.54 4.34 2.48 4.3 2.47 4.31 2.56 4.28 2.75 4.1 2.96 3.79 3.11 3.67 3.09 4.08 2.8 5.06 2.29 6.42 1.91" filter="url(#a)"/><path d="m54.55-62.47 2.07 1.21 2.41 1.63 1.68 1.83 1.31 1.98 1.31 2.1 1.54 2.2 1.82 2.27 2.07 2.32 2.21 2.36 2.2 2.41 2.09 2.48 1.98 2.58 1.94 2.66 1.98 2.74 2.05 2.79 2.03 2.82 1.86 2.8 1.55 2.77 1.2 2.72.9 2.68.77 2.65.77 2.66.85 2.65.91 2.67.88 2.68.79 2.68.72 2.68.79 2.7 1.03 2.71 1.39 2.7 1.68 2.67 1.72 2.65 1.38 2.71.7 3.02-.65 4.04M54.55-62.47l9.98 1.18 6.49 1.59.78 1.79.02 1.93 2.88 2.04 6.8 2.16 9.5 2.23 9.65 2.28 7.29 2.29 3.66 2.33.42 2.38-1.2 2.49-.9 2.59.85 2.7 3.19 2.8 5.33 2.86 6.83 2.89 7.56 2.84 7.67 2.67 7.5 2.45 7.54 2.24 6.38 1.76" filter="url(#a)"/><path d="m52-65.83 1.99 2.26 2.61 2.48 4.05 2.39 5.67 2.29 6.49 2.25 6.26 2.23 5.35 2.22 4.22 2.2 3.17 2.21 2.28 2.25 1.59 2.32 1.05 2.4.75 2.49.72 2.56 1.01 2.57 1.65 2.54 2.58 2.49 3.74 2.49 5.01 2.56 6.15 2.75 6.68 2.96 6.1 3.11 4.28 3.09 2.31 2.81 2.22 2.29 4.58 1.92" filter="url(#a)"/><path d="m52.19-65.58 2.98 2.35 2.91 1.8 3.07 1.77 3.04 1.86 2.54 1.97 1.92 2.1 1.49 2.18 1.19 2.27.97 2.31.79 2.36.78 2.42.99 2.48 1.43 2.58 2.01 2.66 2.57 2.74 2.99 2.78 3.17 2.81 3.11 2.8 2.87 2.77 2.58 2.73 2.33 2.68 2.17 2.66 2.12 2.66 2.1 2.66 2.11 2.67 2.15 2.67 2.21 2.69 2.25 2.69 2.16 2.7 1.85 2.71 1.29 2.7.69 2.67.3 2.65.26 2.71.36 3.02.62 4.05" filter="url(#a)"/><path d="m48.76-69.49 3.02 3.34 2.48 2.48 2.3 2.03 2.38 1.89 2.34 1.9 2.1 1.98 1.79 2.08 1.55 2.17 1.41 2.25 1.39 2.3 1.51 2.35 1.76 2.41 2.13 2.48 2.52 2.56 2.84 2.65 2.95 2.73 2.82 2.78 2.51 2.82 2.11 2.8 1.75 2.77L93.93-18l1.36 2.67 1.28 2.65 1.17 2.65 1.08 2.65 1.1 2.67 1.3 2.67L102.9.63l2.01 2.68 1.97 2.71 1.44 2.74.67 2.74.38 2.65 1.83 2.3" filter="url(#a)"/><path d="m48.76-69.49 2.91 3.32 2.22 2.48 1.84 2.01 1.7 1.87 1.7 1.87 1.75 1.96 1.85 2.05 1.93 2.16 2.01 2.22 2.01 2.28 1.9 2.32 1.7 2.37 1.45 2.43 1.25 2.51 1.17 2.62 1.26 2.72 1.49 2.8 1.76 2.84 1.99 2.84 2.06 2.79 1.91 2.68 1.57 2.59 1.16 2.54.86 2.59.77 2.71.71 2.61.31 1.37" filter="url(#a)"/><path d="m48.61-69.53 1.22 1.22 2.34 2.21 2.79 2.2 2.85 2.01 2.7 1.9 2.6 1.88 2.67 1.93 2.84 2.02 2.97 2.12 2.89 2.2 2.56 2.25 2.06 2.28L80.74-43l1.61 2.36 2.05 2.45 2.81 2.57 3.49 2.67 3.71 2.78 3.55 2.91 3.52 3.09 3.86 3.07 3.04 2.09" filter="url(#a)"/><path d="M45.72-72.47 49-70.3l1.66 2.03 1.66 2.18 1.95 2.14 2.3 2.03 2.56 1.95 2.56 1.94 2.32 1.98 1.97 2.06 1.67 2.15 1.57 2.22 1.7 2.27 2.01 2.32 2.36 2.37 2.64 2.44 2.73 2.52 2.61 2.62 2.3 2.71 1.92 2.8 1.58 2.84 1.4 2.84 1.4 2.8 1.6 2.7 1.95 2.59 2.39 2.55 2.69 2.6 2.5 2.72 1.5 2.61-.44 1.38" filter="url(#a)"/><path d="m45.1-72.59 1.8 1.44 2.41 1.74 2.51 1.87 2.5 2 2.51 2.12 2.48 2.22 2.39 2.27 2.25 2.28 2.11 2.27 1.98 2.26 1.87 2.25 1.75 2.24 1.71 2.25 1.78 2.3 2.07 2.35 2.56 2.42 3.17 2.49 3.72 2.54 4.05 2.56 4.04 2.56 3.7 2.55 3.14 2.58 2.5 2.65 1.87 2.77 1.28 2.89.78 2.96.41 2.92.3 2.77.6 2.55 1.32 2.35 2.24 2.23 2.94 2.14 3.24 1.85" filter="url(#a)"/><path d="m43.46-73.94 2.26 1.71 2.44 1.88 2.74 2.02 2.75 2.12 2.46 2.09 2.1 2.02L60-60.15l1.56 1.92 1.39 1.96 1.26 2.03 1.15 2.12 1.11 2.19 1.1 2.25 1.17 2.29 1.25 2.31 1.32 2.37 1.32 2.46 1.27 2.57L75.08-33l1.19 2.79 1.33 2.92 1.6 3.1 1.8 3.08 1.69 2.1M42.12-75.44l2.17 1.53 3.14 1.73 3.2 1.88 3.7 2.02 4.46 2.09 4.76 2.08 4.46 2.03 3.93 1.98 3.57 1.98 3.44 2 3.32 2.07 2.99 2.15 2.47 2.21 1.88 2.27 1.49 2.32 1.44 2.37 1.83 2.45 2.56 2.52 3.53 2.62 4.57 2.72 5.41 2.79 5.88 2.84 5.87 2.85 5.59 2.8 5.4 2.7 5.57 2.61 5.85 2.56 5.68 2.6 4.85 2.73 4.24 2.61 6.92 1.39" filter="url(#a)"/><path d="m41.94-75.58 6.66 1.4 4.55 1.47 1.1 1.57-.06 1.71.3 1.84 1.29 1.97 2.35 2.09 3.22 2.18 3.85 2.24 4.29 2.25 4.68 2.27 5.04 2.25 5.26 2.23 5.24 2.23 4.9 2.24 4.34 2.27 3.72 2.33 3.22 2.4 2.97 2.48 3.01 2.56 3.37 2.58 4.02 2.55 4.87 2.48 5.67 2.45 6.04 2.5 5.74 2.73 5.03 3.03 4.76 3.32 5.52 3.5 7.32 3.74" filter="url(#a)"/><path d="m39.75-77.35 3.62 1.72 5.96 1.67 4.89 1.75 2.92 1.88 2.02 2 2.09 2.06 2.32 2.06 2.28 2.02 2.06 1.98 1.85 1.97 1.85 2 2.13 2.06 2.69 2.13 3.44 2.2 4.27 2.26 4.95 2.31 5.24 2.35 5.03 2.42 4.41 2.5 3.69 2.6 3.21 2.71 3.06 2.8 3.06 2.88 3 2.91 2.9 2.86 3.21 2.71 4.28 2.5 5.55 2.27 4.7 1.79" filter="url(#a)"/><path d="m39.75-77.35 2.39 1.73 2.01 1.67 2.49 1.76 3.12 1.88 3.34 2 3.03 2.06 2.41 2.07 1.78 2.02 1.38 1.99 1.23 1.98 1.28 2.01 1.43 2.07 1.63 2.14 1.9 2.21 2.17 2.26 2.44 2.32 2.6 2.37 2.61 2.44 2.44 2.52 2.11 2.61 1.77 2.71 1.5 2.8 1.43 2.85 1.55 2.87 1.79 2.81 2.1 2.7 2.39 2.58 2.61 2.51 2.58 2.62 2.04 3.03 1.26 3.87M38.13-78.67l9.03 2.41 7.45 1.8 3.49 1.61 1.51 1.62 1.9 1.69 3.1 1.81 3.89 1.93 3.95 2.05 3.49 2.15 2.88 2.21 2.37 2.25 2.18 2.24 2.49 2.24 3.26 2.22 4.31 2.19 5.32 2.19 6.19 2.19 7.1 2.23 8.4 2.3 9.96 2.42 10.74 2.66 9.06 2.94 4.62 3.13 1.83 2.88" filter="url(#a)"/><path d="m39.28-77.63 1.96.78 2.74 1.33 2.5 1.56 2.44 1.72 2.51 1.85 2.44 1.96 2.2 2.04 1.95 2.04 1.9 2.01 2.13 1.97 2.54 1.96 2.97 1.98 3.24 2.04 3.21 2.11 2.95 2.19 2.6 2.25 2.39 2.28 2.41 2.31 2.61 2.37 2.78 2.45 2.78 2.57 2.64 2.67 2.49 2.76 2.27 2.93 2.05 3.37 3.13 4.13" filter="url(#a)"/><path d="m37.36-78.86 1.62 1.03 2.2 1.66 2.26 1.68 2.31 1.65 2.35 1.68 2.36 1.75 2.36 1.85 2.38 1.97 2.37 2.08 2.32 2.16 2.2 2.23 2.07 2.25 1.97 2.26 1.94 2.26 1.98 2.25 2.01 2.25 2.02 2.27 2.02 2.3 2.03 2.35 2.1 2.41 2.27 2.49 2.53 2.54 2.8 2.56 3.02 2.56 3.05 2.54 2.91 2.56 2.56 2.62 2.11 2.77 1.61 2.94 1.14 3.04.87 3.03 1.04 2.82 1.73 2.48 2.52 2.25 2.26 2.48M36.24-79.79l1.32 1.57-.69 1.3-.76 1.39-.51 1.54-.4 1.69-.14 1.83.42 1.94.98 2.01 1.24 2.03 1 2 .49 1.97.05 1.94-.08 1.96.1 2.02.42 2.1.62 2.18.53 2.24.03 2.27-.79 2.26-1.75 2.28-2.53 2.42-3.04 2.66-3.78 2.83-5.95 2.48" filter="url(#a)"/><path d="m36.24-79.79 2.49 1.57 1.75 1.3 1.78 1.39 1.96 1.54 2.09 1.69 2.11 1.83 2.08 1.94 2.01 2.01 1.95 2.03 1.84 2 1.74 1.97 1.62 1.94 1.52 1.96 1.49 2.02 1.5 2.1 1.56 2.18 1.62 2.24 1.66 2.27 1.68 2.26 1.66 2.28 1.66 2.42 1.7 2.66 1.7 2.83 1.45 2.48" filter="url(#a)"/><path d="m34.02-81.02 1.52.77 1.79 1.14 2.16 1.38 2.46 1.53 2.63 1.6 2.67 1.63 2.55 1.68 2.29 1.74 2.01 1.83 1.79 1.94 1.67 2.05 1.63 2.14 1.6 2.2 1.58 2.24 1.56 2.25 1.61 2.25 1.74 2.23 1.91 2.23 2.09 2.22 2.17 2.25 2.11 2.29 1.95 2.38 1.78 2.49 1.66 2.61 1.61 2.68 1.48 2.63 1.18 2.41.84 2.07.9 2.02 1.85 3.1" filter="url(#a)"/><path d="m34.02-81.02 1.46.78 1.62 1.14 1.67 1.39 1.47 1.54 1.13 1.6.93 1.64.99 1.69 1.28 1.76 1.61 1.85 1.86 1.96 1.93 2.06 1.8 2.14 1.57 2.21 1.27 2.24 1 2.25.8 2.26.7 2.24.67 2.25.7 2.26.71 2.28.67 2.34.57 2.4.42 2.49.28 2.55.13 2.58v2.56l-.17 2.5-.35 2.46-.52 2.52-.61 2.73-.66 3.04-.63 3.32-.42 3.52.16 3.75" filter="url(#a)"/><path d="m29.87-83.51 4.69 1.02 1.4 1.07 1.28 1.11 1.86 1.21 2.46 1.36 3 1.47 3.45 1.55 3.68 1.61 3.64 1.66 3.4 1.72 3.11 1.81L64.79-66l2.97 2.02 3.17 2.11 3.42 2.19 3.63 2.23 3.68 2.25 3.54 2.25 3.28 2.23 2.99 2.21 2.87 2.19 2.99 2.18 3.26 2.2 3.39 2.23 3 2.27 2.23 2.54 2.94 3.58" filter="url(#a)"/><path d="m29.87-83.51 8.67 1.01 5.55 1.06 2.53 1.1 2.06 1.19 2.51 1.33 3.25 1.46 4.23 1.53 5.15 1.59 5.5 1.63 5.11 1.68 4.26 1.77 3.54 1.88 3.43 1.99 4.11 2.1 5.43 2.18 7.06 2.24 8.33 2.25 8.41 2.26 6.82 2.25 4.31 2.21 3.51 2.18 8.59 2.69" filter="url(#a)"/><path d="m25.67-85.36 2.7 1.08 2.64 1.07 2.84 1.15 2.86 1.21 2.65 1.25 2.32 1.3 2 1.37 1.78 1.46 1.68 1.57 1.68 1.69 1.74 1.8 1.88 1.9 2.05 1.97 2.24 2 2.41 2.01 2.47 2 2.41 2.01 2.2 2.04 1.93 2.08 1.68 2.13 1.5 2.19 1.47 2.26 1.55 2.3 1.68 2.36 1.8 2.42 1.89 2.5 1.91 2.61 1.94 2.71 1.97 2.81 2.04 2.91 2.11 2.96 2.15 2.92 2.17 2.76L96.07-16l1.43 2.68" filter="url(#a)"/><path d="m25.67-85.36 2.85 1.06 3.07 1.05 3.1 1.14 2.95 1.18 2.79 1.22 2.68 1.27 2.71 1.32 2.9 1.4 3.19 1.51 3.44 1.63 3.56 1.76 3.63 1.88 3.79 1.97 4.11 2.01 4.46 2L79.54-61l4.56 1.91 4.44 1.89 4.61 1.94 5.1 2 5.28 2.12 4.51 2.37 3.03 3.29" filter="url(#a)"/><path d="m23.37-86.43 4.66 1.16 4.27 1.3 2.79 1.23 2.29 1.17 2.43 1.16 2.7 1.24 2.87 1.33 2.99 1.44 3.25 1.51 3.74 1.58 4.44 1.63 5.08 1.7 5.39 1.77 5.23 1.87 4.67 1.99 4.01 2.1 3.58 2.19 3.61 2.24 4.1 2.25 4.96 2.27 6.07 2.26 7.16 2.22 7.89 2.19 8.08 2.7" filter="url(#a)"/><path d="m22.08-86.59 3.26 1.15 3.1 1.08 3.21 1.09 3.37 1.13 3.58 1.18 3.79 1.23 3.98 1.26 4.23 1.33 4.56 1.4 4.85 1.51 4.92 1.63 4.72 1.76 4.31 1.87L77.83-67l3.5 2.01 3.23 2 3 1.96 2.88 1.92 3.06 1.9 3.8 1.93 5.19 2.01 7.01 2.12 8.25 2.37 5.9 3.3" filter="url(#a)"/><path d="m22.12-87.11 6.15.82 6.22 1.1 4.68 1.21 4.55 1.21 4.61 1.19 4.04 1.2 2.98 1.26 2.04 1.35L59-76.33l1.71 1.53 2.09 1.59 2.42 1.65 2.59 1.73 2.71 1.81 2.94 1.9 3.43 2.01L81.11-62l5.17 2.18 6 2.23 6.45 2.25 6.4 2.26 6.06 2.24 5.84 2.21 5.99 2.19 6.33 2.18 6.37 2.21 6.33 2.19 7.16 2.02 5.67 1.8" filter="url(#a)"/><path d="m22.12-87.11 2.67.81 4.11 1.1 4.15 1.21 3.49 1.2 2.59 1.18 1.99 1.19 1.91 1.25 2.27 1.34 2.71 1.43 3.02 1.52 3.14 1.58 3.24 1.64 3.43 1.7 3.78 1.78 4.19 1.89 4.44 1.99 4.43 2.11 4.14 2.18 3.76 2.24 3.53 2.26 3.51 2.26L96.29-51l3.9 2.19 4.26 2.1 4.25 1.92.92 1.27" filter="url(#a)"/><path d="m21.65-87.17 1.66.77 2.46.98 2.46 1.05 2.43 1.09 2.41 1.14 2.34 1.18 2.19 1.23 2.01 1.28 1.87 1.34 1.77 1.42L45-74.17l1.82 1.65 1.93 1.76 2.06 1.87 2.15 1.96 2.17 2 2.09 2 1.95 1.97 1.82 1.95 1.74 1.94 1.72 1.99 1.76 2.07 1.77 2.2 1.75 2.35 1.72 2.4 1.57 2.12 1.12.91M21.65-87.17l1.98.77 3.89.98 4.54 1.05 4.24 1.09 4.16 1.14 4.59 1.18 5.04 1.23 5.06 1.28 4.56 1.34 3.76 1.42 2.95 1.52 2.38 1.65 2.2 1.76 2.53 1.87 3.39 1.96 4.64 2 5.92 2 6.81 1.97 7.05 1.95 6.7 1.94 6.23 1.99 6.11 2.07 6.49 2.2 6.71 2.35 5.66 2.4 3.01 2.12 2 .91" filter="url(#a)"/><path d="m21.65-87.17 1.6.78 2.73.99 3.05 1.06 3.27 1.1 3.34 1.16 3.04 1.19 2.51 1.25 2.02 1.3 1.77 1.37 1.82 1.46 2.08 1.57 2.45 1.67 2.83 1.79 3.13 1.89 3.32 1.95L64-64.65l3.33 2 3.21 2 3.11 2.01 3.05 2.03 3.08 2.07 3.13 2.13 3.1 2.19 2.93 2.24 2.62 2.3 2.32 2.34 2.21 2.41 2.49 2.48 3.07 2.59 3.65 2.7 3.85 2.81 3.39 2.95 2.6 3.12 2.23 3.13 2.35 2.14M21.65-87.17l.87.78.71.99.7 1.06.85 1.1.72 1.16.42 1.19.19 1.25.14 1.3.25 1.37.49 1.46.85 1.57 1.32 1.67 1.82 1.79 2.2 1.89 2.34 1.95 2.13 1.99 1.57 2 .72 2-.31 2.01-1.33 2.03-2.18 2.07-2.7 2.13-2.81 2.19-2.55 2.24-2.15 2.3-1.85 2.34-1.83 2.41-2.09 2.48-2.35 2.59-2.32 2.7-1.84 2.81-1.21 2.95-.91 3.12-1.56 3.13-3.74 2.14" filter="url(#a)"/><path d="m19.58-88 2.49.83 2.58.94 3.05 1.09 3.35 1.18 3.35 1.19 3.12 1.2 2.83 1.23 2.67 1.29 2.63 1.37 2.66 1.46 2.67 1.54 2.66 1.61 2.7 1.68 2.9 1.76 3.24 1.84 3.63 1.94 3.92 2.03 4.02 2.12 3.87 2.18 3.53 2.22 3.1 2.24 2.74 2.26 2.55 2.25 2.66 2.25 3.03 2.25 3.57 2.28 4.05 2.32 4.25 2.4 4.02 2.49 3.43 2.59 2.8 2.64 2.5 2.6 2.71 2.45 3.06 2.25 2.81 2.24 1.57 2.62.43 3.05" filter="url(#a)"/><path d="m19.58-88 2.26.83 2.58.92 2.96 1.08L30.3-84l2.72 1.19 2.56 1.18 2.43 1.21 2.35 1.27 2.3 1.35 2.33 1.44 2.4 1.51 2.5 1.59 2.52 1.65 2.49 1.71 2.41 1.81 2.33 1.9 2.29 2 2.3 2.11 2.33 2.18 2.42 2.23 2.55 2.26 2.76 2.25 3.02 2.25 3.27 2.21 3.4 2.18 3.4 2.18 3.3 2.25 3.18 2.31 3.63 1.7" filter="url(#a)"/><path d="m19.58-88 5.08.83 4.36.92 3.32 1.08L35.53-84l2.97 1.19 2.5 1.18 2.14 1.21 2.17 1.27 2.67 1.35 3.51 1.44 4.44 1.51 5.18 1.59 5.52 1.65 5.32 1.71 4.62 1.81 3.63 1.9 2.65 2 1.96 2.11 1.74 2.18 2.04 2.23 2.76 2.26 3.64 2.25 4.4 2.25 4.84 2.21 5 2.18 5.24 2.18 5.75 2.25 5.9 2.31 5.14 1.7" filter="url(#a)"/><path d="m18.8-88.18 4.68.88 3.88.89 2.78.97 2.84 1.03 3.19 1.08 3.28 1.12 3.16 1.17 3.09 1.22 3.28 1.26 3.7 1.32 4.2 1.39 4.63 1.5 4.89 1.61 4.93 1.73 4.76 1.87 4.46 1.96 4.23 2.03 4.34 2.02 4.97 1.96 6.04 1.88 7.07 1.87 7.31 1.92 6.96 2.09 10.97 2.4" filter="url(#a)"/><path d="m16.73-88.59 2.55.65 2.38.77 2.8.91 3.49 1.05 3.92 1.12 3.95 1.16 3.75 1.16 3.47 1.18 3.2 1.23 2.95 1.31 2.77 1.41 2.73 1.48 2.85 1.55 3.13 1.59 3.51 1.65 3.9 1.71 4.27 1.8 4.62 1.94 4.92 2.11 5.09 2.32 4.83 2.35 2.92 1.72" filter="url(#a)"/><path d="m16.73-88.59 2.64.66 2.57.79 3.05.94 3.45 1.06 3.4 1.14 3.1 1.18 2.81 1.19 2.71 1.22 2.77 1.28 2.94 1.36 3.12 1.44 3.23 1.52 3.21 1.58 3.12 1.66 3.02 1.73 3.04 1.82 3.31 1.91 3.84 2.02 4.55 2.1 5.22 2.18 5.61 2.23 5.51 2.25 4.9 2.25 3.98 2.25 2.99 2.22 2.23 2.21 1.82 2.2 1.9 2.21 2.57 2.24 3.93 2.29 5.72 2.55 8.25 3.59" filter="url(#a)"/><path d="m16.4-88.55 2.43.55 2.35.77 2.49.88 2.66.96 2.65 1.04 2.51 1.09 2.32 1.15L36-80.92l2.13 1.25 2.15 1.3 2.2 1.37 2.31 1.46 2.45 1.56 2.56 1.67 2.66 1.78 2.68 1.87 2.66 1.94 2.58 1.98 2.49 2 2.39 2.01 2.29 2 2.17 2.03 2.05 2.07 1.92 2.13 1.81 2.19 1.73 2.24 1.69 2.29 1.7 2.34 1.7 2.39 1.69 2.48 1.67 2.58 1.74 2.69 1.9 2.78 2.13 2.96 2.45 3.39L97.24-20" filter="url(#a)"/><path d="m16.4-88.55 2.32.55 2.18.75 2.21.88 2.28.96 2.31 1.03 2.26 1.08 2.2 1.14 2.13 1.18 2.09 1.23 2.1 1.28 2.14 1.35 2.2 1.43 2.28 1.53 2.32 1.65 2.32 1.76 2.3 1.87 2.24 1.94 2.15 1.99 2.05 2 1.94 1.99L62.26-59l1.77 1.97 1.75 2.01 1.75 2.09 1.74 2.2 1.74 2.3 1.75 2.32 1.71 2.19 1.48 1.94 1.33 2.37" filter="url(#a)"/><path d="m16.4-88.55 3.77.55 2.77.76 1.95.88 1.83.97 2 1.04 2.22 1.09 2.38 1.14 2.54 1.19 2.73 1.25 3 1.29 3.33 1.37 3.64 1.46L52.37-74l3.8 1.66 3.58 1.78 3.24 1.87 2.88 1.94 2.59 1.98 2.46 2 2.44 2 2.51 2.01 2.65 2.02 2.78 2.06 2.9 2.12 2.99 2.19 3.06 2.24 3.21 2.29 3.49 2.32 3.9 2.38 4.25 2.46 4.42 2.58 4.36 2.68 4.28 2.69 4.37 2.74 4.49 3.3" filter="url(#a)"/><path d="m13.48-89.42 2.12.52 2.42.48 2.76.59 2.97.74 3.22.88 3.47 1.01 3.58 1.09 3.53 1.14 3.35 1.16 3.15 1.2 3.01 1.25 3.02 1.32 3.22 1.4 3.67 1.48 4.28 1.55L66.22-72l5.56 1.66 5.89 1.73 5.83 1.83 5.42 1.96 4.99 2.11 4.95 2.24 5.33 2.25 5.31 2.05 3.83 1.87" filter="url(#a)"/><path d="m13.48-89.42 2.11.52 2.33.49 2.62.6 2.89.75 3.16.9 3.51 1.01 3.91 1.1 4.25 1.15 4.36 1.18 4.08 1.22 3.5 1.27 2.84 1.34 2.37 1.43 2.34 1.5 2.8 1.57 3.69 1.64 4.82 1.71 5.95 1.79 6.79 1.88 7.07 2 6.72 2.09 5.91 2.19 5.1 2.24 4.85 2.26 5.44 2.28 6.53 2.26 7.32 2.21 6.86 2.11 4.49 1.93-1.14 1.28" filter="url(#a)"/><path d="m13.48-89.42 1.98.52 2.24.49 2.52.61 2.73.76 2.87.9 2.88 1.02 2.78 1.1 2.64 1.15 2.5 1.19 2.39 1.23 2.33 1.28 2.32 1.36 2.32 1.43 2.31 1.51 2.29 1.58 2.23 1.65 2.16 1.73 2.1 1.81 2.09 1.91 2.17 2.01 2.31 2.1 2.51 2.17 2.69 2.23 2.83 2.26 2.95 2.26 3.04 2.25 3.07 2.22 2.97 2.2 2.7 2.2 2.34 2.21 2.08 2.2 1.99 2.03 1.4 1.81" filter="url(#a)"/><path d="m11.61-90.01 1.17.17 1.82.51 2.29.64 2.86.71 3.37.78 3.68.87 3.77.94 3.82 1.01 3.96 1.07 4.12 1.13L46.63-81l3.89 1.24 3.34 1.29 2.7 1.36 2.25 1.45 2.23 1.54 2.67 1.65 3.48 1.76 4.39 1.86 5.16 1.93 5.57 1.98 5.56 2 5.14 1.99 4.44 1.99 3.66 2.01 2.97 2.04 2.55 2.11 2.43 2.19 2.6 2.26 3.01 2.28 3.59 2.27 4.23 2.26 4.94 2.41 5.94 2.81 7.38 3.43" filter="url(#a)"/><path d="m11.61-90.01.78.17 2.59.51 3.04.64 2.76.71 2.31.79 2.08.87 2.13.94 2.39 1.02 2.68 1.07 2.87 1.14 2.89 1.18 2.76 1.24 2.56 1.3 2.44 1.37 2.47 1.45 2.67 1.56 3.02 1.66 3.43 1.76 3.8 1.86 4.11 1.93 4.33 1.97 4.49 2 4.64 2 4.77 2 4.86 2.02 4.82 2.07 4.57 2.11 4.13 2.19 3.54 2.25 2.94 2.28 2.45 2.32 2.09 2.36 1.81 2.46 1.56 2.61 1.72 2.7 2.96 2.56 5.14 2.18" filter="url(#a)"/><path d="m6.49-90.74 3.31.48 2.17.43 2.12.52 2.18.62 2.22.69 2.26.77 2.32.85 2.37.92 2.38 1 2.32 1.05 2.23 1.11 2.12 1.17 2.02 1.21 1.97 1.26 1.96 1.33 1.98 1.4 2.02 1.5 2.03 1.61 2.03 1.73 1.99 1.85 1.95 1.96 1.9 2.02 1.87 2.03 1.81 1.98 1.75 1.91 1.66 1.88 1.59 1.93 1.64 2.1 1.98 2.42" filter="url(#a)"/><path d="m6.49-90.74 3.3.48 2.22.43 2.16.52 2.22.61 2.25.69 2.28.77 2.35.85 2.44.92 2.51.99 2.55 1.05 2.53 1.11 2.48 1.16 2.38 1.21 2.29 1.26 2.23 1.32 2.19 1.4 2.19 1.48 2.19 1.6 2.23 1.73 2.3 1.85 2.41 1.97 2.49 2.03 2.48 2.05 2.3 1.97 2 1.88 1.81 1.83 1.98 1.86 2.35 1.98" filter="url(#a)"/><path d="m6.05-90.66 2.63.34 2.4.42 2.22.46 2.16.5 2.17.55 2.24.63 2.32.75 2.38.87 2.42.97 2.42 1.06 2.4 1.12 2.34 1.17 2.3 1.21 2.26 1.26 2.25 1.33 2.25 1.41 2.28 1.49 2.28 1.55 2.27 1.62 2.25 1.69 2.23 1.76 2.22 1.87 2.23 1.97 2.27 2.1 2.36 2.2 2.43 2.25 2.45 2.28 2.42 2.32L73.26-51l2.06 2.61" filter="url(#a)"/><path d="m6.05-90.66 2.57.34 2.32.42 2.14.46 2.05.5 2.04.54 2.09.64 2.18.74 2.24.86 2.29.98 2.28 1.05 2.23 1.12 2.15 1.16 2.07 1.21 2.01 1.26 1.95 1.33 1.93 1.4 1.91 1.49 1.88 1.55L46.24-72l1.84 1.68 1.83 1.75 1.84 1.85 1.86 1.97 1.86 2.1 1.83 2.21 1.73 2.26 1.63 2.21 1.65 2.27 2.01 2.78" filter="url(#a)"/><path d="m4.77-90.72 2.46.17 2.82.32 2.81.42 2.79.5 2.73.6 2.79.68 2.97.75 3.2.83 3.3.91 3.29.98 3.22 1.04 3.3 1.09 3.62 1.15 4.13 1.19 4.67 1.23 5.05 1.29 5.15 1.36 4.95 1.44 4.67 1.54 4.53 1.67 4.67 1.83 4.91 2.02 4.79 2.23 4.08 2.29 3.65 1.6" filter="url(#a)"/><path d="m5.31-90.57 1.39.06 2.05.26 2.2.37 2.21.45 2.23.49 2.31.55 2.43.63 2.54.74 2.63.86 2.69.96 2.69 1.05 2.62 1.11 2.48 1.15 2.29 1.21 2.09 1.25 1.97 1.33 1.93 1.4 2.02 1.48 2.17 1.54 2.32 1.61 2.41 1.66 2.4 1.74 2.35 1.84 2.28 1.96 2.29 2.11 2.33 2.25 2.29 2.26 2.12 2.07 2.38 1.88" filter="url(#a)"/><path d="m1.82-90.72 2.69.05 2.65.19 2.58.3 2.46.42 2.44.51 2.51.6 2.68.69 2.87.77 3.04.84 3.19.92 3.25 1 3.25 1.05 3.21 1.12 3.13 1.16 3.09 1.22 3.13 1.28 3.26 1.35 3.5 1.43 3.81 1.52 4.09 1.63 4.25 1.74 4.21 1.85 3.97 1.93 3.58 1.99 3.21 2.01 3.04 1.99 3.17 1.96 3.52 1.95 3.85 1.99 3.97 2.06 3.94 2.21 3.97 2.43 3.93 2.77 2.5 2.87" filter="url(#a)"/><path d="m1.85-90.85 3.27.18 3.12.17 2.75.27 2.36.35 2.24.42 2.52.47 3.09.53 3.67.6 4.02.7 4.12.82 4.14.93 4.31 1.03 4.62 1.1 4.94 1.13 5.09 1.14 5.18 1.18 5.44 1.24 6.08 1.37 6.87 1.5L87-74.15l6.98 1.49 4.53 1.28" filter="url(#a)"/><path d="m1.85-90.85 3.16.18 2.97.18 2.7.27 2.41.36 2.27.42 2.29.49 2.46.54 2.76.63 3.23.73 3.82.84 4.41.95 4.9 1.03 5.12 1.1 4.99 1.15 4.52 1.18 3.89 1.24 3.3 1.31 2.98 1.38 3.08 1.47 3.6 1.54 4.36 1.59 5.12 1.63 5.58 1.69 5.54 1.75 4.96 1.84 4.14 2 4.82 2.39" filter="url(#a)"/></g><g fill="none" stroke="#000"><circle cx="10.656" cy="33.936" r="2.944" filter="url(#a)"/><circle cx="8.12" cy="36.144" r="1.39" filter="url(#a)"/><circle cx="9.256" cy="33.768" r="2.066" filter="url(#a)"/><circle cx="8.5" cy="34.52" r="2.454" filter="url(#a)"/><circle cx="7.688" cy="35.108" r="1.03" filter="url(#a)"/><circle cx="11.348" cy="34.436" r="2.254" filter="url(#a)"/><circle cx="10.316" cy="35.62" r="2.588" filter="url(#a)"/><circle cx="7.576" cy="36.708" r="1.364" filter="url(#a)"/><circle cx="7.964" cy="36.704" r="1.894" filter="url(#a)"/><circle cx="8.212" cy="34.096" r="1.818" filter="url(#a)"/><circle cx="-11.736" cy="35.262" r="2.086" filter="url(#a)"/><circle cx="-12.292" cy="34.302" r="2.824" filter="url(#a)"/><circle cx="-10.768" cy="35.478" r="2.206" filter="url(#a)"/><circle cx="-12.148" cy="33.294" r="2.288" filter="url(#a)"/><circle cx="-11.132" cy="32.658" r="1.686" filter="url(#a)"/><circle cx="-8.792" cy="33.066" r="1.608" filter="url(#a)"/><circle cx="-12.044" cy="33.502" r="1.664" filter="url(#a)"/><circle cx="-10.116" cy="33.186" r="1.078" filter="url(#a)"/><circle cx="-9.692" cy="32.426" r="2.208" filter="url(#a)"/><circle cx="-11.888" cy="33.478" r="1.266" filter="url(#a)"/></g><path fill="#D77F8C" stroke="#000" stroke-linejoin="round" stroke-width="3" d="m-18.11 59.99.29-.78.29-.76.3-.75.31-.73.31-.71.31-.7.32-.68.33-.66.33-.64.33-.63.34-.61.34-.59.35-.58.35-.56.35-.54.36-.53.36-.51.36-.5.37-.48.37-.46.37-.45.37-.43.38-.42.38-.4.38-.39.38-.37.38-.36.39-.34.38-.33.39-.31.38-.3.39-.28.39-.27.39-.25.39-.24.39-.23.39-.21.38-.2.39-.19.39-.17.38-.16.39-.15.38-.13.38-.12.38-.1.38-.1.38-.08.37-.07.37-.05.37-.04.37-.04.36-.02h.72l.36.02.35.03.34.04.35.05.34.06.33.08.33.08.33.1.32.1.31.12.32.13.3.14.3.15.3.16.28.17.29.18.27.19.27.2.27.21.26.22.25.23.24.23.23.25.23.26.22.26.22.28.2.28.2.29.19.3.18.31.17.32.17.33.15.33.15.34.13.35.13.36.12.37.1.37.1.38.09.39.07.39.07.4.06.41.04.42.03.42-.29-.04-.3-.04-.29-.04-.3-.04-.29-.04-.3-.03-.29-.04-.3-.03-.29-.03-.3-.02-.3-.03-.29-.02-.3-.02-.29-.02-.3-.02-.29-.01-.3-.02-.29-.01h-.3l-.29-.01H4.34l-.29.01-.3.01-.29.01-.3.01-.29.02-.3.02-.29.02-.3.02-.29.03-.3.03-.3.03-.29.04-.3.04-.29.04-.3.04-.29.05-.3.05-.29.05-.3.06-.29.05-.3.07-.29.06-.3.07-.3.07-.29.07-.3.08-.29.08-.3.08-.29.09-.3.09-.29.09-.3.1-.29.1-.3.1-.29.11-.3.11-.3.12-.29.11-.3.13-.29.12-.3.13-.29.13-.3.14-.29.14-.3.14-.29.15-.3.15-.29.15-.3.16-.3.16-.29.17-.3.17-.29.17-.3.18-.29.19-.3.18-.29.19-.3.2-.29.2-.3.2-.3.21-.29.21-.3.21-.29.22-.3.23-.29.23-.3.23-.29.24-.3.24-.29.25-.3.25-.29.25-.3.26-.3.27-.29.27" filter="url(#a)"/></svg>