<svg xmlns="http://www.w3.org/2000/svg" width="500" height="500" viewBox="-100 -100 200 200"><defs><clipPath id="c"><path d="m29.15-1.84-.09-.17-.12-.17-.17-.16-.21-.15-.24-.15-.28-.14-.32-.14-.35-.13-.38-.12-.41-.12-.43-.12-.47-.1-.49-.1-.52-.09-.55-.09-.6-.13-.64-.11-.67-.11-.7-.09-.72-.09-.75-.08-.77-.07-.8-.06-.81-.05-.84-.04-.85-.03-.87-.03-.89-.01-.9-.01h-.91l-.92.01-.94.01-.93.02-.95.02-.94.03-.95.04-.96.04-.95.05-.94.05-.95.06-.94.06-.93.06-.93.06-.91.07-.91.07-.9.07-.88.08-.87.07-.85.08-.84.08-.82.08-.8.08-.79.08-.76.08-.75.08-.72.08-.7.08-.69.08-.66.08-.63.08-.62.08-.59.08-.57.08-.55.08-.52.08-.51.07-.48.08-.46.08-.45.08-.42.08-.4.08-.38.07-.35.08-.34.08-.32.08-.29.08-.27.08-.26.07-.23.08-.94 1.13.22.1.23.11.25.1.27.11.28.11.29.11.31.12.33.11.34.12.35.12.37.12.38.12.4.12.41.13.42.12.45.13.45.13.48.13.49.14.5.13.52.13.53.14.55.13.56.14.58.13.58.14.6.13.62.13.62.13.64.12.65.12.67.12.67.12.69.11.69.1.71.1.72.09.73.09.74.07.75.07.76.07.77.05.78.04.79.04.8.02.82.01h.81l.83-.01.84-.02.85-.03.85-.05.87-.06.87-.07.88-.09.88-.1.89-.11.9-.12.9-.14.9-.15.91-.17.91-.17.9-.19.91-.2.9-.22.72-.14.7-.15.7-.15.68-.17.68-.16.66-.18.64-.17.62-.18.61-.19.58-.19.56-.19.54-.2.51-.2.48-.2.44-.2"/></clipPath><clipPath id="b"><path d="m-29.63-2.52.14-.11.17-.1.2-.11.22-.1.26-.1.28-.1.31-.09.34-.09.36-.09.39-.08.42-.08.43-.08.46-.07.49-.06.5-.07.52-.09.55-.1.59-.08.61-.08.64-.06.68-.07.7-.05.72-.05.76-.04.78-.03.8-.03.82-.01.85-.02h1.74l.9.01.91.01.93.02.94.02.94.03.95.04.96.04.97.04.96.05.97.05.97.06.96.06.96.06.95.07.94.07.93.07.93.08.9.08.9.08.88.08.86.08.84.09.83.09.8.09.78.09.76.09.74.09.7.1.69.1.66.09.63.1.6.1.58.1.55.1.52.11.5.1.47.11.45.11.41.1.4.12.36.11.34.11.31.12.29.11.26.12.23.12.2.13.18.12.14.13 4.79.56-.25.11-.28.12-.29.11-.3.12-.32.12-.33.12-.36.12-.36.12-.38.12-.39.13-.41.12-.42.12-.44.13-.44.12-.47.13-.47.12-.5.13-.5.13-.53.12-.53.13-.55.12-.56.13-.58.12-.59.12-.6.11-.61.12-.62.11-.63.11-.64.1-.65.1-.66.09-.67.09-.68.08-.68.08-.7.07-.7.06-.71.06-.72.05-.73.04-.74.03-.74.02-.75.02H.71l-.77-.01-.79-.03-.79-.03-.8-.04-.81-.06-.81-.06-.83-.07-.83-.08-.84-.1-.85-.1-.85-.11-.86-.12-.87-.13-.88-.14-.88-.15-.89-.16-.89-.16-.89-.17-.9-.18-.9-.19-.72-.13-.71-.14-.71-.14-.7-.14-.69-.15-.69-.15-.67-.15-.66-.16-.65-.15-.63-.16-.62-.16-.6-.16-.58-.15-.56-.16-.54-.16"/></clipPath><filter id="a"><feTurbulence baseFrequency=".05" numOctaves="3" result="noise" type="noise"/><feDisplacementMap in="SourceGraphic" in2="noise" scale="2"/></filter></defs><rect width="100%" height="100%" x="-100" y="-100" fill="#556B2F"/><path fill="#FFEBCD" stroke="#000" stroke-linejoin="round" stroke-width="1.667" d="m75.21.53.03.06-.2.74.07 2.15.21.88-.07.23-.4 4-.02.51-.2 1.77-.09.73-.19 1.22-.05.64-.69 3.57-.02-.44-.34 3.34-.34 1.4.19-.58-.98 3.21.29-.53-.83 2.55-.19-.27-.07 1.76-.64 1.71-.34.4.01-.12-.97 3.45-.21.18-.67 1.57-.17.37-1.56 3.47-.49 1.36.48-.46-.4.85-1.34 2.34-.46.7-.63 1.04-.41.39.17.12-1.61 2.99-1.57 1.93.67-.88-1.61 2.57.69-.81-2.58 3.18-.45.71-.53.95-.13-.28-1.12 1.38-1.13 1.54-1.24 1.45-.11-.15.05-.05-2.46 2.96-.57.43-.45.33-.38.7-.57.6-2.04 1.67-1.82 1.32-.37.75.48-.43-1.52 1.11-1.18.93-1.57 1.11.71-.59-.46.64-4.17 2.44 1.09-.7-1.23.85-.26.14-4.02 2.34 1.08-.61-1.06.42-2.34 1.51-.29-.18-.36.55-.87.23-.66.1-3.22 1.49 1.23-.34-1.77.44-1.17.72-1.34.32-2.38.64-1.58.55.03-.03-2.46.5-.17.21-.02.05-.34-.15-3.12.55-2.65.68 1.47-.45-2.13.46-1.34.14-.65.07-1.83-.05-1.57.09.93.27-2.1-.28-1.79.06-2.65-.06 1.7.19-1.09-.16-3.78-.02-.77-.14h-.88l-1.44-.3-.52-.16.38.13-4.19-.78.72.3-.97-.08-.45-.2-3.35-.74-.15-.15-.23.01-2.3-.82.33.24-2.29-.72-.01-.21-2.61-.98.73.32-1.79-.65-2.88-1.29.17.03.48.16-2.98-1.31-1.34-.62-.74-.39-.75-.31-1.34-1.18-1.09-.49-.74-.29-1.23-1.08-.1.08-.99-.56-1.31-1.21-1.74-1.27-.57-.1-.48-.49-1.25-.94-2.25-2.24.32.72-1.26-1.65-2.15-1.75.95.98-1.94-2-1.01-1.31-1.3-1.03.01-.4-.81-.67-1.31-1.51 1.24 1.39-2.75-3.51-.34-.06-1.68-2.24.65.78-2.06-3.1-.18-.07-.41-.84-.74-.88-.79-1.53-.13-.56.1.39-.83-1.63-.76-1.59-.67-1.05-.94-1.59-1.11-1.88-.34-.77-1.05-2.81.35.65-1.15-2.29.3.07-.15-.18-.54-.8-.84-2.71-.4-1.97-.29-.14-.42-2.23-.41-.26-.69-3.81.33 1.19-.83-2.06.06-.88-.51-2.79-.13-.23-.47-2.32.23.6-.56-2.3.16.75-.5-4.69-.3-1.34.34 1.71-.09-2.36-.15-1.38-.13-.25-.09-2.21-.25-.87.09-3.87.04-.9-.02.5-.04-1.81.52-2.1-.02-.52-.01-2.46-.2.37.34-2.67.05-.17.62-2.78-.17-.73-.04-.02.48-1.97.61-1.93-.08-1.03.35-.79.33-1.31.59-3.01.4-.14-.56 1.13.79-3.32.99-1.97.28-1.18.13-.38.83-2-.54.67 1.53-3.39v-.52l.64-1.26 1.53-3.1-.41 1.37-.09-.54 1.06-2.01.54-1.1-.26.26 1.86-2.81-.03-.24.6-.79.51-1.24 1.24-2 .16-.03 2.12-3.25.27-.51-.67 1.04 1.75-2.51.81-.64.57-.95 1.13-1.01-.07-.17 1.86-1.79v-.13l.99-1.11 2.92-2.91-.28.13.59-.73 1.55-1.43.98-.82.74-.53.05-.37 1.93-1.51-.09.05.46-.17 1.38-1.16 1.33-.67-.14.01 1.76-1.22 1.74-1.09 1.5-1.06-.71.35 2.05-1.14 1.55-.7.62-.31.78-.65.35-.23 2.27-.84.35-.24 1.29-.44.4-.45 2.59-.99 1.3-.21.46-.48 2.59-.59-.04-.2 1.99-.42 1.2-.51 2.33-.63-.06.17-.24.07.83-.28 1.29.05.94-.4 1.71-.38 2.26-.26-.03-.05 1.53.14 1.63-.19h.2l2.83-.03.99-.16-.19-.16 1.79.13 1.84.03-.88-.02 2.69.12-.05.23 3.57.34-.97-.27.62.13 3.28.55-.23-.03 2.54.32-.48-.1 1.06.2 3.1.91-.42-.37 1.97.66 1.03.39 2.41.64-1.39-.49 3.35 1.33h.19l.19.2 1.4.49 1.53.76 2.15.76 1.39.59.74.59.32.07 1.83 1.11-.64-.3 2.17 1.25.19.16 1.95 1.18 1.61.89.05.28.03-.01 3.12 2.1-.06.04 1.3 1.23 1.03.64-.45-.25.91.86 2.9 2.02.37.69.79.71.23.19 1.55 1.59.3.15 1.49 1.86.64.22-.57-.16.97 1.07 2.4 2.75 1.33 1.65-.17.13.49.47.93 1.01.64 1.31.31.67.27.35 2.25 2.78-.6-.31.88 1.48.85 1.16.24.32.73 1.72 1.29 2.53-.27-1.06 1.09 2.8.25.34.07.48L68-36.03l1.12 2.54.91 2.32-.76-1.97 1.04 3.03-.18-.35.17 1 .89 2.67.03-.51 1.12 3.63-.14.91.26-.62.32 2.18.35 1.71.23.8.51 2.4-.1-.04.17-.12.16 3.12.2.1.36 3.28.08.23.36 1.67-.13 2.28.04-.64-.07 1.81v-.18l.26 4.03.01 1.28.03.06" filter="url(#a)"/><path fill="#fff" d="m-29.63-2.52.14-.11.17-.1.2-.11.22-.1.26-.1.28-.1.31-.09.34-.09.36-.09.39-.08.42-.08.43-.08.46-.07.49-.06.5-.07.52-.09.55-.1.59-.08.61-.08.64-.06.68-.07.7-.05.72-.05.76-.04.78-.03.8-.03.82-.01.85-.02h1.74l.9.01.91.01.93.02.94.02.94.03.95.04.96.04.97.04.96.05.97.05.97.06.96.06.96.06.95.07.94.07.93.07.93.08.9.08.9.08.88.08.86.08.84.09.83.09.8.09.78.09.76.09.74.09.7.1.69.1.66.09.63.1.6.1.58.1.55.1.52.11.5.1.47.11.45.11.41.1.4.12.36.11.34.11.31.12.29.11.26.12.23.12.2.13.18.12.14.13 4.79.56-.25.11-.28.12-.29.11-.3.12-.32.12-.33.12-.36.12-.36.12-.38.12-.39.13-.41.12-.42.12-.44.13-.44.12-.47.13-.47.12-.5.13-.5.13-.53.12-.53.13-.55.12-.56.13-.58.12-.59.12-.6.11-.61.12-.62.11-.63.11-.64.1-.65.1-.66.09-.67.09-.68.08-.68.08-.7.07-.7.06-.71.06-.72.05-.73.04-.74.03-.74.02-.75.02H.71l-.77-.01-.79-.03-.79-.03-.8-.04-.81-.06-.81-.06-.83-.07-.83-.08-.84-.1-.85-.1-.85-.11-.86-.12-.87-.13-.88-.14-.88-.15-.89-.16-.89-.16-.89-.17-.9-.18-.9-.19-.72-.13-.71-.14-.71-.14-.7-.14-.69-.15-.69-.15-.67-.15-.66-.16-.65-.15-.63-.16-.62-.16-.6-.16-.58-.15-.56-.16-.54-.16" filter="url(#a)" transform="translate(46.48 -23.88)"/><path fill="#fff" d="m29.15-1.84-.09-.17-.12-.17-.17-.16-.21-.15-.24-.15-.28-.14-.32-.14-.35-.13-.38-.12-.41-.12-.43-.12-.47-.1-.49-.1-.52-.09-.55-.09-.6-.13-.64-.11-.67-.11-.7-.09-.72-.09-.75-.08-.77-.07-.8-.06-.81-.05-.84-.04-.85-.03-.87-.03-.89-.01-.9-.01h-.91l-.92.01-.94.01-.93.02-.95.02-.94.03-.95.04-.96.04-.95.05-.94.05-.95.06-.94.06-.93.06-.93.06-.91.07-.91.07-.9.07-.88.08-.87.07-.85.08-.84.08-.82.08-.8.08-.79.08-.76.08-.75.08-.72.08-.7.08-.69.08-.66.08-.63.08-.62.08-.59.08-.57.08-.55.08-.52.08-.51.07-.48.08-.46.08-.45.08-.42.08-.4.08-.38.07-.35.08-.34.08-.32.08-.29.08-.27.08-.26.07-.23.08-.94 1.13.22.1.23.11.25.1.27.11.28.11.29.11.31.12.33.11.34.12.35.12.37.12.38.12.4.12.41.13.42.12.45.13.45.13.48.13.49.14.5.13.52.13.53.14.55.13.56.14.58.13.58.14.6.13.62.13.62.13.64.12.65.12.67.12.67.12.69.11.69.1.71.1.72.09.73.09.74.07.75.07.76.07.77.05.78.04.79.04.8.02.82.01h.81l.83-.01.84-.02.85-.03.85-.05.87-.06.87-.07.88-.09.88-.1.89-.11.9-.12.9-.14.9-.15.91-.17.91-.17.9-.19.91-.2.9-.22.72-.14.7-.15.7-.15.68-.17.68-.16.66-.18.64-.17.62-.18.61-.19.58-.19.56-.19.54-.2.51-.2.48-.2.44-.2" filter="url(#a)" transform="translate(-38.1 -23.26)"/><g fill="none" stroke="#000" transform="translate(46.48 -23.88)"><path stroke-linejoin="round" stroke-width="1.667" d="m-29.25-1.38-.19-.11-.15-.11-.13-.12-.08-.11-.06-.12-.02-.11.02-.12.04-.11.08-.12.11-.11.14-.11.17-.1.2-.11.22-.1.26-.1.28-.1.31-.09.34-.09.36-.09.39-.08.42-.08.43-.08.46-.07.49-.06.5-.07.52-.09.55-.1.59-.08.61-.08.64-.06.68-.07.7-.05.72-.05.76-.04.78-.03.8-.03.82-.01.85-.02h1.74l.9.01.91.01.93.02.94.02.94.03.95.04.96.04.97.04.96.05.97.05.97.06.96.06.96.06.95.07.94.07.93.07.93.08.9.08.9.08.88.08.86.08.84.09.83.09.8.09.78.09.76.09.74.09.7.1.69.1.66.09.63.1.6.1.58.1.55.1.52.11.5.1.47.11.45.11.41.1.4.12.36.11.34.11.31.12.29.11.26.12.23.12.2.13.18.12.14.13.13.12.09.13.07.13.04.14.02.13-.01.14-.03.13-.06.14-.08.15-.11.14" filter="url(#a)"/><path stroke-linejoin="round" stroke-width="2.222" d="m-29.48-1.38.17.11.21.11.26.13.31.13.34.14.38.14.42.14.45.15.48.15.51.15.54.16.56.16.58.15.6.16.62.16.63.16.65.15.66.16.67.15.69.15.69.15.7.14.71.14.71.14.72.13.9.19.9.18.89.17.89.16.89.16.88.15.88.14.87.13.86.12.85.11.85.1.84.1.83.08.83.07.81.06.81.06.8.04.79.03.79.03.77.01h1.53l.75-.02.74-.02.74-.03.73-.04.72-.05.71-.06.7-.06.7-.07.68-.08.68-.08.67-.09.66-.09.65-.1.64-.1.63-.11.62-.11.61-.12.6-.11.59-.12.58-.12.56-.13.55-.12.53-.13.53-.12.5-.13.5-.13.47-.12.47-.13.44-.12.44-.13.42-.12.41-.12.39-.13.38-.12.36-.12.36-.12.33-.12.32-.12.3-.12.29-.11.28-.12.25-.11.24-.11.23-.11.2-.11.2-.1.17-.11.16-.1.14-.1.13-.1.11-.1.1-.09" filter="url(#a)"/><circle cx="14.262" cy="1.505" r="4.76" clip-path="url(#b)" filter="url(#a)"/><circle cx="12.012" cy=".145" r="4.96" clip-path="url(#b)" filter="url(#a)"/><circle cx="14.202" cy="1.81" r="4.146" clip-path="url(#b)" filter="url(#a)"/><circle cx="12.272" cy="1.925" r="3.25" clip-path="url(#b)" filter="url(#a)"/><circle cx="14.707" cy="-2.125" r="4.862" clip-path="url(#b)" filter="url(#a)"/><circle cx="12.887" cy="-1.835" r="3.566" clip-path="url(#b)" filter="url(#a)"/><circle cx="15.832" cy="-1.035" r="3.092" clip-path="url(#b)" filter="url(#a)"/><circle cx="12.807" cy="1.835" r="4.572" clip-path="url(#b)" filter="url(#a)"/><circle cx="12.097" cy="-1.26" r="3.826" clip-path="url(#b)" filter="url(#a)"/><circle cx="13.112" cy="-.915" r="4.012" clip-path="url(#b)" filter="url(#a)"/></g><g fill="none" stroke="#000" transform="translate(-38.1 -23.26)"><path stroke-linejoin="round" stroke-width="2.222" d="m27.35.14.42-.22.37-.21.3-.21.26-.2.19-.2.15-.2.1-.19.05-.19v-.18l-.04-.18-.09-.17-.12-.17-.17-.16-.21-.15-.24-.15-.28-.14-.32-.14-.35-.13-.38-.12-.41-.12-.43-.12-.47-.1-.49-.1-.52-.09-.55-.09-.6-.13-.64-.11-.67-.11-.7-.09-.72-.09-.75-.08-.77-.07-.8-.06-.81-.05-.84-.04-.85-.03-.87-.03-.89-.01-.9-.01h-.91l-.92.01-.94.01-.93.02-.95.02-.94.03-.95.04-.96.04-.95.05-.94.05-.95.06-.94.06-.93.06-.93.06-.91.07-.91.07-.9.07-.88.08-.87.07-.85.08-.84.08-.82.08-.8.08-.79.08-.76.08-.75.08-.72.08-.7.08-.69.08-.66.08-.63.08-.62.08-.59.08-.57.08-.55.08-.52.08-.51.07-.48.08-.46.08-.45.08-.42.08-.4.08-.38.07-.35.08-.34.08-.32.08-.29.08-.27.08-.26.07-.23.08-.21.08-.19.08-.17.08-.15.08-.14.08-.11.08-.09.08-.08.08-.06.08-.03.08" filter="url(#a)"/><path stroke-linejoin="round" stroke-width="2.222" d="m29.51-1.79.03.17-.03.17-.09.19-.14.18-.2.19-.25.2-.29.19-.33.2-.38.2-.41.2-.44.2-.48.2-.51.2-.54.2-.56.19-.58.19-.61.19-.62.18-.64.17-.66.18-.68.16-.68.17-.7.15-.7.15-.72.14-.9.22-.91.2-.9.19-.91.17-.91.17-.9.15-.9.14-.9.12-.89.11-.88.1-.88.09-.87.07-.87.06-.85.05-.85.03-.84.02-.83.01H2.5l-.82-.01-.8-.02-.79-.04-.78-.04-.77-.05-.76-.07-.75-.07-.74-.07-.73-.09-.72-.09-.71-.1-.69-.1-.69-.11-.67-.12-.67-.12-.65-.12-.64-.12-.62-.13-.62-.13-.6-.13-.58-.14-.58-.13-.56-.14-.55-.13-.53-.14-.52-.13-.5-.13-.49-.14-.48-.13-.45-.13-.45-.13-.42-.12-.41-.13-.4-.12-.38-.12-.37-.12-.35-.12-.34-.12-.33-.11-.31-.12-.29-.11-.28-.11-.27-.11-.25-.1-.23-.11-.22-.1-.2-.1-.18-.09-.17-.1-.16-.09-.13-.09-.13-.09-.1-.09-.1-.08-.07-.09-.07-.08" filter="url(#a)"/><circle cx="11.859" cy="-1.752" r="4.518" clip-path="url(#c)" filter="url(#a)"/><circle cx="9.904" cy="-1.002" r="4.406" clip-path="url(#c)" filter="url(#a)"/><circle cx="7.779" cy="-2.022" r="4.658" clip-path="url(#c)" filter="url(#a)"/><circle cx="10.089" cy="-2.562" r="4.046" clip-path="url(#c)" filter="url(#a)"/><circle cx="11.924" cy="-.512" r="3.356" clip-path="url(#c)" filter="url(#a)"/><circle cx="10.064" cy="-.657" r="3.938" clip-path="url(#c)" filter="url(#a)"/><circle cx="10.014" cy="-.892" r="4.59" clip-path="url(#c)" filter="url(#a)"/><circle cx="9.154" cy="1.258" r="3.056" clip-path="url(#c)" filter="url(#a)"/><circle cx="9.159" cy=".673" r="3.486" clip-path="url(#c)" filter="url(#a)"/><circle cx="11.344" cy="-2.672" r="3.404" clip-path="url(#c)" filter="url(#a)"/></g><g fill="none" stroke="#32CD32" stroke-linejoin="round" stroke-width="2"><path d="m58.91-52.59.2.98-.44.74-1.02.7-1.7.61-2.46.5-3.26.37-4.07.27-4.9.2-5.76.11-6.65.02-7.56-.12-8.49-.28-9.41-.46-10.34-.62-11.27-.72-12.3-.8-13.48-.79M4.87-83.79l2.09.16 1.06.09 1.03.13 1.1.16 1.04.16.92.16.78.15.63.16.48.15.28.14.06.13-.22.1-.53.07-.87.03h-1.26l-1.66-.05-2.09-.09-2.51-.15-2.9-.22-3.31-.29-3.84-.37" filter="url(#a)"/><path d="m13.2-82.85 1.62.51 2.08.87 2.27 1.13 2.51 1.4 2.76 1.65 2.95 1.85 3.09 2.02 3.19 2.14 3.28 2.23 3.34 2.31 3.42 2.37 3.48 2.42 3.48 2.45 3.45 2.55" filter="url(#a)"/><path d="m57.66-54.2.09.28.39.55.49.71.47.74.44.72.38.65.28.55.16.43.01.27-.15.11-.32-.06-.49-.25-.69-.47-.91-.71-1.15-.99-1.39-1.26-1.66-1.55-1.92-1.84-2.21-2.17-2.57-2.56-2.95-3.01-3.31-3.45-3.49-3.76m-80.77 2.51.75-.46 1.02-.68 1.07-.71 1.07-.72 1.06-.71.97-.65.79-.52.55-.35.3-.14v.05l-.3.24-.63.46-.96.66-1.3.89-1.68 1.16-2.16 1.53" filter="url(#a)"/><path d="m59.86-50.61.64.83.65.94.37.66.11.37-.12.11-.37-.18-.68-.51-1.03-.92-1.4-1.4-1.8-1.91-2.24-2.47-2.76-3.09-3.39-3.77-4.08-4.52m-60.3-15.7 1.51-.35.84-.09.85-.06 1.1-.09 1.39-.14 1.58-.16 1.68-.17 1.69-.14 1.64-.12 1.56-.08 1.45-.07 1.31-.06 1.16-.06.95-.05.73-.06.49-.05.22-.04-.03-.04-.28-.04-.54-.03-.85-.03-1.19-.04m-31.66 7.34 1.81-.58 1.74-.34 2.08-.27 2.53-.23 2.92-.18 3.22-.11 3.47-.03 3.67.06 3.83.11 3.94.17 4 .22 4 .27 3.96.33 3.9.36 3.86.35 3.83.32 3.83.29 3.93.34" filter="url(#a)"/><path d="m-38.82-71.97 1.65-.96 1.68-.8 1.94-.75 2.31-.78 2.61-.83 2.79-.85 2.92-.86 3.03-.86 3.1-.86 3.1-.86 3.05-.85 2.99-.84 2.88-.8 2.53-.73m32.01 6.23 1.04.52.67.42.46.37.3.34.16.33.01.32-.19.29-.45.24-.76.17-1.12.09-1.49.01-1.89-.08-2.33-.18-2.78-.28-3.26-.41-3.68-.53-4.07-.67-4.41-.8-4.83-.95-5.44-1.12-6.31-1.2" filter="url(#a)"/><path d="m16.94-82.11 1.74.64 1.65.68 1.64.75 1.67.87 1.76.98 1.86 1.08 1.97 1.18 2.1 1.26 2.17 1.32 2.18 1.32 2.09 1.28 1.92 1.18 1.75 1.08 1.59 1.01 1.47.95 1.36.88 1.19.76.95.57.71.4M4.92-84.02l.7.22.84.19.5.2.25.27v.34l-.32.41-.72.48-1.14.56-1.58.66-2.06.77-2.56.9-3.13 1.01-3.75 1.14-4.39 1.25-5.05 1.33-5.71 1.41-6.35 1.47-6.87 1.41" filter="url(#a)"/><path d="m62.38-47.48-.19.19.12.6.05.61-.16.54-.4.4-.7.21-1.02-.02-1.34-.24-1.68-.46-2.01-.66-2.36-.89-2.75-1.16-3.18-1.48-3.65-1.83-4.14-2.19-4.63-2.53-5.1-2.83-5.58-3.13-6.06-3.44-6.6-3.75-7.23-4.09-7.89-4.44M51.1-61.74l.61.59.75.8.7.78.71.84.77.94.76.94.64.8.43.57.21.33v.09l-.23-.15-.44-.38-.67-.64-.93-.94-1.29-1.32-1.71-1.78-2.17-2.25-2.41-2.58" filter="url(#a)"/><path d="m24.31-79.58.04.09-.08.29-.25.46-.63.57-1.24.6-2.03.59-2.92.58-3.86.56-4.77.57-5.69.62-6.63.68-7.63.79-8.74.92-9.83.94m25.8-12.61 2.03-.07 1.22-.08.96-.05h.9l.84.04.78.07.68.09.57.12.4.13.2.15.01.16-.22.17-.43.18-.69.19-.97.21-1.3.24-1.68.28-2.11.33-2.54.37-3.02.41-3.5.43-4.04.47-4.73.54" filter="url(#a)"/><path d="m-43.15-68.93 1.4-.87 1.57-.57 1.93-.49 2.33-.48 2.66-.41 2.94-.33 3.16-.23 3.39-.15 3.6-.08h3.79l3.99.06 4.17.13 4.34.17 4.49.21 4.61.23 4.7.23 4.75.24 4.73.23 4.71.25 4.69.31 4.73.44 4.66.46" filter="url(#a)"/><path d="m45.26-66.94 6.85 15.13-13.68-2.57-14.81-7.03-11.37-5.81-10.19-2.61-9.43.5-6.17 2.24-.6 2.26 4.08.97 5.11-.72 3.35-1.61 3.36-.53 9.22 2.84 18.65 6.4 19.13 4.26-6.23-16.24" filter="url(#a)"/><path d="M70.03-31.17 22.21-63.31 2.58-69.65l-5.51 2.72 1.27 3.29 3.11.74 2.62-1.8 2.12-2.71 2.45-1.93 2.37-.42.06.69-4.17 1.19-7.47 1.69-8.83 1.78-10.92-1.88 5.81-16.27" filter="url(#a)"/><path d="m-14.21-82.8 1.65 12.92 8.14 3.53 1.49-.41 4.85.82 10.47 3.22 11.11 4.11 5.79 2.88-2.33.37-9.14-2.13-11.87-3.77-10.11-4.25-5.32-3.67.24-2.19 4.74-.02 7.37 2.49 8.07 4.75 7.15 5.94 5.09 5.47 2.49 3.25-1.16-.4-9.87-5.18-26.96-9.66-29.45-5.36" filter="url(#a)"/><path d="M-55.91-56.43-2-65.98l29.97 1.45 11.95.13 3.55-.76 1.21.36.38 1.95-1.83 2.49-5.62 1.67-9.05.2-9.58-.79-6.4-.73-1.44.05 1.76.49 1.03-.21-2.17-1.85-3.53-3.23.99-2.41 15.39 4.42L68-36.03" filter="url(#a)"/><path d="M69.12-33.49 57.54-48.13l-5.44-3.26-5.3-.5-10.78-3.63-14.65-5.63-14.24-4.59-10.65-1.92-6.23.33-2.78 1.02-.92.15-.18-1.46.23-2.84.92-3.34 1.98-2.85 3.3-1.53 4.89.37 6.87 2.64 8.89 4.86 9.39 6.1 5.94 4.95-2.68.46-13.23-5.48-19.91-6.32-39.2 4.2" filter="url(#a)"/><path d="m44.35-67.8-10.08-1.86-11.09.94-12.42-1.06-6.24-.42.34 1.28 3.75 2.34 4.16 2.3 2.88 1.64 1.22 1.07.04.96-.57 1.21-1.2 1.29-2.11.93-2.24.43.25.53 5.86 1.69 11.14 3.23 7.54 3.15-17.38-.92-74.68-6.41" filter="url(#a)"/><path d="m61.78-47.79-23-7.75-12.04-1.61-.52-.2-1.61-1.18-5.85-2.85-7.07-4.39-5.36-5.05-3.34-4.54-2.74-3.17-3.45-1.57-4.38-.11-4.54 1.07-3.02 1.74 1.43 1.43 9.28-.16 14.92-2.27-2.4-5.19" filter="url(#a)"/><path d="M52.96-59.67 29.18-70.18l-2.38 2.9 8.54 6.79 5.85 4.96-3.31 1.11-12.13-2.16-16.06-3.46-13.77-2.81-7.25-1.14-.22.49 4.01 1.22 4.15.65 1.34-.98-1.08-2.57 1.49-2.62 11.92-.24 23.56 2.81 10.96-2.32" filter="url(#a)"/><path d="m-52.99-59.4 63.2 5.32 4.27-2.45-9.68-1.1-11.01-.97-8.89-2.11-5.14-3.08-1.35-3.14 1.71-2.28 4.49-.9 7.56.61 10.35 1.89 11.41 2.63 9.72 2.57 6.17 1.78 2.94.81 1.16.03-1.85-1.05-11.66-3.07-30.27-1.95-50.9 16.25" filter="url(#a)"/><path d="m-49.36-63.42 45.88-2.75 3.88-2.1-3.25.38.31 1.61 6.15 1.79 9.13 1.19 7.82-.14 3.66-1.81-.96-3.07-4.07-3.15-4.86-1.85-3.65.3-1.5 2.14.49 2.64 1.85 1.51 2.85-.26 4.33-.57 6.57 1.96 5.01 2.79L4.87-83.79" filter="url(#a)"/><path d="m-19.73-81.24-.46 8.56 14.3-1.83 5.16-1.9-3.99 1.08-8.52 3.6-7.82 4.18-3.58 2.78.76.5 2.04-1.28-.02-1.7-2.69-1.07-2.25-.67 2.99-1.55 11.18-3.04 18.15-2.56 21.11 1.77 18.17 6.82" filter="url(#a)"/><path d="M65.5-41.64 30.4-63.75l-19.14-4.22-11.83-1.04-2.32.21 4.65 1.87 6.5 2.53 3.68 1.29-1.1-1.08-4.16-3.03-3.18-3.39 1.25-1.96 6.61.95 10.17 4.41 7.6 5.92-11.5 1.08-61.15-8.6" filter="url(#a)"/><path d="M66.84-38.5 13.47-49l-4.53-9.52-4.39-7.29-6.79-3.66-3.07-.74 4.18 1.14 10.4 2.29 13.03 2.87 12.09 2.99 8.95 2.65 4.97 1.81.8.44-3.19-1.31-6.44-2.89-7.95-3.66-6.91-3.38-3.77-2.52-.68-2.12-.06-2.79-1.06-3.28 2.47-.53 17.86 6.95" filter="url(#a)"/><path d="m16.94-82.11-2.39 11.62L2.4-67.51l-.18.35 3.53-.14 1.14.14-1.35.62-1.48.71.49.23 3.01-.68 4.63-1.52 5.08-1.55 5.5-.11 6.8 2.82 7.73 5.75 4.77 6-3.57 1.74-7.48-3.24 31.64 10.08" filter="url(#a)"/><path d="m32.22-76.12-57.04 14.28h-12.11l9.73-3.39 18.44-2.15 17.56-.47 10.74.09 2.28-.39-4.36-1.12-7.68-1.32-7.96-.52-6.17 1.09-3.19 2.7.38 3.32 3.67 2.62 5.31 1.58 3.35 1.65-5.35 2.17-21.77-2.13-16.87-13.86" filter="url(#a)"/><path d="m18.91-81.45 15.6 11.96 5.67 6.14-5.41-1.47-9.6-3.74-7.02-2.82-1.4-.9 3.08.68 4.23 1.45 2.39 1.58-.81 1.48-3.74 1.4-5.57 1.12-6.11.27-5.68-1.08-4.88-2.27-4.47-2.45-3.87-1.78.81-1.72L4.7-77.2l12.24-4.91" filter="url(#a)"/><path d="m-32.69-75.61 16.24 8.08 19.18.7 5.19-2.72-.84-1.77-2.41-.29-3.85.03-5.22-.5-5.02-1.03-2.87-1.11.19-.72 2.6-.14 3.48.29 3.1.47 2.69.56 3.31.83 4.8 1.41 5.54 1.93 3.66 1.83-.26 1.05-1.77.65 4.24 1.94 11.65 1.82-14-19.81" filter="url(#a)"/><path d="m-30.94-76.8 16-.61-1.75 1.63-.5 1.16 2.22.45 3.7-.35 4.56-.85 5.68-.64 7.21.28 8.54 1.54 8.78 2.58 7.22 3.05 3.66 2.83-1.55 2.01-7.65.78-13.24-.56-16.39-1.7-15.38-2.39-9.97-2.67-2.48-2.76 3.16-2.61 2.76-1.22-12.46 4.88" filter="url(#a)"/><path d="m-27.03-78.32 4.24 9.48 16.06 2.47 9.01 2.12L6.02-62l3.44 2.36 5.72 2.18 6.81 1.07 5.27-.78 2.48-2.33.76-2.56 1.11-1.39 2.48.17 2.3.56-1.78-1.12-9.52-3.73-16.34-4.34-11.86-2.15 27.42-5.52" filter="url(#a)"/><path d="m39.41-71.56-13.76 8.03L9.8-65.3l.07-3.49 6.74-1.75 5.97.42 3.29 2.03 1.97 3.01 2.39 3.38 3 3.06 2.25 2.02-.21.46-3.33-1.2-5.51-2.53-5.74-3.35-4.09-3.65-1.62-3.42.49-2.65 1.67-1.23 2.33.85 2.81 3.26.34 5-15.87 4.83-65.12 6.88" filter="url(#a)"/><path d="m-16.54-82.17 27.32 14.95-3.48-.34-1.81-1.22-2.65-.43-5.95-.14-7.17.01-5.1.26-1.03.47 3.14.38 6.03-.08 6.98-.82 6.01-1.51 3.78-1.79 1.43-1.44.18-.43.9 1.04 3.47 2.63 6.62 3.89 8.25 4.45 6.05 3.92-1.86 2.01L18.59-58l-31.23-7.16-20.05-10.45" filter="url(#a)"/><path d="m-45.5-66.93 31.5-2.39-1.74 1.55 1.67.39 5.79-1.31 5.69-1.92 4.19-1.58 3.27-.75 2.7.17 1.5.94-.49 1.38-2.38 1.46-3 1.28-1.83.96.73.59 3.71.19 6.17-.1 7.37-.1 6.57.13 3.32-.01-1.37-.99-2.42-1.33 8.81 3.63 28.4 18.43" filter="url(#a)"/><path d="m44.8-67.55 5.62 8.61-3.71-1.93-4.88-3.15-3.98-2.51-1.68-.72 1.08 1.54 2.82 2.94 2.31 2.69-.48 1.02-4.34-.97-7.74-2.33-9.8-2.82L9.68-67.8.71-69.53l-3.64.35 7.81 3.27 18.92 2.44-4.89-17.98" filter="url(#a)"/><path d="m-49.08-63.55 14.63-3.87 16.11-3.13 14.23-.43 13.04.77 8.18.1 1.49-1.46-3.04-2.58-4.27-2.63-4.27-1.91-5.3-1.03-6.91-.29-5.84.23 1.18.35 14.16-.02 25.46 2.08" filter="url(#a)"/><path d="m26.09-78.89 5.31 9.32-2.08 4-1.67 1.76-3.12.78-2.48 1.41.08 1.85 1.09.89-1.3-1.01-5.14-2.62-6.6-3.19-3.68-2.85 1.34-2.07 3.12-1.13H8.65L-3.3-70.73l-11.47.11 28.45-12.13" filter="url(#a)"/><path d="M11.37-83.04 4.95-70.06l6.26 6.22-5.23-.96-7.2-3.24-1.43-2.79 4.66-1.27 7.49.4 7.12 1.63 4.95 2.17 2.06 1.93-1.04 1.19-4.32.37-8.05.02-12.12.21-14.81.31-12.26-.87-1.67-4.2 11.78-8.33 9.12-6.3" filter="url(#a)"/><path d="m60.13-50.26-6.57-3.45-14.18-5.88-8.65-4.89.65-1.14 5.96 2.12 6.26 3.14 3.44 2.03-.67-.11-5.08-2.11-9.24-3.25-12.2-3.19-12.62-2.19-9.52-1.02-3.9-.74.83-1.81 1.45-3.68 2.14-4.61 13.14-2" filter="url(#a)"/><path d="m-12.39-82.79 1.16-.21 1.38-.13 1.31-.1 1.2-.03 1.16.02 1.16.08 1.17.16 1.17.24 1.12.33 1.06.4 1 .47.96.49.93.48.95.47 1.05.41 1.37.3 2.25.17m-39.57 17.06.73-.7.49-.82.52-1.14.54-1.24.54-1.23.52-1.24.54-1.26.56-1.32.6-1.38.67-1.41.77-1.37.88-1.23 1.02-1 1.13-.69 1.23-.37 1.3-.13 1.32-.06 1.29-.25 1.16-.67.89-1.18.42-1.28-.07-.41-5.18 1.52-1.88.42-1.39.46-1.32.48-1.29.48-1.21.45-1.15.39-1.11.32-1.09.27-1.09.23-1.08.24-1.09.27-1.1.32-1.11.37-1.13.45-1.13.53-1.14.62-1.12.7-1.06.75-1.01.73-.98.62-.94.43-.75.2-.29-.09M73.36-18.69l-.24-1.07-.24-1.28-.19-1.2-.14-1.2-.02-1.31.1-1.44.19-1.5.22-1.47.16-1.37.09-1.27.03-1.26.02-1.33.08-1.5.17-1.69.25-1.84.32-1.91.39-1.89.41-1.85.39-1.81.21-1.81-.04-1.82-.22-1.75-.29-1.06" filter="url(#a)"/><path d="m-38.85-67.73-.21.39-.79.41-.99.2-1.03.04-.99.04-.92.2-.83.41-.78.61-.8.7-.88.71-.97.68-1.04.71-1.06.91-1.06 1.16-.97 1.08-.82.08-10.28 13.85 1.98.14 1.94-.16 1.4-.65 1.27-.7 1.2-.63 1.04-.6.87-.62.75-.7.67-.78.66-.8.72-.74.86-.57 1.05-.37 1.25-.24 1.47-.15 1.77-.06h1.95l.83-.26m-25.88 16.06.2-2.06-.5-1.19-.84-1.46-1.06-1.85-.83-1.87-.33-1.67.05-1.51.19-1.52.15-1.63.11-1.76.16-1.79.28-1.75.37-1.67.41-1.58.43-1.5.46-1.4.54-1.33.61-1.28.56-1.36.32-1.63-.08-2.07-.32-2.32-.04-1.97.25-1.87" filter="url(#a)"/><path d="m-51.13-51.61-.94.52-1.08.54-.81.68-.71.72-.86.71-1.07.69-1.17.71-1.11.77-.94.86-.72.97-.55 1.03-.47 1.06-.45 1.02-.48.95-.5.87-.51.79-.59.73-.78.7-1.03.74-1.23.89-1.22 1.23-1.29 2.22-.7 2.89-.83 1.94-.55 1.42-.46.97-.53.9-.55 1.03-.49 1.16-.41 1.22-.35 1.26-.34 1.24-.36 1.22-.37 1.16-.37 1.12-.39 1.16-.43 1.26-.45 1.43-.33 1.93m152.3-4.55-.14-1.96-.15-1.01-.2-.92-.27-1.07-.32-1.18-.33-1.21-.33-1.19-.34-1.19-.36-1.2-.37-1.23-.39-1.23-.39-1.21-.38-1.13-.35-1.05-.31-.97-.34-.96-.42-1.04-.6-1.27-.75-1.51-.76-1.54-.41-.98m-2.36-4.61 1.22 1.26.6.91.65.9.74.96.83 1.07.92 1.16.94 1.16.94 1.08.91.95.9.84.95.78 1 .82 1.06.92 1.07 1.05 1.01 1.15.92 1.18.85 1.09.84 1.02.9 1.18.77 1.64m-22.26-50.8-.15 1.65.57 1.17.53 1.04.43 1.29.41 1.64.4 1.87.34 1.91.23 1.8.13 1.64.07 1.52.03 1.46v3.03l.01 1.58.03 1.57v1.51l-.03 1.51.27 1.45-24.13-26.4-.45-.66-.76-1.36-.63-1.8-.48-1.94-.35-1.97-.3-1.95-.33-1.84-.51-1.56-.82-1.09-1.19-.59-1.48-.26-1.56-.28-1.36-.67-.96-1.3-.6-1.98-.66-2.67-1.84-3.45 6.06 20.14-1.58-.46-1.66-.36-1.42-.39-1.17-.38-1.04-.3-1.02-.21-1.05-.14-1.09-.14-1.12-.17-1.14-.21-1.16-.24-1.17-.24-1.16-.23-1.14-.19-1.12-.13-1.11-.06-1.12-.01-1.13.04-1.11.08-1.09.14-1.09.21-1.18.25-1.37.33-1.83.44 27.68 1.78 1.7-.94 1.02.11 1.13-.21 1.42-.75 1.58-.93 1.5-.53 1.23.22.96.89.83 1.21.9 1.11 1.12.71 1.42.2 1.65-.22 1.76-.44 1.77-.47 1.72-.34 1.66-.1 1.58.18 1.46.5 1.34.67 1.37.51 1.69-.03 2.05-.52 1.56-.38-7.27-7.26-.61-.77-.86-.09-1.13-.17-1.27-.44-1.53-.21-1.95.51-2.32 1.29-2.49 1.75-2.44 1.7-2.17 1.3-1.84.77-1.51.29-1.23-.02-1.09-.13-1.07-.04-1.17.14-1.36.25-1.52.08-1.65-.3-1.62-.62-6.15-2.17-1.09-.64-1.16-.43-1.17-.4-1.16-.37-1.14-.28-1.11-.24-1.1-.25-1.12-.28-1.12-.33-1.12-.33-1.12-.31-1.12-.25-1.12-.19-1.12-.16-1.09-.17-1.06-.23-1.04-.29-1.05-.33-1.1-.36-1.19-.33-1.28-.28-1.28-.17-1.34-.06 17.4 4.67 1.58.23 1.01.24 1.06.39 1.14.52 1.14.58 1.14.55 1.12.48 1.09.39 1.06.34 1.02.36.99.42.97.51 1.02.61 1.08.66 1.14.69 1.15.68 1.08.66.93.65.79.64.7.6.74.57 1.18.98" filter="url(#a)"/><path d="m4.87-83.79 2.04.57.95.74.91.91 1 1 1 1.01.98.94.98.78 1.02.58 1.08.38 1.11.26 1.13.18 1.12.18 1.07.25.98.41.88.64.78.9.72 1.08.76 1.1.9.98 1.07.78 1.14.68 1.01.75.61.97-.06 1.44M74.1-13.33l.72 2.74.87 2.21 1.23 2.21 1.26 2.38 1.16 2.56 1.19 2.67 1.43 2.73 1.8 2.75 2.2 2.74 2.53 2.69 2.68 2.61 2.56 2.52 2.22 2.43 1.86 2.34 1.65 2.3 1.71 2.27 1.88 2.3 1.88 2.34 1.48 2.39.64 2.43-.38 2.39-1.24 2.31-1.63 2.2-1.44 2.11-.49 2.01 1.86 1.58" filter="url(#a)"/><path d="m-.33-84.12 1.52.01 1.86.11 2.27.21 2.52.27 2.58.33 2.55.38 2.49.44 2.47.52 2.48.62 2.52.71 2.57.82 2.62.91 2.65.99 2.64 1.06 2.56 1.11 2.45 1.17 2.29 1.21 2.16 1.26 2.09 1.31 2.13 1.36 2.25 1.42 2.41 1.49 2.57 1.55 2.65 1.59 2.61 1.6 2.48 1.57 2.44 1.67 3.46 2.58" filter="url(#a)"/><path d="m-.33-84.12 1.47.01 1.77.11 2.17.21 2.39.27 2.4.33 2.31.37 2.22.44 2.19.51 2.19.61 2.24.7 2.3.81 2.32.91 2.33.98 2.28 1.06 2.2 1.11 2.12 1.15 2.04 1.21 1.97 1.24 1.93 1.3 1.89 1.35 1.86 1.41 1.85 1.47 1.87 1.58 1.85 1.67 1.79 1.74 1.75 1.84" filter="url(#a)"/><path d="m-1.32-83.96 1.94-.15 2.73.06 2.74.17 2.86.23 3.2.29 3.56.36 3.8.45 3.88.53 3.88.61 3.81.66 3.68.71 3.46.76 3.25.82 3.2.88 3.47.94 4.22 1 5.44 1.09 6.88 1.16 7.88 1.25 7.7 1.34 6.52 1.5 7.02 1.75" filter="url(#a)"/><path d="m-4.15-83.93 2.99-.12 2.24-.01 2.41.11 2.98.19 3.42.26 3.47.32 3.25.38 3.03.44 2.98.52 3.14.61 3.36.72 3.52.81 3.53.9 3.44.99 3.38 1.06 3.49 1.11 3.84 1.16 4.35 1.21 4.85 1.26 5.17 1.31 5.26 1.37 5.22 1.42 5.19 1.49 5.14 1.55 4.96 1.6 4.7 1.59 4.99 1.57 6.51 1.68 7.59 2.58" filter="url(#a)"/><path d="m-4.35-83.93 2.44-.09 2.49-.04 2.58.07 2.42.15 2.21.24 2.17.3 2.27.39 2.47.47 2.72.55 2.94.62 3.12.68 3.17.75 3.12.8 2.97.86 2.81.93 2.7 1 2.74 1.07 2.93 1.15 3.28 1.23 3.7 1.29 4.08 1.36 4.31 1.43 4.3 1.48 4.04 1.53 3.61 1.58 3.18 1.65 2.93 1.72 2.96 1.8 3.28 1.87 3.7 1.91 3.91 1.9 3.71 1.85 3.33 1.86 3.67 2.02 5.92 2.4" filter="url(#a)"/><path d="m-5.98-83.74 2.22-.17 2.24-.1 2-.01 1.93.09 2.04.18 2.11.24 2.09.31 1.95.36 1.78.42 1.68.5 1.65.58 1.66.69 1.7.78 1.69.88 1.6.97 1.5 1.05 1.38 1.09 1.34 1.14 1.35 1.17 1.32 1.24 1.14 1.3.81 1.33.61 1.18.91.72" filter="url(#a)"/><path d="m-9.74-83.57 2.08-.21 2.55-.13 2.63-.08L.17-84l2.74.05 2.83.13 2.93.21 3.04.28 3.2.36 3.42.44 3.74.51 4.09.59 4.39.65 4.58.71 4.63.77 4.65.81 4.84.88 5.3.94 6 1.01 6.64 1.08 6.87 1.17 6.56 1.25 5.95 1.35 5.62 1.51 5.48 1.75" filter="url(#a)"/><path d="m-9.74-83.57 2.38-.21 2.52-.13 2.45-.08L.03-84l2.45.06 2.5.13 2.58.21 2.73.29 2.92.36 3.11.45 3.26.52 3.33.59 3.28.66 3.18.71 3.13.77 3.19.83 3.38.89 3.6.95 3.75 1.03 3.79 1.1 3.8 1.18 3.95 1.26 4.35 1.34 4.86 1.41 4.97 1.47 4.51 1.55 4.52 2.01" filter="url(#a)"/><path d="m-9.74-83.57 2.09-.21 2.62-.13 2.74-.08 2.92-.02 3.04.06 2.93.13 2.7.21 2.56.27 2.68.36 3.05.43 3.53.52 3.97.58 4.25.65 4.34.7 4.28.76 4.15.82 4.08.87 4.22.93 4.7.99 5.57 1.08 6.66 1.16 7.36 1.23 6.64 1.27 4.36 1.57" filter="url(#a)"/><path d="m-11.45-83.19 2.84-.39 2.38-.19 2.3-.12 2.3-.07 2.32-.01 2.42.08 2.57.15 2.75.22 2.94.29 3.13.34 3.32.41 3.49.47 3.65.55 3.82.65 4 .75 4.17.86 4.32.97 4.34 1.05 4.27 1.09 4.13 1.1 4.1 1.1 4.16 1.17m11.67 56.27 2.44 3.22 5.97 3.17 4.59 2.92 1.62 2.67.11 2.51.18 2.45.65 2.45.75 2.52.43 2.6.04 2.68-.01 2.73.43 2.74 1.29 2.72 2.27 2.65 3.02 2.56 3.22 2.49 2.71 2.41 1.58 2.37.16 2.33-1.14 2.3-1.99 2.28-2.22 2.25-1.87 2.23L97 45.01l-.41 2.19.22 2.16.57 2.11.6 2.02.34 1.91-.03 1.81-.38 1.74-.53 1.72-.46 1.74-.5 1.82-1.39 1.89-3.61 2.01" filter="url(#a)"/><path d="m73.94-16.45 19.07 3.18-.45 3.14-1.67 2.89-.61 2.64-.24 2.48-.39 2.4-.55 2.39-.4 2.46.2 2.54 1.14 2.63 2.22 2.72 3.1 2.76 3.58 2.75 3.6 2.68 3.19 2.56 2.49 2.43 1.65 2.33 1 2.3.91 2.33 1.76 2.36 3.57 2.34 5.87 2.27 7.05 2.2 2.72 2M-12.39-82.79l2.46-.57 2.5-.31 2.5-.18 2.45-.1 2.43-.02 2.43.05 2.47.14 2.55.2 2.68.29 2.83.36 2.95.44 3 .52 3.01.6 3 .65 3.06.72 3.23.77 3.54.83 3.91.9 4.25.96 4.47 1.03 4.44 1.1 4.18 1.19 3.82 1.27 3.6 1.34 3.82 1.41 4.43 1.47 4.86 1.52 4.59 1.56 4.64 1.32" filter="url(#a)"/><path d="m-14.51-82.56 2.06-.36 2.24-.39 2.4-.3 2.5-.2 2.49-.11 2.46-.04 2.44.04 2.45.11 2.51.19 2.61.26 2.74.34 2.86.42 2.93.49 2.93.58 2.91.63 2.92.69 3.01.74 3.28.8 3.69.85 4.12.9 4.22.92 3.64.96 2.29 1.14" filter="url(#a)"/><path d="m-14.51-82.56 3-.36 2.94-.4 2.5-.3 2.2-.19 2.05-.1 1.97-.03 1.93.05 1.9.13 1.86.21 1.85.29 1.86.36 1.87.45 1.87.52 1.81.59 1.72.66 1.61.72 1.52.78 1.45.84 1.38.9 1.26.97 1.07 1.04.79 1.11.47 1.2.2 1.28.08 1.34.18 1.42.43 1.46.66 1.51.64 1.55.29 1.56-.06 1.64-.63 1.85" filter="url(#a)"/><path d="m-14.51-82.56 2.01-.36 2-.39 2.19-.3 2.48-.2 2.73-.12 2.91-.03 3.04.03 3.15.12 3.27.18 3.51.26 3.82.33 4.14.41 4.38.5 4.45.57 4.39.63 4.3.68 4.33.74 4.56.79 5.04.86 5.65.9 6.06.87 6.01.78" filter="url(#a)"/><path d="m-14.21-82.8.2.03 1.45-.24 2.25-.31 2.54-.26 2.58-.19 2.53-.11 2.46-.03 2.39.05 2.34.13 2.3.21 2.32.29 2.37.36 2.45.45 2.53.52 2.6.59 2.62.66 2.62.72 2.57.79 2.52.84 2.45.91 2.37.98 2.32 1.05 2.31 1.12 2.34 1.21 2.4 1.28 2.45 1.35 2.48 1.41 2.49 1.47 2.49 1.51 2.52 1.55 2.59 1.58 2.66 1.64 2.66 1.77 2.69 2.1 3.45 3.17" filter="url(#a)"/><path d="m-16.54-82.17 1.4-.37 1.59-.33 2.18-.32 2.42-.26 2.43-.21 2.38-.14 2.31-.08H.45l2.3.07 2.35.15 2.42.22 2.48.29 2.54.35 2.6.43 2.68.5 2.79.59 2.92.68 3.06.78 3.19.88 3.27.96 3.29 1.04 3.25 1.1 3.14 1.14 2.99 1.2 2.81 1.24 2.65 1.3 2.51 1.34 2.47 1.37 2.69 1.45 3.2 1.63 3.13 1.65" filter="url(#a)"/><path d="m-19.73-81.24 2.44-.72 1.61-.48 1.47-.38 1.88-.33 2.31-.27 2.56-.21 2.6-.16 2.55-.08 2.52-.02 2.55.06 2.68.14 2.9.2 3.13.27 3.38.34 3.6.39 3.79.47 3.96.55 4.11.64 4.22.75 4.31.86 4.32.96 4.24 1.05 3.92 1.1L54.7-75l3.1 1.1 4.5 1.18" filter="url(#a)"/><path d="m-19.69-81.04 2.18-.67 2.1-.53 2.06-.39 2.16-.34 2.22-.3 2.21-.25 2.15-.19 2.08-.11 2.03-.04 1.98.04 1.92.12 1.84.2 1.71.28 1.56.36 1.42.44 1.28.51 1.2.59 1.14.65 1.13.72 1.11.78 1.06.84.98.9.85.97.74 1.05.67 1.12.66 1.2.63 1.27.49 1.35.2 1.42-.25 1.47-.64 1.51-.81 1.54-.7 1.57-.55 1.57-.92 1.54-2.34 1.25" filter="url(#a)"/><path d="m-22.28-80.45-3.52-.76 3.33-.65 3.65-.51 2.98-.41 2.68-.33 2.68-.28 2.77-.22 2.82-.15 2.86-.09 2.93-.02 3.08.06 3.31.13 3.55.2 3.76.27 3.88.33 3.94.39 4.02.47 4.22.55 4.55.64 4.94.75 5.28.85 5.52.96 5.69 1.05 5.78 1.1 5.6 1.11 5.09 1.11 5.71 1.18" filter="url(#a)"/><path d="m-24.04-79.76.58-.71 1.5-.71 2.58-.62 2.78-.52 2.62-.42 2.44-.34 2.34-.29 2.31-.21 2.35-.15 2.4-.08 2.47-.01 2.56.06 2.64.14 2.72.21 2.78.28 2.85.35 2.93.42 3.04.5 3.17.58 3.3.68 3.38.78 3.42.87 3.39.95 3.35 1.04 3.34 1.09 3.39 1.15 3.53 1.2 3.69 1.25 3.72 1.29 3.54 1.34 3.24 1.38 3.31 1.46 4.12 1.62 4.78 1.66" filter="url(#a)"/><path d="m-26.63-78.77.54-1.08 2.77-.9 2.29-.74 1.68-.57 1.61-.46 1.94-.37 2.41-.32 2.83-.27 3.09-.2 3.23-.13 3.27-.06 3.25.02 3.22.09 3.22.17 3.24.24 3.35.32 3.54.4 3.82.49 4.18.55 4.5.63 4.77.68 4.94.74 5.1.79 5.37.86 5.74.92 5.77.88 4.63.78" filter="url(#a)"/><path d="m-26.63-78.77 3.56-1.07 2.95-.9 2.47-.74 2.17-.57 2.02-.46 1.99-.38 2.04-.32 2.09-.27 2.14-.21 2.15-.15 2.12-.07h2.06l1.98.08 1.89.14 1.81.22 1.76.29 1.79.37 1.9.46 2.01.56 1.99.65 1.79.74 1.35.82" filter="url(#a)"/><path d="m-27.03-78.32 2.34-1.14 2.05-.88 2.14-.75 2.22-.64 2.25-.52 2.27-.44 2.27-.36 2.29-.29 2.31-.22 2.31-.16 2.31-.1 2.32-.02 2.36.05 2.42.12 2.48.2 2.55.26 2.59.33 2.62.39 2.65.47 2.7.54 2.78.65 2.89.74 2.99.85 3.07.96 3.12 1.05 3.12 1.1 3.02 1.12 2.84 1.11 2.72 1.18" filter="url(#a)"/><path d="m-28.32-77.88 1.96-.95 2.62-.98 2.49-.87 2.15-.73 1.91-.59 1.9-.48 2.06-.39 2.27-.32 2.45-.26 2.58-.19 2.62-.12 2.63-.05 2.61.03 2.62.11 2.67.19 2.74.26 2.83.35 2.91.42 2.92.5 2.88.57 2.76.65 2.65.7 2.57.77 2.56.83 2.64.89 2.77.95 2.9 1.03 3.02 1.11 3.12 1.19L49.73-72l3.38 1.35 3.5 1.42 3.6 1.47 3.65 1.53 3.72 1.57 3.02 1.33" filter="url(#a)"/><path d="m-30.94-76.8 2.29-1.01 2.45-.99 2.46-.95 2.3-.86 2.11-.73 2.03-.6 2.06-.49 2.19-.4 2.34-.33 2.46-.26 2.55-.2 2.58-.12 2.59-.05 2.57.02 2.56.1 2.56.19 2.57.26 2.6.34 2.64.42 2.67.49 2.7.57 2.69.64 2.68.7 2.68.76 2.66.83 2.67.88 2.7.96 2.75 1.02 2.85 1.1L45-73.33l3.1 1.27 3.11 1.35 2.98 1.41 2.73 1.48 2.65 1.56 3.7 2.03" filter="url(#a)"/><path d="m-32.69-75.61 1.27-.94 1.61-.94 1.69-.93 1.64-.9 1.65-.83 1.83-.75 2.08-.66 2.32-.55 2.48-.47 2.58-.38 2.62-.31 2.65-.24 2.69-.18 2.78-.11 2.92-.03 3.09.03 3.29.11 3.48.18 3.63.25 3.76.31 3.94.37 4.22.44 4.68.52 5.23.61 5.71.71 5.88.84 5.74.97 5.55 1.11 4.55 1.19" filter="url(#a)"/><path d="m-36.29-73.77 1.93-1.47 2.1-1.14 2.26-1 2.3-.95 2.31-.9 2.32-.83 2.3-.76 2.24-.67 2.19-.57 2.17-.48 2.17-.4 2.2-.33 2.25-.26 2.28-.2 2.28-.14 2.25-.08 2.22-.01 2.27.08 2.45.16 2.76.26 3.06.35 2.97.36" filter="url(#a)"/><path d="m-41.77-70.09-.74-1.08-2.29-1.34-.92-1.31.83-1.23 2.02-1.13 2.66-1.05 2.95-.98 3.09-.91 3.15-.84 3.17-.76 3.14-.67 3.05-.58 2.98-.49 2.93-.41 2.94-.34 3.01-.26 3.12-.19 3.22-.13 3.35-.05 3.47.01 3.63.09 3.8.17 3.95.24 4.04.29 4.09.36 4.2.41 4.49.48 4.93.58 5.28.67 5.67.96" filter="url(#a)"/><path d="m-46.24-66.4 1.18-1.04 1.7-1.19 1.92-1.23 1.99-1.27 2-1.27 2.03-1.26 2.08-1.21 2.12-1.14 2.18-1.06 2.23-1 2.27-.92 2.28-.85 2.29-.77 2.25-.69 2.2-.59 2.15-.51 2.13-.43 2.12-.34 2.11-.27 2.12-.21 2.1-.13 2.08-.07 2.07.01 2.06.09 2.09.16 2.11.23 2.1.29 2.04.34 1.95.4 1.89.48 1.82.54 1.32.4" filter="url(#a)"/><path d="m-49.36-63.42 1.29-1.83 1.54-1.5 1.1-1.33.79-1.26.75-1.26.78-1.26.76-1.24.75-1.17.9-1.11 1.31-1.05 1.88-1 2.42-.96 2.79-.9 2.88-.85 2.77-.76 2.62-.67 2.55-.58 2.64-.48 2.89-.39 3.17-.33 3.44-.26 3.6-.19 3.7-.12 3.79-.05 3.87.04 3.88.12 3.71.18 3.43.23 4.34.33m-76.89 26.64-1.76 1.65-1.91 2.05-1.76 2.27-1.7 2.27-1.69 2.18-1.67 2.09-1.69 2.01-1.81 1.98-2 2.01-2.15 2.08-2.16 2.18-2.04 2.29-1.88 2.39-1.75 2.45-1.73 2.49-1.76 2.51-1.79 2.51-1.81 2.53-1.84 2.57-1.88 2.6-1.94 2.56-2.1 2.46-2.6 2.4m42.85-51.58-1.78 2.13-1.25 1.77-1.31 2.01-1.32 2.12-1.26 2.14-1.18 2.13-1.12 2.16-1.09 2.23-1.05 2.3-1.02 2.36-.97 2.4-.92 2.41-.86 2.4-.81 2.39-.76 2.38-.69 2.39-.64 2.4-.56 2.42-.47 2.45-.39 2.48-.31 2.54-.24 2.59-.19 2.63-.14 2.65-.11 2.63-.06 2.56.01 2.45.11 2.34.21 2.28.27 2.36.27 2.6.21 3.12" filter="url(#a)"/><path d="m-57.29-54.84-1.7 2.06-1.8 2.45-1.86 2.36-1.7 2.22-1.36 2.1-1.06 2.04-.91 2.02-.95 2.08-1.1 2.15-1.29 2.26-1.44 2.34-1.53 2.43-1.55 2.49-1.54 2.52-1.52 2.54-1.5 2.56-1.51 2.57-1.49 2.56-1.44 2.57-1.32 2.57-1.13 2.58-.9 2.58-.65 2.58-.38 2.6-.13 2.59.09 2.59.24 2.57.31 2.57.22 2.56.08 2.56-.06 2.55-.05 2.55.06 2.54.22 2.52.36 2.58.8 2.96" filter="url(#a)"/><path d="m-59.04-52.33-.97.75-1.97 1.96-2.4 2.2-2.16 2.16-1.8 2.12-1.67 2.15-1.71 2.21-1.78 2.3-1.74 2.37-1.58 2.4-1.33 2.41-1.14 2.39-1.02 2.39-1.04 2.38-1.11 2.38-1.17 2.39-1.16 2.41-1.05 2.44-.91 2.48-.75 2.53-.61 2.58-.51 2.64-.44 2.66-.44 2.64-.49 2.57-.65 2.44-.8 2.29-.84 2.21-.6 2.24-.34 2.31" filter="url(#a)"/><path d="m-58.37-53.37-2.14 3.04-1.87 2.44-2.17 2.19-3 2.06-3.87 1.98-4.15 1.96-3.58 2.01-2.42 2.1-1.19 2.21-.41 2.32-.32 2.41-.78 2.46-1.51 2.5-2.18 2.52-2.62 2.53-2.85 2.54-2.99 2.55-3.19 2.54-3.42 2.51-3.55 2.5-3.55 2.52-3.52 2.64-3.47 2.8-2.53 2.79.78 2.14M72.78-21.2l.54 2.43.55 2.55.69 2.58.82 2.49.87 2.4.83 2.4.7 2.45.49 2.55.25 2.64v2.7l-.17 2.73-.28 2.73-.32 2.69-.31 2.62-.29 2.54-.29 2.45-.33 2.37-.4 2.31-.5 2.3-.6 2.31-.71 2.35-.81 2.4-.91 2.42-.96 2.41-1 2.32-.94 2.21-.81 2.12-.69 2.02-.87 1.59" filter="url(#a)"/><path d="m-60.92-49.58-5.45 2.52-8.21 2.08-7.89 2.04-5.63 2.09-3.5 2.2-2.29 2.33-1.52 2.4-.64 2.43.32 2.42 1 2.41 1.05 2.39.46 2.38-.57 2.4-1.74 2.4-2.79 2.43-3.59 2.46-4.14 2.5-4.45 2.54-4.54 2.59-4.38 2.62-3.94 2.61-3.23 2.59-2.27 2.54-1.28 2.46-.6 2.41-.61 2.37-1.47 2.38-2.97 2.43-4.34 2.51-4.74 2.61-3.61 2.79-.97 3.13 3.46 3.85" filter="url(#a)"/><path d="m-60.92-49.58-2.05 2.51-2.77 2.07-3.17 2.02-2.64 2.07-1.82 2.19-1.13 2.31-.66 2.4-.42 2.42-.39 2.41-.56 2.38-.86 2.38-1.15 2.37-1.36 2.38-1.41 2.38-1.36 2.41-1.2 2.42-1.06 2.48-.96 2.52-.97 2.58-1.1 2.64-1.26 2.65-1.37 2.64-1.37 2.57-1.3 2.43-1.24 2.28-1.11 2.21-.88 2.23-.22 2.3m35.79-66.65.14 2.52.28 2.1-.27 2.04-.38 2.1-.48 2.22-.78 2.33-1.17 2.41-1.42 2.44-1.45 2.42-1.24 2.41-.88 2.4-.48 2.4-.11 2.41.14 2.42.29 2.44.37 2.47.44 2.52.54 2.55.72 2.59.93 2.6L-64.6.82l1.29 2.58 1.34 2.53 1.27 2.48 1.12 2.44.94 2.43.8 2.43.82 2.49 1.01 2.55 1.35 2.63 1.76 2.69 2.13 2.7 2.33 2.63 2.39 2.46 2.25 2.27 1.94 2.21 1.39 2.4" filter="url(#a)"/><path d="m-62.16-47.58-1.61 2.15-1.08 2.08-1.11 1.96-1.36 1.95-1.58 2.03-1.72 2.14-1.81 2.27-1.86 2.38-1.86 2.46-1.79 2.51-1.68 2.53-1.6 2.56-1.57 2.56-1.62 2.56-1.64 2.57-1.58 2.57-1.39 2.57-1.09 2.58-.74 2.58-.44 2.59-.18 2.59-.01 2.59.11 2.58.15 2.58.11 2.57-.02 2.56-.26 2.55-.48 2.53-.63 2.52-.56 2.48-.31 2.4.06 2.26.4 2.08.52 1.88.31 1.94.06 2.73" filter="url(#a)"/><path d="m-62.67-46.34-6.11 1.48-1.98 1.92-.66 2.01-.75 2.14-1.29 2.3-1.73 2.4-1.85 2.42-1.71 2.4-1.45 2.36-1.28 2.34-1.23 2.34-1.3 2.35-1.41 2.36-1.59 2.35-1.85 2.38-2.12 2.41-2.26 2.49-2.18 2.55-2.05 2.6-2.12 2.65-2.17 2.81-1.53 2.79" filter="url(#a)"/><path d="m-64.84-42.76-2.92 2.11-1.62 1.98-1.63 2.36-2.52 2.51-4.02 2.48-5.44 2.43-6.01 2.38-5.41 2.36-3.99 2.36-2.42 2.38-1.32 2.39-1.04 2.41-1.58 2.43-2.7 2.49-3.92 2.53-4.75 2.58-4.83 2.62-4.06 2.63-2.8 2.6-1.54 2.53-.74 2.44-.51 2.36-.62 2.32-.87 2.34-1.39 2.41-2.45 2.45-3.74 2.5-4.51 3.06" filter="url(#a)"/><path d="m-64.84-42.76-2.23 2.12-1.61 2.02-.88 2.39-.7 2.52-.84 2.5-1.02 2.44-1.16 2.4-1.16 2.39-1.04 2.39-.81 2.4-.56 2.42-.35 2.44-.21 2.48-.19 2.52-.24 2.55-.33 2.6-.39 2.61-.4 2.6-.32 2.57-.17 2.53-.02 2.48.12 2.45.17 2.44.16 2.46.09 2.49.03 2.56.01 2.61.1 2.64.27 2.63.48 2.58.7 2.49.89 2.4 1.03 2.35 1.14 2.37 1.11 2.38.87 2.14.47 1.17" filter="url(#a)"/><path d="m-65.38-41.66-1.21 2.21-1.19 2.04-1.15 2.15-1.19 2.3-1.22 2.43-1.33 2.51-1.49 2.54-1.64 2.55-1.67 2.56-1.54 2.56-1.25 2.57-.88 2.57-.49 2.57-.17 2.56.02 2.58.09 2.58.04 2.58-.08 2.59-.24 2.59-.41 2.58-.56 2.57-.65 2.57-.65 2.55-.54 2.54-.29 2.53.06 2.49.42 2.45.67 2.36.77 2.27.66 2.15.41 2.12.12 2.22.02 2.51.39 2.86 1.65 2.82" filter="url(#a)"/><path d="m-66.44-39.65-.37.89-1.07 2.43-1.09 2.64-1.04 2.53-1.12 2.43-1.27 2.38-1.38 2.37-1.3 2.37-1.07 2.39-.78 2.4-.55 2.43-.44 2.46-.49 2.5-.59 2.55-.66 2.59-.62 2.61-.47 2.61-.25 2.58-.02 2.52.15 2.46.23 2.42.22 2.39.16 2.42.11 2.46.11 2.54.21 2.63.38 2.71.6 2.74.77 2.66.73 2.43.41 2.14-.32 2.06" filter="url(#a)"/><path d="m-65.94-40.48-2.73 3.83-2.06 3.02-1.22 2.55-1.01 2.39-1.05 2.34-1.19 2.33-1.49 2.36-2.01 2.37-2.67 2.38-3.26 2.4-3.62 2.43-3.66 2.47-3.41 2.53-2.95 2.58-2.32 2.62-1.62 2.63-.93 2.59-.37 2.52-.08 2.43-.15 2.35-.59 2.31-1.34 2.34-2.2 2.4-2.88 2.44-2.8 2.49-.04 3.06" filter="url(#a)"/><path d="m-69.1-32.88-2.19 2.47-4.45 2.58-4.77 2.56-3.99 2.53-2.51 2.52-.8 2.52.42 2.55.61 2.54-.26 2.54-1.74 2.53-3.13 2.53-3.81 2.55L-99.24.1l-2.43 2.57-1.1 2.57-.09 2.55.28 2.55.09 2.53-.3 2.53-.59 2.51-.71 2.52-.89 2.53-1.51 2.5-2.82 2.39-3.84 2.17m43.09-60.52-.35 2.8-.3 2.61-.67 2.56-.7 2.55-.48 2.56-.16 2.58.13 2.58.29 2.57.37 2.57.38 2.57.4 2.59.46 2.59.62 2.59.85 2.59 1.11 2.59 1.39 2.57 1.58 2.56 1.64 2.55 1.53 2.53 1.3 2.5 1 2.47.74 2.41.65 2.35.75 2.3 1.03 2.27 1.38 2.26 1.76 2.27 2.03 2.31 2.18 2.31 2.16 2.28 1.95 2.21 1.61 2.15 1.29 2.14L-40.9 53l1.62 2.18 2.18 2.01 1.67 1.15" filter="url(#a)"/><path d="m-71.33-27.35 3.24 2.38 2.33 2.52-.7 2.53-1.97 2.56-1.72 2.57-.83 2.59.12 2.57.83 2.56 1.17 2.57 1.14 2.58.85 2.6.46 2.59.17 2.59.11 2.58.32 2.58.76 2.56 1.3 2.54 1.77 2.53 2.08 2.5 2.15 2.46 2.02 2.41 1.76 2.35 1.53 2.3 1.45 2.26 1.54 2.25 1.78 2.28 1.97 2.3 1.97 2.31 1.73 2.28 1.42 2.21 1.35 2.15 1.72 2.13 2.46 2.17 3.01 2.18 2.62 2.01.77 1.14M72.34-23.67l.46 1.4 1.17 2.26 1.38 2.32 1.11 2.36 1.02 2.49 1.46 2.6 2.23 2.63 2.86 2.6 2.96 2.54L89.41.02l1.46 2.49.48 2.51-.23 2.57-.53 2.64-.48 2.71-.2 2.74.13 2.73.45 2.67.7 2.58.9 2.48 1.08 2.39 1.26 2.35 1.35 2.34 1.23 2.33.77 2.3.09 2.23-.53 2.1-.77 2.01-.87 2.19-1.33 3.38" filter="url(#a)"/><path d="m71.22-27.3 3.61 3.47 5 2.61 4.9 2.46 3.24 2.49.93 2.5-.55 2.47-.68 2.44.09 2.44 1 2.49 1.46 2.56 1.34 2.64.85 2.69.37 2.72.25 2.72.64 2.69 1.47 2.62 2.54 2.55 3.45 2.46 3.88 2.4 3.6 2.34 2.63 2.33 1.28 2.33.05 2.36-.58 2.39-.36 2.4.5 2.38 1.52 2.31 2.15 2.21 2.11 2.11 1.42 2.03.15 2.01-1.7 2.2-2.85 3.01M71.22-27.3l-1.24 3.46-.38 2.6-.36 2.46-.36 2.48-.48 2.49-.82 2.46-1.19 2.43-1.31 2.43-1.15 2.48-.84 2.55-.64 2.62-.69 2.69-.97 2.72-1.3 2.73-1.51 2.69-1.47 2.63-1.22 2.54-.9 2.46-.68 2.38-.67 2.32-.88 2.3-1.24 2.31-1.65 2.35-1.97 2.4-2.17 2.45-2.27 2.44-2.28 2.33-2.24 2.2-2.43 2.19L33 47.83" filter="url(#a)"/><path d="m70.31-30.11.94 1.28 2.18 2.21 1.86 2.51 1.46 2.52 1.77 2.5 2.65 2.48 3.59 2.47 4.12 2.44 4.1 2.41 3.64 2.41 3 2.44 2.35 2.5L103.7.65l1.01 2.67.15 2.72-.67 2.74-1.12 2.73-.83 2.69.24 2.58 1.52 2.45 2.13 2.3 1.71 2.26 1.1 2.45 1.28 2.94" filter="url(#a)"/><path d="m69.12-33.49 6.45 1.21 4.15 2.25.16 2.53-.25 2.48.96 2.41 2.12 2.37 2.65 2.37 2.7 2.42 2.55 2.5 2.37 2.55 2.1 2.58 1.64 2.58 1.02 2.55.31 2.52-.25 2.53-.57 2.54-.6 2.59-.38 2.65-.03 2.7.38 2.73.79 2.72 1.15 2.67 1.45 2.59 1.62 2.5 1.61 2.43 1.35 2.37.88 2.35.31 2.33-.09 2.3-.08 2.24.41 2.15 1 2.12 1.1 2.23.37 2.5-1.85 2.38" filter="url(#a)"/><path d="M69.12-33.49 73-32.3l4.47 2.22 4.12 2.5 4.86 2.47 5.19 2.39 4.3 2.33 2.62 2.34 1.18 2.38.73 2.46 1.38 2.53 2.75 2.58 4.28 2.57L114.34-3l5.98 2.48 5.74 2.46 4.9 2.46 3.76 2.53 2.76 2.6 2.18 2.7 1.94 2.8 1.65 2.86 1.13 2.84.57 2.68.43 2.33.97 1.96 1.88 1.88" filter="url(#a)"/><path d="m66.84-38.5 4.24 2.86 1.62 2.66 1.53 2.21 2.19 2.1 3.1 2.19 3.67 2.32 3.49 2.42 2.57 2.47 1.43 2.48.63 2.47.53 2.45 1.2 2.44 2.42 2.44 3.83 2.47 5.01 2.53 5.63 2.6 5.54 2.67L120.34 6l3.98 2.74 3.25 2.73 2.82 2.68 2.59 2.59 2.26 2.47 1.78 2.35 1.38 2.28 1.4 2.25 1.82 2.12 4.96 1.25" filter="url(#a)"/><path d="m65.5-41.64 4.35 2.94 1.62 2.88 2.57 2.58 3.73 2.28 3.71 2.18 2.65 2.22 1.49 2.32.99 2.4 1.29 2.45 1.99 2.47 2.57 2.47L95.28-12l2.77 2.44 2.69 2.43 2.76 2.45 3.01 2.52 3.22 2.59 3.15 2.67 2.72 2.72 2.12 2.76 1.76 2.75 2 2.72 2.84 2.62 3.83 2.46 4.36 2.25 4.61 2.12 5.07 2.21M65.77-40.58l.74 1.61.87 1.9.92 2.12.89 2.25.84 2.35.79 2.4.72 2.41.65 2.37.57 2.33.5 2.32.43 2.35.36 2.43.31 2.51.25 2.58.21 2.6.15 2.54.1 2.43.04 2.35-.02 2.33L75 6.06l-.19 2.75-.27 2.79" filter="url(#a)"/><path d="m64.48-43.11 1.58 1.97 1.31 2.56 1.5 2.68 1.49 2.52 1.23 2.34.89 2.25.63 2.27.49 2.34.46 2.4.5 2.46.52 2.47.54 2.48.5 2.46.43 2.46.34 2.47.26 2.49.19 2.55.15 2.61.14 2.67.12 2.71.08 2.74v2.71l-.1 2.67-.19 2.59-.26 2.48-.29 2.38-.28 2.3-.29 2.25-.33 2.21-.41 2.2-.52 2.24-.57 2.21M63.51-45.15l6.57 1.92 4.64 2.19 2.45 2.49 3.34 2.57 4.98 2.47 5.65 2.35 5.2 2.28 4.2 2.29 3.03 2.35 1.83 2.4.67 2.45-.32 2.47-.88 2.47-.86 2.46-.3 2.46.58 2.46 1.5 2.5L108-2.03l2.62 2.61 2.75 2.67 2.74 2.72 2.72 2.74 2.85 2.72 3.21 2.68 3.67 2.6 3.92 2.48 3.54 2.38 2.38 2.29 1.13 2.25 1.11 2.2 3.01 2.15 6.2 2.63" filter="url(#a)"/><path d="m62.66-46.31 4.5 2.15 11.1 2.45 10.23 2.31 4.36 2.22-.94 2.24-3.01 2.3-2.09 2.36.38 2.4L90-25.47l4.2 2.4 4.29 2.39 3.39 2.4 2.13 2.42 1.12 2.48.65 2.53.77 2.56 1.28 2.56 1.94 2.54 2.53 2.51 3.03 2.5 3.46 2.51 3.84 2.55 4.04 2.62 3.86 2.71 3.13 2.8 1.96 2.83.86 2.81.48 2.66 1.12 2.41 2.24 2.19 3.16 2.23 3.27 2.77" filter="url(#a)"/><path d="m62.38-47.48 7.3 1.44L75.13-44l1.88 2.25 1.65 2.24 2.36 2.23 2.66 2.25 2.61 2.3 2.66 2.35 2.99 2.39 3.44 2.39 3.76 2.4 3.7 2.38 3.17 2.38 2.28 2.42 1.36 2.47.73 2.52.58 2.56.81 2.57 1.09 2.54 1.11 2.5.74 2.47.23 2.47-.05 2.52.18 2.59.85 2.7 1.69 2.82 2.52 2.97 3.4 3.07 4.73 2.92 7.29 2.31" filter="url(#a)"/><path d="m59.86-50.61 8.76 2.43 4.58 2.04.97 2.13-.71 2.22-.66 2.23.17 2.24.98 2.26 1.45 2.3 1.53 2.36 1.41 2.38 1.29 2.4 1.3 2.39 1.45 2.39 1.69 2.4L86-16.01l2.12 2.47 2.26 2.53 2.36 2.56 2.43 2.56 2.46 2.54 2.41 2.51 2.3 2.49 2.14 2.49 1.92 2.53 1.64 2.61 1.29 2.71.93 2.82.73 2.92.9 2.94 1.26 2.77.96 2.32-1.18 1.71" filter="url(#a)"/><path d="m59.86-50.61 1.93 2.44 1.23 2.05 1.24 2.14 1.34 2.22 1.35 2.24 1.27 2.25L69.4-35l1.08 2.32.99 2.36.94 2.39.89 2.4.84 2.41.79 2.4.7 2.42.59 2.44.48 2.49.38 2.53.31 2.55.3 2.56.31 2.55.33 2.52.34 2.53.29 2.53.2 2.58.06 2.64-.08 2.71-.22 2.77-.33 2.78-.41 2.75-.49 2.63-.56 2.48-.63 2.33-.69 2.3-.72 2.39-.82 2.61-1.12 3.13" filter="url(#a)"/><path d="m57.98-53.6 2.13 1.92 2.4 1.85 2.56 2 2.66 2.11 2.63 2.2 2.4 2.3 1.99 2.39 1.49 2.42 1.04 2.4.73 2.35.62 2.31.68 2.29.82 2.33 1.02 2.38 1.19 2.42 1.35 2.46L85.14-15l1.46 2.45 1.39 2.42 1.29 2.39 1.15 2.41 1.02 2.46.93 2.56.86 2.68.82 2.82 1.03 2.96 2.14 2.72" filter="url(#a)"/><path d="m57.98-53.6 2 1.93 2.18 1.88 1.73 2.02 1.33 2.12 1.25 2.23 1.34 2.32 1.43 2.41 1.41 2.43 1.35 2.4 1.33 2.37 1.46 2.34 1.7 2.34 1.98 2.36 2.22 2.4 2.35 2.43 2.38 2.46 2.36 2.47 2.36 2.47 2.4 2.46 2.45 2.47 2.4 2.49 2.13 2.54 1.62 2.61.95 2.67.32 2.72-.04 2.76-.03 2.76.31 2.71.75 2.63 1.1 2.49 1.2 2.35 1.1 2.3 1.01 2.47 1.03 2.97" filter="url(#a)"/><path d="m57.98-53.6 3.37 1.93 3.46 1.86 3.53 2.01 2.58 2.12 1.74 2.21 1.47 2.31 1.65 2.39 1.98 2.43 2.34 2.41 2.61 2.35 2.8 2.32 2.87 2.32 2.8 2.35 2.66 2.38 2.48 2.43 2.27 2.46 2.03 2.47 1.79 2.45 1.64 2.44 1.7 2.44 2.09 2.45 2.8 2.51 3.61 2.58 4.17 2.67 4.16 2.75 3.63 2.78 3.04 2.81 2.99 2.84 3.08 3 2.37 3.06" filter="url(#a)"/><path d="m53.93-58.6 3.74 3.1 2.93 2.03 2.4 1.82 2.78 1.86 3.86 1.98 4.96 2.09 5.5 2.2 5.31 2.3 4.46 2.37 3.23 2.4 1.93 2.39.83 2.37.17 2.33.02 2.34.37 2.35.99 2.39 1.7 2.43 2.32 2.46 2.8 2.47 3.12 2.46 3.28 2.44 3.26 2.45 3.08 2.46 2.8 2.51 2.61 2.59L125 2.66l2.91 2.75 3.44 2.79 4.22 2.81 5.03 2.85 5.04 3 2.97 3.07" filter="url(#a)"/><path d="m53.93-58.6 3.26 3.1 1.99 2.04 1.57 1.82 2.63 1.87 4.85 1.98 7.32 2.1 8.85 2.21 8.71 2.3 6.97 2.37 4.4 2.4 1.98 2.4.52 2.37.28 2.34.99 2.34 2.16 2.37 3.19 2.39 3.75 2.44 3.68 2.45 3.14 2.47 2.3 2.47 1.43 2.45.79 2.47.57 2.48.89 2.53 1.64 2.6 2.5 2.67 3.02 2.74 2.9 2.78 2.32 2.79 2.03 2.76 2.67 2.69 3.88 2.5 4.43 2.17 4.83 2.17" filter="url(#a)"/><path d="m51.4-61.59 5.84 1.86 8.93 2.01 6.87 2.05 3.18 1.96.94 1.92.63 1.93 1.16 2 1.59 2.09 1.6 2.19 1.43 2.28 1.39 2.35 1.72 2.38 2.37 2.38 3.16 2.37 3.87 2.34 4.24 2.34 4.16 2.36 3.6 2.39 2.72 2.43 1.79 2.46 1.22 2.47 1.25 2.46 1.97 2.45 3.09 2.44 4.14 2.45 4.68 2.5 4.52 2.59 3.83 2.68 3 2.76 2.21 2.79 1.26 2.77.2 2.8 2.62 3.37" filter="url(#a)"/><path d="m49.55-63.33 3.57 1.75 5.23 1.87 5.85 1.98 4.93 2 3.47 1.96 2.59 1.93 2.32 1.96 2.06 2.01 1.51 2.1.76 2.19.19 2.27.08 2.35.47 2.37 1.28 2.39 2.29 2.36 3.33 2.35 4.21 2.35 4.74 2.37 4.8 2.4 4.41 2.43 3.69 2.46 2.98 2.47 2.6 2.46 2.75 2.46 3.39 2.45 4.24 2.47 4.98 2.52 5.35 2.59 5.33 2.68 4.94 2.75 4.11 2.8 2.67 2.81 1.17 2.86 1.73 3.01 4.93 3.08" filter="url(#a)"/><path d="m48.53-64.23 2.23 1.18 1.56 1.57 1.53 1.8 1.57 1.92 1.55 1.97 1.5 1.95 1.4 1.94 1.32 1.96 1.26 2.01 1.23 2.09 1.24 2.19 1.27 2.26 1.29 2.34 1.3 2.37 1.28 2.38 1.21 2.36 1.11 2.35 1.02 2.34.92 2.37.85 2.39.79 2.43.74 2.46.67 2.47.55 2.46.42 2.45.32 2.43.27 2.45.27 2.49.28 2.58.26 2.69.15 2.78.03 2.82.02 2.64.3 2.16M48.16-64.92l2.41 1.46 4.85 1.55 6.4 1.6 5.87 1.72 4.17 1.82 2.78 1.9 2.24 1.94 2.4 1.97 2.83 2.01 3.25 2.04 3.45 2.09 3.35 2.12 2.92 2.16 2.3 2.17 1.76 2.19 1.67 2.22 2.19 2.29 3.1 2.38 3.68 2.43 3.5 2.37 3.59 2.24 7.07 2.76" filter="url(#a)"/><path d="m44.8-67.55 2.32 1.16 2.46 1.54 1.94 1.62 2.4 1.68 3.59 1.79 4.85 1.88 5.52 1.91 5.32 1.93 4.41 1.93 3.26 1.94 2.34 2 1.86 2.07 1.8 2.15 1.99 2.24 2.29 2.33 2.63 2.36 2.98 2.38 3.34 2.36 3.65 2.31 3.85 2.3 3.82 2.32 3.47 2.36 2.88 2.43 2.3 2.48 2.22 2.53 2.97 2.57 4.25 2.52 4.67 2.26 2.34 1.79" filter="url(#a)"/><path d="m42.47-69.42 5.29 1.52 1.63 1.47 2.11 1.53 3.48 1.59 4.61 1.68 4.88 1.77 4.23 1.85 3.19 1.89 2.35 1.91 2.02 1.91 2.18 1.93 2.59 1.96 3.18 2.03 3.97 2.12 4.97 2.22 6.02 2.32 6.78 2.4 6.86 2.41 6.04 2.36 4.48 2.25 2.82 2.18 1.91 2.26 2.38 2.42 4.04 2.45 6.45 2.3" filter="url(#a)"/><path d="m37.72-72.72 7.21 1.37 2.43 1.45 1.37 1.44 1.08 1.49 1.3 1.56 1.91 1.63 2.74 1.68 3.54 1.72 4.18 1.78 4.54 1.84 4.65 1.9 4.5 1.96 4.21 1.99 3.91 2.04 3.74 2.09 3.79 2.12 4.02 2.15 4.34 2.2 4.5 2.22 4.37 2.26 3.83 2.29 3.02 2.33 2.11 2.37 1.35 2.39 1 2.39 1.14 2.38 1.72 2.37 2.54 2.37 3.37 2.44 4.01 2.54 4.41 2.66 4.44 2.74 4.13 2.68 4.21 2.5 7.64 1.97" filter="url(#a)"/><path d="m37.72-72.72 3.25 1.37 4.43 1.45 4.14 1.43 3.08 1.49 2.09 1.57 1.61 1.62 1.59 1.68 1.82 1.72 2.12 1.78 2.35 1.83 2.51 1.9 2.63 1.95 2.82 2 3.21 2.04 3.84 2.07 4.62 2.12 5.35 2.16 5.79 2.19 5.74 2.22 5.22 2.25 4.39 2.29 3.6 2.33 3.18 2.37 3.32 2.39 3.92 2.39 4.56 2.38 4.78 2.35 4.42 2.36 3.82 2.41 3.67 2.53 4.28 2.71 4.97 2.8 4.29 2.76 1.39 3.06" filter="url(#a)"/><path d="m35.77-73.9 2.74 1.53 2.04 1.33 2.2 1.41 2.67 1.48 3.51 1.52 4.58 1.55 5.44 1.6 5.68 1.67 5.21 1.75 4.28 1.82 3.34 1.86 2.75 1.89 2.77 1.9 3.42 1.91 4.49 1.94 5.51 2 6.05 2.07 5.9 2.18 5.26 2.32 4.66 2.48 4.49 2.62 4.88 2.54 5.21 2.02.89 1.05" filter="url(#a)"/><path d="m35.58-74.06 4.58 1.29 1.82 1.38 2.16 1.4 3.16 1.41 4 1.47 4.37 1.54 4.16 1.59 3.54 1.64 2.8 1.68 2.22 1.74 1.99 1.79 2.02 1.86 2.21 1.92 2.4 1.95 2.64 1.99 3 2.04 3.58 2.08 4.3 2.13 5.12 2.17 5.91 2.17 6.53 2.16 6.52 2.11 4.83 2 .24 2.09" filter="url(#a)"/><path d="m35.58-74.06 2.41 1.29 1.94 1.37L41.8-70l1.97 1.41 2.16 1.47 2.33 1.53 2.4 1.59 2.37 1.63 2.26 1.68 2.14 1.73 2.04 1.79 1.94 1.85 1.84 1.91 1.74 1.95 1.63 1.99 1.57 2.02 1.59 2.08 1.78 2.13 2.07 2.17 2.32 2.18 2.32 2.18 2.03 2.14 1.18 1.43m-45.9-40.92.25 1.3 1.5 1.38 1.02 1.41.55 1.42.3 1.48.21 1.55.28 1.6.54 1.65.91 1.7 1.28 1.75 1.5 1.81 1.51 1.87 1.32 1.93.98 1.97.56 2.01.07 2.05-.48 2.09-1.1 2.13-1.75 2.17-2.36 2.18-2.97 2.2-3.58 2.23-4.13 2.3-4.23 2.42-3.37 2.51-1.46 2.31.58 1.26" filter="url(#a)"/><path d="m34.05-75.01 1.75 1.06 1.91 1.24 1.99 1.35 1.98 1.4 2 1.45 2.11 1.49 2.23 1.56 2.34 1.62 2.35 1.67L55-60.45l2.19 1.77 2.09 1.84 2.02 1.89 1.99 1.94 1.94 2 1.88 2.03 1.82 2.08 1.74 2.11 1.67 2.16 1.64 2.18 1.64 2.22 1.65 2.25 1.64 2.29 1.62 2.34 1.55 2.37 1.47 2.39 1.38 2.4 1.3 2.37 1.28 2.35 1.27 2.33 1.32 2.38 1.37 2.53 1.35 2.77 1.14 2.82.57 2.04M32.22-76.12l6.44 1.01 2.88 1.27 1.95 1.33 1.66 1.38 2.01 1.42 2.83 1.46 3.71 1.51 4.4 1.54 4.69 1.6 4.54 1.66 3.94 1.74 2.99 1.81 1.94 1.86 1.12 1.88.87 1.89 1.35 1.9 2.44 1.92 3.78 1.98 4.84 2.04 5.16 2.12 4.7 2.26 3.96 2.5 3.63 2.98 3.29 3.89" filter="url(#a)"/><path d="m31.16-76.78 1.69.75L34.46-75l2.02 1.21 2.31 1.31 2.46 1.38 2.52 1.43 2.63 1.48 2.85 1.53 3.14 1.57 3.46 1.62 3.8 1.69 4.15 1.76 4.5 1.82 4.74 1.86 4.75 1.9 4.45 1.92 3.86 1.95 3.17 1.99 2.7 2.05 2.7 2.13 3.22 2.22 4.05 2.32 4.88 2.4 5.45 2.41 5.75 2.37L124-30.4l6.21 2.22 6.24 2.27 5.93 2.43 5.9 2.47 5.01 2.32" filter="url(#a)"/><path d="m27.62-78.13 3.88 1.1 2.09.98 2.06 1.08 2.03 1.2 1.88 1.3 1.76 1.37 1.73 1.42 1.8 1.48 1.93 1.53 2.1 1.57 2.24 1.63 2.37 1.7 2.41 1.75 2.38 1.82 2.3 1.87 2.19 1.9 2.1 1.92 2.06 1.96 2.05 2 2.06 2.06 2.03 2.14 1.94 2.22 1.84 2.32 1.74 2.38 1.74 2.4 1.76 2.37 1.8 2.3 1.74 2.26 1.55 2.29 1.27 2.38.99 2.44.77 2.36.79 2.3" filter="url(#a)"/><path d="m27.62-78.13 2.6 1.1 1.63.99 1.21 1.08 1.13 1.21 1.37 1.3 1.73 1.38 2.02 1.43 2.15 1.49 2.09 1.53 1.94 1.59 1.72 1.64 1.51 1.7L50-59.92l1.07 1.83.87 1.87.67 1.91.51 1.93.37 1.98.26 2.02.18 2.09.15 2.16.18 2.23.26 2.31.36 2.35.42 2.38.38 2.36.19 2.34-.1 2.33-.44 2.34-.71 2.38-.85 2.44-.88 2.5-.83 2.55-.71 2.58-.54 2.54-.51 2.28-1 1.81" filter="url(#a)"/><path d="m16.94-82.11 2.07.8 1.93.74 2.11.87 2 .99 1.68 1.06 1.28 1.11.8 1.14.28 1.18-.19 1.21-.57 1.27-.75 1.33-.78 1.37-.69 1.44-.55 1.49-.37 1.54-.31 1.59-.53 1.63-1.07 1.68-1.67 1.75-1.94 1.84-2.01 1.88-2.81 1.81-4.08 1.78" filter="url(#a)"/><path d="m14.26-82.65 3.33.64 2.39.7 2.38.78 2.51.89 2.63.98 2.77 1.07 2.94 1.11 3.11 1.16 3.25 1.2 3.31 1.24 3.3 1.3 3.3 1.35 3.35 1.4 3.43 1.46 3.53 1.52 3.6 1.58 3.67 1.62 3.72 1.68 3.85 1.74 4.03 1.79 4.29 1.85 4.61 1.91 4.97 1.96 5.27 2 5.26 2.03 4.79 2.09 3.85 2.15 2.85 2.21 2.34 2.21 3.16 2.3 7.15 3.24" filter="url(#a)"/><path d="m14.26-82.65 2.81.64 2.77.7 2.71.77 2.74.89 2.76.98 2.72 1.06 2.64 1.11 2.55 1.15 2.51 1.2L41-72.91l2.57 1.28 2.59 1.35 2.55 1.4 2.46 1.45 2.36 1.51 2.27 1.57 2.25 1.62 2.25 1.67 2.28 1.72 2.33 1.79 2.36 1.85 2.42 1.9 2.46 1.95 2.49 1.98 2.47 2.01 2.42 2.07L82-43.57l2.79 2.44 2.82 2.29" filter="url(#a)"/><path d="m14.26-82.65 2.45.63 2.06.7 1.89.78 1.83.87 1.77.98 1.62 1.06 1.34 1.11.99 1.15.59 1.18.24 1.23-.04 1.29-.2 1.33-.21 1.39-.01 1.45.37 1.51.84 1.56 1.23 1.6 1.39 1.66 1.17 1.71.57 1.77-.26 1.85-1.12 1.91-1.78 1.95-1.93 1.97-1.47 1.94-.89 1.77-2.12 1.47" filter="url(#a)"/><path d="m14.26-82.65 3.04.63 3.33.69 2.87.77 2.36.86 2.18.97 2.29 1.05 2.49 1.1 2.64 1.13 2.7 1.18 2.75 1.21 2.89 1.27 3.14 1.31 3.42 1.38L54-67.68l3.78 1.49 3.87 1.55 4.06 1.58 4.3 1.62 4.47 1.66 4.32 1.74 4.01 1.89 3.89 1.93 3.14 1.63" filter="url(#a)"/><path d="m13.68-82.75 2.38.28 2.62.53 2.98.67 2.81.77 2.42.88 2.18.98 2.16 1.05 2.26 1.11 2.4 1.16 2.47 1.2 2.53 1.24 2.6 1.3 2.68 1.35 2.8 1.41 2.95 1.47 3.14 1.52 3.36 1.57 3.61 1.63 3.88 1.69 4.11 1.74 4.23 1.79 4.19 1.86 3.99 1.91 3.74 1.96 3.53 2.01 3.53 2.04 3.73 2.1 4.02 2.15 4.12 2.19 3.88 2.21 3.53 2.21 3.77 2.16 3.85 1.47" filter="url(#a)"/><path d="m7.47-83.72 4.41.51 3.33.39 2.11.41 1.79.51 2 .61 2.43.73 2.84.83 3.16.94 3.28 1.01 3.25 1.07 3.13 1.12 3.01 1.16 2.95 1.2 3 1.25 3.15 1.31 3.42 1.35 3.83 1.41 4.35 1.47 4.89 1.56 5.25 1.61 5.19 1.57 4.43 1.35 2.59.68" filter="url(#a)"/><path d="m7.47-83.72 4.98.52 1.85.39 1.52.42 1.89.53 2.29.64 2.62.75 2.9.86 3.14.96 3.29 1.03 3.36 1.1 3.32 1.14 3.25 1.2 3.17 1.24 3.1 1.29 3.06 1.34 3.04 1.41 3.01 1.45 2.99 1.52 2.96 1.57 2.96 1.62 2.98 1.67 3.03 1.74 3.03 1.79 2.96 1.85 2.84 1.91 2.74 1.96 2.8 1.99 3.11 2.03 3.65 2.09 4.21 2.17 4.49 2.21 4.26 2.02 4.09 1.29" filter="url(#a)"/><path d="m7.47-83.72 3.29.51 2.73.38 2.47.41 2.39.51 2.54.61 2.91.73 3.41.83 3.97.93 4.5 1 4.96 1.07 5.27 1.12 5.33 1.15 5.13 1.2 4.8 1.25 4.56 1.29 4.56 1.35 4.75 1.39 4.86 1.47 4.6 1.57 4.01 1.66 3.95 1.73 7.14 1.83" filter="url(#a)"/><path d="m4.87-83.79 2.81.24 2.73.35 2.41.39 2.25.43 2.23.53 2.25.64 2.3.74 2.34.85 2.38.94 2.4 1.02 2.38 1.08 2.33 1.14 2.28 1.18 2.22 1.24 2.2 1.28 2.19 1.33 2.19 1.4 2.19 1.44 2.17 1.51 2.14 1.56 2.14 1.61 2.13 1.66 2.13 1.71 2.11 1.78 2.04 1.85 1.91 1.91 1.78 1.96 1.75 1.98 1.83 1.95 1.79 1.78 1.36 1.48" filter="url(#a)"/><path d="m4.92-84.02 2.69.36 2.56.29 3.17.37 3.62.48 3.74.58 3.58.64 3.32.7 3.13.76 3.09.8 3.21.87 3.41.92 3.64 1 3.83 1.08 3.97 1.15 4.05 1.22 4.21 1.3 4.48 1.37 4.96 1.42 5.55 1.48 6.12 1.52 6.44 1.58 6.37 1.63 5.9 1.71 5.23 1.8 4.63 1.89 4.36 1.92 4.66 1.89 5.71 1.79 7.36 1.72 7.78 1.99" filter="url(#a)"/></g><path fill="none" stroke="#000" stroke-linejoin="round" stroke-width="3" d="M-9.62 1.38Q11.9 8.07 1.14-4.226" filter="url(#a)"/><path fill="#D77F8C" stroke="#000" stroke-linejoin="round" stroke-width="3" d="m-18.62 33.38.13-.32.14-.31.14-.29.16-.29.17-.28.18-.28.19-.26.2-.25.2-.25.22-.24.22-.23.24-.22.24-.22.25-.2.26-.2.27-.19.28-.19.28-.17.29-.17.3-.16.3-.16.31-.14.32-.14.33-.13.33-.13.33-.12.34-.11.35-.1.35-.1.36-.1.36-.08.37-.08.37-.07.38-.07.38-.06.38-.05.39-.05.39-.05.4-.03.39-.03.4-.03.41-.02.4-.01.41-.01.41-.01h.41l.41.01.41.01.42.02.41.02.42.02.42.03.42.04.41.04.42.04.42.05.41.05.42.05.41.07.42.06.41.07.41.07.41.07.41.08.4.09.4.08.4.09.4.1.39.09.39.1.39.1.38.11.38.11.38.11.37.11.37.12.36.12.36.12.35.12.35.13.34.12.33.13.33.14.33.13.31.14.31.13.31.14.29.14.29.15.29.14.27.14.27.15.26.15.25.15.24.15.23.15.23.15.21.15.21.15.2.15-.2-.15-.21-.15-.21-.15-.23-.15-.23-.15-.24-.15-.25-.15-.26-.15-.27-.15-.27-.14-.29-.14-.29-.15-.29-.14-.31-.14-.31-.13-.31-.14-.33-.13-.33-.14-.33-.13-.34-.12-.35-.13-.35-.12-.36-.12-.36-.12-.37-.12-.37-.11-.38-.11-.38-.11-.38-.11-.39-.1-.39-.1-.39-.09-.4-.1-.4-.09-.4-.08-.4-.09-.41-.08-.41-.07-.41-.07-.41-.07-.42-.06-.41-.07-.42-.05-.41-.05-.42-.05-.42-.04-.41-.04-.42-.04-.42-.03-.42-.02-.41-.02-.42-.02-.41-.01-.41-.01h-.41l-.41.01-.41.01-.4.01-.41.02-.4.03-.39.03-.4.03-.39.05-.39.05-.38.05-.38.06-.38.07-.37.07-.37.08-.36.08-.36.1-.35.1-.35.1-.34.11-.33.12-.33.13-.33.13-.32.14-.31.14-.3.16-.3.16-.29.17-.28.17-.28.19-.27.19-.26.2-.25.2-.24.22-.24.22-.22.23-.22.24-.2.25-.2.25-.19.26-.18.28-.17.28-.16.29-.14.29-.14.31" filter="url(#a)"/></svg>