<svg xmlns="http://www.w3.org/2000/svg" width="500" height="500" viewBox="-100 -100 200 200"><defs><clipPath id="c"><path d="m22.86-1.45-.16-.08-.18-.09-.21-.08-.24-.07-.27-.07-.29-.07-.32-.07-.34-.06-.36-.06-.38-.05-.4-.06-.42-.05-.44-.05-.45-.04-.47-.05-.55-.04-.57-.05-.58-.04-.61-.04-.61-.03-.63-.04-.64-.03-.66-.03-.67-.03-.68-.03-.69-.03-.7-.02-.71-.02-.71-.03-.73-.01-.73-.02-.74-.02-.74-.01-.75-.01-.76-.01-.76-.01-.76-.01-.76-.01h-5.35l-.76.01-.76.01h-.75l-.74.01-.74.01-.73.01-.73.02-.72.01-.71.01-.7.02-.69.01-.68.02-.67.01-.66.02-.65.02-.64.02-.62.01-.62.02-.6.02-.58.02-.58.02-.56.02-.56.02-.54.02-.54.02-.52.02-.51.02-.5.02-.49.03-.47.02-.47.02-.45.02-.44.02-.43.02 5.34 1.57.17.09.2.1.21.09.23.1.25.1.26.1.29.11.29.1.32.1.33.11.35.1.36.11.38.11.39.1.41.11.42.11.44.11.46.11.47.11.49.11.5.11.52.11.53.11.54.11.55.11.56.11.57.1.59.1.59.1.6.1.61.09.62.09.62.08.63.08.63.08.64.07.65.06.65.06.65.05.66.05.66.04.66.03.67.02.67.02.67.01H4l.67-.01.68-.02.67-.03.68-.04.67-.04.68-.06.67-.06.68-.07.67-.09.68-.09.67-.1.67-.11.67-.12.66-.13.66-.13.66-.15.65-.15.64-.15.52-.11.51-.11.49-.11.49-.12.47-.11.45-.12.45-.13.42-.12.41-.13.39-.12.38-.13.35-.13.32-.12.3-.13.28-.12"/></clipPath><clipPath id="b"><path d="m-23.06-2.13.04-.13.07-.12.11-.12.14-.11.18-.1.21-.1.24-.09.27-.09.31-.08.33-.08.36-.07.38-.07.41-.06.44-.06.46-.06.48-.06.52-.06.54-.05.58-.05.61-.04.64-.05.67-.03.69-.04.73-.03.74-.03.77-.02.79-.03.8-.02.83-.01.84-.02.86-.01.86-.01.88-.01.89-.01h4.52l.91.01h.91l.9.01.9.01.89.01.89.01.87.01.87.01.86.02.84.01.83.01.82.02.81.01.79.02.77.02.76.01.74.02.73.02.7.01.69.02.67.02.66.02.64.01.62.02.6.02.58.02.57.02.56.01.54.02.53.02.51.02.49.01.48.02.47.02.45.02.44.01.42.02.41.02.4.02.38.01-8.68 2.11-.25.13-.26.12-.27.13-.29.13-.31.14-.32.13-.34.14-.35.14-.36.14-.37.14-.39.15-.4.14-.4.15-.42.15-.43.15-.44.15-.46.15-.46.15-.48.16-.49.16-.49.15-.5.16-.51.16-.51.15-.51.16-.52.15-.53.15-.52.15-.53.14-.53.14-.52.14-.53.13-.53.13-.53.12-.53.11-.53.11-.52.1-.53.09-.53.08-.53.08-.53.06-.53.05-.53.05-.53.03-.54.02h-1.08l-.55-.02-.56-.03-.56-.05-.56-.05-.58-.08-.58-.08-.59-.1-.61-.12-.61-.13-.62-.14-.63-.15-.64-.17-.66-.18-.66-.2-.68-.21-.68-.21-.69-.23-.51-.15-.51-.16-.51-.16-.5-.17-.5-.17-.49-.17-.48-.18-.48-.18-.47-.18-.45-.18-.44-.18-.43-.19-.42-.18-.39-.18-.37-.18"/></clipPath><filter id="a"><feTurbulence baseFrequency=".05" numOctaves="3" result="noise" type="noise"/><feDisplacementMap in="SourceGraphic" in2="noise" scale="2"/></filter></defs><rect width="100%" height="100%" x="-100" y="-100" fill="#E0B0FF"/><path fill="gold" stroke="#000" stroke-linejoin="round" stroke-width="1.667" d="m66.52.43-.1-.53.02 3.13.08-.06-.13 1.32-.21 1.91v.62l-.13.99-.44 4.26.12-1.48-.05 2-.14.27L65 16.2l-.13 1.55.02-.32-.22 1.59-.66 2.48.77-2.34-.93 3.6-.37 1.64-.53 1.77.16-.51-.76 3.12.01-.73-.39 1.25-.09.74-1.07 2.94.11-.86-.55 1.81-.37 1.46-.25.12-.49 1.19-1.28 2.76-.67 1.36.18-.31-.76 1.62-1.27 2.37-.53 1.36.27-.56-1.42 2.06-.36.88.6-.64-1.32 2.19-2.18 2.74 1.06-1.24-1.69 2.24-.14-.04-1.08 1.99-1.2 1.1.02.18.41-.54-1.45 1.9-.14.26-.85.7-2.3 2.49-.04.18.09-.11-1.85 1.8-1.26 1.36-.27-.08-1.18 1.56-.64.37-.57.24-1.95 1.89-.21-.17-.98.86-.09-.15-.63.59-1.92 1.67-.02-.44-.75.61-1.86 1.3.44-.42-3.64 2.28.01-.18-.8.38-.82.35-1.9 1.01-.9.25.23.01-.49.1-1.96.84-.08.18-2.05.59-.91.13-.79.27-.49.37-.76-.05-2.26.88.7-.5-2.38.6-1.16.26-.19-.13-1.81.6h-.5l-.18-.22-2.08.36-.43-.13-1.55.1-.77-.02-1.84.23-.59-.02-1.17-.12-2.28-.11-1.28.03 1.68-.08-.95.08-1.44-.35-.96.05-3.05-.49-1.15-.41 1.44.49-3.37-.67-.26-.05-.44-.41-1.26-.02-.59-.18-.76-.29-.79-.26-2.45-1.13-.29.01-2.68-1.26.38.4-1.63-.91-.69-.09.68-.02-2.01-.78-1.17-.77-.81-.59-.64-.21-1.95-1.07.37.12-.49-.05-2.5-1.68.73.4-1.41-1.34-1.6-1-.75-.76-.98-.62-.09.02-2.97-2.52 2.02 1.66-2.12-2.06-1.17-.91-.57-.66-.2-.46-2.84-2.49.39.05-.14.12-.44-.58-1.06-1.24-1.04-1.32v-.1l-1.62-1.97-1.58-2.06-.21-.74.42.54-1.34-1.69-.51-.84-1-1.89-.16-.06-1.42-2.27.41.18-1.48-2.19.15-.1-.9-1.8.29.72-1.35-2.59.27.34-.88-1.34-.69-2.19-.4-.57-.15-.86-1.67-4.07.36.44-.08-.18-.54-1.16-.19-1.2-.15.21-.63-1.7-.78-3.53-.08-1.03-.1.95-.55-3.61.1.73-.55-1.79-.56-3.09.21 1.08-.13-1.79-.42-2.4-.17-.62-.02.77-.09-3.32-.1-1.19-.28-1.09-.02-1.72-.04-2.58-.19 1.64.23-2.36-.01-1.03-.04-1.73-.28.44.22-3.96-.06-1.01.02 1.13.36-3.99-.3 1.18.39-2.62.05-.74.17-1.87.05-1.48.23-1.08-.05-.09.37-2.09.23-1.63.77-2.33.01-1.4.33-.62.11-1.06-.25 1.28.67-2.1.54-2.31.36-1.1.24-1.48-.3 1.07.81-2.23.87-2.29.52-1.52.07-.36.87-2.27-.66 1.19 1.37-2.47.29-.7.93-2.36.13-.38 1.6-2.76-.1.54.89-2.03-.55.66.1-.28 1.22-1.52.07-.57 1.08-1.45.7-1.16.87-1.19.82-1.35 1.01-1.38-.64.65 2.36-2.93-.99.8 2.16-2.57.13-.16.64-.3.73-.8 1.11-1.19 1.04-1.6.83-.72.97-.83-.13-.02.73-.5 1.09-1.17.57-.63.01.23 3.43-3.04-1.64 1.22 3.38-2.33 1.2-.59.66-.66-.51.12 1.38-.71.34-.37 1.91-1.34.13.33.72-.66 2.02-.87 1.24-.75-.14.06 1.5-.67-.4.24 2.08-.93 1.67-.75-.47.22 3.21-.97-1.17.18.96-.31.74-.34 1.79-.3 1.11-.35 1.31-.47 2.79-.56-.28.01.86-.1 2.33-.37.18.07-.3.17 1.84-.21.46-.31 2.46-.05.39-.06 1.33.11 1.94.03-.71-.06.52.04h2.51l-.55.1h1.66l1.07.26.99-.05.76.23 2.61.44 1.62.32.83.14.39.16.08-.12 2.41.74-.54-.29 1.71.52-.36-.08 1.22.57 1.77.58.57.38.64-.01 1.56.83.76.13 1.12.79.43.15.85.45 2.44 1.23-.49-.31 1.15.63L30.97-72l1.33 1.08-.53-.32.55.52 1.69.97.04.2 1.52 1.26.18-.12.92.62 1.98 1.86 1.34 1.25.82.6-.29-.3 1.21 1.26.81.97 1.14 1.14.26.36 1.31 1.03-.46-.29 1.03 1.01 1.29 1.36.94 1.47-.08.19.88.71.57 1.08 1.36 1.71.54.67 1.1 1.87.39.44.34.31.06.45 1.24 2.42.39.29.29.49.42 1.1 1.7 3.01-.28-.37.44.72 1.1 2.51-.11-.07 1.32 2.92.38.91-.35-.65 1.15 3.13-.27-.88.26.74.5 1.78 1.03 2.15-.31-.97.85 3.7.01-.54.66 3.13.23.41.22.48.49 2.68.04.17.27 2.1.12.81.59 2.37-.25-.21.09.68.26 1.95.11 1.66.12 1.14.28 1.18.05.31.02 1.06.13.7.23 3.44-.1 1.73-.01.89-.1-.53" filter="url(#a)"/><path fill="#fff" d="m-23.06-2.13.04-.13.07-.12.11-.12.14-.11.18-.1.21-.1.24-.09.27-.09.31-.08.33-.08.36-.07.38-.07.41-.06.44-.06.46-.06.48-.06.52-.06.54-.05.58-.05.61-.04.64-.05.67-.03.69-.04.73-.03.74-.03.77-.02.79-.03.8-.02.83-.01.84-.02.86-.01.86-.01.88-.01.89-.01h4.52l.91.01h.91l.9.01.9.01.89.01.89.01.87.01.87.01.86.02.84.01.83.01.82.02.81.01.79.02.77.02.76.01.74.02.73.02.7.01.69.02.67.02.66.02.64.01.62.02.6.02.58.02.57.02.56.01.54.02.53.02.51.02.49.01.48.02.47.02.45.02.44.01.42.02.41.02.4.02.38.01-8.68 2.11-.25.13-.26.12-.27.13-.29.13-.31.14-.32.13-.34.14-.35.14-.36.14-.37.14-.39.15-.4.14-.4.15-.42.15-.43.15-.44.15-.46.15-.46.15-.48.16-.49.16-.49.15-.5.16-.51.16-.51.15-.51.16-.52.15-.53.15-.52.15-.53.14-.53.14-.52.14-.53.13-.53.13-.53.12-.53.11-.53.11-.52.1-.53.09-.53.08-.53.08-.53.06-.53.05-.53.05-.53.03-.54.02h-1.08l-.55-.02-.56-.03-.56-.05-.56-.05-.58-.08-.58-.08-.59-.1-.61-.12-.61-.13-.62-.14-.63-.15-.64-.17-.66-.18-.66-.2-.68-.21-.68-.21-.69-.23-.51-.15-.51-.16-.51-.16-.5-.17-.5-.17-.49-.17-.48-.18-.48-.18-.47-.18-.45-.18-.44-.18-.43-.19-.42-.18-.39-.18-.37-.18" filter="url(#a)" transform="translate(26.76 -24.39)"/><path fill="#fff" d="m22.86-1.45-.16-.08-.18-.09-.21-.08-.24-.07-.27-.07-.29-.07-.32-.07-.34-.06-.36-.06-.38-.05-.4-.06-.42-.05-.44-.05-.45-.04-.47-.05-.55-.04-.57-.05-.58-.04-.61-.04-.61-.03-.63-.04-.64-.03-.66-.03-.67-.03-.68-.03-.69-.03-.7-.02-.71-.02-.71-.03-.73-.01-.73-.02-.74-.02-.74-.01-.75-.01-.76-.01-.76-.01-.76-.01-.76-.01h-5.35l-.76.01-.76.01h-.75l-.74.01-.74.01-.73.01-.73.02-.72.01-.71.01-.7.02-.69.01-.68.02-.67.01-.66.02-.65.02-.64.02-.62.01-.62.02-.6.02-.58.02-.58.02-.56.02-.56.02-.54.02-.54.02-.52.02-.51.02-.5.02-.49.03-.47.02-.47.02-.45.02-.44.02-.43.02 5.34 1.57.17.09.2.1.21.09.23.1.25.1.26.1.29.11.29.1.32.1.33.11.35.1.36.11.38.11.39.1.41.11.42.11.44.11.46.11.47.11.49.11.5.11.52.11.53.11.54.11.55.11.56.11.57.1.59.1.59.1.6.1.61.09.62.09.62.08.63.08.63.08.64.07.65.06.65.06.65.05.66.05.66.04.66.03.67.02.67.02.67.01H4l.67-.01.68-.02.67-.03.68-.04.67-.04.68-.06.67-.06.68-.07.67-.09.68-.09.67-.1.67-.11.67-.12.66-.13.66-.13.66-.15.65-.15.64-.15.52-.11.51-.11.49-.11.49-.12.47-.11.45-.12.45-.13.42-.12.41-.13.39-.12.38-.13.35-.13.32-.12.3-.13.28-.12" filter="url(#a)" transform="translate(-35.73 -26.03)"/><g fill="none" stroke="#000" transform="translate(26.76 -24.39)"><path stroke-linejoin="round" stroke-width="1.667" d="m-21.23-.43-.37-.21-.34-.2-.28-.19-.25-.18-.2-.17-.16-.17-.11-.15-.08-.15-.04-.15v-.13l.04-.13.07-.12.11-.12.14-.11.18-.1.21-.1.24-.09.27-.09.31-.08.33-.08.36-.07.38-.07.41-.06.44-.06.46-.06.48-.06.52-.06.54-.05.58-.05.61-.04.64-.05.67-.03.69-.04.73-.03.74-.03.77-.02.79-.03.8-.02.83-.01.84-.02.86-.01.86-.01.88-.01.89-.01h4.52l.91.01h.91l.9.01.9.01.89.01.89.01.87.01.87.01.86.02.84.01.83.01.82.02.81.01.79.02.77.02.76.01.74.02.73.02.7.01.69.02.67.02.66.02.64.01.62.02.6.02.58.02.57.02.56.01.54.02.53.02.51.02.49.01.48.02.47.02.45.02.44.01.42.02.41.02.4.02.38.01.37.02.36.02.34.01.33.02.31.02.31.01.29.02.28.02.27.01.26.02" filter="url(#a)"/><path stroke-linejoin="round" stroke-width="2.222" d="m-23.8-1.89.03.1.07.11.12.13.17.14.2.14.24.16.27.16.3.17.32.17.36.18.37.18.39.18.42.18.43.19.44.18.45.18.47.18.48.18.48.18.49.17.5.17.5.17.51.16.51.16.51.15.69.23.68.21.68.21.66.2.66.18.64.17.63.15.62.14.61.13.61.12.59.1.58.08.58.08.56.05.56.05.56.03.55.02h1.08l.54-.02.53-.03.53-.05.53-.05.53-.06.53-.08.53-.08.53-.09.52-.1.53-.11.53-.11.53-.12.53-.13.53-.13.52-.14.53-.14.53-.14.52-.15.53-.15.52-.15.51-.16.51-.15.51-.16.5-.16.49-.15.49-.16.48-.16.46-.15.46-.15.44-.15.43-.15.42-.15.4-.15.4-.14.39-.15.37-.14.36-.14.35-.14.34-.14.32-.13.31-.14.29-.13.27-.13.26-.12.25-.13.23-.12.21-.12.19-.11.18-.12.15-.11.15-.11.12-.11.11-.1.09-.1.07-.11" filter="url(#a)"/><circle cx="-1.753" cy="-1.824" r="3.672" clip-path="url(#b)" filter="url(#a)"/><circle cx=".687" cy="-2.744" r="4.94" clip-path="url(#b)" filter="url(#a)"/><circle cx="-1.878" cy="-1.919" r="3.33" clip-path="url(#b)" filter="url(#a)"/><circle cx="-.303" cy="-1.379" r="3.806" clip-path="url(#b)" filter="url(#a)"/><circle cx="1.107" cy=".251" r="4.178" clip-path="url(#b)" filter="url(#a)"/><circle cx="-2.263" cy="-3.349" r="3.528" clip-path="url(#b)" filter="url(#a)"/><circle cx="-.798" cy=".626" r="4.654" clip-path="url(#b)" filter="url(#a)"/><circle cx="-1.163" cy="-3.584" r="3.024" clip-path="url(#b)" filter="url(#a)"/><circle cx="-2.368" cy="-2.809" r="3.404" clip-path="url(#b)" filter="url(#a)"/><circle cx="-.843" cy="-3.664" r="3.448" clip-path="url(#b)" filter="url(#a)"/></g><g fill="none" stroke="#000" transform="translate(-35.73 -26.03)"><path stroke-linejoin="round" stroke-width="2.222" d="m22.39-.32.24-.14.19-.13.14-.12.1-.12.06-.12.02-.1-.02-.11-.05-.1-.09-.09-.12-.1-.16-.08-.18-.09-.21-.08-.24-.07-.27-.07-.29-.07-.32-.07-.34-.06-.36-.06-.38-.05-.4-.06-.42-.05-.44-.05-.45-.04-.47-.05-.55-.04-.57-.05-.58-.04-.61-.04-.61-.03-.63-.04-.64-.03-.66-.03-.67-.03-.68-.03-.69-.03-.7-.02-.71-.02-.71-.03-.73-.01-.73-.02-.74-.02-.74-.01-.75-.01-.76-.01-.76-.01-.76-.01-.76-.01h-5.35l-.76.01-.76.01h-.75l-.74.01-.74.01-.73.01-.73.02-.72.01-.71.01-.7.02-.69.01-.68.02-.67.01-.66.02-.65.02-.64.02-.62.01-.62.02-.6.02-.58.02-.58.02-.56.02-.56.02-.54.02-.54.02-.52.02-.51.02-.5.02-.49.03-.47.02-.47.02-.45.02-.44.02-.43.02-.41.03-.41.02-.39.02-.38.02-.37.02-.36.02-.34.03-.34.02-.32.02-.31.02" filter="url(#a)"/><path stroke-linejoin="round" stroke-width="2.222" d="m23.12-1.21.1.07.06.08.01.08-.04.09-.08.1-.11.11-.15.11-.19.11-.21.12-.25.12-.28.12-.3.13-.32.12-.35.13-.38.13-.39.12-.41.13-.42.12-.45.13-.45.12-.47.11-.49.12-.49.11-.51.11-.52.11-.64.15-.65.15-.66.15-.66.13-.66.13-.67.12-.67.11-.67.1-.68.09-.67.09-.68.07-.67.06-.68.06-.67.04-.68.04-.67.03-.68.02-.67.01h-.67l-.67-.01-.67-.02-.67-.02-.66-.03L0 3.02l-.66-.05-.65-.05-.65-.06-.65-.06-.64-.07-.63-.08-.63-.08-.62-.08-.62-.09-.61-.09-.6-.1-.59-.1-.59-.1-.57-.1-.56-.11-.55-.11-.54-.11-.53-.11-.52-.11-.5-.11-.49-.11-.47-.11-.46-.11-.44-.11-.42-.11-.41-.11-.39-.1-.38-.11-.36-.11-.35-.1-.33-.11-.32-.1-.29-.1-.29-.11-.26-.1-.25-.1-.23-.1-.21-.09-.2-.1-.17-.09-.16-.1-.14-.09-.13-.09-.1-.09-.09-.09-.07-.08-.05-.09-.03-.08-.02-.08v-.08" filter="url(#a)"/><circle cx="-8.795" cy="-1.385" r="3.286" clip-path="url(#c)" filter="url(#a)"/><circle cx="-11.17" cy=".34" r="4.174" clip-path="url(#c)" filter="url(#a)"/><circle cx="-9.885" cy="1.065" r="3.126" clip-path="url(#c)" filter="url(#a)"/><circle cx="-9.23" cy="-.46" r="4.878" clip-path="url(#c)" filter="url(#a)"/><circle cx="-9.71" cy="2.21" r="4.48" clip-path="url(#c)" filter="url(#a)"/><circle cx="-10.46" cy="1.025" r="4.122" clip-path="url(#c)" filter="url(#a)"/><circle cx="-9.69" cy="-.17" r="4.516" clip-path="url(#c)" filter="url(#a)"/><circle cx="-11.22" cy="1.015" r="3.934" clip-path="url(#c)" filter="url(#a)"/><circle cx="-11.65" cy="1.695" r="4.002" clip-path="url(#c)" filter="url(#a)"/><circle cx="-9.48" cy=".255" r="4.368" clip-path="url(#c)" filter="url(#a)"/></g><g fill="none" stroke="#B87333" stroke-linejoin="round" stroke-width="2"><path d="m60.1-34.71-22.31-9.27-27-13.38-12.68-7.23-.24-1.91 6.49.75 8.2 1.43 6.43.76 3.13-.52.62-1.31.35-.81 1.48.33 1.21.18-2.1-2.28-5.11-4.56.51-1.42 20.91 9.27" filter="url(#a)"/><path d="m50.78-52.38-45.83-8.5 1.43-4.41 6.58.71 2.87 2.85 2.69 3.3 4.83 2.98 4.39 1.74-.63-.44-8.06-2.79L5.6-61.21l-13.11-4.41-6.38-3.61 3.11-2.37 7.5-.14-4.3 5.19-44.64 16.52" filter="url(#a)"/><path d="m-6.58-80.68 17.35 7.91.31-.04 1.19-.69.33.18-.85 1.05.31 1.88 2.81 2.57 3.72 2.81 1.33 2.25-3.5.92-7.79-.83-8.51-2.38-4.76-3.24 1.1-3.23 4.71-2.84 3.98-2.79 10.58-1.65" filter="url(#a)"/><path d="m16.9-78.57 8.49 9.21L12.21-68l-13.22-.44-5.8-.34.72.29 3.74.58 3.91.33 2.64-.16 1.01-.51-.3-.52-.74-.19-.03.44 1.42 1.22 2.61 1.86 2.54 1.95 1.08 1.21-.96-.16-2.58-1.36-3.58-1.58-4.19-.69-3.13.45 3.56.53 16.41-1.29 10.58-7.17" filter="url(#a)"/><path d="m-9.09-80.38-4.62 7.61 6.7 5.1 10.67 4.34 12.92 3.48 10.41 2.24 4.26.66-2.39-.85-6.65-1.8-7.13-1.96-4.23-1.46.26-.75 4.04-.23 5.58-.07 4.95-.03 3.45.29 2.39.94 1.59 1.16-.54-.49-4.49-4.12L20.17-73 3.31-80.92" filter="url(#a)"/><path d="m-46.63-58 35.62-10.93 17.48 3.1 1.14 3.46-4.77.78-1.47-.19 4.54.45 8.39 1.41 8.74 1.87 6.48 1.57 3.15.72-.1-.34-2.74-1.3-4.52-1.96-5.27-2.21-4.66-1.96-2.54-1.17h.54l2.92.88 2.64.38L19.98-65l6.43-.9 21.56 10.02" filter="url(#a)"/><path d="m19.53-77.5-.64 8.14 11.48 8.14 6.12 1.94 2.85-.04 2.21.47 1.74 1.06.1.8-2.85-.23-6.4-1.54-9.04-2.51L15.98-64l-6.12-2.28-1.91-1.46-.24-.74-3.59-.61-8.33-1.94-3.86-4.87 13.04-5.02" filter="url(#a)"/><path d="M61.39-30.59 19.3-62.36 8.52-73.06l1.44-1.79 4.52 1.35 2.76 1.64-.77 1.04-3.57.75-4.22 1.11-2.85 1.85-.89 2.55.09 2.83-.6 2.56-2.1 1.89-2.78 1.23-1.53.85 1.19.72 3.64.43 3.86-.53.91-2.17-4.7-3.68-10.96-3.66-14.45-1.22-11.84 1.42 3.32-7.79" filter="url(#a)"/><path d="m.83-81.06-9.9 6.29 8.99 8.36 11.89 4.64 5.17.89-1.52-.81-3.8-1-2.21-.71.55-.69 2.17-.96 1.89-1.17-.07-.86-3.08.08-5.99 1.4-6.85 2.69-3.84 3.47 2.35 3.02 6.1.59-1.04-3.33-19.53-5.14-22.69.18" filter="url(#a)"/><path d="m-45.86-58.46 28.43-6.13 6.04-1.04 5.41-1.66 1.42-.83-2.55.55-2.09 1.07 1.82.56 5.49-.08 6.51.21 5.12 1.7 3.44 3.41 3.43 3.41 4.36.12 1.34-5.73-11.14-9.4-31.11-5.09" filter="url(#a)"/><path d="m47.97-55.88-19.29-9.37-1.8-.43-7.93-.67-13.48-.73-12.64-.81-7.21-1.3-1.05-1.63 3.1-1.29 4.53-.31 4.12.85 3.09 1.68 2.08 1.87 1.18 1.46.66.8 1.68.42 5.16.66 9.48 1.29 10.58 1.65 5.59.05-11.21-13.54" filter="url(#a)"/><path d="m34.05-69.55-38.1-2.69-10.83.46 6.5 1.35 12.69 2.52 10.89 3.02 5.71 2.42.56 1.29-2.68.45-3.26.39-1.33.82 1.83 1.05 4.25.46 4.32-.96 1.86-2.45-1.7-3-4.2-1.9-4.09.59-1.9 3.09-1.31 3.49-8.28.47-22.99-3.99-19.11-4.84" filter="url(#a)"/><path d="m-12.46-79.73 33.9 13.6-.71-1.12-8.19-4.56-6.11-3.7-4.35-1.71-4.87.26-6.22 1.75-6.49 2.43-4.8 2.16-1.57 1.22 2.08.33 5.07.19 6.91 1.16 7.27 2.78 5.25 3.84-.29 3.07-6.17.65 3.17.59 53.03 10.57" filter="url(#a)"/><path d="m-19.94-77.39 39.8 13.78-.27-1.69-10.62-5.42-8.82-4.5-5.26-2.46-2.68-.58-.42 1.06 2.52 2.69 6.03 4.3 8.67 5.38 8.49 5.21 4.66 3.53-.59 1.09-2.59-.92.02-2.3-4.94-4.7-42.69-10.14" filter="url(#a)"/><path d="m57.41-40.98-10.98-6.77-14.48-12.27-9.72-6.17-8.31-1.9-7.19-.71-4.41-1.06-1.69-1.46-1.22-1.17-2.9-.21-4.4 1.11-3.04 2.43 2.06 3.42L.3-62.2l14.59 2.23 15.17.33 12.31 1.83 10.78 8.72" filter="url(#a)"/></g><g fill="none" stroke="#000"><circle cx="9.388" cy="31.838" r="1.862" filter="url(#a)"/><circle cx="9.144" cy="29.77" r="1.674" filter="url(#a)"/><circle cx="10.796" cy="30.386" r="1.318" filter="url(#a)"/><circle cx="9.224" cy="29.942" r="2.88" filter="url(#a)"/><circle cx="9.58" cy="30.818" r="1.114" filter="url(#a)"/><circle cx="8.62" cy="29.982" r="2.104" filter="url(#a)"/><circle cx="11.672" cy="31.318" r="1.368" filter="url(#a)"/><circle cx="10.304" cy="29.974" r="1.81" filter="url(#a)"/><circle cx="9.976" cy="30.97" r="1.71" filter="url(#a)"/><circle cx="11.508" cy="31.954" r="2.544" filter="url(#a)"/><circle cx="-6.88" cy="23.358" r="1.73" filter="url(#a)"/><circle cx="-6.172" cy="26.142" r="2.728" filter="url(#a)"/><circle cx="-7.344" cy="25.25" r="2.45" filter="url(#a)"/><circle cx="-7.016" cy="24.134" r="1.376" filter="url(#a)"/><circle cx="-9.72" cy="24.418" r="2.27" filter="url(#a)"/><circle cx="-7.068" cy="25.038" r="1.702" filter="url(#a)"/><circle cx="-7.316" cy="23.31" r="2.968" filter="url(#a)"/><circle cx="-8.824" cy="24.434" r="2.024" filter="url(#a)"/><circle cx="-7.756" cy="24.718" r="1.124" filter="url(#a)"/><circle cx="-7.18" cy="23.702" r="1.366" filter="url(#a)"/></g><path fill="#D77F8C" stroke="#000" stroke-linejoin="round" stroke-width="3" d="m-9.71 54.55.14-.11.15-.13.16-.15.16-.16.18-.19.18-.2.19-.23.19-.23.2-.26.21-.27.22-.28.22-.3.23-.31.24-.32.24-.33.25-.35.25-.35.26-.37.26-.37.27-.38.27-.39.28-.4.29-.4.28-.41.29-.41.3-.42.3-.42.3-.43.3-.42.31-.43.31-.43.32-.43.32-.43.32-.42.32-.43.32-.42.33-.42.32-.42.33-.41.33-.4.34-.4.33-.4.33-.38.33-.38.34-.37.33-.36.34-.35.33-.34.34-.33.33-.31.33-.3.33-.29.33-.28.33-.26.33-.24.33-.23.32-.22.32-.19.32-.18.32-.15.32-.14.31-.12.31-.1.31-.07.3-.06.3-.03h.3l.29.01.29.05.28.06.28.1.27.12.27.15.27.18.26.2.25.24.25.26.25.3.23.33.24.36.22.4.22.43.21.46.21.5.2.53.19.57.18.61.18.64.16.69.17.72.15.76.14.81.14.84.12.89.12.93.11.97.1 1.02.09 1.06.08 1.1-.25-.79-.26-.77-.25-.73-.26-.7-.25-.67-.26-.63-.25-.61-.26-.58-.26-.54-.25-.52-.26-.49-.25-.46-.26-.43-.25-.41-.26-.38-.25-.35-.26-.33-.25-.3-.26-.28-.25-.25-.26-.23-.25-.21-.26-.19-.25-.16-.26-.14-.25-.12-.26-.1-.25-.07-.26-.06-.25-.04-.26-.02h-.25l-.26.01-.25.03-.26.05-.25.07-.26.08-.25.1-.26.11-.25.12-.26.14-.25.15-.26.17-.25.18-.26.19-.25.2-.26.21-.26.22-.25.23-.26.24-.25.25-.26.26-.25.26-.26.28-.25.28-.26.28-.25.3-.26.29-.25.31-.26.3-.25.31-.26.32-.25.31-.26.32-.25.32-.26.32-.25.33-.26.32-.25.32-.26.33-.25.32-.26.32-.25.31-.26.32-.25.31-.26.31-.25.31-.26.3-.25.29-.26.29-.25.28-.26.28-.25.27-.26.26-.26.25-.25.25-.26.24-.25.22-.26.22-.25.21-.26.19-.25.19-.26.17-.25.16-.26.14-.25.14-.26.12-.25.1-.26.09" filter="url(#a)"/></svg>