<svg xmlns="http://www.w3.org/2000/svg" width="500" height="500" viewBox="-100 -100 200 200"><defs><clipPath id="c"><path d="m29.07-8.48-.42-.15-.45-.14-.48-.15-.5-.14-.53-.14-.55-.14-.57-.13-.6-.13-.61-.13-.63-.13-.64-.13-.66-.12-.67-.12-.68-.12-.69-.12-.85-.12-.86-.11-.86-.12-.87-.12-.87-.12-.87-.12-.88-.12-.88-.11-.88-.12-.87-.12-.88-.11-.87-.11-.87-.11-.87-.11-.86-.1-.86-.1-.85-.09-.84-.09-.84-.08-.83-.08-.83-.07-.82-.07-.81-.06-.8-.05-.79-.05-.79-.04-.77-.03-.77-.03-.75-.01-.75-.01-.74-.01-.73.01-.71.01-.71.02-.7.02-.68.03-.68.04-.66.05-.65.05-.64.06-.63.06-.62.07-.6.07-.6.08-.58.08-.57.09-.55.09-.55.09-.53.1-.52.09-.51.1-.5.1-.49.11-.48.1-.47.11-.46.11-.45.11-.44.12-.43.11-.42.12-.4.12-.4.12-.39.11-.38.12L-20.4-.15l.34.46.35.47.37.46.38.47.39.47.4.47.42.47.42.47.44.47.45.46.45.46.47.46.48.45.49.44.5.44.51.44.53.44.53.42.55.42.56.42.57.4.58.38.6.37.6.36.6.34.62.32.63.3.63.27.65.26.65.23.65.2.67.17.67.15.68.12.68.09.7.06.7.03h.7l.71-.03.72-.07.72-.09.73-.13.74-.16.74-.18.75-.22.76-.25.76-.28.77-.31.77-.33.78-.36.79-.39.79-.4.8-.44.81-.45.81-.47.81-.49.82-.5.83-.52.82-.53.83-.54.83-.55.84-.55.83-.56.83-.56.65-.46.65-.45.64-.46.63-.46.62-.46.61-.46.59-.46.58-.45.56-.45.54-.44.52-.43.5-.43.47-.41.45-.4.42-.4"/></clipPath><clipPath id="b"><path d="m-30.2-7.79.55-.22.59-.22.62-.21.65-.2.68-.19.71-.18.73-.18.75-.17.77-.17.79-.16.81-.15.81-.15.83-.14.84-.14.84-.13 1.07-.13 1.06-.13 1.07-.12 1.07-.13 1.06-.12 1.06-.11 1.05-.12 1.04-.11 1.03-.11 1.02-.11 1.01-.1 1-.1.98-.1.96-.09.95-.09.93-.08.92-.08.89-.07.88-.07.86-.07.84-.06.82-.05.81-.05.78-.04.76-.04.75-.03.72-.02.7-.02.69-.01.67-.01h.65l.63.01.61.01.59.02.58.02.56.03.55.03.52.04.52.05.49.04.48.06.47.05.45.07.44.06.42.07.42.07.4.07.38.07.38.08.36.08.36.08.34.08.33.08.33.09.32.09.3.08.3.09.29.09.29.1.27.09.26.09.26.1.25.09.24.09-4.12 9.04-.33.44-.34.43-.36.45-.36.44-.38.45-.4.45-.4.45-.42.45-.44.46-.44.45-.46.45-.47.45-.49.45-.49.45-.51.45-.53.44-.54.45-.55.44-.58.44-.58.43-.6.43-.62.42-.63.41-.65.4-.66.38-.67.37-.69.35-.71.34-.71.32-.73.3-.75.28-.75.25-.77.24-.78.2-.79.18-.8.16-.81.12-.81.1-.83.07-.84.03-.84.01-.85-.03-.85-.05-.86-.09-.87-.12-.87-.16-.87-.18-.87-.22-.88-.25-.87-.29-.87-.31-.87-.34-.87-.37-.86-.41-.86-.43-.85-.45-.84-.48-.83-.51-.83-.52-.81-.55-.79-.56-.79-.59-.76-.59-.75-.61-.62-.46-.61-.46-.58-.47-.57-.48-.55-.48-.52-.48-.5-.48-.47-.49-.44-.48-.42-.48-.38-.48-.36-.47-.31-.46-.28-.45-.25-.45"/></clipPath><filter id="a"><feTurbulence baseFrequency=".05" numOctaves="3" result="noise" type="noise"/><feDisplacementMap in="SourceGraphic" in2="noise" scale="2"/></filter></defs><rect width="100%" height="100%" x="-100" y="-100" fill="#4682B4"/><path fill="beige" stroke="#000" stroke-linejoin="round" stroke-width="1.667" d="m72.45 2.43.06-1.58.1 2.03-.21 1.38.13.07-.08 2.81h.08l-.38 5.17.14-1.25-.51 2.39-.03-.03-.15 3.24-.31.82-.2 1.72-.04.69-.31 1.27-.29 2.02-.49.13-.49 2.69.31 1.28-.76 2.2-.14.37-.2 1.14-.71 1.58-.17.7-.94 3.41.13-1.04-.23.92-1.07 3.43-.76.69.3.39-.87 1.51-.65 1.91-1.21 2.41.19-.33.09-.17-1.34 2.24-.58 1.36-1.69 3.68.27-.67-.31.98-1.48 1.78-1.08 1.65.64-.64-.83 1.13-1.5 2.74.21-.8-.35.99-2.98 3.68.79-.94-.04-.05-1.79 2.25-.35 1.32-.64.18-.72.82-1.96 1.86-.89 1.39-.95.66-.47.45-1.79 2.31-.1-.45-2.33 2.27-.8.71.46-.17-.85.4-.81.85-2.28 1.35.5-.2-1.69 1.14-.05-.23-2.48 2.05-.56.01-.47 1.16-1.96.62-1.72 1.06-.71.01-1.58.87-.62.51.24.16-2.36.71-1.37.44-.12.11-.21.32-1.62.52-1.82.59-.75-.02-.82.41-2.14.39.63-.12-.59.17-3.48.89 1.19-.44-1.99.75-2.37.36.1-.27-.95.3-1.2-.21-.55.23-2.86.34.32-.26-1.45-.04-3.24.23.71-.25-3.2.14.23-.23-.55-.11-1.87.05-1.21-.41-1.89-.26-.79-.05-1.84-.39 1.79.31-3.71-.73 1.05.33-2.08-.49.04.04-1.81-.88-1.98-.59-1.67-.66-.7-.4-.87-.29.33.48-3-1.73-.36-.09-.73-.06-.16-.54-1.35-.41-3.07-1.67-.53-.66-1.36-.37-.34-.6-1.4-.84-.65-.74-.21.02-.63-.33-.8-.31-1.06-1.07-2.09-1.5-1.2-.98-.68-.62-.64-.96-.5-.44-.83-.27-.81-1.05-.4-.94-1.63-.92-1.31-1.85.34.3-2.91-3.32.12.04-.35-.7-2.48-2.98.48.69-.65-.84-1.48-2.41.4.46-1.35-2.13-.08.45-1.28-2.16-.58-1.18-.31-.96-1.62-2.38-.56-.99-.21-.17-1.35-2.57-.33-.78-.41-.62.01-1.3-1.33-2.1.86 1.44-1.07-2.05-.07-.06-.91-2.58-.95-3.36.06 1.33-.4-1.2-.9-2.25-.15-1.08-1-3.06-.63-2.86.58 1.26-1.06-3.35.23 1.34-.7-3.66-.35-2.15.22.93-.1-.38-.49-2.02-.28-2.16-.13-2.1-.23.28-.19-3.19-.25-1.7-.16-.86-.32-1.49.23-2.14-.07-.73-.42-1.97.27-.92-.08-.05-.05-2.12-.07-1.89.24-1.96.15-1.22-.24-.57.19-2.17.36-3.53.04.1-.01-2.07.2.75-.07-1.7.63-2.69-.17.68v-2.42l.55-1.25.02-1.03.89-3.81-.17.42.5-1.87.52-2.76.27-.99.34-.81-.36 1.45.92-4.1.45-.67.59-2.97-.21 1.06 1.33-3.9-.11 1.07.36-1.58.21-.87 1.47-2.82-.43.59 1.1-1.77.8-1.51.98-2.61-.47 1.23.67-2.04 1.19-2.05.44-.59 1.13-2.34-.25.41 2.25-3.39-.64.89.37-.42 2.2-4.12.22-.09.01.39 1.65-2.16.76-1 1-1.2 1.19-1.34h-.12l1.87-2.46-.57.01.25.08 2.31-2.14.55-1.15.77-.15.5-.33 1.77-1.84.06-.31 1.05-.56.95-.81 1.65-1.79.05.11 1.35-.78.69-.96 1.65-.58.24-.7 2.33-1.25.45-.48 1.98-1.03 1.15-.48.1-.36.73-.44 1.34-.36 1.28-.8.36-.28 2.1-.56.43-.71 1.02.12 1.22-.74 1.08-.43 1.09-.23.63-.44 1.2-.12 1.75-.46.65-.14.86-.62 2.58-.45-1.05.33 3.26-.35-.32-.28 1.52.05 1.14-.08 2.54-.21 1.34-.27-.31-.15.81.36 1.97-.09.96-.24 1.43.04.84.4.17-.25h.24l1.48.41 1.81.08.21.04 3.53.32-1.56-.31 2.47.56 1.64.59 1.37.49-1.08-.58 2.83 1 1.46.09 2.5 1.13.01-.14-.01.24 3 1.26.97.4.12.32 1.05-.18 1.5 1.03-1.04-.33 1.28.61 2.94 1.5-1.21-.45 1.55.47 2.29 1.51 1.55 1.02-.43.06 2.58 1.82-1.05-1.08.85.56 1.74 2.07 1.49.92 1.47 1.46 1.44.79 1.54 1.46-.3-.06.83.45 1.52 1.51.59.26 1.62 2.44.56.92-1.01-1.43.48.62 1.42 1.58-.03.24 2.4 3.16 1.34 1.1-.3-.55 1.16 1.76 1.5 2.28-.72-.98 1.4 1.95-.44.03 1.59 2.41.09-.1.59.95.69 1.32.94 1.84-.11.2 1.91 3.77.79 2.18-.6-1.34 1.96 3.21.16.55-.05.09 1.43 2.82-.16.62.04-.44 1.54 4.38.14 1.38.15.14.61 2.39-.41-1.64.81 3.01.73 2.64.15-.58.14.71.86 4-.59-1.26 1.02 3.84.19 1.31.06 1.23.46 2.31.17.33-.12 1.62.15.51.36 3.28.38 2.21-.44-1.55.37 3.51.13 1.59.19.68-.03.5-.13.78-.19 4.8.06-1.58" filter="url(#a)"/><path fill="#fff" d="m-30.2-7.79.55-.22.59-.22.62-.21.65-.2.68-.19.71-.18.73-.18.75-.17.77-.17.79-.16.81-.15.81-.15.83-.14.84-.14.84-.13 1.07-.13 1.06-.13 1.07-.12 1.07-.13 1.06-.12 1.06-.11 1.05-.12 1.04-.11 1.03-.11 1.02-.11 1.01-.1 1-.1.98-.1.96-.09.95-.09.93-.08.92-.08.89-.07.88-.07.86-.07.84-.06.82-.05.81-.05.78-.04.76-.04.75-.03.72-.02.7-.02.69-.01.67-.01h.65l.63.01.61.01.59.02.58.02.56.03.55.03.52.04.52.05.49.04.48.06.47.05.45.07.44.06.42.07.42.07.4.07.38.07.38.08.36.08.36.08.34.08.33.08.33.09.32.09.3.08.3.09.29.09.29.1.27.09.26.09.26.1.25.09.24.09-4.12 9.04-.33.44-.34.43-.36.45-.36.44-.38.45-.4.45-.4.45-.42.45-.44.46-.44.45-.46.45-.47.45-.49.45-.49.45-.51.45-.53.44-.54.45-.55.44-.58.44-.58.43-.6.43-.62.42-.63.41-.65.4-.66.38-.67.37-.69.35-.71.34-.71.32-.73.3-.75.28-.75.25-.77.24-.78.2-.79.18-.8.16-.81.12-.81.1-.83.07-.84.03-.84.01-.85-.03-.85-.05-.86-.09-.87-.12-.87-.16-.87-.18-.87-.22-.88-.25-.87-.29-.87-.31-.87-.34-.87-.37-.86-.41-.86-.43-.85-.45-.84-.48-.83-.51-.83-.52-.81-.55-.79-.56-.79-.59-.76-.59-.75-.61-.62-.46-.61-.46-.58-.47-.57-.48-.55-.48-.52-.48-.5-.48-.47-.49-.44-.48-.42-.48-.38-.48-.36-.47-.31-.46-.28-.45-.25-.45" filter="url(#a)" transform="translate(40.12 -25.5)"/><path fill="#fff" d="m29.07-8.48-.42-.15-.45-.14-.48-.15-.5-.14-.53-.14-.55-.14-.57-.13-.6-.13-.61-.13-.63-.13-.64-.13-.66-.12-.67-.12-.68-.12-.69-.12-.85-.12-.86-.11-.86-.12-.87-.12-.87-.12-.87-.12-.88-.12-.88-.11-.88-.12-.87-.12-.88-.11-.87-.11-.87-.11-.87-.11-.86-.1-.86-.1-.85-.09-.84-.09-.84-.08-.83-.08-.83-.07-.82-.07-.81-.06-.8-.05-.79-.05-.79-.04-.77-.03-.77-.03-.75-.01-.75-.01-.74-.01-.73.01-.71.01-.71.02-.7.02-.68.03-.68.04-.66.05-.65.05-.64.06-.63.06-.62.07-.6.07-.6.08-.58.08-.57.09-.55.09-.55.09-.53.1-.52.09-.51.1-.5.1-.49.11-.48.1-.47.11-.46.11-.45.11-.44.12-.43.11-.42.12-.4.12-.4.12-.39.11-.38.12L-20.4-.15l.34.46.35.47.37.46.38.47.39.47.4.47.42.47.42.47.44.47.45.46.45.46.47.46.48.45.49.44.5.44.51.44.53.44.53.42.55.42.56.42.57.4.58.38.6.37.6.36.6.34.62.32.63.3.63.27.65.26.65.23.65.2.67.17.67.15.68.12.68.09.7.06.7.03h.7l.71-.03.72-.07.72-.09.73-.13.74-.16.74-.18.75-.22.76-.25.76-.28.77-.31.77-.33.78-.36.79-.39.79-.4.8-.44.81-.45.81-.47.81-.49.82-.5.83-.52.82-.53.83-.54.83-.55.84-.55.83-.56.83-.56.65-.46.65-.45.64-.46.63-.46.62-.46.61-.46.59-.46.58-.45.56-.45.54-.44.52-.43.5-.43.47-.41.45-.4.42-.4" filter="url(#a)" transform="translate(-31.89 -28.63)"/><g fill="none" stroke="#000" transform="translate(40.12 -25.5)"><path stroke-linejoin="round" stroke-width="1.667" d="M-32.99-4.93v-.34l.08-.33.14-.32.2-.3.27-.29.32-.28.38-.27.42-.25.47-.25.51-.23.55-.22.59-.22.62-.21.65-.2.68-.19.71-.18.73-.18.75-.17.77-.17.79-.16.81-.15.81-.15.83-.14.84-.14.84-.13 1.07-.13 1.06-.13 1.07-.12 1.07-.13 1.06-.12 1.06-.11 1.05-.12 1.04-.11 1.03-.11 1.02-.11 1.01-.1 1-.1.98-.1.96-.09.95-.09.93-.08.92-.08.89-.07.88-.07.86-.07.84-.06.82-.05.81-.05.78-.04.76-.04.75-.03.72-.02.7-.02.69-.01.67-.01h.65l.63.01.61.01.59.02.58.02.56.03.55.03.52.04.52.05.49.04.48.06.47.05.45.07.44.06.42.07.42.07.4.07.38.07.38.08.36.08.36.08.34.08.33.08.33.09.32.09.3.08.3.09.29.09.29.1.27.09.26.09.26.1.25.09.24.09.23.1.23.09.22.1.21.09.2.09.2.1.19.09.18.09.18.09.17.09" filter="url(#a)"/><path stroke-linejoin="round" stroke-width="2.222" d="m-32.37-5.85-.28.22-.21.26-.15.28-.1.32-.03.33.01.36.06.38.12.4.15.42.2.42.25.45.28.45.31.46.36.47.38.48.42.48.44.48.47.49.5.48.52.48.55.48.57.48.58.47.61.46.62.46.75.61.76.59.79.59.79.56.81.55.83.52.83.51.84.48.85.45.86.43.86.41.87.37.87.34.87.31.87.29.88.25.87.22.87.18.87.16.87.12.86.09.85.05.85.03.84-.01.84-.03.83-.07.81-.1.81-.12.8-.16.79-.18.78-.2.77-.24.75-.25.75-.28.73-.3.71-.32.71-.34.69-.35.67-.37.66-.38.65-.4.63-.41.62-.42.6-.43.58-.43.58-.44.55-.44.54-.45.53-.44.51-.45.49-.45.49-.45.47-.45.46-.45.44-.45.44-.46.42-.45.4-.45.4-.45.38-.45.36-.44.36-.45.34-.43.33-.44.32-.42.3-.43.29-.42.28-.41.27-.41.25-.4.24-.4.23-.39.22-.38.21-.38" filter="url(#a)"/><circle cx="2.715" cy="2.928" r="3.514" clip-path="url(#b)" filter="url(#a)"/><circle cx=".36" cy="2.843" r="3.656" clip-path="url(#b)" filter="url(#a)"/><circle cx="2.795" cy="6.073" r="3.646" clip-path="url(#b)" filter="url(#a)"/><circle cx="3.815" cy="2.963" r="4.038" clip-path="url(#b)" filter="url(#a)"/><circle cx="2.2" cy="5.933" r="4.042" clip-path="url(#b)" filter="url(#a)"/><circle cx="3.985" cy="2.313" r="3.692" clip-path="url(#b)" filter="url(#a)"/><circle cx="1.725" cy="6.138" r="4.112" clip-path="url(#b)" filter="url(#a)"/><circle cx="-.595" cy="4.513" r="3.834" clip-path="url(#b)" filter="url(#a)"/><circle cx="-.085" cy="2.348" r="3.834" clip-path="url(#b)" filter="url(#a)"/><circle cx=".615" cy="5.618" r="3.02" clip-path="url(#b)" filter="url(#a)"/></g><g fill="none" stroke="#000" transform="translate(-31.89 -28.63)"><path stroke-linejoin="round" stroke-width="2.222" d="m31.05-6.72.02-.2-.04-.19-.09-.19-.14-.18-.18-.18-.23-.17-.28-.17-.31-.16-.35-.16-.38-.16-.42-.15-.45-.14-.48-.15-.5-.14-.53-.14-.55-.14-.57-.13-.6-.13-.61-.13-.63-.13-.64-.13-.66-.12-.67-.12-.68-.12-.69-.12-.85-.12-.86-.11-.86-.12-.87-.12-.87-.12-.87-.12-.88-.12-.88-.11-.88-.12-.87-.12-.88-.11-.87-.11-.87-.11-.87-.11-.86-.1-.86-.1-.85-.09-.84-.09-.84-.08-.83-.08-.83-.07-.82-.07-.81-.06-.8-.05-.79-.05-.79-.04-.77-.03-.77-.03-.75-.01-.75-.01-.74-.01-.73.01-.71.01-.71.02-.7.02-.68.03-.68.04-.66.05-.65.05-.64.06-.63.06-.62.07-.6.07-.6.08-.58.08-.57.09-.55.09-.55.09-.53.1-.52.09-.51.1-.5.1-.49.11-.48.1-.47.11-.46.11-.45.11-.44.12-.43.11-.42.12-.4.12-.4.12-.39.11-.38.12-.37.12-.35.12-.35.12-.34.12-.32.12-.32.12-.31.12-.3.12-.28.11-.28.12m57.98 3.25v.19l-.05.22-.1.24-.16.27-.2.29-.24.31-.29.33-.32.34-.35.37-.4.37-.42.4-.45.4-.47.41-.5.43-.52.43-.54.44-.56.45-.58.45-.59.46-.61.46-.62.46-.63.46-.64.46-.65.45-.65.46-.83.56-.83.56-.84.55-.83.55-.83.54-.82.53-.83.52-.82.5-.81.49-.81.47-.81.45-.8.44-.79.4-.79.39-.78.36-.77.33-.77.31-.76.28-.76.25-.75.22-.74.18-.74.16-.73.13-.72.09-.72.07-.71.03h-.7l-.7-.03-.7-.06-.68-.09-.68-.12-.67-.15-.67-.17-.65-.2-.65-.23-.65-.26-.63-.27-.63-.3-.62-.32-.6-.34-.6-.36-.6-.37-.58-.38-.57-.4-.56-.42-.55-.42-.53-.42-.53-.44-.51-.44-.5-.44-.49-.44-.48-.45-.47-.46-.45-.46-.45-.46-.44-.47-.42-.47-.42-.47-.4-.47-.39-.47-.38-.47-.37-.46-.35-.47-.34-.46-.33-.46-.32-.46-.3-.45-.29-.44-.28-.45-.27-.43-.25-.44-.24-.42-.23-.42-.21-.42" filter="url(#a)"/><circle cx="7.652" cy="-2.68" r="3.722" clip-path="url(#c)" filter="url(#a)"/><circle cx="9.287" cy="-6.17" r="3.358" clip-path="url(#c)" filter="url(#a)"/><circle cx="7.762" cy="-5.12" r="3.498" clip-path="url(#c)" filter="url(#a)"/><circle cx="7.577" cy="-2.415" r="3.402" clip-path="url(#c)" filter="url(#a)"/><circle cx="10.222" cy="-4.82" r="3.284" clip-path="url(#c)" filter="url(#a)"/><circle cx="10.212" cy="-4.57" r="4.42" clip-path="url(#c)" filter="url(#a)"/><circle cx="10.712" cy="-6.795" r="3.986" clip-path="url(#c)" filter="url(#a)"/><circle cx="9.542" cy="-6.4" r="3.51" clip-path="url(#c)" filter="url(#a)"/><circle cx="6.022" cy="-2.66" r="4.192" clip-path="url(#c)" filter="url(#a)"/><circle cx="8.797" cy="-2.315" r="4.176" clip-path="url(#c)" filter="url(#a)"/></g><g fill="none" stroke="#000" stroke-linejoin="round" stroke-width="2"><path d="m-5.82-91.78-3.02.2-3.06.37-2.63.46-2.33.56-2.4.64-2.67.72-2.92.79-2.96.86-2.8.94-2.52 1.03-2.28 1.13-2.13 1.22-2.1 1.32-2.12 1.39-2.2 1.45-2.3 1.51-2.43 1.54-2.6 1.57-2.81 1.62-2.99 1.68-3.16 1.74-3.31 1.83-3.41 1.93-3.51 2.02-3.57 2.13-3.59 2.2-3.56 2.25-3.44 2.28-3.22 2.28-2.94 2.27-2.76 2.26-2.88 2.26-3.39 2.25-3.95 2.17-3.79 2.03-2.5 2.21" filter="url(#a)"/><path d="m-11.42-91.12-1.62.33-2.1.55-2.71.66-3.29.74-3.66.8-3.66.87-3.35.94-2.93 1.04-2.68 1.14-2.71 1.24-2.99 1.33-3.37 1.41-3.69 1.46-3.89 1.51-3.97 1.55-4 1.59-4.02 1.63-4.05 1.68-4.06 1.76-4.06 1.85-4.08 1.94-4.18 2.04-4.38 2.12-4.65 2.2-4.83 2.25-4.76 2.27-4.33 2.27-3.65 2.27-3.04 2.27-2.92 2.26-3.54 2.26-4.7 2.29-5.79 2.33-6.11 2.45-5.5 2.57-4.71 2.55-3.97 2.12" filter="url(#a)"/><path d="m-16.21-89.78-1.91.58-2.04.68-2.1.81-2.08.9-2.04.97-2.02 1.05-2.04 1.14-2.07 1.24-2.08 1.33-2.08 1.4-2.03 1.45-2 1.51-1.95 1.56-1.94 1.61-1.94 1.67-1.92 1.74-1.88 1.8-1.83 1.87-1.77 1.93-1.71 1.98-1.67 2.03-1.65 2.05-1.6 2.12-1.6 2.3-1.72 2.78-1.93 3.5" filter="url(#a)"/><path d="m-16.21-89.78-2.13.58-2.23.68-2.58.8-2.81.9-2.84.97-2.8 1.04-2.77 1.14-2.84 1.24-2.98 1.32-3.22 1.4-3.48 1.45-3.77 1.5-4.03 1.56-4.27 1.6-4.45 1.67-4.63 1.73-4.81 1.79-5.07 1.87-5.32 1.92-5.54 1.98-5.68 2.03-5.76 2.01-5.92 2-6.48 2.12-5.65 2.61M71.61-15.83l3.35 2.29L82.89-11l5.41 2.66.89 2.73-1.25 2.71-.38 2.62 2.09 2.53 4.33 2.51 5.24 2.58 4.63 2.68 3.03 2.78 1.27 2.85.08 2.87-.16 2.84.53 2.78 1.75 2.7 3.01 2.62 3.81 2.56 3.92 2.52 3.37 2.52 2.47 2.53 1.6 2.53.96 2.53.39 2.55-.46 2.59-1.58 2.58-1.92 2.44.67 2.61M71.61-15.83l.85 2.29.32 2.53.3 2.65.4 2.72.49 2.71.58 2.61.74 2.52.96 2.5 1.2 2.56 1.43 2.67 1.63 2.77 1.78 2.85 1.87 2.88 1.89 2.84 1.8 2.78 1.61 2.7 1.29 2.6.81 2.54.26 2.52-.15 2.51-.19 2.52.19 2.51.71 2.49.86 2.54-.04 2.84-2.86 3.86M-22.88-87.23l-2.38.9-2.4 1.02-2.66 1.16-2.81 1.28-2.71 1.39-2.55 1.45-2.54 1.5-2.71 1.53-2.99 1.54-3.15 1.57-3.05 1.6-2.69 1.65-2.19 1.73-1.74 1.83-1.49 1.93-1.47 2.04-1.63 2.13-1.89 2.21-2.18 2.25-2.46 2.27-2.71 2.27-2.87 2.24-2.93 2.24-2.86 2.24-2.83 2.24-2.93 2.15-2.98 2.01-2.62 2.19" filter="url(#a)"/><path d="m-24.98-86.67-1.99.97-2.23.99-2.2 1.15-2.26 1.3-2.51 1.4-2.87 1.46-3.19 1.51-3.41 1.55-3.52 1.6-3.69 1.67-3.98 1.73-4.36 1.79-4.67 1.86-4.75 1.92-4.54 2-4.06 2.06-3.5 2.13-3.05 2.22-2.86 2.31-2.99 2.39-3.33 2.45-3.69 2.51-3.88 2.53-3.79 2.54-3.43 2.52-2.98 2.5-2.65 2.47-2.57 2.45-2.73 2.44-2.99 2.46-3.15 2.56-3.1 2.72-2.86 2.89-2.58 2.87-2.67 2.4-2.2 1.45" filter="url(#a)"/><path d="m-26.62-85.59-2.9.86-2.08 1.12-2.14 1.33-2.29 1.43-2.35 1.48-2.33 1.52-2.21 1.55-2.02 1.61-1.8 1.66-1.6 1.74-1.46 1.8-1.44 1.86-1.52 1.94-1.68 1.99-1.88 2.07-2.05 2.15-2.17 2.23-2.18 2.31-2.1 2.39-1.93 2.46-1.75 2.51-1.55 2.53-1.42 2.53-1.35 2.52-1.35 2.5-1.37 2.47-1.38 2.47-1.34 2.47-1.23 2.5-1.09 2.57-1.02 2.67-1.09 2.73-1.25 2.68-1.35 2.51-1.21 2.34-.97 2.67-1.12 4.19" filter="url(#a)"/><path d="m-27.96-85.23-2.1 1.03-4.03 1.34-4.72 1.44-4.49 1.5-3.67 1.53-2.66 1.54-1.92 1.56-1.73 1.59-1.94 1.62-2.26 1.68-2.52 1.76-2.74 1.86-3.05 1.97-3.55 2.07-4.16 2.15-4.72 2.21-5.03 2.25-5 2.27-4.68 2.27-4.25 2.26-3.89 2.27-3.72 2.27-3.73 2.29-3.77 2.33-3.67 2.4-3.3 2.49-2.75 2.62-2.33 2.75-2.42 2.89-3.03 2.98-3.63 2.92-3.5 2.59-3.44 1.99" filter="url(#a)"/><path d="m-27.96-85.23-1.97 1.04-2.93 1.33-3.31 1.45-3.42 1.5-3.31 1.53-2.99 1.54-2.61 1.56-2.35 1.59-2.3 1.62-2.46 1.69-2.68 1.77-2.86 1.86-2.98 1.97-3.06 2.07-3.15 2.15-3.23 2.22-3.24 2.25-3.05 2.27-2.68 2.27-2.15 2.27-1.69 2.26-1.46 2.28-1.58 2.3-2 2.34-2.56 2.42-3.12 2.5-3.61 2.63-4.02 2.75-4.34 2.87-4.4 2.93-4.05 2.9-3.27 2.78-2.21 2.75-.75 3.42" filter="url(#a)"/><path d="m-28.69-84.79-1.85 1.07-2.83 1.38-3.28 1.46-3.15 1.48-2.88 1.5-2.75 1.53-2.76 1.59-2.77 1.64-2.72 1.71-2.65 1.78-2.65 1.84-2.84 1.9-3.18 1.97-3.53 2.03-3.79 2.1-3.87 2.18-3.85 2.27-3.88 2.38-4.05 2.47-4.38 2.53-4.76 2.54-5.05 2.53-5.14 2.5-5.09 2.5-5.14 2.52-5.32 2.53-4.55 2.31-1.37.98m99.98-54.86-2.92 1.49-2.53 1.5-2.45 1.51-2.47 1.52-2.39 1.53-2.21 1.54-2 1.56-1.86 1.58-1.8 1.64-1.81 1.72-1.82 1.83-1.85 1.93-1.86 2.04-1.85 2.14-1.85 2.21-1.83 2.26-1.83 2.27-1.85 2.25-1.9 2.23-2.01 2.23-2.14 2.23-2.25 2.23-2.35 2.14-2.47 2-2.2 2.18" filter="url(#a)"/><path d="m-29.94-83.95-2.29 1.56-1.87 1.55-1.34 1.49-.93 1.49-.83 1.53-.94 1.58-1.07 1.64-1.01 1.71-.75 1.78-.39 1.84-.13 1.91v3.99l-.03 2.1-.05 2.18.01 2.27.12 2.38.31 2.46.6 2.53.99 2.55 1.35 2.52 1.52 2.5 1.41 2.49 1.22 2.52 1.14 2.53 1.1 2.3 1.38.98M71.15-18.14l1.07 2.61.48 2.93.68 2.94.9 2.73 1.04 2.58 1.1 2.57L77.45.88l.81 2.8.44 2.87.06 2.87-.21 2.81-.32 2.72-.28 2.64-.14 2.6.01 2.59.09 2.62.08 2.63.02 2.65-.04 2.61-.02 2.57.05 2.5.04 2.46-.17 2.41-.58 2.33-.91 2.25-.81 2.38-.19 2.82M-34.7-81.19l-3.76 1.39-1.82 1.53-2.02 1.55-2.41 1.57-2.44 1.57-2.21 1.61-1.97 1.67-1.87 1.77-1.87 1.87-1.89 1.99-1.86 2.09-1.73 2.17-1.57 2.23-1.42 2.26-1.33 2.27-1.32 2.27-1.39 2.27-1.53 2.27-1.68 2.28-1.85 2.31-2 2.35-2.12 2.43-2.16 2.53-2.13 2.63-1.98 2.75-1.77 2.83-1.5 2.87-1.23 2.86-1.03 2.8-.98 2.7-1.06 2.65-1.23 2.62-1.54 2.83" filter="url(#a)"/><path d="m-34.94-80.49.02 1.33.73 1.39.74 1.5-.3 1.59-1.41 1.64-1.83 1.72-1.48 1.78-.72 1.85-.04 1.92.24 1.97.13 2.03-.25 2.1-.58 2.19-.69 2.28-.42 2.38.21 2.47 1.06 2.52 1.92 2.54 2.59 2.52 2.95 2.5 2.95 2.49 2.64 2.48 2.05 2.46 1.44 2.34 1.38 2.13-.22 2.55m-14.76-54.09-3.23 1.65-2.53 1.59-2.54 1.56-2.58 1.57-2.65 1.6-2.65 1.67-2.52 1.76-2.28 1.88-1.93 2-1.59 2.09-1.35 2.18-1.25 2.24-1.26 2.26-1.36 2.28-1.51 2.27-1.66 2.27-1.79 2.27-1.92 2.28-2.03 2.32-2.1 2.36-2.13 2.44-2.11 2.53-1.96 2.64-1.72 2.74-1.38 2.82-1.06 2.86-.89 2.85-.97 2.79-1.29 2.71-1.67 2.67-1.92 2.65-1.89 2.7-1.19 2.75" filter="url(#a)"/><path d="m-37.28-78.95-4.74 1.17-4.24 1.54-3.42 1.6-2.63 1.66-2.49 1.72-2.77 1.8-2.94 1.86-2.83 1.92-2.61 1.98-2.65 2.05-3.14 2.11-4.03 2.2-5.13 2.29-6.18 2.39-6.97 2.47-7.39 2.52-7.42 2.53-7.07 2.53-6.37 2.5-5.31 2.48-3.89 2.46-2.41 2.41-1.49 2.34-2.04 2.27-4.43 2.31-7.29 2.65-4.65 3.66" filter="url(#a)"/><path d="m-40.33-76.49-2.98 1.47-4.49 1.53-4.27 1.55-3.57 1.61-3.09 1.71-2.87 1.84-2.75 1.98-2.61 2.08-2.32 2.17-1.95 2.23-1.59 2.26-1.36 2.26-1.45 2.25-1.88 2.22-2.58 2.22-3.39 2.22-4.16 2.23-4.76 2.24-5.13 2.3-5.27 2.41-5.34 2.55-5.74 2.51-7.7 2.07" filter="url(#a)"/><path d="m-44.16-72.97-2.64 1.17-4.13 1.59-3.89 1.73-3.17 1.89-2.72 2.04-2.6 2.15-2.53 2.22-2.33 2.27-1.95 2.29-1.58 2.28-1.4 2.27-1.39 2.26-1.43 2.26-1.36 2.28-1.15 2.32-.93 2.36-.82 2.45-.93 2.54-1.26 2.65-1.74 2.74-2.25 2.8-2.66 2.84-2.93 2.82-3 2.78-2.87 2.73-2.55 2.7-2.15 2.7-1.78 2.77-1.56 2.9-1.22 3.14-.33 3.56" filter="url(#a)"/><path d="m-45.98-71.34-9.75 2.04-5.91 1.98-2.3 1.96-2.45 2.01-3.67 2.07-4.35 2.15-4.31 2.24-3.98 2.34-3.62 2.44-3.36 2.51-3.13 2.54-2.86 2.54-2.41 2.53-1.8 2.5-1.11 2.48-.52 2.47-.26 2.46-.48 2.47-1.12 2.51-2.04 2.57-2.92 2.62-3.62 2.65-4.11 2.65-4.53 2.62-4.94 2.64-5.18 2.7-5.01 2.85-4.38 2.93-3.52 2.91-2.62 2.75-2.5 2.68M-48.29-69.2l-1.26.78-1.59 1.77-1.65 2.09-1.65 2.18-1.74 2.23-1.86 2.28-1.97 2.3-2.05 2.28-2.16 2.25-2.27 2.24-2.31 2.24-2.22 2.25-1.96 2.28-1.61 2.33-1.29 2.41-1.08 2.51-1.09 2.63-1.31 2.75-1.67 2.83-2.06 2.86-2.28 2.84-2.14 2.76-1.69 2.68-1.12 2.62-.78 2.6-1.31 2.81" filter="url(#a)"/><path d="m-48.54-69.28-1.27 2.07-1.6 1.91-2.36 2-3.17 2.09-3.42 2.15-3.02 2.24-2.35 2.36-1.82 2.45-1.64 2.53-1.69 2.55-1.77 2.55-1.72 2.53-1.53 2.51-1.26 2.48-1.05 2.48-1 2.47-1.12 2.49-1.37 2.52-1.65 2.57-1.84 2.62-1.9 2.65-1.86 2.66-1.79 2.66-1.75 2.68-1.74 2.73-1.74 2.8-1.7 2.86-1.61 2.85-1.43 2.82-1.06 2.77-.52 2.82-.33 3.08-1.29 3.91" filter="url(#a)"/><path d="m-49.84-66.83-5.2 1.56-1.1 1.93-1.59 2.07-2.96 2.13-3.83 2.18-3.96 2.31-3.79 2.43-3.65 2.52-3.64 2.54-3.57 2.54-3.37 2.5-2.95 2.48-2.41 2.45-1.91 2.43-1.61 2.4-1.61 2.38-1.86 2.4-2.23 2.52-2.56 2.71-2.73 2.87-2.67 2.83-2.5 2.34-2.26 1.41" filter="url(#a)"/><path d="m-49.72-66.83-10.53 2.45-2.59 2.23.08 2.23-.31 2.31-1.34 2.34-2.04 2.32-2.39 2.27-2.57 2.26-2.68 2.27-2.68 2.3-2.56 2.34-2.32 2.4-2.02 2.49-1.71 2.59-1.41 2.67-1.14 2.75-.95 2.8-.86 2.82-.91 2.81-1.1 2.79-1.39 2.77-1.69 2.76-1.94 2.76-2.11 2.77-2.18 2.76-2.2 2.76-2.15 2.75-2.06 2.74-1.93 2.76-1.86 2.8-2.02 2.85-2.48 2.88-2.99 2.81-2.77 2.55-1.52 2.16-2.48 2.01" filter="url(#a)"/><path d="m-54.55-61.43-7.27 3.63-9.04 2.73-7.08 2.32-3.65 2.2-.72 2.19.74 2.21.81 2.25.02 2.28-1.08 2.34-2.25 2.43-3.39 2.55-4.27 2.65-4.66 2.75-4.37 2.82-3.51 2.83-2.51 2.8-1.91 2.76-2.09 2.7-3.07 2.68-4.42 2.7-5.42 2.75-5.42 2.84-4.16 2.9-2.64 2.75-3.48 1.87m82.64-60.81-.15.7-.85 2.06-.78 2.57.05 2.67 1.08 2.61 1.66 2.54 1.66 2.48 1.4 2.45 1.28 2.44 1.5 2.42 1.93 2.4 2.33 2.4 2.55 2.45 2.6 2.53 2.63 2.64 2.73 2.69 2.87 2.63 3.04 2.49 3.11 2.42 2.84 2.61 1.9 2.99-.64 2.68" filter="url(#a)"/><path d="m-57.12-56.89-2.21 2.25-2.76 2.12-3.03 2.11-2.62 2.17-1.91 2.22-1.34 2.27-1.15 2.3-1.4 2.36-2.09 2.46-3.02 2.57-4.02 2.67-4.88 2.77-5.44 2.81-5.6 2.83-5.34 2.8-4.64 2.77-3.64 2.74-2.57 2.72-1.75 2.73-1.41 2.75-1.67 2.77-2.36 2.75-3.27 2.71-4.15 2.65-4.79 2.64-5.01 2.71-4.69 2.78-1.16 2.76" filter="url(#a)"/><path d="m-57.12-56.89-2.28 2.27-1.55 2.13-1.69 2.13-1.87 2.18-1.76 2.24-1.4 2.28-1.05 2.33-.88 2.39-.91 2.49-1.08 2.59-1.3 2.7-1.48 2.78-1.61 2.81-1.64 2.83-1.61 2.81-1.51 2.79-1.39 2.76-1.25 2.76-1.12 2.75-.99 2.76-.85 2.76-.65 2.75-.4 2.75-.15 2.75v2.76l-.03 2.78-.26 2.81-.56 2.8-.71 2.71-.49 2.56-.04 2.4.27 2.42.21 2.94.88 4.43M69.88-24.52l1.23 4.3 1.77 3.35 2.02 2.89 1.34 2.73.49 2.7.1 2.7.19 2.68.53 2.6.82 2.54.97 2.53 1.02 2.57 1.04 2.66 1.05 2.76.99 2.85.82 2.87.5 2.85.17 2.8-.04 2.7-.04 2.61.12 2.53.27 2.5.25 2.52.03 2.55-.16 2.53-.03 2.47 1.01 2.3" filter="url(#a)"/><path d="m-60.05-51.87-3.42 3.18-2.65 2.58-1.47 2.48-1.69 2.46-2.57 2.47-3.11 2.46-2.91 2.45-2.13 2.45-1.21 2.47-.57 2.52-.43 2.58-.79 2.64-1.46 2.66-2.14 2.67-2.6 2.67-2.72 2.7-2.48 2.74-2.01 2.79-1.51 2.82-1.09 2.85-.87 2.84-.86 2.86-1.07 2.86-1.45 2.88-1.85 2.86-2.11 2.81-1.99 2.74-1.44 2.68-.97 2.68-1.64 2.55-3.03 1.92" filter="url(#a)"/><path d="m-61.91-47.78-1.62 1.9-4.04 2.35-5.23 2.45-4.04 2.47-2.04 2.47-.96 2.45-1.24 2.45-2.31 2.46-3.25 2.53-3.51 2.59-3.06 2.64-2.28 2.67-1.66 2.67-1.49 2.68-1.83 2.71-2.46 2.75-3.05 2.79-3.33 2.83-3.18 2.84-2.71 2.85-2.09 2.86-1.59 2.86-1.34 2.87-1.39 2.84-1.57 2.81-1.66 2.75-1.53 2.7-1.5 2.69-1.96 2.71-2.71 2.78-1.79 3.03 2.42 3.37" filter="url(#a)"/><path d="m-61.91-47.78-1.02 1.9-1.35 2.36-1.79 2.46-2.91 2.47-4.22 2.47-5 2.46-4.92 2.45-4.15 2.48-3 2.53-1.8 2.59-.75 2.65-.06 2.67.17 2.68-.13 2.69-.88 2.72-1.92 2.75-2.97 2.8-3.75 2.83-4.09 2.84-3.89 2.86-3.23 2.86-2.36 2.87-1.53 2.86-1.07 2.84-1.2 2.8-1.9 2.77-2.88 2.73-3.6 2.72-3.5 2.74-2.38 2.8-.69 2.84.61 2.84.32 2.67-2.84 2.49" filter="url(#a)"/><path d="m-61.91-47.78-1.1 1.91-1.53 2.37-1.77 2.45-1.95 2.48-2.06 2.48-2.11 2.47-2.13 2.45-2.14 2.49-2.22 2.54-2.38 2.6-2.65 2.65-2.92 2.68-3.14 2.69-3.24 2.7-3.19 2.73-2.99 2.76-2.62 2.81-2.06 2.83-1.33 2.85-.61 2.86-.09 2.87-.01 2.86-.4 2.86-1.15 2.84-1.9 2.81-2.27 2.78-2.06 2.75-1.38 2.74-.59 2.75-.13 2.75-.22 2.73-.66 2.64-1.05 2.48-1.07 2.28-.94 2.09-.88 2.04.22 1.83m54.7-86.56-1.6 2.59-.66 2.52-.52 2.4-.55 2.37-.59 2.47-.61 2.6-.6 2.69-.56 2.7-.48 2.66-.4 2.66-.35 2.68-.31 2.73-.31 2.79-.29 2.83-.27 2.84-.22 2.84-.12 2.84-.01 2.85.13 2.86.24 2.83.34 2.79.38 2.74.41 2.69.39 2.67.4 2.7.45 2.77.68 3.02 1.02 3.35" filter="url(#a)"/><path d="m-65.82-39.51-4.88 2.89-.53 2.9-.74 2.85L-73.8-28l-2.63 2.9-2.99 2.87-2.99 2.78-2.68 2.72-2.22 2.68-1.97 2.69-2.18 2.7-2.81 2.73-3.45 2.74-3.57 2.72-2.9 2.7-1.64 2.67-.42 2.69.12 2.76-.25 2.85-1.23 2.91-2.18 2.86-3.12 2.52-5.62 1.69" filter="url(#a)"/><path d="m-67.15-35.61-.93 2.39-.83 2.41-1.46 2.29-2.79 2.41-4.16 2.61-4.79 2.71-4.4 2.71-3.41 2.66-2.47 2.62-2 2.65-1.96 2.73-2.05 2.78-2.01 2.83-1.75 2.83-1.4 2.82-1.05 2.83-.77 2.84-.59 2.86-.63 2.85-.96 2.78-1.52 2.71-1.98 2.66-2.18 2.66-2.61 2.52-2.92 1.9m51.62-66.06-22.53 2.39 4.43 2.41 5.73 2.29 1.34 2.41-3.2 2.61-6.42 2.71-7.78 2.71-7.25 2.66-5.53 2.62-3.61 2.65-2.3 2.73-1.89 2.78-2.2 2.83-2.94 2.83-3.77 2.82-4.41 2.83-4.43 2.84-3.49 2.86-1.64 2.85.4 2.78 1.46 2.71.59 2.66-2.19 2.66-5.94 2.52-8.17 1.9" filter="url(#a)"/><path d="m-67.53-33.7-3.04 3.13-3.21 2.21-2.8 2.38-2.17 2.66-1.33 2.78-.69 2.75-.53 2.69-.76 2.66-1.17 2.7-1.58 2.76-1.91 2.81-2.14 2.85-2.22 2.86-2.01 2.86-1.49 2.86-.74 2.86-.01 2.84.46 2.83.48 2.8.14 2.77-.39 2.75-.84 2.73-1.06 2.73-1.03 2.7-.82 2.66-.56 2.58-.25 2.45.09 2.32.4 2.21.47 2.19.25 2.26.01 2.43.01 2.58-.19 2.42" filter="url(#a)"/><path d="m-67.98-33.03-2.49 2.51-4.42 2.82-4.11 2.99-2.43 2.94-.71 2.82.32 2.74.43 2.71-.15 2.73-1.01 2.75-1.85 2.76-2.39 2.77-2.55 2.76-2.36 2.75-1.98 2.76-1.64 2.76-1.48 2.76-1.51 2.76-1.62 2.74-1.63 2.72-1.42 2.7-1.05 2.72-.63 2.75-.32 2.79-.22 2.82-.35 2.8-.71 2.73-1.17 2.59-1.66 2.43-2.07 2.29-2.32 2.21-2.38 2.24-2.06 2.35-1.06 2.52.56 2.58 1.22 2.17" filter="url(#a)"/><path d="m-68.9-28.93-1.42.74-3.71 2.16-4.29 2.72-4.11 2.86-3.31 2.79-2.2 2.69-1.27 2.66-.72 2.7-.44 2.77-.28 2.82-.19 2.86-.2 2.87-.35 2.87-.56 2.86-.74 2.86-.76 2.85-.63 2.83-.42 2.8-.26 2.78-.26 2.75-.42 2.74-.66 2.71-.9 2.68-1.06 2.63-1.16 2.55-1.27 2.45-1.45 2.36-1.7 2.29-1.93 2.27-1.97 2.28-1.64 2.3-.85 2.3.34 2.26 1.62 2.2 2.51 2.2 2.57 2.34 1.54 2.42" filter="url(#a)"/><path d="m-68.54-30.38-7.72 2.56-8.2 3.12-7.73 2.99-6.09 2.79-4.42 2.69-2.74 2.67-1.09 2.69.24 2.72.96 2.75.93 2.75.21 2.74-1.02 2.73-2.44 2.72-3.71 2.74-4.54 2.75-4.69 2.76-4.09 2.74-2.9 2.67-1.54 2.62-.51 2.61-.3 2.67-.96 2.82-2.07 2.96-2.85 2.99-2.66 2.97-1.25 3.06 3.34 2.86M68.19-31.4l7.36-3.07 4.97-3.03-1.41-2.67-3.56-2.51-2.71-2.49-.95-2.46.49-2.41 1.16-2.31 1.08-2.21.55-2.11-.11-2.06-.57-2.02-.67-1.99-.36-1.93.25-1.85.81-1.75.93-1.68.33-1.68-.87-1.72-2.04-1.81-2.3-1.85-1.3-1.63.74-.59" filter="url(#a)"/><path d="m67.58-33.79 8.06-2.17 5.04-2.67-.94-2.58-2.44-2.53-1.7-2.6-.72-2.65-.18-2.59-.06-2.44-.27-2.26-.62-2.1-.93-1.99-.94-1.91-.61-1.86-.06-1.8.36-1.73.38-1.65-.08-1.6-.73-1.6-1.22-1.66-1.29-1.78-1.13-1.9-1.16-1.88-2.8-1.31" filter="url(#a)"/><path d="m67.43-33.93 2.43-3.89.78-2.59.52-2.42-.24-2.45-.7-2.47-.5-2.41-.08-2.32.07-2.19-.17-2.11-.56-2.04-.81-2.02-.79-1.98-.53-1.93-.15-1.84.15-1.75.2-1.69-.19-1.69-1-1.72-1.94-1.77-2.33-1.75-1.58-1.59.08-1.28.24-1.28" filter="url(#a)"/><path d="m67.29-35.31-5.47-3.43-2.72-2.7-.25-2.52.07-2.63-.49-2.68-1.15-2.61-1.64-2.44-2-2.26-2.22-2.1-2.33-2-2.31-1.92-2.18-1.86-2.01-1.79L40.76-68l-1.73-1.71-1.72-1.68-1.79-1.68-1.89-1.67-2.01-1.67-2.06-1.63-2.05-1.57-1.96-1.46-1.83-1.34-1.75-1.21-1.72-1.08-1.75-.99-1.8-.93-1.81-.92-1.78-.93-1.73-.9-1.75-.8-1.81-.68-2.15-.8" filter="url(#a)"/><path d="m67.29-35.31-1.14-3.42-.54-2.7-.32-2.52-.46-2.61-.69-2.69-.77-2.6-.72-2.45-.66-2.25-.71-2.1-.85-2-1.05-1.92-1.25-1.85-1.38-1.8-1.44-1.74-1.45-1.7-1.45-1.67-1.47-1.68-1.55-1.68-1.66-1.67-1.79-1.65-1.9-1.59-1.97-1.48-1.97-1.35-1.97-1.2-1.96-1.07-2-.96-2.09-.9-2.29-.92-2.65-1-3.25-1.05-4.3-1.06" filter="url(#a)"/><path d="m65.75-39.69.83-1.12-1.05-2.16-1.18-2.45-1.07-2.49-1.11-2.44-1.25-2.31-1.35-2.2-1.38-2.1-1.34-2.05-1.3-2.01L54.32-63l-1.19-1.91-1.15-1.84-1.15-1.77-1.22-1.73-1.34-1.71-1.53-1.71-1.71-1.7-1.88-1.67-1.99-1.6-2.03-1.51-2.07-1.43-2.13-1.37-2.21-1.3-2.24-1.21-1.66-1.01" filter="url(#a)"/><path d="m65.75-39.69 5.02-1.14-.31-2.17-1.55-2.46-1.81-2.5-1.52-2.44-1.05-2.32-.65-2.21-.42-2.11-.35-2.06-.43-2.02-.63-1.97-.9-1.91-1.17-1.85-1.41-1.78-1.62-1.75-1.76-1.72-1.84-1.7-1.82-1.69-1.74-1.64-1.62-1.58-1.58-1.5-1.71-1.41-1.96-1.32-2.23-1.21-2.39-1.1-2.34-.98-2.2-.87-2.16-.8-2.38-.78-3.33-.91" filter="url(#a)"/><path d="m64.44-42.69-.43-1.33-.93-2.5-1.17-2.86-1.21-2.73-1.17-2.46-1.12-2.21-1.15-2.05-1.23-1.96-1.29-1.89-1.34-1.85-1.35-1.78-1.38-1.73-1.43-1.69-1.54-1.66-1.68-1.67-1.84-1.68-1.97-1.67-2.05-1.65-2.07-1.59-2.06-1.47-2.01-1.34-1.95-1.2-1.91-1.06-1.87-.95-1.9-.9-2.06-.92-2.36-.99-2.89-1.06-3.76-1.05m49.12 47.9 6.11-1.3-.79-2.47-1.24-2.85-1.18-2.73-1.03-2.45-.5-2.2.27-2.03.88-1.94 1.11-1.89 1.02-1.84.82-1.78.55-1.72.19-1.65-.27-1.62-.83-1.64-1.39-1.67-1.86-1.72-2.07-1.74-1.97-1.68-1.64-1.54-1.58-1.42-2.08-1.36-1.7-1.23" filter="url(#a)"/><path d="m62.37-46.54 4.6-1.76-.29-2.46-2.36-2.35-2.56-2.14-2.16-2.03-1.74-2.01-1.36-2.01-1-1.97-.63-1.91-.37-1.83-.32-1.76-.46-1.72-.78-1.7-1.1-1.7-1.39-1.68-1.61-1.64-1.83-1.58-2.07-1.48-2.33-1.4-2.54-1.31-2.58-1.21-2.45-1.09-2.22-.97-2.06-.86-2.04-.8-2.22-.77-3.45-.91" filter="url(#a)"/><path d="m62.97-45.2 1.93-4.42-.32-2.97-1.32-2.37-1.71-2.09L60.18-59l-.62-1.9.2-1.87.75-1.84.83-1.78.4-1.71-.39-1.66-1.26-1.64-1.89-1.65-2.15-1.67L54-76.41l-1.78-1.67-1.58-1.6-1.59-1.49-1.77-1.35-1.97-1.19-2.01-1.03-1.9-.89-1.81-.81-1.86-.89-2.17-1.18" filter="url(#a)"/><path d="m58.75-54.51-.8-1.28-1.04-1.74-1.27-1.97-1.44-2.05-1.49-2.02-1.49-1.92-1.48-1.82-1.5-1.74-1.56-1.7-1.64-1.7-1.71-1.7-1.76-1.67-1.8-1.61-1.81-1.55-1.85-1.46-1.89-1.37-1.93-1.27-1.96-1.16-2-1.07-2.02-.97-2.06-.89-2.11-.82-2.16-.77-2.23-.72-2.3-.67-2.39-.61-2.49-.52-2.59-.4-2.45-.26H4.07" filter="url(#a)"/><path d="m58.16-55.46 5.35-2.08 3.74-1.84-1.02-1.83-2.33-1.88-1.63-1.87-.75-1.8-.47-1.71-.81-1.67-1.44-1.65-2.04-1.67-2.43-1.67-2.58-1.66-2.54-1.6-2.41-1.52-2.24-1.41-2.1-1.29-2.03-1.18-2.1-1.07-2.26-1-2.49-.93-2.75-.89-2.96-.84-3.09-.77-3.15-.69-3.14-.6-3.11-.5-3.05-.38-3.04-.3-3.07-.2-3.2-.13-3.43-.04-3.73.05-4.03.14-4.23.23-3.62.24" filter="url(#a)"/><path d="m58.16-55.46-1.11-2.08-.61-1.84-.88-1.83-1.12-1.89-1.15-1.87-1.18-1.79-1.34-1.72-1.6-1.67-1.85-1.65-2.02-1.67-2.07-1.67-2.07-1.66-2.02-1.6-1.98-1.52-1.95-1.41-1.93-1.29-1.91-1.17-1.94-1.08-1.97-.99-2.05-.94-2.14-.89-2.25-.83-2.35-.77-2.39-.68-2.42-.6-2.38-.49-2.34-.38-2.3-.29-2.28-.21-2.31-.12-2.4-.03-2.52.04-2.63.13-2.68.19-2.62.18-2.56.1" filter="url(#a)"/><path d="m56.92-57.8-11.06-1.73-.65-2.17 1.12-2.1.3-1.94-.7-1.8-1.25-1.71-1.52-1.69-1.65-1.7-1.79-1.69L37.76-76l-2.12-1.62-2.28-1.53-2.4-1.44-2.48-1.35L26-83.18l-2.42-1.15-2.29-1.05-2.16-.96-2.02-.88-1.91-.82-1.84-.75-1.8-.69-1.76-.62-1.72-.55-1.68-.46-1.59-.37-1.48-.27-1.35-.17-1.22-.09H-.33l-.98.08-.86.16-.73.23-.57.3-.57.24" filter="url(#a)"/><path d="m56.24-58.77-1.57-2.95-1.46-2.21-1.22-1.95-.84-1.76-.53-1.68-.53-1.68-.88-1.69-1.36-1.71-1.71-1.67-1.83-1.62-1.75-1.53-1.6-1.43-1.51-1.34-1.53-1.24-1.65-1.14-1.8-1.05-1.97-.95-2.13-.88-2.27-.81-2.41-.74-2.55-.68-2.68-.62-2.82-.53-2.95-.45-3.12-.36-3.31-.27-3.53-.17-3.79-.08-4.09.01-4.4.09-4.69.16-4.93.25-5.01.32-4.94.4-5.03.5-6.07.57" filter="url(#a)"/><path d="m54.74-61.05 4.2-1.93.44-2.19-2.88-1.84-3.52-1.61-2.87-1.56-1.96-1.58-1.22-1.63-.65-1.68-.25-1.69-.05-1.65-.09-1.56-.48-1.43-1.16-1.28-1.97-1.15-2.66-1.03-2.99-.94-2.97-.9-2.7-.9-2.48-.92-2.41-.89-2.54-.79-2.97-.66-4.82-.79" filter="url(#a)"/><path d="m53.58-62.81 1.26-1.36-.02-1.85-1.22-1.72-1.82-1.63-1.86-1.64-1.68-1.69-1.59-1.71-1.63-1.68-1.73-1.62-1.86-1.53-1.97-1.44-2.07-1.34-2.14-1.24-2.19-1.13-2.24-1.05-2.29-.95-2.35-.87-2.4-.81-2.45-.75-2.49-.68-2.51-.63-2.53-.55-2.55-.46-2.57-.37-2.56-.27-2.56-.18-2.58-.08-2.66-.01-2.85.08-3.18.16-3.56.26-3.85.43" filter="url(#a)"/><path d="m50.14-66.52-3.63-1.19-4.37-1.17-4.25-1.42-3.51-1.57-2.44-1.64-1.63-1.7-1.43-1.7-1.66-1.66-2.06-1.55-2.35-1.41-2.42-1.26-2.27-1.13-1.98-1.01-1.68-.95-1.47-.9-1.4-.89-1.45-.89-1.56-.84-1.7-.75-1.83-.64-1.83-.49-1.59-.34-.98-.16m48.1 23.44 4.29-.45 1.73-1.48-.59-1.62-2.72-1.66-3.5-1.7-3.02-1.72L43-78.64l-.98-1.55-.46-1.4-.45-1.25-.69-1.12-.98-1-1.2-.94-1.38-.9-1.72-.89-2.31-.88-3.09-.84-3.79-.75-4.19-.63-4.18-.5-3.85-.33-3.55-.16" filter="url(#a)"/><path d="m49.28-67.53-1.91-2.6-1.66-1.84-1.73-1.66-1.84-1.72-1.93-1.74-1.98-1.67-2.01-1.55-2.03-1.38-1.98-1.24-1.91-1.11-1.84-1-1.83-.94-1.91-.9-2.04-.88-2.22-.85-2.37-.8-2.46-.71-2.49-.6-2.42-.49-2.3-.37-2.09-.29-1.88-.2-1.77-.13-2.09.06" filter="url(#a)"/><path d="m48.72-68.45 2.95-2.32 2.53-1.98-1.24-1.87-3.4-1.76-3.91-1.63-3.64-1.52-3.13-1.4-2.65-1.31-2.29-1.22-2.02-1.11-1.82-1.02-1.71-.92-1.67-.85-1.73-.79-1.87-.74-2.06-.67-2.31-.62-2.57-.53-2.8-.45-2.96-.36-3.08-.26-3.19-.16-3.33-.08h-3.58l-3.96.09-4.4.16-4.8.24-4.97.29-4.88.24" filter="url(#a)"/><path d="m48.72-68.45-1.65-2.32-2.12-1.98-2.13-1.85-2.03-1.76L38.87-78 37-79.51l-1.89-1.4-1.92-1.31-1.93-1.22-1.9-1.12-1.88-1.01-1.89-.93-1.95-.85-2.04-.79-2.17-.74-2.28-.68-2.36-.62-2.39-.55-2.4-.46-2.37-.37-2.29-.26-2.21-.17-2.17-.09-2.19-.01-2.34.07-2.67.14-3 .13" filter="url(#a)"/><path d="m47.1-70.89-1.7-1.4-1.8-1.44-2.09-1.68-2.2-1.78-2.17-1.69-2.09-1.55-1.99-1.37-1.92-1.22-1.87-1.1-1.84-.99-1.89-.94-1.99-.89-2.11-.87-2.25-.84-2.34-.77-2.38-.69-2.34-.58-2.26-.47-2.14-.37-2-.28-1.91-.2-1.87-.12-1.92-.04-2.03.04-2.21.16-2.82.27" filter="url(#a)"/><path d="m47.1-70.89-.97-1.41-.96-1.45-1.3-1.7-1.52-1.78-1.8-1.69-2.07-1.54-2.21-1.37-2.22-1.23-2.19-1.09-2.17-1.01-2.19-.94-2.24-.9-2.31-.86-2.37-.81-2.42-.75-2.41-.66-2.38-.56-2.33-.46-2.27-.36-2.25-.27-2.28-.18L1.88-92l-2.47-.02-2.6.06-2.74.14-2.89.22-3.06.3-3.28.39-3.45.51-3.37.6-2.81.58" filter="url(#a)"/><path d="m47.1-70.89-1.76-1.41-1.94-1.45-2.25-1.69-2.37-1.78-2.34-1.7-2.23-1.54-2.08-1.37-1.96-1.22-1.9-1.1-1.9-1-1.97-.94-2.07-.9-2.17-.86-2.23-.82-2.25-.75-2.24-.66-2.18-.57-2.1-.46-2.02-.36-1.92-.27-1.86-.18-1.82-.1-1.8-.03-1.83.06-1.85.14-1.87.2-1.91.29-2.01.39-2.17.54-2.25.65" filter="url(#a)"/><path d="m47.1-70.89-1.7-1.41-1.76-1.46-2.06-1.7-2.2-1.77-2.19-1.7-2.11-1.54-2.02-1.37-1.95-1.22-1.9-1.1-1.9-1-1.94-.94-2.04-.9-2.15-.86-2.24-.81-2.32-.75-2.33-.66-2.3-.55-2.23-.46-2.15-.36-2.07-.26-2.01-.18-1.99-.09L-.48-92l-2.06.07-2.13.14-2.2.23-2.27.31-2.35.4-2.4.49-2.38.58-2.24.61-2.1.61" filter="url(#a)"/><path d="m46.51-71.15 4.6-1.79-2.33-1.81-2.34-1.77-1.04-1.64-.48-1.5-1.03-1.4-2.05-1.3-2.85-1.21-3.14-1.1-2.99-1-2.64-.92-2.37-.85-2.25-.78-2.32-.72-2.48-.65-2.67-.58-2.83-.51-2.95-.41-3.04-.33-3.15-.23-3.26-.14-3.43-.05-3.63.04-3.86.11-4.09.2-4.27.28-4.4.36-4.49.45-4.52.53-4.5.61-4.47.69-4.42.75-4.4.82-4.44.87-4.72.93-5.37 1.03-7.14 1.25" filter="url(#a)"/><path d="m42.92-74.51 3.99-2.16-2.97-1.72-3.41-1.44-2.96-1.35-2.6-1.29-2.37-1.2-2.18-1.1-2.03-.99-1.91-.9-1.83-.83-1.8-.77-1.86-.71-1.99-.66-2.18-.59-2.38-.51-2.59-.43-2.74-.33-2.88-.23-3-.14-3.14-.06-3.31.03-3.55.1-3.8.19-4 .26-4.13.35-4.17.42-4.09.52-3.94.61-3.76.7-3.78.78-4.59.73" filter="url(#a)"/><path d="m30.99-83.64-1.15-.6-1.56-.96-1.71-.9-1.9-.82-2.05-.78-2.12-.74-2.19-.7-2.22-.65-2.26-.58-2.29-.48-2.3-.4-2.32-.29-2.37-.21-2.44-.11-2.55-.02-2.66.05-2.78.14-2.87.22-2.92.3-2.93.38-2.94.46-2.92.54-2.91.62-2.91.7-2.91.76-2.95.83-3.04.9-3.18.98-3.31 1.1-3.49 1.25-3.72 1.38-3.57 1.36" filter="url(#a)"/><path d="m24.92-86.29 1.49-.92-2.63-1.04-2.84-.91-2.57-.76-2.5-.6-2.55-.48-2.57-.36-2.55-.27-2.49-.19-2.44-.11-2.44-.03-2.48.05-2.55.14-2.65.21-2.74.3-2.81.37-2.83.46-2.82.53-2.78.61-2.76.69-2.78.75-2.86.83-2.98.91-3.12 1-3.23 1.08-3.27 1.17-3.26 1.27-3.22 1.35-3.18 1.42-3.15 1.48-3.16 1.52-3.22 1.57-3.41 1.63-3.81 1.72-4.07 1.88-2.87 2.19" filter="url(#a)"/><path d="m23.83-87.01-2.47-1.27-2.49-.97-2.54-.75-2.51-.59-2.41-.46-2.29-.35-2.18-.27-2.13-.19-2.18-.12-2.29-.03-2.43.04-2.57.12-2.73.2-2.93.28-3.19.36-3.5.44-3.85.52-4.13.59-4.31.66-4.31.72-4.16.8-3.92.87-3.7.94-3.67 1.01-3.93 1.13-4.48 1.3-5.15 1.51-6.15 1.57" filter="url(#a)"/><path d="m23.83-87.01-1.63-1.27-3.01-.97-2.96-.75-2.66-.59-2.39-.46-2.22-.35-2.09-.27-2.01-.19-2.01-.11-2.06-.04-2.13.05-2.22.12-2.31.2-2.4.29-2.48.36-2.53.45-2.58.51-2.58.6-2.58.66-2.56.73-2.55.81-2.51.87-2.47.95-2.43 1.03-2.42 1.14-2.55 1.28-2.74 1.38-2.76 1.33-2.19.97" filter="url(#a)"/><path d="m23.83-87.01-.57-1.26-2.69-.97-2.79-.75-2.52-.59-2.35-.46-2.3-.36-2.3-.28-2.31-.2L3.64-92l-2.44-.05-2.57.02-2.73.1-2.95.18-3.19.25-3.46.33-3.71.42-3.84.5-3.8.56-3.69.61-3.76.66-4.32.75-5.08 1" filter="url(#a)"/><path d="m18.33-89.5-3.07-.74-2.38-.51-2.27-.42-2.14-.33-2.02-.24-1.94-.17-1.93-.1-1.98-.02-2.04.07-2.12.14-2.19.22-2.25.31-2.31.38-2.35.47-2.37.54-2.37.61-2.36.69-2.34.76-2.32.83-2.31.92-2.32.99-2.33 1.09-2.36 1.17-2.38 1.27-2.36 1.35-2.3 1.42-2.2 1.48-2.08 1.52-2.02 1.57-2.04 1.62-2.14 1.71-2.25 1.88-1.99 2.19" filter="url(#a)"/><path d="m15.12-90.01-.23-.77-1.92-.48-2.62-.33-2.88-.23-2.89-.14-2.83-.05-2.83.02-2.93.09-3.04.18-3.12.25-3.12.34-3.08.41-3.04.5-3.09.57-3.32.65-3.71.72-4.22.8-4.74.87-5.22.95-5.58 1.04-5.85 1.15-5.92 1.25-5.74 1.36-5.34 1.44-4.9 1.49-4.85 1.53-5.4 1.53-5.99 1.41-4.08.97" filter="url(#a)"/><path d="m15.12-90.01-2.51-.78-2.37-.47-2.41-.33-2.27-.23-2.13-.13L1.37-92l-2.06.03-2.09.1-2.11.19-2.08.27-2.02.35-1.94.43-1.87.51-1.8.6-1.77.67-1.75.75-1.75.83-1.75.9-1.73 1-1.73 1.09-1.71 1.18-1.68 1.27-1.66 1.36-1.61 1.42-1.56 1.49-1.49 1.52-1.42 1.55-1.33 1.58-1.2 1.62-1.1 1.67-1.03 1.77-1.01 1.87-1.04 1.99-1.04 2.09-.96 2.23-.85 2.52-.97 2.76" filter="url(#a)"/><path d="m12.11-91.09-1.68-.28-2.39-.28-2.29-.21-2.11-.13-2.06-.06-2.12.02-2.23.1-2.31.17-2.35.24-2.33.33-2.26.4-2.19.48-2.14.57-2.12.64-2.12.71-2.15.77-2.2.84-2.26.91-2.34 1-2.42 1.11-2.5 1.24-2.55 1.36-2.51 1.44-2.34 1.55" filter="url(#a)"/><path d="m11.2-91.34-3.22-.34-2.45-.23-2.07-.12-2.02-.04-2.09.03-2.21.11-2.3.18-2.32.27-2.3.34-2.22.42-2.17.5-2.1.59-2.07.66-2.05.73-2.05.8-2.08.88-2.11.96-2.15 1.05-2.19 1.15-2.21 1.26-2.19 1.36-2.15 1.43-2.07 1.5-1.99 1.52-1.92 1.54-1.86 1.56-1.93 1.68-2.36 2.35" filter="url(#a)"/><path d="m4.17-92.19-1.06.07-1.81-.01-2.11.04-2.31.12-2.46.2-2.53.28-2.5.37-2.42.44-2.3.53-2.2.6-2.13.69-2.1.76-2.13.83-2.22.91-2.33 1-2.45 1.09-2.54 1.19L-36-81.8l-2.52 1.37-2.41 1.43-2.28 1.49-2.14 1.52-2.06 1.55-2.02 1.57-2.07 1.62-2.14 1.67-2.25 1.76-2.35 1.87-2.42 1.98-2.49 2.09-2.54 2.23-2.5 2.51-2.03 2.75" filter="url(#a)"/><path d="m2.92-92.34-2.36.09-2.4.1-2.48.19-2.46.26-2.42.34-2.41.42-2.49.51-2.69.58-2.95.66-3.18.72-3.33.8-3.38.87-3.33.96-3.24 1.04-3.14 1.13-3.07 1.22-3.05 1.3-3.07 1.37-3.12 1.45-3.18 1.5-3.26 1.56-3.36 1.62-3.49 1.68-3.67 1.75-3.88 1.81-4.07 1.88-4.19 1.94-4.16 1.99-4.02 2.05-3.9 2.1-3.99 2.19-4.39 2.35-4.96 2.6-4.96 2.75-3.61 2.16" filter="url(#a)"/><path d="m2.92-92.34-2.39.09-2.42.11-2.39.18-2.33.26-2.29.34-2.32.43-2.38.51-2.48.59-2.55.65-2.6.73-2.57.8-2.51.88-2.41.96-2.33 1.05-2.31 1.13-2.34 1.23-2.43 1.3-2.5 1.38-2.54 1.45-2.53 1.51-2.53 1.57-2.55 1.63-2.61 1.69-2.71 1.75-2.8 1.82-2.79 1.88-2.65 1.95-2.4 2-2.13 2.07-1.99 2.15-2.06 2.24-2.35 2.37-2.68 2.51-2.82 2.64-2.72 2.64-2.75 2.55-3.33 2.41" filter="url(#a)"/></g><g fill="none" stroke="#000"><circle cx="10.728" cy="9.224" r="1.944" filter="url(#a)"/><circle cx="8.696" cy="11.18" r="2.096" filter="url(#a)"/><circle cx="10.116" cy="12.092" r="1.108" filter="url(#a)"/><circle cx="10.236" cy="9.496" r="1.156" filter="url(#a)"/><circle cx="10.892" cy="10.3" r="2.748" filter="url(#a)"/><circle cx="11.168" cy="9.52" r="2.192" filter="url(#a)"/><circle cx="10.132" cy="11.268" r="1.278" filter="url(#a)"/><circle cx="10.368" cy="9.844" r="2.656" filter="url(#a)"/><circle cx="9.16" cy="9.44" r="1.118" filter="url(#a)"/><circle cx="8.052" cy="10.328" r="2.348" filter="url(#a)"/><circle cx="-7.826" cy="14.82" r="1.678" filter="url(#a)"/><circle cx="-9.378" cy="14.388" r="2.426" filter="url(#a)"/><circle cx="-8.87" cy="17.912" r="2.538" filter="url(#a)"/><circle cx="-9.118" cy="15.316" r="1.804" filter="url(#a)"/><circle cx="-8.466" cy="16" r="2.346" filter="url(#a)"/><circle cx="-10.066" cy="17.04" r="1.066" filter="url(#a)"/><circle cx="-9.206" cy="17.9" r="1.268" filter="url(#a)"/><circle cx="-10.986" cy="14.492" r="1.554" filter="url(#a)"/><circle cx="-9.318" cy="14.752" r="2.644" filter="url(#a)"/><circle cx="-11.402" cy="15.672" r="2.676" filter="url(#a)"/></g><path fill="#D77F8C" stroke="#000" stroke-linejoin="round" stroke-width="3" d="m-45.34 57.69.18-1.21.2-1.17.23-1.13.25-1.08.27-1.04.29-.99.32-.95.33-.91.36-.87.37-.83.4-.79.42-.74.43-.71.46-.67.47-.64.5-.59.51-.56.53-.53.55-.49.57-.45.58-.42.6-.39.62-.36.64-.32.65-.29.67-.26.68-.23.7-.2.71-.17.73-.15.75-.11.76-.09.77-.07.79-.03.8-.01.81.01.83.04.84.06.85.08.86.11.88.13.89.14.9.17.91.19.92.21.94.23.94.24.95.26.97.28.97.29.98.31.99.32 1 .34 1.01.35 1.01.37 1.03.38 1.03.38 1.04.4 1.04.41 1.06.42 1.06.43 1.06.44 1.07.45 1.08.45 1.08.46 1.09.47 1.09.47 1.1.47 1.1.48 1.1.49 1.11.49 1.12.49 1.11.49 1.12.49 1.12.49 1.13.5 1.12.49 1.13.49 1.13.49 1.13.49 1.13.48 1.13.48 1.13.48 1.14.47 1.13.47 1.13.46 1.13.45 1.13.44 1.13.44 1.13.43 1.13.42 1.12.41 1.12.4 1.12.38 1.12.38 1.11.36 1.11.35 1.1.34 1.11.32 1.09.31-1.09-.31-1.11-.32-1.1-.34-1.11-.35-1.11-.36-1.12-.38-1.12-.38-1.12-.4-1.12-.41-1.13-.42-1.13-.43-1.13-.44-1.13-.44-1.13-.45-1.13-.46-1.13-.47-1.14-.47-1.13-.48-1.13-.48-1.13-.48-1.13-.49-1.13-.49-1.13-.49-1.12-.49-1.13-.5-1.12-.49-1.12-.49-1.11-.49-1.12-.49-1.11-.49-1.1-.49-1.1-.48-1.1-.47-1.09-.47-1.09-.47-1.08-.46-1.08-.45-1.07-.45-1.06-.44-1.06-.43-1.06-.42-1.04-.41-1.04-.4-1.03-.38-1.03-.38-1.01-.37-1.01-.35-1-.34-.99-.32-.98-.31-.97-.29-.97-.28-.95-.26-.94-.24-.94-.23-.92-.21-.91-.19-.9-.17-.89-.14-.88-.13-.86-.11-.85-.08-.84-.06-.83-.04-.81-.01-.8.01-.79.03-.77.07-.76.09-.75.11-.73.15-.71.17-.7.2-.68.23-.67.26-.65.29-.64.32-.62.36-.6.39-.58.42-.57.45-.55.49-.53.53-.51.56-.5.59-.47.64-.46.67-.43.71-.42.74-.4.79-.37.83-.36.87-.33.91-.32.95-.29.99-.27 1.04-.25 1.08-.23 1.13-.2 1.17" filter="url(#a)"/></svg>