<svg xmlns="http://www.w3.org/2000/svg" width="500" height="500" viewBox="-100 -100 200 200"><defs><clipPath id="c"><path d="m34.19-8.28-.12-.61-.17-.58-.21-.56-.27-.54-.31-.51-.36-.49-.4-.47-.44-.45-.49-.43-.53-.41-.56-.38-.61-.38-.64-.35-.68-.34-.71-.32-.72-.35-.77-.34-.82-.32-.87-.31-.92-.29-.96-.27-1-.25-1.04-.24-1.07-.22-1.11-.21-1.14-.19-1.16-.17-1.19-.15-1.21-.14-1.22-.13-1.24-.1-1.25-.1-1.26-.07-1.26-.06-1.26-.05-1.27-.03-1.25-.01H2.44l-1.24.01-1.22.03-1.22.05-1.19.05-1.18.07-1.16.09-1.13.1-1.11.11-1.08.12-1.05.13-1.02.15-.99.16-.96.17-.93.18-.89.19-.86.21-.83.21-.79.22-.76.23-.72.24-.69.25-.66.25-.62.27-.59.27-.56.28-.54.28-.5.29-.48.3-.44.3-.42.31-.4.32-.36.32-.34.34-.32.34-.28.34-.27.36-.23.36-.22.36-.19.38-.17.37-.14.39 1.33 6.17.38.6.4.61.42.62.42.63.44.63.46.63.46.65.48.64.5.65.51.65.52.66.53.66.54.65.56.66.57.66.59.67.6.66.62.67.64.67.64.66.67.67.67.65.69.65.71.64.71.62.73.62.75.59.75.58.77.56.78.54.79.52.8.49.81.46.83.43.83.4.85.36.85.33.86.3.87.25.89.21.88.16.9.13.91.07.91.03.92-.02.93-.07.93-.12.94-.17.94-.22.95-.28.95-.33.96-.38.96-.44.96-.49.97-.54.96-.59.97-.64.96-.69.96-.74.96-.78.96-.83.95-.86.94-.91.93-.94.77-.66.75-.68.74-.7.72-.71.71-.73.7-.74.67-.76.66-.76.64-.77.61-.78.59-.77.56-.78.53-.78.5-.77.47-.76"/></clipPath><clipPath id="b"><path d="m-35.51-10.93.3-.46.34-.46.38-.44.42-.42.45-.42.48-.39.53-.39.56-.37.59-.35.63-.35.66-.33.69-.31.73-.31.75-.28.79-.28.75-.34.8-.33.86-.31.91-.29.95-.27 1.01-.26 1.04-.24 1.09-.22 1.13-.2 1.17-.19 1.2-.17 1.23-.14 1.25-.14 1.28-.11 1.3-.1 1.31-.07 1.33-.07 1.33-.04 1.35-.03 1.34-.01h1.35l1.34.02 1.33.04 1.33.05 1.31.07 1.29.08 1.28.09 1.25.1 1.23.12 1.21.14 1.18.14 1.15.16 1.12.16 1.08.18 1.05.19 1.02.2.98.2.94.22.91.22.86.24.83.24.79.24.76.26.71.26.68.26.64.27.61.28.58.28.54.29.51.28.48.3.45.29.42.31.39.31.36.31.33.32.3.32.27.33.25.33.22.34.19.34.16.34.15.35.11.35-2.31 4.98-.44.6-.45.61-.47.62-.48.63-.51.63-.52.65-.53.64-.56.66-.57.66-.58.67-.61.67-.61.68-.64.69-.65.68-.67.69-.68.7-.71.71-.72.71-.75.71-.76.72-.78.72-.79.72-.82.71-.83.71-.85.71-.86.7-.87.7-.89.68-.91.66-.92.65-.93.64-.94.61-.95.59-.96.57-.97.54-.98.51-.98.47-.99.44-1 .4-1 .37-1 .32-1 .27-1.01.23-1 .18-1.01.13-1 .07-1 .02-.99-.04-.99-.1-.99-.16-.97-.21-.97-.29-.96-.34-.95-.41-.94-.47-.92-.53-.91-.6-.9-.66-.88-.72-.87-.79-.85-.84-.84-.89-.81-.95-.8-1-.7-.65-.7-.68-.68-.69-.66-.72-.65-.75-.63-.76-.61-.77-.59-.79-.58-.8-.55-.81-.53-.82-.5-.82-.49-.81-.46-.82-.43-.8"/></clipPath><linearGradient id="d" x1="0%" x2="100%" y1="0%" y2="0%"><stop offset="0%" style="stop-color:[object Object];stop-opacity:1"/><stop offset="15.6%" style="stop-color:[object Object];stop-opacity:1"/><stop offset="100%" style="stop-color:[object Object];stop-opacity:1"/></linearGradient><filter id="a"><feTurbulence baseFrequency=".05" numOctaves="3" result="noise" type="noise"/><feDisplacementMap in="SourceGraphic" in2="noise" scale="2"/></filter></defs><rect width="100%" height="100%" x="-100" y="-100" fill="#F5FFFA"/><path fill="#FFDAB9" stroke="#000" stroke-linejoin="round" stroke-width="1.667" d="m80.69.95-.3.49.05 2.17.2 1.13L80.49 7l-.11-1.15-.25 2.37.16-.02-.57 3.7.25-1.12-.69 3.76-.18.28-.28 2.29.46-1.89-.72 3.12-.6 2.42-.18.5-.51 1.89.22-1.09-.39 2.08-.28.34-.67 2.39-.19.51-.98 2.2.45-.24-.36.63-1.39 3.16-.05.24-1.06 2.4-.21.34-.47 1.07-.68 1.23-.83 1.48.02.51-.61 1.21-1.36 1.73.33-.07-2.33 3.35v.45l-.04-.16-1.42 2.29.14-.66-1.55 2.14-.3.72-.64.74-1.68 1.45-.08.61-1.02 1.17-.95.86.32-.16-3.13 3.17.74-.57-.66.37-2.31 2.16-.35.55-.74.5-.28.4-2.29 2.01-.05.05-3.21 2.41-.85.55.52-.57-.52.62-2.89 1.93-.99.43-1.02.95.57-.35-3.17 1.65-.72.54-.02-.18-1.96.93-.81.55-1.75.85 1.05-.57-2.49 1.11.12.02-1.77 1.04-1.17.33-.99.29-1.52.48-1.95.77-1.4.32.29.11-1.49.47-.14.08-3.06.61-1.94.4-1.73.5-2.1.49 1.1-.28-2.38.37-1.52.34.07-.12-.96.26-1.34.11-.46-.25-3.91.39-.6.21-1.42-.24 1.09-.01-1.82.08-2.02-.01-1.8-.03-.43-.07-1.83.01-.17-.16-1.95-.15-1.63.16-.51-.3-3.28-.21.16-.12-1.17-.08-.17-.36-1.68-.19-2.05-.5-.72-.18-.83-.24-3.66-.82 1.55.49-3.17-1.03.36.26-1.86-.77-.58-.13-3.18-1.29-.42-.29-1.3-.33-2.54-1.43 1.2.83-1.37-.9-2.23-1.02-.15-.02-.21-.24-3.22-1.68.61.19-.72-.42-1.85-.86-1.84-1.36.6.44-.9-.29-1-1.24-1.61-.89-2.04-1.6-.44-.11-1.77-1.62-.04-.24-.45-.32-1.7-1.26-1.15-.9-.4-.57-2.48-2.32-.69-.61 1.02.88-2.64-2.82-.53-.25-1.12-1.53.17-.25-1.32-1.04-.66-1.06-1.94-2.29.46.5.05-.15-2.06-2.6.56.88L-68.1 44l.05.3-.24-.29-.65-1.1-1.83-3.23.63.97-1.31-2.23-1.05-2.43.36.48-.26.21-.54-1.88-.32-.92-1.2-2.25-.29-.56.14-.19-1.23-3.29-.11-.39-.53-.95.06-.59-1.03-2.43-.29-1.68-.07-.73L-79 17.1l.21.97.12-1.05-.76-3.25.04-.26-.06-1.11.17 1.62-.78-3.65.12.15-.58-4.56.37 1.26-.26-4.06-.19 1.79.1-2.86.05-.16-.27-2.1.29-1.91-.05-1.86-.17-1.03.34-.68-.19-1.25.57-2.14-.34-.59.04 1.13.21-2.78.13-.96.58-1.42.52-2.97-.55 1.88.49-2.08.41-3.01.46-1.21-.03.2.67-3.14.52-.31.57-2.01-.01-.23-.04-.13.56-1.46.12-.78 1.21-3.15.62-.97.45-1.08-.4.27 2.1-3.52-.36-.18.55-1.12.56-.65.57-.74 1.73-2.84-.44.55 1.73-2.75.77-1.35-.35.31.92-1.48.52-.64.1-.28 1.69-2.21.68-.62 1.45-2.15.43-.22 1.1-1.06.44-1.01.82-.73.68-.63.1.19.98-1.27 2.23-2.17 1.81-1.64.58-.68.22.03 1.31-1.41 1.31-.68-.6.05 1.07-.84 1.25-.79 2.05-1.23 1.56-1.48.21.27 1.13-1.04 1.06-.44 1.67-1.22 1.19-.78 1.25-.34-.45.1.61-.65 3.52-1.6-.28.27 1.46-.71-.91.21.88-.4 2.47-.94 1.64-.62.72-.25 2.42-.85 1.9-.85-.4.07.77.03 2.94-1.05 1.66-.49-.47.16 2.04-.54 1.93-.14-.05-.25-.37.28 3.38-.59-.28.08 2.32-.34 1.4-.35.7-.09 1.58.11.31-.16.93-.15 4.82.05-1.23.04 2.2-.35 1.71.34-1.47-.3 3.88.21-1.01.03 2.51-.02.29.19 2.71.1.92.1.6.13 1.83.55 1.37.16-.04.07.53-.08 4.02.64.33.4 1.18.19.77.08 2.19.88.89.08 1.47.52 2.82 1.21-.08-.47.04.21.16.29 2.52.78 1.05.68 2.68 1.15-.41-.24 1.96.78.92.69 1.02.49 1.11.47 1.59.81 1.02.88 1.2.68-.5-.33 1.94 1.53.48.04 2.29 1.57 1.44.94.05.29.32.31 2.25 1.59.22.31.93.9 1.7 1.38 1.88 1.7-.97-.89.41.39.64.86 1.43 1.25.76.66 1.15 1.49 2.18 2.57.04-.42 1.47 2.14.01-.05.05.29 1.07 1.14.31.76 2.5 3.65.2.01.79 1.47-.15-.65.99 1.51 1.01 1.78-.15-.02.29.75.47.68 1.8 3.17.57 1.29-.43-.74 1.37 3.38.81 1.08.31 1.32.53 1.24-.15-.41.84 1.85.32 1.54.67 1.3-.22.3.59 1.95.56 1.4-.39-.88.69 2.92.39.8.23 2.44.11-.25.73 2.67-.09-.57.52 3.97.29 1.74-.28-.48.36 2.27-.23.23.18 1.28.1 1.76.02 2.03.27 1.4-.05 1.27-.3.49" filter="url(#a)"/><path fill="#fff" d="m-35.51-10.93.3-.46.34-.46.38-.44.42-.42.45-.42.48-.39.53-.39.56-.37.59-.35.63-.35.66-.33.69-.31.73-.31.75-.28.79-.28.75-.34.8-.33.86-.31.91-.29.95-.27 1.01-.26 1.04-.24 1.09-.22 1.13-.2 1.17-.19 1.2-.17 1.23-.14 1.25-.14 1.28-.11 1.3-.1 1.31-.07 1.33-.07 1.33-.04 1.35-.03 1.34-.01h1.35l1.34.02 1.33.04 1.33.05 1.31.07 1.29.08 1.28.09 1.25.1 1.23.12 1.21.14 1.18.14 1.15.16 1.12.16 1.08.18 1.05.19 1.02.2.98.2.94.22.91.22.86.24.83.24.79.24.76.26.71.26.68.26.64.27.61.28.58.28.54.29.51.28.48.3.45.29.42.31.39.31.36.31.33.32.3.32.27.33.25.33.22.34.19.34.16.34.15.35.11.35-2.31 4.98-.44.6-.45.61-.47.62-.48.63-.51.63-.52.65-.53.64-.56.66-.57.66-.58.67-.61.67-.61.68-.64.69-.65.68-.67.69-.68.7-.71.71-.72.71-.75.71-.76.72-.78.72-.79.72-.82.71-.83.71-.85.71-.86.7-.87.7-.89.68-.91.66-.92.65-.93.64-.94.61-.95.59-.96.57-.97.54-.98.51-.98.47-.99.44-1 .4-1 .37-1 .32-1 .27-1.01.23-1 .18-1.01.13-1 .07-1 .02-.99-.04-.99-.1-.99-.16-.97-.21-.97-.29-.96-.34-.95-.41-.94-.47-.92-.53-.91-.6-.9-.66-.88-.72-.87-.79-.85-.84-.84-.89-.81-.95-.8-1-.7-.65-.7-.68-.68-.69-.66-.72-.65-.75-.63-.76-.61-.77-.59-.79-.58-.8-.55-.81-.53-.82-.5-.82-.49-.81-.46-.82-.43-.8" filter="url(#a)" transform="translate(42.99 -25.72)"/><path fill="#fff" d="m34.19-8.28-.12-.61-.17-.58-.21-.56-.27-.54-.31-.51-.36-.49-.4-.47-.44-.45-.49-.43-.53-.41-.56-.38-.61-.38-.64-.35-.68-.34-.71-.32-.72-.35-.77-.34-.82-.32-.87-.31-.92-.29-.96-.27-1-.25-1.04-.24-1.07-.22-1.11-.21-1.14-.19-1.16-.17-1.19-.15-1.21-.14-1.22-.13-1.24-.1-1.25-.1-1.26-.07-1.26-.06-1.26-.05-1.27-.03-1.25-.01H2.44l-1.24.01-1.22.03-1.22.05-1.19.05-1.18.07-1.16.09-1.13.1-1.11.11-1.08.12-1.05.13-1.02.15-.99.16-.96.17-.93.18-.89.19-.86.21-.83.21-.79.22-.76.23-.72.24-.69.25-.66.25-.62.27-.59.27-.56.28-.54.28-.5.29-.48.3-.44.3-.42.31-.4.32-.36.32-.34.34-.32.34-.28.34-.27.36-.23.36-.22.36-.19.38-.17.37-.14.39 1.33 6.17.38.6.4.61.42.62.42.63.44.63.46.63.46.65.48.64.5.65.51.65.52.66.53.66.54.65.56.66.57.66.59.67.6.66.62.67.64.67.64.66.67.67.67.65.69.65.71.64.71.62.73.62.75.59.75.58.77.56.78.54.79.52.8.49.81.46.83.43.83.4.85.36.85.33.86.3.87.25.89.21.88.16.9.13.91.07.91.03.92-.02.93-.07.93-.12.94-.17.94-.22.95-.28.95-.33.96-.38.96-.44.96-.49.97-.54.96-.59.97-.64.96-.69.96-.74.96-.78.96-.83.95-.86.94-.91.93-.94.77-.66.75-.68.74-.7.72-.71.71-.73.7-.74.67-.76.66-.76.64-.77.61-.78.59-.77.56-.78.53-.78.5-.77.47-.76" filter="url(#a)" transform="translate(-43.62 -20.96)"/><g fill="none" stroke="#000" transform="translate(42.99 -25.72)"><path stroke-linejoin="round" stroke-width="1.667" d="m-36.57-5.52-.05-.6-.01-.59.01-.57.05-.56.09-.55.12-.53.16-.52.19-.51.23-.5.27-.48.3-.46.34-.46.38-.44.42-.42.45-.42.48-.39.53-.39.56-.37.59-.35.63-.35.66-.33.69-.31.73-.31.75-.28.79-.28.75-.34.8-.33.86-.31.91-.29.95-.27 1.01-.26 1.04-.24 1.09-.22 1.13-.2 1.17-.19 1.2-.17 1.23-.14 1.25-.14 1.28-.11 1.3-.1 1.31-.07 1.33-.07 1.33-.04 1.35-.03 1.34-.01h1.35l1.34.02 1.33.04 1.33.05 1.31.07 1.29.08 1.28.09 1.25.1 1.23.12 1.21.14 1.18.14 1.15.16 1.12.16 1.08.18 1.05.19 1.02.2.98.2.94.22.91.22.86.24.83.24.79.24.76.26.71.26.68.26.64.27.61.28.58.28.54.29.51.28.48.3.45.29.42.31.39.31.36.31.33.32.3.32.27.33.25.33.22.34.19.34.16.34.15.35.11.35.1.36.07.36.05.36.03.36v.37l-.01.37-.03.38-.06.38-.07.38-.09.38" filter="url(#a)"/><path stroke-linejoin="round" stroke-width="2.222" d="m-37.07-5.73.12.48.15.53.18.59.22.63.26.67.29.7.32.74.35.75.37.78.41.8.43.8.46.82.49.81.5.82.53.82.55.81.58.8.59.79.61.77.63.76.65.75.66.72.68.69.7.68.7.65.8 1 .81.95.84.89.85.84.87.79.88.72.9.66.91.6.92.53.94.47.95.41.96.34.97.29.97.21.99.16.99.1.99.04 1-.02 1-.07 1.01-.13 1-.18 1.01-.23 1-.27 1-.32 1-.37 1-.4.99-.44.98-.47.98-.51.97-.54.96-.57.95-.59.94-.61.93-.64.92-.65.91-.66.89-.68.87-.7.86-.7.85-.71.83-.71.82-.71.79-.72.78-.72.76-.72.75-.71.72-.71.71-.71.68-.7.67-.69.65-.68.64-.69.61-.68.61-.67.58-.67.57-.66.56-.66.53-.64.52-.65.51-.63.48-.63.47-.62.45-.61.44-.6.42-.6.4-.59.39-.58.37-.57.35-.56.34-.56.32-.55.3-.54.29-.53.28-.53" filter="url(#a)"/><circle cx="2.218" cy="3.953" r="4.38" clip-path="url(#b)" filter="url(#a)"/><circle cx="4.778" cy="3.468" r="4.184" clip-path="url(#b)" filter="url(#a)"/><circle cx="2.543" cy="-.552" r="4.158" clip-path="url(#b)" filter="url(#a)"/><circle cx="5.898" cy="4.143" r="4.242" clip-path="url(#b)" filter="url(#a)"/><circle cx="6.303" cy="1.313" r="3.534" clip-path="url(#b)" filter="url(#a)"/><circle cx="4.728" cy="3.993" r="4.824" clip-path="url(#b)" filter="url(#a)"/><circle cx="3.123" cy="4.178" r="3.268" clip-path="url(#b)" filter="url(#a)"/><circle cx="5.018" cy="-.522" r="3.346" clip-path="url(#b)" filter="url(#a)"/><circle cx="2.668" cy="2.498" r="3.26" clip-path="url(#b)" filter="url(#a)"/><circle cx="4.758" cy="-.062" r="4.718" clip-path="url(#b)" filter="url(#a)"/></g><g fill="none" stroke="#000" transform="translate(-43.62 -20.96)"><path stroke-linejoin="round" stroke-width="2.222" d="m32.36-.68.44-.9.38-.86.32-.83.27-.81.21-.77.15-.74.09-.72.04-.68-.01-.66-.06-.63-.12-.61-.17-.58-.21-.56-.27-.54-.31-.51-.36-.49-.4-.47-.44-.45-.49-.43-.53-.41-.56-.38-.61-.38-.64-.35-.68-.34-.71-.32-.72-.35-.77-.34-.82-.32-.87-.31-.92-.29-.96-.27-1-.25-1.04-.24-1.07-.22-1.11-.21-1.14-.19-1.16-.17-1.19-.15-1.21-.14-1.22-.13-1.24-.1-1.25-.1-1.26-.07-1.26-.06-1.26-.05-1.27-.03-1.25-.01H2.44l-1.24.01-1.22.03-1.22.05-1.19.05-1.18.07-1.16.09-1.13.1-1.11.11-1.08.12-1.05.13-1.02.15-.99.16-.96.17-.93.18-.89.19-.86.21-.83.21-.79.22-.76.23-.72.24-.69.25-.66.25-.62.27-.59.27-.56.28-.54.28-.5.29-.48.3-.44.3-.42.31-.4.32-.36.32-.34.34-.32.34-.28.34-.27.36-.23.36-.22.36-.19.38-.17.37-.14.39-.13.39-.1.39-.08.4-.06.41-.04.41-.03.42v.42l.01.42.03.43.05.44" filter="url(#a)"/><path stroke-linejoin="round" stroke-width="2.222" d="m35.43-7.94.01.49-.06.53-.11.57-.17.61-.22.64-.26.67-.31.7-.36.72-.39.73-.43.75-.47.76-.5.77-.53.78-.56.78-.59.77-.61.78-.64.77-.66.76-.67.76-.7.74-.71.73-.72.71-.74.7-.75.68-.77.66-.93.94-.94.91-.95.86-.96.83-.96.78-.96.74-.96.69-.97.64-.96.59-.97.54-.96.49-.96.44-.96.38-.95.33-.95.28-.94.22-.94.17-.93.12-.93.07-.92.02-.91-.03-.91-.07-.9-.13-.88-.16-.89-.21-.87-.25-.86-.3-.85-.33-.85-.36-.83-.4-.83-.43-.81-.46-.8-.49-.79-.52-.78-.54-.77-.56-.75-.58-.75-.59-.73-.62-.71-.62-.71-.64-.69-.65-.67-.65-.67-.67-.64-.66-.64-.67-.62-.67-.6-.66-.59-.67-.57-.66-.56-.66-.54-.65-.53-.66-.52-.66-.51-.65-.5-.65-.48-.64-.46-.65-.46-.63-.44-.63-.42-.63-.42-.62-.4-.61-.38-.6-.37-.6-.36-.59-.34-.59-.33-.57-.32-.57L-27-7l-.29-.55-.27-.55-.26-.53-.25-.52" filter="url(#a)"/><circle cx="-7.713" cy="-12.906" r="3.39" clip-path="url(#c)" filter="url(#a)"/><circle cx="-7.673" cy="-8.906" r="4.236" clip-path="url(#c)" filter="url(#a)"/><circle cx="-6.418" cy="-9.631" r="4.406" clip-path="url(#c)" filter="url(#a)"/><circle cx="-5.348" cy="-9.361" r="4.718" clip-path="url(#c)" filter="url(#a)"/><circle cx="-7.338" cy="-9.816" r="3.302" clip-path="url(#c)" filter="url(#a)"/><circle cx="-4.893" cy="-10.996" r="4.758" clip-path="url(#c)" filter="url(#a)"/><circle cx="-7.038" cy="-9.551" r="3.832" clip-path="url(#c)" filter="url(#a)"/><circle cx="-6.253" cy="-12.781" r="3.612" clip-path="url(#c)" filter="url(#a)"/><circle cx="-5.078" cy="-9.216" r="4.772" clip-path="url(#c)" filter="url(#a)"/><circle cx="-7.863" cy="-12.721" r="4.194" clip-path="url(#c)" filter="url(#a)"/></g><g fill="none" stroke="url(#d)" stroke-linejoin="round" stroke-width="2"><path d="m64.32-49.5 1.63 2.34.79 1.11.43.62.24.43.1.31-.06.17-.24.03-.41-.14-.59-.3-.81-.53-1.08-.8-1.4-1.14-1.75-1.53-2.1-1.95-2.45-2.41-2.81-2.88-3.22-3.39-3.72-3.92-4.27-4.41m-54.86-13.55.47-.04 1.01-.14.94-.09.74.01.57.09.42.18.26.27.02.36-.31.47-.68.57-1.1.7-1.51.84-1.89.97-2.26 1.11-2.6 1.24-2.98 1.38-3.4 1.52-3.88 1.7-4.46 1.93-5.12 2.23-5.92 2.66-6.76 3.12" filter="url(#a)"/><path d="m67.66-45.02.65 1.35-.06.95-.65.69-1.1.65-1.51.69-1.97.67-2.5.61-3.06.51-3.66.37-4.29.23-4.93.07-5.58-.11-6.2-.28-6.82-.45-7.44-.6-8.07-.73-8.73-.85-9.42-.95-10.15-1.04-10.9-1.08-11.65-1.09-12.35-1.17m83.36-29.73 1.39.76 1.49.78 1.45.78 1.46.84 1.51.92 1.56.97 1.57 1.01 1.56 1.03 1.5 1.03 1.43 1 1.34.94 1.25.88 1.14.78 1.03.69.88.59.74.5.58.4.42.29.2.14-.12-.13-.49-.44-.75-.7m4.08 3.92L57-58.28l.98 1.04.86 1.04.65.88.35.63.03.38-.25.16-.48.03-.68-.08-.89-.2-1.16-.38-1.49-.62-1.89-.92-2.29-1.23-2.72-1.54-3.13-1.81-3.57-2.09-4.01-2.34-4.42-2.61-4.8-2.86-5.15-3.18-5.7-3.65" filter="url(#a)"/><path d="m25.17-78.33 1.8.69.94.34.88.38 1.13.53 1.37.64 1.47.68 1.43.66 1.31.6 1.14.53.97.46.76.37.53.26.26.14-.05-.01-.4-.18-.76-.35-1.11-.53-1.52-.73-2.07-1.04" filter="url(#a)"/><path d="m25.17-78.33 1.77.67.82.27.67.26.79.34.93.42.93.41.77.35.49.25.13.11-.28-.04-.74-.2-1.2-.37-1.67-.55-2.19-.74-2.8-.98-3.72-1.3m49.79 37.7-.18.16-.28.47-.51.62-.92.55-1.46.32-2.06.04-2.66-.25-3.29-.57-3.95-.92-4.65-1.27-5.36-1.61-6.09-1.91-6.84-2.19-7.57-2.51-8.26-2.86-8.88-3.25-9.5-3.68-10.21-4.08-11.27-4.34M4.61-82.35l.09.04 1.11.08 1.42.13 1.46.15 1.37.18 1.23.19 1.04.18.88.16.7.13.54.1.32.07.02.03-.36-.02-.82-.08-1.29-.13-1.76-.19-2.25-.26-2.91-.38m56.01 28.19.94 1.36.51.74.49.7.59.85.62.93.56.84.37.6.15.32-.08.03-.29-.2-.49-.43-.68-.65-.92-.89-1.2-1.19-1.5-1.54-1.86-1.95-2.21-2.38-2.56-2.83-2.74-3.19m-81.48-13.69 1.56-.48 1.86-.41 2.13-.35 2.29-.22 2.47-.12 2.69-.02 2.89.03 3.06.09 3.16.16 3.24.21 3.29.28 3.35.31 3.39.34 3.43.34 3.47.34 3.48.33 3.47.35 3.41.36 3.3.35 3.11.33 2.91.28 2.73.28" filter="url(#a)"/><path d="m-33.99-74.78.31-.02.9-.26 1.37-.38 1.92-.52 2.38-.61 2.68-.68 2.8-.7 2.79-.68 2.69-.63 2.56-.58 2.43-.53 2.3-.48 2.14-.44 1.93-.38 1.67-.3 1.21-.23m-21.41 3.38 2.35-.77 1.76-.46 1.63-.31 1.67-.25 1.7-.23 1.7-.2 1.69-.2 1.68-.2 1.65-.2 1.55-.2 1.37-.17 1.13-.14.83-.1.49-.05.1-.01h-.57m59.87 24.23.85.89.98 1.14.8.96.46.61.06.23-.32-.12-.69-.42-1.01-.69-1.33-.94-1.7-1.3-2.17-1.77-2.77-2.39-3.48-3.07-4.23-3.68" filter="url(#a)"/><path d="m44.69-68.68 1.7 1.21.87.74.35.5.07.41-.17.36-.43.29-.78.18-1.2.03-1.69-.17-2.2-.36-2.69-.54-3.14-.66-3.58-.76-4.04-.87-4.58-.99-5.17-1.19-5.8-1.45L5.8-73.7l-6.94-2.09-7.48-2.38m71.51 26.48.37.58.74 1.06.92 1.33.91 1.31.78 1.12.61.89.46.68.32.52.2.37.09.26-.01.13h-.13l-.27-.18-.48-.45-.73-.78-1.02-1.17-1.33-1.59-1.6-2-1.83-2.37-1.94-2.65-1.84-2.71" filter="url(#a)"/><path d="m25.17-78.33 1.63.65.41.22-.01.2-.14.29-.26.37-.53.41-.95.39-1.48.35-2.05.3-2.66.28-3.29.26-3.96.25-4.68.24-5.41.2-6.09.12-6.69.02-7.19-.13-7.7-.29m78.07 11.43 1.5 1.27.97.87.67.66.66.71.8.85.93 1 1 1.08.98 1.06.89.99.74.83.56.65.37.45.17.26-.02.07-.2-.12-.4-.35-.6-.59-.81-.86-.98-1.08-1.13-1.28-1.38-1.54-1.92-2.06m13.66 16.39.58 1.12.22.63.19.62.17.69.08.65-.11.5-.33.28-.59.02-.86-.26-1.15-.59-1.47-.94-1.79-1.27-2.13-1.61-2.44-1.92-2.75-2.24-3.06-2.58-3.4-2.95-3.8-3.34-4.28-3.76-4.8-4.2-5.31-4.64-5.76-5.09" filter="url(#a)"/><path d="m-38.12-72.53 1.5-.73 2.14-.51 2.25-.19 2.47.03 2.89.16 3.42.21 3.96.25 4.4.29 4.73.33 4.95.38 5.12.47 5.27.57 5.45.69 5.65.81 5.81.92 5.87.98 5.81.95 5.7.88 5.7.89m6.07 1.17.38.51.53.76.28.72-.18.53-.66.36-1.05.3-1.38.3-1.66.35-1.98.37-2.34.33-2.79.24-3.3.11-3.84-.05-4.4-.2-4.94-.31-5.47-.4-5.99-.45-6.56-.52-7.17-.62-7.8-.8-8.44-.97-9.09-1.08-9.91-1.02" filter="url(#a)"/><path d="m69.8-41 .64 1.22.43 1.32-.03.96-.45.68-.84.44-1.23.19-1.66-.12-2.1-.43-2.56-.71-3.01-.98-3.46-1.24-3.93-1.5-4.4-1.79-4.89-2.09-5.41-2.39-5.96-2.68-6.54-2.95-7.12-3.24-7.69-3.55-8.24-3.91-8.8-4.28-9.62-4.54" filter="url(#a)"/><path d="m52.19-62.77 1.35 1.2.52.67-.08.34-.39.28-.57.35-.76.42-1 .46-1.35.42-1.76.32-2.26.16-2.78-.02-3.32-.17-3.83-.29-4.31-.39-4.75-.5-5.2-.62-5.69-.79-6.24-.99-6.86-1.18-7.48-1.34-8.03-1.51-8.51-1.73-9.1-1.92m21.39-12.45.97-.02 1.31.02 1.63.05 1.93.06 2.06.09 2.05.12 1.98.13 1.87.15 1.81.16 1.76.16 1.73.18 1.7.18 1.61.18 1.46.17 1.22.14.93.09.6.04.3-.02.01-.07-.31-.14-.91-.25" filter="url(#a)"/><path d="m70.27-40.32 1.06 2.16.11 1.04-.44.58-.9.31-1.39-.02-1.95-.44-2.55-.87-3.16-1.29-3.76-1.66-4.37-2.03-5.01-2.42-5.68-2.83-6.39-3.27-7.11-3.72-7.82-4.19-8.47-4.66-9.04-5.15-9.66-5.68m-27.46-.55 1.37-.54 1.86-.67 1.94-.67 1.93-.66 1.86-.62 1.73-.56 1.6-.5 1.46-.44 1.29-.38 1.07-.31.81-.24.52-.15.2-.07-.18.02-.65.12-1.02.19" filter="url(#a)"/><path d="m-28.01-77.22 1.91-.71 1.14-.43.74-.22.56-.09.4.02.1.17-.3.38-.77.61-1.26.84-1.74 1.08-2.2 1.29-2.64 1.52-3.13 1.75-3.69 2.01-4.33 2.32-5.15 2.75" filter="url(#a)"/><path d="m-8.12-82.14 1.14.02 1.04-.04 1.15-.03h1.03l.69.05.25.1-.2.16-.64.23-1.05.32-1.5.41-2.01.53-2.61.65-3.28.79-4.01.92-4.71 1.02-5.12 1.03m40.41-5.29.85.12.59.13.65.21.56.27.24.32-.17.36-.59.38-1.04.43-1.52.46-2.1.5-2.73.51-3.39.51-4.02.5-4.56.51-5.06.52-5.65.57-6.52.66-7.67.83m67.52.72 1.04.57.73.66.27.65-.16.61-.52.62-.84.68-1.18.74-1.57.77-2.01.78-2.49.78-2.98.79-3.47.81-3.99.84-4.54.89-5.13.93-5.76.95-6.39.95-6.98.93-7.51.9-8.01.91-8.53.94-9.13.99-9.79.96m7.12-14.7 1.15-.87 1.32-.84 1.37-.82 1.29-.73 1.15-.64 1.03-.57.95-.51.83-.45.67-.36.47-.24.27-.13.05-.02-.18.13-.47.28-.78.45-1.13.59-1.64.8" filter="url(#a)"/><path d="m52.19-62.77 1.33 1.17.49.62-.17.23-.54.11-.79.12-1.04.13-1.36.1-1.77-.01-2.28-.2-2.87-.45-3.51-.74-4.15-1.01-4.78-1.27-5.34-1.48-5.9-1.69-6.51-1.9-7.21-2.2-7.96-2.57-8.67-2.94m24.67-4.36.45.1 1.35.26 1.7.38 1.71.45 1.65.47 1.61.48 1.58.5 1.51.5 1.39.45 1.19.41.97.33.73.26.53.2.34.13.15.06-.04-.01-.27-.11-.56-.21-.98-.36-1.55-.56-2.13-.77" filter="url(#a)"/><path d="m-15.22-80.88.23-.1 1.05-.03 1.63-.03 1.95-.03 2.11.01 2.21.06 2.29.1 2.36.16 2.44.18 2.49.2 2.49.21 2.42.22 2.3.21 2.13.2 1.95.19 1.78.15 1.64.14 1.53.13 1.47.14 1.35.16 1.03.11.36-.07m-49.58.5 1.07-.47.53-.14.45-.01.3.11-.07.3-.55.55-1.08.82-1.67 1.12-2.29 1.43-2.95 1.81-3.68 2.24-4.48 2.76-5.36 3.29-6.12 3.63" filter="url(#a)"/><path d="m37.85-72.76 1.16.56 1.11.64.9.57.71.49.6.45.53.42.44.4.28.33.05.23-.25.11-.54-.02-.85-.14-1.15-.28-1.5-.43-1.88-.6-2.29-.8-2.7-1.03-3.1-1.23-3.49-1.43-3.89-1.62-4.36-1.8-5.01-1.99m-55.46 10.08 1.32-.65 1.67-.78 1.78-.69 1.87-.62 2.05-.62 2.24-.64 2.41-.66 2.5-.64 2.56-.63 2.61-.62 2.7-.63 2.81-.65 2.87-.67 2.86-.68 2.73-.65 2.52-.6 2.24-.55 1.95-.47 1.75-.43 1.71-.36" filter="url(#a)"/><path d="m-45.74-67.6 1.34-.97 1.54-.69 1.99-.78 2.44-.87 2.75-.94 2.95-.93 3.1-.9 3.25-.91 3.4-.91 3.51-.93 3.54-.93 3.46-.9 3.34-.87 3.24-.85 3.21-.85 3.32-.81m-9.46-.41.96-.03 1.27-.01 1.57-.01 1.82-.01 1.9-.01 1.81.01 1.63.01 1.42.01 1.25.02 1.08.02.9.02h.68l.38-.02.01-.03-.44-.04-.9-.06-1.18-.07" filter="url(#a)"/><path d="m-1.71-82.25 1.78-.15h1.25l1.11.02 1.13.04 1.13.05 1.1.06.98.07.8.07.55.08.25.08-.09.07-.45.04-.83.01-1.24-.01-1.75-.04-2.49-.06-3.53-.12" filter="url(#a)"/><path d="m-.48-82.29-.1-.04.87-.05 1-.02 1 .01.97.02.94.04.87.06.75.07.55.08.3.1-.06.1-.44.1-.85.1-1.23.07-1.6.06-1.98.06-2.47.06-3.08.08-3.64.05m39.31 5.03 1.3.69 1.24.58 1.01.46.83.4.66.36.45.29.19.2-.13.09-.5-.04-.93-.19-1.36-.36-1.82-.52-2.26-.68-2.71-.85-3.21-1.07-3.84-1.37-4.56-1.7m54.67 38.29-.03.19.14.52.21.7.08.64-.17.41-.46.1-.78-.24-1.14-.63L66-41.09l-1.91-1.52-2.33-1.97L58.99-47l-3.25-2.88-3.75-3.37-4.26-3.89-4.69-4.41-4.94-4.89-5.03-5.26" filter="url(#a)"/><path d="M38.96-72.29.58-76.23l-8.59 1.05 3.99 3.43 5.56 2.96 4.68.93 5.07-.39 6.72.25 8.19 2.3 7.84 4.14 5 4.57 1.04 3.6-1.53 2.23-2.52.74-6.06-2.63-10.52-8.77 24.76-6.9" filter="url(#a)"/><path d="M69.51-41.75 55.63-56.38l-1.39-.32-1.81.46-4.67-1.27-6.37-1.55-6.42-.8-4.5.14-1.24.71.87.33-.18-1.03-2.65-2.21-1.25-1.85 6.06-.65 9.39-2.03-5.56-7.49m-69.63-1.07 29.9 8.87 5.26 8.55 4.27 1.68 4.36-3.38L14-63.63l2.77-2.46 1.22.14-.23 1.94-1.2 2.32-1.68 1.49-1.83.11-1.82-1.14-1.85-1.86-2.02-2-2.31-1.75-2.57-1.34-2.65-.79-2.21.1-.53 1.61 3.46 3.84 9.53 6.18 11.85 6.65-6.7 1.78-73.18-8.16" filter="url(#a)"/><path d="m-38.12-72.53 30.49 2.19 16.85 4.08 1.15 1.85-2.64.8-.14.19 4.02-.05 7.33.02 8.34.07 6.84-.15 3.74-.57.62-.91-1.06-.76-.51.24 1.86 2.17L43.02-59l3.88 5.38-1.31 3.59-10.58-1.17-19.31-5.87-24.64-3.88-54.71 10.21" filter="url(#a)"/><path d="m-20.38-79.87 32.13 8.49L33.16-61l1.78 1.93-7.27-2.63-5.24-1.99.24.25 3.06 1.17 2.33.49.43-.51-.78-.81-1.83-.61-4.36-.76-8.54-1.27L1.2-66.83l-9.33.72 4.02 3.54 29.67 7.27 48.02 22.08" filter="url(#a)"/><path d="M69.66-41.73 15.69-51.74 8.4-56.2l1.12-5.27 3.9-4.78 3.55-3.07.74-1.32-3.12-.1-6.38.61-7.52.98-5.74 1.23-1.68 1.36 2.77 1.25 5.3.67 4.67-.42 1.52-1.67-1.67-2.36-2.29-1.94-.22-.77.48-.13-6.07-.44-20.65 1.86-36.66 14.71" filter="url(#a)"/><path d="m36.83-73.25-20.45-2.49-22.81 3.86-11.96 4.86-.65 2.6 5.66.55 8.72-.03 10.23.39 9.59.82 5.86.6-.17-.39-5.81-1.78-8.25-2.97-6.36-3.42-1.3-2.85 4.38-1.46 8.39.35 9.8 2.08 8.99 3.75 6.81 5.47.98 3.65L9.11-82.05" filter="url(#a)"/><path d="m27.99-77.12 1.13 6.04-11.28.16-10.26.49-5.73.79.32.41 5.1.15 7.27.45 6.78.97 4.07 1.1v.5l-4.11-.54-6.8-1.53-7.21-1.99-5.47-1.77-2.54-1.06.62-.22 3.45.32 5.83.44 7.66.45 8.63 1.08 8.38 2.94 5.71 5.24-4.64 2.98-43.02-22.42" filter="url(#a)"/><path d="m53.89-61.39-12.53 10.5-14.07-1.16-6.41-5.25-7.95-6.08-11.37-4.35-12.07-1.77-9.42.19-4.75.97.2.69 3.91-.15 5.51-1.09 4.91-1.72 2.56-1.84-.57-1.53-3.24-1.06-4.27-.71-3.09-.61-.06-.62 3.74-.34 7.34.48 8.78 1.94-.11 3.62-44.9 2.47" filter="url(#a)"/><path d="M-8.12-82.14 4.7-79.75 15.82-74l.79 3.81-10.28 1.42-14.83.44-12.66.09-6.92-.3-.55-.84 4.84-1.26 8.56-1.25 10.17-.62 9.31.42 6.32 1.52 2.26 2.3-1.75 2.46-6.56 1.57-14.59-.64-21.95-2.58-6.1-5.07" filter="url(#a)"/><path d="m6.11-82.34-2.61.38-.72.74 2.37 1.42 6.75 3.34 9.3 5.87 7.16 7.1-.18 5.69-9.53 2.28-14.73-.99-10.5-2.12 3.28-.56 19.8 2.89 28.12 6.4 20.65 6.64 4.39 1.53" filter="url(#a)"/><path d="m-8.12-82.14-1.02 4.75-.95 7.73 2.71 8.75 11.72 7.04 15.19 3.23 11.14-1.06 3.24-4.21-4.39-5.56-9.22-5.28-10.48-3.97-8.67-2.29-5.15-.73-1.52.39 1.08.89 2.4.77 3.08.21 3.77-.48 4.29-.99 3.33-1.26-.08-1.52-4.85-1.94-7.93-2.14-8.5-1.23-10.26.84" filter="url(#a)"/><path d="m-17.15-80.74 52.68 23.79 11.05 9.51-10.11-1.24L23.2-53.3l-7.77-3.48-.87-1.4 4.17-.12 6.34.2 5.72.04 3.28-.11.57.04-1.12.43-1.51.81-1.43.92-2.15.63-4.11.01-6.49-.83-7.75-1.92-7.09-3.53-5.16-5.59-3.02-6.91.88-5.81L6.4-82.15" filter="url(#a)"/><path d="m22.81-78.93 17.27 18.5-2.52-2.52-1.01-1.69-2.37.52-6.89.33-9.87-1-9.14-1.74-5.85-1.24-2.35.11-.23 1.43.31 2.05-.27 1.83-1.24 1.2-1.87.72-1.61.6-.2.52 2.05-.06 4.51-1.33 6.21-2.52 3-2.38-15.64-.23-54.65 10.03" filter="url(#a)"/><path d="m64.01-50.26-18.99 1.45-20.74-9.94-4.69-5.55 1.23-.45-.49 1.82-3.87 1.85-6.03.86-6.23-.36-4.48-1.39-1.15-1.97 2.7-1.96 5.5-1.3 6.08-.07 4.51 1.32 2.23 2.2.7 1.86-.19-.01-2.28-2.62-6.53-3.9-8.49-1.44 5.48 5.77 58.54 18.24" filter="url(#a)"/><path d="m46.98-67.11-19.15-3.63-10.53 1.56-13.13-.08-8-1.37.31-1.47 6.85-.61 10.1.61 10.33 1.57 8.19 1.84 4.17 1.38-1.11.42-6.66-.65-10.99-1.45-12.64-1.72-11.06-1.36-7.37-.41-4.02.83-3.12 1.83-5.21 1.92-9.56.85-3.3-5.24" filter="url(#a)"/><path d="m-6.23-82.19 19.71 5.5-3.57 3.97-7.08 1.99-.31 1.8 4.9 2.33 6.61 2.87 7.27 3.39 8.07 3.64 7.85 3.03 5.31 1.29.63-1.03-4.42-2.96-7.86-3.92-8.59-4.12-6.44-3.99-1.98-3.48 3.46-1.9 7.71.77 8.01 1.96-7.88-7.28" filter="url(#a)"/><path d="m3.6-82.32 39.99 24.61 8.74 5.63-5.32-4.58-7.51-6.04-5.78-4.22-4.35-2.42-3.99-1.26-4.18-.41-4.41.42-4.54 1.21-4.81 1.72-5.52 1.78-6.44 1.26-6.02.47-1.88-.02 7.25.48 18.45 2.02 23.26 3.12 11.33-.85-19.88-17.72" filter="url(#a)"/><path d="M33.95-74.72 16.12-61.29 34.77-50.1l9.11 2.29-5.16-2.8-13.17-4.03-14.93-3.49-13.24-2.58-9.98-1.91-5.71-1.53-.67-1.43 4.16-1.5 7.3-1.54 7.58-1.47 5.31-1.25 2.23-.81.76.05 2.52 1.5L18-67.37l11.59 4.06 10.24 2.48-3.51-2.8-38.03-18.62" filter="url(#a)"/><path d="m-20.38-79.87 30.81 26.09L.27-54.7l-7.59-6.27.36-5.2 5.92-3.1 7.32-1.24 5.37.37 2.04 1.72-.88 2.71-2.62 3.04-3.16 2.69-2.81 1.99-1.72 1.21-.53.02-.69-2.4-4.35-5.56-14.29-6.17-25.48 1.04" filter="url(#a)"/><path d="M76.24-26.6 45.7-48.57l-20.65-9.15-12.65-4.5-10.89-3.16-7.96-2.72-3.47-2.6.47-2.45 3.16-1.94 5.19-1.01 6.96.16 8.05 1.3 7.63 2.13L26.86-70l1.65 2.42-2.11 1.88-4.49.87-4.52-.55-1.86-1.96 2.86-2.29 6.17-.89-2.14-.48-39.57-9.74" filter="url(#a)"/><path d="m-37.51-73.18 52.79 15.51-.07-2.24-5.4-1.15-2.02.32-1.13-.39-3.18-1.92-5.63-2.89-6.52-2.86-5.56-2.07-3.81-1.07-2.4-.17-1.71.49-1.41.98-.97 1.38-.05 1.6 1.14 1.51 1.86.81 1.07-.56-.94-2.42-.47-4.27 7.88-5.51L3.6-82.32m54.44 24.9 6.56 13.65-12.42-1.54-18.45-3.29-12.71-.89-3.39.78 3.33.53 5.05-1.19 2.68-3.41-.84-5.09-2.66-5.4-1.87-4.15.2-1.8 1.28.71.27 2.33-1.36 2.56-.09 1.97 6.63 2.33 16 5.68 18.89 11.52 10.78 13.98" filter="url(#a)"/><path d="m-58.73-56.53 29.77-15.07 17.7-3.87L.89-74.1l7.77 3.76 5.82 4.16L19.12-63l1.87 1.58-2.9.07-7.69-.56-9.82.02-8.16 1.42-4.28 2.67-1.04 2.81.35 1.61 1.15-.34.28-2.83-8.48-7.38-5.99-14.14" filter="url(#a)"/><path d="m38.96-72.29-28.83-3.32-14.98.56 2.84 2.15 9.85 3.23 7.98 3.12 3.37 2.09-.21.71-2.33-.77-4.2-2.01-6.6-2.55-8.7-1.96-8.51-.55-5.36.63-3.45 1.23-12.58 3.95-30.9 15.04" filter="url(#a)"/><path d="M57.28-58.08 4.63-69.64l-15.9-1.43 3.18 1.21 10.27.48 8.9-.77 4.73-1.48 1.55-1.54.45-1.07.95-.23 2.17.89 3.03 2.17 2.6 3.16.39 3.38-3.13 2.48-6.33.61-7.22-1.52-4.8-2.98-.1-3.15 4.01-2.23 5.17-1.02 4.51.15 7.55 2.71 18.14 9.39 25.52 20.11" filter="url(#a)"/><path d="m-58.05-57.16 46.24-1.68 33.5 5.32 6.97-2.71-8.12-7.2-10.73-6.51-7.04-3.69-2.83-1.19-.65.16.07.7 1.22 1.11 3.83 1.87 7.14 2.86 9.4 3.26 8.95 2 5.51-.81 2.18-1.69 7.54 6.53 30.79 30.69" filter="url(#a)"/><path d="m-17.15-80.74 37.29 11.29-2.92-.43-8.28.42-2.8 1.19 1.4.34 1.7-.92.3-1.66-.33-1.46.69-.42 2.91 1.04 5.2 2.32 6.36 2.76 5.41 2.03 2.06.38-2.79-1.27L21.9-67l-8.57-1.16-5.78-.11.37-.26 8.32-.83 35.02 5.69M.49-82.6l1.01-2.11.8.07 1.04-.22 1.22-1.07 1.36-1.58 1.45-1.62 1.51-1.47 1.55-1.37 1.54-1.38 1.52-1.35 1.47-1.13 1.43-.71 1.47-.32 1.62-.29 1.85-.79 2.05-1.61 2.1-2.13 2.21-2.11 3.21-3.14-36.2 24.59 2.85-.5 1.41-.5 1.11-.34 1.04-.51 1.07-.94 1.14-1.44 1.26-1.9 1.39-2.22L7.48-93l1.59-2.15 1.64-1.88 1.64-1.64 1.61-1.5 1.55-1.39 1.45-1.22 1.45-1 1.97-.99 3.9-1.78" filter="url(#a)"/><path d="m-5.3-82.34 2.87.26 1.4.66 1.07.89.97.79.96.53.99.29 1.04.16 1.1.17 1.14.25 1.16.32 1.15.36 1.11.38 1.06.4 1.01.43.97.51.99.63 1.05.82 1.07 1.06 1 1.18.82.97.64.59-26.39-11.45 1.19-.05 1.18-.39 1.42-.69 1.48-.79 1.39-.71 1.26-.53 1.16-.4 1.13-.4 1.16-.54 1.23-.81 1.32-1.08 1.42-1.3 1.49-1.41 1.54-1.43 1.56-1.47 1.59-1.64 1.63-1.93 1.7-2.17 1.78-2.08 1.92-1.48 2.07-.78 2.11-.88 1.99-1.92-39.14 25.66 1.66-2.18 1.24-1.62 1.16-.5 1.19-.18 1.27-.21 1.38-.28 1.44-.33 1.41-.46 1.34-.73 1.28-1.14 1.24-1.55 1.25-1.85 1.3-1.88 1.39-1.69 1.5-1.5 1.64-1.52 1.73-1.77 1.79-1.99 1.74-1.75 1.6-.9 1.35-.23.92-1.82 45.29 69.36.29.1.56.59.86.92 1.08 1 1.15.99 1.1.99 1.01 1.01.9 1.02.82 1 .75.95.71.92.66.93.61.96.53.99.46 1.02.38 1.04.28 1.05.19 1.09.16 1.14.24 1.21.5 1.22.88 1.16 1.1 1.11.81 1.72" filter="url(#a)"/><path d="m-12.26-81.44-2.04.32-.95.14-.83.14-.96.2-1.08.24-1.16.3-1.21.33-1.23.36-1.21.38-1.22.41-1.25.43-1.3.48-1.36.51-1.39.53-1.33.52-1.17.48-.9.39-.6.3-.4.2h-.14" filter="url(#a)"/><path d="m-15.22-80.88-1.68.24-1.3.3-1.17.33-1.21.39-1.22.42-1.2.44-1.17.44-1.21.47-1.28.49-1.35.54-1.37.56-1.3.57-1.12.54-.84.44-.56.33-.37.21-.13.03m41.74-34.28-2.08 1.07-1.44 1.57-1.34 1.49-1.29 1.14-1.32 1.12-1.39 1.46-1.48 1.88-1.52 2.1-1.5 2-1.43 1.62-1.35 1.1-1.32.66-1.29.48-1.26.69-1.21 1.08-1.11 1.31-.99 1.18-.74 1.04-.45 1.73-.68 2.96m0 0-1.38.04-1.18-.24-1.4-.24-1.41-.07-1.32.15-1.28.26-1.36.22-1.53.05-1.67-.13-1.72-.25-1.67-.33-1.53-.38-1.4-.48-1.33-.56-1.39-.56-1.55-.4-1.64-.16-1.4-.12-.76-1.02-6.7 2.19 1.77-.07 2.06.29 1.86.43 1.63.47 1.51.4 1.44.26 1.36.1 1.25-.03 1.15-.08 1.15-.06 1.24.04 1.41.15 1.57.23 1.68.26 1.67.2 1.57.09 1.45-.06 1.33-.16 1.32-.21 1.36-.16h1.32l1.17.12 1.35-.18" filter="url(#a)"/><path d="m-19.19-80.2-.32.11-1.18.47-1.28.62-1.12.73-1.02.92-1 1.1-1.04 1.17-1.11 1.07-1.14.87-1.13.62-1.05.42-.96.34-.87.37-.8.51-.75.68-.69.84-.6 1.01-.5 1.16-.47 1.26-.6 1.25-.79 1.12-.91.96-1.01.73" filter="url(#a)"/><path d="m-19.19-80.2 1.68-.78 1.1-.81.88-.42.95-.15 1.09-.09 1.19-.14 1.23-.23 1.23-.32 1.21-.41 1.22-.49 1.26-.55 1.31-.6 1.37-.64 1.37-.65 1.32-.58 1.23-.41 1.15-.21 1.11-.04 1.11-.03 1.17-.13 1.27-.27 1.49-.41 2.16-.7-29.1 9.06-.39-.16-1.24.3-1.4.25-1.38.05-1.38-.05-1.47-.07-1.56-.06-1.65-.11-1.66-.2-1.58-.25-1.44-.25-1.3-.18-1.2-.06-1.16.05-1.15.16-1.18.23-1.19.26-1.23.23-1.32.19-1.46.16-1.56.21-1.49.28-1.27.21-1.13-.7 32.26-.65.3-.28.91-.85.86-1.16.82-1.01.92-.65 1.08-.27 1.21-.06 1.27-.04 1.27-.25 1.24-.62 1.23-1.03 1.26-1.34 1.3-1.45 1.37-1.29 1.4-.94 1.38-.56 1.33-.32 1.25-.35 1.23-.59 1.25-.94 1.32-1.25 1.45-1.43 1.7-1.37 2.44-1.26-29.79 19.31.34-.06 1.02-.21 1.02-.25.94-.27.95-.3 1.05-.32 1.13-.32 1.19-.31 1.21-.28 1.21-.23 1.21-.2 1.26-.17 1.32-.15 1.36-.16 1.37-.15 1.31-.14 1.2-.14 1.09-.15 1.04-.14 1.05-.12 1.12-.08 1.61-.16-30.37 5.82-.53-.14-1.56-.34-1.86-.37-1.95-.51-1.91-.61-1.7-.51-1.38-.21-1.13.09-1.04.19-1.12.14h-1.26l-1.35-.11-1.4-.15-1.43-.13-1.47-.07-1.5.09-1.47.31-1.4.43-1.37.3-1.61-.18-2.42-.58m30.86 2.36-.4.12-1.23.44-1.5.46-1.56.34-1.55.18-1.43.07-1.23.03-1.01.06-.9.11-.96.18-1.11.23-1.2.27-1.07.21-.82.05-.99-.15" filter="url(#a)"/><path d="m-23.69-78.92.03-.44.92-.59 1.27-.6 1.22-.85 1.04-1.23.88-1.49.81-1.51.82-1.33.89-1.1 1-.9 1.13-.79 1.22-.79 1.25-.95 1.22-1.25 1.18-1.55 1.2-1.68 1.36-1.53 1.69-1.18 1.9-.9.57-1.32-25.92 23.68 1.92-.92.98-1.74.53-2.46.69-2.09 1.09-.96 1.37.02 1.43.39 1.3.08 1.11-.61.93-1.39.83-2.03.83-2.33.93-2.29 1.07-1.99 1.18-1.64 1.26-1.45 1.31-1.51 1.36-1.71 1.47-1.75 1.67-1.42 1.84-.92 1.86-.83 1.87-1.51 2.14-2.79-30.97 33.85-1.08.17-1.54.06-1.46.02-1.23-.13-1.13-.38-1.25-.63-1.5-.85-1.69-.93-1.71-.82-1.49-.49-1.21-.02-1.14.35-1.41.33-1.86-.05-2.24-.84 19.58 5.08-1.51 1.16-.76.61-.52.5-.68.42-.89.37-.98.41-.95.51-.88.64-.83.75-.83.83-.88.84-.92.84-.97.81-.99.82-1.01.85-1.01.88-.98.9-.88.87-.72.83-.54.87-.44.96-.47.97-.45.44" filter="url(#a)"/><path d="m-30.37-76.35-1.83.39-1.21-.4-1.15-.9-1.32-1-1.38-.64-1.3-.1-1.21.2-1.27.11-1.46-.23-1.69-.49-1.81-.49-1.76-.26-1.59.04-1.44.24-1.48.33-1.95.26-3.25-.52 19.35 7.28 1.1-1.09 1.33-.85.87-.87.56-.98.52-1.06.67-1.15.89-1.2 1.08-1.17 1.23-1.02 1.31-.84 1.32-.71 1.28-.69 1.24-.74 1.23-.77 1.25-.7 1.26-.58 1.25-.46 1.16-.49.94-.66.42-1.01-.44-1.67-20.02 18.61-.59-1.58.03-2.39.7-1.5.94-.68.86-.43.78-.51.88-.58 1.13-.49 1.38-.38 1.52-.4 1.46-.62 1.26-.97 1.04-1.25.92-1.37 1.1-1.29 1.6-1.13 1.76-1.51" filter="url(#a)"/><path d="m-37.67-72.63.18-.05 1.13-.09 1.36-.03 1.2.03 1.03.04 1.01.04 1.09-.03 1.21-.15 1.28-.31 1.3-.47 1.25-.59 1.2-.61 1.17-.55 1.17-.4 1.21-.23 1.25-.03 1.27.16 1.24.28 1.16.34 1.02.37.91.47 1 .59 1.92.07m-65.51 3.8 2.46.62 1.37-.26.84-.76 1.17-.7 1.85-.4 2.32-.17 2.34-.15 2.07-.23 1.82-.18 1.77.11 1.92.52 2.05.8 2.07.76 1.9.4 1.71-.04 1.59-.29 1.5-.3 1.31-.29 1.09-.37 1.69.62m-28.63 9.05 1.75.43 1.3-.34 1.29-.31 1.25-.29 1.18-.38 1.19-.54 1.31-.69 1.47-.72 1.55-.68 1.53-.58 1.42-.47 1.26-.39 1.12-.34 1-.36.94-.46 1-.6 1.32-.63 2.04-.24 2.31-.25-1.53 1.29-1.39 1.1-1.11.89-.87.71-.72.62-.7.61-.72.65-.79.74-.88.86-1.02 1.03-1.13 1.17-1.12 1.19-.94 1.02-.64.67-.48.5M83.97-43.28l-1.42 1.9-.43 1.56.22 1.59.3 1.59-.02 1.55-.49 1.57-.84 1.59-.92 1.6-.76 1.55-.44 1.44-.14 1.31.05 1.2.03 1.13-.13 1.11-.26 1.17-.18 1.33-.01 1.28m0 0 .3 1.63.4 1.19.53 1.25.58 1.37.58 1.42.52 1.36.51 1.28.51 1.21.55 1.2.62 1.25.68 1.33.75 1.39.77 1.42.74 1.42.65 1.41.53 1.39.41 1.37.34 1.31.29 1.22.27 1.15.36 1.23.64 1.66.71 2.9" filter="url(#a)"/><path d="m-36.56-83.82-.94 1.05-.9 1.19-.79 1.55-.71 1.42-.7 1.1-.77.9-.86.89-.9.97-.85 1.12-.76 1.24-.69 1.32-.75 1.34-.92 1.31-1.09 1.27-1.09 1.21-.83 1.2.6-.05-1.31.61-1.21.46-1.14.55-1.27.68-1.5.7-1.6.62-1.52.56-1.27.56-1.02.62-.93.65-1.02.6-1.23.51-1.46.46-1.58.5-1.58.62-1.55.71-1.54.66-1.58.46-1.49.31-1.08.34-.68-.18" filter="url(#a)"/><path d="m-49.51-64.79-1.31-2.03-.77-2.77.6-1.6 1.44-.67 1.49-.57 1.08-1.12.54-1.9.16-2.52.02-2.73.14-2.48.41-1.93.71-1.34.93-.99.96-.97.81-1.24.56-1.56.38-1.78.43-1.75.81-1.45 1.36-1.11 1.52-1.27.33-3.18-13.91 37.64-.58-2.23-.57-2 .53-1.1 1.19-.7 1.38-.67 1.25-.83 1.08-.98.97-1.07.9-1.14.8-1.29.63-1.55.45-1.82.34-1.99.35-1.98.46-1.83.54-1.68.48-1.64.34-1.7.33-1.69.74-1.48 1.46-1.28 1.77-1.65m-14.84 32.3 1.03-.11.99.14 1.15-.06 1.39-.16 1.57-.13 1.53-.14 1.37-.23 1.24-.27 1.25-.18 1.37.01 1.45.22 1.41.43 1.22.64.97.8 1.25 1.44m-20.5-.99-.3.41-.62 1.14-.94 1.41-1.04 1.33-.94 1.12-.77.93-.61.82-.51.83-.44.92-.4 1.03-.4 1.17-.45 1.26-.6 1.3-.77 1.26-.75 1.2.01 1.1 8.73-16.58-1.71 1.64-1.44 1.43-1.05 1.05-.77.82-.62.72-.6.73-.64.79-.71.86-.77.93-.81 1.02-.84 1.1-.8 1.12-.74 1.07-.64.97-.51.83-.37.7.06.27" filter="url(#a)"/><path d="m-26.99-67.84-1.86-.16-.89.07-.61.18-.68.26-.87.23-1.04.11-1.17-.06-1.22-.14-1.26-.13-1.26-.05-1.27.08-1.22.24-1.16.43-1.07.63-1.02.79-1.01.84-1.07.75-1.14.52-1.17.27-1.1.18-.94.31-.86.43-.99.13-1.06-.12" filter="url(#a)"/><path d="m-52.93-62.05.57-.45.89-.21 1.1-.11 1.04-.19.91-.41.87-.64.93-.77 1.04-.78 1.15-.68 1.19-.55 1.21-.45 1.2-.4 1.2-.41 1.18-.38 1.1-.27.9-.11.62.04.65.18-6.96-2.25-.94.57-.9.6-.98.67-1.1.79-1.14.86-1.06.84-.93.76-.79.68-.71.65-.69.66-.71.71-.79.77-1 .9-1.37 1.26-1.72 1.93M78.14-19.61l.42-1.95.99-1.34 1.34-1.46.86-1.41.04-1.23-.52-1.09-.59-1.09-.3-1.18.07-1.3.34-1.42.38-1.53.27-1.66.2-1.77.29-1.86.43-1.92.4-2.25.69-3.81M-40.37-78.75l-.26.71-.28.78-.6.92-.88.95-1 .94-1 .98-.95 1.05-.94 1.08-.96 1.07-.99 1.03-.97.96-.89.9-.8.87-.72.85-.72.83-.79.83-.91.89-1.03 1.03-1.11 1.21-1.13 1.26-1.04 1.04-.67.76.28 1.28" filter="url(#a)"/><path d="m-59.55-55.8-.53 1-.74.94-.78 1.05-.77 1.17-.69 1.25-.54 1.25-.33 1.26-.12 1.27-.03 1.29-.04 1.27-.18 1.24-.34 1.22-.4 1.21-.34 1.25-.16 1.32.06 1.38.23 1.4.3 1.41.3 1.4.24 1.36.15 1.21.05 1.01.02.99 4.64-28.15.59-.73.53-.67.76-.78 1-.97 1.13-1.11 1.11-1.1 1.03-1.01.93-.87.85-.74.8-.69.8-.69.84-.74.9-.82.99-.89 1.03-.93 1.04-.89 1.03-.82 1.03-.75 1.11-.78 1.21-.9 1.16-1.03" filter="url(#a)"/><path d="m-59.99-54.79-2-3.25-.38-1.67.27-1.09.78-.89.99-1.09.97-1.37.86-1.51.79-1.41.77-1.2.77-1 .72-.95.61-1.06.54-1.29.54-1.51.65-1.68.71-1.78.62-1.9.36-2.06.21-2.07.74-1.34m-42.87 44.7 1.3-.82 1.42-.65 2.54-.27 2.88-.21 2.41-.4 1.72-.68 1.28-.87 1.16-.95 1.26-.93 1.4-.89 1.45-.83 1.45-.72 1.38-.59 1.23-.53.95-.63.51-.97.29-1.29 1.29-.77 4.45 1.85" filter="url(#a)"/><path d="m-65.96-47.61-1.51-2.12-.77-2 .83-1.16 1.27-.98.93-1.2.43-1.52.02-1.72-.17-1.8-.15-1.74.05-1.62.33-1.5.57-1.53.65-1.68.55-1.92.33-2.16.07-2.34-.21-2.47-.42-2.56-.48-2.53-.32-2.34.02-2.24.43-2.54 1.07-2.99" filter="url(#a)"/><path d="m-57.73-75.54-.49 1.95-.14 2.03-.44 1.58-.74 1.46-.86 1.57-.88 1.58-.85 1.42-.77 1.2-.58 1.11-.28 1.25.03 1.52.17 1.72.08 1.76-.28 1.58-.85 1.23-1.46.79-1.8.41-.96.68 2.87 3.09" filter="url(#a)"/><path d="m-62.88-87.33.27 3.06.05 2.02-.24 1.42-.24 1.52-.15 1.85-.24 2-.55 1.88-.87 1.68-.93 1.56-.67 1.66-.2 1.87.23 2.06.41 2.09.23 1.89-.26 1.5-.93 1.02-1.54.61-1.82.47-1.57.72-.62 1.36.87 2.3 2.55 3.34 2.22 3.32m13.57-17.75-.99.97-1.31 1.42-1.19 1.43-.94 1.2-.74.96-.65.8-.65.75-.68.76-.73.83-.77.94-.81 1.04-.83 1.14-.81 1.17-.74 1.13-.6 1.04-.49.98-.64 1.19m-34.97 14.53 2.36-.34 1.9-.62 1.67-.54 1.7-.56 1.8-.7 1.97-.83 2.25-.81 2.53-.67 2.68-.51 2.62-.42 2.35-.43 2.02-.5 1.67-.56 1.41-.64 1.24-.73 1.14-.84 1.08-.96.99-1.1 1.17-1.73" filter="url(#a)"/><path d="m-67.3-45.09.78-.64.42-.58.47-.67.57-.78.68-.89.81-.97.91-1 .99-.95 1.01-.86.96-.76.9-.68.81-.61.75-.49.72-.35.73-.26.95-.49-13.75 13.18-2.1 1.53-.97 1.14-.48 1.05-.42 1.05-.51 1.09-.6 1.1-.67 1.12-.73 1.13-.75 1.18-.72 1.23-.66 1.22-.55 1.13-.42 1-.32.9-.32.89-.5 1.02-.81 1.31-.94 2.14" filter="url(#a)"/><path d="m-70.32-40.05-.39.77.07 1.06.41 1.35.27 1.42-.09 1.31-.37 1.19-.45 1.17-.4 1.23-.36 1.29-.33 1.26-.24 1.16-.01 1.05.34 1.03.68 1.12.78 1.31.47 1.53-.01 2.11m147.79-2.96.13.22.61 1.15 1.01 1.25 1.18 1.19 1.21 1.18 1.22 1.23 1.31 1.29 1.47 1.32 1.59 1.3 1.58 1.25 1.41 1.24 1.18 1.27 1.01 1.36 1.06 1.46 1.35 1.55 1.71 1.61 1.98 1.62 1.95 1.62 1.67 1.63 1.35 1.67 1.23 1.65 1.28 1.49 1.03 1.28.75 1.91M-72-37.54l-.58-1.56.11-1.29-.17-1.7-.56-2.08-.63-2.16-.32-1.9.13-1.49.42-1.19.4-1.17.15-1.38-.11-1.7-.24-1.96-.23-2.14-.27-2.31-.43-2.47-.58-2.55-.47-2.35-.14-1.97-.03-1.81.12-1.56" filter="url(#a)"/><path d="m-55.34-44.12-1.06 1.24-1.27.29-1.19.16-1.3.1-1.47.11-1.46.27-1.21.59-.87.93-.68 1.1-.8 1.01-1.14.71-1.46.42-1.54.37-1.42.82-1.53 2.16 1.41.81.48 1.24-.71 1.17-1.01 1.13-.78 1.1-.45 1.04-.2 1.02-.03 1.03.09 1.12.2 1.23.31 1.33.39 1.42.42 1.45.42 1.43.39 1.37.39 1.3.35 1.24.27 1.22.16 1.25.2 1.26.47 1.07.31.13-3.13-24.55-.46 1.55-.22 1.78-.2 1.44-.27 1.09-.31.92-.29.92-.21 1.02-.1 1.17.02 1.28.15 1.38.24 1.41.35 1.42.46 1.4.59 1.36.73 1.33.85 1.31.93 1.29.96 1.2.91 1.07.7.89.29.84-.1.98.48 1.18" filter="url(#a)"/><path d="m-73.79-33.03-1.58 1.13-2.74.85-1.96.81-.78.94-.16 1.02-.18 1.06-.57 1.04-1.11 1.02-1.64 1-2.1.99-2.44.97-2.58.99-2.45 1.01-2.04 1.09-1.52 1.22-1.22 1.35-1.38 1.38-1.89 1.26-2.24 1.02-1.87.79-.86.95-.38 1.93 31.86-19.7 2.35-1.65.79-1.34.65-1.03.81-.92.95-.85 1.07-.75 1.17-.67 1.19-.63 1.15-.7 1.04-.81.95-.9.91-.9.95-.79 1.01-.6 1.02-.41 1.02-.25 1.11-.04.93.16-49.12 30.79-.34-2.83.25-2.06 2.14-1.43 3.42-.98 3.49-.85 2.83-.96 2.12-1.13 1.65-1.25 1.28-1.3.87-1.36.66-1.33 1.09-1.03 2.29-.41 3.49.26 3.3.35 1.39-.62-3.83-41.08.11 3.45.08 2.68.32 2.42.51 2.2.56 1.99.41 1.82.17 1.67-.02 1.62-.02 1.69.15 1.81.39 1.94.54 1.98.53 1.89.37 1.73.15 1.57-.03 1.45-.14 1.4-.2 1.4-.31 1.42-.59 1.4-1.11 1.27-1.71.95-1.3.77 4.45 2.15" filter="url(#a)"/><path d="m-76.26-26.54-.47.6-1.23.87-1.26 1.03-1.03 1.15-.88 1.25-.83 1.28-.8 1.28-.73 1.26-.62 1.23-.5 1.23-.44 1.26-.42 1.26-.43 1.18-.47 1.06-.56.94-.73.95-.95 1.06-1.1 1.15-1.58.88M76.69-25l1.47 1.25 1.08.88.83.9.47 1.15.2 1.31.12 1.38.21 1.38.39 1.37.55 1.38.66 1.38.67 1.37.67 1.29.66 1.22.66 1.17.61 1.2.48 1.32.35 1.49.35 1.61.62 1.59 1.07 1.41" filter="url(#a)"/><path d="m76.91-25.3.06.74.32 1.04.45.98.57.99.66 1.06.64 1.17.55 1.22.46 1.27.43 1.31.47 1.36.52 1.42.55 1.42.51 1.34.39 1.18.28 1.04.22.96.29 1.02-7.37-19.52-.16-1.43-.16-1.37-.22-1.17-.09-1.11.13-1.26.4-1.54.71-1.85 1.01-2.14 1.29-2.37 1.47-2.55 1.53-2.69 1.46-2.65 1.21-2.34.84-1.84 1.03-1.85 2.89-3.74L77.32-6.75l-.1-1.41.14-1.16.17-1.4.04-1.5-.11-1.43-.21-1.32-.21-1.27-.15-1.27-.05-1.3.04-1.27.06-1.21.02-1.13-.12-1.05-.26-1.02-.3-.97-.04-1.14-1.16-3.39.53 1.65.18 1.46-.14 1.33-.42 1.3-.6 1.3-.66 1.28-.62 1.28-.57 1.29-.58 1.33-.63 1.36-.63 1.35-.55 1.34-.39 1.34-.2 1.37-.03 1.36-.06 1.24-.52 1.08-1.31 1.4 7.35-23.65 7.02-4.32.51-1.84-.95-1.36-.9-1.42-.36-1.66.1-1.89.22-1.93.01-1.73-.19-1.45-.02-1.44.75-1.87 1.89-2.61 2.68-3.05 2.18-2.58.34-1.8-13.28 30.95.18.29.42.98.45 1.16.4 1.13.36 1.08.32 1.04.3 1.03.28 1.04.3 1.11.31 1.2.34 1.25.36 1.24.37 1.14.36.96.2.28-4.95-14.93.53.18 1.28.73 1.11.94.68 1.07.37 1.12.24 1.12.27 1.11.44 1.11.73 1.1 1.07 1.09 1.35 1.09 1.44 1.11 1.31 1.2 1.01 1.33.71 1.48.62 1.55.76 1.46.92 1.24.65 1.08.57.73M75.76-61.87l.37 1.9-.04 2.51-.4 2.71-.38 2.3-.23 1.8-.21 1.52-.32 1.47-.42 1.51-.35 1.5-.04 1.39.41 1.25.8 1.16.85 1.21.38 1.45-.4 1.83-.83 2.13-.43 1.97.18 1.44" filter="url(#a)"/><path d="m55.52-42.73 2.25 1.48 1.29.71 1.24.27 1.31.12 1.41.1 1.45.13 1.37.25 1.23.43 1.08.68 1.01.9 1 1.01 1.03 1.04 1.01 1.07.95 1.21.84 1.33.71 1.18" filter="url(#a)"/><path d="m53.79-53.22 1.3 1.37 1.47.92 1.24.66.98.56.82.57.77.67.8.79.85.92.86.98.85.96.82.89.8.81.78.73.77.69.79.71.79.77.81.87.83 1.01.82 1.11.81 1.18.81 1.23.83 1.31.8 1.38.51 1.31m-.31-1.32-.38-1.71.01-1.82-.24-1.5-.54-1.35-.6-1.31-.49-1.26-.34-1.22-.2-1.19-.1-1.19-.04-1.26v-1.36l.05-1.52.06-1.71.09-1.86.07-1.9.04-1.83v-1.65l-.04-1.47-.14-1.39-.34-1.42-.66-1.59-.89-2.02-.79-2.52-10.96 6.62 1.05 1.31 1.1 1.23 1.12 1.3.99 1.29.82 1.18.69 1.05.61.97.59.98.61 1.05.67 1.15.72 1.17.74 1.14.7 1.06.63 1 .5.97.38.99.29 1.04.28 1.09.35 1.16.47 1.26.56 1.31.55 1.29.46 1.27.74 2.09" filter="url(#a)"/><path d="m56.97-53.83 1.52 1.49 1.13.73.87.58.74.57.74.66.82.8.87.96.87 1.04.83 1.05.74.98.66.9.63.82.62.78.63.79.62.84.61.97.61 1.15.65 1.25.73 1.18.77 1.09.95 1.98-1.37-3.38-.05-.05-.72-.99-.92-1.18-.87-1.04-.79-.86-.76-.73-.83-.62-1-.5-1.23-.39-1.44-.33-1.57-.33-1.59-.39-1.5-.44-1.32-.48-1.1-.49-.92-.49-.86-.51-.96-.53-1.17-.6-1.32-.71-1.37-.73-1.36-.25m10.53-16.09.64.52.43 1.28.56 1.51.74 1.52.86 1.47.86 1.38.75 1.28.61 1.19.51 1.12.52 1.08.61 1.07.7 1.12.73 1.19.62 1.26.43 1.29.25 1.25.16 1.19.18 1.09.25.98.28.82.23.7.26.7" filter="url(#a)"/><path d="m69.51-41.75 1.05-1.3.38-1.51-.22-1.13-.27-1.06-.25-1.22-.26-1.48-.1-1.81.32-2.19.84-2.45 1.1-2.44.88-2.11.18-1.58-.59-1.22-.89-1.44-.59-2.36-.29-3.01-1.14 28.33 2.17-3.47 1.75-2.57-.44-.9-1.22-.61-.77-1.25-.02-1.96.35-2.2.25-1.95-.02-1.57-.22-1.38-.21-1.49-.13-1.81-.1-2.11-.19-2.29-.3-2.31-.33-2.24-.29-2.06.02-2.04 1.63-3.2-3.93 34.12.95 1.33.88.91.78.72.75.82.8 1 .96 1.09 1.19 1.07 1.42.98 1.59.91 1.62.88 1.48.86 1.3.85 1.15.83 1.09.84 1.02.96.92 1.08 1.1.92 1.76.15" filter="url(#a)"/><path d="m64.32-49.5-.26-.93-.12-1.01.29-1.31.58-1.7.58-2.02.38-2.2.16-2.3.04-2.34.02-2.31.07-2.18.19-2.04.35-1.96.41-1.92.17-1.83-.31-1.74-.6-1.88.12-2.62 2.23-4.23-4.3 36.52 1.74 2.31.95 1.19.7.77.64.69.64.72.65.77.67.82.72.9.75 1.01.77 1.11.75 1.22.73 1.27.72 1.29.72 1.26.74 1.18.73 1.06.69.97.63.94.61 1.05.65 1.26.88 1.26M64.01-50.26l-.46 2.27-.81 2.82.14 1.67.99.68 1.22.35 1.03.43.69.66.43.89.26 1.07.15 1.23.04 1.39-.13 1.54-.33 1.66-.54 1.74-.68 1.77-.71 1.69-.65 1.49-.62 1.22-.78 1.1-.73 1.42-18.03-36.62 1.36 1.1 1.35.33 1.39.25 1.31.31 1.14.27 1.03.17.98.13 1.02.21 1.11.36 1.22.54 1.31.72 1.3.85 1.19.93 1.01.9.81.74.61.42.31.16m-4.79-28.06-.37 1.35.29 1.4.46 1.61.36 1.88.28 1.97.31 1.81.4 1.46.39 1.18.23 1.16-.01 1.42-.18 1.81-.19 2.09.05 2.12.45 1.9.77 1.57.8 1.34.69 1.75" filter="url(#a)"/><path d="m61.41-53.78 1.02 1.3.71.57.65.63.69.93.77 1.15.82 1.21.83 1.12.83.95.8.81.8.73.78.71.79.73.8.8.83.91.89 1.04.93 1.15.94 1.17.93 1.2 1.04 1.38 1.03 1.46" filter="url(#a)"/><path d="m61.37-53.36 2.3-1.33 2.23-.7 1.08.23.91.51 1.46.41 2.1.28 2.39.24 2.25.32 1.96.36 1.91.24 2.37-.11 3.14-.56 3.6-.84 3.1-.75 1.51.03" filter="url(#a)"/><path d="m58.04-57.42 2.2.69 2.7.04 2.89-.58 2.97-.96 2.62-.83 1.84-.15 1.02.76.7 1.35 1.05 1.36 1.74.88 2.3.26 2.47-.15 2.51-.27 2.94-.13 3.98.06-34.69-2.99.83.99.97 1.39.74 1.49.38 1.49.15 1.37.15 1.17.25 1.05.26 1.14.13 1.4-.08 1.68-.24 1.78-.26 1.65-.15 1.34.05 1.07.29.92.39.87-.18.67" filter="url(#a)"/><path d="m54.8-60.58-.56.72-1.32-.26-1.13-.87-1.04-.88-1.08-.66-1.13-.43-1.17-.3-1.2-.25-1.25-.27-1.28-.34-1.23-.42-1.13-.44-1.01-.31-.98-.05-1.12.21-1.19-.06 17.82 4.61.47.6.73.84.82 1.07.8 1.28.76 1.4.72 1.38.67 1.24.64 1.05.58.93.56.9.55.97.6 1.1.67 1.2.69 1.21.61 1.11.45.98.33.9.4 1.08.73 1.46-10.81-19.81-2.41-.55-2.07-.26-1.29-.71-.88-.91-.89-.75-1.07-.42-1.27-.17-1.36-.11-1.34-.21-1.25-.3-1.16-.3-1.12-.2-1.15-.07-1.21.05-1.32.2-1.46.4-1.54.55-1.49.48-1.35.11-1.4-.39" filter="url(#a)"/><path d="m87.52-52.43-1.77-1.38-1.72-.61-1.3-.58-1.58-.51-2.16-.35-2.46-.26-2.35-.27-1.97-.36-1.57-.46-1.35-.52-1.31-.59-1.3-.74-1.23-.96-1.09-1.22-.96-1.3-1.01-1.06-1.3-.45-1.71.37-1.97.97-1.89.9-1.66.05-1.67-1.01-.96-.5L50-63.5l-1.19-.32-1.1-.37-1.15-.31-1.3-.22-1.37-.21-1.31-.25-1.18-.32-1.05-.36-1-.33-1.05-.25-1.17-.14-1.29.01-1.36.15-1.44.32-1.55.43-1.59-.15" filter="url(#a)"/><path d="m51.26-63.67-.91-.36-.98-.72-.92-.64-.99-.59-1.14-.52-1.28-.39-1.36-.21-1.37-.04-1.33.05-1.3.08-1.29.07-1.3.07-1.34.1-1.33.12-1.31.1-1.27.08-1.29.17-1.45.43-1.73.75-2.01.95-2.4 1.21 28.08-1.02-1.49-1.12-.86-.76-.8-.79-.89-.91-.96-.98-.95-.95-.89-.88-.87-.79-.89-.68-.97-.63-1.03-.62-1.06-.64-1.05-.7-1.01-.76-1.01-.78-1.03-.77-1.14-.75-1.34-.78-1.58-.9-1.99-.97" filter="url(#a)"/><path d="m61.56-39.01-.43-.9.09-.92-.01-1.16-.3-1.28-.55-1.28-.56-1.22-.41-1.19-.24-1.2-.19-1.21-.29-1.19-.49-1.18-.66-1.19-.74-1.22-.69-1.25-.58-1.24-.46-1.14-.38-1-.38-.87-.47-.84-.65-.92-.84-1.03-.82-.96-.47-.58m-2.25-1.59 1.05-2.27.42-2.16-.82-1.12-1.36-.59-1.31-.56-1.01-.87-.68-1.28-.46-1.64-.39-1.86-.43-1.92-.54-1.86-.67-1.71-.83-1.5-.98-1.31-1.1-1.23-1.16-1.27-1.15-1.39-1.08-1.48-.95-1.38-.81-1.2-.68-1.24-.63-1.86-.9-2.84-1.54-2.29" filter="url(#a)"/><path d="m48.79-65.57 2.33-4.02 2.06-4.47.16-2.61-.94-1.35-1.36-.65-1.35-.46-1.09-.77-.69-1.43-.37-2.07-.28-2.38-.42-2.23-.69-1.83-.91-1.49-.97-1.46-.93-1.69-.92-2.04-1.05-2.4-1.36-2.69-1.88-2.93" filter="url(#a)"/><path d="m26.13-65.1 1.82-1.01 1.46-.23 1.18.08 1.1.15 1.15.1 1.27-.06 1.4-.23 1.47-.34 1.46-.37 1.41-.34 1.37-.27 1.35-.14 1.35.06 1.31.35 1.19.66.93.82.62.62.82-.32" filter="url(#a)"/><path d="m60.59-49.8-.16-.65-.66-.94-.76-1.19-.78-1.36-.81-1.36-.78-1.24-.72-1.06-.63-.85-.54-.72-.5-.66-.58-.73-.73-.84-.87-.94-.9-.98-.93-1.02-1.45-1.23-.32-.31.99.37 1.27.56 1.11.78.96.94.88.91.83.76.83.56.89.45.99.44 1.1.54 1.17.7 1.16.87 1.11 1.01 1.01 1.04.94.95.91.78.94.62 1.01.58 1.12.76 1.27 1.13 1.44 1.39 1.18.79" filter="url(#a)"/><path d="m46.98-67.11-.97-2.16-.72-1.44-.84-.78-.88-.57-.87-.65-.86-.87-.8-1.13-.75-1.33-.75-1.36-.83-1.21-.97-.99-1.11-.85-1.2-.89-1.2-1.09-1.13-1.25-.95-1.22-.62-1.03-.1-.88.23-.42L61.7-50.71l-.2-.65-.68-.98-.9-1.1-1-1.2-1.01-1.19-.93-1.1-.8-.97-.68-.83-.58-.75-.57-.72-.64-.76-.75-.83-.86-.88-.93-.89-.93-.84-.87-.75-.77-.66-.67-.58-.95-.72 12.55 8.21-.94-.71-1.04-.62-.81-.48-.68-.38-.71-.39-.85-.51-.98-.66-1.03-.77-1-.82-.94-.79-.9-.71-.87-.61-.92-.61-1.2-.78-1.97-.94-25.28-14.58 1.05.54 1.23.44 1.35.48 1.36.54 1.29.58 1.14.58 1 .56.92.55.93.58 1.02.61 1.11.65 1.18.65 1.2.62 1.2.56 1.17.52 1.12.56 1.09.64 1.07.74 1.04.76.95.72.57.74-.13.39 40.27-2.03-.88-.65-2.29-.86-2.58-.57-2.32-.41-1.94-.3-1.67-.15-1.62.05-1.78.26-2.02.42-2.24.52-2.35.58-2.34.58-2.19.48-1.94.24-1.64-.08-1.43-.38-1.36-.5-1.43-.41-1.56-.09-1.68.41-1.71.83-1.62.78-1.4.05-1.59-.81 2.61-1.5.87.95.71.91.98.46 1.23.26 1.34.3 1.32.45 1.2.6 1.07.71.98.8 1 .8 1.12.7 1.33.51 1.49.31 1.5.16 1.36.09 1.15.07 1.08.09 1.22.17 1.46.33 1.26.57-27.39-8.21 1.19.51 1.23.54 1.11.48.97.47.94.53 1 .57 1.1.6 1.15.62 1.14.63 1.1.63 1.06.61 1.07.6 1.09.65 1.1.71 1.09.79 1.01.77.88.59.68.31.55.15.54.54" filter="url(#a)"/><path d="m37.85-72.76 1.23.41 1.24.51 1.19.33 1.21.08 1.27-.02 1.31.07 1.3.31 1.24.54 1.13.7 1.03.76.97.73 1.02.66 1.17.55 1.38.44 1.59.48 1.73.86 1.66 1.65-22.69-9.55.04-2.87-1.34-.06-1.46.04-1.35-.46-1.19-.83-1.01-.97-.84-.96-.75-.93-.77-.96-.86-1.1-.99-1.25-1.09-1.31-1.18-1.19-1.22-.89-1.24-.58-1.28-.5-1.59-.82-2.72-1.69 19.92 16.64-1.51-.09-1.22-.32-1.27-.61-1.27-.6-1.16-.45-1.05-.29-.99-.21-1.01-.18-1.11-.23-1.21-.27-1.27-.29-1.3-.28-1.3-.22-1.31-.17-1.32-.11-1.33-.1-1.28-.1-1.19-.13-1.07-.16-1.04-.15-1.11-.09-.93.08 53.52.44-1.31-.23-1.01-1.12-1.24-.59-1.69.02-2.04.34-2.17.46-2.12.48-1.96.46-1.79.39-1.63.3-1.58.24-1.62.29-1.68.36-1.67.33-1.51.09-1.32-.2-1.28-.18-1.53.29-1.85.61-1.55-.18L52.41-65.7l-1.55-1.13-1-.61-.98-.57-1.14-.61-1.22-.62-1.2-.58-1.12-.54-1.04-.53-1-.54-1.01-.54-1.06-.55-1.11-.52-1.13-.49-1.15-.49-1.13-.51-1.14-.56-1.21-.58-1.36-.56-1.53-.46-1.51-.36-.87-.33" filter="url(#a)"/><path d="m3.12-71.39 1.7-1.31 1.39-1.08 1.33-.94 1.26-.79 1.19-.66 1.15-.54 1.11-.43 1.13-.28 1.19-.14 1.25-.06 1.3-.03 1.34-.07 1.35-.13 1.36-.12 1.39.02 1.39.33 1.37.7 1.36.63 1.23-1.3" filter="url(#a)"/><path d="m9.85-88.68.77 1.18.93.97 1.01.83 1.01.72 1.04.58 1.16.47 1.28.37 1.34.33 1.3.38 1.23.5 1.17.71 1.15.95 1.2 1.19 1.44 1.24 2.11 1.14-2.82-1.21 1.79.53.79.23.65.22.87.31 1.12.39 1.28.43 1.32.44 1.27.44 1.22.46 1.15.5 1.11.55 1.1.59 1.1.58 1.07.56 1.01.53.94.5.9.51.98.56 1.22.68 1.74 1.06-24.1-10.59 1.66.45 1.46.08h1.02l.87.13.99.22 1.2.22 1.4.15 1.48.07 1.48.07 1.4.15 1.29.31 1.2.49 1.13.62 1.11.64 1.12.57 1.17.41 1.23.23 1.34.1 1.46.1 1.59.24 1.62.47 1.44.58.81.28" filter="url(#a)"/><path d="m58.23-89.48-2.67 2.18-2.25 1.26-1.87.85-1.86.76-1.92.67-1.88.47-1.76.25-1.7.2-1.7.3-1.74.42-1.77.43-1.75.36-1.68.26-1.58.23-1.42.25-1.22.26-1.11.24-1.18.25-1.46.35-1.65.4-1.25.16 16.66 9.37-1.26-.72-1.02-.73-.93-.75-.93-.73-.99-.68-1.08-.66-1.15-.66-1.17-.67-1.12-.63-.98-.55-.83-.45-.77-.4-.9-.42-1.16-.5-1.31-.49-1.06-.33-2.19-.88-.65-.94-.93-.93-1.29-.41-1.39-.21-1.28-.3-1.14-.53-1.04-.76-1.05-.83-1.11-.73-1.19-.53-1.26-.36-1.3-.27-1.27-.26-1.21-.26-1.15-.26-1.07-.26-1.04-.33-1.22-.4-1.87-.27" filter="url(#a)"/><path d="M19.85-79.89 21.39-81l2.59-3.48 2.66-3.3 2.17-1.84 1.5-.23.88 1.07.57 1.75.61 1.78.93 1.27 1.35.52 1.74-.21 2-.77 2.15-1.09 2.24-1.23 2.24-1.18 2.18-.98 2.04-.66 1.85-.3 1.68-.06 1.65-.09 1.79-.37 2.09-.55 2.37-.32 3.37-.2-19.03-6.09-3.65 1.08-2.45.14-2.26 1.24-2 1.89-1.73 1.79-1.64 1.48-1.74 1.33-1.91 1.31-1.98 1.29-1.91 1.21-1.76 1.1-1.58.96-1.49.76-1.72.46-2.87.4" filter="url(#a)"/><path d="m14.32-81.12 3.16-1.63 1.5.45 1.18.47 1.22.33 1.3.34 1.37.32 1.4.19 1.36-.02 1.26-.16 1.11-.13 1.06.02 1.16.16 1.39.17 1.6.11 1.55.13 1.33.21 1.84-.36m-24.79-.6 2.62.76 1.48.5 1.12.65 1.09.74 1.18.67 1.24.55 1.21.5 1.07.57.91.68.79.78.77.83.86.81.96.8 1.03.8.97.9.84 1.08.7 1.21.67 1.19.76.98.89.82.87 1.23" filter="url(#a)"/><path d="m13.79-81.04-.26-1.42-.62-3.04-.9-2.22-1.17-.74-1.33-.03-1.37-.29-1.33-1.06-1.23-1.83-1.17-2.23-1.13-2.11-1.14-1.63-1.21-1.09-1.33-.81-1.52-.9-1.74-1.24-1.9-1.51-1.84-1.42-1.52-.83-1.52-.17 22.9 24.34.96.01.92-.1 1.29-.25 1.54-.49 1.65-.75 1.66-.89 1.64-.81L23.7-85l1.46.02 1.32.45 1.19.64 1.11.56 1.1.29 1.18.02 1.34-.11 1.47-.02 1.56.15 1.59.18 1.63-.1 1.76-.49 1.62-.19" filter="url(#a)"/><path d="m12.46-81.27-1.4-.21-1.19.3-1.27.57-1.31.57-1.26.56-1.18.75-1.09.97-1.04 1.03-1 .9-.99.78-1.02.83-1.09 1.06-1.17 1.25-1.2 1.24-1.11 1.1-.92 1.05-.76.96-.68.41 36.72-3.26-1.06-.93-.88-1.03-.59-.9-.53-.77-.68-.74-.88-.79-1.05-.84-1.13-.83-1.17-.74-1.17-.64-1.19-.53-1.25-.48-1.3-.46-1.3-.44-1.11-.36-.83-.23-.92-.15" filter="url(#a)"/><path d="m10.63-81.82 1.5.36 1.1.18 1.07.09 1.22.08 1.35.13 1.36.18 1.33.25 1.31.32 1.31.36 1.3.39 1.27.4 1.2.37 1.1.32 1.02.28 1.01.29 1.07.35 1.19.44 1.29.51 1.32.51 1.24.45 1.18.44 1.13.53m3.28-9.37-1.65-.25-1.56.11-1.83.33-1.86.45-1.68.47-1.43.4-1.26.27-1.22.12-1.26-.02-1.35-.09-1.41-.1-1.44-.08-1.44-.03-1.43.01-1.43.04-1.42-.03-1.34-.19-1.19-.49-1.04-.71-1.05-.43-1.28.75-1.18 1.48" filter="url(#a)"/><path d="m26.09-62.27-.51-1.98-.41-1.96-.26-1.58-.32-1.21-.55-1.01-.77-.93-.95-.84-1.07-.74-1.11-.69-1.09-.78L18.01-75l-1.02-1.27-1.01-1.37-1.02-1.23-1.01-.92-.98-.62-1-.49-1.07-.55-.87-.5-.92-.1.81.51.98.28 1.02.36 1 .49 1.01.6 1.06.72 1.11.83 1.12.9 1.1.92 1.1.89 1.11.81 1.16.68 1.18.53 1.14.43.97.43.71.61.46.93.43 1.26.74 1.3 1 .97-44.02-15.82.65.18 1.33.04 1.38-.05 1.33-.05 1.27-.02 1.23.02 1.22.06 1.26.09 1.33.1 1.37.09 1.35.06 1.28.05 1.17.04 1.08.04 1.04.05 1.04.06 1.07.07 1.17.06 1.34.08 1.9.4-18.96 16.62.18-1.75.72-2.13.85-1.63.9-1 .96-.67 1.05-.66 1.15-.79 1.2-.87 1.19-.86 1.14-.82 1.06-.87 1.01-.97.99-1.05 1.03-.96 1.08-.69 1.16-.37 1.35-.22 1.94-.31-3-.29.86.51 1.22.92 1.17.73 1.1.44 1.05.33 1.01.36 1.01.45 1.05.56 1.11.67 1.12.79 1.07.9 1.01 1 .96 1.1.96 1.2 1 1.34 1.17 1.48 1.88 1.06" filter="url(#a)"/><path d="m-20.28-104.8 3.37 2.95 2.06 1.55 1.79 1.54 1.7 1.92 1.59 2.07 1.52 1.92 1.49 1.65 1.53 1.33 1.55 1.02 1.5.68 1.39.34 1.23.02 1.1-.13 1.03.04 1.05.6 1.07 1.39 1.42 3.57-1.5-.97-1.05-1.04-1.02-.86-1.03-.92-1.09-.84-1.22-.53-1.36-.19-1.44-.04-1.47-.1-1.43-.29-1.36-.49-1.35-.64-1.37-.66-1.45-.58-1.51-.45-1.55-.37-1.53-.48-.82-.87L4.61-82.35l.13-1.31 1.05-.81 1.29-.2 1.32.21 1.26.39 1.18.42 1.14.39 1.11.34 1.15.25 1.23.13h1.34l1.41-.14 1.46-.23 1.45-.22 1.46-.12 1.49.03 1.57.14 1.68.15 1.64.11.9-.22" filter="url(#a)"/><path d="m36.47-100.48-3.05-.55-2.58.94-2.41 1.76-2.3 2.14-2.16 2.09-2.01 1.76-1.87 1.31-1.73.86-1.56.58-1.43.51-1.35.64-1.35.84-1.36.94-1.4.85-1.41.66-1.41.52-1.34.6-1.05.78-.09.9" filter="url(#a)"/><path d="m.73-82.56 2.36-.18 1.35-.46 1.26-.47 1.33-.45 1.38-.52 1.39-.67 1.37-.75 1.33-.73 1.31-.67 1.38-.66L16.7-89l1.72-1.29 1.93-1.81 2.07-2.19 2.11-2.18 2.04-1.7 1.99-.97 2.02-.34 2.19.29 2.52 1.95" filter="url(#a)"/></g><path fill="none" stroke="#000" stroke-linejoin="round" stroke-width="3" d="M-11.2 13.75Q11.64 17.37.22-4.646" filter="url(#a)"/><path fill="#D77F8C" stroke="#000" stroke-linejoin="round" stroke-width="3" d="m-14.52 61.07.38-1.17.37-1.12.37-1.08.37-1.04.36-.99.36-.96.36-.91.35-.88.35-.84.35-.8.34-.76.34-.72.34-.69.33-.65.33-.62.33-.58.33-.55.32-.51.32-.49.31-.45.32-.41.31-.39.31-.36.31-.33.3-.29.31-.27.3-.24.3-.22.3-.19.29-.16.3-.13.29-.11.29-.09.29-.07.29-.04.29-.01h.28l.29.03.28.04.29.07.28.08.28.1.28.13.28.14.28.15.28.17.28.19.28.21.28.21.28.23.28.25.28.26.28.27.27.28.28.29.28.3.28.31.28.32.29.33.28.34.28.34.29.35.28.36.29.36.28.36.29.37.29.38.29.37.3.38.29.38.3.38.29.38.3.38.3.38.31.38.3.38.31.37.31.37.31.37.31.36.32.36.32.35.32.35.32.34.33.33.33.32.33.31.34.31.34.29.34.29.35.27.34.26.36.25.35.24.36.22.36.2.37.2.37.17.38.17-.31-.08-.31-.08-.31-.09-.31-.1-.31-.1-.31-.11-.31-.12-.31-.12-.31-.13-.3-.14-.31-.14-.31-.15-.31-.15-.31-.16-.31-.16-.31-.16-.31-.17-.31-.17-.31-.17-.3-.18-.31-.17-.31-.19-.31-.18-.31-.18-.31-.19-.31-.18-.31-.19-.31-.18-.31-.19-.3-.18-.31-.19-.31-.18-.31-.18-.31-.18-.31-.18-.31-.17-.31-.18-.31-.17-.31-.16-.3-.17-.31-.15-.31-.16-.31-.15-.31-.14-.31-.14-.31-.14-.31-.13-.31-.12-.31-.11-.3-.11-.31-.11-.31-.09-.31-.09-.31-.08-.31-.07-.31-.06-.31-.05-.31-.05-.31-.03-.3-.03-.31-.01-.31-.01-.31.01-.31.02-.31.03-.31.04-.31.05-.31.07-.31.08-.3.09-.31.1-.31.12-.31.13-.31.15-.31.16-.31.18-.31.19-.31.2-.31.22-.3.24-.31.26-.31.27-.31.29-.31.3-.31.33-.31.34-.31.36-.31.37-.31.4-.3.42-.31.43-.31.46-.31.48-.31.49-.31.52-.31.54-.31.56-.31.58-.31.6" filter="url(#a)"/></svg>