<svg xmlns="http://www.w3.org/2000/svg" width="500" height="500" viewBox="-100 -100 200 200"><defs><clipPath id="c"><path d="m30.17-3.92-.33-.09-.35-.09-.38-.1-.4-.09-.42-.1-.44-.09-.47-.1-.49-.1-.52-.09-.53-.1-.56-.1-.58-.1-.6-.1-.62-.1-.64-.1-.62-.1-.66-.09-.7-.11-.73-.1-.76-.11-.79-.11-.83-.11-.85-.12-.89-.11-.9-.12-.93-.11-.95-.12-.97-.11-.98-.12-.99-.11-1.01-.11-1.02-.1-1.02-.1-1.02-.1-1.03-.09-1.02-.09-1.02-.08-1.02-.08-1.01-.07-1-.06-.99-.06-.97-.05-.96-.04-.95-.04-.92-.03-.91-.02-.89-.02-.86-.01h-.84l-.82.01-.8.01-.77.02-.74.03-.72.03-.7.04-.67.04-.64.05-.62.06-.59.06-.57.06-.55.07-.52.07-.5.07-.48.07-.46.08-.44.07-.42.08-.4.09-.38.08-.37.09-.34.09-.33.09-.31.09-.3.09-.28.09-.26.09-.25.09-.23.1-.22.09.35 2.11.23.18.25.2.26.19.28.21.29.21.3.21.33.22.33.23.36.23.36.25.39.24.4.26.43.26.43.27.46.28.48.29.49.29.52.3.53.31.56.32.58.32.6.34.62.34.65.35.67.36.69.37.72.37.74.38.76.38.78.39.81.39.82.39.85.39.86.39.88.38.89.38.92.37.92.37.94.35.95.34.95.33.97.31.97.29.97.28.98.25.98.22.97.2.98.17.96.14.96.11.95.07.93.04h.92l.91-.04.88-.08.87-.11.85-.17.82-.2.8-.24.77-.29.74-.33.71-.37.68-.42.65-.45.65-.23.62-.24.61-.26.59-.28.58-.29.55-.31.53-.32.51-.34.49-.34.47-.35.45-.36.43-.37.4-.37.38-.37.36-.37"/></clipPath><clipPath id="b"><path d="m-29.63-2.12.34-.07.36-.06.38-.07.4-.06.44-.06.45-.06.48-.06.5-.07.52-.06.55-.06.57-.06.59-.06.61-.05.64-.06.65-.06.64-.06.67-.05.71-.06.74-.06.78-.06.81-.06.84-.06.87-.06.89-.06.92-.07.94-.06.96-.06.98-.06.99-.06 1.01-.05 1.01-.06 1.03-.05 1.03-.05 1.03-.05 1.03-.05 1.03-.05 1.02-.04 1.02-.04 1.01-.03 1-.03.99-.03.97-.03.96-.02.94-.02.92-.01.9-.01.88-.01h3.28l.76.01.73.02.71.01.67.02.66.02.62.03.6.02.57.03.55.03.52.04.5.03.48.03.45.04.44.03.41.04.4.04.37.04.35.04.34.04.31.04.3.04.28.04.26.05.24.04.23.04.21.04.2.05.18.04-.48.94-.25.11-.26.12-.28.11-.3.12-.3.12-.33.13-.34.13-.36.13-.37.13-.39.14-.41.15-.43.15-.44.15-.46.16-.48.16-.5.16-.52.17-.55.18-.56.18-.58.18-.61.2-.63.19-.65.2-.68.21-.7.21-.72.21-.75.22-.76.22-.79.23-.81.22-.84.23-.85.23-.87.23-.89.23-.9.23-.92.22-.94.23-.94.21-.96.21-.97.21-.97.19-.98.19-.99.17-.98.17-.99.15-.98.14-.98.12-.97.1-.97.09-.95.07-.94.05-.93.03h-.91l-.89-.01-.87-.04-.85-.07-.82-.09-.8-.11-.76-.14-.74-.16-.71-.19-.67-.21-.64-.24-.61-.26-.62-.13-.6-.14-.58-.15-.56-.16-.53-.16-.52-.18-.5-.19-.48-.19-.45-.2-.43-.2-.41-.21-.39-.21-.37-.21-.34-.22-.32-.21"/></clipPath><filter id="a"><feTurbulence baseFrequency=".05" numOctaves="3" result="noise" type="noise"/><feDisplacementMap in="SourceGraphic" in2="noise" scale="2"/></filter></defs><rect width="100%" height="100%" x="-100" y="-100" fill="#C3B091"/><path fill="coral" stroke="#000" stroke-linejoin="round" stroke-width="1.667" d="M61.81 1.44 61.63.03l.11 3.05-.07-.45-.08 2.59v2.09l-.24 1.74-.19 2.13.07.14-.15.3-.32 3.44-.05.03-.01.97.03.08-.66 3.38-.03.2-.18.76-.42 2.98-.42.91.35-1.26-.95 4.14.13-.25-.54 2.18-.24 1.47-.46.74.15.21.04.12-1.49 3.74-.07.38-1.06 3.06-.48 1.67.19-.76-.03-.23-.94 2.96-.56 1.08.1-.24-.62 1.58-.95 1.69.2-.65-.53 1.36-1.87 3.46-.3.56-.25.49-.58 1.34-.86 1.46-.17-.09-.67 1.67-1.16 1.17-.23 1.12-.08-.25-1.56 2.09.49-.35-1.82 2.06-.18.32-1.42 1.94-.99.73-.86 1.46.04-.4-.62 1.06-.9.96-.74.59-2.11 2.14-.57.16.34-.15-1.49 1.27.72-.4-2.4 1.72-.83.93-1.54.95.39-.17-.09.05-1.44.81-.79.65L25.26 78l-.85.15-.45.64.17-.45-2.63 1.41-1.27.84-.08.14-1.84.66-.58.48-.68.21-1.28.39-.37.28-.98.22-1.32.46.29.1-.66-.22-1.8.72-.55.03-2.28.42.26-.02-2.21.37h-.2l-.6.19-1.56.03-.36.13-1.04.16-1.58.13-1.91-.23.51.28-2.2-.56-.13.39-2.18-.29.39.12-.81-.35-.66.06-2.71-.66-.52.06.63.3-.75-.11-2.49-1.08-.79-.19-1.31-.02.95.26-2.18-.68.38-.11-3.47-1.52-.24.02-.56-.16-1.36-.66.92.42-2.02-.87-1.89-1.32.41.44-1.12-.91-2.34-1.05 1.51.72-3.23-1.87 1.03.87-2.14-1.82-1.18-1.06-.08.18.66.28-1.62-.95-1.92-1.86.06.31-.33-.44-1.16-1.15-1.08-1.09-2.31-2.34.8 1.01-.95-1.35-1.79-1.76.29.25-1.11-1.61.69.92-1.15-1.41-1.01-1.06-.89-1.65-.77-1.16-.02.11-.8-1.16-.49-.63-1.56-2.26-.33-.65-.64-1.09-1.19-1.92-.39-.95-.73-1.1-.15-.99-1.05-1.81-.05.59-.05-.96-.24-.03-1.65-4.03.61 1.34-1.39-2.77.04-.58-1.31-3.59.84 2.53-1.2-3.57.16 1.24-.26-2.05-1.32-3.87-.32-.58-.12-.38-.19-.94-.6-2.18-.15-1.46-.3-.34.05-.79-.66-2.72-.12-.8.07-.06-.23-.66-.08-1.38-.48-1.96-.23-2.69-.36-1.11-.24-3.03.16.86-.02-1.19-.07-1.96-.24.62.04-1.41-.16-3.9-.08-1.09.16.04.03-3.46-.06-.72-.12.33.24-3.21.03-.05.1-1.1v-1.36l.25-1.95-.31.48.53-4.11-.13.74.2-1.22.25-2.43.32-1.18.04-1.24.15-1.27.6-3.43.19.02.19-1.48.47-1.58.11-.54.08.18.42-1.55.75-3.61-.05.88.4-1.98.06-.03.35-.82.61-1.36.09-1.07.44-1.08 1.19-3.03.26-.9-.2.5.64-1.63.54-1.34.25-.87 1.08-1.84.73-1.56.43-.83-.09.29 1.08-1.8.84-2.13-.18.57.79-1.5 1.01-1.96 1.25-1.16-.37.2 1.31-1.95.17-.65 1.08-.87 1.2-2.01.66-.69.52-.87 1.05-1.34.39-.12.8-1.02.07-.33.24-.46 2.37-2.23.94-.94-.05.18.39-.68h.38l.4-.5 2.2-1.92.9-.88 1.09-.63.51-.32-.12-.1 1.54-.88.34-.43 2.24-1.67-1.08.63 1.82-.78 2.71-1.51-.19.14.21-.29 1.32-.71.24.18 2.9-1.77-1.96 1.19 1.94-.78 1.1-.73.53-.14 2.61-.88-.19-.09.32-.14 1.06-.02 1.2-.68 1.78-.08.18.18 1.79-.62.63-.22-.45.17 3.65-.15.36-.09.29-.12 1.83-.22-.3.3.81-.44.9.01 2.03.31 1.37.01-1.43.13 2.11.16 1.22.12v-.04l2.41.42.07-.2 1.62.63 1.18.08-.71-.35 2.31.85.96.42 1.79.29 1.25.4-1.56-.57 3.04 1.56.67.09-.86-.62 2.51 1.2 1.01.66 1.78.94 1 .37.37.16-.52.17 1.2.37 1.38.88 1.76 1.09-1.66-.98 1.68 1.17.09-.17 1.92 1.83.49.39.87.54 2.57 2.08-.02.1.55.53.27.4-.02-.18 1.59 1.7.43.63 2.24 2.6-.66-1.13 1.74 1.85-.33-.09 1.54 2.13 1.17 1.16-.15-.27.66 1.28 1.58 1.86.1.54.85.75.26.67 1.48 2.03-.03.33-.14-.06 1.34 1.95 1.2 2.08-.57-.79.63 1.13 1.67 3.2-.11-.08-.03-.19.32.77 1.02 2.16 1.04 2.88-.1-.19.45.97 1.03 3.11.38.6-.07-.22.65 1.77.25.92.8 3.29-.19-1.06.24 1 .61 1.59.57 2.54.12 1.08-.03.19 1.12 3.91-.17.6-.04-1.65.41 3.43-.1-.4.46 3.2.16.84.25.52.38 2.98.2 1.8-.21.51.08-1.85.08 2.85.25 1.86.17 1.98-.13 1.21.2 1.88-.19 1.71.19 1.6-.18-1.41" filter="url(#a)"/><path fill="#fff" d="m-29.63-2.12.34-.07.36-.06.38-.07.4-.06.44-.06.45-.06.48-.06.5-.07.52-.06.55-.06.57-.06.59-.06.61-.05.64-.06.65-.06.64-.06.67-.05.71-.06.74-.06.78-.06.81-.06.84-.06.87-.06.89-.06.92-.07.94-.06.96-.06.98-.06.99-.06 1.01-.05 1.01-.06 1.03-.05 1.03-.05 1.03-.05 1.03-.05 1.03-.05 1.02-.04 1.02-.04 1.01-.03 1-.03.99-.03.97-.03.96-.02.94-.02.92-.01.9-.01.88-.01h3.28l.76.01.73.02.71.01.67.02.66.02.62.03.6.02.57.03.55.03.52.04.5.03.48.03.45.04.44.03.41.04.4.04.37.04.35.04.34.04.31.04.3.04.28.04.26.05.24.04.23.04.21.04.2.05.18.04-.48.94-.25.11-.26.12-.28.11-.3.12-.3.12-.33.13-.34.13-.36.13-.37.13-.39.14-.41.15-.43.15-.44.15-.46.16-.48.16-.5.16-.52.17-.55.18-.56.18-.58.18-.61.2-.63.19-.65.2-.68.21-.7.21-.72.21-.75.22-.76.22-.79.23-.81.22-.84.23-.85.23-.87.23-.89.23-.9.23-.92.22-.94.23-.94.21-.96.21-.97.21-.97.19-.98.19-.99.17-.98.17-.99.15-.98.14-.98.12-.97.1-.97.09-.95.07-.94.05-.93.03h-.91l-.89-.01-.87-.04-.85-.07-.82-.09-.8-.11-.76-.14-.74-.16-.71-.19-.67-.21-.64-.24-.61-.26-.62-.13-.6-.14-.58-.15-.56-.16-.53-.16-.52-.18-.5-.19-.48-.19-.45-.2-.43-.2-.41-.21-.39-.21-.37-.21-.34-.22-.32-.21" filter="url(#a)" transform="translate(22.79 -24.79)"/><path fill="#fff" d="m30.17-3.92-.33-.09-.35-.09-.38-.1-.4-.09-.42-.1-.44-.09-.47-.1-.49-.1-.52-.09-.53-.1-.56-.1-.58-.1-.6-.1-.62-.1-.64-.1-.62-.1-.66-.09-.7-.11-.73-.1-.76-.11-.79-.11-.83-.11-.85-.12-.89-.11-.9-.12-.93-.11-.95-.12-.97-.11-.98-.12-.99-.11-1.01-.11-1.02-.1-1.02-.1-1.02-.1-1.03-.09-1.02-.09-1.02-.08-1.02-.08-1.01-.07-1-.06-.99-.06-.97-.05-.96-.04-.95-.04-.92-.03-.91-.02-.89-.02-.86-.01h-.84l-.82.01-.8.01-.77.02-.74.03-.72.03-.7.04-.67.04-.64.05-.62.06-.59.06-.57.06-.55.07-.52.07-.5.07-.48.07-.46.08-.44.07-.42.08-.4.09-.38.08-.37.09-.34.09-.33.09-.31.09-.3.09-.28.09-.26.09-.25.09-.23.1-.22.09.35 2.11.23.18.25.2.26.19.28.21.29.21.3.21.33.22.33.23.36.23.36.25.39.24.4.26.43.26.43.27.46.28.48.29.49.29.52.3.53.31.56.32.58.32.6.34.62.34.65.35.67.36.69.37.72.37.74.38.76.38.78.39.81.39.82.39.85.39.86.39.88.38.89.38.92.37.92.37.94.35.95.34.95.33.97.31.97.29.97.28.98.25.98.22.97.2.98.17.96.14.96.11.95.07.93.04h.92l.91-.04.88-.08.87-.11.85-.17.82-.2.8-.24.77-.29.74-.33.71-.37.68-.42.65-.45.65-.23.62-.24.61-.26.59-.28.58-.29.55-.31.53-.32.51-.34.49-.34.47-.35.45-.36.43-.37.4-.37.38-.37.36-.37" filter="url(#a)" transform="translate(-36.9 -18.88)"/><g fill="none" stroke="#000" transform="translate(22.79 -24.79)"><path stroke-linejoin="round" stroke-width="1.667" d="m-31.69-1.38.11-.09.13-.08.15-.08.17-.07.19-.08.22-.07.23-.07.27-.07.28-.07.31-.06.34-.07.36-.06.38-.07.4-.06.44-.06.45-.06.48-.06.5-.07.52-.06.55-.06.57-.06.59-.06.61-.05.64-.06.65-.06.64-.06.67-.05.71-.06.74-.06.78-.06.81-.06.84-.06.87-.06.89-.06.92-.07.94-.06.96-.06.98-.06.99-.06 1.01-.05 1.01-.06 1.03-.05 1.03-.05 1.03-.05 1.03-.05 1.03-.05 1.02-.04 1.02-.04 1.01-.03 1-.03.99-.03.97-.03.96-.02.94-.02.92-.01.9-.01.88-.01h3.28l.76.01.73.02.71.01.67.02.66.02.62.03.6.02.57.03.55.03.52.04.5.03.48.03.45.04.44.03.41.04.4.04.37.04.35.04.34.04.31.04.3.04.28.04.26.05.24.04.23.04.21.04.2.05.18.04.16.04.15.04.14.04.13.04.11.04.1.04.09.04.07.04.07.03.05.04" filter="url(#a)"/><path stroke-linejoin="round" stroke-width="2.222" d="m-31.75.04.1.11.13.13.14.15.16.16.19.18.2.19.23.19.25.21.28.2.29.22.32.21.34.22.37.21.39.21.41.21.43.2.45.2.48.19.5.19.52.18.53.16.56.16.58.15.6.14.62.13.61.26.64.24.67.21.71.19.74.16.76.14.8.11.82.09.85.07.87.04.89.01h.91l.93-.03.94-.05.95-.07.97-.09.97-.1.98-.12.98-.14.99-.15.98-.17.99-.17.98-.19.97-.19.97-.21.96-.21.94-.21.94-.23.92-.22.9-.23.89-.23.87-.23.85-.23.84-.23.81-.22.79-.23.76-.22.75-.22.72-.21.7-.21.68-.21.65-.2.63-.19.61-.2.58-.18.56-.18.55-.18.52-.17.5-.16.48-.16.46-.16.44-.15.43-.15.41-.15.39-.14.37-.13.36-.13.34-.13.33-.13.3-.12.3-.12.28-.11.26-.12.25-.11.23-.1.23-.11.2-.1.2-.1.18-.1.18-.1.16-.09.15-.1.14-.09.13-.09" filter="url(#a)"/><circle cx="-26.705" cy="-2.944" r="4.966" clip-path="url(#b)" filter="url(#a)"/><circle cx="-28.54" cy="-1.969" r="4.528" clip-path="url(#b)" filter="url(#a)"/><circle cx="-29.36" cy="-.194" r="4.736" clip-path="url(#b)" filter="url(#a)"/><circle cx="-26.73" cy="-2.739" r="4.98" clip-path="url(#b)" filter="url(#a)"/><circle cx="-28.575" cy="1.216" r="3.914" clip-path="url(#b)" filter="url(#a)"/><circle cx="-28.14" cy=".066" r="3.86" clip-path="url(#b)" filter="url(#a)"/><circle cx="-30.42" cy="-3.394" r="4.81" clip-path="url(#b)" filter="url(#a)"/><circle cx="-28.575" cy="-.304" r="4.304" clip-path="url(#b)" filter="url(#a)"/><circle cx="-31.23" cy="1.236" r="3.24" clip-path="url(#b)" filter="url(#a)"/><circle cx="-28.43" cy=".806" r="3.504" clip-path="url(#b)" filter="url(#a)"/></g><g fill="none" stroke="#000" transform="translate(-36.9 -18.88)"><path stroke-linejoin="round" stroke-width="2.222" d="m32.21-2.95-.12-.1-.12-.1-.15-.1-.17-.1-.19-.1-.22-.09-.23-.1-.26-.09-.28-.09-.3-.1-.33-.09-.35-.09-.38-.1-.4-.09-.42-.1-.44-.09-.47-.1-.49-.1-.52-.09-.53-.1-.56-.1-.58-.1-.6-.1-.62-.1-.64-.1-.62-.1-.66-.09-.7-.11-.73-.1-.76-.11-.79-.11-.83-.11-.85-.12-.89-.11-.9-.12-.93-.11-.95-.12-.97-.11-.98-.12-.99-.11-1.01-.11-1.02-.1-1.02-.1-1.02-.1-1.03-.09-1.02-.09-1.02-.08-1.02-.08-1.01-.07-1-.06-.99-.06-.97-.05-.96-.04-.95-.04-.92-.03-.91-.02-.89-.02-.86-.01h-.84l-.82.01-.8.01-.77.02-.74.03-.72.03-.7.04-.67.04-.64.05-.62.06-.59.06-.57.06-.55.07-.52.07-.5.07-.48.07-.46.08-.44.07-.42.08-.4.09-.38.08-.37.09-.34.09-.33.09-.31.09-.3.09-.28.09-.26.09-.25.09-.23.1-.22.09-.2.09-.19.09-.18.09-.16.09-.16.09-.14.09-.13.09-.12.08-.1.09-.1.08" filter="url(#a)"/><path stroke-linejoin="round" stroke-width="2.222" d="m31.96.17-.13.19-.16.22-.17.26-.2.28-.23.3-.24.32-.27.34-.29.35-.31.35-.34.37-.36.37-.38.37-.4.37-.43.37-.45.36-.47.35-.49.34-.51.34-.53.32-.55.31-.58.29-.59.28-.61.26-.62.24-.65.23-.65.45-.68.42-.71.37-.74.33-.77.29-.8.24-.82.2-.85.17-.87.11-.88.08-.91.04h-.92l-.93-.04-.95-.07-.96-.11-.96-.14-.98-.17-.97-.2-.98-.22-.98-.25-.97-.28-.97-.29-.97-.31-.95-.33-.95-.34-.94-.35-.92-.37-.92-.37-.89-.38-.88-.38-.86-.39-.85-.39-.82-.39-.81-.39-.78-.39-.76-.38-.74-.38-.72-.37-.69-.37-.67-.36-.65-.35-.62-.34-.6-.34-.58-.32-.56-.32-.53-.31-.52-.3-.49-.29-.48-.29-.46-.28-.43-.27-.43-.26-.4-.26-.39-.24-.36-.25-.36-.23-.33-.23-.33-.22-.3-.21-.29-.21-.28-.21-.26-.19-.25-.2-.23-.18-.22-.19-.21-.18-.2-.17-.18-.17-.17-.17-.16-.16-.15-.17-.14-.15-.13-.16-.12-.15" filter="url(#a)"/><circle cx="-9.016" cy="3.374" r="3.632" clip-path="url(#c)" filter="url(#a)"/><circle cx="-6.661" cy="3.079" r="3.36" clip-path="url(#c)" filter="url(#a)"/><circle cx="-7.636" cy="-1.286" r="3.216" clip-path="url(#c)" filter="url(#a)"/><circle cx="-8.281" cy=".804" r="4.984" clip-path="url(#c)" filter="url(#a)"/><circle cx="-7.296" cy=".129" r="4.94" clip-path="url(#c)" filter="url(#a)"/><circle cx="-5.051" cy=".519" r="3.65" clip-path="url(#c)" filter="url(#a)"/><circle cx="-8.106" cy=".414" r="3.9" clip-path="url(#c)" filter="url(#a)"/><circle cx="-8.066" cy=".864" r="4.486" clip-path="url(#c)" filter="url(#a)"/><circle cx="-7.536" cy="-.341" r="3.238" clip-path="url(#c)" filter="url(#a)"/><circle cx="-6.116" cy=".559" r="4.722" clip-path="url(#c)" filter="url(#a)"/></g><g fill="none" stroke="coral" stroke-linejoin="round" stroke-width="2"><path d="M55.75-36.64 8.46-60.94 5.2-71.19l5.54-3.43 2.79-.87-1.86-.16-4.63.06-4.26.45-1.16 1.2 3.18 2.19 6.96 3.03 8.65 3.41 7.76 3.18 4.91 2.53 1.47 1.8-1.27 1.18-3.02.47-5.17-1.01-10-3.59-17.87-5.7-23.08-2.33-19.01 10.34" filter="url(#a)"/><path d="M24.59-78.44 1.6-62.78l3.59.52.56-6.19-1.76-5.84-.54-3 1.44-.17 1.69 1.62-.19 2.04-2.76 1.32-4.14.07-3.63-.98-1.98-1.31-.65-.87-.44.04-.76 1.01-.02 1.82 2.79 2.38 6.87 2.48 9.82 1.73 10.24.94 12.22 5.84 23.24 27.39" filter="url(#a)"/><path d="m47.65-54.51-18.3-7.02-16.48-7.73-2.29-2.55 4.59 1.11 3.64 1.33-.31.04-3.15-.62-3.59-.03-2.32 1.14L9-66.79l1.48 2.34 3.08 2.13 3.9 1.54 3.32.66 1.3-.45-1.45-1.6-3.43-2.52-3.22-2.95-1.57-2.84-6.73-2.7-35.36-1.64" filter="url(#a)"/><path d="M-7.27-84.7 4.5-76.66l-1.87 1.38 1.88.06 2.5.95.82 2.13-.53 2.55-1.17 1.96-1.86.69-2.91-.6-3.88-1.38-4.25-1.45-3.89-.98-3.14-.34-2.36.04-1.72-.06-.93-.77.37-1.91 1.75-2.79 1.08-2.3-2.49-.44 1.55-2.31" filter="url(#a)"/><path d="m16.63-82.23-1.18 17.04-13.07 2.34-4.66-1.63 2.18-.87 5.83.45 6.96.87 5.81.27 2.76-.89-1.08-1.85-4.01-1.85-4.29-.36-.96 2.46 5.27 5.32 10.94 5.69 10.63 1.18 3.1-5.78 2.52-.52" filter="url(#a)"/><path d="M44.96-58.5 5.82-72.44l-14.56-3.13 1.2.91 7.67 2.62 8.65 2.86 7.89 2.83 6.6 2.95 3.93 2.56-.55 1.15-5.49-.82-8.1-2.22-6.22-2.22-.58-1.11 4.6-.38 4.13-1.75-2.7-5.45-8.75-7.75-10.63-3.36" filter="url(#a)"/><path d="m-38.93-66.34 32.78 1.8 6.16 5.67 1.15 2.34-1.01-.38-2.06-.87-2.74-.9-3.14-1.68-2.58-2.99-.73-3.92 2.02-3.83 4.77-2.62 6.65-.74 7.39 1.29 7.2 2.92 6.52 3.87 5.51 4.06 3.96 3.4 1.44 1.75-1.78-.66-4.25-2.32-4.96-.59-11.08 3.33-51.22-8.93" filter="url(#a)"/><path d="m-6.64-84.92-.71 6.11.47 3.98-5.21 3.13-1.98 3.01 5.23 3.38 9.55 3.56 8.11 2.8 2.63 1.06-2.83-1.07-4.93-2.89-3.08-3.94.55-4.11 2.87-3.56 2.21-2.63-.42-1.77-2.49-1.35-2.41-1.47-1.13-1.88-.38-1.8-.67-.67" filter="url(#a)"/><path d="m34.37-71.07-15.08 4.83 9.37 10.47 2.49 4.25-6.62-1.81-10.71-4.78-10.64-5.02-8.69-3.75-6.08-2-2.99-.39.59.76 4.27 1.23 7.07 1.02 7.93.19 6.63-.89L16-68.69l2.04-1.66 1.94-.24 3.87 2.38 6.34 5.15 7.22 6.42 5.52 5.22 3.06 3.19 3.87 4.45 4.03 2.46" filter="url(#a)"/><path d="m24.59-78.44-.56 9-5.85.43 5.05 4.58 9.99 7.4 8.48 5.92 4.68 2.54 1.44-.03-.72-.9-2.67-1.02-5.24-1.74-8.01-3.35-9.37-4.83-8.25-4.94-6.66-3.76-9.46-2.59-17.02-1.45-11.58-.59" filter="url(#a)"/><path d="m42.87-61.37-12.51-3.45 5.67 5.68 3.27 1.52-1.11-.96-3.87-1.33-4.5-1.03-3.19-.62-1.13-.43-.07-.85-.8-1.77-2.6-2.4-3.72-1.84-2.68-.14.89 1.82 5.54 2.75 7.1.87v-6L18.11-81.24" filter="url(#a)"/><path d="m-26.64-77.17 46.76 19.7 6.39-.38-4.09-6.58-2.98-4.9.08-1.11 2.1 1.99 2.52 3.6 1.71 3.84.31 3.11-1.17 1.88-2.57.49-3.88-.79-4.87-1.83-5.1-2.6-4.31-3.11-2.78-3.27L.13-70l-.94-1.88-1.19-.7.93-.4 8.65-2.74 6.01-7.2" filter="url(#a)"/><path d="m-43.62-59.96 51.57 7.13 6.35-3.96-7.09-2.87-7.23-1.74-1.26-.02 4.34 1.87 5.87 2.48 3.61 1.24-.03-.9-2.57-2.56-2.82-2.89-1.04-2.14.92-1.31.17-1.19L2.72-68l-7.89 1.19 3.81 7.87 53.11 12.27" filter="url(#a)"/><path d="m9.85-83.92-2 10.05 14.66 8.05 9.68 3.48 2.8 1.11-2.19.32-4.69-.05-4.84-.73-3.43-1.74-1.58-2.66-.39-3.08-.41-2.89L16-74.32l-2.78-1.42-3.39-.43-2.6.67-.38 1.75 2.33 2.39 4.02 2.05 3.52.42 1.12-1.84-1.67-3.06-5.16-1.58-15.34 2.69-39.29 12.72" filter="url(#a)"/><path d="m36.74-68.52-26-9.93-4.96-2.51 1.61 1.2 4.15 2.36 4.14 1.93 2.55 1.24.86 1.28-.27 2.04-1.17 2.76-2.37 2.71-3.88 1.56-5.05-.3-5.12-2.14-3.71-3.18-1.23-3.01 1.35-1.77 2.96-.01 3.08 1.5 1.93 2.38 1.17 2.92 4.62 3.9 15.52 4.25 14.78-3.19" filter="url(#a)"/><path d="m-42.42-61.97 38.99-8.38 9.85-2.53 7.9 2.67 8.14 3.56 6.2 1.92 2.84-.36-.83-2.27-4.08-3.34-6.57-3.36-8.14-2.5-8.66-1.1-7.91.32-5.66 1.31-1.98 1.58 2.32 1.09 5.65.09 6.14-.91 2.99-1.24-2.15-.17-5.16 2.51.63 4.66 36.28-2.65" filter="url(#a)"/><path d="m-13.81-68.59.52-1.77.78-.95.64-.74.6-.7.66-.82.72-1.05.75-1.31.76-1.52.76-1.61.78-1.52.84-1.26.92-.91.97-.62.96-.49.86-.49.72-.48.57-.33.55-.31m-2.34.36 1.05-8.01.72 1.12.8 1.84.95.74 1.02-.5 1.01-1.49 1-1.92.99-1.71 1.02-1.11 1.09-.62 1.19-.62 1.28-1.18 1.36-1.89 1.35-2.18 1.28-1.69 1.24-.7 1.4-.11 1.87-1.09 2.6-3.5-2.46 13.2-1.78-.21-1.59.36-1.33.51-1.17.58-1.11.71-1.14.9-1.17 1.06-1.17 1.03-1.12.75-1.04.33-.96-.08-.91-.25-.91-.15-.93.13-.94.4-.92.4-.87.11-.81-.28-.81-.2-.87.88-1.18 2.5-2.33 2.3" filter="url(#a)"/><path d="m-7.09-84.75-.2-2.21-.91-2.9-1.02-1.06-1.03.31-1.08.34-1.15-.33-1.2-1.03-1.21-1.4-1.26-1.51-1.34-1.43-1.39-1.24-1.36-.9-1.24-.5-1.12-.28-1.15-.5-1.36-.93-1.45-.69-1.51-.16-5.53-1.1.77 2.7 1.98 1.96 2.05 1.7 1.7 1.29 1.39.95 1.26.9 1.25 1 1.23 1.04 1.2.93 1.16.69 1.14.45 1.11.24 1.09.05 1-.18.92-.46.86-.66.92-.6 1.06-.12 1.23.71 1.35 2.01 1.66 2.97.51-.3.87-.53 1.07-1.14 1.03-1.51.91-1.43.83-1.02.81-.63.85-.49.92-.57.97-.67.96-.53.9-.16.86.14.9.05 1.03-.47L7.39-95l1.95-1.59 51.2 80.98 1.65-1.95 1.38-2.04.37-1.49-.1-1.15-.3-1.05-.35-1.12-.33-1.27-.3-1.4-.27-1.46-.22-1.5-.07-1.54.16-1.62.38-1.7.52-1.78.54-1.8.45-1.77.3-1.71.17-1.68.12-1.77.18-1.92.29-2.02.23-2.02-.51-2.51m-85.36-26.26-.14 1.36-.27 1.6-.57.84-.84.4-1.01.28-1.03.31-.97.4-.89.5-.79.6-.71.68-.67.72-.68.74-.7.78-.74.86-.74.95-.68.97-.58.92-.43.82-.3.82-.3 1-.58 1.37-1.38 1.88m15-18.8-.6-.33-.76-.14-.76.18-.89.36-1.02.39-1.07.37-1.05.35-1 .34-.94.35-.89.35-.86.32-.91.26-1.04.15-1.24.03-1.41-.03-1.42-.01-1.16.13-.77.22-.81-.23" filter="url(#a)"/><path d="m-20.77-80.32.84.16 1.08.69.89.53.79-.08.83-.47.88-.46.93-.13.95.33.94.71.96.9 1 .84 1.01.63 1.03.54 1.02.77 1.04 1.3.92 1.65-15.11-7.91-.93.44-.75.25-.97.16-1.16.09-1.19.08-1.15.11-1.08.11-1.04.11-1.01.11-.99.12-.98.23-.96.41-.92.64-.85.83-.8.9-.75.79-.77.56-.85.34-.99.23-1.14.27-1.19.37-1.05.48-.77.51-.86.47 21.62-7.61-.58.64-1.17.88-.97 1.05-.72 1.24-.58 1.31-.55 1.22-.59 1.01-.63.8-.69.71-.72.73-.72.83-.67.94-.58 1.02-.48 1.06-.41 1.05-.4 1.01-.47.95-.59.86-.68.76-.68.68-.56.66-.4.78-.28 1.04-.39 1.38 28.16-46.71.1 1.16-.64.84-.93 1.15-1.02 1.41-1.06 1.28-1.07.81-1.03.44-.96.45-.87.82-.81 1.37-.76 1.82-.68 2.11-.57 2.25-.47 2.23-.46 1.99-.58 1.47-.77.87-.77.52-.3 1.11" filter="url(#a)"/><path d="m-25.56-77.8-.06.13.96-.42 1.1-.5.94-.43.82-.34.77-.31.78-.31.77-.32.76-.33.77-.32.84-.33.95-.34 1.02-.34.97-.33.69-.27.33-.11m73.53 66.22.18.87.2 1.25.14 1.37.07 1.21.03 1.01.03.98.02 1.09v1.28l-.02 1.42-.06 1.48-.07 1.46-.08 1.36-.09 1.21L60.65.6l-.11.96-.13 1-.17 1.17-.22 1.5-.16 1.88" filter="url(#a)"/><path d="m-28.14-75.7.57-1.09.64-1.36.68-1.29.8-1.17.88-.97.87-.75.84-.58.8-.54.75-.7.69-.98.63-1.28.63-1.46.71-1.42.83-1.21.93-.98.91-.9.77-1.1.64-1.4.7-1.58 1.01-1.77-19.2 25.34.69-1.17.16-2.04.02-2.07.36-1.28.77-.48 1.02-.15 1.03-.36.92-.82.82-1.24.74-1.46.71-1.42.72-1.23.73-1.04.74-.95.72-.98.69-.98.72-.92.82-.8 1-.88 1.24-1.35 1.86-2.23-16.48 23.85.82-.81.71-.6.6-.56.58-.63.63-.75.69-.85.76-.89.81-.89.88-.87.91-.82.89-.75.8-.69.7-.72.73-.91 1.01-1.22 1.93-1.63-15.65 15.51-.19.7-.04.93-.19.82-.5.65-.75.61-.83.65-.77.74-.63.8-.54.83-.5.84-.52.87-.57.93-.6 1.03-.63 1.16-.65 1.24-.58 1.19-.2 1.04 7.57-14.03.32.38.6.24.82.08 1.04-.09 1.07-.35.97-.59.84-.7.75-.65.76-.49.82-.26.93-.05 1.03.11 1.09.2 1.12.21 1.1.18 1.04.13.95.09.88.05.84.06.84.17.77.28.62.36 1.05.72m-23.8 3.55-.1.79-.54.56-.64.65-.64.84-.6 1.07-.55 1.25-.51 1.35-.5 1.35-.52 1.26-.57 1.12-.62 1.01-.64.99-.62 1.02-.55 1.09-.48 1.14-.44 1.14-.44 1.1-.43.97-.32.78-.07.8 9.78-20.28-.03-2.38.29-2.62.38-1.83.23-1.5.1-1.47.19-1.46.42-1.42.63-1.5.63-1.79.38-2.38-.05-3.07-.38-3.46-.25-3.03.35-1.8.35-1.68-5.55 34.2.39-1.62.39-1.05.45-.86.5-1 .47-1.3.37-1.64.19-1.92.06-2.03.07-1.94.22-1.76.42-1.58.58-1.49.68-1.46.71-1.37.74-1.18.8-.9.86-.68.89-.72.83-1.07.71-1.68.63-2.25.78-2.52 1.05-2.31.29-2.31" filter="url(#a)"/><path d="m-41.76-62.66-.89.8-1.36.51-1.64.01-1.52-.03-1.17.34-.85.75-.72 1.01-.76 1.03-.91.88-1.1.63-1.27.42-1.45.25-1.65-.06-2-.72-2.95-1.78" filter="url(#a)"/><path d="m-43.62-59.96.36-2.39-.13-2.45-.23-2.4-.13-2.11.06-1.73.21-1.5.29-1.51.35-1.63.37-1.74.34-1.83.2-1.9.07-1.94.05-1.91.25-1.81.61-1.76.9-1.89.98-2.11.6-2.62m-8.59 39.66-.79 1.6-.53 1.17-.42 1.07-.4 1.07-.43 1.05-.46 1.01-.49 1-.53 1.05-.52 1.12-.48 1.18-.39 1.19-.3 1.13-.21 1.08-.19 1.08-.27 1.26-.41 1.56-.34 1.57M72.05-53.5l1.38 2.47-1.19 2.64-1.64 2.53-1.41 2.43-1.15 2.33-1.11 2.23-1.24 2.18-1.3 2.15-1.11 2.08-.73 1.96-.37 1.82-.25 1.77-.37 1.79-.57 1.7-.75 1.13-.63-.39" filter="url(#a)"/><path d="m-50.51-49 .15-.53.46-1.14.42-1.28.29-1.43.25-1.5.35-1.43.52-1.25.65-1.07.74-.99.74-1.03.72-1.12.65-1.24.59-1.33.5-1.39.42-1.41.35-1.41.3-1.4.32-1.41.39-1.43.54-1.47.65-1.47.63-1.35.39-1.07.06-1.14L-50.51-49v-.68l-.33-1.99-.67-2.46-.43-2.2.1-1.72.43-1.45.44-1.5.3-1.68.24-1.76.35-1.64.57-1.45.7-1.36.62-1.53.33-1.94-.03-2.38-.31-2.66-.41-2.7-.33-2.59-.15-2.54.18-2.66.78-2.7 1.39-1.84" filter="url(#a)"/><path d="m-38.39-75.91-1.03 1.73-.95 1.69-.72 1.23-.58.98-.53.91-.58.9-.67.92-.75.93-.8 1-.77 1.09-.68 1.21-.58 1.31-.49 1.37-.44 1.39-.45 1.37-.48 1.32-.5 1.28-.49 1.26-.41 1.27-.31 1.32-.22 1.29-.15 1.02.03.95 17.92-16.88-.5-.02-1.01.49-1.07.56-.94.5-.79.46-.71.49-.71.55-.76.59-.84.63-.9.65-.93.69-.91.75-.87.8-.8.84-.76.89-.74.91-.73.94-.71.97-.66 1-.61 1.02-.57 1.01-.56.92-.47.68-.37.56" filter="url(#a)"/><path d="m-50.94-48.17-.73 1.53-.62 1.42-.48 1.29-.34 1.19-.23 1.16-.13 1.22-.07 1.33-.01 1.44.04 1.47.04 1.43.04 1.31-.02 1.17-.07 1.07-.08 1.03-.03 1.08.08 1.18.26 1.29.43 1.33.54 1.28.55 1.19.43 1.14.34 1.03.28.59m-2.03-24.77.69-1.74.43-1.4.34-1.12.38-1 .47-.97.54-.99.56-1.04.53-1.14.49-1.24.46-1.29.46-1.24.51-1.13.57-1.06.65-1.08.74-1.32.82-1.9" filter="url(#a)"/><path d="m-53.98-41.43.26-.04.79-.53.96-.7.9-.87.74-1.01.62-1.02.59-.93.68-.77.84-.58 1.01-.4 1.18-.24 1.29-.13 1.34-.1 1.26-.17 1.07-.33.8-.58.6-.79.61-.84.99-.58 1.82-.01m-18.61 11.52-1.07 2.11-1.05 1.2-.88.9-.66.83-.55.8-.61.77-.8.74-1.05.7-1.26.69-1.41.65-1.51.61-1.62.56-1.7.58-1.73.68-1.63.91-1.45 1.19-1.32 1.43-1.32 1.53-1.36 1.52-1.21 1.66-.78 2.35" filter="url(#a)"/><path d="m-55.87-36.42-.37.98-.59.82-.48.76-.32.83-.26.96-.29 1.06-.34 1.1-.39 1.08-.4 1.04-.41 1.01-.43 1.02-.43 1.1-.46 1.2-.44 1.32-.42 1.42-.38 1.47-.33 1.47-.3 1.45-.28 1.37-.29 1.26-.39 1.35-.49 2.58 8.49-26.65-.16 1.1-.3.98-.25.88-.17.9-.13.99-.12 1.12-.13 1.18-.13 1.17-.15 1.12-.16 1.07-.18 1.06-.19 1.12-.19 1.22-.19 1.35-.15 1.44-.11 1.49-.11 1.48-.12 1.49-.13 1.55-.04 1.44 2.41-21.72-.96-2.13.4-1.33.53-1.37.42-1.39.28-1.34.17-1.3.16-1.32.23-1.31.35-1.29.46-1.26.49-1.23.47-1.23.4-1.25.33-1.3.31-1.36.3-1.41.32-1.47.35-1.51.35-1.55.33-1.58.24-1.63.11-1.77.06-1.87.56-1.42" filter="url(#a)"/><path d="m-56.98-33.14.11-.35.19-.83.09-1.2-.09-1.55-.22-1.78-.3-1.85-.37-1.81-.42-1.77-.39-1.73-.22-1.67.05-1.61.26-1.57.28-1.63.07-1.7-.19-1.67-.25-1.58.07-2.03.23 31.04.5-2.16.37-1.03.46-.71.59-.62.68-.67.67-.81.59-.99.5-1.12.48-1.14.49-1.07.55-.97.59-.89.64-.88.68-.88.73-.87.79-.82.83-.72.86-.61.86-.56.81-.58.72-.63.67-.49.95-.34M56.37.03l.73.31.3-.8.16-1.25.2-1.44.26-1.49.26-1.46.17-1.35.05-1.19-.04-1.07-.07-1.06-.04-1.11.03-1.22.08-1.31.07-1.37.05-1.35.02-1.3.03-1.22.03-1.16.03-1.14-.03-1.2-.11-1.31-.12-1.4-.14-1.5-.25-1.99" filter="url(#a)"/><path d="m57.43-30.94.86 1.5.35 1.63.24 1.5.27 1.38.29 1.26.3 1.11.27 1 .25 1 .24 1.09.27 1.21.32 1.31.36 1.35.38 1.48.37 1.73.29 1.9-5.11-20.39.32-.44.81.47.91.99.89 1.2.86 1.24.82 1.2.75 1.14.71 1.07.68 1.03.67 1.04.61 1.13.52 1.26.39 1.4.27 1.5.28 1.5.41 1.38.63 1.12.84.81.98.71L70.85-10l1.45 1.84-15.21-.03.56-1.4.46-.54.33-.76.2-1.13.09-1.34.04-1.42v-1.41l-.02-1.34-.05-1.26-.12-1.14-.2-1.08-.28-1.06-.3-1.13-.3-1.23-.28-1.34-.23-1.41-.21-1.4-.17-1.27-.16-1.04-.14-.99.27-2.29m-.9-2.69.04-.36.07-1.36.28-1.91.55-2.24.62-2.33.43-2.17.1-1.84-.18-1.5-.38-1.25-.47-1.14-.48-1.16-.4-1.29-.23-1.54.06-1.88.4-2.25.68-2.59.81-2.75.77-2.76.55-2.61.28-2.41-.04-2.17-.44-1.92-.66-2.16.53-4.06m-2.89 47.65.3 1.66-.15 1.75-.43 1.66-.35 1.45-.02 1.27.28 1.18.4 1.21.3 1.28.13 1.33-.02 1.33-.08 1.25-.04 1.15.02 1.09.04 1.1-.03 1.2-.21 1.32-.44 1.45-.58 1.57-.47 1.74-.21 1.78-15.63-44.47 1.52.47 1.04.3.88.38.78.51.68.63.6.72.6.75.67.71.78.65.84.6.87.58.8.61.67.69.49.81.35.97.33 1.16.49 1.26.81 1.05 1.29.37 1.36-.01" filter="url(#a)"/><path d="m51.93-46.17-1.13.37-1.1.35-.77-.37-.62-.8-.53-.98-.47-1.04-.46-1.02-.51-.93-.61-.77-.74-.59-.86-.44-.92-.38-.93-.38-.95-.38-1.05-.28-1.15-.11H38l-.85-.12-.56-.84m11.06.37-1.12-1.4-.84-.83-.82-.66-.84-.64-.89-.62-.92-.55-.94-.5-.93-.51-.89-.56-.85-.6-.83-.62-.85-.59-.91-.57-.96-.54-.95-.5-.87-.39-.72-.18-.57-.02-.52-.16 14.74 8.41-1.26.42-.48-.82-.62-.85-.87-.61-.96-.49-.91-.56-.8-.71-.71-.84-.68-.85-.74-.73-.87-.51-1.05-.3-1.19-.17-1.2-.16-.99-.24-.63-.24-.53.25m12.66-27.74-.22 1.1.12.95.18 1.21.41 1.3.62 1.44.68 1.63.62 1.79.51 1.86.36 1.93.16 2.12-.09 2.45-.32 2.75-.32 2.69.02 2.16.46 1.49.35 1.58-.81 2.9-1.16 3.13m-.85-.75.01-1.57-.3-1.69-.49-1.29-.54-1.13-.6-1.11-.61-1.14-.54-1.29-.4-1.56-.28-1.84-.22-2.04-.25-2.07-.28-1.95-.29-1.69-.27-1.38-.25-1.14-.29-1.17-.49-1.72-1.5-2.45 5.4 24.82-1.84-.16-.98-1.02-.63-1.1-.59-1.04-.68-.96-.77-.88-.81-.79-.78-.68-.75-.57-.73-.48-.76-.46-.81-.48-.88-.55-.94-.59-.99-.56-.98-.45-.94-.32-.85-.21-.75-.18-.7-.24-.74-.33-.83-.38-.75-.29-.14-.1" filter="url(#a)"/><path d="m42.87-61.37.73-.51.48 1.03.58 1.19.7.97.77.77.81.68.83.62.89.57.96.5 1.03.48 1.02.54.94.66.85.77.82.79.88.68.93.5.95.46.97.75 1.16 1.44 1.72 2.09" filter="url(#a)"/><path d="m52.63-54.28-.52.39-.87-.7-.84-.86-.71-.81-.61-.81-.61-.84-.68-.79-.79-.69-.91-.6-.98-.54-.98-.53-.9-.56-.82-.66-.91-.95-1.34-1.43-.75-.63-1.62-1.87-1.11-1.14-.89-.62-.79-.26-.77-.13-.79-.23-.82-.46-.88-.66-.91-.74-.93-.71-.91-.59-.88-.4-.83-.22-.8-.08-.8-.03-.78-.06-.75-.15-.66-.22-.6-.17-.62-.09-.87-.17-1.31-.57 8.19-30.55 1.53 1.84.52 2.49.04 2.76.07 2.46.28 2.05.42 1.75.45 1.57.47 1.45.5 1.39.59 1.34.71 1.3.84 1.26.9 1.26.83 1.34.64 1.48.38 1.65.1 1.83-.12 2.06-.19 2.28.05 2.34.65 2.06 1.47 2.16" filter="url(#a)"/><path d="m36.74-68.52 5.35-7.14 1.2.58.2 1.98.47 1.38.77.9.89.83.96.77 1.13.55 1.36.25 1.52.05h1.58l1.54.06 1.52.11 1.58.06 1.73-.22 1.94-.96 2.4-2.5" filter="url(#a)"/><path d="m55-67.36-.79-.35-1.32.01-1.23-.38-1.18-.54-1.26-.36-1.34-.18-1.3-.25-1.14-.48-1.02-.6-1.07-.41-1.23-.09-1.33-.08-1.24-.53-1.4-.55-3 1.93 1.19 1.49.96 1.3.85 1.08.72.97.59 1.05.44 1.26.3 1.48.23 1.58.25 1.54.34 1.36.45 1.18.48 1.07.45 1.04.4 1.08.36 1.07.35 1.04.36 1.02.34 1.04.24 1.15.11 1.31-.02 1.46-.08 1.64-.02 1.76-.42 1.4-9.12-30.59.91-.94 1.07-.5 1.02.4 1.14.55 1.23.4 1.21.29 1.17.27 1.15.3 1.17.35 1.18.38 1.21.34 1.34.19 1.55.01h1.63l1.47.11 1.42.03-19.87-2.18-.57-.4-.93-.53-1.13-.65-1.13-.67-1.07-.61-.96-.49-.87-.35-.79-.26-.73-.21-.72-.22-.72-.24-.71-.27-.7-.28-.71-.29-.78-.33-.9-.37-1.06-.39-1.12-.33-1.03-.08-.71.28-.46.42 17.8 6.27.34.22.66.34.91.6.97.76.94.79.9.74.89.7.87.69.86.71.87.74.88.72.91.7.93.66.97.63 1 .57 1.04.51 1 .51.85.59.65.64.71.58 1.63.55" filter="url(#a)"/><path d="m34.35-70.97-.4-1.28-.87-1.71-.76-1.86-.76-1.51-.8-1.01-.79-.66-.71-.64-.58-.9-.45-1.3-.33-1.68-.29-1.93-.28-2.05-.36-2.08-.48-2.08-.63-2.06-.78-2.04-.84-2.06-.82-2.19-.71-2.45-.6-2.65-.57-2.48-.63-1.85-.88-1.43-1.57-1.83 15.89 41.73-.43-1.19-.96-1.42-1.01-1.25-.77-1.49-.5-1.85-.28-2.02-.18-2.01-.18-1.89-.24-1.83-.31-1.84-.3-1.9-.25-2.07-.17-2.38-.17-2.82-.37-3.12-.85-2.99-1.43-2.74-2.03-3.37 4.51 33.41.6.29 1.13.35 1.29.21 1.24.37 1.07.56.92.54.83.37.82.19.85.18.91.32.97.52 1.04.61 1.06.55 1.04.42 1.01.34 1.05.42 1.33 1.13" filter="url(#a)"/><path d="m28.41-75.93-.65-.13.24.73.58 1.02.68 1.24.63 1.49.54 1.7.45 1.71.4 1.51.41 1.18.47.86.54.69.58.71.55.94.44 1.26.28 1.55.15 1.65.14 1.57.31 1.37.63 1.22.68 1.47M24.59-78.44l.56-1.18 1.4-1.48 1.11-.24.68.7.53.88.71.53 1.05-.01 1.44-.55 1.74-.92 1.89-1.1 1.87-1.03 1.66-.77 1.38-.43 1.13-.09 1.03.11 1.13.19 1.35.19 1.56.19 1.64.13 1.66-.11 1.98.37m-8.96-3.98-1.63 1.45-1.67.6-1.68-.03-1.54-.32-1.37-.47-1.2-.44-1.11-.17-1.12.3-1.18.74-1.23 1-1.25 1.01-1.17.87-1.04.63-.89.2-.75-.49-.7-1.39-.84-1.98-1.45-.92-3.39 4.68m-5.29-1.57-1.17-2.12-.3-4.46-.46-3.53-.85-1.15-1.12.38-1.17.59-1.11.05-1.01-.56-.95-1.04-.92-1.44-.95-1.84-.98-2.14-1.01-2.17-1.01-1.9-.96-1.47-.94-1.09-.99-1.01-1.18-1.25-1.71-1.52-3.27-1.7m6.01 18.27.7.63.82.29.78.35.85.45.93.51.97.62.92.76.85.9.83.94.85.88.92.71.97.49 1.01.33 1 .34.89.55.61.73-.16.77m14.05 13.76-1.05-.56-.42-1.09-.27-1.02-.39-.99-.59-1.08-.75-1.17-.84-1.16-.86-1.03-.82-.86-.79-.71-.76-.57-.76-.47-.8-.4-.91-.39-1.04-.48-1.13-.63-.97-.63-.19-.17-2.87-.51.51.06.85.21.85.24.89.34.94.51.96.65.93.72.86.71.81.65.77.62.77.64.8.67.86.71.92.73.94.74.87.74.68.79.44.88.27 1.07.37 1.26.89 1.06" filter="url(#a)"/><path d="M4.53-84.85 3.37-82.8l-.6.55-.74-.41-.87-.36-.87.27-.78.99-.71 1.52-.69 1.71-.73 1.6-.8 1.27-.88.94-.86.83-.78.95-.67 1.15-.63 1.2-.35 1.33-9.56-9.96.92-.77.99-.6.94-.46.84-.36.81-.29.85-.27.91-.29.95-.31.96-.33.97-.32.97-.29.98-.26.99-.21.97-.18.94-.14.88-.12.83-.08.81-.02.85.01.91-.01.92-.07.79-.17.61-.13 1.09.04 14.91.83-1.13-.27-1.1-.22-.89-.19-.91-.21-1.03-.21-1.09-.16-1.08-.09-1.02-.02-.97.01-.96-.03-.97-.07-.99-.11-1.02-.09-1.01-.07-.96-.03-.73.03.27.61" filter="url(#a)"/></g><g fill="none" stroke="#000"><circle cx="8.96" cy="25.248" r="2.892" filter="url(#a)"/><circle cx="9.672" cy="26.164" r="1.252" filter="url(#a)"/><circle cx="9.144" cy="25.536" r="2.028" filter="url(#a)"/><circle cx="8.952" cy="25.816" r="1.984" filter="url(#a)"/><circle cx="8.852" cy="23.664" r="1.754" filter="url(#a)"/><circle cx="8.708" cy="25.52" r="2.264" filter="url(#a)"/><circle cx="9.276" cy="26.624" r="1.82" filter="url(#a)"/><circle cx="11.316" cy="25.008" r="2.324" filter="url(#a)"/><circle cx="11.72" cy="23.872" r="1.016" filter="url(#a)"/><circle cx="8.276" cy="27.116" r="1.758" filter="url(#a)"/><circle cx="-10.24" cy="32.2" r="2.41" filter="url(#a)"/><circle cx="-7.076" cy="30.88" r="2.656" filter="url(#a)"/><circle cx="-9.356" cy="33.38" r="1.01" filter="url(#a)"/><circle cx="-6.848" cy="30.18" r="2.406" filter="url(#a)"/><circle cx="-7.728" cy="30.388" r="2.306" filter="url(#a)"/><circle cx="-9.676" cy="30.532" r="1.786" filter="url(#a)"/><circle cx="-6.72" cy="30.944" r="1.188" filter="url(#a)"/><circle cx="-7.576" cy="30.972" r="1.504" filter="url(#a)"/><circle cx="-7.792" cy="31.832" r="1.106" filter="url(#a)"/><circle cx="-9.384" cy="32.992" r="1.016" filter="url(#a)"/></g><path fill="#D77F8C" stroke="#000" stroke-linejoin="round" stroke-width="3" d="m-42.42 45 .18 1.49.2 1.45.24 1.42.27 1.37.3 1.34.33 1.3.36 1.27.39 1.22.42 1.19.44 1.15.47 1.12.5 1.08.53 1.04.54 1.01.58.97.59.94.62.9.65.86.66.83.69.8.71.76.73.72.74.69.77.66.79.62.8.59.83.56.83.52.86.49.87.45.89.43.9.38.91.36.93.33.94.29.96.26.96.23.98.19.99.17.99.13 1.01.11 1.02.07 1.02.04 1.03.01 1.04-.02 1.04-.05 1.05-.08 1.06-.11 1.06-.14 1.07-.17 1.06-.2 1.07-.22 1.08-.26 1.07-.28 1.08-.32 1.08-.34 1.07-.37 1.08-.4 1.07-.42 1.08-.46 1.07-.48 1.07-.51 1.06-.53 1.06-.56 1.06-.59 1.05-.62 1.04-.64 1.04-.67 1.03-.69 1.03-.72 1.01-.75 1.01-.77.99-.8.99-.82.98-.84.96-.87.96-.9.94-.92.93-.94.92-.97.9-.99.88-1.02.88-1.04.85-1.06.84-1.08.82-1.11.81-1.13.78-1.15.77-1.18.75-1.2.73-1.22.71-1.24.69-1.26.66-1.28.65-1.31.62-1.33.59-1.34.58-1.37.55-1.39-.82.84-.82.84-.82.82-.81.81-.82.79-.82.79-.82.77-.81.76-.82.74-.82.74-.81.72-.82.71-.82.69-.82.68-.81.67-.82.66-.82.64-.82.62-.81.62-.82.6-.82.59-.82.57-.81.56-.82.54-.82.53-.82.52-.81.5-.82.48-.82.48-.81.45-.82.44-.82.43-.82.41-.81.4-.82.38-.82.36-.82.35-.81.34-.82.32-.82.3-.82.28-.81.27-.82.26-.82.24-.82.22-.81.2-.82.19-.82.17-.81.15-.82.14-.82.12-.82.1-.81.09-.82.07-.82.05-.82.03-.81.02-.82-.01-.82-.02-.82-.04-.81-.05-.82-.08-.82-.09-.81-.11-.82-.13-.82-.15-.82-.17-.81-.19-.82-.2-.82-.23-.82-.24-.81-.26-.82-.29-.82-.3-.82-.32-.81-.34-.82-.37-.82-.38-.82-.4-.81-.42-.82-.44-.82-.46-.81-.49-.82-.5-.82-.53-.82-.54-.81-.57-.82-.58-.82-.61-.82-.63-.81-.65-.82-.67-.82-.7-.82-.71-.81-.74-.82-.76-.82-.78-.82-.8-.81-.83" filter="url(#a)"/></svg>