<svg xmlns="http://www.w3.org/2000/svg" width="500" height="500" viewBox="-100 -100 200 200"><defs><clipPath id="c"><path d="m24.43-1.67-.2-.2-.23-.19-.25-.2-.28-.19-.3-.19-.32-.19-.35-.19-.37-.18-.39-.18-.42-.18-.44-.17-.46-.17-.47-.17-.5-.17-.52-.16-.52-.18-.55-.18-.58-.18-.61-.17-.64-.17-.67-.17-.69-.17-.72-.16-.74-.16-.77-.15-.79-.14-.81-.14-.82-.14-.84-.13-.86-.12-.86-.11-.88-.1-.89-.1-.89-.08-.9-.08L3-7.3l-.9-.06-.91-.05-.9-.03-.9-.03-.89-.02-.88-.01h-.88l-.86.01-.86.03-.84.03-.83.04-.81.06-.8.06-.78.07-.76.08-.74.1-.72.1-.7.1-.68.12-.66.13-.63.13-.62.14-.59.14-.56.15-.55.16-.52.16-.5.17-.48.17-.45.17-.44.18-.41.18-.4.19-.38.19-.35.2-.33.2-.32.2-.29.21-.28.21-.25.21-.24.22-.21.22-.2.22-.18.22 1.12 1.54.23.28.24.27.26.28.28.28.3.27.31.28.34.27.35.27.37.26.39.27.41.26.43.26.44.26.46.25.48.25.5.25.52.25.54.24.56.24.58.24.6.23.62.22.63.23.66.21.67.21.69.2.7.19.72.19.74.18.74.16.77.16.77.15.79.14.79.12.8.11.82.11.81.08.83.08.83.06.83.05.83.04.83.02h1.66l.82-.03.82-.03.81-.06.81-.06.79-.09.79-.09.77-.11.76-.13.75-.14.73-.16.71-.17.69-.18.68-.19.66-.21.63-.22.62-.23.59-.24.57-.26.54-.26.52-.27.5-.19.48-.21.47-.21.44-.21.43-.22.42-.22.39-.22.37-.23.36-.23.33-.22.32-.24.29-.23.27-.23.25-.22.23-.23"/></clipPath><clipPath id="b"><path d="m-23.73-1.31.12-.27.14-.27.18-.26.21-.25.23-.25.27-.25.29-.24.32-.24.35-.23.37-.23.41-.22.42-.22.46-.22.48-.22.5-.21.48-.21.52-.21.56-.22.6-.21.63-.21.66-.22.7-.21.73-.2.76-.21.78-.2.81-.2.83-.19.86-.19.87-.18.89-.17.91-.17.91-.15.93-.15.94-.14.94-.13.94-.11.95-.11.95-.09.94-.09.94-.06.93-.06.92-.05.92-.03.9-.01.88-.01.87.01.86.03.84.03.81.06.8.06.77.08.75.09.73.1.71.12.68.12.65.14.63.15.61.16.57.17.56.18.52.19.5.19.48.2.45.21.43.22.41.22.38.23.36.23.34.24.32.25.29.26.27.26.25.26.22.27.21.28.18.28.16.29.15.29.12.29.18 3.05-.35.3-.36.31-.38.31-.4.31-.41.31-.42.3-.44.31-.45.3-.47.3-.48.3-.49.3-.51.29-.53.29-.53.29-.55.28-.57.29-.58.28-.59.28-.61.27-.63.27-.64.26-.66.26-.67.25-.68.25-.69.23-.71.23-.71.22-.73.2-.74.2-.75.18-.75.17-.76.16-.77.15-.77.13-.78.11-.79.1-.78.09-.79.06-.79.05-.79.04-.78.02h-.79l-.78-.02-.78-.04-.78-.05-.77-.07-.76-.09-.75-.11-.75-.12-.73-.14-.73-.16-.71-.17-.71-.2-.69-.2-.67-.23-.66-.24-.65-.25-.63-.26-.61-.28-.6-.29-.58-.3-.56-.31-.54-.33-.52-.32-.48-.25-.46-.26-.45-.26-.43-.26-.42-.27-.4-.27-.38-.27-.37-.28-.34-.27-.33-.28-.31-.28-.29-.28-.26-.27-.25-.28-.22-.27"/></clipPath><filter id="a"><feTurbulence baseFrequency=".05" numOctaves="3" result="noise" type="noise"/><feDisplacementMap in="SourceGraphic" in2="noise" scale="2"/></filter></defs><rect width="100%" height="100%" x="-100" y="-100" fill="#36454F"/><path fill="#D2691E" stroke="#000" stroke-linejoin="round" stroke-width="1.667" d="m63.41.58-.05 1.67-.03.69-.11 2.8-.09.22.09 1.62-.21 1.12-.14 1.41-.11 2.31.15-1.84-.15 2.47.08.47-.62 3.64-.09 1.65-.29.94-.25 1.44-.17.45-.33 1.82-.35 1.21-.47 1.82-.08 1.1.07.36-.5 1.13-.18 1.4-.77 2-.12.05-.73 2.11.12.59-1.03 2.87-.72 2.17.75-1.86-.81 1.66-.37.82-.63 1.89-.26.95-.47.93-.19.81-1.8 3.15-.34 1.14.19-.8-1.98 3.73.5-.91-1.18 2.53-.8 1.15-.71.99-1.21 2.31.16-.35-.42.76-.87 1.02-.58.98-.81 1.41-.42.49-1.13 1.53.29-.79-1.87 2.81-.71 1-.48.46-1.48.89.76-.5-1.83 2.01-.04.03-1.76 1.44-.06.45-1.14.87-.27.29-1 .96-1.69 1.15-.38.71-1.1.26.38.25-2.05 1.19-1.7 1.35.09.09-.9.6-.37.2-1.13.34-1.48.92-1.08.72-.62.29-.78.1-.51.52-1.35.63-.6.35-2.22.64.27.02-1.46.3.26.06-1.69.63-.72.21-.82-.04-2.87.78.06-.24-1.79.56H5.82l.34-.14-2.63.58 1.1-.33-1.33.17-.75-.03-2.38.32-1.37-.15.15-.14-1.09.08.66.09-2.54-.27-.17-.1-2.81-.22.76.26-1.79-.17.26-.38-2.62-.26 1.37.29-2.4-.58-1.02-.3-1.74-.26.5.13-2.22-.8-1.72-.6.7.14-1.92-.9-.4.01-1.79-.95-1.97-.94.83.54-.59-.25-.84-.71-.89-.79-1.76-.61-.59-.58-1.22-.71-.82-.58.21.29-.89-.52-2.14-1.91-.75-.78-1.72-.96-.37-.39-.88-1.13-.93-.58-.65-.83.38.3-1.8-1.8.27.23-2.65-2.7 1.28 1.51-1.82-2.24.35.44-1.23-1.43-2.02-2.67-.06-.19-1.14-1.31-.24-.79-.13-.01-.92-1.74-.72-.93-.64-1.03-.81-.94-.82-1.33-.39-.74-.13-.67-1.89-3.11.94 1.92-1.17-2.42.4.26-2.03-3.67-.98-2.06.39.77-.53-1.05-.35-.89-.67-1.79-.91-2.57-.32-1.24-.04.06-.59-2.1.2 1.16-.76-2.6-.79-2.7-.2-1.16-.53-1.59-.02.18-.19-1.74-.47-1.31.09.55-.53-2.37-.42-3.64.05.89-.71-3.46-.03-.93.13.86-.29-2.91-.06-.68-.28-.13-.15-3.97-.04.93.01-1.43-.18-1.67-.03-1.98-.22.45-.13-3.57.28-.93-.15-.85-.17-1.39.05-.48.15-3.29-.06-.09.22-1.64.44-4.62-.36.48.24-1.78-.02.4.03.01.49-4.48.15-.33.1-.78.47-3.56.07-.52.14.09.27-1.74.45-2.03-.17-.01.47-1.56 1.04-3.12-.31-.14.46-1.22.75-2.09-.3 1.07.45-2.11.67-2.28-.02-.29.25-.55 1.14-2.51-.01.26 1.16-3.49.17-.53.89-1.51-.07-.55 1.44-2.52-.55 1 .95-2.08.59-1.45.71-1.15.2-.33-.12-.08 1-2.06.82-1.09.58-1.16 1.2-1.03.47-1.55.82-.81 1.22-1.67-.49.32.99-1.24.61-.54.36-.91 2.64-2.94-.63.84.42-.76 2.11-2.03.45-.69.3-.49 1.19-1.12.34-.43 1-.49.49-.82.9-.48.83-1.11.95-.65-.01.09.79-.81 1.37-1.12.38-.09 1.61-1.28-.04.21 2.52-1.53.19-.39 2.21-1.4.73-.27-.76.22 2.77-.97-.06-.42.49-.06 1.87-.92.08.38 1.81-.6 1.8-.83-.29-.06.8-.15 1.41-.51.64-.15 2.78-.47.3-.37.59.02.17.01 2.67-.28.02-.18.45-.16 2.77-.21-.92.31 1.91-.36.06.07 2.08.08.54.16.35-.08 1.33-.15 2.19.15-.08.22.21.06 1.83.06 1.03.06 1.3.54 1.5.34 1.61.1.62.35.13.32.99-.11-.33.16 1.95.69.16-.1.95.32 1.57.72 1.16.23 1.53 1.06v-.06l.59.14 1.6.79 1.14.85 1.43.94-.54-.32 1.8 1.14.52.16 1.14.83.08.18 2.9 2.1-.79-.6.75.45 2.1 1.82-1.32-.94L35.33-73l.99 1.13-.61-.41.96 1.14 2.34 2-.14.14.9.69.91 1.27.78.83.48.45.66.9 1.69 1.83-.43-.16 1.48 1.78.38.42.65.92-.06.29 2.09 3.04-1.09-1.2.63.65L49-55.24l1.68 2.64.53.67.11.3-.34-.06 1.12 1.92.63 1.53.27.54 1.42 2.69.96 2.17-.51-1.48.22.87.47 1.5 1.07 2.72-.37-1.13.68 2.07.63 1.73.38 1.49.24 1.32.51 1.13.88 2.2.13 1.39.34.8.19 1.29.11-.62.71 4.73.29.39-.35-1.03.47 1.27.03 1.9.52 3.06.11.46.35.8.02 1.62.32.72.1 3.82.16-1.04-.06 2.88.02 1.35.14.03.07.67-.02 1.84.26 4.08-.08.59-.05 1.67" filter="url(#a)"/><path fill="#fff" d="m-23.73-1.31.12-.27.14-.27.18-.26.21-.25.23-.25.27-.25.29-.24.32-.24.35-.23.37-.23.41-.22.42-.22.46-.22.48-.22.5-.21.48-.21.52-.21.56-.22.6-.21.63-.21.66-.22.7-.21.73-.2.76-.21.78-.2.81-.2.83-.19.86-.19.87-.18.89-.17.91-.17.91-.15.93-.15.94-.14.94-.13.94-.11.95-.11.95-.09.94-.09.94-.06.93-.06.92-.05.92-.03.9-.01.88-.01.87.01.86.03.84.03.81.06.8.06.77.08.75.09.73.1.71.12.68.12.65.14.63.15.61.16.57.17.56.18.52.19.5.19.48.2.45.21.43.22.41.22.38.23.36.23.34.24.32.25.29.26.27.26.25.26.22.27.21.28.18.28.16.29.15.29.12.29.18 3.05-.35.3-.36.31-.38.31-.4.31-.41.31-.42.3-.44.31-.45.3-.47.3-.48.3-.49.3-.51.29-.53.29-.53.29-.55.28-.57.29-.58.28-.59.28-.61.27-.63.27-.64.26-.66.26-.67.25-.68.25-.69.23-.71.23-.71.22-.73.2-.74.2-.75.18-.75.17-.76.16-.77.15-.77.13-.78.11-.79.1-.78.09-.79.06-.79.05-.79.04-.78.02h-.79l-.78-.02-.78-.04-.78-.05-.77-.07-.76-.09-.75-.11-.75-.12-.73-.14-.73-.16-.71-.17-.71-.2-.69-.2-.67-.23-.66-.24-.65-.25-.63-.26-.61-.28-.6-.29-.58-.3-.56-.31-.54-.33-.52-.32-.48-.25-.46-.26-.45-.26-.43-.26-.42-.27-.4-.27-.38-.27-.37-.28-.34-.27-.33-.28-.31-.28-.29-.28-.26-.27-.25-.28-.22-.27" filter="url(#a)" transform="translate(33.3 -24.24)"/><path fill="#fff" d="m24.43-1.67-.2-.2-.23-.19-.25-.2-.28-.19-.3-.19-.32-.19-.35-.19-.37-.18-.39-.18-.42-.18-.44-.17-.46-.17-.47-.17-.5-.17-.52-.16-.52-.18-.55-.18-.58-.18-.61-.17-.64-.17-.67-.17-.69-.17-.72-.16-.74-.16-.77-.15-.79-.14-.81-.14-.82-.14-.84-.13-.86-.12-.86-.11-.88-.1-.89-.1-.89-.08-.9-.08L3-7.3l-.9-.06-.91-.05-.9-.03-.9-.03-.89-.02-.88-.01h-.88l-.86.01-.86.03-.84.03-.83.04-.81.06-.8.06-.78.07-.76.08-.74.1-.72.1-.7.1-.68.12-.66.13-.63.13-.62.14-.59.14-.56.15-.55.16-.52.16-.5.17-.48.17-.45.17-.44.18-.41.18-.4.19-.38.19-.35.2-.33.2-.32.2-.29.21-.28.21-.25.21-.24.22-.21.22-.2.22-.18.22 1.12 1.54.23.28.24.27.26.28.28.28.3.27.31.28.34.27.35.27.37.26.39.27.41.26.43.26.44.26.46.25.48.25.5.25.52.25.54.24.56.24.58.24.6.23.62.22.63.23.66.21.67.21.69.2.7.19.72.19.74.18.74.16.77.16.77.15.79.14.79.12.8.11.82.11.81.08.83.08.83.06.83.05.83.04.83.02h1.66l.82-.03.82-.03.81-.06.81-.06.79-.09.79-.09.77-.11.76-.13.75-.14.73-.16.71-.17.69-.18.68-.19.66-.21.63-.22.62-.23.59-.24.57-.26.54-.26.52-.27.5-.19.48-.21.47-.21.44-.21.43-.22.42-.22.39-.22.37-.23.36-.23.33-.22.32-.24.29-.23.27-.23.25-.22.23-.23" filter="url(#a)" transform="translate(-37.2 -25.44)"/><g fill="none" stroke="#000" transform="translate(33.3 -24.24)"><path stroke-linejoin="round" stroke-width="1.667" d="m-23.15 1.79-.2-.35-.17-.34-.13-.33-.11-.32-.07-.31-.04-.31-.01-.3.02-.29.05-.28.08-.27.12-.27.14-.27.18-.26.21-.25.23-.25.27-.25.29-.24.32-.24.35-.23.37-.23.41-.22.42-.22.46-.22.48-.22.5-.21.48-.21.52-.21.56-.22.6-.21.63-.21.66-.22.7-.21.73-.2.76-.21.78-.2.81-.2.83-.19.86-.19.87-.18.89-.17.91-.17.91-.15.93-.15.94-.14.94-.13.94-.11.95-.11.95-.09.94-.09.94-.06.93-.06.92-.05.92-.03.9-.01.88-.01.87.01.86.03.84.03.81.06.8.06.77.08.75.09.73.1.71.12.68.12.65.14.63.15.61.16.57.17.56.18.52.19.5.19.48.2.45.21.43.22.41.22.38.23.36.23.34.24.32.25.29.26.27.26.25.26.22.27.21.28.18.28.16.29.15.29.12.29.1.3.08.3.06.3.05.31.02.31.01.31-.01.31-.02.31-.05.32-.06.32" filter="url(#a)"/><path stroke-linejoin="round" stroke-width="2.222" d="m-24.61-1.38-.04.19-.01.2.02.21.05.23.07.23.1.24.13.25.15.26.18.26.2.26.22.27.25.28.26.27.29.28.31.28.33.28.34.27.37.28.38.27.4.27.42.27.43.26.45.26.46.26.48.25.52.32.54.33.56.31.58.3.6.29.61.28.63.26.65.25.66.24.67.23.69.2.71.2.71.17.73.16.73.14.75.12.75.11.76.09.77.07.78.05.78.04.78.02h.79l.78-.02.79-.04.79-.05.79-.06.78-.09.79-.1.78-.11.77-.13.77-.15.76-.16.75-.17.75-.18.74-.2.73-.2.71-.22.71-.23.69-.23.68-.25.67-.25.66-.26.64-.26.63-.27.61-.27.59-.28.58-.28.57-.29.55-.28.53-.29.53-.29.51-.29.49-.3.48-.3.47-.3.45-.3.44-.31.42-.3.41-.31.4-.31.38-.31.36-.31.35-.3.34-.31.32-.31.31-.31.3-.3.28-.31.26-.3.25-.31.24-.3.23-.3.21-.3" filter="url(#a)"/><circle cx="15.501" cy="-2.771" r="4.028" clip-path="url(#b)" filter="url(#a)"/><circle cx="13.516" cy="-.876" r="3.398" clip-path="url(#b)" filter="url(#a)"/><circle cx="13.886" cy="-3.776" r="4.592" clip-path="url(#b)" filter="url(#a)"/><circle cx="13.491" cy=".499" r="4.242" clip-path="url(#b)" filter="url(#a)"/><circle cx="11.386" cy="-1.781" r="4.354" clip-path="url(#b)" filter="url(#a)"/><circle cx="11.321" cy=".044" r="3.408" clip-path="url(#b)" filter="url(#a)"/><circle cx="11.776" cy="-2.681" r="4.776" clip-path="url(#b)" filter="url(#a)"/><circle cx="11.771" cy="-2.211" r="3.2" clip-path="url(#b)" filter="url(#a)"/><circle cx="12.221" cy="-2.796" r="4.534" clip-path="url(#b)" filter="url(#a)"/><circle cx="14.461" cy=".149" r="4.224" clip-path="url(#b)" filter="url(#a)"/></g><g fill="none" stroke="#000" transform="translate(-37.2 -25.44)"><path stroke-linejoin="round" stroke-width="2.222" d="m25.01.48.06-.23.04-.22v-.22l-.01-.22-.05-.22-.07-.21-.1-.21-.12-.21-.15-.2-.18-.21-.2-.2-.23-.19-.25-.2-.28-.19-.3-.19-.32-.19-.35-.19-.37-.18-.39-.18-.42-.18-.44-.17-.46-.17-.47-.17-.5-.17-.52-.16-.52-.18-.55-.18-.58-.18-.61-.17-.64-.17-.67-.17-.69-.17-.72-.16-.74-.16-.77-.15-.79-.14-.81-.14-.82-.14-.84-.13-.86-.12-.86-.11-.88-.1-.89-.1-.89-.08-.9-.08L3-7.3l-.9-.06-.91-.05-.9-.03-.9-.03-.89-.02-.88-.01h-.88l-.86.01-.86.03-.84.03-.83.04-.81.06-.8.06-.78.07-.76.08-.74.1-.72.1-.7.1-.68.12-.66.13-.63.13-.62.14-.59.14-.56.15-.55.16-.52.16-.5.17-.48.17-.45.17-.44.18-.41.18-.4.19-.38.19-.35.2-.33.2-.32.2-.29.21-.28.21-.25.21-.24.22-.21.22-.2.22-.18.22-.16.23-.14.23-.12.23-.11.23-.09.23-.07.23-.06.24-.03.23-.03.24-.01.24" filter="url(#a)"/><path stroke-linejoin="round" stroke-width="2.222" d="m25.31-.86.02.17v.17l-.03.18-.06.2-.09.2-.1.2-.14.21-.16.22-.18.22-.2.23-.23.23-.25.22-.27.23-.29.23-.32.24-.33.22-.36.23-.37.23-.39.22-.42.22-.43.22-.44.21-.47.21-.48.21-.5.19-.52.27-.54.26-.57.26-.59.24-.62.23-.63.22-.66.21-.68.19-.69.18-.71.17-.73.16-.75.14-.76.13-.77.11-.79.09-.79.09-.81.06-.81.06-.82.03-.82.03H3.1l-.83-.02-.83-.04-.83-.05-.83-.06-.83-.08-.81-.08-.82-.11-.8-.11-.79-.12-.79-.14-.77-.15-.77-.16-.74-.16-.74-.18-.72-.19-.7-.19-.69-.2-.67-.21-.66-.21-.63-.23-.62-.22-.6-.23-.58-.24-.56-.24-.54-.24-.52-.25-.5-.25-.48-.25-.46-.25-.44-.26-.43-.26-.41-.26-.39-.27-.37-.26-.35-.27-.34-.27-.31-.28-.3-.27-.28-.28-.26-.28-.24-.27-.23-.28-.21-.29-.19-.28-.17-.28-.15-.28-.14-.29-.12-.28-.11-.28-.09-.29-.07-.28-.06-.28" filter="url(#a)"/><circle cx="1.381" cy="-4.948" r="3.002" clip-path="url(#c)" filter="url(#a)"/><circle cx="2.536" cy="-4.213" r="3.166" clip-path="url(#c)" filter="url(#a)"/><circle cx="-.039" cy="-6.903" r="3.032" clip-path="url(#c)" filter="url(#a)"/><circle cx=".721" cy="-4.253" r="3.698" clip-path="url(#c)" filter="url(#a)"/><circle cx="2.691" cy="-6.323" r="3.35" clip-path="url(#c)" filter="url(#a)"/><circle cx=".671" cy="-6.028" r="3.108" clip-path="url(#c)" filter="url(#a)"/><circle cx="-.519" cy="-4.483" r="4.926" clip-path="url(#c)" filter="url(#a)"/><circle cx="1.071" cy="-3.948" r="4.308" clip-path="url(#c)" filter="url(#a)"/><circle cx=".591" cy="-4.748" r="3.798" clip-path="url(#c)" filter="url(#a)"/><circle cx="2.246" cy="-2.983" r="4.098" clip-path="url(#c)" filter="url(#a)"/></g><g fill="none" stroke="#D8D8D8" stroke-linejoin="round" stroke-width="2"><path d="m-32.4-75.18.86-.79.88-.7.81-.57.72-.48.63-.37.47-.24.22-.05-.1.19-.49.5-.91.84-1.34 1.2-1.81 1.61-2.38 2.09-3.03 2.66m83.21 7.88.37.49.31.58.21.55.04.4-.14.22-.3.06-.5-.1-.76-.37-1.11-.72-1.49-1.12-1.89-1.52-2.28-1.88-2.7-2.23-3.13-2.62-3.61-3.06-4.09-3.57-4.65-4.15" filter="url(#a)"/><path d="m18.65-83.66 1.01.42.61.5.28.5.05.57-.15.67-.43.75-.75.81-1.11.85-1.46.91-1.83.99-2.2 1.08-2.6 1.17-3.02 1.26-3.46 1.33-3.9 1.4-4.35 1.47-4.79 1.54-5.25 1.64-5.76 1.75-6.32 1.92-6.89 2.09-7.47 2.24m88.45-.14.77 1.08.9 1.47.77 1.26.5.89.26.57.11.4.01.28-.09.18-.22-.02-.42-.31-.66-.67-.93-1.07-1.21-1.47-1.47-1.83-1.74-2.18-2.01-2.56-2.3-2.97-2.56-3.37-2.7-3.69" filter="url(#a)"/><path d="m-25.77-79.8.89-.53 1.48-.42 1.71-.14 1.95.06 2.24.22 2.54.34 2.82.45 3.07.55 3.3.63 3.5.71 3.65.79 3.79.87 3.9.95 4.02 1.02 4.11 1.08 4.15 1.11 4.13 1.14 4.06 1.14 3.96 1.13 3.95 1.14M13.36-85.34l.69.03.7.21.81.28.84.3.82.29.71.27.53.23.26.15-.03.04-.34-.07-.64-.19-1.01-.32-1.58-.52-2.38-.77M-5.55-87.2l1.03-.08 1.31.09 1.34.22 1.46.32 1.6.42 1.74.5 1.85.57 1.94.63 2 .68 2.04.72 2.06.76 2.08.78 2.09.81 2.09.81 2.05.81 1.97.78 1.84.73 1.65.65 1.46.57 1.3.49 1.17.42 1.01.33.91.32" filter="url(#a)"/><path d="m29.02-77.9.71.59.86.67.65.52.5.45.39.42.28.4.14.37-.03.3-.22.23-.43.15-.65.05-.88-.08-1.15-.2-1.44-.35-1.74-.5-2.05-.66-2.39-.81-2.72-.98-3.07-1.17-3.43-1.35-3.81-1.56-4.24-1.77-4.78-1.95" filter="url(#a)"/><path d="m16.13-84.7.91.4.71.49.28.48-.26.47-.78.45-1.28.48-1.8.55-2.37.61-3.03.66-3.72.68-4.43.69-5.15.71-5.88.77-6.62.81-7.29.78m-9.59 2.16.79-.88.71-.63.72-.58.79-.62.86-.65.89-.64.88-.61.84-.57.77-.49.64-.41.49-.28.3-.14.11.01-.09.17-.27.32-.48.48-.67.63-.9.8-1.15.96-1.42 1.13-1.73 1.32-2.04 1.54-2.26 1.74M48.4-56.74l-.55-.46v.55l.07.94-.21.86-.62.59-1.04.34-1.43.18-1.79.09-2.13.04-2.51-.07-2.94-.21-3.39-.43-3.87-.64-4.34-.86-4.79-1.03-5.24-1.2-5.67-1.36-6.12-1.53-6.61-1.7-7.12-1.89-7.65-2.1-8.19-2.37" filter="url(#a)"/><path d="m12.61-86.01.4.3.19.24.05.26-.07.32-.22.4-.4.49-.62.57-.89.66-1.23.73-1.6.79-2.01.85-2.43.92-2.87.99-3.31 1.07-3.8 1.13-4.29 1.19-4.81 1.24-5.33 1.33-5.9 1.46-6.62 1.73m55.08-12.95 1.26.78.75.73.3.64-.07.61-.38.62-.67.67-.98.73-1.33.79-1.72.82-2.13.85-2.56.9-3.01.96-3.47 1.03-3.95 1.12-4.43 1.19-4.95 1.28-5.47 1.36-5.99 1.43-6.48 1.41-6.97 1.34-7.46 1.3m65.14-17.16.69.39.92.68 1.04.83 1.07.87 1.04.87 1.01.87.99.87.97.88.93.87.87.83.79.77.7.69.59.58.45.44.28.29.09.09-.12-.12-.35-.35-.58-.59-.79-.81-1.02-1.08-1.52-1.5m-56.04-10.09.25-.34.76-.36 1.03-.36 1.13-.37 1.1-.37.98-.35.83-.3.67-.24.53-.17.36-.08.11.01-.2.13-.6.24-.97.36-1.32.47-1.69.62-2.24.84m-11.71 6.89 1.21-.81 1.37-.64 1.67-.65 1.98-.69 2.24-.73 2.4-.72 2.5-.68 2.54-.6 2.58-.55 2.59-.5 2.6-.48 2.62-.46 2.63-.44 2.64-.4 2.64-.38 2.62-.35 2.55-.3 2.47-.29" filter="url(#a)"/><path d="m14.35-85.45.22.29.5.36.41.42.26.49.07.59-.21.66-.53.73-.86.79-1.2.86-1.55.96-1.91 1.06-2.29 1.15-2.72 1.24-3.14 1.33-3.57 1.44-4.02 1.55-4.45 1.65-4.89 1.72-5.34 1.77-5.83 1.84-6.36 1.99-6.94 2.24m82.6-4.54.98 1.15.44.67.21.45-.02.25-.31.01-.63-.23-.96-.53-1.3-.83-1.67-1.14-2.07-1.46-2.54-1.86-3.08-2.35L28-73.64l-4.22-3.45-4.68-3.95" filter="url(#a)"/><path d="m46.37-60.07.38.82.42.85.27.63.22.61.16.59v.45l-.23.2-.49-.07-.75-.31-.99-.51-1.22-.71-1.48-.93-1.77-1.23-2.07-1.56-2.4-1.92-2.7-2.28-2.99-2.6-3.29-2.91-3.63-3.26-4.1-3.65-4.73-4.06m-33.23-1.71 1.56-.58 1.06-.45.77-.31.69-.21.66-.14.61-.08.47.01.27.11.04.23-.18.34-.39.45-.63.57-.88.7-1.15.84-1.44.98-1.75 1.14-2.07 1.29-2.4 1.46-2.76 1.66-3.18 1.9-3.65 2.2-4.2 2.57m62.36-11.08 1.34.82.98.61.88.6.79.57.65.48.44.34.2.19-.06.03-.34-.16-.69-.38-1.09-.65-1.53-.93-1.9-1.19-2.28-1.51" filter="url(#a)"/><path d="m-1.28-87.55 1.68.24 1.61.49 1.91.73 2.29.95 2.6 1.18 2.83 1.41 3.06 1.6 3.28 1.75 3.48 1.87 3.62 1.98 3.65 2.04 3.59 2.05 3.42 1.98 3.17 1.83" filter="url(#a)"/><path d="m32-75.62-.33-.16.04.38-.09.56-.39.62-.75.64-1.16.65-1.58.65-2.02.65-2.47.64-2.97.61-3.5.57-4.05.52-4.62.47-5.2.45-5.8.44-6.44.45-7.12.49-7.79.46-8.26.19" filter="url(#a)"/><path d="m41.94-65.76.79.99.72.92.54.71.35.53.18.35-.03.15-.26-.09-.52-.35-.79-.65-1.05-.94-1.34-1.25-1.71-1.64-2.17-2.17-2.7-2.8-3.16-3.32M49-55.24l1.16 1.81.53.89.24.56.15.53.13.56.09.56v.45l-.16.25-.37-.03-.58-.31-.81-.58-1.03-.82-1.23-1.04-1.45-1.28-1.69-1.53-1.93-1.82-2.19-2.11-2.47-2.45-2.77-2.82-3.12-3.23-3.51-3.67-3.89-4.12-4.11-4.48" filter="url(#a)"/><path d="m50.98-51.69.48 1.53-.5 1.12-1.39.86-2.31.57-3.32.18-4.38-.2-5.41-.45-6.42-.62-7.44-.76-8.47-.95-9.51-1.2-10.54-1.48-11.63-1.78-12.84-2.04m.3-18.27 1.01-.81 1.29-.73 1.5-.68 1.74-.66 1.96-.68 2.15-.69 2.26-.68 2.32-.63 2.34-.58 2.35-.51 2.35-.47 2.36-.44 2.35-.42 2.33-.41 2.29-.39 2.25-.38 2.19-.35 2.11-.32 2.05-.26 2.02-.22 1.97-.23m25.88 14.58 1.34 1.3.35.73-.13.57-.52.49-.94.4-1.37.32-1.83.23-2.35.14-2.9.04-3.48-.06-4.09-.19-4.7-.32-5.3-.44-5.93-.58-6.54-.75-7.13-.91-7.71-1.05-8.37-1.14M1.34-87.31l.68-.07 1.01-.02.91.05.69.08.5.09.35.1.17.11-.1.12-.48.12-.96.1-1.53.08-2.16.04h-2.75l-3.21-.08" filter="url(#a)"/><path d="m-8.41-86.75.77-.07 1.01-.14.86-.12.73-.06h.59l.45.06.31.13.16.2-.03.28-.23.35-.45.44-.69.52-.95.62-1.22.71-1.49.81-1.75.91-2.03 1.01-2.33 1.11-2.67 1.23-3.08 1.35-3.53 1.45-3.97 1.52-4.36 1.57" filter="url(#a)"/><path d="m-33.34-74.62 42.07.47 9.99-1.8.04-1.39-1.83-.21-2.93.49-5.21.47-7.34.01-7.13-.45-3.88-.33 1.08.73 5.57 2.48 8.05 3.42 6.76.88-3.25-6.5-22.78-8.92" filter="url(#a)"/><path d="m54.87-44.32-57.2-17.06-12.15-9.97 3.91-6.74 6.69-3.99 5.71-1.71 4.74.05 4.5 1.41 4.53 2.45 4.05 3.05 2.6 3.06.33 2.4-2.1 1.27-3.73.11-3.96-.67-2.7-.75-.43-.13 2.15 1.03 4.26 2.43 4.87 3.61 2.47 3.76-4.17 1.96-11.84-.94-5.82-.54 45.73 2.29" filter="url(#a)"/><path d="M-18.25-83.63 4.89-68.12l-5 2.13-2.22.52-.7-.47-.79-2 .9-2.8 4.18-2.13 6.78-.34 6.94 1.61 4.55 2.6 1 2.04-1.77.1-2.94-2.17-3.61-3.13-4.38-1.01L9-68.4l39.4 11.66" filter="url(#a)"/><path d="m13.36-85.34-3.26 1.26 7.48 3.68 7.76 5.64 6.54 7.17 4.15 6.93.01 4.76-5.23 1.1-9.68-3.05-11.29-6.19-9.39-6.83-4.86-4.52 1.19-.32 8.46 3.48 15.61 4.68 16.85 3.16 8.67 4.32" filter="url(#a)"/><path d="m36.67-71.14-34.09-.33 6.8.17 10.99.49 4.95-.48-1.32-.77-5.47-.55-6.88-.57-5.44-.87-1.82-.77 2.46.1 5.44 1.4 5.51 2.04 2.01 1.1-3.95-1.33-9.34-3.92-10.39-4.9-5.27-3.7 3.86-1.95 12.45-1.07" filter="url(#a)"/><path d="m-28.25-78.48 39.77 16.87.7-7.82-3.43-7.18.96-2.04 5.72 1.91 7.68 3.55 6.35 3.32 2.73 2.23-1.52 1.11-4.75.43-5.68.13-4-.12-.77-.7 1.8-1.75 1.89-3.08-.52-4.09-3.22-4.13-2.93-2.83 1.42-.95.07-1.67" filter="url(#a)"/><path d="m-43.38-64.1 16.08-2.81 23.09-6.16 12.75-3.5 2.43-.66-2.4 1.3-1.65 2.42 1.38 2.67 2.85 2.08 1.15.82-2.33-.52-4.71-1.28-3.84-1.06.17.1 4.94 1.89 7.27 3.66 4.97 4.36-1.2 2.37-6.12-3.25-3.22-10.6-9.57-15.35" filter="url(#a)"/><path d="M45.34-61.41 10.1-55.95l10.96 2.5 9.85-1.78 1.93-5.25-2.18-5.64-2.57-3.73-1.31-1.19.23.82 1.29 1.82 1.25 1.73-.3.82-3.19-.51-6.51-1.77-8.97-2.53-9.54-2.58-7.98-1.93-4.99-.93-1.71-.1.74.05 1.04-.49-2.37-.9-6.79-.75 4.58-5.94" filter="url(#a)"/><path d="m56.26-40.36-14-12.85-12.6-.04-7.17-1.52-2.15-4.7-.23-5.54.16-3.88.09-1.52-.35-.06-1.09.05-1.79-.55-2.35-.96-3.05-.86-4.12-.52-5.17-.45-5.24-.83-3.67-1.35-.78-1.44 2.28-.85 4.78-.25 6.47-.86 3.4-2.85-15.25-4.83" filter="url(#a)"/><path d="m3.02-87.54 24 15.02 2.63 6.8-3.82 4.82-1.89 3.16 1.29 1.63 2.02.47.13-.59-2.91-1.82-5.18-2.96-5.24-3.28-2.93-2.31.31-.43 2.22 1.27 1.37 1.65-1.63.35-4.08-1.79-3.22-3.34 1.04-3.4 4.71-2.43 2.29-1.65-8.84-.84-35.15.01" filter="url(#a)"/><path d="m8.2-86.99 6.12 10.94 7.47 7.32.12.3-6.01-.83-10.18.14-10.62.51-6.81.02-.58-.74 4.98-1.29 7.32-1.51 5.5-1.32.57-.77-4.53-.14-5.14-.01 6.47.49 39.06 8.12" filter="url(#a)"/><path d="m-14.93-85.12-12.69 10.85 6.77 4.62 14.46 1.86 12.31.48 7.76-.45 4.71-.6 3.6.06 3.21.83 2.2 1.04-.03.56-3.12-.04-6.05-.11-7.68.49-7.35 1.21-5.26 1.01-2.6-.8-.57-3.83.39-6.39.56-6.59-.3-4.07-3.59-.77-8.24 1.53" filter="url(#a)"/><path d="m14.35-85.45-8.73 5.43 3.76 4.8 6.07 4.09 6.65 4.29 3.41 3.45-2.06 1.34-6.24-1.13-6.96-3.03-4.53-3.91-.98-3.81 1.49-2.98 1.79-1.74-.06-.31-3.15 1.16-6.27 2.58-7.94 3.82-6.89 4.61-2.86 4.69 2.29 3.5 4.94.15 3.05-6.12 1.52-13.03 2.25-9.76" filter="url(#a)"/><path d="M47.94-57.29 26.69-72.21l-1.59-.59-4.92.52-9.03-.93-6.78-1.49-.47-1.05 5.4.09 8.27 1.59 8.08 2.98 5.92 3.55 2.99 2.86.45 1.27-.72.02-1.23.14-7.94-1.68-39.25-20.34" filter="url(#a)"/><path d="m15.97-84.6-6.1-1.19.86.11 1.67.5.46 1.03-2.01 1.9-4.68 2.85-6.13 3.33-5.65 2.91-3.73 1.67-1.32.17.89-.84 2.55-.86 3.1.14 1.65 1.5-1.87 2.27-5.06 1.83-2.81.76 9.24.98 27.31 4.95 30.08 15.58" filter="url(#a)"/><path d="m-41.37-66.2 31.27-2.9 20.88 1.27 4.03-1.65-1.69-1.31.55.89 3.61 2.64 3.81 3.03 1.43 2.28-1.43.89-3.12-.66-3.17-1.92-2.11-2.45-.74-2.01.44-.83 1.08.39.77.89-.62.53-1.62-.06.97.05 8.53.83 14.63 1.9L49-55.24" filter="url(#a)"/><path d="m-29.86-77.2 7.65.55 9.37 4.93 8.66 3.56 1.21.88-4.6-1.88-5.69-3.33-3.65-2.99-.46-1.48 2.82.24 5.27 1.52 5.08 2.15.3 2.18-8.29 1.87-14.74 1.51h-10.64l3.4-6.02" filter="url(#a)"/><path d="M12.61-86.01-3.34-82l-.47 5.4 3.68 1.65.39-1.1-3.73-1.48-5.45-.42-3.61.87 1.14 1.79 6.42 2.35 8.79 2.72 6 2.79-1.05 2.16-8.3.7-12.65-.4-17.38 1.69-20.4 8.86" filter="url(#a)"/><path d="m54.42-45.01-5.95-6.77-12-3.48-18.78-5.55L-.52-66.3l-13.38-3.87-7.64-1.92-2.29-.23 2.29 1.09 5.53 2.14 6.64 2.79 5.45 2.92 3.23 2.45 2.46 1.57 4.76.38 8.39-1.21 8.16-3.38.11-5.41-14.47-4.77-41.12-1.43" filter="url(#a)"/><path d="m-33.34-74.62 56.61 22 16.8.29 2.05-4.16-4.2-4.74-7.45-5.18-8.59-5.18-7.64-4.04-5.06-1.87-1.58.59 1.99 2.62 4.69 3.74 5.36 3.81 2.96 2.86-2.36 1.01-8.43-1.47L.57-68.41l-7.07-5.91 3.63-5.85 13.63-2.87 13.91 2.39" filter="url(#a)"/><path d="m-18.33-84.01 13.58-.27 4.61 5.99 7.65 7.37 9.24 4.52 7.05 1.13 3.85-.65 1.94-.42 1.54.96 1.54 2.16.81 2.24-.84 1.02-2.77-.89-4.1-2.62-4.39-3.5-3.8-3.32-2.82-2.27-2-.86-1.71.2-2.08.26-3.21-.83-5.39-2.3-9.08-2.18-13.96 1.42-15.42 6.68" filter="url(#a)"/><path d="m-14.64-85.06 5.25 4.05 10.34 8.6 10.83 5.49 4.2 1.65-2.32-.79-5.48-2.24-4.9-2.79-1.36-1.89 3.53.44 7.37 2.85 7.61 3.35 2.94 1.28-5.45-1.45-13.71-1.87-15.29-2.18L.8-87.47" filter="url(#a)"/><path d="m-30.24-77.11 43.22 10.89 4.05-5.46-6.21-5.08-7.05-2-3.8.85 1.16 2.7 5.42 3.15 6.82 2.12 4.87.2 1.04-1.68L17-74.13l-3.36-2.57-1.97-1.53.79-.11 3.63 1.14 5.53 1.81 5.51 1.43 2.93-.1.74-.53 9.88 7.55" filter="url(#a)"/><path d="m-46.07-60.06 61.54 9.97 9.39-9.15-9.4-9.99-12.19-6.32-8.51-2.96-3.22-.68 1.8.87 5.82 2.01 8.18 2.72 8.35 2.73 6.23 1.82 2.61.15-1.29-1.64L19-73.26l-5.74-2.63-5.96-1.36-5.32.61-3.65 2.6.07 3.96 6.51 4.31 13.84 3.65 16.67 2.53 10.39 1.31.5-1.5" filter="url(#a)"/><path d="M51.21-51.93 5.52-68.46l-8.87-6.91-4.81-1.12-6.4.86-6.25 1.25-4.65 1.39-2.23 1.53 1.31 1.47 6.04 1.37 10.84 1.48 13.57 1.92 12.06 2.51L21.94-60l-2.52 1.81-7.5-1.12-6.95-6.65-27.61-15.9" filter="url(#a)"/><path d="m-33.34-74.62 40.39-.09 14.79 2.74 1.08 1.86-3.53 1.2-4.14.13-2.89-1.07-.73-1.76.97-1.76.91-1.29-.86-.68-2.78-.19-2.75.05-.03.03 3.2-.27 2.7-.92-4.28-1.32-16.1 1.6-36.35 13.17" filter="url(#a)"/><path d="m41.94-65.76.74 13.11-14.99-2.32-8.75-3.22-.19-1.95 1.62-1.67-1.11-2.07-3.94-2.23-4.65-1.72-2.6-.35 2.4 2.04 9.01 5.17 12.48 7.56 5.76 6.38-17.22-1.2-63.88-15.87" filter="url(#a)"/><path d="m5.34-87.11 19.13 17.39-8.12 1.76-9.14 1.19-3.61 1.69.86.76 3.14-.43 4.26-.7 4.9-.34 4.47-.49 1.64-1.52-3.96-2.53-10.47-2.65-13.22-2.8-4.5-4.57L11-86.11" filter="url(#a)"/><path d="m-12.08-85.93 35.93 16.95 8.6 4.18-.27-.82L30.77-67l-.32.08.42 1.92-.38 2.77-2.27 2.14-3.68.49-3.53-1.28-2.14-2.54-.93-3.28-.81-3.7-1.33-3.85-1.14-3.28.71-1.42 4.32 2.01 9.43 6.87 13.99 11.7 9.62 10.13" filter="url(#a)"/><path d="m54.42-45.01-33.75-23L-.9-76.72l-8.94-3.17-.23.41 5.13 3.33 6.19 4.84 2.63 4.19L.76-65.4l-6.95-1.24-6.13-3.22-1.55-3.18 3.28-.82 5.98 3.18 8.53 6.08 13.22 1.27-3.78-22.01" filter="url(#a)"/><path d="m25.56-80.03-27.25-1.66-9.36 2.33-3.65 4.08-2.4 4.05-.42 3.3 3.69 2.17 7.56.78 8.49-.78 6.14-2.17 2.66-2.96.79-2.82 1.92-1.49 5.14.89 7.66 3.63 5.39 4.84-7.24.62-41.12-19.01" filter="url(#a)"/><path d="m3.02-87.54-.79.44-.57.99-1.04 1.95-2.38 2.8-2.81 3.27-2.62 3.44-2.43 3.29-1.85 2.81-.04 2.07 3.03 1.22 5.82.31 6.27-.88 3.5-2.45-1-4.08-4.27-4.91-4.51-4.2-3.23-2.05-4.35.48-8.22 1.85-2.22-1.84" filter="url(#a)"/><path d="m-46.07-60.06 31.46.75 24.67 4.41 3.39-3.35-5.31-6.86-2.39-5.19 3.22-1.58 5.31.93 3.24 1.32-.14.53-2.61-.1-5.18-.1-10.57.24-17.59 1.11-16.93 1.57 2.16-8.24" filter="url(#a)"/><path d="m35.33-73-5.76-3.14-8.07-1.71-7.35-.28-4.85-.43-3.01-1.03-2.65-1.18-2.93-.74-2.8.03-1.76.74.15 1.23 2.42 1.58 4.28 2 4.93 2.53 3.93 3 1.67 2.99-.68 2.29-1.67.93-.45-.67 2.56-1.87 5.74-2.02 6.77-.89 3.29.73-7.72-.31-37.81-15.01" filter="url(#a)"/><path d="M-18.25-83.63 8.48-70.97l-7.01-2.65-7.56-1.64-.87 1.81 4.6 3.89 6.85 3.79 6.28 1.86 3.83-.74.53-2.77-2.64-3.49-4.82-2.92-5.53-1.64-4.54-.29-1.89.84 2.03 1.76 6.4 2.61 9.91 3.31 11.17 3.55 9.45 3.05 5.26 1.82-.45-.29-8.28-4.37-20.14-10.74-31.26-8.87" filter="url(#a)"/><path d="m-20.69-83.03 14.56-2.51 8.35.29 3.07 1.18-1.81.88-3.49.45-1.77.47 1.45.79 4.07 1.08 4.97 1.14 4.16 1.11 2.32 1.14.17 1.32-1.77 1.43-2.98 1.1h-3.1l-2.32-1.92-1.52-4.01-.74-4.64 2.33-2.48 8.76.92" filter="url(#a)"/><path d="m26.1-79.71-4.57-1.14-3.97 1.78 1.04 3.8 4.21 3.53 3.72 1.73 1.26-.21-1.87-1.61-5.05-2.48-7.21-2.85-6.96-2.63-4.13-1.91-.83-.79-.49.7-3.85 2.53-2.98 2.94 27.51-5.97" filter="url(#a)"/><path d="m-5.57-87.02-8.81 2.56.24.95 3.38 1.87 4.12 2.24 3.9 1.6 3.9.88 4.24.85 4.12 1.49 2.84 2.08.61 1.92-1.4.82-1.75-.67.12-1.62 3.32-1.39 6.01-.11 6.41 1.32 3.92 1.52-.88-.5-5.76-4.1-4.6-4.76L32-75.62" filter="url(#a)"/><path d="m56.63-39.23-15.8-22.3-7.57-7.29-1.29 1.18 1.37 4.94.11 4.3-2.37 1.3-3.98-1.99-4.22-4.16-3.38-4.53-1.9-3-.45-.26.01 2.38-1.24 3.43-3.84 2.17-6.18-.78-6.27-3.57-3.19-4.09 2.2-1.34 7.31 3.36 5.38 4.1-29.66-18.63" filter="url(#a)"/><path d="m46.31-59.78-25.97-4.66 5.87 3.3 1.32-1.71-5.3-5.47-5.9-5.17-2.22-2.08 2.25 1.73 4.72 4.38 3.79 4.62-.24 2.52-5.37-.48-8.81-2.55-8.73-2.72-4.44-1.38 4.61.1 15.7-.93 3.75-12.09" filter="url(#a)"/><path d="m45.72-60.99-53.39-1.48-9.53-4.29.86-2.34 3.05-.37 5.67.83 8.3 1.08 8.86.54 6.99-.37 3.97-1.13 1.3-1.5-.3-1.55-1.18-1.52-1.94-1.47-2.98-1.27-3.94-.67-3.9.45-1.91 1.95 2.11 3.38 6.41 3.94 7.41 2.56 1.78-1.42-9.98-6.39-21.52-6.41-26.93 5.41" filter="url(#a)"/><path d="M32.74-74.89.27-77.61l-16.12 3.04 1.27 2.44 10.93 1.51 12.09.89 7.99.57 2.24.4-2.61.23h-5.22l-5.15-.21-2.71-.39 1.07-.55 4.54-.7 5.98-.88 4.47-1.28.56-2.07-3.4-3.01-4.12-3.15.59-1.18 9.29 3.6 19.98 12.59" filter="url(#a)"/></g><path fill="none" stroke="#000" stroke-linejoin="round" stroke-width="3" d="M-9.33 5.78Q9.58.735.125-4.768" filter="url(#a)"/><path fill="#D77F8C" stroke="#000" stroke-linejoin="round" stroke-width="3" d="m-12.8 65.68.03-1.45.05-1.4.05-1.36.07-1.3.07-1.26.08-1.21.09-1.17.1-1.12.11-1.08.11-1.03.13-.99.13-.95.14-.9.15-.86.15-.82.16-.79.17-.74.18-.7.18-.66.19-.63.2-.58.2-.55.21-.52.21-.48.22-.44.23-.41.23-.37.24-.34.24-.31.25-.28.25-.24.25-.22.27-.18.26-.15.27-.12.27-.1.28-.06.28-.04.29-.02.28.02.3.04.29.07.3.09.3.11.3.14.3.16.31.18.31.21.31.22.31.25.31.27.32.28.31.31.32.32.32.34.32.36.32.37.32.39.32.41.32.42.32.43.32.45.32.46.31.47.32.49.32.49.31.51.32.51.31.53.31.53.31.55.31.55.3.55.31.57.3.57.3.57.29.58.29.59.29.59.29.59.28.59.28.59.28.6.27.6.27.59.26.6.26.59.25.6.25.59.24.59.24.58.24.58.23.58.22.57.22.56.21.56.2.55.2.55.2.53-.25-.4-.24-.4-.24-.41-.24-.41-.25-.42-.24-.43-.24-.43-.24-.43-.24-.43-.25-.44-.24-.44-.24-.44-.24-.44-.25-.44-.24-.45-.24-.44-.24-.44-.25-.45-.24-.44-.24-.44-.24-.43-.24-.44-.25-.43-.24-.43-.24-.42-.24-.42-.25-.41-.24-.41-.24-.41-.24-.39-.24-.39-.25-.39-.24-.37-.24-.37-.24-.36-.25-.36-.24-.34-.24-.33-.24-.32-.25-.32-.24-.3-.24-.29-.24-.28-.24-.26-.25-.26-.24-.24-.24-.23-.24-.21-.25-.2-.24-.18-.24-.17-.24-.15-.24-.14-.25-.12-.24-.11-.24-.08-.24-.07-.25-.05-.24-.03-.24-.02-.24.01-.25.03-.24.04-.24.07-.24.09-.24.11-.25.14-.24.15-.24.18-.24.2-.25.23-.24.25-.24.27-.24.3-.25.33-.24.35-.24.38-.24.41-.24.43-.25.46-.24.49-.24.52-.24.54-.25.58-.24.61-.24.63-.24.67-.24.7-.25.73-.24.76-.24.8-.24.82-.25.87-.24.89-.24.93-.24.96-.25 1-.24 1.04-.24 1.07" filter="url(#a)"/></svg>