<svg xmlns="http://www.w3.org/2000/svg" width="500" height="500" viewBox="-100 -100 200 200"><defs><clipPath id="c"><path d="m32.18-9.79-.5-.12-.54-.13-.57-.12-.59-.12-.63-.12-.65-.12-.68-.12-.7-.11-.73-.12-.75-.11-.77-.11-.79-.11-.8-.11-.82-.1-.84-.1-.94-.12-.97-.11-.99-.11-1-.11-1.03-.11-1.04-.1-1.05-.11-1.06-.1-1.08-.1-1.08-.1-1.09-.09-1.09-.09-1.09-.09-1.09-.08-1.08-.08-1.09-.07-1.07-.07-1.07-.06-1.05-.05-1.05-.05-1.03-.04-1.01-.03-1-.03-.98-.02-.97-.01h-.94l-.92.01-.89.01-.88.03-.85.03-.82.04-.8.05-.77.06-.75.07-.72.08-.69.09-.66.09-.64.11-.61.11-.58.13-.55.13-.53.14-.5.15-.48.15-.45.17-.43.17-.4.18-.38.18-.36.19-.34.2-.32.21-.3.21-.27.22-.26.23-.24.23-.22.24-.2.25-.19.26-.16.26-.15.27-.13.27-.12.28-.09.29-.09.3 3.72 6.4.39.54.41.54.42.55.43.54.44.55.45.54.46.54.48.54.49.54.49.52.51.53.52.51.53.51.54.5.55.5.56.49.58.48.59.48.6.46.61.45.62.44.63.42.65.41.65.38.66.36.67.34.68.32.69.28.7.26.7.24.71.2.72.17.72.13.73.11.74.07.74.04h.75l.75-.03.76-.06.76-.1.77-.14.77-.17.78-.2.78-.23.78-.27.79-.3.79-.33.8-.36.8-.38.8-.41.81-.44.81-.46.81-.48.82-.5.81-.51.82-.53.82-.55.82-.56.82-.56.82-.57.82-.57.81-.58.82-.58.8-.57.66-.48.65-.49.64-.48.63-.49.62-.48.61-.47.6-.48.58-.47.57-.46.55-.45.53-.44.51-.44.49-.42.46-.41.45-.4"/></clipPath><clipPath id="b"><path d="m-35.8-7.9.61-.14.65-.14.69-.13.71-.12.74-.13.77-.12.79-.11.81-.12.83-.11.84-.1.86-.11.88-.1.88-.1.9-.09.9-.1 1.11-.09 1.12-.1 1.12-.09 1.12-.1 1.12-.09 1.11-.09 1.11-.09 1.11-.08 1.09-.08 1.08-.08 1.07-.08 1.06-.07 1.04-.07 1.03-.07 1.01-.06.99-.06.97-.06.95-.05.93-.04.92-.04.88-.04.87-.03.85-.03.82-.02.8-.01.78-.01.75-.01h.73l.71.01.68.01.67.02.63.03.62.03.59.03.58.04.55.05.53.05.5.06.49.06.47.07.45.07.43.08.41.08.39.09.38.09.36.09.34.1.33.1.31.11.3.11.28.11.28.11.26.12.24.12.24.13.22.13.21.13.2.14.19.13.18.15.17.14.15.15.15.15.13.15-2.3 4.86-.21.37-.21.38-.23.38-.23.39-.24.4-.26.39-.26.4-.27.41-.29.41-.29.4-.3.42-.31.41-.33.41-.33.42-.34.42-.35.42-.37.42-.38.42-.39.42-.4.43-.41.42-.43.42-.44.41-.45.41-.47.4-.48.4-.49.38-.51.38-.52.36-.53.35-.55.34-.57.32-.58.3-.6.29-.61.26-.63.25-.65.22-.67.2-.68.17-.7.15-.72.12-.74.1-.76.06-.77.03-.8.01-.81-.03-.84-.06-.85-.09-.87-.13-.9-.16-.91-.19-.93-.23-.95-.26-.96-.29-.99-.33-1-.36-1.01-.39-1.03-.43-1.05-.45-1.05-.49-1.07-.51-1.07-.53-1.08-.56-1.09-.59-.84-.39-.84-.41-.84-.42-.83-.43-.82-.44-.81-.45-.8-.45-.78-.45-.76-.46-.75-.46-.73-.45-.7-.46-.68-.45-.65-.45-.61-.43"/></clipPath><filter id="a"><feTurbulence baseFrequency=".05" numOctaves="3" result="noise" type="noise"/><feDisplacementMap in="SourceGraphic" in2="noise" scale="2"/></filter></defs><rect width="100%" height="100%" x="-100" y="-100" fill="#BC8F8F"/><path fill="#F0F" stroke="#000" stroke-linejoin="round" stroke-width="1.667" d="m73.13.13-.01 2.28-.06 1.95-.29 1.45.19-.74-.22 1.45-.17 2.68.25.96-.6 2.16.01.81.16 1.01-.55 1.25.1.82-.91 4.72.49-1.87-.95 4.02-.3 1.44-.34 1.35.13-.29.2-.19-.79 2.95-1.05 3.41.21.27.17-1.48-.85 3.6.18-1.33-.47 1.99-.82 1.98-.5 1.49-.49 1.21-.3 1-.62 1.14-.75 1.76-.63 1.35.09.65-1.58 2.87-.11-.31-.68 1.12-.52 2.05-1.05.94-.45.73-1.07 1.82-.4.8-.6.78-.48 1.75-.4.08-2.15 2.43-.34 1.07-.19.73-.25-.33-2.36 3.16-1.06 1.18-.28-.05-.22.7-1.22.97 1.1-.65-2.44 2.76-2.07 1.71-.84.55.95-.4-1.13 1.03-1.13.67-.98 1.15-3.08 2.4.47-.61-1.04.68-1.05 1.11.63-.38-3.4 2.41-1.88.88.19.37-.9-.11.05.28-1.48.89 1.03-.35-3.7 1.74-.9.61.52-.44-2.5 1.25-.12.08-2.55 1.02-1.74.73 1.16-.61-.45.12-3.89 1.52-.55.07-1.58.47-.85.18.14.1-1.9.49-.24-.26-.16.2-2.2.13-3.36.81-.35-.07.04-.02-2.48.15.57-.1-2.58.35 1.9-.36-3.58.18-1.31-.08-.6-.08-1.39.07-1.96-.24-.03-.08-1.7.05-1.35-.24-1.68-.42.79.47-1.24-.55-2.89-.33-.86-.28.13-.01-2.55-.55.72.32-2.12-.93-1.82-.2.86-.13-3.06-.96.15-.08-2.05-.71-1.04-.6-.72-.31-1.36-.76-1.11-.34-.87-.62-.1.36-.87-1-2.8-1.49-1.66-.73 1.44.57-2.76-1.95-.25.16-.47-.25-1.7-1.32-1.54-1.52-.94-.51-.09-.28-.74-.78-1.38-1.01-1.96-1.77-.38-.36-1.52-1.67.4.83-.97-1.49-2.09-2.31.22.08-.45-.42-.62-1.14-1.82-1.78.68 1.31-2.1-2.92-1.63-2.51.12.39-.02.01-1.42-2.34-.58-.17-.48-1.81-1.32-2.08-.01.53-.67-1.55-1.06-2.08-.79-1.25.28 1.08-.67-1.65-1.41-3.03.69 1.68-1.64-3.03.43-.25-.74-1.79-.85-1.31-.36-1.67-.52-.95-.32-.79-1.29-4.05-.42-1.38.37.98-.64-1.74-.19.28-.62-3.35-.67-2.12.03-.07-.38-1.97-.42-1.46-.29-1.23.22.1-.35-1.81-.44-2.56-.03-.02-.42-3.71-.16-.58-.19-1.62-.21-.8.15-1.22-.29-.04-.09-1.79.02-2.22.01-2.2-.2.43.19-2.73.03-2.21.07-1.06.13-1.16-.41.89.15-3.69-.05.62.15-2.52.25-2.12.58-3.12-.01-.67.05-.11.56-2.8-.3 1 .38-2.85.54-3.21.42-.42.41-1.56-.02-1.44.15-.04.3-1.21.56-1.4.13-.85 1.18-3.83-.32.83.78-2.46-.26.35 1.11-2.83-.45.93 1.38-3.59.41-1.03.44-1.16.32-.97.88-1.85 1.6-2.96-.87 1.27.54-1.35 1.06-.9.97-1.76.04-.26.99-2.43 1.31-1.56-.81.93 1.92-2.94-.01-.56.98-.33.28-.64 1.84-2.92-.45.41 2.15-2.28 1.05-1.76-.68.7.93-1.14 1.39-.95 1.17-1.23-.9.69 2-2.09 2.79-2.75-2 1.58 2.48-2.12.05-.21 2.58-2.29-1.13 1.1 3.58-2.55.73-.86.16-.27 1.93-1.05.08-.18-.12.14 1.4-.93 1.24-1.04-.11.04 1.69-1.25 1.77-.63 2.68-1.33-1.71.78 1.2-.7 1.08-.4 1.52-.7 2.42-1.22.95-.39-1.82.83 4.16-1.38-1.27-.11 3.75-.8-.63.01 2.21-.58 1.21-.46-.29.17 2.69-.75-.04.3 2.13-.48.15.15 2.13-.49.4-.04 1.66-.18.89-.19.74.17 2.26-.37-.99.06 2.96.09.78.02.44.15 1.51-.15 1.42.01 1.52.48-.04-.1 1.33.17 1.75.3-1.14-.36 4.65.98-1.29-.1 2 .28 1.38.09.52.28-.31-.26 2.66.75.94.32 1.44.5 1.77 1.1 1.32.13-.32.33 1.91.59-.43-.48 2.91 1.46.27.09.47.22 1.68 1.06 1.04.56.53.34.98.45 2.84 1.76-1.79-.76 2.58 1.59 1.15.94 1.9 1.13.64.4-.73-.5 1.06.97 1.66 1.05 2.18 2.47-.97-.88 1.95 1.28 1.26 1.8-.5-.55 1.25 1.09 1.67 1.75-.39-.43 2.45 2.93-.32-.15 1.2 1.29 1.29 1.36.08.16 2.59 3.25-.43-.66 1.77 2.62-.7-.5 1.3 2.2-.51-1.18 2.62 4.52-.14-.08.14-.16.88 2.29.64.78.48.6.8 1.54-.12-.36 1.44 3.65.32.49.82 1.87-.05-.13 1.28 2.93-.57-1.66 1.61 3.97.54 1.77.07-.13.45 1.9.15 1.05 1.12 2.57-.41-.86.69 2.64.34 1.43.67 3.06.02-.83.47 2.61.37 1.49-.07.18.37 2.71.34 2.11-.31-1.6.53 1.87-.01 2.02.03 1.23.58 3.07.13.68-.09 2.36-.25-1.15.1.5.47 3.47-.26 1.9.1.9-.01 2.28" filter="url(#a)"/><path fill="#fff" d="m-35.8-7.9.61-.14.65-.14.69-.13.71-.12.74-.13.77-.12.79-.11.81-.12.83-.11.84-.1.86-.11.88-.1.88-.1.9-.09.9-.1 1.11-.09 1.12-.1 1.12-.09 1.12-.1 1.12-.09 1.11-.09 1.11-.09 1.11-.08 1.09-.08 1.08-.08 1.07-.08 1.06-.07 1.04-.07 1.03-.07 1.01-.06.99-.06.97-.06.95-.05.93-.04.92-.04.88-.04.87-.03.85-.03.82-.02.8-.01.78-.01.75-.01h.73l.71.01.68.01.67.02.63.03.62.03.59.03.58.04.55.05.53.05.5.06.49.06.47.07.45.07.43.08.41.08.39.09.38.09.36.09.34.1.33.1.31.11.3.11.28.11.28.11.26.12.24.12.24.13.22.13.21.13.2.14.19.13.18.15.17.14.15.15.15.15.13.15-2.3 4.86-.21.37-.21.38-.23.38-.23.39-.24.4-.26.39-.26.4-.27.41-.29.41-.29.4-.3.42-.31.41-.33.41-.33.42-.34.42-.35.42-.37.42-.38.42-.39.42-.4.43-.41.42-.43.42-.44.41-.45.41-.47.4-.48.4-.49.38-.51.38-.52.36-.53.35-.55.34-.57.32-.58.3-.6.29-.61.26-.63.25-.65.22-.67.2-.68.17-.7.15-.72.12-.74.1-.76.06-.77.03-.8.01-.81-.03-.84-.06-.85-.09-.87-.13-.9-.16-.91-.19-.93-.23-.95-.26-.96-.29-.99-.33-1-.36-1.01-.39-1.03-.43-1.05-.45-1.05-.49-1.07-.51-1.07-.53-1.08-.56-1.09-.59-.84-.39-.84-.41-.84-.42-.83-.43-.82-.44-.81-.45-.8-.45-.78-.45-.76-.46-.75-.46-.73-.45-.7-.46-.68-.45-.65-.45-.61-.43" filter="url(#a)" transform="translate(46.86 -21.31)"/><path fill="#fff" d="m32.18-9.79-.5-.12-.54-.13-.57-.12-.59-.12-.63-.12-.65-.12-.68-.12-.7-.11-.73-.12-.75-.11-.77-.11-.79-.11-.8-.11-.82-.1-.84-.1-.94-.12-.97-.11-.99-.11-1-.11-1.03-.11-1.04-.1-1.05-.11-1.06-.1-1.08-.1-1.08-.1-1.09-.09-1.09-.09-1.09-.09-1.09-.08-1.08-.08-1.09-.07-1.07-.07-1.07-.06-1.05-.05-1.05-.05-1.03-.04-1.01-.03-1-.03-.98-.02-.97-.01h-.94l-.92.01-.89.01-.88.03-.85.03-.82.04-.8.05-.77.06-.75.07-.72.08-.69.09-.66.09-.64.11-.61.11-.58.13-.55.13-.53.14-.5.15-.48.15-.45.17-.43.17-.4.18-.38.18-.36.19-.34.2-.32.21-.3.21-.27.22-.26.23-.24.23-.22.24-.2.25-.19.26-.16.26-.15.27-.13.27-.12.28-.09.29-.09.3 3.72 6.4.39.54.41.54.42.55.43.54.44.55.45.54.46.54.48.54.49.54.49.52.51.53.52.51.53.51.54.5.55.5.56.49.58.48.59.48.6.46.61.45.62.44.63.42.65.41.65.38.66.36.67.34.68.32.69.28.7.26.7.24.71.2.72.17.72.13.73.11.74.07.74.04h.75l.75-.03.76-.06.76-.1.77-.14.77-.17.78-.2.78-.23.78-.27.79-.3.79-.33.8-.36.8-.38.8-.41.81-.44.81-.46.81-.48.82-.5.81-.51.82-.53.82-.55.82-.56.82-.56.82-.57.82-.57.81-.58.82-.58.8-.57.66-.48.65-.49.64-.48.63-.49.62-.48.61-.47.6-.48.58-.47.57-.46.55-.45.53-.44.51-.44.49-.42.46-.41.45-.4" filter="url(#a)" transform="translate(-38.12 -21.42)"/><g fill="none" stroke="#000" transform="translate(46.86 -21.31)"><path stroke-linejoin="round" stroke-width="1.667" d="m-39.36-6.26.09-.19.16-.19.23-.17.28-.17.35-.17.39-.16.45-.16.49-.15.54-.14.58-.14.61-.14.65-.14.69-.13.71-.12.74-.13.77-.12.79-.11.81-.12.83-.11.84-.1.86-.11.88-.1.88-.1.9-.09.9-.1 1.11-.09 1.12-.1 1.12-.09 1.12-.1 1.12-.09 1.11-.09 1.11-.09 1.11-.08 1.09-.08 1.08-.08 1.07-.08 1.06-.07 1.04-.07 1.03-.07 1.01-.06.99-.06.97-.06.95-.05.93-.04.92-.04.88-.04.87-.03.85-.03.82-.02.8-.01.78-.01.75-.01h.73l.71.01.68.01.67.02.63.03.62.03.59.03.58.04.55.05.53.05.5.06.49.06.47.07.45.07.43.08.41.08.39.09.38.09.36.09.34.1.33.1.31.11.3.11.28.11.28.11.26.12.24.12.24.13.22.13.21.13.2.14.19.13.18.15.17.14.15.15.15.15.13.15.13.15.11.16.11.16.1.16.09.17.08.16.07.17.06.17.05.17.05.17" filter="url(#a)"/><path stroke-linejoin="round" stroke-width="2.222" d="m-39.4-4.37.11.22.18.25.24.29.3.31.35.34.41.36.46.38.5.4.54.42.58.43.61.43.65.45.68.45.7.46.73.45.75.46.76.46.78.45.8.45.81.45.82.44.83.43.84.42.84.41.84.39 1.09.59 1.08.56 1.07.53 1.07.51 1.05.49 1.05.45 1.03.43 1.01.39 1 .36.99.33.96.29.95.26.93.23.91.19.9.16.87.13.85.09.84.06.81.03.8-.01.77-.03.76-.06.74-.1.72-.12.7-.15.68-.17.67-.2.65-.22.63-.25.61-.26.6-.29.58-.3.57-.32.55-.34.53-.35.52-.36.51-.38.49-.38.48-.4.47-.4.45-.41.44-.41.43-.42.41-.42.4-.43.39-.42.38-.42.37-.42.35-.42.34-.42.33-.42.33-.41.31-.41.3-.42.29-.4.29-.41.27-.41.26-.4.26-.39.24-.4.23-.39.23-.38.21-.38.21-.37.19-.37.19-.37.17-.36.17-.35.15-.35.15-.35.14-.33.13-.34.12-.32.11-.33" filter="url(#a)"/><circle cx="6.212" cy="-4.148" r="4.444" clip-path="url(#b)" filter="url(#a)"/><circle cx="8.882" cy="-7.303" r="3.646" clip-path="url(#b)" filter="url(#a)"/><circle cx="9.822" cy="-7.818" r="3.088" clip-path="url(#b)" filter="url(#a)"/><circle cx="8.147" cy="-5.173" r="4.56" clip-path="url(#b)" filter="url(#a)"/><circle cx="8.142" cy="-5.258" r="4.004" clip-path="url(#b)" filter="url(#a)"/><circle cx="7.912" cy="-6.598" r="3.946" clip-path="url(#b)" filter="url(#a)"/><circle cx="9.947" cy="-3.978" r="4.928" clip-path="url(#b)" filter="url(#a)"/><circle cx="8.752" cy="-3.928" r="3.45" clip-path="url(#b)" filter="url(#a)"/><circle cx="5.572" cy="-8.383" r="4.264" clip-path="url(#b)" filter="url(#a)"/><circle cx="9.722" cy="-8.468" r="3.204" clip-path="url(#b)" filter="url(#a)"/></g><g fill="none" stroke="#000" transform="translate(-38.12 -21.42)"><path stroke-linejoin="round" stroke-width="2.222" d="m35.07-8.42-.09-.14-.14-.15-.19-.14-.23-.14-.27-.14-.32-.13-.35-.14-.4-.13-.43-.13-.47-.13-.5-.12-.54-.13-.57-.12-.59-.12-.63-.12-.65-.12-.68-.12-.7-.11-.73-.12-.75-.11-.77-.11-.79-.11-.8-.11-.82-.1-.84-.1-.94-.12-.97-.11-.99-.11-1-.11-1.03-.11-1.04-.1-1.05-.11-1.06-.1-1.08-.1-1.08-.1-1.09-.09-1.09-.09-1.09-.09-1.09-.08-1.08-.08-1.09-.07-1.07-.07-1.07-.06-1.05-.05-1.05-.05-1.03-.04-1.01-.03-1-.03-.98-.02-.97-.01h-.94l-.92.01-.89.01-.88.03-.85.03-.82.04-.8.05-.77.06-.75.07-.72.08-.69.09-.66.09-.64.11-.61.11-.58.13-.55.13-.53.14-.5.15-.48.15-.45.17-.43.17-.4.18-.38.18-.36.19-.34.2-.32.21-.3.21-.27.22-.26.23-.24.23-.22.24-.2.25-.19.26-.16.26-.15.27-.13.27-.12.28-.09.29-.09.3-.06.3-.05.3-.04.31-.03.32v.65l.02.33.03.34.04.34.05.34" filter="url(#a)"/><path stroke-linejoin="round" stroke-width="2.222" d="m35.35-6.72-.08.19-.12.22-.17.25-.21.27-.25.29-.29.31-.32.33-.35.35-.39.36-.41.38-.45.4-.46.41-.49.42-.51.44-.53.44-.55.45-.57.46-.58.47-.6.48-.61.47-.62.48-.63.49-.64.48-.65.49-.66.48-.8.57-.82.58-.81.58-.82.57-.82.57-.82.56-.82.56-.82.55-.82.53-.81.51-.82.5-.81.48-.81.46-.81.44-.8.41-.8.38-.8.36-.79.33-.79.3-.78.27-.78.23-.78.2-.77.17-.77.14-.76.1-.76.06-.75.03h-.75l-.74-.04-.74-.07-.73-.11-.72-.13-.72-.17-.71-.2-.7-.24-.7-.26-.69-.28-.68-.32-.67-.34-.66-.36-.65-.38-.65-.41-.63-.42-.62-.44-.61-.45-.6-.46-.59-.48-.58-.48-.56-.49-.55-.5-.54-.5-.53-.51-.52-.51-.51-.53-.49-.52-.49-.54-.48-.54-.46-.54-.45-.54-.44-.55-.43-.54-.42-.55-.41-.54-.39-.54-.38-.54-.37-.54-.35-.53-.35-.53-.33-.53-.31-.52-.31-.51-.3-.52-.28-.5-.27-.5" filter="url(#a)"/><circle cx="-12.056" cy="-.633" r="3.728" clip-path="url(#c)" filter="url(#a)"/><circle cx="-15.281" cy="-5.343" r="3.646" clip-path="url(#c)" filter="url(#a)"/><circle cx="-15.041" cy="-4.363" r="4.24" clip-path="url(#c)" filter="url(#a)"/><circle cx="-11.341" cy="-1.513" r="3.942" clip-path="url(#c)" filter="url(#a)"/><circle cx="-12.626" cy="-5.373" r="4.284" clip-path="url(#c)" filter="url(#a)"/><circle cx="-10.941" cy="-2.083" r="3.666" clip-path="url(#c)" filter="url(#a)"/><circle cx="-11.271" cy="-1.558" r="4.942" clip-path="url(#c)" filter="url(#a)"/><circle cx="-12.711" cy="-1.748" r="4.864" clip-path="url(#c)" filter="url(#a)"/><circle cx="-12.566" cy="-4.603" r="4.124" clip-path="url(#c)" filter="url(#a)"/><circle cx="-11.276" cy="-4.773" r="4.906" clip-path="url(#c)" filter="url(#a)"/></g><g fill="none" stroke="#91553D" stroke-linejoin="round" stroke-width="2"><path d="m63.9-43.8.52 1.25.28.83.15.69v.62l-.18.48-.4.26-.66-.01-.93-.32-1.19-.63-1.47-.94-1.77-1.25-2.08-1.59-2.42-1.95-2.78-2.33-3.13-2.76-3.47-3.18-3.83-3.61-4.19-4.05-4.59-4.51-5.05-5.03-5.57-5.58-6.08-6.11m-42.15-.51-.57.27.79-.25 1.48-.47 1.79-.54 1.9-.5 1.93-.45 1.96-.39 2.04-.37 2.11-.36 2.15-.36 2.14-.34 2.08-.33 1.99-.31 1.9-.27 1.8-.23 1.71-.2 1.59-.16 1.42-.15 1.22-.15.96-.16.68-.15.44-.15.15-.11m-29.15 3.89.51-.13.84-.18 1.36-.34 1.65-.41 1.78-.41 1.82-.39 1.82-.34 1.81-.3 1.77-.26 1.72-.23 1.65-.2 1.55-.19 1.43-.17 1.28-.17 1.13-.16.93-.14.7-.12.41-.11.11-.08-.18-.05-.34-.03" filter="url(#a)"/><path d="m1.89-90.54 1.4-.06 1.24.08 1.02.12.85.12.72.11.6.12.45.11.25.11-.03.1-.37.07-.75.05-1.17.03-1.6.02-2.04.04-2.51.04-3.06.04h-3.74m24.7 1.27 1.13.43 1.43.63 1.45.65 1.31.59 1.18.52 1.09.46 1.01.42.87.36.69.3.45.2.16.07-.18-.08-.58-.26-1.03-.43-1.48-.59m33.97 32.27.11.33-.19.48-.7.1-1.3-.35-1.94-.77-2.6-1.15-3.3-1.58-4.05-2.1-4.86-2.7-5.7-3.34-6.58-4-7.49-4.62-8.42-5.23-9.38-5.9" filter="url(#a)"/><path d="m-2.29-90.8 2.05.08 1.15.09.82.11.67.15.49.22.26.28.02.35-.21.43-.43.49-.67.56-.92.63-1.22.7-1.56.78-1.96.88-2.37.99-2.79 1.15-3.2 1.3-3.63 1.46-4.04 1.6-4.49 1.72-4.98 1.81-5.56 1.98-6.42 2.45m14.19-13.44-.54.26.87-.3 1.61-.55 1.97-.65 2.07-.65 2.07-.59 2.06-.54 2.07-.53 2.08-.52 2.02-.5 1.88-.47 1.68-.42 1.42-.36 1.12-.31.83-.25.53-.14m50.19 20.84 1 1.11.49.75.23.61-.09.41-.41.19-.79-.04-1.22-.29-1.71-.59-2.27-.93-2.87-1.32-3.46-1.73-4.07-2.13L27-76.18l-5.35-2.92-6.09-3.36-6.85-3.86m55.96 44.26.6 1.63v1.02l-.39.99-.84.81-1.32.54-1.78.3-2.24.08-2.71-.13-3.18-.31-3.69-.5-4.21-.68-4.76-.89-5.32-1.14-5.9-1.39-6.46-1.65-7.03-1.91-7.61-2.17-8.2-2.43-8.8-2.66-9.4-2.92-9.94-3.2-10.56-3.49" filter="url(#a)"/><path d="m43.85-72.45-.03-.1.75.65.82.81.78.79.76.8.74.79.68.77.6.71.49.61.36.49.21.36.04.19-.16.02-.39-.19-.65-.42-.94-.68-1.23-.96-1.53-1.24-1.8-1.53-2.09-1.83-2.41-2.16-2.74-2.47-3-2.75" filter="url(#a)"/><path d="m40.01-75.97 1.42 1.15.84.88.31.49-.09.23H42l-.9-.23-1.34-.46-1.81-.72-2.35-1-2.98-1.34-3.69-1.75-4.44-2.19-5.18-2.64-6.01-3.13m-54.29 11.46.57.1 2.21-.56 2.84-.4 3.28-.08 3.73.22 4.23.45 4.75.6 5.3.7 5.85.78 6.39.85 6.88.97 7.29 1.07 7.56 1.17 7.68 1.23 7.78 1.25 7.97 1.27m9.42 2.64.68.89.97 1.26.79 1.11.59.92.43.76.32.62.2.48.07.28-.12.01-.36-.31-.62-.67-.88-1.03-1.16-1.4-1.45-1.77-1.76-2.18-2.11-2.61-2.42-2.99" filter="url(#a)"/><path d="m-29.77-82.7 1.35-.69.53-.3.65-.33.86-.4.91-.42.82-.34.63-.23.46-.12.3-.01.12.1-.07.23-.34.38-.66.58-1.02.79-1.41 1.02-1.79 1.25-2.16 1.47-2.52 1.68-2.9 1.9-3.37 2.22-4.17 2.82" filter="url(#a)"/><path d="m-3.56-90.49 1.38-.21 1.01-.04 1.07.02 1.1.04 1.09.05 1.09.06 1.07.08 1.05.1 1.02.12 1.02.13 1.02.16 1.06.17 1.08.18 1.09.2 1.06.19 1.02.19.98.18.96.2 1.02.25 1.13.32 1.28.43 1.4.58 1.56.84-37.23-2.44-1.46.42-1.18.37-1.19.41-1.14.41-1.06.41-1 .4-1.03.44-1.06.47-1.08.49-1.04.5-.98.47-.96.48-.99.51-1.04.56-1.09.61-1.07.65-.98.65-.86.6-.71.51-.44.33-.13.15 5.95-3.85 1.32-.77.47-.47.63-.49.91-.62 1.06-.78 1.03-.93.95-.99.92-.95.94-.86 1.02-.8 1.08-.81 1.1-.86 1.09-.91 1.05-.89 1.04-.77 1.05-.58 1.11-.41 1.19-.52 1.5-1.17m-21.92 22.4-.87.41-.63.03-.72.05-.92.11-1.1.21-1.19.37-1.22.51-1.18.64-1.11.7-1.02.73-.93.77-.83.87-.78 1.05-.81 1.13-.99.81-1.19.01-1.44-.32-39.97 33.24.83-1.36 2.06-1.01 2.16-1.05 1.88-1.08 1.44-1.11 1.06-1.13.84-1.17.76-1.24.75-1.32.81-1.35.97-1.3 1.19-1.18 1.41-1.01 1.6-.81 1.76-.58 1.85-.32 1.8-.18 1.51-.32.97-.75.65-1.09 1.23-.69 2.54-.15-5.53 11.21-1.41.63-1.98.61-1.96.65-1.76.63-1.61.63-1.58.64-1.55.72-1.42.89-1.12 1.12-.72 1.33-.39 1.45-.33 1.38-.67 1.17-1.32.89-2.04.73-2.48.83-2.39 1.31-1.83 2.2-1.17 3.15M90.36-3.29l-1.7-2.64-1.45-1.14-1.19-.86-1.14-1.08-1.01-1.4-.81-1.61-.72-1.63-.83-1.47-1.13-1.22-1.45-1-1.64-.9-1.61-.93-1.36-1.04-.98-1.18-.62-1.24-.57-1.18-.96-1.02-1.25-1.62-2.97 20.8.7-.24.32-.43.26-.93.3-1.31.24-1.49.1-1.49-.01-1.37-.04-1.24.01-1.14.11-1.15.21-1.23.29-1.34.33-1.41.24-1.4.1-1.33v-1.33l-.19-1.97-1.89-6.83-.16-1.43-.09-1.39-.01-1.69.22-1.89.33-1.87.18-1.69-.05-1.56-.14-1.57.03-1.78.38-2.09.72-2.35.89-2.44.81-2.32.54-2.11.28-1.94.22-1.97.34-2.23.48-2.53.35-2.55.1-2.2.44-2.01 2.29-2.44-13.94 29.75-.46-1.36-.28-1.25-.11-1.4.07-1.56.17-1.73.3-1.98.57-2.36.93-2.77 1.23-3.08 1.27-3.16.97-2.98.46-2.67v-2.43l-.26-2.34-.39-2.26-.56-1.99-.84-1.58-1.08-1.6-1.01-3.79 15.63 51.3-1.03-1.18-1.2-.92-1.8-.82-1.9-.78-1.65-.78-1.33-.81-1.09-.9-.92-1.04-.8-1.16-.78-1.2-.89-1.04-1.1-.76-1.24-.54-1.12-.59-.81-.87-.63-.96-1.26.29 21.51 13.1-1.74-.87-1.77-.69-1.22-1.24-.74-1.5-.61-1.44-.77-1.22-1-1.02-1.2-.91-1.31-.88-1.35-.83-1.4-.74-1.42-.6-1.41-.49-1.38-.42-1.3-.4-1.2-.44-1.1-.57-1.02-.85-.98-1.09-.56-.16-4.53-6.91 2.26 1.38 1.87.17 1.19.44.63.91.56 1.07.8.96 1.06.76 1.22.62 1.2.58 1.1.64.96.77.9.86.98.88 1.24.81 1.56.67 1.84.55 1.93.5 1.77.58 1.44.76 1.13 1 1.09 1.3 1.33 1.75 1.2 2.24" filter="url(#a)"/><path d="m45.59-70.8 1.09 1.23.95 1.14.89 1.03.85 1.01.8 1.05.78 1.08.78 1.15.79 1.18.79 1.2.76 1.17.68 1.09.58 1 .5.91.49.92.65 1.29 1.33 2.83-17.04-14.79-.82-1.13-.6-1-.79-1.02-.79-1.01-.65-1.03-.55-1.1-.55-1.15-.65-1.15-.76-1.11-.84-1.01-.9-.92-.92-.84-.91-.81-.91-.77-.91-.74-.92-.68-.93-.63-.94-.59-.94-.56-.93-.56-.87-.52-.76-.52-.62-.6-.8-.49 2.35-27.62-1.23-2.13-1.6.16-1.5 1.64-1.47 2.26-1.51 2.42-1.56 2.48-1.6 2.59-1.62 2.69-1.57 2.67-1.45 2.51-1.29 2.15-1.13 1.61-1.03 1.04-1.1.69-1.29.4m68.93 75.84.3 3.14.51 2.9 1.08 2.83 1.69 2.86 1.83 2.87 1.48 2.84 1.01 2.78.66 2.74.47 2.7.36 2.69.2 2.71-.03 2.72-.3 2.73-.54 2.7-.66 2.63-.64 2.56-.46 2.48-.19 2.41.1 2.37.33 2.36.43 2.36.34 2.38.08 2.39-.34 2.39-.8 2.39-1.2 2.37-1.38 2.34-1.36 2.31-1.23 2.27-1.06 2.19-.88 2.04-1.08 1.6m-73.34-157-1.52.22-1.94.18-2.28.23-2.61.32-3.01.44-3.43.56-3.77.66-3.98.76-4.04.82-4 .87-3.91.92-3.79.98-3.73 1.02-3.79 1.06-3.88 1.09-3.93 1.1-3.9 1.15-3.92 1.22-4.28 1.34-5.18 1.51-6.5 1.73-7.46 2.01-6.48 2.19-1.54 1.62" filter="url(#a)"/><path d="m-2.29-90.8-1.67.22-1.72.19-1.95.23-2.21.33-2.47.45-2.66.58-2.75.68-2.75.76-2.7.83-2.65.89-2.61.94-2.56.99-2.52 1.04-2.46 1.07-2.43 1.11-2.46 1.16-2.56 1.23-2.74 1.32-2.95 1.44-3.13 1.58-3.21 1.71-3.19 1.82-3.16 1.87-3.16 1.86-3.23 1.84-3.24 1.84-3.09 1.9-2.75 1.96-2.37 1.88-2.13 1.76" filter="url(#a)"/><path d="m-4.3-90.66-2.45.4-2.36.41-2.21.41-2.11.45-2.12.52-2.21.62-2.33.72-2.41.81-2.44.9-2.44.97-2.45 1.05-2.51 1.12-2.64 1.19-2.8 1.29-2.98 1.37-3.12 1.47-3.15 1.55-3.11 1.62-3 1.66-2.89 1.69-2.81 1.73-2.78 1.77-2.79 1.85-2.81 1.93-2.82 2.02-2.79 2.07-2.68 2.08-2.47 2.05-2.24 2.01-2.08 1.99-2.06 1.99-2.06 2.16-2.47 3.27" filter="url(#a)"/><path d="m-5.19-90.47-2.39.25-2.44.32-2.87.46-3.11.59-3.03.72-2.78.79-2.65.85-2.7.9-2.9.95-3.1 1-3.21 1.05-3.2 1.08-3.1 1.12-3.06 1.18-3.08 1.24-3.2 1.35-3.34 1.46-3.49 1.6-3.62 1.71-3.8 1.8-4.01 1.86-4.19 1.87-4.2 1.87-3.93 1.89-3.41 1.94-2.84 2.03-2.56 2.14-2.84 2.29-3.54 2.42-3.87 2.44-3.6 2.24" filter="url(#a)"/><path d="m-5.19-90.47-2.13.24-2.32.32-2.55.43-2.8.58-2.92.7-2.79.78-2.54.83-2.33.88-2.24.92-2.29.98-2.46 1.03-2.69 1.06-2.9 1.08-3.02 1.1-3.01 1.14-2.86 1.22-2.67 1.33-2.63 1.52-2.92 1.73-3.56 2-4.15 2.19-2.99 1.61" filter="url(#a)"/><path d="m-6.85-90.29-2.38.45-2.2.41-2.04.44-2 .51-2.13.61-2.36.72-2.6.83-2.79.9-2.88.98-2.86 1.04-2.76 1.12-2.65 1.2-2.58 1.28-2.59 1.38-2.69 1.47-2.82 1.55-2.95 1.62-3.04 1.67-3.04 1.69-2.93 1.73-2.76 1.77-2.56 1.84-2.4 1.94-2.35 2.01-2.45 2.07-2.72 2.08-3.07 2.05-3.34 2.01-3.29 1.99-2.85 1.98-2.51 2.16-3.61 3.27" filter="url(#a)"/><path d="m-6.85-90.29-3.52.45-3.19.4-2.14.43-1.79.49-2.08.6-2.58.7-3 .81-3.27.88-3.4.96-3.38 1.02-3.21 1.08-2.93 1.16-2.65 1.24-2.46 1.33-2.48 1.43-2.73 1.55-3.14 1.64-3.59 1.67-4.01 1.67-4.29 1.61-4.43 1.56-4.65 1.6-5.19 1.84-5.23 2.8" filter="url(#a)"/><path d="m-6.85-90.29-4.57.45-2.46.4-1.98.43-1.98.49-2.34.6-2.9.7-3.47.81-3.84.88-3.92.96-3.8 1.02-3.64 1.08-3.65 1.16-3.91 1.24-4.43 1.33-5.1 1.43-5.73 1.55-6.2 1.64-6.41 1.67-6.31 1.67-6.01 1.61-5.71 1.56-5.64 1.6-6 1.84-8.69 2.8" filter="url(#a)"/><path d="m-7.25-90.25-2.34.32-2.63.44-2.74.61-2.72.73-2.69.81-2.71.86-2.72.91-2.7.95-2.67 1.01-2.61 1.05-2.55 1.08-2.44 1.13-2.33 1.18-2.24 1.25-2.21 1.35-2.26 1.47-2.4 1.6-2.63 1.72-2.9 1.8-3.19 1.85-3.46 1.87-3.63 1.88-3.64 1.91-3.43 1.95-3.06 2.04-2.7 2.15-2.63 2.26-3.06 2.36-3.83 2.35-4.03 2.16-2.41 1.83" filter="url(#a)"/><path d="m-7.25-90.25-2.51.32-2.64.43-2.92.61-3.56.74-4.19.81-4.54.86-4.45.9-4.01.95-3.34 1.01-2.67 1.04-2.13 1.09-1.88 1.12-1.9 1.17-2.15 1.24-2.47 1.35-2.74 1.46-2.9 1.6-3.03 1.72-3.19 1.8-3.45 1.86-3.74 1.87-3.88 1.87-3.74 1.88-3.35 1.94-3.03 2.03-3.2 2.14-3.99 2.28-4.82 2.43-4.78 2.44-5.61 2.23" filter="url(#a)"/><path d="m-7.25-90.25-2.25.32-2.35.44-2.55.61-2.62.74-2.55.82-2.42.86-2.28.91-2.16.96-2.06 1.01-1.97 1.05-1.93 1.1-1.92 1.13-1.94 1.19-1.98 1.27-2.02 1.37-2.07 1.49-2.11 1.61-2.1 1.72-2.08 1.79-2.01 1.85-1.93 1.88-1.84 1.91-1.79 1.93-1.76 1.99-1.77 2.07-1.79 2.15-1.82 2.23-1.85 2.29-1.85 2.3-1.82 2.27-1.7 2.24-1.46 2.26-1.2 2.33-1.45 2.46" filter="url(#a)"/><path d="m-9.53-89.91-2.22.35-2.59.62-2.71.77-2.61.83-2.42.86-2.28.91-2.19.95-2.16 1.01-2.12 1.05-2.11 1.08-2.13 1.12-2.19 1.17-2.28 1.24-2.38 1.35-2.5 1.46-2.63 1.6-2.76 1.72-2.85 1.81-2.9 1.86-2.84 1.86-2.7 1.87-2.52 1.89-2.38 1.94-2.34 2.02-2.45 2.14-2.58 2.28-2.62 2.42-2.61 2.44-3.28 2.23" filter="url(#a)"/><path d="m-11.62-89.73-2.64.71-2.77.84-2.53.86-2.26.87-2.12.91-2.08.96-2.06 1.01-2.03 1.06-1.97 1.09-1.9 1.13-1.87 1.18-1.87 1.26-1.91 1.36L-41.6-75l-2.03 1.61-2.05 1.73-2.01 1.8-1.92 1.86-1.8 1.87-1.67 1.9-1.56 1.92-1.47 1.97-1.46 2.06-1.47 2.15-1.51 2.24-1.55 2.3-1.55 2.3-1.5 2.25-1.42 2.21-1.34 2.23-1.23 2.24" filter="url(#a)"/><path d="m-14.02-89.15-3.67.96-3.05.9-2.62.88-2.87.9-3.26.96-3.37 1.03-3.14 1.07-2.65 1.1-2.08 1.14-1.61 1.2-1.35 1.27-1.38 1.39-1.65 1.51-2.06 1.63-2.5 1.73-2.84 1.81-3.02 1.86-3.03 1.9-2.9 1.92-2.7 1.96-2.55 2.01-2.52 2.08-2.68 2.16-3 2.22-3.38 2.26-3.72 2.28-3.81 2.29-3.63 2.28-3.21 2.3-2.71 2.33-2.31 2.39-2.01 2.49-1.78 2.68-1.68 2.97-2.26 2.99" filter="url(#a)"/><path d="m-15.23-88.69-1.83.65-2.26.77-2.46.88-2.46.94-2.43.97-2.46 1.03-2.51 1.1-2.54 1.17-2.49 1.26-2.43 1.34-2.36 1.46-2.28 1.56-2.18 1.63-2.05 1.67-1.91 1.66-1.82 1.63-1.84 1.65-1.96 1.73-2.15 1.92-2.39 2.13-2.54 2.14-2.11 1.51" filter="url(#a)"/><path d="m-17.44-88.11-3 .86-2.96.84-2.79.86-2.77.94-2.81 1.02-2.77 1.06-2.6 1.09-2.35 1.11-2.13 1.14-2.03 1.21-2.11 1.32-2.39 1.45-2.79 1.6-3.13 1.74-3.25 1.83-3.05 1.87-2.64 1.85-2.27 1.83-2.22 1.84-2.56 1.89-3.03 1.97-3.1 2.06-2.72 2.29-2.58 3.11" filter="url(#a)"/><path d="m-17.44-88.11-5.36.88-1.67.85-1.4.87-1.85.96-2.45 1.04-3.06 1.08-3.56 1.1-3.83 1.14-3.89 1.2-3.79 1.27-3.57 1.39-3.3 1.52-3 1.63-2.76 1.75-2.64 1.81-2.65 1.87-2.76 1.89-2.91 1.93-3 1.96-3.02 2.02-3.04 2.08-3.14 2.16-3.36 2.22-3.7 2.26-4.04 2.28-4.24 2.29-4.28 2.29-4.27 2.31-4.29 2.34-4.31 2.41-4.08 2.51-3.51 2.63-3.16 2.75-4.13 2.64-6.66 1.96" filter="url(#a)"/><path d="m-17.44-88.11-3.5.87-4.26.84-3.86.86-2.92.95-2.01 1.02-1.52 1.06-1.49 1.1-1.81 1.11-2.3 1.16-2.82 1.23-3.3 1.33-3.77 1.47-4.18 1.61-4.49 1.74-4.62 1.82-4.49 1.86-4.12 1.86-3.65 1.86-3.3 1.88-3.3 1.93-3.63 2.02-4.08 2.13-4.44 2.28-4.83 2.41-5.15 2.43-2.7 2.22" filter="url(#a)"/><path d="m-16.81-88.12-2.45.84-2.5.92-2.4.98-2.28 1-2.19 1.06-2.13 1.13-2.07 1.22-2.02 1.31-2.04 1.4-2.1 1.5-2.17 1.59-2.22 1.64-2.21 1.68-2.18 1.72-2.1 1.74-2.03 1.8-1.95 1.87-1.86 1.94-1.77 2-1.68 2.05-1.62 2.07-1.58 2.07-1.6 2.09-1.63 2.13-1.66 2.24-1.61 2.39-1.5 2.59-1.36 2.75-1.27 2.81-1.21 2.69-1.2 2.51-1.53 2.63m56.37-57.56-2.26.97-3.4.8-4.99.94-5.39 1.02-4.81 1.07-3.83 1.09-2.92 1.11-2.25 1.13L-52.3-78l-1.84 1.31-2.15 1.44-2.86 1.6-3.96 1.74-5.23 1.84-6.42 1.87-7.31 1.85-7.79 1.81-7.79 1.81-7.21 1.88-5.99 1.94-4.89 1.85-5.99 1.74" filter="url(#a)"/><path d="m-19.29-87.21-10.15.82-2.81 1-.74.99-.98 1.03-1.95 1.1-2.79 1.19-3.2 1.28-3.31 1.37-3.52 1.47-4.11 1.58-5.12 1.64-6.24 1.67-6.88 1.68-6.6 1.67-5.38 1.71-3.72 1.8-2.5 1.93-2.42 2.05-3.51 2.1-4.97 2.09-5.67 1.98-5.23 1.9-5.71 2.09" filter="url(#a)"/><path d="m-19.29-87.21-2.57.83-2.73 1.01-2.58 1-2.34 1.05-2.21 1.13-2.21 1.21-2.34 1.31-2.52 1.4-2.67 1.5-2.69 1.59-2.57 1.65-2.31 1.69-1.98 1.7-1.71 1.74-1.56 1.79-1.54 1.86-1.68 1.94-1.88 2.01-2.1 2.05-2.24 2.06-2.29 2.06-2.2 2.07-2.07 2.11-1.96 2.21-1.99 2.38-2.15 2.6-2.36 2.81-2.34 2.88-1.85 2.64-1.26 2.17" filter="url(#a)"/><path d="m-19.29-87.21-2.49.82-2.47 1.01-2.32.99-2.45 1.03-2.73 1.11-2.96 1.19-3.01 1.28-2.88 1.38-2.72 1.48-2.6 1.58-2.56 1.64-2.6 1.67-2.64 1.68-2.64 1.69-2.56 1.73-2.44 1.81-2.31 1.93-2.22 2.03-2.15 2.09-2.09 2.08-2.02 2.03-2.05 2.01-2.32 2.11-2.53 2.43" filter="url(#a)"/><path d="m-23.45-85.83-1.91.3-4.92.93-4.92 1.07-3.93 1.09-3.37 1.11-3.43 1.12-3.78 1.16-4.04 1.23-4.03 1.35-3.72 1.49-3.16 1.64-2.49 1.75-1.83 1.83-1.36 1.87-1.22 1.87-1.48 1.88-2.1 1.91-2.87 1.97-3.6 2.05-4.11 2.15-4.46 2.23-4.89 2.29-5.56 2.3-6.36 2.24-6.59 2.19-5.13 2.22-1.43 2.23" filter="url(#a)"/><path d="m-23.45-85.83-2.21.3-3.11.94-2.85 1.07-2.78 1.1-2.63 1.11-2.32 1.13-2 1.17-1.83 1.25-1.83 1.36-1.93 1.51-2.06 1.65-2.2 1.75-2.34 1.83-2.51 1.87-2.72 1.89-2.97 1.9-3.28 1.94-3.64 1.99-4.02 2.07-4.37 2.16-4.62 2.22-4.72 2.27-4.54 2.28L-95-46.8l-3.33 2.26-2.51 2.27-1.88 2.3-1.69 2.3-1.98 2.21-2.42 1.87" filter="url(#a)"/><path d="m-25-85.05-4.76.83-2.36.89-3.29 1.11-3.87 1.22-3.51 1.3-2.84 1.39-2.37 1.5-2.26 1.61-2.37 1.66-2.58 1.69-2.8 1.69-3.08 1.7-3.34 1.76-3.64 1.84-3.97 1.93-4.42 2.02-5.04 2.06-5.73 2.06-6.36 2.03-6.8 2.01-6.95 1.99-6.82 2.05-6.13 2.21-4.9 2.53-6.3 2.58" filter="url(#a)"/><path d="m-26.52-84.35-5.7.98-5.71 1.03-3.33 1.11-1.85 1.11-1.41 1.15-1.46 1.23-1.64 1.36-1.87 1.52-2.3 1.66-3.01 1.78-3.83 1.85-4.56 1.88-4.98 1.89-5.09 1.9-4.94 1.94-4.73 2-4.59 2.07-4.52 2.15-4.42 2.23-4.18 2.26-3.8 2.28-3.45 2.27-3.53 2.26-4.25 2.27-5.25 2.31-5.67 2.34-4.76 2.41-2.99 2.64-3.26 3.56" filter="url(#a)"/><path d="m-27.09-84.03-3.61 1.66-2.89 1.42-2.54 1.31-2.57 1.36-2.76 1.5-2.78 1.63-2.57 1.69-2.29 1.7-2.1 1.68-2.14 1.69-2.46 1.74-2.92 1.84-3.37 1.94-3.61 2.02-3.56 2.06-3.29 2.06-2.95 2.02-2.77 1.99-2.78 1.99-2.84 2.04-2.72 2.2-2.71 2.53-2.9 2.57" filter="url(#a)"/><path d="m-29.77-82.7-3.56 1.51-2.61 1.16-2.01 1.11-2 1.2-2.2 1.36-2.37 1.55-2.45 1.7-2.48 1.82-2.55 1.88-2.72 1.89-2.98 1.9-3.23 1.92-3.35 1.95-3.33 2.02-3.19 2.09-3.02 2.17-2.92 2.22-2.87 2.26-2.84 2.28-2.74 2.28-2.53 2.3-2.26 2.31-2.06 2.36-2.02 2.42-2.23 2.49-2.54 2.58-2.66 2.61-2.33 2.6-1.83 2.59-2.29 2.94-4.38 4.45" filter="url(#a)"/><path d="m-31.54-82.07-2.49 1.28-3.47 1.24-2.8 1.33-2.15 1.51-2.19 1.66-2.7 1.73-3.38 1.71-4.02 1.71-4.48 1.71-4.63 1.78-4.46 1.87-4.08 1.95-3.64 2.02-3.32 2.06-3.19 2.06-3.23 2.07-3.4 2.08-3.61 2.13-3.93 2.24-4.44 2.41-5.18 2.57-5.98 2.71-6.5 2.75-6.28 2.67-4.99 2.53-3.2 2.43-5.63 2.35" filter="url(#a)"/><path d="m-33.23-80.82-7.79.93-3.7.99-.17 1.15.27 1.34-1.1 1.55-3.13 1.72-4.93 1.84-5.94 1.89-6.01 1.9-5.5 1.89-4.86 1.89-4.42 1.94-4.25 2-4.22 2.09-4.23 2.16-4.21 2.22-4.16 2.26-4 2.28-3.71 2.27-3.38 2.27-3.2 2.29-3.41 2.33-4.1 2.39-5.03 2.49-5.66 2.63-5.55 2.73-5.38 2.62-8.12 1.94" filter="url(#a)"/><path d="m-33.12-80.86-5.69 1.39-3.81 1.25-2.1 1.52-1.89 1.72-2.07 1.77-2.23 1.73-2.47 1.72-2.96 1.73-3.64 1.8-4.37 1.89-4.86 1.97-4.89 2.04-4.35 2.06-3.34 2.09-2.13 2.1-1.18 2.14-.83 2.22-1.26 2.31-2.3 2.43-3.6 2.54-4.76 2.61-5.51 2.62-5.81 2.57-5.76 2.51-5.45 2.42-4.95 2.38-4.24 2.39-3.47 2.46-3.11 2.58-3.49 2.67-3.75 2.85-.89 3.3" filter="url(#a)"/><path d="m-35.76-78.89-3.01.63-4.05 1.49-3.89 1.8-3.89 1.81-3.7 1.75-3.26 1.71-2.79 1.72-2.5 1.79-2.41 1.89-2.41 1.98-2.37 2.04-2.3 2.08-2.27 2.08-2.41 2.11-2.78 2.14-3.34 2.22-4 2.32-4.58 2.44-4.91 2.53-4.77 2.6-4.08 2.62-2.97 2.57-1.81 2.5-1.15 2.43-1.38 2.4-2.49 2.41-3.98 2.49-5.12 2.6-5.34 2.76-4.57 3-3.59 3.43-3.93 4.11" filter="url(#a)"/><path d="m-35.64-79.03-4.24 1.19-3.43 1.34-2.11 1.56-2.21 1.77-2.86 1.89-3.36 1.93-3.47 1.91-3.34 1.87-3.27 1.86-3.5 1.91-3.98 1.98-4.43 2.07-4.52 2.16-4.15 2.22-3.47 2.27-2.82 2.26-2.49 2.26-2.62 2.24-3.01 2.26-3.27 2.28-3.09 2.33-2.45 2.39-2.37 2.63-5.72 3.54" filter="url(#a)"/><path d="m-37.65-77.8-3.25 1.26-2.52 1.57-3.22 1.8-3.68 1.94-3.86 1.96-3.91 1.92-3.85 1.86-3.68 1.86-3.45 1.91-3.14 1.98-2.69 2.08-2.16 2.16-1.71 2.23-1.51 2.26-1.65 2.27-2.04 2.26-2.47 2.25-2.73 2.26-2.88 2.3-3.24 2.36-4.08 2.46-5.31 2.66-6.37 2.95-6.84 2.94" filter="url(#a)"/><path d="m-37.81-77.53-4.18 2.6-4.24 1.95-3.93 1.71-3.52 1.61-3.14 1.63-2.79 1.73-2.62 1.86-2.82 1.98-3.32 2.05-3.88 2.07-4.25 2.06-4.31 2.05-4.08 2.05-3.71 2.11-3.38 2.23-3.34 2.4-3.77 2.58-4.58 2.71-5.3 2.74-5.24 2.65-4.21 2.5-2.94 2.42-2.97 2.33" filter="url(#a)"/><path d="m-37.81-77.53-3.85 2.62-3.25 1.96-3.46 1.72-3.59 1.64-3.35 1.67-3.15 1.76-3.4 1.89-4.11 2-4.96 2.07-5.57 2.08-5.71 2.09-5.26 2.09-4.36 2.13-3.3 2.21-2.38 2.32-1.84 2.44-1.72 2.54-1.9 2.61-2.26 2.61-2.68 2.57-3.24 2.5-3.94 2.42-4.77 2.39-5.48 2.4-5.79 2.48-5.47 2.6-4.6 2.76-3.94 2.99-4.79 3.43-7.66 4.1m119.05-70.23-2.6 1.66-2.76 1.9-2.43 2.02-2.04 2.02-1.81 1.94-1.71 1.9-1.67 1.9-1.68 1.95-1.75 2.04-1.81 2.13-1.82 2.2-1.73 2.25-1.59 2.28-1.42 2.3-1.28 2.32-1.22 2.33-1.22 2.36-1.24 2.42-1.26 2.46-1.25 2.53-1.23 2.59-1.2 2.64-1.19 2.68-1.22 2.72-1.28 2.75-1.35 2.77-1.4 2.78-1.4 2.77-1.32 2.78-1.14 2.81-.89 2.84-.6 2.91-.27 2.96.06 2.95.3 2.73.11 2.02" filter="url(#a)"/><path d="m-40.99-75.22-1.19 2.05.35 2.05-.22 2.06-1.39 1.94-2.06 1.85-2.08 1.84-1.71 1.9-1.25 2.01-.83 2.1-.44 2.19-.07 2.24.28 2.27.57 2.27.71 2.27.67 2.28.54 2.31.35 2.34.15 2.42.02 2.49-.06 2.56-.02 2.6.02 2.62.02 2.68.02 2.88.45 3.21 1.21 2.81M71.4-19.94l.53 3.39.39 2.53.36 2.55.31 2.67.26 2.77.22 2.83.16 2.85.06 2.83-.06 2.79-.17 2.75-.28 2.73-.36 2.72-.42 2.72-.46 2.73-.5 2.72-.51 2.69-.55 2.64-.58 2.57-.64 2.49-.69 2.44-.76 2.4-.85 2.38-.94 2.37-1.02 2.39-1.1 2.39-1.17 2.4-1.23 2.38-1.29 2.36-1.36 2.34-1.4 2.28-1.46 2.22-1.51 2.12-1.53 2.01-1.54 1.9-1.57 1.83-1.72 1.9-2.32 2.1" filter="url(#a)"/><path d="m-43.62-72.72-1.29 1.62-1.68 2.15-1.32 1.96-.95 1.8-.78 1.81-.71 1.89-.65 2-.51 2.1-.2 2.2.33 2.24 1 2.28 1.61 2.27 1.9 2.27 1.78 2.27 1.38 2.3.89 2.34.52 2.42.25 2.48-.03 2.56-.3 2.6-.34 2.62.16 2.67 1.14 2.88 2.28 3.21 4.37 2.8m-9.33-57.2-5.4 3.35-3.93 2.06-2.65 1.76-2.44 1.79-2.52 1.92-2.38 2.05-2.08 2.15-1.96 2.23-2.16 2.28-2.61 2.3-3.02 2.31-3.16 2.31-2.98 2.33-2.61 2.37-2.24 2.42-2.02 2.48-2.02 2.53-2.18 2.6-2.46 2.64-2.79 2.69-3.12 2.72-3.44 2.75-3.7 2.77-3.86 2.78-3.97 2.78-3.99 2.8-3.92 2.81-3.74 2.84-3.47 2.87-3.21 2.87-3.07 2.82-2.94 2.75-2.36 2.68-.96 2.74.53 2.95.5 2.91" filter="url(#a)"/><path d="m-44.1-72.18-3.3 3.32-2.15 2.04-2.01 1.72-2.59 1.74-3.76 1.87-5.14 2-6.14 2.11-6.2 2.2-5.2 2.25-3.5 2.27-1.77 2.27-.74 2.25-.81 2.26-1.91 2.28-3.46 2.33-4.76 2.4-5.26 2.48-4.9 2.56-4.15 2.6-3.6 2.56-3.5 2.55-3.86 2.92-5.92 4.42" filter="url(#a)"/><path d="m-46.89-69.43-15.86 1.53-2.33 1.74-1.58 1.97-.91 2.13.25 2.17.79 2.13.49 2.11-.35 2.1-1.49 2.15-2.69 2.25-3.86 2.36-4.81 2.47-5.41 2.57-5.56 2.6-5.24 2.59-4.57 2.56-3.68 2.52-2.83 2.5-2.19 2.5-1.82 2.55-1.65 2.62-1.6 2.71-1.59 2.81-1.67 2.87-1.92 2.89-2.41 2.86-3.08 2.79-3.84 2.71-4.53 2.64-5.08 2.62-5.43 2.59-5.43 2.56-4.73 2.56-2.93 2.7-.28 3.16 2.94 3.88" filter="url(#a)"/><path d="m-50.55-65.85-3.77 1.51-2.93 2.3-3.72 2.28-3.77 2.16-2.99 2.08-1.95 2.07-1.18 2.12-.94 2.23-1.2 2.36-1.76 2.5-2.38 2.58-2.83 2.62-2.96 2.61-2.76 2.56-2.34 2.52-1.81 2.48-1.29 2.5-.86 2.54-.6 2.62-.52 2.72-.64 2.81-.94 2.87-1.28 2.88-1.59 2.85-1.74 2.79-1.76 2.7-1.69 2.65-1.63 2.61-1.67 2.59-1.72 2.59-1.6 2.61-1.11 2.71-.57 2.92-1 2.96-3.68 2.12" filter="url(#a)"/><path d="m-51.48-64.71-.55 1.42-.66 1.94-.37 2.12-.16 2.21.07 2.27.32 2.32.45 2.32.38 2.31.12 2.31-.22 2.32-.54 2.36-.73 2.42-.74 2.48-.6 2.54-.4 2.6-.29 2.66-.32 2.69-.44 2.73-.6 2.75-.65 2.76-.53 2.78-.26 2.79.07 2.79.42 2.82.72 2.83.99 2.85 1.25 2.84 1.53 2.82 1.78 2.76 1.94 2.72 1.96 2.7 1.84 2.7 1.8 2.61 2 2.42 1.64 2.38M71.47-20.12l.78 2.3 1.86 2.37 1.86 2.72 1.18 2.82.63 2.78.51 2.77.83 2.77 1.44 2.77 2.18 2.78 2.87 2.79 3.34 2.8 3.4 2.82 3.03 2.82 2.38 2.78 1.73 2.7 1.4 2.59 1.52 2.49 2.01 2.39 2.53 2.34 2.76 2.35 2.42 2.39 1.57 2.44.39 2.49-.76 2.51-1.65 2.5-2.08 2.44-2 2.36-1.43 2.27-.44 2.19.7 2.15 1.29 2.13.52 2.15-1.63 2.29-3.36 3.11" filter="url(#a)"/><path d="m-51.85-63.65-2.9 2.17-1.77 2.24-1.59 2.21-1.67 2.27-1.68 2.32-1.64 2.32-1.55 2.29-1.45 2.29-1.35 2.29-1.31 2.34-1.32 2.39-1.39 2.46-1.46 2.53-1.49 2.58-1.49 2.64-1.44 2.68-1.33 2.71-1.16 2.74-.96 2.76-.82 2.76-.79 2.75-.88 2.77-1.02 2.78-1.07 2.82-.92 2.9-.65 2.95-.48 2.92-.71 2.71-1.36 2" filter="url(#a)"/><path d="m-51.85-63.65-3.38 2.18-2.38 2.25-2.08 2.22-2.71 2.28-3.2 2.33-3.07 2.32-2.5 2.31-1.98 2.3-1.88 2.31-2.24 2.35-2.76 2.41-3.08 2.48-2.98 2.54-2.46 2.6-1.77 2.65-1.22 2.69-.94 2.73-.94 2.74-1.08 2.77-1.19 2.77-1.25 2.78-1.27 2.79-1.34 2.81-1.53 2.83-1.9 2.85-2.42 2.85-2.95 2.81-3.3 2.76-3.21 2.7-2.66 2.71-1.9 2.75-1.46 2.64-2.81 2.08" filter="url(#a)"/><path d="m-55.39-58.86-1.64 1.56-2.73 1.93-4.09 1.97-4.83 2.01-4.77 2.13-3.98 2.32-2.74 2.5-1.55 2.63-.91 2.67-1.08 2.63-1.94 2.54-3.12 2.44-4.14 2.38-4.71 2.36-4.81 2.41-4.7 2.5-4.57 2.63-4.38 2.81-3.82 3-2.89 3.18-2.43 3.17-3.7 2.68-6.29 1.31" filter="url(#a)"/><path d="m-55.67-58.22-9.99 1.37.45 2.13.69 2.38-1.11 2.36-2.78 2.29-3.65 2.25-3.54 2.27-2.68 2.32-1.57 2.38-.75 2.45-.61 2.52-1.18 2.59-2.15 2.63-3.03 2.67-3.34 2.71-2.98 2.73-2.17 2.75-1.47 2.75-1.39 2.74-2.04 2.74-2.97 2.76-3.55 2.81-3.32 2.9-2.48 3-2.37 3.07-4.98 3.33" filter="url(#a)"/><path d="m-56.65-57.89-4.41 2.57-1 2.02-1.15 2.01-2.03 2.14-3.2 2.34-4.6 2.53-5.84 2.67-6.31 2.69-5.66 2.63-4.13 2.54-2.37 2.46-1.08 2.41-.69 2.41-1.15 2.46-2.15 2.57-3.23 2.69-4.11 2.82-4.72 2.92-5 2.96-4.82 2.9-3.86 2.74-2.24 2.59-.85 2.55-1.12 2.68-3.19 2.85-3.57 2.46" filter="url(#a)"/><path d="m-58.56-54.39-3.55 1.28-3.03 1.9-1.61 2.14-1.55 2.38-2.11 2.59-2.63 2.71-2.85 2.72-2.67 2.65-2.13 2.55-1.44 2.48-.88 2.45-.61 2.47-.64 2.53-.88 2.63-1.11 2.73-1.21 2.82-1.13 2.87-.93 2.87-.71 2.84-.57 2.77-.58 2.7-.74 2.64-.99 2.62-1.3 2.6-1.55 2.62-1.74 2.66-1.86 2.71-1.93 2.77-1.88 2.8-1.52 2.74-.71 2.65-.12 2.6-1.78 2.76" filter="url(#a)"/><path d="m-57.75-55.32-5.78 3.21-1.46 2.48-.83 2.25-1.65 2.22-3.22 2.27-4.53 2.34-4.65 2.42-3.52 2.5-1.8 2.56-.3 2.62.5 2.67.49 2.71-.12 2.74-1.09 2.75-2.17 2.77-3.19 2.78-4.03 2.79-4.54 2.8-4.67 2.81-4.45 2.83-3.98 2.83-3.46 2.82-3.03 2.8-2.76 2.75-2.63 2.72-2.56 2.68-2.49 2.64-2.44 2.62-2.53 2.61-2.82 2.65-3.1 2.71-3.04 2.69-2.81 2.23-2.99 1.05M71.1-21.61l.45 2.35.98 2.6 1.87 2.55 2.35 2.58 1.99 2.67 1.17 2.76.48 2.81.21 2.83.29 2.82.52 2.78.69 2.76.76 2.72.79 2.72.79 2.72.76 2.73.68 2.72.54 2.69.37 2.64.24 2.57.23 2.5.32 2.43.49 2.38.58 2.37.54 2.37.32 2.38-.02 2.4-.31 2.4-.41 2.39-.27 2.38-.01 2.35.06 2.32-.35 2.27-1.15 2.2-1.64 2.05-1.45 1.6" filter="url(#a)"/><path d="m-60.05-51.33-4.14 1.99-5.8 2.05-3.2 2.13-.85 2.24-.13 2.31-.68 2.4-1.73 2.48-2.63 2.54-3.03 2.61-2.96 2.65-2.73 2.69-2.7 2.71-3.02 2.74-3.48 2.76-3.72 2.75-3.4 2.76-2.53 2.77-1.51 2.78-.92 2.82-1.18 2.85-2.19 2.85-3.22 2.79-3.39 2.72-2.54 2.65-1.66 2.71-2 2.92-3.61 2.89m68.91-70.3-2.11 2.05-1.54 2.2-1.7 2.62-1.75 2.82-1.51 2.79-1.2 2.66-1.02 2.52-1.14 2.42-1.48 2.38-1.81 2.39-1.94 2.46-1.79 2.58-1.43 2.7-1.04 2.83-.79 2.91-.68 2.92-.66 2.86-.58 2.75-.44 2.63-.27 2.58-.19 2.6-.29 2.59-.64 2.46-1.12 2.22-1.07 2.07" filter="url(#a)"/><path d="m-60.09-51.07-3.16 2.06-1.97 2.2-2.96 2.63-3.33 2.82-2.62 2.79-1.65 2.66-1.24 2.53-1.55 2.42-2.37 2.38-3.36 2.4-4.24 2.48-4.9 2.59-5.23 2.71-5.19 2.83-4.78 2.9-4.06 2.91-3.2 2.85-2.47 2.75-2.19 2.65-2.48 2.59-3.06 2.59-3.36 2.56-3.21 2.5-3.49 2.4-5.23 2.48-7.74 3.06m84.54-59.22-2.15 2.27-3.81 2.39-2.56 2.51-1.06 2.61-.5 2.68-.65 2.7-1.08 2.73-1.48 2.75-1.76 2.78-1.88 2.78-1.83 2.79-1.6 2.8-1.2 2.8-.75 2.82-.29 2.83.07 2.83.28 2.81.31 2.79.21 2.75.02 2.71-.2 2.68-.37 2.66-.43 2.64-.39 2.64-.26 2.63-.09 2.63.03 2.63.07 2.64.02 2.66v2.69l.15 2.7.5 2.62.9 2.4 1 2.06.68 1.84.93 2.39M70.63-24.22l1.91 3.41.19 2.7.15 2.62.54 2.73 1 2.78L75.8-7.2l1.56 2.77 1.5 2.77 1.24 2.78.87 2.78.48 2.79.08 2.81-.25 2.82-.51 2.82-.68 2.77-.69 2.7-.58 2.6-.4 2.49-.19 2.4-.06 2.35-.08 2.36-.25 2.38-.56 2.45-.88 2.49-1.14 2.51-1.23 2.5-1.14 2.44-.93 2.36-.69 2.27-.58 2.2-.65 2.15-.91 2.13-1.35 2.15-1.95 2.3-2.97 3.11" filter="url(#a)"/><path d="m70.63-24.22.85 3.41 1.27 2.7 1.81 2.62 2.03 2.72 1.88 2.78 1.55 2.78 1.2 2.76.91 2.77.76 2.78.72 2.78.75 2.79.78 2.8.76 2.82.67 2.82.53 2.78.42 2.7.34 2.6.32 2.48.34 2.39.38 2.35.38 2.34.34 2.39.22 2.44.01 2.5-.27 2.52-.59 2.5-.86 2.45-1 2.36-.99 2.27-.95 2.19-1 2.13-1.24 2.1-1.26 2.01-.04 1.3" filter="url(#a)"/><path d="m70.63-24.22 1.17 3.37.54 2.65.75 2.56 1.28 2.68 1.81 2.74 1.96 2.73 1.53 2.72.73 2.72-.08 2.74-.52 2.72-.48 2.72v2.74l.73 2.78 1.48 2.86 2.04 2.88 2.24 2.82 1.94 2.67 1.21 2.44.3 2.24-.47 2.02-.86 1.68-.4 1.55M-65.44-40.36l-8.61 2.47-1.71 2.46-.19 2.6.06 2.68-.15 2.68-.75 2.69-1.54 2.73-2.16 2.75-2.39 2.76-2.19 2.75-1.87 2.76-1.82 2.77-2.21 2.78-2.94 2.82-3.63 2.82-3.87 2.81-3.44 2.78-2.46 2.73-1.31 2.68-.55 2.65-.59 2.62-1.38 2.57-2.4 2.5-3.15 2.55-3.82 2.94-4.83 4.15" filter="url(#a)"/><path d="m-66.82-36.77-3.42 1.95-3.73 2.17-2.82 2.23-2.09 2.25-1.31 2.33-.55 2.44-.02 2.6.21 2.74.12 2.87-.14 2.92-.43 2.92-.67 2.83-.81 2.72-.9 2.63-.91 2.57-.88 2.56-.84 2.55-.87 2.53-1.02 2.57-1.21 2.68-1.3 2.89-1.43 2.91-2.71 2.08m28.18-59.87-.31 2.31-.44 2.57-.21 2.7.24 2.68.79 2.66 1.35 2.7 1.75 2.74 1.79 2.75 1.4 2.74.73 2.72.03 2.74-.4 2.77-.48 2.79-.22 2.83.27 2.82.91 2.77 1.5 2.69 1.85 2.65 1.81 2.66 1.52 2.72 1.25 2.6 1.86 2.03" filter="url(#a)"/><path d="m-67.48-34.87-1.64 2.26-2.36 2.33-2.28 2.28-1.65 2.34-.88 2.49-.37 2.65-.16 2.8-.13 2.9-.16 2.94-.2 2.91-.26 2.83-.35 2.74-.46 2.67-.57 2.62-.66 2.6-.67 2.61-.62 2.62-.54 2.66-.48 2.7-.45 2.71-.44 2.71-.38 2.68-.25 2.62-.07 2.59.09 2.59.14 2.63.12 2.71.18 2.71.25 2.54-.05 2.24" filter="url(#a)"/><path d="m-67.48-34.87-1.46 2.27-2.68 2.33-2.37 2.29-1.87 2.36-1.84 2.5-2.18 2.66-2.65 2.81-2.97 2.91-2.94 2.94-2.58 2.91-2.02 2.83-1.62 2.75-1.66 2.67L-98.56 2l-3.18 2.62-4.03 2.62-4.36 2.64-3.86 2.67-2.57 2.69-.82 2.71.85 2.7 1.96 2.68 2.22 2.64 1.59 2.62.29 2.62-1.33 2.61-2.82 2.62-3.8 2.58-3.98 2.51-3.3 2.4-1.99 2.36-.64 2.29-1.41 1.43" filter="url(#a)"/><path d="m-67.22-35.22-.76 2.41-1.02 2.85-1.2 2.73-1.24 2.67-1.24 2.72-1.43 2.77-1.89 2.78-2.53 2.76-3.05 2.76L-84.84-8l-3.05 2.79-2.61 2.82-2.1 2.82-1.71 2.81-1.48 2.77-1.39 2.73-1.39 2.68-1.5 2.65-1.64 2.62-1.69 2.6-1.49 2.59-1 2.62-.5 2.65-.44 2.61-1 2.44-1.56 2.33-.88 3.31m43.05-73.06L-70-32.83l-4.2 2.84-3.7 2.72-3.11 2.66-2.82 2.71-2.32 2.75-1.63 2.76-1.15 2.75-1.26 2.75-2.02 2.75-3.23 2.78-4.47 2.8-5.31 2.82-5.39 2.81-4.61 2.77-3.09 2.71-1.32 2.67.11 2.65.62 2.61-.02 2.55-1.43 2.49-2.56 2.54-1.82 2.94 1.87 4.14" filter="url(#a)"/><path d="m-67.68-33.59-1.55 3.74-2.51 2.8-2.91 2.62-2.39 2.71-1.77 2.78-1.48 2.8-1.47 2.77-1.54 2.77-1.52 2.77-1.25 2.8-.76 2.83-.12 2.82.49 2.81.88 2.77.98 2.73.77 2.69.33 2.66-.2 2.63-.76 2.61-1.23 2.61-1.51 2.62-1.47 2.61-1.1 2.61-.53 2.59.01 2.61.3 2.71.37 2.87.6 3 1.05 3.09" filter="url(#a)"/><path d="m-68.99-28.91-6.54 2.24-.97 2.34.56 2.67.07 2.82-.76 2.82-1.22 2.77-1.32 2.77-1.32 2.78-1.46 2.8-1.81 2.83-2.29 2.83-2.76 2.81-3.02 2.77-2.95 2.73-2.57 2.69-1.97 2.66-1.33 2.63-.8 2.62-.42 2.62-.13 2.61.15 2.62.43 2.61.65 2.62.62 2.65.21 2.69-.65 2.74-1.92 2.68-3.13 2.42-3.3 1.84-1.29.99M70.61-23.39l1.73 1.91.24 2.32.32 2.48.64 2.53.96 2.59 1.3 2.68 1.66 2.75 1.95 2.8L81.45-.5l1.88 2.81 1.44 2.79.86 2.76.25 2.73-.24 2.73-.57 2.72-.67 2.73-.59 2.72-.37 2.7-.09 2.64.12 2.57.18 2.5.04 2.44-.27 2.39-.63 2.38-.88 2.38-.91 2.39-.66 2.39-.24 2.4.16 2.39.34 2.38.09 2.34-.56 2.31-1.4 2.25-1.9 2.16-1.56 2.01-.63 1.79-.93 1.57m-3.77-94.32 1.64 2.62 1.77 2.8 3.36 2.65 4.16 2.63 3.57 2.69 2.55 2.72 2.03 2.72 2.21 2.72 2.69 2.72L97 .56l3.16 2.72L103.1 6l2.54 2.73 2.08 2.78 1.62 2.86 1.21 2.91 1.04 2.86 1.16 2.69 1.48 2.46 1.59 2.28 1.2 2.14 1.59.83" filter="url(#a)"/><path d="m69.6-27.88 1.58 3.43 1.56 2.62 1.58 2.46 1.96 2.47 2.37 2.49 2.53 2.55 2.3 2.62 1.72 2.69.96 2.76.35 2.79.13 2.79.45 2.77 1.21 2.72 2.11 2.67 2.81 2.66 3.06 2.66 2.81 2.7 2.2 2.76 1.62 2.8 1.42 2.76 1.76 2.67 2.25 2.5 2.08 2.11 1.52 1.23M69.6-27.88l.1 3.47-.87 2.65-.62 2.51-.06 2.5.21 2.55.09 2.6-.15 2.67-.29 2.74-.27 2.8-.16 2.81-.07 2.81-.08 2.79-.21 2.76-.39 2.73-.6 2.73-.73 2.73-.8 2.73-.78 2.72-.75 2.69-.7 2.65-.72 2.57-.78 2.5-.88 2.44-1.01 2.4-1.14 2.37-1.29 2.38-1.45 2.39-1.63 2.4-1.78 2.4L49.92 51l-1.85 2.38-1.72 2.36-1.53 2.32-1.37 2.28-1.33 2.2-1.46 2.05-1.33 1.61m29.58-96.72 12.07 3.43-.6 3.05v2.85l1.57 2.73 1.51 2.69.84 2.71.87 2.73 1.82 2.74 3.22 2.74 4.43 2.75L99.65.64l4.86 2.75 4.14 2.75 3.26 2.77 2.58 2.81 2.32 2.85 2.47 2.84 2.8 2.79 3.03 2.65 2.94 2.46 2.42 2.27 1.48 2.14.49 2.09.29 2.23 1.93 2.6 6.95 2.84" filter="url(#a)"/><path d="M68.91-30.52 71-27.05l1.27 3.07 1.26 2.89 1.64 2.75 2.15 2.73 2.45 2.75 2.38 2.76 2.01 2.77 1.59 2.78 1.34 2.78 1.43 2.78L90.3 3.8l2.27 2.79L95.2 9.4l2.67 2.82 2.32 2.82 1.61 2.77.77 2.7.02 2.6-.36 2.5-.25 2.41.31 2.37 1.18 2.37 2.04 2.39 2.62 2.45 2.72 2.49 2.33 2.51 1.6 2.5.88 2.44.4 2.37.26 2.28.24 2.21-.15 2.15-1.16 2.13-2.31 2.16-2.53 2.29-2.8 3.12" filter="url(#a)"/><path d="m69.32-29.66 4.4 2.42 4.5 2.73 4.61 2.62 4.21 2.54 2.3 2.53.14 2.55-1.11 2.6L87.05-9l-1.03 2.73-.69 2.79-.45 2.8-.19 2.81.21 2.78.84 2.76 1.63 2.74 2.48 2.72 3.23 2.73 3.76 2.73 3.87 2.72 3.52 2.7 2.72 2.65 1.7 2.58.77 2.5.2 2.43.12 2.39.4 2.37.81 2.37 1.14 2.38 1.3 2.41 1.28 2.41 1.07 2.4.62 2.38-.03 2.36-.67 2.34-1.09 2.26-1.41 2m-43.84-91.9.4 2.41.46 2.73.43 2.61.32 2.53.2 2.52.13 2.54.11 2.6.1 2.66.05 2.72-.06 2.78-.21 2.8-.35 2.8-.44 2.78-.49 2.75-.48 2.73-.48 2.72-.48 2.72-.5 2.72-.55 2.73-.59 2.71-.62 2.67-.62 2.58-.64 2.49-.69 2.41-.77 2.36-.92 2.34-1.1 2.36-1.26 2.39-1.37 2.41-1.39 2.43-1.35 2.4-1.33 2.32-1.55 2.34" filter="url(#a)"/><path d="m68.2-32.23.64 2.33.59 2.88.47 2.93.28 2.85.05 2.77-.21 2.74-.44 2.75-.62 2.75-.75 2.77-.8 2.76-.84 2.77-.85 2.78-.85 2.78-.77 2.79-.65 2.8-.44 2.82-.25 2.82-.13 2.78-.15 2.72-.34 2.61-.66 2.49-1.02 2.39-1.35 2.33-1.57 2.33-1.69 2.36-1.71 2.45-1.68 2.52-1.56 2.57-1.41 2.55-1.29 2.48-1.34 2.38-1.54 2.29-1.73 2.19-2.14 1.88" filter="url(#a)"/><path d="m68.05-33.28 1.43 3.07 1.24 2.82 1.4 2.73 2.09 2.62 2.67 2.55 2.59 2.54 1.86 2.55.82 2.59-.12 2.65-.7 2.72-.83 2.77-.61 2.8-.24 2.79.14 2.78.41 2.75.51 2.72.46 2.71.31 2.72.12 2.73.02 2.74.04 2.72.24 2.67.56 2.6.91 2.49 1.08 2.39.97 2.33.47 2.32-.23 2.35-.74 2.39-.66 2.43-.1 2.52-.25 2.83" filter="url(#a)"/><path d="m67.6-35.18 1.16 2.62 3.58 2.66 4.24 2.83 2.43 2.87.46 2.83-.14 2.77.75 2.75 2.47 2.74 4.18 2.75 5.2 2.76 5.24 2.76 4.46 2.77 3.26 2.76 2.23 2.78 1.69 2.78 1.72 2.8 2.04 2.82 2.29 2.83 2.23 2.8 1.84 2.74 1.33 2.62.94 2.48.74 2.37.72 2.28.8 2.27 1.11 2.33 1.75 2.45 2.61 2.57 3.07 2.65 2.5 2.66.83 2.48-2.32 1.66" filter="url(#a)"/><path d="m67.53-35.05 3.25 2.21 1.47 2.62 1.05 2.71.8 2.68.59 2.6.49 2.56.48 2.52.55 2.54.67 2.57.85 2.63 1.1 2.7 1.37 2.75 1.64 2.78 1.87 2.79 2.05 2.78 2.07 2.73 1.94 2.7 1.63 2.67 1.27 2.68 1 2.72.89 2.77.87 2.8.76 2.78.4 2.68.01 2.51-.03 2.13.91 1.24" filter="url(#a)"/><path d="M66.99-36.82 68-34.85l1.08 2.37 1.01 2.62 1.36 2.78 2.12 2.83 2.92 2.82 3.29 2.78 3.06 2.76 2.46 2.76 1.87 2.76 1.56 2.77 1.49 2.77 1.45 2.77L92.92.71l.81 2.79.25 2.79-.22 2.81-.41 2.82-.25 2.82.23 2.79.86 2.72 1.52 2.62 2.08 2.5 2.47 2.39 2.69 2.32 2.71 2.32 2.49 2.36 2.06 2.45 1.48 2.54.92 2.59.64 2.57.53 2.5.01 2.37-1.63 2.34-3.06 2.48M65.38-40.79l2.44 4.31 2.44 3.18 2.08 2.85 2.32 2.75 2.8 2.68 2.87 2.6 2.4 2.55 1.87 2.52 1.7 2.52 2.03 2.56 2.57 2.61 2.89 2.67 2.81 2.74L99-1.47l2.02 2.8 1.99 2.77 2.41 2.73 3.05 2.67 3.55 2.62 3.6 2.59 3.06 2.67 2.35 2.89 3.05 3.06 7.76 2.25M64.67-42.06l2.66 2.4 5.96 3.13 7.07 3.04 7.17 2.88 6.49 2.78 5.01 2.69 3.02 2.62.99 2.57-.5 2.53-.98 2.53-.33 2.56 1.26 2.62 3.24 2.67 5.05 2.74 6.15 2.78 6.27 2.8 5.41 2.78 3.79 2.74 1.87 2.67.08 2.62-1.14 2.6-1.26 2.67.27 2.9 3.23 3.06 5.42 2.26" filter="url(#a)"/><path d="m64.72-41.93 1.83 2.49 3.23 2.26 3.76 2.26 3.14 2.39 1.99 2.55.96 2.69.47 2.76.53 2.77L81.65-19l1.68 2.74 2.23 2.74 2.47 2.74 2.3 2.75 1.83 2.75 1.28 2.75.89 2.75.78 2.75.96 2.76 1.42 2.76 2.1 2.82 2.98 2.87 3.92 2.92 4.71 2.88 5.03 2.73 4.68 2.5 3.79 2.31 2.45 2.17.81.85" filter="url(#a)"/><path d="m63.9-43.8 7.42 1.82 2.06 2.5.63 2.87 1.18 2.92 2 2.86 2.31 2.78 2.11 2.69 1.69 2.61 1.33 2.56 1.24 2.52 1.54 2.5 2.22 2.53 3.07 2.58 3.75 2.65 3.93 2.73 3.49 2.79 2.65 2.82 1.9 2.8 1.7 2.77 2.04 2.75 2.22 2.68 1.57 2.21" filter="url(#a)"/><path d="m63.58-44.29 5.57 2.39 2.41 2.37 1.44 2.3 1.27 2.32 1.16 2.44 1.01 2.57.87 2.69.83 2.75.91 2.78 1.02 2.78 1.13 2.76 1.18 2.77 1.2 2.76 1.22 2.76 1.23 2.77 1.19 2.77.99 2.78.67 2.78.26 2.79-.04 2.81-.12 2.82.14 2.84.64 2.81 1.26 2.75 1.76 2.64 1.96 2.5 1.75 2.37 1.21 2.28.49 2.26-.17 2.32-.46 2.45-.25 2.59.42 2.71.82 2.86-.2 3.2" filter="url(#a)"/><path d="m62.26-47.58 14.37 2.89.11 2.57-.6 2.41.76 2.33 1.92 2.34 3.13 2.43 4.54 2.55 5.7 2.66 5.99 2.72 5.22 2.75 3.73 2.76 2.18 2.75 1.14 2.75.84 2.74 1.17 2.75 1.82 2.75 2.41 2.75 2.64 2.76 2.38 2.75 1.8 2.76 1.3 2.76 1.3 2.81 1.87 2.89 2.68 2.96 3.32 2.93 3.61 2.75 3.96 2.47 5.12 2.49 6.87 4.1" filter="url(#a)"/><path d="m60.98-49.72 3.38 2.35 2.48 2.55 1.72 2.49 1.64 2.4 1.81 2.32 1.97 2.32 2 2.39 1.91 2.5 1.82 2.61 1.91 2.7 2.12 2.73 2.21 2.72 1.97 2.72 1.41 2.71.81 2.72.62 2.7.97 2.69 1.66 2.73 2.2 2.82 2.27 2.89 1.86 2.61 1.86 1.57" filter="url(#a)"/><path d="m59.32-52.63 1.9 1.83 3.03 1.8 2.52 2.03 1.4 2.29.62 2.49.42 2.66.6 2.78.94 2.82 1.28 2.83 1.53 2.79 1.72 2.72 1.83 2.67 1.91 2.62 1.92 2.58 1.8 2.58 1.57 2.59 1.27 2.63.99 2.69.86 2.74.89 2.79 1.04 2.8 1.18 2.8 1.19 2.76 1.08 2.7.93 2.64.87 2.62.9 2.69.95 2.91 1.13 3.08 1.32 2.28" filter="url(#a)"/><path d="m59.32-52.63 1.09 1.83 1.22 1.79 1.34 2.03 1.39 2.27 1.5 2.49 1.68 2.65 1.86 2.77 1.96 2.82 1.96 2.82 1.88 2.79 1.76 2.72 1.61 2.66 1.46 2.61 1.3 2.57 1.18 2.56 1.08 2.58.99 2.62.92 2.68.87 2.74.91 2.79L88.3.97l1.22 2.81 1.42 2.77 1.53 2.7 1.44 2.59 1.06 2.43.54 2.3.91 2.49M59.46-52.55l2.6.82 3.78 1.94 3.74 2.35 3.53 2.47 3.61 2.47 3.75 2.42 3.6 2.37 3.04 2.39 2.34 2.44 1.81 2.53 1.68 2.62 1.91 2.69 2.38 2.73 3.02 2.75 3.83 2.74 4.78 2.73 5.6 2.74 5.94 2.74 5.45 2.74 4.2 2.75 2.62 2.77 1.44 2.76 1.2 2.71 1.78 2.62 2.48 2.6 3.41 2.62 8.13 2.43" filter="url(#a)"/><path d="m57.35-55.89 1.79 2.29 1.84 1.84 1.69 2.06 1.62 2.31 1.79 2.43 2.03 2.45 2.09 2.42 1.92 2.41 1.7 2.42 1.59 2.47 1.6 2.56 1.63 2.63 1.56 2.69 1.37 2.74 1.07 2.75.81 2.75.68 2.76.7 2.75.84 2.76.97 2.76 1.04 2.76.99 2.77.87 2.76.71 2.76.54 2.76.36 2.82.2 2.9.2 3.01.5 3.02 1.09 2.76 1.44 2.06.6.65M56.05-58.09l1.43 1.94 3.09 2.47 5.42 2.3L73-49.2l6.78 2.2 5.05 2.33 2.95 2.49 1.37 2.63.66 2.74.59 2.79.8 2.81 1.05 2.79 1.28 2.73 1.53 2.68 1.84 2.63 2.16 2.61 2.39 2.59 2.42 2.61 2.34 2.65 2.29 2.69 2.46 2.75 2.88 2.78 3.37 2.81 3.57 2.79L124 6.66l2.35 2.72 1.39 2.67 1.04 2.66 1.76 2.72 3.16 2.84 3.94 2.91 2.45 2.72-1.42 2.44" filter="url(#a)"/><path d="m56.75-57.59-3.14 1.95-1.65 1.93 1.36 1.93 2.37 2.11 2.11 2.28L59.3-45l.89 2.43.32 2.42-.19 2.41-.62 2.43-.87 2.49-.92 2.55-.73 2.63-.47 2.69-.21 2.73-.12 2.75-.18 2.76-.39 2.76-.64 2.76-.82 2.76-.94 2.76L52.4-2.9 51.22-.14l-1.53 2.77-2.12 2.76-2.83 2.76-3.43 2.82-3.61 2.91-3.11 3.01-2.04 3.02-.98 2.77-.98 2.06-3.12.65m27.94-84.94 1.79 1.9 2.67 1.94 3.07 1.92 2.47 1.97 1.78 2.11 1.74 2.26 2.4 2.37 3.42 2.4 4.31 2.41 4.85 2.41 5 2.42 4.98 2.47 4.92 2.55 4.78 2.62 4.4 2.68 3.68 2.73 2.68 2.74 1.75 2.75 1.27 2.76 1.48 2.75 2.35 2.75 3.6 2.76 4.82 2.76 5.64 2.77 5.82 2.76 5.22 2.73 4.11 2.68 3.04 2.71 2.58 2.85 1.94 3.24-.07 4.31" filter="url(#a)"/><path d="m55.41-59.55 2.11 1.91 1.79 1.95 2.24 1.93 2.81 1.99 2.98 2.13 2.67 2.28 2.22 2.37 1.97 2.41 2.03 2.43 2.31 2.42 2.59 2.46 2.67 2.5 2.5 2.56 2.1 2.64 1.65 2.69 1.28 2.73 1.09 2.76 1.18 2.76 1.55 2.77 2.14 2.77 2.84 2.77 3.49 2.77 3.88 2.77L111.36 0l3.44 2.78 2.77 2.79 2.14 2.8 1.84 2.84 2.03 2.88 2.63 2.9 3.34 2.86 3.7 2.73 3.28 2.52 1.96 2.31.39 2.09.13 1.73 3.84 1.58" filter="url(#a)"/><path d="m55.41-59.55 1.6 1.9 1.37 1.95 1.46 1.92 1.77 1.97 2.29 2.12 2.86 2.26 3.18 2.36 3.14 2.41 2.76 2.41 2.26 2.41 1.9 2.43 1.89 2.48 2.21 2.55 2.75 2.62 3.26 2.69 3.58 2.72 3.6 2.75 3.36 2.76 2.93 2.75 2.39 2.76 1.85 2.75 1.43 2.76 1.28 2.77 1.42 2.77 1.81 2.76 2.23 2.74 2.45 2.72 2.33 2.76 1.96 2.9 1.42 3.15.47 3.37-2.01 2.96" filter="url(#a)"/><path d="m52.82-62.8 7.73 2.31 4.91 2.17.98 2.25.93 2.28 2.69 2.26 4.32 2.23 5.04 2.27 4.95 2.37 4.34 2.49 3.56 2.62 2.77 2.72 2.08 2.77 1.57 2.8 1.29 2.77 1.25 2.74 1.32 2.69 1.39 2.65 1.34 2.63 1.13 2.61.85 2.63.69 2.67.77 2.7 1.17 2.75 1.81 2.78 2.56 2.8 3.21 2.79 3.66 2.77 3.93 2.73 4.08 2.71 4.3 2.7 4.68 2.75 5.14 2.8 5.22 2.85 4.21 2.84 1.98 2.78-.25 2.76-.19 2.5" filter="url(#a)"/><path d="m51.45-64.32 2.37 1.79 1.39 2.03 1.38 2.14 1.6 2.22 1.71 2.25 1.76 2.24 1.89 2.23 2.16 2.27 2.47 2.36 2.64 2.48 2.59 2.59 2.3 2.7 1.92 2.77 1.56 2.79 1.3 2.77 1.15 2.74 1.04 2.68.97 2.64.87 2.61.76 2.59.64 2.6.54 2.63.5 2.69.54 2.75.66 2.8L89 .86l1.05 2.82 1.28 2.79 1.5 2.71 1.59 2.61 1.28 2.45.57 2.32.26 2.5" filter="url(#a)"/><path d="m51.45-64.32 7.38 1.78 1.02 2.04.18 2.13.3 2.22.54 2.24.83 2.23 1.18 2.23 1.57 2.26 1.98 2.35 2.36 2.46 2.69 2.59 2.89 2.7 2.92 2.76 2.72 2.79 2.29 2.78 1.7 2.73 1.12 2.69.69 2.63.54 2.59.63 2.57.85 2.59 1.07 2.62 1.22 2.67 1.36 2.75 1.56 2.81L94.87.73 97 3.57l2.39 2.81 2.51 2.8 2.15 2.72.48 2.24" filter="url(#a)"/><path d="m50.57-65.46 1.12 1.32 1.4 1.72 1.45 1.95 1.45 2.11 1.41 2.19 1.34 2.23 1.28 2.24 1.21 2.24 1.19 2.28 1.16 2.37 1.15 2.47 1.12 2.6 1.08 2.69 1.02 2.75.92 2.79.83 2.77.72 2.74.64 2.69.55 2.64.51 2.61.45 2.6.42 2.6.38 2.64.33 2.69.27 2.75.19 2.8.11 2.83.02 2.82-.04 2.78-.07 2.72-.07 2.61-.07 2.45-.16 2.33-.39 2.5" filter="url(#a)"/><path d="m45.59-70.8 2.46 2.5 1.87 2.05 1.56 1.84 1.5 1.84 1.5 1.92L56-58.61l1.5 2.12 1.45 2.17 1.37 2.19 1.28 2.18 1.21 2.21 1.15 2.27 1.13 2.38 1.12 2.52 1.13 2.65 1.12 2.77 1.05 2.83.95 2.82.82 2.77.71 2.69.66 2.61.66 2.7.8 3.61" filter="url(#a)"/><path d="m46.09-70.25.91.91 1.47 1.65 1.79 2.14 1.87 2.35 1.74 2.37 1.54 2.28 1.36 2.16 1.21 2.09 1.14 2.07 1.09 2.13 1.08 2.21 1.08 2.29 1.06 2.35 1.01 2.37.96 2.37.89 2.38.82 2.4.74 2.48.7 2.59.63 2.69.57 2.76.48 2.73.35 2.65.26 2.62.27 2.93.42 3.75" filter="url(#a)"/><path d="m46.09-70.25 1.08.91 1.79 1.65 2.23 2.14 2.26 2.35 2.04 2.37 1.75 2.28 1.51 2.16 1.35 2.09 1.29 2.07 1.3 2.13L64-47.89l1.31 2.29 1.25 2.35 1.2 2.37 1.13 2.37 1.09 2.38 1.09 2.4 1.09 2.48 1.1 2.59 1.09 2.69 1.03 2.76.96 2.73.89 2.65.87 2.62.91 2.93 1.09 3.75" filter="url(#a)"/><path d="m44.83-72.05 1.64 1.68 2.67 2.03 2.6 1.96 2.08 1.88 1.71 1.87 1.77 1.94 2.16 2.04 2.59 2.11 2.82 2.17 2.76 2.18L70.07-50l2.04 2.22 1.74 2.27 1.65 2.39 1.77 2.51 2.01 2.66 2.31 2.77 2.58 2.83 2.78 2.82 2.79 2.78 2.59 2.7 2.31 2.61 2.25 2.7 1.88 3.62" filter="url(#a)"/><path d="m42.88-73.33 7.08 2.19 5.52 1.65 2.38 1.81 1.17 2.09 1.27 2.28 1.95 2.32 2.6 2.26 2.84 2.15 2.62 2.08 2.21 2.06 2.01 2.1 2.28 2.19 2.93 2.28 3.7 2.35 4.23 2.37 4.42 2.35 4.35 2.32 4.3 2.32 4.56 2.38 4.95 2.53 4.59 2.74 2.78 2.97 1.2 3.42" filter="url(#a)"/><path d="m42.88-73.33 3.64 2.2 1.61 1.67 1.54 1.84 1.92 2.12 2.26 2.29 2.38 2.32 2.28 2.26 2 2.17 1.66 2.12 1.4 2.1 1.29 2.14 1.33 2.22 1.45 2.29 1.56 2.34 1.6 2.38 1.6 2.38 1.55 2.39 1.46 2.43 1.33 2.49 1.22 2.59 1.16 2.69 1.23 2.74 1.4 2.74 1.59 2.71 1.73 2.74 1.78 2.93 1.62 3.28.76 3.27" filter="url(#a)"/><path d="m42.88-73.33 4.24 2.21 1.67 1.67 2.33 1.85 3.37 2.12 3.56 2.3L61-60.86l2.11 2.26 1.54 2.18 1.4 2.12 1.58 2.12 1.91 2.15 2.23 2.23 2.54 2.29 2.84 2.35 3.11 2.38 3.27 2.39 3.23 2.41 2.95 2.45 2.5 2.51 2.02 2.6 1.67 2.68 1.52 2.73 1.56 2.74 1.68 2.75 1.8 2.75 1.85 2.78 1.84 2.75 1.69 2.57 1.41 2.41 1.27 3.49" filter="url(#a)"/><path d="m43.85-72.45 3.86.82 2.75 1.53 1.7 1.85 1.33 1.91 1.62 1.9 2.3 1.94 2.84 1.99 2.92 2.07 2.55 2.14 1.96 2.19 1.52 2.22 1.44 2.26 1.74 2.3 2.28 2.39 2.86 2.48 3.26 2.58 3.36 2.66 3.12 2.74 2.66 2.77 2.2 2.76 1.93 2.75 2.01 2.7 2.41 2.65 2.96 2.62 3.38 2.61 3.52 2.61 3.28 2.64 2.82 2.69 2.35 2.76 2.04 2.8 1.92 2.85 1.92 2.84 1.99 2.81 2.02 2.75 1.69 2.64.87 2.38 1.02 2.06" filter="url(#a)"/><path d="m40.01-75.97 4.55 2.44 1.76 1.68 2.18 1.69 3.24 1.81 3.84 1.87 3.91 1.87 3.82 1.91 3.77 1.96 3.76 2.04 3.77 2.11 3.88 2.16 4.21 2.19 4.65 2.2 5.02 2.24 5.09 2.3 4.81 2.4 4.37 2.53 4.13 2.66 4.28 2.76 4.83 2.82 5.46 2.82 5.9 2.78 6.04 2.71 6.06 2.63 6.24 2.56 6.05 2.45 3.87 1.53" filter="url(#a)"/><path d="m38.95-76.94 2.4 1.88 2.27 1.86 2.17 1.8 2.06 1.79 2.04 1.9 2.07 2.08 2.09 2.21 2.03 2.26 1.89 2.24 1.71 2.16 1.54 2.1 1.4 2.08 1.31 2.11 1.31 2.18 1.36 2.28 1.4 2.35 1.4 2.37 1.31 2.36 1.15 2.31 1.02 2.3 1 2.35L75-29.48l1.2 2.69.92 2.57" filter="url(#a)"/><path d="m38.95-76.94 2.3 1.88 2.11 1.86 1.94 1.79 1.79 1.78 1.76 1.9 1.84 2.07 1.95 2.21 2.04 2.26 2.06 2.23 2 2.17 1.88 2.09 1.7 2.06 1.52 2.1 1.33 2.17 1.17 2.28 1.09 2.36 1.07 2.38L69.6-39l1.15 2.29 1.17 2.26 1.18 2.29 1.2 2.52 1.2 3.19M39.68-76.44l8.85 1.23 6.55 1.64.9 1.65-.82 1.72-.14 1.8 1.27 1.84 2.67 1.87 3.8 1.9 4.66 1.96 5.34 2.03 5.9 2.1 6.33 2.15 6.4 2.18 5.92 2.19 4.81 2.22 3.35 2.28 2.1 2.38 1.64 2.51 2.28 2.65 3.81 2.78 5.5 2.84 6.58 2.86 6.75 2.8 6.84 2.69 8.36 2.39 10.85 1.84" filter="url(#a)"/><path d="m39.68-76.44 2.85 1.24 3.99 1.66 2.96 1.66 2.07 1.74 1.62 1.81 1.42 1.86 1.34 1.88 1.32 1.93 1.37 1.99 1.49 2.05 1.7 2.12 2 2.16 2.35 2.2 2.67 2.23 2.86 2.28 2.82 2.34 2.58 2.45 2.17 2.55 1.69 2.66 1.3 2.74 1.04 2.79.98 2.79 1.13 2.76 1.41 2.7 1.72 2.64 1.9 2.58 1.88 2.53 1.71 2.52 1.46 2.55 1.31 2.59 1.47 2.66 2.24 3.11" filter="url(#a)"/><path d="m39.68-76.44 1.39 1.24 2.18 1.66 2.32 1.66 2.25 1.74 2.04 1.81 1.87 1.86 1.79 1.88 1.77 1.93 1.78 1.99 1.74 2.05 1.63 2.12 1.51 2.16 1.41 2.2 1.38 2.23 1.45 2.28 1.59 2.34 1.77 2.45 1.91 2.55 1.95 2.66 1.88 2.74 1.69 2.79 1.43 2.79 1.14 2.76.85 2.7.63 2.64.52 2.58.53 2.53.62 2.52.69 2.55.72 2.59.89 2.66 1.6 3.11" filter="url(#a)"/><path d="m39.04-76.84 1.21.59 2.05 1.38 2.22 1.66 2.39 1.73 2.68 1.8 3.05 1.9 3.27 2.06 3.23 2.19 3.02 2.24 2.82 2.23 2.73 2.17 2.79 2.09 2.89 2.06 2.97 2.09 3 2.17 3 2.27 2.99 2.37 3.07 2.4 3.26 2.36 3.55 2.27 3.95 2.2 4.11 2.14 2.15 1.95" filter="url(#a)"/><path d="m37.14-77.97 12.75 1.33.24 1.47-1.46 1.58-.45 1.64.78 1.72 1.73 1.79 2.47 1.84 3.31 1.86 4.39 1.91 5.6 1.96 6.56 2.04 6.92 2.09 6.46 2.15 5.38 2.18 4.04 2.19 2.9 2.23 2.25 2.28 2.14 2.38 2.56 2.52 3.48 2.65 4.76 2.78 5.95 2.84 6.31 2.86 5.35 2.81 3.44 2.69 2.05 2.4 2.91 1.84" filter="url(#a)"/><path d="m37.14-77.97 2.43 1.33 2.59 1.47 3.38 1.58 4.02 1.64 4.17 1.72 3.84 1.79 3.42 1.84 3.16 1.86 3.07 1.91 3 1.96 2.87 2.04 2.8 2.09 2.87 2.15 2.99 2.18 2.99 2.19 2.69 2.23 2.19 2.28 1.79 2.38 1.89 2.52 2.62 2.65 3.74 2.78 4.61 2.84 4.71 2.86 4 2.81 3.05 2.69 2.31 2.4.21 1.84" filter="url(#a)"/><path d="m37.14-77.97 2.21 1.34 2.27 1.47 2.12 1.59 1.91 1.65 1.84 1.73 1.86 1.8 1.83 1.84 1.74 1.88 1.66 1.92 1.66 1.98 1.77 2.04 2 2.1 2.26 2.16 2.51 2.19 2.66 2.21 2.73 2.26 2.72 2.32 2.65 2.42 2.56 2.54 2.41 2.65 2.22 2.75 1.96 2.81 1.71 2.82 1.42 2.78L88.97-24l.84 2.63.62 2.55.67 2.45 1.18 2.29 2.33 2.48" filter="url(#a)"/><path d="m33.41-80.5 3.04 2.04 2.33 1.62 2.05 1.56 1.95 1.58 1.87 1.63 1.8 1.7 1.7 1.76 1.63 1.81 1.58 1.84 1.56 1.87 1.57 1.92 1.57 2 1.56 2.08 1.5 2.14 1.42 2.17 1.3 2.15 1.22 2.13 1.19 2.14 1.2 2.21 1.27 2.33 1.43 2.7 1.96 4.07M35.2-79.74l3.3 1.06 3.84 1.18 3.14 1.26 2.13 1.44 1.42 1.59 1.41 1.7 2.06 1.8 2.99 1.92 3.75 2.05 4.13 2.16 4.12 2.22 3.84 2.22 3.44 2.17 3.04 2.12 2.79 2.1 2.86 2.11 3.38 2.19 4.33 2.28 5.39 2.35 6.1 2.39 5.99 2.37 4.85 2.3 3.03 2.27 1.47 2.31 1.66 2.52 4.21 3.21" filter="url(#a)"/><path d="m31.38-81.95 2.83 1.75 2.19 1.37 2.38 1.28 2.86 1.33 3.13 1.46 3.07 1.59 2.85 1.7 2.63 1.81 2.49 1.94 2.43 2.06 2.44 2.15 2.46 2.21 2.48 2.21 2.4 2.18 2.29 2.14 2.18 2.13 2.15 2.16 2.25 2.21 2.42 2.28 2.57 2.34 2.68 2.37 2.72 2.38 2.73 2.36 2.74 2.38 2.66 2.44 2.37 2.58 1.87 2.76 1.41 2.96 1.36 3.12 2.48 3.07" filter="url(#a)"/><path d="m28.13-83.91 2.3 1.31 2.5 1.22 3.52 1.35 4.28 1.46 4.19 1.54 3.57 1.56 2.97 1.59 2.71 1.64 2.77 1.69 2.93 1.75 3.05 1.79 3.11 1.83 3.15 1.87 3.17 1.91 3.14 1.99 2.99 2.08 2.82 2.15 2.76 2.19 3.02 2.15 3.67 2.09 4.37 2.14 4.52 2.34 4.72 2.21M28.13-83.91l2.15 1.32 1.7 1.24 1.77 1.37 1.84 1.48 1.77 1.55 1.61 1.59 1.41 1.62 1.22 1.66 1.06 1.72.89 1.77.71 1.82.51 1.87.32 1.91.21 1.96.23 2.03.36 2.09.51 2.14.57 2.18.48 2.2.2 2.22-.15 2.29-.44 2.37L46.5-41l-.48 2.66-.39 2.79-.5 2.87-.95 2.89-1.61 2.88-2.13 2.87-2.99 2.43" filter="url(#a)"/><path d="m27.66-84.13 5.35 1.21 5.77 1.3 3.02 1.35 1.34 1.34 1.2 1.33 1.8 1.39 2.55 1.48 3.13 1.59 3.41 1.71 3.4 1.82 3.13 1.94 2.79 2.05 2.57 2.14 2.53 2.19 2.69 2.19 2.93 2.19 3.13 2.17 3.16 2.17 3.03 2.18 2.79 2.23 2.59 2.29 2.56 2.34 2.79 2.37 3.23 2.39 3.7 2.4 3.93 2.44 3.72 2.51 3.06 2.6 2.3 2.7 2.01 2.76 2.59 2.76 3.85 2.68 5.06 2.66 5.42 2.96 3.92 3.77" filter="url(#a)"/><path d="m27.66-84.13 2.59 1.19 3.7 1.29 3.68 1.33L40.88-79l2.94 1.3 2.76 1.35 2.67 1.44 2.85 1.55 3.47 1.65 4.51 1.76 5.77 1.88 6.86 2.01 7.5 2.14 7.53 2.21 7.03 2.23 6.19 2.18 5.35 2.09 4.95 2.03 5.22 2.02 5.93 2.12 6.19 2.28 5.26 2.47 4.12 2.56 8.17 2.6" filter="url(#a)"/><path d="m24.48-85.68 2.98 1.38 3.39 1.3 4.1 1.31 4.15 1.32 3.74 1.32 3.21 1.32 2.68 1.36 2.22 1.44 1.93 1.55 1.94 1.65 2.23 1.76 2.65 1.88 3.08 2.01 3.43 2.13 3.69 2.21 3.91 2.22 4.07 2.19 4.24 2.1 4.41 2.03 4.66 2.03 4.95 2.11 5.02 2.29 4.53 2.47 3.79 2.56 5.28 2.61" filter="url(#a)"/><path d="m23-85.79 3.89.57 2.41 1.03 2.52 1.21 2.55 1.28 2.48 1.31 2.51 1.32 2.7 1.33 2.91 1.39 3.01 1.46 3.01 1.55 2.98 1.66 2.98 1.77 3 1.9 3 2.02 3 2.12 3 2.19 3.03 2.21 3.09 2.18 3.1 2.13 2.95 2.08 2.59 2.09 2.23 2.17 2.15 2.29 2.63 2.4 3.55 2.47 4.4 2.41 4.79 2.22 5.06 1.85" filter="url(#a)"/><path d="m23.32-86.12 1.94.87 1.86.85 1.9.92L31-82.44l2.1 1.19 2.28 1.32 2.52 1.43 2.79 1.51 3.01 1.57 3.09 1.62 3.04 1.67 2.86 1.72 2.59 1.77 2.33 1.82 2.13 1.87 2.01 1.92 1.97 1.97 2.05 2.03 2.2 2.09 2.43 2.14 2.72 2.18 3.01 2.21 3.27 2.25 3.48 2.3 3.68 2.4 3.85 2.52 4 2.66 4.04 2.78 3.9 2.85 3.53 2.88 2.98 2.83 2.25 2.72 1.25 2.42 1.14 1.86M23.32-86.12l2.48.87 3.77.84 4.68.91 4.41 1.03 3.84 1.18 3.28 1.31 2.7 1.41 2.26 1.5 2.25 1.56 2.8 1.61 3.77 1.65 4.81 1.71 5.64 1.75 6.08 1.81 6.13 1.85 5.9 1.89 5.46 1.95 4.92 2.02 4.39 2.08 3.97 2.14 3.69 2.17 3.48 2.18 3.19 2.17 2.75 2.2 2.53 2.28 3.19 2.42 5.05 2.68 7.07 2.99 7.49 2.68" filter="url(#a)"/><path d="m20.23-87.35 3.04 1.08 3.11.94 2.72.9 2.45.94 2.85 1.05 3.74 1.18 4.58 1.3 4.88 1.42 4.54 1.49 3.83 1.56 3.19 1.61 2.89 1.66L65-70.51l3.18 1.76 3.39 1.81 3.45 1.86 3.32 1.91 3.11 1.96 2.9 2.02 2.74 2.09 2.73 2.14 2.9 2.17 3.23 2.19 3.67 2.21 4.12 2.25 4.57 2.35 5.13 2.49 5.95 2.66 7.1 2.85 8.23 2.91 8 2.75 2.94 2.25" filter="url(#a)"/><path d="m18.79-87.85 2.51 1.15 2.34.8 3.03.83 3.59.99 3.61 1.13 3.15 1.23 2.5 1.28 2.03 1.31 1.95 1.35 2.32 1.39 2.96 1.47 3.69 1.55 4.31 1.66 4.68 1.77 4.8 1.89 4.66 2.02 4.41 2.11 4.15 2.19 4.09 2.2 4.27 2.18 4.62 2.14 4.86 2.09 4.83 2.1 4.57 2.17 4.56 2.29 5.22 2.41 6.45 2.47 7.09 2.42 5.6 2.23 1.96 1.85" filter="url(#a)"/><path d="m18.79-87.85 2.62 1.15 2.07.8 2.13.84 2.47.99 2.83 1.13 3.07 1.23 3.19 1.28 3.31 1.31 3.64 1.35 4.23 1.4 5.01 1.47 5.71 1.56 6.04 1.67 5.78 1.77 4.94 1.9 3.68 2.02 2.43 2.11 1.56 2.18 1.4 2.2 1.95 2.18 3 2.14 4.1 2.11 4.84 2.12 5.05 2.19 4.82 2.29 4.48 2.38 4.25 2.44 4.16 2.4 4.09 2.3 4.36 2.23 6.74 2.48" filter="url(#a)"/><path d="m15.19-88.92 4.22 1.11 4.15.98 3.7.87 3.09.89 2.79 1 3.02 1.12 3.61 1.21 4.17 1.27 4.35 1.3 4.09 1.35 3.55 1.39 2.96 1.46 2.52 1.55 2.32 1.66L66.07-70l2.51 1.88 2.86 2.01 3.39 2.12 4.08 2.18 4.76 2.21 5.17 2.19 5.11 2.13 4.57 2.08 3.89 2.08 3.55 2.15 3.83 2.29 4.44 2.44 4.75 2.53 4.66 2.51 3.51 2.38" filter="url(#a)"/><path d="m15.19-88.92 3.21 1.11 2.56.98 2.3.86 2.26.89 2.25.99 2.24 1.12 2.26 1.21 2.29 1.26 2.33 1.3 2.32 1.34 2.27 1.38 2.19 1.45 2.09 1.54 2 1.64 1.95 1.75 1.95 1.87 2 2 2.03 2.11 2 2.21 1.9 2.23 1.74 2.2 1.61 2.11 1.58 2.02 1.67 2.01 1.87 2.09 2.05 2.3 2.13 2.52 1.87 2.5" filter="url(#a)"/><path d="m14.98-88.94 2.71.4 2.02.81 2.2.87 2.52.86 2.68.91 2.72 1 2.7 1.11 2.72 1.19 2.82 1.25 2.98 1.3 3.09 1.33 3.06 1.38 2.9 1.45 2.65 1.53 2.42 1.63 2.31 1.74 2.36 1.86 2.53 2 2.8 2.12 3.07 2.21 3.28 2.25 3.3 2.21 3.14 2.1 2.93 2 2.98 1.94 3.43 2.04 4.01 2.34 3.79 2.82" filter="url(#a)"/><path d="m14.98-88.94 3.91.4 3.74.81 1.77.88 1.14.87 1.46.91 2.09 1.01 2.66 1.11 3.1 1.2 3.43 1.26 3.76 1.3 4.15 1.35 4.59 1.39 4.95 1.47 5.13 1.55 5.08 1.65 4.83 1.77 4.51 1.88 4.14 2 3.78 2.11 3.39 2.19 3 2.21 2.77 2.18 2.82 2.14 3.21 2.08 3.87 2.08 4.55 2.16 4.97 2.29 4.94 2.45 4.52 2.53 4.2 2.51 4.7 2.38" filter="url(#a)"/><path d="m13.6-89.03 2.09.44 2.31.62 2.32.79 2.23.86 2.11.89 2.04.93 2.01.98 2.02 1.06 2.06 1.17 2.1 1.27 2.12 1.38 2.09 1.46 2.03 1.54 1.96 1.59 1.88 1.65 1.82 1.69 1.78 1.75 1.73 1.8 1.7 1.84 1.66 1.89 1.64 1.94 1.6 2.01 1.56 2.08 1.52 2.15 1.44 2.19 1.38 2.18 1.33 2.14 1.33 2.15 1.38 2.18 1.36 2.07 1.04 1.55" filter="url(#a)"/><path d="m13.6-89.03 2.23.43 2.94.62 3.25.78 3.32.85 3.24.89 3.09.92 2.96.96 2.87 1.04 2.79 1.14 2.7 1.26 2.6 1.37 2.57 1.45 2.65 1.52 2.84 1.57 3.1 1.62 3.33 1.68 3.51 1.74 3.64 1.78L71-65.59l3.9 1.84 4 1.87 4.08 1.94 4.36 2.06 5.19 2.26 6.24 2.57 4.72 2.55" filter="url(#a)"/><path d="m11.6-89.31 2.55.34 2.46.55 2.73.75 2.63.83 2.39.87 2.23.93 2.18 1.02 2.16 1.12 2.12 1.19 2.06 1.26 2.02 1.31 2.07 1.35 2.2 1.42 2.37 1.48 2.56 1.58 2.7 1.67 2.74 1.79 2.69 1.9L57-65.94l2.33 2.1 2.11 2.16 1.92 2.18 1.81 2.19L67-55.15l1.98 2.14 2.21 2.17 2.49 2.21 2.67 2.28 2.71 2.36 2.56 2.4 2.23 2.39 1.85 2.34 1.5 2.3 1.25 2.33 1.24 2.55 1.87 3.23" filter="url(#a)"/><path d="m12.89-89.21 1.22.25 2.36.43 3.68.59 4.75.74 5.27.83 5.05.87 4.15.9 2.97.96 2.06 1.03 1.79 1.12 2.21 1.24 3.09 1.35 4.12 1.44 5.01 1.5 5.6 1.56 5.85 1.61 5.82 1.66 5.75 1.73 5.82 1.78 6.14 1.82 6.62 1.82 7.16 1.83 7.6 1.97 8.07 2.09" filter="url(#a)"/><path d="m12.89-89.21 1.34.26 2.09.43 2.28.62 2.25.75 2.19.84 2.14.89 2.09.93 2.06 1 2.05 1.07 2.07 1.18 2.08 1.28 2.13 1.38 2.17 1.46 2.2 1.54 2.23 1.6 2.21 1.65 2.17 1.71 2.11 1.76 2.03 1.8 1.99 1.86 1.96 1.9 1.95 1.96 1.93 2.03 1.91 2.08 1.86 2.14 1.79 2.17 1.72 2.19 1.67 2.21 1.64 2.24 1.64 2.32 1.62 2.47 1.62 2.69 1.64 2.92 1.71 3.06 1.83 3.16" filter="url(#a)"/><path d="m8.24-90.19 1.56.66.8.51.65.59.62.71 1.03.79 1.69.83 2.2.89 2.27.98 1.92 1.07L22.31-82l.72 1.22.28 1.27.08 1.29.04 1.32.02 1.38-.15 1.47-.6 1.56-1.34 1.62-2.18 1.66-2.62 1.76-1.93 2.05-.58 2.44" filter="url(#a)"/><path d="m8.24-90.19 3.62.67 3.58.53 3.11.61 2.89.73 2.84.81 2.83.87 2.84.94 2.91 1.02 3 1.11 3.08 1.19 3.08 1.25 3 1.31 2.87 1.35 2.75 1.42 2.67 1.48 2.67 1.58 2.74 1.67 2.86 1.79 3 1.89 3.11 2.01 3.18 2.1 3.16 2.16 3.04 2.18 2.9 2.18 2.78 2.17 2.79 2.15 2.9 2.16 3.06 2.21 3.14 2.29 3.1 2.36 3.01 2.4 3.06 2.39 3.33 2.34 3.54 2.3 3.19 2.34 2.3 2.55 3.19 3.23" filter="url(#a)"/><path d="m9.38-89.83 2.55.47 1.91.4 1.93.47 2.06.61 2.13.73 2.12.82 2.03.87 1.95.92 1.89.99 1.87 1.06 1.88 1.16 1.9 1.26 1.93 1.36 1.93 1.45 1.91 1.52 1.86 1.58 1.8 1.64 1.74 1.7 1.68 1.74 1.61 1.79 1.57 1.83 1.51 1.88 1.47 1.93 1.42 1.99 1.37 2.09 1.33 2.17 1.26 2.22 1.2 2.17 1.11 2.05 1.1 2.13 1.32 3.03M6.3-90.3l-1.78-.21-1.98-.09-2.07-.03-2.21.07-2.36.16-2.41.25-2.4.33-2.33.38-2.29.45-2.27.52-2.3.6-2.32.68-2.34.77-2.33.86-2.3.93-2.27 1.01-2.26 1.08-2.28 1.16-2.34 1.23-2.42 1.33-2.54 1.44-2.64 1.54-2.71 1.63-2.68 1.68-2.48 1.67-2.19 1.63-1.94 1.58-1.95 1.61-2.25 1.85-3.32 2.82" filter="url(#a)"/><path d="m6.3-90.3-1.77-.21-1.96-.09-2.09-.03-2.26.06-2.41.16-2.45.25-2.44.33-2.39.38-2.39.44-2.42.52-2.51.59-2.61.67-2.73.77-2.81.85-2.91.93-3.01 1-3.15 1.07-3.24 1.14-3.28 1.22-3.23 1.31-3.13 1.42-3.07 1.54-3.1 1.66-3.23 1.72-3.39 1.7-3.65 1.62-4.12 1.59-4.55 1.84" filter="url(#a)"/><path d="m6.3-90.3-1.09-.21-2.17-.09-2.36-.02-2.53.06-2.76.16-3.02.26-3.25.33-3.37.39-3.35.45-3.14.52-2.84.6-2.52.7-2.35.77-2.38.87-2.62.94-3.03 1.01-3.54 1.09-4.03 1.17-4.49 1.25-4.85 1.34-5.13 1.44-5.3 1.54-5.37 1.62-5.33 1.66-5.22 1.67-5.13 1.67-5.11 1.68-5.15 1.76-5.01 1.93-4.69 2.14-4.93 2.17-6.69 1.54" filter="url(#a)"/><path d="m6.34-90.2-2.62-.31-2.62-.1-2.7.01-2.79.09-2.93.16-3.09.24-3.23.32-3.38.43-3.54.53-3.65.64-3.66.73-3.53.8-3.31.86-3.13.92-3.1.97-3.25 1.02-3.56 1.06-3.88 1.08-4.07 1.1-4.04 1.13-3.79 1.2-3.55 1.31-3.72 1.47-4.76 1.71-6.7 2.14-10.16 3.35" filter="url(#a)"/><path d="m6.34-90.2-2.62-.31-2.5-.1-2.37.01-2.26.1-2.25.17-2.3.25-2.4.35-2.48.45-2.51.55-2.48.66-2.4.74-2.3.82-2.2.88-2.15.94-2.13.99-2.13 1.03-2.15 1.08-2.2 1.12-2.28 1.18-2.37 1.25-2.49 1.34-2.59 1.45-2.67 1.58-2.7 1.71-2.67 1.79-2.62 1.85-2.52 1.88-2.43 1.87-2.33 1.88-2.27 1.94-2.3 2.01-2.46 2.13-2.76 2.31-3 2.54-2.23 2.45" filter="url(#a)"/></g><g fill="none" stroke="#000"><circle cx="9.268" cy="13.868" r="1.076" filter="url(#a)"/><circle cx="10.012" cy="12.252" r="2.106" filter="url(#a)"/><circle cx="12.176" cy="11.02" r="2.524" filter="url(#a)"/><circle cx="11.524" cy="14.496" r="2.922" filter="url(#a)"/><circle cx="12.048" cy="11.376" r="2.078" filter="url(#a)"/><circle cx="9.688" cy="12.292" r="1.892" filter="url(#a)"/><circle cx="10.168" cy="14.112" r="1.914" filter="url(#a)"/><circle cx="9.756" cy="14.484" r="1.322" filter="url(#a)"/><circle cx="10.492" cy="14.328" r="2.216" filter="url(#a)"/><circle cx="11.016" cy="10.72" r="2.572" filter="url(#a)"/><circle cx="-11.036" cy="7.724" r="2.254" filter="url(#a)"/><circle cx="-9.684" cy="7.948" r="1.078" filter="url(#a)"/><circle cx="-10.572" cy="9.248" r="2.174" filter="url(#a)"/><circle cx="-10.332" cy="8.74" r="2.754" filter="url(#a)"/><circle cx="-8.796" cy="9.124" r="2.794" filter="url(#a)"/><circle cx="-9.372" cy="7.228" r="1.444" filter="url(#a)"/><circle cx="-10.556" cy="5.68" r="1.292" filter="url(#a)"/><circle cx="-9.592" cy="9.228" r="2.264" filter="url(#a)"/><circle cx="-9.004" cy="7.212" r="1.672" filter="url(#a)"/><circle cx="-11.348" cy="6.172" r="1.468" filter="url(#a)"/></g><path fill="#D77F8C" stroke="#000" stroke-linejoin="round" stroke-width="3" d="m3.03 57.83.18.41-.01.8-.15.15.09.28-.22.93-.01.4-.39.91.24-.74-.2.91-.26.52.09-.11-.45.88-.69.98-.14.14-.33.59.45-.68-.24.37-1.04 1.14.57-.54-1.29 1.42.41-.51-.91.84-.51.51-.52.29.68-.46-.49.4-.12.1-.87.55-.65.36-.48.33-.87.39-.74.36.37-.2-1.39.6.77-.31-1.21.5.03-.05-1.88.56.86-.23-1.54.41.48-.12-.25.09-1.36.25-.74.11-.32.05-.38.04-.05.01-.66.07-1.55.07h-.65.14l-1.89-.08.1.02-1.28-.13.06-.01.38.04-1.06-.14-.38-.07.27.06-1.39-.28-1.56-.4-.12-.01-.59-.21-.11-.01.29.04-1.28-.41-.68-.34.72.32-1.5-.7-.36-.16-.15-.09-.7-.41-1.1-.61.13-.02.01.08-.81-.66-.55-.41-.66-.52-.36-.33-.33-.33.34.19-.85-.89.33.32-.77-.81.06-.02-.44-.72-.13-.01.26.22L-32 63l.21.23-.18-.26-.54-1.14-.12-.27-.14-1.05-.09.24.24.37-.41-1.83.13.63-.22-1.45.06.37-.07.11.17-.8-.01-1.19-.12.5.17-.15.03-.66.41-1.3.01.1.15-.52.27-.76.09-.02.29-.63.24-.26.12-.25.08-.13.68-1.06.21-.12-.5.55 1.21-1.35.4-.43-.36.3.19-.12.05-.12.64-.42.03-.11 1.54-1.14v.07l1.04-.68-.51.31.31-.18 1.76-.92.29-.14-.39.19 1.46-.59.08-.07.99-.29.28-.11.11-.01 1.07-.32.01.04-.38.08 1.83-.39 1.05-.17-1.24.19 1.04-.17 1.36-.15.15-.01-.12.01.41-.03 2.26-.06h-.74l1.54.04-.42-.02 1.7.11-.53-.05.87.1-.23-.02 1.14.15 1.76.35.62.13-.08.01.53.15.97.26.48.18.17.07-.44-.17 1.2.44.97.49-.34-.2.69.37.25.09.65.4.31.18.57.36-.13-.08 1.45 1.03.68.52.05.11.2.12-.16-.09.48.54.44.45-.18-.2 1.01 1.25-.07-.09.03.13.16.13.9 1.46-.04.14.26.64-.36-.85.23.51.56 1.54.13.41-.13-.76.03.66.03.28.24 1.32-.09.54" filter="url(#a)"/></svg>