<svg xmlns="http://www.w3.org/2000/svg" width="500" height="500" viewBox="-100 -100 200 200"><defs><clipPath id="c"><path d="m37.61 4.45-.43-.14-.46-.14-.49-.15-.52-.16-.56-.16-.58-.16-.61-.17-.64-.18-.67-.18-.7-.18-.72-.19-.75-.19-.78-.19-.8-.2-.82-.19-.82-.21-.86-.22-.91-.22-.95-.23-.98-.23-1.03-.23L21.47.3 20.38.06l-1.12-.23-1.14-.23-1.18-.22-1.19-.23-1.22-.21-1.23-.21-1.24-.2-1.25-.2-1.26-.18-1.27-.18-1.27-.17-1.27-.15-1.26-.14-1.26-.13-1.25-.12-1.24-.1-1.23-.09L-1.71-3l-1.19-.07-1.18-.04-1.15-.03-1.13-.02-1.11-.01-1.08.01-1.05.03-1.02.03-1 .06-.96.06-.94.07-.9.09-.87.1-.84.11-.81.12-.78.12-.74.14-.72.14-.68.15-.66.15-.63.16-.6.16-.58.16-.55.17-.53.16-.5.17-.48.17-.46.18-.44.18-.41.17-.39.18-.37.18-.35.18-.33.18-.31.17-.3.18-.27.17-.26.18 2.21-.03.34.07.35.07.37.06.39.06.4.06.42.05.43.04.45.05.47.04.49.03.5.04.52.03.53.03.56.03.57.03.59.02.61.02.63.03.65.02.67.02.7.02.71.02.74.02.76.03.78.02.8.03.82.03.84.04.87.03.88.05.9.04.92.05.94.06.96.05.97.07.99.06 1 .07 1.02.08 1.03.08 1.04.08 1.05.09 1.06.09 1.07.1 1.07.09 1.08.1 1.08.11 1.08.1 1.09.11 1.08.1 1.08.11 1.07.11 1.07.11 1.06.1 1.05.11 1.05.1 1.02.1 1.02.09 1 .1.98.08.97.09.94.07.92.07.91.07.87.06.8.07.79.07.76.06.76.06.73.06.71.06.7.05.68.05.65.04.63.04.61.04.59.04.56.03.53.02.51.03"/></clipPath><clipPath id="b"><path d="m-36.9 3.39.4-.16.43-.16.46-.17.5-.17.53-.17.56-.18.59-.18.62-.18.66-.19.68-.18.71-.19.75-.19.76-.19.8-.19.82-.18.81-.23.85-.23.9-.22.94-.23.99-.22 1.02-.22 1.07-.21 1.1-.21 1.14-.21 1.16-.2 1.2-.19 1.22-.18 1.24-.17 1.26-.17 1.27-.15 1.29-.14 1.3-.14 1.3-.12 1.3-.11 1.31-.09 1.3-.09 1.3-.07 1.28-.06L.2-3.2l1.26-.03 1.24-.02 1.23-.01 1.2.01 1.18.01 1.16.03 1.13.04 1.1.06 1.07.06 1.04.07 1.01.09.97.09.94.11.91.11.87.12.84.13.81.14.77.14.73.15.7.15.67.15.64.16.61.16.57.17.55.16.53.16.5.17.47.16.44.17.42.16.4.17.37.17.34.17.32.16.31.17.27.16.26.16.24.16.21.16.2.16-3.62-.98-.4.14-.42.12-.43.12-.45.12-.46.11-.48.1-.49.1-.5.09-.52.09-.53.09-.55.08-.56.07-.57.08-.59.07-.6.06-.62.06-.64.06-.65.06-.67.05-.69.05-.7.05-.71.05-.74.04-.75.05-.76.04-.78.05-.79.04-.81.05-.82.05-.83.05-.85.05-.86.05-.87.05-.88.06-.89.05-.9.06-.91.06-.92.07-.93.06-.93.07-.94.07-.95.07-.96.07-.95.07-.96.08-.97.08-.97.07-.96.08-.97.08-.97.08-.97.08-.97.08-.96.07-.96.08-.96.07-.95.07-.94.07-.94.07-.93.06-.92.06-.91.05-.9.05-.88.04-.88.04-.75.05-.75.05-.73.04-.73.04-.71.04-.69.03-.68.04-.66.03-.65.02-.63.02-.6.02-.59.02-.57.01-.54.01-.52.01"/></clipPath><linearGradient id="d" x1="0%" x2="100%" y1="0%" y2="0%"><stop offset="0%" style="stop-color:[object Object];stop-opacity:1"/><stop offset="21.4%" style="stop-color:[object Object];stop-opacity:1"/><stop offset="100%" style="stop-color:[object Object];stop-opacity:1"/></linearGradient><filter id="a"><feTurbulence baseFrequency=".05" numOctaves="3" result="noise" type="noise"/><feDisplacementMap in="SourceGraphic" in2="noise" scale="2"/></filter></defs><rect width="100%" height="100%" x="-100" y="-100" fill="linen"/><path fill="#C04000" stroke="#000" stroke-linejoin="round" stroke-width="1.667" d="m79.08.02-.04 1.62.19 2.53-.17 1.18-.2.29.07-.26-.33 3.68.19.03-.28 1.47-.32 1.59.07-.08-.39 3.35-.32 1.92.07-.32-.18.48-.61 2.5.22-.16-.88 2.66.07.01-.94 2.58-.46 1.68-.3.94-.17.71-.21.35-1 2.75-.27.65-.48 1.63-.58.51-.82 2.02.48-.84-.64 1.51-.87 1.64-.54 1.11-.65 1.19-.76 1.16.16-.01-.85 1.44-.41.88-1.57 2.17.13-.54-2.58 4 .5-.87-.5 1.39-1.29 1.63-.28.16-2.07 2.62.35-.64-2.45 3.06 1.04-1.25-.93.89-.59 1.09-1.4 1.08-1.59 1.35-.47.46-1.41 1.77-.98.48-.32.46-1.4.96.15.02-3.39 2.7-.95.78.77-.65-2.21 1.54.32-.11-1.24.95.82-.5-4.83 2.92h-.12l.81-.23-2.13 1.13h-.58l-1.95 1.14-1.44.61.47.15-2.58.98.24-.24-2.04 1.28-.89.08-.56.43-1.4.25-1.74.82-.38.18-1.84.46-.53-.04-1.27.45-2.57.56.87.17-4.11.62-.28.07-.67.13-1.76.6-1.05.13-2.52.11.18-.03-2.16.16.49-.09-2.13.41-.64-.11-1.15.08-2.29.26-1.13-.25-2.51.12-1.51-.18.52.2-.68-.13-2.18.01-.65-.29-2.86-.36.93.4-.8-.48-3.94-.51 1.33.48-2.39-.75-.67-.16h-1.15l-2.89-.68-.93-.37-.22-.18-2.6-.7-.68.03-.03-.24-3.56-1.3 1.14.42-2.27-.77-.55-.29-.74-.56-1.26-.2-.7-.4-.34-.47-.97-.07-1.29-.82-1.88-1.07-1.34-.97-.71-.15-2.28-1.57-.79-.04-1.18-1.05-1.66-1.46-.54-.11-1.03-.61.1-.21-.33-.18-2.11-1.28-.19-.44-1.19-.75-1.64-1.47-1.15-1.01-.93-.92-.63-.84-1.2-1.04h.39l-2.03-2.11-1.5-1.37.44.4-1.65-2.07.12.23-.18-.4-1.67-1.71-.11-.59-1.58-1.76-.91-1.34-1.25-1.7-.28.02-.99-2.29-.71-.68-.88-1.67-.1-.21.12.05-1.96-3.47-.32-.73.04-.02-.18-.46-1.3-3.03-.92-2.26v.21l-.48-1.18-.12-.03-.85-2.72-.43-1.11.02.12-.81-2.96.12 1.38-.22-1.62-.73-2.69-.41-1.37-.3-.16-.01-1.3-.54-1.98-.44-2.1.07-.06-.45-2.04.03-.26-.23-2.06-.15-2.23-.04-1.77-.13 1.33-.23-2.15.29-.46-.34-1.54.13-2.12-.25-1.82.24.23.06-1.81-.05-2.2.02-2.15.26-.88.08 1.03-.13-1.48.29-2.37.52-3.48-.41 1.8.35-1.89.51-1.62-.03-.48.81-4-.07.5.23-1.19.4-1.62-.15-.11 1.01-2.81.76-1.79-.06-.09.42-.86-.21-.65 1.31-3.09.47-1.2-.2.29 1.18-2.61.77-1.21-.12.51 1.64-3.33-1.08 1.87 1.86-4 .48-.72-.01.7.35-1.21 1.83-2.54.27-.92-.04.38 1.25-2.19.29-.1 1.06-1.76.34-.5 2.34-2.91-.67.78 1.13-1.34 1.22-1.46-.51.36 1.96-1.99 2.29-2.29-.27.1-.21-.24 1.38-.89 1.41-1.37-.18.24 3.18-2.99.69-.46-1.34.91.56-.34 2.46-1.69-.74.04 1.95-1.16 2.64-2.19.91-.65-.06.42 1.49-1.3 1.05-.33.68-.39 1.95-1.44.58-.28 1.18-.33-.09-.33 2.21-.88 2.88-1.45-.17-.02-.17.24 1.39-.75 1.08-.47 1.74-.62 1.2-.33-.14.18 2.99-1.42 2.01-.62.3.22 2.22-.8 1.14-.2.95-.03.54-.37 1.79-.19 1.37-.38.75.1.73-.18.83-.31 1.67.03-.38-.04 3.32-.55.18.33 1.04-.33 2.02-.11-.16.17 2.43.05.91.02 1.94.03 2.41-.13-.48.05-.53-.19 3.33.47.43-.06 4.04.48-.53-.01.48.19 2.58.37-.12.19 1.53.14.06-.11 2.95.61.64.35.08.17 2.11.46.51-.03 1.45.78.58-.02 1.74.54 1.29.53 1.34.74 2.2 1.06 2.31 1.01-.72-.4 1.52.58.69.21 1.55.85.95.81.13.04 2.13 1.13-.11-.28 1.87 1.72 1.83.99.62.48.46.15.63.65 1.73 1.18 2.2 1.31.5.81.71.25 1.71 1.33-.92-.08.34.2 3.04 2.84.2-.25 1.48 1.62.57.56.76.85 1.06 1.53-.05-.43L59-55l1.03 1.29.39.33 2 2.3.41 1.26.35.04 1.37 1.83.17.08 1.27 2.66-.41-.6 1.45 2.18-.21-.75 1.61 2.97 1.22 2.33-.59-1.04.4.29 1.23 2.56.45 1.12.37.53.65 1.8.31 1.08.52.46.69 2.1.8 2.78-.77-2.59.71 2.09.91 3.45.29.24-.11.19.65 1.54.61 1.96.37 1.87v-.19l.55 3.83v-.78l.22 1.7.16.52.52 2.35.01.16.2 1.84-.01 1.34-.09-.68.17 2.37.21 1.02.09 3.68-.17-.84.08 2.35-.04 1.62" filter="url(#a)"/><path fill="#fff" d="m-36.9 3.39.4-.16.43-.16.46-.17.5-.17.53-.17.56-.18.59-.18.62-.18.66-.19.68-.18.71-.19.75-.19.76-.19.8-.19.82-.18.81-.23.85-.23.9-.22.94-.23.99-.22 1.02-.22 1.07-.21 1.1-.21 1.14-.21 1.16-.2 1.2-.19 1.22-.18 1.24-.17 1.26-.17 1.27-.15 1.29-.14 1.3-.14 1.3-.12 1.3-.11 1.31-.09 1.3-.09 1.3-.07 1.28-.06L.2-3.2l1.26-.03 1.24-.02 1.23-.01 1.2.01 1.18.01 1.16.03 1.13.04 1.1.06 1.07.06 1.04.07 1.01.09.97.09.94.11.91.11.87.12.84.13.81.14.77.14.73.15.7.15.67.15.64.16.61.16.57.17.55.16.53.16.5.17.47.16.44.17.42.16.4.17.37.17.34.17.32.16.31.17.27.16.26.16.24.16.21.16.2.16-3.62-.98-.4.14-.42.12-.43.12-.45.12-.46.11-.48.1-.49.1-.5.09-.52.09-.53.09-.55.08-.56.07-.57.08-.59.07-.6.06-.62.06-.64.06-.65.06-.67.05-.69.05-.7.05-.71.05-.74.04-.75.05-.76.04-.78.05-.79.04-.81.05-.82.05-.83.05-.85.05-.86.05-.87.05-.88.06-.89.05-.9.06-.91.06-.92.07-.93.06-.93.07-.94.07-.95.07-.96.07-.95.07-.96.08-.97.08-.97.07-.96.08-.97.08-.97.08-.97.08-.97.08-.96.07-.96.08-.96.07-.95.07-.94.07-.94.07-.93.06-.92.06-.91.05-.9.05-.88.04-.88.04-.75.05-.75.05-.73.04-.73.04-.71.04-.69.03-.68.04-.66.03-.65.02-.63.02-.6.02-.59.02-.57.01-.54.01-.52.01" filter="url(#a)" transform="translate(51.96 -21.39)"/><path fill="#fff" d="m37.61 4.45-.43-.14-.46-.14-.49-.15-.52-.16-.56-.16-.58-.16-.61-.17-.64-.18-.67-.18-.7-.18-.72-.19-.75-.19-.78-.19-.8-.2-.82-.19-.82-.21-.86-.22-.91-.22-.95-.23-.98-.23-1.03-.23L21.47.3 20.38.06l-1.12-.23-1.14-.23-1.18-.22-1.19-.23-1.22-.21-1.23-.21-1.24-.2-1.25-.2-1.26-.18-1.27-.18-1.27-.17-1.27-.15-1.26-.14-1.26-.13-1.25-.12-1.24-.1-1.23-.09L-1.71-3l-1.19-.07-1.18-.04-1.15-.03-1.13-.02-1.11-.01-1.08.01-1.05.03-1.02.03-1 .06-.96.06-.94.07-.9.09-.87.1-.84.11-.81.12-.78.12-.74.14-.72.14-.68.15-.66.15-.63.16-.6.16-.58.16-.55.17-.53.16-.5.17-.48.17-.46.18-.44.18-.41.17-.39.18-.37.18-.35.18-.33.18-.31.17-.3.18-.27.17-.26.18 2.21-.03.34.07.35.07.37.06.39.06.4.06.42.05.43.04.45.05.47.04.49.03.5.04.52.03.53.03.56.03.57.03.59.02.61.02.63.03.65.02.67.02.7.02.71.02.74.02.76.03.78.02.8.03.82.03.84.04.87.03.88.05.9.04.92.05.94.06.96.05.97.07.99.06 1 .07 1.02.08 1.03.08 1.04.08 1.05.09 1.06.09 1.07.1 1.07.09 1.08.1 1.08.11 1.08.1 1.09.11 1.08.1 1.08.11 1.07.11 1.07.11 1.06.1 1.05.11 1.05.1 1.02.1 1.02.09 1 .1.98.08.97.09.94.07.92.07.91.07.87.06.8.07.79.07.76.06.76.06.73.06.71.06.7.05.68.05.65.04.63.04.61.04.59.04.56.03.53.02.51.03" filter="url(#a)" transform="translate(-43.95 -20.93)"/><g fill="none" stroke="#000" transform="translate(51.96 -21.39)"><path stroke-linejoin="round" stroke-width="1.667" d="m-39.11 4.52.08-.07.12-.08.14-.09.17-.11.2-.11.24-.12.27-.13.29-.13.34-.15.36-.14.4-.16.43-.16.46-.17.5-.17.53-.17.56-.18.59-.18.62-.18.66-.19.68-.18.71-.19.75-.19.76-.19.8-.19.82-.18.81-.23.85-.23.9-.22.94-.23.99-.22 1.02-.22 1.07-.21 1.1-.21 1.14-.21 1.16-.2 1.2-.19 1.22-.18 1.24-.17 1.26-.17 1.27-.15 1.29-.14 1.3-.14 1.3-.12 1.3-.11 1.31-.09 1.3-.09 1.3-.07 1.28-.06L.2-3.2l1.26-.03 1.24-.02 1.23-.01 1.2.01 1.18.01 1.16.03 1.13.04 1.1.06 1.07.06 1.04.07 1.01.09.97.09.94.11.91.11.87.12.84.13.81.14.77.14.73.15.7.15.67.15.64.16.61.16.57.17.55.16.53.16.5.17.47.16.44.17.42.16.4.17.37.17.34.17.32.16.31.17.27.16.26.16.24.16.21.16.2.16.18.15.16.15.14.14.13.15.11.14.09.13.08.13.07.13.05.13.03.12" filter="url(#a)"/><path stroke-linejoin="round" stroke-width="2.222" d="m-38.39 5.26.2.03.23.02.27.02.31.01.34.01.38.01.41.01h1.39l.52-.01.54-.01.57-.01.59-.02.6-.02.63-.02.65-.02.66-.03.68-.04.69-.03.71-.04.73-.04.73-.04.75-.05.75-.05.88-.04.88-.04.9-.05.91-.05.92-.06.93-.06.94-.07.94-.07.95-.07.96-.07.96-.08.96-.07.97-.08.97-.08.97-.08.97-.08.96-.08.97-.07.97-.08.96-.08.95-.07.96-.07.95-.07.94-.07.93-.07.93-.06.92-.07.91-.06.9-.06.89-.05.88-.06.87-.05.86-.05.85-.05.83-.05.82-.05.81-.05.79-.04.78-.05.76-.04.75-.05.74-.04.71-.05.7-.05.69-.05.67-.05.65-.06.64-.06.62-.06.6-.06.59-.07.57-.08.56-.07.55-.08.53-.09.52-.09.5-.09.49-.1.48-.1.46-.11.45-.12.43-.12.42-.12.4-.14.39-.13.38-.15.36-.15.35-.15.33-.17.32-.17.31-.17.3-.18.28-.19.27-.19" filter="url(#a)"/><circle cx="3" cy="3.267" r="3.85" clip-path="url(#b)" filter="url(#a)"/><circle cx="1.5" cy="5.192" r="4.278" clip-path="url(#b)" filter="url(#a)"/><circle cx="1.155" cy="2.852" r="4.258" clip-path="url(#b)" filter="url(#a)"/><circle cx="3.96" cy="3.007" r="3.82" clip-path="url(#b)" filter="url(#a)"/><circle cx="3.57" cy="4.407" r="4.416" clip-path="url(#b)" filter="url(#a)"/><circle cx="1.685" cy="4.127" r="4.466" clip-path="url(#b)" filter="url(#a)"/><circle cx="4.09" cy="1.947" r="4.048" clip-path="url(#b)" filter="url(#a)"/><circle cx="3.945" cy="4.937" r="4.014" clip-path="url(#b)" filter="url(#a)"/><circle cx=".68" cy="2.602" r="3.84" clip-path="url(#b)" filter="url(#a)"/><circle cx="4.65" cy="2.032" r="4.902" clip-path="url(#b)" filter="url(#a)"/></g><g fill="none" stroke="#000" transform="translate(-43.95 -20.93)"><path stroke-linejoin="round" stroke-width="2.222" d="m40.21 5.41-.12-.06-.16-.07-.18-.07-.21-.09-.24-.09-.28-.1-.3-.11-.34-.12-.37-.12-.4-.13-.43-.14-.46-.14-.49-.15-.52-.16-.56-.16-.58-.16-.61-.17-.64-.18-.67-.18-.7-.18-.72-.19-.75-.19-.78-.19-.8-.2-.82-.19-.82-.21-.86-.22-.91-.22-.95-.23-.98-.23-1.03-.23L21.47.3 20.38.06l-1.12-.23-1.14-.23-1.18-.22-1.19-.23-1.22-.21-1.23-.21-1.24-.2-1.25-.2-1.26-.18-1.27-.18-1.27-.17-1.27-.15-1.26-.14-1.26-.13-1.25-.12-1.24-.1-1.23-.09L-1.71-3l-1.19-.07-1.18-.04-1.15-.03-1.13-.02-1.11-.01-1.08.01-1.05.03-1.02.03-1 .06-.96.06-.94.07-.9.09-.87.1-.84.11-.81.12-.78.12-.74.14-.72.14-.68.15-.66.15-.63.16-.6.16-.58.16-.55.17-.53.16-.5.17-.48.17-.46.18-.44.18-.41.17-.39.18-.37.18-.35.18-.33.18-.31.17-.3.18-.27.17-.26.18-.24.17-.22.16-.21.17-.19.16-.18.16-.16.15-.15.15-.13.15-.13.14-.11.14" filter="url(#a)"/><path stroke-linejoin="round" stroke-width="2.222" d="m39.63 6.05-.19.01h-.78l-.33-.01h-.36l-.39-.01-.42-.02-.46-.01-.48-.02-.51-.03-.53-.02-.56-.03-.59-.04-.61-.04-.63-.04-.65-.04-.68-.05-.7-.05-.71-.06-.73-.06-.76-.06-.76-.06-.79-.07-.8-.07-.87-.06-.91-.07-.92-.07-.94-.07-.97-.09-.98-.08-1-.1-1.02-.09-1.02-.1-1.05-.1-1.05-.11-1.06-.1-1.07-.11-1.07-.11-1.08-.11-1.08-.1-1.09-.11-1.08-.1-1.08-.11-1.08-.1-1.07-.09-1.07-.1-1.06-.09-1.05-.09L.5 2.93l-1.03-.08-1.02-.08-1-.07-.99-.06-.97-.07-.96-.05-.94-.06-.92-.05-.9-.04-.88-.05-.87-.03-.84-.04-.82-.03-.8-.03-.78-.02-.76-.03-.74-.02-.71-.02-.7-.02-.67-.02-.65-.02-.63-.03-.61-.02-.59-.02-.57-.03-.56-.03-.53-.03-.52-.03-.5-.04-.49-.03-.47-.04-.45-.05-.43-.04-.42-.05-.4-.06-.39-.06-.37-.06-.35-.07-.34-.07-.33-.08-.31-.08-.3-.09-.28-.09-.27-.1-.25-.11-.25-.11-.23-.11-.21-.12-.21-.12" filter="url(#a)"/><circle cx="4.939" cy="2.499" r="4.462" clip-path="url(#c)" filter="url(#a)"/><circle cx="7.159" cy="2.824" r="4.2" clip-path="url(#c)" filter="url(#a)"/><circle cx="6.719" cy="-1.736" r="4.43" clip-path="url(#c)" filter="url(#a)"/><circle cx="5.919" cy="-.726" r="3.106" clip-path="url(#c)" filter="url(#a)"/><circle cx="7.104" cy="2.324" r="3.69" clip-path="url(#c)" filter="url(#a)"/><circle cx="7.364" cy="-.686" r="3.216" clip-path="url(#c)" filter="url(#a)"/><circle cx="7.229" cy=".104" r="4.904" clip-path="url(#c)" filter="url(#a)"/><circle cx="7.239" cy="1.624" r="4.108" clip-path="url(#c)" filter="url(#a)"/><circle cx="4.864" cy="1.359" r="4.236" clip-path="url(#c)" filter="url(#a)"/><circle cx="4.739" cy="2.574" r="4.38" clip-path="url(#c)" filter="url(#a)"/></g><g fill="none" stroke="url(#d)" stroke-linejoin="round" stroke-width="2"><path d="M66.82-44.38-7.35-54.85-21.6-66.04l4.81-6.8 9.52-2.18 9.46 1 6.88 2.35 3.14 2.2.36 1.26-.2.24.91-.39 2.04-.49 1.89-.32.41-.18-1.22-.01-.78.9 4.26 3.66 14.46 8.41L57.11-44.3l9.92.67" filter="url(#a)"/><path d="m15.96-81.04 19.4 16.99-17.62 5.65-23.51 1.81-11.78-.04 1.02-1.83 7.89-3.31 9.11-3.8 7.22-3.16 4.5-1.8 2.57-.19 2.3 1.25 3.18 2.14 3.52 1.95 2.01.48-.34-1.43-1.25-1.94-2.92-.03L3.6-65.5l-60.96 8.71" filter="url(#a)"/><path d="m-57.36-56.79 65.4-4.37 13.79-4.93.09-2.77-3.61-1.79-6.18-1.15-8.46-.18-9.57.77-8.71 1.18-5.63.87-.74.14 4.75-.6 9.18-.99 10.99-.95 9.34-.62 4.82-.27-.57.03-3.82.47-1.87 1.56 6.48 3.9 17.74 7.78 21.6 10.41 5.52-1.48" filter="url(#a)"/><path d="M66.82-44.38 6.53-63.48l-8.37-4.14 9.52 2.04 7.31 2.44.77.67-2.78-.5-3.66-.38-4.12.33-4.45.62-3.19.2.7-.62 6-1.28 9.81-1.47 9.55-1.24 4.64-.74-3.29-.09-11.23.59L.26-65.48l3.45 4.68 61.87 14.99" filter="url(#a)"/><path d="m-16.22-80.7 49.55 22.92 3.05 1.39-9.46-2.37-7.59-.45-6.4.53-8.28-.46-9.28-2.07-6.64-2.91-1.26-2.36 3.87-.64 6.26 1.45 5.44 2.82 2.95 2.57 1.07.54 1.49-2.37 3.97-4.38 5.33-4.04-.45-1.53-19.38 2.08-53.09 10.9" filter="url(#a)"/><path d="m37.15-72.79-25.58-4.64-21.98 2.36-12.33 5.95-.44 5.84 8.02 3.35 11.25.63 11.38-.66 10.81-.3 9.98.82 7.97 1.55 4.21 1.27-.64.21-4.85-.92-6.71-1.55-5.51-1.65-1.92-1.7 2.14-2.16 4.71-2.71 5.08-2.07 4.93 1.35 8.71 9.63 28.1 30.79" filter="url(#a)"/><path d="M69.46-39.83 47.58-60.4 33.63-70.55l-10.3-4.62-10.5-2.16-9.89-1.04-6.46-.5-1.11-.06 4.07.58 7.03 1.43 6.59 2.27 2.96 2.95-1.78 3.43-4.47 3.66-2.88 2.86 1.59-.05 5.14-4.32 10.53-3.52 32.88 12.35" filter="url(#a)"/><path d="m-5.42-82.26-3.45 17.82 17.06 2.6 3.87-4.26-4.42-4.44-4.59-2.36-1.59-.51.02.44-1.18.65-3.79.41-5.43-.04-4.71-.46-1.82-.55 2.22-.06 6.5.84 9.97 1.5 10.5.92 5.81-1.35-3.19-4.17L6.14-79.9l-17.18-1.82" filter="url(#a)"/><path d="m-55.55-59.22 59.31-6.6 15.55-3.91 6.84.69 5.78 2.79 4.59 3.35 1.66 2.78-2.54.91-6.26-1.73-7.75-3.83-6.87-4.25-4.95-2.83-3.44-.23-2.06 2.64 1.33 5.08 8.37 6.56 16.54 6.11 17.71 2.06L53.69-56l-8.98-11.91" filter="url(#a)"/><path d="M71.51-35.62 25.56-51.94l-1.14-6.09 2.64-4.47 2.19-1.7 2.48.63 2.93 1.52 2.42 1.19.25.26-3.41-.76-7.63-1.48-11.19-1.65-13.23-1.22-13.53-.41-12.25.44-9.59 1-5.49 1.06.23.51 7.52-.58 15.37-1.9 21.12-2.62 20.88-1.87 12.69-.12-2.62-3.4" filter="url(#a)"/><path d="m-35.76-73.42 18.08-1.15 14.49 6.59 7.34 3.51 1.75-.8 1.29-2.28 3.42-1.68 4.51-.65 3.06-.01.01.19-2.56.32-2.96.79-.9 1.75 2.51 2.93 5.62 3.9 6.82 4.14 4.9 3.28-.51 1.19-7.81-1.84-12.19-4.4-8.73-4.09-5.96.53-51.76 2.22" filter="url(#a)"/><path d="m57.03-57.29-14.98-8.07-12.91-4.21-1.66 1.67 3.49 3.14 2.61 1.42v-.36l-2.02-.69-3.16.04-3.71.77-3.82.8-3.63.28-3.29-.04-3.06.49-3.2 1.55-3.99 1.93-5.19.3-5.38-3.2-1.05-5.67 13.4-1.92L55.7-58.7M-.09-82.48l1.21-1.95 1.41-.32 1.2-.22 1.02-.25 1.05-.19 1.23-.15 1.4-.19 1.48-.29 1.43-.41 1.34-.53 1.28-.72 1.27-.97 1.29-1.26 1.37-1.45 1.65-1.49 2.7-1.74M-2.52-82.53l-.49-.77-1.02-.45-1.14-.23-1.17-.03-1.16.07-1.14.01-1.08-.12-1.04-.29-1.05-.45-1.1-.56-1.17-.65-1.26-.67-1.28-.66-1.23-.63-1.2-.69-1.23-.5" filter="url(#a)"/><path d="m-2.52-82.53 1.9-.12 1.57-.11 1.4-.03 1.19-.04 1.07-.07 1.09-.08 1.2-.07 1.32-.05 1.36-.04 1.32-.03 1.23-.02 1.14.01 1.08.05 1.06.08 1.09.09 1.14.1 1.18.09 1.13.1 1.07.13 1.55.04-27.99.24 1.16-.32 1.2-.4 1.23-.78 1.32-1.1L.86-85.9l1.33-.66 1.24-.21 1.17.11 1.17.24 1.24.22 1.35.12h1.4l1.38-.09 1.31-.13 1.23-.17 1.17-.24 1.16-.34 1.21-.4 1.36-.35 1.54-.14 1.3.21" filter="url(#a)"/><path d="m-10.21-82.03 1.09-.82 1.01-1.19 1.14-.88 1.18-.33 1.17-.05 1.18-.11 1.23-.41 1.3-.76 1.37-1.01 1.4-1.05 1.32-.87 1.17-.71 1.02-.81 1.09-1.24 1.41-1.5 1.23-.82 5.58 19.86-.91-.81-.86-.57-.93-.5-1.01-.52-1.12-.55-1.22-.58-1.23-.58-1.19-.52-1.12-.4-1.08-.25-1.11-.09-1.17.03-1.23.06H-.75l-1.23-.16-1.21-.34-1.18-.47-1.18-.48-1.19-.35-1.18-.13-1.12.04-1.04.07-.96.11-.52 1.57-.67 1.62-.86 1.25-1 .6-1.02.32-1 .4-1.02.6-1.1.64-1.19.57-1.25.54-1.19.68-1.05.96-.89 1.22-.81 1.26-.8 1.08-.75.99-.36 1.39.56 2.15 14.92-17.84-.1 4.48-.94-.16-1.14-.6-1.14-.31-1.09-.07-1.07.11-1.06.37-1.05.7-1.04 1.12-.97 1.59-.86 2.02-.71 2.24-.56 2.09-.55 1.68-.78 1.58M77.91-14.09l.25-1.22.12-1.18.33-1.45.47-1.58.42-1.6.31-1.55.29-1.53.39-1.54.57-1.61.72-1.66.7-1.64.49-1.55.1-1.41-.35-1.26-.7-1.17-.83-1.16-.67-1.26-.31-1.46.09-1.68.33-1.82.41-1.73.69-1.27 1.77-.43-5.59 32.76.84.84 1.67.99 2.16.91 1.73.91.92.99.32 1.11.12 1.28.18 1.43.39 1.53.71 1.61 1.18 1.67L89.86.92l2.16 1.79 2.19 1.71 1.76 1.39 1.58.82 3.04.23" filter="url(#a)"/><path d="m-11.77-81.54.71-.76.87-.7 1-.48 1.1-.37 1.17-.22 1.19-.04 1.2.03 1.22-.01 1.25-.15 1.29-.28 1.31-.38 1.3-.46 1.27-.48 1.24-.5 1.24-.47 1.3-.46 1.41-.44 1.49-.44 1.49-.44 1.41-.38 1.28-.26 1.21-.19 1.19-.3 1.32-.37m-52.04 5.57.38.02 1.27.45 1.57.59 1.63.63 1.63.64 1.65.57 1.66.42 1.65.22 1.57.03 1.44-.18 1.27-.35 1.13-.42 1.03-.24 1.1.25 1.48.63-1.79.19 1.6.34 1.38 1.26 1.14.98.97.48.96.38 1 .54 1.07.67 1.11.62 1.1.46 1.1.27 1.09.14 1.11.04 1.14-.07 1.17-.12 1.16-.07 1.09.13.98.41.88.63.89.78 1.09.93L7.84-71l2.27 1.86" filter="url(#a)"/><path d="m-15.68-81.07-.81-.39-1.25-1.11-1.4-.74-1.45-.18-1.54.02-1.65-.08-1.74-.34-1.79-.63-1.79-.84-1.79-.98-1.85-1.23-1.97-1.81-2.14-2.68-2.21-3.2-2.18-2.38-2.83-.14" filter="url(#a)"/><path d="m-16.22-80.7.06-4.73.99-1.32 1.25.49 1.2.84 1.09.51 1.01.02 1.01-.45 1.04-.84 1.08-1.11 1.12-1.25 1.15-1.19 1.18-1.04 1.23-.83 1.32-.68 1.46-.59 1.67-.7L3.6-94.6 6-95.74l-23.17 15.07-1.33.23-1.42.33-1.43.42-1.46.47-1.42.44-1.35.39-1.25.36-1.17.36-1.07.37-1.01.38-.98.39-1.02.4-1.08.43-1.15.44-1.17.45-1.16.45-1.11.46-1.09.5-1.09.58-1.1.62-1.15.64-1.34.87L-.1-96.1l-1.82 1.78-1.28.62-1.21.43-1.21.64-1.19 1.01-1.15 1.28-1.08 1.3-1.04 1-1 .58-.99.3-.98.32-.98.58-.99.85-.99.9-.89.98-.69 1.5-.72 1.56" filter="url(#a)"/><path d="m-18.31-80.47 1-.1.93-.17.99-.2 1.05-.19 1.05-.15.99-.13.95-.09.92-.08.95-.07 1.01-.05 1.1-.05 1.15-.03 1.15-.04 1.19-.06 1.54-.06-15.97 1.47.92-.6.92-.31.99-.34 1.04-.42 1.01-.49.97-.5.93-.48.94-.47.98-.52 1.03-.57 1.09-.58 1.14-.5 1.17-.35 1.18-.21 1.2-.16 1.25-.24 1.34-.38 1.47-.49 1.71-.49-43.43 22.84 1.09-1.06.79-1.11.79-1.03.86-.86.92-.68.98-.58 1.02-.61 1.01-.71.96-.77.89-.78.83-.73.82-.64.89-.55.99-.47 1.11-.37 1.22-.29 1.33-.37 1.4-.71 1.29-1.05.74-.57" filter="url(#a)"/><path d="m-20.83-79.89-2 .66-1.77.28-1.49-.07-1.34-.08-1.25.03-1.2.03-1.19-.11-1.25-.33-1.39-.47-1.53-.45-1.56-.24-1.45.07-1.28.31-1.21.32-1.37.14-1.64-.06-1.71-.52 19.63 2.53-1.43-3.18-1.25-.61-.95.86-.81 1.15-.82.87-.97.44-1.2.07-1.42-.16-1.58-.29-1.64-.39-1.67-.43-1.68-.45-1.71-.45-1.77-.49-1.82-.53-1.81-.53-1.75-.39-1.8-.19-2.25-.18-3.15-.34-3.34.19 34.82 5.03 2.37-1.16 1.68-.86 1.33-.82 1.21-.67 1.16-.45 1.13-.3 1.1-.24 1.08-.3 1.04-.41.98-.55.94-.61.93-.58.97-.45 1.05-.33 1.13-.3 1.18-.36 1.18-.46 1.16-.51 1.04-.39.5-.07-23.02 9.64.69-.58 1.49-.75 1.52-.7 1.36-.76 1.18-1 1.02-1.36.91-1.68.85-1.84.86-1.8.89-1.59.93-1.29.95-1.04.96-1 .97-1.22 1.02-1.61 1.13-1.82 1.25-1.56 1.25-1.1 1.05-1.19-21.48 24.22-1.42.61-1.07.54-.82.52-.74.59-.82.72-.93.8-1 .81-1.01.75-.98.72-.92.73-.86.82-.79.91-.72 1-.71 1-.74.97-.86.92-1.02.92-1.14.97-1.11.98-.95.97-1.18 1.41 19.79-17.66.86-.44 1.09-.53 1.33-.81 1.34-1.06 1.24-1.15 1.17-1.03 1.13-.72 1.12-.43 1.12-.3 1.1-.36 1.06-.52 1-.67.87-.85.71-1.2.61-1.75-33.35 25.05 1.72-1.6.97-.96.7-.81.7-.79.8-.75.91-.7.95-.65.94-.68.91-.74.93-.8.99-.83 1.05-.76 1.03-.62.89-.44.72-.33.75-.45.9-.7" filter="url(#a)"/><path d="m-2.02-70.79-1.37-.13-1.06-.12-1.05-.2-1.08-.5-1.07-.79-1.02-.84-.96-.63-.93-.34-.92-.07-.95.05h-1.01l-1.09-.19-1.18-.42-1.29-.62-1.4-.68-1.48-.59-1.54-.38-1.57-.18-1.5.01-1.32.18-1.21.25-1.61-.1 21.52-27.72-2.52 1.65-1.22 2.47-1.01 1.63-1.07.62-1.15.05-1.2-.03-1.21.23-1.17.67-1.08 1.19-.98 1.76-.91 2.22-.94 2.42-1.06 2.22-1.25 1.7-1.37 1.21-1.27 1.15-.93 1.66-.64 2.16-.77 1.81-.85 1.4m-1.39.75-.09-.09-.91.08-1.52-.03-1.71-.25-1.66-.39-1.53-.33-1.4-.12-1.3.14-1.22.35-1.14.46-1.1.5-1.11.53-1.25.52-1.56.5-1.92.37-1.99-.02-1.19-.94" filter="url(#a)"/><path d="m-30.93-76.1-.72.47-1.41.85-1.29.87-1.03.83-.87.85-.77.93-.68 1.1-.56 1.29-.44 1.46-.36 1.55-.36 1.57-.43 1.54-.55 1.52-.64 1.48-.69 1.34-.68 1.11-.52.9-.04.73 1.07.48" filter="url(#a)"/><path d="m-30.93-76.1-1.57-1.54-1.43.92-1.31.96-1.3.47-1.39.01-1.54-.31-1.67-.48-1.78-.59-1.9-.71-2.06-.83-2.18-.85-2.18-.64-2.02-.22-1.73.3-1.4.7-1.13.85-1.01.74-1.1.42h-1.45l-2.02-.42-2.56-.63-2.66-.42-2.15.34-1.96.83 36.58 3.45 2.3-.38 1.64-.35 1.02-.4.83-.33.92-.25 1.04-.21 1.15-.22 1.24-.23 1.31-.2 1.39-.12 1.44-.01 1.45.12 1.42.24 1.36.4 1.3.54 1.24.61 1.18.57 1.11.45 1.04.39.97.48.94.67.97.51 1.1-.43" filter="url(#a)"/><path d="m-35.85-73.75-.65-.4-1.19-.43-1.74-.9-1.98-1.05-1.81-.69-1.43-.04-1.06.59-.92.95-1.05.99-1.39.75-1.73.4-1.97.04-2.03-.3-1.92-.6-1.42-.9-.05-1.37m5.09 20.1.96-1.12.92-1.06.86-1.1.75-1.04.6-.89.51-.76.52-.75.61-.81.76-.92.91-.99 1.01-.99 1.05-.92 1.02-.82.97-.75.92-.72.93-.72.98-.74 1.03-.72 1.02-.6 1.01-.39" filter="url(#a)"/><path d="m-70.43-81.47 4.65-.08 2.56.84 1.92 1.22 1.77.96 1.87.65 2.02.4 2.05.11 1.98-.09h1.91l2 .49 2.19 1.18 2.32 1.56 2.16 1.29 1.75.5 1.36-.27.98-.38.95-.24 1.18-.23 1.46-.1 1.42-.02 1.21-.02h1.06l1.08.18 1.24.46 1.39.7 1.48.74 1.47.52 1.42.16 1.33-.17 1.3-.25 1.28-.04 1.29.41 1.29.93 1.22 1.27 1.16 1.21 1.34 1.1" filter="url(#a)"/><path d="m-39.47-71.37 1.41-1.03 1.01-.6.95-.52 1.05-.57 1.11-.64 1.09-.67.97-.64.88-.6.87-.55.93-.5 1.03-.48 1.11-.48 1.19-.56 1.28-.65 1.38-.73 1.43-.7 1.39-.55 1.61-.7-20.69 11.17-.74.45-.81.64-.74.81-.75.96-.84 1.1-.88 1.22-.83 1.29-.68 1.28-.49 1.2-.29 1.12-.16 1.09-.13 1.16-.21 1.29-.4 1.38-.59 1.3-.69 1.17-.59 1.36 8.09-18.1 1.02-.29 1.04-.54 1.04-.63 1-.6 1.02-.54 1.08-.53 1.13-.54 1.11-.52 1.04-.47.97-.41.94-.37.98-.35 1.04-.35 1.12-.37 1.19-.41 1.31-.46 1.46-.5 1.47-.41.9-.01m-22.35 9.6-5.08-11.88-.01-2.81 1.13-.94 1.19-.74 1.45-.05 1.83.75 1.95.85 1.67.02 1.12-1.2.52-2.26.02-2.94-.26-3.44-.29-3.94.02-4.3.3-5.06" filter="url(#a)"/><path d="m-75.5-74.76 3.68.15 2.04.43 1.63.25 1.38-.28 1.29-.7 1.34-.77 1.41-.58 1.48-.21 1.63.33 2 1.02 2.51 1.63 2.86 1.82 2.76 1.27 2.15.06 1.35-1.17.91-1.07 2.39 3.23.06-.42-1.31 1.05-1.42 1.38-1.12 1.3-.89 1.03-.74.75-.64.61-.6.58-.66.67-.76.77-.83.84-.82.89-.69.92-.51.98-.4 1.06-.46 1.2-.67 1.34-.81 1.24-.21.47" filter="url(#a)"/><path d="m-43.54-69.12.7-.33.77-.24.96-.29 1.07-.36 1.13-.36 1.18-.27 1.24-.09 1.32.08 1.38.17 1.37.14 1.3.05h1.19l1.11.04 1.09.17 1.14.29 1.2.37 1.26.39 1.3.39 1.4.36 1.69.25 1.94.1-28.38 1.33-1.74.08-1.08.33-1.11.09-1.09-.1-1.24-.24-1.59-.38-1.86-.38-1.83-.14-1.5.26-1.09.63-.93.77-1.13.6-1.64.3-2.14.1-2.13.16-1.37.58-.67 1.37M57.53-34.82l1.94.27.74.24.42.61.63.76.98.72 1.22.64 1.29.62 1.18.68 1.04.76.96.81 1.01.78 1.11.74 1.2.73 1.13.8.92.9.68 1.02.58 1.08.69 1.13.86 1.16.76 1.07.27.46" filter="url(#a)"/><path d="m-67.67-47 1.14-1.43.88-1.07.91-1.03.93-1.04.91-.99.89-.93.87-.88.87-.89.9-.91.91-.94.91-.92.89-.87.87-.81.88-.77.91-.77.96-.77.99-.75.94-.68.79-.55.64-.44.62-.44.69-.58.24-.31.41-3.74-.3-4.29.36-2.31.99-.78 1.35-.05 1.51.19 1.52.16 1.4-.11 1.19-.53.97-1.03.77-1.51.63-1.9.54-2.12.47-2.17.46-2.04.53-1.81.69-1.58.86-1.42.96-1.44.94-1.61.99-2.03 1.62-3.69" filter="url(#a)"/><path d="m-49.85-64.12.78-2.16.89-1.22 1.24-.98 1.35-.84 1.26-.73 1.09-.7.97-.74.89-.81.88-.85.9-.85.94-.8.99-.7 1.08-.65 1.15-.61 1.18-.63 1.08-.65.87-.67.65-.67.7-.68 1.02-.55-19.91 16.49 2.39.06 1.51-.32 1.48-.54 1.49-.51 1.38-.37 1.21-.4.98-.6.84-.8.79-.85.86-.77.96-.57 1.08-.35 1.2-.17 1.28.01 1.33.16 1.33.33 1.3.52 1.29.66 1.27.67 1.24.51 1.18.26 1.11.11h1.15l1.61-.92-45.55 22.76.84-1.57.72-1.11.75-1.1.76-1.12.74-1.09.71-1.02.7-.97.74-.95.78-.98.83-.99.83-.99.79-.94.76-.87.75-.8.82-.81.94-.86 1.06-.95 1.04-.97.64-.68-.47.23" filter="url(#a)"/><path d="m-64.45-45.17.18-.41.49-.94.59-1.07.66-1.12.69-1.14.69-1.1.66-1.05.67-1.01.69-.98.76-.99.83-1 .86-.97.84-.9.77-.81.72-.75.72-.79.81-.9 1.08-1.15 1.98-1.98" filter="url(#a)"/><path d="m-59.14-40.45-.61-1.15-.35-1.12-.14-1.26.04-1.33.21-1.34.36-1.3.44-1.23.49-1.13.53-1.06.55-1.04.55-1.12.57-1.25.63-1.28.77-1.02.9-.49.74-.27-.71-2.27" filter="url(#a)"/><path d="m-54.17-60.11-.83.63-.54.54-.74.73-.93.93-.94 1.02-.88 1.01-.79.97-.75.95-.75.96-.78.98-.81 1.01-.8 1.01-.78.98-.73.94-.68.93-.65.96-.68 1.05-.69 1.13-.58.92-.25.01" filter="url(#a)"/><path d="m-63.5-44.11.84-1.48.56-1.16.61-1.13.68-1.13.65-1.12.56-1.11.46-1.11.45-1.1.58-1.09.78-1.06.89-1.05.81-1.01.48-.94.25-.78.73-.73-1.38.89-.01.25-.74.54-1.31.67-1.49.63-1.4.56-1.18.59-1 .69-.92.79-1.02.84-1.17.81-1.29.76-1.24.75-1.15.74-1.24.48-1.54-.51M77.14-18.65l.14.79.21 1.27.21 1.13.21 1.07.2 1.07.19 1.1.17 1.1.13 1.08.11 1.07.08 1.1.07 1.18.07 1.29.06 1.39.05 1.45.02 1.48.02 1.54.02 1.66.02 1.74-.06 1.49" filter="url(#a)"/><path d="m-47.9-77.82.18 1.01-1.02 1.02-1.16 1.48-.89 1.71-.67 1.57-.67 1.1-.8.54-.97.16-1.05.17-.95.65-.58 1.4-.03 2.16.43 2.56.46 2.22.28 1.09" filter="url(#a)"/><path d="m-57.36-56.79-1.1 1.35-.45 1.05-.44 1.01-.54.99-.59 1.04-.54 1.17-.43 1.27-.34 1.33-.3 1.27-.36 1.18-.43 1.08-.46 1.04-.37 1.08-.23 1.16-.1 1.23-.04 1.24-.08 1.22-.12 1.19-.11 1.16-.08 1.09-.09.93-.29.87 5.53-22.96 1.63-1.95.92-1.61.51-1.18.51-.94.62-.92.64-1.1.51-1.38.22-1.69-.14-2.01-.46-2.29-.62-2.51-.55-2.62-.28-2.62.1-2.53.43-2.44.6-2.32.62-2.12.63-1.8.6-1.68.15-2.43-.97-4.07-10.96 58.07.15-.46.1-.61.27-.95.39-1.1.43-1.09.36-1.08.24-1.14.16-1.26.18-1.35.3-1.38.46-1.31.55-1.18.59-1.03.69-1 .93-1.28-1.16 1.09-1.15.62-1.03.69-.92.93-.89 1.04-.92.97-.96.85-.94.78-.88.8-.78.88-.73.97-.71.97-.72.9-.73.88-.76.96-.81.9-.4-.49" filter="url(#a)"/><path d="m-60.03-53.7.59-1.16.09-1.61.06-1.99.17-1.86.24-1.54.3-1.3.39-1.21.56-1.2.7-1.26.67-1.41.42-1.52.11-1.39.02-1.04.29-1.1.77-2.6-5.84 22.75-2.17 1.6-1.96.63-2.31-.02-2.22-.11-1.67.23-1.09.67-.86.93-1.04.88-1.42.64-1.75.4-1.91.32-1.99.36-2.12.39-2.24.37-1.91.46-.05.63" filter="url(#a)"/><path d="m-56.6-77.35-.09.59-.35 1.28-.12 1.26-.12 1.2-.36 1.24-.6 1.28-.71 1.33-.58 1.42-.27 1.58.05 1.82.24 2 .2 2.05-.02 1.95-.26 1.71-.39 1.43-.38 1.19-.28.87.15.01m0 0-3 .97-2.97-.1-3.19-.67-2.24-.11-.95.78-.37 1.25-.8 1.06-1.87.43-2.99-.27-3.64-.68-3.58-.6-2.86-.06-1.75.67-.69 1.28-.18 1.46-.66 1.05-2.96-.05" filter="url(#a)"/><path d="m-42.13-61.06-1.14.7-.91.39-.94.16-.88.05-.87.09-.96.24-1.04.39-1.12.47-1.13.46-1.13.41-1.15.36-1.18.38-1.2.48-1.18.63-1.09.75-.97.81-.81.8-.73.77-.8.84-1.47 1.65-1.4 2.26-.52.55-.73.74-1.03.59-1.56.38-2.15.09-2.6-.18-2.75-.28-2.51-.1-1.95.3-1.33.74-.92 1.02-.98 1.03-1.56.79-2.44.49-3.15.17-3.5-.85 29.39-5.38.92-.25.74-1 .88-1.04 1-.89 1.03-.73 1.07-.62 1.1-.6 1.12-.64 1.07-.71 1-.74.96-.71.97-.58 1.06-.45 1.17-.35 1.26-.31 1.26-.3 1.17-.26 1.01-.14h.88l.83-.03.75-.34.24-.24" filter="url(#a)"/><path d="m-66-45.14.36-.56.49-.62.63-.81.77-.9.86-.94.87-.98.82-1 .78-.98.76-.94.8-.91.88-.88.94-.86.95-.84.91-.81.86-.75.84-.71.9-.7 1.01-.75 1.11-.83 1.08-.88.68-.61-.35.35-19.13 20.66-.28-.04-.72.8-.96.95-1.05.86-.99.84-.87.89-.8.99-.8 1.04-.9 1.07-1.04 1.05-1.15 1-1.2.97-1.16.96-1.11.98-1.06 1.05-1.05 1.14-1.05 1.19-.95 1.18-.85 1.03-.92.67-.74-.07" filter="url(#a)"/><path d="m-68.17-42.09-5.09-1.28-.84 1.43-1.05 1.05-1.71.57-1.98.43-1.85.55-1.47.81-.96 1.11-.52 1.37-.32 1.48-.42 1.42-.8 1.24-1.33 1.03-1.86.91-2.24.88-2.41.91-2.4.88-2.32.75-2.22.42-3.04-.66" filter="url(#a)"/><path d="m-70.51-37.37-1.52-1.3-2.68-.41-1.71.41-.51 1.15-.16 1.43-.43 1.37-.82 1.22-1.1 1.09-1.32.99-1.53.9-1.79.84-2.08.81-2.24.82-2.24.87-2.08.93-1.88 1.01-1.79 1.11-1.88 1.25-2.03 1.42-2.05 1.56-1.8 1.72-1.44 2.05M78.3 1.63l.11-1.57.07-1.4.04-1.38-.01-1.43-.05-1.4-.05-1.27-.07-1.15-.07-1.08-.08-1.07-.11-1.08-.12-1.09-.14-1.1-.16-1.1-.16-1.11-.18-1.16-.2-1.24-.24-1.31-.32-1.44-.4-1.73" filter="url(#a)"/><path d="m-69.43-39.24-.68-.14-1.3-2.13-1.61-2.37-.92-1.85.07-1.32.63-1.08.63-1.14.36-1.3.16-1.42.12-1.51.05-1.71-.15-2.03-.36-2.32-.32-2.19v-1.6l-.04-1.77 3.36 25.88-1.01 2.07-.45 1.26-.25 1.22-.24 1.25-.2 1.29-.07 1.36.17 1.44.4 1.46.48 1.4.4 1.32.24 1.28.21 1.35.45 1.44.88 1.5 1.3 1.49 1.61 1.51-5.56-19.31-4.24-1.87-2 .3-1.1.99-.48 1.33-.25 1.44-.27 1.42-.38 1.31-.6 1.19-.96 1.07-1.39.99-1.83.91-2.18.84-2.36.8-2.25.83-1.81 1-1.19 1.31-.75 1.62-1 1.73-1.81 1.62-1.45 1.9" filter="url(#a)"/><path d="m-71.07-35.91 1.19.83-.08 1.06-.26 1.19.06 1.36.33 1.49.29 1.48-.01 1.3-.34 1.07-.49.97-.43 1.04-.24 1.2-.02 1.33.32 1.35.81 1.38 1.26 1.46-39.56 11.29 1.7-1.94 2.49-.93 2.43-.87 1.67-1.22 1.07-1.48.91-1.51 1.16-1.39 1.67-1.24 2.22-1.1 2.58-1.02 2.56-1.02 2.12-1.08 1.36-1.21.55-1.38-.06-1.53-.21-1.54.22-1.37 1.08-1.01 1.97-.63 2.39-.47 2.12-.65 1.41-1.01.83-1 1.1.11-1.79 5.51.35-.91.55-1.2.68-1.29.65-1.24.6-1.17.6-1.1.61-1.05.64-.99.67-.96.68-.94.7-.93.7-.9.7-.89.69-.9.67-.92.68-.92.7-.87.75-.8.81-.73.85-.73.8-.78.58-.68" filter="url(#a)"/><path d="m-89.88-8.55.96.19.28-1.19.42-1.61.67-1.5 1.04-1.23 1.4-1.07 1.62-1.04 1.58-1.1 1.33-1.17.96-1.19.6-1.18.39-1.16.37-1.19.58-1.25.96-1.27 1.16-1.13.87-.45m150.31 2.88.12.66.32 1.24.33 1.42.29 1.41.26 1.34.23 1.26.2 1.18.17 1.14.14 1.11.11 1.11.1 1.11.06 1.08.04 1.08.01 1.09-.02 1.16-.04 1.28-.04 1.39-.07 1.42-.08 1.39-.1 1.4-.02 1.55m-2.01-25.82-.52-1.07-.85-1.39-.97-1-.99-.75-1.13-.65-1.36-.62-1.51-.59-1.43-.64-1.15-.74-.81-.89-.55-.98-.47-.96-.61-.79-.93-.53-1.4-.29-1.85-.25-1.91-.32-1.28.29 17.81 6.39-.29 1-1.04-.57-1.15-.91-1.18-.88-1.14-.82-1.03-.83-.83-.9-.6-1-.4-1.05-.34-1.05-.41-.99-.62-.9-.86-.81-1.02-.73-1.11-.64-1.14-.55-1.21-.43-1.36-.32-1.51-.21-1.4-.22-.6-.39" filter="url(#a)"/><path d="m74.48-27.4-.31-.84.12.95.07 1.42-.09 1.41-.1 1.32.01 1.29.15 1.29.2 1.3.17 1.3.06 1.26-.08 1.22-.21 1.17-.26 1.15-.24 1.13-.22 1.13-.21 1.11-.26 1.04-.42.8-.87.12" filter="url(#a)"/><path d="m74.48-27.4-1.01-.56.02 1.02.21 1.36.08 1.35v1.29l-.04 1.3-.1 1.34-.22 1.38-.35 1.38-.42 1.34-.43 1.28-.36 1.21-.29 1.15-.24 1.1-.2 1.07-.2 1.03-.18 1.02-.13 1-.09 1.06-.15 1.15L70-3.84l-.72 1.32-1.05 1.2L66.82.02" filter="url(#a)"/><path d="m72.47-32.74-1.21-.77-.77-1.02-.99-.86-1.17-.73-1.15-.66-1.09-.6-1.08-.58-1.16-.58-1.17-.62-1.05-.72-.83-.82-.66-.87-.67-.82-.88-.63-1.22-.39-1.54-.17-1.65-.11-1.53-.33-1.33-.59-1.7.21 22.54 10.58.06 1.09.25 1.2.23 1.26.2 1.15.24 1.08.31 1.08.39 1.11.4 1.14.33 1.17.21 1.22.08 1.31-.05 1.37-.13 1.39-.15 1.36-.09 1.26-.06 1.12-.08 1.07-.08 1.18.21 1.63-2.92-24.99-.42-.79-.52-1.13-.46-1.12-.34-1.08-.3-1.1-.35-1.18-.44-1.21-.49-1.19-.51-1.16-.49-1.13-.47-1.15-.47-1.15-.53-1.15-.61-1.14-.72-1.13-.8-1.15-.82-1.17-.74-1.2-.6-1.18-.38-1.13-.25-1.06-.53-1.23 10.42 23.28.5.91.79.84 1.1.8 1.16.84.99.93.72 1.04.51 1.08.44 1.09.42 1.11.42 1.15.38 1.2.34 1.22.39 1.23.58 1.24.86 1.25 1.11 1.25 1.18 1.42.81 2.56" filter="url(#a)"/><path d="m69.46-39.83-.12-.16-.21-.61-.43-1.12-.55-1.26-.59-1.19-.57-1.08-.55-1.02-.54-1.01-.58-1.03-.62-1.02-.68-1.03-.74-1.07-.8-1.13-.86-1.17-.85-1.16-.83-1.14-.85-1.18" filter="url(#a)"/><path d="m69.06-40.12.96-.72-.11-1.57-.63-1.42-.75-1.15-.77-.98-.78-.9-.76-.92-.74-.96-.7-1.05-.67-1.13-.66-1.18-.65-1.23-.64-1.23-.58-1.22-.52-1.21-.43-1.21-.4-1.19-.43-1.18-.54-1.15-.69-1.15-.85-1.22-1.02-1.37-1.19-1.49-.92-1.08m31.32 45.07-1.55-1.52-1.19-1.07-1.06-.91-1.09-.95-1.12-.98-1.1-.93-1.06-.87-1.04-.86-.95-.93-.77-1.05-.51-1.19-.35-1.24-.48-1.16-.93-.98-1.41-.84-1.43-.92-.81-.76" filter="url(#a)"/><path d="m76.78-24.92-1.01-2.45-.5-1.27-.31-.9-.34-.96-.44-1.09-.53-1.12-.6-1.1-.62-1.07-.64-1.07-.63-1.07-.6-1.06-.52-.95-.38-.71-.34-.56-.89-1.11-1.61-2.97.54 2.77.2 1.7.18 1.07.16 1 .01 1.19-.19 1.38-.25 1.44-.11 1.37.13 1.24.29 1.14.29 1.11.14 1.1-.06 1.12-.28 1.19-.45 1.35-.5 1.46-.43 1.19-.48.56.81-23.38.52-.53-.37-.78-.38-1.02-.07-1.4.46-1.89 1-2.41 1.29-2.75 1.16-2.78.69-2.52.1-2.08-.38-1.65-.57-1.37-.43-1.35.05-1.73.68-2.4 1.05-2.85.63-2.26 26.91 38.97-4.95.61-2.73.37-1.73-.52-1.48-.92-1.67-.88-2.08-.63-2.38-.42-2.31-.43-1.83-.64-1.2-.87-.81-.95-.93-.74-1.43-.52-1.75-.62-1.62-.8-3.23 1.51-1-38.67-.72 3.38-.1 3.42.21 2.66.21 2.19.06 2.03-.1 1.98-.14 1.87-.08 1.74-.02 1.68-.01 1.74-.02 1.84.07 1.86.36 1.64.76 1.23 1.04.87.79 1-.4 2.03-1.95 3.93m-1.27-2.66-.54-.46-.87-.68-.9-.81-.89-.95-.89-1.03-.86-1.01-.82-.93-.75-.84-.73-.74-.76-.65-.86-.59-.97-.54-1.08-.53-1.2-.57-1.42-.78-2.14-1.54" filter="url(#a)"/><path d="m64.72-47.87 1.46 1.19 1.55.31 1.11.61.72 1.03.57 1.21.61 1.14.75.96.9.83 1.04.77 1.15.79 1.26.8 1.37.79 1.48.77 1.55.81 1.52.92 1.46.99 1.33.57.57-1.25 7.45.57-.51-2.98-2.02-1.47-2.12-.93-1.76-.86-1.53-.88-1.51-.83-1.64-.72-1.73-.57-1.72-.51-1.64-.52-1.62-.52-1.74-.48-1.93-.36-1.97-.26-1.75-.3-1.34-.5-.97-.78-.85-.97-1.04-1.28-.28-.67-.21-1.56-.18-1.81-.21-1.71-.32-1.45-.51-1.13-.66-.92-.75-.85-.73-.96-.65-1.17-.56-1.37-.49-1.5-.44-1.57-.4-1.56-.33-1.59-.24-1.67-.19-1.82-.21-2.01-.34-2.12-.55-2.04-.82-1.63-.99-1.03-.75-.75-.06-1.5" filter="url(#a)"/><path d="m63.18-49.78.21 1.89-.32 1.79.18 1.29.69.89.92.76.89.84.68 1.01.38 1.15.11 1.25-.04 1.29-.01 1.27.12 1.21.25 1.17.34 1.14.33 1.14.3 1.16.22 1.21.09 1.19-.16 1.03-.49.74-.47 1.09" filter="url(#a)"/><path d="m62.42-51.08-1.46-1.6-1.1-.95-1.02-.67-.98-.54-1-.44-1.07-.4-1.12-.41-1.12-.51-1.1-.61-1.03-.71-.96-.75-.89-.74-.83-.7-.85-.64-.9-.6-1-.58-1.12-.54-1.21-.48-1.27-.32-1.3-.11-1.31.07-1.35.04-1.51-.26-1.84-.65 25.34 10.8-1.24.04-1.58.05-1.38-.07-1.09-.27-.94-.44-.92-.54-.94-.64-.93-.75-.9-.84-.91-.79-.97-.57-1.09-.27-1.22.03-1.35.19-1.47.23-1.6.14-1.76.13-1.93.34-1.57.44L59-55l.6 1.29.8 1.17.8 1.21.73 1.17.66 1.08.65 1.03.63.99.61.97.59.97.56 1.02.56 1.06.57 1.1.57 1.1.53 1.02.45.96.4.99.38 1.13.31 1.2.04.95-13.17-23.55-1.07-.41-1.26-.6-1.19-.78-1.09-.77-1.01-.58-1.02-.34-1.15-.1-1.33.07-1.54.19-1.71.27-1.73.27-1.57.16-1.26-.08-.98-.31-1.1-.23-1.75.29-2.47.64 20.98.38.35.46.51 1 .56 1.02.55.96.46.96.32 1.03.18 1.2.02 1.44-.16 1.71-.33 1.94-.43 2.01-.37 1.85-.06 1.43.26.99-.46 1.07" filter="url(#a)"/><path d="m54.02-60.07-1.82-1.95-.56-1.24-.36-.88-.6-.68-.85-.67-.97-.81-.96-1.02-.9-1.16-.8-1.18-.75-1.12-.75-1.06-.81-1.11-.88-1.22-.94-1.21-.99-1.03-1.22-1.37 11.12 14.87 1.92 1.98 1.06 1.25.9.97.85.83.79.77.74.76.7.79.71.85.72.94.74 1.02.75 1.08.74 1.1.71 1.09.69 1.05.66 1.02.62.99.58.97.53.98.52 1.04.6 1.23.82 1.65 1.06 2.18L88.6-53.62l-3.32-1.03-3.21.33-2.69.28-2.01-.19-1.38-.69-.99-1-.95-1.06-1.09-.99-1.29-.88-1.41-.79-1.49-.68-1.55-.5-1.66-.25-1.76-.01-1.86.18-1.91.27-1.89.21-1.79.01-1.61-.34-1.46-.75-1.41-1.07-1.23-.54.11 1.92 1.46.96 1.36.78 1.08.79.85.85.7.88.59.92.5.97.44 1.07.36 1.21.3 1.36.22 1.47.18 1.5.17 1.46.2 1.37.23 1.26.29 1.16.34 1.04.36.96.28.96.2 1.17.68 1.8" filter="url(#a)"/><path d="m29.08-71.5 1.46.17.9-.08.88.08.94.19 1.03.22 1.06.21 1.08.21 1.11.25 1.14.34 1.17.4 1.18.44 1.16.43 1.09.43 1.04.5 1.05.69 1.14.97 1.26 1.07 1.37.37-2.7-2.12 1.46 1.19.85 1 .48 1.07.19 1.27.06 1.45.08 1.58.18 1.59.36 1.45.56 1.21.71.94.8.76.8.66.73.69.63.8.51.96.35 1.2.12 1.47-.1 1.67-.21 1.72-.18 1.58-.02 1.39.16 1.35.54 1.71-20.31-56.45 1.72 2.54 1.42 1.17.86 1.14.47 1.61.29 2.04.32 2.11.46 1.81.62 1.46.61 1.42.46 1.76.39 2.08.69 1.74 1.31.62 1.23.13-1.96 4.28 1.09.64 1.44.82 1.47.68 1.45.37 1.38.17 1.27.16 1.22.26 1.26.35 1.37.39 1.46.39 1.49.4 1.44.41 1.37.43 1.32.41 1.32.41 1.33.43 1.34.53 1.35.68 1.41.8 1.54.78 1.72.6 1.85.37 1.8.25 1.38.02-34.07-10.75 1 .71 1.43.75 1.5.62 1.37.45 1.16.4.92.48.8.58.86.66 1.06.65 1.27.61 1.35.59 1.26.61 1.1.7.95.88.86 1.34L43-69.19l.33.75.4.86.35 1.45.31 1.83.29 1.93.21 1.82.11 1.69.02 1.55.03 1.41.25 1.21.59.94.9.74.88.79.43 1.16-.3 1.75-.92 2.21" filter="url(#a)"/><path d="m21.17-90.05.53.78.76.69.88.95.88 1.19.94 1.2 1.06 1.05 1.2.88 1.31.81 1.33.86 1.27.98 1.14 1.08.98 1.14.85 1.11.8 1.03.8.92.81.83.85.75.89.69.96.63 1.08.68 1.25.94L43-69.19" filter="url(#a)"/><path d="m43-69.19-1.65-.97-1.28-.86-1.08-.64-1.02-.45-1.03-.33-1.04-.28-1.04-.27-1.02-.29-1.03-.29-1.09-.3-1.21-.31-1.34-.32-1.43-.34-1.44-.34-1.37-.3-1.26-.23-1.14-.11-1.03.02-.78.09 20.45 5.53 1.39.66 1.1.24 1.33-.16 1.72-.38 2.03-.48 2.24-.6 2.42-.84 2.48-1.06 2.4-1.11 2.22-.89 2.09-.56 2.08-.23 2.1.04 1.97.32 1.69.55 1.7.35L75-75.35" filter="url(#a)"/><path d="m41.17-70.18 1.36.7 1.04.32 1.03.25 1.13.43 1.24.57 1.31.59 1.33.48 1.25.38 1.13.34 1.01.41 1.02.5 1.13.58 1.31.62 1.43.59 1.44.49 1.34.39 1.02.56-.19 7.65-.66-.54-.76-.77-.7-.76-.68-.75-.7-.78-.79-.81-.88-.83-.97-.85-1-.84-1-.82-.94-.78-.87-.74-.83-.72-.87-.71-.98-.7-1.11-.72-1.19-.71-1.16-.69-1.02-.62-.89-.54-.94-.49-1.39-.68" filter="url(#a)"/><path d="m39.3-71.9.46-1.87-.58-1.08-.71-1.01-.76-1.02-.8-.94-.89-.76-1.02-.61-1.13-.58-1.22-.74-1.21-1.1-1.14-1.54-1-1.97-.86-2.27-.78-2.34-.77-2.14-.87-1.66-1.01-1.08-1.17-.57-1.27-.31-1.32-.36-1.28-.66-1.09-1.13-.71-1.75.02-2.67 2.37-2.6.51 2.66 1.22 1.85 1.11 1.52.96 1.57.9 1.6.94 1.5.98 1.44 1.02 1.48 1.06 1.57 1.14 1.58 1.2 1.53 1.2 1.46 1.1 1.43.95 1.41.81 1.36.73 1.29.66 1.28.61 1.36.66 1.23.91.68.99.28-.92 2.68-2.02-.85 1.44.8 1.08.76 1.07.87 1.02.88.95.82.94.76.98.77 1.03.79 1.02.82.97.84.88.83.76.83.69.86.67.91.71.98.77 1.03.8 1.05.81 1.01.78.94.67.89.47.85-.06.5-18.58-18.83-.66-1.51-1.03-.69-.99-.5-.95-.54-.99-.71-1.1-.92-1.19-1.03-1.26-.99-1.29-.83-1.28-.59-1.26-.4-1.2-.3-1.14-.33-1.07-.43-1.03-.57-1.02-.68-1.05-.69-1.07-.6-1.05-.49-1-.43-1.07-.45-1.75-.56" filter="url(#a)"/><path d="m6.49-67.41 2.17-.86 1.09-.58.88-.32.89-.21.92-.15.94-.12 1.01-.19 1.07-.36 1.12-.5 1.13-.53 1.12-.46 1.14-.39 1.19-.35 1.26-.36 1.34-.31 1.4-.17 1.42.08 1.43.24 1.47.15 1.49-.19 1.45-.53 1.3-.51 1.17-.05 1.31.48m0 0-.83-1.53-.43-1.68-.71-.9-1.11-.32-1.39-.23-1.47-.42-1.43-.66-1.32-.83-1.19-.94-1.08-1.03-.97-1.13-.89-1.29-.83-1.47-.8-1.6-.86-1.53-.98-1.2-1.11-.69-1.19-.17h-1.15l-1.13-.58-1.66-1.9" filter="url(#a)"/><path d="m34.65-74.45-.7-.44-.72-.52-.87-.67-1-1.15-1.02-1.73-.95-2.1-.91-2.07-.95-1.72-.98-1.34-.98-1.17-.92-1.22-.85-1.38-.78-1.58-.72-1.99-.89-2.57-2.03-2.28" filter="url(#a)"/><path d="m33.16-74.84.28-.69 1.15-.67 1.65-.99 1.89-1.25 1.77-.93 1.52-.34 1.43.05 1.58.01 1.8-.25 1.91-.39 1.78-.22 1.54.19 1.3.64 1.25.87 1.38.81 1.6.5 1.82.07 1.97-.35 2.04-.63 2.09-.65 2.27-.41 2.73-.26 2.24-.54-38.99 5.43-1.89-1.46-1.44-1.92-1.09-2.11-1.06-1.58-1.14-.94-1.15-.61-1.09-.6-1.02-.73-.97-.89-.94-1.05-.94-1.23-.95-1.35-.95-1.43-.93-1.52-.89-1.8-.81-2.27-.71-2.6-.47-2.12.13-.51" filter="url(#a)"/><path d="m26.02-78.18 1.53-.03 2.31-1.3 2.43-1.55 2.05-1.1 1.58-.53h1.22l.99.45.95.66 1.1.45 1.44-.17 1.89-.97 2.35-1.64 2.82-2.04 3.33-2.08 3.41-1.15-29.4 11 1.31.56 1.49.67 1.49.64 1.31.51 1.14.37 1.04.3 1.01.3 1 .34.99.41.99.47 1.01.5 1.07.54 1.15.56 1.21.58 1.18.55 1.03.45.82.31.64.4" filter="url(#a)"/><path d="m22.25-79.48-.86-.1-1.03-.18-1.05-.18-1.08-.17-1.11-.16-1.09-.17-1.05-.18-1.03-.2-1.04-.2-1.1-.18-1.18-.15-1.26-.12-1.31-.09-1.27-.05-1.19-.01-1.1.04-1.1.09-1.18.13-1.32.12-1.39.07-1.24.02-.58.07 24.56 1.6-.79-.37-.82-1.12-.73-1.67-.71-2.12-.75-2.24-.81-1.92-.91-1.35-1.02-.85-1.11-.64-1.19-.76-1.26-1.15-1.33-1.55-1.36-1.79-1.35-1.75-1.28-1.46-1.23-1.1-1.26-.83-1.46-.84-1.75-1.36-2.01-2.66-2.54-5.07 44.59 41.9-1.28-1.08-.96-.62-.92-.53-.92-.52-.93-.52-.94-.5-.96-.47-.99-.45-1.06-.47-1.17-.52-1.29-.56-1.35-.59-1.36-.57-1.31-.53-1.23-.45-1.15-.39-1.08-.33-1.07-.3-1.03-.27-.62-.23" filter="url(#a)"/><path d="m18.91-80.43-1.93-.52-1.09-.61-.89-.7-.9-.71-.97-.79-1.06-1.05-1.14-1.44-1.22-1.79-1.24-1.94-1.24-1.88-1.21-1.74-1.22-1.67-1.27-1.71-1.38-1.72-1.48-1.6-1.55-1.33-1.56-1.12-1.54-1.22-1.53-1.7-1.6-2.21-1.88-2.01-3.09-1.19m60.53 35.73-.95.14-1.26-.3-1.46-.41-1.48-.36-1.43-.23-1.36-.12-1.31-.06-1.24-.11-1.16-.21-1.11-.32-1.09-.4-1.16-.42-1.27-.4-1.38-.39-1.47-.36-1.48-.31-1.45-.23-1.39-.09-1.32.04-1.23.07-1.15.01-1.01-.12-.8-.22-.58-.28m0 0-2.15.65-1.14-.24-.93-.24-.96-.04-1.03.15-1.12.31-1.23.47-1.32.58-1.37.67-1.29.67-1.17.59-1.05.44-1.02.26-1.1.19-1.22.3-1.27.59-1.13.8-.51.72" filter="url(#a)"/><path d="m15.96-81.04-.45.05-.8.04-.97.12-1.06.17-1.14.15-1.23.1-1.31.07-1.32.08-1.26.09-1.18.11-1.11.14-1.11.14-1.17.11-1.22.09-1.25.1-1.21.16-1.14.24-1.08.32-1.05.44-1.22.64-2.01 1.1 24.23-4.35.9-.25 1.32-.03 1.2.07 1.17-.13 1.27-.48 1.44-.87 1.66-1.26 1.9-1.61 2.09-1.75L31-88.78l2.05-.94 1.8-.16 1.54.45 1.4.62 1.43.29 1.63-.3 1.84-.85 2.04-1.19 2.26-1.53 2.59-2.1 2.83-2.65 1.78-2" filter="url(#a)"/><path d="m14.49-81.26-1.76-.28-1.13-.17-1.22-.12-1.39-.08-1.4-.04-1.29-.02H5.12l-1.13.01-1.15.05-1.2.06-1.25.07-1.26.08-1.24.1-1.2.12-1.16.15-1.15.17-1.13.21-1.1.22-1.05.25-.97.26-.89.26-.84.27-.85.3-1.07.33" filter="url(#a)"/><path d="m11.91-81.63-.22-1.69-.84-1.32-1.4-.72-1.5-.8-1.32-1.14-1.12-1.34-1.06-1.42-1.15-1.56-1.31-1.76-1.45-1.88-1.49-1.78-1.47-1.47-1.4-1.11-1.32-.84-1.15-.93-.71-1.8" filter="url(#a)"/><path d="m42.6-98.79-.63.58-2.37 1.06-2.67 1.08-2.56 1.12-2.33 1.19-2.1 1.2-1.91 1.26-1.8 1.4-1.73 1.52-1.63 1.4-1.5.99-1.34.4-1.23-.06-1.17-.12-1.18.2-1.2.49-1.19.24-1.2-.03-1.43 3.05" filter="url(#a)"/><path d="m7.92-82.29 2.47.12 1.17.22.94.23.96.19.99.13 1.04.06 1.09.01 1.13-.01 1.13.02 1.1.09 1.07.16 1.05.23 1.05.24 1.1.21 1.17.16 1.3.18 1.32.42m-20.51-2.6 1.15.79 1.43.42 1.17.25 1.04.13.98.12.98.18.99.26 1 .33 1.03.36 1.02.39 1 .42.97.44.96.49.94.53.96.57 1.02.55 1.13.48 1.21.54 1.11.94" filter="url(#a)"/><path d="m7.49-82.23 1.22.31 1.46.22 1.18.27 1 .39.93.51.93.55.95.52.98.49.99.46 1.01.44 1.01.4 1 .35 1.01.33 1.01.38 1.03.47 1.06.61 1.12.73 1.2.88 1.29 1 1.31 1.05 1.13.85.21.23L4.69-82.51l-.44.31-1.27.17-1.46.21-1.4.25-1.29.3-1.17.43-1.1.64-1.04.84-1.03.96-1.02.98-.98.9-.91.86-.8.95-.67 1.14-.56 1.2-.47 1.12L.82-82.46l1.77-.16 1.25-.19.94-.33 1.06-.59 1.31-.89 1.52-1.09 1.55-1.02 1.44-.72 1.29-.34 1.19-.09 1.14-.05 1.18-.2 1.25-.38 1.32-.44 1.35-.4 1.33-.31 1.3-.36 1.38-.65 1.43-1.54m-25 9.75 1.85-2.43 1.29-.6.97-.59 1.15-1.66 1.52-2.68 1.77-2.86 1.78-2.19 1.65-1.27 1.52-.9 1.52-1.35 1.59-2.11 1.58-2.22 1.41-1.11 1.48.26 2.88-1.22m53.29 91.82-7.64 2.54-3.59 2.64-3.88 2.73-3.51 2.77-1.42 2.73.67 2.63 1.32 2.54.45 2.43-1.18 2.37-2.85 2.34-4.17 2.33-5.02 2.35-5.33 2.38-4.96 2.44-3.95 2.5-2.7 2.53-1.81 2.49-1.7 2.4-2.32 2.25-3.22 2.07-4.1 1.96-4.99 2.01-5.04 2.24m70.94-55.67 4.44 2.55-.26 2.65-.08 2.74 1.2 2.77 1.79 2.74 1.43 2.64.64 2.54.13 2.44.19 2.39.71 2.35 1.35 2.34 1.78 2.36 1.77 2.4 1.32 2.45.6 2.49-.17 2.51-.75 2.47-1 2.37-.85 2.25-.41 2.11.17 2.02.74 1.98 1.1 2.02.97 2.1-.09 2.47" filter="url(#a)"/><path d="m-2.36-82.7 2.4.15 2.68.1 2.92.14 3.01.21 2.89.27 2.65.33 2.48.41 2.51.48 2.77.56 3.16.65 3.56.75 3.85.83 3.97.89 3.9.96 3.72 1.01 3.45 1.06 3.24 1.12 3.11 1.19 3.14 1.28 3.28 1.35 3.48 1.43 3.67 1.47 3.8 1.52 3.85 1.56 3.84 1.62 3.94 1.67 4.35 1.74 5.13 1.78 6.11 1.83 6.64 1.97 6.11 2.22 5.13 2.2" filter="url(#a)"/><path d="m-4.38-82.59 2.32.05 2.72.02 2.64.05 2.59.13 2.64.24 2.64.32 2.56.39 2.41.44 2.29.5 2.26.57 2.32.65 2.44.74 2.59.85 2.69.93 2.72 1.02 2.67 1.07 2.61 1.14 2.57 1.19 2.59 1.24 2.67 1.29 2.77 1.35L52.15-67l2.73 1.47 2.57 1.56 2.45 1.69 2.61 1.85 2.71 1.73" filter="url(#a)"/><path d="m-5.42-82.26 2.75-.22 2.74-.01 2.82.06 2.84.13 2.85.2 3.01.25 3.32.32 3.75.39 4.1.46 4.21.53 4.07.63 3.87.71 3.83.81 4.16.88 4.84.94 5.63.98 6.23 1.01 6.45 1.05 6.28 1.12 5.85 1.23 5.31 1.36 4.82 1.47 4.7 1.59 5.26 1.68 5.29 1.66" filter="url(#a)"/><path d="m-5.6-82.59 1.4.02 2.26.03 2.57.03 2.61.07 2.59.15 2.59.24 2.59.32 2.57.39 2.57.45 2.61.52 2.7.59 2.83.68 2.97.77 3.12.86 3.22.95 3.3 1.03 3.34 1.09 3.31 1.16 3.25 1.21 3.16 1.28 3.06 1.33 2.99 1.39 2.98 1.45 3.02 1.52 3.13 1.57 3.27 1.61 3.41 1.66 3.56 1.68 3.64 1.72 3.64 1.75 3.56 1.81 3.47 1.86 3.44 1.85 3.41 1.82 3.12 1.76 2.83 1.59" filter="url(#a)"/><path d="m-5.6-82.59 1.57.02 2.2.03 2.44.03 2.44.07 2.42.15 2.42.24 2.41.32 2.38.4 2.31.45 2.27.52 2.23.59 2.24.68 2.23.77 2.24.87 2.22.95 2.19 1.03 2.15 1.09 2.1 1.16L36.94-72l2.05 1.28 2.02 1.33 2 1.4 1.97 1.45 1.91 1.52 1.83 1.57 1.73 1.62 1.61 1.65 1.51 1.69L55-56.77l1.37 1.76 1.33 1.81 1.3 1.85 1.24 1.89 1.17 1.92 1.11 2.06 1.17 2.53 1.8 3.87" filter="url(#a)"/><path d="m-8.54-82 2.35-.36 2.09-.12 2.28-.03 2.42.02 2.5.07 2.53.16 2.56.23 2.53.31 2.48.39 2.4.45 2.36.51 2.37.59 2.42.67 2.51.77 2.6.86 2.66.94 2.66 1.02 2.62 1.09 2.54 1.15 2.47 1.21 2.41 1.27 2.4 1.33 2.41 1.39 2.42 1.45 2.43 1.51 2.4 1.57 2.31 1.62 2.19 1.65 2.05 1.68 1.96 1.71 1.94 1.75 2.02 1.82 2.15 1.87 2.27 1.88 2.21 1.84 1.56 1.92" filter="url(#a)"/><path d="m-8.54-82 1.72-.36 2.06-.12 2.57-.04 2.83.02 2.93.06 3.06.14 3.24.22 3.36.3 3.33.37 3.17.42 3 .49 2.91.54 2.97.63 3.18.72 3.54.83 4.06.91 4.7 1 5.39 1.06 5.92 1.12 6.01 1.17 5.61 1.22 5.12 1.27 5.25 1.31 6.32 1.42 7.7 1.88" filter="url(#a)"/><path d="m-10.21-82.03 1.58-.09 2.46-.15 2.9-.11 3.02-.04 2.99.04 2.94.11 2.93.18 2.98.24 3.12.3 3.35.37 3.68.43 4.02.52 4.29.59 4.48.7 4.61.78 4.76.88 5.01.95 5.27.97 5.42.97 5.42.94 5.49 1.01 6.17 1.27 8.2 1.98" filter="url(#a)"/><path d="m-11.04-81.72 1.32-.32 2.49-.26 2.58-.13 2.57-.06 2.59.01 2.61.07 2.64.14 2.71.22 2.79.3 2.87.36 2.96.43 3.06.49 3.13.56 3.18.63 3.2.74 3.16.83 3.09.92 3.06 1 3.1 1.06 3.27 1.13 3.53 1.18 3.77 1.23 3.85 1.29 3.81 1.34 3.88 1.39 4.33 1.43 4.83 1.39 3.69 1.24" filter="url(#a)"/><path d="m-11.04-81.72 2.42-.32 2.24-.25 2.14-.14 2.14-.06H.06l2.17.06 2.2.13 2.19.21 2.14.29 2 .36 1.82.41 1.68.47 1.61.52 1.6.6 1.61.7 1.59.81 1.51.91 1.43.99 1.31 1.05 1.16 1.08.94 1.16.84 1.25 1.09 1.31" filter="url(#a)"/><path d="m-11.04-81.72 2.41-.32 2.21-.25 2.16-.14 2.24-.06H.32l2.37.06 2.41.13 2.42.21 2.43.29 2.4.36 2.33.41 2.23.47 2.17.52 2.16.6 2.22.7 2.29.81 2.36.91 2.38.99 2.32 1.05 2.25 1.08 2.17 1.16 2.08 1.25 1.86 1.31" filter="url(#a)"/><path d="m-12.52-81.64 1.56-.16 2.07-.25 2.18-.21 2.27-.14 2.41-.06H.53l2.73.06 2.88.14 3.02.22 3.11.29 3.1.36 3.04.42 2.98.48 2.96.55 3.04.64 3.18.72 3.39.83 3.61.91 3.81 1 3.95 1.06 4.01 1.12 4 1.18 4.02 1.23 4.19 1.28 4.67 1.33 5.31 1.41 5.29 1.5 2.76 1.37" filter="url(#a)"/><path d="m-13.89-81.26 1.95-.3 1.97-.27 2.15-.22 2.3-.17 2.34-.11 2.31-.04 2.22.03 2.11.09 1.98.17 1.83.23 1.66.29 1.41.36 1.09.43.71.5.31.59-.01.68-.14.78-.04.88.18.95.26.99-.08.95-.73.89-1.1.84-1.87.82" filter="url(#a)"/><path d="m-16.22-80.7 1.87-.46 1.36-.36 1.66-.28 2.21-.22 2.65-.17 2.92-.1 3.08-.04 3.14.04 3.09.1 2.97.18 2.82.25 2.72.31 2.76.39 2.93.46 3.22.54 3.54.63 3.78.72 3.89.79 3.86.88 3.69.93 3.49.99 3.38 1.04 3.44 1.1 3.7 1.17 4.09 1.26 4.45 1.35 4.62 1.42 4.56 1.48 4.38 1.5 4.37 1.51 4.71 1.56L92.42-60l5.85 2 5.84 2.24" filter="url(#a)"/><path d="m-17.17-80.67 1.86-.41 2.09-.35 2.14-.31L-8.9-82l2.23-.2 2.29-.14 2.39-.07H.49l2.57.06 2.66.14 2.73.22 2.79.28 2.83.36 2.82.42 2.82.5 2.82.56 2.82.65 2.87.73 2.94.83 3 .92 3.04 1 3.01 1.07 2.93 1.13 2.8 1.19 2.7 1.24 2.71 1.3 2.85 1.35 3.1 1.41 3.26 1.48L63.78-64l3.01 1.7 2.94 1.86 3.3 1.74" filter="url(#a)"/><path d="m-18.31-80.47 1.51-.31 1.74-.36 2.01-.33 2.13-.29 2.26-.23 2.44-.18 2.61-.12 2.74-.05 2.83.01 2.89.08 2.91.15 2.92.22 2.93.28 2.96.34 3.04.4 3.14.48 3.2.56 3.24.65 3.38.75 3.85.88 4.56 1.04 4.82 1.12 2.73.72" filter="url(#a)"/><path d="m-22.84-79.27 1.6-.54 1.82-.59 2.18-.51 2.2-.41 2.19-.34 2.29-.27 2.47-.22 2.66-.14 2.82-.09 2.93-.02 3.05.05 3.17.12 3.31.2 3.48.27 3.63.34 3.74.4 3.77.47 3.77.53 3.74.61 3.75.7 3.84.81 4.02.9 4.26.99 4.55 1.05 4.75 1.11 4.66 1.17 4.12 1.26 3.39 1.32 3.91 1.39m4.46 52.92.51 2.29.59 2.51.47 2.65.26 2.74.07 2.77-.07 2.73-.14 2.65-.18 2.56-.2 2.48-.24 2.42-.29 2.39-.35 2.38-.43 2.41-.52 2.43-.61 2.46-.7 2.48-.75 2.47-.81 2.42-.84 2.35-.86 2.27-.9 2.19-.95 2.14-1.03 2.13-1.1 2.12-1.19 2.13-1.26 2.11-1.29 2.05-1.3 1.95-1.33 1.85-1.39 1.81-1.51 1.85-1.75 1.96-2.36 2.19" filter="url(#a)"/><path d="m-25.69-78.03 3.56-.95 3.26-.73 2.47-.62 2.09-.52 2.03-.42 2.08-.35 2.1-.28 2.07-.22 2.02-.16 1.97-.09 1.92-.03 1.88.03 1.83.11 1.76.18 1.7.26 1.62.33 1.55.39 1.44.44 1.29.49 1.08.57.84.66.6.8.49.93.44 1.01.31.96.69.79" filter="url(#a)"/><path d="m-26.89-77.7 1.92-.66 2.27-.9 2.08-.74 2-.57 2.06-.45 2.2-.36 2.38-.3 2.58-.24 2.76-.18 2.93-.12 3.05-.05 3.15.01 3.21.09 3.24.15 3.23.22 3.22.29 3.24.36 3.32.43 3.47.51 3.67.59 3.85.69 3.97.78 3.99.86 3.95.94 3.94.97 4.09.99 4.38 1 4.73 1.06 5.11 1.22 5.59 1.39 5.91 1.16" filter="url(#a)"/><path d="m-26.89-77.7 2.09-.66 2.82-.9 2.68-.74 2.4-.57 2.19-.45 2.09-.36 2.12-.3 2.24-.24 2.38-.17 2.52-.12 2.62-.04 2.68.02 2.7.09 2.67.16 2.62.23 2.56.3 2.54.37 2.55.45 2.61.52 2.73.62 2.85.7 2.97.78 3.05.86 3.06.93 3.02.98 2.92 1.02 2.79 1.07 2.7 1.15 2.67 1.24 2.73 1.35 2.85 1.46 3 1.54 3.04 1.52 2.75 1.32 1.65.66" filter="url(#a)"/><path d="m-28.63-77.08-.24-.95.17-.86 2.55-.75 3.67-.63 3.67-.53 3.29-.43 2.9-.36 2.63-.29 2.5-.22 2.51-.16 2.62-.09 2.8-.03 3.04.04 3.29.11 3.52.19 3.68.26 3.77.33 3.75.39 3.68.45 3.65.52 3.73.59 4.03.69 4.51.79 5.03.91 5.38.99 5.4 1.04L62.06-74l4.91 1.16 5.44 1.22" filter="url(#a)"/><path d="m-29.71-76.61 2.94-.87 2.91-.87 2.72-.84 2.56-.72 2.44-.59 2.31-.46 2.19-.38 2.1-.31 2.05-.25 2.03-.19 2.01-.12 1.96-.06H.38l1.74.08 1.61.14 1.51.21 1.47.28 1.46.34 1.44.42 1.38.49 1.21.57.96.67.68.77.47.88.32.97.16 1.01v.97l.2.88.74.84" filter="url(#a)"/><path d="m-29.71-76.61 2.26-.88 2.61-.87 2.75-.84 2.61-.72 2.41-.58 2.25-.47 2.17-.38 2.18-.3 2.26-.24 2.35-.18 2.43-.12 2.49-.05 2.51.02 2.49.09 2.46.16 2.41.23 2.38.29 2.34.37 2.35.45 2.37.53 2.41.61 2.47.69 2.51.79 2.53.86 2.52.92 2.47.98 2.39 1.02 2.31 1.08 2.26 1.14 2.26 1.24 2.3 1.36 2.34 1.46 2.37 1.53 2.33 1.53 1.94 1.32.58.66" filter="url(#a)"/><path d="m-31.1-75.86.3-1.09 3.01-.98 2.97-.87 2.52-.75 2.3-.65 2.29-.54 2.37-.45 2.42-.37 2.45-.3 2.48-.23 2.54-.17 2.66-.11 2.81-.04 2.95.02 3.1.09 3.23.17 3.36.24 3.46.33 3.51.38 3.49.42 3.45.46 3.48.5 3.73.56 4.43.69 5.22.9" filter="url(#a)"/><path d="m-30.93-76.1 1.63-.64 2.12-.77 2.38-.84 2.47-.8 2.41-.71 2.32-.58 2.25-.48 2.24-.39 2.27-.32 2.34-.24 2.42-.19 2.5-.12 2.55-.06 2.56.02 2.55.08 2.5.15 2.45.22 2.39.28 2.35.36 2.35.44 2.36.51 2.42.6 2.48.68 2.53.78 2.57.86 2.56.93 2.51.97 2.41 1 2.3 1.03 2.27 1.09 2.31 1.22 2.38 1.35 2.34 1.42 2.39 1.52" filter="url(#a)"/><path d="m-35.85-73.75 3.06-1.5 1.72-.92 1.85-.85 2.15-.85 2.26-.82 2.24-.74 2.22-.66 2.28-.56 2.37-.47 2.45-.38 2.5-.32 2.52-.25 2.53-.18 2.58-.12 2.66-.06h2.74l2.82.07 2.92.15 3.04.23 3.17.32 3.23.39 3.18.43 2.98.45 2.31.48" filter="url(#a)"/><path d="m-35.76-73.42 2.14-1.18 2.06-1.05 2.04-.93 2.17-.87 2.33-.83 2.43-.78 2.46-.69 2.4-.59 2.33-.5 2.28-.41 2.27-.32 2.32-.26 2.38-.19 2.46-.13 2.52-.06h2.56l2.58.08 2.58.14 2.57.21 2.55.28 2.55.36 2.55.42 2.58.51 2.63.59 2.66.68 2.71.78 2.73.86 2.7.93 2.62.97 2.49.99 2.35 1 2.3 1.07 2.45 1.22 2.64 1.4 2.23 1.16" filter="url(#a)"/><path d="m-35.76-73.42.12-1.17-.18-1.05.85-.91 1.53-.86 2.11-.83 2.74-.79 3.29-.7 3.5-.6 3.4-.51 3.1-.41 2.82-.33 2.66-.27 2.68-.21 2.86-.15 3.1-.08 3.36-.02 3.6.05 3.79.12 3.93.19 4.07.25 4.25.3 4.5.38 4.77.44 4.92.55 4.84.64 5 .69" filter="url(#a)"/><path d="m-36.94-73.09 1.98-1.01 2.26-1.06 2.12-.95 2.15-.89 2.28-.86 2.4-.81 2.47-.74 2.46-.65 2.42-.56 2.36-.47 2.31-.38 2.27-.31 2.27-.24 2.28-.18 2.3-.1 2.36-.04 2.39.03 2.44.1 2.48.17 2.48.25 2.46.32 2.41.38 2.33.45 2.27.5 2.25.58 2.29.68 2.41.79 2.52.91 2.55 1 2.46 1.02 2.33 1.06 2.43 1.31" filter="url(#a)"/><path d="m-36.94-73.09 1.65-1.01 1.34-1.07.35-.94.41-.9 1.36-.85 2.43-.81 3.15-.74 3.39-.65 3.3-.56 3.07-.47 2.83-.38 2.69-.31 2.66-.24 2.73-.17 2.87-.11 3.07-.03 3.26.03 3.45.1 3.58.18 3.67.25 3.71.32 3.73.39 3.83.45 4.03.51 4.39.59 4.85.69 5.35.79 5.81.9 6.14.99 6.17 1.04L68-74.01l4.71 1.17 4.31 1.22" filter="url(#a)"/><path d="m-37.52-72.81 2.38-.8 2.68-.99 2.62-.98 2.65-.92 2.63-.88 2.53-.83 2.4-.78 2.31-.7 2.29-.6 2.28-.51 2.24-.42 2.13-.34 2-.28 1.87-.2 1.79-.15 1.74-.08 1.72-.02 1.66.05 1.57.12 1.42.19 1.21.25.99.32.8.38.67.45.55.54.44.61.26.63.06.57" filter="url(#a)"/><path d="m-37.52-72.81 1.01-.79.45-.98.94-.98 1.9-.91 2.59-.87 2.73-.83 2.48-.79 2.1-.71 1.81-.62 1.8-.51 2.03-.43 2.41-.35 2.84-.28 3.16-.22 3.39-.17 3.51-.11 3.62-.04 3.74.02 3.97.1 4.27.18 4.3.24 2.79.23" filter="url(#a)"/><path d="m-39.47-71.37 2.2-1.41 2.21-1.21 2.14-1.08 2.01-.98 2-.91 2.09-.86 2.22-.81 2.34-.74 2.41-.65 2.42-.56 2.4-.48 2.4-.39 2.39-.31 2.43-.25 2.48-.17 2.57-.11 2.64-.04 2.74.02 2.83.1 2.93.17 3.01.25 3.07.32 3.08.38 3.08.44 3.12.51 3.21.58 3.4.68 3.63.79 3.8.91 3.81 1 3.6 1.02 3.27 1.06 2.88 1.31" filter="url(#a)"/><path d="m-39.47-71.37-.33-1.41 2.65-1.22 2.89-1.08 2.57-.97 2.24-.91 2.05-.87 1.95-.81 1.99-.73 2.08-.65 2.21-.56 2.33-.47 2.46-.39 2.59-.32 2.75-.24 2.97-.17 3.19-.11 3.46-.04 3.71.04 3.96.1 4.14.18 4.25.25 4.24.32 4.11.39 3.97.45 3.92.52 4.17.6 4.75.7 5.56.79 6.36.9 6.78.99 6.66 1.05 6.14 1.1 5.55 1.17 5.27 1.26 5.78 1.33" filter="url(#a)"/><path d="m-40.15-70.98 1.8-1.4 1.67-1.11 1.78-1.04 1.83-.98 1.88-.92 1.87-.88 1.84-.84 1.85-.78 1.95-.71 2.17-.61 2.43-.52 2.65-.43 2.78-.36 2.85-.28 2.91-.22 2.98-.16 3.12-.1 3.28-.03 3.46.03 3.63.11 3.71.18 3.63.24 3.34.28 3.07.29 3.24.18" filter="url(#a)"/><path d="m-40.15-70.98 1.67-1.41 1.59-1.13 1.79-1.04 1.84-.99 1.86-.93 1.87-.89 1.86-.83 1.89-.77 1.97-.69 2.15-.6 2.36-.51 2.59-.42 2.82-.34 3.01-.26 3.17-.2 3.31-.13 3.41-.07h3.5l3.59.07 3.65.14 3.72.21 3.81.28 3.96.35 4.15.42 4.42.51 4.71.59 4.98.68 5.21.77 5.35.86 5.41.93 5.34.97 5.13.99 4.81 1.01 4.79 1.07 5.6 1.22 7.08 1.4L94-68.56" filter="url(#a)"/><path d="m-40.15-70.98 1.99-1.41 1.69-1.12 1.68-1.04 1.89-.99 2.11-.93 2.26-.88 2.31-.84 2.3-.77 2.24-.7 2.19-.6 2.19-.51 2.24-.42 2.35-.34 2.54-.28 2.75-.2 2.98-.14 3.21-.07 3.37-.01 3.45.06 3.46.13 3.42.2 3.35.27 3.35.33 3.44.4 3.63.48 3.86.57 4.07.65 4.24.77 4.37.88 4.51.99 4.64 1.05 4.65.97 4.89.88" filter="url(#a)"/><path d="m-42.69-69.35-2.59-1.54-2.91-1.34.99-1.17 3.66-1.07 4.45-1 4.23-.94 3.72-.89 3.24-.83 2.87-.78 2.6-.7 2.38-.61 2.24-.52 2.21-.43 2.27-.36 2.46-.28 2.73-.21 3.03-.15 3.34-.09 3.62-.02 3.86.05 4.05.12 4.16.18 4.2.25 4.18.32 4.15.38 4.2.45 4.42.53 4.69.61 4.89.64 5.68.57" filter="url(#a)"/><path d="m-42.69-69.35.79-1.53.65-1.33 1.4-1.16 1.95-1.06 2.33-.99 2.62-.93 2.82-.88 2.91-.85 2.84-.79 2.67-.72 2.43-.63 2.2-.54 2.06-.44 2.03-.36 2.16-.29 2.41-.24 2.71-.18 2.97-.12 3.12-.06h3.13l3.15.06 3.45.16" filter="url(#a)"/><path d="m-43.54-69.12 1.27-.69 1.76-1.15 1.72-1.21 1.45-1.15 1.1-1.07.86-1.01.85-.94 1.12-.89 1.58-.84 2.06-.79 2.46-.71 2.69-.62 2.81-.53 2.9-.44 3-.37 3.14-.29 3.33-.22 3.54-.17 3.75-.1 4.01-.04 4.27.03 4.53.11 4.68.17 4.55.25 4.11.28 3.59.29 3.63.18" filter="url(#a)"/><path d="m-43.54-69.12.9-.68 1.11-1.15 1.12-1.2 1.23-1.14 1.38-1.07 1.6-1 1.87-.95 2.17-.89 2.43-.84 2.57-.8 2.6-.72 2.54-.64 2.43-.53 2.34-.45 2.29-.37 2.38-.29 2.67-.24 3.11-.19 3.62-.12 4.07-.06h4.37l4.6.06 5.07.16m62.21 63.39 5.64 2.68 12.28 2.51 8.87 2.53 2.93 2.62-.58 2.7-1.47 2.72-.72 2.71.86 2.63 2.68 2.55 4.12 2.47 4.71 2.39 4.37 2.36 3.41 2.35 2.44 2.36 1.91 2.39 1.84 2.45 1.9 2.5 1.77 2.53 1.43 2.5 1.2 2.41 1.33 2.26 1.71 2.09 2.24 1.96 2.71 2.03 2.17 2.24M77.14-18.84l-3.6 2.7-3.09 2.52-1.33 2.56-.66 2.64-.31 2.71.05 2.74.25 2.71.12 2.65-.33 2.56-.89 2.47-1.4 2.42-1.78 2.39-2.03 2.38L59.9 17l-2.5 2.42-2.84 2.46-3.31 2.49-3.85 2.48-4.27 2.44-4.41 2.36-4.11 2.27-3.4 2.16-2.45 2.1-1.49 2.09-.76 2.12-.46 2.2-.69 2.24-1.28 2.15-1.69 1.83-2.88 1.54" filter="url(#a)"/><path d="m-48.13-65.77 3.16-2.3 2.27-1.5 2.2-1.32 2.19-1.23 2.14-1.16 2.11-1.08 2.11-1.01 2.17-.95 2.24-.9 2.34-.84 2.4-.78 2.42-.7 2.38-.62 2.33-.53 2.29-.44 2.26-.36 2.28-.29 2.33-.22 2.41-.16 2.47-.09 2.53-.02 2.56.05 2.54.11 2.5.18 2.42.25 2.35.31 2.3.38 2.32.46 2.4.53 2.43.61 2.37.63 2.37.58" filter="url(#a)"/><path d="m-48.13-65.77 2.53-2.28 1.3-1.49 1.64-1.3 1.93-1.23 1.87-1.15 1.73-1.08 1.7-1 1.79-.95 1.95-.9 2.11-.85 2.23-.8 2.3-.73 2.3-.64 2.26-.55 2.23-.45 2.27-.37 2.47-.31 2.83-.24 3.32-.19 3.76-.13 4.01-.06 4.01-.01 3.73-.03" filter="url(#a)"/><path d="m-47.39-65.81.86-1.5 1.67-1.57 2.2-1.38 2.3-1.24 2.22-1.16 2.09-1.12 2.02-1.05 2-1 2.06-.94 2.18-.88 2.3-.81 2.39-.75 2.44-.67 2.46-.58 2.45-.5 2.45-.42 2.47-.34 2.49-.26 2.54-.2 2.58-.13 2.64-.06h2.71l2.79.08 2.87.15 2.92.23 2.95.31 2.91.37 2.78.43 2.6.45 2.5.48 2.57.52 2.88.63" filter="url(#a)"/><path d="m-47.39-65.81 1.36-1.47.89-1.57.89-1.36 1.38-1.22 1.89-1.16 2.22-1.11 2.34-1.05 2.3-.99 2.21-.94 2.18-.89 2.26-.83 2.43-.77 2.58-.7 2.65-.61 2.62-.53 2.48-.43 2.36-.36 2.32-.29 2.36-.23 2.49-.15 2.74-.04 3.55.05" filter="url(#a)"/><path d="m-49.85-64.12 1.64-1.93 2.15-1.83 2.46-1.55 2.36-1.37 2.04-1.26 1.67-1.17 1.42-1.09 1.4-1.03 1.6-.95 1.93-.9 2.27-.85 2.51-.77 2.63-.7 2.67-.61 2.64-.53 2.64-.44 2.68-.36 2.75-.28 2.86-.22 2.99-.15 3.1-.08 3.22-.01 3.3.05 3.36.13 3.36.19 3.34.26 3.3.33 3.26.4 3.27.48 3.35.56 3.5.66 3.71.76 3.99.88 4.32.99 4.53 1.05 4.4.98 4.1.88" filter="url(#a)"/><path d="m-49.07-64.69.23-.29 1.54-1.3 1.95-1.53 1.9-1.47 1.72-1.37 1.52-1.27 1.35-1.17 1.26-1.1 1.31-1.02 1.5-.97 1.84-.91 2.25-.85 2.62-.81 2.86-.73 2.92-.65 2.84-.56 2.69-.46 2.57-.38 2.58-.31 2.69-.24 2.9-.2 3.13-.13 3.29-.06 3.32-.01 3.11-.03" filter="url(#a)"/><path d="m-52.94-61.24 3.99-2.19 4.08-1.42 3.14-1.45 2.23-1.5 2.12-1.46 2.43-1.37 2.65-1.27 2.56-1.19 2.26-1.11 1.89-1.03 1.61-.97 1.5-.91 1.54-.85 1.72-.79 1.94-.71 2.12-.63 2.23-.54 2.23-.46 2.15-.37 2.01-.3 1.87-.23 1.74-.17 1.64-.1 1.58-.04 1.52.04 1.46.11 1.34.17 1.18.24.96.3.75.36.6.43.55.55.58.65" filter="url(#a)"/><path d="m-52.94-61.24 2.12-2.19 1.13-1.41 1.06-1.46 1.25-1.49 1.66-1.46 2.06-1.37 2.27-1.27 2.24-1.19 2.08-1.1 1.9-1.04 1.82-.97 1.83-.91 1.95-.85 2.14-.79 2.31-.72 2.48-.64 2.58-.54 2.66-.46 2.73-.38 2.85-.3 2.98-.24 3.15-.17 3.32-.11 3.51-.04 3.7.03 3.87.1 3.95.17 3.8.24 3.4.29 3.05.29 3.21.18" filter="url(#a)"/><path d="m-52.76-61.48-4.41-1.77 2.4-1.22 3.65-1.31 3.22-1.41 2.53-1.42 1.99-1.36 1.67-1.28 1.52-1.2 1.54-1.13 1.63-1.07 1.81-1.01 2.04-.96 2.27-.89 2.48-.84 2.61-.77 2.65-.69 2.64-.61 2.58-.53 2.56-.44 2.55-.36 2.62-.28 2.72-.22 2.89-.15 3.08-.09 3.22-.04 3.15-.01 2.83.04 3.42.21" filter="url(#a)"/><path d="m-54.17-60.11.57-1.57.49-1.6.94-1.49 1.69-1.48 2.3-1.49 2.62-1.44 2.65-1.36 2.56-1.28 2.4-1.2 2.25-1.11 2.14-1.04 2.07-.98 2.06-.91 2.11-.86 2.17-.8 2.25-.72 2.32-.64 2.38-.55 2.42-.46 2.47-.39 2.55-.3 2.66-.24 2.8-.18 2.95-.11 3.07-.05 3.15.02 3.23.1 3.26.17 3.14.25 2.74.32 2.74.43" filter="url(#a)"/><path d="m-55.55-59.22 2.87-2.11 2.36-1.65 2.28-1.4 2.79-1.38 3.38-1.41 3.55-1.4 3.22-1.36 2.67-1.28 2.17-1.21 1.85-1.14 1.69-1.07 1.63-1.02 1.67-.95 1.77-.9 1.95-.83 2.12-.77 2.24-.69 2.26-.61 2.18-.52 2.03-.44 1.87-.36 1.71-.28 1.59-.22 1.46-.14 1.33-.09 1.16-.03.98.03.81.11.71.22.78.36.69.5" filter="url(#a)"/><path d="m-55.07-59.08.52-.85 1.34-1.47 1.24-1.49 1.1-1.41 1.21-1.41 1.5-1.4 1.79-1.4 1.95-1.35 2.01-1.28 2.03-1.21 2.07-1.15 2.15-1.08 2.28-1.02 2.37-.96 2.44-.9 2.46-.84 2.43-.78 2.38-.7 2.36-.61 2.37-.53 2.41-.45 2.49-.36 2.57-.29 2.64-.22 2.72-.16 2.82-.09 2.89-.04 2.82-.01 2.56.04 3.15.21" filter="url(#a)"/><path d="m-55.07-59.08.41-.85 1.37-1.47 1.62-1.48 1.7-1.42 1.77-1.4 1.83-1.41 1.89-1.39 1.92-1.35 1.96-1.28 1.99-1.21 2.02-1.15 2.05-1.08 2.11-1.02 2.19-.96 2.28-.9 2.39-.85 2.46-.78 2.5-.7 2.49-.62 2.45-.53 2.39-.45 2.34-.37 2.32-.29 2.32-.22 2.38-.16 2.52-.08 2.67-.04 2.47-.05.8-.11" filter="url(#a)"/><path d="m-59.32-54.8.85-2.92 2.02-1.91 1.62-1.65 1.02-1.53.92-1.45 1.28-1.42 1.72-1.41 1.92-1.39 1.83-1.35 1.57-1.28 1.36-1.22 1.32-1.15 1.45-1.08 1.69-1.02 1.92-.97 2.07-.9 2.13-.84 2.16-.77 2.23-.69 2.41-.62 2.68-.52 3.02-.45 3.36-.36 3.62-.29 3.79-.22 3.92-.15 4.06-.09 4.27-.03 4.54.03 4.95.11 5.64.22 6.63.36 6.95.5" filter="url(#a)"/><path d="m-60.03-53.7 1.25-1.82 1.14-2.08.55-1.87v-1.69l-.05-1.56.5-1.47 1.36-1.44 2.14-1.41 2.66-1.39 2.89-1.34 2.89-1.29 2.77-1.22 2.58-1.15 2.4-1.09 2.23-1.03 2.1-.97 2.05-.9 2.07-.85 2.17-.77 2.32-.7 2.5-.62 2.65-.53 2.77-.45 2.83-.37 2.87-.29 2.91-.22 2.98-.15 3.1-.1 3.25-.03 3.36.01 3.45.08 3.86.2 4.9.39" filter="url(#a)"/><path d="m-60.49-53.14-3.78-.95 2.01-1.65 2.46-1.85 1.59-1.81.69-1.68.18-1.58.13-1.49.5-1.46 1.12-1.42 1.75-1.39 2.21-1.34 2.47-1.28 2.54-1.23 2.51-1.15 2.47-1.09 2.5-1.03 2.6-.97 2.73-.9 2.87-.84 2.96-.77 3.01-.69 3.01-.62 2.97-.52 2.93-.45 2.91-.36 2.91-.29 2.96-.22 3.06-.15 3.18-.08 3.32-.02 3.46.05 3.61.13 3.78.22 4 .32 4.13.39 4.18.43 4.59.45" filter="url(#a)"/><path d="m-60.49-53.14.49-.94-.01-1.62-.23-1.85.51-1.8 1.55-1.68 2.16-1.57 2.23-1.48 1.99-1.45 1.7-1.41 1.52-1.39 1.52-1.35 1.6-1.29 1.76-1.22 1.9-1.16 2.05-1.1 2.18-1.03 2.3-.98 2.43-.91 2.56-.87 2.67-.79 2.78-.73 2.82-.64 2.82-.55 2.77-.45 2.74-.38 2.73-.32 2.67-.25 2.47-.17 2.33-.01" filter="url(#a)"/><path d="m-63.17-49.73-.58-2.42-4.44-1.76-3.05-1.78-1.36-1.82-.72-1.77-.4-1.68.08-1.57.69-1.51 1.32-1.45 1.93-1.43 2.5-1.39 2.93-1.34 3.16-1.29 3.19-1.23 3.06-1.16 2.89-1.1 2.8-1.04 2.78-.98 2.86-.91 3-.86 3.18-.8 3.4-.72 3.6-.64 3.75-.55 3.81-.45 3.76-.38 3.69-.31 3.69-.24 3.76-.15 4.11-.05 5.54.05" filter="url(#a)"/><path d="m-63.17-49.73 1.66-2.41 1.48-1.76 1.57-1.77 1.65-1.81 1.66-1.77 1.67-1.68 1.68-1.57 1.71-1.5 1.78-1.45 1.85-1.42 1.91-1.39 1.97-1.35 2-1.29 2.04-1.24 2.07-1.16 2.11-1.1 2.15-1.04 2.21-.98 2.29-.92 2.37-.88 2.44-.81 2.48-.74 2.47-.65 2.41-.56 2.33-.45 2.31-.36 2.39-.34 2.7-.46m82.58 62.07.99 2.03 2.2 2.36L83-13.66l2.76 2.56 2.03 2.63 1.25 2.7.61 2.73.22 2.7.03 2.64-.01 2.57-.06 2.48-.15 2.43-.26 2.4-.33 2.38-.29 2.4-.12 2.43.19 2.46.62 2.48 1.08 2.48L92 29.26l1.55 2.36 1.34 2.27.82 2.17.13 2.11-.49 2.09-.81 2.12-.75 2.2-.51 2.24-.33 2.15-.18 1.83-.89 1.55" filter="url(#a)"/><path d="m-64.23-47.97 1.18-2.15 1.24-2.16 1.34-2.07 1.47-1.91 1.56-1.77 1.58-1.64 1.53-1.58 1.43-1.52 1.35-1.5 1.34-1.48 1.42-1.47 1.55-1.44 1.67-1.39 1.74-1.32 1.77-1.24 1.83-1.16 1.92-1.07 2.03-1 2.09-.9 2.13-.85 2.51-.91 4.33-1.39" filter="url(#a)"/><path d="m-64.52-47.87 1.36-2.07 1.15-2 .23-1.83-.98-1.8-1.75-1.8-1.65-1.76-.91-1.67-.02-1.58.6-1.5.79-1.45.74-1.43.75-1.39 1.06-1.36 1.61-1.3 2.21-1.24 2.59-1.17 2.65-1.11 2.52-1.04 2.39-.99 2.48-.93 2.8-.89 3.18-.85 3.35-.79 3.25-.7 2.74-.55" filter="url(#a)"/><path d="m-64.52-47.87 1.83-2.08 2.27-2 2.04-1.84 1.72-1.81 1.53-1.81 1.54-1.76 1.68-1.67 1.87-1.58 2.04-1.51 2.12-1.46 2.13-1.43 2.08-1.39 2.03-1.35 1.99-1.3 2.02-1.23 2.08-1.17 2.17-1.11 2.24-1.04 2.29-.98 2.32-.93 2.34-.88 2.36-.82 2.34-.76 2.31-.66 2.21-.56 2.09-.44 1.96-.32 1.95-.24m-58.76 35.94-2.25 2.66-2.9 2.32-3.62 2.24-3.41 2.15-2.4 2.14-1.39 2.2-1.04 2.29-1.39 2.35-2.06 2.41-2.64 2.44-2.83 2.46-2.59 2.46-2.12 2.47-1.68 2.47-1.47 2.49-1.46 2.52-1.51 2.56-1.48 2.58-1.27 2.59-1.01 2.57-.86 2.53-.89 2.49-1.05 2.47-1.23 2.46-1.42 2.49-1.73 2.51-2.22 2.55-2.72 2.6-2.72 2.65-1.01 2.24" filter="url(#a)"/><path d="m-65.73-46.06-1.88 2.67-2.18 2.33-3.24 2.25-4.19 2.16-4.13 2.16-3 2.22-1.4 2.3-.06 2.36.62 2.42.65 2.45.24 2.47-.33 2.48-.88 2.48-1.37 2.49-1.78 2.51-2.18 2.54-2.57 2.57-2.89 2.58-3.05 2.58-2.98 2.57-2.71 2.54-2.27 2.51-1.75 2.5-1.23 2.49-.68 2.49-.12 2.49.41 2.47.83 2.41.94 2.33.65 2.21.1 2.13-.31 2.14-.16 2.3-.09 2.48-2.22 1.76" filter="url(#a)"/><path d="m-66-45.14-17.67 2.55-6.12 1.86.24 2.04-.99 2.27-3.6 2.4-4.39 2.43-3.6 2.43-2.44 2.44-1.69 2.45-1.28 2.47-.93 2.5-.52 2.54-.36 2.55-.82 2.54-2.18 2.51-4.27 2.47-6.59 2.43-8.28 2.43-8.59 2.41-7.13 2.4-4.26 2.38-1.19 2.39.51 2.44-.16 2.51-2.6 2.61-5.1 2.61-5.95 2.12m98.13-62.64-2.31 1.65-2.1 2.26-1.15 2.14-.94 2.13-1.1 2.21-1.21 2.3-1.17 2.38-.99 2.43-.82 2.47-.75 2.47-.8 2.49-.95 2.48-1.13 2.5-1.28 2.52-1.33 2.54-1.27 2.57-1.12 2.58-.91 2.58-.71 2.57-.53 2.54-.38 2.52-.27 2.51-.17 2.49-.1 2.49-.08 2.47-.1 2.45-.17 2.39-.25 2.33-.25 2.26-.1 2.22.21 2.23.62 2.29.91 2.36.84 2.35.35 2.19-.23 1.89.36 1.84" filter="url(#a)"/><path d="m-68.18-41.39-2.29.8-5.37 1.84-5.29 2.32-3.24 2.44-1.05 2.45.12 2.43-.07 2.43-1.31 2.43-2.88 2.46-4.01 2.5-4.27 2.54-3.64 2.55-2.51 2.54-1.41 2.5-.79 2.46-.88 2.42-1.6 2.42-2.75 2.41-4.02 2.39-4.95 2.36-5.14 2.36-4.53 2.41-3.55 2.52-2.38 2.7 1.36 3.29" filter="url(#a)"/><path d="m-68.18-41.39-10.79.79-9.4 1.85-3.98 2.3-2.01 2.44-1.89 2.45-2.35 2.43-2.82 2.42-2.96 2.43-2.61 2.45-1.98 2.5-1.46 2.53-1.46 2.55-2.12 2.54-3.26 2.5-4.54 2.45-5.56 2.42-6.01 2.41-5.72 2.41-4.82 2.38-3.81 2.35-3.54 2.33-4.52 2.38-6.15 2.4-9.7 2.18m103.46-55.89-.64.82-.97 1.89-1.12 2.35-1.09 2.47-.99 2.48-.91 2.47-.82 2.46-.74 2.48-.67 2.51-.6 2.53-.52 2.56-.45 2.56-.38 2.55-.3 2.52-.23 2.49-.16 2.47-.08 2.45-.01 2.45.06 2.44.14 2.46.22 2.47.3 2.49.37 2.5.45 2.51.52 2.5.58 2.47.63 2.43.7 2.38.75 2.35.81 2.32.87 2.28.92 2.27.99 2.24 1.05 2.25 1.14 2.3 1.27 2.39 1.46 2.61" filter="url(#a)"/><path d="m-68.65-41.37-4.28 2.32-4.44 2.59-2.06 2.55-1.05 2.47-1.85 2.44-3.57 2.42-5.04 2.43-5.43 2.46-4.57 2.5-3.01 2.54-1.51 2.55-.78 2.54-1.01 2.5-2 2.46-3.27 2.42-4.38 2.42-5.05 2.4-5.15 2.39-4.64 2.38-3.55 2.38-2.27 2.42-1.71 2.52-2.57 2.59-3.96 2.61-.28 2.11" filter="url(#a)"/><path d="M-68.65-41.37-74-39.04l-4.18 2.59-1 2.56.31 2.48.24 2.44-.47 2.43-1.42 2.45-2.31 2.47-2.87 2.51-2.98 2.54-2.67 2.56-2.15 2.54-1.64 2.5-1.28 2.46-1.14 2.44-1.12 2.42-1.17 2.41-1.26 2.4-1.36 2.4-1.42 2.42-1.35 2.45-1.15 2.52-1 2.59-1.15 2.61-1.44 2.56-1.02 2.3.84 1.33" filter="url(#a)"/><path d="M-68.65-41.37-73-39.02l-.77 2.6-1.09 2.58-2.18 2.49-2.79 2.46-2.75 2.44-2.41 2.47-2.16 2.49-2.2 2.52-2.45 2.55-2.66 2.57-2.66 2.54-2.38 2.52-1.96 2.48-1.51 2.45-1.13 2.44-.8 2.43-.51 2.42-.29 2.44-.26 2.45-.52 2.48-1.06 2.51-1.74 2.53-2.27 2.51-2.42 2.47-2.17 2.42-1.79 2.36-1.59 2.34-1.63 2.32-1.49 2.3-.74 2.34.22 2.86" filter="url(#a)"/><path d="m-70.51-37.37-1.3 1.33-1.16 1.69-.95 2.12-1.09 2.34-1.57 2.41-2.37 2.44-3.32 2.47-4.18 2.48-4.66 2.48-4.53 2.47-3.8 2.49-2.57 2.5-1.19 2.53-.05 2.57.56 2.58.57 2.59.11 2.56-.53 2.53-1.08 2.51-1.34 2.49-1.27 2.49-.96 2.48-.53 2.48-.19 2.45-.09 2.4-.37 2.32-1.01 2.22-1.85 2.17-2.56 2.18-2.88 2.3-2.53 2.49-.98 2.63 3.05 3.16" filter="url(#a)"/><path d="m-70.51-37.37-2.35 1.33-5.3 1.69-5.17 2.13-4 2.34-2.72 2.41-1.49 2.45-.58 2.47-.35 2.48-.82 2.48-1.72 2.48-2.54 2.48-2.89 2.51-2.61 2.54-1.93 2.56-1.18 2.59-.68 2.58-.58 2.56-.84 2.54-1.31 2.51-1.81 2.5-2.3 2.49-2.71 2.48-2.94 2.47-2.87 2.45-2.37 2.39-1.44 2.32-.38 2.24.38 2.19.45 2.21-.21 2.3-1.37 2.41-2.61 2.44-3.46 2.21-2.66 1.28M76.16-22.48l1.26 3.43 1.06 2.75 1.28 2.3 1.39 2.13 1.41 2.13 1.29 2.26 1 2.42.56 2.58.06 2.66-.39 2.69-.67 2.67-.78 2.64-.71 2.61-.5 2.59-.25 2.54.03 2.51.22 2.44.31 2.4.28 2.33.16 2.27-.02 2.23-.22 2.18-.39 2.15-.47 2.11-.46 2.07-.36 2.02-.25 1.95-.22 1.95-.38 2.08-.77 2.56" filter="url(#a)"/><path d="m76.16-22.48 2.68 3.4 1.36 2.73 1.15 2.29 1.57 2.1 1.69 2.09 1.24 2.2.6 2.39.24 2.55.3 2.65.63 2.68.97 2.65 1.16 2.62 1.16 2.6 1.05 2.57.84 2.55.53 2.5.19 2.45-.05 2.39-.07 2.33.18 2.25.73 2.22 1.56 2.29 1.81 2.29M-71.07-35.91l-.79 1.35-1 2.2-1.03 2.44-1.02 2.43-1 2.43-.99 2.46-.95 2.47-.9 2.46-.81 2.46-.7 2.45-.57 2.47-.45 2.52-.35 2.55-.26 2.59-.19 2.58-.12 2.56-.07 2.52-.02 2.47.02 2.46.06 2.46.12 2.48.17 2.5.2 2.52.21 2.51.23 2.43.16 2.08-.25 1.35m10.3-64.2-1.46 1.34-3.58 2.21-4.27 2.43-3.23 2.43-2.19 2.42-2.02 2.45-2.45 2.47-2.98 2.47-3.43 2.44-3.92 2.45-4.52 2.47-5.14 2.51-5.49 2.55-5.32 2.58-4.58 2.59-3.38 2.56-2.04 2.51-.87 2.47-.3 2.45-.64 2.45-1.83 2.47-3.15 2.5-3.36 2.54-1.91 2.59-.58 2.64-2.34 2.22" filter="url(#a)"/><path d="m-70.95-36.42-8.57 2.89-.37 2.37.28 2.36-1.46 2.4-4.27 2.42-7.05 2.45-8.68 2.5-8.6 2.54-7.13 2.57-5.19 2.54-3.71 2.49-3.15 2.44-3.35 2.42-3.66 2.41-3.45 2.4-2.57 2.39-1.54 2.37-1.23 2.39-2.03 2.44-3.51 2.51-4.68 2.59-4.95 2.67-4.16 2.75.49 3.21" filter="url(#a)"/><path d="m-70.95-36.42-1.92 2.89-3.71 2.36-4.94 2.35-4.29 2.4-3.2 2.42-2.84 2.44-3.09 2.49-3.36 2.54-3.27 2.57-3.02 2.53-3.07 2.49-3.6 2.44-4.44 2.41-5.13 2.4-5.39 2.4-5.28 2.38-5.21 2.37-5.46 2.37-5.84 2.42-5.63 2.5-4.4 2.59-3.9 2.6-8.83 2.1" filter="url(#a)"/><path d="m-70.95-36.42-29.95 2.89-4.36 2.36 5.7 2.35 5.82 2.4 2.4 2.42-1.19 2.44-3.85 2.49-5.35 2.54-5.72 2.57-4.96 2.53-3.37 2.49-1.53 2.44-.15 2.41.23 2.4-.52 2.4-2.15 2.38-4.18 2.37-6.1 2.37-7.32 2.42-7.21 2.5-5.49 2.59-3.56 2.6-6.16 2.1" filter="url(#a)"/><path d="m-70.95-36.42-5.03 2.91-3.43 2.39-1.24 2.38-.93 2.42-1.41 2.45-1.84 2.48-1.93 2.52-1.65 2.56-1.23 2.57-.91 2.55-.78 2.51-.87 2.47-1.1 2.45-1.4 2.42-1.69 2.43-1.86 2.42-1.81 2.42-1.52 2.45-1.07 2.48-.61 2.5-.29 2.52-.12 2.52-.01 2.46.17 2.41.34 2.36.27 2.33-.24 2.32-1.02 2.29-1.52 2.34-1.56 2.85" filter="url(#a)"/><path d="m-72.9-32.6-2.49 1.66-3.96 2.28-3.04 2.44-2.17 2.46-1.8 2.49-1.69 2.53-1.64 2.57-1.53 2.58-1.28 2.56-.97 2.52-.7 2.47-.63 2.45-.83 2.44-1.27 2.43-1.87 2.43-2.54 2.44-3.24 2.46-3.9 2.49-4.49 2.5-4.86 2.51-4.87 2.49-4.37 2.46-3.28 2.42-1.67 2.37.19 2.34 1.86 2.3 2.86 2.28 2.75 2.26 1.49 2.23-.4 2.24-2.13 2.29-3.54 2.38-5.79 2.61" filter="url(#a)"/><path d="m-73.17-31.69-1.44 2.93-3 2.55-4.38 2.48-4.54 2.46-3.95 2.51-3.59 2.57-3.78 2.59-4.15 2.56-4.22 2.5-3.7 2.46-2.69 2.42-1.47 2.42-.28 2.42.7 2.41 1.41 2.42 1.72 2.44 1.53 2.47.72 2.5-.56 2.52-1.99 2.51-3.1 2.46-3.52 2.4-3.17 2.35-2.32 2.32-1.33 2.32-.3 2.28.93 2.33 1.65 2.85" filter="url(#a)"/><path d="m-74.69-27.09-2.63 2.14-4.37 2.53-2.8 2.6-.98 2.51-.4 2.42-.52 2.39-.69 2.44-.79 2.5-.91 2.56-1.06 2.59L-91 .17l-1.09 2.54-.97 2.5-.99 2.45-1.26 2.43-1.77 2.44-2.25 2.46-2.44 2.49-2.14 2.5-1.31 2.51-.21 2.41.4 2.06-1.23 1.33M75.33-24.45l7.09 1.33L91.15-21l4 2.34.78 2.42-.07 2.49v2.56l-.08 2.63-.5 2.69-.95 2.7-1.04 2.69-.61 2.63.22 2.57 1.12 2.51 1.8 2.44 2.04 2.41 1.9 2.4 1.55 2.41 1.2 2.43.94 2.46.8 2.49.75 2.48.83 2.44 1.08 2.38 1.5 2.27 1.91 2.18 2 2.12 1.5 2.09.35 2.13-1.02 2.2-1.94 2.24-1.78 2.16-.38 1.84 1.02 1.55m-34.74-76.8.4 1.34.35 2.12.14 2.35-.03 2.43-.26 2.5-.54 2.57-.83 2.63-1.08 2.69-1.34 2.71-1.59 2.69-1.84 2.64-2.04 2.57-2.18 2.51-2.2 2.45-2.12 2.43-1.92 2.41-1.66 2.42-1.43 2.44-1.3 2.46-1.27 2.48-1.33 2.46-1.42 2.43-1.47 2.36-1.51 2.28-1.59 2.21-1.79 2.15-2.09 2.13-2.46 2.13-2.77 2.15-2.9 2.13-2.81 2.06-2.52 1.95-2.18 1.83-1.98 1.78-1.81 1.81-1.14 1.87" filter="url(#a)"/><path d="m73.68-30.18.61 1.58.73 2.46.72 2.44.68 2.39.63 2.37.57 2.4.48 2.45.39 2.51.31 2.59.25 2.64.18 2.68.15 2.68.09 2.64.04 2.57-.03 2.49-.09 2.41-.16 2.36-.22 2.32-.31 2.31-.4 2.31-.52 2.38-.65 2.57-.76 2.74-.65 2.31m-3.25-61.16 1.05 2.05 1.33 2.16 2.11 2.36 3.14 2.4 3.91 2.39 4.03 2.39 3.53 2.41 2.77 2.47 2.25 2.52L98.84-9l2.69 2.64 3.26 2.68L108.4-1l3.57 2.64 3.24 2.58 2.8 2.49 2.49 2.43 2.46 2.37 2.87 2.34 3.8 2.33 5.08 2.35 6.18 2.41 6.37 2.55 5.05 2.67 2.71 2.67 2.7 2.69" filter="url(#a)"/><path d="m72.47-32.74 2.2 2.08.47 2.19.38 2.38.54 2.43.63 2.41.64 2.43.59 2.45.51 2.5.45 2.57.4 2.62.35 2.66.33 2.68.31 2.67.28 2.64.25 2.58.17 2.51.09 2.47-.02 2.43-.15 2.41-.25 2.42-.35 2.44-.43 2.47-.5 2.48-.53 2.49-.58 2.44-.62 2.38-.7 2.29-.79 2.19-.92 2.13-1.07 2.1-1.18 2.14-1.26 2.2-1.27 2.25-1.22 2.16-1.05 1.84-.99 1.56m2.28-92.18 2.89 3.04 4.19 2.55 3.13 2.4 1.81 2.32 1.48 2.31 1.88 2.36 2.42 2.44 2.73 2.48 2.73 2.45 2.59 2.36 2.47 2.27 2.44 2.2 2.41 2.22 2.23 2.33 1.83 2.49 1.33 2.63.98 2.69 1.02 2.64 1.48 2.57 2.22 2.61 3.35 2.84 4.66 3.05" filter="url(#a)"/><path d="m69.06-40.12 7.52 2.41 2.6 2.23 1.16 2.2.24 2.21-.17 2.26.02 2.31.54 2.34 1.07 2.36 1.36 2.37 1.43 2.39 1.37 2.42 1.33 2.49 1.38 2.54 1.51 2.62 1.63 2.68 1.66 2.72 1.56 2.7 1.3 2.62 1 2.49.89 2.28 1.06 1.97 1.85 1.58" filter="url(#a)"/><path d="m68.43-41.41.95 1.7 1.23 2.09 1.43 2.19 1.72 2.23 2.23 2.27 2.9 2.31 3.6 2.35 4.09 2.38 4.18 2.4 3.75 2.44 2.88 2.46 1.76 2.51.66 2.56-.14 2.6-.48 2.65-.25 2.67.47 2.66 1.51 2.63 2.59 2.59 3.42 2.53 3.8 2.47 3.66 2.44 3.07 2.41 2.2 2.42 1.26 2.44.48 2.47-.02 2.5-.12 2.51.15 2.49.68 2.41 1.18 2.29 1.42 2.17 1.13 2.06.33 2.03-.59 2.04-1.05 2.13-2.03 2.49" filter="url(#a)"/><path d="m65.58-45.81 5.3 2.25 2.8 2.47 1.6 2.3 1.33 2.27 1.47 2.3 1.78 2.34 2.11 2.36 2.31 2.39 2.33 2.42 2.1 2.46 1.67 2.46 1.13 2.43.57 2.4.1 2.36-.16 2.36-.18 2.38.09 2.45.64 2.52L93.96-.3l2.28 2.63 3.14 2.65 3.81 2.65 4.11 2.64 3.91 2.61 3.25 2.57 2.28 2.54 1.3 2.48.52 2.42.09 2.37-.11 2.3-.22 2.25-.36 2.2-.42 2.18-.25 2.15.11 2.15.35 2.04.79 1.56" filter="url(#a)"/><path d="m65.99-45.21 1.41 1.67 2.45 1.82 3.8 1.92 4.1 2.04 3.2 2.11 1.93 2.18 1.09 2.22 1.01 2.26 1.51 2.31 2.25 2.34 2.94 2.36 3.47 2.38 3.86 2.41 4.14 2.44 4.31 2.49 4.29 2.56 3.98 2.62 3.41 2.69 2.77 2.72 2.48 2.72 2.82 2.64 3.54 2.51 3.73 2.3 2.43 1.98.38 1.59M64.55-47.95l-1.18 2.31-.36 1.98 1.39 1.94 1.9 1.98 1.62 2.06 1.1 2.14.56 2.2.06 2.25-.34 2.3-.67 2.33-.85 2.37-.93 2.4-.89 2.42-.79 2.46-.67 2.5-.53 2.55-.39 2.6-.25 2.64-.1 2.66.01 2.67.05 2.64-.02 2.59-.24 2.54-.61 2.47-1.07 2.43-1.53 2.39-1.93 2.4-2.25 2.42-2.49 2.46-2.61 2.54-2.5 2.58L46 28.86l-1.35 2.51-.87 2.34-1.15 2.01L40.69 37" filter="url(#a)"/><path d="m64.55-47.95 6.59 2.3 4.29 1.97.59 1.91.02 1.97.93 2.05 2.09 2.12 3.06 2.17 3.76 2.24 4 2.27 3.68 2.32 2.87 2.35 1.88 2.37 1.08 2.4.73 2.43.98 2.47 1.71 2.52 2.64 2.58 3.47 2.63 3.86 2.68 3.74 2.69 3.17 2.68 2.42 2.61 1.72 2.53L125 8.74l.78 2.39.7 2.37 1.54 2.33 3.53 2.1 3.46 1.91" filter="url(#a)"/><path d="m62.42-51.08 2.91 1.48 4.61 1.8 3.96 2.04 3.41 2.19 3.77 2.26 4.23 2.28 4.18 2.29 3.79 2.3 3.42 2.33 3.23 2.35 3.12 2.38 2.92 2.42 2.51 2.44 1.93 2.44 1.31 2.43.86 2.39.7 2.35.94 2.34 1.54 2.37 2.35 2.42 3.08 2.51 3.46 2.58 3.33 2.64 2.8 2.67 2.18 2.66 1.85 2.64 2.05 2.63 2.77 2.59 3.62 2.56 4.12 2.51 3.94 2.46 2.86 2.38.51 2.16-3.17 1.56" filter="url(#a)"/><path d="m60.42-53.38 3.02 2.91 2.54 2.38 3.09 2.14 4.38 2.01 4.93 1.97 4.22 1.98 2.96 2.04 2.01 2.09 1.84 2.15 2.36 2.2 3.16 2.26 3.81 2.29 4.08 2.33 3.97 2.35 3.66 2.38 3.29 2.39 2.98 2.43 2.8 2.47 2.93 2.53 3.67 2.62 4.95 2.71 6.01 2.78 5.62 2.8 3.95 2.68 4.78 2.13" filter="url(#a)"/><path d="m60.03-53.71 13.55 2.13 3.17 1.83-1.55 1.87-1.27 2.02 1.28 2.14 4.02 2.21 5.65 2.24 5.66 2.26 4.38 2.27 2.66 2.3 1.33 2.31.92 2.34 1.54 2.38 2.9 2.43 4.48 2.47 5.66 2.45 5.89 2.4 5.03 2.29 3.45 2.18 1.95 2.14 1.24 2.22 1.62 2.48 2.93 2.86 4.54 3.29 2.45 3.55" filter="url(#a)"/><path d="m59-55 2.32 2.11 2.81 2.41 2.45 2.31 1.8 2.18 1.23 2.07.88 2.03.73 2.03.77 2.08.93 2.13 1.17 2.19 1.46 2.24 1.73 2.28 1.96 2.33 2.05 2.36 1.99 2.39 1.81 2.43 1.55 2.46 1.29 2.49L89-11.93l.91 2.59.8 2.64.72 2.67.68 2.67.69 2.65.78 2.6.94 2.54 1.11 2.48 1.19 2.42 1.12 2.39.87 2.38.5 2.39.07 2.46-.36 2.55-.6 2.65-.46 2.66-.08 2.58.12 2.41" filter="url(#a)"/><path d="m58.04-56.19 2.12 2.32 2.28 2.07 2.11 1.92 1.74 1.93 1.43 2.02 1.3 2.12 1.3 2.19 1.33 2.23L73-37.14l1.34 2.27 1.35 2.29 1.39 2.3 1.43 2.33 1.46 2.37 1.46 2.43 1.41 2.48 1.37 2.48 1.31 2.42 1.25 2.29 1.2 2.12 1.16 2.01 1.14 2.03.99 2.29.27 2.7" filter="url(#a)"/><path d="m57.03-57.29 1.25 1.52 1.34 1.94 1.06 1.97.78 1.94.57 1.97.44 2.04.43 2.13.47 2.19.56 2.24.64 2.26.69 2.28.67 2.31.53 2.32.27 2.36-.09 2.39-.51 2.43-.91 2.46-1.23 2.45-1.39 2.39-1.34 2.31-1.14 2.23-.91 2.2-.88 2.29-1.09 2.49-1.42 2.76-1.66 2.91-2.07 2.61-2.89 1.28" filter="url(#a)"/><path d="m57.03-57.29 1.53 1.53 2.75 1.96 3.06 1.98 2.5 1.96 1.99 1.99 1.95 2.07 2.4 2.14 3.07 2.21 3.66 2.26 3.93 2.28 3.78 2.3 3.26 2.33 2.57 2.35 1.91 2.38 1.43 2.41 1.22 2.44 1.25 2.44 1.4 2.42 1.54 2.4 1.55 2.35 1.36 2.34 1.02 2.36.65 2.42.45 2.5.56 2.59.89 2.65 1.26 2.67 1.39 2.67 1.18 2.65.77 2.64.5 2.61.53 2.56.58 2.51.32 2.5 1.21 2.51" filter="url(#a)"/><path d="m56.27-58.14 1.98 1.85 3.61 1.68 4.8 1.93 4.64 2.11 3.73 2.16 2.68 2.13 1.94 2.06 1.82 2.03 2.29 2.02 2.95 2.05 3.36 2.1 3.23 2.15 2.66 2.2 2 2.25 1.59 2.29 1.63 2.33 2.04 2.35 2.58 2.38 2.98 2.4 3.06 2.42 2.91 2.47 2.75 2.53 2.9 2.62 3.47 2.72 4.41 2.82L133.6.84l3.34 3.33" filter="url(#a)"/><path d="m56.27-58.14 5.15 1.84 4.82 1.67 4.13 1.92 2.49 2.1 1.45 2.15 1.4 2.12 1.89 2.06 2.41 2.01 2.72 2.01 2.83 2.03 2.82 2.08 2.8 2.13 2.84 2.19 2.94 2.23 3.13 2.28 3.37 2.32 3.67 2.35 4.02 2.36 4.38 2.37 4.67 2.39 4.84 2.42 5.26 2.45 6.27 2.41 4.6 2.06" filter="url(#a)"/><path d="m55.7-58.7 1.31 1.38 1.68 1.66 2.12 1.87 2.31 1.93 2.23 1.95 2.02 2 1.81 2.07 1.72 2.14 1.71 2.2 1.73 2.25 1.75 2.28 1.72 2.3 1.64 2.32L80.94-30l1.3 2.38 1.11 2.41.97 2.44.94 2.44 1.03 2.43 1.15 2.39 1.26 2.35 1.25 2.34 1.13 2.35.93 2.41.77 2.5.73 2.59.82 2.66.96 2.68 1.06 2.67.99 2.65.76 2.65.44 2.62.29 2.55.49 2.49.44 2.5M55.7-58.7l5.29 1.37 6.37 1.63 5.41 1.84 4.29 1.91 3.01 1.92 1.69 1.96.67 2.04.17 2.1.28 2.18.76 2.22 1.35 2.24 1.84 2.27 2.19 2.29 2.51 2.31 2.82 2.33 3.07 2.37 3.14 2.43 3.09 2.49 3.07 2.51 3.36 2.45 3.91 2.3 4.26 2.11 3.9 1.91 3.57 1.89L132-5.17" filter="url(#a)"/><path d="m54.22-60.32 7.32 2.03 3.27 1.81 1.59 1.78 1.04 1.93 1.21 2.06 2.02 2.12 3.24 2.1 4.56 2.05 5.62 2.01 6.2 1.99 6.21 2.02 5.75 2.06 4.92 2.12 3.89 2.16 2.75 2.22 1.52 2.27.44 2.32-.11 2.34.33 2.34 1.82 2.35 3.84 2.37 5.44 2.3" filter="url(#a)"/><path d="m54.22-60.32 2.01 2.05 2.38 1.83 3.22 1.82 3.8 1.96 3.75 2.09 3.51 2.13 3.66 2.12 4.29 2.07 5.09 2.05 5.63 2.04 5.69 2.07 5.28 2.1 4.56 2.16 3.79 2.21 3.1 2.26 2.58 2.3 2.27 2.33 2.18 2.37 2.37 2.39 2.89 2.41 3.72 2.45 4.72 2.49 5.58 2.56 5.88 2.63 5.33 2.72 3.89 2.77 2.14 2.78 1.01 2.73 1.05 2.65 1.4 2.84" filter="url(#a)"/><path d="m54.02-60.07 4.52 1.34 4.19 1.46 1.86 1.66.98 1.82 1.49 1.9 2.46 1.94 3.2 2 3.44 2.07 3.26 2.14 2.86 2.19 2.36 2.24 1.88 2.27 1.46 2.3 1.15 2.33.98 2.35.97 2.38 1.11 2.4 1.34 2.44 1.6 2.44 1.8 2.43 1.9 2.39 1.86 2.35 1.73 2.33 1.61 2.34 1.58 2.4 1.67 2.5 1.81 2.6 1.86 2.67 1.72 2.69 1.35 2.66.95 2.66.73 2.67.79 2.63.99 2.51 1.86 2.57" filter="url(#a)"/><path d="m51.56-63.03 1.22.92 1.78 1.72 2.29 1.89 2.67 1.89 2.64 1.92 2.27 1.99 1.78 2.06 1.38 2.1 1.14 2.1 1.1 2.08 1.22 2.06 1.46 2.06 1.74 2.07 2.02 2.12 2.23 2.16 2.29 2.21 2.18 2.26 1.95 2.3 1.64 2.33 1.36 2.37 1.19 2.39 1.19 2.42 1.32 2.45 1.49 2.5 1.58 2.57 1.49 2.63 1.23 2.72.97 2.77.85 2.79.94 2.74 1.03 2.65.49 2.85" filter="url(#a)"/><path d="m51.56-63.03 1.09.93 2.44 1.73 2.35 1.89 1.96 1.89 1.83 1.93 1.99 2 2.23 2.07 2.36 2.1 2.29 2.1 2.04 2.08 1.72 2.07 1.41 2.07 1.17 2.09 1.05 2.12 1.05 2.18 1.14 2.21L81-29.3l1.5 2.31 1.64 2.34 1.71 2.38 1.66 2.4 1.5 2.44 1.31 2.47 1.12 2.53.99 2.58.95 2.64.95 2.69.94 2.73.87 2.71.79 2.66.76 2.54.82 2.41.79 2.35.25 2.6-.81 3.86" filter="url(#a)"/><path d="m49.14-64.61 2.59 1.24 3.71 1.36 3.16 1.66 2.24 1.81 1.8 1.86 1.91 1.91 2.42 1.98 3.28 2.04 4.43 2.09 5.67 2.09 6.79 2.07 7.54 2.05 7.73 2.04 7.29 2.07 6.3 2.09 5.02 2.15 3.82 2.19 3.03 2.25 2.83 2.29 3.14 2.33 3.67 2.36 4.1 2.37 4.13 2.39 3.77 2.42 3.27 2.45 3.2 2.51 3.99 2.59 5.51 2.83 8.5 3.63" filter="url(#a)"/><path d="m44.08-68.56 2.59 1.8 2.82 1.65 4.16 1.53 6.34 1.56 7.65 1.67 7.07 1.76 5.07 1.83 2.83 1.91 1.38 1.97 1.05 2.04 1.63 2.07 2.65 2.08 3.62 2.07 4.32 2.05 4.71 2.05 4.85 2.07 4.9 2.1 4.91 2.14 4.91 2.19 4.86 2.25 4.71 2.29 4.45 2.33 4.15 2.36 3.82 2.37 3.45 2.39 3.05 2.42 3.11 2.44 4.19 2.47 5.66 2.43 5.19 2.08" filter="url(#a)"/><path d="m43.62-68.71 2.17 1.24 2.28 1.55 2.04 1.62 1.86 1.68 1.8 1.7 1.78 1.7 1.75 1.73 1.71 1.76 1.65 1.82 1.62 1.87 1.6 1.93 1.6 1.99 1.6 2.06 1.59 2.12 1.54 2.17 1.49 2.22 1.44 2.26 1.38 2.3 1.36 2.32 1.36 2.34 1.4 2.38 1.46 2.41 1.54 2.44 1.6 2.44 1.62 2.44 1.56 2.41 1.38 2.34 1.13 2.3.84 2.31.57 2.37.43 2.5.41 2.65.43 2.73.44 2.69.42 2.55.35 2.59-.05 2.93" filter="url(#a)"/><path d="m43-69.19 14.35 1.04 1.2 1.47-.8 1.54.87 1.54 2.61 1.59 3.52 1.68 3.9 1.76 4.07 1.84 4.11 1.91 3.94 1.98 3.59 2.03 3.17 2.07 2.86 2.08 2.67 2.08 2.6 2.07 2.48 2.07 2.29 2.08 1.98 2.12 1.66 2.16 1.42 2.2 1.4 2.26 1.65 2.29 2.26 2.34 3.12 2.37 4.05 2.39 4.73 2.41 4.83 2.44 4.21 2.49 3.12 2.55 2.12 2.63 1.81 2.74 2.41 2.84 3.45 2.94 3.4 3.36" filter="url(#a)"/><path d="m39.3-71.9 4.33 2.02L46-68.3l2.35 1.54 2.38 1.54 2.14 1.54 1.83 1.59 1.6 1.66 1.52 1.74 1.57 1.82 1.71 1.89 1.85 1.96L64.91-51l1.98 2.06 1.96 2.07 1.89 2.07 1.8 2.05 1.72 2.04 1.65 2.06 1.59 2.08 1.55 2.13 1.54 2.18 1.54 2.24 1.53 2.29 1.5 2.33 1.42 2.36 1.26 2.37 1.06 2.38 1.12 2.39 1.86 2.33" filter="url(#a)"/><path d="m39.41-71.62 5.52 1.36 1.3 1.33 1.26 1.4 2.19 1.48 3.14 1.55 3.69 1.62 3.7 1.65 3.28 1.66 2.83 1.67 2.67 1.71 3 1.75 3.76 1.81 4.67 1.85 5.43 1.9 5.76 1.97 5.48 2.06 4.72 2.13 3.88 2.18 3.51 2.19 4.04 2.17 5.43 2.12 7.27 1.78" filter="url(#a)"/><path d="m37.28-72.75 4.93 1.29 2.34 1.56 1.63 1.55 1.6 1.55 1.78 1.54 2.01 1.56 2.27 1.6 2.59 1.66 2.97 1.75 3.36 1.82 3.77 1.89 4.15 1.96L75.17-51l4.77 2.06 4.91 2.07 4.84 2.07 4.54 2.05 3.97 2.06 3.26 2.06 2.59 2.1 2.18 2.14 2.22 2.18 2.79 2.24 3.77 2.3 4.83 2.33 5.47 2.36 5.22 2.38 4.07 2.38 3 2.39 3.34 2.39 3.8 2.38" filter="url(#a)"/><path d="m36.2-73.6 1.57.96 2.16 1.29 2.37 1.46 2.51 1.52 2.6 1.54 2.64 1.54 2.63 1.57 2.64 1.61 2.79 1.67 3.04 1.75 3.34 1.82 3.53 1.89 3.54 1.96L74.94-51l3.14 2.06 2.94 2.07 2.79 2.07 2.73 2.06 2.72 2.06 2.77 2.08 2.86 2.1 3.07 2.15 3.38 2.19 3.75 2.24 4.05 2.3 4.08 2.33 3.66 2.37 2.72 2.38 1.51 2.39.5 2.42.37 2.45 1.74 2.56 4.57 2.84" filter="url(#a)"/><path d="m34.65-74.45 3.75 1.46 4.6 1.35 4.37 1.33 3.56 1.37 2.9 1.42 2.6 1.5 2.58 1.57 2.7 1.61 2.83 1.66 2.85 1.68 2.72 1.71 2.55 1.74 2.47 1.79 2.61 1.84 2.98 1.89 3.38 1.95 3.62 2.02 3.55 2.09 3.19 2.14 2.77 2.2 2.53 2.24 2.57 2.27 2.73 2.3 2.67 2.3 2.31 2.3 1.94 2.31 2.22 2.38 3.62 2.61 5.28 2.99 4.17 3.42" filter="url(#a)"/><path d="m33.16-74.84 1.45.46 2.15.8 2.19 1.04 2.14 1.24 2.18 1.38 2.27 1.46 2.34 1.5 2.35 1.53 2.34 1.56 2.29 1.6 2.25 1.65 2.19 1.73 2.18 1.79 2.2 1.87L66-53.28l2.48 2 2.65 2.05 2.76 2.07 2.77 2.07 2.69 2.04 2.53 2.03 2.35 2.04 2.22 2.06 2.14 2.11 2.11 2.16 2.04 2.21 1.84 2.3 1.56 2.4 1.71 1.72" filter="url(#a)"/><path d="m30.85-75.85 3.63.72 6.16 1 5.18 1.18 3.93 1.27 3.82 1.32 4.37 1.38 4.61 1.43 4.16 1.5 3.26 1.55 2.48 1.61 2.11 1.65 2.13 1.68 2.35 1.71 2.63 1.75 3.02 1.79 3.62 1.84 4.53 1.89 5.55 1.96 6.41 2.02 6.75 2.08 6.4 2.15 5.47 2.2 4.32 2.24 3.43 2.28 3.18 2.29 3.69 2.31 4.69 2.31 5.63 2.31 5.92 2.39 5.66 2.61 5.32 2.99 3.56 3.43" filter="url(#a)"/><path d="m30.85-75.85 1.84.71 2.19 1 2.46 1.17 2.81 1.26 3.14 1.31 3.22 1.36 3.06 1.42 2.78 1.48 2.59 1.54 2.57 1.6 2.7 1.64 2.84 1.67L65.88-58l2.67 1.72 2.38 1.77 2.12 1.82 2.04 1.86 2.19 1.93 2.5 1.99 2.82 2.06 3.02 2.14 2.98 2.19 2.72 2.22 2.45 2.25 2.5 2.35 2.99 2.65 2.93 3.65" filter="url(#a)"/><path d="m28.65-76.91 3.75 1.43 2.51.96 1.94.93 1.89 1.06 2.06 1.22 2.24 1.35 2.33 1.43 2.32 1.49 2.23 1.52 2.11 1.55 2.03 1.59 1.97 1.64 1.94 1.71 1.93 1.78 1.92 1.86 1.95 1.93 1.99 2 2.03 2.06 2.05 2.08 2.02 2.07 1.92 2.03 1.79 1.99 1.67 2 1.68 2.05L80.76-35l2.13 2.34 2.42 2.48" filter="url(#a)"/><path d="m28.65-76.91 4.8 1.43 1.89.95 1.48.93 1.68 1.05 1.97 1.21 2.2 1.35 2.36 1.43 2.48 1.48 2.55 1.52 2.54 1.53 2.42 1.58 2.24 1.63 2.01 1.7 1.87 1.77 1.84 1.84 1.94 1.92 2.11 2 2.26 2.07 2.28 2.1 2.19 2.08 2.03 2.01 1.92 1.94 1.88 1.93 1.85 1.97 1.7 1.87" filter="url(#a)"/><path d="m24.28-78.72 2.89 1.19 2.5 1.17 2.01 1.11 1.61 1.13 1.33 1.19 1.17 1.26 1.2 1.31 1.31 1.38 1.45 1.44 1.48 1.5 1.45 1.55 1.35 1.61 1.24 1.65 1.1 1.69.93 1.72.72 1.76.5 1.8.32 1.85.21 1.91.18 1.97.18 2.03.2 2.09.18 2.16.12 2.2.06 2.25-.01 2.28-.08 2.3-.19 2.33-.34 2.35-.57 2.39-.85 2.45-1.24 2.53-1.75 2.6L42.67-16l-2.41 2.42-1.82 2.24-1.98 2.12" filter="url(#a)"/><path d="m21.74-79.45 3.81.73 3.68.9 3.03 1.04 2.55 1.06 2.78 1.04 3.34 1.07 3.66 1.13 3.46 1.23 2.91 1.33 2.34 1.41 2.04 1.48 2.09 1.52 2.42 1.56 2.83 1.61 3.21 1.67 3.44 1.73 3.57 1.8 3.6 1.87 3.59 1.94 3.57 2 3.55 2.05 3.56 2.07 3.57 2.07 3.53 2.06 3.35 2.05 2.95 2.05 2.39 2.08 1.82 2.13 1.58 2.17 1.92 2.23 2.74 2.31 3.64 2.39 4.27 2.44 4.84 2.71" filter="url(#a)"/><path d="m14.37-81.07 2.47.31 3.24.59 3.53.68 3.31.78 2.99.87 2.78.95 2.7.99 2.71 1.01 2.78 1.04 2.95 1.09 3.18 1.17 3.44 1.28 3.67 1.37 3.86 1.43 3.97 1.48 3.95 1.5 3.83 1.52 3.64 1.58 3.53 1.67 3.52 1.75 3.73 1.72 4.44 1.51 6.53 1.4" filter="url(#a)"/><path d="m14.37-81.07 2.14.32 2.63.6 2.69.71 2.61.79 2.5.89 2.44.97 2.38 1.01 2.33 1.04 2.29 1.08 2.26 1.15 2.27 1.23 2.29 1.31 2.32 1.39 2.32 1.46 2.29 1.51 2.24 1.56 2.16 1.6 2.1 1.66 2.07 1.73 2.03 1.79 2.01 1.86 1.96 1.93 1.91 2 1.87 2.05 1.82 2.08 1.76 2.07 1.69 2.06 1.57 2.04 1.41 2.04L78-37.07l1.24 2.12 1.33 2.16 1.54 2.18 1.76 2.41 1.95 3.75" filter="url(#a)"/><path d="m14.49-81.26 2.56.37 2.34.46 2.23.54 2.44.66 2.65.8 2.71.91 2.68 1 2.6 1.06 2.57 1.11 2.59 1.16 2.68 1.22 2.85 1.27 3.1 1.32 3.36 1.39 3.58 1.44 3.68 1.51 3.62 1.57 3.45 1.62 3.21 1.64 3 1.66 2.9 1.67 3.01 1.74 3.28 1.82 3.56 1.88 3.48 1.83 2.93 1.74" filter="url(#a)"/><path d="m11.91-81.63 2.26.44 2.38.48 2.63.59 2.79.7 2.87.79 2.86.88 2.83.95 2.82 1 2.84 1.04 2.91 1.08 2.97 1.15 2.98 1.23 2.93 1.3 2.83 1.39 2.68 1.45 2.53 1.51 2.46 1.55 2.47 1.6 2.59 1.66 2.77 1.72 2.96 1.79 3.11 1.86 3.2 1.93 3.23 2 3.24 2.05 3.19 2.08 3.06 2.08 2.78 2.05 2.4 2.03 2.07 2.03 1.92 2.07 1.9 2.13 1.89 2.13 1.92 1.89 2.29 1.01" filter="url(#a)"/><path d="m11.91-81.63 2.2.44 2.29.47 2.36.59 2.36.68 2.36.78 2.36.88 2.34.94 2.27.99 2.15 1.03 2.04 1.06 1.95 1.13 1.9 1.2 1.86 1.3 1.83 1.37 1.81 1.44 1.77 1.49 1.73 1.53 1.68 1.58 1.63 1.62 1.58 1.69 1.53 1.75 1.48 1.82 1.44 1.9 1.41 2 1.37 2.11 1.33 2.19 1.29 2.17 1.21 2.05.96 2.02" filter="url(#a)"/><path d="m11.96-81.81.77.27 1.76.37 2.34.46 2.73.57 3.15.66 3.67.76 4.22.85 4.5.92 4.31.97 3.75 1 3.13 1.03 2.81 1.08 2.93 1.17 3.43 1.26 4.09 1.36 4.61 1.43 4.75 1.48 4.45 1.48 3.88 1.48 3.63 1.54 4.44 1.71 6.51 1.99 9.13 2.21" filter="url(#a)"/><path d="m4.69-82.51 3.04.31 3.16.32 3.11.35 2.85.41 2.53.48 2.35.58 2.37.67 2.5.76 2.66.85 2.76.93 2.81.97 2.84 1.02 2.85 1.08 2.82 1.13 2.78 1.21 2.74 1.29 2.75 1.37 2.85 1.44 3.01 1.49 3.23 1.53 3.39 1.58 3.48 1.64 3.5 1.69 3.56 1.76 3.72 1.84 4.03 1.91 4.41 2.01 4.67 2.09 4.59 2.16 4.1 2.13 3.46 2.02 3.02 1.84 2.22 1.53" filter="url(#a)"/><path d="m4.69-82.51 2.97.3 2.61.33 2.29.35 2.27.4 2.46.48 2.78.57 3.19.67 3.53.75 3.72.85 3.72.92 3.63.97 3.55 1.01 3.55 1.07 3.57 1.12 3.59 1.19 3.57 1.29 3.56 1.36 3.65 1.43 3.93 1.48 4.38 1.52 4.93 1.57 5.42 1.61 5.73 1.68 5.74 1.74 5.37 1.8 4.66 1.86 4 1.99 4.09 2.18 5.4 2.34 7.14 2.47" filter="url(#a)"/><path d="m2.76-82.43 3.07.06 2.44.21 2.22.3 2.16.34 2.27.41 2.41.48 2.57.57 2.73.67 2.9.75 3.12.84 3.3.92 3.46.96 3.5 1.02 3.47 1.07 3.36 1.13 3.23 1.2 3.13 1.28 3.06 1.36 3.04 1.43 3.1 1.49 3.27 1.52 3.6 1.57 4.03 1.63 4.51 1.68 4.84 1.75 4.92 1.81 4.7 1.89 4.34 2 4.01 2.15 3.81 2.24 3.55 2.2 2.52 1.87" filter="url(#a)"/></g><g fill="none" stroke="#000"><circle cx="12.436" cy="8.438" r="1.162" filter="url(#a)"/><circle cx="11.984" cy="5.57" r="1.64" filter="url(#a)"/><circle cx="12.124" cy="8.866" r="1.496" filter="url(#a)"/><circle cx="11.888" cy="6.738" r="2.358" filter="url(#a)"/><circle cx="10.292" cy="7.278" r="2.898" filter="url(#a)"/><circle cx="9.568" cy="5.886" r="1.08" filter="url(#a)"/><circle cx="12.536" cy="7.818" r="1.956" filter="url(#a)"/><circle cx="12.044" cy="8.238" r="1.578" filter="url(#a)"/><circle cx="11.836" cy="7.602" r="1.344" filter="url(#a)"/><circle cx="10.34" cy="8.114" r="2.272" filter="url(#a)"/><circle cx="-10.608" cy="6.212" r="2.682" filter="url(#a)"/><circle cx="-12.848" cy="6.76" r="1.582" filter="url(#a)"/><circle cx="-10.156" cy="4.284" r="1.72" filter="url(#a)"/><circle cx="-12.416" cy="7.508" r="2.39" filter="url(#a)"/><circle cx="-11.692" cy="7.124" r="2.832" filter="url(#a)"/><circle cx="-10.644" cy="4.012" r="1.436" filter="url(#a)"/><circle cx="-10.636" cy="5.108" r="2.492" filter="url(#a)"/><circle cx="-12.412" cy="6.272" r="2.094" filter="url(#a)"/><circle cx="-12.396" cy="5.788" r="2.92" filter="url(#a)"/><circle cx="-9.42" cy="4.88" r="2.908" filter="url(#a)"/></g><path fill="#D77F8C" stroke="#000" stroke-linejoin="round" stroke-width="3" d="m-46.06 30.28.79 1.03.79.99.8.97.81.92.81.9.82.86.82.83.83.8.84.77.84.74.84.71.85.68.85.65.86.62.87.59.87.56.87.54.88.5.88.49.88.45.89.43.9.4.9.38.9.35.91.33.91.3.91.28.92.26.92.24.92.21.93.19.93.17.93.15.93.12.94.11.94.09.95.06.94.05.95.03.95.01h.96l.95-.03.96-.04.96-.05.96-.08.97-.09.96-.1.97-.12.97-.13.97-.15.97-.16.97-.18.97-.19.97-.2.98-.21.97-.22.98-.24.98-.24.98-.26.97-.26.98-.28.98-.28.98-.3.98-.3.98-.31.97-.31.98-.33.98-.33.98-.33.97-.35.98-.34.98-.36.97-.35.97-.36.98-.37.97-.37.97-.37.97-.37.97-.38.96-.38.97-.37.96-.38.96-.38.96-.38.96-.38.95-.38.95-.38.95-.37.95-.38.95-.37.94-.37.94-.36.94-.36.94-.36.93-.35.93-.35.92-.34.92-.34.92-.33.92-.32-.92.32-.92.33-.92.34-.92.34-.93.35-.93.35-.94.36-.94.36-.94.36-.94.37-.95.37-.95.38-.95.37-.95.38-.95.38-.96.38-.96.38-.96.38-.96.38-.97.37-.96.38-.97.38-.97.37-.97.37-.97.37-.98.37-.97.36-.97.35-.98.36-.98.34-.97.35-.98.33-.98.33-.98.33-.97.31-.98.31-.98.3-.98.3-.98.28-.98.28-.97.26-.98.26-.98.24-.98.24-.97.22-.98.21-.97.2-.97.19-.97.18-.98.16-.96.15-.97.13-.97.12-.96.1-.97.09-.96.08-.96.05-.96.04-.95.03h-.96l-.95-.01-.95-.03-.94-.05-.95-.06-.94-.09-.94-.11-.93-.12-.93-.15-.93-.17-.93-.19-.92-.21-.92-.24-.92-.26-.91-.28-.91-.3-.91-.33-.9-.35-.9-.38-.9-.4-.89-.43-.88-.45-.88-.49-.88-.5-.87-.54-.87-.56-.87-.59-.86-.62-.85-.65-.85-.68-.84-.71-.84-.74-.84-.77-.83-.8-.82-.83-.82-.86-.81-.9-.81-.92-.8-.97-.79-.99" filter="url(#a)"/></svg>