<svg xmlns="http://www.w3.org/2000/svg" width="500" height="500" viewBox="-100 -100 200 200"><defs><clipPath id="c"><path d="m29.13-6.81-.27-.6-.32-.58-.36-.55-.41-.53-.44-.5-.49-.48-.52-.45-.55-.43-.59-.42-.61-.38-.65-.37-.67-.35-.7-.33-.72-.3-.74-.29-.85-.35-.88-.33-.91-.3-.93-.28-.95-.26-.98-.23-.99-.22-1-.19-1.02-.17-1.03-.15-1.04-.14-1.04-.11-1.04-.1-1.05-.07-1.04-.06-1.04-.05-1.03-.03-1.03-.01H2.22l-1 .01-.99.03-.98.03-.96.05-.94.06-.93.07-.9.08-.88.08-.87.09-.83.1-.82.1-.79.11-.76.12-.74.11-.72.13-.69.12-.66.13-.64.12-.61.13-.59.13-.56.13-.54.13-.52.13-.49.13-.47.13-.45.12-.42.13-.41.12-.39.12-.38.12-.35.11-.34.12-.33.11-.31.11-.3.11-.28.11-.27.1-.25.11-.24.1-.23.09-.22.1-.21.09-.19.1-.19.08-.17.09 5.4 8.47.38.41.39.41.39.43.41.43.41.45.42.45.43.46.44.48.44.48.45.49.46.49.47.51.47.51.48.52.49.53.5.53.51.55.52.55.52.56.54.56.54.57.55.57.57.57.56.58.58.57.59.57.59.57.6.56.6.55.62.54.62.53.63.52.63.5.65.48.65.46.65.44.67.41.67.39.68.35.68.32.7.29.69.25.71.21.71.17.72.13.73.08.74.04.74-.02.74-.06.76-.11.76-.17.76-.23.77-.28.78-.33.78-.39.78-.45.78-.5.79-.56.79-.61.79-.67.79-.72.78-.77.79-.82.77-.87.6-.56.59-.58.58-.61.57-.63.54-.66.54-.66.51-.69.49-.7.47-.72.45-.72.41-.73.39-.74.36-.75.33-.74.29-.74"/></clipPath><clipPath id="b"><path d="m-29.6-3.99.47-.58.52-.55.56-.54.6-.51.63-.5.66-.48.69-.45.72-.44.74-.42.77-.4.79-.38.81-.36.82-.34.84-.32.86-.31 1.03-.39 1.04-.37 1.06-.35 1.07-.32 1.08-.3 1.08-.27 1.08-.24 1.09-.23 1.08-.19 1.08-.18 1.07-.15 1.07-.13 1.05-.1 1.05-.09 1.03-.06 1.01-.04 1-.03h.98L.8-14l.94.03.92.04.9.06.88.08.85.08.83.1.8.11.78.12.76.13.73.14.7.15.68.15.65.16.63.17.6.17.57.17.55.18.53.18.5.18.48.18.46.18.44.18.41.18.39.18.38.18.36.18.33.18.33.17.3.17.3.17.28.16.26.16.26.16.24.16.23.15.21.15.21.15.19.15.19.14.18.14.16.14.16.13.15.13.14.12.13.13-4.49 6.72-.34.3-.36.3-.36.31-.38.32-.39.32-.4.33-.41.34-.43.34-.44.35-.45.36-.46.36-.48.37-.49.37-.5.38-.51.38-.53.39-.55.4-.56.4-.58.41-.59.41-.61.41-.62.42-.64.42-.66.42-.68.43-.69.42-.71.41-.72.42-.74.41-.75.4-.77.39-.78.39-.8.37-.81.37-.82.34-.83.33-.84.32-.86.29-.86.27-.87.25-.88.22-.88.2-.89.16-.89.14-.89.11-.89.07-.89.04h-.89l-.89-.04-.88-.07-.87-.12-.86-.15-.86-.2-.84-.24-.83-.28-.81-.33-.8-.37-.78-.41-.75-.46-.74-.5-.71-.54-.69-.58-.66-.62-.62-.65-.55-.44-.51-.45-.5-.47-.46-.5-.44-.51-.4-.53-.38-.54-.34-.56-.31-.58-.26-.58-.23-.6-.19-.61-.15-.61-.1-.62-.06-.63"/></clipPath><filter id="a"><feTurbulence baseFrequency=".05" numOctaves="3" result="noise" type="noise"/><feDisplacementMap in="SourceGraphic" in2="noise" scale="2"/></filter></defs><rect width="100%" height="100%" x="-100" y="-100" fill="#C3B091"/><path fill="#E2725B" stroke="#000" stroke-linejoin="round" stroke-width="1.667" d="m66.89.21-.16.75-.1 1.49-.05 1.58.01 1.51-.12-.55.27 1.18-.46 3.87-.28.5-.15 2.34.09.09-.2.17.23.78-.57 2.34-.33.96.03 1.93-.19.35-.11-.28-.84 3.63.15-1.33-.55 2.66h-.09l-.66 2.75-.98 2.48.18-.08.04.69-.66 1.38-.16.44-.61 2.08-1.18 1.83-.31 1.32-.15-.35-.35 1.71-.63 1.36-.65.34-1.02 2.81-.68 1.4 1.15-1.94-1.78 2.29-1.17 2.73.18-.87-.73 1.04-.53 1.39-.71 1.16.15-.01-.77.91-1.19 2.02-1.37 1.16.57-.54-.23.45-2.46 2.9.7-1.01-1 1.22-1.31 2.3-.58.06-1.41 1.63.14-.3-1.36 1.68-.31-.16-.61.58-.75.98-2.13 1.2.74-.15-3.8 3.12 2.35-1.74-2.48 1.89-1.3.55 1.26-.55-3.54 2.07.7-.07-.9.31-1.35.89-1.92 1.28-1.33.5-.95.72-.1-.18.83-.39-3.97 1.81.28-.13.13-.05-3.36 1.58-1.03.17-1.41.53 1.52-.31-1.75.53-.75.2-.69-.23-1.75.68-1.21.34-.02-.22-.44.45-3.81.68.83-.1-.21-.04-.91.16-3.33.28.98-.32-3.79.38.93.17-1.67.07-1.41-.25-.97-.1-.44.02-.41.02-2.89.09-.74-.43h-.61l-.11.26-2.11-.52-.36.03-.98-.18-.45-.28-1.86-.23-1.66-.25-.29-.14-1.71-.43-.81-.35-1.87-.52.24-.16-.83-.22-1.04-.4-.58-.37-2.76-1.01 1 .47-1.54-.9-.68-.35-3-.99.28-.08-.28-.49-1.2-.69-1.39-.54-.65.1-.14-.68-1.37-.67.06-.41-2.52-1.69-1.8-1.3-.16-.04-.95-.65-.84-.78.34.52-.73-.97-1.7-1.21-.62-.94-.91-.93-.63-.4-.76-.81-1.95-1.99.27.33.68.52-2.6-2.87-.5-.79-.32.19-1.37-2.56-.82-.24.1-.67-1.49-1.89.54.58-.92-1.47-.74-1.16-.72-.64-1.01-1.55-.8-1.62.23.63-1.36-2.99-.18-.49-.96-.88.28-.66-.68-.48-1.27-3.64.06.95-.6-1.72-.27-.44-.46-1.37-1.21-3.27.39 1-1.11-3.59.01-.36-.29-.14-.13-.82-.53-1.28-.05-.31-.58-2.1-.33-1.29-.28-1.73.14-.54-.27-.86-.72-2.26.07-1.98-.19.19.04-1.1-.12-1.02-.22-.55-.42-2.82-.07-.66.04-1.45-.08-.77-.11-1.68-.21-2.57.17.88L-67-1.4l.04-.28.34-1.77-.02-.71v-1.18l.29-3.1-.23.15.11.44.07-2.93.37-.22-.07.1.11-1.5.57-4.28-.12-.25.54-2.12-.04.9.22-1.43-.06-.48.84-2.22.03-.42.13-.68.48-1.88 1.19-3.86-.29.6.3-.57.42-.94.16-1.2.49-.92.69-1.92.35-.53-.09-.87.61-1.22.98-1.84.3-.47.55-1.6.15.05.58-1.12 1.52-2.7.53-1.21.39-.31.09-.61.64-.56 1.34-2.64.44-.04 1.19-1.72-.91.63 1.23-2.17 1.76-1.32-.11-.2.42-.38.64-.91 1.54-2.06.18-.54 1.83-1.13.74-.79.72-1.4-.44 1.1 2.65-2.6.97-1.04-1.22 1.27 1.43-1.6 1.75-1.3.5-.71.03.42.28-.22 1.85-1.78.36-.05 1.48-1.49.48-.1 2.19-1.33.47-.42.2-.01 3.16-1.63-.46-.01 1.49-.53-1.69.99 2.34-1.58.49.01 1.77-.77.79-.31 1.59-.45.85-.68-.8.46 2.58-.95-.69.29 2.71-.82.45-.17 1.52-.5-.25.22 1.72-.7.61-.23 2.9-.15-.51-.17 2.28-.12.41-.09 1.34-.1 1.4-.34.56.27.47-.18 1.19-.08 1.68.1.96-.21 1.66.16-1.07-.15 2.41.22 1.06.21.62.01 1.92.14.17-.02.73.38 1.94-.11 1.27.44.48.28 1.79.2.17.42 1.3-.05 1.8.83.27-.25 1.53.73-.78-.4 2.97 1.12 1.45.77 1.38.63.57.04.74.55.3-.28-.24.27 2.01 1.12.97.37.44.34.66.57 1.92 1.15.15.15 1.91.87.18.22 1.91 1.66-.53-.76 1.34 1.05 1.87 1.64.4.17.3.36 1.31 1.11.07.22 1.66 1.27 1.25 1.48 1.2 1.19-.85-.67 2.07 2.05.58.47 1.3 1.75-.41-.4 1.46 2.03-.17-.73 1.68 2.66v-.53l1.07 1.73-.04-.09.45 1.04.27.33 1.69 2.24.92 1.75 1.47 2.24-1.55-1.92 1.38 1.68.7 1.69 1.34 2.1-.54-.64.74 1.78.75 1.11-.23.05.85 1.46 1.32 2.99-.79-1.58.23.93 1.09 2.52.63 1.13.73 2.08.39 1.76-.74-1.68.71 1.76.78 2.84-.06-.49.15.27.81 3.99-.03-.47.68 3.3-.38-.9.52 1.48-.06.09.25 1.55.46 2.38-.08 1.14.57 3.1-.03-1.05-.18 2.29.08 1.55.15-.57.21 3.03-.04-1.16.12 3.18V.21l-.16.75" filter="url(#a)"/><path fill="#fff" d="m-29.6-3.99.47-.58.52-.55.56-.54.6-.51.63-.5.66-.48.69-.45.72-.44.74-.42.77-.4.79-.38.81-.36.82-.34.84-.32.86-.31 1.03-.39 1.04-.37 1.06-.35 1.07-.32 1.08-.3 1.08-.27 1.08-.24 1.09-.23 1.08-.19 1.08-.18 1.07-.15 1.07-.13 1.05-.1 1.05-.09 1.03-.06 1.01-.04 1-.03h.98L.8-14l.94.03.92.04.9.06.88.08.85.08.83.1.8.11.78.12.76.13.73.14.7.15.68.15.65.16.63.17.6.17.57.17.55.18.53.18.5.18.48.18.46.18.44.18.41.18.39.18.38.18.36.18.33.18.33.17.3.17.3.17.28.16.26.16.26.16.24.16.23.15.21.15.21.15.19.15.19.14.18.14.16.14.16.13.15.13.14.12.13.13-4.49 6.72-.34.3-.36.3-.36.31-.38.32-.39.32-.4.33-.41.34-.43.34-.44.35-.45.36-.46.36-.48.37-.49.37-.5.38-.51.38-.53.39-.55.4-.56.4-.58.41-.59.41-.61.41-.62.42-.64.42-.66.42-.68.43-.69.42-.71.41-.72.42-.74.41-.75.4-.77.39-.78.39-.8.37-.81.37-.82.34-.83.33-.84.32-.86.29-.86.27-.87.25-.88.22-.88.2-.89.16-.89.14-.89.11-.89.07-.89.04h-.89l-.89-.04-.88-.07-.87-.12-.86-.15-.86-.2-.84-.24-.83-.28-.81-.33-.8-.37-.78-.41-.75-.46-.74-.5-.71-.54-.69-.58-.66-.62-.62-.65-.55-.44-.51-.45-.5-.47-.46-.5-.44-.51-.4-.53-.38-.54-.34-.56-.31-.58-.26-.58-.23-.6-.19-.61-.15-.61-.1-.62-.06-.63" filter="url(#a)" transform="translate(36.5 -24.88)"/><path fill="#fff" d="m29.13-6.81-.27-.6-.32-.58-.36-.55-.41-.53-.44-.5-.49-.48-.52-.45-.55-.43-.59-.42-.61-.38-.65-.37-.67-.35-.7-.33-.72-.3-.74-.29-.85-.35-.88-.33-.91-.3-.93-.28-.95-.26-.98-.23-.99-.22-1-.19-1.02-.17-1.03-.15-1.04-.14-1.04-.11-1.04-.1-1.05-.07-1.04-.06-1.04-.05-1.03-.03-1.03-.01H2.22l-1 .01-.99.03-.98.03-.96.05-.94.06-.93.07-.9.08-.88.08-.87.09-.83.1-.82.1-.79.11-.76.12-.74.11-.72.13-.69.12-.66.13-.64.12-.61.13-.59.13-.56.13-.54.13-.52.13-.49.13-.47.13-.45.12-.42.13-.41.12-.39.12-.38.12-.35.11-.34.12-.33.11-.31.11-.3.11-.28.11-.27.1-.25.11-.24.1-.23.09-.22.1-.21.09-.19.1-.19.08-.17.09 5.4 8.47.38.41.39.41.39.43.41.43.41.45.42.45.43.46.44.48.44.48.45.49.46.49.47.51.47.51.48.52.49.53.5.53.51.55.52.55.52.56.54.56.54.57.55.57.57.57.56.58.58.57.59.57.59.57.6.56.6.55.62.54.62.53.63.52.63.5.65.48.65.46.65.44.67.41.67.39.68.35.68.32.7.29.69.25.71.21.71.17.72.13.73.08.74.04.74-.02.74-.06.76-.11.76-.17.76-.23.77-.28.78-.33.78-.39.78-.45.78-.5.79-.56.79-.61.79-.67.79-.72.78-.77.79-.82.77-.87.6-.56.59-.58.58-.61.57-.63.54-.66.54-.66.51-.69.49-.7.47-.72.45-.72.41-.73.39-.74.36-.75.33-.74.29-.74" filter="url(#a)" transform="translate(-33.51 -23.5)"/><g fill="none" stroke="#000" transform="translate(36.5 -24.88)"><path stroke-linejoin="round" stroke-width="1.667" d="m-31.45 2.79-.1-.76-.03-.74.04-.73.11-.7.16-.69.23-.67.28-.65.34-.64.38-.61.44-.59.47-.58.52-.55.56-.54.6-.51.63-.5.66-.48.69-.45.72-.44.74-.42.77-.4.79-.38.81-.36.82-.34.84-.32.86-.31 1.03-.39 1.04-.37 1.06-.35 1.07-.32 1.08-.3 1.08-.27 1.08-.24 1.09-.23 1.08-.19 1.08-.18 1.07-.15 1.07-.13 1.05-.1 1.05-.09 1.03-.06 1.01-.04 1-.03h.98L.8-14l.94.03.92.04.9.06.88.08.85.08.83.1.8.11.78.12.76.13.73.14.7.15.68.15.65.16.63.17.6.17.57.17.55.18.53.18.5.18.48.18.46.18.44.18.41.18.39.18.38.18.36.18.33.18.33.17.3.17.3.17.28.16.26.16.26.16.24.16.23.15.21.15.21.15.19.15.19.14.18.14.16.14.16.13.15.13.14.12.13.13.13.12.12.11.11.12.1.11.1.1.1.11.08.1.09.1.07.09.08.09" filter="url(#a)"/><path stroke-linejoin="round" stroke-width="2.222" d="m-29.09-4.87-.53.52-.46.54-.39.56-.33.58-.27.59-.21.61-.15.61-.09.62-.05.63.01.62.06.63.1.62.15.61.19.61.23.6.26.58.31.58.34.56.38.54.4.53.44.51.46.5.5.47.51.45.55.44.62.65.66.62.69.58.71.54.74.5.75.46.78.41.8.37.81.33.83.28.84.24.86.2.86.15.87.12.88.07.89.04h.89l.89-.04.89-.07.89-.11.89-.14.89-.16.88-.2.88-.22.87-.25.86-.27.86-.29.84-.32.83-.33.82-.34.81-.37.8-.37.78-.39.77-.39.75-.4.74-.41.72-.42.71-.41.69-.42.68-.43.66-.42.64-.42.62-.42.61-.41.59-.41.58-.41.56-.4.55-.4.53-.39.51-.38.5-.38.49-.37.48-.37.46-.36.45-.36.44-.35.43-.34.41-.34.4-.33.39-.32.38-.32.36-.31.36-.3.34-.3.34-.29.32-.28.31-.28.3-.27.29-.26.28-.26.28-.25.26-.25.25-.23.25-.24" filter="url(#a)"/><circle cx="-8.261" cy="4.902" r="4.91" clip-path="url(#b)" filter="url(#a)"/><circle cx="-8.551" cy="4.202" r="4.214" clip-path="url(#b)" filter="url(#a)"/><circle cx="-7.186" cy="5.322" r="3.9" clip-path="url(#b)" filter="url(#a)"/><circle cx="-5.326" cy="2.542" r="3.718" clip-path="url(#b)" filter="url(#a)"/><circle cx="-6.816" cy="2.282" r="4.484" clip-path="url(#b)" filter="url(#a)"/><circle cx="-7.596" cy="1.992" r="3.032" clip-path="url(#b)" filter="url(#a)"/><circle cx="-7.721" cy="3.867" r="4.784" clip-path="url(#b)" filter="url(#a)"/><circle cx="-5.821" cy="2.792" r="4.5" clip-path="url(#b)" filter="url(#a)"/><circle cx="-9.201" cy="3.347" r="4.064" clip-path="url(#b)" filter="url(#a)"/><circle cx="-9.251" cy="2.202" r="3.972" clip-path="url(#b)" filter="url(#a)"/></g><g fill="none" stroke="#000" transform="translate(-33.51 -23.5)"><path stroke-linejoin="round" stroke-width="2.222" d="m28.85.72.31-.89.24-.85.17-.82.11-.8.05-.76-.01-.74-.07-.71-.12-.68-.17-.65-.23-.63-.27-.6-.32-.58-.36-.55-.41-.53-.44-.5-.49-.48-.52-.45-.55-.43-.59-.42-.61-.38-.65-.37-.67-.35-.7-.33-.72-.3-.74-.29-.85-.35-.88-.33-.91-.3-.93-.28-.95-.26-.98-.23-.99-.22-1-.19-1.02-.17-1.03-.15-1.04-.14-1.04-.11-1.04-.1-1.05-.07-1.04-.06-1.04-.05-1.03-.03-1.03-.01H2.22l-1 .01-.99.03-.98.03-.96.05-.94.06-.93.07-.9.08-.88.08-.87.09-.83.1-.82.1-.79.11-.76.12-.74.11-.72.13-.69.12-.66.13-.64.12-.61.13-.59.13-.56.13-.54.13-.52.13-.49.13-.47.13-.45.12-.42.13-.41.12-.39.12-.38.12-.35.11-.34.12-.33.11-.31.11-.3.11-.28.11-.27.1-.25.11-.24.1-.23.09-.22.1-.21.09-.19.1-.19.08-.17.09-.17.09-.15.08-.15.08-.14.08-.13.07-.13.07-.11.08-.11.06-.1.07-.1.07" filter="url(#a)"/><path stroke-linejoin="round" stroke-width="2.222" d="m29.83-6.55.23.5.16.55.1.58.04.62-.01.65-.07.67-.12.69-.17.71-.21.72-.25.73-.29.74-.33.74-.36.75-.39.74-.41.73-.45.72-.47.72-.49.7-.51.69-.54.66-.54.66-.57.63-.58.61-.59.58-.6.56-.77.87-.79.82-.78.77-.79.72-.79.67-.79.61-.79.56-.78.5-.78.45-.78.39-.78.33-.77.28-.76.23-.76.17-.76.11-.74.06-.74.02-.74-.04-.73-.08-.72-.13-.71-.17-.71-.21-.69-.25-.7-.29-.68-.32-.68-.35-.67-.39-.67-.41-.65-.44-.65-.46-.65-.48-.63-.5-.63-.52-.62-.53-.62-.54-.6-.55-.6-.56-.59-.57-.59-.57-.58-.57-.56-.58-.57-.57-.55-.57-.54-.57-.54-.56-.52-.56-.52-.55-.51-.55-.5-.53-.49-.53-.48-.52-.47-.51-.47-.51-.46-.49-.45-.49-.44-.48-.44-.48-.43-.46-.42-.45-.41-.45-.41-.43-.39-.43-.39-.41-.38-.41-.37-.4-.36-.39-.36-.37-.34-.37-.34-.36-.32-.35-.32-.34-.31-.33-.31-.32-.29-.31" filter="url(#a)"/><circle cx="9.927" cy="1.645" r="3.416" clip-path="url(#c)" filter="url(#a)"/><circle cx="8.377" cy="4.675" r="4.498" clip-path="url(#c)" filter="url(#a)"/><circle cx="8.557" cy="1.62" r="4.142" clip-path="url(#c)" filter="url(#a)"/><circle cx="11.482" cy="3.56" r="3.37" clip-path="url(#c)" filter="url(#a)"/><circle cx="9.042" cy="5.005" r="4.242" clip-path="url(#c)" filter="url(#a)"/><circle cx="10.002" cy="1.33" r="3.51" clip-path="url(#c)" filter="url(#a)"/><circle cx="9.402" cy=".49" r="4.886" clip-path="url(#c)" filter="url(#a)"/><circle cx="7.992" cy="4.65" r="3.768" clip-path="url(#c)" filter="url(#a)"/><circle cx="9.072" cy="4.915" r="4.824" clip-path="url(#c)" filter="url(#a)"/><circle cx="10.947" cy="4.08" r="4.112" clip-path="url(#c)" filter="url(#a)"/></g><g fill="none" stroke="#FFEC8B" stroke-linejoin="round" stroke-width="2"><path d="m11.72-78.74.71.25.74.25.6.26.42.27.18.27-.09.29-.37.32-.63.36-.92.39-1.28.41-1.73.4-2.25.38-2.82.35-3.34.34-3.8.34-4.17.33-4.52.29-5 .27-5.82.4m56.06 3.48 1 .92.24.48-.1.52-.51.51-1.01.45-1.54.36-2.05.3-2.58.27-3.16.24-3.79.19-4.5.11-5.23.02-5.99-.06-6.75-.12-7.55-.17-8.37-.23-9.19-.29m44.92-11.72 1.01.45 1.06.44 1.3.54 1.32.55 1.12.48.88.37.64.27.46.22.29.17.13.12-.08.04-.33-.06-.6-.18-.88-.3-1.19-.44-1.58-.59-2.05-.78-2.47-.99" filter="url(#a)"/><path d="m25.45-73.88 1.52.82.99.54.76.47.67.46.58.42.45.37.27.28.04.19-.22.1-.49-.01-.77-.11-1.1-.23-1.42-.37-1.79-.5-2.16-.66-2.56-.82-2.97-.98-3.4-1.16-3.82-1.4-4.18-1.65" filter="url(#a)"/><path d="m31.45-70.33.47.29.53.4.22.36-.16.25-.57.14-.98.03-1.43-.11-1.96-.26-2.53-.46-3.14-.64-3.77-.81-4.44-1-5.17-1.21-6.04-1.5-7.03-1.81m.7-3.26.66.15 1.04.07 1.39.08 1.56.12 1.62.16 1.62.2 1.63.24 1.64.25 1.65.28 1.63.28 1.58.28 1.48.28 1.33.25 1.12.19.83.12.5.03.19-.05-.01-.08-.14-.07m37.02 31.07.48 1.02-.21.43-.38.61-.62.72-.98.69-1.4.55-1.82.42-2.25.32-2.67.22-3.1.13-3.55.06-4-.02-4.48-.08-4.95-.12-5.43-.2-5.93-.31-6.44-.46-6.96-.65-7.48-.78-8-.89-8.47-.99-8.93-1.14-9.42-1.35m88.77-9.96.81 1.14.58.8.59.76.6.75.53.67.41.54.25.36.07.16-.1-.04-.29-.26-.5-.5-.77-.84-1.14-1.32-1.64-1.96-2.29-2.7" filter="url(#a)"/><path d="m55.79-44.07.39 1.43-.48.85-1.36.39-2.19.1-2.98-.12-3.78-.34-4.63-.59-5.51-.87-6.43-1.15-7.37-1.4-8.28-1.64-9.24-1.87-10.3-2.17L-17.8-54l-12.44-3.09m2.89-15.68 1.84-1.02 1.64-.53 1.72-.37 1.81-.27 1.89-.2 1.96-.12 2.06-.08 2.21-.03 2.36-.01h2.46l2.55.02 2.59.04 2.62.05 2.63.08 2.61.08 2.58.1 2.51.1 2.4.1 2.29.09 2.15.08 1.99.06 1.88.06 1.9.17" filter="url(#a)"/><path d="m22.7-75.09 1.04.43.69.26.48.21.39.21.36.25.33.27.24.27.12.24-.07.19-.26.13-.51.04-.78-.04-1.08-.16-1.43-.26-1.77-.38-2.12-.5-2.49-.61-2.92-.74-3.41-.89-3.95-1.04-4.36-1.17m-28.55 5.61 1.88-1 1.74-.5 1.91-.31 2.08-.2 2.2-.1 2.33-.01 2.49.04 2.66.09 2.86.13 3.02.15 3.12.18 3.19.2 3.23.22 3.25.24 3.25.26 3.22.28 3.12.29 2.96.28 2.75.24 2.52.15" filter="url(#a)"/><path d="m-21.96-75.42 1.47-.3 1.62.05 2.11.33 2.73.55 3.3.7 3.79.85 4.2 1 4.55 1.19 4.89 1.37 5.21 1.53 5.5 1.67 5.71 1.79 5.85 1.87 5.95 1.98 6.09 2.12m-56.73-18.85.77-.21 1.1-.21 1.36-.19 1.64-.17 1.84-.16 1.94-.13 1.96-.09 1.94-.07 1.88-.05 1.79-.04 1.67-.02 1.53-.02 1.36-.02 1.19-.04.98-.05.7-.07.3-.08-.15-.09m13.17 3.42 1.26.63.92.43.58.27.32.18.13.17.02.17-.11.18-.26.18-.47.14-.71.09-1 .02-1.32-.06-1.67-.16-2.05-.25-2.48-.37-2.93-.48-3.4-.58-3.9-.69-4.43-.84-5.08-.99m48.95 17.45 1.53 1.52 1.02 1.11.77.91.62.8.56.71.49.62.4.52.27.38.11.22-.05.04-.22-.11-.4-.3-.58-.5-.82-.77-1.1-1.1-1.39-1.47-1.71-1.84-2.1-2.24-2.64-2.81" filter="url(#a)"/><path d="m36.41-67.14 1.3 1.1.79.66.66.58.65.61.65.63.59.64.49.57.34.47.16.34-.01.21-.2.08-.4-.07-.6-.23-.84-.4-1.1-.59-1.4-.81-1.74-1.04-2.08-1.28-2.41-1.51-2.69-1.72-2.95-1.89-3.28-2.08-3.78-2.36" filter="url(#a)"/><path d="m38.98-64.97.84.83.48.76.24.79-.09.74-.5.63-.9.53-1.3.44-1.72.37-2.18.29-2.66.22-3.14.13-3.64.06-4.14-.02-4.66-.1-5.16-.19-5.67-.29-6.17-.4-6.67-.46-7.24-.48-7.86-.49-8.36-.75" filter="url(#a)"/><path d="m28.87-72.05.71.67.4.71-.11.69-.65.71-1.23.74-1.82.79-2.43.85-3.04.91-3.7.99-4.4 1.05-5.14 1.12-5.9 1.23-6.66 1.35-7.4 1.45-8.14 1.48-8.91 1.4-9.83 1.3" filter="url(#a)"/><path d="m-27.35-72.77 1.87-1 1.71-.47 1.85-.26 2-.12 2.13.01 2.26.11 2.43.2 2.62.28 2.82.32 3 .37 3.12.41 3.23.44 3.29.47 3.35.5 3.39.5 3.39.52 3.35.51 3.29.52 3.23.54 3.18.57 3.1.61 2.9.54" filter="url(#a)"/><path d="m-1.63-79.91 1.57.15 1.65.36 1.82.61 2.09.85 2.42 1.06 2.71 1.21 2.92 1.35 3.08 1.45 3.24 1.58 3.36 1.7 3.48 1.8 3.53 1.87 3.51 1.89 3.44 1.88 3.35 1.86 3.35 1.9m-29.9-19.87.56.31.98.27 1 .27.89.27.81.27.75.29.66.29.5.26.22.18-.11.08-.48-.03-.82-.12-1.13-.19-1.44-.25-1.77-.32-2.11-.42-2.47-.52-2.82-.64L3.94-79m-30.63 5.78.12-.11.62-.18 1-.31 1.4-.45 1.71-.55 1.88-.59 1.91-.58 1.87-.56 1.77-.51 1.64-.46 1.51-.43 1.39-.39 1.26-.37 1.08-.32.8-.25.34-.15" filter="url(#a)"/><path d="m-30.52-71.16.69-.38 1.3-.5 1.6-.53 1.69-.44 1.74-.38 1.88-.37 2.09-.41 2.28-.46 2.43-.48 2.5-.48 2.51-.46 2.45-.43 2.38-.4 2.3-.39 2.23-.38 2.12-.39 1.94-.38 1.64-.36 1.3-.31m5.65.63 1.25.23.89.26.81.25.68.26.52.25.37.28.23.32.07.34-.15.34-.44.31-.79.27-1.15.23-1.5.2-1.82.19-2.1.19-2.4.2-2.71.2-3.08.2-3.5.2-3.99.19-4.47.19-4.92.16-5.15.06m48.61.38.83.41.88.57 1.04.72 1.15.79 1.2.8 1.18.81 1.12.77 1.04.75.96.7.86.63.73.55.58.44.42.33.25.2.08.08-.11-.07-.35-.25-.64-.48-.94-.72-1.19-.95-1.46-1.21" filter="url(#a)"/><path d="m25.39-73.87.28-.03.56.33.77.46.77.47.69.44.57.37.39.3.17.18-.11.05-.41-.09-.74-.25-1.08-.39-1.47-.56-1.88-.75-2.35-.96-2.84-1.22L15.39-77" filter="url(#a)"/><path d="m13.99-78.26.64.37 1.22.46 1.42.57 1.48.66 1.58.77 1.71.87 1.81.95 1.84.99 1.76.96 1.62.9 1.46.81 1.29.74 1.17.66 1.05.58.93.5.8.42.66.34.48.23h.14M5.69-79.57l1.27.1.78.11.67.13.57.15.33.16v.17l-.4.15-.84.13-1.33.11-1.87.09-2.51.06-3.21.04-3.91.06-4.42.05" filter="url(#a)"/><path d="m33.69-69.09 1.14.93.67.5.62.53.5.51.29.44.09.36-.12.29-.31.23-.54.17-.79.06-1.08-.07-1.4-.21-1.75-.36-2.1-.53-2.49-.69-2.87-.88-3.27-1.06-3.66-1.25-4.07-1.44-4.53-1.62L2.98-75l-5.64-2.03m-1.19-2.89.55.12h.73l.84-.02h.81l.66.04.46.07.25.13.05.18-.16.22-.39.26-.66.31-.96.35-1.3.41-1.67.48-2.09.56-2.52.62-2.92.67-3.27.67-3.52.6-3.78.54" filter="url(#a)"/><path d="m4.01-79.79.78.18.46.24.08.34-.33.48-.74.62-1.19.78-1.71.96-2.3 1.14-2.93 1.32-3.61 1.5-4.33 1.7-5.07 1.91-5.85 2.11-6.69 2.35-7.7 2.66" filter="url(#a)"/><path d="m31.6-70.18 1.31.68.8.58.54.5.36.44.2.41v.36l-.25.29-.51.22-.77.14-1.04.08h-1.33l-1.66-.1-2.03-.22-2.44-.35-2.86-.5-3.31-.64-3.76-.79-4.21-.94L6-71.13.93-72.39l-5.55-1.41-6.27-1.5m61.02 22.23.42 1-.38.36-.95.15-1.44.05-2.03-.12-2.75-.43-3.59-.88-4.49-1.34-5.37-1.76-6.24-2.14-7.12-2.52-7.99-3-8.9-3.49-9.92-3.92" filter="url(#a)"/><path d="m54.49-46.07.61 1.02.17.41.24.58.25.65.14.56-.04.36-.23.15-.42-.07-.61-.27-.81-.49-1.02-.73-1.25-.97-1.47-1.21-1.68-1.45-1.92-1.71-2.16-2.03-2.46-2.38-2.8-2.79-3.22-3.22-3.71-3.67-4.26-4.15-4.64-4.57m-36.95-6.19.42-.05 1.17-.23 1.47-.22 1.57-.17 1.58-.13 1.56-.09 1.53-.08 1.48-.06 1.42-.05 1.35-.03 1.25-.03 1.17-.03 1.04-.03.89-.03.71-.03.5-.02.29-.02.08-.02-.18-.03-.51-.05-.85-.09-1.06-.1M59.4-36.52l.44 1.45-.41.37-.79.29-1.15.31-1.62.12-2.2-.21-2.82-.63-3.45-1.02-4.05-1.37-4.63-1.69-5.2-2-5.8-2.32-6.45-2.64-7.16-2.98-7.93-3.36-8.7-3.78-9.49-4.18-10.3-4.53" filter="url(#a)"/><path d="m50.13-53.07.62 1.08.22.58.11.52.05.55-.09.51-.34.32-.67.03-1.02-.26-1.37-.53-1.72-.79-2.07-1.03-2.45-1.32-2.85-1.62-3.26-1.94-3.69-2.24-4.13-2.57-4.58-2.92-5.02-3.29-5.43-3.65-5.88-3.95m22.31 3.54.86.63.88.57.67.44.42.32.11.19-.25.04-.62-.12-1.02-.29-1.48-.5-2-.73-2.61-1.02-3.27-1.31-3.9-1.58-4.4-1.87m-35.01 2.17 1-.35 1.1-.39 1.05-.35 1.09-.33 1.21-.33 1.3-.34 1.35-.35 1.34-.35 1.28-.32 1.21-.3 1.12-.26 1.01-.23.89-.19.71-.14.5-.1.23-.04h-.07l-.4.04-.77.1-1.18.14-1.64.2" filter="url(#a)"/><path d="m-17.74-77.04.47.05 1.54-.04 1.91.09 2.14.27 2.41.43 2.72.54 3 .67 3.24.78 3.43.91 3.58 1.03 3.69 1.13 3.77 1.22 3.82 1.28 3.86 1.32L25.72-66l3.92 1.38 3.92 1.36 3.81 1.27 3.49 1.07m13.55 15.17 1.12 1.6.84 1.45.61 1.15.44.91.34.74.24.6.17.47.06.3-.03.14-.16-.06-.27-.25-.41-.46-.57-.72-.76-1.05-.99-1.45-1.22-1.88-1.47-2.32-1.74-2.77-2.05-3.26-2.27-3.67" filter="url(#a)"/><path d="m-20.37-75.87.56-.38.71-.24 1.02-.29 1.22-.32 1.31-.34 1.32-.33 1.29-.33 1.26-.3 1.22-.27 1.18-.25 1.08-.2.96-.17.8-.13.61-.09.37-.06.12-.02-.16.03-.45.06-.78.11-1.12.15-1.54.23-2.01.36" filter="url(#a)"/><path d="m-37.19-66.61.33.05.92-.52 1.33-.81 1.57-.91 1.73-.93 1.85-.93 1.92-.89 1.95-.86 1.93-.82 1.87-.76 1.76-.7 1.65-.63 1.54-.6 1.48-.56 1.42-.55 1.33-.52 1.16-.47.9-.4.6-.31.39-.23m66.05 36.58.67 1.22.12.64-.1.5-.28.4-.49.28-.74.12-1-.06-1.3-.24-1.57-.41-1.87-.58-2.19-.78-2.53-1.04-2.92-1.33-3.32-1.63-3.73-1.93-4.14-2.19-4.56-2.45-4.98-2.69-5.39-2.95-5.79-3.24-6.2-3.58-6.68-3.92-7.36-4.22" filter="url(#a)"/><path d="m36.41-67.14 1.18 1.1.43.66.06.59-.19.65-.43.72-.7.77-1.04.77-1.42.74-1.83.71-2.24.68-2.67.65-3.11.62-3.57.59-4.04.57-4.53.55-5.02.56-5.52.57-6.04.57-6.54.57-7.01.54-7.47.51-8.02.53-8.78.78" filter="url(#a)"/><path d="m5.69-79.57 1.49.22 1.45.45 1.81.67 2.16.86 2.4 1.03 2.54 1.16 2.62 1.24 2.68 1.29 2.7 1.31 2.67 1.3 2.55 1.23 2.36 1.12 2.15 1.01 2.02.95m-40.11-14.1 1.36.04 1.56.21 1.61.37 1.68.53 1.82.67 1.98.8 2.15.91 2.28 1.01L14-74.21l2.44 1.14 2.5 1.18 2.53 1.21 2.55 1.25 2.56 1.28 2.54 1.31 2.51 1.33 2.45 1.32 2.36 1.28 2.23 1.22 2.11 1.16 2.02 1.11 1.93 1.02" filter="url(#a)"/></g><path fill="none" stroke="#000" stroke-linejoin="round" stroke-width="3" d="M-7.83 5.56Q10.69 4.545 1.43-4.532" filter="url(#a)"/><path fill="#D77F8C" stroke="#000" stroke-linejoin="round" stroke-width="3" d="m-22.49 35.38.41.6.41.61.41.63.41.62.42.64.42.64.42.65.42.65.42.66.42.66.43.66.42.67.43.66.43.67.43.66.43.67.43.66.43.67.44.65.43.66.44.65.44.64.43.64.44.63.44.63.44.61.44.61.44.6.44.58.44.58.44.56.44.56.44.53.44.53.44.51.44.49.44.48.44.46.44.44.44.42.44.41.44.38.44.37.43.34.44.32.44.3.43.28.44.25.43.22.44.2.43.17.43.15.43.12.43.09.42.06.43.03h.43l.42-.04.42-.06.42-.1.42-.13.42-.17.41-.2.42-.24.41-.27.41-.31.41-.35.4-.39.41-.43.4-.46.4-.51.4-.56.39-.59.4-.64.39-.68.38-.72.39-.77.38-.82.38-.87.38-.91.38-.96.37-1.01.37-1.06.36-1.11.37-1.16.36-1.21.35-1.27.36-1.31.35-1.38.34-1.43.35-1.48.34-1.54.34-1.6.33-1.65.33-1.72.32-1.77.33-1.83.31-1.9.32-1.95-.41.93-.4.91-.4.88-.41.85-.4.82-.41.8-.4.77-.41.75-.4.72-.41.7-.4.67-.41.65-.4.62-.4.6-.41.57-.4.56-.41.53-.4.5-.41.49-.4.46-.41.45-.4.42-.41.4-.4.38-.41.36-.4.34-.4.32-.41.3-.4.28-.41.27-.4.24-.41.23-.4.21-.41.2-.4.17-.41.16-.4.15-.41.13-.4.11-.4.1-.41.08-.4.07-.41.05-.4.04-.41.03-.4.01h-.41l-.4-.01-.41-.02-.4-.04-.4-.05-.41-.06-.4-.07-.41-.08-.4-.09-.41-.1-.4-.11-.41-.12-.4-.13-.41-.14-.4-.14-.41-.16-.4-.16-.4-.17-.41-.17-.4-.18-.41-.19-.4-.2-.41-.2-.4-.2-.41-.21-.4-.22-.41-.22-.4-.22-.41-.23-.4-.23-.4-.23-.41-.24-.4-.24-.41-.24-.4-.24-.41-.25-.4-.24-.41-.25-.4-.24-.41-.25-.4-.25-.4-.24-.41-.25-.4-.24-.41-.24-.4-.24-.41-.24-.4-.24-.41-.23-.4-.23-.41-.22-.4-.23-.41-.21" filter="url(#a)"/></svg>