<svg xmlns="http://www.w3.org/2000/svg" width="500" height="500" viewBox="-100 -100 200 200"><defs><clipPath id="c"><path d="m23.59 1.04-.08-.21-.12-.21-.18-.21L23 .2l-.26-.21-.29-.21-.33-.21-.37-.2-.39-.21-.43-.2-.46-.19-.48-.19-.5-.19-.53-.18-.55-.18-.68-.24-.7-.23-.71-.22-.74-.22-.76-.2-.77-.2-.78-.18-.79-.17-.81-.17-.81-.15-.82-.14-.83-.12-.83-.11-.84-.11-.84-.08-.83-.08-.84-.06-.83-.05-.83-.04-.83-.03-.82-.01-.82-.01-.8.01-.8.02-.79.03-.78.05-.77.05-.76.06-.74.07-.73.08-.72.09-.7.1-.69.1-.67.12-.65.11-.64.13-.62.13-.61.13-.59.14-.56.15-.56.14-.53.15-.51.16-.5.15-.48.16-.45.15-.44.16-.43.16-.4.15-.39.16-.36.15-.36.16-.33.16-.32.15-.31.15-.28.16-.27.15-.26.15-.24.15-.22.15-.2.15-.19.14-.17.14-.16.15 2.8.97.25.12.27.13.28.12.3.12.31.11.33.12.34.11.35.11.37.1.38.11.39.1.4.1.42.1.42.1.44.09.45.09.47.09.48.09.49.09.5.09.52.08.52.08.54.08.54.08.56.08.56.07.57.08.58.07.58.07.59.06.6.07.6.06.61.06.62.06.62.05.62.05.63.05.63.04.64.05.64.03.65.04.65.03.66.03.65.02.67.02.66.01.67.01h1.35l.68-.01.69-.01.68-.02.69-.03.69-.03.7-.04.69-.05.7-.05.7-.06.7-.07.69-.08.7-.08.69-.09.68-.1.69-.11.5-.08.49-.09.48-.1.46-.11.44-.11.43-.12.4-.13.38-.13.35-.15.33-.15.29-.15.27-.17.23-.17.19-.19.15-.19"/></clipPath><clipPath id="b"><path d="m-26.9.56.13-.21.18-.21.21-.22.24-.21.28-.21.31-.22.34-.21.36-.21.4-.2.41-.21.44-.2.47-.19.48-.19.5-.18.52-.18.63-.26.65-.25.67-.24.68-.22.7-.22.71-.2.72-.18.73-.17.75-.16.75-.14.76-.13.77-.11.77-.1.78-.08.78-.07.78-.06.79-.03.78-.03.79-.01h.79l.78.02.78.03.78.04.77.05.77.07.77.08.75.08.75.1.74.1.73.12.72.12.71.13.7.14.69.14.67.15.67.15.64.16.64.16.62.17.6.17.59.17.57.17.56.17.54.18.52.17.5.18.49.17.46.17.45.18.43.17.42.16.4.17.38.17.36.16.35.17.33.16.32.16.3.16.28.16.26.15.24.15.23.15.21.15.2.14-1.51.64-.06.13-.07.13-.09.13-.11.13-.12.12-.14.12-.15.12-.16.11-.18.12-.2.1-.21.11-.22.11-.23.1-.24.1-.26.09-.28.1-.29.09-.3.09-.31.09-.33.08-.34.09-.36.08-.36.08-.38.07-.39.08-.4.07-.41.07-.42.06-.43.07-.44.06-.45.06-.46.06-.47.05-.49.05-.49.05-.51.04-.52.05-.53.03-.54.04-.56.03-.57.03-.58.03-.6.02-.61.02-.62.01-.65.01-.65.01h-.68l-.69-.01h-.7l-.73-.02-.74-.01-.76-.03-.78-.02-.79-.04-.81-.03-.83-.05-.85-.04-.86-.06-.87-.06-.89-.07-.9-.07-.92-.07-.92-.09-.68-.06-.68-.07-.68-.08-.67-.08-.67-.09-.65-.09-.64-.09-.63-.1-.62-.11-.6-.11-.58-.11-.56-.13-.53-.12-.51-.14-.47-.14"/></clipPath><filter id="a"><feTurbulence baseFrequency=".05" numOctaves="3" result="noise" type="noise"/><feDisplacementMap in="SourceGraphic" in2="noise" scale="2"/></filter></defs><rect width="100%" height="100%" x="-100" y="-100" fill="#98FB98"/><path fill="#FFDAB9" stroke="#000" stroke-linejoin="round" stroke-width="1.667" d="m68.8.7.2.04-.13 1.22-.23 2.07.18 2-.09-.4-.07 1.67-.21 3.82.07-1.67-.56 4.44-.06-.37-.33 2.35.13 1.13-.13.82-.71 3.11.32-1.25-.35 1.26-.34 2.16-.06.86-.89 3.76-.83 1.83.86-3-.73 3.56-.17.51-1.39 4.83-.6 1.41-.08-.25.32-.16-.68 2.66.07-1.24-.38 1.33-1.45 3.9-.1-.24-.66 1.89-.08.24-1.32 2.35-.15.71-1.22 1.97.73-1.8-1.03 2.55-1.03 1.67-.74.63-1.17 2.52.37-.48-1.12 2.07-.4.93.24-.78-2.53 3.33-.01.11-.86 1.77-1.82 1.9-.89 1.32.69-.68-1.27 1.16.27-.04-.81.58-2.06 1.89-.77.85-.62 1.28-1.73 1.95-.88.76-.06-.12-.51.43-.36.25-1.27 1.07-1.73 1.25-1.03.84-.72.26-1.31 1.36-.6.32-.24.44-1.94 1.11.54-.38-1.37.77-1.77.77-1.71 1.04.36-.33-2 1.45-1.21.09-.94.81-.63-.04-.9.73.3-.38-1.23.94-2.01.37-1.1.42-.41.21-1.89.45-2.16.33.49-.24-.95.49-1.14.21-1.74.09-.22.13-.39.02-1.99.6-1.51-.2-.66.43-.25-.2-1.24.22-2.53-.25-.61.13-1.06.12-.28.04-1.62-.13-2.95-.6.19.01-1.26-.01-1.56-.22.85.24-.73-.17-1.84-.42-.76-.48-1.15-.09-.96-.25-.76-.15-2.51-.7-1.32-.29-.23-.47.37.31-1.66-.92-1.45-.42-1.44-.62-.98-.44-.54-.35-1.38-.7-.63-.36-2.32-1.58-.99-.4-1.55-.96-.42-.16.34.03-2-1.31-1.25-.78.1-.03-.9-.59-.24-.24-1.47-1.13-1.12-1.23-1.77-1.31.13.06-2.26-2.21.95.59-1.72-1.68-1.36-1.19.04-.36-1.07-.85-.58-.41-.76-1.35-1.82-2.08-.31-.37-.36-.7-1.14-1.71-.87-1.37-.44-.79-.38-.07-1.33-1.79.44.38-1.84-2.71-.22-.37-.25-.87-.79-1.57-.89-1.38-.23-.04-.33-.89-1.62-3.21.61.89-2-4.69.54.89-.77-.88-.16-1.52-.74-1.01-.45-1.86.12.66-1.1-3.3-.7-1.98-.25-.93-.56-1 .11-.28-.08-1-1.16-4.4.36 1.24-.68-2.87-.01 1.08-.6-2.79-.31-3.06-.05 1.03-.49-3.97.15 1.41-.61-3.2.32.26-.31-1.51-.23-2.35-.08-.64.04-2.3-.09-.11-.09.28-.3-5.01.08.08-.07-3.07.03.71-.04-3.26.19-.03-.01-1.69.08-2.04v-.78l.36-1.41-.21-.58-.05-1.16.74-3.84-.41.59.49-2.1-.03-1.42.21-.49.47-3.46-.17 1.22.3-.32 1.07-5.21.1-1.12.35-.7.04-.18.32-1.43.19-1.36.15-.03.26-1.7.62-1.31.88-2.72.13-.13 1.05-2.74.65-2.09-.8 1.99.75-1.86 1.17-2.7 1.29-2.55-1 1.24.38-.7 1.33-2.38.83-1.59.29-1.14-.33.9.79-1.32 1.87-3.6-.15.44 1.02-1.1.1-.77.99-1.98 1.48-1.97-.15.2.63-.42 2.48-3.5.36-.47-1.02 1.56 1.62-2.3 1.54-1.87.84-.53-.01-.37 1.59-1.62.3-.26 1.02-1.42.47-.19 1.14-1.13 1.26-1.21-.7.56 2.41-2.11.54-.42-.81.77 2.27-1.73 1.94-1.38.07-.35.28.15.6-.48 2.46-2.06-.04.29 1.35-.79 2.25-1.2 1.37-1.04-.62.69 1.66-.92 1.4-.76 1.2-.28-1.31.38 3.37-1.27-.46-.02.76-.27 3.01-1.21-.6.18 1.4-.41 1.08.06 2.03-.72.31-.13 1.63-.44-.04.33 1.38-.56.54.04 2.54-.38-1.04.37 2.01-.54.86.07 3.57-.06-.93-.16 3.1.13.21.1 1.64-.08.72-.08 1.25.28.94.28 1.49-.07.91.36-.73-.16.75.12 1.31.25.91.19 1.91.25 1.98.56-.4.07 1.31.12.5.68 1.97.21 1.88.7-.64-.23 1.84.83.13.23.79.15 1.37.68 1.46.52 2.52 1.41 1 .84-1.72-1.25 2.3 1.72 1.67.86.21-.09 1.49 1.06-.96-.46 1.67 1.1 1.41 1.42 1.77 1.01.18-.02 2.56 2.49-.73-.64.71.32 1.33 1.32 1.95 1.94.72.96 1.1 1.14-1.7-1.76 2.07 2.19.78.77.74.81 1.2 1.74.74.73.06-.24.77 1.53 1.24 1.67 1.57 1.84.24.64.4 1.09.83.53.53 1.17.15.51.53.54 1.34 2.48 1.23 2.3.15.37 1.32 2.07-1.18-1.74 1.78 3.47.12.63.3.22 1.12 2.26-.32.41 1.03 1.75.29.84.21 1.1 1.49 3.64-.69-1.85.73 2.12.53 1.78.2-.22.17 1.08.67 2.49.03.68.93 2.46-.02.5.34 1.13.16 2.23.64 1.88-.35-.48.49 2.91.47 2.83.21.91-.17-.25.63 2.58-.24-.14.06 1.88.49 2.27-.21.27.25 1.57.01.52-.06 2.83.31 3.04-.22.31.2.04" filter="url(#a)"/><path fill="#fff" d="m-26.9.56.13-.21.18-.21.21-.22.24-.21.28-.21.31-.22.34-.21.36-.21.4-.2.41-.21.44-.2.47-.19.48-.19.5-.18.52-.18.63-.26.65-.25.67-.24.68-.22.7-.22.71-.2.72-.18.73-.17.75-.16.75-.14.76-.13.77-.11.77-.1.78-.08.78-.07.78-.06.79-.03.78-.03.79-.01h.79l.78.02.78.03.78.04.77.05.77.07.77.08.75.08.75.1.74.1.73.12.72.12.71.13.7.14.69.14.67.15.67.15.64.16.64.16.62.17.6.17.59.17.57.17.56.17.54.18.52.17.5.18.49.17.46.17.45.18.43.17.42.16.4.17.38.17.36.16.35.17.33.16.32.16.3.16.28.16.26.15.24.15.23.15.21.15.2.14-1.51.64-.06.13-.07.13-.09.13-.11.13-.12.12-.14.12-.15.12-.16.11-.18.12-.2.1-.21.11-.22.11-.23.1-.24.1-.26.09-.28.1-.29.09-.3.09-.31.09-.33.08-.34.09-.36.08-.36.08-.38.07-.39.08-.4.07-.41.07-.42.06-.43.07-.44.06-.45.06-.46.06-.47.05-.49.05-.49.05-.51.04-.52.05-.53.03-.54.04-.56.03-.57.03-.58.03-.6.02-.61.02-.62.01-.65.01-.65.01h-.68l-.69-.01h-.7l-.73-.02-.74-.01-.76-.03-.78-.02-.79-.04-.81-.03-.83-.05-.85-.04-.86-.06-.87-.06-.89-.07-.9-.07-.92-.07-.92-.09-.68-.06-.68-.07-.68-.08-.67-.08-.67-.09-.65-.09-.64-.09-.63-.1-.62-.11-.6-.11-.58-.11-.56-.13-.53-.12-.51-.14-.47-.14" filter="url(#a)" transform="translate(44.69 -28.7)"/><path fill="#fff" d="m23.59 1.04-.08-.21-.12-.21-.18-.21L23 .2l-.26-.21-.29-.21-.33-.21-.37-.2-.39-.21-.43-.2-.46-.19-.48-.19-.5-.19-.53-.18-.55-.18-.68-.24-.7-.23-.71-.22-.74-.22-.76-.2-.77-.2-.78-.18-.79-.17-.81-.17-.81-.15-.82-.14-.83-.12-.83-.11-.84-.11-.84-.08-.83-.08-.84-.06-.83-.05-.83-.04-.83-.03-.82-.01-.82-.01-.8.01-.8.02-.79.03-.78.05-.77.05-.76.06-.74.07-.73.08-.72.09-.7.1-.69.1-.67.12-.65.11-.64.13-.62.13-.61.13-.59.14-.56.15-.56.14-.53.15-.51.16-.5.15-.48.16-.45.15-.44.16-.43.16-.4.15-.39.16-.36.15-.36.16-.33.16-.32.15-.31.15-.28.16-.27.15-.26.15-.24.15-.22.15-.2.15-.19.14-.17.14-.16.15 2.8.97.25.12.27.13.28.12.3.12.31.11.33.12.34.11.35.11.37.1.38.11.39.1.4.1.42.1.42.1.44.09.45.09.47.09.48.09.49.09.5.09.52.08.52.08.54.08.54.08.56.08.56.07.57.08.58.07.58.07.59.06.6.07.6.06.61.06.62.06.62.05.62.05.63.05.63.04.64.05.64.03.65.04.65.03.66.03.65.02.67.02.66.01.67.01h1.35l.68-.01.69-.01.68-.02.69-.03.69-.03.7-.04.69-.05.7-.05.7-.06.7-.07.69-.08.7-.08.69-.09.68-.1.69-.11.5-.08.49-.09.48-.1.46-.11.44-.11.43-.12.4-.13.38-.13.35-.15.33-.15.29-.15.27-.17.23-.17.19-.19.15-.19" filter="url(#a)" transform="translate(-37.05 -22.71)"/><g fill="none" stroke="#000" transform="translate(44.69 -28.7)"><path stroke-linejoin="round" stroke-width="1.667" d="m-25.64 2.31-.38-.13-.31-.14-.25-.16-.2-.16-.14-.18-.09-.18-.04-.2V.97l.06-.21.09-.2.13-.21.18-.21.21-.22.24-.21.28-.21.31-.22.34-.21.36-.21.4-.2.41-.21.44-.2.47-.19.48-.19.5-.18.52-.18.63-.26.65-.25.67-.24.68-.22.7-.22.71-.2.72-.18.73-.17.75-.16.75-.14.76-.13.77-.11.77-.1.78-.08.78-.07.78-.06.79-.03.78-.03.79-.01h.79l.78.02.78.03.78.04.77.05.77.07.77.08.75.08.75.1.74.1.73.12.72.12.71.13.7.14.69.14.67.15.67.15.64.16.64.16.62.17.6.17.59.17.57.17.56.17.54.18.52.17.5.18.49.17.46.17.45.18.43.17.42.16.4.17.38.17.36.16.35.17.33.16.32.16.3.16.28.16.26.15.24.15.23.15.21.15.2.14.17.15.16.14.14.13.13.14.1.13.09.13.08.12.06.12.04.13.03.11" filter="url(#a)"/><path stroke-linejoin="round" stroke-width="2.222" d="m-27.09 1.2-.03.19.05.2.11.18.17.19.22.17.27.17.32.16.37.16.41.15.44.14.47.14.51.14.53.12.56.13.58.11.6.11.62.11.63.1.64.09.65.09.67.09.67.08.68.08.68.07.68.06.92.09.92.07.9.07.89.07.87.06.86.06.85.04.83.05.81.03.79.04.78.02.76.03.74.01.73.02h.7l.69.01h.68l.65-.01.65-.01.62-.01.61-.02.6-.02.58-.03.57-.03.56-.03.54-.04.53-.03.52-.05.51-.04.49-.05.49-.05.47-.05.46-.06.45-.06.44-.06.43-.07.42-.06.41-.07.4-.07.39-.08.38-.07.36-.08.36-.08.34-.09.33-.08.31-.09.3-.09.29-.09.28-.1.26-.09.24-.1.23-.1.22-.11.21-.11.2-.1.18-.12.16-.11.15-.12.14-.12.12-.12.11-.13.09-.13.07-.13.06-.13.04-.14.03-.14.01-.14v-.15l-.03-.15-.03-.15-.06-.15-.07-.15-.08-.16-.1-.16" filter="url(#a)"/><circle cx="-14.056" cy="1.757" r="3.884" clip-path="url(#b)" filter="url(#a)"/><circle cx="-16.071" cy="1.502" r="3.052" clip-path="url(#b)" filter="url(#a)"/><circle cx="-13.126" cy="-.493" r="3.666" clip-path="url(#b)" filter="url(#a)"/><circle cx="-14.256" cy="2.867" r="4.654" clip-path="url(#b)" filter="url(#a)"/><circle cx="-13.641" cy="2.647" r="3.268" clip-path="url(#b)" filter="url(#a)"/><circle cx="-15.381" cy="-1.688" r="3.714" clip-path="url(#b)" filter="url(#a)"/><circle cx="-13.341" cy="-1.173" r="3.098" clip-path="url(#b)" filter="url(#a)"/><circle cx="-12.106" cy="1.577" r="4.078" clip-path="url(#b)" filter="url(#a)"/><circle cx="-13.901" cy="-.503" r="4.962" clip-path="url(#b)" filter="url(#a)"/><circle cx="-11.381" cy="-.858" r="3.838" clip-path="url(#b)" filter="url(#a)"/></g><g fill="none" stroke="#000" transform="translate(-37.05 -22.71)"><path stroke-linejoin="round" stroke-width="2.222" d="m21.2 2.95.54-.17.47-.17.4-.18.32-.18.26-.19.2-.2.13-.2.08-.21.02-.2-.03-.21-.08-.21-.12-.21-.18-.21L23 .2l-.26-.21-.29-.21-.33-.21-.37-.2-.39-.21-.43-.2-.46-.19-.48-.19-.5-.19-.53-.18-.55-.18-.68-.24-.7-.23-.71-.22-.74-.22-.76-.2-.77-.2-.78-.18-.79-.17-.81-.17-.81-.15-.82-.14-.83-.12-.83-.11-.84-.11-.84-.08-.83-.08-.84-.06-.83-.05-.83-.04-.83-.03-.82-.01-.82-.01-.8.01-.8.02-.79.03-.78.05-.77.05-.76.06-.74.07-.73.08-.72.09-.7.1-.69.1-.67.12-.65.11-.64.13-.62.13-.61.13-.59.14-.56.15-.56.14-.53.15-.51.16-.5.15-.48.16-.45.15-.44.16-.43.16-.4.15-.39.16-.36.15-.36.16-.33.16-.32.15-.31.15-.28.16-.27.15-.26.15-.24.15-.22.15-.2.15-.19.14-.17.14-.16.15-.14.13-.12.14-.11.14-.1.13-.08.13-.06.12-.05.13-.04.12-.02.12-.01.12" filter="url(#a)"/><path stroke-linejoin="round" stroke-width="2.222" d="m22.5-.35.42.28.35.28.28.26.21.25.15.25.09.23.04.23-.02.22-.06.2-.11.2-.15.19-.19.19-.23.17-.27.17-.29.15-.33.15-.35.15-.38.13-.4.13-.43.12-.44.11-.46.11-.48.1-.49.09-.5.08-.69.11-.68.1-.69.09-.7.08-.69.08-.7.07-.7.06-.7.05-.69.05-.7.04-.69.03-.69.03-.68.02-.69.01-.68.01H6.74l-.67-.01-.66-.01-.67-.02-.65-.02-.66-.03-.65-.03-.65-.04-.64-.03-.64-.05-.63-.04-.63-.05-.62-.05-.62-.05-.62-.06-.61-.06-.6-.06-.6-.07-.59-.06-.58-.07-.58-.07-.57-.08-.56-.07-.56-.08-.54-.08-.54-.08-.52-.08-.52-.08-.5-.09-.49-.09-.48-.09-.47-.09-.45-.09-.44-.09-.42-.1-.42-.1-.4-.1-.39-.1-.38-.11-.37-.1-.35-.11-.34-.11-.33-.12-.31-.11-.3-.12-.28-.12-.27-.13-.25-.12-.24-.13-.23-.13-.21-.13-.19-.13-.18-.14-.17-.14-.14-.14-.14-.14-.12-.15-.11-.15" filter="url(#a)"/><circle cx="9.124" cy="-4.104" r="4.432" clip-path="url(#c)" filter="url(#a)"/><circle cx="10.649" cy="-.569" r="4.032" clip-path="url(#c)" filter="url(#a)"/><circle cx="7.139" cy=".141" r="4.116" clip-path="url(#c)" filter="url(#a)"/><circle cx="7.659" cy="-.979" r="3.168" clip-path="url(#c)" filter="url(#a)"/><circle cx="6.444" cy="-2.589" r="4.16" clip-path="url(#c)" filter="url(#a)"/><circle cx="9.704" cy="-.804" r="4.644" clip-path="url(#c)" filter="url(#a)"/><circle cx="7.174" cy="-4.374" r="3.024" clip-path="url(#c)" filter="url(#a)"/><circle cx="6.634" cy=".081" r="3.842" clip-path="url(#c)" filter="url(#a)"/><circle cx="10.189" cy="-1.959" r="3.642" clip-path="url(#c)" filter="url(#a)"/><circle cx="10.109" cy="-.294" r="3.568" clip-path="url(#c)" filter="url(#a)"/></g><g fill="none" stroke="#000" stroke-linejoin="round" stroke-width="2"><path d="m46.3-66.18.6 1.19-.39.61-1.18.44-1.89.45-2.65.41-3.52.24-4.51-.01-5.56-.3-6.59-.58-7.63-.82-8.65-1.04-9.7-1.19-10.76-1.33-11.95-1.49" filter="url(#a)"/><path d="m39.33-73.23-.13-.16.69.61 1.07 1.05 1.12 1.16 1 1.07.85.95.77.85.72.81.69.78.64.73.56.63.44.53.31.39.17.24v.08l-.17-.13-.37-.35-.55-.59-.76-.86-1.04-1.21-1.47-1.72-2.04-2.34M8.89-88.49l-.11-.02.72.17 1.17.29 1.41.36 1.47.42 1.43.43 1.36.44 1.31.45 1.26.44 1.2.43 1.1.41.99.37.84.32.69.27.55.22.36.13.15.06-.12-.06-.39-.16-.65-.28-.85-.39-1.03-.49-1.31-.62" filter="url(#a)"/><path d="m-4.87-89.26 1.48.04 1.8.04 1.75.06 1.73.11 1.7.14 1.63.15 1.52.17 1.38.16 1.2.15.96.13.69.07.35.02-.02-.04-.42-.09-.78-.16m6.33 1.9 1.62.29.97.31.53.29.28.29.11.3-.01.33-.17.36-.43.37-.77.34-1.19.31-1.63.25-2.06.21-2.5.17-2.94.13-3.39.08-3.83.05-4.3.01h-4.79l-5.35-.05-5.89-.21m47.06.67.19.32-.24.17-.32.31-.66.33-1.23.25-1.9.18-2.54.13-3.15.11-3.78.08h-4.5l-5.34-.13-6.29-.3-7.24-.51-8.1-.76" filter="url(#a)"/><path d="m11.13-88.09 1.42.35.5.47-.3.58-.91.72-1.44.91-2.05 1.09-2.77 1.26-3.57 1.45-4.41 1.65-5.26 1.87-6.11 2.12-6.98 2.41-8 2.81-9.27 3.42" filter="url(#a)"/><path d="m5.55-89.06 1.01.18.89.11.64.1.51.1.53.11.57.13.57.16.46.16.25.17-.02.17-.29.16-.57.14-.85.13-1.15.1-1.49.07-1.85.04-2.21.01H-.02L-3-87.04l-3.46.01-4.1-.02m43.97 8.92 1.4 1.2 1.3 1.01 1.18.94 1.06.9.98.86.94.87.92.87.83.81.69.7.52.54.34.37.17.19-.02.02-.21-.16-.42-.37-.68-.59-.96-.86-1.29-1.15-1.71-1.51-2.21-1.95m-9.21-6.88 1.99 1.43 1.66 1.22 1.5 1.23 1.49 1.36 1.6 1.56 1.78 1.74 1.91 1.84 1.97 1.88 1.92 1.85 1.79 1.78 1.63 1.65 1.45 1.49 1.3 1.31 1.02 1" filter="url(#a)"/><path d="m28.75-81.07-.5-.29.45.52.37.62-.01.59-.4.6-.71.67-.98.75-1.26.83-1.6.89-2.01.89-2.46.9-2.93.91-3.41.93-3.89.98-4.38 1-4.92 1.03-5.51 1.03-6.09 1.05-6.63 1.06-7.1 1.05-7.53 1.02-8.22 1.23" filter="url(#a)"/><path d="m-4.87-89.26 1.57.13 2.05.27 2.19.44 2.35.61 2.5.76 2.65.89 2.76 1 2.84 1.1 2.91 1.17 2.93 1.24 2.94 1.3 2.92 1.32 2.88 1.28 2.77 1.13 2.57.91 2.35.8" filter="url(#a)"/><path d="m31-79.74.39.17.32.35.27.45.26.56.16.61-.05.57-.37.5-.72.4-1.1.32-1.45.27-1.81.21-2.2.13-2.62.03-3.06-.1-3.51-.23-3.95-.34-4.4-.41-4.86-.46-5.39-.52-6-.58-6.67-.65-7.17-.83" filter="url(#a)"/><path d="m-.44-89.25.39.03 1.58.29 1.95.46 2.17.6 2.35.74 2.51.89 2.62.98 2.65 1.03 2.6 1.03 2.56 1.01 2.55 1.01 2.6 1.03 2.63 1.03 2.48.94 2.15.82m20.68 22.39.69 1.06.73 1.42.47 1.16.15.77-.14.44-.4.19h-.63l-.85-.18-1.1-.36-1.36-.56-1.61-.78-1.88-1-2.15-1.26-2.44-1.54-2.78-1.86-3.14-2.18-3.53-2.54-3.93-2.87-4.36-3.19-4.79-3.51-5.24-3.82-5.73-4.16-6.32-4.52" filter="url(#a)"/><path d="m-37.67-74.81 2.1-1.39 1.84-.82 1.8-.42 2.03-.24 2.41-.18 2.81-.13 3.16-.07 3.45.01 3.65.1 3.81.19 3.93.28 4.04.36 4.14.45 4.24.51 4.33.55 4.4.56 4.48.59 4.57.65 4.71.77 4.85.96 4.86 1.03" filter="url(#a)"/><path d="m29.33-80.6 1.05.56.39.36-.03.33-.31.4-.53.47-.8.49-1.18.47-1.65.38-2.18.27-2.75.16-3.32.08-3.89.04-4.53-.02-5.23-.09-6.02-.2-6.8-.31-7.54-.34-8.25-.24" filter="url(#a)"/><path d="m-6.88-88.72 1.66-.3 1.45-.08 1.22.05.92.13.64.23.36.31.09.41-.19.51-.49.62-.8.73-1.15.84-1.49.96-1.82 1.08-2.14 1.22-2.43 1.38-2.73 1.55-3.08 1.73-3.48 1.9-3.91 2.07-4.35 2.21-4.77 2.35-5.29 2.63-6.02 3.12" filter="url(#a)"/><path d="m38.6-73.87.77.6.74.9.33.77-.25.44-.86.09-1.4-.18-1.86-.35-2.3-.47L31-72.7l-3.34-.85-3.95-1.11-4.6-1.38-5.25-1.65-5.96-1.88-6.77-2.14-7.75-2.51m22.55-2.87.92.52 1.18.39.99.33.76.3.6.28.53.29.49.29.43.31.29.28.07.23-.23.17-.54.07-.88-.01-1.21-.1-1.58-.19-1.97-.26-2.38-.35-2.77-.4-3.14-.48L4.04-86l-3.83-.72-4.33-.9" filter="url(#a)"/><path d="m-10.3-88.19 1.25-.33 1.35-.08 1.46.05 1.63.13 1.84.2 2.04.24 2.16.29 2.2.33 2.19.37 2.13.4 2.06.42 1.97.41 1.86.41 1.74.39 1.62.37 1.5.36 1.38.33 1.28.32 1.17.27 1.07.24.99.2.88.17.46-.01m33.69 38.08.55 1.58-.02 1.04-.35.85-.68.73-1.05.57-1.44.36-1.85.13-2.27-.08-2.69-.26-3.12-.41-3.55-.55-3.99-.68-4.43-.84-4.89-1.01-5.37-1.21-5.86-1.43-6.36-1.63-6.87-1.86L-2-51.4l-7.88-2.29-8.39-2.54-8.94-2.84-9.57-3.08m49.82-25.69 1.27.4.85.3.95.33 1.07.37 1.1.38 1.02.36.89.33.77.3.68.3.6.27.51.26.36.22.14.14-.13.05-.43-.06-.73-.18-1.06-.3-1.41-.43-1.8-.56-2.15-.68-2.36-.76-2.34-.83" filter="url(#a)"/><path d="m-25.12-83.4.24.14 1.16-.36 1.44-.46 1.53-.44 1.62-.44 1.72-.45 1.82-.47 1.91-.47 1.95-.45 1.96-.41 1.92-.36 1.83-.34 1.66-.31 1.44-.29 1.18-.24.87-.2.55-.15.05-.14m11.4 1.15 1.69.31 1.25.31.98.3.94.31.94.31.9.3.77.28.61.24.43.2.25.16.09.14-.07.1-.27.06h-.49l-.76-.1-1.09-.22-1.45-.33-1.83-.46-2.27-.6-2.73-.73-3.23-.83m39.77 21.35.71.9.52.78.2.48-.07.29-.32.18-.61.02-.98-.24-1.42-.6-1.92-1.01-2.45-1.43-3.01-1.83-3.56-2.19-4.06-2.55-4.5-2.9-4.88-3.31-5.25-3.87m-33.08-1.58 1.91-.74 1.21-.36 1.26-.27 1.4-.27 1.44-.28 1.39-.27 1.31-.23 1.2-.21 1.1-.18.97-.15.82-.12.62-.1.41-.06.17-.03-.1.01-.4.04-.75.09-1.18.14-1.69.22m9.76-.66.56.04.79.03.73.07.56.13.31.17-.03.19-.39.2-.75.24-1.05.29-1.33.35-1.64.42-2 .48-2.44.53-2.98.56-3.59.62-4.22.69-4.72.67m77.88 34.65.87 2.23-.24.96-1.04.44-1.76.16-2.46-.1-3.2-.35-3.94-.64-4.71-.96-5.52-1.32-6.37-1.7-7.25-2.09-8.14-2.46-9-2.82-9.89-3.18-10.78-3.5-11.66-3.91" filter="url(#a)"/><path d="m31.74-79.23 1.22 1.06.54.97-.24.8-1.07.66-1.93.53-2.78.44-3.58.39-4.39.38-5.24.35-6.25.26-7.33.13-8.41-.05-9.37-.18-10.43-.1" filter="url(#a)"/><path d="m-39.81-73.05 1.8-1.35 1.4-.59 1.65-.42 2.05-.4 2.36-.35 2.61-.26 2.85-.19 3.1-.15 3.35-.12 3.61-.09 3.8-.04 3.96.03 4.05.11 4.13.18 4.18.26 4.24.34 4.32.41 4.37.47 4.36.43 4.26.3 4.05.12 3.92.06m-57.29-10.09.78-.15 1.02-.21 1.47-.3 1.78-.31 2.01-.3 2.18-.25 2.31-.21 2.39-.16 2.44-.14 2.43-.12 2.38-.11 2.33-.1 2.27-.06 2.21-.04 2.12-.02 1.96-.03 1.7-.04 1.41-.09 1.18-.13" filter="url(#a)"/><path d="m-5.84-89.09.17.22 1.64.25 2.42.43 2.84.64 3.07.81 3.22.97 3.37 1.11 3.49 1.24 3.58 1.34 3.6 1.38 3.53 1.32 3.38 1.24 3.28 1.24 3.43 1.5M19.64-85.73l1.28.61.97.46 1.05.48 1.19.56 1.2.58 1.05.54.78.43.47.28.17.14-.11-.01-.4-.15-.71-.31-1.01-.47-1.34-.61-1.75-.8-2.45-1.05" filter="url(#a)"/><path d="m42.71-69.95 1.54 1.63 1.04 1.13.79.93.61.78.47.66.35.59.26.53.13.46-.03.31-.25.12-.48-.12-.74-.35-1.01-.58-1.26-.78-1.51-.98-1.76-1.17-2-1.41-2.29-1.7-2.63-2.03-3.01-2.38-3.46-2.72-3.91-3.07-4.28-3.43m-4.26-3.75.23.19 1.01.46 1.44.64 1.65.75 1.71.82 1.67.86 1.63.86 1.59.86 1.57.84 1.54.82 1.47.79 1.28.69.94.5.49.24.02-.05-.45-.41" filter="url(#a)"/><path d="m18.4-86.2 1.01.46.28.39-.02.47-.27.55-.51.68-.78.8-1.14.92-1.63 1-2.17 1.07-2.75 1.12-3.31 1.21-3.87 1.29-4.46 1.4-5.07 1.53-5.7 1.68-6.3 1.82-6.85 1.89-7.41 1.91-8.25 2.17m53.84-24 1.19.38.64.26.57.27.55.3.44.3.21.29-.07.28-.36.28-.63.29-.88.3-1.15.33-1.45.35-1.83.34-2.26.32-2.7.28-3.15.23-3.58.19-4.06.15-4.56.12-5.04.05-5.41-.02" filter="url(#a)"/><path d="m-4.01-89.19 2.29-.04 1.58.04 1.56.12 1.6.16 1.6.2 1.59.23 1.55.26 1.45.26 1.31.24 1.16.21 1.03.19.94.18.87.15.78.13.59.09.3.03-.08-.07-.4-.14-.49-.18M38.6-73.87l.76.63.69.95.27.88-.32.59-.92.31-1.43.12-1.86.03-2.27-.02-2.74-.09-3.26-.22-3.83-.36-4.43-.52-5.07-.64-5.73-.75-6.47-.88-7.28-1.04-8.1-1.27-8.91-1.42" filter="url(#a)"/><path d="m5.55-89.06.91.19.61.16.16.18-.18.23-.39.3-.57.39-.8.51-1.17.61-1.62.72-2.15.83-2.68.92-3.2 1.01-3.76 1.12-4.39 1.26-5.11 1.39-5.79 1.47-6.22 1.37m-6.06.82.2-.05 1.04-.75 1.02-.77.84-.62.73-.52.69-.47.68-.42.63-.35.54-.24.38-.09.18.08-.06.28-.3.49-.57.7-.83.91-1.1 1.13-1.35 1.34-1.61 1.54-1.89 1.78-2.21 2.06-2.59 2.38-2.98 2.66-3.3 2.87" filter="url(#a)"/><path d="m-14.23-87.23 1.55-.49 1.28-.26 1.29-.13 1.39-.07 1.52-.03 1.63-.01 1.72.01 1.78.01 1.84.03 1.87.03 1.86.05 1.79.07 1.64.06 1.45.07 1.22.05.98.03.75.02.51-.01.21-.05-.21-.1-.73-.16m1.93.27 1.3.42.96.37 1.11.44 1.29.51 1.37.53 1.33.52 1.23.51 1.14.48 1.04.47.98.44.89.41.75.34.52.24.2.07-.25-.13-.73-.37-1.21-.59-1.58-.74m34.04 34.97.98 2.24.05 1.01-.53.49-1.03.21-1.52-.03-2.03-.29-2.55-.56-3.11-.88-3.7-1.24-4.29-1.62-4.9-2.02-5.54-2.41-6.18-2.76-6.86-3.11-7.54-3.44-8.28-3.78-9.14-4.1-10.2-4.38m-5.13-8.01 1.34-.47 1.4-.15 1.76-.05 2.2.01 2.62.06 2.97.15 3.26.25 3.49.33 3.66.4 3.79.44 3.91.5 3.96.55 3.97.58 3.9.58 3.77.53 3.58.41 3.33.22M46.3-66.18l.86 1.23.39.7.15.6-.02.65-.22.63-.51.49-.86.29-1.24.06-1.61-.15-1.98-.33-2.34-.45-2.71-.58-3.11-.71-3.53-.89-3.99-1.12-4.49-1.38-4.99-1.63-5.48-1.86-5.94-2.11-6.38-2.35-6.82-2.65-7.35-2.91" filter="url(#a)"/><path d="m50.31-60.75 1.06 1.36.59.92.41.7.31.56.21.44.11.36v.26l-.16.1-.38-.14-.65-.49-.97-.9-1.34-1.32-1.71-1.76-2.07-2.2-2.42-2.61-2.69-3.02-2.94-3.4-3.21-3.77m-39.33-13.6 1.3.05 1.24.07.83.16.45.26.07.38-.33.5-.76.65-1.2.81-1.67.95-2.18 1.11-2.72 1.27-3.28 1.45-3.81 1.65-4.31 1.86-4.83 2.11-5.39 2.35-6.14 2.66" filter="url(#a)"/><path d="m-39.81-73.05 1.97-1.35 1.94-.6 2.53-.43 3.27-.44 3.89-.43 4.35-.37 4.79-.3 5.25-.27 5.69-.23 6.1-.22 6.36-.21 6.51-.23 6.47-.26 6.3-.36m27.74 22.1.42.92.45.87.59 1.05.62 1.11.5.95.3.63.06.25-.19-.12-.4-.44-.62-.76-.86-1.14-1.16-1.56-1.48-2.05-1.77-2.51-1.98-2.89-2.05-3.18" filter="url(#a)"/><path d="m-22.79-84.29 2.32-.73 1.87-.2 2.22.05 2.65.24 3.02.43 3.36.59 3.67.74 3.96.86 4.16.98 4.32 1.08 4.44 1.16 4.56 1.22 4.71 1.32 4.89 1.46 5.08 1.66 5.15 1.7m-4.89-7.04-.03.12.95.8 1.26 1 1.27 1.01 1.18.94 1.05.87.93.8.86.77.78.72.63.61.46.46.22.26.01.06-.2-.13-.4-.28-.63-.49-.94-.74-1.27-1.05-1.6-1.35-1.78-1.57-1.87-1.72" filter="url(#a)"/><path d="m8.91-88.53 1.36.38 1.75.71 2.04 1.01 2.19 1.27 2.3 1.49 2.47 1.71 2.65 1.9 2.82 2.05 2.9 2.13 2.9 2.17 2.87 2.16 2.85 2.16 2.88 2.2 2.93 2.28 2.92 2.33 2.8 2.28m-82.65-17.82 1-.8 1.15-.84 1.07-.69.99-.58.86-.44.65-.3.41-.12.17.06-.07.24-.32.42-.59.61-.86.81-1.14 1.03-1.44 1.26-1.79 1.54-2.21 1.86-2.69 2.26-3.2 2.67-3.53 2.84m98.68 11.32.64 1.02.56 1.31.22.99-.21.53-.62.11-.98-.21-1.34-.49-1.7-.75-2.09-1.02L46-54.81l-2.95-1.64-3.44-1.97-3.96-2.33-4.51-2.7-5.11-3.12-5.72-3.55-6.3-4.01-6.77-4.44L0-83.46" filter="url(#a)"/><path d="m15.93-87.09-30.97 11.25 1.04 7.76 8.89 3.07 7.74-1.31 4.24-3.56-.2-3.56-3.54-2.55-3.75-1.77-1.19-1.54 1.23-1.26 1.15-.02.16 2.55 2.73 5.37 5.24 3.7-28.12-16.6" filter="url(#a)"/><path d="m61.45-40.21-36.07-19.4-26.84-7.12-11.93-4.01-2.56-2.58 2.01-1.67 3.53-.86 4.26-.05 5.67.73L7.08-74l8.48 1.01 7.06.17 3.21-1.14-1.87-2.53-6.26-3.46-7.64-3.22-3.34-1.19 9.02 2.99 26.85 11.08" filter="url(#a)"/><path d="m-45.72-66.88 20.92 5.46 29.08.15 13.45.08 1.34-.92-3.82-2.84-5.44-4.03-5.94-3.93-5.48-2.95-3.51-1.77-.16-.71 3.62.35 6.65 1.57 8.06 2.78 7.37 3.51 4.59 3.16.25 1.55-4.37-.75-7.56-2.55-7.94-2.59-5.47-.63-1.51 1.63 1.78 1.12 4.26-3.58 27.29-6.46" filter="url(#a)"/><path d="m-52.66-58.11 8.11-5.5 17.07-7.28 18.74-2.52 14.82.27 9.41 1 5.96 1.57 4.73 2.69 3.99 3.52 2.2 3.15-.87 1.43-4.43-.78-7.48-2.39-9.36-2.72-9.72-1.86-8.11-.44-4.23.86 1.37 1.57 6.55 1.39 8.03.12 3.92-2.23-3.35-4.76-6.59-5.52-3.28-3.76-20.56-2.41" filter="url(#a)"/><path d="m15.93-87.09 1.38 2.72 3.64 6.26 1.43 3.81-1.33.31-3.45-1.19-4.58-.68-4.14.94-2.83 2.7-2.53 3.58-3.89 2.72-4.58.01-1.13-3.34 6.47-5.16 12.87-3.71 11.55-.72-5.17-6.89" filter="url(#a)"/><path d="M32.7-78.77 9.09-83.63-.7-80.12l5.37 6.77 12.94 6.53 12.47 4.77 7.8 2.82 1.9.81-3.86-1.4-8.57-3.49-11.34-4.81-11.52-4.82-9.29-3.71-5.65-2.06-1.99-.46.45.79 1.27 1.77L-9.56-74l1.55 3.42 3.48 4.15 5.56 4.63.9 2.53-41.74-13.78" filter="url(#a)"/><path d="m16.43-86.41-26.76 5.74 3.09-1.5 11.24.9 12.91 3.82 11.06 4.53 7.04 3.5 2.24 2.05-2.15 1.14-5.37.9-6.77 1.03-5.85 1.13-2.63 1.09 1.77.97 4.93.72 4.21-.04-1.13-1.55-8.03-3.44-9.84-4.52-.15-3.11 19.25 2.72 28.54 15.36" filter="url(#a)"/><path d="M27.03-82.32 47.07-55.2l-5.78 2.37-18.85-7.84L4-69.57l-11.5-6.41-4.54-3.11.14.04 3.67 2.61 7.19 4.14 9.14 4.2 6.13 2.41-2.38-1.18-8.7-5.45.69-7.68 23.91-1.91" filter="url(#a)"/><path d="m1.73-89.28 31.96 32.57-4.15 7.4-11.44-3.54-10.38-6-8.49-5.06-4.85-3.95.19-3.68 3.79-3.7 3.57-3.19-.16-1.96-4.87-.53-7.31.36-5.23.29 1.62-.45 11.37-.59 20.95 2.82 29.94 14.78" filter="url(#a)"/><path d="m33.41-78.13-6.56 3.43-12-1.01-10.12.48-7.9 2.56-3.31 3.23 1.34 2.28 3.5.75 3.35-.12 2.62.18 2.78 1.09 3.93 1.63 5.3 1.3 5.72.36 3.87-.46-1.51-1.11-10.46-2.28-19.33-4.31-20.92-4.14-19.43 7.39" filter="url(#a)"/><path d="m-48.22-63.8 41.48-11.75 7.49-5.07 3.09 1.45 2.85 4.65-.49 4.13-4.91 1.53-6.6-1.36-4.65-3.4-.97-4.08 2.21-3.3 4.09-1.41 4.92.68 4.8 1.78 2.65.99-2.57-1.38-9.13-3.17-11.09-2.1-1.66-1.27m73.84 37.23L26.82-67.07l4.46.81 3.22 1.93-3.99-1.57-6.07-3.42-3.12-2.53.14-.26.07 1.79-3.36 2.78-6.92 2.23-6.02.38 2-1.35 12.88-1.21 12.06-1.9-17.55-17.82" filter="url(#a)"/><path d="M42.71-69.95 7.23-76.74l-16.66 4.07 4.3 4.3 12.67 2.32 9.63.73 1.88-.31-5.21-.98-9.04-1.32-8.93-1.26-5.49-.72-.35.21 4.37 1.25L1-66.51l4.74 1.84-1.72.62-8.65-1.4-.34-2.54 48.28-1.34" filter="url(#a)"/><path d="m-16.71-86.88-8.3 10.86 13.66 1.92 10.29-1.12 2.16-1.7-.8.08 1.32 2.65 4.56 3.99 5.77 3.2 4.61.99 2.92-1.07 2.27-1.88 2.28-1.48 1.49-.6.11.63 1.36 2.6 6.82 2.68L31-79.74" filter="url(#a)"/><path d="m-14.23-87.23 34.44 15.19-4.38 1.95-13.91-3.12-9.58-2.82-2.63-.18 2.7 2.38 5.27 3.45 5.24 2.81 3.74 1.08 2.44-.72 2.48-1.76 3.7-1.79 4.79-1.09 4.17-.15.97.66-4.64 1.15-11.49 1.1-17.01.19-16.44-2.02-4.71-5.97 12.37-9.99" filter="url(#a)"/><path d="m53.88-55.48-31.62-19.2L5.6-78.31-4-77.25l-1.68 1.69 3.09 1.62 3.86 1.6 2.76 1.44 2.13 1.08 3.04.87 4.99.93 6.44 1.04 5.94.7 2.93-.28-1.94-1.57-7.18-2.49-10.87-2.6-10.97-1.92-5.81-.69 4.49 1.19 15.49 3.87 16.26 3.61-13.95-20.12" filter="url(#a)"/><path d="m18.4-86.2-6.96 6.35-7.08 9.68-5.88 5.97 1.42 2.15 6.87-.57 8.1-1.8 5.9-1.95 1.7-1.63-2.93-1.28-6.53-.92-8.17-.63-7.69-.68-5.44-1.27-1.84-2.28 2.35-3.07 5.84-2.84 6.9-1.02 3.31 2.64-10.33 8.22-51.59 15" filter="url(#a)"/><path d="m42.71-69.95-24.74-3.92.29 1.71-1.27 2.62-2.06 3.49-.07 3.18 2.13 1.51 2.7-.9 1.43-3.31-.77-4.86-2.95-5.06-4.84-4.06-6.38-2.47-7.02-.91-5.69.66-1.98 2.61 2.76 4.52 2.04 3.92-33.96-3.59" filter="url(#a)"/><path d="m-6.88-88.72-6.73 2.7-1.3 3.47 5.6 2.27 10.13.95 9.36.99L15-76.43l-.64 2.42-4.74 1.62-6.25-.32-4.77-2.21-.72-2.82 4.9-1.53 10.53 1.25 13.91 4.39 12.71 5.86 5.52 2.42-6.85-8.52" filter="url(#a)"/><path d="M61.45-40.21 11.23-54.44l2.58-8.19 3.76-3.83-1.92-2.62-2.74-2.68-.37-2.6 1.79-1.89 2.21-.9.81-.07-2.08.4-5.82.67-9.13.99-10.26 1.38-7.8 1.5-1.86.91 5.41-.43 10.14-2.06 8.8-3.1 2.44-2.51 2.89 1.24 34.7 10.47M-14.1-80.4l.95-1.13.95-1.31.86-1.05.79-.72.78-.46.82-.27.86-.18.9-.23.92-.42.98-.64 1.11-.78 1.27-.76 1.35-.56 1.36-.31 1.93-.06 14.99 1.34-.68-.25-.78-.12-.91-.15-1.09-.19-1.15-.19-1.09-.18-.96-.14-.8-.1-.72-.06-.71-.01-.78.02-.88.01-.97-.02-1.01-.02-1.04-.02-1.1.02-1.32.01-2.1-.08" filter="url(#a)"/><path d="m-27.43-88.15 1.55-.84 1.26-.32 1.05.01 1 .12 1.03.1 1.07.03 1.11-.04 1.12-.09 1.12-.14 1.12-.17 1.11-.23 1.08-.27 1.06-.3 1-.29.98-.24.96-.13.96-.01.98.09 1.02.16 1.08.25 1.21.37 1.4.45 1.39.28.4-.05" filter="url(#a)"/><path d="m-1.37-89.41-.4-.05-1.4-.41-1.4-.55-1.24-.62-1.13-.71-1.1-.84-1.11-.97-1.13-1.1-1.16-1.13-1.18-.99-1.21-.71-1.21-.38-1.24-.15-1.26-.12-1.31-.25-1.37-.46-1.42-.68-1.45-.87-1.44-1.01-1.41-1.05-1.39-1.01-1.49-.96-1.82-.84-2.13-.05L-.44-89.25l-2.53.74-1.59.08-1.16.01-.98.13-.92.26-.9.32-.89.31-.9.26-.93.23-.96.25-1 .31-1.02.37-1.01.43-1 .49-.98.53-.96.6-.92.64-.86.66-.76.59-.57.4-.6.21" filter="url(#a)"/><path d="m-4.87-89.26 1.37.41 1.51.61 1.32.74 1.21.77 1.12.64 1.05.48.99.47.95.55.91.6.85.51.73.41.54.47.38.68.43.82.8.89" filter="url(#a)"/><path d="m-10.3-88.19-1.11-5.88-.8.85-.87 1.82-.99 1.38-1.08.75-1.14.2-1.21-.23-1.27-.56-1.31-.75-1.3-.82-1.27-.79-1.23-.71-1.23-.66-1.24-.62-1.27-.55-1.29-.39-1.34-.14-1.47.05-1.7-.08-1.76-.7-1.03-1.18 47.36 22.09-1.17-1.27-.9-.87-.65-1.02-.5-1.15-.49-.97-.59-.61-.73-.32-.84-.24-.92-.36-.97-.59-1.02-.79-1.08-.87-1.14-.75-1.19-.48-1.22-.13-1.22.16-1.17.28-1.1.2-1.04-.03-.99-.27-.97-.37-.92-.47-.95-.92-1.27-1.13" filter="url(#a)"/><path d="M-19.88-85.58h-.54l-1.02-.02-1.07-.48-1.12-.63-1.15-.48-1.17-.27-1.24-.16-1.32-.11-1.41-.05-1.47-.05-1.54-.14-1.62-.43-1.7-.86-1.8-1.27-1.89-1.46-2.01-1.35-2.18-1.03-2.13-.93-1.07-1.75L1.7-87.54l-1.92-.34-1.39-.1-1.38.01-1.3.03-1.17.02h-1.05l-.98.01-.94.02-.93.05-.91.09-.93.15-.97.2-1.02.24-1.05.23-1.06.21-1.06.2-1.06.25-1.06.3-.84.29-.1.12-27.44-7.5 2.6-1.2 1.89-.5 1.53.24 1.59.95 1.78 1.31 1.91 1.37 1.96 1.3 1.94 1.17 1.82.96 1.64.7 1.42.44 1.23.2 1.11.08 1.03.12.98.34 1.04.4 1.97-.38" filter="url(#a)"/><path d="m-19.42-85.56-1.74 1.28-.7.94-.71.66-.85.48-.96.36-1.03.34-1.08.41-1.11.52-1.08.67-1 .81-.9.93-.79 1.01-.72 1.04-.69 1.04-.71.98-.73.91-.74.84-.7.82-.63.87-.57.92-.57.96-.61.9-.7.78-.52.61m107 51.39-1.93-1.99-2.02-1.25-1.41-1.03-.68-1.14-.13-1.31.09-1.38.03-1.35-.18-1.27-.51-1.15-.89-.93-1.23-.68-1.41-.48-1.28-.44-.96-.51-.87-.24-1.5 1.39L72.82 5.97l-.63-.46-.45-1.25-.3-1.34-.22-1.22-.15-1.19-.15-1.27-.2-1.41-.29-1.49-.36-1.47-.38-1.4-.34-1.32-.26-1.27-.21-1.26-.19-1.21-.22-1.11-.28-.97-.25-.76-.2-.66-.29-2.52.06-1.94.28-1.66.22-1.55.01-1.48-.2-1.41-.35-1.37-.4-1.36-.38-1.35-.32-1.34-.22-1.31-.17-1.27-.15-1.22-.19-1.2-.25-1.19-.31-1.22-.37-1.28-.4-1.31-.41-1.32-.41-1.3-.35-1.33-.3-1.34-.32-.9m-84-37.41-2.15-8.35.23-3.41.89-1.29 1.2-.02 1.33.37 1.26-.05 1.12-.79 1.04-1.45 1-1.79.98-1.88.93-1.82.84-1.77.76-1.78.73-2.2.38-4.82m-13.14 32.09-1.04.34-.76.39-.98.56-1.16.64-1.19.63-1.14.62-1.04.62-.94.61-.85.59-.85.59-.9.62-.95.63-.92.59-.81.52-.9.65-1.63 1.36 16.06-9.96-1.06.27-.84.17-1 .51-1.14.73-1.15.76-1.11.71-1.04.64-.97.55-.91.5-.91.49-.94.52-.98.54-.97.49-.91.44-.91.42-.91.41-.32-.08" filter="url(#a)"/><path d="m-25.74-82.71 1.38-1.05 1.06-.79.86-.52.81-.46.85-.48.91-.56.95-.65.96-.79.96-.93.96-1.02.98-.99.99-.86 1.01-.68.99-.53.98-.45.95-.51.95-.69.94-.9.95-1.01 1.01-.91 1.23-.58 1.75-.27 2.82-.59-58.52 10.3 1.56.72 2.02.62 1.84.38 1.6.06 1.32-.36 1.09-.72.96-.85 1.03-.64 1.25-.11 1.59.59 1.88 1.21 2.06 1.53 2.01 1.46 1.8 1.06 1.53.56 1.3.13 1.22-.13 1.23-.3 1.26-.53 1.28-.72 1.37-.46 1.41.68.66 1.74.6-3.76 1.15-.52.97-.23.78-.7.73-1.14.74-1.43.78-1.63.81-1.78.85-1.79.91-1.63 1-1.31 1.08-.95 1.1-.74 1.07-.81.96-1.2.88-1.81.87-2.31.95-2.35.9-1.95-.14-2.19-16.37 29.54-1.63.65-1.69.33-1.58-.01-1.41-.01-1.25.12-1.13.23-1.07.28-1.05.35-1.05.4-1.05.42-1.07.37-1.1.28-1.1.23-1.11.23-1.07.32-1.02.45-.95.61-.89.75-.86.83-.9.78-1.02.52-1.13.14-.91.3-12.9-13.3 3.27.64 2.54.98 2.14.78 1.74.22 1.34-.38 1.07-.79 1.01-.83 1.18-.44 1.48.18 1.75.75 1.86 1.01 1.78.89 1.58.51 1.37.05 1.18-.3 1.09-.41 1.12-.22 1.3.25 1.56.85 1.79 1.22 1.81 1.05 1.7.35 1.91-.59" filter="url(#a)"/><path d="m-26.49-82.36-1.8.82-1.54.01-1.75-.97-1.94-1.6-1.86-1.58-1.7-1.25-1.68-1.01-1.81-1.02-1.88-1.05-1.74-.78-1.4-.21-1.11.35-1.05.51-1.3.11-1.99-.87-3.41-2.59 25.71 12.33 2.98 3.1 1.48.75.77-.61.61-1.06.66-.89.76-.46.86-.01.94.3 1.01.49 1.08.52 1.09.46 1.07.45 1.03.67 1.07 1.34 1.31 2.47" filter="url(#a)"/><path d="m-28.74-81.16 1.4-2.01.3-3.23.13-2.97.55-1.56.96-.25 1.11.26 1.05.02.91-.65.78-1.44.69-2.2.62-2.82.6-3.23.64-3.29.79-2.94 1.03-2.23 1.24-1.43 1.32-1.03 1.44-1.57-16.91 33.36-.79-.1-1.52-.52-1.46-.71-1.23-.42-1.07.07-.99.51-.94.75-.94.65-1.08.25-1.35-.33-1.6-.81-1.66-.85-1.44-.31-1.03.53-.69.6" filter="url(#a)"/><path d="m-30.05-80.66-1.46 1.94-.87.88-.67.63-.7.73-.75.91-.71 1.03-.62 1.08-.52 1.11-.47 1.13-.47 1.12-.5 1.06-.58.95-.61.88-.52 1-.24 1.3.24 1.6m9.45-17.35.45-.16 1.09-.56 1.2-.66 1.08-.62.97-.54.9-.5.87-.46.86-.44.85-.41.86-.42.91-.43.95-.44.98-.44 1.01-.42 1.03-.38 1.06-.35 1.11-.32 1.15-.34 1.12-.35 1.25-.43M90.54 9.62l-2.59-1.67-1.58-1.35-1.49-1.51-1.64-1.53-1.72-1.45L79.8.71 78.22-.74l-1.31-1.54-.92-1.62-.6-1.59-.52-1.5-.69-1.37-.99-1.25L72-10.78l-1.15-1.12-.93-1.05-.68-.98-.55-.95-.66-1.12-.76-1.92" filter="url(#a)"/><path d="m-45.28-68.36 1.17-1.13.84-.8.77-.74.78-.72.78-.7.78-.68.77-.66.77-.62.76-.61.78-.59.88-.62.99-.68 1-.67.75-.48.35-.06-.35.2.13 5.17-.93 1.28-.9.38-.88.21-.93.18-.9.29-.78.55-.62.85-.48 1.12-.34 1.35-.17 1.6-.01 1.82.07 1.97v1.93l-.21 1.65-.47 1.23-.5.79-.05.54.58.96" filter="url(#a)"/><path d="m-66.98-73.92 3.06.57 2 .2 1.3-.81.87-1.35.75-1.3.98-.86 1.4-.27 1.82.25 1.99.48 1.87.35 1.55-.05 1.2-.47.99-.7.97-.66 1.1-.37 1.32.05 1.51.47 1.61.77 1.55.82 1.27.6 1.01.26 1.46-.6m16.88-3.16-.7-.79-.96-.08-.88-.01-.92-.12-1-.17-1.05-.13-1.08.01-1.11.19-1.14.37-1.14.51-1.11.62-1.02.68-.93.66-.87.59-.86.5-.96.51-1.09.67-1.05.65-.47-.54" filter="url(#a)"/><path d="m-71.17-71.27 1.2.87 1.31-.18 1.42-.63 1.54-.7 1.69-.53 1.78-.34 1.73-.32 1.49-.53 1.15-.85.93-1.06.95-.97 1.18-.65 1.47-.26 1.61-.04 1.52-.12 1.24-.48.91-.92.74-1.1.99-.57 1.71.77 2.52 2.37 2.64 2.53 2.05-.18" filter="url(#a)"/><path d="m-55.67-61.44 1.11-1.19 1.03-.56 1.2-.52 1.2-.58 1.06-.59.94-.62.88-.71.87-.82.85-.87.85-.86.85-.77.87-.68.89-.6.9-.58.87-.61.82-.65.63-.53.04.13.7-.56-.54-1.67.32-1.58.87-.51.98-.39.86-.85.64-1.4.45-1.84.36-2.05.42-2.03.6-1.86.79-1.66.94-1.47 1.03-1.34 1.05-1.24.99-1.26.88-1.44.74-1.75.61-2 .58-1.98.65-1.7.76-1.37.69-1.28.4-1.68m-15.07 34.35-1.11 1.06-.92.88-.8.8-.75.8-.75.82-.75.84-.77.88-.8.91-.79.92-.76.92-.73.89-.73.9-.74.93-.78.99-.79 1.03-.78 1.08-.77 1.19-.72 1.32-.4 1.09" filter="url(#a)"/><path d="m-40.37-72.4-.86.93-.58 1.03-.47 1.2-.48 1.21-.55 1.15-.6 1.11-.59 1.17-.5 1.27-.39 1.35-.32 1.41-.26 1.44-.21 1.51-.12 1.63.01 1.78.12 1.9.17 1.91.07 1.75-.12 1.48-.37 1.19-.5 1.11-.37 1.31.15 1.5.64.68 4.52-29.7-1.22.44-1.72-.57-1.69-.52-1.39.03-1.09.6-.97.82-1.1.65-1.38.26-1.64-.03-1.76-.07-1.72.1-1.65.31-1.54.5-1.39.68-1.15.92-.94 1.11-1.01 1.07-1.59.81-2.34.74-1.95 1.34 29.24-9.19.73-.31.92-.46.93-.41.91-.35.96-.2 1.06.03 1.18.24 1.27.32 1.25.29 1.18.19 1.08.12 1.03.08h1.04l1.07-.1 1.16.01 1.49.45 2.04.67-20.32.85-.08-2.58.77-.86.68-1.01.53-1.23.51-1.21.58-1.09.63-1.04.66-1.09.67-1.22.64-1.37.58-1.51.54-1.59.57-1.54.72-1.36.93-1.21 1.09-1.23 1.21-1.51 1.37-1.86 1.37-2.22-27.02 54.32.41-1.23.57-1.47.43-1.33.35-1.14.38-1.05.45-1.07.48-1.16.46-1.23.43-1.3.42-1.33.44-1.35.49-1.33.55-1.28.6-1.21.64-1.14.64-1.09.61-1.07.61-1.07.64-1.09.71-1.09.73-1.05.72-.97.71-.91.58-.63" filter="url(#a)"/><path d="m-81.91-62.84 2.71-1.6 2.8-.21 2.25.04 1.7-.3 1.37-.71 1.41-.76 1.73-.44 2.12.02 2.36.31 2.36.34 2.12.09 1.76-.24 1.4-.6 1.07-.9.76-1.21.49-1.48.36-1.65.47-1.56.85-1.14 1.34-.43 1.78.39 2.14 1.15 3.56 4.07" filter="url(#a)"/><path d="m-29.56-109.32 1.08 2.02-.43 1.36-.7 1.88-.64 2.31-.7 2.28-.89 1.9-1.12 1.38-1.26.99-1.25.86-1.08 1.04-.8 1.45-.54 1.9-.33 2.27-.26 2.36-.35 2.14-.57 1.62-.84.92-1.08.34-1.16.11-.93.49-.35 1.6.41 2.99.66 3.45-.31 2-8.36 27.25-.04-1.58.16-.88.17-.95.17-1.23.23-1.34.32-1.31.4-1.24.44-1.22.43-1.27.39-1.37.34-1.47.3-1.54.3-1.5.33-1.41.38-1.29.44-1.23.49-1.28.55-1.33.59-1.24.64-1.08 1.03-1.23 10.53-23.14-.74 1.69-.86 1.25-1 .93-.85.97-.68 1.17-.62 1.32-.66 1.36-.68 1.33-.63 1.3-.53 1.36-.44 1.42-.42 1.44-.45 1.38-.49 1.3-.47 1.32-.41 1.36-.34 1.33-.26.91" filter="url(#a)"/><path d="m-28.93-114-1.03 2.55-.68 3.51-.82 2.36-1.03 1.43-1.1 1.34-1.04 1.74-.92 2.12-.82 2.21-.79 2-.79 1.7-.78 1.45-.73 1.42-.65 1.54-.55 1.7-.53 1.71-.62 1.44-.82.96-1 .54-.99.51-.66 1.11-.05 2.21.58 3.23.78 3.33.67 2.49-1.59 1.62-.48.3-1.12.41-1.1.69-.92.77-.92.67-1.05.54-1.18.5-1.22.56-1.14.71-.99.91-.85 1.06-.76 1.16-.75 1.15-.82 1.09-.94.97-1.04.82-1.07.65-1.05.54-1.05.64-1.31 1.03-2.17 1.35" filter="url(#a)"/><path d="m-44.89-67.78-.2.69-.69.98-.7 1.21-.46 1.33-.29 1.38-.32 1.34-.51 1.21-.69 1.08-.73 1.04-.66 1.11-.54 1.23-.42 1.32-.35 1.35-.34 1.35-.33 1.39-.29 1.41-.18 1.26v.87l-.11.62 7.81-22.17-.05.93-.7.99-.85 1.01-.76.95-.63.96-.59 1.05-.61 1.12-.66 1.15-.7 1.14-.72 1.12-.71 1.1-.68 1.11-.65 1.12-.59 1.14-.55 1.16-.49 1.17-.44 1.13-.43 1.08-.45 1.09-.49 1.16-.43 1.17-.08.82.69-.18 11.57-23.49-.05.89-.21 1.63-.47 1.53-.59 1.16-.53 1.03-.41 1.16-.34 1.37-.33 1.46-.38 1.43-.45 1.33-.48 1.27-.4 1.28-.27 1.35-.16 1.46-.15 1.55-.3 1.5-.43 1.06.18.24" filter="url(#a)"/><path d="m-44.88-67.41-1.6-3.71 1.07-.32 1.31-.03 1-.45.75-.86.61-1.08.51-1.26.4-1.46.3-1.64.28-1.7.4-1.57.62-1.31.8-1.19.73-1.34.33-1.72-.09-1.91.24-1.03-7.66 22.58-.94 1.02-.93 1.29-.66 1.15-.44 1.14-.37 1.28-.42 1.35-.54 1.32-.63 1.21-.69 1.14-.65 1.13-.55 1.19-.41 1.3-.26 1.41-.17 1.47-.14 1.44-.17 1.34-.23 1.23-.29 1.16-.33 1.12-.32 1.07-.27.97-.2 1.02-.12 1.55.02 2.69 8.87-30.46.75 4.44-.23 1.77-.37.99-.66.73-.87.69-.86.83-.66 1.07-.39 1.37-.15 1.59v1.7l.08 1.73.13 1.72.13 1.69.13 1.6.06 1.39-.08 1.1-.24.99-.32 1.34-.32 2.09" filter="url(#a)"/><path d="m-45.72-66.88.39-.91.4-1.08.6-.99.7-.92.74-.86.77-.79.79-.74.81-.7.79-.71.75-.79.71-.89.69-1.01.69-1.08.71-1.07.76-.99.8-.85.86-.75.92-.75 1-.81 1.1-.91 1.27-1 1.48-1.14 1.52-1.27" filter="url(#a)"/><path d="m-45.72-66.88.59-.6.57-.79.59-.99.52-1.2.41-1.4.39-1.45.46-1.34.57-1.13.68-.93.74-.79.76-.78.77-.84.78-.94.81-1.01.79-1.03.7-.94.66-.88.9-1.05 1.8-1.55m-31.66 36.4-.27.61.37-.67.76-1.06.85-1.01.89-.84.98-.69 1.1-.61 1.16-.65 1.1-.76.95-.9.82-1.04.74-1.13.78-1.09.91-.97 1.05-.81 1.14-.72 1.06-.66.8-.53.51-.38.93-.98M67.13-20.35l-.8.82v1.65l.31 1.6.27 1.35.05 1.19-.21 1.17-.39 1.2-.43 1.24-.34 1.25-.26 1.26-.26 1.28-.37 1.33-.47 1.42-.5 1.44-.39 1.34-.3 1.12-.44.91-.83.95-.85 1.41" filter="url(#a)"/><path d="m-48.17-98.77.08 3.38-.74 1.94-.42 1.96.07 2.63.38 3.12.4 3.11.26 2.77.09 2.41v2.2l-.08 2.07-.27 1.89-.6 1.58-.92 1.28-.54 1.25 2.6 2.91" filter="url(#a)"/><path d="m-71.5-47.89.56 1.19.97-.79 1.41-1.05 1.55-.76 1.47-.56 1.26-.6 1-.8.75-1.02.56-1.14.55-1.13.73-.99 1.02-.76 1.34-.48 1.53-.32 1.48-.36 1.23-.64.89-1.01.62-1.23.64-1.16 1.23-.92 2.49-1.38.03-.19.11-.58.51-.99.75-1.09.78-1.07.75-1.03.71-.96.72-.92.72-.87.73-.87.7-.9.69-.92.67-.93.66-.9.67-.81.7-.71.82-.69 1.16-.99 1.63-1.61" filter="url(#a)"/><path d="m-50.7-60.3 1.53-2.29.48-1.26.14-1.22.24-1.43.35-1.59.36-1.71.3-1.73.35-1.57.53-1.25.73-.92.81-.83.68-1.08.44-1.46.11-1.55-.73-1.25m-6.8 21.36-2.1.84-1.63.63-1.32.59-1.34.49-1.39.48-1.31.59-1.22.64-1.27.59-1.46.43-1.64.31-1.63.33-1.38.54-1.01.89-.71 1.18-.67 1.31-.89 1.21-1.27.95-1.65.73-1.97.66-2.24.73-2.61.8-2.92.83-2.77 1.02-1.6 1.59" filter="url(#a)"/><path d="m-52.66-58.11 1.2-.95.92-.55 1.08-.54 1.26-.38 1.26-.19 1.14-.17 1.05-.31 1.01-.44 1.05-.43 1.12-.25 1.26.08 1.41.42 1.48.6 1.32.53 1.2.77-17.76 1.81-5.28-3.31-.01 1.66.08 1.76-.97.9-1.78.22-1.99-.04-1.67.1-1.16.53-.79.95-.79 1.06-1.14.74-1.64.18-2.12-.12-2.77.19-3.96.82 25-3.66.96-1.75.72-1.44.52-1.4.51-1.39.62-1.23.71-1.01.75-.91.74-.95.71-1.05.67-1.16.61-1.22.59-1.24.58-1.21.6-1.15.66-1.05.71-.95.73-.93.7-.98.63-1.07.54-1.13.44-1.08.44-1.01 1.15-1.48" filter="url(#a)"/><path d="m-46.39-75.14.1 1.74-.28 1.62-.41 1.46-.58 1.35-.69 1.2-.76 1-.8.8-.86.72-.87.81-.8 1.03-.62 1.27-.44 1.49-.32 1.71-.14 1.96.11 1.62M63.72-2.46V-4.3l.32-1.26.45-1.14.48-1.17.44-1.23.4-1.24.34-1.2.3-1.17.27-1.17.23-1.28.13-1.44v-1.58l-.12-1.53-.15-1.25-.32-1.27M-57.28-49.78l-1.47-3.89.66-1.86.53-1.53.11-1.75-.12-2.03-.11-2.13.05-2.03.24-1.89.29-1.88.09-2.14-.36-2.62-.84-3.11-1.02-3.43-.63-3.45-.19-3.63-1.54-5.35 4.31 42.72-.02-.22-.35.79-.55 1.14-.56 1.14-.52 1.08-.48 1.09-.48 1.14-.48 1.18-.47 1.19-.48 1.16-.48 1.16-.51 1.22-.55 1.31-.56 1.38-.54 1.41-.48 1.33-.41 1.19-.32 1.05-.26 1.04-.27 1.26 9.1-22.94-.74 1.05-1.97.42-2.35-.05-1.75.16-1.08.66-.9.96-1.14.91-1.47.69-1.61.55-1.56.62-1.43.83-1.38 1.08-1.45 1.22-1.67 1.18-1.96.96-2.31.54-2.49.16-1.26.8" filter="url(#a)"/><path d="m-88.82-37.3 2.51-.69 2.35-.42 1.74-.69 1.64-.89 1.82-.98 1.97-.97 2-.92 1.91-.8 1.75-.7 1.59-.64 1.47-.66 1.42-.71 1.41-.7 1.43-.53 1.5-.27 1.7-.13 1.9-.41 1.47-1.13" filter="url(#a)"/><path d="m-58.07-47.95-1.02 1.49-.68.67-.98.47-1.71.32-2.43.02-2.76-.21-2.58-.14-2.1.24-1.59.75-1.22 1.2-1.04 1.44-1 1.49-1.14 1.32-1.59.91-2.29.39-2.71.21-1.71 1m42.17-22.44-2.07 1.52-1.25.69-.91.68-.72.93-.64 1.07-.69 1.02-.83.84-.99.68-1.1.6-1.1.56-.99.54-.86.59-.77.79-.77 1.13-.83 1.34-.81.97" filter="url(#a)"/><path d="m-58.78-46.11-2.47 1.39-.59 2.01-.33 1.47-.62.99-.99.83-1.23.87-1.25 1-1.11 1.13-.93 1.19-.82 1.14-.84 1.02-.92.86-.96.77-.86.81-.71 1.02-.64 1.33-.77 1.64-1.07 1.69-1.12 1.03.08-.34 16.86-19.3-2.08 1.24-.34 1.21-.19 1.02-.4 1.08-.55 1.25-.6 1.36-.64 1.38-.69 1.28-.7 1.15-.7 1.01-.6.94-.48.94-.37 1.03-.33 1.16-.39 1.33-.53 1.46-.66 1.46-.7 1.32-.63 1.16-.5 1.22-.66 1.07M51.56-38.98l.79.36.85.68.87.71.82.77.7.89.59.98.61.95.77.8.94.65 1.02.58 1 .61.95.72.95.83.98.95.92 1.06.76 1.11.66 1 .59.87" filter="url(#a)"/><path d="m-89.35-11.39 1.94-.87 1.48-1.6 1.26-1.7 1.26-1.54 1.47-1.33 1.64-1.2 1.56-1.17 1.25-1.24.88-1.37.64-1.49.58-1.5.63-1.46.6-1.37.38-1.34.09-1.33-.04-1.3.2-1.18.84-.96 1.62-.74 2.19-.61 2.37-.64 2.25-.78 1.88-1.13 1.19-1.75m-1.7 4.83-.54.76-.52 1.43-.47 1.39-.4 1.21-.34 1.06-.32.98-.33.97-.35 1.05-.35 1.18-.35 1.31-.31 1.4-.29 1.42-.27 1.38-.25 1.33-.23 1.3-.23 1.29-.21 1.32-.22 1.35-.22 1.41-.22 1.42-.2 1.37-.17 1.22-.17 1.06-.13.91L-64.52-32l.69-1.5.66-1.55.64-1.42.6-1.26.51-1.13.47-1.09.47-1.11.51-1.14.53-1.13.53-1.08.55-1.03.58-.99.62-.94.65-.88.65-.84.67-.86.72-.98.77-1.1.72-.99.71-.82-12.66 23.57-.09 1.27-.13 1.03-.19 1.01-.28 1.19-.32 1.4-.31 1.5-.24 1.46-.14 1.37-.07 1.31-.01 1.29v1.3l-.02 1.32-.04 1.35-.09 1.37-.11 1.36-.12 1.31-.08 1.2v1.13l.1 1.19.22 1.56" filter="url(#a)"/><path d="m-64.93-30.27-.83-1.09-1.18-2.04-.83-2.22-.29-2.04.08-1.81.14-1.69v-1.66l-.1-1.67-.14-1.72-.13-1.77-.12-1.8-.12-1.8-.14-1.8-.21-1.9-.43-2.12-.79-2.42-1.16-2.72-1.23-2.89-.75-2.91.03-2.67.22-1.22m138.9 46.64.44 1.34.42 1.48.38 1.43.37 1.44.36 1.48.35 1.46.37 1.35.45 1.25.55 1.16.62 1.15.68 1.16.71 1.21.7 1.26.66 1.34.56 1.43.45 1.55.37 1.61.39 1.54.53 1.33.71 1.12.7 1.22.36 1.81L80.81.82l-.3-1.32-.73-2.1-.96-2-.94-1.68-.95-1.44-1.04-1.3-1.12-1.23-1.09-1.18-.97-1.16-.81-1.14-.62-1.19-.51-1.27-.5-1.36-.59-1.41-.7-1.41-.75-1.35-.7-1.32-.61-1.28-.57-1.1-.34-.67-.93-2.46-.42-1-.49-1.2-.56-1-.58-.87-.65-.8-.79-.73-.95-.68-1.05-.69-1.04-.75-.96-.8-.9-.81-.92-.73-1.03-.6-1.12-.49-1.14-.44-1.1-.42-1.07-.31-1.07-.07-.92-.63 16.73 12.34-.35 1.34.26 1.35.34 1.28.2 1.34-.07 1.45-.39 1.56-.65 1.65-.75 1.67-.66 1.61-.48 1.47-.28 1.32-.14 1.21-.06 1.14-.04 1.13-.06 1.14-.17 1.16-.3 1.2-.44 1.27-.54 1.37-.61 1.47-.67 1.42-.48 1 .34.32m6-29.87-.4-1.86-.14-1.26-.1-1.07-.22-1.02-.36-1-.43-1.03-.44-1.12-.43-1.22-.37-1.28-.29-1.32-.24-1.33-.2-1.32-.22-1.3-.29-1.27-.34-1.28-.23-1.15.53.01" filter="url(#a)"/><path d="m64.01-32.58.14-1.92.09-1.41-.18-1.2-.01-1.47.32-1.79.47-1.91.35-1.8.07-1.6-.2-1.39-.37-1.27-.43-1.21-.42-1.19-.37-1.22-.27-1.35-.15-1.62-.08-1.96-.15-2.19-.31-2.14-.24-1.79.1-1.22" filter="url(#a)"/><path d="m63.48-34.36.54 1.09 1.1.55 1.86.43 2.48.42 2.72.46 2.39.63 1.65.96.87 1.29.5 1.52.71 1.54L79.59-24l1.86 1.36 2.1 1.34 1.9 1.35L87-18.64l1.41 1.2 1.49 1.09 1.5 1.1 2.81 1.29-31.46-22.52.42 1.84.34 1.3.29 1.1.23 1.16.16 1.32.09 1.42.06 1.44.03 1.43v1.41l-.08 1.43-.18 1.47-.25 1.51-.25 1.57-.18 1.63-.07 1.56-.07 1.15-.39.35" filter="url(#a)"/><path d="m62.75-36.48.07.16-.36-1.23-.29-1.49-.18-1.49-.11-1.45-.12-1.4-.2-1.32-.29-1.25-.32-1.19-.32-1.2-.27-1.24-.26-1.33-.31-1.43-.41-1.53-.51-1.6-.52-1.58-.42-1.48-.28-1.3-.27-1.14-.42-1.04" filter="url(#a)"/><path d="m89.53-9.9-2.07-.85-1.37-1.52-1.1-1.47-.92-1.35-.76-1.3-.85-1.31-1.21-1.3-1.64-1.28-1.93-1.24-1.95-1.2-1.77-1.2-1.46-1.22-1.18-1.24-.94-1.28-.74-1.33-.54-1.38-.38-1.41-.35-1.34-.5-1.15-.77-.9-.89-.76-.81-.69-1.06-.55-2.39-1.1-1.53-3.69 1.9.68 2.82-.15 1.79.5.59 1.17.3 1.26.68.99 1.18.69 1.46.59 1.5.68 1.58.82 1.89.84 2.4.74 2.76.63 2.54.75 1.73 1.21 1.33 1.75 3.56 1.4" filter="url(#a)"/><path d="m58.27-77.15-.39 3.54-.29 3.44.24 2.45.72 1.43.84.93.57 1.02.08 1.45-.35 1.98-.59 2.36-.58 2.56-.42 2.5-.18 2.22.01 1.72.14 1.2.26.96.87 1.91-1.78-3.47 1.33 2.22.68 1.33.54 1.07.55 1.02.57 1.03.58 1.08.57 1.13.57 1.16.57 1.12.56 1.06.53.97.5.93.48.9.52.88.65 1.03.93 1.67" filter="url(#a)"/><path d="m57.42-48.95 1.67 1.96 1.5.73 1.28.53 1.04.69.73.95.5 1.18.45 1.28.6 1.21.84 1.06.95.88.94.8.86.77.82.74.72.61.66.58" filter="url(#a)"/><path d="m57.28-49.28.58 1.14.23.87.33 1.04.43 1.07.49 1.06.47 1.06.43 1.11.4 1.15.38 1.23.35 1.28.31 1.28.28 1.21.25 1.07.27 1.15.29 1.61m-6.87-20 1.12 1.42 1.03.73 1.22.3 1.65-.05 2.15-.32 2.42-.4 2.36-.24 2.12.03 1.91.28 1.85.44 1.82.59 1.69.84 1.72.99 2.64.21 4.82-3.11M32.53-60.57l.55-1.44.75-.01.93.56 1.06.5 1.12.17 1.16-.15 1.16-.29 1.15-.23 1.11-.02 1.06.21 1.03.35 1.05.38 1.12.37 1.16.4 1.15.5 1.06.69.92.83.78.91.59.94.28 1.09-.16 1.38-.1 1.17 3.1-2.17m0 0 1.48-2.48.23-1.34-.33-.94-.54-.89-.5-1.16-.26-1.7.03-2.24.14-2.46v-2.2l-.33-1.69-.57-1.31-.54-1.46-.23-2.07.1-2.7.16-2.74.1-1.88 1.05-.07" filter="url(#a)"/><path d="m54.03-54.97-.22-.75-.24-1.06-.05-1.46.33-2.17.65-2.83.64-2.96.18-2.45-.47-1.55-1.04-.75-1.32-.37-1.23-.5-.88-.97-.42-1.58.02-2.14.32-2.57.44-2.82.3-2.84-.03-2.62-.45-2.19-.71-1.79-.62-1.78-.27-2.37.01-3.24.14-2.87 25.94 63.4-1.41-1.37-1.01-.99-1-.88-.94-1.03-.92-1.13-.97-1.07-1.06-.95-1.12-.84-1.14-.77-1.13-.71-1.11-.67-1.09-.63-1-.65-.84-.78-.63-1.09-.53-1.45-.88-1.47-1.97-.61-2.27.32" filter="url(#a)"/><path d="m54.03-54.97-.21-.75-.28-.99-.28-1.17-.23-1.44-.05-1.93.23-2.49.44-2.81.39-2.69.05-2.16-.42-1.51-.76-1.09-.81-1.1-.53-1.47-.08-2.02.35-2.51.52-2.78.31-2.76-.26-2.52-.89-2.22-1.08-2.09-.68-1.75 4.12 39.74.23.73.52 1.26.57 1.59.38 1.7.12 1.66-.05 1.56-.13 1.46-.09 1.39-.02 1.32.07 1.28.13 1.23.15 1.24.11 1.26.06 1.33.03 1.39.05 1.38.13 1.18-.04.96-.74 1.59" filter="url(#a)"/><path d="m53.88-55.48.91.07.59 1.24.8 1.45 1.13 1.11 1.42.64 1.54.33 1.46.31 1.25.48 1.04.7.95.83.99.88 1.05.88 1.06.92 1 1 .92 1.07.92 1.09 1.03.99 1.2.84 1.34.71 1.35.68 1.23.79 1.09 1.01 1.07 1.24 1.29.9" filter="url(#a)"/><path d="m53.88-55.48 3.26-2.31 1.91-.07.67 1.63.39 1.89.45 1.59.61 1.18.89.83 1.24.51 1.58.31 1.72.24 1.65.37 1.38.62 1.11.9 1 1.1 1.09 1.13 1.35 1.03 1.53.75 1.51.39 2.07.47-25.41-12.56.34.6.71 1.05.83 1.36.79 1.39.66 1.24.57 1.07.51.96.51.94.51.97.52 1.01.5 1.04.49 1.07.48 1.08.47 1.07.44 1.03.36.95L49.42-92l-1.13 1.47.07 1.77.44 2.25.31 2.62.19 2.44.32 1.78.54 1.15.62.97.51 1.24.24 1.73.02 2.11-.08 2.24-.05 2.16.06 2.02.24 1.88.44 1.74.54 1.59.41 1.48.08 1.48.16 1.23" filter="url(#a)"/><path d="m52.52-57.18-.3-1.14-.31-1.58-.47-1.74-.46-1.74-.3-1.78-.14-1.86-.1-1.88-.18-1.8-.27-1.71-.24-1.74-.06-1.93.16-2.18.21-2.33-.03-2.2-.49-1.85-.9-1.47-.97-1.28-.62-1.45-.21-2.19-.57-4.25 29.42 38.62-.63-.42-1.45-.46-1.24-.71-1.19-.62-1.64-.26-2.28.11-2.71.32-2.7.27-2.28.05-1.62-.32-.87-.79-.19-1.34.16-1.64-.44-1.01-2.41.94-3.89 1.79m-1.24-1.67.48 2.37.96 1.29.85.89.63.85.46.92.36 1.03.38 1.12.45 1.22.5 1.32.49 1.41.37 1.43.19 1.42v1.4l-.12 1.39-.14 1.41-.07 1.38v1.37l.11 1.86-6.73-25.37-1-.69-1.13-.68-1.17-.51-1.09-.36-.96-.23-.89-.16-.9-.2-.97-.31-1.07-.35-1.14-.3-1.15-.2-1.11-.14-1.1-.11-1.18-.05-1.36.06-1.52.11-1.6-.06-1.48-.55 20.82 4.73-.02.77.42 1.4.63 1.5.51 1.57.3 1.54.17 1.44.07 1.35-.07 1.41-.24 1.6-.37 1.86-.35 2.02-.19 2.01-.08 1.84-.25 1.69-.73 1.44-.64-.14" filter="url(#a)"/><path d="m31.56-89-.63.3.67 1.08.88 1.16.81 1 .76.87.79.84.9.85 1.02.85 1.07.87 1.05.92.96 1.01.83 1.12.75 1.23.68 1.35.63 1.44.56 1.46.47 1.37.4 1.19.42.99.56.9.76.91.9 1.05.7 1.8-15.62-17.57.35.51.54.48.68.56.86.76.98.93 1.01 1.05.97 1.04.91.97.89.87.9.8.92.83.91.92.81 1.01.64 1.01.49.9.45.76.58.75.77.85.76.83L73.26-51.1l-1.82-1.23-1.67-.51-1.53-.48-1.24-.62-.96-.84-.85-.99-.98-1.01-1.2-.93-1.34-.83-1.3-.77-1.16-.74-1.04-.71-1.04-.6-1.16-.47-1.31-.38-1.42-.4-1.36-.54-1.16-.76-.9-.92-.7-.96-.73-.9-1-.75-1.83.45-21.35-18.43 1.6.8 1.32.88.93.68.78.56.81.54.83.57.82.6.81.64.81.7.87.75.94.81 1 .83 1.01.84.98.83.92.84.87.88.87.95.91 1.01.89 1.02.78.89.53.61.33.4.96 1.03L55.6-47.84l-.22-1.17-.66-1.61-.72-1.45-.65-1.18-.57-.98-.5-.92-.48-.97-.51-1.05-.55-1.14-.61-1.2-.67-1.2-.7-1.14-.71-1.05-.71-.97-.73-.94-.77-.95-.77-.96-.69-.93-.49-.74-.22-.42-.36-.52-2.67-2.9-.2-2.37.13-2.07-.48-1.06-1.01-.55-1.18-.64-1.08-1.03-.84-1.47-.58-1.8-.4-1.94-.38-1.82-.49-1.52-.67-1.19-.75-1.05-.71-1.19-.66-1.48-.81-1.66-1.18-1.67-1.48-1.6-1.57-.9" filter="url(#a)"/><path d="m39.31-73.55-.42-.24-.5-.71-.65-1.28-.69-1.68-.71-1.79-.72-1.62-.76-1.25-.79-.9-.79-.72-.78-.77-.73-.97-.66-1.23-.61-1.5-.62-1.72-.73-1.9-.91-1.96-1.03-1.92-.96-1.83-.56-1.95.05-2.23" filter="url(#a)"/><path d="m39.31-73.55-.03-.96-.12-1.4-.47-1.66-.65-1.79-.82-1.58-.96-1.13-1.01-.73-.94-.56-.84-.6-.77-.77-.72-1.01-.63-1.29-.46-1.65-.33-2.06-.45-2.48-.94-2.63-1.62-1.34" filter="url(#a)"/><path d="m65.79-74.71-3.57.3-2.51-.07-2.1.26-2.05.64-2.01.7-1.74.24-1.26-.51-.8-1.08-.57-1.12-.66-.66-.91-.07-1.27.3-1.86.59-2.68 1.11-2.49.53-.71-.32 1.11.35 1.44.65 1.34.73 1.16.51 1.05.26 1.01.14 1.02.22 1.03.37 1.05.51 1.03.61 1 .71.95.82.95.92.98.97 1.05.93 1.09.86 1.04.79.91.78.8.78.8.76.99.69 1.37.73 1.84 1.04 2.09 1.65-26.37-16.14-1.76-1.61-1.27-.99-1.18-.87-1.09-.8-.95-.68-.83-.53-.79-.45-.82-.41-.86-.42-.85-.45-.82-.45-.83-.48-.98-.55-1.26-.65-1.45-.67-1.38-.57 41.46 20.29-.45-.68-.89-.35-1.06-.33-1.1-.46-1.12-.61-1.16-.78-1.15-.9-1.11-.97-1.09-.91-1.12-.73-1.24-.45-1.4-.16-1.53.07-1.51.17-1.37.1-1.13-.11-.91-.39-.83-.66-.94-.81-1.12-.77-1.22-.46-.92.05.03.43" filter="url(#a)"/><path d="m34.82-76.71-1.1-1.49-.63-1.31-.25-1.61-.17-1.91-.29-1.9-.47-1.66-.62-1.42-.75-1.2-.92-.97-1.1-.73-1.23-.58-1.24-.58-1.1-.78-.91-1.1-.75-1.37-.72-1.42-.86-1.23-1.07-.98-1.2-1.1-1.05-1.81-.96-2.15 15.98 25.88-.21-2.38-.22-1.12-.59-.57-.88-.33-.99-.3-.97-.36-.94-.45-.98-.58-1.03-.72-1.08-.83-1.06-.88-.99-.84-.88-.8-.78-.81-.75-.9-.8-1.07-.94-1.32-1.05-1.6-.81-1.45" filter="url(#a)"/><path d="m17.47-73.64.05.13.78-.7.97-.83 1.14-.78 1.27-.61 1.31-.3 1.19.13.92.59.7.88.71.68 1.05-.1 1.47-1.16 1.61-1.75 1.14-1.3-.04-.47.96.46-1.05-.89-.92-.82-.88-.87-.81-.85-.8-.82-.87-.9-.94-1.09-.97-1.25-.93-1.29-.9-1.14-.87-.87-.88-.63-.91-.57-.94-.71-.94-.99-.92-1.27-.85-1.4-.81-1.38-.88-1.21-1.24-.98-1.86-.5 18.68 19.37 1.26-.45 1.02-.46 1.16.11 1.41.22 1.47.25 1.38.33 1.22.41 1.16.38 1.24.23 1.47.03 1.72-.16 1.91-.42 1.9-.77 1.6-1.08 1.06-.7 1.11 1.26-35.15-27.67 1.34.33 1.22 1.08 1.06 1.93.73 2.77.37 3.41.18 3.56.2 3.24.41 2.61.69 1.97.95 1.49 1.09 1.23.98 1.09.66.93.34.82.96 1.26" filter="url(#a)"/><path d="m29.33-80.6 1.73-.82.8.42.72.4 1.01.02 1.4-.37 1.72-.62 1.82-.63 1.7-.38 1.5-.03 1.35.24 1.38.24h1.58l1.85-.37 2-.67 1.92-.77 1.68-.63 1.46-.37 1.43-.1 1.54.21 1.52.73 1.46 1.48-9.44-2.3-1.82-2.02-1.63-.61-1.62.41-1.74.83-1.84.81-1.85.58-1.77.32-1.62.13-1.44.1-1.3.17-1.22.28-1.19.31-1.18.24-1.11.08-.94-.05-.84.04-1.12.24-2-.26m-1.46-.52-1.45.99-1.07.66-.71-.44-.67-.68-.83-.34-1.01.1-1.12.39-1.12.45-1.09.39-1.04.28-1.06.22-1.09.24-1.09.26-1 .25-.82.2-.62.13-.48.14-.62.5-1.11 1.15m-2.26-8.6.84-.08.98-.03h.97l.85.02.73.03.68.05.73.07.84.1.97.13 1.05.16 1.07.18 1.05.21 1.02.24 1.01.29 1.01.33 1.02.35.98.33.89.3.79.22.72.11.69.02-.79-.15-.51-.33-.75-.31-.87-.27-1-.28-1.05-.32-1.02-.32-.97-.3-.96-.24-1.03-.2-1.12-.18-1.16-.15-1.11-.13-.9-.07-.52-.01.17.04-3.51-22.49 1.27 1.83 1.2.91.98.95.73 1.31.57 1.74.61 1.84.79 1.54.99 1.19 1.05 1.16 1 1.51.87 1.9.79 1.93.8 1.63.9 1.41.93 1.54.76 1.58.1.53" filter="url(#a)"/><path d="m20.28-85.5-1.3-2.52-1.1-2.03-.91-1.43-.94-.66-1.03-.37-1.1-.46-1.1-.65-1.05-.69-.96-.59-.85-.47-.77-.45-.77-.51-.82-.67-.9-.86-1-1.07-1.07-1.22-1.14-1.28-1.22-1.27-1.3-1.29-1.23-1.46-.25-.97" filter="url(#a)"/><path d="m20.28-85.5-1.64-.91-1.21-1.3L16.5-89l-.88-.83-.98-.33-1.11-.12-1.13-.23-1.05-.49-.93-.66-.81-.65-.73-.51-.75-.35-.81-.27-.9-.32-.98-.42-1.05-.49-1.11-.52-1.15-.5-1.22-.48-1.15-.49-.24-.73 16.91 10.98 1.44 1.31 1.11.52.88.23.77.37.76.59.84.72.98.7 1.09.61 1.11.53 1.01.54.88.64.75.79.68.95.62 1.01.58.95.54.77.58.62.79.73 1 1.49-18.22-14.87 1.23-.43 1.61-1.88 1.67-1.91 1.32-.72.95.35.84.59.98.13 1.24-.49 1.51-.85 1.7-.86 1.78-.83 1.75-.97 1.59-1.18 1.43-1.06 1.75-.83 3.04-2.21" filter="url(#a)"/><path d="m15.02-87.28.14.09.77.09 1.08-.05 1.2-.19 1.14-.16h1.03l.93.24.91.42.98.49 1.09.45 1.2.33 1.28.15 1.31-.07 1.31-.3 1.34-.48 1.34-.58 1.31-.5 1.18-.31 1-.07.93.13 1.21.22h1.97m-24.65.1.21-.33.94-.83 1.57-2.17 1.87-3.06 1.75-2.64 1.35-1.27 1.02.02.97.42 1.23-.03 1.6-.8 1.88-1.22 1.91-1.06 1.7-.66 1.5-.63 1.6-1.25 2.27-1.99 3.38-2.68M11.13-88.09l1.61.7 1.16.55.91.43.88.45.91.56.9.75.85.9.77.96.73.96.73.94.76.94.81 1.03.81 1.2.75 1.42.61 1.63.48 1.7.44 1.57.54 1.21.71.72.76.37.43.43-.49.79" filter="url(#a)"/><path d="m8.91-88.53 1.5-2.26 1.57-2.1 1.37-.36 1.1.76.96.94.98.54 1.12-.02 1.27-.5 1.32-.8 1.29-.88 1.19-.78 1.1-.62 1.11-.56 1.31-.78 1.76-1.44 2.38-2.47" filter="url(#a)"/><path d="m8.91-88.53 1.17.33 1.22.39 1.21.47 1.09.52.97.48.93.4.95.38.98.39.96.45.89.49.8.54.73.6.72.69.81.82.99.97 1.31 1.14 1.87 1.21-17.6-10.27 1.04 1.57 1.25.32h1.28l1.15.06 1.04.16.98.25.99.3.99.35.96.41.9.46.87.52.85.57.89.61.97.65 1.03.67 1.05.7.99.7.89.68.83.64.84.64.91.69.9.75.95 1.05-23.3-12.87.11.06-.63-.03h-.93l-1.03.1-1.07.17-1.08.19L2.4-88l-1.16.13-1.22.15-1.25.19-1.26.24-1.23.29-1.17.33-1.08.37-.99.44-.92.54-.85.64-.81.73-.79.83-.8.92-.89.93-1 .79-1.13.47-1.2.22 47.76 1.72-1.11-.74-.99-.6-.97-.6-.88-.59-.87-.59-.95-.6-1.04-.6-1.1-.59-1.09-.54-1.02-.48-.96-.44-.91-.42-.91-.4-.93-.41-.97-.4-.99-.37-1-.34-1-.32-1.04-.3-1.13-.29-1.2-.29-1.21-.26-1.09-.23-.89-.18" filter="url(#a)"/><path d="m7.98-88.85-1.26-.01-1.11.01-1.07.06-1.08.02-1.12-.02-1.18-.04H-.08l-1.28.06-1.29.14-1.26.17-1.18.18-1.11.17-1.04.15-.97.14-.94.17-.91.22-.91.28-.95.33-1 .35-1.05.31-1.04.28-.97.28-1 .45-1.77.94" filter="url(#a)"/><path d="m6.49-88.78 1.11.08.62.17.5.15.63.15.83.19 1 .28 1.07.37 1.07.41 1.01.4.98.37.98.34 1.01.35 1.01.38.94.43.82.5.7.51.61.47.6.28L4.3-89.34l1.29-2.37 1.06.08.88.35.74.1.72-.27.83-.6 1.01-.82 1.19-.92 1.29-.89 1.32-.79 1.3-.7 1.29-.69 1.33-.74 1.37-.74 1.37-.58 1.27-.31 1.13-.1.99-.09.88-.09.9-.33L1.94-89.18l-.85.26-1.24.42-1.29.73-1.3.99-1.23.99-1.11.8-.98.62-.9.53-.85.48-.82.46-.77.46-.73.53-.73.71-.79 1.18-1.08 2.02" filter="url(#a)"/><path d="M-.44-89.25h2.02l1.92.09 1.83.15 1.75.22 1.74.3 1.81.39 1.91.47 1.99.55 2.04.64 2.06.71 2.05.78 2.02.86 2 .93 1.97.99 1.94 1.06 1.92 1.12 1.92 1.2 1.93 1.28 1.95 1.38 1.95 1.46 1.92 1.53 1.86 1.6 1.78 1.64 1.72 1.69 1.71 1.76 1.72 1.84 1.76 1.95 1.75 2.03 1.64 2.05 1.43 1.92 1.1 1.69" filter="url(#a)"/><path d="m-4.01-89.19 2.7-.08 2.62.06 2.36.15 2.11.21 1.95.27 1.9.33 1.91.39 1.93.47 1.96.55 1.95.63 1.96.73 1.97.81 1.99.91 1.98.99 1.99 1.08 1.98 1.17 1.96 1.25 1.95 1.34 1.92 1.43 1.88 1.5 1.84 1.56 1.77 1.6 1.68 1.61 1.59 1.63 1.51 1.65 1.46 1.72 1.47 1.83 1.5 1.98 1.49 2.1 1.38 2.06 1.23 1.78" filter="url(#a)"/><path d="m-4.01-89.19 2.88-.08 2.98.06 2.69.15 2.26.21 1.93.28 1.8.33 1.84.39 1.98.48 2.14.55 2.34.65 2.57.73 2.82.82 3.07.92 3.25 1 3.39 1.09 3.45 1.18 3.5 1.27 3.59 1.35 3.77 1.43 3.98 1.5 4.2 1.56 4.33 1.6 4.3 1.62 4.13 1.66 3.85 1.7 3.61 1.75 3.49 1.84 3.56 1.93 3.75 1.99 4.05 2.04 4.45 2.11 4.98 2.3 5.1 2.72 3.2 2.85" filter="url(#a)"/><path d="m-5.84-89.09 1.92-.11 2.61-.03 2.5.03 2.3.08 2.18.15 2.24.21 2.41.29 2.67.37 2.91.46 3.1.54 3.22.62 3.36.69 3.5.77 3.66.84 3.73.91 3.68.98 3.51 1.03 3.31 1.1 3.25 1.17 3.36 1.26 3.66 1.36 4.07 1.46 4.43 1.54 4.67 1.59 4.8 1.6 5 1.64 5.57 1.71 6.35 1.72 5.8 1.16M67.95-14.18l1 2.1.83 2.16 1.75 2.43 2.33 2.63 2.19 2.72L77.58.59l.71 2.73v2.76l-.47 2.75-.65 2.71-.54 2.62-.27 2.54.11 2.49.47 2.48.74 2.52.9 2.57.92 2.62.76 2.65.42 2.61.03 2.51-.25 2.49-.26 2.68.18 2.43" filter="url(#a)"/><path d="m-11.89-88.08 1.57-.2 1.75-.26 2.02-.24 2.32-.18 2.51-.1 2.59-.01 2.56.08 2.47.16 2.36.23 2.31.29 2.31.35 2.35.42 2.41.5 2.48.57 2.54.66 2.62.75 2.69.85 2.77.93 2.84 1.01 2.93 1.08 3.05 1.14 2.99 1.1 1.99.82" filter="url(#a)"/><path d="m-12.2-87.95 1.6-.45 1.83-.3 2.2-.23 2.4-.14 2.46-.06H.71l2.31.07 2.19.13 2.11.21 2.1.28 2.22.36 2.41.44 2.67.52 2.93.61 3.14.67 3.27.76 3.31.83 3.24.9 3.1.97 2.88 1.02 2.65 1.09 2.48 1.15 2.45 1.24 2.56 1.35 2.75 1.46 2.96 1.56 3.17 1.6 3.46 1.54 3.92 1.44 5.78 1.94" filter="url(#a)"/><path d="m-15.31-87.29 2.56-.58 2.1-.44 2.05-.33 2.15-.24 2.29-.15 2.34-.08 2.29-.01 2.19.06 2.06.12 1.96.19 1.93.27 1.94.34 1.99.42 2.07.5 2.13.59 2.18.65 2.19.73 2.18.81 2.18.89 2.15.96 2.07 1.01 1.97 1.03 1.86 1.04 1.91 1.15 2.21 1.34 2.5 1.3" filter="url(#a)"/><path d="m-16.71-86.88 2.04-.45 1.68-.45 1.36-.38 1.47-.31 1.94-.24 2.47-.18 2.84-.1 3.01-.02 3.02.07 2.98.15 2.95.22 2.98.29 3.05.36 3.12.43 3.17.5 3.18.58 3.17.68 3.19.76 3.29.85 3.44.94 3.63 1.01 3.75 1.1 3.82 1.17 4.02 1.27 4.55 1.43 5.18 1.75 4.53 2.22" filter="url(#a)"/><path d="m-16.11-87.06.42-.36 1.29-.45 1.9-.41 2.12-.32 2.32-.24 2.55-.16 2.7-.08h2.74l2.69.06 2.63.13 2.61.2 2.67.28 2.77.36 2.89.44 3.04.52 3.18.6 3.34.67 3.48.76 3.62.83 3.68.9 3.67.96 3.63 1.03 3.64 1.1 3.75 1.16 4.03 1.25 4.4 1.35 4.75 1.46 4.98 1.55 5.07 1.59 5.17 1.6 5.5 1.63 6.07 1.86 4.95 2.35" filter="url(#a)"/><path d="m-19.12-85.85 2.01-.79 2.01-.59 2.04-.49 2.03-.39 2.09-.32 2.2-.25 2.35-.19 2.48-.11L.61-89l2.47.06 2.37.13 2.25.21 2.19.28 2.19.34 2.23.42 2.29.48 2.33.56 2.34.65 2.37.75 2.47.83 2.63.93 2.8 1 2.93 1.1 3.13 1.24 3.45 1.25" filter="url(#a)"/><path d="m-19.12-85.85 2.32-.8 2.2-.59 2.03-.48 1.94-.4 1.99-.31 2.15-.25 2.35-.18 2.56-.1 2.68-.01 2.72.07 2.68.15 2.63.22 2.64.29 2.74.37 2.92.44 3.16.51 3.4.6 3.62.68 3.85.78 4.11.86 4.42.95 4.76 1.04 5.03 1.12 5.09 1.21 4.84 1.3 4.44 1.41 4.17 1.49 4.5 1.58 5.53 1.67 6.69 1.89 6.62 2.15" filter="url(#a)"/><path d="m-19.88-85.58-.63-1.04 2.56-.65 2.89-.52 2.55-.43 2.31-.33 2.35-.26 2.54-.17 2.76-.1 2.92-.02 3.04.04 3.15.11 3.25.17 3.32.24 3.33.32 3.27.4 3.17.49 3.16.56 3.36.63 3.94.69 4.87.76 5.98.88L51-82.76l6.34 1.22 2.97.94" filter="url(#a)"/><path d="m-19.88-85.58 2.61-1.04 1.88-.67 1.8-.51 1.98-.43 2.22-.33 2.42-.24 2.55-.16 2.58-.09 2.56-.01 2.5.06 2.44.13 2.39.2 2.39.28 2.42.36 2.46.44 2.52.52 2.58.6 2.61.68 2.62.75 2.6.83 2.55.9 2.47.97 2.43 1.03 2.45 1.1 2.6 1.18 2.89 1.25 3.27 1.36 3.65 1.46 3.91 1.54 3.95 1.59 3.74 1.62 3.42 1.64 3.25 1.72 3.27 1.73 2.22 1.17" filter="url(#a)"/><path d="m-21.48-84.67 1.4-.71 1.39-.61 1.75-.59 1.94-.55 1.99-.48 2-.41 2.04-.34 2.13-.28 2.24-.2 2.35-.13 2.41-.05 2.38.04 2.29.12 2.17.18 2.09.26 2.08.31 2.13.38 2.18.45 2.16.51 2.06.59 1.96.67 2.09.84" filter="url(#a)"/><path d="m-22.68-84.39.93-.37 1.94-.81 2.08-.82 2.03-.7 2.04-.57 2.13-.46 2.26-.35 2.36-.27 2.44-.18 2.48-.1 2.46-.02 2.42.04 2.36.11 2.34.19 2.36.26 2.45.33 2.61.42 2.8.5 2.96.58 3.05.65 3.04.73 2.95.81 2.83.89 2.75.96 2.8 1.01 2.99 1.04 3.32 1.09 3.7 1.17 3.97 1.33 3.9 1.46 3.59 1.6" filter="url(#a)"/><path d="m-26.49-82.36-3.37-.65 2.44-.82 2.66-.82 1.97-.83 1.6-.78 1.72-.69 2.05-.59 2.4-.48 2.67-.39 2.89-.29 3.04-.21 3.16-.12 3.2-.06 3.15.02 3.06.08 3.01.15 3.08.21 3.35.28 3.85.37 4.48.47 5.13.56 5.59.67 5.79.72 6.06.66" filter="url(#a)"/><path d="m-30.09-80.37 2.79-1.45 2.33-1.04 2.58-.9 2.68-.86 2.51-.82 2.25-.77 2.07-.7 1.98-.59 1.94-.49 1.88-.39 1.8-.29 1.71-.21 1.63-.13 1.54-.06 1.44.02 1.3.08 1.15.15 1 .22.89.29.83.38.83.47.83.56.77.63.59.67.27.62.15.46" filter="url(#a)"/><path d="m-33.11-78.12 2.3-1.87 1.57-1.37 1.23-1.14 1.28-.97 1.53-.85 1.74-.75 1.89-.69 2-.62 2.05-.57 2.09-.5 2.11-.43 2.18-.37 2.33-.31 2.59-.23 2.89-.15 3.17-.08 3.32.01 3.33.09 3.22.17 3.08.23 3.12.29 3.44.36 3.89.43 2.91.35" filter="url(#a)"/><path d="m-33.46-77.92 1.12-.84 1.8-1.29 1.89-1.26 1.77-1.13 1.66-.99 1.63-.86 1.68-.77 1.78-.7 1.9-.62 2.03-.56 2.12-.49 2.19-.43 2.27-.35 2.35-.28 2.41-.21 2.47-.12 2.5-.05 2.5.04 2.45.11 2.42.19 2.39.27 2.38.34 2.4.41 2.45.49 2.49.57 2.55.65 2.63.75 2.74.84 2.9.93 3.08 1.01 3.23 1.09 3.24 1.16 3.1 1.21 2.95 1.31 3.72 1.8" filter="url(#a)"/><path d="m-35.4-76.54-.75-1.33 2.18-1.19 2.7-1.23 2.56-1.19 2.3-1.1 2.12-1 2.06-.91 2.06-.84 2.08-.77 2.09-.69 2.12-.6 2.15-.49 2.21-.4 2.28-.3 2.35-.22 2.38-.13 2.39-.06 2.34.02 2.3.1 2.24.16 2.23.24 2.26.31 2.32.4 2.42.48 2.49.56 2.55.64 2.58.71 2.63.79 2.72.89 2.82.98 2.79 1.04 2.48.98 1.95.81 1.61.65" filter="url(#a)"/><path d="m-35.4-76.54 2.07-1.31 2.55-1.17 2.99-1.22 2.8-1.18 2.5-1.09 2.39-.99 2.38-.92 2.3-.85 2.1-.78 1.82-.72 1.61-.62 1.5-.53 1.48-.42 1.51-.33 1.56-.24 1.58-.16 1.52-.09 1.38-.01 1.17.05.94.11.69.17.44.19" filter="url(#a)"/><path d="m-36.86-75.58 1.33-1.09 1.23-1.16 1.56-1.2 1.83-1.21 1.87-1.17 1.77-1.09 1.72-1 1.78-.92 1.93-.85 2.09-.78 2.21-.7 2.3-.61 2.35-.5 2.4-.42 2.44-.31 2.5-.23 2.55-.15 2.58-.07 2.55.01 2.49.07 2.42.15 2.37.21 2.39.29 2.48.37 2.64.47 2.8.56 2.95.63 2.92.67 2.49.62 1.48.47" filter="url(#a)"/><path d="m-37.4-75.16.81-.62 1.44-1.34 1.48-1.41 1.23-1.35.85-1.26.68-1.13.92-1.01 1.47-.9 2.07-.79 2.52-.71 2.72-.64 2.72-.56 2.62-.5 2.53-.43 2.5-.36 2.57-.29 2.7-.21 2.87-.14 3.02-.05 3.12.03 3.15.11 3.12.18 3.09.26 3.08.33 3.15.41 3.3.48 3.54.56 3.81.65 4.12.74 4.42.84 4.74.93 4.98 1.01L53-81.24l4.82 1.15 4.04 1.12 2.43.84" filter="url(#a)"/><path d="m-39.81-73.05 1.8-1.95.05-1.45-.74-1.27-.45-1.22.49-1.21 1.46-1.16 2.07-1.09 2.36-1.01 2.46-.93 2.49-.86 2.53-.79 2.55-.72 2.61-.63 2.7-.53 2.88-.43 3.1-.34 3.37-.24 3.65-.17 3.86-.08 3.97-.01 3.92.05 3.67.11 3.24.18 2.75.22 3.23.3m46.57 67.45.69 3.99.59 2.72.76 2.59.91 2.67.91 2.71.77 2.69.55 2.64.31 2.6.15 2.58.12 2.6.18 2.65.25 2.72.26 2.76.2 2.78.11 2.79.08 2.79.1 2.79.16 2.76.15 2.68.03 2.54-.17 2.36-.33 2.19-.37 2.09-.33 2.13-.34 2.17-.34 1.98.45 1.08" filter="url(#a)"/><path d="m-41.98-71.08.77-1.19.53-1.29.14-1.38.03-1.35.4-1.3 1.04-1.25 1.58-1.22 1.77-1.16 1.66-1.09 1.52-1.02 1.53-.94 1.77-.87 2.15-.8 2.54-.72 2.85-.63 3.06-.53 3.24-.44 3.41-.34 3.59-.25 3.75-.17 3.85-.08 3.83-.02 3.71.06 3.5.11 3.29.18 3.33.24 3.92.31 4.98.38" filter="url(#a)"/><path d="m-43-69.66 1.41-1.71.69-1.62-.2-1.41-.45-1.33-.21-1.33.21-1.33.65-1.3 1.19-1.23 1.78-1.14 2.33-1.03 2.71-.92 2.87-.82 2.89-.73 2.83-.66 2.78-.59 2.75-.52 2.77-.45 2.83-.38 2.93-.31 3.08-.24 3.27-.16 3.45-.08 3.59.01 3.66.08 3.72.17 3.77.23 3.88.3 4.06.37 4.26.44 4.32.51 4.05.56 3.15.55" filter="url(#a)"/><path d="m-43-69.66-.09-1.71-.16-1.61-1.22-1.41-.99-1.33-.07-1.32.94-1.33 1.79-1.3 2.44-1.23 2.9-1.14 3.11-1.03 3.09-.93 2.89-.82 2.63-.74 2.38-.66 2.25-.59 2.22-.52 2.32-.46 2.53-.39 2.84-.32 3.2-.25 3.57-.18 3.88-.09H3.5l4.06.08 3.92.16 3.75.22 3.82.27 4.63.39 6.91.62" filter="url(#a)"/><path d="m-43-69.66 1.63-1.71 1.67-1.61 1.57-1.41 1.62-1.33 1.71-1.32 1.78-1.33 1.82-1.3 1.87-1.23 1.89-1.14 1.91-1.03 1.93-.93 1.94-.82 1.93-.74 1.95-.66 1.95-.59 1.97-.52 2.01-.46 2.05-.39 2.14-.32 2.25-.25 2.39-.18 2.5-.09h2.53l2.47.08 2.3.16 2.1.22 2.01.27 2.33.39 3.41.62" filter="url(#a)"/><path d="m-44.89-67.78 1.61-1.75.93-1.7.47-1.58.66-1.42 1.25-1.35 1.76-1.32 2.06-1.32 2.14-1.3 2.12-1.25 2.05-1.16 1.96-1.05 1.87-.94 1.78-.83 1.76-.75 1.8-.67 1.9-.62 2.01-.55 2.08-.49 2.06-.41 2.06-.33 2.23-.28 2.99-.34" filter="url(#a)"/><path d="m-47.86-64.27.1-1.24.04-1.69.18-1.69.42-1.58.74-1.48 1.08-1.41 1.43-1.38 1.7-1.34 1.85-1.3 1.84-1.27 1.74-1.22 1.62-1.16 1.56-1.11 1.66-1.03 1.9-.97 2.25-.89 2.58-.81 2.79-.74 2.85-.65 2.81-.56 2.78-.45 2.84-.36 3.04-.27 3.32-.18 3.58-.09 3.69-.03 3.6.05 3.37.11 2.97.17 1.97.19" filter="url(#a)"/><path d="m-48.22-63.8 1.14-.47 2.25-1.64 2.51-1.77 2.58-1.73 2.39-1.65 2.06-1.55 1.79-1.48 1.67-1.41 1.66-1.37 1.71-1.33 1.77-1.29 1.83-1.23 1.88-1.14 1.94-1.05 1.95-.94 1.94-.85 1.87-.76 1.8-.68 1.7-.6 1.64-.54 1.58-.46 1.57-.4 1.57-.33 1.62-.26 1.67-.18 1.71-.1 1.69-.01 1.59.08 1.41.16 1.21.22 1.07.27 1.2.39 1.84.62" filter="url(#a)"/><path d="m-51.18-60.08 1.1-1.24 1.51-1.92 1.49-1.93 1.44-1.83 1.42-1.72 1.44-1.6 1.49-1.52 1.55-1.45 1.63-1.39 1.69-1.35 1.77-1.31 1.84-1.27 1.91-1.22 1.96-1.17 2-1.1 2.02-1.04 2.05-.96 2.08-.89 2.11-.81 2.15-.73 2.17-.64 2.2-.54 2.22-.45 2.26-.36 2.3-.26 2.33-.17 2.34-.09 2.29-.02 2.2.05 2.06.12 1.93.19 1.87.26 1.89.34 2 .43 2.06.56 1.97.7" filter="url(#a)"/><path d="m-51.18-60.08 2.08-1.24 2.14-1.91 1.5-1.93 1.35-1.83 1.45-1.72 1.62-1.6 1.77-1.52 1.86-1.44 1.92-1.39 1.92-1.35 1.88-1.32 1.84-1.26 1.79-1.23 1.78-1.17 1.8-1.1 1.85-1.04 1.92-.97 2-.89 2.07-.81 2.1-.74 2.09-.64 2.07-.56 2.01-.45 1.97-.36 1.94-.27 1.9-.17 1.87-.1 1.8-.02 1.67.05 1.53.11 1.35.18 1.23.24 1.27.3 1.67.39" filter="url(#a)"/><path d="m-52.66-58.11 1.54-2.08 1.48-2 1.28-1.82 1.15-1.78 1.03-1.75 1.01-1.7 1.1-1.64 1.28-1.57 1.46-1.49 1.6-1.42 1.65-1.38 1.67-1.34 1.68-1.3 1.73-1.23 1.79-1.16 1.84-1.06 1.85-.96 1.82-.86 1.79-.77 1.81-.69 1.88-.62 2.02-.55 2.22-.48 2.44-.41 2.67-.35 2.94-.28 3.27-.22 3.65-.13 3.97-.04 4.03.09 3.71.32" filter="url(#a)"/><path d="m-56.95-50.68.66-1.26.76-2.08.81-2.28 1.03-2.27 1.24-2.17 1.38-2.06 1.41-1.95 1.45-1.85 1.52-1.74 1.63-1.64 1.72-1.56 1.8-1.47 1.84-1.42 1.85-1.37 1.86-1.32 1.85-1.28 1.86-1.24 1.87-1.18 1.9-1.13 1.94-1.06 2-.99 2.08-.91 2.14-.85 2.19-.77 2.22-.69 2.22-.59 2.24-.48 2.3-.39 2.44-.28 2.7-.19 3.05-.1 3.03-.03" filter="url(#a)"/><path d="m-56.95-50.68-1.24-1.26.3-2.08.82-2.3 1.16-2.26 1.54-2.17 1.81-2.07 1.84-1.95 1.66-1.85 1.4-1.74 1.21-1.65 1.15-1.55 1.22-1.48 1.38-1.42 1.55-1.36 1.71-1.33 1.85-1.28 1.99-1.23 2.11-1.18 2.23-1.12 2.33-1.06 2.4-.98 2.44-.91 2.46-.84 2.45-.76 2.4-.68 2.37-.57 2.37-.48 2.43-.38 2.59-.28 2.82-.19 3.02-.1 3.06-.04 2.83.04 2.57.13" filter="url(#a)"/><path d="m-57.24-49.54-15.79-1.47-5.77-2.25.73-2.23 3.33-2.14 4.18-2.06 4.06-1.98 3.19-1.89 1.95-1.83.8-1.77.16-1.71.07-1.65.36-1.58.77-1.51 1.11-1.44 1.37-1.39 1.59-1.36 1.86-1.32 2.15-1.29 2.44-1.22 2.68-1.12 2.77-1 2.6-.88 2.21-.76 1.96-.69 2.24-.64 3.14-.51" filter="url(#a)"/><path d="m-58.07-47.95.41-2.07.17-1.89.31-2.08.49-2.22.37-2.21.02-2.15-.33-2.06-.56-1.96-.76-1.86-.9-1.75-.88-1.64-.6-1.56-.03-1.48.65-1.41 1.27-1.37 1.69-1.32 1.95-1.29 2.12-1.25 2.26-1.21 2.33-1.15 2.3-1.07 2.31-1 2.58-.93 3.24-.89 3.98-.85 4.17-.74 4.06-.59" filter="url(#a)"/><path d="m-59.4-45.57 1.52-2.92 1.24-2.39 1.24-2.31 1.2-2.24 1.08-2.16.92-2.08.79-1.99.74-1.91.86-1.84 1.08-1.78 1.35-1.72 1.62-1.65 1.78-1.58 1.86-1.52 1.88-1.45 1.88-1.4 1.91-1.36 1.96-1.31 2.05-1.26 2.12-1.18 2.14-1.09 2.1-.99 2.01-.88 1.93-.79 1.88-.71 1.91-.64 2-.57 2.07-.5 2.1-.43 2.12-.34 2.27-.29 2.87-.34" filter="url(#a)"/><path d="m-59.4-45.57-.76-2.91-.27-2.39.93-2.31.93-2.23.44-2.16-.11-2.07-.64-1.99-.98-1.91-1.01-1.84-.69-1.78-.07-1.72.67-1.65 1.35-1.58 1.88-1.51 2.16-1.46 2.23-1.4 2.2-1.36 2.15-1.32 2.15-1.26 2.18-1.2 2.22-1.1 2.19-.99 2.16-.89 2.22-.78 2.45-.71 2.71-.64 2.86-.59 2.77-.53 2.76-.44 3.3-.42" filter="url(#a)"/><path d="m-59.78-44.87-.87-2.69-1.96-2.19-1.84-2.05-1.55-2.12-1.1-2.18-.31-2.19.81-2.14 1.93-2.06 2.62-1.97 2.63-1.86 2.06-1.76 1.2-1.65.37-1.56-.2-1.48-.4-1.42-.22-1.37.28-1.33 1.02-1.29 1.81-1.26 2.49-1.24 2.84-1.18 2.7-1.08 2.05-.94 1.27-.79 1.77-.91" filter="url(#a)"/><path d="m-61.84-38.9.28-1.35.05-2.29-.33-2.38-.16-2.29.41-2.2.97-2.16 1.35-2.16 1.51-2.17 1.56-2.17 1.53-2.13 1.47-2.06 1.4-1.98 1.33-1.89 1.29-1.78 1.31-1.67 1.38-1.58 1.51-1.5 1.62-1.43 1.7-1.38 1.74-1.34 1.81-1.3 1.93-1.27 2.09-1.26 2.18-1.21 2.09-1.12 1.71-.9.67-.42" filter="url(#a)"/><path d="m-63.02-36.03.12-2.18.5-2.08-.44-2.27-1.8-2.33-2.28-2.28-1.42-2.22.23-2.18 1.76-2.18 2.57-2.18 2.57-2.17 2-2.12 1.19-2.06.38-1.98-.26-1.88-.62-1.79-.68-1.68-.4-1.59.17-1.51.92-1.44 1.74-1.39 2.43-1.34 2.89-1.3 3.05-1.27 2.92-1.21 2.64-1.16 2.38-1.09 2.3-1 2.47-.95 2.77-.9 2.94-.85 2.86-.74 3.29-.6" filter="url(#a)"/><path d="m-64.52-32-1.59-3.34-.9-2.53.4-2.33.23-2.31.02-2.32.38-2.27 1.06-2.23 1.57-2.2 1.62-2.19 1.18-2.18.46-2.16-.25-2.13-.71-2.06-.78-1.97-.45-1.89.18-1.79.86-1.68 1.43-1.6 1.77-1.52 1.88-1.45 1.85-1.39 1.81-1.34 1.83-1.31 1.93-1.26 2.09-1.21 2.23-1.16 2.32-1.08 2.39-1.01 2.5-.95 2.69-.89 2.95-.83 3.32-.75 3.81-.63 4.22-.56" filter="url(#a)"/><path d="m-65.12-28.91-3.3-1.92-1.73-2.6-.66-2.79.76-2.71 1.53-2.55 1.43-2.38.8-2.28.13-2.23-.18-2.21-.08-2.2.28-2.17.67-2.14.9-2.08.91-2.01.78-1.95.65-1.88.65-1.81.8-1.75 1.08-1.68 1.43-1.61 1.78-1.54 2.11-1.48 2.4-1.42 2.66-1.38 2.81-1.34 2.79-1.28 2.62-1.22 2.32-1.12 2.01-1.01 1.8-.9 1.78-.8 1.95-.72 2.35-.66 2.92-.6 3.38-.53 3.14-.33m85.46 62.1 3.81 2.3 4.02 2.85 5.1 2.87 3.25 2.74.5 2.61-1.25 2.56-1.61 2.58-1.1 2.64-.27 2.69.43 2.73.84 2.75.96 2.76.91 2.75.82 2.71.82 2.66.96 2.6 1.28 2.56 1.77 2.56 2.35 2.57 2.9 2.59 3.31 2.62 3.45 2.63 3.27 2.61 2.79 2.59 2.09 2.55 1.19 2.51.15 2.44-.86 2.3-1.38 2.12-.87 1.93.41 1.86 1.35 1.96" filter="url(#a)"/><path d="m65.08-28.55 1.27 2.85 2.31 2.81 2.37 2.8 1.44 2.75.54 2.69.17 2.67.28 2.66.54 2.67.79 2.66.99 2.63 1.11 2.58 1.17 2.54 1.11 2.56.99 2.6.82 2.69.65 2.77.42 2.78.2 2.72.09 2.66.19 2.75.46 2.87 1.59 1.95M65.05-29.23l2.3 2.7 4.94 2.67 5.13 2.79 3.62 2.8 2.02 2.7 1.03 2.6.59 2.55.48 2.56.58 2.61.88 2.66 1.36 2.7 1.93 2.73 2.37 2.75 2.53 2.76 2.37 2.72 2.04 2.65 1.8 2.56 1.82 2.49 2.15 2.48 2.56 2.5 2.52 2.56 1.65 2.66.53 2.9.93 3.01 3.13 1.57" filter="url(#a)"/><path d="m65.05-29.23.43 2.72-1.18 2.71-2.96 2.82-3.55 2.81-3.11 2.72-2.41 2.63-1.74 2.59-1.05 2.6-.45 2.64-.25 2.69-.59 2.73-1.31 2.75-2.04 2.76-2.48 2.75-2.49 2.71-2.13 2.65-1.62 2.61-1.07 2.57-.62 2.57-.35 2.57-.36 2.59-.72 2.62-1.42 2.63-2.4 2.62-3.43 2.59-4.28 2.55-4.7 2.51-4.52 2.44-3.72 2.31-2.48 2.13-1.18 1.93-.42 1.86-2.14 1.96m61.17-89.47 10.06 2.1-.35 2.63.03 2.73 2.33 2.75 3.91 2.78 4.52 2.75 4.38 2.69 3.71 2.6 2.71 2.55 1.69 2.55.99 2.59.86 2.63 1.35 2.67 2.3 2.71 3.25 2.76 3.76 2.8 3.85 2.79 3.93 2.68 4.44 2.46 4.91 2.23 4.7 2.25 5.18 2.76" filter="url(#a)"/><path d="m63.48-34.36 3.95 2.1 2.66 2.63.48 2.73.36 2.75 1.67 2.78 3.35 2.75 4.6 2.69 4.92 2.6 4.41 2.55 3.65 2.55 3.27 2.59 3.49 2.63 4.05 2.67 4.58 2.71 4.94 2.76 5.14 2.8 5.09 2.79 4.45 2.68 3.17 2.46 1.94 2.23 1.54 2.25 4.21 2.76" filter="url(#a)"/><path d="m63.44-34.63 1.24.87 2.76 1.89 2.32 2.43 2.14 2.65 2.57 2.76 2.74 2.79 2.14 2.76 1.02 2.71-.03 2.66-.56 2.62-.49 2.62.01 2.65.65 2.68L81.13.18l1.52 2.75 1.64 2.76 1.6 2.74 1.46 2.72 1.2 2.66.83 2.61.38 2.57-.03 2.55-.22 2.57-.07 2.6.37 2.63.91 2.64 1.26 2.63 1.27 2.6 1.03 2.57.75 2.58.34 2.59-.64 2.53-1.88 2.54" filter="url(#a)"/><path d="m61.95-38.27 1.63 2.19 1.68 2.41 1.75 2.42 1.86 2.53 1.9 2.65 1.92 2.72 1.92 2.75 1.83 2.74 1.6 2.72 1.29 2.69 1.05 2.68 1.06 2.68 1.34 2.67 1.73 2.64L86.58.81l2.12 2.54 1.79 2.52 1.13 2.57.39 2.71.04 2.89.43 2.98 1.32 2.64 1.85 1.28" filter="url(#a)"/><path d="m61.74-39.37 2.44 3.2 1.78 2.12.87 2.15 1.01 2.4 2.04 2.59 3.23 2.7 3.87 2.75 3.62 2.74 2.75 2.7 1.75 2.64 1.07 2.6.84 2.6.95 2.62 1.15 2.65 1.31 2.7 1.36 2.74 1.36 2.76 1.36 2.77L96 10.8l1.8 2.67 2.18 2.57 2.46 2.48 2.38 2.48 1.87 2.49 1.08 2.38.3 2.12-1.01 2.63" filter="url(#a)"/><path d="m60.74-42.37 1.2 2.01 2.32 2.06 2.54 2.2 2.09 2.31 1.58 2.42 1.25 2.52 1.05 2.63.89 2.69.81 2.74.85 2.73 1.07 2.72 1.44 2.7 1.77 2.69 1.88 2.69 1.67 2.68 1.19 2.65L85 .66l.35 2.54.39 2.5.77 2.54 1.28 2.7 1.62 3 1.56 3.36 1.6 3.63" filter="url(#a)"/><path d="m60.74-42.37 1.74 2.01.69 2.05 1.05 2.2 1.39 2.3 1.38 2.41 1.21 2.52 1.11 2.62 1.22 2.69 1.48 2.73 1.75 2.73 1.91 2.72 1.87 2.69 1.7 2.69 1.52 2.68 1.46 2.68L83.76-2 85.47.59l1.88 2.53 2.03 2.46 2.06 2.46 1.67 2.62.64 2.99-.31 3.35m-32.7-59.37-.45 2.04-2.16 2.08-1.77 2.23-.93 2.35-.52 2.45-.54 2.56-.71 2.66-.8 2.72-.63 2.75-.28 2.76.09 2.74.26 2.74.1 2.71-.28 2.71-.73 2.68-1.06 2.66-1.22 2.64-1.24 2.62-1.25 2.64-1.31 2.67-1.47 2.71-1.71 2.76-1.96 2.79L38 20.09l-2.18 2.81-1.93 2.84-1.51 2.86-1.28 2.85-1.63 2.71-2.45 2.38-3.09 1.8-3.23.86m38.5-84.68 2.75 1.44 7.17 2.22L77-39.34l5.97 2.44 3.13 2.35.77 2.34-.37 2.41-.25 2.53.62 2.64 1.59 2.7 2.38 2.71 2.91 2.69 3.4 2.62 3.97 2.58 4.68 2.55 5.45 2.59 6.03 2.63 6 2.66 5.01 2.65 3.3 2.7 2.01 2.91 2.89 3.28 8.1 3.25" filter="url(#a)"/><path d="m59.2-45.48.75 1.46 1.15 2.25 1.9 2.49 2.66 2.46 3.09 2.38 2.96 2.38 2.38 2.46 1.67 2.56 1.17 2.65 1.05 2.71 1.22 2.72 1.51 2.69 1.78 2.66 1.93 2.62 2.03 2.61 2.07 2.63 2.09 2.66 2.09 2.7 1.96 2.74 1.71 2.77 1.32 2.79.92 2.76.64 2.68.63 2.57.83 2.48 1.04 2.5 1.02 2.58.59 2.36-.2.71" filter="url(#a)"/><path d="m59.2-45.48 2.08 1.47 4.6 2.25 3.79 2.51 2.37 2.46 2.18 2.39 2.91 2.39 3.54 2.47 3.48 2.58 2.86 2.66 2.17 2.71 1.8 2.72 1.78 2.7 1.89 2.66 1.93 2.64 1.81 2.63 1.54 2.65 1.24 2.67.99 2.71.95 2.75 1.17 2.76 1.68 2.76 2.34 2.74 2.96 2.67 3.28 2.6 3.28 2.54 3.1 2.51 2.98 2.53 3.08 2.57 3.22 2.69 3 2.91 2.37 3.03 3.87 1.6" filter="url(#a)"/><path d="m57.13-49.65 1.85 2.06 1.3 1.79.81 1.91.75 2.16.87 2.32 1.06 2.36 1.26 2.36 1.44 2.39 1.55 2.45 1.53 2.54 1.39 2.63L72.12-22l.93 2.71.71 2.69.55 2.65.49 2.6.57 2.58.72 2.6.85 2.64.88 2.67.8 2.7.69 2.76.63 2.89.64 3.06.71 2.98.96 2.34" filter="url(#a)"/><path d="m54.56-54.43 2.03 3.73 1.34 2.58.99 2.1.89 2.04.9 2.17.92 2.28.88 2.34.84 2.35.77 2.37.73 2.43.68 2.52.63 2.62.59 2.68.53 2.72.47 2.69.42 2.63.36 2.57.3 2.55.24 2.58.2 2.66.14 2.68.05 2.56-.04 2.28-.01 1.93" filter="url(#a)"/><path d="m53.88-55.48 1.21 2.08 1.47 2.68 1.25 2.45 1.05 2.21.94 2.18.91 2.23.91 2.31.88 2.35.84 2.4.79 2.44.73 2.5.67 2.58.61 2.64.55 2.69.49 2.7.43 2.69.38 2.68.3 2.66.25 2.66.18 2.66.12 2.69.04 2.72-.01 2.75-.08 2.76-.13 2.76-.19 2.74-.23 2.68-.29 2.62-.36 2.57-.41 2.54-.5 2.55-.57 2.6-.66 2.68-.73 2.76-.74 2.7-.61 2.14-.45 1.3" filter="url(#a)"/><path d="m53.35-56.65 5.47 2.03 4.89 2.27 2.62 2.25 1.13 2.27.42 2.3.14 2.31.17 2.31.48 2.31 1.02 2.33 1.59 2.38 2.05 2.46 2.23 2.54 2.13 2.61 1.74 2.68 1.18 2.72.64 2.74.22 2.75.07 2.73.13 2.73.37 2.72.65 2.69.9 2.68L84.67.81l1.22 2.63 1.39 2.65 1.61 2.67 1.83 2.72 1.94 2.77 1.77 2.79 1.33 2.8.7 2.8.19 2.85.08 2.94.47 3.02 1.1 2.94 1.92 2.22" filter="url(#a)"/><path d="m53.35-56.65 3.45 2.01 4.81 2.25 4.56 2.22 3.58 2.25 2.26 2.28 1.13 2.29.61 2.29.7 2.27 1.03 2.29 1.31 2.34 1.45 2.42 1.63 2.5 2.06 2.58L84.64-24l3.37 2.71 3.69 2.73 3.41 2.73 2.52 2.72 1.27 2.71.17 2.71-.26 2.71.2 2.69 1.34 2.63 2.46 2.55 2.82 2.4 2.3 2.18 1.35 1.98" filter="url(#a)"/><path d="m52.12-58.27 3.26 1.71 5.25 2.02 3.81 2.17 1.88 2.22.66 2.27.11 2.29.07 2.31.37 2.3.86 2.31 1.41 2.34 1.88 2.39 2.23 2.45 2.44 2.54 2.52 2.61 2.44 2.67 2.24 2.72 1.94 2.73 1.59 2.75 1.27 2.74L89.38-10l.9 2.71.84 2.7.85 2.67.89 2.65.97 2.63L94.92 6l1.25 2.67 1.44 2.72 1.54 2.78 1.46 2.8 1.15 2.78.64 2.78.12 2.83-.13 2.98.1 3.16.56 3.95" filter="url(#a)"/><path d="m51.88-58.91 5.49 1.67 6.24 1.87 5.36 2.19 3.75 2.34 1.37 2.31-.44 2.24-.79 2.21.23 2.25 1.77 2.29 2.95 2.33 3.27 2.38 2.67 2.42 1.62 2.48.64 2.55.24 2.63.6 2.67 1.66 2.7 3.02 2.69 4.25 2.66 4.88 2.64 4.65 2.63 3.61 2.63 2.16 2.66.9 2.7.34 2.74.67 2.79 1.62 2.85 2.52 2.87 2.76 2.76 2.16 2.48 1.47 2.11 1.96 1.85" filter="url(#a)"/><path d="m50.31-60.75 2.41 2.14 1.14 1.98 1.1 2.06 1.28 2.15 1.4 2.21 1.44 2.25 1.41 2.29 1.32 2.29 1.22 2.3 1.12 2.31 1.07 2.33 1.11 2.38 1.18 2.45 1.29 2.52 1.35 2.6 1.36 2.67 1.29 2.71 1.18 2.73L75-15.64l.9 2.74.8 2.73.74 2.72.68 2.7.62 2.67.54 2.63.44 2.61.37 2.6.33 2.63.32 2.73.34 2.85.4 2.86.49 2.66.6 2.23 1.04 2.24" filter="url(#a)"/><path d="m49.07-62.42 2.52 2.77 2.67 2.12 3 2.04 2.92 2.19 2.44 2.28 2.01 2.26 1.94 2.22 2.12 2.19 2.28 2.21 2.19 2.26 1.89 2.3 1.56 2.33 1.38 2.36 1.44 2.41 1.74 2.5 2.16 2.6 2.66 2.69 3.21 2.75 3.84 2.75 4.59 2.66 5.29 2.49 5.36 2.3 3.75 2.16 1.03 2.1M49.07-62.42l.28 2.79-2.73 2.16-1.61 2.09-.13 2.22.16 2.3-.19 2.29-.48 2.25-.39 2.24-.02 2.26.38 2.3.61 2.35.56 2.38.24 2.44-.31 2.49-.96 2.57-1.55 2.62-1.91 2.68-1.96 2.69-1.72 2.69-1.29 2.68-.85 2.65-.56 2.65-.52 2.66-.74 2.68-1.14 2.71-1.56 2.75-1.83 2.78-1.78 2.8-1.4 2.77-.86 2.71-.43 2.59-.34 2.51-.62 2.52-1.04 2.6-1.78 2.38-3.99.72" filter="url(#a)"/><path d="m48.24-63.71 1.33 1.82 1.67 2.15 1.89 2.09 2.47 2.1 3.26 2.19 3.81 2.25 3.8 2.25 3.25 2.22 2.42 2.19 1.74 2.22 1.53 2.26 1.86 2.29 2.56 2.33L83.17-33l3.89 2.4 4.11 2.49 4.01 2.6 3.72 2.7 3.48 2.77 3.58 2.78 4.21 2.7 5 2.5 4.61 2.25 2.58 2.24M47.5-64.44l.93 1.33 1.31 2.05 1.27 2.14 1.25 2.12 1.25 2.12 1.21 2.16 1.14 2.21 1.06 2.24.99 2.27.93 2.29.87 2.3.8 2.3.73 2.34.67 2.38.6 2.44.55 2.52.5 2.59.45 2.66.4 2.71.36 2.73.3 2.74.25 2.74.19 2.73.13 2.72.08 2.71.02 2.68L65.7.41l-.14 2.58-.24 2.55-.37 2.58-.47 2.73-.55 3.02-.63 3.38-.81 3.68" filter="url(#a)"/><path d="m47.5-64.44 1.23 1.33 1.74 2.05 1.92 2.14 1.86 2.12 1.71 2.12 1.61 2.16 1.66 2.21 1.91 2.24 2.29 2.27 2.73 2.29 3.15 2.3 3.54 2.3 3.81 2.34 3.89 2.38 3.73 2.44 3.29 2.52 2.65 2.59 1.91 2.66 1.21 2.71.72 2.73.52 2.74.68 2.74 1.11 2.73 1.66 2.72 2.08 2.71 2.25 2.68 2.16 2.63 2.11 2.58 2.39 2.55 3.12 2.58 3.77 2.73 3.4 3.02 1.62 3.38-.94 3.68" filter="url(#a)"/><path d="m46.3-66.18 2.15 2.16 1.87 2.13 1.48 2.13 1.33 2.13 1.33 2.15 1.36 2.22L57.17-51l1.3 2.26 1.27 2.25L61-44.25l1.27 2.27 1.27 2.3 1.27 2.33 1.23 2.37 1.19 2.43 1.15 2.48 1.1 2.55 1.04 2.62.95 2.67.82 2.69.69 2.7.55 2.67.44 2.64.37 2.63.37 2.63.38 2.67.38 2.7.36 2.73.28 2.8.17 2.88.05 2.95-.03 2.86-.01 2.49.43 2.01" filter="url(#a)"/><path d="m45.56-66.99 2.31 1.97 1.78 1.85 2.15 2.01 2.33 2.06 2.08 2.08 1.64 2.09 1.28 2.12 1.14 2.16 1.21 2.21 1.37 2.24 1.56 2.25 1.69 2.26 1.78 2.25 1.78 2.26 1.74 2.28 1.66 2.34 1.64 2.42 1.69 2.53 1.83 2.65 2.03 2.77 2.1 2.89 1.81 2.88.79 1.99" filter="url(#a)"/><path d="M45.56-66.99 47.29-65l1.73 1.9 1.63 2.03 1.47 2.1 1.36 2.11 1.34 2.13 1.31 2.16 1.27 2.2 1.24 2.24 1.2 2.27 1.13 2.28 1.07 2.3 1 2.31.92 2.33.86 2.38.81 2.44.78 2.51.76 2.59.75 2.66.73 2.7.71 2.74.65 2.74.58 2.74.5 2.73.39 2.72.32 2.72.25 2.68.21 2.64.17 2.57.14 2.51.14 2.51.14 2.65.1 3.01-.1 3.4" filter="url(#a)"/><path d="m42.71-69.95 4.46 2.58 2.01 2.14 2 2.02 2.19 2.05 1.96 2.08 1.48 2.09 1.11 2.12.99 2.15 1.12 2.18 1.33 2.23 1.52 2.25 1.62 2.27 1.64 2.28 1.61 2.28 1.58 2.31 1.58 2.34 1.62 2.4 1.69 2.48 1.77 2.57 1.8 2.66 1.8 2.71 1.73 2.74 1.66 2.74 1.6 2.72 1.52 2.7 1.47 2.72 1.53 2.79L91-2.44 93.15.7" filter="url(#a)"/><path d="m42.71-69.95 2.68 2.57 2.56 2.14 2.52 2.01 2.5 2.05 2.59 2.07 2.78 2.09 2.92 2.11 2.98 2.14 2.98 2.18 3.01 2.21 3.11 2.25 3.2 2.26 3.22 2.28 3.1 2.27 2.86 2.29 2.55 2.32 2.26 2.39 2.07 2.46 1.97 2.56 1.93 2.65 1.97 2.73 2.06 2.76 2.22 2.74 2.35 2.68 2.58 2.66 3.35 2.7L115.79-6" filter="url(#a)"/><path d="m44.41-68.19 2.84.86 3.15 1.48 2.56 1.82 2.38 1.98L57.46-60l1.75 2.09 1.42 2.12 1.28 2.19 1.32 2.22 1.46 2.22 1.59 2.22 1.64 2.2 1.57 2.22 1.55 2.25 1.66 2.29 2.03 2.31 2.6 2.32 3.25 2.37 3.72 2.45 3.8 2.57 3.33 2.71 2.4 2.84 1.55 2.98 2.41 3.25" filter="url(#a)"/><path d="m43.31-69.33 6 .55 1.17 1.64 1.02 1.91 2.34 1.99 3.79 2.03 4.38 2.08 3.85 2.09 2.68 2.12 1.62 2.15 1.06 2.19 1.05 2.22 1.39 2.25 1.89 2.27 2.52 2.28 3.3 2.29 4.17 2.31 4.98 2.35 5.48 2.4 5.5 2.49 5.03 2.57 4.26 2.65 3.42 2.72 2.69 2.74 2.09 2.74 1.62 2.72 1.37 2.7 1.46 2.73 2.01 2.8 3.19 2.91L134.8.7" filter="url(#a)"/><path d="m43.31-69.33.87.53 3.09 1.62 5.71 1.88 7.42 1.97 7.21 2.01 5.57 2.05 3.68 2.07 2.46 2.09 2.16 2.12 2.44 2.16 2.87 2.19 3.2 2.24 3.44 2.25 3.63 2.26 3.74 2.24 3.72 2.25 3.51 2.26 3.26 2.31 3.25 2.39 3.92 2.5 5.53 2.61 7.31 2.55 6.18 1.95" filter="url(#a)"/><path d="m42.59-70.29 2.84 1.57 3.22 1.37 2.61 1.57 1.7 1.79 1.37 1.95L56.05-60l2.32 2.08 2.77 2.14 2.84 2.19 2.6 2.22 2.26 2.23 1.95 2.23 1.76 2.22 1.66 2.24 1.69 2.26 1.84 2.3 2.12 2.33 2.42 2.35 2.63 2.41 2.66 2.49 2.54 2.59 2.42 2.71 2.34 2.81 2.12 2.84 1.52 2.77.92 2.5 1.8 1.98" filter="url(#a)"/><path d="m40.64-72.23 2.59 1.91 2.21 1.53 1.98 1.7 2.5 1.87 3.57 1.97 4.44 2.03 4.55 2.07 3.93 2.1 3.06 2.13 2.46 2.16 2.28 2.19 2.45 2.23 2.76 2.26 3.02 2.27 3.15 2.29 3.11 2.3 2.89 2.32 2.45 2.37 1.89 2.42 1.39 2.5 1.22 2.58 1.55 2.65 2.32 2.71 3.27 2.74 4.04 2.74 4.38 2.74 4.32 2.73 4.02 2.73 3.64 2.75 3.12 2.74 2.3 2.69 1.32 2.67 2.49 3.17" filter="url(#a)"/><path d="m39.31-73.55 11.4 2.64-.17 1.87-.68 1.62 1.3 1.68 3.36 1.81 4.78 1.95 5.34 2.03 5.16 2.1 4.7 2.15 4.39 2.2 4.32 2.22 4.32 2.24 4.04 2.25 3.32 2.24 2.21 2.27.99 2.29.02 2.32-.46 2.36-.37 2.4.2 2.46 1.1 2.54 2.11 2.61 3.13 2.68 3.99 2.72 4.61 2.71 4.88 2.67 4.75 2.61 4.25 2.57 3.57 2.61 3.07 2.72 3.08 2.8 3.23 2.63 1.99 2.61" filter="url(#a)"/><path d="m39.33-73.23 5.15.78 2.44 1.64 1.88 1.68 1.63 1.64 1.38 1.7 1.33 1.8 1.56 1.93 2.03 2.01 2.47 2.08 2.68 2.14 2.57 2.19 2.2 2.21 1.76 2.23 1.43 2.24 1.35 2.23 1.52 2.25 1.88 2.28 2.32 2.3 2.76 2.34 3.14 2.37 3.37 2.43 3.32 2.51 2.94 2.6 2.27 2.71 1.61 2.78 1.33 2.8 1.7 2.72 2.4 2.53 2.61 2.28 1.68 2.26" filter="url(#a)"/><path d="m36.59-75.7 4.87 1.72 3.83 1.5 1.61 1.62.81 1.62 1.22 1.64 2.23 1.69 3.38 1.78 4.24 1.9 4.63 1.98 4.53 2.06 4.14 2.11 3.69 2.17 3.32 2.2 3.09 2.22 3 2.22 3.11 2.2 3.44 2.21 3.9 2.26 4.3 2.3 4.5 2.3 4.6 2.28 4.99 2.29 5.83 2.41 6.47 2.49 4.72 2.07" filter="url(#a)"/><path d="m34.82-76.71 2.19 1.24 3.13 1.56 4.21 1.63 4.5 1.64 4.03 1.67 3.4 1.73 2.99 1.83 2.84 1.9 2.84 1.98 2.95 2.03 3.19 2.07 3.59 2.09 4.15 2.13 4.77 2.16 5.34 2.2 5.73 2.24 5.83 2.26 5.52 2.26 4.77 2.26 3.72 2.25 2.84 2.26 2.62 2.3 3.23 2.38 4.33 2.54 5.8 2.79 7.88 3.08" filter="url(#a)"/><path d="m33.41-78.13 3.12 2.16 2.72 1.76 2.89 1.64 3.23 1.63 3.38 1.62 3.35 1.64 3.29 1.69 3.19 1.78 3.02 1.88 2.83 1.97 2.63 2.04 2.47 2.1 2.3 2.16 2.12 2.21 1.91 2.22 1.74 2.2 1.75 2.18 2.02 2.2 2.53 2.26 2.98 2.34 2.97 2.31L92.38-34l2.6 2.06 3.57 2.71m-66.81-50 2.46 2 1.71 1.66 1.36 1.65 1.4 1.65 1.53 1.66 1.58 1.71 1.57 1.76 1.5 1.85 1.38 1.93 1.25 1.99 1.12 2.05 1.01 2.09.94 2.12.9 2.16.85 2.19.79 2.22.68 2.25.53 2.28.36 2.28.19 2.3.09 2.33.02 2.36v2.42l-.02 2.49-.06 2.57-.16 2.66-.26 2.71-.33 2.76-.32 2.75-.28 2.73-.25 2.72-.31 2.74-.47 2.81-.58 2.93L51.44.7" filter="url(#a)"/><path d="m31.74-79.23 3.18 1.98 4.1 1.66 4.77 1.62 3.94 1.64 2.41 1.65 1.32 1.67 1.07 1.74 1.46 1.83 2.19 1.9 3.11 1.98 4.15 2.02 5.16 2.06 5.86 2.1 6.06 2.13 5.66 2.16 4.88 2.21 4.03 2.23 3.4 2.27 3.14 2.26 3.15 2.26 3.39 2.26 3.8 2.26 4.24 2.31 4.35 2.38 3.77 2.54 3.42 2.79 5.62 3.09" filter="url(#a)"/><path d="m31.21-79.83 2.73 1.11 4.66 1.52 4.63 1.59 3.73 1.62 2.56 1.64 1.77 1.66 1.63 1.7 2.04 1.76 2.74 1.83 3.41 1.91 3.88 1.98 4.09 2.03 4.04 2.08 3.77 2.1 3.31 2.15 2.73 2.18 2.14 2.21 1.66 2.24 1.46 2.27 1.59 2.27 1.99 2.28 2.42 2.29 2.68 2.31 2.66 2.37 2.6 2.44 2.84 2.55 3.63 2.67 4.74 2.79 5.42 2.91 4.9 2.92 2.57 2.02" filter="url(#a)"/><path d="m29.33-80.6 2.31.82 3.07 1.16 3.11 1.4 2.89 1.53 2.99 1.58 3.25 1.62 3.27 1.63 2.93 1.67 2.37 1.73 1.89 1.8 1.71 1.87 1.82 1.95 2.17 2.01 2.59 2.04 2.98 2.08 3.27 2.1 3.39 2.14 3.28 2.18 3.11 2.24 3.14 2.29 3.71 2.3 4.71 2.19 5.22 2 2.47 1.79" filter="url(#a)"/><path d="m25.23-83.32 2.52 1.6 1.7 1.06 1.59 1.04 1.71 1.19 1.83 1.35 1.89 1.49 1.9 1.57 1.84 1.62 1.77 1.67 1.7 1.71 1.66 1.78 1.62 1.84 1.59 1.92 1.57 1.97 1.55 2.03 1.54 2.08 1.52 2.12 1.51 2.15 1.48 2.19 1.41 2.22 1.34 2.25 1.22 2.27 1.11 2.29 1 2.3.9 2.32.84 2.35.79 2.41.77 2.48.77 2.57.77 2.66.79 2.74.77 2.78.73 2.76.64 2.72.51 2.68.39 2.73.26 2.41" filter="url(#a)"/><path d="m25.23-83.32 3.21 1.6 2.55 1.06 2.72 1.04 2.95 1.19 3.03 1.35 3 1.49 2.85 1.57 2.61 1.62 2.32 1.67 2.09 1.71 2.01 1.78 2.11 1.84 2.38 1.92 2.72 1.97 3.02 2.03 3.15 2.08 3.06 2.12 2.82 2.15 2.5 2.19 2.22 2.22 2.03 2.25 1.98 2.27 2.05 2.29 2.22 2.3 2.44 2.32 2.69 2.35 2.88 2.41 2.96 2.48 2.86 2.57 2.64 2.66 2.37 2.74 2.2 2.78 2.21 2.76 2.32 2.72 2.35 2.68 2.39 2.73L120.19-6" filter="url(#a)"/><path d="m23.77-83.84 3.27 1.3 2.11 1.08 2 1.19 2.17 1.31 2.48 1.41 2.76 1.5 2.87 1.56 2.8 1.6 2.64 1.62 2.48 1.63 2.37 1.65 2.32 1.7 2.3 1.77 2.34 1.85 2.43 1.94 2.63 2.01 2.9 2.09 3.24 2.15 3.6 2.23 3.95 2.27 4.19 2.21 4.24 2.06 3.89 1.93 3.16 2.03 3.47 2.38" filter="url(#a)"/><path d="m23.77-83.84 3.06 1.31 2.08 1.09 2.02 1.21 2.02 1.33 2.06 1.43 2.09 1.52 2.07 1.57 2.01 1.62 1.91 1.63 1.81 1.66 1.73 1.69 1.66 1.73 1.62 1.81 1.56 1.89 1.51 1.97 1.47 2.05 1.45 2.11 1.45 2.16 1.45 2.2 1.46 2.23 1.45 2.22 1.42 2.24 1.38 2.24 1.34 2.27 1.33 2.31 1.35 2.32 1.4 2.32 1.45 2.35 1.43 2.44 1.23 2.57.88 2.73 1.16 3.27" filter="url(#a)"/><path d="m22.4-84.52 4.41 1.37 6.08 1.28 4.24 1.12 2.21 1.1 1.33 1.21 1.41 1.34 2.03 1.46 2.82 1.55 3.52 1.6 3.95 1.66 4.06 1.7 3.96 1.76 3.74 1.83 3.53 1.9 3.39 1.96 3.32 2.02 3.24 2.07 3.13 2.1 2.96 2.14 2.82 2.17 2.84 2.22 3.15 2.24 3.73 2.27 4.42 2.28 4.95 2.28 5.13 2.27 4.94 2.3 4.6 2.34 4.42 2.42 4.58 2.53 4.95 2.63 5.39 2.58 5.21 1.99" filter="url(#a)"/><path d="m21.61-84.67 2.7 1.03 2.55 1.08 2.35 1.13 2.1 1.23 1.93 1.32 1.92 1.43 2.02 1.51 2.13 1.58 2.16 1.61 2.1 1.64 1.96 1.66 1.84 1.7 1.74 1.76 1.7 1.82 1.7 1.9 1.72 1.98 1.73 2.05 1.75 2.11 1.78 2.17 1.79 2.2 1.82 2.23 1.8 2.23 1.77 2.25 1.71 2.26 1.63 2.29 1.56 2.31 1.46 2.34 1.35 2.37 1.22 2.41 1.1 2.5 1.05 2.6 1.08 2.73 1.21 2.85 1.33 2.94 1.34 2.94 1.54 2.66" filter="url(#a)"/><path d="m21.48-84.9 1.73.71 3.51 1.11 4.72 1.16 4.62 1.11 3.68 1.13 2.74 1.21 2.19 1.34 2.04 1.44 2.21 1.54 2.53 1.59 2.84 1.64 3.08 1.69 3.26 1.76 3.46 1.81 3.74 1.89 4.12 1.96 4.49 2.01 4.71 2.05 4.67 2.1 4.36 2.12 3.92 2.17 3.51 2.21 3.34 2.24 3.43 2.28 3.7 2.28 3.9 2.27 3.79 2.24 3.49 2.25 3.41 2.27 3.78 2.25 1.83 2.52" filter="url(#a)"/><path d="m21.48-84.9 1.65.69 2.48 1.1 2.85 1.14 2.85 1.1 2.56 1.09 2.19 1.18 1.99 1.3 2.08 1.41 2.46 1.51 3.05 1.57 3.69 1.6 4.24 1.64 4.58 1.69 4.59 1.76 4.27 1.85 3.78 1.92 3.45 1.99 3.6 2.03 4.4 2.05 5.64 2.12 6.39 2.33 4.64 2.55" filter="url(#a)"/><path d="m19.64-85.73 2.2 1 2.21 1.04 2.22 1.07 2.26 1.12 2.31 1.2 2.28 1.3 2.22 1.39 2.16 1.47 2.12 1.55 2.13 1.58 2.14 1.61 2.12 1.63 2.08 1.64 2.03 1.69 2.01 1.76 2.04 1.84 2.07 1.92 2.11 2 2.11 2.07 2.09 2.14 2.08 2.27 2.07 2.38 2.04 2.31 1.82 1.92.82 1.2" filter="url(#a)"/><path d="m15.02-87.28 1.61.39 2.02.6 2.21.75 2.41.86 2.48.94 2.51 1.03 2.56 1.1 2.62 1.18 2.62 1.26 2.53 1.36 2.4 1.45 2.28 1.51 2.27 1.57 2.36 1.59 2.55 1.61 2.75 1.61 2.98 1.63 3.12 1.69 3.14 1.82 2.95 1.98 2.64 2.08 2.68 2.04 4.12 1.75" filter="url(#a)"/><path d="m15.02-87.28 1.14.39 1.6.62 1.7.75 1.82.87 1.93.96 2.02 1.04 2.02 1.12 1.96 1.2 1.89 1.29 1.78 1.38 1.68 1.46 1.59 1.53 1.52 1.57 1.46 1.61 1.42 1.63 1.39 1.65 1.36 1.7 1.32 1.76 1.26 1.85 1.22 1.93 1.18 2 1.14 2.07 1.1 2.15 1.06 2.27.99 2.38.89 2.33.71 1.93.49 1.21" filter="url(#a)"/><path d="m13.04-87.84 2.62.66 2.86.72 2.41.74 2.16.77 2.15.87 2.16.95 2.11 1.02 2.01 1.07 2.01 1.11 2.13 1.18 2.4 1.28 2.71 1.39 2.99 1.47L47-73.06l3.43 1.59 3.67 1.62 4.05 1.66 4.61 1.74 5.29 1.82 5.81 1.94 5.66 2.06 4.73 2.12L89-56.65" filter="url(#a)"/><path d="m13.04-87.84 1.56.66 1.9.73 1.77.73 1.49.78 1.31.87 1.2.96 1.16 1.02 1.17 1.07 1.24 1.12 1.35 1.19 1.41 1.28 1.32 1.39 1.02 1.48.49 1.55-.17 1.59-.75 1.63-.99 1.68-.79 1.75-.21 1.83.41 1.94.65 2.01.34 2.04-.38 1.9-.79 1.67" filter="url(#a)"/><path d="m13.04-87.84 1.86.67 2.29.72 2.27.73 2.12.79 2.05.87 2.08.96 2.09 1.02L29.87-81l2.02 1.12 1.96 1.2 1.92 1.29 1.9 1.39 1.88 1.48 1.88 1.55 1.91 1.6 1.96 1.64 2.04 1.69 2.15 1.76 2.21 1.84 2.22 1.93 2.15 2.01 2.06 2.03 1.92 2.01 1.82 2.05 2.19 2.46" filter="url(#a)"/><path d="m8.91-88.53 3.07.51 2.6.55 2.18.58 1.98.67 1.99.76 2.09.86 2.19.95 2.29 1.03 2.41 1.12 2.53 1.21 2.66 1.3 2.74 1.38 2.76 1.45 2.72 1.53 2.64 1.57 2.54 1.61 2.47 1.65 2.45 1.68 2.49 1.72 2.6 1.79 2.72 1.86 2.79 1.94 2.78 2.02 2.7 2.09 2.6 2.17 2.56 2.22 2.6 2.26 2.61 2.22 2.43 2.14 1.96 2.12 1.41 2.28 1.64 2.82 3.93 3.84" filter="url(#a)"/><path d="m8.16-88.65 2.31.4 2.6.51 2.52.61 2.36.68 2.25.74 2.2.79 2.19.88 2.16.95 2.12 1.02L30.98-81l2.11 1.14 2.14 1.21 2.18 1.3 2.21 1.4 2.23 1.48 2.27 1.55 2.34 1.6 2.44 1.66 2.59 1.71 2.78 1.78 2.92 1.86 2.97 1.93 2.84 2 2.53 2.05 2.1 2.07 1.71 2.11 1.59 2.13 1.87 1.95 1.83 1.12" filter="url(#a)"/><path d="m7.98-88.85 1 .26 2.1.38 2.46.5 2.55.59 2.61.66 2.71.72 2.9.8 3.08.86 3.18.94 3.11 1.01 2.89 1.06 2.69 1.12 2.66 1.2 2.89 1.28 3.33 1.39 3.8 1.47L56-73.07l3.98 1.59 3.57 1.64 3.07 1.68 2.8 1.75 3.01 1.84 3.53 1.94 3.85 2.03 3.63 2.04 3.5 1.91 5.09 1.68" filter="url(#a)"/><path d="m6.49-88.78 2.49.21 2.19.26 2.09.38 2.3.47 2.68.56 3.2.64 3.69.73 4 .83 4.03.91 3.78 1 3.39 1.08 3.01 1.16 2.82 1.25 2.89 1.34 3.24 1.42 3.73 1.51 4.26 1.56 4.78 1.6 5.3 1.61 5.8 1.59 6.11 1.59 6.05 1.63 5.75 1.77 5.89 2.06 7.9 2.71" filter="url(#a)"/><path d="m6.49-88.78 1.72.21 1.59.26 1.86.38 2.03.47 2.04.56 2.01.64 2.01.73 2.03.83 2.07.91 2.1 1 2.11 1.08 2.11 1.16 2.09 1.25 2.05 1.34 2 1.42 1.97 1.51 1.91 1.56 1.86 1.6 1.78 1.61 1.71 1.59 1.66 1.59 1.66 1.63 1.71 1.77 1.86 2.06 2.34 2.71" filter="url(#a)"/><path d="m3.58-89.26 2.12.2 2.01.23 2 .3 2.26.39 2.58.48 2.83.57 2.98.65 3.05.72 3.01.8 2.9.86 2.76.94 2.66 1.01 2.68 1.06 2.85 1.14 3.18 1.2 3.57 1.3 3.91 1.38 4.01 1.47 3.83 1.55 3.43 1.6 2.95 1.65 2.58 1.71 2.49 1.77 2.71 1.85 3.15 1.94 3.66 2 4.03 2.05 4.25 2.08 4.58 2.15 5.5 2.35 6.55 2.58" filter="url(#a)"/><path d="m3.58-89.26 1.93.2 1.73.23 1.69.3 1.8.4 1.92.49 2.01.57 2.06.66 2.07.73 2.07.8 2.05.87 2.03.95 2.01 1.01 1.97 1.08 1.93 1.15 1.91 1.23 1.9 1.31 1.88 1.39 1.87 1.48 1.87 1.55 1.86 1.62 1.84 1.67 1.82 1.73 1.8 1.8 1.75 1.87 1.71 1.94 1.65 2 1.61 2.05 1.56 2.09 1.5 2.11 1.44 2.15 1.38 2.19 1.36 2.26 1.41 2.39 1.47 2.49 1.17 2.29" filter="url(#a)"/><path d="m3.58-89.26 2.24.2 1.91.23 1.73.3 1.91.4 2.3.49 2.67.57 2.86.66 2.85.73 2.73.8 2.62.87 2.56.95 2.6 1.01 2.67 1.08 2.73 1.15 2.76 1.23 2.75 1.31 2.73 1.39 2.73 1.48 2.82 1.55 2.99 1.62L58-69.57l3.62 1.73 4.05 1.8 4.5 1.87 4.92 1.94 5.22 2 5.31 2.05 5.13 2.09 4.75 2.11 4.29 2.15 4.09 2.19 4.35 2.26 4.84 2.39 4.92 2.49 5.04 2.29" filter="url(#a)"/><path d="m3.58-89.26 1.84.2 1.52.23 1.49.3 1.59.39 1.65.48 1.61.57 1.55.65 1.49.72 1.48.8 1.51.86 1.57.94 1.6 1.01 1.61 1.06 1.56 1.14 1.44 1.2 1.3 1.3 1.13 1.38.98 1.47.86 1.55.78 1.6.75 1.65.78 1.71.86 1.77.89 1.85.82 1.94.55 2 .08 2.05-.45 2.08-.74 2.15-.58 2.35-1 2.58" filter="url(#a)"/><path d="m1.94-89.18 2.52.06 2.41.24 2.23.28 2.2.33 2.26.4 2.33.48 2.44.57 2.64.65 2.89.75 3.13.83 3.29.93 3.33 1.02 3.29 1.1 3.2 1.2 3.12 1.27 3.06 1.37 3 1.44 2.99 1.51 3.01 1.56 3.15 1.61 3.34 1.63 3.57 1.68 3.73 1.71 3.77 1.78 3.67 1.86 3.47 1.93 3.23 2.01 3.01 2.09 2.93 2.17 3.11 2.26 3.6 2.31 4.09 2.27 4.12 2.05 3.58 1.8 2.5 2.07" filter="url(#a)"/></g><path fill="none" stroke="#000" stroke-linejoin="round" stroke-width="3" d="M-9.03 13.95Q11.24 28.98 1.105-5.16" filter="url(#a)"/><path fill="#D77F8C" stroke="#000" stroke-linejoin="round" stroke-width="3" d="m-21.42 55.05.59-.63.58-.61.59-.59.58-.58.58-.56.58-.54.57-.52.58-.51.57-.49.57-.47.56-.46.57-.44.56-.42.56-.41.55-.39.56-.38.55-.36.54-.34.55-.33.54-.31.54-.3.53-.28.54-.27.52-.26.53-.24.52-.22.52-.21.51-.2.52-.19.5-.17.51-.15.5-.15.49-.13.49-.12.49-.1.48-.09.48-.08.48-.07.47-.06.46-.04.46-.04.46-.02.45-.01.45.01.44.01.44.02.43.04.43.04.42.06.42.06.41.08.41.08.4.1.39.1.39.11.39.13.38.13.37.14.37.15.36.16.36.17.35.17.34.18.34.19.33.2.32.21.32.21.31.22.31.23.3.23.29.24.28.25.28.26.27.26.27.26.26.27.25.28.24.29.24.28.23.3.22.3.21.3.21.31.2.31.19.32.18.32.18.33.16.33.16.33.16.34.14.34.14.34.12.35.12.35.11.35.1.35.1.36.08.36.08.36.07.36-.07-.36-.08-.36-.08-.36-.1-.36-.1-.35-.11-.35-.12-.35-.12-.35-.14-.34-.14-.34-.16-.34-.16-.33-.16-.33-.18-.33-.18-.32-.19-.32-.2-.31-.21-.31-.21-.3-.22-.3-.23-.3-.24-.28-.24-.29-.25-.28-.26-.27-.27-.26-.27-.26-.28-.26-.28-.25-.29-.24-.3-.23-.31-.23-.31-.22-.32-.21-.32-.21-.33-.2-.34-.19-.34-.18-.35-.17-.36-.17-.36-.16-.37-.15-.37-.14-.38-.13-.39-.13-.39-.11-.39-.1-.4-.1-.41-.08-.41-.08-.42-.06-.42-.06-.43-.04-.43-.04-.44-.02-.44-.01-.45-.01-.45.01-.46.02-.46.04-.46.04-.47.06-.48.07-.48.08-.48.09-.49.1-.49.12-.49.13-.5.15-.51.15-.5.17-.52.19-.51.2-.52.21-.52.22-.53.24-.52.26-.54.27-.53.28-.54.3-.54.31-.55.33-.54.34-.55.36-.56.38-.55.39-.56.41-.56.42-.57.44-.56.46-.57.47-.57.49-.58.51-.57.52-.58.54-.58.56-.58.58-.59.59-.58.61" filter="url(#a)"/></svg>