<svg xmlns="http://www.w3.org/2000/svg" width="500" height="500" viewBox="-100 -100 200 200"><defs><clipPath id="c"><path d="m30.84-1.76-.23-.01-.25-.01-.28-.01-.3-.01-.34-.01-.36-.01-.39-.01-.43-.01-.46-.01-.48-.01-.52-.01-.56-.01-.58-.01-.61-.01-.65-.01-.51-.01-.58-.01-.64-.01-.69-.01-.76-.01-.81-.01-.87-.01h-.92l-.97-.01L16.63-2h-1.07l-1.1-.01-1.14-.01h-2.39L9.7-2.03H.61l-1.31.01h-1.31l-1.3.01H-4.6L-5.87-2l-1.25.01-1.23.01-1.21.01-1.18.01-1.15.02-1.12.01-1.09.02-1.05.01-1.02.02-.98.02-.95.03-.9.02-.87.02-.83.03-.79.02-.75.03-.71.03-.68.03-.63.03-.61.04-.56.03-.54.04-.5.03-.47.04-.43.04-.41.04-.37.05-.34.04-.3.04-.28.05-.25.05-.22.05-.18.05-.16.05-.14.06-.1.05.05.42.46.07.49.07.5.07.51.07.54.07.56.08.57.07.6.07.61.08.64.07.65.08.67.07.7.08.71.07.73.08.75.07.77.08.8.08.82.07.84.08.86.07.88.07.91.07.92.07.95.07.96.07.98.06 1 .06 1.01.06 1.03.06 1.04.05 1.05.05 1.07.05 1.07.04 1.08.03 1.08.04 1.09.03L.92 2l1.09.02 1.09.01 1.08.01 1.08.01h1.07l1.06-.01 1.05-.01 1.04-.02 1.02-.03 1-.03.98-.03.96-.04.94-.05.91-.05.88-.06.86-.06.82-.07.8-.07.76-.08.72-.08.69-.09.66-.09.62-.1.58-.1.54-.1.51-.1.55-.08.53-.07.51-.08.49-.08.47-.08.44-.08.43-.09.4-.08.38-.08.36-.08.34-.08.32-.08.3-.08.28-.08.26-.08"/></clipPath><clipPath id="b"><path d="m-31.42-1.4.22-.02.25-.01.28-.01.31-.01.33-.01.37-.01.4-.01.43-.01.46-.01.5-.01.53-.01.56-.01.6-.01.63-.01.66-.01.52-.01.58-.01.64-.01.71-.01.78-.01.83-.01.89-.01.94-.01h1l1.05-.01h1.1l1.14-.01h2.39l1.25-.01h6.57l1.35.01h1.36l1.36.01H.93l1.34.01h1.34l1.33.01 1.3.01 1.29.01 1.27.01 1.24.01 1.21.01 1.18.02 1.15.01 1.11.02 1.08.01 1.04.02 1.01.02.96.01.93.02.89.02.84.03.81.02.76.02.73.03.69.02.65.03.62.02.58.03.55.03.51.03.49.03.45.03.41.03.39.03.35.04.33.03.29.04.26.04.24.03.2.04.18.04.16.04.13.05-.38.41-.49.06-.5.05-.52.06-.54.06-.56.05-.58.06-.59.06-.62.06-.63.06-.65.05-.68.06-.69.06-.71.06-.73.06-.75.06-.78.06-.79.06-.82.06-.84.06-.86.06-.88.05-.91.06-.93.06-.95.05-.97.05-.99.06-1.01.05-1.03.04-1.05.05-1.06.04-1.07.04-1.09.04-1.1.04-1.11.03-1.12.03-1.12.02-1.13.02-1.13.02-1.13.01-1.13.01-1.13.01h-2.23l-1.11-.01-1.09-.01-1.07-.02-1.06-.02-1.04-.02-1.02-.03-.99-.04-.97-.03-.94-.05-.91-.04-.88-.05-.84-.06-.81-.06-.78-.06-.74-.07-.69-.07-.66-.07-.62-.07-.58-.08-.54-.08-.49-.08-.56-.07-.53-.06-.51-.06-.49-.06-.47-.07-.44-.06-.42-.07-.39-.06-.38-.07-.35-.06-.33-.07-.31-.06-.29-.06-.26-.06-.25-.06"/></clipPath><filter id="a"><feTurbulence baseFrequency=".05" numOctaves="3" result="noise" type="noise"/><feDisplacementMap in="SourceGraphic" in2="noise" scale="2"/></filter></defs><rect width="100%" height="100%" x="-100" y="-100" fill="#C3B091"/><path fill="#FBCEB1" stroke="#000" stroke-linejoin="round" stroke-width="1.667" d="m73.25-.61.07 3.02v.75l-.31 1.78-.15 3.18.4-3.05-.23 3.55-.09.01-.38 2.46.24.19-.18 2.04-.58 3.59.01.19.11-.61-.8 3.7-.01.37-.22 1.78-.45 1.16-.46 2.44-.74 2.68.5-1.01-1.21 3.8.65-2.4-.71 3.28-.87 1.75-.28.59-.84 2.91.49-1.13-1.51 4.1-.17-.18-.59 1.64-.65 1.27-.18.67-.13.75-1.5 2.82.07-.37-.66 1.82-.35.23-.83 1.37-1.52 2.85-.48 1.23-.01.31-.95 1.11-1.07 1.33-.38 1.32-.44.47-1.35 1.99-.52.08-.96 1.58-.34.84-.35.03-2.04 2.6.8-1.1-1.66 1.79-1.91 1.93.07-.01-1.01 1.25.16-.15-.6.63-2.6 2.86h.03l-1.49.93-.85.89.33-.32-1.9 1.88-1.37.53-1.66 1.6-1.12.27-.37.77-1.01.36-.81.73-.88.72-.36.31-1.44.36-1.58.69-1.74 1.35-1.23.46-.26.04-.72.49-1.36.68-.36.26-3.17 1.18-.94.23-.17-.21-1.31.71-.93.18-1.03.24.19.11-3.39.92.37-.35-.62.38-.92-.03-2.96.44-1.61.42-1.99.05.89-.15-2.12.19-.38.19-.75-.04-2.14-.18-1.61.23-.14-.02-.93.22-2.06-.28.69-.07-3.58-.08-1.23-.14.81-.15-1.08-.33-2.69-.38.03.28-2.47-.62-.38-.13-.11-.28-2.32-.17-.21-.58-.17.31-2.41-.7-.2-.2-2.27-.95-2.24-.88.35.18-.83-.48-.03-.09-3.37-1.4-.4-.22-1.16-.67-.15.14-2.02-1.1-1.21-.8-.76-.38-.83-.71.33.08-2.16-1.78-.24.1-1.95-1.2-1.74-1.44.6.72-.67-1.23-1.54-1.08-1.3-1.32-.49-.5-.61-.24-1.81-1.72-.35-.65-1.62-1.56-.32-.39.02.31-1.25-2.08-2.59-2.69-.66-.73-.1-.11-.61-1.07-.89-1.32.07.1-2.43-3.37-.13-.26.74 1.24-1.5-3.08-.6-.25-1.26-2.6-.62-.29-.19-.68-1.04-1.29.21.17-.76-1.62-.11-.33-.75-1.92-1.81-4.03.34 1.29-.23-.64-.2-.54-1.53-4.36-.52-1.36-.8-1.98-.42-.37-.17-2.14-.83-1.57.49.75-.65-1.61-.18-1.89h-.29l-.94-3.77.04.24v-.8l-.44-2.08-.31-.59-.24-1.19-.45-4.58-.04.89.07.46-.35-3.59-.27-1.91-.41-3.24.35 2.1-.15-3.33-.21-.46-.04-.16.07-3.64-.17-2.18.16-1.39.07-.59.05-2.66-.1 1.86.05-2.46.17-1.36.14-1.75-.03-3.58.23-.71.18-.82-.09-.05.19-.07.28-2.71.4-2.36.09-2.23-.08.46.15-.08.88-4.13.31-.3.09-1.2.22-.51.72-3.48-.22.62 1.06-2.62.53-1.7-.37 1.07.66-2.73.51-1.1.2-.73.68-2.4.51-1.2 1.1-1.63-.19.56.98-2.5 1.46-3.53-.26.97 1.07-2.04.8-2.17.05.33 1.3-2.26.2-.47 1.31-2.05-.02.13.34-.58-.14-.11 2.8-4.16-.48.71 1.31-1.48.2-.51 1.98-2.74-.42.78 2.5-2.84-.98.78 1.04-.88.5-1.08 2.01-1.7-.24-.13.55-.45.68-.37 1.93-1.82 1.2-1.28 1.03-.99-.01.01 1.97-1.44-.53.29 2.32-1.63.01-.11 2.93-2.49.54-.45 1.38-.43.04-.15 1.99-1.25h.12l.78-.7 2.41-1.27.87-.37.36-.07 1.58-.74.18-.3 1.13-.3 1.84-1.04.32.09 1.99-.56 1.31-.67-1.19.27 1.64-.5 1.81-.39 1.97-.49.44-.12.69.04 2.15-.71-1.24.38 4.14-.6 1.62-.35.9-.24-1.65.5 1.78-.55 2.21-.01 2.06-.24-.24.06 2.39-.12-.92.16 2.67.16.88-.11 2.56.18.98.01.82.53-.01-.22 2.35.37-.7-.17 1.7.36-.76-.11 1.7.42 3.84.81-.09-.2 1.39.52.78.37.56.04 1.19.51.95.61 2.88 1.01-.8-.24.56-.12 1.53.78 1.73.53 1.28 1.07.45.17 2.25 1.16.24.12.7.4 1.14.91 1.67.75-.52-.29 1.55 1.29 1.94 1.49 1.48.64.16.25-.05.08 1.92 1.3-.03.55 1.73 1.41 1.14.64 1.83 1.75-.63-.27 2.62 2.73-.16-.5.34.78.77.64.83 1 .51.73 1.86 1.78 1.28 1.58 1.04 1.6.03.22.61.62.2.49 2.6 3.74.41.41 1.23 2.28-.16-.7.36.91.23.28.34 1.02 1.22 2.1.4.8 1.1 2.14.38.43 1.05 2.57-.27-.34 1.42 2.71.27.85-.2-.34.6 1.21.76 2.34.69 2.69-.3-1.44 1.11 2.61.26.91.52 2.22-.25-.45.28 1.02 1.16 3.53.2 1.21-.1.35.03-.07.48 2.07.57 2.24.13 1.59.39 2.99.4.85-.22.63.31 2.34.08 1.14.31 1.62-.1-1.24.15 2.24.01 2.3.26 2.3.11-.19.04.84-.07 2.52.07 3.02" filter="url(#a)"/><path fill="#fff" d="m-31.42-1.4.22-.02.25-.01.28-.01.31-.01.33-.01.37-.01.4-.01.43-.01.46-.01.5-.01.53-.01.56-.01.6-.01.63-.01.66-.01.52-.01.58-.01.64-.01.71-.01.78-.01.83-.01.89-.01.94-.01h1l1.05-.01h1.1l1.14-.01h2.39l1.25-.01h6.57l1.35.01h1.36l1.36.01H.93l1.34.01h1.34l1.33.01 1.3.01 1.29.01 1.27.01 1.24.01 1.21.01 1.18.02 1.15.01 1.11.02 1.08.01 1.04.02 1.01.02.96.01.93.02.89.02.84.03.81.02.76.02.73.03.69.02.65.03.62.02.58.03.55.03.51.03.49.03.45.03.41.03.39.03.35.04.33.03.29.04.26.04.24.03.2.04.18.04.16.04.13.05-.38.41-.49.06-.5.05-.52.06-.54.06-.56.05-.58.06-.59.06-.62.06-.63.06-.65.05-.68.06-.69.06-.71.06-.73.06-.75.06-.78.06-.79.06-.82.06-.84.06-.86.06-.88.05-.91.06-.93.06-.95.05-.97.05-.99.06-1.01.05-1.03.04-1.05.05-1.06.04-1.07.04-1.09.04-1.1.04-1.11.03-1.12.03-1.12.02-1.13.02-1.13.02-1.13.01-1.13.01-1.13.01h-2.23l-1.11-.01-1.09-.01-1.07-.02-1.06-.02-1.04-.02-1.02-.03-.99-.04-.97-.03-.94-.05-.91-.04-.88-.05-.84-.06-.81-.06-.78-.06-.74-.07-.69-.07-.66-.07-.62-.07-.58-.08-.54-.08-.49-.08-.56-.07-.53-.06-.51-.06-.49-.06-.47-.07-.44-.06-.42-.07-.39-.06-.38-.07-.35-.06-.33-.07-.31-.06-.29-.06-.26-.06-.25-.06" filter="url(#a)" transform="translate(31.93 -24.69)"/><path fill="#fff" d="m30.84-1.76-.23-.01-.25-.01-.28-.01-.3-.01-.34-.01-.36-.01-.39-.01-.43-.01-.46-.01-.48-.01-.52-.01-.56-.01-.58-.01-.61-.01-.65-.01-.51-.01-.58-.01-.64-.01-.69-.01-.76-.01-.81-.01-.87-.01h-.92l-.97-.01L16.63-2h-1.07l-1.1-.01-1.14-.01h-2.39L9.7-2.03H.61l-1.31.01h-1.31l-1.3.01H-4.6L-5.87-2l-1.25.01-1.23.01-1.21.01-1.18.01-1.15.02-1.12.01-1.09.02-1.05.01-1.02.02-.98.02-.95.03-.9.02-.87.02-.83.03-.79.02-.75.03-.71.03-.68.03-.63.03-.61.04-.56.03-.54.04-.5.03-.47.04-.43.04-.41.04-.37.05-.34.04-.3.04-.28.05-.25.05-.22.05-.18.05-.16.05-.14.06-.1.05.05.42.46.07.49.07.5.07.51.07.54.07.56.08.57.07.6.07.61.08.64.07.65.08.67.07.7.08.71.07.73.08.75.07.77.08.8.08.82.07.84.08.86.07.88.07.91.07.92.07.95.07.96.07.98.06 1 .06 1.01.06 1.03.06 1.04.05 1.05.05 1.07.05 1.07.04 1.08.03 1.08.04 1.09.03L.92 2l1.09.02 1.09.01 1.08.01 1.08.01h1.07l1.06-.01 1.05-.01 1.04-.02 1.02-.03 1-.03.98-.03.96-.04.94-.05.91-.05.88-.06.86-.06.82-.07.8-.07.76-.08.72-.08.69-.09.66-.09.62-.1.58-.1.54-.1.51-.1.55-.08.53-.07.51-.08.49-.08.47-.08.44-.08.43-.09.4-.08.38-.08.36-.08.34-.08.32-.08.3-.08.28-.08.26-.08" filter="url(#a)" transform="translate(-35.24 -21.08)"/><g fill="none" stroke="#000" transform="translate(31.93 -24.69)"><path stroke-linejoin="round" stroke-width="1.667" d="m-32.62-1.28.07-.02.08-.01.08-.01.09-.01.1-.01.12-.02.13-.01.16-.01.17-.01.2-.01.22-.02.25-.01.28-.01.31-.01.33-.01.37-.01.4-.01.43-.01.46-.01.5-.01.53-.01.56-.01.6-.01.63-.01.66-.01.52-.01.58-.01.64-.01.71-.01.78-.01.83-.01.89-.01.94-.01h1l1.05-.01h1.1l1.14-.01h2.39l1.25-.01h6.57l1.35.01h1.36l1.36.01H.93l1.34.01h1.34l1.33.01 1.3.01 1.29.01 1.27.01 1.24.01 1.21.01 1.18.02 1.15.01 1.11.02 1.08.01 1.04.02 1.01.02.96.01.93.02.89.02.84.03.81.02.76.02.73.03.69.02.65.03.62.02.58.03.55.03.51.03.49.03.45.03.41.03.39.03.35.04.33.03.29.04.26.04.24.03.2.04.18.04.16.04.13.05.1.04.08.04.05.05.03.04.01.05-.01.05-.03.05-.05.05-.07.05-.09.05" filter="url(#a)"/><path stroke-linejoin="round" stroke-width="2.222" d="m-32.16-.77.11.03.11.03.12.04.14.04.14.05.16.05.18.05.19.05.21.06.23.06.25.06.26.06.29.06.31.06.33.07.35.06.38.07.39.06.42.07.44.06.47.07.49.06.51.06.53.06.56.07.49.08.54.08.58.08.62.07.66.07.69.07.74.07.78.06.81.06.84.06.88.05.91.04.94.05.97.03.99.04 1.02.03 1.04.02 1.06.02 1.07.02 1.09.01 1.11.01h2.23l1.13-.01 1.13-.01 1.13-.01 1.13-.02 1.13-.02 1.12-.02 1.12-.03 1.11-.03 1.1-.04 1.09-.04 1.07-.04 1.06-.04 1.05-.05 1.03-.04 1.01-.05.99-.06.97-.05.95-.05.93-.06.91-.06.88-.05.86-.06.84-.06.82-.06.79-.06.78-.06.75-.06.73-.06.71-.06.69-.06.68-.06.65-.05.63-.06.62-.06.59-.06.58-.06.56-.05.54-.06.52-.06.5-.05.49-.06.47-.05.45-.05.43-.06.42-.05.4-.05.38-.05.37-.05.36-.05.34-.04.32-.05" filter="url(#a)"/><circle cx="-18.721" cy=".998" r="4.206" clip-path="url(#b)" filter="url(#a)"/><circle cx="-20.656" cy="-2.517" r="3.948" clip-path="url(#b)" filter="url(#a)"/><circle cx="-21.331" cy="-2.547" r="3.952" clip-path="url(#b)" filter="url(#a)"/><circle cx="-17.751" cy="-.172" r="3.226" clip-path="url(#b)" filter="url(#a)"/><circle cx="-19.701" cy=".813" r="3.46" clip-path="url(#b)" filter="url(#a)"/><circle cx="-19.371" cy="-2.147" r="4.99" clip-path="url(#b)" filter="url(#a)"/><circle cx="-18.516" cy="-.142" r="4.408" clip-path="url(#b)" filter="url(#a)"/><circle cx="-18.401" cy="-2.862" r="3.812" clip-path="url(#b)" filter="url(#a)"/><circle cx="-21.321" cy="1.923" r="4.374" clip-path="url(#b)" filter="url(#a)"/><circle cx="-17.581" cy="2.053" r="3.31" clip-path="url(#b)" filter="url(#a)"/></g><g fill="none" stroke="#000" transform="translate(-35.24 -21.08)"><path stroke-linejoin="round" stroke-width="2.222" d="M32.07-1.64 32-1.65l-.08-.02-.09-.01-.09-.01-.11-.01-.12-.01-.14-.01-.15-.02-.18-.01-.2-.01-.23-.01-.25-.01-.28-.01-.3-.01-.34-.01-.36-.01-.39-.01-.43-.01-.46-.01-.48-.01-.52-.01-.56-.01-.58-.01-.61-.01-.65-.01-.51-.01-.58-.01-.64-.01-.69-.01-.76-.01-.81-.01-.87-.01h-.92l-.97-.01L16.63-2h-1.07l-1.1-.01-1.14-.01h-2.39L9.7-2.03H.61l-1.31.01h-1.31l-1.3.01H-4.6L-5.87-2l-1.25.01-1.23.01-1.21.01-1.18.01-1.15.02-1.12.01-1.09.02-1.05.01-1.02.02-.98.02-.95.03-.9.02-.87.02-.83.03-.79.02-.75.03-.71.03-.68.03-.63.03-.61.04-.56.03-.54.04-.5.03-.47.04-.43.04-.41.04-.37.05-.34.04-.3.04-.28.05-.25.05-.22.05-.18.05-.16.05-.14.06-.1.05-.08.06-.06.06-.03.06-.01.06.02.06.04.06.06.07.08.06.1.07.12.07" filter="url(#a)"/><path stroke-linejoin="round" stroke-width="2.222" d="m31.49-1-.11.04-.12.04-.13.05-.15.05-.16.06-.17.06-.19.07-.21.07-.22.07-.24.07-.26.08-.28.08-.3.08-.32.08-.34.08-.36.08-.38.08-.4.08-.43.09-.44.08-.47.08-.49.08-.51.08-.53.07-.55.08-.51.1-.54.1-.58.1-.62.1-.66.09-.69.09-.72.08-.76.08-.8.07-.82.07-.86.06-.88.06-.91.05-.94.05-.96.04-.98.03-1 .03-1.02.03-1.04.02-1.05.01-1.06.01H5.26l-1.08-.01-1.08-.01-1.09-.01L.92 2l-1.09-.02-1.09-.03-1.08-.04-1.08-.03-1.07-.04-1.07-.05-1.05-.05-1.04-.05-1.03-.06-1.01-.06-1-.06-.98-.06-.96-.07-.95-.07-.92-.07-.91-.07-.88-.07-.86-.07-.84-.08-.82-.07-.8-.08-.77-.08-.75-.07-.73-.08-.71-.07-.7-.08-.67-.07-.65-.08-.64-.07-.61-.08-.6-.07-.57-.07-.56-.08-.54-.07-.51-.07-.5-.07-.49-.07-.46-.07-.44-.07-.43-.07-.41-.07-.39-.06-.37-.07-.36-.06-.34-.06-.33-.06-.31-.06-.29-.06" filter="url(#a)"/><circle cx="-9.329" cy="2.26" r="4.528" clip-path="url(#c)" filter="url(#a)"/><circle cx="-6.184" cy="1.87" r="4.82" clip-path="url(#c)" filter="url(#a)"/><circle cx="-6.154" cy="-.155" r="3.58" clip-path="url(#c)" filter="url(#a)"/><circle cx="-10.389" cy="-.715" r="3.532" clip-path="url(#c)" filter="url(#a)"/><circle cx="-9.569" cy="1.94" r="3.434" clip-path="url(#c)" filter="url(#a)"/><circle cx="-6.389" cy=".61" r="3.73" clip-path="url(#c)" filter="url(#a)"/><circle cx="-9.649" cy="-.475" r="4.102" clip-path="url(#c)" filter="url(#a)"/><circle cx="-10.444" cy="-.06" r="4.536" clip-path="url(#c)" filter="url(#a)"/><circle cx="-7.674" cy="-1.595" r="3.15" clip-path="url(#c)" filter="url(#a)"/><circle cx="-7.099" cy="-.665" r="3.298" clip-path="url(#c)" filter="url(#a)"/></g><g fill="none" stroke="#708090" stroke-linejoin="round" stroke-width="2"><path d="m-38.16-77.36 2.27-1.62 1.89-.7 1.99-.26 2.27-.07 2.62.05 2.97.13 3.32.24 3.63.36 3.91.51 4.13.65 4.33.77 4.52.85 4.68.88 4.82.9 4.94.93 5.04.99 5.13 1.06 5.15 1.1 5.13 1.04 5.03.89 4.91.79" filter="url(#a)"/><path d="m-41.93-74.47 1.53-.91 1.74-.64 2.36-.67 2.93-.71 3.41-.64 3.76-.52 4.03-.38 4.28-.28 4.53-.22 4.78-.2 5.03-.17 5.27-.13 5.47-.05 5.6.05 5.62.08 5.49.01 5.21-.24" filter="url(#a)"/><path d="m57.66-56.1.43.71.13.59-.28.28-.61.1-.89.05-1.15.03-1.46-.03-1.82-.15-2.21-.34-2.65-.58-3.13-.85-3.64-1.16-4.15-1.46-4.67-1.76-5.18-2.06-5.68-2.33-6.22-2.58-6.81-2.86-7.44-3.17-8.05-3.5-8.57-3.84m-1.55-7.28 1.84-.33 1.92-.18 2.01-.06 2.23.02 2.53.07 2.82.12 3.01.15 3.08.18 3 .21 2.89.23 2.81.22 2.74.19 2.64.18 2.52.25 2.6.43m2.92.37 1.53.73 1.51.78 1.43.81 1.37.8 1.3.78 1.23.74 1.14.71 1.06.66.98.63.89.58.79.52.66.43.45.3.18.13-.12-.08-.43-.27-.7-.46-.94-.62-1.25-.83-1.63-1.12m-29.35-9.9 1.89.15 1.23.16.88.15.7.11.54.1.36.07.18.08.04.09-.12.08-.37.08-.75.05-1.3.02-1.92-.02-2.47-.06-2.81-.13-2.88-.24" filter="url(#a)"/><path d="m8.07-90.42 1.32.22.47.17.24.24.22.33.16.42-.03.51-.38.57-.83.63-1.3.73-1.77.84-2.22.95-2.67 1.04-3.15 1.13-3.64 1.19-4.16 1.29-4.71 1.42-5.3 1.63-5.97 1.84-6.67 1.99-7.28 1.96" filter="url(#a)"/><path d="m8.08-90.2.46-.04.52.13.24.2.05.3-.06.4-.18.52-.43.61-.81.72-1.28.81-1.76.91-2.23 1.01-2.69 1.12-3.16 1.23-3.68 1.35-4.24 1.49-4.85 1.63-5.41 1.77-5.91 1.86-6.41 1.89-7.05 2M59.5-53.2l.31.58.5 1 .58 1.15.55 1.1.45.98.32.8.18.61.03.39-.13.16-.3-.08-.48-.32-.66-.57-.87-.82-1.08-1.11-1.3-1.43-1.53-1.77-1.76-2.11-1.99-2.46-2.24-2.81-2.54-3.2-2.92-3.65-3.34-4.19-3.56-4.7m27.92 35.01-.09.12-.12.62-.41.55-.8.13-1.25-.36-1.72-.84-2.23-1.3-2.76-1.76-3.34-2.22-3.93-2.7-4.52-3.21-5.12-3.77-5.75-4.4-6.4-5-7.15-5.56-8.03-6.09-9.07-6.64m-43.44 7.45 1.68-1.23 1.4-1.11 1.34-1.03 1.2-.86 1.02-.68.85-.53.7-.43.55-.32.38-.18.14-.01-.13.2-.44.42-.77.64-1.09.85-1.42 1.06-1.79 1.35-2.28 1.73-2.97 2.3" filter="url(#a)"/><path d="m-7.98-90.18 1.23-.23.8-.06.96.01 1.34.02 1.62.03 1.74.07 1.76.1 1.73.14 1.71.16 1.69.17 1.65.18 1.55.18 1.41.18 1.23.16 1.01.14.79.1.59.05.42.01.26-.02.08-.04-.21-.09-.76-.19-1.63-.34m48.3 39.65.54 1.06.58 1.18.48 1.05.33.88.17.67.01.44-.15.23-.32.02-.48-.16-.65-.36-.83-.59-1.05-.88-1.28-1.19-1.54-1.53-1.8-1.86-2.06-2.2-2.31-2.54-2.59-2.9-2.88-3.3-3.22-3.76-3.6-4.26-3.98-4.73-4.43-5.22" filter="url(#a)"/><path d="m34.09-80.64 1.27 1.21.59 1.02-.31.78-1.14.66-1.88.68-2.53.78-3.2.9-3.89.99-4.67 1.04-5.48 1.05-6.37 1.03-7.3 1-8.25.99-9.2.95-10.08.92-11.03 1.01m91.28 1.28.79 1.34-.08.92-.82.63-1.4.6-1.95.62-2.58.59-3.31.43-4.15.17-5.03-.1-5.91-.29-6.76-.41-7.58-.49-8.36-.57-9.15-.69-10.03-.83-11.02-.95-12.06-1.06" filter="url(#a)"/><path d="m47.93-68.5.58.72.3.87.05 1.03-.3 1.1-.76 1.06-1.28.96-1.81.87-2.28.84-2.76.83-3.24.81-3.77.74-4.35.64-4.97.51-5.59.44-6.19.42-6.77.44-7.33.51-7.91.55-8.49.52-9.05.4-9.59.14-10.22-.03M6.28-90.74l.7.17.32.3v.38l-.34.48-.72.62-1.05.79-1.36.98-1.68 1.16-2.08 1.34-2.59 1.53-3.2 1.72-3.84 1.9-4.49 2.11-5.15 2.37-5.82 2.65-6.53 2.92-7.25 3.12-7.88 3.1" filter="url(#a)"/><path d="m63.95-44.2.8 1.81.03.82-.4.5-.71.44-1.04.34-1.39.14-1.79-.11-2.21-.39-2.64-.65-3.1-.91-3.56-1.15-4.02-1.4-4.5-1.68-4.99-1.97-5.5-2.29-6.03-2.58-6.58-2.84L9.2-59.2l-7.66-3.36-8.19-3.72-8.73-4.17-9.3-4.68" filter="url(#a)"/><path d="m65.64-40.64.05.23.3.95.3 1.06.18.85.05.56-.11.3-.27.03-.46-.22-.66-.51-.86-.81-1.09-1.15-1.33-1.54-1.57-1.94-1.8-2.35-2.05-2.72-2.3-3.09-2.62-3.55-2.99-4.1-3.4-4.75-3.7-5.4-3.92-5.88M10.42-90.05l-.08-.02.38.14.62.22.75.29.67.33.42.34.08.36-.26.37-.58.41-.89.44-1.19.46-1.53.48-1.9.5-2.29.52-2.69.58-3.1.64-3.53.69-3.99.72-4.48.72-5.02.72-5.65.78-6.46 1.07m16.14-9.88.62-.11.95-.17 1.17-.22 1.32-.22 1.34-.22 1.19-.19.99-.16.8-.11.67-.07.54-.04h.35l.1.06-.21.11-.53.16-.82.21-1.16.27-1.58.32-2.12.39-2.67.45-2.92.44" filter="url(#a)"/><path d="m11.42-89.86.19.08 1.26.29 1.39.31 1.11.28.76.23.44.21.18.19-.07.17-.32.14-.65.07-1.01.01-1.43-.05-1.84-.09-2.23-.13-2.61-.19-3.02-.27-3.7-.34-4.93-.36" filter="url(#a)"/><path d="m-1.3-91.01 1.41-.01.89.11.91.18.83.23.58.32.24.4-.14.48-.51.57-.83.65-1.14.75-1.41.88-1.67 1.01-1.95 1.16-2.25 1.3-2.61 1.42-3.03 1.54-3.49 1.66-3.93 1.8-4.38 1.93-4.81 2.07-5.28 2.21-5.84 2.37-6.53 2.66" filter="url(#a)"/><path d="m-13.03-89.25 1.42-.39 1.47-.22 1.79-.22 1.76-.19 1.54-.15 1.38-.12 1.33-.1 1.27-.1L0-90.83l.71-.07.29-.05-.1-.03-.42-.03-.73-.02m-40.24 15.41 1.87-1.21 1.96-1.05 2.29-.97 2.51-.81 2.71-.66 2.91-.57 3.14-.53 3.38-.53 3.61-.51 3.78-.51 3.9-.47 3.95-.44 3.95-.43 3.91-.44 3.87-.45 3.82-.44 3.85-.34 4.12-.12M3.72-90.92l1.9.15 1.23.16.9.15.75.13.62.1.49.09.37.1.28.11.16.11-.03.11-.32.09-.73.06-1.21.03H6.44l-2.1-.03-2.39-.07-2.63-.15-3.12-.23" filter="url(#a)"/><path d="m-5.33-90.82 1.89-.06 1.34-.06.98-.02.8.04.74.09.68.13.58.17.39.21.1.26-.23.3-.56.34-.88.39-1.17.44-1.45.51-1.72.59-2 .67-2.32.77-2.69.84-3.12.9-3.57.95-4.06 1-4.6 1.14-5.32 1.48M59.5-53.2l.13.49-.03.76-.33.77-.74.61-1.2.36-1.72.09-2.26-.22-2.82-.53-3.41-.85-4.02-1.17-4.62-1.46-5.22-1.74-5.83-2-6.47-2.31-7.15-2.62-7.88-2.95-8.63-3.26-9.34-3.6-10.05-3.97" filter="url(#a)"/><path d="m60.07-51.9.92 1.63.69 1.29.56 1.11.4.92.24.68.06.42-.13.14-.32-.14-.5-.42-.71-.7-.92-1.01-1.19-1.38-1.48-1.81-1.81-2.3-2.16-2.8-2.5-3.31-2.8-3.82-3.05-4.26-3.15-4.59m-9.28-8.85 1.02.49.72.51.79.64.72.62.52.51.25.39.03.3-.18.27-.37.22-.6.17-.86.08-1.17-.03-1.52-.18-1.89-.35-2.3-.51-2.7-.69-3.1-.83-3.45-.96-3.77-1.1-4.12-1.23-4.64-1.39-5.41-1.57-6.16-1.85" filter="url(#a)"/><path d="m45.13-71.51 1.51 1.61.39.68-.06.47-.29.48-.51.53-.74.56-1.05.54-1.45.46-1.89.31-2.36.18-2.83.06-3.3-.05-3.77-.15-4.28-.31-4.83-.51-5.42-.73-6.02-.92-6.64-1.02-7.27-1.03-7.9-1.03-8.49-1.08-8.96-1.37" filter="url(#a)"/><path d="m50.04-66.13 1.49 1.57.93 1.23.47.87.14.61-.06.5-.22.43-.43.32-.7.11-1.05-.18-1.44-.5-1.82-.78-2.21-1.01-2.57-1.19-2.94-1.37-3.32-1.57-3.71-1.82-4.13-2.1-4.6-2.41-5.13-2.73L13-79.2l-6.3-3.4-6.51-3.79m38.98 9.5 1.29 1.03.92.86.85.8.71.68.46.54.15.32-.22.06-.61-.21-.99-.5-1.36-.75-1.71-.96-2.05-1.2-2.49-1.49-3.06-1.88-3.73-2.38-4.34-2.88" filter="url(#a)"/><path d="m59.3-53.41.01-.18.2.36.32.65.4.83.44.91.39.86.3.73.15.53-.01.29-.19.04-.37-.22-.55-.5-.74-.78-.95-1.07-1.19-1.38-1.45-1.73-1.73-2.14-2.03-2.56-2.32-2.99-2.57-3.4-2.77-3.78L41.81-73m-72.97-9.13 1.12-.76 1.22-.68.96-.46.68-.29.46-.15.28-.02.1.11-.12.27-.41.47-.76.7-1.19.99-1.63 1.26-2.03 1.55-2.4 1.78-2.79 2.03-3.31 2.37-4.02 2.88m65.98-16.81 1.55.58.45.27.22.32.12.47-.07.6-.38.67-.77.72-1.23.75-1.69.77-2.15.81-2.62.85-3.07.9-3.54.97-4.04 1.05-4.58 1.14-5.17 1.2-5.79 1.22-6.37 1.21-6.91 1.2-7.5 1.29-8.19 1.51m64.37-17.85 1.55.76 1.57.86 1.52.93 1.49.96 1.47.98 1.43.98 1.42 1 1.4 1.01 1.38 1 1.33.99 1.28.94 1.18.87 1.05.77.91.68.74.56.58.43.4.29.17.08-.13-.18-.53-.5-1.07-.87" filter="url(#a)"/><path d="m59.5-53.2.21.46.19.67.06.6-.2.34-.55-.05-.97-.48-1.42-.98-1.93-1.51-2.46-2.09-2.99-2.66-3.52-3.24-4.05-3.77-4.64-4.34-5.36-5.06-6.17-5.95" filter="url(#a)"/><path d="m-23.85-85.88 1.7-.54 2.12-.05 2.63.22 3.09.47 3.6.66 4.14.81 4.65.93 5.06 1.06 5.38 1.2 5.66 1.37 5.92 1.52 6.17 1.64 6.34 1.68 6.38 1.63" filter="url(#a)"/><path d="m-31.28-82.13.59-.25 1.38-.54 1.8-.55 1.97-.46 2.09-.38 2.23-.34 2.39-.31 2.55-.3 2.69-.27 2.79-.25 2.82-.23 2.82-.2 2.8-.19 2.78-.2 2.75-.18 2.72-.17 2.64-.14 2.54-.09 2.37-.08 2.09-.15 1.77-.28m-7.58-2.53 1.09.25 1.09.29 1.46.36 1.6.4 1.48.38 1.29.37 1.1.35.96.33.84.31.7.27.5.2.27.1.02.01-.24-.09-.49-.16-.82-.24-1.28-.38-1.97-.56-2.92-.83m39.82 27.69L17.99-63.8l5.41-1.27 4.34-4.18-2.45-3.87-6.46-1.98-6.87-.52-4.62-.23-.8-.67 3.32-.85 5.81-.31 4.76.59-.34 1.28-7.17 1.93L2.36-70.5l-5.93 5.66-1.02 5.25-45.05-6.97" filter="url(#a)"/><path d="m-42.95-73.49 47.3 14.27 11.38 2.65 8.45-1.47 5.02-3.35.72-3.3-1.55-1.95-.86-.2L29-65.8l3.25 1.3 2.76.58-.04-.63-3.53-1.71-5.45-2.21-4.57-1.95-1.97-1.02-.23.59-.1 3.09 3.34 6.41 17.32 8.84 23.01 5.65" filter="url(#a)"/><path d="m-10.88-89.96 8.58 6.13 22.94 9.75 17.07 10 5.63 6.6-5.37 1.87-11.89-1.88-12.24-3.71-7.95-4.07-2.42-3.82 1.35-3.54 2.34-3.26 1.48-2.72.49-1.77.62-.47 1.7.79 2.49 1.54 1.62 1.4-1.19.32-4.61-1.21-6.54-2.3-6.43-2.41-5.68-2.09-2.64-2.44 12.62-3.88" filter="url(#a)"/><path d="m-6.36-90.53.23 7.11 14.29 5.77 6.1 6-3.42 2.79-7.79-1.87-7.9-4.29-7.2-3.2-7.45.06-7.26 3.13-3.68 4.32 4.86 3.49 15.61 2.12 19.09 1.97-1.63 3.04-64.88 3.88" filter="url(#a)"/><path d="M54.86-60.33 25.44-78.44 5.98-83.11l-14.21 2.57-7.12 5.04 1.43 4.63 6.76 2.94 6.36.84 1.89-1.07-2.96-2.32-4.99-2.68-3.1-2.41 1.47-2.16 5.85-2.54 7.84-3.21 9.46-2.48 12.22 1.03" filter="url(#a)"/><path d="m-21.69-86.83 34.32 13.41-.54 2.77.83 5.21 2.27 4.83-.49 1.34-2.61-1.92-2.01-3.05-.27-2.21.67-.65.71.56 1.33.98 3.47.66 5.75-.36 5.42-1.86 1.48-3-2.32-2 1.36 2.91 15.1 9.9L59.5-53.2" filter="url(#a)"/><path d="m17.5-88.42-.6 2.21-11.65 3.15-10.18 3.3-4.85 2.4-2.62.89-2.85-.57-2.6-1.34-.33-1.52 3.7-1.58 7.97-1.82 10.45-1.9 9.46-1.39 5.46-.57 1.69.02 3.31 1.26" filter="url(#a)"/><path d="m-23.85-85.88 12.92.57 12.3 6.71 7.76 6.36 1.07 4.06-2.88 1.28-5.3-1.52-7.55-3.12-8.49-2.68-6.2-.7-.71 1.23 5.08 1.53 6.46-.2 1.92-2.52 2.7-2.79 39.38-2.68" filter="url(#a)"/><path d="m61.69-49-32.3-22.24-3.52-2.34-3.92.83-6.36.28-5-.02-1.64.09 1.6.58 3.56 1.46 3.56 2.19 1.65 1.91-1.1.24-3.12-2.17-3.58-4.1-2.91-4.56-2.33-3.45-2.4-1.3-2.13 1.13 1.92 3.41 16.62 7.18 42.88 23.45" filter="url(#a)"/><path d="m7.26-90.73-1.38 1.55-.69 5.48 3.58 5.81 2.99 2.62-1.55-.31-5.43-1.15-5.75-.34-2.76 1 1 1.91 2.89 1.98 1.87 1.23-.99.03-3.41-1.18-3.62-2.08-1.28-2.47 2.47-2.34 6.01-1.68 8.04-.43 7.96 1.44 5.94 3.81 3 6.25 4.22 9.94 38.74 29.79" filter="url(#a)"/><path d="m-23.85-85.88 14.39 3.62L5.2-69.95l12.22 8.75 4.61 2.42-.88-1.21-3.37-2.29-4.34-2.73-4.38-3.46-3.29-4.17-1.15-4.18 1.26-3.21 2.75-1.53 2.4.25.38 1.7-1.84 2.54-2.49 2.42-1.36.97.6-.66 9.18 3.46 47.29 24.02" filter="url(#a)"/><path d="M42.79-73.63 29.2-79.76l-9.85 2.12-2.76 4.34 1.42 2.19 2.18-.34 2.01-1.36 2.1-1.07 2.06-.39 1.28-.06-.16-.37-1.51-1.15-2.09-1.99-1.82-2.38-1.26-2.05-1.01-.95-.97.91-.01 3.56 2.88 6.91 5.04 9.56-6.91 5.98-61.74-18.18" filter="url(#a)"/><path d="m-47.31-69.57 39.99 2.51 6.14-1.68L5-72.96l7.82-3.58 7.21-1.98 5.14-.72 2.83.1 1.18.81.28 1.61-.28 2.37-1.11 2.74-2.29 2.52-3.29 1.77-3.34.89-1.99.36.53.41 3.3.82 4.85 1.06 3.57.63-1.1-.47-6.19-1.23-3.55.13 14.62 4.62 29.6 13.24" filter="url(#a)"/><path d="M69.08-30.44 25.14-66.67 10.86-77.74l.85-2.49 3.84.29.88 1.18-2.68 1.64-3.25 1.88-.57 1.32 2.23-.33 1.67-2.25-2.76-2.98-7.48-2.09-6.71-1.24 2.01-3.02 1.28-5.14m-8.15.79-10.53 15.74 3.4 4.62 2.45 2.15 4.17.33 2.92-1.47-1.64-2.1-5.35-1.26-5.24.38-1.56 1.92 3.22 2.92 6.4 3.3 6.62 3.13L.86-58.3l-.54.35-5.85-2.39-10.62-5.04-13.01-5.27-12.63.58-15.6 13.86" filter="url(#a)"/><path d="m-10.88-89.96 25.8 7.78 11.99 7.77 4.13 6.39-.71 4.34-3.84.85-4.15-2.18-1.88-3.08 1.34-1.93 3.77.01 4.29 1.44 2.6 1.84-.65 1.47-4.28.76-7.14-.18-8.64-1.57-8.73-3.58-7.43-5.8-4.67-7.01-2.45-5.24-8.17.49" filter="url(#a)"/><path d="M-40.49-75.62 7.4-67.35l1.55-3.04-3.23-1.87-2.93-1.6-3.7-1.96-3.12-1.65-.39-.8 2.69.05 4.09.52 3.35.58 1.59.35-.15-.01-1.86-.36-3.81-.52-4.83-.4-2.33-.45 3.87-1.54 9.62-2.92 23.99.96" filter="url(#a)"/><path d="M53.18-62.77 23.75-76.91l-1.82-3.81-.46-1.49-.61.28 1.68 2.15 3.6 2.87 2.68 1.92-1.14.13-6.31-1.23-10.9-1.39-13.48-.51-13.26.63-10.28 1.14-5.3.55.31-.96 4.7-2.61 6.3-3.48 4.79-2.92 2.95-1.22 7.65.45 29.01.53" filter="url(#a)"/><path d="m-49.08-67.74 67.22 11.71 17.11-2.88.1-4.77-3.97-4.19-2.45-2.46.14-.91 1.24-.25.37-.11-1.37.36-2.31 1.6-1.28 3.06 1.59 3.79 4.62 3.23 5.12 1.46 1.19-1.09-6.07-4.44-11.8-8.45L9.63-82.63l-15.99-7.9" filter="url(#a)"/><path d="m20.03-87.5-5.06-1.01-2.19 1.47-3.34 3.06-1.31 3.88 2.45 3.17 3.89 1.07 1.81-1.25-2.15-2.61-5.71-2.52-7.41-1.26-6.72.47-3.63 1.91 1.43 2.5 7.01 2 10.43.55 8.84-1.41L20-80.79l-7.12-4.44L4.08-89l6.34-1.05" filter="url(#a)"/><path d="m-19.7-87.39 26.42 5.62 19.7 7.6 11.44 5.28 6.02 3.17 1.09.6-3.3-1.86-5.69-3.06-5.18-2.36-2.68.03-.59 2.8-1.44 3.92-5.67 1.73-10.34-3.37-11.03-8.12-7-8.64 6.89-7.02" filter="url(#a)"/><path d="m-47.31-69.57 5.72-1.6 18.37-6.14 19.91-3.03 15.55 1.04 8.54 2.49.88.98-5.35-1.31-8.34-1.89-7.22.01-2.17 3.1 5.5 5.12 12.87 4.76 16.52 3.63 16.72 6.3 12.98 9.68" filter="url(#a)"/><path d="m-30.38-82.83 21.05-3.65 6.29 1.11 3.13 3.18 3.14 4.42 3.13 5.4 2.53 5.7 2.51 4.83 3.75 2.96 5.59.64 6.4-1.6 5.08-3.44 1.94-4.52-1.46-4.39-3.52-2.61-3.79.86-2.2 5.44L26.97-58l18.29 14.57 22.23 8.69" filter="url(#a)"/><path d="M20.03-87.5-.71-68.39l.52 6.07-2.48-1.93.57-4 4.3-4.15 4.17-4.13 1.21-3.96-1.77-3.36-2.97-2.36-2.28-1.24-.66-.3.73.34 1.15.67.77.86.7 1.23 2.6 2.29 8.06 4.83 16.6 9.4 22.38 15.79 16.19 21.9" filter="url(#a)"/><path d="m-47.07-69.44 56.48-2.18 19.48-.94 8.01 2.81.24 1.76-6.05-1.96-9.11-4.73-8.88-4.99-6.46-3.19-3.02-.5.34 1.93 2.28 3.19 1.61 2.65-1.73.66-6.96-.82-14.29 1.1-22.98 7.31-19.42 11.02" filter="url(#a)"/><path d="M69.08-30.44.87-52.58l-11.14-3.14 5.56-1.81 5.58-4.61 1.49-6.24-2.59-5.69-4.81-3.76-4.24-1.67-1.47-.24 1.45.38 2.39.6.91.96-1.15 1.63-1.45 2.01.08.85 1.88-2.77 5.71-7.63 9-6.71" filter="url(#a)"/><path d="M12.36-89.55.3-87.67l6.28 5.06 3.27 7.78-4.97 6.48-8.13 3.6-4.66 1.22 1.22-.62 5.22-2.38 5.7-3.83 3.38-4.24-.3-3.18-3.95-1.15-5.93.68-4.15 1.28 2.57.86 10.64 1.14 6.13 1.71-39.36-11.28" filter="url(#a)"/><path d="m8.07-90.42 17.28 15.87-7.75-.67-6.8.25-2.65 2.01 1.9 2.5 5.68 2.22 7.09 1.55 6.11.92 4.16.68 2.43.77 1.07.79-.41.49-2.09.15-3.41.4-3.73 1.24-2.82 1.69-.67.32 2.23-3.04 2.92-6.43-5.44-7.69-34.05-13.56" filter="url(#a)"/><path d="m-12.12-89.58 21.74 3.06 13.22 5.93 9.04 5.66 3.39 2.58h-2.19l-7.01-.99-10.7-.7-12.41.2-11.76 1.19-9.33 1.88-6.44 2.17-4.13 2.19-2.39 2.11-.59 1.96 1.54 1.46 3.32.22 3.6-1.95L-21-67.3l.73-6.9.7-7.03.6-4.22-4.33.93-14.87 7.27" filter="url(#a)"/><path d="M54.25-60.95 16.98-71.48l.59-1.82-2-.29-6.34-.25-5.34-.14-2.79.07-1.65.31-2 .59-3.47.85-6.05.87-8.94.54-10.15.05-8.18-.21-3.89-.37v-1.12l-2.85 2.01" filter="url(#a)"/><path d="m45.76-71.24-9.09-1.2-21.85-4.87-17.56-3.36-8.22-1.72.74-.47 7.14.46 9.91 1.04 9.03 1.15 5.66.7h1.7l-1.05-.47-1.49-.16.49 1.19L25-75.61l6.47 5.39 6 5.99.91 3.85-7.6-1.21-14.85-7.05-16.84-8.79-33.78-2.87" filter="url(#a)"/></g><path fill="none" stroke="#000" stroke-linejoin="round" stroke-width="3" d="M-11.63 7.04Q11.67 17.865.02-4.626" filter="url(#a)"/><path fill="#D77F8C" stroke="#000" stroke-linejoin="round" stroke-width="3" d="m-23.54 70.81.68-1.11.67-1.08.67-1.05.66-1.02.66-.99.65-.96.64-.94.64-.9.63-.88.63-.85.62-.82.61-.8.62-.76.6-.74.6-.72.6-.68.59-.66.59-.63.58-.61.58-.58.57-.55.57-.52.56-.51.56-.47.56-.45.55-.42.55-.4.54-.38.55-.34.53-.33.54-.3.53-.27.53-.25.52-.23.52-.2.52-.18.52-.16.51-.13.51-.11.51-.08.5-.07.5-.03.51-.02h.49l.5.03.49.05.5.07.49.1.49.11.48.14.49.16.48.18.49.2.48.22.48.25.48.26.48.28.48.31.48.32.47.34.48.37.48.38.47.4.48.42.47.45.48.46.47.47.48.5.48.52.47.53.48.55.48.57.47.59.48.61.48.62.48.64.49.66.48.67.48.69.49.71.48.73.49.74.49.76.49.77.5.79.49.8.5.82.5.84.5.85.51.87.5.88.51.89.52.92.51.92.52.94.52.95.52.97.53.98.53 1 .53 1-.53-1-.53-1-.53-.98-.52-.97-.52-.95-.52-.94-.51-.92-.52-.92-.51-.89-.5-.88-.51-.87-.5-.85-.5-.84-.5-.82-.49-.8-.5-.79-.49-.77-.49-.76-.49-.74-.48-.73-.49-.71-.48-.69-.48-.67-.49-.66-.48-.64-.48-.62-.48-.61-.47-.59-.48-.57-.48-.55-.47-.53-.48-.52-.48-.5-.47-.47-.48-.46-.47-.45-.48-.42-.47-.4-.48-.38-.48-.37-.47-.34-.48-.32-.48-.31-.48-.28-.48-.26-.48-.25-.48-.22-.49-.2-.48-.18-.49-.16-.48-.14-.49-.11-.49-.1-.5-.07-.49-.05-.5-.03h-.49l-.51.02-.5.03-.5.07-.51.08-.51.11-.51.13-.52.16-.52.18-.52.2-.52.23-.53.25-.53.27-.54.3-.53.33-.55.34-.54.38-.55.4-.55.42-.56.45-.56.47-.56.51-.57.52-.57.55-.58.58-.58.61-.59.63-.59.66-.6.68-.6.72-.6.74-.62.76-.61.8-.62.82-.63.85-.63.88-.64.9-.64.94-.65.96-.66.99-.66 1.02-.67 1.05-.67 1.08" filter="url(#a)"/></svg>