<svg xmlns="http://www.w3.org/2000/svg" width="500" height="500" viewBox="-100 -100 200 200"><defs><clipPath id="c"><path d="m24-1.17-.13-.38-.16-.39-.19-.39-.23-.4-.25-.4-.28-.39-.31-.39-.34-.38-.36-.37-.38-.36-.41-.35-.43-.33-.45-.31-.47-.29-.48-.27-.57-.57-.6-.52-.61-.47-.62-.42-.65-.37-.66-.32-.68-.27-.69-.21-.71-.17-.72-.12-.73-.06-.75-.02-.75.02-.76.07-.77.12-.78.15-.79.19-.79.23-.8.27-.8.29-.81.32-.81.35-.81.37-.81.4-.81.41-.81.43-.81.44-.81.46-.81.46-.8.48-.79.47-.8.48-.78.48-.78.48-.77.48-.76.47-.76.47-.74.46-.74.45-.72.45-.72.43-.7.42-.69.41-.67.4-.67.39-.65.38-.63.36-.63.35-.6.34-.6.33-.58.32-.56.3-.56.3-.54.28-.53.28-.52.26-.51.25-.49.24-.48.23-.46.22-.46.22-.44.2-.42.19-.41.18 1.23 2.35h.74l.39-.01h.4l.42-.01.42-.02.44-.01.45-.02.47-.02.47-.03.49-.03.49-.04.51-.04.52-.04.52-.05.55-.05.55-.05.57-.06.58-.07.59-.07.6-.07.61-.08.63-.08.63-.09.64-.1.64-.1.66-.1.66-.11.67-.12.68-.12.68-.12.68-.13.69-.13.7-.13.7-.13.7-.14.71-.14.71-.14.71-.14.72-.14.71-.14.72-.14.72-.14.72-.13.73-.13.72-.13.72-.13.73-.11.72-.12.73-.11.72-.1.72-.1.73-.09.72-.08.72-.07.72-.07.71-.06.72-.06.71-.05.7-.04.7-.03.7-.04.68-.02.68-.03.55-.11.53-.11.52-.13.51-.13.49-.14.48-.15.46-.16.44-.18.42-.19.4-.21.38-.22.35-.24.33-.26.3-.29.27-.31"/></clipPath><clipPath id="b"><path d="m-22.23-1.53-.01-.25.04-.25.09-.27.13-.26.17-.27.21-.27.26-.26.28-.26.32-.26.36-.24.38-.24.42-.22.44-.22.46-.2.49-.19.6-.41.62-.37.64-.34.67-.3.69-.27.7-.23.73-.19.74-.15.76-.11.78-.08.78-.05h.8l.8.02.82.06.82.09.83.12.83.15.83.17.84.2.84.22.84.25.83.26.84.28.83.3.82.31.82.32.82.33.81.34.8.35.79.35.78.36.77.36.76.36.75.36.74.36.72.35.71.35.7.35.68.34.66.33.66.32.63.32.63.31.6.3.59.29.57.28.56.27.54.27.53.26.51.24.49.24.48.24.47.22.45.22.44.2.42.2.41.19.4.19.38.17.37.17.35.16.34.16.33.15.31.14-2.98 2.13-.5.02-.5.01-.52.01h-.52l-.53.01h-.54l-.54-.01h-.55l-.56-.01-.56-.02-.56-.01-.57-.02-.57-.03-.57-.03-.57-.03-.59-.04-.59-.04-.59-.04-.59-.05-.6-.05-.6-.06-.6-.07-.6-.07-.59-.07-.6-.09-.59-.08-.58-.1-.59-.09-.58-.11-.57-.1-.57-.12-.56-.12-.56-.12-.55-.12-.55-.13-.55-.14-.54-.13-.54-.14-.53-.14-.54-.14-.53-.14-.53-.14-.53-.14-.54-.13-.53-.14-.54-.13-.55-.14-.55-.12-.55-.13-.57-.12-.57-.11-.58-.11-.59-.1-.6-.1-.61-.09-.63-.08-.64-.08-.65-.07-.66-.06-.68-.06-.68-.05-.7-.05-.71-.04-.72-.04-.5-.12-.49-.12-.48-.13-.47-.14-.47-.14-.45-.16-.44-.16-.43-.18-.41-.19-.38-.2-.37-.22-.35-.24-.31-.25-.29-.28-.26-.29"/></clipPath><filter id="a"><feTurbulence baseFrequency=".05" numOctaves="3" result="noise" type="noise"/><feDisplacementMap in="SourceGraphic" in2="noise" scale="2"/></filter></defs><rect width="100%" height="100%" x="-100" y="-100" fill="#F3E5AB"/><path fill="sienna" stroke="#000" stroke-linejoin="round" stroke-width="1.667" d="m69.08 1.18-.27 1.39.18.19.02.75-.4 2.5v.08l-.09 2.43-.17 2.14-.04.18.15.95.05-.84-.43 1.77-.5 3.93.18-.58-.27 1.61-.45 2.86-.16-.26-.04-.13-.68 2.4-.54 3.33.18-.41-.4 1.21-.62 2.21.38-1.36-1.05 2.95-.15.76-.36.83-.82 2.48-.71 1.93.1-.69-.13.64-1.73 3.23.58-.97-.72 1.84-.24.02-.71 1.55-.54 1.58-.32.7-1.27 1.99-.44 1-1.63 2.77 1.3-2.21-2.3 3.31.33-.1-1.52 1.66-.89 1.67.62-.64-1.01 1.18-2.02 2.62-.51.36-.1.01v.56l-2.51 2.45.56-.36-1.5 1.63-1.54 1.18-.29.31-.17.51-1.39 1.2-1.84 1.88.89-.79.28-.52-1.86 1.45-1.61 1.8-.95.43-.95.99.62-.73-2.54 1.94-.92.7-.98.65-.53.11-.78.38-.78.77-1.78.78-1.31.84-1.11.6-.29-.03-2.13 1.05-.46-.1-.13.33-1.7.7-.25.18-2.8.85.34.05-1.04.28-2.17.61-1.72.24.19.09-1.4.32-.42.1-1.32.12-.96.33-1.06.03-1.46.15-2.09.24.3.21-1.84-.02.96.03-3.44.01.38.14-2.07.16-.6-.14-.8.05-1.3-.27-.61.06-1.55-.13-.32.11-1.98-.27.73-.08-2.94-.22-.59-.41-2.11-.25.69.24-.71-.34-1.33-.09-3.15-1.17 1.31.37-2.47-.66.96.43-3.2-1.19.37.05-3.53-1.19.46-.1-1.35-.57-.31.1-3.1-1.56 1.06.55-1.63-1.18-.75-.19-.67-.45.35.25-2.01-1.45-.27.04-2.05-1.36-.79-.4-1.81-1.46.16.42-2.39-2.26.52.75-2.06-2.1-.43-.16.13.14-2.21-1.83-1.57-1.6.15-.2.04.1.43.56-3.13-3.26-.87-1.01-.01.22-.34-.52-1.91-2.25-.93-1.27-.59-.9v-.08l-.22.03-1.16-2.21-.97-1.29-.77-1.29-.62-.56-.63-1.13-.82-1.36-.89-1.56-.53-.92-.7-1.12.64.45-1.32-2.23-.29-.81-.98-2.09-.46-1-.21-.75-.02.18-.87-1.91-.45-1.41-.42-1.22-1.11-2.68.89 1.68-1.12-3.18.17.35-.46-1.19-.62-2.34-.49-2.13.02.69-.09-.23-.66-2.77-.4-1.71.17-.28-.25-.66-.22-1.95-.45-1.15-.23-3.38-.31-1.66.1 2.07-.3-2.93-.14-1.83.18-1.28-.21-2.88.09.93-.32-3.33.24.27-.23-1.2.02-2.4.26 1.62-.16-.9.19-2.39.05-1.17-.06-1.87.12-.51.39-2.41.09-1.41-.17.53.65-3.6.06-1.95.11-.62.52-2.12-.42 1.4.45-2.21.15-.75.66-2.24.17-.3.5-2 .04-1 .15.65.67-3.12 1.11-3.04-.51 1.13.99-2.44.48-.86.91-2.47.07-.59-.62 1.92 2.08-5.29.33-.64.43-.44-.13-.29 1.42-2.5-.27.24 1.1-1.97.45-.08.4-1.32-.28.38.89-.93 1.01-2.19-.08.06 1.51-2.11.31-.22 1.29-1.59-.02-.55 1.25-1.39 1.99-2.04.1-.83.88-1.01.24-.33 1.74-1.64.19-.19.26-.11.87-1.02 2.35-2-1.02.81 1.97-2.1-.01.31 1.7-1.68.03-.12.98-.73.83-.41 2.2-1.64.23-.14 1.15-.81.49-.18 1.92-1.28.33-.33.42-.35 2.15-1.22.3.07-.2-.28.85-.43 2.65-1.12-.87.19 2.96-1.07-.13.18.91-.56 1.33-.46 3.04-1.12-.44.24 1.41-.35.23-.24.97-.47 1.83-.42.03.12 2.32-.63h.41l1.09-.23 1.84-.33.57-.13 1.12.11.09-.18 2.47-.09.46-.07.67.09 1.42-.31 1.96-.03-.73.06 2.85.23.75-.17 2.18.48-1.42-.46 2.27.45-1.3-.36 3.31.47.6.17 1.58.27-.25.09 2.02.37.62.04 1.1.26 1.56.52 2.12.68-.64-.22.54.08 3.02 1.18-.11-.14.31.24 2.39.8-.04.17 2.5 1.24 1.51.32-.38-.11 1.04.71.93.65 2.91 1.53-.87-.56 2.11 1.45-.02-.17 1.49 1.33 1.47.94-.84-.8 1.91 1.43-.22-.15 2.73 2.24-.39-.29 1.33 1.07.2.32 1.55 1.09.82 1.23.76.3.95 1.15.71.75 1.72 1.88-.98-.88 1.14 1.32.81.82 1.81 1.91-.23-.37 1.24 1.88.35.54.66.39.77 1.54.49.73.83 1.27 1.21 1.91 1.02 1.26.04.65 1.32 1.83-.28-.69 1.49 2.9-.89-1.26.91 1.88 1.19 2.56.54.9.26.67.65 1.59-.01-.05.83 2.03.49.96.15.8.27.24 1 3.06.45 1.89-.25-1.59.37 1.52.78 3.69.28-.05.15 2.03.64 1.47-.17-.56.32 1.84.54 2.25.13.29-.01 2.21.3 1.21.33 1.74-.32-1.07.29 2.89.22-.1.28 3.47-.15-.96.22 3 .08-.06-.14 1.65.25 1.9.02 2.15-.27 1.39" filter="url(#a)"/><path fill="#fff" d="m-22.23-1.53-.01-.25.04-.25.09-.27.13-.26.17-.27.21-.27.26-.26.28-.26.32-.26.36-.24.38-.24.42-.22.44-.22.46-.2.49-.19.6-.41.62-.37.64-.34.67-.3.69-.27.7-.23.73-.19.74-.15.76-.11.78-.08.78-.05h.8l.8.02.82.06.82.09.83.12.83.15.83.17.84.2.84.22.84.25.83.26.84.28.83.3.82.31.82.32.82.33.81.34.8.35.79.35.78.36.77.36.76.36.75.36.74.36.72.35.71.35.7.35.68.34.66.33.66.32.63.32.63.31.6.3.59.29.57.28.56.27.54.27.53.26.51.24.49.24.48.24.47.22.45.22.44.2.42.2.41.19.4.19.38.17.37.17.35.16.34.16.33.15.31.14-2.98 2.13-.5.02-.5.01-.52.01h-.52l-.53.01h-.54l-.54-.01h-.55l-.56-.01-.56-.02-.56-.01-.57-.02-.57-.03-.57-.03-.57-.03-.59-.04-.59-.04-.59-.04-.59-.05-.6-.05-.6-.06-.6-.07-.6-.07-.59-.07-.6-.09-.59-.08-.58-.1-.59-.09-.58-.11-.57-.1-.57-.12-.56-.12-.56-.12-.55-.12-.55-.13-.55-.14-.54-.13-.54-.14-.53-.14-.54-.14-.53-.14-.53-.14-.53-.14-.54-.13-.53-.14-.54-.13-.55-.14-.55-.12-.55-.13-.57-.12-.57-.11-.58-.11-.59-.1-.6-.1-.61-.09-.63-.08-.64-.08-.65-.07-.66-.06-.68-.06-.68-.05-.7-.05-.71-.04-.72-.04-.5-.12-.49-.12-.48-.13-.47-.14-.47-.14-.45-.16-.44-.16-.43-.18-.41-.19-.38-.2-.37-.22-.35-.24-.31-.25-.29-.28-.26-.29" filter="url(#a)" transform="translate(37.1 -24.62)"/><path fill="#fff" d="m24-1.17-.13-.38-.16-.39-.19-.39-.23-.4-.25-.4-.28-.39-.31-.39-.34-.38-.36-.37-.38-.36-.41-.35-.43-.33-.45-.31-.47-.29-.48-.27-.57-.57-.6-.52-.61-.47-.62-.42-.65-.37-.66-.32-.68-.27-.69-.21-.71-.17-.72-.12-.73-.06-.75-.02-.75.02-.76.07-.77.12-.78.15-.79.19-.79.23-.8.27-.8.29-.81.32-.81.35-.81.37-.81.4-.81.41-.81.43-.81.44-.81.46-.81.46-.8.48-.79.47-.8.48-.78.48-.78.48-.77.48-.76.47-.76.47-.74.46-.74.45-.72.45-.72.43-.7.42-.69.41-.67.4-.67.39-.65.38-.63.36-.63.35-.6.34-.6.33-.58.32-.56.3-.56.3-.54.28-.53.28-.52.26-.51.25-.49.24-.48.23-.46.22-.46.22-.44.2-.42.19-.41.18 1.23 2.35h.74l.39-.01h.4l.42-.01.42-.02.44-.01.45-.02.47-.02.47-.03.49-.03.49-.04.51-.04.52-.04.52-.05.55-.05.55-.05.57-.06.58-.07.59-.07.6-.07.61-.08.63-.08.63-.09.64-.1.64-.1.66-.1.66-.11.67-.12.68-.12.68-.12.68-.13.69-.13.7-.13.7-.13.7-.14.71-.14.71-.14.71-.14.72-.14.71-.14.72-.14.72-.14.72-.13.73-.13.72-.13.72-.13.73-.11.72-.12.73-.11.72-.1.72-.1.73-.09.72-.08.72-.07.72-.07.71-.06.72-.06.71-.05.7-.04.7-.03.7-.04.68-.02.68-.03.55-.11.53-.11.52-.13.51-.13.49-.14.48-.15.46-.16.44-.18.42-.19.4-.21.38-.22.35-.24.33-.26.3-.29.27-.31" filter="url(#a)" transform="translate(-30.08 -25.53)"/><g fill="none" stroke="#000" transform="translate(37.1 -24.62)"><path stroke-linejoin="round" stroke-width="1.667" d="m-18.94-.21-.63.02-.56-.03-.49-.07-.41-.1-.35-.13-.29-.16-.23-.19-.16-.2-.12-.22-.05-.24-.01-.25.04-.25.09-.27.13-.26.17-.27.21-.27.26-.26.28-.26.32-.26.36-.24.38-.24.42-.22.44-.22.46-.2.49-.19.6-.41.62-.37.64-.34.67-.3.69-.27.7-.23.73-.19.74-.15.76-.11.78-.08.78-.05h.8l.8.02.82.06.82.09.83.12.83.15.83.17.84.2.84.22.84.25.83.26.84.28.83.3.82.31.82.32.82.33.81.34.8.35.79.35.78.36.77.36.76.36.75.36.74.36.72.35.71.35.7.35.68.34.66.33.66.32.63.32.63.31.6.3.59.29.57.28.56.27.54.27.53.26.51.24.49.24.48.24.47.22.45.22.44.2.42.2.41.19.4.19.38.17.37.17.35.16.34.16.33.15.31.14.3.13.28.13.27.13.26.12.24.11.24.11.21.1.21.1.19.09.18.09" filter="url(#a)"/><path stroke-linejoin="round" stroke-width="2.222" d="m-22.17-4.71-.27.64-.19.59-.14.54-.06.51-.01.47.04.44.09.4.14.38.18.34.22.33.26.29.29.28.31.25.35.24.37.22.38.2.41.19.43.18.44.16.45.16.47.14.47.14.48.13.49.12.5.12.72.04.71.04.7.05.68.05.68.06.66.06.65.07.64.08.63.08.61.09.6.1.59.1.58.11.57.11.57.12.55.13.55.12.55.14.54.13.53.14.54.13.53.14.53.14.53.14.54.14.53.14.54.14.54.13.55.14.55.13.55.12.56.12.56.12.57.12.57.1.58.11.59.09.58.1.59.08.6.09.59.07.6.07.6.07.6.06.6.05.59.05.59.04.59.04.59.04.57.03.57.03.57.03.57.02.56.01.56.02.56.01h.55l.54.01h.54l.53-.01h.52l.52-.01.5-.01.5-.02.49-.01.48-.02.47-.02.45-.02.45-.02.44-.02.43-.03.41-.02.41-.03.39-.02" filter="url(#a)"/><circle cx=".307" cy="-2.864" r="4.848" clip-path="url(#b)" filter="url(#a)"/><circle cx="2.462" cy=".381" r="4.208" clip-path="url(#b)" filter="url(#a)"/><circle cx="-1.993" cy="-1.549" r="4.116" clip-path="url(#b)" filter="url(#a)"/><circle cx="2.277" cy="-3.744" r="3.422" clip-path="url(#b)" filter="url(#a)"/><circle cx="-.193" cy="-3.434" r="3.226" clip-path="url(#b)" filter="url(#a)"/><circle cx=".822" cy="-.034" r="4.438" clip-path="url(#b)" filter="url(#a)"/><circle cx="-.043" cy="-3.644" r="4.394" clip-path="url(#b)" filter="url(#a)"/><circle cx="1.482" cy="-1.944" r="3.578" clip-path="url(#b)" filter="url(#a)"/><circle cx="1.317" cy="-2.474" r="3.156" clip-path="url(#b)" filter="url(#a)"/><circle cx="2.137" cy="-2.369" r="4.686" clip-path="url(#b)" filter="url(#a)"/></g><g fill="none" stroke="#000" transform="translate(-30.08 -25.53)"><path stroke-linejoin="round" stroke-width="2.222" d="m22.96 1.29.32-.07.27-.12.21-.16.16-.21.12-.25.08-.28.03-.31-.02-.33-.05-.36-.08-.37-.13-.38-.16-.39-.19-.39-.23-.4-.25-.4-.28-.39-.31-.39-.34-.38-.36-.37-.38-.36-.41-.35-.43-.33-.45-.31-.47-.29-.48-.27-.57-.57-.6-.52-.61-.47-.62-.42-.65-.37-.66-.32-.68-.27-.69-.21-.71-.17-.72-.12-.73-.06-.75-.02-.75.02-.76.07-.77.12-.78.15-.79.19-.79.23-.8.27-.8.29-.81.32-.81.35-.81.37-.81.4-.81.41-.81.43-.81.44-.81.46-.81.46-.8.48-.79.47-.8.48-.78.48-.78.48-.77.48-.76.47-.76.47-.74.46-.74.45-.72.45-.72.43-.7.42-.69.41-.67.4-.67.39-.65.38-.63.36-.63.35-.6.34-.6.33-.58.32-.56.3-.56.3-.54.28-.53.28-.52.26-.51.25-.49.24-.48.23-.46.22-.46.22-.44.2-.42.19-.41.18-.4.18-.39.16-.37.16-.36.15-.35.15-.33.13-.32.13-.31.13-.29.12-.28.11" filter="url(#a)"/><path stroke-linejoin="round" stroke-width="2.222" d="m24.03-3.12.16.68.09.63.05.59v.54l-.05.5-.09.47-.13.43-.17.39-.2.37-.24.33-.27.31-.3.29-.33.26-.35.24-.38.22-.4.21-.42.19-.44.18-.46.16-.48.15-.49.14-.51.13-.52.13-.53.11-.55.11-.68.03-.68.02-.7.04-.7.03-.7.04-.71.05-.72.06-.71.06-.72.07-.72.07-.72.08-.73.09-.72.1-.72.1-.73.11-.72.12-.73.11-.72.13-.72.13-.73.13-.72.13-.72.14-.72.14-.71.14-.72.14-.71.14-.71.14-.71.14-.7.14-.7.13-.7.13-.69.13-.68.13-.68.12-.68.12-.67.12-.66.11-.66.1-.64.1-.64.1-.63.09-.63.08-.61.08-.6.07-.59.07-.58.07-.57.06-.55.05-.55.05-.52.05-.52.04-.51.04-.49.04-.49.03-.47.03-.47.02-.45.02-.44.01-.42.02-.42.01h-.4l-.39.01h-.74l-.34-.01-.34-.01h-.32l-.31-.01-.3-.02-.28-.01-.27-.02-.25-.02-.25-.01-.23-.02" filter="url(#a)"/><circle cx="1.748" cy=".658" r="3.772" clip-path="url(#c)" filter="url(#a)"/><circle cx="2.988" cy="-2.712" r="3.768" clip-path="url(#c)" filter="url(#a)"/><circle cx="5.108" cy="1.463" r="4.578" clip-path="url(#c)" filter="url(#a)"/><circle cx="2.643" cy="1.803" r="4.7" clip-path="url(#c)" filter="url(#a)"/><circle cx="2.318" cy="-1.632" r="3.948" clip-path="url(#c)" filter="url(#a)"/><circle cx="3.843" cy=".678" r="3.33" clip-path="url(#c)" filter="url(#a)"/><circle cx="2.383" cy=".733" r="3.844" clip-path="url(#c)" filter="url(#a)"/><circle cx="4.373" cy="-2.162" r="4.164" clip-path="url(#c)" filter="url(#a)"/><circle cx="2.358" cy="-3.067" r="4.604" clip-path="url(#c)" filter="url(#a)"/><circle cx="2.318" cy=".743" r="3.652" clip-path="url(#c)" filter="url(#a)"/></g><g fill="none" stroke="#FFEC8B" stroke-linejoin="round" stroke-width="2"><path d="m20.92-78.64.25.09.92.44 1.33.67 1.54.79 1.58.83 1.52.83 1.44.82 1.37.8 1.3.78 1.2.73 1.06.65.88.53.66.39.41.24.14.04-.11-.12-.31-.23-.45-.26M13.22-81.14l1.11.34.97.39.56.37.18.34-.13.37-.41.4-.73.45-1.06.5-1.4.54-1.8.57-2.24.62-2.74.64-3.3.67-3.86.71-4.43.77-5.02.81-5.66.84-6.4.9-7.23 1.02" filter="url(#a)"/><path d="m-13.68-80.98 1.86-.33 1.81-.01 2.11.18 2.42.32 2.68.45 2.91.57 3.12.66 3.32.74 3.46.79 3.56.82 3.6.84 3.6.84 3.57.89 3.58.98 3.6 1.1" filter="url(#a)"/><path d="m-38.27-68.9 1.19-.71 1.4-.84 1.41-.79 1.47-.75 1.54-.76 1.62-.76 1.67-.76 1.7-.74 1.69-.72 1.67-.68 1.64-.67 1.61-.64 1.57-.62 1.51-.59 1.43-.55 1.31-.5 1.16-.46 1-.42.8-.35.55-.28.19-.16-.24-.03m41.49 7.89 1.47 1 1.08.77 1.02.75.97.72.94.71.95.73.95.75.93.76.87.72.79.66.66.58.55.47.39.35.22.23.04.06-.19-.11-.42-.32-.69-.55-.94-.78-1.16-.97-1.33-1.09-1.48-1.22" filter="url(#a)"/><path d="m-15.54-80.68 1.37-.28 1.26-.22 1.35-.24 1.4-.22 1.38-.21 1.31-.18 1.18-.16 1.01-.12.83-.08.63-.06.39-.04.11-.01-.23.01-.59.05-.96.07-1.29.08m65.49 39.9.88 1.86.55 1.15.35.83.23.64.13.51.03.37-.09.21-.21.03-.35-.17-.53-.42-.72-.7-.94-1.01-1.15-1.33-1.38-1.66-1.61-2.02-1.87-2.44-2.13-2.91-2.44-3.4-2.75-3.88-3.03-4.32-3.16-4.64m-72.77-6.21.97-.45 1.39-.62 1.61-.59 1.8-.53 1.98-.48 2.14-.45 2.31-.44 2.51-.43 2.67-.44 2.79-.44 2.87-.43 2.91-.43 2.91-.43 2.9-.41 2.84-.4 2.75-.36 2.6-.32 2.47-.29 2.34-.26 2.01-.33" filter="url(#a)"/><path d="m52.96-52.87.58.89.69 1.1.62 1.06.45.86.24.63.02.39-.2.2-.39.03-.58-.12-.78-.26-.98-.45-1.23-.68-1.5-.96-1.79-1.25-2.08-1.55-2.37-1.85L41-56.97l-2.97-2.43-3.29-2.74-3.65-3.06-4.07-3.44-4.53-3.88-4.9-4.24" filter="url(#a)"/><path d="m4.37-82.64 1.43.3 1.28.32 1.55.48 1.71.6 1.77.7 1.83.77 1.92.84 2 .91 2.07.97 2.1 1.01 2.07 1.03 2.04 1.03 1.97 1.02 1.91.99 1.85.98 1.79.94 1.69.89 1.58.81 1.39.69 1.16.54.87.38.52.16" filter="url(#a)"/><path d="m4.37-82.64 1.46.32 1.36.4 1.7.59 1.91.75 2.01.89 2.11.98 2.22 1.07 2.33 1.16 2.42 1.22 2.47 1.28 2.46 1.31 2.42 1.32 2.35 1.3 2.27 1.27 2.17 1.21 2.07 1.17 2 1.14 1.91 1.1 1.67.89M27.1-76.12l1.08.71 1.26.76 1.19.7 1.01.61.84.52.67.45.48.33.25.2-.01.04-.27-.11-.54-.25-.87-.42-1.3-.65-1.83-.96-2.36-1.26-2.84-1.56" filter="url(#a)"/><path d="m49.94-57.22.88 1.31.56.8.41.61.28.52.14.42-.03.25-.26-.01-.59-.37-.94-.78-1.34-1.24-1.73-1.68-2.16-2.15-2.62-2.64-3.11-3.17-3.66-3.73" filter="url(#a)"/><path d="m48.36-58.76.95 1.11.09.49-.46.2-.98-.07-1.53-.35-2.11-.63-2.72-.9-3.38-1.22-4.1-1.61-4.88-2.06-5.74-2.58-6.63-3.13-7.49-3.68-8.3-4.22m-29.33 2.22.22-.33.75-.42.82-.37.7-.24.51-.11.31.04.1.18-.14.36-.45.56-.85.8-1.27 1.05-1.71 1.31-2.12 1.55-2.54 1.84-2.99 2.14-3.47 2.5-3.92 2.85" filter="url(#a)"/><path d="m49.94-57.22.89 1.33.6.85.48.73.42.72.36.72.26.66.13.52-.07.34-.29.11-.54-.13-.79-.38-1.05-.6-1.3-.8-1.56-1.02-1.83-1.24-2.12-1.52-2.42-1.81-2.73-2.14-3.06-2.47-3.37-2.78-3.68-3.1-4.03-3.45-4.58-3.86" filter="url(#a)"/><path d="m48.36-58.76 1.12 1.2.58.73.39.6.24.49.09.38-.07.28-.26.15-.46-.01-.73-.22-1.03-.51-1.41-.84-1.8-1.2-2.21-1.58-2.62-1.92-3-2.26-3.39-2.57-3.78-2.92-4.14-3.29-4.51-3.73" filter="url(#a)"/><path d="m48.36-58.76 1 1.17.21.67-.22.51-.61.39-1.01.29-1.41.19-1.85.11h-2.32l-2.82-.17-3.39-.38-3.97-.63-4.59-.9-5.23-1.15-5.84-1.39-6.43-1.62-7.01-1.82-7.63-2.03-8.32-2.25-8.97-2.59m61.4 2.55.93.81.67.66.51.63.33.56.1.46-.16.34-.44.21-.75.05-1.08-.1-1.39-.24-1.73-.39-2.07-.53-2.46-.7-2.86-.89-3.3-1.08-3.74-1.28-4.18-1.49-4.63-1.7L8-74.41l-5.64-2.14-6.32-2.38" filter="url(#a)"/><path d="m-24.95-77.02.32-.11 1.29-.27 1.6-.25 1.88-.23 2.1-.2 2.24-.14 2.32-.07 2.37-.01 2.43.04 2.53.09 2.61.11 2.69.14 2.74.17 2.77.2 2.76.22 2.72.25 2.64.26 2.55.25 2.42.23 2.28.21 2.08.15 1.78.05 1.51-.07m-54.23.74.4-.02.96-.17 1.58-.22 2.04-.18 2.35-.1 2.6-.02 2.83.05 3.05.1 3.24.17 3.38.22 3.46.29 3.51.33 3.54.37 3.58.39 3.62.42 3.66.45 3.68.46 3.64.47 3.54.45 3.37.38 3.16.31" filter="url(#a)"/><path d="m60.29-39.83.37.75.15.62-.04.45-.24.28-.46.07-.71-.16-.97-.39-1.25-.65-1.56-.96-1.9-1.27-2.25-1.63-2.63-1.99-3.03-2.35-3.42-2.75-3.83-3.2-4.25-3.68-4.71-4.18-5.21-4.67-5.77-5.14-6.22-5.6m5.64-3.4.04.04 1.04.46 1.46.69 1.6.81 1.71.9 1.8.99 1.87 1.03 1.86 1.04 1.75.98 1.59.92 1.43.83 1.25.73 1.08.63.85.48.57.3.12-.01M-8.02-82.17l.69-.07.84-.05.95-.06.97-.07.91-.06.79-.04.63-.03.46.01.23.05-.06.1-.41.13-.84.18-1.29.21-1.76.25-2.19.3-2.57.39-2.93.47m16.46-2.03.88-.01.66.05.35.05.19.06.08.09-.1.14-.4.18-.82.21-1.33.22-1.87.24-2.44.26-3.01.31-3.61.35-4.28.37m66.29 27.83.73 1.22.43.99-.04.55-.55.1-1.05-.35-1.58-.75-2.1-1.14-2.62-1.51-3.17-1.88-3.75-2.29-4.38-2.78-5.03-3.35-5.64-3.93-6.21-4.5-6.81-5.07" filter="url(#a)"/><path d="m15.88-80.36 1.14.4.42.24.27.31.11.38-.15.43-.46.47-.77.52-1.12.56-1.53.59-2 .62-2.52.64-3.05.69-3.58.74-4.14.78-4.74.82-5.42.86-6.1.91-6.74.93-7.24.84" filter="url(#a)"/><path d="m14.32-80.88 1.49.49 1.18.38.95.31.9.3.86.3.73.27.55.22.32.15.05.07-.31-.05-.81-.24-1.42-.44-2.03-.62-2.63-.78m36.02 23.67.09.2.21.53.04.42-.23.27-.52.11-.83-.05-1.17-.24-1.57-.52-2.02-.85-2.53-1.24-3.08-1.65-3.61-2.05-4.12-2.45-4.61-2.82-5.16-3.18-5.85-3.58-6.85-4.07" filter="url(#a)"/><path d="m-3.31-82.53 1.09.11 1.7.29 2.06.55 2.37.8 2.65.99 2.84 1.14 2.97 1.26L15.44-76l3.19 1.49 3.36 1.6 3.52 1.67 3.6 1.73 3.59 1.73 3.49 1.69 3.42 1.67 3.55 1.84" filter="url(#a)"/><path d="m44.96-62.65.49.84-.29.67-1.09.49-1.77.46-2.44.46-3.2.42-4.04.33-4.95.22-5.87.12-6.81.03-7.78-.03-8.76-.11-9.74-.23-10.73-.42-11.84-.6" filter="url(#a)"/><path d="m20.81-78.78.72.39.84.55.64.6.32.62-.07.63-.46.66-.8.72-1.15.79-1.51.85-1.91.9-2.35.95-2.8.98-3.27 1.02-3.75 1.06-4.22 1.09-4.7 1.16-5.18 1.26-5.7 1.37-6.27 1.52-6.9 1.7-7.58 1.89-8.16 2.01" filter="url(#a)"/><path d="m27.1-76.12 1.07.7 1.23.75 1.14.66.93.55.71.46.5.34.27.22v.07l-.32-.11-.67-.29-1.05-.48-1.45-.7-1.88-.93-2.33-1.2-2.96-1.54m38 37.79.19.68-.39.42-.96.15-1.53-.14-2.13-.45-2.76-.78-3.44-1.11-4.17-1.46-4.93-1.83-5.71-2.24-6.51-2.7-7.32-3.12-8.17-3.54-9.04-3.98-9.94-4.46-10.7-5.05m67.16 12.22.91 1.35.67.92.6.83.57.82.52.81.43.72.3.54.1.29-.14-.05-.41-.4-.7-.79-1.01-1.19-1.35-1.6-1.69-2.02-2.05-2.47-2.53-3.07m13.43 16.62.58 1.5-.23.52-.6.32-1.02.06-1.56-.37-2.19-.89-2.85-1.41-3.52-1.9-4.19-2.37-4.89-2.87-5.62-3.36-6.38-3.89-7.15-4.42-7.93-5.04-8.68-5.76" filter="url(#a)"/><path d="m53.45-52.14.89 1.36.9 1.38.76 1.2.6.95.41.7.23.43.03.16-.15-.09-.34-.36-.53-.68-.78-1.1-1.08-1.62-1.45-2.23-1.88-2.87" filter="url(#a)"/><path d="m-22.99-77.72 19.44 5.31 2.8 5 2.24.84 1.98-2.45 1.01-3.59-.37-3.03-1.32-1.46-1.02.63.51 2.94 2.14 4.93 2.31 5.86.07 5.06-3.82 2.44-7.03-1.08-7.08-4.01-3.2-5.07 3.15-3.96 9.52-1.6 13.66.92 15.08 4.5 29.47 18.49" filter="url(#a)"/><path d="M46.41-60.9 5.01-70.97l-2.37-3.82 7.88 1.03 5.69 2.51-.53 1.41-5.4.11-6.48.09-4.43 1.06-1.62 1.76v1.36l.46.12 1.12-1 2.49-1.25 2.84-.75-.88-.65-9.33-1.82-15.93-2.89-6.12-2.2" filter="url(#a)"/><path d="m-31.12-73.69 24.13-3.88L5.98-75.7l1.43 2.63-2.95 1.61-1.8.35.82-.43 2.99-.45 4.4.06 4.92.59 4.32.79 2.8.68 1.16.55.16.62-.3.74-1.27.59-3.92.09-8.24-.25-12.28.28-12.65 1.91-6.52 3.7 4.95 3.97 9.26 1.18-36.2-8.09" filter="url(#a)"/><path d="m-22.99-77.72 9.32-1.89 11.86.62 10.95 4.02 6.7 5.21.27 4.08-5.32 2.35-7.37 1.35-4.87 1.29.86 1.57 6.83 1.45 10.03.47 9.09-1.21 4.84-2.8-.57-3.45-5.46-3-9.44-2.11-12.07-1.48-10.6-.59 1.48 1.31 39.68-1.81" filter="url(#a)"/><path d="m25.97-76.33-4.63 11.02-8.84 7.38-.05 4.83 5.75 1.98 7.7-.44 6.64-1.77 3.83-2.05.27-1.79-3.37-1.53-6.29-1.55-7.71-1.72-7.15-1.71-5.1-1.18-2.78-.12-1.43 1.1-1.36 1.79-1.67 1.68-1.21.99-.16.12-1.39-.97-8.87-2.11-20.24-.57-16.46 4.69" filter="url(#a)"/><path d="m-10.95-81.61 25.44 7.63.61 4.67-2.47 3.68-1.85.96-1.42-.93-.06-.84 2.25.2 4.35.98 5.19 1.1 4.34.6 1.91-.58-1.18-2.28-3.32-3.67-3.22-3.6-2.16-1.88-4.84.07-16.52 1.13-35.38 6.32" filter="url(#a)"/><path d="m43.25-64.1-12.48 8.72-14.35 2.92-6.71-1.28-3.76-3.48-1.99-3.73-.23-3.34.79-2.99.67-2.57.04-2.01-.14-1.47.77-1.06 2.48-.63 3.96.1 3.75.79.9.46-4.09-1.46-9.42-3.17-21.15-1.56" filter="url(#a)"/><path d="m-53.06-52.69 57.87-1.9 2.74-6.45-7.26-2.83-4.25.2-1.2.94-.52-.01-.89-1.47-.97-2.57-.58-2.92-.04-2.54.45-1.6 1.14-.42 2.39.69 4.14 1.52 5.73 1.92 6 1.81 3.93 1.07-.58-.32-6.05-2.03-9.41-3.24-7.25-3.2 1.57-1.97 14.11.43 26.68 6.4" filter="url(#a)"/><path d="M-33.37-72.08 4.1-74.04l14.48 1.52 1.47 2.16-4.36 2.39-5.82 2.62-5.25 2.94-3.93 3.05-1.87 2.52 1.26 1.23 4.76-.62 6.75-2.56 5.42-4.02.9-4.36-4.27-3.23-6.04-.76-.77 2.59 12 6.73 25 12.49 19.64 16.66" filter="url(#a)"/><path d="m57.59-45.91-62.6-12.35-16.38-5.64 2.82 1.18 10.03 3.34 8.97 1.67 4.56-.88 1.16-2.18-.2-1.93-.79-1.01-1.7-.39-2.66-.54-2.5-1.25-.71-2.08 1.88-2.55 3.73-2.4 3.72-1.62 2.02-.47-.41.55-2.74.98-4.84.66-7.04.04-10.64 1.02-28.67 9.5" filter="url(#a)"/><path d="m33.22-72.34-13.29 9.52-26.86-.42-15.8-3.28-4.89-3.32 2.26-2.54 6.47-1.21 8.71.7 9.63 2.69 9.62 3.96 9.02 3.92 7.88 2.95 5.43 1.93.06 1.42-7.97 1.4-7.11 3.54 44.71 12.82" filter="url(#a)"/><path d="m-28.55-75.26-4.32 11.65 16.09 5.68 15.49 1.24 10.43-2.16 6.38-3.01 2.97-2.19.11-1.04-1.63-.18-2.27.28-2.69.41-3.49.41-4.1.47-3.32.7-.76.75 2.11-.06 2.68-2.22-.69-5.12-6.02-6.53-7.69-4.16-7.47.37" filter="url(#a)"/><path d="m44.01-63.8-38.6-5.26-12.24 3.07.85 1.63 5.09-1.12 5.43-2.57 4.37-2 3.4.11 2.9 2.49 2.63 3.85 2.56 3.72 3.05 2.48 3.78.82 3.24-.9-.45-2.7-7.27-4.25-13.98-4.29-13.89-1.5 2.75 3.55 49.92 7.09" filter="url(#a)"/><path d="m-3.31-82.53-18.45 6.68-9.15 4.48-2.47 2.16 3.11.76 7.7.17 9.9.25 9.22.63 6.6.76 3.57.33 1.31-.46.28-1.01.18-.78.17.18-.6 1.24-2.18 1.63-3.2 1.18-1.6.44 3.36-.18 8.62-1.28 7.29-3.87-5.13-7.14-18.53-6.17" filter="url(#a)"/><path d="M63.47-32.69 4.96-56.63l-10.39-8.93-.18.09-.65 2.71-2.36 1.92-2.59.28-1.01-1.2 1.5-2.44 4.13-3.27 6.73-3.15 8.77-1.77 8.29.13 3.4.64-1.65-.86 18.06 2.72" filter="url(#a)"/><path d="M55.49-48.96 23.66-60.78l-10.38 1.43-3.21-.66 3.95-2.24 7.89-1.45 7.47-.52 4.14-.56-.01-.99-3.79-.85-6.9-.06-8.64.6-6.69.68 1.2.71 11.71 1.31 10.72-.59-20.54-17.58" filter="url(#a)"/><path d="m-53.37-52.47 29.57-5.37 19.29-3.11 5.36-6 .97-5.57 1-2.97 1.77.02 2.72 2.72 4.59 4.91 7.29 6.32 9.39 6.45 9.2 4.9 6.3 1.94 2.22-1.22-.92-2.96-2.35-2.54-3.99-1.45-8.17-2.5-8.98-4.8 25.5 3.68" filter="url(#a)"/><path d="M-53.06-52.69 17.2-44.8l24.35.09 8.18-.06-.78-2.14-6.59-4.24-9.28-4.74-9.33-3.65-7.72-1.98-5.13-.56-1.79.37 1.66.82 3.86.78 3.44.07.3-1.33-3.99-2.9-6.84-3.83-6.25-3.43-2.24-1.79 2.98.2 5.85 1.45 3.58 1.39.67.75 28.55 2.79" filter="url(#a)"/><path d="m-1.22-82.75 6.79 2.2 10.45 4.56 3.07 4.63-6.22 3.4-10.3 2.69-6.99 3.09.64 3.9L3.5-54.3l8.98 2.57 5.34-.11-.82-3-5.36-4.77L6-64.34 3.98-67.6l2.62-1.38 4.85.07 2.35.91-6.02.59-18.1-2.69-10.43-8.64" filter="url(#a)"/><path d="M54.28-50.87 4.46-62.25l-.66 1.49 9.5 2.77 3.6-1.1-1.39-3.73-1.96-3.29-1.13-1.28-1.44.4-2.66.8-3.13.01-1.9-1.39.07-2.7.6-3.25-1.03-2.77-1.8-1.74 1.71-1.53-4.06-3.19" filter="url(#a)"/></g><g fill="none" stroke="#000"><circle cx="10.066" cy="25.872" r="2.736" filter="url(#a)"/><circle cx="9.998" cy="24.364" r="1.69" filter="url(#a)"/><circle cx="9.142" cy="23.128" r="2.522" filter="url(#a)"/><circle cx="9.69" cy="22.824" r="2.048" filter="url(#a)"/><circle cx="10.798" cy="25.576" r="1.94" filter="url(#a)"/><circle cx="11.01" cy="25.056" r="1.414" filter="url(#a)"/><circle cx="10.93" cy="22.852" r="2.658" filter="url(#a)"/><circle cx="12.178" cy="25.272" r="1.618" filter="url(#a)"/><circle cx="10.902" cy="23.596" r="1.25" filter="url(#a)"/><circle cx="9.438" cy="25.532" r="1.2" filter="url(#a)"/><circle cx="-11.518" cy="17.61" r="2.576" filter="url(#a)"/><circle cx="-9.17" cy="17.91" r="1.162" filter="url(#a)"/><circle cx="-11.226" cy="18.55" r="1.318" filter="url(#a)"/><circle cx="-11.262" cy="20.19" r="1.292" filter="url(#a)"/><circle cx="-9.978" cy="20.01" r="2.002" filter="url(#a)"/><circle cx="-8.534" cy="19.674" r="2.404" filter="url(#a)"/><circle cx="-9.366" cy="21.15" r="1.918" filter="url(#a)"/><circle cx="-10.422" cy="20.282" r="2.45" filter="url(#a)"/><circle cx="-10.218" cy="19.77" r="2.172" filter="url(#a)"/><circle cx="-10.534" cy="18.746" r="1.558" filter="url(#a)"/></g><path fill="#D77F8C" stroke="#000" stroke-linejoin="round" stroke-width="3" d="m-28.13 59.5.84-.21.82-.22.81-.24.79-.25.79-.26.77-.27.77-.29.75-.29.74-.31.73-.31.72-.32.71-.33.7-.34.7-.34.68-.35.67-.36.67-.36.65-.37.65-.37.64-.37.63-.38.63-.38.61-.38.61-.39.61-.39.59-.38.59-.39.59-.39.58-.38.57-.39.57-.38.56-.38.56-.37.55-.38.55-.37.55-.36.54-.36.54-.35.53-.35.54-.34.52-.33.53-.33.52-.31.53-.31.52-.3.52-.28.51-.28.52-.27.51-.25.52-.24.51-.23.52-.22.51-.2.52-.19.51-.18.52-.15.52-.15.52-.12.52-.11.52-.09.53-.08.52-.05.53-.04.54-.01h.53l.54.03.54.04.55.07.55.09.56.11.56.14.56.16.57.18.58.21.58.24.58.26.6.28.6.32.6.34.61.37.62.4.63.43.64.46.64.48.65.52.66.55.67.58.67.62.69.65.69.68.71.71.71.75.73.79.73.82.75.85.75.9.77.93.78.96.79 1.01-.61-.16-.61-.16-.61-.14-.61-.14-.61-.14-.61-.13-.61-.12-.61-.11-.61-.11-.61-.1-.61-.1-.61-.09-.61-.08-.61-.08-.61-.08-.61-.06-.61-.07-.61-.05-.61-.06-.61-.04-.61-.04-.61-.04-.61-.03-.61-.03-.61-.02-.61-.02-.61-.01-.61-.01-.61-.01h-.61l-.61.01-.61.01-.61.01-.6.01-.61.02-.61.03-.61.02-.61.03-.61.04-.61.03-.61.04-.61.04-.61.05-.61.05-.61.05-.61.05-.61.06-.61.06-.61.06-.61.06-.61.07-.61.07-.61.07-.61.07-.61.07-.61.08-.61.08-.61.07-.61.08-.61.09-.61.08-.61.08-.61.09-.61.08-.61.09-.61.08-.61.09-.61.09-.61.09-.61.09-.61.09-.61.09-.6.09-.61.09-.61.09-.61.09-.61.09-.61.08-.61.09-.61.09-.61.09-.61.08-.61.09-.61.08-.61.09-.61.08-.61.08-.61.08-.61.08-.61.07-.61.08-.61.07-.61.07-.61.07-.61.07-.61.06-.61.06-.61.06-.61.06" filter="url(#a)"/></svg>