<svg xmlns="http://www.w3.org/2000/svg" width="500" height="500" viewBox="-100 -100 200 200"><defs><clipPath id="c"><path d="m23.21-3.27-.17-.3-.19-.31-.22-.3-.24-.3-.26-.3-.28-.3-.3-.29-.32-.28-.34-.28-.36-.27-.38-.25-.4-.25-.42-.24-.43-.22-.45-.21-.47-.37-.49-.34-.52-.32-.54-.29-.56-.26-.59-.23-.61-.2-.63-.17-.66-.15-.67-.11-.69-.09-.71-.06-.73-.03-.74-.01-.76.02-.78.04-.78.07-.8.09-.81.11-.82.12-.82.15-.83.16-.84.18-.85.19-.84.21-.85.22-.85.22-.85.24-.85.25-.84.25-.84.25-.84.26-.83.27-.83.26-.81.27-.81.27-.8.26-.79.27-.78.26-.77.26-.75.26-.75.25-.73.25-.71.24-.7.24-.69.23-.67.23-.65.23-.65.21-.62.22-.61.2-.6.21-.59.19-.57.2-.56.18-.55.19-.53.17-.52.18-.51.16-.49.17-.48.15-.46.16-.46.15-.43.14 4.5 4.62.19.2.21.2.22.2.25.2.26.2.28.2.3.19.32.19.34.19.36.18.38.18.39.18.41.17.43.16.45.16.47.16.48.15.51.15.52.14.55.13.56.13.58.12.59.11.62.1.62.09.65.08.65.07.68.05.68.05.7.03.7.02.72.01.73-.01.73-.02.75-.03.74-.04.76-.06.76-.07.76-.08.77-.09.76-.11.77-.12.77-.12.77-.14.76-.15.76-.16.75-.16.75-.18.75-.18.74-.18.72-.19.72-.2.71-.2.7-.21.69-.2.68-.21.66-.21.65-.21.64-.2.62-.21.61-.2.59-.21.57-.19.56-.2.5-.2.49-.21.47-.21.47-.21.44-.21.44-.22.41-.22.41-.22.38-.22.37-.23.35-.23.33-.23.31-.24.29-.24.27-.24"/></clipPath><clipPath id="b"><path d="m-25.45-2.29.19-.18.22-.19.24-.18.27-.18.3-.19.32-.18.35-.17.36-.18.39-.17.42-.16.43-.16.46-.16.48-.15.5-.14.52-.13.52-.23.56-.2.59-.2.61-.18.65-.16.67-.15.7-.13.72-.12.74-.1.77-.09.78-.07.81-.06.82-.04.84-.03.85-.01h.86l.88.01.88.02.89.04.9.05.9.06.91.07.9.08.91.09.9.09.9.11.9.11.89.11.88.12.87.13.87.13.85.14.84.14.83.14.82.14.8.14.79.15.77.15.75.14.74.15.72.14.71.15.68.14.67.14.65.14.64.14.61.13.6.13.59.13.56.13.55.13.54.12.52.12.5.12.49.12.48.12.46.11.45.11.44.11.42.1.4.11.39.1.38.1.37.09-2.31 3.85-.28.15-.3.16-.31.16-.32.16-.34.16-.35.15-.37.15-.39.15-.4.15-.41.15-.43.14-.45.14-.46.14-.47.13-.49.13-.51.13-.52.12-.54.13-.56.11-.58.11-.59.11-.61.1-.62.09-.64.08-.66.08-.67.07-.69.06-.7.05-.72.04-.72.03-.75.02-.75.01-.76.01-.78-.01-.78-.02-.79-.03-.8-.04-.81-.05-.81-.06L-.38 6l-.82-.08-.82-.09-.82-.09-.83-.11-.82-.11-.82-.12-.82-.13-.82-.13-.81-.14-.8-.15-.79-.15-.79-.15-.78-.16-.76-.16-.75-.16-.74-.16-.73-.16-.71-.16-.69-.17-.68-.16-.66-.16-.64-.15-.62-.16-.6-.15-.54-.15-.54-.16-.51-.16-.51-.15-.48-.16-.47-.16-.45-.16-.44-.16-.41-.16-.4-.17-.37-.16-.35-.17-.33-.17-.31-.16-.28-.18"/></clipPath><filter id="a"><feTurbulence baseFrequency=".05" numOctaves="3" result="noise" type="noise"/><feDisplacementMap in="SourceGraphic" in2="noise" scale="2"/></filter></defs><rect width="100%" height="100%" x="-100" y="-100" fill="#4682B4"/><path fill="wheat" stroke="#000" stroke-linejoin="round" stroke-width="1.667" d="M64.42 1.65 64.35.44l-.09 2.23.1.24-.23 2.45-.09 1.96.06.22-.13.78-.18 1.8-.08 1.92-.31 1.84-.33 3.13.23-.65-.6 2.61.08-.95-.1 2.28-.31 1.47-.13-.13-.39 2.04.08.23-.51 1.39-.52 2.6-.14.78-.56 1.78-.44 1.32-.28 1.02-.42 1.87-1.26 3.58.54-1.61-.3.95-1.21 2.95v.36l-.29.81-1.08 1.97-.84 2.28.34-.38-.36.47-.18.18-2.08 3.99.19.18-.49.87-.65 1.38-.19-.04-.92 1.36-.79 1.29-.67 1.2-.51.63-.78 1.28-1.2 1.87-.51.44-1.25 2.25 1.13-1.54-1.19 1.48-.77.74-1.92 2.63-.83.88-.22.12-1.04 1.42-.53.35-1.22 1.51-.64.09-.01.2-1.93 2.05.65-.75-2.52 2.08.98-.71-2.08 1.53-1.93 1.7-1.08.53.93-.68-.01.16-1.52.79-1.63 1.22.25.22-2.88 1.64-.41.04-.2.4-.49-.15-.7.51-2.37.98-.84.62-1.04.54-.81.01-2.1.89.19-.38-2.26 1.06 1.73-.44-1.32.34-2.86.6.16-.15-.19.08-3.58.95.12-.08.13-.22-1.72.33-.05.02-2.74.25.01-.05-1.32.38-.32-.3-2.17.27.66-.11-1.96-.16-1.94.05-.48.07.11-.34-1.53-.19-.97.07v-.19l-2.71-.15.21-.21-1.57-.14-1.6-.5.59.06-2.67-.4-.69-.18-1.52-.7.6.35-2.18-.91-2.13-1.01.29.09-1.63-.74-.4.05.14.01-2.43-1.39-1.07-.84-.53-.21.07.15-2.4-1.6.26.37L-29.7 77l-1.33-.88-1.05-.7.75.38-2.23-1.43.83.57-1.42-1.2-1.94-1.8-1.11-.83 1.02.61-2.08-2.04-.34-.15-.14.1-1.25-1.58-1.65-1.71-.31-.41-.09-.09-1.9-2.52-.9-.61-.57-1.14.92 1.16-1.62-2.42-.61-.55-.84-1.2-.11-.25-1.09-1.85-.77-.97-1.22-1.83-.8-1.58.81 1.35-1.4-2.82-1.19-1.59-.3-.94.61 1.35-1.06-2.19-.61-1.57-.59-.96-.97-2.86.59 1.81-.66-1.62-1.5-3.75-.42-1.29.33.93-.17-1.05-1.27-3.1.4.92-.75-2.29-.45-1.58-.43-1.33-.32-1.36-.18-.75.05.04-.61-2.2-.05-1.1-.52-2.73-.21-.36-.38-1.61-.11-2-.1-.43-.22-1.46-.35-2.03-.32-3.11-.06-.46.06-1.43-.2-.42.01.05-.2-3.09.03-3.22.06.75v-.73l-.03-2.94-.07-.77.15-1.75-.2.32.18-2.95.22-1.22-.21 1.09.18-3.37.02-.59.55-3.19-.15.02.18-.06.06-2.82.15.24.64-3.13-.35.07 1.14-4.7-.05.51.53-3.08-.19.88.21-1.34.04.22.67-2.76.91-2.81-.21.19.74-1.53-.26.17 1.01-3.35.07.66.35-1.83.08.14 1.56-4.35.27-.56.38-.66.93-1.77.01-.72-.09.03.09-.05 1.44-2.87.8-1.31-.29.16.37-.6 1.53-2.96.35-.11.8-1.6.62-1.35 1.32-1.67.16-.27 1.2-1.49-.11-.35.68-.72 1.61-2.26.49-.41.6-.97.36-.19 1.1-1.26 1.05-1.02 1.52-1.56.38-.79-.88 1.16 1.76-2.05 1.34-1 1.58-1.27.68-1 .76-.75-1.22 1.36 1.34-1.34 1.89-1.54.37-.14.43-.33 2.53-1.87-.14.11.67-.33.56-.35 1.97-1.49.49.1 1.75-1.21-.62.37 1.58-.68.5-.37.55-.22 2.89-1.31.87-.2-1.29.42 1.78-.6 1.45-.58-.03.06.94-.09 1.83-.79 2.87-.52-1.08.01 1.17-.23 1.56-.08 1.47-.18.11-.06 2.55-.16-.16-.33.96-.05.89.24h.67l2.02-.31.73.29.54-.3 3.16.41-.89.02 1.13-.03 1.24.1 1 .08 1.06.32 1.39.43.19.14 2.07.33.91.29-.78-.2 2.14.37 1.57.95-.94-.52 1.12.34.31.04 1.41.43 2.36 1.26.68.31 1.84.67-.64-.32 1.97 1.3.37.02 1.41.89.76.52 1.73 1.16-.14-.44 1.29 1.1-.75-.53 1.53 1.21 1.85 1.2-.46-.36 2.84 2.45-.44-.4 1.21.88.59.4.78 1.11.82.56.89 1.1 2.21 2.05-.97-.79 1.55 1.56.27.45 1.06 1.22-.72-1.14 2.55 3.14.06.37-.27-.21 2.83 3.5.28.66.22.25 1.24 2.15-.28-.95 1.35 2.54.42.78.58 1.14.12-.07 1.28 2.33.2.45.26.05 1.08 2.56.85 1.53-.09.37.84 1.49.28.78.97 2.12.55 1.91-.09-.73.46.9-.08.75 1.68 4.01-.07.04.04.82.75 2.49-.08-.62.5 1.34-.02.55.55 2.18.81 3.06-.07-.79.58 3.36.18.33.25 1.31.09.99.33 1.46.02-.14.26 2.12-.14.24.42 3.98.29 1.45-.21-1.27.17 2.68.36 3.1.12 2.19-.16.33.07 1.85.09-1.63.1 4.59-.07-1.21" filter="url(#a)"/><path fill="#fff" d="m-25.45-2.29.19-.18.22-.19.24-.18.27-.18.3-.19.32-.18.35-.17.36-.18.39-.17.42-.16.43-.16.46-.16.48-.15.5-.14.52-.13.52-.23.56-.2.59-.2.61-.18.65-.16.67-.15.7-.13.72-.12.74-.1.77-.09.78-.07.81-.06.82-.04.84-.03.85-.01h.86l.88.01.88.02.89.04.9.05.9.06.91.07.9.08.91.09.9.09.9.11.9.11.89.11.88.12.87.13.87.13.85.14.84.14.83.14.82.14.8.14.79.15.77.15.75.14.74.15.72.14.71.15.68.14.67.14.65.14.64.14.61.13.6.13.59.13.56.13.55.13.54.12.52.12.5.12.49.12.48.12.46.11.45.11.44.11.42.1.4.11.39.1.38.1.37.09-2.31 3.85-.28.15-.3.16-.31.16-.32.16-.34.16-.35.15-.37.15-.39.15-.4.15-.41.15-.43.14-.45.14-.46.14-.47.13-.49.13-.51.13-.52.12-.54.13-.56.11-.58.11-.59.11-.61.1-.62.09-.64.08-.66.08-.67.07-.69.06-.7.05-.72.04-.72.03-.75.02-.75.01-.76.01-.78-.01-.78-.02-.79-.03-.8-.04-.81-.05-.81-.06L-.38 6l-.82-.08-.82-.09-.82-.09-.83-.11-.82-.11-.82-.12-.82-.13-.82-.13-.81-.14-.8-.15-.79-.15-.79-.15-.78-.16-.76-.16-.75-.16-.74-.16-.73-.16-.71-.16-.69-.17-.68-.16-.66-.16-.64-.15-.62-.16-.6-.15-.54-.15-.54-.16-.51-.16-.51-.15-.48-.16-.47-.16-.45-.16-.44-.16-.41-.16-.4-.17-.37-.16-.35-.17-.33-.17-.31-.16-.28-.18" filter="url(#a)" transform="translate(37.84 -20)"/><path fill="#fff" d="m23.21-3.27-.17-.3-.19-.31-.22-.3-.24-.3-.26-.3-.28-.3-.3-.29-.32-.28-.34-.28-.36-.27-.38-.25-.4-.25-.42-.24-.43-.22-.45-.21-.47-.37-.49-.34-.52-.32-.54-.29-.56-.26-.59-.23-.61-.2-.63-.17-.66-.15-.67-.11-.69-.09-.71-.06-.73-.03-.74-.01-.76.02-.78.04-.78.07-.8.09-.81.11-.82.12-.82.15-.83.16-.84.18-.85.19-.84.21-.85.22-.85.22-.85.24-.85.25-.84.25-.84.25-.84.26-.83.27-.83.26-.81.27-.81.27-.8.26-.79.27-.78.26-.77.26-.75.26-.75.25-.73.25-.71.24-.7.24-.69.23-.67.23-.65.23-.65.21-.62.22-.61.2-.6.21-.59.19-.57.2-.56.18-.55.19-.53.17-.52.18-.51.16-.49.17-.48.15-.46.16-.46.15-.43.14 4.5 4.62.19.2.21.2.22.2.25.2.26.2.28.2.3.19.32.19.34.19.36.18.38.18.39.18.41.17.43.16.45.16.47.16.48.15.51.15.52.14.55.13.56.13.58.12.59.11.62.1.62.09.65.08.65.07.68.05.68.05.7.03.7.02.72.01.73-.01.73-.02.75-.03.74-.04.76-.06.76-.07.76-.08.77-.09.76-.11.77-.12.77-.12.77-.14.76-.15.76-.16.75-.16.75-.18.75-.18.74-.18.72-.19.72-.2.71-.2.7-.21.69-.2.68-.21.66-.21.65-.21.64-.2.62-.21.61-.2.59-.21.57-.19.56-.2.5-.2.49-.21.47-.21.47-.21.44-.21.44-.22.41-.22.41-.22.38-.22.37-.23.35-.23.33-.23.31-.24.29-.24.27-.24" filter="url(#a)" transform="translate(-30.79 -22.02)"/><g fill="none" stroke="#000" transform="translate(37.84 -20)"><path stroke-linejoin="round" stroke-width="1.667" d="m-25.81-.73-.1-.12-.06-.12-.04-.14v-.15l.02-.16.05-.16.08-.17.11-.18.14-.17.16-.19.19-.18.22-.19.24-.18.27-.18.3-.19.32-.18.35-.17.36-.18.39-.17.42-.16.43-.16.46-.16.48-.15.5-.14.52-.13.52-.23.56-.2.59-.2.61-.18.65-.16.67-.15.7-.13.72-.12.74-.1.77-.09.78-.07.81-.06.82-.04.84-.03.85-.01h.86l.88.01.88.02.89.04.9.05.9.06.91.07.9.08.91.09.9.09.9.11.9.11.89.11.88.12.87.13.87.13.85.14.84.14.83.14.82.14.8.14.79.15.77.15.75.14.74.15.72.14.71.15.68.14.67.14.65.14.64.14.61.13.6.13.59.13.56.13.55.13.54.12.52.12.5.12.49.12.48.12.46.11.45.11.44.11.42.1.4.11.39.1.38.1.37.09.35.1.34.09.33.09.32.09.3.08.29.09.28.08.27.08.26.08.25.08" filter="url(#a)"/><path stroke-linejoin="round" stroke-width="2.222" d="M-26.26-1.66v.21l.04.2.06.19.1.2.13.18.15.19.18.18.21.18.24.17.26.17.28.18.31.16.33.17.35.17.37.16.4.17.41.16.44.16.45.16.47.16.48.16.51.15.51.16.54.16.54.15.6.15.62.16.64.15.66.16.68.16.69.17.71.16.73.16.74.16.75.16.76.16.78.16.79.15.79.15.8.15.81.14.82.13.82.13.82.12.82.11.83.11.82.09.82.09.82.08.82.07.81.06.81.05.8.04.79.03.78.02.78.01.76-.01.75-.01.75-.02.72-.03.72-.04.7-.05.69-.06.67-.07.66-.08.64-.08.62-.09.61-.1.59-.11.58-.11.56-.11.54-.13.52-.12.51-.13.49-.13.47-.13.46-.14.45-.14.43-.14.41-.15.4-.15.39-.15.37-.15.35-.15.34-.16.32-.16.31-.16.3-.16.28-.15.26-.16.25-.16.24-.16.22-.16.21-.16.2-.15.18-.16.17-.15.15-.16.15-.15" filter="url(#a)"/><circle cx="-22.938" cy="-2.105" r="3.322" clip-path="url(#b)" filter="url(#a)"/><circle cx="-18.618" cy="1.53" r="3.282" clip-path="url(#b)" filter="url(#a)"/><circle cx="-21.038" cy="1.99" r="3.06" clip-path="url(#b)" filter="url(#a)"/><circle cx="-19.638" cy="1.94" r="3.814" clip-path="url(#b)" filter="url(#a)"/><circle cx="-19.603" cy="-.19" r="4.892" clip-path="url(#b)" filter="url(#a)"/><circle cx="-22.098" cy=".8" r="3.71" clip-path="url(#b)" filter="url(#a)"/><circle cx="-21.703" cy="-1.51" r="3.436" clip-path="url(#b)" filter="url(#a)"/><circle cx="-18.698" cy="-2.05" r="3.002" clip-path="url(#b)" filter="url(#a)"/><circle cx="-18.948" cy="2.8" r="3.64" clip-path="url(#b)" filter="url(#a)"/><circle cx="-19.123" cy="1.925" r="4.246" clip-path="url(#b)" filter="url(#a)"/></g><g fill="none" stroke="#000" transform="translate(-30.79 -22.02)"><path stroke-linejoin="round" stroke-width="2.222" d="m23.55-.75.08-.18.06-.19.03-.22v-.24l-.02-.25-.05-.27-.08-.28-.09-.29-.13-.3-.14-.3-.17-.3-.19-.31-.22-.3-.24-.3-.26-.3-.28-.3-.3-.29-.32-.28-.34-.28-.36-.27-.38-.25-.4-.25-.42-.24-.43-.22-.45-.21-.47-.37-.49-.34-.52-.32-.54-.29-.56-.26-.59-.23-.61-.2-.63-.17-.66-.15-.67-.11-.69-.09-.71-.06-.73-.03-.74-.01-.76.02-.78.04-.78.07-.8.09-.81.11-.82.12-.82.15-.83.16-.84.18-.85.19-.84.21-.85.22-.85.22-.85.24-.85.25-.84.25-.84.25-.84.26-.83.27-.83.26-.81.27-.81.27-.8.26-.79.27-.78.26-.77.26-.75.26-.75.25-.73.25-.71.24-.7.24-.69.23-.67.23-.65.23-.65.21-.62.22-.61.2-.6.21-.59.19-.57.2-.56.18-.55.19-.53.17-.52.18-.51.16-.49.17-.48.15-.46.16-.46.15-.43.14-.43.14-.41.14-.4.13-.38.12-.38.13-.36.12-.35.12-.33.11-.32.11-.32.11" filter="url(#a)"/><path stroke-linejoin="round" stroke-width="2.222" d="m23.87-1.93-.02.33-.04.31-.08.3-.1.29-.13.28-.15.28-.18.27-.21.26-.22.26-.25.25-.27.24-.29.24-.31.24-.33.23-.35.23-.37.23-.38.22-.41.22-.41.22-.44.22-.44.21-.47.21-.47.21-.49.21-.5.2-.56.2-.57.19-.59.21-.61.2-.62.21-.64.2-.65.21-.66.21-.68.21-.69.2-.7.21-.71.2-.72.2-.72.19-.74.18-.75.18-.75.18-.75.16-.76.16-.76.15-.77.14-.77.12-.77.12-.76.11-.77.09-.76.08-.76.07-.76.06-.74.04-.75.03-.73.02-.73.01-.72-.01-.7-.02-.7-.03-.68-.05-.68-.05-.65-.07-.65-.08-.62-.09-.62-.1-.59-.11-.58-.12-.56-.13-.55-.13-.52-.14-.51-.15-.48-.15-.47-.16-.45-.16-.43-.16-.41-.17-.39-.18-.38-.18-.36-.18-.34-.19-.32-.19-.3-.19-.28-.2-.26-.2-.25-.2-.22-.2-.21-.2-.19-.2-.17-.21-.14-.2-.13-.21-.12-.2-.09-.21-.07-.2-.06-.2-.04-.21-.02-.2v-.2" filter="url(#a)"/><circle cx="-8.692" cy="1.843" r="3.502" clip-path="url(#c)" filter="url(#a)"/><circle cx="-7.867" cy="1.458" r="3.93" clip-path="url(#c)" filter="url(#a)"/><circle cx="-6.957" cy="3.238" r="4.328" clip-path="url(#c)" filter="url(#a)"/><circle cx="-4.917" cy="5.543" r="3.03" clip-path="url(#c)" filter="url(#a)"/><circle cx="-7.222" cy="3.048" r="4.988" clip-path="url(#c)" filter="url(#a)"/><circle cx="-5.272" cy="2.033" r="3.352" clip-path="url(#c)" filter="url(#a)"/><circle cx="-6.227" cy="3.148" r="4.93" clip-path="url(#c)" filter="url(#a)"/><circle cx="-7.392" cy="3.728" r="4.258" clip-path="url(#c)" filter="url(#a)"/><circle cx="-7.797" cy="2.093" r="4.186" clip-path="url(#c)" filter="url(#a)"/><circle cx="-7.187" cy="5.603" r="4.802" clip-path="url(#c)" filter="url(#a)"/></g><g fill="none" stroke="plum" stroke-linejoin="round" stroke-width="2"><path d="m22.89-81.38-8.55.08 7.54 4.74 3.82 3.29-4.29.4-8.65-1.15-7.44-1.26-3.2-.83.51-.48 1.91-.25 1.23.03-.41.38-1.58.88.44 2.03 9.17 5.02 22.33 11.15 21.41 17.33" filter="url(#a)"/><path d="m-18.35-83.44 36.23 12.88 2.17 1.86-6.47.96-6.21 1.38-2.93 1.49.45 1.3 1.69.72.14-.24-2.75-1.37-4.83-2.3-4.86-2.8-3.3-2.86-1.76-2.56-1.6-1.81-2.51-.05-1.05 3.26 11.33 7.53 53.14 8.78" filter="url(#a)"/><path d="m-27.6-78.5 27.59-1.09 2.87.12 2.24 2.92 4.67 5.09 5.38 5.95 5.07 4.91 4.22 2.18 2.96-.87 1.68-2.62.48-2.35-1.33-.72-4.38.9-7.63 1.61-7.8 1.49-1.58 1.03 9.18.25 15.94.97 25.26 19.44" filter="url(#a)"/><path d="m-24.58-80.24-7.89 8.65 10.78 2.7 17.6 2.93 11.43 2.93 1.99.86-2.09-1.37.36-2.09 4.72-1.55 5.87-1.08 2.75-1.21-1.12-1.21-1.19-.43 2.78-.37 4.22-3.41 2.86-2.92" filter="url(#a)"/><path d="m-15.12-84.62 25.06 2.89L19.55-80l4.87 2.64 2.88 3.77 1.66 3.92.94 2.91.53 1.31-.42-.19-2.68-1.33-6.07-2.1-9.25-2.52-10.46-2.62-8.77-2.44-4.76-1.89-.23-.72 2.99 1.46 4.71 4.38 6.65 6.13 8.22 1.33L-6.28-86.5" filter="url(#a)"/><path d="m15.17-84.43 13.34 21.67-6.45-3.04-4.29-.81-.4 3.44 3.1 4.3 5.16 2.53 4.56-.04 1.43-2.1-2.91-3.44-6.64-4.6-7.58-5.73-4.05-5.71 3.02-2.94 9.94 2.86 18.5 11.86" filter="url(#a)"/><path d="m57.51-38.37-4.9-7.49-8.82-2.6-13.41-4.58-11.5-5.21-6.65-4.54-2.88-3.69-1.49-3.07-1.54-2.52-1.54-1.87-.72-1.16.73-.59L7-75.91l3.33.14 4.12.72 4.44 1.41 3.81 1.7 1.71.96-1.46-.88-3.91-2.76-3.56-2.93-1.39-.44-5.63 2.37-36.06-2.88" filter="url(#a)"/><path d="M59.16-33.5 19.48-66.25 3.26-73.34l-4.07 1.61.73 1.94L2-69.81l2.2-1.38 1.35-1.59-.6-1.12-3.09-.49-4.86.06-4.8.55-2.64.92.96 1.01 4.7.69 7.34.09 8.12-.35 6.85-.13 3.7.66-1.15 1.22-6.84.28-10.28-3.04-6.59-7.5-4.23-6.33" filter="url(#a)"/><path d="m-43.72-63.72 19.1-10.16 17.89-4.3 11.58-.28 8.93 2.34 8.88 4.33 8.66 5.52 7.1 5.51 4.43 4.28 1.59 2.19-.57.01-1.55-1.56-1.4-2.06-.69-1.57-.25-.65-1.06-.48-3.81-2.04-7.82-4.59-9.18-4.05.98 6.14 40.03 30.82" filter="url(#a)"/><path d="m-28.13-78.28 13.91 17.43L8.81-53.3l4.28-2.68-7.93-6.95-9.61-5.71-6.05-2.5-2.69-.16-2.09.53-3.82.43-5.68.73-5.56 2.04-2.05 3.98 5.79 5.63 18.09 5.68 29.15-.08 9-24.79" filter="url(#a)"/><path d="M7.56-86.54-9.88-70.37.86-71.62l10.31-2.04 4.44 1.07-2.21 3.15-6.41 3.33-6.01 2.32-1.86.99 2.99-.23 5.38-1.23 3.97-2.03-.26-2.47-4.98-2.41-7.77-1.75-7.37-.67-4 .5.85 1.43 5.06 1.87 6.62 1.54 4.2.07-2.74-1.85-14.3.8-39.14 18.7" filter="url(#a)"/><path d="m12.27-85.32-14.59 9.26 9.43.68 7.55-.84 2.1-.22-1.53.44-2.33.66-1.41.48-.22.08.62-.12 1.31.22 1.89 1.01 1.93 1.85.89 2.16-1.32 1.7-4 .64-6.03-.57-6.07-1.34-2.95-1.24 3.49.1 10.52 2.74 10.68 5.59-7.58 4.78-57.77-7.43" filter="url(#a)"/><path d="M-15.15-84.56.46-75.75l-10.91 4.78-3.43 3.22 7.84 2.08 12.52 1.1 10.64-.03 5.44-1.26-.19-2.37-4.5-3.05-6.8-3.11-7.22-2.52-6.41-1.46-5.13-.28-3.8.64-2.38 1.05-.49.88 2.16.34 5.38-.21 8.38-.21 10.11.85 9.45 3.12 4.35 5.71-11.53 5.78-55.6-5.44" filter="url(#a)"/><path d="m30.42-76.47-34.81.2-3.72-3.28 5.87-1.57 9.08 1.03 8.92 3.15 6.14 3.86 1.8 2.91-2.41 1.09-4.97-.52-5.48-1.15-4.61-.84-3.38-.18-2.17.21-.53.18 2.05.04 5.38.25 8.25 1.05 9.33 2.26 8.16 3.4 5.02 3.63-.91 1.18-13.74-6.77-40.26-17.7" filter="url(#a)"/><path d="m13.18-85.03-10.45-.69-.75 1.2 4.67 3.54 6.63 5.62 4.79 6.13.9 4.62-2.23 2.02-2.95-.34-1.65-1.7-.04-2.07.5-1.85-.29-1.45-1.62-.97-2.54-.29-2.78.67-2.68 1.62-2.74 1.99-2.88 1.24-2.05-.38 1.25-1.32 7.05.49 10.55 5.33-1.97 7.61-55.62-9.71" filter="url(#a)"/><path d="m-34.23-73.67 28.59-7.5L5.44-82.4l2.26 2.15-1.1 4.56-1.02 5.35.46 3.98 1.8 1.37 2.23-.82 1.66-1.66.36-1.39-1.2-.94-2.44-.98-3.21-1.49-4.07-1.7-5.46-.14-4.91 4.77 8.03 12.83 58.76 17.39" filter="url(#a)"/><path d="M-20.82-82.35-13-78.9l10.21.58 3.81.2 3.2.67 4.45 1.48 3.8 2.44 1.23 3.23-1.31 3.46-2.15 2.97L9.28-62l1.41.46 3.6-.97 4.43-2.24 3.67-3.07 2.08-3.05.87-1.85.46.29.28 2.6.06 4.46 2.4 6.51 11.5 8.91 12.7-.1" filter="url(#a)"/><path d="m26-79.49-10.3 3.8-.41 2.98-1.25-1.05.52-1.05 1.24-.25-.36-.44-2.51-1.25-3.21-1.66-1.91-1.1.8.36 3.86 2.32 6.29 4.16 7.34 5.29 6.56 5.27 4 3.97.42 1.75-2.91-.68-4.67-2.58-4.19-3.46-2.03-3.33-.3-2.26-3.46-.46L.89-66.82-50.49-53.6" filter="url(#a)"/><path d="m-22.83-81.45 7.68 15.87 14.19 1.31 1.97-4.98-2.27-3.58-.45.13 1.82 2.68 1.7 2.84-.66 1.13-2.95-.92-2.15-1.79 3.11-.79 10.56 1.62 14.3 3.77 7.73 2.64-12.66-4.5L-27.6-78.5" filter="url(#a)"/><path d="m-16.57-84.04 21.86.9 8.34 2.44 1.12 2.67-.84 2.83.1 2.85.24 2.13L13-69.21l-2.31.38-1.31.51.88.75 1.77.1-.12-1.66-3.32-3.5-4.46-3.48-.98-.44 6.47 4.21 11.81 4.25-9.16-17.23" filter="url(#a)"/><path d="M-27.04-78.85.92-75.01l4.4 5.46-8.46 1.56-6.36.57.64.75 5.89.48 7.84-.25 6.69-.84 2.83-.97-2.33-.53-5.55.63-4.34 2.43-.94 3.09 1.31-1.47 29.27-11.53" filter="url(#a)"/><path d="m-31.46-75.94 45.22 8.55 16.83 7.26-3.74 1.37-14.29-1.36-15.25-2.38-10.46-2.79-4.5-2.69-.09-2.01 2.47-.95 4 .04 4.99.64 5.49 1.06 5.61 1.9 6.01 3.67 7.07 5.76 7.06 6.45 1.62 3.82-12.81-2.16-30.22-8.84-20.04-12.8" filter="url(#a)"/><path d="m-27.6-78.5 3.32 3.22 15.24-3.33 12.11-1.57 5.87.19-.31.23-4.44-.42-5.57-.62-4.28-.05-2.24.93-1.08 1.83-1.07 2.51-.67 3.33 2.82 4.75 10.65 6.47 18.09 5.98 11.26-2.47-25.54-29.1" filter="url(#a)"/><path d="M55.42-44.1 30.21-69.67l-9.05-8.23-7.39-1.36-9.07 1.85-6.88 3.59-.48 4.09 6.03 3.27 8.7 1.34 7.19-.84 4.35-2.03 3.23-1.38 4.2.69L36-65.8l2.93 3.77-4.85-.19L4.19-86.69" filter="url(#a)"/><path d="m-49.69-55.2 24.61-6.55 28.82-1.16 16.99.28 7.91 1 2.01 1.4-2.98.29-6.94-2.07-8.83-4.16-8.5-4.78-6.93-3.86-5.22-2.2-3.89-.82-2.8-.22-1.78-.35-.83-.67.17-.75 1.6-.53 4.08-.07 8.4.45 15.37.75 18.07 2.07" filter="url(#a)"/><path d="m-6.28-86.5-17.82 8.76-3.73 3.11 7.57-.89 12.82-1.45 11.72-.34 6.59.9 1.04 1.94-1.98 2.99-1.64 3.92.74 4.4 2.93 4.49 3.16 4.56 1.19 4.22-.04 1.36 3.79-7.45-10.05-29.81" filter="url(#a)"/><path d="m34.21-73.58 12.56 18.3 4.8 9.45-3.22-.49-8.44-6.39-9.38-7.73-7.34-6.11-4.68-3.41-3-1.01-2.51.34-2.5.56-2.05.1-.79-.4.95-.42 2.12.11 1.78.89-.43 1.5-3.73 1.58-6.62 1.04-7.45-.07-4.88-1.51 1.93-2.88L3.49-73.5l19.32-1.74 9.46-.03" filter="url(#a)"/><path d="m-44.21-63.31 11.32-2.78 23.46-.83 17.71 2.93 6.45 2.93-2.34 1.02L6-61.09l-6.52-2.42-4.43-2.63-1.54-1.71 1.34-.11 3.71 1.48 5.25 2.32 5.8 2.12 5.52 1.03 4.77-.43 3.68-1.78 1.84-2.86-1.24-3.74-5.16-4.41-8.13-4.55-8.1-3.79-5.13-2.32-3.72-.79-9.06 1.06" filter="url(#a)"/><path d="m-17.93-83.66 3.79 13.95 15.87 5.13L10.84-63l1.18-.45-3.8-1.58-4.44-1.83-2.36-1.59-.19-1.18.69-.72.86-.21 1.62.41 3.66 1.16 6.32 1.91 8.11 2.36 7.76 2.23 4.98 1.51.43.52-4.73-.43-9.1-1.46-9.11-2.22 4.42 2.59L59.16-33.5" filter="url(#a)"/><path d="m-9.51-85.96-11.87 9.18 8.13 3.41 11.91-.15 7.05-.78.62.15-3.39 1.28-3.23 2.15.1 2.77L3.7-64.9l5.71 2.62 4.86 1.2 2.41-.91.5-2.55 1.31-2.31 5.46.49 9.08 3.94 2.52 1.02L10.2-85.65" filter="url(#a)"/><path d="M52.48-50.1 3.21-68.02l-8.1-7.01 5.28-.74 4.91.87.82.04-1.6-1.02-1.53-1.26-.16-.67 1.46.24 2.74 1.05 3.36 1.56 3.1 1.74 1.88 1.55.11.97-1.49.13-2.08-.52-1.31-.42.51.5 2.53 1.39 3.59.59 2.31-2.89-2.38-6.65-15.24-8.55" filter="url(#a)"/><path d="m-45.82-61.05 41.4-.08 16.53 7.31 15.88 6.57 10.67 1.55 2.18-3.57-4.92-6.61-8.09-6.73-6.97-4.24-2.76-.52 2.59 2.72 6.86 4.43 7.33 4.71.54 3.67-19.23-.24-63.78-6.41" filter="url(#a)"/><path d="m-49.69-55.2 48.42-14.34 22.11-.15 9.23 2.75.85 1.8-4.05.58-5.89-.61-5.52-1.75-4.08-2.44L9-71.75l-.69-1.63 1.01-.59 2.46.26 3.02.54 2.14.16.03-.62-2.18-1.38-3.31-1.91-3.18-2.29-2.75-2.62-2.73-2.56L1.15-86l6.41-.54" filter="url(#a)"/><path d="m-39.09-68.72 35-.03 24.79 8.88 8.68 3.82L28-57.07l-7.29-3.55-10.76-4.26-11.59-3.79-9.53-2.74-5.3-1.68-.27-.85 4.14-.14 7.02.48 8.07.82 7.5.57 5.49-.32 2.24-1.56-1.73-2.72-4.26-3.49-1.37-3.23 2.82-1.5" filter="url(#a)"/><path d="m-3.89-86.99 16.39 8.62 5.32 6.76 6 5.86 6.83 5.02 6.48 4.29 4.82 3.13 2.39 1.53-.12-.16-2.47-1.6-4.67-2.76-6.78-3.59-8.48-4-9.42-3.81-9.19-2.96-7.55-1.75-4.22-.6.65.1 5.63.3 7.45.19 2.34-.02-9.97.01-21.17.84-11.28-1.08" filter="url(#a)"/><path d="m-22.83-81.45 1.91 3.24 2.06 4.53 4.17 1.11 5.95-1.32 8-1.94 8.77-1.39 7.53-.58 5.06.06 2.61.52.68.86-1.15.85-3.67.17-6.65-.9-8.19-1.48-5.36-.73 2.63.77 8.58.22-13.03-9.58m66.1 71.42.95 4.19.36 3.39.12 3.08.06 2.79.05 2.54.08 2.41.09 2.38.11 2.42.08 2.48.02 2.51-.05 2.53-.12 2.53-.17 2.53-.22 2.52-.26 2.54-.3 2.56-.36 2.58-.4 2.58-.46 2.58-.49 2.54-.51 2.48-.52 2.4-.53 2.31-.56 2.23-.64 2.16-.77 2.1-.96 2.08-1.17 2.07-1.36 2.08-1.5 2.06-1.54 2-1.51 1.9-1.47 1.79-1.51 1.69-1.64 1.62-1.68 1.58" filter="url(#a)"/><path d="m-2.04-86.8-2.04.02-2.21.24-2.21.33-2.18.4-2.18.49-2.24.54-2.29.6-2.31.65-2.26.7-2.18.76-2.13.84-2.17.92-2.33 1-2.56 1.09-2.79 1.16-2.98 1.22-3.12 1.25-3.26 1.32-3.46 1.4-3.76 1.51-4.07 1.64-4.3 1.76-4.36 1.77-5.13 1.47" filter="url(#a)"/><path d="m-2.04-86.8-2.15.03-2.75.24-3.03.33-3.07.42-2.81.49-2.39.55-2.08.61-2.05.67-2.32.72-2.76.79-3.12.87-3.29.95-3.24 1.03-3.08 1.11-2.93 1.18-2.89 1.24-3.05 1.32-3.38 1.38-3.92 1.47-4.58 1.55-5.26 1.64-5.69 1.71-5.61 1.77-4.97 1.8-3.99 1.83-3.26 1.88-3.33 1.99-4.28 2.12-5.71 2.26-7.14 2.28-8.1 1.79" filter="url(#a)"/><path d="m-3.73-86.66-2.62.24-2.32.35-2.19.48-2.19.56-2.23.63-2.25.68-2.25.75-2.2.84-2.12.92-2.03.99-1.92 1.06-1.84 1.12-1.76 1.17-1.74 1.24-1.75 1.29-1.79 1.36-1.87 1.42-1.97 1.49-2.06 1.55-2.11 1.63-2.11 1.7-2.06 1.8-1.95 1.9-1.83 1.98-1.73 2.07-1.68 2.12-1.67 2.14-1.69 2.13-1.7 2.08-1.7 2.03-1.65 2.01-1.64 2.02-1.67 2.11-1.69 2.23-1.59 2.28-1.32 2.2-1.52 1.81" filter="url(#a)"/><path d="m-6.28-86.5-2.23.28-2.24.41-2.05.51-1.93.57-1.95.63-2.03.68-2.11.73-2.13.81-2.09.88-1.98.97-1.87 1.06-1.79 1.13-1.78 1.2-1.84 1.28-1.94 1.34-2.03 1.42-2.09 1.49-2.11 1.58-2.06 1.66-2.02 1.72-2 1.78-2.02 1.84-2.11 1.89-2.21 1.95-2.26 2.02-2.22 2.08-2.05 2.12-1.79 2.16-1.51 2.17-1.33 2.21-1.32 2.28-1.5 2.43-1.75 2.56-1.9 2.55-1.79 2.28-1 1.74" filter="url(#a)"/><path d="m-10.59-85.95-3.45.58-3.02.62-1.84.63-1.59.67-1.96.73-2.52.79-3.01.86-3.28.96-3.2 1.05-2.83 1.13-2.33 1.19-1.91 1.26-1.77 1.32-1.9 1.39-2.3 1.47-2.79 1.56-3.28 1.65-3.65 1.71-3.84 1.77-3.89 1.8-3.85 1.84-3.82 1.89-3.92 1.99-4.18 2.11-4.63 2.22-5.12 2.27-5.54 2.23-5.37 2.4" filter="url(#a)"/><path d="m-9.51-85.96-4.09.91-4.03.65-3.42.64-2.89.73-2.79.84-2.85.93-2.9 1-2.87 1.06-2.76 1.11-2.61 1.17-2.5 1.22-2.53 1.29-2.77 1.34-3.2 1.41-3.71 1.47-4.18 1.53-4.51 1.59-4.68 1.67-4.66 1.76-4.57 1.87-4.51 1.99-4.61 2.08-4.95 2.17-5.38 2.21-5.6 2.19-5.35 2.11-4.82 1.97-4.82 1.77-6.07 1.88" filter="url(#a)"/><path d="m-12.38-85.44-2.9.72-2.04.63-2.26.67-2.24.74-1.98.8-1.81.89-1.94.99-2.28 1.07-2.7 1.16-3.06 1.22-3.29 1.29-3.38 1.36-3.39 1.44-3.4 1.51-3.45 1.6-3.55 1.67-3.67 1.74-3.76 1.8-3.75 1.85-3.63 1.91-3.39 1.97-3.06 2.03-2.71 2.08-2.39 2.13-2.13 2.17-1.92 2.21-1.83 2.26-1.88 2.31-2.21 2.36-2.86 2.4-3.76 2.37-4.57 2.32-4.85 2.2-4.25 2.09-3.01 2.02-2.14 2.07-2.89 2.48-4.3 3.64" filter="url(#a)"/><path d="m-14.21-84.65-2.51.33-1.92.57-2.55.71-3.01.85-2.86.94-2.45 1.02-2.3 1.06-2.57 1.12-3.14 1.18-3.7 1.23-4.04 1.29-4.13 1.35-4.05 1.42-3.95 1.48-3.89 1.54-3.81 1.6-3.64 1.69-3.39 1.78-3.16 1.88-3.11 1.99-3.41 2.08-3.98 2.14-4.63 2.18-5.12 2.14-5.32 2.08-5.28 1.97-5.14 1.88-5.02 1.88-5.21 2.17-4.74 3.13" filter="url(#a)"/><path d="m-15.15-84.56-.31.49-.97.63-1.64.74-1.85.8-1.8.88-1.7.97-1.59 1.07-1.48 1.16-1.36 1.22-1.25 1.28-1.19 1.34-1.17 1.42-1.2 1.5-1.24 1.59-1.25 1.66-1.16 1.73-.98 1.79-.73 1.83-.47 1.89-.3 1.95-.23 2.01-.25 2.08-.29 2.13-.27 2.15-.19 2.16-.11 2.2-.13 2.28-.25 2.42-.39 2.56-.42 2.54-.23 2.27.03 1.73m26.37-52.47-1.51.49-1.97.62-2.47.74-2.87.79-2.99.88-2.78.96-2.5 1.07-2.33 1.15-2.35 1.21-2.44 1.27-2.53 1.33-2.61 1.41-2.75 1.49-2.94 1.58-3.16 1.65-3.3 1.73-3.3 1.77-3.24 1.82-3.19 1.86-3.3 1.93-3.59 2.01-4 2.09-4.37 2.14-4.58 2.15-4.5 2.11-4.27 2.04-4.19 2.11-4.53 2.55-6.46 3.78" filter="url(#a)"/><path d="m-15.12-84.62-2.22.82-1.77.73-1.87.87-1.9.97-1.9 1.03-1.86 1.09-1.82 1.13-1.75 1.18-1.69 1.25-1.66 1.3-1.63 1.37-1.62 1.43-1.62 1.5-1.61 1.56-1.6 1.63-1.6 1.72-1.59 1.81-1.6 1.91-1.61 1.99-1.59 2.07-1.57 2.12-1.52 2.13-1.44 2.12-1.36 2.07-1.27 2.05-1.2 2.03-1.12 2.05-1.04 2.13-.96 2.24-.89 2.36-.91 2.51-1.04 2.71-1.2 2.89-1.01 2.26" filter="url(#a)"/><path d="m-18.35-83.44-.85.34-1.98.87-2.2.99-2.1 1.05-1.94 1.09-1.78 1.13-1.67 1.18-1.6 1.25-1.58 1.31-1.61 1.37-1.64 1.43-1.67 1.5-1.7 1.56-1.74 1.63-1.79 1.72-1.85 1.81-1.91 1.9-1.94 2-1.94 2.07-1.87 2.12-1.75 2.13-1.61 2.12-1.49 2.08-1.44 2.03-1.45 2.03-1.5 2.05-1.5 2.13-1.42 2.24-1.27 2.36-1.15 2.51-1.17 2.71-1.21 2.88-.94 2.26m134.66 7.61.45 3.05 1.29 3.41 2.51 3.29 3.07 3.06 2.44 2.8L73.89.21l-.24 2.44-1.02 2.41-1.2 2.42-.93 2.47-.46 2.51-.01 2.52.27 2.53.35 2.52.24 2.52.07 2.53-.07 2.55-.1 2.58-.09 2.58-.07 2.59-.13 2.55-.27 2.49-.43 2.42-.56 2.32-.6 2.22-.55 2.14-.49 2.07-.46 2.05-.55 2.08-.7 2.13-.91 2.14-1.06 2.03-.99 1.87-1.11 2.35" filter="url(#a)"/><path d="m-20.82-82.35-1.11.56-1.51.74-1.84.97-1.95 1.11-1.92 1.2-1.81 1.25-1.7 1.29-1.64 1.35-1.62 1.43-1.64 1.52-1.67 1.61-1.68 1.68-1.67 1.75-1.63 1.8-1.58 1.85-1.51 1.9-1.45 1.97-1.38 2.03-1.32 2.08-1.27 2.13-1.22 2.16-1.19 2.2-1.17 2.24-1.18 2.31-1.17 2.37-1.14 2.41-1.04 2.39-.93 2.31-.82 2.19-.73 2.05-.64 1.9-.57 1.74-.64 1.96" filter="url(#a)"/><path d="m-21.37-82.13-2.83.99-2.38 1.01-2.81 1.08-2.85 1.13-2.58 1.19-2.3 1.26-2.17 1.32-2.23 1.39-2.37 1.45-2.53 1.51-2.6 1.58-2.56 1.66-2.4 1.74-2.13 1.83-1.85 1.93-1.63 2.01-1.54 2.08-1.63 2.11-1.87 2.12-2.15 2.11-2.4 2.1-2.55 2.08-2.57 2.09-2.5 2.13-2.41 2.2-2.4 2.29-2.49 2.4-2.7 2.51-2.9 2.59-2.98 2.67-2.82 2.73-2.47 2.75-2.09 2.72-1.92 2.61-1.89 2.32-1.73 2.07-3.03 2.63" filter="url(#a)"/><path d="m-21.37-82.13-2.88.99-2.22 1.01-3.14 1.08-3.64 1.13-3.38 1.19-2.86 1.26-2.53 1.32-2.54 1.39-2.76 1.45-3.05 1.51-3.19 1.58-3.08 1.66-2.73 1.74-2.28 1.83-1.87 1.93-1.66 2.01-1.71 2.08-1.96 2.11-2.32 2.12-2.62 2.11-2.79 2.1-2.79 2.08-2.68 2.09-2.57 2.13-2.52 2.2-2.58 2.29-2.74 2.4-2.98 2.51-3.31 2.59-3.71 2.67-4.04 2.73-4.06 2.75-3.66 2.72-3.06 2.61-2.91 2.32-3.41 2.07-3.25 2.63" filter="url(#a)"/><path d="m-21.87-81.76-1.66.61-1.74.99-1.84 1.15-1.97 1.22-2.08 1.25-2.14 1.28-2.16 1.33-2.24 1.4-2.42 1.5-2.76 1.6-3.23 1.67-3.7 1.74-3.98 1.79-3.97 1.82-3.71 1.88-3.37 1.94-3.22 2.01-3.35 2.08-3.74 2.12-4.15 2.14-4.38 2.14-4.32 2.15-3.98 2.25-3.48 2.44-3.01 2.66-2.59 2.66-1.13 2.49" filter="url(#a)"/><path d="m-21.87-81.76-2.56.61-4.59.99-3.49 1.15-2.02 1.22-1.6 1.25-2.19 1.28-3.22 1.33-4.16 1.4-4.65 1.5-4.52 1.6-3.83 1.67-2.83 1.74-1.91 1.79-1.41 1.82-1.45 1.88-2 1.94-2.77 2.01-3.51 2.08-4.03 2.12-4.33 2.14-4.53 2.14-4.82 2.15-5.32 2.25-6.09 2.44-6.93 2.66-7.32 2.66-5.74 2.49" filter="url(#a)"/><path d="m-23.45-81.08-2.24.96-3.13 1.07-3.55 1.13-4.11 1.2-4.48 1.26-4.28 1.32-3.54 1.39-2.52 1.45-1.58 1.52-1.05 1.58-1.05 1.65-1.53 1.74-2.26 1.84-3.03 1.93-3.63 2.01-3.95 2.08-4 2.12-3.82 2.12-3.52 2.11-3.2 2.09-2.9 2.08-2.64 2.09-2.42 2.13-2.26 2.2-2.2 2.29-2.29 2.4-2.5 2.5-2.67 2.6-2.69 2.67-2.53 2.72-2.42 2.75-2.61 2.72-3.23 2.6-4.03 2.33-4.58 2.06-4.68 2.63" filter="url(#a)"/><path d="m-25.07-80.34-2.13 1.39-2.11 1.22-2.2 1.27-2.37 1.28-2.76 1.32-3.2 1.41-3.43 1.51-3.43 1.62-3.32 1.7-3.18 1.75-3.03 1.8-2.78 1.84-2.42 1.89-2.08 1.96-1.97 2.02-2.31 2.08-3.15 2.13-4.34 2.15-5.54 2.17-6.29 2.22-6.21 2.28-5.16 2.39-3.4 2.45-1.62 2.44-.78 2.32-1.55 2.2-3.45 2.21-4.7 2.39m83.32-49.48-1.64 1.01-1.99 1.3-2.13 1.37-2.03 1.46-1.85 1.52-1.77 1.58-1.85 1.63-2.03 1.72-2.23 1.83-2.45 1.93-2.67 2.04-2.92 2.1-3.13 2.13-3.29 2.14-3.34 2.1-3.29 2.07-3.18 2.04-3.04 2.03-2.84 2.08-2.59 2.16-2.23 2.27-1.81 2.38-1.43 2.49-1.24 2.6-1.3 2.66-1.7 2.7-2.4 2.78-3.22 2.99-2.79 3.16" filter="url(#a)"/><path d="m-31.09-76.08-5.29 1.2-.95 1.12-1.22 1.34-2.28 1.54-3.26 1.66-3.98 1.74-4.41 1.78-4.53 1.82-4.29 1.84-3.68 1.9-2.8 1.96-1.92 2.04-1.34 2.09-1.35 2.14-1.94 2.16-2.9 2.19-3.86 2.24-4.55 2.29-4.9 2.36-5.06 2.39-5.17 2.37-5.25 2.29-5.1 2.17-4.46 2.06-3.33 1.99-2.47 2.04-3.55 2.47-6.76 3.62" filter="url(#a)"/><path d="m-33.35-74.4-1.03.61-2.12 1.33-2.91 1.6-3.08 1.71-2.96 1.77-2.89 1.8-3.05 1.83-3.4 1.87-3.89 1.92-4.34 1.98-4.55 2.05-4.36 2.11-3.76 2.16-2.91 2.18-2.11 2.23-1.67 2.26-1.75 2.31-2.31 2.34-3.17 2.35-4.03 2.32-4.61 2.29-4.73 2.24-4.36 2.23-3.58 2.28-2.66 2.39-1.96 2.56-1.81 2.74-2.34 2.89-3.28 2.93-3.87 2.83-3.25 2.55-1.04 2.11 1.44 2.02" filter="url(#a)"/><path d="m-33.35-74.4-1.21.62-1.4 1.33-1.55 1.59-1.69 1.71-1.92 1.78-2.24 1.8-2.52 1.84-2.65 1.87-2.55 1.92-2.27 1.98-1.97 2.06-1.76 2.11-1.78 2.16-1.99 2.19-2.36 2.22-2.75 2.27-3.03 2.31-3.09 2.34-2.9 2.34-2.46 2.33-1.88 2.28-1.3 2.26-.85 2.25-.66 2.3-.8 2.41-1.2 2.56-1.71 2.73-2.11 2.85-2.28 2.88-2.25 2.77-2.12 2.55-1.96 2.26-1.83 2.11-1.72 2.33" filter="url(#a)"/><path d="m-34.23-73.67-9.11 2.2-1.57 1.83-1.21 1.61-1.75 1.6-1.77 1.71-1.53 1.84-1.51 1.96-1.83 2.07-2.39 2.13-2.99 2.15-3.39 2.15-3.5 2.1-3.29 2.07-2.86 2.04-2.39 2.05-2.03 2.1-1.91 2.18-2.07 2.29-2.49 2.4-2.99 2.5-3.34 2.59-3.3 2.67-2.82 2.71-2.14 2.74-1.74 2.7-1.89 2.58-2.37 2.3-2.18 2.04-.38 2.62" filter="url(#a)"/><path d="m-34.91-72.67-2.34 1.83-2.05 1.69-2.17 1.77-2.07 1.8-1.81 1.81-1.58 1.82-1.46 1.86-1.39 1.94-1.33 2.03-1.24 2.1-1.12 2.14-1.06 2.15-1.06 2.16-1.12 2.2-1.23 2.28-1.31 2.37-1.3 2.42-1.21 2.39-1.1 2.29-1.04 2.16-1.09 2.04-1.19 1.83-1.15 1.12" filter="url(#a)"/><path d="m-36.49-71.4-2.17 2.01-1.81 1.44-2.32 1.51-2.88 1.67-3.21 1.82-3.32 1.96-3.38 2.07-3.39 2.13-3.32 2.16-3.17 2.15-3.01 2.09-2.93 2.04-3.08 2-3.58 2-4.37 2.04-5.23 2.14-5.82 2.25-5.78 2.37-5.18 2.49-4.51 2.59-4.28 2.65-4.53 2.63-4.91 2.67-3.8 3.32m189.17-.1 8.01 1.82.31 2.72-1.31 3.11-.98 3.16-.32 3.01.39 2.79 1.14 2.58 1.81 2.43 2.3 2.37 2.51 2.38 2.46 2.44 2.15 2.48 1.58 2.51.75 2.5-.22 2.48-1.06 2.45-1.44 2.45-1.11 2.5-.11 2.56 1.18 2.63 2.2 2.65 2.45 2.62L87 39.82l.44 1.89" filter="url(#a)"/><path d="m-38.71-69.51-2.11 2.17-3.73 1.96-5.37 1.84-4.99 1.83-3.18 1.89-1.43 1.98-.69 2.07-.94 2.14-1.76 2.17-2.66 2.2-3.45 2.22-4.05 2.26-4.48 2.31-4.69 2.34-4.55 2.35-3.99 2.33-3.04 2.28-1.99 2.24-1.2 2.24-.99 2.3-1.5 2.42-2.53 2.57-3.64 2.72-4.35 2.82-4.44 2.83-4.04 2.73-3.43 2.55-2.77 2.36-1.84 2.3-.21 2.54 2.51 3.13m81.48-67.46-1.22 1.52-1.34 1.76-1.39 1.85-1.52 1.99-1.57 2.11-1.51 2.18-1.36 2.19-1.18 2.21-1.06 2.23-.99 2.27-.98 2.32-.99 2.35-.97 2.36-.93 2.33-.86 2.29-.77 2.27-.7 2.29-.62 2.36-.57 2.45-.52 2.58-.49 2.68-.45 2.74-.42 2.74-.41 2.69-.39 2.6-.39 2.54-.35 2.51L-67 .08l-.2 2.6-.08 2.67.05 2.69.15 2.74.24 2.94.36 3.28" filter="url(#a)"/><path d="m-42.76-64.88-1.22 1.52-1.41 1.76-1.57 1.86-1.87 1.99-2.15 2.12-2.27 2.18-2.16 2.2-1.84 2.21-1.44 2.23-1.06 2.28-.82 2.33-.72 2.35-.75 2.35-.83 2.33-.94 2.3-1.02 2.29-1.05 2.31-1.03 2.37-.96 2.47-.84 2.58-.72 2.67-.61 2.72-.55 2.73-.52 2.68-.53 2.62-.57 2.56-.6 2.54-.63 2.57-.64 2.61-.64 2.67-.63 2.72-.63 2.76-.61 2.81-.47 2.81-.16 2.61-.22 2.17" filter="url(#a)"/><path d="m-43.72-63.72-5.34 2.11-2.09 1.83-2.72 1.95-3.21 2.12-3.48 2.18-3.88 2.2-4.35 2.17-4.54 2.19-4.19 2.24-3.31 2.31-2.2 2.35-1.29 2.37-.9 2.32-1.09 2.26-1.73 2.2-2.66 2.18-3.74 2.24-4.9 2.37-5.84 2.56-6.13 2.75-5.35 2.89-3.57 2.92-1.7 2.8-1.08 2.52-2.62 2.07-5.91 2.01m87.33-59.7-1.87 2.49-1.69 2.21-2.22 2.22-3.07 2.23-3.65 2.17-3.67 2.09-3.26 2.01-2.71 1.96-2.32 1.99-2.15 2.07-2.12 2.16-2.09 2.29-2.05 2.4-2.12 2.51-2.4 2.59-2.85 2.65-3.21 2.7-3.12 2.71-2.56 2.69-2.04 2.55-2.5 2.27-4.05 2.01-4.84 2.6" filter="url(#a)"/><path d="m-44.21-63.31-2.34 2.51-2.35 2.22-2.2 2.23-2.06 2.24-2.14 2.19-2.37 2.09-2.6 2.03-2.74 1.99-2.88 2.02-3.1 2.1-3.36 2.2-3.55 2.32-3.64 2.43-3.71 2.52-3.75 2.6-3.77 2.65-3.55 2.68-2.97 2.67-2.12 2.61-1.37 2.53-1.17 2.44-1.71 2.4-2.67 2.46-3.53 2.59-3.77 2.7-3.46 2.73-5.77 3.01" filter="url(#a)"/><path d="m-46.39-59.98-2.32 2.02-2.61 2.27-4.51 2.29-5.67 2.23-5.35 2.16-4.18 2.16-2.96 2.21-2.12 2.31-1.81 2.37-1.97 2.38-2.44 2.32-3.01 2.25-3.51 2.18-3.9 2.16-4.23 2.22-4.51 2.37-4.66 2.55-4.4 2.76-3.62 2.89-2.48 2.91-1.43 2.79-1.17 2.51-2.03 2.06-1.02 2m74.71-54.88-1.66 2.18-1.66 2.36-1.91 2.24-2.26 2.09-2.37 1.98-2.26 1.95-2.23 1.98-2.53 2.08-3.09 2.2-3.61 2.32-3.82 2.44-3.56 2.53-2.99 2.6-2.37 2.66-2.02 2.67-2.09 2.67-2.5 2.6-3.02 2.52-3.31 2.43-3.22 2.39-2.96 2.44-2.87 2.59-3.2 2.7-3.31 2.72-2.08 3" filter="url(#a)"/><path d="m-47.59-58.49-4.51 2.17-3.58 2.36-1.66 2.24-1.02 2.09-.83 1.97-.72 1.94-.87 1.98-1.41 2.08-2.14 2.19-2.73 2.31-2.97 2.43-2.84 2.53-2.57 2.6-2.34 2.65-2.24 2.68-2.2 2.67-2.18 2.61-2.17 2.51-2.23 2.4-2.27 2.35-2.17 2.42-1.99 2.61-2.16 2.7-1.43 2.14" filter="url(#a)"/><path d="m-47.75-58.22-9.38 2.6-9.08 2.38-2.98 2.26.12 2.18.25 2.16-.5 2.25-.87 2.33-.78 2.4-.58 2.38-.63 2.33-1.02 2.28-1.69 2.25-2.47 2.27-3.18 2.35-3.72 2.46-4 2.59-4.03 2.69-3.8 2.74-3.36 2.73-2.8 2.67-2.29 2.6-1.98 2.55-1.96 2.52-2.22 2.56-2.69 2.6-3.2 2.66-3.58 2.71-3.7 2.76-3.58 2.8-3.09 2.8-1.41 2.6 3.18 2.16" filter="url(#a)"/><path d="m-47.75-58.22-5.56 2.61-.96 2.39-1.12 2.27-1.59 2.18-1.46 2.18-1.04 2.25-.72 2.35-.63 2.39-.72 2.39-.94 2.34-1.22 2.29-1.49 2.27-1.66 2.3-1.71 2.37-1.6 2.48-1.39 2.6-1.12 2.68-.91 2.72-.81 2.71-.83 2.68-.94 2.62-1.04 2.58L-78.3-2l-.99 2.58-.8 2.63-.58 2.67-.43 2.71-.43 2.74-.52 2.76-.62 2.75-.57 2.73-.33 2.67.01 2.61.21 2.53.07 2.45-.35 2.58" filter="url(#a)"/><path d="m-47.75-58.22-1.89 2.59-1.9 2.37-2.04 2.26-2.08 2.16-2.04 2.15-1.96 2.22-1.92 2.33-2.02 2.39-2.32 2.38-2.78 2.33-3.2 2.26-3.42 2.22-3.26 2.23-2.8 2.31-2.2 2.43-1.67 2.58-1.39 2.71-1.33 2.78-1.47 2.76-1.77 2.68-2.22 2.57-2.72 2.47-3.04 2.45-2.94 2.52-2.47 2.63-2.08 2.67-2.32 2.55-3.57 2.16" filter="url(#a)"/><path d="m-47.75-58.22-5.75 2.6-3.89 2.38-.86 2.26-.13 2.17-.85 2.16-2.25 2.24-3.85 2.34-5.16 2.39-5.85 2.38-5.72 2.33-4.9 2.28-3.66 2.24-2.3 2.26-1.1 2.34-.3 2.45-.02 2.59-.22 2.69-.78 2.75-1.39 2.74-1.83 2.67-2.03 2.6-2.12 2.53-2.35 2.51-2.84 2.54-3.45 2.61-3.75 2.65-3.39 2.71-2.46 2.76-1.54 2.85-1.42 2.94-2.7 2.69m77.54-75.98L-51-53.83l-1.4 2.32-1.35 2.09-1.29 1.97-1.24 1.94-1.29 2.01-1.45 2.12-1.68 2.25-1.9 2.37-1.96 2.48-1.84 2.57-1.55 2.62-1.17 2.66-.81 2.67-.6 2.64-.54 2.6-.66 2.56-.84 2.51-1 2.51-1.04 2.51-.95 2.53-.8 2.55-.66 2.56-.6 2.57-.63 2.57-.68 2.6-.66 2.65-.5 2.73-.25 2.85-.05 2.96-.09 3.04-.37 3.1-.46 3.15" filter="url(#a)"/><path d="m-50.49-53.6-1.65 2.31-1.8 1.96-1.95 1.88-2.19 1.87-2.56 1.93-2.96 2.05-3.23 2.2-3.22 2.33-2.85 2.43-2.28 2.53-1.78 2.61-1.6 2.65-1.81 2.68-2.24 2.66-2.73 2.6-3.23 2.5-3.85 2.39-4.67 2.33-5.61 2.41-6.37 2.6-6.51 2.69-4.43 2.13m67.64-48.67-.53 1.37-.6 1.87-.36 1.87-.3 1.96-.28 2.1-.15 2.26.21 2.39.7 2.49 1.14 2.58 1.37 2.64 1.29 2.68.92 2.67.34 2.64-.23 2.6-.61 2.54-.66 2.51-.35 2.49.21 2.5.76 2.53 1.09 2.54 1.1 2.56.86 2.56.63 2.57.66 2.59 1.07 2.65 1.72 2.73 2.27 2.84 2.45 2.96 2.15 3.03 1.75 3.09 1.88 3.15" filter="url(#a)"/><path d="m-52.37-50.53-7.59 1.38-3.65 1.87-.7 1.88.07 1.96-.08 2.11-.67 2.26-1.52 2.4-2.4 2.5-2.96 2.58-3.06 2.65-2.74 2.67-2.15 2.68-1.54 2.64-1.05 2.6-.79 2.55-.76 2.52-.91 2.5-1.22 2.51-1.69 2.53-2.3 2.55-2.96 2.56-3.51 2.58-3.69 2.58-3.35 2.62-2.53 2.67-1.61 2.75-1.09 2.83-1.32 2.89-2.15 2.89-3.06 2.79-3.9 2.53-4.73 2.17-3.1 2.16M62.36-21.6l.72 2.04 1 2.27 2.37 2.74 3.92 3.02 4.72 3.09 4.42 2.97 3.35 2.81 2.01 2.62.84 2.51.12 2.45v2.45l.42 2.47 1.19 2.51 2.04 2.51 2.79 2.53 3.29 2.52L99 22.43l3.21 2.53 2.58 2.56 1.62 2.58.52 2.59-.5 2.58-1.2 2.56-1.48 2.5-1.36 2.43-1.01 2.33-.61 2.23-.3 2.13-.16 2.06-.29 2.04-.69 2.08-1.18 2.18-1.28 2.2-.59 1.95.49.91" filter="url(#a)"/><path d="m-52.74-49.93-1.29 1.53-4.35 1.85-7.55 2.1-7.64 2.35-5.15 2.47-2.45 2.44-1.06 2.33-1.06 2.21-1.71 2.14-2.41 2.14-2.91 2.23-3.37 2.39-3.83 2.57-4.22 2.75-4.39 2.83-4.35 2.82-4.19 2.7-4.08 2.49-4.06 2.3-4.24 2.25-4.45 2.52-2.67 3.1m80.92-51.36-2.95 2.25-2.83 2.13-1.49 2.43-.68 2.56-.5 2.48-.62 2.35-.75 2.23-.78 2.19-.75 2.22-.72 2.32-.73 2.47-.81 2.61-.93 2.72-1.1 2.76-1.31 2.73-1.52 2.66-1.72 2.59-1.84 2.54-1.84 2.53-1.69 2.56-1.46 2.61-1.21 2.66-1.02 2.7-.94 2.74-.91 2.77-.81 2.75-.56 2.73-.32 2.68-.56 2.7-1.45 2.5" filter="url(#a)"/><path d="m-54.69-45.91-4.85.78-.18 1.65-.48 2.07-1.34 2.29-1.74 2.4-1.8 2.5-1.83 2.59-1.94 2.65-2.05 2.67-2.04 2.68-1.9 2.64-1.71 2.59-1.59 2.52-1.66 2.46-1.91 2.46-2.39 2.48-2.95 2.51-3.45 2.55-3.61 2.54-3.28 2.54-2.45 2.53-1.48 2.52-.72 2.55-.69 2.67-2.1 2.88-5.59 2.62" filter="url(#a)"/><path d="m-54.78-45.86-.72 1.41-1.13 2.41-1.04 2.65-1.01 2.54-1.03 2.33-.99 2.19-.89 2.13-.75 2.16-.66 2.28-.66 2.44-.75 2.61-.9 2.74-1.03 2.78-1.15 2.75-1.17 2.66-1.09 2.55-.95 2.48-.79 2.46-.71 2.52-.73 2.59-.78 2.64-.72 2.67-.4 2.71.11 2.91.45 3.25" filter="url(#a)"/><path d="m-54.69-45.89-1.42 2.2-1.88 2.29-1.48 2.4-1.03 2.47-.9 2.55-.97 2.63-1.08 2.69-1.19 2.71-1.25 2.69-1.26 2.66-1.22 2.6-1.15 2.55-1.05 2.52-.97 2.51-.88 2.52-.81 2.55-.72 2.56-.62 2.58-.5 2.6-.41 2.62-.33 2.66-.3 2.7-.29 2.75-.3 2.78-.28 2.79-.26 2.76-.23 2.7-.2 2.62-.15 2.53-.08 2.45.02 2.37.09 2.3.13 2.26.13 2.25.18 2.38.5 2.72 1.76 3.4" filter="url(#a)"/><path d="m-55.63-43.4.67 1.95.62 2.42.48 2.46.34 2.52-.06 2.6-.33 2.68-.26 2.7.06 2.69.41 2.65.69 2.58.95 2.51 1.24 2.47 1.49 2.47 1.54 2.48 1.3 2.52.85 2.54.48 2.55.43 2.55.83 2.55 1.47 2.58 2.01 2.63 2.17 2.72 1.94 2.83 1.59 2.95 1.5 3.02 2.27 3.08 4.53 3.13M-55.63-43.4l-1.23 1.95-1.94 2.43-3.31 2.46-3.98 2.52-3.75 2.61-3.36 2.68-3.19 2.7-3.04 2.7-2.58 2.64-1.87 2.59-1.24 2.52-1.05 2.47-1.35 2.47-1.91 2.49-2.34 2.52-2.41 2.55-2.12 2.55L-97.97 2l-1.29 2.57-1.15 2.59-1.38 2.65-2.05 2.73-3.14 2.83-4.32 2.91-4.97 2.95-4.37 2.85-2.67 2.51-1.99 1.55" filter="url(#a)"/><path d="M-56.01-42.74-58.57-39l-2.54 2.65-2.77 2.26-2.18 2.12-1.46 2.11-1.03 2.19-.84 2.34-.69 2.51-.49 2.67-.28 2.76-.12 2.78-.08 2.74-.14 2.67-.25 2.61-.39 2.58-.52 2.58-.66 2.6-.79 2.64-.88 2.67-.89 2.71-.79 2.73-.58 2.72-.34 2.71-.11 2.67.02 2.62.07 2.57.06 2.52.07 2.47.14 2.45.27 2.45.4 2.46.4 2.46.22 2.42-.08 2.28-.21 2.05.17 1.82.69 2.02" filter="url(#a)"/><path d="M-56.28-42.18-57.51-39l-.96 2.5-.99 2.5-1.07 2.61-1.11 2.69-1.07 2.71-1 2.69-.89 2.65-.76 2.58-.62 2.5-.51 2.46-.45 2.46-.42 2.48-.39 2.51-.34 2.54-.24 2.55-.11 2.54.02 2.55.13 2.57.17 2.63.15 2.71.06 2.84-.05 2.94-.08 3.02.09 3.07.39 3.13M62.18-21.93l3.39 1.86 6.64 2.22 5.14 2.45 2.27 2.58.4 2.65-.24 2.63-.19 2.6.01 2.58.13 2.6.23 2.66.39 2.72.63 2.75.83 2.74.9 2.69.84 2.61.74 2.54.68 2.48.69 2.48.74 2.5.76 2.55.74 2.56.72 2.56.72 2.5.71 2.41.63 2.33.44 2.25.25 2.21.26 2.18.56 2.19.93 2.16.81 2.12-.23 2.06-1.89 2.05-3.6 2.14" filter="url(#a)"/><path d="m-57.84-37.83-1.87 1.87-1.53 2.01-.74 2.01-.61 2.04-.73 2.11-.87 2.27-.91 2.48-.85 2.67-.72 2.78-.59 2.81-.49 2.74-.46 2.65-.54 2.57-.65 2.51-.76 2.51-.81 2.54-.81 2.61-.76 2.65-.66 2.7-.5 2.73-.26 2.75.02 2.74.16 2.7v2.66l-.36 2.59-.56 2.47-.24 2.16" filter="url(#a)"/><path d="m-57.92-37.97-1.72 1.72-4.04 2.34-3.96 2.63-2.62 2.74-1.2 2.74-.12 2.71.49 2.66.57 2.59.18 2.52-.5 2.48-1.21 2.47-1.73 2.5-1.94 2.53-1.84 2.56-1.52 2.56-1.14 2.58-.77 2.6-.52 2.63-.42 2.68-.52 2.75-.84 2.79-1.31 2.82-1.79 2.78-2.02 2.72-1.81 2.61-1.15 2.51-.38 2.44-.1 2.37-.65 2.27-1.28 2.3.16 3.41m35.35-78.18-.89 2.24-.73 2.03-.67 2.02-.68 2.09-.74 2.25-.82 2.48-.87 2.69-.9 2.81-.89 2.82-.85 2.75-.79 2.65-.74 2.55-.68 2.5-.65 2.5-.59 2.54-.52 2.6-.42 2.66-.33 2.69-.25 2.73-.18 2.74-.16 2.74-.19 2.7-.18 2.65v2.59l.42 2.46.95 2.16" filter="url(#a)"/><path d="m-58.34-36.8-4.7 2.72-2.45 2.73-1.54 2.78-1.39 2.74-1.98 2.7-2.69 2.65-3.04 2.56-2.91 2.48-2.45 2.42-1.9 2.42-1.41 2.46-1.06 2.51-.84 2.54-.8 2.54-1.07 2.52-1.87 2.53-3.17 2.54-4.59 2.6-5.34 2.69-4.52 2.82-2.15 2.95.19 3-.08 3.03" filter="url(#a)"/><path d="m-59.35-33.45-2.72 1.69-2.01 1.98-.79 2.04-.55 2.21-.77 2.48-.86 2.71-.73 2.84-.54 2.85-.43 2.75-.46 2.64-.53 2.52-.59 2.48-.58 2.48-.54 2.53-.51 2.59-.5 2.65-.48 2.69-.46 2.72-.43 2.75-.39 2.73-.34 2.7-.21 2.66.09 2.67.32 2.48" filter="url(#a)"/><path d="m-59.35-33.45-6.69 1.71-5.79 2-2.55 2.08-.27 2.27.65 2.53.52 2.74-.03 2.85-.62 2.84-1.14 2.76-1.63 2.66-2.08 2.58-2.39 2.54-2.47 2.55-2.3 2.58-1.87 2.63-1.31 2.68-.68 2.7-.07 2.73.45 2.72.81 2.71.97 2.66.9 2.62.63 2.56.2 2.5-.31 2.46-.85 2.43-1.34 2.43-1.71 2.46-1.94 2.5-2.02 2.46-1.8 2.31-.78 1.95 1.81 1.33M60.86-27.56l1.62 2.52.8 2.59.89 2.48.88 2.53.75 2.72.67 2.9.7 2.97.77 2.93.77 2.79.71 2.63.57 2.5.42 2.41.28 2.41.16 2.44.07 2.48v2.51l-.05 2.51-.05 2.48.02 2.44.12 2.43.15 2.48v2.57l-.29 2.66-.56 2.6-.96 2.22" filter="url(#a)"/><path d="m60.31-29.74 1.13 4.07.89 2.88.64 2.43.42 2.35.35 2.43.33 2.52.33 2.58.32 2.59.29 2.57.22 2.55.14 2.56.07 2.62-.01 2.69-.08 2.76-.14 2.78-.19 2.73-.24 2.62-.26 2.47-.26 2.36-.26 2.32-.29 2.41-.37 2.59-.49 2.77-.61 2.87-.61 2.65-.19 1.16m-1.11-67.88 4.03 2.58.98 2.61 1.98 2.56 2.39 2.52 1.41 2.6.06 2.75-.76 2.89-.78 2.94-.2 2.9.63 2.79L71.54-.5l2.11 2.53 2.51 2.46 2.62 2.44 2.44 2.46 1.98 2.49 1.29 2.51.53 2.51-.08 2.49-.28 2.49-.01 2.48.6 2.52 1.19 2.58 1.45 2.62 1.31 2.66 1.12 2.65 1.28 2.62 1.49 2.68.43 3.27" filter="url(#a)"/><path d="m60.33-30.29.71 2.57.84 2.6.77 2.56.56 2.51.41 2.59.34 2.74.36 2.88.41 2.94.41 2.91.37 2.79.29 2.64.2 2.52.11 2.44.06 2.43.03 2.45.01 2.49-.03 2.51-.07 2.51-.16 2.48-.23 2.46-.32 2.46-.39 2.5-.45 2.57-.51 2.66-.62 2.69-.83 2.74-1.13 3.19" filter="url(#a)"/><path d="m59.91-31.01 3.59 1.35 2.84 2.12 1.58 2.41 1.48 2.48 2.39 2.52 3.2 2.6 3.15 2.74 2.17 2.86.8 2.93-.36 2.89-.84 2.79-.6 2.65.13 2.53.89 2.44 1.37 2.43 1.44 2.45 1.23 2.49 1.02 2.51 1.01 2.52 1.24 2.48 1.6 2.46 1.91 2.44 2.01 2.48 2.01 2.58 2.17 2.66 2.64 2.61 1.79 2.23" filter="url(#a)"/><path d="m59.16-33.5 1.65 2.08.89 2.69.95 2.85.94 2.73 1.02 2.57 1.2 2.5 1.36 2.5 1.32 2.55 1.1 2.58.77 2.59.48 2.59.28 2.6.16 2.62.1 2.66.02 2.7-.06 2.74-.12 2.74-.13 2.69-.07 2.62.04 2.54.15 2.48.25 2.46.3 2.5.28 2.56.18 2.6v2.6l-.24 2.54-.47 2.44-.65 2.31-.66 2.2-.54 2.14-.47 2.19-.73 2.44-1.04 2.55" filter="url(#a)"/><path d="m59.12-34.32 1.02 2.5.49 2.11.46 2.24.51 2.4.53 2.49.58 2.56.6 2.65.61 2.77.58 2.87.47 2.9.33 2.86.17 2.78.04 2.67-.07 2.58-.12 2.52-.16 2.49-.18 2.49-.2 2.5-.23 2.52-.27 2.52-.32 2.52-.36 2.52-.41 2.54-.45 2.56-.52 2.58-.58 2.6-.67 2.61-.75 2.58-.83 2.54-.86 2.46-.86 2.35-.85 2.25-.85 2.11-.87 1.99-1 1.9-1.23 1.94-1.43 1.94" filter="url(#a)"/><path d="m57.51-38.37 1.47 3.48 1.84 2.67 1.97 2.35 1.66 2.33 1.38 2.4 1.26 2.48 1.14 2.54.99 2.65.89 2.76.9 2.84 1.02 2.89 1.13 2.86 1.11 2.77.92 2.68.61 2.57.27 2.51-.05 2.48-.24 2.48-.31 2.5-.23 2.51-.06 2.52.19 2.51.42 2.51.59 2.51.68 2.55.68 2.58.57 2.62.36 2.64v2.63l-.45 2.58-.85 2.49-1.05 2.39-.96 2.34-.72 2.97" filter="url(#a)"/><path d="m56.67-41.2 6.49 1.5 1.13 2.22-.28 2.5-.3 2.48.17 2.42.86 2.4 1.67 2.43 2.35 2.47 2.66 2.55 2.47 2.65 1.87 2.74 1.12 2.83.47 2.86.11 2.85.06 2.77.23 2.68.56 2.59.95 2.51 1.41 2.48 1.92 2.49 2.41 2.5 2.76 2.51 2.88 2.52 2.65 2.51 2.1 2.5 1.31 2.5.48 2.54-.28 2.58-.82 2.64-1.03 2.66-.83 2.67-.21 2.63.61 2.7 1.04 3.28" filter="url(#a)"/><path d="m55.7-43.32 2.35 2.92 2.21 2.33 2.44 2.24 3.72 2.25L72-31.23l6.64 2.47 6.11 2.56 4.28 2.57 2.01 2.56.22 2.52-.52 2.53-.15 2.53 1.03 2.56 2.41 2.57 3.38 2.57 3.48 2.57 2.68 2.58 1.37 2.62.14 2.7-.48 2.76-.29 2.81.5 2.8 1.46 2.67 2.22 2.48 2.6 2.27 2.57 2.17 1.9 2.33.33 2.7-.73 2.79" filter="url(#a)"/><path d="m55.42-44.1 6.37 2.29.89 2.06 1.34 2.26 2.04 2.42 1.9 2.43 1.53 2.4 1.53 2.4 1.92 2.41 2.39 2.46L78-20.45l2.68 2.62 2.57 2.72 2.49 2.81 2.49 2.87 2.57 2.87 2.66 2.8 2.74 2.68L99 1.47l2.8 2.47 2.77 2.44 2.7 2.45 2.63 2.5 2.71 2.54 2.89 2.54 2.8 2.5 1.95 2.43.69 2.32 1.26 2.3 5.72 2.72" filter="url(#a)"/><path d="m55.42-44.1 2.74 2.28 4.43 2.05 5 2.25 4.09 2.41 2.71 2.42 1.88 2.4 1.75 2.38 1.96 2.4 2.16 2.43 2.15 2.51 1.86 2.59 1.32 2.7.67 2.81.09 2.89-.18 2.89.02 2.82.68 2.68 1.49 2.53 2.13 2.41 2.33 2.38 2.22 2.42 2.28 2.52 2.97 2.58 3.89 2.57 3.59 2.56 1.13 2.99" filter="url(#a)"/><path d="m54.67-45.96 3.12 2.02 2.07 2.07 2.01 2.14 2.33 2.28 2.85 2.39 2.93 2.42 2.33 2.42 1.27 2.42.23 2.44-.38 2.49-.47 2.55-.15 2.65.44 2.73 1.17 2.81 1.96 2.85 2.78 2.84 3.57 2.77 4.22 2.69 4.64 2.59 4.69 2.53 4.33 2.48 3.56 2.49 2.48 2.5 1.27 2.52.18 2.52-.57 2.51-.81 2.5-.47 2.5.32 2.53 1.14 2.58 1.62 2.65 1.55 2.69 1.24 2.65 1.01 2.53 2.2 1.92M54.67-45.96l.91 2.02 1.15 2.08 1.38 2.14 1.46 2.29 1.38 2.39 1.2 2.43 1.03 2.42.87 2.42.76 2.45.65 2.49.59 2.57.55 2.65.53 2.74.52 2.81.49 2.84.48 2.83.46 2.77.48 2.69.52 2.6.56 2.54.59 2.5.57 2.49.48 2.51.33 2.52.12 2.52-.09 2.52-.29 2.51-.45 2.52-.52 2.54-.53 2.59-.51 2.63-.46 2.66-.44 2.65-.45 2.6-.54 2.52-.68 2.27-.39 1.29" filter="url(#a)"/><path d="m53.82-47.49 1.3 2.07 2.03 2.39 1.87 2.41 1.44 2.36 1.11 2.32.91 2.33.86 2.4.92 2.48 1.07 2.54 1.28 2.56 1.49 2.56 1.66 2.55 1.79 2.55 1.86 2.56 1.94 2.57 2.03 2.59 2.12 2.59 2.18 2.6 2.13 2.62 1.92 2.67 1.52 2.7.97 2.74.38 2.75-.08 2.71-.34 2.64-.35 2.54-.18 2.46.03 2.43.17 2.47.18 2.59.12 2.68.1 2.71.1 2.62.07 2.43.04 2.35.9 2.63M52.48-50.1l.26 2.32 1.08 2.27 1.11 2.34.98 2.36.83 2.33.64 2.29.41 2.3.11 2.35-.23 2.44-.54 2.51-.75 2.54-.79 2.53-.68 2.51-.45 2.5-.16 2.52.09 2.55.26 2.57.26 2.56.1 2.51-.17 2.48-.48 2.51-.75 2.61-1.05 2.68-1.4 2.64-1.21 2.92" filter="url(#a)"/><path d="m52.48-50.1 1.2 2.34 1.26 2.29 1.26 2.36 1.13 2.38.95 2.34.83 2.31.73 2.33.7 2.39.66 2.46.62 2.52.6 2.55.56 2.55.52 2.53.48 2.54.43 2.55.37 2.56.33 2.57.28 2.57.25 2.57.19 2.59.13 2.62.02 2.7-.06 2.77-.15 2.84-.2 2.83-.21 2.71-.2 2.49-.19 2.2-.21 2.04-.32 2.31-.68 3.19" filter="url(#a)"/><path d="m52.28-50.55.79 1.5.54 2.29-.36 2.31-.93 2.23-.97 2.22-.91 2.27-1.09 2.33-1.4 2.37-1.49 2.37-1.17 2.38-.45 2.39.36 2.42.92 2.46 1.04 2.55.7 2.66.17 2.8-.34 2.93-.73 2.99-1.14 2.93-1.68 2.76-2.3 2.47-2.72 2.21-2.6 2.1-.75 2.15" filter="url(#a)"/><path d="m50.3-53.95.81 1.59.46 2.14-.2 2.28-.41 2.34-.16 2.36.18 2.35.37 2.34.42 2.34.4 2.35.36 2.39.3 2.46.18 2.51.03 2.54-.11 2.54-.22 2.54-.28 2.54-.34 2.55-.41 2.57-.52 2.57-.68 2.57-.87 2.57-1.1 2.58-1.36 2.63-1.54 2.69-1.54 2.78-1.32 2.86-.92 2.88-.63 2.78-.68 2.49-1.14 2.08-1.77 1.75-1.71 1.9m12.91-80.23 2.81 1.67 1.3 1.79 2.84 1.91 4.63 2.05 4.99 2.16 3.87 2.22 2.21 2.25.85 2.28.16 2.32.05 2.35.23 2.38.5 2.4.7 2.43.85 2.45 1 2.49 1.18 2.56 1.47 2.63 1.84 2.72 2.28 2.79 2.73 2.84 3.16 2.84 3.51 2.78 3.78 2.71 3.89 2.6 3.82 2.52 3.52 2.48 3.01 2.48 2.35 2.51 1.72 2.54 1.3 2.55 1.28 2.51 1.76 2.45 2.52 2.41 2.84 2.44 1.74 2.63.61 2.96" filter="url(#a)"/><path d="m47.57-58.47 1.32 1.69 1.47 2.06 1.57 2.12 1.85 2.19 2.16 2.24 2.44 2.29 2.61 2.32 2.65 2.32 2.56 2.31 2.4 2.3 2.14 2.31 1.77 2.35 1.27 2.42.75 2.49.38 2.54.3 2.52.56 2.49 1.1 2.46 1.79 2.49 2.5 2.57 2.95 2.7 2.8 2.75 1.78 2.42.17 1.18" filter="url(#a)"/><path d="m47.35-58.72 3.31 2.08 2.98 1.87 3.15 1.86 2.83 1.93 2.42 2.04 1.94 2.13 1.35 2.2.83 2.24.63 2.27.88 2.3 1.46 2.35 2.17 2.37 2.67 2.39 2.8 2.41 2.49 2.44 1.97 2.47 1.47 2.54 1.28 2.61 1.54 2.71 2.13 2.79 2.87 2.87 3.42 2.87 3.62 2.83 3.39 2.71 2.85 2.58 2.15 2.46 1.46 2.41.94 2.45.69 2.53.76 2.6.94 2.59.56 2.58-1.19 3.01" filter="url(#a)"/><path d="m47.07-59.38 3.48 1.12L58-56.64l7.18 1.93 5.34 2.07 3.72 2.16 2.49 2.23 1.35 2.28.43 2.31-.05 2.32.17 2.31 1.06 2.3 2.28 2.31 3.33 2.34 3.81 2.42 3.68 2.5 3.34 2.53 3.34 2.53 3.96 2.48 4.78 2.45 5.01 2.45 4.23 2.57 3.28 2.78 4.01 3.12 6.83 3.09M44.24-62.88l2.49 3.35 1.82 2.47 1.59 2.07 1.5 1.94 1.43 1.95 1.37 2.02 1.33 2.11 1.34 2.17 1.37 2.21 1.42 2.25 1.48 2.29 1.56 2.32 1.62 2.35 1.63 2.37 1.6 2.39 1.47 2.39 1.31 2.43 1.22 2.46L73-18.81l1.29 2.64 1.33 2.8 1.28 2.96 1.15 3.09 1.04 3.08.96 2.88.74 2.41.5 1.62" filter="url(#a)"/><path d="m44.24-62.88 2.61 3.32 2.51 2.46 3.29 2.06 4.08 1.92 4.15 1.92 3.41 2 2.38 2.09 1.56 2.15 1.18 2.19 1.25 2.21 1.7 2.26 2.46 2.31 3.51 2.34 4.65 2.35 5.54 2.35 5.9 2.36 5.56 2.39 4.67 2.38 3.47 2.35 2.07 2.39.42 2.79.17 4.1" filter="url(#a)"/><path d="m42.62-65.04 4.21 1.63 3.67 1.85 2.23 2.13 1.97 2.15 2.3 2.07 2.67 2.02 2.88 2.01 2.84 2.05 2.6 2.11 2.39 2.17 2.45 2.21 2.95 2.25 3.74 2.29 4.46 2.33 4.72 2.36 4.37 2.37 3.52 2.4 2.58 2.41 1.99 2.44 1.99 2.48 2.52 2.56 3.27 2.66 3.96 2.8 4.44 2.95 4.7 3.03 4.72 3.01 4.49 2.83 4.08 2.49 3.63 2.14 4.24 2.2" filter="url(#a)"/><path d="m41.56-66.26 8.76 1.19-.12 2.14-.65 2.17.5 2.03 1.73 1.98 2.68 2.01 3.22 2.08 3.37 2.15 3.24 2.23L67.23-46l2.5 2.31 2.02 2.32 1.56 2.33 1.25 2.34 1.13 2.35 1.2 2.4 1.35 2.44 1.48 2.49 1.5 2.53 1.47 2.53 1.5 2.53 1.65 2.52 1.96 2.54 2.34 2.58 2.8 2.6L96.2-6.6l3.63 2.52 3.49 2.43L105.8.83l1.06 2.85 1.75 3.64" filter="url(#a)"/><path d="m41.56-66.26 1.38 1.2 2.31 2.15 1.98 2.17 1.61 2.05 1.61 1.99 1.83 2.02 2.09 2.09 2.35 2.17 2.7 2.24 3.18 2.29 3.81 2.32 4.42 2.33 4.8 2.35 4.84 2.35L85-34.16l3.92 2.42 3.2 2.45 2.53 2.5 1.98 2.52 1.63 2.55 1.49 2.54 1.54 2.55 1.81 2.56 2.31 2.57 2.97 2.58 3.66 2.58 4.17 2.57 4.29 2.58 3.96 2.61 3.3 2.68 2.53 2.8 1.84 2.92 1.34 3.04 1.4 3.03 2.51 2.66 3.74 1.75M38.5-69.53l1.49 1.34 2 1.49 2.66 1.73 3.47 1.93 3.89 2 3.74 1.99 3.29 1.96 2.9 1.99 2.68 2.03 2.52 2.1 2.3 2.18 2.06 2.24 1.96 2.28 2.14 2.31 2.6 2.31 3.15 2.28 3.59 2.22 3.79 2.2 3.9 2.29 4.45 2.61 5.88 3.07 7.76 3.05" filter="url(#a)"/><path d="m37.61-70.63 11.84 2.32 3.38 1.69 2.11 1.6 1.49 1.71.99 1.87 1.02 1.99 1.65 2.05 2.47 2.05 3.04 2.04 3.19 2.06 3.02 2.08 2.77 2.12 2.58 2.18 2.46 2.21 2.31 2.27 2.11 2.3 1.84 2.33 1.61 2.37 1.55 2.38 1.73 2.41 2.13 2.44 2.58 2.47 2.94 2.53 3.06 2.6 2.94 2.69 2.76 2.81 2.69 2.89 2.79 2.93 2.96 2.88 3.07 2.76 3.06 2.56 2.96 2.38 2.83 2.3 2.8 2.37 3.2 2.65 3.6 3.22M36.79-71.19l1.56 1.51 1.46 1.48 1.55 1.59 1.76 1.77 1.94 1.93 2 1.99 1.93 2.01 1.81 2.01 1.66 2.05 1.53 2.09 1.42 2.16 1.33 2.22L58-46.12l1.23 2.31 1.2 2.32 1.19 2.33 1.12 2.35 1.02 2.37.9 2.4.78 2.44.72 2.5.75 2.52.86 2.54 1 2.53 1.11 2.54L71-14.42l1.02 2.58.83 2.61.62 2.59.48 2.53.41 2.44.43 2.49.55 2.85.81 3.65" filter="url(#a)"/><path d="m36.79-71.19 1.71 1.5 1.44 1.45 1.4 1.56 1.47 1.75 1.55 1.9 1.55 1.98 1.46 1.98 1.37 1.99 1.28 2 1.23 2.05 1.22 2.12 1.21 2.19 1.18 2.25 1.12 2.29 1.04 2.31.94 2.31.87 2.29.82 2.27.81 2.3.81 2.39.85 2.54.84 2.7.75 2.66.61 2.37.55 2.2M35.42-72.7l2.43 1.48 5.04 1.46 5.04 1.49 3.28 1.59 2.03 1.75 2.11 1.88 2.94 1.95 3.65 1.98 3.76 1.99 3.29 2.01 2.55 2.06 1.9 2.12 1.52 2.18 1.5 2.25 1.8 2.29 2.41 2.31 3.29 2.31 4.4 2.3 5.57 2.28 6.5 2.3 6.83 2.39 6.28 2.55 5.05 2.69 3.9 2.67 3.47 2.38 1.96 2.2" filter="url(#a)"/><path d="m35.42-72.7 1.52 1.48 2.03 1.48 2.2 1.5 1.94 1.61 1.71 1.77 1.66 1.89 1.74 1.96 1.84 1.99 1.89 2.01 1.91 2.04 1.88 2.08 1.83 2.14 1.82 2.21 1.83 2.26 1.87 2.29 1.92 2.32 1.98 2.32 2 2.33 1.98 2.34 1.93 2.38 1.91 2.44 1.91 2.5 1.96 2.54 1.98 2.54 1.89 2.51 1.63 2.48 1.27 2.48.95 2.59.92 2.8 1.32 3.14 1.52 3.12" filter="url(#a)"/><path d="m35.42-72.7 2.13 1.49 2.83 1.48 2.14 1.5 1.42 1.62 1.29 1.77 1.57 1.9 2.04 1.96 2.52 2 2.93 2.01 3.18 2.04 3.28 2.1 3.23 2.15 3.06 2.21 2.79 2.26 2.45 2.3 2.09 2.31 1.77 2.33 1.53 2.34 1.47 2.36 1.55 2.39 1.76 2.45 2 2.49 2.17 2.53 2.18 2.54 2.01 2.53 1.7 2.51 1.3 2.54.97 2.59.82 2.66 1.09 2.67 1.84 2.49 2.78 2.17 3.21 2.45" filter="url(#a)"/><path d="m30.42-76.47 1.68 1.16 2.12 1.49 2.34 1.64 2.28 1.72 2.01 1.73 1.74 1.7 1.58 1.71 1.56 1.76 1.62 1.84 1.69 1.92 1.77 1.98 1.85 2.01 1.91 2.01 1.96 2.02 1.96 2.04 1.9 2.09 1.78 2.13 1.57 2.17 1.3 2.21 1.07 2.26.94 2.32.99 2.36 1.24 2.37 1.54 2.31 1.75 2.31 1.81 2.52 1.49 3.09" filter="url(#a)"/><path d="m30.42-76.47 3.26 1.17 3.87 1.51 2.7 1.67 1.67 1.73 1.29 1.74 1.47 1.72 1.88 1.74 2.24 1.79 2.39 1.87 2.32 1.94 2.14 2 1.91 2.02 1.72 2.04 1.58 2.05 1.48 2.09 1.46 2.12 1.5 2.16 1.64 2.21 1.85 2.25 2.1 2.29 2.28 2.33 2.37 2.36 2.26 2.38 2.01 2.4 1.68 2.42 1.4 2.45 1.22 2.49 1.19 2.55 1.24 2.67 1.34 2.8 1.48 2.98 1.68 3.09 1.99 3.11 2.44 2.9 2.72 2.46.93 1.64" filter="url(#a)"/><path d="m28.89-77.68 2.83 2.1 2.07 1.63 1.68 1.41 1.56 1.36 1.63 1.41 1.87 1.5 2.24 1.61 2.59 1.74 2.81 1.84 2.81 1.92 2.58 1.96 2.22 2 1.8 2.04 1.46 2.08 1.23 2.13 1.13 2.2 1.17 2.24 1.32 2.29 1.51 2.32 1.72 2.32 1.89 2.32 2 2.32 2.04 2.36 2.05 2.42 2.01 2.52 1.93 2.59 1.75 2.59 1.53 2.48 1.41 2.41 1.51 2.58 1.64 3.35M29.64-77.15l7.23.8 4.08 1.15 2 1.42 1.78 1.59 1.78 1.67 1.64 1.71 1.63 1.7 1.96 1.71 2.58 1.75 3.26 1.84 3.77 1.91 3.99 1.97 4 2 3.95 2.01 4 2.01 4.17 2.03 4.37 2.08 4.58 2.12 4.84 2.16 5.25 2.2 5.61 2.24 5.56 2.33 4.94 2.43 4.45 2.4 5.3 2.18 6.53 2.18M28.35-78.25l-.18-.9-.93-1.04-2.05-1-2.32-.89-2.18-.77-1.95-.68-1.79-.59-1.72-.53-1.69-.48-1.73-.43-1.81-.37-1.95-.3-2.14-.23-2.38-.16-2.6-.08-2.82-.01-2.99.07-3.2.13-3.41.23-3.64.32-3.82.44-3.98.54-3.36.36" filter="url(#a)"/><path d="m28.49-77.81 3.6-1.37-1.44-1.11-3.52-1.03-3.68-.96-3.1-.86-2.47-.73-2.05-.61-1.87-.51-1.89-.45-2-.38-2.12-.32-2.23-.25-2.34-.18-2.45-.09h-2.57l-2.7.09-2.85.16-3 .26-3.18.33-3.38.4-3.61.48-3.81.55-3.96.6-4.06.65-4.11.71-4.16.77-4.3.84-4.53.94-4.76 1.04-4.83 1.17-5.98 1.59" filter="url(#a)"/><path d="m26-79.49-1.33-.9-1.8-.96-1.9-.97-1.83-.87-1.73-.72-1.7-.6-1.73-.5-1.82-.44-1.93-.39-2.05-.33-2.17-.28-2.31-.2-2.45-.11-2.64-.03-2.83.06-3.05.14-3.27.22-3.47.3-3.65.38-3.83.49-3.94.58-3.6.58" filter="url(#a)"/><path d="m26-79.49-.69-.91-1.19-.97-1.29-.97-1.23-.87-1.23-.72-1.43-.59-1.81-.5-2.22-.44-2.51-.38-2.67-.33-2.76-.25-2.81-.18-2.89-.09-2.97-.01-3.07.09-3.17.16-3.27.25-3.37.33-3.5.4-3.65.48-3.9.54-4.2.59-4.5.65-4.65.7-4.62.73-4.69.81-5.47 1.01-7.17 1.46" filter="url(#a)"/><path d="m24.22-80.4-.01-.98-2.09-1.02-2.56-.89-2.32-.72-2.03-.57-1.89-.48-1.87-.43-1.92-.38-2-.32-2.08-.25-2.16-.18-2.23-.09h-2.31l-2.37.09-2.42.17-2.46.25-2.46.33-2.46.4-2.41.48-2.36.54-2.31.6-2.29.65-2.33.69-2.45.74-2.64.8-3.09 1.01-3.91 1.46" filter="url(#a)"/><path d="m24.22-80.4-1.64-.99-1.91-1.01-1.78-.9-1.71-.71-1.77-.58-1.85-.48-1.94-.43-2.01-.37-2.09-.32-2.18-.24-2.26-.17-2.34-.07H-1.7l-2.54.1-2.65.18-2.75.26-2.83.35-2.89.41-2.94.49-2.99.55-3.11.61-3.31.66-3.57.73-3.82.79-3.94.86-3.88.97-3.67 1.08-3.41 1.19-3.21 1.26-3.25 1.18-3.68.58" filter="url(#a)"/><path d="m22.25-81.7-1.59-.65-1.73-.76-1.69-.63-1.72-.54-1.75-.5-1.8-.46-1.84-.41-1.9-.34-1.96-.27-2.03-.18-2.08-.11-2.12-.03-2.16.05-2.18.14-2.22.22-2.25.31-2.28.38-2.31.48-2.34.55-2.36.62-2.37.71-2.37.78-2.36.85-2.32.93-2.27 1-2.21 1.07-2.16 1.12-2.14 1.19-2.13 1.25-2.13 1.31-2.1 1.37-2.03 1.45-1.96 1.49-1.96 1.52-2.07 1.53-2.25 1.53-2.16 1.42" filter="url(#a)"/><path d="m22.25-81.7-1.05-.65-1.8-.75-1.67-.63-1.63-.55-1.75-.49-1.86-.46-1.94-.41-2-.35-2.03-.27-2.09-.2-2.13-.11-2.2-.04-2.27.05-2.34.12-2.42.21-2.46.29-2.48.38-2.47.46-2.42.53-2.38.61-2.36.69-2.4.76-2.48.84-2.6.92-2.75.99-2.86 1.06-2.9 1.11-2.82 1.16-2.66 1.2-2.46 1.2-2.39 1.14-3.15 1.49" filter="url(#a)"/><path d="m22.89-81.38-2.61-1.08-2.13-.94-1.61-.71-1.45-.54-1.53-.47-1.69-.41-1.85-.37L8-86.21l-2.17-.24-2.32-.15-2.45-.07-2.56.02-2.66.11-2.76.19-2.83.27-2.87.36-2.9.42-2.88.5-2.86.56-2.84.62-2.83.69-2.84.75-2.88.82-2.99.89-3.12.99-3.27 1.07-3.38 1.15-3.48 1.2-3.55 1.25-3.59 1.3-3.56 1.37-3.51 1.48-3.7 1.61-5.1 1.89" filter="url(#a)"/><path d="m20.37-82.36.1-1.18-1.91-.68-2.15-.49-2.1-.42-1.98-.41-1.95-.37-2.02-.33-2.19-.26-2.39-.17-2.6-.09h-2.8l-2.95.09-3.07.17-3.15.25-3.24.32-3.4.41-3.65.47-3.98.53-4.3.6-4.41.65-4.18.71-3.65.66-3.71.45" filter="url(#a)"/><path d="m20.37-82.36-3.21-1.19-2.1-.68-1.68-.49-1.77-.43-1.93-.4-1.94-.37-1.84-.32-1.71-.24-1.6-.16-1.51-.08-1.43.02-1.38.11-1.3.18-1.2.27-1.07.35-.93.42-.78.49-.66.55-.55.61-.46.67-.34.73-.19.78v.87l.23.97.46 1.07.59 1.19.54 1.27.56 1.18 1.23.57" filter="url(#a)"/><path d="m18.01-83.62-.78-.34-.9-.4-1.39-.46-1.73-.46-1.98-.42-2.14-.35-2.21-.28-2.25-.19-2.28-.11-2.29-.04-2.32.03-2.36.12-2.41.19-2.46.29-2.52.36-2.6.45-2.68.52-2.74.59-2.8.65-2.83.74-2.86.82-2.93.92-3 .98-3.03.99-2.4.85" filter="url(#a)"/><path d="m16.29-84.09-1.05-.24-1.6-.5-1.56-.49-1.53-.42-1.65-.35-1.9-.26-2.17-.18-2.35-.09-2.46-.02-2.48.06-2.52.15-2.58.23-2.7.32-2.87.4-3.06.48-3.25.56-3.42.63-3.62.71-3.87.79-4.15.86-4.38.94-4.5 1.01-4.4 1.06-4.09 1.14-3.66 1.18-3.28 1.25-3.13 1.32-3.29 1.38-3.71 1.44-4.16 1.49-4.37 1.53-4.22 1.56-3.97 1.64-4.39 1.82-5.82 2.36" filter="url(#a)"/><path d="m16.29-84.09-1.06-.23-1.63-.49-1.67-.49-1.71-.43-1.8-.36-1.91-.27-2.02-.19-2.09-.11-2.13-.03-2.14.03-2.15.11-2.19.2-2.26.28-2.36.37-2.47.45-2.53.51-2.54.58-2.49.65-2.42.72-2.41.82-2.46.93-2.49 1.02-2.91 1.17" filter="url(#a)"/><path d="m16.29-84.09-1.05-.23-1.59-.49-1.63-.49-1.69-.43-1.78-.36-1.89-.27-2.01-.19-2.12-.11-2.17-.03-2.21.03-2.26.11-2.36.2-2.52.28-2.7.37-2.85.45-2.94.51-2.93.58-2.88.65-2.84.72-2.81.82-2.81.93-2.93 1.02-3.43 1.17" filter="url(#a)"/><path d="m16.29-84.09-1.08-.24-1.53-.5-1.49-.49-1.57-.42-1.8-.35-2.03-.27-2.23-.17-2.38-.1-2.46-.01-2.54.06-2.6.14-2.7.23-2.84.32-3.01.39-3.22.48-3.45.56-3.71.63-3.98.71-4.21.78-4.35.86-4.34.94-4.2 1-3.97 1.07-3.74 1.13-3.63 1.18-3.63 1.25-3.7 1.3-3.73 1.38-3.68 1.44-3.66 1.5-3.9 1.52-4.35 1.52-4.25 1.52-3.39 1.42" filter="url(#a)"/><path d="m14.54-84.86-1.45-.3-1.65-.43L9.6-86l-2.04-.34-2.19-.24-2.28-.16L.7-86.8l-2.5.03-2.66.11-2.83.19-3.02.27-3.2.35-3.4.42-3.62.48-3.82.55-3.99.61-4.05.65-4.01.7-3.97.75-4.14.82-4.6.92-4.85.99-3.5.68" filter="url(#a)"/><path d="m14.54-84.86-1.68-.3-1.98-.43-2-.41-1.99-.34-2-.24-2.05-.16-2.11-.06-2.19.03-2.3.11-2.38.19-2.46.27-2.52.35-2.56.42-2.59.48-2.63.55-2.67.61-2.74.65-2.78.7-2.77.75-2.69.82-2.63.92-2.68.99-2.51.68" filter="url(#a)"/><path d="m14.54-84.86-1.41-.31-1.74-.43-2.04-.41-2.19-.33-2.21-.24-2.2-.15-2.21-.05-2.25.04-2.32.12-2.39.21-2.46.29-2.5.36-2.52.44-2.5.5-2.45.57-2.41.62-2.39.69-2.45.74-2.59.82-2.77.89-2.95.98-3.04 1.08-3.04 1.15-3.01 1.2-3.05 1.23-3.25 1.27-3.64 1.35-4.01 1.46-3.4 1.26" filter="url(#a)"/><path d="m12.4-85.23-.83-.23-1.61-.37-1.84-.35-1.93-.26-2.01-.16-2.05-.09-2.05-.01-2.03.06-2.02.13-2.03.23-2.05.31-2.09.39-2.1.47-2.09.55-2.07.62-2.04.69-2.03.76-2 .85-1.99.92-1.94 1-1.9 1.05-1.85 1.11L-32-76.4l-1.85 1.2-1.78 1.18-1.58 1.14-1.7 1.48" filter="url(#a)"/><path d="m12.4-85.23-.86-.23-1.65-.38-1.9-.34-1.96-.26-2.02-.16-2.03-.08H-.06l-2.02.07-2.02.15-2.02.24-2.04.33-2.06.41-2.06.49-2.04.57-2 .64-1.97.72-1.93.8-1.88.87-1.85.95-1.82 1.01-1.79 1.08-1.75 1.13-1.71 1.2-1.69 1.26-1.65 1.32-1.63 1.38-1.6 1.45-1.59 1.49-1.56 1.55-1.56 1.61-1.56 1.7-1.56 1.82-1.58 1.95-1.53 2.02-1.51 1.92" filter="url(#a)"/><path d="m13.18-85.03-2.43-.55-2.05-.46-2-.34-1.99-.25-1.98-.14-1.98-.06-2 .04-2 .11-2.02.2-2.04.27-2.03.35-2 .43-1.96.49-1.9.55-1.85.6-1.79.66-1.76.7-1.72.75-1.72.81-1.74.93-1.71.98-1.18.68" filter="url(#a)"/><path d="m12.27-85.32-2.2-.49-2.1-.41-1.99-.27-1.97-.15-1.97-.08-1.92-.01-1.83.05-1.74.13-1.65.22-1.59.3-1.55.39-1.53.47-1.52.54-1.47.6-1.38.67-1.24.75-1.08.84-.92.92-.83.98-.8 1.03-.87 1.05-.79 1.05-.11.8" filter="url(#a)"/><path d="m12.27-85.32-1.6-.49-2.16-.41-2.15-.27-2.12-.15-2.13-.07-2.14-.01-2.17.07-2.23.15-2.33.23-2.43.32-2.52.41-2.55.48-2.55.56-2.51.63-2.47.71-2.45.78-2.46.86-2.54.93-2.66 1-2.8 1.06-2.88 1.12-2.92 1.18-2.87 1.23-2.82 1.29-2.8 1.37-2.83 1.46-2.86 1.51-2.66 1.46-2.87 1.77" filter="url(#a)"/><path d="m10.2-85.65-1.56-.47-1.61-.33-1.86-.22L3-86.81l-2.47-.03-2.78.05-3.04.14-3.22.22-3.23.3-3.14.37-3.05.45-3.02.51-3.11.57-3.22.63-3.33.69-3.38.75-3.44.82-3.57.91-3.84.99-4.23 1.07-4.62 1.15-4.89 1.21-4.97 1.24-4.88 1.29-4.71 1.36-4.41 1.48-3.88 1.6-5.48 1.88" filter="url(#a)"/><path d="m10.01-85.79-2.14-.52-1.84-.25-1.95-.12-2.12-.06H-.25l-2.2.07-2.2.16-2.2.24-2.22.33-2.25.42-2.27.49-2.26.58-2.23.64-2.19.72-2.16.79-2.14.87-2.16.94-2.2 1.01-2.27 1.08-2.35 1.13-2.47 1.19-2.62 1.25-2.81 1.31-2.96 1.38-3.04 1.44-2.96 1.49-2.76 1.52-2.57 1.56-2.59 1.63-2.82 1.81-2.85 2.36" filter="url(#a)"/><path d="M10.01-85.79 8.1-86.3l-1.61-.26-1.92-.12-2.25-.07H-.06l-2.39.06-2.43.14-2.56.22-2.8.31-3.1.4-3.44.47-3.71.55-3.88.61-3.97.68-4.05.76-4.24.84-4.58.92-4.96.98-5.23 1.04-5.33 1.09-5.35 1.19-5.34 1.38-6.7 2.05" filter="url(#a)"/><path d="m8.62-86.22-2-.29-2.06-.21-2.01-.13-1.99-.03-2.01.05-2.04.14-2.07.22-2.09.29-2.08.37-2.05.44-1.99.5-1.91.57-1.86.62-1.84.67-1.83.72-1.87.79-1.9.87-1.97.96-2.04 1.08-2.07 1.18-2.05 1.26-1.81 1.17-1.02.56" filter="url(#a)"/><path d="m8.62-86.22-2.06-.3-2.07-.2-2.06-.13-2.12-.03-2.23.07-2.35.15-2.48.23-2.62.31-2.7.38-2.7.45-2.57.53-2.37.58-2.21.64-2.17.7-2.28.77-2.54.84-2.86.92-3.17 1-3.39 1.08-3.51 1.16-3.58 1.21-3.59 1.27-3.63 1.34-3.63 1.42-3.6 1.53-3.47 1.64-3.3 1.75-3.22 1.82-3.28 1.88-3.06 2.16" filter="url(#a)"/><path d="m6.56-86.62-2.18-.15-2.03-.12-2.03-.03-2.12.08-2.19.16-2.22.23-2.19.32-2.14.39-2.09.46-2.06.52-2.07.59-2.12.65-2.2.71-2.27.77-2.31.84-2.31.92-2.28 1.01-2.25 1.09-2.23 1.16-2.21 1.22-2.21 1.28-2.2 1.34-2.24 1.44-2.35 1.53-2.56 1.64-2.77 1.74-2.82 1.8-2.59 1.81-2.09 1.77-1.62 1.47" filter="url(#a)"/><path d="m6.56-86.62-2.2-.15-2.07-.12-2.12-.02-2.19.07-2.22.16-2.22.24-2.22.32-2.22.4-2.24.47-2.25.53-2.26.6-2.26.65-2.23.72-2.17.78-2.08.86-1.99.94-1.96 1.02-1.99 1.1-2.1 1.17-2.29 1.24-2.5 1.3-2.71 1.38-2.9 1.46-3.02 1.55-3.11 1.64-3.14 1.71-3.16 1.76-3.15 1.8-3.18 1.82-3.25 1.87-3.37 1.97-3.43 2.14-3.25 2.4-3.17 2.91" filter="url(#a)"/><path d="m5.32-86.72-1.02-.03-2.25-.03-2.32-.01-2.18.07-2.15.15-2.27.24-2.45.34-2.65.42-2.8.5-2.87.57-2.89.64-2.88.71-2.85.78-2.8.87-2.77.94-2.73 1-2.76 1.06-2.88 1.12-3.13 1.18-3.49 1.22-3.93 1.29-4.34 1.37-4.63 1.46-4.73 1.5-4.49 1.46-3.62 1.76" filter="url(#a)"/><path d="m4.19-86.69-2.01-.25-1.8-.02-1.83.09-1.88.17-1.92.25-1.9.32-1.83.41-1.72.47-1.62.54-1.51.61-1.43.66-1.37.73-1.35.79-1.32.87-1.31.95-1.28 1.03-1.25 1.1-1.19 1.18-1.1 1.25-.98 1.33-.82 1.39-.66 1.48-.53 1.56-.45 1.64-.44 1.71-.42 1.76-.38 1.82-.25 1.86-.05 1.92.19 2.01.43 2.11.67 2.19.8 2.22.76 2.14.58 1.91-.03 1.32" filter="url(#a)"/><path d="m5.08-86.71-3.17-.08-2.45-.02-2.09.07-2.06.16-2.21.25-2.4.36-2.55.44-2.63.52-2.67.59-2.68.66-2.67.73-2.63.81-2.57.89-2.5.96-2.45 1.03-2.46 1.09-2.54 1.15-2.65 1.2-2.76 1.27-2.78 1.33-2.73 1.39-2.61 1.45-2.45 1.5-2.31 1.57-2.29 1.63-2.48 1.72-2.93 1.84-3.56 1.96-4.02 2.1-3.89 2.26-3.36 2.51-4.25 2.84" filter="url(#a)"/></g><g fill="none" stroke="#000"><circle cx="9.872" cy="31.944" r="1.06" filter="url(#a)"/><circle cx="9.948" cy="34.128" r="2.92" filter="url(#a)"/><circle cx="7.4" cy="35.424" r="1.08" filter="url(#a)"/><circle cx="9.424" cy="32.456" r="2.156" filter="url(#a)"/><circle cx="9.384" cy="31.968" r="2.508" filter="url(#a)"/><circle cx="8.764" cy="35.316" r="1.696" filter="url(#a)"/><circle cx="9.468" cy="34.992" r="1.188" filter="url(#a)"/><circle cx="7.4" cy="34.98" r="1.028" filter="url(#a)"/><circle cx="10.416" cy="34.272" r="2.292" filter="url(#a)"/><circle cx="9.148" cy="32.664" r="1.28" filter="url(#a)"/><circle cx="-8.752" cy="39.75" r="2.54" filter="url(#a)"/><circle cx="-7.872" cy="39.178" r="1.786" filter="url(#a)"/><circle cx="-7.16" cy="37.878" r="1.732" filter="url(#a)"/><circle cx="-7.128" cy="39.25" r="2.498" filter="url(#a)"/><circle cx="-9.852" cy="41.378" r="1.64" filter="url(#a)"/><circle cx="-8.408" cy="39.21" r="1.386" filter="url(#a)"/><circle cx="-9.5" cy="41.194" r="2.728" filter="url(#a)"/><circle cx="-7.596" cy="39.894" r="2.304" filter="url(#a)"/><circle cx="-7.352" cy="38.078" r="1.244" filter="url(#a)"/><circle cx="-8.652" cy="38.65" r="1.784" filter="url(#a)"/></g><path fill="#D77F8C" stroke="#000" stroke-linejoin="round" stroke-width="3" d="m10.07 45.64.13.31-.04-.39.01.74-.01-.3-.04.65-.14.95.01.12-.02-.19.06.21-.12.13-.11.63-.19.53-.34.82.1-.38-.24.71-.34.42.32-.49-.09.3-.8 1.09-.35.47-.2.2.06-.08.2-.17-.55.56-.16.18-.16.19-.9.83.02.01-.77.55.19-.14-.53.38-.3.22-.01.01-.52.29h.06l-1.02.51-.78.39-.18.07h.03l-.4.16.24-.09-.69.25-1.32.41.64-.18-.49.15-.8.2-.79.17.39-.09-.6.12-.8.12-.73.08-.12.01.16-.01-.7.05-1.21.01.17-.01-.24.01-.21-.02-1.46-.09.37.04-.82-.13-.91-.13.73.14-.29-.08-.57-.11-.43-.09-.31-.06-1.35-.43.63.19-.83-.3h-.1l-.66-.31-.29-.1-.99-.53-.09-.08-.23-.13-.39-.28.02.07.12.05-.79-.65-.16-.07-.03-.1-.76-.71-.24-.26.29.41-.17-.27-.75-.76.31.23-.28-.36-.34-.46v-.02l-.7-1.13.16.17.03-.02-.32-.48-.1-.42-.12-.51-.04-.22-.23-.72.12.6-.04-.43-.15-1.04.03-.33v.51l.01-.75.05-.23.01-.52.11-.34.26-.85-.25.62.23-.64-.02-.01.35-.94.02-.11.16-.31.33-.52-.13.1.31-.42.6-.95.14-.11-.43.55.81-1.02-.22.33.31-.37.44-.52-.08.15.75-.76.19-.17.63-.47.66-.45.11-.08-.65.48.27-.22.35-.23.82-.48.88-.48.62-.29-.85.39 1.43-.61-.43.19.26-.11 1.11-.42.12-.04.02-.01.79-.23-.08.03 1.55-.34.28-.05.38-.06.19-.02.34-.05.69-.06-.39.03 1.11-.07-.31.02 1.72-.02h-.32l.66.02.5.05.83.09.22.05.35.04.44.08.67.19-.73-.17.48.08 1.56.49-.81-.28.32.07 1.53.59-.83-.32.7.23 1.12.62-.42-.22 1.18.59.01.01.51.34-.59-.38.38.27.73.49.42.39.36.32.16.18.3.34.09.09.51.62-.29-.34.01.02.67.89.27.48.11.2-.12-.17.15.3-.05.02.27.39v.32l.24.4.09.63.09.1" filter="url(#a)"/></svg>