<svg xmlns="http://www.w3.org/2000/svg" width="500" height="500" viewBox="-100 -100 200 200"><defs><clipPath id="c"><path d="m26.45-6.64-.28-.47-.31-.45-.33-.46-.36-.45-.39-.44-.41-.44-.42-.42-.45-.41-.47-.4-.48-.38-.51-.37-.52-.35-.53-.34-.55-.31-.56-.3-.64-.51-.66-.47-.67-.44-.69-.39-.71-.36-.72-.31-.73-.28-.74-.24-.75-.19-.76-.16-.77-.12-.78-.08-.77-.05-.79-.01-.78.03-.79.06-.79.09-.78.12-.78.15-.78.18-.78.2-.77.23-.76.25-.76.27-.74.3-.74.3-.73.33-.71.34-.7.35-.69.37-.68.37-.66.39-.65.39-.63.39-.61.41-.6.4-.58.41-.57.42-.54.41-.53.41-.51.42-.49.41-.48.41-.45.41-.44.41-.42.41-.4.4-.38.4-.37.4-.34.4-.33.39-.32.4-.3.39-.28.39-.27.39-.25.39-.23.39-.22.39-.2.39-.19.38-.17.39-.16.38-.14.39-.13.38-3.37 4.21.3.27.32.28.32.29.32.29.34.29.34.29.35.29.36.3.37.29.37.3.38.3.39.29.39.3.41.29.41.3.42.29.43.3.44.29.45.29.46.29.46.28.48.28.49.27.5.27.5.25.52.25.52.23.54.23.54.21.56.2.56.18.57.17.59.15.59.13.6.11.61.1.62.08.63.06.63.03.65.02.66-.01.66-.02.67-.05.69-.07.69-.1.7-.12.7-.14.72-.16.72-.18.73-.21.73-.23.74-.25.75-.27.75-.3.76-.31.76-.33.77-.35.76-.37.77-.39.77-.4.77-.41.77-.43.76-.44.76-.45.62-.36.62-.37.6-.38.6-.38.58-.39.58-.4.56-.4.55-.41.54-.41.52-.42.5-.42.49-.43.46-.43.44-.42.42-.43"/></clipPath><clipPath id="b"><path d="m-26.2-6.82.24-.45.28-.46.3-.44.33-.44.35-.44.37-.43.4-.41.42-.41.44-.39.46-.39.48-.36.5-.36.52-.33.54-.32.55-.31.59-.49.62-.45.64-.43.66-.39.69-.36.71-.32.72-.29.75-.25.76-.22.78-.18.79-.15.8-.11.81-.08.83-.05.83-.02.83.02.84.04.85.07.84.1.85.13.84.14.84.18.84.19.83.21.82.23.82.25.8.27.8.28.78.29.78.31.75.32.75.32.73.34.71.34.7.35.68.35.67.36.64.36.63.36.61.37.6.36.57.37.55.36.54.37.52.36.5.36.49.35.46.36.45.35.44.35.41.35.41.35.39.34.37.34.36.35.34.33.33.34.32.34.3.33.29.33.28.33.26.33.25.33.23.32 1.41 7.69-.29.34-.31.34-.31.34-.33.34-.34.35-.34.34-.36.35-.37.35-.38.34-.39.35-.4.34-.41.34-.43.34-.44.33-.44.33-.47.32-.47.33-.49.32-.51.32-.51.3-.54.3-.55.29-.56.28-.58.27-.59.25-.61.24-.63.22-.64.2-.65.19-.67.16-.68.15-.7.13-.71.1-.72.08-.74.06-.74.03-.76.01-.77-.01-.77-.04-.79-.07-.79-.09-.8-.11-.8-.14-.81-.16-.81-.19-.82-.21-.82-.24-.81-.26-.82-.28-.81-.3-.82-.32-.8-.34-.8-.36-.8-.38-.78-.39-.78-.41-.76-.42-.75-.43-.74-.45-.72-.46-.71-.46-.69-.47-.67-.48-.66-.48-.58-.41-.57-.42-.56-.43-.55-.43-.52-.44-.51-.44-.49-.44-.48-.46-.45-.45-.44-.46-.41-.45-.39-.47-.36-.46-.34-.46-.32-.46"/></clipPath><filter id="a"><feTurbulence baseFrequency=".05" numOctaves="3" result="noise" type="noise"/><feDisplacementMap in="SourceGraphic" in2="noise" scale="2"/></filter></defs><rect width="100%" height="100%" x="-100" y="-100" fill="#E0B0FF"/><path fill="#C04000" stroke="#000" stroke-linejoin="round" stroke-width="1.667" d="m60.02.75.03.18.25.36-.35 3.25-.04 1.56.1.68.06 1.01-.32 3.81.15-1.77-.28 3.54-.33 2.12.05-.23-.19 1-.18 2.61-.31 1.66-.2-.17-.11 1.85-.17.79-.18 1.07-.48 3.44-.84 2.34.28-1.35-.54 3.09.13-.06-.74 1.93-.47 1.44-.06 1.79-.68 1.85-.03-.34-.82 2.7-.57 1.23.2.15-.95 2.06.37-.54-.62.88-.81 2.45-.6 2-.65 1.13-.7 2.03-.11.02.29-.64-1.9 3.81-.79 1.89.5-1.33-.91 1.58-1 2.19-.13.42-.94 1.84.04-.36-.6.58-1.45 2.52-1.05 1.95-.42.15-.24.58-1.83 2.11.56-.7-1.02 1.68-1.39 1.59-.97.96-.06.06-.96 1.42.71-1.3-2.52 2.58-.73 1 .08-.04-.77.88-1.61 1.35.42-.47-1.85 1.55-.28.36-.56.49-2.05 1.55.52-.1-1.58.78-.71.2-2.18 1.48.48-.03-1.38.51-.85.79-.99.33-.56.57-.05-.12-1.07.6-3.3 1.01.33.09.12.19-1.53.07-2.57 1.19 1.14-.67-1.89.55.37-.06-1.12.22-2.13.36-1.23.39-.67.34-.68.01-1.28-.16.13.34-.56-.16-1.83.06-1.32.18-1.15.03-1.17-.38-.91-.17.39.25-1.82-.29-.17.19-2.46-.73.24-.07-.1.02-1.77-.18-.56.12-2.29-.65.27-.17-.66-.04-2.3-1.21-.21.42-1.83-.94.13-.19.56.22-3.13-1.49-.04.36-.76-.73-.72-.36-.79-.58-.44-.06-.79-.63-1.31-1.02-1.91-1.39.38.65-1.03-.87.08.19-1.85-1.4-.96-.98-.95-.88-1.17-.79-.84-.73-.77-1.35-1.1-1.12.19.4-.52-.26-2.12-2.55 1.14 1.31-1.98-1.98.62.25-2.67-2.99-.14-.7-1.53-1.55 1.38 1.31-2.23-3.39-.6-.22-1.13-2.29 1.34 2.07-2.05-3-.93-1.85-.32-.59-.69-1.58-.9-1.13.52.73-.45-.84-1.27-2.16-.97-2.19.66.9-.89-1.44.01-.94-1.07-1.74-.73-2.26-.15-.27-.87-2.17.34 1.41-.97-3.02-1.41-4.28.18.2.58 2.18-1.68-6.07.68 2.58-.55-3.16-.61-.55-.1-.94-.73-4.17-.4-.77-.17-.29-.04-.77.1-.65-.74-3.7-.16-.73-.59-3.27.32 1.02-.01-.03-.5-3.16-.02-2.15-.21-.28.06-1.4-.28-.39-.21-4.97.17 1.28-.11-.68.07-2.2-.2-.37.12-1.99L-60-1.4l-.17-.41.32-2.43.08-1.11-.12-.59.2-.52-.12-2.58.18-1.31-.01-1.34-.06.05.27-2.66.4-2.23-.15.89.66-4.02-.3.32.33-1.55.22-.91.11-.94.36-1.44.38-3.36.4-.41.56-2.88-.13.75.25-1.43.06-1.16.27-.36.68-2.19.56-2.61.23.26.5-1.81.58-2.73.31.13.56-2.32.7-1.39.03-.28.57-1.56.36-.96-.03.13 1.57-3.57-.14-.57 1.71-3.13-.19.58 1.02-1.91.1-.01.28-.66 1.01-2.43-.04.68-.02.01 2.51-4.48.8-1.08-.34.51.96-1.38.14-.06 1.18-1.73.53-.91.05.23 1.33-2.09.8-1.01.86-.74.19-.43 1.95-2.06-.35.45 1.7-1.52 1.16-1.43-.68.79 1.95-1.81.76-.83-.14-.19 1.52-1.19.24-.01 2.89-2.54-.32.35.59-.01-.17-.14.83-.87 1.13-.45 1.31-.97 1.4-.6 1.25-1.05-.44.71 1.24-.75.95-.54.48.01 1.07-.7 1.8-.85 1.38-.54.05.1.71-.49.76-.15.44.09 1.28-.57 1.62-.32 1.48-.27.39.19 1.13-.27-.58-.15 1.27-.23 2.28-.05-.43.18.83-.06 3.32-.24-.41.21.94-.01.14.03 1.76.19 1.1.17.54-.4 1.75.58.39-.15.46.47 1.59.14-.01-.07 1.11.42 1.27.28v-.02l2.24.73v.14l1.75.6.34-.13 2.89 1.58-1.25-.17 1.68.32.67.51.23.26 2.76 1.56-1.27-.67 1.4 1.11 1.69.46.5 1.11.15-.6.67.97 2.54 1.86.04-.18 1.69 1.47-.13.07 1.56 1.29-.23-.05 1.65 1.52.05.22 1.26 1.04.5.79.8.69.16.18 1.48 1.45-.08.46 1.18 1.13 1.21 1.76.48.74-.18-.13 2.16 2.79-.35-.23.32-.17.79 2.47-.03-.41 2.56 4.47.38-.1.57 1.62-.17-.16.87.68.4 1.85.94 1.54.87 1.48-.52-.55.88 1.89.1-.29 1.12 2.88.07.3.46.88.97 3.03.71 1.39-.27.28.6 1.4.94 3.29.51 1.52-.12-.05.5 1.61.6 1.87-.17-.15.48 1.46.36 1.85.26 1.02-.07.56.82 3.12-.22-.33.43 1.25.18 2.68.44.73.34 2.31.1 1.34-.09.61-.01.97.52 2.73.14 1.67.11.3-.1 1.42.18 2.93-.01 2.85-.01-.52.04 2.75.14-.77-.16 2.28.03.18" filter="url(#a)"/><path fill="#fff" d="m-26.2-6.82.24-.45.28-.46.3-.44.33-.44.35-.44.37-.43.4-.41.42-.41.44-.39.46-.39.48-.36.5-.36.52-.33.54-.32.55-.31.59-.49.62-.45.64-.43.66-.39.69-.36.71-.32.72-.29.75-.25.76-.22.78-.18.79-.15.8-.11.81-.08.83-.05.83-.02.83.02.84.04.85.07.84.1.85.13.84.14.84.18.84.19.83.21.82.23.82.25.8.27.8.28.78.29.78.31.75.32.75.32.73.34.71.34.7.35.68.35.67.36.64.36.63.36.61.37.6.36.57.37.55.36.54.37.52.36.5.36.49.35.46.36.45.35.44.35.41.35.41.35.39.34.37.34.36.35.34.33.33.34.32.34.3.33.29.33.28.33.26.33.25.33.23.32 1.41 7.69-.29.34-.31.34-.31.34-.33.34-.34.35-.34.34-.36.35-.37.35-.38.34-.39.35-.4.34-.41.34-.43.34-.44.33-.44.33-.47.32-.47.33-.49.32-.51.32-.51.3-.54.3-.55.29-.56.28-.58.27-.59.25-.61.24-.63.22-.64.2-.65.19-.67.16-.68.15-.7.13-.71.1-.72.08-.74.06-.74.03-.76.01-.77-.01-.77-.04-.79-.07-.79-.09-.8-.11-.8-.14-.81-.16-.81-.19-.82-.21-.82-.24-.81-.26-.82-.28-.81-.3-.82-.32-.8-.34-.8-.36-.8-.38-.78-.39-.78-.41-.76-.42-.75-.43-.74-.45-.72-.46-.71-.46-.69-.47-.67-.48-.66-.48-.58-.41-.57-.42-.56-.43-.55-.43-.52-.44-.51-.44-.49-.44-.48-.46-.45-.45-.44-.46-.41-.45-.39-.47-.36-.46-.34-.46-.32-.46" filter="url(#a)" transform="translate(25.93 -26.59)"/><path fill="#fff" d="m26.45-6.64-.28-.47-.31-.45-.33-.46-.36-.45-.39-.44-.41-.44-.42-.42-.45-.41-.47-.4-.48-.38-.51-.37-.52-.35-.53-.34-.55-.31-.56-.3-.64-.51-.66-.47-.67-.44-.69-.39-.71-.36-.72-.31-.73-.28-.74-.24-.75-.19-.76-.16-.77-.12-.78-.08-.77-.05-.79-.01-.78.03-.79.06-.79.09-.78.12-.78.15-.78.18-.78.2-.77.23-.76.25-.76.27-.74.3-.74.3-.73.33-.71.34-.7.35-.69.37-.68.37-.66.39-.65.39-.63.39-.61.41-.6.4-.58.41-.57.42-.54.41-.53.41-.51.42-.49.41-.48.41-.45.41-.44.41-.42.41-.4.4-.38.4-.37.4-.34.4-.33.39-.32.4-.3.39-.28.39-.27.39-.25.39-.23.39-.22.39-.2.39-.19.38-.17.39-.16.38-.14.39-.13.38-3.37 4.21.3.27.32.28.32.29.32.29.34.29.34.29.35.29.36.3.37.29.37.3.38.3.39.29.39.3.41.29.41.3.42.29.43.3.44.29.45.29.46.29.46.28.48.28.49.27.5.27.5.25.52.25.52.23.54.23.54.21.56.2.56.18.57.17.59.15.59.13.6.11.61.1.62.08.63.06.63.03.65.02.66-.01.66-.02.67-.05.69-.07.69-.1.7-.12.7-.14.72-.16.72-.18.73-.21.73-.23.74-.25.75-.27.75-.3.76-.31.76-.33.77-.35.76-.37.77-.39.77-.4.77-.41.77-.43.76-.44.76-.45.62-.36.62-.37.6-.38.6-.38.58-.39.58-.4.56-.4.55-.41.54-.41.52-.42.5-.42.49-.43.46-.43.44-.42.42-.43" filter="url(#a)" transform="translate(-32 -27)"/><g fill="none" stroke="#000" transform="translate(25.93 -26.59)"><path stroke-linejoin="round" stroke-width="1.667" d="m-27.04-2.63-.06-.36-.03-.37.01-.4.04-.41.07-.42.1-.44.13-.44.16-.45.2-.45.22-.45.24-.45.28-.46.3-.44.33-.44.35-.44.37-.43.4-.41.42-.41.44-.39.46-.39.48-.36.5-.36.52-.33.54-.32.55-.31.59-.49.62-.45.64-.43.66-.39.69-.36.71-.32.72-.29.75-.25.76-.22.78-.18.79-.15.8-.11.81-.08.83-.05.83-.02.83.02.84.04.85.07.84.1.85.13.84.14.84.18.84.19.83.21.82.23.82.25.8.27.8.28.78.29.78.31.75.32.75.32.73.34.71.34.7.35.68.35.67.36.64.36.63.36.61.37.6.36.57.37.55.36.54.37.52.36.5.36.49.35.46.36.45.35.44.35.41.35.41.35.39.34.37.34.36.35.34.33.33.34.32.34.3.33.29.33.28.33.26.33.25.33.23.32.23.33.21.32.2.32.19.32.17.31.17.32.15.32.15.31.13.31.13.31" filter="url(#a)"/><path stroke-linejoin="round" stroke-width="2.222" d="M-27.21-3.93v.45l.04.45.08.46.11.45.14.46.18.46.2.46.24.47.26.46.29.47.32.46.34.46.36.46.39.47.41.45.44.46.45.45.48.46.49.44.51.44.52.44.55.43.56.43.57.42.58.41.66.48.67.48.69.47.71.46.72.46.74.45.75.43.76.42.78.41.78.39.8.38.8.36.8.34.82.32.81.3.82.28.81.26.82.24.82.21.81.19.81.16.8.14.8.11.79.09.79.07.77.04.77.01.76-.01.74-.03.74-.06.72-.08.71-.1.7-.13.68-.15.67-.16.65-.19.64-.2.63-.22.61-.24.59-.25.58-.27.56-.28.55-.29.54-.3.51-.3.51-.32.49-.32.47-.33.47-.32.44-.33.44-.33.43-.34.41-.34.4-.34.39-.35.38-.34.37-.35.36-.35.34-.34.34-.35.33-.34.31-.34.31-.34.29-.34.29-.33.28-.33.26-.33.26-.32.25-.32.24-.31.24-.31.22-.3.22-.29.21-.3" filter="url(#a)"/><circle cx="1.566" cy="1.474" r="4.158" clip-path="url(#b)" filter="url(#a)"/><circle cx="2.931" cy=".574" r="4.91" clip-path="url(#b)" filter="url(#a)"/><circle cx="-.924" cy="-2.711" r="4.934" clip-path="url(#b)" filter="url(#a)"/><circle cx="1.136" cy="-2.056" r="3.34" clip-path="url(#b)" filter="url(#a)"/><circle cx="-.074" cy="-1.266" r="3.714" clip-path="url(#b)" filter="url(#a)"/><circle cx="-1.639" cy="-.336" r="4.698" clip-path="url(#b)" filter="url(#a)"/><circle cx="2.791" cy="-2.346" r="3.438" clip-path="url(#b)" filter="url(#a)"/><circle cx="1.806" cy="-.011" r="4.024" clip-path="url(#b)" filter="url(#a)"/><circle cx=".316" cy="-.141" r="3.72" clip-path="url(#b)" filter="url(#a)"/><circle cx="2.206" cy="-2.466" r="3.522" clip-path="url(#b)" filter="url(#a)"/></g><g fill="none" stroke="#000" transform="translate(-32 -27)"><path stroke-linejoin="round" stroke-width="2.222" d="m27.53-2.48.06-.34.01-.36-.02-.39-.06-.4-.1-.42-.13-.44-.16-.44-.19-.46-.23-.45-.26-.46-.28-.47-.31-.45-.33-.46-.36-.45-.39-.44-.41-.44-.42-.42-.45-.41-.47-.4-.48-.38-.51-.37-.52-.35-.53-.34-.55-.31-.56-.3-.64-.51-.66-.47-.67-.44-.69-.39-.71-.36-.72-.31-.73-.28-.74-.24-.75-.19-.76-.16-.77-.12-.78-.08-.77-.05-.79-.01-.78.03-.79.06-.79.09-.78.12-.78.15-.78.18-.78.2-.77.23-.76.25-.76.27-.74.3-.74.3-.73.33-.71.34-.7.35-.69.37-.68.37-.66.39-.65.39-.63.39-.61.41-.6.4-.58.41-.57.42-.54.41-.53.41-.51.42-.49.41-.48.41-.45.41-.44.41-.42.41-.4.4-.38.4-.37.4-.34.4-.33.39-.32.4-.3.39-.28.39-.27.39-.25.39-.23.39-.22.39-.2.39-.19.38-.17.39-.16.38-.14.39-.13.38-.11.39-.09.38-.08.39-.07.38-.06.39-.04.38-.02.39-.02.38v.39l.02.39" filter="url(#a)"/><path stroke-linejoin="round" stroke-width="2.222" d="m27.53-1.81-.07.39-.11.39-.16.41-.19.41-.24.42-.27.42-.3.42-.33.43-.37.43-.39.43-.42.43-.44.42-.46.43-.49.43-.5.42-.52.42-.54.41-.55.41-.56.4-.58.4-.58.39-.6.38-.6.38-.62.37-.62.36-.76.45-.76.44-.77.43-.77.41-.77.4-.77.39-.76.37-.77.35-.76.33-.76.31-.75.3-.75.27-.74.25-.73.23-.73.21-.72.18-.72.16-.7.14-.7.12-.69.1-.69.07-.67.05-.66.02-.66.01-.65-.02-.63-.03-.63-.06-.62-.08-.61-.1-.6-.11-.59-.13-.59-.15-.57-.17-.56-.18-.56-.2-.54-.21-.54-.23-.52-.23-.52-.25-.5-.25-.5-.27-.49-.27-.48-.28-.46-.28-.46-.29-.45-.29-.44-.29-.43-.3-.42-.29-.41-.3-.41-.29-.39-.3-.39-.29-.38-.3-.37-.3-.37-.29-.36-.3-.35-.29-.34-.29-.34-.29-.32-.29-.32-.29-.32-.28-.3-.27-.3-.28-.29-.27-.28-.26-.28-.26-.27-.26-.26-.25-.25-.24-.25-.24-.24-.24-.23-.23" filter="url(#a)"/><circle cx="9.139" cy="4.924" r="4.94" clip-path="url(#c)" filter="url(#a)"/><circle cx="9.379" cy="4.144" r="3.24" clip-path="url(#c)" filter="url(#a)"/><circle cx="8.304" cy="5.574" r="3.07" clip-path="url(#c)" filter="url(#a)"/><circle cx="10.059" cy="4.864" r="4.668" clip-path="url(#c)" filter="url(#a)"/><circle cx="7.454" cy="6.769" r="3.176" clip-path="url(#c)" filter="url(#a)"/><circle cx="6.844" cy="4.994" r="4.794" clip-path="url(#c)" filter="url(#a)"/><circle cx="10.374" cy="2.619" r="4.544" clip-path="url(#c)" filter="url(#a)"/><circle cx="7.249" cy="3.859" r="3.896" clip-path="url(#c)" filter="url(#a)"/><circle cx="7.004" cy="2.609" r="3.436" clip-path="url(#c)" filter="url(#a)"/><circle cx="9.169" cy="3.619" r="3.712" clip-path="url(#c)" filter="url(#a)"/></g><g fill="none" stroke="#E9ECEF" stroke-linejoin="round" stroke-width="2"><path d="m-22.28-84.97 1.24-.61 1.01-.45.97-.37 1.08-.37 1.22-.43 1.34-.47 1.41-.49 1.39-.48 1.34-.45 1.22-.39 1.12-.34 1.01-.29.91-.26.79-.22.64-.19.44-.15.19-.1-.05-.05-.26.02-.36.07-.47.1m31.91 8.02 1.12 1.14 1.33 1.15 1.23 1.08 1.12 1.06 1.05 1.06 1.02 1.08 1.01 1.09.98 1.07.93 1.03.87.94.79.84.7.75.61.65.52.56.4.45.27.28.07.07-.14-.2-.39-.53-.64-.85-.88-1.17M23.34-84.28l-.41-.1.37.44.37.55.17.59-.07.63-.27.7-.51.75-.79.78-1.11.78-1.48.79-1.85.79-2.22.81-2.59.83-2.97.86-3.37.9-3.76.93-4.18.97-4.6 1.02-5 1.06-5.42 1.1-5.85 1.13-6.29 1.16-6.79 1.13" filter="url(#a)"/><path d="m-8.29-90.62 1.09-.14.74-.09.58-.09.55-.1.56-.06.52-.01.44.05.29.09.06.16-.23.22-.57.31-.93.39-1.25.48-1.57.53-1.91.58-2.27.63-2.69.7-3.29.88m56.02 14.54.36.74.78 1.11.85 1.18.8 1.15.74 1.08.68 1.03.64.97.58.94.54.91.49.83.39.66.25.42.07.13-.11-.17-.28-.43-.46-.68-.65-.97-.9-1.35-1.19-1.82-1.59-2.38m12.04 21.55.65 2.21.11 1.32-.25 1.01-.54.91-.83.75-1.17.49-1.52.21-1.89-.08-2.27-.32-2.65-.53-3.04-.7-3.42-.89-3.81-1.07-4.21-1.26-4.62-1.46-5.03-1.68-5.48-1.87-5.92-2.09-6.38-2.29-6.84-2.54-7.32-2.8-7.82-3.03-8.38-3.11m1.97-14.86.99-.56 1.41-.63 1.39-.28 1.46-.06 1.7.03 2.01.05 2.32.07 2.58.11 2.74.18 2.85.27 2.94.34 3.03.4 3.13.44 3.25.48 3.35.53 3.42.57 3.43.6 3.41.63 3.33.63 3.28.61 3.24.59 3.22.6 3.21.63" filter="url(#a)"/><path d="m-17.88-87.2.83-.17 1.37-.31 1.63-.21 1.69-.03 1.74.15 1.85.3 2 .41 2.18.48 2.34.52 2.47.58 2.54.64 2.57.69 2.59.76 2.6.8 2.62.83 2.63.83 2.64.82 2.6.8 2.54.77 2.44.76 2.35.78 2.24.81 2.19.82m-38.06-15.6.17-.13 1-.06 1.26.02 1.37.07 1.42.1 1.42.12 1.39.14 1.33.15 1.28.16 1.22.15 1.16.14 1.05.12.9.1.7.07.5.04.29.01.08-.03-.12-.07-.33-.1-.53-.13-.79-.15m-24.01 1.51.97-.35.73-.24.76-.23.88-.23.98-.24 1.04-.24 1.02-.22.89-.19.73-.14.54-.11.36-.05.17-.01-.04.04-.29.11-.57.16-.86.23-1.15.26-1.43.31-1.66.34m34.93 5.7 1.16.51.61.45.47.41.42.44.3.44.09.35-.23.23-.56.08-.9-.07-1.25-.21-1.61-.36-2.01-.52-2.45-.69-2.9-.87-3.36-1.06-3.81-1.25-4.22-1.42-4.54-1.57" filter="url(#a)"/><path d="m7.61-90.9.79.43 1.08.47 1.24.62 1.4.79 1.58.96 1.73 1.11 1.85 1.23 1.94 1.33 1.99 1.41 2.01 1.47 1.97 1.48 1.89 1.44 1.8 1.36 1.71 1.29 1.64 1.22 1.59 1.18 1.51 1.16 1.39 1.09 1.25.96 1.13.87m8.46 12.4.41 1.57.18 1.14-.21.73-.57.47-.9.34-1.19.29-1.5.23-1.84.18-2.21.09-2.6-.02-3.02-.17-3.45-.33-3.87-.52-4.32-.74-4.78-.98-5.26-1.23-5.76-1.49L.4-58.79l-6.78-1.93-7.28-2.11-7.77-2.31-8.26-2.53" filter="url(#a)"/><path d="m45.91-58.67.38.34.36.63.37.7.4.79.39.8.31.67.18.45.04.2-.09-.03-.23-.25-.37-.48-.54-.75-.76-1.08-1-1.5-1.29-1.99-1.58-2.53-1.87-3.05-2.14-3.54" filter="url(#a)"/><path d="m23.47-83.84 1.27.63.95.76 1.04.93 1.23 1.16 1.37 1.32 1.41 1.4 1.38 1.42 1.32 1.41 1.26 1.38 1.2 1.35 1.13 1.28 1.05 1.19.92 1.04.76.82.59.58.45.39.35.26.26.21-.01-.06M-32.19-77.1l.3-.03 1.28-.7 1.7-.83 2.02-.84 2.35-.85 2.64-.85 2.85-.83 2.96-.76 3.04-.7 3.14-.68 3.26-.7 3.37-.77 3.42-.82 3.36-.82 3.21-.78 2.98-.74m6.67.46 1.52 1 .45.55.16.53-.02.63-.25.75-.53.84-.82.94-1.14 1.02-1.45 1.11-1.79 1.21-2.13 1.34-2.5 1.47-2.89 1.62-3.31 1.77-3.76 1.89-4.22 1.98-4.67 2.04-5.11 2.09-5.56 2.16-6.02 2.24-6.53 2.36-7.15 2.64" filter="url(#a)"/><path d="m37.77-71.09 1 1.14.61.96.26.69-.01.48-.27.31-.54.16-.81.05-1.06-.04-1.33-.14-1.64-.31-2-.56-2.39-.86-2.81-1.16-3.22-1.45-3.66-1.69-4.13-1.95-4.68-2.21-5.24-2.51-5.73-2.83-6.08-3.17m-24.2 7.23.45-.46 1.11-.73 1.42-.8 1.5-.74 1.5-.63 1.51-.56 1.6-.54 1.73-.59 1.86-.63 1.95-.66 1.97-.66 1.96-.61 1.89-.58 1.84-.53 1.79-.51 1.75-.5 1.69-.48 1.6-.47 1.44-.43 1.23-.38.96-.29.73-.2m40.06 28.2.67.9 1.04 1.63.85 1.41.67 1.15.56 1.02.52.99.5.98.45.91.39.8.3.64.21.48.12.32.03.16-.07-.01-.21-.23-.38-.54-.58-.93-.8-1.34-.97-1.73-1.09-2.05-1.2-2.34-1.5-2.86m-.27-1.43-.24-.05-.2.45-.29.84-.49 1-.83.95-1.28.76-1.79.54-2.3.36-2.8.23-3.29.15-3.79.07-4.31-.04-4.85-.16-5.4-.26-5.94-.34-6.47-.41-7.01-.49-7.57-.6-8.15-.73-8.78-.89" filter="url(#a)"/><path d="m1.4-91.52.12.18.79.23 1.24.3 1.53.36 1.68.39 1.72.43 1.69.45 1.63.48 1.54.48 1.44.46 1.31.41 1.15.36.97.27.72.16.47.02m9.66 6.32 1.07 1 .55.66.34.54.17.5-.01.44-.22.37-.47.3-.72.21-1 .13-1.28.06-1.55-.01-1.85-.08-2.17-.15-2.53-.24-2.93-.35-3.36-.49-3.77-.63-4.19-.8-4.56-.99-4.94-1.15-5.32-1.28-5.86-1.34" filter="url(#a)"/><path d="M1.4-91.52v.13l.43.08.64.08.71.09.65.09.54.12.35.14.17.18-.04.21-.25.25-.47.28-.71.33-.95.38-1.2.42-1.46.46-1.74.48-2.04.52-2.41.57-2.85.63-3.38.72-3.91.81-4.36.88m-14.17 9.52 1.39-1.31 1.05-.97.99-.87 1.07-.9 1.15-.92 1.21-.95 1.25-.95 1.25-.91 1.19-.85 1.1-.77.99-.67.9-.6.82-.54.73-.47.6-.4.41-.28.2-.15-.04-.01-.23.09-.38.16-.52.23" filter="url(#a)"/><path d="m1.93-91.32.7.12 1.28.21 1.47.26 1.52.31 1.52.37 1.49.41 1.43.42 1.34.41 1.24.37 1.1.31.93.26.75.21.54.13.17-.06m-30.51-1.59.65-.33.62-.15.67-.1.68-.04.57.04.38.16.11.29-.14.43-.37.57-.58.72-.78.88-1 1.07-1.25 1.24-1.53 1.43-1.85 1.61-2.19 1.79-2.54 1.97-2.87 2.16-3.23 2.38-3.67 2.72-4.25 3.27-4.9 3.93m78.34-7.95 1.07 1.2.88 1.13.69.97.59.83.47.69.34.52.2.37.06.22-.08.04-.26-.21-.52-.58-.85-1.06-1.23-1.57-1.6-2.08-1.92-2.51m16.27 26.48.73 2.22.37 1.33.17 1.02.06.89-.08.71-.24.43-.44.08-.65-.25-.85-.58-1.05-.88-1.28-1.16-1.51-1.45-1.75-1.76-2.01-2.09-2.28-2.44-2.57-2.81-2.84-3.17-3.13-3.55-3.41-3.96-3.7-4.38-4-4.84-4.31-5.33-4.65-5.85" filter="url(#a)"/><path d="m50.23-50.71.43 1.84-.47.98-1.17.74-1.88.54-2.66.26-3.47-.03-4.28-.32-5.12-.62-5.98-.98-6.89-1.36-7.81-1.76-8.72-2.14-9.63-2.49-10.55-2.82-11.49-3.12M9.65-90.36l.93.37.59.38.32.48.06.6-.22.73-.55.86-.93 1-1.36 1.13-1.8 1.25-2.27 1.38-2.71 1.51-3.16 1.66-3.63 1.79-4.11 1.94-4.64 2.11-5.22 2.37-5.87 2.72-6.55 3.01-7.02 2.93" filter="url(#a)"/><path d="m7.61-90.9.85.47 1.28.62 1.53.82 1.78 1.03 2 1.21 2.21 1.38 2.37 1.52 2.49 1.64 2.53 1.71 2.52 1.74 2.42 1.68 2.26 1.57 2.03 1.39 1.89 1.23m6.85 8.09-.2-.11-.08.26-.1.51-.24.53-.51.31-.95-.07-1.44-.52-1.95-.95-2.43-1.32-2.92-1.66-3.43-2.01-4.02-2.44-4.66-2.89-5.3-3.36-5.93-3.8-6.71-4.19m-4.07-4.89.13.08H-.4l.69.03.41.08.19.11v.14l-.21.18-.49.21-.84.27-1.27.36-1.75.44-2.26.54-2.74.61-3.2.67-3.73.77m66.95 39.08.03.54-.16.98-.54 1.03-1.03.84-1.52.62-2.03.44-2.56.21-3.1-.05-3.67-.35-4.25-.65-4.85-.91-5.44-1.14-6.03-1.36-6.63-1.56-7.23-1.78-7.82-2.02-8.45-2.3-9.03-2.63-9.57-3.11m78.44 2.36.18.27-.26.42-.66.4-1.06.41-1.48.39-1.97.27-2.52.08-3.08-.13-3.65-.3-4.23-.43-4.82-.55-5.42-.65-6.07-.78-6.73-.94-7.41-1.13-8.14-1.35-8.89-1.52-9.57-1.74" filter="url(#a)"/><path d="m48.9-53.24.32.87-.19.56-.45.6-.74.67-1.05.72-1.41.73-1.8.7-2.2.63-2.63.55-3.06.43-3.51.29-3.96.13-4.43-.04-4.92-.22-5.44-.38-5.96-.51L1-48.15l-6.95-.78-7.42-.94-7.86-1.14-8.32-1.32-8.85-1.47m64.88-28.1 1.5 1.17.46.65-.22.48-.81.37-1.38.27-1.95.16-2.55.06-3.19-.06-3.88-.18-4.67-.29-5.5-.38-6.37-.47-7.19-.57-7.85-.75m57.58 13.85 1.33 1.79.71 1.09.65 1.15.77 1.41.89 1.6.92 1.6.83 1.43.67 1.15.49.86.32.56.14.24-.07-.16-.31-.59-.5-.91m-60.45-32.91.22-.04.38-.08.41-.02.41.08.35.18.19.32-.05.49-.37.67-.68.87-.97 1.06-1.25 1.26-1.5 1.48-1.8 1.71-2.13 1.97-2.53 2.29-3 2.63-3.48 2.97-3.91 3.23-4.27 3.43-4.66 3.75" filter="url(#a)"/><path d="m-46.61-57.63 20.02-15.2 15.91-.91 14.41 2.15 6.18 1.57-1.49-.41-3.68-2.37-1.24-3.47 2.31-3.39 4.37-2.29 4.52-.39 3.56 1.95 2.05 4.16-.3 5.2-3.69 3.82-6.89-.16-7.3-4.77-2.83-6.94L18-86.93" filter="url(#a)"/><path d="M40.46-67.59 9.21-80.27l-4.77-5.56.45-1.55.49.92-.78 2.56-2.61 3.35-3.93 3.06-3.57 1.97-1.4.6 1.38-.55 3.34-1.24 3.85-1.44 3.25-1 2.4.21 2.14 2.2 2.96 4.65 4.64 7.2 4.33 9.19-8.76 7.51-59.23-9.44" filter="url(#a)"/><path d="m-39.88-68.5 20.83-2.57 22.38-2.07 9.12-3.24.24-2.99-2.94-1.05-3.03 1.22-1.95 2.57-.65 2.58.41 1.62 1.11.58 1.58.25 2.03.9 2.38 1.99 2.17 2.55.99 1.81-.78-.2-1.83-2.48-1.07-3.94.11-4.51-2.4-5.2-10.78-4.83-22.76 1.96" filter="url(#a)"/><path d="M36.21-73.18 14.36-70.6l-3.33 6.65-2.25.38-2.79-3.13-2.78-3.64-1.15-2.65 1.41-.88 3.68 1.38 5.26 3.51 6.33 4.54 6.38 3.64 4.17.96-.91-2.19-7.29-3.93-10.9-3.22-7.08-1.42 2.54-3.69L-6.42-90.7" filter="url(#a)"/><path d="M29.02-80.04 16.1-78.32l-9.46 5.35-12.17 1.27-10.15.05-5.56.66-.74 1.13 3.04.85 5.52.09 7.07-.7 7.94-1.12 8.03-.91 7.18-.04 5.26 1.21 2.44 2.28-.86 2.58-3.89 1.99-5.76.9-5.98-.03-5.22-.65-5.28-1.49-7.35-3.06-8.59-4.94-.58-7.11L1.93-91.32" filter="url(#a)"/><path d="m-17.4-87.19 13.38-.7 8.54 3.49 10.14 5.81 8.01 5.48 3.84 3.35.54.97-.42-.33.66-.11 2.13.9 2.33 1.75.86 2.08-1.27 1.91-2.94.83-5.95-3.13L-6.42-90.7" filter="url(#a)"/><path d="M36.21-73.18 2.16-81l-11.1.78 1.39 1.43 5.29-.69 3.4-1.98.93-1.85 1-.79 3.47.73 6.48 2.64 8.47 4.88 8.92 6.84 7.76 7.24 4.87 4.73.2-.61-6-6.42-14.97-10.17-34.66-15.43" filter="url(#a)"/><path d="m25.81-82.87-27.94 2.69 4.47.62 7.1.08.85-.44-4.19-.06-5.59.72-4.37 1.27-2.17 1.35.05 1.12 2.05.77 3.66.4 4.34.06 3.64-.22 1.79-.38-.03-.31-.32.03 1.45.46 4.16.65 5.66.41 4.45-.11.81-1.47-4.52-5.68-6.89-7.9" filter="url(#a)"/><path d="m20.58-85.84-.35 14.26-18.01.65-6.46.22 6.8 2.04 11.03 3.05 6.36 2.09-1.93-.26-8-2.5-8.45-3.47-3.8-2.73 2.39-.55 6 2.14 4.86 3.57-.51 2.8-10.68 2.62-46.82 4.95" filter="url(#a)"/><path d="m3.83-91.1 11.28 4.68 4.95 5.69 6.67 9.93L32-61.71l.23 3.91-4.33-1.59-5.83-4.55-4.97-4.56-3.88-2.89-3.67-1.04-3.78-.11-3.24-.57-1.15-1.94 4.52-2.34 14.4.05 13.3 1.42" filter="url(#a)"/><path d="m-2.75-91.22 4.9 1.5 1.37 5.14 6.1 8.69 5.98 7.65 1 3.4-4.16-.66-6.38-2.62-5.34-2.7-2.48-2.05.63-1.58 3.37-1.3 6.09-.47 8.46 1.12 7.88 1.3 1.41-3.8-4.01-7.35" filter="url(#a)"/><path d="m-13.15-89.28-4.06 7.21 10.9 5.89 8.04 2.14L2-75.2l-2.58-2.17-.64-1.49 1.77-.19 1.6.98-1.28 1.62-5.4 1.62-8.7 1.09-8.59.13-2.39-1.24 11.34-2.72 38.03-5.81" filter="url(#a)"/><path d="m-28.54-80.34 42.07 6.63 9.78.24-5.78-2.89-9.56-2.18-6.68-.34-1.54 1.33 3.15 2.57 6.2 3.24 7.22 3.08 6.29 1.93 4.17.12 1.89-1.62.21-2.65-.95-2.82-2.23-2.55-4.03-2.43-5.68-2.57-5.62-2.51-3.8-1.81-5.95-.47L-23.59-84" filter="url(#a)"/><path d="m-28.78-80.33 40.4 4.31 13.87 1.76 3.63.37 1.08.88.46.98.39.82.92 1.25 1.49 2 .81 1.95-2.08.55-6.22-1.09-7.83-.49-1.34 3.76 13.36 6.63 10.3-10.94" filter="url(#a)"/><path d="m-25.65-82.88 28.83 8.81 10.05 12.88 5.14 5.37 6.17-.87 5.56-4.19 3.17-5.02.6-4.35-1.72-3.38-4.17-2.8-6.99-2.59-9.58-2.15L.62-82.2l-9.63.45-6.29 1.15-3.32.57-5.75 1.23-13.33 7.43" filter="url(#a)"/><path d="m-40.41-67.59-.38 3.29 9.68 2.15 15.61 2.25 12.83.52 5.52-.95-1.06-1.51-4.41-1.94-4.09-2.66-.87-3.28 3.25-3.02 5.79-1.66 5.29.1 2.6.72.48-.99.69-4.52-.29-6.99-9.24-5.23" filter="url(#a)"/><path d="m-46.99-56.96 12.92-13.32 10.54-6.21 8.06-2.78 5.88-1.71 3.88-.63 2.8.55 2.81 1.15 3.28.84 3.2.09 1.84-.41-.65-.32-3.19.21-4.35.72-3.16.86-.05.82 3.35 1.14 5.19 2.3 5.22 3.8 5.4 4.01 7.27.76 5.77-6.82-9.34-14.7" filter="url(#a)"/><path d="m-14.53-88.74-12.99 13.32 3.83 1.19 8.97 1.28 7.09 1.96 1.62 1.23-2.48-.07-2.89-.91-.75-.83 1.59.01 2.66 1.1 2.51 1.85 2.19 1.99 2.37 1.44 2.73.32 1.97-1.24-.8-2.89-4.62-3.94-6.45-3.49-2.87-1.3 6.73.92 17.05-.49 6.75-9.32" filter="url(#a)"/><path d="M16.36-88.34 26.9-75.79l-1.21 6.39-4.55 1.23-5.29-.78-6.31-1.31-7-1.38-6.65-1.42-5.08-1.56-2.6-1.61.21-1.26 2.65-.41 4.27.75L.28-75.5l4.62 1.65 3.03.55-.05-1.18-3.96-2.42-6.33-2.26-4.38-1.31.21-2.26-12.25-3.93" filter="url(#a)"/><path d="M54.83-37.26 31.21-61.43l-11.83-.35-8.3 1.85-4.81-1.73-1.56-4.82.35-5.58.01-4.47-2.1-2.56-4.26-.59-4.74 1.04-2.99 2.06.22 2.21 3.37 1.43 5.36.13 6.2-.82 6.7-.44 7.31 1.5 6.72 3.63 2.18 3.16-7.94-2.32L1.83-79.01-9.91-90.3" filter="url(#a)"/><path d="m-17.4-87.19 7.84 24.59 20.58 8.98 4.99-4.75-5.22-9.31-6.23-7.23-2.85-3.08.54.23 2.47 1.83 3.32 2.13 3.72 1.77 3.75 1.12 3.29.34 2.71-.28 2.61-.32 3.22.52 4.04 2.05 3.94 2.23.86-2.68-2.58-6.87" filter="url(#a)"/><path d="m-30.3-79.14 15.45-4.84L-6-84.5l4.67 2.16 3.76 2.53 1.9 1.44-.6.56-1.62.57-.45 1.06 1.86 1.43 3.72 1.43 4.19 1.28 3.47 1.14 2.35.95 1.53.46 1.06-.45.44-1.57-.94-2.49-3.21-2.71-5.92-1.89-8.48.09-10.77 2.64-12.14 3.56-7.54-1.17 12.39-14.41" filter="url(#a)"/><path d="m-46.89-56.97 11.94-6.79 13.84-7.29 8.97-2.43 5.67-.15 3.61-.45 2.02-1.64.53-2.31L-.97-80l-1.14-.87-.66.37.48 1.31 1.55 1.8 1.79 1.97.98 1.95-.39 1.76-1.43 1.46-1.59 1.14-.98.94.12.99 2.22 1.05 5.93.49 10.96.58 33.26 14.64" filter="url(#a)"/><path d="M55.34-35.74 27.16-67.39l-3.91-6.93-1.55.56-4.9.98-6.49-.01-4.72-.14-1.77.42-.05.73.07.47-.11.14.6.42 2.18 1.51L10-66.47l3.36 3.2 1.54 2.19-.89-.07-2.14-2.91-.43-4.58 8.64 1.53 34.75 29.85" filter="url(#a)"/><path d="m-46.89-56.97 38.73-9.05 14.02 4.8 4.33 1.14 4.18-1.8 4.72-2.06 2.73-1.44-1.17-1.08-4.8-.99-6.28-.84-5.22-.62-2.66-.64-.11-.93 1.07-1.21.09-1.14-3.15-1.1-7.25-1.81-9.4-2.28-9.93 2.33-20 18.73" filter="url(#a)"/><path d="m-25.55-82.68 9.35 14.54 21.63 1.8 10.59-3.46 3.78-3.42 2.84-.65 3.02 1.55 1.54 1.56-1 .13-2.44-.97-1.59-.68.33.29.54.18-2.75-2.14-7.83-5.55-10.22-6.79-7.94-3.69-7.45.7" filter="url(#a)"/><path d="m14.27-88.95 5.46 5.06-6.16-.73-7.11.7-5.17 1.98-1.6 1.91 1.37 1.37 1.56 1.06-1.05.98-4.35.75-5.89.16-4.62-.49-1.25-.58 2.73.37 6.08 2.15 8.06 3.64 7.81 3.23 4.76.27 1.74-3.28 7.19-2.31 18.44 7.68" filter="url(#a)"/><path d="m-25.55-82.68 34.76 8.71 9.55 7.15-.13.19-2.28-3.7-2.95-4.63-3.32-3.79-3.14-2.38-2.35-1.02-1.43.24-.82 1.45-.49 2.42-.01 2.73 1.21 2.26 3.35 1.31 5.85.5 7.17.16 5.21.07-1.58-.25-12.93-.77-25.37-.51-24.63 4.04" filter="url(#a)"/><path d="m-9.91-90.3 1.75 8.06 2.39 6.9-1.28 5.9.28 4.06 1.67 1.53 1.41-.56 1.16-1.47 2.42-1.16 4.88-.2 6.85.59 6.74.51 4.29-.63.66-2.3-2.5-3.49-4.17-3.17-4.49-.83-4.31 3.15-4.88 7.15-8.64 8.06-18.89 2.49-21.03-4.35" filter="url(#a)"/><path d="m-17.4-87.19 4.89 3.12L.23-75.46l16.4 8.65 11.7 6.37 4.31 2.65-1.33-.85-3.75-2.61-3.86-2.54-3.47-1.66-3.68-1.01-4.15-.88-3.72-.73-1.52-.07 2.09 1.09 5.57 2.21 6.98 2.8 4.64 2.65-1.42 1.66-3.39 1.05 31.93 14.45" filter="url(#a)"/><path d="M53.56-42.23 21.48-68.85l-5.96-4.69-5.48-.45-5.15-1.54-1.68-2.14 1.6-1.36 2.2-.15.3.56-2.23.58-3.46.15-2.61-.28-.42-.41 1.56-.11 2.1.63 1.07 1.7-.58 2.75-1.3 3.26-.03 2.72 2.87 1.08 4.13-.49-6.08.54-47.97 7.12" filter="url(#a)"/><path d="M4.93-90.93-5.86-71.94l9.31 8.51 9.81 3.15h7.83l4.14-2.26.77-3.44-.51-3.3-.14-1.95-.02.05-1.2 2.07-2.52 3.27L20-63.41l1.76-1.97 1.91-9.97-3.99-11.26" filter="url(#a)"/><path d="m-2.32-91.4 25.88 17.09 10.29 9.38-3.38-.45-10.69-3.98-11.15-3.2-7.02-.98-1.52.86 2.82 1.72 4.97 1.75 5.04 1.23 3.77.45 1.85-.51-.25-1.52-2.11-2.31-3.26-2.37-3.16-1.32-1.72.82.43 3.26 1.96 4.74 1.97 4.12 1.36.92 2.62-4.13 5.99-7.71 15.4 2.45" filter="url(#a)"/><path d="M-11.63-89.82 1.28-78.94l11.95 5.81 4.2-1.45 1.42-3 .65-2.32.07-1.23h-.42l-.47 1.25-.07 2.14.58 2.33 1.12 1.81 1.35.93 1.17-.03.53-.83-.52-1.24-1.61-.83-2.09.41-2.27.47-3.07-4.07 9.54-5.49" filter="url(#a)"/><path d="M-45.66-59.37 1.75-71.22l17.56-3.18 6.93.41.17-.69-3.2-2.14-2.9-2.01-.42-.66 2.2.96 3.77 2.28 4.05 3.14 3.39 3.51 2.23 3.37.95 2.7-.13 1.65-.74.52-.83-.44-.51-1 .11-.96.68-.37.27-.17-2.87-2.19-9.83-6.98-18.72-9.76-26.19-1.74" filter="url(#a)"/><path d="m-11.63-89.82 33.59 24.58-.17 2.74-4.19-2.93-1.73-5.09-.92-5.62-1.14-4.68-.75-2.89.57-1 2.03.46 2.74 1.26 2.22 1.52.79 1.54-.64 1.62-.91 1.96.65 2.58 3.48 3.33 5.47 3.75 4.31 2.91 2.11 1.38 16 15.75" filter="url(#a)"/><path d="M51.88-46.65 30.67-68.84 11.5-79.16-.11-82.8l-5.61-.27-2.49 1.32-.47 1.81 1.88 1.74 4.23 1.63 4.94 1.7 3.08 1.57-.14.71-1.94-.98-.26-2.74 3.87-3.5 6.28-3.05 3.23-2.5-3.56-2.93-5.71-2.46" filter="url(#a)"/><path d="M56.32-32.31 40.41-43.7l-16.8-15.4-10.22-9.63-6.33-4.14L3.24-73l-1.75 2.26.61 3.37 2.92 3.6 3.53 3.01 1.44 1.48-1.62-.64-2-2.63 2.76-3.98 12.22-4.42 13.56-3.71" filter="url(#a)"/><path d="m32.18-77.39-4.73 5.46-7.92-1.36-.48 1.29.17 1.47-3.54-.23-6.91-1.81-7.74-2.5-6.14-2.42-3.07-1.82.45-.94 3.41.14 4.99 1.35 4.93 2.44 3.84 2.72 2.99 1.63 3.1-.61L19-75.05l1.96-2.05-5.65-.74-32.71-9.35" filter="url(#a)"/><path d="m43.38-62.73-17.76-9.63-1.51 2.31-6.13.61-9.52-1.7-9.36-2.65-7.36-2.73-4.48-2.46-1.31-2.11 1.17-1.84 1.91-1.57.65-.96-1.53.28-3.03 2.01-1.29 1.76L1.4-91.52m57.77 76.63 1.65 3.6.27 3.27.1 3.02.03 2.67-.07 2.42L61 2.42l-.16 2.41-.13 2.52-.1 2.65-.07 2.73-.09 2.75-.12 2.75-.19 2.75-.27 2.74-.33 2.73-.35 2.7-.33 2.63-.31 2.54-.36 2.48-.47 2.44-.57 2.37-.44 2.01.09 1.06" filter="url(#a)"/><path d="m1.4-91.52-3.14.18-2.08.16-1.75.22-1.76.32-1.8.41-1.81.51-1.8.59-1.77.66-1.74.73-1.72.79-1.71.84-1.67.91-1.65.97-1.63 1.05-1.62 1.14-1.61 1.24-1.63 1.34-1.62 1.43-1.62 1.5-1.61 1.56-1.59 1.62-1.57 1.7-1.55 1.78-1.5 1.82-1.42 1.81-1.33 1.8-1.36 1.97-1.82 3.09" filter="url(#a)"/><path d="m-2.75-91.22-1.53.03-1.49.21-1.71.31-1.83.42-1.9.52-1.97.6-2.09.67-2.18.74-2.24.79-2.24.85-2.23.91-2.25.97-2.36 1.06-2.48 1.15-2.6 1.25-2.66 1.34-2.67 1.43-2.63 1.5-2.58 1.57-2.56 1.63-2.52 1.7-2.44 1.77-2.3 1.82-2.16 1.85-2.13 1.87-2.44 2.02-3.39 2.32-4.88 2.29" filter="url(#a)"/><path d="m-2.75-91.22-1.48.03-1.45.2-1.67.31-1.81.42-1.82.51-1.79.59-1.75.66-1.74.73-1.71.78-1.69.83-1.67.89-1.65.96-1.61 1.03-1.61 1.12-1.62 1.22-1.63 1.33-1.65 1.43-1.64 1.48-1.61 1.53-1.58 1.58-1.6 1.67-1.6 1.82-1.58 1.97-1.63 2.27" filter="url(#a)"/><path d="m-2.32-91.4-2.86.3-2.67.33-2.42.38-2.11.44-2.01.53-2.06.63-2.22.74-2.55.82-3.12.89-3.81.95-4.39 1.01-4.6 1.06-4.29 1.11-3.61 1.19-2.87 1.25-2.42 1.35-2.43 1.44-2.87 1.54-3.42 1.61-3.82 1.68-3.97 1.71-4.03 1.72-4.3 1.75-4.83 1.83-5.26 1.96-5.07 2.06-4.03 1.98-2.15 2.17M59.18-15.86l2.19 3.17 6.71 2.92 8.35 2.82 6.5 2.7 2.83 2.66L85 1.1l-2.97 2.74-3.44 2.76-2.58 2.75-1.1 2.71.32 2.64 1.22 2.61 1.52 2.59 1.38 2.6 1.14 2.63 1.1 2.65 1.36 2.66 1.77 2.65 2.01 2.61 1.83 2.54 1.16 2.47.19 2.4-.75 2.38-1.27 2.39-1.18 2.39-.52 2.37.38 2.33 1.02 2.25.93 2.17.04 1.9.07 1" filter="url(#a)"/><path d="m-12.39-89.67-1.76.67-2.76.89-2.63.93-2.35.95-2.15.99-1.96 1.02-1.89 1.09-2 1.14-2.28 1.21-2.61 1.3-2.89 1.39-3.03 1.48-3.05 1.57-3.02 1.64-3.05 1.69-3.26 1.74-3.63 1.78-4.07 1.82-4.36 1.89-4.35 1.96-3.97 2.04-3.35 2.11-2.75 2.19-2.44 2.26-2.59 2.31-3.14 2.34-3.92 2.34-4.54 2.36-4.54 2.43-3.91 2.39-5.78 1.92" filter="url(#a)"/><path d="m-16.33-87.89-1.68.81-1.74.91-1.8.97-1.84 1.03-1.85 1.09-1.86 1.15-1.94 1.23-2.07 1.31-2.23 1.41-2.36 1.5-2.35 1.59-2.2 1.66-1.93 1.71-1.66 1.75-1.46 1.8-1.42 1.85-1.52 1.92-1.73 1.98-1.97 2.06-2.19 2.13-2.32 2.2-2.38 2.26-2.32 2.32-2.16 2.35-1.91 2.39-1.64 2.42-1.4 2.47-1.29 2.51-1.32 2.5-1.45 2.45-1.55 2.36-1.65 2.35-1.77 2.78-1.24 3.93" filter="url(#a)"/><path d="m-17.4-87.19-1.75.48-1.81.72-2.21.94-2.77 1.03-3.73 1.09-4.87 1.18-5.66 1.31-5.64 1.41-4.84 1.49-3.64 1.56-2.53 1.61-1.85 1.67-1.67 1.74-1.83 1.79-2.08 1.84-2.22 1.87-2.19 1.9-2.07 1.93-2.07 1.96-2.43 2.01-3.23 2.08-4.32 2.2-5.41 2.33-6.18 2.44-6.5 2.5-6.41 2.53-5.91 2.66-5.44 2.9-6.01 2.8" filter="url(#a)"/><path d="m-17.4-87.19-1.91.48-2.77.71-2.89.94-2.59 1.02-2.21 1.08-1.87 1.17-1.7 1.3-1.74 1.4-2.03 1.49-2.56 1.54-3.2 1.6-3.85 1.66-4.26 1.72-4.32 1.78-4.01 1.83-3.49 1.87-2.98 1.89-2.63 1.92-2.46 1.93-2.36 1.94-2.23 2.01-2.17 2.16-2.34 2.39-2.92 2.6-3.75 2.49-3.22 1.97" filter="url(#a)"/><path d="m-17.4-87.19-1.81.48-1.89.73-1.77.94-1.75 1.03-1.74 1.09-1.76 1.2-1.83 1.31-1.98 1.41-2.14 1.5-2.21 1.56-2.13 1.62-1.92 1.68-1.64 1.74-1.39 1.8-1.24 1.84-1.24 1.88-1.34 1.91-1.51 1.94-1.67 1.98-1.82 2.03-1.89 2.11-1.91 2.21-1.87 2.33-1.83 2.44-1.82 2.51-1.85 2.58-1.93 2.65-2.01 2.73-2 2.75-1.93 2.62-2.12 2.51" filter="url(#a)"/><path d="m-20.07-85.91-8.32.71-4.32 1.03-1.67 1.1-.83 1.15-1.12 1.23-1.91 1.31-2.65 1.41-2.99 1.51-2.84 1.6-2.34 1.67-1.79 1.72-1.48 1.75-1.55 1.8-2.02 1.85-2.76 1.91-3.55 1.98-4.16 2.06-4.45 2.14-4.36 2.2-4.01 2.26-3.54 2.31-3.18 2.35-3.1 2.38-3.34 2.43-3.69 2.46-3.75 2.51-3.24 2.5-2.29 2.44-1.8 2.35-2.66 2.35-4.6 2.78-6.23 3.92" filter="url(#a)"/><path d="m-20.07-85.91-1.48.7-2.02 1.02-2.13 1.09-2.09 1.14-1.94 1.2-1.72 1.29-1.58 1.38-1.56 1.49-1.65 1.58-1.78 1.66-1.86 1.7-1.88 1.73-1.82 1.75-1.73 1.8-1.64 1.87-1.55 1.95-1.5 2.02-1.48 2.09-1.52 2.18-1.61 2.25-1.71 2.33-1.82 2.32-1.91 2.24-1.96 2.25-1.66 2.9" filter="url(#a)"/><path d="m-19.63-86.62-2.87 1.47-2.33 1.18-1.87 1.08-1.82 1.17-1.98 1.32-2.19 1.45-2.37 1.53-2.48 1.58-2.52 1.63-2.57 1.69-2.71 1.75-3.03 1.8-3.39 1.86-3.64 1.88-3.6 1.92-3.26 1.96-2.73 1.99-2.28 2.06-2.1 2.13-2.25 2.24-2.68 2.34-3.23 2.44-3.79 2.52-4.3 2.58-4.71 2.64-4.94 2.66-4.83 2.67-4.28 2.64-3.43 2.61-3.11 2.64-4.69 2.75-8.7 2.64" filter="url(#a)"/><path d="m-22.28-84.97-1.86 1.15-1.54.95-1.68 1.07-1.8 1.3-1.83 1.46-1.81 1.52-1.82 1.56-1.85 1.59-1.88 1.66-1.9 1.72-1.95 1.79-1.99 1.83-2 1.86-1.94 1.89-1.78 1.91-1.6 1.92-1.5 1.93-1.64 1.99-2 2.15-2.43 2.4-2.6 2.58-2.2 2.48-1.77 1.96" filter="url(#a)"/><path d="m-23.59-84-2.09 1.05-2.18 1.07-2.19 1.22-2.11 1.32-1.9 1.42-1.64 1.54-1.39 1.63-1.24 1.7-1.21 1.74-1.29 1.77-1.4 1.81-1.54 1.87-1.64 1.93-1.71 2.01-1.78 2.08-1.83 2.15-1.88 2.22-1.9 2.28-1.86 2.32-1.74 2.37-1.53 2.4-1.29 2.44-1.08 2.46-.98 2.48-1.02 2.49-1.21 2.49-1.48 2.5-1.71 2.52-1.8 2.56-1.65 2.59-1.32 2.63-.96 2.68-.84 2.78-1.08 2.91-1.47 2.94-1.63 3.17" filter="url(#a)"/><path d="m-25.55-82.68-1.25.75-1.85 1.24-1.81 1.33-1.67 1.43-1.7 1.54-1.8 1.64-1.87 1.71-1.87 1.74-1.82 1.77-1.76 1.81-1.72 1.86-1.71 1.93-1.72 2-1.71 2.08-1.72 2.15-1.7 2.22-1.68 2.28-1.6 2.32-1.51 2.36-1.4 2.4-1.32 2.43-1.29 2.46-1.3 2.48-1.32 2.49-1.31 2.48-1.26 2.49-1.2 2.51-1.16 2.55-1.17 2.59-1.26 2.61-1.34 2.65-1.28 2.79-.96 2.94-.87 2.3m135.63-7.46.22 2.38.32 2.76.29 2.84.32 2.79.45 2.72.62 2.69.71 2.71.67 2.74.47 2.76.21 2.75-.06 2.7-.24 2.66-.35 2.62-.37 2.61-.37 2.62-.38 2.63-.42 2.66-.5 2.66-.58 2.64-.65 2.61-.7 2.54-.7 2.48-.71 2.43-.7 2.39-.68 2.39-.67 2.38-.68 2.36-.7 2.31-.78 2.26-.87 2.19-.98 2.13-1.09 2.11-1.12 2.13-.6 1.65" filter="url(#a)"/><path d="m-32.19-77.1-2.55 2.38-2.54 1.89-2.34 1.77-1.89 1.73-1.55 1.74-1.5 1.82-1.6 1.91-1.73 2.01-1.76 2.08-1.7 2.16-1.54 2.22-1.35 2.27-1.16 2.32-1.03 2.35-.98 2.39-1.05 2.41-1.22 2.45-1.43 2.48-1.61 2.47-1.68 2.45-1.61 2.45-1.39 2.48-1.15 2.55-.99 2.6-1.06 2.48-1.34 2.24-1.1 2.47" filter="url(#a)"/><path d="m-32.19-77.1-2.41 2.38-1.93 1.89-1.76 1.77-1.67 1.73-1.64 1.74-1.67 1.82-1.73 1.91-1.73 2.01-1.65 2.08-1.54 2.16-1.41 2.22-1.3 2.27-1.23 2.32-1.16 2.35-1.1 2.39-1.02 2.41-.95 2.45-.91 2.48-.9 2.47-.92 2.45-.98 2.45-1.08 2.48-1.24 2.55-1.43 2.6-1.51 2.48-1.3 2.24-.86 2.47" filter="url(#a)"/><path d="m-32.19-77.1-3.28 2.37-1.58 1.89-1.39 1.75-1.51 1.72-1.53 1.73-1.48 1.8-1.44 1.9-1.46 1.99-1.55 2.08-1.62 2.13-1.65 2.21-1.62 2.26-1.51 2.31-1.35 2.34-1.18 2.36-1.04 2.4-.98 2.45-1 2.49-1.1 2.48-1.13 2.42-1.04 2.31-.85 2.31-.83 2.77-1.13 3.89" filter="url(#a)"/><path d="m-32.19-77.1-2.56 2.37-2.46 1.89-2.44 1.75-1.95 1.72-1.44 1.73-1.31 1.8-1.6 1.9-2.1 1.99-2.5 2.08-2.66 2.13-2.56 2.21-2.32 2.26-2.06 2.31-1.91 2.34-1.9 2.36-1.96 2.4-1.94 2.45-1.74 2.49-1.3 2.48-.84 2.42-.68 2.31-1.2 2.31-2.35 2.77-3.08 3.89" filter="url(#a)"/><path d="m-33.35-75.67-3.53 1.46-2.9 1.82-1.49 1.9-1.21 1.91-1.55 1.9-2.03 1.92-2.44 1.93-2.7 1.97-2.8 2.01-2.75 2.08-2.61 2.18-2.52 2.28-2.52 2.39-2.66 2.48-2.85 2.55-2.99 2.59-3.07 2.63-3.12 2.65-3.19 2.65-3.31 2.66-3.37 2.65-3.3 2.64-3.04 2.63-2.65 2.62-2.24 2.58-2.01 2.54-2.09 2.5-2.53 2.47-3.29 2.48-4.03 2.54-4.13 2.68-3.14 3.14-.97 4.36m85.73-76.66-1.27 1.57-1.48 1.74-1.53 1.69-1.54 1.77-1.49 1.9-1.4 2.01-1.32 2.08-1.31 2.14-1.36 2.2-1.43 2.27-1.5 2.3-1.55 2.33-1.55 2.36-1.53 2.39-1.45 2.44-1.32 2.48-1.14 2.48-.98 2.41-.88 2.29-.91 2.31-1.14 2.76-1.91 3.88" filter="url(#a)"/><path d="m-36.65-72.54-1.53 1.59-2.4 1.75-3.38 1.72-4.61 1.79-5.47 1.93-5.5 2.03-4.72 2.11-3.55 2.18-2.44 2.23-1.64 2.29-1.26 2.33-1.3 2.36-1.74 2.4-2.38 2.42-3.04 2.46-3.47 2.47-3.58 2.47-3.42 2.47-3.13 2.48-2.86 2.5-2.61 2.53-2.42 2.58-2.35 2.62-2.58 2.66-3.27 2.76-4.35 2.88-5.36 2.92-6.1 3.15m90.27-65.65-1.83 1.78-2.06 1.89-1.86 1.88-1.51 1.9-1.24 1.92-1.08 1.97-1.05 2-1.09 2.08-1.17 2.17-1.21 2.29-1.19 2.4-1.12 2.49-1.02 2.56-.93 2.6-.88 2.63-.85 2.65-.85 2.65-.85 2.65-.86 2.65-.84 2.64-.84 2.63-.82 2.61-.81 2.58-.77 2.53-.71 2.5-.62 2.49-.53 2.52-.44 2.59-.42 2.77-.42 3.08-.37 3.46-.25 3.24" filter="url(#a)"/><path d="m-40.41-67.59-1.95 1.75-1.81 2.1-1.36 2.21-1.22 2.18-1.27 2.21-1.31 2.27-1.29 2.33-1.23 2.37-1.18 2.4-1.13 2.43-1.09 2.45-1.06 2.48-.99 2.49-.91 2.51-.84 2.51-.76 2.53-.73 2.55-.73 2.59-.76 2.62-.83 2.67-.89 2.7-.92 2.72-.9 2.75L-66.4-9l-.7 2.79-.55 2.81-.42 2.83-.3 2.84-.24 2.83-.2 2.79-.19 2.74-.16 2.69-.08 2.66.05 2.71.18 2.81.08 2.83-.46 2.24" filter="url(#a)"/><path d="m-40.41-67.59-2.7 1.75-4.26 2.1-4.33 2.21-3.73 2.18-2.78 2.21-1.85 2.27-1.22 2.33-1.03 2.37-1.17 2.4-1.53 2.43-1.91 2.45-2.2 2.48-2.35 2.49-2.4 2.51-2.38 2.51-2.41 2.53-2.51 2.55-2.73 2.59-2.93 2.62-3.02 2.67-2.93 2.7-2.67 2.72-2.38 2.75L-100.1-9l-2.43 2.79-2.77 2.81-2.99 2.83-2.82 2.84-2.14 2.83-1.16 2.79-.3 2.74.11 2.69-.06 2.66-.7 2.71-1.68 2.81-2.37 2.83-.7 2.24" filter="url(#a)"/><path d="m-41.59-65.86-3.25 1.37-3.46 1.79-2.48 2-1.73 1.99-1.25 1.99-1.07 2.1-1.2 2.27-1.52 2.41-1.82 2.49-1.92 2.54-1.81 2.58-1.59 2.62-1.37 2.63-1.2 2.63-1.09 2.62-1.09 2.6-1.31 2.62-1.84 2.63-2.59 2.63-3.2 2.6-3.25 2.5-2.5 2.31-1.8 2.25" filter="url(#a)"/><path d="m-41.59-65.86-1.09 1.4-1.56 1.84-2.09 2.02-2.39 2.03-2.3 2.05-1.95 2.18-1.53 2.33-1.3 2.45-1.36 2.53-1.64 2.59-2.01 2.63-2.32 2.65-2.49 2.66-2.55 2.67-2.5 2.66-2.41 2.65-2.32 2.64-2.21 2.63-2.08 2.61-1.89 2.58-1.63 2.57-1.32 2.56-.99 2.58-.72 2.61-.54 2.66-.46 2.72-.43 2.75-.45 2.77-.54 2.75-.72 2.73-.92 2.7-1.02 2.68-.92 2.65-.64 2.64-.45 2.71-.4 2.78-.44 2.06M58.39-20.85l1.96 2.67 1.22 2.62.11 2.72v2.77l.57 2.73 1.37 2.69 2 2.65L67.98.67l2.46 2.71 2.42 2.74 2.27 2.73 1.99 2.69 1.55 2.62.95 2.56.31 2.53-.24 2.54-.52 2.57-.36 2.62.21 2.66.92 2.76 1.25 2.89.59 2.96-.55 2.65M58.39-20.85l.55 2.68.4 2.63.3 2.73.21 2.77.14 2.75.09 2.7.04 2.66.01 2.68-.04 2.72L60 6.21l-.13 2.74-.18 2.69-.23 2.63-.28 2.58-.32 2.55-.37 2.56-.43 2.59-.49 2.64-.56 2.68-.62 2.73-.67 2.75-.69 2.65-.66 2.37-.58 1.91-.49 1.52" filter="url(#a)"/><path d="m-42.35-64.93-2.88 3.57-1.82 2.18-2.47 2.09-3.33 2.24-3.81 2.35-3.75 2.38-3.37 2.39-2.94 2.42-2.67 2.45-2.6 2.47-2.64 2.49-2.64 2.49-2.5 2.5-2.21 2.51-1.9 2.53-1.65 2.58-1.55 2.61-1.61 2.65-1.79 2.69-2.03 2.72-2.22 2.74L-97-9.12l-2.06 2.77-1.69 2.79-1.45 2.83-1.73 2.85-2.61 2.86-3.73 2.82-4.2 2.72-3.29 2.6-1.01 2.54 1.56 2.81" filter="url(#a)"/><path d="m-45.66-59.37-2.83.52-5.33 1.73-3.51 2.2-1.48 2.36-.99 2.38-1.66 2.37-2.63 2.38-3.37 2.41-3.72 2.46-3.77 2.47-3.63 2.47-3.4 2.45-3.15 2.46-2.92 2.49-2.79 2.53-2.79 2.58-2.85 2.62-2.95 2.66-3.07 2.72-3.39 2.75-4.07 2.72-4.64 2.58-3.61 2.46-1.23 2.79m73.78-57.56.21.51-.84 1.72-.98 2.19-.94 2.35-.86 2.38-.71 2.35-.55 2.37-.41 2.4-.3 2.45-.28 2.46-.29 2.46-.29 2.44-.25 2.44-.16 2.47-.05 2.52.03 2.57.08 2.58.08 2.64.07 2.74.07 2.86.1 2.89.13 3.12" filter="url(#a)"/><path d="m-45.64-59.38-.96 1.43-2.4 1.53-4.85 2-5.98 2.37-5.04 2.54-2.95 2.59-.93 2.6.26 2.64.51 2.65.03 2.66-.77 2.66-1.59 2.66-2.2 2.64-2.48 2.64-2.39 2.62-2 2.6-1.48 2.57-.98 2.55-.7 2.54-.75 2.56-1.1 2.6-1.66 2.66-2.24 2.71L-90.9.4l-2.62 2.76-2.22 2.75-1.59 2.71-1.05 2.7-.96 2.68-1.42 2.62-2.06 2.58-2.14 2.85-2.84 3.75m60.91-82.77.58 2.13 1.13 2.47 2 2.43 2 2.35 1.12 2.35-.01 2.41-.63 2.47-.43 2.48.42 2.47 1.56 2.46 2.58 2.46 3.21 2.5 3.42 2.53 3.25 2.59 2.76 2.62 2.01 2.67 1.21 2.71.6 2.72.48 2.72.86 2.68 1.52 2.71 2.27 2.83 2.88 2.98 3.82 2.72" filter="url(#a)"/><path d="m-46.89-56.97-1.39 2.13-1.65 2.46-1.52 2.42-1.6 2.35-1.89 2.35-2.13 2.4-2.14 2.46-2.08 2.48-2.06 2.47-2.18 2.45-2.29 2.46-2.3 2.48-2.19 2.53-2.09 2.58-2.16 2.62-2.36 2.66-2.6 2.71-2.65 2.73-2.44 2.71-2.01 2.64-1.55 2.65-1.43 2.89-2.47 3.47" filter="url(#a)"/><path d="m-46.99-56.96-.98 2.07-.82 2.74-.26 2.76.07 2.65-.03 2.61-.29 2.64-.47 2.66-.46 2.68-.29 2.67-.08 2.67.08 2.64.11 2.64.04 2.63-.07 2.6-.12 2.58-.04 2.56.2 2.56.56 2.59.96 2.61 1.34 2.67 1.62 2.71 1.77 2.74 1.77 2.75 1.65 2.75 1.41 2.72 1.14 2.71.87 2.69.65 2.69.54 2.71.59 2.73.85 2.76 1.23 2.72 1.51 2.59 1.41 2.32.92 2.13.75 2.77m-18.96-93.39-1.46 3.36-1.36 2.92-1.36 2.61-1.39 2.52-1.34 2.56-1.2 2.64-1.04 2.65-.93 2.64-.91 2.61-.98 2.61-1.07 2.61-1.1 2.6-1.05 2.58-.91 2.54-.75 2.49-.6 2.46-.5 2.45-.48 2.47-.49 2.57-.52 2.74-.46 3.06-.25 3.43.26 3.2m19.89-62.32-3.24 3.39-2.47 2.94-1.28 2.63-1.4 2.55-2.42 2.59-3.75 2.66-4.91 2.67-5.57 2.66-5.58 2.64-4.92 2.63-3.62 2.63-1.92 2.61-.17 2.59 1.18 2.56 1.78 2.53 1.56 2.52.69 2.54-.47 2.58-1.55 2.64-2.44 2.72-3.14 2.76-3.77 2.76-4.4 2.74-4.93 2.69-5.08 2.7-4.55 2.68-3.37 2.55-2.26 2.25-1.72 2.67" filter="url(#a)"/><path d="m-49.53-52.5-1.27 3-1.24 2.23-1.13 2.28-1.07 2.44-1.14 2.52-1.26 2.52-1.35 2.51-1.37 2.49-1.37 2.5-1.37 2.54-1.36 2.58-1.34 2.62-1.26 2.67-1.11 2.7-.92 2.72-.74 2.75-.62 2.77-.55 2.78-.53 2.79-.55 2.82-.58 2.82-.65 2.81-.74 2.77-.85 2.73-.93 2.69-.98 2.66-.96 2.66-.82 2.66-.52 2.58-.22 2.46-.37 2.53-.97 3.64" filter="url(#a)"/><path d="m-50.96-48.36-.56 1.29-.97 2.07-1.32 2.44-1.6 2.55-1.65 2.55-1.42 2.5-1.1 2.47-.87 2.48-.88 2.52-1.06 2.58-1.27 2.62-1.41 2.65-1.36 2.7-1.17 2.72-.87 2.74-.61 2.75-.48 2.77-.52 2.79-.68 2.81-.85 2.82-.89 2.82-.81 2.77-.72 2.71-.79 2.66-1.08 2.64-1.41 2.69-1.42 2.8-.78 2.81.63 2.21m27.92-74.93 1.32 1.27-1 2.05-1.16 2.42-.69 2.54-.01 2.53.64 2.48 1.14 2.45 1.33 2.45 1.17 2.5.72 2.54.12 2.6-.34 2.64-.47 2.67-.18 2.7.41 2.72.97 2.73 1.24 2.72 1.16 2.76.91 2.8.86 2.86 1.26 2.89 2.03 2.86 2.66 2.75 2.88 2.28" filter="url(#a)"/><path d="m-51.29-47.53-1.51 2.32-3.78 2.66-4.02 2.66-2.58 2.58-1.33 2.52-.93 2.47-.98 2.49-1.08 2.54-1.14 2.59-1.26 2.64-1.44 2.68-1.62 2.71-1.71 2.74-1.66 2.75-1.54 2.78-1.43 2.78-1.34 2.81L-81.9 0l-1.16 2.81-1.04 2.8-.94 2.77-.9 2.74-.99 2.7-1.22 2.68-1.58 2.66-1.96 2.67-2.29 2.68-2.41 2.72-2.25 2.78-1.87 2.84-1.47 2.79-1.19 2.53-1.01 2.39-.84 4.3" filter="url(#a)"/><path d="m-51.86-45.97-1.95 1.96-3.66 2.57-3.21 2.79-2.66 2.75-2.84 2.67-3.27 2.63-3.27 2.62-2.68 2.62-1.72 2.62-.79 2.58-.14 2.56.18 2.53.18 2.52-.03 2.54-.4 2.59-.88 2.65-1.36 2.72L-82.1.69l-1.91 2.75-1.84 2.74-1.63 2.7-1.41 2.68-1.32 2.66-1.43 2.64-1.64 2.65-1.69 2.72-1.26 2.84-.37 3 .83 3.73m43.91-77.77.34 1.96v2.57l-.72 2.78-.87 2.75-.63 2.67-.33 2.62-.13 2.62v2.62l.12 2.61.24 2.58.37 2.56.47 2.52.47 2.51.44 2.54.33 2.58.23 2.65.1 2.71.02 2.75.03 2.75.13 2.73.35 2.7.62 2.68.85 2.65.99 2.63 1.12 2.61 1.22 2.69 1.09 2.76.77 2.03" filter="url(#a)"/><path d="m-51.86-45.97-1.36 1.93-1.38 2.55-1.13 2.76-1.14 2.74-1.17 2.64-1.04 2.6-.78 2.6-.53 2.6-.37 2.6-.31 2.57-.35 2.54-.46 2.49-.59 2.47-.72 2.48-.81 2.53-.83 2.62-.78 2.72-.69 2.8-.63 2.79-.62 2.64-.64 2.5-.53 2.55-.34 2.38" filter="url(#a)"/><path d="m-52.59-44.3-1.49 2.73-1.27 3-1.56 2.82-2.5 2.67-3.41 2.61-3.67 2.62-3.13 2.63-2.17 2.62-1.26 2.59-.7 2.56-.53 2.54-.7 2.53-1.06 2.55-1.48 2.61-1.84 2.66-2.08 2.71-2.14 2.74-2.03 2.75-1.84 2.74-1.69 2.7-1.64 2.69-1.64 2.68-1.57 2.68-1.21 2.69-.59 2.72.04 2.75.19 2.72-.56 2.57-2.09 2.3-3.48 2.11-1.94 2.77" filter="url(#a)"/><path d="m-53.15-41.98-1.25 2.39-1.45 2.51-1.69 2.49-2.03 2.43-2.13 2.45-1.85 2.52-1.39 2.6-1 2.65-.85 2.68-.94 2.72-1.16 2.74-1.41 2.76-1.66 2.77-1.85 2.78-2.05 2.81L-78.1.13l-2.42 2.81-2.53 2.8-2.45 2.76-2.06 2.73-1.36 2.7-.44 2.68.43 2.66.97 2.67.96 2.68.4 2.72-.49 2.77-1.33 2.8-1.67 2.75-1.24 2.61-.15 2.49.56 2.64-1.41 2.22" filter="url(#a)"/><path d="m-53.15-41.98-1 2.35-1.5 2.47-1.86 2.46-1.94 2.38-1.73 2.4-1.41 2.47-1.13 2.56-1 2.6-1.03 2.63-1.07 2.67-1.04 2.7-.84 2.72-.55 2.71-.32 2.73-.3 2.74-.52 2.8-.87 2.84-1.05 2.84-.83 2.8-.41 2.68-.4 2.46-1.12 2.25M57.78-24.78l3.1 3.45 4.55 2.95 2.58 2.81.49 2.79-.46 2.8-.53 2.76-.18 2.74.29 2.72.76 2.73 1.08 2.74 1.27 2.76 1.35 2.74 1.39 2.7 1.38 2.67 1.34 2.63 1.27 2.62 1.19 2.63 1.15 2.64 1.23 2.65 1.4 2.66 1.63 2.65 1.8 2.61 1.78 2.55 1.5 2.48 1.01 2.44.39 2.4-.15 2.39-.52 2.38-.67 2.37-.6 2.32-.28 2.26.33 2.19 1.06 2.14 1.19 2.11-.3 2.14-2.18 1.65" filter="url(#a)"/><path d="m57.78-24.78.68 3.42.99 2.94 1.63 2.78 2.04 2.77 1.94 2.78 1.49 2.75.92 2.71.39 2.69.03 2.7-.12 2.73-.06 2.74.13 2.73.34 2.7.48 2.64.51 2.6.45 2.58.34 2.58.24 2.61.17 2.65.13 2.69.1 2.7.01 2.67-.12 2.58-.22 2.41-.18 2.24-.08 2.23-.23 2.49-.76 2.93M-53.46-42.11l.26 3.63 1.57 2.85.51 2.59-.79 2.54-1.17 2.58-.75 2.6.07 2.61.92 2.57 1.58 2.53 1.91 2.49 1.92 2.47 1.71 2.49 1.42 2.55 1.16 2.62.9 2.72.66 2.76.46 2.76.43 2.7.7 2.65 1.17 2.7 1.51 2.76 1.44 2.5 1.97.89m-19.56-59.56-7.19 3.64.16 2.85.59 2.6-.84 2.54-2.52 2.58-3.71 2.61-4.06 2.61-3.67 2.58-3.02 2.53-2.5 2.5-2.28 2.48-2.17 2.5-1.94 2.56-1.63 2.63-1.45 2.71-1.65 2.76-2.25 2.75-2.89 2.71-3.03 2.67-2.5 2.68-1.86 2.66-2.32 2.53-4.31 2.23-5.83 2.65m60.32-54.48-.75 1.42-1.56 1.95-1.78 2.48-1.57 2.65-1.27 2.67-1.03 2.67-.92 2.68-.87 2.73-.79 2.73-.61 2.75-.44 2.75-.42 2.78-.64 2.79-1.03 2.81-1.4 2.79-1.57 2.75-1.41 2.7-1.03 2.65-.62 2.64-.38 2.64-.33 2.63-.41 2.56-.38 2.43.09 2.5 1.19 3.62" filter="url(#a)"/><path d="m-56.59-30.08.19 2.5.12 2.76-.04 2.71.25 2.62.91 2.54 1.87 2.5 2.98 2.5 3.96 2.54 4.4 2.61 4.09 2.68 3.13 2.74 1.84 2.75.7 2.76.01 2.73-.14 2.71.15 2.7.63 2.68 1.1 2.69 1.47 2.69 1.71 2.69 1.93 2.68 2.13 2.65 2.27 2.6 2.32 2.57 2.27 2.57 2.13 2.59 2.04 2.66 2.02 2.69 1.94 2.7 1.47 2.67.67 2.42 1.2 1.74m-51.59-84.39-1.14 3.42-2.16 3.12-2.9 2.72-2.57 2.63-1.55 2.68-.62 2.74-.19 2.76-.23 2.75-.42 2.77-.57 2.78-.72 2.81-.97 2.81-1.4 2.78-1.95 2.75-2.41 2.71-2.59 2.66-2.51 2.65-2.29 2.64-2.1 2.64-1.98 2.66-1.78 2.7-1.3 2.76-.77 2.83-.78 2.77-1.64 2.5-2.53 2.37-.46 4.28" filter="url(#a)"/><path d="m-56.46-30.83-.84 3.44-.63 3.14-.5 2.75-.41 2.66-.37 2.71-.34 2.76-.3 2.78-.3 2.78-.3 2.8-.29 2.81-.28 2.82-.2 2.81-.09 2.8.06 2.76.18 2.73.28 2.7.32 2.69.32 2.68.28 2.69.26 2.7.22 2.71.23 2.72.26 2.71.33 2.68.46 2.61.61 2.54.74 2.46.85 2.38.9 2.29.9 2.2.89 2.11.89 2.04.91 2 .91 2.06.93 2.29M57.25-28.13l3.29 2.83 5.1 2.48 4.34 2.63 1.77 2.79-.01 2.89-.31 2.95.29 2.94 1 2.85 1.41 2.71 1.44 2.58 1.22 2.5.99 2.5 1.02 2.56 1.47 2.63 2.41 2.7 3.65 2.75 4.76 2.76 5.24 2.77 4.77 2.76 3.44 2.76 1.8 2.72.59 2.66.15 2.56.16 2.5.1 2.53.42 2.64 2.11 2.52" filter="url(#a)"/><path d="m57.25-28.13 2.92 2.82.29 2.47.35 2.61.63 2.77.6 2.88.41 2.94.26 2.94.22 2.85.26 2.7.35 2.56.45 2.47.52 2.47.54 2.53.54 2.62.5 2.7.5 2.75.48 2.75.48 2.74.45 2.76.41 2.79.35 2.81.28 2.7.16 2.5-.56 2.69" filter="url(#a)"/><path d="m56.15-32.46.89 2.75 1.87 2.55 3.04 2.73 3.47 2.83 3.12 2.85 2.33 2.84 1.62 2.82 1.42 2.79 1.79 2.76 2.45 2.74 3 2.72L84.24.65l2.64 2.74 1.84 2.75.99 2.73.39 2.7.2 2.66.41 2.63.88 2.61 1.39 2.61 1.74 2.63 1.8 2.66 1.52 2.68 1.01 2.68.49 2.65.16 2.57.2 2.45.47 2.36.7 2.34.7 2.42.67 2.55.65 2.62-1.64 2.79" filter="url(#a)"/><path d="m56.32-32.31.79 1.83 1.35 2.4 1.33 2.54 1.46 2.6L63-20.26l1.88 2.79 1.77 2.87 1.52 2.92 1.27 2.91 1.15 2.83 1.16 2.72 1.28 2.61 1.45 2.55 1.58 2.54 1.59 2.58L79.1 9.7l1.22 2.7.95 2.75.75 2.76.6 2.78.5 2.76.45 2.76.48 2.73.6 2.66.85 2.58 1.1 2.51 1.18 2.47 1.07 2.39.98 2.05.46 1.08M55.22-35.79l.08-2.28 2.45-2.86 3.78-2.88 2.81-2.71.69-2.47-1.25-2.23-2.23-2.07-2.21-1.99-1.5-1.99-.66-2.04-.03-2.09.14-2.1-.08-2.07-.56-1.99-1.06-1.9-1.45-1.79-1.67-1.7-1.75-1.61-1.77-1.53-1.84-1.46-1.92-1.4-1.92-1.32-1.75-1.22-1.41-1.15-1.13-1.07-1.26-1.08-2.02-1.11-2.95-1.03" filter="url(#a)"/><path d="m55.34-35.74-.94-3.76-.72-2.99-.76-2.62-.79-2.38-.75-2.25-.63-2.21-.44-2.24-.24-2.24-.09-2.23-.09-2.16-.25-2.07-.55-1.95-.9-1.86-1.23-1.78-1.51-1.71-1.69-1.65-1.8-1.57-1.82-1.51-1.79-1.47-1.73-1.45-1.71-1.46-1.71-1.46-1.77-1.44-1.84-1.35-1.86-1.21-1.74-1.02-1.13-.83" filter="url(#a)"/><path d="m52.85-43.62-2.26-3.37-3.34-2.6-3.51-2.12-2.63-1.91-1.72-1.87-1.24-1.93-1.1-2.03-1.08-2.11-1.14-2.13-1.27-2.07-1.45-1.99-1.59-1.88-1.67-1.77-1.67-1.68-1.62-1.59-1.59-1.52-1.6-1.45-1.64-1.38-1.64-1.3-1.57-1.22-1.53-1.14-1.58-1.09-1.78-1.09-1.99-1.11-1.92-1.14-1.67-1.23" filter="url(#a)"/><path d="m51.42-47.53-.6-2.52-.12-1.94-.24-1.81-.43-1.85-.68-1.95-1.02-2.06-1.36-2.14-1.63-2.13-1.75-2.08-1.75-1.98-1.67-1.87-1.59-1.76-1.52-1.67-1.48-1.59-1.47-1.51-1.48-1.43-1.49-1.36-1.5-1.29-1.53-1.23-1.56-1.17-1.63-1.11-1.72-1.07-1.82-1.01-1.89-.94-1.93-.86-1.92-.76-1.9-.66-1.86-.56-1.85-.46-1.87-.37-1.91-.28-1.96-.2-2.08-.12-2.31-.06h-2.7l-2.78-.02" filter="url(#a)"/><path d="m51.42-47.53 11.17-2.52 3.39-1.93-2.03-1.81-3.03-1.84-2.62-1.94-2.39-2.06-2.46-2.13-2.5-2.13-2.35-2.08-2.03-1.98-1.66-1.87-1.29-1.77-.96-1.67-.66-1.58-.39-1.51-.25-1.44-.23-1.36-.37-1.29-.65-1.23-1.02-1.17-1.44-1.11-1.89-1.08-2.31-1.02-2.67-.96-2.91-.88-3.01-.78-2.94-.67-2.78-.56-2.64-.47-2.7-.38-3.01-.29-3.36-.16-3.42-.12" filter="url(#a)"/><path d="m51.35-47.83.35-2.23.05-2.16-.2-2.28.28-2.33.41-2.3-.1-2.19-.89-2.05-1.48-1.92-1.67-1.83-1.54-1.76-1.24-1.69-.95-1.62-.78-1.57-.76-1.52-.85-1.48-1.02-1.45-1.16-1.41-1.26-1.37-1.35-1.3-1.44-1.21-1.59-1.11-1.8-1.01-2.09-.91-2.37-.83-2.64-.76-2.83-.7-2.92-.61-2.91-.52-2.89-.42-2.94-.32-3.1-.26-3.34-.19-3.63-.13-4.36-.01" filter="url(#a)"/><path d="m49.25-52.31.79-1.49-.46-1.81-1.23-1.89-1.4-2.06-1.29-2.17-1.06-2.19-.86-2.1-.73-1.98-.66-1.85-.65-1.74-.67-1.65-.64-1.57-.63-1.5-.61-1.43-.68-1.37-.81-1.29-1.01-1.21-1.23-1.13-1.46-1.1-1.75-1.08L30.06-86l-2.55-1.08-2.68-1-2.22-.73" filter="url(#a)"/><path d="m47.96-54.78 1-2.27-1.23-2.34-1.28-2.25-.6-2.01-.08-1.83.06-1.75-.15-1.72-.48-1.67-.79-1.61-1.04-1.54-1.22-1.48-1.37-1.45-1.54-1.44-1.76-1.42-2.01-1.41-2.2-1.35-2.29-1.25-2.16-1.12-1.83-.98-1.42-.85-1.2-.8-1.4-.8-2.04-.81-2.86-.73" filter="url(#a)"/><path d="m46.29-58.77-1.48-3.28-.75-2.04-.75-1.7-1.12-1.69-1.43-1.72-1.56-1.68-1.55-1.61-1.52-1.54-1.48-1.49-1.5-1.46-1.53-1.43-1.58-1.41-1.63-1.36-1.65-1.29-1.65-1.19-1.65-1.08-1.67-.99-1.71-.89-1.78-.81-1.87-.74-1.95-.66-1.99-.59-2-.5-1.98-.41-1.97-.32-2-.25-2.03-.18-2.07-.11-2.07-.04-2.07.04-2.05.17-1.5.32" filter="url(#a)"/><path d="M45.91-58.67 40.24-62l-2.16-2.54L37-66.66l-.81-1.91-.87-1.79-1.14-1.7-1.57-1.61-1.98-1.54-2.31-1.48-2.44-1.41-2.4-1.33-2.2-1.27-1.93-1.2-1.67-1.15-1.45-1.09-1.33-1.05-1.27-.99-1.25-.91-1.24-.84-1.25-.74-1.25-.63-1.26-.54-1.26-.44-1.25-.35-1.24-.27-1.22-.19-1.2-.11-1.18-.04-1.14.02-1.06.09-.97.16-1 .26-1.42.41" filter="url(#a)"/><path d="m43.35-63.14-.23-1.42-.76-1.34-.46-1.61.1-1.73.17-1.71-.32-1.61-1.02-1.53-1.54-1.48-1.72-1.45-1.68-1.43-1.58-1.41-1.53-1.36-1.55-1.29-1.58-1.18-1.62-1.09-1.65-.97-1.7-.89-1.81-.81-1.97-.73-2.15-.67-2.33-.58-2.47-.5-2.57-.41-2.64-.32-2.7-.24-2.78-.18-2.87-.11-2.95-.04-3.03.04-3.06.17-2.39.32" filter="url(#a)"/><path d="m40.46-67.59.09-1.26-.84-1.74-1.33-1.7-1.17-1.59-.87-1.51-.76-1.46-.93-1.4-1.25-1.32-1.55-1.25-1.77-1.19-1.87-1.12-1.92-1.09-1.98-1.04-2.04-.98-2.08-.92-2.1-.84-2.04-.73-1.96-.63-1.88-.53-1.84-.43-1.87-.35-1.97-.26-2.11-.19-2.31-.11-2.52-.04-2.67.02-2.63.08-2.32.14-2.13.14" filter="url(#a)"/><path d="m40.16-68.2-1.88-2.39-1.41-1.82-1.33-1.58-1.42-1.5-1.54-1.45-1.59-1.4-1.6-1.32-1.58-1.25-1.59-1.18-1.6-1.12-1.66-1.08-1.72-1.03-1.78-.98-1.81-.9-1.82-.82-1.81-.71-1.79-.62-1.77-.52-1.76-.42-1.77-.33-1.8-.25-1.83-.18-1.87-.1-1.92-.03-1.94.05-1.93.11-1.92.2-1.92.28-1.95.37-1.91.45-1.75.5-1.57.48" filter="url(#a)"/><path d="m36.37-73-.95-1.14-.9-1.42-.85-1.46-1.01-1.4-1.22-1.32-1.36-1.23-1.46-1.15-1.54-1.1-1.61-1.07-1.64-1.03-1.65-.99-1.66-.93-1.69-.83-1.72-.73-1.79-.62-1.87-.52-1.93-.43-2.02-.35-2.14-.26-2.29-.19-2.52-.11-2.85-.05h-3.37l-3.43-.02" filter="url(#a)"/><path d="m36.37-73 2.28-1.14 1.02-1.42-1.56-1.46-2.31-1.4-1.94-1.32-1.37-1.23-1.07-1.15-1.07-1.1-1.24-1.07-1.44-1.03-1.57-.99-1.66-.93-1.74-.83-1.84-.73-1.97-.62-2.14-.52-2.34-.43-2.54-.35-2.74-.26-2.91-.19-3.13-.11-3.59-.05h-4.37l-4.68-.02" filter="url(#a)"/><path d="m36.37-73-.91-1.15-.88-1.42-.5-1.46-.36-1.41-.62-1.32-1.02-1.23-1.32-1.16-1.49-1.1-1.63-1.06-1.79-1.04-1.95-.98-2.08-.92-2.12-.82-2.08-.73-2.01-.61-1.97-.52-2-.42-2.13-.34-2.28-.26-2.46-.18-2.63-.1-2.83-.05-2.99.03-3 .08-2.67.14-2.27.14" filter="url(#a)"/><path d="m35.41-73.87.5-1.7.25-1.55-.84-1.43-1.3-1.33-1.5-1.23-1.72-1.15-1.89-1.1-1.98-1.06-1.99-1.03-2.02-.97-2.05-.89-2.09-.81-2.1-.69-2.08-.6-2.05-.49-2.07-.41-2.13-.31-2.23-.24-2.36-.16-2.46-.08-2.55-.01-2.6.07-2.62.14-2.63.22-2.66.31-2.73.4-2.83.49-2.99.59-3.13.66-3.21.71-3.11.71-3.12.73-4.41 1.11" filter="url(#a)"/><path d="m34.91-74.66-1.44-1.29-1.93-1.38-2.34-1.45-2.46-1.47-2.39-1.42-2.29-1.3-2.15-1.15-1.96-1.03-1.79-.91-1.65-.83-1.58-.77-1.53-.69-1.5-.61-1.46-.54-1.43-.45-1.39-.36-1.37-.28-1.35-.21-1.33-.12-1.29-.05-1.23.03-1.16.1-1.09.19-1.01.28-.96.36-.9.44-.84.54-.74.64-.62.73-.49.83-.42.89-.39.96-.36.99-.26 1.03-.1 1.09-.52 1.53" filter="url(#a)"/><path d="m31.95-77.44-1.23-1.29-1.59-1.32-1.58-1.21-1.5-1.11-1.48-1.08-1.53-1.05-1.62-1.03-1.67-.98-1.71-.89-1.73-.8-1.76-.68-1.79-.59-1.84-.48-1.87-.39-1.92-.31-1.98-.22-2.03-.15-2.11-.08h-2.17l-2.26.07-2.33.15-2.41.23-2.5.32-2.56.4-2.61.5-2.62.59-2.61.66-2.59.71-2.62.75-2.77.83-3.13 1.02-3.74 1.32" filter="url(#a)"/><path d="m29.06-80.22-.96-1.26-.95-1.02-1.51-1.01-1.78-1.04-1.9-1.04-1.94-.99-1.93-.91-1.85-.79-1.75-.68-1.66-.58-1.64-.47-1.69-.39-1.81-.3-1.95-.22-2.1-.15-2.24-.08-2.36-.01-2.45.06-2.55.14-2.67.21-2.8.3-2.98.39-3.14.49-3.26.59-3.36.72-3.37.84-2.73.76" filter="url(#a)"/><path d="m25.81-82.87-.99-.79-.95-.97-.68-.88-.84-.82-1.3-.77-1.78-.73-2.1-.69-2.24-.61-2.24-.52-2.19-.43-2.16-.34-2.17-.26-2.2-.18-2.24-.11L-.55-91l-2.31.04-2.38.13-2.47.2-2.6.29-2.73.38-2.85.46-2.94.55-2.98.65-2.99.74-3.01.83-3.08.9-3.18.95-3.26 1.01-3.29 1.07-3.31 1.12-3.46 1.21-3.71 1.24-4.14 1.11" filter="url(#a)"/><path d="m25.81-82.87-.95-.78-.99-.96-.47-.89-.31-.8-.71-.77-1.42-.73-2.09-.7-2.52-.62-2.66-.53-2.61-.44-2.48-.34-2.39-.27-2.41-.2-2.52-.13-2.71-.05-2.93.02-3.14.1-3.3.18-3.42.26-3.56.33-3.69.41-3.83.5-3.95.61-4.08.76-4.26.92-4.84 1.08" filter="url(#a)"/><path d="m25.66-82.27 2.89-1.23-2.38-1.1-2.68-1.08-2.02-1.02-1.51-.92-1.33-.78-1.42-.66-1.7-.55-2.03-.46-2.31-.37-2.48-.29-2.52-.22-2.51-.14-2.48-.07h-2.5l-2.55.07-2.63.15-2.75.22-2.86.31-2.99.4-3.09.5-3.15.59-3.16.68-3.12.72-3.01.63-3.11.27" filter="url(#a)"/><path d="m25.66-82.27-.2-1.24-1.51-1.09-1.59-1.09-1.62-1.02-1.82-.91-2.02-.79-2.09-.66-2.06-.55-1.97-.45-1.93-.37-1.93-.29-2.02-.21-2.13-.13-2.28-.07-2.43.01-2.56.08-2.68.15-2.75.24-2.83.32-2.89.41-2.95.51-2.99.59-2.97.66-2.9.71-2.89.75-3.17.82-3.97 1.02-4.71 1.32" filter="url(#a)"/><path d="m25.16-83.38-.37-1.26-2.09-.94-1.98-.78-1.76-.75-1.72-.74-1.82-.69-1.93-.62-1.98-.53-2-.43-1.99-.33-2-.26-2.01-.19-2.04-.12-2.09-.04-2.12.03-2.15.11-2.18.19-2.18.27-2.19.34-2.18.44-2.24.52-2.38.63-2.57.74-2.73.82-2.73.88-2.65.92-2.96 1.17" filter="url(#a)"/><path d="m25.16-83.38-2.04-1.26-1.1-.93-.71-.79-.85-.75-1.31-.73-1.81-.7-2.12-.62-2.25-.53-2.22-.43-2.2-.34-2.23-.26-2.3-.19-2.41-.12-2.52-.05-2.64.03-2.76.11-2.93.18-3.14.27-3.39.34-3.69.42-4 .51-4.37.63-4.76.74-5.03.84-4.6.84-2.85.6" filter="url(#a)"/><path d="m20.58-85.84-.87-.64-1.32-.69-1.58-.75-1.59-.72-1.55-.63-1.61-.51-1.77-.41-1.97-.32-2.16-.24-2.29-.16-2.38-.1-2.41-.02-2.43.06-2.44.13-2.48.22-2.51.31-2.56.38-2.59.48-2.59.57-2.6.66-2.62.75-2.7.83-2.83.9-3 .97-3.19 1.01-3.39 1.07-3.53 1.13-3.5 1.18-3.21 1.23-2.83 1.29-3.03 1.51-4.7 2.2" filter="url(#a)"/><path d="m18-86.93-1.06-1.06-1.24-.74-1.33-.59-1.27-.48-1.39-.42-1.66-.34-1.95-.26-2.15-.2-2.29-.12-2.41-.05-2.52.02-2.63.09-2.77.17-2.95.24-3.17.33-3.4.42-3.62.51-3.79.59-3.89.66-4 .72-4.23.74-4.85.82-6.13 1.02-7.55 1.31" filter="url(#a)"/><path d="m18-86.93.51-1.07-1.66-.75-2.11-.59-1.93-.48-1.75-.41-1.76-.33-1.89-.26L5.34-91l-2.24-.1-2.36-.03-2.43.04-2.46.13-2.47.2-2.51.28-2.57.38-2.66.45-2.79.55-2.94.62-3.07.69-3.17.76-3.24.82-3.3.89-3.4.96-3.6 1.04-3.91 1.12-4.25 1.23-4.51 1.32-4.53 1.41-4.31 1.49-3.96 1.55-3.75 1.62-3.98 1.7-4.68 1.82-5.52 1.93-5.99 1.96-6.12 1.75" filter="url(#a)"/><path d="m19.25-86.76-2.64-1.16-2.21-.84-2.02-.65-1.88-.49-1.81-.38-1.81-.3-1.86-.22-1.91-.15-1.93-.08-1.94-.01-1.94.07-1.92.15-1.91.24-1.9.32-1.89.41-1.9.5-1.92.59-1.95.68-2 .76-2.03.85-2.05.91-2.06.98-2.06 1.03-2.06 1.1-2.05 1.16-2.05 1.23-2.03 1.31-1.99 1.42-1.94 1.52-1.86 1.64-1.79 1.72-1.77 1.76-1.78 1.74-1.73 1.61-1.74 1.54" filter="url(#a)"/><path d="m16.36-88.34-1.28-.54-1.52-.53-1.74-.46-1.81-.39-1.8-.34-1.81-.25-1.84-.18-1.88-.11-1.94-.03-2 .04-2.06.11-2.13.19-2.2.27-2.26.36-2.3.44-2.29.53-2.24.61-2.18.68-2.13.75-2.12.8-2.16.86-2.21.92-2.28.98-2.37 1.05-2.51 1.17-2.74 1.35-2.93 1.56-2.79 1.63-1.88 1.2" filter="url(#a)"/><path d="m16.36-88.34-1.2-.54-1.83-.53-1.77-.46-1.71-.4-1.73-.33-1.78-.25-1.84-.18-1.91-.09-1.95-.03-2 .05-2.03.12-2.07.21-2.1.29-2.13.38-2.18.46-2.22.55-2.27.62-2.33.7-2.38.76-2.43.83-2.42.9-2.39.96-2.3 1.04-2.21 1.14-2.13 1.22-2.09 1.33-2.11 1.41-2.19 1.49-2.33 1.56-2.5 1.63-2.64 1.7-2.72 1.8-2.68 1.85-2.48 1.8-2.06 1.55-.96.95" filter="url(#a)"/><path d="m14.27-88.81-1.69-.65-1.2-.45-1.36-.4-1.68-.33-1.92-.25-2.05-.17-2.13-.09-2.18-.03-2.22.05-2.22.13-2.24.2-2.25.29-2.3.37-2.33.47-2.38.54-2.39.63-2.41.69-2.43.76-2.47.82-2.5.89-2.55.95-2.58 1.04-2.64 1.11-2.7 1.22-2.77 1.32-2.8 1.42-2.84 1.49-2.96 1.54-3.27 1.59-3.78 1.69-4.23 1.83-4.17 1.99-3.46 2.29" filter="url(#a)"/><path d="m12.03-89.68-1.05-.29-1.23-.36-1.52-.34-1.69-.25-1.79-.18-1.94-.1-2.14-.03-2.39.04-2.65.1-2.92.17-3.17.26-3.36.34-3.44.43-3.45.52-3.41.6-3.48.67-3.72.72-4.1.77-4.54.85-5.05.99-5.2 1.14-2.91 1.09" filter="url(#a)"/><path d="m12.03-89.66-.15-.48-1.07-.3-1.67-.24-2.24-.2-2.53-.15-2.52-.08-2.43-.02-2.37.08-2.39.15-2.52.23-2.75.32-3.03.4-3.36.49-3.65.58-3.86.67-3.94.76-3.91.84-3.81.91-3.67.96-3.54 1.02-3.5 1.07-3.65 1.12-3.99 1.17-4.33 1.23-4.46 1.29-4.82 1.5-6.93 2.19" filter="url(#a)"/><path d="m12.03-89.66-1.7-.48-1.05-.3-1.36-.24-1.88-.2-2.21-.15-2.37-.09-2.48-.02-2.6.06-2.72.14-2.8.23-2.84.3-2.82.38-2.81.46-2.85.56-2.98.65-3.22.75-3.53.84-3.88.9-4.22.95-4.49.98-4.75 1.01-5.46 1.07-7.92 1.52" filter="url(#a)"/><path d="m9.65-90.36-1.46-.14-1.62-.21-1.8-.2-1.83-.14-1.73-.08H-.41l-1.53.08-1.5.17-1.5.25-1.51.34-1.5.43-1.47.51-1.41.61-1.32.69-1.21.78-1.12.86-1.08.93-1.06.98-1.08 1.05-1.08 1.11-1.04 1.17-.95 1.24-.81 1.33-.64 1.43-.43 1.53-.17 1.62.09 1.69.33 1.71.45 1.7.49 1.68.43 1.77.16 2.25-.87 3.85" filter="url(#a)"/><path d="m9.66-90.29-1.94-.47-1.84-.27-1.76-.14-1.79-.07-1.89-.02-1.97.05-1.99.11-1.98.19-1.95.27-1.96.36-1.98.45-2.03.53-2.08.61-2.1.68-2.1.74-2.08.79-2.05.85-2.03.92-1.95.94-1.78.9-1.76.94-2.89 1.6" filter="url(#a)"/><path d="m7.61-90.9-2.24-.23-1.67-.09-1.63-.05H.33l-1.78.05-1.74.13-1.64.2-1.53.3-1.41.38-1.32.47-1.23.55-1.17.63-1.1.7-1.04.76-1 .81-.99.88-.98.93-.95 1.01-.84 1.08-.66 1.2-.42 1.33-.23 1.44-.18 1.49-.27 1.45-.35 1.46.2 1.91" filter="url(#a)"/><path d="m7.61-90.9-1.9-.23-1.72-.09-1.75-.05H.38l-1.95.06-1.98.13-1.98.21-1.99.29-2.02.39-2.1.48-2.18.55-2.24.64-2.24.7-2.2.77-2.12.82-2.04.89-1.99.94-1.98 1.03-2.05 1.11-2.14 1.21-2.27 1.33-2.37 1.42-2.43 1.48-2.41 1.52-2.35 1.56-2.36 1.66-2.45 1.78-2.49 1.8" filter="url(#a)"/><path d="m5.47-91.33-1.59.08-1.72-.03-1.97-.01-2.12.06-2.19.14-2.24.23-2.32.31-2.4.41-2.45.49-2.49.58-2.47.65-2.41.73-2.33.78-2.21.85-2.09.92-2.01.99-1.95 1.07-1.97 1.16-2.08 1.26-2.28 1.34-2.57 1.43-2.95 1.51-3.32 1.58-3.65 1.65-3.83 1.71-3.84 1.77-3.69 1.83-3.45 1.87-3.21 1.92-3.04 1.94-2.89 1.94-2.76 1.87-2.62 1.76-2.6 1.87-2.87 2.74" filter="url(#a)"/><path d="m4.93-90.93-2.28-.23-1.9-.08h-1.79l-1.75.1-1.72.18-1.71.26-1.7.35-1.66.42-1.64.51-1.61.61-1.58.7-1.55.79-1.52.86-1.5.92-1.47.99-1.48 1.03-1.48 1.09-1.47 1.15-1.41 1.22-1.33 1.3-1.24 1.4-1.21 1.52-1.21 1.64-1.2 1.74-1.08 1.79-.9 1.77-.7 1.31" filter="url(#a)"/><path d="M2.07-91.29.38-91.3l-2.32.02-2.4.1-2.27.19-2.12.27-2.07.34-2.15.42-2.27.51-2.39.6-2.5.7-2.63.78-2.78.87-2.93.92-3.09.97-3.28 1.03-3.54 1.08-3.94 1.13-4.48 1.19-5.16 1.27-5.9 1.37-6.47 1.51-6.4 1.65-5.18 1.66-2.6 1.35" filter="url(#a)"/></g><g fill="none" stroke="#000"><circle cx="11.148" cy="22.744" r="2.764" filter="url(#a)"/><circle cx="9.84" cy="26.028" r="1.306" filter="url(#a)"/><circle cx="9.156" cy="23.568" r="2.614" filter="url(#a)"/><circle cx="8.708" cy="22.772" r="1.572" filter="url(#a)"/><circle cx="8.044" cy="25.868" r="2.07" filter="url(#a)"/><circle cx="7.524" cy="25.536" r="2.712" filter="url(#a)"/><circle cx="10.58" cy="24.3" r="2.828" filter="url(#a)"/><circle cx="8.468" cy="26.296" r="1.844" filter="url(#a)"/><circle cx="7.588" cy="25.08" r="2.786" filter="url(#a)"/><circle cx="9.752" cy="24.884" r="1.778" filter="url(#a)"/><circle cx="-9.028" cy="23.418" r="2.38" filter="url(#a)"/><circle cx="-5.568" cy="19.694" r="1.72" filter="url(#a)"/><circle cx="-8.524" cy="21.898" r="1.456" filter="url(#a)"/><circle cx="-8.704" cy="22.39" r="2.854" filter="url(#a)"/><circle cx="-5.772" cy="23.146" r="1.038" filter="url(#a)"/><circle cx="-6.88" cy="22.222" r="2.24" filter="url(#a)"/><circle cx="-6.368" cy="22.146" r="2.522" filter="url(#a)"/><circle cx="-7.464" cy="19.61" r="2.966" filter="url(#a)"/><circle cx="-8.648" cy="23.546" r="1.374" filter="url(#a)"/><circle cx="-5.528" cy="20.018" r="2.342" filter="url(#a)"/></g><path fill="#D77F8C" stroke="#000" stroke-linejoin="round" stroke-width="3" d="m-26.64 32.14.27 1.29.28 1.28.31 1.29.32 1.27.34 1.27.36 1.27.37 1.26.4 1.25.4 1.25.43 1.23.44 1.23.45 1.21.47 1.21.48 1.19.49 1.19.51 1.17.52 1.15.54 1.14.55 1.13.55 1.11.57 1.1.58 1.08.59 1.06.6 1.04.61 1.03.62 1 .62.99.64.96.64.95.65.92.66.9.67.87.67.85.67.83.68.8.69.77.69.75.7.72.69.69.71.66.7.63.71.61.71.57.71.54.71.51.71.47.72.44.71.41.71.37.72.33.71.3.7.27.71.22.71.19.7.14.7.11.69.07.69.02.69-.01.68-.06.67-.1.67-.15.66-.19.66-.23.65-.28.64-.33.64-.38.62-.42.62-.47.61-.52.6-.57.58-.62.58-.68.57-.72.56-.78.54-.83.53-.88.52-.94.51-.99.49-1.05.48-1.11.47-1.16.45-1.23.44-1.28.42-1.34.4-1.4.39-1.46.37-1.52.36-1.59.34-1.64.32-1.71.3-1.78.28-1.84.27-1.9.24-1.98.23-2.03.2-2.11.19-2.17.16-2.25.14-2.31-.14 2.31-.16 2.25-.19 2.17-.2 2.11-.23 2.03-.24 1.98-.27 1.9-.28 1.84-.3 1.78-.32 1.71-.34 1.64-.36 1.59-.37 1.52-.39 1.46-.4 1.4-.42 1.34L22.2 66l-.45 1.23-.47 1.16-.48 1.11-.49 1.05-.51.99-.52.94-.53.88-.54.83-.56.78-.57.72-.58.68-.58.62-.6.57-.61.52-.62.47-.62.42-.64.38-.64.33-.65.28-.66.23-.66.19-.67.15-.67.1-.68.06-.69.01-.69-.02-.69-.07-.7-.11-.7-.14-.71-.19-.71-.22-.7-.27-.72-.3-.71-.33-.71-.37-.71-.41-.72-.44-.71-.47-.71-.51-.71-.54-.71-.57-.71-.61-.7-.63-.71-.66-.69-.69-.7-.72-.69-.75-.69-.77-.68-.8-.67-.83-.67-.85-.67-.87-.66-.9-.65-.92-.64-.95-.64-.96-.62-.99-.62-1-.61-1.03-.6-1.04-.59-1.06-.58-1.08-.57-1.1-.55-1.11-.55-1.13-.54-1.14-.52-1.15-.51-1.17-.49-1.19-.48-1.19-.47-1.21-.45-1.21-.44-1.23-.43-1.23-.4-1.25-.4-1.25-.37-1.26-.36-1.27-.34-1.27-.32-1.27-.31-1.29-.28-1.28" filter="url(#a)"/></svg>