<svg xmlns="http://www.w3.org/2000/svg" width="500" height="500" viewBox="-100 -100 200 200"><defs><clipPath id="c"><path d="m21.6.34-.22-.09-.24-.1-.26-.11-.27-.1-.28-.1-.3-.11-.31-.1-.33-.11-.34-.1-.35-.1-.37-.11-.38-.1-.4-.09-.41-.1-.41-.1-.44-.13-.45-.13-.47-.12-.49-.12-.51-.11-.53-.11-.54-.11-.56-.09-.58-.1-.6-.08-.61-.08-.62-.07-.64-.06-.65-.06-.66-.05-.68-.04-.68-.04-.7-.02-.7-.03-.71-.01-.71-.01h-.72l-.72.01-.73.01-.73.02-.73.02-.73.04-.73.03-.73.04-.72.05-.72.05-.71.06-.71.06-.7.07-.7.07-.68.07-.68.07-.66.08-.66.08-.64.09-.63.08-.62.09-.61.09-.59.09-.58.09-.56.09-.55.09-.54.09-.51.09-.51.09-.49.09-.48.09-.46.09-.45.09-.44.09-.42.09-.42.09-.39.08-.39.09-.36.09-.36.08-.34.08-.33.09-.31.08 1.92.78.19.06.2.06.22.06.23.06.25.05.27.06.27.05.3.06.3.05.32.05.34.05.35.05.36.05.38.04.39.05.4.05.42.04.44.04.44.05.47.04.47.04.49.04.51.04.51.04.53.04.54.04.54.03.56.04.57.03.58.04.58.03.59.03.6.03.61.03.61.03.62.03.62.02.62.03.63.02.63.02.64.02.63.02.64.02.63.01.64.01.63.02h.64l.63.01.63.01h1.87l.62-.01h.61l.61-.01.6-.01.59-.02.59-.01.59-.02.57-.02.57-.03.56-.02.55-.03.54-.03.48-.02.46-.02.46-.02.45-.02.44-.02.43-.03.43-.02.41-.03.4-.03.39-.02.37-.03.37-.03.35-.03.34-.03.32-.03"/></clipPath><clipPath id="b"><path d="m-22.09.16.27-.1.29-.11.29-.11.32-.12.32-.11.34-.11.35-.11.36-.11.37-.11.38-.11.39-.11.4-.11.41-.1.42-.1.42-.1.48-.14.49-.14.5-.13.51-.12.52-.12.53-.12.54-.1.55-.1.56-.09.57-.08.58-.08.58-.06.6-.06.6-.05.61-.04.61-.04.62-.02.63-.02.63-.01.64-.01.64.01.65.01.65.02.65.02.65.03.66.04.65.05.66.05.66.05.65.06.66.06.65.07.65.08.64.07.64.08.64.09.63.08.62.09.62.09.61.09.6.1.6.09.58.1.58.09.56.1.55.1.55.09.53.1.52.09.5.1.5.09.49.1.47.09.47.09.46.09.44.09.44.09.42.09.41.09.4.09.39.08.38.09.36.08.36.08-1.94.58-.03.07-.04.07-.07.07-.08.07-.11.06-.12.07-.14.06-.16.07-.17.06-.2.06-.22.06-.23.06-.26.05-.27.06-.29.06-.31.05-.33.05-.35.06-.37.05-.39.05-.41.05-.43.05-.45.04-.47.05-.49.05-.5.04-.53.05-.54.04-.56.04-.58.04-.59.04-.61.04-.62.04-.64.03-.65.03-.66.04-.68.03-.68.03-.69.03-.7.02-.71.03-.71.02-.72.02-.72.01-.73.02-.72.01-.73.01-.73.01-.72.01h-2.85l-.7-.01-.69-.01-.68-.02-.67-.01-.65-.02-.65-.02-.63-.03-.61-.03-.6-.03-.59-.03-.57-.04-.52-.02-.51-.02-.5-.03-.49-.02-.48-.03-.46-.03-.45-.03-.44-.03-.43-.03-.4-.03-.4-.03-.38-.04-.36-.03-.34-.03-.33-.04"/></clipPath><filter id="a"><feTurbulence baseFrequency=".05" numOctaves="3" result="noise" type="noise"/><feDisplacementMap in="SourceGraphic" in2="noise" scale="2"/></filter></defs><rect width="100%" height="100%" x="-100" y="-100" fill="#FFFDD0"/><path fill="#C04000" stroke="#000" stroke-linejoin="round" stroke-width="1.667" d="m55.69 1.18.11.32-.16-.22-.15 3.67.07-1.48-.18 2.85v.81l.01.87-.2 1.6-.16 2.37.08-1.11-.26 1.88-.02 1.15-.26 1.51-.06.52-.69 2.98.31-1.28-.23 1.07-.37 1.76-.46 2.13.09-.31-.33.76-.54 2.51-.25.66-.36 1.11-.34.97-.27 1.44-.68 1.31-.64 1.85.67-1.3-1.08 2.45-.23.45-.31.7-.1.65-.29.68-.83 1.72-.45 1.34-.29.58-1.12 1.82-.31.81-.83 1.55-.01-.11-.16.18-.55 1.16-.68 1.24.03-.07-.85 1.14-.66 1.02-.69.73-1.69 2.92-.04-.03-1.47 1.51.88-.94-.55.7-.89 1.16-1.3 1.66-.89.95-.58.45-.75.78-.21.47-1.44 1.14.27-.15-.8.49-1.2 1.32.62-.6-1.47 1.28-1.33.93-1.15.9.05-.06-1.43 1.26.22-.42-1.67 1.01.14-.14-1.6 1.24-.24.35-.13-.01-2.02 1.01-.96.44-1.22.49.48-.16-1.78.88.13-.07-1.6.7-1.68.44.76-.14-1.07.4-.58.01-2.59 1 .63-.24-1.28.34-1.12.08-.03.07-1.15.1-.32.05-3.18.55.65.08-.59-.08-.22.16-2.19.07L2 74l-3.26-.31.32.04-.89.02.32.19-2.54-.11.68-.18-2.59-.15.06-.2-1.97-.16-.25-.22-.19.12-1.4-.27-2.42-.58.84.15-.69-.24-2.36-.76-.41.04.39.08-1.25-.4-1.2-.63-.36-.08-.91-.26-.33-.62-1.7-.67-.92-.3.48.01-1.39-.75-.85-.34-.24-.15-.88-.41-.8-.48-1.37-1.12-1.64-1.2-.16.03.32-.06-.99-.53-.79-.84-.55-.19-1.86-1.92-.95-.78.66.63-1.56-1.33.34.36-1.58-1.6-1.15-1.5.23.3-1.84-2.02.07.06-.33-.19-.76-.98-.29-.43-.43-.75-1.58-1.93-.18-.73-.32.15-1.12-2.07-.69-.76-.28-.92-.26-.14.02-.37-1.75-2.88-.07.15-.35-.7-.94-2.17-.21-.44-.52-1.35-.31-.49-.09.16-.76-2.16-1.29-2.54.47.44-.7-1.89v.59l-.3-1.24-.34-.79-.35-1.35-.16-.76-.51-1.47-.29-1.19-.87-2.43.21.02-.55-2.28.03.34-.54-1.88-.04-.64-.17-1.6-.37-2.38.06 1.26-.52-2.86.11-.06-.41-2.09-.13-1.15.22-.47-.06-.55-.24-2.6-.07.51-.18-2.31.17-.56-.09-1.55-.12-.14.1-2.66.01.14-.03-2.19.05-.77.03-1.15.17-1.48.04-2.03.09-.85-.03-.2.16-.96.17-2.45.17-.08.01-.41.14-1.53.11-.56.19-1.79.45-1.33.2-1.45.29-.98-.08.23.75-3.6.15-.28.63-1.88-.22.49.61-1.98.13-.97.45-.8.59-2.28-.2 1.29.48-2.18.17-.16.74-1.73.47-1.35.47-.79.42-.79.36-1.02.76-1.83-.21.75.99-2.04.72-1.4-.54.88 1.16-1.97.81-1.36.38-.59.79-1.46.3-.35.67-.9.23-.56 1.72-2.2.47-.74-.05-.07.37-.53-.16.07 1.09-1.08 1.8-2.23.17-.21.65-.94 1.61-1.64.41-.04.63-.76-.44.35 1.23-1.46.88-.29 1.43-1.35.38-.25.27-.32.61-.48 1.28-.83-.55.25 2.28-1.66h.08l1.43-.95.58-.28.22-.32 1.7-.8-.55.1 1.19-.55 1.53-.84.75-.36.02-.05.9-.34.68-.06.13-.13 1.64-.8.04.14 2.61-1.11.74-.32.94.06.99-.5.71.11 1.51-.52 1.1-.08-.34.15 2.07-.52.29.14 1.77-.04-.98-.02 1.36-.14 1.56-.14 1.6.08.73-.1-.21.04.66.18-.01-.24 2.87.44 1.1.12v-.12l.13.14 1.55.25 1.23.12h.3l1.14.62 1.27.19-.05.12 2.29.52-.08-.13.41.38.21-.14 1.58.61v.14l.85.35 2.46.95 1.45.75.45.52-.09-.32 1.39.98.1-.09 1.48.98 1.02.74.16.01 1.64 1.06-.69-.3 1.17.74 1.31.95.38.41 1.08 1 .86.58-.21-.09 1.47 1.29.56.76 1.31.96.54.67-.22-.14.81.66 1.44 1.77.49.66.35.1.26.56 1.05 1.32.42.67.05-.11.81 1.27 1.13 1.45.11-.14 1.3 2.61.14-.11.3.64 1.78 2.86-.5-.76.84 1.54.1.21.16.4 1.29 2.05-.25-.08 1.15 2.21.39.91-.09.13 1.18 2.68.13.29-.01-.2.89 2.5.32 1.18.01-.88.43 2.3.5 1.22-.25-1.05 1.18 3.8-.36-.65.65 1.84-.09-.46.75 3.86.12.62.18-.21.29 2.44-.18-.87.41 2.26.36 1.26.07.78.37 1.46.06 1.8.32 1.43.02 1.18-.08-.47.06 1.19.02 1.13.07 1.38.35 1.74-.08.07.08 2.12-.07 2.53.11.32" filter="url(#a)"/><path fill="#fff" d="m-22.09.16.27-.1.29-.11.29-.11.32-.12.32-.11.34-.11.35-.11.36-.11.37-.11.38-.11.39-.11.4-.11.41-.1.42-.1.42-.1.48-.14.49-.14.5-.13.51-.12.52-.12.53-.12.54-.1.55-.1.56-.09.57-.08.58-.08.58-.06.6-.06.6-.05.61-.04.61-.04.62-.02.63-.02.63-.01.64-.01.64.01.65.01.65.02.65.02.65.03.66.04.65.05.66.05.66.05.65.06.66.06.65.07.65.08.64.07.64.08.64.09.63.08.62.09.62.09.61.09.6.1.6.09.58.1.58.09.56.1.55.1.55.09.53.1.52.09.5.1.5.09.49.1.47.09.47.09.46.09.44.09.44.09.42.09.41.09.4.09.39.08.38.09.36.08.36.08-1.94.58-.03.07-.04.07-.07.07-.08.07-.11.06-.12.07-.14.06-.16.07-.17.06-.2.06-.22.06-.23.06-.26.05-.27.06-.29.06-.31.05-.33.05-.35.06-.37.05-.39.05-.41.05-.43.05-.45.04-.47.05-.49.05-.5.04-.53.05-.54.04-.56.04-.58.04-.59.04-.61.04-.62.04-.64.03-.65.03-.66.04-.68.03-.68.03-.69.03-.7.02-.71.03-.71.02-.72.02-.72.01-.73.02-.72.01-.73.01-.73.01-.72.01h-2.85l-.7-.01-.69-.01-.68-.02-.67-.01-.65-.02-.65-.02-.63-.03-.61-.03-.6-.03-.59-.03-.57-.04-.52-.02-.51-.02-.5-.03-.49-.02-.48-.03-.46-.03-.45-.03-.44-.03-.43-.03-.4-.03-.4-.03-.38-.04-.36-.03-.34-.03-.33-.04" filter="url(#a)" transform="translate(21.74 -21.58)"/><path fill="#fff" d="m21.6.34-.22-.09-.24-.1-.26-.11-.27-.1-.28-.1-.3-.11-.31-.1-.33-.11-.34-.1-.35-.1-.37-.11-.38-.1-.4-.09-.41-.1-.41-.1-.44-.13-.45-.13-.47-.12-.49-.12-.51-.11-.53-.11-.54-.11-.56-.09-.58-.1-.6-.08-.61-.08-.62-.07-.64-.06-.65-.06-.66-.05-.68-.04-.68-.04-.7-.02-.7-.03-.71-.01-.71-.01h-.72l-.72.01-.73.01-.73.02-.73.02-.73.04-.73.03-.73.04-.72.05-.72.05-.71.06-.71.06-.7.07-.7.07-.68.07-.68.07-.66.08-.66.08-.64.09-.63.08-.62.09-.61.09-.59.09-.58.09-.56.09-.55.09-.54.09-.51.09-.51.09-.49.09-.48.09-.46.09-.45.09-.44.09-.42.09-.42.09-.39.08-.39.09-.36.09-.36.08-.34.08-.33.09-.31.08 1.92.78.19.06.2.06.22.06.23.06.25.05.27.06.27.05.3.06.3.05.32.05.34.05.35.05.36.05.38.04.39.05.4.05.42.04.44.04.44.05.47.04.47.04.49.04.51.04.51.04.53.04.54.04.54.03.56.04.57.03.58.04.58.03.59.03.6.03.61.03.61.03.62.03.62.02.62.03.63.02.63.02.64.02.63.02.64.02.63.01.64.01.63.02h.64l.63.01.63.01h1.87l.62-.01h.61l.61-.01.6-.01.59-.02.59-.01.59-.02.57-.02.57-.03.56-.02.55-.03.54-.03.48-.02.46-.02.46-.02.45-.02.44-.02.43-.03.43-.02.41-.03.4-.03.39-.02.37-.03.37-.03.35-.03.34-.03.32-.03" filter="url(#a)" transform="translate(-21.64 -21.03)"/><g fill="none" stroke="#000" transform="translate(21.74 -21.58)"><path stroke-linejoin="round" stroke-width="1.667" d="m-23.91 1 .1-.06.12-.06.14-.07.16-.08.17-.08.19-.09.21-.09.23-.1.24-.1.26-.11.27-.1.29-.11.29-.11.32-.12.32-.11.34-.11.35-.11.36-.11.37-.11.38-.11.39-.11.4-.11.41-.1.42-.1.42-.1.48-.14.49-.14.5-.13.51-.12.52-.12.53-.12.54-.1.55-.1.56-.09.57-.08.58-.08.58-.06.6-.06.6-.05.61-.04.61-.04.62-.02.63-.02.63-.01.64-.01.64.01.65.01.65.02.65.02.65.03.66.04.65.05.66.05.66.05.65.06.66.06.65.07.65.08.64.07.64.08.64.09.63.08.62.09.62.09.61.09.6.1.6.09.58.1.58.09.56.1.55.1.55.09.53.1.52.09.5.1.5.09.49.1.47.09.47.09.46.09.44.09.44.09.42.09.41.09.4.09.39.08.38.09.36.08.36.08.34.08.33.08.32.07.3.08.3.07.28.07.27.08.26.06.25.07.24.07" filter="url(#a)"/><path stroke-linejoin="round" stroke-width="2.222" d="m-23.6 2.05.12.02.15.03.17.03.19.04.21.03.23.03.26.04.27.03.29.04.31.03.33.04.34.03.36.03.38.04.4.03.4.03.43.03.44.03.45.03.46.03.48.03.49.02.5.03.51.02.52.02.57.04.59.03.6.03.61.03.63.03.65.02.65.02.67.01.68.02.69.01.7.01h2.85l.72-.01.73-.01.73-.01.72-.01.73-.02.72-.01.72-.02.71-.02.71-.03.7-.02.69-.03.68-.03.68-.03.66-.04.65-.03.64-.03.62-.04.61-.04.59-.04.58-.04.56-.04.54-.04.53-.05.5-.04.49-.05.47-.05.45-.04.43-.05.41-.05.39-.05.37-.05.35-.06.33-.05.31-.05.29-.06.27-.06.26-.05.23-.06.22-.06.2-.06.17-.06.16-.07.14-.06.12-.07.11-.06.08-.07.07-.07.04-.07.03-.07.01-.08V.78L17.07.7l-.04-.08-.06-.07-.07-.08-.1-.08-.1-.09-.13-.08-.14-.08" filter="url(#a)"/><circle cx="-9.158" cy="-.86" r="3.744" clip-path="url(#b)" filter="url(#a)"/><circle cx="-6.158" cy="1.675" r="4.316" clip-path="url(#b)" filter="url(#a)"/><circle cx="-6.048" cy="1.675" r="3.386" clip-path="url(#b)" filter="url(#a)"/><circle cx="-10.238" cy="2.02" r="4.024" clip-path="url(#b)" filter="url(#a)"/><circle cx="-7.218" cy="-.955" r="3.88" clip-path="url(#b)" filter="url(#a)"/><circle cx="-9.448" cy="2.71" r="3.668" clip-path="url(#b)" filter="url(#a)"/><circle cx="-8.323" cy=".62" r="3.696" clip-path="url(#b)" filter="url(#a)"/><circle cx="-10.163" cy="3.085" r="3.462" clip-path="url(#b)" filter="url(#a)"/><circle cx="-8.103" cy="2.4" r="3.212" clip-path="url(#b)" filter="url(#a)"/><circle cx="-5.863" cy="-.14" r="4.718" clip-path="url(#b)" filter="url(#a)"/></g><g fill="none" stroke="#000" transform="translate(-21.64 -21.03)"><path stroke-linejoin="round" stroke-width="2.222" d="m22.96 1.1-.06-.05-.08-.05-.1-.07-.11-.07-.13-.07-.14-.08-.17-.09L22 .53l-.19-.09-.21-.1-.22-.09-.24-.1-.26-.11-.27-.1-.28-.1-.3-.11-.31-.1-.33-.11-.34-.1-.35-.1-.37-.11-.38-.1-.4-.09-.41-.1-.41-.1-.44-.13-.45-.13-.47-.12-.49-.12-.51-.11-.53-.11-.54-.11-.56-.09-.58-.1-.6-.08-.61-.08-.62-.07-.64-.06-.65-.06-.66-.05-.68-.04-.68-.04-.7-.02-.7-.03-.71-.01-.71-.01h-.72l-.72.01-.73.01-.73.02-.73.02-.73.04-.73.03-.73.04-.72.05-.72.05-.71.06-.71.06-.7.07-.7.07-.68.07-.68.07-.66.08-.66.08-.64.09-.63.08-.62.09-.61.09-.59.09-.58.09-.56.09-.55.09-.54.09-.51.09-.51.09-.49.09-.48.09-.46.09-.45.09-.44.09-.42.09-.42.09-.39.08-.39.09-.36.09-.36.08-.34.08-.33.09-.31.08-.3.08-.29.08-.27.07-.26.08-.25.07-.23.07-.22.08-.21.06-.2.07-.18.07" filter="url(#a)"/><path stroke-linejoin="round" stroke-width="2.222" d="m22.24 1.96-.13.03-.15.02-.18.03-.19.03-.22.03-.23.03-.26.04-.27.03-.29.03-.31.03-.32.03-.34.03-.35.03-.37.03-.37.03-.39.02-.4.03-.41.03-.43.02-.43.03-.44.02-.45.02-.46.02-.46.02-.48.02-.54.03-.55.03-.56.02-.57.03-.57.02-.59.02-.59.01-.59.02-.6.01-.61.01h-.61l-.62.01H5.04l-.63-.01-.63-.01h-.64l-.63-.02-.64-.01-.63-.01-.64-.02-.63-.02-.64-.02-.63-.02-.63-.02-.62-.03-.62-.02-.62-.03-.61-.03-.61-.03-.6-.03-.59-.03-.58-.03-.58-.04-.57-.03-.56-.04-.54-.03-.54-.04-.53-.04-.51-.04-.51-.04-.49-.04-.47-.04-.47-.04-.44-.05-.44-.04-.42-.04-.4-.05-.39-.05-.38-.04-.36-.05-.35-.05-.34-.05-.32-.05-.3-.05-.3-.06-.27-.05-.27-.06-.25-.05-.23-.06-.22-.06-.2-.06-.19-.06-.17-.06-.16-.06-.14-.07-.13-.06-.12-.07-.09-.06-.09-.07-.07-.07-.06-.07-.04-.07" filter="url(#a)"/><circle cx="-19.128" cy="-1.205" r="4.682" clip-path="url(#c)" filter="url(#a)"/><circle cx="-16.793" cy="-1.5" r="3.138" clip-path="url(#c)" filter="url(#a)"/><circle cx="-17.383" cy="-.84" r="4.924" clip-path="url(#c)" filter="url(#a)"/><circle cx="-18.598" cy="-.865" r="4.808" clip-path="url(#c)" filter="url(#a)"/><circle cx="-19.263" cy="1.545" r="4.482" clip-path="url(#c)" filter="url(#a)"/><circle cx="-18.688" cy="-.625" r="4.53" clip-path="url(#c)" filter="url(#a)"/><circle cx="-17.643" cy="-.35" r="3.38" clip-path="url(#c)" filter="url(#a)"/><circle cx="-18.713" cy="-.415" r="4.034" clip-path="url(#c)" filter="url(#a)"/><circle cx="-18.368" cy="1.725" r="3.926" clip-path="url(#c)" filter="url(#a)"/><circle cx="-18.203" cy="1.605" r="4.282" clip-path="url(#c)" filter="url(#a)"/></g><g fill="none" stroke="#800020" stroke-linejoin="round" stroke-width="2"><path d="m-10.77-72.33.89-.32.89-.2.82-.15.65-.1.45-.03.25.04v.12l-.25.18-.53.25-.79.31-1.09.4-1.47.51-1.99.66-2.6.84-3.02.94M44.4-44.46l.45.99.03.53-.21.4-.47.33-.77.21-1.11.04-1.48-.18-1.88-.42-2.29-.69-2.7-.96-3.15-1.23-3.61-1.5-4.08-1.77-4.59-2.04-5.07-2.32-5.54-2.62-5.99-2.95-6.43-3.29-6.86-3.68" filter="url(#a)"/><path d="m-31.98-60.79 1.02-.57 1.07-.73 1.04-.69 1.07-.68 1.17-.71 1.26-.74 1.35-.79 1.39-.8 1.39-.79 1.32-.75 1.22-.69 1.07-.62.94-.54.78-.47.64-.39.45-.29.17-.13-.24.06" filter="url(#a)"/><path d="m-23.89-66.67.62-.3.86-.36 1.08-.37 1.26-.37 1.43-.36 1.54-.34 1.62-.3 1.66-.27 1.7-.23 1.77-.22 1.82-.23 1.87-.25 1.87-.27 1.84-.29 1.78-.28 1.7-.25 1.65-.22 1.61-.17 1.55-.13 1.45-.11 1.28-.09 1.02-.09.79-.11" filter="url(#a)"/><path d="m-18.45-69.77.89-.19 1.06-.04 1.36.01 1.68.06 1.96.14 2.16.24 2.3.35 2.43.45 2.55.54 2.67.62 2.77.67 2.84.72 2.9.78 2.95.82 2.97.88 2.98.92 2.97.95 2.95.95 2.89.94 2.78.82 2.55.63" filter="url(#a)"/><path d="m26.21-65.04 1.06.72.81.66.57.56.35.47.18.4v.33l-.17.28-.37.21-.61.12-.87.02-1.14-.09-1.4-.18-1.69-.3-1.99-.4-2.32-.53-2.68-.66-3.04-.79-3.42-.92-3.8-1.05-4.15-1.19-4.47-1.35-4.72-1.54" filter="url(#a)"/><path d="m19.3-69.37 1.07.62.77.5.77.5.87.58.97.65 1.01.68.99.67.92.65.83.58.73.53.62.45.51.37.37.27.2.14-.01-.02-.26-.21-.52-.41-.78-.61-.9-.72M-15.1-71.1l.92-.06 1.76-.01 2.1.25 2.46.53 2.84.73 3.22.91 3.55 1.05 3.83 1.17 4.06 1.31 4.24 1.45 4.42 1.56 4.56 1.65 4.66 1.72 4.74 1.85m10.56 9.79.56 1.01.53.95.26.56.04.25-.14.03-.3-.18-.49-.37-.71-.63-.98-.95-1.3-1.34-1.65-1.78-2.01-2.26-2.36-2.76-2.7-3.25-3.09-3.74" filter="url(#a)"/><path d="m32.27-60.16.66.72.56.59.32.43.14.34v.29l-.16.23-.38.11-.62-.03-.9-.18-1.17-.34-1.47-.49-1.74-.63-2.02-.78-2.31-.94-2.65-1.12-3.07-1.31-3.53-1.53-3.99-1.76-4.34-2.03-4.63-2.32" filter="url(#a)"/><path d="m31.01-61.36.29.33.72.7.76.73.66.64.53.54.42.46.34.41.24.34.12.25-.02.13h-.19l-.36-.15-.54-.29-.72-.44-.91-.58-1.1-.75-1.37-.94-1.68-1.18-2.07-1.47-2.46-1.77-2.76-2.03-2.97-2.31m-1.95-2.07.19.25.41.51.18.64-.42.66-1.12.64-1.81.63-2.44.66-3.04.74-3.66.82-4.38.91-5.16 1.01-5.98 1.07-6.73 1.1-7.35 1.08" filter="url(#a)"/><path d="m14.41-71.42 1.02.44.69.36.69.39.58.41.27.34-.14.24-.55.13-.92.06h-1.28l-1.65-.06-2.08-.13-2.57-.22-3.11-.32-3.66-.43-4.19-.52-4.71-.62" filter="url(#a)"/><path d="m-15.06-70.96 1.79-.69 1.21-.27 1.21-.1 1.38-.02 1.55.03 1.68.06 1.77.1 1.82.14 1.85.17 1.86.21 1.85.22 1.85.23 1.84.24 1.83.25 1.79.25 1.72.24 1.58.22 1.42.2 1.27.17 1.17.16 1.16.18 1.16.22" filter="url(#a)"/><path d="m6.14-73.35 1.3.19.99.17.8.2.71.21.62.21.47.18.3.16.09.12-.11.11-.29.11-.43.11-.6.13-.78.14-1.01.13-1.33.1-1.71.06-2.12-.01-2.52-.07-2.89-.12-3.18-.18-3.41-.25m-18.72 7.59 1.55-1.11.99-.66.79-.51.67-.43.59-.35.51-.3.44-.23.36-.15.25-.06.09.06-.07.19-.25.33-.41.45-.58.57-.75.72-.97.88-1.23 1.11-1.55 1.36-1.9 1.65-2.25 1.92-2.52 2.09-2.64 2.1" filter="url(#a)"/><path d="m6.01-73.37.11-.02.39.1.51.15.42.19.24.24.01.27-.25.29-.55.3-.86.3-1.21.29-1.55.31-1.9.33-2.26.39-2.63.46-3.03.53-3.43.58-3.9.59-4.47.59" filter="url(#a)"/><path d="m2.04-73.93 2.14.34 1.34.27 1.09.29 1.14.37 1.28.45 1.39.51 1.47.57 1.49.61 1.48.62 1.45.62 1.38.59 1.29.55 1.19.52 1.1.48 1.04.45.95.41.85.35.71.27.52.17.31.08.09-.03m-11.95-6.22.45.27.68.27.87.36 1.02.46 1.12.51 1.14.54 1.01.49.83.41.61.32.42.23.24.14.04.05-.23-.08-.57-.25-.93-.43-1.24-.59-1.49-.71-1.71-.81" filter="url(#a)"/><path d="m2.05-73.69.71-.03 1.04.15.68.16.29.2.02.23-.19.3-.42.37-.67.44-.98.51-1.32.58-1.72.66-2.15.72-2.6.8-3.06.88-3.49.96-3.9 1.04-4.29 1.09-4.65 1.11m59.33 5.75-.1.18-.2.61-.65.7-1.3.63-1.99.51-2.68.46-3.38.44-4.1.45-4.84.49-5.6.52-6.37.54-7.13.49-7.86.33-8.6.1-9.37-.1" filter="url(#a)"/><path d="m43.12-46.56.91 1.66.07.69-.34.44-.64.35-.92.33-1.22.3-1.57.25-1.93.17-2.32.04-2.73-.12-3.14-.28-3.57-.46-4.02-.63-4.48-.78-4.95-.95-5.42-1.11-5.86-1.3-6.31-1.49-6.78-1.65-7.35-1.74-8.04-1.71m8.27-14.81.65-.24.79-.12 1.05-.07 1.3-.07 1.54-.07 1.77-.08 1.93-.06 2.06-.04 2.13.01 2.17.06 2.21.1 2.24.13 2.24.15 2.24.16 2.21.18 2.16.19 2.1.21 2.01.21 1.86.18 1.7.14 1.53.09 1.4.04" filter="url(#a)"/><path d="m-15.1-71.1.67-.18.95-.35.78-.26.63-.15.55-.07h.46l.37.07.23.14.06.23-.12.33-.34.44-.56.55-.77.66-1 .77-1.22.9-1.47 1.03-1.76 1.21-2.12 1.4-2.51 1.63-2.9 1.87-3.23 2.08-3.47 2.2-3.62 2.16m14.74-14.08 1.1-.59.6-.29.32-.08.13.05-.03.19-.22.31-.41.44-.66.62-.98.82-1.4 1.11-1.91 1.44-2.46 1.85-3.02 2.28-3.65 2.77m23.56-15.23.99-.03 1.27-.06 1.36.01 1.46.09 1.57.15 1.67.2 1.73.24 1.81.26 1.86.28 1.91.3 1.9.31 1.84.33 1.73.33 1.63.32 1.53.29 1.45.26 1.34.24 1.22.24 1.14.26" filter="url(#a)"/><path d="m-3.65-73.61 1.3-.11 1.16-.04.79.03.41.07.11.14-.07.21-.22.27-.39.34-.65.41-.97.48-1.32.55-1.68.65-2.06.75-2.47.88-2.93 1.01-3.38 1.12-3.83 1.2-4.32 1.28M41.38-49.7l.67 1.62-.06.86-.55.66-1.06.51-1.61.32-2.2.13-2.76-.02-3.32-.11-3.89-.2-4.46-.31-5.06-.43-5.72-.58-6.41-.73-7.16-.85-7.92-.97-8.74-1.03-9.66-.96" filter="url(#a)"/><path d="m-17.55-70.11.72-.08 1.11-.13 1.53-.14 1.86-.09 2.07-.02 2.24.09 2.35.19 2.48.26 2.6.31 2.68.35 2.75.38 2.77.41 2.75.42 2.71.42 2.64.41 2.55.41 2.49.44 2.46.46" filter="url(#a)"/><path d="m-9.07-72.72 1.2-.33.82-.15.68-.06.59-.03.49.03.36.08.23.14.12.19-.04.26-.23.34-.45.43-.69.51-.91.61-1.14.7-1.37.8-1.63.92-1.94 1.03-2.25 1.13-2.55 1.23-2.83 1.32-3.15 1.44-3.6 1.63-4.14 1.96m55.58-8.01.68.5.36.32.08.24-.18.18-.45.13-.76.08-1.1-.02-1.52-.14-1.99-.31-2.49-.46-3.01-.61-3.56-.77-4.18-.94-4.88-1.16-5.6-1.37" filter="url(#a)"/><path d="m10.36-72.36 1.03.27 1.1.46 1.22.61 1.26.73 1.33.85 1.46.99 1.62 1.11 1.77 1.21 1.89 1.29 1.93 1.31 1.89 1.3 1.78 1.24 1.62 1.15 1.49 1.09 1.39 1.02 1.32.98 1.2.86.99.65m9.89 14.9.71 1.5.17.74-.17.3-.48-.08-.81-.49-1.19-.95-1.61-1.41-2.09-1.92-2.58-2.47-3.07-3.01-3.52-3.56-3.96-4.1-4.37-4.66-4.72-5.25" filter="url(#a)"/><path d="m30.15-61.94.57.42.5.46.54.54.48.5.32.39.1.22-.13.07-.37-.08-.63-.25-.93-.45-1.24-.66-1.53-.89L26-62.78l-2.11-1.34-2.45-1.58-2.87-1.84-3.37-2.14" filter="url(#a)"/><path d="m15.99-70.67 1.29.56 1.55.75 1.35.75 1.14.71 1.04.69 1.03.72 1.06.75 1.08.78 1.06.78 1.02.76.98.73.91.7.85.66.77.6.69.54.56.43.43.33.29.21.13.08-.05-.08-.29-.28-.56-.55-.77-.74m9.83 11.09.9 1.72.66 1.12.64 1.08.61 1.03.51.91.42.73.32.59.25.46.17.34.06.15-.09-.11-.3-.48-.55-.92-.81-1.39-1.1-1.98m-2.93-4.56.69.96.25.7-.1.55-.43.35-.8.14-1.19-.12-1.62-.4-2.08-.69-2.55-.95-3.01-1.2-3.49-1.43-3.99-1.66-4.53-1.94-5.09-2.25-5.64-2.6-6.22-2.94-6.98-3.22m-10.1-2.59 1.19-.52.95-.36.8-.26.62-.14.45-.02.3.1.17.21.01.34-.19.47-.41.62-.66.78-.91.94-1.15 1.09-1.41 1.23-1.66 1.39-1.94 1.58-2.25 1.8-2.59 2.05-2.97 2.29-3.36 2.49-3.73 2.7-4.06 2.95" filter="url(#a)"/><path d="m45.24-42.92.19.39.42.77.5.97.5 1.02.44.95.37.84.28.66.17.46.06.24-.06-.02-.19-.28-.35-.6-.54-.97-.75-1.38-.96-1.81-1.17-2.26-1.4-2.74m-6.04-8.8.39.46.3.38.24.41.13.37.01.28-.13.2-.28.11h-.43l-.63-.12-.85-.28-1.13-.47-1.43-.71-1.75-.98-2.1-1.25-2.46-1.54-2.82-1.83-3.16-2.09-3.46-2.33-3.71-2.58-3.97-2.84m17.43 5.55-.04.08.63.49.81.63.76.61.63.53.48.43.33.31.16.19-.02.04-.27-.14-.57-.38-.92-.65-1.29-.94-1.67-1.22-2.07-1.54" filter="url(#a)"/><path d="M41.38-49.7 21.39-63.01 5.83-67.34l-10.34-.61-4.62 1.22.08 2.31 3.13 2.66 4.42 2.18 4.45 1.05 4.03-.21 3.78-.93 3.82-.67 3.85.42 3.43 1.72 2.35 2.41.72 2.03-1.2.62-3.44-1.37-6.16-3.26-8.36-3.98-5.71-2.11 8.63 3.85 36.81 17.7" filter="url(#a)"/><path d="M39.28-52.17 17.44-65.48l-4.72-3.97-1.97.1-4.38 2.15-6.92 2.71-6.87 2.25-4.19 1.6-.37 1.46 2.93 1.71 4.78 1.72 5.14 1 4.8-.23 4.77-1.23 5.15-1.54 4.36-1.34.11-1.36-7.59-2.17-12.53-3.95 4.97-6.92" filter="url(#a)"/><path d="M37.2-54.82 2.19-60.44l-16.05 2.25 1.56.69 9.03-.26 7.95-.21 3.36-.47-.19-1.06-.73-1.32.78-.85 1.95.06 1.41.8.01 1.02.07.87 2.45.78 4.23.67-.15-1.05-12.09-6.3-16.55-7.51" filter="url(#a)"/><path d="m-31.98-60.79 44.62 6.08 18.7 5.76 5.96 1.54.71-1.04-1.01-1.6-1.9-1.19-3.35-.99-5.13-1.49-6-2.14-5-2.16-2.53-1.33-.45-.1-.61.67-2.84.64-3.56.54 2.83 1.65 15.59 2.98 10.41-4.94" filter="url(#a)"/><path d="m-39.29-52.25 40.51-3.98 15.73.98-1.63-3.3-6.33-4.6-3.76-3.62-.29-2.3.99-1.42.09-.95-1.58-.65-2.67-.29-2.49.18-1.17.79-.05 1.5-2.12 2.11-10.46 2.76-18.88 6.12" filter="url(#a)"/><path d="m-12.45-72.07 3.97 1.43 5.35 3.38 5.48 2.34 4.32 1.47 3.18 1.01 2.27.46 1.86-.04 1.94-.12 2.06.15 1.54.25.24-.28-1.5-1.22-3.05-1.89-3.99-1.61-4.12-.34-3.43 1.35-2.44 2.31-.31.77 21.68-4.88" filter="url(#a)"/><path d="m-2.29-73.75 6.97 3.93-5.33.25-4.24.33-3.36 1.75-2.33 3.18-.1 3.81 1.85 3.11 2.14 1.09 1.53-1.44 2.19-3.27 4.34-3.62 4.82-2.84-.3-1.95L-4.2-70.5l-16.55 1.98" filter="url(#a)"/><path d="m-19.22-69.36 35.11 9 12.18 4.26.01.71-7.04-.9-9.43-1.13L4.67-58l-1.84-.1 2.34-.08 3.59-.27 2.49-.24.52-.09-1.54-.63-2.97-2.28-1.31-3.69 4.36-3.11-1.39-4.49" filter="url(#a)"/><path d="m24.08-66.55-1.36 2.81-5.28 4.06-2.96 2.5.69 1.15 2.2.27 1.96-.34.83-.71-.78-.85-2.4-.77-3.3-.55-2.85-.21L9.6-59l.57.58 1.41.81.77.82-.63.69-1.6.6-1.65.62-2.28.45L.58-55l-9.69-2.86-4.01-6.08L7.69-73.1" filter="url(#a)"/><path d="m44.9-43.7 1.71 4.56-.82-.96-2.07-2.38-4.43-3.67-7.54-4.73-9.97-5.02-10.33-4.27-8.26-2.77-4.32-1.19.39-.03 4.33.73 5.83 1.33 3.53 1.72-2.33 1.47-8.48.74-7.79 1.27 9.31 6.74L52.01-25.9" filter="url(#a)"/><path d="M52.37-25.25 13.89-52.18l-16.24-8.38-2.99-2.17 1.08.88 1.55 1.64 1.69.96 2.52.2 3.76.21 4.51.94 4.06 1.75 2.26 1.96-.37 1.23-2.86-.24-3.92-1.61-2.71-1.97-.24-1.28.3-.99-4.44-2.45-13.67-2.11-26.22 9.75" filter="url(#a)"/><path d="m41.38-49.7-10.02 5.41-9.92-3.21-1.16-3.87 1.97-3.11 1.04-1.74-2.07-.34-5.83.5-8.23.46-7.62-.37-4.26-1.55-.72-2.37.08-2.3-2.6-1.31-6.04.04-5.8.44 2.24-2.38 19.61-8.29" filter="url(#a)"/><path d="m-25.4-65.72 15.77 4.73 22.58 5.49 11.8 4.33-.41 1.87-8.35-1.17-10.55-3.47-8.35-4.21-4.18-3.3.08-1.29 3.6 1.14 5.92 3.25 6.36 4.43 4.25 4.23.15 2.67-3.44.36-3.37-1.7 1.56-3.04 8.39-5.26-.42-14.15" filter="url(#a)"/><path d="m11.63-72.17-14.04 1.31-.84 6.75 8.88 9.38 11.13 6.64 6.95 1.57 1.77-2.4-.83-3.98-.9-3.89-.15-3.05.4-1.82.63-.49.19.02-1.28-.86-.26-.18 15.58 10.33" filter="url(#a)"/><path d="M30.15-61.94-.67-55.39l8.16 1.75 9.24 1.44 2.23-.49-1.57-2.39-1.73-3.12-1.1-2.7-1.73-1.53-3.58.04-4.8 1.58-2.99 2.6 2.48 2.48 7.93.93 5.53-1.57-11.34-2.88-41.48 2.01" filter="url(#a)"/><path d="M48.08-37.22 9.77-57.08l-3.73-8.05 3.27-2.74 2.57-.42 1.38.71.87 1.14.63 1.03.51.75.74.79 1.31 1.38 1.79 2.42 1.61 3.38.54 3.59-.96 2.67-2.06.74-2.21-1.56-1.77-3.34-1.94-3.92-4.13-3.05-9.17-1.08-16.27.9-14.73.95m15.24-9.51-.94-2.44-.71-.54-.63.11-.68.34-.83.14-1-.21-1.06-.39-1.06-.39-1.03-.31-1.04-.23-1.08-.21-1.15-.23-1.23-.3-1.32-.44-1.4-.64-1.43-.79-1.38-.74-1.22-.45H-37l-1.05.36-1.24.48-1.68.19-2.61-.87m98.15 63.48 3.91.69 1.38 1.19-.19 1.29-.21 1.11.39.94.94.91 1.29.98 1.48 1.12 1.56 1.24 1.46 1.34 1.18 1.42.79 1.44.37 1.44v1.4l-.24 1.37-.34 1.36-.24 1.39.14 1.47.75 1.61 1.35 1.73 1.67 1.78 1.45 1.62.7 1.25-.45 1.42M54.57-14.38l-.05-.95.18-1.24.3-1.22.22-1.09.03-1-.13-1-.21-1.09-.23-1.19-.21-1.22-.18-1.18-.16-1.15-.13-1.15-.07-1.14-.03-.95-.34-.77" filter="url(#a)"/><path d="m-18.45-69.77-.41-.16-.91-.2-1.09-.31-1.11-.48-1.08-.55-.99-.36-.88.02-.82.36-.81.53-.9.46-1.02.18-1.18-.24-1.32-.67-1.41-.94-1.39-.91-1.29-.56-1.18-.06-1.19.26-1.34.16-1.36-.28-.56-.59 13.56 9.8-1.4-.26-.8.26-.79.19-.86.23-.91.32-.88.39-.8.45-.7.55-.64.68-.62.78-.7.84-.82.8-.93.71-1.03.58-1.03.44-.98.34-.87.3-.79.34-.77.43-.88.54-1.02.59-1.11.53-.96.45-.55.45 32.49-5.16-.39-.3-.77-.25-.85-.07-.79.03-.79-.13-.9-.47-1.04-.8-1.14-.92-1.13-.74-1.01-.3-.81.27-.58.8-.42 1.05-.44.86-.71.12-1.14-.85-1.4-1.12-1.31.28" filter="url(#a)"/><path d="m-33.21-59.33.34-2.51.35-2.06.51-1.41.38-1.37.25-1.46.26-1.41.36-1.3.47-1.25.55-1.3.58-1.4.6-1.41.64-1.25.69-.93.72-.69.6-.81.32-1.38.33-2.17" filter="url(#a)"/><path d="m-33.21-59.33.75-1.72.62-1.53.55-1.29.37-1.35.13-1.71-.08-2.19-.17-2.57-.13-2.75.02-2.68.22-2.42.43-1.98.6-1.49.71-1.11.65-1.08.43-1.52.15-2.12.27-2.64m-8.55 35.39-1.93.9-1.38.2-1.03-.13-.94-.21-.86.05-.85.38-.95.52-1.16.39-1.35.2-1.44.11-1.4.17-1.37.29-1.44.31-1.64.14-1.85-.11-1.9-.19-1.59.14-.91.7-.14.2 21.4-.82-.47.18-.54.38-.81.54-.92.64-.97.6-1.05.47-1.17.33-1.27.25-1.3.25-1.26.33-1.19.4-1.15.43-1.24.38-1.45.21h-1.74l-1.95-.13-1.9-.04-1.59.28-1.19.7-1.07.95-1.43.84-2.06.38-2.2-.34" filter="url(#a)"/><path d="m-39.76-51.51-1.13 1.63-.65 1.09-.47.95-.36 1.01-.28 1.15-.23 1.24-.21 1.24-.24 1.18-.24 1.09-.26 1.02-.26.98-.24.97-.2 1.02-.11 1.09-.03 1.16-.02 1.21-.08 1.19-.15 1.15-.13 1.12.09 1.14.41 1.02.54.17 2.53-21.62 1.16-1.61.43-1.09.01-1.07-.09-1.18.07-1.23.37-1.19.64-1.08.79-.98.82-.93.77-.89.66-.88.57-.87.48-.92.43-1.05.45-1.2.49-1.28.53-1.22.48-1.07.37-.88.5-.55-5.32-16.93-.91 1.85-.36 1.84.08 2.46.3 3.05.32 3.17.14 2.8-.11 2.12-.39 1.44-.61.97-.74.8-.75.92-.65 1.19-.49 1.52-.3 1.76-.1 1.9.04 1.86.1 1.69v1.42l-.21 1.16-.44 1.02-.51 1.11-.29 1.37.08 1.52-.01.97 17.47-7.22-.54-.15-.78.08-.92.14-.95.11-.84.12-.75.18-.77.19-.89.14-1.03.07-1.13.1-1.13.19-1.03.35-.88.48-.7.56-.57.56-.54.54-.6.52-.71.59-.76.71-.69.83-.55.75-.71.16-1.98 3.41.67-1.09.6-.9.61-.79.66-.72.7-.71.73-.71.72-.66.69-.59.65-.52.61-.49.63-.52.68-.6.74-.68.79-.75.8-.77.78-.73.75-.61.72-.43.71-.26.73-.16.85-.19 1.02-.38 1.19-.79 81.54 40.33-.14.17.2.99.22 1.19.17 1.24.13 1.26.1 1.21.07 1.13.04 1.04.03.96.02.96.03.98.03 1.06.02 1.13-.02 1.18-.06 1.23-.12 1.23-.16 1.19-.17 1.14-.17 1.09-.16 1.05-.17 1.06-.21 1.08-.21 1.05-.07.89" filter="url(#a)"/><path d="m-46-41.6.38-.83.35-.68.49-.87.56-.97.57-.98.55-.95.54-.93.54-.93.55-.95.53-.93.5-.88.45-.79.42-.72.44-.7.53-.76.65-.88.75-1.01.77-1.07.82-1.14 1.18-1.38" filter="url(#a)"/><path d="m-46.99-39.56.98-1.37.85-.67.75-.51.74-.62.72-.73.68-.79.61-.8.57-.79.61-.74.73-.65.88-.55.91-.52.72-.49.43-.4.48-.07-33.78 29.83 2.75-1.18 1.73-1.19.96-1.21.92-1.09 1.16-1 1.21-1 1.02-1.07.75-1.1.59-1.06.63-.97.78-.86.93-.75 1.02-.63 1.1-.47 1.23-.28 1.44-.14 1.55-.19 1.08-.91M-50.54-.56l.05-.47-.15-.98-.23-1.1-.29-1.16-.32-1.17-.32-1.15-.28-1.08-.19-1.02-.14-.98-.11-.96-.12-.96-.12-.97-.09-.98-.05-1.03.02-1.1.04-1.15.02-1.2-.02-1.21-.05-1.22v-1.3l.1-1.46.15-1.12m103.83-4.72-.23.34-.35-.57-.4-.77-.47-.76-.6-.69-.76-.61-.91-.52-.98-.5-.9-.57-.72-.74-.51-.92-.37-1.02-.38-.99-.51-.8-.71-.53-.86-.29-.92-.16-.9-.17-.85-.38-.8-.74-.82-.61 13.95 12 .29 2.53.4 1.19.32 1.03.18 1.15.09 1.22.06 1.19.05 1.11.07 1.05.1 1.03.15 1.05.19 1.08.21 1.13.19 1.16.14 1.16.07 1.13-.02 1.06-.08.98-.14.92-.16.94-.14 1-.11 1.07-.12 1.09-.17 1.09-.29 1.42-1.96-30.25.78 1.48.26 1.13.21 1.03.28 1.02.36 1 .42 1.01.47 1.04.49 1.06.47 1.05.43.99.37.94.36.91.38.93.45 1 .5 1.06.57 1.08.67 1.16" filter="url(#a)"/><path d="m46.16-12.84.85-1.47 1.15-1.41.84-1.14.36-.97v-.92l-.14-1-.08-1.12.07-1.22.16-1.22.12-1.15-.02-1.08-.02-1.1.27-1.26.61-1.61.18-2.01 20.61 17.14-1.96-1.54-1.85-1.2-1.57-1.1-1.18-1.08-.96-1.01-.99-.87-1.15-.75-1.35-.68-1.5-.66-1.58-.67-1.53-.7-1.33-.72-1.03-.79-.74-.85-.54-.9-.41-.93-.37-1.08-.57-1.61" filter="url(#a)"/><path d="m50.5-30.64-.5-1.28-.65-1.03-.6-.82-.52-.82-.51-.88-.55-.89-.61-.87-.67-.82-.75-.72-.81-.58-.87-.42-.86-.31-.79-.28-.74-.34-.74-.51-.79-.8-.72-.78 10.48 8.67 1.59-.3 1.85.16 1.16.51.58.78.31.96.2 1.05.22 1.09.35 1.07.56 1.01.77.96.92.94.99.95.95.96.85.96.76.93.67.93.62.99.57 1.1.6 1.2.86 1.17 1.53 1.13L42.82-47.2l.72.94.92.84.76.62.65.52.64.52.67.58.7.68.73.78.79.81.91.76 1.04.67 1.1.6 1.07.6.95.66.83.76.82.8.83.54.55-.36L42.82-47.2l-1.77.9-.57-1.05-.4-1.23-.46-1.05-.52-.83-.59-.63-.65-.48-.71-.36-.74-.32-.74-.36-.72-.44-.69-.49-.69-.47-.75-.33-.86-.11-1 .07-1.08.13-1.04.01-.86-.19-.63-.27-.74.03" filter="url(#a)"/><path d="m42.68-47.09 2.59-2.25 1.84-.61.48 1.07.09 1.37.23 1.07.51.75.84.52 1.26.28 1.69.04 1.99-.08 1.98-.01 1.73.24 1.47.51 1.42.51 1.5.07 1.3-.67M29.07-62.94l-.6-.63-.63-.98-.42-1.23-.3-1.4-.28-1.54-.31-1.69-.33-1.81-.37-1.83-.44-1.67-.55-1.32-.74-.92-.92-.61-1.06-.56-1.11-.71-1.08-.88-.99-.95-.85-.89-.71-.86-.53-1.01-.43-1.33-.56-1.75-1.41-2.38L54.9-60.51l-.36-.94-1.58-.38-1.61-.3-1.43-.32-1.36-.16-1.35.04-1.3.08-1.17-.03-1.05-.17-1.04-.18-1.15-.01-1.32.25-1.45.46-1.44.49-1.29.27-1.07-.09-.92-.4-.9-.44-1-.14-1.07.16-1 .01-.97-.63" filter="url(#a)"/><path d="m27.38-64.3-.66-.49-.41-.5-.49-.66-.62-.68-.71-.63-.75-.61-.7-.64-.64-.71-.62-.77-.69-.78-.86-.77-1.04-.76-1.12-.74-1.01-.71-.83-.74-.97-1.15 9.84 9.83.75-.43 1.33-1.36 1.35-1.3 1.15-.51 1.01.11 1.01.26 1.08.16 1.09.06 1.08.11 1.05.23 1.06.29 1.08.25 1.12.15 1.14.02 1.23-.08 1.42-.18 1.65-.29 1.65-.43.98-.22" filter="url(#a)"/><path d="m22.6-67.53-.3-.52-.45-.8-.57-.76-.76-.84-.89-1.08-.89-1.33-.81-1.48-.71-1.48-.6-1.47-.53-1.5-.49-1.64-.49-1.86-.52-2.07-.6-2.16-.69-2.06-.81-1.72-.92-1.22-1.01-.81-1.01-.73-.9-1.02-.68-1.49-.51-1.83-.85-1.5" filter="url(#a)"/><path d="m33.54-57.4-.96-.99-.78-.91-.69-.74-.65-.65-.65-.63-.67-.64-.7-.66-.7-.64-.68-.58-.66-.53-.65-.49-.68-.48-.72-.5-.77-.54-.76-.58-.71-.59-.61-.47-.3-.08 11.67-11.01-1.56-.43-1.56.85-1.57 1.07-1.43.84-1.29.71-1.22.76-1.21.76-1.23.55-1.23.23-1.2-.08-1.15-.19-1.06-.1-.95.04-.81.1-.69.07-.66.18-.81.5-.97.7-.64.38-9.58-1.52.82-1.57 1.27-.34 1.12-.55.95-1.02.88-1.03.87-.57.87.04.87.45.89.54.93.31.98-.1 1.02-.52.98-.82.9-.92.81-.93.96-1.05 1.68-1.71" filter="url(#a)"/><path d="m14.12-70.02-.2-.22-.37-.2-.58-.22-.74-.23-.81-.27-.83-.31-.83-.35-.82-.34-.82-.31-.8-.25-.74-.22-.73-.2-.81-.2-1.02-.19-1.22-.16h-.75m24.62-11.99-1.51.96-1.88.45-1.79.36-1.51.41-1.26.51-1.08.6-.96.64-.93.66-.93.68-.98.67-1.01.57-1.01.37-.99.12-.96-.1-.93-.17-.9-.07-.89.13-.9.34-.95.52-1.03.76-1.07 1.1-.94 1.3-.57.85-.09.11M55-11.12l3.28 2.02.55 1.82.78 2.01 1.61 2.17 2.03 2.23L65 1.38l1.01 2.25.33 2.25.13 2.25.48 2.22 1.15 2.2 1.7 2.18 1.91 2.18 1.74 2.2 1.39 2.22 1.04 2.24.74 2.24.5 2.21.28 2.12.12 1.98.02 1.83-.11 1.73-.33 1.81-.27 2.1-.33 2.38" filter="url(#a)"/><path d="m.87-73.81.79-.01 1.46.12 1.82.22 1.91.28 1.84.33 1.73.38 1.65.43 1.65.5 1.7.59 1.75.68 1.8.76 1.8.82 1.79.88 1.77.91 1.74.96 1.74 1 1.74 1.07 1.72 1.13 1.71 1.19 1.69 1.25 1.66 1.29 1.64 1.33 1.61 1.36 1.6 1.38 1.61 1.4 1.68 1.45 1.82 1.53 2.04 1.75 2.28 2.19 2.36 2.94" filter="url(#a)"/><path d="m-.73-73.89 1.84.06 1.63.13 1.72.16 1.83.22 1.91.27 1.94.35 1.95.42 2.01.47 2.12.52 2.28.59 2.47.66 2.64.73 2.77.82 2.87.88 2.95.95 3.03 1 3.11 1.04 3.15 1.09 3.12 1.14 3.03 1.22 3 1.26 3.3 1.29 4.31 1.35 6.52 1.79" filter="url(#a)"/><path d="m-2.67-73.59 1.1-.12 1.52-.05 1.56.02 1.63.12 1.71.2 1.74.26 1.74.33 1.73.38 1.72.44 1.71.51 1.71.6 1.72.68 1.71.75 1.71.82 1.69.88 1.67.93 1.64.97 1.61 1.02 1.57 1.08 1.55 1.14 1.54 1.2 1.53 1.26 1.54 1.3 1.55 1.34 1.56 1.38 1.54 1.42 1.51 1.47 1.47 1.54 1.44 1.62 1.4 1.71 1.37 1.77 1.3 1.79 1.23 1.75 1.16 1.74 1.19 1.9 1.43 2.32 1.71 2.71" filter="url(#a)"/><path d="m-6.46-73.32 1.58-.22 1.58-.1 1.56-.06 1.55-.03 1.58.03 1.64.1 1.7.18 1.73.24 1.73.3 1.69.35 1.67.41 1.68.47 1.73.56 1.82.64 1.93.73 2 .81 2.01.85 1.97.88 1.88.92 1.81.95 1.75 1.02 1.71 1.09 1.69 1.17 1.73 1.26 1.95 1.41 2.13 1.59m15.6 44.85 2.03 2.43 1.4 2.02.36 2.18.3 2.36.68 2.45.96 2.46.98 2.41.74 2.35.42 2.29.13 2.24-.08 2.19-.2 2.16-.26 2.11-.28 2.09-.32 2.06-.36 2.05-.42 2.03-.46 2.02-.5 2.01-.53 1.98-.56 1.97-.61 1.95-.64 1.93-.66 1.91-.66 1.88-.65 1.84-.65 1.8-.72 1.79-.89 1.82-1.11 1.86-1.3 1.86-1.27 1.7-.96 1.44-.8 1.88" filter="url(#a)"/><path d="m-9.07-72.72 1.24-.46 2-.27 1.98-.14 1.93-.08 1.9-.03 1.9.04 1.91.1 1.92.18 1.94.24 1.96.31 2.02.36 2.12.43 2.25.49 2.44.58 2.66.66 2.86.73 3 .81 3.08.86 3.11.9 3.15.95 3.23 1 3.35 1.05 3.47 1.12 3.55 1.19 3.58 1.24 3.6 1.3 3.68 1.33 3.78 1.36 3.83 1.38 3.77 1.39 3.7 1.38 3.88 1.35 4.52 1.27" filter="url(#a)"/><path d="m-9.78-72.83 1.75-.27 1.56-.18 1.64-.16 1.77-.12 1.86-.08H.72l1.97.07 2.08.13 2.28.21 2.55.27 2.83.34 3.07.4 3.19.46 3.15.53 3 .6 2.78.66 2.54.74 2.36.82 2.32.89 2.48.95 2.87 1 3.45 1.06 4.14 1.12 4.76 1.16 5.1 1.22 5.06 1.27 4.6 1.3 3.93 1.34 3.37 1.35 3.21 1.36 3.51 1.36 4.05 1.47 4.38 2" filter="url(#a)"/><path d="m-9.78-72.83 1.69-.27 1.35-.18 1.46-.16 1.72-.12 1.94-.08H.44l2.12.07 2.16.13 2.23.21 2.29.27 2.37.34 2.45.4 2.56.46 2.66.53 2.74.6 2.78.66 2.75.74 2.68.82 2.65.89 2.71.95 2.92 1 3.23 1.06 3.57 1.12 3.81 1.16 3.86 1.22 3.72 1.27 3.54 1.3 3.55 1.34 3.83 1.35 4.19 1.36 4.23 1.36 4.01 1.47 5.29 2" filter="url(#a)"/><path d="m-10.77-72.33 1.84-.42 1.9-.37 1.8-.27 1.71-.16 1.66-.1 1.66-.03 1.69.03 1.76.11 1.84.17 1.92.23 1.96.3 1.99.36 1.97.42 1.96.49 1.95.57 1.96.65 2.03.73 2.11.8 2.21.85 2.27.9 2.29.94 2.24.99 2.18 1.04 2.1 1.12 2.09 1.18 2.11 1.24 2.17 1.3 2.22 1.34L47-56.56l2.03 1.38 1.83 1.41 2.51 1.6" filter="url(#a)"/><path d="m-10.77-72.33 1.47-.42 1.68-.38 1.82-.26 1.84-.16 1.82-.09 1.81-.03 1.83.03 1.87.11 1.93.18 2 .24 2.09.3 2.17.37 2.3.43 2.43.51 2.59.58 2.73.66 2.85.74 2.91.8 2.92.86 2.91.91 2.91.96 2.97 1.01 3.11 1.07 3.32 1.13 3.61 1.19 3.91 1.25 4.19 1.29 4.33 1.34 4.3 1.36 4.04 1.39 3.66 1.43 3.29 1.49 3.05 1.59 3.12 1.77 3.65 2.02 4.73 2.15 6.19 1.59" filter="url(#a)"/><path d="m-11.71-72.39 1.12-.38 1.76-.27 1.69-.21 1.73-.17 1.88-.12 2.05-.07 2.19-.01 2.25.07 2.26.13 2.26.2 2.23.27 2.23.33 2.23.4 2.24.47 2.25.52 2.3.6 2.37.66 2.51.74 2.71.82 2.97.88 3.21.95 3.43 1 3.6 1.06 3.73 1.12 3.83 1.16 3.88 1.22 3.83 1.27 3.69 1.31 3.58 1.33 3.66 1.35 3.92 1.36 4.08 1.37 4.09 1.47 5.24 2" filter="url(#a)"/><path d="m-11.71-72.39 2.87-.38 1.72-.27 1.35-.21 1.4-.17 1.51-.12 1.59-.07H.31l1.55.06 1.52.13 1.48.21 1.45.26 1.34.34 1.19.4.97.47.73.53.53.59.41.67.39.75.45.81.58.89.71.95.8 1.01.8 1.06.69 1.12.45 1.16.11 1.22-.27 1.27-.59 1.31-.75 1.33-.72 1.36-.51 1.39-.25 1.44-.02 1.59.04 1.89-.43 2.31" filter="url(#a)"/><path d="m-12.45-72.07-1.79-.34 1.92-.33 2.43-.26 2.21-.22 2.03-.17 2-.13 2.07-.08 2.17-.02 2.26.05 2.36.12 2.47.18 2.59.25 2.72.32 2.86.38 3.02.44 3.23.5 3.49.56 3.71.63 3.78.7 3.65.79 3.31.87 2.97.94 2.88.99 3.19 1.01 3.76 1.03 4.35 1.12 5.13 1.38" filter="url(#a)"/><path d="m-15.06-70.96 2.15-.8 1.8-.52 1.76-.42 1.81-.34 1.84-.26 1.81-.19 1.79-.11 1.78-.05 1.83.03 1.92.08 2.04.16 2.14.22 2.23.29 2.28.34 2.3.4 2.35.46 2.45.55 2.64.63 2.89.72 3.17.8 3.41.85 3.51.88 3.5.9 3.43.95 3.4 1.01 3.42 1.09 3.3 1.15 2.98 1.21 3.8 1.53" filter="url(#a)"/><path d="m-16.74-70.3 1.82-.71 1.93-.66 1.93-.53 1.9-.44 1.86-.35 1.78-.28 1.7-.2 1.63-.12 1.58-.06H.95l1.59.07 1.62.13 1.66.21 1.67.26 1.65.32 1.62.36 1.6.41 1.59.47 1.67.58 1.8.72 1.97.88 1.96.97 1.57.83" filter="url(#a)"/><path d="m-16.87-70.17.96-.85 1.32-.68 1.77-.52 1.88-.4 1.83-.3 1.78-.24 1.81-.19 1.9-.14 1.99-.09 2.07-.03 2.13.03 2.21.1 2.31.16 2.42.23 2.5.3 2.51.36 2.49.42 2.48.47 2.66.52 3.04.59 3.45.67 3.51.75 2.91.75 2.68.73" filter="url(#a)"/><path d="m-16.87-70.17.81-.85 1.18-.69 1.84-.52 1.98-.39 1.86-.31 1.74-.24 1.74-.18 1.84-.14 1.99-.08 2.1-.01 2.16.04 2.2.11 2.2.18 2.19.24 2.2.32 2.24.37 2.34.44 2.5.49 2.72.56 2.98.63 3.25.71 3.5.78 3.73.87 3.88.94 3.88.99 3.55 1.01 2.9 1.03 2.48 1.13 3.79 1.38" filter="url(#a)"/><path d="m-16.87-70.17.08-.86 2.13-.68 2.1-.52 1.87-.4 1.74-.3 1.74-.24 1.81-.18 1.9-.13 1.99-.07 2.08-.01 2.15.05 2.24.12 2.31.19 2.36.26 2.39.32 2.36.39 2.26.46 2.14.51 2.01.59 1.94.65 1.94.73 2.02.81 2.18.87 2.35.95 2.49 1 2.54 1.05 2.52 1.1 2.46 1.17 2.39 1.21 2.35 1.27 2.31 1.31 2.28 1.35 2.29 1.38 2.58 1.42 3.55 1.56" filter="url(#a)"/><path d="m-16.87-70.17 3.18-.85 2.15-.69 1.65-.52 1.36-.39 1.26-.31 1.28-.24 1.36-.18 1.44-.14 1.47-.08 1.49-.01 1.48.04 1.44.11 1.42.18 1.37.24 1.3.32 1.19.37 1.01.44.81.49.61.56.46.63.41.71.42.78.48.87.51.94.52.99.43 1.01.25 1.03.02 1.13.34 1.38m40.33 46.98 2.88 2.77 3.91 2.2L63.4-7.4l-.07 2.06-.95 2.16-.65 2.21.16 2.23.94 2.25 1.45 2.25L65.89 8l1.51 2.22 1.2 2.2.83 2.17.51 2.17.42 2.19.62 2.22 1.11 2.24 1.75 2.27 2.34 2.24 2.56 2.18 2.2 2.01 1.28 1.74.61 1.42 2.38 1.24" filter="url(#a)"/><path d="m-17.55-70.11 1.09-.37 1.51-.58 1.71-.59 1.77-.52 1.79-.44 1.79-.35 1.81-.27 1.84-.19 1.88-.12 1.94-.05 1.98.02 2.01.09 2.03.16 2.04.22 2.09.29 2.17.35 2.3.41 2.49.49 2.68.56 2.88.65 3.04.72 3.11.79 3.09.85 2.98.89 2.84.94 2.73.99 2.74 1.05 2.9 1.11 3.16 1.18 3.43 1.25 3.61 1.3 3.68 1.34 3.74 1.37 3.81 1.38 3.48 1.42 2.71 1.6" filter="url(#a)"/><path d="m-18.47-69.72.64-.35.33-.44.71-.53 1.35-.56 1.86-.51 2.13-.44 2.22-.37 2.22-.29 2.15-.21 2.07-.15 2.04-.07 2.08-.01 2.19.05 2.38.13 2.58.19 2.7.26 2.72.31 2.62.36 2.53.38 2.57.41 2.82.49 3.49.68 4.9 1.02" filter="url(#a)"/><path d="m-18.47-69.72.75-.36 1.05-.44 1.48-.54 1.78-.55 1.93-.51 1.97-.44 1.93-.36 1.86-.28 1.78-.21 1.73-.13 1.72-.06 1.77.01 1.83.07 1.93.15 2.01.21 2.05.27 2.06.33 2.04.39 2.02.45 2.04.53 2.11.62 2.22.72 2.3.79 2.35.86 2.36.87 2.41.88 2.53.92 2.7 1.01 2.79 1.2 3 1.38" filter="url(#a)"/><path d="m-19.22-69.36.79-.43.91-.57 1.28-.63 1.55-.59 1.68-.52 1.69-.42 1.72-.33 1.76-.27 1.84-.2 1.93-.15 2.02-.1 2.12-.05 2.21.02 2.31.09 2.43.14 2.56.22 2.69.28 2.75.36 2.69.41 2.47.45 2.22.45 2.17.43 1.87.45" filter="url(#a)"/><path d="m-23.09-67.27 1.52-.83 1.7-.81 1.73-.73 1.81-.67 1.9-.63 1.89-.58 1.81-.51 1.68-.42 1.56-.34 1.48-.28 1.46-.21 1.47-.15 1.49-.09 1.49-.03 1.49.03 1.44.1 1.4.17 1.33.23 1.27.3 1.19.36 1.11.42 1.01.49.92.54.87.62.88.69.93.78.97.87.94.95.88 1.03.7.99.13.68" filter="url(#a)"/><path d="M-23.09-67.27v-.82l-.47-.82.61-.71 1.54-.67 1.95-.63 2.06-.59 2.06-.51 2.02-.43 1.99-.35 2-.27 2.11-.22 2.27-.15 2.43-.11 2.59-.04 2.71.02 2.83.08 3.02.15 3.26.21 3.52.29 3.7.35 3.7.41 3.53.46 3.45.49 3.9.54 5.23.74 8.2 1.23" filter="url(#a)"/><path d="m-23.09-67.27 1.46-.82 1.61-.81 1.56-.71 1.58-.66 1.62-.64 1.64-.58 1.63-.52 1.63-.44 1.62-.35 1.62-.28 1.65-.22 1.68-.16 1.73-.12 1.75-.06 1.74.01 1.71.06 1.67.13 1.65.18 1.67.26 1.76.36 1.96.5 2.15.61" filter="url(#a)"/><path d="m-23.09-67.27 1.42-.82 1.49-.81 1.48-.71 1.56-.66 1.63-.64 1.66-.58 1.66-.52 1.63-.44 1.64-.35 1.65-.28 1.68-.22 1.73-.16 1.77-.12 1.8-.06 1.79.01 1.78.06 1.74.13 1.73.18 1.76.26 1.87.36 2.07.5 2.28.61" filter="url(#a)"/><path d="m-23.89-66.67.98-.66 1.22-.78 1.17-.77 1.14-.72 1.24-.68 1.36-.63 1.47-.58 1.58-.5 1.71-.43 1.84-.35 1.97-.27 2.08-.21 2.17-.15 2.22-.09 2.28-.03 2.32.04 2.37.1 2.4.17 2.46.24 2.5.3 2.56.37 2.62.44 2.71.49 2.8.56 2.92.63 3.04.71 3.17.79 3.29.87 3.42.93 3.58.99 3.75 1.03 3.84 1.06 3.7 1.13 3.57 1.25 4.78 1.26" filter="url(#a)"/><path d="m-23.89-66.67.95-.65 1.31-.77 1.47-.77 1.56-.72 1.61-.67 1.64-.64 1.65-.58 1.65-.51 1.65-.44 1.65-.35 1.65-.28 1.69-.22 1.71-.17 1.75-.1 1.76-.05 1.77.01 1.75.08 1.74.14 1.74.21 1.75.28 1.76.35 1.73.42 1.64.45 1.48.44 1.32.43 1.13.46" filter="url(#a)"/><path d="m-25.32-65.72.24-1.1.54-.93 1.48-.79 1.75-.69 1.71-.61 1.68-.58 1.73-.56 1.8-.53 1.9-.49 1.95-.44 1.97-.37 1.99-.3 1.97-.23 1.99-.15 2.02-.08 2.12-.02 2.24.06 2.42.13 2.58.19 2.72.25 2.77.32 2.76.36 2.74.42 2.77.49 3.01.59 3.5.71 4.11.85 4.5.93 4.16.9 2.96.84" filter="url(#a)"/><path d="m-25.32-65.72 1.53-1.1 1.16-.91 1.21-.79 1.29-.69 1.29-.61 1.35-.58 1.51-.55 1.7-.54 1.86-.5 1.94-.45 1.95-.38 1.92-.31 1.87-.24 1.83-.17 1.83-.1 1.85-.03 1.94.03 2.05.11 2.15.18 2.24.25 2.27.32 2.27.37 2.22.38 2.28.37" filter="url(#a)"/><path d="m-27.68-64.06.08-1.44 1.52-1.16 1.93-.97 1.49-.82.87-.71.52-.64.62-.58 1.07-.57 1.63-.53 2.11-.49 2.4-.45 2.52-.38 2.51-.3 2.45-.24 2.39-.16 2.36-.09 2.37-.03 2.42.05 2.52.11 2.64.19 2.77.25 2.91.3 3.07.35 3.23.38 3.38.42 3.61.5 4.27.68 5.61 1.02" filter="url(#a)"/><path d="m-28.41-63.48-3.62-.89 2.76-1.13 3.16-1.09 2.4-.96 1.71-.83 1.29-.73 1.18-.65 1.27-.6 1.49-.57 1.7-.53 1.85-.49 1.94-.44 2-.38 2.02-.31 2.04-.24 2.06-.16 2.07-.09 2.1-.03 2.13.05 2.2.12 2.28.18L10-73l2.49.31 2.6.35 2.7.39 2.86.45 3.12.55 3.53.71 3.88.96 3.64 1.18" filter="url(#a)"/><path d="m-29.29-62.68-.86-.79.66-.96 1.18-1.07 1.51-1.04 1.73-.95 1.76-.84 1.69-.74 1.6-.67 1.56-.61 1.61-.57 1.73-.53 1.87-.49 1.99-.43 2.06-.38 2.09-.3 2.09-.23 2.09-.16 2.13-.08 2.2-.02 2.3.06 2.43.12 2.56.19 2.67.26 2.76.31 2.81.37 2.84.44 2.87.51 2.93.61 3.06.71 3.22.81 3.35.87 3.37.88 3.28.83 3.19.78 2.85.75" filter="url(#a)"/><path d="m-29.29-62.68.47-.79-.02-.96-.05-1.07.82-1.04 1.74-.95 2.17-.84 2.13-.74 1.87-.66 1.63-.62 1.5-.57 1.52-.53 1.66-.49 1.83-.43 2.03-.38 2.19-.3 2.31-.24 2.41-.16 2.48-.08 2.58-.02 2.67.05 2.74.12 2.8.19 2.84.26 2.88.31 2.99.36 3.19.43 3.5.51 3.9.6 4.32.71 4.66.82 4.82.9 4.71.89 4.15.83 2.35.77" filter="url(#a)"/><path d="m-31.1-61.08 1.52-1.28 1.34-1.03 1.48-1.03 1.65-1.05 1.78-1.02 1.8-.94 1.76-.85 1.68-.75 1.6-.67 1.56-.62 1.56-.58 1.56-.53 1.58-.49 1.59-.43 1.59-.38 1.57-.3 1.55-.24 1.52-.16 1.47-.08 1.44-.02 1.39.05 1.37.12 1.33.19 1.29.26 1.27.31 1.24.37 1.21.44 1.21.51 1.2.61 1.22.71 1.24.81 1.22.87 1.12.88.92.83.61.78.54.75m-51.65 5.36-1.58 1.33-1.61 1.78-1.5 1.73-1.43 1.63-1.4 1.61-1.44 1.64-1.46 1.69-1.44 1.74-1.37 1.78-1.26 1.8-1.18 1.82-1.13 1.82-1.15 1.84-1.21 1.84-1.32 1.88-1.4 1.94-1.45 2.02-1.4 2.12-1.24 2.19-1.01 2.22-.76 2.22-.61 2.19-.64 2.16-.86 2.15-1.05 2.17-1.09 2.27m31.99-49.58-8.37 1.34-4.11 1.78-2.51 1.74-1.44 1.63-1.03 1.62-1.07 1.64-1.34 1.7-1.74 1.75-2.14 1.78-2.43 1.8-2.51 1.83-2.34 1.83-1.99 1.84-1.55 1.86-1.16 1.89-.96 1.96-1.07 2.04-1.48 2.12-2.08 2.18-2.6 2.21-2.86 2.21-2.82 2.19-2.61 2.16-2.5 2.12-2.58 2.08-2.62 2.02-2.1 2-2.73 2.3" filter="url(#a)"/><path d="m-35.42-57.24-1.63 1.61-1.76 1.7-1.28 1.56-1.05 1.57-1.06 1.66-1.18 1.76-1.32 1.81-1.39 1.85-1.4 1.86-1.34 1.88-1.22 1.91-1.09 1.94-.95 1.96-.82 1.95-.72 1.96-.63 1.97-.59 2.02-.58 2.09-.6 2.16-.64 2.21-.66 2.23-.66 2.22-.61 2.18-.52 2.14-.39 2.14-.26 2.15-.16 2.19-.13 2.23-.16 2.23-.23 2.23-.28 2.22-.26 2.27-.01 2.63" filter="url(#a)"/><path d="m-35.42-57.24-1.02 1.61-.51 1.69-.08 1.56-.29 1.56-.73 1.65-1.06 1.75-1.21 1.81-1.24 1.84-1.14 1.85-.96 1.87-.69 1.91-.4 1.94-.11 1.95.1 1.95.2 1.94.22 1.95.21 2 .21 2.07.28 2.16.43 2.23.65 2.25.87 2.23 1.06 2.16 1.18 2.1 1.21 2.1 1.19 2.14 1.12 2.2.98 2.23.83 2.27 1.39 2.46" filter="url(#a)"/><path d="m-35.42-57.24-1.43 1.61-1.65 1.69-1.31 1.56-1.1 1.56-1.06 1.65-1.12 1.75-1.2 1.81-1.21 1.84-1.18 1.85-1.11 1.87-1.01 1.91-.93 1.94-.85 1.95-.8 1.95-.75 1.94-.73 1.95-.73 2-.74 2.07-.76 2.16-.75 2.23-.74 2.25-.7 2.23-.64 2.16-.56 2.1-.45 2.1-.33 2.14-.24 2.2-.26 2.23-.37 2.27-.35 2.46" filter="url(#a)"/><path d="m-36.24-56.09-7.48 2.28-.63 1.5-1.18 1.48-2.82 1.62-3.41 1.76-2.97 1.81-2.32 1.84-2.1 1.83-2.38 1.86-2.89 1.89-3.27 1.93-3.34 1.95-3.06 1.94-2.57 1.91-2.01 1.9-1.48 1.94-1.01 2.04-.66 2.16-.49 2.28-.65 2.33-1.08 2.26-1.7 2.1-2.37 1.94-3.1 1.87-4.35 1.58" filter="url(#a)"/><path d="m-36.24-56.09-2.3 2.3-2.3 1.52-2.24 1.5-1.86 1.66-1.47 1.77-1.22 1.84-1.09 1.85-1.01 1.87-.9 1.89-.8 1.91-.73 1.95-.71 1.96-.75 1.96-.86 1.97-.99 1.98-1.16 2.04-1.32 2.09-1.42 2.16-1.4 2.21-1.25 2.22-.98 2.21-.69 2.19-.44 2.16-.32 2.16-.34 2.16-.48 2.2-.68 2.21-.86 2.23-1 2.23-1.06 2.22-1.01 2.2-.85 2.16-.6 2.08-.39 1.93-.36 1.72" filter="url(#a)"/><path d="m-39.13-52.78 1.77.7-.16 1.24-.98 1.6-1.45 1.78-1.54 1.84-1.38 1.83-1.1 1.82-.85 1.83-.67 1.88-.53 1.93-.39 1.96-.18 1.93.08 1.89.33 1.86.5 1.89.5 1.99.38 2.17.24 2.34.19 2.43.22 2.32.34 1.92 1.15 1.08" filter="url(#a)"/><path d="m-38.97-52.85-1.77 1.24-1.68 1.74-2.53 1.79-3.19 1.78-3.05 1.79-2.27 1.81-1.36 1.83-.81 1.83-.79 1.83-1.26 1.85-1.95 1.88-2.52 1.96-2.66 2.03-2.35 2.13-1.73 2.18-1.19 2.21-1.1 2.2-1.56 2.17-2.3 2.15-2.85 2.11-2.77 2.07-1.95 2.05-.92 2.08-.81 2.23-2.58 2.48" filter="url(#a)"/><path d="m-38.97-52.85-14.19 1.23-2.06 1.74 1.73 1.78 1.88 1.78.42 1.78-1.35 1.8-2.61 1.82-3.15 1.83-3.24 1.82-3.35 1.83-3.71 1.87-4.17 1.93-4.43 2.03-4.23 2.12-3.69 2.18-3.21 2.22-3.25 2.2-3.84 2.17-4.45 2.15-4.47 2.11-3.98 2.07-4.06 1.93-5.52 1.52m76.42-40.37-1.88 1.54-2.07 1.67-1.76 1.77-1.51 1.83-1.16 1.85-.75 1.86-.46 1.84-.41 1.87-.53 1.92-.74 1.99-.96 2.07-1.14 2.15-1.27 2.18-1.32 2.21-1.28 2.2-1.21 2.18-1.11 2.17-1.06 2.16-1.07 2.16-1.1 2.19-1.11 2.23-1.05 2.29-.93 2.34-.75 2.35-.53 2.32-.28 2.26-.06 2.18-.01 2.12-.3 2.15-.74 2.38-.14 2.76" filter="url(#a)"/><path d="m-41.48-49.31-4.08 1.53-.78 1.67-.98 1.76-1.66 1.83-2.29 1.85-2.82 1.85-2.98 1.84-2.63 1.86-1.86 1.91-1.03 1.98-.52 2.07-.45 2.14-.79 2.19-1.32 2.2-1.84 2.2-2.28 2.18-2.61 2.16-2.87 2.14-2.98 2.15-2.88 2.17-2.51 2.22-1.99 2.29-1.58 2.35-1.56 2.38-1.98 2.35-2.54 2.28-2.59 2.15-1.48 1.93.71 1.4" filter="url(#a)"/><path d="m-41.48-49.31-1.45 1.54-1.44 1.69-1.31 1.78-1.63 1.84-2.19 1.86-2.52 1.86-2.43 1.87-2.05 1.88-1.63 1.94-1.31 2.01-1.17 2.09-1.12 2.15-1.16 2.19-1.28 2.21-1.48 2.21-1.74 2.19-1.99 2.19-2.16 2.18-2.18 2.2-2.03 2.22-1.75 2.25-1.42 2.29-1.11 2.31-.91 2.31-.81 2.3-.79 2.26-.8 2.23-.78 2.19-.78 2.16-.84 2.13-.95 2.1-1.09 2.06-1.17 2.05-1.22 2.1-1.29 2.29-.83 2.55.9 2.52" filter="url(#a)"/><path d="m-41.71-48.75-1.47 1.56-1.52 1.91-1.28 1.89-1.13 1.84-1.1 1.85-1.1 1.92-1.09 1.98-1.05 1.98-1.07 1.97-1.17 1.97-1.34 1.98-1.49 2.04-1.57 2.11-1.55 2.17-1.4 2.22-1.17 2.22-.9 2.22-.64 2.19-.45 2.17-.32 2.18-.29 2.17-.32 2.2-.41 2.21-.52 2.22-.62 2.22-.71 2.21-.76 2.21-.77 2.21-.73 2.24-.6 2.27-.4 2.34-.14 2.4.12 2.42.3 2.41.36 2.35.18 2.33-.38 2.21" filter="url(#a)"/><path d="m-42.38-47.85-1.1 1.76-1.13 1.78-1.25 1.85-1.36 1.88-1.34 1.86-1.19 1.85-.99 1.86-.81 1.92-.7 1.99-.65 2.09-.65 2.15-.69 2.19-.72 2.21-.72 2.2-.7 2.19-.64 2.17-.58 2.16-.54 2.17-.51 2.2-.47 2.24-.45 2.29-.38 2.32-.3 2.33-.2 2.31-.1 2.26-.01 2.21.08 2.16.11 2.17.09 2.19-.02 2.16-.17 2.02-.16 1.95" filter="url(#a)"/><path d="m-44.66-44.09-.5 1.66-.15 1.97-.34 1.89-.7 1.84-.95 1.84-1.02 1.91-.95 2-.79 2.1-.61 2.17-.42 2.21-.27 2.23-.19 2.21-.15 2.18-.14 2.18-.13 2.17-.11 2.18-.07 2.22-.01 2.25.09 2.28.19 2.31.31 2.32.41 2.29.47 2.26.47 2.22.41 2.18.36 2.15.32 2.13.37 2.09.49 2.06.63 2.04.75 2.1.86 2.29.96 2.54 1.05 2.51m-.64-72.98-1.58 1.66-1.89 1.97-2.15 1.89-2.34 1.84-2.09 1.84-1.66 1.91-1.42 2-1.5 2.1-1.7 2.17-1.76 2.21-1.62 2.23-1.31 2.21-.95 2.18-.64 2.18-.41 2.17-.22 2.18-.09 2.22v2.25l.02 2.28-.08 2.31-.25 2.32-.49 2.29-.73 2.26-.9 2.22-1.02 2.18-1.12 2.15-1.27 2.13-1.52 2.09-1.8 2.06-1.87 2.04-1.51 2.1-.61 2.29.53 2.54 1.05 2.51m133.47-46.7.36 1.64.38 2.1.51 2.22.77 2.16.97 2.1.99 2.12.76 2.16.44 2.2.12 2.22-.07 2.25-.15 2.24-.11 2.25-.04 2.22.07 2.21.18 2.18.34 2.17.49 2.19.59 2.22.58 2.25.36 2.28.01 2.28-.42 2.24-.73 2.08-.87 1.75-.93 1.26" filter="url(#a)"/><path d="m-46-41.6-9.01 1.68-7.95 2.06-1.98 2.14.27 2.08-.45 1.98-1.83 1.89-2.43 1.89-2.04 1.97-1.26 2.09-.86 2.19-1.16 2.25-2.05 2.25-3.16 2.2-4.04 2.16-4.48 2.12-4.37 2.13-3.75 2.14-2.74 2.18-1.65 2.2-.87 2.21-.73 2.22-1.24 2.2-2.09 2.18-2.95 2.14-3.75 2.06-4.14 1.91-2.97 1.7M-46-41.6l-.92 1.68-1.3 2.06-1.9 2.14-2.34 2.08-2.18 1.98-1.52 1.89-.81 1.89-.4 1.97-.4 2.09-.64 2.19-.94 2.25-1.22 2.25-1.47 2.2-1.74 2.16-2.02 2.12-2.22 2.13-2.31 2.14-2.2 2.18-1.9 2.2-1.51 2.21-1.14 2.22-.92 2.2-.87 2.18-.94 2.14-1.1 2.06-1.59 1.91-2.74 1.7m38.25-54.18-.53 1.3-.37 1.63-.15 1.75-.06 1.84-.12 1.96-.2 2.08-.21 2.18-.02 2.22.35 2.22.78 2.2 1.1 2.16 1.16 2.13 1 2.12.72 2.12.49 2.15.44 2.21.54 2.28.69 2.34.84 2.37 1 2.34 1.22 2.25 1.53 2.14 1.57 1.91.69 1.38" filter="url(#a)"/><path d="m-46.78-40.31-4.08 2.45-6.66 2.25-3.56 2.14-.54 1.98.39 1.89.08 1.9-.42 2-.82 2.12-1.26 2.21-1.87 2.26-2.62 2.25-3.28 2.22-3.6 2.18-3.43 2.17-2.74 2.16-1.74 2.17-.72 2.19-.02 2.21.16 2.22-.19 2.21-.94 2.22-1.81 2.21-2.56 2.22-2.97 2.25-3.02 2.28-2.81 2.33-2.58 2.37-2.47 2.38-2.43 2.36-2.11 2.3-1.24 2.22.11 2.1 1.11 1.94.5 1.79-2.16 1.83" filter="url(#a)"/><path d="m-47.54-38.48-2.2 1.82-4.27 1.82-3.55 1.85-2.53 1.96-2.57 2.11-3 2.2-2.9 2.24-2.06 2.23-1.01 2.2-.33 2.16-.25 2.13-.53 2.13-.83 2.13-.88 2.17-.73 2.22-.59 2.28-.76 2.33-1.37 2.34-2.4 2.31-3.51 2.24-4.25 2.15-4.13 2.1-3.09 2.13-1.76 2.37-.72 2.74m48.97-51.76-1.08 2.6-1.06 2.02-1.04 1.75-.91 1.75-.79 1.91-.71 2.1-.64 2.24-.59 2.29-.59 2.27-.63 2.2-.71 2.13-.78 2.1-.8 2.1-.8 2.14-.76 2.17-.7 2.19L-62 .29l-.47 2.2-.29 2.19-.1 2.17-.03 2.13-.18 2.05-.48 1.9-.44 1.69" filter="url(#a)"/><path d="m-49.26-34.53-1.21 1.68-.86 1.9-1.25 2.17-1.42 2.3-1.18 2.3-.81 2.26-.55 2.21-.44 2.18-.44 2.15-.49 2.16-.55 2.17-.6 2.21-.63 2.26-.62 2.29-.56 2.31-.45 2.31-.3 2.29-.14 2.25.01 2.2.12 2.18.21 2.14.29 2.13.32 2.1.32 2.1.29 2.11.23 2.14.18 2.19.16 2.2.18 2.12.22 1.97.29 1.86.43 2.12.8 3.4" filter="url(#a)"/><path d="m-49.26-34.53-1.5 1.65-1.38 1.85-1.2 2.14-1.3 2.26-1.51 2.28-1.58 2.23-1.5 2.18-1.31 2.15-1.08 2.11-.86 2.1-.7 2.11-.67 2.15-.8 2.2-1.08 2.28-1.37 2.34-1.45 2.34-1.17 2.31-.66 2.23-.35 2.12-.74 2.01-1.59 1.99-.63 2.46" filter="url(#a)"/><path d="m-50.65-30.46-2.5 1.22-.84 1.59-.21 1.92-.39 2.2-.79 2.34-1.09 2.36-1.28 2.3-1.35 2.22-1.36 2.17-1.32 2.14-1.25 2.16-1.2 2.17-1.14 2.2-1.03 2.22-.84 2.22-.61 2.22-.34 2.22-.18 2.23-.13 2.24-.21 2.26-.32 2.29-.42 2.32-.42 2.34-.36 2.33-.25 2.31-.18 2.24-.16 2.17-.17 2.09-.2 2-.26 1.93-.35 1.9-.47 1.88-.54 1.88-.41 1.86-.04 1.87.37 1.85.41 1.58" filter="url(#a)"/><path d="m-51.04-29.47-.68 1.68-1.34 1.91-1.92 2.22-2.24 2.38-2.47 2.4-2.5 2.31-2.26 2.19-1.75 2.12-1.09 2.09-.52 2.11-.16 2.14-.17 2.18-.57 2.2-1.21 2.21-1.91 2.2-2.43 2.19-2.6 2.17-2.39 2.18-1.95 2.19-1.46 2.24-1.1 2.32-.88 2.4-.74 2.43-.64 2.37-.6 2.33-1.11 2.44m36.69-57.6-.48 1.71-.27 1.94.12 2.24.4 2.41.38 2.41.14 2.31-.12 2.22-.32 2.15-.41 2.13-.39 2.14-.27 2.18-.08 2.2.13 2.21.33 2.23.49 2.22.6 2.22.7 2.22.79 2.24.89 2.26.99 2.29 1.07 2.32 1.09 2.34 1.08 2.33 1.04 2.3.99 2.24.93 2.17.89 2.08.87 2 .87 1.94.92 1.89 1.02 1.88 1.15 1.87 1.23 1.87 1.2 1.86.95 1.86.41 1.57" filter="url(#a)"/><path d="m-51.49-28.67-3.04 2.49-1.13 2.29-1.22 2.24-.94 2.17-.55 2.14-.39 2.13-.39 2.13-.47 2.16-.57 2.2-.67 2.25-.82 2.3-.98 2.32-1.12 2.31-1.17 2.29-1.07 2.24-.8 2.19-.41 2.16v2.14l.29 2.11.35 2.1.17 2.08-.23 2.1-.67 2.14-1.03 2.19-1.17 2.19-1.03 2.12-.69 1.96-.24 1.85.56 2.12 2.24 3.39" filter="url(#a)"/><path d="m-51.49-28.67-.95 2.5-.99 2.29-1.17 2.24-1.65 2.18-2.14 2.15-2.43 2.13-2.56 2.14-2.52 2.16-2.4 2.2-2.18 2.26-1.83 2.31-1.38 2.32-.96 2.31-.72 2.29-.79 2.24-1.14 2.2-1.61 2.16-2.02 2.14-2.23 2.12-2.18 2.11-1.95 2.1-1.58 2.11-1.12 2.14-.64 2.16-.2 2.16-.05 2.1-.27 2.03-.75 1.96-1.13 1.98-1.14 2.01-.97 1.86-.88 1.56" filter="url(#a)"/><path d="m-51.49-28.67-8.97 2.47-7.26 2.28-2.83 2.22-.53 2.16-.17 2.13-.59 2.11-.97 2.11-.99 2.13-.71 2.18-.28 2.23.09 2.29.3 2.33.24 2.31-.07 2.28-.58 2.23-1.18 2.18-1.78 2.15-2.26 2.12-2.45 2.11-2.28 2.08-1.87 2-1.71 1.96-2.29 2.01-3.21 2.29-2.59 2.97" filter="url(#a)"/><path d="m-52.23-25.72-2.37 1.93-1.88 2.2-2.54 2.15-3.28 2.11-3.15 2.11-2.07 2.1-.78 2.12-.04 2.17-.17 2.23-.91 2.29-1.84 2.33-2.69 2.31-3.41 2.28-4.02 2.22-4.55 2.18-4.83 2.14-4.76 2.12-4.37 2.11-3.92 2.07-3.58 2-3.25 1.95-2.87 2.01-2.57 2.29-.72 2.96" filter="url(#a)"/><path d="m-52.23-25.72-1.91 1.94-3.82 2.21-2.44 2.16-.55 2.13.18 2.11-.1 2.11-.62 2.14-.91 2.18-.85 2.25-.65 2.3-.46 2.32-.37 2.32-.41 2.28-.54 2.23-.72 2.19-.93 2.15-1.1 2.13-1.21 2.1-1.21 2.08-1.13 2.06-1.01 2.07-.91 2.13-.77 2.23-.57 2.3-.31 2.24.15 1.88 1.09 1.16" filter="url(#a)"/><path d="m-52.64-24.33-1.68 2.85-2.31 2.18-2.11 2.11-1.7 2.11-1.47 2.12-1.49 2.13-1.81 2.19-2.29 2.25-2.7 2.31-2.76 2.33L-75.3.57l-1.58 2.28-.78 2.23-.26 2.19-.16 2.15-.42 2.13-.77 2.1-1.05 2.09-1.07 2.08-.83 2.09-.37 2.14.18 2.18.57 2.19.5 2.12-.12 1.95-.99 1.83-1.57 2.13-1.04 3.38m138.5-57.87.59 1.93 1.17 1.92 1.64 2.09 1.58 2.15 1.05 2.14.4 2.11-.02 2.12-.11 2.15.05 2.19.29 2.22.44 2.24.45 2.25.36 2.24.25 2.22.18 2.2.19 2.17.25 2.17.32 2.17.36 2.21.39 2.26.39 2.29.32 2.32v2.41l-.79 2.75M52.01-25.9l.96 2.15 1.11 2.61 1.38 2.41 1.81 2.26 2.27 2.19 2.45 2.16 2.18 2.13 1.63 2.13 1.12 2.13L68-3.57l1.69 2.19L72.53.84l4.11 2.24 4.92 2.25 4.8 2.24 3.65 2.24 1.94 2.2.34 2.17-.49 2.16-.43 2.17.22 2.21 1.12 2.26 2.32 2.29 3.65 2.24 2.6 2.21" filter="url(#a)"/><path d="m52.37-25.25.81 1.67 1.05 1.86 1.33 1.88 1.35 2.02 1.5 2.16 1.83 2.24 2.15 2.26 2.17 2.27 1.91 2.3 1.56 2.34 1.27 2.38L70.4.51l.92 2.38.63 2.35.29 2.3-.01 2.26-.07 2.21.15 2.17.58 2.13 1.06 2.09 1.4 2.07 1.55 2.05 1.54 2.04 1.43 2.03 1.32 2.02 1.18 1.99.92 1.95.51 1.93-.06 1.95-.63 1.99-.97 2.03L81 42.47l-.27 1.75" filter="url(#a)"/><path d="m51.19-29.05.83 2.65 1.3 2.56 2.49 2.54 3.58 2.4 3.8 2.28 3.25 2.21L69-12.25l2.02 2.14 1.61 2.13 1.09 2.13.44 2.15-.06 2.18L74.05.7l.6 2.23 1.74 2.25 2.93 2.25 3.69 2.23 3.7 2.2 2.91 2.16 1.58 2.14.27 2.14-.27 2.19.65 2.33 2.56 2.72" filter="url(#a)"/><path d="m50.51-31.52.88 3.01.78 2.43.77 2.1.74 1.95.69 1.93.6 2 .54 2.1.5 2.18.44 2.2.38 2.22.3 2.24.23 2.29.17 2.35.15 2.39.13 2.39.1 2.35.08 2.29.07 2.23.1 2.2.11 2.22.01 2.4-.36 2.95m-7.41-50.42 7.22 3.03 2.89 2.44-.8 2.13-1.68 1.97-1.02 1.96.12 2.04 1.21 2.12 2.1 2.2 2.73 2.22 3.07 2.25 3.14 2.29 2.99 2.32 2.64 2.36L77.34.19l1.79 2.38 1.42 2.35 1.18 2.3 1.14 2.26 1.3 2.21 1.62 2.18 1.88 2.12 1.85 2.07 1.45 2.02.93 2.01.71 2.03.82 2.14.59 2.29 1.08 2.48" filter="url(#a)"/><path d="m50.18-31.82.85 1.31.68 2.16.66 2.23.63 2.11.54 2.02.47 2.01.4 2.07.37 2.13.36 2.2.33 2.23.3 2.27.25 2.3.18 2.33.09 2.37.02 2.38-.06 2.37-.11 2.35-.15 2.31-.17 2.26-.17 2.22-.18 2.18-.19 2.13-.22 2.1-.26 2.06-.32 2.05-.4 2.05-.49 2.05-.55 2.03-.62 1.99-.66 1.93-.71 1.88-.73 1.9-.86 2.07m-1.38-75.45 1.65 2.06 3.13 1.76 3.21 1.76 2.31 1.77 1.2 1.86.46 2.01.31 2.17.59 2.26 1.02 2.29 1.4 2.28 1.62 2.25 1.69 2.21 1.64 2.18 1.47 2.17 1.17 2.16.81 2.18.44 2.2.22 2.23.21 2.24.43 2.26.75 2.26 1.02 2.25 1.1 2.22 1 2.19.81 2.17.79 2.18.99 2.22 1.2 2.29.67 2.34-1.35 2.11M48.08-37.22l-.21 2.06.16 1.76-.23 1.75-.6 1.76-.82 1.85-.91 2.01-.94 2.15-.92 2.26-.87 2.29-.84 2.28-.83 2.25-.81 2.2-.82 2.18-.9 2.15-1.15 2.16-1.53 2.17-1.96 2.19L31.66.47l-2.22 2.24-1.93 2.26-1.53 2.27-1.24 2.25-1.19 2.22-1.33 2.17-1.64 2.14-2.14 2.12-2.58 2.12-1.56 2.01" filter="url(#a)"/><path d="m46.54-40.34 11.3 2.73-.09 2.17-.35 1.91.73 1.81 1.38 1.81 1.59 1.89L62.61-26l1.33 2.15 1.08 2.24.85 2.28.62 2.28.45 2.25.44 2.21.65 2.19 1.04 2.17 1.51 2.17 1.92 2.18 2.17 2.2L76.94.55l2.24 2.25 2.17 2.26 2.08 2.26 2.04 2.25 2 2.22 1.9 2.2 1.61 2.17 1.04 2.18.29 2.22-.27 2.3-.23 2.34.52 2.11" filter="url(#a)"/><path d="m46.79-40.26 4.66 1.85.23 1.86-.13 1.95.53 1.99 1.52 2.04 2.53 2.07 3.21 2.09 3.27 2.07 2.79 2.05 2.07 2.05 1.51 2.08 1.22 2.13 1.2 2.17 1.28 2.22 1.35 2.25L75.4-7.1l1.41 2.32 1.51 2.36 1.69 2.38 1.87 2.38 1.93 2.36 1.76 2.32 1.39 2.28.94 2.23.56 2.19.34 2.15.28 2.08.45 2.02.99 1.98 1.93 2.01 2.63 2.13.77 2.19" filter="url(#a)"/><path d="m45.34-42.71 2.97 2.19 2.11 1.97.79 1.93.49 1.96.67 1.99.92 2.03 1.06 2.07 1.06 2.07.99 2.07.91 2.05.91 2.05 1.02 2.08 1.27 2.12 1.54 2.17 1.77 2.21 1.8 2.24 1.63 2.29 1.31 2.32.98 2.36.8 2.38.82 2.39.98 2.36 1.12 2.33 1.09 2.28.77 2.23.26 2.2-.22 2.16-.36 2.09.08 1.98.92 1.86 1.59 1.31" filter="url(#a)"/><path d="m45.34-42.71 7.81 2.18 3.26 1.94.59 1.91.51 1.94 1.17 1.96 1.63 2.01 1.76 2.05 1.63 2.07 1.35 2.04 1.02 2.03.84 2.01.93 2.04 1.38 2.09 1.99 2.15 2.5 2.18 2.64 2.2 2.36 2.23 1.83 2.27 1.34 2.36L82.96-.6l1.05 2.48 1.02 2.38.64 2.07.18 1.67" filter="url(#a)"/><path d="m45.34-42.71 4.35 2.2 3.24 1.97 1.48 1.94 1.18 1.96 1.18 2 .87 2.04.38 2.07.01 2.08-.09 2.07.04 2.06.29 2.06.57 2.09.8 2.14.96 2.17 1.05 2.22 1.11 2.26 1.13 2.29 1.19 2.33 1.26 2.36 1.35 2.38 1.42 2.38 1.47 2.35 1.46 2.33 1.42 2.28 1.33 2.23 1.19 2.19 1.01 2.15.87 2.09.85 2.04 1 2.02 1.16 2.04 1.06 2.15.85 2.31 1.37 2.49" filter="url(#a)"/><path d="m44.4-44.46 2.7 1.87 1.29 1.98 1.95 1.94 3.34 1.92 4.59 1.95 5.14 1.97 4.85 2.01 3.97 2.05 2.85 2.06 1.95 2.05 1.53 2.02 1.65 2.03 2.03 2.04 2.36 2.1 2.33 2.14 1.97 2.19 1.51 2.2 1.22 2.23 1.22 2.28 1.46 2.36 1.74 2.45 2.08 2.48 2.7 2.39 3.67 2.08L109.16 8" filter="url(#a)"/><path d="m44.9-43.7 1.34.84 1.36 1.32 1.32 1.77 1.44 1.99 1.9 2 2.54 1.95 3.07 1.9 3.34 1.89 3.21 1.94 2.75 2.03 2.08 2.13 1.43 2.21.92 2.25.62 2.26.5 2.25.53 2.22.67 2.2.9 2.18 1.14 2.17 1.33 2.19 1.4 2.21L79.94.42l.94 2.26.51 2.26.12 2.27-.03 2.26.2 2.23.86 2.19 1.76 2.17 2.54 2.16 2.7 2.22 1.92 2.36.01 2.74" filter="url(#a)"/><path d="m41.38-49.7 2.38 2.52 2.47 2.12 2.31 1.77 1.62 1.7 1.03 1.81.79 1.9.79 1.94.87 1.92 1.02 1.9 1.25 1.9 1.59 1.93 1.92 2.02 2.14 2.11 2.11 2.19 1.82 2.25 1.39 2.26.95 2.25.72 2.21.78 2.19 1.08 2.16 1.5 2.16 1.88 2.17 2.08 2.19L77.93.08l1.92 2.25 1.75 2.28 1.72 2.32 1.85 2.29 2.16 2.22 1.93 2.45" filter="url(#a)"/><path d="m41.27-49.56 1.8 1.85 3.67 1.55 5.05 1.65 4.52 1.79 3.29 1.86 2.56 1.91 2.49 1.92 2.7 1.94 2.89 1.96 3.06 2 3.36 2.03 3.75 2.05 3.99 2.04L88.15-23l2.95 2 1.91 2 1.13 2.08.99 2.16 1.45 2.21 2.4 2.17 3.91 2.08 5.98 2.14 7.5 2.62" filter="url(#a)"/><path d="m40.14-51.01 4.05 1.71 1.16 2.1.78 1.98.98 1.8 1.35 1.76 1.92 1.82 2.65 1.9 3.31 1.92 3.65 1.92 3.53 1.89 3.02 1.89 2.4 1.94 1.9 2.01 1.64 2.1 1.58 2.19 1.61 2.24 1.67 2.26 1.78 2.25 1.96 2.22 2.24 2.18 2.6 2.15 3 2.15 3.47 2.15 4.01 2.19 4.64 2.21 5.19 2.22 5.18 2.29 3.94 2.54 1.62 2.63" filter="url(#a)"/><path d="m39.33-52.28 2.51 2.39 1.78 1.92 1.24 1.72.91 1.73.91 1.81 1.18 1.86 1.58 1.91 2.01 1.93 2.31 1.96 2.38 1.98 2.2 2.01 1.87 2.04 1.56 2.05 1.41 2.05 1.47 2.03 1.76 2.03 2.13 2.05 2.5 2.1 2.78 2.15 2.99 2.18 3.17 2.2 3.27 2.21 3.02 2.25 2.23 2.36 1.14 2.51.75 2.72L92 4.95" filter="url(#a)"/><path d="m39.28-52.17 1.45 1.3 2.32 1.73 2.02 1.94 1.3 1.91.81 1.83.61 1.81.62 1.85.77 1.9 1.01 1.92 1.27 1.92 1.53 1.91 1.68 1.93 1.68 1.97 1.51 2.04 1.22 2.11.86 2.19.55 2.23.35 2.26.28 2.24.35 2.23.5 2.2.66 2.19.76 2.18.74 2.18.61 2.21.39 2.23.11 2.26-.11 2.27-.19 2.29-.12 2.27.06 2.24.2 2.19.28 2.14.37 2.15.41 2.4" filter="url(#a)"/><path d="m35.27-57.25 1.63 1.84 1.54 1.47 2.08 1.46 2.52 1.57 2.63 1.71 2.48 1.79 2.15 1.82 1.72 1.8 1.37 1.81 1.21 1.84 1.24 1.87 1.34 1.89 1.41 1.9L60-32.6l1.39 1.87 1.46 1.88 1.67 1.96 1.97 2.07 2.22 2.19 2.27 2.28 2.15 2.3 2.01 2.27 2.02 2.26 2.05 2.27 1.54 2.1.68 1.36M35.27-57.25l5.22 1.84 4.8 1.47 3.02 1.46 1.75 1.57.76 1.71.3 1.79.57 1.82 1.39 1.8 2.37 1.81 3.17 1.84 3.52 1.87 3.4 1.89 2.97 1.9 2.48 1.88 2.15 1.87 2.08 1.88 2.24 1.96 2.52 2.07 2.82 2.19 3.11 2.28 3.32 2.3 3.3 2.27 2.89 2.26 2.18 2.27 1.85 2.1 3.41 1.36" filter="url(#a)"/><path d="m34.46-57.91 1.93 1.86 1.68 1.47 1.42 1.46 1.24 1.57L42-49.9l1.48 1.71 1.86 1.75 2.28 1.77 2.63 1.82 2.74 1.86 2.61 1.9 2.31 1.93 2.01 1.96 1.89 1.98 2 2.02 2.27 2.04 2.55 2.05 2.66 2.05 2.52 2.05L76-20.96l1.82 2.06 1.6 2.1 1.7 2.16 2.13 2.19 2.73 2.21 3.27 2.22 3.39 2.26 2.95 2.37 2.3 2.52 2 2.73.23 3.09M34.46-57.91l6.28 1.85 1.99 1.45.97 1.44 1.52 1.55 2.28 1.64 2.8 1.69 3.21 1.72 3.61 1.75 3.89 1.79 3.95 1.84 3.72 1.87 3.38 1.91 3.14 1.93 3.16 1.96 3.47 1.99 3.84 2.04 4 2.06 3.81 2.06 3.39 2.01 3.13 1.93 3.29 1.88 3.79 1.98 4.42 2.26 5.85 2.39" filter="url(#a)"/><path d="m34.46-57.91 2.17 1.86 2.35 1.47 3.59 1.46 4.04 1.56 3.53 1.65 2.88 1.71 2.53 1.74 2.32 1.77 2.04 1.82 1.7 1.86 1.58 1.89 1.86 1.93 2.53 1.96 3.33 1.98 3.94 2.01 4.12 2.04 3.88 2.05 3.38 2.05 2.91 2.05 2.6 2.03 2.47 2.06 2.47 2.1 2.55 2.15 2.69 2.2 2.82 2.2 2.77 2.2 2.39 2.22 2.16 2.34 3.39 2.46 6.81 2.59M30.8-61.45l1.84 1.77 1.52 1.47 1.36 1.39 1.34 1.39L38.23-54l1.37 1.5 1.34 1.59 1.27 1.69 1.19 1.75 1.14 1.79 1.11 1.81 1.09 1.83 1.09 1.85 1.05 1.88.98 1.89.89 1.9.78 1.9.69 1.9.66 1.93.68 1.99.72 2.08.79 2.19.82 2.25.81 2.29.78 2.28.71 2.24.65 2.19.56 2.1.42 1.97.3 1.87.53 1.87" filter="url(#a)"/><path d="m29.07-62.94 2.3 1.43 1.84 1.34 1.88 1.33 2.25 1.34 2.6 1.37 2.63 1.42 2.38 1.48 2.11 1.55 2.07 1.62 2.29 1.68 2.66 1.72 2.99 1.76 3.17 1.8 3.18 1.85 3.14 1.88 3.12 1.92 3.16 1.94 3.17 1.98 3.04 2.01 2.66 2.04 2.12 2.06 1.55 2.05 1.28 2.04 1.5 2 2.36 2 3.65 2.08 4.73 2.22 4.48 2.35 2.12 2.23-1.61 1.47" filter="url(#a)"/><path d="m29.07-62.94 2.35 1.43 1.54 1.36 2.05 1.33 2.76 1.35 3 1.38 2.62 1.44 1.93 1.49 1.24 1.57.75 1.63.52 1.69.54 1.73.72 1.78.97 1.82 1.24 1.86 1.5 1.9 1.7 1.93 1.89 1.96 2.02 1.99 2.11 2.02 2.17 2.05 2.23 2.05 2.35 2.06 2.53 2.06L72.53-21l2.87 2.08 2.82 2.12 2.5 2.16 2 2.19 1.46 2.22 1.09 2.25 1 2.3 1.09 2.38 1.22 2.5 1.27 2.59 1.31 2.54.63 1.99" filter="url(#a)"/><path d="m28.69-63.35 2.63 1.16L33.91-61l2.14 1.3 2.2 1.35 2.33 1.36 2.24 1.37 1.93 1.41 1.66 1.47 1.55 1.56 1.61 1.64 1.76 1.72 1.96 1.77 2.14 1.78 2.26 1.78 2.2 1.8 1.9 1.87 1.42 1.92.99 1.94.99 1.9 1.54 1.8 2.3 1.64 2.57 1.56 2.83 2.16" filter="url(#a)"/><path d="m26.21-65.04 3.67 1.49 4.05 1.29 3.83 1.27 3.58 1.33 3.16 1.35 2.68 1.38 2.38 1.41 2.25 1.45 2.1 1.51 1.78 1.59 1.27 1.67.73 1.73.39 1.78.41 1.8.81 1.83 1.51 1.86 2.36 1.87 3.23 1.9 3.94 1.9 4.37 1.89 4.39 1.91 3.99 1.92 3.25 1.99 2.38 2.08 1.71 2.19 1.53 2.26 1.89 2.3 2.59 2.29 3.19 2.27 3.36 2.22 3.16 2.12 3.22 1.91 4.06 2" filter="url(#a)"/><path d="m26.9-64.74 2.21.76 2.8 1.14 2.45 1.29 1.72 1.32 1.27 1.34 1.36 1.37 1.79 1.39 2.22 1.44 2.42 1.5 2.32 1.56 1.99 1.62 1.64 1.68 1.4 1.73 1.36 1.77 1.48 1.82 1.69 1.86 1.89 1.89 2.03 1.93 2.13 1.96 2.24 1.99 2.38 2.02 2.55 2.04 2.62 2.06 2.56 2.06 2.31 2.06 1.99 2.06L81.46-19l1.75 2.11 2.06 2.16 2.6 2.2 3.11 2.22 3.3 2.23 2.99 2.28 2.39 2.37 1.95 2.53 1.85 2.75 1.2 3.1" filter="url(#a)"/><path d="m25.1-65.81 1.42.91 1.29.96 1.39 1.13 1.44 1.24 1.43 1.29 1.39 1.33 1.36 1.35 1.33 1.39 1.33 1.43 1.32 1.48 1.31 1.55 1.29 1.6 1.26 1.67 1.24 1.71 1.2 1.76 1.17 1.8 1.13 1.84 1.09 1.89 1.04 1.91.98 1.95.93 1.98.87 2.01.83 2.04.77 2.07.72 2.06.67 2.03.62 1.99.59 1.97.63 2.06.72 2.28.74 2.57.53 2.87M22.5-67.44l2.24.82 1.38.88 1.64 1.01 2.09 1.13 2.45 1.19 2.73 1.25 2.86 1.29 2.78 1.32 2.52 1.35 2.29 1.38 2.29 1.41 2.62 1.46 3.14 1.54 3.58 1.63 3.73 1.71 3.51 1.76 3.06 1.77 2.72 1.75 2.69 1.78 2.9 1.86 3.03 1.97 2.95 2 3.36 1.98 6.49 2.56" filter="url(#a)"/><path d="m22.5-67.44-.06.83 1.27.89 1.36 1.03 1.23 1.14 1.05 1.21.93 1.26.88 1.31.87 1.34.81 1.37.73 1.4.6 1.44.47 1.51.35 1.57.27 1.65.23 1.72.22 1.76.24 1.79.23 1.81.18 1.85.04 1.87-.14 1.9-.3 1.91-.37 1.88-.26 1.85.02 1.84.32 1.89.44 2.05.15 2.28-.51 2.48-1.13 2.41-1.16 1.78m-10.35-52 1.75 1.07 2 1.14 2.23 1.09 2.63 1.07 2.97 1.14 3.13 1.2 3.07 1.25 2.84 1.3 2.5 1.32 2.07 1.35 1.64 1.39 1.33 1.43 1.3 1.5 1.67 1.57 2.38 1.63 3.27 1.67 4.03 1.71 4.41 1.75 4.33 1.8 3.86 1.86 3.18 1.87 2.6 1.89 2.81 2.3" filter="url(#a)"/><path d="m21.2-68.1 2.82.71 1.75.8 1.6.91 1.41 1.03 1.24 1.13 1.2 1.2 1.24 1.26 1.36 1.31 1.48 1.34 1.6 1.38 1.69 1.41 1.79 1.47 1.84 1.52 1.88 1.58 1.87 1.66 1.82 1.72 1.71 1.76 1.59 1.8 1.49 1.83 1.44 1.85 1.44 1.88 1.47 1.89 1.47 1.9 1.43 1.9 1.31 1.91 1.15 1.92 1.01 1.99.95 2.08.96 2.19.98 2.28.99 2.31.98 2.3 1.02 2.29 1.2 2.28 1.4 2.13 1.49 1.39" filter="url(#a)"/><path d="m21.2-68.1 1.5.7 1.6.78 1.98.88 2.35.99 2.43 1.1 2.26 1.18 1.94 1.23 1.67 1.28 1.51 1.31 1.51 1.34 1.63 1.36 1.78 1.39 1.89 1.44 1.94 1.51L49.14-50l1.98 1.72 2.09 1.79 2.24 1.78 2.38 1.65 2.49 1.57 2.59 1.78 2.08 2.49" filter="url(#a)"/><path d="m19.3-69.37 1.71 1.04 1.82.87 2.21.86 2.41.93 2.39 1.03 2.4 1.12 2.51 1.2 2.65 1.25 2.72 1.31 2.68 1.34 2.55 1.37 2.33 1.42 2.09 1.46 1.9 1.52 1.78 1.59 1.75 1.65 1.81 1.72 1.93 1.76 2.04 1.8 2.15 1.82 2.21 1.86 2.28 1.88 2.37 1.89 2.49 1.9 2.59 1.91 2.55 1.9 2.35 1.93 1.92 1.99 1.44 2.08 1.12 2.19 1.19 2.28 1.62 2.31 2.14 2.3 2.31 2.29 2.03 2.29 2.02 2.13 2.46 1.39" filter="url(#a)"/><path d="m19.3-69.37 1.83 1.03 1.82.85 1.98.84 2.21.89 2.33 1 2.21 1.08 1.89 1.17 1.53 1.22 1.35 1.27 1.43 1.31 1.77 1.33 2.24 1.36 2.65 1.39 2.84 1.42 2.75 1.5 2.45 1.61 2.17 1.73 2.11 1.83 2.22 1.8 2.25 1.59 2.01 1.32 2.32 1.49" filter="url(#a)"/><path d="m16.84-70.32 3.08 1.21 2.38.92 1.99.96 1.84 1.03 1.98 1.06 2.36 1.11 2.79 1.16 3.09 1.21 3.13 1.26 2.92 1.3 2.58 1.34 2.26 1.38 2.09 1.42 2.15 1.47 2.41 1.53 2.73 1.59 3 1.64 3.1 1.7 2.99 1.74 2.7 1.79 2.38 1.83 2.15 1.87 2.19 1.91 2.58 1.93 3.28 1.95 4.12 1.99 4.74 2.05 4.67 2.13 3.66 2.22 2.26 2.28 2.34 2.68" filter="url(#a)"/><path d="m16.84-70.32 2.75 1.21 1.94.93 1.86.97 1.75 1.03 1.62 1.08 1.52 1.11 1.51 1.17 1.54 1.22 1.57 1.27 1.56 1.31L36-57.67l1.51 1.4 1.46 1.43 1.43 1.49 1.4 1.55 1.38 1.61 1.35 1.66 1.31 1.71 1.26 1.76 1.18 1.8 1.09 1.85 1.01 1.88.95 1.92.93 1.96.94 1.98.97 2.02 1.01 2.04 1.02 2.07 1.03 2.06 1.01 2.05 1 2.02.99 2.02.95 2.09.83 2.23.66 2.36.54 2.24.65 1.49" filter="url(#a)"/><path d="m15.99-70.81 1.6.75 2.09.9 1.98.91 1.81.96 1.7 1.01 1.69 1.04 1.81 1.08 2.03 1.13 2.36 1.19 2.77 1.23 3.2 1.28 3.5 1.31 3.58 1.34 3.35 1.37 2.89 1.42 2.38 1.49 2.01 1.56 1.93 1.62 2.15 1.66 2.64 1.67 3.19 1.68 3.1 1.83 1.55 2.12" filter="url(#a)"/><path d="m14.2-71.28 1.92.55 2.46.75 2.43.86 2.06.92 1.71.98 1.52 1.02 1.48 1.07 1.51 1.11 1.56 1.16 1.61 1.22 1.62 1.26 1.61 1.31 1.59 1.34 1.54 1.39 1.52 1.44 1.51 1.48 1.54 1.54 1.59 1.6 1.68 1.66 1.79 1.7 1.89 1.76 1.98 1.8 2.04 1.84 2.07 1.88 2.06 1.92 2 1.94 1.88 1.99 1.73 2.01 1.55 2.05 1.36 2.08 1.2 2.08 1.13 2.05 1.18 1.97 1.38 1.92 1.61 2 1.56 2.28.52 2.43" filter="url(#a)"/><path d="m13.79-71.66 1.27.45 2.07.78 2.54.93 3.01.94 3.5.93 3.73.92 3.52.95 2.94 1.01 2.28 1.09 1.91 1.16 1.99 1.22 2.4 1.27 2.91 1.31 3.18 1.35 3.18 1.38 3.01 1.41 3 1.47 3.39 1.54 4.15 1.62 5.02 1.71 5.53 1.76 5.42 1.77 4.77 1.76 4.18 1.76 4.25 1.87 4.99 2.03 5.2 1.94 5.01 1.01" filter="url(#a)"/><path d="m13.79-71.66 1.74.45 2.67.79 2.3.93 1.84.95 1.74.93 1.98.93 2.36.96 2.63 1.03 2.7 1.09 2.55 1.17 2.33 1.23 2.19 1.28 2.27 1.32 2.53 1.35 2.92 1.4 3.27 1.44 3.51 1.49 3.58 1.56 3.53 1.63 3.39 1.7 3.2 1.76 2.97 1.78 2.72 1.8 2.57 1.84 2.62 1.88 2.97 1.93 3.52 1.95 3.97 1.92 3.96 1.83 3.38 1.67 2.54 1.59 2.07 2.18" filter="url(#a)"/><path d="m13.87-71.53.99.33 1.99.52 2.56.7 2.59.8 2.54.88 2.85.94 3.47.99 4 1.03 4.05 1.07 3.52 1.12 2.69 1.17 1.97 1.23 1.69 1.26 2.03 1.3 2.86 1.33 3.99 1.35 5.01 1.38 5.55 1.45 5.34 1.56 4.54 1.71 3.52 1.71 1.32 1.14" filter="url(#a)"/><path d="m13.87-71.53 1.76.33 1.79.54 1.67.7 1.89.82 2.19.9 2.28.95 2.18 1 2.01 1.05 1.95 1.09L33.71-63l2.43 1.19 2.77 1.24 2.99 1.28 3.06 1.32 3.01 1.36 2.9 1.4 2.79 1.44 2.66 1.51 2.45 1.57 2.2 1.63 1.99 1.67 1.97 1.72 2.21 1.76 2.7 1.82 3.22 1.87 3.49 1.88 3.09 1.91 2.06 2.31" filter="url(#a)"/><path d="m9.22-72.98 2.72.69 2.11.55 1.49.53 1.42.59 1.62.68 1.87.79 2.05.86 2.14.93 2.18.99 2.19 1.03 2.23 1.08 2.28 1.13 2.3 1.18 2.25 1.23 2.12 1.27 1.94 1.31 1.82 1.34 1.84 1.37 2.02 1.42 2.28 1.48 2.44 1.56 2.35 1.64 1.99 1.67 1.71 1.64 2.14 1.61 3.56 1.7" filter="url(#a)"/><path d="m8.92-72.98 1.53.5 1.79.41 2.18.44 2.3.57 2.16.7 2.01.81 1.98.87 2.11.89 2.37.91 2.65.94 2.89.98 3.02 1.06 3.1 1.12 3.21 1.19 3.38 1.25 3.55 1.29 3.61 1.33 3.48 1.34 3.24 1.37 3.08 1.37 3.06 1.36 3.25 1.32 3.88 1.26" filter="url(#a)"/><path d="m7.69-73.1 1.84.33 2.05.49 1.95.52 1.75.53 1.67.6 1.72.68 1.86.78 2.01.85 2.15.92 2.33.98 2.52 1.02 2.76 1.07 3 1.12 3.19 1.18 3.3 1.22 3.28 1.27 3.18 1.3 3 1.33 2.76 1.35 2.52 1.39 2.35 1.46 2.39 1.57 2.51 1.71 2.64 1.72 3.69 1.15" filter="url(#a)"/><path d="m6.01-73.37 1.35.15 1.88.33 1.82.38 1.89.42 1.94.48 1.96.58 2.02.69 2.15.78 2.35.85 2.53.88 2.69.91 2.84.94 2.99 1 3.12 1.05 3.15 1.12 2.97 1.19 2.59 1.25 2.24 1.29 2.18 1.33 2.57 1.35 3.23 1.37 3.74 1.37 3.67 1.37 3.07 1.33 3.09 1.26" filter="url(#a)"/><path d="m4.91-73.49 1.87.12 1.62.27 1.7.38 1.68.44 1.62.5 1.62.53 1.69.6 1.8.67 1.94.76 2.03.83 2.1.9 2.18.97 2.26 1.01 2.38 1.05 2.48 1.11 2.57 1.16 2.62 1.22 2.61 1.26 2.48 1.3 2.21 1.32 1.86 1.34 1.53 1.33 1.33 1.23 1.22.91" filter="url(#a)"/><path d="m2.04-73.93 2.77.39 2.02.31 1.99.35 2.06.38 2.12.43 2.11.5 2.03.58 1.94.69 1.88.78 1.88.84 1.9.89 1.92.91 1.95.96 1.95 1.01 1.96 1.07 1.98 1.13 2.01 1.2 2.06 1.25 2.14 1.3 2.25 1.33 2.41 1.36 2.56 1.38 2.66 1.42L53.23-52l2.43 1.59 2.16 1.76 2.05 2.02 2.45 2.14 2.88 1.57" filter="url(#a)"/><path d="m2.04-73.93 2.74.39 1.96.31 1.93.34 2.08.38 2.28.42 2.54.48 2.86.57 3.09.68 3.16.77 3.09.83 3.01.88 3.07.9 3.3.93 3.56.98 3.69 1.05 3.63 1.11 3.48 1.18 3.41 1.25 3.45 1.29 3.46 1.32 3.37 1.35 3.62 1.37 4.71 1.4 4.8 1.58" filter="url(#a)"/><path d="m2.05-73.69 2.17.15 1.63.19 1.49.29 1.37.37 1.2.44 1.03.49.93.54.92.61.92.69.92.76.87.84.76.91.6.97.32 1.03-.08 1.07-.57 1.12-1.03 1.18-1.32 1.22-1.33 1.27-1.05 1.31-.63 1.34-.26 1.37-.2 1.41-.49 1.47-.99 1.57-1.43 1.67-1.61 1.69-1.36 1.6-.04 1.66" filter="url(#a)"/><path d="m1.6-73.91 1.17.19 1.83.18 1.99.21 2.01.29 1.99.36 1.94.44 1.87.48 1.79.55 1.75.61 1.75.68 1.8.76 1.9.84 2.01.91 2.11.96 2.2 1.02 2.26 1.08 2.29 1.12 2.32 1.18 2.38 1.22 2.46 1.27 2.53 1.31 2.52 1.33 2.44 1.38 2.31 1.41 2.25 1.48 2.36 1.57 2.59 1.66 2.64 1.7 2.39 1.6 2.3 1.66" filter="url(#a)"/></g><path fill="none" stroke="#000" stroke-linejoin="round" stroke-width="3" d="M-7.43 29.16Q8.84 40.53.705-4.47" filter="url(#a)"/><path fill="#D77F8C" stroke="#000" stroke-linejoin="round" stroke-width="3" d="m-16.72 36.67.48-.13.48-.14.48-.14.47-.13.46-.14.47-.15.46-.14.46-.14.45-.14.45-.15.45-.14.45-.15.44-.14.43-.15.44-.14.43-.15.43-.14.42-.15.42-.14.42-.15.42-.14.41-.15.4-.14.41-.14.4-.14.4-.14.4-.14.39-.14.39-.13.38-.13.39-.14.38-.13.37-.13.38-.12.37-.13.36-.12.37-.12.36-.12.36-.12.35-.11.36-.11.35-.11.34-.1.35-.1.34-.1.33-.1.34-.09.33-.09.33-.08.33-.08.32-.08.32-.07.32-.07.31-.07.31-.06.31-.06.31-.05.3-.05.3-.04.3-.04.3-.03.29-.03.29-.03.29-.01.28-.02.28-.01h.56l.27.01.27.02.27.02.27.02.26.04.26.04.26.04.26.05.25.06.25.07.25.07.25.08.24.08.24.1.24.1.23.1.24.12.23.12.23.13.22.14.23.14.22.16.22.16.22.17.21.17.21.19.21.2.21.2.21.21.2.22.2.23.2.24-.2-.24-.2-.23-.2-.22-.21-.21-.21-.2-.21-.2-.21-.19-.21-.17-.22-.17-.22-.16-.22-.16-.23-.14-.22-.14-.23-.13-.23-.12-.24-.12-.23-.1-.24-.1-.24-.1-.24-.08-.25-.08-.25-.07-.25-.07-.25-.06-.26-.05-.26-.04-.26-.04-.26-.04-.27-.02-.27-.02-.27-.02-.27-.01h-.56l-.28.01-.28.02-.29.01-.29.03-.29.03-.3.03-.3.04-.3.04-.3.05-.31.05-.31.06-.31.06-.31.07-.32.07-.32.07-.32.08-.33.08-.33.08-.33.09-.34.09-.33.1-.34.1-.35.1-.34.1-.35.11-.36.11-.35.11-.36.12-.36.12-.37.12-.36.12-.37.13-.38.12-.37.13-.38.13-.39.14-.38.13-.39.13-.39.14-.4.14-.4.14-.4.14-.41.14-.4.14-.41.15-.42.14-.42.15-.42.14-.42.15-.43.14-.43.15-.44.14-.43.15-.44.14-.45.15-.45.14-.45.15-.45.14-.46.14-.46.14-.47.15-.46.14-.47.13-.48.14-.48.14" filter="url(#a)"/></svg>