<svg xmlns="http://www.w3.org/2000/svg" width="500" height="500" viewBox="-100 -100 200 200"><defs><clipPath id="c"><path d="m25.73-5.08.11-.22.06-.22.03-.22-.01-.22-.05-.22-.09-.22-.13-.22-.16-.21-.19-.21-.24-.21-.26-.21-.3-.21-.33-.2-.36-.2-.4-.19-.37-.23-.42-.23-.46-.23-.5-.22-.54-.22-.59-.21-.62-.2-.65-.2-.7-.19-.72-.18-.76-.17-.79-.16-.82-.15-.85-.14-.87-.13-.89-.11-.91-.1-.94-.09-.94-.08-.97-.06-.97-.05-.99-.03-.99-.02h-1l-1 .02-1 .03-1.01.04-1 .07-.99.08-.99.09-.98.11-.97.13-.96.15-.94.16-.93.18-.91.19-.89.21-.88.22-.85.24-.83.26-.81.27-.78.28-.76.3-.74.31-.71.32-.68.33-.66.35-.63.36-.6.36-.57.38-.55.39-.53.4-.5.41-.48.42-.45.44-.42.44-.4.46-.37.47-.35.48-.32.48-.29.5-.27.51-.25.52-.22.53-.7 1.43.14.51.16.49.18.5.2.48.22.49.24.47.25.47.28.46.3.45.32.44.33.43.36.42.37.41.39.39.41.38.43.38.45.36.46.35.49.34.51.32.52.3.54.28.56.26.57.24.59.22.6.19.62.16.64.14.65.11.66.08.67.06.68.02h.7l.71-.03.71-.06.73-.09.73-.12.75-.14.75-.18.76-.2.77-.22.77-.25.78-.27.78-.3.8-.31.79-.34.8-.35.8-.37.81-.38.81-.39.81-.4.82-.42.82-.41.81-.43.82-.42.82-.43.82-.42.82-.42.81-.41.82-.4.81-.4.81-.39.8-.37.79-.35.66-.37.64-.36.64-.36.63-.36.62-.35.6-.35.59-.34.58-.34.56-.33.55-.33.52-.32.51-.32.48-.31.47-.31.44-.3"/></clipPath><clipPath id="b"><path d="m-28.2-8.37-.03-.21.03-.2.06-.2.11-.2.15-.19.19-.2.24-.19.27-.18.31-.19.35-.17.38-.18.42-.17.46-.16.48-.16.52-.15.5-.21.55-.21.6-.19.64-.19.69-.17.73-.16.77-.15.81-.14.85-.12.89-.11.92-.1.94-.09.98-.08 1-.06 1.02-.05 1.04-.03 1.06-.02 1.07-.01h1.08l1.09.02 1.1.03 1.09.04 1.1.05 1.1.07 1.09.08 1.09.09 1.07.1 1.07.11 1.05.13 1.03.14 1.02.14.99.16.98.17.95.18.93.18.9.2.88.21.85.22.82.22.79.24.77.24.73.25.7.26.67.26.65.28.61.28.58.28.55.3.53.3.49.3.47.31.44.32.42.33.39.34.36.34.33.35.31.36.28.36.26.37.23.38.21.39.18.39.16.4.13.41-3.41 4.89-.31.55-.32.54-.33.54-.35.54-.36.53-.38.53-.38.52-.4.51-.41.5-.41.49-.43.48-.43.47-.45.46-.45.44-.46.43-.47.42-.48.4-.49.4-.5.37-.5.36-.51.34-.52.31-.52.29-.52.26-.53.23-.53.2-.53.17-.52.14-.53.11-.54.07-.53.04h-.53l-.53-.04-.53-.06-.53-.11-.54-.14-.53-.18-.54-.21-.54-.24-.55-.27-.55-.31L-.1 12l-.56-.36-.57-.39-.58-.42-.59-.43-.59-.46-.61-.48-.63-.5-.63-.5-.66-.52-.67-.53-.68-.53-.71-.54-.72-.53-.75-.54-.76-.53-.79-.52-.81-.51-.82-.5-.85-.49-.87-.47-.89-.45-.91-.43-.66-.44-.66-.44-.66-.44-.67-.43-.66-.42-.66-.41-.66-.4-.65-.4-.64-.38-.64-.38-.62-.36-.61-.36-.6-.35-.58-.34-.56-.32"/></clipPath><filter id="a"><feTurbulence baseFrequency=".05" numOctaves="3" result="noise" type="noise"/><feDisplacementMap in="SourceGraphic" in2="noise" scale="2"/></filter></defs><rect width="100%" height="100%" x="-100" y="-100" fill="#F08080"/><path fill="plum" stroke="#000" stroke-linejoin="round" stroke-width="1.667" d="m72.41 1.23-.17.3.18 1.35-.08 1.74.04-.48-.42 3.15.2.12-.39 3.56.23-.56-.32 2.66-.04.32-.57 2.97.06.86-.19.66.04.26-.71 3.01-.58 3.1.61-2.6-1.11 4.09.12-.91-.38 2.96-.78 1.22.16-.17-.81 2.95v.31l-.2.29-.99 3.43-.58.26-.55 1.9-.44.67h.21l-.92 2.5.04.29-2.01 4.08.83-1.92-1.27 2.28-.96 2.1-.48.91.01.04-.14.32-.72 1.34-1.44 2.1-.57 1.31-1.49 2.18.64-1.16-1.65 2.61-1.22 1.45-.14.35-.68.8-1.44 1.8.81-.76-2.63 2.8.63-.92-2.65 3.08-.03.08-1.09 1.34-.23.25-1.78 1.75.61-.75-.69.95-1.66 1.29-1.36 1.29.24.07-1.28.83-2.02 1.64.06-.32-2.19 1.75-.11.35-2.39 1.49-.02-.07-1.22.73-1.59 1.02-.83.23-1.42.89.85-.43-2.71 1.18-.88.59-.57.09-.65.59-.48-.1-2.64.9.22.42-.99.03-.85.54-1.16.36.55-.16-4.63 1.2-2.11.51 2.28-.33-2.1.25-.52.03-2.53.69-1.04.24-.59-.26-1.98.27-.15-.01-1.06.08-1.99.14.96.24-2.49.16-2.81-.29.84.15-.67.13-2.31-.16-1.12-.15h.1l-3.21-.19.95-.02-.6.02-2.72-.67-1.21.04-1.06-.17-.02-.34-1.69-.18-2.82-.79-.34-.21 1.61.62-2.54-.89-1.36-.38-.17-.1-1.01-.5-2.5-.73-.18-.22-1.88-.94-1.39-.51.38.52-2.73-1.82-.26-.17-1.5-.76-.17.18-1.71-1-1.62-1.12-.69-.72-.73-.44-1.81-1.04 1.24.72-1.56-1.12-1.44-1.15-.17-.28-1.63-1.32-1.16-.91-1.27-1.14.76.66-1.19-1.16-3.15-2.82.69.47-2.33-1.99.24-.27-.59-.58-1.55-1.66-.4-.96-.55-.62-.64-.59-1.79-2.18-.24-.11-.58-.79-1.24-1.96.52.95-.96-1.71-1.43-2.46-1.47-1.9.56.08-1.99-2.91.1-.34-.73-1.07-.07-.42-.69-1.29.28.53-1.61-3.63.05-.41-1.02-2.23-1.11-2 .74 1.32-1.86-4.31.78 1.3-.48-1.22-.58-1.86-.66-1.29-.51-1.37-.35-1.78-.18-.32-.24-2.27-.65-1.36-.23-1.31.15-.37-.35-1.91-.04-.44-.1.2-.57-3.47-.13-.76-.26-1.26-.12-1.37-.31-3.66-.06-.2-.11-1.65-.15-.31-.28-2.93.26 1.73-.4-4.96.24 1.95-.14-3.59.09-1.49.26-2.71-.29 1.1.28-.26-.24-2.17.39-3.65.29-.94-.17-.8.35-2.78-.02 1.46.5-4.54.02.19.11-1.43.33-.52.07-.66 1.02-4.1-.21.4-.26 1.23.51-2.37.47-2.16.54-1.43-.02-.95.18-.37.31-1.07 1.26-3.57.11-.14-.05-.36 1.25-2.97.53-1.52.86-1.65.25-1.05.11-.18.95-1.4.19-.74.79-1.83.46-.99-.01-.12.44-.72 2.03-3.36-.35.77.48-1.36 1.39-1.93.23-.56 1.12-1.59.07.19 2.2-3.09 1.21-1.55.03-.12-.03.18.51-1.13 1.47-1.6 1.62-1.65-.51.11 2.29-2.53.62-.36.58-.92 1.57-1.02-.6.32.7-.85.29-.36 1.67-1.08-.03-.15 2.38-1.95.85-.79 1.02-.92 2.64-1.64-.47.49.02-.39.1-.01 3.94-2.35-.34.2.6-.31 2.05-1.34 2.02-.97-.31.12.45-.24 2.54-1.25.59-.26 1.08-.24 1.04-.21 1.8-.92-.42.1 1.55-.43.29-.13 1.87-.46 1.87-.67 2.1-.68.3-.08-.14-.09 2.33-.11-1.22.23 3.15-.76-.59.28 2.02-.29-.18.06 4.43-.3.69-.05.18-.27.82-.08 1.43.01 1.49.35.15-.15 2.65.19 1.6.15-.62-.3-.35.06 3.68.41.48.29 2.09.22.43-.04.51.49.28-.37 2.25.54.18.22 2.72.77.33.21.01-.14 3.02 1.23.29.06.22.22 2.13.57-.29.15 2.03.83.61.12.53.66 1.98.52 1.15.77-.2-.03 2.76 1.7-.88-.89 1.73.94 1.7 1.49 1.52.88.31.33 1.82 1.19-.64-.4 2.44 2.06-.01-.1 2.02 1.62.16.03.02.58 1.41.87 1.66 1.3-.67-.2 2.6 2.35.09.33.28-.07 2.19 2.9-.03-.55.72 1.1.91 1.05 1.74 2.28.69 1.29-.5-.56.06-.09 2.06 2.74.48.45 1.09 1.53.36.73 1.05 2.05.69.65.74 1.58-.23-.29.94 2.37.74 1.07.55 1.28.26.13 1.35 2.67.24.05.59 1.88.07.1 1.31 3.5.02-.53.55 2.84-.03-.59.33 1.34 1.22 3.21-.07-.03.45.97.29 1.65.13-.03 1.01 3.6-.15.55.43 1.88-.1-.25.13 1.53.76 3.74-.08-.25.36 1.71.27.69-.24-.27.31 3.18.44.69-.01 4.07.05.67v-.86l.23 3.61-.02-.34.15 2.57-.03 2.19-.17.3" filter="url(#a)"/><path fill="#fff" d="m-28.2-8.37-.03-.21.03-.2.06-.2.11-.2.15-.19.19-.2.24-.19.27-.18.31-.19.35-.17.38-.18.42-.17.46-.16.48-.16.52-.15.5-.21.55-.21.6-.19.64-.19.69-.17.73-.16.77-.15.81-.14.85-.12.89-.11.92-.1.94-.09.98-.08 1-.06 1.02-.05 1.04-.03 1.06-.02 1.07-.01h1.08l1.09.02 1.1.03 1.09.04 1.1.05 1.1.07 1.09.08 1.09.09 1.07.1 1.07.11 1.05.13 1.03.14 1.02.14.99.16.98.17.95.18.93.18.9.2.88.21.85.22.82.22.79.24.77.24.73.25.7.26.67.26.65.28.61.28.58.28.55.3.53.3.49.3.47.31.44.32.42.33.39.34.36.34.33.35.31.36.28.36.26.37.23.38.21.39.18.39.16.4.13.41-3.41 4.89-.31.55-.32.54-.33.54-.35.54-.36.53-.38.53-.38.52-.4.51-.41.5-.41.49-.43.48-.43.47-.45.46-.45.44-.46.43-.47.42-.48.4-.49.4-.5.37-.5.36-.51.34-.52.31-.52.29-.52.26-.53.23-.53.2-.53.17-.52.14-.53.11-.54.07-.53.04h-.53l-.53-.04-.53-.06-.53-.11-.54-.14-.53-.18-.54-.21-.54-.24-.55-.27-.55-.31L-.1 12l-.56-.36-.57-.39-.58-.42-.59-.43-.59-.46-.61-.48-.63-.5-.63-.5-.66-.52-.67-.53-.68-.53-.71-.54-.72-.53-.75-.54-.76-.53-.79-.52-.81-.51-.82-.5-.85-.49-.87-.47-.89-.45-.91-.43-.66-.44-.66-.44-.66-.44-.67-.43-.66-.42-.66-.41-.66-.4-.65-.4-.64-.38-.64-.38-.62-.36-.61-.36-.6-.35-.58-.34-.56-.32" filter="url(#a)" transform="translate(39.13 -24.84)"/><path fill="#fff" d="m25.73-5.08.11-.22.06-.22.03-.22-.01-.22-.05-.22-.09-.22-.13-.22-.16-.21-.19-.21-.24-.21-.26-.21-.3-.21-.33-.2-.36-.2-.4-.19-.37-.23-.42-.23-.46-.23-.5-.22-.54-.22-.59-.21-.62-.2-.65-.2-.7-.19-.72-.18-.76-.17-.79-.16-.82-.15-.85-.14-.87-.13-.89-.11-.91-.1-.94-.09-.94-.08-.97-.06-.97-.05-.99-.03-.99-.02h-1l-1 .02-1 .03-1.01.04-1 .07-.99.08-.99.09-.98.11-.97.13-.96.15-.94.16-.93.18-.91.19-.89.21-.88.22-.85.24-.83.26-.81.27-.78.28-.76.3-.74.31-.71.32-.68.33-.66.35-.63.36-.6.36-.57.38-.55.39-.53.4-.5.41-.48.42-.45.44-.42.44-.4.46-.37.47-.35.48-.32.48-.29.5-.27.51-.25.52-.22.53-.7 1.43.14.51.16.49.18.5.2.48.22.49.24.47.25.47.28.46.3.45.32.44.33.43.36.42.37.41.39.39.41.38.43.38.45.36.46.35.49.34.51.32.52.3.54.28.56.26.57.24.59.22.6.19.62.16.64.14.65.11.66.08.67.06.68.02h.7l.71-.03.71-.06.73-.09.73-.12.75-.14.75-.18.76-.2.77-.22.77-.25.78-.27.78-.3.8-.31.79-.34.8-.35.8-.37.81-.38.81-.39.81-.4.82-.42.82-.41.81-.43.82-.42.82-.43.82-.42.82-.42.81-.41.82-.4.81-.4.81-.39.8-.37.79-.35.66-.37.64-.36.64-.36.63-.36.62-.35.6-.35.59-.34.58-.34.56-.33.55-.33.52-.32.51-.32.48-.31.47-.31.44-.3" filter="url(#a)" transform="translate(-37.02 -29.15)"/><g fill="none" stroke="#000" transform="translate(39.13 -24.84)"><path stroke-linejoin="round" stroke-width="1.667" d="m-25.42-6.44-.5-.17-.44-.18-.4-.19-.35-.19-.3-.2-.25-.19-.21-.2-.16-.21-.11-.2-.06-.2-.03-.21.03-.2.06-.2.11-.2.15-.19.19-.2.24-.19.27-.18.31-.19.35-.17.38-.18.42-.17.46-.16.48-.16.52-.15.5-.21.55-.21.6-.19.64-.19.69-.17.73-.16.77-.15.81-.14.85-.12.89-.11.92-.1.94-.09.98-.08 1-.06 1.02-.05 1.04-.03 1.06-.02 1.07-.01h1.08l1.09.02 1.1.03 1.09.04 1.1.05 1.1.07 1.09.08 1.09.09 1.07.1 1.07.11 1.05.13 1.03.14 1.02.14.99.16.98.17.95.18.93.18.9.2.88.21.85.22.82.22.79.24.77.24.73.25.7.26.67.26.65.28.61.28.58.28.55.3.53.3.49.3.47.31.44.32.42.33.39.34.36.34.33.35.31.36.28.36.26.37.23.38.21.39.18.39.16.4.13.41.11.41.08.42.07.43.04.43.02.44-.01.45-.02.45-.04.45-.06.47-.08.47" filter="url(#a)"/><path stroke-linejoin="round" stroke-width="2.222" d="m-29.01-7.33.16.25.23.26.27.27.33.27.37.27.41.29.44.29.48.3.51.31.53.32.56.32.58.34.6.35.61.36.62.36.64.38.64.38.65.4.66.4.66.41.66.42.67.43.66.44.66.44.66.44.91.43.89.45.87.47.85.49.82.5.81.51.79.52.76.53.75.54.72.53.71.54.68.53.67.53.66.52.63.5.63.5.61.48.59.46.59.43.58.42.57.39.56.36.55.34.55.31.55.27.54.24.54.21.53.18.54.14.53.11.53.06.53.04h.53l.53-.04.54-.07.53-.11.52-.14.53-.17.53-.2.53-.23.52-.26.52-.29.52-.31.51-.34.5-.36.5-.37.49-.4.48-.4.47-.42.46-.43.45-.44.45-.46.43-.47.43-.48.41-.49.41-.5.4-.51.38-.52.38-.53.36-.53.35-.54.33-.54.32-.54.31-.55.29-.55.28-.54.26-.55.25-.55.23-.54.21-.55.2-.54.19-.54.17-.54.15-.53" filter="url(#a)"/><circle cx="-24.481" cy="-7.74" r="4.382" clip-path="url(#b)" filter="url(#a)"/><circle cx="-26.656" cy="-3.695" r="3.422" clip-path="url(#b)" filter="url(#a)"/><circle cx="-24.936" cy="-7.61" r="3.828" clip-path="url(#b)" filter="url(#a)"/><circle cx="-22.941" cy="-6.48" r="4.388" clip-path="url(#b)" filter="url(#a)"/><circle cx="-26.016" cy="-5.4" r="4.404" clip-path="url(#b)" filter="url(#a)"/><circle cx="-24.406" cy="-5.61" r="4.852" clip-path="url(#b)" filter="url(#a)"/><circle cx="-24.191" cy="-7.725" r="4.26" clip-path="url(#b)" filter="url(#a)"/><circle cx="-25.101" cy="-3.48" r="4.704" clip-path="url(#b)" filter="url(#a)"/><circle cx="-22.806" cy="-4.36" r="4.322" clip-path="url(#b)" filter="url(#a)"/><circle cx="-24.886" cy="-7.175" r="3.92" clip-path="url(#b)" filter="url(#a)"/></g><g fill="none" stroke="#000" transform="translate(-37.02 -29.15)"><path stroke-linejoin="round" stroke-width="2.222" d="m22.26-2.93.56-.2.5-.21.46-.21.41-.22.36-.21.33-.22.27-.22.24-.22.19-.22.15-.22.11-.22.06-.22.03-.22-.01-.22-.05-.22-.09-.22-.13-.22-.16-.21-.19-.21-.24-.21-.26-.21-.3-.21-.33-.2-.36-.2-.4-.19-.37-.23-.42-.23-.46-.23-.5-.22-.54-.22-.59-.21-.62-.2-.65-.2-.7-.19-.72-.18-.76-.17-.79-.16-.82-.15-.85-.14-.87-.13-.89-.11-.91-.1-.94-.09-.94-.08-.97-.06-.97-.05-.99-.03-.99-.02h-1l-1 .02-1 .03-1.01.04-1 .07-.99.08-.99.09-.98.11-.97.13-.96.15-.94.16-.93.18-.91.19-.89.21-.88.22-.85.24-.83.26-.81.27-.78.28-.76.3-.74.31-.71.32-.68.33-.66.35-.63.36-.6.36-.57.38-.55.39-.53.4-.5.41-.48.42-.45.44-.42.44-.4.46-.37.47-.35.48-.32.48-.29.5-.27.51-.25.52-.22.53-.19.54-.17.55-.14.55-.12.57-.09.57-.08.58-.05.59-.02.59v.6l.01.61" filter="url(#a)"/><path stroke-linejoin="round" stroke-width="2.222" d="m27.01-5.24-.08.27-.14.27-.17.27-.22.27-.25.27-.29.28-.32.28-.36.29-.38.29-.41.29-.44.3-.47.31-.48.31-.51.32-.52.32-.55.33-.56.33-.58.34-.59.34-.6.35-.62.35-.63.36-.64.36-.64.36-.66.37-.79.35-.8.37-.81.39-.81.4-.82.4-.81.41-.82.42-.82.42-.82.43-.82.42-.81.43-.82.41-.82.42-.81.4-.81.39-.81.38-.8.37-.8.35-.79.34-.8.31-.78.3-.78.27-.77.25-.77.22-.76.2-.75.18-.75.14-.73.12-.73.09-.71.06-.71.03h-.7l-.68-.02-.67-.06-.66-.08-.65-.11-.64-.14-.62-.16-.6-.19-.59-.22-.57-.24-.56-.26-.54-.28-.52-.3-.51-.32-.49-.34-.46-.35-.45-.36-.43-.38-.41-.38-.39-.39-.37-.41-.36-.42-.33-.43-.32-.44-.3-.45-.28-.46-.25-.47-.24-.47-.22-.49-.2-.48-.18-.5-.16-.49-.14-.51-.12-.5-.1-.51-.07-.5-.06-.51-.04-.51-.02-.52v-.51l.03-.51.04-.51.05-.51" filter="url(#a)"/><circle cx="5.209" cy="4.792" r="4.96" clip-path="url(#c)" filter="url(#a)"/><circle cx="5.349" cy="5.982" r="3.444" clip-path="url(#c)" filter="url(#a)"/><circle cx="3.874" cy="7.332" r="3.4" clip-path="url(#c)" filter="url(#a)"/><circle cx="6.274" cy="6.347" r="3.092" clip-path="url(#c)" filter="url(#a)"/><circle cx="5.049" cy="6.287" r="4.376" clip-path="url(#c)" filter="url(#a)"/><circle cx="3.484" cy="4.542" r="4.478" clip-path="url(#c)" filter="url(#a)"/><circle cx="7.229" cy="4.072" r="3.928" clip-path="url(#c)" filter="url(#a)"/><circle cx="3.549" cy="8.632" r="4.668" clip-path="url(#c)" filter="url(#a)"/><circle cx="5.364" cy="4.037" r="4.24" clip-path="url(#c)" filter="url(#a)"/><circle cx="3.439" cy="6.907" r="3.444" clip-path="url(#c)" filter="url(#a)"/></g><g fill="none" stroke="#D8D8D8" stroke-linejoin="round" stroke-width="2"><path d="m-32.07-78.89 1.14-.59 1.64-.75 1.71-.63 1.74-.52 1.88-.47 2.03-.45 2.16-.42 2.25-.39 2.28-.36 2.3-.34 2.32-.32 2.34-.31 2.35-.32 2.34-.33 2.28-.33 2.14-.33 1.94-.29 1.71-.27 1.5-.22 1.37-.18 1.34-.14 1.38-.11" filter="url(#a)"/><path d="m.27-88.23 1.23.21 1.33.14 1.41.13 1.35.14 1.29.16 1.33.2 1.39.24 1.39.25 1.31.24 1.17.22 1 .2.85.17.69.14.52.1.3.06h.04l-.28-.07-.59-.14-.88-.21-1.09-.26-1.21-.33" filter="url(#a)"/><path d="m5.54-87.99.91.26 1.99.52 2.21.66 2.23.76 2.21.83 2.26.91 2.37.98 2.5 1.06 2.57 1.11 2.55 1.11 2.4 1.05 2.18.95 1.98.83 1.75.75M63.8-41.84l.14.35-.13.43-.47.19-.9-.21-1.39-.77-1.94-1.38-2.49-1.99-3.07-2.61-3.69-3.26-4.35-3.98-5.08-4.77-5.88-5.58-6.7-6.35-7.49-7.08" filter="url(#a)"/><path d="m29.82-80.2.28.36.19.55-.29.61-.8.75-1.36.88-2.03.95-2.77.96-3.53.96-4.28.95-5.04.97-5.83 1-6.71 1.05-7.65 1.14-8.63 1.27-9.58 1.42-10.47 1.55" filter="url(#a)"/><path d="m47.66-66.15.63.62.61.88.3.75.04.67-.24.61-.57.48-.92.3-1.29.14-1.64.01-1.97-.09-2.31-.17-2.67-.27-3.08-.42-3.51-.57-3.98-.77-4.48-.95-4.98-1.14-5.48-1.31-5.96-1.5-6.46-1.68-7-1.86-7.65-1.97-8.38-2.08m38.24-9.92.73.32.91.35.62.29.32.24.01.2-.39.16-.87.09-1.42.03-1.99-.03-2.58-.11-3.16-.19-3.78-.27-4.43-.38-5.16-.53m8.19-1.81 2.05.15 1.28.08.97.07 1.04.12 1.15.15 1.14.18.93.14.61.11.22.04-.19-.02-.58-.08-.93-.12-1.18-.13-1.47-.17" filter="url(#a)"/><path d="m-38.98-74.27 1.38-.96 1.42-.76 1.31-.56 1.48-.56 1.78-.64 2.06-.71 2.26-.76 2.38-.77 2.44-.75 2.45-.72 2.46-.7 2.43-.66 2.41-.62 2.37-.59 2.32-.56 2.23-.51 2.11-.47 1.92-.45 1.67-.44 1.4-.44 1.25-.42 1.47-.32m40.95 18.81 1.56 1.55.55.86.11.71-.21.65-.56.62-.92.57-1.33.51-1.76.41-2.24.29-2.7.15-3.15.05-3.6-.03-4.03-.09-4.51-.17-5.06-.25-5.65-.32-6.29-.41-6.94-.5-7.56-.61-8.13-.77-8.64-.96-9.12-1.18" filter="url(#a)"/><path d="m-2.16-87.89.51-.16 1.06.03 1.39.14 1.57.21 1.66.25 1.66.25 1.63.26 1.59.27 1.59.29 1.58.31 1.53.32 1.44.29 1.29.27 1.12.23.95.2.8.16.64.13.45.09.21.03-.08-.07-.47-.19-.9-.33m21.31 11.88 1.31 1.06.69.63.58.57.59.59.54.57.44.53.3.45.12.36-.06.24-.25.11-.48-.01-.72-.16-.98-.33-1.28-.53-1.6-.76-1.95-1.01-2.29-1.25-2.62-1.47-2.94-1.67L26.51-77l-3.56-2.11-3.87-2.38-4.37-2.69m30.26 15.35 1.73 1.63 1.07 1.11.96 1.06.97 1.1.93 1.08.86 1.04.76.96.61.82.43.58.19.27-.06-.09-.31-.44-.58-.77-.89-1.11-1.34-1.64M21.46-84.04l.75.35 1.16.53 1.28.63 1.35.7 1.41.75 1.44.77 1.41.78 1.32.73 1.19.66 1.01.56.81.44.61.32.33.17-.05-.07-.61-.44-1.3-.92" filter="url(#a)"/><path d="m61.64-45.92.49.99.52.95.49.94.39.86.25.73.12.58-.03.4-.19.15-.36-.11-.53-.4-.72-.69-.92-1.02-1.13-1.36-1.36-1.73-1.6-2.09-1.84-2.47-2.09-2.86-2.37-3.31-2.72-3.84-3.09-4.44-3.36-4.95m8.54 6.27.27.06.69.83.88 1.16.85 1.16.72 1.02.63.87.58.78.55.75.5.7.42.62.3.47.12.28-.08.02-.3-.28-.53-.57-.75-.86-.98-1.17-1.22-1.51-1.48-1.87-1.78-2.29-2.07-2.72m-8.87-8.72.19.25.76.68.69.63.49.5.26.37.05.27-.14.18-.36.08-.6-.03-.89-.17-1.19-.34-1.52-.51-1.9-.72-2.32-.92-2.77-1.16-3.23-1.38-3.68-1.63-4.06-1.91-4.52-2.23-5.29-2.55m-10.71-2.71.36-.15.61.03.62.19.51.3.31.39.04.47-.28.56-.59.68-.89.83-1.19.99-1.53 1.16-1.92 1.34-2.35 1.51-2.78 1.68-3.2 1.84-3.59 2.01-4.01 2.2-4.5 2.45-5.06 2.73-5.68 3.02-6.23 3.24-6.68 3.34" filter="url(#a)"/><path d="m1.76-87.88 1.09.16 2.03.64 2.3 1.01 2.56 1.34 3.01 1.68 3.48 2 3.88 2.25 4.13 2.47 4.26 2.63 4.35 2.76 4.46 2.83 4.56 2.88 4.64 2.93 4.65 3.01m2.5.58.43.6.43.96.01.82-.48.61-1 .4-1.52.18-2.04-.07-2.58-.31-3.12-.55-3.66-.78-4.22-1.03-4.82-1.27-5.43-1.53-6.08-1.8-6.74-2.08-7.42-2.35-8.16-2.6-8.99-2.82-9.9-3.04m84.08 30.86.76 1.75.02 1.04-.49.85-.94.77-1.4.66-1.87.48-2.37.3-2.83.11-3.32-.06-3.8-.24-4.31-.41-4.85-.57-5.42-.72-6-.84-6.59-.96-7.2-1.12-7.78-1.31-8.35-1.53-8.86-1.81-9.38-2.07-10.01-2.24-10.94-2.06" filter="url(#a)"/><path d="m56.26-55.61.83 1.26.63 1.11.51.97.36.81.19.63.04.48-.11.33-.26.16-.44-.03-.62-.25-.84-.47-1.08-.71-1.33-.96-1.6-1.23-1.9-1.52-2.2-1.85-2.51-2.18-2.81-2.55L40-64.5l-3.42-3.25-3.74-3.63-4.09-4.04-4.66-4.55m-2.41-3.85 1.4.45.93.4.85.4.79.4.71.38.6.36.44.33.25.28.07.23-.13.19-.33.16-.56.1-.85.04-1.18-.06-1.53-.18-1.9-.29-2.26-.4-2.65-.5-3.11-.62-3.65-.75-4.21-.88-4.63-1.04-4.78-1.21" filter="url(#a)"/><path d="m4.56-87.84.82.04.36.03.53.14.65.24.55.3.28.33-.03.38-.34.42-.61.49-.87.58-1.12.65-1.41.74-1.75.81-2.13.91-2.56 1-3.02 1.12-3.5 1.24-3.95 1.32-4.37 1.4-4.76 1.43-5.1 1.43-5.42 1.41-5.84 1.4m60.49-14.01.68.31.97.38.95.41.88.4.79.37.66.32.46.25.21.14-.11.02-.47-.14-.88-.31-1.3-.48-1.8-.68-2.4-.93-3.18-1.28" filter="url(#a)"/><path d="m23.81-83.25.41.34.97.49 1.09.53 1.13.57 1.13.58 1.08.56 1.01.54.91.5.82.47.72.43.57.37.41.3.19.19-.07.06-.33-.09-.61-.25-.9-.41-1.19-.58-1.51-.78-1.81-.95-2.1-1.12-2.25-1.25m18.91 11.34.26.3.66.71.96.96 1.09 1.09 1.11 1.16 1.11 1.18 1.06 1.16 1.01 1.11.92 1.03.82.94.71.83.57.71.43.54.25.34.06.07-.17-.24-.4-.55-.64-.84-.87-1.1-1.24-1.5M18.14-85.19l.52.24.45.52-.23.54-.92.58-1.57.64-2.23.74-2.96.86-3.75 1-4.61 1.18-5.54 1.36-6.49 1.5-7.46 1.61-8.43 1.69-9.4 1.73" filter="url(#a)"/><path d="m-1.16-88.24 1.17.13.77.23.44.33.01.44-.52.58-1.03.74-1.48.93-1.91 1.11-2.37 1.29-2.94 1.47-3.61 1.66-4.35 1.88-5.1 2.17-5.86 2.51-6.61 2.88-7.37 3.2m3.96-8.5 1.63-.96.86-.47.97-.52 1.29-.68 1.55-.79 1.69-.83 1.71-.83 1.68-.8 1.61-.76 1.5-.69 1.41-.64 1.31-.58 1.21-.52 1.1-.46.93-.39.73-.32.48-.21.15-.09-.26.07-.71.22-1.02.31m39.82 1.31 1.23.47.44.5v.58l-.4.67-.83.76-1.3.84-1.8.91-2.34.99-2.91 1.07-3.51 1.18-4.13 1.34L1.34-73l-5.51 1.68-6.28 1.82-7.09 1.93-7.84 2.01-8.5 1.98-9 1.75" filter="url(#a)"/><path d="m61.64-45.92.37.94.15.8-.13.7-.49.56-.88.38-1.27.22-1.68.01-2.1-.22-2.53-.48-2.94-.74-3.38-.99-3.83-1.24-4.31-1.51-4.81-1.77-5.32-2.04-5.84-2.3-6.36-2.55-6.93-2.83-7.52-3.12-8.12-3.43-8.69-3.73-9.43-3.91m-7.33-5.92.09-.05.76-.44.98-.56.9-.48.73-.34.58-.22.44-.08.28.04.1.18-.12.33-.37.48-.63.65-.9.85-1.19 1.08-1.5 1.32-1.85 1.59-2.26 1.91-2.73 2.21-3.17 2.5-3.48 2.66-3.62 2.61m26.68-20.74 1.34-.47 1.39-.01 1.86.21 2.43.37 2.9.49 3.26.64 3.47.82 3.62 1.01 3.77 1.19L5.95-78l4.1 1.43 4.29 1.51 4.45 1.56 4.6 1.6 4.74 1.66 4.86 1.77 4.95 1.91 4.94 2 4.73 1.8" filter="url(#a)"/><path d="m-11.68-86.83 1.96-.42 1.14-.16 1.1-.1 1.17-.1 1.1-.08.86-.05h.55l.25.08-.04.15-.29.23-.56.29-.88.35-1.27.39-1.69.46-2.14.55-2.6.64-3.06.77-3.57.86-3.92.85m53.39 1.92.41.36.57.52.35.55.14.65-.13.72-.48.75-.88.73-1.33.72-1.78.72-2.24.73-2.7.76-3.17.76-3.64.74-4.1.72-4.55.71-5.01.7-5.51.7-6.07.74-6.7.81-7.35.89-8 .98-8.6 1.01" filter="url(#a)"/><path d="m29.82-80.2.39.34.53.48.28.47.03.54-.29.58-.7.57-1.18.51-1.69.44-2.21.4-2.74.35-3.3.33-3.9.28-4.51.24-5.13.19-5.73.14-6.27.06-6.83-.04-7.52-.09h-8.52m-2.6-4.48 1.06-.6 1.44-.81 1.37-.72 1.25-.62 1.22-.56 1.19-.53 1.13-.46.99-.4.82-.32.62-.24.42-.15.2-.07-.04.03-.3.13-.65.27-1.08.44-1.56.63-1.84.75" filter="url(#a)"/><path d="m1.76-87.88.98.06 1.64.33 1.67.5 1.76.68 2 .86 2.28 1.03 2.48 1.16L17.14-82l2.61 1.32 2.61 1.37 2.65 1.42 2.7 1.47 2.73 1.51 2.76 1.56 2.74 1.57 2.68 1.55 2.53 1.42 2.34 1.25 2.15 1.12 2.13 1.25" filter="url(#a)"/><path d="m23.81-83.25.52.47 1.3.89 1.65 1.18 1.9 1.43 2.09 1.64 2.22 1.81 2.32 1.92 2.38 2 2.43 2.07 2.45 2.1 2.41 2.09 2.31 1.99 2.11 1.82 1.81 1.57 1.38 1.18m-88.41-17.74.04.2 1.1-.18 2.09-.43 2.79-.52 3.27-.5 3.62-.46 3.93-.4 4.18-.34 4.37-.29L-5.4-80l4.66-.23 4.78-.21 4.86-.16 4.93-.1 4.96-.07 4.96-.07" filter="url(#a)"/><path d="m-27.71-81.39 40.82 9.79 15.72 7.48 11.26 6.32L46-56.06l.72-2.21-2.2-3.58-3.36-3.03-3.92-1.76-3.95-.34-3.15 1.13-2.37 2.01-4 1.35-9.86-1.58-16.11-7.75 4.11-16.21" filter="url(#a)"/><path d="m11.44-87.01 28.67 34.95-9.03 4.28L17.1-55.2l-6.77-7.94-.66-4.82 1.93-2.36 2.08-1.58 1.14-1.66.37-1.72.44-1.54.9-1.44.07-1.58-4.2-1.45-14.51.48-36.87 6.54" filter="url(#a)"/><path d="m-42.21-71.53 40.94 1.21 22.57 3.79 5.21-2.33-3.4-4.09-6.23-2.88-6.93-1.02-7.35.22-7.47.6-6.75.41-5.14.04-3.01-.28-.65-.52 1.81-.68 4.18-.63 5.99-.15 6.86.94 6.9 2.24 5.92 2.79 2.2 1.32-7.14-1.96-21.55-1.42-38.35 15.11" filter="url(#a)"/><path d="m-27.26-81.63 1.1 2.46 10.34 1.54 7.67 4.79 4.43 5.52L-1.39-64l.87-.14-.08-3.14-.49-4.7-.49-4.7-.37-3.6-.25-2.15v-.94l.64-.19 1.55.29 2.12.92 1.38 1.91-1.33 2.92-5.74 2.99-9.41 1.15-7.32-2.41 5.57-5.43 27.4-5.71" filter="url(#a)"/><path d="M-53.6-58.82 16.08-53l9.03-7.36-11.41-7.07-9.56-4.11-.97-1.61 4.23-.23 3.1.11-1.73.19-5.68.71-5.65 1.42-1.82 1.03 2.54-1.34 4.1-4.7 2.94-6.19.95-4-9-1.69" filter="url(#a)"/><path d="m1.91-88.03-13.4 3.01 4.18 2.59 9.34 3.2 5.57 2.66.85 1.58-.84.78.01.49 1.78.58 3.46.87 4.57 1.08 4.65 1.03 3.24.68.53.18-2.58-.41-4.96-1.17-5.85-2.25-5.36-3.45-4.12-4.03-2.71-3.22-1.6-1.01-4.17 1.7-25.97 3.94" filter="url(#a)"/><path d="m-9.12-87.31 24.99 10.18 3.18 4.31 1.07 4.17 1.8 2.71h.99l-1.81-2.4-4.66-3.47-5.56-3.18-4.23-2.04-1.82-.58.37.88 1.83 2.12L9.31-72l1.12 1.84-.86.29 2.08.88 18.39 8.81L68.1-30.04" filter="url(#a)"/><path d="M8.87-87.52 24.34-68.6l-4.36-2.07-.98-3.09-.32-.46-.95 1.95.79 3.7 4.44 4.39 7.18 3.62 7.08 1.67 4.34-.5.4-1.88-3.65-2.18-7.49-1.88-10.72-1.68-11.73-1.81-8.14-1.83.35-1.42 8.77-.98 11.11-.6 27.11 7.17" filter="url(#a)"/><path d="m-44.24-69.41 25.8-5.91 22.37 2.37 7.64 3.06-1.47 1.73-4.52.36-5.71-.85-6.78-1.63-7.33-1.65-6.9-1.05-5.54-.33-3.5-.01-.94-.3 1.83-.97 4.09-1.42 5.25-1.17 5.73-.25 7.06.82 9.77 1.43 9.15 1.81-7.34 2.84-53.72 5.95" filter="url(#a)"/><path d="m53.47-59.44-58.46-7-12.09-4.37 1.89-2.24 5.67.3 7.91 2.17 8.88 2.39 7.54.99 4.33-.96.82-2.39-1.74-2.81-3.24-2.42-4.27-1.62-5.49-.73-6.9.25-7.85 1.34-7.29 2.47-4.3 3.51 1.36 4.41 8.87 5.22 16.24 5.59 20.19 4.04 16.55-1.54 4.35-9.53-1.47-6.46" filter="url(#a)"/><path d="m-23.05-83.38 35.01 16.56-.12-3.91-.51-3.3.3-.08-1.32 1.12-2.65.87-2.14.49-.1.58 2.52 1.13 4.65 1.8 5.32 2.28 3.98 2.33.97 1.8-2.37.78-4.35-.53-3.92-1.82-1.52-2.83.93-3.52.92-3.99-2.86-4.09-9.12-3.17-14.49-.16-17.26 5.73-21.21 14.94" filter="url(#a)"/><path d="m59.96-49.36-26.93 6.22-38.24-7.42-21.62-8.88-6.9-7.16 1.79-5.14 5.48-3.33 5.53-1.78 3.71-.65 2.19-.15 2.42-.19 4.33-.25 6.46.26 6.95 1.5 5.04 2.94 1.84 3.76.42 3.68 4.09 3.14L28.39-61l13.98-2.25 5.29-2.9" filter="url(#a)"/><path d="M12.38-86.56-4.58-63.58l9.52 11.63 11.55 3.19 9.59-2.06 4.31-5.33-1.51-6.71-5.09-6.39-5.66-5-4.32-3.33-2.65-1.96-1.65-1.07-1.53-.48-1.88-.07-2.19.26-1.85.43-.36.51 2.41.75 5.67 1.39 7.23 2.16 4.24 1.89-3.72-.43-7.61-3.07 23.31-1.21" filter="url(#a)"/><path d="M18.14-85.19-4.89-72.31l6.56 5.49-2.08 2.87-8.22.08-5.9-2.09-1.03-3.11 1.58-2.9 1.36-1.75-.07-.32-1.03.67-.66.7 1.19-.15 4.12-1.28 6.91-2.05 7.9-2.06 6.1-1.37 2.56.05.07 3.02-.53 8.49-9.19 13.7-63.36 2.48" filter="url(#a)"/><path d="m-51.88-61.44 70.73 8.88 21.28-.92 3.89-5.04-1.19-4.45-3.82-2.92-6.79-2.06-9.51-1.89-10.43-1.98-8.77-1.97-5.41-1.81-2.28-1.55-.94-1.11-1.24-.37-1.39.62.69 1.59 5.46 2.32 10.67 2.77 12.3 2.69 6.94.35-5.87-7.24-17.25-12.4" filter="url(#a)"/><path d="m53.47-59.44-56.65-9.51-13.44-4.95 2.83-.08 6.7 2.23 3.8 1.98-.81.56-3.66-.49-3.27-.68.09-.42 4.72-.16 8.41.15 9.81.86 8.81 1.92 5.16 2.43L23-64.15l-16.97-.5-29.56-2.09-12.24-9.99" filter="url(#a)"/><path d="m-46.39-67.47 49.74 3.83 9.48-5.41 6.65-3.26 7.5.57 5.17 2.51-.42 1.76-6.89-.5-11.5-2.31L.88-72.66l-9.3-.92-2.95.91 2.98 1.99 1.2 1.74-12.62-1.3-12.26-8.65" filter="url(#a)"/><path d="m43.98-69.93-21.72-7.58-19.83-2.95-13.14.38-6.55 2.39-.63 3.56 3.48 3.81 4.99 2.85 4.29 1.04 2.77-.67 1.82-1.51 1.78-1.38 1.58-.75-.1-.22-3.14-.16-5.29-.54-3.4-1.08 3.53-1.2 12.11-.6 15.57.16 10.17-.35 10.12 3.32" filter="url(#a)"/><path d="M55.78-56.06 20.03-74.74l.16.67 12.88 9.78 11.2 9.56 2.64 4.44-7.53-1.02-15.27-4.18-17.57-4.68-13.43-3.57-4.9-2.37 3.52-1.97 7.11-2.12 4.3-1.61-1.15.72-2.75 4.23-2.85 4.36-42.2-5.89" filter="url(#a)"/><path d="M51.73-61.72 2.91-65.2l-12.18-3.72-4.55-3.97 1.75-3.87 6.4-2.75 6.93-1.14 3.39.18-2.05.96-6.58 1.14-8.11.81-6.07.13-1.34-.66 4.35-1.27 9.12-1.3 11.55-.44 11.3 1.48 9.78 4.58 10.98 10.72 29.3 31.07" filter="url(#a)"/><path d="M40.37-73.03 10.36-62.4l9.3 1.93 6.3-2.82-1.84-3.24-7.96-3.25-10.61-3.47-10.06-3.25-7.37-2.39-3.75-1.2-.07-.03 3.15.81 5.5 1.21 6.65 1.11 6.45.51 5.15-.27 3.56-.72 2.89-.11 4.25 2.03 7.62 5.5 11.06 8.73 11.17 9.1 6.91 6.42 9.44 15.76" filter="url(#a)"/><path d="m17.81-85.4 20.23 22.94-13.89-1.92-18.2-4.74-8.61-2.26.57.51 3.65 2.22 2 2.64-.96 2.06-3.07.78-3.77-.89-2.82-2.51.1-3.33 4.58-2.85 8.7-1.5 9.72-.58 6.06-.9-1.6-1.26-14.14.74-46.19 2.77" filter="url(#a)"/><path d="M63.8-41.84 32.9-60.08l-18.15-8.38-5.62-4.75-3.7-3.36-3.99-2.64-2.16-1.88.99-1.07 3.23-.45 3.42-.1 2.18.13 1.04.49 1.16 1.12 2.59 1.99 4.09 2.76 4.05 3.01 1.49 2.31-2.99.63-7-1.28-7.85-1.73-5.01.32 1.76 2.31 37.94-2.38" filter="url(#a)"/><path d="m59.96-49.36-4.53-3.95-12.2-8.45-12.53-5.47-10.82-.78-9.42 1.96-7.58 2.6-4.75 2.04-1.22.93 2.4-.29 5.26-1.3 6.59-1.85 6.07-1.86 4.19-1.48 2.07-1 .76-.66.52-.73.57-1.26-.33-2.06-2.67-2.44-5.38-1.24-6.22 2.4-4.15 8.05L-.3-54.57l-55.5-1.16" filter="url(#a)"/><path d="m-39.83-73.48 16.98.81 26.67-.4 16.22 1.06 5.82 2.48.37 3.1-.58 2.66.85 1.58 2.37.37 2.58-.69 1.35-1.52-.62-2.11-2.39-2.47-3.38-2.57L23-73.51l-2.68-1.64-1.63-.51-.77.86-.83 2-2.8 2.33-7.6 1.57-13.87.11-15.23-1.26-.84-3.64 35.91-13.24" filter="url(#a)"/><path d="M66.55-34.59 17.7-65.42l-9.42-7.96 2.07.73 3.43 1.69 1.67.67-.03.1-.58.14.19.48 1.77.77 3.21.78 3.59.27 2.46-.69.15-1.76-2.43-2.4-4.12-2.1-4.11-.62-2.3 1.78.98 4.34 5.91 5.79 12.31 4.64 14.12-.38-1.6-9.68" filter="url(#a)"/><path d="m-24.72-82.88 53.64 24.17 7.41 1.79-9.24-5.89-8.36-6.13-2.82-3.85.84-1.29 2.03.77 2.3 2.12 2.49 2.6 2.17 2.08.65.73-2.11-1.02-5.2-2.51-7.31-3.22-7.35-2.96-5.09-1.99-1.33-.69 2.19.53 3.45 1.27 1.68 1.1-1.16-.21-1.66-1.76-3.83-1-34.44 1.51" filter="url(#a)"/><path d="M33.23-78.48 11.2-83.21l-4.45 1.23 6.03 4.46 8.46 5.63 7.09 4.95 4.07 3.12.49 1.06-2.78-.5-5.29-1.49-6.84-2.18-7.29-2.81-6.44-3.28-4.3-3.33-1.38-2.77 1.44-1.79 3.17-.81 3.13-.15 1.19.28-1.38 1.12-1.29 3.1 5.61 5.76 17.17 5.06 4.77-11.98" filter="url(#a)"/><path d="m-52.36-60.49 23.41-10.78 23.82-3.94 16.88 2.24 8.64 3.59 1.73 1.51-.75-.23 1.28.34 4.94 2.46 6.94 4.03 5.72 3.71 1.5 1.54-4.65-1.61-11.74-4.7-18.03-6.23-20.39-4.39-14.89-.92 8.87-10.97" filter="url(#a)"/><path d="m-49.3-64.58 27.94-13 11.98-2.55 5.21-.74 1.51-.99.11-.74-.01.31.97 1.69 2.99 3.09 5.08 4.19 5.55 4.5 3.28 3.32-1.09.5-5.23-3.08-6.61-5.69-4.34-6.05-.16-4.27 2.41-1.68-1.73.57-21.61 1.82" filter="url(#a)"/><path d="m18.15-85.33 13.18 17.66-18.61-.11-18.93-3.51-8.83-3.73.59-2.28 6.63.01 9.42 1.93 9.25 2.53 6.61 1.67h2.59l-1.38-1.54-4.08-2.31-4.89-2.28-3.77-1.88-2.24-1.3-4.67.13-16.75 4.28-34.63 15.57" filter="url(#a)"/><path d="m66.58-34-52.1-31.48-17.61-7.92-4.79-.44-2.81 1.18-4.43 2.05-3.57 2.77.59 2.56 4.54 1.2 4.5-.57-.08-1.58-6.06-1.18-8.68.14-4.44 1.06 6.71.83 20.21.22 23.99-1.64-9.89-20.13" filter="url(#a)"/><path d="m-50.41-63.04 35.4-3.67 16.86.63 2.2-4.71-2.13-5.96-2.69-4.22-2.21-1.94-.87-.21 1.16.82 3.2 1.34 4.58 1.56 4.99 1.61 4.52 1.67 3.31 1.73 1.37 1.47-1.48.36-4.73-1.7-4.92-3.6 4.75-2.97 19.48 2.3" filter="url(#a)"/><path d="m14.91-86.39-4.2 1.4 4.56 5.59 1.76 3.45-3.27-.13-3.61-1.89-.58-1.67 2.1-.4 2.76 1.21 2.29 2.85 2.51 4.29 3.87 5.06 4.38 4.47.88 1.94-7.23-2-12.75-4.77 1.08-.83 49.99 17.17" filter="url(#a)"/><path d="m-39.83-73.48 20.66-8.49 8.62-1.24 1.3 1.62-.35 1.31.41.54 1.53.63 2.4 1.28 2.09 1.81-.32 1.9-4.31 1.81-7.31 1.68-6.49 1.33-1.27.32 5.28-1.27 8.45-2.85 7.1-3.96 9.3-4.06 22.36.89m12.95 9.43L.98-73.12l6.15 2.52 14.47 6.32 6.89 5.2-1.59 1.6-5.97-1.63-6.78-2.97-5.47-2.49-2.74-1.11.71.04 3.53.36 4.29-.1 2.63-.81-.07-1.21-1.49-.91.31.12 5.25 1.35 10.4 1.33 9.97-1.67 1.08-4.2m28.98 57.1.55.6.96 1.46.67 1.72.37 1.66.26 1.48.25 1.35.2 1.31.14 1.35.13 1.41.23 1.42.4 1.39.57 1.31.61 1.22.55 1.19.49 1.25.62 1.34.76.97M-1.16-88.24l1.32-.26 1.23-.67 1.24-.89 1.23-1.13 1.15-1.24 1.1-1.02 1.11-.57 1.16-.16 1.21.01 1.22-.06 1.19-.23 1.15-.29 1.13-.23 1.16-.16 1.24-.22 1.37-.46 1.47-.82 1.55-1.1 1.59-1.19 1.56-1.09 1.48-.84 1.4-.5 1.87.09" filter="url(#a)"/><path d="m15.81-90.29-.78.1-1.02.06-.91.01-.88-.01-.99.03-1.12.13-1.2.23-1.19.26-1.12.22-1.03.12-1.03.03-1.06-.01H2.36l-1.13.09-1.11.18-.99.25-.82.26-.61.27-.55.23-2.89-.23-1.63-.85-1.27-1.29-1.18-1.42-1.1-1.23-1.03-.88-.97-.48-.98-.09-1.05.19-1.18.33-1.28.32-1.34.21-1.32.04-1.29-.19-1.26-.44-1.29-.66-1.39-.87-1.52-.99-1.6-.91-1.72-.4-2.44.1" filter="url(#a)"/><path d="m-9.12-87.31 1.51-.35 1.51-.54 1.53-.6 1.34-.68 1.15-.93L-1-91.72l1.1-1.67 1.17-1.85 1.22-1.67 1.21-1.12 1.16-.46 1.12.04 1.13.11 1.26-.25 1.42-.91 1.56-1.57 1.54-2.02 1.32-2.15.98-1.86.56-1.06" filter="url(#a)"/><path d="m-32.39-69.67 2.04-1.8.92-1.24.88-.88.95-.73.94-.77.85-.87.81-.96.82-.94.86-.84.88-.74.88-.7.85-.71.83-.74.86-.72.94-.64 1.05-.52 1.15-.41 1.18-.39 1.1-.49.92-.66.75-.76.7-.61.88-.35 1.82-.45" filter="url(#a)"/><path d="m71.26-14.97.55-1.45.62-1.58.93-1.85.94-1.78.73-1.63.51-1.55.34-1.57.16-1.59v-1.55l-.06-1.46.09-1.45.52-1.67 1.16-2.18 1.4-2.72-.04-2.12L5.65-95.81l.22.47-.44.78-.99.57-1.23.46-1.25.45-1.2.47-1.14.45-1.12.44-1.17.41-1.23.34-1.3.24-1.32.15-1.26.14-1.15.22-1.03.36-.9.47-.81.49-.75.45-.76.45-.88.67-1.2.98-1.66.92-1.67-1.15-1.08-.39-.84.28-.84.37-1.02.1-1.27-.45-1.56-1.09-1.76-1.59-1.82-1.73-1.74-1.39-1.56-.76-1.43-.15-1.43.16-1.54.09-1.77-.25-2.03-.66-2.15-.81-1.74-.6-.79-.45 25.88 11.06.8-.27 1.35-.48 1.4-.56 1.22-.51 1.02-.41.89-.31.84-.25.86-.24.93-.28 1.01-.34 1.12-.38 1.21-.41 1.26-.41 1.26-.36 1.21-.29 1.16-.2 1.12-.11 1.12-.07 1.17-.05 1.22-.08 1.19-.14.95-.25.41-.36-.21-.36" filter="url(#a)"/><path d="m-2.57-114.06-.59 2.77-1.43 3.88-1.74 2.74-1.63 1.31-1.36.78-1.09 1.12-.9 1.6-.8 1.65-.78 1.3-.77 1.06-.77 1.35-.85 1.93-1.07 2.07-1.38 1.27-1.36.56.01 3.83m-1.13.33-2.04-1.5-1.96-2.35-1.58-1.21-1.18.21-1.03.79-1.09.57-1.29.02-1.53-.5-1.74-.83-1.89-.98-1.99-1.04-2.12-1.03-2.09-.81-1.58-.39-.96-.88 21.23 11.06-1.01.25-1.12.38-1.11.42-1.03.45-1.02.48-1.06.53-1.12.57-1.13.58-1.12.59-1.05.59-.97.57-.9.54-.87.52-.93.55-1.06.64-1.2.76-1.25.88-1.23.91-1.15.79-1.34.68" filter="url(#a)"/><path d="m-24.72-82.88.61-.66.78-.93.76-1.2.79-.96.87-.56.98-.35 1.08-.39 1.17-.53 1.19-.69 1.15-.77 1.05-.77.94-.77.86-.78.82-.81.84-.84.92-.83 1.03-.83 1.23-.96 1.55-1.28 1.95-1.54 1.69-.93-29.01 21.06-.42.65-.92.63-1.01.75-.85.73-.7.77-.64.93-.66 1.16-.7 1.34-.75 1.38-.81 1.27-.84 1.04-.83.81-.76.64-.67.57-.58.58-.55.66-.58.77-.63.91-.67 1.05-.68 1.21-.6 1.38-.62 1.58-1.02 1.59" filter="url(#a)"/><path d="m-32.07-78.89-.76.49-1.24.83-.89.78-.6.84-.53 1.05-.58 1.29-.69 1.41-.76 1.42-.77 1.33-.71 1.24-.59 1.16-.46 1.09-.39.98-.38.86-.45.79-.53.79-.58.91-.55 1.16-.39 1.49-.18 1.85-.15 2.07-.75 1.77m9.23-23.44.65-1.43.49-3.09.58-2.35 1.01-.99 1.28-.32 1.22-.45.97-1.07.71-1.76.6-2.16.64-2.13.76-1.83.82-1.68.73-1.99.47-2.69.29-3 .41-2.19.62-.5-31.22 51.69 1.59-2.34.89-1.39.52-.93.48-.83.6-.9.72-.99.82-1.07.85-1.07.85-1.04.81-.96.76-.87.68-.77.63-.7.6-.67.63-.68.71-.72.82-.8.97-.87 1.09-.92 1.18-.94 1.17-.9.99-.8.56-.56.05-.34" filter="url(#a)"/><path d="m-47.35-54.56-.37-.62.08-.67.36-1.01.44-1.35.47-1.47.54-1.43.59-1.29.62-1.15.59-1.01.55-.86.54-.71.55-.62.59-.64.61-.79.63-1.07.67-1.35.74-1.55.88-1.54 1.04-1.35 1.06-1.01.38-.29m.47-.49.33 1.38.67.64 1.06.16 1.18-.23 1.17-.42 1.15-.4 1.18-.22 1.22.03 1.21.22 1.18.24 1.13.17 1.13.2 1.22.49 1.32.95 1.4.99 1.38-.07" filter="url(#a)"/><path d="m-37.96-75.19-.96.98-1 1.2-.97 1.18-.8 1.11-.57 1.1-.36 1.12-.21 1.15-.18 1.17-.23 1.17-.38 1.15-.54 1.1-.71 1.05-.79 1.02-.78 1.07-.66 1.16-.45 1.22-.25 1.13-.14.88-.25.66-.76.85" filter="url(#a)"/><path d="m-15.96-72.19-.76-1.02-.75-.3-.85-.28-1.05-.56-1.21-.83-1.32-.92-1.35-.86-1.32-.69-1.26-.45-1.22-.21h-1.19l-1.19.18-1.18.32-1.14.47-1.07.58-.95.62-.86.48-.83.2-.97.03-1.24.32-1.31.84m-.85.79-1.75 1.09-1.59-.1-1.6-.61-1.43-.64-1.22-.41-1.02-.02-.85.44-.74.88-.69 1.19-.69 1.34-.75 1.35-.81 1.26-.89 1.08-1.01.82-1.16.56-1.32.38-1.46.36-1.53.48-1.5.67-1.41.82-1.33.88-1.37.86-1.52.91-.96 1.43 24.58-11.84-.48.19-.47.27-.52.41-.76.44-1.06.38-1.35.26-1.59.14-1.71.08-1.7.1-1.56.21-1.4.27-1.34.25-1.42.18-1.58.2-1.68.42-1.55.8-1.24 1.07-.92 1.05-.82.63" filter="url(#a)"/><path d="m-45.81-68.39-.01-2.02.18-.81-.01-1.28-.07-1.8.09-2 .38-1.96.66-1.81.85-1.67.9-1.57.83-1.49.69-1.37.59-1.24.6-1.25.72-1.48.78-1.81.66-1.63.65-.34" filter="url(#a)"/><path d="m-32.7-96.05-.14 1.36-.7 2.42-.88 2.19-.93 1.73-.98 1.34-1 1.03-.95.83-.85.84-.72 1.08-.61 1.47-.58 1.82-.61 1.93-.72 1.78-.87 1.38-.95.94-.87.68-.55.79-.1 1.2.13 1.51-.18 1.31-.63.95" filter="url(#a)"/><path d="m-47.01-67.11.29-1.01.7-.59.68-.46.57-.47.54-.61.57-.77.68-.93.81-1.02.94-1.04 1.03-1.01 1.04-.95.98-.87.91-.79.85-.7.86-.65.95-.63 1.03-.67 1.1-.76 1.13-.84 1.2-.91 1.11-.89.36-.56-20.62 19.66 1.61-1.78.94-1.2.63-1.02.46-.91.4-.83.41-.86.48-.93.6-1.07.71-1.23.77-1.42.78-1.61.68-1.81.52-1.96.34-2.1.19-2.18.19-2.24.35-2.21.62-2 .82-1.69.9-1.55 1.23-2.48m-16.21 36.22-.39.64-.45.37-.71.62-.9.93-.94 1.13-.92 1.16-.91 1.1-.92 1.01-.94.92-.95.88-.94.87-.92.86-.88.86-.84.85-.81.84-.8.84-.79.84-.79.83-.79.8-.79.81-.8.91-.88 1.14-.87 1.39m18.42-19.47-.11.03-.55.61-.87 1.05-.97 1.2-.92 1.19-.83 1.14-.75 1.09-.7 1.08-.67 1.07-.65 1.07-.65 1.06-.63 1.03-.59.97-.54.91-.49.94-.48 1.06-.38.95" filter="url(#a)"/><path d="m-35.17-67.02-1.14.67-1.3.52-1.29.14-1.19-.08-1.06-.15-.96-.15-.93-.08-.93.04-.96.26-.97.51-.98.71-1.04.81-1.13.8-1.18.78-1.1.8-.77.71-.26.24-3.44 4.76 1.45-2.57.46-1.92.26-1.25.39-.96.43-1.15.32-1.6.24-1.92.29-1.94.45-1.72.62-1.42.63-1.25.47-1.3.19-1.49-.02-1.69-.07-1.81.06-1.82.3-1.88.54-2.05.75-2.34.43-2.91M-79.8-34.08l1.97-.11 1.56-1.01 1.37-1.23 1.23-1.22 1.02-1.31.81-1.44.64-1.51.58-1.44.58-1.29.65-1.11.82-.89 1.05-.67 1.3-.48 1.44-.34 1.43-.33 1.34-.42 1.23-.59 1.05-.75.71-.77.41-.85m128.8 30.39.06-1.69.07-1.67-.16-1.57-.28-1.38-.23-1.3-.09-1.34.06-1.43.11-1.47.02-1.44-.13-1.37-.25-1.34-.26-1.38-.19-1.46-.1-1.55-.05-1.59-.05-1.61-.05-1.63.01-1.69.08-1.78.09-1.81-.03-1.73-.26-1.5-.43-1.16-.59-1.19" filter="url(#a)"/><path d="m-59.09-50.48.54-1.5.17-1.88-.19-2.11-.07-2.04.31-1.77.6-1.5.66-1.35.5-1.35.31-1.45.2-1.59.27-1.67.42-1.7.54-1.74.58-1.79.54-1.85.49-1.83.35-1.82-.07-1.93-1.13-1.98m-7.14 36.16-1.43-2.99.73-1.46.52-1.37.31-1.47.34-1.49.38-1.56.3-1.77.06-2.13-.27-2.51-.53-2.75-.6-2.72-.42-2.43.01-1.96.55-1.47.98-1.18 1.11-1.23.86-1.7.29-2.5-.26-3.17-.4-3.11-.01-2-.41-.93m-17.52 69.5 1.12-2.45.64-.85.54-.69.58-.94.61-1.14.62-1.2.65-1.17.68-1.16.73-1.17.72-1.23.69-1.3.64-1.37.65-1.38.69-1.35.73-1.26.72-1.17.62-1.1.55-1.03.54-1 .63-.96.65-.93.59-.79.82.04" filter="url(#a)"/><path d="m-66.59-34.72-.74.18-1.01.77-1.12 1.05-.99 1.07-.91 1.02-1.03.97-1.27.92-1.46.87-1.47.8-1.35.76-1.26.76-1.32.82-1.37.93-1.22 1-1 .93-1.39.56-3.03-.4 11.75 1.5 1.05-.58.93-1.11.76-1.14.65-.92.63-.8.71-.85.76-.99.73-1.08.59-1.12.46-1.12.45-1.18.48-1.28.42-1.37.32-1.08 1.25.11-.06.5-.82-.88.08-1.21.44-1.48.62-1.47.56-1.38.31-1.33.01-1.4-.23-1.51-.35-1.59-.3-1.59-.15-1.49.04-1.36.15-1.36.21-1.58.18-1.76-.23-.89-2.09 26.92.69.95.16 1.18-.13 1.32-.28 1.25-.29 1.09-.23 1.01-.15 1.01-.1 1.07-.09 1.12-.09 1.15-.12 1.16-.14 1.19-.12 1.21-.09 1.26v1.32l.12 1.39.26 1.48.37 1.53.44 1.5.41 1.34.34 1.07.26.9.27 1.07.54 1.44" filter="url(#a)"/><path d="m-68.38-28.26.01-.82.1-1.03-.13-1.51-.56-1.9-.81-2.07-.6-2.01-.18-1.88.1-1.78.06-1.8-.24-1.86-.57-1.95-.78-1.99-.8-2.05-.65-2.02-.37-1.87-.36-1.67-1.62-1.93M69.91-23.88l-.72-2.35-.45-1.35-.39-1.1-.39-1.07-.4-1.14-.41-1.18-.41-1.19-.4-1.19-.4-1.18-.43-1.19-.46-1.2-.5-1.21-.53-1.18-.56-1.16-.59-1.12-.61-1.11-.61-1.1-.62-1.11-.61-1.11-.55-1.06-.45-.96-.49-1.06" filter="url(#a)"/><path d="m69.91-23.88.01.81.12.99.17 1.13.21 1.3.22 1.34.23 1.28.21 1.19.18 1.15.17 1.21.16 1.33.15 1.44.13 1.5.12 1.47.1 1.38.09 1.31.07 1.31.07 1.39.04 1.51-.02 1.47-.1.9L66.58-34l.48.01 1.01.8 1.47.86 1.61.74 1.47.74 1.2.89 1.03 1.07 1.06 1.15 1.3 1.12 1.54 1.04 1.65 1.03 1.55 1.11 1.3 1.25 1.03 1.34.84 1.3.77 1.13.85.95L88-16.41l2 2.12-14.47-56.93.18 1.7-2.01 4-1.97 3.75-1.29 2.93-.52 2.18.07 1.69.38 1.44.34 1.47-.02 1.69-.58 2.05-1.06 2.34-1.23 2.41-1.04 2.26-.61 2.02-.2 1.74.06.71-.02.53-.03-2.87 1.12-2.5.92-2.12.1-1.59-.59-1.17-.93-.96-.97-.93-.76-1.1-.37-1.38.09-1.75.55-2.17.9-2.57 1.08-2.85 1-2.93.66-2.79.21-2.55-.08-2.53.2-2.94 1.41-3.14-8.88 31.23 6.22-3.09 1.31.6 1.12.92 1.35.79 1.02.99.48 1.35.19 1.57.31 1.49.81 1.17 1.48.8 2.13.52 2.46.45 2.29.59 1.62.85.88 1.11 1.41 1.19L60.9-46.99l2.5-4.06 1.89-2.93-.52-1.05-1.46-.5-1.37-.71-1.02-1.06-.73-1.31-.5-1.47-.26-1.65.06-1.92.39-2.28.65-2.67.73-2.9.61-2.9.28-2.59-.18-2.09-.62-1.58-.94-1.22L59.36-83l-.95-1.31-.66-1.8-.24-2.5-.04-3.09-.86-2.46 3.35 44.8-.01-.34-.4-.92-.6-1.09-.72-1.13-.77-1.14-.77-1.13-.75-1.09-.69-1.02-.62-.93-.58-.89-.6-.91-.67-.98-.74-1.04-.79-1.05-.79-1-.8-.98-.89-1.05-.68-.69" filter="url(#a)"/><path d="m43.64-55.63 1.82-.41 1.83-.07 1.53.2 1.2.23.98.23.86.38.77.65.63.98.45 1.29.29 1.47.33 1.43.78 1 1.54.2 2.1-.61 1.21-.7-.22-.16-.62-.71-.79-.9-.96-.88-1.07-.81-1.07-.8-1.01-.79-.92-.73-.88-.6-.89-.44-.97-.37-1.07-.41-1.16-.47-1.13-.5-.98-.55-.85-.78-1.28-1.64m13.26 6.82 1.53.14 2.15-.07 2.05-.05 1.75.11 1.45.38 1.29.61 1.39.66 1.69.52 2.07.31 2.27.21 2.13.32 1.7.66 1.24 1.04 1.17 1.23 1.69 1.05 2.38.73.94 2.18" filter="url(#a)"/><path d="m87.33-43.42-1.73-.4-1.6-.38-1.42-.78-1.25-1.08-1.44-1.01-1.82-.73-2-.56-1.88-.58-1.65-.67-1.54-.66-1.65-.51-1.83-.31-1.9-.21-1.75-.25-1.46-.42-1.16-.67-.97-.87-1.03-.91-1.4-.59-1.59-.6-6.13-7.71-.1.45.33 1.09.73 1.13.71 1.13.52 1.1.37 1.06.36 1.05.42 1.1.51 1.16.59 1.19.66 1.16.69 1.1.66 1.06.53 1.06.32 1.13.12 1.27.01 1.53-.15 1.78-9.84-23.71.41.19.89.4 1.05.56 1.09.59 1.08.67.99.82.81.97.64 1.05.54 1.04.57.99.69.94.88.88 1.06.84 1.18.79 1.24.76 1.21.73 1.12.71.96.69.73.8.52 1.73m-19.59-18.3-2.28.38-1.16-.45-.61-.88-.58-.89-.74-.76-.89-.61-.99-.48-1.06-.35-1.11-.26-1.16-.24-1.2-.27-1.19-.37-1.12-.48-1.02-.52-.97-.41-.99-.19-1.1.08-1.31.32-1.76.5m46.73 4.19-1.12-.95-2.7.55-2.49.98-2.25.99-2.19.76-1.99.25-1.46-.53-.69-1.47v-2.25l.21-2.45-.23-1.84-1.18-.55-2.31.99-3.36 2.56-3.73 4.65" filter="url(#a)"/><path d="m43.98-69.93-1.04-.49-.97.08-1.13.26-1.27.26-1.32.22-1.3.17-1.21.08H33.4l-1.3.14-1.49.41-1.6.76-1.52.92-1.23.53-1.63-.12m17.92-4.67.95-.12 1.17.36 1.08.63.97.78 1 .73 1.13.56 1.24.41 1.28.37 1.23.46 1.12.66.99.87.88.97.82.95.85.8.99.58 1.19.44 1.36.45 1.41.61 1.37.76 1.5.74 1.83.95-26.53-14.51h.72l1.13.02 1 .21.85.51.8.73.82.85.86.87.88.88.89.86.9.86.89.86.92.86.95.86.99.82 1.04.75 1.07.63 1.06.51 1.03.45 1.03.54 1.03.75.99 1.01.86 1.12.67.88" filter="url(#a)"/><path d="m37.94-74.99 1.73 1.21 1.08.87.87.72.8.6.83.55.88.55.96.58 1.02.57 1.09.54 1.18.45 1.28.32 1.37.21 1.43.14 1.45.19 1.42.4 1.38.81 1.26 1.39.84 1.75" filter="url(#a)"/><path d="m38.58-74.59.62-.47 1.02.48.96.74.94.61.98.41 1.08.24 1.24.08 1.48-.13 1.78-.43 2.07-.76 2.32-1 2.4-1.06 2.33-.89 2.19-.6 2.13-.37 2.23-.23 2.34.09 2.3.69 1.62 1.38" filter="url(#a)"/><path d="m34.93-76.99 1.26.49 1.07.31.99.41.94.56.96.6 1.01.53 1.04.44 1.02.4 1.01.41 1 .47 1 .56 1.01.62 1.04.64 1.07.65 1.08.65 1.08.65 1.1.66 1.13.69 1.19.72 1.26.85 1.18.98.86.84.17-.03-23.47-13.1 1.19.57 1.04.33 1.14.05 1.3-.15 1.36-.16 1.28.04 1.14.26 1.02.37 1.01.34 1.07.31 1.14.33 1.23.38 1.44.26 1.84-.1 1.55-.35-22.18-4.91 1.76.68 1.7.42 1.74-.17 1.72-.59 1.64-.59 1.5-.36 1.47-.19 1.54-.26 1.7-.52 1.88-.83 2-1 2.02-.96 1.98-.7 1.85-.34 1.66.11 1.42.54 1.29.79 1.65.45 2.54-.66 2.62-2.04" filter="url(#a)"/><path d="m32.38-78.53 1.95-5.07.74 1.16.9 1.66 1.09 1.12 1.1.76 1.06.64 1.09.5 1.2.3 1.34.04 1.45-.18 1.49-.28 1.48-.25 1.45-.11 1.4.06 1.36.25 1.37.36 1.4.38 1.47.34 1.51.31 1.51.3 1.39.21 1.09.42-49.54-4.6 1.6-.17 1.22.14 1.14.11 1.12-.15 1.14-.35 1.14-.41 1.1-.31 1.03-.11.93.17.87.39.89.45.96.29 1.08.04 1.17-.09h1.16l.95.19.44-.21" filter="url(#a)"/><path d="m29.62-80.23-.27-.29-.8-.7-.86-1.06-.78-1.3-.71-1.4-.68-1.46-.67-1.51-.67-1.6-.7-1.65-.74-1.67-.8-1.64-.89-1.54-.98-1.34-1.09-1.09-1.18-.94-1.16-1.13-.97-1.77-.64-2.47-.4-2.3-.52-.17m35.32 32.93-2.04-.25-1.41-.22-1.03-.31-.91-.41-.98-.46-1.06-.43-1.11-.41-1.08-.45-1.01-.61-.95-.82-.98-.96-1.1-.89-1.25-.52-1.35.05-1.36.37-2.19.42" filter="url(#a)"/><path d="m28.67-80.97-1.05-1.68-.22-3.16.04-3.87-.13-3.38-.48-2.22-.8-1.11-1.02-.46-1.1-.36-1.08-.8-.95-1.7-.78-2.75-.71-3.46-.86-3.36-1.09-2.63-1.1-2.6-.2-5.35m9.02 37.71.85.69 1.05.72.99.68.93.6.93.56.96.58 1.02.64 1.04.73 1.03.81.97.83.92.8.88.78.87.75.87.77.86.79.77.76.53.64.14.55" filter="url(#a)"/><path d="m23.81-83.25.48.01.95.21.97.49.97.61.99.62 1 .57 1 .52 1.03.48 1.07.47 1.11.5 1.14.53 1.14.56 1.12.6 1.06.62 1.02.63.98.65.95.66.93.65.89.62.85.6.85.59.89.62.81.59.16.18-6.15-1.6-1.45-1.3-.85-.76-.83-.7-.94-.76-1.05-.78-1.09-.77-1.05-.69-1.01-.62-.97-.55-.94-.54-.96-.54-.98-.56-.98-.54-.98-.5-.95-.47-.84-.5-.34-.4-2.13-.57 2.24-2.38 1.35-.69 1.2-.21 1.08.29 1.05.52 1.08.51 1.16.33 1.26.07 1.42-.22 1.57-.48 1.68-.57 1.67-.4 1.54-.04 1.37.36 1.27.54 1.35.38 1.54-.01 1.74-.39 1.75-.47 1.55-.21 1.31.11 1.39.09 1.96-.22 2.8-.32-4.61-9.38-.6-.84-1.51-.2-2.03.98-2.36 1.66-2.42 1.61-2.2 1-1.81.12-1.4-.58-1.2-.74-1.29-.24-1.58.73-1.93 1.73-2.14 2.34-2.1 2.29-1.81 1.66-1.45.86-1.23.38-1.18.23-1.48-.2 12.97 21.24-.76-2.13-.22-1.72-.39-1.39-.64-1.14-.82-1.02-.84-1.07-.75-1.22-.64-1.35-.6-1.35-.65-1.17-.77-.89-.9-.57-.97-.39-.96-.42-.87-.66-.73-1.06-.61-1.39-.53-1.42-.49-.91-.34-.25" filter="url(#a)"/><path d="m15.09-86.17-.68-.23-.95-.09-.87.1-.84.26-.95.31-1.08.27-1.17.17-1.14.1-1.04.1-.91.27-.89.48-1.01.62-1.13.57-1.09.36-1.09.58 14.84-3.87 1.9.2 1.14.14 1.03.29 1.05.28 1.06.16 1.07.03 1.09-.07 1.11-.11 1.13-.07 1.14-.01 1.16.08 1.17.11 1.18.15 1.17.2 1.13.31 1.1.45 1.12.57 1.2.62 1.32.56 1.36.44 1.28.31 1.05.1.54-.77-1.14-26.58-2.84 2.49-2.39 1.78-2.04 1.55-1.85 1.51-1.82 1.83-1.84 2.16-1.77 2.08-1.58 1.46-1.35.51-1.16-.3-1.09-.53-1.19-.06-1.4.89-1.58 1.74-1.59 1.95-1.35 1.36-.97.43-.61-.06-.59.98" filter="url(#a)"/><path d="m8.87-87.52-2.21.06-.91.26-.75.19-.93.16-1.08.19-1.12.29-1.1.4-1.05.51-1.04.57-1.07.61-1.11.64-1.15.68-1.16.71-1.11.71-1.01.69-.89.69-.77.78-.65.98-.52 1.22-.44 1.42-.52 1.41-1.19.51 17.47-14-1.82-.21-1.21-.19-1.09-.2-1.04-.16-1.06-.11-1.13-.09-1.24-.1-1.31-.13-1.31-.16-1.25-.21-1.16-.25-1.08-.32-1.02-.37-.99-.35-.99-.29-1.06-.16h-1.17l-1.28.15-1.34.25-1.31.29-1.15.26-.96.22-.87.15-1.33.14m95.14 75.4.98 3.05.9 2.79 1.06 2.58.85 2.59.48 2.58.18 2.56.09 2.56.14 2.61.25 2.68.29 2.76.27 2.8.2 2.8.08 2.74v2.64l-.1 2.53-.18 2.44-.31 2.37-.49 2.33-.69 2.3-.87 2.25-.95 2.24-.96 2.27-.87 2.35-.62 2.36-.22 2.07-.44 1.62" filter="url(#a)"/><path d="m-1.16-88.24-2.54.33-3.29.31-2.78.28-2.29.31-2.09.36-2.15.45-2.33.54-2.48.64-2.6.71-2.75.81-2.97.9-3.26 1-3.58 1.09-3.86 1.18-4.03 1.24-4.05 1.28-3.9 1.33-3.66 1.36-3.39 1.41-3.18 1.45-3.12 1.52-3.24 1.6-3.52 1.71-3.79 1.81-3.87 1.88-3.91 1.88-4.38 2.02-5.28 3.11" filter="url(#a)"/><path d="m-1.98-88.16-2.38.27-2.85.24-3.07.28-3 .38-2.98.49-3.06.59-3.12.67-3.05.73-2.94.78-2.92.84-3.14.91-3.66.98-4.35 1.07-5.02 1.17-5.42 1.25-5.37 1.35-4.86 1.43-4.07 1.47-3.26 1.51-2.71 1.52-2.56 1.54-2.78 1.59-3.26 1.67-3.86 1.78-4.6 1.88-5.47 1.99-6.42 2.09-7.12 2.22-7.38 2.35-7.21 2.41-6.38 2.2-2.1 1.46" filter="url(#a)"/><path d="m-1.98-88.16-1.78.27-2.38.23-2.4.28-2.36.37-2.34.49-2.33.58-2.3.66-2.27.72-2.24.77-2.25.83-2.31.89-2.41.96-2.53 1.05-2.65 1.13-2.72 1.24-2.74 1.34-2.69 1.43-2.62 1.49-2.55 1.5-2.49 1.49-2.48 1.46-2.52 1.5-2.58 1.61-2.65 1.8-2.72 1.91-2.62 1.79-1.76 1.55" filter="url(#a)"/><path d="m-2.85-87.84-3.42.19-2.52.25-2.47.36-3.03.49-3.71.59-4.07.67-4 .73-3.67.77-3.35.82-3.23.88-3.33.96-3.68 1.04-4.2 1.13-4.88 1.24-5.57 1.33-6.11 1.44-6.33 1.5-6.13 1.51-5.49 1.48-4.53 1.42-3.67 1.45-3.54 1.59-4.82 1.87-7.42 2.05-9.97 1.59" filter="url(#a)"/><path d="m-2.85-87.84-4.52.2-2.09.24-2.07.37-2.79.49-3.49.59-3.77.68-3.54.73-3 .77-2.43.83-2.12.9-2.18.96-2.61 1.06-3.28 1.14-4 1.24-4.6 1.35-5.05 1.43-5.29 1.48-5.38 1.51-5.28 1.49-5.01 1.48-4.61 1.52-4.15 1.63-3.68 1.77-3.19 1.88-2.91 1.9-3.48 1.93-5.33 2.35" filter="url(#a)"/><path d="m-7.28-87.54-2.2.26-2.3.27-2.46.33-2.65.45-2.65.56-2.63.66-2.67.73-2.76.82-2.83.92-2.81 1.01-2.7 1.12-2.52 1.19-2.36 1.24-2.29 1.3-2.39 1.34-2.66 1.37-3.05 1.43-3.49 1.48-3.85 1.54-4.05 1.63-4.09 1.72-4.05 1.81-4.09 1.9-4.42 1.97-5.03 2.04-5.59 2.12-5.33 2.09-3.69 1.83-1.48 1.16" filter="url(#a)"/><path d="m-7.1-87.6-2.76.16-2.79.36-2.69.49-2.83.61-2.86.69-2.76.73-2.71.77-2.82.81-3.04.88-3.23.95-3.3 1.04-3.35 1.12-3.46 1.23-3.72 1.33-4 1.44-4.18 1.51-4.22 1.53-4.28 1.47-4.65 1.38-5.51 1.36-6.58 1.55-7.1 2.02-6.44 2.73" filter="url(#a)"/><path d="m-9.12-87.31-1.94.3-1.54.28-1.69.44-1.91.57-2.03.65-2.06.72-2.09.8-2.14.89-2.18 1-2.21 1.1-2.19 1.18-2.13 1.24-2.03 1.27-1.92 1.31-1.84 1.35-1.79 1.38-1.73 1.42-1.69 1.45-1.69 1.51-1.79 1.68-1.94 1.91-1.67 1.82" filter="url(#a)"/><path d="m-11.68-86.83-2.87.07-2.18.42-2.33.61-2.41.69-2.57.73-2.77.81-2.87.9-2.88 1.02-2.9 1.12-3.01 1.19-3.21 1.25-3.42 1.29-3.55 1.32-3.55 1.36-3.47 1.41-3.43 1.44-3.52 1.51-3.8 1.6-4.22 1.7-4.55 1.81-4.49 1.87-4.05 1.87-4.03 2.01-7.3 3.1" filter="url(#a)"/><path d="m-11.68-86.83-1.56.07-3.19.42-3.9.61-3.78.69-3.48.73-3.35.81-3.43.9-3.55 1.02-3.51 1.12-3.26 1.19-2.88 1.25-2.51 1.29-2.31 1.32-2.38 1.36-2.72 1.41-3.26 1.44-3.87 1.51-4.51 1.6-5.13 1.7-5.77 1.81-6.41 1.87-7.09 1.87-8.11 2.01-9.86 3.1" filter="url(#a)"/><path d="m-10.46-87.06-2.33.41-2.75.67-2.79.75-2.58.76-2.3.8-2.09.84-1.99.92-1.99 1-2.07 1.09-2.19 1.19-2.29 1.29-2.37 1.38-2.36 1.44-2.3 1.49-2.16 1.52-1.99 1.55-1.82 1.58-1.67 1.63-1.58 1.72-1.59 1.82-1.66 1.91-1.8 2.02-1.98 2.11-2.15 2.17-2.3 2.23-2.34 2.23-2.29 2.2-2.12 2.16-1.94 2.12-1.82 2.14-1.78 2.29-1.75 2.57-1.62 2.99-1.89 3.42" filter="url(#a)"/><path d="m-12.79-86.95-3.12.49-2.05.71-2.14.72-2.4.73-2.76.81-3.33.91-4.01 1.02-4.63 1.13-5 1.21-5.16 1.25-5.2 1.3-5.18 1.32-5.1 1.37-4.82 1.4-4.31 1.46-3.68 1.52-3.22 1.61-3.34 1.7-4.29 1.81-5.92 1.88-7.44 1.93-7.79 2.03-6.09 2.25-2.21 2.06m103.19-32.62-1.29.49-2.17.72-2.24.72-2.22.74-2.25.82-2.27.92-2.24 1.03-2.2 1.14-2.13 1.21-2.07 1.26-1.99 1.31-1.94 1.34-1.91 1.38-1.89 1.42-1.89 1.48-1.88 1.55-1.9 1.64-1.91 1.72-1.91 1.82-1.91 1.9-1.9 1.97-1.92 2.03-1.92 2.09-1.9 2.07-1.75 2.03-1.62 2.08-2.06 2.9" filter="url(#a)"/><path d="m-12.95-86.78-3.38 1.03-2.84.76-2.37.73-2.1.8-2.13.93-2.28 1.04-2.48 1.15-2.6 1.23-2.66 1.27-2.66 1.32-2.66 1.34-2.62 1.39-2.57 1.43-2.47 1.5-2.32 1.56-2.14 1.65-1.95 1.74-1.8 1.82-1.73 1.91-1.79 1.97-2.01 2.03-2.3 2.06-2.6 2.08-2.76 2.07-2.72 2.07-2.4 2.11-1.95 2.11-2.01 2.19" filter="url(#a)"/><path d="m-16.92-85.43-2.52.54-2.48.63-2.55.78-2.97.92-3.34 1.05-3.43 1.17-3.26 1.23-3.05 1.28-2.92 1.31-2.91 1.34-2.94 1.38-2.94 1.43-2.87 1.49-2.77 1.55-2.66 1.64-2.6 1.73-2.69 1.83-2.96 1.9-3.38 1.97-3.81 2.03-4.08 2.06-4.16 2.08-4.27 2.05-4.65 2.06-4.79 2.13-2.2 1.79" filter="url(#a)"/><path d="m-20.21-84.51-2.79.96-2.49.96-2.32 1.1-2.26 1.21-2.21 1.27-2.14 1.31-2.09 1.33-2.04 1.36-2.02 1.39-1.97 1.46-1.93 1.51-1.88 1.59-1.85 1.68-1.81 1.76-1.75 1.85-1.68 1.92-1.6 1.98-1.54 2.03-1.52 2.06-1.54 2.07-1.58 2.08-1.62 2.09-1.65 2.11-1.63 2.14-1.61 2.2-1.54 2.33-1.42 2.47-1.26 2.6-1.12 2.72-1.6 3.39" filter="url(#a)"/><path d="m-22.01-83.59-2.26.69-2.22.91-2.39 1.01-2.65 1.09-2.99 1.17-3.4 1.28-3.77 1.39-3.91 1.47-3.73 1.53-3.26 1.51-2.74 1.49-2.42 1.49-2.48 1.55-2.83 1.64-3.25 1.77-3.51 1.88-3.58 1.96-3.61 2.06-3.81 2.2-4.2 2.4-4.78 2.59-6.45 2.62" filter="url(#a)"/><path d="m-23.05-83.38-2.19.78-2.46 1.09-2.44 1.23-2.35 1.31-2.25 1.32-2.18 1.33-2.14 1.36-2.12 1.4-2.08 1.45-2.03 1.53-1.95 1.6-1.86 1.68-1.79 1.77-1.73 1.86-1.73 1.93-1.77 1.98-1.84 2.03-1.9 2.06-1.93 2.08-1.91 2.09-1.83 2.1-1.78 2.13-1.74 2.16-1.74 2.25-1.76 2.34-1.73 2.46-1.68 2.56-1.68 2.62-1.79 2.63-1.92 2.65-1.54 2.93" filter="url(#a)"/><path d="m-24.13-83.14-3.82 1.15-3 1.04-2.62 1.13-2.72 1.2-2.89 1.31-3.09 1.42-3.37 1.5-3.74 1.54-4.11 1.54-4.37 1.53-4.41 1.55-4.27 1.62-4.04 1.72-3.82 1.82-3.69 1.93-3.7 2.03-3.88 2.12-4.27 2.18-4.83 2.22-5.3 2.22-5.4 2.19-4.93 2.15-4.05 2.13-3.22 2.18-2.87 2.31-3.19 2.54-4.04 2.76-4.59 2.78-.82 2.12" filter="url(#a)"/><path d="m-24.72-82.88-3.37 1.3-2.53 1.3-2.41 1.35-2.36 1.33-2.43 1.34-2.67 1.36-2.99 1.4-3.28 1.47-3.45 1.54-3.55 1.61-3.58 1.7-3.66 1.79-3.79 1.87-4.01 1.94-4.27 1.99-4.48 2.04-4.52 2.06-4.35 2.09-4.01 2.1-3.61 2.13-3.29 2.16-3.19 2.21-3.4 2.28-3.91 2.36-4.6 2.45-5.29 2.52-5.78 2.56-6.03 2.55-6.11 2.51-6.21 2.44-6.14 2.33-5.2 2.17-2.96 1.85-1.58 1.37" filter="url(#a)"/><path d="m-27.26-81.63-1.83.7-3.34 1.11-3.21 1.21-2.87 1.3-2.55 1.43-2.13 1.53-1.68 1.55-1.4 1.54-1.4 1.53-1.72 1.56-2.27 1.61-2.96 1.72-3.62 1.83-4.11 1.94-4.27 2.04-4.07 2.11-3.5 2.19-2.75 2.21-2.02 2.22-1.53 2.19-1.41 2.16-1.67 2.16-2.19 2.2-2.75 2.34-3.18 2.51-3.29 2.66-2.97 2.66-2.23 2.42-2.37 2.17" filter="url(#a)"/><path d="m-27.4-81.51-2.91 1.65-2.15 1.27-2.04 1.31-2.1 1.45-2.12 1.55-2.03 1.58-1.88 1.56-1.71 1.54-1.61 1.57-1.55 1.64-1.54 1.75-1.55 1.85-1.57 1.97-1.56 2.05-1.54 2.13-1.51 2.18-1.44 2.21-1.38 2.22-1.29 2.21-1.22 2.22-1.14 2.25-1.08 2.3-1.04 2.38-.99 2.46-.94 2.53-.88 2.54-.8 2.49-.72 2.42-.65 2.35-.61 2.34-.6 2.45-.59 2.66-.55 2.74-.44 2.14" filter="url(#a)"/><path d="m-31.47-79.2-1.8.71-4.12 1.19-4.68 1.44-3.6 1.59-2.18 1.61-1.38 1.56-1.39 1.53-1.88 1.54-2.51 1.63-3.04 1.74-3.41 1.86-3.56 1.96-3.54 2.06-3.33 2.13-2.96 2.19-2.59 2.21-2.33 2.22-2.35 2.2-2.71 2.21-3.41 2.23-4.32 2.29-5.25 2.38-5.92 2.47-6.14 2.53-5.77 2.56-4.94 2.5-4.01 2.4-3.42 2.31-3.42 2.27-3.6 2.43-2.66 2.83-.52 3.55" filter="url(#a)"/><path d="m-31.47-79.2-1.22.7-1.89 1.19-2.14 1.43-2.27 1.59-2.21 1.6-2.01 1.56-1.8 1.52-1.64 1.53-1.58 1.61-1.58 1.73-1.62 1.85-1.65 1.95-1.7 2.05-1.74 2.13-1.76 2.18-1.79 2.21-1.78 2.22-1.76 2.19-1.68 2.18-1.58 2.19-1.44 2.25-1.33 2.35-1.27 2.49-1.27 2.6-1.33 2.63-1.35 2.58-1.24 2.43-.98 2.01-.3.32" filter="url(#a)"/><path d="m-31.73-79.09-3.29 1.68-2.83 1.5-2.82 1.65-2.68 1.66-2.41 1.57-2.17 1.51-2.05 1.53-2.06 1.62-2.18 1.74-2.39 1.87-2.59 1.97-2.78 2.07-2.9 2.14-2.92 2.19-2.78 2.21-2.48 2.22-2.09 2.21-1.73 2.21-1.56 2.24-1.69 2.29-2.08 2.38-2.59 2.46-2.96 2.53-3.02 2.54-2.72 2.49-2.2 2.41-1.69 2.35-1.42 2.33-1.53 2.45-1.92 2.65-1.99 2.73-.45 2.14" filter="url(#a)"/><path d="m-37.96-75.19.42 1.72.36 1.61-.85 1.51-1.66 1.57-1.77 1.7-1.13 1.82-.13 1.92.78 1.97 1.25 2.03 1.24 2.05.9 2.07.46 2.09.17 2.1.18 2.12.48 2.15.87 2.21 1.11 2.29.98 2.37.5 2.44-.04 2.51-.22 2.54.2 2.52 1.2 2.47 2.34 2.4 3.04 2.28 2.89 2.18 1.9 2.08.84 2.13 1.02 2.46 1.45 3.13m-19.8-63.52-2.64 2.12-2.18 1.5-2.62 1.31-3.66 1.38-4.66 1.56-5.05 1.75-4.74 1.89-4.03 1.99-3.3 2.07-2.79 2.15-2.54 2.2-2.48 2.22-2.5 2.22-2.5 2.19-2.36 2.18-2.09 2.19-1.78 2.27-1.62 2.36-1.76 2.48-2.24 2.55-2.85 2.57-3.34 2.5-3.53 2.38-3.59 2.23-4.06 2.14-4.99 2.28-3.39 2.37" filter="url(#a)"/><path d="m-42.18-71.38-4.26 1.23-6.21 1.39-8.43 1.7-7.99 1.88-5.7 1.97-3.01 2-.79 2.05.65 2.07 1.35 2.09 1.44 2.1 1.07 2.11.35 2.14-.56 2.18-1.47 2.24-2.21 2.31-2.7 2.39-2.92 2.45-2.96 2.5-2.94 2.5-2.95 2.49-3.03 2.45-3.18 2.39-3.41 2.36-3.72 2.34-4.14 2.38-4.63 2.5-5.01 2.66-5.09 2.84-4.7 2.98-4.14 3.04-3.9 3.05-4.09 3.04-3.31 2.81.7 1.92M70.22-20.17l.68 3.05.93 2.85 1.42 2.8 1.92 2.71 2.28 2.64 2.37 2.6L82.1-.94l2.07 2.57 1.76 2.56 1.28 2.61.62 2.67-.03 2.75-.42 2.79-.32 2.81.28 2.75 1.12 2.66 1.81 2.53 2.01 2.43 1.59 2.37.71 2.36-.24 2.31-.87 2.2-.96 2.04-.61 2-.89 2.13M-44.84-69.09l-1.09.99-1.43 1.59-1.63 1.92-1.64 2.02-1.6 2.06-1.56 2.13-1.52 2.19-1.47 2.23-1.4 2.26-1.31 2.23-1.21 2.23-1.13 2.23-1.07 2.26-1.02 2.33-.97 2.4-.93 2.46-.88 2.5-.81 2.5-.73 2.48-.66 2.45-.58 2.44-.52 2.45-.47 2.47-.41 2.51-.37 2.54-.3 2.55-.25 2.53-.2 2.52-.13 2.5-.08 2.51-.01 2.56.08 2.66.18 2.79.27 3.05.34 3.91" filter="url(#a)"/><path d="m-45.81-68.39-1.93 1.66-1.93 2.07-2.42 2.08-3.3 2.05-4.1 2.1-4.24 2.17-3.53 2.24-2.37 2.26-1.31 2.22-.77 2.2-.87 2.19-1.49 2.22-2.41 2.29-3.45 2.38-4.46 2.47-5.3 2.51-5.84 2.52-5.98 2.47-5.65 2.41-4.94 2.38-4.1 2.38-3.56 2.44-3.58 2.51-3.98 2.57-4.11 2.59-3.37 2.61-2.22 2.48-.8 1.09" filter="url(#a)"/><path d="M-46.39-67.47-50-65.06l-1.59 2.04-1.25 1.97-1.51 2.03-1.86 2.09-2 2.11-1.86 2.11-1.57 2.1-1.28 2.14-1.1 2.17-1.03 2.25-1.06 2.32-1.11 2.4-1.11 2.46-1.07 2.51-.98 2.5-.87 2.49-.79 2.44-.72 2.4-.7 2.37-.71 2.37-.75 2.43-.81 2.54-.87 2.68-.89 2.81-.89 2.92-.82 2.97-.68 2.94-.47 2.86-.21 2.71.01 2.56.05 2.51-.1 2.68.16 2.8" filter="url(#a)"/><path d="m-49.3-64.58-.37 1.72 2.33 1.84 3.21 1.99 1.9 2.09.23 2.11-.81 2.1-1.13 2.09-.93 2.1-.33 2.15.5 2.21 1.29 2.3 1.72 2.39 1.65 2.46 1.17 2.51.59 2.52.25 2.49.33 2.44.82 2.37 1.54 2.3 2.3 2.28 2.99 2.31 3.6 2.43 4.08 2.65 4.32 2.88 4.42 3.02 4.58 2.98 4.57 2.98 2.31 3.83M-49.3-64.58l-1.45 1.71-1.97 1.85-2.12 1.98-1.98 2.09-1.74 2.11-1.5 2.09-1.35 2.09-1.25 2.1-1.19 2.14-1.16 2.21-1.18 2.29-1.23 2.38-1.32 2.47-1.37 2.5-1.35 2.52-1.27 2.5-1.15 2.44-1.06 2.36-1.06 2.3-1.09 2.24-1.1 2.27-.99 2.4-.81 2.65-.71 2.93-.84 3.07-1.09 2.78-1.05 1.99" filter="url(#a)"/><path d="m-49.3-64.58-1.32 1.7-1.5 1.84-1.9 1.97-2.44 2.08-2.9 2.1-3.11 2.08-2.98 2.07-2.64 2.09-2.18 2.12-1.72 2.19-1.39 2.27-1.26 2.37-1.42 2.45-1.86 2.51-2.44 2.54-2.96 2.5-3.12 2.46-2.84 2.36-2.26 2.26-1.7 2.15-1.6 2.05-2.09 2.11-2.66 2.45-1.21 3.11" filter="url(#a)"/><path d="m-49.3-64.58-1.59 1.72-2.18 1.85-3.72 2-5.09 2.09L-67-54.8l-3.92 2.1-2.42 2.09-1.56 2.12-1.71 2.16-2.68 2.22-3.92 2.31-4.83 2.4-5 2.46-4.36 2.51-3.22 2.51-1.96 2.49-1 2.44-.52 2.38-.52 2.33-.9 2.31-1.5 2.37-2.21 2.49-3 2.66-3.64 2.84-3.8 2.98-3.24 3.03-2.28 3.04-1.76 3.02-2.13 2.81-4.19 1.9m82.86-70.21-1.75 2.05-1.9 1.98-2.14 2.13-2.21 2.14-2.12 2.1-1.99 2.09-1.95 2.1-1.96 2.15-1.96 2.23-1.86 2.3-1.68 2.4-1.51 2.47-1.39 2.51-1.36 2.52-1.34 2.49-1.31 2.43-1.23 2.37-1.14 2.33-1.06 2.31-1.09 2.36-1.29 2.49-1.66 2.66-2.14 2.84-2.57 2.97-2.77 3.03-2.61 3.04-2.1 3.02-1.38 2.8-1.75 1.9M70.09-21.7l1.39 3.78 1.16 2.5 1.2 2.47 2.01 2.73 3.35 2.89 4.79 2.9 5.86 2.85 6.1 2.79 5.32 2.75L105 6.68l1.82 2.67.11 2.62-1.01 2.55-1.41 2.51-1.22 2.47-.67 2.46-.04 2.48.45 2.5.69 2.52.64 2.53.39 2.54.02 2.52-.37 2.49-.7 2.44-.9 2.38-.91 2.3-.68 2.25-.22 2.23.36 2.22.89 2.23 1.1 2.2.81 2.15-.1 2.1-1.32 2.05-2 1.92-1.45 1.64M70.09-21.7l1.17 3.78.73 2.5.34 2.48.29 2.73.33 2.89.31 2.9.26 2.85.21 2.79.18 2.76.17 2.72.17 2.67.12 2.62.03 2.56-.1 2.5-.24 2.48-.37 2.46-.47 2.48-.54 2.5-.61 2.53-.69 2.53-.76 2.54-.84 2.52-.89 2.48-.92 2.44-.94 2.37-.95 2.31-.99 2.26-1.07 2.23-1.18 2.23-1.29 2.21-1.39 2.2-1.45 2.15-1.5 2.09-1.57 2.03-1.61 1.93-1.56 1.82-1.5 1.81" filter="url(#a)"/><path d="m70.09-21.7 7.93 3.75.93 2.46 1.1 2.41 1.24 2.68.51 2.86-.13 2.88-.12 2.81.36 2.76.85 2.72 1.06 2.69.94 2.67.55 2.61.05 2.53-.39 2.45-.59 2.39-.47 2.37-.11 2.41.37 2.48.74 2.52.88 2.5.91 2.45 1.07 2.46 1.57 2.52 1.91 2.47M-52.36-60.49l-1.78 1.97-3.77 2.34-6.02 2.41-6.28 2.36-4.84 2.25-3.29 2.16-2.45 2.14-2.11 2.19-1.82 2.29-1.43 2.41-1.2 2.49-1.47 2.52-2.36 2.51-3.68 2.47-5 2.41-5.84 2.39-5.86 2.4-5.04 2.45-3.73 2.5-2.54 2.54-2.11 2.55-2.79 2.53-4.51 2.48-6.65 2.42-7.8 2.38-5.97 2.44-.6 2.73" filter="url(#a)"/><path d="m-52.36-60.49-3.88 1.95-5.44 2.31-4.2 2.4-2.57 2.35-1.4 2.24-1.04 2.13-1.56 2.11-2.61 2.14-3.63 2.25-4.21 2.38-4.2 2.49-3.79 2.54-3.29 2.52-3.05 2.46-3.27 2.36-3.93 2.31-4.76 2.31-5.35 2.41-5.4 2.53-4.99 2.53-4.13 2.22-1.14 1.74" filter="url(#a)"/><path d="m-52.36-60.49-4.25 1.96-1.76 2.31-2.42 2.41-3.87 2.35-5.17 2.24-6.11 2.14-6.82 2.11-7.19 2.16-7.07 2.26-6.35 2.38-5.13 2.49-3.59 2.54-1.93 2.51-.39 2.46.63 2.38.6 2.33-.77 2.34-3.21 2.41-5.72 2.52-7.06 2.55-6.65 2.58-5.57 2.85-6.47 4.22m96.27-56.5-1.71 1.96-2.03 2.32-2.01 2.41-1.97 2.36-1.99 2.24-2.01 2.14-2.06 2.12-2.12 2.17-2.2 2.27-2.33 2.39-2.47 2.49-2.56 2.53-2.6 2.51-2.56 2.46-2.4 2.39-2.15 2.35-1.77 2.36-1.3 2.42-.8 2.51-.45 2.56-.52 2.57-1.27 2.59-2.63 2.47-4.1 1.07" filter="url(#a)"/><path d="m-52.39-60.37-2.62 3.45-2.06 2.39-2.25 2.08-2.62 2.04-2.64 2.08-2.27 2.14-1.92 2.21-1.8 2.32-1.85 2.4-1.88 2.49-1.75 2.52-1.52 2.52-1.32 2.49-1.23 2.43-1.26 2.36-1.33 2.32-1.38 2.32-1.4 2.37-1.43 2.5-1.48 2.67-1.57 2.83-1.65 2.96-1.64 3-1.51 2.99-1.37 2.9-1.41 2.68-1.81 2.22-2.17 1.82" filter="url(#a)"/><path d="m-53.6-58.82-3.44 2.63-4.49 2.52-2.98 2.41-1.34 2.25-.5 2.14-.36 2.13-.62 2.19-1.13 2.3-1.69 2.42-2.17 2.5-2.43 2.53-2.42 2.52-2.23 2.47-1.97 2.42-1.77 2.41-1.71 2.42-1.7 2.46-1.67 2.5-1.52 2.53-1.23 2.54-.87 2.52-.68 2.5-.85 2.48-1.38 2.49-2 2.55-2.2 2.64-1.68 2.78-1.04 3.04-1.38 3.89M70.19-21.45l3.8 1.89 4.12 2.53 2.92 2.72.52 2.75-1.04 2.7-1.02 2.66.25 2.62 2.04 2.59 3.68 2.58 4.6 2.58 4.58 2.62 3.67 2.69 2.21 2.75.71 2.79-.47 2.8-1.12 2.75-1.22 2.65-.9 2.55-.3 2.45.39 2.38.95 2.35 1.15 2.31 1.08 2.23 1 2.15.89 2.24-.08 2.61-2.34 3.49M70.19-21.45l-3.36 1.92-2.42 2.56-3.4 2.75-2.54 2.77-1.04 2.73-.13 2.68.11 2.64-.03 2.62-.29 2.62-.65 2.63-1.09 2.67-1.58 2.72-2.01 2.76-2.31 2.78-2.44 2.77-2.47 2.72-2.46 2.64-2.45 2.57-2.48 2.48-2.5 2.42-2.42 2.37-2.19 2.34-1.75 2.31-1.12 2.3-.47 2.29.01 2.29.07 2.28-.38 2.26-1.25 2.23-2.18 2.2-2.8 2.14-2.85 2.06-2.46 1.96-1.99 1.89-1.68 1.93-1.48 2.09-1.33 1.96" filter="url(#a)"/><path d="m-59.09-50.48-3.05 2.06-2.35 1.88-3.52 1.98-4.28 2.12-4.12 2.3-3.4 2.46-2.71 2.56-2.38 2.57-2.4 2.53-2.4 2.46-2.14 2.41-1.59 2.4-1.03 2.41-.83 2.46-1.21 2.5-2.14 2.52-3.26 2.54-4.16 2.52-4.56 2.5-4.44 2.5-4.1 2.52-3.96 2.58-4.24 2.68-4.76 2.8-4.88 2.93-4.06 3.01-3.06 2.99-4.72 2.94" filter="url(#a)"/><path d="m-58.74-51.25-1.8 3.06-1.35 2.28-1.5 2.19-2.02 2.33-2.67 2.46-3.22 2.56-3.44 2.58-3.16 2.55-2.47 2.49-1.54 2.43-.7 2.38-.12 2.35.1 2.38.02 2.47-.24 2.58-.52 2.7-.74 2.81-.81 2.89-.77 2.89-.65 2.87-.49 2.82-.38 2.74-.34 2.68-.39 2.64-.47 2.6-.54 2.54-.57 2.46-.55 2.36-.48 2.33-.42 2.38-.32 2.57-.27 2.8-.91 3.01" filter="url(#a)"/><path d="m-60.77-47.89-2.37 1.42-1.78 1.95-2.08 2.13-1.99 2.32-1.77 2.5-1.83 2.6-2.32 2.59-3.17 2.55-4.1 2.47-4.8 2.42-5.11 2.41-5.04 2.43-4.78 2.47-4.44 2.51-4.07 2.53-3.63 2.54-3.05 2.53-2.41 2.54-1.76 2.54-1.25 2.58-.92 2.64-.72 2.71-.62 2.79-.62 2.84-.71 2.84-.9 2.8-1.1 2.7-1.37 2.59-1.82 2.52-2.24 2.51-1.79 2.5-1.01 2.49m75.13-79.24-.71 1.51-.91 1.98-1.07 2.28-1.15 2.49-1.15 2.59-1.16 2.59-1.24 2.56-1.38 2.5-1.52 2.42-1.6 2.37-1.54 2.34-1.39 2.37-1.17 2.45-.99 2.58-.88 2.71-.84 2.82-.87 2.88-.9 2.91-.91 2.87-.88 2.8-.8 2.74-.68 2.68-.53 2.63-.37 2.6-.23 2.54-.07 2.45.15 2.37.37 2.31.44 2.39.22 2.56.02 2.81.59 3" filter="url(#a)"/><path d="m-61.2-47.05-1.16 2.45-1.17 2.2-1.7 2.32-2.77 2.53-4.02 2.64-4.87 2.63-4.98 2.55-4.35 2.46-3.28 2.41-2.11 2.41-1.15 2.42-.58 2.48-.41 2.51-.6 2.53-1.06 2.54-1.67 2.54-2.36 2.53-2.97 2.55-3.36 2.59-3.4 2.64-3.16 2.71-2.77 2.79-2.52 2.82-2.55 2.83-2.79 2.79-3.1 2.7-3.38 2.6-3.77 2.54-4.36 2.52-4.69 2.55-3.64 2.61-.96 2.81" filter="url(#a)"/><path d="m-61.66-46.06-1.93 2.27-3.83 2.33-4.77 2.54-3.92 2.62-2.17 2.62-.89 2.57-.7 2.49-1.26 2.41-1.98 2.35-2.36 2.31-2.32 2.34-1.92 2.43-1.4 2.56-.96 2.7-.72 2.83-.75 2.9-1.01 2.92L-95.98 0l-1.94 2.8-2.43 2.73-2.84 2.66-3.1 2.63-3.14 2.61-2.98 2.57-2.59 2.45-2.04 2.28-1.54 2.17-1.34 2.26-.74 2.47" filter="url(#a)"/><path d="m-62.45-44.23-3.46 1.91-2.13 2.16-1.06 2.51-.32 2.67-.22 2.65-.63 2.54-1.25 2.43-1.84 2.35-2.15 2.34-2.1 2.37-1.76 2.44-1.26 2.49-.83 2.53-.65 2.53-.73 2.5-1.03 2.47-1.39 2.45-1.62 2.46-1.63 2.53-1.4 2.62-1 2.76-.76 3.01-1.71 3.87" filter="url(#a)"/><path d="m-62.64-43.49-1.51 2-1.92 2.57-1.53 2.68-1.09 2.64-.99 2.57-1.16 2.49-1.53 2.4-1.99 2.33-2.52 2.29-3.05 2.31-3.48 2.41-3.69 2.55-3.47 2.7-2.84 2.84-1.94 2.91-1.08 2.92-.56 2.88-.48 2.8-.69 2.71-.99 2.64-1.19 2.62-1.24 2.63-1.15 2.6-1.02 2.45-1.19 2.21-2.17 2.05-2.27 2.33" filter="url(#a)"/><path d="m-63.59-42.09-2.71 1.85-7.13 2.6-9.19 2.79-6.69 2.7-2.4 2.55.75 2.42 1.73 2.35.82 2.34-1.17 2.38-3.45 2.45-5.23 2.51-5.87 2.53-5.16 2.53-3.42 2.51-1.52 2.49-.36 2.49-.33 2.52-1.23 2.58-2.43 2.68-3.48 2.79-4.31 2.9-4.88 2.95-4.84 2.92-3.34 2.76-.96 2.5m76.44-62.86-1.98 3.1-2.23 3.02-2.07 2.78-1.98 2.55-1.94 2.4-1.79 2.33-1.47 2.34-1.1 2.39-.77 2.46-.53 2.52-.42 2.54-.48 2.53-.72 2.52-1.14 2.51-1.61 2.51L-86.14.2l-2.02 2.62-1.79 2.7-1.35 2.78-.97 2.85-.85 2.85-.97 2.8-1.12 2.68-.98 2.56-.34 2.48.45 2.51-.25 2.38m32.38-70.27-1.19 3.08-.97 3-.83 2.76-.72 2.53-.63 2.38-.53 2.31-.46 2.3-.4 2.36-.36 2.44-.31 2.5-.26 2.53-.21 2.52-.15 2.5-.09 2.46-.04 2.46.02 2.47.1 2.54.21 2.65.32 2.77.42 2.94.46 3.06.5 2.68" filter="url(#a)"/><path d="m-64.81-39.21-5.54 3.27-1.32 2.6-2.61 2.52-4.86 2.47-5.67 2.37-4.64 2.29-2.86 2.24-1.59 2.25-1.47 2.35-2.21 2.53-3.09 2.7-3.44 2.86-3.05 2.93-2.12 2.93-1.14 2.89-.62 2.78-.86 2.67-1.84 2.59-3.14 2.59-4.15 2.69-4.6 2.77-4.77 2.57-2.62 1.44m67.68-57.78-1.49 3.16-2.26 2.79-2.73 2.5-2.78 2.36-2.46 2.3-1.99 2.32-1.6 2.39-1.44 2.47-1.48 2.52-1.56 2.54-1.59 2.54-1.53 2.52-1.52 2.51-1.59 2.52L-93.07.3l-1.78 2.63-1.68 2.7L-98 8.42l-1.31 2.83-1.41 2.84-1.85 2.78-2.51 2.68-3.09 2.57-3.09 2.5-2.02 2.49.01 2.49 1.22 2.47" filter="url(#a)"/><path d="m-67.91-30.65-1.72 1.82-3.89 2.24-3.71 2.25-2.31 2.29-.87 2.4.18 2.51.7 2.56.7 2.57.38 2.56-.08 2.54-.48 2.54-.74 2.56-.79 2.6-.67 2.67-.47 2.72-.31 2.78-.23 2.8-.25 2.79-.32 2.74-.34 2.69-.27 2.63-.13 2.58-.01 2.55-.01 2.52-.17 2.48-.44 2.43-.67 2.35-.71 2.27-.43 2.21.13 2.15.79 2.06 1.14 2.01.46 2.31" filter="url(#a)"/><path d="m-68.22-29.58-.86 1.87-1.27 2.25-1.23 2.25-.9 2.19-.46 2.24-.13 2.4.01 2.6v2.79l-.06 2.91-.14 2.95-.19 2.92-.24 2.87-.26 2.78-.27 2.71-.21 2.66-.1 2.6.04 2.56.19 2.51.33 2.45.42 2.41.46 2.38.49 2.37.5 2.39.53 2.39.58 2.42.65 2.47.74 2.6.79 2.73.76 2.64.66 2.14.65 1.49" filter="url(#a)"/><path d="m-68.22-29.58-14.24 1.87 2.37 2.25 3.37 2.25 1.14 2.19-.65 2.24-1.31 2.4-1.18 2.6-.86 2.79-.82 2.91-1.24 2.95-1.88 2.92-2.45 2.87-2.64 2.78-2.41 2.71-1.92 2.66-1.42 2.6-1.09 2.56-.95 2.51-.85 2.45-.66 2.41-.33 2.38v2.37l.16 2.39.02 2.39-.39 2.42-.94 2.47-1.48 2.6-1.91 2.73-2.16 2.64-2.06 2.14-1.06 1.49" filter="url(#a)"/><path d="m-68.22-29.58-1.26 1.88-.65 2.27-.4 2.25-.45 2.21-.58 2.27-.67 2.42-.65 2.63-.53 2.81-.35 2.91-.24 2.95-.18 2.92-.21 2.87-.26 2.79-.28 2.73-.22 2.66-.1 2.61.09 2.56.3 2.51.46 2.47.57 2.44.62 2.41.61 2.41.59 2.41.56 2.44.58 2.46.63 2.49.69 2.52.77 2.52.83 2.49.86 2.43.9 2.37.97 2.34 1.11 2.3 1.22 2.22 1.22 2 1.17 1.78 1.84 2.11M69.91-23.88l-.86-3.16-.78-2.69-.62-2.4-.45-2.29-.31-2.3-.29-2.35-.41-2.37-.58-2.37-.71-2.33-.72-2.29-.59-2.25-.38-2.2-.16-2.14L63-57.1l-.1-2.04-.33-1.99-.69-1.93-1.11-1.89-1.51-1.83-1.83-1.77-2.08-1.69-2.26-1.62-2.37-1.54-2.41-1.46-2.38-1.4-2.25-1.33-2.08-1.25L39.67-80l-1.88-1.07-1.98-.97-2.17-.88-2.39-.82-2.57-.77-2.69-.77-2.74-.76-2.6-.66-1.9-.35" filter="url(#a)"/><path d="m68.77-27.45 6.95-2.54 4.83-2.28 1.97-2.18 1.3-2.26.55-2.33-.54-2.38-1.44-2.36-1.9-2.33-1.99-2.28-1.78-2.24-1.43-2.19-1.03-2.13-.75-2.08-.67-2.02-.8-1.98-1.05-1.93-1.28-1.9-1.41-1.84-1.43-1.78-1.41-1.7-1.44-1.61-1.54-1.54-1.67-1.47-1.71-1.41-1.54-1.36-1.23-1.3-1.07-1.2-1.49-1.08-2.66-.99-3.68-.96" filter="url(#a)"/><path d="m68.77-27.45-.17-2.56.8-2.29.83-2.2.18-2.27-.62-2.35-1.2-2.39-1.3-2.37-.97-2.34-.38-2.29.22-2.24.6-2.2.69-2.14.51-2.08.16-2.03-.33-1.98-.83-1.94-1.31-1.89-1.7-1.82-1.96-1.77-2.07-1.68-2.09-1.61-2.05-1.54-2.01-1.46-1.99-1.4-1.99-1.32-1.98-1.24-1.96-1.16-1.99-1.06-2.13-.97-2.4-.89-2.77-.82-3.13-.77-3.35-.75-3.36-.71-3.17-.61-2.98-.42-3.31-.22" filter="url(#a)"/><path d="m68.48-29.1-.24-1.94.22-2.7.56-2.69 1.05-2.53 1.53-2.4 1.57-2.3 1.05-2.25.19-2.21-.55-2.18-.93-2.15-.92-2.09-.7-2.04-.47-1.99-.38-1.92-.4-1.87-.49-1.79-.56-1.72-.63-1.64-.72-1.57-.88-1.52-1.16-1.48-1.48-1.46-1.76-1.44-1.89-1.41-1.86-1.36-1.86-1.27-2.2-1.19-2.98-1.1-3.42-1.01-2.75-.93" filter="url(#a)"/><path d="m68.03-30.07 4.06-2.41-1.39-2.05-1.39-2.21-.69-2.36-.35-2.4-.27-2.37-.27-2.33-.25-2.28-.24-2.23-.23-2.19-.25-2.13-.37-2.07-.54-2.02-.79-1.98L64-63.03l-1.33-1.89-1.53-1.84-1.71-1.77-1.85-1.69-2-1.61-2.17-1.53-2.32-1.47-2.36-1.41-2.27-1.35-2.08-1.28-1.85-1.19-1.73-1.09-1.97-.98-2.64-.9-2.83-.79" filter="url(#a)"/><path d="m68.1-30.04-1.21-3.68-1.01-2.88-1-2.55-1.05-2.38-1.1-2.29-1.15-2.24-1.2-2.22-1.26-2.18-1.31-2.15-1.35-2.1-1.4-2.04-1.44-1.98-1.47-1.92-1.5-1.86-1.53-1.78-1.57-1.72-1.6-1.64-1.63-1.58-1.69-1.52-1.75-1.49-1.81-1.45-1.88-1.42-1.95-1.37-2.01-1.32-2.05-1.24-2.05-1.17-2.06-1.09-2.05-1.02-2.04-.93-2.04-.86-2.04-.78-2.03-.68-2.03-.57-1.94-.47-1.46-.4" filter="url(#a)"/><path d="m66.88-33.25-.96-1.36-2.17-2.15-2.49-2.42-2.19-2.44-1.84-2.4-1.7-2.33-1.79-2.29-2.08-2.24-2.41-2.19-2.61-2.13-2.59-2.07-2.33-2.03-2.01-1.97-1.74-1.93-1.57-1.88-1.51-1.83-1.5-1.75-1.49-1.69-1.47-1.6-1.47-1.53-1.54-1.46-1.71-1.39-1.9-1.31-2.11-1.24-2.22-1.15-2.23-1.06-2.12-.97-1.95-.88-1.73-.81-1.51-.78-1.31-.75-1.15-.71-1.09-.61-1.14-.42-1.4-.21" filter="url(#a)"/><path d="m66.88-33.25 3.71-1.34 1.15-2.13-.29-2.4-1.49-2.43-2.02-2.39-1.96-2.32-1.54-2.27-1.01-2.23-.54-2.18-.26-2.13-.25-2.06-.47-2.02-.87-1.96-1.32-1.93-1.67-1.89-1.89-1.84-1.97-1.77-1.95-1.69-1.9-1.61-1.87-1.52-1.91-1.46-2.01-1.41-2.14-1.36-2.21-1.3-2.16-1.19L36-81.15l-2.05-.99-2.52-.96" filter="url(#a)"/><path d="m66.88-33.25-.15-1.32.06-2.1-.32-2.38-.87-2.41-1.25-2.36-1.4-2.31-1.42-2.25-1.39-2.22-1.35-2.17-1.3-2.12-1.27-2.05-1.26-2-1.29-1.94-1.34-1.92-1.42-1.91-1.48-1.87-1.52-1.81-1.56-1.7-1.63-1.61-1.75-1.52-1.76-1.45-1.2-1.11" filter="url(#a)"/><path d="m66.58-34-.72-2.54-.79-2.62-.66-2.5-.48-2.4-.42-2.32-.5-2.27-.68-2.22-.88-2.18-1.02-2.13-1.07-2.06-1.04-2.01-.95-1.96-.86-1.93-.82-1.88-.86-1.83-1.03-1.76-1.32-1.69-1.69-1.6-2.05-1.53-2.31-1.45-2.41-1.4-2.35-1.34-2.21-1.27-2.05-1.18-1.98-1.07-2.02-.97-2.05-.85-1.8-.7-.91-.44" filter="url(#a)"/><path d="m66.03-36.84 1.04-2.58-.27-2.32.09-2.23.34-2.21.38-2.2.22-2.18-.11-2.15-.62-2.09-1.19-2.04-1.67-1.97-1.94-1.91-1.95-1.85-1.76-1.78-1.52-1.71-1.32-1.63-1.27-1.56-1.34-1.52-1.5-1.47-1.68-1.45-1.83-1.42-1.94-1.38-2.04-1.32-2.13-1.25-2.26-1.17-2.41-1.09-2.58-1.02-2.7-.94-2.68-.87-2.52-.8-2.25-.7-2.61-.74" filter="url(#a)"/><path d="m66.01-36.31-.9-2.96.15-2.5 1.19-2.36 1.34-2.29.84-2.24.31-2.21.07-2.17-.05-2.12-.2-2.05-.52-1.99-.97-1.94-1.42-1.92-1.73-1.88-1.75-1.84-1.52-1.78-1.17-1.68-.89-1.6-.83-1.51-.97-1.44-1.27-1.41-1.71-1.38-2.33-1.35-2.93-1.19-2.9-.85" filter="url(#a)"/><path d="m64.63-39.91-.96-2.11-1.02-2.28-.87-2.27-.59-2.24-.32-2.22-.16-2.17-.11-2.12-.11-2.05-.11-2-.15-1.95-.3-1.91-.51-1.88-.73-1.83-.88-1.75-.99-1.68-1.08-1.59-1.24-1.52-1.44-1.44-1.64-1.4-1.79-1.33-1.89-1.26-2-1.18-2.16-1.06-2.33-.96-2.31-.85-1.76-.7-1-.44" filter="url(#a)"/><path d="m62.45-44.51-.69-1.9-.24-2.21.07-2.21.16-2.17-.11-2.11-.7-2.02-1.31-1.96-1.7-1.91-1.74-1.84-1.53-1.77-1.27-1.69-1.08-1.62-1.08-1.55-1.25-1.51-1.53-1.48-1.85-1.43-2.12-1.4-2.29-1.35-2.37-1.3-2.36-1.22-2.3-1.14-2.23-1.07-2.18-.99-2.19-.91-2.23-.83-2.31-.74-2.39-.66-2.49-.58-2.57-.51-2.67-.43-2.77-.37-2.88-.28-2.98-.19-3.2-.14-3.69-.24" filter="url(#a)"/><path d="m62.19-44.64-.18-2.17 1.22-2.16.84-2.19-.01-2.17-.63-2.11-1.02-2.03-1.27-1.96-1.43-1.92-1.48-1.9-1.43-1.87-1.3-1.83-1.08-1.76-.8-1.66-.54-1.58-.46-1.5-.71-1.43-1.33-1.39-2.11-1.36-2.58-1.3-2.21-1.19-1.18-1.02-1.19-1.01" filter="url(#a)"/><path d="m60.9-46.99 7.24-2.09-2.97-2.22-3.69-2.21-2.43-2.13-1.25-2.04-.64-1.97-.47-1.93-.52-1.9-.6-1.88-.67-1.81-.79-1.75-.97-1.65-1.17-1.58-1.31-1.5-1.33-1.43-1.29-1.37-1.25-1.31-1.37-1.23-1.69-1.14-2.14-1.04-2.61-.95-2.93-.86-3.01-.8-2.89-.76-2.7-.76-2.59-.75-2.53-.65-1.66-.35" filter="url(#a)"/><path d="m59.96-49.36 11.76-1.69-2.15-2.1-2.92-2.11-1.4-2-.53-1.94-.59-1.88-1.12-1.84-1.64-1.76-1.95-1.68-2.01-1.6-1.9-1.54-1.68-1.49-1.41-1.46-1.12-1.43-.89-1.41-.77-1.36-.84-1.3-1.07-1.22-1.39-1.15-1.7-1.07-1.95-1-2.09-.91-2.25-.84-2.57-.76-3.06-.67-3.51-.57-3.6-.48-3.34-.44-3.99-.46" filter="url(#a)"/><path d="m59.96-49.36 3.34-1.7 2.66-2.1 1.02-2.11.06-2-.74-1.94-1.12-1.89-.97-1.83-.7-1.77-.68-1.68-1-1.6-1.44-1.54-1.77-1.49-1.84-1.46-1.75-1.43-1.66-1.4-1.72-1.36-1.93-1.3-2.2-1.22-2.39-1.15-2.42-1.07-2.3-.99-2.18-.91-2.18-.84-2.39-.75-2.78-.66-3.17-.58-3.52-.5-3.82-.45-4.21-.45-4.9-.46" filter="url(#a)"/><path d="m59.96-49.36-.81-1.7-.71-2.11-.09-2.11.2-2.02.17-1.93.23-1.9.43-1.84.47-1.76.14-1.68-.55-1.61-1.3-1.54-1.88-1.5-2.18-1.46-2.28-1.43-2.3-1.4-2.35-1.35-2.42-1.29-2.48-1.22-2.47-1.14-2.38-1.06-2.29-.98-2.24-.91-2.29-.82-2.42-.74-2.6-.66-2.78-.57-2.92-.51-3.02-.43-3.12-.36-3.26-.28-3.55-.19L2.79-88l-5.02-.24" filter="url(#a)"/><path d="m60.19-49.07 2.23-2.26-1.93-2.27-1.83-2.13-1.12-2.02-.93-1.95-1.18-1.91-1.55-1.89-1.83-1.88-1.95-1.81-1.97-1.75-1.93-1.65-1.87-1.57-1.8-1.49-1.68-1.43-1.57-1.37-1.49-1.31-1.49-1.23-1.63-1.15-1.86-1.04-2.12-.94-2.26-.85-2.26-.76-2.19-.74-2.41-.78-2.99-.92" filter="url(#a)"/><path d="m60.19-49.07-.81-2.27L59-53.6l-.13-2.14.39-2.02.99-1.95 1.33-1.92 1.31-1.89 1.05-1.88.67-1.81.17-1.75-.44-1.65-1.19-1.57-1.97-1.49-2.63-1.43-3.05-1.37-3.12-1.3L49.47-79l-2.49-1.14-2.05-1.04-1.79-.94-1.78-.86-2.02-.78-2.38-.76-2.97-.78-3.98-.83-5.05-.8" filter="url(#a)"/><path d="m59.45-50.65-1.48-2.47-1.03-2.22-.54-2-.25-1.89-.01-1.87.2-1.83.36-1.76.42-1.67.25-1.59-.19-1.52-.85-1.47-1.59-1.45-2.18-1.43-2.41-1.41-2.27-1.37-1.86-1.31-1.49-1.24-1.39-1.15-1.62-1.07-1.98-1-2.15-.94-2-.88-1.76-.78-1.58-.43" filter="url(#a)"/><path d="m59.45-50.65 6.61-2.46 2.45-2.23-.4-1.99-1.82-1.89-2.3-1.86-2.22-1.84-1.98-1.76-1.85-1.66-1.84-1.59-1.84-1.51-1.7-1.47-1.5-1.45-1.37-1.43-1.47-1.41-1.78-1.38-2.14-1.32-2.32-1.23-2.22-1.16-1.88-1.07-1.57-1-1.7-.94-2.61-.95-3.57-1.08" filter="url(#a)"/><path d="m57.71-53.35-1.34-2.21-1.09-1.94-1.12-1.82-1.35-1.85-1.51-1.84-1.55-1.77-1.48-1.66-1.41-1.57-1.39-1.51-1.43-1.46-1.55-1.44-1.74-1.43-1.91-1.41-2.06-1.37-2.11-1.31-2.12-1.23-2.05-1.15-2-1.07-1.94-.99-1.95-.94-2.02-.87-2.02-.78-1.3-.43" filter="url(#a)"/><path d="M57.35-54.08 55.6-56.1l-1.97-1.96-2.44-1.9-2.73-1.91-2.73-1.91-2.54-1.88-2.27-1.83-1.97-1.74-1.66-1.64-1.43-1.56-1.33-1.48-1.35-1.42-1.46-1.34-1.6-1.28-1.7-1.19-1.79-1.1-1.86-1.02-1.91-.94-1.97-.87-2.01-.79-2.05-.74-2.06-.68-2.05-.61-2.02-.53-1.96-.45-1.9-.37-1.8-.28-1.71-.21-1.62-.14-1.55-.06-1.5.02-1.49.1-1.5.17-1.41.22-1.06.36" filter="url(#a)"/><path d="m53.72-58.8-.4-.66-1.16-1.81-1.13-1.94L50.2-65l-.67-1.64-.82-1.54-1.13-1.49-1.42-1.45-1.56-1.44-1.52-1.42-1.4-1.4-1.3-1.36-1.3-1.29-1.4-1.22-1.56-1.13-1.74-1.06-1.89-.99-2.02-.91-2.13-.85-2.24-.76-2.37-.67-2.6-.56-2.72-.38M53.72-58.8l-1.07-.67-3.19-1.82-3.91-1.94-3.39-1.8-2.58-1.65-2.04-1.55-1.8-1.49-1.76-1.46-1.8-1.44-1.92-1.42-2.13-1.4-2.34-1.35-2.46-1.29-2.4-1.21-2.12-1.13-1.77-1.05-1.47-.98-1.34-.9-1.39-.83-1.5-.74-1.61-.65-1.62-.57-1.54-.5-1.38-.45-1.31-.44-1.52-.46" filter="url(#a)"/><path d="m53.66-58.71 2.51-1.38.15-1.84.09-1.93.44-1.91.13-1.84-.64-1.74-1.36-1.63-1.8-1.53-2.06-1.47-2.28-1.4-2.51-1.35L43.66-78l-2.69-1.19-2.55-1.1-2.31-1.02-2.12-.92-2.06-.86-2.16-.79-2.37-.74-2.59-.69-2.77-.62-2.85-.55-2.89-.45-2.94-.37-3.03-.28-3.2-.22-3.39-.16-3.46-.1-3.19.02-2.32.2" filter="url(#a)"/><path d="m54.16-58.15-2.37-2.96-3.01-2.26-4.3-1.84-4.42-1.63-3.4-1.54-2.35-1.49-1.95-1.46-2.09-1.45-2.31-1.43-2.27-1.39-1.95-1.34-1.57-1.27-1.32-1.2-1.3-1.11-1.45-1.04-1.68-.95-1.88-.88-1.97-.79-1.97-.72-1.87-.63L7-86.08l-1.55-.48-1.38-.4-1.19-.33-1.01-.24-.85-.17-.71-.07-.63.01-.54.1-.45.18-.3.21-.09.22.22.15.62.12" filter="url(#a)"/><path d="m54.16-58.15 1.94-2.96-2.37-2.26-2.03-1.84-.85-1.63-.06-1.54.06-1.49-.26-1.46-.8-1.45-1.38-1.43-1.85-1.39-2.15-1.34-2.24-1.27-2.2-1.2-2.1-1.11-2.05-1.04-2.1-.95-2.24-.88-2.44-.79-2.64-.72-2.81-.63-2.95-.55-3.05-.48-3.11-.4-3.19-.33-3.28-.24-3.43-.17-3.63-.07-3.91.01-4.18.1-4.37.18-4.34.21-3.93.22-3.07.15-1.81.12" filter="url(#a)"/><path d="m50.82-62.77.17-1.25-.76-1.88-1.72-1.88-1.96-1.72-1.81-1.58-1.54-1.5-1.35-1.44-1.33-1.39-1.45-1.34-1.68-1.27-1.88-1.2-2.02-1.1-2.05-1.01-2.01-.91-1.93-.84-1.91-.79-1.97-.75-2.17-.71-2.38-.68-2.55-.58-2.65-.46-2.97-.38-3.98-.5" filter="url(#a)"/><path d="m47.94-66.22-.88-.88-1.36-1.44-1.16-1.49-.94-1.46-1.01-1.45-1.36-1.43-1.79-1.4-2.1-1.34-2.2-1.27-2.17-1.19-2.12-1.1-2.1-1.01-2.15-.94-2.22-.86-2.28-.78-2.3-.69-2.29-.62-2.26-.53-2.26-.46-2.3-.38-2.38-.31-2.5-.22-2.63-.14-2.76-.06-2.86.03-2.93.1-2.91.17-2.83.23-2.7.29-2.57.37-2.5.44-2.54.54-2.67.62-2.81.67-2.94.69-2.88.64" filter="url(#a)"/><path d="m47.94-66.22.01-.87-1.51-1.44-1.7-1.49-1.69-1.45-1.78-1.43-1.91-1.43-2.01-1.4-2.06-1.35-2.03-1.27-1.96-1.18-1.87-1.11-1.83-1.02-1.83-.94-1.89-.87-1.99-.78-2.09-.71-2.19-.62-2.25-.54-2.29-.47-2.32-.4-2.36-.32-2.41-.24-2.49-.16-2.6-.07-2.71.02-2.84.1-2.88.18-2.77.22-2.36.21-1.67.15-.73.12" filter="url(#a)"/><path d="m47.57-66.48-1.51-1.96-1.12-1.63-.86-1.45-.9-1.41-1.06-1.43-1.25-1.41-1.46-1.35-1.61-1.26-1.73-1.19-1.83-1.09-1.96-1.02-2.12-.94-2.3-.87-2.44-.78-2.54-.71-2.57-.62-2.59-.55-2.6-.47-2.63-.4-2.69-.32-2.76-.25-2.87-.17-2.99-.08-3.2.01-3.46.11-3.77.21-3.96.29-4.12.39" filter="url(#a)"/><path d="m43.98-69.93 2.28-1.48-1.43-1.51-1.52-1.45-1.71-1.38-2.32-1.33-2.79-1.27-2.85-1.17-2.56-1.07-2.14-.97-1.83-.89-1.72-.82-1.79-.77-1.98-.71-2.19-.65-2.35-.59-2.43-.51-2.46-.43-2.47-.34-2.49-.27-2.51-.19-2.56-.11-2.63-.05-2.71.04-2.8.1-2.87.17-2.88.24-2.82.29-2.88.39-3.2.56" filter="url(#a)"/><path d="m42.57-70.8-.57-.9-1.38-1.29-1.4-1.44-.87-1.44-.05-1.37.6-1.26.69-1.17.07-1.08-1.06-1-2.27-.94-3.17-.85-3.53-.78-3.4-.7-3.03-.62-2.64-.54-2.42-.47-2.45-.39-2.71-.33-3.13-.25-3.62-.17-4.13-.09h-4.64l-5.23.11-5.85.21-5.4.25" filter="url(#a)"/><path d="m42.57-70.8-.41-.91-.68-1.29-1.08-1.44-1.31-1.45-1.33-1.36-1.38-1.27-1.5-1.16-1.71-1.09-1.98-1-2.25-.93-2.43-.86-2.51-.77-2.48-.69-2.39-.62-2.32-.53-2.29-.47-2.36-.39-2.49-.31-2.68-.24-2.88-.16L1-87.82l-3.33.02-3.56.11-3.71.19-3.69.25-3.42.23-3.04.07" filter="url(#a)"/><path d="m42.39-71.41-1.63-1.52-.77-1.56-.28-1.51-.42-1.38-.82-1.26-1.06-1.16-1.18-1.08-1.35-.99-1.65-.92-2.06-.84-2.43-.76-2.71-.68-2.87-.59-2.98-.52-3.06-.44-3.15-.36-3.26-.28-3.35-.21-3.44-.12-3.52-.04-3.59.04-3.64.11-3.7.19-3.76.25-3.82.31-3.96.39-4.18.47-4.48.55-4.8.63-5.08.71-5.22.79-5.26.9-5.29 1.03-5.4 1.21-5.88 1.46-8.58 1.85" filter="url(#a)"/><path d="m42.39-71.41.97-1.51-.31-1.55-2.22-1.5-2.58-1.38-2.38-1.25-2.28-1.16-2.3-1.07-2.31-1-2.23-.92-2.09-.85-1.97-.77-1.93-.68-2.01-.61-2.14-.53-2.31-.45-2.45-.38-2.58-.31-2.7-.23-2.84-.15-3.05-.06-3.28.03-3.52.1-3.67.18-3.61.21-3.28.24-2.79.28-2.64.41-4.14.89" filter="url(#a)"/><path d="m40.38-72.93-1.76-1.58-1.57-1.53-1.2-1.38-1.02-1.23-1.1-1.14-1.26-1.06-1.39-.99-1.51-.92-1.71-.85-1.98-.77-2.28-.69-2.49-.61-2.6-.53-2.65-.46-2.68-.4-2.74-.33-2.83-.25-2.91-.18-3.03-.09-3.3-.01-3.92.11-5.74.28" filter="url(#a)"/><path d="m40.38-72.93-1.97-1.58-2.27-1.53-2.39-1.38-2.49-1.23-2.57-1.14-2.54-1.06-2.41-.99-2.25-.92-2.14-.85-2.08-.77-2.08-.69-2.09-.61-2.06-.53-2.01-.46-1.9-.4-1.8-.33-1.68-.25-1.54-.18-1.35-.09-1.14-.01-1.04.11-1.24.28" filter="url(#a)"/><path d="m37.94-74.99-.05-.99-1.99-1.29-1.88-1.3-1.46-1.18-1.34-1.04-1.49-.94-1.73-.86-1.88-.8-1.91-.75-1.9-.7-1.95-.64-2.07-.58-2.25-.49-2.45-.41-2.61-.33-2.76-.25-2.89-.17-3.05-.1-3.23-.03-3.41.05-3.57.12-3.72.2-3.89.27-4.19.36-4.68.47-5.27.6-5.56.69-5.07.74-4.41.75" filter="url(#a)"/><path d="m36.45-76.11-2.4-1.63-2.03-1.14-2.03-1.08-2.02-1.03-1.99-.98-1.99-.91-1.99-.83-1.99-.76-2-.67-2.01-.6-2.02-.51-2.06-.45-2.09-.38-2.15-.3-2.2-.23-2.26-.15-2.34-.07-2.44.03-2.55.11-2.62.2-2.53.24-2.2.23-1.57.07" filter="url(#a)"/><path d="m36.45-76.11-2.42-1.64-2.06-1.16L29.95-80l-1.97-1.04-1.92-.98-1.92-.91-1.95-.83-1.97-.75-2.01-.66-2.05-.59-2.11-.5-2.17-.43-2.23-.35-2.29-.27-2.35-.19-2.41-.12-2.47-.03-2.52.05-2.52.12-2.5.19-2.45.26-2.38.33-2.32.39-2.3.48-2.32.55-2.39.64-2.47.72-2.56.81-2.65.91-2.75 1.04-2.85 1.2-2.89 1.33-2.69 1.36-1.6.93" filter="url(#a)"/><path d="m31.5-79.42-.7-.79-1.85-.84-2.06-.86-1.94-.81-1.75-.77-1.58-.73-1.46-.7-1.41-.65-1.47-.57-1.69-.49-2.02-.4-2.39-.32-2.73-.24-2.96-.17-3.12-.1-3.24-.03-3.4.05-3.59.12-3.81.18-3.96.25-4.1.33-4.39.44-5.13.64-6.03.91" filter="url(#a)"/><path d="m32.38-78.53 4.45-1.45-2.49-1.17-3.2-1-3.09-.9-2.93-.82-2.68-.74-2.39-.66-2.17-.56-2.09-.49-2.16-.42-2.34-.34-2.6-.26-2.88-.18-3.15-.09-3.39-.02-3.55.06-3.62.14-3.61.21-3.55.27-3.5.35-3.51.42-3.63.49-3.87.58-4.19.67-4.54.75-4.89.85-5.13.95-5.22 1.05-5.1 1.15-4.8 1.22-4.47 1.27-4.39 1.31-4.71 1.35-5.37 1.43-5.82 1.47-5.21 1.35-2.75.88" filter="url(#a)"/><path d="m32.38-78.53.08-1.45-.48-1.16-2.04-1-2.69-.91-2.78-.82-2.67-.74-2.52-.65-2.42-.57-2.36-.49-2.33-.42-2.36-.34-2.43-.27-2.53-.18-2.67-.1-2.83-.02-2.99.06-3.1.13-3.16.2-3.14.26-3.06.34-2.94.41-2.83.48-2.78.57-2.84.65-3.02.73-3.34.83-3.76.94L-41.8-81l-4.53 1.16-4.66 1.24-4.55 1.27-4.26 1.22-3.97 1.2-4.88 1.43" filter="url(#a)"/><path d="m32.38-78.53-1.93-1.44-.33-1.17-.09-1-1.18-.9-2.27-.83-2.72-.73-2.64-.66-2.42-.57-2.28-.49-2.31-.42-2.47-.34-2.66-.27-2.84-.18-3.01-.11-3.12-.02-3.22.06-3.3.13-3.36.19-3.42.27-3.49.33-3.55.4-3.61.48-3.67.56-3.81.65-4.05.72-4.45.83-4.97.92-5.47 1.05-5.76 1.17-5.63 1.28-4.99 1.28-4.04 1.15-3.83 1" filter="url(#a)"/><path d="m29.62-80.23-1.43-.85-1.95-.9-1.98-.83-1.96-.77-1.99-.73-2.05-.69-2.09-.64-2.1-.55-2.12-.47-2.12-.38-2.13-.29-2.16-.22-2.16-.13-2.19-.07-2.21.01-2.23.09-2.26.17-2.28.25-2.33.34-2.35.42-2.39.51-2.41.58-2.41.66-2.38.73-2.34.79-2.29.85-2.25.93-2.22 1-2.21 1.08-2.24 1.18-2.31 1.3-2.43 1.44-2.59 1.62-2.65 1.75-2.33 1.65-1.56 1.31" filter="url(#a)"/><path d="m29.62-80.23-1.36-.83-1.92-.89-1.97-.82-1.92-.76-1.95-.72-2.02-.7-2.09-.65-2.12-.57-2.12-.49-2.09-.4-2.09-.31-2.07-.24-2.08-.17-2.09-.1-2.12-.03-2.16.04-2.2.12-2.23.18-2.22.23-2.18.3-2.19.38-2.29.56" filter="url(#a)"/><path d="M28.67-80.97 27.45-82l-1.22-.84-1.65-.74-1.76-.71-1.86-.7-2.06-.65-2.28-.58-2.44-.48-2.5-.38-2.49-.3-2.48-.23-2.48-.17-2.56-.09-2.68-.03-2.85.05-3.04.12-3.19.19-3.27.25-3.32.33-3.54.45-4.09.63-5.03.91" filter="url(#a)"/><path d="M28.67-80.97 26.7-82l-2.02-.85-1.95-.75-1.94-.72-1.99-.69-2.05-.65-2.1-.56-2.16-.48-2.19-.38-2.22-.29-2.23-.22-2.24-.15-2.24-.08H-.89l-2.29.06-2.32.15-2.36.22-2.44.3-2.53.39-2.64.49-2.74.58-2.79.66-2.75.7-2.61.74-2.5.76-2.41.76-1.71.5" filter="url(#a)"/><path d="m26.69-81.49-3.5-.81-1.63-.85-1.46-.82-1.77-.73-2.1-.65-2.28-.55-2.27-.48-2.15-.42-1.99-.34-1.87-.26-1.81-.19-1.8-.1-1.8-.02-1.77.05-1.66.13-1.45.2-1.15.26-.81.32-.47.39-.21.46-.07.55v.63l.05.7.12.78.15.87.09.99.17 1.13 1.56 1.36" filter="url(#a)"/><path d="m25.55-82.27-3.06-.91-2.97-.85-2.11-.74-1.74-.64-1.74-.55-1.82-.47-1.9-.4-1.94-.33-1.99-.26-2.01-.17-2.03-.09-2-.01-1.91.07-1.74.14-1.49.21-1.23.28-.96.34-.77.42-.67.49-.65.57-.68.66-.71.75-.74.84-.76.94-.75 1.05-.66 1.15-.35 1.23.21 1.27.94 1.26 1.59 1.31 1.95 1.49 2.87 1.84" filter="url(#a)"/><path d="m25.55-82.27-1.97-.9-2.31-.84-2.45-.75-2.45-.64-2.33-.54-2.14-.48-1.96-.4-1.86-.34-1.84-.27-1.88-.19-1.93-.1-1.97-.03-1.97.06-1.92.13-1.8.19-1.64.25-1.48.31-1.35.38-1.29.46-1.29.54-1.3.62-1.27.68-1.2.74-1.1.86-1.08 1.14" filter="url(#a)"/><path d="m23.52-83.1-.9-.61-1.27-.66-2.07-.71-2.32-.67-2.2-.57-2.03-.46-1.95-.36-2.04-.28-2.26-.21-2.54-.14-2.82-.07-3.07.01-3.26.07-3.4.16-3.52.23-3.65.31-3.89.4-4.22.49-4.65.59-5.05.65-5.35.71-5.45.75-5.24.79-4.77.86-4.56 1.03-7.02 1.59" filter="url(#a)"/><path d="m23.52-83.1-1.99-.62-2.02-.66-2.06-.72-2.15-.67-2.2-.56-2.17-.46-2.09-.35-2.02-.28-1.96-.19-1.93-.12-1.92-.05-1.9.02-1.9.11-1.9.18-1.89.27-1.9.35-1.9.44-1.9.52-1.89.6-1.86.67-1.81.75-1.78.8-1.76.88-1.75.95-1.75 1.02-1.72 1.12-1.66 1.22-1.55 1.32-1.4 1.42-1.22 1.5-1.05 1.52-.87 1.49-.66 1.43-.49 1.4-.45 1.57-.82 2.03-1.58 2.76" filter="url(#a)"/><path d="m21.68-83.82-1.32-.53-2.1-.75-2.21-.71-2.17-.58-2.13-.45-2.13-.34-2.12-.27-2.13-.2-2.13-.12-2.16-.06-2.18.02-2.21.09-2.26.17-2.3.25-2.33.33-2.35.42-2.38.51-2.38.59-2.36.66-2.32.72-2.28.78-2.24.84-2.21.9-2.2.98-2.18 1.05-2.16 1.12-2.15 1.15-2.25 1.23-3.03 1.75" filter="url(#a)"/><path d="m21.46-84.04-2.13-.9-1.74-.61-1.96-.51-2.04-.45-2.07-.39-2.13-.33-2.26-.24-2.43-.16-2.65-.08-2.83.01-2.99.09-3.05.16-3.03.22-2.94.3-2.83.36-2.75.44-2.75.52-2.84.6-3.01.68-3.23.78-3.48.88-3.7.97-3.86 1.06-3.91 1.15-3.88 1.22-3.79 1.27-3.74 1.32-3.79 1.36-3.89 1.41-3.96 1.44-3.86 1.5-3.68 1.57-3.62 1.72-3.91 1.92-4.46 2.1-5.07 2.35" filter="url(#a)"/><path d="m21.17-84.1-2.37-.99-1.79-.79-1.95-.59-2.24-.43-2.4-.33-2.4-.25-2.4-.19-2.42-.11-2.5-.05-2.61.03-2.69.11-2.75.19-2.78.27-2.78.35-2.8.44-2.83.53-2.85.6-2.9.68-2.92.74-2.97.8-3.02.87-3.14.95-3.28 1.02-3.45 1.11-3.65 1.21-3.86 1.32-4.1 1.43-4.34 1.52-4.51 1.54-4.47 1.49-4.14 1.37-3.52 1.27-2.75 1.39-1.85 1.91" filter="url(#a)"/><path d="m18.14-85.19-2.58-.82-1.9-.56-1.68-.4-1.79-.3-2-.24-2.23-.18-2.42-.12-2.58-.04-2.7.04-2.83.11-3.01.19-3.27.27-3.62.36-4.01.45-4.28.53-4.35.61-4.18.68-3.79.74-3.34.81-3 .88-2.9.95-3.06 1.03-3.4 1.12-3.81 1.22-4.13 1.32-4.34 1.42-4.51 1.5-4.74 1.53-5.1 1.48-5.6 1.42-6.11 1.4-6.43 1.57-6.44 2.02-5.69 2.76" filter="url(#a)"/><path d="m12.66-86.93-1.41-.17-2.06-.24-2.13-.23-2.08-.18-2.06-.12-2.06-.04-2.08.03-2.1.1-2.13.19-2.15.26-2.19.34-2.21.43-2.24.52-2.23.6-2.2.67-2.15.73-2.08.78-2.02.83-1.99.9-1.98.98-1.96 1.06-1.94 1.1-1.87 1.15-1.85 1.23-2.47 1.74" filter="url(#a)"/><path d="m11.44-87.01-2.36-.43-2.44-.25-2.36-.14-2.37-.04-2.46.04-2.51.11-2.49.19-2.39.24-2.26.29-2.15.36-2.12.44-2.15.51-2.25.6-2.35.69-2.44.77-2.5.87-2.5.96-2.45 1.07-2.38 1.15-2.32 1.23-2.28 1.27-2.32 1.31-2.36 1.35-2.39 1.39-2.29 1.43-2.04 1.37-1.88 1.28-2.31 1.48" filter="url(#a)"/><path d="m8.87-87.52-2.28-.26-2.26-.1-2.37-.03-2.49.05-2.56.11-2.54.19-2.41.24-2.27.29-2.14.35-2.11.43-2.16.5-2.28.59-2.39.68-2.5.75-2.57.85-2.62.94-2.66 1.06-2.67 1.17-2.66 1.23-2.6 1.25-2.53 1.25-2.54 1.3-2.79 1.47-3.07 1.83" filter="url(#a)"/><path d="m8.87-87.52-1.73-.26-2.3-.1-2.57-.02-2.79.04-2.97.13-3.12.19-3.3.25-3.49.3-3.57.37-3.49.45-3.19.53-2.84.61-2.61.7-2.61.79-2.92.88-3.37.98-3.85 1.08-4.24 1.16-4.5 1.22-4.72 1.28-4.91 1.32-5.08 1.36-5.17 1.4-5.22 1.44-5.33 1.48-5.72 1.57-6.56 1.72-7.58 1.91-7.59 2.1-5.66 2.33" filter="url(#a)"/><path d="m6.16-87.69-3.23-.25-2.38-.09-2.14.04-2.13.14-2.17.21-2.21.27-2.28.36-2.35.45-2.43.54-2.46.62-2.46.69-2.41.73-2.37.79-2.32.84-2.29.91-2.28.99-2.23 1.05-2.19 1.13-2.16 1.22-2.32 1.39-2.89 1.76-3.77 2.37" filter="url(#a)"/><path d="m6.16-87.69-3.27-.25-2.38-.09-2.14.06-2.16.15-2.22.22-2.3.3-2.37.39-2.43.48-2.45.57-2.43.65-2.35.71-2.27.78-2.2.84-2.17.91-2.18.99-2.2 1.07-2.23 1.16-2.26 1.25-2.25 1.34-2.22 1.42-2.16 1.47-2.08 1.5-2.02 1.53-1.97 1.56-1.99 1.6-2.05 1.69-2.14 1.78-2.22 1.89-2.26 2-2.26 2.1-2.21 2.21-2.1 2.32-1.91 2.34-1.74 2.24-1.77 2.05-2.26 2.23" filter="url(#a)"/><path d="m1.91-88.03-1.73-.08-2.01.08-2.35.17-2.53.22-2.51.3-2.38.37-2.3.48-2.32.56-2.4.65-2.51.7-2.63.77-2.71.82-2.75.88-2.72.96-2.67 1.04-2.63 1.12-2.67 1.23-2.86 1.34-3.14 1.42-3.46 1.5-3.66 1.51-3.72 1.48-3.73 1.44-3.82 1.46-4.03 1.6-4.06 1.86-3.42 2.06-1.95 1.6" filter="url(#a)"/><path d="m1.91-88.03-1.72-.08-1.79.08-1.78.17-1.7.23-1.59.29-1.44.38-1.27.47-1.13.57-.99.65-.8.71-.51.76-.16.83.13.88.26.97.1 1.04-.3 1.14-.85 1.23-1.37 1.33-1.63 1.43-1.49 1.48-.99 1.51-.33 1.49.2 1.47.45 1.5.5 1.62.81 1.79 1.62 1.92 2.5 1.79 1.73 1.56" filter="url(#a)"/><path d="m1.91-88.03-1.72-.08-1.94.08-2.18.16-2.33.22-2.36.28-2.39.37-2.41.46-2.44.55-2.45.64-2.43.69-2.44.75-2.48.79-2.57.86-2.67.92-2.78 1.01-2.82 1.08-2.85 1.17-2.96 1.29-3.19 1.45-3.49 1.62-3.54 1.73-2.83 1.62-1.6 1.28" filter="url(#a)"/></g><path fill="none" stroke="#000" stroke-linejoin="round" stroke-width="3" d="M-9.55 8.74Q8.7.585-.425-5.196" filter="url(#a)"/><path fill="#D77F8C" stroke="#000" stroke-linejoin="round" stroke-width="3" d="m-15.9 62.66.34-1 .33-.97.33-.94.33-.91.33-.89.33-.85.32-.82.32-.8.32-.76.32-.74.31-.71.31-.69.32-.65.3-.63.31-.61.31-.57.3-.55.31-.53.3-.5.3-.47.3-.45.3-.42.3-.4.29-.37.3-.35.29-.33.29-.3.29-.28.3-.26.29-.23.29-.21.28-.19.29-.17.29-.15.29-.12.28-.1.29-.08.29-.06.28-.04.29-.02h.29l.28.01.29.04.28.06.29.08.28.09.29.12.29.13.28.15.29.17.29.18.28.2.29.22.29.24.29.25.29.26.29.29.3.29.29.32.29.33.3.34.29.36.3.37.3.38.3.4.3.42.3.42.31.44.3.45.31.47.31.47.31.49.31.5.31.51.32.52.32.53.32.55.32.55.32.56.33.57.33.59.33.59.33.6.33.61.34.62.34.62.34.63.35.65.34.64.35.66.36.66.35.67.36.68.36.68.37.69.37.69.37.7.37.7.38.71.38.71-.38-.71-.38-.71-.37-.7-.37-.7-.37-.69-.37-.69-.36-.68-.36-.68-.35-.67-.36-.66-.35-.66-.34-.64-.35-.65-.34-.63-.34-.62-.34-.62-.33-.61-.33-.6-.33-.59-.33-.59-.33-.57-.32-.56-.32-.55-.32-.55-.32-.53-.32-.52-.31-.51-.31-.5-.31-.49-.31-.47-.31-.47-.3-.45-.31-.44-.3-.42-.3-.42-.3-.4-.3-.38-.3-.37-.29-.36-.3-.34-.29-.33-.29-.32-.3-.29-.29-.29-.29-.26-.29-.25-.29-.24-.29-.22-.28-.2-.29-.18-.29-.17-.28-.15-.29-.13-.29-.12-.28-.09-.29-.08-.28-.06-.29-.04-.28-.01h-.29l-.29.02-.28.04-.29.06-.29.08-.28.1-.29.12-.29.15-.29.17-.28.19-.29.21-.29.23-.3.26-.29.28-.29.3-.29.33-.3.35-.29.37-.3.4-.3.42-.3.45-.3.47-.3.5-.31.53-.3.55-.31.57-.31.61-.3.63-.32.65-.31.69-.31.71-.32.74-.32.76-.32.8-.32.82-.33.85-.33.89-.33.91-.33.94-.33.97" filter="url(#a)"/></svg>