<svg xmlns="http://www.w3.org/2000/svg" width="500" height="500" viewBox="-100 -100 200 200"><defs><clipPath id="c"><path d="m26.38-.54-.22-.45-.24-.45-.26-.46-.28-.45-.3-.45-.32-.44-.34-.44-.37-.44-.39-.44-.42-.43-.44-.42-.47-.42-.49-.41-.52-.4-.55-.39-.4-.49-.46-.48-.51-.47-.56-.45-.62-.45-.68-.42-.72-.41-.78-.4-.82-.37-.86-.36-.91-.34-.96-.31-.98-.29-1.03-.27-1.05-.25-1.08-.22-1.11-.2-1.12-.17-1.15-.14-1.16-.12-1.17-.1-1.18-.07-1.19-.04-1.18-.02-1.19.01-1.18.04-1.17.06-1.16.09-1.15.11-1.13.13-1.12.16-1.09.18-1.07.21-1.05.22-1.02.25-.99.27-.96.28-.93.31-.91.32-.86.33-.84.36-.8.36-.77.38-.73.4-.7.4-.67.41-.63.42-.6.43-.57.43-.54.44-.52.45-.48.45-.46.46-.42.47-.4.47-.36.48-.34.48-.32.49-.28.5-.26.49-.23.51-.21.5-.18.51-.16.51-1.76 7.35.5.24.52.25.54.25.55.25.58.25.59.24.61.25.62.25.65.25.67.24.68.24.7.24.73.24.74.23.76.23.78.22.8.23.83.22.84.22.87.21.89.2.91.2.94.19.95.18.98.17.99.16 1.01.14 1.03.14 1.04.12 1.05.1 1.07.09 1.08.08 1.09.06 1.1.05 1.1.03 1.11.01h1.11l1.1-.03 1.11-.03 1.1-.06 1.09-.07 1.08-.1 1.06-.1 1.06-.13 1.03-.14 1.01-.16 1-.18.96-.19.94-.21.92-.22.87-.24.85-.25.81-.26.77-.28.73-.29.7-.3.65-.31.6-.33.56-.33.52-.34.47-.35.43-.35.38-.36.34-.37.46-.33.43-.34.41-.35.4-.36.37-.37.35-.37.33-.38.31-.4.29-.4.27-.41.26-.42.25-.43.22-.43.22-.45.2-.46"/></clipPath><clipPath id="b"><path d="m-27.3 2.87.21-.42.23-.42.24-.42.26-.43.29-.43.3-.43.33-.43.35-.44.37-.43.41-.44.42-.44.46-.44.48-.44.51-.43.54-.44.37-.46.44-.46.49-.47.54-.47.61-.48.66-.49.72-.48.77-.48.82-.47.86-.47.92-.46.96-.46 1-.44 1.03-.42 1.07-.42 1.1-.39 1.13-.38 1.15-.35 1.17-.34 1.19-.3 1.2-.29 1.21-.26 1.22-.23 1.22-.2 1.21-.18 1.22-.14 1.21-.12 1.19-.08 1.19-.06 1.16-.02 1.15.01 1.13.04 1.11.07 1.08.1 1.05.13 1.03.15.99.19.97.22.93.24.9.26.86.29.83.31.79.33.76.36.73.37.69.38.65.4.63.41.59.43.56.43.53.44.51.45.47.47.44.47.41.49.39.49.35.51.33.51.29.52.28.52.24.53.22.53.19.54.17.54 2.64 9.22-.48.18-.49.18-.51.19-.53.18-.55.19-.57.18-.59.19-.6.19-.63.19-.64.19-.67.19-.68.18-.71.19-.72.19-.75.19-.77.18-.79.19-.81.18-.84.19-.86.18-.88.18-.91.18-.94.17-.95.17-.98.16-1 .16-1.02.15-1.04.14-1.05.14-1.08.13-1.09.11-1.1.11-1.12.1-1.12.09-1.14.08-1.14.07-1.14.05-1.15.05-1.14.03-1.15.02h-1.13l-1.13-.01-1.11-.02-1.11-.04-1.08-.05-1.07-.07-1.04-.08-1.02-.1-.99-.11-.97-.12-.93-.14-.89-.15-.86-.17-.83-.18-.78-.2-.73-.21-.7-.22-.64-.23-.6-.25-.56-.26-.5-.27-.46-.28-.41-.29-.36-.3-.5-.24-.47-.25-.45-.26-.43-.26-.41-.27-.38-.28-.37-.28-.35-.3-.33-.29-.31-.31-.29-.31-.28-.31-.27-.32-.25-.32-.25-.33"/></clipPath><filter id="a"><feTurbulence baseFrequency=".05" numOctaves="3" result="noise" type="noise"/><feDisplacementMap in="SourceGraphic" in2="noise" scale="2"/></filter></defs><rect width="100%" height="100%" x="-100" y="-100" fill="#556B2F"/><path fill="gold" stroke="#000" stroke-linejoin="round" stroke-width="1.667" d="m66.87 1.67-.1-.8-.08 2.98.14.96-.05 1.34.05.66-.37 2.56-.05-1.27.09 1.8-.19.69-.28 3.15-.05-.77-.13 1.13-.22 1.8-.59 3.01.16.44-.65 1.43-.22 1.36-.12 1.74-.38 1.42-.56 1.88-.08-.44-.58 2.97-.21.23-.23.38-.53 1.96.32-.6-1.4 3.81-.41 1.16-.08.23-.2.27-.45 1.09-.57 1.23.04-.03-1.07 2.57-.64 1.23-1.46 2.81-.47.76.71-1.53-1.36 3.09-.44.05-.54 1.46-1.3 1.63.03-.05-.17.48-.24.38-2.68 3.85.33-.41-1.28 1.61-.14.58L47.13 59l.24-.34-1.54 1.75-.69.81-1.77 2.09.43-.88-1.77 2.49-1.86 1.55-.39.4-.17.12-.64.39-.04-.07-1.23 1.12-1.05.86-.94.87-.46.48-1.39 1.01-1.66 1.15-.58.58-.41.06-.98.82-1.47.8 1.01-.67-2.12 1.34-1.68.71-.59.42-.77.32-2.69 1.13.65-.24-1.42.99.11-.37-.45.34-2.06.6-1.71.68-.06-.03-2.08.8-.73.25-1.89.41 1.16-.27-3.01.44.62.15-2.19.39-.41.06-1.36.29-.67.03-.75-.14-1.92.21-.73.16-2.04.11.85.03-2.68-.08.52-.07-3.14-.02 1.41.19-1.9-.43-1.7.18-1.81-.55 2.25.26-4.22-.35-1.27-.24.22-.19-.19.01-1.79-.28-.28-.1-.28-.02-1.77-.41-.6-.25-2.73-.7.58-.2-1.92-.35-1.09-.55.24-.02-2.34-.86-.69-.4-.4-.17-1.66-.48.68.15-3.44-1.96-.05-.02-2.45-1.6-.75-.26-.84-.46.36.14-2.23-1.42-1.23-1.15.55.52-1.16-1.4-2.13-1.26-.17-.25-.17-.15-1.31-1.48-1.51-1.12-.11.12-.18-.52-.53-.73-1.19-.89-1.37-1.22-1.04-1.36-.12-.1-.9-1.19-.53-.88-.55-.62-.91-.72-.28-.68-1.57-2.32-.82-1.21-.44-.82.19.8-.92-1.78-.94-.9-.8-1.75-.37-.9-.09.46-.92-1.73-1.09-2.52-.26-.54-.55-1.06-.35-.97-.68-1.57-.79-1.47-.16-.49-.64-1.17-.01-.47-.77-2.05-.23-.46-.38-1.39-.74-2.12-.12-.99-.48-.98-.18-.16-.66-2.31-.69-2.86.38.65-.64-1.88.01-.62-.32-1.64-.27-.87-.28-1.26-.2-1.17.03-.74-.35-1.68-.19-3.06-.15-1.12-.07-1.04-.03-.39-.3-1.44.11-.43-.04-3.6-.25.26-.03-.53.22-3.7-.19-2.32.29.76-.01.36.04-3.16.08-2.06-.19.82.35-1.3.3-4.35-.08 1.72.18-2 .04.15.22-1.94.16-1.36.03-.52.92-4.68-.24 1.73.7-3.21.38-1.61-.33.72.61-2.57.49-1.4-.19.52.85-2.62.43-1.7.71-2.04-.14.06.64-1.85h.11l1.43-3.27-.82 1.57.91-1.49.16-.69 1.13-2.57.26-1.03 1.09-2.03-.17.39.48-.87 1.21-2.07.36-.71 1.13-2.03-.06-.13.32-.31.96-1.67.32-.51.51-.29 1.15-1.83 1.4-1.7.24-.36.96-1.66.56-.6.64-.63 1.48-1.69.81-1.09 1.33-1.3-.48.62 1.49-1.58-.08-.27v.27l1.67-1.58 1.47-1.39-.11-.03.9-.94 1.76-1.31.14.3 2.36-2.13-.01-.03-.57.66 1.9-1.63 1.37-.8 1.11-.4 1.29-1.06-.61.38 1.31-.97.58-.23 2.46-1.24 1.13-.42.34-.33.91-.23 1.69-.92.19.05 1.31-.53-.45.09 2.89-.92-.34-.09.83-.19 2.9-.76-1 .28 3.44-1-.91.45 1.76-.49 1.34-.14-.23-.1 1.05-.16 1.9-.1 1.16-.22.94-.11.2-.11.8-.04 2.01.09 1.3-.23.24.12 2.12.12.44.16h-.02l2.1.16-.18-.07 2.3.19 1.63.16.97.42-.05-.3 1.07.39 2.09.49.77.22 1.66.38.64-.01.2.15 2.09.7 1.61.55-.01.18 1.48.4-.43-.07 1.51.47 1.25.76.28.29 1.47.9 1.24.34.67.34.26.11 1.62 1.09 2.24 1.36-.86-.4 1.53 1.04 1.45.8.04.04.89.74.11-.04 3.27 2.41-.45-.16 1.02.92.32.11 1.17 1.37 2.67 2.43-.7-.68.64.51 1.18 1.41.87.9.96.95.45.62-.9-.97 2.02 2.24.41.52.81 1.56 1.22 1.4.32.17 1.92 2.81-.68-.7 1.11 1.13.67 1.5-.15-.47.97 1.83.62.96.82 1.47.56.72.61 1.22.75 1.51.91 2.03.23.7 1.02 2.4.39.57-.43-1.05 1.38 3.33.6 1.59.04.77-.45-1.35 1.5 3.84-.11-.16-.25-.22 1 3.04.24 1.05.24 1.17.55 1.92.15.23.52 2.74.07-.93.19 2.44.6 1.86-.27-.95.29 2.49.35 1.3.19 1.88.11 1.37.34 2.22-.32-1.25.41 3.97.11 1.36-.05-1.24.02 3.1.17.96-.07.09.04 3.82-.1-.8" filter="url(#a)"/><path fill="#fff" d="m-27.3 2.87.21-.42.23-.42.24-.42.26-.43.29-.43.3-.43.33-.43.35-.44.37-.43.41-.44.42-.44.46-.44.48-.44.51-.43.54-.44.37-.46.44-.46.49-.47.54-.47.61-.48.66-.49.72-.48.77-.48.82-.47.86-.47.92-.46.96-.46 1-.44 1.03-.42 1.07-.42 1.1-.39 1.13-.38 1.15-.35 1.17-.34 1.19-.3 1.2-.29 1.21-.26 1.22-.23 1.22-.2 1.21-.18 1.22-.14 1.21-.12 1.19-.08 1.19-.06 1.16-.02 1.15.01 1.13.04 1.11.07 1.08.1 1.05.13 1.03.15.99.19.97.22.93.24.9.26.86.29.83.31.79.33.76.36.73.37.69.38.65.4.63.41.59.43.56.43.53.44.51.45.47.47.44.47.41.49.39.49.35.51.33.51.29.52.28.52.24.53.22.53.19.54.17.54 2.64 9.22-.48.18-.49.18-.51.19-.53.18-.55.19-.57.18-.59.19-.6.19-.63.19-.64.19-.67.19-.68.18-.71.19-.72.19-.75.19-.77.18-.79.19-.81.18-.84.19-.86.18-.88.18-.91.18-.94.17-.95.17-.98.16-1 .16-1.02.15-1.04.14-1.05.14-1.08.13-1.09.11-1.1.11-1.12.1-1.12.09-1.14.08-1.14.07-1.14.05-1.15.05-1.14.03-1.15.02h-1.13l-1.13-.01-1.11-.02-1.11-.04-1.08-.05-1.07-.07-1.04-.08-1.02-.1-.99-.11-.97-.12-.93-.14-.89-.15-.86-.17-.83-.18-.78-.2-.73-.21-.7-.22-.64-.23-.6-.25-.56-.26-.5-.27-.46-.28-.41-.29-.36-.3-.5-.24-.47-.25-.45-.26-.43-.26-.41-.27-.38-.28-.37-.28-.35-.3-.33-.29-.31-.31-.29-.31-.28-.31-.27-.32-.25-.32-.25-.33" filter="url(#a)" transform="translate(41.7 -21.83)"/><path fill="#fff" d="m26.38-.54-.22-.45-.24-.45-.26-.46-.28-.45-.3-.45-.32-.44-.34-.44-.37-.44-.39-.44-.42-.43-.44-.42-.47-.42-.49-.41-.52-.4-.55-.39-.4-.49-.46-.48-.51-.47-.56-.45-.62-.45-.68-.42-.72-.41-.78-.4-.82-.37-.86-.36-.91-.34-.96-.31-.98-.29-1.03-.27-1.05-.25-1.08-.22-1.11-.2-1.12-.17-1.15-.14-1.16-.12-1.17-.1-1.18-.07-1.19-.04-1.18-.02-1.19.01-1.18.04-1.17.06-1.16.09-1.15.11-1.13.13-1.12.16-1.09.18-1.07.21-1.05.22-1.02.25-.99.27-.96.28-.93.31-.91.32-.86.33-.84.36-.8.36-.77.38-.73.4-.7.4-.67.41-.63.42-.6.43-.57.43-.54.44-.52.45-.48.45-.46.46-.42.47-.4.47-.36.48-.34.48-.32.49-.28.5-.26.49-.23.51-.21.5-.18.51-.16.51-1.76 7.35.5.24.52.25.54.25.55.25.58.25.59.24.61.25.62.25.65.25.67.24.68.24.7.24.73.24.74.23.76.23.78.22.8.23.83.22.84.22.87.21.89.2.91.2.94.19.95.18.98.17.99.16 1.01.14 1.03.14 1.04.12 1.05.1 1.07.09 1.08.08 1.09.06 1.1.05 1.1.03 1.11.01h1.11l1.1-.03 1.11-.03 1.1-.06 1.09-.07 1.08-.1 1.06-.1 1.06-.13 1.03-.14 1.01-.16 1-.18.96-.19.94-.21.92-.22.87-.24.85-.25.81-.26.77-.28.73-.29.7-.3.65-.31.6-.33.56-.33.52-.34.47-.35.43-.35.38-.36.34-.37.46-.33.43-.34.41-.35.4-.36.37-.37.35-.37.33-.38.31-.4.29-.4.27-.41.26-.42.25-.43.22-.43.22-.45.2-.46" filter="url(#a)" transform="translate(-40.13 -22.49)"/><g fill="none" stroke="#000" transform="translate(41.7 -21.83)"><path stroke-linejoin="round" stroke-width="1.667" d="m-29.12 6.95.21-.4.18-.41.18-.4.18-.41.16-.4.17-.41.18-.41.18-.41.18-.42.2-.41.21-.42.23-.42.24-.42.26-.43.29-.43.3-.43.33-.43.35-.44.37-.43.41-.44.42-.44.46-.44.48-.44.51-.43.54-.44.37-.46.44-.46.49-.47.54-.47.61-.48.66-.49.72-.48.77-.48.82-.47.86-.47.92-.46.96-.46 1-.44 1.03-.42 1.07-.42 1.1-.39 1.13-.38 1.15-.35 1.17-.34 1.19-.3 1.2-.29 1.21-.26 1.22-.23 1.22-.2 1.21-.18 1.22-.14 1.21-.12 1.19-.08 1.19-.06 1.16-.02 1.15.01 1.13.04 1.11.07 1.08.1 1.05.13 1.03.15.99.19.97.22.93.24.9.26.86.29.83.31.79.33.76.36.73.37.69.38.65.4.63.41.59.43.56.43.53.44.51.45.47.47.44.47.41.49.39.49.35.51.33.51.29.52.28.52.24.53.22.53.19.54.17.54.14.54.12.55.1.54.07.55.05.54.03.55.01.54-.01.55-.02.54-.05.54" filter="url(#a)"/><path stroke-linejoin="round" stroke-width="2.222" d="m-29.91 1.93.27.35.25.36.24.35.24.35.22.35.23.35.22.34.23.34.23.34.23.34.25.33.25.32.27.32.28.31.29.31.31.31.33.29.35.3.37.28.38.28.41.27.43.26.45.26.47.25.5.24.36.3.41.29.46.28.5.27.56.26.6.25.64.23.7.22.73.21.78.2.83.18.86.17.89.15.93.14.97.12.99.11 1.02.1 1.04.08 1.07.07 1.08.05 1.11.04 1.11.02 1.13.01h1.13l1.15-.02 1.14-.03 1.15-.05 1.14-.05 1.14-.07 1.14-.08 1.12-.09 1.12-.1 1.1-.11 1.09-.11 1.08-.13 1.05-.14 1.04-.14 1.02-.15 1-.16.98-.16.95-.17.94-.17.91-.18.88-.18.86-.18.84-.19.81-.18.79-.19.77-.18.75-.19.72-.19.71-.19.68-.18.67-.19.64-.19.63-.19.6-.19.59-.19.57-.18.55-.19.53-.18.51-.19.49-.18.48-.18.46-.17.44-.18.43-.17.41-.17.4-.17.38-.16.37-.17.35-.16.34-.16.33-.15" filter="url(#a)"/><circle cx="-2.53" cy="-5.169" r="3.886" clip-path="url(#b)" filter="url(#a)"/><circle cx="-.16" cy="-1.219" r="4.216" clip-path="url(#b)" filter="url(#a)"/><circle cx="-2.885" cy="-5.054" r="3.4" clip-path="url(#b)" filter="url(#a)"/><circle cx=".84" cy="-4.114" r="4.106" clip-path="url(#b)" filter="url(#a)"/><circle cx="-2.815" cy="-4.454" r="4.718" clip-path="url(#b)" filter="url(#a)"/><circle cx="-1.475" cy="-3.589" r="3.264" clip-path="url(#b)" filter="url(#a)"/><circle cx="-3.135" cy="-1.109" r="3.146" clip-path="url(#b)" filter="url(#a)"/><circle cx="-2.975" cy="-4.599" r="3.302" clip-path="url(#b)" filter="url(#a)"/><circle cx="-2.63" cy="-3.564" r="4.224" clip-path="url(#b)" filter="url(#a)"/><circle cx=".59" cy="-5.214" r="3.072" clip-path="url(#b)" filter="url(#a)"/></g><g fill="none" stroke="#000" transform="translate(-40.13 -22.49)"><path stroke-linejoin="round" stroke-width="2.222" d="m28.24 3.76-.19-.4-.18-.41-.18-.41-.18-.43-.17-.43-.18-.44-.18-.44-.19-.44-.2-.45-.21-.45-.22-.45-.24-.45-.26-.46-.28-.45-.3-.45-.32-.44-.34-.44-.37-.44-.39-.44-.42-.43-.44-.42-.47-.42-.49-.41-.52-.4-.55-.39-.4-.49-.46-.48-.51-.47-.56-.45-.62-.45-.68-.42-.72-.41-.78-.4-.82-.37-.86-.36-.91-.34-.96-.31-.98-.29-1.03-.27-1.05-.25-1.08-.22-1.11-.2-1.12-.17-1.15-.14-1.16-.12-1.17-.1-1.18-.07-1.19-.04-1.18-.02-1.19.01-1.18.04-1.17.06-1.16.09-1.15.11-1.13.13-1.12.16-1.09.18-1.07.21-1.05.22-1.02.25-.99.27-.96.28-.93.31-.91.32-.86.33-.84.36-.8.36-.77.38-.73.4-.7.4-.67.41-.63.42-.6.43-.57.43-.54.44-.52.45-.48.45-.46.46-.42.47-.4.47-.36.48-.34.48-.32.49-.28.5-.26.49-.23.51-.21.5-.18.51-.16.51-.13.51-.11.51-.09.52-.06.51-.05.52-.02.52v.51l.01.52.04.52.05.52" filter="url(#a)"/><path stroke-linejoin="round" stroke-width="2.222" d="m28.66-3.11-.2.57-.2.55-.18.55-.18.53-.18.52-.17.51-.18.49-.18.49-.19.48-.2.46-.2.46-.22.45-.22.43-.25.43-.26.42-.27.41-.29.4-.31.4-.33.38-.35.37-.37.37-.4.36-.41.35-.43.34-.46.33-.34.37-.38.36-.43.35-.47.35-.52.34-.56.33-.6.33-.65.31-.7.3-.73.29-.77.28-.81.26-.85.25-.87.24-.92.22-.94.21-.96.19-1 .18-1.01.16-1.03.14-1.06.13-1.06.1-1.08.1-1.09.07-1.1.06-1.11.03-1.1.03h-1.11l-1.11-.01-1.1-.03-1.1-.05-1.09-.06-1.08-.08-1.07-.09-1.05-.1-1.04-.12-1.03-.14-1.01-.14-.99-.16-.98-.17-.95-.18-.94-.19-.91-.2-.89-.2-.87-.21-.84-.22-.83-.22-.8-.23-.78-.22-.76-.23-.74-.23-.73-.24-.7-.24-.68-.24-.67-.24-.65-.25-.62-.25-.61-.25-.59-.24-.58-.25-.55-.25-.54-.25-.52-.25-.5-.24-.49-.25-.47-.24-.45-.24-.44-.24-.42-.23-.41-.24-.39-.23-.38-.22-.36-.23-.35-.22" filter="url(#a)"/><circle cx="-3.004" cy="2.188" r="3.444" clip-path="url(#c)" filter="url(#a)"/><circle cx="-2.529" cy="1.583" r="3.388" clip-path="url(#c)" filter="url(#a)"/><circle cx="-2.609" cy=".578" r="3.824" clip-path="url(#c)" filter="url(#a)"/><circle cx="-2.434" cy="2.513" r="3.81" clip-path="url(#c)" filter="url(#a)"/><circle cx="-2.814" cy="-.542" r="3.018" clip-path="url(#c)" filter="url(#a)"/><circle cx="-6.504" cy="-.227" r="4.572" clip-path="url(#c)" filter="url(#a)"/><circle cx="-4.999" cy=".413" r="4.986" clip-path="url(#c)" filter="url(#a)"/><circle cx="-5.329" cy=".843" r="3.72" clip-path="url(#c)" filter="url(#a)"/><circle cx="-4.554" cy="3.418" r="4.644" clip-path="url(#c)" filter="url(#a)"/><circle cx="-6.609" cy="-1.057" r="4.274" clip-path="url(#c)" filter="url(#a)"/></g><g fill="none" stroke="indigo" stroke-linejoin="round" stroke-width="2"><path d="m-33.73-71.84.22.04 1.08-.22 1.89-.47 2.4-.55 2.72-.52 2.94-.44 3.17-.39 3.44-.35 3.72-.35 3.94-.33 4.09-.32 4.14-.3 4.14-.27 4.13-.25 4.12-.19 4.09-.14 3.91-.15m25.22 16.1.22.32.37.5.64.81.74.97.74.99.67.91.57.78.43.61.28.43.11.25-.06.05-.22-.13-.4-.33-.59-.53-.8-.79-1.05-1.07-1.31-1.38-1.56-1.69-1.86-2.04-2.27-2.48-2.79-3.04" filter="url(#a)"/><path d="m-10.21-82.17.81-.1.51-.03.53.03.43.11.19.22-.12.34-.44.49-.76.66-1.07.84-1.44 1.01-1.84 1.2-2.29 1.38-2.74 1.55-3.2 1.71-3.67 1.89-4.19 2.13-4.81 2.47-5.57 2.95m96.29 18.39.72 1.52.64 1.44.54 1.24.43 1 .34.82.25.68.17.55.06.38-.07.17-.2-.07-.35-.31-.5-.56-.64-.8-.79-1.05-.93-1.3-1.07-1.58-1.24-1.91L52.34-47l-1.67-2.74-1.94-3.21-2.15-3.62-2.16-3.82m-72.36-15.3 1.06-.49 1.33-.62 1.15-.55.95-.44.78-.35.61-.26.42-.16.23-.05.02.06-.18.18-.42.32-.73.48-1.09.69-1.49.89-1.87 1.06-2.22 1.21-2.73 1.52" filter="url(#a)"/><path d="m59.32-38.29.23.33.3.67.36.97.3.89.19.69.1.48v.33l-.08.19-.19.04-.3-.14-.43-.35-.58-.63-.72-.93-.88-1.26-1.04-1.61-1.21-1.95-1.4-2.32-1.62-2.73-1.86-3.17-2.07-3.58-2.24-3.94-2.54-4.44" filter="url(#a)"/><path d="m56.41-44.93.66 1.43.45 1.18.22.82-.04.4-.3-.01-.58-.36-.87-.7-1.17-1.1-1.51-1.54-1.86-2.03-2.24-2.53-2.64-3.05L43.45-56l-3.57-4.17-4.04-4.76-4.41-5.35m-65.17-1.59.46-.03 1.69-.59 2.26-.62 2.57-.53 2.82-.43 3.09-.36 3.42-.33 3.77-.31 4.07-.3 4.26-.27 4.37-.23 4.41-.21 4.41-.2 4.41-.18 4.44-.11 4.46-.01" filter="url(#a)"/><path d="m58.3-40.69.69 1.54.31.7.16.5.04.39-.14.13-.36-.26-.58-.68-.82-1.07-1.05-1.48-1.34-1.92-1.64-2.4-1.96-2.92-2.31-3.52-2.77-4.3-3.48-5.34M-16.4-80.65l1.75-.45 1-.25.78-.15.55-.05.33.04.09.14-.14.25-.41.37-.7.51-1.05.65-1.43.8-1.85.97-2.29 1.16-2.78 1.39-3.35 1.64-3.92 1.88-4.41 2.06M9.81-82.33l1.34.44 1.54.5 1.54.53 1.52.56 1.52.62 1.57.69 1.59.74 1.59.79 1.56.8 1.5.8 1.45.79 1.39.78 1.34.75 1.26.69 1.14.62 1 .51.84.4.66.29.46.18.19.02-.16-.19-.44-.36" filter="url(#a)"/><path d="m7.26-82.61 1.29.19.92.18.87.18.93.21.96.22.88.22.74.19.54.17.33.15.1.13-.15.1-.43.04-.73-.02-1.06-.08-1.4-.13-1.76-.17-2.15-.22-2.53-.28-2.87-.37-3.14-.46m-17.93 2.82.48-.19 1.11-.36 1.21-.36 1.29-.34 1.34-.32 1.34-.3 1.29-.27 1.21-.23 1.13-.22 1.03-.19.93-.16.82-.15.69-.12.55-.1.37-.06.17-.02-.04.02-.28.06-.52.1-.78.14-1.06.17-1.35.2-1.57.18" filter="url(#a)"/><path d="m-6.15-82.67 1.16-.07 1.32.17 1.65.39 2.06.59 2.41.75 2.66.9 2.82 1.02 2.91 1.11 2.99 1.18 3.07 1.24 3.18 1.3 3.3 1.37 3.39 1.44 3.39 1.48 3.25 1.42 3.01 1.28 2.79 1.16" filter="url(#a)"/><path d="m-19.33-79.54.56-.17 1.33-.32 1.6-.3 1.8-.27 1.99-.23 2.11-.2 2.17-.17 2.16-.13 2.11-.12 2.05-.1 1.97-.09 1.89-.08 1.76-.08 1.56-.08 1.26-.11.94-.13.81-.07m-25.63 1.82.27-.15 1.11-.25 1.47-.27 1.58-.25 1.6-.22 1.59-.18 1.57-.16 1.55-.14 1.52-.13 1.47-.12 1.42-.12 1.3-.11 1.17-.1.99-.09.78-.08.55-.06.29-.05.04-.03-.15-.03-.27-.04" filter="url(#a)"/><path d="m-34.31-71.21 1.72-1.27 1.57-.9 1.46-.71 1.42-.63 1.48-.61 1.62-.62 1.76-.64 1.87-.66 1.89-.64 1.87-.61 1.79-.56 1.7-.53 1.61-.49 1.52-.45 1.43-.44 1.35-.4 1.21-.39 1.05-.34.81-.31.53-.24.25-.19.09-.12m41.81 14.1.78.69.72.7.7.75.5.6.21.4-.1.2-.38.03-.69-.16-1.04-.37-1.4-.6-1.78-.8-2.16-.99-2.52-1.19-2.91-1.4-3.35-1.67-3.91-1.99-4.58-2.35-5.23-2.72" filter="url(#a)"/><path d="m-9.1-82.41 1.45.03 2.01.34 2.3.63 2.57.9 2.9 1.16 3.28 1.4 3.64 1.61L13-74.53l4.17 1.98 4.35 2.16 4.49 2.31 4.61 2.43 4.73 2.51 4.78 2.52 4.75 2.42m7.95 7.07.82 1.49.71 1.23.65 1.1.59 1.06.53 1.02.45.96.35.83.22.63.05.36-.11.08-.29-.21-.45-.47-.63-.76-.79-1.04-.98-1.35-1.17-1.67-1.39-2.03-1.64-2.4-1.85-2.74-2.05-3.08-2.36-3.55" filter="url(#a)"/><path d="m51.88-52.59-.42-.12-.57.39-1.13.48-1.79.44-2.47.4-3.17.33-3.9.24-4.66.12-5.48-.01-6.35-.13-7.26-.26-8.23-.4-9.21-.6-10.18-.85-11.12-1.09-12.01-1.23" filter="url(#a)"/><path d="m58.3-40.69.4 1.49-.56.58-1.28.36-1.99.26-2.74.03-3.56-.27-4.37-.59-5.19-.86-5.99-1.12-6.81-1.36-7.62-1.61-8.48-1.88-9.39-2.16-10.39-2.42-11.46-2.63-12.53-2.85m27.51-26.95.98-.17.75-.11.71-.05.76-.02.74.04.65.08.5.12.3.18.1.22-.1.27-.29.33-.5.38-.72.45-.98.52-1.26.59-1.56.66-1.88.73-2.21.83-2.58.91-2.97.98-3.32 1.04-3.67 1.08-4.06 1.17-4.57 1.33m65.01-.7.69.61.65.73.43.77.05.73-.29.71-.61.72-.93.72-1.29.72-1.68.68-2.1.65-2.53.6-2.97.58-3.39.53-3.83.5-4.24.47-4.66.47-5.08.49-5.54.54-6.07.58-6.65.62-7.23.62-7.8.57-8.32.54m92.02 5.5.46.96.43.78.51.9.56.96.53.94.47.89.39.81.28.7.16.56.03.35-.12.12-.28-.13-.44-.39-.63-.66-.82-.94-1.04-1.26-1.26-1.59-1.51-1.94-1.76-2.31-1.99-2.64-2.2-2.96-2.4-3.28-2.83-3.81" filter="url(#a)"/><path d="m-22.52-78.14 1.5-.47h1.77l2.3.27 2.9.45 3.47.61 3.97.76 4.42.89 4.82 1.03 5.16 1.19 5.45 1.36 5.72 1.55 5.91 1.68 5.98 1.71 5.94 1.58m22.49 26.76.78 2.41-.12 1.19-.81.49-1.34.14-1.84-.04-2.36-.2-2.88-.36-3.43-.53-3.99-.73-4.59-.98-5.2-1.25-5.85-1.55-6.52-1.85-7.19-2.14-7.86-2.43-8.55-2.72-9.19-3.05-9.8-3.43-10.4-3.73m65.54-12.28.66.56.57.59.3.56-.16.4-.63.26-1.07.14-1.51.02-2.01-.14-2.58-.34-3.18-.57-3.82-.77-4.49-.97-5.22-1.19-6.01-1.43-6.76-1.65-7.32-1.86" filter="url(#a)"/><path d="m37.95-68.7-.05.13.29.41.39.56.31.59.09.48-.22.32-.55.15-.89-.01-1.24-.17-1.62-.35-2.01-.51-2.39-.67-2.76-.79-3.14-.92-3.56-1.07-4.03-1.25-4.53-1.48-5.03-1.74-5.55-2.03-6.22-2.27" filter="url(#a)"/><path d="m52.83-51.13.77 1.44.55 1.05.37.82.18.67v.52l-.21.37-.45.14-.72-.16-1.01-.49-1.31-.84-1.61-1.19-1.93-1.52-2.25-1.87-2.61-2.25-3-2.66-3.41-3.06-3.83-3.47-4.22-3.84-4.61-4.2-5.07-4.62M.5-83.17l1.46.12.89.1.77.08.8.07.78.06.68.08.44.07.1.07-.28.07-.65.06-1 .06-1.42.05-1.96.01-2.67-.02-3.47-.05" filter="url(#a)"/><path d="m37.5-68.86.64.71.33.78.01.87-.45.83-1.01.72-1.56.65-2.1.61-2.65.57-3.2.53-3.78.48-4.34.45-4.88.45-5.44.48-6.06.52-6.73.56-7.47.58-8.24.56-8.99.49-9.71.45m21.73-23.08 1.86-.47 1.36-.29 1.37-.25 1.38-.22 1.36-.19 1.31-.18 1.28-.16 1.23-.15 1.16-.14 1.02-.13.8-.12.5-.09.18-.06-.18-.03-.56.01-.86.03m-33.04 13.08.8-.35 1.24-.68 1.35-.62 1.59-.61 1.88-.68 2.12-.72 2.28-.73 2.36-.72 2.43-.69 2.5-.7 2.57-.7 2.62-.69 2.59-.68 2.51-.64 2.39-.61 2.25-.58 2.15-.53 2.01-.49 1.78-.46 1.3-.46" filter="url(#a)"/><path d="m-22.52-78.14 1.17-.58.73-.3.61-.21.56-.15.51-.1h.42l.3.1.15.22-.04.35-.27.48-.53.65-.82.81-1.11.99-1.43 1.21-1.75 1.42-2.09 1.66-2.43 1.89-2.81 2.13-3.21 2.41-3.66 2.74-4.13 3.09-4.61 3.39m70.7-21.78.57.42.75.46.6.4.39.37.19.38-.01.38-.27.35-.57.29-.91.22-1.26.16-1.61.09-1.98.05-2.36.02-2.74-.03-3.15-.1-3.58-.17-4.03-.25-4.49-.34-4.99-.43-5.57-.56-6.12-.71" filter="url(#a)"/><path d="m-24.9-77.16.96-.39 1.04-.4 1.23-.46 1.35-.47 1.39-.46 1.38-.44 1.37-.44 1.35-.42 1.3-.4 1.2-.35 1.03-.3.79-.24.51-.16.2-.09-.11.01-.59.13m67.66 38.62.59 1.54.23 1.11-.08.77-.38.5-.68.3-.98.15-1.31-.06-1.65-.28-2-.52-2.37-.74-2.74-.93-3.09-1.11-3.47-1.3-3.85-1.5-4.23-1.74-4.63-2.02-5.06-2.31-5.49-2.62L10-57.09l-6.46-3.2-6.99-3.47-7.62-3.7-8.28-3.92m44.84-5.15.79.29.26.28-.12.36-.51.38-1.04.34-1.66.25-2.32.12-3.01.02-3.71-.1-4.43-.18-5.18-.24-5.99-.31-6.86-.44-7.79-.62m26.96-5.56 1.49.38.89.27.45.22.03.21-.36.24-.78.26-1.3.27-1.89.26-2.54.23-3.17.21-3.79.22-4.4.22-5.08.21-5.88.21" filter="url(#a)"/><path d="m4.96-82.8 1.84.2 1.15.23.64.27.35.33.18.4v.48l-.24.55-.54.63-.88.7-1.22.8-1.59.9-1.97.99L.3-75.24l-2.77 1.15-3.18 1.22-3.57 1.31-3.97 1.42-4.42 1.57-4.93 1.75-5.5 1.95-6.09 2.12-6.6 2.17m4.5-9.43.81-.36 1.28-.71 1.39-.66 1.63-.68 1.94-.75 2.16-.82 2.3-.83 2.34-.82 2.39-.81 2.44-.81 2.48-.8 2.47-.79 2.39-.76 2.26-.71 2.11-.66 2-.59 1.88-.56 1.63-.53" filter="url(#a)"/><path d="m30.66-73.69 1.15.83.47.57-.1.43-.52.42-.91.46-1.37.46-1.89.44-2.46.38-3.04.35-3.63.3-4.28.23-5.01.16-5.74.06-6.44-.06-7.1-.16-7.85-.24-8.76-.27" filter="url(#a)"/><path d="m.5-83.17 1.34.15.5.2.14.28-.08.36-.32.48-.66.61-1.11.77-1.66.93-2.22 1.1-2.79 1.3-3.36 1.49-3.96 1.68-4.6 1.83-5.25 1.97-5.91 2.09-6.53 2.21M4.96-82.8l2.01.26 1.69.42 1.53.53 1.61.67 1.78.81 1.97.93 2.09 1.02 2.13 1.07 2.15 1.12 2.14 1.14 2.11 1.14 2.05 1.12 1.97 1.1 1.89 1.07 1.82 1.07 1.77 1.07 1.68 1.03 1.52.91 1.27.7 1 .47" filter="url(#a)"/><path d="m9.81-82.33 1.25.38 1.28.34 1.09.28.88.23.7.21.54.21.35.2.12.19-.15.14-.46.11-.74.07-1.03.04-1.33.03h-1.64l-2.01-.05-2.4-.12-2.8-.18-3.2-.26-3.62-.32-3.95-.45" filter="url(#a)"/><path d="m-33.74-71.87.42-.08 1.57-.74 2.06-.87 2.27-.86 2.38-.82 2.52-.81 2.71-.84 2.9-.86 2.99-.89 2.96-.86 2.84-.81 2.71-.75 2.64-.7 2.67-.65" filter="url(#a)"/><path d="m-11.06-82.13.08.17 1.07-.04 1.42-.06 1.61-.03 1.81-.01 1.95.02 2.02.03 2.02.06 1.99.08 1.94.09 1.85.09 1.69.08 1.48.06 1.24.07.94.07.58.04m-33.27 2.4 1.05-.31 1.27-.14 1.62-.04 1.91.08 2.17.2 2.4.31 2.59.43 2.74.54 2.85.63 2.94.72 3.02.78 3.11.82 3.17.85 3.24.86 3.28.88 3.3.93 3.33.99 3.35 1.05 3.34 1.09 3.25 1.03 3.06.91 2.85.8" filter="url(#a)"/><path d="m-36.09-69.71 1.63-1.27 1.19-.45 1.48-.28 1.94-.27 2.31-.25 2.58-.17 2.77-.08h2.97l3.19.06 3.41.09 3.61.14 3.77.18 3.9.26 3.99.35 4.06.43 4.12.49 4.15.52 4.18.53 4.2.55 4.2.55 4.11.49 3.79.2M-16.4-80.65l1.83-.47 1.25-.3 1.2-.26 1.15-.22 1.11-.2 1.04-.18.98-.17.92-.14.82-.13.68-.09.49-.07.27-.02.02.02-.22.07-.48.11-.78.15-1.14.2-1.56.24-2.14.31m13.58-1.25.5.14.89.15 1.25.19 1.49.23 1.6.27 1.59.28 1.5.29 1.37.29 1.26.27 1.15.26.99.22.74.15.4.05-.02-.06-.41-.16-.65-.2" filter="url(#a)"/><path d="m-19.33-79.54.71-.06 1.84-.02 2.4.17 2.93.36 3.41.54 3.82.72 4.18.9 4.47 1.07 4.72 1.21 4.92 1.3 5.08 1.37 5.27 1.46 5.48 1.58 5.5 1.6" filter="url(#a)"/><path d="m-24.9-77.16.89-.38.82-.38.87-.38.86-.37.78-.33.69-.28.6-.22.49-.16.35-.09.18.02-.06.13-.31.25-.6.4-.9.53-1.26.69-1.67.87-2.16 1.09-2.66 1.33-3 1.48m29.95-10.1 1.13-.03 1.26.24 1.41.41 1.54.53 1.7.63 1.9.72 2.08.81 2.22.91 2.3.97 2.34 1.03 2.34 1.07 2.33 1.09 2.32 1.08 2.28 1.06 2.23 1.05 2.17 1.03 2.1 1.04 2.04 1.06 1.92 1.02 1.71.9 1.44.69 1.16.5m25.23 52.52.07 1.36-.03 1.24-.05 1.22-.04 1.25-.04 1.21-.07 1.16-.12 1.14-.23 1.17-.38 1.22-.55 1.26-.66 1.3-.65 1.29-.47 1.28-.21 1.2-.06 1.04-.37.73m-63.29-89.4L0-84.68l1.07-4.17 1.07-4.06.97-2.15.94-.42 1.01.29 1.16.16 1.29-.25 1.34-.52 1.31-.58 1.23-.43 1.17-.16 1.27-.05 1.53-.52 1.88-1.85 2.33-3.36-23.42 19.64-.45-.05-.85-.13-1.06-.13-1.09-.17-1.04-.24-.96-.33-.94-.33-.96-.24-.99-.12-1.04-.03h-1.12l-1.17.03-1.17.05-.94-.05-.25-.23" filter="url(#a)"/><path d="m-6.15-82.67-1.45.07-.98-.01-.85-.06-.9-.14-.99-.24-1.06-.29-1.14-.31-1.19-.34-1.25-.46-1.27-.61-1.28-.71-1.24-.69-1.18-.58-1.16-.47-1.17-.48-1.25-.61-1.36-.77-1.46-.8-1.52-.57-1.54-.1-1.54.45-1.46.73-1.62.22 28.86 6.77-1.49-.37-1.05-.61-.99-1.12-1.13-1.71-1.26-2-1.34-1.91-1.35-1.5-1.33-.89-1.29-.36-1.31-.21-1.38-.54-1.48-1.14-1.52-1.58-1.47-1.52-1.35-1.04-1.38-.72-1.73-1.21-1.95-1.83m20.74 20.76.9.18.78.47.94.34 1.02.03 1-.15.95-.13.92-.01.95.14.98.26 1.01.33 1.01.33.96.3.9.3.83.33.81.42.86.52.99.62 1.22.64 1.45.57-18.48-5.49.88-.07.74.05.93.18 1.04.35 1.03.45.99.46.95.45.94.47.98.51.99.53.98.51.93.52.86.65.79.94.75 1.29.8 1.49.9 1.33 1.06.81 1.18.27.98.36" filter="url(#a)"/><path d="m-10.21-82.17.84-.56.66-1.21.81-1.65.96-1.55.99-1.31.99-1.2.99-1.13 1.03-.94 1.08-.59 1.12-.21 1.13.07 1.1.18 1.08.16 1.06.05 1.1-.14 1.18-.43 1.29-.83 1.4-1.33 1.44-1.8 1.43-2.05 1.4-1.88 1.43-1.21 1.57-.39 1.64-1.43-29.48 21.87-.29-.34-1.25-.99-1.52-1.71-1.52-1.72-1.44-1.35-1.36-1.11-1.33-1.09-1.33-1.17-1.34-1.26-1.39-1.35-1.46-1.38-1.54-1.37-1.6-1.52-1.71-1.99-1.77-1.64" filter="url(#a)"/><path d="m-11.97-81.68-.32-.39-1.17-.54-1.24-.35-1.23-.18-1.21-.28-1.2-.44-1.15-.45-1.07-.28-.99-.03-.99.1-1.07.01-1.26-.36-1.51-.86-1.75-1.3-1.88-1.49-1.84-1.33-1.64-.91-1.37-.47-1.21-.19-1.21.02-1.29.52-1.19 1.51m28.7 7.24-.11-.4.65-.59.83-.39.87-.39.94-.53.97-.8.98-1.09.96-1.29.96-1.32L-3-90.1l1.06-.98 1.12-.82 1.13-.68 1.11-.55 1.07-.45 1.06-.48 1.08-.76 1.19-1.16 1.37-1.36 1.58-1.08 1.7-.64 1.56-1.01" filter="url(#a)"/><path d="m-14.5-81.13-.65-2.52-1.45-1.91-1.26-.6-1.14-.14-1.11-.22-1.09-.31-1.04-.18-1.03-.03-1.12-.11-1.33-.51-1.61-1.08-1.87-1.53-2.01-1.72-2.02-1.64L-35.1-95l-1.59-.93-1.27-.27-1.12.39-1.5.26-2.77-1.89m46.2 19.62-.22-.16-.68-.42-.9-.38-1-.34-1.04-.36-1.02-.4-.98-.4-.95-.32-.94-.14-.94.02-.95.13-.95.12h-.95l-.94-.14-.94-.22-.97-.17-1.01-.02-1.04.16-1.09.28-1.08.27-.9.12-.25-.18m82.46 64.46-.1-1.49-.08-.96-.1-1.05-.08-1.15-.05-1.19-.05-1.22-.07-1.27-.08-1.33-.11-1.37-.16-1.37-.23-1.3-.26-1.22-.25-1.13-.18-1.06-.1-1-.01-.9.01-.87-.39-1.19m2.29 21.07-.08-1.49.16-1.04.26-1.17.17-1.22.06-1.23.04-1.27.12-1.37.27-1.5.4-1.63.46-1.7.41-1.66.25-1.52.05-1.35-.04-1.24.07-1.17.4-.98.93-.95m-98.34-23.02-.54-1.12-.15-1.33.27-1.52.48-1.52.57-1.29.58-1.03.58-.91.61-.95.65-1.09.73-1.26.76-1.33.76-1.25.76-1.06.79-.84.82-.69.53-.4" filter="url(#a)"/><path d="m-22.52-78.14 1.03-1.23.73-.75.77-.38.85-.33.91-.41.95-.47 1.01-.48 1.04-.46 1.04-.48 1.02-.58.97-.76.9-.95.88-1.07.87-1.05.92-.9.98-.66 1.02-.48 1.04-.42 1.01-.52 1.01-.7 1.07-.84 1.2-.88 1.17-.84.7-.36m-9.88 19.16-1.1-.42-.92-.35-1.04-.34-1.12-.36-1.12-.33-1.07-.21-.98.03-.87.29-.78.48-.75.53-.78.4-.87.09-1-.21-1.07-.37-1.15-.29-1.41-.17-2.02.29-1.89 1.2 1.54.42 1.42.01 1.26-.4 1.19-.16 1.17.22 1.12.41 1.05.39.97.32.91.24.87.17.86.03.85-.17.87-.26.96-.12.98.32.26.75" filter="url(#a)"/><path d="m-28.64-75.1-1.32.56-1.49.04-1.28.25-.93.59-.72.78-.7.79-.8.72-.93.62-1.03.51-1.09.44-1.12.37-1.13.29-1.12.23-1.1.14-1.03.11-.97.14-.91.28-.87.5-.91.74-1.02.87-1.19.81-1.25.52-1.13.17 21.64-9.01-.8 1.89-.5 1.53-.63.65-.82.29-.92.34-.93.55-.87.74-.8.84-.74.92-.64.97-.52 1.06-.36 1.14-.24 1.2-.18 1.23-.21 1.19-.33 1.11-.5 1.05-.63 1-.68 1.01-.62 1.03-.45 1.13-.21 1.27-.04 1.04 7.43-19.55.66-.35.83-.66.7-.57.71-.55.82-.59.9-.62.92-.61.87-.59.85-.58.86-.58.92-.59.99-.59 1.03-.57 1.03-.53.98-.48.94-.44.87-.4.82-.37.77-.36.93-.4 1.77-.69-20.93 12.43.22 2.23-.61.85-.81.72-.74.74-.57.76-.46.79-.44.81-.46.88-.48.99-.49 1.13-.48 1.24-.46 1.31-.46 1.3-.46 1.29-.47 1.26-.41 1.31-.3 1.4-.13 1.49.03 1.51.13 1.45.14 1.3.08 1.1-.09.97-.73 1.04 6.19-25.51-1.91-.36-1.5-.91-1.67-1.28-1.34-.62-.88.33-.78.83-1.05.75-1.49.32-1.85-.09-2-.26-1.9-.11-1.71.22-1.58.52-1.62.57-1.79.36-1.88.12-1.74.12-1.63.2-2.42-.9" filter="url(#a)"/><path d="m-41.92-64.76 1.4-1.38.97-1.12.74-1.04.71-1.09.73-1.06.79-.93.82-.75.85-.62.86-.55.88-.58.88-.66.85-.74.81-.82.78-.88.78-.93.82-.98.89-1 .96-.97.99-.86.98-.72.97-.6.93-.63.85-.79.9-1.08-21.06 20.78-1.91-.54-1.34-.38-.76.82-.74 1.18-1.02.93-1.41.42-1.74-.02-1.84-.13-1.66.11-1.29.58-.93 1-.74 1.17-.8 1.01-1.02.64-1.32.25-1.57-.02h-1.67l-1.52.41-1.15 1.18-1.51 1.59-5.19 1.96 1.15-.97 1.01-.95 1.02-.8 1.1-.79 1.36-.68 1.62-.44 1.66-.32 1.41-.43 1.06-.65.86-.78.97-.68 1.3-.4 1.67-.13 1.85-.03 1.72-.21 1.37-.55 1.03-.86 1-.83 1.3-.52 1.6-.33 1.55-.55 2.51.7" filter="url(#a)"/><path d="m-44.18-62.5-3.45-2.27-1.49.42-.53 1.42-.21 1.7-.41 1.49-.87 1.03-1.3.61-1.5.36-1.49.29-1.39.27-1.37.16-1.38.06-1.28.1-1.07.41-1.06.69-1.54.24 19.53-5.89-1.31 1.01-.89.86-.95.66-1.13.5-1.28.47-1.36.48-1.38.46-1.4.35-1.45.2-1.49.03-1.52-.07-1.49-.03-1.37.22-1.15.7-1.03 1.22-1.73 1.28 28-27.67-1.02 3.03-.67 1.96-.64 1.54-.66 1.32-.75 1.08-.79.92-.7.95-.43 1.13-.16 1.34-.03 1.42-.13 1.28-.41 1.04-.71.9-.86 1.03-.72 1.4-.51 1.31" filter="url(#a)"/><path d="m-47.67-58.49.5-.79.67-1.08.73-1.23.66-1.23.58-1.08.55-.86.57-.65.61-.56.66-.6.68-.72.71-.85.73-.94.77-.96.8-.97.87-1.01.94-1.06.94-1.07.53-.77-13.46 18.09-.53.83-.6 1.41-.38 1.52-.25 1.4-.28 1.18-.38.97-.47.85-.54.85-.57.88-.59.94-.6.96-.59.99-.53 1.03-.46 1.12-.39 1.2-.31 1.29-.23 1.29-.14 1.22-.06 1.13v2.21l-.07 1.25-.21 1.42-15.9-8.8 1.26.09 1.12-.64.88-.89.92-.79 1.07-.63 1.21-.59 1.29-.64 1.33-.72 1.31-.74 1.26-.74 1.16-.75 1.04-.79.94-.83.9-.83.89-.77.92-.66.9-.58.83-.56.75-.62.72-.73.78-.88 1.03-1.08 1.33-1.41" filter="url(#a)"/><path d="m-50.27-54.77.71-1.62-.04-1.96-.23-2.14.01-1.93.42-1.52.77-1.13.92-.89.88-.77.74-.77.59-.79.52-.83.52-.86.59-.96.59-1.16.52-1.43.44-1.65.44-1.69.58-1.45.38-.71" filter="url(#a)"/><path d="m-51.42-52.94.86-1.84.96-1.26.83-1.04.74-.98.74-.99.76-1.01.79-1 .79-.95.74-.88.65-.78.56-.72.51-.69.53-.7.61-.76.72-.83.76-.87.63-.82.58-.85" filter="url(#a)"/><path d="m-51.93-52.65.7-.75.89-1.17.86-1.18.8-1.09.75-1.02.77-.98.79-.97.82-.96.8-.91.75-.84.68-.75.62-.66.59-.62.6-.61.67-.66.76-.73.8-.78.81-.78.91-.83 1.33-1.07" filter="url(#a)"/><path d="m-53.21-50.47-.46-2.43.01-1.53.9-.77 1.14-.73.95-1 .67-1.31.46-1.5.4-1.54.49-1.44.62-1.27.72-1.09.73-.97.66-.92.55-.92.47-.98.42-1.07.44-1.21.47-1.36.48-1.5.49-1.58.53-1.57.62-1.39.2-1.13 4.96 25.66-1.44.34-1.32.4-1.25.37-1.12.37-.96.51-.82.68-.81.78-.96.68-1.22.4-1.45.1-1.5-.06-1.35-.02-1.05.2-.82.44-.76.59-.92.68-1.05.9-1.08 1.44m-.31.48-1.7 1.02-.82 1.43-.83 1.24-.91.91-.9.69-.86.61-.93.61-1.11.59-1.37.55-1.63.54-1.85.6-2.02.71-2.05.82-1.86.82-1.66.58-2.12.4" filter="url(#a)"/><path d="m-57.57-42.71.89-1.1.91-.45.87-.61.79-.85.74-.91.69-.86.66-.77.66-.69.73-.6.84-.55.94-.54.98-.61.95-.73.88-.82.82-.84.84-.77.95-.63 1.11-.48 1.34-.35 1.53-.23 1.58-.29-21.25 17.97-.36.83-.08.79-.05 1.08-.01 1.23.07 1.32.19 1.43.33 1.55.41 1.62.37 1.57.2 1.44-.02 1.28-.21 1.14-.29 1.08-.21 1.12-.04 1.22.13 1.34.27 1.44.32 1.47.29 1.42.21 1.29.18 1.12.25 1.01.24 1.25" filter="url(#a)"/><path d="m-82.32-27.07.94.59 1.89-.72 1.95-.85 1.9-.74 1.61-.79 1.21-.95 1.04-1.05 1.18-1.04 1.45-.97 1.48-.96 1.11-1.05.72-1.1.86-.9 1.64-.41 2.1.08 1.21 1 13.72-19.89-.75 1.23-.81 1.02-.92.98-.88.93-.77.85-.66.81-.57.81-.53.82-.53.85-.57.9-.63.92-.65.94-.67.93-.65.96-.62 1.01-.57 1.12-.53 1.22-.5 1.22-.49 1.05-.49.75-.58.63-.96 1.64m-.75 1.85.34.84.25 1.62-.2 1.57-.5 1.31-.56 1.13-.45 1.07-.28 1.1-.12 1.18.01 1.27.08 1.36.09 1.44.06 1.48.04 1.47.07 1.43.15 1.31.22 1.14.27.9.35.52.35-.46" filter="url(#a)"/><path d="m-61.25-33.44.03-.5.24-.97.26-1.08.2-1.07.2-1.05.26-1.08.37-1.15.46-1.19.52-1.2.54-1.18.52-1.15.5-1.15.48-1.16.44-1.19.41-1.19.37-1.16.33-1.1.34-1.04.39-1.01.44-1.05.5-1.24.64-1.61 1.04-1.86-10.19 28.42.32-1.45-.06-1.22-.22-1.31-.16-1.31-.1-1.26-.19-1.35-.52-1.66-.91-2.1-1.22-2.5-1.32-2.68-1.19-2.62-.93-2.42-.63-2.2-.32-2.1-.14-2.17-.33-2.51-.77-2.8-.84-1.94 8.44 39.4.08-.5.09-1.54-.32-1.91-.6-1.94-.62-1.81-.48-1.65-.29-1.5-.13-1.37.02-1.3.1-1.33.05-1.48-.09-1.71-.25-1.92-.34-2-.31-1.98-.23-1.93-.21-1.98-.37-2.23-.69-2.56-1-2.74-.98-2.51-.32-1.87 1-1.44M71.7-57.12l-.09 2.65-.17 2.51-.62 2.51-1.2 2.59-1.4 2.52-1.19 2.28-.73 1.95-.17 1.58.32 1.21.64.92.72.82.51.91.03 1.19-.66 1.61-1.29 2.05-1.52 2.26-.94 2.03.08 1.74" filter="url(#a)"/><path d="m64.02-23.79 1.19-2.29 1.45-2.25.83-1.92-.01-1.44-.44-1.11-.49-1.02-.34-1.06-.12-1.2.08-1.37.21-1.52.27-1.62.27-1.69.34-1.83.48-2.03.63-2.3.69-2.48.49-2.44.06-2.15-.39-1.79-.57-1.66-.3-1.94.1-2.48.51-3.37m-5.73 39.87-.31-1.43-.28-1.37-.22-1.11-.21-1.01-.19-.99-.18-1.04-.17-1.11-.13-1.2-.09-1.31-.05-1.37-.07-1.42-.16-1.43-.29-1.46-.39-1.47-.46-1.49-.49-1.48-.48-1.46-.47-1.41-.47-1.37-.44-1.31-.34-1.23-.21-1.09-.17-1.36" filter="url(#a)"/><path d="m62.24-30.75-.25-.79-.36-1.13-.26-1.01-.23-1.06-.21-1.18-.16-1.29-.07-1.38.05-1.53.14-1.68.16-1.81.07-1.83-.09-1.76-.27-1.64-.43-1.49-.52-1.36-.56-1.26-.56-1.18-.5-1.13-.37-1.17-.2-1.26-.08-1.4-.09-1.54-.32-1.62-.25-1.43 5.36 32.93.88-1.4 1.47-2.13.93-1.66.27-1.36.01-1.39.09-1.55.28-1.67.36-1.77.31-1.85.21-1.96.15-2.09.19-2.22.27-2.32.3-2.32.2-2.21-.06-2.06-.3-2.07-.57-2.3-4.88 34.49.92-3.09 1.31-1.83.82-1.62.64-1.8.47-1.8.27-1.67.22-1.66.34-1.87.47-2.14.44-2.29.27-2.28.06-2.15.04-2.11.35-2.33 1.04-2.96 1.89-3.69" filter="url(#a)"/><path d="m74.45-66.14-1.71 3.86.69 1.55.28 1.9-.98 2.92-1.94 3.61-2.11 3.59-1.59 3.01-.76 2.21-.08 1.59.07 1.43-.39 1.69-1.14 2-1.42 1.9-.73 1.52-.29 2.77" filter="url(#a)"/><path d="m61.3-33.08.79-.28 1.09.65.63.9.41 1.03.48 1.14.67 1.17.86 1.13.97 1.08 1.01 1.02 1.03.97 1.08.94 1.19.91 1.32.86 1.42.77 1.36.72.87 1.51-15.22-15.29-.2.52.21.61.32.89.3 1.01.26 1.12.26 1.21.26 1.27.25 1.3.23 1.28.2 1.24.16 1.21.14 1.18.11 1.15.11 1.15.09 1.16.07 1.21.05 1.28.02 1.37v2.76l.01 1.23.04 1.24.15 2.27-3.64-29.25-.98-1.76-.89-.51-1.13-.35-1.15-.59-.97-.92-.74-1.16-.6-1.25-.57-1.21-.6-1.12-.61-1.06-.61-1.01-.62-.89-.7-.69-.79-.51-.9-.49-1.35-.43m6.49-10.99.21 1.34.55 1.27.39 1.15.25 1.13.21 1.15.25 1.17.35 1.17.47 1.16.55 1.16.54 1.24.41 1.4.24 1.59.14 1.73.17 1.73.34 1.51.51 1.14.36.6-.6-.03.31.2.21-.98-.11-1.38-.44-1.42-.55-1.44-.47-1.49-.37-1.51-.36-1.44-.46-1.3-.57-1.13-.62-1.01-.54-.98-.36-1.04-.21-1.11-.14-1.15-.17-1.34-.58-2.43" filter="url(#a)"/><path d="m59.71-37.72 1.14-2.14-.26-1.65-.82-1.32-1-1.17-.93-1.17-.71-1.26-.48-1.37-.31-1.44-.22-1.44-.2-1.38-.23-1.28-.27-1.2-.36-1.12-.48-1.07-.61-1.05-.73-1.07-.8-1.14-.79-1.22-.77-1.25-.69-1.2-.51-1.06-.1-.87.27-.99-7.25 9.69.31.13.52.19.77.5.9.71.96.78.97.78.97.74.95.66.89.61.81.6.71.63.61.75.51.89.47 1.02.48 1.1.55 1.12.58 1.15.51 1.28.42 1.46.76 1.22 2.05-.12-1.14-2.73.69 1.61.52 1.36.42 1.2.32 1.11.26 1.13.2 1.17.2 1.16.23 1.09.26 1 .3.96.3.97.29 1.04.26 1.13.25 1.22.23 1.27.21 1.3.15 1.28.09 1.22.03 1.13.03 1.04.16 1.43-6.15-26.33-.22-1.37.36-1.89.09-1.71-.46-1.18-.8-.75-.89-.59-.77-.63-.6-.83L52.7-55l-.26-1.43-.14-1.74-.05-1.96-.02-2.11-.01-2.11-.01-2 .01-1.7.01-1.28-.1-1.02-.45-1.25" filter="url(#a)"/><path d="m55.8-46.15.19-1.59.74-2.35.51-2.12-.12-1.4-.62-.81-.77-.63-.62-.84-.34-1.23-.11-1.64v-1.95l.03-2.16.08-2.35.22-2.59.38-2.66.4-2.29.28-1.4-.06-.61m-1.57 26.43.47-2.06-.55-.94-.8-.51-.79-.52-.69-.68-.63-.86-.62-1.03-.62-1.15-.65-1.2-.64-1.19-.64-1.12-.59-1.01-.55-.9-.51-.85-.5-.85-.53-.91-.56-1-.5-1.05-.38-1.07-.45-1.15L42.14-70" filter="url(#a)"/><path d="m53.8-49.3.76-2.51 2.45-3.66 1.94-3.28.91-2.45.09-1.82-.48-1.43-.83-1.22-.97-1.16-.92-1.21-.81-1.2-.79-1.04-.89-.72-.99-.46-.97-.51-.73-.95-.3-1.67.1-2.38.27-2.78.1-2.78-.35-2.45-.75-1.99-.84-1.57-.84-1.37" filter="url(#a)"/><path d="m41.2-68.43 1.45 1.66.66.79.61.71.67.78.65.83.57.84.49.84.48.86.52.91.62.98.69 1.04.74 1.09.73 1.1.68 1.1.59 1.05.52.97.46.88.43.78.43.77.61 1.15-.97-1.83-.17-.09-.53-.55-.63-.66-.68-.72-.8-.77-.93-.78-1.02-.74-1.06-.69-1.05-.6-.99-.47-.87-.32-.73-.2-.65-.24-.73-.39-1.14-.21" filter="url(#a)"/><path d="m52.83-51.13.14-.41.11-1.22.27-1.64.28-1.83v-1.74l-.35-1.56-.51-1.5-.45-1.64-.26-1.78-.09-1.8v-1.66l.05-1.52.01-1.5-.2-1.56-.52-1.69-.34-2.61 9.36 52.35.04-1.27-.1-1.38-.14-1.28-.12-1.12-.1-1.05-.09-1.03-.1-1.04-.13-1.08-.19-1.11-.26-1.12-.33-1.12-.41-1.12-.47-1.14-.52-1.19-.58-1.25-.6-1.28-.6-1.29-.57-1.27-.51-1.26-.48-1.31-.52-1.41-.72-1.57-.52-1.03.49.9.49.69.65.79.77.88.84.9.86.95.83 1.03.79 1.15.74 1.24.72 1.27.74 1.16.81.9.9.56 1.01.51 1.16 1.77" filter="url(#a)"/><path d="m65.12-53.85-1.47-.35-1.79-.29-1.39-.56-1.11-.61-1.07-.48-1.08-.37-1.05-.41-.98-.57-.94-.72-1.01-.76-1.17-.69-1.28-.6-1.3-.55-1.23-.43-1.18-.09-.97.35-.47.04-25.26-14.11.3-.25.82.09.94.28.96.33.97.3.97.3.97.3.99.33 1 .35.99.38.98.38.93.41.9.41.88.43.88.45.93.47.96.51.97.55.93.58.87.62.93.77 1.25 1.16 1.99 1.87-2.67-2.43-.6-1.41-.32-1.31-.2-1.63-.24-1.91-.33-1.95-.39-1.87-.37-1.77-.38-1.63-.5-1.41-.67-1.12-.81-.99-.86-1.17-.82-1.54-.76-1.65-.7-1.19-.45-1.1" filter="url(#a)"/><path d="m38.84-67.83-.57-.13-.67-.52-.87-.64-.96-.67-.94-.63-.87-.57-.83-.52-.82-.51-.85-.51-.89-.55-.92-.56-.94-.55-.96-.49-.96-.41-.97-.33-.97-.31-.98-.34-.98-.42-1.04-.5-1.24-.57" filter="url(#a)"/><path d="m38.52-67.94-.09-1.89.08-2.61-.22-2.43-.5-1.72-.76-.93-.88-.54-.84-.68-.68-1.18-.5-1.81-.37-2.33-.35-2.51-.46-2.25-.67-1.6-.88-1.08-.88-1.31-.56-2.36.13-3.34 23.35 39.25-.9-.24-.91-.9-1.01-.89-.99-.74-.86-.64-.72-.57-.66-.53-.71-.53-.84-.48-.94-.43-.98-.39-.98-.41-1.05-.52-1.2-.66-1.25-.68-.92-.07" filter="url(#a)"/><path d="m37.95-68.7.56-.82 1.66-1.55 1.48-.48.93.88.67 1.41.71 1.19.99.63 1.32.06 1.64-.42 1.81-.74 1.83-.89 1.75-.89 1.81-.82 2.05-.74 2.05-.31.94 1.43" filter="url(#a)"/><path d="m34.68-71.11-.3-.17-.52-.35-.66-.44-.77-.51-.83-.54-.88-.58-.92-.6-.94-.59-.95-.56-.92-.5-.91-.47-.92-.47-.93-.5-.94-.52-1.04-.54-1.27-.5 13.59 7.88.89.49 1.28.63 1.26.27 1.37-.15 1.59-.38 1.73-.46 1.78-.44 1.77-.45 1.76-.47 1.73-.44 1.62-.33 1.45-.16 1.25.01 1.11.14 1.15.21 1.38.24 1.74.22 2.08.25 2.23.54-29.17.28-.51-.92-.47-1.05-.46-1.42-.37-1.86-.41-1.94-.61-1.56-.87-.96-1.05-.44-1.13-.22-1.09-.3-.99-.6-.85-1.01-.71-1.4-.57-1.75-.47-2.05-.41-2.31-.44-2.42-.6-2.3-.82-1.88-1.02-1.36-1.04-1.09-.98-1.24-1.27-1.9 16.21 31.2-1.17-.92-.94-.64-.88-.6-.93-.68-.93-.71-.9-.69-.89-.61-.9-.53-.92-.49-.92-.48-.89-.49-.84-.5-.75-.48-.67-.45-.64-.42-.72-.43-1.08-.53" filter="url(#a)"/><path d="m32.19-72.65 3.52-4.88.87.13.84.46 1.09.36 1.14.5 1.07.65 1.1.58 1.35.25 1.72-.23 2.04-.68 2.18-.95 2.09-.97 1.91-.71 1.74-.2 1.7.22 2.84-1.2" filter="url(#a)"/><path d="m32.19-72.65 1 .51.74.37.8.44.93.57.95.69.91.75.88.78.89.8.91.78.93.76.92.72.87.71.8.72.75.73.68.72.63.65.59.57.62.55.72.69.81.93.86 1.13-21.72-17.66 1.48 1.04 1.05.98.69 1.01.58 1.03.58.94.64.78.7.69.73.78.67 1.01.55 1.25.44 1.32.48 1.17.71.97 1.14 1.12 1.55 2.17L27.4-75.85l-.69-.74-.87-.85-.85-.98-.78-1.06-.76-.9-.78-.57-.82-.3-.85-.2-.89-.28-.92-.46-.95-.64-.94-.74-.94-.82-.95-.91-1.01-1.06-1.15-1.18-1.3-1.16-1.29-.72" filter="url(#a)"/><path d="m24.02-77.43-.73.2-1.22 1.04-1.24 1.32-1.07 1.07-.94.64-.91.23-.9-.11-.91-.3-.91-.25-.95.09-1.04.65-1.19 1.13-1.29 1.11-1.25.35-.97-1.06 15.24-6.4-1.13-.6-.85-.49-.65-.62-.62-.8-.73-.86-.86-.77-.97-.59-1.02-.39-1.05-.27-1.08-.24-1.1-.3-1.1-.38-1.06-.43-.98-.42-.95-.37-1.06-.37-1.4-.46-1.95-.51" filter="url(#a)"/><path d="m41.61-64.14-.29-.29-1.03-1.03-1.02-1.02-.89-.86-.84-.78-.85-.74-.87-.74-.85-.72-.83-.68-.8-.63-.8-.59-.83-.57-.87-.58-.91-.6-.94-.61-.94-.58-.93-.54-.91-.5-.93-.51-.92-.56-.62-.45" filter="url(#a)"/><path d="m.41-68.26 1.26-1.54.79-1.32.75-.92.83-.55.95-.33.99-.17.98-.01.96.1.93.08.97-.06 1.02-.27 1.08-.42 1.09-.48 1.08-.43 1.07-.34 1.09-.3 1.14-.37 1.18-.63 1.16-1.01.98-1.21.27-.51 20.62 3.64-2.49-1.36-1.47-.28-1.13-.01-1.06.02-1.08-.02-1.1-.08-1.14-.14-1.15-.19-1.13-.23-1.1-.26-1.06-.31-1.02-.35-.99-.42-.94-.5-.9-.58-.83-.61-.76-.57-.73-.36-.79.11-1.03.8-1.37.64" filter="url(#a)"/><path d="m13.74-81.23 1.15.69.85.54.85.73.87.89.83.92.74.87.69.79.66.72.68.67.72.65.77.64.79.64.79.66.78.69.76.75.79.81.82.82.77.83.53.93.54 1.26-39.74-30.44 1.52.97 1.52.61 1.31.6 1.13.51 1.06.49 1.09.65 1.13.89 1.14 1.03 1.12.95 1.08.7 1.02.42.99.22 1 .2 1.02.4 1.05.76 1.06 1.09 1.02 1.25.95 1.13.92.83 1 .53 1.16.4 1.07.31" filter="url(#a)"/><path d="m9.86-82.03-.99-1.99-1.4-.1-1.3-.17-1.11-.49-.98-.57-.92-.39-.93-.14-.98.06-1.03.14-1.07.07-1.08-.12-1.08-.38-1.07-.63-1.08-.8-1.1-.85-1.12-.75-1.1-.54-1.05-.29-1.02-.11-1-.04-1.05-.13-1.12-.3-1.11-.23-.23-.01M.5-83.17l-.59 1.14-1.02 1.24-1.06.46-.96.15-.88.25-.87.4-.91.42-.94.29-.92.14-.9.1-.85.21-.82.43-.81.64-.85.76-.89.75-.94.66-.92.67-.82.87-.82 1.06-1.56.9-1.31-7.14.4-.28.93-.43.98-.41 1.01-.38 1.06-.35 1.05-.32 1.02-.28.99-.24.94-.21.91-.19.91-.18.93-.18.96-.18.97-.18.97-.16.93-.11.93-.06.99-.01 1.09-.02 1.06-.1.61-.13" filter="url(#a)"/><path d="m.5-83.17-.64-1.34-1.08-.93-1.12-.08-1.05-.07-1.04-.61-1.12-1.26-1.2-1.7-1.22-1.75-1.2-1.42-1.12-.84-1.06-.22-1.05.17-1.11.21-1.25-.18-1.43-.83-1.59-1.5-1.66-1.83-1.61-1.64-1.44-.99-1.27-.31-1.19-.15-1.32-.79-1.58-1.53-1.81-.18M.26-83.29l-2.43.15-1.85.2-1.69.24-1.64.28-1.7.35-1.87.44-2.01.54-2.05.63-1.95.71-1.74.78-1.48.85-1.23.9-1.03.97-.92 1.02-.89 1.08-.89 1.15-.87 1.19-.8 1.25-.67 1.3-.48 1.35-.29 1.4-.12 1.46.03 1.54.17 1.63.34 1.73.49 1.83.66 1.89.81 1.93 1 1.94 1.25 1.93 1.5 1.97 1.55 2.08 1.15 2.23.26 2.41-.4 2.56.81 2.45" filter="url(#a)"/><path d="m-3.85-83.11-1.9.25-3.1.32-3.45.39-2.97.44-2.32.48-2.03.52-2.23.58-2.71.65-3.26.73-3.69.83-3.95.91-3.97.99-3.78 1.08-3.42 1.13-3.04 1.2-2.82 1.26-2.89 1.32-3.27 1.37-3.87 1.43-4.5 1.49-4.91 1.54-4.93 1.6-4.52 1.67-3.79 1.75-3.04 1.83-2.58 1.89-2.63 1.94-3.22 1.95-4.14 1.95-5.12 1.95-5.85 1.97-6.14 2.05-6.11 2.33-5.79 2.9" filter="url(#a)"/><path d="m-3.85-83.11-1.6.25-1.97.31-2.09.39-2.12.44-2.07.47-1.99.52-1.94.56-1.95.63-1.99.72-2.04.81-2.1.9-2.17.98-2.2 1.05-2.18 1.13-2.13 1.18-2.04 1.23-1.97 1.3-1.93 1.36-1.94 1.41-1.96 1.46-1.98 1.5-1.96 1.54-1.91 1.61-1.86 1.71-1.9 1.85-2.07 2.02-2.28 2.09-1.89 1.55" filter="url(#a)"/><path d="m-3.85-83.11-2.06.25-2.37.32-2.32.39-2.24.44-2.25.48-2.54.53-3.14.58-3.86.65-4.38.73-4.42.83-3.96.91-3.17 1-2.31 1.07-1.65 1.14-1.35 1.2-1.47 1.27-1.91 1.32-2.52 1.37-3.14 1.44-3.62 1.48-3.9 1.55-4.03 1.6-4.11 1.68-4.19 1.76-4.28 1.82-4.31 1.9-4.22 1.93-4 1.95-3.81 1.96-3.88 1.96-4.35 1.98-5.11 2.04-5.69 2.09-5.03 1.97-2.53 1.02" filter="url(#a)"/><path d="m-4.05-83-2.39.29-2.03.26-1.96.31-2.19.41-2.45.54-2.61.63-2.72.72-2.84.76-3.03.83-3.26.88-3.45.94-3.59 1-3.66 1.05-3.76 1.11-3.93 1.17-4.22 1.23-4.52 1.28-4.64 1.33-4.3 1.34-3.54 1.31-2.71 1.31-2.62 1.4-3.72 1.69-5.65 2.12" filter="url(#a)"/><path d="m-4.99-82.89-2.43.32-2.19.4-2.19.45-2.11.49-1.97.52-1.9.58-1.9.65-1.98.73-2.09.83L-26-77l-2.41 1-2.56 1.08-2.71 1.14-2.78 1.2-2.77 1.27-2.67 1.32-2.49 1.38-2.28 1.43-2.09 1.49-1.96 1.54-1.93 1.61-2.01 1.67-2.17 1.76-2.39 1.83-2.56 1.89-2.69 1.93-2.75 1.95-2.78 1.96-2.76 1.96-2.7 1.98-2.58 2.03-2.6 2.09-2.77 1.98-2.06 1.01" filter="url(#a)"/><path d="m-6.15-82.67-2.49.24-1.95.28-2.42.42-3.15.57-3.46.67-3.22.74-2.68.79-2.24.86-2.04.91-2.15.97-2.45 1.04-2.77 1.09-3.05 1.15-3.19 1.21-3.19 1.25-3.11 1.31-3 1.36-2.93 1.4-2.94 1.47-3.09 1.55-3.34 1.64-3.7 1.74-4.07 1.83-4.36 1.89-4.44 1.93-4.31 1.94-4.01 1.96-3.69 2.01-3.61 2.1-3.89 2.22-4.63 2.31-5.39 2.35-5.35 2.25-4.08 2.03-3.71 1.81" filter="url(#a)"/><path d="m-8.05-82.57-1.57.37-2.37.48-2.72.5-3.01.52-3.14.57-2.96.65-2.53.74-2.03.84-1.71.93-1.65 1.01-1.83 1.09-2.19 1.15-2.63 1.21-3.08 1.27-3.52 1.33-3.89 1.39-4.12 1.44-4.15 1.5-3.95 1.56-3.53 1.62-3 1.69-2.56 1.76-2.35 1.83-2.55 1.89-3.11 1.92-3.92 1.95-4.72 1.97-5.28 1.98-5.43 1.99-5.15 2.01-4.52 2.03-3.6 2.03-2.6 2.05-2.06 2.14-3.18 2.42-7.6 3.04M65.92-14.61l9.05-2.76 5.25-2.05-1.91-2.11-3.43-2.31-1.54-2.36.99-2.31 2.65-2.23 3.13-2.2 2.85-2.22 2.24-2.28 1.54-2.34.64-2.34-.51-2.31-1.74-2.23-2.69-2.13-2.97-2.02L77-52.77l-1.41-1.9-.24-1.87.48-1.83.47-1.75-.25-1.67-1.23-1.58-1.85-1.53-1.74-1.5-1.06-1.45-.51-1.43-.67-1.4-.46-1.17" filter="url(#a)"/><path d="m-10.21-82.17-1.48.29-2.26.6-2.39.73-2.29.77-2.17.79-2.13.84-2.14.91-2.15.96-2.18 1.03-2.24 1.08-2.32 1.14-2.42 1.19-2.46 1.25-2.43 1.29-2.38 1.33-2.31 1.37-2.32 1.42-2.4 1.49-2.52 1.59-2.65 1.73-2.76 1.87-2.78 1.95-2.7 1.96-2.41 1.89-1.98 1.75-1.62 1.65-2.12 2.01" filter="url(#a)"/><path d="m-19.33-79.54-1.9.67-2.46.88-2.64.98-2.65 1.06-2.61 1.12-2.65 1.18-2.83 1.23-3.14 1.28-3.44 1.33-3.57 1.4-3.51 1.45-3.3 1.51-3.11 1.56-3.08 1.62-3.21 1.69-3.45 1.77-3.64 1.84-3.65 1.89-3.47 1.93-3.21 1.95-2.99 1.96-2.95 1.97-3.09 1.98-3.36 2.01-3.65 2.02-4.01 2.04-4.43 2.08-4.74 2.18-4.44 2.36-3.25 2.56-3.67 2.44m187 11.69.71-2.21.39-2.57.91-2.45 1.63-2.36 1.58-2.32.78-2.29-.18-2.23-.74-2.18-.76-2.15-.35-2.16.22-2.19.78-2.2 1.17-2.2 1.31-2.17 1.14-2.11.69-2.03.01-1.96-.75-1.87-1.45-1.79-1.92-1.71-2.06-1.64-1.85-1.6-1.44-1.6-1.11-1.66-1.18-1.76-1.62-1.86-1.24-1.93" filter="url(#a)"/><path d="m-20.64-79.01-1.93.81-1.94.95-2.01 1.03-1.94 1.07-1.85 1.09-1.78 1.14-1.75 1.2-1.72 1.26-1.69 1.31-1.67 1.34-1.63 1.37-1.63 1.41-1.63 1.48-1.66 1.61-1.69 1.73-1.7 1.86-1.66 1.94-1.57 1.94-1.43 1.88-1.32 1.8-1.31 1.81-1.5 2.05-1.73 2.58" filter="url(#a)"/><path d="m-20.64-79.01-2.17.82-2.2.96-2.1 1.05-1.95 1.08L-31-74l-2.1 1.16-2.28 1.21-2.44 1.28-2.48 1.32-2.4 1.36-2.22 1.41-2 1.46-1.82 1.54-1.77 1.65-1.87 1.76-2.12 1.84-2.44 1.9-2.7 1.93-2.81 1.94-2.72 1.96-2.44 2.01-2.06 2.09-1.7 2.2-1.5 2.28-1.59 2.29-2 2.21-2.6 2.05-2.97 1.88-2.41 1.87" filter="url(#a)"/><path d="m-20.83-79.06-4.12 1.03-4.57 1.02-3.21 1.07-1.95 1.14-1.68 1.19-2.11 1.23-2.71 1.28-3.13 1.35-3.2 1.41-2.94 1.46-2.52 1.52-2.15 1.57-2.04 1.63-2.24 1.7-2.69 1.78-3.23 1.85-3.67 1.89-3.86 1.93-3.77 1.95-3.49 1.97-3.21 1.98-3.09 2-3.25 2.01-3.61 2.05-4.08 2.09-4.49 2.16-4.87 2.25-5.24 2.38-5.52 2.5-5.5 2.54-4.93 2.4-4.33 1.99-5.22 1.48" filter="url(#a)"/><path d="m-20.83-79.06-3.2 1.02-2.71 1.01-2.17 1.06-2.14 1.13-2.21 1.17-2.17 1.22-1.99 1.26-1.82 1.33-1.73 1.39-1.75 1.44-1.86 1.49-1.95 1.54-2.04 1.6-2.06 1.67-2.07 1.75-2.1 1.84-2.19 1.89-2.36 1.93-2.59 1.94-2.77 1.94-2.82 1.94-2.61 1.96-2.13 2.02-1.59 2.07-1.48 1.96-1.84.99" filter="url(#a)"/><path d="m-20.83-79.06-2.38 1.02-2.47 1-2.9 1.06-3.36 1.12-3.88 1.17-4.37 1.21-4.64 1.26-4.56 1.32-4.18 1.38-3.64 1.44-3.15 1.48-2.91 1.52-3.02 1.58-3.35 1.66-3.69 1.74-3.89 1.84-3.95 1.89-4.19 1.93-4.95 1.94-6.35 1.92-7.87 1.91-8.43 1.88-7.22 1.85-7.2 2.26" filter="url(#a)"/><path d="m-23.43-77.91-1.98.91-2.49 1.06-3.16 1.15-3.68 1.19-3.67 1.24-3.19 1.28-2.62 1.34-2.29 1.41-2.34 1.47-2.66 1.52-3.04 1.56-3.33 1.64-3.45 1.7-3.52 1.78-3.59 1.85-3.71 1.9-3.8 1.93-3.77 1.95-3.55 1.96-3.24 1.98-3.04 2-3.09 2.01-3.46 2.05-4.04 2.09-4.64 2.15-5.05 2.25-5.14 2.38-4.8 2.5-4 2.54-2.84 2.4-2.17 1.98-5.19 1.48" filter="url(#a)"/><path d="m-23.77-77.58-3.29 1.4-2.14 1.14-2.26 1.08-2.84 1.13-3.34 1.21-3.55 1.28-3.43 1.33-3.06 1.36-2.49 1.39-1.98 1.43-1.71 1.53-1.76 1.63-2.04 1.76-2.38 1.85-2.6 1.91-2.69 1.93-2.74 1.91-2.87 1.92-3.12 1.97-3.45 2.07-3.71 2.21-3.7 2.35-3.34 2.4-2.72 2.27-2.86 1.89" filter="url(#a)"/><path d="m-24.9-77.16-2.37 1.22-2.12 1.16-2.3 1.21-2.53 1.24-2.77 1.28-2.87 1.35-2.77 1.42-2.49 1.48-2.23 1.52-2.14 1.58-2.3 1.64-2.67 1.72-3.08 1.79-3.37 1.85-3.44 1.91-3.3 1.93-3.06 1.96-2.82 1.97-2.68 1.99-2.62 2-2.58 2.03-2.48 2.07-2.36 2.12-2.26 2.19-2.3 2.27-2.54 2.37-2.93 2.44-3.34 2.49-3.55 2.5-3.34 2.54-2.59 2.68-1.54 2.92-1.08 3.01-2.01 2.4m88.83-66.25-3.03 1.21-3.74 1.15-3.37 1.21-2.76 1.23-2.89 1.27-3.69 1.34-4.46 1.41-4.68 1.47-4.19 1.51L-61-63.8l-2.45 1.62-2.03 1.7-2.19 1.77-2.81 1.85-3.59 1.9-4.17 1.93-4.33 1.95-4.06 1.95-3.47 1.97-2.86 1.98-2.53 2.01-2.68 2.02-3.31 2.06-4.14 2.1-4.81 2.21-5.13 2.39-5.48 2.6-6.36 2.85-5.6 3.31" filter="url(#a)"/><path d="m-29.25-74.72-1.22.83-1.84 1.09-2.04 1.24-2.03 1.33-2.01 1.37-1.98 1.38-1.93 1.41-1.86 1.47-1.86 1.57-1.93 1.68-2.05 1.78-2.18 1.87-2.2 1.92-2.13 1.95-1.96 1.97-1.74 2-1.57 2.05-1.46 2.12-1.43 2.17-1.47 2.23-1.53 2.24-1.58 2.23-1.6 2.22-1.56 2.24-1.46 2.27-1.3 2.34-1.17 2.46-1.18 2.62-1.38 2.82-1.72 2.85-1.76 2.3" filter="url(#a)"/><path d="m-29.25-74.72-1.91.84-2.05 1.09-2.68 1.25-2.9 1.34-2.57 1.37-1.98 1.39-1.55 1.43-1.5 1.48-1.8 1.59-2.28 1.69-2.72 1.8-2.96 1.87-2.97 1.93-2.81 1.96-2.57 1.99-2.32 2.02-2.13 2.08-2.03 2.13-2.01 2.18-2.12 2.21-2.34 2.25-2.63 2.25-2.9 2.26-3.02 2.29-2.94 2.33-2.63 2.4-2.19 2.46-1.75 2.51-1.38 2.51-1.22 2.46-1.3 2.36-1.63 2.28-2.05 2.3-2.3 2.45-2.15 2.54-1.48 2.49" filter="url(#a)"/><path d="m-28.64-75.1-2.97 1.52-2.43 1.33-2.48 1.25-2.45 1.34-2.23 1.44-1.98 1.5-1.81 1.54-1.73 1.59-1.69 1.65-1.71 1.73-1.8 1.8-1.91 1.87-2.02 1.92-2.04 1.95-1.95 1.96-1.8 1.99-1.66 1.99-1.61 2.02-1.7 2.06-1.94 2.09-2.22 2.15-2.48 2.22-2.66 2.29-2.72 2.37-2.7 2.45-2.62 2.5-2.51 2.55-2.34 2.6-2.08 2.64-1.7 2.65-1.24 2.63-.79 2.53-.51 2.39-.43 2.28-.56 2.26-1 2.48-1.3 3.89" filter="url(#a)"/><path d="m-28.64-75.1-2.34 1.52-1.95 1.32-1.72 1.24-1.7 1.34-1.71 1.43-1.67 1.49-1.62 1.53-1.56 1.57-1.51 1.64-1.49 1.71-1.47 1.8-1.46 1.86-1.44 1.91-1.4 1.94-1.35 1.96-1.28 1.97-1.21 1.98-1.13 2-1.06 2.03-1 2.06-.95 2.12-.91 2.18-.89 2.27-.85 2.37-.81 2.44-.77 2.49-.73 2.5-.68 2.53-.64 2.68-.59 2.91-.51 3.01-.38 2.39" filter="url(#a)"/><path d="m-28.64-75.1-2.55 1.52-2.97 1.31-3.12 1.25-2.79 1.33-2.25 1.43-1.82 1.49-1.61 1.53-1.6 1.57-1.66 1.63-1.7 1.71-1.73 1.79-1.78 1.86-1.93 1.91-2.14 1.94-2.35 1.96-2.45 1.96-2.37 1.98-2.05 2-1.61 2.02-1.18 2.06-.94 2.1-1.01 2.18-1.44 2.26-2.06 2.37-2.63 2.45-2.84 2.48-2.5 2.47-1.7 2.47-.97 2.65-.89 3.15-1.71 3.51" filter="url(#a)"/><path d="m-28.64-75.1-3.22 1.51-2.99 1.32-4.07 1.24-4.51 1.33-3.93 1.43-2.98 1.49-2.26 1.52-2 1.57-1.99 1.63-1.97 1.71-1.81 1.79-1.6 1.86-1.5 1.9-1.62 1.94-1.99 1.95-2.49 1.97-2.97 1.97-3.29 1.99-3.45 2.02-3.5 2.05-3.56 2.09-3.74 2.16-4.06 2.26-4.47 2.37-4.75 2.47-4.62 2.49-3.74 2.43-2.3 2.32-1.53 2.5-4.56 3.76" filter="url(#a)"/><path d="M-28.64-75.1-31-73.59l-2.23 1.31-2.43 1.23-2.71 1.32-2.76 1.42-2.61 1.48-2.34 1.51-2.05 1.55-1.74 1.61-1.46 1.69-1.25 1.78-1.16 1.85-1.23 1.9-1.39 1.93-1.55 1.94-1.69 1.95-1.76 1.96-1.8 1.97-1.86 1.99-1.93 2.02-2.02 2.03-2.02 2.06-1.88 2.17-1.61 2.35-1.36 2.55-.89 2.42" filter="url(#a)"/><path d="m-34.31-71.21-.53.25-1.61 1.21-1.98 1.5-2.21 1.55-2.39 1.53-2.43 1.56-2.36 1.63-2.25 1.71-2.17 1.8-2.14 1.88-2.15 1.92-2.22 1.94-2.35 1.96-2.53 1.96-2.73 1.98-2.92 2-3.02 2.02-3.01 2.06-2.87 2.11-2.57 2.18-2.19 2.27-1.78 2.36-1.48 2.44-1.36 2.49-1.43 2.49-1.75 2.53-2.27 2.67-2.72 2.91-2.27 3.01-.43 2.38" filter="url(#a)"/><path d="m-34.31-71.21-.66.26-1.73 1.23-1.87 1.51-1.75 1.54-1.62 1.55-1.54 1.58-1.5 1.65-1.49 1.73-1.48 1.82-1.5 1.88-1.51 1.93-1.52 1.96-1.5 1.97-1.48 1.98-1.46 2-1.42 2.03-1.38 2.05-1.33 2.1-1.28 2.16-1.21 2.23-1.12 2.3-1.02 2.37-.93 2.45-.84 2.5-.76 2.56-.73 2.59-.71 2.62-.7 2.63-.7 2.59-.66 2.52-.61 2.42-.5 2.34-.37 2.33-.27 2.38-.23 2.48-.27 2.56-.34 3.03" filter="url(#a)"/><path d="m-33.73-71.84-2.6 1.84-2.22 1.75-2.35 1.6-3.08 1.54-4.05 1.55-4.86 1.62-5.26 1.72-5.22 1.82-4.82 1.88-4.22 1.93-3.61 1.95-3.13 1.96-2.84 1.97-2.8 1.98-2.99 2.01-3.35 2.03-3.71 2.07-3.87 2.12-3.7 2.2-3.28 2.28-2.88 2.36-2.76 2.44-3.03 2.49-3.52 2.53-3.93 2.58-4.09 2.66-4.08 2.75-4.01 2.74-3.82 2.5-3.39 2.01-1.86 1.16" filter="url(#a)"/><path d="m-33.73-71.84-2.68 1.83-3.66 1.73-4.78 1.6-5.04 1.52-4.23 1.53-2.98 1.6-1.98 1.69-1.55 1.8-1.6 1.87-1.8 1.92-1.99 1.94-2.1 1.94-2.24 1.95-2.53 1.95-3.02 1.98-3.62 1.99-4.18 2.03-4.53 2.05-4.5 2.12-3.97 2.22-2.93 2.38-1.71 2.55-1.22 2.64-2.47 2.52-4.97 1.75" filter="url(#a)"/><path d="m-36.09-69.71-2.06 1.09-2.51 1.33-2.06 1.37-1.66 1.42-1.75 1.54-2.11 1.7-2.5 1.84-2.86 1.93-3.15 1.95-3.37 1.96-3.49 1.98-3.53 2-3.5 2.06-3.39 2.13-3.21 2.19-2.94 2.22-2.6 2.24-2.27 2.24-2.06 2.25-2.03 2.27-2.26 2.31-2.61 2.39-2.93 2.46-3.01 2.52-2.8 2.54-2.42 2.46-2.1 2.32-2.03 2.19-2.34 2.26-3.18 2.56-3.52 2.25" filter="url(#a)"/><path d="m-36.09-69.71-1.76 1.07-1.56 1.31-1.51 1.36-1.45 1.37-1.43 1.49-1.44 1.67-1.5 1.81-1.53 1.91-1.53 1.94-1.49 1.93-1.42 1.92-1.37 1.93-1.32 1.99-1.28 2.09-1.26 2.19-1.23 2.26-1.19 2.25-1.12 2.18-1.03 2.1-.93 2.11-.92 2.41-1.1 3.34" filter="url(#a)"/><path d="m-36.09-69.71-1.88 1.1-2.78 1.33-3.05 1.38-2.57 1.43-2.24 1.55-2.36 1.72-2.71 1.85-2.95 1.93-2.85 1.96-2.41 1.98-1.8 1.99-1.26 2.03-.99 2.08-1.06 2.14-1.38 2.19-1.86 2.23-2.37 2.24-2.85 2.26-3.33 2.28-3.8 2.3-4.24 2.35-4.51 2.4-4.47 2.44-4.05 2.48-3.26 2.47-2.34 2.44-1.57 2.4-1.21 2.35-1.39 2.36-1.94 2.39-2.59 2.46-3.11 2.54-3.49 2.67-4.01 2.83-4.77 2.86-5.11 2.36" filter="url(#a)"/><path d="m-36.23-70.01-2.98 1.88-2.82 1.56-2.74 1.48-3.03 1.5-3.44 1.58-3.81 1.7-4.12 1.8-4.27 1.88-4.16 1.92-3.72 1.94-3.11 1.94-2.58 1.94-2.4 1.96-2.64 1.97-3.17 1.99-3.79 2.02-4.32 2.06-4.67 2.11-4.83 2.22-4.92 2.38-5.11 2.54-5.34 2.64-4.39 2.51-.9 1.75m85.5-45.96-1.39 1.37-1.68 1.45-1.8 1.38-1.92 1.5-1.91 1.7-1.78 1.86-1.63 1.94-1.51 1.97-1.45 1.96-1.43 1.95-1.49 1.99-1.56 2.05-1.6 2.12-1.58 2.19-1.51 2.22-1.4 2.24-1.32 2.23-1.26 2.23-1.22 2.24-1.19 2.29-1.17 2.36-1.18 2.47-1.22 2.56-1.31 2.62-1.37 2.53-1.33 2.21-1.07 1.63-.61.81" filter="url(#a)"/><path d="m-37.99-68.7-1.91 1.37-3.06 1.45-2.83 1.38-2.04 1.5-1.5 1.7-1.4 1.86-1.6 1.94-1.85 1.97-2.09 1.96-2.29 1.95-2.5 1.99-2.69 2.05-2.85 2.12-2.91 2.19-2.83 2.22-2.65 2.24-2.42 2.23-2.25 2.23-2.21 2.24-2.43 2.29-2.86 2.36-3.35 2.47-3.64 2.56-3.46 2.62-2.68 2.53-1.61 2.21-1.17 1.63-2.46.81m171.08-4.82-.78-3.35-.73-2.52-.67-2.34-.66-2.31-.69-2.3-.72-2.24-.77-2.19-.84-2.17-.93-2.17-1.01-2.19-1.1-2.21-1.17-2.2-1.22-2.16L53-49.9l-1.28-2.02-1.3-1.95-1.31-1.86-1.33-1.8-1.36-1.72L45-60.93l-1.48-1.65-1.58-1.64-1.67-1.62-1.74-1.59-1.77-1.53-1.75-1.43-1.71-1.3-1.69-1.2-1.73-1.16-1.87-1.17-2-1.13-2.23-1.08" filter="url(#a)"/><path d="m-40.25-66.34-1.67 1.37-2.22 1.47-2.76 1.58-2.55 1.72-1.96 1.84-1.54 1.92-1.53 1.96-1.82 1.95-2.11 1.96-2.18 1.95-1.98 1.97-1.59 1.99-1.19 2.02-.94 2.06-.91 2.1-1.07 2.18-1.34 2.28-1.64 2.36-1.89 2.44-2.14 2.48-2.38 2.5-2.64 2.55-2.82 2.67-2.88 2.81-2.77 2.86-2.58 2.65-2.12 2.42" filter="url(#a)"/><path d="m-41.92-64.76-1.99.45-4.69 1.25-3.45 1.74-1.52 1.96-.6 2.02-.55 2-.94 1.97-1.42 1.96-1.83 1.99-2.14 2.07-2.36 2.13-2.6 2.2-2.95 2.24-3.42 2.24-3.99 2.25-4.5 2.26-4.76 2.28-4.62 2.33-4.07 2.39-3.36 2.45-2.85 2.49-2.79 2.48-3.18 2.44-3.7 2.37-3.89 2.31-3.6 2.31-3.22 2.37-3.33 2.41-3.95 2.43-3.77 2.55-1.63 3.27" filter="url(#a)"/><path d="m-41.92-64.76-.47.46-1.41 1.26-2.04 1.75-2.33 1.97-2.33 2.03-2.09 2.01-1.7 1.98-1.33 1.98-1.08 2.02-.98 2.08-1 2.15-1.09 2.21-1.21 2.24-1.3 2.26-1.34 2.27-1.32 2.28-1.28 2.31-1.23 2.36-1.18 2.4-1.16 2.44-1.16 2.47-1.14 2.46-1.13 2.44-1.08 2.4-1.01 2.39-.92 2.4-.82 2.43-.71 2.48-.64 2.55-.59 2.6-.58 2.64-.56 2.63-.56 2.6-.55 2.58-.51 2.62-.37 2.66.5 2.47" filter="url(#a)"/><path d="m-41.92-64.76-1.91.45-2.48 1.26-1.82 1.74-1.61 1.96-1.87 2.02-2.34 2-2.77 1.97-3.01 1.97-3.06 2-2.96 2.06-2.79 2.14-2.56 2.2-2.31 2.24-2.03 2.25-1.76 2.25-1.57 2.26-1.53 2.29-1.65 2.33-1.91 2.4-2.19 2.45-2.42 2.48-2.53 2.48-2.53 2.43-2.39 2.38-2.1 2.33-1.67 2.33-1.31 2.37-1.37 2.44-2.1 2.51-3.28 2.65-3.84 2.99-2.06 3.32" filter="url(#a)"/><path d="m-41.92-65.03-1.62 1.55-1.69 1.56-2.07 1.74-2.88 1.87-3.88 1.94-4.47 1.97-4.36 1.97-3.68 1.95-2.86 1.96-2.24 1.98-1.91 1.99-1.77 2.03-1.67 2.06-1.54 2.12-1.49 2.2-1.68 2.28-2.19 2.37-2.93 2.44-3.61 2.49-3.97 2.53-3.89 2.58-3.48 2.64-3.07 2.7-2.91 2.68-3.08 2.52-3.34 2.32-3.18 2.4-.87 3.61" filter="url(#a)"/><path d="m-41.92-65.03-2.44 1.55-1.49 1.56-1.48 1.74-1.65 1.87-1.93 1.94-2.21 1.97-2.35 1.97-2.32 1.95-2.17 1.96-2.02 1.98-1.92 1.99-1.91 2.03-1.94 2.06-2 2.12-2.09 2.2-2.18 2.28-2.33 2.37-2.47 2.44-2.54 2.49-2.44 2.53-2.09 2.58-1.53 2.64-1.02 2.7-.91 2.68-1.39 2.52-2.18 2.32-2.65 2.4-2.93 3.61" filter="url(#a)"/><path d="m-41.92-65.03-2.37 1.55-1.82 1.58-2.03 1.74-1.88 1.88-1.63 1.95-1.61 1.97-1.82 1.98-2.12 1.96-2.31 1.97-2.27 1.98-1.98 2.01-1.57 2.04-1.17 2.08-.87 2.14-.7 2.22-.65 2.29-.72 2.38-.87 2.45-1.08 2.5-1.3 2.55-1.48 2.58-1.54 2.63-1.5 2.63-1.38 2.6-1.25 2.51-1.1 2.38-.95 2.3-.85 2.28-1.02 2.37L-85.19.9l-1.06 1.69" filter="url(#a)"/><path d="m-41.84-64.76-1.43 1.42-2.27 1.93-3.15 2.08-3.66 2.08-3.78 2.03-3.65 1.97-3.44 1.97-3.3 2.01-3.27 2.07-3.28 2.16-3.2 2.21-2.9 2.25-2.39 2.26-1.76 2.26-1.15 2.28-.75 2.31-.64 2.36-.84 2.4-1.28 2.44-1.84 2.47-2.4 2.46-2.87 2.43-3.19 2.41-3.35 2.39-3.4 2.39-3.43 2.42-3.49 2.49-3.59 2.54-3.62 2.61-3.45 2.63-3.1 2.63-2.8 2.6-2.7 2.58-2.72 2.62-2.86 2.65-4.29 2.47" filter="url(#a)"/><path d="m-43.33-63.18-2.99 1.24-5.55 1.74-4.52 1.89-3.18 1.97-2.7 1.99-2.69 1.96-2.71 1.95-2.59 1.95-2.32 1.96-1.99 1.99-1.69 2.02-1.59 2.05-1.84 2.11-2.45 2.19-3.28 2.27-4.02 2.37-4.43 2.44-4.38 2.48-4.03 2.51-3.67 2.57-3.55 2.65-3.74 2.74-3.93 2.73-3.82 2.48-3.9 1.98-7.72 1.15m88.43-54.7-2.02 2.24-1.94 1.98-1.97 2.01-1.99 2.01-2.05 1.97-2.02 1.95-1.87 1.95-1.64 1.96-1.48 1.99-1.43 2.03-1.55 2.06-1.72 2.13-1.85 2.2-1.84 2.28-1.68 2.38-1.41 2.44-1.18 2.49-1.11 2.53-1.26 2.58-1.52 2.63-1.75 2.67-1.84 2.64-1.74 2.5-1.62 2.33-1.73 2.18-2.26 1.98-2.31.69" filter="url(#a)"/><path d="m-44.99-61.41-6.14 2.22-4.38 2.12-1.12 2.03-.17 1.95-.56 1.92-1.24 1.98-1.66 2.08-1.74 2.17-1.64 2.23-1.6 2.26-1.73 2.27-2.08 2.27-2.53 2.29-3.01 2.31-3.42 2.36-3.68 2.41-3.77 2.44-3.64 2.47-3.34 2.46-2.9 2.43-2.48 2.42-2.27 2.4-2.4 2.41-2.92 2.44-3.71 2.49-4.55 2.54-5.13 2.59-5.23 2.62-4.64 2.62-3.42 2.61-1.8 2.59-.29 2.58.42 2.57-.16 2.53-1.74 2.45-2.88 2.37-.99 2.25" filter="url(#a)"/><path d="m-44.99-61.41-5.72 2.22-3.56 2.12-4.05 2.03-3.6 1.95-2.13 1.92-.86 1.98-.53 2.08-1.14 2.17-2.2 2.23-3.22 2.26-3.85 2.27-3.94 2.27-3.52 2.29-2.77 2.31-1.88 2.36-1.08 2.41-.5 2.44-.26 2.47-.35 2.46-.68 2.43-1.11 2.42-1.51 2.4-1.73 2.41-1.78 2.44-1.7 2.49-1.56 2.54-1.45 2.59-1.38 2.62-1.41 2.62-1.58 2.61-1.89 2.59-2.2 2.58-2.25 2.57-1.7 2.53-.68 2.45-.13 2.37-1.37 2.25" filter="url(#a)"/><path d="m-46.47-59.72-.71 1.56-.3 1.98-.79 2.05-1.18 1.98-1.03 1.95-.5 1.96.07 1.98.46 2.02.58 2.05.47 2.09.32 2.16.2 2.23.15 2.32.13 2.4.1 2.47.08 2.51.19 2.56.49 2.59.97 2.6 1.54 2.59 2.02 2.56 2.26 2.49 2.28 2.43 2.16 2.39 2.03 2.37 1.98 2.39 1.92 2.44 1.74 2.48 1.45 2.53 1.38 2.6 1.85 2.74 2.48 2.92 3.28 2.59m83.35-36.57 6.95-1.97 2.25-2.54-1.05-2.56-.99-2.37.07-2.2.61-2.15.46-2.2.06-2.28-.29-2.35-.54-2.36-.78-2.31-.98-2.23-1.1-2.11-1.07-2.02-.91-1.94-.69-1.9-.5-1.86-.32-1.81-.14-1.74v-1.66l.02-1.59-.1-1.53-.4-1.49-.78-1.46-1.22-1.43-1.79-1.41-2.52-1.38-3.01-1.34-2.07-1.15" filter="url(#a)"/><path d="m64.95-19.31 3.2-1.99 1.2-2.55-.21-2.57-.22-2.38-.01-2.21-.01-2.17-.08-2.23-.1-2.29-.13-2.36-.32-2.35-.63-2.31-.95-2.22-1.12-2.12-1.1-2.03-.92-1.95-.74-1.9-.65-1.85-.68-1.8-.83-1.73-1.01-1.66-1.19-1.6-1.35-1.55-1.55-1.5-1.8-1.45-2.09-1.42-2.32-1.38-2.44-1.32-2.41-1.25-2.3-1.19-2.2-1.1-2.16-1.03-2.13-.96-2.02-.88-1.83-.75-1.46-.65" filter="url(#a)"/><path d="m64.95-19.31 4.65-1.94 4.52-2.51 1.68-2.55-.02-2.35-.28-2.17-.1-2.1-.13-2.16-.31-2.25-.37-2.34-.08-2.38.44-2.34.84-2.24.8-2.1.18-1.97-.81-1.89-1.79-1.88-2.33-1.92-2.24-1.91-1.7-1.78-1.11-1.53-.59-1.42.5-1.67" filter="url(#a)"/><path d="m64.95-19.31 3.1-1.95 1.62-2.52.6-2.55-.44-2.36-.83-2.18-.51-2.12-.07-2.17.08-2.27-.1-2.34-.36-2.37-.41-2.33-.17-2.23.23-2.11.49-1.99.36-1.92-.22-1.89-1.01-1.88-1.55-1.85-1.49-1.76-.86-1.63-.15-1.54-.05-1.55-.87-1.6-1.95-1.52m-108.06 9.45-3.65 2.23-3.71 2.16-4.36 1.97-4.6 1.91-4.11 1.92-3.17 1.95-2.44 1.98-2.21 2.02-2.4 2.05-2.67 2.11-2.74 2.18-2.53 2.28-2.18 2.37-1.98 2.44-2.27 2.49-3.14 2.51-4.36 2.57-5.35 2.63-5.46 2.7-4.41 2.66-2.64 2.5-1.17 2.3-.84 2.38-1.31 3.6" filter="url(#a)"/><path d="m-48.63-56.83-2.64 1.99-3.75 1.9-2.86 1.83-1.78 1.9-1.61 2.05-2.35 2.18-3.43 2.26-4.2 2.28-4.22 2.26-3.6 2.25-2.75 2.25-2.14 2.28-2 2.33-2.34 2.4-2.97 2.45-3.72 2.48-4.4 2.46-4.87 2.43-4.99 2.38-4.7 2.35-4.13 2.35-3.54 2.4-3.12 2.46-2.92 2.54-2.67 2.62-2.14 2.66-1.65 2.63-2.18 2.5-4.06 2.46-3.63 3.17" filter="url(#a)"/><path d="m-48.63-56.83-4.26 2-3.69 1.9-2.05 1.84-1.22 1.92-1.01 2.06-1.22 2.19-1.62 2.27-2.02 2.28-2.31 2.27-2.53 2.26-2.75 2.27-2.99 2.3-3.25 2.35-3.43 2.41-3.43 2.45-3.22 2.47-2.84 2.46-2.37 2.43-1.93 2.4-1.59 2.39-1.37 2.39-1.23 2.43-1.13 2.49-1.03 2.54-.91 2.59-.8 2.62-.72 2.62-.79 2.6-1.05 2.58-1.5 2.59-1.86 2.58-1.55 2.53-.51 2.46-1.25 2.42" filter="url(#a)"/><path d="m-50.27-54.77-2.52 1.96-3.02 1.79-2.23 1.86-1.99 2.06-2.86 2.22-4.13 2.29-4.94 2.3-4.88 2.28-4.15 2.26-3.19 2.26-2.3 2.31-1.69 2.35-1.28 2.41-1.04 2.46-.86 2.47-.74 2.46-.66 2.44-.71 2.4-.88 2.4-1.18 2.4-1.54 2.44-1.9 2.49-2.24 2.54-2.6 2.59-3.01 2.61-3.49 2.61-3.89 2.61-4.04 2.59-3.78 2.57-3.09 2.55-2.09 2.51-1.07 2.45-.34 2.38-.14 2.32.09 2.34" filter="url(#a)"/><path d="m-51.42-52.94-3.53 1.2-4.1 1.72-2.55 1.92-1.05 1.98-.82 2.01-1.6 2.05-2.53 2.09-3.02 2.15-2.97 2.23-2.63 2.33-2.38 2.41-2.42 2.47-2.74 2.53-3.17 2.56-3.55 2.59-3.85 2.6-4.05 2.59-4.18 2.55-4.18 2.48-3.9 2.42-3.32 2.38-2.56 2.37-1.98 2.4-1.89 2.43-2.41 2.49-3.28 2.54-3.99 2.6-4.15 2.69-3.57 2.75-2.17 2.61-1.86 2.19" filter="url(#a)"/><path d="m-51.93-52.65-2.23 1.72-1.39 1.75-1.4 2.05-1.81 2.25-2.17 2.33-2.15 2.31-1.76 2.28-1.25 2.25-.89 2.25-.8 2.29-.99 2.35-1.3 2.41-1.6 2.46-1.78 2.47-1.77 2.47-1.56 2.43-1.21 2.39-.8 2.39-.44 2.39-.29 2.43-.35 2.49-.64 2.54-1.02 2.58-1.34 2.62-1.47 2.61-1.38 2.6-1.17 2.58-.99 2.58-.89 2.56-.81 2.51-.57 2.45-.17 2.36.2 2.24" filter="url(#a)"/><path d="m-51.93-52.65-2.19 1.73-.97 1.74-1.27 2.05-1.68 2.26-1.85 2.33-1.85 2.31-1.9 2.28-1.97 2.25-1.96 2.26-1.76 2.29-1.43 2.36-1.11 2.41-.94 2.46-.97 2.47-1.16 2.47-1.38 2.43-1.52 2.4-1.49 2.39-1.32 2.4-1.03 2.44-.7 2.49-.43 2.54-.28 2.58-.32 2.61-.52 2.62-.83 2.6-1.04 2.58-.99 2.57-.62 2.55-.14 2.51.07 2.45-.2 2.37-.68 2.33-.78 2.33" filter="url(#a)"/><path d="m-52.25-52.14-1.56 1.98-1.4 2.03-1.09 2.01-1.06 2-1.2 2.03-1.37 2.06-1.45 2.12-1.45 2.2-1.37 2.3-1.24 2.4-1.05 2.47-.88 2.5-.74 2.54-.67 2.58-.68 2.61-.73 2.61-.81 2.57-.88 2.48-.93 2.36-.93 2.29-.87 2.29-.79 2.35-.72 2.45-.65 2.53-.28 3" filter="url(#a)"/><path d="m-52.25-52.14-1.22 2-1.35 2.05-1.61 2.03-1.68 2.02-1.54 2.06-1.41 2.09-1.41 2.15-1.49 2.25-1.56 2.34-1.47 2.42-1.24 2.49-.95 2.53-.67 2.57-.51 2.59-.47 2.6-.54 2.59-.65 2.54-.76 2.49-.85 2.43-.9 2.4-.93 2.4-.96 2.41-.94 2.45-.88 2.5-.75 2.55-.59 2.59-.42 2.61-.28 2.59-.13 2.5.03 2.37.15 2.29.1 2.54.23 3.75" filter="url(#a)"/><path d="m-53.21-50.47-1.12 1.22-2.08 2.07-3.26 2.33-3.75 2.38-3.5 2.34-2.95 2.29-2.43 2.24-2.07 2.25-1.83 2.3-1.68 2.36-1.55 2.42-1.43 2.47-1.32 2.48-1.21 2.46-1.16 2.44-1.17 2.41-1.29 2.4-1.42 2.41-1.51 2.45-1.48 2.5-1.29 2.54-.96 2.59-.61 2.6-.3 2.61-.12 2.6-.1 2.58-.23 2.56-.48 2.53-.79 2.5-1.06 2.44-1.15 2.4-1 2.36-.54 2.39.17 2.47.65 2.62.61 2.66" filter="url(#a)"/><path d="m-53.21-50.47-3.84 1.21-3.03 2.05-1.98 2.32-2.02 2.38-2.3 2.33-2.16 2.28-1.66 2.23-1.24 2.23-1.26 2.28-1.74 2.34-2.42 2.42-2.98 2.46-3.26 2.48-3.26 2.46-3.08 2.43-2.8 2.39-2.48 2.37-2.04 2.38-1.48 2.42-.88 2.48-.39 2.54-.13 2.59-.09 2.61-.14 2.61-.17 2.6-.29 2.57-.81 2.58-1.79 2.57-2.76 2.52-2.4 2.45-.73 2.42m55.35-73.56-1.77 2.61-2.06 2.5-1.74 2.43-1.24 2.35-.91 2.25-.78 2.19-.8 2.19-.84 2.24-.92 2.32-.95 2.4-.94 2.46-.89 2.49-.8 2.47-.72 2.41-.66 2.35-.6 2.31-.59 2.32-.59 2.37-.63 2.44-.64 2.53-.61 2.62-.54 2.7-.39 2.64-.18 2.28-.3 1.65" filter="url(#a)"/><path d="m-53.47-50.03-15.83 2.65-1.67 2.53 1.45 2.45 2.12 2.37 1.63 2.28.65 2.23-.34 2.24-1.13 2.3-1.69 2.36-2.05 2.43-2.29 2.47-2.46 2.49-2.66 2.47-2.95 2.44-3.3 2.41-3.66 2.4-3.92 2.42-3.99 2.45-3.82 2.51-3.46 2.54-2.96 2.58-2.48 2.61-2.13 2.6-1.97 2.6-1.98 2.58-2.02 2.56-1.93 2.52-1.63 2.49-1.16 2.45-.74 2.42-.54 2.39-.61 2.4-.69 2.42-.51 2.43v2.34l.06 2.11-2.99 1.89" filter="url(#a)"/><path d="M-53.47-50.03-55-47.38l-2.32 2.53-4.03 2.45-5.11 2.37-4.56 2.28-2.88 2.23-1.15 2.24-.03 2.3.36 2.36.3 2.43.06 2.47-.18 2.49-.41 2.47-.66 2.44-.92 2.41-1.21 2.4-1.48 2.42-1.73 2.45-1.91 2.51-1.98 2.54-1.93 2.58-1.75 2.61-1.5 2.6-1.25 2.6-1.11 2.58-1.12 2.56-1.21 2.52-1.25 2.49-1.14 2.45-.85 2.42-.45 2.39-.15 2.4-.1 2.42-.35 2.43-.74 2.34-1.08 2.11-1.44 1.89" filter="url(#a)"/><path d="m-54.6-48-1.48 2.12-1.66 1.92-2.01 2.02-2.45 2.07-2.73 2.11-2.72 2.21-2.59 2.33-2.63 2.42-2.9 2.49-3.34 2.52-3.75 2.55-3.94 2.58-3.77 2.61-3.31 2.59-2.73 2.55-2.25 2.47-2.08 2.39-2.22 2.33-2.58 2.34-2.92 2.36-3.03 2.42-2.87 2.46-2.79 2.48-3.3 2.54-4.26 2.78-3.1 3.69" filter="url(#a)"/><path d="m-54.6-48-14.65 2.13-3.88 1.94 1.9 2.03 2.5 2.09 1.01 2.13-.58 2.23-1.58 2.35-1.95 2.44-2.02 2.5-2.11 2.54-2.48 2.57-3.1 2.6-3.75 2.6-4.09 2.59-3.91 2.54-3.14 2.48-2.04 2.42-.94 2.39-.21 2.38.02 2.41-.3 2.45-.94 2.49-1.74 2.55-2.43 2.58-2.91 2.61-3.19 2.59-3.39 2.49-3.43 2.36-2.68 2.29-.62 2.53.93 3.75" filter="url(#a)"/><path d="m-58.96-39.11-6.41 1.97-1.26 1.92-1.13 2.08-1.45 2.24-1.57 2.37-1.6 2.46-1.65 2.52-1.67 2.52-1.66 2.49-1.57 2.42-1.38 2.38-1.06 2.37-.7 2.38-.42 2.44-.34 2.5-.44 2.54-.66 2.59-.82 2.6-.84 2.6-.71 2.59-.54 2.58-.49 2.54-.68 2.52-1.16 2.48-1.85 2.43-2.46 2.4-2.67 2.37-2.24 2.39-1.22 2.43-.25 2.49-.18 2.39.26 1.95M64.69-20.82l-.71-2.92-.76-2.77-.76-2.4-.91-2.14-1.27-2.09-1.7-2.17-2.02-2.28-2.14-2.36-2.04-2.38-1.8-2.32-1.57-2.22-1.43-2.11-1.38-2-1.43-1.93-1.48-1.89-1.5-1.86-1.48-1.81-1.41-1.74-1.34-1.66-1.3-1.58-1.3-1.52-1.41-1.49-1.61-1.45-1.86-1.43-2.01-1.41-2.08-1.41-2.42-1.53" filter="url(#a)"/><path d="m-60.03-36.93-2.06 1.73-2.24 2.03-2.45 2.26-2.87 2.38-2.9 2.47-2.42 2.53-1.6 2.53-.72 2.49-.11 2.42.1 2.36-.14 2.34-.61 2.37-1.04 2.42-1.27 2.49-1.23 2.54-1.03 2.59-.83 2.6-.78 2.6-.9 2.58-1.14 2.57-1.4 2.55-1.58 2.51-1.69 2.48-1.73 2.43-1.74 2.36-1.65 2.32-1.34 2.32-1.1 2.44-1.64 2.91" filter="url(#a)"/><path d="m-60.64-35.23-4.83 1.99-9.19 2.34-7.25 2.44-3.89 2.5-1.5 2.55-.05 2.56.87 2.5 1.36 2.42 1.43 2.36 1.13 2.35.59 2.38-.07 2.44-.76 2.5-1.39 2.55-1.9 2.59-2.22 2.61-2.3 2.6-2.15 2.59-1.87 2.56-1.54 2.54-1.29 2.51-1.12 2.48-1.14 2.43-1.35 2.41-1.76 2.38-2.22 2.39-2.47 2.4-2.36 2.38-1.95 2.31-1.8 2.17-2.37 2.09-3.21 2.25" filter="url(#a)"/><path d="m-60.75-35.23-.35 2.26-.3 2.65-.28 2.62-.17 2.53-.03 2.51.08 2.58.11 2.63.08 2.62.06 2.54.06 2.45.06 2.37.06 2.34.1 2.35.19 2.39.37 2.44.66 2.49.96 2.54 1.22 2.57 1.38 2.58 1.39 2.56 1.25 2.47 1.03 2.38.88 2.34 1.09 2.45 1.67 2.63 1.73 2.13" filter="url(#a)"/><path d="m-61.39-33.38 4.8 2.45-1.23 2.55-1.81 2.51L-61-23.3l-.9 2.59-.57 2.52-.33 2.42-.19 2.37-.07 2.35.04 2.4.17 2.46.3 2.51.43 2.57.51 2.6.58 2.61.62 2.6.67 2.59.72 2.57.78 2.54.85 2.51.94 2.48 1.07 2.45 1.23 2.42 1.38 2.4 1.5 2.38 1.56 2.36 1.57 2.34 1.54 2.29 1.49 2.25 1.44 2.22 1.41 2.21 1.38 2.18 1.37 2.14 1.38 2.01 1.47 1.84 1.54 1.68 1.18 1.73M-62.39-29.7l-.88 2.4-1.1 2.41-1.36 2.4-1.94 2.54-2.7 2.67-3.15 2.66-2.9 2.55-1.99 2.43-.88 2.34-.12 2.32-.02 2.35-.53 2.39-1.36 2.44-2.16 2.49-2.66 2.53-2.75 2.56-2.51 2.57-2.13 2.54-1.74 2.48-1.39 2.39-1.04 2.38-.81 2.44-.8 2.55-.81 2.56-.19 2.61" filter="url(#a)"/><path d="m-63.24-27.08-.23 1.38-.16 2.32.02 2.68.37 2.58.91 2.36 1.47 2.25 1.87 2.23 1.93 2.31 1.63 2.4 1.1 2.47.62 2.54.47 2.58.8 2.6 1.51 2.58 2.27 2.55 2.6 2.54 2.23 2.53 1.28 2.52.39 2.47.34 2.4 1.39 2.32 3.06 2.21M-63.05-27.6l-8.27 2.89.81 2.31 1.23 2.53-.18 2.72-1.58 2.71-2.7 2.56-3.49 2.43-3.8 2.34-3.49 2.33-2.71 2.36-1.85 2.41-1.33 2.46-1.41 2.5-2.01 2.54-2.76 2.56-3.22 2.56-3.1 2.53-2.49 2.48-1.67 2.45-.99 2.43-.64 2.44-.4 2.44v2.43l.65 2.36 1.07 2.27.5 2.19-.92 2.21v2.53M64.17-23.56l-.29-2.15 1.04-2.34 1.97-2.36 1.78-2.26 1.01-2.16.21-2.12-.39-2.14-.74-2.19-.89-2.21-.98-2.21-1.08-2.16-1.19-2.1-1.25-2.01-1.21-1.94-1.1-1.86-.99-1.78-.95-1.71-.99-1.66-1.06-1.63L56-64.18l-.96-1.63-.78-1.62-.65-1.57-.68-1.44-.93-1.25-1.39-1.11-2.2-1.17-4.24-1.77" filter="url(#a)"/><path d="m64.17-23.56 7.64-2.17 4.04-2.36-2.28-2.38-4.11-2.27-3.47-2.17-2.17-2.15-.86-2.17.19-2.2.86-2.22 1.03-2.2.76-2.16.23-2.1-.29-2.02-.56-1.93-.54-1.86-.28-1.79.03-1.73.17-1.69.02-1.65-.43-1.62-1.04-1.6-1.65-1.54-2.09-1.49-2.31-1.4-2.33-1.32-2.22-1.24-2.09-1.16-2.02-1.11-2.06-1.04-2.22-.98-2.44-.88-2.66-.81-2.84-.72-3-.67-3.08-.58-2.84-.51m36.76 57.66-4.02-3-4.93-2.41-3.99-2.06-2.66-2.05-1.71-2.19-1.44-2.31-1.6-2.39-1.71-2.39-1.55-2.32-1.17-2.22-.78-2.11-.59-2.02-.67-1.94-1-1.9-1.46-1.84-1.9-1.78-2.25-1.73-2.39-1.66-2.33-1.59-2.11-1.54-1.76-1.5-1.42-1.45-1.17-1.4-1.08-1.36-1.12-1.3-1.25-1.24-1.34-1.16-1.34-1.1-1.25-1.01-1.15-.94-1.12-.86-1.19-.79-1.32-.71-1.44-.64-1.43-.57-1.23-.48-.79-.28" filter="url(#a)"/><path d="m62.99-27.93.02-2.72.19-2.33.18-2.08.72-2.06 1.23-2.12 1.05-2.19.27-2.24-.55-2.22-.97-2.17-.95-2.09-.72-2-.56-1.93-.58-1.85-.7-1.77-.78-1.7-.72-1.67-.55-1.63-.37-1.63-.35-1.61-.53-1.58-.92-1.51-1.41-1.41-1.9-1.3-2.3-1.2-2.54-1.16-2.58-1.14-2.29-1.13-1.62-1.07-.53-1.04" filter="url(#a)"/><path d="m62.99-27.93 5.82-2.73.15-2.33 1.26-2.09 2.29-2.07 2.09-2.13 1.13-2.2.02-2.24-.92-2.22-1.58-2.17-1.99-2.09-2.25-2.01-2.38-1.93-2.3-1.84-2.02-1.78-1.53-1.71-.99-1.68-.58-1.64-.39-1.62-.47-1.6-.73-1.55-1.11-1.49-1.48-1.41-1.85-1.31L51-72.99l-2.43-1.16-2.52-1.12-2.47-1.06-2.3-.98-2.16-.88-2.07-.78-2.2-.77-3.65-.97" filter="url(#a)"/><path d="m60.85-34.43 2.84-.9-1.48-1.9-1.83-2.1-1.31-2.24-.65-2.28-.14-2.26.11-2.18.1-2.08-.13-2-.46-1.91-.84-1.84-1.17-1.77-1.43-1.7-1.55-1.67-1.56-1.63-1.52-1.62-1.47-1.59-1.45-1.54-1.43-1.48-1.39-1.39-1.33-1.31-1.29-1.22-1.31-1.16-1.42-1.1-1.6-1.04-1.79-.96-1.98-.88-2.16-.8-2.34-.72-2.48-.66-2.58-.58-2.66-.51" filter="url(#a)"/><path d="m61.26-33.85-.47-3.24-.44-2.24-.98-2.27-.94-2.32-.59-2.28-.36-2.18-.42-2.08-.7-2-1.04-1.9-1.31-1.83-1.45-1.76-1.46-1.7-1.4-1.66-1.34-1.64-1.31-1.61-1.38-1.58-1.49-1.55-1.62-1.47-1.74-1.39-1.8-1.3-1.81-1.22-1.8-1.15-1.79-1.09-1.8-1.04-1.8-.96-1.81-.87-1.84-.8-1.94-.72-2.14-.67-2.41-.62-2.82-.61-3.38-.73" filter="url(#a)"/><path d="m60.66-35.44-.69-2.42-.85-2.59L58.11-43l-1.07-2.4-1.13-2.21-1.23-2.03-1.33-1.93-1.42-1.88-1.45-1.86-1.44-1.84-1.39-1.78-1.34-1.71-1.29-1.64-1.29-1.57-1.32-1.52L41-66.84l-1.52-1.44-1.65-1.4-1.77-1.35-1.87-1.3-1.91-1.23-1.92-1.16-1.89-1.08-1.85-1.01-1.82-.93-1.81-.86-1.81-.78-1.86-.7-2.04-.65-2.36-.6-2.8-.61" filter="url(#a)"/><path d="m59.28-38.77 1.77-.75.42-2.06-1.3-2.36-1.93-2.31-1.93-2.17-1.72-2.06-1.45-1.98-1.18-1.89-.95-1.82-.76-1.74-.69-1.69-.73-1.63-.9-1.62-1.13-1.61-1.37-1.6-1.55-1.57-1.64-1.5-1.67-1.39-1.66-1.29-1.64-1.2-1.64-1.14-1.66-1.13-1.72-1.09-1.78-1.02-1.63-.88-.92-.61" filter="url(#a)"/><path d="m59.71-37.72 16.24-2.76.34-2.59-5.49-2.41-5.72-2.2-4.02-1.99-2.1-1.87-.52-1.83.47-1.84.77-1.85.48-1.79-.12-1.71-.67-1.61-.94-1.55-.96-1.5-.92-1.47-1.03-1.43-1.29-1.41-1.48-1.38-1.31-1.33-.8-1.27-.4-1.18-.94-1.03-3.14-.81m13.16 38.24-7.89-2.99-.02-2.71.48-2.39-.34-2.16-1.14-2.04-1.76-1.96-2.21-1.89-2.45-1.81-2.48-1.73-2.35-1.68-2.14-1.63-1.94-1.61-1.85-1.61-1.88-1.59-1.99-1.57-2.09-1.49-2.07-1.4-1.92-1.28-1.71-1.19L20-74.16l-1.6-1.13-1.74-1.09-1.8-1.01-1.63-.88-1.3-.61" filter="url(#a)"/><path d="m59.32-38.29-1.22-2.98-1.23-2.71-1.12-2.38-1.09-2.15-1.08-2.04-1.1-1.95-1.14-1.89-1.18-1.81-1.25-1.73-1.3-1.66-1.36-1.62-1.42-1.61-1.48-1.6-1.53-1.61-1.55-1.59-1.52-1.51-1.48-1.4-1.45-1.26-1.53-1.16-1.72-1.14-1.94-1.16-2.05-1.12-2.27-1.06" filter="url(#a)"/><path d="m59.32-38.29-1.67-3.03-1.75-2.73-1.86-2.4-1.76-2.19-1.51-2.06-1.32-1.98-1.3-1.9-1.42-1.82-1.58-1.75-1.71-1.69-1.76-1.66-1.73-1.63-1.68-1.61-1.65-1.57-1.66-1.53-1.68-1.45-1.75-1.38-1.8-1.29-1.83-1.21-1.84-1.14-1.81-1.07-1.77-1.01-1.73-.93-1.72-.86-1.74-.79-1.79-.72-1.85-.66-1.89-.59-1.89-.53-1.85-.46-1.78-.39-1.71-.31-1.63-.23-1.56-.16-1.55-.09h-1.56l-1.21.11m62.3 44.71.12-2.98-.63-2.7-.97-2.37-.72-2.16-.16-2.03.42-1.95.79-1.89.83-1.8.54-1.73.08-1.66-.31-1.62-.46-1.6-.35-1.6-.11-1.61.07-1.6.05-1.53-.22-1.4-.77-1.25-1.47-1.13-2.04-1.14-2.08-1.21-.75-.94" filter="url(#a)"/><path d="m59.32-38.29-.62-3.02-.99-2.73-1.3-2.39-1.15-2.19-.73-2.05-.37-1.97-.22-1.9-.33-1.82-.54-1.74-.76-1.69-.94-1.65-1.06-1.63-1.18-1.61-1.25-1.58-1.27-1.53-1.25-1.46-1.22-1.38-1.26-1.29-1.39-1.22-1.6-1.14-1.85-1.08-2.05-1.02-2.18-.94-2.21-.87-2.2-.79-2.19-.73-2.27-.66-2.46-.61-2.78-.56-3.2-.49-3.57-.4-3.86-.29-3.66-.17" filter="url(#a)"/><path d="m59.32-38.29 1.14-2.99 3.56-2.71 1.52-2.38-.74-2.16-1.08-2.04-.11-1.95.87-1.89 1.17-1.81.81-1.73.19-1.67-.31-1.63-.61-1.6-.74-1.61-.88-1.6-1.03-1.58-1.16-1.5-1.2-1.4-1.14-1.27-1.16-1.18-1.46-1.14-2.11-1.14-2.93-1.12-3.36-1.06-1.32-1.03" filter="url(#a)"/><path d="m58.3-40.69-.66-2.61.1-2.44-.11-2.21-.68-1.98-1.2-1.87-1.52-1.85-1.67-1.86-1.7-1.84-1.68-1.79-1.67-1.71-1.67-1.63-1.68-1.56-1.71-1.52-1.71-1.47-1.72-1.43-1.72-1.38-1.73-1.34-1.73-1.27-1.75-1.21-1.78-1.13-1.8-1.06-1.84-.99-1.87-.91-1.9-.83-1.94-.76-1.99-.69-2.06-.61-2.14-.54-2.21-.47-2.29-.4-2.33-.33-2.37-.27-2.42-.19-2.44-.14-2.42-.06-2.35.02-1.94.13" filter="url(#a)"/><path d="m58.3-40.69 3.4-2.6-1.84-2.44-2.31-2.19-1.95-1.98-1.6-1.86-1.34-1.84-1.13-1.86-.95-1.84-.81-1.79-.72-1.7-.72-1.63-.79-1.56-.93-1.51-1.14-1.47-1.39-1.43-1.66-1.39-1.91-1.34-2.07-1.28-2.13-1.22-2.08-1.15-1.98-1.07-1.88-.99-1.83-.92-1.84-.85-1.92-.77-2.02-.69-2.16-.63-2.33-.56-2.53-.48-2.7-.41-2.82-.35-2.79-.24" filter="url(#a)"/><path d="m55.24-46.87-1.25-2.1-1.21-1.97-1.15-1.97-.93-1.91-.53-1.81-.1-1.73.12-1.66v-1.64l-.48-1.62-1.1-1.61L47-66.46l-1.87-1.53-1.83-1.45-1.56-1.36-1.21-1.28-.9-1.19-.74-1.13-.75-1.06-.95-.99-1.29-.92-1.71-.86-2.17-.78-2.61-.71-2.99-.64-3.28-.58-3.47-.52-3.55-.44-3.56-.37-3.51-.3-3.47-.22-3.5-.14-3.62-.06-3.81.03-4 .11-4.15.2-4.19.24-3.59.24" filter="url(#a)"/><path d="m54.42-48.34 1.2-2.09.6-1.58.38-1.68-.21-1.88-.78-1.91-1.15-1.82-1.39-1.7-1.62-1.59-1.77-1.53-1.79-1.49-1.69-1.46-1.54-1.42-1.42-1.38-1.39-1.34-1.42-1.28-1.48-1.2-1.55-1.14-1.62-1.06-1.72-.99-1.86-.91-2.01-.84-2.21-.76-2.4-.69-2.6-.62-2.78-.55-2.88-.48-2.87-.42-2.9-.34-3.2-.24" filter="url(#a)"/><path d="m54.42-48.34-1.14-2.09-.67-1.57-.73-1.68-1.07-1.87-1.36-1.91-1.47-1.82-1.48-1.69-1.42-1.59-1.39-1.53-1.37-1.48-1.39-1.46-1.44-1.42-1.54-1.39-1.66-1.34-1.77-1.28-1.86-1.21-1.91-1.14-1.92-1.07-1.93-.99-1.92-.91-1.92-.85-1.93-.77-1.99-.69-2.12-.63-2.24-.57-2.19-.46-1.65-.28" filter="url(#a)"/><path d="m52.83-51.13-.25-1.01-.84-1.51-1.42-1.92-1.56-1.98-1.47-1.85-1.35-1.68-1.28-1.58-1.23-1.51-1.22-1.48-1.26-1.46-1.29-1.42-1.36-1.38-1.42-1.33-1.47-1.28-1.53-1.2-1.6-1.13-1.71-1.06-1.81-.98-1.91-.91-1.96-.84-1.98-.76-2.03-.69-2.12-.62-2.24-.55-2.33-.48-2.35-.41-2.44-.34-2.63-.24" filter="url(#a)"/><path d="m52.98-50.66-1.54-2.32-1.37-1.99-1.31-1.8-1.3-1.69-1.32-1.62-1.39-1.6-1.48-1.59-1.6-1.61-1.69-1.59-1.74-1.54-1.77-1.45-1.76-1.36-1.75-1.26-1.76-1.19-1.77-1.12-1.78-1.07-1.79-1-1.79-.93-1.8-.86-1.82-.78-1.89-.71-1.97-.66-2.05-.6-2.14-.55-2.23-.49-2.33-.4-2.45-.28-2.32-.17" filter="url(#a)"/><path d="m51.88-52.59-2.69-2.8-2.42-2.39-1.97-1.91-1.72-1.62-1.58-1.5-1.52-1.48-1.5-1.47-1.52-1.45-1.56-1.42-1.61-1.38-1.68-1.32-1.78-1.27-1.86-1.2-1.94-1.12-1.96-1.05-1.93-.97-1.86-.9-1.79-.83-1.76-.75-1.76-.68-1.81-.61-1.87-.54-1.89-.48-1.88-.4-1.86-.33-1.85-.26-1.76-.17" filter="url(#a)"/><path d="m49.64-55.57 1.57-2.57-1.83-1.84-2.08-1.52-1.84-1.45-1.49-1.48-1.24-1.48-1.19-1.46-1.36-1.42-1.62-1.38-1.83-1.32-1.94-1.25-1.95-1.19-1.91-1.1-1.84-1.04-1.8-.95-1.77-.88-1.79-.8-1.85-.73-1.96-.66-2.12-.58-2.28-.52-2.42-.44-2.54-.37-2.61-.31-2.64-.23-2.69-.16-2.72-.09-2.76-.01-2.83.07-2.89.16-2.98.25-3.06.33-3.09.4-3.03.45-2.92.47-2.97.49-3.83.64" filter="url(#a)"/><path d="m48.42-56.97-.27-1.77-1.4-1.58-1.51-1.56-1.55-1.59-1.66-1.62-1.75-1.62-1.78-1.55-1.74-1.45-1.67-1.34-1.65-1.24-1.68-1.17-1.73-1.1-1.81-1.05-1.85-.97-1.9-.91-1.91-.84-1.94-.76-1.97-.7-2.01-.63-2.07-.57-2.13-.5-2.17-.44-2.2-.36-2.19-.28-2.19-.21-2.18-.13-2.19-.05-2.22.03-2.24.11-2.24.18-2.15.21-1.88.19-1.29.11" filter="url(#a)"/><path d="m47.61-58.53-1.97-1.8-1.4-1.28-1.4-1.36-1.6-1.46-1.78-1.48-1.96-1.46-2.16-1.43-2.39-1.37-2.51-1.32-2.51-1.26-2.35-1.18-2.11-1.11-1.89-1.03-1.73-.96-1.67-.88-1.67-.81-1.69-.73-1.72-.66-1.72-.59-1.69-.53-1.64-.45-1.58-.38-1.54-.32-1.51-.25-1.48-.18-1.45-.11-1.4-.04-1.33.04-1.26.14-1.12.21-.73.26" filter="url(#a)"/><path d="m45.63-60.94 4.25-1.8-1.41-1.71-1.67-1.59-1.47-1.48-1.56-1.42-1.83-1.37-2.1-1.32-2.3-1.25-2.44-1.18-2.5-1.09-2.53-1.02-2.49-.95-2.4-.87-2.27-.79-2.14-.72-2.04-.65-2.01-.57-2.03-.51-2.12-.44-2.24-.36-2.37-.3-2.52-.23-2.64-.16-2.74-.08-2.84-.01-2.91.08-3.05.16-3.22.25-3.44.34-3.62.4-3.64.44-3.4.47-3.08.5-3.55.63" filter="url(#a)"/><path d="m45.63-60.94-1.44-1.8-1.37-1.71-1.47-1.58-1.62-1.48-1.79-1.42-1.92-1.37-1.95-1.32-1.94-1.25-1.89-1.17-1.84-1.1-1.81-1.02-1.8-.95-1.82-.87-1.85-.79-1.9-.73-1.95-.65-2.01-.58-2.05-.51-2.09-.44L9-82.05l-2.16-.3-2.17-.24-2.2-.16-2.2-.1-2.2-.01-2.19.06-2.21.16-2.23.25-2.3.34-2.43.42-2.55.49-2.45.49" filter="url(#a)"/><path d="m45.63-60.94-1.25-1.78-1-1.7-.28-1.56-.1-1.47-.57-1.41-1.3-1.36-1.91-1.32-2.2-1.25-2.2-1.18-2.01-1.1-1.79-1.03-1.62-.95-1.54-.88-1.57-.81-1.68-.74-1.87-.66-2.1-.6-2.33-.53-2.48-.46-2.55-.4-2.63-.32-2.82-.27-3.19-.22-3.78-.23" filter="url(#a)"/><path d="m45.63-60.94-1.43-1.79-1.6-1.71-1.67-1.58-1.67-1.48-1.68-1.42-1.73-1.37-1.75-1.32-1.75-1.25-1.69-1.18-1.61-1.1-1.53-1.02-1.46-.94-1.44-.87-1.47-.8-1.59-.73-1.75-.65-1.97-.58-2.17-.51-2.36-.44-2.5-.38-2.59-.3-2.64-.24-2.66-.17-2.65-.1-2.65-.02-2.66.06-2.7.14-2.81.25-3.04.34-3.47.45-3.79.52" filter="url(#a)"/><path d="m43.8-62.79.96-1.77-2.26-1.58-2.42-1.45L38.06-69l-1.63-1.36-1.4-1.32-1.31-1.25-1.37-1.18-1.53-1.09-1.67-1.01-1.79-.94-1.85-.87-1.92-.79-1.99-.71-2.1-.65-2.23-.57-2.33-.51-2.42-.43-2.46-.36-2.5-.3-2.52-.23-2.57-.16-2.6-.08h-2.66l-2.71.08-2.78.16-2.87.25-2.97.34-3.06.4-3.06.45-2.93.46-2.8.5-3.17.63" filter="url(#a)"/><path d="m42.62-64.2.2-.94-.85-1.74-1.18-1.68-1.14-1.47-1.12-1.27-1.18-1.16-1.28-1.11-1.36-1.08-1.48-1.04-1.64-.98-1.86-.9-2.07-.83-2.22-.75-2.28-.68-2.31-.64-2.36-.58-2.45-.52-2.6-.45-2.72-.38-2.73-.29-2.56-.22-2.33-.18-2.69-.2" filter="url(#a)"/><path d="m42.68-64.03-2.35-2.81-1.46-1.9-1.55-1.47-1.66-1.25-1.59-1.14-1.41-1.1-1.22-1.07-1.04-1.04-.92-.97-.88-.89-1.01-.81-1.31-.74-1.75-.68-2.2-.61-2.57-.55-2.82-.48-2.93-.42-3-.34-3.03-.26-3.1-.19-3.19-.11-3.28-.04-3.35.04-3.37.11-3.37.18-3.38.23-3.54.29-4.02.39-4.99.54-6.24.75-6.33.92" filter="url(#a)"/><path d="m42.68-64.03-2.87-2.82-2.1-1.9-1.77-1.47-1.64-1.24-1.62-1.14-1.66-1.1-1.69-1.08-1.68-1.03-1.67-.97-1.69-.89-1.76-.81-1.87-.74-2-.68-2.12-.61-2.2-.55-2.24-.48-2.25-.41-2.22-.34-2.19-.26-2.16-.19-2.14-.11-2.13-.03-2.12.04-2.12.12-2.1.17-2.09.25-2.12.31-2.24.41-2.48.54-2.75.67-2.64.75-1.63.61" filter="url(#a)"/><path d="m40.01-66.46-1.11-1.3-1.43-1.33-1.48-1.36-1.42-1.34-1.36-1.25-1.31-1.17-1.27-1.08-1.27-1-1.32-.93-1.45-.86-1.62-.78-1.82-.71-2.02-.64-2.24-.57-2.43-.5-2.58-.44-2.69-.36-2.77-.3-2.81-.23-2.85-.16-2.91-.09-2.97-.01-3.05.07-3.15.16-3.29.25-3.5.34-3.78.43-4.06.48-4.15.49" filter="url(#a)"/><path d="m38.52-67.94 1.49-1.16-1.73-1.4-.94-1.36-.39-1.26-.84-1.16-1.64-1.08-2.08-.99-2.02-.92-1.66-.86-1.34-.77-1.31-.71-1.57-.63-2.06-.57-2.58-.49-3-.42-3.26-.36-3.36-.29-3.37-.22-3.37-.15-3.37-.08h-3.43l-3.54.08-3.69.17-3.92.25-4.17.34-4.42.4-4.64.45-4.75.47-4.76.49-4.7.63" filter="url(#a)"/><path d="m37.5-68.86-2.57-1.66-3.07-1.14-3.23-1.05-2.9-1.07-2.55-1.09-2.27-1.04-2.06-.97-1.86-.89-1.71-.8-1.61-.72-1.57-.67-1.55-.6-1.51-.54-1.47-.47-1.42-.41-1.37-.32-1.34-.26-1.3-.17-1.26-.1-1.19-.02-1.08.05-.95.12-.81.19-.67.26-.57.34-.5.43-.45.53-.41.63-.34.71-.22.71.01.68.03.62" filter="url(#a)"/><path d="m37.5-68.86 1.51-1.67-1.12-1.14-.42-1.04-.25-1.08-.99-1.09-1.9-1.04-2.49-.97-2.69-.88-2.63-.8-2.53-.73-2.43-.66-2.4-.6-2.43-.54-2.49-.47-2.55-.4-2.6-.32-2.65-.25-2.71-.17-2.79-.1-2.89-.01-3.03.05-3.17.13-3.34.2-3.54.27-3.78.35-4.07.44-4.4.54-4.72.62-4.91.7-4.88.75-4.71.81-4.65.91-5.13 1.1-6.46 1.23" filter="url(#a)"/><path d="m37.5-68.86-1.91-1.65-1.22-1.13-.72-1.02-.66-1.06-1.07-1.08-1.61-1.05-1.99-.97-2.12-.89-2.08-.8-1.97-.73-1.89-.67-1.88-.62-1.96-.56-2.11-.5-2.3-.44-2.47-.36-2.53-.28-2.5-.21-2.49-.15-2.7-.09-3 .01-2.58.11" filter="url(#a)"/><path d="m37.95-68.7-2.26-1.84-1.84-1.42-1.93-1.27-1.91-1.15-1.84-1.07-1.82-.99-1.86-.91-1.89-.85-1.95-.77-1.97-.69-2-.62-2.01-.56-2.04-.48-2.06-.41-2.1-.34-2.13-.27-2.16-.2-2.2-.12-2.2-.05-2.21.03-2.2.11-2.2.19-2.18.27-2.15.33-2.13.41-2.09.46-2.06.51-2.05.58-2.06.65-2.12.74-2.19.82-2.27.92-2.33 1.03-2.33 1.12-2.28 1.22-2 1.14-.73.34" filter="url(#a)"/><path d="m34.68-71.11-1.02-.73-.84-.89-.47-1.05-.23-1.1-.36-1.06-.94-.98-1.74-.88-2.45-.79-2.83-.72-2.9-.66-2.73-.6-2.52-.55-2.32-.48-2.25-.41-2.27-.33-2.37-.26-2.53-.19-2.72-.11-2.9-.03-3.06.04-3.17.12-3.26.17-3.36.22-3.56.27-4.04.35-4.93.52-6.19.78" filter="url(#a)"/><path d="m33.68-71.81 7.44-.87-3.21-1.1-3.39-1.16-2.21-1.09-1.88-.97-2.14-.88-2.48-.78-2.59-.71-2.56-.65-2.47-.6-2.4-.53-2.39-.47-2.41-.39-2.45-.32-2.51-.24-2.61-.17-2.72-.08-2.87-.02-3.03.06-3.17.13-3.32.2-3.47.28-3.67.35-3.9.45-4.17.53-4.43.63-4.68.69-4.89.75-5.06.81-5.18.92-5.25 1.09-5.43 1.23" filter="url(#a)"/><path d="m32.19-72.65-1.31-1.06-1.79-1.25-1.62-1.12-1.32-.97-1.15-.86-1.16-.76-1.34-.71-1.62-.65-1.95-.59-2.26-.54-2.48-.48-2.6-.41-2.61-.33-2.56-.26-2.52-.18-2.53-.11-2.61-.03-2.73.05-2.85.11-2.95.18-2.91.21-2.74.24-2.72.28-3.81.48" filter="url(#a)"/><path d="m31.52-73.29-2.85-1.76-2.05-1.16-1.7-.96-1.52-.84-1.51-.75-1.64-.7-1.8-.64-1.94-.59-2.05-.52-2.13-.46-2.22-.38-2.28-.31-2.32-.23-2.34-.15-2.35-.07h-2.35l-2.38.07-2.41.15-2.45.22-2.52.29-2.6.38-2.68.46-2.77.55-2.84.63-2.91.71-3.01.78-3.11.84-3.23.91-3.3.97-3.27 1.02-3.21 1.06-3.25 1.1-3.53 1.26-4.24 1.7" filter="url(#a)"/><path d="m27.4-75.85-1.71-.82-1.18-.93-.76-.85-.77-.75-1.11-.66-1.58-.6-2.02-.53-2.35-.47-2.6-.39-2.74-.32-2.83-.26-2.85-.18-2.84-.12-2.83-.03-2.83.04-2.85.12-2.91.21-3 .28-3.14.35-3.35.41-3.57.47-3.82.52-4.04.59-4.21.66-4.32.74-4.35.83-4.31.93-4.26 1.02-4.3 1.11-4.45 1.15-4.58 1.13-4.54 1-5.89 1.19" filter="url(#a)"/><path d="m26.73-76.19-1.72-1.08-1.3-.85-1.64-.73-1.95-.68-2.11-.63-2.16-.58-2.16-.53-2.16-.45-2.16-.39-2.16-.3-2.16-.23-2.17-.15-2.18-.08h-2.21l-2.25.07-2.29.14-2.33.21-2.39.27-2.47.36-2.57.45-2.63.54-2.64.63-2.54.7-2.43.74-2.45.81-2.82.91-3.49 1.1-3.34 1.22" filter="url(#a)"/><path d="m26.73-76.19-1.98-1.08-1.47-.85-1.54-.72-1.74-.68-1.84-.63-1.88-.58-1.93-.53-2-.46-2.11-.39-2.2-.31-2.3-.23-2.4-.16-2.53-.09-2.68-.01-2.82.06-2.94.13-3 .2-3.05.25-3.14.33-3.4.43-3.86.54-4.4.65-4.68.73-4.32.71-3.29.74" filter="url(#a)"/><path d="m26.73-76.19-.21-1.09-2.21-.85-2.31-.74-2.18-.67-2.1-.64-2.1-.58-2.11-.52-2.14-.45-2.15-.37-2.15-.3-2.15-.22-2.15-.14-2.16-.06-2.17.01-2.19.08-2.22.16-2.27.23-2.31.31-2.37.4-2.41.47-2.44.56-2.46.64-2.46.72-2.46.78-2.46.86-2.46.91-2.49.98-2.54 1.03-2.66 1.09-2.82 1.15-2.97 1.22-2.98 1.3-2.77 1.38-2.59 1.56-3.22 2.22" filter="url(#a)"/><path d="m26.73-76.19-1.46-1.08-1.66-.84-1.6-.73-1.65-.67-1.75-.63-1.84-.59-1.93-.53-2.05-.46-2.17-.39-2.31-.31-2.42-.24-2.52-.16-2.61-.09-2.72-.01-2.83.06-2.96.12-3.08.19-3.16.25-3.26.32-3.45.41-3.79.54-4.17.68-4.14.74-2.86.6" filter="url(#a)"/><path d="m25.49-76.53-1.9-1.1-1.88-.89-1.8-.74-1.85-.66-1.95-.59-2.02-.52-2.06-.46-2.08-.39-2.09-.32-2.09-.25-2.09-.17-2.09-.11-2.09-.03-2.09.06-2.07.13-2.07.21-2.05.29-2.03.35-2.01.42-1.98.48-1.96.54-1.96.61-1.97.67-2.01.76-2.04.85-2.08.93-2.07 1.02-2.05 1.09-1.99 1.15-1.93 1.2-1.88 1.25-1.9 1.35-1.95 1.47-1.9 1.53-1.76 1.37" filter="url(#a)"/><path d="m24.02-77.43-.15-.82-.76-.67-2.02-.66-2.52-.63-2.53-.58-2.39-.52-2.26-.45-2.18-.38-2.14-.29-2.17-.21-2.23-.14-2.3-.06-2.34.01-2.38.09-2.38.16-2.39.24-2.43.31-2.49.39-2.59.48-2.7.56-2.77.64-2.83.72-2.86.79-2.9.85-2.99.92-3.11.98-3.25 1.03-3.42 1.09-3.55 1.14-3.58 1.22-3.42 1.3-3.15 1.38-3.25 1.56-4.47 2.22" filter="url(#a)"/><path d="m20.98-78.95-1.23-.46-1.67-.58-1.95-.59-2.06-.52-2.07-.45-2.05-.39-2.05-.31-2.05-.25-2.07-.19-2.09-.11-2.09-.04-2.09.04-2.11.12-2.12.21-2.14.28-2.14.35-2.1.41-2.04.46-1.94.5-1.88.55-1.89.63-1.99.71-2.12.81-2.21.91-2.13.96-1.45.8" filter="url(#a)"/><path d="m20.98-78.95-.99-.46-1.51-.58-1.96-.58-2.11-.53-2.12-.45-2.1-.38-2.09-.32L6-82.5l-2.12-.19-2.14-.12-2.13-.05-2.15.04-2.17.11-2.2.2-2.24.28-2.28.35-2.29.4-2.26.45-2.18.49-2.12.53-2.12.59-2.23.68-2.38.78-2.4.8" filter="url(#a)"/><path d="m21.41-78.88-1.94-.7-2.16-.69-2.1-.6-2.11-.52-2.13-.45-2.11-.37-2.09-.28-2.08-.21-2.1-.13-2.2-.06-2.33.02-2.48.08-2.62.16-2.73.23-2.83.31-2.89.38-2.93.47-2.94.56-2.93.64-2.88.71-2.83.78-2.83.84-2.88.91-2.99.98-3.11 1.02-3.14 1.04-3.07 1.1-3.04 1.26-4.12 1.69" filter="url(#a)"/><path d="m21.41-78.88-1.85-.7-2.01-.68-2.04-.6-2.13-.52-2.2-.45-2.21-.37-2.18-.29-2.17-.22-2.17-.14-2.26-.07-2.39.01-2.55.07-2.72.15-2.87.21-3.01.27-3.15.36-3.33.44-3.58.55-3.91.63-4.2.7-4.22.73-4.03.76-4.37.87-6.38 1.25" filter="url(#a)"/><path d="m21.41-78.88 1.11-.71-2.89-.69-3.15-.6-2.78-.52-2.45-.44-2.26-.37-2.16-.28-2.14-.2-2.17-.13-2.23-.04-2.28.02-2.32.1-2.34.18-2.4.25-2.47.32-2.58.41-2.69.49-2.77.58-2.84.65-2.86.73-2.9.8-2.97.87-3.06.93-3.14.99-3.17 1.05-3.09 1.1-2.95 1.17-2.83 1.23-2.83 1.29-2.94 1.33-3.13 1.35-3.2 1.34-3.05 1.33-2.79 1.41-2.7 1.71-3.32 2.14" filter="url(#a)"/><path d="m19.94-79.46-2.59-.88-1.82-.59-1.82-.51-2.06-.44-2.24-.37-2.3-.28-2.31-.2-2.3-.12-2.31-.05-2.32.02-2.33.1-2.32.16-2.33.24-2.38.32-2.5.39-2.65.48-2.81.56-2.91.65-2.94.72-2.93.79-2.86.85-2.8.92-2.78.97-2.81 1.03-2.97 1.08-3.18 1.13-3.33 1.22-3.21 1.27-2.96 1.24-3.03 1.03" filter="url(#a)"/><path d="m19.94-79.46-1.93-.88-2.09-.58-2.28-.52-2.27-.44-2.18-.36-2.13-.29-2.15-.2-2.27-.13-2.43-.05-2.59.02-2.72.09-2.82.16-2.92.24-3.04.3-3.21.39-3.42.47-3.65.56-3.84.64-4.03.71-4.28.78-4.68.85-5.24.91-5.81.97-6.07 1.02-5.8 1.05-5.21 1.09-5.1 1.26-6.86 1.69" filter="url(#a)"/><path d="m19.94-79.46-2.9-.88-2.28-.59-2.26-.52-2.25-.44-2.17-.36-2.07-.27-1.98-.2-1.92-.12-1.88-.04-1.85.03-1.82.11-1.79.18-1.76.25-1.73.33-1.71.42-1.71.5-1.69.58-1.67.66-1.67.74-1.67.81-1.67.87-1.69.93-1.68 1-1.67 1.05-1.62 1.12-1.53 1.17-1.4 1.23-1.23 1.29-1.06 1.32-.9 1.35-.8 1.38-.77 1.42-.81 1.53-.92 1.71-1.02 1.95-.89 2.1-.4 2.08" filter="url(#a)"/><path d="m19.94-79.46-2.7-.87-2.07-.59-2.04-.51-2.09-.45-2.1-.36-2.1-.29-2.12-.2-2.13-.13-2.19-.06-2.22.01-2.27.09-2.28.15-2.3.22-2.32.29-2.36.37-2.45.46-2.58.55-2.74.64-2.87.7-3 .76-3.15.82-3.36.91-3.44 1.01-3.03 1.05-1.65.85" filter="url(#a)"/><path d="m16.24-80.71-.6-.3-1.81-.46-2.29-.45-2.36-.36-2.28-.28-2.15-.2-2.08-.13-2.08-.06-2.13.01-2.2.09-2.27.15-2.35.21-2.48.28-2.66.36-2.9.45-3.13.54-3.28.64-3.26.7-3.18.72-3.23.76-3.65.88-4.56 1.24" filter="url(#a)"/><path d="m16.04-80.86.68-.42-2.05-.42-2.67-.35-2.69-.3-2.63-.23-2.62-.17-2.64-.1-2.65-.03-2.7.05-2.75.14-2.86.22-3.04.29-3.28.36-3.58.42-3.83.46-4 .51-4.02.57-3.91.63-3.83.72-3.99.82-4.63.9-5.6.96-5.99 1.02-4.54 1.17" filter="url(#a)"/><path d="m15.4-80.85-2.45-.61-2.36-.5-2.26-.37-2.12-.27-2-.19-1.9-.12-1.85-.05-1.83.02-1.82.1-1.78.16-1.73.22-1.7.3-1.67.37-1.66.46-1.65.56-1.61.64-1.52.7-1.41.76-1.34.82-1.38.91-1.5 1.01-1.4 1.04-.41.85" filter="url(#a)"/><path d="m10.88-81.94-.82-.21-1.58-.27-2.26-.23-2.5-.16-2.54-.09-2.54-.01-2.56.07-2.65.15-2.77.24-2.91.31-3.01.38-3.03.43-3.01.48-3.04.54-3.15.6-3.39.66-3.68.76-4.01.84-4.32.94-4.64 1.02-4.97 1.09-5.19 1.15-5.12 1.15-4.73 1.15-4.43 1.33-5.95 1.86" filter="url(#a)"/><path d="m9.81-82.33-1.56-.17-2.08-.19-1.99-.16-1.95-.11L.21-83l-2.1.03-2.16.11-2.18.18-2.18.24-2.21.31-2.27.38-2.37.48-2.48.57-2.52.65-2.48.71-2.38.78-2.31.84-2.29.91-2.33.97-2.38 1.01-2.41 1.01-2.55.98-2.5.97" filter="url(#a)"/><path d="m3.04-82.89-1.1-.15-1.89-.05-2.06.05-2.03.15-1.97.2-1.94.26-1.98.33-2.06.41-2.16.51-2.22.6-2.21.67-2.17.74-2.1.81-2.04.86-2 .93-1.97.98-1.96 1.04-1.97 1.09-2 1.15-2.06 1.22-2.13 1.29-2.18 1.37-2.15 1.43-1.93 1.41-1.04.83" filter="url(#a)"/></g><g fill="none" stroke="#000"><circle cx="9.378" cy="6.884" r="2.612" filter="url(#a)"/><circle cx="9.53" cy="5.9" r="1.946" filter="url(#a)"/><circle cx="6.87" cy="4.252" r="1.624" filter="url(#a)"/><circle cx="8.614" cy="4.244" r="2.86" filter="url(#a)"/><circle cx="9.97" cy="4.7" r="1.264" filter="url(#a)"/><circle cx="9.734" cy="5.62" r="2.966" filter="url(#a)"/><circle cx="7.87" cy="5.388" r="2.388" filter="url(#a)"/><circle cx="7.07" cy="3.984" r="1.146" filter="url(#a)"/><circle cx="9.658" cy="5.288" r="2.554" filter="url(#a)"/><circle cx="10.114" cy="7.072" r="1.69" filter="url(#a)"/><circle cx="-10.61" cy="6.74" r="2.344" filter="url(#a)"/><circle cx="-9.818" cy="7.108" r="2.738" filter="url(#a)"/><circle cx="-10.326" cy="5.476" r="1.686" filter="url(#a)"/><circle cx="-8.918" cy="7.248" r="2.334" filter="url(#a)"/><circle cx="-10.966" cy="6.86" r="2.168" filter="url(#a)"/><circle cx="-7.822" cy="6.328" r="2.586" filter="url(#a)"/><circle cx="-8.13" cy="6.556" r="1.532" filter="url(#a)"/><circle cx="-8.086" cy="7.34" r="2.914" filter="url(#a)"/><circle cx="-9.494" cy="6.196" r="1.372" filter="url(#a)"/><circle cx="-8.382" cy="5.524" r="2.682" filter="url(#a)"/></g><path fill="#D77F8C" stroke="#000" stroke-linejoin="round" stroke-width="3" d="m39.43 56.57.21.06-.03.1.08.26-.38 1.1.23-.62-.48 1.2-.36.24.48-.58-.75 1.14-.2.13-.38.48.07-.16-.5.41.22-.18-1.31 1.09.16-.02-.98.62.38-.27-.2.19-.74.5-2.07 1.04.06.07-1.19.53 1.31-.6-.81.4-1.23.53-1.73.76-.79.3-.69.28.67-.26-1.05.44.43-.21-3.31 1.2.34-.13-.78.26-2.08.62 1.57-.44-3.88 1.08 1.55-.4-2.44.64-.1.02-.71.2.45-.12-2.73.64-.26.06-1.27.27-1.39.29h-.04l-.7.13-2.4.43-1.74.27-.3.04 1.42-.21-1.51.22-3.12.41.52-.06-2.03.22.53-.05h-.04l-3.83.33h-.04l.99-.06-1.71.11-.52.02-1.71.07.33.01-3.1.02-1.24.01 1.18.03-1.9-.07.38.03-1.33-.04-.72-.05-2.11-.18 1.42.11-2.42-.21.8.04-1.36-.16-.73-.09-.98-.19-1.04-.19.31.01-.67-.19-.26-.04-1.27-.4.05-.02.33.09-1.69-.77.24.28-.77-.45.33.09-.63-.4-.21-.23.07.06-.64-.66-.22-.23-.16-.07.19-.05.02-.01-.28-.66-.2-.4.08-.29.01-.35-.09.43.1-.55.19-.21.32-.49.54-.86-.37.3.38-.4v-.01l.18-.21.54-.51.02-.09.6-.51.94-.63.37-.3-.45.3.78-.52 1.23-.79-.07.08 1.68-.9.26-.18-.43.25.72-.38 1.98-.88-.79.35 2.56-1.05-1.31.54 1.9-.76-.16.07.11-.07 2.42-.89.63-.19-.42.15 1.34-.44 1.53-.45-.72.19 1.91-.53 1.86-.52.83-.2 2-.48 1.33-.3.6-.13-.13.02 1.43-.28.77-.16-.84.17 2.28-.43.95-.16.23-.04 2.5-.39-.38.05 1.29-.18 1.54-.2-1.7.23 3.32-.42-1.02.13 4.24-.4-1.8.15 1.37-.13 1.24-.09 1.85-.08.6-.02-1 .03 1.97-.07 1.05-.04.86.03.65-.01 2.09.05.87.02-.99-.03 1.87.07-.09.02 1.69.14 1.08.14.11-.01 1.22.27.32.03-.8-.13.43.07 2.47.52.3.19.21-.03.71.36.38.02-.04.1 1.03.4-.62-.21.6.15.56.58.35.2-.45-.24.8.46.54.6-.1.03.1.51-.09-.15.2.67" filter="url(#a)"/></svg>