<svg xmlns="http://www.w3.org/2000/svg" width="500" height="500" viewBox="-100 -100 200 200"><defs><clipPath id="c"><path d="m24.94-8.66.1-1.18.05-1.14.01-1.1-.03-1.08-.07-1.03-.11-1-.14-.96-.19-.93-.22-.88-.26-.84-.29-.81-.33-.76-.36-.72-.4-.68-.43-.63-.39-.93-.43-.86-.49-.79-.53-.73-.58-.66-.62-.59-.66-.52-.7-.46-.74-.4-.78-.33-.81-.26-.84-.21-.87-.14-.9-.09-.92-.03-.95.02-.96.08-.98.12-.99.17-1 .21-1.02.26-1.01.29-1.03.33-1.02.37-1.02.39-1.02.42-1.01.45-1.01.48-.99.49-.99.52-.97.53-.96.55-.93.55-.93.57-.9.58-.88.59-.86.59-.84.59-.81.6-.79.6-.77.6-.74.6-.71.59-.69.6-.67.59-.64.59-.61.58-.59.58-.57.58-.54.57-.52.57-.5.57-.48.57-.46.56-.43.56-.41.55-.4.56-.37.55-.35.55-.33.54-.3.55-.29.54-.27.54-.25.54-.49 10.85.35.63.37.65.38.65.39.65.4.66.41.67.43.67.43.68.45.67.46.68.47.68.48.67.49.68.5.67.52.68.53.67.54.68.55.67.56.67.58.66.59.66.61.64.61.63.63.61.63.6.65.57.66.56.66.53.68.5.69.47.69.45.7.4.71.38.72.33.73.3.73.26.74.21.74.17.75.12.75.07.76.03.76-.03.77-.07.77-.13.77-.19.77-.23.78-.29.77-.35.78-.4.77-.46.78-.51.77-.57.78-.62.77-.68.76-.72.77-.79.76-.83.75-.88.75-.93.75-.98.73-1.02.73-1.07.72-1.1.71-1.15.6-.92.59-.95.59-.99.57-1.01.56-1.04.54-1.08.54-1.1.52-1.13.5-1.16.49-1.18.47-1.21.45-1.24L23.8-1l.41-1.29.39-1.3"/></clipPath><clipPath id="b"><path d="m-24.77-13.86-.1-.97-.07-.94-.02-.92.01-.89.05-.87.09-.84.12-.8.16-.78.2-.74.23-.71.27-.67.3-.64.33-.6.37-.56.4-.53.35-.82.39-.76.45-.69.49-.63.53-.57.58-.5.63-.44.66-.38.7-.31.74-.25.78-.19.8-.13.84-.07.86-.02.89.03.92.09.93.13.95.19.97.22.98.27.99.31 1 .34 1 .38 1.01.41 1 .45 1.01.46 1 .5.99.51.98.54.98.56.96.57.95.59.93.6.91.61.89.62.87.63.85.64.83.64.81.65.77.65.76.65.72.65.7.66.67.65.65.66.62.66.59.66.56.65.54.66.51.66.49.66.46.67.44.66.41.67.39.67.37.67.33.68.32.68.29.69.26.68.25.69.22.7.19.7.17.71 2.01 8.86-.38.74-.39.74-.4.75-.41.76-.42.76-.44.77-.44.76-.45.77-.46.77-.46.77-.48.76-.48.76-.49.76-.49.74-.51.75-.51.74-.53.74-.53.74-.54.72-.55.72-.56.69-.56.68-.57.66-.57.64-.58.61-.59.58-.58.55-.6.52-.59.48-.6.44-.6.41-.61.36-.6.31-.61.27-.62.22-.61.17-.62.12-.62.06-.62.01-.63-.04-.63-.09-.64-.16-.63-.21-.65-.26-.64-.32-.66-.38-.65-.44-.67-.48-.67-.55-.67-.59-.68-.65-.69-.7-.7-.75-.71-.8-.71-.84-.72-.89-.73-.93-.73-.96-.75-1.01-.75-1.04-.76-1.07-.76-1.09-.77-1.13-.77-1.14-.61-.95-.61-.97-.6-.99-.6-1.01-.59-1.02-.59-1.05-.58-1.06-.58-1.08-.56-1.09-.56-1.11L-20.8.3l-.53-1.13-.51-1.14-.5-1.14-.48-1.15"/></clipPath><filter id="a"><feTurbulence baseFrequency=".05" numOctaves="3" result="noise" type="noise"/><feDisplacementMap in="SourceGraphic" in2="noise" scale="2"/></filter></defs><rect width="100%" height="100%" x="-100" y="-100" fill="#F08080"/><path fill="#C8A2C8" stroke="#000" stroke-linejoin="round" stroke-width="1.667" d="m66.51 1-.2.86-.06.95-.12.64-.03 1.13.2 1.16-.19 3.42-.15-.13-.16 1.19-.03 2.5-.39.69.41-.37-.56 2.5-.21 2.08-.37 1.81-.16.89-.25 1.85-.34.78.1.41-.93 3.38.33-1.33-.84 4.25-.04.43-.26.42-.09 1-.82 1.59-.45 1.75-.59 1.5-.32 1.49-.66 1.08-.34 1.68-.6 1.62-.73.96.31.01-1.05 1.69-.51 1.1-.99 1.9.88-1.32-1.79 3.78-.64 1.19-.23.62-.82 1.09.29.09-1.46 2.31-1.11 1.17-.53 1.09-.48 1.01.71-1.25-2.66 3.45.32.04-1.46 2.02-.67.61.51-.29-2.14 2.42-.92 1.03.71-.81-1.41 1.62-1.78 1.94-.62.47-.1.2-.26.64-1.75 1.35-.19.3-.64.41-1.83 1.61-1.56 1.22.79-.34-1.21.54-1.9 1.72-1.3.67-1.1 1.13 1.16-1.07-2.22 1.64-.65.07-.78.69-1.37.82-1.13.69-1.14.37-.76.4.07.14-3.01 1.2 1.45-.58-2.77 1.16-1.22.07-.52.27-.83.63-.73-.15-2.91.96.68-.07-.51-.14-1.49.64-2.44.24.03.11-.76.01-.67.22-1.79.03-.49.14-1.21.23-2.1.1-.85-.22-.37.18H-.4l-.69.02-2.86-.39-1.72-.12 1.77.36-3.14-.44 1.49.13-2.7-.23-.93-.13-2.94-.89 2.2.57-1.84-.24-1.29-.37.25-.13-3.6-1.1.79.6-3.38-1.4.62.29-1.67-.61-.11-.19-2.53-1.09-.3-.35-.78-.09-1.29-.66-.23-.23-.56-.17-3.15-2.2.33.32.64.4-2.1-1.56-1.02-.66-1.29-.86-1.2-1.13 1.1 1.17-1.6-1.46-1.68-.92-.46-.79-.67-.73-.81-1.03-1.57-.87-.36-.5-.38-.36-.59-.44-.79-1.08-1.91-2.12-1.24-1.77-.57-.23.16-.16-2.08-2-.69-1.17-.26-.49-.05.35-1.42-2.21-.27-.81.29.83-1.44-2.37-.83-1.58-1.2-1.67.04-.22-.5-.88-.55-.89-.45-.73-.36-.77-1.67-3.03.55.53-1.26-2.56-.53-1.53-.77-1.65-.54-1.49-.27-.42-.1-.48-.79-1.69.22.31-1.17-3.88-.73-1.69-.18-.69-.33-1.93.18.33-.98-2.24.12-.34-.38-1.23-.22-1.31-.39-2.24-.09-.64.11.47-.79-3.41.02.19-.36-3.25-.02.16-.58-2.28.09.18-.04-3.3-.32-.46-.14-.22-.21-3.47-.07-1.35.27-1.03-.08.59-.33-3.56.3-2.03-.27-1.81.12-.07.18-.87.13-2.98-.1.1-.03-1.13.37-.97.12-2.28.04-.5.12-2.68.6-3.66.04.37.32-2.19-.61 1.62.92-3.22v-.01l.34-2.16-.15-.62.42-2.34.66-1.83-.07.03.92-3.27-.13.03.13-.07.75-1.94.93-3.18.62-1.65-.9 2.43.73-1.8 1.01-2.88-.31 1.03 1.3-3.88.93-1.96-.13.35.28-.75.18-.27 1.6-3.15-.11-.13.71-1.65 1.61-2.79.41-.64-.02.4.53-1.35.86-.99.74-1.17.73-1.12 1.37-2.05-.55.36.83-1.04.73-.72.76-1.51 1.17-1.16.86-.87.76-1.45.98-.56.05-.42 1.58-1.72-.18.62 2.76-2.73v-.03l1.35-1.6.25-.12.25-.45 1.35-.74.67-.76.71-.7 1.66-.86.78-.68-.07-.35 2.42-1.52-1.22.94 3.09-2 1.09-.55.12-.27-.47.28 3.17-1.64 1.8-.93-.32.09 1.49-.45-1.14.39 2.08-.91.82-.58 1.98-.51 1.04-.16.21-.16.81-.33.12-.3 1.13.17 2.17-.9 1.03-.21-.61.1.98-.1 4.34-.59-.4.15.75-.45 2.02.11.72.05.21-.35.61.05 2.56.19h1.47l-.3-.16 1.41.04-.01-.02 1.18.26 1.07-.12 3.35.75.79.16h-.15l.19.1 1.94.13 1.41.72.33-.18.16.19 1.99.36 1.73.84-.93-.28 1.49.16 1.03.68 2.17.97-.44-.12.52.16 2.81 1.11-.31.03.79.55 2.72 1.24.09.46.22.19.88.25 1.23.84 1.25.71 1.58 1.24.26.18 2.12 2.02.53.22-.71-.61 2.23 1.93.21.11 1.51 1.53.69.4-.88-.86 2.48 2.25.79.98-.04.33 2.1 2.31-.77-.75 1.01 1.05.86.67 1.09 1.14-.08.47 2.22 2.94.38.16.15.78 1.3 1.81 1.09 1.02.44 1.41.1-.24-.19-.04 2.27 3.53.26.49.43 1.11 1.04 2.08-.52-.84.84 1.3 1.33 3.02-.41-.84 1.37 2.72.14 1.08.37.26.87 2.65-.39-1.17.57 1.85 1.27 3.29.1.47.69 2.23.28.24.06 1.78.54.74.37 1.66.3 1.34v-.19l.65 2.9.24 1.49.07 1.31.42.55.14.49-.22.6.39 2.89.24 1.3.07.51.41 1.79.45 4.36-.47-2.68.41 3.68-.12.3.32.87-.14 3.36.31 2.72-.29-1.99.36 3.51-.2.86" filter="url(#a)"/><path fill="#fff" d="m-24.77-13.86-.1-.97-.07-.94-.02-.92.01-.89.05-.87.09-.84.12-.8.16-.78.2-.74.23-.71.27-.67.3-.64.33-.6.37-.56.4-.53.35-.82.39-.76.45-.69.49-.63.53-.57.58-.5.63-.44.66-.38.7-.31.74-.25.78-.19.8-.13.84-.07.86-.02.89.03.92.09.93.13.95.19.97.22.98.27.99.31 1 .34 1 .38 1.01.41 1 .45 1.01.46 1 .5.99.51.98.54.98.56.96.57.95.59.93.6.91.61.89.62.87.63.85.64.83.64.81.65.77.65.76.65.72.65.7.66.67.65.65.66.62.66.59.66.56.65.54.66.51.66.49.66.46.67.44.66.41.67.39.67.37.67.33.68.32.68.29.69.26.68.25.69.22.7.19.7.17.71 2.01 8.86-.38.74-.39.74-.4.75-.41.76-.42.76-.44.77-.44.76-.45.77-.46.77-.46.77-.48.76-.48.76-.49.76-.49.74-.51.75-.51.74-.53.74-.53.74-.54.72-.55.72-.56.69-.56.68-.57.66-.57.64-.58.61-.59.58-.58.55-.6.52-.59.48-.6.44-.6.41-.61.36-.6.31-.61.27-.62.22-.61.17-.62.12-.62.06-.62.01-.63-.04-.63-.09-.64-.16-.63-.21-.65-.26-.64-.32-.66-.38-.65-.44-.67-.48-.67-.55-.67-.59-.68-.65-.69-.7-.7-.75-.71-.8-.71-.84-.72-.89-.73-.93-.73-.96-.75-1.01-.75-1.04-.76-1.07-.76-1.09-.77-1.13-.77-1.14-.61-.95-.61-.97-.6-.99-.6-1.01-.59-1.02-.59-1.05-.58-1.06-.58-1.08-.56-1.09-.56-1.11L-20.8.3l-.53-1.13-.51-1.14-.5-1.14-.48-1.15" filter="url(#a)" transform="translate(34.09 -24.17)"/><path fill="#fff" d="m24.94-8.66.1-1.18.05-1.14.01-1.1-.03-1.08-.07-1.03-.11-1-.14-.96-.19-.93-.22-.88-.26-.84-.29-.81-.33-.76-.36-.72-.4-.68-.43-.63-.39-.93-.43-.86-.49-.79-.53-.73-.58-.66-.62-.59-.66-.52-.7-.46-.74-.4-.78-.33-.81-.26-.84-.21-.87-.14-.9-.09-.92-.03-.95.02-.96.08-.98.12-.99.17-1 .21-1.02.26-1.01.29-1.03.33-1.02.37-1.02.39-1.02.42-1.01.45-1.01.48-.99.49-.99.52-.97.53-.96.55-.93.55-.93.57-.9.58-.88.59-.86.59-.84.59-.81.6-.79.6-.77.6-.74.6-.71.59-.69.6-.67.59-.64.59-.61.58-.59.58-.57.58-.54.57-.52.57-.5.57-.48.57-.46.56-.43.56-.41.55-.4.56-.37.55-.35.55-.33.54-.3.55-.29.54-.27.54-.25.54-.49 10.85.35.63.37.65.38.65.39.65.4.66.41.67.43.67.43.68.45.67.46.68.47.68.48.67.49.68.5.67.52.68.53.67.54.68.55.67.56.67.58.66.59.66.61.64.61.63.63.61.63.6.65.57.66.56.66.53.68.5.69.47.69.45.7.4.71.38.72.33.73.3.73.26.74.21.74.17.75.12.75.07.76.03.76-.03.77-.07.77-.13.77-.19.77-.23.78-.29.77-.35.78-.4.77-.46.78-.51.77-.57.78-.62.77-.68.76-.72.77-.79.76-.83.75-.88.75-.93.75-.98.73-1.02.73-1.07.72-1.1.71-1.15.6-.92.59-.95.59-.99.57-1.01.56-1.04.54-1.08.54-1.1.52-1.13.5-1.16.49-1.18.47-1.21.45-1.24L23.8-1l.41-1.29.39-1.3" filter="url(#a)" transform="translate(-31.38 -26.77)"/><g fill="none" stroke="#000" transform="translate(34.09 -24.17)"><path stroke-linejoin="round" stroke-width="1.667" d="m-21.52-3.53-.5-1.04-.47-1.05-.42-1.06-.39-1.05-.34-1.05-.31-1.04-.26-1.03-.23-1.02-.18-1-.15-.99-.1-.97-.07-.94-.02-.92.01-.89.05-.87.09-.84.12-.8.16-.78.2-.74.23-.71.27-.67.3-.64.33-.6.37-.56.4-.53.35-.82.39-.76.45-.69.49-.63.53-.57.58-.5.63-.44.66-.38.7-.31.74-.25.78-.19.8-.13.84-.07.86-.02.89.03.92.09.93.13.95.19.97.22.98.27.99.31 1 .34 1 .38 1.01.41 1 .45 1.01.46 1 .5.99.51.98.54.98.56.96.57.95.59.93.6.91.61.89.62.87.63.85.64.83.64.81.65.77.65.76.65.72.65.7.66.67.65.65.66.62.66.59.66.56.65.54.66.51.66.49.66.46.67.44.66.41.67.39.67.37.67.33.68.32.68.29.69.26.68.25.69.22.7.19.7.17.71.15.7.13.72.11.72.08.72.07.73.04.74.02.74.01.74-.02.75-.03.76" filter="url(#a)"/><path stroke-linejoin="round" stroke-width="2.222" d="m-26.16-15.85.18 1.14.22 1.15.26 1.16.29 1.16.33 1.16.36 1.17.39 1.16.41 1.17.44 1.16.46 1.16.48 1.15.5 1.14.51 1.14.53 1.13.54 1.11.56 1.11.56 1.09.58 1.08.58 1.06.59 1.05.59 1.02.6 1.01.6.99.61.97.61.95.77 1.14.77 1.13.76 1.09.76 1.07.75 1.04.75 1.01.73.96.73.93.72.89.71.84.71.8.7.75.69.7.68.65.67.59.67.55.67.48.65.44.66.38.64.32.65.26.63.21.64.16.63.09.63.04.62-.01.62-.06.62-.12.61-.17.62-.22.61-.27.6-.31.61-.36.6-.41.6-.44.59-.48.6-.52.58-.55.59-.58.58-.61.57-.64.57-.66.56-.68.56-.69.55-.72.54-.72.53-.74.53-.74.51-.74.51-.75.49-.74.49-.76.48-.76.48-.76.46-.77.46-.77.45-.77.44-.76.44-.77.42-.76.41-.76.4-.75.39-.74.38-.74.38-.73.35-.72.35-.71.34-.7.33-.69.31-.69.31-.67.29-.65.28-.65.27-.64" filter="url(#a)"/><circle cx="1.881" cy="17.215" r="3.916" clip-path="url(#b)" filter="url(#a)"/><circle cx=".831" cy="16.405" r="3.954" clip-path="url(#b)" filter="url(#a)"/><circle cx="-1.599" cy="12.68" r="4.166" clip-path="url(#b)" filter="url(#a)"/><circle cx=".746" cy="16.645" r="3.53" clip-path="url(#b)" filter="url(#a)"/><circle cx="-1.189" cy="16.925" r="4.344" clip-path="url(#b)" filter="url(#a)"/><circle cx="-1.169" cy="16.555" r="3.316" clip-path="url(#b)" filter="url(#a)"/><circle cx="-2.269" cy="13.455" r="3.584" clip-path="url(#b)" filter="url(#a)"/><circle cx=".376" cy="16.25" r="4.078" clip-path="url(#b)" filter="url(#a)"/><circle cx="-2.314" cy="16.03" r="4.758" clip-path="url(#b)" filter="url(#a)"/><circle cx=".061" cy="12.9" r="3.246" clip-path="url(#b)" filter="url(#a)"/></g><g fill="none" stroke="#000" transform="translate(-31.38 -26.77)"><path stroke-linejoin="round" stroke-width="2.222" d="m21.61 4.36.53-1.37.49-1.37.44-1.35.4-1.34.35-1.32.31-1.3.27-1.28.22-1.26.18-1.23.14-1.2.1-1.18.05-1.14.01-1.1-.03-1.08-.07-1.03-.11-1-.14-.96-.19-.93-.22-.88-.26-.84-.29-.81-.33-.76-.36-.72-.4-.68-.43-.63-.39-.93-.43-.86-.49-.79-.53-.73-.58-.66-.62-.59-.66-.52-.7-.46-.74-.4-.78-.33-.81-.26-.84-.21-.87-.14-.9-.09-.92-.03-.95.02-.96.08-.98.12-.99.17-1 .21-1.02.26-1.01.29-1.03.33-1.02.37-1.02.39-1.02.42-1.01.45-1.01.48-.99.49-.99.52-.97.53-.96.55-.93.55-.93.57-.9.58-.88.59-.86.59-.84.59-.81.6-.79.6-.77.6-.74.6-.71.59-.69.6-.67.59-.64.59-.61.58-.59.58-.57.58-.54.57-.52.57-.5.57-.48.57-.46.56-.43.56-.41.55-.4.56-.37.55-.35.55-.33.54-.3.55-.29.54-.27.54-.25.54-.24.54-.21.53-.2.54-.17.53-.16.53-.15.53-.13.53-.11.53-.1.53-.08.53" filter="url(#a)"/><path stroke-linejoin="round" stroke-width="2.222" d="m26.91-17.55-.08 1.45-.12 1.45-.15 1.43-.19 1.42-.23 1.41-.25 1.4-.28 1.37-.31 1.37-.34 1.34-.36 1.32-.39 1.3L23.8-1 23.37.25l-.45 1.24-.47 1.21-.49 1.18-.5 1.16-.52 1.13-.54 1.1-.54 1.08-.56 1.04-.57 1.01-.59.99-.59.95-.6.92-.71 1.15-.72 1.1-.73 1.07-.73 1.02-.75.98-.75.93-.75.88-.76.83-.77.79-.76.72-.77.68-.78.62-.77.57-.78.51-.77.46-.78.4-.77.35-.78.29-.77.23-.77.19-.77.13-.77.07-.76.03-.76-.03-.75-.07-.75-.12-.74-.17-.74-.21-.73-.26-.73-.3-.72-.33-.71-.38-.7-.4-.69-.45-.69-.47-.68-.5-.66-.53-.66-.56-.65-.57-.63-.6-.63-.61-.61-.63-.61-.64-.59-.66-.58-.66-.56-.67-.55-.67-.54-.68-.53-.67-.52-.68-.5-.67-.49-.68-.48-.67-.47-.68-.46-.68-.45-.67-.43-.68-.43-.67-.41-.67-.4-.66-.39-.65-.38-.65-.37-.65-.35-.63-.34-.63-.33-.62-.32-.61-.31-.6-.3-.6-.28-.58-.27-.57-.27-.57-.25-.55-.24-.54" filter="url(#a)"/><circle cx="-5.951" cy="3.457" r="3.746" clip-path="url(#c)" filter="url(#a)"/><circle cx="-7.046" cy="1.557" r="3.858" clip-path="url(#c)" filter="url(#a)"/><circle cx="-4.281" cy="-.198" r="3.064" clip-path="url(#c)" filter="url(#a)"/><circle cx="-7.026" cy="-.038" r="3.708" clip-path="url(#c)" filter="url(#a)"/><circle cx="-3.836" cy="3.397" r="3.658" clip-path="url(#c)" filter="url(#a)"/><circle cx="-3.311" cy=".297" r="3.092" clip-path="url(#c)" filter="url(#a)"/><circle cx="-4.426" cy="2.032" r="3.838" clip-path="url(#c)" filter="url(#a)"/><circle cx="-4.626" cy=".467" r="3.45" clip-path="url(#c)" filter="url(#a)"/><circle cx="-3.091" cy="3.527" r="4.992" clip-path="url(#c)" filter="url(#a)"/><circle cx="-5.341" cy="2.397" r="3.684" clip-path="url(#c)" filter="url(#a)"/></g><g fill="none" stroke="#91553D" stroke-linejoin="round" stroke-width="2"><path d="m13.29-86.37.19.02.1.34-.17.58-.7.75-1.29.9-1.88 1.09-2.47 1.29-3.11 1.5-3.82 1.71-4.57 1.95-5.36 2.22-6.18 2.49-7 2.75-7.82 2.93-8.56 2.94" filter="url(#a)"/><path d="m35.51-74.55.01.1.4.63.17.63-.22.54-.61.44-1 .42-1.36.43-1.77.41-2.21.38-2.7.29-3.18.2-3.68.13-4.18.08-4.69.06-5.23.02-5.79-.02-6.38-.14-6.95-.3-7.52-.48-8.13-.56m23.58-16.54 1.09-.24 1.32-.06 1.3-.01 1.32.01 1.41.04 1.43.05 1.36.06 1.19.05.98.05.82.05.65.04.43.03v-.03l-.68-.11-1.4-.2m8 1.73.36-.04.6.17.64.25.46.27.23.25v.26l-.24.26-.49.27-.79.26-1.11.24-1.45.22-1.79.2-2.19.19-2.65.16-3.2.13-3.78.11-4.32.06-4.73.01-5.04-.13" filter="url(#a)"/><path d="m-1.62-88.42 1.98.11 1.29.03h.92l.77.02.72.04.72.07.67.1.48.1.11.09-.38.04-.93-.01-1.41-.04-1.8-.07-2.11-.07m42.38 19.52.97 1.25-.1.43-.61.23-1.06.18-1.6.13-2.2.04-2.85-.14-3.54-.38-4.27-.66-5.07-.95-5.95-1.24-6.91-1.52-7.84-1.84-8.6-2.17-9.24-2.5" filter="url(#a)"/><path d="m46-63.6 1.37 1.88.42.97-.04.69-.41.52-.82.3-1.26.07-1.69-.14-2.11-.29-2.55-.44-3.03-.63-3.56-.85-4.12-1.11-4.67-1.4-5.2-1.67-5.72-1.94-6.29-2.2-7.02-2.42-7.91-2.61-8.78-2.85" filter="url(#a)"/><path d="m57.14-45.07.1.22.43 1.03.43 1.05.35.9.27.78.21.69.14.6.07.46-.05.25-.19-.05-.38-.41-.57-.8-.77-1.22-.99-1.65-1.21-2.09-1.45-2.53-1.69-2.97-1.91-3.4-2.11-3.82-2.17-4.13m-65.2-22.25 1.18-.48 1.43-.33 1.4-.22 1.37-.15 1.46-.13 1.61-.11 1.77-.1 1.9-.09 1.99-.07 2.04-.05 2.07-.04 2.05-.03 1.98-.02 1.88-.01 1.72-.01h4.21l1.11-.01.91-.01.59-.07.2-.12m7.94 2.83.1.09.88.46 1.2.65 1.3.78 1.31.84 1.3.87 1.26.85 1.22.85 1.2.84 1.2.84 1.18.85 1.11.82 1 .74.85.63.67.49.49.35.31.21.13.08-.05-.06-.29-.26-.52-.45-.68-.57-.69-.53m6.09 5.44.32.72.22.73-.13.56-.45.51-.75.53-1.06.58-1.43.6-1.84.58-2.29.51-2.76.4-3.26.28-3.77.13-4.29.01-4.81-.1-5.35-.17-5.91-.2-6.51-.23-7.14-.31-7.76-.46-8.33-.65-8.85-.87" filter="url(#a)"/><path d="m27.44-80.2.48.27.88.49 1.09.67 1.13.77 1.09.79.97.74.81.65.62.51.44.37.25.23.06.1-.15-.04-.36-.18-.58-.34-.82-.5-1.12-.69-1.46-.93-1.85-1.2-2.28-1.5-2.79-1.81M9.94-87.22l1.43.27.66.35.09.38-.3.47-.7.57-1.15.68-1.65.78-2.16.91-2.69 1.03-3.25 1.15-3.85 1.27-4.5 1.42-5.23 1.61-6.03 1.83-6.89 2.04-7.71 2.19" filter="url(#a)"/><path d="m2.11-88.39 1.18.21 1.43.58 2.01.93 2.54 1.25 2.84 1.52 2.98 1.74 3.06 1.91 3.17 2.05 3.3 2.15 3.41 2.25 3.52 2.34L35.16-69l3.68 2.57 3.63 2.55 3.35 2.32" filter="url(#a)"/><path d="m55.49-48.55-.07-.07.33.74.33.84.18.67-.02.41-.22.11-.45-.2-.69-.52-.91-.83-1.16-1.14-1.45-1.5-1.78-1.95-2.16-2.47-2.58-3.04-2.99-3.62-3.34-4.13-3.6-4.6-3.74-5.1" filter="url(#a)"/><path d="m51.68-55.72.46.9.83 1.43.69 1.26.5.99.35.78.24.6.15.48.05.34-.07.18-.22-.03-.39-.28-.58-.58-.78-.88-.99-1.2-1.21-1.5-1.41-1.8-1.65-2.15-1.92-2.57-2.25-3.08-2.61-3.63-2.85-4.08" filter="url(#a)"/><path d="m41.04-69.8.51.8.29.7.05.55-.24.38-.52.26-.78.22-1.09.18-1.41.11-1.79.01-2.19-.14-2.63-.34-3.1-.55-3.62-.79-4.16-1-4.72-1.22-5.24-1.42-5.69-1.61-6.1-1.86-6.57-2.17-7.21-2.43m12.01-8.05.61-.05.75-.07 1.02-.02h2.12l.89.02.78.03.71.05.67.09.58.11.44.13.23.13-.02.12-.3.12-.59.12-.89.12-1.21.13-1.52.14-1.83.13-2.14.15-2.5.16-2.93.16-3.25.15" filter="url(#a)"/><path d="m-18.73-84.99 1.54-.38 1.04-.27.81-.25.77-.25.81-.24.86-.25.86-.22.81-.19.74-.15.65-.09.53-.04.35.01.11.08-.18.15-.49.23-.8.32-1.07.4-1.31.46-1.56.51-1.89.58-2.42.74-3.31 1.1M15.77-86l.84.51.24.34.11.48-.08.64-.39.75-.75.85-1.14.96-1.53 1.09-1.95 1.24-2.4 1.38-2.88 1.53-3.39 1.64-3.91 1.75-4.41 1.88-4.94 2.05-5.48 2.25-6.07 2.46-6.72 2.64-7.33 2.73-7.89 2.64" filter="url(#a)"/><path d="m9.9-87.32.21.12.93.34 1.37.52 1.55.64 1.64.72 1.7.81 1.78.87 1.8.92 1.81.94 1.79.94 1.74.91 1.67.88 1.57.84 1.44.79 1.28.7 1.06.57.78.38.58.27m.91.61.04.09.49.58.3.56-.03.41-.4.28-.73.2-1.07.14-1.43.08-1.83-.03-2.27-.19-2.71-.36-3.17-.54-3.62-.68-4.13-.8-4.7-.91-5.31-1.04-5.93-1.22-6.46-1.49-6.87-1.85m-11.84.08.63-.31 1.42-.71 1.25-.63.94-.46.76-.35.71-.3.71-.3.69-.26.6-.21.45-.13.25-.02.04.08-.15.17-.33.28-.52.39-.74.51-.98.65-1.22.79-1.51.94-1.85 1.11-2.25 1.29-2.68 1.47-3.11 1.66" filter="url(#a)"/><path d="m21.34-83.59 1.82.81 1.2.7 1.2.79 1.24.85 1.23.88 1.23.9 1.25.91 1.28.96 1.3.97 1.26.97 1.18.92 1.06.84.92.75.79.64.66.53.52.4.35.23.17.07-.03-.11-.21-.23-.37-.33-.57-.47-.84-.74m16.47 21.72.39 1.05-.24.34-.6.17-1.03-.06-1.58-.4-2.16-.83-2.78-1.32-3.44-1.81-4.11-2.33-4.83-2.8-5.6-3.27-6.44-3.75-7.29-4.31-8.05-5-8.6-5.78m-29.68 3.24.64-.56 1.22-.62 1.51-.62 1.72-.64 1.86-.63 1.97-.61 2.09-.59 2.19-.59 2.24-.55 2.23-.51 2.21-.47 2.18-.44 2.19-.42 2.19-.42 2.14-.4 2.04-.38 1.89-.34 1.72-.32 1.61-.28 1.63-.23 1.73-.2m-10.05-.81.46-.19.97-.03 1.08.01.9.02.6.02.34.05.13.08-.06.13-.28.18-.6.22-1.02.24-1.54.26-2.06.27-2.51.29-2.87.31-3.23.31" filter="url(#a)"/><path d="m-32.37-76.81.85-.56 1.39-.49 1.96-.4 2.45-.34 2.85-.28 3.17-.21 3.46-.14 3.74-.07 4.01-.01 4.21.07 4.34.16 4.41.24 4.5.29 4.63.33 4.78.35 4.82.32 4.68.22m10.68 5.28 1.79 1.74 1.17 1.32.94 1.15.85 1.05.79.94.73.84.68.78.59.68.44.54.24.32v.03l-.29-.3-.55-.6-.82-.94-1.17-1.4M58.1-43.19l.21.87.28.81.24.76.2.75.15.74.08.67-.05.47-.2.19-.38-.13-.57-.46-.75-.78-.94-1.09-1.14-1.4-1.33-1.73-1.56-2.09-1.77-2.47-2.02-2.91-2.27-3.37-2.56-3.88-2.9-4.38-3.27-4.89-3.67-5.42m-45.15-14.25.79-.05 1.23.11 1.94.17 2.4.24 2.58.34 2.67.45 2.73.56 2.8.63 2.88.7 2.96.74 3.01.78 3 .79 2.88.75 2.67.67 2.43.55 2.18.45" filter="url(#a)"/><path d="m3.52-88.35.32.08.75.23.84.36.6.46.18.53-.25.63-.63.72-.95.84-1.28.97-1.61 1.11-1.98 1.27-2.38 1.44-2.79 1.62-3.23 1.8-3.66 1.96-4.08 2.14-4.53 2.3-5.02 2.49-5.56 2.74-6.14 3.01-6.77 3.25" filter="url(#a)"/><path d="m48.6-60.5.3.91.21.84-.26.51-.84.11-1.37-.18-1.89-.38-2.41-.59-2.98-.84-3.6-1.18-4.28-1.56-4.97-1.96-5.62-2.35-6.26-2.72-6.91-3.12-7.69-3.55-8.69-4.01" filter="url(#a)"/><path d="m-37.26-73.18.57-.24 1.29-.45 1.93-.59 2.45-.65 2.87-.69 3.22-.69 3.5-.7 3.74-.69 3.99-.66 4.23-.64 4.42-.62 4.55-.59 4.58-.59 4.58-.6 4.59-.61 4.52-.62" filter="url(#a)"/><path d="m39.44-71.19.06.06.67.75.55.77.27.58-.01.36-.28.16-.52-.01-.76-.14-1.02-.26-1.33-.4-1.69-.59-2.12-.82-2.58-1.11-3.04-1.41-3.47-1.72-3.88-2.04-4.34-2.37-4.87-2.67-5.67-2.96" filter="url(#a)"/><path d="m-21.63-83.5 1.85-.65 1.93-.3 2.12.01 2.26.26 2.43.45 2.67.59 2.96.72 3.25.8 3.5.87 3.71.94 3.88 1 4 1.05 4.12 1.1 4.17 1.19 4.18 1.27 4.16 1.37 4.11 1.39 4 1.29M17.5-85.16l-.03-.01.97.43 1.35.68 1.45.8 1.48.84 1.52.89 1.54.91 1.55.93 1.48.9 1.38.86 1.23.77 1.07.68.88.57.69.42.47.27.27.15.16.14m8.93 8.75-.25-.19.2.36.2.56.03.62-.2.63-.48.54-.8.42-1.13.25-1.5.06-1.88-.13-2.26-.32-2.65-.5-3.07-.64-3.48-.79-3.91-.94-4.36-1.13-4.79-1.36-5.23-1.62-5.71-1.83-6.3-1.98-7.05-2.05-7.77-2.2" filter="url(#a)"/><path d="M.94-88.23h.83l.29.08.05.21-.09.37-.23.52-.46.69-.81.85-1.33.99-1.9 1.16-2.48 1.34-3.04 1.54-3.59 1.73-4.14 1.93-4.72 2.14-5.34 2.4-6.02 2.69-6.83 3" filter="url(#a)"/><path d="m-1.62-88.42 2 .12 1.31.03 1 .03.95.05 1.02.1 1.12.13 1.17.17 1.09.17.91.15.68.13.42.08.15.05-.13-.01-.44-.04-.75-.09-1-.12-1.23-.14-1.47-.17-1.81-.2M15.77-86l.94.47.54.22.6.25.59.29.43.27.22.23-.02.17-.27.12-.54.07-.9.02-1.31-.08-1.76-.19-2.24-.31-2.69-.45-3.16-.55-3.65-.65-4.04-.79m-13.2.76.54-.21 1.06-.25 1.15-.28 1.09-.25 1.07-.21 1.08-.18 1.02-.15.92-.11.73-.08.54-.03.33.03.15.07-.03.12-.23.16-.47.22-.76.27-1.08.34-1.4.42-1.66.48-1.87.54-2.06.55-2.34.55-2.83.62" filter="url(#a)"/><path d="m18.06-85.28 1.18.67 1.04.53.89.41.86.4.85.41.8.41.7.4.53.34.36.27.16.19-.02.11-.21.05-.42-.03-.67-.12-.96-.24-1.3-.38-1.64-.57-2-.75-2.41-.94-2.98-1.14-3.8-1.37m45 34.89.47 1.12.35.85.24.64.17.57.08.48-.08.31-.26.06-.49-.24-.73-.55-.97-.89-1.24-1.23-1.53-1.57-1.84-1.95L46-56.52l-2.54-2.86-2.88-3.36-3.18-3.86-3.49-4.37-4-5" filter="url(#a)"/><path d="m20.82-83.75.87.38.73.51.29.54-.14.55-.58.56-1.07.54-1.57.53-2.06.53-2.55.59-3.07.63-3.63.68-4.27.7-4.98.69-5.73.66-6.5.63-7.23.62-7.91.61M48.6-60.5l.32.97.25 1.02-.19.78-.7.55-1.16.41-1.58.35-2.01.32-2.46.22-2.99.09-3.53-.09-4.07-.27-4.62-.42-5.15-.57-5.71-.71-6.31-.86-6.95-.99-7.66-1.14-8.36-1.3-9.04-1.5-9.6-1.7" filter="url(#a)"/><path d="m51.68-55.72.41.83.7 1.27.47.99.17.62-.09.27-.32-.02-.54-.3-.81-.58-1.1-.91-1.44-1.3-1.8-1.72-2.16-2.19-2.53-2.65-2.92-3.15-3.37-3.67-3.87-4.22-4.23-4.79" filter="url(#a)"/><path d="m38.56-72.05 1.46 1.66.17 1.07-.74.8-1.52.61-2.25.47-2.97.38-3.69.36-4.46.38-5.28.41-6.19.4-7.14.33-8.11.21-9.07.06-10.04-.1-11.08-.2m75.47-1.72.96.98.98 1.1 1 1.29 1.03 1.43 1.02 1.48.97 1.41.88 1.29.75 1.09.58.82.37.52.17.23v-.01l-.15-.24-.41-.62-.92-1.31" filter="url(#a)"/><path d="m24.63-81.9 1.59.92.37.64-.15.58-.47.69-.75.84-1.12.99-1.57 1.1-2.11 1.19-2.69 1.26-3.29 1.3-3.89 1.37-4.47 1.44-5.05 1.51-5.64 1.61-6.27 1.71-6.95 1.85-7.63 2.05-8.35 2.24-9.07 2.37" filter="url(#a)"/><path d="m41.79-68.49.95 1.31-.15.6-.69.54-1.18.64-1.71.75-2.31.8-2.95.81-3.65.76-4.38.69-5.14.61-5.94.53-6.76.46-7.6.4-8.4.36-9.15.3-9.87.18-10.69.04M3.51-88.37l1.25.19 1.54.22 1.45.24 1.16.22.9.18.75.16.65.15.53.14.36.12.17.09-.03.07-.26.05-.48.02-.75-.01-1.07-.05-1.43-.09-1.82-.15-2.17-.22-2.49-.29-2.97-.38" filter="url(#a)"/><path d="m27.35-80.66.04.38.03.41-.03.57-.2.74-.5.89-.89.99-1.37 1.04-1.89 1.07-2.42 1.1-2.95 1.14-3.49 1.21-4.01 1.29-4.54 1.36-5.09 1.42-5.64 1.51-6.2 1.62-6.82 1.78-7.49 1.95-8.18 2.06-8.86 2.14" filter="url(#a)"/><path d="m-37.26-73.18.62-.18 1.45-.27 2.19-.3 2.81-.27 3.35-.21 3.81-.13 4.23-.05 4.61.04 4.98.12 5.33.22 5.67.33 5.94.42 6.16.51 6.33.52 6.45.44 6.35.23m11.11 5.88.5.72-.19.83-.86.91-1.58.86-2.38.74-3.24.62-4.1.48-5.01.33-5.95.18-6.89.04-7.84-.02-8.81-.02-9.83-.02-10.93-.08L-35-60.5M3.51-88.37l1.16.19 1.28.25 1.01.3.53.31.09.32-.26.37-.55.43-.85.49-1.17.58-1.55.66-1.94.75-2.36.84-2.81.94-3.28 1.05-3.78 1.16-4.3 1.27-4.83 1.34-5.33 1.39-5.74 1.35" filter="url(#a)"/><path d="m-2.23-88.47 1.14.08 1.42.07 1.19.03.97.01.87.04.85.06.88.09.85.12.77.13.58.13.36.11.11.1-.15.08-.38.07-.63.06-.89.05-1.18.04-1.53.04-1.95.02-2.45.02-2.96.02-3.2-.03m13.32-1.1 2.35.54 1.36.37 1.08.33 1.17.37 1.3.42 1.37.44 1.37.45 1.31.44 1.24.43 1.15.41 1.02.37.88.32.69.24.45.13.16.02-.15-.11-.44-.2-.57-.24m36.6 40.31L34.49-67.96 20.26-78.27l-6.25-3.55-1.76-.89.05.14.5.61.64.96 1.13 1.38 1.92 1.97 2.4 2.59 1.97 2.91.65 2.61-.88 1.58-1.86.05-1.92-1.36-1.2-1.92-.03-1.06 1.18 1.04 1.99 3.4 2.23 4.41 2.9 2.93 5.37-.93 5.26-6.5-10.4-14.58" filter="url(#a)"/><path d="M62-32.29 32.48-63.26l-13.36-5.5-6.05 1.43-3.14.79-2.51-1.02-2.45-1.9-2.64-1.97-2.99-1.68-2.76-1.37-1.27-1.13 1.32-1.01 3.8-.9 4.85-.73 4.34-.46 3.49-.09 3.9.7 5.48 2.27 4.86 4.08-5.63 2.06-41.27-14.72" filter="url(#a)"/><path d="M46.08-64.07 6.11-77.03l-9.19-3.41L.8-78.8l4.93 3.56-.07 2.92-5.9 1.68-9.13 1.07-8.43 1.1-4.49 1.24.82 1.2 5.28.76 7.18-.31 5.7-2.1 1.24-3.73-4.72-3.53-10.22-.38-13.29 3.99-10.99 4.7.1-2.81" filter="url(#a)"/><path d="m-37.01-73.3 26.25-4.2 10.75.65 2.23-.47 1.55-.04 2.98 1.3 3.82 1.74 3.34 1.03 2.04.12.58-.17-.65.12-1.71.33-2.88.05-4.27-.62-5.64-1.15-6.36-1.24-5.76-1.1-3.71-1.2-1.4-1.46-2.02-.12-10.01 6.11-24.71 19.95" filter="url(#a)"/><path d="m27.66-80.01-36.28 1.74-9.15 2.32 7.34 1.91L.94-72.08l8.11 1.44 3.62.8.83.6-.13.67-.09.51.24-.1.35-.77-.05-.95-.89-.43-1.72.33-2.12.43-2.37-.55-3.5-1.83-5.93-1.74-6.59.78 5.1 4.27L46-63.6" filter="url(#a)"/><path d="M-19.55-84.41 6.26-65.59l-7.57-1.8-4.05-4.39 4.06-2.39 8.77.08 9.22 2.24 7.04 3.9 4.4 4.72 2.64 4.45 1.95 3.12 1.56 1.18.58-.78-1.18-2.15L30.7-60l-3.43-2.09-1.47-.8 2.64 1.18 7.08 3.46 9.16 5.21 7.33 5.17 2.21 2.18-5.58-6.03-21.29-28.94" filter="url(#a)"/><path d="m51.58-55.48-16.6-15.31-4.43-1.66-4.91.65-3.56 1.15.33 1.54 2.9.9 2.5-.56.21-1.67-2.51-1.76-4.92-1.08-6.78-.33-7.43.24-5.74.97-.47 2.46 8.54 4.95 17.91 7.25 16.92 3.94-8.03-20.75" filter="url(#a)"/><path d="m-37.26-73.18 50.47 6.43 8.63-2.34-.56-3.08.89-.05.73 2.35-2.53 2.67-5.7 1.64-6.06.42L5-65.55l-.26-.97 1.92-1.43 2.21-1.7 1.35-1.34.66-.06 1.09 1.92 2.71 3.85 4.76 4.81 5.83 4.28 4.4 2.42h.17l-3.92-2.28-5.03-5.94-26.07-26.29" filter="url(#a)"/><path d="m54.97-49.39-18.6-16.52-17.67-5.56-10.07-1.31-2.83-.57 1.06-.52 1.44-.63-.72-1.01-3.61-1.29-5.06-.68-3.63 1.15.49 3.64 5.05 5.48 6.11 4.97.8 1.1-6.87-5.19-1.19-8.89 32.93-1.75" filter="url(#a)"/><path d="m3.51-88.37 13.57 16.66-8.71-.84-8.35-2.38-6.98-.6-5.95.51-3.85.14-.7-1.13 2.19-2.3 3.66-2.72 3.44-2.35 2.09-1.52.52-.61-.31.28.32 1.28 2.73 2.67 6.32 4.52 9.5 6.4 9.99 7.11 6.69 5.3 2.21 1.19 1.78-3.64-9.04-21.5" filter="url(#a)"/><path d="m-26.16-81.24 7.79-1.93L-8-81.36l9.09 3.23 3.21 3.08-1.22 3.32-1.91 4.12-.33 4.44 1.37 3.55 2.22 1.68 2.39-.31 2.38-1.56 2.28-1.72 1.62-1.1-.14-.42-3.08-.39-6.34-1.22-8.05-2.44-6.09-3.15.36-2.46 9.26.55 18.38 8.88 44.66 32.77" filter="url(#a)"/><path d="m-43.8-66.74 20.39-11.93 2.27-1.55 2.94 1.24 7.88.77 9.83-.34 7.9-.66 4.3-.05.63.72-2.92.92-5.84.58-5.93.24-.86.03 6.91-.8 5.37-2.6-23.64-6.28m60.65 22.38-16.92-5.65 3.86 5.94.96 1.45-2.38-2.4-2.93-2.58-2.21-1.09-1.15.38-.28 1.26-.16 1.51-1.11 1.14-2.62.33-3.45-.28-2.56.11.25 1.77 3.94 4 6.11 5.3 3.08 4.26-7.26-.18-15.42-9.28 21.83-21.93" filter="url(#a)"/><path d="M55.49-48.55 13.51-70.4l-8.45-8.3.47-1.03 2.83 2.2 1.47 2.92-.74 2.87-1.08 2.67.71 1.99 2.79.52 3.23-1.31 1.33-2.68-1.82-3-4.08-2.18-3.3-.61.73 1.12 5.14 2.28 4.72 2.47-5.73 1.32-42.19-9.27" filter="url(#a)"/><path d="M46-63.6 3.85-72.28l-2.14-.87 2.16.79-4.26-.38-7.62-1.53-5.8-1.77-1.4-1.33 2.95-.74 5.72-.27 6.37.04 5.25.47 3.68 1.48 3.93 3.99 8.91 8.85L41.05-48.6l19.88 13.37" filter="url(#a)"/><path d="m-51.2-56.01 38.03-19.88 15.12-5.1 8.46 1.71 5.73 3.68 3.33 2.93.55 1.07-2.17-.67-4.41-1.52-6.06-1.41-7.07-.76-7.21-.16-6.2.05-4.15-.12-1.62-.4.83-.48 3.06-.35 5.37-.18 7.89.09 10.13.99 10.67 3.14 6.21 5.65-11.19 4.78-56.92-4.35" filter="url(#a)"/><path d="m38.75-71.59-28.66 9.3 2.5.52-4.15-5.49-9.23-5.46-7.4-3.77-2.23-2.53 2.4-1.84 4.68-1.34 4.89-.71 4.38.2 4.35 1.51 5.23 3.14 6.54 4.75 7.21 5.69 6.22 5.23 3.03 3.23-2.22.27-8.63-2.49-14.46-4.31-16.82-5.36-11.92-6.11 1.22-6.2 16.43-5.03" filter="url(#a)"/><path d="m-44.56-65.29 28.54-12.9 10.65-2.5-.09 1.98-.34 3.33 2.64 3.14L.6-69.89l2.71 1.34 1.45.15 1.34-1.1 2.14-2.17 2.75-2.77 2.29-2.71.77-1.92-1.32-.52-3.41 1.02-4.96 1.81-4.98.84-3.55-1.9-6.2-3.14-22 4.15" filter="url(#a)"/><path d="M51.58-55.48 21.81-71.75l-11.43-4.58 3.52.07 8.11 2.25 5.9 2.22.77.55-4.2-1.51-6.76-2.74-5.9-2.57-2.28-1.33 1.73.2 2.88 1.07-.72.64-7.37-.72-13.55-.25-31.12 6.87" filter="url(#a)"/><path d="m-23.46-82.6 19.2 4.93 7.64 4.87-6.5 1.1-7.63-.73-1.51-1.19 4.19-.98 5.64-.77 3.29-.85-.19-1.15-2.35-1.42-2.45-1.52-1.22-1.47.18-1.33 1.1-1.05 1.29-.48.61.61-.84 2.45-1.73 4.8 3.44 5.92 39.86-1.19" filter="url(#a)"/><path d="M54.97-49.39 12.38-65.76l.86-6.92 7.22-.8 5.23 1.93 2.7 2.02.69.72-.96-.6-2.25-1.19-3.05-1.12-3.12-.73-2.06-.05.55 1.25 4.37 3.19 7.79 4.84 8.12 4.49 3.32.56-5.72-6.5-12.76-12.36-2.49-6.72" filter="url(#a)"/><path d="m-43.8-66.74-1.52 2.63.93.45 3.75-1.77 4.7-2.78 4.18-3.02 3.29-2.9 2.63-2.58 2.19-2.03 1.91-1.31 1.76-.5 1.72.27 1.72 1.03 1.69 1.81 1.69 2.52 1.85 2.92 2.26 2.6 2.96 1.41 4.19-.32 6.29-1.68 8.54-1.86 8.52-.34 7.67 5.1 29.49 25.24" filter="url(#a)"/><path d="m32.6-76.97-2.75 14.34-14.67-.91-10.43-2.37-5.89-1.96-1.76-1.56 1.5-1.52 3.59-1.77 4.68-1.87 4.81-1.27 3.45-.07-.14 1.04-5.68 1.35-11.52 1.11-15.58 1.86-16.94 4.28-8.09-1.01" filter="url(#a)"/><path d="m13.62-86.55-6.31 2.41 5.35 7.19 2.54 5.99.46 2.7.56.57.45.31-1.27.93-4.41 1.09-7.61.14-9.09-1.52-7.71-2.61-3.48-2.22 2.4-.68 7.91.3 10.48-.94 8.47-3.76 6.54-2.97 20.54 8.43" filter="url(#a)"/><path d="M60.93-35.23 13.47-48.99l.11-10.61-.26-9.26-3.09-6.41L9-77.89l1.62.61 2.47 2.36.83 2.64-2.54 2-6.14 1.12-7.43.58-4.23 1.07 2.05 3.07 9.94 6.19 48.88 7.62" filter="url(#a)"/><path d="m27.44-80.2-9.63 2.61-8.43-.24.87-.67 1.87-.73-1.58-.22-4.33 1.16-4.75 2.71-3.74 3.42-2.36 2.91-.58 1.68 2 .53 4.58-.31 5.16-1.22 3.02-2.34 1.48-2.68 6.04-.51 14.73 3.31 7.65-.4" filter="url(#a)"/><path d="M43.89-66.18 14.38-75.6l-16.95 4.32-1.74 8.07 4.24 6 3.43 2 1.03-1.76-.04-3.98.68-3.89 2.44-1.73 4.39 1.28 5.63 3.45 4.83 3.6.92 1.36-5.15-2.61-8.63-6.82-3.38-8.66 10.35-4.41 23.01 8.19" filter="url(#a)"/><path d="m-27.37-80.42 8.08 12.58 15.45 4.54 7.41.79 2.58-2.2 1.4-4.4 1.69-5.03 1.68-4.3.94-2.92v-1.46l-.71-.14-1.3.96-2.32 1.82-3.83 2.37-4.97 2.63-4.37 2.58-1.22 2.24 3.79 1.62 8.6.64 10.45-.93 5.98-3.32-8.61-5.93-32.9-6.13" filter="url(#a)"/><path d="m56.73-45.91-43.04-8.55-8.08-5.76-6.41-7.39-3.4-5.89 1.22-3.37 3.49-1.47 2.56-.44.34.1-1.11.54-1.21 1.09-.81 1.67-.77 2.12-.93 2.33-.17 2.33 2.34 2.26 6.14 2.16 9.55 1.86 10.85 1.08 9.53-.01 6.74.5 5.97 6.65L62.6-29.77" filter="url(#a)"/><path d="m-21.98-83.44 2.38 14.29 10.72 3.49 8.01-1.27 9.15-1.32 10.38.44 9.54 1.68 7.08 1.83 4.17 1.23 1.62.34-.33-.58-1.66-1.3-2.36-1.64-2.49-1.65-2.28-1.56-2.12-1.68-2.32-2.1-2.89-2.56-3.47-2.67-3.65-2.24-3.03-1.2-.98.71 4.35 4.48 15.44 12.07 26.38 26.13" filter="url(#a)"/><path d="m9.94-87.22 29.25 26.6 6.74 5.48-3.67-2.8-9.35-5.14-11.39-5.36-9.82-4.47-6.08-2.87-2.34-1.14-.05.26.55 1.04.16 1.23-.34 1.01-.28.7.32.55.79.59.21.5-1.73-.22-3.96-1.7-4.44-3.15-2.36-3.23-1.37-1.05-9.48 3.72-28.65 14.92" filter="url(#a)"/><path d="m51.68-55.72-40.69-2.55.74-4.61 3.96-2.97 3.89.62 3.2 1.88 1.58.48.26-1.74-.03-3.14.3-3.21.22-2.38-1.02-1.65-3.47-1.79-6.13-2.54-7.25-2.4-5.03.23 4.58 5.56L46-63.6" filter="url(#a)"/><path d="M58.24-42.11 41.6-63.01l-8.72-6.82-7.73-2.55-7.47-.91-4.71.94-1.37 2.19-.02 1.93-1.11.42-3.27-1.38-5.05-2.58-6.02-2.73-6.39-1.95-6.35-.68-5.64.48-3.79.95-.68.46 3.04-.59 6.2-1.08 8.34.29 12.01 3.93 22.6 9.35 33.14 21.49" filter="url(#a)"/><path d="M54.97-49.39 16.31-65.13l3.42-2.56 7.67 2.92 4.54 3.18 2.14 1.22.79-.89-.45-2.23-1.76-2.62-2.68-2.44-2.86-2.1-2.29-1.68-1.46-1-1.17.1-2.08 1.32-4.24 1.92-6.69 1.04-7.39-1.47-3.91-4.35 4.17-4.94 12.92-.92 23.77 9.04" filter="url(#a)"/><path d="m4.69-88.11 17.27 6.94 5.43 2.33-.27.37-2.28.65-2.19 1.9-1.64 2.84-1.95 2.72L16-68.65l-3.79.49-3.52-.39-2.81-.95-2.65-1.46-2.79-2.08-1.54-2.73 2.6-2.97 8.09-2.09 8.59-.6-8.28-5.89" filter="url(#a)"/><path d="M32.86-76.79 9.4-74.57l1.31.7 3.5.51 4.34 2.87 3.47 4.29 1.05 3.82-1.11 2.17-2.18.15-2.68-1.67-3.11-2.69-2.66-2.16.39.33 6.24 3.78 11.01 4.99 7.69-.33-6.16-12.4-16.72-16.15" filter="url(#a)"/><path d="m-15.5-85.82 22.84 6.43-8.03.04-10.46.35-3.89.26 2.69.19 5.96.95 6.08 2.05 4.63 2.6 3.3 2.35 3.09 1.73 3.67 1.31 3.5 1.19 1.13 1.08-2.79.94-4.59 1.19-.28 1.96 7.28 1.32 1.51-4.94-39.69-19.59" filter="url(#a)"/><path d="m48.22-60.66-15.41-8.55-11.84 1.51-10.05 1-6.3-.78-2.04-1.42 1.38-.91 3.13-.04 3.74.67 4.43 1.15 5.5 1.48 5.85 1.38 4.21.45.4-1.33-4.6-3.04-9.44-3.08-11.49.15-2.01 6.31 46.37 7.8" filter="url(#a)"/><path d="M63.27-26.77 9.39-61.09 2.24-74.48l3.29-4.02-.57-.95-4.7-.22-4.14.12-.05.45 4.1.45 5.4-.13 3.02-.94-1.6-1.16-5.95-.11-8.18 1.93-8.08 3.61-8.39 4.8-28.45 15.63" filter="url(#a)"/><path d="m9.75-87.32-22.3 14.65 10.91 5.97 11.86 4 6.95 1.64 3.84-.59 2.34-2.09.92-2.67-.99-2.38-3.08-1.42-4.84-.2-6.01.63-6.51.46-6.05-.66-4.49-2.12-2.18-3.03.03-2.83 1.6-1.54 3.02.29 4.97 1.86 4.79 2.33-7.39 2.34-43.73 9.42" filter="url(#a)"/><path d="M-51.2-56.01-.22-66l4.9-9.9-3.71-5.53-2.01-2.35.39-.82 1.06-.1.53.62.06 1.79.33 3.38.9 4.81.74 5.36-.88 4.52-3.4 2.43-5.33-.06-5.02-1.87-1.89-2.25 3.1-1.31 7.76.11 9.54.9 6.59.44-.76-1.28-8.41-3.94-10.93-6.19-22.58-2.12" filter="url(#a)"/><path d="m9.94-87.22-6.04 5.3.17 5.49 4.38 1.15.61-1.56-3.99-1.94-4.96-.93-1.85.74 3.57 2.71 8.88 4.63 12.03 5.95 11.95 5.95 8.75 4.19 3.49.76-2.48-3.35-8.09-6.41-13.26-6.11-21.25-.28-49.93 9.9" filter="url(#a)"/><path d="m-20.49-83.89 26.72 3.92-1.02-.27-2.02 3.04.67 5.63.65 5.17-.84 2.57-1.91-.46-2.03-2.79-1.82-3.91-1.84-3.72-2.16-2.56-2.17-1.13-1.15-.06.65.52 1.35.98-1.6 1.44-7.38.67-7.19-3.1 8.08-7.87m80.77 70.9.12-.9.37-1.47.53-1.54.58-1.41.6-1.31.57-1.32.43-1.39.19-1.42-.02-1.43-.09-1.44.04-1.49.28-1.57.46-1.66.47-1.66.33-1.62.16-1.64.13-1.81.11-2.21-.54-2.98M-2.23-88.47l-.47-.09-.88-.18-1.07-.24-1.22-.51-1.36-.97-1.42-1.3-1.37-1.26-1.27-.87-1.18-.46-1.13-.34-1.16-.6-1.22-1.15-1.29-1.64-1.35-1.83-1.38-1.6-1.4-1.08-1.37-.55-1.31-.25-1.18-.3-1.07-.62-1.05-1.04-1.26-1.33-1.91-.88 28.32 19.09-.46-.04-.89-.5-1.08-.61-1.2-.61-1.3-.64-1.35-.68-1.33-.71-1.28-.76-1.24-.84-1.23-.91-1.18-.93-1.11-.84-1.04-.7-1.01-.61-1.12-.67-1.35-.75-1.59-.62-1.79-.26-2.21-.19 23.76 11.87-.47-.13-.93-.75-1.24-2.02-1.49-3.29-1.62-3.53-1.58-2.59-1.39-1.07-1.19.35-1.02 1.25-.93 1.51-.92 1.28-.93.77-1.01.17-1.11-.39-1.26-.86-1.43-1.22-1.58-1.57-1.65-1.94-1.67-2.29-1.6-2.46-1.53-2.13-1.58-1.07-2.13.23-3.94-.53 48.38 33.11-1.27-.12-.93-.55-.66-.91-.69-.98-.87-.89-1.03-.77-1.08-.67-1-.61-.89-.6-.81-.6-.81-.56-.88-.46-.97-.32-1.01-.29-.95-.49-.87-.76-.95-.75-1.46-.31" filter="url(#a)"/><path d="m-5.18-88.28 1.39-2.9.88-2.55.88-.65 1.03.52 1.1.81 1.07.67.99.44.96.25.98.1 1.07-.06 1.17-.25 1.22-.44 1.23-.58 1.17-.64 1.12-.6 1.07-.51 1.07-.47 1.1-.51 1.15-.62 1.2-.71 1.23-.76 1.17-.81 1.01-1 1.19-.85" filter="url(#a)"/><path d="m14.75-92.43-.39.27-.73-.23-.93-.33-.98-.09-.99.19-1.05.33-1.15.28-1.2.13-1.21.01-1.13-.05-1.04.01-.97.13-.96.26-.98.38-1.01.44-1.03.45-1.01.4-.96.35-.94.36-.95.43-1 .49-1.32.42-2.69.41-.98.1-.02.1-.76.48-.97.68-.88.72-.73.69-.66.69-.67.71-.76.68-.87.61-.93.49-.89.38-.78.32-.63.38-.56.57-.7.91-1.16 1.38-2.02 1.98M80.51 5.57l-1.05-1.16-1.97-1.11-1.95-1.19L74.02.83 72.95-.5l-.72-1.4-.39-1.53.02-1.64.37-1.68.36-1.57-.17-1.38-1.08-1.17-1.8-1.12-1.84-1.27-1.34-1.38-1.16-.79" filter="url(#a)"/><path d="m-28.95-68.7.29-1.21.55-.76.73-.65.82-.63.86-.64.85-.65.83-.71.82-.78.8-.89.76-.97.71-1.01.66-.96.66-.89.7-.84.76-.84.8-.84.82-.76.8-.58.76-.33.75-.21.78-.43.9-.96 1.11-1.37 1.19-.78" filter="url(#a)"/><path d="m-10.24-87.39-1.24.44-1.25.55-.99.43-.79.34-.72.37-.75.45-.83.51-.89.53-.91.53-.86.5-.79.51-.75.56-.76.62-.82.73-.87.79-.88.84-.83.81-.81.79-.89.79-.87.86.14.51" filter="url(#a)"/><path d="m-11.27-87.18.65.11.74.05 1.12-.13 1.28-.2 1.24-.17 1.14-.11 1.04-.05.99-.01.98.02.98.04.99.08.97.09.94.12.91.13.91.17.97.21 1.05.27 1.13.33 1.13.36 1.01.35.85.3.81.28 1.04.35 1.34.53-27.51-2.39-.32.26-.55.21-.76.19-.96.23-1.04.27-1.02.28-.94.27-.88.28-.86.28-.92.29-.99.32-1.05.32-1.07.32-1.08.34-1.07.36-1.06.39-1.04.42-1.02.45-.97.51-.92.58-.91.69-.94.73-.95.65-.87.48 49.25-34.48-.55 1-1.6 1.31-1.85.76-1.67.61-1.39.91-1.18 1.34-1.08 1.73-1.07 1.98-1.1 2.08-1.12 2.01-1.11 1.76-1.09 1.34-1.09.75-1.14.06-1.23-.63-1.35-1.11-1.4-1.05-1.31-.2-1.05 1.39-.74 3.03-.67 3.55-1 2.29-1.27.45" filter="url(#a)"/><path d="m-43.34-96.73 2.39.99 1.6.38 1.38.21 1.5.5 1.66.84 1.71.96 1.65.87 1.56.71 1.48.57 1.45.52 1.41.54 1.33.64 1.22.72 1.09.64 1.02.36 1.04.05 1.18.02 1.32.4 1.22.73.63.26" filter="url(#a)"/><path d="m2.64-110.2-.49 2.78-1.33 1.21-1.4.95-1.24 1.25-1.09 1.28-1.07.91-1.12.52-1.17.54-1.18 1.03-1.16 1.71-1.1 2.17-1.03 2.18-.98 1.83-.97 1.3-.97.71-.95.14-.87-.23-.64.14-.3 1.77-.33 2.51m-1.98.51 1.53-.29.99-.14.77.03.75.27.87.53.98.74 1.06.86 1.09.88 1.11.78 1.12.63 1.14.49 1.14.39 1.09.32 1.01.29.91.3.83.45.83.78.96 1.2 1.23 1.37 1.34.98m62.94 57.4 1.08-2.38.49-1.34.73-1.2.8-1.34.72-1.52.59-1.65.49-1.69.39-1.67.27-1.59.14-1.51.02-1.47.02-1.53.16-1.68.37-1.93.48-2.17.37-2.25.05-2.11-.18-1.76-.09-1.49-.5-1.95" filter="url(#a)"/><path d="m64.96-16.73.58-2.23.93-1.46.61-1.13.31-1.12.14-1.27.13-1.44.21-1.55.33-1.61.35-1.58.29-1.52.19-1.5.21-1.53.42-1.7.78-1.98 1.08-2.34.86-2.65-.43-3.11-92.44-37.44-1.03.24-1.1-.03-1.4-.21-1.39-.12-1.16.17-.96.51-.9.7-.93.71-.98.59-1.03.39-1.06.19-1.13.04-1.18.03-1.21.11-1.18.14-1.02.18" filter="url(#a)"/><path d="m-13.32-107.2.23 2.12-.72 1.66-.86 2.57-.74 2.73-.65 2.09-.7 1.13-.83.35-.95.19-.94.76-.79 1.78-.53 2.62-.32 2.7-.23 1.91-.24.85-.07.21" filter="url(#a)"/><path d="m1-93.73-1.88.07-1.08.43-.89.33-.93.23-1.03.27-1.13.38-1.2.46-1.22.46-1.19.42-1.12.42-1.03.5-.96.62-.88.7-.83.7-.79.61-.82.47-.9.31-.99.2-1.06.18-1.02.26-.85.38-.62.36-.41.27.17 1.17-5.71 3.11.63-.68.56-.43.82-.53 1.01-.65 1.02-.66.89-.62.78-.56.75-.5.81-.46.91-.44.96-.45.94-.49.86-.54.74-.58.7-.57.79-.5 1.02-.47 1.29-.55 1.26-.58-19.83 12.26.09-.31-.71.32-.93.35-1.15.07-1.34-.27-1.41-.41-1.31-.29-1.13.01-.97.35-.89.58-.9.7-1 .68-1.11.62-1.2.52-1.27.38-1.36.22-1.46.07-1.6-.07-1.73-.13-1.84-.09-1.89-.01-1.96-.04-2.09-.26-1.91-.03" filter="url(#a)"/><path d="m-12.2-71.55-.45.71-.75-.53-.94-.45-1.05-.34-1.08-.51-1.08-.85-1.05-1.1-1.03-1.12-1.07-.87-1.12-.53-1.17-.3-1.17-.23-1.1-.17-1 .06-1.03.38-1.13.14-.82-2.1m-26.65-8.47 1.17.16 2.26 1.08 2.08.46 1.79-.04 1.56-.22 1.34-.27 1.21-.16 1.27.18 1.48.66 1.71 1.03 1.74.97 1.53.42 1.22-.23 1.21-.03 2.01 1.83 3.07 2.63" filter="url(#a)"/><path d="m-17.88-91.29-1.51 1.16-1.1 1.04-.75 1.08-.57.93-.6.72-.76.61-.91.69-.96.85-.89.99-.81 1.02-.8.94-.89.88-.94.85-.9.77-1.39.92m-2.37 1.89-1.06-.06-.89.4-.8.49-.76.51-.79.58-.87.64-.97.68-1.04.66-1.07.63-1.08.57-1.08.53-1.09.52-1.11.54-1.13.57-1.13.62-1.1.65-1.04.67-.96.66-.9.66-.88.7-.95.78-1.06.87-1.08.93-.75 1.25" filter="url(#a)"/><path d="m-64.82-80.89 1.34 1.67 1.22.06 1.75.13 2.19.46 2.34.6 2.18.49 1.93.3 1.76.29 1.78.47 1.87.67 1.92.72 1.84.52 1.65.22 1.41.02 1.21.02 1.06.13h.91l1.05-.37 20.62-7.4-.55.04-1.01.05-1.17.05-1.09.06-.94.1-.82.19-.79.31-.82.44-.89.54-.94.56-.97.53-.99.48-1 .42-1 .38-1.02.35-1 .34-.97.37-.96.42-.95.46-.97.5-.97.51-.96.51-.86.51-.58.47m-17.52 17.65.75-1.08.87-.98.89-.97.85-.94.79-.84.75-.75.76-.73.77-.77.8-.85.83-.91.85-.92.85-.89.83-.83.81-.8.79-.85.79-.94.86-1.04.96-1.06 1.09-.85 1.38-.53" filter="url(#a)"/><path d="m-37.26-73.18-.97 1.25-.88 1.2-.85 1.21-.76 1.16-.61 1.16-.52 1.18-.46 1.23-.46 1.29-.44 1.37-.39 1.44-.3 1.52-.16 1.57.02 1.6.14 1.61.14 1.57-.03 1.51-.19 1.51v1.7M64.79-20.22l.02-.63.26-1.02.31-1.37.39-1.59.44-1.65.29-1.55v-1.36l-.31-1.22-.42-1.17-.32-1.27-.1-1.45.09-1.66.14-1.8.06-1.88.02-1.87.11-1.79.32-1.7.35-1.65-.26-1" filter="url(#a)"/><path d="m64.79-20.22 4.73-2.14-1.14-.6-1.17-.94-.24-1.45.3-1.65.32-1.59.13-1.46-.02-1.4-.02-1.43.12-1.56.27-1.74.38-1.9.38-2.04.36-2.1.34-2.08.34-2.02.43-1.98.64-2.09.95-2.41L73-55.46l.7-2.3.15-.5M-38.61-71.58l-2.45-2.47-1.22.77-.55 1.65-.43 1.55-.53 1.27-.67 1.05-.83.91-.95.8-1.03.7-1.06.62-1.06.56-1.03.52-1.06.47-1.16.41-1.35.28-1.58.11-1.71-.03-1.64-.05-1.32.1-1 .38-.98.86-1.24 2.24" filter="url(#a)"/><path d="m-41.37-68.82-.47-.26-.68.54-.79.59-.93.51-1.04.51-1.04.63-.96.81-.86.91-.78.9-.74.76-.78.6-.86.54-1 .61-1.1.77-1.02.88 11.65-8.2.98-1.37.81-1.26.84-1.26.8-1.11.74-.96.69-.85.69-.78.74-.72.8-.69.86-.66.89-.67.88-.71.87-.78.84-.88.82-1 .79-1.12.78-1.19.8-1.14.88-1.01 1.01-.86 1.16-.8 1.18-.82.97-.82.91-1.02-20.73 22.48 1.16-1.07 1.01-.87 1.02-.91.94-.84.83-.73.76-.66.74-.62.76-.61.8-.63.84-.65.85-.66.87-.67.87-.65.89-.63.91-.62.94-.58.95-.56.94-.53.95-.5 1.05-.51 1.23-.59 1.22-.6.46-.28-20.99 14.97-1.17-.76-2.23-1.52-2.6-1.61-2.32-.98-1.71-.03-1.18.65-.91.9-.77.95-.64 1.06-.57 1.21-.72 1.17-1.19.76-1.79.05-2.23-.57-2.27-.81-2.05-.62-1.94.07-2.09 1.79 26.59.72.76-1.04.72-.73.78-.62.9-.57 1.04-.51 1.13-.47 1.1-.43 1.01-.41.9-.35.84-.24.9-.06 1 .06 1.08.05 1.13-.1 1.46-.02-14.75 5.44-1.08.66-1.44.3-1.26.39-.85.7-.58.89-.61.88-.81.74-1.03.59-1.16.5-1.16.47-1.07.45-1.01.47-1 .55-1.04.78-1.1 1.09-1.07 1.04-.61.39 16.02-10.02-.98 1.15-.8 1.04-.68.88-.6.8-.59.84-.62.91-.66.96-.68.96-.67.92-.64.9-.6.92-.61.99-.63 1.12-.66 1.24-.68 1.31-.67 1.31-.62 1.19-.49.96-.3.56h-.06" filter="url(#a)"/><path d="m-46.59-63.26-1.38-4.46.92-.94 1.4-.06 1.14-.35.8-.88.62-1.26.54-1.51.5-1.7.39-1.89.28-2.03.2-2.03.22-1.94.29-1.81.4-1.74.49-1.76.56-1.78.6-1.76.63-1.68.59-1.66.29-1.77-.84-1.42-10.13 36.66.79-.85.97-.87 1.04-.81.96-.83.85-.84.83-.75.93-.55 1.07-.36 1.17-.25 1.18-.26 1.1-.35.99-.39.92-.35.92-.22.97-.05h1.01l1.01-.08.97-.24.9-.39.85-.41.85-.25.81.17.09.71" filter="url(#a)"/><path d="m-48.36-60.35-.08-.1.45-.64.66-.89.78-1 .81-1.03.81-1 .8-.95.78-.9.79-.86.82-.85.85-.86.87-.87.87-.85.83-.82.78-.76.73-.69.72-.65.76-.64.83-.66.93-.7 1.02-.72.96-.7-13.19-19.52.17 3.28-.03 2.59.04 2.4-.06 2.24-.22 2.16-.27 2.23-.22 2.37-.16 2.43-.14 2.31-.18 2.09-.3 1.82-.46 1.55-.67 1.29-.86 1.06-.95.91-.89.86-.71.88-.38 1 .16 1.52 1.18 3.72m-24.11 13.95 1.38-.02h.7l1.01-.46 1.34-.79 1.44-.96 1.43-.99 1.37-.86 1.32-.72 1.2-.68 1.01-.81.84-1.03.81-1.15 1.01-1.04 1.35-.71 1.61-.33 1.57-.14 1.22-.24.86-.52.89-.64 1.02-.74" filter="url(#a)"/><path d="m-47.5-95.3-.65.04-.16 1.8-.41 2.05-.55 2.12-.31 2.55.17 3.14.55 3.53.57 3.4.25 2.79-.27 1.98-.75 1.28-.94.99-.75 1.16-.27 1.66.24 2.11.47 2.2.3 1.92-.06 1.74-.39 1.66-.74 1.17.83-1.02 1.03-.75 1.01-.51.91-.45.83-.52.86-.58.96-.56 1.06-.5 1.07-.48 1-.55.89-.66.8-.76.79-.76.85-.7.92-.61.97-.53.96-.44.93-.31.91-.16.92-.04h.94l1.05.09 1.27.31 1.37-.09M-51.2-56.01l-.81.81-.9.37-1.28.08-1.53.17-1.42.55-1.1.97-.74 1.27-.48 1.4-.35 1.39-.34 1.33-.43 1.27-.55 1.25-.66 1.24-.72 1.21-.77 1.11-.84.95-.99.75-1.18.66-1.32.74-1.25 1.02-.91 1.19-.45.87-.46-.02" filter="url(#a)"/><path d="m-62.9-31.43.38-.74.57-1.5.54-1.45.44-1.15.38-.96.41-.96.45-1.1.49-1.22.52-1.29.52-1.25.51-1.16.51-1.08.51-1.07.54-1.11.59-1.23.64-1.32.67-1.36.68-1.26.6-.97.47-.63.42-.78 1.95 23.24-1.04.27-.62-1.15-.6-1.74-.51-1.92-.29-1.8-.04-1.55.1-1.29.13-1.16.16-1.15.24-1.23.32-1.36.25-1.62-.01-2-.26-2.18-.22-1.64-.09-.37" filter="url(#a)"/><path d="m-79.5-39.85 1.04.3 1.67-.35 1.47-1.07 1.34-1.14 1.34-.86 1.44-.57 1.62-.41 1.78-.42 1.84-.49 1.75-.6 1.55-.68 1.27-.74 1-.83.74-.98.54-1.19.54-1.33.82-1.25 1.29-.94 1.63-.56 1.42-.2.82.49M64.23-21.26l.39.52.38.72.49 1.03.59 1.23.62 1.34.55 1.41.44 1.44.39 1.43.4 1.39.56 1.38.79 1.38 1.02 1.43 1.17 1.48 1.15 1.5.98 1.48.75 1.43.61 1.38.62 1.3.84 1.24 1.1 1.17 1.07 1.18.31 1.27" filter="url(#a)"/><path d="m64.23-21.26.97.33.71.62.21 1.09.09 1.37.17 1.45.21 1.48.18 1.47.13 1.45.14 1.4.21 1.37.31 1.37.39 1.42.4 1.48.35 1.48.27 1.45.19 1.37.2 1.28.3 1.2.38 1.09.36.97.25 1.01M-54.42-82.92l.58 3.67-.08 2.59-.21 2.3-.26 2.03-.25 1.74-.23 1.56-.13 1.57.02 1.79.26 2.15.51 2.49.66 2.58.59 2.27.28 1.55-.06.75-.24.45" filter="url(#a)"/><path d="m-53.86-22.07.9-.93-.57-1.44-1.02-1.63-.87-1.56-.55-1.47-.3-1.45-.15-1.39-.06-1.29-.01-1.19.02-1.18.02-1.29-.03-1.49-.06-1.63-.04-1.63.07-1.44.22-1.15.36-.97.48-1.02.47-1.31-.32-1.46-2.74-5.4-2.5-4.89.31-1.44 1.86.43 2.02.57 1.48-.13.74-1.05.07-1.87-.44-2.46-.71-2.77-.72-2.83-.51-2.7-.22-2.51.06-2.33.28-2.17.43-1.99.55-1.75.63-1.56.56-1.66.31-2.24.16-3.23.72-5.16-2.23 49.27.2-.68.54-1.35.55-1.43.42-1.28.32-1.15.27-1.17.25-1.32.18-1.53.09-1.71v-1.81l-.04-1.77.03-1.62.22-1.44.42-1.41.51-1.56.63-1.61 1.06-.9-7.25 26.89 1.3-1.9 1.32-.9 1.15-.93.88-1.02.73-.93.72-.73.81-.57.91-.5.95-.53.91-.58.85-.61.83-.55.87-.43.96-.33.99-.39.94-.59.87-.77.93-.67 1.13-.33.93-.46" filter="url(#a)"/><path d="m-56.79-45.71.55-2.59-.78-2.93-1.48-3.57-1.28-3.29-.44-2.22.53-1.05 1.19-.35 1.32-.31 1.01-.78.45-1.49-.14-2.14-.56-2.57-.72-2.72-.65-2.74-.54-2.89-.56-3.32-.6-3.67-.08-2.96 2.78 41.59.12.59.39 1.03.13 1.24-.23 1.38-.39 1.43-.35 1.41-.18 1.34-.01 1.23.09 1.17.06 1.17-.11 1.23-.32 1.24-.46 1.13-.4.96-.12 1.1.01 2.17" filter="url(#a)"/><path d="m-56.97-45.44-2.83-1.48.06 1.25-.05 1.74-.75 1.44-1.25 1-1.4.68-1.39.53-1.4.47-1.57.49-1.76.52-1.87.6-1.8.67-1.59.78-1.44.89-1.46 1-1.61 1.09-1.59 1.27-1.02 1.54-.2 1.33 24.64-15.06-1.56-.48-2.26.38-2.9.14-2.35.31-1.3.76-.65 1.03-.69 1.01-1.11.86-1.44.79-1.44.86-1.13 1.05-.68 1.27-.3 1.47-.15 1.61-.22 1.66-.48 1.62-.83 1.5-1.21 1.33-1.73 1.15-2.57 1.09-3.74 1.88" filter="url(#a)"/><path d="m-54.1-14.72-.53-2.14.02-1.28.04-1.2-.29-1.4-.68-1.61-.84-1.68-.7-1.6-.36-1.41.04-1.21.34-1.08.46-1.05.38-1.1.14-1.19-.18-1.3-.46-1.45-.56-1.59-.4-1.71-.04-1.75.3-1.78.28-1.67-.11-.77M64.16-22.57l.58.85 1.01.51 1.03.58.72.91.46 1.21.4 1.38.47 1.44.48 1.46.35 1.46.15 1.42.1 1.32.29 1.23.67 1.25 1.07 1.51 1.32 2.45m-132.3-36.64v-.54l.35-1.64.37-1.51.3-1.19.29-1.04.32-1.11.34-1.31.34-1.51.35-1.64.38-1.63.4-1.48.36-1.22.26-1.02.25-1.06.39-1.31-5.71 22.09.21-2.16-.42-2.18-.46-2.26-.2-1.9.13-1.43.46-1.11.68-1 .79-1.06.78-1.17.72-1.29.64-1.31.55-1.31.46-1.29.37-1.33.26-1.45.19-1.59.17-1.67.24-1.59.36-1.37.46-1.18.43-1.22.28-1.62.24-2.05.85-1.67" filter="url(#a)"/><path d="m-60.05-37.35.87-1.66.51-1.44.52-1.48.51-1.31.48-1.09.48-.98.51-.99.57-1.08.65-1.18.7-1.22.72-1.18.68-1.09.63-.94.58-.82.59-.77.68-.83.78-.88.84-.87-25.56 48.79 1.15-1.28.45-1.65.37-1.82.59-1.82.81-1.61.89-1.35.79-1.15.61-1.06.43-1.08.35-1.15.39-1.2.53-1.22.68-1.23.75-1.22.74-1.21.64-1.18.54-1.17.44-1.2.36-1.32.32-1.52.45-1.47.8-.6.45 1.33.9-2.43-.72 1.89-.78 1.86-.79 1.41-.87 1-1.07.81-1.37.75-1.68.75-1.89.79-2 .83-2.14.83-2.37.77-2.64.65-2.64.55-2.13.57-1.16.66-.17.76.88.57 23.05-41.27.57 1.97.06 1.29-.48 1.27-.69 1.45-.57 1.66-.24 1.86.06 1.95.14 1.84-.05 1.57-.41 1.26-.76 1.1-.82 1.19-.47 1.49.18 1.86.88 2.05 1.25 1.78 1.05 1.04.17.84" filter="url(#a)"/><path d="m-54.56-55.68-.07.24-.43 1.12-.58 1.52-.61 1.56-.57 1.46-.48 1.35-.39 1.23-.35 1.14-.37 1.14-.41 1.22-.44 1.37-.39 1.49-.28 1.48-.19 1.28-.13.83-.06.31-.19.61m-26.06 17.99 3.22-2.3 1.65-1.16 1.22-.77 1.42-.64 1.93-.58 2.36-.58 2.38-.66 2-.87 1.34-1.14.74-1.36.49-1.37.8-1.12 1.44-.65 1.85-.22 1.46-.29.83-1.1" filter="url(#a)"/><path d="m-63.52-79.26-.07 3.74.02 2.9.32 2.72.42 2.48.33 2.18.18 2 .07 1.98v2.05l-.01 2.08-.04 2.04-.09 1.89-.25 1.64-.52 1.34-.83 1.08-1.03.97-1 1.05-.65 1.33-.08 1.64.48 1.83.89 1.85 1.12 1.87 1.24 2.21 1 2.73-.16 2.45 9.66-24.3-.38.84-.39.71-.56 1.03-.67 1.27-.68 1.37-.64 1.33-.57 1.25-.49 1.16-.46 1.11-.43 1.14-.45 1.21-.47 1.29-.47 1.32-.43 1.27-.38 1.13-.31 1.02-.31 1-.37 1.18-.48 1.48-.53 1.5-.32.76m.13-.03-.69 2.13-.68 1.34-.78 1.24-.81 1.22-.74 1.19-.57 1.18-.37 1.13-.21 1.09-.16 1.04-.27 1.03-.48 1.13-.68 1.37-.74 1.65-.63 1.8-.49 1.73-.39 1.83" filter="url(#a)"/><path d="m-62.18-31.17.17-.08.38-.73.59-1.17.59-1.23.51-1.07.45-.89.45-.87.49-.98.53-1.15.55-1.29.54-1.29.51-1.14.46-.89.46-.74.62-.97 1.17-1.89-15.75-23.9-.27 2.2.2 3.25.39 3.14.03 2.51-.36 1.86-.51 1.48-.35 1.47-.01 1.73.39 2.1.74 2.42.95 2.54.97 2.41.83 2.11.63 1.81.5 1.68.45 1.73.36 1.82.22 1.7.18 1.44.48 1.53.54 2.62m126.37.94-.11-.32-.26-.91-.33-1.09-.39-1.1-.46-1.09-.55-1.11-.61-1.17-.64-1.24-.61-1.28-.56-1.26-.48-1.18-.44-1.08-.49-.99-.61-.92-.73-.89-.78-.9-.7-1.01-.77-1.81" filter="url(#a)"/><path d="m60.51-56.26.51 1.47.07 1.25.29 1.32.45 1.37.44 1.42.32 1.45.21 1.47.14 1.44.13 1.42.12 1.44.08 1.55v1.69l-.07 1.79-.11 1.78-.1 1.66-.06 1.5v1.37l.1 1.32.13 1.37.11 1.41.64.52 1.44 1.02 1.91.85 2.14.59 2.14.46 1.8.56 1.32.84 1.12 1.14 1.4 1.27 1.89 1.29 2.06 1.35 1.65 1.45 1.01 1.54.77 1.49 1.1 1.44 2.59.97" filter="url(#a)"/><path d="m58.55-51.23-.32.23.2 1.2.33 1.47.41 1.41.48 1.28.51 1.18.48 1.12.38 1.15.24 1.28.11 1.46.06 1.62.08 1.67.14 1.61.21 1.44.28 1.26.35 1.14.38 1.14.1 1.46-.37-1.66.59 1.25 1.17.79 1.64.68 1.71.79 1.4.93.93 1 .5 1.03.32 1.04.47 1.07.89 1.11 1.41 1.13 1.9 1.16 2.25 1.31 2.2 1.98.71 3.8" filter="url(#a)"/><path d="m62.6-29.77.3 1.4.22 1.19.15 1.26.12 1.35.13 1.31.16 1.2.18 1.1.18 1.07.14 1.13.1 1.23.07 1.33.05 1.4.05 1.44.06 1.41.05 1.37.02 1.31-.04 1.3-.1 1.38-.15 1.54-.18 1.64-.21 1.3-.27-.3L62-32.29l2.26-2.21-.23-1.46-1.24-1.13-1.24-1.09-.91-1.12-.58-1.16-.36-1.2-.24-1.28-.16-1.39-.12-1.49-.05-1.6.05-1.69.18-1.8.35-1.94.49-2.12.54-2.26.42-2.33.21-2.28.08-2.16.23-1.96.38-1.61-.22-1.23" filter="url(#a)"/><path d="m62-32.29.34 1.34.36 1.18.39 1.13.42 1.12.47 1.15.48 1.18.48 1.19.4 1.13.33 1.06.25 1.02.22 1.06.21 1.17.23 1.29.29 1.4.41 1.53.55 2.01.58 3.26-7.38-25.69-1.76-.34-1.71-.87-.77-1.15-.31-1.16-.19-1.15-.24-1.14-.38-1.11-.58-.99-.86-.78-1.09-.56-1.25-.37-1.27-.3-1.2-.32-1.12-.43-1.05-.53-1-.6-.93-.56-.82-.44-.72-.31-.68-.39-.68-.82 16.19 7.23-.42-.56-.62-.95-.64-1.11-.61-1.14-.62-1.07-.65-.96-.7-.86-.75-.84-.79-.84-.81-.86-.82-.84-.81-.79-.8-.72-.81-.66-.86-.64-.89-.66-.91-.73-.9-.8-.89-.89-.89-.93-.89-.88-.91-.69-1.01-.36 18 18.78.82 1.33 1.14.57 1.27.81 1.01 1.2.66 1.41.49 1.4.51 1.28.62 1.14.68 1.07.67 1.07.62 1.12.59 1.17.59 1.22.66 1.21.76 1.14.92.98 1.13.81 1.35.74 1.44.94 1.15 1.45.37 1.79-17.45-23.85-.66-.39-.58-.98-.68-1.07-.66-1.1-.58-1.1-.52-1.07-.51-1.04-.54-1.04-.58-1.05-.62-1.07-.65-1.03-.67-.96-.67-.88-.69-.84-.69-.87-.72-.91-.76-.97-.79-1-.85-1.02-.91-1-.92-.9-.95-.72-1.02-.42 15.85 21.17-.27-1.45-.47-1.41-.57-1.22-.59-1.13-.55-1.06-.52-1.04-.51-1.07-.54-1.12-.56-1.16-.57-1.16-.56-1.1-.56-1.04-.55-1.02-.59-1.03-.63-1.08-.67-1.13-.71-1.18-.74-1.24-.76-1.28-.76-1.24-.76-1.06-.83-.82" filter="url(#a)"/><path d="m54.29-75.49-.03 2.05.27 2.45.39 2.02.49 1.68.39 1.64.17 1.75-.07 1.86-.17 1.88-.11 1.83.02 1.77.16 1.67.28 1.52.43 1.29.62.99.74.84.53 1.07-.09 1.69-.55 2.16.34 2.14-1.37-2.72.51-.8-.57-1.07-.56-1.06-.44-1.07-.4-1.14-.42-1.26-.41-1.38-.33-1.45-.24-1.49-.18-1.48-.19-1.48-.24-1.5-.34-1.52-.42-1.54-.51-1.56-.57-1.6-.58-1.64-.54-1.69-.48-1.69-.52-1.6-.87-1.24 7.38 27.08-.76-.5-.59-.44-.59-.78-.61-1.05-.67-1.11-.71-1.03-.73-.88-.74-.78-.74-.75-.78-.75-.84-.77-.9-.8-.9-.86-.87-.93-.85-.96-.85-.86-.89-.63-.94-.33-.88-.15-.79-.31-1.2-1.12 16.83 15.79-.18-1.04.52-1.49.28-1.63-.31-1.39-.69-1.17-.7-1.15-.45-1.34-.12-1.62.09-1.87.13-1.98-.01-1.96-.25-1.8-.49-1.63L53-69.7l-.64-1.57-.5-1.7-.28-1.89-.1-1.99-.03-1.92-.18-1.7-.41-1.47-.52-1.39-.42-1.57 5.89 36.81 2.23.77.73 1.09.67 1.08.87.91 1.06.73 1.15.68 1.14.78 1.11.93 1.06 1.1.95 1.21.76 1.31.61 1.33.61 1.27.81 1.15 1.14.97 1.45.85 1.58.84 1.5.99 1.32 1.22 1.14 1.35 1.03 1.21 1.01.77-37.37-53.61 1.4 2.75.76 1.91.52 1.56.39 1.41.36 1.3.4 1.24.49 1.21.62 1.17.76 1.12.85 1.07.85 1.08.77 1.15.62 1.26.47 1.32.42 1.28.46 1.14.58.99.69.99.64 1.24.4 1.61.18 1.85.49 1.96" filter="url(#a)"/><path d="m54.45-50.63.73 1.09.67.58.88.67 1.12.71 1.38.59 1.63.42 1.86.23 2.1.04 2.35-.1 2.53-.12 2.54.08 2.29.51 1.82 1.02 1.4 1.34 1.18 1.32 1.04 1.16 1.44 1.07-26.96-10.61-.86-.68-.91-1.03-.78-1.1-.7-.89-.68-.75-.67-.77-.69-.88-.69-1-.73-1.04-.77-1.04-.84-.98-.88-.89-.91-.75-.91-.58-.9-.44-.86-.38-.81-.44-.76-.61-.83-.77-1.09-.95-1.72-1.52 17.99 17.49-.94-.61-1.03-.93-.71-1.16-.56-1.05-.55-.9-.6-.86-.67-.91-.73-.97-.79-.97-.85-.95-.89-.91-.92-.83-.89-.76-.85-.7-.78-.66-.73-.64-.73-.64-.8-.62-.91-.55-1.03-.44-1.01-.26-.76-.01-.47-.02 15.33 11.5-.66-1.25-.87-1.14-.91-1.02-.89-.97-.91-.95-.94-.88-1.02-.7-1.08-.45-1.11-.26-1.1-.14-1.04-.18-.97-.28-.9-.44-.84-.56-.78-.65-.73-.67-.7-.64-.73-.56-.81-.44-.94-.23-.99.12-.81.42-.44.2" filter="url(#a)"/><path d="m51.58-55.48.24.01.55.81.75 1.18.76 1.2.73 1.06.7.94.72.87.77.85.81.89.8.95.76 1 .69 1.04.61 1.05.54 1.04.51 1.07.51 1.17.55 1.37.59 1.59.59 1.67.83 1.68" filter="url(#a)"/><path d="m51.58-55.48-.54-1.37-.58-1.48-.54-1.48-.53-1.44-.56-1.43-.61-1.4-.65-1.3-.68-1.14-.68-.99-.63-.96-.53-1.04-.46-1.2-.47-1.3-.58-1.27-.71-1.08-.75-.89-.59-.85-.42-1.19-.61-2.14 10.68 22.54-.6-1.64-.74-1.32-.47-1.53-.39-1.67-.51-1.54-.65-1.3-.71-1.12-.65-1.06-.56-1.09-.48-1.18-.46-1.25-.5-1.29-.57-1.25-.62-1.16-.66-1.07-.65-1.04-.64-1.04-.68-1.08-.69-1.1-.58-1.09-.25-.95-.03-.82 11 25.57.93.82.64.62.54.66.61.86.75.98.87.96 1 .81 1.06.65 1.04.6.93.72.77.92.65 1.12.6 1.21.62 1.19.66 1.1.73.94.79.61.6-.47" filter="url(#a)"/><path d="m48.6-60.5.64.86 1.49.39 1.75-.06 1.41.06.96.5.68.92.61 1.15.67 1.18.76 1.09.87.93 1 .76 1.18.65 1.38.54 1.6.46 1.75.41 1.77.42 1.61.5 1.33.62 1.02.64.85.53 1.29.68-48.18-19.1 1.42-.33 1.28-.01 1.32-.27 1.25-.35 1.12-.25 1.03-.12.99-.01.97.08.92.19.86.33.79.47.78.57.81.6.82.59.82.55.76.56.68.61.69.61.9.45 1.3.1 1.64.13 2.03 1.21" filter="url(#a)"/><path d="m38.27-75.69.35.85.59.89.55.8.57.83.65.92.69 1 .69 1.02.64.96.61.85.61.73.66.69.68.78.68 1.02.72 1.43 1.26 2.26" filter="url(#a)"/><path d="m44.13-65.88.83.78.79 1 .81 1.14.81 1.18.78 1.16.72 1.14.67 1.11.61 1.07.57 1.03.55 1.03.54 1.05.55 1.1.56 1.13.54 1.13.52 1.12.5 1.1.47 1.09.48 1.12.47 1.17.48 1.22.47 1.23.45 1.21.46 1.27.61 1.83-14.31-65.57-.11 3.26 1.04 1.3.55 1.68-.14 2.77-.45 3.5-.44 3.56-.37 3.29-.42 3.14-.54 3.17-.49 3.08-.11 2.55.48 1.63.94.79.67.84-1.55 2.55" filter="url(#a)"/><path d="m43.12-66.93.73 1.17.48 1.42.55 1.37.7 1.24.74 1.2.65 1.24.51 1.33.37 1.4.24 1.44.1 1.47.02 1.52-.02 1.54.03 1.52.11 1.47.19 1.36.23 1.25.25 1.15.27 1.09.23 1.15.08 1.33-.13 1.56-.15 1.65.18 1.28m-7.69-32.71-.52-.22-.92-.54-1.05-.31-.95-.23-.78-.41-.72-.59-.74-.62-.8-.48-.87-.29-.91-.17-.97-.21-1.01-.39-1.07-.51-1.19-.46-1.26-.37m13.8 5.47-.75-1.68-.19-2.29.06-2.15-.13-1.76-.4-1.4-.56-1.26-.56-1.33-.5-1.53-.45-1.79-.48-1.93-.59-1.91-.76-1.72-.9-1.49-.9-1.43-.78-1.63-.58-2.02-.46-2.35-.52-2.46-.64-2.44-.71-2.44-.88-2.26-2.3-1m-.5 28.43.19.36.46.35.75.45.94.59 1.04.69 1.05.76 1.01.76.94.74.85.7.8.65.77.65.77.65.77.66.73.62.69.58.73.63.94.89 1.05 1.11" filter="url(#a)"/><path d="m41.83-68.82-2.94 2.12-1.03-.67-.73-.51-.75-.36-.72-.55-.69-.69-.74-.6-.86-.32-1-.05-1.13.07-1.19.06-1.2-.02-1.17-.1-1.11-.1-1.03.01-.93.21-.93.52-1.22.94-2.2 1.5m21.57-1.46.46-3.83.08-2.81-.31-1.47-.42-1.18-.5-1.19-.67-.98-.86-.64-.9-.56-.79-.89-.61-1.51-.49-2.1-.48-2.51-.47-2.84-.38-3.3-.28-3.46-.75-1.59" filter="url(#a)"/><path d="m41.83-68.82-.63-1.88-.49-1.74-.45-1.19-.43-1.11-.48-1.2-.59-1.08-.74-.8-.86-.53-.94-.46-.96-.62-.94-.89-.92-1.17-.89-1.37-.81-1.52-.65-1.59-.44-1.47-.26-1.07-.13-.6L41.04-69.8l.04-3.85 1.07-3.72.37-2.5-.32-1.58-.67-1.12-.75-.97-.77-.93-.84-.88-.93-.92-.98-1.12-.94-1.46-.82-1.86-.65-2.2-.42-2.52-.17-2.76-.09-2.79-.49-2.54-1.72-2.75 5.07 33.04-.19 1.79-.01 1.93.18 1.4.32 1.17.47 1.09.56 1.06.51 1.11.36 1.23.18 1.34.11 1.34.19 1.22.29 1.13.26 1.35.11 1.95.39 2.85 11.29-4.71-.68-1.23-.85-1.19-.83-1.13-.8-1.11-.8-1.1-.82-1.1-.81-1.04-.79-.94-.76-.83-.73-.76-.71-.74-.7-.77-.74-.8-.76-.84-.77-.8-.77-.73-.75-.64-.74-.6-.83-.68-1.03-.87-1.58-1.28" filter="url(#a)"/><path d="m32.6-76.97.91.15 1.46-.4 1.48-.83 1.39-.77 1.34-.51 1.37-.36 1.48-.51 1.68-.86 1.86-1.14 1.91-1.04 1.73-.49 1.36.29 1.01.87.89.78 1.03.09.87.53" filter="url(#a)"/><path d="m28.54-79.76 1.18.84 1.16.88 1.08.9.97.91.86.86.79.79.75.73.75.68.76.66.76.67.74.68.73.73.73.79.71.85.7.89.66.9.63.87.62.82.64.79.7.81.78.91.86 1.12.9 1.32.67 1.02-20.01-20.67 1.09.04 1.52-.43 1.6-.4 1.5-.09 1.33.17 1.18.32.99.46.85.6.82.63.98.41 1.23-.05 1.44-.55 1.46-.73 1.39-.37 1.46.31 1.79.24-20.85-.75-.79-.51-1.24-.45-1.14-.37-1.04-.31-.98-.29-.94-.32-.9-.37-.89-.41-.9-.39-.89-.29-.88-.16-.89-.06-.94-.05-.94-.04-.75.05-.43.33" filter="url(#a)"/><path d="m50.35-82.51-1.38.98-1.81.59-1.82.69-1.62.66-1.39.41-1.22.07-1.12-.15-1.08-.18-1.11-.09-1.19.06-1.28.12-1.34.03-1.31-.22-1.18-.59-.99-.97-.76-1.19-.56-1.06-.52-.23-1.32 2.92-3.51-1.79.1-2.59-.9-.99-.98-.47-.88-.76-.78-1.25-.73-1.51-.74-1.36-.81-.95-.9-.54-.95-.35-.96-.42-.93-.61-.91-.78-.88-.88-.88-.94-.9-1.03-1-1.08-1.22-.95-1.44-.65-1.49-.5-1.14-.9-.38-1.87 20.01 21.35.72-1.49 1.71-2.17 1.45-.77.85.72.54 1.4.62 1.28.94.72 1.31.05 1.62-.46 1.74-.69 1.69-.65 1.53-.55 1.45-.63 1.57-.96 1.93-1.4 2.48-2.83" filter="url(#a)"/><path d="m24.15-82.48-1.96-.34-1.13.13-.98.32-1.05.43-1.06.36-.96.13-.87-.07-.86-.08-.9.13-.94.43-.96.66-.98.77-1.07.82-1.1.85-.74.99 12.67-6.68-1.91.29-1.34.22-.9-.34-.77-.53-.81-.38-.9-.05-.95.34-1 .69-1 .97-1 1.11-.97 1.12-.94 1.02-.98.8-1.1.51-1.21.21-1.16.11-.9.58L3-75.34l16.09-9.26 1.8-1.36 1.32-1.74 1.18-.83 1.12-.06 1.02.51.98.78 1.01.63 1.08.23 1.15-.2 1.19-.39 1.24-.28h1.31l1.41.19 1.49-.08 1.39-1.11" filter="url(#a)"/><path d="m18.06-85.28-.77-.42-.55-.72-.71-1.06-.8-1.08-.83-.88-.84-.74-.84-.87-.79-1.2-.75-1.55-.75-1.74-.89-1.76-1.15-1.71-1.38-1.78-1.37-1.78-1.05-1.4-.38-1.7m12.36 20.23v-.02l-.87-.24-1.01-.17-.96-.07-.93-.02-.92-.02-.91-.04-.91-.07-.96-.09-1.03-.08-1.08-.07-1.1-.04-1.07-.01-.99.02-.93.05-.9.07-.93.09-.97.11-1 .12-.96.14-.9.16-.93.18-1.05.25-.98.46m22.29-.71 1.28.47 1.14.72.89.97.68 1.26.59 1.48.62 1.45.74 1.18.83.84.86.65.78.7.63.91.52 1.18.47 1.4.46 1.65.4 1.96.29 2.33.26 2.49.81 2.2" filter="url(#a)"/><path d="m2.45-89.87.17.01.58.13.79.15 1.01.19 1.2.24 1.22.31 1.12.37.98.4.88.39.85.36.86.32.87.29.88.27.92.29.98.32.84.33-.03.06L.98-91.85l.97-.25.63.33.63.53.78.52.99.39 1.17.24 1.26.11 1.18.06 1.01.16.86.39.79.68.83.86.81.79.61.48.28.2-4.03-.96.73-.03 1.2-.53 1.27-1.25 1.24-1.51 1.18-1.17 1.07-.51.99.07.98.25 1.06.07 1.17-.28 1.25-.57 1.3-.68 1.32-.63 1.36-.55 1.4-.52 1.45-.48 1.43-.37 1.34-.15 1.19.04 1.14.01 1.34-.41 1.77-.94 1.79-.18" filter="url(#a)"/><path d="m5.76-88.23-.98.07-.81.19-.73.26-.75.18-.85.08-.95.07-1.01.1-1 .14-.98.14-.97.13-.99.13-1.05.15-1.11.23-1.14.31-1.14.38-1.08.42-1.01.42-.99.43-.96.44-.9.43-.7.4-.6.44 19.63-5.42-.82-.35-.62-.58-.67-.56-.83-.53-1-.7-1.1-1.08-1.12-1.68-1.11-2.4-1.15-3-1.2-3.12-1.28-2.55-1.43-1.55-1.64-.85-1.87-1.21-1.7-2.59-.68-4.51 29.63 44-.8-.49-.31-1.98-.3-1.94-.5-1.49-.65-1.07-.7-.97-.68-1.14-.67-1.3-.67-1.23-.68-.95-.69-.66-.78-.63-1.07-.84-1.48-.99-1.43-1.06 1.53.31 1.51.74 1.05 1.01.75 1.19.67 1.17.71.98.77.72.8.55.81.5.8.52.8.48.82.38.84.3.84.32.81.51.74.78.68 1.02.65 1.12.69 1.05.74.95.88 1.06 1.5 1.45" filter="url(#a)"/><path d="m-13.75-80.65.41-.56.88-.62.97-.65.93-.7.94-.73 1.03-.71 1.11-.65 1.12-.55 1.09-.39 1.02-.21.97-.09.94-.05.97-.15 1.02-.32 1.05-.45 1-.44.83-.29.64-.12.34-.04.01.02.57-3.67 1.16-.82 1.58-1.47 1.57-1.7 1.35-1.21 1.12-.53.99.05.93.41.95.54.99.41 1.08.02 1.19-.57 1.33-1.19 1.42-1.63 1.5-1.77 1.52-1.63 1.53-1.34 1.51-1.07 1.51-.91 1.58-.99 1.67-1.25 1.47-1.08 1.03-.2" filter="url(#a)"/><path d="m2.41-88.23-1.6.04-1.4.28-1.05.73-.88 1.12-.84 1.23-.9 1.15-.95 1.09-.99 1.16-1 1.22-.98 1.14-.97.84-.96.42-.94.05-.89-.1-.8.02-.69.38-.59.79-.59 1.09-.67 1.21-.77 1.17-.79 1.16-.5 1.37.49 1.7M2.41-88.23l-1.6-1.5-1.44-1.38-1.12-.7-.98-.84-1.01-1.32-1.11-1.51-1.19-1.1-1.27-.4-1.33.11-1.35.04-1.33-.53-1.34-1.24-1.45-1.78-1.56-1.94-1.45-1.69-.9-1.7" filter="url(#a)"/></g><path fill="none" stroke="#000" stroke-linejoin="round" stroke-width="3" d="M-10.43 6.36Q10.86 3.075.215-5.332" filter="url(#a)"/><path fill="#D77F8C" stroke="#000" stroke-linejoin="round" stroke-width="3" d="m-42.65 81.65.92-.94.91-.93.9-.93.89-.91.88-.91.87-.9.87-.89.85-.87.84-.87.84-.86.82-.84.82-.84.81-.82.81-.81.79-.8.79-.79.78-.77.78-.76.77-.75.76-.73.76-.72.75-.7.75-.7.74-.67.73-.66.74-.65.72-.63.73-.61.71-.6.72-.58.71-.56.71-.55.71-.53.7-.51.7-.49.7-.48.7-.45.69-.44.7-.42.69-.39.69-.38.69-.36.69-.34.69-.31.69-.3.69-.27.7-.25.69-.23.69-.21.7-.19.69-.16.7-.14.7-.11.7-.1.71-.06.7-.05.71-.02.72.01.71.03.73.06.72.08.73.11.73.14.74.16.75.19.75.22.75.24.76.27.77.3.77.33.78.36.78.39.8.42.8.44.8.48.82.51.82.53.83.57.84.6.85.63.86.67.87.69.87.73.89.76.89.8.91.82.92.86.92.9.94.93.95.96.96 1 .97 1.03.99 1.07.99 1.11 1.01 1.14 1.02 1.17 1.04 1.22 1.05 1.25 1.06 1.29 1.07 1.32-1.07-1.32-1.06-1.29-1.05-1.25-1.04-1.22-1.02-1.17-1.01-1.14-.99-1.11-.99-1.07-.97-1.03-.96-1-.95-.96-.94-.93-.92-.9-.92-.86-.91-.82-.89-.8-.89-.76-.87-.73-.87-.69-.86-.67-.85-.63-.84-.6-.83-.57-.82-.53-.82-.51-.8-.48-.8-.44-.8-.42-.78-.39-.78-.36-.77-.33-.77-.3-.76-.27-.75-.24-.75-.22-.75-.19-.74-.16-.73-.14-.73-.11-.72-.08-.73-.06-.71-.03-.72-.01-.71.02-.7.05-.71.06-.7.1-.7.11-.7.14-.7.16-.69.19-.69.21-.69.23-.7.25-.69.27-.69.3-.69.31-.69.34-.69.36-.69.38-.69.39-.7.42-.69.44-.7.45-.7.48-.7.49-.7.51-.71.53-.71.55-.71.56-.72.58-.71.6-.73.61-.72.63-.74.65-.73.66-.74.67-.75.7-.75.7-.76.72-.76.73-.77.75-.78.76-.78.77-.79.79-.79.8-.81.81-.81.82-.82.84-.82.84-.84.86-.84.87-.85.87-.87.89-.87.9-.88.91-.89.91-.9.93-.91.93" filter="url(#a)"/></svg>