<svg xmlns="http://www.w3.org/2000/svg" width="500" height="500" viewBox="-100 -100 200 200"><defs><clipPath id="c"><path d="m33.36-4.87.12-.12.07-.14.03-.16-.03-.17-.07-.18-.13-.19-.17-.2-.22-.21-.27-.2-.33-.21-.36-.2-.42-.19-.46-.19-.51-.18-.56-.18-.4-.42-.49-.39-.56-.36-.64-.33-.71-.28-.78-.25-.85-.21-.92-.17-.98-.13-1.03-.1-1.09-.05-1.14-.02-1.18.02-1.23.06-1.27.09-1.29.13-1.33.16-1.35.19-1.36.22-1.39.24-1.39.28-1.4.29-1.4.32-1.4.34-1.4.36-1.38.38-1.37.39-1.35.41-1.34.41-1.31.43-1.28.44-1.26.44-1.22.46-1.2.45-1.16.46-1.12.46-1.08.47-1.04.46-1.01.46-.96.46-.92.46-.89.46-.84.45-.8.45-.76.45-.72.44-.68.44-.65.43-.61.43-.58.43-.55.42-.52.42-.48.42-.45.41-.41.42-.39.41-.36.4-.32.41-.3.4-.27.41-.24.4-.21.39-.19.4-.17.4.21 3.31.39.21.41.2.42.19.43.18.44.17.46.16.46.15.48.13.48.12.5.1.51.09.51.07.53.05.54.03.55.02h.57l.57-.02.59-.03.61-.06.61-.08.63-.11.64-.13.66-.16.66-.18.68-.21.69-.25.71-.27.71-.3.73-.32.74-.36.75-.38.76-.41.77-.43.78-.46.79-.47.81-.5.81-.51.82-.53.84-.54.84-.55.85-.56.86-.56.87-.57.87-.56.89-.56L3 3.7l.9-.54.91-.52.91-.51.93-.48.92-.45.93-.43.94-.39.94-.37.95-.32.95-.28.95-.24.95-.2.96-.15.95-.11.95-.05.96-.01.94.04.95.08.8-.17.79-.16.79-.15.78-.14.77-.13.77-.12.75-.11.75-.1.73-.1.73-.11.71-.1.69-.11.68-.11.66-.12.64-.14"/></clipPath><clipPath id="b"><path d="m-31.82-4.22-.34-.31-.28-.31-.22-.33-.15-.34-.1-.34-.04-.35.02-.34.08-.34.14-.34.2-.33.25-.32.31-.3.36-.29.42-.28.47-.26.32-.56.4-.52.48-.47.57-.42.65-.38.73-.32.8-.28.88-.22.94-.18 1.01-.12 1.07-.08 1.12-.03 1.17.02 1.23.06 1.26.11 1.3.14 1.33.19 1.35.23 1.38.26 1.4.29 1.4.33 1.42.35 1.41.38 1.42.41 1.41.43 1.39.45 1.39.46 1.36.49 1.35.49 1.31.51 1.29.52 1.26.52 1.23.53 1.19.54 1.15.53 1.11.54 1.07.54 1.02.53.99.54.93.53.89.52.85.52.8.52.76.51.71.5.66.5.63.49.58.48.55.47.51.48.47.46.43.46.4.46.35.45.33.44.28.44.25.44.21.43.19.42.14.43.12.42.08.41.06.42.02.4 1.81 1.71-.41.16-.42.16-.42.16-.43.15-.45.14-.45.13-.45.13-.47.12-.47.11-.48.1-.49.09-.49.07-.5.07-.51.06-.51.04-.52.04-.54.02-.54.01h-.55l-.56-.01-.56-.03-.58-.05-.58-.06-.58-.08-.6-.1-.6-.11-.61-.14-.61-.15-.62-.17-.63-.19-.63-.21-.64-.22-.65-.24-.66-.26-.66-.27-.67-.28-.69-.3-.69-.31-.7-.32-.71-.33-.72-.33-.73-.34-.74-.35-.76-.35-.76-.35-.79-.34-.79-.35-.81-.34-.83-.34-.84-.32-.86-.32-.87-.3-.89-.3-.91-.28-.92-.26-.94-.24-.96-.23-.97-.21-.99-.19-1.01-.17-1.02-.15-1.04-.12-1.04-.11-1.06-.1-.85-.24-.84-.25-.85-.26-.84-.25-.85-.27-.85-.27-.85-.27-.84-.29-.84-.31-.83-.31-.82-.34-.82-.35-.8-.37-.79-.4-.77-.43"/></clipPath><filter id="a"><feTurbulence baseFrequency=".05" numOctaves="3" result="noise" type="noise"/><feDisplacementMap in="SourceGraphic" in2="noise" scale="2"/></filter></defs><rect width="100%" height="100%" x="-100" y="-100" fill="#E0B0FF"/><path fill="#E2725B" stroke="#000" stroke-linejoin="round" stroke-width="1.667" d="M76.08-1.65 76 .7v1.49l.24 1.36-.17 1.63-.04 1.8.1-.96-.37 4.43-.08.37-.42.51.04.38-.36 4.11.35-1.58-.57 1.82-.09 1.66-.94 3.03.06.06-.69 2.62.43-.44-1.29 3.49.34.09-.53.77-.4.97-.53 2.58-.88 1.85-.26.9-.25.76.29-1.18-1.47 3.82.24-.39-1.06 1.74-.34.72.08-.06-1.12 2.34-.3 1.09-1.33 1.88-.15.97-1.66 2.29-.18.08-.63 1.66-.3.19-1.33 2.22-.09-.43-.71 1.5-1.17 1.57-.5.44-.81 1.17-1.83 2.17-.31.16.18.02-1.91 2.19-.35.29-1.42 1.49-.52.51.52-.36-2.09 2.25.33-.46-2.36 1.98-1.53 1.35-.95.94.22-.21-.15.14-.91.63-2 1.27L40.33 72l-.56.24-.22.32-2.45 1.38-.01.03-.19.25-.71.38-1.65.86-1.84.99-.26.37-1.61.62-1.68.75-1.12.68-2.32.7.7-.13-2.35.96-.31.12-1.58.52-.66.31-1.96.68 1.5-.6-2.71.72-2.17.8-.65-.06-1.36.5h-.26l-2.15.57-.44-.18-3.65.58.18-.19 1.43-.11-3.47.54-1.22.09-.99-.13-1.33.04-1.43.05-1.42.02-.71.16.98-.07-2.6-.04-3.45-.08-.19-.29.1.28-.56-.2-2.05-.37-.43.09-1.41-.43-1.8-.08-3.18-.72 1.07.3-1.28-.41-1.47-.43-1.58-.45-1.15-.28-.26.07-.53-.24-1.44-.66-1.85-.38-1.11-.49-.97-.33-1.76-1.1-.23.11-1.18-.47-1.76-.92-1.34-.7-1.25-.37-1.39-1.01-.91-.43-.91-.96 1.14.72-2.02-1.09-.43-.15-1.99-1.52-.43-.28-1.72-1.28-.66-.11-2.22-2.26-.82-.39-2.04-1.77.51.41-.59-.52-.2-.4-1.38-1.14-1.08-1.23-2.36-2.44-.83-.74.15.01-.56-.54.62.5-2.31-2.78-.33.11-1.65-2.42.57.98-1.63-2.54-.76-.8-.09-.59.15.42-2.75-4.2.25.33-.82-1.12-.61-.95-1.3-2.91-.05.44-.82-1.79-1.04-1.69.27.37-.21-.28-1.14-2.26-1.38-3.36.73 1.16-1.19-2.43.26.38-1.24-3.37-.44-.83.26.4-.43-1.62-.39-.92-.93-2.65.25-.57-.16.26-1.05-4.37.02.87-.42-3.09-.09-.52-.52-2.17-.12-1.19-.02-.81-.59-3.22.18 1.02.05-1.83-.28-.61V6.63l-.15-1.39-.32-2.22.38.04-.18-.86-.18-1.93-.12-2.08.19.57.03-2.08.28-1.89.01-1.28.31-2.43-.18-.85.07-1.14.31-.19.11-2.59.33-1.58.34-1.34.1-.42-.06-1.01.3-.06.34-2.65.31-1.66.31-1.04.21-1.07.89-2.07.58-2.92-.53 1.9.67-1.77 1.19-3.65-.33 1.09 1.32-3.39.25-.16-.6 1.34 1.63-4.31.08.25.27-.83.27-.93 1.33-2.7 1.45-1.8-.02-.33.3-.64.1.22 1.88-3.5-.03.23.92-1.78.86-.88.01-.15 2.12-2.88-1.07 1.18 1.5-2.03.69-.72 1.03-1.35.92-1.27.82-.5-.78.39 3.33-3.33.73-.85-.19.03.72-.51.72-.66 1.39-1.47.12-.24 1.54-1.3 1.58-1.1v-.2l1.98-1.52.95-.78-.05-.16 1.78-.99 1.4-1.15.37-.23 1.31-.78-.24.19 2.7-1.76-.58.43 3.42-1.77-.44.18 2.52-1.28.67-.5 1.07-.45.91-.42 1.13-.35.9-.45-.05-.15.87-.21 1.86-.73.9-.09.04-.03 3.81-1.36.27.07 1.21-.43.59.07 2.83-.62 1.21-.23.37-.24 3.09-.29-2.63.11.49.17 3.17-.57 1.54-.09.32-.09 2.2-.03.9-.06.18.02 3.44-.22 1.5.27.2-.26-.24.27.77-.12 4.24.49-.69-.18-.05.13 2.35.25 1.43.06.64.25 1.89.06.6.22 1.41.41 3.37.56-.69.05 1.43.43 1 .27.79.08 1.2.54 2.89.85.4.51-.42-.28 1.73.73 2.32.84.92.49.68.39 1.67.63.25.38.38.2 1.2.54 2.16 1.36-.65-.64 1.78 1.33.73.53 1.16.95 1.41.5.99.69 1.48 1.48 1.46 1.04 1.28.97-1.04-.85.54.32 1.01 1.03 3.1 2.74-.98-.64.95.91 1.39 1.06.64.8 1.55 1.33.84 1.25.26.1.44.23 2.36 2.87.8 1.36-.34-.59 1.94 2.76.02-.1 1.19 1.76.36.09.15.86-.1-.2 1.99 2.71.4.7 1.31 2.42.23.02 1.07 1.74.63 1.75.09.38 1.43 2.78-.94-1.85 1.99 3.98-.64-.73 1.74 3.88-.68-1.94.85 2.37.82 2.55.2.96.6.6-.47-1 .93 3.95-.03-1.42.26 2.28.6 1.12.53 2.08.36 2.23.3 1.65.05.35.37 2.03.33 1.14-.27.7.12-.1.48 3.15.13 1.54.24 1.07-.1 1.39-.08-.87.12 2.83v2.22l.09 1.38.04-1.15L76 .7" filter="url(#a)"/><path fill="#fff" d="m-31.82-4.22-.34-.31-.28-.31-.22-.33-.15-.34-.1-.34-.04-.35.02-.34.08-.34.14-.34.2-.33.25-.32.31-.3.36-.29.42-.28.47-.26.32-.56.4-.52.48-.47.57-.42.65-.38.73-.32.8-.28.88-.22.94-.18 1.01-.12 1.07-.08 1.12-.03 1.17.02 1.23.06 1.26.11 1.3.14 1.33.19 1.35.23 1.38.26 1.4.29 1.4.33 1.42.35 1.41.38 1.42.41 1.41.43 1.39.45 1.39.46 1.36.49 1.35.49 1.31.51 1.29.52 1.26.52 1.23.53 1.19.54 1.15.53 1.11.54 1.07.54 1.02.53.99.54.93.53.89.52.85.52.8.52.76.51.71.5.66.5.63.49.58.48.55.47.51.48.47.46.43.46.4.46.35.45.33.44.28.44.25.44.21.43.19.42.14.43.12.42.08.41.06.42.02.4 1.81 1.71-.41.16-.42.16-.42.16-.43.15-.45.14-.45.13-.45.13-.47.12-.47.11-.48.1-.49.09-.49.07-.5.07-.51.06-.51.04-.52.04-.54.02-.54.01h-.55l-.56-.01-.56-.03-.58-.05-.58-.06-.58-.08-.6-.1-.6-.11-.61-.14-.61-.15-.62-.17-.63-.19-.63-.21-.64-.22-.65-.24-.66-.26-.66-.27-.67-.28-.69-.3-.69-.31-.7-.32-.71-.33-.72-.33-.73-.34-.74-.35-.76-.35-.76-.35-.79-.34-.79-.35-.81-.34-.83-.34-.84-.32-.86-.32-.87-.3-.89-.3-.91-.28-.92-.26-.94-.24-.96-.23-.97-.21-.99-.19-1.01-.17-1.02-.15-1.04-.12-1.04-.11-1.06-.1-.85-.24-.84-.25-.85-.26-.84-.25-.85-.27-.85-.27-.85-.27-.84-.29-.84-.31-.83-.31-.82-.34-.82-.35-.8-.37-.79-.4-.77-.43" filter="url(#a)" transform="translate(45.53 -24.83)"/><path fill="#fff" d="m33.36-4.87.12-.12.07-.14.03-.16-.03-.17-.07-.18-.13-.19-.17-.2-.22-.21-.27-.2-.33-.21-.36-.2-.42-.19-.46-.19-.51-.18-.56-.18-.4-.42-.49-.39-.56-.36-.64-.33-.71-.28-.78-.25-.85-.21-.92-.17-.98-.13-1.03-.1-1.09-.05-1.14-.02-1.18.02-1.23.06-1.27.09-1.29.13-1.33.16-1.35.19-1.36.22-1.39.24-1.39.28-1.4.29-1.4.32-1.4.34-1.4.36-1.38.38-1.37.39-1.35.41-1.34.41-1.31.43-1.28.44-1.26.44-1.22.46-1.2.45-1.16.46-1.12.46-1.08.47-1.04.46-1.01.46-.96.46-.92.46-.89.46-.84.45-.8.45-.76.45-.72.44-.68.44-.65.43-.61.43-.58.43-.55.42-.52.42-.48.42-.45.41-.41.42-.39.41-.36.4-.32.41-.3.4-.27.41-.24.4-.21.39-.19.4-.17.4.21 3.31.39.21.41.2.42.19.43.18.44.17.46.16.46.15.48.13.48.12.5.1.51.09.51.07.53.05.54.03.55.02h.57l.57-.02.59-.03.61-.06.61-.08.63-.11.64-.13.66-.16.66-.18.68-.21.69-.25.71-.27.71-.3.73-.32.74-.36.75-.38.76-.41.77-.43.78-.46.79-.47.81-.5.81-.51.82-.53.84-.54.84-.55.85-.56.86-.56.87-.57.87-.56.89-.56L3 3.7l.9-.54.91-.52.91-.51.93-.48.92-.45.93-.43.94-.39.94-.37.95-.32.95-.28.95-.24.95-.2.96-.15.95-.11.95-.05.96-.01.94.04.95.08.8-.17.79-.16.79-.15.78-.14.77-.13.77-.12.75-.11.75-.1.73-.1.73-.11.71-.1.69-.11.68-.11.66-.12.64-.14" filter="url(#a)" transform="translate(-30.9 -25.78)"/><g fill="none" stroke="#000" transform="translate(45.53 -24.83)"><path stroke-linejoin="round" stroke-width="1.667" d="m-25.23-3.03-.9.1-.85.04-.8-.01-.75-.08-.69-.11-.64-.16-.58-.2-.51-.23-.47-.26-.4-.28-.34-.31-.28-.31-.22-.33-.15-.34-.1-.34-.04-.35.02-.34.08-.34.14-.34.2-.33.25-.32.31-.3.36-.29.42-.28.47-.26.32-.56.4-.52.48-.47.57-.42.65-.38.73-.32.8-.28.88-.22.94-.18 1.01-.12 1.07-.08 1.12-.03 1.17.02 1.23.06 1.26.11 1.3.14 1.33.19 1.35.23 1.38.26 1.4.29 1.4.33 1.42.35 1.41.38 1.42.41 1.41.43 1.39.45 1.39.46 1.36.49 1.35.49 1.31.51 1.29.52 1.26.52 1.23.53 1.19.54 1.15.53 1.11.54 1.07.54 1.02.53.99.54.93.53.89.52.85.52.8.52.76.51.71.5.66.5.63.49.58.48.55.47.51.48.47.46.43.46.4.46.35.45.33.44.28.44.25.44.21.43.19.42.14.43.12.42.08.41.06.42.02.4v.41l-.04.41-.06.4-.08.4-.11.4-.14.39-.16.4-.18.39-.2.39-.22.4" filter="url(#a)"/><path stroke-linejoin="round" stroke-width="2.222" d="m-36.53-8.44.48.89.53.83.57.77.6.71.63.65.67.61.69.57.71.52.74.49.76.45.77.43.79.4.8.37.82.35.82.34.83.31.84.31.84.29.85.27.85.27.85.27.84.25.85.26.84.25.85.24 1.06.1 1.04.11 1.04.12 1.02.15 1.01.17.99.19.97.21.96.23.94.24.92.26.91.28.89.3.87.3.86.32.84.32.83.34.81.34.79.35.79.34.76.35.76.35.74.35.73.34.72.33.71.33.7.32.69.31.69.3.67.28.66.27.66.26.65.24.64.22.63.21.63.19.62.17.61.15.61.14.6.11.6.1.58.08.58.06.58.05.56.03.56.01h.55l.54-.01.54-.02.52-.04.51-.04.51-.06.5-.07.49-.07.49-.09.48-.1.47-.11.47-.12.45-.13.45-.13.45-.14.43-.15.42-.16.42-.16.41-.16.39-.17.39-.18.38-.18.37-.18.36-.18.35-.19.35-.18.33-.19.32-.19.32-.2" filter="url(#a)"/><circle cx="-24.657" cy="-1.812" r="3.554" clip-path="url(#b)" filter="url(#a)"/><circle cx="-25.702" cy="-2.752" r="4.57" clip-path="url(#b)" filter="url(#a)"/><circle cx="-23.562" cy="-2.557" r="4.312" clip-path="url(#b)" filter="url(#a)"/><circle cx="-27.112" cy="-3.882" r="3.82" clip-path="url(#b)" filter="url(#a)"/><circle cx="-23.907" cy="-.207" r="4.888" clip-path="url(#b)" filter="url(#a)"/><circle cx="-22.822" cy="-3.317" r="4.506" clip-path="url(#b)" filter="url(#a)"/><circle cx="-25.557" cy="-.522" r="4.334" clip-path="url(#b)" filter="url(#a)"/><circle cx="-24.447" cy="-.157" r="4.484" clip-path="url(#b)" filter="url(#a)"/><circle cx="-25.657" cy="-.347" r="3.234" clip-path="url(#b)" filter="url(#a)"/><circle cx="-25.192" cy="-1.267" r="4.152" clip-path="url(#b)" filter="url(#a)"/></g><g fill="none" stroke="#000" transform="translate(-30.9 -25.78)"><path stroke-linejoin="round" stroke-width="2.222" d="m29.7-5.78.55.33.51.26.47.21.43.14.4.1.35.05h.3l.27-.03.21-.06.17-.09.12-.12.07-.14.03-.16-.03-.17-.07-.18-.13-.19-.17-.2-.22-.21-.27-.2-.33-.21-.36-.2-.42-.19-.46-.19-.51-.18-.56-.18-.4-.42-.49-.39-.56-.36-.64-.33-.71-.28-.78-.25-.85-.21-.92-.17-.98-.13-1.03-.1-1.09-.05-1.14-.02-1.18.02-1.23.06-1.27.09-1.29.13-1.33.16-1.35.19-1.36.22-1.39.24-1.39.28-1.4.29-1.4.32-1.4.34-1.4.36-1.38.38-1.37.39-1.35.41-1.34.41-1.31.43-1.28.44-1.26.44-1.22.46-1.2.45-1.16.46-1.12.46-1.08.47-1.04.46-1.01.46-.96.46-.92.46-.89.46-.84.45-.8.45-.76.45-.72.44-.68.44-.65.43-.61.43-.58.43-.55.42-.52.42-.48.42-.45.41-.41.42-.39.41-.36.4-.32.41-.3.4-.27.41-.24.4-.21.39-.19.4-.17.4-.14.39-.11.4-.1.39-.07.39-.05.4-.03.39-.01.39v.4l.03.39.04.39" filter="url(#a)"/><path stroke-linejoin="round" stroke-width="2.222" d="m35.97-6.2-.36.52-.4.47-.44.4-.46.36-.5.31-.52.26-.56.24-.57.2-.6.18-.63.16-.64.14-.66.12-.68.11-.69.11-.71.1-.73.11-.73.1-.75.1-.75.11-.77.12-.77.13-.78.14-.79.15-.79.16-.8.17-.95-.08-.94-.04-.96.01-.95.05-.95.11-.96.15-.95.2-.95.24-.95.28-.95.32-.94.37-.94.39-.93.43-.92.45-.93.48-.91.51-.91.52-.9.54-.89.54-.89.56-.87.56-.87.57-.86.56-.85.56-.84.55-.84.54-.82.53-.81.51-.81.5-.79.47-.78.46-.77.43-.76.41-.75.38-.74.36-.73.32-.71.3-.71.27-.69.25-.68.21-.66.18-.66.16-.64.13-.63.11-.61.08-.61.06-.59.03-.57.02H-20l-.55-.02-.54-.03-.53-.05-.51-.07-.51-.09-.5-.1-.48-.12-.48-.13-.46-.15-.46-.16-.44-.17-.43-.18-.42-.19-.41-.2-.39-.21-.39-.22-.38-.22-.36-.23-.36-.23-.34-.24-.33-.24-.32-.24-.31-.25-.31-.24-.29-.25" filter="url(#a)"/><circle cx="13.383" cy="-2.858" r="4.094" clip-path="url(#c)" filter="url(#a)"/><circle cx="15.918" cy="-7.008" r="4.612" clip-path="url(#c)" filter="url(#a)"/><circle cx="13.583" cy="-5.308" r="4.294" clip-path="url(#c)" filter="url(#a)"/><circle cx="12.573" cy="-2.878" r="3.494" clip-path="url(#c)" filter="url(#a)"/><circle cx="14.733" cy="-2.818" r="4.314" clip-path="url(#c)" filter="url(#a)"/><circle cx="13.393" cy="-2.663" r="4.718" clip-path="url(#c)" filter="url(#a)"/><circle cx="16.693" cy="-2.793" r="4.184" clip-path="url(#c)" filter="url(#a)"/><circle cx="15.313" cy="-6.373" r="3.356" clip-path="url(#c)" filter="url(#a)"/><circle cx="14.483" cy="-6.833" r="3.106" clip-path="url(#c)" filter="url(#a)"/><circle cx="15.818" cy="-7.083" r="3.662" clip-path="url(#c)" filter="url(#a)"/></g><g fill="none" stroke="#556B2F" stroke-linejoin="round" stroke-width="2"><path d="m64.92-44.69.85 1.57.61 1.34.5 1.11.42.95.34.82.26.69.17.53.05.35-.08.13-.22-.12-.39-.42-.59-.8-.83-1.23-1.07-1.69-1.35-2.14-1.63-2.61-1.92-3.05-2.13-3.43-2.27-3.76M45.41-68.16l1.24 1.27.85 1.07.31.75-.06.6-.34.54-.64.5-.96.44-1.32.36-1.7.29-2.1.22-2.51.15-2.97.05-3.47-.05-3.99-.18-4.54-.32-5.1-.46-5.64-.6-6.17-.72-6.67-.83-7.14-.93-7.64-1.04-8.26-1.13-9.07-1.19" filter="url(#a)"/><path d="m44.87-68.48.69.6.82.93.53.84.15.63-.19.48-.48.39-.77.29-1.12.2-1.51.1-1.92-.01-2.35-.12-2.81-.22-3.29-.36-3.8-.51-4.32-.7-4.86-.9-5.38-1.11-5.88-1.34-6.35-1.54-6.81-1.72-7.31-1.87-7.92-2.02m8.25-7.41 1.55-.07.9.16 1.55.27 2.24.35 2.68.44 2.93.56 3.1.66 3.24.75 3.35.81 3.43.86 3.42.9 3.37.93 3.33.95 3.35.99 3.4 1.07 3.39 1.11 3.18 1.03 2.75.72m-7.12-5.6.42.39.84.54 1.13.69 1.23.76 1.23.79 1.21.81 1.19.8 1.14.77 1.06.71.92.63.75.52.47.34.09.06-.35-.27-.8-.6-1.16-.81-1.5-.99" filter="url(#a)"/><path d="m-13.34-83.38.97-.2.75-.13.42-.02.23.06.2.14.21.22.13.31-.05.42-.32.56-.62.7-.95.85-1.31 1-1.72 1.16-2.13 1.32-2.55 1.48-2.97 1.66-3.41 1.88-3.89 2.11-4.4 2.35-4.86 2.54-5.32 2.72-5.88 3.01m111.39 7.95.29.31.35.59.53.85.63.99.62.96.49.8.29.53.05.19-.24-.2-.55-.67-.89-1.22-1.28-1.83-1.75-2.55-2.33-3.34M-6.1-84.52l.95-.03 1.56.05 1.86.12 2.1.18 2.23.23 2.24.27 2.18.31 2.13.34 2.09.35 2.03.34 1.89.3 1.71.26 1.54.23 1.35.18 1.01.09.35-.1" filter="url(#a)"/><path d="m14.99-83.05 1.92.39.69.29.24.29-.02.32-.28.37-.61.4-1.04.43-1.54.44-2.07.45-2.62.47-3.21.5-3.86.54-4.59.57-5.41.62-6.26.65-7.1.7-7.94.81m-9.02 1.09.64-.34 1.41-.75 1.7-.83 1.87-.88 1.96-.88 1.94-.86 1.84-.79 1.64-.7 1.39-.59 1.09-.48.79-.37.44-.23v-.05l-.52.17" filter="url(#a)"/><path d="m-29.68-78.23 1.08-.42 1.22-.42 1.31-.41 1.37-.4 1.49-.4 1.64-.41 1.78-.43 1.88-.45 1.94-.45 1.92-.45 1.84-.42 1.7-.38 1.5-.33 1.23-.28.9-.23.55-.17.17-.12-.2-.06h-.5m39.14 7.5.25.32.32.37.26.43.01.43-.31.43-.66.41-1 .42-1.35.4-1.73.37-2.17.33-2.68.27-3.25.17-3.88.07-4.52-.01-5.16-.04-5.78-.04-6.42-.02-7.1-.06-7.8-.14-8.43-.24" filter="url(#a)"/><path d="m49.49-64.12 1.04.88.71.74.38.54v.26h-.4l-.77-.23-1.2-.5-1.71-.84-2.31-1.26-2.98-1.75-3.66-2.24-4.33-2.75-4.96-3.26-5.48-3.77m-56.69 1.85 1.79-.94 1.11-.57.8-.36.58-.2.36-.05.15.08-.02.22-.19.36-.34.51-.53.67-.77.86-1.07 1.09-1.42 1.34-1.82 1.61-2.25 1.89-2.69 2.2-3.17 2.51-3.68 2.83-4.18 3.11-4.71 3.45" filter="url(#a)"/><path d="m49.49-64.12.99.87.55.7.11.48-.36.21-.85-.03-1.31-.26-1.83-.49-2.41-.79-3.06-1.15-3.76-1.57-4.48-2.01-5.18-2.45-5.87-2.91-6.7-3.35-7.94-3.76" filter="url(#a)"/><path d="m24.96-80.04 1.48.71.81.7.01.66-.76.66-1.49.68-2.19.75-2.88.83-3.58.94-4.31 1.05-5.09 1.17-5.9 1.29-6.72 1.4-7.56 1.48-8.4 1.51-9.24 1.46-10.08 1.42m95.11 3.75.92.95 1.11 1.37.92 1.2.73.99.6.82.47.67.31.5.17.33.04.2-.1.08-.22-.04-.38-.2-.57-.42-.79-.68-1.04-.96-1.3-1.26-1.58-1.61-1.94-2.02-2.37-2.51-2.85-3.03-3.28-3.44" filter="url(#a)"/><path d="m-17.97-82.4 1.33-.19 1.99.03 2.49.19 2.76.38 2.92.55 3.07.73 3.28.86 3.59.96 3.93 1.05 4.22 1.12 4.42 1.19 4.52 1.25L25.1-73l4.56 1.31 4.58 1.36 4.59 1.42 4.36 1.32" filter="url(#a)"/><path d="m44.63-68.6.6.43.29.23.52.46.72.68.74.71.65.66.52.56.4.46.25.36.08.25-.1.12-.3-.02-.51-.15-.76-.32-1.02-.51-1.34-.74-1.7-1-2.07-1.29-2.44-1.58-2.78-1.87-3.11-2.14-3.52-2.43-4.15-2.78" filter="url(#a)"/><path d="m14.99-83.05 2.16.47 1.4.52 1.44.63 1.67.75 1.89.88 2.03.97 2.07 1.03 2.05 1.04 1.99 1.03 1.93 1.01 1.86.96 1.73.88 1.53.78 1.35.69 1.21.68 1.08.65.75.47m21.79 24.92.81 1.53.49 1.18.29.89.14.64-.01.46-.18.27-.38.07-.59-.17-.83-.44-1.07-.74-1.33-1.06-1.62-1.42-1.91-1.81-2.2-2.2-2.51-2.57-2.81-2.92-3.13-3.27-3.49-3.66-3.94-4.11-4.51-4.65-5.23-5.31" filter="url(#a)"/><path d="m45.41-68.16 1.16 1.27.62 1.1-.08.79-.61.66-1.05.62-1.51.62-2.03.6-2.58.55-3.16.51-3.75.5-4.38.47-5.02.43-5.7.37-6.4.27-7.1.16-7.79.03-8.47-.13-9.16-.25-9.9-.26-10.97.13m30.34-23.89.77-.2.51-.06.21.03.24.09.28.15.21.23-.03.35-.34.48-.71.63-1.09.78-1.53.95-2.02 1.13-2.58 1.33-3.13 1.54-3.66 1.75-4.18 1.98-4.73 2.2-5.32 2.41-5.9 2.58" filter="url(#a)"/><path d="m60.94-51.2-.01.53-.13.48-.4.45-.88.21-1.47-.17-2.14-.61-2.87-1.05-3.64-1.53-4.44-2.02-5.26-2.54-6.1-3.07-6.96-3.58-7.92-4.08-9.01-4.63-10.18-5.25m-29.88.33.79-.47.95-.44.97-.42.92-.39.86-.35.82-.33.82-.3.83-.29.81-.26.76-.23.66-.17.52-.11.32-.02.08.09-.21.21-.55.34-.95.48-1.37.64-1.8.81-2.18.95-2.47 1.09-2.73 1.21-3.02 1.3" filter="url(#a)"/><path d="m-12.13-83.61.79-.21.59-.11.29-.03h.3l.37.04.26.08v.16l-.37.26-.78.37-1.24.48-1.76.6-2.4.76-3.15.93-3.97 1.15-4.63 1.31" filter="url(#a)"/><path d="m-22.05-81.11 2.66-.85 1.81-.38 1.76-.24 1.94-.2 2.09-.18 2.12-.16 2.05-.13 1.95-.09 1.89-.06 1.9-.06 1.93-.05 1.94-.06 1.85-.05 1.65-.07 1.39-.07 1.09-.08.8-.07.5-.06.13-.05m33.77 14.38.96.8.04.39-.57.23-.93.33-1.27.44-1.74.49-2.3.44-2.92.36-3.56.28-4.2.21-4.89.12-5.61.02-6.37-.06-7.15-.12-7.95-.19-8.79-.28-9.68-.38-10.6-.49" filter="url(#a)"/><path d="m-25.72-80.05 1.19-.33 1.56-.4 1.77-.42 1.98-.46 2.1-.47 2.13-.46 2.07-.41 1.97-.36 1.8-.33 1.5-.28 1.08-.24.61-.16.17-.1-.21-.04" filter="url(#a)"/><path d="m-22.99-80.99 1.01-.14 1.72-.31 2.19-.37 2.43-.32 2.58-.24 2.7-.21 2.78-.19 2.78-.16 2.68-.14 2.53-.1 2.35-.08 2.18-.08 2.01-.12 1.8-.15 1.47-.12m43.95 24.14.57.87.1 1.2-.78.94-1.67.66-2.53.46-3.38.27-4.28.09-5.2-.06-6.12-.17-7.03-.23-7.94-.28-8.87-.36-9.84-.52-10.83-.79-11.81-1.14-12.75-1.49m56.55-22.36-.16.18.18.34.06.45-.2.56-.57.7-1.07.8-1.62.91-2.2 1.01-2.77 1.13-3.35 1.26-3.97 1.37-4.64 1.46-5.35 1.56-6.09 1.66-6.87 1.84-7.68 2.1-8.51 2.34-9.2 2.33M60.94-51.2l.23.7.57.98.8 1.23.82 1.29.75 1.2.61 1.05.47.87.31.66.16.44.01.22-.13-.04-.31-.31-.5-.62-.72-.99-.98-1.41-1.27-1.87-1.6-2.38-1.95-2.92-2.18-3.3" filter="url(#a)"/><path d="m60.94-51.2.18.65.46.8.58.97.52.92.36.74.13.52-.09.26-.33-.01-.6-.3-.88-.65-1.19-1-1.52-1.37-1.87-1.76-2.21-2.17-2.57-2.59L49-59.21l-3.26-3.46-3.68-3.94-4.24-4.57M9.02-84.05l1.25.13 1.29.22 1.44.28 1.56.35 1.6.4 1.55.41 1.43.4 1.31.39 1.17.35 1.05.33.89.28.7.23.48.17.2.07-.08-.02-.4-.13-.75-.24-1.1-.35-1.4-.47-1.59-.59m55.42 68.73 3.75-2.05 4.57-2.53 2.53-2.64 1.41-2.55 1.71-2.44 2-2.44 1.27-2.48-.18-2.5-1.38-2.47-1.51-2.37-.47-2.25 1.25-2.15 2.85-2.08 3.59-2.04 3.13-2.02 1.7-1.99.02-1.99-.99-2.01-.79-2.07.14-2.1.54-2.03v-1.92l-.38-1.89" filter="url(#a)"/><path d="m75.04-13.11 1.25-2.08-.65-2.56-.78-2.67-.66-2.56-.66-2.48-.75-2.48-.84-2.51-.85-2.5-.77-2.46-.67-2.37-.56-2.27-.5-2.17-.51-2.12-.56-2.07-.66-2.05-.79-2.03-.97-2.02-1.16-2.02-1.35-2-1.52-1.96-1.62-1.9-1.64-1.81-1.61-1.72-1.58-1.62L53-67.11l-1.76-1.53-2.02-1.54-2.28-1.57-2.4-1.58-2.18-1.45-1.52-1.06M.94-84.9l-4.07.17-3.3.17-2.35.23-1.99.28-2.16.36-2.69.44-3.42.53-4.09.61-4.48.69-4.56.75-4.38.82-4.11.9-3.84.99-3.62 1.07-3.53 1.14-3.63 1.18-3.99 1.23-4.61 1.27-5.29 1.33-5.71 1.39-5.57 1.47-4.88 1.53-4.11 1.6-3.96 1.68-4.83 1.75-6.12 1.81-5.7 1.79-2.02 1.97" filter="url(#a)"/><path d="m-2.5-84.68-1.77.1-2.5.2-2.7.26-2.76.34-3.02.42-3.39.51-3.68.58-3.69.63-3.4.67-2.96.7-2.55.75-2.34.82-2.44.91-2.82 1.01-3.39 1.1-4.02 1.21-4.55 1.3-4.9 1.38-5.03 1.46-4.91 1.53-4.52 1.59-3.98 1.6-3.61 1.56-3.82 1.49-4.63 1.54-7.04 2.15" filter="url(#a)"/><path d="m-7.64-84.43-2.62.34-1.98.36-2.09.45-2.4.56-2.7.65-2.87.72-2.86.79-2.68.85-2.46.94-2.26 1.02-2.19 1.1-2.25 1.17-2.43 1.22-2.63 1.26-2.82 1.32-2.91 1.38-2.89 1.44-2.77 1.52-2.6 1.58-2.44 1.66-2.29 1.72-2.19 1.78-2.15 1.83-2.1 1.86-2.06 1.88-1.97 1.9-1.85 1.91-1.76 1.94-1.73 2.03-1.84 2.16-2.07 2.3-2.33 2.39-2.5 2.35-2.51 2.03-2.5 1.51-2.89 1.48" filter="url(#a)"/><path d="m-22.99-80.99-.89.82-1.18.77-1.46.86-1.47.98-1.51 1.1-1.59 1.22-1.58 1.31-1.4 1.39-1.13 1.47-.92 1.51-.85 1.57-.98 1.6-1.2 1.63-1.39 1.67-1.44 1.7-1.3 1.76-1.01 1.82-.66 1.89-.37 1.96-.18 2.03-.13 2.08-.12 2.12-.06 2.15.14 2.16.46 2.19.84 2.23 1.11 2.27 1.13 2.33.82 2.38.28 2.45-.26 2.51-.48 2.59-.16 2.64.62 2.6 1.64 2.46 2.69 2.46 4.18 3.21" filter="url(#a)"/><path d="m-24.85-80.26-1.33.52-1.9.84-2.27 1.08-2.49 1.22-2.53 1.25-2.46 1.26-2.38 1.28-2.35 1.32-2.35 1.39-2.36 1.46-2.31 1.54-2.23 1.61-2.1 1.68-1.99 1.74-1.9 1.8-1.86 1.84-1.85 1.87-1.85 1.9-1.85 1.91-1.81 1.95-1.75 2-1.65 2.07-1.54 2.15-1.44 2.23-1.4 2.26-1.41 2.28-1.48 2.28-1.56 2.3-1.59 2.36-1.52 2.45-1.35 2.55-1.12 2.57-.91 2.52-.73 2.34-.68 1.83" filter="url(#a)"/><path d="m-25.67-79.9-2.65.88-3.54 1.13-3.09 1.27-2.45 1.28-2.13 1.26-2.07 1.26-2.06 1.3-2.08 1.37-2.15 1.45-2.27 1.53-2.46 1.6-2.67 1.68-2.87 1.73-3.01 1.79-3.06 1.84-3.01 1.87-2.86 1.88-2.69 1.89-2.54 1.92-2.44 1.95-2.38 2.04-2.31 2.15-2.27 2.26-2.25 2.31-2.35 2.28-2.54 2.18-2.75 2.12-2.81 2.29-2.5 2.64-.85 2.16" filter="url(#a)"/><path d="m-25.67-79.9-2.08.87-2.63 1.12-3.2 1.27-3.4 1.28-3.2 1.25-2.8 1.24-2.36 1.29-2 1.35-1.8 1.44-1.78 1.52-1.89 1.59-2.08 1.65-2.24 1.72-2.34 1.78-2.43 1.84-2.55 1.87-2.76 1.87-3.03 1.87-3.25 1.85-3.3 1.88-3.08 1.96-2.63 2.12-2.1 2.35-1.76 2.61-1.8 2.85-2.46 3.31" filter="url(#a)"/><path d="m-30.35-77.73-3.88 1.15-2.8 1.27-3.28 1.34-4.46 1.4-5.38 1.47-5.48 1.52-4.84 1.57-4.04 1.59-3.62 1.61-3.65 1.63-3.81 1.65-3.73 1.71-3.37 1.77-3.04 1.85-3.1 1.94-3.72 2.02-4.64 2.09-5.4 2.13-5.59 2.12-5.21 2.09-4.77 2.07-4.9 2.1-5.88 2.19-6.84 2.46-5.84 3.05m108.75-44.51-2.66 1.4-2.75 1.19-3.4 1.17-3.58 1.26-3.09 1.38-2.42 1.49-2.04 1.56-2.13 1.64-2.48 1.7-2.88 1.76-3.24 1.82-3.52 1.85-3.76 1.89-3.93 1.9-3.96 1.93-3.79 1.96-3.41 2.01-2.87 2.08-2.28 2.16-1.78 2.22-1.47 2.27-1.39 2.29-1.48 2.3-1.68 2.33-1.93 2.38-2.24 2.43-2.65 2.48-3.16 2.5-3.7 2.47-4.06 2.44-4.19 2.4-4.07 2.4-3.74 2.48-2.98 2.62-2.61 3.08m208.8-11.77-.38-2.62-.67-3.02-.55-2.68-.23-2.27.14-2.01.35-1.97.29-2.06.06-2.21-.27-2.35-.56-2.46-.77-2.48-.93-2.43-1.04-2.34-1.18-2.21-1.33-2.09-1.5-2-1.65-1.93L62.62-58l-1.82-1.86-1.78-1.82-1.65-1.77-1.49-1.69-1.34-1.6-1.32-1.51-1.43-1.43-1.62-1.37-1.81-1.32-1.89-1.28-1.9-1.22-1.92-1.14-2.05-1.03-2.4-.94" filter="url(#a)"/><path d="m-35.85-74.86-10.94 1.11-1.18 1.08-.54 1.23-1.45 1.39-2.54 1.5-3.46 1.58-4.08 1.64-4.33 1.7-4.23 1.77-3.92 1.82-3.57 1.86-3.35 1.89-3.38 1.91-3.67 1.92-4.12 1.96-4.58 2.02-4.86 2.09-4.84 2.16-4.49 2.22-3.88 2.27-3.14 2.29-2.41 2.31-1.84 2.33-1.49 2.38-1.36 2.43-1.42 2.48-1.67 2.48-2.07 2.48-2.61 2.44-3.19 2.42-3.59 2.45-3.48 2.55-2.74 2.74-2.31 3.1-4.17 3.62" filter="url(#a)"/><path d="m-39.04-72.94-3.74 1.33-7.84 1.46-7.2 1.56-4.07 1.58-1.72 1.63-.9 1.67-.98 1.75-1.22 1.81-1.38 1.86-1.47 1.88-1.62 1.88-1.88 1.88-2.3 1.89-2.85 1.95-3.57 2.03-4.45 2.15-5.46 2.25-6.39 2.3-6.94 2.26-6.79 2.19-5.97 2.17-5.03 2.28-4.77 2.52-5.53 2.59-7.42 2.62" filter="url(#a)"/><path d="m-39.41-72.71-7.13 1.74-6.69 1.58-3.35 1.64-1.16 1.65-.46 1.64-.64 1.64-1.18 1.69-1.92 1.74-2.8 1.83-3.75 1.91-4.58 1.99-5.07 2.05-5.16 2.11-4.86 2.13-4.29 2.15-3.61 2.17-2.94 2.2-2.42 2.23-2.16 2.28-2.2 2.34-2.55 2.39-3.05 2.46-3.47 2.5-3.61 2.55-3.39 2.56-2.89 2.56-2.35 2.52-2.07 2.49-2.28 2.5-3.09 2.54-4.34 2.59-5.27 2.52-3.93 2.01" filter="url(#a)"/><path d="m-42.59-70.57-1.46 1.21-2.37 1.59-2.93 1.67-3.3 1.63-3.34 1.6-3.01 1.63-2.49 1.71-2.04 1.8-1.78 1.87-1.79 1.97-1.97 2.04-2.27 2.09-2.55 2.12-2.82 2.12-3.11 2.12-3.5 2.13-3.99 2.17-4.47 2.24-4.81 2.31-4.8 2.32-4.4 2.31-3.65 2.35-2.9 2.57-2.27 2.59" filter="url(#a)"/><path d="m-42.54-70.41-4.61 1.9-3.25 1.64-4.05 1.61-4.61 1.68-4.95 1.76-5.19 1.83-5.05 1.88-4.36 1.9-3.3 1.89-2.28 1.89-1.55 1.92-1.21 1.97-1.09 2.06-1.13 2.16-1.27 2.24-1.6 2.27-2.12 2.27-2.75 2.27-3.35 2.28-3.76 2.34-3.97 2.44-4.03 2.51-4.11 2.53-4.36 2.47-4.5 2.35-3.73 2.24-.44 2.42" filter="url(#a)"/><path d="m-42.54-70.41-2.75 1.91-3.9 1.64-5.22 1.62-5.31 1.68-4.51 1.78-3.48 1.84-2.51 1.88-1.74 1.9-1.33 1.9-1.4 1.91-1.93 1.94-2.75 1.99-3.57 2.08-4.1 2.17-4.18 2.23-3.79 2.27-3.08 2.29-2.22 2.29-1.45 2.32-.94 2.36-.8 2.43-1.08 2.48-1.76 2.49-2.67 2.46-3.51 2.42-3.95 2.38-3.94 2.4-3.75 2.46-3.79 2.61-2.57 3.07m85.05-62.7-2.63 2.02-2.11 1.64-2.11 1.52-2.14 1.6-2.04 1.71-1.85 1.8-1.75 1.9-1.83 1.98-1.95 2.05-2.04 2.11-1.98 2.13-1.81 2.12-1.61 2.12-1.46 2.14-1.42 2.19-1.48 2.24-1.6 2.3-1.78 2.35-1.98 2.38-2.16 2.47-2.07 2.63-1.58 2.79-.96 2.74-1.43 1.95" filter="url(#a)"/><path d="m-47.05-66.81-8.91 1.58-3.51 1.67-1.5 1.78-1.79 1.85-2.9 1.9-3.78 1.91-4 1.89-3.61 1.87-2.77 1.89-1.79 1.95-1.03 2.05-.8 2.16-1.21 2.25-2.02 2.28-2.85 2.26-3.44 2.24-3.82 2.25-4.2 2.32-4.66 2.44-4.89 2.53-4.31 2.55-2.64 2.49-.62 2.29.02 1.8m66.73-46.05-3.13 2.86-1.85 2.01-1.46 1.93-1.39 1.9-1.42 1.85-1.55 1.87-1.73 1.94-1.93 2.06-2.1 2.19-2.18 2.27-2.16 2.29-1.99 2.27-1.71 2.25-1.39 2.28-1.15 2.35-1.06 2.42-1.15 2.48-1.34 2.49-1.48 2.44-1.47 2.38-1.3 2.34-1.09 2.35-.97 2.36-.18 2.16" filter="url(#a)"/><path d="m-55.41-58.48-1.29.97-2.78 1.8-2.57 1.93-1.92 1.88-1.54 1.89-1.42 1.99-1.39 2.12-1.3 2.23-1.12 2.3-.94 2.32-.82 2.32-.79 2.33-.85 2.36-.94 2.4-1.04 2.44-1.09 2.47-1.08 2.48-1.04 2.49-.97 2.51-.9 2.52-.84 2.56-.78 2.61-.73 2.64-.67 2.65-.56 2.65-.44 2.62-.32 2.57-.22 2.51-.17 2.47-.19 2.42-.27 2.42-.35 2.44-.34 2.54-.13 2.73.28 2.94.51 3.03.12 2.75" filter="url(#a)"/><path d="m-54.63-58.87-2.55 1.75-1.84 1.78-1.35 1.96-1.3 2.13-1.42 2.2-1.56 2.18-1.66 2.16-1.71 2.15-1.76 2.19-1.76 2.23-1.72 2.3-1.58 2.36-1.36 2.41-1.1 2.47-.84 2.51-.66 2.54-.57 2.54-.6 2.55-.72 2.52-.88 2.52-1.05 2.52-1.18 2.52-1.25 2.54-1.21 2.53-1.05 2.5-.79 2.45-.48 2.41-.31 2.33-.31 2.25-.35 2.26.01 2.96" filter="url(#a)"/><path d="m-56.37-57.1-4.49 1.77-1.42 1.91-1.01 2.16-1.46 2.24-1.95 2.2-2.18 2.14-2.09 2.13-1.82 2.17-1.58 2.22-1.49 2.29-1.66 2.35-2.06 2.41-2.58 2.46-3.04 2.5-3.28 2.54-3.22 2.55-2.87 2.53-2.35 2.52-1.89 2.5-1.63 2.5-1.66 2.53-1.94 2.53-2.22 2.54-2.24 2.51-1.87 2.46-1.28 2.44-1.27 2.49-2.75 2.52" filter="url(#a)"/><path d="m-58.52-54.18-8.08 2.8-3 2.54-1.18 2.25-.28 2.1-.13 2.08-.57 2.14-1.25 2.22-1.83 2.3-2.12 2.36-2.1 2.41-1.82 2.46-1.43 2.51-1.06 2.54-.85 2.55-.83 2.53-1 2.51-1.21 2.5-1.34 2.5-1.29 2.52-1.1 2.53-.87 2.52-.7 2.5-.66 2.45-.74 2.4-.91 2.32-.89 2.08.18 1.38" filter="url(#a)"/><path d="m-61.51-50.27-2.52 1.95-.96 2.3-.9 2.45-1.12 2.47-1.27 2.38-1.28 2.3-1.18 2.28-1.01 2.33-.84 2.39-.74 2.46-.69 2.49-.69 2.49-.71 2.49-.73 2.49-.72 2.52-.67 2.56-.61 2.6-.51 2.64-.42 2.65-.3 2.64-.19 2.61-.08 2.55.01 2.51.05 2.46.07 2.44.09 2.43.14 2.48.23 2.55.35 2.66.39 2.71.32 2.64.22 2.36.26 2 .62 2.23" filter="url(#a)"/><path d="m-66.11-42.67-7.34 2.69-4.69 2.24-3.46 2.35-4.63 2.41-5.88 2.44-5.46 2.47-3.57 2.53-1.47 2.57-.21 2.57-.08 2.53-.73 2.52-1.51 2.5-1.93 2.5-1.83 2.52-1.47 2.51-1.18 2.5-1.22 2.47-1.57 2.45-2.06 2.42-2.47 2.44-2.74 2.49-2.84 2.6-2.71 2.76-2.28 2.89-1.91 2.88-2.38 2.67-3.99 2.33-5.48 2.62m75.49-67.24-1.06 1.4-1.76 2.28-1.51 2.45-1.22 2.43-1.19 2.47-1.32 2.53-1.36 2.58-1.28 2.57-1.13 2.53-.98 2.51-.95 2.49-.99 2.5-1.03 2.51-.96 2.52-.76 2.49-.5 2.47-.32 2.44-.32 2.42-.56 2.43-.89 2.49-1.17 2.6-1.28 2.76-1.15 2.88-.88 2.88-.68 2.66-.58 2.33.47 2.62" filter="url(#a)"/><path d="m-67.98-38.21-1.15 2.48-1.17 1.78-1.98 2.14-2.97 2.47-3.58 2.56-3.42 2.55-2.58 2.49-1.51 2.45-.61 2.44-.12 2.46-.03 2.53-.19 2.59-.48 2.65-.8 2.66-1.13 2.65-1.48 2.59-1.85 2.53-2.13 2.47-2.16 2.43-1.82 2.37-1.16 2.35-.42 2.37.04 2.48.05 2.71-.43 3.05-1.49 3.24" filter="url(#a)"/><path d="m-69.69-34.15-1.05.26-1.39 2.02-2.26 2.6-2.56 2.66-2.33 2.58-1.95 2.51-1.61 2.46-1.37 2.46-1.19 2.5-1.06 2.55-.99 2.62-.96 2.65-.92 2.66-.84 2.64-.73 2.59-.66 2.54-.71 2.5-.93 2.46-1.23 2.44-1.53 2.46-1.65 2.49-1.56 2.54-1.25 2.58-.8 2.57-.34 2.5.03 2.41.22 2.31.12 2.29-.25 2.38-.58 2.47-.32 2.38 1.64 2.59" filter="url(#a)"/><path d="m-69.09-35.49-1.52 2.95-1.93 2.37-2.2 2.38-1.94 2.56-1.82 2.63-2.08 2.62-2.45 2.56-2.5 2.52-2.04 2.52-1.23 2.52-.41 2.53.16 2.52.35 2.51.16 2.5-.27 2.49-.8 2.5-1.29 2.52-1.67 2.58-1.91 2.63-2.01 2.68-1.98 2.68-1.8 2.67-1.47 2.62-1.03 2.55-.48 2.49.04 2.43.4 2.38.41 2.31.06 2.23-.54 2.15-1.04 2.09-.99 2.08-.21 2.14 1.06 2.24 1.83 2.28.03 1.96" filter="url(#a)"/><path d="m-69.34-35.33-1.62 2.95-3.09 3.08-3.96 2.81-4.13 2.61-3.8 2.5-3.24 2.45-2.74 2.46-2.47 2.5-2.46 2.56-2.67 2.63-2.91 2.66-3 2.67-2.73 2.64-2.13 2.59-1.35 2.55-.68 2.5-.36 2.47-.47 2.47-.93 2.47-1.52 2.51-2.02 2.53-2.27 2.55-2.27 2.53-2.12 2.49-1.97 2.43-1.79 2.38-1.51 2.37-.92 2.37.04 2.41 1.1 2.43 1.78 2.45 1.57 2.45.43 2.43-1.51 2.25-5.01 1.28m61.41-84.04-.71 1.98-.72 2.15-.75 2.56-.71 2.69-.65 2.64-.59 2.55-.52 2.51-.43 2.5-.33 2.51-.23 2.52-.15 2.53-.1 2.5-.05 2.49-.02 2.48v2.48l.04 2.51.08 2.57.14 2.63.23 2.68.34 2.7.45 2.67.58 2.62.68 2.54.77 2.49.83 2.43.87 2.39.88 2.33.87 2.22.87 2.11.88 2.01.93 2.02 1.01 2.06.84 1.6" filter="url(#a)"/><path d="m-72.19-27.61 1.55 1.64 2.16 2.29.83 2.39-.64 2.38-1.06 2.36-.57 2.43.22 2.51.95 2.61 1.5 2.66 1.84 2.68 2.01 2.63 2 2.57 1.87 2.51 1.67 2.45 1.46 2.4 1.33 2.37 1.43 2.35 1.85 2.39 2.54 2.51 3.13 2.7 3.1 2.92 2.1 2.98.14 2.7m-30.88-59.33-2.81 3.97-5.14 3.13-3.77 2.71-1.45 2.49-.21 2.43-.04 2.45-.21 2.5-.22 2.52-.06 2.52.04 2.49-.08 2.47-.45 2.44-.94 2.44-1.42 2.47-1.76 2.54-1.89 2.62-1.77 2.7-1.38 2.73-.82 2.7-.3 2.62.01 2.5.02 2.43-.17 2.44-.36 2.46-.67 2.45-1.32 2.35-.98 2.35M72.08-28.22l7.62-2.42.09-2.9 1.76-2.65 2.82-2.36 1.9-2.17.23-2.09-1.01-2.06-1.41-2.05-1.23-2.04-.92-2.03-.83-2.02-1.15-2.01L78.24-57l-2.34-1.93-2.76-1.86-2.89-1.78-2.66-1.7-2.17-1.64-1.56-1.57-.97-1.53-.54-1.49-.33-1.42-.41-1.35-.7-1.27-1.15-1.18-1.63-1.08-2.11-1.02-2.53-.95-2.96-.9-3.4-.85-3.84-.78-4.24-.71-4.56-.64-4.91-.58-5.13-.47-4.53-.35" filter="url(#a)"/><path d="m72.08-28.22 3.89-2.41L83-33.52l2.62-2.65-1.69-2.36-3.36-2.16-3.1-2.07-2.11-2.06-1.17-2.04-.6-2.03-.42-2.03-.51-2.02-.61-2.01-.58-1.98-.37-1.93-.06-1.87.21-1.78.22-1.7-.15-1.63-.86-1.57-1.76-1.53-2.53-1.5-2.96-1.44-2.95-1.38-2.6-1.28-2.21-1.17-2-1.08-2.03-1-2.15-.96-2.22-.93-2.42-.9-3.11-.82-3.52-.61" filter="url(#a)"/><path d="m71.48-28.82.04-2.57 1.7-2.11 2.7-2.28 1.93-2.5.65-2.61-.07-2.61-.15-2.5-.03-2.33-.14-2.16-.54-2.04-1.04-1.94-1.4-1.9-1.5-1.87-1.39-1.84-1.16-1.81-.89-1.74-.65-1.67-.5-1.58-.59-1.49-.99-1.42-1.67-1.35-2.42-1.31-2.94-1.26-3.01-1.2-2.69-1.13-2.26-1.07-2.14-1.01-2.63-.94-3.35-.7" filter="url(#a)"/><path d="m71.28-29.78-4.97-3.81-1.26-2.78-.3-2.31-.54-2.08-1.08-2.03-1.58-2.02-1.9-2.03-2-2.03-1.92-2.01-1.74-2.01-1.62-2-1.64-1.99-1.8-1.94-2.07-1.87-2.35-1.78-2.56-1.69-2.69-1.61-2.71-1.55-2.63-1.53-2.51-1.51-2.35-1.49-2.24-1.43-2.17-1.31-2.12-1.15-1.95-.98-1.6-.88-1-.87" filter="url(#a)"/><path d="m70.46-32.33-.06-1.29.04-2.18-.51-2.55-.94-2.69-1.05-2.66-1.08-2.51-1.15-2.33-1.31-2.16-1.42-2.03-1.49-1.95L60-56.59l-1.49-1.87L57-60.29l-1.59-1.79-1.69-1.73-1.79-1.65-1.87-1.57-1.93-1.49-1.98-1.42-2.01-1.35-2.03-1.3-2.05-1.23L38-75.01l-2.1-1.12-2.13-1.06-2.2-1.01-2.29-.95-2.39-.9-2.47-.83-2.53-.77-2.56-.69-2.55-.61-2.53-.51-2.52-.4-2.48-.3-2.56-.21-3.82-.25" filter="url(#a)"/><path d="m70.46-32.33-.47-1.25-.88-2.14-1.12-2.51-1.25-2.65-1.32-2.65-1.35-2.52-1.35-2.33-1.36-2.14L60-52.51l-1.4-1.91-1.42-1.87-1.49-1.86L54.14-60l-1.63-1.81-1.68-1.77-1.71-1.68-1.73-1.57-1.73-1.47-1.76-1.4-1.83-1.35-1.88-1.32-1.87-1.28-1.93-1.25-2.55-1.48" filter="url(#a)"/><path d="m70.29-32.76-1-2.78-1.05-2.69-1.26-2.75-1.41-2.71-1.43-2.53-1.37-2.32-1.3-2.12-1.28-1.98-1.37-1.9-1.48-1.87-1.62-1.85L54-60.1l-1.78-1.81-1.78-1.75-1.75-1.67-1.71-1.57-1.67-1.48-1.7-1.4-1.75-1.35-1.82-1.3-1.89-1.27-1.9-1.2-1.86-1.13-1.78-1.02-1.88-.93" filter="url(#a)"/><path d="m70.29-32.76-1.07-2.81-1.2-2.73-1.34-2.78-1.41-2.72-1.42-2.54-1.4-2.32-1.38-2.14-1.38-2.01-1.4-1.93-1.43-1.89-1.46-1.87-1.49-1.84-1.51-1.79-1.55-1.72-1.6-1.65-1.66-1.57-1.74-1.49-1.81-1.41-1.9-1.35-1.96-1.29-2.03-1.23-2.07-1.18-2.11-1.12-2.16-1.07-2.2-1-2.25-.95-2.3-.9-2.34-.83-2.38-.77-2.39-.69-2.41-.6-2.42-.51-2.4-.4-2.33-.3-2.36-.21-3.47-.25" filter="url(#a)"/><path d="m68.14-38.04 1.18-3.09.75-2.91-.53-2.6-.81-2.29-.72-2.06-.74-1.94-.88-1.88-1.06-1.86-1.16-1.86-1.23-1.84-1.3-1.79-1.4-1.73-1.52-1.65-1.59-1.56-1.61-1.47-1.55-1.4-1.46-1.35-1.42-1.28-1.48-1.24-1.67-1.18-1.93-1.12-2.23-1.06-2.49-1.01-2.72-.95-2.91-.91-3.08-.85-3.19-.79-3.19-.72-3.04-.64-2.76-.61" filter="url(#a)"/><path d="m61.09-50.34-.49-1.22-.66-1.79-.27-2.08-.08-2.11-.32-1.99-.72-1.84-1.09-1.72-1.36-1.62-1.55-1.56-1.66-1.53-1.62-1.49-1.43-1.47-1.14-1.41-.9-1.34-.84-1.24-1.02-1.14-1.43-1.05-1.93-.99-2.38-.93-2.64-.89-2.69-.83-2.64-.77-2.6-.69-2.69-.63-2.97-.57-3.39-.47-3.43-.34" filter="url(#a)"/><path d="m60.58-51.29-1.12-1.91-.37-2.27.15-2.22-.18-2.03-.63-1.83-.82-1.71-.9-1.62-1.11-1.57-1.45-1.53-1.84-1.49-2.12-1.46-2.26-1.39-2.23-1.31-2.11-1.23-1.94-1.13-1.82-1.06-1.79-.98-1.88-.92-2.11-.86-2.4-.79-2.71-.74-2.97-.66-3.16-.6-3.29-.52-3.35-.45-3.39-.37-3.45-.3-3.53-.21-3.64-.13-3.82-.04-4.04.03-4.19.12-4.15.19-3.84.24-3.28.29-2.89.37" filter="url(#a)"/><path d="m60.58-51.29 9.99-1.91-4.44-2.27-5.21-2.22-3.42-2.03-2.01-1.83-1.44-1.71-1.5-1.62-1.78-1.57-2.01-1.53-2-1.49-1.79-1.46-1.44-1.39-1.11-1.31-.9-1.23-.91-1.13-1.11-1.06-1.46-.98-1.9-.92-2.31-.86-2.65-.79-2.93-.74-3.11-.66-3.23-.6-3.3-.52-3.33-.45-3.32-.37-3.28-.3-3.27-.21-3.35-.13-3.53-.04-3.79.03-4.04.12-4.11.19-3.82.24-3.19.29-3.03.37" filter="url(#a)"/><path d="m57.77-55.12-1.36-2.93.54-1.97-.12-1.72-1.14-1.63-1.57-1.56-1.62-1.52-1.6-1.5-1.62-1.49-1.7-1.47-1.78-1.41-1.81-1.32-1.78-1.23-1.75-1.12-1.76-1.03-1.9-.97-2.15-.93-2.43-.87-2.62-.82-2.72-.76-2.73-.69-2.81-.61-2.95-.55-3.06-.47-2.99-.39-2.8-.35" filter="url(#a)"/><path d="m54.17-59.58 3.45-1.56 1.07-1.79-2.7-1.75-3.64-1.6-3.05-1.48-2.26-1.39-1.7-1.34-1.36-1.29-1.14-1.26-1-1.2-1-1.14-1.23-1.09-1.65-1.03-2.13-.97-2.57-.91-2.82-.85-2.91-.78-2.87-.72-2.8-.63-2.74-.55-2.77-.46-2.85-.37-2.98-.29-3.17-.21-3.36-.15-3.57-.07-3.72-.01-3.79.06-3.74.14-3.61.2-3.58.26-4.25.39-6.24.66" filter="url(#a)"/><path d="m46.42-67.13-1.27-1.08-1.42-1.16-1.64-1.3-1.74-1.32-1.8-1.27-1.88-1.19-1.95-1.13-2.04-1.07-2.12-1.01-2.22-.96-2.29-.89-2.34-.84-2.38-.77-2.37-.69-2.37-.61-2.36-.53-2.33-.44-2.33-.35-2.32-.28-2.35-.2-2.37-.12-2.41-.06-2.42.02-2.42.08-2.39.16-2.36.23-2.39.32-2.49.42-2.66.51-2.8.6-2.79.65-2.55.64-2.45.72" filter="url(#a)"/><path d="m41.69-71.12-1.98-1.19-1.45-1.17-1.17-1.13-1.21-1.1-1.53-1.04-1.89-.99-2.11-.94-2.14-.89-2.08-.84-2.03-.77-2.08-.7-2.25-.62-2.44-.54-2.61-.44-2.69-.36-2.71-.28-2.75-.2-2.86-.14-3.04-.09-3.22-.02-3.46.07-3.97.2-5.48.44" filter="url(#a)"/><path d="m39.29-72.31-.9-1.25-1.97-1.14-2.14-1.1-2.13-1.04-2.15-.99-2.21-.94-2.25-.89-2.28-.83-2.29-.76-2.31-.68-2.31-.6-2.29-.51-2.29-.43-2.29-.34-2.3-.26-2.34-.18-2.38-.12-2.43-.05-2.45.02-2.44.09-2.41.16-2.4.24-2.43.33-2.55.41-2.73.52-2.85.6-2.83.64-2.65.64-2.74.72" filter="url(#a)"/><path d="m39.29-72.31-.07-1.25-2.05-1.15-2.22-1.1-1.96-1.04-1.74-.99-1.7-.94-1.85-.89-2.06-.83-2.27-.76-2.43-.68-2.51-.59-2.55-.51-2.58-.42-2.6-.34-2.64-.25-2.71-.19-2.8-.11-2.92-.04-3.03.03-3.1.09-3.15.18-3.2.25-3.27.33-3.35.43-3.43.51-3.48.58-3.48.62-3.5.65-3.59.66-3.64.67-3.34.71" filter="url(#a)"/><path d="m38.13-73.26-1.88-1.41-1.45-1.02-1.28-.92-1.21-.92-1.31-.91-1.59-.88-1.96-.84-2.32-.77-2.55-.69-2.66-.63-2.65-.55-2.62-.48-2.6-.4-2.62-.33-2.69-.26-2.81-.17-2.97-.09-3.14-.02-3.29.07-3.37.14-3.36.21-3.29.27-3.19.34-3.2.43-3.42.53-3.88.64-4.46.74-4.65.74-2.87.54" filter="url(#a)"/><path d="m32.91-76.38 9.06-.72-3.44-.88-4.11-.92-3.05-.88-2.47-.82-2.3-.76-2.29-.68-2.39-.59-2.62-.5-2.91-.42-3.19-.33-3.38-.25-3.46-.18-3.52-.11-3.61-.06-3.75.01-3.91.08-4.07.15-4.25.21-4.59.29-5.24.38-6.02.49-5.62.47" filter="url(#a)"/><path d="m32.53-76.58-1.89-.97-2.11-.98-2.21-.93-2.25-.84-2.29-.76-2.34-.68-2.39-.61-2.41-.53-2.4-.47-2.35-.4-2.28-.32-2.21-.25-2.17-.17-2.16-.09h-2.18l-2.19.07-2.17.14-2.11.21-1.98.27-1.85.33-1.8.42-1.87.51-2.07.66-2.31.82-2.31.89" filter="url(#a)"/><path d="m29.93-77.98-2.04-1.05-.46-.89-.28-.83-1.33-.75-2.36-.66-2.84-.57-2.87-.48-2.83-.39-2.87-.3-3.04-.23-3.27-.15-3.48-.09-3.64-.02-3.75.05-3.83.13-3.97.2-4.15.28-4.43.36-4.73.44-4.97.52-5.09.57-5.03.63-4.86.66-4.62.71-4.44.76-4.34.83-4.45.93-4.87 1.05-5.65 1.17-6.16 1.25-5.37 1.14" filter="url(#a)"/><path d="m29.01-78.47-2.73-1.15-1.52-.85-1.21-.74-1.5-.66-1.95-.59-2.34-.52-2.57-.45-2.73-.37-2.81-.3-2.87-.22-2.92-.13-2.95-.05-2.98.03-2.99.1-2.98.18-2.99.26-2.99.33-3.04.4-3.09.49-3.15.56-3.21.64-3.25.72-3.26.79-3.25.88-3.27.95-3.27 1.05-3.32 1.11-3.41 1.18-3.52 1.21-3.69 1.25-3.87 1.3-4.02 1.38-4.05 1.48-3.9 1.56-3.87 1.65-5.4 1.86" filter="url(#a)"/><path d="m22.09-81.12-2.04-.62-2.1-.61-2.03-.55-2.04-.46-2.17-.36L9.37-84l-2.49-.2-2.62-.14-2.69-.07h-2.75l-2.8.07-2.87.14-3.03.22-3.27.3-3.61.38-3.99.45-4.34.53-4.58.58-4.64.64-4.46.68-4.07.74-3.57.79-3.15.88-3.02.97-3.32 1.08-4.07 1.18-5.12 1.28-6.06 1.36-6.47 1.42-6.18 1.51-5.93 1.66-6.86 2.04" filter="url(#a)"/><path d="m19.1-82.01.43-.57-3.06-.56-3.3-.45-3-.36-2.7-.28-2.54-.2-2.47-.12-2.51-.03-2.59.05-2.66.13-2.72.2-2.76.27-2.76.35-2.76.43-2.75.5-2.73.59-2.71.66-2.7.74-2.68.81-2.68.9-2.69.97-2.74 1.06-2.8 1.12-2.91 1.18-3.07 1.23-3.25 1.28-3.43 1.34-3.54 1.4-3.55 1.47-3.43 1.55-3.23 1.61-3.06 1.69-2.99 1.76-3.02 1.84-3.07 1.91-3.24 2.07L-87-53" filter="url(#a)"/><path d="m14.99-83.05-2.1-.49-2.29-.34-2.25-.24-2.27-.17-2.36-.12-2.5-.07h-2.6l-2.61.07-2.6.15-2.61.21-2.7.3-2.9.38-3.19.46-3.48.53-3.74.59-3.88.63-3.9.68-3.81.71-3.66.77-3.55.84-3.52.94-3.61 1.06-3.84 1.17-4.34 1.29-5.22 1.41-5.7 1.72" filter="url(#a)"/><path d="m12.98-83.68-1.92-.27-1.52-.21-2.01-.16-2.6-.11-2.92-.06H-.97l-2.88.07-2.74.15-2.64.23-2.64.31-2.75.39-2.92.47-3.11.53-3.26.6-3.36.64-3.42.68-3.52.73-3.71.78-4.06.87-4.56.96-5.16 1.07-5.72 1.18-6.06 1.28-6.13 1.36-6.15 1.39-6.19 1.41-4.63 1.48" filter="url(#a)"/><path d="m6.67-84.3-.89-.06-2.19-.12-2.53-.06-2.61.01-2.55.09-2.48.16-2.44.25-2.49.32-2.59.41-2.7.49-2.79.56-2.85.61-2.91.66-2.97.7-3.04.76-3.13.83-3.23.91-3.38 1.01-3.57 1.11-3.82 1.2-4.04 1.3-4.21 1.38-4.24 1.46-4.07 1.53-3.78 1.58-3.45 1.6-3.34 1.58-3.7 1.57-4.6 1.61-5.8 1.82-7.02 1.93" filter="url(#a)"/><path d="m3.17-84.74-1.05-.08-2.06.03-2.6.1-2.76.15-2.75.22-2.76.27-2.92.34-3.13.42-3.27.5-3.24.58-3.04.66-2.75.72-2.58.78-2.64.86-3 .95-3.54 1.05-4.06 1.14-4.32 1.19-4.16 1.18-3.77 1.16-3.64 1.2-4.14 1.38-5.21 1.83" filter="url(#a)"/></g><g fill="none" stroke="#000"><circle cx="10.178" cy="12.686" r="2.71" filter="url(#a)"/><circle cx="7.89" cy="12.274" r="1.436" filter="url(#a)"/><circle cx="10.266" cy="12.69" r="1.274" filter="url(#a)"/><circle cx="7.438" cy="11.69" r="2.518" filter="url(#a)"/><circle cx="8.87" cy="12.386" r="2.748" filter="url(#a)"/><circle cx="8.982" cy="12.666" r="1.264" filter="url(#a)"/><circle cx="9.13" cy="13.002" r="2.39" filter="url(#a)"/><circle cx="9.83" cy="13.582" r="1.222" filter="url(#a)"/><circle cx="8.474" cy="14.406" r="2.802" filter="url(#a)"/><circle cx="10.502" cy="14.082" r="1.95" filter="url(#a)"/><circle cx="-8.214" cy="13.798" r="2.662" filter="url(#a)"/><circle cx="-9.362" cy="12.282" r="2.388" filter="url(#a)"/><circle cx="-10.646" cy="11.634" r="1.524" filter="url(#a)"/><circle cx="-7.326" cy="12.03" r="2.396" filter="url(#a)"/><circle cx="-8.262" cy="12.29" r="1.154" filter="url(#a)"/><circle cx="-6.858" cy="14.254" r="2.404" filter="url(#a)"/><circle cx="-10.434" cy="11.602" r="2.884" filter="url(#a)"/><circle cx="-7.118" cy="13.858" r="1.462" filter="url(#a)"/><circle cx="-8.342" cy="14.198" r="2.784" filter="url(#a)"/><circle cx="-7.078" cy="12.118" r="2.71" filter="url(#a)"/></g><path fill="#D77F8C" stroke="#000" stroke-linejoin="round" stroke-width="3" d="m-75.41 32.74 1.34.42 1.33.43 1.33.46 1.32.48 1.31.49 1.31.51 1.3.53 1.3.54 1.3.56 1.29.57 1.29.59 1.28.59 1.28.61 1.28.62 1.27.63 1.28.64 1.27.64 1.27.65 1.27.66 1.26.67 1.27.67 1.27.67 1.26.68 1.27.67 1.27.68 1.27.68 1.27.68 1.27.68 1.27.68 1.27.67 1.28.67 1.28.67 1.28.66 1.29.65 1.29.65 1.29.64 1.3.63 1.3.62 1.31.62 1.31.6 1.32.58 1.32.58 1.33.56 1.34.55 1.34.53 1.35.51 1.36.5 1.36.48 1.37.46 1.38.45 1.39.42 1.4.4 1.4.38 1.42.35 1.42.34 1.44.3 1.45.29 1.45.25 1.47.23 1.48.2 1.49.17 1.5.15 1.51.11 1.53.08 1.54.05 1.55.02 1.57-.02 1.58-.05 1.59-.09 1.61-.13 1.62-.16 1.64-.19 1.65-.24 1.67-.28 1.68-.32 1.7-.36 1.72-.4 1.73-.44 1.75-.49 1.77-.53 1.78-.58 1.8-.62 1.82-.67 1.84-.72 1.86-.77 1.88-.81 1.89-.87 1.92-.92 1.94-.97 1.95-1.03 1.98-1.07 2-1.14 2.02-1.18L63 49.84l2.06-1.3 2.09-1.36 2.11-1.42 2.13-1.47 2.15-1.54-1.49 1-1.49.95-1.49.92-1.49.88-1.48.84-1.49.8-1.49.76-1.49.73-1.49.68-1.49.66-1.49.62-1.49.58-1.49.55-1.49.51-1.49.48-1.49.45-1.49.42-1.49.38-1.49.36-1.49.32-1.49.29-1.49.27-1.49.23-1.49.21-1.49.18-1.48.15-1.49.13-1.49.1-1.49.07-1.49.05-1.49.03h-1.49l-1.49-.02-1.49-.05-1.49-.06-1.49-.09-1.49-.11-1.49-.13-1.49-.14-1.49-.17-1.49-.19-1.49-.2-1.49-.23L8 55.73l-1.49-.26-1.49-.27-1.49-.29-1.48-.3-1.49-.32-1.49-.33-1.49-.34-1.49-.35-1.49-.37-1.49-.38-1.49-.39-1.49-.4-1.49-.41-1.49-.41-1.49-.43-1.49-.44-1.49-.44-1.49-.45-1.49-.45-1.49-.46-1.49-.47-1.49-.47-1.49-.48-1.49-.48-1.48-.48-1.49-.48-1.49-.49-1.49-.49-1.49-.49-1.49-.49-1.49-.49-1.49-.48-1.49-.49-1.49-.48-1.49-.48-1.49-.48-1.49-.48-1.49-.47-1.49-.46-1.49-.46-1.49-.46-1.49-.44-1.49-.45-1.49-.43-1.49-.42-1.48-.42-1.49-.41-1.49-.39-1.49-.39-1.49-.37-1.49-.37-1.49-.35-1.49-.34-1.49-.32-1.49-.32" filter="url(#a)"/></svg>