<svg xmlns="http://www.w3.org/2000/svg" width="500" height="500" viewBox="-100 -100 200 200"><defs><clipPath id="c"><path d="m41.86 4.4-.11-.26-.16-.27-.19-.28-.25-.29-.29-.3-.33-.31-.39-.31-.43-.33-.48-.32-.52-.33-.58-.33-.61-.33-.67-.33-.71-.33-.76-.33-.58-.43-.67-.43-.75-.42-.83-.41-.91-.41-.99-.39-1.07-.38-1.13-.37-1.2-.35-1.26-.33-1.32-.32-1.37-.3-1.42-.28-1.47-.25-1.5-.24-1.54-.21-1.56-.19-1.58-.17-1.6-.14-1.62-.12-1.62-.1-1.62-.07-1.62-.05-1.62-.02h-1.6l-1.59.02-1.56.05-1.55.07-1.51.09-1.49.11-1.45.13-1.41.16-1.38.17-1.34.19-1.29.21-1.25.22-1.2.24-1.15.25-1.11.27-1.06.28-1.01.29-.96.3-.91.3-.87.32-.82.32-.78.32-.74.33-.69.33-.66.33-.62.33-.59.33-.55.33-.51.34-.48.33-.44.34-.41.34-.38.33-.34.33-.31.34-.29.33-.25.32-.23.33-.2.32-.18.31-.85 3 .37.13.39.13.4.12.42.11.43.1.44.1.47.09.47.08.49.07.51.07.53.06.54.05.57.04.58.03.59.03.62.02.64.01.66.01h.68l.71-.01.72-.02.76-.02.78-.03.8-.04.83-.04.85-.05.88-.06.91-.06.93-.07.95-.07.98-.08 1.01-.08 1.03-.08 1.05-.08 1.07-.09 1.09-.09 1.12-.09 1.13-.09 1.15-.09 1.17-.08 1.18-.09 1.19-.08 1.21-.08 1.21-.08 1.22-.07 1.23-.06 1.24-.06 1.23-.05 1.24-.04 1.23-.04 1.23-.03 1.23-.01 1.21-.01h1.21l1.19.01 1.18.02 1.16.03 1.15.04L21.1 6l1.1.07 1.08.07 1.05.08 1.02.09 1 .1.92.02.92.03.89.03.87.03.86.03.84.02.81.03.8.03.77.02.75.02.73.01.7.01h1.33l.62-.02"/></clipPath><clipPath id="b"><path d="M-43.14 6.66V6.4l.04-.28.1-.3.15-.32.2-.33.25-.35.3-.36.36-.37.41-.37.46-.39.52-.4.56-.4.62-.41.67-.4.71-.42.54-.5.62-.5.71-.51.8-.51.89-.51.96-.5 1.05-.5 1.12-.49 1.19-.48 1.25-.46 1.32-.45 1.37-.44 1.42-.41 1.47-.4 1.51-.37 1.55-.35 1.57-.33 1.6-.3 1.62-.27 1.64-.25 1.64-.21 1.64-.19 1.64-.15 1.64-.13L-5.41-8l1.61-.06 1.59-.04h1.57l1.54.03 1.51.06 1.48.09 1.43.12 1.4.14 1.36.18 1.32.2 1.27.22 1.22.25 1.17.28 1.13.29 1.08.31 1.03.34.98.35.93.36.89.38.84.39.8.4.75.4.71.42.68.41.64.42.6.42.56.43.53.43.5.44.46.44.42.45.4.44.36.45.33.44.3.45.27.44.25.44.22.44.2.43 1.06 2.15-.34.3-.36.27-.37.27-.38.25-.39.23-.4.22-.41.21-.42.19-.43.18-.45.17-.46.15-.47.13-.49.12-.5.11-.51.1-.53.08-.54.07-.56.05-.58.04-.6.03-.62.02h-.63l-.66-.01-.67-.02-.7-.03-.72-.05-.74-.06-.76-.06-.79-.08-.81-.08-.83-.1-.85-.1-.88-.11-.9-.11-.92-.12-.94-.12-.97-.12-.99-.12-1-.13-1.03-.12-1.05-.12-1.07-.12-1.09-.11-1.1-.11-1.12-.1-1.14-.09-1.15-.09-1.17-.07-1.18-.06-1.19-.05-1.2-.04-1.21-.03-1.21-.01-1.23.01-1.22.02-1.23.04-1.23.05-1.23.07-1.23.09-1.22.1-1.21.12-1.21.13-1.19.15-1.19.16-1.02.06-1.01.06-1.01.06-.99.06-.99.07-.97.07-.95.07-.94.07-.92.06-.9.07-.89.06-.86.05-.83.05-.82.04-.78.04"/></clipPath><filter id="a"><feTurbulence baseFrequency=".05" numOctaves="3" result="noise" type="noise"/><feDisplacementMap in="SourceGraphic" in2="noise" scale="2"/></filter></defs><rect width="100%" height="100%" x="-100" y="-100" fill="#36454F"/><path fill="#FFDAB9" stroke="#000" stroke-linejoin="round" stroke-width="1.667" d="m82.44.02.35 3.14-.2 1.6-.2 1.36-.08.84.02 1.81.04 1.61-.08-1.62-.1 2.77-.21.9-.08 1.83-.3 2.4-.05-.27-.59 2.43-.72 3.58.2-.13.08.25L79.44 27l-.18.42-.23 1.8-.11-.29-.72 3.21-.42.12-.57 2.87-.2-.12-.39 1.57-1.59 4.3-.28.86.42-1.77-1.12 2.81.08.55-1.29 2.62-.38 1-.13-.65-1.27 2.86-.74 2.05.47-.8-1.19 2-.29.39-.54 1.54-1.8 2.9-.51.8-1.68 1.59-1.04 2.71-.29-.36-1.07 1.64-.01-.24-1.54 2.08-.02.79-2.3 2.15 1.16-1.18-2.39 2.64-.42.38-1.93 2.55.35-.41-2.57 2.26.36-.16-2.56 2.22.4.06-1.77 1.37-1.24.65-1.85 1.75-.46.15-.91.72-.01.63-1.68.61-2.14 1.91 1.49-.96-1.58.85-2.53 1.31-.26.76-2.21 1.17-.5.3-1.48.81-1.04.1-1.33.91-1.74.85.63-.38-1.67.64-2.74 1.11-1.42.44-.06.08-2.5 1.22-.2-.43-1.72.67-1.78.46-.96.06-1.77.89 1.29-.6-1.48.45-.08.15-2.65.48-3.29.25-1.65.38.53-.01-3.38.07.8.29-3.62.18 1.09.02-1.32-.06-1.51-.15-2.06.02-.66.16-.95-.08-3.12-.46-.05.11-1.88-.21 1 .04-3.77-.13 1.1.02-3.01-.61-1.49-.29-.44-.24-.75.01-2.32-.7-1.9-.31.38.05-.22-.01-3.39-1.15-.65-.21h.08l-2.46-1.15-2.43-.65-.33-.17-1.48-.79-.77-.6-3.3-1.46-.02-.1.02.11-2.16-1.45-.3-.18-.32.2L-40 85.1l-1.47-1.3.57.81-4.08-3.14 1.18.41-.47-.44-2.26-.91-1.78-1.32-1.74-1.95.52.26-.15-.4-3.2-2.55-.79-.74 1.35.98-3.01-2.91.28.33-.15-.02-2.05-2.37-1.86-2.13-.77-.78-.28-.94-.36-.14-2.01-2.3.26.23-2.37-2.85.87.83-1.99-2.83.57.23-1.24-1.98-2-2.38.8 1.47-2.15-4.69-.12-.17-.9-1.1-.57-1.04-.32-.61-.4-.94-.26-1.28-.59-1.27-1.8-4.39-.54-.35-.16-.27-1.06-3.78-.46-.97-.55-1.91.08.9-.05-.75-1.08-4.15-.45-.32.29.42.12-.17-1.43-5.24-.22-.05-.35-2.02-.22-1.27.22 1.25-.66-3.92.19-.06-.59-2.97-.27-2.91.41 1.99-.59-2.8-.45-4.3.2 1.22.12-2.47-.41-1.15-.14-2.03-.02-.8V-.84l.35-1.7-.29.54.6-5.34-.43.7.08-1.05.34-1.83.1-.65.31-3.59v1.11l.32-3.82-.2 1.39.35-2.73.57-2.02.14-1.35.12-1.65.13-.51.71-2.32.18-1.91.61-.82 1.14-3.69-1.2 2.82 1.29-4.24-.26.61 1.83-4.79-.65 1.48.95-2.04.31-.49.62-1.84.64-1.81.79-2.3.63-.62.6-2.37.34-.83.86-.76-.32.31 1.63-2.76-.34.46 1.71-3.25.71-1.07.49-1.38 1.22-1.58.27-.37.32-.62 2.62-3.14.14-.82-.15.56.72-1.04 1.74-2.9 1.8-2.09-.14.28-.23.77 2.34-3.28 1.96-1.57.48-.97 1.53-.95.61-.68.55-.13 1.28-1.48 1.35-1.2 1.41-1.4-.41.34 1.37-.84-.12.12.46-.45 4.11-2.95-1.79.79 3.31-1.95.59-.36.51-.33.81-.65 2.81-1.83-1.21.72 1.85-1.05 3.56-1.4.87-.52 1.63-.74-1.3.2 3.41-1.45.09.47.49-.44 2.23-.96.18.27 3.63-1.49.01.15 1.47-.7 1.93-.47.22.3 1.27-.34.83-.14 1.96-.65 2.11-.22-.34.16 2.98-.64-.51.35 2.36-.32.14.06 2.16-.33 1.78.06.61-.09 2.64.01-.35.13-.05-.29 2 .25 1.99-.08-.2.06 1.9.48 2.73.03.3.07 2.24.61.81-.03 1.74-.02 2.08.75.26.04 3.56 1.15-1.87-.82 2.25 1.01.92.13.54.22 1.22.33 3.06 1.03-.23-.15 2.29.97 1.67.88.31.19-1.02-.33 2.71 1.36 1.94.7.22-.05 1.32.85 1.15.58 1.29.89 2.87 1.55-.08.09 2.16 1.75.57.32-1.49-.64L45-81.37l3.03 2.13-.7-.45 2.91 2.52-1.99-1.33 2.3 1.55.4.5 1.2 1.34.95.6.8 1.32 1.91 1.66-.81-.56 2.01 2.24 1.95 1.95-.09-.38 1.03 1.54 1.61 2.1 1.17 1.52.23.03.82 1.03.99 2.04.69 1.22.22-.28 1.08 2.79 1.69 1.34.32 1.27.43.1.82 1.98.38.54.33 1.33 1.43 2.68-.27-1.53.29 1.66.99 2.27.53.26 1.13 2.72 1.05 3.21.11.44-.14-1.47 1.13 3.32.82 3.14.27 1.71-.33-1.82.83 3.71-.27-.64 1.07 3.87.11-1.3.51 3.42.08.63.75 1.69-.29.14.72 2.75.3 2.29.31 3.77.16.06-.1-.38.38 4.26-.16-1.66.17 2.5.21.39.27 5.74-.15 1.31.03-2.18-.18 2.79.35 3.14" filter="url(#a)"/><path fill="#fff" d="M-43.14 6.66V6.4l.04-.28.1-.3.15-.32.2-.33.25-.35.3-.36.36-.37.41-.37.46-.39.52-.4.56-.4.62-.41.67-.4.71-.42.54-.5.62-.5.71-.51.8-.51.89-.51.96-.5 1.05-.5 1.12-.49 1.19-.48 1.25-.46 1.32-.45 1.37-.44 1.42-.41 1.47-.4 1.51-.37 1.55-.35 1.57-.33 1.6-.3 1.62-.27 1.64-.25 1.64-.21 1.64-.19 1.64-.15 1.64-.13L-5.41-8l1.61-.06 1.59-.04h1.57l1.54.03 1.51.06 1.48.09 1.43.12 1.4.14 1.36.18 1.32.2 1.27.22 1.22.25 1.17.28 1.13.29 1.08.31 1.03.34.98.35.93.36.89.38.84.39.8.4.75.4.71.42.68.41.64.42.6.42.56.43.53.43.5.44.46.44.42.45.4.44.36.45.33.44.3.45.27.44.25.44.22.44.2.43 1.06 2.15-.34.3-.36.27-.37.27-.38.25-.39.23-.4.22-.41.21-.42.19-.43.18-.45.17-.46.15-.47.13-.49.12-.5.11-.51.1-.53.08-.54.07-.56.05-.58.04-.6.03-.62.02h-.63l-.66-.01-.67-.02-.7-.03-.72-.05-.74-.06-.76-.06-.79-.08-.81-.08-.83-.1-.85-.1-.88-.11-.9-.11-.92-.12-.94-.12-.97-.12-.99-.12-1-.13-1.03-.12-1.05-.12-1.07-.12-1.09-.11-1.1-.11-1.12-.1-1.14-.09-1.15-.09-1.17-.07-1.18-.06-1.19-.05-1.2-.04-1.21-.03-1.21-.01-1.23.01-1.22.02-1.23.04-1.23.05-1.23.07-1.23.09-1.22.1-1.21.12-1.21.13-1.19.15-1.19.16-1.02.06-1.01.06-1.01.06-.99.06-.99.07-.97.07-.95.07-.94.07-.92.06-.9.07-.89.06-.86.05-.83.05-.82.04-.78.04" filter="url(#a)" transform="translate(50.96 -24.48)"/><path fill="#fff" d="m41.86 4.4-.11-.26-.16-.27-.19-.28-.25-.29-.29-.3-.33-.31-.39-.31-.43-.33-.48-.32-.52-.33-.58-.33-.61-.33-.67-.33-.71-.33-.76-.33-.58-.43-.67-.43-.75-.42-.83-.41-.91-.41-.99-.39-1.07-.38-1.13-.37-1.2-.35-1.26-.33-1.32-.32-1.37-.3-1.42-.28-1.47-.25-1.5-.24-1.54-.21-1.56-.19-1.58-.17-1.6-.14-1.62-.12-1.62-.1-1.62-.07-1.62-.05-1.62-.02h-1.6l-1.59.02-1.56.05-1.55.07-1.51.09-1.49.11-1.45.13-1.41.16-1.38.17-1.34.19-1.29.21-1.25.22-1.2.24-1.15.25-1.11.27-1.06.28-1.01.29-.96.3-.91.3-.87.32-.82.32-.78.32-.74.33-.69.33-.66.33-.62.33-.59.33-.55.33-.51.34-.48.33-.44.34-.41.34-.38.33-.34.33-.31.34-.29.33-.25.32-.23.33-.2.32-.18.31-.85 3 .37.13.39.13.4.12.42.11.43.1.44.1.47.09.47.08.49.07.51.07.53.06.54.05.57.04.58.03.59.03.62.02.64.01.66.01h.68l.71-.01.72-.02.76-.02.78-.03.8-.04.83-.04.85-.05.88-.06.91-.06.93-.07.95-.07.98-.08 1.01-.08 1.03-.08 1.05-.08 1.07-.09 1.09-.09 1.12-.09 1.13-.09 1.15-.09 1.17-.08 1.18-.09 1.19-.08 1.21-.08 1.21-.08 1.22-.07 1.23-.06 1.24-.06 1.23-.05 1.24-.04 1.23-.04 1.23-.03 1.23-.01 1.21-.01h1.21l1.19.01 1.18.02 1.16.03 1.15.04L21.1 6l1.1.07 1.08.07 1.05.08 1.02.09 1 .1.92.02.92.03.89.03.87.03.86.03.84.02.81.03.8.03.77.02.75.02.73.01.7.01h1.33l.62-.02" filter="url(#a)" transform="translate(-43.47 -23.7)"/><g fill="none" stroke="#000" transform="translate(50.96 -24.48)"><path stroke-linejoin="round" stroke-width="1.667" d="m-40.72 7.89-.41.01-.37-.02-.34-.05-.31-.08-.27-.12-.23-.14-.19-.17-.14-.2-.1-.22-.06-.24V6.4l.04-.28.1-.3.15-.32.2-.33.25-.35.3-.36.36-.37.41-.37.46-.39.52-.4.56-.4.62-.41.67-.4.71-.42.54-.5.62-.5.71-.51.8-.51.89-.51.96-.5 1.05-.5 1.12-.49 1.19-.48 1.25-.46 1.32-.45 1.37-.44 1.42-.41 1.47-.4 1.51-.37 1.55-.35 1.57-.33 1.6-.3 1.62-.27 1.64-.25 1.64-.21 1.64-.19 1.64-.15 1.64-.13L-5.41-8l1.61-.06 1.59-.04h1.57l1.54.03 1.51.06 1.48.09 1.43.12 1.4.14 1.36.18 1.32.2 1.27.22 1.22.25 1.17.28 1.13.29 1.08.31 1.03.34.98.35.93.36.89.38.84.39.8.4.75.4.71.42.68.41.64.42.6.42.56.43.53.43.5.44.46.44.42.45.4.44.36.45.33.44.3.45.27.44.25.44.22.44.2.43.17.43.15.42.12.42.11.42.08.41.07.4.05.39.03.39.02.38-.01.38" filter="url(#a)"/><path stroke-linejoin="round" stroke-width="2.222" d="m-43.76 8.13.42.17.46.13.51.1.54.08.59.06.63.04.66.02.69.01.73-.01.76-.02.78-.04.82-.04.83-.05.86-.05.89-.06.9-.07.92-.06.94-.07.95-.07.97-.07.99-.07.99-.06 1.01-.06 1.01-.06 1.02-.06 1.19-.16 1.19-.15 1.21-.13 1.21-.12 1.22-.1 1.23-.09 1.23-.07 1.23-.05 1.23-.04 1.22-.02 1.23-.01 1.21.01 1.21.03 1.2.04 1.19.05 1.18.06 1.17.07 1.15.09 1.14.09 1.12.1 1.1.11 1.09.11 1.07.12 1.05.12L5.41 8l1 .13.99.12.97.12.94.12.92.12.9.11.88.11.85.1.83.1.81.08.79.08.76.06.74.06.72.05.7.03.67.02.66.01h.63l.62-.02.6-.03.58-.04.56-.05.54-.07.53-.08.51-.1.5-.11.49-.12.47-.13.46-.15.45-.17.43-.18.42-.19.41-.21.4-.22.39-.23.38-.25.37-.27.36-.27.34-.3.34-.3.33-.32.32-.33.31-.34.31-.35.29-.37.29-.38.28-.39.27-.4.27-.42" filter="url(#a)"/><circle cx="-36.073" cy="2.144" r="3.818" clip-path="url(#b)" filter="url(#a)"/><circle cx="-36.103" cy="4.369" r="4.72" clip-path="url(#b)" filter="url(#a)"/><circle cx="-35.073" cy="3.694" r="4.514" clip-path="url(#b)" filter="url(#a)"/><circle cx="-36.203" cy="3.474" r="4.028" clip-path="url(#b)" filter="url(#a)"/><circle cx="-35.683" cy="5.164" r="4.9" clip-path="url(#b)" filter="url(#a)"/><circle cx="-39.013" cy="2.229" r="4.334" clip-path="url(#b)" filter="url(#a)"/><circle cx="-38.003" cy="2.029" r="3.984" clip-path="url(#b)" filter="url(#a)"/><circle cx="-34.938" cy="5.244" r="4.64" clip-path="url(#b)" filter="url(#a)"/><circle cx="-38.878" cy="1.144" r="4.628" clip-path="url(#b)" filter="url(#a)"/><circle cx="-38.053" cy="3.734" r="4.662" clip-path="url(#b)" filter="url(#a)"/></g><g fill="none" stroke="#000" transform="translate(-43.47 -23.7)"><path stroke-linejoin="round" stroke-width="2.222" d="m41 5.89.21-.04.19-.06.17-.1.14-.12.11-.14.08-.17.05-.19.01-.2-.03-.23-.07-.24-.11-.26-.16-.27-.19-.28-.25-.29-.29-.3-.33-.31-.39-.31-.43-.33-.48-.32-.52-.33-.58-.33-.61-.33-.67-.33-.71-.33-.76-.33-.58-.43-.67-.43-.75-.42-.83-.41-.91-.41-.99-.39-1.07-.38-1.13-.37-1.2-.35-1.26-.33-1.32-.32-1.37-.3-1.42-.28-1.47-.25-1.5-.24-1.54-.21-1.56-.19-1.58-.17-1.6-.14-1.62-.12-1.62-.1-1.62-.07-1.62-.05-1.62-.02h-1.6l-1.59.02-1.56.05-1.55.07-1.51.09-1.49.11-1.45.13-1.41.16-1.38.17-1.34.19-1.29.21-1.25.22-1.2.24-1.15.25-1.11.27-1.06.28-1.01.29-.96.3-.91.3-.87.32-.82.32-.78.32-.74.33-.69.33-.66.33-.62.33-.59.33-.55.33-.51.34-.48.33-.44.34-.41.34-.38.33-.34.33-.31.34-.29.33-.25.32-.23.33-.2.32-.18.31-.15.31-.13.31-.11.3-.08.3-.07.29-.04.29-.03.28-.01.28.01.27.03.27" filter="url(#a)"/><path stroke-linejoin="round" stroke-width="2.222" d="m42.76 5.78-.31.18-.36.15-.38.12-.42.11-.44.09-.48.08-.51.06-.54.04-.56.04-.6.02-.62.02h-1.33l-.7-.01-.73-.01-.75-.02-.77-.02-.8-.03-.81-.03-.84-.02-.86-.03-.87-.03-.89-.03-.92-.03-.92-.02-1-.1-1.02-.09-1.05-.08-1.08-.07L21.1 6l-1.12-.05-1.15-.04-1.16-.03-1.18-.02-1.19-.01h-1.21l-1.21.01-1.23.01-1.23.03-1.23.04-1.24.04-1.23.05-1.24.06-1.23.06-1.22.07-1.21.08-1.21.08-1.19.08-1.18.09-1.17.08-1.15.09-1.13.09-1.12.09-1.09.09-1.07.09-1.05.08-1.03.08-1.01.08-.98.08-.95.07-.93.07-.91.06-.88.06-.85.05-.83.04-.8.04-.78.03-.76.02-.72.02-.71.01h-.68l-.66-.01-.64-.01-.62-.02-.59-.03-.58-.03-.57-.04-.54-.05-.53-.06-.51-.07-.49-.07-.47-.08-.47-.09-.44-.1-.43-.1-.42-.11-.4-.12-.39-.13-.37-.13-.36-.15-.35-.14-.34-.16-.33-.16-.31-.17-.31-.18-.29-.18-.28-.19-.28-.19-.26-.2" filter="url(#a)"/><circle cx="28.267" cy="5.66" r="3.368" clip-path="url(#c)" filter="url(#a)"/><circle cx="30.122" cy="4.92" r="3.814" clip-path="url(#c)" filter="url(#a)"/><circle cx="29.882" cy="4.375" r="4.536" clip-path="url(#c)" filter="url(#a)"/><circle cx="26.192" cy="6.195" r="4.254" clip-path="url(#c)" filter="url(#a)"/><circle cx="26.342" cy="3.25" r="4.186" clip-path="url(#c)" filter="url(#a)"/><circle cx="28.322" cy="2.165" r="3.838" clip-path="url(#c)" filter="url(#a)"/><circle cx="27.587" cy="6.07" r="3.372" clip-path="url(#c)" filter="url(#a)"/><circle cx="26.842" cy="3.945" r="4.38" clip-path="url(#c)" filter="url(#a)"/><circle cx="29.367" cy="4.01" r="3.79" clip-path="url(#c)" filter="url(#a)"/><circle cx="29.612" cy="2.875" r="3.032" clip-path="url(#c)" filter="url(#a)"/></g><g fill="none" stroke="#504444" stroke-linejoin="round" stroke-width="2"><path d="m75.94-38.02-13.1-13.19-27.31-17.22L8.7-79.31l-19.21-5.14-10.3-1.96-2.61-.51 3.08.26 6.33.79 6.87 1.01 5.05.81 2.28.22.26-.46-.03-.92 1-1.06 2.06-1.01 2.02-1 1.07-.9.55-.16 1.58 1.78 3.1 4.55 1.75 5.98.22 2.95 38.38-1.03" filter="url(#a)"/><path d="m-36.79-86.95 39.54 1.78-.42-.57.16 4.67 9.95 7.98 14.59 7.25 11.15 3.99 2.77.32-5.87-2.4-11.12-3.78-11.43-3.88-7.3-2.9-.55-1.2 6.43.64 11.33 1.86 11.97 1.75 6.88.01-3.69-2.91-17.35-5.5-29.83-5.82-27.21-1.29" filter="url(#a)"/><path d="m50.55-76.95 1.1 11.01-9.06-3.93-8.19-5.77-7.36-5.52-6.76-3.93-6.61-1.72-6.45.2-5.38 1.29-3.11 1.34-.31.6 1.98-.33 3.13-.85 3.3-.67 3.08.17 3.03 1.23 3.51 2.15 4.52 2.74 5.44 2.85 4.58 2.18-.29.31-9.31-2.68-16.48-5.26-7.15-4.97 36.73-1.74" filter="url(#a)"/><path d="m26.37-91.97-31.34 6.01 4.08 3.85 6.07 3.74 6.31 3.64 8.14 3.49 6.95 2.32 1.46.13-5.59-2.11-10.65-3.43L-.06-78l-9.55-3.17-5.55-2.41-1.96-1.64-.09-.87.25-.15.63.42 2.96.82 7.81 1.14 13.03 1.37 14.05.86 6.69-1.4-9.45-4.75-35.5-7.3" filter="url(#a)"/><path d="M71.84-48.58 19.02-62.69l-.51-6.82-1.26-3.94-8.02-2.48-8.57-2-3.74-1.67 1.92-1 5.48-.1 6.59.62 6.15.81 4.71.36 2.36-.47-.78-1.25-4.08-1.58-6.36-1.49-6.05-1.04-1.85.08 5.6 2.42 10.18 5.34-3.55 4.51-60.85-10.16" filter="url(#a)"/><path d="m-58.51-68.67 54.15-8.13 18.33-1.05 10.88 2.12 3.1.49-4.44-2-8.54-3.19-8.26-3.04-4.82-2.12-.68-.85 1.89.55 1.9 1.8-.13 2.34-2.41 1.7-2.93.07-.51-1.57 4.15-1.87 8.48-.19 9.93 2.62 8.3 4.77 8.58 6.92 35.19 24.91" filter="url(#a)"/><path d="m53.1-74.51 5.17 15.81-22.2-5.65-25.87-4.44-12.98.93.99 3.25 5.9 1.71 2.55-1.77-1.85-4.78-1.83-5.9 2-4.99 5.52-2.75 6.4-.07 4.08 1.82-9.45 1.21-55.14-2.42" filter="url(#a)"/><path d="m-54.44-72.75 38.81-7.24 19.01 7.36 9.59 7.33-1.34 1.74-4.31-2.72 1.02-3.59 8.12-1.79 11.32.28 9.39.77 4.69-.6.38-2.55-1.9-3.51-2.84-2.93-4.14-1.59-5.96-.74-4.91-.83 2.58-1.86-1.53-7.63" filter="url(#a)"/><path d="m-41.82-83.34 29.57 7.2 34.52 7.63 14.57 1.32-3.04-3.16-10.81-4.29-9.11-2.99-2.42-.64 3.95 1.51 6.6 2.77 5.12 2.97 1.29 2.36-2.55 1.37-4.74.41-4.87-.41-3.47-1.16-1.46-2.16.25-3.54.95-5 .46-5.65-.6-4.7-.8-2.16 1.36.65 3.47 1.11-15.35-7.13" filter="url(#a)"/><path d="m-49.99-76.96 36.86 2.03 29.6 4.94 11.68 1.64 2.21 1.27.67 2.18 2.88 2.93 4.79 2.6 3.84.67-.45-2.71-6.28-6.28-10.72-8.42-11.45-8.17-8.28-5.89-3.06-2.82L3.6-93l.75 2.55-12.41 6.42-50.68 16.13" filter="url(#a)"/><path d="m34.27-88.2 5.65 15.21-20.72-5.55-15.29-5.38L.9-84.5l6.51 4.4L18-72.82l9.3 7.04 4.83 4.23.4.59-1.51-2.11-.65-2.99 1.44-2.36 2.68-1.36 1.88-1.09-.67-1.96-3.64-3.51-5.45-4.63-5.94-4.26-8.94-1.93-22.04 2.93-48.2 15.56" filter="url(#a)"/><path d="m-10.35-96.13 25.4 11.73-.28 7.3-12.12-.87-10.64-3.45-4.28-2.72 2.52-1.08 7.5.34 9.2 1.07 7.22 1.03 2.66.53-2.2.22-4.94.63-4.15 1.73-.18 2.92 5.08 3.3 9.08 2.51 9.83 1.01 6.73-.23.07-.95-9.85-2.21-21.62-4.94-26.74-6.62-4.71-7.03" filter="url(#a)"/><path d="m68.4-54.95-7.11-5.85-13.46-5.73-17.17-7.24-13.3-4.57-7.33-.88-2.49 1.34.97 1.59 3.45.62 4.85-.56 4.63-1.39 2.73-1.82-.26-1.94-3.29-1.74-5.23-1.03-4.98.34-1.65 2.33 4.69 4.42 11.58 5.73 14.18 5.13 8.42 1.89-5.7-4.78L5.06-96.86" filter="url(#a)"/><path d="m-39.2-85.19 5.79 4.27 16.32-2.27 11.65 1.38 11.63 3.85 12.53 3.72 10.13 2.37 5.38.97.93-.05-2.74-1.18-6.98-3.13-11.84-5.57-14.34-6.58-10.46-4.6 1.61-1.61 24.17-2.04" filter="url(#a)"/><path d="m12.03-95.61-18.84 7.76 6.23 9.11 2.34 5.43-1.8-.6-2.05-4.02-1.21-4.14.09-2.52 2.6-.67 6.1.65 9.13 1.35 10.22 1.66 9.1 1.81 6.62 2.02 4 2.59 1.64 3.56-1.34 4.33-6.74 3.36-14.86-.83-20.91-7.59-16.48-12.21-16.38-5.36" filter="url(#a)"/></g><g fill="none" stroke="#000"><circle cx="11.576" cy="24.988" r="1.272" filter="url(#a)"/><circle cx="9.748" cy="26.64" r="1.848" filter="url(#a)"/><circle cx="9.272" cy="26.116" r="2.52" filter="url(#a)"/><circle cx="12.832" cy="24.268" r="2.158" filter="url(#a)"/><circle cx="10.56" cy="25.784" r="1.362" filter="url(#a)"/><circle cx="12.876" cy="24.216" r="2.84" filter="url(#a)"/><circle cx="10.732" cy="23.76" r="1.494" filter="url(#a)"/><circle cx="8.964" cy="26.412" r="2.918" filter="url(#a)"/><circle cx="9.296" cy="24.588" r="1.746" filter="url(#a)"/><circle cx="12.208" cy="25.788" r="2.246" filter="url(#a)"/><circle cx="-10.44" cy="34.128" r="2.022" filter="url(#a)"/><circle cx="-10.272" cy="33.16" r="1.942" filter="url(#a)"/><circle cx="-9.196" cy="34.984" r="2.578" filter="url(#a)"/><circle cx="-9.02" cy="33.208" r="2.27" filter="url(#a)"/><circle cx="-9.284" cy="34.816" r="1.852" filter="url(#a)"/><circle cx="-8.828" cy="34.596" r="2.004" filter="url(#a)"/><circle cx="-11.828" cy="35.108" r="2.354" filter="url(#a)"/><circle cx="-10.868" cy="34.46" r="1.952" filter="url(#a)"/><circle cx="-11.584" cy="33.76" r="1.062" filter="url(#a)"/><circle cx="-9.416" cy="35.448" r="2.19" filter="url(#a)"/></g><path fill="#D77F8C" stroke="#000" stroke-linejoin="round" stroke-width="3" d="m-23.31 58.16.45-.48.45-.47.45-.47.46-.47.45-.45.46-.45.46-.45.46-.44.46-.43.46-.43.47-.42.46-.42.47-.41.46-.4.47-.4.47-.39.46-.38.47-.38.47-.37.47-.36.47-.36.47-.35.47-.34.47-.33.46-.33.47-.32.47-.31.47-.3.47-.3.46-.29.47-.28.46-.27.47-.26.46-.26.46-.25.46-.24.47-.23.45-.22.46-.21.46-.21.45-.19.46-.19.45-.18.45-.17.45-.16.44-.15.45-.14.44-.13.44-.12.44-.11.44-.1.43-.1.43-.08.43-.07.43-.06.42-.05.42-.04.42-.04.41-.02.41-.01.41.01.41.01.4.02.4.03.4.05.39.06.39.06.38.08.38.09.38.1.37.12.37.12.37.14.36.15.36.16.35.17.35.19.34.2.34.21.34.22.33.24.32.24.33.26.31.28.31.28.31.3.3.32.29.32.29.34.29.35.28.37.27.38.27.39.26.41.25.42.25.44.25.45.24.46.23.48.22.49-.22-.49-.23-.48-.24-.46-.25-.45-.25-.44-.25-.42-.26-.41-.27-.39-.27-.38-.28-.37-.29-.35-.29-.34-.29-.32-.3-.32-.31-.3-.31-.28-.31-.28-.33-.26-.32-.24-.33-.24-.34-.22-.34-.21-.34-.2-.35-.19-.35-.17-.36-.16-.36-.15-.37-.14-.37-.12-.37-.12-.38-.1-.38-.09-.38-.08-.39-.06-.39-.06-.4-.05-.4-.03-.4-.02-.41-.01-.41-.01-.41.01-.41.02-.42.04-.42.04-.42.05-.43.06-.43.07-.43.08-.43.1-.44.1-.44.11-.44.12-.44.13-.45.14-.44.15-.45.16-.45.17-.45.18-.46.19-.45.19-.46.21-.46.21-.45.22-.47.23-.46.24-.46.25-.46.26-.47.26-.46.27-.47.28-.46.29-.47.3-.47.3-.47.31-.47.32-.46.33-.47.33-.47.34-.47.35-.47.36-.47.36-.47.37-.47.38-.46.38-.47.39-.47.4-.46.4-.47.41-.46.42-.47.42-.46.43-.46.43-.46.44-.46.45-.46.45-.45.45-.46.47-.45.47-.45.47" filter="url(#a)"/></svg>