<svg xmlns="http://www.w3.org/2000/svg" width="500" height="500" viewBox="-100 -100 200 200"><defs><clipPath id="c"><path d="m29.79-.5-.21-.12-.24-.11-.26-.12-.29-.12-.31-.13-.34-.12-.37-.12-.4-.12-.42-.12-.45-.11-.47-.12-.5-.11-.53-.11-.56-.1-.58-.1-.5-.17-.56-.16-.6-.14-.64-.14-.69-.13-.74-.12-.78-.1-.82-.09-.85-.08-.9-.07-.92-.06-.96-.04-.99-.03-1.01-.03-1.04-.01H10.8l-1.07.02-1.09.02-1.1.03-1.12.04-1.11.05-1.12.06-1.13.07-1.12.07-1.11.09-1.11.09-1.1.09-1.09.1-1.08.11-1.06.12-1.04.11-1.03.12-1 .13-.98.13-.96.13-.93.14-.91.13-.88.14-.85.14-.82.14-.8.14-.77.14-.74.15-.71.14-.68.14-.66.15-.62.14-.6.14-.58.14-.55.14-.53.14-.51.14-.48.14-.45.14-.44.14-.41.13-.39.14-.37.14-.35.14-.32.13-.31.14-.28.13-.27.14-.24.13-1.86 1.25.33.05.34.05.36.05.37.05.39.05.41.05.42.04.44.04.46.04.48.04.5.03.51.03.54.03.55.03.58.02.59.02.62.02.64.01.66.01.68.01h2.2l.78-.02.81-.01.82-.02.86-.03.87-.03.9-.04.92-.04.95-.05.96-.05.98-.06.99-.06L-5 3.46l1.02-.07 1.04-.08 1.05-.08 1.06-.08 1.07-.08 1.07-.09 1.08-.08 1.07-.09 1.08-.09 1.07-.1 1.06-.09 1.06-.09 1.04-.09 1.03-.08 1.02-.09 1-.08.97-.08.96-.08.93-.07.9-.07.87-.06.84-.06.81-.05.78-.04.73-.04.71-.03.66-.02.62-.02.58-.01.62-.05.6-.04.58-.05.55-.04.54-.04.5-.04.49-.03.46-.04.44-.04.41-.04.39-.03.37-.04.34-.04.32-.04.3-.04"/></clipPath><clipPath id="b"><path d="m-27.5-1.05.2-.04.23-.06.25-.05.28-.06.3-.05.33-.06.35-.06.37-.06.41-.06.42-.06.45-.06.48-.05.5-.06.52-.05.55-.05.48-.1.53-.09.57-.08.62-.08.65-.07.7-.07.73-.06.78-.05.81-.04.84-.04.87-.03.91-.02.93-.02.96-.01h1.99l1.02.01 1.03.02 1.05.02 1.06.03 1.07.03 1.07.04 1.08.05 1.07.05 1.08.05 1.07.06 1.07.06 1.05.07 1.05.07 1.03.07 1.02.08 1.01.07.98.09.97.08.95.08.93.09.9.09.88.09.86.09.83.09.81.1.78.09.75.09.73.1.7.09.68.1.65.09.63.1.6.1.58.09.56.1.53.09.51.1.49.1.47.09.45.1.42.1.41.1.38.09.36.1.35.1.32.1.3.1.29.1 1.3 1.25-.38.07-.4.06-.41.06-.43.07-.45.06-.46.05-.49.06-.5.05-.51.05-.54.05-.56.05-.57.04-.59.03-.61.04-.64.03-.65.03-.67.02-.69.02-.72.02-.74.01h-2.35l-.83-.01-.85-.02-.87-.03-.89-.03-.91-.03-.93-.05-.95-.05L8.13 3l-.98-.06-1-.07-1.01-.07-1.02-.09-1.03-.08-1.04-.09-1.04-.1-1.05-.1-1.05-.11-1.05-.1-1.05-.11-1.05-.12-1.04-.11-1.03-.12-1.02-.11-1.01-.12-1-.11-.97-.11-.96-.11-.94-.11-.91-.1-.89-.09-.85-.1-.83-.08-.8-.08-.76-.07-.73-.07-.69-.06-.66-.04-.62-.04-.57-.04-.54-.02-.5-.01-.55-.06-.53-.05-.5-.05-.48-.04-.46-.05-.44-.04-.41-.04-.39-.04-.36-.04-.35-.03-.32-.04-.29-.03-.28-.04-.25-.03-.23-.04"/></clipPath><filter id="a"><feTurbulence baseFrequency=".05" numOctaves="3" result="noise" type="noise"/><feDisplacementMap in="SourceGraphic" in2="noise" scale="2"/></filter></defs><rect width="100%" height="100%" x="-100" y="-100" fill="#E6E6FA"/><path fill="#E2725B" stroke="#000" stroke-linejoin="round" stroke-width="1.667" d="m67.68.56.05-.01-.24 2.27.16.76-.1 2.16-.18.21.07-.45-.32 3.44.12.06-.21 2.15-.22.63-.22 2.33-.12-.79-.16.85v1.29l-.75 2.33.27.2-.17.7-.76 2.9-.28.16-.47 1.85.04-.36-.53 2.24-.79 2.01.27-.18-.73 1.93.02-.44-.88 2.97-.1.44-1.41 2.7.53-1.61-1.09 2.33-.89 2.08-.27.67-.16.04-1.06 2.51-.41.48.53-1.24-1.47 2.65-1.47 2.2 1.13-1.88L54 45.17l-.53 1.05-.18.43-1.62 2.02-.06-.02-1.57 2.12.43-.42-1.77 2.13-.98.82-.08.46-.37.12-1.17 1.46.01-.14L44 57.52l-.42.32.34-.34-1.56 1.54-1.38.9.63-.51-1.88 1.67-.52.3-.7.78-1.27.88-.07-.06-1.75 1.39.38-.24-1.96 1.39-1.18.56-1.38.91-.9.48-1.89 1.03 1.05-.35-2.24.79.61-.32-2.1 1.22.22-.21-1.35.84-1.02.39-.3.03-2.99 1.22.04.03-1.68.6.33-.26-.86.47-2.1.38-.5.14-1.64.6-1.59.32-.06-.03-.42.13-2.36.35-.39-.08-1.61.41-1.36.1-1.68.07-.04.12h-1.9l-1.57.15-.25-.1-.66-.11-2.11.22-.37.03-1.4-.3.97.3-3.35-.28-.65-.35-1.98-.18.93.09h-1.44l-.82-.06-2.37-.75.35.24-2.31-.57.37.19-1.96-.45.51.06-1.91-.62-1.21-.53-.43-.01-2.48-.72.08.03-.12-.1-2.38-1.18-.86-.28-1.75-.77.59.16-1.28-.46-.94-.63-.72-.09-2.31-1.44.84.54-2.55-1.55.2.07-1.33-.66-1.47-.88-.34-.52-.96-.54-1.69-1.38-.2-.2-.3-.39-1.8-1.28.28.27-1-1.08-.77-.59-1.58-.99-1.31-1.41-1.29-1.92-.3.08-.87-.76-.21-.52-1.11-.87.45.5-2.44-3.45.22.4-1.25-1.4-.26-.4v-.08l-2.34-3.03.68.69-.96-1.43-.58-.67-.58-1.48-.45-.5-.99-1.7-.65-1.06-.42-1.26-.54-.7-.17-.62.3.36-1.06-1.75-1.24-2.44-.12-.6-.17-.71-.04-.05-.59-1.41-.65-1.07.11-.08-1.51-4.66-.09-1.28-.1.09-.58-1.99-.25-1.13-.02-.19-.28-.1.12-1.2-.53-.55-.03-1.57-.17-.9-.53-1.7-.07-1.92-.36-1.96.28 1.12-.4-1.84.06-1.64-.05-.35-.23-1.57-.13-.21-.02-3.93.21.85-.13-.81.01-1-.13-2.6.34-1.66-.24.17.25-1.73-.04.72.18-1.95.32-2.98.26-2.03-.38 1.18.3-2.82.2.49.35-3.25.06.07-.12.29.88-3.91.09-.34.81-2.14-.28.26-.09-.04.45-1.16.84-2.99.3-.51-.04-.35.76-1.3.89-2.15.04-.78.36-.58-.32.1 1.61-3.26.64-.98.31-.7.66-1.67.38-.56.74-1.48-.24.75.2-.4.88-1.88.78-1.22.58-.26 1-1.83.15-.44 1.35-1.76.05-.14 1.31-1.56.46-.95-.61.81 1.14-1.18 1.59-1.93 1.29-1.73.49-.26-.43.25 1.61-1.85 1.88-1.47.12-.09 1-.77-.5.15.21-.26 2.27-1.81-.74.71 2.58-2.33 1.4-.76.76-.64.64-.67 1.06-.41 1.7-1.21.26-.54-.71.71 1.23-.68 2.47-1.56.65-.06-.36.19 3.48-2.06-1.01.48-.31.18 2.67-1.09 1.05-.37 1.91-.86-.66.07 2.9-1.03.65-.17.05-.12 1.14-.16.38-.22 1.42-.38.69-.16 2.16-.47-.31-.04 1.53-.48 1.52-.01.85-.35 2.12-.27-.09.31 1.83-.29.76-.24 1.31-.2.07.03.64.1 1.77-.2.96-.03 1.41.24.37-.04 1.11.05.61-.1 1.62.39.36-.22 1.79.26 1.4.09.74.32 1.51.11 1.81.31h.12l.69.27 1.38.4.33-.05 1.95.44-.15.22 1.82.33 1.17.4 1.89.75-.93-.24 2.12.76 1.85.92-.41-.26 1.56.58-.28-.29 2.44 1.4 1.16.4 1.24.69-.15.08 2.45 1.56.82.32.97.63-.39-.23.39.27 1.07.94.62.16 2.34 1.86 1.27.93-.51-.55 1.94 1.67-.73-.48 1.76 1.65.12.1 1.3 1.17.48.19.95 1.2.75.87.78.88.55.07 1.28 1.87.44.26 1.8 2.28.75 1.04.19-.14.03.7 1.63 1.83-.1.33.25-.02 1.38 1.96-.17.02 1.41 2.04-.56-.72 1.37 2.21 1.09 2 .57.63v.73l.05-.11 1.38 2.87.62.92.45.81.71 1.99-.61-.81.54.97.78 1.63-.07-.23 1.38 4.51.23.94.03.38-.2-1.2.43 1.94.49 1.83.55 1.65.14-.31.27 2.66.54 1.55.14 1.86-.25-.85.18 1.05.55 1.79.1 1.07-.13 1.29.34-.5.04 3.12.3 1.72-.26-1.09.25.73.13 2.79L67.44.1l.24.46.05-.01" filter="url(#a)"/><path fill="#fff" d="m-27.5-1.05.2-.04.23-.06.25-.05.28-.06.3-.05.33-.06.35-.06.37-.06.41-.06.42-.06.45-.06.48-.05.5-.06.52-.05.55-.05.48-.1.53-.09.57-.08.62-.08.65-.07.7-.07.73-.06.78-.05.81-.04.84-.04.87-.03.91-.02.93-.02.96-.01h1.99l1.02.01 1.03.02 1.05.02 1.06.03 1.07.03 1.07.04 1.08.05 1.07.05 1.08.05 1.07.06 1.07.06 1.05.07 1.05.07 1.03.07 1.02.08 1.01.07.98.09.97.08.95.08.93.09.9.09.88.09.86.09.83.09.81.1.78.09.75.09.73.1.7.09.68.1.65.09.63.1.6.1.58.09.56.1.53.09.51.1.49.1.47.09.45.1.42.1.41.1.38.09.36.1.35.1.32.1.3.1.29.1 1.3 1.25-.38.07-.4.06-.41.06-.43.07-.45.06-.46.05-.49.06-.5.05-.51.05-.54.05-.56.05-.57.04-.59.03-.61.04-.64.03-.65.03-.67.02-.69.02-.72.02-.74.01h-2.35l-.83-.01-.85-.02-.87-.03-.89-.03-.91-.03-.93-.05-.95-.05L8.13 3l-.98-.06-1-.07-1.01-.07-1.02-.09-1.03-.08-1.04-.09-1.04-.1-1.05-.1-1.05-.11-1.05-.1-1.05-.11-1.05-.12-1.04-.11-1.03-.12-1.02-.11-1.01-.12-1-.11-.97-.11-.96-.11-.94-.11-.91-.1-.89-.09-.85-.1-.83-.08-.8-.08-.76-.07-.73-.07-.69-.06-.66-.04-.62-.04-.57-.04-.54-.02-.5-.01-.55-.06-.53-.05-.5-.05-.48-.04-.46-.05-.44-.04-.41-.04-.39-.04-.36-.04-.35-.03-.32-.04-.29-.03-.28-.04-.25-.03-.23-.04" filter="url(#a)" transform="translate(44.32 -22.84)"/><path fill="#fff" d="m29.79-.5-.21-.12-.24-.11-.26-.12-.29-.12-.31-.13-.34-.12-.37-.12-.4-.12-.42-.12-.45-.11-.47-.12-.5-.11-.53-.11-.56-.1-.58-.1-.5-.17-.56-.16-.6-.14-.64-.14-.69-.13-.74-.12-.78-.1-.82-.09-.85-.08-.9-.07-.92-.06-.96-.04-.99-.03-1.01-.03-1.04-.01H10.8l-1.07.02-1.09.02-1.1.03-1.12.04-1.11.05-1.12.06-1.13.07-1.12.07-1.11.09-1.11.09-1.1.09-1.09.1-1.08.11-1.06.12-1.04.11-1.03.12-1 .13-.98.13-.96.13-.93.14-.91.13-.88.14-.85.14-.82.14-.8.14-.77.14-.74.15-.71.14-.68.14-.66.15-.62.14-.6.14-.58.14-.55.14-.53.14-.51.14-.48.14-.45.14-.44.14-.41.13-.39.14-.37.14-.35.14-.32.13-.31.14-.28.13-.27.14-.24.13-1.86 1.25.33.05.34.05.36.05.37.05.39.05.41.05.42.04.44.04.46.04.48.04.5.03.51.03.54.03.55.03.58.02.59.02.62.02.64.01.66.01.68.01h2.2l.78-.02.81-.01.82-.02.86-.03.87-.03.9-.04.92-.04.95-.05.96-.05.98-.06.99-.06L-5 3.46l1.02-.07 1.04-.08 1.05-.08 1.06-.08 1.07-.08 1.07-.09 1.08-.08 1.07-.09 1.08-.09 1.07-.1 1.06-.09 1.06-.09 1.04-.09 1.03-.08 1.02-.09 1-.08.97-.08.96-.08.93-.07.9-.07.87-.06.84-.06.81-.05.78-.04.73-.04.71-.03.66-.02.62-.02.58-.01.62-.05.6-.04.58-.05.55-.04.54-.04.5-.04.49-.03.46-.04.44-.04.41-.04.39-.03.37-.04.34-.04.32-.04.3-.04" filter="url(#a)" transform="translate(-30.58 -20.18)"/><g fill="none" stroke="#000" transform="translate(44.32 -22.84)"><path stroke-linejoin="round" stroke-width="1.667" d="m-28.47-.88.03.02.03.01h.05l.07-.01.08-.02.1-.02.12-.03.14-.03.16-.04.19-.05.2-.04.23-.06.25-.05.28-.06.3-.05.33-.06.35-.06.37-.06.41-.06.42-.06.45-.06.48-.05.5-.06.52-.05.55-.05.48-.1.53-.09.57-.08.62-.08.65-.07.7-.07.73-.06.78-.05.81-.04.84-.04.87-.03.91-.02.93-.02.96-.01h1.99l1.02.01 1.03.02 1.05.02 1.06.03 1.07.03 1.07.04 1.08.05 1.07.05 1.08.05 1.07.06 1.07.06 1.05.07 1.05.07 1.03.07 1.02.08 1.01.07.98.09.97.08.95.08.93.09.9.09.88.09.86.09.83.09.81.1.78.09.75.09.73.1.7.09.68.1.65.09.63.1.6.1.58.09.56.1.53.09.51.1.49.1.47.09.45.1.42.1.41.1.38.09.36.1.35.1.32.1.3.1.29.1.26.1.25.1.23.1.21.1.2.1.18.1.16.1.15.1.14.11.11.1" filter="url(#a)"/><path stroke-linejoin="round" stroke-width="2.222" d="m-28.65-.98.05.08.07.08.08.07.09.06.11.06.14.05.14.04.17.05.19.04.21.03.23.04.25.03.28.04.29.03.32.04.35.03.36.04.39.04.41.04.44.04.46.05.48.04.5.05.53.05.55.06.5.01.54.02.57.04.62.04.66.04.69.06.73.07.76.07.8.08.83.08.85.1.89.09.91.1.94.11.96.11.97.11 1 .11 1.01.12 1.02.11 1.03.12 1.04.11 1.05.12 1.05.11 1.05.1 1.05.11 1.05.1 1.04.1 1.04.09 1.03.08 1.02.09 1.01.07 1 .07.98.06.97.06.95.05.93.05.91.03.89.03.87.03.85.02.83.01h2.35l.74-.01.72-.02.69-.02.67-.02.65-.03.64-.03.61-.04.59-.03.57-.04.56-.05.54-.05.51-.05.5-.05.49-.06.46-.05.45-.06.43-.07.41-.06.4-.06.38-.07.37-.07.34-.07.34-.06.32-.07.31-.07.29-.07.28-.07.26-.07.25-.07.24-.07" filter="url(#a)"/><circle cx="-21.346" cy="1.234" r="4.882" clip-path="url(#b)" filter="url(#a)"/><circle cx="-24.236" cy=".244" r="4.638" clip-path="url(#b)" filter="url(#a)"/><circle cx="-21.451" cy="-2.306" r="3.42" clip-path="url(#b)" filter="url(#a)"/><circle cx="-19.986" cy="-3.526" r="3.196" clip-path="url(#b)" filter="url(#a)"/><circle cx="-21.621" cy="-2.761" r="4.43" clip-path="url(#b)" filter="url(#a)"/><circle cx="-24.486" cy="-1.656" r="3.652" clip-path="url(#b)" filter="url(#a)"/><circle cx="-23.841" cy="-.661" r="4.468" clip-path="url(#b)" filter="url(#a)"/><circle cx="-21.931" cy=".769" r="3.584" clip-path="url(#b)" filter="url(#a)"/><circle cx="-20.601" cy="-2.576" r="3.45" clip-path="url(#b)" filter="url(#a)"/><circle cx="-24.606" cy="-3.231" r="4.752" clip-path="url(#b)" filter="url(#a)"/></g><g fill="none" stroke="#000" transform="translate(-30.58 -20.18)"><path stroke-linejoin="round" stroke-width="2.222" d="m30.74.27-.02-.03-.03-.05-.05-.05-.06-.07-.08-.08-.1-.08-.12-.09-.14-.1-.16-.11-.19-.11-.21-.12-.24-.11-.26-.12-.29-.12-.31-.13-.34-.12-.37-.12-.4-.12-.42-.12-.45-.11-.47-.12-.5-.11-.53-.11-.56-.1-.58-.1-.5-.17-.56-.16-.6-.14-.64-.14-.69-.13-.74-.12-.78-.1-.82-.09-.85-.08-.9-.07-.92-.06-.96-.04-.99-.03-1.01-.03-1.04-.01H10.8l-1.07.02-1.09.02-1.1.03-1.12.04-1.11.05-1.12.06-1.13.07-1.12.07-1.11.09-1.11.09-1.1.09-1.09.1-1.08.11-1.06.12-1.04.11-1.03.12-1 .13-.98.13-.96.13-.93.14-.91.13-.88.14-.85.14-.82.14-.8.14-.77.14-.74.15-.71.14-.68.14-.66.15-.62.14-.6.14-.58.14-.55.14-.53.14-.51.14-.48.14-.45.14-.44.14-.41.13-.39.14-.37.14-.35.14-.32.13-.31.14-.28.13-.27.14-.24.13-.23.14-.21.13-.2.14-.17.13-.16.13-.15.13-.12.13-.12.13-.1.14-.08.13" filter="url(#a)"/><path stroke-linejoin="round" stroke-width="2.222" d="m30.91.19-.1.1-.12.09-.13.08-.15.07-.17.07-.19.06-.2.06-.23.05-.26.05-.27.05-.3.04-.32.04-.34.04-.37.04-.39.03-.41.04-.44.04-.46.04-.49.03-.5.04-.54.04-.55.04-.58.05-.6.04-.62.05-.58.01-.62.02-.66.02-.71.03-.73.04-.78.04-.81.05-.84.06-.87.06-.9.07-.93.07-.96.08-.97.08-1 .08-1.02.09-1.03.08-1.04.09-1.06.09-1.06.09-1.07.1-1.08.09-1.07.09-1.08.08-1.07.09-1.07.08-1.06.08-1.05.08-1.04.08-1.02.07-1.02.06-.99.06-.98.06-.96.05-.95.05-.92.04-.9.04-.87.03-.86.03-.82.02-.81.01-.78.02h-2.2l-.68-.01-.66-.01-.64-.01-.62-.02-.59-.02-.58-.02-.55-.03-.54-.03-.51-.03-.5-.03-.48-.04-.46-.04-.44-.04-.42-.04-.41-.05-.39-.05-.37-.05-.36-.05-.34-.05-.33-.05-.31-.06-.3-.05-.28-.06-.27-.06-.26-.05-.25-.06-.23-.06-.22-.06-.21-.06-.2-.06" filter="url(#a)"/><circle cx="-14.005" cy=".568" r="3.362" clip-path="url(#c)" filter="url(#a)"/><circle cx="-15.8" cy=".558" r="4.514" clip-path="url(#c)" filter="url(#a)"/><circle cx="-15.91" cy="3.423" r="3.826" clip-path="url(#c)" filter="url(#a)"/><circle cx="-14.32" cy=".793" r="3.268" clip-path="url(#c)" filter="url(#a)"/><circle cx="-15.315" cy="2.683" r="3.08" clip-path="url(#c)" filter="url(#a)"/><circle cx="-13.6" cy=".333" r="3.52" clip-path="url(#c)" filter="url(#a)"/><circle cx="-15.07" cy="3.018" r="3.694" clip-path="url(#c)" filter="url(#a)"/><circle cx="-13.535" cy="5.198" r="4.476" clip-path="url(#c)" filter="url(#a)"/><circle cx="-12.275" cy="1.628" r="4.43" clip-path="url(#c)" filter="url(#a)"/><circle cx="-14.565" cy="2.663" r="3.41" clip-path="url(#c)" filter="url(#a)"/></g><g fill="none" stroke="#B25D25" stroke-linejoin="round" stroke-width="2"><path d="m16.85-73.05 1.57.37 1.33.42 1.13.43 1.04.43.99.4.91.38.82.34.72.3.63.28.52.26.37.22.16.15-.08.05-.39-.05-.71-.2-1.06-.35-1.41-.49-1.72-.62-2.01-.73-2.23-.84-2.42-.96" filter="url(#a)"/><path d="m24.36-70.39 1.11.41 1.08.47 1.2.59 1.2.63 1.13.62 1.02.59.87.52.69.41.46.3.23.17.05.07-.13-.01-.3-.08-.49-.18-.73-.3-1.05-.48-1.42-.68-1.81-.9-2.15-1.12-2.41-1.31m25.63 18.22.78.81.93 1.1.75.94.58.78.49.68.4.59.33.51.24.41.14.31.05.2-.08.09-.21-.06-.36-.22-.54-.43-.74-.67-.95-.93-1.17-1.2-1.37-1.48-1.63-1.77-1.97-2.14-2.43-2.62-2.99-3.17m-68.76-7.12.6-.14.92-.42 1.07-.53 1.12-.5 1.23-.5 1.34-.52 1.4-.54 1.38-.53 1.27-.5 1.11-.43.91-.35.71-.27.51-.18.32-.11.12-.05-.08.02-.29.07-.52.15-.71.2-.9.25M-.2-75.74l.94.17.5.16.23.22-.01.33-.29.46-.61.6-1 .75-1.42.91-1.89 1.06-2.39 1.2-2.93 1.33-3.52 1.46-4.17 1.66-4.85 1.89-5.57 2.16-6.21 2.38-6.7 2.39" filter="url(#a)"/><path d="m-27.21-69.29.72-.14 1.69-.34 2-.27 2.14-.14 2.27-.01 2.4.14 2.53.27 2.67.39 2.83.49 2.99.56 3.18.63 3.34.68 3.47.72 3.57.75 3.64.77 3.66.77 3.65.76 3.62.77 3.57.78 3.52.79 3.46.8 3.39.78 3.3.79M-10.42-74.6l1.17-.25 1.42-.08 1.5-.02 1.58-.01 1.62.01 1.65.04 1.69.08 1.71.1 1.72.11 1.69.12 1.6.11 1.44.1 1.27.08 1.07.06.88.03.67.02.43-.01.12-.07" filter="url(#a)"/><path d="m21.73-71.57.17.2 1.23.68 1.48.86 1.55.95 1.65 1.05 1.79 1.19 1.93 1.32 2 1.41 2.02 1.46 1.97 1.47 1.9 1.43 1.78 1.35 1.61 1.23 1.39 1.07 1.15.84.9.59.67.32M-26.2-69.77l-.42.26.67-.17 1.36-.43 1.63-.52 1.7-.53 1.7-.5 1.65-.45 1.6-.4 1.52-.36 1.47-.34 1.42-.31 1.39-.3 1.33-.29 1.26-.28 1.15-.26 1.02-.23.84-.21.62-.16.36-.13.1-.08-.1-.05-.28-.02m5.79-.01 1.06.07 1.25.15 1.45.22 1.63.28 1.73.32 1.78.34 1.75.35 1.64.34 1.5.33 1.32.31 1.11.27.9.22.65.14.4.04.1-.04-.3-.17" filter="url(#a)"/><path d="m-13.16-74.07.35-.15 1.08-.22 1.34-.22 1.37-.18L-7.7-75l1.2-.13 1.05-.13.87-.11.68-.09.48-.06.28-.03.08.02-.18.06-.53.1-.95.12-1.41.13-1.94.18" filter="url(#a)"/><path d="m-3.57-75.61.94.01 1.2-.02 1.16.01 1.04.03.93.04.86.05.79.05.72.05.63.07.5.07.33.08.12.08-.13.08-.42.08-.74.08-1.09.07-1.44.07-1.83.06-2.23.03-2.7.04-3.21.03m-11.51 2.16.52-.15.56-.17.71-.19.81-.22.86-.23.86-.23.82-.2.75-.16.64-.12.51-.05.34.01.12.1-.13.18-.4.26-.69.34-.97.42-1.23.5-1.51.6-1.82.72-2.18.85-2.61.99-3.07 1.13-3.32 1.1" filter="url(#a)"/><path d="m5.28-75.42 1.49.21 1.15.18.93.19.69.18.4.18.09.18-.23.19-.53.21-.83.22-1.16.24-1.5.26-1.87.26-2.27.27-2.73.27-3.26.27-3.86.3-4.48.35-5.11.37m32.85-2.62 1.28.36.86.32.76.33.61.36.4.36.17.35-.07.35-.33.34-.58.32-.87.34-1.15.36-1.46.39-1.77.42-2.12.43-2.5.42-2.89.4-3.34.37-3.81.34-4.33.33-4.84.33-5.27.34-5.56.28-5.64.09m-8.58 1.63 1.18-.6 1.12-.65 1.04-.54 1.17-.52 1.39-.59 1.56-.64 1.66-.67 1.66-.66 1.65-.65 1.62-.62 1.61-.59 1.59-.59 1.55-.57 1.49-.54 1.37-.5 1.22-.43 1-.35.76-.27.5-.21.22-.15-.07-.08-.41-.01m43.88 8.61.77.39.63.4.62.48.78.61.98.78 1.13.88 1.17.92 1.12.89 1.01.82.87.74.76.64.64.56.54.48.43.38.32.28.17.15.01.02-.17-.15-.35-.31-.55-.49-.73-.69-.93-.88-1.13-1.07m8.11 7.95 1.33 1.69.79 1.01.56.75.47.67.42.62.34.52.24.4.13.28.01.14-.14-.02-.3-.19-.49-.39-.7-.66-.95-.97-1.23-1.31-1.49-1.66-1.74-2.01-1.99-2.35-2.23-2.7" filter="url(#a)"/><path d="m-29.68-67.71 1.93-1.16.72-.41.66-.29.81-.31.82-.3.71-.24.51-.13.26.02v.19l-.27.35-.51.49-.73.63-.93.76-1.17.9-1.46 1.08-1.8 1.3-2.17 1.53-2.55 1.77-2.92 2.01-3.37 2.31-4.05 2.85" filter="url(#a)"/><path d="m-34.92-64.56 1.37-.78 1.37-.22h1.91l2.6.04 3.23.1 3.69.19 4.07.33 4.4.46 4.73.59 5.05.68 5.38.73 5.64.75 5.84.76 5.97.78 6.08.86 6.18.99 6.26 1.09M-3.64-75.64l.43.06 1.06.1 1.43.14 1.59.21 1.65.27 1.69.3 1.72.33 1.79.35 1.84.38 1.9.4 1.92.42 1.9.43 1.8.41 1.65.37 1.44.31 1.2.24.94.17.7.1.48.05.35.05.32.12" filter="url(#a)"/><path d="m20.8-71.81 1.88.79 1.56.79 1.44.83 1.55.95 1.75 1.11 1.94 1.28 2.02 1.37 2.03 1.41 1.95 1.39 1.81 1.28 1.61 1.13 1.37.95 1.12.78.92.68.8.58" filter="url(#a)"/><path d="m34.18-65.25.45.43.45.6.31.68-.01.66-.46.58-.97.48-1.47.41-1.94.36-2.38.34-2.82.3-3.27.28-3.76.26-4.3.23-4.87.23-5.49.22-6.14.24-6.82.25-7.49.25-8.15.21-8.83.08M2.69-75.49l.86.03 1.09.1 1.17.11 1.16.12 1.08.13.88.12.61.1.27.07-.12.03-.53-.02-.94-.06-1.33-.11-1.76-.17-2.28-.26" filter="url(#a)"/><path d="m43.75-57.53-5.05-.38-8.21 1.03-6.38-.42-3.99-.98-4.46-.98-5.83-1-5.38-1.26-2.54-1.5 1.27-1.43 4.1-.99 4.68-.48 2.85-.26-.76-.33-5.16-.3-9.25.18-11.83.97-11.67 1.56-8.69 1.69-5.07 1.45 1.64-3.19" filter="url(#a)"/><path d="m54.74-44.19-38.76-6.55.87-2.62.6-1.65-3.36-.7-4.7-1.25-5-2.67-5.5-3.46-5.63-2.87-4.18-1.34-.94.27 2.89 1.35 5.32 1.81 4.79 1.82 1.55 1.07-1.57-1.34-1.36-5.38-11.7-6.89" filter="url(#a)"/><path d="m14.72-73.66-20.59 7.4-.07.71-1.82.79-.48 2.29 4.49 3.39 9.07 3.59 10.02 2.71 6.67.86 1.7-1.27-.54-2.45 2.42-1.29 8.19 2.23 10.36 5.1 2.88.67-16.69-18.6" filter="url(#a)"/><path d="m32.78-65.97-5.05 7.45-13.59-1.99-4.76-.76-.53.49.96.55 2.3-.08 2.82-1.25 1.62-2.43-.79-2.75-3.81-1.77-7.4.13-10.49 2-7.71 3.07 10.71 3.34 51.48 7.52" filter="url(#a)"/><path d="m29.24-68.3-40.94 7.5.19-.9 4.89-1.31.7-.44-.03.13 3 .31 5.99.04 6.11-.63 3.03-1.35-1.44-1.56-4.77-1-5-.1-1.77.29 3.21-.15 7.4.19 13.09 5.77 35.15 22.85" filter="url(#a)"/><path d="m-43.72-57.68 9.86-6.58 8.9-3.46 7.73-1.49 6-.13 5.84.86 6.93 1.41 6.96 1.3 4.32.65-.57-.08-5.73-.35-8.9.01-8.41.69-4.02 1.45 2.62 2.35 8.54 2.99 8.62.11L-19-72.56" filter="url(#a)"/><path d="m-43.6-57.77 38.74-.25 4.87-3.1 1.22-3.63 1.97-2.3 2.74-.62 2.27.35.86.53-.34.58-.67 1.01-.32 1.75.14 2.39.33 2.46.44 1.87.89.98 1.88.32 2.93.16 2.97.4 1.29.47-1.2-.03-1.53-.94 3.04-1.28 10.68.45 14.35 5.69 17.88 19.69" filter="url(#a)"/><path d="m48.98-52.19-.2 2.54-10.06-6.95-9.71-5.85-7.25-2.94-6.25-1.19-5.71-.24-3.73.88.13 2.48 4.61 4.11 7.59 4.89 6.98 3.91 1.72.75-6.48-3.66-12.29-7.02-8.61-7.06L5.7-71.6l16.03.03" filter="url(#a)"/><path d="M64.08-23.81 15.25-45.18l-.85-11.56 3.44-6.62.18-3.33-3.48-1.02-6.18.71-6.87 2-5.09 2.73-1.6 2.81 1.99 2.31 3.99 1.34 3.58.1 1.38-1.15-.79-1.9-.83-1.55 2.02.09 6.47 2.43 10.07 4.02 10.46 2.74 3.61-4.44-16.91-16.85" filter="url(#a)"/><path d="m-3.64-75.64 16.79 7.3L5.9-62.3l-11.45 1.62-4.98-1.79.19-2.99 1.36-2.72.98-2 1.26-1.25 2.35-.37 3.12.86 2.57 2.38.29 3.6-3.23 3.5L-7.31-60l-3.03-1.91 3.12-4.5-16.58-4.16" filter="url(#a)"/><path d="m-38.78-62.08 12.85-2 18.95 3.77 14.86 2.29 5.88-.36-1.21-1.68-4.33-2.01-4.23-2.05-2.43-1.98-.42-1.49.98-.22 1.6 1.84 1.5 4.1.73 5.55-.67 5.14-1.74 2.32.76-2 13.89-3.07 38.77 13.27" filter="url(#a)"/><path d="m-9.57-74.95 7.56 5.07 17.13 5.47 10.79 6.12 1.53 4.73-5.75.94-8.11-2.76-5.75-4.16-1.34-3.06 1.97-.84 1.8 1.03-2.21 2.03-7.54 2.35-8.39 1.99 2.05.35 23.16-1.61 29.38 2.91" filter="url(#a)"/><path d="M62.47-29.26 22.52-57.93 7.39-64.81l-.32.47 3.59.47.8-1.03-3.07-1.37-4.91-.57-4.1.5-1.39 1.22 1.82 1.42 3.73.99 2.75-.1-1.21-1.39-6-1.68-8.7-.24-7.29.28 13.27-9.8" filter="url(#a)"/><path d="m-51.29-49.51 31.06-3.65 36.33 5.37 22.74 6.28 8.95 2.84-.21-1.1-4.02-3.37-4-3.83-2.87-3.47-2.93-3.19-4.5-3.07-5.91-2.59-4.82-1.32-.53.36 4.61 1.29 6.41.31 2.95-2.24-2.12-4.1-11.18-7.73" filter="url(#a)"/><path d="m30.33-67.53 6.04 16.19-10.23-2.78-7.23-2.47-1.92-.77-.33-.59-3.14-1.15-6.53-1.46-6.36-1.03-2.17.21 2.6 2.12 3.95 4.02.74 4.45-6.17 1.48-18.08-4.81-24.39-4.53" filter="url(#a)"/><path d="M30.48-67.61-6.06-61l-7.42 1.57 1.74.66 8.87.22 10.43.17 5.76.36-1.84.51-8.21.43-10.69.13-8.88-.14-4.39-.06.31.54 3.12 1.35 3.3 1.84 1.93 1.44 1.84.24 6.22-.87 14.17-1.04 12.55-2.37-26.39-19.62" filter="url(#a)"/><path d="m56.15-42.15-9.28-1.49-21.38-9.06-16.25-6.82-9.78-4.35-6.67-2.66-5.61-1.44-4.55-.48-2.36.27.9 1.07 4.43 2.03 7.14 2.96 8.43 3.17 8.41 1.91 7.16-.97 3.95-4.11 1.09-3.91 18.79 5.58" filter="url(#a)"/><path d="M47.26-54.32 10.47-65.26l-18.17-.25-4.4 1.18.02-.17-.05-1.05-.03-.87h1.14l2.62.99 3.63 1.7L-.6-61.9l4.59 1.39 4.96.64 4.75.15 2.85.34-1.61 1.17-7.8 2.08-9.87 2.58 6.42 4.92 58.85 19.6" filter="url(#a)"/><path d="m51.53-48.87-6.52 4.68-9.37-5.84-5.37-3.9-5.57-2.63-4.34-1.8-.44-.82 2.76-.17 2.56-.24-.38-.69-2.85-1.01-1.83-.76 2.92.21 8.24 1.97 10.13 4.4 8.71 7.83 11.65 16.82" filter="url(#a)"/><path d="m-5.71-75.2 23.94 8.86 5.53 6.68 2.76 5.58 2.44 4.42-.93 2.07-4.78-.5-6.44-2.25-5.74-3.13-3.83-3.52-1.67-3.59.36-3.13 2.15-1.94 3.64-.06 4.9 2.16 6.04 4.17 7.01 5.42 7.13 5.36 5.07 3.5-.45-.17-9.45-4.84-19.4-8.63-23.11-8.78-4.78-6.08" filter="url(#a)"/><path d="M61.83-30.82 22.76-50.61l-2.07-6.83-1.85-4.22-5.88-2.52-8.08-1.16-7.29-.45-3.63-.36 1.12-.54 4.22-.72 3.95-.87.6-1.05-3.86-1.11-6.61-.6-4.62.88 6.65 2.67 38.77 2.24" filter="url(#a)"/><path d="M10.72-74.64 26.89-63.6l-9.41 1.34-12.97-.92-6.28-.83.99-.69 4.46-.8 3.78-.75.67-.44-2.73-.13-4.88-.06-5.2-.26-4.06-.46-2.26-.26-.51.48 1.04 1.66 2.73 2.85 4.59 3.61 6.03 3.54 6.19 2.42 5.02.2 3.5-2.6 2.03-4.33 3-1.4 29.1 12.42" filter="url(#a)"/><path d="m1.21-75.5 31.93 25.62-4.49-.8-8.56-5.62-1.46-3.5 3.89-.88 5.35.71 4.7 1.32 3.16 1.01.8-.09-2.32-1.55-5.57-2.64-7.91-2.62-8.68-1.1-7.63 1.29L.1-61.96l-.55-.9-22.1-8.5" filter="url(#a)"/><path d="m41.3-59.97-18.96-8.88-6.97-2.5-1.23.63-1.59 1.69-4.09 1.84-5.77 1.7-5.24 1.55-2.53 1.5 1.19 1.5 4.35 1.41 6.01 1.23 6.24 1.07 5.22.91 1.8.12-5.8-2.08-15.74-4.84-19.33-4.44-11.3 1.28" filter="url(#a)"/><path d="M-32.44-66.28.8-68.77l8.91 1.13-.11 2.06-1.25 1.75.27 1.61v1.61l-2.86 1.3-5.95.49-6.34-.46-2.7-.82 3.66.15 9.22 2.21 9.22 3.5.44 1.35-10.03-5.23 18.45-13.45" filter="url(#a)"/><path d="m-32.96-66.31 41.15.88 15.62 3.74 2.14 4.5-6.88 2.57-7.32.93-.52.65 7.17 1.07 10.13 1.01 7.06-.27.45-2.52-6.15-4.33-10.15-3.37L10-59.33l1.34 11.78 52.74 23.74" filter="url(#a)"/><path d="m-17.43-73.06-10.14 9.55 8.95 2.73 6.88.74 2.62-.32 2.52-.55 3.95-.48 3.38-.66.35-.99-3.03-1.18-4.21-1.19-2.07-1.34 2.61-1.63 7.14-1.49 7-.46-3.97.58-32.07.64" filter="url(#a)"/><path d="m-15.41-63.05.51-.47.68-.87.84-.47.89-.31.87-.54.84-.96.83-1.33.85-1.51.87-1.42.89-1.11.91-.66.91-.23.87.07.83.13.78-.22.82-.86.97-1.29 1.05-.64 21.37-6.71-1.7 1.01-1.18.36-1.05-.08-1.01-.05-1.04.22-1.08.51-1.14.64-1.2.64-1.24.49-1.26.24-1.23-.03-1.2-.23L5.7-79l-1.08-.14-1.03.11-.96.37-.92.59-.91.77-.96.95-1 .64m-2.41.1.86-1.96 1.12-1.17 1.12-.22 1.05-.14.99-.46.98-.72 1.02-.82 1.08-.84 1.17-.82 1.26-.79 1.34-.75 1.41-.71 1.44-.74 1.45-.83 1.37-1 1.19-1.35 1.21-2.63" filter="url(#a)"/><path d="m-3.64-75.64.32-.24.77-.75 1-.84 1.05-.66 1.03-.49.98-.48.99-.62 1.03-.88 1.11-1.14 1.22-1.33 1.33-1.49 1.46-1.65 1.58-1.87 1.66-2.05 1.69-2.11 1.61-2.04 1.38-2.15 1.44-3.57-25.46 24.78.45-.08.88-.78.89-.96.85-.66.85-.24.91-.02.97-.05 1.01-.23 1.01-.38 1.01-.45.99-.43 1-.33 1.05-.23 1.09-.13 1.17-.08 1.23-.12 1.3-.23 1.34-.38 1.35-.52 1.28-.68 1.07-.83.78-.43L66.4-13.25l.2-.64.51-.76.63-1.21.58-1.49.47-1.57.52-1.61.76-1.67 1-1.67 1.12-1.59 1.07-1.44 1.08-1.46 1.35-1.81 1.78-2.44 1.89-2.89 1.38-2.66.75-2.29m-94.96-33.66 1.38-.55 1.19-1.23 1.05-1.77 1-1.73.98-1.37.98-1 .97-.87.93-1.01.91-1.29.94-1.54 1.01-1.66 1.09-1.62 1.15-1.53 1.14-1.36 1.11-1.07 1.09-.7 1.23-.83 1.74-2.75-21.74 24.39-.95-.41-.99-.3-.98-.51-.94-.5-.94-.22-.97.07-1.06.21-1.2.15-1.31.01-1.4-.16-1.4-.31-1.34-.42-1.25-.5-1.23-.49-1.23-.32-1.07-.18-.94-.66m17.09 5.08-.18 1.59-.54.54-.81-.02h-.96l-1 .28-1 .57-.94.82-.83 1.05-.69 1.22-.54 1.35-.45 1.35-.46 1.23-.57 1.02-.71.82-.81.7-.79.7-.52.73-.05.77.16.68" filter="url(#a)"/><path d="m-18.95-72.68-1.13-2.5-1.6-2.03-1.3-.09-1.16.66-1.24.52-1.34.13-1.36-.16-1.28-.21-1.17-.05-1.07.18-1.04.39-1.07.43-1.15.29-1.26.01-1.34-.33-1.44-.59-1.52-.7-1.59-.63-1.57-.32-1.41.09-1.39.31-1.87.05" filter="url(#a)"/><path d="m-23.8-70.57 1.16-.83.99-.45.99-.41.89-.45.78-.51.74-.56.76-.65.8-.76.84-.95.87-1.2.87-1.47.9-1.71.94-1.8 1.01-1.71 1.07-1.45 1.12-1.08 1.15-.73 1.13-.58 1.07-.72.9-1.1.67-1.43.55-1.47m70.07 79.14.3-.21.59.63.43.98.31 1.07.3 1.08.33 1.08.32 1.08.25 1.08.16 1.1.12 1.15.14 1.22.24 1.27.37 1.29.49 1.24.58 1.23.6 1.22.53 1.22.37 1.09.26.67h.79M-8.92-90.08l-1.82 1.53-1.46 1.01-1.3.73-1.12.97-.98 1.28-.9 1.4-.86 1.36-.82 1.23-.76 1.13-.72 1.08-.72 1.07-.76 1.05-.83 1-.93.92-1.01.82-1.05.72-1.04.63-.94.6-.78.67-.64.84-.62.97-.61.73-.38.5" filter="url(#a)"/><path d="m-34.92-64.56 1.05-.95.37-.82.26-1.04.46-1.17.65-1.18.71-1.24.6-1.47.42-1.84.28-2.13.34-2.11.58-1.72.91-1.15 1.18-.69 1.25-.62 1.12-1.02.83-1.73.53-2.36.35-2.58.4-2.2.67-1.58 1.17-1.2-1.1 23.93-1.61.69-1.38.56-1.1.45-.85.39-.78.4-.81.43-.88.49-.94.5-.93.51-.87.48-.79.45-.72.45-.72.48-.79.55-.84.59-.87.62-.9.63-1.11.68-1.84 1.62.02-.56.73-1.52.65-1.82.58-1.67.57-1.47.54-1.36.48-1.3.47-1.15.54-.95.68-.8.81-.84.85-1.01.82-1.18.79-1.18.71-.92.31-.56-.55-.64m-24.34 28.38 1.27-.93.97-.33.88-.33.89-.67.88-.95.89-.98.93-.82 1.02-.62 1.09-.5 1.11-.47 1.03-.47.84-.41.65-.3.58-.23.77-.4 1.54-1.04" filter="url(#a)"/><path d="m-42.6-58.54.08.18.63-.27.97-.45 1.16-.49 1.26-.5 1.24-.53 1.16-.54 1.06-.49 1-.38.97-.21.98-.02 1.02.14 1.08.25 1.14.24 1.14.15 1.09.04 1.03.05 1 .26 1 .53 1.02.52 1.07-.02 1.17-.19-23.27 2.5.45-.61.34-.43.5-.63.64-.92.71-1.2.72-1.41.7-1.48.68-1.48.64-1.41.59-1.34.56-1.25.56-1.13.6-1 .7-.89.81-.84.86-.88.83-1.02.73-1.21.61-1.31.6-1.25.77-1.02 1.11-.93 1.39-1.36 1.51-2.05-17.61 27.05-1.05.02-1.3.58-.9.92-.73.93-.79.85-.92.83-.93.82-.86.8-.77.73-.77.64-.83.57-.93.56-.99.61-.94.74-.87.85-.86.88-.96.75-1.07.75 34.85-19.28h-.3l-1.1.14-1.08.27-1.01.38-.95.38-.92.26-.9.14-.92.1-.95.16-.99.28-1.02.41-1.06.53-1.06.63-1.03.7-.96.73-.85.7-.76.59-.73.42-.77.26-.85.25-.93.45-1.03.76-1 .81-.39.26 14.98-17.93-.02.25-.74.65-.85.92-.7.93-.58.88-.58.83-.67.81-.78.81-.86.86-.9.95-.91 1.03-.91 1.04-.89.97-.84.81-.77.63-.67.52-.55.57-.49.75-.54.99-.73 1.17-.78 1.1-.22.46" filter="url(#a)"/><path d="m-50.15-50.69 1.44-1.54 1.23-.84 1.04-.48 1-.43 1.02-.45.97-.47.86-.47.73-.48.66-.46.71-.44.84-.39 1.01-.36 1.14-.35 1.22-.33 1.24-.31 1.21-.23 1.21-.04 1.23.25 1.23.56 1.17.78 1.08.74 1.17.29 1.67-.62-37.76 14.3 1.06-.42.75-.12.69-.4.76-.67.87-.79.99-.76 1.07-.7 1.11-.64 1.09-.62.99-.65.86-.66.72-.6.58-.41.45-.26.69-.53M-54-45.47l.4 2.26-.6 1.05-.73.84-.45.88-.15.88.02.87.04.9-.02.97-.12 1.04-.22 1.14-.22 1.28-.06 1.46.21 1.56.41 1.33.35.8-25.53 8.61 2.8-2.61 1.34-1.58 1.11-.98 1.27-.63 1.3-.62 1.1-.81.81-1.04.46-1.24.2-1.36.1-1.38.25-1.28.59-1.09.99-.87 1.31-.74 1.42-.74 1.39-.8 1.35-.82 1.37-.72 1.29-.63.92-.69.5-.6 1.36.95" filter="url(#a)"/><path d="m-59.29-36.22.39-.9.46-1 .42-.84.38-.71.37-.65.42-.71.49-.81.57-.89.61-.95.64-.98.66-.97.64-.95.64-.91.6-.85.58-.8.59-.77.64-.81.76-.91.86-1.02.84-1 .56-.66-.04-.05-9.39 45.88-.62-1.11-.73-.83-.48-.94-.32-1.03-.17-1.04-.02-1.06v-1.09l-.09-1.16-.25-1.19-.34-1.17-.33-1.11-.22-1.06-.08-1.06-.04-1.11-.1-1.21-.22-1.31-.28-1.37-.23-1.34-.07-1.25.09-1.13.22-1.06.36-1.15.6-1.44.63-1.52 14.86-14.95-.14-.14-.8.35-1.01.72-.95.83-.82.78-.7.69-.66.66-.67.67-.7.73-.75.77-.78.79-.81.8-.83.79-.8.76-.75.72-.63.68-.47.67-.31.73-.19.84-.24.95-.5.91-.87.69-1.12.54" filter="url(#a)"/><path d="m-61.62-30.72-.76 1.69-.53 1.19-.42 1.05-.39 1.09-.37 1.08-.34 1.03-.29.95-.28.93-.27.99-.3 1.09-.32 1.14-.31 1.17-.28 1.14-.26 1.1-.21 1.08-.19 1.05-.16 1.01-.12 1.07-.16 1.43-.25 2.33 5.32-21.46 3.07-.3.46-.94-.16-1.1.12-1.09.66-.97 1.12-.79 1.37-.58 1.45-.38 1.45-.2 1.38-.04 1.25.06 1.01.01.82-.24.95-.47 1.65-.22-40.99 22.8.21-1.48 1.65-.69 2.41-.68 2.46-.78 2.07-.89 1.57-.99 1.22-1.09 1.06-1.13 1.08-1.08 1.14-.95 1.16-.79 1.14-.7 1.17-.68 1.31-.73 1.45-.76 1.36-.71 1.05-.61.88-.81" filter="url(#a)"/><path d="m-63.27-27.27.39-1.56-.58-1.89-1.26-1.96-1.02-1.77-.2-1.46.57-1.18.96-1.03.93-1.01.64-1.08.24-1.19-.08-1.28-.26-1.33-.29-1.38-.22-1.43-.1-1.5-.03-1.61.03-1.68.1-1.7.22-1.63.32-1.58.31-1.64.2-1.82.64-1.34" filter="url(#a)"/><path d="m-63.53-26.41-.45-.82-.46-1.13.05-1.21.44-1.1.6-.99.58-.98.44-1.1.3-1.28.23-1.4.21-1.39.23-1.3.22-1.17.14-1.04.02-.95-.12-.96-.15-1.15.05-1.45.46-1.57" filter="url(#a)"/><path d="m-63.53-26.41-.84-.99-.67-1.25.09-1.2.45-1.12.44-1.11.29-1.19.19-1.28.19-1.38.24-1.39.24-1.38.14-1.36-.07-1.39-.31-1.42-.46-1.44-.43-1.42-.16-1.34.22-1.23.56-1.15.69-1.18.5-1.4v-1.95l-.38-2.87M64.34-22.69l1.95 1.1.6 1.23.55 1.21.49 1.25.32 1.24.24 1.14.28 1.05.4.98.5.97.58.99.63 1.04.67 1.06.7 1.08.7 1.08.69 1.1.7 1.16.72 1.27.77 1.41.75 1.44.64 1.29.42 1.14v1.7L63.91-24.63l.73.28 1.64-1.26 1.6-2.06 1.01-2.14.17-1.71-.56-1.15-.96-.79-.91-.73-.57-.94-.08-1.33.46-1.75.96-2.13 1.35-2.4 1.49-2.49 1.21-2.38.49-2.08-.35-1.7-.75-1.47-.2-1.71.56-2.91" filter="url(#a)"/><path d="m63.91-24.63 2.49 1.08 1.19 1.3.23 1.42.26 1.39.75 1.24 1.21 1.08 1.41.93 1.36.85 1.26.85 1.24.9 1.38.96 1.57 1 1.7 1.05 1.65 1.09 1.41 1.11 1.07 1.1.84 1.12.93 1.38 1.29 2.07L88.89.13 63.91-24.63l.37 1.79.28 1.58.23 1.38.25 1.3.28 1.27.26 1.2.21 1.11.13 1.03.06.99.02 1 .01 1.02.01 1.04.02 1.07.01 1.07-.02 1.05-.09 1.02-.15 1.03-.19 1.17-.2 1.43-.18 1.57-.2 1.04-6.4-37.83 2.96-.93.39 1.48.41 1.45 1.19.8 1.87.2 2.12-.03 1.99.1 1.68.47 1.43.9 1.29 1.19 1.25 1.23 1.31.89 1.7.21 2.41-.39 2.2.52" filter="url(#a)"/><path d="m43.75-57.53.6.49.72.76.75.8.76.81.8.86.83.93.85.97.81.97.76.93.68.88.62.83.58.8.55.78.54.78.54.8.54.82.56.87.58.93.61 1.03.68 1.14.7 1.2.57 1.07.24.78-.57-1.36-.13.93-.16 1.02.14 1.1.3 1.2.39 1.17.42 1.05.4.93.35.9.32.95.28 1.04.23 1.15.12 1.23-.04 1.26-.21 1.22-.32 1.17-.35 1.13-.26 1.13-.11 1.15.01 1.19.07 1.24.07 1.3.01 1.29-.2 1.04-.83.23m-1.59-28.02-.67-1.45-.34-.95-.33-.95-.38-.95-.37-.97-.23-1.08-.05-1.24.09-1.4.11-1.46-.04-1.45-.29-1.34-.6-1.2-.86-1.06-.99-.94-.98-.91-.81-1-.57-1.19-.41-1.35-.37-1.33-.07-1.29" filter="url(#a)"/><path d="m53.53-46.17-.41-.04-.84-.22-.81-.49-.69-.67-.72-.72-.83-.76-.95-.75-1.02-.73-1.02-.68-1-.63-.92-.63-.84-.66-.76-.7-.72-.72-.72-.66-.78-.53-.85-.38-.87-.26-.84-.2-.76-.17-.74-.09-.99-.11" filter="url(#a)"/><path d="m74.97-35.12-1.11.05-.6-.73-.62-.68-.83-.6-1.15-.57-1.41-.62-1.47-.69-1.33-.8-1.09-.89-.95-.91-.97-.88-1.14-.78-1.35-.65-1.47-.53-1.45-.42-1.37-.37-1.3-.37-1.21-.41-.87-.18-22.35-11.99 1.34-.1 1.27.3 1.28.36 1.18.26 1.01.24.87.29.79.36.79.39.86.37.94.33 1.01.29 1.04.29 1.05.34 1.02.43.98.55.96.69.95.83.95.93.93.94.83.78.57.51.2.45" filter="url(#a)"/><path d="m51.08-78.26-.62 1.3-.1 1.77-.43 2.42-.34 2.39.06 1.88.49 1.32.69 1.05.62 1.11.4 1.38.16 1.69-.02 1.92-.11 2.08-.05 2.11.28 1.86.92 1.13 1.57.16 1.02.09-3.87 4.29" filter="url(#a)"/><path d="m51.72-49.01-1.2.41-1.16-.53-1.26-.71-1.11-.8-.89-.89-.73-.91-.7-.84-.73-.74-.81-.61-.89-.47-.96-.32-1.06-.13-1.12.04-1.15.15-1.13.17-1.11.11-1.1-.04-1.15-.24-1.2-.37-1.22-.31-1.22-.01 16.89 1.66.44.86.74 1.09.52 1.43.27 1.58.23 1.42.38 1.09.56.8.64.64.59.66.47.76.31.92.16 1.07.07 1.19.05 1.27.11 1.29.22 1.3.2 1.27-.05 1.22-.46 1.05-.57.59 5.56-10.01-1-1.39-.66-.98-.6-.82-.6-.73-.62-.68-.65-.67-.68-.7-.72-.75-.77-.83-.82-.9-.86-.95-.85-.95-.82-.91-.8-.85-.77-.81-.76-.77-.77-.74-.77-.68-.77-.53-.53-.26" filter="url(#a)"/><path d="m38.6-62.02.88.41.72.22.73.3.73.44.76.54.83.53.92.48 1 .43 1.02.45.98.54.93.65.91.76.94.84.98.88 1.03.88 1.02.85.94.77.84.69.86.64.96.66.67.47-20.99-14.29-.72-.24-.65-.33-.53-.29-.57-.24-.74-.26-.9-.32-.99-.43-1.04-.52-1.04-.56-1.05-.54-1.04-.49-1.01-.38-.97-.3-.92-.23-.93-.24-.97-.24-.96-.24-.84-.2-1.1-.37" filter="url(#a)"/><path d="m36.26-63.88 2.2.65 2.5-1.41 2.31-1.77 1.74-1.03 1.22-.15 1.04.29 1.29.12 1.72-.35 1.96-.62 1.78-.35 1.27.35.84.95.86.99 1.48.37 2.33-.51 2.66-1.28-27.82 3.59 1.09.57 1.37.66 1.25.41 1.09.23 1.03.16 1.03.14 1.07.16 1.1.19 1.15.23 1.2.23 1.28.21 1.38.17 1.49.14 1.59.13 1.74.12 1.87.11 1.99.07 2.02.02h1.95l1.8.03 1.6.14 1.34.34.93.41.78-.16-35.18-6.32-1.11-.64-1.12-.86-.98-.85-.99-.78-1.04-.64-1.05-.51-1.02-.41-.95-.41-.92-.46-.89-.54-.9-.61-.92-.65-.94-.66-.98-.64-.99-.59-1-.54-.99-.47-.95-.42-.91-.37-.86-.35-.8-.35-.82-.35-1.24-.46" filter="url(#a)"/><path d="m33.6-65.65 1.35-1.13.2.52.31.75.72.64 1.05.49 1.2.4 1.15.41 1.03.43.93.42.91.38.94.32 1.01.28 1.04.29 1.08.34 1.14.33 1.18.33 1.17.33 1.04.34 1.06-.11" filter="url(#a)"/><path d="m33.6-65.65.69.1.53-.07.79-.06 1.19-.14 1.43-.13 1.4.09 1.19.37.99.54.95.49 1.07.23 1.31-.08 1.5-.31 1.6-.35 1.54-.2 1.4.09 1.23.36 1.16.52 1.22.49 1.45.3 1.67.15 1.26.2-46.52-11.27.62 1.15.57 1.89.68 1.29.85.57.92.3.91.44.84.75.75 1.03.66 1.22.61 1.27.59 1.2.54 1.12.42 1.12.31 1.22.35 1.39.99 1.46M10.72-74.64l-1.23-.21-1.14-.25-1.15-.2-1.13-.12L5-75.5l-1.01-.07-.95-.08-.93-.1-.93-.11-.95-.09-.96-.08-.97-.04-.93-.01-.89.03-.86.06-.88.08-.94.09-.98.07-1.03.02-1.45.09" filter="url(#a)"/><path d="m10.72-74.64-1.17-.74-1.06-1.19-1.05-1.83-1.03-2.51-.98-2.61-.97-2.08-.97-1.26-1.01-.55-1.04-.21-1.11-.26-1.17-.76-1.22-1.54-1.2-2.27-1.14-2.52-1.11-2.13-1.21-1.65-1.48-1.53-1.89.05L7.07-75.16l1.1.78 1 1.02.96 1.08.84 1.18.76 1.09.73.85.74.64.77.53.8.53.83.57.86.56.87.55.88.53.85.54.82.58.79.59.73.59.66.57.57.61.68.65 1.42.61m42.22 49.05 1.72 2.25 3.61 2.13 2.57 2.19.8 2.3-.29 2.33-.68 2.27-.71 2.2-.61 2.17-.43 2.16-.12 2.18.29 2.22.77 2.26 1.14 2.27 1.26 2.26 1.1 2.24.68 2.21.18 2.18-.23 2.16-.41 2.16-.29 2.15.08 2.13.59 2.1 1.1 2.04 1.48 1.98 1.57 1.93 1.28 1.9.57 1.9-.47 1.88-1.58 1.85-2.39 1.76-2.59 1.65-2.05 1.53-1.02 1.41-.33 1.34-1.71 1.71" filter="url(#a)"/><path d="m66.95-11.46.85 2.23 1.16 2.09 2.17 2.15 2.84 2.27 2.91 2.31 2.83 2.26 2.9 2.17 3 2.13 2.86 2.11 2.46 2.14 2 2.18 1.73 2.23 1.74 2.27 1.9 2.27 1.93 2.24 1.52 2.18.73 2.11-.02 2.08-.1 2.1.8 2.18 2.09 2.27 2.48 2.3 1.62 2.23 3.54 2.37M-.2-75.74l-2.09.14-1.86.15-2.19.21-2.46.3-2.5.37-2.36.42-2.21.47-2.14.51-2.19.58-2.35.65-2.57.73-2.84.81-3.11.88-3.37.94-3.62.99-3.82 1.04-3.96 1.11-3.97 1.19-3.84 1.26-3.63 1.31-3.39 1.35-3.23 1.37-3.2 1.38-3.27 1.44-3.35 1.52-3.37 1.62-3.47 1.7-4.02 1.77-5.29 1.84-6.54 1.95-4.84 2.1" filter="url(#a)"/><path d="m-2.93-75.51-1.18.04-1.85.21-2.23.3-2.38.38-2.39.44-2.32.47-2.22.52-2.15.58-2.14.65-2.16.74-2.18.82-2.16.89-2.09.95-2 1-1.95 1.06-1.95 1.12-2.04 1.2-2.19 1.26-2.35 1.31-2.46 1.36-2.52 1.38-2.5 1.41-2.44 1.47-2.39 1.54-2.37 1.62-2.38 1.71-2.38 1.77-2.33 1.83-2.19 1.86-2.05 1.85-2.05 1.8-2.16 1.64-1.61 1.18" filter="url(#a)"/><path d="m-3.64-75.64-2.24.32-2.3.33-2.49.4-2.46.45-2.23.48-2 .52-1.87.59-1.88.66-1.97.75-2.08.84-2.16.9-2.21.96-2.22 1.01-2.23 1.07-2.22 1.14-2.21 1.21-2.18 1.27-2.1 1.32-2.01 1.36-1.89 1.4-1.78 1.45-1.67 1.5-1.61 1.56-1.56 1.64-1.56 1.7-1.58 1.76-1.63 1.8-1.66 1.81-1.68 1.81-1.68 1.78-1.63 1.77-1.59 1.78-1.59 1.85-1.59 1.97-1.53 2.13-1.45 2.31-2.14 2.77" filter="url(#a)"/><path d="m-3.64-75.64-2.05.32-2.42.33-2.62.4-2.48.44-2.24.48-2.03.52-1.96.57-2.02.66-2.14.75-2.29.83-2.4.89-2.46.95-2.46 1.01-2.43 1.06-2.4 1.13-2.35 1.19-2.32 1.27-2.31 1.32-2.33 1.35-2.36 1.39-2.44 1.42-2.51 1.47-2.6 1.55-2.69 1.62-2.82 1.71-3.03 1.77-3.31 1.82-3.6 1.84-3.67 1.83-3.35 1.78-2.57 1.69-1.94 1.59-2.76 1.77" filter="url(#a)"/><path d="m-4.95-75.44-2.4.36-2.24.29-2.12.35-2.09.45-2.13.52-2.22.6-2.31.66-2.39.73-2.47.77-2.53.83-2.55.87-2.53.92-2.48.99-2.44 1.06-2.41 1.12-2.42 1.2-2.39 1.26-2.3 1.33-2.11 1.39-1.87 1.43-1.69 1.5-1.64 1.55-1.76 1.6-1.99 1.65-2.23 1.68-2.38 1.7-2.45 1.74-2.52 1.84-2.63 1.92-2.45 1.75-1.14.75" filter="url(#a)"/><path d="m-5.71-75.2-2.2.19-2.92.39-3.26.46-3.3.48-3.2.5-3.02.56-2.83.64-2.6.73-2.43.83-2.39.89-2.52.94-2.81.98-3.22 1.04-3.69 1.09-4.15 1.18-4.56 1.27-4.81 1.32-5 1.35-5.29 1.35-5.9 1.35-6.83 1.39-7.76 1.5-8.02 1.63-7.06 1.7-4.76 1.71-1.69 1.92" filter="url(#a)"/><path d="m-5.71-75.2-2.89.19-2.44.4-2.42.46-2.38.48-2.34.52-2.34.57-2.42.65-2.55.75-2.77.83-3.1.91-3.45.95-3.8 1.01-4.08 1.06-4.28 1.12-4.44 1.2-4.51 1.27-4.49 1.32-4.32 1.36-4 1.38-3.59 1.42-3.21 1.48-3 1.54-2.99 1.63-3.17 1.7-3.44 1.77-3.63 1.82-3.59 1.84-3.27 1.83-2.84 1.78-2.77 1.68-3.61 1.59-5.7 1.77" filter="url(#a)"/><path d="m-5.71-75.2-2.33.19-2.97.4-3.02.46-2.93.48-2.76.52-2.56.57-2.43.65-2.48.75-2.71.83-3.05.91-3.31.95-3.45 1.01-3.44 1.06-3.32 1.12-3.14 1.2-2.85 1.27-2.47 1.32-2.04 1.36-1.68 1.38-1.56 1.42-1.78 1.48-2.33 1.54-3.12 1.63-3.98 1.7-4.74 1.77-5.28 1.82-5.39 1.84-4.91 1.83-3.86 1.78-2.69 1.68-2.4 1.59-3.82 1.77M66.4-13.25l3.61 2.32 3.67 2.22 1.81 2.3.24 2.33-.18 2.33.06 2.32.32 2.34.36 2.33.27 2.3.16 2.25.17 2.16.28 2.1.46 2.05.65 2.08.87 2.14 1.15 2.23 1.49 2.34 1.74 2.41 1.66 2.42 1.06 2.33.13 2.18-.34 2 .59 2.15" filter="url(#a)"/><path d="m66.4-13.25.95 2.31 1.77 2.22 2.13 2.3 1.68 2.32 1.06 2.32.87 2.33 1.26 2.33 1.94 2.32 2.49 2.31 2.65 2.24 2.32 2.16L87.18 14l1.03 2.04.78 2.06 1.02 2.12 1.58 2.23 2.21 2.35 2.75 2.43 3.3 2.44 3.78 2.38 3.41 2.15 1.4 1.43" filter="url(#a)"/><path d="m66.4-13.25 1.19 2.32.45 2.22.65 2.3 1.2 2.33 1.69 2.33L73.44.57l1.63 2.34 1.16 2.33.61 2.3.11 2.25-.22 2.16-.31 2.1-.17 2.05.06 2.08.22 2.14.2 2.23.04 2.34-.16 2.41-.25 2.42-.15 2.33.17 2.18.5 2-.53 2.15" filter="url(#a)"/><path d="m66.4-13.25 1.46 2.35 1.29 2.26 1.31 2.34 1.82 2.35 2.93 2.37L79.35.78l4.7 2.36 4.28 2.35 3.08 2.31 1.6 2.26.33 2.19-.46 2.16-.72 2.14-.59 2.17-.32 2.21-.15 2.27-.25 2.31-.67 2.32-1.23 2.29-1.64 2.24-1.7 2.15-1.26 2.05-.46 1.96.42 1.87 1.05 1.8 1.22 1.75.89 1.72.24 1.7-.39 1.72-.7 1.73-.58 1.7-.25 1.62-.46 1.63-1.89 2.08M-10.42-74.6l-2.71.48-2.31.47-2.52.48-2.92.54-3.4.63-3.82.75-3.98.85-3.83.91-3.51.95-3.28.99-3.41 1.03-3.93 1.1-4.62 1.19-5.2 1.27-5.39 1.33-5.21 1.35-4.84 1.35-4.48 1.36-4.17 1.41-3.83 1.5-3.57 1.62-3.95 1.69-5.63 1.75-7.86 1.8-5.88 1.89" filter="url(#a)"/><path d="m-11.94-74.59-2.32.54-3.48.57-2.9.61-2.34.68-2.45.75-2.99.8-3.5.85-3.7.89-3.5.94-3.07 1.01-2.66 1.08-2.51 1.16-2.68 1.22-3.12 1.29-3.64 1.36-4.03 1.41-4.15 1.47-3.97 1.52-3.65 1.57-3.36 1.62-3.31 1.66-3.56 1.7-4.02 1.73-4.47 1.75-4.62 1.78-4.3 1.81-3.59 1.85-2.8 1.91-2.37 1.98-2.56 2.07-3.27 2.14-4.05 2.2-4.25 2.21-3.46 2.2-2.1 2.15-1.91 2-5.07 1.77" filter="url(#a)"/><path d="m-11.94-74.59-3.46.53-2.72.57-2.32.6-2.22.68-2.15.74-2.13.79-2.25.83-2.54.88-2.93.92-3.4 1-3.87 1.05-4.33 1.14-4.69 1.2-4.89 1.27-4.94 1.34-4.79 1.39-4.48 1.44-4.08 1.5-3.69 1.55-3.47 1.6-3.53 1.65-3.86 1.68-4.36 1.71-4.86 1.74-5.11 1.8-4.77 1.82-3.87 1.71-4.02 1.43-7.84 1.44" filter="url(#a)"/><path d="m-16.01-73.44-1.68.55-1.76.67-1.79.77-1.71.82-1.55.85-1.31.89-1.07.95-.91 1.01-.9 1.09-1.03 1.16-1.25 1.23-1.47 1.31-1.64 1.36-1.73 1.42-1.74 1.47-1.72 1.53-1.64 1.58-1.5 1.62-1.3 1.67-1.04 1.7-.72 1.73-.4 1.76-.12 1.78.06 1.82.16 1.86.15 1.92.07 1.99-.04 2.07-.14 2.13-.2 2.18-.15 2.2.02 2.21.37 2.2.76 2.2.97 2.2.83 2.07.24 1.02" filter="url(#a)"/><path d="m-17.43-73.06-1.58.4-1.58.61-1.97.8-2.18.92-2.16.97-2.01.99-1.88 1.02-1.81 1.07-1.82 1.14-1.86 1.23-1.89 1.29-1.85 1.35-1.78 1.38-1.7 1.41-1.62 1.45-1.57 1.5-1.55 1.58-1.55 1.64-1.52 1.71-1.5 1.76-1.44 1.79-1.39 1.81-1.34 1.8-1.28 1.79-1.24 1.8-1.19 1.83-1.16 1.88-1.16 1.98-1.17 2.08-1.17 2.16-1.14 2.21-1.03 2.19-.79 2.01-.32 1.03" filter="url(#a)"/><path d="m-17.43-73.06-3.12.41-1.86.6-2.1.81-2.16.92-2.14.98-2.16.99-2.24 1.02-2.26 1.08-2.2 1.15-2.07 1.23-1.94 1.3-1.87 1.34-1.93 1.39-2.12 1.42-2.4 1.46-2.75 1.52-3.09 1.58-3.43 1.65-3.74 1.71-3.99 1.76-4.16 1.79-4.18 1.8-3.99 1.81-3.61 1.81-3.11 1.83-2.63 1.86-2.32 1.91-2.24 1.99-2.31 2.06-2.43 2.12-2.52 2.14-2.65 2.12-2.9 2.09-3.2 2.11-3.08 2.29-1.92 2.71.18 3.1" filter="url(#a)"/><path d="m-17.81-72.84-2.07.56-2.46.82-2.39.84-2.38.85-2.36.89-2.28.95-2.26 1.01-2.38 1.09-2.6 1.16-2.78 1.24-2.8 1.31-2.65 1.37-2.4 1.42-2.15 1.48-1.98 1.53-1.91 1.58-1.93 1.63-1.96 1.66-2.01 1.71-2.06 1.73-2.14 1.76-2.29 1.79-2.51 1.82-2.76 1.87-2.98 1.92-3.11 2-3.15 2.06-3.08 2.13-2.91 2.18-2.72 2.19-2.58 2.2-2.6 2.2-2.76 2.18-2.92 2.15-2.85 2.04-2.8 1.85-3.47 1.98" filter="url(#a)"/><path d="m-19.65-72.39-3.69 1-2.53 1.05-2.53 1.02-2.6 1-2.68 1-2.98 1.05-3.49 1.14-3.95 1.23-4.2 1.31-4.18 1.36-3.98 1.38-3.75 1.41-3.58 1.44-3.46 1.5-3.4 1.58-3.39 1.65-3.46 1.71-3.62 1.76-3.86 1.79-4.08 1.81-4.2 1.8-4.16 1.79-3.97 1.79-3.73 1.82-3.66 1.89-3.91 1.97-4.48 2.08-5.15 2.16-5.59 2.2-5.75 2.19-5.86 2-3.33 1.03m123.2-49.91-2.38 1.01-2.41 1.05-2.23 1.03-2.04 1-1.93 1.01-1.94 1.06-2 1.14-2.14 1.24-2.26 1.32-2.38 1.36-2.46 1.39-2.49 1.43-2.49 1.46-2.46 1.52-2.38 1.59-2.3 1.66-2.2 1.72-2.13 1.76-2.08 1.79-2.06 1.8-2.08 1.82-2.09 1.81-2.13 1.84-2.14 1.87-2.15 1.92-2.13 1.99-2.04 2.06-1.84 2.1-1.54 2.13-1.25 2.14-1.13 2.16-1.27 2.2-1.62 2.32-1.88 2.48-1.85 2.53-1.62 2.24-1.54 1.42" filter="url(#a)"/><path d="m-22.55-71.36-2.12.85-2.12.8-1.82.83-1.8.94-1.87 1.02-1.92 1.09-1.98 1.17-2.03 1.24-2.07 1.32-2.08 1.37-2.05 1.43-1.98 1.48-1.86 1.53-1.75 1.58-1.68 1.63-1.67 1.67-1.73 1.71-1.8 1.73-1.87 1.76-1.85 1.78-1.76 1.83-1.61 1.86-1.48 1.92-1.39 1.99-1.42 2.07-1.53 2.13-1.66 2.17-1.74 2.2-1.71 2.2-1.58 2.19-1.41 2.17-1.32 2.15-1.34 2.04-1.28 1.84-1.41 1.98" filter="url(#a)"/><path d="m-21.89-71.43-2.99 1.12-3.41 1.04-3.43.99-2.97.98-2.38 1.04-1.97 1.13-1.87 1.24-2.12 1.33-2.71 1.36-3.55 1.39-4.43 1.41-5.11 1.44-5.39 1.51-5.17 1.57-4.51 1.66-3.61 1.71-2.72 1.77-2.01 1.79-1.66 1.81-1.68 1.79-2.02 1.8-2.54 1.8-3.08 1.83-3.5 1.9-3.82 1.98-4.13 2.07-4.51 2.14-4.73 2.16-4.31 2.13-3.21 1.98-2.83 1.74-5.54 1.82" filter="url(#a)"/><path d="m-27.52-69.11-.42.17-1.76.92-1.94 1.05-1.97 1.09-2.1 1.15-2.25 1.23-2.34 1.31-2.34 1.36-2.29 1.42-2.25 1.45-2.26 1.5-2.31 1.56-2.35 1.62-2.28 1.65-2.12 1.69-1.95 1.7-1.86 1.73-1.94 1.76-2.13 1.77-2.3 1.76-2.33 1.78-2.25 1.91-2.23 2.16-2.2 2.32-1.47 1.55" filter="url(#a)"/><path d="m-27.52-69.11-.94.18-1.95.93-2.03 1.07-2 1.11-2.17 1.17-2.6 1.25-3.18 1.33-3.68 1.38-3.96 1.44-3.99 1.48-3.82 1.54-3.56 1.58-3.25 1.64-2.99 1.67-2.82 1.71-2.83 1.73-3.06 1.76-3.47 1.79-4.04 1.82-4.6 1.87-5 1.93-5.09 1.99-4.76 2.07-3.96 2.13-2.84 2.17-1.66 2.19-.87 2.19-.85 2.18-1.73 2.16-3.12 2.11-4.3 2.03-4.75 1.89-4.55 1.8-2.87 1.77" filter="url(#a)"/><path d="m-26.2-69.77-2.91 1.6-2.35 1.22-2.04 1.1-2.02 1.14-2.07 1.24-2.1 1.31-2.02 1.38-1.89 1.42-1.81 1.46-1.79 1.5-1.85 1.57-1.94 1.61-1.98 1.66-1.97 1.69-1.93 1.71-1.89 1.73-1.86 1.76-1.84 1.77-1.82 1.77-1.78 1.82-1.74 1.93-1.7 2.11-1.62 2.24-1.49 2.18-1.2 2.28" filter="url(#a)"/><path d="m-29.68-67.71-1.51.51-3.19.94-4.21 1.11-3.84 1.28-2.72 1.4-1.83 1.42-1.59 1.41-1.89 1.41-2.32 1.45-2.56 1.52-2.46 1.59-2.1 1.68-1.68 1.73-1.32 1.78-1.15 1.8-1.16 1.81-1.27 1.82-1.41 1.82-1.57 1.84-1.7 1.88-1.86 1.93-2.09 2-2.37 2.05-2.66 2.1-2.9 2.13-3 2.16-2.91 2.2-2.72 2.24-2.48 2.32-2.25 2.41-1.98 2.47-1.59 2.47-1.08 2.44-.87 2.34-1.38 2.09-2.62 1.57M66.47-13.45l2.16.97 1.8 1.75.84 2.09.93 2.25 1.13 2.31.9 2.34.36 2.34-.13 2.35-.37 2.34-.34 2.3-.08 2.25.35 2.19.83 2.13 1.31 2.11 1.67 2.13 1.85 2.18 1.8 2.26 1.49 2.32.93 2.36.24 2.35-.38 2.28-.77 2.19-.86 2.06-.71 1.93-.48 1.85L80.7 42l.15 1.87.94 1.3" filter="url(#a)"/><path d="m-29.97-67.84-4.35 1.5-3.62 1.13-3.08 1.27-2.81 1.43-2.72 1.44-2.99 1.41-3.51 1.38-3.85 1.41-3.65 1.48-2.86 1.58-1.77 1.67-.88 1.73-.49 1.77-.73 1.8-1.48 1.8-2.44 1.8-3.37 1.78-4.03 1.79-4.27 1.82-4.08 1.88-3.62 1.98-3.18 2.07-3.07 2.13-3.38 2.16-3.86 2.12-4.1 1.97-4.45 1.73-6.2 1.81" filter="url(#a)"/><path d="m-29.97-67.84-3.34 1.5-1.8 1.12-2.03 1.27-2.34 1.42-2.29 1.44-1.97 1.4-1.69 1.37-1.62 1.41-1.76 1.47-1.97 1.58-2.09 1.65-2.1 1.73-2.01 1.77-1.89 1.8-1.76 1.8-1.66 1.79-1.59 1.77-1.54 1.76-1.54 1.79-1.56 1.86-1.56 1.97-1.54 2.07-1.54 2.17-1.79 2.23-2.37 2.37-3.34 3.07" filter="url(#a)"/><path d="m-32.44-66.28-2.28.53-2.71 1.08-3.3 1.28-3.7 1.38-3.76 1.42-3.54 1.46-3.22 1.49-2.91 1.55-2.58 1.6-2.15 1.65-1.65 1.69-1.17 1.72-.82 1.75-.7 1.77-.86 1.81-1.29 1.84-1.92 1.89-2.62 1.95-3.29 2.01-3.76 2.08-3.95 2.12-3.86 2.16-3.61 2.18-3.3 2.18-3.1 2.16-3 2.16-2.98 2.14-2.89 2.14-2.69 2.16-2.43 2.23-2.24 2.32-2.3 2.4-2.66 2.46-3.31 2.5-4.05 2.56-4.1 2.63-2.88 2.73" filter="url(#a)"/><path d="m-32.44-66.28-1.14.52-1.77 1.06-2.77 1.26-3.86 1.36-4.42 1.41-4.4 1.44-4.12 1.47-3.8 1.52-3.37 1.58-2.82 1.63-2.24 1.67-1.86 1.7-1.78 1.72-1.97 1.74-2.33 1.77-2.72 1.79-3.17 1.83-3.75 1.89-4.56 1.97-5.47 2.07-6.28 2.14-6.6 2.18-6.27 2.19-5.41 2.18-4.35 2.13-3.33 1.97-2.93 1.75" filter="url(#a)"/><path d="m-33.67-65.6-2.17.44-3.33 1.18-4.42 1.48-4.17 1.49-3.37 1.4-2.92 1.36-3.04 1.4-3.46 1.48-3.78 1.58-3.72 1.67-3.21 1.74-2.49 1.78-1.9 1.8-1.72 1.8-2.06 1.79-2.72 1.78-3.46 1.78-3.94 1.82-4.06 1.88-3.89 1.98-3.67 2.06-3.53 2.14-3.43 2.16-3.24 2.11-3.47 1.97-5.42 1.72-9.39 1.81" filter="url(#a)"/><path d="m-33.22-65.77-3.32 1.56-4.09 1.67-3.36 1.58-2.48 1.4-2.09 1.32-2.05 1.35-2.16 1.46-2.39 1.58-2.74 1.66-3.22 1.74-3.82 1.77-4.46 1.8-4.99 1.8-5.23 1.78-5.02 1.75-4.42 1.74-3.64 1.76-2.93 1.84-2.38 1.95-1.95 2.08-1.86 2.15-3.16 2.09-5.96 1.53m74.96-37.74-2.16 1.69-2.64 1.68-2.46 1.4-2.12 1.29-1.86 1.37-1.66 1.49-1.52 1.62-1.39 1.7-1.28 1.77-1.22 1.8-1.2 1.81-1.19 1.81-1.19 1.81-1.2 1.81-1.18 1.84-1.17 1.87-1.15 1.93-1.13 2-1.13 2.06-1.15 2.1-1.18 2.13-1.2 2.16-1.22 2.2-1.18 2.24-1.09 2.32-.96 2.4-.81 2.45-.69 2.45-.64 2.41-.65 2.33-.7 2.23-.7 2.21-.34 2.78" filter="url(#a)"/><path d="m-35.98-64.15-2.09 1.67-2.2 1.68-1.91 1.39-1.86 1.28-2 1.34-2.11 1.48-2.08 1.6-1.92 1.69-1.78 1.76-1.76 1.79-1.9 1.8-2.15 1.8-2.33 1.8-2.38 1.78-2.23 1.79-2 1.83-1.86 1.9-1.93 1.98-2.27 2.06-2.76 2.11-3.17 2.13-3.28 2.1-2.97 2.07-2.36 2.08-1.95 2.27-2.28 2.7-3.38 3.07" filter="url(#a)"/><path d="m-36.62-63.48-4.43 1.46-3.11 1.51-2 1.48-1.66 1.47-1.82 1.54-2.16 1.61-2.42 1.67-2.48 1.71-2.41 1.73-2.25 1.75-2.03 1.78-1.73 1.8-1.46 1.85-1.29 1.9-1.32 1.95-1.57 2.02-1.97 2.09-2.38 2.13-2.65 2.16-2.7 2.18-2.55 2.17-2.37 2.17-2.3 2.16-2.44 2.15-2.71 2.16-2.98 2.19-3.02 2.25-2.74 2.32-2.27 2.39-1.89 2.44-1.98 2.48-2.62 2.48-3.41 2.44-3.64 2.32-2.77 2.09-1.28 1.73-.77 1.14" filter="url(#a)"/><path d="m-41.36-59.75-1.24.82-1.41.89-1.86 1.22-2.43 1.49-3.09 1.63-3.61 1.72-3.72 1.77-3.34 1.79-2.65 1.81-1.9 1.8-1.32 1.79-.94 1.76-.78 1.77-.84 1.82-1.15 1.88-1.68 1.97-2.35 2.07-2.96 2.12L-82-27.5l-3.4 2.08-3.04 2.01-2.5 1.95-2.17 2.16-1.51 2.92" filter="url(#a)"/><path d="m-40.62-60.46-9.01 1.61-1.53 1.36-.28 1.48-.39 1.62-1.2 1.71-2.43 1.73-3.57 1.73-4.18 1.76-4.08 1.77-3.5 1.81-2.81 1.85-2.36 1.9-2.3 1.96-2.51 2.02-2.82 2.09-3.02 2.14-3 2.17-2.82 2.18-2.49 2.17-2.1 2.17-1.71 2.16-1.36 2.15-1.09 2.18-.97 2.2-1.07 2.26-1.38 2.32-1.85 2.38-2.34 2.43-2.68 2.46-2.76 2.44-2.68 2.39-2.73 2.28-3.16 2.16-3.91 2.06-4.28 2.11-3.15 2.41.1 2.71" filter="url(#a)"/><path d="m-42.89-58.65-.98.53-2.78 1.25-2.66 1.58-1.9 1.71-1.27 1.76-.98 1.8-.98 1.82-1.13 1.82-1.37 1.82-1.63 1.81-1.84 1.8-1.97 1.83-1.98 1.87-1.86 1.94-1.67 2-1.46 2.06-1.28 2.11-1.13 2.14-1.06 2.17-1.07 2.2-1.18 2.26-1.44 2.32-1.77 2.38-2.07 2.42-2.19 2.42-2.04 2.38-1.63 2.3-1.14 2.2-.79 2.1-.7 2.01-.61 2.08.09 2.87" filter="url(#a)"/><path d="m-42.89-58.65-2.03.53-5.11 1.23-4.81 1.56-3.15 1.7-1.88 1.75-1.4 1.79-1.35 1.81-1.37 1.82-1.34 1.81-1.39 1.79-1.7 1.78-2.26 1.8-2.98 1.84-3.68 1.92-4.17 1.99-4.38 2.06-4.34 2.1-4.2 2.12-4.08 2.13-4.11 2.14-4.2 2.2-4.13 2.31-3.6 2.43-2.78 2.48-2.47 2.45-3.26 2.51-3.16 3.51" filter="url(#a)"/><path d="m-43.6-57.77-2.76 1.56-2.64 1.73-1.89 1.79-1.35 1.76-1.11 1.71-1.17 1.71-1.41 1.75-1.76 1.78-2.04 1.81-2.19 1.85-2.17 1.92-2.04 1.99-1.86 2.08-1.66 2.14-1.51 2.16-1.42 2.18-1.38 2.17-1.34 2.15-1.31 2.12-1.27 2.09-1.24 2.05-1.24 2.05-1.16 2.15-.91 2.41-.74 2.67-1.73 2.18" filter="url(#a)"/><path d="m-43.6-57.77-4.43 1.56-5.21 1.73-3.51 1.79-2.02 1.76-1.22 1.71-.91 1.71-.9 1.75-1.11 1.78-1.46 1.81-1.87 1.85-2.29 1.92-2.59 1.99-2.76 2.08-2.83 2.14-2.9 2.16-3.1 2.18-3.48 2.17-3.98 2.15-4.37 2.12-4.43 2.09-3.99 2.05-3.2 2.05-2.4 2.15-2.06 2.41-2.2 2.67-.95 2.18m68.17-50.4-1.97 1.74-2.08 1.89-1.74 1.79-1.53 1.72-1.35 1.72-1.18 1.77-1.05 1.81-.99 1.85-1.01 1.89-1.08 1.96-1.22 2.04-1.36 2.1-1.51 2.15-1.6 2.18-1.63 2.18-1.59 2.18-1.47 2.16-1.29 2.16-1.12 2.16-.97 2.17-.86 2.21-.86 2.27-.94 2.32-1.08 2.38-1.23 2.42-1.29 2.43-1.22 2.42-.98 2.36-.67 2.28-.4 2.2-.28 2.15-.3 2.16-.31 2.26-.11 2.3.33 2.11.8 1.61" filter="url(#a)"/><path d="m-46.78-54.61-3.97 2.07-2.61 1.84-2.7 1.67-3.36 1.68-4.64 1.75-6.11 1.8-7 1.84-6.74 1.87-5.36 1.94-3.37 2.02-1.49 2.1-.3 2.15-.06 2.17-.64 2.18-1.58 2.17-2.5 2.16-3.12 2.13-3.52 2.13-3.85 2.13-4.25 2.17-4.56 2.23-4.5 2.31-3.81 2.39-2.6 2.44-1.33 2.48-.53 2.5-.6 2.47-1.68 2.37-3.59 2.17-4.11 1.95" filter="url(#a)"/><path d="m-47.27-54.35-6.87 2.6-2.82 1.9-1.17 1.85-.47 1.85-.49 1.84-.8 1.8-1.18 1.78-1.58 1.8-2.03 1.86-2.46 1.95-2.73 2.02-2.7 2.08-2.35 2.12-1.81 2.15-1.32 2.17-1.05 2.21-1.05 2.27-1.31 2.32-1.67 2.37-1.96 2.4-2.06 2.39-1.89 2.35-1.51 2.28-1.07 2.21-.8 2.16-.84 2.15-1.09 2.2-1.18 2.31-.96 2.4-.7 2.3-1.31 1.61" filter="url(#a)"/><path d="m-48.56-52.62-7 2.15-5.09 1.55-2.67 1.63-2.28 1.77-2.22 1.83-1.7 1.85-.89 1.89-.17 1.96.22 2.04.2 2.12-.15 2.16-.74 2.19-1.45 2.18-2.16 2.18-2.74 2.17-3.06 2.16-3.09 2.16-2.83 2.17-2.41 2.22-1.96 2.27-1.66 2.32-1.56 2.38-1.66 2.41-1.86 2.42-2.01 2.4-2.03 2.35-1.92 2.28-1.73 2.22-1.56 2.17-1.48 2.17-1.44 2.17-1.45 2.15-1.54 2.01-1.55 1.78-.9 1.59 1.59 1.66" filter="url(#a)"/><path d="m-51.29-49.51-.68.72-1.74 1.47-2.17 1.79-2.1 1.87-1.82 1.85-1.61 1.87-1.52 1.95-1.52 2.04-1.65 2.13-1.89 2.17-2.2 2.19-2.46 2.18-2.51 2.18-2.3 2.16-1.83 2.15-1.29 2.15-.8 2.17-.52 2.21-.47 2.26-.63 2.33-.93 2.38-1.31 2.41-1.61 2.43-1.74 2.4-1.62 2.35-1.27 2.28-.85 2.2-.57 2.16-.62 2.17-.91 2.2-1.12 2.2-.95 2.04-.64 1.7-2.29 1.36" filter="url(#a)"/><path d="m-51.29-49.51-16.99.72 2 1.47 2.33 1.8-.39 1.86-1.8 1.86-1.63 1.87-.9 1.95-.48 2.05-.6 2.13-1.13 2.17-1.74 2.19-2.24 2.19-2.59 2.17-2.83 2.17-3.07 2.15-3.34 2.16-3.62 2.17-3.82 2.21-3.81 2.27-3.58 2.33-3.14 2.38-2.64 2.41-2.21 2.42-1.97 2.39-2.01 2.35-2.26 2.28-2.67 2.21-3.19 2.18-3.73 2.16-4.24 2.17-4.48 2.14-3.86 2.01-2.01 1.78.07 1.59-2.05 1.66" filter="url(#a)"/><path d="m-51.29-49.51-.86.72-3.65 1.47-4.98 1.8-3.89 1.86-1.96 1.86-.73 1.87-.62 1.95-1.23 2.05-1.97 2.13-2.45 2.17-2.53 2.19-2.34 2.19-2 2.17-1.69 2.17-1.47 2.15L-85-18.6l-1.3 2.17-1.25 2.21-1.21 2.27-1.15 2.33-1.15 2.38-1.29 2.41-1.59 2.42-2.03 2.39-2.52 2.35-2.93 2.28-3.11 2.21-3.05 2.18-2.7 2.16-2.16 2.17-1.51 2.14-.91 2.01-.52 1.78.09 1.59 2.33 1.66" filter="url(#a)"/><path d="m-52.5-47.67-1.55 2.11-1.67 2.01-1.93 1.82-2.05 1.77-1.94 1.87-1.75 2.02-1.68 2.13-1.74 2.18-1.78 2.18-1.69 2.18-1.47 2.15-1.18 2.14-.95 2.11-.81 2.09-.74 2.09-.71 2.13-.73 2.2-.81 2.3-1.05 2.38-1.36 2.43-1.55 2.47-1.32 2.53-.68 2.59-.15 2.69" filter="url(#a)"/><path d="m-53.85-45.91-1.09 1.98-.99 1.77-.8 1.7-.65 1.74-.54 1.84-.46 1.97-.38 2.07-.3 2.13-.28 2.15-.29 2.18-.33 2.19-.38 2.23-.38 2.29-.34 2.34-.27 2.37-.17 2.39-.02 2.36.14 2.33.32 2.29.49 2.25.59 2.23.65 2.23.64 2.25.62 2.28.61 2.31.62 2.32.63 2.27.63 2.21.61 2.09.63 2 .68 1.96.83 2.08 1.07 2.39 1.49 2.84 1.64 2.89" filter="url(#a)"/><path d="m-54-45.47-1.69 2.11-2.37 1.81-2.64 1.72-2.15 1.88-1.45 2.06-.93 2.17-.73 2.21-.78 2.21-1.01 2.19-1.26 2.18-1.45 2.15-1.51 2.14-1.45 2.14-1.31 2.16-1.16 2.21-1.01 2.26-.86 2.33-.72 2.38-.57 2.41-.41 2.42-.27 2.39-.18 2.34-.21 2.27-.33 2.21-.51 2.16-.63 2.16-.59 2.16-.43 2.14-.39 2-.76 1.77-1.25 1.58-.51 1.66M65.52-19.52l3.26 3.13-.12 2.39.38 2.24 2.05 2.21 3.43 2.21 3.67 2.24 2.76 2.26 1.3 2.28v2.24l-.62 2.2-.49 2.17.11 2.16.83 2.18 1.38 2.2 1.67 2.25 1.81 2.26 1.9 2.26 2.02 2.25 2.05 2.19 1.83 2.16 1.24 2.14.37 2.15-.51 2.17-1.13 2.21-1.4 2.18-1.32 2.09-.89 1.91-.12 1.68.73 1.57 1.17 2.16" filter="url(#a)"/><path d="m65.52-19.52 1.23 3.14L69.28-14l2.97 2.24 1.71 2.22.29 2.21-.3 2.24-.17 2.27.24 2.28.59 2.24.8 2.21.88 2.17.87 2.16.82 2.18.75 2.21.65 2.25.56 2.26.46 2.26.31 2.24.13 2.2-.05 2.17-.19 2.14-.25 2.16-.22 2.17-.12 2.19-.03 2.16.1 2.06.25 1.93.42 1.77.49 1.74.22 1.98-.62 2.36M-55-43.64l-5.31 1.59-.84 1.63-1.02 1.68-1.99 1.82-2.44 1.97-2.14 2.08-1.42 2.13-.78 2.16-.55 2.16-.75 2.17-1.15 2.21-1.5 2.27-1.61 2.34-1.47 2.37-1.13 2.39-.8 2.38-.61 2.33-.66 2.27-.95 2.22-1.36 2.19-1.72 2.2-1.91 2.23-1.84 2.28-1.59 2.34-1.38 2.36-1.44 2.36-1.9 2.3-2.44 2.13-2.54 1.7-2.15.86" filter="url(#a)"/><path d="m-55.58-43.38-4.16 2.03-5.1 1.51-4.06 1.79-2.15 2.06-.86 2.2-.47 2.21-.69 2.2-1.17 2.17-1.58 2.15-1.78 2.13-1.75 2.11-1.63 2.1-1.57 2.1-1.76 2.14-2.28 2.22-3.02 2.3-3.75 2.38-4.11 2.43-3.98 2.47-3.57 2.47-3.47 2.46-3.87 2.34-4 2.15-4.37 1.93" filter="url(#a)"/><path d="m-55.58-43.38-4.61 2.03-6.51 1.51-7.05 1.79-5.38 2.06-2.11 2.2.75 2.21 2.03 2.2 1.66 2.17.19 2.15-1.79 2.13-3.68 2.11-4.96 2.1-5.25 2.1-4.53 2.14-3.27 2.22-2.27 2.3-2.11 2.38-2.9 2.43-4.13 2.47-5.14 2.47-5.66 2.46-5.44 2.34-3.44 2.15 2 1.93" filter="url(#a)"/><path d="m-56.36-42.16-1.12 1.8-1.31 1.64-1.38 1.8-1.63 1.98-2.15 2.1-2.77 2.15-3.24 2.16-3.45 2.16-3.32 2.17-2.9 2.2-2.3 2.27-1.69 2.33-1.26 2.38-1.11 2.4-1.26 2.37-1.65 2.33-2.22 2.26L-94-3.44l-3.54 2.19-4 2.19-4.09 2.22-3.71 2.29-2.95 2.33-2.11 2.36-1.47 2.36-1.13 2.3-.81 2.13-.74 1.69-3.16.86" filter="url(#a)"/><path d="m-56.36-42.16-1.51 1.8-1.38 1.63-1.26 1.8-1.66 1.98-2.28 2.09-2.62 2.15-2.62 2.16-2.42 2.15-2.38 2.17-2.68 2.2-3.32 2.26-4.09 2.33-4.79 2.38-5.29 2.4-5.56 2.37-5.59 2.33-5.34 2.27-4.68 2.2-3.64 2.18-2.41 2.18-1.4 2.22-.97 2.28-1.14 2.34-1.41 2.37-1.23 2.39-.66 2.39-.99 2.34-4.84 1.99" filter="url(#a)"/><path d="m-57.44-39.88-2.43 1.18-2.69 1.74-2.31 2-2.66 2.12-3.82 2.17-4.71 2.16-4.61 2.15-3.62 2.15-2.34 2.19-1.37 2.25-1.03 2.33-1.32 2.39-1.99 2.4-2.73 2.37-3.22 2.33-3.25 2.25-2.8 2.2-2.09 2.15-1.53 2.16-1.48 2.21-2 2.28-2.78 2.34-3.29 2.37-3.42 2.39-3.73 2.48-3 2.56" filter="url(#a)"/><path d="m-57.44-39.88-.77 1.2-1.4 1.77-2.53 2.03-3.59 2.15-3.89 2.19-3.53 2.19-2.95 2.17-2.35 2.2-1.74 2.23-1.11 2.29-.57 2.36-.3 2.38-.42 2.4-.89 2.37-1.63 2.33-2.45 2.28-3.21 2.26-3.74 2.24-3.9 2.24-3.68 2.26-3.13 2.28-2.4 2.29-1.66 2.27-1.08 2.25-.64 2.19-.35 2.14-.13 2.1-.03 2.12-.22 2.16-.78 2.23-1.54 2.28-2.11 2.26-2.1 2.14-1.53 1.98-.74 1.82.12 1.73.08 1.94" filter="url(#a)"/><path d="m-57.44-39.88-2.34 1.18-1.2 1.73-1.4 2-1.81 2.12-2.2 2.16-2.42 2.16-2.25 2.15-1.73 2.14-1.15 2.18-.74 2.25-.73 2.32-1.09 2.39-1.7 2.4-2.4 2.38L-83.54-8l-3.18 2.26-2.96 2.18-2.33 2.14L-93.5.73l-.73 2.19-.41 2.28-.72 2.36-1.58 2.34-2.36 2.32-1.72 2.75m43.58-54.85 2.47 1.18 1.39 1.73.12 2 .37 2.12 1.05 2.16 1.45 2.16 1.36 2.15.89 2.14.31 2.18-.07 2.25-.13 2.32.08 2.39.37 2.4.62 2.38.85 2.32 1.14 2.26 1.58 2.18 2.15 2.14 2.72 2.15 3.04 2.19 2.88 2.28 2.17 2.36 1.24 2.34 1.23 2.32 3.15 2.75" filter="url(#a)"/><path d="m-58.98-36.92-1.65 2-1.88 2.22-3.22 2.22-4.32 2.19-4.06 2.14L-76.8-24l-1.17 2.18-.21 2.27.04 2.34-.14 2.4-.44 2.41-.68 2.37-.85 2.32-.99 2.26-1.19 2.21-1.45 2.19-1.77 2.19-2.05 2.23-2.15 2.28-1.99 2.32-1.55 2.33-1.02 2.3-.79 2.21-1.11 2.07-1.96 1.88-2.88 1.73-3.05 1.72-.63 1.58" filter="url(#a)"/><path d="m-61.22-32.08-1.11 1.83-2.23 2.15-2.67 2.13-2.33 2.09-2.05 2.14-2.31 2.26-3.11 2.36-4.23 2.42-5.43 2.43-6.37 2.37-6.71 2.31-6.16 2.25-4.67 2.19-2.62 2.17-.63 2.18.63 2.23.78 2.27-.05 2.32-1.42 2.33-2.67 2.29-3.37 2.21-3.48 2.06-3.41 1.87-3.7 1.72-4.49 1.72-5.13 1.57m77.65-52.36 1.03 2.04 1.43 2.2.55 2.15-.07 2.11-.06 2.08.03 2.11-.05 2.18-.2 2.27-.18 2.36.03 2.41.39 2.43.7 2.42.83 2.37.75 2.32.53 2.24.34 2.19.32 2.16.51 2.13.87 2.13 1.23 2.1 1.46 2.11 1.48 2.12 1.41 2.2 1.41 2.31 1.57 2.37 1.78 2.28 1.84 2.1 1.83 2.16 1.98 3.08" filter="url(#a)"/><path d="m-62.51-28.57-6.95 2.04-.46 2.22-.16 2.15-1.09 2.11-1.75 2.1-1.86 2.12-1.6 2.19-1.34 2.28-1.27 2.37-1.36 2.41-1.44 2.43-1.38 2.42-1.14 2.38-.8 2.31-.49 2.26-.29 2.2-.21 2.16-.21 2.14-.25 2.14-.28 2.12-.31 2.14-.36 2.16-.42 2.21-.53 2.26-.71 2.28-.97 2.24-1.29 2.16-1.59 2.05-1.72 1.96-1.37 1.88-.1 1.91 1.83 2.31" filter="url(#a)"/><path d="m-63.23-26.92-3.43 2.68-.23 2.16.03 2.08-.29 2.07-.56 2.08-.73 2.16-.86 2.27-.93 2.36-.93 2.42-.79 2.43-.6 2.42-.41 2.38-.33 2.31-.34 2.24-.44 2.18-.57 2.14-.61 2.13-.51 2.11-.28 2.1.02 2.09.26 2.09.31 2.19.16 2.34-.09 2.44-.32 2.27-.5 1.79-.31 1.36" filter="url(#a)"/><path d="m-63.53-26.41-13.1 2.76-10.29 2.01-1.53 2.2 1.56 2.43.78 2.5-1.16 2.46-2.82 2.37-3.65 2.28-3.59 2.21-3.09 2.16-2.69 2.13-2.77 2.15-3.33 2.21-3.99 2.27-4.3 2.31-3.93 2.34-2.97 2.3-2.07 2.22-2.18 2.06-3.72 1.81-5.12 1.65-1.4 2.18M64.83-20.86l-.29-2.56.64-2.11.97-2.11.85-2.05.79-2.02.89-2.02.9-2.01.69-2 .26-1.95-.21-1.92-.65-1.88-1.02-1.85-1.36-1.84-1.63-1.83-1.8-1.8-1.81-1.77-1.64-1.71-1.34-1.64-.97-1.55-.68-1.46-.53-1.37-.61-1.3-.91-1.23-1.36-1.19-1.86-1.16-2.24-1.14-2.4-1.12-2.34-1.08-2.19-.99-1.89-.84-1.29-.66-.83-.55" filter="url(#a)"/><path d="m64.83-20.86 1.61-2.55 1.08-2.09-.47-2.1-1.11-2.04-1.1-1.99-.83-2.01-.48-2-.17-1.99.13-1.95.39-1.9.58-1.87.6-1.84.45-1.82.22-1.83.05-1.81-.02-1.78v-1.74l-.14-1.67-.55-1.57-1.22-1.47L62-60.24l-2.07-1.27-1.74-1.2-1.12-1.16-.35-1.08 1.27-.7" filter="url(#a)"/><path d="m64.83-20.86-.49-2.55-.25-2.09-.21-2.1-.14-2.04.13-1.99.64-2.01 1.25-2 1.57-1.99 1.35-1.95.62-1.9-.31-1.87-1.07-1.84-1.4-1.82-1.33-1.83-1.06-1.81-.8-1.78-.66-1.74-.64-1.67-.66-1.57-.75-1.47-.94-1.36-1.31-1.27-1.79-1.2-2.18-1.16-1.91-1.08-.29-.7" filter="url(#a)"/><path d="m64.34-22.69 4.12-1.13-1.12-1.96-.66-2.29.94-2.25 1.68-2.16 1.21-2.09.09-2.09-.91-2.08-1.39-2.04-1.35-1.95-1.07-1.84-.79-1.74-.62-1.68-.55-1.66-.54-1.66-.58-1.65-.73-1.62-1.03-1.56-1.44-1.49-1.74-1.44-1.78-1.41-1.53-1.4-1.13-1.35-.75-1.16-.47-.86-.21-.72" filter="url(#a)"/><path d="m63.91-24.63 2.22-.98 1.19-2.13.54-2.07.97-2.01 1.08-2.01.46-2.03-.4-2.01-1.12-1.96-1.55-1.92-1.79-1.88-1.86-1.86-1.81-1.84-1.65-1.83-1.41-1.8-1.13-1.76-.83-1.69-.55-1.62-.31-1.54-.14-1.46-.08-1.37-.13-1.3-.34-1.24-.68-1.2-1.17-1.15-1.75-1.12-2.31-1.07-2.77-1.02-3-.94-2.97-.88-2.79-.79-2.58-.73-2.53-.68-2.66-.63-2.93-.57-3.25-.5-3.57-.45-3.6-.4" filter="url(#a)"/><path d="m63.91-24.63 6.96-.97 1.18-2.12-.38-2.07.02-1.99.26-2.01-.01-2.02-.4-2-.42-1.96.04-1.91.79-1.87 1.44-1.86L75-47.24l1.17-1.83.24-1.8-.86-1.77-1.82-1.7-2.42-1.64-2.56-1.54-2.29-1.46-1.74-1.37-1.15-1.29-.7-1.23-.58-1.19-.82-1.16-1.36-1.13-2.02-1.11-2.59-1.06-2.88-.97-2.79-.86-2.55-.74-2.86-.72-4.73-.91" filter="url(#a)"/><path d="m64.11-23.43 1.97-2.09 1.27-2.56 2.22-2.34 1.71-2.13.75-2.06.34-2.07.46-2.08.64-2.05.56-1.95.22-1.83-.24-1.72-.69-1.65-.94-1.64-.86-1.66-.47-1.66.04-1.63.38-1.56.38-1.47-.01-1.4-.61-1.4-1.27-1.49-1.85-1.63-1.21-1.48m-2.82 41.17-.87-3.8-.08-2.25.44-1.91.47-1.95-.03-2.01-.69-2-1.15-1.94-1.28-1.88-1.12-1.84-.85-1.82-.55-1.81-.3-1.81-.13-1.81-.1-1.79-.23-1.74-.45-1.67-.6-1.58-.56-1.47-.41-1.34-.45-1.21-.91-1.14-1.13-1.46" filter="url(#a)"/><path d="m64.08-23.81 2.6-3.81 1.7-2.26-.56-1.92-.66-1.97-.04-2.02.05-2-.55-1.94-1.35-1.89-1.85-1.86-1.84-1.83-1.4-1.82-.78-1.82-.27-1.8-.05-1.78-.18-1.73-.51-1.65-.89-1.56-1.09-1.46-1.09-1.35-.91-1.27-.68-1.2-.49-1.16-.43-1.12-.88-1.11-3.09-1.39" filter="url(#a)"/><path d="m62.47-29.26.05-1.17.17-1.5.16-1.91.19-2.05-.03-2.02-.53-1.95-1.1-1.89-1.55-1.85-1.77-1.84-1.76-1.82-1.56-1.82-1.28-1.8-1.06-1.77-.96-1.71L50.41-56l-1.2-1.55-1.41-1.44-1.55-1.36-1.59-1.28-1.54-1.21-1.5-1.17-1.49-1.15-1.57-1.14-1.78-1.14-2.16-1.15-2.52-1.09-1.99-.71" filter="url(#a)"/><path d="m62.54-29.03 1.14-2.09 2.09-1.81.06-1.91-1.59-2.05-1.92-2.12L61-41.08l-.51-1.96.09-1.82.29-1.71.11-1.66-.27-1.65-.64-1.65-.78-1.63-.64-1.61-.26-1.55.13-1.49.34-1.43.29-1.38.01-1.34-.35-1.26-.71-1.19-1.09-1.09-1.62-1.05-2.24-1.05-2.67-1.03-2.46-.92-.8-.58" filter="url(#a)"/><path d="m61.76-30.66.23-1.09-.85-2.05-.99-2.18-.88-2.07-.76-1.95-.62-1.89-.43-1.85-.22-1.84-.11-1.83-.15-1.82-.33-1.8-.56-1.77-.75-1.7-.86-1.62-.92-1.53-1.01-1.44-1.18-1.36-1.44-1.28-1.75-1.23-2.04-1.18-2.27-1.15-2.36-1.12-2.33-1.09-2.14-1.03-1.86-.96-1.6-.86-1.51-.78-1.78-.72-2.32-.7-2.82-.63-3.09-.48" filter="url(#a)"/><path d="m61.22-31.63 7.43-1.39 4.23-1.81-1.07-2.07-1.7-2.16-.54-2.11.26-1.96.27-1.8-.09-1.69-.47-1.63-.69-1.64-.69-1.65-.53-1.64-.37-1.6-.39-1.55-.61-1.48-.94-1.43-1.16-1.38-1.11-1.34-.79-1.27-.33-1.18.03-1.07.05-1.03-.44-1.08-1.53-1.13-3.22-1.09" filter="url(#a)"/><path d="m61.22-31.63 1.44-1.39 2.08-1.82 3.16-2.07 3.4-2.16 2.52-2.11 1.07-1.96-.28-1.8-1.2-1.69-1.57-1.65-1.49-1.64-1.11-1.64-.68-1.64-.39-1.6-.35-1.55-.53-1.49-.8-1.42-1.01-1.39-1.11-1.33-1.19-1.26-1.42-1.18-1.8-1.09-2.26-1.05-2.54-1.04-2.51-1.04-2.18-.91-1.01-.58" filter="url(#a)"/><path d="m61.83-30.82 1.39-2.81-.35-2.46.66-2.11 1.06-1.94.42-1.88-.5-1.85-1.08-1.84-1.24-1.84-1.24-1.83-1.33-1.8-1.57-1.76-1.85-1.69-2.04-1.61-2.05-1.53-1.86-1.43-1.57-1.36-1.25-1.28-1.04-1.23-.98-1.19-1.05-1.14-1.25-1.1-1.52-1.05-1.76-1-1.99-.93-2.14-.86-2.24-.79-2.31-.72-2.39-.67-2.51-.61-2.7-.55-2.94-.49-3.25-.44-3.57-.36-3.78-.29-3.76-.21-3.45-.14-3.16-.13" filter="url(#a)"/><path d="m60.67-33.62-.77-2.73 1.22-1.99 1.93-1.84L64.16-42l.33-1.82.32-1.82.64-1.81.68-1.82.29-1.8-.31-1.77-.79-1.7-1.08-1.62-1.22-1.53-1.33-1.43-1.5-1.34-1.68-1.27-1.86-1.2-1.98-1.17-2.06-1.15-2.18-1.13-2.31-1.11-2.38-1.07-2.15-.99-1.61-.83-1-.65-1.34-.54m20.41 37.03-1.76-2.41-1.52-2.34-1.96-2.21-2.26-1.98-2.17-1.78-1.78-1.66-1.38-1.64-1.16-1.65-1.12-1.65-1.2-1.63-1.26-1.6-1.31-1.54-1.36-1.48-1.45-1.42-1.56-1.36-1.71-1.3-1.82-1.24-1.89-1.17-1.93-1.12-1.91-1.08-1.89-1.02-1.87-.99-1.86-.93-1.88-.88-1.87-.82-1.87-.75-1.84-.66-1.8-.57-1.76-.49-1.74-.42-1.75-.35-1.74-.29-1.72-.23-1.68-.19-1.62-.14-1.63-.09-1.71.01" filter="url(#a)"/><path d="m58.62-37.3 4.09-2.02-2.3-2.29-2.29-1.98-1.09-1.71-.13-1.58.33-1.59.35-1.62.1-1.65-.22-1.64-.5-1.6-.65-1.54-.71-1.47-.79-1.41-.96-1.37-1.2-1.31-1.36-1.25-1.31-1.17-1-1.09-.62-1.05-.45-1.03-.76-1.01-1.68-.98-2.96-.95-3.65-.93-1.94-.78" filter="url(#a)"/><path d="m58.05-38.66-1.73-3.1-1.09-2.04-.87-1.63-.92-1.51-1.08-1.53-1.26-1.61-1.36-1.66-1.39-1.65-1.4-1.6-1.41-1.53-1.44-1.46-1.48-1.4-1.51-1.37-1.54-1.32-1.55-1.25-1.56-1.16-1.59-1.07-1.7-1.04-1.84-1.03-1.93-1.03-1.82-.91-1.41-.57" filter="url(#a)"/><path d="m56.96-40.66 2.34-1.63 1.64-1.81-.75-1.83-1.97-1.83-2.24-1.83-2-1.83-1.52-1.77-1.05-1.7-.8-1.61-.86-1.5-1.12-1.41-1.47-1.33-1.74-1.27-1.89-1.21-1.93-1.17-1.89-1.13-1.84-1.09-1.8-1.04-1.79-.98-1.83-.92-1.89-.85-2-.77-2.14-.72-2.3-.65-2.48-.59-2.63-.54-2.75-.47-2.81-.41-2.85-.35-2.88-.27-2.89-.19-2.91-.13-2.91-.05-2.91.02-2.88.08-2.95.13-3.15.09" filter="url(#a)"/><path d="m56.96-40.66 18.19-1.6.33-1.78-2.9-1.79-3.01-1.8-3.25-1.81-3.6-1.81-3.56-1.77-3.03-1.7-2.19-1.61-1.3-1.51-.64-1.4-.35-1.32-.42-1.25L50.6-63l-.77-1.16-.71-1.13-.48-1.13-.31-1.1-.37-1.07-.83-.97-1.67-.83-2.34-.64-1.18-.54" filter="url(#a)"/><path d="m56.96-40.66.08-1.62 1.49-1.79.96-1.81-.22-1.81-1.1-1.82-1.54-1.82-1.66-1.77-1.63-1.7-1.48-1.61-1.25-1.5-.96-1.41-.74-1.33-.66-1.25-.75-1.21-1.02-1.16-1.35-1.14-1.66-1.11-1.88-1.06-1.99-1.01-2.06-.94-2.13-.86-2.28-.77-2.5-.72-2.72-.67-2.81-.63-2.7-.56-2.45-.5-2.28-.4m39.29 33.98-8.14-1.61-.05-1.77.1-1.8-1.26-1.8-2.44-1.82-3.13-1.81-3.49-1.77-3.59-1.7-3.46-1.61-3.19-1.5-2.83-1.41-2.44-1.32-2.07-1.25-1.75-1.2-1.58-1.16-1.62-1.13-1.83-1.12-2.05-1.1L10-68.58l-2.06-.97-1.85-.83-1.46-.73-.85-.71-.29-.9" filter="url(#a)"/><path d="m54.91-44.21 2.42-1.83 3.42-1.75 1.31-1.79-.96-1.83-1.12-1.79.3-1.7 1.73-1.59 2.06-1.49 1.21-1.39-.25-1.3-1.59-1.23-2.37-1.18-2.58-1.15-2.42-1.13-2.1-1.12-1.72-1.09-1.38-1.04-1.19-.95-1.38-.84-1.88-.71-2.46-.71-4.21-.9" filter="url(#a)"/><path d="m53.53-46.17 1.56-.95 2.28-1.51-.09-1.7-2.07-1.74-2.68-1.71-2.39-1.62-1.82-1.52-1.36-1.46-1.13-1.39-1.12-1.35-1.23-1.28-1.35-1.22-1.46-1.16-1.54-1.11-1.63-1.05-1.77-1.01-1.95-.97-2.13-.92-2.29-.87-2.41-.79-2.48-.72-2.52-.64-2.56-.56-2.59-.48-2.63-.41-2.67-.34-2.71-.27-2.74-.23-2.78-.16-2.84-.1-2.92-.03-3 .05-3.1.13-3.23.2-3.49.22-4.07.25" filter="url(#a)"/><path d="m53.28-46.15 2.96-1.75-.55-1.77.35-1.86 1.75-1.82 2.05-1.7 1.27-1.59v-1.48l-1.22-1.38-2.04-1.3-2.39-1.23-2.44-1.19-2.41-1.15-2.48-1.13-2.6-1.1-2.65-1.06-2.5-.99-2.1-.93-1.6-.84-1.2-.77-1.06-.71-1.28-.67-1.83-.61-2.55-.56-3.24-.49-3.63-.44-4.09-.4" filter="url(#a)"/><path d="m53.38-46.48-1.07-2.01-1.5-1.77-1.65-1.78-1.56-1.72-1.35-1.61-1.11-1.51-.96-1.42-.93-1.37-1.02-1.34-1.14-1.3-1.27-1.22-1.4-1.15-1.52-1.08-1.65-1.04-1.79-1.01-1.91-.99-2.01-.96-2.12-.91-2.25-.87-2.36-.79-2.35-.7-2.16-.59-1.86-.44" filter="url(#a)"/><path d="m51.72-49.01.06-1.36-1.47-1.76-1.04-1.75-.45-1.62-.3-1.49-.47-1.42-.6-1.37-.54-1.33-.41-1.29-.44-1.21-.77-1.15-1.39-1.08-2.05-1.04-2.49-1.01-2.57-.98-2.32-.94-1.94-.9-1.66-.83-1.62-.76-1.8-.66-2.09-.57-2.4-.47-2.81-.4-3.43-.37-3.63-.39" filter="url(#a)"/><path d="m51.72-49.01-.78-1.37-1.04-1.78-.98-1.75-1-1.63-1.24-1.5-1.52-1.42-1.69-1.37-1.7-1.34-1.57-1.28-1.41-1.22-1.27-1.15-1.23-1.09-1.3-1.04-1.48-1.01-1.75-.97-2.03-.93-2.25-.87-2.41-.81-2.48-.73-2.48-.64-2.44-.56-2.4-.48-2.37-.41-2.38-.34-2.4-.28-2.4-.23-2.41-.18-2.45-.14-2.61-.09-2.94.01" filter="url(#a)"/><path d="m48.54-52.45-1.62-1.76-1.33-1.57-1.01-1.42-.89-1.35-.99-1.34-1.18-1.33-1.3-1.29-1.31-1.22-1.29-1.13-1.34-1.06-1.52-1.03-1.75-1-2.01-.98-2.19-.93-2.29-.89-2.3-.82-2.22-.74-2.14-.66-2.06-.56-2.05-.47-2.16-.4-2.36-.35-2.54-.29-2.57-.16" filter="url(#a)"/><path d="m45.93-55.27-1.52-1.78-1.03-1.53-.61-1.36-.66-1.24-1.09-1.19-1.55-1.15-1.83-1.14-1.9-1.12-1.89-1.08-1.88-1.04-1.89-.97-1.93-.89-1.98-.82-2.02-.75-2.07-.68-2.11-.63-2.16-.58-2.2-.52-2.26-.45-2.32-.39-2.36-.33-2.4-.25-2.42-.18-2.42-.11-2.4-.04-2.38.03-2.43.09-2.57.17-2.9.26-3.46.36-4.19.47" filter="url(#a)"/><path d="m45.93-55.27 2.33-1.79-2.52-1.53-2.44-1.35-1.45-1.25-.79-1.19-.66-1.16-.9-1.14-1.29-1.11-1.67-1.09-1.95-1.03-2.1-.97-2.18-.89-2.2-.82-2.23-.74-2.26-.69-2.32-.63-2.37-.57-2.44-.51-2.5-.45-2.55-.39-2.56-.32-2.57-.24-2.53-.18-2.5-.1-2.48-.03-2.49.03-2.56.11-2.75.19-3.02.27-3.33.35-3.56.43-3.54.49-3.41.51" filter="url(#a)"/><path d="m45.18-56.14-1.22-1.3-1.27-1.26-1.5-1.32-1.66-1.35-1.63-1.31-1.52-1.21-1.46-1.12-1.5-1.06-1.65-1.01-1.81-1-1.96-.96-2.06-.92-2.12-.87-2.13-.79-2.13-.72-2.09-.63-2.07-.54-2.05-.47-2.05-.39-2.09-.33-2.12-.28-2.14-.23-2.14-.17-2.14-.12-2.17-.07-2.16.01-1.86.12" filter="url(#a)"/><path d="m44.23-57.34 1.1-1.39-1.1-1.32.22-1.2.95-1.16.4-1.14-.62-1.14-1.38-1.12-1.71-1.08-1.85-1.04-2.05-.97-2.3-.89-2.57-.81-2.7-.75-2.72-.68-2.66-.63-2.62-.57-2.68-.52-2.8-.46-2.97-.39-3.11-.33-3.18-.25-3.21-.19-3.21-.11-3.22-.04-3.26.03-3.33.09-3.59.15-4.28.24-5.46.41" filter="url(#a)"/><path d="m42.45-58.7-.57-1.46-.5-1.18-1.4-1.13-1.91-1.14-1.97-1.14-1.83-1.12-1.68-1.09-1.6-1.03-1.62-.97-1.76-.88-1.92-.81-2.09-.74-2.19-.67-2.25-.63-2.25-.56-2.24-.51-2.22-.45-2.23-.38-2.24-.31-2.26-.25-2.27-.17-2.27-.1-2.27-.03-2.29.04-2.35.11-2.48.19-2.69.27-2.9.35-3.02.43-2.9.49-2.65.51" filter="url(#a)"/><path d="m42.45-58.7-1.49-1.46-.52-1.18.58-1.13.7-1.14-.19-1.14-1.34-1.12-2.04-1.09-2.12-1.03-1.78-.97-1.36-.88-1.12-.81-1.15-.74-1.4-.67-1.79-.63-2.22-.56-2.64-.51-2.99-.45-3.25-.38-3.45-.31-3.54-.25-3.58-.17-3.59-.1-3.61-.03-3.66.04-3.81.11-4.12.19-4.59.27-5.15.35-5.5.43-5.26.49-4.61.51" filter="url(#a)"/><path d="m42.33-58.8-3.86-1.24-1.99-1.44-1.87-1.39-1.82-1.22-2.01-1.09-2.43-1.03-2.79-1.01-2.84-.99-2.59-.96-2.23-.91-1.9-.85-1.71-.77-1.64-.69-1.64-.61-1.63-.53-1.58-.44-1.48-.38-1.37-.32-1.25-.25-1.15-.2-1.09-.13-1.03-.07-1.01-.01-.98.07-.96.14-.94.22-.9.27-.83.35-.73.42-.56.47-.28.54.12.61.18.88" filter="url(#a)"/><path d="m40.57-60.45.33-1-1.26-1.05-1.21-1.12-.9-1.14-.81-1.12-1.01-1.09-1.28-1.04-1.46-.97-1.57-.88-1.67-.8-1.83-.73-2.06-.68-2.29-.62-2.49-.57-2.63-.52-2.73-.45-2.79-.4-2.82-.32-2.82-.26-2.82-.18-2.83-.11-2.85-.04-2.87.02-2.85.08-2.91.13-3.14.09" filter="url(#a)"/><path d="m41.3-59.97-1.81-1.47-1.69-1.51-1.1-1.22-.95-1.03-1.24-.99-1.62-.98-1.85-.99-1.86-.97-1.78-.92-1.71-.86-1.76-.79-1.86-.71-2.01-.62-2.11-.53-2.19-.45-2.26-.39-2.34-.33L8.7-75l-2.55-.22-2.61-.18-2.64-.13-2.77-.09-3.12.01" filter="url(#a)"/><path d="m41.3-59.97 2.9-1.49-2.57-1.51-2.16-1.23-1.55-1.04-1.65-1-2.04-1-2.31-.99-2.34-.97-2.23-.91-2.07-.85-1.9-.77-1.78-.69-1.74-.61-1.76-.52-1.88-.44-2.08-.38-2.32-.32-2.58-.25-2.83-.2-3.04-.13-3.2-.08h-3.33l-3.42.07-3.51.14-3.57.21-3.69.27-3.85.34-4.14.42-4.46.47-4.4.49-3.64.38" filter="url(#a)"/><path d="m41.3-59.97-1.47-1.49-2.13-1.52-1.88-1.22-1.7-1.06-1.69-1-1.77-1-1.86-.99-1.92-.96-1.97-.91-2-.85-2.01-.77-2.02-.68-2.02-.61-2.04-.52-2.05-.44-2.08-.37-2.1-.31-2.12-.25-2.13-.19-2.13-.13-2.15-.06-2.15.01-2.17.07-2.17.15-2.19.22-2.2.29-2.19.35-2.19.43-2.19.49-2.23.57-2.3.66-2.44.79-2.69.95-3.46 1.21" filter="url(#a)"/><path d="m39.36-61.64.48-.85-1.09-1.18-2.05-1.16-2.32-1.14-2.26-1.09-2.09-1.05-1.89-.96-1.76-.87-1.72-.8-1.75-.72-1.82-.67-1.89-.61-1.97-.56-2.06-.49-2.16-.44-2.29-.37-2.41-.3-2.53-.23-2.65-.15-2.75-.09-2.87-.01-3.01.06-3.19.13-3.38.2-3.57.28-3.7.34-3.74.4-3.71.44-3.71.47-3.78.49-4.05.58-4.7.75-6.22 1.04" filter="url(#a)"/><path d="m39.87-61.09-2.61-2.05-.56-1.23 1.34-.97 1.84-.96.7-1-1.16-1-2.74-.96-3.55-.91-3.66-.85-3.32-.76-2.86-.68-2.52-.6-2.35-.51-2.37-.43-2.49-.37-2.62-.31-2.74-.24-2.82-.18-2.89-.12-2.97-.05-3.07.02-3.23.09-3.41.15-3.61.23-3.82.3-4.05.37-4.27.43-4.51.51-4.7.59-4.75.65-4.61.72-4.3.77-4.02.79-4.16.84-5.53 1.06-8.95 1.47" filter="url(#a)"/><path d="m39.87-61.09-2.5-2.04-1.74-1.23-1.36-.97-1.26-.96-1.35-.99-1.56-1-1.83-.96-2.07-.92-2.24-.84-2.29-.77-2.25-.68-2.18-.6-2.13-.52-2.09-.44-2.11-.37-2.13-.31-2.16-.25-2.18-.19-2.19-.13-2.19-.06-2.21.01-2.24.07-2.27.15-2.33.21-2.38.29-2.43.35-2.44.42-2.42.48-2.39.56-2.45.63-2.62.75-2.26.83" filter="url(#a)"/><path d="m38.6-62.02-2.27-1.62-1.69-1.22-1.61-1.12-1.69-1.09-1.66-1.05-1.49-.96-1.21-.87-.91-.79-.77-.71-.82-.67-1.11-.61-1.6-.57-2.16-.51-2.7-.45-3.07-.39-3.23-.32-3.2-.25-3.05-.18-2.92-.11-2.86-.04-2.85.03-2.84.08-2.98.13-3.45.09" filter="url(#a)"/><path d="m38.6-62.02-1.99-1.63-.69-1.24-.4-1.13-1.07-1.1-1.76-1.05-1.94-.96L29.1-70l-1.23-.78-1.01-.72-1.13-.66-1.56-.61-2.14-.55-2.67-.49-3.01-.43-3.17-.37-3.17-.29-3.1-.22-3.02-.15-3-.08-3.03-.01-3.15.07-3.34.14-3.6.21-3.9.28-4.2.34-4.43.4-4.51.45-4.43.49-4.25.54-4.17.63-4.45.76-5.31.92-6.44 1.1-6.14 1.32" filter="url(#a)"/><path d="m35.64-64.04-.14-1-.64-1-.61-1.08-.69-1.06-.94-.96-1.16-.87-1.33-.77-1.51-.7-1.74-.66-1.99-.62-2.22-.56-2.41-.51-2.61-.44-2.82-.39-3.02-.32-3.19-.25-3.28-.17-3.35-.11-3.37-.04-3.39.03-3.42.08-3.49.13-3.63.09" filter="url(#a)"/><path d="m34.57-64.98-.51-.4-1.33-.89-1.69-1.04-1.78-1.05-1.74-.98-1.62-.92-1.51-.84-1.44-.76-1.47-.68-1.62-.58-1.86-.5-2.15-.43-2.42-.36-2.63-.3-2.75-.23-2.82-.18-2.84-.12-2.85-.04-2.87.02-2.9.09-2.92.16-2.94.23-2.95.3-2.96.37-3.02.44-3.13.51-3.31.58-3.55.66-3.81.72-4 .76-4.11.79-4.24.84-4.72 1.07-5.86 1.46" filter="url(#a)"/><path d="m34.18-65.25-1.26-.8-1.63-1.12-1.48-1.1-1.32-.97-1.34-.86-1.53-.76-1.78-.7-2-.65-2.16-.6-2.25-.55-2.31-.5-2.36-.43-2.39-.36-2.41-.3-2.38-.23-2.34-.15-2.3-.08-2.27-.02-2.3.06-2.41.13-2.59.2-2.8.27-2.99.35-3.05.42-2.95.44-2.71.44-2.34.41-1.51.32" filter="url(#a)"/><path d="M34.18-65.25 33-66.04l-1.6-1.12-1.69-1.09-1.77-.98-1.84-.85-1.92-.76-1.97-.69-2.02-.66-2.03-.6-2.05-.56-2.05-.5-2.1-.44-2.13-.37-2.18-.31-2.2-.24-2.19-.17-2.14-.09-2.09-.03-2.04.03-2.05.1-2.15.18-2.43.25-2.9.37-3.45.46" filter="url(#a)"/><path d="m34.18-65.25-1.04-.8-1.4-1.12-1.51-1.1-1.55-.97-1.54-.86-1.56-.76-1.67-.7-1.84-.65-2-.6-2.13-.55-2.22-.5-2.28-.43-2.35-.36-2.41-.3-2.48-.23-2.54-.15-2.61-.08-2.69-.02-2.82.06-3.03.13-3.34.2-3.75.27-4.17.35-4.53.42-4.63.44-4.35.44-3.69.41-2.25.32" filter="url(#a)"/><path d="m34.57-65.02-1.86-1.1-1.93-1.18-1.92-1.09-1.99-.99-2.1-.92-2.17-.84-2.15-.76-2.09-.67-2.01-.58-1.96-.5-1.95-.42-1.97-.36-2.01-.3-2.06-.24-2.1-.19-2.13-.12-2.18-.06-2.22.01-2.25.08-2.28.15-2.31.22-2.31.29-2.3.35-2.3.42-2.33.49-2.38.55-2.49.64-2.61.74-2.42.83" filter="url(#a)"/><path d="m33.6-65.65-1.97-1.51-2.03-1.2-1.69-.99-1.15-.84-.81-.75-.91-.68-1.4-.65-2.01-.6-2.5-.54-2.79-.48-2.87-.42-2.85-.34-2.76-.28-2.7-.21-2.66-.13-2.68-.06-2.77.02-2.92.08-3.1.16-3.3.23-3.48.29-3.6.36-3.66.41-3.67.47-3.64.54-3.63.6-3.65.68-3.72.77-3.89.84-4.16.9-4.56.95-5.06.96-5.49 1-5.65 1.06-5.38 1.24-5.1 1.63-6.5 2.39" filter="url(#a)"/><path d="m30.33-67.53-1.6-.96-1.63-.96-1.39-.79-1.49-.71-1.75-.67-1.96-.64-2.04-.6-2.07-.55-2.08-.49-2.13-.43-2.2-.36-2.27-.3-2.3-.22-2.3-.15-2.26-.08-2.24-.01-2.26.05-2.34.13-2.49.2-2.68.27-2.87.36-2.94.42-2.86.46-2.67.46-2.38.42" filter="url(#a)"/><path d="m30.48-67.61-1.29-1.02-1.77-.92-2.3-.88-2.37-.83-2.19-.76-1.96-.66-1.83-.56-1.82-.48-1.9-.41-2.04-.34-2.18-.29-2.27-.22-2.32-.16-2.35-.11-2.35-.03-2.36.03-2.39.11-2.45.17-2.53.25-2.61.32-2.7.38-2.76.46-2.79.53-2.76.59-2.72.66-2.66.72-2.64.78-2.69.82-2.83.87-2.99.93-3.09.98-3.01 1.04-2.77 1.09-2.67 1.19-2.98 1.28" filter="url(#a)"/><path d="m28.08-68.7-1.19-.9-1-.85-1.38-.84-1.86-.76-2.26-.66-2.38-.56-2.32-.48-2.18-.4-2.08-.34-2.1-.29-2.21-.24-2.36-.17-2.55-.13-2.7-.05-2.86.01-2.99.08-3.16.16-3.36.22-3.59.28-3.79.35-3.91.42-3.87.48-3.69.53-3.66.61-5.08.87" filter="url(#a)"/><path d="m28.08-68.7-1.86-.91-2-.86-2.14-.84-2.15-.76-2.07-.66-2.01-.56-1.98-.47-1.98-.4-2-.34-2.04-.28-2.05-.21-2.06-.16-2.07-.1-2.06-.03-2.05.04-2.06.11-2.05.18-2.05.26-2.05.32-2.04.39-2.04.46-2.05.54-2.05.6-2.05.66-2.04.73-2.02.78-1.98.83-1.95.88-1.91.93-1.87 1-1.85 1.06-1.84 1.13-1.88 1.23-1.99 1.37-2.15 1.56-2.34 1.83" filter="url(#a)"/><path d="m24.77-70.13-2.72-1.24-1.75-.83-1.53-.65-1.61-.54-1.83-.45-2.03-.38-2.2-.33-2.27-.27-2.29-.22-2.31-.16-2.36-.1-2.43-.04-2.52.04-2.63.1-2.77.18-2.91.24-3.05.31-3.16.38-3.2.45-3.22.52-3.26.59-3.36.66-3.55.72-3.8.77-4.02.8-4.19.85-4.36.94-4.24.97-2.95.51" filter="url(#a)"/><path d="m22.92-71.05-1.94-.66-2.2-.72-2.05-.62-2.02-.54-2.07-.47-2.14-.4-2.16-.33-2.13-.26-2.04-.18-1.93-.11-1.85-.04-1.78.03-1.76.11-1.76.18-1.79.24-1.81.32-1.8.37-1.76.43-1.71.5-1.64.55-1.57.63-1.49.7-1.42.78-1.35.84-1.3.91-1.26.97-1.26 1.01-1.28 1.09-1.29 1.17-1.27 1.26-1.16 1.34-.96 1.37-.65 1.33-.38 1.27-.37 1.31-.72 1.4-.5.92" filter="url(#a)"/><path d="m22.92-71.05-.25-.65-1.11-.71-2.17-.62-2.4-.54-2.23-.47-2.1-.4-2.11-.35-2.26-.27-2.44-.2-2.58-.13-2.67-.07-2.71.01-2.79.07-2.92.15-3.13.21-3.38.29-3.59.35-3.68.41-3.58.44-3.35.45-3.02.45-2.77.49-3.67.71" filter="url(#a)"/><path d="m20.8-71.81-1.35-.56-1.24-.57-1.05-.51-1.36-.43-1.87-.37-2.24-.32-2.44-.27-2.48-.22-2.48-.16-2.48-.1-2.53-.03-2.63.03-2.79.11-3.02.18-3.25.25-3.45.31-3.53.38-3.46.45-3.31.53-3.18.59-3.26.66-3.62.72-4.22.76-4.87.81-5.41.85-5.7.94-5.5.96-4.56.51" filter="url(#a)"/><path d="m21.73-71.57-3.19-.9-2.51-.64-2.06-.53-1.95-.46-1.99-.39L8-74.82l-2.02-.26-1.96-.18-1.88-.11-1.81-.04-1.77.03-1.75.11-1.77.17-1.8.25-1.83.31-1.81.37-1.76.43-1.68.48-1.59.55-1.51.61-1.47.7-1.44.77-1.42.85-1.38.9-1.33.95-1.24.99-1.2 1.04-1.22 1.14-1.26 1.29-1.25 1.46-1.03 1.55-.46 1.33.05.59" filter="url(#a)"/><path d="m19.84-72.32-1.18-.66-.91-.52-1.65-.43-2.2-.36-2.51-.32-2.6-.26-2.56-.21-2.53-.15-2.53-.09-2.61-.02-2.72.06-2.84.12-2.91.2-2.93.26-2.9.34-2.86.4-2.82.48-2.81.54-2.84.61-2.89.68-3.03.73-3.26.78-3.6.84-4.09.89-4.62.95-5.08 1.01-5.32 1.07-5.27 1.16-5.03 1.24-4.8 1.34-4.75 1.4-4.8 1.4-4.6 1.32-4.04 1.31" filter="url(#a)"/><path d="m18.67-72.72-1.73-.49-1.8-.48-1.89-.44-2.02-.39-2.16-.33-2.23-.26-2.21-.19-2.16-.11-2.08-.04-2.06.03-2.08.1-2.15.17-2.28.23-2.4.31-2.49.36-2.54.42-2.51.47-2.45.51-2.37.58-2.32.67-2.31.77-2.33.86-2.4.93-2.5.96-2.66.94-2.63.9-1.18.47" filter="url(#a)"/><path d="m18.67-72.72-.28-.5-2.17-.47-2.55-.45-2.5-.39-2.38-.33-2.27-.25-2.17-.18-2.09-.11-2.06-.03-2.07.04-2.12.11-2.22.18-2.32.25-2.41.31-2.45.38-2.45.43-2.42.49-2.37.55-2.36.62-2.38.7-2.43.78-2.51.84-2.59.91-2.64.95-2.65 1-2.62 1.07-2.55 1.15-2.52 1.28-2.58 1.4-2.71 1.43-2.76 1.27-2.44.91-1.63.7" filter="url(#a)"/><path d="m16.85-73.05-.38-.53-1.94-.39-2.24-.35-2.25-.31-2.22-.26-2.17-.21-2.14-.16-2.16-.09-2.19-.03-2.24.04-2.31.11-2.39.19-2.47.25-2.54.32-2.59.38-2.67.46-2.76.52-2.9.59-3.1.67-3.24.72-3.27.76-3.09.8-2.83.85-2.72.94-2.83.96-2 .51" filter="url(#a)"/><path d="m16.85-73.05-1.05-.53-1.07-.39-1.65-.35-2.11-.31-2.31-.26-2.32-.21-2.28-.16-2.25-.09-2.24-.03-2.27.04-2.35.11-2.45.19-2.56.25-2.68.32-2.83.38-3 .46-3.21.52-3.45.59-3.63.67-3.7.72-3.61.76-3.41.8-3.33.85-3.71.94-4.46.96-3.71.51" filter="url(#a)"/><path d="m15.05-73.71-1.43-.32-1.48-.33-1.84-.3-2.12-.26-2.24-.21-2.27-.15-2.26-.08H-.86l-2.33.06-2.4.14-2.51.21-2.6.28-2.65.34-2.66.42-2.63.49-2.59.56-2.53.62-2.52.69-2.56.74-2.65.8-2.82.86-3 .91-3.16.97-3.25 1.03-3.22 1.11-3.11 1.17-2.97 1.25-2.88 1.32-2.93 1.37L-62-58.6l-3.57 1.47-4.03 1.54-4.43 1.64-4.56 1.72-4.19 1.7-3.07 1.49-1.66 1.37" filter="url(#a)"/><path d="m15.05-73.71-1.45-.32-1.65-.33-1.91-.3-2.05-.26-2.12-.21-2.18-.15-2.26-.08-2.34-.01-2.45.06-2.56.14-2.7.2-2.86.28-3.01.35-3.14.41-3.21.49-3.21.55-3.19.62-3.14.68-3.11.75-3.13.79-3.18.85-3.28.9-3.45.96-3.69 1.03-3.98 1.09-4.29 1.17-4.52 1.25-4.64 1.31-4.72 1.37-4.96 1.41-5.47 1.43-6.13 1.5-6.43 1.67-6.27 2-8.33 2.6" filter="url(#a)"/><path d="m15.05-73.71-1.44-.32-1.74-.32-2.07-.31-2.16-.26-2.14-.21-2.12-.15-2.14-.08-2.18-.02-2.24.06-2.3.13-2.34.2-2.4.27-2.45.33-2.54.41-2.63.48-2.71.54-2.77.61-2.77.68-2.74.73-2.7.79-2.69.83-2.8.89-3.03.94-3.37 1-3.7 1.06-3.88 1.15-3.81 1.24-3.57 1.35-3.31 1.44-3.11 1.43-1.98 1.05" filter="url(#a)"/><path d="m15.05-73.71-1.42-.32-1.72-.32-2.06-.31-2.16-.26-2.14-.21-2.09-.15-2.05-.09-2.04-.02-2.05.05-2.07.13-2.1.19-2.11.27-2.12.33-2.1.39-2.1.47-2.09.54-2.1.6-2.13.67-2.16.73-2.18.77-2.19.82-2.17.87-2.15.93-2.09.98-2.03 1.03-1.99 1.09-2.07 1.18-2.22 1.27" filter="url(#a)"/><path d="m13.34-74.06-1.5-.3-2.07-.32-2.15-.27-2.13-.21-2.09-.15-2.09-.08-2.09-.02-2.1.05-2.11.13-2.11.2-2.12.26-2.12.33-2.17.39-2.21.47-2.27.53-2.32.61-2.34.67-2.31.72-2.26.77-2.17.82-2.11.86-2.14.92-2.23.98-2.25 1.01-2.18 1.07-2.48 1.14" filter="url(#a)"/><path d="m12.65-74.33-2.01-.33-2.24-.31-2.22-.25-2.11-.17-2.01-.09-1.93-.03-1.91.04-1.93.11-2 .18-2.1.25-2.18.31-2.22.38-2.2.42-2.15.47-2.09.51-2.09.58-2.13.67-2.22.77-2.3.87-2.37.93-2.38.95-2.32.94-2.09.89-.84.47" filter="url(#a)"/><path d="M12.53-74.33 9.9-74.7l-2.13-.28-2-.21-2.08-.14-2.3-.09-2.56-.01-2.77.06-2.92.14-2.99.2-3.06.27-3.16.34-3.36.41-3.62.47-3.88.54-4.04.61-4.08.68-3.98.73-3.87.78-3.83.83-3.98.87-4.28.93-4.64.98-5.04 1.04-5.4 1.11-5.55 1.2-5.19 1.32-5.92 1.46" filter="url(#a)"/><path d="m9.21-74.75-2.02-.29-2-.18-2.08-.14-2.19-.08-2.25-.01-2.29.07-2.31.15-2.36.21-2.47.29-2.6.35-2.7.41-2.73.49-2.71.56-2.67.62-2.69.69-2.77.74-2.91.79-3.07.84-3.2.9-3.28.95-3.3 1.01-3.31 1.09-3.39 1.16-3.57 1.24-3.84 1.32-4.11 1.39-4.23 1.39-4.12 1.36-4.31 1.35-5.62 1.47" filter="url(#a)"/><path d="m4.92-75.2-1.97-.2-1.94-.1-2-.01-2.06.08-2.11.16-2.18.23-2.25.3-2.33.36-2.38.43-2.45.5-2.52.56-2.62.64-2.78.7-3 .75-3.25.8-3.51.86-3.7.9-3.77.97-3.73 1.03-3.57 1.1-3.36 1.18-3.18 1.24-3.03 1.32-2.96 1.37-2.94 1.41-2.95 1.45-3.07 1.53-3.39 1.65-3.95 1.79-4.26 1.78-3.18 1.05" filter="url(#a)"/><path d="m4.92-75.2-1.86-.2-2.01-.1-2.15-.01-2.22.09-2.22.16-2.2.23-2.17.3-2.14.36-2.13.44-2.15.5-2.17.58-2.19.64-2.18.7-2.15.76-2.11.81-2.1.86-2.14.92-2.23.98-2.37 1.04-2.52 1.11-2.66 1.19-2.75 1.25-2.8 1.32-2.81 1.38-2.81 1.43-2.83 1.49-2.81 1.54-2.76 1.62-2.63 1.66-2.46 1.68-2.39 1.64-2.5 1.65-2.69 1.8-2.6 2" filter="url(#a)"/><path d="M3.3-75.59H-.38l-2.07.06-2.17.13-2.27.21-2.4.28-2.61.35-2.86.4-3.12.46-3.38.5-3.63.57-3.89.63-4.18.72-4.44.8-4.63.86-4.72.92-4.72.98-4.74 1.02-4.85 1.09-5.07 1.17-5.35 1.26-5.5 1.33-5.38 1.36-5 1.33-4.55 1.31-4.33 1.34-4.48 1.51-5.05 1.77-7.59 2.54" filter="url(#a)"/><path d="m1.58-75.54-1.92-.07-1.93.05-2 .13-2.15.2-2.25.28-2.29.35-2.32.41-2.42.44-2.61.49-2.88.54-3.18.62-3.48.69-3.66.79-3.7.87-3.59.91-3.42.95-3.27.97-3.24 1-3.33 1.1-3.59 1.28-4.09 1.54-4.7 1.79-3.63 1.56" filter="url(#a)"/></g><g fill="none" stroke="#000"><circle cx="10.948" cy=".34" r="1.686" filter="url(#a)"/><circle cx="12.3" cy="2.488" r="1.85" filter="url(#a)"/><circle cx="9.18" cy="1.732" r="2.664" filter="url(#a)"/><circle cx="11.576" cy="-.112" r="2.874" filter="url(#a)"/><circle cx="12.624" cy=".856" r="2.022" filter="url(#a)"/><circle cx="10.216" cy="2.784" r="2.836" filter="url(#a)"/><circle cx="9.836" cy=".42" r="2.112" filter="url(#a)"/><circle cx="9.464" cy="-.856" r="2.97" filter="url(#a)"/><circle cx="13.06" cy=".636" r="2.548" filter="url(#a)"/><circle cx="9.816" cy=".692" r="2.756" filter="url(#a)"/><circle cx="-6.328" cy="4.202" r="1.548" filter="url(#a)"/><circle cx="-8.188" cy="3.53" r="1.814" filter="url(#a)"/><circle cx="-6.568" cy="3.578" r="2.904" filter="url(#a)"/><circle cx="-6.388" cy="4.798" r="2.752" filter="url(#a)"/><circle cx="-8.516" cy="2.754" r="1.914" filter="url(#a)"/><circle cx="-8.068" cy="4.154" r="2.662" filter="url(#a)"/><circle cx="-8.496" cy="3.942" r="2.404" filter="url(#a)"/><circle cx="-6.896" cy="2.826" r="2.73" filter="url(#a)"/><circle cx="-8.132" cy="2.07" r="1.336" filter="url(#a)"/><circle cx="-5.972" cy="5.602" r="2.262" filter="url(#a)"/></g><path fill="#D77F8C" stroke="#000" stroke-linejoin="round" stroke-width="3" d="m28.26 48.29-.1.83-.08.1-.05.37.21-.35-.37.92-.13.02.12-.17-1 1.09-.35.37.72-.61-.22.36-1.37 1.07.44-.51-.16.27-1.27.78-.88.51.63-.4-1.75.83.63-.3-.24.09-1.91.87.46-.22-1.32.53-1.15.38.25-.13-1.61.56.92-.27-1.25.29-.49.2-1.03.21-.77.19-2.58.58-1.04.17.76-.15-.92.21-2.44.38-1.27.18-.74.12 1.25-.19-.12.01-4.15.5 2.25-.23-3.93.38-1.02.08.78-.05-1.27.08-.26.02-.49.04-2.17.1-1.25.05-1.73.04.71-.02-3.91.02h2.29l-2.85-.02-.94-.01-1.7-.07 1.34.06-2.4-.11.6.03-.8-.03-3.05-.22-.09-.01-.21-.03-.32-.03-2.26-.26.83.1-2.56-.29-1.69-.31.15.04-.19-.05-1.02-.2-1.25-.2.42.04-.86-.16-1.49-.34-1.99-.56-.74-.27.85.25-2.16-.67-.24-.08.95.26-1.88-.72-.68-.4.6.38-.26-.09-.75-.39-.93-.65-.21-.09.05-.01-.55-.43-.1-.01-.13-.35-.49-.53.16.16-.76-.79.1-.37-.14-.37-.07.26-.05-.29-.01-.28.21-.65-.14.08.26-.74-.01.08-.06-.19.7-.91-.29.43.17-.28 1.1-.91-.17-.01.27-.19.19-.18.32-.1.37-.28.29-.18 1.57-.92-.45.23 1.95-.89.18-.09.18-.02 1.25-.46-.35.14.14-.09 2.52-.85.83-.22-1.01.27.19-.02 1.94-.53.03-.01 2.91-.66 1.02-.17-1.41.27 2.85-.54-1.71.3 3.71-.63-.06.03-.77.09 1.94-.27 1.29-.16 2.03-.24-1.76.2 1.07-.11 1.36-.14 1.41-.13 2.92-.2-.26.02 2.75-.12-2.28.09 3.55-.13.51-.01 2.11-.01H.6l-.54-.01.21.01h.35l3.27.09h.16l-.46-.01 1.51.05.74.06 1.23.06.62.05 3.06.28-.69-.06.17.05 1.78.2 2.56.37-.11-.04 1.02.19 1.35.25-1.62-.28 1.41.24 1.77.38.08.01 1.73.47-.96-.22 2.17.62.77.28-.22-.06 1.04.28-.01.01 1.76.82.22.08-.36-.06.17.09 1.36.71.25.09.4.52h.27l.25.35.1.19-.11-.16.64.96.25.19-.38-.43.4.72.14.55-.13-.25" filter="url(#a)"/></svg>