<svg xmlns="http://www.w3.org/2000/svg" width="500" height="500" viewBox="-100 -100 200 200"><defs><clipPath id="c"><path d="m29.42-9.27-.31-.27-.34-.27-.36-.27-.39-.28-.42-.27-.43-.27-.47-.26-.49-.27-.51-.26-.54-.26-.56-.25-.58-.24-.61-.24-.63-.24-.65-.22-.62-.32-.66-.3-.7-.29-.73-.28-.78-.26-.81-.25-.84-.24-.88-.22-.9-.2-.93-.18-.96-.17-.97-.15-1-.14-1.01-.11-1.02-.1-1.04-.08-1.04-.06-1.05-.05-1.06-.02-1.05-.01-1.05.01-1.04.02-1.04.05-1.03.06-1.01.07-1 .09-.99.11-.97.12-.95.14-.92.15-.91.16-.88.18-.86.19-.83.2-.8.21-.78.23-.75.23-.72.25-.69.25-.67.26-.63.27-.61.28-.58.28-.56.29-.52.3-.51.3-.47.31-.46.31-.43.31-.41.32-.39.32-.37.33-.35.33-.34.33-.31.34-.29.35-.27.34-.26.35-.24.36-.23.36-.2.36-.2.36-.17.37-.17.37 1.05 8.74.29.49.29.49.31.5.32.5.34.5.34.49.36.5.38.5.39.49.4.49.42.48.43.48.45.47.46.46.48.46.5.46.51.45.54.44.55.44.57.42.59.41.61.4.63.38.65.36.67.34.69.32.72.29.73.28.75.24.77.22.79.19.81.17.83.13.84.1.86.07.87.04.88.01.9-.03.9-.06.92-.1.92-.12.93-.16.93-.19.93-.22.94-.26.93-.28.93-.31.93-.35.92-.36.91-.4.89-.42.89-.44.87-.46.86-.49.84-.5.82-.51.79-.53.78-.54.74-.56.73-.56.69-.56.67-.57.63-.57.61-.56.6-.48.59-.48.57-.48.55-.49.53-.48.51-.48.5-.47.47-.48.45-.47.44-.46.41-.45.39-.45.37-.44.34-.43.33-.41"/></clipPath><clipPath id="b"><path d="m-28.11-10.34.33-.16.35-.16.37-.17.4-.17.42-.17.45-.17.47-.17.49-.18.52-.17.54-.17.57-.16.58-.17.61-.16.63-.16.65-.16.62-.21.65-.2.7-.2.73-.19.77-.19.81-.18.84-.17.87-.16.9-.15.93-.14.95-.13.98-.13.99-.11 1.01-.1 1.03-.09 1.03-.07 1.05-.07 1.04-.05 1.06-.04 1.05-.03 1.05-.02 1.05-.01 1.04.01 1.03.02 1.02.03 1.01.04.99.05.97.07.95.07.94.09.91.1.89.11.86.12.84.13.81.13.78.15.76.16.73.16.7.18.67.18.64.18.62.2.59.2.56.2.54.22.51.21.49.22.46.23.44.23.42.23.4.23.39.24.36.25.34.24.32.25.3.26.29.26.27.26.25.27.23.27.22.27.21.27.19.28.18.28-2.2 10.81-.34.57-.34.57-.36.56-.37.57-.38.56-.4.56-.42.56-.42.54-.45.55-.45.53-.48.52-.49.52-.5.5-.52.49-.54.48-.55.47-.57.46-.59.45-.61.44-.63.41-.65.4-.67.38-.69.35-.7.32-.73.29-.75.27-.77.23-.78.2-.8.17-.82.13-.84.1-.85.05-.87.02-.88-.02-.89-.05-.91-.1-.91-.13-.92-.17-.93-.21-.93-.24-.94-.28-.94-.32-.94-.34-.93-.38-.93-.41-.93-.44-.92-.46-.91-.49-.89-.51-.89-.53-.87-.55-.85-.56-.83-.57-.81-.58-.78-.59-.77-.59-.73-.6-.71-.59-.68-.58-.65-.58-.62-.57-.58-.55-.56-.54-.51-.52-.55-.5-.53-.49-.51-.48-.49-.48-.47-.47-.45-.46-.43-.45-.41-.44-.39-.43-.37-.41-.35-.41-.33-.38-.32-.38-.29-.35-.27-.35"/></clipPath><filter id="a"><feTurbulence baseFrequency=".05" numOctaves="3" result="noise" type="noise"/><feDisplacementMap in="SourceGraphic" in2="noise" scale="2"/></filter></defs><rect width="100%" height="100%" x="-100" y="-100" fill="#36454F"/><path fill="#CD5C5C" stroke="#000" stroke-linejoin="round" stroke-width="1.667" d="m59.98.81.15 1.98.04.16-.21 2.54V3.48l.09 2.59-.11 1.75-.17 1.33-.17.71-.05.29-.27 3.46-.1-.6-.12 1.68-.19 2.17-.23.41-.42 2.03-.16 1.63-.23.72-.11.11-.22 1.08-.34 1.5-.16.68-.27 1.37-.5 1.88-.81 2.79.15-1.31-.22 1.32-.31.55-.55 1.94-.6 1.35-.02-.15-.51 1.74-1.12 2.29.29.08-1 1.96-.4 1.04-.77 1.34-.32.7-1.13 2.39.23-.89-.75 1.77-.76.84.34-.42-1.23 1.79-.18.84-1.06 1.62-.96 1.31.1.04-.55.67-.89 1.28-1.19 1.43-.52.53-.73.93-.29.5-.51.59-1.25 1.49-.4.64-1.15.94-.33.49-.91.54-.93 1.53-.84.45-.54.35-.88 1.27L30.88 68l-.35.37.59-.25-2.02 1.23-1.49 1.26-.95.49 1.02-.96-1.35 1.12-.41.31-1.59 1.14-1.83.64.33-.06-.02.32-1.24.58-1.96.96.19-.06-2.11.52.28.24-.22.07-1.11.29-1.22.57-.81.02-1.02.59-1.26.41-1.49.02-.98.54.38-.2-1.94.43-.55-.07-1.09.14-1.61.36 1.02.02-2.82.12-.8.13.12-.18-1.12.32-2.02-.31-.14.27-1.09.06-.41-.23-2.1-.22-.53.19.3-.07-2.55-.31-1.38-.12.62-.15-.94-.09-2.24-.47-1.42-.51.06.2.16.12-1.92-.91.46.35-3.29-1.2 1 .42-1.75-.81.07.19-2.92-1.37-.22-.18.55.4-1.77-.83-1.1-.75.1.14-2.14-1.34-.36-.33-1.53-.74-.76-.7-.37-.11-.18-.15-1.48-.96.6.25-2.48-1.66-1.1-1.17-.62-.55.21.31-.48-.45-2.53-2.42 1.26 1.15-1.4-1.38-.59-.58-1.34-1.42-.44-.53-.64-.56-.75-1.06-.13-.08-2.04-2.51-.07-.24-.66-.74-.4-.57-1.42-2.1-.51-.7.13-.13-1.5-2.04.51.68-.71-.74-1.43-2.67.65.69-1.12-1.36-1.43-3.01-.01-.32-.48-.64-.75-1.9-.79-1.41.23.32-.99-2.5.29 1.05-.44-1.23-1.33-3.21.63 1.15-.51-1.07-.69-2.08-.91-2.89.03.27-.17-.48-.52-2.2.22.63-.44-2.12-.32-1.08-.32-.85-.39-2.15.29 1.06-.64-2.98-.5-2.03.04.18-.11-.76-.4-2.4-.09-1.56-.19-1.22.03-1.84-.15.26-.12-1.34-.07-1.14-.13-2.12-.05-.57.13-2.9-.15 1 .16-2.71-.15-1.62.09 2.04-.02-2.79.04-3.48.15-.63.09-1.37-.12.2.27-1.95.21-2.45.08-.05-.09-.53.67-3.96.16-.04.23-1.46-.11.19-.07-.29.47-1.32.61-2.96-.04-.51.4-1.04.45-1.47-.53 1.02 1.17-4.27-.05.73.32-1.29.48-1.68.57-1.7-.22.84 1.01-2.84.82-2.48-.01.77.09-.4.76-1.87.3-.8.78-2.11-.11.61 1.53-3.14-.3.6 1.15-2.32.3-.46.94-1.58.09-.29 1.43-2.15-.61.59 1.03-1.38.92-1.47-.33.44 1.47-1.91.2-.4.66-.63.25-.57 2.37-2.75-.15-.2.83-.93.31-.31.7-1.07-.11.55 1.99-2.18-.32.36 1-1.16 1.57-1.42-.79.54 1.28-1.02 2.19-1.64.86-.67-.82.59.63-.56 2.72-2.02.08-.32 1.38-.63.58-.74-.72.56 3.31-1.91-.77.3.25-.06 1.98-1.12 1.1-.38.63-.44.79-.08 1.67-.81-.27.1 1.11-.82 2.22-.39-.95.18 1.69-.67.95-.34 1.1-.15.54-.2 2.1-.38-.36-.1.39.13 1.63-.64 1.6-.11 2.11-.17-.48.09.53-.31 1.72.07.59-.2.33.21 2.09-.26-.43.29 1.3-.19 1.27-.03 1.04.26 1.96.35-.47-.19 1.67.26.72.26.01-.24 2 .59-.36-.27 1.54.58 1.11.04 2.42.86-.09-.26.3.29.36-.1.62.43 1.67.54 1.01.47.58.34 1.06.56 2.07.98.5.29.34.08.03.02 1.53.94.6.18 1.05.53 1.01.89 1.7 1.3.31.31 1.14.79.01-.03 1.18.63.77.71.78.71 1.1 1.23 1.3.7.29.3h-.39l.81.55.81 1.07 1.59 1.48.5.5.01.29 1.41 1.71.08.17 1.84 2.08-.17-.03 1.12 1.39 1.43 1.83-.74-.92 1.03 1.62.72.8.29.52.74 1.37.36.6.36.63.28.44.91 1.31.22.65 2.07 3.7v.56l.17.46.53 1.08.96 1.88.15.06.18 1.19.11-.15.94 2.83.59 1.29.19.02.42 1.5.96 3.16-.21.09-.27-1.21.44 1.41.9 3.02.03.51.55 2.1.22 1.36.03-.16.22 1.15.61 3.39-.23-.89.05.59.32 1.96.43 2.76.15.07.01-.22.32 3.56-.23-1.54.28 1.92.14 3.74.09-.3-.09 1.59.12.66-.1.69-.01 3.09.15 1.98" filter="url(#a)"/><path fill="#fff" d="m-28.11-10.34.33-.16.35-.16.37-.17.4-.17.42-.17.45-.17.47-.17.49-.18.52-.17.54-.17.57-.16.58-.17.61-.16.63-.16.65-.16.62-.21.65-.2.7-.2.73-.19.77-.19.81-.18.84-.17.87-.16.9-.15.93-.14.95-.13.98-.13.99-.11 1.01-.1 1.03-.09 1.03-.07 1.05-.07 1.04-.05 1.06-.04 1.05-.03 1.05-.02 1.05-.01 1.04.01 1.03.02 1.02.03 1.01.04.99.05.97.07.95.07.94.09.91.1.89.11.86.12.84.13.81.13.78.15.76.16.73.16.7.18.67.18.64.18.62.2.59.2.56.2.54.22.51.21.49.22.46.23.44.23.42.23.4.23.39.24.36.25.34.24.32.25.3.26.29.26.27.26.25.27.23.27.22.27.21.27.19.28.18.28-2.2 10.81-.34.57-.34.57-.36.56-.37.57-.38.56-.4.56-.42.56-.42.54-.45.55-.45.53-.48.52-.49.52-.5.5-.52.49-.54.48-.55.47-.57.46-.59.45-.61.44-.63.41-.65.4-.67.38-.69.35-.7.32-.73.29-.75.27-.77.23-.78.2-.8.17-.82.13-.84.1-.85.05-.87.02-.88-.02-.89-.05-.91-.1-.91-.13-.92-.17-.93-.21-.93-.24-.94-.28-.94-.32-.94-.34-.93-.38-.93-.41-.93-.44-.92-.46-.91-.49-.89-.51-.89-.53-.87-.55-.85-.56-.83-.57-.81-.58-.78-.59-.77-.59-.73-.6-.71-.59-.68-.58-.65-.58-.62-.57-.58-.55-.56-.54-.51-.52-.55-.5-.53-.49-.51-.48-.49-.48-.47-.47-.45-.46-.43-.45-.41-.44-.39-.43-.37-.41-.35-.41-.33-.38-.32-.38-.29-.35-.27-.35" filter="url(#a)" transform="translate(24.87 -26.49)"/><path fill="#fff" d="m29.42-9.27-.31-.27-.34-.27-.36-.27-.39-.28-.42-.27-.43-.27-.47-.26-.49-.27-.51-.26-.54-.26-.56-.25-.58-.24-.61-.24-.63-.24-.65-.22-.62-.32-.66-.3-.7-.29-.73-.28-.78-.26-.81-.25-.84-.24-.88-.22-.9-.2-.93-.18-.96-.17-.97-.15-1-.14-1.01-.11-1.02-.1-1.04-.08-1.04-.06-1.05-.05-1.06-.02-1.05-.01-1.05.01-1.04.02-1.04.05-1.03.06-1.01.07-1 .09-.99.11-.97.12-.95.14-.92.15-.91.16-.88.18-.86.19-.83.2-.8.21-.78.23-.75.23-.72.25-.69.25-.67.26-.63.27-.61.28-.58.28-.56.29-.52.3-.51.3-.47.31-.46.31-.43.31-.41.32-.39.32-.37.33-.35.33-.34.33-.31.34-.29.35-.27.34-.26.35-.24.36-.23.36-.2.36-.2.36-.17.37-.17.37 1.05 8.74.29.49.29.49.31.5.32.5.34.5.34.49.36.5.38.5.39.49.4.49.42.48.43.48.45.47.46.46.48.46.5.46.51.45.54.44.55.44.57.42.59.41.61.4.63.38.65.36.67.34.69.32.72.29.73.28.75.24.77.22.79.19.81.17.83.13.84.1.86.07.87.04.88.01.9-.03.9-.06.92-.1.92-.12.93-.16.93-.19.93-.22.94-.26.93-.28.93-.31.93-.35.92-.36.91-.4.89-.42.89-.44.87-.46.86-.49.84-.5.82-.51.79-.53.78-.54.74-.56.73-.56.69-.56.67-.57.63-.57.61-.56.6-.48.59-.48.57-.48.55-.49.53-.48.51-.48.5-.47.47-.48.45-.47.44-.46.41-.45.39-.45.37-.44.34-.43.33-.41" filter="url(#a)" transform="translate(-33.02 -26.74)"/><g fill="none" stroke="#000" transform="translate(24.87 -26.49)"><path stroke-linejoin="round" stroke-width="1.667" d="m-30.18-9 .12-.1.14-.11.16-.11.17-.13.2-.13.21-.14.24-.15.25-.15.28-.16.3-.16.33-.16.35-.16.37-.17.4-.17.42-.17.45-.17.47-.17.49-.18.52-.17.54-.17.57-.16.58-.17.61-.16.63-.16.65-.16.62-.21.65-.2.7-.2.73-.19.77-.19.81-.18.84-.17.87-.16.9-.15.93-.14.95-.13.98-.13.99-.11 1.01-.1 1.03-.09 1.03-.07 1.05-.07 1.04-.05 1.06-.04 1.05-.03 1.05-.02 1.05-.01 1.04.01 1.03.02 1.02.03 1.01.04.99.05.97.07.95.07.94.09.91.1.89.11.86.12.84.13.81.13.78.15.76.16.73.16.7.18.67.18.64.18.62.2.59.2.56.2.54.22.51.21.49.22.46.23.44.23.42.23.4.23.39.24.36.25.34.24.32.25.3.26.29.26.27.26.25.27.23.27.22.27.21.27.19.28.18.28.16.28.15.28.14.29.12.29.12.29.1.29.1.29.08.29.08.3.06.3" filter="url(#a)"/><path stroke-linejoin="round" stroke-width="2.222" d="m-30.44-5.91.1.17.11.19.13.2.14.22.16.24.18.26.2.28.21.29.23.31.25.32.27.35.29.35.32.38.33.38.35.41.37.41.39.43.41.44.43.45.45.46.47.47.49.48.51.48.53.49.55.5.51.52.56.54.58.55.62.57.65.58.68.58.71.59.73.6.77.59.78.59.81.58.83.57.85.56.87.55.89.53.89.51.91.49.92.46.93.44.93.41.93.38.94.34.94.32.94.28.93.24.93.21.92.17.91.13.91.1.89.05.88.02.87-.02.85-.05.84-.1.82-.13.8-.17.78-.2.77-.23.75-.27.73-.29.7-.32.69-.35.67-.38.65-.4.63-.41.61-.44.59-.45.57-.46.55-.47.54-.48.52-.49.5-.5.49-.52.48-.52.45-.53.45-.55.42-.54.42-.56.4-.56.38-.56.37-.57.36-.56.34-.57.34-.57.31-.56.31-.56.3-.57.28-.55.27-.56.27-.55.25-.54.24-.54.23-.53.22-.53" filter="url(#a)"/><circle cx="-2.499" cy="-2.086" r="4.188" clip-path="url(#b)" filter="url(#a)"/><circle cx="-4.274" cy="-4.421" r="4.442" clip-path="url(#b)" filter="url(#a)"/><circle cx="-3.589" cy="-2.566" r="3.424" clip-path="url(#b)" filter="url(#a)"/><circle cx="-3.794" cy="-2.401" r="4.516" clip-path="url(#b)" filter="url(#a)"/><circle cx="-3.804" cy="-5.491" r="3.852" clip-path="url(#b)" filter="url(#a)"/><circle cx="-1.099" cy="-3.621" r="3.492" clip-path="url(#b)" filter="url(#a)"/><circle cx="-4.904" cy="-1.596" r="4.912" clip-path="url(#b)" filter="url(#a)"/><circle cx="-3.149" cy="-3.071" r="3.794" clip-path="url(#b)" filter="url(#a)"/><circle cx="-4.519" cy="-2.971" r="3.288" clip-path="url(#b)" filter="url(#a)"/><circle cx="-4.599" cy="-5.051" r="4.254" clip-path="url(#b)" filter="url(#a)"/></g><g fill="none" stroke="#000" transform="translate(-33.02 -26.74)"><path stroke-linejoin="round" stroke-width="2.222" d="m31.25-6.87-.09-.2-.1-.21-.13-.22-.15-.23-.17-.24-.19-.25-.21-.25-.24-.27-.26-.26-.29-.27-.31-.27-.34-.27-.36-.27-.39-.28-.42-.27-.43-.27-.47-.26-.49-.27-.51-.26-.54-.26-.56-.25-.58-.24-.61-.24-.63-.24-.65-.22-.62-.32-.66-.3-.7-.29-.73-.28-.78-.26-.81-.25-.84-.24-.88-.22-.9-.2-.93-.18-.96-.17-.97-.15-1-.14-1.01-.11-1.02-.1-1.04-.08-1.04-.06-1.05-.05-1.06-.02-1.05-.01-1.05.01-1.04.02-1.04.05-1.03.06-1.01.07-1 .09-.99.11-.97.12-.95.14-.92.15-.91.16-.88.18-.86.19-.83.2-.8.21-.78.23-.75.23-.72.25-.69.25-.67.26-.63.27-.61.28-.58.28-.56.29-.52.3-.51.3-.47.31-.46.31-.43.31-.41.32-.39.32-.37.33-.35.33-.34.33-.31.34-.29.35-.27.34-.26.35-.24.36-.23.36-.2.36-.2.36-.17.37-.17.37-.15.37-.14.38-.12.38-.12.38-.1.38-.09.38-.08.39-.07.38-.06.39-.05.39m54.94-1.99-.1.25-.13.26-.15.29-.17.31-.2.32-.21.35-.24.36-.26.37-.28.39-.3.41-.33.41-.34.43-.37.44-.39.45-.41.45-.44.46-.45.47-.47.48-.5.47-.51.48-.53.48-.55.49-.57.48-.59.48-.6.48-.61.56-.63.57-.67.57-.69.56-.73.56-.74.56-.78.54-.79.53-.82.51-.84.5-.86.49-.87.46-.89.44-.89.42-.91.4-.92.36-.93.35-.93.31-.93.28-.94.26-.93.22-.93.19-.93.16-.92.12-.92.1-.9.06-.9.03-.88-.01-.87-.04-.86-.07-.84-.1-.83-.13-.81-.17-.79-.19-.77-.22-.75-.24-.73-.28-.72-.29-.69-.32-.67-.34-.65-.36-.63-.38-.61-.4-.59-.41-.57-.42-.55-.44-.54-.44-.51-.45-.5-.46-.48-.46-.46-.46-.45-.47-.43-.48-.42-.48-.4-.49-.39-.49-.38-.5-.36-.5-.34-.49-.34-.5-.32-.5-.31-.5-.29-.49-.29-.49-.27-.49-.26-.49-.25-.48-.24-.48-.23-.47-.23-.47-.21-.46-.2-.46-.19-.45-.19-.44" filter="url(#a)"/><circle cx="-18.213" cy="-7.128" r="3.116" clip-path="url(#c)" filter="url(#a)"/><circle cx="-18.563" cy="-4.613" r="3.258" clip-path="url(#c)" filter="url(#a)"/><circle cx="-16.183" cy="-5.663" r="4.408" clip-path="url(#c)" filter="url(#a)"/><circle cx="-18.248" cy="-5.218" r="4.638" clip-path="url(#c)" filter="url(#a)"/><circle cx="-14.153" cy="-3.668" r="3.128" clip-path="url(#c)" filter="url(#a)"/><circle cx="-14.148" cy="-3.753" r="4.264" clip-path="url(#c)" filter="url(#a)"/><circle cx="-14.218" cy="-5.683" r="3.704" clip-path="url(#c)" filter="url(#a)"/><circle cx="-16.943" cy="-6.468" r="3.018" clip-path="url(#c)" filter="url(#a)"/><circle cx="-15.793" cy="-5.143" r="4.878" clip-path="url(#c)" filter="url(#a)"/><circle cx="-18.498" cy="-5.013" r="4.33" clip-path="url(#c)" filter="url(#a)"/></g><g fill="none" stroke="#504444" stroke-linejoin="round" stroke-width="2"><path d="M51.01-41.85 9.97-50.96l5.16-5.86 8.95-2.26 3.74-.95-.64-1.07-2.16-1.32-1.71-1.29-.81-1.15-.41-1.07-.65-.96-1.26-.69-1.9-.24-2.24.32-1.88.92-.49 1.53 1.79 2.08 4 2.3 4.46 1.85 2.05.51-2.76-1.48-8.55-3.67-15.76-6.15-19.9-4.67" filter="url(#a)"/><path d="m-35.83-63.78 51.38 11.34 5.76-3.93-6.47-5.76-3.33-2.7 1.35.23 2.79 1.53 2.32 1.7 2.24 1.79 2.92 2.14 3.16 2.39 2.12 1.98.39.71-.5-.9.45-2 2.69-1.73 4.74.21 5.62 3.2 4.83 4.9.54-.46" filter="url(#a)"/><path d="m22.59-73.46-33.49 6.57-3.81.96 4.83 1.37 6.64 1.98 7.77 3.24 9.24 4.63 9.22 4.91 6.46 3.52 1.87 1.04-2.41-1.48-4.78-3.26-5.34-4.11-5.22-4.25-5.17-3.8-3.97-2.59L5.56-65l11.02 3.32 18.98 6.71 8.47.92" filter="url(#a)"/><path d="m17.37-76.1-28.46 9.79 2.75-3.5 4.96-3.76 1.31-2-.62-.6.14.48 2.52 1.52 5.07 2.43 6.6 2.93 6.61 2.82 5.31 2.27 3.27 1.57.89.79-1.79-.27-4.59-1.74-6.79-3.23-7.16-3.69-4.77-2.09.16 1.7 5.55 6.09 4.24 5.76-29.64-17.5" filter="url(#a)"/><path d="m22.09-73.75 13.28 18.09.48 5.75-5.25 3.46-9.13-.76-8.07-4.33-3.75-5.23.27-3.85 1.94-1.77 1.46-.33h.23l-.52-.43-.41-.82.18-.65.77.07 1.37.88 2.47 1.32 4.25 1.42 5.73 1.25 4.79.27-.23-2.88-8.19-7.7-14.32-8.49" filter="url(#a)"/><path d="m-24.33-72.72 6.38 6.15 10.34 2.15 7.23 1.62 5.4 2.1 3.16 2.25 1.4 1.87.65 1.06.14.14-.85-.39-2.11-.1-2.91.92-2.71 1.99-1.3 2.33 1.45 1.69 4.8.4 6.15-1.23 1.1-3.09L1.94-57.2l-25-2.72-15.33-1.43" filter="url(#a)"/><path d="m-11.52-77.9 22.54 6.07 3.88 3.94-3.51 2.25-3.11 2.94-.74 3.19.54 1.72-.15-.68-2.28-2.58-4.38-3.16-4.81-2.63-3.04-1.9-.28-1.72 1.99-1.84 5.07-.63 13.69 4.76 32.92 18.43" filter="url(#a)"/><path d="m35.34-64.17-19.72-1.19-4.8 4.78 4.93 2.53 3.39.12-.84-.66-2.17-.37-.22.03 2.44-.03 3.46-.53 2.17-1.2-.61-1.92-3.42-2.62-4.69-3.02-3.19-2.45.74-.42 2.74 2.4-7.12 3.59-42.69-.07" filter="url(#a)"/><path d="M55.73-29.65 31.62-57.19l-12.09-5.66-9.66.77-6.83.56-1.07-.01 4.46.39 6.47 1.02 4.68 1.25 1.72 1.09.72.64 2.39.09 4.01.32.78 2.59-14.38 5.29-58.86-1.91" filter="url(#a)"/><path d="m-24.08-72.78 33.49 4.1 2.11-2.44-3.87-2.28-.65-.32 3.91 1.81 6.93 3.57 7.91 4.62 7.14 4.64 5.09 3.53 2.35 1.57-.6-.64-3.28-2.48-5.31-3.54-6.44-3.81-6.44-3.49-5.17-2.81-2.79-1.71-.28.29 1.32 4.01 6.39 11.77 39.34 31.17" filter="url(#a)"/><path d="M57.07-25.22 10.56-58.14-8.45-69.57l-6.05-3.86.75-1.28 4.77-.13 6.8.82 6.91 1.69 5.46 2.08 2.97 1.59.1.27-2.33-1.35-3.35-2.38-2.33-2.2.36-.63 3.59 2.01 5.75 4.85 1.69 4.3-28.7-13.91" filter="url(#a)"/><path d="m56.21-28.53-9.32-12.03-12.3-15.29-9.9-9.17-7.51-3.49-4.65.33-2.05 2.2-.84 2.47-1.05 1.75-1.88.61-2.69-.75-3.03-1.89-2.4-1.97-.09-.32 4.03 2.5 7.3 4.7-1.47 4.19-47.76-5.28" filter="url(#a)"/><path d="m-17.91-75.61 1.45 6.9 12.64 12.55 12.5 8.15 3.77 1.59-3.41-2.78-5.63-4.32-3.89-3.94-.52-2.75 2.38-1.56 3.32-.89 1.88-.83-1.03-1.07-3.15-1.12-1.97-.97 2.39-1.09 4.73-2.21-.93-4.5-2.71-4.79" filter="url(#a)"/><path d="m-42.45-56.09 12.5-3.15 20.19 5.4 19.15 2.33 8.98-2.47-1.06-5.35-6.24-5.89-6.77-4.83-4.98-3.14-2.87-1.5-1.1-.15.48 1.01 1.89 2.02 2.54 2.69 2.06 2.73 1.01 2.13.32 1.37-2.06.56-13.1-.89-28.57 4.38" filter="url(#a)"/><path d="m-33.77-65.68 31.32-4.67 12.39-.14.27.74-1.68 2.3 1.15 2.9 3.01 1.8 1.72-.29-1.51-2.15-4.37-2.99-5.43-2.76-4.71-1.9-3.05-.88-1.07-.02 1.34.65 4.48 1.34 7.44 2.42 7.97 4.34 8.09 9.1L56-28.44" filter="url(#a)"/><path d="m-40.08-58.84 31.84-7.11 25.25 4.26 11.68 3.84.16-.29-5.78-3.35-6.67-4.16-4.95-3.37-2.8-2.02-1.16-.76-.06.14.87.69 1.74.99 2.21 1 1.54.62-.63-.22-3.48-1.2-5.06-1.44-3.54-.1 1.02 3.04 9.35 8.31 40.26 19.66" filter="url(#a)"/><path d="m-1.36-79.31 12.37 13.26-1.32 4.7-2.8-.27-5.51-2.17-6.11-2.06-4.15-1.42-1.32-.94 1.09-.65 2.76-.52 3.63-.58 3.53-.74 2.4-.76.71-.44-.32.12.57.54 3.48.41 6.26-.07 5.36-.66-7.18-6.3" filter="url(#a)"/><path d="m-43.56-54.49 12.3-7.61 13.12.97 13.1 3.2 8.62 3.19 4.78 1.66 2.91-.3 1.96-1.86 1.06-2.57.26-2.34-.2-1.34-.39-.05-.8 1.07-1.57 1.63-2.17 1.47-1.72.65.01-.59 1.98-1.79 2.67-2.31 1.65-1.41 1.04 1.3 4.26 5.38 11.72 8.72 15.31 6.95 2.38-6.29m-65.79-29.57 30.36 9.59.32-2.12-4.54-.46-3.85 1.64-3.46 1.41-3.39.18-2.65-.52-1.07-.35.71.14 1.66.33 1.01.04-.89-.47-2.36-.75-1.79-.59.54-.17 2.21-.03 2.33-1.13 5.74-3.75 11.89-3.3" filter="url(#a)"/><path d="m-22.1-73.9 31.45 3.42 14.68 3.99 5.47 2.81-.47 1.71-4.95.09-6.87-1.54-5.83-2.55-3.22-2.8-1-2.46-.31-1.72-1.17-.79-2.75.17-3.9.92-3.74 1.14-2.06.63.36-.28 2.47-.63 3.98.81 4.59 4.49-2.56 8.19-44.77 2.78" filter="url(#a)"/><path d="m-18.18-75.51 2.54 2.5 2.49 2.32 1.68 1.45 3.38.21 3.52-.52 2.45-.75 1.85-.69 2.08-.47 2.36-.01 2.28.83 2.19 2.02 2.8 3.3 4.3 4.3 5.96 4.7 6.78 4.39 6.23 3.6 4.74 2.71 3.41 2.17 2.84 1.94 2.17.96-.85-2.81-8.1-10.69-20.54-21.58" filter="url(#a)"/><path d="m35.44-64.47-15.18 5.75-18 1.22-.77.44 7.77.24 6.05-.1.76-.48-3.01-.83-4.13-1.34-3.77-2.13-3.14-2.94-2.34-3.25-.86-2.72 1.5-1.27 3.87.88 4.44 3.28 1.19 5.04-6.26 4.58-13.5.32-8.42-7.44L1.6-79.47" filter="url(#a)"/><path d="m-45.03-52.58 28.27-8.29-4.89.44-2.16 1.89 7.18 1.91 12.04 1.15 10.54-.64 5.59-2.75 1.11-4.02-.67-3.78.16-2.27 2.1-.28 3.52 1.31 3.56 1.98 2.55 1.89 1.49 1.67 1.2 1.97L28-57.73l.81 2.83-2.16 1.41-7.22-1.1-12-2.94-12.24-5.22L7.8-78.8" filter="url(#a)"/><path d="M53-37.18 27.01-51.89 5.95-60.03.88-63.56l.95-1.23-.86-.98-3.5-1.39-3.26-1.34-.21-.53 3.74.58 6.54 1.31 6.89 1.28 4.67.69.92.17-2.26.37-2.52 1.41 1.05 2.48 6.11 2.06 7.27-.68 3.72-2.26 15.94 10.51" filter="url(#a)"/><path d="M-40.23-59.04 3.85-64.5l10.41-4.17-1.05-2.64-2.99-1.82-.81-.4 1.82 1.83 2.79 3.95 1.74 4.79-.38 3.79-2.25 1.55-3.12-.6-2.89-1.48-1.14-.83 2.3.56 3.21 1.24-10.34.33-46.77 6.85" filter="url(#a)"/><path d="m56.17-28.24-8.32-14.55-7.84-7.14-4.68-2.56-3.09-.39-3.5-.11-3.89-.23-3.67-.46-3.46-1.25-3.43-2.58-3.05-3.76-1.9-4.04-.33-3.28.79-1.93.87-.64.26.21.02.73 1.04 1.39 3.37 2.46 5.95 3.5 6.97 3.18 4.31-.19-2.64-6.15-5.46-6.39" filter="url(#a)"/><path d="m-18.18-75.51 6.1 9.9 15.1.31 7.27-2.6 3.38-.96 3.06 1.48 2.63 2.67.58 2.35-2.5 1.26-5.36.17-7.14-.4-7.52-.27-6.57.5-4.6 1.63-2.06 2.63.52 2.96 2.89 2.39 5.49 1.06 8.89-.54 12.1-1.98 11.65-2.3 8.04 2.81L57.1-24.71" filter="url(#a)"/><path d="M44.03-54.05 9.91-68.74l-17.46-2.9-4.31-.39 4.47-.07 7.69.67 6.18 1.45 2.32 1.7-1.16 1.53-2.58 1.35-1.83 1.31.16 1.14 2.44.62 4.24-.01 4.64-.2 3.49.65 4.07 3.07 11.7 6.55 13.2 3.13" filter="url(#a)"/><path d="M51.01-42.41 10.6-55.49l-4.58-6.23 1.54-3.71 1.16-1.85-.53.57-1.09 3.19.03 4.87 1.75 4.94 2.7 3.5 2.37 1.31 1.28-.68.26-1.92-.9-2.42-3.58-2.73L3.32-60l-7.77-4.3 5.49-4.9 28.12-.01" filter="url(#a)"/><path d="m46.81-49.74-26.05-5.18 1.46 1.22-2.54-3.48-5.5-5.01-3.99-3.45-1.4-1.35-.11-.2-.27-.08-1.01-.4-1.71-.49-2.31-.19-3.09.32-4.12.71-4.99.74-4.97.32-3.44-.45-.45-1.3 2.99-1.85 5.01-1.67 4.06-.7.64.48-.82.54 6.93-1.48 21.46-.77" filter="url(#a)"/><path d="m47.81-48.07-2.17.85-8.02-5.47-4.95-3.15-2.28-1.47-1.97-1.37-2.43-1.55-2.45-1.32-2.05-.81-1.74-.36-1.79-.2-1.9-.19-1.57-.21-.79-.36-.25-.96-.48-1.99-.9-2.66.25-1.73 4.31 1.48 10.3 6.63 14.73 13.5 15.44 24.7" filter="url(#a)"/><path d="M-28.11-70.3 21.4-50.62l9.02-.08-5.55-2.37-7.65-.63-5.25.3-2.05-.28.65-1.55 2.41-2.58 2.98-2.92 2.25-2.6.3-1.96-2.37-1.44-4.89-1.25-6.2-1.4-5.69-1.7-3.72-1.85-1.47-1.72-.09-1.27.67-.59 2.37.14 5.76.66 6.55.35L.3-79.28" filter="url(#a)"/><path d="m40.47-58.57-12.14 6.91L7.68-56.2.35-58.71l3.93 1.31 9.43 3.7 9.7 3.77 6.12 2.03.78-.17-3.91-1.62-6.18-1.88-5.63-1.35-3.52-.73-1.79-.58-1.93-1.09-3.75-2.09-5.56-3.14-5.35-3.73-2.38-3.59 2.13-2.85 5.38-2.2 4.21-2.1L.35-77.3l.38-2.27" filter="url(#a)"/><path d="m18.38-75.63-5.44 5.76-1.11 8.97.77 6.72-4.19 1.58-6.05-2.86-2.33-4.63 3.47-3.55 7.44-.82 8 1.74 5.58 2.57 1.51 1.13-2.39-1.77-3.9-4.27-.73-3.99 6.3-.12 5 .72" filter="url(#a)"/><path d="m-24.08-72.78 15.84 4.19 8.86 6.82 11.72 4.71 5.72 1.87-3.49-.89-9.01-2.62-8.64-3.12-3.98-2.86 1.97-2.29 6.73-1.44 9.21-.03 9.54 1.97 8.43 3.9 6.3 4.6 3.58 3.42 1.68 1.78 2.99 2.21 1.4-2.57" filter="url(#a)"/><path d="m-9.78-78.38 3.55 4.52 3.33 2.25-4.36 1.2-4.87.6-.78-.24 3.62-.83 6.05-.84 6.07-.5 4.35-.2 1.97-.17-.01-.29-.99-.23-.93.28-.31 1.29.36 2.5.62 3.35.14 3.18-1.35 1.72-3.77-.61-5.87-2.6-5.32-2.99-1.15-1.62.86.02-23.01 1.27" filter="url(#a)"/><path d="m7.79-78.56-2.74.54-2.16 2.15-.71 2.27 1.58 1.59 4.15 1.39 5.61 1.75 4.94 1.9 2.2 1.31-1.53.2-4.65-.77-6.01-1-5.48-.47-3.9.48-2.24 1.36-.76 1.92 1.19 2.08 4.1 1.94 7.15 1.5 8.04.65 4.84-.78-2.58-2.7L3.5-65.7l-37.27.02" filter="url(#a)"/><path d="m.73-79.57 6.64 1.62.07 1.22-5.3 1.21-6.64 1.2-5.11.77-2.68.31-.49.13 1.13.12 2.24.16 2.94.21 3.4.38 3.75.74 4.05 1.2 4.07 1.52 3.55 1.5 2.27 1.11.28.51-2.18-.01-4.22-.08-3.74.77 2.6 2.79 16.53 5.35 25.05 10.73" filter="url(#a)"/><path d="M54.64-33.21 19.89-56.14.95-63l-2.08-2.57 2.61-1.33-.17-.39-3.39.5-3.85.82-1.84.5 1.12-.04 4.03-.21 6.47.18 7.95.84 7.63 1.19 4.79.78-.3-.37-5.98-1.47-9.29-1.32-6.6 1.1 4.81 5.55 22.03 9.66 22.82 9.27" filter="url(#a)"/><path d="m-46.65-50.17 40.36-14.09 1.33-3.1-8.99 1.73-6.32 2.37-.97 1.46 3.54.64 7 .28 9.5.23 10.63.28 10.05.36 7.99.37 5.15.25 2.26-.06-.31-.49-2.57-.89-4.7-1.06-6.77-.9-8.19-.4-7.53.38-3.03 1.3 4.98 1.88 10.85.35 3.86-6.2L3.91-79.24" filter="url(#a)"/><path d="m-1.36-79.31 1.31-2.36.88-2.67.95-1.62 1.07-.69 1.08.08 1.04.52.97.47.94.03.94-.56.97-1.11 1.03-1.55 1.13-1.82 1.28-1.92 1.51-1.8 1.96-1.72 2.59-1.04-19.65 17.76-.46-.11-.72-.05-.78-.03-.79-.01-.86-.01-.97.03-1.05.09-1.04.15-.95.18-.85.17-.82.12-.87.07-.93.05-.96.01-.98-.07 12.7-.8.7.06.86-.07.85-.11.9-.1.98-.07h1.01l.98.05.91.09.86.1.8.08.78.05.78.04.82.04.89.08 1.05.15 1.37.28 1.93.4 7.15-17.65-2.02 1.81-1.08.41-.83.46-.91.62-1.05.49-1.18.25-1.21.13-1.2.2-1.15.37-1.08.58-1.04.78-1.02.93-1.02 1-1.05.93-1.07.71-1.09.41-1.09.18-1.04.17-.98.43-.92.9-.88 1.38-.85 1.62-.91 1.35-1.26.6-.53.31-.34-.16-1.16-.36-1.28-.25-1.13-.06-.96-.03-.89-.23-.96-.56-1.06-.85-1.14-1-1.17-.97-1.14-.84-1.07-.61-1.03-.29-1.19.03-1.41.31 15.93 5.87-.64-3.48-1.51-3.65-1.52-1.98-1.28-.64-1 .35-.85.93-.83 1.07-.88.89-.96.53-1.05.11-1.12-.34-1.19-.7-1.22-.89-1.24-.88-1.22-.7-1.21-.52-1.27-.51-1.43-.82-1.73-1.37-2.04-1.87-2.18-1.96-1.48-1.25 28.33 17.59-.02.39.55-.01h.78l.83.18.83.33.83.45.85.52.88.56.9.55.92.45.92.31.88.15.84.07.79.08.76.16.75.28.76.42.81.57.88.74.94.85.89.82.66.52.33.14.91-6.62-.64-.06-1.2-.29-1.19-.29-1.04-.24-.9-.2-.83-.16-.79-.14-.79-.13-.83-.12-.87-.12-.91-.12-.96-.09-.97-.08-.95-.06-.91-.03-.87-.01h-.85l-.85.02-.83.04-.79.07-.54.08.04.02-3.71.28 1.37-1.6 1.08-.77.78-1.47.71-1.85.76-1.6.83-1.12.87-.76.9-.59.94-.49.99-.33 1.06-.12 1.12.02 1.16-.04 1.12-.34 1.09-.85 1.14-1.49 1.21-2.19" filter="url(#a)"/><path d="m-9.39-78.25-.3-.03-.56.12-.81.2-.91.23-.93.25-.91.28-.88.29-.86.31-.84.33-.84.34-.84.35-.85.37-.87.38-.9.4-.91.42-.91.43-.86.44-.8.43-.8.45-.86.49-.32.1 16.37-6.71.54-2.3 1.02-2.16 1.23-.7 1.14-.12.97-.18.86-.6.83-1.36.83-2.29.86-2.96.88-2.94.91-2.16.97-1.11 1.09-.65 1.28-1.26 1.33-1.34" filter="url(#a)"/><path d="m-9.42-78.28.02-.01.66-.04 1.04-.02 1.14.05 1.07.07.94-.01.85-.1.82-.12.8-.08.81.03.83.18.84.34.87.46.91.52.94.48.94.38.91.25.85.17.76.25.71.43.74.63 1.19.83-23.33-3.62-.98.43-.72.3-.81.33-.85.38-.84.4-.84.41-.87.42-.89.44-.88.45-.87.46-.83.47-.79.48-.75.48-.74.5-.74.53-.77.59-.83.66-.89.73-.87.73-.67.59-.35.36-.39.38 14.21-9.64-.96-.33-.9-.52-1.07-.64-1.21-.74-1.2-.47-1.06.04-.93.48-.85.61-.87.43-.95.08-1.08-.27-1.18-.48-1.29-.54-1.44-.49-1.58-.36-1.61-.26-1.34-.62-.73-2.19" filter="url(#a)"/><path d="m51.44-36.09.43.61.58 1.2.59 1.17.54 1.11.47 1.08.41 1.01.36.93.35.9.37.94.42 1.05.45 1.13.44 1.18.41 1.16.33 1.13.24 1.11.17 1.11.11 1.05.13.89.26.82.37 1.3-1.69-.91.06-.87.11-.92-.26-.95-.6-.89-.86-.81-1-.77-1.06-.81-1.09-.86-1.07-.85-1.03-.71-.99-.41-1.11-.04-1.36-.01-1.09-1.27-63.74-49.32-1.89-1.72-1.08.1-.92.55-1.06.2-1.26-.53-1.44-1.22-1.52-1.55-1.51-1.5-1.46-1.25-1.42-.96-1.43-.68-1.44-.32-1.43.06-1.33.22-1.12-.03-1-.85-1.8-2.36 23.11 11.84-.17-2.02.45-1.94.69-1.41.68-1.57.7-1.45.85-.78 1-.01 1.06.37 1.04.16.97-.53.91-1.45.9-2.33.91-2.94.94-3.12.94-2.91.92-2.5.93-2.1.96-1.73 1.05-1.27 1.24-.83 1.93-1.15" filter="url(#a)"/><path d="m-17.91-75.61-1.29.52-.99.34-.93.37-.93.43-.9.43-.83.4-.78.37-.76.37-.73.39-.73.43-.75.5-.86.61-1.06.77-1.26.91-1.12.75 12.25-6.78-.7.32-.72.76-.76.97-.69 1.07-.56 1.13-.48 1.14-.47 1.07-.51.95-.55.83-.64.75-.74.75-.79.79-.72.84-.5.78-.15.64.06 1.24 7.5-13.51-1.39-.05-1.44-.69-1.51-1.46-1.56-1.76-1.35-1.14-.98-.05-.71.86-.67 1.2-.84 1-1.07.52-1.27.05-1.45-.36-1.62-.69-1.8-.96-1.9-1.08-1.84-.95-1.64-.55-1.37-.05-1.2.3-1.22.3-1.4-.03-1.64-.58-1.73-.98h-.89" filter="url(#a)"/><path d="m-22.1-73.9.25-2.73.88-.27.89-.31.82-.55.82-.54.86-.4.89-.26.9-.22.91-.34.88-.57.86-.83.82-1.04.81-1.15.81-1.11.87-.98.95-.84 1.06-.71 1.1-.61 1.06-.55.96-.58.89-.61.97-.61.91-1.01" filter="url(#a)"/><path d="m-8.47-86.1-1.14 1.02-.66.87-.66.7-.77.7-.85.79-.86.83-.87.75-.86.61-.87.44-.88.33-.87.3-.87.35-.83.49-.77.74-.74 1.02-.77 1.16-.9 1.05-1.01.77-.68.46.89.15 1.11-.41 1.07-.34 1.01-.14.98.01.94.04h.9l.89-.04.88-.01.89.03.89.09.91.09.91.06h.88l.85-.04.82-.02.83.08.9.23 1.06.41 1.2.53 1.1.49.34.3m-20.25-1.51.98.58 1.4.67 1.26.37 1.05.05.91-.1.87-.1.85-.04.87.11.89.26.9.36.88.32.86.11.85-.1.89-.04 1.07.55 1.59 1.49" filter="url(#a)"/><path d="m-24.33-72.72.74-.28 1.12-.36 1.1-.27 1.01-.18.96-.08.94.06.95.21.96.38.99.56 1 .71 1.01.79 1 .76.98.64.93.46.86.27.76.11.7-.06.7-.24.93-.29 1.3.48m-18.94-3.67 1.02 4.08-.31 1.93-.64.73-.83.13-.96-.02-1.01.1-.93.34-.79.57-.63.81-.46 1.11-.34 1.43-.26 1.62-.25 1.59-.31 1.31-.37 1.05-.15 1.18.65 1.46m20.93-29.79-.29.2-.55.32-.78.58-.86.78-.87.84-.86.75-.85.6-.84.48-.84.41-.85.4-.84.38-.86.36-.87.36-.89.44-.92.59-1 .72-1.02.77-.37 1.39" filter="url(#a)"/><path d="m-9.2-93.54-1.07 2.52-.63 1.57-.67 1.1-.82.83-.89.81-.89.94-.84 1.14-.77 1.27-.73 1.31-.7 1.29-.7 1.22-.72 1.11-.74.98-.77.84-.82.77-.86.74-.89.71-.83.58-.47.35.45.44" filter="url(#a)"/><path d="m-23.56-73.02-1.97 1.06-.89.48-.74.46-.82.55-.9.62-.9.65-.86.65-.82.63-.82.62-.83.63-.84.63-.84.62-.81.6-.79.6-.76.6-.73.59-.67.59-.62.61-.58.62-.57.66-.65.76-.79.96-.95 1.21-.77 1.09 16.61-14.58 1.85-1.32.63-1.13.46-1.35.51-1.72.48-2.2.38-2.67.32-2.9.35-2.79.48-2.3.67-1.64.83-1.05.91-.76.91-.78.92-.94 1.02-1.17.93-2.21m73.77 80.87-.23-.32-.6-.56-.56-.92-.47-1.01-.56-.96-.71-.93-.83-.94-.85-.96-.86-.89-.96-.69-1.13-.46-1.32-.28-1.4-.24-1.3-.37-1.04-.59-.74-.8-.53-.99-.43-1.04-.53-.4" filter="url(#a)"/><path d="m-26.73-70.93.38-.49.6-.45.74-.46.78-.46.8-.48.84-.51.88-.54.88-.54.87-.51.85-.49.84-.47.83-.44.84-.42.84-.4.86-.37.88-.35.92-.33.94-.28.92-.24.82-.21.57-.19.3-.09" filter="url(#a)"/><path d="m-26.73-70.93.4-.42.61-.32.78-.32.8-.29.84-.25.89-.24.94-.21.97-.14.96-.04.94.04.92.08.9.04.88-.03.84.02.77.27 1.09.51-14.91 1.93 1.57 1.01 1.1.69.77-.14.75-.29.82-.14.89-.04.92-.05.93-.17.88-.28.85-.35.83-.28.85-.06.9.2.94.47.96.63.96.73.96.8.99.84 1 .73 1.01.27 1.27-.39-20.23-3.86.27-.83.39-1.17.38-1.28.44-1.25.55-1.11.61-1.07.63-1.24.59-1.63.52-2.11.45-2.49.44-2.56.53-2.22.68-1.62.85-1.02.94-.71.95-.71.93-.97.89-1.39.85-2.08.8-3.07.88-3.9 1.7-2.99-15.27 37.42-.82-3.62.03-2.1.74-.32.87-.1.73-.6.61-1.05.57-1.25.64-1.36.66-1.55.62-1.93.49-2.41.39-2.73.42-2.58.63-1.93 1.16-1.04 2.18.13 4.92 4.1-.63 1.35-.97.52-1.03.31-.97.42-.88.64-.81.95-.72 1.28-.64 1.57-.62 1.69-.66 1.58-.74 1.29-.81 1-.84.8-.78.79-.7.89-.6.99-.56 1.02-.58.91-.65.75-.82.58-1.1.74-1.45 2.29 12.28-9.41-.24.4-.74.53-.85.53-.9.54-.91.52-.88.48-.84.44-.78.44-.73.48-.7.53-.67.62-.68.7-.78.8-.99.94-1.18 1.09-1.04.93 17.2-6.68-1.64.24-1.04.35-.86.23-.87.12-.92.11-.93.19-.92.31-.87.4-.82.43-.79.42-.76.38-.77.34-.78.34-.82.38-.91.46-1.03.54-1.06.58-.74.42.15-.15" filter="url(#a)"/><path d="m-16.92-64.63-.95-.96-.93-.32-1.04-.27-1.06-.38-1.04-.52-1.02-.56-1.01-.51-.98-.41-.98-.28-.98-.07-.99.19-.98.48-.89.62-.69.44-.51-.04-.61-.1 7.39-25.09-.65 1.22-.75 1.44-.82 1.53-.78 1.47-.7 1.33-.65 1.19-.63 1.16-.61 1.22-.61 1.29-.65 1.33-.74 1.27-.77 1.2-.72 1.17-.57 1.27-.4 1.51-.26 1.97-.12 2.52.03 2.45.33.67 15.2-27.16-.13-.38-.83.95-.8 1.57-.79 1.43-.89.98-.99.63-1.02.57-.95.77-.81 1.09-.65 1.43-.52 1.64-.44 1.74-.43 1.71-.46 1.62-.5 1.56-.53 1.54-.55 1.53-.54 1.49-.52 1.35-.55 1.17-.7 1.02-.86.93-.78.74.04.08 89.8 31.44.21.62.3 1.26.22 1.24.15 1 .14.88.2.96.26 1.15.28 1.28.27 1.31.21 1.25.17 1.16.18 1.12.21 1.2.21 1.22-.05.35" filter="url(#a)"/><path d="m58.5-17.76-.15 1.1.01 1.48-.08 1.41-.15 1.21-.17 1.07-.12 1.05-.03 1.1.03 1.17.04 1.23-.04 1.24-.17 1.19-.31 1.15-.38 1.18-.37 1.32-.24 1.48-.11 1.4-.27.73m-71.24-67.1-1.44-.8-1.03-.25-.97-.09-.94.01-.88.09-.82.13-.78.18-.76.18-.8.15-.88.07-.98-.05-1.09-.17-1.16-.24-1.15-.24-1.1-.14-1.01.08-.9.38-.78.71-.66.93-.62.93-.78.52-1.08-.26-.65-.75-1.1 1.55-.21 1.34.21 1.64.26 1.78-.01 1.58-.42 1.17-.72.83-.77.72-.64.81-.42.97-.27 1.08-.17 1.13-.12 1.15-.08 1.16-.02 1.17.01 1.21.08 1.31.22 1.56.67 2.26 17.11-45.43-.99.17-1.04.84-.9.99-.77.94-.69.9-.67.9-.66.97-.66 1.03-.68 1.09-.69 1.2-.65 1.29-.63 1.31-.64 1.19-.73.95-.86.72-.94.59-.87.66-.66.92-.38 1.33.04 1.78.46 1.24-1.88 1.63-1.36-.4-1.39-.6-1.3-.17-1.36.09-1.32.35-1.19.52-1.19.43-1.41.07-1.77-.41-2.09-.8-2.19-.9-1.96-.63-1.38.03-.77.76-.9.76-2.37-1.08 23.95 1.98-.32-1.34.24-1.53.01-2.01.06-1.89.39-1.35.65-1.02.64-1.24.4-1.85.08-2.45-.14-2.74-.1-2.72.2-2.51.61-2.28.71-2.31.22-3.6-4.35 31.91.37-.93.23-1.19.35-1.22.45-1.13.45-1.18.41-1.31.38-1.47.39-1.61.44-1.63.47-1.5.47-1.29.43-1.32.46-1.8.51-2.53.06-2.7" filter="url(#a)"/><path d="m-39.09-60.28.23-1.18.41-.9.7-.64.78-.61.74-.69.7-.78.72-.83.74-.83.77-.8.77-.76.78-.76.79-.77.8-.81.79-.85.78-.89.72-.89.68-.87.66-.83.66-.75.69-.65.8-.59 1.02-.7 1.12-.97" filter="url(#a)"/><path d="m-39.4-59.97.34-.53.25-.95.27-1.17.41-1.11.5-1.05.49-1.18.4-1.4.36-1.58.4-1.59.51-1.42.64-1.18.76-.93.85-.81.87-.84.83-1.04.7-1.32.58-1.55.5-1.62.5-1.52.55-1.3.63-1.12.73-1.12.99-1.28 1.13-1.57m-15.02 30.11-2.98-2.62-1.96-.14-.97.91-.44 1.28-.23 1.36-.33 1.19-.63.8-.98.38-1.24.08-1.31.01-1.24.17-1.15.38-1.23.47-1.51.36-1.96.23-2.73.4 18.67-2.31-.34.56-.47.62-.54.71-.54.76-.54.77-.53.78-.5.8-.51.81-.5.85-.53.9-.54.95-.56 1-.56 1.03-.56 1.06-.55 1.07-.55 1.02-.3.37m109.8 25.16-2.05.33-.18.74.02 1.13-.1 1.25-.05 1.14.08 1.02.11.98-.07 1.04-.38 1.16-.7 1.27-.88 1.28-.91 1.2-.84 1.11-.75 1.08-.73 1.23-.63 1.54-.33 1.7" filter="url(#a)"/><path d="m-43.36-54.89-.84.27-1.31-.01-1.42-.18-1.33-.08-1.22.07-1.22.15-1.26.2-1.32.25-1.43.26-1.6.22-1.71.19-1.72.26-1.66.38-1.74.37-1.81.29-1.15 1.36 22.54-3.6-.9 1.21-.42.94-.18 1.15-.06 1.28-.12 1.23-.25 1.12-.34 1.07-.32 1.13-.24 1.23-.16 1.33-.1 1.37-.09 1.37-.12 1.32-.15 1.27-.18 1.18-.19 1.08-.14.99-.05.97.09 1.15.16 1.71-.18 2.4" filter="url(#a)"/><path d="m-44.7-53.02-.66-1.28-1.02-2.74-.2-1.88.78-.78 1.14-.52.88-.95.37-1.6-.05-2.04-.2-2.09-.02-1.72.34-1.19.65-.79.75-.75.61-1.14.31-1.78.03-2.42-.08-2.83.02-2.85.24-2.46.27-1.85-.18-1.69-.88-3.08-3.1 38.43.28-.09.99-.15 1.28.1 1.31.03 1.13-.31.86-.7.66-.9.59-.79.68-.45.87-.05 1.01.19 1.01.17.92-.04.84-.22.85-.14.93.16.92.43.94.09 3.17-7.49-1.81.86-.97.19-.77.08-.88.13-.94.25-.92.37-.84.45-.81.47-.81.41-.85.31-.89.2-.9.15-.87.16-.83.24-.8.4-.78.59-.8.74-.79.85-.78.86-.73.8-.67.75-.59.69-.21.21-1.95 2.85-.16.03-.7.63-.81.75-.91.74-.99.71-1 .72-.92.8-.81.9-.69.99-.58 1.06-.5 1.08-.48 1.05-.54.98-.67.91-.81.87-.9.88-.96.92-.97.94-.99.92-.96.92-.84.98-.67 1.37-1.09 2.81 18.56-22.55-.34 2.19-.64 1.13-.56 1.04-.41 1.18-.3 1.28-.28 1.28-.32 1.23-.36 1.16-.34 1.14-.23 1.15-.09 1.21.05 1.26.14 1.31.2 1.37.22 1.39.23 1.41.2 1.37.1 1.28-.02 1.18-.08 1.11-.02 1.13.2 1.2.39 1.11.2.99.63-27.95-1.58-.64-.5.99-.31 1.31-.42 1.24-.55 1.11-.65 1.01-.71.95-.76.89-.76.84-.72.82-.66.81-.66.84-.71.89-.8.94-.86.97-.83.99-.72 1.09-.65 1.26-.77 1.23 13.53-17.25.75-.31.46-.88.4-.88.47-.8.56-.73.66-.63.76-.55.84-.5.92-.47.95-.5.95-.53.89-.58.79-.59.69-.57.62-.52.65-.42.74-.31.83-.24.9-.29.95-.51 1.32-.74" filter="url(#a)"/><path d="m-48.5-46.74.48-1.41.33-1.21.38-1.03.26-1.1-.03-1.46-.37-1.89-.56-2.19-.5-2.17-.2-1.92.14-1.66.35-1.6.36-1.78.21-2 .13-1.98.16-1.66.21-1.28.06-1.11-.02-.2-1.39 27.65-.95-2.89-.54-2.11.48-.98.42-1.03-.1-1.63-.43-2.04-.37-2.01-.08-1.75.18-1.57.27-1.64.19-1.9.11-2.12.1-2.11.19-1.88.29-1.57.33-1.38.29-1.43.25-1.57.38-1.48.62-1.08.36-1.89-2.29 36.52.4-.75.49-.97.45-1.02.36-1.04.31-1.04.34-.99.43-.9.51-.83.56-.81.56-.87.55-.99.56-1.12.6-1.2.63-1.19.6-1.11.5-.99.39-.93.54-.93-9.93 20 .11.6-.09 1.33-.1 1.37-.02 1.37.09 1.39.19 1.36.22 1.3.16 1.24.08 1.24.13 1.34.38 1.5.73 1.65.89 1.71.53 1.58-.66.92-2.64-19.9 1.02-1.51.83-.99.77-.83.73-.73.75-.6.82-.46.91-.31.96-.24.94-.28.86-.38.77-.52.73-.64.72-.72.74-.76.76-.72.75-.61.77-.39.82-.07.94.21 1.06.15 1.3-.84" filter="url(#a)"/><path d="m-51.07-42.03.95.15.7-.87.75-.86.7-.91.58-.99.51-1.01.53-.93.57-.82.6-.71.65-.63.7-.53.8-.41.91-.27 1.02-.15 1.09-.1 1.13-.17 1.13-.42 1.06-.75.72-.37-15.1 10.75-.74 1.54-.52 1.22-.56.91-.7.7-.92.62-1.15.62-1.3.64-1.3.69-1.12.79-.82.96-.52 1.12-.36 1.21-.4 1.18-.62 1.05-.93.86-1.21.74-1.31.81-1.19 1.13-1.14 1.57-1.68 1.47 18.49-19.83.53 2.53-.64 1.11-.57.87-.21.98.03 1.2.05 1.31-.09 1.31-.25 1.22-.34 1.13-.35 1.1-.28 1.1-.2 1.12-.13 1.12-.09 1.11-.02 1.11.06 1.15.15 1.21.25 1.3.32 1.31.34 1.18.28.88.11.61.16.89" filter="url(#a)"/><path d="m-51.85-39.92-.53-2.27-.03-1.52.26-1.33.52-1.12.63-1.03.61-1.04.5-1.12.34-1.24.19-1.34.04-1.42-.01-1.45v-1.45l.07-1.41.11-1.43.13-1.54.11-1.28" filter="url(#a)"/><path d="m-52.15-39.12-.46 1.28-.29.79-.33.88-.4 1.08-.43 1.18-.4 1.18-.38 1.16-.34 1.14-.3 1.13-.25 1.14-.21 1.12-.19 1.11-.17 1.1-.18 1.11-.2 1.15-.21 1.2-.2 1.2-.15 1.07-.08.82-.01.6-.07.91 8.81-54.58-1.52 2.86-.66 1.83-.09 1.84.09 1.86.05 1.75-.05 1.57-.17 1.41-.31 1.24-.49 1.05-.62.95-.65.96-.51 1.13-.25 1.43.08 1.74.36 2 .49 2.09.44 2.01.24 1.82-.03 1.56-.28 1.34-.39 1.17-.14.89-21.44 26.76 1.95-2 1.14-1.63 1.28-1.31 1.32-1.24 1.11-1.24.82-1.17.61-1.06.51-.98.49-.98.5-1.04.5-1.12.49-1.16.55-1.12.66-1.03.88-.9 1.09-.79 1.19-.74 1.11-.81.87-.92.59-1.05.5-1.09.73-1.06 1.23-1.21 1.33-1.88" filter="url(#a)"/><path d="m-54.82-32.3.31-2.69.41-1.57.44-.94.43-.84.37-.97.31-1.15.25-1.28.19-1.38.15-1.45.13-1.51.12-1.53.12-1.55.15-1.51.2-1.42.27-1.31.33-1.21.32-1.18.26-1.25.17-1.36.16-1.4.3-1.29.55-.95.8-.48" filter="url(#a)"/><path d="m-54.6-33.14-.37-.7-.91-2.25-.6-1.96.03-1.27.45-.89.57-.87.45-1.08.22-1.37-.01-1.63-.2-1.82-.26-1.94-.27-1.97-.21-1.96-.11-1.9-.01-1.79v-1.75l-.22-1.83-.64-2.09-.34-2.23" filter="url(#a)"/><path d="m-54.6-33.14-.5 1.55-.46 1.3-.46 1.12-.43 1.06-.37 1.05-.32 1.05-.26 1.06-.24 1.1-.26 1.13-.28 1.14-.3 1.08-.32.97-.32.89-.3.87-.31.98-.31 1.15-.31 1.27-.29 1.24-.23 1.15-.28 1.65 5.5-19.43.03 1.05.13 1.19.26 1.35.2 1.26.15 1.18.22 1.22.32 1.28.35 1.28.25 1.19.1 1.06-.07.95-.2.91-.26.94-.2 1.04-.01 1.15.23 1.22.41 1.25.47 1.22.41 1.12.36 1.03.35 1.02.39 1.29.64 2.14-4.53-27.34-.28-1.89-1.79-2.5-1.58-2.42-.57-1.88.03-1.51.09-1.42.02-1.42.16-1.32.49-1.12.83-.93.97-.88.88-1.01.61-1.26.27-1.58-.03-1.85-.22-2.03-.3-2.09-.33-2.09-.36-2.09-.38-2.1-.29-2.01-.02-1.58.04-.3 1.44 38.57-1.55-.06-2.29.33-1.57.53-.95.77-.66.98-.46 1.16-.21 1.29-.01 1.28-.06 1.15-.38.96-.77.84-1.03.88-.98 1.08-.76 1.28-.64 1.37-.81 1.37-1.18 1.57-1.92 1.9 16.28-19.41-2 1.89-2.07.37-1.07.59-.23 1.07.05 1.34-.15 1.33-.54 1.12-.9.82-1.12.61-1.17.59-1.09.8-.89 1.16-.67 1.42-.77 1.15-1.42.18m127.83-6.49.4-1.75 1.52-2.36 1.38-2.31.66-1.84.03-1.33-.31-1.04-.33-1.06-.17-1.24.03-1.5.21-1.69.35-1.83.46-1.89.5-1.89.47-1.83.43-1.78.44-1.83.53-1.98.56-2.14.33-2.15-.23-2.18-.54-2.54.51-3.08" filter="url(#a)"/><path d="m60.83-62.09.37 1.07.02 2.11-.2 2.67-.11 2.57.09 2.16.15 1.82.08 1.64-.08 1.62-.21 1.63-.25 1.63-.21 1.62-.11 1.6-.06 1.59-.12 1.62-.33 1.69-.6 1.75-.8 1.72-.72 1.54-.32 1.29.32 1.11.94 1.08.86 1.29-1.89 2.66" filter="url(#a)"/><path d="m56.17-28.24 1.27 1.87 1.84.96 2.02.66 2.07.54 1.94.55 1.55.72 1.05.92.57 1.1.29 1.24.27 1.31.51 1.32.92 1.22 1.32 1.05 1.62.9 1.75.78 1.61.66 1.86 1.05-22.46-16.85.91-1.23.51-.65.52-1.12.33-1.45.04-1.49-.27-1.36-.49-1.23-.53-1.14-.42-1.15-.19-1.23.04-1.35.16-1.45.12-1.5-.04-1.49-.26-1.52-.43-1.7-.48-1.98-.37-2.11-.52-1.72m4.6 51.52.1-1.2v-1.32l-.04-1.44-.07-1.33-.09-1.17-.12-1.08-.14-1.05-.15-1.09-.16-1.12-.15-1.14-.16-1.13-.15-1.11-.16-1.09-.19-1.09-.2-1.11-.22-1.13-.26-1.22-.31-1.32-.34-1.44-.35-1.42-.26-1.03.02.18" filter="url(#a)"/><path d="m56-28.44.07-.23.42.95.46 1.38.39 1.42.34 1.31.34 1.2.35 1.1.37 1.06.35 1.04.3 1.05.25 1.09.22 1.13.2 1.16.21 1.15.24 1.09.25 1.01.25.98.23 1.1.2 1.58.14 2.81" filter="url(#a)"/><path d="m41.3-45.83.86.59.66.44.76.32.85.43.89.64.9.84.84.98.73 1.02.62 1.01.54.96.51.88.53.82.61.75.75.69.89.68.94.74.89.87.72 1.05.56 1.31.45 1.46.2.91-8.47-20.07.44.68.63 1.08.71 1.35.7 1.39.62 1.29.53 1.14.48 1.04.44.96.41.92.38.92.39.97.41 1.03.43 1.11.45 1.17.46 1.24.45 1.37.41 1.48.13.93-1.17-4.75.56 1.64.55 1.31.49.78.57.61.72.73.92.9 1.11 1 1.25.97 1.32.89 1.25.85 1.13.88 1 .93 1.01.89 1.2.68 1.68.53 2.42 1" filter="url(#a)"/><path d="m54.83-33.19-.11-.68.16-1.58.32-1.73.21-1.51-.03-1.22-.23-1.1-.24-1.18-.13-1.41-.02-1.62-.08-1.7-.24-1.65-.43-1.51-.49-1.41-.39-1.38-.21-1.43-.03-1.51.05-1.55.01-1.51-.11-1.43-.15-1.39-.04-1.53.19-1.92.31-2.62.29-3.56m.61 36.82.46.94.44.95.45 1.09.42 1.05.34.92.3.88.31.96.37 1.1.41 1.2.44 1.23.4 1.19.35 1.13.3 1.11.29 1.08.28 1.01.26.86.24.84.43 1.32" filter="url(#a)"/><path d="m63.42-13.44-.58.01-.52-.8-.46-1.21-.4-1.23-.38-1.14-.33-1.08-.29-1.1-.27-1.12-.28-1.14-.37-1.17-.47-1.17-.54-1.17-.56-1.13-.52-1.06-.43-.99-.37-.96-.36-.99-.43-1.03-.55-1.07-.66-1.1-.67-1.17-.61-1.23-.37-.69 1.31.07 1.16.87.48 1.3.39 1.29.61 1.1.82.87.96.7 1.05.62 1.13.66 1.17.81 1.09.98.92 1.12.73 1.19.58 1.18.54 1.17.64 1.15.85 1 1.13.54 1.43.03" filter="url(#a)"/><path d="m52.67-38.43.78-.07.67.43.5.9.57 1.1.79 1.05.98.94 1.01.86.87.84.65.88.48.95.45 1.02.52 1.1.67 1.16.81 1.16.94 1.1 1.01 1.03 1.07.97 1.14.93 1.18.86 1.13.74.82.79-.09 1.7-16.95-20.44-.32.69.16.74.33.96.41 1.12.4 1.19.29 1.24.13 1.28.01 1.24-.03 1.13.02 1.02.14.98.24 1.07.3 1.22.28 1.34.14 1.32-.11 1.13-.4.55m-2.95-20.1 4.44-1.51-.16 1.22-.41 1.4.32 1.07.93.86 1.25.76 1.45.7 1.68.58 1.95.36 2.1.14 2.01.06 1.69.28 1.28.82 1.03 1.36 1.37 1.49 2.4 1.29-24.03-12.42 3.2-4.41-1.34-1.3-1.67-.71-1.07-.79-.47-1.05.01-1.37.44-1.82.86-2.34 1.19-2.81 1.32-3.02 1.13-2.85.68-2.39.19-1.95-.13-1.84-.05-2.02.98-2.25-5.27 32.92-.5-1.31-.77-1.73-.7-1.45-.6-1.11-.52-.88-.45-.77-.43-.77-.41-.81-.41-.86-.41-.87-.4-.87-.38-.84-.42-.88-.61-1.09-.97-1.35 7.98 15.03-1.35-2.62-.69-1.62-.47-1.17-.41-.92-.39-.83-.36-.86-.33-.95-.29-1.03-.29-1.07-.32-1.04-.4-.99-.49-.98-.57-1-.63-1.04-.66-1.08-.68-1.11-.66-1.1-.56-1.07-.39-.96-.32-.71 10.26 22.15-2.52-1.52-.75-1.55-.59-1-.76-.52-.88-.28-.91-.23-.88-.28-.82-.36-.77-.41-.73-.46-.72-.5-.73-.56-.73-.62-.75-.65-.75-.69-.75-.7-.73-.69-.73-.64-.78-.57-.85-.48-.93-.38-.94-.28-.74-.1-.17.02" filter="url(#a)"/><path d="m48.94-46.11 1.48 2.34 1.66.57 2.28-.37 2.24-.4 1.64.06.98.57.54.92.39 1.13.43 1.22.59 1.23.86 1.15 1.11 1.01 1.25.85 1.12.72.88.58.86.48 1.31.82 1.86 2.11m-21.7-15.64-.9-.74-.68-.48-.64-.45-.57-.58-.51-.71-.47-.79-.47-.8-.5-.77-.57-.71-.66-.69-.74-.69-.79-.72-.82-.74-.83-.74-.81-.69-.79-.6-.77-.49-.85-.5-1.17-.9" filter="url(#a)"/><path d="m48.72-46.76.95 1.12 1.89.74 2.25.04 1.87.05 1.13.51.52.96.21 1.18.21 1.22.38 1.16.66 1.07.97.95 1.25.83 1.43.72 1.43.65 1.31.64 1.1.68.95.8.9 1.02 1.05 1.27 1.26 1.41 1.32 1.48.83 1.6" filter="url(#a)"/><path d="m47.53-48.51-.39-.61-.56-.59-.79-.45-1-.21-1.12-.03-1.11-.02-.97-.21-.77-.52-.62-.79-.61-.87-.75-.73-.97-.4-1.2-.01-1.32.31-1.29.41-1.1.05-1.19-.6 15.04 4.04 1.35-.46 1.62-.6 1.18.15.8.9.74 1.27.84 1.29.88 1.18.88 1.02.94.83 1.14.58 1.39.32 1.59.15 1.64.19 1.59.42 1.45.78 1.18.92.94.27" filter="url(#a)"/><path d="m46.07-51.11.81.81.86.35.78.39.63.73.53 1.1.53 1.34.56 1.4.61 1.29.65 1.13.7.96.72.82.73.73.75.7.76.73.8.82.85.92.85.92.8.79.94.81M23.85-56.61l1.41-1.25.93-.48.89-.17.96-.04 1.04-.05 1.02-.05.92.04.8.06h.79l.9-.14 1.01-.14 1.02.05.92.34.91.36 1.13-.02 1.31-.32.74.02" filter="url(#a)"/><path d="m40.47-58.57.98.03 1.37.14 1.21.35.95.6.69.8.53.9.52.86.65.7.83.51.96.36 1.01.32.98.41.92.59.9.8.91.98.93 1.12.9 1.19.81 1.19.73 1.13.74 1.01.84.85.86.66.74.68-21.37-17.89-.32-.31-.77-.48-.9-.6-.78-.63-.62-.63-.54-.59-.57-.57-.66-.57-.74-.58-.79-.58-.81-.55-.8-.49-.8-.43-.82-.38-.87-.35-.96-.33-1.05-.3-1.1-.25-1.08-.21-1.03-.26-1.2-.43 16.7 8.73.28.69.47.76.61.9.61 1.05.52 1.19.44 1.27.38 1.26.36 1.18.36 1.04.39.92.41.85.39.84.34.88.24.94.17.96.19.9.32.8.43.76.17.89-9.48-20.63h-.65l-.89.75-1.01.56-.98.02-.88-.41-.77-.68-.71-.71-.72-.53-.83-.22-.98.11-1.1.28-1.14.23H24.4l-.98-.24-.91-.28-.88-.03-.91.47-.91 1.02-.91 1.57-1.06 2.17 18.31-4.08 1.15.72 1.26.43 1.51-.24 1.63-.51 1.51-.26 1.28.19 1.08.56.94.77.86.83.81.82.77.77.81.68.89.54 1.06.37 1.24.15 1.43-.04 1.6-.24 1.81-.38 2.06-.43 2.35-.26 2.6.45 2.68 2.59" filter="url(#a)"/><path d="m21.14-103.17 1.34 2.55.82 2.94.73 2.7.7 2.6.67 2.35.65 1.88.7 1.28.8.75.9.49.91.61.79 1.12.58 1.83.32 2.51.1 2.91v2.89l.03 2.49.19 1.89.42 1.32.63.98.78.89.94 1.02-.51-1.92.09-2.82.26-2.98.05-2.42-.32-1.63-.64-1.12-.79-1.08-.77-1.42-.66-1.86-.57-2.06-.56-1.91-.61-1.55-.68-1.16-.76-.94-.82-.92-.92-.98-1.03-1.02-1.1-1.13-1.06-1.55-.92-2.33-.84-2.94-.63-3.09-5.03 36.88 1.04-.73 1.03-.39 1.13-.35 1.08-.3.96-.22.83-.1.77.02.77.15.84.22.93.26 1.02.23 1.06.19 1.05.15.97.17.84.25.75.35.78.37.92.23.95.22-1.55-1.42-.68-.77-.53-.66-.65-.67-.8-.73-.85-.89-.8-1.17-.65-1.53-.45-1.91-.28-2.16-.23-2.16-.31-1.88-.5-1.53-.7-1.4-.82-1.54-.84-1.7-.93-1.43-1.15-.9-1.46-1.19" filter="url(#a)"/><path d="m31.49-67.82-.63-.9-.39-1.04-.46-1.23-.53-1.53-.57-1.75-.6-1.74-.64-1.55-.67-1.29-.69-1.05-.68-.91-.7-.93-.71-1.14-.71-1.5-.71-1.86-.73-2.03-.78-1.96-.84-1.69-.82-1.45-.68-1.36-.42-1.39-.07-1.63.48-2.74 11.37 32.04-.4-.08-.74-.32-.93-.45-1.01-.5-1.03-.48-.96-.47-.88-.46-.78-.44-.74-.4-.75-.34-.82-.28-.9-.2-.99-.15-1.02-.12-1.02-.13-.95-.17-.86-.2-.72-.17-.6-.03-.56.19-.75.31-1.48-.19.99 7.05.31.1.6-.46.83-.46.98-.44 1.06-.41 1.06-.29 1-.04.91.17.83.24.8.12.86-.13.96-.4 1.09-.55 1.18-.52 1.22-.31 1.19.01 1.07.31.91.47.7.43.34.19-17.13-16.4 1.47 1.44.67.68.52.33.56.42.67.71.76.94.84 1 .92.9.95.75.94.59.9.47.81.43.71.51.65.69.65.87.73.95.86.9.97.89.9 1.11.5 1.06-3.02-2.5-.32-2.15.02-3.06.24-3.56.04-2.68-.53-1.01-1.03.16-1.21.15-1.08-.82-.78-2.14-.54-3.11-.41-3.45-.4-3.19-.39-2.59-.4-1.73-.57-.59-1.01.27-1.8-1.62L4.86-65.3l.3-2.02.73-1.39.78-1.11.8-.87.81-.55.84-.2.85.13.85.33.82.4.77.3.75.12.76-.09.83-.28.94-.44 1.03-.53 1.1-.5 1.11-.31h1.03l.9.31.76.44.71.22.84-.3 1.04-.56.88-.04.88-5.26-.41-1.51-.68-.34-.91.23-1.01.09-.99-.59-.84-1.46-.68-2.21-.57-2.63-.51-2.59-.53-2.13-.6-1.44-.7-.87-.8-.74-.9-1.12-.98-1.79-1.02-2.23-1-2.08-.97-1.82-1.42-2.83" filter="url(#a)"/><path d="m7.86-65.37 1.11.74 1.25-.61 1.14-1.11.93-1.14.81-1.12.81-1.05.85-.84.89-.42.86.12.81.62.82.85.89.58 1.06-.19 1.18-1.13 1.12-1.5.93-.85h1.17m-1.9-1.04-.95-.2-1.32.11-1.23.04-1.05-.24-.94-.39-.86-.32-.79-.13-.74.09-.7.23-.76.27-.88.24-1.01.18-1.05.13-.97.1-.88.16H7.25l38.6-4.41-1.94.95-1.3.7-.95.3-.95.06-1.17.09-1.38.3-1.5.48-1.46.48-1.32.31-1.17.09-1.07-.11-1.06-.21-1.09-.26-1.11-.32-1.08-.43-.97-.53-.86-.6-.73-.51-.71-.18-.88.49-1.28 1.14-1.85.63-1.64-.9-1.31.58-1.07.07-.79-.14-.6-.26-.6-.29-.72-.25-.86-.16-.97-.01-1 .18-.97.39-.92.57-.85.6-.79.53-.77.39-.76.39-.82.54-.96.57-1.03.17" filter="url(#a)"/><path d="m18.38-75.63-.63-2.68-.68-1.93-.8-.18-.77.35h-.73l-.75-.6-.81-1.13-.86-1.4-.87-1.4-.86-1.22-.84-.98-.82-.81-.81-.79-.82-.96-.85-1.21-.95-1.4-1.09-1.33-1.25-.97-1.38-.47H.36m.46 5.42.16.91.87.64 1.11.48 1.12.47 1.04.61.93.81.83.93.79.91.78.81.81.66.87.55.93.48.96.5.92.61.83.72.68.76.59.67.59.5.75.41.97.51 1.03.75" filter="url(#a)"/><path d="m17.37-76.1-1.12-.9-.65-.78-.52-.44-.58-.28-.73-.31-.89-.46-.96-.59-.95-.71-.88-.87-.79-1.06-.73-1.25-.71-1.3-.74-1.16-.81-.8-.93-.39-1.09-.15-1.23-.39-1.27-.96 4.75.98.08 1.09.62 1.27.67 1.34.69 1.23.73 1.02.81.78.93.58 1 .44 1 .41.87.46.66.58.47.68.45.69.68.64 1.17.61-20.8 7.97 1.09-.26.77-.38.73-.5.74-.65.78-.73.85-.75.89-.76.93-.7.92-.62.88-.51.85-.43.83-.39.83-.37.85-.36.9-.34.95-.3 1.01-.23 1.02-.17.94-.1.8-.05.64.02.58.13.76.2 1.26.28 7.52 19.88-.19-1.88-.46-1.3-.67-1.04-.76-.82-.7-.88-.52-1.15-.35-1.39-.3-1.4-.36-1.18-.52-.9-.68-.75-.79-.74-.82-.81-.83-.9-.79-1.25-.64-2.1-.43-2.36-.66-.19.26.6.43.72.6.97.73 1.04.84.87.92.61.97.4.93.32.83.37.69.54.56.76.48 1 .46 1.22.49 1.36.56 1.41.6 1.42.6 1.42.54 1.29.62 1.02-14.44-17.94 1.44.88.55.97.41.7.54.37.72.24.84.29.89.44.9.58.89.65.83.67.78.65.7.62.66.59.66.6.67.67.71.8.72.98.72 1.11.72 1.1.66.96.47.81.07.75" filter="url(#a)"/><path d="m38.26-86.42-.45-.18-1.27.38-1.6.56-1.7.56-1.64.48-1.51.39-1.34.34-1.22.37-1.16.43-1.16.49-1.17.42-1.18.22-1.15-.1-1.09-.45-1.01-.63-.96-.54-.94-.18-.92.29-.9.64-.92.76-1.03.76-1.31.96-1.6 1.29-1.59.68m.36.27-1.34-.07-.86.12-.78.06-.82.05-.88.12-.94.31-.97.6-.97.89-.92 1.04-.87 1.04-.81.93-.76.84-.73.8-.71.81-.71.75-.73.61-.81.46-.89.44-.93.62-.81.94-.42 1.36.22 1.97L7.8-78.8l-.21-.75-.61-.47-.77-.42-.87-.43-.94-.53-1.01-.65-1-.72-.96-.67L.51-84l-.89-.52-.89-.6-.9-.74-.92-.72-.84-.39-.57.03.04-.32L7.8-78.8l-.32.31-.67.06-.79-.1-.88-.12-.96-.11-.98-.09-.98-.06-.94-.02-.89.02-.85.08-.83.12-.82.17-.8.23-.81.27-.85.33-.9.37-.99.4-1.03.41-.96.38-.77.33-.67.37-1.18.58" filter="url(#a)"/><path d="m7.79-78.56-.83-.36-.84-.46-.85-.7-.93-1.03-1-1.28-1-1.39-.96-1.35-.92-1.14-.89-.85-.89-.54-.91-.4-.93-.46-.89-.7-.63-.86.06-.32M5.4-79.08l-.37 1.64-.93.2-1.04.03-.99.28-.9.41-.83.45-.79.54-.76.69-.75.8-.72.82-.68.79-.68.77-.74.84-.92.97-1.16 1.05-1.32.6m6.82-11.11-1.39.07-2.08.18-2.45.27-2.48.33-2.37.39-2.37.46-2.5.54-2.69.61-2.81.68-2.77.74-2.6.78-2.36.85-2.16.91-2.12 1-2.26 1.09-2.6 1.17-3.06 1.25-3.53 1.32-3.93 1.37-4.15 1.41-4.2 1.46-4.14 1.48-4.04 1.53-3.89 1.58-3.61 1.61-3.11 1.63-2.52 1.57-2.25 1.45-2.88 1.42-5.19 1.84" filter="url(#a)"/><path d="m-2.28-79.32-2.29.22-2.17.29-2.01.34-2.1.39-2.42.47-2.81.54-3.07.62-3.08.69-2.85.74-2.51.8-2.25.85-2.16.92-2.28 1.01-2.51 1.09-2.78 1.18-3.06 1.26-3.34 1.32-3.66 1.38-3.98 1.42-4.24 1.46-4.29 1.49-4.1 1.53-3.66 1.57-3.19 1.6-2.85 1.6-2.76 1.59-2.82 1.55-2.8 1.57-2.78 1.68-2.92 1.81-1.67 1.78" filter="url(#a)"/><path d="m-4.53-79.08-1.93.25-2.09.35-2.15.39-2.16.47-2.11.54-2.06.63-1.98.7-1.91.75-1.86.79-1.9.85-1.99.93-2.15 1.01-2.28 1.1-2.39 1.19-2.44 1.26-2.48 1.33-2.53 1.38-2.59 1.42-2.61 1.46-2.56 1.5-2.4 1.53-2.13 1.57-1.84 1.59-1.58 1.6-1.46 1.59-1.56 1.57-1.91 1.61-2.48 1.69-2.97 1.83-2.94 1.97-2.77 2.2" filter="url(#a)"/><path d="m-4.05-79.17-3.16.34-2.56.43-2.92.48-3.32.52-3.33.57-3.04.63-2.78.7-2.74.78-2.83.86-2.93.92-2.9 1-2.86 1.05-2.95 1.12-3.25 1.18-3.68 1.23-3.96 1.26-3.8 1.29-3.14 1.29-2.27 1.33-1.76 1.38-2.05 1.48-3.08 1.61-4.14 1.7-4.48 1.75-4.83 1.83-7.92 2.27" filter="url(#a)"/><path d="m-7.76-78.89-1.94.48-1.96.5-2.09.54-2.08.58-1.96.65-1.87.72-1.9.8-1.96.88-2.05.96-2.1 1.02-2.17 1.09-2.24 1.14-2.34 1.2-2.4 1.25-2.41 1.29-2.33 1.32-2.17 1.36-2 1.41-1.86 1.48-1.78 1.55-1.82 1.64-1.98 1.72-2.23 1.8-2.52 1.87-2.78 1.94-2.9 1.98-2.87 2.03-2.69 2.06-2.43 2.05-2.17 2.04-2.1 2.06-2.31 2.11-2.76 2.25-3.16 2.42-3.05 2.65-2.96 3.12" filter="url(#a)"/><path d="m-9.39-78.25-.91.17-1.77.42-2.04.55-2.11.66-2.1.72-2.07.76-2 .81-1.92.85-1.83.94-1.73 1.02-1.67 1.12-1.62 1.21-1.6 1.27-1.63 1.34-1.66 1.39-1.71 1.44-1.74 1.47-1.75 1.5-1.73 1.54-1.69 1.57-1.66 1.59-1.64 1.6-1.63 1.62-1.67 1.64-1.7 1.69-1.74 1.78-1.72 1.9-1.65 2.04-1.53 2.17-1.38 2.22-1.25 2.19-1.17 2.02-1.25 1.9" filter="url(#a)"/><path d="m-9.39-78.25-1.05.17-2.02.41-2.18.55-2.06.65-1.97.72-1.95.76-2.05.79-2.23.85-2.45.92-2.64 1.02-2.8 1.1-2.91 1.2-3 1.27-3.13 1.33-3.32 1.38-3.57 1.42-3.81 1.46-4.04 1.5-4.17 1.53-4.19 1.57-4.05 1.59-3.74 1.6-3.3 1.58-2.97 1.57-3.04 1.6-3.73 1.69-4.81 1.83-5.53 1.96-4.62 2.2M59.3-12.45l.63.83 1.52 2.2 2.62 2.64 3.09 2.68 2.5 2.63 1.27 2.54.12 2.43-.54 2.33-.65 2.29-.46 2.28-.19 2.32-.06 2.34-.1 2.34-.26 2.3-.4 2.24-.37 2.19-.18 2.15.13 2.15.35 2.16.36 2.18.15 2.2-.15 2.23-.37 2.24-.43 2.21-.39 2.13-.29 2.04.05 2.2" filter="url(#a)"/><path d="m-9.78-78.38-1.86.47-2.39.53-2.82.59-3.05.64-3.12.72-2.99.81-2.74.89-2.47.97-2.24 1.03-2.1 1.09-2.1 1.15-2.23 1.2-2.46 1.26-2.75 1.29-3.02 1.32-3.28 1.37-3.49 1.42-3.64 1.49-3.71 1.56-3.68 1.65-3.54 1.72-3.32 1.81-3.11 1.87-2.95 1.94-2.86 1.99-2.82 2.02-2.84 2.05-2.94 2.06-3.17 2.06-3.49 2.1-3.82 2.15-4.03 2.23-4.03 2.32-3.87 2.33-3.6 2.17-3.49 1.78-5.33 1.4" filter="url(#a)"/><path d="m-11.52-77.9-1.8.5-1.85.59-1.75.62-1.73.7-1.76.8-1.78.88-1.75.95-1.72 1.01-1.69 1.07-1.71 1.14-1.73 1.19-1.75 1.24-1.74 1.27-1.69 1.29-1.63 1.32-1.57 1.35-1.54 1.42-1.51 1.51-1.49 1.6-1.46 1.7-1.43 1.77-1.4 1.83-1.38 1.87-1.35 1.93-1.38 2.03-1.59 2.36" filter="url(#a)"/><path d="m-11.52-77.9-1.84.51-1.91.59-1.98.63-2.14.72-2.23.8-2.22.9-2.21.96-2.27 1.03-2.38 1.09-2.43 1.15-2.41 1.2-2.32 1.25-2.23 1.29-2.21 1.32-2.27 1.35-2.38 1.41-2.46 1.47-2.44 1.55-2.33 1.63-2.11 1.72-1.86 1.8-1.63 1.87-1.45 1.93-1.4 1.99-1.48 2.03-1.72 2.06-2.08 2.04-2.45 2.03-2.66 2.01-2.57 2.08-2.32 2.23-2.39 2.33-2.9 2.46" filter="url(#a)"/><path d="m-15.8-76.54-1.57.39-2.05.64-2.37.8-2.3.9-1.92.97-1.58 1.02-1.46 1.07-1.6 1.14-1.87 1.19-2.17 1.25-2.42 1.28-2.59 1.29-2.63 1.31-2.53 1.35-2.32 1.41-2.12 1.51-2.03 1.6-2.15 1.7-2.43 1.77-2.64 1.82-2.64 1.87-2.47 1.92-2.49 2.03-3.14 2.35" filter="url(#a)"/><path d="m-15.8-76.54-1.45.39-1.75.66-1.87.82-1.84.92-1.74 1-1.64 1.04-1.59 1.1-1.57 1.16-1.59 1.22-1.62 1.27-1.63 1.29-1.65 1.33-1.68 1.37-1.7 1.42-1.72 1.5-1.72 1.57-1.7 1.65-1.65 1.74-1.59 1.81-1.52 1.89-1.44 1.94-1.35 1.98-1.25 2.03-1.16 2.05-1.07 2.06-.99 2.08-.95 2.11-.97 2.15-1.01 2.22-1.07 2.26-1.14 2.27-1.15 2.19-1.11 2.11-1.07 2.06-.97 2.05-.48 1.28m125.07 3.34 5.55 2.7-.11 2.38-.88 2.29-.5 2.37-.01 2.43.48 2.45 1.01 2.44 1.5 2.44 1.82 2.44 1.94 2.45 1.92 2.44 1.79 2.41 1.69 2.38 1.63 2.33 1.72 2.31 2 2.28 2.48 2.26 2.99 2.23 3.32 2.21 3.21 2.19 2.53 2.2 1.4 2.22.19 2.25-.65 2.24-.88 2.15-.57 1.98-.17 1.76-.02 1.67.08 1.92.38 2.55M58.87-15.21l-2.59 2.68-2.33 2.36-1.28 2.26-.8 2.33-1.24 2.41-1.85 2.42-1.91 2.42-1.37 2.41-.64 2.42-.27 2.43-.49 2.43-1.24 2.4-2.21 2.36-3.02 2.31-3.34 2.28-3.13 2.27-2.54 2.26-1.91 2.25-1.53 2.18-1.35 2.04-1.33 1.95-2.04 2.14-4.5 2.99" filter="url(#a)"/><path d="m-19.58-74.8-1.51.72-.94.79-.82.89-1.22 1.05-1.52 1.18-1.48 1.26-1.21 1.33-.87 1.37-.57 1.42-.3 1.45-.07 1.49.13 1.52.26 1.55.27 1.58.12 1.6-.12 1.61-.39 1.65-.64 1.68-.81 1.75-.87 1.83-.81 1.93-.63 2.03-.33 2.1.05 2.16.47 2.17.81 2.17 1.04 2.17 1.22 2.19 1.42 2.25 1.67 2.36 1.76 2.52 1.37 2.55.37 2.12m3.36-56.36-1.92.92-2.38 1.04-2.69 1.03-2.73 1.06-2.53 1.13-2.22 1.21-1.92 1.27-1.76 1.29-1.78 1.29-1.97 1.3-2.26 1.35-2.55 1.41-2.77 1.52-2.99 1.61-3.2 1.7-3.35 1.77-3.35 1.83-3 1.88-2.4 1.95-1.96 2.07-2.41 2.25-3.41 2.42" filter="url(#a)"/><path d="m-20.37-74.72-2.49.93-1.69 1.04-1.47 1.05-1.53 1.07-1.73 1.15-1.91 1.23-2.01 1.27-1.96 1.3-1.86 1.31-1.73 1.34-1.65 1.38-1.66 1.46-1.72 1.54-1.8 1.64-1.86 1.72-1.91 1.8-1.95 1.87-1.96 1.92-1.96 1.99-1.92 2.03-1.82 2.06-1.7 2.03-1.63 1.99-1.67 1.96-1.82 2.04-1.92 2.27-1.46 1.89" filter="url(#a)"/><path d="m-21-74.28-2.04 1-1.52.83-1.7 1.03-1.87 1.19-1.89 1.28-1.85 1.32-1.8 1.36-1.78 1.4-1.8 1.45-1.83 1.47-1.89 1.5-1.98 1.54-2.07 1.57-2.14 1.59-2.12 1.59-2.01 1.6-1.84 1.62-1.7 1.67-1.62 1.77-1.6 1.9-1.59 2.04-1.59 2.16-1.61 2.21-1.76 2.17-1.96 2-1.68 1.88" filter="url(#a)"/><path d="m-22.1-73.9-3.03 1.18-2.61 1.07-1.99 1.06-1.63 1.15-1.52 1.24-1.54 1.29-1.55 1.31-1.55 1.32-1.56 1.35-1.66 1.4-1.8 1.47-1.94 1.57-2.02 1.66-1.98 1.74-1.85 1.81-1.71 1.88-1.58 1.94-1.51 1.99-1.48 2.03-1.46 2.04-1.4 2.05-1.26 2.05-1.1 2.07-1 2.14-1.06 2.23-1.29 2.31-1.51 2.32-1.5 2.15-1.23 1.76-1.18 1.39" filter="url(#a)"/><path d="m-24.33-72.72-2.3 1.16-1.8.99-1.79 1.14-2.01 1.26-2.05 1.31-1.89 1.33-1.74 1.33-1.77 1.35-1.96 1.41-2.2 1.49-2.36 1.58-2.37 1.67-2.31 1.76-2.2 1.83-2.13 1.89-2.09 1.95-2.08 1.99-2.06 2.03-2.02 2.05-1.92 2.06-1.77 2.09-1.57 2.11-1.36 2.15-1.28 2.21-1.37 2.23-1.69 2.22-2.09 2.18-2.38 2.09-2.39 2.01-2.11 1.95-1.78 1.93-1.64 2.14-2.23 3.27" filter="url(#a)"/><path d="m-23.56-73.02-3.38 1.37-4.02 1.43-3.14 1.38-2.32 1.35-1.94 1.38-1.84 1.43-1.82 1.46-1.79 1.5-1.73 1.53-1.64 1.56-1.49 1.58-1.36 1.61-1.32 1.63-1.41 1.65-1.62 1.7-1.85 1.76-2.02 1.86-2.04 1.94-1.97 2.04-1.86 2.1-1.8 2.15-1.9 2.17-2.11 2.19-2.42 2.2-2.67 2.23-2.77 2.27-2.69 2.31-2.47 2.34-2.26 2.34-2.09 2.29-1.9 2.24-1.59 2.27-1.66 2.43-2.16 3.22" filter="url(#a)"/><path d="m-23.56-73.02-2.36 1.37-2.27 1.42-2.4 1.38-2.45 1.36-2.25 1.37-1.94 1.43-1.74 1.46-1.8 1.5-2.11 1.53-2.49 1.55-2.77 1.59-2.84 1.6-2.64 1.63-2.21 1.64-1.7 1.7-1.21 1.76-.88 1.84-.77 1.95-.93 2.03-1.31 2.11-1.86 2.15-2.43 2.17-2.97 2.18-3.36 2.19-3.53 2.22-3.45 2.27-3.07 2.32-2.41 2.36-1.59 2.34-.96 2.27-.99 2.2-1.78 2.12-1.29 1.5" filter="url(#a)"/><path d="m-26.87-71.11-.6.53-1.81 1.07-2.53 1.28-2.77 1.33-2.66 1.32-2.41 1.3-2.16 1.31-1.93 1.36-1.68 1.44-1.46 1.54-1.34 1.64-1.39 1.73-1.56 1.79-1.78 1.86-1.86 1.92-1.75 1.98-1.47 2.03-1.26 2.06-1.33 2.03-1.72 1.95-2.23 1.85-2.58 2.05-3.16 3.44" filter="url(#a)"/><path d="m-26.15-71.67-2.06 1.47-2.26 1.4-3.02 1.32-3.87 1.34-4.07 1.41-3.47 1.45-2.49 1.49-1.72 1.51-1.39 1.55-1.39 1.57-1.5 1.59-1.6 1.61-1.7 1.61-1.91 1.64-2.2 1.7-2.45 1.81-2.52 1.92-2.38 2.03-2.18 2.12-2.22 2.17-2.71 2.17-3.61 2.15-4.46 2.12-4.54 2.07-3.54 2.06-3.46 2.44" filter="url(#a)"/><path d="m-26.15-71.67-3.31 1.49-1.97 1.41-1.7 1.33-1.71 1.37-1.63 1.42-1.52 1.48-1.48 1.51-1.55 1.53-1.67 1.57-1.78 1.59-1.82 1.61-1.78 1.63-1.68 1.66-1.57 1.71-1.51 1.78-1.51 1.87-1.59 1.95-1.72 2.04-1.86 2.11-2 2.15-2.12 2.17-2.25 2.2-2.35 2.21-2.39 2.25-2.32 2.27-2.11 2.3-1.81 2.33-1.52 2.32-1.35 2.32-1.33 2.3-1.42 2.33-1.47 2.38-1.5 2.45-1.67 2.49-2 2.39-1.52 1.67M58.55-17.17l3.19 3.14 1.93 2.24-.05 2.39-.33 2.57.34 2.63 1.12 2.61L66.26.94l1.46 2.44 1.17 2.35.91 2.29.92 2.3 1.31 2.31 2.07 2.35 3.12 2.33 4.21 2.3 5.06 2.25 5.31 2.19 4.78 2.15 3.54 2.14 1.97 2.16.62 2.17-.16 2.21-.35 2.24-.26 2.26.06 2.24 1.29 2.09 4.85 1.7" filter="url(#a)"/><path d="m-28.11-70.3-2.04 1.64-1.81 1.27-1.97 1.34-2.01 1.43-2 1.48-1.98 1.52-1.91 1.53-1.75 1.57-1.49 1.6-1.25 1.61-1.09 1.64-1.04 1.66-1.1 1.72-1.22 1.78-1.32 1.87-1.39 1.97-1.41 2.04-1.41 2.11-1.38 2.15-1.34 2.19-1.25 2.2-1.12 2.22-.98 2.24-.84 2.28-.75 2.3-.74 2.32-.81 2.32-.92 2.33-1.05 2.33-1.18 2.34-1.27 2.39-1.28 2.44-1.19 2.49-1.06 2.52-.93 2.56-.77 2.63-.04 2.42m47.09-74.45-2.69 1.63-3.48 1.25-3.45 1.31-2.49 1.41-1.74 1.47-1.8 1.49-2.49 1.52-3.38 1.54-4.11 1.58-4.54 1.6-4.68 1.6-4.54 1.61-4.17 1.65-3.67 1.71-3.19 1.81-2.91 1.93-2.87 2.04-2.95 2.11-3 2.17-2.99 2.16-3.15 2.15-3.76 2.12-5.01 2.11-6.74 2.14-8.11 2.27-5.64 2.48" filter="url(#a)"/><path d="m-30.91-67.96-.88.64-1.91 1.23-2.57 1.44-3.22 1.49-3.83 1.51-4.18 1.52-4.11 1.56-3.82 1.58-3.62 1.61-3.62 1.61-3.77 1.64-3.81 1.67-3.61 1.74-3.23 1.84-2.78 1.95-2.41 2.04-2.22 2.11-2.27 2.15-2.62 2.17-3.26 2.17-4.02 2.18-4.71 2.2-5.16 2.25-5.32 2.33-5.11 2.37-4.22 2.35-2.4 2.26-.52 2.26-2.87 3" filter="url(#a)"/><path d="m-31.54-67.4-5.43.8-5.24 1.27-2.74 1.29-1.21 1.28-1.34 1.36-2.33 1.48-3.27 1.59-3.68 1.7-3.61 1.77-3.28 1.85-2.9 1.9-2.6 1.95-2.45 2-2.49 2.03-2.7 2.05-2.95 2.05-3.19 2.08-3.33 2.1-3.44 2.15-3.55 2.19-3.63 2.23-3.6 2.22-3.37 2.17-2.93 2.08-2.52 2-2.41 1.94-2.83 1.91-3.74 2.14-4.22 3.26m91.8-55.43-2.2 1.78-1.17 1.56-.2 1.55.28 1.52.15 1.53-.18 1.55-.35 1.6-.36 1.62-.34 1.62-.44 1.65-.62 1.69-.79 1.76-.78 1.86-.53 1.96-.14 2.05.28 2.11.51 2.16.53 2.17.38 2.19.18 2.2.08 2.24.12 2.26.32 2.3.61 2.33.92 2.32 1.13 2.3 1.18 2.28 1.06 2.31 1.04 2.37 1.43 2.48 2.05 2.63 1.61 3.21m-8.81-62.85-2.36 1.1-1.6 1.54-1.56 1.53-1.48 1.51-1.43 1.56-1.52 1.6-1.73 1.63-2 1.63-2.24 1.65-2.37 1.69-2.34 1.78-2.12 1.87-1.79 1.97-1.41 2.06-1.07 2.12-.87 2.16-.82 2.18-.92 2.2-1.14 2.21-1.43 2.24-1.71 2.27-1.93 2.3-2.05 2.32-2.09 2.32-2.09 2.32-2.1 2.32-2.06 2.34-1.9 2.38-1.54 2.44-1.13 2.48-.84 2.52-.76 2.56-.49 2.62.5 2.41" filter="url(#a)"/><path d="m-35.05-64.66-6.54.9-4.41 1.1-2.57 1.31-1.93 1.5-2.3 1.64-2.85 1.74-3.05 1.82-2.69 1.87-1.94 1.94-1.06 1.98-.43 2.02-.25 2.05-.59 2.07-1.29 2.09-2.14 2.1-2.87 2.14-3.26 2.16-3.26 2.19-2.91 2.2-2.36 2.18-1.83 2.16-1.49 2.14-1.4 2.14-1.56 2.15-1.91 2.21-2.41 2.29-3.05 2.37-3.75 2.46-4.4 2.5-4.72 2.51-4.5 2.48-3.76 2.42-2.75 2.37-1.98 2.38-1.9 2.39-2.97 2.32-4.92 2.49" filter="url(#a)"/><path d="m-35.05-64.66-.84.9-1.23 1.09-1.69 1.31-1.92 1.49-1.84 1.64-1.57 1.73-1.33 1.81-1.26 1.87-1.34 1.93-1.54 1.97-1.77 2.02-1.93 2.05-1.99 2.06-1.97 2.08-1.84 2.1-1.67 2.12-1.47 2.17-1.29 2.18-1.14 2.2-1.05 2.19-1.06 2.15-1.12 2.13-1.22 2.1-1.26 2.13-1.18 2.17-1.01 2.27-.76 2.37-.56 2.48-.43 2.55-.37 2.58-.33 2.49-.37 2.27-.71 2.1-1.36 2.68" filter="url(#a)"/><path d="m-34.26-65.2-4.71 2.14-2.32 1.61-.92 1.47-.6 1.53-.79 1.61-1.05 1.63-1.22 1.63-1.27 1.63-1.24 1.67-1.18 1.76-1.13 1.86-1.12 1.96-1.19 2.06-1.3 2.12-1.45 2.16-1.62 2.18-1.74 2.18-1.78 2.2-1.73 2.22-1.55 2.27-1.31 2.3-1.07 2.32-.91 2.31-.89 2.3-1.06 2.28-1.32 2.3-1.47 2.36-1.24 2.48-.61 2.63-.18 3.2M58.5-17.76l2 2.54 1.82 2.53.54 2.38-.3 2.32-.46 2.36-.25 2.41.04 2.43.23 2.42.24 2.42.15 2.43.03 2.44-.07 2.43-.12 2.4-.11 2.37-.14 2.33-.16 2.29-.2 2.27-.24 2.26-.28 2.24-.34 2.18-.44 2.1-.55 2.05-.63 2.17-.63 2.42-.65 2.4" filter="url(#a)"/><path d="m58.5-17.76.48 2.57.6 2.55.62 2.4.7 2.35.81 2.39.84 2.43.75 2.45.53 2.44.23 2.45-.08 2.45-.32 2.46-.44 2.44-.42 2.41-.27 2.38-.07 2.35.11 2.32.15 2.28.08 2.27-.11 2.24-.29 2.22-.45 2.2-.5 2.21-.51 2.22-.55 2.23-.63 2.2-.77 2.11-.85 1.99-.81 1.86-.65 1.77-.54 1.8-.62 1.88-.91 1.89L53 56.58M-38.5-60.8l1.6.85-.96 1.44.1 1.66 2.03 1.68 3.26 1.62 3.09 1.57 1.71 1.61-.06 1.69-1.33 1.82-1.69 1.95-1.25 2.06-.44 2.13.29 2.15.83 2.16 1.35 2.13 2.05 2.13 2.91 2.15 3.55 2.22 3.75 2.34 3.85 2.48 4.05 2.52 2.4 2.08M-38.5-60.8l-1.88.85-3.68 1.44-4.04 1.66-3.47 1.68-2.77 1.62-2.53 1.57-2.86 1.61-3.41 1.69-3.8 1.82-3.94 1.95-3.89 2.06-3.79 2.13-3.72 2.15-3.64 2.16-3.57 2.13-3.46 2.13L-96.3-30l-3.38 2.22-3.75 2.34-4.58 2.48-5.3 2.52-4.44 2.08" filter="url(#a)"/><path d="m-38.5-60.8.31.87-.08 1.45-.58 1.69-.56 1.68-.3 1.63-.03 1.61.18 1.64.33 1.74.49 1.86.64 1.98.87 2.07 1.16 2.13 1.53 2.17 1.93 2.17 2.22 2.18 2.38 2.19 2.37 2.22 2.18 2.26 1.8 2.3 1.28 2.31.73 2.32.37 2.28.44 2.28 1.08 2.29 2.23 2.36 3.63 2.47 4.7 2.63 2.85 3.19" filter="url(#a)"/><path d="m-38.39-61.35-.46 1.41.58 1.69.65 1.82-.27 1.84-1.21 1.88-1.68 1.93-1.69 1.99-1.44 2.03-1.06 2.06-.63 2.07-.16 2.08.31 2.1.81 2.12 1.25 2.17 1.59 2.19 1.77 2.19 1.72 2.19 1.49 2.15 1.18 2.13.95 2.11.91 2.14 1.07 2.19 1.35 2.28 1.64 2.37 1.85 2.46 2 2.51 2.06 2.53 1.98 2.47 1.64 2.39.96 2.34.14 2.4.03 2.4 2.34 1.78m-21.67-70.41-3.66 1.41-2.73 1.69-1.26 1.81-.85 1.85-1.13 1.87-1.7 1.93-2.34 1.99-2.87 2.03-3.05 2.05-2.81 2.07-2.22 2.08-1.46 2.09-.79 2.12-.41 2.16-.39 2.19-.71 2.2-1.25 2.19-1.79 2.15-2.19 2.12-2.31 2.1-2.14 2.13-1.82 2.18-1.55 2.27-1.54 2.37-1.83 2.47-2.21 2.53-2.34 2.54-1.94 2.47-1.17 2.36-.62 2.3-.88 2.56-1.16 3.05" filter="url(#a)"/><path d="m-40.23-59.04-1.81 2.33-1.42 1.81-1.17 1.6-1.04 1.54-1.01 1.6-1.08 1.72-1.15 1.87-1.19 2-1.17 2.09-1.1 2.15-1 2.17-.89 2.18-.82 2.17-.78 2.19-.77 2.22-.77 2.26-.79 2.29-.77 2.31-.73 2.31-.66 2.29-.57 2.28-.47 2.31-.38 2.36-.33 2.43-.29 2.47-.22 2.36-.15 1.65" filter="url(#a)"/><path d="m-40.08-58.84-5.71 2.47-3.5 1.86-3.76 1.81-4.25 1.88-3.94 1.97-2.76 2.02-1.35 2.06-.35 2.05-.1 2.03-.63 2.05-1.78 2.07-3.3 2.14-4.82 2.19-5.98 2.22-6.4 2.2-6.01 2.14-5 2.05-3.94 1.99-3.31 1.96-3.42 2-4.46 2.21-6.51 2.63-7.94 2.78" filter="url(#a)"/><path d="m-42.7-55.52-2.05 1.23-3.69 1.66-3.41 1.88-2.36 1.98-1.96 2.04-2.55 2.07-3.59 2.06-4.37 2.04-4.56 2.05-4.17 2.08-3.45 2.15-2.76 2.19-2.41 2.22-2.52 2.18-2.99 2.13-3.59 2.07-4.13 2.02-4.55 2.02-4.88 2.09-5 2.21-4.59 2.36-3.73 2.38-3.89 2.18-8.51 1.92m89.05-48.58-2.26 1.81-1.53 1.46-.95 1.55-1.13 1.74-1.56 1.92-1.83 2.06-1.81 2.14-1.59 2.19-1.28 2.2-.98 2.2-.77 2.2-.64 2.23-.63 2.25-.72 2.28-.88 2.3-1.06 2.32-1.2 2.33-1.24 2.34-1.15 2.35-.97 2.38-.72 2.4-.5 2.44-.34 2.48-.29 2.49-.29 2.5-.34 2.49-.39 2.46-.45 2.42-.49 2.38-.5 2.36-.45 2.36-.3 2.34-.01 2.3.41 2.27.72 2.56" filter="url(#a)"/><path d="m-43.36-54.89-8.68 1.8-6.12 1.46-1.99 1.53-.31 1.73-.52 1.91-1.42 2.05-2.21 2.14-2.47 2.18-2.29 2.19-1.94 2.19-1.7 2.2-1.64 2.21-1.73 2.23-1.91 2.28-2.19 2.29-2.65 2.32-3.33 2.32-4.11 2.32-4.74 2.33-4.95 2.35-4.57 2.39-3.68 2.44-2.51 2.47-1.28 2.5-.29 2.52.2 2.52-.18 2.47-1.64 2.4-3.7 2.28-4.83 2.19-1.41 2.36m80.59-68.17-1.5 1.77-1.68 2-1.46 2.03-1.28 2.07-1.19 2.08-1.15 2.07-1.07 2.05-.95 2.06-.84 2.09-.79 2.15-.77 2.2-.77 2.21-.76 2.19-.72 2.13-.66 2.09-.6 2.05-.56 2.08-.55 2.14-.57 2.25-.59 2.36-.62 2.48-.61 2.57-.55 2.62-.4 2.53-.18 2.04-.04 1.43" filter="url(#a)"/><path d="m-44.7-53.02-2.15 2.35-3.09 2.06-3.64 2.07-3.53 2.11-2.8 2.08-1.97 2.05-1.56 2.06-1.64 2.1-1.94 2.16-2.16 2.21-2.17 2.21-2.11 2.19-2.1 2.14-2.23 2.09-2.45 2.09-2.67 2.11-2.8 2.18-2.84 2.27-2.95 2.37-3.28 2.46-3.89 2.51-4.51 2.52-4.73 2.45-4.08 2.38-2.63 2.32-1.26 2.39-1 2.39-.8 1.76m72.06-60.61-.88 1.29-1.7 1.79-1.97 1.98-1.81 2.1-1.72 2.18-1.87 2.21-2.14 2.2-2.3 2.18-2.25 2.18-2 2.19-1.66 2.23-1.41 2.27-1.31 2.29-1.36 2.32-1.47 2.31-1.57 2.31-1.67 2.32-1.76 2.34-1.93 2.38-2.1 2.42-2.22 2.47-2.16 2.5-1.8 2.52-1.15 2.52-.44 2.49-.22 2.4-1.17 2.22-3.55 1.84" filter="url(#a)"/><path d="m-46.65-50.17-1.61 1.68-3.22 2-3.75 2.12-3.65 2.1-3.24 2.04-2.57 2.04-1.86 2.09-1.55 2.16-1.85 2.22-2.68 2.22-3.56 2.18-4.07 2.14-4.02 2.09-3.66 2.07-3.35 2.11-3.37 2.17-3.58 2.27-3.61 2.37-3.14 2.46-2.2 2.52-1.15 2.51-.53 2.45-.61 2.37-1.44 2.32-3.1 2.38-5.41 2.39-6.1 1.76m79.49-59.82-1.86 2.23-1.47 2.09-1.43 2.15-1.67 2.22-1.78 2.24-1.72 2.23-1.63 2.2-1.64 2.2-1.82 2.22-2.09 2.26-2.31 2.29-2.39 2.31-2.29 2.33-2.01 2.34-1.64 2.35-1.29 2.36-1.02 2.38-.86 2.42-.83 2.45-.87 2.47-.91 2.49-.99 2.49-1.08 2.47-1.17 2.46-1.24 2.42-1.19 2.4-.97 2.37-.61 2.37-.25 2.36-.12 2.35-.28 2.34-.61 2.3-.79 2.22-.57 2.12.04 2.05.79 2.03 1.22 1.26" filter="url(#a)"/><path d="m-46.04-50.76-3.68 2.22-1.7 2.1-1.75 2.15-1.5 2.21-1.04 2.24-.73 2.23-.64 2.2-.68 2.2-.77 2.22-.84 2.25-.91 2.29-.95 2.31-1 2.33-1.03 2.34-1.04 2.34-.98 2.36-.9 2.38-.81 2.41-.74 2.45-.75 2.47-.82 2.49-.89 2.49-.92 2.48-.84 2.45-.64 2.42-.37 2.39-.09 2.38.13 2.36.23 2.36.22 2.36.1 2.35-.09 2.32-.33 2.22-.54 2.08-.36 2.13 1.14 3.34" filter="url(#a)"/><path d="m-47.56-48.32-4.82 1.93-3.21 2.07-2.25 2.21-1.19 2.24-.5 2.21-.27 2.17-.35 2.16-.51 2.18-.68 2.22-.86 2.26-1.04 2.31-1.2 2.31-1.34 2.31-1.39 2.3-1.34 2.3-1.19 2.34-.99 2.37-.83 2.42-.79 2.47-.89 2.49-1.06 2.52-1.13 2.51-1 2.49-.79 2.39-.77 2.21-.27 1.83M58.12-20.26l3.62 2.43 1.12 2.51-.04 2.47.12 2.38.53 2.34.62 2.36.35 2.4.03 2.41-.11 2.41v2.41l.24 2.42.48 2.43.56 2.44.45 2.4.17 2.37-.17 2.31-.45 2.28-.53 2.26-.37 2.29-.07 2.32.21 2.27.31 2-.11 1.91" filter="url(#a)"/><path d="m-48.8-46.28-2.41 1.98-4.61 2.28-4.36 2.32-3.58 2.24-2.88 2.19-2.09 2.18-1.3 2.2-.86 2.26-1 2.29-1.62 2.32-2.44 2.34-3.11 2.34-3.36 2.34-3.1 2.36-2.48 2.38-1.69 2.42-.98 2.45-.46 2.47-.19 2.49-.12 2.49-.23 2.47-.54 2.45-1.03 2.42-1.71 2.39-2.45 2.38-3.03 2.36-3.31 2.35-3.21 2.35-2.88 2.33-2.51 2.29-2.19 2.22-1.74 2.14-1.07 2.1-.38 2.15-.43 2.33-2.09 3.13" filter="url(#a)"/><path d="m-49.95-43.96-3.38 2.17-2.45 1.92-1.87 1.92-.89 2.06-.29 2.21-.37 2.27-1 2.26-1.81 2.2-2.46 2.14-2.74 2.1-2.61 2.1-2.15 2.15-1.57 2.22-1.07 2.31-.76 2.39-.62 2.45-.6 2.47-.6 2.48-.65 2.46-.75 2.43-.93 2.42-1.17 2.43-1.35 2.45-1.46 2.49-1.5 2.53-1.54 2.53-1.53 2.5-1.33 2.39-.7 2.22.14 2.01.2 1.92-1.19 2.22" filter="url(#a)"/><path d="m-49.95-43.96-1.13 2.17-1.53 1.92-2.18 1.92-2.36 2.06-1.96 2.21-1.29 2.27-.68 2.26-.26 2.2-.06 2.14v2.1l-.07 2.1-.18 2.15-.34 2.22-.47 2.31-.6 2.39-.69 2.45-.76 2.47-.82 2.48-.84 2.46L-67 .75l-.77 2.42-.66 2.43-.51 2.45-.37 2.49-.25 2.53-.14 2.53-.01 2.5.16 2.39.27 2.22.16 2.01-.1 1.92.43 2.22" filter="url(#a)"/><path d="m-49.65-44.56-2.56 2.53-1.9 2.41-1.05 2.26-1.33 2.17-2.19 2.17-2.8 2.2-2.69 2.25-1.97 2.3-1.09 2.33-.5 2.34-.39 2.35-.72 2.34-1.29 2.36-1.85 2.39-2.27 2.42-2.43 2.45-2.34 2.47-2.06 2.49-1.69 2.49-1.31 2.47-.95 2.45-.67 2.42-.45 2.4-.29 2.37-.2 2.37-.17 2.35-.2 2.34-.3 2.31-.49 2.28-.82 2.23-1.16 2.17-1.41 2.16-1.42 2.17-1.11 2.22-.48 2.22.23 1.98-.36 1.39" filter="url(#a)"/><path d="m-51.07-42.03-3.01 2.56-3.64 2.21-2.4 2.12-1.39 2.12-.91 2.18-.71 2.23-.54 2.3-.34 2.33-.11 2.34.01 2.33.01 2.32-.12 2.34-.32 2.36-.54 2.41-.76 2.44-.96 2.47-1.13 2.49-1.21 2.49-1.2 2.47-1.1 2.44-.97 2.41-.85 2.37-.74 2.36-.59 2.35-.33 2.34-.03 2.36.11 2.36-.06 2.35-.44 2.21-.77 1.75-1.21.81" filter="url(#a)"/><path d="m-52.15-39.12-7.84 2.05-7.06 2.01-2.8 2.08-.22 2.16.59 2.24.24 2.3-.44 2.33-.8 2.34-.78 2.33-.62 2.31-.61 2.33-.89 2.36-1.43 2.39-2.07 2.44-2.65 2.47-3.01 2.49L-85.61 0l-2.83 2.47-2.4 2.43-2.01 2.4-1.91 2.37-2.15 2.35-2.57 2.34-2.87 2.34-2.71 2.35-2 2.38-1.06 2.46-.31 2.46.05 2.03" filter="url(#a)"/><path d="m-52.15-39.12-1.73 2.04-1.27 1.99-1.24 2.08-1.41 2.14-1.68 2.22-2.13 2.28-2.87 2.33-3.82 2.33-4.65 2.31-4.99 2.3-4.66 2.3-3.73 2.33-2.61 2.38-1.74 2.43-1.46 2.46-1.83 2.49-2.57 2.49-3.21 2.47-3.37 2.44-2.95 2.38-2.31 2.33-2.07 2.32-2.44 2.38-2.73 2.43-.9 2.16" filter="url(#a)"/><path d="m-52.91-37.25-.74 1.23-1.67 2.36-2.64 2.45-3.12 2.34-3.04 2.21-2.73 2.11-2.3 2.06-1.75 2.07-1.13 2.13-.57 2.23-.19 2.32-.04 2.41-.11 2.46-.36 2.49-.76 2.48-1.17 2.45-1.54 2.44-1.75 2.42-1.82 2.44-1.8 2.46-1.8 2.48-1.88 2.5-2 2.49-2.07 2.44-1.96 2.36-1.63 2.25-1.18 2.17-.82 2.16-.8 2.25-1.05 2.43-1.12 2.53.04 2.32m45.5-73.94-.63 1.19-1.05 2.32-1.12 2.43-.96 2.33-.77 2.18-.66 2.08-.64 2.01-.61 2.01-.53 2.07-.43 2.15-.31 2.27-.26 2.39-.23 2.46-.26 2.5-.31 2.49-.35 2.42L-62.4.4l-.35 2.32-.25 2.33-.08 2.35v2.28l-.11 2.44" filter="url(#a)"/><path d="m-53-36.85-.85 1.83-.93 2.09-.94 2.17-.88 2.24-.81 2.32-.79 2.35-.77 2.35-.71 2.33-.61 2.31-.47 2.33-.33 2.36-.22 2.41-.15 2.44-.12 2.47-.12 2.49-.12 2.49-.12 2.46-.14 2.44-.15 2.4-.16 2.38-.17 2.35-.14 2.35-.07 2.34.05 2.35.19 2.34.3 2.3.34 2.21.33 2.06.43 2.12 1.08 3.33" filter="url(#a)"/><path d="m-52.99-37.62-1.36 3.82-1.05 2.7-1.19 2.38-1.56 2.2-2.06 2.09-2.47 2.05-2.62 2.06-2.39 2.14-1.89 2.24-1.34 2.34-.93 2.42-.73 2.47-.72 2.49-.76 2.48-.75 2.47-.63 2.44-.42 2.44-.2 2.45-.08 2.47-.14 2.48-.34 2.48-.65 2.46-.89 2.42-.97 2.35-.86 2.28-.56 2.24-.22 2.2.07 2.2.15 2.19v2.11l-.41 2.01-.85 1.88-.91 1.9-.18 1.98-.16 1.61" filter="url(#a)"/><path d="m-52.99-37.62-1.36 3.82-.98 2.69-.95 2.38-1.15 2.2-1.47 2.08-1.81 2.04-2.11 2.06-2.39 2.14-2.57 2.23-2.57 2.33-2.27 2.42-1.74 2.47-1.04 2.49-.38 2.48.13 2.46.43 2.43.51 2.44.41 2.44.13 2.46-.28 2.48-.78 2.49-1.27 2.47-1.62 2.42-1.77 2.36-1.71 2.27-1.47 2.21-1.09 2.19-.58 2.23.02 2.24.57 2.17.7 1.92.05 1.55-.87 1.61" filter="url(#a)"/><path d="m-55.65-29.76-5.38 1.4-7.85 2.26-4.53 2.46-1.17 2.4.09 2.32.01 2.29-.34 2.3-.53 2.36-.65 2.4-.97 2.46-1.56 2.48-2.25 2.49-2.68 2.48-2.63 2.47-2.1 2.43-1.39 2.39-.91 2.37-.92 2.35-1.41 2.34-2.1 2.34-2.56 2.33-2.62 2.32-2.42 2.27-2.33 2.2-2.58 2.12-2.75 2.08-2.04 2.13-.13 2.32 1.01 3.12m55.37-66.39-2.41 2.49-1.55 1.83-1 1.86-.79 1.95-1.15 2.06-1.7 2.19-2.14 2.32-2.4 2.42-2.48 2.49-2.31 2.5-1.88 2.47-1.19 2.43-.45 2.37.12 2.37.37 2.37.26 2.42-.14 2.47-.69 2.52-1.16 2.55-1.41 2.56-1.52 2.47-1.77 2.22-1.63 1.83" filter="url(#a)"/><path d="m-55.97-28.47-.81 2.51-.84 1.86-1.33 1.89-1.44 1.99-1.07 2.11-.58 2.24-.32 2.36-.38 2.45-.69 2.51-1.13 2.51-1.52 2.49-1.77 2.45-1.78 2.44-1.53 2.43-1.07 2.44-.5 2.46.08 2.48.51 2.47.7 2.46.65 2.41.42 2.34.13 2.28-.09 2.23-.16 2.2-.09 2.19.05 2.16.15 2.11.17 2.01.2 1.94.34 1.96.73 2.11 1.31 2.42 1.51 3.25" filter="url(#a)"/><path d="m-55.97-28.47-.4 2.5 1.01 1.85 2.44 1.88 3.29 1.97 3.17 2.09 2.4 2.22 1.63 2.34 1.29 2.45 1.32 2.49 1.37 2.51 1.13 2.48.58 2.44-.07 2.41-.53 2.41-.53 2.42-.06 2.44.82 2.48 1.85 2.5 2.82 2.48 3.46 2.43 3.58 2.34 3.11 2.24 2.26 2.15 1.58 2.14 1.67 2.25 2.42 2.42 2.68 2.53 2.04 2.3" filter="url(#a)"/><path d="m-55.92-29.2-1.31 2.96-2.23 2.7-2.07 2.48-1.99 2.32-1.9 2.28-1.46 2.32-.75 2.38-.01 2.43.5 2.48.7 2.5.66 2.5.47 2.5.22 2.47-.06 2.44-.27 2.41-.41 2.39-.44 2.37-.35 2.36-.2 2.34-.04 2.32.09 2.29.13 2.26.12 2.23.09 2.19.11 2.18.16 2.16.25 2.15.33 2.13.39 2.12.42 2.11.43 2.1.51 2.08.66 2.05.83 1.95.86 1.79.75 1.69 1.57 2.04" filter="url(#a)"/><path d="m-55.92-29.2-1.39 2.96-1.7 2.7-2.83 2.48-3.92 2.32-4.46 2.28-4.09 2.32-3 2.38-1.8 2.43-.9 2.48-.46 2.5-.32 2.5-.29 2.5-.25 2.47-.18 2.44-.04 2.41.09 2.39.2 2.37.21 2.36.05 2.34-.25 2.32-.63 2.29-.99 2.26-1.18 2.23-1.14 2.19-.82 2.18-.33 2.16.14 2.15.44 2.13.54 2.12.48 2.11.42 2.1.37 2.08.21 2.05-.2 1.95-.71 1.79-.58 1.69 1.08 2.04" filter="url(#a)"/><path d="m-55.92-29.2-1.31 2.94-3.94 2.7-4.56 2.46-2.51 2.31-.15 2.27 1 2.3.89 2.36.11 2.42-.75 2.46-1.34 2.49-1.56 2.5L-71.55.5l-1.42 2.46-1.46 2.43-1.71 2.4-2.15 2.38-2.7 2.35-3.23 2.35-3.61 2.34-3.67 2.32-3.24 2.3-2.28 2.26-.99 2.21.17 2.17.67 2.14.37 2.16-.42 2.18-1.12 2.15-1.61 2.02-1.99 1.84-.15 2.04" filter="url(#a)"/><path d="m-57.09-24.93-.28.97-1.24 1.74-2.11 1.98-2.2 2.08-1.52 2.22-.68 2.35-.28 2.46-.52 2.51-1.22 2.51-2.06 2.48-2.68 2.44-2.84 2.41-2.51 2.39-1.85 2.42-1.17 2.44-.72 2.48-.66 2.49-.91 2.48-1.31 2.43-1.6 2.34-1.64 2.23-1.4 2.14-1.04 2.14-.87 2.25-1.08 2.42-1.44 2.52-1.27 2.3" filter="url(#a)"/><path d="m-56.56-25.95-.92 2.57-1.04 2.43-1.94 2.23-2.9 2.2-3.25 2.26-2.76 2.33-1.84 2.41-1.05 2.45-.74 2.48-.88 2.49-1.23 2.48-1.5 2.45-1.55 2.42-1.4 2.38-1.17 2.35-.98 2.33-.85 2.32-.81 2.33-.83 2.33-1.03 2.33-1.46 2.29-1.9 2.19-1.77 2.04-.71 2.1-.47 3.32" filter="url(#a)"/><path d="m-56.56-25.95-3.05 2.6-2.7 2.45-1.85 2.27-2.56 2.24-3.89 2.3-4.71 2.37-4.53 2.44-3.47 2.49-2 2.5-.69 2.51.16 2.5.48 2.47.44 2.44.28 2.41.14 2.39.1 2.37.1 2.35.08 2.34.03 2.32-.06 2.29-.12 2.26-.18 2.23-.24 2.19-.34 2.18-.49 2.16-.65 2.14-.77 2.14-.8 2.12-.76 2.1-.74 2.1-.84 2.06-1.06 2.03-1.17 1.93-.94 1.81-.43 1.69-.17 1.63.27 1.38m151.56-77.5 2.19 1.49 2.07 2.14 1.3 2.38.37 2.43-.32 2.41L62.9-8l-.49 2.41-.27 2.43-.04 2.45.13 2.45.2 2.45.23 2.46.21 2.45.18 2.44.13 2.42.09 2.39.06 2.35.05 2.33.05 2.29.08 2.28.1 2.24.11 2.23.06 2.22-.05 2.21-.21 2.23-.41 2.21-.59 2.19-.72 2.11-.81 1.99-.88 1.89-.97 1.81-1.15 1.81-1.35 1.86-1.43 1.88-1.26 1.85-1.13 1.71" filter="url(#a)"/><path d="m57.65-22.61 2.22 1.92 4.27 2.25 2.87 2.17 1.16 2.12.69 2.21L69.9-9.6l1.39 2.46 1.48 2.54 1.5 2.56 1.7 2.52 2.19 2.44 2.8 2.34 3.21 2.28 3.24 2.26 2.8 2.31 2.04 2.36 1.14 2.39.38 2.34.06 2.23.46 2.12 1.31 2.12 1.41 2.18.14 1.9" filter="url(#a)"/><path d="m57.1-24.71 1.74 2.65 1.1 2.18.27 2.24.1 2.36.26 2.4.43 2.4.5 2.4.49 2.41.45 2.43.41 2.44.39 2.45.38 2.45.36 2.45.29 2.46.16 2.44-.02 2.41-.25 2.39-.45 2.36-.6 2.32-.63 2.3-.58 2.27-.44 2.24-.29 2.23-.16 2.21-.11 2.21-.16 2.23-.3 2.24-.5 2.22-.69 2.14-.8 1.99-.86 1.83-.94 1.75-1.07 1.81-1.06 1.88-.81 1.39" filter="url(#a)"/><path d="m57.07-25.22 1.17 2.27 1.72 2.23 2.8 2.24 4.13 2.18 4.77 2.19 4.38 2.26 3.22 2.37L81.21-7l1.11 2.54.91 2.55L84.45.6l1.63 2.45 1.76 2.39 1.43 2.33.81 2.33.23 2.33.03 2.34.4 2.34 1.21 2.31 2.14 2.26 2.79 2.2 2.82 2.17 2.13 2.15 1.02 2.16.01 2.18-.32 2.21.14 2.25.7 2.31.23 2.37.45 2.23" filter="url(#a)"/><path d="m56.17-28.24.85 3.2.79 2.64.77 2.35.78 2.32.8 2.35.88 2.38 1.14 2.38 1.56 2.4 2.07 2.4 2.45 2.42 2.51 2.43 2.2 2.43 1.59 2.44.94 2.45.52 2.45.43 2.44.69 2.42 1.07 2.38 1.37 2.35 1.41 2.32L82.17 23l.82 2.27.47 2.25.28 2.2.28 2.16.41 2.15.54 2.22.63 2.33.9 2.45 1.4 2.52.37 2.75" filter="url(#a)"/><path d="m56.17-28.24 4.12 3.21 3.96 2.65 4.29 2.36 3.66 2.33 2.93 2.37 2.31 2.39 1.53 2.39.55 2.41-.51 2.41-1.38 2.43-1.88 2.44-1.94 2.45-1.61 2.45-1 2.46-.25 2.45.54 2.44 1.24 2.42 1.75 2.39 2.04 2.36 2.07 2.33 1.91 2.3 1.67 2.27 1.45 2.25 1.36 2.22 1.35 2.22 1.37 2.21 1.22 2.24.8 2.24.08 2.22-.8 2.13-1.59 2-1.95 1.84-1.62 1.75-.67 1.8.49 1.89 1.66 1.39" filter="url(#a)"/><path d="m56.21-28.53 9.1.63-1.43 2.14-1.74 2.4-.03 2.37 1.49 2.29 2.44 2.24 2.87 2.23 2.87 2.29 2.51 2.38 1.89 2.46 1.14 2.51.43 2.53-.09 2.51-.25 2.45-.04 2.4.44 2.35.99 2.33 1.36 2.34 1.4 2.34 1.15 2.35.74 2.32.37 2.26.18 2.2.22 2.17.41 2.14.63 2.16.66 2.18.25 2.2-.4 2.25-.5 2.34.59 2.64M55.25-31.69l.62 2.4.6 2.13.63 2.29.59 2.34.51 2.35.43 2.35.35 2.37.3 2.38.24 2.39.18 2.4.14 2.42.09 2.42.04 2.44-.01 2.44-.06 2.45-.1 2.46-.16 2.45-.21 2.44-.26 2.42-.32 2.4-.36 2.36-.41 2.32-.47 2.31-.52 2.27-.57 2.25-.63 2.22-.69 2.19-.78 2.2-.85 2.24-.94 2.3-.99 2.33-1 2.27-.94 2.02-.77 1.51-.51.76" filter="url(#a)"/><path d="m54.83-33.19 1.89 3.01 3.74 2.16 3.64 2.28 2.33 2.35 1.26 2.35.78 2.29.57 2.26.45 2.27.43 2.31.63 2.39 1.02 2.46 1.46 2.51 1.75 2.53 1.81 2.5 1.71 2.46 1.55 2.4 1.39 2.37 1.24 2.35 1.09 2.35.99 2.35.97 2.33 1.13 2.31 1.43 2.27 1.81 2.22 2.07 2.2 2.13 2.17 1.91 2.18 1.54 2.2 1.06 2.22.53 2.24-.14 2.26-.85 2.23-1.16 2.16-.45 2.05-.2 2.22" filter="url(#a)"/><path d="m54.64-33.21.92 1.85 1.58 2.04 1.62 2.14 1.16 2.26.59 2.32.21 2.33.11 2.35.25 2.36.46 2.38.63 2.38.64 2.4.51 2.41.32 2.42.12 2.43-.01 2.44-.02 2.44.03 2.45.1 2.45.15 2.45.11 2.42.02 2.39-.11 2.36-.24 2.33-.32 2.3-.34 2.28-.33 2.25-.29 2.2-.26 2.15-.3 2.14-.43 2.2-.66 2.35-.9 2.43-1.19 2.32" filter="url(#a)"/><path d="m54.05-34.5 3.72 2 .32 2.23.49 2.21 1.41 2.29 2.22 2.33 2.62 2.33 2.53 2.3 1.95 2.27 1.06 2.28.15 2.32-.47 2.39-.67 2.46-.51 2.5-.11 2.52.35 2.5.78 2.46L71 5.3l1.33 2.37 1.5 2.36 1.6 2.35 1.66 2.35 1.66 2.33 1.62 2.32 1.52 2.27 1.36 2.22 1.12 2.2.84 2.17.54 2.19.28 2.19.1 2.23-.04 2.25-.19 2.25-.51 2.24-1.13 2.15-1.85 2.06-1.34 2.22" filter="url(#a)"/><path d="m53-37.18 1.27 2.33 1.34 2.23 1.28 2.21 1.43 2.21 1.75 2.27 2.05 2.3 2.25 2.3 2.47 2.28 2.73 2.24 2.95 2.24 3.01 2.29 2.79 2.35 2.35 2.43L82.49-5l1.36 2.53L84.94.05l1 2.46 1.03 2.38 1.12 2.3 1.22 2.28 1.33 2.31 1.43 2.4 1.55 2.47 1.72 2.4 1.96 2.19 2.07 1.91 1.71 1.87" filter="url(#a)"/><path d="m52.82-38.37 6.61 1.85 5.39 2.38 1.97 2.34.94 2.25.8 2.23.62 2.26.26 2.3-.11 2.32-.26 2.34-.03 2.35.5 2.37 1.2 2.38 1.87 2.39 2.38 2.4 2.71 2.41 2.85 2.43 2.81 2.43 2.66 2.44 2.44 2.45 2.31 2.45 2.36 2.45 2.64 2.43 3.01 2.4 3.24 2.35 3.06 2.31 2.32 2.3 1.22 2.31.34 2.35.11 2.3-.16 2.03-2 1.93" filter="url(#a)"/><path d="m51.71-40.31 1.68 1.8 1.57 2.08 1.68 2.27 2.23 2.28 2.62 2.25 2.69 2.25 2.6 2.27 2.47 2.3 2.2 2.32 1.8 2.34 1.39 2.35 1.13 2.37 1.17 2.38 1.5 2.39 2.01 2.41 2.54 2.41 2.97 2.43 3.24 2.43 3.27 2.45 3.08 2.45 2.71 2.45 2.29 2.46 1.91 2.43 1.6 2.4 1.33 2.35 1.09 2.32 1.05 2.3 1.38 2.31 2.17 2.35 3.2 2.3 3.86 2.04 1.43 1.93M51.01-42.41l7.45 1.5 5.16 1.9.93 2-.35 2.06-.1 2.12.64 2.16 1.4 2.21 2.11 2.24 2.71 2.28 3.11 2.28 3.14 2.26 2.76 2.24 2.05 2.23 1.34 2.26.97 2.32 1.17 2.41 1.93 2.5 3.03 2.57 4.12 2.58 4.85 2.52 4.86 2.39 3.96 2.18 2.29 2 .2 1.94-1.2 2.27" filter="url(#a)"/><path d="m48.94-46.11 2.48 3.21 4.01 2.26 5.28 2.05 4.74 2.09 3.37 2.18 2.23 2.21 1.67 2.22 1.49 2.24 1.48 2.25 1.63 2.27 2.05 2.3 2.68 2.31 3.32 2.34 3.69 2.35 3.54 2.35 2.91 2.37 2.01 2.38 1.19 2.4.67 2.41.59 2.41.93 2.4 1.65 2.41 2.61 2.49 3.71 2.59 5.09 2.49 7.26 1.82" filter="url(#a)"/><path d="m48.72-46.76 4.8 3.19 4.66 2.31 1.83 2.08.08 2.04-.11 2.06.47 2.1 1.18 2.14 1.77 2.18 2.18 2.23 2.4 2.27 2.41 2.27 2.22 2.25 2 2.22 1.96 2.19 2.23 2.2 2.77 2.26 3.25 2.39 3.34 2.5 2.75 2.59 1.73 2.72.82 3-1.03 3.06" filter="url(#a)"/><path d="m47.81-48.07 6.14 2.41 5.28 2.53 1.72 2.27-.15 2.11-.52 2.12.09 2.16 1.14 2.19 2.18 2.21 2.85 2.22 2.98 2.24 2.68 2.26 2.19 2.27 1.85 2.31 1.83 2.32 2.08 2.33 2.37 2.34 2.49 2.34 2.32 2.36 1.88 2.4 1.5 2.48 1.7 2.44 3.05 2.08 5.01 1.16" filter="url(#a)"/><path d="m47.81-48.07 8.93 2.45 6.55 2.55 2.3 2.28 1.28 2.15 1.44 2.16 1.6 2.19 1.48 2.22 1.05 2.23.44 2.26-.11 2.27-.37 2.29-.24 2.32.29 2.33 1.06 2.35 1.98 2.37 2.88 2.37 3.7 2.39 4.31 2.4 4.65 2.42 4.64 2.42L100 .78l3.78 2.44 3.16 2.46 2.5 2.46 1.86 2.47 1.27 2.46.87 2.41.96 2.35 1.71 2.27 3.14 2.16 4.83 2.07 3.61 2.06m-80.16-74.9.48 2.29.65 2.51.24 2.3.27 2.15.53 2.09.7 2.09.7 2.12.58 2.16.45 2.2.35 2.24.32 2.27.26 2.28.14 2.26-.04 2.25-.21 2.23-.33 2.26-.33 2.32-.26 2.41-.21 2.5-.3 2.58-.54 2.61-.86 2.57-1.04 2.42-.89 2.17-.58 1.89-.38 1.49" filter="url(#a)"/><path d="m47.53-48.51 1.54 2.32 1.94 2.53 2.2 2.31 2.39 2.17 2.37 2.12 2.09 2.13 1.65 2.15 1.26 2.19 1.06 2.23 1.07 2.27 1.22 2.28 1.41 2.29 1.6 2.29 1.74 2.29 1.81 2.3 1.75 2.34 1.56 2.38 1.24 2.44.85 2.49.47 2.5.2 2.5.09 2.47.16 2.42.37 2.37.71 2.35 1.1 2.35 1.47 2.37 1.73 2.38 1.83 2.34 1.71 2.28 1.44 2.21 1.1 2.15.82 2.14.53 2.14.08 2.22-1.54 2.71" filter="url(#a)"/><path d="m47.17-49.14 2.36 1.51 2.11 2.18 1.37 2.33 1.29 2.25 1.35 2.19 1.38 2.19 1.5 2.2 1.89 2.23 2.55 2.25 3.3 2.26 3.91 2.28 4.24 2.31 4.24 2.32 3.95 2.35 3.43 2.36 2.78 2.37 2.14 2.39 1.59 2.4 1.22 2.41 1.04 2.43 1.05 2.43L97.07.95l1.48 2.45 1.83 2.46 2.18 2.46 2.46 2.46 2.62 2.44 2.56 2.4 2.27 2.37 1.71 2.34.99 2.31.35 2.32.12 2.3.54 2.24 1.43 2.04 1.9 1.76.77 1.46m-73.11-83.9.98 1.49 1.31 2.16 1.38 2.32 1.44 2.24 1.49 2.17 1.5 2.16 1.45 2.19 1.34 2.21 1.21 2.23 1.11 2.24 1.05 2.26 1 2.28.95 2.31.87 2.32.76 2.34.63 2.36.48 2.36.36 2.38.31 2.39.35 2.41.49 2.42.69 2.42.88 2.42.96 2.43.85 2.48.52 2.52.07 2.46-.33 2.25-.37 2.19" filter="url(#a)"/><path d="m46.81-49.74 1.26 1.54 1.48 2.13 1.54 2.31 2.21 2.25 3.55 2.17 4.95 2.13 5.66 2.11 5.28 2.14 3.99 2.17 2.41 2.21 1.27 2.25 1.02 2.27 1.81 2.28 3.34 2.27 4.99 2.26 6.06 2.26 6.06 2.28 4.93 2.34 3.12 2.43 1.38 2.5.48 2.55.74 2.57 1.83 2.51 2.99 2.39 3.49 2.24 3.13 2.12 2.24 2.17 1.24 2.5.92 3.25" filter="url(#a)"/><path d="m46.07-51.11 1.67 1.69 1.69 1.81 1.74 2.1 2.11 2.21 2.58 2.2 2.95 2.16 3.09 2.15 2.86 2.17 2.31 2.19 1.73 2.21L70.22-28l1.58 2.24 2.16 2.26 2.86 2.28 3.33 2.3 3.31 2.33 2.88 2.34 2.23 2.34 1.62 2.33 1.15 2.35.8 2.41.94 2.58L95.43.47l5.33 2.48M46.07-51.11l1.05 1.71 1.27 1.83 1.36 2.12 1.28 2.23 1.18 2.21 1.15 2.18 1.2 2.18 1.27 2.19 1.27 2.21 1.2 2.23 1.1 2.24.99 2.27.91 2.28.89 2.31.89 2.32.92 2.34.98 2.36 1.05 2.37 1.08 2.38 1.09 2.4 1.03 2.41.92 2.42.81 2.42.68 2.42.51 2.44.32 2.48.1 2.52-.03 2.46.04 2.26.5 2.19" filter="url(#a)"/><path d="m45.78-51.63 2.11 1.69L50-48.12l1.9 2.11 1.75 2.22 1.38 2.23 1.06 2.17.95 2.14 1.08 2.14 1.31 2.15 1.5 2.18 1.63 2.22 1.66 2.25 1.62 2.27 1.53 2.28 1.42 2.28 1.31 2.27 1.25 2.28 1.22 2.31 1.24 2.36 1.25 2.43 1.25 2.49 1.18 2.54 1.04 2.54.86 2.48.63 2.4.43 2.31.31 2.25.4 2.3.65 2.45.86 2.64.52 2.67-.62 2.41" filter="url(#a)"/><path d="m45.06-52.43 2.22 1.45 2.36 1.63 1.58 1.87 1.14 2.09 1.09 2.18 1.18 2.2 1.22 2.19 1.17 2.2 1.1 2.2 1.07 2.23 1.09 2.24 1.1 2.26 1.06 2.28.94 2.3.79 2.32.67 2.34.56 2.35.51 2.38.44 2.38.36 2.4.29 2.41.23 2.42.2 2.43.23 2.44.3 2.45.42 2.46.52 2.47.59 2.47.57 2.45.44 2.42.26 2.36.06 2.3-.09 2.26-.24 2.33-.38 2.67-.32 3.66" filter="url(#a)"/><path d="m44.03-54.05 1.67 2.11 1.78 1.86 1.61 1.91 1.43 2.08 1.36 2.17 1.4 2.19 1.49 2.15 1.51 2.13 1.43 2.12 1.31 2.13 1.23 2.16 1.26 2.19 1.39 2.23 1.53 2.27 1.58 2.27 1.53 2.27 1.37 2.24 1.19 2.21 1 2.23.87 2.28.8 2.39.8 2.51.83 2.61.72 2.73.45 3.02.49 3.08" filter="url(#a)"/><path d="m44.77-53.13.27.93.81 1.3.92 1.57.94 1.81.89 2.02.77 2.12.59 2.17.36 2.16.13 2.17-.08 2.19-.23 2.19-.3 2.22-.29 2.23-.27 2.25-.26 2.27-.29 2.29-.3 2.32-.27 2.33-.13 2.35.07 2.35.22 2.36.22 2.37.02 2.42-.23 2.49-.37 2.46-.37 2.1-.85 1.17" filter="url(#a)"/><path d="m43.34-54.96 1.21 1.35 1.4 1.72 1.28 1.84 1.24 1.95 1.2 2.09 1.17 2.16 1.13 2.18 1.06 2.17.99 2.16.93 2.15.88 2.17.88 2.19.88 2.22.9 2.25.9 2.27.88 2.29.81 2.28.72 2.28.63 2.29.56 2.32.53 2.38.55 2.43.59 2.49.6 2.53.56 2.53.43 2.48.25 2.41.04 2.33-.12 2.3-.16 2.32-.13 2.44-.07 2.54-.07 2.5-.17 2.2-.35 1.59" filter="url(#a)"/><path d="m40.55-58.4 1.78 2.14 1.58 1.96 1.4 1.66 1.42 1.56 1.41 1.63 1.35 1.79 1.25 1.94 1.18 2.06 1.19 2.12 1.21 2.14 1.21 2.14 1.16 2.16 1.1 2.17 1.05 2.19 1.07 2.2 1.13 2.23 1.17 2.24 1.11 2.26.91 2.24.68 2.24.72 2.37 1.19 2.58m-27.76-47.9 1.27 1.95 1.41 2.04 1.06 1.9.74 1.73.67 1.68.8 1.73 1.01 1.85 1.17 1.98 1.23 2.08 1.18 2.14 1.07 2.17.91 2.19.74 2.21.58 2.22.43 2.24.32 2.26.23 2.28.17 2.3.12 2.31.08 2.34.02 2.35-.04 2.37-.09 2.39-.16 2.39-.2 2.41-.25 2.43-.26 2.43-.29 2.44-.3 2.45-.32 2.46-.38 2.48-.47 2.5-.59 2.48-.65 2.45-.62 2.41-.53 2.33-.77 1.67" filter="url(#a)"/><path d="m39.06-60.28 2.39 1.95 3.75 2.04 3.35 1.9 2.62 1.73 2.26 1.68 2.18 1.73 2.16 1.85 2.05 1.98 1.85 2.08 1.61 2.14 1.3 2.17.97 2.19.66 2.21.42 2.22.35 2.24.46 2.26.78 2.28 1.19 2.3 1.61 2.31 1.9 2.34 2.01 2.35 1.93 2.37 1.74 2.39 1.5 2.39 1.31 2.41 1.18 2.43 1.12 2.43L84.84.53l1.21 2.45 1.35 2.46 1.56 2.48 1.77 2.5 1.91 2.48 1.95 2.45 1.97 2.41 2.16 2.33 2.52 1.67" filter="url(#a)"/><path d="m38.55-61.07 1.05 1.16 2.17 1.68 2.61 1.87 2.26 1.83 1.75 1.72 1.52 1.68 1.63 1.72 1.95 1.83 2.23 1.94 2.3 2.05 2.1 2.11 1.7 2.15 1.3 2.16 1.14 2.19 1.31 2.19 1.8 2.22 2.43 2.23 2.92 2.25 3.12 2.27 2.91 2.28 2.39 2.32 1.7 2.33 1.03 2.37.46 2.36.11 2.32.22 2.24 1.04 2.28 2.27 2.35" filter="url(#a)"/><path d="m38.55-61.07 1.11 1.16 1.47 1.68 1.41 1.87 1.29 1.83 1.21 1.72 1.2 1.68 1.25 1.72 1.36 1.83 1.45 1.94 1.5 2.05 1.48 2.11 1.38 2.15 1.27 2.16 1.18 2.19 1.14 2.19 1.14 2.22 1.18 2.23 1.19 2.25 1.15 2.27 1.06 2.28.97 2.32.93 2.33.96 2.37.96 2.36.81 2.32.53 2.24.43 2.28 1.04 2.35" filter="url(#a)"/><path d="m38.55-61.07 1.04 1.17 1.95 1.71L44-56.31l2.6 1.83 2.71 1.74 2.89 1.71 2.97 1.76 2.85 1.86 2.54 1.97 2.22 2.06 1.98 2.13 1.84 2.16 1.82 2.19 1.88 2.21 2.09 2.22 2.5 2.24 3.1 2.26 3.73 2.28 4.22 2.29 4.37 2.32 4.1 2.33 3.52 2.36 2.79 2.37 2.08 2.38 1.46 2.4.97 2.4.65 2.43.66 2.43 1.17 2.44 2.17 2.44 3.37 2.46 4.23 2.49 4.25 2.51 3.18 2.49 1.52 2.45.76 2.53 2.31 3.1" filter="url(#a)"/><path d="m36.96-62.55 3.41 1.9 5.41 1.87 4.4 1.73 2.54 1.64 1.17 1.62.52 1.67.48 1.76.87 1.87 1.48 1.98 2.07 2.07 2.58 2.12 2.99 2.13 3.33 2.11 3.52 2.1 3.42 2.09 3.01 2.11 2.52 2.14 2.44 2.19 3 2.28 3.97 2.38 4.56 2.56 3.47 3.36M36.15-63.62l1.4 1.97 1.14 1.67 1.36 1.76 1.34 1.82 1.16 1.8.98 1.73.84 1.71.75 1.74.66 1.84.58 1.95.54 2.04.51 2.11.5 2.14.46 2.17.39 2.19.31 2.2.25 2.22.28 2.24.35 2.26.46 2.27.52 2.3.48 2.31.38 2.34.23 2.36.04 2.37-.18 2.34-.39 2.32-.48 2.41-.44 2.66-.72 3.19" filter="url(#a)"/><path d="m35.44-64.47.92.77 3.43 1.39 5.76 1.66 6.16 1.74 4.69 1.72 2.7 1.68 1.3 1.68.87 1.72 1.13 1.79 1.66 1.88 2.16 1.99 2.58 2.07 2.92 2.11 3.22 2.13 3.43 2.13 3.53 2.13 3.62 2.13 3.84 2.14 4.27 2.18 4.69 2.23 4.75 2.28 4.19 2.31 3.35 2.33 3.03 2.29 3.73 2.21 4.63 2.04 3.64 1.14" filter="url(#a)"/><path d="m35.44-64.47 2.67.76 3.14 1.38 1.95 1.66.97 1.73.56 1.71.68 1.68 1.15 1.66 1.8 1.69 2.5 1.78 3.07 1.87 3.41 1.97 3.41 2.06 3.14 2.12 2.79 2.12 2.57 2.12 2.56 2.11 2.66 2.1 2.67 2.12 2.44 2.15 2.09 2.2 1.83 2.28 1.67 2.39 1.69 2.57 3.21 3.37" filter="url(#a)"/><path d="m34.14-65.17 1.81.97 2.36 1.22 2.35 1.44 2.24 1.61 2.16 1.72 1.91 1.77 1.49 1.77 1.12 1.75.95 1.76 1.04 1.79 1.34 1.87 1.73 1.96 2.08 2.04 2.36 2.1 2.48 2.15 2.43 2.18 2.23 2.2 1.92 2.22 1.57 2.23 1.27 2.26 1.08 2.27 1 2.3.98 2.31.99 2.33 1.01 2.36 1.08 2.36 1.26 2.38 1.56 2.4 1.93 2.4 2.22 2.43 2.3 2.44L88.55.25l1.85 2.41 1.48 2.42 1.06 2.54.42 2.79-.45 3.2m-62.6-82.06-.37 1.42.34 1.37 1.71 1.31 1.83 1.36 1.21 1.45.5 1.58-.02 1.67-.21 1.73-.15 1.74.06 1.74.33 1.75.6 1.79.82 1.86.89 1.93.76 2.03.42 2.08-.07 2.14-.58 2.17-1.04 2.18-1.36 2.21-1.55 2.23-1.67 2.24-1.7 2.26-1.63 2.28-1.4 2.3-1.01 2.32-.6 2.35-.31 2.37-.36 2.38-.79 2.33-1.46 2.26-2.3 2.28-2.96 2.37" filter="url(#a)"/><path d="m30.3-68.42 1.7.88 3.48 1.19 4.31 1.27 3.73 1.35 2.66 1.47 1.85 1.58 1.48 1.65 1.46 1.68 1.55 1.69 1.63 1.7 1.66 1.73 1.73 1.8 1.87 1.89 2.1 1.97 2.46 2.05 2.91 2.11 3.48 2.12 4.1 2.14 4.69 2.13 5.11 2.13 5.14 2.15 4.7 2.18 3.9 2.23 3.06 2.28 2.6 2.34 2.77 2.35 3.56 2.32 4.58 2.36 4.89 3.23" filter="url(#a)"/><path d="m30.3-68.42 2 .89 1.49 1.19 1.95 1.28 2.97 1.36 3.91 1.48 4.24 1.59 3.86 1.66 3.08 1.68 2.23 1.7 1.58 1.71 1.2 1.75 1.13 1.82 1.31 1.91 1.65 1.98 2.08 2.06 2.51 2.1 2.83 2.13 3.03 2.15 3.01 2.14 2.78 2.16 2.3 2.17 1.64 2.21.96 2.24.46 2.27.35 2.3.68 2.29 1.31 2.26 1.92 2.2 2.25 2.17 2.43 2.23 2.83 2.47 3.48 2.84 3.32 2.4" filter="url(#a)"/><path d="m27.15-70.82 3.13 1.32 3.16 1.2 2.25 1.25 1.75 1.27 1.84 1.3 2.17 1.35 2.41 1.44 2.54 1.53 2.6 1.64 2.57 1.69 2.42 1.72 2.16 1.71 1.94 1.7L60-49.97l2.23 1.78 2.85 1.89 3.55 2.01 4.08 2.08 4.2 2.12 3.84 2.13 3.12 2.17 2.38 2.23 2.06 2.23 2.22 1.99.69 1.1" filter="url(#a)"/><path d="m26.14-71.71 2.58 1.72 2.59 1.26 2.1 1.17 1.71 1.19 1.75 1.26 2.06 1.36 2.39 1.45 2.5 1.56 2.41 1.62 2.17 1.66 1.93 1.68 1.75 1.7 1.62 1.73 1.53 1.8 1.5 1.87 1.57 1.97 1.77 2.04 2.05 2.11 2.33 2.12 2.48 2.14 2.44 2.12 2.24 2.13 1.94 2.13 1.6 2.17 1.33 2.21 1.27 2.29 1.52 2.4 1.76 2.59 1.43 3.39" filter="url(#a)"/><path d="m25.09-72.24 1.99 1.36 2.17 1.28 2.4 1.24 2.64 1.25 2.98 1.28 3.3 1.29 3.35 1.35 3.16 1.43 2.98 1.52 3.06 1.62 3.36 1.69 3.67 1.72 3.75 1.7 3.6 1.69 3.43 1.7 3.49 1.76 3.86 1.88 4.39 2.01 4.74 2.09 4.57 2.11 3.8 2.09 2.93 2.13 2.93 2.28 4.12 2.08" filter="url(#a)"/><path d="m22.96-73.36 2.45 1.18 2.9 1.27 2.52 1.27 2.28 1.25 2.49 1.27 2.81 1.28 2.96 1.31 2.91 1.36 2.86 1.44 2.91 1.54 3.03 1.62 3.04 1.68 2.82 1.71 2.42 1.71 1.96 1.71 1.66 1.74 1.58 1.79 1.63 1.9 1.76 1.99 1.92 2.09 2.2 2.12 2.63 2.14 3.04 2.18 3.16 2.23 2.96 2.24 3.06 1.99 4.15 1.11" filter="url(#a)"/><path d="m22.96-73.36 2.19 1.18 2.12 1.27 1.95 1.25 1.81 1.26 1.7 1.26 1.62 1.27 1.59 1.3 1.61 1.36 1.71 1.43 1.87 1.52 1.99 1.62 2.05 1.68 1.98 1.71 1.81 1.71 1.59 1.69 1.4 1.71 1.29 1.76 1.26 1.88 1.34 2.01 1.51 2.09 1.73 2.12 1.93 2.09 2.03 2.13 1.87 2.29.97 2.08" filter="url(#a)"/><path d="m22.59-73.46 1.05.48 2.23.96 3.11 1.17 3.3 1.23 2.86 1.26 2.16 1.28 1.57 1.3 1.28 1.34 1.31 1.4 1.56 1.47 1.95 1.56 2.4 1.63 2.84 1.68 3.18 1.71 3.37 1.74 3.33 1.77 3.11 1.8 2.75 1.87 2.38 1.93 2.08 2.01 1.93 2.08 1.86 2.13 1.88 2.16 1.9 2.19 1.95 2.22 2.06 2.22 2.28 2.25 2.56 2.26 2.86 2.29 3.05 2.3 3.02 2.33 2.76 2.36 2.3 2.39 1.64 2.41 1.12 2.33 1.77 2.18 4.68 2.55M18.96-75.29l2.27 1.14 1.46.9 1.14.95.98 1.07 1.01 1.15 1.17 1.18 1.29 1.21 1.29 1.24 1.11 1.3.81 1.36.46 1.45.13 1.53-.09 1.6-.21 1.64-.2 1.68-.11 1.7v1.75l.11 1.8.18 1.88.21 1.97.21 2.04.19 2.1.17 2.12.15 2.14.1 2.14.03 2.13-.1 2.15-.29 2.17-.49 2.22-.66 2.3-.85 2.41-1.28 2.6-2.01 3.4" filter="url(#a)"/><path d="m18.96-75.29 2.43 1.14 2.11.9 2.21.96 2.22 1.07 2.06 1.15 1.84 1.19 1.66 1.21 1.55 1.24 1.51 1.3 1.58 1.38 1.73 1.45 1.95 1.54 2.14 1.59 2.26 1.65 2.24 1.68 2.1 1.71 1.89 1.76 1.67 1.82 1.54 1.89 1.53 1.96 1.62 2.04 1.77 2.1 1.91 2.12 1.99 2.14 1.97 2.15L68.3-34l1.72 2.16 1.61 2.19 1.53 2.24 1.49 2.29 1.42 2.35 1.27 2.36 1.19 2.34 1.45 2.38 2.23 3.24" filter="url(#a)"/><path d="m18.38-75.63 2.22.91 1.62.86 1.58.9 1.69 1 1.81 1.11 1.92 1.18 2.03 1.23 2.14 1.26 2.2 1.3 2.2 1.33 2.14 1.39 2.02 1.46 1.82 1.54 1.6 1.61 1.41 1.67 1.28 1.7 1.29 1.73 1.42 1.74 1.69 1.77 2.01 1.84 2.33 1.91 2.57 2L62-42.12l2.49 2.13 2.14 2.16 1.67 2.18 1.18 2.2.82 2.22.78 2.21 1.11 2.25 1.65 2.36 1.92 2.39 1.42 1.76" filter="url(#a)"/><path d="m18.38-75.63 2.44.9 2.97.85 2.39.86 1.77.98 1.54 1.08 1.67 1.16 2.01 1.21 2.44 1.24 2.88 1.26 3.22 1.28 3.42 1.33 3.52 1.39 3.55 1.49 3.5 1.59 3.35 1.69 3.04 1.74 2.67 1.72 2.44 1.63 2.58 1.54 3.2 1.46 3.78 1.48 1.89 1.64" filter="url(#a)"/><path d="m17.37-76.1 2.57.94 4.2.96 4.24.92 3.43.99 2.58 1.07 2.02 1.13 1.81 1.18 1.89 1.2 2.17 1.25 2.49 1.29 2.71 1.37 2.79 1.45 2.7 1.53 2.49 1.59 2.17 1.64 1.91 1.67 1.77 1.71 1.89 1.75 2.31 1.81 2.95 1.88 3.69 1.96 4.34 2.04 4.76 2.1 4.86 2.13 4.68 2.13 4.33 2.14 3.9 2.14 3.36 2.15 2.71 2.17 2.02 2.23 1.72 2.3 2.32 2.41 3.5 2.6 3.34 3.4" filter="url(#a)"/><path d="m17.37-76.1 1.93.93 2.17.95 2.4.91 2.79.97 2.96 1.05 2.78 1.12 2.46 1.16 2.27 1.18 2.28 1.22 2.4 1.26 2.58 1.32 2.78 1.42 2.97 1.51 3.13 1.58 3.25 1.63 3.35 1.65 3.53 1.65 3.8 1.67 4.07 1.7 4.09 1.78 3.6 1.91 2.72 2.09 1.85 2.26 1.76 2.32 4.26 2.43" filter="url(#a)"/><path d="m15.08-77.07 2.84.93 3.11.96 2.55.94 1.94.95 1.62 1 1.58 1.07 1.71 1.13 1.87 1.17 1.99 1.21 2.04 1.25 2.03 1.3 2.02 1.37 2.01 1.45 2.04 1.53 2.07 1.59 2.11 1.64 2.13 1.67 2.1 1.71 2.02 1.76 1.92 1.81 1.82 1.89 1.72 1.96 1.64 2.04 1.6 2.1 1.57 2.12 1.55 2.14 1.57 2.15 1.61 2.14 1.72 2.16 1.87 2.19 2.05 2.23 2.17 2.3 2.1 2.37 1.72 2.38 1.08 2.18.39 1.11" filter="url(#a)"/><path d="m14.72-76.97 1.97.54 2.6.77 2.56.84 2.33.86 2.08.91 1.99.98L30.26-71l2.09 1.14 2.08 1.2 1.99 1.23 1.81 1.25 1.63 1.29 1.51 1.32 1.49 1.39 1.61 1.47 1.82 1.59 2.06 1.69 2.31 1.76 2.51 1.75 2.64 1.64 2.62 1.52 2.29 1.43 1.38 1.26" filter="url(#a)"/><path d="m14.51-77 .22.19.98.49 1.62.7 1.77.79 1.68.85 1.55.91 1.5.98 1.51 1.06 1.53 1.13 1.5 1.19 1.41 1.22 1.27 1.26 1.12 1.27.99 1.32.92 1.38.86 1.46.79 1.58.7 1.71.61 1.79.54 1.77.46 1.65.32 1.51.31 1.65" filter="url(#a)"/><path d="m12.09-77.86 2.4.5 2.32.58 2.34.73 2.39.84 2.59.89 2.83.93 2.93.98 2.88 1.04 2.74 1.09 2.6 1.14 2.53 1.17 2.49 1.21 2.49 1.25 2.59 1.31 2.8 1.4 3.21 1.49 3.75 1.58 4.25 1.63 4.54 1.66 4.42 1.64 3.96 1.63 3.32 1.63 3.01 1.63 3.76 1.58 6.92 1.57" filter="url(#a)"/><path d="m12.09-77.86 1.89.51 1.86.59 2.09.75 2.13.84 2.01.9 1.91.95 1.94 1 2.07 1.06 2.25 1.11 2.39 1.16 2.46 1.2 2.49 1.24 2.53 1.29 2.58 1.37 2.64 1.44L48-60.94l2.58 1.58 2.4 1.62 2.12 1.67 1.86 1.69 1.69 1.74 1.67 1.79 1.8 1.87 2.02 1.95 2.3 2.04 2.58 2.11 2.91 2.14 3.31 2.15 3.71 2.12 3.91 2.13 3.61 2.13 2.71 2.08L91-28.08l2.71 2.86" filter="url(#a)"/><path d="m9.8-78.21 1.68.44 1.78.47 1.66.49 1.69.59 1.76.69 1.81.79 1.82.85 1.83.94 1.82 1 1.81 1.09 1.78 1.14 1.73 1.2 1.69 1.25 1.64 1.29 1.6 1.34 1.57 1.39 1.55 1.46 1.54 1.53 1.53 1.6 1.5 1.66 1.48 1.69 1.44 1.72 1.41 1.74 1.4 1.78 1.4 1.84 1.43 1.91 1.46 2 1.44 2.07 1.38 2.13 1.27 2.16 1.16 2.2 1.05 2.21 1.01 2.21 1.01 2.2 1.08 2.23 1.15 2.52 1.08 3.14" filter="url(#a)"/><path d="m7.79-78.56 2.15.36 2.24.43 1.97.45 1.73.5 1.72.58 1.83.67 1.89.76 1.9.84 1.92.9 2.02.99 2.13 1.06 2.25 1.12 2.28 1.18 2.22 1.23 2.11 1.26 2.02 1.29 1.96 1.35 1.98 1.4 2.01 1.49 2.06 1.59 2.1 1.68 2.14 1.74 2.2 1.73 2.24 1.66 2.19 1.56 2 1.48 1.84 1.49 1.86 1.66" filter="url(#a)"/><path d="m7.07-78.82 1.23.15 1.81.34 1.98.46 2.03.54 2.14.64 2.34.72 2.57.81 2.76.87 2.87.93 2.97 1 3.06 1.04 3.15 1.1 3.16 1.15 3.04 1.19 2.77 1.23 2.44 1.29 2.18 1.35 2.1 1.43 2.26 1.5 2.6 1.57 2.98 1.62 3.3 1.66 3.48 1.68 3.5 1.71 3.42 1.77 3.3 1.84 3.13 1.95 2.94 2.06 2.77 2.14 2.72 2.17 2.89 2.13 3.15 2.03 3.05 1.92 3.35 1.64" filter="url(#a)"/><path d="m7.07-78.82 1.16.15 1.71.34 1.93.46 1.96.54 1.93.64 1.9.72 1.87.81 1.86.87 1.82.93 1.78 1 1.73 1.04 1.71 1.1 1.69 1.15 1.68 1.19 1.7 1.23 1.73 1.29 1.78 1.35 1.83 1.43 1.86 1.5 1.87 1.57 1.83 1.62 1.74 1.66 1.6 1.68 1.47 1.71 1.37 1.77 1.33 1.84 1.34 1.95 1.4 2.06 1.44 2.14 1.45 2.17 1.41 2.13 1.37 2.03 1.38 1.92 1.31 1.64M5.87-78.89l-2.66-.33-2.22-.07-1.95.03-1.88.1-1.9.17-1.93.24-1.94.3-1.98.37-2.04.44-2.11.52-2.18.58-2.21.66-2.23.7-2.27.76-2.37.81-2.5.87-2.65.96-2.75 1.05-2.73 1.15-2.6 1.23-2.38 1.29-2.24 1.36-2.3 1.45-2.57 1.53-2.82 1.47-2.52.97" filter="url(#a)"/><path d="m5.87-78.89-2.26-.33-2.42-.07-2.39.04-2.37.1-2.32.18-2.2.25-2.09.31-2.09.39-2.21.45-2.38.53-2.54.61-2.58.66-2.53.73-2.45.79-2.39.84-2.44.92-2.55 1-2.72 1.09-2.87 1.17-3.01 1.24-3.17 1.32-3.4 1.37-3.76 1.41-4.23 1.46-4.73 1.5-5.1 1.53-5.21 1.58-4.92 1.6-4.28 1.62-3.49 1.58-2.91 1.52-2.93 1.54-3.87 1.71-6.2 1.97" filter="url(#a)"/><path d="m2.87-79.5-2.14.14-1.64.07-1.54.11-1.62.19-1.71.25-1.74.32-1.7.38-1.6.46-1.46.54-1.26.6-1.07.67-.92.73-.86.79-.91.85-1.03.92-1.15 1-1.24 1.08-1.2 1.18-1.07 1.24-.84 1.32-.61 1.37-.41 1.42-.27 1.45-.18 1.5-.08 1.53.04 1.58.17 1.6.26 1.62.23 1.57.04 1.53-.04 1.53.57 1.71 2.27 1.97" filter="url(#a)"/><path d="m2.87-79.5-2.12.13-1.71.08-1.66.1-1.73.18-1.83.24-1.88.3-1.9.37-1.91.43-1.9.51-1.91.59-1.92.65-1.91.71-1.88.75-1.85.79-1.81.85-1.81.94-1.84 1.04-1.89 1.15-1.93 1.22-1.95 1.26-2.01 1.29-2.08 1.41-2.2 1.89" filter="url(#a)"/></g><g fill="none" stroke="#000"><circle cx="8.02" cy="10.508" r="2.224" filter="url(#a)"/><circle cx="5.996" cy="10.452" r="2.586" filter="url(#a)"/><circle cx="5.44" cy="6.864" r="1.192" filter="url(#a)"/><circle cx="6.004" cy="8.72" r="1.864" filter="url(#a)"/><circle cx="7.792" cy="9.236" r="2.696" filter="url(#a)"/><circle cx="8.048" cy="9" r="2.986" filter="url(#a)"/><circle cx="6.384" cy="9.436" r="2.588" filter="url(#a)"/><circle cx="7.688" cy="8.544" r="1.632" filter="url(#a)"/><circle cx="6.16" cy="6.72" r="2.466" filter="url(#a)"/><circle cx="8.72" cy="7.284" r="2.894" filter="url(#a)"/><circle cx="-7.346" cy="14.538" r="1.094" filter="url(#a)"/><circle cx="-10.378" cy="16.67" r="2.018" filter="url(#a)"/><circle cx="-8.674" cy="16.738" r="2.268" filter="url(#a)"/><circle cx="-10.21" cy="16.066" r="2" filter="url(#a)"/><circle cx="-9.278" cy="14.354" r="1.136" filter="url(#a)"/><circle cx="-8.33" cy="16.286" r="2.484" filter="url(#a)"/><circle cx="-9.982" cy="17.134" r="2.442" filter="url(#a)"/><circle cx="-9.47" cy="15.338" r="1.666" filter="url(#a)"/><circle cx="-10.046" cy="17.154" r="1.88" filter="url(#a)"/><circle cx="-9.11" cy="15.542" r="1.594" filter="url(#a)"/></g><path fill="#D77F8C" stroke="#000" stroke-linejoin="round" stroke-width="3" d="m-16.55 42.01.27.19.27.2.28.23.3.24.3.26.3.27.32.29.32.31.33.32.34.33.34.34.35.36.35.36.37.38.37.38.37.4.38.39.39.41.39.41.39.42.4.42.41.42.41.43.41.43.42.43.42.42.43.43.43.43.43.42.44.42.43.42.45.41.44.4.45.4.44.4.45.38.46.37.45.37.45.35.46.35.46.33.45.32.46.3.46.29.46.28.46.25.46.25.46.22.45.2.46.19.46.16.45.15.45.12.46.1.44.08.45.05.45.02.44.01.44-.03.44-.05.44-.09.43-.11.43-.14.42-.17.42-.2.42-.24.41-.27.41-.3.41-.33.4-.38.39-.41.39-.44.39-.49.37-.52.38-.56.36-.61.37-.64.35-.69.35-.73.34-.77.34-.82.32-.86.33-.91.31-.96.3-1 .3-1.06.29-1.1.28-1.15.28-1.2.26-1.26.26-1.3.24-1.37.24-1.41.23-1.47.22-1.53.21-1.58.2-1.64.18-1.7.18-1.75.17-1.82-.17 1.82-.18 1.75-.18 1.7-.2 1.64-.21 1.58-.22 1.53-.23 1.47-.24 1.41-.24 1.37-.26 1.3-.26 1.26-.28 1.2-.28 1.15-.29 1.1-.3 1.06-.3 1-.31.96-.33.91-.32.86-.34.82-.34.77-.35.73-.35.69-.37.64-.36.61-.38.56-.37.52-.39.49-.39.44-.39.41-.4.38-.41.33-.41.3-.41.27-.42.24-.42.2-.42.17-.43.14-.43.11-.44.09-.44.05-.44.03-.44-.01-.45-.02-.45-.05-.44-.08-.46-.1-.45-.12-.45-.15-.46-.16-.46-.19-.45-.2-.46-.22-.46-.25-.46-.25-.46-.28-.46-.29-.46-.3-.45-.32-.46-.33-.46-.35-.45-.35-.45-.37-.46-.37-.45-.38-.44-.4-.45-.4-.44-.4-.45-.41-.43-.42-.44-.42-.43-.42-.43-.43-.43-.43-.42-.42-.42-.43-.41-.43-.41-.43-.41-.42-.4-.42-.39-.42-.39-.41-.39-.41-.38-.39-.37-.4-.37-.38-.37-.38-.35-.36-.35-.36-.34-.34-.34-.33-.33-.32-.32-.31-.32-.29-.3-.27-.3-.26-.3-.24-.28-.23-.27-.2" filter="url(#a)"/></svg>