<svg xmlns="http://www.w3.org/2000/svg" width="500" height="500" viewBox="-100 -100 200 200"><defs><clipPath id="c"><path d="m25.18 4.35-.05-.53-.08-.55-.12-.57-.15-.57-.18-.59-.22-.59-.24-.59-.28-.59-.3-.59-.33-.58-.36-.58-.39-.56-.41-.55-.44-.54-.46-.52-.49-.83-.51-.8-.55-.76-.58-.71-.61-.67-.64-.62-.67-.57-.7-.52-.72-.46-.75-.42-.78-.36-.79-.31-.82-.26-.85-.21-.86-.15-.87-.11-.9-.05-.91-.01-.92.04-.93.09-.94.13-.95.17-.96.21-.96.25-.97.29-.96.32-.96.35-.97.38-.95.41-.96.44-.94.46-.94.47-.92.5-.92.51-.9.53-.89.54-.87.54-.85.56-.83.56-.82.56-.79.57-.78.57-.75.56-.72.56-.71.56-.68.55-.65.55-.63.53-.6.53-.58.52-.55.51-.53.5-.5.49-.48.49-.45.47-.43.47-.41.45-.38.44-.35.44-.33.42-.3.41-.28.4-.25.38-.23.38-1.95 3.72.32.09.35.08.36.07.38.07.41.06.42.05.44.04.46.03.48.03.49.02.52.01h1.07l.57-.01.58-.02.6-.02.62-.03.63-.04.66-.04.67-.05.69-.05.7-.06.72-.06.73-.06.75-.07.75-.08.77-.07.78-.08.79-.08.79-.08.8-.08.81-.08.82-.08.82-.08.83-.07.83-.08.83-.07.83-.07.84-.06.83-.06.83-.05.84-.05.83-.05.83-.03.82-.04.82-.02.82-.02.81-.02h2.4l.79.01.78.02.77.02.77.02.75.03.75.03.73.04.73.03.71.04.71.03.69.03.68.03.66.02.57-.07.55-.08.54-.09.52-.11.51-.13.49-.14.47-.17.46-.19.43-.21.42-.23.39-.27.37-.29.35-.33.32-.36.3-.4"/></clipPath><clipPath id="b"><path d="m-20.91 3.26.11-.64.14-.67.17-.7.19-.72.21-.73.25-.73.26-.74.29-.74.32-.74.33-.72.36-.72.37-.69.4-.68.42-.66.43-.64.49-1.1.5-1.04.53-.98.55-.92.57-.84.59-.77.62-.7.63-.62.65-.55.67-.46.68-.4.71-.31.72-.24.74-.17.75-.09.77-.02.79.05.8.11.81.18.82.24.83.3.84.35.85.4.86.46.86.5.87.54.87.59.88.61.87.65.88.68.87.71.87.73.87.74.86.76.85.78.85.78.83.8.83.79.81.8.8.79.78.8.77.79.75.78.73.77.71.76.69.75.67.73.64.72.63.71.6.69.57.68.56.66.53.65.51.63.49.62.47.6.44.59.42.57.39.56.37.53.35.52.31.51.3.48.27.47 1.06 4.61-.41.06-.42.05-.46.03-.47.03-.5.02-.51.01h-.54l-.57-.01-.58-.01-.6-.03-.62-.04-.64-.04-.66-.05-.67-.06-.7-.07-.72-.08-.73-.08-.76-.09-.78-.1-.79-.11-.81-.11-.82-.12-.84-.12-.85-.13-.86-.14-.87-.14-.88-.14-.89-.14-.89-.15-.9-.14-.9-.15-.9-.15-.9-.15-.89-.14-.9-.14-.89-.14-.89-.14-.88-.13-.87-.13-.86-.12-.86-.12-.84-.11-.83-.1-.81-.1-.81-.09-.78-.09-.77-.07-.76-.07-.74-.07-.71-.05-.7-.05-.69-.05-.66-.04-.64-.04-.62-.03-.6-.03-.58-.04-.56-.03-.53-.03-.52-.04-.49-.05-.47-.06-.45-.07-.43-.08-.38-.23-.36-.25-.34-.28-.32-.32-.31-.34-.27-.39-.26-.42-.23-.47-.21-.52-.18-.57-.16-.62-.13-.68-.11-.74-.07-.81-.05-.88"/></clipPath><filter id="a"><feTurbulence baseFrequency=".05" numOctaves="3" result="noise" type="noise"/><feDisplacementMap in="SourceGraphic" in2="noise" scale="2"/></filter></defs><rect width="100%" height="100%" x="-100" y="-100" fill="#FFFDD0"/><path fill="#D2691E" stroke="#000" stroke-linejoin="round" stroke-width="1.667" d="m75.93 1.57.28-.77-.39 2.89.3-1.01-.16 2.84-.13 1.74.19-.87-.76 5.01.21.95-.31 1.65-.03-.98-.16 3-.28.9-.67 2.67.12-.09-.47 2.84.09.04-.25-.16.05.84-1.1 3.59-.03-.2-.43 2.37-.84 2.15-.75 1.71-.03.17-.71 2.47.34-.6-.73 1.64-.2.82-.32.88-1.52 2.89-.49 1.23.4-.8-1.7 3.06-.76 1.47.52-.8-.17.65-1.44 2.17-.91 1.6.54-.74-1.54 2.58-1.19 1.74-.65 1.09.03.09-.61.51-.98 1.4-1.32 1.84.17-.25-1.9 2.74-1.01.99.78-.7-3.09 3.03-.03.13-.76.49-.85 1.14-1.8 2.07 1.09-1.24L47.99 68l-.81.84-2.9 2.15-.15.23 1.21-1.05-2.67 2.46-.27.13-3.5 2.77 1-.83-.91.58-1.57 1.05.23-.18L35 77.7l-.87.64.08-.12-2.01 1.17.26.03-3.17 1.31-.51.28-1.37.74.73-.44-1.73.7-2.33 1.1-.65.42.3-.47-3.17 1.11 1.13-.34-3.05 1.27-1.63.43 1.43-.38-2.64.65-1.17.14-.43.11-1.59.15-2.86.82-.3-.14-.5.16-1.06-.05-1.99.14-1.63.46-.39.07-2.27.08-.37-.26-1.23-.07-3.23-.11.19.12-1.27.2-.83-.1-2.1-.23 1.45.04-2.31-.15.16-.23-1.88-.03-3.08-.54-.46-.15.64-.08-3.88-.71h-.42l-2.1-.89 1.84.7-4.25-1.25.3.03-2.9-.88-.26-.37-.96-.1-.06.05-1.5-.97-1.66-.67-.14-.19-1.62-.88-1.42-.66-.25-.12-2.53-1.36.68.47-2.69-1.78-.56.07-1.55-1.11 1.24.66-3.02-2.18.18.14-.34-.24-1.36-.91-1.31-.97-1.88-1.58.26.18-.76-.69-2.24-1.95-.81-.89-.48-.57-1.66-1.12-1.57-2.3-.46-.09-.46-.85.74 1.13-3.24-4-.48-.32-1.31-1.73.59.44-1.32-1.6-.05-.31-.75-1-.82-.88-1.72-2.58.58.97-1.33-2.74-1.03-1.05-.18-.92-.4-.72-.04.06-1.96-3.61.07-.07-.91-1.65h-.09l-.54-1.37-.37-.35-.34-1.2-1.55-4.09-.1.42-.34-1.75-.57-1.88-.35-.99-.73-1.78-.36-2.06-.34-.13-.29-1.94.14.29-.17.17-.77-3.72-.22-.47-.28-1.46-.51-3.13-.3-.57-.26-1.58.14-.41.06-.35-.4-3.21.2.84-.61-4.02.06-.82-.06.88.1-2.55-.13-.79-.27-1.1.16-4.07.13-1.32-.02.37.17-2.26-.21-.11.27-2.54-.23-.05.28-2.29-.01-.62.02.01.35-2.68.52-3.13.21-1.64-.12-.11-.02.81 1.1-5.06-.3 1.16.84-3.34-.02.75-.12.13 1.21-4.76.03-.22.1-.66 1.4-3.57-.52.81.14.07.33-1.39 1.15-2.24.5-2.25.51-.15.06-.43 1.33-3.23.07.1.93-2.43.43-.3.79-1.52.39-1.01 1.57-2.35.19-.26.31-1.01-.08-.09 1.27-1.91.87-.98.52-.76-.33.2 1.73-2.3 1.26-1.87 1.09-1.14 1.23-1.3-.24-.21 1.62-1.63-.55.35 1.08-.9 2.41-2.6.04-.04 1.49-1.42.54-.63.16-.37.94-.87 1.07-.9.74-.43 3.01-2.42-.59.29 1.4-.91 1.65-1.2v.08l.75-.67 1.86-1.13.14-.5 3.1-1.74-1.31.79 1.8-.92 1.69-.97.99-.63 1.04-.53-1.13.55 2.85-1.3 3.11-1.15.01-.03.93-.64 1.69-.44-1.1.31 3.41-1-.19-.25.44.04 2.37-.78.48.14 1.16-.59 1.43-.26 2.28-.35-.07-.21 2.58-.3-.81.29 2.02-.34 1.4-.23 2.34-.29.49.04 1.25-.19.77.27 1.34-.17.46-.03.37.09 3.03-.2-.86.26 3.2.04.47.17 2.16.09.1-.02 1.43.17.03.15 3.35.61.76.21.67-.04 1.54.58-.29-.39 1.53.46.87.14 1.78.81 1.16.42 2.73.54-.18.2 1.4.39-.06.19 1.32.34 2.2.94.97.36-.32.21 1.38.56-.03-.2 2.74 1.85-.13-.33 4.43 2.61.52.3-.96-.55.15.2 2.97 1.78.4.7-.67-.86 3.04 2.36 1.92 1.62.11.21 1.05 1.03 1.53 1.04.27.58 1.21.79.99 1.04v.31l1.53 1.33.79.99 1.76 1.82-.58-.67 1.17 1.1.49.88.83 1.11 1.44 1.56.27.64 1.29 1.54.09-.13.89 2.1.67.74.02-.03 2.34 3.81-.75-1.29.35.52 1 1.74.67 1.24 1.14 1.65 1.17 2.64.36.27.85 2.57-.24-.6 1.15 2.32.65 2.41-.23-1.19 1.02 2.32-.13.23 1.28 2.98-.71-1.49.62 1.45.68 2.56.12.74 1 3.02.55 1.78-.08.14.34.94-.06.46.61 3.17.12.19.08.31.31 3.29.14-1.05.31 4.82.01-.06.15 1.2.07 1.02.44 1.75.03.45-.26 1.1.19 2.32.31 1.73-.31 2.86.28-.77" filter="url(#a)"/><path fill="#fff" d="m-20.91 3.26.11-.64.14-.67.17-.7.19-.72.21-.73.25-.73.26-.74.29-.74.32-.74.33-.72.36-.72.37-.69.4-.68.42-.66.43-.64.49-1.1.5-1.04.53-.98.55-.92.57-.84.59-.77.62-.7.63-.62.65-.55.67-.46.68-.4.71-.31.72-.24.74-.17.75-.09.77-.02.79.05.8.11.81.18.82.24.83.3.84.35.85.4.86.46.86.5.87.54.87.59.88.61.87.65.88.68.87.71.87.73.87.74.86.76.85.78.85.78.83.8.83.79.81.8.8.79.78.8.77.79.75.78.73.77.71.76.69.75.67.73.64.72.63.71.6.69.57.68.56.66.53.65.51.63.49.62.47.6.44.59.42.57.39.56.37.53.35.52.31.51.3.48.27.47 1.06 4.61-.41.06-.42.05-.46.03-.47.03-.5.02-.51.01h-.54l-.57-.01-.58-.01-.6-.03-.62-.04-.64-.04-.66-.05-.67-.06-.7-.07-.72-.08-.73-.08-.76-.09-.78-.1-.79-.11-.81-.11-.82-.12-.84-.12-.85-.13-.86-.14-.87-.14-.88-.14-.89-.14-.89-.15-.9-.14-.9-.15-.9-.15-.9-.15-.89-.14-.9-.14-.89-.14-.89-.14-.88-.13-.87-.13-.86-.12-.86-.12-.84-.11-.83-.1-.81-.1-.81-.09-.78-.09-.77-.07-.76-.07-.74-.07-.71-.05-.7-.05-.69-.05-.66-.04-.64-.04-.62-.03-.6-.03-.58-.04-.56-.03-.53-.03-.52-.04-.49-.05-.47-.06-.45-.07-.43-.08-.38-.23-.36-.25-.34-.28-.32-.32-.31-.34-.27-.39-.26-.42-.23-.47-.21-.52-.18-.57-.16-.62-.13-.68-.11-.74-.07-.81-.05-.88" filter="url(#a)" transform="translate(35.34 -27.53)"/><path fill="#fff" d="m25.18 4.35-.05-.53-.08-.55-.12-.57-.15-.57-.18-.59-.22-.59-.24-.59-.28-.59-.3-.59-.33-.58-.36-.58-.39-.56-.41-.55-.44-.54-.46-.52-.49-.83-.51-.8-.55-.76-.58-.71-.61-.67-.64-.62-.67-.57-.7-.52-.72-.46-.75-.42-.78-.36-.79-.31-.82-.26-.85-.21-.86-.15-.87-.11-.9-.05-.91-.01-.92.04-.93.09-.94.13-.95.17-.96.21-.96.25-.97.29-.96.32-.96.35-.97.38-.95.41-.96.44-.94.46-.94.47-.92.5-.92.51-.9.53-.89.54-.87.54-.85.56-.83.56-.82.56-.79.57-.78.57-.75.56-.72.56-.71.56-.68.55-.65.55-.63.53-.6.53-.58.52-.55.51-.53.5-.5.49-.48.49-.45.47-.43.47-.41.45-.38.44-.35.44-.33.42-.3.41-.28.4-.25.38-.23.38-1.95 3.72.32.09.35.08.36.07.38.07.41.06.42.05.44.04.46.03.48.03.49.02.52.01h1.07l.57-.01.58-.02.6-.02.62-.03.63-.04.66-.04.67-.05.69-.05.7-.06.72-.06.73-.06.75-.07.75-.08.77-.07.78-.08.79-.08.79-.08.8-.08.81-.08.82-.08.82-.08.83-.07.83-.08.83-.07.83-.07.84-.06.83-.06.83-.05.84-.05.83-.05.83-.03.82-.04.82-.02.82-.02.81-.02h2.4l.79.01.78.02.77.02.77.02.75.03.75.03.73.04.73.03.71.04.71.03.69.03.68.03.66.02.57-.07.55-.08.54-.09.52-.11.51-.13.49-.14.47-.17.46-.19.43-.21.42-.23.39-.27.37-.29.35-.33.32-.36.3-.4" filter="url(#a)" transform="translate(-44.59 -26.59)"/><g fill="none" stroke="#000" transform="translate(35.34 -27.53)"><path stroke-linejoin="round" stroke-width="1.667" d="m-20.17 6.61-.24.04-.2-.07-.16-.17-.13-.25-.08-.34-.05-.4-.02-.46.02-.52.04-.57.08-.61.11-.64.14-.67.17-.7.19-.72.21-.73.25-.73.26-.74.29-.74.32-.74.33-.72.36-.72.37-.69.4-.68.42-.66.43-.64.49-1.1.5-1.04.53-.98.55-.92.57-.84.59-.77.62-.7.63-.62.65-.55.67-.46.68-.4.71-.31.72-.24.74-.17.75-.09.77-.02.79.05.8.11.81.18.82.24.83.3.84.35.85.4.86.46.86.5.87.54.87.59.88.61.87.65.88.68.87.71.87.73.87.74.86.76.85.78.85.78.83.8.83.79.81.8.8.79.78.8.77.79.75.78.73.77.71.76.69.75.67.73.64.72.63.71.6.69.57.68.56.66.53.65.51.63.49.62.47.6.44.59.42.57.39.56.37.53.35.52.31.51.3.48.27.47.24.45.21.44.19.42.17.4.13.39.12.37.09.36.06.34.04.32.02.31" filter="url(#a)"/><path stroke-linejoin="round" stroke-width="2.222" d="m-19.68-9.01-.3 1.86-.27 1.74-.23 1.62-.18 1.5-.15 1.41-.12 1.3-.08 1.21-.05 1.11-.01 1.04.01.95.05.88.07.81.11.74.13.68.16.62.18.57.21.52.23.47.26.42.27.39.31.34.32.32.34.28.36.25.38.23.43.08.45.07.47.06.49.05.52.04.53.03.56.03.58.04.6.03.62.03.64.04.66.04.69.05.7.05.71.05.74.07.76.07.77.07.78.09.81.09.81.1.83.1.84.11.86.12.86.12.87.13.88.13.89.14.89.14.9.14.89.14.9.15.9.15.9.15.9.14.89.15.89.14.88.14.87.14.86.14.85.13.84.12.82.12.81.11.79.11.78.1.76.09.73.08.72.08.7.07.67.06.66.05.64.04.62.04.6.03.58.01.57.01h.54l.51-.01.5-.02.47-.03.46-.03.42-.05.41-.06.38-.06.36-.08.33-.08.32-.1.28-.1.27-.11.24-.12.22-.13.2-.14.18-.14" filter="url(#a)"/><circle cx="16.954" cy="5.634" r="3.284" clip-path="url(#b)" filter="url(#a)"/><circle cx="14.799" cy="7.804" r="4.744" clip-path="url(#b)" filter="url(#a)"/><circle cx="18.519" cy="6.929" r="4.252" clip-path="url(#b)" filter="url(#a)"/><circle cx="16.439" cy="3.724" r="3.824" clip-path="url(#b)" filter="url(#a)"/><circle cx="17.589" cy="6.444" r="3.432" clip-path="url(#b)" filter="url(#a)"/><circle cx="18.044" cy="7.329" r="3.63" clip-path="url(#b)" filter="url(#a)"/><circle cx="16.039" cy="6.904" r="4.6" clip-path="url(#b)" filter="url(#a)"/><circle cx="15.359" cy="6.824" r="4.74" clip-path="url(#b)" filter="url(#a)"/><circle cx="17.939" cy="4.059" r="3.744" clip-path="url(#b)" filter="url(#a)"/><circle cx="17.854" cy="5.799" r="4.696" clip-path="url(#b)" filter="url(#a)"/></g><g fill="none" stroke="#000" transform="translate(-44.59 -26.59)"><path stroke-linejoin="round" stroke-width="2.222" d="m23.57 7.6.35-.09.3-.15.26-.21.22-.27.18-.33.13-.37.1-.41.06-.44.03-.48-.02-.5-.05-.53-.08-.55-.12-.57-.15-.57-.18-.59-.22-.59-.24-.59-.28-.59-.3-.59-.33-.58-.36-.58-.39-.56-.41-.55-.44-.54-.46-.52-.49-.83-.51-.8-.55-.76-.58-.71-.61-.67-.64-.62-.67-.57-.7-.52-.72-.46-.75-.42-.78-.36-.79-.31-.82-.26-.85-.21-.86-.15-.87-.11-.9-.05-.91-.01-.92.04-.93.09-.94.13-.95.17-.96.21-.96.25-.97.29-.96.32-.96.35-.97.38-.95.41-.96.44-.94.46-.94.47-.92.5-.92.51-.9.53-.89.54-.87.54-.85.56-.83.56-.82.56-.79.57-.78.57-.75.56-.72.56-.71.56-.68.55-.65.55-.63.53-.6.53-.58.52-.55.51-.53.5-.5.49-.48.49-.45.47-.43.47-.41.45-.38.44-.35.44-.33.42-.3.41-.28.4-.25.38-.23.38-.2.36-.17.35-.15.33-.12.33-.1.31-.08.3-.05.29-.03.28v.27l.02.25" filter="url(#a)"/><path stroke-linejoin="round" stroke-width="2.222" d="m25.66 1.14.06.92.01.85-.03.79-.07.73-.1.67-.14.62-.18.57-.2.53-.24.47-.27.44-.3.4-.32.36-.35.33-.37.29-.39.27-.42.23-.43.21-.46.19-.47.17-.49.14-.51.13-.52.11-.54.09-.55.08-.57.07-.66-.02-.68-.03-.69-.03-.71-.03-.71-.04-.73-.03-.73-.04-.75-.03-.75-.03-.77-.02-.77-.02-.78-.02-.79-.01h-2.4l-.81.02-.82.02-.82.02-.82.04-.83.03-.83.05-.84.05-.83.05-.83.06-.84.06-.83.07-.83.07-.83.08-.83.07-.82.08-.82.08-.81.08-.8.08-.79.08-.79.08-.78.08-.77.07-.75.08-.75.07-.73.06-.72.06-.7.06-.69.05-.67.05-.66.04-.63.04-.62.03-.6.02-.58.02-.57.01h-1.07l-.52-.01-.49-.02-.48-.03-.46-.03-.44-.04-.42-.05-.41-.06-.38-.07-.36-.07-.35-.08-.32-.09-.31-.1-.28-.11-.27-.11-.24-.12-.22-.14-.21-.13-.19-.15-.16-.15-.15-.16-.13-.17" filter="url(#a)"/><circle cx="-.823" cy="3.014" r="4.132" clip-path="url(#c)" filter="url(#a)"/><circle cx="-2.208" cy="3.584" r="3.282" clip-path="url(#c)" filter="url(#a)"/><circle cx="-1.258" cy="2.019" r="4.592" clip-path="url(#c)" filter="url(#a)"/><circle cx="-2.238" cy="4.354" r="3.856" clip-path="url(#c)" filter="url(#a)"/><circle cx="-3.843" cy="2.354" r="4.43" clip-path="url(#c)" filter="url(#a)"/><circle cx="-2.328" cy=".649" r="4.578" clip-path="url(#c)" filter="url(#a)"/><circle cx="-4.123" cy="1.419" r="3.146" clip-path="url(#c)" filter="url(#a)"/><circle cx="-3.748" cy="-.311" r="3.518" clip-path="url(#c)" filter="url(#a)"/><circle cx="-2.868" cy="2.654" r="4.6" clip-path="url(#c)" filter="url(#a)"/><circle cx="-5.028" cy="3.524" r="3.634" clip-path="url(#c)" filter="url(#a)"/></g><g fill="none" stroke="#954535" stroke-linejoin="round" stroke-width="2"><path d="m-60.14-53.3 52.5-13.92 9.69-5.32 1.95.82 2.1 2.52 3.28 1.77 3.82.98 2.95.77.56.6-2.54-.04-5.03-.94-6.13-1.74-5.84-2.21-4.52-2.42-2.55-2.3-.38-1.57 1.55.08 3.55 2.23 6.68 3.33 8.87.98-1.13-5.48-34.22-7.32" filter="url(#a)"/><path d="M69.1-36.66 23.98-66.71 5.02-75.06l-11.31-1.33-5.58.95.81 1.85 6.27 2.29 8.42 2.59 6.69 2.72 2.84 2.51-.46 1.97-.96 1.61 2.12 1.99 7.69 2.96 12.51 3.08 12.13.35 4.27-5.59-6.38-11.28-7.07-8.14" filter="url(#a)"/><path d="M-35.33-77.53 26.36-57.2l9.85-4.04-6.07-7.87-5.14-3.8-.23.62 1.7 2.34-.36 1.4-3.77-.78-5.55-2.7-4.72-3.35-1.92-2.37 2.12.11 7.02 3.19 11.06 5.12 10.46 3.89 4.88.61 13.28 9.4" filter="url(#a)"/><path d="m-53.26-62.31 29.58-.46 17.67-.2.07-2.48-2.17-1.18 1.64.13 3.18-.23 1.84-1.25.9-1.45 2.61-.51 6.5.72 9.94 1.05 9.67-.39 5.23-2.82 3.59-1.75 15.31 9.72" filter="url(#a)"/><path d="m64.25-46.73-9.23-11.41 1.64 2.56.19 3.67-7.42-.19-15.95-3.87-20.29-4.76-17.43-3.22-7.78-1.27 4.43-.54 12.88-1 11.98-1.77.41-2.2L.66-72.49l-29.83 1.53-24.09 8.65" filter="url(#a)"/><path d="m-45.34-70.12 14.23-5.37 2.2-.26 1.77-.58.93-.31 1.42-.27 3.68-.44 5.98-.16 6.58.81 4.78 1.96 1.1 2.55-3.11 2.1-6.21.88-7.03-.39-5.24-1.07-1.36-.98 3.26-.46 6.62.05 6.57.28 2.14.14-4.08-.4-4.98-.86 8.04-.19 48.18-1.46" filter="url(#a)"/><path d="M57.41-57.61 31.39-73.29l-4.67-.75-1.64.69-2.45-.74-2.28-.82-2.1-.1-2.3.49-1.77.86-.03 1.16 1.97 1.22 2.6.7.98-.4-2.18-1.6-5.03-2.32-5.45-2.15-2.39-.8 2.77 2.11 5.72 6.24-2.13 7.29-50.13-12.74" filter="url(#a)"/><path d="m45.98-69.49-21.26-7.63-10.99.42 5.08 5.86 10.8 5.86 7 2.63-.67-.68-7.52-2.51-11.04-2.93-10.81-2.64-8.01-2.26-4.45-1.98-1.61-1.76.08-1.5.89-1.18 1.28-.71 1.3.01.46 1.07L-5-77.04l-3.48 3.63-1.45 4.26L.09-65.37l28.8 2.56 24.59.55" filter="url(#a)"/><path d="m-50.28-65.5 8.39-5.32 11.7-5.7L-20-79.36l7.95-1.02 4.81-.28 1.57.13-.64.5-1.67.9-2.03 1.32-2.02 1.87-1.51 2.47-.64 2.91-.02 2.78-.2 1.74-.49-.17 1.18-2.22 6.39-3.32 13.8-2.53 18.93.75L44.3-66.1l19.95 19.37" filter="url(#a)"/><path d="m-20.23-84.53 39.2 9.81.95.84-8-.52-2.36 2.02 3.88 4.23 5.36 4.43 2.79 3.12-1.43 1.36-5.37-.18-7.61-1.3-7.22-1.95-4.22-1.96.06-1.32 3.45-.29 4.2.57 2.09.65-1.47-.23-4.29-1.6-4.67-2.48-1.87-2.22 3.73-1.47 9.65-2.09 10.49-4.43 11.95-1.23" filter="url(#a)"/><path d="m29.06-80.77-16.25 1.65 11.01 7.29 7.75 6.27.38 2.66-3.31-.71-3.9-2.87-3.15-3.58-2.2-3.01-1.71-1.81-2.02-.56-2.91.44-3.57 1.16-3.17 1.63-1.39 1.75 1.08 1.33 2.93.38 2.99-.77.99-1.67-3.05-2.1-9.02-2.15-15.23-1.55-14.46-.44 5.11-5.72" filter="url(#a)"/><path d="m52.3-63.41-5.64-2.53-9.41-4.52-5.68-1.12-5.28.12-6.38.31-6.24.67-4.95 1.07-3.74 1.22-3.05 1.18-2.49 1.19-1.49 1.27.1 1.15 2.2.6 4.38-.28 6.05-1.03 6.89-.78 7.71 1.29 9.85 5.19L48-49.57l12.69 8.21 5.7.98-2.14-6.35" filter="url(#a)"/><path d="m54.06-61.59-30.69-2.62 4.74 7.19-.55 3.04-5.36-.8-3.93-1.69-.91-1.63-.37-2.44-2.33-4.15-3.65-5.49-1.48-5.08 3.32-2.77 6.35.36 3.19 2.84-9.78 3.32-49.87-4.57" filter="url(#a)"/><path d="m-2.1-87.29-6.7 20.91 19.85 2.18 9.11-5.48.29-5.69-2.08-3.08-2.33-.65-3.55.49-5.56.61-6.44.37-4.88.17-1.06.2 3.74.68 8.09 2.11 10.44 4.67 8.53 7.23.8 7.36-3.21 4.75 45.74 12.58" filter="url(#a)"/><path d="m-39.87-74.28 33.76-4.57 7.59 5.62 4.86 7.96 7.78 5.42 9.4 2.22 8.63.17 5.99-.4 2.14.03-2.58.68-7.46.76-10.95.06L8.18-57.4l-7-2.07-.11-2.69 6.25-2.85 9.07-2.37 7.8-.93 3.72.76-3.13-.1-11.08-6.48 7.3-9.81" filter="url(#a)"/><path d="m-16.94-85.13 26.21 3.39 3.71 3.4.19 4.46 2.02 5.2 2.92 4.17 3.22 1.97 3.76-.08 4.17-1.23 3.5-1.76 1.21-2.17-2.33-2.65-6.01-2.83-8.46-2.16-8.85-.49-7.41 1.66-5.66 3.13-5.42 2.71h-6.8l-6.14-3.91-.19-6.39-6.51-1.87" filter="url(#a)"/><path d="m-20.04-84.28 35.73 18.17 3.42-1.27.93-4.27.27-2.63.26.78-.06 3.77-2.29 4.67L13-61.77l-5.32.79-1.18-1.79 3.6-4.07 3.06-5.9-4.58-6.31-13.68-4.41-11.84-1.67" filter="url(#a)"/><path d="m70.56-32.62-20.8-26.11-18.68-12.49-12.4-3.89-2.06 2.13 4.82 4.78 4.53 3.9-.36 1.02L20.96-65l-4.95-2.75-1.88-1.84.88.05.02 1.38-4.27.97-7.51-.88-4.26-2.03h4.74l4.73 2.78-41.99-11.13" filter="url(#a)"/><path d="M53.48-62.26-3.9-71.19l-15.03-2.87 5.9.32 12.3 1.14 10.42.48 6.9.15 5.06.83 4.5 1.89 3.26 2.28.28 1.64-3.58.47-6.3-.45-6.11-.59-2.74-.09 2.25.57 6.6 1.07 8.47 1.45 7.38 1.86 3.39 1.92-3.92.71-15-2.13-27.1-4.32-30.55-1.81-12.8 1.21" filter="url(#a)"/><path d="m-29.81-80.58 20.25-3.01 12.67.38 6.02 1.94 3.29 2.3.53 1.86-2.93 1.25-4.99.97-3.98 1.06-.32 1.23 3.95 1.32 6.7 1.26 6.76 1.17 4.39 1.02.98.74-1.97.16-3.33-.68-2.9-1.39-1.25-1.34.53-.33 1.25 1.01.33 1.15-1.72-1.09-5.19-4.74-29.3-9.94" filter="url(#a)"/><path d="M57.41-57.61 25.27-67.78l-21.18.17-1.47 3.28 5.93 2.07h6.12l5.82-.95 6.61-.58 7.18.41 6.44 1.16 4.4 1.28 1.77.86-.65.25-2.43-.17-3.35-.19-3.28.27-1.97 1.22.51 2.59 2.95 3.89 2.92 4.15-1.78 2.21-9.72-2.33-12.24-7.45 5.18-6.45 41.22 15.36" filter="url(#a)"/><path d="m33.02-78.89-23.33-4.4L-8-81.52l-14.14 3.21-7.9 1.73-1.75-.19 2.14-1.23 3.02-1.2 1.31-.39-1.57.67-3.63 1.5-3.49 2.04-.48 2.73 7.31 4.53 26.94 9.6 71.51 27.39" filter="url(#a)"/><path d="m23.73-83.4 5.1 9.33-22.37 5.83-24.82 4.15-13.33.97.16-1.77 8.78-2.95 10.53-2.84 7.56-2.13 4.37-1.14 4.42.16 7.27 1.59 8.95 2.49 5.67 2.55-1.11 3.14.35 8.08 46.6 27.33" filter="url(#a)"/><path d="m-54.88-60.68 47.43-14.05 9.01-4.57-.21.22 3.31 3.32 8.36 4.59 9.21 3.49 4.99.62-1.59-2.5-7.06-4.32-9.42-4.13-9.01-2.36-7.13-.17-4.41 1.42-.39 2.29 4.16 3.21 1.25 4.13-41.71 1.57" filter="url(#a)"/><path d="m-20.23-84.53.36 3.54-8.61 5.96 1.78 1.89 12.19-.4 16.4.08 14.68 1.4 9.87 2.15 4.73 2.22.55 2.1-2.94 2.1-6.48 1.97-9.68 1.31-10.71-.05-8.27-1.77-4.72-3.05-4.72-3.14-2.59-3.14 34.34-14.02" filter="url(#a)"/><path d="M55.14-60.28 25.61-73.29 2.24-75.04l-9.97 2.85-.9 4.09 2.55 3.65 3.53 2.42 4.87 1.13 6.94.2 8.15-.32 7.19-.37 4.57.08 2.22 1.01 1.43 1.91 1.26 1.81-.76-.12-5.57-3.54-9.28-6.3-4.92-5.68 5.89-2.99-9.81-11.53" filter="url(#a)"/><path d="m-37.26-76.08 7.81 7.75 19.9-4.53 8.77-4.91.48-3.01-3.31-.76-4.44 1.75-3.32 4.27-.04 6.15 4.4 6.81 8.35 6.09 10.41 4.34 9.99 2.26 7.32.58 3.05-.51-2.59-1.71-9.49-4.43-13.97-8.75-2.83-10.05 36.63.03" filter="url(#a)"/><path d="m71.86-28.61-35.31-22.8L8.08-64.83l-6.83-6.33 4.21-1.3 4.86.94 1.61 1.26-1.05.66-2.06-.3-1.86-.99-.94-.69.12.59.58 1.64.31.85 1.81-1.61 12.43-.88 36.41 14.02" filter="url(#a)"/><path d="m-12.07-86.33-9.06 15.81 13.38 1.51 13.1-.23 9.64-.14 6.13-.3 4.51-.36 4.36-.12h3.57l.83-.36-2.94-1-5.02-1.12-2.63.06 4.46 2.47L39.8-65.6l11.04 3.79 6.84 4.84" filter="url(#a)"/><path d="m-.3-87.49 7.44 1.41 2 1.99-3.1 2.16-6.09 2.59-4.34 2.79.37 2.11 4.65.76 6.21-.41 4.82-.8 2.02-.32.25.78 1.29 2.18 4.08 3.5 3.69 3.97-4.39 2.3-11.11-2.77 30.48-10.73" filter="url(#a)"/><path d="m-23.45-83.28 9.6 6.03-12.33 6.72-2.74 2.5 9.52-.51 15.36-1.07 14.62.04 10.7 1.51 6.88 2.4 4.4 2.32 2.67 1.32.59-.19-2.12-1.56-4.86-2.15-6.6-1.73-6.91-.71-6.03.23-4.88.73-4.62 1.11-6.26 1.62-7.39 1.16 5.48-1.93 55.88-3.01" filter="url(#a)"/><path d="M-8.35-86.89 22.4-75.74l5.24 6.87-7.05 2.02-6.47-1.28-3-3.4-1.87-3.99-3.08-3.1-4.68-1.46-5.15.05-4.16.95-2.32 1.2-.41 1 1.36.56 3.15.02 4.51-.23 4.23.63 2.27 3.2 1.43 6.33.64 4.2-37.89-17.88" filter="url(#a)"/><path d="m-31.84-79.42 17.32-1.25 24.5 5.15 17.98 6.12 7.81 2.92.72.14-2.27-.16-3.47 1.29-5.38 2.55-8.69 2.04-11.91-.19-12.73-2.5-9.49-3.34-1.7-3.34 5.45-4.67-20.32-3.66" filter="url(#a)"/><path d="m-50.28-65.5 60.8 2.66 17.04-2.66 7.79 1.27 5.16 4.02L43-56.68l-.47.88-2.63-2.01-3.76-3.98-4.55-4.89-5.33-4.97-5.52-4.23-4.22-2.3-.67 1.05 6.12 5.24 15.87 7.29 9.94-3.27M-2.1-87.29l1-.27.86-.39 1-.54 1.15-.74 1.28-.97 1.34-1.1 1.34-1.01 1.29-.75 1.24-.51 1.23-.46 1.3-.6 1.43-.75 1.51-.67 1.45-.41 1.37-.5 1.7-1.52-21.26 10.92-1.31-4.06-1.37-1.18-1.53-1.04-1.48-.78-1.34-.27-1.22.18-1.23.34-1.31.13-1.44-.33-1.54-.78-1.59-1.01-1.54-.97-1.46-.71-1.35-.39-1.29-.17-1.25-.13-1.28-.26-1.32-.41-1.37-.43-1.48-.21h-1.83l-2.67-.11-3.64.01" filter="url(#a)"/><path d="m-4.61-87.41.64-1.02.88-.03.92-.11.93-.42.97-.62 1.06-.7 1.16-.71 1.24-.66 1.29-.49 1.28-.22L7-92.3l1.2.27 1.2.25 1.24.04 1.34-.28 1.4-.57 1.37-.71 1.25-.69 1.06-.56.93-.45 1.21-.28" filter="url(#a)"/><path d="m-4.61-87.41.59-1.88.88-.23.93-.75.92-1.51.96-1.59L.71-94.4l1.17-.43 1.29-.24 1.39-.58 1.46-1.17 1.47-1.67 1.42-1.78 1.38-1.46 1.39-.89 1.52-.45 1.69-.56 1.67-1.07 1.19-1.19m-24.7 18.77-1.12 1.99-.95 1.33-.92.4-.96.18-1.01.44-1.02.83-1.01 1.07-1.01 1-1 .72-.97.5-.87.57-.71 1.03-.55 1.68-.38 2.14.27 1.59m8.79-14.9-.15-.07-.93.16-1.16.26-1.22.32-1.23.35-1.19.36-1.11.39-1.05.4-.99.43-.95.46-.9.46-.87.48-.87.47-.9.52-1.01.59-1.2.74-1.41.88-1.32.81-.21.05" filter="url(#a)"/><path d="m-10.37-86.55 1.73-.86 1.57-.74 1.39-.55 1.22-.46 1.08-.39 1.01-.37.99-.44 1.02-.62 1.08-.85 1.19-1.08 1.29-1.26 1.36-1.31 1.4-1.25 1.39-1.05 1.34-.78 1.31-.46 1.34-.22 1.44-.22 1.61-.64 1.7-1.37 1.67-1.82 1.73-1.06M-9.56-86.84l.13.18 1.07-.11 1.34-.16 1.33-.13 1.21-.08 1.08-.04 1.01-.01.96.03.97.04 1 .06 1.07.06 1.14.08 1.2.1 1.22.11 1.19.11 1.13.13 1.07.15 1.07.19 1.23.26 1.46.36 1.28.42m-27.95-.89-1.08 1.06-.77 1.84-.82 1.4-.87.91-.84.74-.8.73-.76.72-.73.73-.72.81-.72.96-.79 1.11-.9 1.2-.95 1.21-.85 1.13-.62.96-.46.78-.67.59m-16.58-6.78.21.11 1.05-.05 1.13-.21 1.06-.35 1.04-.44 1.08-.5 1.12-.48 1.14-.45 1.11-.42 1.09-.43 1.06-.46 1.01-.48.98-.42 1.01-.36 1.15-.36 1.46-.47 1.65-.55.96-.31" filter="url(#a)"/><path d="m-30.94-80.03-.63-2.81-.52.44-1.11.29-1.46-.23-1.46-.24-1.33.04-1.27.23-1.29.25-1.31.22-1.27.25-1.18.37-1.13.53-1.15.6-1.33.49-1.64.2-1.96-.19-2.16-.51-2.1-.61-1.77-.47-1.25-.14-1.23-.28m28.55 1.57 2.46-1.31 1.89-.74 1.34-.5 1.02-.42.89-.4.87-.39.89-.39.93-.37.96-.35 1-.34 1.05-.34 1.12-.36 1.19-.37 1.27-.35 1.21-.33.6-.35-18.69 7.31 2.51-1.25 1.86-.84 1.27-.76.91-.9.75-1.07.72-1.14.76-1.1.83-.99.9-.9.98-.8 1.08-.69 1.16-.56 1.24-.48 1.26-.48 1.24-.55 1.15-.67 1.04-.85.98-1.03 1.13-1.03 1.42-1.05m-24.09 17.75-1.56.58-1.19.29-1.15.16-1.31.04-1.38.02-1.3.16-1.15.37-1.03.57-1.01.67-1.07.67-1.18.6-1.29.52-1.36.44-1.37.36-1.35.3-1.29.27-1.24.32-1.23.43-1.28.57-1.4.62-1.54.56-1.51.39-1.26.35-1.26 1" filter="url(#a)"/><path d="m-18.63-93.61-1.09-.37-1.18.36-.99.68-.84 1.05-.71 1.39-.64 1.58-.64 1.59-.74 1.46-.94 1.24-1.14.99-1.23.81-1.12.72-.89.73-.7.87-.81 1.01-1.24 1.05 20.1-33.61-.03 1.13-.99 1.74-1.3 1.46-1.35 1.47-1.3 1.6-1.19 1.73-1.04 1.87-.91 2.03-.78 2.13-.71 2.13-.68 2-.7 1.77-.75 1.53-.84 1.36-.95 1.27-1.04 1.29-1.07 1.29-1.02 1.2-.85 1.04-.71.99-.75 1.22-1.14 1.36M74.46-18.17l.27-1.07.88-1.67.92-1.54.87-1.46.9-1.61.94-1.87.94-2.09.9-2.18.85-2.12.84-1.99.89-1.87.93-1.82.97-1.85 1.06-1.94 1.51-2.12 2.62-2.65 3.82-4.15M-15.76-77.11l-1.58-.08-1.02-.12-.94-.09-.9.09-.88.22-.94.18-1.08.05-1.25-.1-1.38-.22-1.41-.26-1.32-.17-1.16.07-1.01.36-.92.6-.93.63-1.01.47-1.14.19-1.34-.02-1.5-.02-1.65.38" filter="url(#a)"/><path d="m-19.86-82.97-.66.37-1.04.37-.95.28-.95.25-1.07.27-1.2.33-1.26.38-1.25.41-1.16.43-1.08.44-1.03.46-1.02.47-1.01.5-1.03.53-1.03.57-1.03.64-1.03.68-.99.66-.9.56-.84.47-1.13.74.36-2.16.21-1.67.33-1.74.37-2.03.46-2.05.58-1.8.7-1.54.74-1.53.65-1.77.55-2.02.53-2.01.69-1.76.97-1.58 1.25-1.73 1.26-2.2.88-2.44.43-2.53-12.36 33.47 1.3-.88 1.02-.75.87-.7.89-.73.94-.77.97-.8.96-.85.92-.88.89-.91.89-.89.91-.84.97-.74 1.06-.64 1.16-.56 1.23-.51 1.25-.5 1.17-.5 1.07-.51.98-.51.92-.51.92-.5.92-.48 1.01-.5 1.63-.72" filter="url(#a)"/><path d="m-42.92-72.25-.08 1.02-.75 1.62-1.03 1.1-1.06.68-.94.58-.8.68-.69.85-.65 1.02-.65 1.12-.67 1.15-.66 1.12-.63 1.06-.62.99-.63.99-.68 1.03-.75 1.11-.78 1.23-.71 1.34-.55 1.35-.39 1.14-.4.83-.63.78 15.34-23.08.06-.18.58-.84.64-1.06.7-1 .81-.9.89-.91.92-.95.9-.99.9-.98.89-.95.9-.9.92-.83.95-.78 1.01-.78 1.09-.87 1.18-1.03 1.2-1.11 1.12-1.05.92-.9.54-.79-.44-.77-21.5 22.32.79-1.19.57-1.93.32-2.34.44-1.89.7-1.26.73-1.16.44-1.72.05-2.56-.18-3.2-.17-3.42-.08-3.39-.12-3.47-.23-3.69.17-3.36 1.57-1.76-6.1 37.58.06-1.01.07-1.73.13-2.13.29-2.18.54-1.88.8-1.37.96-.95.93-.89.67-1.31.3-2.05.02-2.75.09-2.95.48-2.4.8-1.38-.54-1.08" filter="url(#a)"/><path d="m-38.45-73.68-.58.47-.73.4-.88.52-.97.61-1.06.68-1.12.71-1.11.74-1.03.73-.9.7-.77.69-.72.67-.75.67-.9.69-1.1.9-1.66 1.64-.53.55.46.27 1.24-.34 1.27-.73.98-.98.76-1.01.72-.86.81-.66.97-.48 1.13-.38 1.23-.36 1.26-.38 1.23-.38 1.19-.34 1.14-.27 1.12-.17 1.12-.1 1.19-.02 1.32.07 1.4.13 1.22.12.3.71-24.67 9.3-1.36-3.39-1.17-2.79.03-1.48.69-.98.76-1.18.62-1.51.48-1.72.33-1.81.18-1.91.04-2.07-.02-2.24.01-2.44.09-2.62.22-2.7.38-2.56.63-2.13.81-1.73.48-2.14-1.31-4-1.89 41.4.89-.88.72-.63.75-.57.88-.58 1.04-.62 1.1-.67 1.05-.73.94-.76.84-.76.81-.72.84-.7.91-.69.99-.73 1.04-.76 1.06-.74 1.05-.66 1.04-.5 1.02-.34 1-.22 1.05-.31 1.34-.77" filter="url(#a)"/><path d="m-28.71-66.1-1.98.71-1.69-.32-1.53-.53-1.31-.36-1.17-.11-1.12.09-1.14.22-1.19.28-1.23.31-1.23.33-1.18.35-1.08.39-1.01.41-1.02.43-1.08.41-1.17.42-1.21.48-1.12.6-.9.76-.62.88-.46.91-.68.66-2.04-.39m-9.92 23.08.24-.48.08-1.17.17-1.42.3-1.39.41-1.3.52-1.2.59-1.16.61-1.15.58-1.13.49-1.09.39-1.05.3-1.05.3-1.07.4-1.04.56-.85.46-.57-.56-.65M73.79-21.99l.12 1.08.23 1.34.23 1.23.2 1.21.18 1.29.18 1.38.17 1.42.16 1.37.14 1.28.14 1.2.13 1.14.11 1.14.08 1.21.06 1.36.07 1.62.05 1.93-.11 2.36-2.14-23.56-.15 1.15-.05 1.42.1 1.26.1 1.23-.04 1.33-.26 1.43-.46 1.48-.58 1.44-.63 1.34-.68 1.25-.82 1.2-1.01 1.19-1.18 1.25L67-3.69l-.82 1.41-.47 1.41-.51 1.3-1.01 1.13-.83 1.53 6.4 2.78.3-.05.49-.92.41-1.09.35-1.08.36-1.12.36-1.21.37-1.33.35-1.4.32-1.41.26-1.35.17-1.28.04-1.22-.07-1.18-.11-1.21-.08-1.29.02-1.37.1-1.42.08-1.41-.05-1.32-.16-1.23-.09-1.27.23-1.48.38-1.22" filter="url(#a)"/><path d="m-62.28-50.41 1.07 1.25-.28.68-.42.97-.32 1.28-.19 1.47-.05 1.54.03 1.55-.02 1.5-.17 1.39-.35 1.27-.42 1.18-.39 1.16-.22 1.3.03 1.62.25 1.93-.03 1.62 1.48-21.71.21-2.2.82-1.01.58-1.02.37-1.39.37-1.63.53-1.62.69-1.44.73-1.27.71-1.17.62-1.17.53-1.31.43-1.49.37-1.67.36-1.73.42-1.63.51-1.41.59-1.22.61-1.2.59-1.37.62-1.66.78-1.87.86-1.86.07-1.26" filter="url(#a)"/><path d="m-62.2-50.32-.44.81-.92.81-1.26.8-1.28.85-1.1.95-.95 1.04-.85 1.12-.8 1.17-.71 1.22-.62 1.27-.56 1.31-.54 1.3-.56 1.24-.61 1.14-.67 1.03-.71.96-.74.98-.77 1.1-.81 1.24-.9 1.33-.97 1.27-.89 1.08-.76 1-1.21 1.95" filter="url(#a)"/><path d="m-66.88-41.54-.42-1.05.17-1.34.05-1.56.11-1.59.21-1.53.18-1.53.01-1.57-.2-1.67-.35-1.77-.41-1.86-.39-1.91-.23-1.89.04-1.81.37-1.71.67-1.62.87-1.56.89-1.49.77-1.4.61-1.26.35-1.19-.09-1.44-.65-2.38M80.72 3.93l.07-1.95-.27-1.44-.24-1.59-.3-1.66-.41-1.58-.49-1.42-.56-1.28-.57-1.19-.51-1.18-.41-1.23-.28-1.31-.16-1.4-.13-1.43-.21-1.39-.36-1.29-.54-1.19-.62-1.15-.57-1.17-.41-1.11-.3-.9m-154.64 3.37 1.28-.47 1.24-1.43.96-1.31.66-1.16.42-1.14.35-1.23.39-1.33.48-1.36.58-1.28.68-1.11.79-.9.88-.75.94-.75.87-.95.68-1.23.39-1.36.27-1.01 1.12.02m9.58-14.85-.56.85-.76.91-.72.86-.6.8-.58.78-.64.84-.72.94-.76 1.02-.74 1.07-.7 1.1-.66 1.13-.62 1.2-.6 1.32-.6 1.41-.38 1.05" filter="url(#a)"/><path d="m-68.27-37.88-.01-1.33-.11-1.87.14-1.66.28-1.49.1-1.63-.29-1.94-.68-2.25-.88-2.36-.81-2.23-.52-1.93-.11-1.56.3-1.27.54-1.15.5-1.26.23-1.65-.09-2.18-.19-2.65v-2.87l.18-2.9-.61-3.73-13.88 66.87-.02-.68.75-1.15.87-1.64.68-1.73.56-1.56.63-1.33.77-1.18.9-1.13.9-1.11.81-1.13.62-1.18.44-1.27.36-1.35.42-1.36.66-1.26.87-1.07.89-.88.54-.79.06-.91.19-1.15 3-.7" filter="url(#a)"/><path d="m-69.28-35.48-.22 1.98.22 1.32.23.96v.91l-.28 1.01-.33 1.17-.14 1.36.18 1.48.41 1.47.47 1.34.38 1.23.23 1.25.23 1.44.52 1.65 1.46 1.03m-4.46-16.85-2.22-.5-1.73-1.26.07-1.17 1.04-1.09 1.12-1.13.67-1.34.04-1.68-.56-2.05-.95-2.31-1-2.37-.74-2.24-.34-2.04-.1-1.96-.28-2.14-.75-2.43-1.14-2.54-1-2.19-.37-1.78-.51-2.91M73.53-23.07l.08.38.34.75.57.97.64 1.09.59 1.14.49 1.21.46 1.3.5 1.35.6 1.38.73 1.33.87 1.27 1 1.2 1.03 1.16.96 1.21.74 1.32.54 1.49.57 1.68.91 1.76 1.3 1.69 1.26 1.55.14 2.12-16.67-35.45.77-1.24.26-.87-.01-1.05-.02-1.22.33-1.48.78-1.8 1.09-2.06 1.1-2.17.86-2.16.55-2.14.34-2.19.24-2.32.19-2.41-.01-2.26-.31-1.86-.39-1.49.18-1.58 1.02-2.43-.13-3.97" filter="url(#a)"/><path d="m69.99-34.11.73 1.6.47.8.71.95 1.05 1.16 1.31 1.24 1.36 1.24 1.21 1.17.96 1.12.7 1.11.5 1.12.37 1.18.31 1.24.3 1.29.28 1.36.28 1.45.31 1.52.4 1.52.54 1.41.6 1.26.57 1.26.9 1.51-13.73-26.74.8-2.12-.46-.97-.56-1.11-.56-1.21-.59-1.25-.61-1.32-.62-1.42-.61-1.49-.58-1.52-.55-1.46-.5-1.36-.46-1.26-.43-1.19-.41-1.2-.36-1.25-.31-1.34-.26-1.4-.27-1.41-.36-1.36-.51-1.29-.64-1.29-.74-1.3-.78-1.24-.59-1.1 10.96 31.86.12.84.13 1.05-.06 1.11-.21 1.35-.21 1.57-.05 1.63.11 1.56.18 1.42.15 1.29.09 1.22.03 1.17-.01 1.16-.05 1.19-.17 1.24-.37 1.31-.63 1.4-.89 1.46-1.09 1.48-1.11 1.4-.96 1.26-.71 1.12-.61.99-.82.9-.67.83 1.53-8.03.63-2.07.61-1.33.79-1.28.68-1.27.39-1.18.11-1.14-.03-1.18-.09-1.29-.09-1.4-.07-1.45.03-1.45.17-1.42.35-1.42.47-1.39.42-1.35.2-1.25-.13-1.13-.4-1.06-.47-1.12-.29-1.28-.02-1.43-.18-1.86" filter="url(#a)"/><path d="m66.92-42.17-1.2-.55-.84-1.51-.76-1.54-.8-1.27-.87-.92-.98-.62-1.1-.44-1.19-.38-1.18-.41-1.06-.53-.91-.67-.78-.76-.79-.75-.93-.64-1.17-.45-1.35-.27-1.38-.18-1.17-.21-.73-.2-.44.59 16.29 5.91 1.28 1.02 1.13 1.41.84 1.52.66 1.43.63 1.29.68 1.16.75 1.07.75 1 .7.97.63.97.56.97.53.98.52 1.01.52 1.11.55 1.23.6 1.39.66 1.5.67 1.5.64 1.34.57 1.03.48.71.54.44" filter="url(#a)"/><path d="m40.79-58.76.69.22.74.52.99.29 1.1.21 1.14.27 1.15.27 1.16.24 1.13.22 1.05.3 1.01.42 1.01.51 1.09.5 1.16.47 1.15.47 1.05.54.94.65.91.7.98.69.96.74.68.85.35.64 1.35-.67" filter="url(#a)"/><path d="m62.58-49.71.84 1.56.77 1.58.79 1.59.76 1.5.66 1.41.53 1.33.44 1.27.39 1.24.37 1.18.38 1.11.38 1.06.38 1 .37.99.33.99.28 1.06.25 1.21.27 1.45.36 1.71.48 1.91.6 1.9-9.98-27.57-.18-.07-.91-.91-.99-.87-.87-.81-.82-.78-.82-.74-.88-.73-.89-.77-.86-.85-.78-.91-.71-.89-.67-.8-.69-.68-.76-.62-.94-.66-1.2-.74-1.57-.66" filter="url(#a)"/><path d="m60.64-52.75-.31-.23-.84-.42-1.22-.27-1.38-.19-1.26-.36-1.05-.61-.92-.75-.92-.68-1.01-.48-1.15-.22-1.29.02-1.45.2-1.58.3-1.6.26-1.41.07-1.1-.19-1.03-.22-1.22-.16" filter="url(#a)"/><path d="m83.58-36.6-.3-.88-1.03-.36-1.4-.51-1.44-.65-1.27-.78-.97-.96-.66-1.17-.51-1.31-.6-1.3-.91-1.19-1.29-1.05-1.56-.98-1.61-.99-1.55-.96-1.49-.78-1.55-.41-1.61-.1-1.47-.19-1.14-.76-.6-.79-.67-.74-.45-1.62-.05-1.54-.18-1.49-.41-1.39-.48-1.39-.38-1.46-.27-1.51-.23-1.52-.27-1.46-.39-1.4-.5-1.35-.55-1.38-.52-1.45-.43-1.6-.32-1.78-.25-1.93-.27-2.02-.41-1.99-.67-1.84-1.01-1.64-1.31-1.42-1.32-1.22-.78-1.05.2-1.57" filter="url(#a)"/><path d="m58.97-55.43.32.48.54.95.62 1.01.63 1.01.61.96.58.91.57.94.62 1.04.68 1.18.74 1.32.75 1.4.71 1.4.64 1.34.57 1.27.52 1.24.51 1.26.43 1.06h.09M58.97-55.43l-.96-1.27-.77-1.19-.74-1.17-.69-1.1-.65-.98-.66-.9-.69-.87-.74-.88-.77-.91-.79-.92-.81-.9-.82-.88-.83-.85-.85-.86-.89-.9-.92-.96-.98-1.04-1.04-1.09-1.09-1.12-1.09-1.06-1.05-.95-1.07-.86-1.19-.87-.88-.62 12.93-7.32 1.14 1.99.24 2.25.3 1.99.62 1.49.91 1 .98.82.82.99.54 1.38.29 1.75.11 1.95.04 1.97-.01 1.85.06 1.63.33 1.29.72.96.74 1.08-.13 2.07-.95 2.47" filter="url(#a)"/><path d="m57.68-56.97-.77-.66-.88-.98-.85-.91-.87-.68-.96-.44-1.04-.33-1.07-.37-1.05-.49-1.01-.59-.98-.56-1.02-.44-1.1-.28-1.17-.18-1.19-.16-1.12-.29-.88-.46-.35-.5m13.77 5.01 1.01 1.05 1.03.97 1.05.79 1.04.67.97.68.88.77.84.84.81.86.81.85.83.84.89.83.99.89 1.07.99 1.12 1.1 1.09 1.23.98 1.3.87 1.33.82 1.27.9 1.16 1.06 1.02 1.14.86 1.01.76.69 1.49m-21.9-22.55-.38-1.03-.59-.68-.63-.76-.67-.95-.69-1.09-.67-1.14-.65-1.14-.64-1.12-.64-1.12-.69-1.12-.77-1.11-.86-1.1-.99-1.07-1.07-1.08-1.1-1.11-1.02-1.18-.91-1.22-.77-1.2-.63-1.07-.37-.82.05-.61.27-.92" filter="url(#a)"/><path d="m54.65-61.16-.67-.71-.54-.68-.69-.9-.81-.97-.84-.94-.81-.88-.8-.83-.8-.81-.82-.8-.87-.83-.92-.88-.98-.97-1.08-1.08-1.16-1.12-1.1-1.02-.69-.74-.17-.66" filter="url(#a)"/><path d="m54.65-61.16.95.55.94.91 1.13.77 1.23.6 1.3.44 1.5.25 1.74.03 1.87-.03 1.71.12 1.36.42 1.09.64 1.11.6 1.44.45 1.78.46 1.93.79 2.12 1.23 3.28 1.2-27.07-9.86-1.7-1.07-1.63-.41-1.75.22-1.76.47-1.5.26-1.13-.27-.82-.7-.78-.81-.98-.62-1.23-.35-1.38-.28-1.31-.41-1.14-.6-1.04-.52-1.18-.06-1.44.7-1.37 1.42-.29 1.32m20.67-.11 2.47-.61 1.75-.72 1.07.24 1.12.49 1.32.48 1.34.55 1.22.66 1.1.76 1.11.73 1.27.59 1.53.4 1.77.21 1.87.12 1.78.13 1.64.18 1.74.19 2.23.12 2.84.14 3.21.38-33.17-6.03 1.1-3.81-1.18-.22-1.37.03-1.11-.44-.84-.93-.67-1.31-.6-1.61-.61-1.79-.66-1.81-.74-1.67-.81-1.46-.82-1.25-.79-1.13-.75-1.05-.77-1-.91-.93-1.13-.94-1.32-1.05-1.31-1.31-1.1-1.56-.8-1.5-.57-1.01-.13-.5L51.51-64.4l-.73-1.39-.57-1.01-.79-.73-.88-.69-.89-.78-.9-.9-.94-.98-1.01-1.01-1.07-1.02-1.09-.99-1.04-.96-.95-.92-.84-.88-.75-.81-.75-.74-.85-.74-1.08-.8-1.36-.89-1.49-.98-1.33-.97-.64-.58" filter="url(#a)"/><path d="m49.98-65.73.97 1.54.23 1.96-.03 1.85.12 1.41.33 1.12.41 1.08.4 1.17.36 1.27.34 1.27.36 1.23.42 1.12.48 1.03.5.98.43 1 .27 1.11.09 1.19-.02 1.23-.02 1.24.03 1.35.03 1.63.2 1.88 1.01 1.79-6.91-29.45.25-1.32-.28-1.3-.69-.97-.85-.88-.9-.94-.94-1.04-1-1.11-1.03-1.16-1.02-1.16-.98-1.11-.92-.99-.87-.87-.83-.79-.83-.82-.86-.97-.97-1.19-1.09-1.4-1.16-1.46-1.13-1.24-.99-.86-.66-.7.09-1.07" filter="url(#a)"/><path d="m47.78-67.87-.44-.98-.41-1.65-.29-2.09-.42-2.16-.65-1.95-.81-1.66-.81-1.51-.68-1.53-.51-1.66-.44-1.75-.52-1.68-.73-1.54-.98-1.39-1.17-1.31-1.21-1.25-1.16-1.15-1.03-1.04-.9-1.01-.82-1.21-.78-1.69-.73-2.39-.44-3.1.51-3.84 15.15 38.96.51.63.72.75.69.85.62 1 .56 1.16.5 1.26.44 1.25.37 1.17.35 1.09.41 1.05.51 1.04.65 1.05.72 1.06.69 1.12.58 1.49" filter="url(#a)"/><path d="m47.51-68.45-.71-1.74-1.05-.9-1.08-1.02-1.08-1.21-1.04-1.19-.98-1.07-.86-.97-.75-.96-.65-1.03-.63-1.12-.75-1.19-.95-1.2-1.16-1.16-1.25-1.07-1.16-.98-.9-.93-.57-1.01-.26-1.22-.31-1.4" filter="url(#a)"/><path d="m24.38-103.68 1.56 1.2 1.45.98 1.02 1.21.72 1.61.59 1.95.62 2 .72 1.73.83 1.3.94.91 1.03.72 1.09.78 1.1 1.01 1.06 1.31.95 1.57.79 1.69.63 1.65.55 1.51.5 1.38.51 1.42.52 1.57.65 1.7.96 1.61 1.22 1.33.54 1.02" filter="url(#a)"/><path d="m44.93-70.52 1.14.84 1.28.47 1.53-.07 1.71-.36 1.61-.24 1.37.18 1.11.58.96.8.88.87.84.85.81.84.83.86.89.88.99.86 1.08.81 1.13.75 1.18.65 1.25.53 1.43.3 1.56-.04.94-.26-24.63-10.31.82-.12.99.48 1.21.36 1.23.32 1.14.4 1.06.54 1.07.59 1.18.52 1.29.38 1.36.28 1.33.27 1.24.36 1.2.46 1.29.48 1.52.38 1.78.18 1.96.01 1.95-.02 1.79.12 1.61.23 1.43.16.91-.18m-29.36-6.2-1.83-1.69-1.07-1.87-.34-2.23-.09-2.31-.2-1.9-.49-1.25-.83-.66-1.19-.3-1.43-.26-1.46-.51-1.28-.99-.91-1.56-.54-2.04-.33-2.23-.41-2.02-.74-1.5-1.09-1.04-1-1.12.05-2.19" filter="url(#a)"/><path d="m15.59-73.52 1.54-.15 1.39.04 1.31-.29 1.21-.55 1.12-.57 1.06-.36 1-.09.97.13.94.2.94.18.99.17 1.02.27 1.09.44 1.16.54 1.28.42 1.36.08 1.39-.29 1.31-.44 1.13-.19.89.38.65.87.83.79 2.73-.41-3.04-2.36.56-.63.33-2.44.08-2.48-.34-1.55-.85-.67-1.23-.3-1.42-.39-1.35-.74-1.13-1.2-.83-1.65-.6-1.95-.49-2.08-.49-2.1-.54-2.14-.56-2.24-.56-2.33-.61-2.24-.78-1.91-1.05-1.6-1.29-1.69-1.34-2.44-1.11-3.48-.77-3.62 28.56 61.56-.56-1-.56-.8-.38-.9-.25-1.14-.25-1.32-.33-1.37-.43-1.31-.49-1.21-.55-1.11-.6-1.02-.68-.94-.78-.86-.84-.86-.89-.96-.96-1.24-1.35-1.63-2.29-2.02.67.86-.89-1.07-.95-1.06-.67-.89-.64-.92-.81-1.13-.96-1.36-1-1.51-.94-1.5-.89-1.28-.89-.94-.94-.63-.98-.48-.99-.55-.93-.77-.87-1.01-.83-1.16-.87-1.21-1-1.21-1.17-1.24-1.3-1.3-1.31-1.38-1.29-1.21-1.52-.3 19.27 21.63.15-.25-.09-.6-.78-.84-1.28-.83-1.44-.71-1.33-.64-1.11-.61-.92-.61-.83-.61-.82-.67-.86-.72-.89-.77-.87-.72-.81-.57-.8-.4-1-.34-1.77-.56" filter="url(#a)"/><path d="m37.45-76.28-.15.68-.25.95.31.85.79.6 1.02.53 1.08.64 1.07.86.97 1.09.82 1.28.68 1.37.56 1.37.52 1.31.5 1.2.51 1.12.51 1.09.48 1.16.44 1.33.4 1.44.35 1.2-.23.53M33.15-78.56l1.04.41 1.58.68 1.19.39.92.2.91.15 1.08.11 1.31.04 1.53-.03 1.7-.06 1.82-.06 1.85-.07 1.8-.07 1.71-.02 1.58.07 1.43.19 1.32.3 1.15.44.97.71 1.39.89" filter="url(#a)"/><path d="m29.38-80.98.28-.01 1.18-.81 1.77-1.24 1.99-.98 1.94-.42 1.73-.03 1.57-.02 1.48-.24 1.44-.36 1.37-.19 1.33.15 1.4.38 1.7.25 2.06-.11 2.22-.32 2.05-.14 1.74.19 1.82-.04 1.97-.9-31.04 4.84.53-.74.65.47.93.73 1.25.72 1.43.62 1.43.5 1.3.35 1.15.2 1.09.05 1.14-.01h1.23l1.32.15 1.39.39 1.48.66 1.53.7 1.47.36 1.39.13-25.14-7.11-.63-1.76-.99-.76-1.34-.31-1.41-.37-1.28-.53-1.14-.61-.99-.66-.91-.78-.89-.96-.93-1.1-1.01-1.16-1.09-1.08-1.14-.96-1.16-.83-1.15-.77-1.18-.7-1.27-.58-1.37-.37-1.43-.25-1.45-.53-2.11-1.46L23.55-83.2l-.56-.71-1.03-1.87-1.03-2.31-.99-2.04-.92-1.66-.86-1.42-.84-1.22-.89-.99-1.03-.71-1.18-.51-1.26-.57-1.25-.91-1.18-1.45-1.09-1.97-1.1-2.13-1.26-1.73-1.46-1.05-1.42-1.08-.26-3.58" filter="url(#a)"/><path d="m23.73-83.4.49-.62 1.26-1.86 1.27-1.16 1.12-.01 1.12.33 1.27-.17 1.5-1.02 1.81-1.79 2.17-2.32 2.57-2.55 2.84-2.3 2.76-1.29 2.13.28 1.03 1.13.25-1.1" filter="url(#a)"/><path d="m33.66-80.41-.67-.05-1.11-.36-.97-.37-.83-.33-.83-.28-.92-.27-1-.29-1.03-.28-.98-.26-.93-.25-.95-.24-1.08-.3-1.29-.37-1.46-.48-1.55-.63-.87-.14-1.04.02-.78.08-.91.29-1.1.55-1.25.8-1.29.86-1.25.69-1.16.33-1.09-.05-1.08-.28-1.1-.34L4-82.6l-1.14-.02-1.11.2-1.04.41-.94.56-.86.69-.82.86-.83 1.13-.91 1.25" filter="url(#a)"/><path d="m15.95-85.38.27-.02.78.68 1 1.02 1.17.87 1.25.57 1.2.41 1.06.45.93.59.83.74.79.82.78.86.74.87.71.91.69.96.74 1.01.85 1.02 1 1.01 1.09.97 1.03.89.79.78.47.71.48.84 1.42 1.5M12.98-86.13l.57 1.15.76.19.74.37.69.75.73 1.04.83 1.19.93 1.25.94 1.33.84 1.56.63 1.85.43 2.01.35 1.86.46 1.48.63 1.28.73 1.53.65 1.44m14.74-40.61-1.98.37-2.02.34-1.93 1.14-1.77 1.33-1.61.93-1.55.37-1.56.1-1.61.2-1.65.54-1.62.86-1.54 1.05-1.45 1.11L16.95-97l-1.37 1.12-1.41 1.11-1.44 1.02-1.41.88-1.34.77-1.29.84-1.27 1.11-1.34 1.27-1.39 1.01-1.26.37-.33-.1" filter="url(#a)"/><path d="m-.76-87.46 1.38.07 2.3.11 2.96.18 3.46.26 3.67.35 3.6.43 3.52.49 3.56.55 3.75.62 3.94.68 4.08.75 4.23.83 4.46.92 4.79 1 5.2 1.09 5.57 1.15 5.79 1.2 5.93 1.26 6.1 1.34 6.44 1.48 6.83 1.61 6.82 1.71 6.06 1.7 4.72 1.66 1.96 1.62" filter="url(#a)"/><path d="M-4.12-87.37h2.06l2.48-.03 2.68.04 2.94.14 3.31.22 3.62.28 3.73.34 3.69.4 3.66.47 3.72.55 3.93.63 4.13.7 4.24.76 4.19.79 4.08.85 4.13.93 4.5 1.05 5.17 1.18 5.77 1.31 6.23 1.37 7.36 1.47 8.93 1.57" filter="url(#a)"/><path d="M-4.12-87.37h2.02l2.31-.03 2.44.05 2.46.15 2.44.24 2.42.3 2.41.36 2.42.43 2.43.51 2.46.58 2.49.66 2.52.73 2.51.8 2.47.87 2.41.94 2.37 1.04 2.39 1.15 2.48 1.24L41.95-76l2.79 1.44 2.95 1.51 3.03 1.57 3.02 1.62 2.91 1.64 2.74 1.67 2.59 1.7 2.49 1.74 2.46 1.8 2.44 1.87 2.38 1.91 2.26 1.9 2.17 1.84L78.45-52l2.62 1.89 2.54 2.14" filter="url(#a)"/><path d="m-4.61-87.41.99-.06 2.06.02 2.49.08 2.79.12 3.04.18 3.17.25 3.14.34 3.02.4 2.92.48 2.97.54 3.24.6 3.67.66 4.17.73 4.58.81 4.84.9 4.87.99 4.69 1.09 4.41 1.15 4.17 1.17 4.21 1.17 4.78 1.25 6.11 1.45 8.06 1.82 10.24 1.78" filter="url(#a)"/><path d="m-4.61-87.41 1.73-.06 1.71.03 1.86.07 2.06.13 2.23.19 2.32.27 2.34.35 2.33.42 2.29.5 2.23.56 2.17.63 2.12.69 2.08.77 2.08.86 2.07.93 2.04 1.02 1.99 1.1 1.89 1.18 1.8 1.24 1.7 1.32 1.64 1.41 1.62 1.5 1.64 1.59 1.66 1.66 1.65 1.71 1.6 1.73 1.5 1.73 1.35 1.71 1.18 1.69 1.03 1.71.92 1.79.9 1.93 1.08 2.33" filter="url(#a)"/><path d="m-6.95-87.12 2.27-.15 2.34-.08 2.53-.02 2.69.06 2.81.14 2.88.23 2.89.29 2.85.36 2.77.43 2.69.51 2.62.58 2.57.66 2.55.72 2.57.8 2.66.87 2.8.94 2.98 1.04 3.17 1.14 3.35 1.25 3.52 1.34 3.7 1.44 3.89 1.51 4.06 1.57 4.17 1.61 4.18 1.64 4.1 1.67 3.94 1.7 3.79 1.75 3.75 1.8 3.83 1.87 3.99 1.91 4.1 1.9 4.2 1.84 4.55 1.8 5.33 1.88 5.46 2.15" filter="url(#a)"/><path d="m-8.35-86.89 2.93-.36 2.16-.14 1.93-.01 1.99.05 2.2.12 2.42.18 2.61.25 2.71.33 2.74.41 2.69.47 2.6.54 2.52.61 2.47.66 2.48.74 2.52.81 2.61.91 2.74.99 2.89 1.08 3.04 1.15 3.15 1.18 3.21 1.22 3.21 1.29 3.18 1.47 3.14 1.68 3 1.79 2.82 1.6" filter="url(#a)"/><path d="m-8.35-86.89 2.94-.36 2.21-.13 2.07-.02 2.32.06 2.69.12 2.98.19 3.07.27 3.04.34 3.02.42 3.11.49 3.32.55 3.59.63 3.81.69 3.93.77 3.95.84 3.87.94 3.74 1.01 3.63 1.1 3.54 1.16 3.58 1.24 3.83 1.31 4.34 1.4 5.13 1.5 6.06 1.59 6.88 1.67 7.37 1.72 7.4 1.73 7.12 1.73 6.77 1.71 6.48 1.67 5.91 1.68 4.28 1.71 1.08 1.6" filter="url(#a)"/><path d="m-8.35-86.89 2.87-.36 2.22-.13 1.98-.02 2.02.06 2.19.13 2.4.19 2.54.27 2.65.34 2.66.42 2.6.49 2.51.56 2.4.63 2.34.7 2.32.77 2.36.86 2.43.93 2.49 1.03 2.54 1.1 2.53 1.17 2.51 1.25 2.46 1.32 2.44 1.41 2.44 1.51 2.47 1.59 2.51 1.66 2.52 1.7 2.51 1.73 2.5 1.73 2.5 1.72 2.52 1.72 2.53 1.76 2.5 1.87 2.34 2.09 2.13 2.52 2.41 3.23" filter="url(#a)"/><path d="m-10.37-86.55 3.02-.42 2.59-.22 2.42-.12 2.45-.03 2.51.04 2.52.13 2.51.21 2.48.27 2.48.34 2.55.41 2.63.47 2.7.55 2.72.63 2.64.7 2.52.76 2.43.81 2.48.88 2.68.96L39-79.11l3.43 1.19 3.71 1.31 3.81 1.41 3.83 1.5 3.9 1.62 3.98 1.74 4.17 1.89" filter="url(#a)"/><path d="m-10.37-86.55 2.92-.42 2.56-.22 2.53-.12 2.65-.03 2.82.04 2.9.13 2.93.2 2.9.28 2.93.33 3.05.4 3.29.47 3.55.55 3.73.63 3.78.7 3.77.75 3.77.8 3.9.87 4.13.94 4.4 1.06L56.83-78l4.96 1.31 5.23 1.39 5.25 1.49 4.8 1.6 4.82 1.69" filter="url(#a)"/><path d="m-9.56-86.84.13-.18 2.69-.2 2.71-.12 2.43-.02 2.33.05 2.46.12 2.68.19 2.96.27 3.2.34 3.37.42 3.45.49 3.42.56 3.33.62 3.23.7 3.16.78 3.17.85 3.26.94 3.4 1.03 3.56 1.1 3.69 1.17 3.73 1.25 3.68 1.33 3.57 1.42 3.44 1.5 3.32 1.59 3.24 1.66 3.18 1.7 3.15 1.73 3.15 1.73 3.26 1.73 3.53 1.75 4.02 1.79 4.55 1.89 4.9 2.04 4.73 2.18 4.04 2.02 2.17.71" filter="url(#a)"/><path d="m-16.94-85.13 1.86-.68 2.14-.46 2.45-.35 2.57-.26 2.58-.21 2.55-.13 2.57-.06 2.58.02 2.61.1 2.63.17 2.66.24 2.68.31 2.72.37 2.82.43 2.95.52 3.14.6 3.31.69 3.46.75 3.55.78 3.55.76 3.2.67 2.08.46" filter="url(#a)"/><path d="m-19.79-84.49 2.6-.65 2.38-.6 2.32-.46 2.35-.37 2.42-.28 2.44-.21 2.46-.13 2.47-.06 2.47.03 2.46.1 2.4.17 2.34.25 2.26.32 2.21.38 2.18.45 2.2.53 2.22.61 2.24.68 2.23.74 2.2.78 2.18.82 2.21.89 2.38 1.02 2.66 1.22 2.73 1.31 1.36.62" filter="url(#a)"/><path d="m-20.23-84.53 2.43-.63 2.35-.53 2.24-.47 2.14-.38 2.16-.3 2.24-.22 2.3-.14 2.33-.05 2.38.02 2.44.1 2.51.17 2.6.25 2.67.32 2.73.39 2.78.47 2.82.53 2.84.61 2.85.67 2.85.75 2.86.82 2.89.92 2.94.99 3.01 1.08 3.08 1.15 3.14 1.21 3.19 1.27 3.26 1.37 3.32 1.48 3.4 1.61 3.42 1.7 3.42 1.74 3.48 1.78 3.68 1.92 3.82 2.34" filter="url(#a)"/><path d="m-23.45-83.28 2.6-1.01 2.65-.74 2.6-.58 2.52-.49 2.41-.39 2.31-.31 2.21-.23 2.17-.15 2.18-.06 2.23.01 2.34.08 2.45.16 2.55.23 2.62.3 2.68.38 2.72.45 2.76.51 2.79.58 2.8.65 2.8.71 2.8.79 2.83.88 2.9.99 3.03 1.09 3.1 1.17 3.02 1.17 2.68 1.08 2.15.88 1.18.42" filter="url(#a)"/><path d="m-23.45-83.28-3.44-1.01 1.96-.74 3.43-.59 3.97-.48 3.91-.4 3.52-.3 3.1-.23 2.79-.14 2.66-.05 2.69.01 2.86.1 3.09.17 3.36.24 3.61.32 3.84.39 4.02.46 4.13.53 4.19.61 4.25.67 4.29.74 4.38.83 4.51.91 4.67 1 4.84 1.07 5.03 1.15 5.21 1.21 5.38 1.28 5.55 1.37 5.72 1.48 5.87 1.6 5.97 1.7 5.99 1.75 6.07 1.78 6.3 1.92 7.32 2.34" filter="url(#a)"/><path d="m-23.45-83.28 2.84-1 2.4-.74 2-.58 1.73-.49 1.72-.4 1.99-.31 2.37-.24 2.71-.15 2.94-.08H.36l3.31.06 3.61.14 3.99.21 4.41.28 4.75.36 4.9.43 4.84.5 4.72.56 4.76.61 5.09.67 5.57.71 5.9.76 6.02 1m12.31 63.12 2.06 2.79 4.18 3.06 2.89 2.95 1.68 2.91 1.84 2.87 2.45 2.81 2.62 2.7 2.2 2.62L96 7.45l.95 2.59.54 2.61.25 2.61.06 2.59-.03 2.57v2.57l.11 2.56.22 2.57.29 2.55.33 2.52.43 2.46.67 2.41.99 2.34 1.22 2.28 1.2 2.23.87 2.21.37 2.24-.09 2.33-.14 2.51" filter="url(#a)"/><path d="m-22.35-83.59 2.36-.54 2.53-.5 2.76-.53 2.67-.51 2.37-.44 2.06-.38 1.87-.29 1.8-.22 1.76-.14 1.74-.06 1.7.02 1.63.09 1.54.17 1.41.25 1.27.31 1.11.38.97.45.92.54.94.6 1 .68 1.01.74.85.79.51.84.08.92-.26 1.03-.33 1.19-.22 1.31-.23 1.35-.49 1.69" filter="url(#a)"/><path d="m-24.98-82.48 1.29-.56 1.81-.6 2.14-.67 2.31-.64 2.38-.57 2.38-.49 2.33-.4 2.25-.32 2.16-.23 2.1-.15 2.06-.07 2.06.01 2.08.08 2.13.16 2.16.24 2.18.31 2.19.39 2.17.45 2.11.53 2.05.59 1.97.67 1.89.74 1.83.82 1.78.91 1.75.99 1.75 1.07 1.73 1.14 1.68 1.2 1.56 1.27 1.42 1.36 1.29 1.47 1.24 1.62 1.28 1.71 1.33 1.73 1.3 1.68 1.11 1.64" filter="url(#a)"/><path d="m-28.09-81.33 2.89-1.07 2.45-.86 2.11-.69 1.99-.6 2.01-.55 2.11-.5 2.21-.45 2.28-.37 2.34-.3 2.37-.22 2.35-.15 2.34-.07 2.31.01 2.26.09 2.21.17 2.15.24 2.09.31 2.04.38 2.02.46 2.01.53 2.01.61 2 .68 1.96.74 1.91.79 1.84.86 1.8.93 1.81 1.05 1.87 1.18 1.92 1.31 1.9 1.39 1.93 1.49 2.11 1.59" filter="url(#a)"/><path d="m-28.09-81.33 1.86-1.05.38-.86.91-.69 1.99-.59 2.62-.55 2.75-.51 2.67-.45 2.63-.39 2.68-.31 2.82-.25 3-.17 3.19-.09 3.38-.02 3.56.06 3.75.14 3.94.22 4.17.28 4.38.32 4.5.36 4.56.42 4.69.59 4.58.93" filter="url(#a)"/><path d="m-33.53-78.45-2.24-1.18.96-1.04 2.9-1.01 3.32-.92 3.19-.81 2.97-.73 2.78-.66 2.65-.58 2.56-.51 2.49-.42 2.43-.35 2.4-.26 2.38-.18 2.38-.1 2.44-.02 2.53.05 2.68.13 2.86.19 3.05.28 3.24.35 3.4.42 3.51.49 3.53.56 3.51.62 3.42.67 3.34.71 3.48.77 4.7 1m31.13 62.81 2.14 3.35 1.36 2.81 1.9 2.46 2.62 2.4 3.05 2.47 2.83 2.61L90.37.67l.96 2.87.08 2.92-.46 2.93-.66 2.88-.61 2.78-.49 2.69-.39 2.61-.36 2.56-.38 2.53-.4 2.5-.34 2.47-.19 2.44.06 2.39.31 2.32.51 2.27.53 2.2.36 2.16-.02 2.12-.48 2.11-.9 2.09-1.15 2.11-1.19 2.11-1.1 2.14-.99 2.14-.95 2.13-1.02 2.07-1.29 1.96L77.95 67l-2.67 1.78-3.67 2.21" filter="url(#a)"/><path d="m-34.02-78.32-.32-.53-1.35-.86.28-.98 2-.97 2.72-.9 2.79-.82 2.66-.73 2.55-.66 2.52-.59 2.54-.5 2.62-.42 2.71-.34 2.83-.25 2.95-.17 3.05-.09 3.16-.01 3.28.07 3.41.14 3.53.22 3.66.29 3.74.37 3.78.44 3.78.51 3.8.58 3.87.64 4.06.72 4.36.8 4.79.88 5.23.99 5.59 1.07 5.72 1.15 5.62 1.18 5.34 1.15 5.14 1.16 5.41 1.45 7.13 2.6" filter="url(#a)"/><path d="m-37.12-76.58 2.29-1.17 2.75-1.27 2.87-1.16 2.76-1.04 2.51-.93 2.25-.83 2.12-.74 2.09-.65 2.12-.58 2.15-.52 2.14-.46 2.1-.39 2.07-.32 2.03-.24 2-.17 1.97-.09 1.91-.01 1.85.06 1.78.15 1.71.22 1.62.28 1.56.36 1.5.43 1.48.5 1.46.6 1.44.68 1.33.75 1.1.78.77.78.38.68-.02.47" filter="url(#a)"/><path d="m-37.12-76.58 2.24-1.15 2.58-1.26 2.64-1.16 2.6-1.03 2.52-.94 2.47-.83 2.48-.73 2.56-.66 2.65-.59 2.65-.53 2.52-.47 2.27-.4 1.94-.34 1.63-.27 1.37-.2 1.19-.12 1.05-.04.9.03.69.12.41.22.16.29.06.37-.18.31m-42.15 11.68-1.8 1.1-1.86 1.41-2.03 1.61-2.06 1.7-2.13 1.76-2.3 1.82-2.46 1.9-2.49 1.95-2.35 1.98-2.11 2-1.9 2.02-1.8 2.03-1.85 2.07L-69-48.8l-2.13 2.19-2.17 2.28-2.04 2.35-1.78 2.4-1.48 2.43-1.21 2.44-1.07 2.43-1.08 2.42-1.19 2.42-1.32 2.44-1.42 2.47-1.49 2.54-1.53 2.62-1.54 2.66-1.46 2.67-1.24 2.61-.84 2.55-.47 2.59-.48 2.81-1.13 3.1-1.97 2.74" filter="url(#a)"/><path d="m-39.87-74.28-1.76 1.1-2.34 1.41-2.43 1.62-2.25 1.7-2.07 1.76-1.92 1.82-1.83 1.9-1.77 1.95-1.74 1.98-1.73 2.01-1.74 2.01-1.76 2.04-1.78 2.08-1.83 2.13-1.87 2.2-1.9 2.28-1.94 2.34-1.99 2.41-2.07 2.43-2.15 2.43-2.18 2.44-2.14 2.43-2 2.42-1.76 2.45-1.49 2.48-1.26 2.55-1.12 2.6-1.11 2.66-1.18 2.66-1.22 2.62-1.09 2.59-.74 2.63-.32 2.74-.14 2.84-.57 2.64-2 1.96" filter="url(#a)"/><path d="m-39.87-74.36-2.89 1.99-3.17 1.77-4.04 1.67-4.61 1.66-4.49 1.71-3.82 1.78-2.97 1.87-2.28 1.96-1.82 2.05-1.51 2.1-1.26 2.14-1.02 2.16-.9 2.19-.93 2.22-1.14 2.26-1.48 2.31-1.91 2.34-2.36 2.36-2.79 2.38-3.26 2.4-3.75 2.43-4.31 2.47-4.84 2.51-5.19 2.55-5.21 2.58-4.79 2.6-3.96 2.61-2.89 2.61-1.87 2.61-1.22 2.6-1.11 2.57-1.57 2.57-2.31 2.66-2.89 2.76-3.06 2.55-3.43 1.21" filter="url(#a)"/><path d="m-41.52-73.16-1.67 1.26-2.33 1.73-2.41 1.74-2.41 1.76-2.38 1.83-2.31 1.9-2.34 1.96-2.56 1.99-2.92 2.01-3.35 2.02-3.7 2.04-3.91 2.07-3.98 2.13-3.92 2.2-3.82 2.29-3.73 2.35-3.74 2.4-3.81 2.43-3.89 2.44-3.87 2.44-3.67 2.43-3.3 2.43-2.77 2.45-2.21 2.49-1.67 2.54-1.26 2.6-1.05 2.65-1.14 2.65-1.53 2.64-2.03 2.61-2.3 2.64-1.96 2.73-1.18 2.81-.84 2.82-1.89 2.86-4.5 3.69" filter="url(#a)"/><path d="m-41.52-73.16-1.97 1.26-3.73 1.72-4.9 1.74-5.55 1.76-5.82 1.82-5.88 1.9-5.66 1.96-5.03 1.98-4.03 2.01-2.87 2.01-1.83 2.04-1.07 2.06-.63 2.12-.47 2.2-.5 2.27-.64 2.35-.85 2.41-1.17 2.43-1.62 2.44-2.24 2.43-2.95 2.42-3.58 2.42-3.96 2.43-4 2.47-3.77 2.54-3.52 2.61-3.54 2.67-3.93 2.66-4.55 2.61-5.05 2.55-5.15 2.59-4.75 2.81-3.94 3.1-2.27 2.73" filter="url(#a)"/><path d="m-42.92-72.25-.42 1.8-1.53 1.58-1.43 1.62-1.27 1.69-1.13 1.77-.84 1.85-.42 1.96-.1 2.05-.02 2.11-.26 2.13-.64 2.15-1 2.18-1.16 2.21-1.14 2.26-.98 2.3-.79 2.33-.6 2.35-.41 2.37-.14 2.39.24 2.41.71 2.45 1.18 2.51 1.5 2.55 1.59 2.58 1.47 2.58 1.21 2.6.99 2.63.96 2.64 1.11 2.62 1.37 2.45 1.5 2.1 1.19 1.43M74.34-18.36l6.8 1.26-.23 2.36-1.09 2.77-.53 2.87.18 2.89.78 2.87 1.25 2.8 1.51 2.72 1.52 2.65 1.26 2.61.77 2.61.21 2.61-.29 2.62-.6 2.6-.71 2.58-.68 2.58-.56 2.57-.38 2.57-.17 2.55.05 2.52.23 2.46.25 2.41.08 2.35-.21 2.29-.48 2.25-.55 2.22-.45 2.18-.32 2.15-.39 2.07-.71 1.99-1.46 2.42" filter="url(#a)"/><path d="m74.34-18.36.28 1.25.39 2.34.66 2.76 1.03 2.87L78-6.26l1.28 2.86 1 2.8.61 2.71.25 2.63-.03 2.61-.27 2.6-.43 2.6-.54 2.61-.51 2.59-.37 2.58-.16 2.56.05 2.57.18 2.57.17 2.56.01 2.52-.25 2.47-.5 2.41-.67 2.34-.72 2.29-.65 2.21-.59 2.17-.64 2.21-1.07 2.16M-46.08-69.69l-1.61 1.51-1.54 1.54-1.71 1.76-1.75 1.9-1.7 1.97-1.6 1.99-1.51 1.99-1.43 2-1.37 2-1.3 2.02-1.27 2.07-1.23 2.16-1.22 2.25-1.19 2.35-1.14 2.41-1.09 2.44-1.01 2.43-.92 2.42-.84 2.38-.78 2.36-.72 2.33-.68 2.31-.64 2.4-.62 2.67-.63 3.22-.72 4.4" filter="url(#a)"/><path d="m-47.15-68.79-2.77 1.5-2.22 1.78-1.51 1.8-1.5 1.85-1.79 1.98-2.05 2.09-2.22 2.14-2.34 2.16-2.49 2.16-2.65 2.19-2.73 2.22-2.66 2.27-2.4 2.32-2.06 2.34-1.75 2.37-1.57 2.39-1.59 2.4-1.72 2.44-1.88 2.48L-89-25.4l-1.93 2.55-1.83 2.58-1.73 2.6-1.69 2.6-1.7 2.61-1.71 2.61-1.69 2.6-1.62 2.58-1.56 2.59-1.58 2.59-1.67 2.59-1.69 2.54-1.62 2.47-1.63 2.48-1.94 2.6-1.06 2.39" filter="url(#a)"/><path d="m-48.25-67.55-2.09 2.04-1.97 1.85-2.06 1.82-2.43 1.97-2.9 2.11-3.14 2.17-2.95 2.17-2.46 2.16-1.97 2.19-1.72 2.23-1.79 2.27-2.02 2.32-2.26 2.35-2.37 2.37-2.34 2.39-2.22 2.42-2.13 2.44-2.17 2.48-2.31 2.52-2.55 2.55-2.72 2.58-2.75 2.6-2.58 2.6-2.22 2.61-1.84 2.61-1.61 2.6-1.66 2.59-2.07 2.59-2.68 2.58-3.23 2.58-3.47 2.55-3.17 2.53-2.36 2.55-1.33 2.62-.6 2.7-.36 2.69.8 2.36" filter="url(#a)"/><path d="m-50.28-65.5-2.46 1.98-1.43 1.7-1.55 1.93-1.73 2.13-1.71 2.2-1.61 2.18-1.44 2.16-1.32 2.17-1.21 2.22-1.14 2.27-1.11 2.32-1.07 2.35-1.03 2.38-.99 2.38-.93 2.41-.9 2.43-.85 2.48-.83 2.51-.79 2.56-.75 2.58-.68 2.59-.61 2.6-.51 2.61-.44 2.6-.35 2.6-.3 2.59-.24 2.58-.2 2.59-.14 2.57-.08 2.54.01 2.51.12 2.52.21 2.62.28 2.79.46 3.13" filter="url(#a)"/><path d="m-50.28-65.5-2.65 1.97-3.55 1.68-3.29 1.91-2.82 2.13-2.92 2.19-3.51 2.16-4.08 2.14-4.14 2.16-3.58 2.19-2.69 2.26-1.85 2.3-1.4 2.34-1.43 2.36-1.85 2.36-2.38 2.38-2.78 2.41-2.93 2.45-2.91 2.5-2.88 2.54-2.99 2.58-3.25 2.58-3.4 2.59-3.16 2.61-2.6 2.61-2.21 2.58-2.63 2.48-3.65 2.39-4 2.53-4.93 3.69m86.42-69.03-2.59 2.68-1.77 2.05-1.58 1.99-1.52 2.01-1.44 2.02-1.36 2.01-1.27 2.03-1.22 2.11-1.19 2.19-1.16 2.3-1.14 2.38-1.09 2.43-1.04 2.44-.97 2.44-.9 2.43-.84 2.42-.77 2.42-.72 2.43-.66 2.49-.6 2.54-.53 2.6-.45 2.64-.37 2.64-.3 2.63-.21 2.62-.15 2.64-.1 2.72-.04 2.79.03 2.84.12 2.89.19 3.01.24 2.87" filter="url(#a)"/><path d="m-52.73-62.86-1.04 1.06-2.02 1.83-2.44 2.21-2.25 2.25-1.89 2.2-1.66 2.14-1.58 2.16-1.57 2.21-1.56 2.28-1.54 2.32-1.56 2.36-1.66 2.37-1.87 2.38-2.14 2.4-2.41 2.44-2.56 2.47-2.56 2.52-2.36 2.55-2.03 2.58-1.66 2.59-1.31 2.6-1.05 2.61-.87 2.6-.82 2.59-.8 2.59-.78 2.58-.7 2.58-.58 2.57-.58 2.54-.86 2.51-1.4 2.52-1.66 2.62-1.08 2.78-.45 3.13m51.3-82.14-.02 1.06v1.84l-.65 2.2-.92 2.26-.56 2.19.26 2.16 1.22 2.16 1.97 2.21 2.28 2.28 2.05 2.32 1.37 2.36.4 2.37-.66 2.39-1.52 2.41-1.94 2.43-1.75 2.48-.98 2.52.24 2.55 1.59 2.58 2.75 2.6 3.48 2.6 3.65 2.61 3.33 2.6 2.67 2.59 1.97 2.59 1.45 2.59 1.37 2.58 1.76 2.57 2.39 2.55 2.85 2.52 2.78 2.55 2.23 2.61 1.99 2.69 3.09 2.7 6.37 2.35" filter="url(#a)"/><path d="m-54.88-60.68-3.94 1.89-4.94 2.15-4.28 2.08-3.28 2-2.58 2.02-1.91 2.09-1.34 2.21-1.19 2.32-1.67 2.4-2.57 2.45-3.47 2.46-3.85 2.45-3.53 2.43-2.66 2.42-1.73 2.43-1.27 2.46-1.56 2.49-2.58 2.56-4 2.59-5.26 2.64-5.9 2.64-5.63 2.65-4.56 2.66-2.99 2.67-1.45 2.72-.38 2.75-.08 2.75-.66 2.71-1.91 2.63-3.26 2.51-3.68 2.48-2.54 2.67-.84 3.27-1.41 3.96" filter="url(#a)"/><path d="m-54.88-60.68-2.5 1.88-2.98 2.15-2.66 2.07-2.84 1.99-3.66 2-4.3 2.08-4.18 2.19-3.31 2.31-2.09 2.39-.99 2.45-.39 2.45-.38 2.44-.87 2.42-1.62 2.41-2.31 2.41-2.73 2.43-2.83 2.48-2.71 2.53-2.52 2.6-2.3 2.64-2.07 2.64-1.75 2.63-1.39 2.61-1.15 2.64-1.21 2.71-1.58 2.79-2.12 2.83-2.58 2.88-2.9 3.01-3.63 2.86" filter="url(#a)"/><path d="m-54.88-60.68-5.07 1.88-6.96 2.14-6.87 2.06-4.04 1.99-1.35 1.99-.11 2.07-.1 2.19-.6 2.3-1.2 2.39-1.76 2.44-2.35 2.45-2.93 2.44-3.48 2.41-3.9 2.4-4.27 2.39-4.72 2.41-5.37 2.46-6.08 2.53-6.45 2.61-6.03 2.65-4.75 2.65-3.13 2.59-2.13 2.57-2.33 2.6-3.39 2.72-4.27 2.83-4.57 2.62-3.73 1.93" filter="url(#a)"/><path d="m-54.88-60.68-1.89 1.89-2.96 2.15-2.85 2.08-2.53 2-2.57 2.01-2.86 2.09-3.05 2.2-2.96 2.32-2.65 2.4-2.26 2.44-1.99 2.46-1.92 2.45-2 2.43-2.13 2.42-2.22 2.43-2.24 2.44-2.19 2.5-2.13 2.55-2.09 2.59-2.04 2.64-1.98 2.64-1.92 2.64-1.84 2.65-1.77 2.67-1.74 2.72-1.81 2.75-1.99 2.78-2.16 2.73-2.04 2.62-1.45 2.45-.72 2.29-.7 2.47-1.14 3.52m67.8-79.91-2.03 2.56-1.7 2.13-1.52 1.95-1.33 1.95-1.2 2.04-1.12 2.18-1.11 2.3-1.13 2.4-1.14 2.45-1.14 2.45-1.12 2.44-1.06 2.4-1.02 2.39-1 2.38-.97 2.4-.95 2.44-.91 2.52-.81 2.61-.69 2.66-.55 2.65-.44 2.58-.37 2.51-.33 2.56-.26 2.8-.13 3.08-.05 2.7" filter="url(#a)"/><path d="m-58.22-56.16-1.82 1.91-1.2 1.84-1.16 1.89-1.2 2.02-1.22 2.18-1.21 2.32-1.18 2.42-1.14 2.46-1.1 2.46-1.06 2.44-1 2.4-.96 2.39-.93 2.38-.88 2.4-.87 2.45-.84 2.53-.84 2.6-.79 2.65-.72 2.64-.61 2.59-.55 2.55-.54 2.59-.57 2.73-.54 2.82-.37 2.6-.22 1.93" filter="url(#a)"/><path d="m-61.01-52.32-1.83 1.86-1.67 2.03-3.38 2.25-5.32 2.4-6.07 2.49-5.43 2.52-3.99 2.49-2.49 2.46-1.45 2.43-1.09 2.42-1.41 2.43-2.13 2.46-2.92 2.51-3.44 2.57-3.47 2.61-3.08 2.64-2.46 2.65-1.82 2.66-1.34 2.68-1.08 2.69-.96 2.7-.99 2.72-1.14 2.71-1.48 2.68-2.01 2.65-2.58 2.6-3.07 2.57-3.32 2.55-3.35 2.53-3.27 2.47-3.1 2.42-2.77 2.41-2.09 2.48-1.18 2.63-.54 2.89-.99 3.93" filter="url(#a)"/><path d="m-62.28-50.41-3.43 1.58-3.02 2.18-3.39 2.39-2.28 2.43-1.11 2.41-.83 2.39-1.3 2.38-1.93 2.4-2.41 2.43-2.66 2.48-2.75 2.54-2.71 2.57-2.59 2.59-2.38 2.6-2.23 2.61-2.2 2.6-2.32 2.6-2.5 2.6-2.61 2.58-2.52 2.58-2.17 2.58-1.62 2.57-.95 2.57-.34 2.57.09 2.58.19 2.6-.05 2.62-.5 2.61-.87 2.59-.96 2.53-.79 2.5-.73 2.54-1.11 2.73-1.54 3.09-1.24 3.46" filter="url(#a)"/><path d="m-62.28-50.41-2.4 1.55-2.51 2.13-2.31 2.35-3.56 2.4-5.01 2.38-5.4 2.36-4.44 2.33-2.84 2.34-1.53 2.37-1.13 2.43-1.65 2.5-2.64 2.54-3.49 2.57-3.77 2.56-3.49 2.57-2.98 2.58-2.74 2.58-3.13 2.55-4.17 2.5-5.36 2.48-5.82 2.66-4.61 3.12-1.7 3.47" filter="url(#a)"/><path d="m-62.28-50.41-3.45 1.58-1.46 2.17-1.18 2.39-1.31 2.43-1.71 2.41-2.27 2.39-2.67 2.38-2.7 2.39-2.4 2.43-1.93 2.48-1.47 2.53-1.09 2.57-.84 2.59-.76 2.6-.91 2.6-1.28 2.61-1.78 2.6-2.27 2.59-2.57 2.58-2.57 2.58-2.31 2.57-1.84 2.57-1.31 2.56-.83 2.57-.5 2.58-.4 2.6-.58 2.62-1.02 2.63-1.56 2.58-1.91 2.52-1.68 2.44-.86 2.44-.01 2.66.2 3.17" filter="url(#a)"/><path d="m-62.2-50.32-7.04 1.83-.01 2.3.31 2.43-.81 2.53-1.94 2.54-2.77 2.51-3.35 2.46-3.8 2.43-4.14 2.41-4.33 2.43-4.38 2.46-4.24 2.51-3.97 2.57-3.69 2.62-3.46 2.64-3.37 2.66-3.41 2.67-3.48 2.67-3.48 2.7-3.27 2.7-2.81 2.72-2.11 2.7-1.36 2.68-.73 2.65-.41 2.6-.42 2.57-.62 2.55-.74 2.52-.63 2.48-.36 2.47-.16 2.46-.18 2.53-.27 2.63-.05 2.75.29 2.77-.25 2.52-.69 1.89" filter="url(#a)"/><path d="m-62.51-49.31-5.5 2.51-5.01 2.52-2.32 2.47-.87 2.42-.65 2.37-.92 2.35-1.06 2.37-.9 2.41-.6 2.46-.36 2.53-.27 2.56-.32 2.58-.46 2.59-.68 2.59-1.01 2.6-1.39 2.58-1.77 2.58-2.03 2.57-2.07 2.57-1.87 2.56-1.5 2.55-1.09 2.54L-96 8.5l-.81 2.54-.96 2.59-1.05 2.67-.89 2.71-.93 2.74-1.65 3.01" filter="url(#a)"/><path d="m-62.7-49.05-2.24 2.81-2.89 2.5-3.51 2.55-4.22 2.57-4.86 2.52-4.95 2.46-4.39 2.42-3.57 2.41-2.94 2.42-2.58 2.46-2.33 2.51-1.97 2.57-1.49 2.62-1 2.65-.71 2.66-.72 2.67-1.03 2.68-1.54 2.69-2.12 2.71-2.73 2.71-3.28 2.7-3.68 2.68-3.82 2.64-3.54 2.61-2.74 2.57-1.46 2.54-.02 2.52 1.18 2.49 1.61 2.47 1.07 2.49-.28 2.54-1.72 2.62-2.39 2.71-1.67 2.71-.03 2.63.92 2.52-.26 2.94" filter="url(#a)"/><path d="m-64.27-46.7-5.26 2.51-6.49 2.49-5.45 2.41-2.5 2.35-.16 2.34.32 2.36-.74 2.39-2.42 2.47-3.93 2.52-4.87 2.57-5.17 2.59-4.87 2.59-4.11 2.58-3.05 2.59-1.87 2.59-.81 2.57-.12 2.57-.02 2.56-.59 2.56-1.64 2.55-2.82 2.53-3.79 2.52-4.35 2.54-4.49 2.6-4.04 2.66-2.61 2.71-.84 2.74-3.55 3m78.63-68.63-1.37 2.6-1.04 2.75-.94 2.57-.88 2.42-.84 2.36-.8 2.36-.75 2.38-.71 2.41-.69 2.48-.67 2.55-.65 2.62-.6 2.65-.53 2.64-.43 2.64-.33 2.63-.23 2.66-.15 2.7-.09 2.73-.05 2.72-.01 2.68.05 2.61.12 2.55.21 2.53.29 2.59.36 2.65.35 2.47.3 1.91.44 1.55" filter="url(#a)"/><path d="m-66.81-41.44-8.43 2.42-2.62 2.23-1.81 2.3-1.98 2.3-2.28 2.35-2.43 2.43-2.46 2.52-2.49 2.57-2.5 2.57-2.44 2.57-2.41 2.56-2.65 2.56-3.27 2.57-3.97 2.55-4.19 2.53-3.63 2.53-2.68 2.56-2.21 2.57-2.88 2.48-4.25 2.35-4.74 2.45-3.13 3.06" filter="url(#a)"/><path d="m-66.81-41.44-6.74 2.43-2.1 2.24-.67 2.3-.23 2.32-.28 2.36-.67 2.45-1.24 2.53-1.82 2.57-2.25 2.58-2.47 2.58-2.57 2.57-2.58 2.57-2.55 2.58-2.43 2.56-2.25 2.54-2.08 2.55-2.01 2.55-2.08 2.54-2.21 2.51-2.3 2.47-2.22 2.48-1.73 2.59-.54 2.76 1.2 3.09" filter="url(#a)"/><path d="m-66.88-41.54-14.91 3.12-.89 2.62-1.04 2.34-1.78 2.28-1.36 2.33-.59 2.35-.02 2.37.26 2.43.23 2.53-.07 2.61-.67 2.65-1.43 2.63-2.26 2.58-3.06 2.57-3.72 2.61-4.23 2.69-4.54 2.76-4.63 2.79-4.3 2.78-3.42 2.71-2.45 2.37-1.52 1.42M73.45-22.93l4.98 2.03 3.67 2.77 1.63 2.89.26 2.74-.32 2.56-.15 2.47.5 2.49 1.27 2.57 1.96 2.7 2.57 2.81 3.14 2.89 3.69 2.92 4.11 2.88 4.2 2.79 3.92 2.68 3.37 2.57 2.75 2.52 2.21 2.49 1.82 2.51 1.52 2.52 1.28 2.48 1.12 2.4 1.07 2.32 1.19 2.29 1.66 2.32 2.58 2.13 2.5 1.3" filter="url(#a)"/><path d="m-68.21-38.31-2.31 1.62-.69 2.32-.72 2.33-1.25 2.35-1.8 2.45-2.11 2.55-2.08 2.59-1.76 2.59-1.26 2.58-.73 2.58-.33 2.57-.12 2.58-.14 2.56-.34 2.56-.52 2.55-.59 2.54-.47 2.54-.23 2.53-.09 2.5-.22 2.53-.61 2.58-.98 2.66-.95 2.69-.34 2.73.3 2.99" filter="url(#a)"/><path d="m-68.27-37.88-2.52 2.42-3.36 2.22-3.87 2.23-5.09 2.34-6.24 2.38-6.18 2.41-4.59 2.46-2.17 2.56-.06 2.64.95 2.65.79 2.65-.08 2.63-1.11 2.63-1.92 2.66-2.4 2.69-2.67 2.72-2.97 2.72-3.49 2.67-4.15 2.61-4.67 2.55-4.52 2.54-3.53 2.56-2.32 2.56-2.03 2.45-3.25 2.2-4.28 2.15-3.12 2.96" filter="url(#a)"/><path d="m-69.28-35.48-3.07 2.43-3.13 2.12-2.73 2.37-2.63 2.43-2.51 2.43-1.99 2.49-1.15 2.59-.39 2.66-.1 2.68-.35 2.67-.9 2.66-1.47 2.66-1.86 2.69-2.08 2.7-2.26 2.72-2.54 2.7-2.94 2.67-3.35 2.63-3.59 2.59-3.48 2.56-3.02 2.53-2.27 2.51-1.42 2.49-.6 2.48.1 2.5.64 2.54 1.01 2.6 1.16 2.64 1.15 2.64 1.14 2.55 1.12 2.38.86 2.16.09 1.86-.78 1.7" filter="url(#a)"/><path d="m-69.28-35.48-4.92 2.43-4.76 2.12-2.05 2.37-.54 2.42-.07 2.43-.07 2.49-.3 2.58-.69 2.66-1.06 2.68-1.3 2.67-1.33 2.65-1.22 2.66-.99 2.68-.7 2.71-.4 2.71-.12 2.7.07 2.67.12 2.63.03 2.59-.1 2.56-.16 2.53-.14 2.5-.03 2.49.06 2.47.04 2.48-.06 2.54-.2 2.61-.27 2.67-.27 2.67-.15 2.58.14 2.42.65 2.19.47 1.5" filter="url(#a)"/><path d="m-70.43-33.24-2.69 1.67-5.31 2.09-3.39 2.43-1.06 2.61-.38 2.66-.88 2.63-1.49 2.6-1.71 2.6-1.5 2.6-1.15 2.59-.89 2.59-.81 2.58-.83 2.57-.84 2.56-.75 2.56-.57 2.57-.4 2.56-.4 2.58-.63 2.59-1.06 2.6-1.52 2.59-1.81 2.58-1.82 2.56-1.6 2.57-1.27 2.58-.92 2.62-.57 2.61-.1 2.51.45 2.29.93 2.06 1.17 2.1 2.06 2.79" filter="url(#a)"/><path d="m-70.76-31.85-.64.85-1.21 2.38-1.27 2.5-1.22 2.39-1.04 2.43-.73 2.56-.42 2.66-.23 2.69-.23 2.65-.38 2.62-.62 2.62-.79 2.65-.81 2.69-.66 2.72-.38 2.71-.1 2.66.06 2.61.07 2.55-.03 2.53-.16 2.54-.25 2.53-.23 2.45-.06 2.3.25 2.3.58 2.61.55 2.9" filter="url(#a)"/><path d="m-70.76-31.85-.26.86-.79 2.4-.74 2.5-.63 2.4-.55 2.45-.5 2.58-.47 2.66-.39 2.69-.32 2.66-.23 2.64-.15 2.64-.09 2.66-.01 2.7.04 2.72.1 2.7.15 2.67.2 2.62.26 2.57.32 2.54.39 2.53.45 2.5.51 2.46.58 2.42.65 2.42.73 2.49.83 2.63.94 2.81 1.07 2.97 1.07 2.55" filter="url(#a)"/><path d="m-70.76-31.85-3.26.88-3.16 2.41-1.23 2.52-.54 2.42-.67 2.48-.86 2.6-.85 2.67-.67 2.7-.54 2.68-.55 2.67-.74 2.66-.95 2.69-1.07 2.71-1.02 2.72-.83 2.7-.57 2.67-.29 2.63-.04 2.59.17 2.57.31 2.53.37 2.52.35 2.5.29 2.5.24 2.52.23 2.54.31 2.58.46 2.59.63 2.56.75 2.48.76 2.34.59 2.18.25 2.05-.07 1.99-.03 2.06.55 2.17.56 1.86" filter="url(#a)"/><path d="m-70.9-31.92-2.48 2.33-4.68 2.47-3.29 2.7-1.56 2.71-1.07 2.63-1.26 2.59-1.35 2.58-.99 2.6-.37 2.59.13 2.58.26 2.57-.08 2.56-.8 2.56-1.66 2.56-2.43 2.55-2.92 2.56-3.01 2.57-2.72 2.59-2.17 2.6-1.51 2.59-.88 2.57-.32 2.55.12 2.55.45 2.58.56 2.64.37 2.67-.19 2.54-1.05 2.24-1.83 1.8-2.03 1.6" filter="url(#a)"/><path d="m-70.9-31.92-1.81 2.34-5.46 2.49-5.99 2.72-3.22 2.72-.39 2.65.9 2.6.78 2.6-.02 2.6-.91 2.61L-88.65-6l-2.04 2.59-2.12 2.58-1.9 2.57-1.47 2.58-.94 2.57-.45 2.58-.15 2.59-.09 2.59-.27 2.6-.64 2.6-1.06 2.59-1.49 2.58-1.83 2.58-2.06 2.57-2.15 2.56-2.06 2.52-1.73 2.45-1.12 2.37-.19 2.3.87 2.27 1.69 2.31 1.9 2.34 1.45 2.34.79 2.21.2 1.99-1.02 1.86" filter="url(#a)"/><path d="m-71.78-29.16-.99 1.95-1.67 2.81-1.23 2.79-.72 2.63-.46 2.56-.33 2.56-.22 2.59-.11 2.59-.02 2.57.03 2.57v2.55l-.04 2.56-.11 2.55-.17 2.54-.23 2.55-.24 2.57-.21 2.58-.13 2.6v2.59l.14 2.56.29 2.53.46 2.53.65 2.58.85 2.66.94 2.74.82 2.65.51 2.22.3 1.57" filter="url(#a)"/><path d="m-71.88-28.5-.96 3.13-1.09 2.01-1.68 2.25-1.79 2.59-1.29 2.74-.58 2.75.01 2.69.31 2.64.37 2.65.24 2.68.06 2.71-.15 2.72-.34 2.7-.47 2.67-.54 2.63-.52 2.58-.41 2.56-.26 2.53-.08 2.5.07 2.5.17 2.49.24 2.51.3 2.55.41 2.58.54 2.59.67 2.55.79 2.47.85 2.34.9 2.17.97 2.04 1.06 1.99 1.09 2.05.92 2.17.38 1.86" filter="url(#a)"/><path d="m-71.88-28.5-.87 3.13-.69 2.01-.66 2.25-.55 2.59-.44 2.74-.37 2.75-.32 2.69-.31 2.64-.3 2.65-.3 2.68-.29 2.71-.27 2.72-.27 2.7-.26 2.67-.25 2.63-.24 2.58-.19 2.56-.12 2.53-.02 2.5.11 2.5.28 2.49.49 2.51.7 2.55.91 2.58 1.05 2.59 1.1 2.55 1.06 2.47.97 2.34.89 2.17.87 2.04.91 1.99.98 2.05 1.05 2.17 1.08 1.86M73.53-23.07l.41 1.68.68 2.05.91 2.23.92 2.46.82 2.67.81 2.79.96 2.84 1.14 2.84 1.25 2.8 1.19 2.72.98 2.67.74 2.64.54 2.62.45 2.62.5 2.62.64 2.6.84 2.6 1.02 2.58 1.12 2.58 1.05 2.57.79 2.55.39 2.52-.14 2.48-.67 2.41-1.14 2.36-1.44 2.3-1.52 2.25-1.36 2.22-1.03 2.2-.71 2.15-.53 2.07-.36 2-.01 2.42m-9.79-82.89 2.44 1.86 5.36 2.27 5.23 2.66 2.75 2.77.76 2.7.15 2.58.34 2.53.56 2.53.56 2.6.49 2.72.53 2.81.84 2.88 1.42 2.91 2.18 2.86 3.02 2.79 3.73 2.69 4.08 2.61 3.88 2.54 3.07 2.52 1.86 2.51.61 2.5-.24 2.46-.53 2.41-.41 2.34-.35 2.28-.66 2.2-1.07 2.12-.87 2.01.41 1.97 1.95 2.19 1.76 3.14M72.98-24.85l.19 1.86-.78 2.29L71-18.03l-1.3 2.77-.96 2.7-.59 2.6-.24 2.53.09 2.55.34 2.62.43 2.72.34 2.82.11 2.89-.21 2.89-.55 2.86-.89 2.79-1.22 2.7-1.49 2.62-1.72 2.56-1.81 2.52-1.76 2.51-1.56 2.49-1.31 2.46-1.15 2.4-1.14 2.33-1.33 2.27-1.61 2.21-1.78 2.14-1.75 2.09-1.51 2.07-1.23 2.09-1.23 2.11-1.64 2.03-2.28 1.84-2.4 1.64" filter="url(#a)"/><path d="m71.98-27.87 1.17 3.56.94 2.55 1.17 2.3 1.28 2.32 1.13 2.48.83 2.65.55 2.76.38 2.83.31 2.82.31 2.79.32 2.73.35 2.67.41 2.64.48 2.63.56 2.62.58 2.62.55 2.6.4 2.6.16 2.58-.12 2.58-.39 2.57-.6 2.56-.7 2.53-.7 2.47-.63 2.42-.56 2.36-.55 2.3-.66 2.25-.82 2.23-.97 2.21-1 2.17-.74 1.99.36 1.28" filter="url(#a)"/><path d="m71.86-28.61.9 2.99.94 2.4 1.21 2.45 1.23 2.63 1.01 2.7.82 2.67.78 2.57.89 2.52.97 2.52.95 2.58.81 2.69.6 2.79.45 2.88.43 2.92.53 2.88.74 2.81.91 2.68.96 2.58.86 2.5.63 2.49.37 2.52.11 2.56-.13 2.52-.39 2.38-.72 2.18-1.03 2.26-.82 3.12" filter="url(#a)"/><path d="m71.86-28.61 1 2.98.94 2.4.87 2.45.73 2.62.62 2.71.58 2.66.63 2.57.71 2.51.78 2.51.81 2.58.78 2.67.71 2.79.65 2.89.64 2.92.67 2.89.74 2.81.75 2.68.67 2.56.49 2.48.26 2.48.07 2.53-.08 2.59-.14 2.58-.05 2.34.16 1.9.15 1.57" filter="url(#a)"/><path d="m69.99-34.11 1 2.23L72.32-29l1.08 2.8.8 2.65.63 2.62.59 2.65.59 2.67.59 2.63.59 2.59.56 2.54.54 2.54.53 2.6.52 2.68.49 2.79.42 2.87.33 2.91.22 2.9.12 2.81.05 2.7.01 2.57-.05 2.5-.11 2.49-.2 2.53-.25 2.6-.28 2.58-.23 2.35-.17 1.92-.45 1.57m-9.12-72.4 12.97 2.32-1.25 2.14-1.09 2.47 1.89 2.59 4.26 2.55 5.46 2.47 5.67 2.47 5.16 2.54 4 2.63 2.41 2.72.73 2.78-.54 2.8-1.1 2.77-.85 2.73-.03 2.69.98 2.65 1.8 2.63 2.29 2.63 2.48 2.61 2.59 2.61 2.82 2.59 3.17 2.59 3.53 2.58 3.6 2.59 3.24 2.57 2.4 2.55 1.39 2.49.63 2.43.48 2.37.96 2.3 1.4 2.2.73 2.14-1.98 2.67" filter="url(#a)"/><path d="m69.1-36.66 1.08 2.32 1.29 2.57 1.88 2.75 2.18 2.75 1.89 2.68 1.24 2.65.56 2.67.09 2.67-.04 2.64.13 2.6.5 2.57.94 2.59 1.29 2.63L83.55.14l1.28 2.8.92 2.86.47 2.89.08 2.86-.14 2.8-.16 2.71-.06 2.62.08 2.55.21 2.53.28 2.53.28 2.51.24 2.49.15 2.42.02 2.35-.16 2.3-.45 2.27-.76 2.16-.79 1.97-.76 2.17" filter="url(#a)"/><path d="m69.33-35.47.66 1.56.26 1.86-.3 2.12-.83 2.38-1.25 2.51-1.66 2.48-2.2 2.44-2.85 2.42-3.41 2.47-3.65 2.58-3.54 2.68-3.33 2.76-3.32 2.8-3.61 2.79-3.95 2.72-3.93 2.62-3.4 2.56-2.66 2.56-2.42 2.63-3.1 2.7-4.16 2.74-3.93 2.74-2.53 2.73" filter="url(#a)"/><path d="m69.33-35.47 1.09 1.58 2.3 1.9 2.76 2.16 2.07 2.42 1.25 2.52.86 2.51.8 2.48.8 2.48.72 2.54.58 2.63.48 2.71.46 2.77.54 2.79.65 2.77.76 2.73.82 2.68.83 2.65.75 2.63.59 2.63.37 2.62.15 2.6-.02 2.59-.07 2.58-.02 2.58.11 2.6.22 2.59.25 2.56.15 2.49-.1 2.44-.38 2.41-.44 2.48-.46 3.26" filter="url(#a)"/><path d="m69.33-35.47 1.57 1.56 1.83 1.88 1.9 2.13 1.86 2.39L78.14-25l1.41 2.49 1.25 2.45 1.16 2.44 1.08 2.49.94 2.59.79 2.69.69 2.77.7 2.79.83 2.78.98 2.72 1.06 2.65 1.04 2.59.91 2.59.74 2.63.56 2.64.44 2.63.42 2.52.38 2.32-.01 2.14-1.24 2.53M68.68-37.88l2.45 1.57 1.83 2.09 2.35 2.46 3.46 2.65 4.01 2.68 3.59 2.66 2.54 2.64 1.48 2.66.86 2.66.77 2.62 1.09 2.59 1.64 2.55 2.26 2.55 2.75 2.59 2.94 2.68 2.8 2.78 2.41 2.87 2.05 2.93 1.95 2.91 2.12 2.84 2.25 2.7 1.95 2.57 1.06 2.45.03 2.43-.24 2.54.93 2.76 2.85 2.93 2.53 2.84m-56.71-73.2L63.8-36.3l-2.46 2.09 1.26 2.46 1.81 2.65 1.18 2.68.73 2.67.64 2.65.5 2.66.05 2.65-.74 2.63-1.64 2.59-2.35 2.56-2.67 2.56-2.57 2.6-2.2 2.69-1.75 2.78-1.39 2.87-1.11 2.91-.91 2.91-.76 2.82-.78 2.71-1.06 2.58-1.64 2.48-2.38 2.47-2.98 2.55-3.07 2.67-2.64 2.7-2.09 2.44-1.88 1.63" filter="url(#a)"/><path d="m64.25-46.73 2.34 3.52 2.7 2.62 2.34 2.16 1.59 2.04 1.01 2.16.92 2.34 1.37 2.49 2.2 2.58 3.08 2.61 3.69 2.63 3.83 2.64 3.43 2.65 2.71 2.62 1.91 2.58 1.32 2.51 1.14 2.49 1.38 2.5 1.92 2.58 2.53 2.72 2.91 2.9 2.75 3.1 2.1 3.16 1.84 2.89 4.26 2.26M63.58-47.97l3.87 2.75 2.74 2.7 3.63 2.68 4.61 2.58 5.6 2.43 6.18 2.34 6.02 2.34 5.09 2.39 3.74 2.43 2.27 2.45 1.04 2.45.37 2.45.49 2.51 1.46 2.58 2.95 2.67 4.39 2.76 5.24 2.8 5.17 2.8 4.39 2.74 3.44 2.64 2.97 2.57 3.45 2.56 4.79 2.63 5.87 2.73 4.16 2.77-2.56 2.72" filter="url(#a)"/><path d="m62.58-49.71 3.53 3.18 6.39 3.07 5.8 2.62 3.63 2.29 1.58 2.17.18 2.25-.48 2.37-.47 2.5.03 2.58.69 2.63 1.24 2.65 1.51 2.65 1.49 2.66 1.31 2.63 1.17 2.6 1.12 2.57 1.19 2.57 1.33 2.61 1.47 2.68 1.6 2.78 1.72 2.87 1.86 2.94 1.93 2.93 1.88 2.86 1.63 2.73 1.25 2.56.85 2.43.47 2.39-.06 2.51-.56 2.82.88 3.29" filter="url(#a)"/><path d="m62.98-48.94.53.64 2.13 2.22 3.15 2.62 3.12 2.5 2.4 2.33 1.73 2.25 1.48 2.3 1.6 2.4 1.76 2.5 1.75 2.58 1.56 2.63 1.28 2.65 1.04 2.67.88 2.65.81 2.64.75 2.62.7 2.61.69 2.62.76 2.65.94 2.72 1.21 2.79 1.47 2.85 1.66 2.88 1.7 2.87 1.55 2.81 1.25 2.73.8 2.64.34 2.57-.05 2.54-.2 2.54-.02 2.55.44 2.52 1.02 2.43 1.34 2.32.89 2.35-.38 2.58-.66 2.61" filter="url(#a)"/><path d="m60.62-52.72 4.39 2.46 5.35 1.94 3.21 2.28.7 2.48-.27 2.43.08 2.31 1.01 2.26 1.95 2.29 2.66 2.38 3.08 2.47 3.27 2.56 3.27 2.61 3.04 2.64L95-18.96l2.12 2.65 1.67 2.63 1.4 2.6 1.37 2.56 1.55 2.55 1.78 2.58 1.9 2.66 1.81 2.76 1.53 2.89 1.23 2.99 1.14 3.02 1.45 2.94 2.17 2.79 2.72 2.55 1.76 2.1-1.9.91" filter="url(#a)"/><path d="m60.62-52.72 3.19 2.46 2.47 1.94 2.21 2.29 2.71 2.48 2.9 2.43 2.41 2.32 1.57 2.26.95 2.29.79 2.39 1.02 2.48 1.42 2.55 1.72 2.61 1.87 2.64 1.85 2.66 1.74 2.65 1.65 2.63 1.6 2.6 1.63 2.57 1.75 2.57 1.91 2.59 2.01 2.67 1.99 2.77 1.79 2.88 1.47 2.97 1.11 2.98.78 2.91.48 2.76.19 2.55-.04 2.3v2.17l.67 3" filter="url(#a)"/><path d="m60.62-52.72 3.99 2.46 1.09 1.95 1.12 2.3 1.48 2.48 1.56 2.43 1.54 2.32 1.61 2.28 1.89 2.3 2.35 2.39 2.88 2.48 3.37 2.57 3.73 2.61 3.92 2.65 3.96 2.65 3.85 2.65 3.72 2.64 3.63 2.6 3.65 2.59 3.71 2.58 3.72 2.62 3.54 2.69 3.16 2.78 2.71 2.87 2.39 2.93 2.47 2.94 3.03 2.86 3.88 2.74 4.66 2.57 4.84 2.44 4.02 2.4 2.15 2.52.02 2.82 1.4 3.29" filter="url(#a)"/><path d="m59.95-53.46 9.37 1.28 2.59 2-.97 2.33-1.23 2.51-.15 2.59 1.11 2.6 2.09 2.54 2.67 2.46 2.82 2.41 2.66 2.38 2.32 2.41 1.92 2.42 1.53 2.45 1.25 2.45 1.12 2.47 1.21 2.51 1.52 2.58 1.9 2.67 2.2 2.76 2.26 2.82 2.13 2.81 2.01 2.76 2.06 2.64 2.18 2.55 2.12 2.54 1.69 2.65 1.29 2.75 2.92 3.04" filter="url(#a)"/><path d="m59.06-55.56 2.42 2.72 2.1 2.26 2.32 2.16 2.27 2.3 2.16 2.41 2.26 2.39 2.57 2.3 2.91 2.24 3.13 2.27 3.2 2.35 3.23 2.45 3.31 2.53 3.57 2.59 3.95 2.62 4.26 2.65 4.36 2.66 4.09 2.64 3.53 2.59 2.84 2.51 2.26 2.45 2.06 2.44 2.57 2.48 3.72 2.54 4.18 2.73 1.17 3.54M58.97-55.43l-2.77 1.62-5.38 1.67-2.64 1.97.46 2.26 2.04 2.44L53-42.92l1.85 2.57.95 2.52-.21 2.45-1.41 2.39-2.33 2.37-2.77 2.39-2.75 2.42-2.5 2.43-2.38 2.42-2.63 2.41-3.16 2.44-3.6 2.52-3.63 2.64-3.26 2.75-2.9 2.9-2.91 3.06L16.6.95l-1.94 2.74" filter="url(#a)"/><path d="m58.97-55.43-.55 1.62.72 1.68.76 1.99-.22 2.27-1.22 2.45-1.45 2.55-1 2.57-.42 2.53-.28 2.46-.73 2.4-1.53 2.38-2.32 2.4-2.82 2.42-2.94 2.44-2.79 2.44-2.6 2.44-2.55 2.47-2.71 2.56-3.09 2.65-3.46 2.77-3.61 2.87-3.34 2.91L18.06.68l-2.19 2.53-1.57 1.96-2.53 1.22m45.91-63.36 5.28 1.87 2.11 2.25 2.62 2.22 3.08 2.23 3.02 2.34 2.58 2.39 2.04 2.37 1.7 2.33 1.74 2.3 2.05 2.32 2.44 2.39 2.72 2.47 2.79 2.55 2.71 2.6 2.56 2.64 2.43 2.65 2.28 2.65 2.11 2.63 1.93 2.61 1.77 2.57 1.73 2.56 1.84 2.59 2.1 2.66 2.44 2.77 2.71 2.89 2.75 2.99 2.4 3.02 1.74 2.95 1.28 2.8 1.69 2.56 2.69 2.1.66.92" filter="url(#a)"/><path d="m57.68-56.97 1.52 1.88 1.56 2.26 1.57 2.23 1.78 2.25 2.06 2.34 2.14 2.4 1.9 2.38 1.48 2.33 1.04 2.32.72 2.35.63 2.41.72 2.49.93 2.55 1.15 2.61 1.31 2.64 1.34 2.66 1.23 2.65 1.01 2.64.78 2.62.62 2.61.59 2.61.68 2.64.83 2.71.95 2.79.96 2.86.82 2.9.6 2.9.36 2.84.17 2.74-.01 2.62-.18 2.52-.39 2.5-.56 2.57-.59 2.68-.34 2.72.12 2.46-.17 1.65" filter="url(#a)"/><path d="m55.97-59.17 1.57 1.99 1.51 2.09 1.46 2.19 1.39 2.2 1.35 2.26 1.3 2.32 1.25 2.38 1.17 2.36 1.09 2.32 1.02 2.31.96 2.33.9 2.39.85 2.47.78 2.54.72 2.6.64 2.63.56 2.65.51 2.66.44 2.63.38 2.61.32 2.57.25 2.55.2 2.58.12 2.64.05 2.77-.03 2.9-.11 3.01-.18 3.06-.25 2.99-.31 2.87-.39 2.82-.4 2.82M55.14-60.28 54.1-57.9l.55 2.03-.62 1.86-1.14 1.9-.58 2.05.44 2.25 1.31 2.41 1.8 2.5 1.89 2.54 1.65 2.52 1.19 2.47.56 2.44-.13 2.42-.78 2.42L59-25.66l-1.42 2.45-1.34 2.46-1.06 2.48-.76 2.53-.61 2.59-.64 2.67-.84 2.76-1.07 2.82-1.21 2.82L48.76.68l-1.42 2.66-1.75 2.56-2.21 2.56-2.48 2.66-2.14 2.75-.34 3.05m16.23-78.08 1.52 1.96 2.51 2.01 4.42 2.1 6.01 2.16 6.33 2.21 5.3 2.27 3.53 2.33 1.96 2.36 1.32 2.35 1.74 2.34 2.87 2.32 4.06 2.35 4.61 2.41 4.21 2.47 2.97 2.55 1.35 2.6.01 2.63-.52 2.65-.1 2.65 1.08 2.64 2.5 2.61 3.63 2.59 4.15 2.58 3.99 2.62 3.43 2.67 2.89 2.78 2.65 2.89 2.73 2.96 2.94 2.99 2.97 2.92 2.77 2.78 2.45 2.56 2.18 2.31 1.95 2.18 1.86 3.01" filter="url(#a)"/><path d="m54.65-61.16 1.46 1.96 1.48 2 1.47 2.1 1.43 2.17 1.39 2.2 1.34 2.26 1.3 2.33 1.25 2.36 1.17 2.35 1.08 2.34.99 2.32.91 2.34.85 2.41.8 2.47.77 2.54.73 2.6.68 2.63.62 2.65.57 2.65.5 2.64.42 2.61.35 2.58.27 2.57.19 2.6.12 2.66.05 2.78-.03 2.89-.1 2.99-.19 3.02-.26 2.96-.34 2.8-.4 2.57-.39 2.11-.27.92" filter="url(#a)"/><path d="m53.48-62.26 2.39 2.1 3.14 2.15 2.36 2 1.6 1.92 1.46 1.94 1.69 2.08 1.94 2.23 2.13 2.39 2.38 2.49 2.75 2.52 3.2 2.51 3.51 2.48 3.54 2.43 3.21 2.43 2.66 2.42 2.09 2.43 1.72 2.45 1.64 2.46 1.76 2.47 1.99 2.52 2.19 2.58 2.34 2.68 2.5 2.76 2.68 2.83 2.89 2.85L116.4.63l3.44 2.65 3.44 2.51 2.73 2.52 1.47 2.69 2.61 2.02" filter="url(#a)"/><path d="m54.06-61.59.99.96 2.58 1.59 4.69 1.88 5.47 2.04 4.73 2.14 3.49 2.19 2.58 2.26 2.09 2.32 1.87 2.34 1.75 2.35 1.79 2.33 2.06 2.32 2.56 2.34 3.12 2.4 3.53 2.47 3.67 2.53 3.56 2.59 3.31 2.63 3.09 2.66 3.03 2.65 3.14 2.64 3.25 2.61 3.18 2.57 2.79 2.54 2.14 2.57 1.4 2.63.8 2.76.41 2.91.29 3.05.56 3.11 1.57 2.99 3.48 2.8 4.72 3.01" filter="url(#a)"/><path d="m51.51-64.4 2.94 2.06 2.27 1.62 2.46 1.71 3.51 1.88L67-55.11l4.39 2.12 3.87 2.19 3.07 2.25 2.25 2.32 1.59 2.34 1.16 2.34.93 2.33.92 2.34 1.07 2.35 1.38 2.41 1.75 2.47 2.13 2.53 2.37 2.6 2.44 2.63 2.37 2.65 2.27 2.65 2.27 2.64 2.43 2.61 2.72 2.58 3.02 2.57 3.19 2.59 3.14 2.65 2.86 2.77 2.46 2.9 2.09 3.02 1.83 3.07 1.71 3 1.48 2.87.86 2.83.35 2.83" filter="url(#a)"/><path d="m49.98-65.73 2.48 1.93 2.31 1.8 1.84 1.91 1.43 1.97 1.24 1.95 1.27 1.95 1.48 1.99 1.75 2.09 1.96 2.23 2 2.36 1.86 2.45 1.6 2.5 1.32 2.5 1.1 2.47.99 2.45.97 2.42.96 2.42.91 2.44.79 2.44.6 2.46.44 2.46.37 2.5.41 2.56.54 2.67.71 2.78.84 2.87.92 2.92.89 2.86.78 2.56.64 1.98.47 1.23" filter="url(#a)"/><path d="m49.98-66.04 1.77 1.79 1.76 1.75 1.62 1.68 1.55 1.73 1.51 1.86 1.54 1.98 1.6 2.07 1.63 2.16 1.61 2.23 1.53 2.28 1.41 2.33 1.28 2.33 1.18 2.3 1.09 2.29 1.04 2.29.99 2.35.94 2.43.89 2.52.85 2.57.83 2.62.84 2.65.84 2.71.82 2.74.74 2.66.6 2.44.51 2.13.4 1.81" filter="url(#a)"/><path d="m47.78-67.87 2.03 1.77 2.07 1.79 2.27 1.73 2.57 1.71 2.84 1.77 3.11 1.87 3.42 1.97 3.83 2.08 4.23 2.15 4.47 2.23 4.41 2.28 4.09 2.33 3.63 2.32 3.22 2.31 3.05 2.3 3.15 2.32 3.46 2.36 3.82 2.44 4.03 2.52 4.01 2.57 3.78 2.63 3.58 2.66 3.73 2.7 4.44 2.7 5.56 2.64 6.23 2.49 5.16 2.35 2.25 2.44 1.9 3.15" filter="url(#a)"/><path d="m47.78-67.87 2.3 1.77 3.05 1.79 3.56 1.73 3.74 1.71 3.8 1.77 3.9 1.87 4.19 1.97 4.63 2.08 5.1 2.15 5.33 2.23 5.14 2.28 4.49 2.33 3.47 2.32 2.38 2.31 1.51 2.3 1.14 2.32 1.37 2.36 2.15 2.44 3.19 2.52 4.11 2.57 4.48 2.63 4.07 2.66 3.01 2.7 1.83 2.7 1.24 2.64 1.84 2.49 3.59 2.35 5.63 2.44 5.23 3.15" filter="url(#a)"/><path d="m47.78-67.87 10.65 1.77 10.97 1.79 4.3 1.73.37 1.71.33 1.77 2.26 1.87L81-55.26l5.62 2.08 5.93 2.15 5.42 2.23 4.28 2.28 2.78 2.33 1.29 2.32.22 2.31-.14 2.3.26 2.32 1.25 2.36 2.49 2.44 3.61 2.52 4.32 2.57 4.56 2.63 4.56 2.66 4.77 2.7 5.59 2.7 6.83 2.64 7.63 2.49 6.86 2.35 4.18 2.44 1.37 3.15" filter="url(#a)"/><path d="m47.51-68.45 12.15 1.37 4.82 1.53 1.08 1.65-.2 1.76.37 1.85 1.71 1.9 2.94 1.9 3.73 1.91 4.19 1.94 4.55 2.02 4.78 2.15 4.73 2.3 4.36 2.43 3.93 2.52 3.86 2.53 4.4 2.47 5.32 2.35 6.02 2.25 6.13 2.28 5.98 2.51 6.02 2.75 3.22 2.09M47.51-68.45l1.74 1.37 2.47 1.53 3.33 1.65 3.12 1.76 2.21 1.85 1.4 1.9 1.09 1.9 1.33 1.91 1.89 1.94 2.47 2.02 2.88 2.15 3.01 2.3 2.84 2.43 2.47 2.52 2.04 2.53 1.7 2.47 1.47 2.35 1.34 2.25 1.23 2.28 1.25 2.51 1.64 2.75 2.29 2.09" filter="url(#a)"/><path d="m45.98-69.49 1.95 1.63 1.97 1.72 1.92 1.74 1.82 1.72 1.78 1.72 1.88 1.76 2.04 1.86 2.15 1.96 2.11 2.05 1.92 2.13 1.64 2.21 1.39 2.28 1.23 2.31 1.2 2.33 1.23 2.3 1.28 2.26 1.32 2.27 1.34 2.32 1.4 2.43L79-27.97l1.52 2.57 1.56 2.57 1.55 2.59 1.45 2.77 1.16 3.16.75 3.51M44.93-70.52l2.58 1.77 1.81 1.59 2.1 1.61 2.73 1.68 3.34 1.78 3.81 1.85 4.08 1.9 4.27 1.93 4.39 1.94 4.41 1.99 4.33 2.08 4.24 2.2 4.26 2.32 4.46 2.43 4.67 2.48 4.64 2.5 4.22 2.47 3.62 2.42 3.29 2.4 3.62 2.41 4.61 2.44 5.72 2.46 6.22 2.43 5.79 2.35 5.18 2.34 5.73 2.5 7.35 2.86 5 2.75" filter="url(#a)"/><path d="m42.9-72.35 3.16 1.78 4.15 1.7 2.91 1.62 1.73 1.63 1.66 1.69 2.34 1.76 3.07 1.84 3.39 1.89 3.21 1.91 2.72 1.93 2.19 1.97 1.91 2.06 2 2.18 2.52 2.3 3.37 2.43 4.41 2.49 5.4 2.51 6.04 2.47 6.13 2.4 5.64 2.35 4.8 2.38 3.92 2.48 3.16 2.58 2.69 2.55 3 2.22 3.54 1.37" filter="url(#a)"/><path d="m39.86-74.71 3.83 2.95 2.35 2.04 2.05 1.78 2.05 1.74 2.1 1.72 2.09 1.73L56.31-61l1.81 1.8 1.66 1.88 1.57 1.97 1.54 2.06 1.59 2.14 1.68 2.21 1.81 2.28 1.97 2.31 2.1 2.32 2.19 2.31 2.17 2.31 2.02 2.32 1.74 2.36 1.39 2.44 1.04 2.52.82 2.58.75 2.62.85 2.67 1.06 2.72 1.36 2.74 1.65 2.68 1.77 2.45 1.31 2.15-.24 1.82" filter="url(#a)"/><path d="m40.13-74.55 1.25 1.02 2.33 1.86 2.44 1.86 2.41 1.8 2.28 1.75 2.06 1.73 1.85 1.74 1.72 1.76 1.67 1.81 1.65 1.88 1.6 1.97 1.52 2.05 1.42 2.14 1.38 2.21 1.37 2.27 1.41 2.31 1.45 2.32 1.51 2.32 1.57 2.31 1.62 2.32 1.68 2.37 1.7 2.44 1.67 2.52 1.57 2.58 1.43 2.62 1.28 2.67 1.12 2.72.95 2.75.74 2.68.53 2.46.4 2.15.44 1.82M40.13-74.55l2.26 1.01 4.65 1.85 4.98 1.86 4.46 1.78 3.56 1.75 2.58 1.73 1.76 1.72 1.32 1.75 1.25 1.79 1.36 1.86 1.52 1.95 1.61 2.04 1.68 2.12 1.84 2.2 2.14 2.27 2.57 2.31 3.01 2.32 3.38 2.31 3.61 2.27 3.74 2.26 3.77 2.32 3.82 2.43 3.88 2.54 3.9 2.58 3.77 2.53 3.71 2.49 4.38 2.71 4.59 3.23" filter="url(#a)"/><path d="m37.16-76.33 3.68 2.1 3.92 1.82 3.32 1.73L50.93-69l2.9 1.66L57-65.67l3.36 1.72 3.27 1.78 2.9 1.84 2.38 1.88 1.85 1.92 1.44 1.95 1.22 2.01 1.21 2.1 1.4 2.2 1.71 2.31 2.07 2.41 2.4 2.48 2.64 2.49 2.77 2.47 2.82 2.44 2.78 2.41 2.69 2.42 2.5 2.45 2.19 2.46 1.88 2.44 1.68 2.37 1.75 2.35 1.98 2.51 1.94 2.85.6 2.77" filter="url(#a)"/><path d="m37.16-76.33 4.12 2.09 5.56 1.82 4.8 1.72 3.79 1.68 3.33 1.65 2.97 1.67 2.4 1.7 1.72 1.77 1.3 1.83 1.33 1.88 1.78 1.9 2.35 1.94 2.76 1.99 2.92 2.07 2.91 2.18 2.97 2.3 3.29 2.41 3.92 2.5 4.58 2.51 4.9 2.47 4.55 2.41 3.57 2.36 2.49 2.39 2.04 2.48 2.63 2.59 3.84 2.55 4.73 2.23 5.8 1.38" filter="url(#a)"/><path d="m37.01-76.53 2.97 1.51 2.23 1.57 2.48 1.77 2.75 1.81 2.84 1.78 2.73 1.75 2.55 1.74 2.33 1.74 2.12 1.76 1.91 1.81 1.75 1.88 1.63 1.96 1.58 2.04 1.62 2.13 1.75 2.2 1.96 2.27 2.22 2.31 2.48 2.32 2.66 2.31 2.69 2.3 2.57 2.3 2.34 2.35 2.08 2.44 1.94 2.51 2 2.58 2.28 2.61 2.62 2.65 2.8 2.76 2.62 2.91 2.19 2.83.73 1.97" filter="url(#a)"/><path d="m37.45-76.28 1.71.4 2.29 1.06 2.2 1.46 2.58 1.68 3.02 1.75 3.22 1.77 3.06 1.75 2.61 1.74 1.99 1.74 1.43 1.76 1.09 1.8 1.07 1.87 1.29 1.95 1.66 2.04 2.03 2.11 2.3 2.2 2.41 2.27 2.36 2.31 2.15 2.32 1.87 2.3 1.63 2.28 1.51 2.28 1.58 2.33 1.76 2.43 1.95 2.54 2.02 2.58 1.9 2.54 1.69 2.5 1.84 2.71 2.93 3.24" filter="url(#a)"/><path d="m30.41-80.41 2.83 1.71 2.54 1.61 2.23 1.51 2.12 1.55 2.05 1.6 1.94 1.65 1.81 1.66 1.71 1.68 1.64 1.69 1.61 1.74 1.58 1.78 1.56 1.84 1.49 1.88 1.43 1.92 1.34 1.96 1.27 2.03 1.24 2.11 1.21 2.21 1.22 2.3 1.19 2.4 1.16 2.47 1.09 2.48.99 2.48.89 2.45.78 2.43.68 2.44.59 2.45.5 2.46.42 2.44.33 2.41.26 2.42.23 2.51.23 2.68.26 2.7.18 2.32" filter="url(#a)"/><path d="m30.44-80.21 4.22 1.62 4.3 1.35 4.81 1.2 4.03 1.27 2.78 1.45 1.89 1.59 1.61 1.69 1.82 1.73 2.41 1.74 3.29 1.73 4.31 1.74 5.29 1.75 6.07 1.79 6.54 1.85 6.64 1.93 6.28 2.01 5.41 2.1 4.14 2.18 2.74 2.27 1.77 2.33 1.77 2.35 2.87 2.31 4.63 2.22 6.21 2.13 6.9 2.17 6.75 2.42 6.47 2.93 7.6 3.51" filter="url(#a)"/><path d="m29.06-80.77 2.76.82 3.4 1.35 3.09 1.47 2.86 1.5 2.67 1.54 2.42 1.59 2.17 1.63 2.01 1.65 2.01 1.67 2.15 1.69 2.34 1.72 2.46 1.77 2.42 1.82 2.24 1.87 2.02 1.9 1.89 1.94 1.91 2 2.06 2.07 2.27 2.17 2.39 2.3 2.4 2.41 2.33 2.49 2.28 2.52 2.33 2.49 2.44 2.41 2.5 2.35 2.4 2.37 2.11 2.51 1.72 2.7 1.47 2.75 1.11 2.94" filter="url(#a)"/><path d="m29.06-80.77 1.86.82 2.43 1.35 2.4 1.46 2.28 1.5 2.2 1.54 2.16 1.59 2.09 1.63 1.98 1.65 1.87 1.66 1.77 1.69 1.69 1.72 1.65 1.76 1.63 1.82 1.6 1.87 1.58 1.89 1.53 1.94 1.49 1.98 1.46 2.06 1.44 2.17 1.41 2.29 1.38 2.42 1.32 2.5 1.22 2.54 1.13 2.49 1.03 2.4.94 2.3.89 2.31.89 2.53.9 2.77.59 2.13" filter="url(#a)"/><path d="m29.38-80.98 7.3 1.06 1.28 1.32.82 1.28 1.69 1.24 2.47 1.31 2.91 1.45 3.14 1.58 3.26 1.68 3.26 1.71 3.07 1.74 2.74 1.73 2.44 1.74 2.34 1.76 2.52 1.79 2.88 1.86 3.23 1.93 3.44 2.01 3.45 2.1 3.33 2.18 3.27 2.26 3.29 2.33 3.34 2.36 3.22 2.31 2.85 2.23 2.57 2.13 2.98 2.17 4.36 2.43 5.71 2.93 4.87 3.51" filter="url(#a)"/><path d="m29.38-80.98 3.01 1.05 2.87 1.31 4.06 1.27 4.57 1.23 3.97 1.29 3.05 1.43 2.53 1.56 2.66 1.66 3.34 1.71 4.35 1.73 5.47 1.72 6.36 1.72 6.73 1.72 6.37 1.75 5.46 1.81 4.44 1.9 3.92 1.98 4.26 2.05 5.39 2.12 6.89 2.22 8.1 2.41 8.2 2.66 6.74 2.68 6.22 2.12M29.38-80.98l1.3 1.05 1.95 1.32 1.94 1.27 1.61 1.24 1.32 1.3 1.2 1.44 1.26 1.57 1.43 1.66 1.62 1.72 1.71 1.73 1.69 1.72 1.53 1.73 1.31 1.74 1.06 1.77.81 1.83.6 1.91.4 1.99.26 2.08.21 2.16.25 2.25.42 2.38.67 2.45.83 2.41.76 2.17.16 1.91-1.06 2.07" filter="url(#a)"/><path d="m29.38-80.98 1.65 1.06 2.27 1.32 2.24 1.27 2.18 1.24 2.26 1.3 2.43 1.44 2.55 1.58 2.59 1.67 2.57 1.71 2.45 1.73 2.29 1.73 2.07 1.73 1.86 1.75 1.68 1.78 1.6 1.84 1.56 1.91 1.56 2 1.53 2.09 1.48 2.17 1.48 2.26 1.57 2.35 1.77 2.41 2.01 2.36 2.18 2.18 2.15 1.96 1.79 1.83.98 1.69M28.41-81.34l-.02.59.64.92.99 1.23.87 1.38.63 1.45.65 1.51.95 1.56 1.2 1.6 1.17 1.62.81 1.63.34 1.65.04 1.67.06 1.72.29 1.79.46 1.85.37 1.89.01 1.87-.43 1.82-.76 1.83-1.13 1.94-1.89 2.2-3.26 2.54" filter="url(#a)"/><path d="m26.21-82.28 2.56 1.17 2.31 1.22 2.44 1.28 2.5 1.27 2.56 1.27 2.75 1.35 2.98 1.47 3.14 1.58 3.1 1.67 2.88 1.71 2.53 1.74 2.2 1.74 1.94 1.76 1.8 1.79 1.74 1.82 1.73 1.89 1.74 1.95 1.79 2.04 1.86 2.12 1.92 2.19 1.95 2.26 1.94 2.31 1.93 2.32 1.93 2.31 2.04 2.31 2.24 2.3 2.54 2.36 2.86 2.44 3.07 2.52 3.03 2.59 2.65 2.59 2.05 2.62 1.43 2.8 1.11 3.18 1.68 3.54" filter="url(#a)"/><path d="m26.21-82.28 3.11 1.17 3.67 1.22 3.38 1.28 2.85 1.27 2.59 1.28 2.57 1.35 2.53 1.47 2.33 1.58 2.02 1.67 1.76 1.71 1.67 1.74 1.79 1.75 2.04 1.76 2.29 1.79 2.44 1.83 2.45 1.89 2.35 1.96 2.19 2.04 2.05 2.12 1.94 2.2 1.94 2.26 2 2.3 2.12 2.32L82.52-40l2.28 2.31 2.27 2.32 2.2 2.37 2.12 2.44 2.03 2.52 1.91 2.58 1.77 2.62 1.69 2.66 1.75 2.78 1.98 2.91 2.33 2.84 2.83 1.99" filter="url(#a)"/><path d="m26.21-82.28 2.73 1.16 2.83 1.22 3.1 1.27 2.77 1.27 2.3 1.26 1.97 1.34 1.86 1.46 1.88 1.57 1.95 1.66 2.03 1.71 2.15 1.73 2.3 1.74 2.46 1.75 2.6 1.76 2.67 1.81 2.61 1.86 2.42 1.94 2.18 2.02 1.95 2.1 1.85 2.19 1.89 2.26 2.07 2.32 2.24 2.34 2.32 2.31 2.24 2.25 2.06 2.2 1.96 2.25 2.1 2.45 2.47 2.75 2.94 2.93 3.22 2.47" filter="url(#a)"/><path d="m24.89-82.62 3.17.99 1.7.86 1.73 1.01 2.02 1.21 2.2 1.35 2.27 1.44 2.32 1.51 2.36 1.56 2.36 1.61 2.32 1.62 2.23 1.65 2.13 1.66 2.05 1.69 2 1.74 1.96 1.8 1.92 1.84 1.84 1.88 1.7 1.89 1.59 1.89 1.57 1.92 1.7 2.04 1.93 2.21 2.07 2.4 1.94 2.46 1.39 2.19" filter="url(#a)"/><path d="m23.55-83.2 2.82.74 3.16.82 2.83.9 2.85 1.04 3.09 1.21 3.31 1.34 3.46 1.43 3.44 1.52 3.34 1.57 3.28 1.6 3.39 1.64 3.66 1.66 3.99 1.68 4.21 1.72 4.22 1.76 3.95 1.81 3.46 1.85 2.87 1.89 2.39 1.92 2.2 1.96 2.5 2.02 3.28 2.14 4.42 2.27 5.49 2.43 5.94 2.56 5.36 2.64 3.92 2.61 2.61 2.41 2.45 1.95 1.28.94" filter="url(#a)"/><path d="m23.55-83.2 1.88.74 2.39.83 2.63.89 2.61 1.05 2.45 1.21 2.23 1.35 2.09 1.44 2.03 1.52 2.05 1.57 2.08 1.61 2.08 1.64 2.08 1.67L52.22-66l2.08 1.73 2.13 1.77 2.22 1.81 2.32 1.86 2.38 1.9L65.74-55l2.34 1.98 2.23 2.06 2.16 2.16 2.16 2.29 2.26 2.41 2.42 2.52 2.48 2.56 2.32 2.52 1.9 2.38 1.42 2.24 1.33 2.23 1.83 2.69 1.84 3.89" filter="url(#a)"/><path d="m23.73-83.4 1.47.61 2.35.79 3.69.99 4.58 1.13 4.64 1.2 4.11 1.24 3.48 1.28 3.07 1.35 2.9 1.45 2.85 1.55 2.77 1.63 2.6 1.7 2.44 1.71 2.43 1.74 2.69 1.74 3.26 1.75 4.04 1.79 4.78 1.85 5.21 1.92 5.14 2 4.62 2.09 4.01 2.17 3.7 2.27 3.91 2.35 4.43 2.41 4.82 2.37 4.81 2.19 4.82 1.97 5.74 1.84 8.48 1.7" filter="url(#a)"/><path d="m21-83.94 3.32.71 4.57.77 3.51.82 2.59.92 2.72 1.05 3.32 1.19 3.8 1.33 3.96 1.42 3.94 1.51 3.81 1.56 3.59 1.61 3.26 1.63 2.88 1.66 2.53 1.68 2.38 1.72 2.5 1.76 2.89 1.81 3.39 1.86 3.86 1.89 4.1 1.92 4.11 1.96 3.88 2.03L99.53-49l3.54 2.28 3.83 2.43 4.55 2.56 5.44 2.64 6.01 2.61 5.7 2.41 4.64 1.96 4.69.94" filter="url(#a)"/><path d="m19.84-84.36 5.56.81 3.52.75 1.93.85 1.71.99 2.12 1.12 2.6 1.19 2.94 1.24 3.1 1.29 3.13 1.38 3.14 1.46 3.19 1.56 3.24 1.63 3.27 1.69 3.17 1.72 2.97 1.75 2.66 1.76 2.35 1.78 2.1 1.82 2 1.89 2.01 1.95 2.14 2.02 2.34 2.12 2.58 2.18 2.84 2.26 3.12 2.31 3.41 2.33 3.68 2.31 3.89 2.29 4.01 2.28 3.97 2.33 3.74 2.44 3.42 2.58 3.27 2.62 3.37 2.49 3.09 2.33 1.77 2.67" filter="url(#a)"/><path d="m14.41-85.96 2.05.38 3.3.65 3.4.78 3.14.81 3.14.83 3.43.88 3.66.97 3.6 1.07 3.19 1.18 2.66 1.31 2.22 1.4 2.04 1.49 2.12 1.55 2.42 1.6 2.86 1.63 3.38 1.67 3.97 1.7 4.57 1.73 5.11 1.78 5.53 1.81 5.73 1.86 5.75 1.91 5.64 1.94 5.54 2 5.55 2.08 5.58 2.17 5.52 2.29 5.23 2.41 4.73 2.5 4.23 2.54 4.07 2.5 4.43 2.42 5.08 2.33 5.58 2.33 5.64 2.54 5.41 2.78 4.59 2.15" filter="url(#a)"/><path d="m13.74-85.92 1.96.44 2.07.51 2.25.63 2.28.72 2.24.78 2.21.87 2.23.97 2.27 1.06 2.31 1.14 2.33 1.2 2.35 1.26 2.4 1.34 2.44 1.42 2.48 1.52 2.49 1.61 2.41 1.67 2.28 1.71 2.11 1.72 1.99 1.72 1.94 1.72 1.95 1.74 1.97 1.79 1.97 1.89 1.94 2 1.9 2.07 1.9 1.98 1.91 1.73 2.14 1.98" filter="url(#a)"/><path d="m12.98-86.13 1.78.22 1.78.42 2.19.61 2.47.72 2.53.79 2.47.82 2.44.87 2.53.94 2.71 1.05 2.92 1.16 3.17 1.28 3.51 1.38 3.95 1.47 4.52 1.53 5.03 1.59 5.34 1.62 5.27 1.64 4.87 1.67 4.38 1.7 4.15 1.75 4.46 1.8 5.25 1.85 6.08 1.88 6.37 1.9 5.72 1.88 4.39 1.91 3.17 2.01 3.06 2.24 4.48 2.51 7.31 2.75" filter="url(#a)"/><path d="m9.63-86.74 4.77.67 3.59.54 2.75.56 2.81.64 2.95.7 2.93.79 2.85.86 2.88.97 2.99 1.05 3.08 1.13 3.11 1.19 3.09 1.26 3.09 1.33 3.22 1.42 3.55 1.51 4.02 1.61 4.51 1.67 4.83 1.7 4.92 1.73 4.78 1.71 4.53 1.72 4.26 1.72 3.98 1.78 3.7 1.88 3.57 2.03 3.71 2.17 3.79 2 2.09.69" filter="url(#a)"/><path d="m8.07-87.04 1.95.3 2.11.39 2.01.42 2.03.5 2.1.61 2.15.69 2.15.77 2.13.81 2.1.88 2.09.96L31-79.65l2.13 1.16 2.17 1.28 2.18 1.37 2.18 1.47 2.15 1.53 2.1 1.58 2.02 1.62 1.95 1.65 1.85 1.68 1.76 1.72 1.69 1.75 1.63 1.81 1.57 1.85 1.53 1.88 1.47 1.91 1.42 1.93 1.38 1.98 1.38 2.08 1.4 2.24 1.41 2.43 1.38 2.63 1.35 2.91 1.54 3.72" filter="url(#a)"/><path d="m5.44-87.3 2.54.25 2.8.33 2.61.37 2.27.41 2.1.5 2.16.58 2.36.68 2.59.74 2.76.79 2.86.85 2.94.92 3.08 1.01 3.28 1.12 3.49 1.24 3.62 1.35 3.66 1.44 3.65 1.51 3.71 1.58 3.87 1.61 4.15 1.63 4.36 1.63 4.38 1.62 4.17 1.65 4.01 1.71 4.29 1.89 4.99 2.28" filter="url(#a)"/></g><g fill="none" stroke="#000"><circle cx="10.47" cy="10.5" r="2.386" filter="url(#a)"/><circle cx="10.794" cy="7.8" r="2.384" filter="url(#a)"/><circle cx="8.31" cy="9.908" r="1.47" filter="url(#a)"/><circle cx="10.314" cy="10.916" r="2.526" filter="url(#a)"/><circle cx="7.646" cy="8.412" r="2.548" filter="url(#a)"/><circle cx="7.526" cy="8.288" r="2.632" filter="url(#a)"/><circle cx="8.882" cy="7.404" r="1.606" filter="url(#a)"/><circle cx="10.586" cy="8.552" r="1.262" filter="url(#a)"/><circle cx="8.362" cy="7.768" r="2.656" filter="url(#a)"/><circle cx="10.282" cy="9.96" r="1.704" filter="url(#a)"/><circle cx="-10.082" cy="5.624" r="2.758" filter="url(#a)"/><circle cx="-12.026" cy="4.92" r="1.79" filter="url(#a)"/><circle cx="-10.646" cy="5.416" r="2.922" filter="url(#a)"/><circle cx="-12.098" cy="3.392" r="2.592" filter="url(#a)"/><circle cx="-12.382" cy="5.772" r="2.246" filter="url(#a)"/><circle cx="-10.018" cy="5.536" r="1.638" filter="url(#a)"/><circle cx="-9.25" cy="3.704" r="2.664" filter="url(#a)"/><circle cx="-9.258" cy="4.564" r="2.214" filter="url(#a)"/><circle cx="-9.794" cy="5.908" r="1.374" filter="url(#a)"/><circle cx="-12.734" cy="4.68" r="1.66" filter="url(#a)"/></g><path fill="#D77F8C" stroke="#000" stroke-linejoin="round" stroke-width="3" d="m-53.06 31.53.59 2.36.62 2.3.63 2.24.66 2.18.68 2.12.69 2.06.72 2.01.73 1.95.75 1.88.77 1.84.79 1.77.8 1.72.82 1.66.84 1.61.85 1.55.87 1.5.89 1.44.9 1.39.91 1.34.93 1.28.94 1.23.96 1.17.96 1.13.99 1.07.99 1.02 1.01.98 1.01.92 1.03.87 1.04.82 1.05.77 1.06.72 1.07.68 1.08.62 1.08.58 1.1.53 1.1.49 1.12.43 1.12.39 1.12.35 1.14.3 1.13.25 1.15.22 1.15.16 1.16.12 1.16.08 1.16.04 1.17-.01 1.17-.05 1.18-.09 1.18-.13 1.18-.17 1.19-.21 1.18-.26 1.19-.29 1.19-.34 1.18-.37 1.19-.41 1.19-.45 1.19-.49 1.19-.52 1.18-.56 1.19-.6 1.18-.64 1.18-.67 1.18-.7 1.17-.75 1.17-.77 1.17-.81 1.16-.85 1.16-.88 1.15-.91 1.15-.94 1.14-.98 1.14-1.01 1.13-1.04 1.12-1.07 1.11-1.11 1.11-1.13 1.1-1.16 1.09-1.2 1.08-1.22 1.07-1.25 1.07-1.28 1.05-1.31 1.04-1.33 1.04-1.37 1.02-1.39 1.01-1.41 1-1.45.98-1.46.98-1.5.96-1.52.94-1.54.94-1.57.92-1.59.9-1.61.89-1.64.88-1.66.86-1.69.84-1.7-.84 1.7-.86 1.69-.88 1.66-.89 1.64-.9 1.61-.92 1.59-.94 1.57-.94 1.54-.96 1.52-.98 1.5-.98 1.46-1 1.45-1.01 1.41-1.02 1.39-1.04 1.37-1.04 1.33-1.05 1.31-1.07 1.28-1.07 1.25-1.08 1.22-1.09 1.2-1.1 1.16-1.11 1.13-1.11 1.11-1.12 1.07-1.13 1.04-1.14 1.01-1.14.98-1.15.94-1.15.91-1.16.88-1.16.85-1.17.81-1.17.77-1.17.75-1.18.7-1.18.67-1.18.64-1.19.6-1.18.56-1.19.52-1.19.49-1.19.45-1.19.41-1.18.37-1.19.34-1.19.29-1.18.26-1.19.21-1.18.17-1.18.13-1.18.09-1.17.05-1.17.01-1.16-.04-1.16-.08-1.16-.12-1.15-.16-1.15-.22-1.13-.25-1.14-.3-1.12-.35-1.12-.39-1.12-.43-1.1-.49-1.1-.53-1.08-.58-1.08-.62-1.07-.68-1.06-.72-1.05-.77-1.04-.82-1.03-.87-1.01-.92-1.01-.98-.99-1.02-.99-1.07-.96-1.13-.96-1.17-.94-1.23-.93-1.28-.91-1.34-.9-1.39-.89-1.44-.87-1.5-.85-1.55-.84-1.61-.82-1.66-.8-1.72-.79-1.77-.77-1.84-.75-1.88-.73-1.95-.72-2.01-.69-2.06-.68-2.12-.66-2.18-.63-2.24-.62-2.3" filter="url(#a)"/></svg>