<svg xmlns="http://www.w3.org/2000/svg" width="500" height="500" viewBox="-100 -100 200 200"><defs><clipPath id="c"><path d="m28.45 10.06.15-.43.12-.46.07-.48.05-.5v-.52l-.03-.54-.07-.54-.11-.56-.15-.55-.18-.56-.23-.56-.26-.56-.3-.55-.34-.54-.38-.53-.25-.84-.31-.81-.37-.77-.43-.74-.5-.71-.55-.66-.61-.61-.68-.58-.73-.52-.78-.48-.84-.42-.88-.38-.94-.33-.98-.28-1.03-.22-1.06-.18-1.11-.13-1.13-.07-1.17-.03-1.2.01-1.22.06-1.25.11-1.27.14-1.28.19-1.29.23-1.31.26-1.31.3L1-4.95l-1.32.37-1.31.39-1.31.42-1.31.44-1.29.46-1.28.48-1.27.5-1.25.52-1.23.53-1.21.54-1.19.54-1.16.55-1.14.56-1.11.56-1.08.56-1.05.55-1.03.56-.99.55-.96.54-.94.53-.9.52-.87.51-.84.5-.81.5-.78.48-.76.47-.72.47-.7.45-.67.44-.63.43-.61.41-.58.4-.55.39-.53.37-.49.35-.46.35-1.66 2.6.47-.19.49-.21.52-.21.52-.23.55-.23.57-.24.58-.24.61-.26.62-.26.63-.26.66-.27.67-.28.68-.28.7-.28.72-.28.73-.29.76-.29.77-.3.79-.3.81-.29.82-.3.84-.29.85-.29.86-.28.87-.28.89-.26.9-.26.9-.24.91-.24.92-.21.93-.21.93-.18.93-.17.94-.15.95-.14.94-.11.94-.09.95-.06.94-.05.94-.02h.94l.94.02.94.05.93.07.92.1.93.12.91.14.91.17.9.19.9.21.89.23.88.25.88.27.87.28.85.3.86.32.84.33.83.33.83.35.81.35.81.35.8.36.79.35.77.35.69.2.68.19.67.18.66.16.65.15.64.13.63.11.63.08.61.06.6.03.59-.01.57-.03.56-.07.55-.12.54-.15"/></clipPath><clipPath id="b"><path d="m-33.79 9.91-.07-.18-.04-.2V9.3l.05-.23.08-.26.13-.26.16-.28.21-.28.25-.29.3-.29.33-.3.38-.29.42-.3.47-.29.5-.29.35-.47.41-.46.49-.44.56-.42.64-.4.7-.38.77-.35.83-.33.9-.3.96-.27 1.02-.25 1.07-.22 1.12-.19 1.16-.16 1.22-.14 1.25-.1 1.28-.08 1.32-.05 1.35-.02h1.37l1.4.02 1.41.06 1.42.07 1.43.1 1.43.11 1.44.14 1.43.16 1.43.17 1.42.19 1.41.2 1.39.22 1.38.23 1.35.24 1.34.24 1.3.26 1.28.26 1.25.26 1.22.27 1.19.27 1.15.26 1.12.27 1.08.26 1.05.26 1.01.26.98.25.94.24.9.23.87.23.84.21.8.21.77.19.74.19.7.17.68.16.64.16.61.14.58.12.55.12.52.1.49.09.46.08.43.06.41.05.37.04 1.41-.43-.36-.28-.38-.28-.4-.3-.43-.3-.44-.31-.46-.31-.48-.32-.5-.33-.53-.32-.54-.33-.56-.33-.59-.33-.6-.33-.62-.33-.65-.33-.67-.33-.69-.34-.71-.33-.74-.33-.76-.32-.78-.32-.81-.31-.83-.29-.85-.29-.88-.27-.89-.26-.92-.25-.94-.22-.95-.21-.98-.18-1-.17-1.01-.14-1.02-.12-1.05-.09-1.05-.07-1.07-.04-1.08-.01-1.09.01-1.1.04-1.11.06-1.11.1-1.12.12L.3-.84l-1.12.17-1.12.2-1.12.23-1.12.25-1.11.28-1.11.3-1.09.32-1.09.34-1.08.36-1.06.38-1.05.4-1.04.4-1.02.42-1 .43-.98.44-.96.44-.94.44-.92.45-.9.44-.87.44-.84.43-.8.32-.79.31-.77.31-.76.29-.74.28-.72.27-.71.26-.7.23-.67.22-.66.19-.65.18-.62.14-.61.12-.58.09-.57.06"/></clipPath><filter id="a"><feTurbulence baseFrequency=".05" numOctaves="3" result="noise" type="noise"/><feDisplacementMap in="SourceGraphic" in2="noise" scale="2"/></filter></defs><rect width="100%" height="100%" x="-100" y="-100" fill="#C3B091"/><path fill="#E2725B" stroke="#000" stroke-linejoin="round" stroke-width="1.667" d="m84-.08-.34.88.1 3.74-.14-.06-.07 1.96.06-.82-.15 1.56.12.35-.44 3.51.26-.34-.82 2.96.44-1.08-.6 3.09v-.28l-.94 5.28.09-.69-.22.61-.29 1.31-.8 2.54-.15.25-.09.2-.41 1-.54 1.87.24-.15-1.4 3.43.27-.28-1.59 3.61.16-.96-1.52 3.67-.46 1.11.27-.7-1.1 2.36-.2-.14-.97 1.57-.86 2.08-.49.85-1.5 1.78-.73 1.48.55-1.13-.6 1.39-1.4 1.77-.75 1.04-1.19 1.37-.65.54-.96 1.12.28.24-2.04 1.84.91-.44-2.36 2.44-.98.88.27-.09-2.3 2.3-2.18 1.79.92-.82-.37.41-2.07 1.95-.34.13-1.98 1.68-.94.51-1.67 1.43-.33.09-.66.76-1.77.97-.04.01-1.42 1.14H45l-3 1.96.04-.05-.88.39-1.81.78-2.8 1.46-.75.66 1.25-.99-2.89 1.48-.77.22-2.27 1.21.01.04-1.8.49-.78.48-1 .32-1.92.63-.94.14-2.67.94-.79-.02-1.27.58.22-.3-.25.26-4.36.91.16-.09-1.96.5.89-.19-4.67.53.05-.05-1.86.32-.13-.05-.81.18-1.53.01h-1.1l-1.22.35-3.45-.14-.65-.13-.67.36-2.19-.1-1.31-.12-.57-.06-1.65-.36-.74.27-1.43-.25-.72-.25-3.55-.57-.19.15-1.14-.07 1.26.25-2.19-.66-1.79-.3-2.19-.66-2.6-.49.14.05-1.27-.51-2.94-.71-.01-.09-2.14-.93 1.87.79-2.58-.86-.41-.07-3.64-1.62-.39.04-.12-.01-2.33-1.37-1.86-.65.86.09-2.44-1.15-1.77-.82-.05-.33-1.23-.59.26.12-2-1.27-1.06-.62-.14.04-1.7-1.04-2.6-1.83 1.31.88-1.53-1.2-2.98-2.51-.14.14-1.21-1.05-.97-.85.99.79-2.38-1.79-1.58-1.44-.76-1.18-1.16-1.25-1.02-.96.09-.07-3.16-3.24-.58-.43-.09-.28-1.01-1.58.92 1.23-2.13-2.58-.66-.88-1.1-1.62.19.01-1.77-2.46-.01-.36-.63-1.03-1.11-.94-.43-1.54-.86-1.31-1.02-2.04-.92-1.73-.23.18-.26-1.42-.1.61.07-.87-1.92-3.77.75 1.64-.74-1.93.11.29-.98-2.86-.34-.8-.81-1.78-.75-3.4-.08-.02-.63-2.71.21.62-.09-.15-.76-4.23-.47-.8.18.2-.35-.54-.03-1.67-.4-2.61.07-1.19-.26-2.27-.22 1.16.11-2.46-.16-1.56.01.2-.11-2.33-.14-2.67-.03-1.04.22-1.05-.06-.96-.11-.13.34-2.41-.08.32.65-4.32-.26.69.39-2.03.2-1.63-.29 1.1.32-1.75.49-3.26.32-.13.63-2.78.54-1.81.08-.47.04-1 .15.07.25-1.16-.16-.2 1.61-3.47.52-2.45.7-.54.15-.59.57-2.26.31-.72.13.05.47-.69 1.69-3.72-.04.74.19-.76 1.2-2.07 1.04-1.6.97-2.26.48-.44.62-.47.06-.4.79-1.36 1.59-1.84.3-.33.67-.91.21-.93 1.2-1.11.37-.77 2.19-1.99.77-.72.39-.93.44-.64 1.41-1.06 1.01-1.29 1.14-1.04.94-.88 1.31-1.29-.57.87 2.18-1.8.3-.32.35-.14 2.78-2.63.92-.41.6-.35 1.7-1.41 2.29-.97.99-.97-.63.51-.68.27 1.53-1.06.78-.5 4.47-2.36 1.81-.76-.5.31 1.39-.63 1.72-.99-.68.55 1.48-.66 1.48-.67 1.52-.54 1.32-.53-.46.16 3.8-1.42.85.03-.54-.09 2.81-.72.33-.12 4.16-1.06-1.52.3 3.72-.49-.31.02.53-.19 2.62-.48 2.08-.09-1.08.04 1.76-.44 3.12-.11-.05.13-.41-.01 4.2-.37.85-.2.48.15.43.17 1.45-.27 3.9.11.13.17-.82-.11 3.45.3.93-.18.68.16 2.01.13 2.47.44.33.12 1.4.27 1.48.17-.36-.08 2.7.86 2.25.42-.86-.26 2.58.83-.27-.3 2.88.95 1 .18.69.44 1.14.37 2.65.95-.07.08 1.44.36 1.75.82 1.65.9-.99-.39 3.56 1.61-.47-.45-.03.15 2.08.96 3.11 1.69.04.28.91.31.31.44 1.95 1.03 2.47 1.79.09.14h-.06l3.33 2.08.78 1.08-.14-.28.91.8 2.12 1.87-.98-.86 1.14.86 1.76 1.73 2.04 1.81-.1.18.23.11.92 1.07 1.7 1.62-.2-.17L63.98-54l.57.46-.05.04 2.06 2.67-.48-.78 2.37 3.31-.12-.4 1.03 1.43.93 1.37.59 1.07.52 1.15 1.28 1.75-.12-.21.78 1.47.18.61 1.27 2.07.78 1.4.8 2.5.49.3.36 1.22.35.92-.17-.43 1.38 2.76-.38-.03.71 1.86.25.81.7 1.31.25 1.73.34-.11.8 3.68.1 1.19-.1-1.18.84 4.5.07.63-.04.11.45.68.09 2.47.29.51.15.26.15 3.45.19 1.02-.02.61-.03 2.15.21 1.59.21.65L84-.08l-.34.88" filter="url(#a)"/><path fill="#fff" d="m-33.79 9.91-.07-.18-.04-.2V9.3l.05-.23.08-.26.13-.26.16-.28.21-.28.25-.29.3-.29.33-.3.38-.29.42-.3.47-.29.5-.29.35-.47.41-.46.49-.44.56-.42.64-.4.7-.38.77-.35.83-.33.9-.3.96-.27 1.02-.25 1.07-.22 1.12-.19 1.16-.16 1.22-.14 1.25-.1 1.28-.08 1.32-.05 1.35-.02h1.37l1.4.02 1.41.06 1.42.07 1.43.1 1.43.11 1.44.14 1.43.16 1.43.17 1.42.19 1.41.2 1.39.22 1.38.23 1.35.24 1.34.24 1.3.26 1.28.26 1.25.26 1.22.27 1.19.27 1.15.26 1.12.27 1.08.26 1.05.26 1.01.26.98.25.94.24.9.23.87.23.84.21.8.21.77.19.74.19.7.17.68.16.64.16.61.14.58.12.55.12.52.1.49.09.46.08.43.06.41.05.37.04 1.41-.43-.36-.28-.38-.28-.4-.3-.43-.3-.44-.31-.46-.31-.48-.32-.5-.33-.53-.32-.54-.33-.56-.33-.59-.33-.6-.33-.62-.33-.65-.33-.67-.33-.69-.34-.71-.33-.74-.33-.76-.32-.78-.32-.81-.31-.83-.29-.85-.29-.88-.27-.89-.26-.92-.25-.94-.22-.95-.21-.98-.18-1-.17-1.01-.14-1.02-.12-1.05-.09-1.05-.07-1.07-.04-1.08-.01-1.09.01-1.1.04-1.11.06-1.11.1-1.12.12L.3-.84l-1.12.17-1.12.2-1.12.23-1.12.25-1.11.28-1.11.3-1.09.32-1.09.34-1.08.36-1.06.38-1.05.4-1.04.4-1.02.42-1 .43-.98.44-.96.44-.94.44-.92.45-.9.44-.87.44-.84.43-.8.32-.79.31-.77.31-.76.29-.74.28-.72.27-.71.26-.7.23-.67.22-.66.19-.65.18-.62.14-.61.12-.58.09-.57.06" filter="url(#a)" transform="translate(31.31 -26.47)"/><path fill="#fff" d="m28.45 10.06.15-.43.12-.46.07-.48.05-.5v-.52l-.03-.54-.07-.54-.11-.56-.15-.55-.18-.56-.23-.56-.26-.56-.3-.55-.34-.54-.38-.53-.25-.84-.31-.81-.37-.77-.43-.74-.5-.71-.55-.66-.61-.61-.68-.58-.73-.52-.78-.48-.84-.42-.88-.38-.94-.33-.98-.28-1.03-.22-1.06-.18-1.11-.13-1.13-.07-1.17-.03-1.2.01-1.22.06-1.25.11-1.27.14-1.28.19-1.29.23-1.31.26-1.31.3L1-4.95l-1.32.37-1.31.39-1.31.42-1.31.44-1.29.46-1.28.48-1.27.5-1.25.52-1.23.53-1.21.54-1.19.54-1.16.55-1.14.56-1.11.56-1.08.56-1.05.55-1.03.56-.99.55-.96.54-.94.53-.9.52-.87.51-.84.5-.81.5-.78.48-.76.47-.72.47-.7.45-.67.44-.63.43-.61.41-.58.4-.55.39-.53.37-.49.35-.46.35-1.66 2.6.47-.19.49-.21.52-.21.52-.23.55-.23.57-.24.58-.24.61-.26.62-.26.63-.26.66-.27.67-.28.68-.28.7-.28.72-.28.73-.29.76-.29.77-.3.79-.3.81-.29.82-.3.84-.29.85-.29.86-.28.87-.28.89-.26.9-.26.9-.24.91-.24.92-.21.93-.21.93-.18.93-.17.94-.15.95-.14.94-.11.94-.09.95-.06.94-.05.94-.02h.94l.94.02.94.05.93.07.92.1.93.12.91.14.91.17.9.19.9.21.89.23.88.25.88.27.87.28.85.3.86.32.84.33.83.33.83.35.81.35.81.35.8.36.79.35.77.35.69.2.68.19.67.18.66.16.65.15.64.13.63.11.63.08.61.06.6.03.59-.01.57-.03.56-.07.55-.12.54-.15" filter="url(#a)" transform="translate(-50.31 -27.04)"/><g fill="none" stroke="#000" transform="translate(31.31 -26.47)"><path stroke-linejoin="round" stroke-width="1.667" d="m-31.3 9.84-.36.21-.34.16-.33.1-.29.06-.28.01-.24-.03-.21-.06-.18-.1-.15-.13-.11-.15-.07-.18-.04-.2V9.3l.05-.23.08-.26.13-.26.16-.28.21-.28.25-.29.3-.29.33-.3.38-.29.42-.3.47-.29.5-.29.35-.47.41-.46.49-.44.56-.42.64-.4.7-.38.77-.35.83-.33.9-.3.96-.27 1.02-.25 1.07-.22 1.12-.19 1.16-.16 1.22-.14 1.25-.1 1.28-.08 1.32-.05 1.35-.02h1.37l1.4.02 1.41.06 1.42.07 1.43.1 1.43.11 1.44.14 1.43.16 1.43.17 1.42.19 1.41.2 1.39.22 1.38.23 1.35.24 1.34.24 1.3.26 1.28.26 1.25.26 1.22.27 1.19.27 1.15.26 1.12.27 1.08.26 1.05.26 1.01.26.98.25.94.24.9.23.87.23.84.21.8.21.77.19.74.19.7.17.68.16.64.16.61.14.58.12.55.12.52.1.49.09.46.08.43.06.41.05.37.04.35.02.32.01.3-.01.27-.02.25-.03.22-.05.2-.06.18-.08.15-.09.14-.1" filter="url(#a)"/><path stroke-linejoin="round" stroke-width="2.222" d="m-36.2 8.35.37.38.39.33.41.28.43.22.45.18.47.13.5.09.51.05.53.01.55-.03.57-.06.58-.09.61-.12.62-.14.65-.18.66-.19.67-.22.7-.23.71-.26.72-.27.74-.28.76-.29.77-.31.79-.31.8-.32.84-.43.87-.44.9-.44.92-.45.94-.44.96-.44.98-.44 1-.43 1.02-.42 1.04-.4 1.05-.4 1.06-.38 1.08-.36 1.09-.34L-6.4.59l1.11-.3 1.11-.28 1.12-.25 1.12-.23 1.12-.2L.3-.84l1.12-.15 1.12-.12 1.11-.1 1.11-.06 1.1-.04 1.09-.01 1.08.01 1.07.04 1.05.07 1.05.09 1.02.12 1.01.14 1 .17.98.18.95.21.94.22.92.25.89.26.88.27.85.29.83.29.81.31.78.32.76.32.74.33.71.33.69.34.67.33.65.33.62.33.6.33.59.33.56.33.54.33.53.32.5.33.48.32.46.31.44.31.43.3.4.3.38.28.36.28.35.28.32.26.31.25.29.25.27.23.25.23.23.21.22.21.2.19.19.19" filter="url(#a)"/><circle cx="-21.765" cy="6.785" r="4.612" clip-path="url(#b)" filter="url(#a)"/><circle cx="-24.305" cy="6.285" r="3.472" clip-path="url(#b)" filter="url(#a)"/><circle cx="-23.175" cy="7.775" r="4.13" clip-path="url(#b)" filter="url(#a)"/><circle cx="-20.355" cy="5.73" r="3.092" clip-path="url(#b)" filter="url(#a)"/><circle cx="-22.24" cy="5.56" r="4.632" clip-path="url(#b)" filter="url(#a)"/><circle cx="-23.505" cy="5.805" r="3.446" clip-path="url(#b)" filter="url(#a)"/><circle cx="-22.635" cy="8.305" r="3.586" clip-path="url(#b)" filter="url(#a)"/><circle cx="-21.08" cy="6.365" r="4.356" clip-path="url(#b)" filter="url(#a)"/><circle cx="-21.6" cy="5.71" r="3.864" clip-path="url(#b)" filter="url(#a)"/><circle cx="-19.46" cy="7.42" r="3.188" clip-path="url(#b)" filter="url(#a)"/></g><g fill="none" stroke="#000" transform="translate(-50.31 -27.04)"><path stroke-linejoin="round" stroke-width="2.222" d="m25.24 11.66.44.14.42.05.39-.02.37-.09.34-.15.31-.21.29-.27.25-.31.22-.35.18-.39.15-.43.12-.46.07-.48.05-.5v-.52l-.03-.54-.07-.54-.11-.56-.15-.55-.18-.56-.23-.56-.26-.56-.3-.55-.34-.54-.38-.53-.25-.84-.31-.81-.37-.77-.43-.74-.5-.71-.55-.66-.61-.61-.68-.58-.73-.52-.78-.48-.84-.42-.88-.38-.94-.33-.98-.28-1.03-.22-1.06-.18-1.11-.13-1.13-.07-1.17-.03-1.2.01-1.22.06-1.25.11-1.27.14-1.28.19-1.29.23-1.31.26-1.31.3L1-4.95l-1.32.37-1.31.39-1.31.42-1.31.44-1.29.46-1.28.48-1.27.5-1.25.52-1.23.53-1.21.54-1.19.54-1.16.55-1.14.56-1.11.56-1.08.56-1.05.55-1.03.56-.99.55-.96.54-.94.53-.9.52-.87.51-.84.5-.81.5-.78.48-.76.47-.72.47-.7.45-.67.44-.63.43-.61.41-.58.4-.55.39-.53.37-.49.35-.46.35-.44.32-.41.31-.38.3-.35.28-.33.26-.3.25-.28.24-.25.22-.22.2-.2.19" filter="url(#a)"/><path stroke-linejoin="round" stroke-width="2.222" d="m30.57 7.56-.34.77-.37.7-.39.62-.41.55-.43.48-.45.42-.47.36-.48.3-.51.26-.51.2-.54.15-.55.12-.56.07-.57.03-.59.01-.6-.03-.61-.06-.63-.08-.63-.11-.64-.13-.65-.15-.66-.16-.67-.18-.68-.19-.69-.2-.77-.35-.79-.35-.8-.36-.81-.35-.81-.35-.83-.35-.83-.33-.84-.33-.86-.32-.85-.3-.87-.28L7 7.37l-.88-.25-.89-.23-.9-.21-.9-.19-.91-.17-.91-.14-.93-.12-.92-.1-.93-.07-.94-.05-.94-.02h-.94l-.94.02-.94.05-.95.06-.94.09-.94.11-.95.14-.94.15-.93.17-.93.18-.93.21-.92.21-.91.24-.9.24-.9.26-.89.26-.87.28-.86.28-.85.29-.84.29-.82.3-.81.29-.79.3-.77.3-.76.29-.73.29-.72.28-.7.28-.68.28-.67.28-.66.27-.63.26-.62.26-.61.26-.58.24-.57.24-.55.23-.52.23-.52.21-.49.21-.47.19-.45.19-.44.18-.41.16-.39.16-.38.14-.36.14-.33.12-.32.12-.3.1-.29.09" filter="url(#a)"/><circle cx="22.243" cy="6.677" r="3.22" clip-path="url(#c)" filter="url(#a)"/><circle cx="24.413" cy="9.952" r="3.212" clip-path="url(#c)" filter="url(#a)"/><circle cx="22.988" cy="9.767" r="3.888" clip-path="url(#c)" filter="url(#a)"/><circle cx="24.773" cy="11.172" r="3.902" clip-path="url(#c)" filter="url(#a)"/><circle cx="23.328" cy="9.132" r="3.244" clip-path="url(#c)" filter="url(#a)"/><circle cx="24.493" cy="7.952" r="4.662" clip-path="url(#c)" filter="url(#a)"/><circle cx="22.163" cy="10.297" r="4.278" clip-path="url(#c)" filter="url(#a)"/><circle cx="23.678" cy="9.662" r="3.504" clip-path="url(#c)" filter="url(#a)"/><circle cx="22.278" cy="8.047" r="3.378" clip-path="url(#c)" filter="url(#a)"/><circle cx="25.943" cy="9.057" r="3.194" clip-path="url(#c)" filter="url(#a)"/></g><g fill="none" stroke="#228B22" stroke-linejoin="round" stroke-width="2"><path d="m69.36-47.27.78 1.23.69 1.16.65 1.09.55.93.44.75.33.59.19.42.04.2-.18-.12-.47-.58-.84-1.16-1.24-1.82-1.67-2.5-2.02-3.13M43.78-71.67l.88.68 1.41.96 1.39.97 1.27.91 1.19.88 1.1.83.99.77.86.68.72.6.6.5.49.44.36.34.21.23v.08l-.25-.1-.53-.32-.82-.54-1.1-.75-1.37-.96-1.65-1.18-1.98-1.42-2.47-1.78-3.27-2.28m-6.24-3.7-.14.14-.17.45-.95.5-1.73.62-2.53.8-3.44.92-4.52 1-5.67 1.07-6.84 1.14-7.97 1.22-9.14 1.25-10.38 1.24-11.69 1.2L-42.63-63" filter="url(#a)"/><path d="m48.54-68.27 2.2 1.51.97.81.4.45.09.26-.19.12-.46-.02-.77-.17-1.14-.33-1.59-.56-2.12-.86-2.7-1.2-3.3-1.53L36-71.65l-4.57-2.21-5.19-2.56-5.89-2.94m-7.16-3.55.57.17.68.23.56.29.39.39.19.45-.08.5-.4.55-.74.6-1.09.68-1.48.77-1.89.87-2.33.98-2.79 1.08-3.26 1.17-3.75 1.24-4.24 1.31-4.75 1.37-5.3 1.44-5.89 1.55-6.53 1.69-7.19 1.85-7.84 2.01-8.43 2.14m27.36-20.55.67-.06 1.04-.26 1.5-.37 1.75-.41 1.79-.38 1.7-.33 1.57-.29 1.45-.25 1.31-.22 1.18-.19 1-.16.79-.13.55-.09.3-.04-.3.05-.66.11-1.1.16-1.55.23-1.78.28m-21.39 6.45 1.07-.55.84-.33 1.07-.41 1.22-.47 1.25-.49 1.2-.45 1.12-.41.99-.35.83-.26.63-.19.42-.09.18.01-.09.12-.42.23-.77.36-1.14.49-1.52.6-1.97.76-2.58.98-3.7 1.43" filter="url(#a)"/><path d="m42.83-72.26-.06.27-.45.37-.96.53-1.67.65-2.56.66-3.56.61-4.57.52-5.6.43-6.72.34-8 .29-9.35.27-10.71.26-12.08.26-13.58.43" filter="url(#a)"/><path d="m-32.7-77.13 1.68-.49 2.14-.24 2.62-.03 3.15.13 3.66.28 4.1.42 4.5.57 4.9.67 5.25.8 5.55.9 5.78 1.03 5.93 1.12 6.01 1.17 6.06 1.17 6.14 1.19 6.29 1.31 6.41 1.48m-90.64-6.44 1.96-.87 2.86-.87 2.87-.48 2.9-.12 3.09.11 3.39.27 3.78.37 4.16.45 4.55.51 4.9.57 5.2.64 5.45.71 5.66.78 5.83.85 5.97.91 6.12.98 6.26 1.06 6.35 1.13 6.29 1.11 5.93.87M37.67-75.06l.63.43 1.19.72.98.67.54.53.13.4-.19.33-.49.28-.83.2-1.24.11H36.7l-2.18-.15-2.7-.29-3.25-.46-3.81-.62-4.41-.78-4.98-.93-5.57-1.07-6.13-1.2-6.72-1.39-7.33-1.67" filter="url(#a)"/><path d="m-15.54-82.26 1.36-.13 2.21.11 2.52.35 2.82.57 3.21.77 3.58.94 3.92 1.09 4.21 1.22 4.48 1.33 4.66 1.44 4.82 1.54 4.93 1.61 5.04 1.67 5.15 1.73 5.19 1.82 5.22 1.92 5.16 1.91m-34.2-19.2 1.39.26.96.22 1.05.27 1.13.31 1.14.33 1.06.34.94.33.78.3.59.26.39.22.13.15-.13.08-.45.01-.8-.09-1.18-.19-1.57-.28-1.96-.37-2.34-.43-2.71-.52-3.1-.63-3.52-.8-4.18-.99m-49.53 10.7 2.04-.83 3.14-.77 3.35-.3 3.54.12 3.89.42 4.37.64 4.9.79 5.44.92 5.95 1.02 6.43 1.12 6.82 1.22 7.18 1.32 7.48 1.41 7.75 1.53 7.95 1.63 8.11 1.71 8.27 1.73M37.67-75.06l.76.49 1.6.91 1.68.97 1.49.91 1.33.84 1.24.81 1.17.76 1.01.67.76.52.45.3.09.07-.36-.23-.87-.58-1.39-.92-1.72-1.14" filter="url(#a)"/><path d="m-33.5-77.02.08.12.93-.34 1.19-.47 1.2-.47 1.12-.42.99-.36.85-.28.65-.2.43-.1.21.01-.06.11-.4.26-.87.45-1.46.69-2.18.99-2.9 1.29-3.41 1.53-3.58 1.59m63.15-8.26 1.86.67.66.46-.1.43-.72.45-1.38.48-2.12.47-2.91.49-3.75.48-4.65.48-5.61.46-6.66.46-7.9.53-9.38.73-10.99 1.08" filter="url(#a)"/><path d="m-24.19-80.1.61-.2 1.78-.2 2.29-.11 2.52.06 2.66.21 2.8.34 2.95.45 3.12.55 3.29.61 3.44.68 3.57.75 3.67.81 3.77.85 3.84.9 3.89.93 3.92.96 3.9.97 3.83.95 3.74.92 3.66.9 3.63.93 3.54.95 3.27.85" filter="url(#a)"/><path d="m74.79-37.99.65 1.43.38 1.12.08.62-.22.19-.5-.16-.76-.44-1.05-.71-1.35-1.02-1.68-1.36-2.05-1.73-2.41-2.14-2.79-2.56-3.2-3.02-3.64-3.53-4.15-4.11-4.69-4.74-5.26-5.38-5.69-5.96" filter="url(#a)"/><path d="m57.46-60.99 1.07 1.16.03.57-.46.44-.84.46-1.27.46-1.77.42-2.35.35-2.98.26-3.61.16-4.21.06-4.82-.07-5.44-.21-6.12-.35-6.89-.47-7.71-.57-8.57-.67-9.44-.76-10.31-.86-11.14-.99-11.8-1.26" filter="url(#a)"/><path d="m60.55-57.82 1 1.04.41.67.05.46-.38.23-.81-.03-1.26-.29-1.75-.55-2.28-.87-2.89-1.23L49.07-60l-4.29-2.02-5.06-2.43-5.82-2.88-6.61-3.35-7.3-3.87-7.73-4.37" filter="url(#a)"/><path d="m48.6-68.27.88.64 1.43 1.08 1.25 1.03 1.1.96 1.03.93 1.03.94 1.04.97 1.05.97 1.02.97.95.91.83.81.7.68.56.56.42.42.27.28.11.13-.08-.06-.27-.25-.5-.48-.79-.78-1.15-1.12L58-60.15l-1.56-1.55M30.8-77.99l.44.2 1.01.41 1.07.47.91.44.69.34.46.25.24.16.02.1-.23.04-.54-.05-.93-.2-1.42-.38-1.94-.57-2.44-.77-2.96-.97-3.51-1.21-4.11-1.48m-9.53-2.43 1.15.18 1.65.25 1.66.28 1.53.29 1.42.28 1.34.29 1.29.29 1.2.28 1.07.25.9.22.7.17.48.13.23.07-.07.02-.39-.07-.76-.14-1.12-.24-1.51-.34-1.96-.46-2.53-.61" filter="url(#a)"/><path d="m52.65-65.11.35.24.95.88 1.16 1.13 1.27 1.26 1.39 1.41 1.46 1.49 1.42 1.46 1.27 1.31 1.07 1.12.87.91.67.69.42.41.11.06-.22-.34M26.32-79.75l.9.43 1.25.49 1.27.49 1.16.44 1.01.41.82.36.57.29.3.17-.02.06-.35-.05-.66-.16-.99-.25-1.38-.39-1.89-.56-2.53-.82-3.14-1.06-3.58-1.24m20.66 7.19 1.94 1.13.82.61.43.47.29.49.13.5-.14.47-.47.41-.85.31-1.26.22-1.7.1-2.18-.02-2.66-.14-3.17-.25-3.66-.33-4.18-.4-4.68-.49-5.23-.59-5.82-.72-6.45-.86-7.08-1.01-7.67-1.13-8.26-1.26" filter="url(#a)"/><path d="m42.87-71.98.59.38.35.6.06.72-.47.72-1.13.66-1.81.61-2.5.57-3.19.51-3.91.41-4.63.31-5.39.25-6.18.23-7.03.26-7.9.31-8.83.34-9.81.34-10.8.28-11.59.12m3.38-10.59 1.21-.48.99-.38 1.13-.46 1.25-.5 1.3-.5 1.32-.52 1.29-.5 1.16-.47.98-.39.73-.29.41-.16v-.01l-.49.17-.96.35-1.44.52m18.73-4.45-.13-.06.76-.05.75.05.46.16.16.26-.19.39-.6.54-1.06.71-1.53.91L-13.7-79l-2.52 1.3-3.08 1.49-3.66 1.67-4.27 1.85-4.9 2.05-5.57 2.3-6.34 2.64-7.19 3.04" filter="url(#a)"/><path d="m-12.39-82.93 1.16-.07.77-.1.86-.1.81-.06.57.01.28.06-.06.13-.48.22-.96.31-1.49.43-2.03.55-2.63.68-3.34.82-4.2.98-5.08 1.2" filter="url(#a)"/><path d="m-15.23-82.28.35-.03 1.5-.07 2.18-.04 2.49.02 2.71.1 2.91.16 3.08.21 3.18.23 3.23.24 3.2.24 3.1.23 2.92.23 2.68.21 2.51.19 2.41.18m50.12 39.51.32.85.24.95-.15.65-.67.13-1.23-.48-1.83-1.1-2.41-1.67-3-2.2L61-46.25l-4.23-3.23-4.89-3.78-5.58-4.39-6.34-5.07-7.22-5.81-8.1-6.62" filter="url(#a)"/><path d="m42.83-72.26.22.26.43.33.51.43.44.45.17.36-.21.19-.66.02-1.12-.19-1.65-.42-2.24-.66-2.9-.95-3.59-1.21-4.27-1.48-4.97-1.72-5.68-1.96-6.41-2.23m-54.92 9.74.11-.18 1.15-.72 1.72-.95 1.82-.96 1.62-.81 1.29-.63 1-.46.76-.35.59-.25.41-.16.21-.06-.08.09-.43.28-.79.46-1.1.63-1.33.73-1.5.81-1.8.93-2.48 1.24" filter="url(#a)"/><path d="m27.01-79.31 1.16.45.73.44.08.36-.52.32-1.18.31-1.92.25-2.71.19-3.55.12-4.4.05-5.3.03-6.19.02-7.15.01-8.25-.06-9.57-.16m64.59 4.72.32.31.72.47 1.01.66 1.14.76 1.11.76.98.69.81.59.61.48.38.34.11.17h-.18l-.46-.18-.73-.33-.98-.49-1.25-.65-1.59-.85-2.01-1.15-2.5-1.46-2.99-1.78-3.32-1.98" filter="url(#a)"/><path d="m60.55-57.82 1.08 1.1.63.81.42.72.18.59-.04.47-.28.35-.54.24-.83.09-1.17-.09-1.51-.27-1.9-.47-2.28-.68-2.7-.92-3.12-1.17-3.57-1.42-4.01-1.66-4.46-1.89-4.91-2.12-5.39-2.36-5.93-2.65-6.49-2.99-6.97-3.39-7.5-3.78m-32.76 2.29.14.11 1.09-.37 1.46-.54 1.56-.57 1.54-.55 1.48-.51 1.36-.46 1.15-.39.87-.29.55-.18.21-.07-.17.06-.66.22-1.31.43-2.08.65" filter="url(#a)"/><path d="m64.55-53.54.39.59.55.83.36.68.08.43-.24.17-.6-.12-.99-.42-1.42-.78-1.89-1.17-2.4-1.61-2.95-2.09-3.52-2.55-4.12-3.01-4.72-3.5-5.32-4.02-5.91-4.59m16.66 6.29.3.26.9.67 1.14.85 1.06.83.9.74.78.65.7.6.62.55.54.5.43.42.24.3.02.13-.24-.07-.49-.27-.76-.46-1.03-.66-1.32-.89-1.65-1.14-2.06-1.43-2.51-1.76-2.82-2.02-2.77-2.08m-87.16 2.82 1.88-.83 1.51-.53 1.61-.41 2.16-.52 2.89-.75 3.56-.94 4.01-1.03 4.21-1.01 4.24-.93 4.21-.83 4.18-.79 4.17-.76 4.18-.78 4.24-.78 4.26-.77 4.22-.73m-23.87-.19 2.2-.32 1.66-.18 1.53-.14 1.63-.13 1.7-.11 1.67-.1 1.57-.09 1.44-.09 1.23-.07.94-.05.62-.04.22-.02-.25-.01H.38l-1.13-.05" filter="url(#a)"/><path d="m62.05-56.37 1.32 1.59.69.88.44.7.29.62.14.54-.08.39-.34.23-.62.04-.93-.17-1.26-.4-1.6-.64-1.96-.9-2.33-1.18-2.72-1.44-3.1-1.69-3.5-1.96-3.91-2.25-4.36-2.59-4.89-2.99-5.48-3.42-6.16-3.85-6.75-4.25m12.07-.2 1.51.58 1.76.82 1.84.95 1.97 1.11 2.08 1.24 2.15 1.32 2.15 1.36 2.15 1.37 2.15 1.38 2.12 1.37 2.1 1.35 2.01 1.3 1.85 1.21 1.64 1.1 1.45.98 1.19.79m15.55 19.15-.04.25-.13.69-.37.87-.73.89-1.19.8-1.7.57-2.24.31-2.78.02-3.31-.21-3.83-.38-4.39-.53-4.94-.63-5.53-.74-6.11-.84-6.71-.98-7.29-1.12-7.89-1.31-8.47-1.52-9.07-1.76-9.68-2.02-10.33-2.22-11.04-2.37-11.77-2.49m.19-13.22 1.73-.83 1.04-.52.89-.4 1.19-.51 1.68-.72 2.09-.88 2.31-.94 2.34-.91 2.24-.83 2.11-.74 1.98-.67 1.89-.63 1.83-.61 1.77-.58 1.69-.56 1.57-.52 1.41-.48 1.22-.43.99-.36.75-.29.5-.21.24-.14-.29-.03" filter="url(#a)"/><path d="m38.14-74.61-.18-.18.47.27.81.5.68.5.34.37-.07.23-.45.11-.84-.01-1.28-.14-1.79-.31-2.33-.49-2.92-.7-3.52-.93-4.19-1.18L17.89-78l-5.85-1.67-6.65-1.93" filter="url(#a)"/><path d="m39.72-73.95 1.78 1.12.36.58-.35.44-.85.44-1.37.46-2 .43-2.73.35-3.51.25-4.32.13-5.17.01-6.08-.12-7.08-.24-8.2-.28-9.45-.25-10.77-.15-11.88-.08m60.05-8.08 1.69.63.94.39.71.36.47.34.14.27-.24.17-.66.07-1.07-.02-1.48-.09-1.91-.15-2.4-.22-3.01-.34-3.68-.5-4.37-.65-5.06-.8-5.82-.95-6.47-1.14" filter="url(#a)"/><path d="m18.74-81.57 1.51.35 1.34.5 1.68.71 2.01.9 2.25 1.06 2.4 1.18 2.48 1.27 2.53 1.32 2.53 1.36 2.52 1.36 2.45 1.34 2.37 1.32 2.22 1.25 1.99 1.1 1.68.89 1.37.68 1.36.77m-81.81-14.66.66-.23 1.23-.38.97-.25.71-.11.54.01.34.15.07.31-.27.49-.68.68-1.1.9-1.54 1.13-1.99 1.37-2.47 1.63-2.97 1.91-3.48 2.18-4.01 2.48-4.6 2.8-5.32 3.2-6.06 3.63" filter="url(#a)"/><path d="m-46.67-69.87 1.74-.84 1.1-.57.95-.45 1.24-.57 1.73-.79 2.15-.98 2.35-1.03 2.34-1 2.17-.9 1.95-.77 1.73-.67 1.54-.6 1.38-.54 1.22-.49 1.01-.43.7-.34.24-.19h-.3m55.35 4.3 1.07.6 1 .53 1.12.55 1.2.61 1.29.69 1.38.76 1.38.79 1.29.76 1.14.69.98.6.8.5.59.38.34.24.07.06-.24-.13-.57-.33-.94-.57-1.44-.86-2.02-1.21-2.48-1.51" filter="url(#a)"/><path d="m-43.39-71.81-.39.28.29-.2 1-.61 1.47-.83 1.52-.82 1.22-.62.69-.33.17-.04-.26.19-.54.36-.77.48-1.09.66-1.71.99-2.73 1.55M60.55-57.82l.92 1.02.19.6-.35.36-.92.08-1.53-.21-2.17-.5-2.84-.79-3.57-1.14-4.35-1.53-5.18-1.92-6.09-2.35-7.03-2.78-7.96-3.27-8.99-3.79-10.32-4.3" filter="url(#a)"/><path d="m-44.02-71.3 29.16-6.91 22.01 1.38 15.68 4.22 7.38 2.18-.66-.93-5.88-2.56-7.36-2.34-5.62-.96-2.07.7 1.64 1.92 4.08 2.28 4.6 1.73 3.29.68.71-.35-2.5-.94-5.72-1.06-7.98-.92-8-.78-5.12-.88-1.33-1.19-2.6-.79-14.86 2.53-29.76 10.61" filter="url(#a)"/><path d="m-54.93-63.68 24.08 5.45L.94-62.44l13.82-5.73.81-3.32-3.79-.73-1.85.69 2.73 1.08 5.56.95 4.32.98-.34 1.55-6.39 2.28-12.27 1.96-16.06-.27-11.95-3.28 9.43-4.54 52.68-4.09" filter="url(#a)"/><path d="M64.5-53.5 7.81-65.29l-3.97-3.55 4.96.79 3.51 1.51.15.9-2.79.28-3.79.16-2.48.5.02.9 1.97.9 2.13.24.48-.87-1.69-1.88-2.17-2.24.54-1.87 5.54-1.14 8.98-.72 6.3-1.24-2.68-2.88-8.31-3.99 10.81-.44" filter="url(#a)"/><path d="m-66.98-50.12 25.9-15.2 19.55-3.75 17.35.43 14.3.01 7.25-1.05-.06-1.16-3.65-.59-2.93-.05-.43.08.75-.02-.47.05-2.4.67-1.55 2.18 4.44 4.62 11.26 6.83-.39 3.93-65.33-18.67" filter="url(#a)"/><path d="m-35.22-76.03 10.21 13.95L.85-59.16l13.78 2.47 5.12 2.67 2.73.23 2.82-3.28 2.65-5.41 2.02-5.06 1.33-2.98-.35-.95-4.66-.33-11.63-1.05-17.83-1.73-18.26-.88-12.97 1.8-18.92 9.05" filter="url(#a)"/><path d="m39.72-73.95 9.62 16.04-11.96 5.31-8.8-1.29-.47-2.5 1.33-1.35-2.14-.22-6.11-.08-7.81-.99-7.17-2.46-5.47-3.69-3.93-4.01-3.15-3.22-2.9-1.67-2.4-.05-.83 1.04 2.25 1.45 6.87 1.73 12.67 2.94 18.07 5.65 18.24 7.53 3.88.31-35.99-29.31" filter="url(#a)"/><path d="m-12.39-82.93 39.26 21.84-9.68-.94-12.73-3.75-4.85-2.31-.32-.81-.26-.17-1.36-.11-1.12-.11.78-.01 3.17.09 4.84.15 5.34.23 5.03.38 4.58.57 4.29.51 3.8-.04 2.34-1.12-.36-2.31-3.7-2.91-6.8-2.31-9.92-.39-14.23 1.97-16.2 1.76 10.18-10.3" filter="url(#a)"/><path d="M74.79-37.99 41.13-65.21l-10.45-8.06-.42.72.33 3.5-2.88 3.21-5.72 1.73-6.33.09-4.68-1.06-2.04-1.39-.64-1-2.24-.29-6.22.33-8.35.75-2.73 1.33L1.33-63.1l25.19.7-5.53-18.75" filter="url(#a)"/><path d="m59.63-58.89-17.85-9.34-10.6-1.1-11.87.24-12.18.11-9.88.05-6.17.78-3.12 2.06-1.6 3.05-1.12 3.07-.84 1.92-.07.08 1.8-1.69 5.17-2.66 9.52-2.41 13.26-.96 14.33 1.16 11.4 2.8 3.52 2.11-10.79-2.39L.77-69.33l-50.66 1.63" filter="url(#a)"/><path d="m69.36-47.27-6.28-3.26-13.97-5.24-17.17-8.56-10.74-6.66-2.58-2.83 1.56.38 1.25 2.26-.84 2.83-2.23 2.3-2.08 1.08-1.09-.02-.77-.09-2.83.9-7.72 1.59-11.98.53-6.14-1.39 20.59.79 64.54 17.83" filter="url(#a)"/><path d="m-28.38-78.87 35.14.28 3.77-1.36-3.22-.52.34 1 4.37 2.05 4.69 2.22 2.27 1.99-.03 2.14-.73 2.91-.54 3.78-.98 3.91-2.23 3.02-2.67 1.6-1.09.4.39-.47-2.52-1.54-9.84-2.63-16.43-1.15-48.62 10.21" filter="url(#a)"/><path d="M-1.44-83.83 35.92-69.3l15.06 7.95 2.82 2.94-4.75-1.63-8.18-3.81-8-2.87-5.72-.18-2.68 2.12.45 2.77 3.23 1.8 4.71.17 3.7-1-.01-1.17-4.97-.64-10.46-1.56-18.48-7.35-15.03-11.17" filter="url(#a)"/><path d="m52.65-65.11-20.27 3.68-22.15-3.76-2.47-3.83 7.64-1.67 8.4.45 4.49 2-1.24 2.93-7.11 2.97-11.38 1.78-11.87-.29-7.2-1.97.55-2.24 4.06-2.46-3.81-5.75-1.68-9.71" filter="url(#a)"/><path d="m-58.32-60.47 25.72-2.57 26.2-4.09 16.65-2.55 11.49-.06 6.04 1.21-.31 1.5-5.4 1.69-8.57 1.89-10.93 1.52-12.81.26-12.35-1.62-7.65-3.5-.28-4.5 5.74-3.47 13.12-.79 43.83-2" filter="url(#a)"/><path d="m-44.02-71.3 43.66-2.85 19.62.07 1.91-1.73-6.86-1.93-9.33-1.11-7.45-.19-3.34.56.79 1.3 3.35 2.16L2.18-72l2.51 3.4-.23 2.9-3.95 1.63-7.93.26-10.66-.58-9.66-1.22-2.77-2.85 8.59-5.7 17.38-6.56 20.58-1.71" filter="url(#a)"/><path d="m-62.34-55.83 28.04-15.48 21.78-4.6L4.35-74.6l10.06 4.39 5.77 5.25 4.77 4.51 4.15 2.78 1.34.64-3.69-1.3-8.85-2.58-11.91-2.93-11.6-2.4-8.11-1.32-2.5-.03 3.55 1.07 8.39 1.71 10.85 1.87 11.12 1.89 10.54 2.18 9.31 2.32 2.43.56-20.98-3.68-71.66-5.4" filter="url(#a)"/><path d="m-66.98-50.12 22.06-13.24 19.21-2.71 9.2.98 5.19 1.5 7.94 1.42 10.22.98 7.82-.28 2.2-2.13-2.7-3.7-4.03-4.07-1.74-2.98 2.33-.93 5.86 1.3 7.44 2.92 7.03 3.73 5.53 4.1 3.61 4.47-.18 3.85-9.58-1.02L8.44-67.6 7.1-83.46" filter="url(#a)"/><path d="M34.58-76.22 7.77-73.64l-10.35 3.29-8.94-.16-1.95-2.24 5.68-1.9 10.03-.18 10.53 1.42 8.28 1.87 5.03 1.16 2.28-.01.69-.85.02-.98-.18-.32.18 1.14 1.2 3.42 1.74 6.04-2.02 7.35-15.62 4.48-37.28-4.11-30.11-10.71" filter="url(#a)"/><path d="m72.56-42.14-54.02-4.55 6.01-2.02-1.02-4.1-12.33-5.24-12.51-4.68-5.55-3.45.95-2.49 2.87-1.91.44-1.31-3.37-.33-5.21.95-2.85 2.09 3.65 2.7L.99-63.89l15.18 1.5 10.9-1.05.43-4.62-8.36-6.7-25.7-8.64" filter="url(#a)"/><path d="m53.42-64.59-43.9 5.91 8.16-1.36 5.37-3.5-3.89-3.99-7.87-4.24-7.26-3.88-5.43-2.77-4.58-1.18-5.04.42-5.68 1.63-5.12 2.18-2.89 2.21.2 2.3 3.52 3.09 8.25 3.57 10.9-.39-29.38-13.21" filter="url(#a)"/><path d="M73.34-40.67-4.12-57.46l-18.4-7.01 8.05-4.44 11.94-2.77 5.5-1.37-1.59-.36-5.09.27-5.32.66-4.48.88-4 .88-3.77.61-2.75.2-.16-.12 3.87-.13 8.27.18 11.35.54 11.37.46 7.64-.19 2.09-.9v-.44l6.59 2.09 17.13 4.68 4.39-4.67" filter="url(#a)"/><path d="M70.88-44.83 8.94-60.26l.37-1.59 8.55.87-.47-1.87-6.55-3.87-6.18-3.9-2.73-2.95.01-1.97.28-1.2-1.81-.35-4.67.78-6.08 2.1-4.22 3.12.84 3.26 6.28 2.14 7.55-.09 2.55-2.33-1.98-1.92 11.73 5.34 60.93 24.02" filter="url(#a)"/><path d="M76.37-34.09 3.67-58.42l-14.72-10.99 2.09-3.15 4.41.85 3.16 1.68 1.72.58.88-.97.72-1.79.81-1.54.47-.58-.58.38-1.96.73-2.71.44-2.37-.08-1.38-.19-.72.43-.38 1.4 1.47 2.1 6.78 2.41 11.3 3.44-3.59 5.5-70.64 1.22" filter="url(#a)"/><path d="M71.4-43.68 48.47-61.8l-5.18-2.03-10.96-.73L18-66.54 7.19-69.4l-5.33-2.97-2.18-2.48-1.78-1.61-2.13-.64-1.4.23.73.85 2.97 1.16 3.63 1.29 2.12 1.4.09 1.74.52 2.42 4.58 3.3 8.08 3.58 2.87 1.26-9.2-6.23 17.39-12.84" filter="url(#a)"/><path d="M77.22-32.57 12.35-60.73l-13.8-7.71 4.83-1.15 6.45.02 4.84-.32 3.92-.48 3.16-.22 2.16.19 1.22.59.33.9-1.19 1.02-3.98.65-7.66-.25-10.46-1.4-10.2-2.2-5.93-2.28.9-1.77 6.89-.96 8.98.58 11.44 4.39 45.38 12.24" filter="url(#a)"/><path d="m46.04-70.2-44.31.88-1.62-.73 5.43.1 4.47-.12 2.29-.39.84-.07.6.58 1.6 1.22 3.42 1.58 4.94 1.46 4.86.79 2.46-.21-1.84-1.08-6.22-1.27-8.05-.42-4.96 1.36 3.13 3.32 12.41 4.13L41.98-56l11.97.48-5.35-12.75" filter="url(#a)"/><path d="M78.78-29.32 30.99-63.23l-6.53-9.12 3.53.93.62 3.25-2.61 2.4-1.39 1.06 2.46.25 5.22.11 4.97.37 2 .57-2.19.13-5.87-1.25-7.52-3.12-6.74-4.11-5.12-2.73-3.49 2.05 7.32 11.25 61.21 27.4" filter="url(#a)"/><path d="M64.5-53.5 37.95-67.81 18.59-73.8l-3.8-.81 4.78 1.6 4.73 2.33.95 2.08-1.69 1.38-1.47.66.29.05 1.19-.53-.11-1.13-3.14-1.64-6.05-1.8-6.94-1.55-4.79-1-.06-.3 5.67.5 10.33 1.61 12.2 3.1 10.3 4.3 4 3.61-7.11-1.06-19.91-9.83L4.34-83.82" filter="url(#a)"/><path d="m-48.37-68.46 34.56-1.39L3.63-63.2l14.17 4.48 4.93-.1-2.3-2.94-4.91-3.6-6.01-3.12-8.01-2.18-9.97-.94-9.3.51-4.25 1.78 4.58 2.35 14.03 1.73 19.05-.32 15.64-3.01 8.21-2.79 13.02 5.96" filter="url(#a)"/><path d="M77.22-32.57 17.33-60.59 4.92-66.67l1.88-.65.17.31-3.94.44-5.71.37-5.53.06-4.71-.5-3.63-1.14-2.09-1.54-.24-1.59 1.13-1.39 1.32-1.23.61-1.31.21-1.6 1.23-1.84 3.39-1.64 4.7-.67 1.76 1.36-11.59 5.57-45.06 16.18" filter="url(#a)"/><path d="m-25.04-80.13 25.1 4.22 2.08 7.48-5.64 5.36-1.57 2.52 2.23-.68 2.89-3.06 1.96-3.41 1.04-1.83.55.31-.13 1.52-2.18 1.09-5.88-.49-9.03-2.27-8.08-3.41-3.67-3.06-5.25.69-22.4 10.22" filter="url(#a)"/><path d="m-29.7-78.34 3.43 11.16 23.75-1.51 15.48-2.16 6.24-.28 1.6 1.46.66 2.14.99 1.55 1.16.35 1.24-.47 1.98-.22 3.54 1.04 4.78 2.72 3.63 4.03-1.24 4.24-8.78 3.07-15.93.82-21.05-1.45-27.59-2.92-22.51-5.7" filter="url(#a)"/><path d="m26.32-79.75 6.22 22.6-6.07 1.35 3.23-1.93 2.94-1.6-1.87-.99-5.15-.37-5.93.16-5.67.47-5.56.58-5.83.55-6.16.39h-5.88l-3.99-.6.33-1.12 6.73-1.22 13.03-.78 16.06-.22 13.5-.33 5.8-1.71-3.56-4.04-9.14-5.78-5.49-4.51 6.87.94" filter="url(#a)"/><path d="m13.19-82.91-14.35.94 4.93 1.66 7.75 1.32 2.88 1-1.91 1.42-4.05 2.21-3.99 2.66-3.03 2.57-2.29 2.21-2.23 1.82-2.27 1.31-1.14.32 2.19-1.16 7.14-2.48 11.69-2.39 14.19-.19 14.28 2.91 10.85 3.95 5.8 3.94" filter="url(#a)"/><path d="m10.72-83.35-19.43 5.73 6.44 5.84 2.9 3.72-2.76 1.43-.88.38 4.6-.12 8.27-.61 8.6-1.08 6.88-1.29 4.61-1.33 2.5-1.22 1.02-.63 1.18 1.09 3.74 4.36 7.46 8.26 6.49 8.97-10.46-1.25-57.42-31.16" filter="url(#a)"/><path d="m22.71-80.58-1.55 7.94-2.89 4.78 3.76 1.42 1.32-.68-4.99-1.43-9.8-1.55-11.17-1.36-10.07-.81-8.12.13-5.95 1.22-2.8 2.09 2.29 2.48 9.15 2.43 15.74 2.05 18.93 1.26 16.52-.1 8.89-2.11-1.1-4.47-11.78-6.58-30.53-9.96" filter="url(#a)"/><path d="m-64.53-53.84 60.12-9.15 7.19-8.23 3.72-3.79 7.84-.5 8.63 1.15 6.9 1.95 5.06 2.58 3.48 2.94.78 2.24-3.83.1-8.59-2.5-10.43-3.56-8.51-1.66-5.47 2.7 2.23 6.67 54.91 3.72" filter="url(#a)"/><path d="m-9.63-83.42-14.3 9.01 13.69 6.76 19.35 2.22 9.5-.69-.41-.66-3.62.76-1.8 1.09.06-.58-1.37-2.99-5.71-3.97L-4.29-75l-10.73.55-2.95 4.35L3.24-59.41 77.4-32.08m-79.32-51.9.57 2.17 1 2.15 1.3.84 1.33.04 1.25-.27 1.2-.37 1.2-.34 1.23-.21 1.26.04 1.24.36 1.19.69 1.1.95 1.02 1.11.95 1.13.95 1.01.98.84.99.7.95.71.85.82.8.83.97.61 1.58.76-24.76-14.37.72 1.63.74 1.74.98.83 1.2.16 1.26-.09 1.19.07 1.1.45 1.08.75 1.11.83 1.17.71 1.22.58 1.22.56 1.15.67 1.02.82.85.91.61.9v1.06m-44.43-26.65 1.25 1.72 1.63 2.09 1.9 1.42 1.87.53 1.74.14 1.65.39 1.63.92 1.6 1.3 1.55 1.27 1.46.82 1.33.19 1.22-.39 1.16-.64 1.21-.43 1.23.17.9 1.06.28 3.88" filter="url(#a)"/><path d="m-6.56-83.4.83-.56 1.57-.87 1.39-.81 1.22-.78 1.22-.7 1.3-.53 1.35-.31 1.34-.12 1.33-.03h2.7l1.42-.01 1.45-.01h1.46l1.42.04 1.34.08 1.29.07 1.28.02 1.35-.01h1.48l1.37-.11.4-.73-28.46 5.24-2.4-.31-1.52-.79-1.2-.42-1.16.13-1.19.39-1.22.28-1.27.04-1.35-.18-1.45-.26-1.53-.25-1.59-.25-1.59-.27-1.58-.33-1.55-.31-1.55-.22-1.56-.15-1.58-.33-1.7-.77-1.99-.91" filter="url(#a)"/><path d="m-6.51-83.53-2.38-.2-1.4.23-1.13.16h-1.19l-1.24-.06-1.24-.02-1.22.09-1.26.18-1.33.2-1.4.19-1.45.13-1.45.08-1.41.08-1.38.11-1.35.18-1.32.29-1.27.37-1.25.4-1.37.36-1.59.25M80.14-38.8l.71 1.81.13 1.31-.18 1.17-.16 1.09-.03 1.07.08 1.09.12 1.15.13 1.2.17 1.24.28 1.25.43 1.26.53 1.27.49 1.33.3 1.39.04 1.45-.19 1.51-.21 1.52-.08 1.28-.38.59" filter="url(#a)"/><path d="m-12.39-82.93 1.23.22.92.24 1.11.12 1.21.04 1.22.02 1.23.06 1.23.18 1.22.36 1.2.55 1.19.71 1.19.77 1.2.73 1.19.63 1.16.53 1.16.49 1.15.5 1.19.54 1.21.56 1.2.64 1.15.77 1.02.92.87.95.63.89.06.84-26.14-12.26-2.05-1.05-1.43-1.42-1.17-.29-1.15.58-1.28.71-1.48.31-1.66-.31-1.79-.84-1.81-1.06-1.79-.99-1.73-.72-1.65-.41-1.6-.19-1.53-.04-1.47.05-1.4.03-1.38-.14-1.48-.54-1.67-1.06-1.85-1.54-1.95-1.77-2.26-1.2" filter="url(#a)"/><path d="m-15.54-82.26-1.47-4.23-1.23.59-1.28 1.1-1.49.54-1.68-.22-1.78-.84-1.81-1.1-1.83-1.13-1.88-1.13-1.96-1.18-1.99-1.18-1.89-.91-1.64-.32-1.29.35-1.06.61-1.21.12-1.87-.97-3.02-2.41 55.07-12.99-2.67 1.33L5.1-105l-1.45 1.16-1.63 1.21-1.6 1.22-1.49 1.15-1.39 1.2-1.34 1.4-1.34 1.65-1.33 1.65-1.34 1.28-1.35.73-1.3.38-1.22.57-1.08 1.35-.96 2.2-.92 2.47-.93 1.87-1.14.95-2.24.77M82.36-14.93l.03.41.02.92.07 1.13.1 1.21.08 1.27.02 1.35-.04 1.37-.04 1.37v1.34l.03 1.3.01 1.27-.05 1.28-.15 1.33-.21 1.4-.22 1.4-.18 1.23-.19.83-.16-.01" filter="url(#a)"/><path d="m-25.04-80.13.66.12.82-.27 1.2-.39 1.4-.38 1.43-.31 1.36-.25 1.28-.19 1.23-.17 1.19-.16 1.19-.17 1.18-.17 1.19-.15 1.18-.13 1.18-.1 1.21-.07 1.22-.05 1.26-.05 1.26-.06 1.17-.04h.98l.83.02 1.05-.07-53.22-1.1.96.14.56.58.86.4 1.32-.06 1.73-.41 1.95-.52 1.97-.31 1.89.06 1.76.43 1.6.6 1.46.55 1.37.4 1.39.33 1.52.48 1.63.71 1.6.75 1.59.26 2.59-.25" filter="url(#a)"/><path d="m-28.84-78.71-.17.07-.89.35-1.13.43-1.1.44-1.02.4-.95.4-.98.41-1.07.47-1.21.55-1.34.62-1.39.67-1.33.66-1.17.61-.99.54-.85.49-.84.5-.93.57-1.08.67-1.21.76-1.28.84-1.3.92-1.24.95-.99.8-.5.4 45.63-5.54-1.01-1.05-.91-1.38-1.15-1.18-1.24-.86-1.18-.48-1.1-.12-1.13.02-1.29-.16-1.47-.5-1.56-.62-1.44-.33-1.19.16-1.13.22-1.71-.61-3.16-1.09-5.34 2.24 1.22-1 1.36-.51 1.29-.41 1.21-.42 1.21-.44 1.21-.46 1.21-.46 1.2-.47 1.23-.48 1.31-.49 1.38-.49 1.37-.47 1.3-.44 1.11-.39.82-.32.45-.33" filter="url(#a)"/><path d="m-35.22-76.03-.43 1.41-1.11.35-1.56.62-1.59.95-1.27 1.06-.82 1.04-.43 1.06-.19 1.15-.18 1.3-.29 1.41-.45 1.49-.57 1.51-.62 1.51-.68 1.43-.73 1.26-.7 1.09-.47 1.26-.49 2.03m12.58-21.93-1.11.03-1.39-.1-1.85.22-2 .32-1.97-.06-1.92-.66-1.84-1.06-1.72-1.01-1.59-.57-1.57-.1-1.71.15-2 .07-2.33-.21-2.58-.48-2.64-.62-2.52-.58-2.21-.4-1.81-.13-1.53.09-1.69.08-2.2-.05M82.29-15.56l1.54.24 2.28.28 3.03.49 3.33.68 2.52.93.93 1.25-.49 1.53-1.13 1.67-.89 1.67-.15 1.59.67 1.5 1.4 1.45L97.34-.8l2.5 1.6 2.69 1.79 2.39 1.93 2 1.89 3.2 2.08M60.69-33.66l1.12.48 1.42.81 1.26.96 1.37.8 1.62.53 1.75.33 1.69.29 1.49.37 1.27.51 1.07.67.93.8.84.9.79.98.81 1.05.87 1.11.89 1.17.78 1.21.6 1.19.46 1.31.57 2.63-.48-2.66-.26-1.37-.3-1.31-.35-1.36-.35-1.36-.35-1.31-.33-1.24-.32-1.2-.32-1.14-.33-1.09-.33-1.04-.35-.99-.37-1-.41-1.03-.44-1.12-.5-1.24-.53-1.34-.54-1.39-.53-1.36-.5-1.24-.48-1.07-.5-.98-.59-1.06-.65-1.19M-54.28-65.78l.48-.38.98-.74 1.25-.88 1.35-.82 1.37-.72 1.33-.65 1.2-.6.99-.5.74-.37.6-.29.67-.35 1.04-.55 1.64-.89 2.25-1.16 2.28-1.03" filter="url(#a)"/><path d="m-44.38-70.84-.4-1.86-.09-.44.57-.05 1.02-.43 1.24-1 1.27-1.37 1.2-1.36 1.12-1.12 1.05-.81.99-.61.94-.57.93-.65.96-.72 1.04-.75 1.1-.78 1.15-.85 1.17-.93 1.19-.88 1.17-.66 1.12-.55 1.71-1.14-22.74 18.5 2.02-.16 1.04.02.58.02.63-.18.99-.33 1.4-.31 1.69-.16 1.77.09 1.73.35 1.57.51 1.41.53 1.24.38 1.11.13 1.03-.15.98-.41.98-.51 1.05-.43 1.23-.07 1.42.47 1.38 1.15.8 2.06M81.45-20.06l.63.03.77-1.31.82-1.75.36-1.62-.09-1.42-.14-1.37.29-1.51.94-1.72 1.5-1.9 1.75-1.96 1.64-1.88 1.24-1.73.73-1.61.31-1.62.13-1.81.2-2.11.35-2.38.42-2.42.53-2.33.39-2.25M81.45-20.06l.98 2.9.39 1.46.42.99.48.95.48 1.05.53 1.15.6 1.24.68 1.31.67 1.36.61 1.38.54 1.37.52 1.37.59 1.38.68 1.39.73 1.47.71 1.55.59 1.57.37 1.39.2.96.49.05" filter="url(#a)"/><path d="m-49.89-67.7.32-1.21 1.06-.72 1.23-.75.95-.95.45-1.27.05-1.59.02-1.74.34-1.64.85-1.38 1.28-1.08 1.45-.92 1.37-.92 1.1-1.06.81-1.27.59-1.48.53-1.67.59-1.79.72-1.86.79-1.81.6-1.53-.21-1.17-17.67 30.44-1.29-.77-.75.44-.91.47-1.52-.09-2.2-.67-2.56-.88-2.39-.55-1.86.09-1.31.69-1.02 1.01-1.1.99-1.53.69-2.1.28-2.61-.1-2.83-.31-2.63-.24-2.14.04-1.9.2-2.38.06-2.3 1.06 34.5-.15-.04-.13-.6.67-.73 1.04-.69 1.22-.6 1.29-.51 1.32-.48 1.29-.49 1.26-.54 1.23-.54 1.23-.47 1.26-.34 1.3-.21 1.32-.18 1.28-.21 1.22-.26 1.15-.22 1.14-.06 1.17.08 1.18.08 1.15-.08 1.19-.1 1.5.36 2.08 7.4-28.23-1.65.53-1.11.94-1.15.89-1.42.58-1.74.2-1.97-.06-2.06-.1-2.05.03-2.13.11-2.33.02-2.65-.23-2.87-.49-2.79-.51-2.33-.12-1.9.45-2.48.5-4.95-.93 35.33.36-1.49.6-1.47.57-1.1.76-.87.88-.82.94-.85 1-.89 1.05-.92 1.03-.92.95-.93.85-.94.76-.97.74-1.01.78-1.06.8-1.06.72-.91.53-.57.47 16.78-13.43-4.55-2.53-1.68.45-1.48.52-1.35.55-.96.91-.71 1.26-.73 1.32-.92 1.16-1.06.95-1.09.84-1.08.78-1.13.75-1.28.67-1.46.53-1.6.39-1.63.29-1.59.34-1.52.64-1.66 1.08-2.77.89 29.11-10.75-.06 2.08-.73 1.1-.65 1.01-.64 1.06-.68 1.11-.68 1.16-.57 1.21-.41 1.26-.25 1.3-.17 1.29-.18 1.25-.28 1.16-.35 1.06-.37 1.02-.26 1.08-.09 1.22.07 1.43.16 1.57.15 1.62.11 1.52.05 1.37-.07 1.28-.19 1.43.33 1.57 4.75-29.87.95-1.17.84-1.13.65-1.12.45-1.17.3-1.28.23-1.46.25-1.64.36-1.73.56-1.71.77-1.6.95-1.45 1.02-1.33.99-1.19.85-1.02.66-.81.45-.69.34-.85.5-1.45 1.11-2.37 2.46-3.9" filter="url(#a)"/><path d="m-41.87-69.29-1.38.65-1.47.87-1.42.77-1.38.66-1.35.63-1.32.64-1.22.62-1.11.58-1 .52-.92.48-.88.51-.89.6-.94.76-1.03.9-1.15.92m21.42-18.89-.32.45-1.56 1.08-1.78 1.16-1.48.94-1.07.67-.78.52-.69.52-.76.63-.9.75-1.05.85-1.15.9-1.2.92-1.16.92-1.08.92-.97.9-.86.87-.78.81-.76.8-.78.84-.8.97-.86 1.12-.99 1.17-1.05 1.24m-1.6 2.29-1.45 1.56-.86 1.21-.65 1.04-.59.94-.59.91-.62.93-.6.97-.55.98-.47.98-.38.99-.33 1.07-.34 1.25-.38 1.49-.45 1.65-.53 1.57-.49 1.05" filter="url(#a)"/><path d="m-96.42-39.88 2.91-.93 1.69-.62 1.42-.63 1.59-.7 1.7-.76 1.63-.86 1.46-1.01 1.28-1.15 1.19-1.2 1.26-1.07 1.41-.83 1.57-.58 1.61-.46 1.52-.46 1.37-.56 1.27-.61 1.22-.58 1.22-.54 1.27-.5 1.49-.41 1.89-.42 2.11-1.07 3.78-23.64-1.57 2.75-.76 1.63.04 1.96.37 2.17.25 1.99-.13 1.63-.53 1.3-.82 1.11-.86 1.11-.64 1.28-.27 1.54.04 1.76.1 1.82-.2 1.73-.65 1.52-.71 1.1-1.41 2.04.46-.92.75-1.01.87-1.11.86-1.15.79-1.13.72-1.08.71-1.04.76-1.02.82-1.03.88-1.01.9-.92.88-.81.8-.71.74-.68.76-.77.64-.67" filter="url(#a)"/><path d="m-69.4-85.74-.63.26.01 1.69.52 2.48.7 2.69.47 2.52-.04 2.1-.67 1.57-1.14 1.11-1.27.91-.95 1.11-.31 1.64.44 2.34 1.1 3 1.53 3.43 1.56 3.34 1.13 2.68.64 1.84-.97 1.24-1.78 1.11-2.81-.28-3.13-.8-2.85-.57-2.45-.03-2.05.53-1.53 1.01-.91 1.39-.4 1.59-.28 1.58-.73 1.3-1.58.82-2.37.31-2.67.01-2.76.14-3.41.74" filter="url(#a)"/><path d="m-79.04-23.18.23-1.01.46-1.39.57-1.66.51-1.64.4-1.47.31-1.3.28-1.16.3-1.06.36-1.03.43-1.03.5-1.07.55-1.1.6-1.14.66-1.22.7-1.31.71-1.35.66-1.28.55-1.04.4-.7.2-.45-.06.4-.35-1.2-1.21-2.44-1.15-2.48-.31-1.76.58-1.03 1.09-.66 1.21-.7 1-1.02.62-1.43.27-1.73.08-1.82.04-1.79.02-1.85-.06-2.14-.1-2.43.13-2.32-2.96 27.71.47-.45.48-.56.57-.77.65-.91.7-.97.7-.96.7-.95.73-.96.77-.98.83-1.01.86-1.01.88-1.01.87-.99.88-.97.88-.95.91-.95.92-.93.92-.89.89-.82.84-.72.8-.64.78-.59.68-.52.44-.28-15.74 47.92-.52-1.34-.55-.94-.59-.82-.5-.87-.4-1.05-.34-1.31-.24-1.48-.13-1.53-.06-1.48-.09-1.4-.3-1.38-.56-1.42-.71-1.45-.61-1.45-.31-1.4.04-1.28.27-1.12.4-1.06.78-1.49" filter="url(#a)"/><path d="m-74.03-39.35-1.02.15-1.49.38-.92.94-.38 1.16-.23 1.15-.37 1.06-.61 1.03-.77 1.1-.84 1.21-.84 1.33-.78 1.36-.75 1.28-.74 1.11-.77.92-.79.8-.77.85-.67 1.06-.54 1.36-.45 1.63-.56 1.78-.98 2.35 15.12-23.99-.85-.41-1.46-1.85-.68-2.06.33-1.68.81-1.31.76-1.15.53-1.11.37-1.13.33-1.19.28-1.3.13-1.47-.19-1.69-.56-1.91-.68-2.03-.32-1.82.05-1.4" filter="url(#a)"/><path d="m-75.87-35.61-.94.22-.74.38-1.16.49-1.67.54-2.02.63-2.1.82-1.92 1.07-1.59 1.22-1.24 1.22-.99 1.08-.86.89-.8.78-.77.84-.74 1.1-.93 1.42-1.71 1.41-3.22.41" filter="url(#a)"/><path d="m-104.7-15.71 3.53-1.81 3.1-1.77 2.27-1.65 1.28-1.65.58-1.53.47-1.26.84-.9 1.37-.67 1.71-.61 1.88-.74 1.99-.92 2.06-1.03 1.97-1.06 1.67-1.02 1.28-.95 1.03-.84.88-.61.45-.19m-10.62-32 1.95 3.03.68 2.25.86 2.44 1.42 2.69 1.62 2.61 1.29 2.31.65 1.96.14 1.79.01 1.84.28 1.98.68 2.06.91 2.01.69 1.88v1.79l-.56 1.36" filter="url(#a)"/><path d="m-76.47-34.97-6.15-1.54-.14 1.4-.53 1.38-1.98 1-2.7.89-2.53.97-1.92 1.02-1.3.97-.93.88-.91.82-1.19.84-1.58 1-1.79 1.27-1.69 1.58-1.96 1.79-3.71 2.24 29.28-12.4-1.7-1.54-.81-1.46-.61-1.46-.39-1.34-.19-1.28.01-1.29.24-1.3.42-1.27.56-1.28.56-1.42.39-1.7.03-2.05-.53-2.3-1.03-2.23-.48-1.37M80.31-23.64l.48.9.49 1.5.49 1.38.54 1.28.57 1.21.55 1.15.49 1.1.46 1.08.47 1.11.52 1.16.53 1.24.5 1.32.47 1.37.45 1.4.46 1.4.49 1.38.47 1.36.34 1.38.16 1.45.02 1.56.01 1.65.1 1.57.47 1.62-10.48-33.61 2.9-2.2 2.95-2.32.29-1.31-1.13-.74-1.02-.77-.31-1.07.16-1.36.16-1.51-.1-1.58-.24-1.66-.08-1.8.27-1.94.6-2 .69-1.97.6-1.91.6-2.01.79-2.3.98-2.6.65-2.6.07-2.53-9.41 33.54.67.26 2.54.23 2.72.36 1.7.79.59 1.23-.02 1.5-.01 1.57.45 1.48 1.2 1.28 2.02 1.09 2.7.9 3.14.7 3.26.56 3.09.77 3.08 1.69L77.4-32.08l-.44.13-.66-.44-.73-.79-.7-1.07-.67-1.27-.7-1.29-.84-1.17-1-.95-1.16-.75-1.25-.63-1.24-.6-1.15-.67-1.01-.78-.89-.87-.86-.89-.93-.84-1.07-.75-1.18-.64-1.23-.58-1.17-.57-1.07-.56-1.06-.56-1.08-.54-.72-.13 22.98 17.64-1.18-.55-1.02-.73-.59-1.13-.53-1.35-.66-1.36-.8-1.22-.87-1.05-.91-.85-.97-.72-1.06-.62-1.19-.6-1.28-.59-1.33-.58-1.3-.55-1.08-.42-.88.28 14.94 9.9-.62-.86-.79-1.4-.85-1.43-.87-1.26-.84-1.05-.79-.91-.73-.84-.73-.85-.74-.91-.74-.98-.74-1.01-.76-1-.85-.91-1.1-.96-1.79-1.76 21.41-27.61.65 3.25-1.03 3.14-1.64 3.3-1.45 3.18-.9 2.78-.4 2.36-.19 2.1-.19 2.01-.35 2.04-.62 2.12-.85 2.19-.95 2.15-.8 1.95-.43 1.66.01 1.43.22 1.43.08 1.75-.21 2.2.09 2.4" filter="url(#a)"/><path d="m76.37-34.09.81-2.81.25-2.2-.12-1.75-.26-1.41-.34-1.2-.37-1.11-.4-1.15-.47-1.17-.6-1.18-.66-1.19-.51-1.31-.18-1.57.17-1.88.21-1.88.13-.63-12.61-8.66 1.14 1.51.36 1.08.29 1.06.5 1.06.72 1.03.83 1 .86 1 .83 1.02.82 1.04.79 1.08.77 1.13.68 1.2.55 1.29.42 1.38.31 1.43.28 1.42.32 1.36.38 1.24.46 1.11.54 1 .64.96.75 1.06.7 1.36.21 1.78-.78-1.4 1.48 1.17 2.41.63 2.92.11 2.43.12 1.27.52.28.96.02 1.17.48 1.1 1.32.89 2.18.65 2.89.51 3.52.42 4.04.45 4.09.76 3.09 1.49 1.64 1.84-35.33-14.86.99 1.84.74 1.66.62 1.41.51 1.17.42 1.01.35.94.3.94.31.98.33 1.04.33 1.1.33 1.14.33 1.2.31 1.25.3 1.3.3 1.34.29 1.35.27 1.35.24 1.33.18 1.28.1 1.17.07 1.02.09 1.07.16 1.71" filter="url(#a)"/><path d="m73.34-40.67.54 1 .84 1.41.96 1.39 1.18 1.15 1.41.82 1.47.62 1.29.61.95.73.64.91.48 1.04.48 1.12.57 1.16.67 1.18.77 1.21.85 1.26.93 1.29.98 1.31 1 1.33.99 1.33.95 1.31.94 1.14 1.14.72 1.5.42-22.19-25.72-.13-2.01-.2-1.61-.42-1.39-.24-1.51-.13-1.58-.26-1.5-.53-1.34-.7-1.2-.75-1.18-.68-1.2-.61-1.26-.52-1.32-.4-1.45-.19-1.63.05-1.84.24-2.03.26-2.1-.01-2-.48-1.73-.92-1.3-1.03-.88-.65-.95-.46-2.34 8.76 35.35v.39l.22.97.32 1.29.31 1.5.19 1.59-.05 1.59-.32 1.53-.47 1.42-.47 1.3-.32 1.17-.21 1.11-.22 1.13-.35 1.21-.49 1.29-.5 1.32-.42 1.32-.38 1.33-.52 1.42-.72 1.45-.74 1.11-.38-.05 7.72-8.64.24-1.11.14-1.2.14-1.18.09-1.11.03-1.02-.02-1-.08-1.06-.18-1.17-.32-1.3-.46-1.39-.55-1.41-.56-1.31-.49-1.16-.39-.98-.37-.9-.7-1.2-1.11-2.22.68-2.25-.19-1.5.29-1.91.83-2.42 1.02-2.61.82-2.42.35-2.04-.11-1.68-.36-1.55-.34-1.65-.14-1.85.09-1.98.22-1.92.26-1.75.26-1.95.84-4.02-8.83 58.49 1.52-1.62 1.47-1.59 1.14-1.48.63-1.28.05-1.01-.41-.79-.55-.74-.41-.91-.08-1.18.22-1.49.41-1.69.43-1.75.31-1.65.1-1.42-.13-1.19-.32-1.04-.49-1.02-.45-1.17.87-1.97-1.3-.9-1.66-.39-1.88-.2-1.73-.33-1.42-.54-1.13-.69-.94-.78-.83-.84-.83-.79-.97-.63-1.19-.37-1.38-.13-1.47-.03-1.41-.11-1.25-.32-1.07-.55-.95-.64-.94-.51-1.06-.2-1.27.14-1.3.33-.64.38" filter="url(#a)"/><path d="m76.15-17.63-.2-1.59-.16-1.69-.13-1.45-.14-1.28-.14-1.22-.09-1.19-.03-1.18.01-1.15.02-1.12-.04-1.06-.13-1.06-.22-1.07-.32-1.15-.38-1.25-.42-1.33-.42-1.38-.4-1.34-.39-1.26-.41-1.13-.47-1.05-.54-1.05-.6-1.1-.61-1.19-.58-1.35" filter="url(#a)"/><path d="m68.33-48.7.44 1.61.74 1.23.61 1.17.46 1.17.35 1.14.27 1.11.25 1.12.29 1.2.36 1.3.43 1.42.42 1.46.34 1.4.23 1.24.18 1.05.16.95" filter="url(#a)"/><path d="m50.16-60.64 1.46.56.94.23.93.57.94.87.9.91.92.77.99.56 1.09.45 1.17.43 1.16.5 1.1.62.99.72.91.8.9.83.98.85 1.1.88 1.11.92.58.47 34.06 16.26-.21-1.62-1.94-.9-2.37-.67-2.5-.5-2.46-.4-2.21-.41-1.8-.55-1.45-.75-1.35-.89-1.51-.91-1.81-.84-2-.74-1.94-.69-1.63-.72-1.23-.82-.94-.9-.89-.92-1.11-.82-1.46-.64-1.58-.52-1.17-.52-.38-.13-6.4-8.07 1.2 1.75.76 1.07.63 1 .61 1.08.65 1.14.67 1.14.67 1.13.65 1.13.56 1.16.48 1.2.4 1.22.35 1.17.3 1.1.25 1.03.25 1.02.33 1.16.26 1.76-9.02-20.26-.17-.56-.23-1.32.12-1.69.29-1.88.24-2.02.17-2.16.21-2.34.38-2.52.53-2.64.54-2.62.34-2.44-.03-2.09-.49-1.69-.91-1.37-1.15-1.22-1.23-1.27-1.2-1.39-1.17-1.47-1.09-1.49-.77-1.75-.17-2.54.12-3.58-1.67-3.45 13.87 71.72-.41-.89.12-1.71.05-1.73-.12-1.51-.22-1.29-.24-1.16-.2-1.16-.12-1.22-.08-1.32-.08-1.38-.18-1.36-.29-1.33-.41-1.29-.47-1.27-.49-1.26-.52-1.22-.59-1.12-.69-1.01-.76-.96-.74-1.02-.67-1.12-.92-1.34" filter="url(#a)"/><path d="m59.63-58.89 2.78-.52 2.82-.6 1.84.2 1.22.71 1.09.83 1.26.7 1.48.59 1.6.56 1.73.57 2.03.44 2.52.17 3.01-.13 3.15-.2 2.82.01 2.15.41 1.38.81.8 1.09.64 1.22L95.43-51l3.94.52-39.74-8.41-.29-.27-.71-.7-1.01-.97-1.04-.96-.95-.85-.86-.76-.82-.7-.83-.7-.89-.72-.96-.75-1.02-.78-1.07-.79-1.12-.8-1.14-.79-1.14-.77-1.12-.74-1.11-.7-1.13-.69-1.22-.71-1.29-.72-1.19-.65-.69-.35.11.15 55.98 26.8-1.95-1.47-2.45-.38-2.07-.32-1.62-.56-1.44-.73-1.45-.8-1.45-.85-1.39-.91-1.29-.98-1.26-.96-1.39-.83-1.66-.56-1.96-.28-2.07-.14-1.86-.29-1.29-.76-.55-1.42.01-1.88-.1-1.66-1.28-.26-3.11 2.05-2.99 2.62" filter="url(#a)"/><path d="m57.46-60.99 1.23 1.23.51.84.37.86.37 1.03.32 1.24.18 1.42.02 1.56-.11 1.63-.19 1.66-.19 1.66-.05 1.55.24 1.35.52 1.12.58 1.03.33 1.16-.04 1.41-.24 1.49-.67 1.65-3.18-23.89-1.39-1.18-1.07-.44-1.09-.09-1.13-.1-1.1-.24-1.09-.4-1.1-.5-1.15-.55-1.19-.56-1.21-.56-1.21-.57-1.21-.55-1.21-.44-1.22-.21-1.33.02-1.6.13-1.96-.09-2.12-.51 23.38 6.84 1.48.99.88.49.8.48 1.09.45 1.49.29 1.76.15 1.89.1 1.93.11 1.98.12 2.03.16 1.97.27 1.78.49 1.49.75 1.31.93 1.39.91 1.72.73 2.12.51 2.26.41 2.01.39 1.26-.08-11.7 2.75-1.31-.8-1.65-.64-1.5-.68-1.4-.72-1.36-.75-1.3-.77-1.21-.79-1.12-.79-1.07-.79-1.07-.78-1.1-.73-1.12-.67-1.08-.61-.96-.58-.79-.68-.69-.97-1.04-1.27-2.93-.11" filter="url(#a)"/><path d="m54.56-63.58.97 1.4 1.28 1.27.94 1.21.55 1.15.33 1.15.24 1.21.21 1.31.18 1.39.12 1.45.02 1.5-.06 1.52-.11 1.54-.09 1.54-.07 1.56-.14 1.57-.16 1.44.35 1.08-5.7-24.3-.68-.46-.8-.37-1.22-.36-1.51-.22-1.56-.15-1.49-.21-1.39-.33-1.35-.32-1.37-.16-1.43.04-1.47.09-1.45-.06-1.37-.21-1.27-.15-1.16.15-1.18.2-1.99-.63 22.69 3.15-.36-.89.11-1.69.36-2.66.31-2.87.01-2.55-.41-2.01-.81-1.48-1.11-1.09-1.2-.98L49.23-82l-.89-1.59-.72-1.97-.61-2.14-.57-2.11-.5-2.11-.37-2.28-.25-2.59-.3-2.72-.67-2.42-1.29-1.76-1.52-1.65" filter="url(#a)"/><path d="m52.51-65.39-.51.06-1.52-.04-1.64-.19-1.38-.45-1.21-.61-1.19-.61-1.24-.49-1.29-.31-1.3-.18-1.34-.14-1.4-.16-1.43-.15-1.35-.05-1.15.1-1.13.06-2.26-.15 21.34 3.31-.28-.27-.91-.92-1-1.12-.95-1.13-.9-1.16-.86-1.25-.81-1.34-.78-1.32-.83-1.2-.96-1.02-1.11-.91-1.15-.88-1.04-.93-.86-.96-.76-.92-.77-.86-.71-.9-.98-.88" filter="url(#a)"/><path d="m85.8-58.47-1.7-.72-1.82-.55-2.18-.39-2.2-.32-1.8-.54-1.3-.86-.99-1.06-.98-1.03-1.18-.82-1.41-.54-1.6-.3-1.73-.12-1.83-.01-1.96.09-2.04.16-2.02.2-1.83.13H55.7l-1.26-.14-1.07-.17-.85-.18-.65-.55" filter="url(#a)"/><path d="m51.87-66.19.74.44 1.39-.46 2.08-1 1.96-.72 1.5-.03 1.28.46 1.41.52 1.64.34 1.7.2 1.62.18 1.61.16h1.9l2.39-.29 2.74-.46 2.59-.32 1.98-.11 1.44-.61-33.3-.38 2.74.94 2.46-.61 2.09-.82 1.75-.48 1.62-.24 1.66-.13 1.78-.06 1.95-.03 2.18-.14 2.49-.49 2.83-.94 3.02-1.15 2.81-.83 2.4-.18 2.38.2 2.59 1.24m-69 6.11 1.75-.76 1.41-.73 1.43-.74 1.35-.51 1.22-.15 1.19.02 1.28-.1 1.43-.44 1.57-.76 1.62-.88 1.54-.76 1.38-.46 1.2-.12 1.09.16 1.07.33 1.17.35 1.32.31 1.41.22 1.36.11 1.24.01 1.2.06 1.52.52 1.55 1.24.85.87.81.93.87 1.01.87.93.84.81.79.71.74.71.73.75.76.84.82.93.84 1 .75 1.01.57.96.46.91.6 1.05.92 1.54" filter="url(#a)"/><path d="m44.09-71.23 1.18 2.08 1.5.84 1.23.62 1.02.78.88.97.79 1.01.76.92.78.76.82.65.85.65.84.74.84.88.8 1 .7 1.03.56 1.02.44 1 .44 1.02.5.98.22.46 9.97-9.06-.63-.18-1.22-.5-1.44-.26-1.53-.1-1.56-.17-1.54-.33-1.44-.47-1.32-.5-1.19-.49-1.08-.48-1.02-.51-1.01-.58-1.01-.69-1.01-.83-.99-.93-1.07-.8-1.46-.37-2.18.1-2.42-.26m-.31-.44 1.03.32 1.86.09 2.01-.13 1.7.04 1.39.41 1.25.62 1.3.51 1.46.2 1.58-.1 1.59-.22 1.52-.15 1.53-.03 1.82.12 2.46.32 3.47.3" filter="url(#a)"/><path d="m43.78-71.67-.29 2.45 1.4.75 1.3.75.92 1.07.58 1.38.29 1.68.06 1.85-.01 1.81.11 1.51.41 1.08.74.68.99.48 1.07.48.99.63.73.85.38 1.07.04 1.28-.18 1.5-.43 1.71-1.28 1.78 17.3-11.27-1.64-1.45-1.43-.64-1.31-.53-1.12-.58-.98-.69-.96-.8-.99-.85-1.06-.82-1.1-.69-1.12-.58-1.12-.48-1.13-.44-1.16-.43-1.22-.44-1.26-.49-1.27-.56-1.25-.66-1.2-.77-1.14-.87-1.07-.86-1.03-.67-1.1-.33-1.37-.23-2.15-.94" filter="url(#a)"/><path d="m37.67-75.06.87.14 1.56.58 1.44.82 1.22.78 1.13.66 1.2.56 1.32.48 1.41.42 1.41.44 1.35.51 1.24.61 1.14.67 1.06.67 1.03.61 1.05.5 1.1.44 1.17.47 1.24.63 1.28.82 1.25.82 1.03.48.58-.02" filter="url(#a)"/><path d="m37.67-75.06-.01-1.25-.65-1.44-.9-.92-1.04-.72-1.12-.64-1.19-.53-1.25-.43-1.27-.41-1.27-.45-1.23-.57-1.19-.71-1.15-.81-1.11-.86-1.05-.86-1-.87-1.07-.89-1.48-.91-2.25-1.3-5.66-2 1.77 1.21 1.27.51 1.14.43 1.13.49 1.17.57 1.21.62 1.2.69 1.15.76 1.1.84 1.09.89 1.1.89 1.13.86 1.15.78 1.18.72 1.17.7 1.16.71 1.14.73 1.12.75 1.05.8.94.9.97.97 2.02 1.2-2.57-1.22.05.51.59 1.09.57 1.16.72 1.07.94.95 1.07.81 1.09.74 1.07.72 1.01.78.96.88.92.98.9 1.01.9 1 .86.97.77.99.61 1.06.43 1.15.27 1.23.21 1.26.24 1.26.4 1.28.57 1.39.56 1.48.27.85-20.82-26.7 2.01-.89 1.5.22 1.28.3 1.31-.04 1.45-.45 1.55-.59 1.52-.36 1.38.18 1.19.72 1.09 1 1.16.89 1.39.49 1.7.06 1.96-.22 2.05-.34 2.06-.31 2.09-.11 2.19.41 2.2.52" filter="url(#a)"/><path d="m30.8-77.99.5.11 1.15.16 1.43-.06 1.47-.27 1.42-.27 1.3-.13 1.24.1 1.24.28 1.32.37 1.42.33 1.51.24 1.56.16 1.58.17 1.56.25 1.57.34 1.6.36 1.69.31 1.77.19 1.84.09 1.76.06 1.5.22 1.34.71 2.02 1.33M30.8-77.99l-2.05-.56-1.43-.35-1.27-.24-1.26-.2-1.25-.23-1.2-.28-1.16-.29-1.16-.26-1.18-.21-1.21-.13-1.2-.1-1.18-.09-1.19-.11-1.21-.12-1.28-.12-1.35-.05-1.39.02-1.4.11-1.4.14-1.31.16-.41.3 52.08-10.51-.83-.08-.99-.45-2.22.86-2.95 1.75-2.93 1.9-2.47 1.5-1.92.91-1.57.42-1.44.24-1.5.31-1.61.45-1.65.44-1.54.11-1.32-.47-1.25-.71-1.6.58-2.28 3.6-1.48.17-1.76.95-1.53.87-1.28.44-1.17.11-1.16-.04-1.17.04-1.2.32-1.23.72-1.29 1.08-1.33 1.12-1.33.78-1.28.23-1.23-.18-1.21-.12-1.25.38-1.22 1.03-.44 1.58 18.95-10.31-.88-3.29-.53-2.93-.89-2.23-1.11-1.46-1.22-.61-1.3-.11-1.32-.28-1.33-.88-1.33-1.46-1.36-1.71-1.41-1.58-1.43-1.35-1.41-1.21-1.36-1.19-1.39-1.23-1.55-1.43-1.82-1.96-1.84-2.56-1.13-2.39" filter="url(#a)"/><path d="m22.71-80.58-1.6-.47-1.17-.15-1.3.01-1.32.1-1.28.16-1.23.2-1.25.25-1.29.29-1.34.28-1.35.24-1.34.19-1.29.13-1.25.11-1.21.1-1.2.11-1.21.13-1.21.15-1.18.18-1.14.29-1.11.54-1.16.88-1.14 1.11-.82.83-.17-.1 26.84-6.13-2.12-.05-1.74.48-1.33.4-1.13.17-1.14.17-1.23.29-1.34.44-1.38.49-1.36.44-1.3.32-1.2.16-1.1.07-1.04.16-1.2.52L.79-75.9l-1.68 2.14" filter="url(#a)"/><path d="m-1.94-113.17 1.16 4.35 1.92 2.02 1.88 1.02 1.5 1.67 1.24 2.73 1.17 3.22 1.23 2.95 1.33 2.22 1.41 1.5 1.39 1.14 1.29 1.18 1.09 1.5.87 1.87.73 1.9.84 1.42 1.63.91L-.9-74.25l1.66-.69 1.57-.65 1.19-.53 1.07-.74 1.15-.94 1.25-.94 1.32-.74 1.36-.45 1.34-.13 1.28.07L13.5-80l1.15-.34 1.12-.65 1.18-.61 1.79.03m0 0 1.13 1.16.8.63.92.47.99.68 1.01.86 1.04.87 1.06.77 1.09.66 1.06.67.99.79.91.96.82 1.11.74 1.2.63 1.28.53 1.29.44 1.16.15 1.01-.55 1.33" filter="url(#a)"/><path d="m34-74.94.14-.16-.81-.5-1.11-.56-1.14-.56-1.14-.55-1.15-.53-1.16-.51-1.18-.47-1.2-.41-1.2-.37-1.18-.35-1.11-.36-1.04-.39-1.08-.48-1.43-.58-2.17-.71.36.08.03 2.52 1 1.66 1.31.16 1.2-.13.99.4.82 1.09.77 1.45.82 1.37.9 1.09.95.86.93.84.84.99.66 1.27.47 1.78.27 2.82L16.4-82.35l-1.34-.17-1.24-.17-1.33-.13-1.42-.05-1.43.03-1.4.08-1.33.1-1.28.09-1.25.11-1.24.18-1.24.31-1.24.43-1.22.53-1.19.58-1.17.59-1.17.59-1.15.58-1.14.57-1.11.55-1.07.52-1 .58-.95.75-1.13.9-1.81.91" filter="url(#a)"/><path d="m14.92-82.52.66 1.98 1.07.13 1.33-.22 1.3-.06 1.15.21 1.04.47.99.71.97.91.96 1.05.93 1.08.94 1.06.95.99.95.88.89.64.95.39-16.81-10.61-2.09-.27-1.62-.08-1.4.13-1.3.37-1.24.52-1.21.52-1.21.42-1.24.31-1.24.21-1.19.17-1.15.14-1.14.21-1.18.38-1.14.66-1 .89-.96.89-1.78.39" filter="url(#a)"/><path d="M10.72-83.35 9.07-82.2l-1.35.76-1.23-.16-1.18-.42-1.17-.32-1.21-.12-1.24.06-1.24.25-1.21.44-1.17.64-1.15.78-1.14.87-1.12.91-1.1.9-1.07.86-1.05.77-1.04.64-1.04.53-1.03.52-1 .64-.9.83-.99.84-1.85 1.16M8.03-83.64l-1.34-1.01-1.27-1.69-1.15-.94-1.24-.22-1.35.01-1.37-.1-1.34-.3-1.31-.47-1.32-.53-1.35-.51-1.36-.44-1.37-.38-1.37-.37-1.36-.36-1.36-.34-1.37-.28-1.38-.21-1.36-.12-1.35-.1-1.35-.16-1.42-.3-1.64-.2-2.76.85" filter="url(#a)"/><path d="m-28.29-106.2 3.4-.13 2.05.89 1.71.91 1.69 1.35 1.75 1.85 1.79 2.03 1.74 1.84 1.64 1.46 1.54 1.14 1.48 1.06 1.46 1.18 1.45 1.34 1.44 1.39 1.41 1.18 1.35.78 1.31.35 1.33.09 1.36.15 1.35.49 1.15.93 1.02 1.28 1.97 1.18" filter="url(#a)"/><path d="m4.34-83.82.16-.47.69-.06 1.16-.06 1.34-.06h1.4l1.43.02 1.41-.04 1.39-.14 1.34-.26 1.32-.33 1.32-.32 1.35-.26 1.37-.22 1.38-.24 1.39-.33 1.45-.45 1.56-.52 1.64-.47 1.51-.19 1 .27-25.61 4.13.16-.34.74-.57 1.21-.48 1.41-.44 1.5-.46 1.5-.39 1.47-.26 1.4-.12 1.34-.05 1.3.01 1.28.07 1.29.11 1.32.1 1.36-.04 1.43-.26 1.52-.51 1.58-.6 1.58-.44 1.5-.09 1.43.29 1.49.34 1.63-.02 1.1-.48M-20.37-65.2l.2-.99.57-.65.86-.97.94-1.33.96-1.35.97-1.09.97-.74 1-.46 1.02-.38 1.02-.49.99-.72.98-.89.99-.86 1.03-.66 1.08-.44 1.14-.39 1.16-.52 1.16-.68 1.06-.67.9-.7.78-1.59 1.03-2.16" filter="url(#a)"/><path d="m-2.77-83.78 1.67-.03 2.6.05 3.18.12 3.36.19 3.35.26 3.28.34 3.19.43 3.07.51 2.92.59 2.76.66 2.71.73 2.79.79 3.01.86 3.31.92 3.61.98 3.88 1.04 4.1 1.1 4.27 1.18 4.36 1.26 4.39 1.34 4.38 1.42 4.35 1.49 4.31 1.53 4.25 1.57 4.15 1.6 4.01 1.64 3.93 1.66 3.94 1.69 4.06 1.7 4.15 1.71 4.08 1.75 4.12 1.9 5.05 2.26 6.98 2.64" filter="url(#a)"/><path d="m-6.51-83.53 1.1-.05 2.38-.1 2.64-.04 2.73.02 2.86.1 3.06.19 3.27.27 3.41.35 3.5.42 3.5.48 3.5.54 3.54.62 3.72.68 4.05.77 4.47.83 4.84.88 4.99.93 4.86.99 4.59 1.07 4.51 1.19 5.03 1.33 6.59 1.55 9.12 2.1" filter="url(#a)"/><path d="m-9.63-83.42 3.01-.09 2.72-.13 2.59-.06 2.7.02 2.86.1 2.95.18 3 .26 2.99.33 2.95.42 2.92.5 2.91.58 2.93.66 2.98.72 3.07.79 3.17.85 3.27.92 3.36.97 3.4 1.04 3.43 1.11L51-73.07l3.38 1.26 3.3 1.34 3.19 1.41 3.06 1.48 2.97 1.54 2.95 1.57 3.04 1.6 3.24 1.64 3.49 1.66 3.74 1.69 3.86 1.7 3.8 1.72 3.54 1.75 3.43 1.91 4.09 2.25 5.11 2.65" filter="url(#a)"/><path d="m-9.63-83.42 3.02-.09 2.7-.13 2.47-.07 2.44.02 2.45.1 2.42.17 2.34.25 2.23.33 2.11.41 2 .49 1.95.57 1.96.64 2.03.71 2.1.78 2.12.84 2.03.9 1.8.95 1.47 1.02 1.1 1.07.75 1.15.46 1.23.25 1.32.12 1.41.11 1.49.24 1.54.49 1.56.7 1.57.63 1.59.34 1.59.92 1.12" filter="url(#a)"/><path d="m-11.39-82.98 3.31-.35 2.5-.19 2.54-.12 2.6-.05 2.63.03 2.65.1 2.65.19 2.65.28 2.61.35 2.55.43 2.51.49 2.48.56 2.49.64 2.52.7 2.54.78 2.55.84 2.57.91 2.61.97 2.66 1.05 2.75 1.13 2.84 1.23 2.9 1.33 2.91 1.41 2.83 1.48 2.69 1.49 2.49 1.47 2.31 1.42 2.22 1.46 2.81 1.96" filter="url(#a)"/><path d="m-11.39-82.98 3.29-.35 2.5-.19 2.53-.12 2.61-.05 2.64.03 2.69.11 2.74.19 2.8.27 2.82.36 2.81.43 2.78.49 2.73.57 2.7.63 2.67.71 2.69.78 2.73.85 2.78.91 2.83.98 2.89 1.06 2.97 1.13 3.07 1.24 3.22 1.33 3.35 1.41 3.39 1.46 3.29 1.49 3.02 1.49 2.73 1.48 2.66 1.54 2.98 1.76L74.63-59" filter="url(#a)"/><path d="m-11.39-82.98 3.22-.35 2.44-.2 2.58-.11 2.73-.04 2.82.02 2.9.11 2.96.2 2.97.28 2.94.36 2.86.43 2.77.51 2.67.57 2.64.64 2.65.72 2.74.79 2.91.85 3.1.93 3.3.99 3.45 1.07 3.51 1.16 3.47 1.25 3.36 1.32 3.2 1.41 3.02 1.45 2.87 1.49 2.75 1.51 2.67 1.54 2.67 1.57 2.83 1.61 3.09 1.66 3.3 1.67 3.24 1.77 2.95 2.26" filter="url(#a)"/><path d="m-10.31-83.02 1.43-.27 2.3-.19 2.51-.13 2.73-.06 3.04.02 3.31.09 3.5.18 3.63.25 3.72.33 3.78.41 3.77.5 3.71.57 3.63.65 3.57.71 3.63.79 3.8.84 4.13.91 4.54.97 4.98 1.03 5.36 1.1 5.61 1.17 5.71 1.25 5.7 1.33 5.68 1.42 5.74 1.48 5.88 1.53 6.02 1.57 5.97 1.6 5.64 1.63 5.18 1.67 4.95 1.7 5.15 1.71 5.68 1.65 6.51 1.48 7.94 1.52" filter="url(#a)"/><path d="m-10.31-83.02 1.56-.27 2.46-.19 2.5-.13 2.38-.06 2.34.02 2.37.09 2.4.17 2.37.25 2.32.33 2.23.41 2.13.5 2.01.57 1.89.64 1.74.72 1.61.78 1.47.85 1.37.9 1.3.97 1.26 1.02 1.28 1.1 1.31 1.16 1.35 1.25 1.34 1.33 1.26 1.41 1.13 1.48.95 1.54.78 1.56.65 1.6.56 1.62.44 1.67.26 1.73-.02 1.76-.41 1.66-1.36 1.08" filter="url(#a)"/><path d="m-15.23-82.28 1.12-.28 1.59-.33 2.1-.29 2.62-.22 2.93-.15 3.09-.07h3.26l3.45.08 3.64.15 3.78.22 3.87.3 3.91.39 3.89.46 3.85.55 3.78.61 3.72.69 3.75.75 3.96.82 4.37.88 4.91.93 5.48.98 5.99 1.03 6.41 1.08 6.71 1.15 6.74 1.24 6.44 1.39 6.47 1.65" filter="url(#a)"/><path d="m-18.95-81.79 2.96-.48 2.65-.41 2.43-.32 2.4-.25 2.54-.18 2.75-.12 2.94-.06 3.04.02 3.1.1 3.16.18 3.28.27 3.43.34 3.65.42 3.86.48 4.02.56 4.09.63 4.03.71 3.87.77 3.67.84 3.48.91 3.43.98 3.53 1.05 3.76 1.14 4.08 1.24 4.43 1.32 4.82 1.41 5.25 1.47 5.69 1.49 6.03 1.49 6.19 1.49 6.19 1.55 5.73 1.76 3.9 1.99" filter="url(#a)"/><path d="m-24.19-80.1 1.2-.82 1.88-.68 2.73-.5 2.9-.39 2.77-.33 2.66-.28 2.65-.22 2.74-.16 2.87-.09 3.03-.01 3.18.05 3.31.13 3.44.21 3.61.28 3.84.36 4.09.44 4.34.52 4.57.6 4.82.67 5.17.73 5.62.8 5.94.87 5.81.95 5.16.98 4.39.83 4.13.25" filter="url(#a)"/><path d="m-24.19-80.1 1.72-.83 2.79-.67 2.72-.5 2.53-.39 2.42-.33 2.43-.28 2.5-.21 2.63-.16 2.77-.08 2.91-.01 3.06.07 3.19.14 3.35.22 3.51.3 3.67.38 3.81.46 3.91.54 3.95.61 3.97.69 3.97.75 3.94.82 3.9.88 3.84.93 3.78.99 3.83 1.04 4.03 1.09 4.36 1.18 4.72 1.28 5.04 1.44 5.55 1.65 6.58 1.91" filter="url(#a)"/><path d="m-25.04-80.13 1.17-.31 2.08-.56 2.41-.57 2.56-.52 2.62-.43 2.63-.35 2.64-.28 2.71-.2 2.83-.13 2.98-.06 3.12.02 3.21.09 3.24.17 3.21.25 3.17.34 3.15.4 3.21.48 3.35.56 3.58.62 3.87.7 4.15.77 4.35.84 4.45.91 4.43.97 4.37 1.06 4.31 1.14 4.34 1.23 4.48 1.32 4.72 1.41 5.03 1.46 5.32 1.5 5.44 1.49 5.25 1.49 4.77 1.56 4.81 1.76 6.66 2" filter="url(#a)"/><path d="m-25.04-80.13.24-.31 1.54-.55 2.63-.57 3.01-.52 2.96-.44 2.8-.35 2.68-.28 2.65-.21 2.72-.13 2.81-.07h2.93l3.03.08 3.14.15 3.23.24 3.33.32 3.39.39 3.42.46 3.44.53 3.43.6 3.44.68 3.47.75 3.52.82 3.59.88 3.71.92 3.87.97 4.02 1.06 4.1 1.16 4.08 1.26 3.02 1.06" filter="url(#a)"/><path d="m-28.84-78.71 3.35-1.17 3.34-.91 2.98-.7 2.61-.54 2.4-.42 2.35-.34 2.39-.28 2.44-.22 2.5-.15 2.54-.08 2.58-.01 2.62.06 2.64.14 2.67.22 2.68.3 2.68.38 2.68.46 2.66.54 2.65.61 2.63.69 2.6.76 2.57.81 2.54.89 2.52.93 2.51 1 2.52 1.04 2.52 1.11 2.54 1.2 2.55 1.29 2.54 1.43 2.49 1.54 2.31 1.55 1.61 1.19" filter="url(#a)"/><path d="m-28.84-78.71 3.12-1.17 2.78-.91 2.93-.7 2.78-.54 2.59-.42 2.49-.34 2.52-.28 2.65-.22 2.84-.14 3.07-.08 3.25-.01 3.39.08 3.45.15 3.48.22 3.55.31 3.68.39 3.89.47 4.13.55 4.34.62 4.45.7 4.46.76 4.4.83 4.36.89 4.45.95 4.7 1.01 5.13 1.08 5.66 1.15 6.23 1.23 6.69 1.32 6.96 1.41 6.99 1.49 6.78 1.54 6.51 1.57 6.28 1.58 5.9 1.6 5.21 1.6 5.47 1.13" filter="url(#a)"/><path d="m-31.22-77.8 2.63-1 2.29-.82 2.19-.68 2.31-.62 2.48-.56 2.59-.52 2.62-.44 2.59-.36 2.57-.3 2.56-.22 2.57-.15 2.59-.09 2.62-.01 2.65.06 2.68.14 2.69.22 2.7.3 2.67.37 2.63.45 2.6.5 2.59.57 2.65.66 2.75.74 2.83.84 2.81.91 2.55.89 1.65.7" filter="url(#a)"/><path d="m-36.61-75.4 1.87-1.14 1.49-.81 1.84-.78 2.41-.82 2.76-.82 2.83-.77 2.69-.68 2.5-.58 2.36-.47 2.35-.39 2.42-.31 2.59-.25 2.76-.18 2.93-.1 3.09-.04 3.23.03 3.35.11 3.49.19 3.62.26 3.8.34 4 .43 4.24.51 4.45.59 4.61.65 4.65.72 4.58.77 4.42.85 4.18.97 4.26 1.29" filter="url(#a)"/><path d="m-36.61-75.4 2.06-1.13.81-.8.79-.78 1.54-.81 2.31-.82 2.74-.77 2.88-.69 2.91-.59 2.9-.48 2.9-.39 2.89-.33 2.9-.25 2.96-.2 3.1-.12 3.33-.06 3.61.01 3.88.09 4.14.15 4.37.22 4.65.29 5.01.36 5.58.49 7.02.86m43.62 65.59-.18 1.39.2 2.04.15 2.38.14 2.55.12 2.6.08 2.54V.4l-.1 2.4-.19 2.37-.29 2.37-.36 2.43-.42 2.48-.49 2.53-.55 2.54-.65 2.52-.76 2.48-.87 2.44-.97 2.44-1.05 2.47-1.1 2.5-1.14 2.52-1.19 2.52-1.26 2.45-1.35 2.36-1.45 2.24-1.5 2.12-1.51 2-1.47 1.89-1.4 1.81-1.4 1.77-1.65 1.91-2.44 2.57" filter="url(#a)"/><path d="m-36.11-75.71.15-.43-.39-.7-.11-.87 1.2-.88 2.49-.81 3.11-.74 3.22-.66 3.11-.58 3.05-.52 3.06-.45 3.14-.37 3.22-.3 3.29-.23 3.4-.15 3.54-.09 3.73-.01 3.97.07 4.22.14 4.45.23 4.64.3 4.73.38 4.75.46 4.72.52 4.66.6 4.63.67 4.67.75 4.79.81 4.99.88 5.23.93 5.46.98 5.71 1.05 6.11 1.17 6.77 1.26 6.88 1.07" filter="url(#a)"/><path d="m-36.11-75.71 1.77-.42 2.26-.69 2.37-.86 2.43-.87 2.4-.82 2.37-.73 2.41-.66 2.5-.6 2.55-.52 2.53-.46 2.44-.39 2.29-.32 2.15-.24 2-.18 1.85-.12 1.68-.04 1.47.02 1.24.1 1.05.19.92.28.81.38.67.45.34.47-.26.33" filter="url(#a)"/><path d="m-43.39-71.81-.98-.13 1.31-1.13 2.52-1.3 2.54-1.17 2.26-1.05 2.07-.95 2.03-.89 2.07-.81 2.17-.75 2.32-.68 2.5-.6 2.67-.54 2.82-.47 2.94-.39 3.01-.32 3.06-.25 3.11-.19 3.16-.11 3.22-.04 3.3.03 3.37.11 3.44.19 3.44.28 3.36.37 3.25.42 3.18.47 3.27.5 3.7.59 4.84.87" filter="url(#a)"/><path d="m-46.67-69.87.21-1.17-.14-.93.69-1.13.75-1.21.72-1.15 1.13-1.05 1.94-.96 2.74-.89 3.3-.83 3.47-.75 3.36-.69 3.13-.61 2.91-.55 2.83-.47 2.93-.41 3.15-.33 3.42-.26 3.68-.19 3.9-.13 4.09-.06 4.28.01 4.57.09 4.99.17 5.53.28 6.02.38 6.08.5 5.24.64m43.2 61.51 1.64 3.68 2.75 2.69 2.15 2.61 1.37 2.66 1.05 2.71.98 2.73.96 2.7.98 2.64 1.07 2.58 1.14 2.53 1.01 2.52.64 2.5.12 2.49-.4 2.46-.71 2.41-.76 2.37-.63 2.35-.46 2.35-.35 2.39-.3 2.4-.22 2.37-.12 2.32-.07 2.24-.18 2.22-.29 2.22-.09 2.14.31 1.97-.93 2.31" filter="url(#a)"/><path d="m-48.97-68.11.57-1.55-.52-1.17.4-1.07 1.54-1.14 2.13-1.18 2.33-1.13 2.4-1.05 2.45-.97 2.5-.91 2.55-.83 2.61-.76 2.73-.7 2.84-.63 2.93-.57 2.94-.5 2.91-.42 2.88-.36 2.92-.28 3.09-.21 3.43-.15 4.07-.07 5.66-.06" filter="url(#a)"/><path d="m-49.89-67.7 1.88-1.11 1.83-1.27 1.71-1.24 1.94-1.25 2.17-1.22 2.28-1.15 2.24-1.05 2.17-.95 2.15-.89 2.22-.84 2.33-.82 2.47-.78 2.55-.72 2.57-.64 2.53-.53 2.47-.44 2.48-.35 2.57-.3 2.68-.24 2.68-.19 2.42-.15 2.06-.1" filter="url(#a)"/><path d="m-53.02-64.93 2.56-2.11 2.04-1.58 1.75-1.39 1.76-1.3 1.93-1.27 2.05-1.22 2.08-1.14L-36.8-76l2.08-.97 2.18-.9 2.34-.85 2.51-.81 2.65-.76 2.73-.68 2.73-.61 2.7-.52 2.68-.43 2.67-.35 2.7-.28 2.78-.21 2.9-.14 3.03-.06h3.19l3.34.08 3.45.15 3.52.23 3.54.3 3.54.39 3.67.5 3.9.65 3.39.69" filter="url(#a)"/><path d="m-53.32-64.61-3.35-1.19-2.61-1.73.13-1.6 1.72-1.38 1.91-1.25 1.4-1.19.99-1.17 1.07-1.13 1.6-1.06 2.37-.98 3.14-.91 3.74-.85 4.07-.77 4.03-.71 3.7-.64 3.26-.57 2.95-.51 2.98-.43 3.33-.36 3.84-.28 4.27-.22 4.61-.15 5.16-.07 7.16-.06" filter="url(#a)"/><path d="m-55.5-62.81-1.21-2.12.2-1.91 2.31-1.63 2.23-1.44 1.47-1.34 1.04-1.28 1.12-1.22 1.49-1.15 1.96-1.06 2.38-.98 2.68-.91 2.88-.86 2.99-.8 3.05-.76 3.1-.68 3.19-.6 3.28-.52 3.37-.43 3.45-.35 3.52-.28 3.61-.21 3.74-.13 3.92-.06 4.16.01 4.43.09 4.71.16 4.99.23 5.26.32 5.51.41 5.73.5 5.85.59 5.76.65 5.41.65 4.22.61" filter="url(#a)"/><path d="m-55.5-62.81 2.16-2.12 2.18-1.9 1.74-1.63 1.57-1.44 1.75-1.34 2.07-1.28 2.28-1.22 2.36-1.15 2.36-1.06 2.39-.97 2.44-.92 2.52-.86 2.59-.81 2.63-.75 2.65-.69 2.64-.61 2.62-.52 2.62-.43 2.64-.36 2.68-.28 2.72-.21 2.76-.14 2.83-.07 2.9.01 2.98.07 3.07.15 3.12.23 3.17.3 3.2.39 3.31.5 3.51.65 3.14.69" filter="url(#a)"/><path d="m-56.24-62.39-6.9-.99.97-1.62 2.64-1.7 2.95-1.59 2.98-1.45 2.69-1.35 2.18-1.28 1.68-1.23 1.46-1.15 1.57-1.07 1.92-.98 2.35-.91 2.71-.86 2.9-.83 2.9-.8 2.8-.74 2.72-.66 2.76-.55 2.88-.45 3.01-.36 3.19-.3 3.79-.25 5.32-.27" filter="url(#a)"/><path d="m-57.18-61.51.16-1.67-2.19-1.36-1.16-1.43.78-1.52 2.2-1.48 2.87-1.38 2.99-1.3 2.87-1.23 2.68-1.18 2.52-1.12 2.4-1.07 2.33-.99 2.31-.92 2.34-.85 2.39-.78 2.44-.71 2.5-.64 2.58-.57 2.71-.5 2.9-.43 3.17-.36 3.48-.28 3.84-.22 4.2-.14 4.45-.08 4.45-.03 4.34.03 5.71.08" filter="url(#a)"/><path d="m-57.18-61.51 8.71-1.68 1.74-1.36.85-1.44 1.94-1.52 2.98-1.48 3.35-1.39 3.13-1.29 2.68-1.24 2.31-1.18 2.09-1.12 2-1.06 1.93-.99 1.86-.92 1.81-.84 1.8-.78 1.86-.7 1.99-.64 2.13-.56 2.2-.49 2.14-.42 1.97-.35 1.72-.28 1.44-.2 1.23-.14 1.05-.07h.91l.79.07.65.16.53.26.38.37.1.44m78.46 63.47-5.76 2.49-4.34 2.03-.18 2.12.2 2.33-1.56 2.48-3 2.53-3.13 2.51L61.4.05l-1.62 2.37-1.37 2.31-1.61 2.3-2.09 2.35-2.69 2.44-3.53 2.53-4.68 2.6-5.8 2.59L31.84 22l-5.04 2.28-2.54 2.11-.45 2.12-1.93 2.33-9.14 2.57" filter="url(#a)"/><path d="m-64.53-53.84 1.74-2.27.34-1.97-.05-1.79.42-1.68 1.29-1.63 2-1.62 2.15-1.6 1.81-1.54 1.29-1.47.95-1.39.97-1.32 1.3-1.26 1.77-1.18 2.19-1.09 2.48-1 2.66-.93 2.77-.87 2.89-.85 3.01-.84 3.11-.8 3.14-.7 3.04-.55 2.98-.4 4.15-.43" filter="url(#a)"/><path d="m-64.53-53.84 1.04-2.28 1.06-1.98 1.3-1.8 1.51-1.69 1.59-1.64 1.52-1.63 1.35-1.6 1.22-1.54 1.27-1.47 1.54-1.39 1.94-1.32 2.32-1.25 2.54-1.17 2.58-1.08 2.48-1.01 2.38-.94 2.36-.88 2.46-.84 2.66-.8 2.86-.74 2.99-.66 3.04-.56 3.01-.45 2.97-.38 3.04-.3 3.24-.26 3.44-.2 2.82-.13" filter="url(#a)"/><path d="m-64.9-53.07-3.08-2.29-1.5-1.94 1.46-1.84 2.11-1.76 1.87-1.66 1.62-1.58 1.5-1.54 1.48-1.5 1.52-1.45 1.58-1.39 1.66-1.32 1.78-1.25 1.94-1.21 2.14-1.15 2.38-1.09 2.57-1.02 2.65-.95 2.64-.89 2.56-.81 2.53-.73 2.64-.67 2.92-.62 3.42-.6 4.31-.6" filter="url(#a)"/><path d="m-66.1-51.96 1.76-2.02 1.82-2.07 1.77-1.95 1.73-1.82 1.72-1.73 1.77-1.67 1.88-1.64 2-1.6 2.09-1.54 2.14-1.47 2.17-1.4 2.19-1.32 2.2-1.25 2.22-1.16 2.25-1.09 2.28-1.01 2.35-.95 2.42-.88 2.52-.83 2.59-.78 2.64-.71 2.65-.63 2.62-.55 2.58-.46 2.55-.37 2.55-.31 2.57-.23 2.61-.16 2.65-.09 2.71-.02 2.8.06 2.88.13 3.04.2 3.87.37" filter="url(#a)"/><path d="m-66.1-51.96.95-2.02-.01-2.07.27-1.95.58-1.83.43-1.72.29-1.68.51-1.64 1.01-1.6 1.46-1.54 1.7-1.47 1.79-1.4 1.87-1.32 2.04-1.24 2.34-1.17 2.7-1.09 3.04-1.01 3.26-.94 3.37-.89 3.38-.83 3.33-.77 3.24-.7 3.19-.63 3.17-.55 3.22-.46 3.32-.37 3.45-.3 3.58-.23 3.74-.16 3.88-.09 4.05-.01 4.25.07 4.45.13 4.64.22 4.74.31 3.99.39" filter="url(#a)"/><path d="m-66.31-51.03.68-2.1-.77-2.08-.84-1.96-.2-1.86.54-1.76 1.15-1.67 1.52-1.6 1.55-1.54 1.3-1.51.96-1.45.73-1.4.7-1.32.86-1.26 1.09-1.21 1.32-1.16L-54.1-76l2.04-1.03 2.62-.96 3.14-.89 3.34-.82 3.22-.73 3.22-.66 3.85-.63 4.43-.54M81.45-20.07l3.04 1.41.67 2.4 1.35 2.54 2.75 2.6 4.35 2.67L99-5.74l5.15 2.72 3.62 2.7 1.53 2.65-.15 2.59-.77 2.55-.21 2.53 1.13 2.51L112 15l3.99 2.46 4.61 2.42 4.52 2.39 3.84 2.37 2.84 2.37 1.84 2.38.98 2.39.26 2.37-.28 2.31-.6 2.27-.47 2.23.13 2.19.81 2.17 1 2.13.7 2.11 1.25 2.13 2.55 1.88" filter="url(#a)"/><path d="m81.45-20.07 5.2 1.41 5.64 2.38 4.78 2.54 4.4 2.6 2.86 2.66.7 2.7-.79 2.72-.9 2.69.14 2.65 1.74 2.59 3.33 2.54 4.48 2.52 5.01 2.51 4.88 2.49 4.21 2.46 3.11 2.42 1.89 2.37.85 2.35.3 2.37.34 2.38.75 2.4 1.08 2.38.89 2.32.17 2.25-.46 2.22-.04 2.22 1.43 2.14 1.92 1.98.78 2.31M-67.28-49.79l.64-1.5.27-1.88.82-1.96 1.31-1.93 1.26-1.86.94-1.77.74-1.68.85-1.6 1.22-1.56 1.75-1.51 2.17-1.46 2.39-1.39 2.36-1.33 2.15-1.27 1.9-1.22 1.73-1.16 1.63-1.1 1.63-1.03 1.69-.97 1.87-.91 2.12-.82 2.35-.72 2.55-.66 2.99-.71" filter="url(#a)"/><path d="m-68.87-47.95.1-1.98.52-1.93 1.68-1.97 2.01-1.96 1.89-1.9 1.76-1.82 1.67-1.73 1.59-1.67 1.49-1.64 1.39-1.6 1.4-1.55 1.53-1.49 1.8-1.41 2.1-1.34 2.36-1.28 2.47-1.21 2.43-1.12 2.25-1.01 2.07-.9 2.02-.83 2.24-.84 2.78-.89 2.96-.89" filter="url(#a)"/><path d="m-69.66-46.59.86-2.5.17-2.05-.25-1.99-.56-1.97-.27-1.93.53-1.87 1.43-1.78 2.15-1.69 2.55-1.63 2.65-1.56 2.51-1.52 2.25-1.46 1.97-1.4 1.75-1.33 1.61-1.28 1.56-1.21 1.56-1.15 1.6-1.09 1.67-1.03 1.79-.95 2-.89 2.31-.81 2.71-.74 3.11-.67 3.42-.6 3.59-.54 3.66-.46 3.73-.37 3.63-.27 1.86-.08" filter="url(#a)"/><path d="m-70.34-45.72-9.29-1.49 3.84-1.92 4.84-1.98 3.39-1.99 2.01-1.98 1.18-1.93.9-1.86 1.02-1.79 1.34-1.71 1.65-1.63 1.83-1.58 1.84-1.52 1.78-1.46 1.71-1.4 1.73-1.34 1.87-1.27 2.04-1.21 2.16-1.15 2.21-1.09 2.15-1.01 2.07-.95 2.05-.87 2.14-.81 2.36-.73 2.68-.66 3.03-.59 3.33-.51 3.56-.45 3.69-.36 3.77-.3 3.85-.22 3.95-.15 4.03-.09 4-.03 3.91.03 5.06.08" filter="url(#a)"/><path d="m-72.83-41.42 1.32-2.81.86-1.97.84-1.82 1.03-1.85 1.34-1.9 1.57-1.94 1.66-1.93 1.6-1.89 1.52-1.83 1.51-1.76 1.57-1.71 1.71-1.66 1.86-1.61 1.99-1.56 2.07-1.49 2.1-1.42 2.13-1.35 2.16-1.28 2.2-1.2 2.25-1.11 2.31-1.03 2.4-.96 2.52-.89 2.67-.87 2.79-.84 2.84-.8 2.79-.71 2.62-.56 2.62-.42 3.82-.43" filter="url(#a)"/><path d="m-72.83-41.42 1.58-2.82 1.04-1.98.85-1.83.97-1.86 1.22-1.91 1.48-1.94L-64-55.7l1.8-1.89 1.84-1.83 1.85-1.78 1.88-1.71 1.93-1.66 2.01-1.61 2.08-1.55 2.14-1.49 2.19-1.41 2.23-1.34 2.25-1.27 2.28-1.19 2.31-1.11 2.34-1.03 2.38-.96 2.45-.9 2.52-.86 2.61-.8 2.67-.73 2.7-.66 2.67-.57 2.61-.47 2.58-.39 2.57-.31 2.62-.25 2.6-.21 2.38-.15 1.98-.1" filter="url(#a)"/><path d="m-74.18-39.33-.4-1.14.47-2.09 1.44-2.17 1.83-2.09 1.8-2.02 1.62-1.99 1.45-1.97 1.39-1.95 1.43-1.91 1.53-1.86 1.63-1.79 1.73-1.72 1.81-1.65 1.88-1.58 1.92-1.54 1.96-1.48 1.98-1.42 2-1.35 2.05-1.29 2.11-1.24 2.2-1.18 2.26-1.12 2.33-1.05 2.41-1 2.5-.96 2.3-.85 1.24-.45" filter="url(#a)"/><path d="m-74.18-39.33-1.24-1.15 1.3-2.1 1.97-2.18 1.91-2.1 1.68-2.03 1.43-2 1.21-1.98 1.05-1.96 1-1.92 1.11-1.86 1.36-1.79 1.69-1.72 1.97-1.65 2.17-1.59 2.21-1.53 2.14-1.48 2.04-1.41 1.95-1.35 1.94-1.29 1.99-1.23 2.09-1.16 2.2-1.11 2.31-1.04 2.38-.97 2.47-.9 2.54-.82 2.6-.75 2.68-.68 2.77-.62 2.86-.57 2.77-.46 2.02-.25" filter="url(#a)"/><path d="m-76.78-34.25 1.69-1.58 1.9-2.14 1.65-2.19 1.62-2.18 1.6-2.15 1.58-2.09 1.63-2.03 1.77-2 1.96-1.97 2.12-1.95 2.18-1.92 2.15-1.87 2.06-1.8 1.97-1.72 1.94-1.66 1.95-1.59 2.05-1.55 2.2-1.51 2.38-1.43 2.55-1.34 2.66-1.28 2.75-1.29 2.79-1.29 2.45-1.1 1.47-.59m-51.07 42.22-10.41-1.56.06-2.13 1.58-2.18 1.24-2.18.35-2.13-.26-2.08-.08-2.03.76-1.98 1.66-1.97 2.02-1.95 1.67-1.91.76-1.87-.3-1.81-1.04-1.72-1.09-1.64-.32-1.58 1.02-1.57 2.3-1.56 2.78-1.47 1.96-1.22-.27-.86-2.45-.94" filter="url(#a)"/><path d="m-77.35-31.99-.53-2.29-.79-2.08-1.22-2.31-2.42-2.39-3.25-2.31-2.74-2.16-.94-2.04 1.31-1.96 3.11-1.94 3.95-1.93 3.81-1.91 3-1.89 1.92-1.83.89-1.78.13-1.72-.29-1.68-.35-1.63-.08-1.58.47-1.51 1.16-1.45 1.82-1.37 2.23-1.32 2.37-1.25 2.35-1.17 2.36-1.03 2.35-.88 1.78-.74.15-.57" filter="url(#a)"/><path d="m-77.35-31.99.88-2.31 1.11-2.11 1.41-2.32 1.77-2.4 2.16-2.32 2.54-2.17 2.88-2.06 3.11-1.99 3.17-1.95 3.02-1.94 2.66-1.92 2.19-1.88 1.78-1.84 1.54-1.78 1.54-1.73 1.74-1.67 2.02-1.62 2.24-1.57 2.34-1.49 2.32-1.43 2.21-1.36 2.12-1.28 2.12-1.2 2.21-1.13 2.33-1.04 2.43-.97 2.43-.91 2.33-.87 2.16-.81 2.03-.76 1.92-.68 1.86-.58 1.75-.48 1.57-.38 1.41-.31 1.39-.26 1.58-.27M-78.2-30.86l-5.93-1.54-5.47-1.86-1.17-2.06 1.24-2.24 2.47-2.33 3.06-2.27 2.88-2.16 1.87-2.04.34-1.96-1.11-1.92-1.89-1.92-1.72-1.92-.66-1.89.81-1.84 2.07-1.78 2.61-1.71 2.22-1.67 1.09-1.66-.18-1.64-.89-1.56-.59-1.38.31-1.09-.14-.79" filter="url(#a)"/><path d="m-80.33-24.94-1.4-4.24-4.17-2.72-5.64-2.27-4.68-2.23-2.67-2.29-.64-2.31 1.05-2.26 2.26-2.17 2.88-2.08 2.88-2.02 2.44-1.97 1.92-1.94 1.55-1.92 1.46-1.89 1.51-1.83 1.56-1.79 1.44-1.74 1.18-1.68.9-1.62.73-1.57.81-1.51 1.13-1.44 1.59-1.36 2.1-1.29 2.56-1.22 2.9-1.13 3.12-1.04 3.33-.97 3.62-.92 4.04-.87 4.5-.84 4.77-.78 4.67-.71 4.33-.58 4.08-.46 4.11-.4 3.1-.42M80.31-23.64l.88 2.63.79 2.31.77 2.43.85 2.52 1.15 2.6 1.62 2.67 2.04 2.7 2.2 2.71 2.05 2.7 1.67 2.65 1.21 2.6.79 2.56.44 2.53.16 2.52-.06 2.49-.17 2.47-.13 2.43.07 2.39.36 2.38.66 2.38.84 2.38.82 2.39.58 2.36.22 2.32-.13 2.28-.3 2.23-.2 2.2.07 2.17.15 2.13-.27 2.11-.97 2.09-1.01 2.01-.22 1.95" filter="url(#a)"/><path d="m80.06-25.37.77 2.51 1.08 3.02 1.31 2.73 1.47 2.48 1.44 2.4 1.18 2.43.78 2.49.38 2.52.1 2.51-.04 2.47-.06 2.42.01 2.4.13 2.41.24 2.44.28 2.48.21 2.52.03 2.53-.23 2.52-.46 2.49-.64 2.46-.74 2.45-.76 2.48-.72 2.5-.64 2.53-.56 2.51-.49 2.46-.5 2.37-.59 2.25-.81 2.13-1.1 2.01-1.34 1.9-1.42 1.82-1.36 1.78-1.49 1.91-2.87 2.57" filter="url(#a)"/><path d="m80.06-25.37.8 2.47 1.02 2.99 1.08 2.72.94 2.44.77 2.35.69 2.38.65 2.47.62 2.5.59 2.5.58 2.44.61 2.39.7 2.33.84 2.33 1.03 2.36 1.24 2.45 1.41 2.53 1.5 2.6 1.44 2.59 1.21 2.47.82 2.3.33 2.13-.1 2.12-.39 2.34-.38 2.58" filter="url(#a)"/><path d="m80.06-25.37.88 2.49.83 3 .64 2.72.57 2.46.48 2.37.35 2.41.22 2.48.12 2.51.06 2.5.03 2.45.01 2.41-.02 2.36-.09 2.37-.16 2.4-.26 2.47-.35 2.52-.43 2.55-.49 2.54-.53 2.46-.58 2.39-.66 2.36-.78 2.41-.93 2.52-1.07 2.66-1.14 2.67-1.14 2.5-1.05 2.21-1.06 2.39" filter="url(#a)"/><path d="m79.11-27.49 1.26 2.14 1.45 2.62 1.17 2.79.88 2.66.93 2.51 1.37 2.43 2.12 2.45 2.86 2.48 3.21 2.51 2.94 2.5L99.42.06l1.04 2.42.07 2.4-.55 2.4-.76 2.43-.68 2.48-.5 2.52-.33 2.53-.2 2.52-.04 2.48.16 2.45.4 2.44.58 2.46.65 2.51.53 2.55.3 2.56.01 2.51-.34 2.39-.69 2.27-.95 2.13-.84 2-.33 1.95-.25 1.99" filter="url(#a)"/><path d="m78.78-29.32 1.61 1.86 1.7 2.18 2.32 2.52 3.65 2.65 4.43 2.6 3.91 2.49 2.38 2.42.69 2.43-.44 2.46-.67 2.49-.12 2.49.82 2.45 1.71 2.39 2.22 2.35 2.26 2.33 1.91 2.36 1.41 2.44.97 2.55.79 2.62.99 2.62 1.62 2.51 2.6 2.27 3.66 2.05 4.4 2.03 4.23 2.52" filter="url(#a)"/><path d="m77.57-31.65 1.36 2.12 1.68 2.07 1.24 2.28.8 2.5.74 2.6.94 2.58 1.22 2.52 1.37 2.47 1.4 2.47 1.28 2.49 1.12 2.5.97 2.49.86 2.46.77 2.42.67 2.4.48 2.41.24 2.43-.03 2.47-.25 2.52-.35 2.54-.28 2.53-.08 2.48.14 2.43.21 2.42.04 2.45-.37 2.52-.9 2.59-1.32 2.61-1.44 2.54-1.31 2.41-1.14 2.31-1.04 2.12.04 1.23" filter="url(#a)"/><path d="m76.86-33.79 3.19 2.1 3.64 2.07 1.81 2.13.89 2.3 1.11 2.48 1.63 2.55 1.78 2.56 1.39 2.51.66 2.48-.03 2.47-.4 2.49-.4 2.49-.07 2.49.41 2.46.92 2.42 1.34 2.4L96.4 7l1.87 2.43 1.93 2.47 1.82 2.52 1.5 2.55.96 2.54.32 2.48-.28 2.41-.69 2.38-.82 2.42-.75 2.53-.53 2.66-.25 2.68.09 2.51.31 2.23.14 2.4" filter="url(#a)"/><path d="m76.37-34.09.78 1.33.96 1.62 1.1 2.1 1.23 2.38 1.63 2.5 2.47 2.53 3.68 2.52 4.9 2.53 5.61 2.56 5.45 2.6 4.49 2.64 3.05 2.67 1.54 2.69.28 2.67-.58 2.65-1.03 2.62-1.09 2.58-.81 2.55-.31 2.53.3 2.5.78 2.48 1.03 2.43 1 2.4.78 2.38.56 2.39.47 2.4.56 2.4.67 2.39.65 2.33.34 2.27-.24 2.24-.79 2.23-.71 2.16.45 2 1.63 2.32" filter="url(#a)"/><path d="m75.57-36.59 4.75 2.5 1.14 2.25 1.32 2.15 1.36 2.19 1.01 2.32.77 2.46.82 2.53 1.08 2.54 1.35 2.51 1.56 2.49 1.7 2.48 1.8 2.5 1.85 2.49 1.89 2.49 1.91 2.46 2 2.43 2.19 2.41 2.51 2.41 2.87 2.43 3.14 2.48 3.16 2.52 2.81 2.54 2.06 2.53 1.03 2.48-.05 2.43-.87 2.41-1.19 2.44-.9 2.53-.15 2.62.66 2.64 1.04 2.55.89 2.42.64 2.5 1.02 2.93M74.79-37.99l1.24 2.91.91 2.01.83 1.92.82 2.14.79 2.34.76 2.45.71 2.51.65 2.51.57 2.53.5 2.56.41 2.59.32 2.64.25 2.67.16 2.68.08 2.67-.01 2.65-.08 2.61-.16 2.58-.24 2.55-.31 2.54-.37 2.5-.44 2.48-.5 2.44-.57 2.39-.64 2.37-.71 2.37-.8 2.41-.87 2.44-.95 2.41-.99 2.31-1.07 2.22-1.2 2.27-1.48 2.56-1.83 2.75" filter="url(#a)"/><path d="m73.34-40.67 16 2.77-.25 2.48L86-33.31l-1.65 2.02.87 2.14 3.54 2.3 5.76 2.42 7 2.46 7 2.48 6 2.5 4.53 2.52 3.15 2.56 2.23 2.6 1.85 2.65 1.93 2.68 2.34 2.69 2.97 2.65 3.74 2.59 4.42 2.53 4.67 2.5 4.21 2.52 3.09 2.57 2.02 2.62 2.03 2.57 3.92 2.41 8.98 2.77" filter="url(#a)"/><path d="m73.34-40.67 13.11 2.8 9.29 2.49 3.79 2.13 2.02 2.07 1.99 2.18 2 2.33 1.64 2.44 1.01 2.49.34 2.51-.18 2.53-.41 2.57-.3 2.6.09 2.64.62 2.66 1.17 2.68 1.6 2.68 1.84 2.65 1.89 2.62 1.86 2.58 1.8 2.56 1.79 2.53 1.81 2.51 1.81 2.48 1.79 2.44 1.74 2.4 1.6 2.38 1.28 2.39.66 2.4-.16 2.42-.77 2.4-.64 2.33.28 2.26 1.17 2.25.87 2.3-.16 2.12.7 1.19" filter="url(#a)"/><path d="m72.56-42.14 2.35 2.41 2.7 2.66 3.29 2.53 5.01 2.36 6.44 2.26L99-27.66l5.78 2.33 4.41 2.43 2.96 2.49 1.63 2.51.53 2.49-.13 2.48-.15 2.48.54 2.48 1.71 2.5 3.02 2.48 4.05 2.46 4.5 2.42 4.2 2.38 3.18 2.36 1.62 2.39-.02 2.46-1.13 2.55-1.16 2.62-.04 2.64 1.67 2.52 2.95 2.3 3.07 2.07 2.77 2.04 4.73 2.54" filter="url(#a)"/><path d="m71.4-43.68 1.33 1.79 2.96 2.31 5.17 2.5 5.63 2.46 4.44 2.37 3.08 2.3 2.37 2.31 2.23 2.36 2.26 2.43 2.16 2.49 1.93 2.5 1.69 2.51 1.49 2.5 1.32 2.49 1.14 2.49.92 2.5.79 2.49.79 2.46.97 2.43 1.28 2.41 1.62 2.41 1.89 2.44 2.1 2.47 2.2 2.53 2.19 2.56 1.99 2.54 1.57 2.49 1.02 2.41.51 2.37.27 2.4.34 2.55.63 2.73 1.15 2.79 1.87 2.46.98 1.71" filter="url(#a)"/><path d="m70.88-44.83 4.69 2.39 1.82 2.25 1.79 2.3 3.02 2.25 4.03 2.17 4.03 2.15 3.11 2.22 1.98 2.31 1.32 2.4 1.48 2.46 2.42 2.49 3.7 2.52 4.76 2.56 5.15 2.58 4.73 2.63 3.74 2.66 2.62 2.68 1.86 2.67 1.66 2.66 1.91 2.61 2.26 2.58 2.34 2.55 2.03 2.54 1.43 2.52.92 2.5.82 2.44 1.18 2.36 1.75 2.29 2.11 2.31 2.02 2.44 1.9 2.7 2.52 2.9 1.9 2.82" filter="url(#a)"/><path d="m69.36-47.27 1.9 2.39 2.05 2.3 2.2 2.28 2.6 2.29 3.05 2.22 3.14 2.16 2.85 2.15 2.46 2.21 2.31 2.29 2.47 2.38 2.74 2.44 2.79 2.47 2.47 2.5 1.85 2.53 1.21 2.56.88 2.61 1.06 2.65 1.72 2.69 2.61 2.69 3.31 2.66 3.49 2.61 3 2.53 2.04 2.49 1.12 2.51.9 2.61 1.41 2.69 1.49 2.55-.51 1.4" filter="url(#a)"/><path d="m69.36-47.27 2.83 2.41 2.42 2.32 1.75 2.29 1.45 2.3 1.2 2.24 1 2.18.92 2.18.97 2.24 1.14 2.31 1.34 2.4 1.55 2.45 1.75 2.5 1.98 2.52 2.19 2.56 2.4 2.59 2.55 2.63 2.62 2.66 2.59 2.68 2.49 2.67 2.35 2.66 2.16 2.62 1.94 2.58 1.6 2.56 1.08 2.54.43 2.53-.24 2.49-.74 2.44-.91 2.37-.76 2.33-.46 2.35-.24 2.44-.09 2.59.13 2.61.42 2.28 1.09 1.24" filter="url(#a)"/><path d="m69.36-47.27 1.6 2.41 1.72 2.31 1.95 2.29 2.5 2.29 3.22 2.24 3.88 2.18 4.56 2.17 5.34 2.23 6.09 2.31 6.5 2.39 6.24 2.45 5.18 2.49 3.56 2.52 1.84 2.55.45 2.59-.31 2.62-.35 2.66.16 2.68.95 2.67 1.73 2.66 2.25 2.61 2.43 2.58 2.35 2.55 2.15 2.54 2.06 2.54 2.16 2.51 2.47 2.44 2.8 2.35 2.87 2.25 2.53 2.24 1.99 2.41 2.11 2.77 1.95 3.14" filter="url(#a)"/><path d="m69.36-47.27 1.94 2.41 1.8 2.32 1.5 2.3 1.29 2.3L77-35.7l.98 2.18.87 2.18.81 2.24.75 2.32.72 2.4.69 2.46.69 2.49.68 2.53.66 2.56.62 2.6.55 2.63.48 2.66.39 2.68.29 2.67.19 2.65.06 2.63-.04 2.58-.16 2.56-.24 2.55-.33 2.52-.38 2.49-.42 2.44-.47 2.38-.52 2.36-.61 2.36-.73 2.44-.85 2.51-.88 2.49-.77 2.25-.56 1.85-.74 1.75" filter="url(#a)"/><path d="m68.33-48.7 1.8 2.46L72-44.07l2.02 2.16 2.03 2.3 1.98 2.38L80-34.85l2.08 2.35 2.54 2.31 3.45 2.31 4.68 2.35 5.85 2.42 6.4 2.46 5.95 2.49 4.54 2.49 2.6 2.48.87 2.48v2.49l.2 2.5 1.25 2.49 2.58 2.47 3.55 2.42 3.82 2.36 3.34 2.33 2.36 2.34 1.15 2.42.07 2.57-.5 2.74-.21 2.87 1.04 2.8 3.43 2.6" filter="url(#a)"/><path d="m66.56-50.83 10.15 2.07.61 1.94-.48 2.06.1 2.18 1.09 2.24 2.09 2.24 2.75 2.23 2.86 2.2 2.51 2.2 2.02 2.25 1.62 2.32 1.43 2.38 1.39 2.45 1.46 2.48 1.64 2.52 1.94 2.55 2.37 2.59 2.82 2.63 3.16 2.66 3.31 2.68 3.2 2.67 2.9 2.66 2.41 2.62 1.76 2.59 1.04 2.56.38 2.54-.07 2.54-.18 2.51-.03 2.45.21 2.35.45 2.26.82 2.25 1.39 2.41 1.67 2.78.67 3.14M62.05-56.37l1.84 2.65 1.75 2.41 1.54 2.19 1.29 2.1 1 2.11.77 2.16.63 2.2.61 2.22.64 2.2.68 2.19.65 2.19.58 2.22.47 2.29.36 2.36.32 2.42.31 2.46.32 2.49.32 2.52.25 2.56.11 2.6-.05 2.66-.23 2.7-.35 2.73-.42 2.71-.47 2.63-.53 2.48-.65 2.38-.7 2.49-.52 2.71" filter="url(#a)"/><path d="m62.25-56.2 2.44 1.69 1.94 1.6 2.26 1.9 2.5 2.12 2.69 2.23 2.98 2.26 3.33 2.29 3.44 2.32L87-37.44l2.54 2.35 1.84 2.35 1.38 2.33 1.35 2.35 1.7 2.38 2.31 2.42 2.96 2.46 3.5 2.48 3.84 2.49 3.96 2.49 3.84 2.49 3.52 2.5 3.04 2.51 2.47 2.5 1.9 2.47 1.43 2.43 1.06 2.38.79 2.35.66 2.35.75 2.43 1.17 2.57 1.92 2.75 2.53 2.88 2.58 2.81 2.24 2.61" filter="url(#a)"/><path d="m59.4-59 1.48 1.35 1.77 1.83 1.81 2.12 1.73 2.2 1.61 2.16 1.51 2.13 1.43 2.14 1.39 2.16 1.34 2.19 1.31 2.2 1.24 2.2 1.18 2.18 1.09 2.19 1.03 2.22.97 2.27.9 2.35.83 2.41.74 2.46.66 2.48.6 2.5.58 2.54.56 2.58.52 2.65.46 2.71.37 2.8.25 2.9.11 2.97-.03 2.55" filter="url(#a)"/><path d="m59.4-59 1.87 1.35 2.42 1.84 3.42 2.13 3.6 2.2 2.93 2.17 2.11 2.14 1.64 2.14 1.55 2.17 1.65 2.19 1.78 2.21 1.94 2.2 2.14 2.19 2.38 2.2 2.57 2.23 2.56 2.29 2.26 2.36 1.74 2.41 1.2 2.46.89 2.49.95 2.52 1.34 2.55 1.82 2.6 2.11 2.66 2.09 2.71 1.9 2.75 1.79 2.75 1.8 2.65 1.53 2.43.51 2.23-.4 2.82" filter="url(#a)"/><path d="m59.5-59.18 3.03 1.04 2.43 1.65 2.89 1.74 3.52 1.81 4.04 1.95 4.09 2.08 3.54 2.18 2.66 2.24 1.9 2.28 1.56 2.32 1.72 2.34 2.23 2.34 2.84 2.35 3.3 2.34 3.52 2.35 3.45 2.39 3.13 2.41 2.7 2.46 2.25 2.48 1.88 2.49 1.63 2.49 1.51 2.5 1.5 2.5 1.58 2.51 1.78 2.51 2.1 2.48 2.56 2.43 3.1 2.38 3.52 2.33 3.63 2.32 3.25 2.4 2.35 2.57 1.05 2.81.11 3 1.41 2.61m-89.8-82.89 1.09 1.69-.84 1.64-2.08 1.87-1.39 2.06.32 2.14 1.57 2.15 1.79 2.13 1.21 2.14.37 2.16-.38 2.18-.89 2.2-1.12 2.19-1.16 2.18-1.01 2.17-.72 2.21-.34 2.27.02 2.34.2 2.41.08 2.45-.42 2.47-1.22 2.49-2.11 2.52-2.76 2.57-2.87 2.62-2.24 2.66-.91 2.64.48 2.36M55.7-62.72l3.51 2.49 3.62 1.84 5.5 1.74 7.41 1.72 7.98 1.78 7.35 1.9 6.29 2.02 5.22 2.12 4.2 2.18 3.2 2.23 2.26 2.27 1.63 2.32 1.62 2.33 2.46 2.32 4.12 2.26 6.18 2.21 7.88 2.22 8.35 2.32 7.01 2.54 4.2 2.78 1.68 2.67 4.16 1.64" filter="url(#a)"/><path d="m54.56-63.58 2.52 2.24 2.2 1.86 2.73 1.81 3.54 1.92 3.98 2.05 3.84 2.13 3.38 2.14 2.94 2.14 2.73 2.16 2.68 2.18 2.61 2.19 2.46 2.2 2.24 2.2 2.06 2.2 2 2.21 2.05 2.25 2.07 2.29 1.97 2.36 1.67 2.41 1.29 2.46.92 2.49.78 2.52.93 2.56 1.32 2.61 1.76 2.66 1.96 2.72 1.76 2.75 1.24 2.75.75 2.66.93 2.44 1.89 2.24 2.15 2.82" filter="url(#a)"/><path d="m55.54-62.72 1.73.95 5.27 1.64 7.29 1.73 6.63 1.74 4.79 1.76 3.24 1.82 2.52 1.93 2.44 2.04 2.6 2.13 2.62 2.2 2.26 2.25 1.62 2.3.9 2.32.45 2.33.48 2.33 1.1 2.31 2.22 2.3 3.61 2.33 4.99 2.4 6 2.46 6.28 2.51 5.7 2.49 4.47 2.43 3.15 2.38 2.19 2.45 1.79 2.62 1.74 2.71.51 2.43" filter="url(#a)"/><path d="m52.51-65.39 2.56 1.92 3.57 1.61 5.86 1.66 6.82 1.7 5.77 1.72 3.95 1.75 2.78 1.81 2.75 1.91 3.49 2.01 4.25 2.1 4.51 2.18 4.31 2.23 4.15 2.27 4.55 2.32 5.61 2.34 7 2.32 8 2.27 8.14 2.23 7.29 2.23 5.78 2.33 4.26 2.55 3.52 2.78 4.3 2.68 5.83 1.65M52.51-65.39l1.35 1.92-.4 1.61-1.11 1.66-1.33 1.7-1.11 1.72-.37 1.75.65 1.81 1.37 1.91 1.42 2.01.71 2.1-.47 2.18-1.7 2.23-2.63 2.27-3.1 2.32-3.17 2.34-3.03 2.32-2.96 2.27-3.02 2.23-3.07 2.23-2.89 2.33-2.66 2.55-3.17 2.78-4.34 2.68-2.56 1.65" filter="url(#a)"/><path d="m52.65-65.11 1.37.79 1.76 1.33 1.88 1.62 1.96 1.72 2.11 1.8 2.29 1.9 2.41 2.01 2.42 2.07 2.38 2.1 2.35 2.11 2.35 2.13 2.39 2.14 2.43 2.18 2.48 2.19 2.49 2.19 2.48 2.15 2.46 2.12 2.42 2.13 2.4 2.21 2.29 2.35 1.98 2.47 1.44 2.47 1.01 2.5 1.62 3.5M51.87-66.19l13.97 1.22 3.87 1.49 3.38 1.58 4.52 1.65 5.02 1.69 4.51 1.71 3.61 1.75 2.89 1.82 2.41 1.9 1.95 2 1.44 2.1 1.12 2.17 1.32 2.22 2.35 2.27 4.22 2.32 6.57 2.34 8.91 2.33 10.64 2.28 11.36 2.2 10.92 2.18 9.4 2.28 7.28 2.59 5.44 3.11 3.92 3.43" filter="url(#a)"/><path d="m46.04-70.2 9.32 1.81 6.87 1.66 2.92 1.57 3.05 1.56 4.1 1.58 4.27 1.64 3.87 1.67 3.81 1.7 4.27 1.74 4.88 1.8 5.09 1.88 4.77 1.99 4.16 2.07 3.65 2.15 3.48 2.21 3.61 2.26 4 2.32 4.7 2.38 5.84 2.38 7.25 2.31 8.42 2.16 9.08 2.02 9.44 1.97" filter="url(#a)"/><path d="m44.09-71.23 5.16 2.03 2.54 1.58 2.9 1.5 3.19 1.5 2.81 1.55 2.22 1.62 2 1.7 2.39 1.8 3.31 1.89 4.41 1.98 5.34 2.04 5.78 2.09 5.54 2.11 4.77 2.13 3.8 2.15 3.06 2.18 2.84 2.2 3.15 2.2 3.68 2.15 4.03 2.12 3.93 2.11 3.56 2.2 3.34 2.38 3.45 2.51 3.32 2.3 3.64 1.15M44.09-71.23l3.15 2.02 2.6 1.57 2.59 1.5 2.49 1.49 2.47 1.53 2.62 1.61 2.89 1.69 3.18 1.77 3.42 1.88 3.57 1.96 3.56 2.04 3.36 2.08 3 2.1 2.62 2.11 2.38 2.13 2.45 2.18 2.78 2.22 3.13 2.22 3.32 2.16 3.34 2.01 3.29 1.88 2.79 1.99 1.58 2.41" filter="url(#a)"/><path d="m37.64-74.91 3.75 1.93 2.62 1.46 2.68 1.47 3.03 1.53 3.18 1.56 3.04 1.57 2.74 1.58 2.52 1.6 2.52 1.62 2.71 1.66 2.94 1.69 3.05 1.73 3.02 1.78 2.96 1.86 3.03 1.97 3.33 2.06 3.74 2.14 3.99 2.18 3.89 2.22 3.56 2.32 3.47 2.48 4.06 2.55 3.32 2.3" filter="url(#a)"/><path d="m38.14-74.61 1.3.56 3.37 1.22 4.82 1.38 4.84 1.47 3.55 1.54 2.05 1.58 1.21 1.6 1.17 1.61 1.73 1.64 2.59 1.67 3.48 1.7 4.21 1.75 4.7 1.8 4.9 1.86 4.84 1.95 4.58 2.02 4.23 2.11 3.91 2.17 3.67 2.24 3.58 2.29 3.62 2.31 3.72 2.34 3.8 2.33 3.76 2.34 3.51 2.34 3.07 2.37 2.51 2.42 2.04 2.46 1.82 2.5 1.96 2.5 2.36 2.47 2.83 2.45 3.24 2.48 3.73 2.57 4.36 2.63 4.69 2.5L162.27.8" filter="url(#a)"/><path d="m35.57-75.83 4.43.89 4.81.96 4.97 1.17 4.88 1.33 3.85 1.45 2.5 1.51 1.56 1.55 1.34 1.58 1.69 1.6 2.37 1.62 3.18 1.65 3.98 1.68 4.73 1.72 5.33 1.77 5.64 1.83 5.58 1.91 5.17 1.99 4.62 2.08 4.28 2.16 4.33 2.22 4.77 2.28 5.26 2.33 5.45 2.36 5.29 2.35 5.06 2.3 5.09 2.2 5.34 2.13 5.49 2.17 5.78 2.52 7.7 3.64" filter="url(#a)"/><path d="m30.73-77.91 4.03.97 3.23.94 2.64 1.08 2.8 1.23 3.31 1.36 3.7 1.44 3.73 1.48 3.37 1.51 2.75 1.53 2.13 1.55 1.72 1.59 1.63 1.64 1.82 1.71 2.2 1.8 2.64 1.87 3.01 1.96 3.24 2.03L82-50.14l3.22 2.11 3 2.14 2.75 2.17 2.58 2.19 2.55 2.21 2.72 2.2 3.07 2.17 3.53 2.14 3.93 2.14 4.1 2.22 3.89 2.38 3.38 2.52 3.05 2.32 3.29 1.17" filter="url(#a)"/><path d="m30.8-77.99 1.4.8 1.97 1.04 2.07 1.05 2.14 1.1 2.14 1.19 2.06 1.31 1.97 1.41 1.87 1.48 1.75 1.54 1.64 1.56 1.52 1.6 1.4 1.61 1.26 1.64 1.11 1.68.97 1.71.82 1.75.74 1.81.73 1.89.78 1.98.88 2.07.95 2.14.93 2.21.8 2.27.61 2.34.48 2.42.5 2.43.57 2.36.35 2.18-.74 1.93" filter="url(#a)"/><path d="m27.01-79.31 3.16 1.06 2.77 1.01 2.65 1.02 2.66 1.04 2.74 1.08 2.81 1.18 2.79 1.27 2.68 1.37 2.54 1.46 2.42 1.51 2.32 1.54 2.3 1.56 2.33 1.59 2.36 1.61 2.36 1.64 2.29 1.67 2.23 1.68 2.29 1.68 2.56 1.72 2.93 1.88 3.15 2.23 3.49 2.61" filter="url(#a)"/><path d="m27.01-79.31 3.18 1.08 2.97 1.01 2.76 1.04 2.51 1.06 2.3 1.11 2.25 1.2 2.34 1.31 2.48 1.4 2.55 1.47 2.52 1.53 2.35 1.57 2.14 1.59 1.95 1.61 1.88 1.65 1.94 1.67 2.09 1.71 2.28 1.76 2.46 1.81 2.59 1.89 2.66 1.98 2.67 2.07 2.65 2.15 2.58 2.21 2.46 2.27 2.21 2.34 1.84 2.42 1.45 2.44 1.22 2.36 1.37 2.18 1.37 1.93" filter="url(#a)"/><path d="m26.32-79.75.63.85.31.92 1.15.93 1.92.98 2.28 1.08 2.33 1.19 2.24 1.3 2.07 1.39 1.84 1.44 1.52 1.48 1.12 1.49.68 1.51.31 1.54.12 1.58.19 1.63.45 1.71.74 1.81.84 1.92.6 2.06-.03 2.13-.95 2.07-1.65 1.92-.32 1.99" filter="url(#a)"/><path d="m22.71-80.58 4.35.67 2.11.81 2.68.91 3.93.97 4.89 1.03 5.09 1.07 4.69 1.14 4.13 1.22 3.76 1.31 3.69 1.39 3.69 1.47 3.51 1.52 3.04 1.57 2.36 1.6 1.71 1.62 1.34 1.66 1.38 1.69 1.84 1.74 2.6 1.78 3.46 1.84 4.23 1.92 4.75 1.99 4.99 2.08 5.03 2.16 4.98 2.23 5.03 2.28 5.24 2.33 5.56 2.35 5.88 2.35 6.12 2.31 6.26 2.25 6.31 2.23 5.99 2.31 5.01 2.61 3.64 3.14 3.25 3.47" filter="url(#a)"/><path d="m22.71-80.58 2.33.67 2.27.8 2.26.9 2.22.97 2.18 1.02 2.17 1.06 2.17 1.12 2.21 1.2 2.22 1.3 2.21 1.38 2.18 1.46 2.09 1.51 1.98 1.56 1.87 1.58 1.76 1.61 1.66 1.64 1.57 1.67 1.51 1.71 1.45 1.74 1.4 1.8L63.77-52l1.32 1.97 1.29 2.06 1.25 2.14 1.19 2.2 1.13 2.24 1.09 2.35 1.07 2.49.98 2.57.78 2.33" filter="url(#a)"/><path d="m18.74-81.57 1.92.33 2.44.62 2.54.79 2.5.87 2.47.92 2.47.96 2.56 1.02 2.66 1.1 2.75 1.2 2.76 1.29 2.7 1.37 2.59 1.44 2.49 1.47 2.46 1.51 2.5 1.53 2.59 1.56 2.7 1.61 2.78 1.67 2.84 1.75 2.88 1.84 2.89 1.94 2.86 2.02 2.77 2.09 2.61 2.1 2.48 2.1 2.41 2.08 2.26 2.09 1.9 2.07 2.49 2.24" filter="url(#a)"/><path d="m16.4-82.35 8.28.59 1.31.52 1.66.65 2.58.76 2.66.85 2.31.9 2.2.96 2.59 1.01 3.32 1.09 4.11 1.19 4.7 1.27 5 1.37 5.12 1.42 5.22 1.47 5.38 1.49 5.59 1.52 5.77 1.55 5.94 1.59 6.32 1.64 7.07 1.72 8.12 1.81 9.01 1.93 9.17 2.05 8.41 2.14 7.13 2.09 5.77 1.93 4.03 2.01" filter="url(#a)"/><path d="m14.92-82.52 2.29.42 3.37.69 3.46.72 3.32.75 3.17.8 3.02.86 2.92.93 2.82.98 2.75 1.03 2.67 1.09 2.64 1.17 2.63 1.25 2.67 1.34 2.75 1.43 2.86 1.49 2.96 1.53 3.02 1.56 2.99 1.57 2.82 1.61 2.62 1.65 2.6 1.71 3.02 1.74 3.62 1.64 3.32 1.06" filter="url(#a)"/><path d="m13.52-82.79 2.54.5 2.23.51 2.26.56 2.43.65 2.58.75 2.73.84 2.89.9 3.05.95 3.27 1.01 3.46 1.1 3.65 1.18 3.75 1.27 3.75 1.36 3.63 1.42 3.41 1.47 3.2 1.49 3.11 1.52 3.18 1.55 3.33 1.59 3.47 1.64 3.5 1.72L82.48-57l3.78 1.94 4.26 2.05 4.67 2.14 4.48 2.1 3.97 1.93 6.01 2.01" filter="url(#a)"/><path d="m13.19-82.91 1.81.37 2.44.53 2.99.64 3.15.72 2.97.76 2.65.82 2.4.88 2.32.95 2.36 1 2.5 1.07 2.66 1.13 2.83 1.21 2.98 1.3 3.11 1.37 3.22 1.44 3.22 1.5 3.1 1.55 2.85 1.59 2.51 1.62 2.13 1.65 1.86 1.68 1.74 1.72 1.8 1.76 1.98 1.83 2.2 1.89 2.36 1.98 2.41 2.07 2.39 2.15 2.37 2.21 2.46 2.28 2.69 2.36 2.94 2.42 3.06 2.45 2.94 2.38 2.51 2.19 1.29 1.95" filter="url(#a)"/><path d="m8.03-83.64 2.68.37 2.7.46 2.54.49 2.48.53 2.65.59 3.05.66 3.5.75 3.85.82 3.99.89 3.9.95 3.68 1.02 3.39 1.09 3.12 1.19 2.89 1.27 2.75 1.35 2.71 1.42 2.81 1.46 3.08 1.5 3.42 1.52 3.73 1.56 3.89 1.6 3.84 1.66 3.66 1.73 3.5 1.83 3.5 1.94L93-52.95l3.8 2.11 3.69 2.12 3.28 2.08 2.82 2.16 2.2 2.55" filter="url(#a)"/><path d="m7.1-83.46 2.91.16 3.29.34 2.97.44 2.81.54 2.94.61 3.14.69 3.27.74 3.28.8 3.18.87 3.08.92 3.04.98 3.13 1.04 3.39 1.1 3.73 1.18 4.08 1.26 4.38 1.34 4.55 1.42 4.55 1.49 4.3 1.54 3.81 1.56 3.25 1.6 2.87 1.62 2.96 1.66 3.6 1.69 4.44 1.69 4.94 1.66 4.9 1.65 5.01 1.8 6.84 2.37" filter="url(#a)"/><path d="m.44-83.93 3.38.23 2.83.21 2.74.25 2.73.34 2.76.43 2.87.52 3.06.59 3.3.67 3.56.74 3.81.79 3.96.86 4 .92 3.93.97 3.8 1.03 3.68 1.1 3.62 1.17 3.68 1.26L62-70.52l4.13 1.42 4.43 1.49 4.71 1.53 4.92 1.57 5.04 1.59 5.03 1.62 4.81 1.67 4.28 1.69 3.54 1.71 3.03 1.63 3.36 1.48 4.02 1.51" filter="url(#a)"/><path d="m.44-83.93 3.4.23 2.92.2 2.84.25 2.95.33 3.17.42 3.47.5 3.65.59 3.62.66 3.4.71 3.2.78 3.17.84 3.41.9 3.77.95 4.09 1.01 4.23 1.06 4.16 1.12 3.99 1.21 3.84 1.31 3.78 1.42 3.86 1.51 4.16 1.55 4.68 1.53 5.28 1.38 4.41.75" filter="url(#a)"/></g><path fill="none" stroke="#000" stroke-linejoin="round" stroke-width="3" d="M-11.18 29.72Q13.94 42.9 1.38-4.842" filter="url(#a)"/><path fill="#D77F8C" stroke="#000" stroke-linejoin="round" stroke-width="3" d="m-26.43 63.45.06-1.06.08-1.03.1-1 .13-.96.14-.93.17-.9.18-.87.21-.83.22-.81.24-.77.27-.75.27-.71.3-.69.31-.65.33-.63.35-.6.36-.57.38-.54.39-.52.4-.49.42-.46.44-.44.45-.41.46-.38.47-.36.48-.33.5-.31.51-.29.52-.26.53-.24.54-.21.54-.19.56-.17.57-.15.57-.12.59-.1.59-.09.6-.06.6-.04.61-.02h.62l.62.02.63.04.63.05.63.08.64.09.65.11.64.13.65.15.65.16.66.18.65.19.66.21.65.22.66.24.65.26.66.27.65.28.66.29.65.31.64.33.65.33.64.35.64.36.64.37.63.38.62.39.62.4.62.41.61.43.6.43.59.44.59.45.58.46.58.46.56.48.55.48.55.48.54.5.52.5.52.51.5.51.5.51.48.53.47.52.45.54.45.53.43.54.41.54.41.54.38.55.37.55.36.55.34.55.33.56.31.55.29.56.27.55.25.55-.47-.33-.48-.34-.48-.33-.48-.34-.48-.33-.48-.34-.47-.33-.48-.33-.48-.33-.48-.33-.48-.33-.48-.33-.48-.32-.47-.32-.48-.32-.48-.32-.48-.31-.48-.31-.48-.31-.47-.3-.48-.3-.48-.3-.48-.29-.48-.29-.48-.28-.48-.28-.47-.27-.48-.27-.48-.26-.48-.26-.48-.25-.48-.25-.47-.24-.48-.23-.48-.23-.48-.22-.48-.21-.48-.21-.48-.19-.47-.19-.48-.19-.48-.17-.48-.17-.48-.16-.48-.15-.47-.14-.48-.13-.48-.12-.48-.12-.48-.1-.48-.09-.48-.09-.47-.07-.48-.06-.48-.06-.48-.04-.48-.03-.48-.02-.47-.01-.48.01-.48.01-.48.03-.48.04-.48.06-.48.06-.47.08-.48.09-.48.1-.48.12-.48.13-.48.15-.47.16-.48.17-.48.19-.48.21-.48.21-.48.24-.48.25-.47.26-.48.28-.48.3-.48.31-.48.33-.48.34-.47.36-.48.38-.48.4-.48.41-.48.43-.48.45-.48.47-.47.49-.48.5-.48.52-.48.54-.48.56-.48.58-.48.6-.47.62" filter="url(#a)"/></svg>