<svg xmlns="http://www.w3.org/2000/svg" width="500" height="500" viewBox="-100 -100 200 200"><defs><clipPath id="c"><path d="m34.83.54-.2-.11-.23-.12-.27-.12-.3-.11-.34-.12-.38-.12-.41-.12-.45-.12-.49-.11-.53-.12-.56-.11-.6-.11-.64-.11-.67-.11-.71-.1-.57-.15-.64-.15-.7-.14-.78-.14-.84-.12-.9-.12-.97-.11-1.02-.1-1.07-.09-1.13-.08-1.18-.07-1.21-.06-1.26-.05-1.29-.04-1.31-.04-1.35-.02-1.36-.02H7.69l-1.4.01-1.4.02-1.4.03-1.4.03-1.38.05-1.38.05-1.36.05-1.33.06-1.32.07-1.28.07-1.26.08-1.22.09-1.19.08-1.16.09-1.11.1-1.07.1-1.04.1-.98.1-.95.11-.9.1-.86.11-.81.11-.77.11-.72.11-.68.12-.64.11-.6.11-.56.11-.52.11-.48.11-.45.1-.42.11-.39.11-.35.1-.31.11-.28.1-.25.1-.22.1-.19.1-.16.1-.14.1-.1.1-.08.09-.05.1-.03.09-.29.71.45.05.45.04.47.04.49.04.49.04.51.04.52.03.53.03.55.03.55.03.58.03.58.03.6.02.61.02.63.02.64.02.66.02.68.01.69.01.71.02h.73l.74.01.76.01h3.22l.84-.01h.87l.87-.01.89-.01.9-.01.92-.01.93-.02.94-.01.95-.02.96-.02.97-.02.98-.02.98-.02.99-.02.99-.02.99-.02 1-.02.99-.02.99-.02.99-.02.99-.02.98-.02.97-.02.96-.01.96-.02.94-.01.92-.02.92-.01.9-.01.88-.01h.86l.84-.01h3.15l.73.01.69-.01.67-.01.66-.01.64-.01.63-.01.61-.01.59-.01.57-.01.56-.01.54-.02.51-.01.5-.01.48-.02.46-.02.43-.02"/></clipPath><clipPath id="b"><path d="m-34.62.6.19-.16.22-.17.26-.16.29-.17.33-.17.36-.16.4-.17.43-.16.48-.17.51-.16.55-.15.58-.16.62-.15.66-.14.69-.14.55-.21.62-.21.68-.2.76-.18.82-.17.88-.16.95-.15 1-.13 1.06-.12 1.11-.1 1.15-.1 1.2-.07 1.24-.07 1.27-.05 1.3-.04 1.33-.03 1.35-.01h1.37l1.38.01 1.38.03 1.39.03 1.39.05 1.39.05 1.37.07 1.36.07 1.35.09 1.32.09 1.31.1 1.27.1 1.25.12 1.21.12 1.18.12 1.14.13 1.1.14 1.07.14 1.01.14.98.14.93.15.89.15.84.15.79.15.75.16.7.15.66.15.62.15.57.15.53.15.49.15.46.15.42.14.38.15.35.14.31.14.28.14.24.14.2.14.17.13.14.13.11.13.08.13.05.13.01.12-.01.13-.03.12 2.18.53-.45.07-.46.08-.47.07-.49.07-.5.07-.5.06-.53.06-.53.06-.55.06-.56.05-.57.05-.59.05-.6.05-.61.04-.63.04-.64.04-.66.04-.68.03-.69.04-.71.02-.73.03-.74.03-.76.02-.78.02-.79.01-.81.02-.82.01-.85.01-.85.01h-.87l-.89.01H5.43l-.92-.01h-.94l-.94-.01h-.95l-.96-.01-.97-.01-.98-.01-.98-.02-.98-.01-.99-.01-.98-.02-.99-.01-.98-.02-.98-.01-.98-.02-.97-.01-.97-.02-.95-.01-.95-.02-.94-.01-.92-.01-.91-.02-.89-.01-.88-.01-.86-.01-.84-.01-.82-.01-.79-.01h-.78l-.75-.01-.73-.01-.69-.01-.67-.02-.66-.02-.64-.01-.63-.02-.61-.02-.59-.02-.58-.02-.56-.03-.54-.02-.52-.03-.5-.03-.48-.03-.46-.03-.44-.03"/></clipPath><filter id="a"><feTurbulence baseFrequency=".05" numOctaves="3" result="noise" type="noise"/><feDisplacementMap in="SourceGraphic" in2="noise" scale="2"/></filter></defs><rect width="100%" height="100%" x="-100" y="-100" fill="#704214"/><path fill="#CD5C5C" stroke="#000" stroke-linejoin="round" stroke-width="1.667" d="m71.41-.32-.2 1.84.26 1.34-.23-.88.06 3.99.06.49-.32.31.14.87-.34 3.5-.31-.5.08 1.73-.26 1.11.23-.45-.61 2.18-.24 1.63-.51 2.4-.03.69-.5.63-.03.97v.04l-.84 1.86-.64 2.77.29-.29-.57 1.04-.98 2.79-.33.1.2.1-.71 2.47-.18.85-1.5 2.28.01.37-.22.08.16-.05-1.12 2.64-1.21 1.84L60 41.8l-.24.25-.07.54-.27.66-.99 1.4-1.56 2.42.01.13-1.06 1.4.01-.05-.84.95-.82 1.06-.82.64-1.15 2.09-.51.68-1.44 1.32.86-.32-.63.25-1.52 1.42-1.13 1.32-.13.17-.92.34-1.86 2.14-1.34.63 1.77-1.02-2.12 1.81-1.67 1.05-1.91 1.76.2-.32v.5l-1.79.67-2.77 1.95 1.14-.92-1.64 1.39-1.96 1.07.93-.7-1.61 1.08H32l-.95.48-.14.14-2.17 1.14-.21.02-2.67 1.23-.45.2-.54.28-2.84 1.09.03-.25h-.28l-2.06.85.25-.04-1.28.35-3.23.74-.12.18-.91.13-1.6.51h-.02l-.85-.16-2.43.5-1.3.46.64-.22-1.43-.05-2.23.39-1.76-.08.45.4-.9-.13-2.31.14-1.19-.02h-1.67l-.95-.02-.48-.01-2.2-.42-.79.17.2.02-2.69-.23.86-.23-1.45-.09-.64-.4-2.5-.04-.46-.15-1.52-.25 1.12.37-1.99-.58-2.34-.74-1.67-.38-.19-.17-.87-.41-1.07-.08-1.66-.75-.69-.34-.69-.43-1.64-.53-.38-.21-2.01-.96-.69-.16-1.74-.85.21.1-.25-.11-1.64-.91-.76-.69-.83-.18-1.56-1.36.02.2-2.65-1.62-.56-.36-1.45-1.05-1.47-1.2.82.35-.51-.13-1.69-1.32-1.57-1.25.25-.13-2.06-1.53-.44-.77-2.08-1.88.19.38-.98-1.18-.18-.44-.31-.83-1.68-1.39-.48-.29.49.49-1.46-1.71-1.67-2.4-.65-.41-.26-1.25-.2.44-1.31-2.12-.19-.5-1.73-1.94-.3-1.36-.5-.77.1.45-1.48-2.63-.16-.34.01-.71.06.65-1.7-3.87-.02.37-.53-1.29-.71-2-1.31-2.73.48.76-.58-2.02-.36.16-.52-1.65-.26-1.95-.47-.65-.31-2 .34 1.32-.56-1.74-.17-.02-.59-3.56-.45-1.31-.17-.35-.21-2.18.23.78-.31-1.35-.5-1.78-.01-1.54-.03-1.91-.21-.59-.28-2.91.33.6-.04-.26-.08-2.84-.03-1.59-.32-.57.1.64.08-2.96.2-1.83-.08-.58.03-1.33-.05-1.46.12-.28.48-2.46-.17-.36.08-.37.26-1.54.43-1.66.64-2.71-.44 1.98.62-2.95.03.05.35-2.37.31-1.76.19-.44.69-1.95.39-.21.04-.9.6-2.1-.02.54.89-2.65-.07-.8.79-.76-.06-.61.45-.82 1.48-3.71-.26.53.35-.65.95-1.58.86-1.02.75-1.6.95-1.81-.06-.2.43.18.73-1.84-.41.62 1.33-1.95 1.42-2.4.19.29.82-.98 1.33-1.97 1.28-1.81-.18 1-.01-.4 2.44-2.52.61-1.11.24-.07.91-1.02 1.19-1.11-.91.57 2.65-2.42.04.11-.1-.2 1.22-.87 1.86-1.58 1.53-1.27-.41.45 1.36-1.01 2.21-1.27-1.12.47 3.01-2.18 1.27-.64-.85.83 1.81-1.56-.71.57 1-.54.98-.71 2.21-1.08.81-.3.85-.26 2.34-1.27-.1.18 1.69-.58 2.13-.96-1.99.46 3.04-1.13-.39.21 2.29-.81 1.7-.26-1.21.24 3.49-.88 1.07-.22-1.06.03 2.53-.26.67-.05 1.97-.71.98-.21 1.52-.08-1.18.36 1.8-.38 1.49-.13 1.59-.16 1.94.04-.93-.28 2.64-.02 1.29.05-.4.24 2.96-.27 1.78.49.47-.29-.66-.1 2.72.41-1.72-.19 1.68.08 2.96.73 2.05.13-.09.27-.1-.27 1.5.33 1.97.19 1.03.4-.54.01 3.48 1.08.38.04 1.04.51.1-.02 1.07.27 1.67.56 1.31.37.35.37.93.53 1.34.58.89.62-.02-.03 3.37.9 1.44 1.27-.25-.14.76.31 1.77 1.01-.29.2 2.01 1.21 1.55 1.05-.2.03 1.45.74 1.67 1.42-.51-.14 2.04 1.39-.58-.58 1.17 1.09 2.57 2.26-1.05-1.1 2.34 1.82.12.39.2.65 1.02.77 1.1 1.34 1.29 1.43.76.68-.87-.88 1.7 2.21.91 1.33 1.76 1.71-.72-.85.84 1.51 1.19 1.89 1.21.93.83 1.63-.18-.13.4 1.37.02-.68 1.47 2.63.71.86.05 1.33.45-.08.76 2.01.66 1.25 1.06 1.85-.15-.43.51 1.35.34 1 .8 2.41.57 1.03.25 1.07-.09.77.67 1.35.3.53.53 1.53.38 1.25-.01.65-.05.35.31.22.9 4.23-.34-1.25.28 1.61.31 1.27.23 1.9.28 2.43.19 1.63-.09.11.03.33.29 1.59-.13 1.13.24 1.66-.13.12.06.73.1 2.07-.2 1.84" filter="url(#a)"/><path fill="#fff" d="m-34.62.6.19-.16.22-.17.26-.16.29-.17.33-.17.36-.16.4-.17.43-.16.48-.17.51-.16.55-.15.58-.16.62-.15.66-.14.69-.14.55-.21.62-.21.68-.2.76-.18.82-.17.88-.16.95-.15 1-.13 1.06-.12 1.11-.1 1.15-.1 1.2-.07 1.24-.07 1.27-.05 1.3-.04 1.33-.03 1.35-.01h1.37l1.38.01 1.38.03 1.39.03 1.39.05 1.39.05 1.37.07 1.36.07 1.35.09 1.32.09 1.31.1 1.27.1 1.25.12 1.21.12 1.18.12 1.14.13 1.1.14 1.07.14 1.01.14.98.14.93.15.89.15.84.15.79.15.75.16.7.15.66.15.62.15.57.15.53.15.49.15.46.15.42.14.38.15.35.14.31.14.28.14.24.14.2.14.17.13.14.13.11.13.08.13.05.13.01.12-.01.13-.03.12 2.18.53-.45.07-.46.08-.47.07-.49.07-.5.07-.5.06-.53.06-.53.06-.55.06-.56.05-.57.05-.59.05-.6.05-.61.04-.63.04-.64.04-.66.04-.68.03-.69.04-.71.02-.73.03-.74.03-.76.02-.78.02-.79.01-.81.02-.82.01-.85.01-.85.01h-.87l-.89.01H5.43l-.92-.01h-.94l-.94-.01h-.95l-.96-.01-.97-.01-.98-.01-.98-.02-.98-.01-.99-.01-.98-.02-.99-.01-.98-.02-.98-.01-.98-.02-.97-.01-.97-.02-.95-.01-.95-.02-.94-.01-.92-.01-.91-.02-.89-.01-.88-.01-.86-.01-.84-.01-.82-.01-.79-.01h-.78l-.75-.01-.73-.01-.69-.01-.67-.02-.66-.02-.64-.01-.63-.02-.61-.02-.59-.02-.58-.02-.56-.03-.54-.02-.52-.03-.5-.03-.48-.03-.46-.03-.44-.03" filter="url(#a)" transform="translate(31.96 -23.83)"/><path fill="#fff" d="m34.83.54-.2-.11-.23-.12-.27-.12-.3-.11-.34-.12-.38-.12-.41-.12-.45-.12-.49-.11-.53-.12-.56-.11-.6-.11-.64-.11-.67-.11-.71-.1-.57-.15-.64-.15-.7-.14-.78-.14-.84-.12-.9-.12-.97-.11-1.02-.1-1.07-.09-1.13-.08-1.18-.07-1.21-.06-1.26-.05-1.29-.04-1.31-.04-1.35-.02-1.36-.02H7.69l-1.4.01-1.4.02-1.4.03-1.4.03-1.38.05-1.38.05-1.36.05-1.33.06-1.32.07-1.28.07-1.26.08-1.22.09-1.19.08-1.16.09-1.11.1-1.07.1-1.04.1-.98.1-.95.11-.9.1-.86.11-.81.11-.77.11-.72.11-.68.12-.64.11-.6.11-.56.11-.52.11-.48.11-.45.1-.42.11-.39.11-.35.1-.31.11-.28.1-.25.1-.22.1-.19.1-.16.1-.14.1-.1.1-.08.09-.05.1-.03.09-.29.71.45.05.45.04.47.04.49.04.49.04.51.04.52.03.53.03.55.03.55.03.58.03.58.03.6.02.61.02.63.02.64.02.66.02.68.01.69.01.71.02h.73l.74.01.76.01h3.22l.84-.01h.87l.87-.01.89-.01.9-.01.92-.01.93-.02.94-.01.95-.02.96-.02.97-.02.98-.02.98-.02.99-.02.99-.02.99-.02 1-.02.99-.02.99-.02.99-.02.99-.02.98-.02.97-.02.96-.01.96-.02.94-.01.92-.02.92-.01.9-.01.88-.01h.86l.84-.01h3.15l.73.01.69-.01.67-.01.66-.01.64-.01.63-.01.61-.01.59-.01.57-.01.56-.01.54-.02.51-.01.5-.01.48-.02.46-.02.43-.02" filter="url(#a)" transform="translate(-42.1 -23.41)"/><g fill="none" stroke="#000" transform="translate(31.96 -23.83)"><path stroke-linejoin="round" stroke-width="1.667" d="m-35.14 1.82-.03-.08-.01-.08-.01-.1.01-.12.04-.12.05-.13.07-.14.11-.14.13-.16.16-.15.19-.16.22-.17.26-.16.29-.17.33-.17.36-.16.4-.17.43-.16.48-.17.51-.16.55-.15.58-.16.62-.15.66-.14.69-.14.55-.21.62-.21.68-.2.76-.18.82-.17.88-.16.95-.15 1-.13 1.06-.12 1.11-.1 1.15-.1 1.2-.07 1.24-.07 1.27-.05 1.3-.04 1.33-.03 1.35-.01h1.37l1.38.01 1.38.03 1.39.03 1.39.05 1.39.05 1.37.07 1.36.07 1.35.09 1.32.09 1.31.1 1.27.1 1.25.12 1.21.12 1.18.12 1.14.13 1.1.14 1.07.14 1.01.14.98.14.93.15.89.15.84.15.79.15.75.16.7.15.66.15.62.15.57.15.53.15.49.15.46.15.42.14.38.15.35.14.31.14.28.14.24.14.2.14.17.13.14.13.11.13.08.13.05.13.01.12-.01.13-.03.12-.07.11-.08.12-.12.11-.13.11-.16.11-.18.11-.21.1-.22.11-.24.1-.26.09" filter="url(#a)"/><path stroke-linejoin="round" stroke-width="2.222" d="m-34.78 2.29.21.07.24.07.26.06.28.06.31.05.32.06.36.04.37.05.4.04.42.04.44.03.46.03.48.03.5.03.52.03.54.02.56.03.58.02.59.02.61.02.63.02.64.01.66.02.67.02.69.01.73.01.75.01h.78l.79.01.82.01.84.01.86.01.88.01.89.01.91.02.92.01.94.01.95.02.95.01.97.02.97.01.98.02.98.01.98.02.99.01.98.02.99.01.98.01.98.02.98.01.97.01.96.01h.95l.94.01h.94l.92.01h1.81l.89-.01H9l.85-.01.85-.01.82-.01.81-.02.79-.01.78-.02.76-.02.74-.03.73-.03.71-.02.69-.04.68-.03.66-.04.64-.04.63-.04.61-.04.6-.05.59-.05.57-.05.56-.05.55-.06.53-.06.53-.06.5-.06.5-.07.49-.07.47-.07.46-.08.45-.07.44-.08.42-.08.42-.09.4-.09.4-.08.38-.09.38-.1.36-.09.36-.1.34-.1" filter="url(#a)"/><circle cx=".658" cy="-1.922" r="4.696" clip-path="url(#b)" filter="url(#a)"/><circle cx="-1.007" cy="-.502" r="3.068" clip-path="url(#b)" filter="url(#a)"/><circle cx="-3.512" cy="-.267" r="3.21" clip-path="url(#b)" filter="url(#a)"/><circle cx="-2.822" cy="-3.642" r="3.02" clip-path="url(#b)" filter="url(#a)"/><circle cx="-3.097" cy="-2.297" r="3.554" clip-path="url(#b)" filter="url(#a)"/><circle cx="-2.592" cy="-1.087" r="4.574" clip-path="url(#b)" filter="url(#a)"/><circle cx="-1.852" cy="-3.392" r="3.58" clip-path="url(#b)" filter="url(#a)"/><circle cx="-3.467" cy="-4.332" r="4.438" clip-path="url(#b)" filter="url(#a)"/><circle cx=".238" cy="-2.672" r="3.586" clip-path="url(#b)" filter="url(#a)"/><circle cx=".238" cy="-2.732" r="3.102" clip-path="url(#b)" filter="url(#a)"/></g><g fill="none" stroke="#000" transform="translate(-42.1 -23.41)"><path stroke-linejoin="round" stroke-width="2.222" d="m35.4 1.37.02-.05.02-.06V1.2l-.01-.08-.04-.08-.05-.09-.09-.1-.11-.1-.14-.1-.17-.11-.2-.11-.23-.12-.27-.12-.3-.11-.34-.12-.38-.12-.41-.12-.45-.12-.49-.11-.53-.12-.56-.11-.6-.11-.64-.11-.67-.11-.71-.1-.57-.15-.64-.15-.7-.14-.78-.14-.84-.12-.9-.12-.97-.11-1.02-.1-1.07-.09-1.13-.08-1.18-.07-1.21-.06-1.26-.05-1.29-.04-1.31-.04-1.35-.02-1.36-.02H7.69l-1.4.01-1.4.02-1.4.03-1.4.03-1.38.05-1.38.05-1.36.05-1.33.06-1.32.07-1.28.07-1.26.08-1.22.09-1.19.08-1.16.09-1.11.1-1.07.1-1.04.1-.98.1-.95.11-.9.1-.86.11-.81.11-.77.11-.72.11-.68.12-.64.11-.6.11-.56.11-.52.11-.48.11-.45.1-.42.11-.39.11-.35.1-.31.11-.28.1-.25.1-.22.1-.19.1-.16.1-.14.1-.1.1-.08.09-.05.1-.03.09v.09l.02.09.04.08.06.09.08.08.1.09.12.08.14.08.15.08.18.07" filter="url(#a)"/><path stroke-linejoin="round" stroke-width="2.222" d="m35.25 1.63-.2.05-.23.05-.26.04-.28.04-.3.04-.32.03-.35.03-.37.03-.39.02-.42.02-.43.02-.46.02-.48.02-.5.01-.51.01-.54.02-.56.01-.57.01-.59.01-.61.01-.63.01-.64.01-.66.01-.67.01-.69.01-.73-.01h-3.15l-.84.01h-.86l-.88.01-.9.01-.92.01-.92.02-.94.01-.96.02-.96.01-.97.02-.98.02-.99.02-.99.02-.99.02-.99.02-1 .02-.99.02-.99.02-.99.02-.98.02-.98.02-.97.02-.96.02-.95.02-.94.01-.93.02-.92.01-.9.01-.89.01-.87.01h-.87l-.84.01h-3.22l-.76-.01-.74-.01h-.73l-.71-.02-.69-.01-.68-.01-.66-.02-.64-.02-.63-.02-.61-.02-.6-.02-.58-.03-.58-.03-.55-.03-.55-.03-.53-.03-.52-.03-.51-.04-.49-.04-.49-.04-.47-.04-.45-.04-.45-.05-.43-.04-.43-.05-.41-.05-.4-.05-.39-.05-.38-.05-.37-.06-.36-.05-.36-.06-.34-.06" filter="url(#a)"/><circle cx="-19.394" cy="-.993" r="4.526" clip-path="url(#c)" filter="url(#a)"/><circle cx="-20.409" cy="-1.898" r="4.126" clip-path="url(#c)" filter="url(#a)"/><circle cx="-20.384" cy="-.273" r="3.254" clip-path="url(#c)" filter="url(#a)"/><circle cx="-19.639" cy="-.198" r="3.598" clip-path="url(#c)" filter="url(#a)"/><circle cx="-19.719" cy="-.833" r="4.022" clip-path="url(#c)" filter="url(#a)"/><circle cx="-19.009" cy="-2.878" r="4.89" clip-path="url(#c)" filter="url(#a)"/><circle cx="-17.119" cy=".077" r="3.066" clip-path="url(#c)" filter="url(#a)"/><circle cx="-17.579" cy=".892" r="3.61" clip-path="url(#c)" filter="url(#a)"/><circle cx="-19.409" cy="-2.838" r="4.724" clip-path="url(#c)" filter="url(#a)"/><circle cx="-20.329" cy=".177" r="3.99" clip-path="url(#c)" filter="url(#a)"/></g><g fill="none" stroke="#91553D" stroke-linejoin="round" stroke-width="2"><path d="m-24.56-73.24 2.16-.63 1.86-.18 2.08.05 2.35.22 2.61.37 2.88.51 3.12.64 3.34.75 3.56.84 3.75.91 3.9.98 4.01 1.04 4.07 1.12 4.12 1.16 4.21 1.21 4.3 1.24 4.38 1.29 4.35 1.29 4.18 1.2 3.94 1.06" filter="url(#a)"/><path d="m-32.5-69.43 1.79-.78 1.62-.52 1.74-.46 1.89-.42 2-.39 2.09-.35 2.16-.31 2.25-.28 2.35-.25 2.44-.23 2.52-.21 2.55-.19 2.56-.18 2.55-.16 2.5-.15 2.44-.15 2.37-.13 2.27-.12 2.16-.11 2.04-.08 1.89-.06 1.63-.06 1.13-.17m8.9 2.27.43.39.44.43.26.4.02.38-.26.35-.64.33-1.14.28-1.72.23-2.31.16-2.88.13-3.45.09-4 .05H5.46l-5.33-.09-6.12-.16-6.96-.21-7.88-.26" filter="url(#a)"/><path d="m-7.34-77.39 1.38-.11 1.16-.06h.81l.53.07.29.16.04.26-.22.36-.57.46-.97.53-1.41.61-1.87.71-2.34.82-2.79.97-3.25 1.16-3.76 1.36-4.36 1.54-5.05 1.67-5.68 1.69" filter="url(#a)"/><path d="m-26.29-72.34.64-.06 1.42-.26 1.67-.24 1.9-.17 2.19-.11 2.49-.04 2.76.02 2.96.08 3.11.13 3.21.16 3.28.2 3.32.21 3.35.22 3.36.21 3.34.21 3.3.22 3.21.26 3.12.3 2.93.25 2.44.08" filter="url(#a)"/><path d="m-9.48-77.29.76.03.48.04.66.01.74.04.63.09.42.17.18.28-.06.38-.3.5-.57.61-.88.74-1.23.85-1.6.97-1.98 1.09-2.33 1.22-2.66 1.36-2.96 1.52-3.3 1.69-3.71 1.87-4.22 2.08-4.79 2.32-5.29 2.5-5.55 2.38m102.4 5.22.71 1.47.34 1.28-.24 1.01-.88.73-1.48.54-2 .43-2.48.39-2.96.36-3.48.34-4.01.28-4.57.23-5.17.15-5.76.06-6.39-.04-7.02-.15-7.67-.24-8.35-.29-9.04-.32-9.73-.38-10.48-.44-11.32-.3m57.09-32.57 1.34.17.86.2 1 .25 1.27.35 1.44.44 1.54.52 1.56.56 1.55.58 1.49.58 1.41.54 1.32.51 1.23.46 1.12.42 1.01.38.86.32.71.27.53.19.34.11h.09l-.23-.12-.59-.26-.93-.4-1.18-.55m23.61 17.74.21.3-.14.32-.29.48-.6.42-1.09.19-1.65-.04-2.21-.27-2.78-.48-3.41-.74-4.06-1.04-4.78-1.38-5.5-1.7-6.21-1.98-6.95-2.24-7.71-2.51-8.57-2.8-9.54-3.11" filter="url(#a)"/><path d="m-21.52-74.37.49-.09 1.23-.31 1.37-.31 1.38-.31 1.39-.3 1.35-.29 1.31-.27 1.25-.25 1.18-.24 1.05-.21.87-.16.63-.12.41-.07.22-.04h.03l-.17.03-.49.08-.94.17-1.48.28-2.09.34m45.92 7.62.83.46.69.58.48.6.26.57-.02.53-.34.45-.69.38-1.06.31-1.43.25-1.8.18-2.18.13-2.56.09-2.98.04-3.45-.01-3.97-.07-4.5-.12-5.06-.17-5.6-.22-6.12-.27-6.59-.39-7.02-.58-7.46-.75m32.2-10.6.33-.17h.53l.76.1.99.16 1.18.19 1.24.21 1.15.18.97.16.77.13.58.11.4.1.18.07-.08.05-.35.01-.64-.05-.91-.11-1.18-.16-1.51-.23-1.99-.27-2.85-.36" filter="url(#a)"/><path d="m-13.1-76.32 1.12-.18 1.57-.19 1.67-.05 1.73.09 1.87.17 2.1.21 2.3.22 2.45.25 2.5.26 2.51.29 2.49.31 2.44.33 2.33.33 2.18.31 1.97.28 1.74.24 1.52.2 1.35.15 1.24.09m13.66 6.92 1.07.76.9.67.97.73.96.75.9.7.82.65.75.59.65.52.52.41.32.28.09.11-.16-.08-.44-.28-.72-.52-1.05-.8-1.38-1.08-1.76-1.42m14.24 13.91.76.92-.2.54-.63.61-1.07.62-1.64.46-2.29.23-2.99-.03-3.67-.21-4.35-.34-5.02-.45-5.73-.56-6.45-.71-7.22-.87-8.01-1.03-8.85-1.17-9.69-1.35-10.45-1.65-11-2.12" filter="url(#a)"/><path d="m26.62-72.02 1.08.51.94.45.98.42.93.41.67.34.31.23-.05.09-.4-.03-.76-.16-1.16-.33-1.62-.53-2.14-.74-2.7-.97-3.18-1.19-3.46-1.41" filter="url(#a)"/><path d="m22.36-73.85 1.41.47 1.07.43.88.41.81.42.77.4.73.37.65.32.5.27.26.2-.04.09h-.35l-.66-.08-.95-.18-1.26-.28-1.61-.41-2.06-.57-2.58-.77-3.11-.97-3.48-1.15-3.73-1.31" filter="url(#a)"/><path d="m21.29-74.12 1.04.34.8.42.34.45-.09.48-.48.52-.83.55-1.17.57-1.54.6-1.99.63-2.51.65-3.12.69-3.76.74-4.39.78-5 .83-5.63.88-6.3.95-7.07 1.04-7.87 1.14-8.52 1.14m10.41-11.44 1.62-.58 1.41-.5 1.44-.42 1.7-.4 1.96-.39 2.16-.38 2.25-.37 2.27-.34 2.21-.34 2.08-.33 1.94-.31 1.84-.3 1.81-.27 1.75-.23 1.6-.18 1.23-.13" filter="url(#a)"/><path d="m-21.91-74.16 1.81-.56 1.18-.31.95-.22.84-.18.69-.12.54-.05.39.02.24.08.04.17-.21.27-.49.38-.8.52-1.1.67-1.43.81-1.76.96-2.14 1.11-2.57 1.28-3.05 1.48-3.57 1.74-4.14 2.02-4.55 2.16m46.06-15.5.31-.18.43-.02.59.07.75.11.88.14.87.16.66.14.31.09-.09.05-.47.02-.83-.01-1.22-.01-1.64-.02-2.14-.04-2.77-.08-3.59-.16m53.46 22.21.96 1.04.59.65.54.69.62.8.63.82.56.74.45.64.32.53.17.39v.21l-.2.01-.42-.23-.63-.45-.85-.68-1.05-.89-1.29-1.14-1.56-1.41-1.86-1.73-2.17-2.06-2.48-2.41-2.81-2.79-3.17-3.17" filter="url(#a)"/><path d="m16.29-75.73 2.43.79 1.52.6 1.3.62 1.37.71 1.54.82 1.67.93 1.74 1.01 1.77 1.06 1.79 1.09 1.79 1.12 1.8 1.1 1.79 1.08 1.73 1.04 1.64.98 1.47.91 1.29.8 1.09.67.9.53.75.4.59.25.24-.02m9.58 10.76-.32-.1-.01.63-.15.7-.57.46-1.13.12-1.7-.2-2.24-.46-2.77-.68-3.28-.87-3.82-1.1-4.41-1.34-5.03-1.62-5.69-1.91-6.37-2.21-7.1-2.55-7.86-2.91-8.58-3.26-9.07-3.63" filter="url(#a)"/><path d="m61.85-39.32.19.95.41.88.47.95.43.86.3.68.15.47.01.29-.14.11-.31-.11-.48-.39-.68-.73-.9-1.11-1.13-1.52-1.36-1.93-1.6-2.34-1.85-2.76-2.12-3.19-2.43-3.64L48-55.96M5.02-77.43l.31-.18.46-.01.67.08.85.12 1.01.17 1.05.17.94.16.76.14.57.12.37.1.18.11-.04.1-.29.1-.56.09-.88.05-1.23.02-1.6-.02-2-.05-2.39-.08-2.75-.12-3.01-.19-3.18-.32" filter="url(#a)"/><path d="m55.36-49.33.88 1.45.89 1.29.68.97.38.63.1.3-.13.03-.3-.2-.48-.41-.72-.7-1.04-1.05-1.4-1.48-1.77-1.93-2.14-2.4-2.5-2.88-2.86-3.4M25.34-72.92l.53.4.77.45.81.43.78.39.73.35.55.28.27.2-.08.09-.46-.02-.82-.14-1.16-.23-1.55-.38-2.03-.54-2.63-.77-3.24-1-3.7-1.22-4.06-1.42" filter="url(#a)"/><path d="m16.83-75.74.63.32 1.42.53 1.4.54 1.3.51 1.29.54 1.34.56 1.37.59 1.37.62 1.34.63 1.26.61 1.2.58 1.1.52.98.45.82.35.6.24.35.11.07-.02-.17-.14-.41-.25-.76-.42-1.47-.76M61.9-37.99l.51.53.56 1.05.5.99.34.8.21.62.07.5-.04.39-.18.25-.33.04-.5-.21-.68-.48-.86-.78-1.05-1.06-1.26-1.36-1.47-1.67L56-40.37l-1.98-2.34-2.24-2.67-2.52-3.02-2.79-3.41-3.05-3.79-3.27-4.13-3.37-4.41m-94.36 18.06 62.36 1.95 15.91-7.36 5.86-3.77-1.77-1.33-7.85-1.01L6.8-59.14l-9.06-2.08-6.47-2.26-3.72-1.97-1.13-1.21 1.44-.16 3.66.85 4.62 1.36 3.36 1.06-.1.08-4.32-1.15-6.83-1.96-5.72-2.01-.89-1.46 5.57-.7 9.14.45.69 2.65-39.62 5.08" filter="url(#a)"/><path d="m50.53-54.96-29.02-8.26-11.24.05-7.53.15-.45-.55 4.77-.78 5.9-.18 5.03 1.07 4.2 2.44 3.33 3.1 1.51 2.51-1.12.75-3.09-1.2-3.1-2.02-1.16-1.09 1.8.56 5.15.59 7.7-1.66 18.5 5.75" filter="url(#a)"/><path d="m56.2-47.82-19.01-2.75-23.38-4.7H6.1l3.43 2.01 7.3 1.37 5.52-.46.53-2.32-4.59-3.34-7.27-3.18-6.65-1.98-3.61-.3.17 1.05 3.23 1.41 4.76.67 4.77-.37 4.53-.31 6.33 1.63 11.11 4.3 14.42 5.86 12.27 11.16" filter="url(#a)"/><path d="m-13.1-76.32 40.46 15 7.88 5.02-9.66-1.32-10.94-2.21-3.32-.65 4.77 1.25 8.67 2.59 7.47 2.83 2.59 1.63-3.37-.58-7.6-2.6-8.5-3.22-6.37-1.88-2.13 1.59 8.02 8.66 52.19 24.45" filter="url(#a)"/><path d="m49.43-56.3-15.75-6.23 4.15 6.14-.41 4.98-4.89 1.24-3.47-1.11.18-2.13 2.02-2.75 1.13-3.36-1.29-3.78-3.74-3.71-5.54-3.12-6.74-2.2-7.52-1.15-7.86-.2-7.4.56-5.85 1.01-3.28 1.19-.07 1.29 3.78 1.65 8.47 2.58L7-61.34l.85 4.72-53.51-3.5" filter="url(#a)"/><path d="m-47.34-58.18 58.52.73 23.37 2.02 4.29-2.76-4.28-4.49-6.92-3.61-5.86-1.46-2.99.64-.44 1.64.4 1.26-.16.27-.61-.07.04.83 1.1 2.25.69 2.63-1.53 1.08-2.12-1.25 4.32-1.49 14.2.42.95-7.76" filter="url(#a)"/><path d="m-.61-77.94 28.36 20.1 1.14-2.97-1.04-4.12-.66-1.93-.73-.19-1.1.48-1.32.33-1.24-.13-1.13-.39-1.57-.36-2.83-.1-4.45.25-5.56.69-5.25 1.34-3.31 2.16-.34 2.92 2.75 3.2 5.51 2.67 8.32 1.51 11.49.67 12.84 1.07 6.28-.24-17.59-20.46" filter="url(#a)"/><path d="M-55.15-49.17-37-60.87l14.41-2.87 13.69.16 12.38.42 8.98 1.18 5.48 2.65 2.83 3.5.42 2.88-2.21.91-4.42-1.52-5.08-3.5-3.64-4.38-1.01-4 .69-2.51-.66-.53-4.18 1.02-3.21 1.55 12.85 2.08 42.26 10.98" filter="url(#a)"/><path d="m-41.46-63.39 53 6.79 2.14-5.35-6.53-5.01-3.51-1.77-.77 1.62 1.21 4.29 4.03 5.9 7.2 6.25 8.58 5.34 6.99 3.55 3.19 1.52-.77-.18-3.17-1.39-3.79-2.33-3.54-3.37-3.64-4.44-5.12-4.97-8.83-4.13-14.57-1.52-18.76 1.75-13.11 1.45 8.73-10.04" filter="url(#a)"/><path d="m35.63-67.3-6.8 5.33 2.93 8.67-9.44.27-15.71-4.5-13.87-4.94-8.7-3.29-3.43-1.22 1.27.54 5.6 1.79 9.14 2.57L7.37-59.1l9.38 2.97 4.97 2.44-1.18 1.31-6.75-.21-9.26-1.52-7.38-1.96-2.08-1.32 3.14-.36 3.36-.74-4.75-3.19-16.1-5.25-5.42-5.81" filter="url(#a)"/><path d="m13.83-76.33-17.87 2.68-1.68 2.79-3.06 4.88-.97 4.47 3.06 2.08 4.08-.42 1.68-1.85-1.28-2-2.23-1.21-.56.11 2.53 1.45 5.29 2.34 6.42 2.31 5.45 1.24 2.74-.56-.57-2.37-2.88-3.37-2.93-3.04-1.18-1.64-.62-.28-4.96.41-15.45 2.73-41.57 13.23" filter="url(#a)"/><path d="M-33.77-68.75 1.1-58.6l3.98 4.65-3.18-.81-7.21-3.56-6.82-3.73-3.58-2.73-.72-1.48.24-.34.16.44.77.84 3.03.98 6.3 1.03 9.03 1.06 9.84.95 8.52.69 6.04.4 3.75.26 2.2.12.75-.59-1.7-2.33-5.03-4.44-7.01-5.07-4.57-3.09.4-.38" filter="url(#a)"/><path d="m50.53-54.96-47.6-3.1-9.63-4.93-5.79-2.91-2.13-1.77 3.32-.98 7.67.45L5.55-66l7.34 3.15 2.84 2.5-2.25.49-5.27-1.64-4.64-2.61-1.16-1.99 2.39-.51 3.62.49 3.2.39 4.43.09 4.95-.43L.28-77.65" filter="url(#a)"/><path d="m-45.66-60.12 49.43-4.36 16.03.9.21.68-6.99-.2-7.93.43-5.38 1.63-1.98 2.22.82 2.05 2.92 1.55 4.6 1.02 5.72.42 5.69-.38 4.05-1.24.97-1.84-2.59-2.04-5.42-1.93-6.38-1.74-5.09-1.42-2.1-.59 1.06 1.1 2.38 3.26-.2 3.6-5.41-2.52 18.08-16.22" filter="url(#a)"/><path d="M51.82-53.53 1.6-60.61l-7.27-7.51.75-3.4 1.68.3 1.13 1.99-.25 1.72-2.11.57-3.95-.35-5.23-.59-5.32-.36-3.82-.01-.82.35 2.8.63 5.35.67 4.75.19 1.38-.7 5.06-1.07 38.42-.33" filter="url(#a)"/><path d="m-9.14-77.01-9.82 5.65 8.84.77 9.55 2.74 7.31 3.44 5.21 1.79 3.68-.19 2.76-.8 2.39.15 2.45 1.69 2.57 2.59 2.15 2.06.73.15-1.14-2.18-2.02-3.53-.44-2.89 3.77-.14 8.52 3.41 9.1 4.79.33-1.32M16.1-72.45 14.98-73l-1.16-.47-.95-.39-.85-.3-.94-.24-1.08-.23-1.15-.28-1.08-.33-.93-.32-.8-.27-.75-.19-.8-.14-.94-.15-1.1-.21-1.2-.34-1.2-.46-1.33-.45-1.97-.15.93.28-1.76-.45-1.54-.29-1.27-.07-1.06-.22-1.02-.56-1.09-.89-1.22-1.07-1.31-1.07-1.36-.96-1.35-.84-1.34-.73-1.34-.6-1.33-.45-1.35-.27-1.36-.15-1.4-.16-1.45-.33-1.46-.64-1.43-1.14-1.42-1.8-2.22-2.14" filter="url(#a)"/><path d="m-2.32-77.64-1.76-.34-1.53-.22-1.29-.2-1.11-.51-1.06-.9-1.14-1.16-1.29-1.3-1.4-1.35-1.47-1.35-1.48-1.29-1.48-1.16-1.46-1-1.48-.84-1.52-.75-1.57-.77-1.61-.8-1.56-.71-1.43-.47-1.32-.24-1.37-.4-1.62-.9-1.71-1.02-1.07-1.11 30.79 18.75-1.51-.18-1.36-.87-1.1-1.04-.94-.69-.94-.11-1 .36-1.08.5-1.15.29-1.22-.07-1.27-.42-1.31-.62-1.32-.61-1.31-.44-1.27-.17-1.22.07-1.16.22-1.1.28-1.07.23-1.09.14-1.16.05-1.26.06-1.36.16-1.53.14-1.68-.47 27.82 3.35-1.31.1-.91-.06-.74-.07-.82.01-.98.12-1.1.16-1.15.13-1.11.06-1.08.01-1.07-.03-1.1.01-1.11.05-1.13.12-1.13.21-1.07.3-.41.13-7.53-5.18.93 1.03 1.17.03 1.11.02 1.11.26 1.18.38 1.24.33 1.27.23 1.26.13 1.24.1 1.21.15 1.18.21 1.16.3 1.17.34 1.21.31 1.24.13 1.21-.13 1.06-.35.68-.19-.17 1.16 1.18-.36-.22-.43.77-1.52 1.12-2 1.21-1.74 1.19-1.22 1.18-.88 1.19-.83 1.25-.91 1.3-.94 1.35-.8 1.33-.62 1.24-.65 1.09-1.1.94-1.81.79-2.17.64-1.78 1.2-2.35-17.57 21.75-1.5-.99-1.59-1.52-1.58-1.42-1.44-.93-1.25-.35-1.21-.13-1.31-.43-1.54-1.1-1.76-1.76-1.86-2.03-1.78-1.72-1.57-.98-1.28-.1-1.06.58-.98.89-1.05.83-1.23.56-1.47.18-1.78-.35-2.15-1.06-2.53-1.5-2.97-.83M76.06 6.37l-.51-2.55-.65-1.32-.48-1.19-.34-1.27-.3-1.25-.3-1.16-.3-1.07-.29-1.03-.28-1-.32-.96-.33-.92-.3-.9-.14-1.02.03-1.34-.03-1.71-1.18-1.7" filter="url(#a)"/><path d="m-13.1-76.32.93-.63 1.16-.58 1.01-.65.87-.58.87-.43.97-.27 1.08-.14 1.17-.07 1.18-.11 1.19-.25 1.2-.43 1.2-.59 1.23-.67 1.23-.67 1.19-.63 1.12-.58 1.01-.59.94-.67.96-.76 1.12-.82 1.43-.74 1.77-.5 1.74-.14.84-.11M7-107.9l-2.63 3.91-2.14 3.26-1.66 2.26-1.43 1.69-1.28 1.91-1.21 2.44-1.19 2.62-1.2 2.16-1.21 1.32-1.16.46-1.08-.07-1.05-.21-1.08-.1-1.19.14-1.24.59-1.04 1.73-.4 3.84.62 3.86" filter="url(#a)"/><path d="m-14.57-76.09-.03-.39.9-.68 1.16-.57 1.17-.42 1.07-.38.94-.44.91-.51.94-.54 1.04-.49 1.13-.38 1.18-.29 1.18-.31 1.16-.43 1.18-.62 1.23-.77 1.37-.81 1.53-.83 1.58-.92 1.07-1.06m-24.06 11.7-3.48-6.56-1.38.47-.84 1.49-.86.97-1.16-.05-1.56-1.03-1.86-1.57-1.96-1.55-1.87-1.06-1.7-.38-1.51.16-1.4.39-1.35.31-1.34.06-1.35-.23-1.36-.4-1.41-.45-1.51-.37-1.62-.19-1.67.07-1.7.26-1.85.04-2.31-1.14-2.41-3.24 39.46 14 .15-.18 1.06-.54 1.03-.56.95-.67.96-.91.98-1.14.99-1.25.96-1.2.93-1.05.95-.9 1-.82 1.08-.84 1.17-.94 1.21-1.11 1.24-1.26 1.24-1.3 1.27-1.21 1.37-1.05 1.53-1.06 1.73-1.27 1.79-1.52 1.17-.87" filter="url(#a)"/><path d="m-21.91-74.16-.53-.3-1.06-.61-1.22-.97-1.37-.98-1.56-.97-1.74-1.07-1.85-1.06-1.8-.78-1.66-.28-1.49.15-1.37.31-1.21.25-.98.23-.71.26-.69-.03-1.17-1.08-2.14-2.13M77.21-50.75l-.11 1.58-.91 1.99-.72 1.97-.37 1.9-.17 1.77-.2 1.7-.37 1.7-.56 1.76-.69 1.82-.75 1.84-.73 1.79-.63 1.69-.47 1.54-.27 1.38-.08 1.24.13 1.11.32 1.01.55.89.78.81.92.81.71.97-.1 1.26L72-16.79l-1.97 1.5m-75.45-56.5-1.29-.57-.9-.52-.71-.27-.81-.13-.97-.14-1.11-.17-1.13-.18-1.08-.08-1.02.05-.98.18-1 .21-1.06.15-1.11.05h-1.16l-1.25-.03-1.44-.15-2.12.15" filter="url(#a)"/><path d="m-24.7-72.74-.11-4.32.38-1.14.92-.05 1.25.45 1.33.41h1.24l1.11-.53.98-.96.92-1.19.93-1.19.97-1.03 1.05-.84 1.09-.72 1.08-.76 1.01-.95.96-1.18.96-1.34 1.06-1.32 1.21-1.06 1.33-.72 1.28-.5 1.17-.84 1.83-2.23" filter="url(#a)"/><path d="m-26.39-72.16 1.48-.61.97-.52.79-.47.84-.48.94-.53 1-.58 1.03-.61 1.02-.64 1.01-.64 1-.65 1.01-.62 1.03-.6 1.06-.57 1.07-.54 1.06-.51 1.01-.48.97-.46.99-.48 1.07-.54 1.17-.63 1.24-.72 1.16-.78 1.07-.87 1.72-1.05m-28.8 15.93-1.04.69-.97 1.22-.65 1.3-.45 1.1-.41.81-.48.62-.56.6-.63.7-.69.85-.7.96-.66 1.06-.55 1.21-.39 1.42-.26 1.63-.22 1.69-.28 1.56-.32 1.26-.27 1.06-.32 1.14-1.19 1.54m8.02-21.04.31-3.95 1.58.16 1.58.41 1.33-.08 1.11-.5.95-.72.83-.91.72-1.21.64-1.63.57-2.14.53-2.57.54-2.76.63-2.64.76-2.27.9-1.81 1.03-1.44 1.11-1.21 1.21-1.07 1.31-.83 1.36-.55 1.25-.49.91-1.05.53-2 1.11-1.59M69.75-16.9l3.53.85 3.44.98 1.17 1.53-.2 1.68-.6 1.54-.45 1.31-.05 1.14.37 1.05.71 1.05.98 1.06 1.16 1.11 1.22 1.19 1.12 1.27.9 1.37.63 1.43.48 1.46.5 1.48.72 1.49 1.05 1.37 1.54 1.14 2.79 1.14L69.75-16.9l.05-.29-.15-1.26-.15-1.15-.12-.95-.09-.91-.08-.97-.07-1.03-.06-1.08-.04-1.12L69-26.8l-.09-1.18-.25-1.23-.39-1.28-.44-1.33-.25-1.31.08-1.08.25-.32" filter="url(#a)"/><path d="m-34.48-68.18.86-.92 1.14-.85 1.15-.94 1.08-.99 1.05-.94 1.02-.92.95-.95.86-1.04.79-1.08.77-1.01.82-.87.91-.75.98-.77 1-.97.95-1.31.89-1.65.83-1.84.77-1.78.79-1.55.95-1.22 1.08-.63-19.89 23.14-.48-.55.07-.92.24-1.04.36-1.29.57-1.42.78-1.39.9-1.36.92-1.43.85-1.63.75-1.82.67-1.9.6-1.94.49-2.03.39-2.24.45-2.24.82-1.75 1.55-1.79-14.21 29.56-.06-.13-1.19-.06-1.39-.05-1.31.15-1.26.38-1.22.5-1.16.51-1.07.49-.97.48-.89.52-.84.56-.81.58-.85.53-.98.44-1.2.41-1.56.68-2.06 1.8" filter="url(#a)"/><path d="m-40.1-64.4-1.98-1.08-1.58-.64-.88.89-.67 1.39-.76 1.12-.93.69-1.06.36-1.13.23-1.13.23-1.14.27-1.26.25-1.47.13-1.77-.06-2-.24-2.04-.28-1.84-.06-1.49.34-1.29.72-1.41.78-1.8.45-1.96.28-1.31 1.82" filter="url(#a)"/><path d="m-40.1-64.4-2.09-1.24-1.62-.68-.98.79-.82 1.2-.99.85-1.36.19-1.74-.42-2.01-.78-2.02-.78-1.84-.48-1.58-.07-1.38.3-1.33.5-1.4.51-1.54.4-1.63.33-1.6.41-1.47.66-1.33.94-1.42 1.02-1.88.77-2.58.31-2.91-.18-1.71-.84M70.09-15.65l-.05-.29.45.75 1 1.19 1.46 1.33 1.62 1.3 1.41 1.19.98 1.07.53 1.02.23 1.03.16 1.06.3 1.08.53 1.1.73 1.14.81 1.25.86 1.4 1 1.42 1.13 1.03.12-.1" filter="url(#a)"/><path d="m-41.05-63.84-5.6-4.74-.82 1.79.15 2.51-.12 1.71-.65.87-1.08.28-1.32.01h-1.36l-1.27.19-1.17.43-1.17.55-1.29.52-1.5.32-1.73.09-1.91-.03-1.94.07-1.9.28-1.96.39-2.32.29-3.01.28-3.99.33 32.57-3.29.56-2.78-.93-4-.86-3.56.12-2.07 1.13-.57 1.71.34 1.81.61 1.57.42 1.2.02.83-.44.56-.91.42-1.35.41-1.71.5-1.93.64-1.96.81-1.84.93-1.68.99-1.56 1.07-1.47 1.3-1.58 1.62-2.56m-31.37 51.26.58-1.18.29-.7.28-.63.35-.73.46-.88.56-1.01.63-1.1.68-1.13.7-1.12.71-1.07.69-1.01.68-.94.69-.9.73-.91.78-.93.8-.91.76-.85.77-.85.94-1.02m116.53 38.3-.59-.16-.77-.31-.75-.54-.66-.74-.6-.84-.55-.89-.5-.92-.48-.94-.55-.95-.7-.94-.85-.9-.93-.84-.92-.81-.83-.8-.73-.84-.67-.89-.67-.91-.72-.84-.81-.65-.91-.46-1.08-.39m-103.6-20.54-2.36-.06-3.25-1.05-2.59-.92-1.72-.17-1.22.54-1.12.88-1.25.91-1.41.8-1.53.7-1.6.56-1.58.43-1.44.34-1.25.36-1.25.36-1.66.27-2.29.2-2.27.59-1.1 1.39" filter="url(#a)"/><path d="m-34.88-74.51-.71.98-.56.51-.43.52-.43.66-.53.84-.64.99-.73 1.08-.79 1.1-.82 1.05-.84 1-.87.96-.89.92-.88.92-.83.92-.75.91-.65.9-.6.88-.58.84-.6.78-.62.73-.61.66-.44.38-.61 1.11-2.02 1.14-1.29.25-1.67-.28-2.08-.36-2.26-.24-2.15.01-1.83.33-1.47.65-1.25.76-1.25.65-1.34.43-1.41.28-1.37.34-1.4.5-1.75.57-2.48.4-3.3.03-3.42-.08-1.93.42 33.42-3.88-1.11 1.73-.94 1.46-.73 1.26-.57 1.24-.47 1.25-.42 1.18-.39 1.04-.39.88-.38.82-.4.83-.44.93-.46 1.05-.5 1.12-.49 1.14-.38 1.11-.22 1.14-.11 1.3-.23 1.58-.15 1.54 5.35-17.84-.58.53-.88 1.13-.79 1.03-.65.83-.62.69-.72.6-.9.58-1.03.65-1.05.76-.95.89-.78 1.01-.64 1.11-.56 1.14-.57 1.15-.63 1.1-.69 1.04-.74.99-.73.96-.68.97-.66 1.01-.65 1-.7.94-.82.75-1.17.23 38.25-25.67-1.5.66-1.12.22-1.01-.03-1.04-.05-1.14-.09-1.28-.19-1.34-.21-1.29-.07-1.17.16-1.05.41-.96.56-.89.63-.78.73-.62.9-.49 1.11-.51 1.19-.84.99-1.48.55-2.23.29-2.26.88" filter="url(#a)"/><path d="m-60.79-20.26.21-1.31-.24-1.08-.07-1 .08-1 .07-1.05-.07-1.15-.2-1.22-.26-1.28-.21-1.29-.06-1.26.13-1.22.33-1.13.49-1.04.59-1.02.62-1.05.53-1.16.29-1.3-.05-1.39-.25-1.27-.02-.99.38-1.28-1.16 1.66v.88l-.18 1.46-.27 1.52-.34 1.38-.37 1.24-.35 1.17-.32 1.15-.3 1.17-.24 1.17-.19 1.17-.1 1.15v1.16l.09 1.17.18 1.19.24 1.19.25 1.16.23 1.15.21 1.14.2 1.17.26 1.25.35 1.34.48 1.42.4 1.45-.51 1.7.28-29.95-.41.6-.77 1.08-.83 1.18-.79 1.14-.79 1.03-.87.92-1.05.84-1.27.75-1.45.67-1.53.62-1.45.63-1.28.72-1.12.81-1.08.86-1.25.82-1.46.74-1.53.7-1.36.81-1.09 1.02-1.09 1.23-1.32 1.49-.98 2.21 24.83-20.67-.9 1.59-.88 1.34-.9 1.12-1.01.89-1.24.71-1.49.6-1.62.58-1.57.62-1.47.67-1.42.69-1.52.67-1.71.61-1.81.59-1.71.64-1.41.77-1.06.96-.93 1.08-1.16 1.12-1.63 1.12-1.97 1.14-1.79 1.31-1.35 1.6-2.27 2.21" filter="url(#a)"/><path d="m-84.65-30.93 2.76.31 1.81-.43 1.88-.53 1.9-.55 1.87-.54 1.88-.48 1.88-.42 1.79-.45 1.58-.59 1.27-.78.94-.91.66-1 .46-1.07.49-1.12.99-1 1.94-.59" filter="url(#a)"/><path d="m-60.55-41.08-1.6.83-1.14.93-.84.94-.73.94-.93.88-1.36.74-1.85.51-2.1.35-1.96.4-1.41.63-.74.97-.28 1.21-.25 1.24-.7 1.07-1.41.8-2.16.56-2.72.48-2.81.67-2.31 1.24-1.61 2.15" filter="url(#a)"/><path d="m-61.3-39.48.54-1.57.26-1.29.11-1.02.14-.88.29-.87.44-.94.55-1.05.61-1.17.64-1.22.68-1.18.76-1.09.82-.96.83-.89.77-.91.7-1.02.65-1.12.61-1.15.56-1.09.45-1.02.11-.98-.83-.72-26.14 41.11.62-.62.94-1.22 1.07-1.22 1.13-1.04 1.13-.92.99-.89.77-.92.57-1 .47-1.03.51-1.02.65-.95.81-.86.94-.82 1-.85.97-.9.87-.94.71-.94.61-.92.71-.96.98-.95-1.02.9-.7.95-.55.91-.54.99-.56 1.08-.59 1.09-.58 1.01-.55.96-.48.97-.44 1-.44 1.03-.47.99-.55.91-.62.74-.7.34" filter="url(#a)"/><path d="m-63.11-36.88-1.4-.11-.21 1.06-.22 1.38-.35 1.28-.44 1.11-.49 1.02-.53.97-.62.95-.71.92-.81.88-.85.87-.84.89-.77.97-.66 1.08-.55 1.17-.47 1.24-.44 1.24-.43 1.16-.4 1.08-.34 1.09-.3 1.27-.45 1.54-.9 1.55 12.83-23.96.25-1.07-.21-1.77-.31-1.93-.02-1.65.28-1.26.44-.98.45-.89.4-.95.32-1.13.28-1.32.29-1.47.32-1.53.4-1.53.44-1.49.44-1.44.43-1.39.48-1.33.58-1.28.67-1.29.61-1.4.42-1.52.47-1.48.67-1.71" filter="url(#a)"/><path d="m-63.46-36.23 2.08.02.79-1.08.68-1.2.76-1.03.82-.81.82-.62.8-.53.78-.54.8-.61.83-.7.88-.75.92-.79.91-.82.86-.83.81-.82.78-.76.83-.68.95-.56 1.08-.45 1.16-.33 1.17-.2 1.14-.02 1.05.28.49.78-23.41 16.23-2.49-.34-.79.54-1.48.42-1.98.35-1.91.47-1.54.65-1.12.83-.82.95-.76 1.02-1.05 1.03-1.61.95-2.18.88-2.44.87-2.16.93-1.45 1.05-.74 1.12-.66 1.14-1.6 1.28-3.14 1.57 36.41-41.3-.47 2.61-.46 2.09-.29 1.8-.33 1.59-.45 1.41-.55 1.19-.54 1.01-.45.91-.3.93-.19 1.03-.19 1.16-.27 1.27-.35 1.33-.35 1.31-.23 1.24-.11 1.14-.19 1.26-.77 2.31-.45.82.87-1.24.89-1.28.72-1 .66-.9.68-.94.72-.99.75-.99.69-.94.57-.84.46-.75.42-.69.51-.66.72-.72.96-.86.98-.97.51-.51" filter="url(#a)"/><path d="m-58.48-63.81-1.36 2.32-.38 1.37-.15 1.32-.26 1.48-.37 1.58-.44 1.59-.47 1.54-.41 1.48-.34 1.4-.25 1.31-.21 1.2-.2 1.14-.18 1.14-.19 1.23-.21 1.32-.3 1.35-.45 1.28-.64 1.12-.8 1-.77 1.07-.36 1.41.69 1.87 1.46 1.67" filter="url(#a)"/><path d="m-69.21-4.42-.12-.79-.15-1.03-.1-1.08-.02-1.08.05-1.06.1-1.04.11-1.07.11-1.1.11-1.13.11-1.13.11-1.12.14-1.12.14-1.15.16-1.2.19-1.23.23-1.22.27-1.17.31-1.09.33-1.02.29-.99.25-1.02.26-1.1.54-1.7-.87 2.11.25-.35.44-1 .47-1 .49-.94.5-.97.51-1.05.52-1.09.57-1.05.65-.97.73-.95.78-.97.75-1.04.67-1.06.57-.94.5-.72.57-.54.77-.95 1.26-6.08-.64.76-.7.93-.74 1.09-.66 1.05-.55.92-.47.82-.45.81-.45.87-.5.97-.55 1.05-.57 1.1-.57 1.11-.56 1.12-.52 1.11-.49 1.13-.46 1.14-.43 1.11-.4 1.07-.38 1.05-.36 1.06-.36 1.07-.36 1.06-.43 1.37-.04.9-.5.65-.64.99-.58 1.16-.46 1.24-.4 1.24-.39 1.17-.41 1.09-.41 1.06-.41 1.08-.4 1.1-.43 1.12-.49 1.08-.56 1.06-.59 1.04-.57 1.05-.52 1.1-.51 1.13-.6 1.2-.7 1.35-.56 1.75-.13 2.55M68.94-21.1l.54-1.49-.42-1.1-.22-1.09.08-1.16.13-1.2.01-1.24-.07-1.35.05-1.48.28-1.61.49-1.62.51-1.55.35-1.47.09-1.55-.07-1.85.49-2.6-2.62 21.11-.49-1.17-.51-.92-.6-.86-.68-.86-.72-.93-.73-.99-.73-1.03-.68-1.02-.63-.98-.61-.94-.66-.9-.78-.86-.88-.81-.92-.78-.88-.76-.8-.82-.86-.86-1.1-.66-1.21.3" filter="url(#a)"/><path d="m68.56-22.35-.57-1.14-.57-.9-.56-.88-.52-.93-.48-1.03-.46-1.13-.5-1.14-.58-1.07-.69-.96-.75-.87-.8-.85-.82-.86-.83-.86-.85-.82-.85-.79-.83-.81-.86-.88-.98-.76-1.03.16m13.53 16.52.09 1.02.15.75.21.82.25.99.25 1.11.23 1.17.22 1.23.2 1.31.17 1.37.15 1.37.12 1.31.08 1.19.05 1.08.04 1.01.03.99.02 1 .02.98v.99l-.04 1.09-.07 1.38-.18 1.7" filter="url(#a)"/><path d="m72.44-53.19-2.07 2.81-.91 1.98-.41 1.9-.13 1.74.1 1.5.21 1.38.1 1.43-.2 1.61-.38 1.67-.26 1.51.08 1.25.21 1.2-.15 1.56-.67 2.02-1.06 2.03-.57-1.03-2.19-1.06-1.15-.91-.28-1.03-.3-.98-.71-.82-1.07-.7-1.21-.64-1.13-.64-.98-.7-.88-.7-.89-.62-1-.45-1.15-.23-1.29-.07-1.37-.05-1.38-.22-1.3-.54-1.09-.93-.91-1.12" filter="url(#a)"/><path d="m67.5-58.35-1.38 1.02-.17 1.7.69 1.52.82 1.33.48 1.32.04 1.4-.25 1.52-.33 1.57-.22 1.55-.06 1.51.08 1.45.18 1.39.21 1.39.16 1.41-.02 1.46-.3 1.5-.56 1.53-.61 1.55-.29 1.63.36 1.97-.8-2.41-.53-.84-.75-.61-.82-.62-.87-.75-.95-.82-1.03-.76-1.08-.67-1.06-.64-1-.65-.99-.62-1-.51-.91-.36-.79-.25-.93-.12-1.65-.03 14.02 7.25-.62 1.8.4 1.47.37 1.27.1 1.19-.11 1.16-.2 1.16-.2 1.12-.17 1.09-.08 1.03.02.97.13.94.21.94.23.98.16 1.04v1.14l-.24 1.25-.52 1.41-.8 1.52-1.02 1.53-1.18 1.32-1.11.87-.39.38 2.94-29.6.06-1.73.1-1.27-.35-1.05-.47-1.08-.26-1.22.03-1.32.3-1.42.51-1.63.68-1.94.77-2.24.65-2.33.34-2.08-.06-1.63-.27-1.38-.27-1.69-.09-2.42-2.43 24.42-.31-.38-.21-1.02-.17-1.31-.15-1.29-.13-1.16-.06-1.11v-1.21l.04-1.4.02-1.59-.04-1.68-.15-1.6-.27-1.43-.43-1.29-.58-1.46-.65-2.02-.88-2.64" filter="url(#a)"/><path d="m57.05-22.54 1.22-1.56 1.01-1.76.72-1.71.52-1.54.35-1.35.16-1.21v-1.2l-.07-1.26-.06-1.3-.05-1.29-.07-1.27-.14-1.26-.27-1.33-.42-1.2-.3-.35-.4-1.37-.03-.53-.56-1.06-.58-1.36-.4-1.47-.28-1.49-.27-1.42-.37-1.35-.49-1.25-.55-1.19-.51-1.2-.39-1.31-.25-1.49-.19-1.6-.21-1.58-.36-1.38-.54-1.14-.68-1-.7-1.07-.6-1.4-.4-1.81-.21-1.76.28-.57" filter="url(#a)"/><path d="M59.25-43.5v1.12l.13 1.1.38 1.16.46 1.14.35 1.15.23 1.22.2 1.23.27 1.2.36 1.12.4 1.06.38 1.06.29 1.13.18 1.21.04 1.28-.06 1.29-.11 1.22-.07 1.13-.01 1.06-.02 1.07-.11 1.18.23 1.16-3.34-24.16-.8-1.45-.86-1.35-.81-1.2-.74-1.03-.72-.93-.75-.93-.75-.95-.72-.93-.69-.89-.69-.86-.7-.85-.75-.87-.75-.89-.72-.86-.66-.8-.65-.74-.58-.59.12.14" filter="url(#a)"/><path d="m58.6-45 .48-2.46.53-2.41.05-1.72.06-1.69.06-1.79-.18-1.63-.48-1.33-.54-1.23-.33-1.46-.01-1.84.12-2.06.03-1.98-.15-1.76-.18-1.7-.03-1.85.07-2.01.13-2.38.39-4.67-3.26 31.64 1.71.88 3.15-.27 2.51-.08 1.06.71.2 1.15.22 1.11.73.81 1.28.55 1.57.44 1.54.52 1.33.71 1.09.9.96 1.03.96 1.03 1.1.94 1.31.82 1.48.81 1.56.95 1.53 1.17 1.59 1.16 2.1.67" filter="url(#a)"/><path d="m45.79-80.39 1.22.95.5 1.47.53 1.53.62 1.36.56 1.33.42 1.45.3 1.62.26 1.71.25 1.74.27 1.67.38 1.47.61 1.15.92.77 1.26.42 1.5.19 1.46.22 1.05.59.26 1.29-.67 2.26-1.28 3.17-.85 3.3.72 2.25-2.67-3.04-.85-1.3-.36-.72-.31-.97-.28-1.37-.21-1.57-.21-1.56-.27-1.42-.39-1.27-.5-1.15-.62-1.07-.73-.97-.82-.87-.84-.8-.78-.81-.69-.92-.62-1.06-.56-1.28-.39-1.57-.17-1.86-.65-1.73-.1 13.61-1.13 1.42-.64-.43-.76-.58-.89-.52-.98-.51-1-.49-1.01-.53-.96-.61-.9-.68-.84-.67-.88-.56-.98-.37-1.14-.18-1.28-.06-1.33-.03-1.24-.1-1.09-.2-.98-.21-.88-.13-.61-.1 2.24-10.91.97.59.63 1.05.63 1.19.73 1.08.89.93 1.01.83 1.07.82 1.03.85.9.87.79.86.75.81.83.74.97.64 1.13.58.97.65-.09 1.13" filter="url(#a)"/><path d="m17.8-85.76.7 1.01 1.05.45 1.15.74.98 1.11.8 1.29.72 1.3.72 1.25.77 1.16.81 1.04.86.9.91.74.97.62 1.04.56 1.1.55 1.16.58 1.17.56 1.14.51 1.04.44.91.5.7.84.4 1.56.74 1.96" filter="url(#a)"/><path d="m35.92-67.5.43.5 1 .74 1.03.72.96.68.9.66.86.65.82.64.81.63.81.65.83.67.84.7.83.72.82.72.78.75.76.77.76.81.77.83.76.85.73.82.68.8.68.84.8 1.02 1.07 1.31 1.43 1.54m8.18-13.51-1.68-.89-.98-.29-1.13-.34-1.37-.4-1.5-.36-1.49-.29-1.43-.25-1.37-.24-1.33-.27-1.28-.33-1.25-.37-1.23-.35-1.22-.28-1.23-.19-1.23-.15-1.2-.19-1.17-.31-1.13-.41-1.16-.41-1.29-.25h-1.44l-1.46.13-1.3-.06-1-.33 1 .27 1.41-.2 1.85-.83 2.1-1.13 2.08-1.04 1.94-.8 1.81-.58 1.69-.43 1.59-.31 1.54-.3 1.72-.5 2.15-.87 2.67-1.19 2.76-1.34 1.07-1.53M33.64-68.68l.06.23.44.75.35 1.4.28 1.77.44 1.59.75 1.02 1.02.51 1.06.32.9.46.63.79.35 1.14.16 1.41.12 1.5.22 1.41.37 1.21.44 1.04.32 1.06.07 1.2-.02 1.19.37.88M28.83-70.85l-.16-.57-.72-.42-.84-.58-.83-.74-.82-.85-.81-.98-.76-1.18-.69-1.42-.65-1.6-.68-1.6-.8-1.39-.95-1.08-1.07-.86-1.11-.84-1.07-.96-1-1.11-.95-1.17-.99-1.12-1.17-1.08-1.42-1.13-1.58-1.17-1.16-.81.57-.57" filter="url(#a)"/><path d="m27.96-71.44.73.56 1.04.6 1.24.65 1.13.65.93.65.78.72.7.81.69.94.7 1.02.74 1.01.76.94.76.88.69.92.6 1.01.59.99 1.07 1.06M27.96-71.44l-.04-3.42-1.07-.12-1.03-.29-.83-1.08-.71-1.46-.72-1.29-.82-.96-.91-.77-.97-.93-.95-1.34-.9-1.82-.84-2.19-.8-2.34-.79-2.3-.84-2.14-.94-1.98-1.15-1.82-1.4-1.64-1.54-1.46-1.34-1.51-.96-2.14-1.76-2.7" filter="url(#a)"/><path d="m25.69-72.55.95.6.97.58.96.7 1.01.81 1.06.8 1.03.73.96.67.89.66.82.72.8.8.78.87.77.92.75.94.72.92.69.89.64.85.59.85.52.91.46 1.04.45 1.17.49 1.19.55 1.04 1.12 1.12-17.98-19.78.6 1.52.86.83.92.75 1.03.73 1.08.7 1.05.65.96.61.89.6.85.64.82.71.82.79.81.83.78.86.74.88.67.9.58.93.48.98.38 1.06.36 1.15.47 1.18.49 1.09-.49.67m-16.81-19.8-1.34-.37-.98-.12-.88-.02-.96-.06-1.04-.14-1.11-.17-1.12-.14-1.12-.04-1.08.1-1.06.26-1.07.41-1.09.53-1.16.57-1.19.57-1.17.55-1.04.57-.84.6-.65.54-.55.37-.62.23-1.08-.12 9.64-7.49-2.08-.16-1.8-.11-1.25.14-.87.41-.73.59-.74.6-.85.51-.98.33-1.1.18-1.13.12-1.11.18-1.05.32-.97.49-.92.68-1.02.7-1.33.1 17.93-5.08-1.92-1.61-1.65-2.01-1.09-1.89-.78-1.07-.7-.3-.78-.01-.93-.3-1.09-.94-1.22-1.63-1.3-2.06-1.31-2.13-1.31-2.03-1.32-2.2-1.36-2.93-1.62-3.88-2.07-3.42" filter="url(#a)"/><path d="m28.83-70.85-.31-.19-.73-.4-.87-.47-.92-.45-.94-.43-.97-.39-.98-.35-.96-.34-.96-.32-.97-.32-1.01-.33-1.05-.33-1.07-.32-1.08-.3-1.05-.26-1.02-.22-1-.2-1.02-.17-1.11-.2-1.25-.21-1.3-.22-1.15-.19-.85-.13-1.43-.23m65.74 65.7-.3-2.42-.31-2.17-.36-2.21-.4-2.21-.37-2.2-.33-2.21-.35-2.24-.46-2.25-.62-2.24-.75-2.2-.78-2.16-.72-2.08-.62-2.01-.55-1.94-.58-1.89-.7-1.84-.91-1.83-1.14-1.8-1.34-1.78-1.45-1.75-1.5-1.71-1.5-1.65-1.49-1.61-1.52-1.55-1.61-1.49L48.19-63l-1.82-1.38-1.88-1.32-1.91-1.27-1.98-1.22-2.2-1.16-2.45-1.14-1.84-.95m36.46 59.32-9.84-2.42-5.49-2.17.62-2.21 1.31-2.22-.84-2.2-3.22-2.22-4.62-2.23-4.82-2.26-4.12-2.24-2.96-2.2-1.8-2.15-.87-2.09-.28-2.01-.02-1.94-.03-1.89-.26-1.85-.67-1.82-1.19-1.8-1.74-1.78-2.19-1.75-2.5-1.71-2.61-1.65-2.56-1.6-2.42-1.55-2.27-1.5-2.17-1.43-2.11-1.38-2.03-1.33L7-66.98 5.4-68.2l-1.27-1.16-.94-1.12-.89-1.06-2.03-1.01m.41-5.34-3 .07-2.36.16-2.3.21-2.53.28-2.89.35-3.19.42-3.21.48-3.01.54-2.71.61-2.5.68-2.45.76-2.55.83-2.73.89-2.96.95-3.27.99-3.68 1.04-4.14 1.11-4.59 1.17-4.93 1.26-5.12 1.34-5.17 1.41-5.13 1.45-5.07 1.49-5.01 1.5-4.92 1.53-4.71 1.56-4.35 1.63-3.99 1.74-3.97 1.9-4.77 2.24-7.39 3.17" filter="url(#a)"/><path d="m-.61-77.94-2.31.25-2.72.24-2.86.27-3.03.31-3.08.38-2.99.44-2.91.52-2.99.6-3.21.67-3.45.74-3.6.81-3.59.87-3.45.93-3.27.98-3.09 1.02-2.97 1.07-2.92 1.13-2.93 1.19-3.05 1.25-3.3 1.32-3.64 1.38-4.03 1.44-4.36 1.51-4.56 1.58-4.64 1.66-4.63 1.73-4.65 1.8-4.69 1.85-4.72 1.87-4.67 1.88-4.53 1.88-4.55 1.91-5.07 2.01-6.23 2.19-7.66 2.42-7.48 2.79" filter="url(#a)"/><path d="m-3.25-77.92-2.34.23-2.36.22-2.02.27-2.24.35-2.53.43-2.62.48-2.5.54-2.36.6-2.33.67-2.43.75-2.62.83-2.85.9-3.1.94-3.36.97-3.64 1.03-3.93 1.08-4.25 1.16-4.49 1.25-4.63 1.34-4.54 1.41-4.28 1.46-3.92 1.49-3.68 1.48-3.74 1.48-4.22 1.51-4.76 1.48-4.55.62" filter="url(#a)"/><path d="m-7.34-77.39-1.31.15-2.15.34-2.53.46-2.63.51-2.59.54-2.56.61-2.59.68-2.61.77-2.57.84-2.48.91-2.36.95-2.28.99-2.23 1.04-2.24 1.11-2.26 1.17-2.29 1.27-2.3 1.34-2.31 1.41-2.36 1.46-2.43 1.48-2.56 1.5-2.7 1.52-2.83 1.56-2.9 1.62-2.79 1.73-2.5 1.9-2.23 2.24-2.94 3.16" filter="url(#a)"/><path d="m-9.14-77.01-2.08.08-1.84.37-2.02.44-2.28.52-2.5.6-2.58.68-2.62.74-2.72.8-2.86.87-2.98.93-2.97.98-2.83 1.01-2.66 1.05-2.55 1.1-2.55 1.16-2.67 1.23-2.82 1.31-2.97 1.36-3.1 1.41-3.2 1.46-3.28 1.53-3.33 1.62-3.32 1.72-3.22 1.82-3.22 1.92-3.57 2.06-3.85 2.16" filter="url(#a)"/><path d="m-7.96-77.37-2.58.4-2.58.5-2.73.53-2.92.55-3.17.59-3.36.67-3.42.77-3.3.85-3.09.91-2.81.95-2.57.98-2.45 1.03-2.53 1.09-2.85 1.17-3.39 1.25-4.01 1.34-4.54 1.41-4.75 1.46-4.57 1.48-4.13 1.49-3.71 1.48-3.66 1.53-4.12 1.58-4.82 1.71-6.81 2.48" filter="url(#a)"/><path d="m-7.96-77.37-.95.41-2.38.5-2.18.54-1.58.55-.84.61-.17.69.19.78.21.86-.03.92-.39.97-.75 1.01-1.01 1.06-1.12 1.12-1.01 1.2-.72 1.28-.34 1.35-.01 1.42.17 1.46.22 1.5.22 1.53.27 1.57.44 1.62.77 1.7 1.16 1.8 1.48 1.87 1.61 1.94 1.53 1.94 1.39 1.9 1.39 1.86L-9-39.53l1.22 1.79 2.83.98" filter="url(#a)"/><path d="m-9.48-77.29-3.36.68-2.8.48-2.15.5-1.92.6-1.93.68-2.05.74-2.22.8-2.4.86-2.52.93-2.55.97-2.48 1.01-2.42 1.03-2.49 1.07-2.72 1.14-3.07 1.22-3.36 1.31-3.47 1.35-3.29 1.39-2.87 1.4-2.4 1.48-2.06 1.6-2.03 1.81-2.95 2.29" filter="url(#a)"/><path d="m-10.46-77.08-4.22.61-2.29.55-2.17.55-2.18.6-2.22.68-2.31.78-2.34.87-2.27.93-2.19.97-2.19 1-2.34 1.06-2.6 1.12-2.86 1.19-3 1.28-3 1.36-2.93 1.41-2.86 1.46-2.91 1.5-3.05 1.52-3.2 1.56-3.25 1.62-3.11 1.69-2.83 1.79-2.55 1.88-2.45 1.95-2.64 1.95-2.9 1.88-3.02 1.85-3.21 2.07-4.31 2.52" filter="url(#a)"/><path d="m-13.1-76.32-2.13.43-2.29.53-2.04.57-2 .66-2.12.79-2.23.88-2.24.93-2.16.97-2.05.99-1.96 1.04-1.94 1.1-1.98 1.19-2.03 1.27-2.08 1.35-2.05 1.41-1.99 1.46-1.86 1.49-1.74 1.5-1.66 1.52-1.64 1.57-1.68 1.65-1.77 1.76-1.86 1.93-1.91 2.14-1.84 2.33-1.29 1.95" filter="url(#a)"/><path d="m-15.64-75.87-3.23.75-2.85.81-2.31.79-1.97.82-1.93.88-2.07.96-2.2 1.01-2.29 1.04-2.31 1.07-2.3 1.12-2.25 1.19-2.17 1.26-2.07 1.33-1.97 1.4-1.9 1.45-1.9 1.51-1.97 1.58-2.13 1.66-2.3 1.74-2.44 1.8-2.5 1.85-2.46 1.86-2.33 1.88-2.16 1.88-1.98 1.92-1.81 2.02-1.74 2.17-1.84 2.29-1.97 2.31-1.74 1.9" filter="url(#a)"/><path d="m-15.64-75.87-4.37.75-5.06.81-4.09.79-2.95.82-2.25.89-2.08.96-2.21 1.01-2.45 1.04-2.7 1.08-2.82 1.12-2.84 1.19-2.79 1.26-2.87 1.34-3.15 1.39-3.64 1.46-4.18 1.52-4.62 1.59-4.81 1.66-4.8 1.74-4.66 1.8-4.54 1.85-4.44 1.86-4.34 1.88-4.14 1.9-3.9 1.95-3.86 2.03-4.23 2.14-5.06 2.22-5.99 2.19-6.75 1.96-9 1.61" filter="url(#a)"/><path d="m-19.13-74.99-1.02.24-1.89.58-3.13.81-4.25.93-4.65.98-4.28.98-3.51 1-2.81 1.05-2.4 1.12-2.37 1.21-2.68 1.29-3.3 1.37-3.99 1.43-4.54 1.47-4.73 1.5-4.54 1.53-4.12 1.57-3.73 1.63-3.56 1.7-3.65 1.8-3.93 1.87-4.33 1.92-4.82 1.93-5.31 1.9-5.6 1.87-5.53 1.9-5.26 1.95-5.89 2.13-10.33 3.1" filter="url(#a)"/><path d="m-19.13-74.99-.99.24-1.7.59-2.1.81-2.28.94-2.32.98-2.29.99-2.23 1.01-2.23 1.06-2.31 1.13-2.48 1.22-2.7 1.31-2.94 1.37-3.15 1.44-3.26 1.47-3.29 1.52-3.2 1.55-3.01 1.59-2.74 1.66-2.45 1.72-2.17 1.8-1.97 1.86-1.87 1.91-1.89 1.92-1.99 1.93-2.11 1.95-2.2 1.98-2.25 2.06-2.27 2.15-2.27 2.25-2.17 2.31-1.87 2.23-1.52 1.93-1.61 1.37" filter="url(#a)"/><path d="m-19.62-74.97-3.16.67-1.82.89-2 .99-2.34 1.01-2.6.99-2.74 1-2.75 1.06-2.76 1.13-2.84 1.22-3.08 1.3-3.43 1.39-3.74 1.43-3.88 1.48-3.72 1.52-3.31 1.55-2.8 1.59-2.32 1.65-2.01 1.73-1.94 1.8-2.08 1.86-2.42 1.9-2.91 1.93-3.51 1.93-4.08 1.94-4.49 1.98-4.61 2.06-4.36 2.15-3.86 2.25-3.37 2.3-3.16 2.23-3.39 1.93-4.46 1.37" filter="url(#a)"/><path d="m-19.62-74.97-2.04.68-2.73.89-3.12.99-3.04 1.01-2.92.99-3.01 1.01-3.28 1.06-3.56 1.13-3.77 1.23-3.94 1.31-4.06 1.38-4.16 1.44-4.19 1.49-4.12 1.52-3.96 1.55-3.75 1.61-3.56 1.66-3.39 1.73-3.24 1.8-3.09 1.86-2.9 1.91-2.71 1.93-2.58 1.94-2.66 1.96-3.08 2.01-3.91 2.07-4.95 2.14-5.7 2.2-5.53 2.23-4.18 2.18-2.29 2.09-1.45 2.07-3.44 2.37-8.48 3.31" filter="url(#a)"/><path d="m-19.62-74.97-1.94.68-2.86.89-3.75 1-3.63 1.01-2.74.99-1.88 1.02-1.59 1.06-1.92 1.14-2.62 1.23-3.47 1.32-4.19 1.39-4.69 1.44-4.84 1.49-4.64 1.53-4.15 1.57-3.54 1.61-3.06 1.68-2.92 1.74-3.2 1.8-3.79 1.87-4.43 1.9-4.78 1.93-4.67 1.96-4.12 1.99-3.44 2.02-3.01 2.08-3.15 2.14-3.88 2.18-4.89 2.21-5.6 2.21-5.53 2.22-4.71 2.26-3.8 2.37-3.75 2.46-4.63 2.45-4.63 2.27-.61 2.47" filter="url(#a)"/><path d="m-21.52-74.37-3.03.9-3.07 1.07-2.21 1.04-1.88.99-1.94 1-2.22 1.06-2.54 1.14-2.73 1.23-2.71 1.33-2.5 1.39-2.23 1.45-1.97 1.5-1.79 1.53-1.72 1.57-1.74 1.61-1.82 1.68-1.93 1.74-2.05 1.81-2.14 1.87-2.21 1.9-2.3 1.94-2.44 1.96-2.64 1.99-2.85 2.03-2.94 2.08-2.8 2.14-2.36 2.18-1.73 2.2-1.12 2.22-.81 2.23-.96 2.28-1.52 2.34-2.19 2.41-2.5 2.38-2.06 2.21-1.02 1.93-.71 1.38" filter="url(#a)"/><path d="m-24.56-73.24-1.73.54-1.58.82-1.95 1.01-2.15 1.08-2.23 1.06-2.33 1.05-2.42 1.1-2.45 1.18-2.39 1.27-2.27 1.34-2.15 1.4-2.16 1.45-2.31 1.52-2.62 1.58-2.96 1.66-3.29 1.74-3.45 1.8-3.41 1.85-3.14 1.86-2.72 1.87-2.3 1.87-2.04 1.92-2.02 2.01-2.09 2.16-2.11 2.29-2.12 2.3-2.33 1.89" filter="url(#a)"/><path d="m-24.56-73.24-3.88.54-1.29.82-1.64 1.02-2.15 1.07-2.39 1.06-2.48 1.06-2.62 1.1-2.92 1.19-3.38 1.27-3.84 1.35-4.15 1.4-4.19 1.46-4 1.51-3.66 1.59-3.28 1.67-2.95 1.74-2.69 1.8-2.46 1.85-2.25 1.86-2.11 1.88-2.18 1.89-2.59 1.93-3.32 2.03-4.02 2.14-4.35 2.21-4.17 2.19-3.6 1.95-3.63 1.6" filter="url(#a)"/><path d="m-22.57-73.7-4.09 1.3-3.36 1.06-2.74.97-2.2.96-1.76 1.01-1.57 1.1-1.63 1.22-1.82 1.3-2.03 1.38-2.2 1.44-2.38 1.48-2.61 1.49-2.91 1.52-3.17 1.56-3.31 1.61-3.23 1.69-2.96 1.79-2.62 1.88-2.37 1.93-2.35 1.93-2.65 1.88-3.26 1.84-3.8 1.86-3.4 1.78-1.44.96" filter="url(#a)"/><path d="m-24.7-72.74-2.57.76-3.3 1.12-2.74 1.14-2.11 1.08-1.9 1.06-1.95 1.12-2.03 1.2-2.03 1.3-1.97 1.37-1.93 1.43-1.97 1.49-2.06 1.56-2.16 1.62-2.21 1.7-2.19 1.76-2.12 1.82-2.01 1.86-1.92 1.89-1.86 1.92-1.83 1.96-1.79 2-1.72 2.04-1.64 2.08-1.53 2.11-1.47 2.12-1.5 2.12-1.57 2.13-1.65 2.14-1.64 2.16-1.44 2.18-1.15 2.21-.87 2.25-.83 2.32-1.07 2.41-1.43 2.47-1.55 2.36-.56 2.02" filter="url(#a)"/><path d="m-24.7-72.74-2.38.76-3 1.11-3.07 1.14-2.77 1.08-2.27 1.06-1.81 1.1-1.61 1.2-1.64 1.3-1.78 1.36-1.91 1.43-1.96 1.48-1.96 1.55-1.96 1.61-2 1.69-2.1 1.76-2.23 1.81-2.38 1.86-2.48 1.88-2.56 1.92-2.59 1.94-2.57 1.99-2.47 2.04-2.3 2.08-2.06 2.11-1.85 2.11-1.71 2.12-1.7 2.11-1.74 2.13-1.75 2.16-1.72 2.17-1.69 2.15-1.66 2.13-1.49 2.28-1.46 3.19" filter="url(#a)"/><path d="m-26.39-72.16-2.89.94-2.94.91-3.2.92-3.38.99-3.44 1.09-3.27 1.22-2.92 1.31-2.61 1.38-2.53 1.44-2.68 1.48-2.96 1.49-3.23 1.51-3.46 1.54-3.7 1.6-4.09 1.68-4.73 1.78-5.52 1.89-6.06 1.95-5.77 1.93-4.41 1.85-2.56 1.82-2.01 2.07-4.92 2.49" filter="url(#a)"/><path d="m-26.39-72.16-2.32.94-2.92.91-3.97.92-4.94.98-5.08 1.09-4.31 1.21-3.22 1.3-2.49 1.39-2.45 1.43-2.99 1.48-3.64 1.48-3.98 1.51-3.79 1.52-3.21 1.59-2.66 1.67-2.58 1.78-3.14 1.89-4.05 1.98-4.79 1.94-4.92 1.78-4.4 1.62-4.43 2.27" filter="url(#a)"/><path d="m-26.29-72.34-2.9 1.42-2.34 1.24-1.81 1.09-1.57 1.03-1.58 1.09-1.68 1.2-1.74 1.3-1.75 1.38-1.69 1.43-1.62 1.49-1.55 1.55-1.52 1.62-1.49 1.7-1.47 1.77-1.45 1.81-1.42 1.86-1.37 1.89-1.31 1.92-1.23 1.96-1.15 1.99-1.08 2.04-.98 2.08-.91 2.11-.82 2.11-.75 2.12-.7 2.12-.64 2.14-.6 2.16-.52 2.17-.46 2.2-.42 2.22-.42 2.32-.47 2.45-.45 2.57-.34 2.59" filter="url(#a)"/><path d="m-26.29-72.34-3.99 1.4-4.14 1.24-3.28 1.08-2.4 1.01-2.03 1.06-1.99 1.18-2.07 1.28-2.24 1.37-2.48 1.41-2.77 1.45-3 1.52-3.15 1.58-3.24 1.67-3.31 1.74-3.41 1.81-3.52 1.85-3.6 1.86-3.65 1.87-3.76 1.88-4.02 1.93-4.35 2.02-4.41 2.14-3.78 2.21-2.68 2.18-2.5 1.95-4.01 1.59" filter="url(#a)"/><path d="m-30.29-70.51-2.23 1.2-1.67.94-1.83 1.1-2 1.27-2.03 1.36-1.99 1.42-1.92 1.47-1.84 1.5-1.75 1.51-1.69 1.55-1.62 1.58-1.58 1.65-1.55 1.73-1.53 1.8-1.51 1.88-1.49 1.91-1.46 1.92-1.43 1.93-1.39 1.94-1.35 1.98-1.3 2.05-1.24 2.14-1.14 2.22-.99 2.25-.86 2.17-.77 1.98-.83 1.77-1.13 1.94m39.91-47.08-1.7 1.05-1.6.87-2.44.98-3.52 1.18-4.22 1.33-4.39 1.4-4.12 1.44-3.53 1.47-2.76 1.52-2.07 1.61-1.73 1.68-1.94 1.77-2.59 1.81-3.45 1.85-4.24 1.88-4.81 1.89-5.18 1.92-5.39 1.97-5.49 2.03-5.43 2.09-5.09 2.12-4.49 2.11-3.78 2.07-3.16 2.06-2.82 2.11-2.86 2.21-3.39 2.25-6.19 2.17" filter="url(#a)"/><path d="m-32.5-69.43-.71 1.05-.21.87-1.05.98-1.72 1.19-1.77 1.33-1.34 1.4-.72 1.44-.16 1.47.18 1.54.34 1.6.37 1.69.39 1.77.46 1.82.56 1.85.68 1.88.77 1.9.84 1.93.94 1.97 1.09 2.03 1.28 2.09 1.47 2.11 1.66 2.11 1.84 2.09 2.03 2.08 2.26 2.12 2.57 2.19 2.89 2.23 2.77 2.22 1.06 2.21m83.48 1.37 4.23-2.17-.56-1.66-.16-1.72.33-1.87-.04-2.02-.79-2.1-1.29-2.15-1.32-2.14-.91-2.11-.28-2.08.26-2.04.53-2.02.41-2.02.02-2.03-.44-2.03-.81-2.01-1.05-1.95-1.21-1.86-1.37-1.77-1.53-1.7L62.19-58l-1.41-1.54-.91-1.27-.45-.79" filter="url(#a)"/><path d="m69.75-16.9.67-2.18 2.22-1.68 1.15-1.73-.22-1.89-.66-2.03-.28-2.12.38-2.15.9-2.15 1.04-2.12.78-2.09.21-2.05-.46-2.04-1.04-2.03-1.35-2.03-1.35-2.03-1.11-1.99-.72-1.93-.3-1.85.02-1.76.15-1.67-.02-1.58-.45-1.48-.9-1.37-1.05-1.3-.77-1.3-.47-1.35-.87-1.37-2.16-1.33m-96.57-1.22-1.05.37-2.14 1.02-2.45 1.29-2.73 1.38-3.44 1.43-4.39 1.47-5.24 1.49-5.72 1.51-5.86 1.52-5.75 1.56-5.41 1.63-4.78 1.71-3.76 1.8-2.5 1.87-1.32 1.92-.75 1.91-1.16 1.9-2.5 1.89-4.3 1.93-5.89 2-6.84 2.13-7.13 2.29-6.89 2.48-5.72 2.81" filter="url(#a)"/><path d="m-33.48-68.72-2.16.38-3.41 1.04-3.65 1.3-3.63 1.39-3.24 1.44-2.58 1.49-2.03 1.51-1.98 1.52-2.44 1.55-3.19 1.59-3.8 1.66-4.03 1.74-3.88 1.82-3.53 1.88-3.29 1.91-3.29 1.93-3.46 1.94-3.58 1.97-3.43 2.01-2.97 2.07-2.41 2.13-2.18 2.18-2.6 2.21-3.77 2.19-5.37 2.17-6.72 2.23-7.01 2.38-5.89 2.55-3.89 2.43-1.59 1.52" filter="url(#a)"/><path d="m-34.48-68.18-3.17.73-1.85.89-2.28 1.21-2.75 1.38-2.78 1.44-2.55 1.45-2.51 1.49-2.83 1.55-3.44 1.63-3.99 1.7-4.29 1.78-4.26 1.84-3.98 1.86-3.59 1.9-3.21 1.92-2.9 1.96-2.68 2-2.49 2.04-2.34 2.08-2.25 2.11-2.34 2.11-2.72 2.12-3.45 2.13-4.37 2.14-5.23 2.15-5.64 2.19-5.4 2.21-4.59 2.25-3.55 2.31-2.81 2.38-2.58 2.39-2.65 2.31-2.35 2.1-.26 1.88" filter="url(#a)"/><path d="m-33.77-68.75-1.7 1.24-1.83 1.49-1.42 1.44-1.2 1.45-1.26 1.5-1.47 1.51-1.69 1.53-1.77 1.55-1.7 1.6-1.48 1.66-1.17 1.75-.89 1.83-.67 1.88-.59 1.92-.64 1.93-.77 1.95-.94 1.98-1.05 2.02-1.11 2.07-1.06 2.14-.92 2.18-.71 2.2-.46 2.2-.23 2.22-.05 2.26.04 2.34.12 2.4.25 2.37.44 2.19.48 1.92.24 1.37" filter="url(#a)"/><path d="m-33.77-68.75-2.12 1.25-2.57 1.49-2.27 1.45-2 1.47-1.97 1.5-2.14 1.52-2.49 1.54-2.96 1.57-3.38 1.61-3.64 1.69-3.7 1.76-3.52 1.84-3.18 1.89-2.7 1.92-2.18 1.95-1.68 1.98-1.31 2-1.16 2.05-1.27 2.09-1.61 2.14-2.07 2.18-2.57 2.21-2.97 2.23-3.27 2.26-3.47 2.28-3.57 2.29-3.53 2.29-3.27 2.27-2.76 2.23-2.02 2.18-1.25 2.18-.78 2.21-.8 2.27-1.27 2.33-1.74 2.36-1.46 2.42-.34 2.71m84.99-73.61.04 1.24-.78 1.5-1.55 1.44-2.24 1.46-2.39 1.5-2.16 1.52-1.79 1.53-1.43 1.56-1.09 1.61-.8 1.68-.53 1.75-.29 1.83-.11 1.89.09 1.92.27 1.95.47 1.96.66 1.99.83 2.04.89 2.08.83 2.14.67 2.17.45 2.21.22 2.22.02 2.25-.14 2.27-.23 2.31-.24 2.32-.07 2.29.33 2.2.94 2.12 1.58 2.09 1.94 2.18 1.73 2.37.67 2.44" filter="url(#a)"/><path d="m-34.73-68.02-3.19 2.05-2.59 1.45-3.11 1.42-3.33 1.49-2.88 1.53-2.21 1.53-1.72 1.54-1.56 1.59-1.6 1.66-1.72 1.75-1.81 1.83-1.85 1.89-1.9 1.92-1.99 1.94-2.15 1.94-2.38 1.98-2.63 2.01-2.84 2.08-2.92 2.13-2.89 2.18-2.68 2.2-2.34 2.2-1.88 2.22-1.41 2.26-1.08 2.33-1.04 2.4-1.35 2.37-1.95 2.19-2.62 1.91-2.91 1.37" filter="url(#a)"/><path d="m-34.73-68.02-8.93 2.06-1.37 1.46-.5 1.43-.97 1.5-1.42 1.53-1.68 1.53-1.91 1.56-2.21 1.61-2.52 1.68-2.75 1.76-2.75 1.84-2.55 1.89-2.18 1.93-1.8 1.95-1.51 1.97-1.45 2-1.61 2.04-1.93 2.09-2.28 2.14-2.49 2.17-2.46 2.21-2.21 2.23-1.82 2.25-1.49 2.28-1.35 2.29-1.46 2.3-1.79 2.27-2.17 2.22-2.45 2.17-2.47 2.15-2.22 2.2-1.78 2.28-1.47 2.33-1.64 2.29-1.26 2.17" filter="url(#a)"/><path d="m-36-67.38-2.11 1.75-2 1.66-1.24 1.53-.6 1.45-.44 1.47-.58 1.54-.84 1.63-1.13 1.72-1.42 1.8-1.69 1.85-1.87 1.88-1.89 1.9-1.73 1.93-1.44 1.96-1.08 2.01-.7 2.05-.37 2.08-.08 2.11.11 2.12.25 2.12.32 2.13.4 2.15.49 2.17.62 2.19.76 2.23.85 2.27.84 2.31.73 2.35.57 2.37.51 2.39.61 2.39.93 2.41 1.4 2.44 1.79 2.48 1.61 3.14m5.41-69.8-6.74.87-1.57 1.26-1.78 1.5-2.08 1.55-2.18 1.54-2.48 1.54-2.98 1.59-3.34 1.67-3.43 1.76-3.36 1.84-3.36 1.9-3.54 1.93-3.82 1.94-3.96 1.96-3.82 1.99-3.44 2.03-3.02 2.08-2.79 2.13-2.85 2.18-3.06 2.21-3.22 2.22-3.21 2.24-3.06 2.27-2.97 2.3-3.15 2.32-3.61 2.28-4.22 2.21-4.71 2.11-4.79 2.08-4.6 2.18-4.8 2.37-6.75 2.43" filter="url(#a)"/><path d="m-37.89-65.67-2.91 1.8-2.15 1.49-1.86 1.38-1.74 1.4-1.67 1.49-1.66 1.59-1.67 1.7-1.7 1.78-1.73 1.83-1.71 1.86-1.64 1.86-1.58 1.87-1.51 1.9-1.5 1.95-1.5 2.02-1.52 2.09-1.47 2.12-1.37 2.1-1.24 2.04-1.11 2.01-1.07 2.08-1.23 2.25-1.66 2.27" filter="url(#a)"/><path d="m-40.1-64.4-.16 1.19-1.45 1.63-1.49 1.62-1.58 1.55-1.58 1.53-1.39 1.59-1.09 1.68-.82 1.77-.68 1.86-.67 1.91-.75 1.94-.86 1.95-.91 1.97-.87 2-.77 2.04-.63 2.1-.53 2.14-.46 2.18-.39 2.22-.31 2.23-.17 2.25.02 2.27.27 2.29.51 2.29.73 2.26.9 2.23.98 2.19.94 2.18.76 2.21.55 2.27.4 2.33.44 2.37.74 2.41 1.13 2.49 1.23 2.43" filter="url(#a)"/><path d="m-41.05-63.84-4.21 2.23-2.12 1.71-1.25 1.52-1.05 1.49-1.15 1.55-1.36 1.66-1.54 1.76-1.66 1.85-1.73 1.91-1.77 1.93-1.78 1.94-1.74 1.94-1.68 1.97-1.57 2.01-1.44 2.08-1.36 2.13-1.31 2.18-1.32 2.2-1.34 2.2-1.37 2.22-1.39 2.26-1.35 2.32-1.22 2.36-.97 2.31-.68 2.18-.48 1.99-.59 1.88-1.19 2.14" filter="url(#a)"/><path d="m-45.66-60.12-.58.69-1.28 1.37-1.54 1.64-1.75 1.77-1.94 1.83-2.08 1.86-2.1 1.88-2 1.88-1.88 1.88-1.79 1.91-1.73 1.97-1.65 2.03-1.52 2.09-1.32 2.1-1.12 2.1-.99 2.08-1.01 2.08-1.18 2.11-1.45 2.13-1.72 2.16-1.81 2.12-1.57 2.09-.98 2.25-.46 3.17m35.45-47.19-4.15.71-4.69 1.4-2.43 1.66-.77 1.79-.19 1.86-.47 1.89-1.2 1.9-2.02 1.91-2.65 1.92-2.92 1.96-2.87 2.01-2.68 2.06-2.5 2.09-2.52 2.11-2.77 2.13-3.22 2.12-3.75 2.14-4.26 2.15-4.61 2.17-4.66 2.2-4.36 2.23-3.7 2.28-2.81 2.3-1.89 2.35-1.22 2.36-1.01 2.38-1.34 2.38-2 2.36-2.69 2.33-3.13 2.26-3.29 2.19-3.4 2.18-3.75 2.46-5.15 3.09" filter="url(#a)"/><path d="m-45.66-60.12-2.96.7-4.99 1.4-3.79 1.66-2.08 1.79-1.12 1.85-1.04 1.89-1.38 1.89-1.78 1.91-2.04 1.91-2.27 1.96-2.57 2-3.06 2.05-3.6 2.1-4.03 2.11-4.12 2.12-3.77 2.12-3.05 2.12-2.19 2.15-1.53 2.16-1.32 2.19-1.69 2.23-2.53 2.26-3.54 2.31-4.44 2.34-4.94 2.37-4.8 2.38-3.93 2.38-2.48 2.39-1.07 2.37-.82 2.28-2.35 2.01-4.4.98" filter="url(#a)"/><path d="m-45.6-60.03-2.87 1.82-6.23 1.82-7.02 1.83-4.67 1.87-1.59 1.89.4 1.9.89 1.9.36 1.91-.61 1.94-1.62 2-2.51 2.05-3.21 2.09-3.69 2.11-3.84 2.12-3.62 2.12-3.09 2.12-2.41 2.13-1.87 2.16-1.71 2.18-2.04 2.22-2.73 2.26-3.44 2.3-3.8 2.34-3.69 2.37-3.29 2.37-2.86 2.38-2.6 2.4-2.37 2.44-2.28 2.46-2.96 3.13" filter="url(#a)"/><path d="m-47.34-58.18-2.46 1.85-2.66 1.81-4.4 1.86-5.41 1.9-5.02 1.9-3.84 1.89-2.63 1.9-1.83 1.93-1.51 1.99-1.64 2.06-2.05 2.09-2.69 2.11-3.44 2.12-4.24 2.1-4.96 2.12-5.42 2.12-5.37 2.15-4.64 2.18-3.38 2.21-2 2.25-1.16 2.3-1.39 2.34-2.71 2.37-4.55 2.36-5.92 2.36-5.73 2.41-3.24 2.35.14 1.32" filter="url(#a)"/><path d="m-47.34-58.18-4.19 1.84-3.95 1.8-3.03 1.85-3.62 1.89-4.81 1.9-5.38 1.88-5.02 1.89-4.13 1.91-3.33 1.98-3 2.04-3.18 2.1-3.6 2.1-3.9 2.11-3.79 2.09-3.2 2.09-2.25 2.12-1.39 2.13-1.06 2.16-1.58 2.18-2.71 2.22-3.7 2.29-3.68 2.4-2.79 2.43-2.99 2.33-6.05 1.99" filter="url(#a)"/><path d="m-47.34-58.18-5.79 1.85-4.01 1.81-1.64 1.86-1.02 1.9-1.15 1.9-1.48 1.89-1.83 1.9-2.14 1.93-2.31 1.99-2.33 2.06-2.29 2.09-2.3 2.11-2.4 2.12-2.6 2.1-2.8 2.12-2.92 2.12-2.89 2.15-2.71 2.18-2.5 2.21-2.44 2.25-2.7 2.3-3.29 2.34-4 2.37-4.39 2.36-4.14 2.36-3.43 2.41-2.82 2.35-1.49 1.32" filter="url(#a)"/><path d="m-48.53-57.07-3.28 1.61-2.72 1.8-1.57 1.83-1.48 1.91-1.83 1.98-2.2 1.97-2.65 1.94-3.3 1.92-4.08 1.95-4.79 2.01-5.22 2.08-5.28 2.14-4.99 2.19-4.45 2.2-3.86 2.2-3.43 2.22-3.34 2.26-3.65 2.3-4.16 2.31-4.54 2.27-4.54 2.18-4.09 2.08-3.28 2.07-2.33 2.16-1.56 2.36.35 2.41m86.27-54.35-1.61 1.61-1.98 1.81-2.25 1.84-2.29 1.91-2.06 1.98-1.88 1.98-1.89 1.95-2.07 1.93-2.25 1.96-2.29 2.02-2.15 2.09-1.88 2.14-1.56 2.19-1.32 2.21-1.23 2.22-1.35 2.23-1.59 2.26-1.82 2.29-1.94 2.29-1.84 2.26-1.67 2.2-1.55 2.14-1.68 2.13-2.02 2.18-2.32 2.27-2.25 2.32-1.64 2.27-1.4 2.15" filter="url(#a)"/><path d="m-49.44-56.05-1.55 1.59-2.82 1.88-3.71 1.93-4.31 1.92-4.77 1.91-4.89 1.92-4.51 1.95-3.68 2.01-2.55 2.08-1.33 2.11-.29 2.13.35 2.13.48 2.14.19 2.14-.36 2.16-.96 2.18-1.47 2.21-1.83 2.25-2.08 2.28-2.28 2.31-2.51 2.35-2.76 2.36-3.04 2.37-3.25 2.36-3.3 2.35-3.13 2.33-2.76 2.33-2.41 2.33-2.34 2.36-2.72 2.41-3.36 2.45-3.65 2.41-3.05 2.31-1.9 2.17-1.69 2.01-3.26 1.32M69.19-19.88l2.16-1.03 1.19-1.62-.58-1.91-1.49-2.08-1.52-2.15-1.06-2.19-.52-2.17-.12-2.13-.02-2.1-.15-2.08-.46-2.05-.8-2.04-1.09-2.04-1.3-2.01-1.44-1.96-1.54-1.91-1.62-1.83-1.7-1.74-1.75-1.65-1.76-1.57-1.73-1.49-1.69-1.42-1.66-1.37-1.69-1.34-1.75-1.3-1.83-1.28-1.94-1.24-2.03-1.19-2.14-1.12-2.23-1.05-2.27-.97-2.21-.87-2.09-.77-2.03-.67-2.21-.66-2.76-.86" filter="url(#a)"/><path d="m69.19-19.88 2.32-1.01-.31-1.58-.99-1.88-1.04-2.05-.92-2.13-.79-2.17-.64-2.15-.53-2.12-.47-2.07-.52-2.05-.68-2.02-.9-2.02-1.1-2.03-1.23-2.02-1.3-2-1.29-1.93-1.29-1.86-1.31-1.76-1.36-1.68L53.41-58l-1.42-1.48-1.32-1.32-1.23-1.21-1.55-1.28-2.48-1.72m-95.7 10.14-4.98 2.26-2.02 1.95-1.48 1.93-1.69 1.88-2.23 1.87-2.69 1.9-2.84 1.98-2.66 2.05-2.34 2.11-2.13 2.12-2.07 2.1-2.19 2.1-2.39 2.09-2.69 2.12-3.05 2.14-3.43 2.17-3.69 2.19-3.61 2.24-3.09 2.29-2.23 2.34-1.35 2.37-.98 2.33-1.44 2.34-2.46 2.61-3.08 3.63" filter="url(#a)"/><path d="m-52.72-51.95-10.42 1.42-.63 1.9v1.89l-.51 1.86-1.02 1.89-1.78 1.99-2.9 2.07-4.12 2.12-5.01 2.13-5.25 2.12-4.78 2.1-3.89 2.11-3.05 2.12-2.64 2.15-2.7 2.19-3.15 2.21-3.76 2.25-4.41 2.3-5.07 2.34-5.7 2.36-6.14 2.36-6.19 2.37-5.57 2.37-4.26 2.36-2.85 2.27-3.09 1.99-7.99.97" filter="url(#a)"/><path d="m-53.82-51.14-2.31 2.5-2.82 2.02-2.82 1.84-3.1 1.88-3.71 1.99-4.02 2.1-3.61 2.14-2.63 2.14-1.63 2.12-1.14 2.11-1.4 2.12-2.29 2.14-3.42 2.17-4.36 2.2-4.81 2.23-4.77 2.27-4.46 2.3-4.17 2.34-4.11 2.36-4.33 2.37-4.67 2.35-4.89 2.35-4.79 2.31-4.31 2.28-3.58 2.27-2.71 2.32-1.98 2.46-1.85 2.64-2.6 2.6-2.62 1.96m96.15-61.82-1.68 1.44-2.83 1.75-2.94 2-2.62 2.15-2.16 2.19-1.59 2.16-1 2.12-.54 2.1-.29 2.11-.27 2.13-.4 2.17-.59 2.2-.77 2.23-.95 2.27-1.14 2.31-1.37 2.34-1.65 2.35-1.92 2.37-2.12 2.35L-86.52-3l-1.87 2.31-1.37 2.28-.77 2.29-.28 2.33-.13 2.44-.44 2.52-.92 2.45-.95 2.11-.17 1.67" filter="url(#a)"/><path d="m-57.58-46.08-1.1 1.42-1.44 1.72-2.4 1.98-3.76 2.14-4.69 2.17-4.78 2.15-4.45 2.1-4.25 2.07-4.35 2.08-4.36 2.11L-97-24l-2.77 2.17-1.7 2.19-1.45 2.24-2.39 2.29-4.21 2.33-5.96 2.35-6.81 2.35-6.6 2.35-5.96 2.38-5.43 2.41-4.15 2.43-1.21 3.11m86.73-48.73 1.21 1.06 3.58 1.45 2.39 1.85-.28 2.06-2.14 2.17-2.69 2.23-2.33 2.25-1.64 2.25-.96 2.24-.45 2.26-.12 2.28.06 2.28.18 2.28.32 2.26.54 2.24.79 2.22 1.01 2.24 1.13 2.26 1.1 2.29.97 2.34.82 2.37.76 2.4.81 2.41.98 2.41 1.19 2.4 1.4 2.4 1.59 2.38 1.85 2.36 2.19 2.29 2.57 2.18 2.85 2.06 2.87 1.96 2.56 1.97 1.98 2.16 1.34 2.37.91 1.9m-29.34-78.53-.47 1.05-.85 1.43-1.07 1.83-1.11 2.03-1.07 2.15-1 2.22-.93 2.23-.86 2.23-.79 2.22-.76 2.24-.71 2.26-.67 2.28-.6 2.27-.52 2.25-.44 2.21-.35 2.18-.29 2.18-.23 2.22-.17 2.26-.12 2.32-.07 2.37v2.4l.05 2.43.09 2.42.12 2.37.13 2.21.14 1.96.27 2" filter="url(#a)"/><path d="m-58.5-44.75 11.98 1.78-4.2 2.07-5.02 2.22-2.93 2.24-1.1 2.18.04 2.12.65 2.1.86 2.11.86 2.15.76 2.17.74 2.21.84 2.25 1.09 2.28 1.37 2.32 1.62 2.34 1.8 2.36 1.91 2.37 2.04 2.35 2.22 2.34 2.48 2.33 2.76 2.32 3.02 2.33 3.23 2.35 3.34 2.39 3.34 2.4 3.16 2.36 2.83 2.28 2.52 2.17 2.41 2.08 2.56 2.09 2.62 2.33 1.99 3.01m-51.79-72.4L-64.03-43l-3.28 2.04-.37 2.19.55 2.22.33 2.16-.17 2.09-.68 2.07-1.13 2.07-1.59 2.11-2.07 2.15-2.56 2.17-2.97 2.2-3.14 2.24-3.03 2.29-2.58 2.33-1.97 2.35-1.43 2.35-1.17 2.35-1.3 2.36-1.61 2.34-1.73 2.26-1.64 1.97-2.6.95m40.94-47.17-.87 1.05-1.22 1.94-1.26 2.1-1.23 2.17-1.2 2.23-1.16 2.23-1.17 2.22-1.2 2.2-1.23 2.21-1.23 2.25-1.18 2.28-1.09 2.28-.99 2.24-.92 2.18-.9 2.15-.9 2.14-.89 2.19-.81 2.25-.68 2.31-.54 2.34-.53 2.39-.7 2.42-.86 2.43-.75 2.38" filter="url(#a)"/><path d="m-59.66-43.09-4.25 2.14-3.16 2.31-1.21 2.29-1.03 2.2-1.45 2.11-1.89 2.09-2.38 2.11-3.09 2.15-3.89 2.19-4.51 2.22-4.6 2.25-4.01 2.29-2.85 2.32-1.41 2.35-.11 2.36.69 2.37.76 2.36.15 2.34-.91 2.34-2.02 2.33-2.77 2.34-2.94 2.36-2.54 2.37-1.86 2.37-1.27 2.33-1 2.28-.98 2.22-.88 2.18-.41 2.2.45 2.25 1.32 2.33 1.58 2.36.46 2.39-2.3 2.76m54.37-77.66L-61.22-40l-1.46 2.31-1.37 2.22-1.17 2.27-.96 2.28-.81 2.25-.75 2.24-.75 2.26-.74 2.28-.73 2.29-.68 2.29-.65 2.26-.62 2.23-.58 2.23-.53 2.23-.45 2.27-.34 2.3-.2 2.34-.08 2.38.03 2.39.08 2.41.09 2.41.07 2.4.04 2.39.04 2.37.1 2.32.2 2.26.33 2.19.46 2.1.57 2.06.66 2.07.73 2.14.78 2.21.74 2.23.6 2.13.46 1.94.85 1.9" filter="url(#a)"/><path d="m-60.55-41.08-2.83 2.45-4.9 2.36-4.15 2.2-2.84 2.08-2.16 2.05-1.81 2.09-1.52 2.13-1.27 2.18-1.24 2.2-1.46 2.24-1.79 2.28-1.99 2.31-1.9 2.34-1.54 2.36-1 2.36-.49 2.35-.18 2.34-.17 2.31-.45 2.31-.98 2.31-1.66 2.35-2.39 2.39-2.96 2.41-3.18 2.38-2.89 2.27-2.21 2.14-1.6 2.01-1.26 1.89-.8 2.04" filter="url(#a)"/><path d="m-60.55-41.08-1.8 2.46-2.27 2.37-2.1 2.21-1.76 2.09-1.44 2.07-1.11 2.1-.79 2.15-.54 2.18-.49 2.23-.56 2.25-.68 2.29-.75 2.33-.75 2.35-.64 2.37-.48 2.36-.31 2.36-.15 2.35-.01 2.33.08 2.33.08 2.34.02 2.36-.11 2.37-.24 2.36-.33 2.33-.33 2.28-.21 2.22.03 2.2.32 2.21.58 2.26.7 2.33.67 2.41.6 2.52.76 2.77 1.19 3.21m12.82-79.35-4.9 2.44-6.97 2.34-6.31 2.19-4.79 2.07-3.23 2.04-1.97 2.07-1.05 2.12-.56 2.16-.52 2.19-.91 2.22-1.48 2.26-1.93 2.3-2.09 2.33-1.92 2.36-1.53 2.35-1.12 2.35-.92 2.32-1.11 2.3-1.81 2.26-2.94 2.24-4.31 2.3-5.59 2.46-6.05 2.63-4.94 2.58-4.77 1.94" filter="url(#a)"/><path d="m-61.3-39.48-1.33 2.02-1.06 2.03-1.1 2.26-1.2 2.3-1.33 2.26-1.39 2.22-1.29 2.24-1.11 2.28-.88 2.3-.74 2.29-.73 2.26-.85 2.23-1.05 2.21-1.26 2.23L-78-6.09l-1.34 2.29-1.16 2.34-.85 2.38-.52 2.39-.22 2.41-.04 2.41.05 2.4.07 2.39.07 2.37.11 2.33.17 2.26.25 2.18.34 2.09.39 2.03.41 2.05.37 2.14.38 2.25.49 2.29.7 2.14.61 1.62m15.56-77.13-5.23 2.32-1.94 2.21-2.89 2.03-3.96 2.01-4.29 2.06-4.2 2.14-4.12 2.17-4.21 2.21-4.28 2.23-4.1 2.27-3.58 2.31-2.79 2.34-1.89 2.36-1.05 2.35-.38 2.35.08 2.33.35 2.3.45 2.29.37 2.31-.05 2.33-.92 2.4-2.25 2.44-3.7 2.39-4.45 2.28-3.54 2.14-.94 1.99.14 1.3" filter="url(#a)"/><path d="m-63.11-36.88-8.56 1.37-5.11 2.33-3.09 2.37-2.25 2.27-1.6 2.2-.56 2.22.46 2.28.9 2.31.59 2.29-.22 2.26-1.17 2.21-2.03 2.21-2.7 2.21-3.17 2.25-3.53 2.3-3.76 2.34-3.83 2.37-3.64 2.39-3.18 2.41-2.53 2.41-1.8 2.39-1.26 2.39-1.02 2.37-1.17 2.34-1.59 2.27-2.11 2.17-2.6 2.07-2.98 1.99-3.17 2.02-2.84 2.14-1.84 2.32-.76 2.41 1.15 2.62m69.4-70.67-2.77 1.48-.3 1.78-.65 2.04-1.66 2.17-2.39 2.2-2.64 2.2-2.58 2.23-2.43 2.27-2.14 2.31-1.66 2.35-1.04 2.36-.46 2.35-.11 2.34-.08 2.33-.25 2.3-.44 2.29-.55 2.3-.59 2.34-.69 2.39-.97 2.4-1.46 2.37-2.04 2.26-2.33 2.13-1.97 2-.81 1.87.95 2.04" filter="url(#a)"/><path d="m-65.07-31.62-1.4 1.73-2.65 2.09-2.58 2.23-1.92 2.21-1.15 2.19-.47 2.2-.1 2.24-.11 2.3-.41 2.34-.81 2.35-1.16 2.35-1.38 2.33-1.48 2.31-1.48 2.28-1.43 2.25-1.36 2.25-1.29 2.3-1.14 2.42-.96 2.51-.81 2.42-.78 2.07-1.04 1.65" filter="url(#a)"/><path d="m-67.3-24.95-.95 2.1-1.09 2.11-1.91 2.17-3.09 2.28-3.82 2.37-3.61 2.4-2.72 2.4-1.76 2.38-1.09 2.36-.84 2.34-.87 2.34-1.06 2.33-1.35 2.34-1.71 2.35-2.07 2.36-2.35 2.34-2.45 2.32-2.37 2.28-2.09 2.26-1.69 2.24-1.24 2.26-.8 2.29-.43 2.31-.12 2.33.15 2.31.45 2.25.82 2.17 1.27 2.07 1.62 1.99 1.69 1.95 1.4 1.97.79 1.98-.06 1.94-1.07 1.85-1.08 1.59M68.94-21.1l.36-2.41-.72-2.23-.56-2.27.49-2.31 1.97-2.29 3.05-2.23 3.07-2.15 2.04-2.07.45-2-1.07-1.92-2.15-1.87-2.66-1.84-2.69-1.81-2.37-1.8-1.86-1.77-1.25-1.74-.67-1.69-.2-1.64.05-1.59.06-1.53-.16-1.48-.57-1.42-1.1-1.36-1.7-1.31-2.28-1.25-2.79-1.2-3.16-1.13-3.29-1.07-3.19-1.01-2.88-.93-2.58-.86-2.53-.8-2.83-.74-3.27-.7-3.45-.62-4.15-.52" filter="url(#a)"/><path d="m68.56-22.35-.48-2.04-.48-2.15-.28-2.22-.1-2.22.07-2.19.13-2.14.04-2.09-.18-2.07-.43-2.04-.67-2.04-.87-2.04-1.04-2.01-1.17-1.97-1.21-1.9-1.15-1.82-1-1.73-.83-1.65-.69-1.55-.68-1.49-.8-1.41-1.08-1.37-1.48-1.33-1.91-1.3-2.31-1.27-2.58-1.23-2.67-1.18-2.57-1.11-2.36-1.03-2.17-.96-2.07-.86-2.09-.79-2.22-.71-2.49-.66-2.86-.64-3.07-.55-2.27-.28" filter="url(#a)"/><path d="m68.56-22.35 1.37-2.02-.17-2.13.11-2.21.33-2.2.2-2.18.04-2.12.01-2.08-.03-2.05-.28-2.02-.75-2.03-1.31-2.03-1.75-2.01-1.88-1.98-1.65-1.92-1.21-1.83-.79-1.74-.56-1.65-.67-1.56-1.01-1.47-1.43-1.39-1.73-1.34-1.8-1.31-1.69-1.32-1.55-1.32-1.52-1.29-1.63-1.22-2.01-1.11-2.96-.94" filter="url(#a)"/><path d="m68.03-23.88-1.19-1.94-1.72-2.23-1.6-2.34-1.22-2.3-.92-2.24-.82-2.16-.89-2.07-1.06-1.99-1.24-1.91-1.42-1.87-1.58-1.83-1.7-1.81-1.77-1.8-1.83-1.77-1.85-1.73-1.85-1.69-1.86-1.64-1.84-1.59-1.83-1.53-1.8-1.47-1.76-1.42-1.73-1.36-1.72-1.3-1.73-1.24-1.75-1.19-1.81-1.13-1.87-1.06-1.93-1-1.97-.93-1.96-.86-1.95-.79-1.91-.72-1.88-.66-1.84-.58-1.8-.48-1.87-.42-2.69-.59" filter="url(#a)"/><path d="m67.06-25.76-.31-2.22.27-2.44.71-2.34.3-2.23-.5-2.15-1.18-2.06-1.47-1.97-1.34-1.9-.94-1.85-.43-1.82.03-1.8.28-1.8.28-1.77.02-1.73-.4-1.69-.91-1.64-1.36-1.58-1.69-1.53-1.86-1.47-1.91-1.42-1.88-1.36-1.86-1.31-1.94-1.25-2.1-1.19-2.29-1.14-2.44-1.08-2.49-1.01-2.47-.93-2.47-.85-2.55-.78-2.87-.76-3.77-.9" filter="url(#a)"/><path d="m67.15-26.53-.76-2.3-.06-2.31 1.32-2.2 1.94-2.13 1.3-2.08-.04-2.05-1.28-2.03-2.06-2.04-2.36-2.04-2.33-2.02-2.1-1.97-1.73-1.9-1.31-1.81-.91-1.73-.63-1.63-.51-1.55-.61-1.47-.89-1.41-1.3-1.37-1.73-1.32-2.09-1.3-2.32-1.26-2.39-1.22-2.34-1.16-2.23-1.1-2.13-1.02-2.11-.95-2.15-.86-2.25-.78-2.36-.72-2.42-.65-2.5-.6-2.64-.54-2.95-.47-3.65-.45-5.36-.63" filter="url(#a)"/><path d="m67.15-26.53 1.6-2.27-.23-2.28-.56-2.17-.39-2.11-.41-2.05-.58-2.02-.68-2-.61-2-.52-2.03-.55-2.02-.74-1.98-1.04-1.91-1.35-1.83-1.56-1.73-1.6-1.65-1.44-1.55-1.15-1.45-.78-1.37-.52-1.3-.44-1.3-.65-1.32-1.12-1.35-1.86-1.32-2.14-1.28" filter="url(#a)"/><path d="m66.9-27.6.18-2.91.11-2.39.43-2.21.07-2.15-.44-2.06-.8-1.97-1.07-1.9-1.31-1.84-1.5-1.82-1.58-1.8-1.48-1.8-1.25-1.77-.98-1.73-.75-1.69-.63-1.63-.65-1.58-.83-1.52-1.08-1.47-1.38-1.41-1.66-1.36-1.9-1.3-2.05-1.24-2.13-1.18-2.17-1.13-2.17-1.06-2.17-.99-2.2-.92-2.27-.86-2.36-.79-2.45-.72-2.48-.66-2.51-.57-2.64-.48-3.15-.42-5.09-.59" filter="url(#a)"/><path d="m66.33-28.63 1.43-2.62-1.04-2.16-1.33-2.1-.8-2.06-.19-2.02.16-2 .14-2.02-.11-2.03-.36-2.02-.47-1.98-.41-1.91-.28-1.81-.25-1.72-.42-1.63-.8-1.55-1.31-1.45-1.78-1.39-2.12-1.35-2.3-1.31-2.31-1.3-2.23-1.29-2.09-1.25-1.97-1.2-1.89-1.12-1.82-1.06-1.73-1.01-1.77-.95-2.12-.91" filter="url(#a)"/><path d="m65.53-31.04.81-2.08-1.2-2.08-1.41-2.1-1.1-2.06-.6-1.96-.1-1.87.13-1.81.03-1.8-.35-1.79-.82-1.79-1.21-1.77-1.46-1.73-1.6-1.69-1.67-1.63-1.73-1.58-1.8-1.52-1.83-1.47-1.85-1.41-1.89-1.36-1.94-1.3-2.04-1.25-2.12-1.19-2.14-1.14-2.09-1.09-2.02-1.02-1.98-.94-2.12-.85-2.88-.8" filter="url(#a)"/><path d="m64.83-32.96-1.5-2.6-1.29-2.19-1.26-2-1.28-1.97-1.31-1.99-1.37-2.04-1.43-2.04-1.47-1.98-1.5-1.9-1.52-1.81-1.52-1.71-1.52-1.61-1.52-1.53-1.54-1.45-1.56-1.38-1.62-1.33-1.67-1.31-1.75-1.29-1.83-1.29-1.9-1.24-1.98-1.2-2.06-1.12-2.12-1.05-2.13-1-2.09-.95-2.39-.91" filter="url(#a)"/><path d="m64.83-32.96 3.18-2.62-1.39-2.2-1.54-2.02-1.46-1.99-1.54-2.01-1.58-2.05-1.52-2.04-1.4-1.99-1.31-1.9-1.24-1.8-1.18-1.71-1.15-1.62-1.14-1.53-1.16-1.46-1.23-1.39-1.33-1.35-1.49-1.32-1.67-1.29-1.86-1.25-2.04-1.22-2.16-1.16-2.23-1.09-2.25-1.02-2.26-.94-2.26-.85-2.27-.78-2.29-.71-2.3-.65-2.34-.6-2.42-.53-2.57-.47-3.08-.46-4.62-.62" filter="url(#a)"/><path d="m63.77-34.81-1.11-2.6-.76-2.16.12-1.96 1.19-1.81 1.64-1.77 1.21-1.76.29-1.77-.64-1.79-1.21-1.77-1.34-1.73-1.09-1.68-.66-1.62-.3-1.57-.16-1.51-.35-1.46-.79-1.41-1.3-1.35-1.71-1.3-1.93-1.24-2.07-1.19-2.36-1.15-2.94-1.1-3.27-1.05-2.34-.99" filter="url(#a)"/><path d="m62.35-38.07.59-1.73L65-41.7l.72-1.78-1-1.73-1.54-1.76-1.1-1.78-.29-1.8.34-1.77.54-1.74.22-1.67-.48-1.62-1.33-1.56L59-60.42l-2.53-1.46-2.63-1.4-2.46-1.34-2.2-1.29-1.96-1.24-1.88-1.18-1.95-1.13-2.07-1.08-2.17-1-2.17-.93-2.11-.83-1.93-.73-1.32-.58" filter="url(#a)"/><path d="m62.35-38.07 7.47-1.71 6.84-1.89.85-1.77-2.62-1.72-3.28-1.74-2.37-1.77-1.22-1.79-.64-1.77-.83-1.73-1.38-1.68-1.72-1.61L62-58.8l-.67-1.51.2-1.46.6-1.41.25-1.34-.74-1.3-1.83-1.24-2.48-1.19-2.49-1.13-2.11-1.13-1.05-.93" filter="url(#a)"/><path d="M61.9-37.99 73.98-40l-2.91-1.89-4.49-1.99-2.47-2.08.13-2.09 2.03-2.01 2.71-1.9 2.18-1.79.91-1.7-.54-1.6-1.71-1.52-2.4-1.44-2.69-1.39-2.78-1.34-2.89-1.31-3.1-1.29-3.31-1.25-3.42-1.2-3.3-1.15-2.96-1.08-2.49-1-2.04-.93-1.75-.85-1.67-.77-1.81-.71-2.16-.64-2.59-.59-3.04-.53-3.45-.47-3.71-.42-3.76-.34-3.62-.23-3.81-.08-6.48-.07" filter="url(#a)"/><path d="m61.14-40.18-.76-1.77.92-1.92 1.97-2.11 1.79-2.12 1.07-2.03.22-1.9-.73-1.78-1.71-1.68-2.54-1.6-3-1.51-3.01-1.43-2.69-1.38-2.2-1.33-1.7-1.31-1.33-1.28-1.1-1.25-.99-1.21-.99-1.15-1.12-1.09-1.4-1.01-1.79-.92-2.22-.85-2.58-.77-2.76-.71-2.84-.64-2.92-.59-3.09-.53-3.39-.49-3.8-.45-4.07-.46-3.04-.37" filter="url(#a)"/><path d="m55.36-49.33-.22-1.44-.66-1.7.17-1.65.67-1.62.47-1.56-.08-1.49-.41-1.39-.22-1.32.25-1.28.55-1.29.35-1.27-.28-1.26-1.03-1.22-1.55-1.16-1.76-1.08-1.81-1.02-1.97-.93-2.36-.85-2.76-.74-2.65-.65-1.8-.64-1.89-.85" filter="url(#a)"/><path d="m55.36-49.33-1.11-1.44-.89-1.71.14-1.65 1.43-1.62 2.1-1.57 1.67-1.48.48-1.39-.71-1.33-1.33-1.29-1.31-1.28-.96-1.28-.71-1.26-.87-1.21-1.43-1.15-2.08-1.09-2.52-1.01-2.6-.93-2.47-.84-2.41-.75-2.49-.68-2.65-.66-3.01-.7-4.5-.68" filter="url(#a)"/><path d="m54.32-50.19-1.5-2.38-.5-1.67-.63-1.61-1.1-1.58-1.46-1.49-1.63-1.38-1.72-1.32-1.79-1.29-1.82-1.28-1.84-1.28-1.83-1.25-1.83-1.2-1.86-1.14-1.92-1.08-1.97-.99-1.99-.91-1.99-.84-1.97-.75-1.98-.69-2.05-.64-2.2-.59-2.37-.52-2.56-.46-2.94-.45-4.04-.62" filter="url(#a)"/><path d="m53.41-51.52-.14-1.55.61-1.7 1.63-1.63 1.54-1.56.36-1.52-1.07-1.49-2.11-1.44-2.6-1.38-2.58-1.32-2.24-1.25-1.79-1.21-1.49-1.14-1.43-1.08-1.67-1.01-2.07-.95-2.5-.88-2.78-.8-2.9-.74-2.85-.66-2.74-.6-2.67-.52-2.69-.45-2.84-.38-3.06-.3-3.32-.24-3.57-.18-3.75-.1-3.88-.03-3.92.04-3.91.1-3.91.18-4.02.25-4.35.33-4.96.42-5.74.49-6.15.53-3.88.32" filter="url(#a)"/><path d="m51.71-53.73.7-.71-.64-1.51-1.83-1.61-1.97-1.5-1.58-1.38-1.09-1.32-.85-1.29-.9-1.29-1.21-1.28-1.62-1.24-1.97-1.2-2.2-1.12-2.28-1.06-2.26-.97-2.18-.9-2.08-.82-2.01-.74-2-.69-2.05-.62-2.16-.56-2.3-.5-2.44-.44-2.57-.37-2.66-.29-2.74-.23L4-77.51l-2.96-.07-3.15-.01-3.37.07-3.58.14-3.62.2-3.48.27-3.82.54" filter="url(#a)"/><path d="m51.71-53.73 8.58-.69 2.66-1.48-3.02-1.6-4.28-1.5-3.38-1.37-2.16-1.29-1.36-1.27-1.07-1.28-1.11-1.27-1.26-1.26-1.38-1.2-1.44-1.14-1.48-1.07-1.49-.99-1.51-.92-1.47-.83-1.39-.75-1.39-.68-1.61-.64-2.14-.6-2.85-.52-3.31-.39-3.04-.32m30.9 23.06-1.32-.72-3.59-1.51-4.75-1.61-3.93-1.5-2.44-1.39-1.54-1.31-1.39-1.3-1.54-1.29-1.61-1.28-1.48-1.24-1.28-1.19-1.18-1.13-1.25-1.05-1.44-.97-1.7-.89-1.93-.82-2.09-.75-2.16-.68-2.12-.61-2.02-.56-1.86-.5-1.68-.43-1.53-.36-1.41-.29-1.33-.22-1.26-.14-1.21-.07-1.14.01-1.07.07-1.01.15-.91.21-.77.28-.57.33-.37.36-.39.26" filter="url(#a)"/><path d="m52.58-52.85-2.47-1.94-2.05-1.67-1.56-1.52-1.53-1.51-1.72-1.48-1.91-1.43-2.05-1.37-2.08-1.31-2.06-1.26-2-1.2-1.94-1.14-1.92-1.08-1.92-1.02-1.94-.95-1.99-.89-2.03-.81-2.05-.75-2.06-.68-2.04-.61-2.01-.54-1.95-.46-1.9-.39-1.81-.33-1.75-.26-1.73-.21-1.86-.15-2.21-.08-2.8-.03" filter="url(#a)"/><path d="m49.43-56.3 7.18-1.53-2.48-1.47-3.56-1.3-3.04-1.23-2.37-1.25-1.78-1.28-1.35-1.28-1.12-1.26-1.13-1.19-1.31-1.13-1.6-1.05-1.86-.97-2-.9-2-.81-1.91-.75-1.86-.67L25.3-75l-2.2-.56-2.6-.52-2.97-.45-3.21-.4-3.21-.32-3.04-.23-2.98-.14-3.26-.11-2.9-.21" filter="url(#a)"/><path d="m49.43-56.3-1.36-1.53-1.44-1.47-1.36-1.3-1.37-1.23-1.44-1.25-1.54-1.28-1.63-1.28-1.72-1.26-1.79-1.19-1.89-1.13-1.97-1.05-2.04-.97-2.07-.9-2.06-.81-2.05-.75-2.05-.67-2.07-.63-2.14-.56-2.22-.52-2.3-.45-2.36-.4-2.34-.32-2.27-.23-2.23-.14-2.38-.11-2.06-.21" filter="url(#a)"/><path d="m48.09-58.11-1.6-1.38-.86-1.67-.07-1.5-.13-1.36-.67-1.28-1.25-1.24-1.71-1.19-2.04-1.13-2.26-1.07-2.4-1.01-2.46-.93-2.44-.86-2.35-.8-2.27-.73-2.23-.65-2.25-.59-2.34-.51-2.45-.44-2.58-.37-2.7-.31-2.82-.23-2.96-.17-3.13-.1-3.32-.03-3.46.04-3.53.1-3.54.18-3.56.24-3.72.32-4.13.43-4.99.55-6.56.81" filter="url(#a)"/><path d="m48.09-58.11-1.72-1.37-1.39-1.68-.76-1.49-.62-1.36-.8-1.28-1.06-1.24-1.28-1.19-1.43-1.13-1.49-1.07-1.49-1-1.47-.94-1.54-.86-1.73-.8-2.04-.73-2.36-.66-2.61-.59-2.75-.52-2.78-.44-2.8-.38-2.89-.3-3.08-.25-3.37-.17-3.68-.11-3.96-.04-4.12.03-4.19.1-4.21.16-4.3.22-4.71.32-5.95.56" filter="url(#a)"/><path d="m45.75-59.93-1.09-.97-1.17-1.02-1.21-1.2-1.25-1.3-1.4-1.31L37.98-67l-1.87-1.19-1.98-1.12-1.97-1.04-1.9-.97-1.82-.88-1.82-.8-1.87-.74-1.99-.67-2.12-.61-2.23-.56-2.31-.51-2.37-.46-2.4-.39-2.4-.32-2.39-.23-2.43-.13-2.65-.11-2.32-.21" filter="url(#a)"/><path d="m45.75-59.93-1.28-.98-1.41-1.04-1.82-1.22-2.12-1.31-2.21-1.32-2.16-1.26-2.09-1.2-2.07-1.12-2.11-1.03-2.16-.96-2.2-.88-2.19-.8-2.17-.72-2.14-.67-2.11-.6-2.07-.55-2.02-.48-1.96-.43-1.89-.35-1.81-.28-1.75-.21-1.7-.13-1.69-.06-1.7.02-1.7.08-1.7.15-1.66.21-1.58.28-1.47.33-1.27.36-.9.39-.55.48" filter="url(#a)"/><path d="m46.8-58.83-2.63-2.41-1.5-1.55-.61-1.31.2-1.25.47-1.23.08-1.19-.7-1.13-1.51-1.06-2.15-1-2.54-.93-2.7-.87-2.64-.79-2.46-.73-2.29-.65-2.19-.59-2.23-.51-2.37-.44-2.59-.38-2.86-.3-3.16-.24-3.47-.18-3.79-.1-4.06-.04-4.25.03-4.32.1-4.33.16-4.39.22-4.76.33-5.46.55" filter="url(#a)"/><path d="m46.8-58.83-.17-2.41-2.18-1.56-1.99-1.31-1.67-1.26-1.62-1.23-1.73-1.19-1.92-1.13-2.1-1.07-2.22-1-2.26-.93-2.28-.86-2.24-.79-2.21-.72-2.18-.65-2.16-.58-2.16-.5-2.18-.44-2.21-.36-2.26-.3-2.33-.23-2.41-.16-2.49-.09-2.56-.03-2.6.05-2.63.12-2.64.18-2.68.26-2.77.33-2.9.41-3.01.48-3.03.5-2.81.46-2.44.47" filter="url(#a)"/><path d="m46.8-58.83-1.59-2.41-2.12-1.56-1.88-1.31-1.64-1.26-1.64-1.23-1.83-1.19-2.04-1.13-2.19-1.07-2.21-1-2.18-.93-2.1-.86-2.05-.79-2-.72-1.98-.65-1.96-.58-1.96-.5-2-.44-2.07-.36-2.17-.3-2.3-.23-2.41-.16-2.51-.09-2.58-.03-2.6.05-2.59.12-2.56.18-2.56.26-2.59.33-2.7.41-2.82.48-2.89.5-2.74.46-2.55.47" filter="url(#a)"/><path d="m44.23-61.09 2.94-.81-2.46-1.24-3.02-1.37-2.54-1.35-2.09-1.28-1.88-1.2-1.84-1.11-1.86-1.03-1.84-.95-1.81-.87-1.78-.8-1.81-.72-1.91-.65-2.07-.6-2.25-.54-2.4-.47-2.51-.41-2.55-.34-2.56-.26-2.56-.2-2.57-.11-2.61-.05-2.66.03-2.73.09-2.78.17-2.81.22-2.85.3-2.9.36-2.97.43-3.11.5-3.26.59-3.37.66-3.37.7-3.33.71-3.56.77-4.5 1.11" filter="url(#a)"/><path d="m43.06-62.18-.5-.93-.58-1.1-.61-1.22-.74-1.24-1.24-1.19-1.91-1.13-2.41-1.07-2.65-.99-2.66-.92-2.55-.86-2.41-.78-2.28-.71-2.17-.65-2.12-.57-2.09-.5-2.13-.42-2.23-.36-2.35-.28-2.51-.22-2.68-.15-2.82-.08-2.93-.01-3.04.06-3.11.13-3.21.2-3.3.27-3.43.34-3.51.4-3.56.47-3.52.51-3.46.59-3.51.66-3.76.79-4.22.92-4.7.96-4.78.75" filter="url(#a)"/><path d="m43.06-62.18-.85-.93-1.22-1.11-1.29-1.21-1.37-1.24-1.5-1.19-1.7-1.13-1.93-1.07-2.13-.99-2.25-.93-2.27-.85-2.22-.78-2.15-.72-2.08-.64-2.06-.57-2.07-.49-2.12-.43-2.2-.35-2.31-.29-2.46-.21-2.59-.15-2.72-.08-2.82-.01-2.89.06-2.94.14-2.99.2-3.05.27-3.15.34-3.24.41-3.29.47-3.26.53-3.17.59-3.08.68-3.1.79-3.31.9-3.67 1-4.13 1.08-4.94 1.37" filter="url(#a)"/><path d="m43.64-61.6 2.08-1.42 2.2-1.49-1.25-1.39-3.44-1.28-3.83-1.19-3.22-1.1-2.38-1.03-1.69-.95-1.27-.86-1.16-.79-1.33-.72-1.71-.66-2.16-.6-2.61-.54-2.92-.49-3.1-.42-3.14-.36-3.1-.28-3.06-.21-3.07-.13-3.2-.06h-3.41l-3.68.08-3.94.15-4.13.21-4.35.28-4.93.38-6.07.41" filter="url(#a)"/><path d="m43.64-61.6.18-1.41-1.88-1.47-2.08-1.38-1.98-1.27-1.9-1.19-1.91-1.1-1.98-1.03-2.02-.95-2.04-.87-1.99-.79-1.94-.72-1.89-.66-1.9-.61-1.96-.56-2.12-.5-2.3-.45-2.49-.39-2.54-.32-2.46-.22-2.42-.13-2.6-.11-2.26-.21" filter="url(#a)"/><path d="m43.64-61.6-1.67-1.43-1.79-1.5-1.89-1.39-1.97-1.29-1.99-1.2-1.98-1.1-1.96-1.03-1.92-.94-1.91-.87-1.92-.78-1.97-.72-2.03-.65-2.12-.59-2.22-.54-2.28-.47-2.31-.4-2.33-.34-2.31-.26-2.31-.19-2.31-.11-2.34-.04-2.38.03-2.45.1-2.5.16-2.54.24-2.58.29-2.62.37-2.68.43-2.74.51-2.81.59-2.82.66-2.72.7-2.59.76-2.59.84-3.05 1.04-3.75 1.29" filter="url(#a)"/><path d="m39.19-65.04-2.49-1.77-1.92-1.26-2.05-1.1-2.15-1.04-2.13-.99-2.07-.91-2.01-.84-2.01-.77-2.02-.7-2.05-.64-2.06-.56-2.06-.49-2.07-.41-2.06-.35-2.09-.27-2.12-.21-2.16-.14-2.21-.07-2.23-.01-2.24.07-2.23.14-2.21.2-2.2.28-2.21.34-2.23.41-2.23.47-2.22.53-2.16.59-2.14.68-2.18.79-2.28.91-2.41 1-2.5 1.07-2.88 1.37" filter="url(#a)"/><path d="m39.19-65.04-.15-1.77.64-1.26-.85-1.1-2.37-1.04-3.09-.99-3.14-.91-2.89-.84-2.57-.77-2.32-.7-2.14-.64-2.06-.56-2.05-.49-2.09-.41-2.19-.35-2.3-.27-2.44-.21-2.59-.14-2.7-.07-2.79-.01-2.84.07-2.85.14-2.83.2-2.83.28-2.85.34-2.9.41-2.96.47-3.06.53-3.16.59-3.27.68-3.43.79-3.67.91-3.89 1-4.09 1.07-4.97 1.37" filter="url(#a)"/><path d="m35.63-67.3-.02-.97-1.41-.97-1.82-1.02-1.54-.98-1.35-.92-1.47-.83-1.78-.77-2.1-.7-2.34-.63-2.43-.55-2.45-.49-2.42-.41-2.41-.35-2.44-.28-2.53-.21-2.64-.14-2.78-.07-2.88-.01-2.95.06-2.99.14-3.03.2-3.08.27-3.18.34-3.32.41-3.42.46-3.47.51-3.49.56-3.62.65-3.94.79-4.39 1.01-4.74 1.13" filter="url(#a)"/><path d="m35.63-67.3-1.15-.95-1.63-.96-1.92-1.02-1.87-.98-1.74-.91-1.64-.83-1.59-.77-1.6-.7-1.69-.64-1.85-.57-2.05-.5-2.22-.42-2.33-.36-2.38-.29-2.43-.24L5-77.61l-2.73-.1-2.95-.03-3.07.03-3.05.11-2.91.15-2.8.16-2.97.21" filter="url(#a)"/><path d="m34.15-68.51-1.63-.72-2.24-1.06-2.11-1.02-2.04-.92-2.02-.83-2.06-.75-2.06-.7-2.06-.62-2.04-.55-2.03-.48-2.02-.41-2.02-.33-2.06-.27-2.1-.2-2.15-.13-2.2-.06-2.22.01-2.22.08-2.2.14-2.19.22-2.17.29-2.17.35-2.18.42-2.17.49-2.16.54-2.14.62-2.16.71-2.17.79-2.2.86-2.19.93-2.1.93-1.94.92-1.78.93-1.94 1.15-3.14 1.98" filter="url(#a)"/><path d="m33.64-68.68-2.48-1.6-1.02-1.09-1.09-.91-1.51-.81-1.88-.75-2.1-.69-2.22-.62-2.29-.56-2.31-.48-2.31-.4-2.31-.34-2.35-.27-2.47-.21-2.63-.15-2.82-.07-2.97-.01-3.08.06-3.16.13-3.28.2-3.44.26-3.71.34-4.02.41-4.28.47-4.31.49-3.97.49-3.27.5-2.04.59" filter="url(#a)"/><path d="m33.64-68.68-3.07-1.6-2.34-1.1-2.08-.9-2-.82-1.99-.75-1.99-.69-1.99-.62-2-.55-1.99-.48-2-.4-2.02-.34-2.06-.27-2.14-.2-2.24-.13-2.34-.07h-2.42l-2.48.07-2.5.14-2.51.21-2.53.27-2.55.35-2.58.41-2.57.47-2.5.52-2.43.58-2.39.66-2.53.79-2.86.92-3.11.95-2.75.75" filter="url(#a)"/><path d="m32.2-69.95-2.59-.93-2.15-.94-1.78-.85-1.51-.74-1.51-.67-1.7-.62-1.93-.57-2.11-.51-2.21-.46-2.29-.39-2.36-.31-2.45-.24-2.54-.16-2.63-.09-2.75-.02-2.87.05-3.03.13-3.2.18-3.38.26-3.55.32-3.7.39-3.78.46-3.79.53-3.7.6-3.56.67-3.46.75-3.5.82-3.72.89-4.04.96-4.29 1-4.31.99-4.18.96-4.35.98-5.32 1.25-6.62 1.87" filter="url(#a)"/><path d="m28.83-70.85-1.27-.72-1.67-.81-1.83-.79-1.93-.74-2-.68-2.02-.62-2.02-.55-2.04-.47-2.04-.39-2.07-.33-2.11-.25-2.16-.19-2.22-.12-2.27-.06-2.31.02-2.32.09-2.34.16-2.34.23-2.38.29-2.41.37-2.45.43-2.49.49-2.5.57-2.51.63-2.51.72-2.51.79-2.48.86-2.45.91-2.39.95-2.31.98-2.28 1.04-2.31 1.11-2.43 1.22-2.54 1.28-2.59 1.41-2.99 2.03" filter="url(#a)"/><path d="m27.96-71.44-1.75-.95-1.86-.8-1.93-.74-1.79-.68-1.51-.62-1.34-.55-1.4-.47-1.69-.4-2.07-.32-2.44-.27-2.72-.2-2.93-.14-3.09-.07h-3.2l-3.31.06-3.43.13-3.62.2-3.89.27-4.22.35-4.54.41-4.69.46-4.67.5-4.59.48-4.59.5-3.85.59" filter="url(#a)"/><path d="m27.96-71.44-1.86-.95-1.65-.8-1.85-.74-2.08-.68-2.13-.62-2.06-.55-1.95-.47-1.88-.4-1.9-.32-1.98-.27-2.16-.2-2.35-.14-2.54-.07h-2.66l-2.72.06-2.71.13-2.69.2-2.72.27-2.81.35-2.96.41-3.11.46-3.18.5-3.07.48-2.86.5-2.45.59" filter="url(#a)"/><path d="m25.34-72.92-2.31-.7-1.86-.58-1.9-.59-2.04-.57-2.17-.52-2.25-.46-2.25-.38-2.23-.3-2.19-.23-2.17-.15-2.2-.08H-.48l-2.33.06-2.38.13-2.4.2-2.4.26-2.39.33-2.35.39-2.34.47-2.34.54-2.36.61-2.38.68-2.45.75-2.54.82-2.64.89-2.72.96-2.69.99-2.54 1-2.3.99-2.12 1.04-2.21 1.2-2.55 1.39-2.21 1.21" filter="url(#a)"/><path d="m22.36-73.85-1.3-.38-1.75-.56-2.08-.59-2.19-.53-2.21-.45-2.18-.38-2.15-.31-2.13-.24-2.14-.15-2.21-.09-2.31-.01-2.47.05-2.6.12-2.72.18-2.78.25-2.79.3-2.8.37-2.82.43-2.9.51-3.01.6-3.08.66-2.95.69-2.69.7-2.76.76-4.2 1.11" filter="url(#a)"/><path d="m22.36-73.85-1.04-.38-1.57-.57-2.04-.59-2.28-.52-2.32-.46-2.27-.38-2.19-.3-2.15-.23-2.17-.16-2.24-.08-2.36-.01-2.49.06-2.62.12-2.75.19-2.85.25-2.95.31-3.05.38-3.17.45-3.33.52-3.46.6-3.47.66-3.35.71-3.18.78-3.27.87-3.82 1.02-4.62 1.19-5.36 1.24" filter="url(#a)"/><path d="m21.29-74.12.69-.63-1.99-.65-1.88-.55-1.87-.44-2.1-.37-2.32-.3-2.48-.24-2.62-.17-2.76-.11-2.9-.04-2.96.03-2.97.1-2.93.17-2.88.24-2.85.31-2.85.38-2.92.44-3.06.51-3.26.57-3.5.65-3.8.72-4.09.8-4.35.86-4.53.91-4.61.96-4.58 1.01-4.43 1.05-4.21 1.13-4.05 1.23-4.07 1.32-4.4 1.43-4.95 1.55-5.6 1.7-7.2 1.94" filter="url(#a)"/><path d="m21.19-74.1-1.69-.67-2.2-.66-2.38-.54-2.38-.45-2.31-.37-2.22-.3-2.14-.21-2.09-.14-2.11-.07-2.14.01-2.2.07-2.23.14-2.26.21-2.25.27-2.26.34-2.25.41-2.27.48-2.3.55-2.32.62-2.35.69-2.36.76-2.35.83-2.33.9-2.29.94-2.21.99-2.11 1.03-2.01 1.06-1.95 1.12-1.99 1.21-2.06 1.33-2.09 1.39-1.98 1.36-1.73 1.24-1.89 1.38" filter="url(#a)"/><path d="m20.15-74.61-.58-.84-.87-.56-2.39-.42-2.8-.35-2.61-.3-2.37-.24-2.33-.19-2.51-.12-2.75-.05-2.96.02-3.1.09-3.25.15-3.43.22-3.65.29-3.9.36-4.07.41-4.12.48-4.13.52-4.25.57-4.75.67-5.75.79-6.79.91-6.63.95-4.61.74" filter="url(#a)"/><path d="m20.15-74.61-2.59-.85-1.69-.55-1.77-.43-2-.35-2.12-.3-2.16-.24-2.2-.17-2.3-.12-2.39-.04-2.47.03-2.53.09-2.57.17-2.65.23-2.76.3-2.88.37-2.99.43-3.06.49-3.11.55-3.16.62-3.3.71-3.59.79-3.95.88-4.31.92-4.46.93-4.41.91-4.25.92-4.29 1.14-5.93 1.98" filter="url(#a)"/><path d="m19.77-74.65-3.68-.84-2.45-.55-2.16-.43-2.13-.36-2.1-.29-2.02-.22-1.96-.13-1.94-.06-1.93.01-1.92.08-1.9.15-1.83.21-1.74.27-1.67.35-1.6.41-1.56.48-1.51.55-1.48.63-1.4.7-1.3.76-1.14.84-.94.89-.68.95-.43.99-.19 1.03-.02 1.07.07 1.13.07 1.22.03 1.31.01 1.37.1 1.38.34 1.37.46 1.48.01 1.85" filter="url(#a)"/><path d="m19.77-74.65-2.7-.85-2.41-.54-2.28-.43-2.24-.36-2.17-.29-2.15-.22-2.17-.13-2.26-.06-2.41.01-2.56.08-2.72.15-2.85.21-2.98.28-3.09.35-3.19.41-3.34.49-3.53.55-3.77.63-4.03.7-4.22.77-4.27.83-4.14.9-3.86.95-3.52.99-3.3 1.04-3.31 1.08-3.61 1.14-4.15 1.22-4.83 1.3-5.49 1.36-5.98 1.39-6.11 1.4-5.63 1.46-4.35 1.54-1.37 1.43" filter="url(#a)"/><path d="m19.77-74.65.41-.84-3.09-.54-3.28-.43-2.86-.36-2.48-.3-2.29-.22-2.29-.15-2.45-.06h-2.7l-2.95.06-3.16.13-3.29.19-3.34.26-3.37.31-3.38.38-3.43.45-3.53.53-3.68.59-3.9.67-4.21.71-4.6.78-5.18.87-5.94 1.02-6.84 1.18-8.19 1.24" filter="url(#a)"/><path d="m16.29-75.73-1.27-.4-1.83-.37-1.95-.33-1.97-.29-2.01-.23-2.08-.17-2.15-.1-2.22-.03-2.23.04-2.21.11-2.17.19-2.14.25-2.13.33-2.12.39-2.11.45-2.1.53-2.09.59-2.07.66-2.07.74-2.05.8-2.04.87-2.02.93-1.98.98-1.93 1.03-1.9 1.1-1.87 1.17-1.85 1.25-1.84 1.33-1.82 1.4-1.77 1.46-1.71 1.5-1.6 1.5-1.51 1.51-1.45 1.54-1.42 1.6-1.44 1.73-1.81 2.5" filter="url(#a)"/><path d="m16.83-75.74-2.28-.42-2.08-.35-2.21-.35-2.18-.3-2.09-.21-2.09-.14-2.18-.06-2.33.01-2.47.08-2.56.14-2.61.2-2.61.27-2.59.32-2.59.4-2.63.46-2.71.54-2.82.61-2.91.68-2.92.74-2.91.81-2.93.9-3.05.97-3.18 1.02-3.13.99-2.7.87-2.15.78-3.06 1.11" filter="url(#a)"/><path d="m16.83-75.74-2.41-.42-2.11-.35-2.13-.35-2.12-.3-2.08-.21-2.09-.14-2.14-.06-2.21.01-2.29.07-2.33.14-2.35.2-2.35.26-2.37.33-2.38.39-2.41.46-2.45.53-2.46.61-2.44.67-2.38.74-2.33.8-2.36.9-2.47.98-2.6 1.06-2.55 1.02-2.17.78-1.43.24" filter="url(#a)"/><path d="m16.83-75.74-1.74-.42-2.31-.35-2.38-.35-2.26-.3-2.12-.21-2.09-.14-2.17-.06-2.28.01-2.41.07-2.51.14-2.58.2-2.63.26-2.69.33-2.78.39-2.88.46-2.97.53-3.03.61-3.01.67-2.95.74-2.86.8-2.87.9-2.98.98-3.16 1.06-3.19 1.02-2.69.78-1.29.24" filter="url(#a)"/><path d="m15.8-76.14-2.44-.39-1.94-.32-1.93-.3-2-.23-2.11-.18-2.27-.1-2.37-.03-2.41.04-2.42.11-2.41.18-2.45.25-2.48.31-2.54.38-2.54.45-2.53.51-2.5.57-2.49.65-2.52.72-2.61.8-2.7.87-2.76.91-2.75.96-2.66.99-2.57 1.04-2.55 1.12-2.68 1.22-2.94 1.3-3.2 1.4-3.39 1.54-3.09 1.45" filter="url(#a)"/><path d="m15.8-76.14-2.2-.39-1.84-.32-1.97-.3-2.01-.23-2.1-.18-2.23-.1-2.35-.03-2.39.04-2.38.11-2.37.18-2.39.25-2.45.31-2.51.38-2.57.45-2.57.51-2.56.57-2.55.65-2.6.72-2.7.8-2.79.87-2.86.91-2.85.96-2.81.99-2.78 1.04-2.78 1.12-2.86 1.22-2.99 1.3-3.25 1.4-3.4 1.54-2.53 1.45" filter="url(#a)"/><path d="m12.33-76.66-1.14-.21-1.91-.3-1.92-.24-1.99-.18-2.16-.1-2.3-.04-2.36.03-2.36.11-2.34.16-2.34.23-2.38.3-2.44.37-2.51.43-2.55.48-2.54.53-2.52.59-2.52.68-2.64.79-2.91.91-3.23.99-3.38 1.06-3.5 1.35" filter="url(#a)"/><path d="m12.33-76.66-.69-.22-1.71-.3-2-.24-2.23-.17-2.48-.09-2.7-.02-2.8.05-2.78.12-2.71.19-2.7.26-2.79.33-3 .39-3.25.46-3.48.53-3.62.59-3.65.67-3.61.74-3.53.81-3.5.88-3.5.92-3.58.98-3.67 1.04-3.79 1.09-3.92 1.17-4.09 1.25-4.27 1.33-4.44 1.41-4.52 1.46-4.46 1.49-4.28 1.5-4.17 1.51-4.35 1.53-4.93 1.61-5.82 1.72-6.55 2.5" filter="url(#a)"/><path d="m12.52-76.66-1.67-.54-1.83-.26-2.4-.16-2.72-.1-2.81-.02-2.76.05-2.66.11-2.61.19-2.62.25-2.74.32-2.89.39-3.08.44-3.3.51-3.6.57-3.96.65-4.32.72-4.58.8-4.66.87-4.49.92-4.19.94-3.87.98-3.68 1.03-3.64 1.11-3.7 1.21-3.91 1.28-4.57 1.39-5.69 2.02" filter="url(#a)"/><path d="m12.52-76.66-3.11-.54-1.89-.25-1.98-.17-2.32-.1-2.55-.02-2.62.04-2.62.12-2.6.18-2.64.25-2.74.32-2.86.38-2.99.45-3.09.5-3.17.57-3.21.64-3.2.71-3.22.8-3.31.88-3.48.91-3.73.94-4.04.97-4.36 1.01-4.77 1.1-5.31 1.22-5.74 1.15-4.88.76" filter="url(#a)"/><path d="m12.52-76.66-3.24-.53-1.95-.26-1.94-.17-2.23-.1-2.46-.03-2.59.05-2.68.11-2.83.18-3.09.24-3.45.32-3.77.37-3.95.44-3.88.5-3.64.55-3.36.63-3.2.71-3.32.79-3.73.88-4.33.93-4.98.93-5.58.9-6.32.91-7.84 1.14-11.42 1.97" filter="url(#a)"/><path d="m7.51-77.52-.22-.02-1.75-.12-2.3-.09-2.45-.02-2.42.06-2.34.12-2.3.2-2.33.25-2.43.33-2.58.39-2.68.46-2.76.52-2.81.58-2.88.65-3.04.73-3.28.81-3.55.87-3.77.92-3.88.96-3.84 1-3.71 1.05-3.54 1.13-3.47 1.22-3.63 1.32-4.06 1.42-4.46 1.55-4.17 1.69-3.21 1.93" filter="url(#a)"/><path d="m7.55-77.41-2.02-.24-2.34-.12L.6-77.8l-2.64.06-2.57.13-2.48.19-2.41.26-2.38.33-2.38.39-2.35.45-2.33.51-2.32.58-2.36.64-2.48.73-2.65.8-2.82.88-2.9.92-2.9.94-2.87.98-2.92 1.02-3.1 1.11-3.36 1.21-3.43 1.28-3.28 1.38-4.08 2.02" filter="url(#a)"/><path d="m7.55-77.41-2.16-.24-2.34-.12-2.34-.03-2.21.05-2.03.13-1.89.19-1.8.25-1.76.32-1.7.38-1.57.45-1.36.5-1.1.55-.91.63-.86.71-1.01.8-1.23.88-1.34.93-1.2.92-.84.9-.4.91-.2 1.14-1.01 1.96" filter="url(#a)"/><path d="m5.02-77.43-3.35-.19-2.29-.05-2.17.08-2.19.17-2.1.23-1.89.29-1.59.35-1.25.41-.88.48-.56.55-.36.63-.32.69-.45.75-.61.82-.65.9-.35.97.36 1 1.32.98 2.05.93 1.96.96 1.02 1.24 1.69 1.85" filter="url(#a)"/><path d="m5.02-77.43-3.31-.19-2.25-.05-2.1.08-2.03.17-1.79.23-1.4.29-1.05.35-.86.41-.88.48-1.01.55-1.16.63-1.16.69-1.01.75-.69.82-.32.9.05.97.36 1 .49.98.38.93.2.96.73 1.24 3.1 1.85" filter="url(#a)"/></g><g fill="none" stroke="#000"><circle cx="10.248" cy="25.462" r="1.048" filter="url(#a)"/><circle cx="7.684" cy="23.618" r="1.406" filter="url(#a)"/><circle cx="6.764" cy="22.694" r="1.88" filter="url(#a)"/><circle cx="8.08" cy="24.906" r="1.9" filter="url(#a)"/><circle cx="10.516" cy="24.218" r="2.594" filter="url(#a)"/><circle cx="7.892" cy="22.434" r="1.148" filter="url(#a)"/><circle cx="7.912" cy="21.674" r="1.52" filter="url(#a)"/><circle cx="8.228" cy="24.694" r="2.15" filter="url(#a)"/><circle cx="8.568" cy="22.298" r="2.234" filter="url(#a)"/><circle cx="9.664" cy="24.998" r="1.024" filter="url(#a)"/><circle cx="-10.25" cy="30.056" r="1.212" filter="url(#a)"/><circle cx="-8.766" cy="26.516" r="2.462" filter="url(#a)"/><circle cx="-7.658" cy="26.088" r="2.566" filter="url(#a)"/><circle cx="-7.986" cy="29.18" r="2.812" filter="url(#a)"/><circle cx="-10.234" cy="28.892" r="1.34" filter="url(#a)"/><circle cx="-10.186" cy="27.592" r="1.294" filter="url(#a)"/><circle cx="-9.75" cy="28.832" r="1.036" filter="url(#a)"/><circle cx="-6.83" cy="28.672" r="1.434" filter="url(#a)"/><circle cx="-7.698" cy="29.624" r="1.658" filter="url(#a)"/><circle cx="-6.678" cy="28" r="2.478" filter="url(#a)"/></g><path fill="#D77F8C" stroke="#000" stroke-linejoin="round" stroke-width="3" d="m-30.39 24.3.07.83.09.84.11.85.13.86.14.87.17.87.18.89.2.89.22.89.24.9.25.91.28.9.28.91.31.92.32.91.33.91.35.91.36.91.38.91.4.9.4.9.42.89.44.89.44.88.46.88.48.86.48.86.49.85.51.84.52.82.53.81.53.8.55.79.56.77.57.75.57.74.59.72.59.71.6.68.61.67.62.64.63.62.63.61.63.57.65.56.65.53.65.5.66.48.67.45.67.43.67.39.68.37.68.33.68.31.69.27.69.24.69.2.7.18.7.13.69.1.7.07.7.02.7-.01.7-.05.7-.09.7-.13.7-.18.7-.21.69-.26.7-.3.69-.35.69-.4.68-.44.69-.49.68-.53.67-.59.67-.63.67-.69.66-.73.66-.79.65-.85.65-.89.64-.95.64-1.01.62-1.06.63-1.12.61-1.18.61-1.23.59-1.3.59-1.36.59-1.41.57-1.48.56-1.55.55-1.6.55-1.67.53-1.74.53-1.8.51-1.87.5-1.94-.53.18-.54.16-.53.16-.53.15-.54.13-.53.13-.53.13-.54.11-.53.11-.54.09-.53.09-.53.09-.54.07-.53.07-.53.06-.54.05-.53.05-.53.03-.54.03-.53.03-.53.02-.54.01h-1.06l-.54-.01-.53-.01-.53-.03-.54-.02-.53-.04-.54-.04-.53-.04-.53-.05-.54-.06-.53-.06-.53-.06-.54-.08-.53-.07-.53-.08-.54-.09-.53-.09-.53-.1-.54-.1-.53-.11-.53-.1-.54-.12-.53-.12-.53-.12-.54-.12-.53-.13-.54-.14-.53-.13-.53-.15-.54-.14-.53-.15-.53-.15-.54-.15-.53-.16-.53-.16-.54-.16-.53-.16-.53-.17-.54-.17-.53-.17-.53-.18-.54-.17-.53-.18-.53-.18-.54-.19-.53-.18-.54-.19-.53-.18-.53-.19-.54-.19-.53-.19-.53-.19-.54-.2-.53-.19-.53-.2-.54-.19-.53-.2-.53-.19-.54-.2-.53-.2-.53-.19-.54-.2-.53-.2-.53-.19-.54-.2-.53-.2-.54-.19-.53-.2-.53-.19-.54-.2-.53-.19-.53-.19-.54-.19-.53-.19-.53-.19-.54-.18" filter="url(#a)"/></svg>