<svg xmlns="http://www.w3.org/2000/svg" width="500" height="500" viewBox="-100 -100 200 200"><defs><clipPath id="c"><path d="m29.08 4.03-.17-.2-.21-.22-.25-.23-.29-.24-.32-.26-.36-.26-.39-.27-.42-.28-.46-.29-.49-.3-.52-.3-.54-.31-.58-.32-.6-.32-.63-.32-.65-.35-.68-.36-.73-.38-.76-.37-.8-.39-.83-.38-.86-.39-.89-.39-.91-.39-.94-.38-.96-.38-.97-.37-1-.36-1-.36-1.02-.33L8.82-6l-1.04-.31-1.04-.29-1.05-.27-1.04-.26-1.05-.23-1.04-.21-1.03-.19L.5-7.93l-1.01-.15-1.01-.11-.99-.1-.98-.07-.96-.05-.94-.02h-.93l-.91.03-.88.05-.87.08-.84.1-.82.12-.8.14-.77.17-.75.18-.73.2-.7.22-.67.23-.66.25-.63.27-.6.27-.59.29-.56.29-.54.3-.52.31-.5.31-.49.31-.46.32-.45.33-.43.34-.41.33-.4.35-.38.34-.36.35-.35.35-.33.35-.32.35-.3.35-.29.35-.28.35 5.25 2.27.33.35.34.35.35.33.37.33.37.31.39.3.4.29.41.28.41.26.43.26.44.24.45.23.45.22.46.21.48.2.49.19.49.17.51.17.52.15.53.15.54.13.55.12.55.11.57.1.57.08.58.08.59.06.6.05.6.04.61.03.62.02.63.01h.63l.63-.01.65-.01.65-.03.65-.03.66-.04.67-.04.68-.06.68-.05.69-.06.69-.07.7-.06.71-.07.71-.07.72-.07.73-.07.74-.08.74-.07.75-.06.76-.07.76-.06.77-.06.78-.06.78-.05.79-.04.79-.04.8-.04.8-.02.81-.03.81-.01.81-.01.81-.01.64-.04.63-.04.62-.04.62-.04.61-.03.59-.04.59-.04.57-.04.56-.03.54-.04.52-.05.5-.04.48-.04.46-.05.43-.05"/></clipPath><clipPath id="b"><path d="m-28.91 4.1.19-.26.21-.28.26-.28.28-.3.32-.31.35-.32.38-.33.42-.33.44-.35.46-.35.5-.35.52-.36.55-.37.57-.36.6-.37.61-.42.65-.43.68-.43.72-.44.75-.43.78-.44.81-.44.84-.43.87-.43.89-.42.91-.41.93-.4.95-.39.97-.37.98-.36.99-.34 1-.32 1.01-.3 1.01-.27 1.01-.26 1.02-.23 1.02-.2 1.01-.18 1.01-.16 1-.12 1-.1.98-.07.98-.05.96-.02.95.01.93.04.92.06.9.09.88.11.86.14.84.17.82.18.8.21.78.23.76.25.74.26.71.28.69.3.67.31.65.32.63.34.6.34.59.35.57.35.54.36.53.36.51.37.5.37.48.38.46.38.44.39.43.39.41.39.4.4.38.39.37.39.35.39.33.4.33.38-7.87 2.38-.36.43-.37.42-.38.4-.38.39-.4.38-.4.37-.41.35-.42.33-.42.33-.43.3-.43.3-.44.28-.44.26-.44.25-.44.24-.46.23-.45.21-.47.2-.46.18-.47.18-.47.15-.47.15-.46.12-.47.12-.46.09-.45.09-.46.07-.45.05-.45.04-.44.03-.44.02h-.43L3 9.73l-.43-.03-.42-.03-.43-.04-.43-.06-.42-.06-.43-.07L0 9.36l-.43-.08-.44-.09-.45-.09-.46-.1-.47-.1-.48-.11-.5-.1-.51-.1-.53-.11-.54-.1-.57-.09-.59-.1-.61-.09-.64-.08-.66-.08-.69-.07-.72-.07-.75-.05-.77-.05-.81-.04-.83-.03-.86-.02-.89-.01h-.92l-.64-.04-.64-.05-.65-.04-.66-.04-.66-.04-.66-.03-.66-.04-.66-.03-.65-.03-.65-.02-.64-.03-.64-.03-.62-.03-.6-.03-.59-.03"/></clipPath><filter id="a"><feTurbulence baseFrequency=".05" numOctaves="3" result="noise" type="noise"/><feDisplacementMap in="SourceGraphic" in2="noise" scale="2"/></filter></defs><rect width="100%" height="100%" x="-100" y="-100" fill="#C3B091"/><path fill="#CD5C5C" stroke="#000" stroke-linejoin="round" stroke-width="1.667" d="m68.75 1.61.01-.46.03 1.23-.06 3.2-.15.26.16-.68-.29 4.2.15-.48-.24 1.93-.27 1.48-.21 1.74-.36 2.18.32-1.12-.2 1.83-.15.62-.88 3.86.18.69-.32.81-.59 1.81.3-.1-.72 1.87-.22.63-.59 2.85.11.03-.56.98-.35 1.9-1.08 1.92-.74 2.29.59-1.01-.97 1.99-.67 1.78-.39 1.29.19-.71.04.78-2.08 4.08.21-.77-.66.82-.51 1.54-.67 1.34-.23.4-.95 1.67-1.02 1.99-.42.76-1.54 2.53-.16-.22-.47.8-.7 1.04-.19.05-1.58 2.12-.05-.09-.51.93-1.46 2.33-.58.68-1.19 1.25-.04-.11-1.37 1.83-.09-.53-2.25 2.77-1 .86.5-.6-.36.39-1.52 1.42-2.49 1.93.46-.16-2.12 1.73 1.73-1.58-1.92 1.3-2.14 1.88.2-.01-1.21.87-1.32 1.06-.95.29-1.22.87-1.54.61 1.06-.51-2.46 1.4-.4-.21-1.59 1.03-.23.45-1.75.53.04-.24-2.22.95-1.75.55-.94.73.54-.61-1.49.6-2.89.99 1.84-.8-1.47.72-1.46.51-.03-.05-2.73.28-.11-.11-2.27.45-2.05.48.62-.36-.74.29-.18-.07-2.52-.07-.72.17-2.24-.1 1.16.08-2.92.28-.25-.24-.74-.27-3.89-.08.21-.05-.42-.03-1.93-.19-1.25-.37-1.03-.18-.62-.38-.1.2-1.87-.63-.91.09.1-.37-.55.09-3.68-1.49 1.43 1.03-3.21-1.63-.24.21-1.07-.67-1.88-1-.36-.18-.75-.04-1.55-.83-2.3-1.42.88.3-.58-.45-1.47-.49-1.16-.89.22.27-1.23-.61-.43-.78-1-.49-2.19-1.69.7.39-2.24-1.31-.41-.59-1.77-1.88-.78-.38-.86-1-1.22-.87-.21-.4-1.89-1.98.79.88-2.22-2.29-.54-.57.57.13-1.05-.83-.52-1.16-.59-.3-1.02-1.12-.83-.93-1.68-2.4-.99-1.38.18-.22-1.8-2.5.97 1.38-1.55-2.39-.48-.85-.97-1.76-.85-1.91.47.99-1.13-1.62-.02-.28-1.22-3.02.13.51-.06-.14-1.43-3.71-.41-.74-1.14-2.23-.04-.77.27.69-1.22-3.74-.65-1.11-.27-1.46v.01l-.95-2.49-.58-1.96.44.87-.3-1.26-.83-2.87-.03-1.05-.24-.43.13.01-.6-3.09.14.22-.25-.81-.48-3.15.22.99-.3-2.19-.41-1.2.02-1.55-.31-2.15.06-.45-.21-1.1.09-2.92-.06-1.12.07-1.62-.03-1.84-.27-1.04.12 1.4.07-1.83.36-4.8-.25 1.3-.13-.89.26-2.17.13-.7.25-4.02v.7l.58-2.59.37-2.82-.25 1.91.45-3.8.02-.49.59-1.5-.11.47.71-3.63h-.07l.86-2.99-.43 1.65 1.38-4.54-.43 1.43.36-2.41.09-.41 1.14-1.97.85-3.32-.48 1.34.55-1.53.53-.88.41-.97 1.21-2.39-.46.2.77-.99.8-2.14.06.01 1.14-2.6.77-1.35.24-.46-.04-.13 1.58-2.26 1.57-2.25-.78.89.92-1.36.79-1.1.5-.84.11-.14 2.36-3.29.37-.43-.1-.16 1.94-1.87.43-1.06 1.17-1.34.53-.6.81-.6.29-.29.87-1.12 1.43-1.39.6-.68.75-.56 1.53-1.27-.26.07 1.21-1.17.47-.18 1.7-1.37.7-.13.41-.39 2.19-1.44.66-.31.06-.28 1.62-1.09-.51-.09 2.12-.84 1.56-1.11.03.16.62-.19 1.49-1.04.11.28 3.13-1.42-.26.11 1.49-.95 1.42-.42.74-.02.13-.34 2.08-.76 2.79-.35-1.3.05 1.5-.53 2.02-.26.92.03.31-.14 1.66-.3-.45.22 1.69-.43.56-.17 1.5.11 2.3-.41-.43-.1 1.83.33 2.69-.35.09-.04 2.02.07 1.02.21-.23.28.33-.19 2.9.14.67.5-.25-.2 1.71.02.64.38 2.42.52-.45-.05.17.1 2.71.31.05.44 1 .37 1.42.13 3.22.99-.67.16 1.72.4.28.26 1.37.57.57.31-.4-.08 2.33 1.23 1.89.6.48.34-.63.02 2.94 1.37 1.46.94-.28.15 2.12 1.31.54.18.18.47-.37-.26 1.27.84.72.4 1.72 1.94.64.23.88.97 1.27.56 1.23 1.74.89.41 1.11 1.11-.05-.14 1.17 1.49.55.71.58.56.6.9 1.71 2.03-.07-.21 1.65 2.16-.13.18 1.64 1.85 1.11 1.69.08.3.43 1.17.63.65.44.96L56-50.58l1.25 2.48-.28-.51.72 1.21.48 1.02.95 1.85-.06.01 1.23 2.36.18.77-.5-.84 1.28 2.63.55 1.23.61 1.33-.06.2.77 1.88.58 2.54.42.34.31 1.6.75 2.21.4 1.69-.25-.17.15-.16.73 3.52.06.91.22.99.37 1.38.31 2.16.36.33-.02-.12.26 2.36.08.68.56 4.16-.41-1.61.68 4.69-.47-2.87.49 3.7-.09-.35-.02 1.54.15 1.29-.01 2.54.02 3.22.01-.46" filter="url(#a)"/><path fill="#fff" d="m-28.91 4.1.19-.26.21-.28.26-.28.28-.3.32-.31.35-.32.38-.33.42-.33.44-.35.46-.35.5-.35.52-.36.55-.37.57-.36.6-.37.61-.42.65-.43.68-.43.72-.44.75-.43.78-.44.81-.44.84-.43.87-.43.89-.42.91-.41.93-.4.95-.39.97-.37.98-.36.99-.34 1-.32 1.01-.3 1.01-.27 1.01-.26 1.02-.23 1.02-.2 1.01-.18 1.01-.16 1-.12 1-.1.98-.07.98-.05.96-.02.95.01.93.04.92.06.9.09.88.11.86.14.84.17.82.18.8.21.78.23.76.25.74.26.71.28.69.3.67.31.65.32.63.34.6.34.59.35.57.35.54.36.53.36.51.37.5.37.48.38.46.38.44.39.43.39.41.39.4.4.38.39.37.39.35.39.33.4.33.38-7.87 2.38-.36.43-.37.42-.38.4-.38.39-.4.38-.4.37-.41.35-.42.33-.42.33-.43.3-.43.3-.44.28-.44.26-.44.25-.44.24-.46.23-.45.21-.47.2-.46.18-.47.18-.47.15-.47.15-.46.12-.47.12-.46.09-.45.09-.46.07-.45.05-.45.04-.44.03-.44.02h-.43L3 9.73l-.43-.03-.42-.03-.43-.04-.43-.06-.42-.06-.43-.07L0 9.36l-.43-.08-.44-.09-.45-.09-.46-.1-.47-.1-.48-.11-.5-.1-.51-.1-.53-.11-.54-.1-.57-.09-.59-.1-.61-.09-.64-.08-.66-.08-.69-.07-.72-.07-.75-.05-.77-.05-.81-.04-.83-.03-.86-.02-.89-.01h-.92l-.64-.04-.64-.05-.65-.04-.66-.04-.66-.04-.66-.03-.66-.04-.66-.03-.65-.03-.65-.02-.64-.03-.64-.03-.62-.03-.6-.03-.59-.03" filter="url(#a)" transform="translate(30.84 -24.94)"/><path fill="#fff" d="m29.08 4.03-.17-.2-.21-.22-.25-.23-.29-.24-.32-.26-.36-.26-.39-.27-.42-.28-.46-.29-.49-.3-.52-.3-.54-.31-.58-.32-.6-.32-.63-.32-.65-.35-.68-.36-.73-.38-.76-.37-.8-.39-.83-.38-.86-.39-.89-.39-.91-.39-.94-.38-.96-.38-.97-.37-1-.36-1-.36-1.02-.33L8.82-6l-1.04-.31-1.04-.29-1.05-.27-1.04-.26-1.05-.23-1.04-.21-1.03-.19L.5-7.93l-1.01-.15-1.01-.11-.99-.1-.98-.07-.96-.05-.94-.02h-.93l-.91.03-.88.05-.87.08-.84.1-.82.12-.8.14-.77.17-.75.18-.73.2-.7.22-.67.23-.66.25-.63.27-.6.27-.59.29-.56.29-.54.3-.52.31-.5.31-.49.31-.46.32-.45.33-.43.34-.41.33-.4.35-.38.34-.36.35-.35.35-.33.35-.32.35-.3.35-.29.35-.28.35 5.25 2.27.33.35.34.35.35.33.37.33.37.31.39.3.4.29.41.28.41.26.43.26.44.24.45.23.45.22.46.21.48.2.49.19.49.17.51.17.52.15.53.15.54.13.55.12.55.11.57.1.57.08.58.08.59.06.6.05.6.04.61.03.62.02.63.01h.63l.63-.01.65-.01.65-.03.65-.03.66-.04.67-.04.68-.06.68-.05.69-.06.69-.07.7-.06.71-.07.71-.07.72-.07.73-.07.74-.08.74-.07.75-.06.76-.07.76-.06.77-.06.78-.06.78-.05.79-.04.79-.04.8-.04.8-.02.81-.03.81-.01.81-.01.81-.01.64-.04.63-.04.62-.04.62-.04.61-.03.59-.04.59-.04.57-.04.56-.03.54-.04.52-.05.5-.04.48-.04.46-.05.43-.05" filter="url(#a)" transform="translate(-45.93 -26.38)"/><g fill="none" stroke="#000" transform="translate(30.84 -24.94)"><path stroke-linejoin="round" stroke-width="1.667" d="m-28.7 5.83-.2-.09-.16-.11-.11-.13-.08-.15-.04-.17V5l.04-.21.08-.21.11-.24.15-.24.19-.26.21-.28.26-.28.28-.3.32-.31.35-.32.38-.33.42-.33.44-.35.46-.35.5-.35.52-.36.55-.37.57-.36.6-.37.61-.42.65-.43.68-.43.72-.44.75-.43.78-.44.81-.44.84-.43.87-.43.89-.42.91-.41.93-.4.95-.39.97-.37.98-.36.99-.34 1-.32 1.01-.3 1.01-.27 1.01-.26 1.02-.23 1.02-.2 1.01-.18 1.01-.16 1-.12 1-.1.98-.07.98-.05.96-.02.95.01.93.04.92.06.9.09.88.11.86.14.84.17.82.18.8.21.78.23.76.25.74.26.71.28.69.3.67.31.65.32.63.34.6.34.59.35.57.35.54.36.53.36.51.37.5.37.48.38.46.38.44.39.43.39.41.39.4.4.38.39.37.39.35.39.33.4.33.38.3.39.3.38.28.38.27.37.26.37.24.37.24.36.22.35.21.35.2.35" filter="url(#a)"/><path stroke-linejoin="round" stroke-width="2.222" d="m-28.81 6.53.2.09.25.08.31.07.36.06.41.06.44.05.48.04.51.04.55.04.56.03.59.03.6.03.62.03.64.03.64.03.65.02.65.03.66.03.66.04.66.03.66.04.66.04.65.04.64.05.64.04h.92l.89.01.86.02.83.03.81.04.77.05.75.05.72.07.69.07.66.08.64.08.61.09.59.1.57.09.54.1.53.11.51.1.5.1.48.11.47.1.46.1.45.09.44.09.43.08.44.08.43.07.42.06.43.06.43.04.42.03.43.03.44.01h.43l.44-.02.44-.03.45-.04.45-.05.46-.07.45-.09.46-.09.47-.12.46-.12.47-.15.47-.15.47-.18.46-.18.47-.2.45-.21.46-.23.44-.24.44-.25.44-.26.44-.28.43-.3.43-.3.42-.33.42-.33.41-.35.4-.37.4-.38.38-.39.38-.4.37-.42.36-.43.35-.44.33-.45.33-.47.31-.48.3-.48.29-.5.28-.51.27-.53.25-.53.24-.54" filter="url(#a)"/><circle cx="-5.414" cy="6.685" r="4.764" clip-path="url(#b)" filter="url(#a)"/><circle cx="-5.129" cy="7.895" r="4.928" clip-path="url(#b)" filter="url(#a)"/><circle cx="-7.349" cy="5.85" r="3.212" clip-path="url(#b)" filter="url(#a)"/><circle cx="-5.434" cy="4.17" r="4.45" clip-path="url(#b)" filter="url(#a)"/><circle cx="-5.269" cy="6.855" r="3.77" clip-path="url(#b)" filter="url(#a)"/><circle cx="-6.384" cy="4.925" r="4.54" clip-path="url(#b)" filter="url(#a)"/><circle cx="-4.799" cy="5.86" r="3.756" clip-path="url(#b)" filter="url(#a)"/><circle cx="-8.569" cy="5.915" r="3.85" clip-path="url(#b)" filter="url(#a)"/><circle cx="-7.524" cy="5.82" r="4.806" clip-path="url(#b)" filter="url(#a)"/><circle cx="-6.489" cy="4.07" r="3.056" clip-path="url(#b)" filter="url(#a)"/></g><g fill="none" stroke="#000" transform="translate(-45.93 -26.38)"><path stroke-linejoin="round" stroke-width="2.222" d="m28.42 5.29.28-.06.22-.07.18-.08.13-.11.08-.12.04-.13v-.15l-.05-.17-.09-.18-.13-.19-.17-.2-.21-.22-.25-.23-.29-.24-.32-.26-.36-.26-.39-.27-.42-.28-.46-.29-.49-.3-.52-.3-.54-.31-.58-.32-.6-.32-.63-.32-.65-.35-.68-.36-.73-.38-.76-.37-.8-.39-.83-.38-.86-.39-.89-.39-.91-.39-.94-.38-.96-.38-.97-.37-1-.36-1-.36-1.02-.33L8.82-6l-1.04-.31-1.04-.29-1.05-.27-1.04-.26-1.05-.23-1.04-.21-1.03-.19L.5-7.93l-1.01-.15-1.01-.11-.99-.1-.98-.07-.96-.05-.94-.02h-.93l-.91.03-.88.05-.87.08-.84.1-.82.12-.8.14-.77.17-.75.18-.73.2-.7.22-.67.23-.66.25-.63.27-.6.27-.59.29-.56.29-.54.3-.52.31-.5.31-.49.31-.46.32-.45.33-.43.34-.41.33-.4.35-.38.34-.36.35-.35.35-.33.35-.32.35-.3.35-.29.35-.28.35-.26.34-.25.35-.23.34-.23.34-.21.33-.2.33-.19.32-.18.32-.17.32-.16.31" filter="url(#a)"/><path stroke-linejoin="round" stroke-width="2.222" d="m30.04 5.32-.03.12-.09.12-.14.1-.18.1-.23.08-.27.08-.3.07-.34.07-.37.06-.41.06-.43.05-.46.05-.48.04-.5.04-.52.05-.54.04-.56.03-.57.04-.59.04-.59.04-.61.03-.62.04-.62.04-.63.04-.64.04-.81.01-.81.01-.81.01-.81.03-.8.02-.8.04-.79.04-.79.04-.78.05-.78.06-.77.06-.76.06-.76.07-.75.06-.74.07-.74.08-.73.07-.72.07-.71.07-.71.07-.7.06-.69.07-.69.06-.68.05-.68.06-.67.04-.66.04-.65.03-.65.03-.65.01-.63.01h-.63l-.63-.01-.62-.02-.61-.03-.6-.04-.6-.05-.59-.06-.58-.08-.57-.08-.57-.1-.55-.11-.55-.12-.54-.13-.53-.15-.52-.15-.51-.17-.49-.17-.49-.19-.48-.2-.46-.21-.45-.22-.45-.23-.44-.24-.43-.26-.41-.26-.41-.28-.4-.29-.39-.3-.37-.31-.37-.33-.35-.33-.34-.35-.33-.35-.32-.37-.31-.37-.3-.39-.28-.4-.28-.4-.26-.42-.25-.42-.24-.43-.22-.45-.22-.45" filter="url(#a)"/><circle cx="3.747" cy="5.661" r="3.414" clip-path="url(#c)" filter="url(#a)"/><circle cx="5.247" cy="5.291" r="3.996" clip-path="url(#c)" filter="url(#a)"/><circle cx="5.632" cy="4.006" r="4.484" clip-path="url(#c)" filter="url(#a)"/><circle cx="7.747" cy="2.556" r="3.714" clip-path="url(#c)" filter="url(#a)"/><circle cx="7.312" cy="1.826" r="3.91" clip-path="url(#c)" filter="url(#a)"/><circle cx="7.707" cy="3.741" r="3.642" clip-path="url(#c)" filter="url(#a)"/><circle cx="5.717" cy="4.036" r="3.966" clip-path="url(#c)" filter="url(#a)"/><circle cx="4.542" cy="3.791" r="4.734" clip-path="url(#c)" filter="url(#a)"/><circle cx="4.917" cy="1.881" r="3.354" clip-path="url(#c)" filter="url(#a)"/><circle cx="3.982" cy="4.711" r="3.62" clip-path="url(#c)" filter="url(#a)"/></g><g fill="none" stroke="#FFDAB9" stroke-linejoin="round" stroke-width="2"><path d="m20.39-82.4 1.3.41 1.07.5 1.05.58 1.13.67 1.26.75 1.36.81 1.41.85 1.42.87 1.38.88 1.32.85 1.23.81 1.08.73.88.59.64.44.39.26.18.11-.03-.05-.21-.19-.41-.35-.63-.5-.75-.56" filter="url(#a)"/><path d="m-9.73-85.44 1.21-.1 1.23.06 1.62.14 2.01.24 2.31.31 2.51.39 2.66.45 2.76.51 2.79.56 2.79.59 2.73.65 2.67.71 2.6.75 2.54.75 2.42.7 2.23.6 1.99.48" filter="url(#a)"/><path d="m23.76-81.17.52.35.98.64 1.38.89 1.54 1.03 1.58 1.13 1.62 1.23 1.65 1.3 1.65 1.33 1.6 1.31 1.5 1.27 1.39 1.18 1.27 1.1 1.16 1 1.08.9.99.82.89.69.73.55.52.34.27.09.03-.12" filter="url(#a)"/><path d="m24.33-80.86.43.29 1.1.54 1 .5.74.42.53.37.34.33.12.25-.19.12-.56-.05-.97-.24-1.39-.43-1.8-.58-2.16-.72-2.54-.85-2.99-.99-3.52-1.18-3.9-1.44m38 20.75.84 1.12.94 1.19.92 1.18.89 1.19.86 1.2.81 1.16.7 1.05.59.9.47.74.36.59.26.42.12.21-.06-.04-.28-.35-.51-.68-.76-1-1.01-1.35-1.25-1.69-1.49-2.05-1.67-2.36M56-50.58l.66 1.44.14.65-.09.47-.31.38-.57.23-.88.03-1.23-.23-1.6-.47-1.97-.7-2.34-.94-2.72-1.15-3.12-1.4-3.53-1.65-3.94-1.94-4.37-2.24-4.8-2.59-5.28-2.95-5.81-3.35-6.42-3.78-6.99-4.2-7.29-4.6" filter="url(#a)"/><path d="m-4.77-86.01 1.58-.23 1.38.02 1.65.13 1.8.21 1.83.29 1.77.35 1.72.41 1.7.44 1.7.45 1.7.46 1.71.47 1.69.47 1.67.48 1.63.48 1.57.49 1.47.46 1.33.4 1.15.33.93.23.72.13.52.04.37.01.11-.03m31.24 33.14.4 1.2-.28.72-.89.42-1.51.11-2.11-.14-2.7-.33-3.33-.54-4-.77-4.68-1.04-5.41-1.31-6.16-1.62-6.94-1.93-7.77-2.3-8.62-2.69-9.49-3.12-10.38-3.57-11.26-3.94" filter="url(#a)"/><path d="m56.97-48.61.36 1.06-.24.95-.86.79-1.51.6-2.17.4-2.83.23-3.5.08-4.15-.02-4.84-.11-5.56-.21-6.3-.31-7.08-.42-7.87-.54-8.68-.68-9.5-.85-10.31-1.06-11.13-1.33-12.01-1.58m28.03-32.98-.26-.12.84-.24 1.11-.21 1.07-.17.94-.14.85-.13.78-.12.75-.1.72-.09.67-.07.56-.03h.43l.22.06-.02.11-.31.18-.66.24-1.02.31-1.38.37-1.72.44-2.03.49-2.36.57-2.78.68-3.34.83M28-78.75l1.9 1.11.48.84-.53.71-1.4.63-2.27.58-3.12.55-3.92.59-4.68.68-5.46.8-6.31.93-7.28 1.01-8.34 1.09-9.45 1.16-10.52 1.18m78.34 1.85.15.62-.54.69-1.27.76-2.11.78-3.01.73-3.97.68-4.96.61-5.99.54-7.11.45-8.27.37-9.48.27-10.65.18-11.81.13-13.14.3" filter="url(#a)"/><path d="m28.63-78.77.43.41 1.19.73 1.1.7.85.57.57.41.29.26.03.11h-.16l-.33-.07-.49-.15-.73-.26-1.07-.43-1.51-.66-2.02-.92-2.55-1.2-3.03-1.51-3.64-1.84M53.59-53.7l.37.73.02.92-.44.94-1.04.78-1.66.58-2.29.43-2.89.32-3.5.21-4.12.08-4.77-.04-5.44-.16-6.13-.26-6.81-.33-7.51-.4-8.23-.46-8.99-.54-9.76-.61-10.49-.77-11.18-1.05m19.7-28.53.48-.14 1.34-.24 1.75-.13 2.05-.01 2.33.08 2.59.16 2.78.25 2.94.34 3.05.43 3.16.51 3.22.58 3.26.62 3.26.65 3.25.64 3.23.63 3.22.59 3.17.56 3.07.5 2.89.44 2.68.41" filter="url(#a)"/><path d="m8.17-85.77 1.48.21 1.44.46 1.42.57 1.45.66 1.58.75 1.74.85 1.88.94 2 1 2.06 1.04 2.04 1.05 1.96 1.04 1.86 1.01 1.73.96 1.62.92 1.53.88 1.46.83 1.36.78 1.23.69.99.55.66.33.29.07" filter="url(#a)"/><path d="m-34.65-74.49 1.84-.99 1.8-.62 2.13-.53 2.6-.52 3.11-.54 3.54-.54 3.88-.51 4.15-.47 4.35-.45 4.53-.44 4.73-.45 4.91-.44 5.03-.39 5.02-.35m25.35 13.82.87.57.78.71.74.79.74.86.75.91.76.91.73.9.69.85.6.76.5.65.36.5.2.32.01.12-.18-.13-.39-.37-.6-.64-.83-.9-1.09-1.19-1.44-1.57-1.84-2.02-2.24-2.47" filter="url(#a)"/><path d="m48.88-60.84.33.41.54.84.48.88.31.78.09.6-.17.42-.41.23-.62.07-.85-.09-1.09-.25-1.37-.45-1.68-.67-1.99-.91-2.33-1.15-2.68-1.39-3.03-1.65-3.43-1.91-3.88-2.19-4.35-2.45-4.82-2.71-5.26-2.96-5.7-3.24L.7-82.18m-10.74-3.12.58-.15.65-.11.62-.08.62-.05.61-.01.54.04.41.11.25.19.02.28-.26.38-.57.49-.94.6-1.34.72-1.73.84-2.13.95-2.54 1.07-2.96 1.19-3.4 1.32-3.84 1.45-4.25 1.59-4.56 1.67m49.68-11.24 1.17.33 1.38.37 1.18.38.87.34.56.27.29.22.08.17-.13.14-.33.1-.57.06-.89.01-1.25-.05-1.67-.12-2.11-.2-2.56-.28-3.06-.38-3.59-.51-4.08-.64-4.44-.81m-24.78 6.11 1.02-.67.64-.32.6-.27.62-.24.55-.18.38-.08.11.07-.23.27-.61.5-1 .75-1.4 1-1.82 1.29-2.35 1.59-2.98 1.97-3.69 2.4" filter="url(#a)"/><path d="m36.58-73.35 1.26 1.31.84.79.65.64.49.55.25.44-.03.29-.36.1-.7-.08-1.03-.24-1.36-.4-1.7-.56-2.05-.74-2.43-.94-2.84-1.18-3.25-1.43-3.71-1.71-4.24-2-4.87-2.31-5.66-2.59" filter="url(#a)"/><path d="m12.66-84.8 1.71.36.86.43.66.5.48.58.19.66-.19.71-.6.77-.99.84-1.36.93-1.7 1.04-2.03 1.18-2.39 1.31-2.75 1.46-3.16 1.61-3.59 1.75-4.03 1.89-4.48 2-4.96 2.1-5.45 2.16-5.97 2.24-6.55 2.4-7.19 2.67-7.77 2.99" filter="url(#a)"/><path d="m47.17-62.87.99 1.32.3.88-.11.81-.5.75-.93.67-1.42.52-1.94.35-2.44.2-2.94.07-3.45-.04-3.98-.16-4.55-.3-5.16-.46-5.76-.65-6.37-.8-6.97-.97-7.59-1.12-8.25-1.28-8.96-1.43-9.71-1.54" filter="url(#a)"/><path d="m58.17-46.38.64 1.28.41.93.28.74.15.55.05.4-.06.27-.17.12-.35-.07-.54-.32-.76-.59-1.01-.9-1.26-1.26-1.52-1.66-1.8-2.09-2.06-2.55-2.29-3-2.51-3.41-2.77-3.83-3.14-4.32-3.56-4.95" filter="url(#a)"/><path d="m47.17-62.87.89 1.33-.01.89-.62.84-1.22.81-1.86.75-2.58.63-3.33.49-4.08.36-4.81.25-5.54.16-6.3.1-7.12.01-8-.08-8.9-.17-9.79-.27-10.68-.35-11.72-.24m6.7-18.88.46-.47.77-.61.91-.61.97-.59.93-.51.84-.44.74-.36.67-.31.57-.24.43-.16.25-.05.03.09-.22.24-.52.4-.83.59-1.17.77-1.55.96-1.98 1.16-2.42 1.4-2.84 1.66m28.93-12.63.78-.07h.94l.74.09.5.22.24.34-.07.49-.48.64-.94.82-1.44 1.02-1.94 1.2-2.39 1.39-2.86 1.58-3.32 1.76-3.85 1.98-4.42 2.25-5.02 2.58-5.7 2.95-6.38 3.22" filter="url(#a)"/><path d="m-28.51-78.54 1.25-.62 1.34-.21 1.77-.11 2.28-.07 2.71-.04 3.07.02 3.34.09 3.56.19 3.74.28 3.91.36 4.04.42 4.13.45 4.17.46 4.17.49 4.14.49 4.07.48 3.97.43 3.81.42" filter="url(#a)"/><path d="m3.73-86.51.59.2.42.14.51.13.49.16.31.19.06.23-.21.27-.49.33-.82.39-1.18.44-1.55.5-1.91.55-2.28.61-2.68.67-3.13.75-3.66.82-4.24.91-4.82.98-5.33 1.02m86.66 35.83-.06.11.19.77.01.64-.3.33-.6.03-.93-.26-1.26-.58-1.64-.97-2.06-1.41-2.5-1.91-2.95-2.44-3.4-2.98-3.83-3.49-4.27-3.98-4.74-4.49-5.28-5.05L21-72.71l-6.29-6.19m9.22-2.04 1.98.97 1.45.7 1.14.62 1.09.66 1.11.7 1.07.69.94.62.78.52.59.41.42.31.27.21.12.13-.03.03-.23-.09-.48-.26-.75-.44-1.07-.64-1.46-.88-1.95-1.17-2.41-1.48" filter="url(#a)"/><path d="m1.71-86.58 1.61.15 1.24.26 1.24.3 1.44.33 1.61.34 1.66.37 1.64.37 1.56.37 1.48.36 1.34.33 1.19.29 1 .23.8.18.56.11.35.04m3.9 1.69.39.28.98.52.82.47.48.39.2.35-.06.31-.39.25-.77.15-1.24.02-1.72-.14-2.19-.27-2.62-.39-3.01-.48-3.39-.55-3.83-.65-4.4-.79-5.12-.95-6.01-1.09" filter="url(#a)"/><path d="m28.15-79.11.23.33.31.53.3.7-.01.74-.47.7-.99.66-1.51.6-2.01.59-2.45.62-2.87.7-3.28.8-3.73.9-4.23.98-4.76 1.02-5.32 1.04-5.93 1.02-6.56 1.03-7.25 1.07-8 1.19-8.85 1.46m88.11 1.59.41.5.81 1.12.92 1.32.93 1.35.85 1.27.71 1.1.54.88.4.66.27.42.11.17-.09-.16-.35-.59-.73-1.17-1.25-1.89m-88.17-18.11.73-.3.99-.6 1.07-.69 1-.68.9-.64.83-.58.78-.54.7-.45.58-.34.39-.2.2-.06-.01.09-.23.24-.5.41-.85.6-1.28.82-1.73 1.06-2.24 1.33" filter="url(#a)"/><path d="m44.32-66.39.22.28.33.57.18.51v.42l-.23.31-.5.16h-.81l-1.15-.21-1.55-.42-1.96-.68-2.42-.98-2.9-1.31-3.41-1.65-3.95-1.98-4.56-2.29-5.22-2.59-5.94-2.94-6.53-3.4" filter="url(#a)"/><path d="m-8.52-85.52 1.54-.16 1.83.24 2.27.56 2.65.81L2.76-83l3.3 1.29 3.55 1.47 3.71 1.65 3.81 1.8 3.88 1.94 3.96 2.06 4.06 2.13 4.13 2.14 4.11 2.09 4.03 2.01 3.93 1.9m-8.65-10.83 1.36 1.4 1.13 1.05 1.16 1.05 1.2 1.11 1.18 1.13 1.11 1.09 1.01 1.03.89.95.78.85.67.75.54.62.42.48.26.31.08.09-.12-.15-.35-.41-.58-.69-.83-1.01-1.08-1.34" filter="url(#a)"/><path d="m53.16-54.87.41.92.38.76.32.73.17.62-.1.39-.4.12-.72-.14-1.04-.41-1.35-.65-1.69-.94-2.02-1.24-2.38-1.55-2.73-1.87-3.1-2.2-3.49-2.51-3.91-2.87-4.35-3.24-4.81-3.63-5.38-4.05-6.07-4.51" filter="url(#a)"/><path d="m22.11-82 .46.31.44.33.26.31.13.33-.05.35-.32.33-.66.3-1.06.29-1.49.25-1.94.22-2.47.15-3.03.06-3.63-.03-4.26-.11-4.88-.17-5.5-.16-6.13-.16-6.75-.17" filter="url(#a)"/><path d="M34.78-74.8v.26l-.02.2v.33l-.13.39-.38.38-.74.28-1.14.15h-1.6l-2.1-.17-2.68-.36-3.3-.56-3.94-.75-4.59-.94-5.29-1.1-6.01-1.25-6.72-1.42-7.29-1.65" filter="url(#a)"/><path d="m-30.12-77.61.52-.3 1.61-.48 1.99-.4 2.25-.3 2.54-.22 2.87-.21 3.21-.19 3.5-.15 3.72-.11 3.86-.05 3.93-.02 3.95.01 3.93-.01 3.9-.01h3.86l3.83.07 3.73.15m21.24 13.44.29.33.58.69.58.73.53.66.42.57.26.41.02.18-.26-.11-.61-.43-.98-.82-1.41-1.26-1.84-1.73-2.2-2.15-2.38-2.52M17.84-83.55l1.98.69 1.04.45.85.36.77.35.72.34.68.34.65.34.57.32.48.3.33.26.16.21-.03.16-.25.08-.5-.03-.8-.14-1.13-.28-1.45-.42-1.77-.54-2.05-.63-2.35-.72-2.63-.82-2.87-.96-3.04-1.18m-38.94 8.55 1.43-.62 2.02-.16 2.85.12 3.54.43 4.13.73 4.72.97 5.31 1.16 5.89 1.33 6.42 1.49 6.89 1.67 7.27 1.85 7.55 1.97 7.73 2.03 7.9 2.1" filter="url(#a)"/><path d="m56.97-48.61.58 1.08.42.96.25.79.04.57-.17.34-.37.12-.57-.08-.75-.26-.98-.45-1.22-.67-1.5-.9-1.81-1.18-2.13-1.46-2.47-1.8-2.82-2.16-3.15-2.55-3.49-2.97-3.85-3.41-4.22-3.82-4.64-4.23-5.08-4.61-5.38-4.99m-22.18-5.23 1.44-.26 1.51-.06 1.73.07 1.89.15 2.04.23 2.14.29 2.21.34 2.2.39 2.14.44 2.09.48 2.04.52 2.01.53 1.97.53 1.88.5 1.72.43 1.52.35 1.31.27 1.11.21.97.18.76.17" filter="url(#a)"/><path d="m3.73-86.51.79.29 1 .43 1.52.58 1.89.74 2.11.87 2.25.99 2.37 1.09 2.48 1.17 2.55 1.23 2.57 1.26 2.59 1.27 2.6 1.29 2.6 1.3 2.59 1.28 2.53 1.27 2.39 1.24 2.09 1.17" filter="url(#a)"/><path d="m-21.83-81.75 1.46-.68 1.47-.39 1.6-.25 1.83-.22 2.04-.19 2.17-.15 2.23-.11 2.27-.06 2.29-.02 2.28.01 2.24.03 2.2.04 2.16.05 2.13.05 2.11.05 2.06.05 1.93.04 1.69.02 1.31-.03.71-.11" filter="url(#a)"/><path d="m-18.18-83.14.75-.42 1.27-.42 1.12-.32.84-.22.63-.12.4-.02.12.1-.24.21-.64.34-1.01.46-1.38.56-1.75.71-2.22.88-2.84 1.11-3.48 1.33m55.24.19.32.4.87.69.57.64.1.53-.39.4-.86.28-1.31.2-1.71.17-2.09.17-2.46.2-2.86.21-3.32.18-3.81.11-4.36.04-4.96-.06-5.62-.13-6.3-.21-6.92-.31-7.48-.4" filter="url(#a)"/><path d="m12.66-84.8 1.88.39 1.39.53 1.52.64 1.69.73 1.74.8 1.69.83 1.61.83 1.53.84 1.49.85 1.45.84 1.44.83 1.38.81 1.29.74 1.13.65.94.53.72.4.47.23.18.03-.16-.22-.52-.44" filter="url(#a)"/><path d="m-1.07-86.19 1.91-.2h1.43l1.29.12 1.22.19 1.2.21 1.24.21 1.27.22 1.26.22 1.2.21 1.1.2.95.17.76.15.55.1.32.06h.11l-.09-.03-.29-.07-.5-.12-.82-.21-1.35-.38m-17.96-.98 1.66.05 1.76.13 1.94.3 2.21.46 2.41.58 2.52.7 2.55.81 2.56.9 2.6.97 2.66 1.02 2.71 1.06 2.74 1.08 2.71 1.08 2.63 1.05 2.51.99 2.32.9 2.11.83 1.97.81" filter="url(#a)"/><path d="m-18.92-83.12.78-.15 1.29-.33 1.68-.36 1.81-.34 1.83-.29 1.84-.25 1.86-.21 1.81-.18 1.71-.16 1.58-.15 1.44-.14 1.3-.14 1.13-.13.94-.12.77-.12.64-.13m50.73 33.27.58 1.02.53.99.16.62-.25.19-.6-.15-.94-.47-1.3-.8-1.71-1.17-2.18-1.61-2.7-2.08-3.24-2.55-3.77-3.03-4.3-3.5-4.85-4.02-5.37-4.58-5.72-5.1" filter="url(#a)"/><path d="M42.32-67.91 5.21-65.95l.58-3.57 3.52-2.34 3.48.26 2.8 1.17 1.74.77 1.96.59 3.68 1.17 4.97 1.69 3.69 1.15-.29-.34-4.75-1.33-6.38-.66-2.93.97 4.59 1.14 10.99.2 21.36 12.03" filter="url(#a)"/><path d="m-2.47-86.42-9.26 12.39 6.59 8.84 7.36 4.87 6.18-.57 3.58-4.02.68-4.25-1-2.17-.49.71 2.19 3.19 5.84 4.62L27.64-58l8.12 3.84 4.13 1.97-2.66-.58-10-3.55-15.18-5.97-17.2-5.96-19.65-1.84-20.89 5.28" filter="url(#a)"/><path d="M58.17-46.38 1.71-62.16l-13.11-4.35 2.91-2.63 5.64-1.49 4.97.29 4.57 2.13 4.5 3.13 3.93 2.85 2.6 1.66.97.33-.41-.54-1.22-.97-1.5-1.42-1.36-2.24-.89-3.28-.27-3.94.39-3.52 1.02-1.77 1.39.82.81 3.06-1.94 2.94-4.5-1.67 18.42-6" filter="url(#a)"/><path d="m45.44-65.04-53.64.72-4.88-4.42 10.81-1.91 12.07-.81 8.12-.19 3.73 1.02.52 2.33-1.59 2.8-3.15 2.05-4.61.46-5.72-1.2-5.75-2.25-4.09-2.46-.99-1.92 2.61-.77 5.67.91 7.86 3.02 9.45 5.04 10.25 5.73 9.06 3.9 5.51.28 2.6-1.81-3.29-9.81" filter="url(#a)"/><path d="m50.33-58.71-8.93-7.7-10.92-3.41-9.95-.63-5.55-.56-1.96-1.09-2.32-1.17-5.25-.97-6.93-.9-4.71-.99 1.05-.8 7.8.13 12.47 1.53 12.53 2.18 7.58 1.3 9.03 5.26" filter="url(#a)"/><path d="m-30.12-77.61 31.75 3.06 22.01 6.09 11.09 3.47 4.12 1.95-.96.69-4.53-.55-6.34-1.47-6.65-1.82-6.21-1.64-5.51-1.03-4.53-.12-2.97.89-.68 1.67 2.03 1.8 4.39.95 5.16-.92 3.38-3.21-.96-4.63-6.37-3.79-10.37-.28-9.18 4.77 6.1 8.76 57.32 6.11" filter="url(#a)"/><path d="m15.37-84.49 3.18 1.38.13 1.27 1.7 3.48 3.37 4.99 3.31 4.32 1.88 1.98-.14-.82-2.08-2.92-3.53-3.69-4.44-3.12-4.87-1.68-4.64.01-3.22 1.3-.38 1.82 3.01 1.69 5.58 1.99 7.11 3.88 6.85 3.71-15.7-20" filter="url(#a)"/><path d="m-43.19-67.42 31.55-8.54 10.04-.08-.81 2.39v3.06l2.65 2.43 2.72.79 1.02-.99-.04-1.87 1.01-1.27 4.12.6 7.85 2.82 10.29 4.29 9.98 4.2 6.7 2.37 1.48-.79-3.97-4.4-7.68-6.91-7.09-5.77 1.56 1.82 24.97 18.4" filter="url(#a)"/><path d="m-26.3-79.68 32.91 1.07 2.31-1.45-5.17-.22-1.8 1.44 4.5 3.54 8.29 5.56 7.72 6.36 4.09 5.23.03 2.58-2.49-.5-3.15-2.76-2.84-3.48-2.73-2.83-3.34-1.61-4.23-.83-4.12-1.04-1.41-2.06 4.56-2.87 11.66-1.81L33-73.33l10.21 5.83" filter="url(#a)"/><path d="M53.16-54.87 31.4-66.79l-7.02-.53 1.56.52 1.16-1.54.04-1.85.41-.6.12.32-2.33.17-5.71-.53-7.09-1.02L7.6-73l-1.38-1.06-1.61-.47-8.59 1.03-14.03.91 11.18-13.36" filter="url(#a)"/><path d="m-38.88-71.32 18.01-7.4.82 1.21-2.2 2.95.39 3.07 2.77 3.53 4.42 3.77 6.13 3.12 7.63 1.62 7.86-.1 6.16-1.4 3.08-1.95-.1-1.89-2.03-1.49-2.01-.91-.25-.22 2.3.51 4.28.98 4.39.7 1.93-.69-2.62-2.94-6.42-5.03-4.52-5.1 5.84-1.72 13.96 3.32" filter="url(#a)"/><path d="m17.84-83.55 10.55 9.33-10.71 2.87-15.18.33-7.27.05 2.92.99 9.21 1.94 10.12 1.9 7.21.79 2.95-.66-.8-1.71-3.28-1.94-4.34-1.48-3.9-.61-2.05.35.42 1.07 1.85 1.16.62.3-3.25-1.34-7.28-2.73-7.78-2.45-1.67.58 14.65 7.46 49.14 25.12" filter="url(#a)"/><path d="m45.99-64.33-6.52-.26-7.86-4.7-.93-1.4 2.58.96 2.84 1.54 1.51 1.48-.4 1.52-2.63 1.52-4.82.98-6.17-.15-5.82-1.27L14-65.77l-.99-1 1.63.52 4.46 2.61 8.37 4.81 12.02 5.95 11.28 4.04 4.81-.48 2.11 1.92" filter="url(#a)"/><path d="m38.3-71.41-10.35-1.22-18.46 4.59-14.4 2.99-3.5-.46 4.28-2.02 6.61-1.39 5.3-.13 2.66.55.46.53-.23.29.61.22 1.63.24.93.12-2.65-.36-7.76-1.22-9.98-2.38-4.74-3.56 3.51-4.31-14.05-2.82" filter="url(#a)"/><path d="m1.62-86.54-8.92 2.69 6.4 2.54 4.57 2.33-2.8 1.58-5.69.8-2.53.41 2.33.5 4.06.64 1.25.34-3.02-.41-3.68-.69 2.53.95 14.47 5.73 26.78 13.31 24.98 18.98" filter="url(#a)"/><path d="m-46.86-63.47 24.27.39 21.23-.76 1.52-1.52-5.05-.73-.18.55 6.38 1.2 8.75.76 7.29-.16 5.46-.36 5.64.97 7.06 3.26 6.91 4.45 2.48 1.74-6.65-6.08-15.48-14.53-7.35-9.76" filter="url(#a)"/><path d="m-53.4-54.11 59.77-4.47 7.26-5.67-5.81-3.93-5.62-1.23-2.73 1.09.18 1.79 2.58.97 4.29-.29 4.96-.93 4.31-.61 2.66.31 1.09 1.38.87 2.2 2.22 2.46 3.77 1.72 3.13-.29-1-3.2-7-5.71-10.37-6.19-6.53-4.31 2.58-2.39-5.5-5.17" filter="url(#a)"/><path d="m1.71-86.58-15.17 5.21 2.39 2.81 6.39 1.27 6.38.66 5.24.59 3.21.56 1.27.6.42.93.61 1.56 1.12 2.04 1.35 1.91 1.17.91.55-.74-.56-2.44-2.04-3.48-3.66-3.31-5.24-1.92-6.89.32-7.91 3.12-4.62 6.98 12.25 13.03 64.44 18.93" filter="url(#a)"/><path d="m-43.19-67.42 42.92-5.74 7.97-4.55 3.07.66 2.11 3.65-.27 3.45-1.74 1.77-.57.3 2.34-.25 4.9.01 5.81.64 4.84 1.17 2.35 1.16-1.17.45-4.97-.78-7.82-2.1-8.3-2.96-5.63-3.12-.6-2.53 4.27-1.39 5.83-.21 1.82-.24-6.05-2.94.25-4.8" filter="url(#a)"/><path d="M59.97-42.23 49.64-52.55l-13.47-2.07-21.12-3.26-18.46-3.41-9.2-2.82-.22-1.83 4.99-.48 6.48.78 5.97 1.23 4.95.54 4.13-.81 3.71-1.9 3.64-1.89 3.9-.75 4.33.9 4.53 2.37 3.8 3.17.84 3-6.02 1.4-16.5-2.02-21.94-7.2L4.52-86.02" filter="url(#a)"/><path d="m-45.16-65.41 24.21.1 28.53-.8 11.95-2.53-2-2.54-9.23-1.06-11.1.74-9.33 2.09-4.75 2.61 1.72 2.36 8.38 1.6 12.77.67 13.19-.23 9.5-1.31 3.25-2.64-3.46-3.44-9.54-1.82L.32-67.65l-52.79 11.97" filter="url(#a)"/><path d="m-52.47-55.68 45.69-3.47-.74-8.6-.96-7.18 4.84-3.84 6.08-.76 2.7 1.04-2.01 1.44-4.61 1.04-3.78.61-.35.5 4.24.63 9.35 1.21 14.32 3.17 16.3 5.75 4.61-3.36M1.62-86.54l-2.12-.7-1.5-1.09-1.29-1.4-1.25-1.25-1.24-.9-1.17-.69-1.08-.72-1.02-.94-1.03-1.22-1.09-1.42-1.22-1.43-1.35-1.26-1.43-1.22-1.17-1.74.01-2.27M1.62-86.54l-2.11.15-1.45.03-1.19.07-1.15.1-1.11.13-1.04.13-.93.13-.85.13-.82.13-.83.12-.91.14-.98.17-.99.2-.89.22-.8.21-1.54.24" filter="url(#a)"/><path d="m-1.07-86.19 1.79 2.97 1.23-.15 1.02-.31.89-.1.84-.04.85-.03.88.12.86.4.83.75.79 1.04.76 1.17.76 1.1.75.93.76.77.77.74.77.87.8 1.12.86 1.27.96 1.23.99 1.04.79 1.02.74 1.23M-4.77-86.01l1.47-.56 1.12-.48 1.27-.53 1.33-.7 1.29-.93 1.2-1.21 1.1-1.46 1.06-1.54 1.07-1.45 1.09-1.23 1.11-.95 1.12-.7 1.12-.5 1.17-.49 1.21-.72 1.22-1.09 1.15-1.3 1.27-1.11 2.41-1.54" filter="url(#a)"/><path d="m-6.27-86.12 1.51-.03 1.32-.06 1.24.04 1.27.12 1.28.16 1.21.16 1.1.17.99.19.93.2.89.19.91.18.91.17.91.19.91.22.91.27.89.32.87.36.83.43.82.49.85.57.87.59.9.5 1.12.31-23.44-5.74 1.4-2.09 1.34-.61 1.3-1.57 1.36-2.52 1.37-2.3 1.29-1.14h1.18l1.09.44 1.08.09 1.12-.7 1.18-1.44 1.22-1.81 1.26-1.79 1.28-1.57 1.32-1.45 1.38-1.57 1.41-1.88 1.41-2.03 1.46-1.89 1.65-1.68 1.42-2.22-29.77 30.33-.17-.18-.73-.21-.94-.34-1.07-.35-1.12-.26-1.13-.16-1.15-.08-1.18-.03-1.18.06-1.16.16-1.13.22-1.12.2-1.16.13-1.23.08-1.31.04-1.37-.04-1.41-.22-1.35-.38-1.08-.23 20.99 1.59 1.36.37 1.21.91 1.23.95 1.2.67 1.2.39 1.22.23 1.21.12 1.17.08 1.06.13.93.39.81.81.75 1.24.73 1.5.75 1.41.73 1.05.68.66.69.46.66.51" filter="url(#a)"/><path d="m-10.04-85.3.32-2.73.52-2.56.68-1.61.93-.46 1.13-.07 1.24-.37 1.29-.88 1.34-1.28 1.37-1.38L.15-97.8l1.34-.75 1.27-.3 1.18-.04 1.12-.12 1.12-.48 1.16-1.01 1.23-1.47 1.26-1.78 1.29-1.89 1.42-1.81 1.74-1.52 2.46-.76m-29.72 24.66-.99-.69-.89-.44-1.08.38-1.14.59-1.13.4-1.14.11-1.19-.16-1.29-.36-1.38-.49-1.4-.47-1.37-.36-1.29-.26-1.2-.24-1.19-.27-1.22-.23-1.32-.04-1.37-.13-1.01-1.36" filter="url(#a)"/><path d="m-39.93-101.28 2.5-.14 2.75 2.94 2.31 3.09 1.92 2.31 1.67 1.45 1.57.86 1.51.54 1.45.35 1.37.22 1.28.22 1.29.48 1.37.93 1.47 1.24 1.48 1.02 1.23.37.82-.13.96.46 1.52-.12 1.04.03.86.14.79.17.81.16.87.18.97.26 1.06.37 1.13.49 1.17.6 1.2.64 1.25.54 1.27.26 1.23.02 1.17.28 1.02 1.36" filter="url(#a)"/><path d="m-12.98-85.07 1.52-.11 1.05.02.86.2.82.42.84.58.91.57.98.41 1.06.23 1.11.11 1.15.12 1.19.2 1.23.27 1.24.28 1.19.26 1.04.4.77.77.19 1.02" filter="url(#a)"/><path d="m-14.48-84.54 1.64.53 1.36.08 1.12.33.94.4.86.28.84.08.88-.08.96-.16 1.05-.14 1.11-.03 1.17.1 1.2.21 1.21.28 1.17.34 1.09.41.98.49.87.55.81.54.84.54.9.62.75.79.11.93" filter="url(#a)"/><path d="m-3.96-118.15-.38 3.39-1.23 3.68-1.22 4.02-1.01 3.91-.84 3.27-.78 2.38-.77 1.63-.8 1.38-.8 1.61-.79 2.03-.78 2.19-.81 1.92-.94 1.32-1.16.78-1.28.55-.63.95 15.36-.91-.4-.06-1.11-.13-1.16-.12-1.04-.1-.92-.08-.84-.03-.83.01-.87.08-.92.14-.96.2-1 .23-1.04.26-1.07.26-1.11.25-1.12.24-1.07.19-1.04.16-1.14.26-1.37.54 1.13-1.52 1.04-.78.97-.58 1.01-.65 1.05-.77 1.05-.86 1.01-.94.97-1.03.94-1.16.9-1.32.84-1.45.79-1.45.79-1.31.85-1.14.97-1.09 1.13-1.31 1.26-1.74 1.21-1.95.39-2.27" filter="url(#a)"/><path d="m-21.57-81.86-2.2.56-1.56-.49-1.24-.48-1 .03-.88.46-.88.6-.93.56-.97.44-.97.35-1 .34-1.01.36-1.03.41-1.03.47-1.02.53-.99.59-.95.62-.94.55-.99.43-1.05.29-1.15.22-1.19.28-1.18.54-1.14.91-1.11 1.09" filter="url(#a)"/><path d="m-41.71-75.94 1.48-.08 1.14-.43 1.03-.59 1.04-.55 1.07-.46 1.06-.41 1.02-.37.98-.33.94-.31.95-.32.97-.38.99-.37.99-.27.95-.09.88-.07.8-.17.72.7" filter="url(#a)"/><path d="m-24.81-80.72-2.41-3.23-.55 1.24-.54 1.4-.92.64-1.25-.15-1.48-.77-1.61-1.15-1.67-1.21-1.65-1.01-1.56-.62-1.44-.21-1.36.07-1.37.09-1.45-.09-1.56-.35-1.59-.45-1.49-.24-1.33.17-1.31.47-1.66.21-2.44-.68-3.13-1.55" filter="url(#a)"/><path d="m-26.3-79.68-.57.06-.79.23-1.01.31-1.07.27-1 .28-.94.35-.92.42-.95.44-1.03.4-1.11.31-1.16.23-1.15.21-1.11.26-1.03.35-.97.44-.96.5-.98.52-1.03.55-1.04.61-.99.7-.88.76-.8.66-.82.39-.75.41 22.44-9.47-.72-.31-1.36-.35-1.46-.51-1.5-.89-1.57-1.21-1.57-1.18-1.48-.73-1.35-.17-1.33.09-1.45-.04-1.57-.31-1.54-.31h-1.31l-1.14.12-1.43-.41-2.38-1.13" filter="url(#a)"/><path d="m-26.95-79.65.26-.07.61-.5.79-.87.91-1.04.99-.95 1.05-.68 1.09-.45 1.08-.36 1.07-.41 1.05-.57 1.05-.7 1.05-.8 1.03-.82 1.02-.76 1.03-.68 1.03-.57 1-.5.89-.47.68-.54.09-.84-49.11 13.27 2.26.32 1.54.06 1.48.19 1.46.11 1.43-.08 1.44-.11 1.52.08 1.59.29 1.55.33 1.39.15 1.2-.15 1.08-.37 1.05-.43 1.13-.31 1.24-.12 1.3.02 1.28.08 1.22.16 1.16.29 1.09.36 1.01.06 1.36-.51-8.44 17.66.77-.22.48-.96.05-1.7-.14-2.03-.05-1.96.19-1.63.48-1.24.73-.82.95-.45 1.07-.21.99-.34.69-.88.27-1.59.02-1.79-.18-1" filter="url(#a)"/><path d="m-62.55-84.73 1.1-1.53 2.03.61 2.18 1.09 2.1.92 1.88.45 1.65.03 1.5-.14 1.47-.07 1.48.1 1.48.22 1.46.23 1.39.12 1.36.01 1.36-.01 1.44.16 1.58.51 1.73.96 1.75 1.3 1.58 1.28 1.13.75.27.04m98.16 60.08.07.58.18 1.3.22 1.52.25 1.5.25 1.35.27 1.19.29 1.07.29 1.03.28 1.07.27 1.2.25 1.38.23 1.55.19 1.65.12 1.61.09 1.46.13 1.55.23 2.38" filter="url(#a)"/><path d="m-17.89-82.72-.38.18-.77.2-.96.31-1.04.41-1.08.46-1.09.45-1.05.43-.99.4-.91.39-.87.4-.89.45-.93.5-.91.55-.82.58-.71.54-.51.23-3.96 2.27-3.67-3.61-2.66-2.55-1.95-1.45-1.16.02-.68 1.05-.53 1.48-.52 1.56-.53 1.54-.56 1.43-.7 1.13-1.01.68-1.45.11-1.91-.39-2.26-.72-2.42-.76-2.38-.58-2.32-.32-2.37-.14-2.59-.19-2.71-.5-1.81-.17 36.19 2.38.76-.1 1.08-.08 1.12-.21.99-.34.85-.44.82-.47.85-.42.93-.31.98-.17 1-.08.99-.06.98-.11 1.02-.18 1.08-.13 1.17-.01 1.19.11 1.17.13 1.13.15 1.01.61-34.89 27.47.81-1.21.16-.93.24-.91.45-.91.61-.94.66-1.04.63-1.17.58-1.3.51-1.38.47-1.41.49-1.35.53-1.23.59-1.06.68-.89.74-.75.8-.71.81-.73.8-.81.76-.89.7-.91.64-.88.56-.86.44-.96.41-.76M67.17-17.95l.16.37-.07.84-.22 1.29-.21 1.49-.1 1.48.01 1.35.07 1.21.05 1.12-.02 1.1-.13 1.15-.22 1.25-.28 1.36-.3 1.44-.31 1.49-.3 1.45-.3 1.37-.29 1.28-.28 1.18-.26 1.11-.29 1.09-.32 1.12-.38 1.12-.44 1.21" filter="url(#a)"/><path d="m-75.03-70.79 1.73-1.2 2.58 1.1 2.65 1.17 2.39.7 2.1.22 1.97-.05 1.97-.06 2.05.07 2.07.17 1.95.11 1.67-.17 1.31-.52.98-.81.77-.94.67-.98.67-1.01.83-.89 1.27-.31 1.93.89 3.06 3.25-1.35 1.24.57-.77.58-1 .47-1.18.45-1.16.51-1.11.6-1.1.66-1.1.71-1.14.7-1.28.57-1.59.39-1.99.22-2.21.2-2.07.37-1.56.63-1.17 1.15-1.6-5.75-8.95-1.06 1.8-.35 2.22-.31 2.43-.32 2.56-.27 2.6-.2 2.61-.13 2.54-.13 2.36-.2 2.02-.32 1.61-.47 1.28-.62 1.06-.79.88-.69 1.2 1.4 5.2-25.46 14.73 1.13-.31 1.06-1.16 1.04-1.05 1.06-.89 1.12-.81 1.18-.75 1.24-.64 1.29-.49 1.33-.36 1.34-.32 1.31-.4 1.25-.54 1.18-.68 1.14-.76 1.12-.78 1.11-.76 1.08-.78 1-.81.91-.81.81-.7.81-.46.94-.14 1.01-.33" filter="url(#a)"/><path d="m-45.16-65.41.66-.55.66-.71.74-.88.8-.95.79-.92.78-.85.76-.79.76-.75.77-.72.8-.71.86-.69.89-.67.92-.65.92-.64.9-.64.85-.64.83-.64.83-.64.87-.64.9-.65.88-.63.81-.56.79-.53 1.14-.69m-20.44 17.34-1.34.69-1.48.41-1.18.65-.85.98-.78 1.12-.94.99-1.16.71-1.35.37-1.5.08-1.62-.13-1.69-.18-1.8-.04-1.99.2-2.03.43-.55.79 19.09-5.73-.92.91-.98.93-1.24.54-1.66.14-1.99-.16-2.1-.3-1.99-.28-1.8-.12-1.61.07-1.54.23-1.55.34-1.57.43-1.46.57-1.21.81-1.01 1.05-1.08 1.13-1.48.92-1.86.69-1.75.84-1.74.89-1.7-1.19 3.59.46 1.98-.71 1.18-1.23 1.15-1.17 1.4-.82 1.65-.49 1.83-.29 1.96-.11 2.07.08 2.11.26 2.03.33 1.8.21 1.53-.07 1.34-.35 1.28-.56 1.21-.71.94-.89.78-.96 1.98-.36" filter="url(#a)"/><path d="m-49.23-60.54-.8-.32-1.13.45-.87 1.14-.75 1.18-.75.97-.8.77-.78.73-.74.83-.7.94-.76.98-.85.93-.96.86-1.02.83-1 .9-.94.99-.86 1.04-.78 1-.73.88-.87.76-1.75 1m26.93-58.13-.15.41-.66.93-.67 1.39-.63 1.83-.6 2.06-.53 2.2-.37 2.4-.14 2.66.04 2.82.09 2.76-.01 2.46-.19 2.07-.39 1.71-.5 1.49-.54 1.42-.52 1.39-.51 1.32-.6 1.1-.9.63-1.37.08-1.6-.02-.67 1.65 2.33 6.51" filter="url(#a)"/><path d="m-49.5-59.95.29-.51.33-1.05.32-1.57.32-1.72.38-1.57.45-1.3.48-1.16.45-1.23.39-1.42.36-1.62.34-1.78.33-1.83.33-1.75.35-1.58.2-1.72-.26-3.11" filter="url(#a)"/><path d="m-51.97-56.52.64-.97.81-1.5.64-1.44.62-1.29.69-1.17.75-1.1.72-1.08.63-1.08.55-1.11.51-1.15.52-1.18.58-1.21.63-1.2.66-1.17.64-1.14.55-1.14.45-1.17.4-1.14.49-.7m-23.22 52.67.74-2.6.28-1.3.2-1.2.24-1.31.27-1.35.28-1.29.28-1.19.32-1.1.35-1.06.39-1.04.42-1.06.43-1.07.43-1.12.43-1.16.43-1.21.46-1.23.5-1.2.54-1.16.58-1.13.62-1.13.66-1.16.63-1.08.47-.82.5-.82-.14.47-1.38 1.96-1.02 1.39-.78 1-.71.93-.73.97-.79 1.01-.82 1-.8.96-.76.95-.68.95-.63.97-.61.98-.59.95-.55.93-.51.93-.57 1.04-.79 1.22-1.02 1.28-.75.81M66.49-21.49l.42 1.38.69 1.11 1.06.82 1.32.8 1.33.98 1.16 1.2.94 1.32.79 1.32.76 1.25.82 1.14.82 1.08.69 1.12.49 1.26.5 1.49.88 1.8 1.56 2.05L82.78.61l1.67.8" filter="url(#a)"/><path d="m-56.55-49.6-.32.12-1.01.24-1.37.45-1.44.59-1.42.63-1.41.57-1.35.55-1.26.59-1.13.7-.99.82-.94.83-1.02.69-1.33.47-1.71.44-1.92 1.02-2.31 1.66" filter="url(#a)"/><path d="m-56.75-49.01-.82 1.47-.87 1.3-1.01.96-1.14.7-1.14.61-1.03.68-.97.74-1.07.71-1.33.54-1.65.36-1.93.28-2.06.37-2.02.59-1.79.82-1.34 1.01-.71 1.18-.35 1.57-1.39 2.99 19.08-9.81.58-1.25.3-1.5.11-1.65.1-1.65.23-1.47.41-1.26.53-1.17.56-1.17.54-1.2.51-1.14.51-1.01.53-.91.49-.98.42-1.19.55-1.6 1.39-2.54" filter="url(#a)"/><path d="m-85.43-10.83 1.72-1.5 1.56-1.85 1.25-1.71 1.03-1.59.74-1.52.44-1.49.29-1.45.41-1.36.75-1.22 1.17-1.07 1.47-.98 1.57-.93 1.43-.97 1.13-1.04.84-1.09.7-1.1.84-1.02 1.14-.91 1.42-.84 1.43-.86 1.1-.91.66-.86.42-.8.47-.88-24.05 15.74.56.47 2.19-.75 2.57-.79 2.2-.83 1.55-1.02 1.07-1.18.98-1.19 1.25-1.01 1.62-.77 1.8-.63 1.58-.68 1.02-.96.31-1.35-.24-1.74-.5-1.96-.42-1.79.44-.85 5.54 2.17" filter="url(#a)"/><path d="m-63.11-77.61.5 1.43-.08 2.14-.29 2.27-.16 2.22.1 2.19.25 2.14.28 2.07.25 2.02.2 2 .17 1.99.15 1.96.11 1.9.01 1.81-.19 1.64-.44 1.42-.65 1.21-.67 1.11-.43 1.2-.07 1.42v1.52l-.38 1.3-.53 1.19 2.45 3.09" filter="url(#a)"/><path d="m-46.41-43.78-.71 1.36-.39.82-.88.4-1.39.18-1.7.09-1.77.07-1.59.18-1.19.41-.71.74-.34 1.01-.39 1.05-.93.71-1.61.12-1.63-.34-.41-.73-1.99 5.29-.05.86-.09 1.06-.12 1.13-.14 1.21-.14 1.26-.14 1.29-.12 1.31-.09 1.3-.04 1.29v2.52l-.01 1.26-.04 1.27-.04 1.32-.06 1.38-.04 1.45-.01 1.5.1 1.51.27 1.44.45 1.28.49 1.08.37 1.17.18 2.58-.82-30.06.46-.89.72-1.35.65-1.2.59-.96.6-.81.61-.82.62-.87.65-.87.71-.83.78-.79.86-.77.9-.8.95-.8 1.02-.72 1.07-.54 1.02-.39.88-.51 1.35-.95-14.8 17.28.33-1.75.44-1.45.5-1.43.46-1.29.4-1.1.38-.97.41-.96.43-.98.45-1.03.46-1.02.44-1.01.46-1.02.49-1.08.54-1.22.78-1.75" filter="url(#a)"/><path d="m-79.24-15.58 1.6-.11 1.32-1.17 1.47-1.18 1.41-1.05 1.21-1.02.96-1.06.67-1.13.37-1.23.22-1.31.36-1.28.81-1.1 1.27-.88 1.3-.85.87-.93.91.28" filter="url(#a)"/><path d="m-64.49-29.6-1.11-2.54-1.37-2.58-2.03-2.99-1.99-2.82-1.47-2.35-.73-1.84.06-1.37.72-1.01 1.15-.79 1.28-.75 1.15-.89.86-1.14.47-1.5.01-1.91-.44-2.31-.8-2.63-.88-2.72-.58-2.54-.09-2.2.12-2-.34-2.26-.93-2.77.41-1.86 6.53 45.77-.77-.18-1.31.71-.85.99-.38 1.21-.28 1.32-.51 1.25-.81 1.11-.96 1.01-.91 1.01-.81 1.08-.78 1.12-.93 1.16-1.2 1.24-1.65 1.09-2.55-.09m15.13-15.46-.15.23.18-.86.37-1.25.46-1.33.44-1.25.42-1.13.41-1.04.42-1.01.44-1.02.46-1.04.47-1.05.48-1.08.51-1.11.53-1.15.55-1.17.57-1.16.57-1.12.6-1.09.67-1.11.76-1.19.71-1.1.01-.16M65.58-26.58l1.28-.45.16.87.22 1.31.4 1.35.51 1.27.55 1.18.63 1.1.74 1.02.91 1.01 1.05 1.06 1.14 1.18 1.17 1.27 1.21 1.32 1.32 1.24 1.44 1.1 1.46.98L81-8.8l.76 1.03.66 1.23-12.31 7.71-.18-.72-.1-1.77-.09-1.83-.1-1.6-.1-1.35-.12-1.18-.11-1.11-.12-1.13-.11-1.19-.12-1.27-.14-1.33-.18-1.34-.22-1.29-.27-1.21-.33-1.14-.35-1.13-.38-1.15-.37-1.21-.35-1.27-.33-1.28-.29-1.2-.22-.96-.14-.73-.21-1.05 6.06 21.02-.24-.56-.23-.98-.2-1.03-.23-1.16-.28-1.31-.35-1.39-.37-1.36-.4-1.27-.4-1.16-.41-1.11-.41-1.1-.37-1.16-.33-1.23-.28-1.28-.24-1.26-.27-1.18-.33-1.04-.4-.98-.46-1.14-.49-1.49-.43-1.64-.36-1-.23-1.59-.11-1.58-.11-1.44-.19-1.35-.28-1.26-.32-1.19-.31-1.12-.26-1.11-.26-1.14-.3-1.16-.37-1.18-.39-1.17-.32-1.17-.12-1.19.01-1.32-.56-1.82.65 11.71-1.02-1.45-.59-1.12-.55-1.03-.57-.96-.6-.92-.66-.93-.73-.96-.75-.99-.73-.99-.7-.93-.7-.86-.73-.81-.82-.82-.9-.86-.92-.92-.89-.91-.8-.79-.41-.36 11.84 14.25-.12-.63.04-1.42.52-1.89.75-2.1.54-2.02.03-1.74-.46-1.4-.74-1.15-.73-1.09-.51-1.26-.17-1.66.17-2.16.5-2.7.73-3.14.81-3.28.54-2.97-.16-2.26-1.67-1.42" filter="url(#a)"/><path d="m58.17-46.38.55 1.4.34 1.17.19 1.16.06 1.16.04 1.19.12 1.2.24 1.21.29 1.23.26 1.29.18 1.37.11 1.45.05 1.51-.01 1.54-.1 1.52-.24 1.45-.41 1.31-.59 1.15-.67 1.27-.71 2.36-.9-28.17-.27-.39-.75-1.17-.79-1.24-.71-1.1-.64-1.01-.62-.97-.65-1-.71-1.03-.76-1.06-.8-1.05-.82-1.04-.82-.99-.82-.95-.8-.9-.77-.85-.74-.8-.72-.77-.7-.74-.74-.72-.8-.75-.91-.81-1.02-.86-1.06-.87-.97-.85" filter="url(#a)"/><path d="m56.97-48.61-.49-.16-1.13-.77-1.07-.95-.92-.87-.91-.66-.96-.53-.95-.58-.87-.78-.76-.98-.7-1.08-.75-1.01-.88-.82-1-.63-1.06-.51-.98-.5-.81-.6-.78-.66-1.16-.61L57.25-48.1l-1.16-1.99-.96-1.41-.76-1.08-.64-.94-.62-.92-.65-.97-.71-1.02-.76-1.06-.8-1.07-.81-1.04-.81-1.01-.8-.97-.77-.93-.75-.88-.72-.82-.69-.77-.69-.73-.71-.71-.79-.73-.91-.81-1.07-.87-1.2-.76 27.16 42.21-.14.02-.17-.59-.29-1.09-.41-1.35-.48-1.4-.53-1.4-.55-1.35-.56-1.3-.56-1.23-.55-1.18-.53-1.12-.52-1.06-.5-1.01-.49-.98-.49-.96-.52-.98-.54-1-.55-1.01-.53-.96-.48-.87-.47-.87-.77-1.51 14.83 11.36-1.71-.81-.86-.86-.81-.94-1.03-.86-1.11-.74-.95-.72-.68-.85-.43-1.03-.38-1.15-.53-1.07-.86-.8-1.24-.4-1.49-.03-1.45-.05-1.3-1.05" filter="url(#a)"/><path d="m72.22-34.17-1-1.11-1.18-1.06-1.08-1.2-.9-1.24-.75-1.21-.74-1.13-.79-1.02-.85-.9-.84-.84-.77-.84-.7-.88-.67-.93-.68-.94-.73-.9-.81-.83-.9-.76-1.02-.74-1.17-.76-1.23-.81-1.07-.78-.75-.65" filter="url(#a)"/><path d="m53.08-55.17.32.4.42.74.54.92.64 1.05.69 1.12.68 1.1.63 1.04.59.98.56.97.57.98.57 1 .56.97.5.9.39.77.35.75.76 1.49" filter="url(#a)"/><path d="m59.39-41.82.32.09-.15-.69-.39-1-.49-1.05-.53-1.03-.52-1-.51-.99-.52-1.01-.57-1.08-.62-1.14-.66-1.15-.62-1.05-.52-.92-.37-.77-.16-.56m-2.75-3.54-.34-.66-.71-.96-.78-.98-.79-.97-.76-.93-.72-.86-.69-.81-.68-.77-.72-.75-.76-.76-.83-.78-.91-.82-.95-.84-.98-.84-.99-.85-1-.85-.98-.83-.92-.74-.71-.52-.15-.1" filter="url(#a)"/><path d="m48.81-61.05 1.09 1.55.8 1.22.77 1.19.7 1.13.61 1.05.55.97.56.98.58 1.04.62 1.12.6 1.14.56 1.11.47 1.05.43 1.03.41 1.06.37 1.05.16.57" filter="url(#a)"/><path d="m56.66-46.55-.27-.96-.38-.93-.63-1.11-.73-1.13-.68-1.08-.56-1.04-.48-1.03-.47-1.07-.54-1.12-.65-1.16-.74-1.14-.76-1.07-.75-1.02-.76-1.04-1.09-1.42" filter="url(#a)"/><path d="m45.99-64.33 1.17-.08 1.01.65 1.15.63 1.14.63 1.02.79.9 1 .85 1.08.83 1.05.85.92.86.74.91.62 1.01.62 1.12.84 1.38 1.17 1.76 1.62-16.51-12.99-1.37-.11-1.25.27-1.27.13-1.21-.19-1.08-.56-.98-.74-.99-.69-1.04-.51-1.1-.31-1.09-.11-1.03.11-.96.31-.87.4-.83.34-.87.26-1 .27-1.07.35-1.51.99m18.35-1.7-.06-.64-.72-.69-.96-.76-1.05-.78-1.07-.78-1.03-.8-.98-.81-.9-.8-.81-.76-.71-.69-.62-.63-.59-.59-.63-.59-.72-.61-.84-.66-.95-.7-1.01-.73-1-.74-.94-.71-1-.68-1.33-.77-1.97-1.02L43.21-67.5l-.94-.75-1.04-.95-1.01-.91-.98-.87-.94-.87-.89-.85-.79-.78-.68-.7-.6-.61-.57-.57-.61-.6-.7-.65-.82-.74-.91-.81-.98-.85-.96-.83-.92-.74-1-.68-1.34-.77-1.92-1.19 38.07 26.61-2.05-.46-1.33-.5-.99-.59-.8-.76-.72-.99-.72-1.16-.78-1.21-.88-1.11-1.06-.87-1.27-.53-1.47-.21-1.56-.01-1.46-.03-1.21-.23-.9-.49-.72-.6-.69-.52-.86-.62-.89-.41 2.42-1.83 1.84-1.02.9.36.53 1 .42 1.24.43 1.34.51 1.33.67 1.22.83 1.07 1.01.91 1.16.77 1.3.62 1.42.47 1.53.31 1.63.18 1.72.11 1.78.15 1.8.25 1.81.35 1.86.3 2 .11 2.12-.03 1.88.45.99 1.85" filter="url(#a)"/><path d="m21.5-71.48.81-1.04 1.23-.04 1.12.34 1.03.3 1.1.09 1.21-.1 1.25-.14 1.18-.08 1.07-.02.94-.02.86-.07.8-.08.79.06.8.34.78.72.74 1.09.68 1.25.93.73 2.27-1.5m2.86 24.3.85-1.91.52-2.32.07-1.92-.4-1.35-.61-1.05-.55-1.12-.35-1.36-.19-1.52-.19-1.44-.31-1.18-.42-.97-.38-1.03-.19-1.36-.11-1.63-.36-1.61-.24-2.53" filter="url(#a)"/><path d="m59.88-49.2-.55-.81-.74-.76-.92-.96-.92-1.05-.8-1.04-.72-.99-.71-.95-.76-.94-.81-.95-.87-.97-.88-.99-.89-1-.87-.97-.87-.92-.85-.88-.81-.82-.79-.77-.74-.73-.74-.69-.77-.66-.84-.68-.94-.78-1.08-.89-1.19-.81m-.88-.97-.94-.53-1.04-.82-.9-.65-.71-.48-.58-.36-.59-.34-.68-.35-.81-.39-.95-.44-1.03-.49-1.06-.52-1.05-.48-1.04-.43-1.07-.36-1.12-.35-1.06-.35-.75-.26-.5.03m15.88 7.57 1.23.42 1.64-.03 1.61-.03 1.46.04 1.32.05 1.22.11 1.08.28.92.56.8.82.83.93 1.02.82 1.33.52 1.65.23 1.84.07 1.82.16 1.65.38 1.45.55 1.37.46 1.46.2 1.68-.11 1.73-.1m-32.19-8.9.71-3.59-.47-.03-.59-.04-.63-.54-.72-.88-.81-1.1-.85-1.24-.85-1.3-.86-1.29-.87-1.22-.9-1.15-.9-1.1-.85-1.07-.78-.99-.72-.93-.7-.94-.64-1.1-.47-1.27.32-1.65" filter="url(#a)"/><path d="m64.09-66.14-1.65.31-1.59-.68-1.68-.6-1.77-.34-1.68-.3-1.43-.5-1.13-.79-.88-1.01-.75-1.06-.76-.93-.89-.66-1.12-.31-1.37.02-1.58.24-1.68.3-1.65.17-1.52-.06-1.37-.3-1.27-.46-1.25-.51-1.26-.47-1.22-.51-12.08-30.82 2.11 2.24 1.2.81.77 1.32.42 2.26.23 2.83.23 2.82.39 2.43.59 1.98.7 1.71.69 1.7.64 1.82.64 1.83.81 1.54 1.08.87 1.37.09 1.25.17-.85 4.19.17.2.39.26.69.49.9.65 1 .72 1.04.76 1.05.76 1.05.76 1.05.7 1.05.62 1.03.53 1.03.44 1 .42.99.45.99.52.98.6 1.01.7 1.02.76 1.03.84 1.04.91 1.07.99 1.15 1.03 1.23.85 1.16.09-15.29 1.4-.59-.46-.47-.82-.3-1.11-.31-1.16-.43-1.1-.56-1.13-.6-1.24-.59-1.37-.59-1.43-.61-1.4-.67-1.3-.71-1.15-.68-.97-.52-.71-.27-.42.07-.68-.54-.18 3.68-6.88-.42 1.77-.53 2.44.15 1.63.72.97 1.1.55 1.39.2 1.66-.17 1.95-.58 2.22-1 2.41-1.32 2.44-1.44 2.27-1.24 1.88-.7 1.37.09.92.84.73 1.29.93 1.21 1.53.61 2.4-.32 3.67-.83M6.9-72.38l1.28-.8 1.08-.39.98-.65.89-.62.86-.35.93-.17 1.04-.2 1.17-.38 1.26-.54 1.3-.63 1.25-.59 1.15-.45 1.03-.24.91.02.83.27.83.4.92.36 1.06.15 1.16-.08 1.18-.17 1.23-.04 1.49.27 1.67.77" filter="url(#a)"/><path d="m28.63-78.77.38.58 1.18.83 1.14.82.96.77.77.73.62.68.55.62.57.6.62.61.72.69.77.81.82.92.84.99.86 1 .86.96.84.92.78.88.67.88.56.91.49.93.48.9.45.88.3 1.06" filter="url(#a)"/><path d="m28.63-78.77.61-.09 1.27.61 1.19.75 1.02.67.87.54.77.39.69.3.67.3.71.4.79.55.89.67.98.72 1.04.74 1.09.74 1.12.72 1.13.7 1.07.61.88.45.48.01-19.64-10.72-1.41-.81-.68-.59-.56-.75-.61-.86-.73-.82-.89-.68-1.04-.57-1.15-.53-1.17-.59-1.13-.78-1.02-1.09-.89-1.48-.8-1.83-.75-2-.76-1.91-.85-1.52-.94-.94-1.02-.42-1.09-.14-1.1-.17-1.08-.39-.9-.67-.61-1.06-.7-1.4 21.88 22-1.29-1.2-.57-.93-.55-.76-.65-.67-.78-.63-.9-.63-1.02-.64-1.13-.6-1.18-.54-1.18-.49-1.12-.51-1.01-.63-.91-.76-.86-.87-.86-.89-.91-.85-.94-.72-.85-.5-.64-.36-.48-.73 17.83 13.91 1.26.59.77.61.79.79.89.93.9.97.83.93.74.83.66.67.62.54.64.47.68.48.75.57.81.7.85.83.84.96.81 1.05.77 1.14.68 1.19.59 1.18.5 1.12.46 1 .47.99.39 1.07 8.13-11.37-1.05-.43-.95-.54-1.06-.34-1.26-.18-1.39-.15-1.44-.19-1.42-.28-1.34-.36-1.24-.43-1.13-.47-1.01-.47-.88-.43-.8-.37-.76-.33-.77-.34-.82-.43-.89-.58-.95-.72-.98-.85-.93-.93-.89-.88-1.06-.52-1.7.34-2.44.41" filter="url(#a)"/><path d="m23.93-80.94 2.32-.17 1.79-.59 1.35-.37 1.34-.34 1.54-.5 1.7-.7 1.71-.79 1.53-.64 1.23-.36.96-.13.87-.11.98-.23 1.25-.28 1.66-.36 2.21-.87 2.43-1.82L22.11-82l-1.15-.36-1.12-.41-1.3-.42-1.29-.4-1.19-.36-1.07-.31-.99-.27-.93-.24-.91-.22-.91-.21-.93-.19-.93-.17-.94-.16-.94-.13-.93-.13-.91-.12-.89-.11-.88-.1-.95-.09-1.09-.04-1.31.01-1.6.03-1.85-.12 23.96 3.96-.24 1.36.65.28.74.33.68.64.64.87.74.87.87.67 1 .46 1.04.38 1.02.48.94.69.83.94.7 1.13.57 1.22.44 1.22.35 1.14.3 1.07.33 1.01.42 1.01.56 1.01.73.94.83.8.77.83.6 1.23" filter="url(#a)"/><path d="m16.42-83.68 1.99-1.01 1.73-.61 1.15.28.89.51.86.3.92-.03 1.01-.23 1.09-.26 1.19-.18 1.25-.1 1.29-.09 1.32-.08 1.36-.03 1.42.07 1.42.2 1.33.31 1.54 1.02" filter="url(#a)"/><path d="m15.37-84.49.8-1.74 1.1-.11 1.27.43 1.22.7 1.14.54 1.12.05 1.14-.47 1.17-.74 1.15-.68 1.15-.44 1.2-.19 1.26-.07 1.25.03 1.18.19 1.23.34 1.66.33 1.98.47-21.02 1.36-1.76-.04-.96.38-.87.43-.92.21H9.9l-.92-.13-.91-.18-.91-.14-.9-.04-.89.13-.88.32-.9.45-.96.47-1.07.45-1.18.45-1.22.6-1.16.78-1.03.78-1.37.25" filter="url(#a)"/><path d="m10.52-85.37 1.47.18.92-.76 1.21-2.1 1.51-2.78 1.57-2.3 1.53-1.24 1.49-.42 1.49-.17 1.5-.35 1.49-.71 1.48-1.08 1.5-1.42 1.57-1.69 1.71-1.91 1.98-2.03 2.28-1.83 2.18-.81 1.07.96" filter="url(#a)"/><path d="m26.92-74.05-.86-.41-1.03-1.07-.92-.99-.78-.73-.71-.54-.7-.52-.73-.58-.8-.64-.92-.67-1.03-.64-1.1-.59-1.12-.55-1.07-.55-.97-.58-.85-.62-.71-.56-.71-.42-1.39-.66-.64-.38-.96-1.33-.75-.72-.92-.24-.98-.39-.94-.76-.93-1.11-.98-1.3-1.1-1.32-1.23-1.19-1.32-.98-1.37-.76-1.38-.59-1.37-.49-1.34-.52-1.29-.66-1.23-.89-1.19-1.14-1.14-1.24-1.15-1.1-1.19-.73-1.28-.28-1.31-.01-1.01-.17.13-1.24" filter="url(#a)"/><path d="m8.17-85.77-.1-1.07-.89.03-1.04.06-.95-.28-.89-.82-.94-1.43-1.07-1.91-1.21-2.04-1.31-1.76-1.37-1.24-1.38-.72-1.38-.45-1.34-.46-1.31-.7-1.23-.97-1.15-1.08-1.05-.93-1.02-.66-1.1-.61-1.42-1.05-2.17-1.98" filter="url(#a)"/><path d="m8.17-85.77-.13-.84-.78-1.41-.95-1.38-.89-1.57-.84-1.75-.91-1.64-1.07-1.18-1.22-.56-1.35-.07-1.4.14-1.41.08-1.38-.13-1.37-.37-1.31-.58-1.22-.7-1.05-.68-.97-.83-1.39-1.48 33.94 23.96-.92-.62-.79-.42-.83-.58-.92-.83L18-80.22l-1.04-1.04-1.03-.93-.97-.76-.91-.61-.87-.46-.85-.38-.86-.32-.92-.3-.92-.3-.82-.24-.58-.2-.48-.31-2.9-.14-.25.14-.5.32-.84.81-1.08 1.07-1.22.86-1.26.37-1.25-.03-1.2-.18-1.14-.05-1.06.23-.96.59-.85.92-.76 1.16-.72 1.26-.72 1.18-.77.91-.84.57-.88.36-.9.36-.89.62-.89.94-.85 1.22-.63 1.3-.5.52" filter="url(#a)"/><path d="m30.26-83.24-1.14.01-1.42-.4-1.21-.48-1-.36-.91-.23-.9-.15-.97-.09-1.07-.03h-1.16l-1.25-.01-1.25-.07-1.23-.15-1.14-.23-1.06-.28-.98-.27-.95-.19-.95-.1-.96-.02-.96.04-.96.06-.96.07-1.08.04-1.25-.01-.98.07m-2.81-.56-.85-.29-1.42-1.06-1.38-1.02-1.28-.52-1.21-.08-1.16.08h-1.1l-1.02-.15-.97-.32-.96-.41-.99-.41-1.03-.29-1.07-.11-1.09.07-1.14.12-1.24-.02-1.38-.31-1.47-.62-1.28-.78-.83-.27" filter="url(#a)"/><path d="m-17.64-71.73.78-1.11.51-1.66.66-1.57.84-1.24.93-.91.93-.69.91-.62.89-.58.87-.52.84-.4.82-.26.82-.27.83-.41.88-.66.95-.83 1.04-.76 1.12-.48 1.2-.16 1.33-.15 1.37-.67.83-.9-25.01-15.79 1.32 2.16 1.31.35 1.41-.31 1.37-.33 1.32.04 1.34.65 1.36 1.28 1.36 1.72 1.3 1.9 1.2 1.84 1.12 1.62 1.09 1.34 1.1 1.03 1.14.78 1.19.59 1.23.45 1.27.32 1.35.17 1.39.1.84.09 1.52-.1.99-.71.94-1.74 1.09-2.37 1.2-2.33 1.19-1.87 1.16-1.21 1.08-.49 1.05.1 1.04.33 1.11.1 1.23-.49 1.39-1.1 1.53-1.46 1.64-1.44 1.7-1.2 1.75-.94 1.73-.83 1.67-.79 1.55-.77 1.45-.78 1.38-1.09 1.25-1.68.56-1.87" filter="url(#a)"/></g><g fill="none" stroke="#000"><circle cx="11.168" cy="21.65" r="1.356" filter="url(#a)"/><circle cx="8.592" cy="18.134" r="2.932" filter="url(#a)"/><circle cx="10.732" cy="20.938" r="2.524" filter="url(#a)"/><circle cx="10.852" cy="18.134" r="1.05" filter="url(#a)"/><circle cx="9.82" cy="17.746" r="2.066" filter="url(#a)"/><circle cx="8.228" cy="19.942" r="1.488" filter="url(#a)"/><circle cx="10.22" cy="21.37" r="1.498" filter="url(#a)"/><circle cx="7.772" cy="20.726" r="2.13" filter="url(#a)"/><circle cx="10.864" cy="18.306" r="2.234" filter="url(#a)"/><circle cx="8" cy="19.83" r="2.352" filter="url(#a)"/><circle cx="-9.07" cy="27.048" r="2.218" filter="url(#a)"/><circle cx="-11.638" cy="23.332" r="2.364" filter="url(#a)"/><circle cx="-11.098" cy="23.788" r="1.83" filter="url(#a)"/><circle cx="-9.822" cy="26.536" r="2.712" filter="url(#a)"/><circle cx="-10.118" cy="24.904" r="1.884" filter="url(#a)"/><circle cx="-11.754" cy="23.856" r="1.278" filter="url(#a)"/><circle cx="-9.39" cy="24.812" r="2.482" filter="url(#a)"/><circle cx="-10.538" cy="25.788" r="1.11" filter="url(#a)"/><circle cx="-9.038" cy="27.22" r="1.26" filter="url(#a)"/><circle cx="-9.402" cy="25.716" r="2.92" filter="url(#a)"/></g><path fill="#D77F8C" stroke="#000" stroke-linejoin="round" stroke-width="3" d="m24.75 36.24.2.55-.01-.57.11.72-.11.21.08.29.05.3-.04.61-.09.63-.14.78-.03.46-.05-.11-.39 1.39-.24.78.1-.28-.26.76-.31.38-.46.67-.71 1.23-.57.67.77-.94-1.32 1.61-.41.47-.46.49.86-.91-.53.73-.41.35-1.82 1.77.37-.39-1.37 1.17v-.08l-1.28.99-.73.54.52-.38-.38.28-.89.57-1.1.74-1.29.69-.85.47.35-.2.62-.29-1.77.89-1.47.69h.01l-.8.38-.49.18-.82.35.21-.08-2.41.88-1.06.34-1.37.41.69-.2-1.9.51-.76.2-.92.2.37-.07-1.38.26-.77.14.05.01h-.11l-1.94.31-.98.1L-6 59l.69-.06-2.28.11-.48.07-.58-.03-1.64-.04.12.03-.11.03-1-.04-1.19-.08.07-.03-1.18-.12h-.04l-.5-.16-2.81-.53.75.2-.15-.08-1.32-.3-1.22-.6.26.15-.51-.23-1.17-.55.34.26-.22-.08-.35-.17-1.73-1.09.85.53-1.72-1.28.67.61-.26-.36-.65-.38-.67-.82-.21-.39.19.22-.81-1.39-.18.04-.06-.59-.01.42-.23-.98-.06.14-.2-.55-.01-.75-.33-1.24.17-.51.03.26-.05-.29-.06-.58.18-.93.15-.21.07-.6.05-.17.43-.83-.24.59.08-.31.54-1.25-.09.14.92-1.45h-.04l.54-.8.87-.99.24-.42-.22.38 1.31-1.5-.91.9.94-.94 1.14-1.07.88-.75-.92.83 1.74-1.45-.62.44 1.53-1.15.9-.59-.01-.01.84-.55 1.21-.7-.22.12.99-.6 1.29-.67.79-.42-.01-.01 1.04-.48.04-.02.6-.25.45-.21 2.78-1.09-.23.08.85-.3.94-.31 1.22-.38-.8.25 2.66-.75.22-.05-.48.12.22-.07 1.63-.36 2.25-.45-.68.11 1.83-.29-.76.12 2.48-.31 1.06-.09.36-.05-.76.07 3.13-.11.65-.04.75.01-1.05.02h.28l2.42.1.54.12-.07-.06 2.19.32-1.44-.24 1.73.28-.26-.01 1.16.19.17.07 1.3.41 1.5.52-1.13-.37.96.21.87.49.19.09.27.2 1.29.68-.16-.07.64.36.69.5-.11-.09.63.67.08.14.72.81h.05l.76 1.1-.07-.25.23.54-.17-.22.7 1.57" filter="url(#a)"/></svg>