<svg xmlns="http://www.w3.org/2000/svg" width="500" height="500" viewBox="-100 -100 200 200"><defs><clipPath id="c"><path d="m30.66 2.32-.52-.22-.54-.23-.58-.24-.6-.24-.62-.25-.65-.25-.68-.26-.69-.27-.72-.26-.74-.28-.76-.27-.77-.28-.8-.27-.81-.28-.82-.28-.89-.32-.92-.33-.95-.33-.96-.33-.99-.33-1.01-.33-1.03-.32-1.04-.32-1.05-.3-1.07-.3-1.07-.29-1.07-.28-1.08-.27-1.08-.25-1.08-.24L4-6.33l-1.07-.21-1.05-.19L.83-6.9-.2-7.06l-1.01-.14-1-.12-.98-.09-.96-.08-.93-.06-.91-.03-.88-.02h-.85l-.83.03-.79.05-.77.06-.73.09-.7.1-.66.13-.64.14-.59.16-.57.18-.53.2-.49.21-.46.22-.43.24-.39.25-.36.27-.33.27-.3.28-.27.3-.24.3-.21.3-.18.31-.16.32-.13.32-.11.32-.08.33-.06.34-.03.34-.01.35.02.35.04.35.06.35.08.36.11.36.13.36.15.36.16.36.08 4.74.43.12.44.12.44.11.45.11.47.11.47.1.48.1.49.1.5.09.51.09.51.08.53.08.53.07.54.07.55.06.55.07.57.05.59.05.59.05.59.04.61.03.62.03.63.02.63.01.65.01h.65l.65-.01.67-.01.67-.02.68-.03.68-.04.69-.04.7-.05.69-.05.71-.07.71-.07.71-.07.72-.08.72-.08.72-.09.73-.09.73-.1.73-.09.74-.1.74-.11.74-.1.74-.1.74-.1.75-.1.74-.1.75-.1.74-.09.75-.09.75-.08.74-.08.75-.07.74-.07.74-.06.74-.05.74-.05.73-.04.73-.02.72-.02.72-.02.6-.04.59-.04.59-.04.58-.03.57-.03.56-.03.55-.03.54-.02.53-.02.51-.01.5-.02.48-.01.47-.01h.45l.43-.01"/></clipPath><clipPath id="b"><path d="m-30.55 3.28.46-.21.49-.21.51-.23.54-.24.56-.24.59-.26.62-.26.64-.27.66-.28.68-.28.71-.3.73-.29.75-.31.76-.3.79-.32.81-.32.84-.34.88-.35.91-.36.93-.36.97-.37.99-.37 1.01-.38 1.03-.37 1.05-.38 1.07-.37 1.07-.36 1.09-.36 1.1-.34 1.09-.34 1.1-.32 1.1-.31 1.1-.3 1.09-.27 1.08-.26 1.07-.24 1.06-.22 1.04-.2 1.02-.17 1.01-.15.98-.12.96-.1.93-.08.91-.05.88-.02h.85l.82.02.78.06.76.08.72.1.69.13.66.15.62.17.59.2.55.21.52.24.49.26.46.27.42.29.39.3.37.32.33.33.31.34.28.35.25.35.23.37.21.37.18.38.16.4.13.4.11.4.09.42.06.42.04.43.02.43v.43l-.02.44-.04.44-.05.44.23 5.17-.38.17-.39.17-.4.16-.42.16-.42.16-.45.15-.45.14-.47.14-.48.14-.5.13-.51.12-.53.12-.54.11-.55.11-.57.1-.59.09-.6.09-.63.09-.63.07-.66.07-.68.07-.69.05-.71.05-.73.04-.75.03-.76.03-.79.01-.79.01h-.82l-.83-.01-.85-.02-.86-.03-.87-.04-.89-.04-.9-.05-.9-.06-.92-.06-.93-.07-.93-.08-.93-.08-.94-.09-.95-.1-.94-.09-.94-.1-.94-.1-.94-.11-.93-.1-.92-.11-.92-.1-.9-.11-.9-.1-.87-.1-.87-.1-.84-.09-.83-.09-.81-.09-.78-.08-.77-.07-.74-.07-.71-.05-.69-.06-.66-.04-.63-.03-.61-.03-.59-.06-.58-.05-.55-.05-.55-.04-.52-.05-.5-.03-.49-.04-.46-.03-.45-.03-.43-.03-.4-.03-.38-.02-.37-.02-.34-.02-.32-.01"/></clipPath><filter id="a"><feTurbulence baseFrequency=".05" numOctaves="3" result="noise" type="noise"/><feDisplacementMap in="SourceGraphic" in2="noise" scale="2"/></filter></defs><rect width="100%" height="100%" x="-100" y="-100" fill="#FFE4E1"/><path fill="wheat" stroke="#000" stroke-linejoin="round" stroke-width="1.667" d="m65.3.76-.16 2.07.32-.66-.34 1.58.24 1.24-.35 2.79v-.27l-.19 1.35.15 1.23-.4 2.3-.12.5-.35 2.56-.07 1.2.15.15-.71 3.34.4-1.8-.87 3.92.14.12-.24.81-.29.54.07.73-1.07 3.14-.49 1.71.39-.89-.68 2.92-.69 1.6-.87 2.21.67-.81-1.32 2.55.12.34-.86 1.58-.63 1.58.05.03-.67 1.57-1.15 2.59.6-.39-1.41 2.22.09-.07-.9 2.08-.67.74.63-.98-1.04 2.05-1.29 2.31-.95 1.33.1-.05-1.37 1.98.23-.38-1.27 1.79-.14.91-1.19.51-.99 1.86-1.33 1.66.59-.44-.8.65-2 2.24-.31.11-.07 1.03-1.17.39-.38.45-2.15 2.54-.55.62-.32.2-1.69 1.51.66-.92-1.38 1.17.28.11-3.3 2.18.67-.09-1.74 1.05.98-.45-2.62 1.3-.51.46-1.86 1.23 1.02-.82-1.37 1.01-1.19.62-.54.44-1.87.8-1.58.9.73-.49-1.5.66-.18.26-3.66 1.09-.79.5.28-.16-.41.12-1.93.77-.37.14-.43.01-2.69.84-.41-.07-2.11.33-.45.19-1.93.29.2-.4-.02.06-1.47.09-1.03.43.33-.33-3.63.45.23.04-1.43-.32-1.35-.16.45.02-1.6.22-1.85-.36h-1.4l-.44-.25.3.2-1.46-.27-1.74-.62-2.22-.42.4.45-1.56-.88.7.17-3.12-.47.02-.43-.83-.09-2.14-.55-1.44-.77.74.44-.69-.3-.37-.3-1.69-.73-.55-.39-1.16-.44-2.08-.95-1.4-1.05.45.13-.58-.42-1.33-.62-1.03-.64-1.09-.71-1.62-1.23.08-.59-1.39-.6-1.34-.95-1.2-1.15.24.52-1.36-1.78.42 1.02-1.04-1.57-1.93-1.74-.82-.77-.89-1.42.09-.06-.89-.41-1.76-1.99.54-.03-1.83-1.55-.87-1.06.79.03-1.62-1.72-1.32-1.32-.19-.16-.33-1-1.26-1.2.18-.14-.57-.84-.38-1.18-2.22-3.84.32.84-.78-1.56-.83-1.5-.31-.8-.12-.28-1.06-1.91-.41-1.29-.01-.6-.44-.88-.84-1.29-.51-1.53-.78-2.16-.22-1.38-.16-.12-.33-.43.15-.3-.92-3.58.02.73-.74-2.56-.06-.46-.37-1.12-.45-1.95-.54-2.07.17-.69-.3-1.27-.3-.74-.27-.88-.47-3.14.31.67-.38-1.61-.19-2.03-.37-3.71.08.96.05-1.21-.26.06-.07-2.51.17.68-.3-2.69.02-1.67.17-3.58-.04 1.17-.04-.83.1-2.32.12-2.95-.19-1.03.3-.38-.09-.11.09-1.86.2-1.22.07-.95.05-2.12.31.21.07-1.4.58-2.32.18-2.32-.13.66.68-4.49-.07.64.62-2.14.24-1.16.14-.44.44-1.13.96-2.97.2-2.09.29-.41-.21 1.61.26-2.32.76-1.52 1.28-3.1.19-.86.13-.56.2-.16.74-1.81.88-1.8v.33l1.01-2.43.29-.65 1.42-2.22-.26.06.91-1.96.03-.52.09.73 1.68-2.46-.25-.47.24-.32 1.91-2.36.63-1.33.79-.82.16.04 1.2-2.22.64.23 1.05-2.32.58-.36.14-.31 1.85-1.85.76-.91 1.29-1.42-.5.36 1.52-1.22.49-.45.31-.48 2.07-1.69.11-.5.62-.32 2.44-1.56-.56.18 1.33-1.24 1.46-1-1.04 1.23.21-.71 3.14-1.9-.08-.18 1.45-.52 2.41-1.11.32-.33-.13.05 1.7-.77-.55.08.85-.49 2.96-1.31.71-.34.45-.17-.31.49 2.33-.87.92-.62 2.1-.22-1.09.18 2.41-.69.8-.27.84-.02 1.71-.46-.33-.08 1.25.08 1.64-.21h-.35l1.41-.41 2.26-.11-1.37.19 3.5-.02.06-.09 2.49.08-.01.12.04.05 1.63.03 1.77-.15.37.5 1.41.1-.24-.34 2.65.71-.39.09 1.46-.01.92.14 1.16.46 1.34.51 1.59.44-.03-.08 1.81.66.4.32 1.05-.04 2.1.82.49.63-.04-.29 1.74.74 1.73 1.18.19.43 1.79.78 1.07.57.66.29-1.71-.77 1.42.67 1.25 1.19 1.91.69.19.2 1.38 1.31-.31-.33 1.63 1.57 1.22 1.17.32-.13.79 1.26 1.53.62 1.05 1.7.48.19.01-.46 1.14 1.48 2.07 2.54-1.4-1.58 2.03 1.94-.4.2 1.15.82 2.65 3.55.02-.13-.03.43.05-.28 1.83 1.95-.01 1.28.43-.1.88 1.52.54.57 1.48 2.17-.41-.27 1.61 2.92.12-.16.54 2.2 1.21 2.09.57.71-.26-.78 1.63 3.88.62 1.34-.59-1.15.57.65.56 1.96.5 1.76-.04-.12 1.31 2.93-.35.28.91 2.17.04.48.6 1.94.27 1.33-.1-.71.42 1.45.85 3.96-.22-.86.46 2.14.4 1.46-.01.86.61 3.63-.18-1.7.16 1.75.2.9-.2.48.69 4.09.04.67.04-.45.17 1.97-.18.8.16 2.16.17 3.03-.06-.22L65.3.76l-.16 2.07" filter="url(#a)"/><path fill="#fff" d="m-30.55 3.28.46-.21.49-.21.51-.23.54-.24.56-.24.59-.26.62-.26.64-.27.66-.28.68-.28.71-.3.73-.29.75-.31.76-.3.79-.32.81-.32.84-.34.88-.35.91-.36.93-.36.97-.37.99-.37 1.01-.38 1.03-.37 1.05-.38 1.07-.37 1.07-.36 1.09-.36 1.1-.34 1.09-.34 1.1-.32 1.1-.31 1.1-.3 1.09-.27 1.08-.26 1.07-.24 1.06-.22 1.04-.2 1.02-.17 1.01-.15.98-.12.96-.1.93-.08.91-.05.88-.02h.85l.82.02.78.06.76.08.72.1.69.13.66.15.62.17.59.2.55.21.52.24.49.26.46.27.42.29.39.3.37.32.33.33.31.34.28.35.25.35.23.37.21.37.18.38.16.4.13.4.11.4.09.42.06.42.04.43.02.43v.43l-.02.44-.04.44-.05.44.23 5.17-.38.17-.39.17-.4.16-.42.16-.42.16-.45.15-.45.14-.47.14-.48.14-.5.13-.51.12-.53.12-.54.11-.55.11-.57.1-.59.09-.6.09-.63.09-.63.07-.66.07-.68.07-.69.05-.71.05-.73.04-.75.03-.76.03-.79.01-.79.01h-.82l-.83-.01-.85-.02-.86-.03-.87-.04-.89-.04-.9-.05-.9-.06-.92-.06-.93-.07-.93-.08-.93-.08-.94-.09-.95-.1-.94-.09-.94-.1-.94-.1-.94-.11-.93-.1-.92-.11-.92-.1-.9-.11-.9-.1-.87-.1-.87-.1-.84-.09-.83-.09-.81-.09-.78-.08-.77-.07-.74-.07-.71-.05-.69-.06-.66-.04-.63-.03-.61-.03-.59-.06-.58-.05-.55-.05-.55-.04-.52-.05-.5-.03-.49-.04-.46-.03-.45-.03-.43-.03-.4-.03-.38-.02-.37-.02-.34-.02-.32-.01" filter="url(#a)" transform="translate(29.19 -23.38)"/><path fill="#fff" d="m30.66 2.32-.52-.22-.54-.23-.58-.24-.6-.24-.62-.25-.65-.25-.68-.26-.69-.27-.72-.26-.74-.28-.76-.27-.77-.28-.8-.27-.81-.28-.82-.28-.89-.32-.92-.33-.95-.33-.96-.33-.99-.33-1.01-.33-1.03-.32-1.04-.32-1.05-.3-1.07-.3-1.07-.29-1.07-.28-1.08-.27-1.08-.25-1.08-.24L4-6.33l-1.07-.21-1.05-.19L.83-6.9-.2-7.06l-1.01-.14-1-.12-.98-.09-.96-.08-.93-.06-.91-.03-.88-.02h-.85l-.83.03-.79.05-.77.06-.73.09-.7.1-.66.13-.64.14-.59.16-.57.18-.53.2-.49.21-.46.22-.43.24-.39.25-.36.27-.33.27-.3.28-.27.3-.24.3-.21.3-.18.31-.16.32-.13.32-.11.32-.08.33-.06.34-.03.34-.01.35.02.35.04.35.06.35.08.36.11.36.13.36.15.36.16.36.08 4.74.43.12.44.12.44.11.45.11.47.11.47.1.48.1.49.1.5.09.51.09.51.08.53.08.53.07.54.07.55.06.55.07.57.05.59.05.59.05.59.04.61.03.62.03.63.02.63.01.65.01h.65l.65-.01.67-.01.67-.02.68-.03.68-.04.69-.04.7-.05.69-.05.71-.07.71-.07.71-.07.72-.08.72-.08.72-.09.73-.09.73-.1.73-.09.74-.1.74-.11.74-.1.74-.1.74-.1.75-.1.74-.1.75-.1.74-.09.75-.09.75-.08.74-.08.75-.07.74-.07.74-.06.74-.05.74-.05.73-.04.73-.02.72-.02.72-.02.6-.04.59-.04.59-.04.58-.03.57-.03.56-.03.55-.03.54-.02.53-.02.51-.01.5-.02.48-.01.47-.01h.45l.43-.01" filter="url(#a)" transform="translate(-26.39 -27.59)"/><g fill="none" stroke="#000" transform="translate(29.19 -23.38)"><path stroke-linejoin="round" stroke-width="1.667" d="m-33.55 4.68.17-.09.2-.09.22-.12.26-.12.29-.13.31-.15.35-.16.37-.17.4-.18.43-.19.46-.21.49-.21.51-.23.54-.24.56-.24.59-.26.62-.26.64-.27.66-.28.68-.28.71-.3.73-.29.75-.31.76-.3.79-.32.81-.32.84-.34.88-.35.91-.36.93-.36.97-.37.99-.37 1.01-.38 1.03-.37 1.05-.38 1.07-.37 1.07-.36 1.09-.36 1.1-.34 1.09-.34 1.1-.32 1.1-.31 1.1-.3 1.09-.27 1.08-.26 1.07-.24 1.06-.22 1.04-.2 1.02-.17 1.01-.15.98-.12.96-.1.93-.08.91-.05.88-.02h.85l.82.02.78.06.76.08.72.1.69.13.66.15.62.17.59.2.55.21.52.24.49.26.46.27.42.29.39.3.37.32.33.33.31.34.28.35.25.35.23.37.21.37.18.38.16.4.13.4.11.4.09.42.06.42.04.43.02.43v.43l-.02.44-.04.44-.05.44-.08.45-.09.44-.11.45-.13.44-.14.45-.16.45-.17.44-.18.44-.2.44-.21.44" filter="url(#a)"/><path stroke-linejoin="round" stroke-width="2.222" d="m-34.3 5.78.09.02.12.02.14.01.17.02.18.01.21.01.23.02.25.01.28.01.29.02.32.01.34.02.37.02.38.02.4.03.43.03.45.03.46.03.49.04.5.03.52.05.55.04.55.05.58.05.59.06.61.03.63.03.66.04.69.06.71.05.74.07.77.07.78.08.81.09.83.09.84.09.87.1.87.1.9.1.9.11.92.1.92.11.93.1.94.11.94.1.94.1.94.09.95.1.94.09.93.08.93.08.93.07.92.06.9.06.9.05.89.04.87.04.86.03.85.02.83.01h.82l.79-.01.79-.01.76-.03.75-.03.73-.04.71-.05.69-.05.68-.07.66-.07.63-.07.63-.09.6-.09.59-.09.57-.1.55-.11.54-.11.53-.12.51-.12.5-.13.48-.14.47-.14.45-.14.45-.15.42-.16.42-.16.4-.16.39-.17.38-.17.36-.18.35-.17.35-.19.33-.18.31-.19.31-.19.3-.19.29-.2.28-.2.26-.2" filter="url(#a)"/><circle cx="-11.225" cy=".671" r="3.882" clip-path="url(#b)" filter="url(#a)"/><circle cx="-12.32" cy="-1.259" r="3.138" clip-path="url(#b)" filter="url(#a)"/><circle cx="-8.92" cy="1.986" r="4.17" clip-path="url(#b)" filter="url(#a)"/><circle cx="-12.065" cy="-1.739" r="4.474" clip-path="url(#b)" filter="url(#a)"/><circle cx="-7.755" cy="2.191" r="4.742" clip-path="url(#b)" filter="url(#a)"/><circle cx="-12.395" cy="-.099" r="3.53" clip-path="url(#b)" filter="url(#a)"/><circle cx="-11.025" cy="-.389" r="3.156" clip-path="url(#b)" filter="url(#a)"/><circle cx="-12.07" cy="-.774" r="4.562" clip-path="url(#b)" filter="url(#a)"/><circle cx="-7.6" cy="-.644" r="3.224" clip-path="url(#b)" filter="url(#a)"/><circle cx="-8.445" cy=".271" r="4.336" clip-path="url(#b)" filter="url(#a)"/></g><g fill="none" stroke="#000" transform="translate(-26.39 -27.59)"><path stroke-linejoin="round" stroke-width="2.222" d="m34.1 3.89-.19-.1-.23-.11-.26-.13-.29-.14-.33-.15-.37-.17-.39-.17-.43-.19-.46-.2-.49-.21-.52-.22-.54-.23-.58-.24-.6-.24-.62-.25-.65-.25-.68-.26-.69-.27-.72-.26-.74-.28-.76-.27-.77-.28-.8-.27-.81-.28-.82-.28-.89-.32-.92-.33-.95-.33-.96-.33-.99-.33-1.01-.33-1.03-.32-1.04-.32-1.05-.3-1.07-.3-1.07-.29-1.07-.28-1.08-.27-1.08-.25-1.08-.24L4-6.33l-1.07-.21-1.05-.19L.83-6.9-.2-7.06l-1.01-.14-1-.12-.98-.09-.96-.08-.93-.06-.91-.03-.88-.02h-.85l-.83.03-.79.05-.77.06-.73.09-.7.1-.66.13-.64.14-.59.16-.57.18-.53.2-.49.21-.46.22-.43.24-.39.25-.36.27-.33.27-.3.28-.27.3-.24.3-.21.3-.18.31-.16.32-.13.32-.11.32-.08.33-.06.34-.03.34-.01.35.02.35.04.35.06.35.08.36.11.36.13.36.15.36.16.36.19.36.21.36.22.36.24.36.26.36.28.36.29.35.31.36.32.35.34.35" filter="url(#a)"/><path stroke-linejoin="round" stroke-width="2.222" d="m34.4 5.21-.15.02-.2.01-.22.02h-.26l-.29.01h-.31l-.34.01h-.36l-.39.01h-.41l-.43.01h-.45l-.47.01-.48.01-.5.02-.51.01-.53.02-.54.02-.55.03-.56.03-.57.03-.58.03-.59.04-.59.04-.6.04-.72.02-.72.02-.73.02-.73.04-.74.05-.74.05-.74.06-.74.07-.75.07-.74.08-.75.08-.75.09-.74.09-.75.1-.74.1-.75.1-.74.1-.74.1-.74.1-.74.11-.74.1-.73.09-.73.1-.73.09-.72.09-.72.08-.72.08-.71.07-.71.07-.71.07-.69.05-.7.05-.69.04-.68.04-.68.03-.67.02-.67.01-.65.01h-.65l-.65-.01-.63-.01-.63-.02-.62-.03-.61-.03-.59-.04-.59-.05-.59-.05-.57-.05-.55-.07-.55-.06-.54-.07-.53-.07-.53-.08-.51-.08-.51-.09-.5-.09-.49-.1-.48-.1-.47-.1-.47-.11-.45-.11-.44-.11-.44-.12-.43-.12-.41-.12-.41-.13-.4-.12-.38-.13-.38-.13-.37-.13-.36-.14-.35-.13-.34-.14-.33-.14" filter="url(#a)"/><circle cx="-5.565" cy="-.057" r="4.358" clip-path="url(#c)" filter="url(#a)"/><circle cx="-1.185" cy="-2.802" r="4.87" clip-path="url(#c)" filter="url(#a)"/><circle cx="-5.275" cy="-2.637" r="3.62" clip-path="url(#c)" filter="url(#a)"/><circle cx="-2.63" cy="-1.457" r="4.718" clip-path="url(#c)" filter="url(#a)"/><circle cx="-1.605" cy="-4.187" r="3.06" clip-path="url(#c)" filter="url(#a)"/><circle cx="-1.83" cy="-1.707" r="3.624" clip-path="url(#c)" filter="url(#a)"/><circle cx="-4.335" cy="-2.472" r="4.266" clip-path="url(#c)" filter="url(#a)"/><circle cx="-4.075" cy="-3.587" r="4.284" clip-path="url(#c)" filter="url(#a)"/><circle cx="-2.465" cy="-4.142" r="4.15" clip-path="url(#c)" filter="url(#a)"/><circle cx="-3.63" cy="-2.987" r="4.242" clip-path="url(#c)" filter="url(#a)"/></g><g fill="none" stroke="#504444" stroke-linejoin="round" stroke-width="2"><path d="M52.1-51.37 36.33-49.1 11.91-59.99-1.71-67.6l-3.24-4.16 2.1-2.39 2.93-1.26 2.15-.2 2.25.83L8.34-73l5.69 2.52 5.8 2.83 2.97 2.36-2.42.98-8.3-.9L.52-67.57l-10.06-2.52-5.02-1.18-2.19.69-6.56.46-.82-8.83" filter="url(#a)"/><path d="m-31.24-74.96 36.32 2.29 12.07 2.38-1.22-.47-3.1.88-1.59 2.94-2.01 3.11-4.39 1.37-5.91-1.09-4.85-2.96-1.97-3.66.97-3.24 3.08-2.3 4.18-1.3 3.16-.28-1.75.71-6.79-.22 12.27-7.89" filter="url(#a)"/><path d="M61.82-27.65 28.71-59.09 13.47-69.18l-2.14-1.53.71.58.04 1.02-.55 1.52-.64 1.85-.25 1.5.67.62 1.82-.32 2.46-.89 2.12-.95 1.09-.62.26-.1.46.48 1.83 1.01 3.33 1.3 3.32.86.35-.73-5.62-3.2-12.43-4.96-16.28-3.94-13.02-1.1 6.03-6.39" filter="url(#a)"/><path d="m15.96-82.35-17.8 9.12 8.2 4.36 5.49 3.3 2.08 3.12.5 3.13-1.14 2.39-3.12.74-4.63-1.22-4.88-2.61-3.55-2.95-1.18-2.31 1.02-1.18 1.7-.27.56-.16-.88-.99-.01-1.91 3.9-1.12 9.94 2.98 37.45 12.57" filter="url(#a)"/><path d="M61.82-27.65 16.15-49.17l-8.32-8.74-2.92-4.61 1.39-2.14 4-.65 3.95.34 2.77.9 1.67.71.86-.27.29-1.41.28-1.79 1.13-.93 2.58.8 3.69 2.31 3.33 2.44 1.16.87-1.93-1.59-3.92-3.17-2.92-2.43.93.22 3.92 1.32-1.08-4.1L9.88-83.98" filter="url(#a)"/><path d="m58.68-37.71-26.03-17.7-21.21-9.34-7.6-2.28-1.08.25-.05-.36L.8-68.58l-4.6-1.53-6.31-.7-6.02.26-4.04.6-1.57.22.19-.49.9-.95 1.19-.75 2.2.21 4.81 1.61 8.96 2.9 13.08 3.39 14.43 2.46 10.99.25 4.87-1.89-3.98-7.65" filter="url(#a)"/><path d="M38.54-68.89 2.26-62.22l.54-3.3-1.86-3.17-4.53-.73-2.76.98.57 1.41 4.13 1.13 7.35.56 8.4-.32 5.3-1.66-1.24-3.08-6.75-3.29-7.14-.81-8.01 4.2-40 7.23" filter="url(#a)"/><path d="M58.14-39.17 18.95-64.5l-4.18-2.34 2.65.21-.91-2.96-2.96-4.15-1.44-2.62 1.35.03 3.06 2.4 2.87 3.87 1.35 4.26.18 3.88 1.25 3.31 4.77 3 7.45 2.02 4.46-1.67-1.45-6 13.09 7.42" filter="url(#a)"/><path d="m-50.94-53.61 20.17-8.78L-16-68.97l4.45-3.69-.33-1.08-2.56.49-3.39 1.02-2.37 1 .7.78 5.01.39 8.83-.15 10.5-.56 9.41-.45 6.49.33 2.97 1.07-.96.18-6.43-3.04-14.15-5.17-28.9.29" filter="url(#a)"/><path d="m10.95-83.9-20.8 17.96 5.28 2.5 7.63-2.58 7.38-3.76 5.65-2.95L18.9-74l-.44.27-3.42 1.08-5.08 1.11-4.14 1.01-.23 1.49 4.64 2.3 5.94 1.57.13-2.58-6.37-7.19 15.28-3.47" filter="url(#a)"/><path d="m-50.94-53.61 66.07 2.41 19.69-5.65 5.1-3.12.93.54-2.68 1.16-7.61-1.01-11.4-3.79-11.6-5.32-8.31-5.08-3.99-3.55-.76-1.4 1.94.96 6.57 3.31L15.59-69l9.81 2.85L2.25-84.88" filter="url(#a)"/><path d="m-40.2-67.2 32.58-10.46 13.2-1.67 4.54 3.65 1.98 5.75 3.05 4.88 3.76 2.28 1.72-.42-2.45-1.91-6.68-1.89-9.27-.88-8.93.14-4.34.33 4.32-.67 11.09-2.5 2.54-4.16-31.23-3.94" filter="url(#a)"/><path d="M60.1-32.86 45.83-48.12l-20-13.61-15.01-5.7-9.6-1.58-3.96-.89 2-1.07 6.54-.67 8.29.38 7.48 1.72 5.24 2.88 2.24 3.35-1.51 2.56-5.31.14-6.79-3.33-3.21-5.85 5.41-3.62 24.25 8.39" filter="url(#a)"/><path d="m13.03-83.3-24.64 3.68-2.45.71 8.16.4 11.45.73 10.22 1.35 7.12 1.82 3.67 1.53.6.43-1.45-.54-2.05-.23-1.74 1.68-2.22 3.73-4.59 3.23-5.67-1.23 4.22-5.08 27.56 5.11" filter="url(#a)"/><path d="m-12.97-83.17 3.02 14.46 14.44 5.27 4.98.9.9-1.4.18-2.83-.56-3.32-1.15-2.86-.28-1.71 2.17-.25 4.77 1.15 5.74 2.05 3.94 2.13-.48 1.37-6.1.15-10.53-.96-11.14-1.65-6.41-2.13L-7-75.07l11.53-.16 18.62 8.61 36.03 30.67" filter="url(#a)"/><path d="m11.87-83.76 1.44 9.51-2.46 9.14-1.77 3.29 6.14 2.17 11.2 2.97 10.45 2.58 6.54.89 2.79-.66.48-1.1-1.32-1.05-4.45-1.89-9.92-4.14-16.56-6.36-20.66-5.9-18.04-1.6-11.43 4.37" filter="url(#a)"/><path d="m-28.1-76.86 33.14 8.71-2.72-.68-.86-1.85 4.44-2.34 4.59-2.25 1.15-1.53-2.78-.53-5.14.45-4.94 1.33-2.04 2.22 2.62 3.19 7.18 4.07 9.41 4.26 7.76 3.08 1.55.07-9.65-4.54-23.9-8.07-24.91-1.97" filter="url(#a)"/><path d="m28.26-76.63-5.13 8.99-10.64.64-1.87 1.76 1.45 1.96.92.03-.94-2.19-3.11-3.2-4.64-2.52-4.63-.68-2.67 1.4.55 2.87 3.48 3.19 4.68 2.36 3.94.82 2.62-.73 2.46-1.56 4.08-1.31 5.79-.12 4.68 1.27-1.64 1.56-13.4-.74-25.67-5.62-15.3-9.11" filter="url(#a)"/><path d="m-43.74-63.07 50.22-2.84 16.98-.07 3.74-.7v-.43l-1.3-.83L24.56-69l.03-.06 1.81 1.8 2.28 3.16.42 2.88-2.99.98-5.86-1.49-6.21-3.21-3.94-3.5-1.25-2.54-1.17-1.09-5.14.23-10.71 1.04-8.71-.28L6.06-84.45" filter="url(#a)"/><path d="m-8.63-84.51 3.38.69 9 1.28 8.38 2.16 6.52 3.64 4.42 4.99 2.3 5.09 1.01 3.88 1.06 2.01 1.79.18 1.96-1.29 1.07-2.24-.34-2.48-1.41-2.02-2.13-1.44-2.87-1.4-2.82-1.63.42-.51 5.72 1.5-3.62-6.31" filter="url(#a)"/><path d="m15.96-82.35-11.25-.52-2.39.54-3.62 1.96-3.53 3.43-.26 3.68 3.93 2.36 6.51.28 6.69-1.31 5.14-1.65 2.69-.77-.23.95-3.12 3.1-4.89 5.33-4.45 6.69-1.67 5.37 2.19-.17 4.76-9.39-14.88-22.69" filter="url(#a)"/><path d="m53.83-48.61-16-11-7.9-2.03-.33.47.23-.94-1.78-2.09-2.99-1.64-2.81-.12-2.49 1.07-2.82 1-3.31-.02-3.18-.59-2.35.44-.08 2.02 3.48-1.36-18.88-21.03" filter="url(#a)"/><path d="m-22.13-80.13-.75 2.71 2.13 1.49 8.15-1.46 8.83-1.94 5.75-1.25 2.04-.05v1.57l.46 3.39 2.94 4.83 5.94 5.26 7.75 4.46 7.21 2.83 4.27 1.1-.17-.19-4.85-1.15-8.38-2.48-8.98-4.31-5.05-5.33 1.34-3.36-1.31.85-36.43-1.8" filter="url(#a)"/><path d="m-50.7-53.93 27.78-15.51 10.53-4.64 9.62-2.55 7.84-.66 4.39 1.18.65 2.2-1.84 2.27-1.78 1.73 1.07 1.1 5.14.84 7.11.91 3.68.61-5.97-.96-18.15-2.71-24.8-.49-18.89 7.9" filter="url(#a)"/><path d="m59.14-36.07-31.32-29.2-13.88-8.83-11.82-1.09-7.59 1.74-1.37 2.14 4.03 1.84 7.56 2.11 8.75 3.05 6.48 3.68.29 2.75-7.56-.01L.54-61.23l-9.43-4.79-.11-1.9 13.28 6.45 51.3 17.15" filter="url(#a)"/><path d="m2.29-84.83-21.04 11.47 3.6-1.07 10.13-1.35 11.46.92 9.73 3.31 5.86 4.41 1.05 3.52-2.79 1.2-4.04-.99-2.91-1.9-1.87-1.64-3.24-1.19-6.04-1.24-5.7-1.45.05-.83.4 1.36-36.64 2.74" filter="url(#a)"/><path d="m-10.01-83.97 29.37 14.2 7.13 8.63.18 2.21-1.3-.88-3.33-2.28-5.22-3.05-5.3-3.31-3.72-2.88-2.03-1.76-1.41-.44-1.53.41-.89.56 1.49.39 4.41.37 5.11.06 3.31-1.42 4.41-2.8 7.59-.67" filter="url(#a)"/><path d="M55.89-44.39 3.83-63.07-4.8-73.73l-1.5-3.87-4.37-.03-6.24 1.19-4.87.82-1.48.01 2.37-.43 5.71-.17 8.13.65L2.26-74l8.93 1.95L18-70.53l3.23.35-1.23-.84-5.93-1.14-10.66.06-15.01 2.23-16.46 3.37-9.65.32 6.26-8.07" filter="url(#a)"/><path d="m33.05-73.38-35.9-1.49-13.45 2.85-2.74 3.32 4.7 1.58 6.33.34 3.63.03.3.3-1.2.89-.79 1.54.27 1.84.72 1.43.33.29-.47-1.29-1.42-2.81-2.85-3.78-4.43-3.73-3.84-3.18 1.83-4.17 7.63-5.01" filter="url(#a)"/><path d="m-10.01-83.97-19.54 12.4.66 3.22 11.45 1.13 13.19 2.33 11.1 3.14 8.49 2.76 5.52 1.59 1.65.07-2.43-1.37-5.14-2.27-5.29-2.37-3.2-1.81-.47-1.04 1.19-.51 1.13-.33.08-.27-.53-.04.32.34 2.5.43 4.55-.18 3.94-1.57-.92-3.29-3.92-3.41 20.36 3.21" filter="url(#a)"/><path d="M34.68-71.81 6.74-77.3l-2.67 1.98 10.85 4.81 11.74 4.48 7.2 2.05 2.78-.21.27-.94-1.39-.6-3.92-.37-7.67-.52-10.72-.17-10.06 1.5L-1.66-62l.46 1.34-1.16-7.6 9.83-16.09" filter="url(#a)"/><path d="M-33.2-73.24-8-70.5l23.55 3.51 12.44.7 4.24-.17-1.42-.35-4.45-.2-4.29.13-1.95.08.4-.8.96-2.2-.34-3.17-2.12-2.84-2.55-.95-.27 2.21 4.86 5.54 9.9 6.49 6.39.08-15.61-17.89" filter="url(#a)"/><path d="m-.29-84.99-2.41.04-2.35.22-2.16.27-2.14.34-2.18.43-2.18.51-2.13.58-2.1.64-2.09.7-2.11.77-2.15.83-2.18.91-2.22.97-2.24 1.05-2.29 1.11-2.33 1.17-2.38 1.23-2.42 1.3-2.44 1.39-2.48 1.46-2.53 1.57-2.63 1.66-2.75 1.77-2.86 1.85-2.91 1.9-2.92 1.93-2.89 1.92-2.85 1.9-2.79 1.9-2.66 1.93-2.48 2.06-2.49 2.31-3.23 2.68" filter="url(#a)"/><path d="m-3.79-84.97-1.42.07-2.43.22-2.63.3-2.81.37-3.19.44-3.51.5-3.54.58-3.29.67-2.97.74-2.74.82-2.69.89-2.76.96-2.83 1.01-2.85 1.07-2.84 1.12-2.95 1.18-3.31 1.25-3.87 1.32-4.55 1.4-5.25 1.48-5.91 1.54-6.39 1.58-6.32 1.6-5.69 1.56-7.82 1.68" filter="url(#a)"/><path d="m-6.09-84.64-2.85.18-3.3.29-2.94.42-2.63.53-2.44.59-2.36.65-2.31.7-2.26.76-2.29.82-2.47.9-2.87.98-3.4 1.04-3.94 1.11-4.35 1.16-4.57 1.22-4.6 1.28-4.53 1.36-4.41 1.45-4.28 1.54-4.15 1.64-4.04 1.77-4.11 1.87-4.52 1.94-5.32 1.95-6.33 1.92-6.99 1.87-6.49 1.73-3.77 1.56" filter="url(#a)"/><path d="m-8.3-84.43-2.56.57-2.39.61-2.18.63-2.14.65-2.27.71-2.46.76-2.61.83-2.65.91-2.62.99-2.64 1.06-2.77 1.11-3.01 1.17-3.3 1.23-3.49 1.3-3.52 1.37-3.4 1.46-3.24 1.56-3.18 1.66-3.29 1.77-3.5 1.86-3.68 1.91-3.61 1.93-3.24 1.92-2.72 1.87-2.5 1.85-2.99 1.87-3.7 1.98-2.04 2.12" filter="url(#a)"/><path d="m-11.65-83.68-2.08.56-2.44.62-2.66.69-2.69.78-2.48.87-2.27.93-2.25.98-2.45 1.04-2.67 1.1-2.8 1.15-2.78 1.21-2.67 1.28-2.6 1.35-2.66 1.42-2.9 1.49-3.29 1.55-3.73 1.61-4.1 1.66-4.22 1.74-4.06 1.84-3.79 1.98-3.84 2.1-4.3 2.14-4.27 1.88-1.8.82" filter="url(#a)"/><path d="m-14.06-82.99-1.53.41-1.84.63-1.89.71-1.94.76-2.06.84-2.24.93-2.44 1-2.58 1.08-2.63 1.13-2.58 1.18-2.44 1.25-2.25 1.32-2.04 1.4-1.86 1.48-1.75 1.59-1.72 1.68-1.76 1.78-1.85 1.85-1.91 1.9-1.91 1.92-1.86 1.92-1.82 1.92-1.86 1.93-2.01 1.98-2.18 2.05-2.26 2.1-2.18 2.1-1.98 1.99-1.73 1.79-1.72 1.54" filter="url(#a)"/><path d="m-14.06-82.99-1.57.4-1.98.63-2.1.7-2.35.75-2.78.83-3.18.92-3.29.99-3.02 1.06-2.54 1.12-2.14 1.17-2.06 1.22-2.3 1.29-2.67 1.37-2.91 1.45-2.9 1.55-2.72 1.66-2.61 1.77-2.73 1.86-3.13 1.92-3.64 1.94-4.05 1.91-4.33 1.86-4.67 1.8-4.83 1.8-2.72 2.09" filter="url(#a)"/><path d="m-15.07-82.95-2.53.97-2.05.72-2.61.76-3.38.82-3.85.92-3.95 1-3.95 1.07-4.1 1.12-4.36 1.17-4.59 1.22-4.63 1.29-4.42 1.37-4.03 1.45-3.56 1.55-3.15 1.66-2.97 1.77-3.15 1.86-3.7 1.92-4.42 1.93-4.91 1.91-5.04 1.86-5.22 1.79-6.13 1.8-7.19 2.09" filter="url(#a)"/><path d="m-15.99-82.33-2.07.5-3.08.79-3.42.91-2.8.95-2.05 1-1.69 1.06-1.75 1.11-2.07 1.16-2.47 1.23-2.84 1.3-3.17 1.37-3.42 1.44-3.61 1.52-3.67 1.57-3.56 1.63-3.28 1.7-2.93 1.78-2.66 1.86-2.61 1.93-2.8 1.97-3.08 1.95-3.36 1.89-3.67 1.84-4.33 1.88-5.58 2.1-6.99 2.47-5.91 3.01" filter="url(#a)"/><path d="m-18.46-81.78-3.13 1.21-2.46.9-2.62.92-3.11 1.03-3.26 1.09-2.97 1.14-2.61 1.17-2.56 1.23-2.87 1.3-3.36 1.39-3.76 1.47-3.93 1.56-4.01 1.67-4.16 1.78-4.6 1.86-5.25 1.91-5.86 1.92-6 1.9-5.52 1.88-4.79 1.86-4.67 1.91-5.96 2.05-7.91 2.28-5.47 2.66M64.15-16.71l.32-1.98-.07-2.19-.6-2.4-.61-2.45-.39-2.43-.21-2.4-.18-2.39-.31-2.38-.5-2.38-.66-2.37-.78-2.37-.87-2.34-.94-2.31-1.01-2.23-1.07-2.15-1.15-2.04-1.23-1.95-1.31-1.87-1.37-1.83-1.43-1.8-1.44-1.76-1.44-1.72-1.42-1.65-1.4-1.58-1.41-1.51-1.46-1.44L39.67-72l-1.6-1.3-1.65-1.21-1.65-1.13-1.67-1.03-1.77-1.01-1.98-1.07-2.09-1.12-1.41-.8m-48.28.95-1.84.89-2.07 1.1-1.98 1.16-1.8 1.16-1.7 1.18-1.67 1.22-1.7 1.31-1.73 1.4-1.72 1.48-1.72 1.58-1.7 1.69-1.7 1.79-1.68 1.87-1.65 1.91-1.64 1.91-1.6 1.91-1.57 1.89-1.56 1.9-1.52 1.96-1.47 2.04-1.38 2.12-1.26 2.15-1.18 2.01-1.21 1.84" filter="url(#a)"/><path d="m-24.13-78.95-1.56.74-2.21 1.15-1.98 1.19-1.71 1.2-1.62 1.25-1.66 1.34-1.78 1.42-1.9 1.49-2 1.56-2.02 1.63-2 1.69-1.96 1.76-1.93 1.82-1.94 1.89-1.97 1.92-1.98 1.96-1.94 1.98-1.81 2.01-1.61 2.04-1.39 2.1-1.19 2.18-1.09 2.26-1.1 2.33-1.2 2.38-1.37 2.43-1.52 2.46-1.62 2.51-1.65 2.56-1.6 2.63-1.46 2.68-1.31 2.71-1.21 2.66-1.18 2.55-1.17 2.37-1.08 2.15-.94 1.89-1.17 1.59" filter="url(#a)"/><path d="m-24.13-78.95-1.42.74-2.74 1.15-3.35 1.19-3.84 1.2-4.13 1.25-4 1.34-3.44 1.42-2.73 1.49-2.18 1.56-1.96 1.63-2.04 1.69-2.23 1.76-2.37 1.82-2.34 1.89-2.18 1.92-1.93 1.96-1.74 1.98-1.71 2.01-1.85 2.04-2.2 2.1-2.67 2.18-3.17 2.26-3.57 2.33-3.75 2.38-3.59 2.43-3.08 2.46-2.33 2.51-1.57 2.56-1.19 2.63-1.43 2.68-2.36 2.71-3.6 2.66-4.56 2.55-4.67 2.37-3.81 2.15-2.62 1.89-1.79 1.59m188.6-8.54.06-3.97 1.75-3.25 2.37-2.74 1.33-2.52.39-2.44.22-2.39.4-2.31.4-2.24-.02-2.17-.73-2.14-1.47-2.16-1.99-2.19-2.1-2.2-1.79-2.2-1.13-2.17-.27-2.1.52-2.02 1.08-1.93 1.21-1.84.93-1.76.24-1.69-.67-1.64-1.59-1.61-2.32-1.58-2.72-1.55-2.7-1.5-2.39-1.43-1.93-1.33-1.54-1.2-1.36-1.08-1.46-.99-1.88-.96-2.53-.99-3.09-1.03-3.85-1.16" filter="url(#a)"/><path d="m64.33-15.01-.47-3.97-.25-3.24-.31-2.74-.52-2.51-.68-2.44-.73-2.39-.69-2.31-.63-2.23-.64-2.16-.7-2.14-.78-2.16-.89-2.18-.95-2.2-1.01-2.21-1.05-2.17-1.11-2.1-1.2-2.02-1.31-1.93-1.44-1.84-1.54-1.76-1.63-1.68-1.69-1.64-1.73-1.61-1.74-1.58-1.75-1.56-1.73-1.53-1.7-1.46-1.63-1.35-1.57-1.2-1.49-1.03-1.47-.91-1.64-.98-1.99-1.35" filter="url(#a)"/><path d="m64.33-15.01.24-3.92.58-3.22.46-2.7-.01-2.48-.47-2.4-.69-2.37-.57-2.3-.26-2.2.12-2.12.39-2.07.46-2.09.26-2.14-.18-2.21-.78-2.23-1.37-2.23-1.74-2.16L59-55.92l-1.5-1.95-1.1-1.82-.82-1.67-.52-1.36.05-.72m-86.56-10.81-.9.29-1.88 1.02-2.7 1.36-3.58 1.46-4.5 1.53-5.07 1.62-4.92 1.73-4.31 1.84-3.79 1.9-3.79 1.93-4.25 1.93-4.7 1.93-4.7 1.93-4.15 1.95-3.34 1.99-2.8 2.03-2.84 2.07-3.33 2.1-3.88 2.12-3.97 2.16-3.55 2.21-3.03 2.29-3.07 2.36-3.93 2.43-5.21 2.41-6.74 2.19-9.17 1.67" filter="url(#a)"/><path d="m-30.41-75.48-2.77 1.85-2.78 1.51-2.62 1.48-2.23 1.52-1.91 1.59-1.92 1.63-2.21 1.69-2.64 1.76-3.03 1.84-3.24 1.9-3.2 1.95-2.95 1.97-2.58 1.98-2.21 2-1.94 2.03-1.77 2.1-1.71 2.18-1.69 2.26-1.69 2.34-1.73 2.39-1.81 2.42-1.97 2.47-2.22 2.5-2.48 2.56-2.67 2.63-2.64 2.66-2.34 2.68-1.94 2.63-1.8 2.53-2.22 2.38-3.16 2.24-4 2.22-3.57 2.55-.62 3.84" filter="url(#a)"/><path d="m-31.87-74.48-1.45 1.31-1.9 1.56-1.83 1.54-1.8 1.54-1.97 1.63-2.26 1.75-2.56 1.86-2.82 1.92-2.93 1.94-2.86 1.94-2.65 1.94-2.36 1.94-2.07 1.97-1.87 2-1.77 2.05-1.74 2.08-1.76 2.12-1.73 2.14-1.67 2.19-1.6 2.24-1.65 2.3-1.88 2.36-2.24 2.42-2.54 2.47-2.58 2.54-2.39 2.65-2.14 2.8-1.92 2.88-1.38 2.72-.2 2.61" filter="url(#a)"/><path d="m-32.64-73.42-2.77 1.82-2.24 1.61-2.11 1.52-2.24 1.6-2.37 1.76-2.46 1.88-2.57 1.94-2.77 1.96-3.01 1.95-3.23 1.94-3.39 1.95-3.45 1.97-3.46 2.02-3.42 2.05-3.28 2.09-2.98 2.13-2.52 2.16-1.94 2.2-1.42 2.26-1.1 2.32-1.15 2.37-1.56 2.44-2.26 2.5-3.1 2.57-3.84 2.65-4.31 2.72-4.33 2.75-3.9 2.69-3.19 2.55-2.49 2.36-1.97 2.28-.54 2.89" filter="url(#a)"/><path d="m-35.08-71.86-1.45 1.19-2.79 1.53-3.58 1.59-3.35 1.62-2.61 1.66-1.98 1.73-1.77 1.81-1.98 1.89-2.44 1.96-2.94 1.96-3.34 1.95-3.6 1.93-3.86 1.95-4.28 2.02-5.1 2.13-6.31 2.25-7.68 2.34-8.65 2.4-8.51 2.4-7.06 2.35-5.03 2.33-4.28 2.38-6.07 2.54-5.89 2.79" filter="url(#a)"/><path d="m-35.7-71.54-1.81 1.69-1.58 1.38-1.54 1.51-1.59 1.72-1.63 1.89-1.62 1.94-1.57 1.95-1.51 1.92-1.44 1.9-1.4 1.9-1.35 1.92-1.29 1.97-1.23 2.02-1.15 2.06-1.08 2.08-1.04 2.09-1.05 2.12-1.1 2.17-1.11 2.26-1.04 2.32-.94 2.54-1.26 3.29" filter="url(#a)"/><path d="m-38.19-68.87-1.83 1.51-1.79 1.56-2.19 1.63-2.51 1.71-2.63 1.81-2.62 1.92-2.58 1.98-2.55 1.98-2.62 1.94-2.83 1.93-3.24 1.94-3.87 2.02-4.69 2.14-5.64 2.25-6.49 2.34-6.99 2.39-6.89 2.39-6.09 2.37-4.75 2.37-3.43 2.44-3.07 2.62-4.38 2.92-4.74 3.4" filter="url(#a)"/><path d="m-38.19-68.87-2.63 1.53-3.85 1.57-3.32 1.66-2.59 1.74-2.34 1.84-2.32 1.93-2.18 1.99-1.92 1.99-1.65 1.98-1.55 1.97-1.7 2.01-2.02 2.08-2.4 2.18-2.71 2.27-2.88 2.34-2.88 2.4-2.73 2.42-2.52 2.46-2.29 2.49-2.1 2.56-2.01 2.61-2.09 2.67-2.32 2.67-2.61 2.62-2.81 2.51-2.87 2.37-2.75 2.22-2.33 2.21-1.45 2.55-.88 3.83m67.9-64.94-2.02 2.06-1.59 1.7-1.47 1.8-1.43 1.95-1.4 2.02-1.33 2-1.26 1.95-1.2 1.9-1.15 1.93-1.15 2.02-1.14 2.15-1.12 2.26-1.07 2.34-1.01 2.39-.95 2.39-.91 2.37-.86 2.39-.82 2.47-.78 2.61-.75 2.77-.67 2.78-.45 2.24" filter="url(#a)"/><path d="m-43.6-63.38-1.25 1.15-1.86 1.75-2.5 2.01-2.78 2.09-2.69 2.05-2.48 1.98-2.23 1.96-2.02 2.01-1.82 2.11-1.67 2.21-1.58 2.31-1.59 2.38-1.76 2.42-2 2.46-2.29 2.49-2.51 2.53-2.66 2.57-2.71 2.61-2.69 2.62-2.61 2.6-2.44 2.56-2.14 2.5-1.69 2.44-1.18 2.41-.69 2.41-.37 2.43-.25 2.46-.35 2.51-.67 2.51-1.2 2.5-1.85 2.48-2.34 2.52-2.31 2.6-1.64 2.7-.49 2.73 1.1 2.44" filter="url(#a)"/><path d="m-43.74-63.07-1.61 2.28-1.57 1.94-1.47 1.86-1.34 1.87-1.23 1.89-1.16 1.94-1.11 2.01-1.07 2.06-1.03 2.09-.99 2.12-.95 2.15-.92 2.19-.87 2.24-.83 2.31-.79 2.37-.74 2.42-.71 2.49-.67 2.56-.63 2.65-.57 2.71-.51 2.74-.42 2.67-.34 2.52-.25 2.34-.18 2.26-.05 2.87" filter="url(#a)"/><path d="m-45.37-60.39-1.88 1.71-1.51 1.77-1.45 1.85-1.6 1.88-1.94 1.93-2.36 2.01-2.75 2.06-2.98 2.1-3.06 2.12-2.94 2.14-2.71 2.19-2.43 2.24-2.18 2.31-2.05 2.36-2 2.43-1.98 2.48-1.88 2.56-1.65 2.64-1.39 2.72-1.29 2.73-1.37 2.67-1.57 2.51-1.77 2.34-1.94 2.25-1.08 2.87M63.73-19.5l2.06-3.12 1.85-2.55.61-2.35-.44-2.37-1.07-2.37-1.22-2.31-.96-2.21-.51-2.11.01-2.08.48-2.11.82-2.15.91-2.21.76-2.22.47-2.2.2-2.14.05-2.04.04-1.93.01-1.82-.16-1.72-.54-1.65-.92-1.6-.92-1.58-.49-1.5-1.66-1.67" filter="url(#a)"/><path d="m-47.21-58.4-1.64 1.51-1.84 1.91-1.86 1.9-2 1.95-1.91 2.03-1.68 2.09-1.54 2.12-1.7 2.14-2.08 2.17-2.54 2.21-2.9 2.28-3.03 2.33-2.93 2.4-2.67 2.46-2.34 2.53-2.09 2.59-1.98 2.63-1.98 2.67-2.03 2.67-2 2.64-1.83 2.6-1.56 2.58-1.29 2.6-1.15 2.67-1.23 2.74-1.47 2.76-1.74 2.66-1.95 2.4-1.96 2.08-1.16 2.21" filter="url(#a)"/><path d="m-47.21-58.4-1.62 1.52-1.51 1.92-1.46 1.92-1.58 1.96-1.58 2.04-1.43 2.1-1.25 2.14-1.14 2.16-1.21 2.18-1.41 2.24-1.74 2.3-2.11 2.35-2.47 2.43-2.74 2.48-2.85 2.55-2.81 2.6-2.59 2.64-2.21 2.66-1.77 2.66-1.37 2.66-1.14 2.63-1.15 2.64-1.4 2.64-1.82 2.65-2.25 2.67-2.57 2.65-2.65 2.61-2.45 2.55-2.02 2.5-1.46 2.45-.95 2.43-.67 2.41-.68 2.38-.73 2.41-.56 2.5-1.51 2.19" filter="url(#a)"/><path d="m-48.79-56.29.94 2.42.44 1.91-1.29 1.7-1.53 1.83-.94 2.04-.28 2.22v2.34l-.05 2.39-.23 2.42-.25 2.42-.05 2.43.37 2.47.81 2.54 1.14 2.61 1.19 2.65.97 2.65.57 2.59.2 2.47v2.34l.08 2.24.45 2.22.99 2.31 1.46 2.31 2.64 1.23" filter="url(#a)"/><path d="m-48.79-56.29-1.27 2.44-.8 1.92-.56 1.73-.56 1.87-.45 2.07-.1 2.25.44 2.36.99 2.41 1.47 2.44 1.84 2.45 2.1 2.47 2.26 2.52 2.35 2.57 2.4 2.62 2.45 2.62 2.52 2.61 2.6 2.55 2.72 2.49 2.81 2.42 2.79 2.38 2.58 2.37 2.16 2.42 1.53 2.46.87 2.51.31 2.51.05 2.47.26 2.45 1.02 2.48 2.09 2.6 2.95 2.78 4.1 3.17M-50.7-53.93l-4.23 1.16-3.66 1.73-1.05 2.04-.7 2.15-2.3 2.17-4.48 2.16-5.94 2.18-6.09 2.24-5.14 2.3-3.76 2.36-2.56 2.44-1.75 2.49-1.24 2.56-.78 2.61-.31 2.65.18 2.66.55 2.67.7 2.65.6 2.65.28 2.63-.13 2.64-.59 2.66-1.01 2.65-1.38 2.64-1.73 2.6-2.17 2.55-2.72 2.5-3.34 2.46-3.76 2.43-3.69 2.41-2.97 2.4-1.76 2.38-.53 2.38.15 2.36-.1 2.33-1.44 2.22-4.31 1.5M63.33-20.96l-1.73-2.27-3-2.66-3.01-2.46-2.3-2.38-1.6-2.37-1.11-2.39-.74-2.38-.43-2.37-.27-2.36-.3-2.35-.54-2.31-.9-2.24-1.32-2.13-1.7-2.04-2.01-1.94-2.2-1.87-2.3-1.82-2.29-1.79-2.23-1.75-2.1-1.71-1.93-1.64-1.73-1.57-1.53-1.5-1.41-1.43-1.37-1.36-1.44-1.28-1.6-1.21-1.73-1.13-1.81-1.07-1.78-1.03-1.72-1.01-1.66-.98-1.62-.93-1.55-.83-1.45-.73-1.21-.54m57.62 61.83-.44-2.22-.5-2.63-.44-2.43-.47-2.33-.56-2.34-.67-2.35-.78-2.34-.89-2.33-1-2.34-1.08-2.34-1.11-2.32-1.12-2.28-1.08-2.17-1.04-2.02-1.04-1.87-1.09-1.78-1.22-1.76-1.39-1.82-1.5-1.87-1.51-1.83-1.36-1.62-1.21-1.4-1.25-1.54" filter="url(#a)"/><path d="m63.33-20.96-.28-2.26.34-2.66.66-2.47.26-2.37-.23-2.37-.4-2.38-.31-2.38-.2-2.37-.19-2.37-.28-2.35-.41-2.31-.53-2.23-.66-2.14-.82-2.03-1.04-1.94-1.3-1.87-1.53-1.82-1.67-1.79-1.64-1.75-1.49-1.71-1.23-1.65-.97-1.57-.8-1.5-.79-1.43-.92-1.36-1.16-1.28-1.42-1.21-1.65-1.13-1.89-1.07-2.17-1.02-2.52-1.02-2.78-1.01-2.85-.94-2.8-.84-2.82-.87" filter="url(#a)"/><path d="m63.33-20.96 1.79-2.24 1.24-2.64.13-2.45.4-2.35 1.35-2.35 2.17-2.36 2.39-2.36 2.02-2.35 1.25-2.35.4-2.34-.26-2.32-.6-2.25-.62-2.15-.45-2.03-.23-1.91-.1-1.83-.08-1.8-.14-1.8-.27-1.79-.47-1.75-.8-1.66-1.25-1.57-1.69-1.49-1.82-1.43-1.38-1.37-.44-1.3.29-1.36M-52.49-50.89l-5.8 2.13-.31 2.38.02 2.45-.65 2.47-1.4 2.48-2.05 2.46-2.55 2.46-2.85 2.48-2.97 2.53-3 2.58-3.09 2.63-3.2 2.63-3.22 2.61-3 2.55-2.53 2.48-1.98 2.44-1.58 2.4-1.52 2.41-1.78 2.43-2.21 2.46-2.51 2.49-2.46 2.51-2.03 2.51-1.38 2.53-.83 2.55-.78 2.59-1.37 2.64-2.44 2.67-3.54 2.69-4.05 2.71-3.63 2.7-2.4 2.63-1.01 2.32.59 1.45" filter="url(#a)"/><path d="m-54.56-46.77-2.11 2.45-2.03 2.01-2.06 2.02-2.68 2.15-3.08 2.28-2.95 2.35-2.67 2.4-2.72 2.45-3.33 2.51-4.3 2.57-5.24 2.64-5.71 2.68-5.45 2.67-4.49 2.61-3.24 2.55-2.43 2.52-2.74 2.55-4.28 2.65-6.2 2.76-7.18 2.82-6.43 2.71-4.9 2.29-5.8 1.51m90.72-53.07-1.21 1.6-1.87 1.91-2.36 2.19-2.56 2.33-2.6 2.41-2.36 2.45-1.83 2.5-1.22 2.56-.72 2.63-.46 2.66-.48 2.69-.68 2.67-.95 2.65-1.21 2.62-1.39 2.62-1.49 2.63-1.55 2.65-1.62 2.65-1.73 2.63-1.91 2.59-2.16 2.53-2.43 2.49-2.67 2.45-2.76 2.42-2.59 2.4-2.13 2.39-1.51 2.37-.97 2.36-.79 2.35-1.02 2.32-1.48 2.27-1.56 2.25-.14 2.67" filter="url(#a)"/><path d="m-55.86-44.02-3.43 2.76-5.52 2.45-4.54 2.45-2.31 2.42-.89 2.4-.69 2.47-1.25 2.57-1.87 2.64-2.1 2.66-1.87 2.62-1.41 2.54-1.09 2.45-1.13 2.37-1.57 2.33-2.29 2.34-3.04 2.39-3.61 2.46-3.9 2.49-3.91 2.5-3.76 2.46-3.42 2.42-2.76 2.45-1.74 2.59-1.18 2.76-2.55 3.15" filter="url(#a)"/><path d="m-55.86-44.02-1.39 2.77-1.39 2.46-1.3 2.46-1.19 2.43-1.29 2.42-1.7 2.49-2.38 2.58-3.18 2.65-3.9 2.66-4.29 2.62-4.25 2.54-3.77 2.46-3.02 2.39-2.14 2.36-1.37 2.37-.89 2.41-.82 2.45-1.15 2.49-1.67 2.49-2.08 2.49-2.07 2.49-1.65 2.52-1.1 2.57-.73 2.63-.52 2.66-.18 2.65.19 2.65-.76 2.82" filter="url(#a)"/><path d="m-57.48-40.41-2.42 1.73-1.22 2.48-2.04 2.45-2.99 2.42-3.15 2.5-2.47 2.6-1.45 2.67-.69 2.68-.43 2.63-.65 2.55-1.07 2.47-1.42 2.41-1.51 2.39-1.34 2.4-.95 2.44-.5 2.46-.09 2.5.15 2.51.18 2.52-.03 2.54-.46 2.56-1.03 2.6-1.65 2.63-2.16 2.65-2.47 2.65-2.47 2.62-2.09 2.56-1.36 2.44-.41 2.31.45 2.17.79 2.15.38 2.23-.45 2.28-.98 2.02" filter="url(#a)"/><path d="m-58-38.83-1.39 3.29-.93 2.43-1.11 2.38-1.47 2.45-1.84 2.5-2.16 2.59-2.39 2.66-2.5 2.7-2.53 2.67-2.42 2.6-2.15 2.55-1.61 2.53-.86 2.57-.06 2.63.48 2.69.51 2.68-.03 2.58-.88 2.45-1.66 2.36-2.07 2.44-2.16 2.67-2.56 2.65M-58-38.83l-1.28 3.32-.74 2.46-.62 2.43-.55 2.48-.49 2.55-.46 2.63-.44 2.7-.4 2.71-.34 2.68-.26 2.64-.2 2.61-.13 2.6-.06 2.62v2.65l.09 2.65.17 2.62.26 2.59.33 2.52.41 2.48.45 2.44.47 2.41.49 2.4.48 2.38.51 2.36.54 2.36.61 2.34.66 2.32.72 2.31.81 2.34.98 2.51 1.28 2.76" filter="url(#a)"/><path d="m-60.09-33.5-1.63 2.75-1.49 2.71-.96 2.58-.95 2.63-1.07 2.73-1.03 2.75-.85 2.7-.61 2.64-.38 2.6-.21 2.59-.09 2.62-.03 2.65-.04 2.65-.07 2.63-.11 2.58-.13 2.52-.11 2.48-.07 2.44-.01 2.41.05 2.4.13 2.38.23 2.37.35 2.35.47 2.35.57 2.33.56 2.34.46 2.34.34 2.36.25 2.35.24 2.29.35 2.13.28 1.65" filter="url(#a)"/><path d="m-60.38-33.09-1.71 3.88-2.04 3.05-3.21 2.89-4.59 2.8-4.94 2.68-3.93 2.54-2.23 2.43-.69 2.37.18 2.37.33 2.39.08 2.44-.25 2.49-.43 2.51-.39 2.52-.16 2.54.13 2.55.4 2.58.57 2.61.62 2.62.53 2.62.35 2.61.08 2.57-.23 2.5-.57 2.42-.89 2.34-1.12 2.26-1.23 2.21-1.23 2.18-1.11 2.16-.89 2.15-.58 2.15-.2 2.16.12 2.21.15 2.24-.2 2.17-.64 1.94.33 1.64M62.24-26.2l-.95-1.5-1.24-2.3-1.95-2.46-2.52-2.36-2.79-2.19-2.89-2.08-2.88-2.04-2.72-2.08-2.36-2.16-1.9-2.21-1.47-2.23L37.36-52l-1.2-2.12-1.36-2.03-1.64-1.92-1.98-1.8-2.33-1.72-2.62-1.64-2.77-1.6-2.73-1.55-2.55-1.5L16-69.32l-1.2-1.32m46.25 40.43 18.36-2.62-3.08-2.42-2.34-2.14.91-2 1.88-2.01 1.32-2.09.69-2.19.45-2.23.37-2.23.06-2.19-.59-2.1-1.52-2-2.46-1.91-3.2-1.8-3.57-1.73-3.46-1.66-2.89-1.62-2.03-1.59-1.1-1.57-.4-1.55-.13-1.52-.33-1.45-.84-1.34-1.32-1.18-1.42-1.02-1.09-.9-.89-.98-2.87-1.34" filter="url(#a)"/><path d="m61.01-30.69-.67-2.52-.71-2.56-.39-2.41.06-2.34.35-2.35.33-2.36.02-2.34-.32-2.26-.53-2.13-.61-2-.62-1.9-.73-1.84-.92-1.8-1.14-1.78-1.35-1.74-1.47-1.7-1.54-1.63-1.55-1.56-1.56-1.48-1.58-1.41-1.61-1.34-1.65-1.27-1.71-1.2-1.78-1.13-1.89-1.07-2.02-1.03-2.17-.99-2.31-.94-2.47-.9-2.57-.83-2.65-.74-2.68-.68-2.73-.6-2.91-.56-3.29-.61" filter="url(#a)"/><path d="m60.45-33.14-.97-2.71-.69-2.39-.73-2.24-.88-2.28-.98-2.33-.98-2.35-.87-2.28-.71-2.14-.55-1.97-.46-1.83-.46-1.77-.56-1.76-.7-1.79-.89-1.78-1.08-1.74-1.32-1.64-1.54-1.55-1.69-1.47-1.66-1.41-1.48-1.35-1.39-1.29-1.61-1.35" filter="url(#a)"/><path d="m56.15-43.61.73-2.48 4.26-2.33 3.21-2.28.83-2.2-.61-2.07-1.02-1.95-.93-1.84-.8-1.74-.85-1.67-1.13-1.62-1.47-1.59-1.72-1.56-1.8-1.55-1.78-1.54-1.78-1.49-1.86-1.42-1.92-1.31-1.79-1.16-1.45-1.02-1.05-.92-.91-.94-1.24-.98-2.5-.77" filter="url(#a)"/><path d="m55.58-44.32 6.1-3.54 1.94-2.68-2.36-2.16-2.72-1.85-1.42-1.72-.15-1.71.52-1.75.59-1.78.22-1.76-.44-1.7-1.11-1.62-1.56-1.53-1.64-1.45-1.37-1.39-.96-1.32-.71-1.26-.79-1.17-1.2-1.11-1.78-1.05-2.29-1.01-2.61-.99-2.72-.95-2.81-.89-2.93-.82-3.08-.74-3.15-.67-3.21-.58-3.51-.37" filter="url(#a)"/><path d="m54.37-46.41.02-2.18-.7-2.3-1.38-2.23-1.27-2.08-.85-1.95-.48-1.84-.33-1.75-.33-1.68-.41-1.63-.45-1.6-.51-1.57-.61-1.55-.81-1.5-1.05-1.44-1.29-1.36-1.47-1.26-1.56-1.16-1.59-1.08-1.62-1.01-1.69-.95-1.83-.91-2.02-.85-2.25-.8-2.49-.73-2.73-.67-2.94-.58-3.06-.51-3.11-.43-3.11-.36-3.12-.27-3.14-.2-3.12-.11-3.65-.04" filter="url(#a)"/><path d="m54.37-46.41-.81-2.18-.9-2.3-.94-2.22-1.09-2.09-1.23-1.95-1.32-1.83-1.35-1.75-1.4-1.67-1.46-1.64-1.54-1.6-1.61-1.57-1.66-1.55-1.69-1.5-1.72-1.44-1.71-1.36-1.69-1.26-1.66-1.17-1.63-1.08-1.63-1-1.66-.95-1.74-.91-1.84-.86-1.93-.8-2-.74-2.04-.66-2.04-.59-2.04-.52-2.06-.43-2.11-.36-2.17-.29-2.05-.19L2.52-85" filter="url(#a)"/><path d="m50.49-53.84 1.65-1.77.71-1.87-.65-1.78-.3-1.7.24-1.64.14-1.6-.43-1.58-1.08-1.57-1.49-1.54-1.65-1.51-1.57-1.44-1.42-1.35-1.3-1.25-1.3-1.15-1.45-1.06-1.73-.99-2.06-.94-2.41-.9-2.7-.85-2.89-.79-2.96-.73-2.9-.66-2.74-.58-2.61-.5-2.59-.43-2.77-.35-3.07-.28-3.24-.19-3.1-.11-3.37-.04" filter="url(#a)"/><path d="m49.61-55.36-.77-1.26-1.04-1.5-1.21-1.78-1.34-1.91-1.42-1.85-1.46-1.72-1.51-1.59-1.55-1.5-1.57-1.43-1.58-1.37-1.58-1.3-1.6-1.23-1.64-1.16-1.7-1.09-1.77-1.05-1.84-.99-1.91-.95-1.96-.89-1.99-.84-2.04-.76-2.06-.69-2.09-.6-2.12-.53-2.13-.43-2.13-.36-2.15-.27-2.14-.2-2.16-.12-2.15-.06-2.13.02-2.08.09-2.01.17-1.95.25-1.93.33-1.94.4-2.11.51-2.73.69" filter="url(#a)"/><path d="m49.18-55.26-.51-2.3-.29-1.77-.92-1.66-1.24-1.61-1.15-1.57-.88-1.56-.59-1.55-.41-1.54-.3-1.51-.29-1.46-.38-1.37-.58-1.26-.82-1.13-1.07-1.03-1.26-.97-1.43-.94-1.67-.92-1.95-.89-2.19-.83-2.28-.72-2.65-.67-4.35-.78" filter="url(#a)"/><path d="m47.36-58.49-.49-1.05-.77-1.62-1.1-1.62-1.4-1.59-1.52-1.58-1.51-1.58-1.51-1.55-1.53-1.5-1.58-1.44-1.63-1.34-1.68-1.23-1.74-1.14-1.79-1.05-1.87-.98-1.93-.93-1.98-.88-2.01-.83-2.03-.77-2.03-.69-2.04-.63-2.04-.55-2.03-.48-2.05-.39-2.04-.32-2.07-.25-2.09-.16-2.12-.09-2.17-.01-2.21.07-2.24.15-2.25.22-2.29.31-2.33.4-2.38.49-2.34.57-2.09.56-1.19.19" filter="url(#a)"/><path d="m41.22-65.98 4.19-1.28 2-1.5-2.3-1.46-3.48-1.39-2.91-1.29-2.08-1.21-1.6-1.13-1.49-1.06-1.57-1.01-1.68-.98-1.81-.93-1.9-.88-2.01-.82-2.12-.75-2.24-.66-2.36-.58-2.51-.5-2.64-.41-2.79-.33-2.9-.26L4-84.58l-3.11-.11-3.19-.03-3.23.03-3.26.12-3.31.19-3.41.26-3.63.35-3.99.41-4.46.49-4.92.56-5.19.66-5.16.8-4.78.96-3.4.94" filter="url(#a)"/><path d="M40.08-67.46 39.8-68l-.54-1.32-.37-1.53-.31-1.49-.64-1.35-1.09-1.2-1.34-1.07-1.41-1-1.42-.94-1.48-.91-1.64-.87-1.84-.83-2.09-.76-2.34-.69-2.56-.62-2.7-.55-2.76-.47-2.75-.39-2.75-.32L7-84.55l-2.85-.17-3-.09-3.17-.02-3.3.07-3.37.13-3.36.2-3.48.29-4.05.43-5.03.72" filter="url(#a)"/><path d="M40.08-67.46 32.04-68l-4.19-1.33-.8-1.54.25-1.49-.24-1.35-1.14-1.2-1.85-1.08-2.15-1-2.15-.94-1.99-.91-1.81-.87-1.62-.82-1.48-.76-1.37-.68-1.32-.61-1.31-.54-1.33-.46-1.37-.38-1.4-.3-1.39-.23-1.34-.15-1.26-.07H-.38l-1.07.08-.98.16-.9.24-.82.33-.75.4-.68.49-.57.56-.42.63-.21.68-.1.75.07.67" filter="url(#a)"/><path d="m38.54-68.89 5.56-1.54-1.76-1.31L38.78-73l-3.04-1.19-2.1-1.1-1.51-1.02-1.41-.99-1.58-.96-1.85-.94-2.04-.9-2.17-.83-2.25-.76-2.31-.69-2.35-.6-2.34-.52-2.29-.43-2.25-.34-2.27-.27-2.43-.19-2.74-.14-3.11-.09-3.28-.05-2.57-.04" filter="url(#a)"/><path d="m36.22-70.77-1.38-1.09-1.47-1.23-1.56-1.2-1.58-1.11-1.59-1.01-1.66-.98-1.77-.96-1.87-.94-1.95-.89-2-.82-2.04-.75-2.06-.66-2.07-.58-2.05-.49-2.04-.41-2.02-.33-2.02-.25-2.04-.18L1-84.77l-2.05-.04-2.02.02-1.95.1-1.88.18-1.82.25-1.79.33-1.79.41-1.94.51-2.5.68" filter="url(#a)"/><path d="m36.22-70.77-3.26-1.09-3.67-1.22-2.6-1.2-1.94-1.1-1.87-1.01-2.02-.98-2.06-.96-1.95-.94-1.71-.89-1.46-.83-1.27-.75-1.21-.67-1.25-.58-1.35-.51-1.46-.41-1.53-.34-1.55-.25-1.51-.19-1.44-.13-1.33-.06h-1.16l-.94.08-.72.17-.55.26-.61.4" filter="url(#a)"/><path d="M36.22-70.77 35-71.86l-.63-1.22-.39-1.21-.78-1.1-1.35-1.01-1.72-.98-1.81-.96-1.78-.93-1.79-.9-1.92-.82-2.13-.75-2.32-.67-2.42-.58-2.42-.5-2.36-.42-2.33-.33-2.37-.25L4-84.68l-2.63-.12-2.73-.06-2.74.02-2.71.08-2.71.17-2.79.26-2.9.32-2.94.33" filter="url(#a)"/><path d="m35.9-70.64-2.15-2.04L32-74.07l-1.62-1.11-1.52-.97-1.5-.92-1.57-.91-1.68-.9-1.78-.88-1.85-.83-1.87-.76-1.88-.68-1.89-.62-1.91-.54-1.93-.46-1.95-.39-1.98-.32-2-.24-2.01-.17-2.06-.1-2.13-.02-2.24.07-2.25.14-1.95.17-1.28.08" filter="url(#a)"/><path d="m34.68-71.81-.77-1.3-.62-1.28-.72-1.11-.81-1.01-1.08-.96-1.54-.97-1.97-.93-2.21-.89-2.26-.81-2.24-.73-2.2-.65-2.21-.56-2.28-.48-2.38-.39-2.49-.31-2.59-.23-2.68-.16-2.74-.09-2.77-.01-2.79.06-2.79.14-2.79.21-2.81.28-2.86.37-2.95.44-3.1.52-3.29.6-3.51.68-3.7.76-3.83.84-3.94.92-4.08.99-4.32 1.05-4.49 1.07-4.17 1.06-3.72 1.45" filter="url(#a)"/><path d="m33.05-73.38 3.43-.97-2.67-.98-2.96-.93-2.22-.9-1.66-.91-1.41-.9-1.41-.88-1.53-.82-1.68-.75-1.83-.67-1.93-.6-2.02-.52-2.1-.44-2.22-.37-2.35-.29-2.52-.21-2.7-.14-2.9-.06-3.05.01-3.2.09-3.3.17-3.42.25-3.56.33-3.73.42-3.95.49-4.15.56-4.33.62-4.45.68-4.4.71-3.86.72-2.5.67" filter="url(#a)"/><path d="m29.88-75.25-1.63-1.17-1.25-.81-1.52-.89-1.75-.93-1.86-.89-1.91-.83-1.93-.74-1.94-.66-1.94-.59-1.96-.5-1.96-.43-1.98-.36-1.98-.27-2-.2-2.02-.12-2.04-.05-2.06.04-2.07.11-2.08.19-2.07.27-2.07.35-2.06.43-2.03.5-2 .57-1.96.64-1.91.7-1.86.76-1.85.83-1.87.92-1.92 1.02-1.95 1.1-1.86 1.1-1.5.93-1 .81" filter="url(#a)"/><path d="m28.26-76.63-2.62-1.31-2.2-1.14-1.98-.97-1.94-.83-1.94-.73-1.96-.65-1.96-.57-1.93-.5-1.92-.42-1.9-.35-1.88-.26-1.86-.2-1.83-.11-1.8-.04-1.77.04-1.73.11-1.69.2-1.63.27-1.57.36-1.52.43-1.45.5-1.41.58-1.34.63-1.26.7-1.13.76-1.02.84-.92.92-.94 1.02-1 1.1-.97 1.09-.63.93-.31.81" filter="url(#a)"/><path d="m27.19-77.2-1.62-1.28-2.08-1.13-1.99-.92-1.89-.79-1.9-.7-1.99-.62-2.09-.54-2.16-.46-2.16-.38-2.14-.29-2.15-.22-2.18-.15-2.21-.08-2.23-.02-2.22.05-2.2.13-2.19.2-2.25.28-2.38.35-2.57.42-2.82.5-3.07.56-3.27.66-3.39.79-3.33.96-2.36.93" filter="url(#a)"/><path d="m25.21-78.41-1.53-1.36-1.04-.89-1.34-.75-1.94-.68-2.4-.61-2.6-.53-2.58-.45-2.47-.36-2.36-.28-2.33-.21-2.34-.13-2.39-.06h-2.45l-2.51.08-2.56.16-2.65.23-2.74.3-2.83.39-2.89.46-2.89.53-2.85.62-2.76.7-2.7.78-2.73.85-2.9.92-3.19.99-3.58 1.05-3.96 1.1-4.28 1.15-4.52 1.2-4.58 1.27-4.11 1.37-3.68 1.7" filter="url(#a)"/><path d="m21.78-80.04 1.39-1.04-2.67-.7-2.97-.62-2.58-.57-2.28-.48-2.12-.41-2.07-.32-2.09-.25-2.14-.18-2.19-.09-2.27-.02-2.35.06-2.43.13-2.51.22-2.57.3-2.63.37-2.67.46-2.68.52-2.69.59-2.72.66-2.78.73-2.88.79-3.01.87-3.17.94-3.27 1-3.31 1.08-3.26 1.13-3.15 1.18-3.06 1.26-3.06 1.32-3.21 1.39-3.48 1.42-3.83 1.5-3.98 1.7-3.18 2.03" filter="url(#a)"/><path d="m21.78-80.04-2.16-1.04-1.9-.7-1.93-.62-1.97-.56-1.97-.49-1.97-.4-1.96-.33-1.96-.26-1.97-.18-2-.1-2.02-.02-2.05.05-2.06.13-2.07.21-2.07.28-2.06.37-2.05.44-2.04.52-2.01.58-1.97.65-1.93.71-1.89.77-1.88.85-1.89.93-1.91 1.01-1.9 1.06-1.84 1.1-1.75 1.12-1.77 1.2-2.07 1.49-2.45 1.92" filter="url(#a)"/><path d="m21.29-80.67-1.95-.77-1.71-.72-2.08-.62-2.29-.54-2.29-.44-2.22-.36-2.15-.26-2.13-.2-2.16-.13-2.21-.06h-2.23l-2.23.07-2.2.15-2.17.22-2.16.3-2.18.38-2.22.44-2.3.53-2.4.6-2.53.68-2.68.76-2.84.84-3.03.92-3.24.99-3.43 1.07-3.18 1.02-.99.32" filter="url(#a)"/><path d="m13.03-83.3-1.48-.43-1.79-.31-1.93-.29-1.97-.23-1.97-.17-1.98-.09-2.03-.01-2.07.06-2.11.13-2.12.21-2.12.29-2.15.37-2.18.45-2.2.51-2.21.59-2.17.63-2.11.7-2.05.75-1.99.82-2 .91-2.08 1.04-2.25 1.15-2.35 1.16-1.89.58" filter="url(#a)"/><path d="m10.95-83.9-1.43-.18-1.82-.28-1.93-.24-1.97-.16-2.07-.07h-2.2l-2.29.08-2.37.16-2.41.24-2.46.31-2.53.4-2.61.47-2.69.55-2.79.61-2.93.67-3.13.75-3.39.81-3.69.88-3.98.95-4.18 1.02-4.28 1.08-4.25 1.14-4.11 1.21-3.96 1.26-3.9 1.34-4 1.42-4.27 1.51-4.7 1.61-5.15 1.77-5.44 1.93-5.55 2-5.61 1.82-4.58 1.22" filter="url(#a)"/><path d="m7.23-84.69-1.39.05-1.8-.09-2.07-.1-2.17-.05-2.14.03-2.1.1-2.09.19-2.11.26-2.12.35-2.1.41-2.07.49-2.07.57-2.11.64-2.22.73-2.36.8-2.5.87-2.62.95-2.73 1-2.8 1.06-2.87 1.12-2.96 1.18-3.07 1.24-3.16 1.32-3.2 1.39-3.15 1.48-3.03 1.56-2.97 1.61-3.12 1.6-3.46 1.22" filter="url(#a)"/><path d="m7.23-84.69-1.42.05-1.78-.09-2.05-.1-2.21-.05-2.3.03-2.38.11-2.49.19-2.59.27-2.68.34-2.76.42-2.86.49-3.05.58-3.32.65-3.62.73-3.89.81-4.03.88-3.96.94-3.67 1.02-3.24 1.06-2.85 1.13-2.65 1.19-2.78 1.26-3.21 1.33-3.8 1.4-4.32 1.49-4.61 1.54-4.59 1.59-4.29 1.62-3.93 1.64-4.03 1.75-5.04 1.98" filter="url(#a)"/><path d="m7.47-84.35-1.94-.35-1.86-.15-1.92-.05-2.12.01-2.28.09-2.35.16-2.38.25-2.39.32-2.42.41-2.45.48-2.48.55-2.5.62-2.55.68-2.61.74-2.73.81-2.87.89-3.02.95-3.07 1.02-3.02 1.09-2.87 1.14-2.73 1.2-2.73 1.27-3.01 1.34-3.52 1.42-4.12 1.5-4.53 1.62-4.55 1.77-4.12 1.92-3.42 1.99-2.75 1.82-1.59 1.22" filter="url(#a)"/><path d="m6.06-84.45-1.97-.25-2.1-.15-2.22-.05-2.19.03-2.07.11-1.99.2-1.96.28-1.97.36-1.99.43-2.03.51-2.09.59-2.13.67-2.17.75-2.2.82-2.21.9-2.23.96-2.25 1.03-2.32 1.09-2.39 1.15-2.44 1.22-2.45 1.28-2.41 1.36-2.3 1.42-2.22 1.5-2.16 1.56-2.16 1.62-2.21 1.7-2.27 1.77-2.28 1.86-2.25 1.95-2.19 2.02-2.17 2-2.2 1.88-2.3 1.71-2.46 1.73-2.27 2.32" filter="url(#a)"/><path d="M2.26-85H-.29l-2.62.1-2.41.19-2.25.27-2.32.34-2.59.42-2.92.51-3.15.57-3.23.64-3.2.69-3.12.77-3.09.83-3.09.9-3.11.97-3.08 1.04-3.02 1.1-2.93 1.17-2.81 1.23-2.72 1.3-2.68 1.37-2.7 1.46-2.77 1.56-2.91 1.66-3.11 1.76-3.34 1.86-3.52 1.91-3.64 1.94-3.71 1.92-3.88 1.89-4.29 1.86-4.92 1.88-5.02 1.99-3.07 2.13" filter="url(#a)"/></g><g fill="none" stroke="#000"><circle cx="6.544" cy="27.29" r="1.538" filter="url(#a)"/><circle cx="10.164" cy="25.558" r="2.788" filter="url(#a)"/><circle cx="7.532" cy="26.338" r="1.258" filter="url(#a)"/><circle cx="8.724" cy="25.354" r="1.456" filter="url(#a)"/><circle cx="8.676" cy="24.882" r="1.974" filter="url(#a)"/><circle cx="10.172" cy="24.722" r="1.706" filter="url(#a)"/><circle cx="7.532" cy="25.438" r="2.54" filter="url(#a)"/><circle cx="10.192" cy="26.53" r="1.602" filter="url(#a)"/><circle cx="7.448" cy="24.79" r="2.044" filter="url(#a)"/><circle cx="6.596" cy="24.554" r="2.668" filter="url(#a)"/><circle cx="-7.092" cy="28.79" r="2" filter="url(#a)"/><circle cx="-8.988" cy="27.254" r="2.284" filter="url(#a)"/><circle cx="-6.832" cy="28.854" r="2.208" filter="url(#a)"/><circle cx="-8.004" cy="26.214" r="1.964" filter="url(#a)"/><circle cx="-8.176" cy="29.298" r="1.664" filter="url(#a)"/><circle cx="-7.132" cy="27.65" r="1.51" filter="url(#a)"/><circle cx="-7.912" cy="29.366" r="2.124" filter="url(#a)"/><circle cx="-8.952" cy="25.706" r="1.608" filter="url(#a)"/><circle cx="-8.264" cy="25.738" r="1.784" filter="url(#a)"/><circle cx="-9.896" cy="28.278" r="2.906" filter="url(#a)"/></g><path fill="#D77F8C" stroke="#000" stroke-linejoin="round" stroke-width="3" d="m3.53 51.21-.36.99-.21.88-.09.3.19-.69-.51 1.55.21-.52-.72 1.63.23-.37-.24.55-.25.26-.02.16-.33.38-.3.65-.24.25-.6.71-.1.26-.02.01-.3.35-.49.43-.68.62-.16.22-.27.2v.01l-.78.65-.14.1-1.17.7-.63.27.63-.24-.27.15-.15.08-1.85.76-.18.05-.67.24h-.03l.54-.16-.82.26-1.14.27-.08-.01-.95.16.89-.16-1.37.21-.25-.01-.13.02-1.41-.01.72.01-1.37-.04.38.03-.37-.04-1.51-.21-.15-.03-.71-.16.71.16-.93-.23-.54-.15-.89-.33-.8-.35.65.28-.73-.31.09.05-1.37-.75.17.12-1.12-.72.58.4-1.1-.78-.51-.39-.2-.2.28.27-.35-.3-.62-.61-.14-.13-.58-.75.15.29-.1-.21-.97-1.19-.15-.26-.38-.52-.05-.14-.07-.14-.28-.42-.16-.28-.63-1.49.05-.14.13.52-.14-.56-.37-1.14-.09-.31-.24-.89.11.42-.09-.32-.09-.46-.19-1.34-.05-.61.04-.02.03.14-.01-.32-.02-1.06.23-1.31.02-.17-.01.12-.03-.47.14-.29.1-.6-.06.11.68-1.82-.28.67.71-1.65-.19.38.12-.43-.08.25.38-.95-.02.12.85-1.26.59-.85-.25.2.38-.48-.07.1.86-1.01-.08.09-.15.21.5-.42 1.38-1.28-.27.27.17-.21-.03.09.57-.46.87-.58-.42.21.41-.24 1.09-.56.49-.27.14.01.95-.39-.31.08.71-.25h.07l1.67-.45-1.02.28 1.31-.29 1.14-.17.3-.03.52-.02-.79.03 1.93-.05-.93.01.21-.02 2.05.14-.09-.03-.27-.03.74.1.86.16.14.03 1.48.41-.91-.26.99.31-.4-.14.53.17.46.19.88.37 1 .54.32.17-.22-.13.84.55.54.36.1.03.55.45.17.12.34.38-.11-.09.58.44.4.52.68.7.01.02.38.48.05.03.08.23.68.9.49.91-.11-.24-.1-.12.41.93-.1-.36.62 1.5.03.02v.15l.07.29.19.72.1.04.08.58.3 1.62-.15-.72.16 1.2-.05.59.13.78-.08-.88.01 1.05-.12.89-.06.76.05-.42-.14.89" filter="url(#a)"/></svg>