<svg xmlns="http://www.w3.org/2000/svg" width="500" height="500" viewBox="-100 -100 200 200"><defs><clipPath id="c"><path d="m32.8-2.05-.17-.38-.21-.36-.27-.35-.32-.34-.36-.33-.41-.32-.46-.31-.5-.3-.54-.29-.58-.28-.62-.28-.66-.26-.69-.26-.72-.25-.75-.24-.81-.26-.85-.25-.9-.25-.94-.24-.97-.24-1.01-.22-1.04-.22-1.07-.21-1.09-.2-1.12-.19-1.14-.18-1.15-.17-1.16-.17-1.18-.15-1.18-.14-1.18-.12-1.18-.12-1.18-.11-1.18-.09-1.16-.08-1.16-.07-1.14-.06-1.12-.04-1.11-.04-1.09-.02-1.06-.01-1.04.01-1.01.01-.99.03-.96.04-.92.05-.9.07-.86.07-.83.09-.79.09-.76.11-.73.12-.69.13-.65.13-.62.15-.59.15-.55.16-.53.17-.48.17-.46.19-.43.18-.4.2-.37.19-.34.21-.33.2-.29.21-.28.21-.24.22-.23.23-.2.23-.18.23-.15.23-.14.24-.11.25-.09.24-.08.25-.05.25-.04.26-.02.25.89 3.27.36.3.36.31.38.31.38.32.39.31.4.32.41.32.42.32.43.32.44.32.45.33.45.32.47.32.47.33.49.32.49.33.51.32.52.33.54.33.54.32.56.33.56.32.59.32.59.32.61.31.62.31.63.3.64.29.66.29.67.28.68.26.7.26.71.25.72.23.73.21.75.21.76.18.77.17.79.16.79.13.81.11.82.1.84.07.84.05.85.03h.87l.87-.02.88-.04.89-.08.9-.09.91-.13.92-.14.92-.18.92-.2.93-.23.93-.26.93-.28.94-.31.93-.33.93-.36.92-.38.92-.41.92-.42.9-.45.72-.31.71-.31.7-.33.68-.34.66-.35.65-.36.62-.36.6-.37.57-.38.55-.38.52-.39.49-.39.45-.39.42-.39.38-.39"/></clipPath><clipPath id="b"><path d="m-32.26-1.88-.02-.43.04-.41.1-.4.16-.38.22-.37.27-.35.32-.33.37-.32.42-.31.46-.3.51-.28.55-.27.59-.26.63-.25.67-.24.7-.24.75-.24.81-.23.85-.22.9-.21.94-.21.97-.2 1.02-.19 1.05-.18 1.07-.18 1.1-.16 1.13-.16 1.14-.15 1.16-.15 1.17-.13 1.18-.12 1.18-.12 1.19-.11 1.18-.1 1.18-.08 1.17-.08 1.16-.07 1.15-.06 1.13-.05 1.11-.04 1.1-.04 1.07-.02 1.04-.01h1.02l.99.01.96.01.93.03.89.03.86.04.83.05.79.06.76.07.72.08.68.08.65.09.61.09.58.11.54.1.51.12.48.11.44.13.42.12.38.13.36.14.33.13.3.14.28.14.25.15.23.14.2.16.18.15.15.16.13.15.1.16.09.17.06.16.05.17.02.16v.17l-1.19 3.55-.37.26-.37.27-.38.27-.39.27-.38.29-.4.29-.39.29-.41.3-.4.31-.41.31-.41.32-.41.33-.42.33-.42.34-.42.34-.43.35-.44.36-.44.36-.44.37-.45.38-.46.38-.45.39-.46.39-.47.39-.46.4-.48.4-.47.4-.48.4-.49.41-.49.39-.49.4-.5.39-.51.38-.52.38-.52.36-.54.36-.54.34-.56.32-.56.31-.58.3-.6.27-.61.24-.62.23-.64.2-.66.17-.68.14-.7.11-.72.08-.74.05-.77.01-.79-.03-.81-.07-.83-.1-.86-.15-.88-.18-.91-.23-.93-.27-.96-.31-.98-.35-1-.4-1.02-.43-1.04-.48-1.06-.51-1.07-.55-.78-.33-.78-.34-.78-.36-.78-.37-.77-.39-.76-.41-.75-.41-.74-.43-.73-.44-.71-.45-.68-.45-.67-.46-.64-.46-.6-.47-.58-.46"/></clipPath><filter id="a"><feTurbulence baseFrequency=".05" numOctaves="3" result="noise" type="noise"/><feDisplacementMap in="SourceGraphic" in2="noise" scale="2"/></filter></defs><rect width="100%" height="100%" x="-100" y="-100" fill="#4682B4"/><path fill="sienna" stroke="#000" stroke-linejoin="round" stroke-width="1.667" d="m71.34-.19.11.27-.26 3.07.06.88-.1 2.36-.24 1.16-.08-.8-.12 1.38.04 1.99.07.22-.43 3.85-.4.94-.01.9.2-1.27-.66 3.02-.3.4-.3 1.4-.01 1.81.11-.79-1.3 3.95-.02.22-.08.68-.56 2.33-.26 1.13.01-.67-.58 2.25-.87 1.72-.66 1.87-.81 1.98.28-1.85-.58 3.03-.59.05-1.01 2.3.93-1.17-2.55 4.6.24-.91-.35 1.24-1.37 2.02.29-.72-.2 1.03-1.21.92-.32.8-1.06 1.8.06.51-1.68 1.41.27-.05-1.53 1.92-.95 1.96-1.16 1.4-.74-.21-.4.9L49 58.27l-.05.31-1.94 2.43.04-.85-.35.89-.48.83-2.15 1.2-.56.7-.55.69-1.09.45-1.37 1.5-.28-.05-1.06.72-.97 1.32-.52.04-1.46 1.52.08-.23-2.73 1.12.63.15-2.2 1.32.86-.89-1.73 1.46-1.42.71-1.43.39-2.27.8 1.08.2-3.2 1.03 1.05-.44-.43.31-2.19.61-.27.13-2.61 1.02.64-.1-3.55.79-.8.69-.77-.12-1.46.41.11.12-.58-.04-.73.28-1.81.02-3.11.48 1.27.09-1.92-.02-2.96.22h1.39l-.5.19-3.02.1-1.38.22-.64-.39-1.27.24.03.06-1.45-.05-2.95-.12-.67-.1 1.17.08-3.14-.62-.97-.1-2.29-.27 1.24-.14-.32.19-2.45-.65-.78-.17h.01l-2.9-.33.42-.21-3.25-.95.24.25-1.16-.29-.65-.47-2-.58-.74-.23-1.87-.74-.26-.05-.92-.99-1.23.1.01-.48-1.39-.42-.87-.54-1.24-.64-1.33-.79.26.06-2.12-1.6-1.66-.76.72.11-2.27-1.55.41.66-3.42-2.13.89.29-1.4-1.2-1.04-.77-.27-.73-2.2-1.55-.64-1.02 1.01 1.43-2.7-3.14-.6-.12.63.49-2.25-2.67.17.78-.71-1.27-.44-.66-1.56-1.41-.66-1.66-.49.19-.66-1.58-1.75-2.07-.74-.27.28.06-1.4-1.91.31.22-1.52-1.99-1.41-2.27 1.37 1.09-1.93-3.1-.36-.76-.5-.86-.75-1.58-.89-1.67-.11-.73-.57-1.18-.35-.79.24.17-1.33-2.45-.25-1.82-.7-1.9-.07 1.07-.72-2.27.11-1.17-.65-.28.01-1.87-.27-1.08-.38.41-.15-1.42-.34-1.35-.32-.72-.57-3.36.27.17-.59-1.16.11-1.85-.42-2.07-.37-2.29-.1-.2.16-.93.01.43-.24-2.38.11-2.93-.24-.49.02.65V-.48l.25-1.1-.39-1.15.28-.97.37-3.72-.15 1.43.08-1.74-.2-.9.27-1.77.14-1.13.79-3.15-.34 1.21-.13.74 1.04-5.32-.19-.6-.2 1.49.29-2.3.59-1 .31-1.22.27-2.79.63-.33.56-3.04-.22.61.21-1.21.82-.97-.26-.71 1.32-2.94.47-.52-.74 1.07 1.54-3.12 1.18-1.89-.53.53.54-1.07.97-2.39.72-.98-.75 1.25 1.01-2.91 1.09-1.52.33-.02 1.2-2.04.21.1 1.22-1.87.68-2.17.59-.35 1.65-1.78.65-1.08-1.26 1.78.19-.51 1.45-1.42.72-1.89 1.73-.83-.33-.52 2.22-2.03 1.29-1.82.18.35 1.54-1.02 1.48-1.62-1.39.32 2.3-1.49.9-.83-.22-.01 1.61-.49 1.21-1.32.32-.37-.31-.03 3.01-1.86.62-.21-.69.26 3.36-1.86.51-.47 1.86-.78.85-.37-.33-.08-.43.07 2.72-1.67 1.35-.28 2.41-1.16-1.74.73 3.31-1.19-1.58.71 4.04-1.75-1.12.42.76-.19 1.42-.36 1.77-.85 1.85-.41.38-.28.77.15 1.1-.42-.42-.21 3.85-.36.28-.09.07.09 1.45-.39h.84l3.3-.49-.72.39h.03l3.19-.42-.08-.07 2.45.07-.38-.05 1.67.11-.04-.15 2.58.31.93-.07 1.35.53-.07.04 1.27.06 2.73.39-1.2-.21.78.1 3.98.85.45.15 1.12.06 1.34.12 1.54.86-.31-.16.59.21 2.13.48 1.29.9 1 .38 1.17.13.05.29 1.85.5-.97-.19 3.1 1.67.44-.27.77.41.16.12 1.4 1.4.97.4 2.94 1.29.93.56-.41.3-.53-.38 2.09 1.35 1.26.39 2.86 2.38-.25-.18.78.97-.65-.58 2.49 2.02-.07-.24 1.63 1.7.1.47 1.13.57.95.98 1.58 1.63 1.09 1.1 1.2 1.03-1.55-.47 2.4 1.9.39.69 1.12 1.29-.02-.2.11.46.83 1.7 1.25.84.37 1.79.72.48 1.54 2.01.44.44.38.91.56.44-.16.55 2.18 3.96.05-.29.62 2.27.03-.01 1 2.17.18.02.27 1.31.55 1.64.68.12-.37-.2 1.11 2.58.21.71.93 2.96.45 1.9-.22-.08-.15-.39 1.08 2.65-.21-.38.66 3.24.43 1.11-.27.08.35.62.41 1.76-.07 1.39.09.37.34 2.86.33 1.89.15-1.71-.26 1.62.14 2.21.44 1.55-.29.51.32.21-.19 4.22.3.28.11.27" filter="url(#a)"/><path fill="#fff" d="m-32.26-1.88-.02-.43.04-.41.1-.4.16-.38.22-.37.27-.35.32-.33.37-.32.42-.31.46-.3.51-.28.55-.27.59-.26.63-.25.67-.24.7-.24.75-.24.81-.23.85-.22.9-.21.94-.21.97-.2 1.02-.19 1.05-.18 1.07-.18 1.1-.16 1.13-.16 1.14-.15 1.16-.15 1.17-.13 1.18-.12 1.18-.12 1.19-.11 1.18-.1 1.18-.08 1.17-.08 1.16-.07 1.15-.06 1.13-.05 1.11-.04 1.1-.04 1.07-.02 1.04-.01h1.02l.99.01.96.01.93.03.89.03.86.04.83.05.79.06.76.07.72.08.68.08.65.09.61.09.58.11.54.1.51.12.48.11.44.13.42.12.38.13.36.14.33.13.3.14.28.14.25.15.23.14.2.16.18.15.15.16.13.15.1.16.09.17.06.16.05.17.02.16v.17l-1.19 3.55-.37.26-.37.27-.38.27-.39.27-.38.29-.4.29-.39.29-.41.3-.4.31-.41.31-.41.32-.41.33-.42.33-.42.34-.42.34-.43.35-.44.36-.44.36-.44.37-.45.38-.46.38-.45.39-.46.39-.47.39-.46.4-.48.4-.47.4-.48.4-.49.41-.49.39-.49.4-.5.39-.51.38-.52.38-.52.36-.54.36-.54.34-.56.32-.56.31-.58.3-.6.27-.61.24-.62.23-.64.2-.66.17-.68.14-.7.11-.72.08-.74.05-.77.01-.79-.03-.81-.07-.83-.1-.86-.15-.88-.18-.91-.23-.93-.27-.96-.31-.98-.35-1-.4-1.02-.43-1.04-.48-1.06-.51-1.07-.55-.78-.33-.78-.34-.78-.36-.78-.37-.77-.39-.76-.41-.75-.41-.74-.43-.73-.44-.71-.45-.68-.45-.67-.46-.64-.46-.6-.47-.58-.46" filter="url(#a)" transform="translate(39.66 -25.3)"/><path fill="#fff" d="m32.8-2.05-.17-.38-.21-.36-.27-.35-.32-.34-.36-.33-.41-.32-.46-.31-.5-.3-.54-.29-.58-.28-.62-.28-.66-.26-.69-.26-.72-.25-.75-.24-.81-.26-.85-.25-.9-.25-.94-.24-.97-.24-1.01-.22-1.04-.22-1.07-.21-1.09-.2-1.12-.19-1.14-.18-1.15-.17-1.16-.17-1.18-.15-1.18-.14-1.18-.12-1.18-.12-1.18-.11-1.18-.09-1.16-.08-1.16-.07-1.14-.06-1.12-.04-1.11-.04-1.09-.02-1.06-.01-1.04.01-1.01.01-.99.03-.96.04-.92.05-.9.07-.86.07-.83.09-.79.09-.76.11-.73.12-.69.13-.65.13-.62.15-.59.15-.55.16-.53.17-.48.17-.46.19-.43.18-.4.2-.37.19-.34.21-.33.2-.29.21-.28.21-.24.22-.23.23-.2.23-.18.23-.15.23-.14.24-.11.25-.09.24-.08.25-.05.25-.04.26-.02.25.89 3.27.36.3.36.31.38.31.38.32.39.31.4.32.41.32.42.32.43.32.44.32.45.33.45.32.47.32.47.33.49.32.49.33.51.32.52.33.54.33.54.32.56.33.56.32.59.32.59.32.61.31.62.31.63.3.64.29.66.29.67.28.68.26.7.26.71.25.72.23.73.21.75.21.76.18.77.17.79.16.79.13.81.11.82.1.84.07.84.05.85.03h.87l.87-.02.88-.04.89-.08.9-.09.91-.13.92-.14.92-.18.92-.2.93-.23.93-.26.93-.28.94-.31.93-.33.93-.36.92-.38.92-.41.92-.42.9-.45.72-.31.71-.31.7-.33.68-.34.66-.35.65-.36.62-.36.6-.37.57-.38.55-.38.52-.39.49-.39.45-.39.42-.39.38-.39" filter="url(#a)" transform="translate(-40.75 -24.66)"/><g fill="none" stroke="#000" transform="translate(39.66 -25.3)"><path stroke-linejoin="round" stroke-width="1.667" d="m-28.32 3.63-.73-.66-.65-.64-.57-.61-.5-.58-.42-.56-.35-.53-.28-.52-.22-.49-.14-.47-.08-.45-.02-.43.04-.41.1-.4.16-.38.22-.37.27-.35.32-.33.37-.32.42-.31.46-.3.51-.28.55-.27.59-.26.63-.25.67-.24.7-.24.75-.24.81-.23.85-.22.9-.21.94-.21.97-.2 1.02-.19 1.05-.18 1.07-.18 1.1-.16 1.13-.16 1.14-.15 1.16-.15 1.17-.13 1.18-.12 1.18-.12 1.19-.11 1.18-.1 1.18-.08 1.17-.08 1.16-.07 1.15-.06 1.13-.05 1.11-.04 1.1-.04 1.07-.02 1.04-.01h1.02l.99.01.96.01.93.03.89.03.86.04.83.05.79.06.76.07.72.08.68.08.65.09.61.09.58.11.54.1.51.12.48.11.44.13.42.12.38.13.36.14.33.13.3.14.28.14.25.15.23.14.2.16.18.15.15.16.13.15.1.16.09.17.06.16.05.17.02.16v.17l-.01.17-.04.17-.05.17-.07.17-.08.18-.1.17-.11.17-.13.17-.14.17-.15.18" filter="url(#a)"/><path stroke-linejoin="round" stroke-width="2.222" d="m-33.63-1.91.01.28.08.32.16.34.23.37.29.39.35.41.4.43.45.44.5.45.53.45.58.46.6.47.64.46.67.46.68.45.71.45.73.44.74.43.75.41.76.41.77.39.78.37.78.36.78.34.78.33 1.07.55 1.06.51 1.04.48 1.02.43 1 .4.98.35.96.31.93.27.91.23.88.18.86.15.83.1.81.07.79.03.77-.01.74-.05.72-.08.7-.11.68-.14.66-.17.64-.2.62-.23.61-.24.6-.27.58-.3.56-.31.56-.32.54-.34.54-.36.52-.36.52-.38.51-.38.5-.39.49-.4.49-.39.49-.41.48-.4.47-.4.48-.4.46-.4.47-.39.46-.39.45-.39.46-.38.45-.38.44-.37.44-.36.44-.36.43-.35.42-.34.42-.34.42-.33.41-.33.41-.32.41-.31.4-.31.41-.3.39-.29.4-.29.38-.29.39-.27.38-.27.37-.27.37-.26.36-.25.36-.25.35-.24.34-.24.34-.23.33-.23.33-.23.32-.22.31-.21.31-.21" filter="url(#a)"/><circle cx="-25.788" cy="-1.314" r="4.99" clip-path="url(#b)" filter="url(#a)"/><circle cx="-30.138" cy="-.744" r="3.294" clip-path="url(#b)" filter="url(#a)"/><circle cx="-29.298" cy="-3.044" r="3.694" clip-path="url(#b)" filter="url(#a)"/><circle cx="-30.363" cy="-2.074" r="3.43" clip-path="url(#b)" filter="url(#a)"/><circle cx="-28.653" cy="-4.509" r="3.902" clip-path="url(#b)" filter="url(#a)"/><circle cx="-28.653" cy="-1.224" r="4.43" clip-path="url(#b)" filter="url(#a)"/><circle cx="-28.338" cy="-3.184" r="4.834" clip-path="url(#b)" filter="url(#a)"/><circle cx="-27.768" cy="-.579" r="3.26" clip-path="url(#b)" filter="url(#a)"/><circle cx="-26.678" cy="-.604" r="3.892" clip-path="url(#b)" filter="url(#a)"/><circle cx="-26.393" cy="-4.164" r="3.242" clip-path="url(#b)" filter="url(#a)"/></g><g fill="none" stroke="#000" transform="translate(-40.75 -24.66)"><path stroke-linejoin="round" stroke-width="2.222" d="m31.05 2.37.48-.51.4-.49.34-.47.26-.47.2-.44.14-.44.07-.42.01-.4-.05-.4-.1-.38-.17-.38-.21-.36-.27-.35-.32-.34-.36-.33-.41-.32-.46-.31-.5-.3-.54-.29-.58-.28-.62-.28-.66-.26-.69-.26-.72-.25-.75-.24-.81-.26-.85-.25-.9-.25-.94-.24-.97-.24-1.01-.22-1.04-.22-1.07-.21-1.09-.2-1.12-.19-1.14-.18-1.15-.17-1.16-.17-1.18-.15-1.18-.14-1.18-.12-1.18-.12-1.18-.11-1.18-.09-1.16-.08-1.16-.07-1.14-.06-1.12-.04-1.11-.04-1.09-.02-1.06-.01-1.04.01-1.01.01-.99.03-.96.04-.92.05-.9.07-.86.07-.83.09-.79.09-.76.11-.73.12-.69.13-.65.13-.62.15-.59.15-.55.16-.53.17-.48.17-.46.19-.43.18-.4.2-.37.19-.34.21-.33.2-.29.21-.28.21-.24.22-.23.23-.2.23-.18.23-.15.23-.14.24-.11.25-.09.24-.08.25-.05.25-.04.26-.02.25v.26l.01.26.03.26.04.27.06.26.08.27.08.27.1.27.11.27.13.27" filter="url(#a)"/><path stroke-linejoin="round" stroke-width="2.222" d="m33.6-2.29.17.28.1.31.04.32-.03.34-.09.34-.14.36-.2.37-.25.38-.29.38-.34.39-.38.39-.42.39-.45.39-.49.39-.52.39-.55.38-.57.38-.6.37-.62.36-.65.36-.66.35-.68.34-.7.33-.71.31-.72.31-.9.45-.92.42-.92.41-.92.38-.93.36-.93.33-.94.31-.93.28-.93.26-.93.23-.92.2-.92.18-.92.14-.91.13-.9.09-.89.08-.88.04-.87.02h-.87l-.85-.03-.84-.05-.84-.07-.82-.1-.81-.11-.79-.13-.79-.16-.77-.17-.76-.18-.75-.21-.73-.21-.72-.23-.71-.25-.7-.26-.68-.26-.67-.28-.66-.29-.64-.29-.63-.3-.62-.31-.61-.31-.59-.32-.59-.32-.56-.32-.56-.33-.54-.32-.54-.33-.52-.33-.51-.32-.49-.33-.49-.32-.47-.33-.47-.32-.45-.32-.45-.33-.44-.32-.43-.32-.42-.32-.41-.32-.4-.32-.39-.31-.38-.32-.38-.31-.36-.31-.36-.3-.35-.31-.34-.3-.33-.3-.32-.3-.32-.29-.3-.3-.3-.29-.29-.28-.28-.29-.27-.28" filter="url(#a)"/><circle cx=".592" cy="3.24" r="4.942" clip-path="url(#c)" filter="url(#a)"/><circle cx=".022" cy="3.555" r="3.648" clip-path="url(#c)" filter="url(#a)"/><circle cx="-1.983" cy="5.49" r="4.892" clip-path="url(#c)" filter="url(#a)"/><circle cx=".047" cy="7.62" r="4.83" clip-path="url(#c)" filter="url(#a)"/><circle cx="-2.753" cy="5.025" r="4.894" clip-path="url(#c)" filter="url(#a)"/><circle cx="-.303" cy="6.39" r="4.126" clip-path="url(#c)" filter="url(#a)"/><circle cx="-1.103" cy="4.025" r="4.932" clip-path="url(#c)" filter="url(#a)"/><circle cx="-3.518" cy="7.075" r="4.2" clip-path="url(#c)" filter="url(#a)"/><circle cx="-2.123" cy="6.095" r="3.576" clip-path="url(#c)" filter="url(#a)"/><circle cx=".042" cy="7.685" r="4.446" clip-path="url(#c)" filter="url(#a)"/></g><g fill="none" stroke="#0A0A0A" stroke-linejoin="round" stroke-width="2"><path d="m25.73-75.26-9.53.87 8.77 5.2 8 5.43 1.24 2.89-6.16-.54-10.1-2.88-9.39-3.53-6.01-2.86-3.04-1.63-2.35-.46-3.73.25-5.47.45-5.98.37-4.6.28-1.54.15 2.98-.41 8.86-1.41L2.76-74.6l19.4 1.54 19.55 7.42" filter="url(#a)"/><path d="m10.92-79.73-21.05 11.74 12.46.28 11.65.31 4.99 1.2.87 1.06.02.3.56-.6.62-1.31-.51-1.69-2.07-1.65-2.73-1.26-1.71-.65.6-.03 3.1.56 5.15 1.46 7.03 3.03 8.84 5.21 9.32 6.89 7.32 7.26 9.02 13.71" filter="url(#a)"/><path d="m67.96-24.2-42.9-35.99-15.04-12.44-7.07-3.46-5.85.12-4.3 1.8-1.48 2.58 1.18 2.76 2.6 2.47 3.01 1.91 3.26 1.25 3.6.52 2.84-.4-.4-1.33-4.87-1.84-5.14-2.34 4.03-4.92 8.29-6.43" filter="url(#a)"/><path d="m-39.57-67.17 21.61-7.95 13.91-1.86 6.17.49-1.55 1-5.67.9-5.66.75-3.23.84-.11 1.36 3.18 2.29 6.9 3.22 10.54 3.48 11.27 2.45 5.04.2-9.61-2.27-27.34-3.24-28.95.99" filter="url(#a)"/><path d="m54.97-50.8-3.09-.04-11.83-3.56-13.01-6.13-6.68-4.4.34-1.31 4.61 1.32 5.53 2.69 3.8 2.62.82 1.68-2.07.7-4.11.22-5.37.14-6.26-.07-6.67-.75-5.63-1.73-2.06-2.28 3.68-1.83 8.97-.57 9.93.38 4.14-.26-7.18-1.86-21.88-.27-51.64 8.9" filter="url(#a)"/><path d="M52.54-54.74 23.75-68.77l-5.82-1.85L13.3-69l-2.86 2.3.29 1.61 1.85.17 1.83-.98 1.89-.98 2.93.17 4.22 1.83 4.46 3.02 3.03 3.09.62 1.88-1.39-.04-2.03-1.68-1.52-2.1-1.53-1.12-4.37.25-10.33.34-9.58-1.22 35.22-6.92" filter="url(#a)"/><path d="m-17.46-78.46 30.58 5.32 9.05 2.3-1.13-.07-2.34.32-1.19 1-1.59.88-3.53.31-4.81-.09-3.6-.08-.07.21 3.85.41 5.83.36 4.72.19 1.37.23-2.29.78-4.59 1.57-5.39 1.78-5.42 1.08-3.76.9 6.23 4.2 52.13 8.69" filter="url(#a)"/><path d="m50.14-56.64-37.16 2.37 5.64-2.12 4-5.63.19-4.34-.94-1.58-2.62.05-5.97.34-9.4.18-10.84.1-9.22-.02-4.94-.53.46-1.45 4.91-2.35 6.6-2.65 5.23-1.92 3.9.4 11.35 5.36 41.21 15.69" filter="url(#a)"/><path d="m-45.37-63.03 16.08-8.21 10.72-2.8 2.83-.12-1.68.88-.27 1.07 4.71 1.37 9.53 2.24L8.25-65l10.7 4.76 7.34 4.9 2.95 3.45-.94.66-2.61-2.12-.76-2.91 3.61-.72 5.54 2.27-5.74-1.04-47.57-21.86" filter="url(#a)"/><path d="M41.59-65.43 13.21-68.4l-.2-1.37 1.33-.41 1.93 1.61 1.78 2.47-.2 1.61-2.39.05-2.9-1-1.58-1.09.48-.35 2.13.78 2.87 1.86 2.83 2.56 2.47 2.65 2.05 1.99 1.49.63.62-1.15-.66-2.72-2.16-3.34-3.54-2.71-3.65-.94 1.37 2.3 16.68 8.84 29.99 20.89" filter="url(#a)"/><path d="M44.01-63.65 30.66-50.64l-20.8-4.25-7.54-6.05-3.89-4.31-5.7-2.59-5.65-1.2-2.21-.18 1.78.24 3.02.23.63.39-2.83 1.22-3.02 2.48 2.08 3.4 2.33 4.32-44.94 6.33" filter="url(#a)"/><path d="m-35.93-69.64 30.62 2.09 13.89 7.14 8.82 3.01-1.34-1.71-9.76-3.33-11.81-2.49-8.02-.78-1.56.74 4.39 1.67 7.95 1.76 8.78 1 7.64-.3 5.94-1.31 5.28-1.07 6.29.5 7.08 1.96 3.11.49-9.4-5.7L.88-80.9" filter="url(#a)"/><path d="M62.25-39.38 40.17-59.65l-19.14-8.04-11.97-.13-3.68 1.99 1.8 1.16 3.67.46 3.82.62 3.59.59 2.71-.68.56-2.83-1.76-4.19-1.84-3.47.66-1.5 2.02-.57 3.02.25" filter="url(#a)"/><path d="m.5-80.95 15.75 4.8 4.17 2.33-1.97.47-3.15.33-3.98.28-5.9.26-8.34.7-9.91 1.49-9.33 1.94-6.01 1.49-.55.18 5.65-1.11 11.02-1.02 15.01 2.04 18.99 8.79 24.53 15.91 17.92 8.16" filter="url(#a)"/><path d="m2.13-80.99 15.23 11.33-10.73-2.06-9.89-2.59-4.23-.86.28.4 1.94.83 1.43.8.77.87 1.79 1.43 4.57 2.37 7.46 3.16 8.12 3.11 5.32 1.84-.14-.35-5.53-2.51-7.53-3.63-4.11-2.93 3.78-.19 12.06 3.96 14.69 5.82-1.91-9.57" filter="url(#a)"/><path d="m26.7-75.07-15.24-2.02-6.19 4.39-8.14 5.72-7.02 3.3-.5.18 5.54-1.84 6.8-2.32 3.91-1.44.35.57-.83 3.22 1.41 5.53 6.08 5.62 9.24 1.07.41-9.28-32.17-17.71" filter="url(#a)"/><path d="m.5-80.95 5.26 6.84-10.19 3.18-1.88 2.61 5.97 2.59 8.95 1.75 7.84.03 4.54-1.49 1.11-1.9-.8-1.16-.53.03 1.51.89 3.92 1.04 4.82.48 3.01-.61-.88-1.92-4.55-2.91-5.07-2.88 5.3.79" filter="url(#a)"/><path d="m-36.55-69.43 47.03 5.21 7.82-1.8 1.93.66 1.39 1.14-.37-.4-3.51-2.01-6.85-2.65-9.1-2.2-9.48-1.07-7.86.1-4.59.78-.35.81 4.02.43 7.67.14 10.05.33 10.8.95 9.56 1.41 6.09 1.05 1.38-.02.33.05 21.08 9.32" filter="url(#a)"/><path d="m-9.58-79.99-3.9 4.31 12.66 5.06 12.43 3.91 6.09 2.09 1.8.64 1.34-.15 2.6-.31 2.91-.22.89-.33-2.95-.75-6.77-1.16-8.66-1.24-7.65-.91-4.29-.56-.24-.68 2.85-1.33 4.3-1.93 4.4-1.55 3.13.23-3.18 1.89-32.5-3" filter="url(#a)"/><path d="m-15.61-78.87 30.69 9.45-7.63-1.46-15.12-1.07-10.82-.02-4.63.05-.64-.06 1.12-.03 2.19-.13 3.61-.64 5.03-1.22 5.63-.87 5.79 1.23 6.63 4.57 2.41 5.31-38.69-9.1" filter="url(#a)"/><path d="m-50.69-57.21 24.75-9.63 15.36-3.08 7.12 1.31 4.58 2.95 1.16 2.24-3.26.76-5.07-.37-2.81-.95 1.24-1.19 3.39-1.19 1.67-.94-2.55-.61-5.4-.65-3.21-1.37 4.58-2.19 14.4-1.27 21.1 3.22 21.46 10.24" filter="url(#a)"/><path d="M59.67-44.33 9.65-53.81l3.74-1.97 3.99.85-6.19-.97-11.26-3.02-10.34-3.4-6.39-2.34-1.9-.89 1.69.05 3.69.2 4.15-.24 3.81-.76 3.58-.93 3.82-.69 4.08-.33 3.45-.3 1.54-.69-.69-1.16-1.15-1.08 1.89.01 7.48 1.92 11.31 4.06 10.98 7.01L62.92-37.4" filter="url(#a)"/><path d="M58.85-45.68 6.99-63.07l-21.27-1.52 3.88 1.09 15.16.49 14.06-.7 7.2-1.91.61-2.51-2.87-1.99-3.79-.43-4.69 1.22-7.44 1.57-10.05.28-5.22-.61 15.26 3.48 51.46 19.37" filter="url(#a)"/><path d="M62.3-39.67 16.67-60.74l-5.52-2.71-.11 1.82.27 1.01h1.47l2.4-.29 2.43-.32 1.67-.39.37-.62-1.51-.9-4.02-1.18-6.66-1.27-7.95-1.04-6.01-.45-.15.51 7.19 1.71 9.87 2.57.6 1.36-21.21-3.11-31.97-1.31" filter="url(#a)"/><path d="M17.39-78.66 4.62-76.78l2.69 2.49 4.21 5.39 4.81 7.33 2.94 5.7-.6 1.71-3.09-1.87-3.29-3.34-1.74-2.72.63-1.1 2.85.34 3.47 1.03 1.43 1.41-1.11 2.86 2.31 5.73 15.89 5.41L49.4-58.3" filter="url(#a)"/><path d="M5.64-80.75 1.5-77.3l3.08 5.63 11.02 5.08 8.56 2.05 1.88-1.04-3.54-2.24-6.15-1.35-6.42.65-5.03 2.58-2.42 3.43 1.26 3.11 6.14 2.66 11.74 3.52 13.5 4.52-.56-2.08-44.14-29.21" filter="url(#a)"/><path d="m.5-80.95 4.7 1.62 4.26 3.72 4.82 4.09 4.98 3.33 3.31 2.28.34 1.13-2.44.13-3.73-.28-3.36.1-2.25.97-1.6 1.69-1.87 1.84-2.42 1.36-2.09.62-.32-.04 2.18-.48 3.47-.84 1.63-1.28-3.32-1.62-8.2-1.27-7.36-.1 3.75.43 20.81-2.16 13.48-8.15" filter="url(#a)"/><path d="m19.21-77.75 8.54 9.3-1.03 1.21 4.33 2.89 5.74 3.7 3 2.52-1.36.35-4.92-1.6-6.19-2.5-5.06-2.24-2.82-1.37-.97-.64-.16-.36-.07-.4-.28-.23-.94.6-2.22 2.2-2.68 4.6 4.16 8.49 49.35 19.08" filter="url(#a)"/><path d="m.88-80.9-1.69.38-1.25.94-1.05 1.36-.9 1.49-.87 1.29-.92.96-.95.65-.93.52-.89.56-.85.77-.83 1.01-.79 1.22-.69 1.23-.58.98-.46.75-.13 1.63 33.84-10.67-1.42-.46-.82-.35-.72-.38-.86-.41-1.02-.39-1.16-.34-1.24-.3-1.26-.24-1.21-.21-1.12-.19-1.05-.19-1.01-.21-.99-.23-1-.25-1.05-.27-1.08-.25-1.08-.2-1.02-.11-.91-.05-.94-.03-1.55-.08m-34.31-19.45 2.02.07 1.8 2.27 1.79 2.08 1.64 1.29 1.41.43 1.22-.27 1.17-.58 1.25-.4 1.41.14 1.54.78 1.58 1.25 1.53 1.35 1.42 1.09 1.32.62 1.25.17 1.21-.06h1.2l1.24.33 1.33.71 1.38.7 1.24.29.78.99.47 6.69m27.61-13.77-1.76-.14-1.84 1.34-1.84 1.52-1.83 1.3-1.71.88-1.5.4-1.29-.01L10-89.1l-1.12.06-1.13.42-1.17.76-1.21.89-1.21.77-1.17.55-1.1.34-1.02.3-1 .41-1.11.58-1.35.86-2.09 2.68m-2.61.1-.82.7-.71 1.36-.78 1.04-.95.48-1.04.14-1.02.03-.96.13-.9.31-.9.54-.92.7-.94.78-.92.78-.87.73-.81.68-.77.67-.72.69-.67.77-.58.89-.55 1-.74.99-1.12.67" filter="url(#a)"/><path d="m-35.19-93.41 1.76-.3 1.52.11 1.34.49 1.4.87 1.49 1.06 1.47 1 1.41.82 1.37.64 1.41.63 1.49.78 1.55 1 1.48 1.08 1.3.83 1.1.31 1-.14 1.21.06 1.68 1.28 1.56 2.81-4.13.45 2.23-2.41 1.08-1.56.92-.58 1.05.07 1.16.17 1.16-.07 1.12-.42 1.1-.69 1.09-.82 1.1-.8 1.09-.63 1.09-.4 1.09-.22 1.12-.18 1.19-.32 1.25-.63 1.27-.98 1.23-1.11 1.22-.85 1.52-.42 2.48-.81-62.38 8.56 3-.67 2.13.47 1.73.07 1.65-.2 1.61-.19 1.54.06 1.47.37 1.48.64 1.52.76 1.56.74 1.57.63 1.51.51 1.42.43 1.34.42 1.27.46 1.23.49 1.2.46 1.18.38 1.19.22 1.24.04 1.29-.12 1.24-.2 1.02-.12.75.08" filter="url(#a)"/><path d="m-14.46-79 .66-1.34 1.01-.44 1.21-.06 1.14-.01 1.06-.1 1.04-.17 1.06-.23 1.08-.28 1.05-.39 1.04-.53 1.04-.63 1.08-.57 1.1-.36 1.03-.12.92-.06.76-.34.42-.78" filter="url(#a)"/><path d="m-15.23-79.15-.85.24-1.35.16-1.44-.11-1.38-.55-1.35-.93-1.34-1.1-1.34-1.01-1.32-.77-1.28-.44-1.28-.18-1.35-.06-1.48-.15-1.58-.41-1.63-.81-1.66-1.24-1.77-1.61-2-1.77-2.35-1.51-2.89-1.02-4.47-1.07 34.11 14.34-.83.33-1.29.43-1.3.4-1.15.29-1.03.17-.99.1-.99.06-1.01.07-1.03.1-1.06.18-1.1.28-1.11.38-1.07.46-.99.46-.88.4-.86.35-.94.37-1.15.48-1.36.65-1.36.73-.48.35 21.6-6.76.52-.08.73.15.94.44 1.11.71 1.18.7 1.13.47 1.07.19 1.02.1 1.03.27 1.05.63 1.03 1 1.03 1.24 1.01 1.22.99.99.97.62.89.35.8.38.75.79.85 1.33 1.39.95-23.11-11.19 1.53-.95 1.2-.65.98-.29.89-.15.91-.18.98-.26 1.03-.31 1.04-.29 1.05-.25 1.05-.21 1.07-.21 1.08-.24 1.05-.32 1.01-.4 1.03-.49 1.15-.52 1.32-.38 1.77-.02-20.14 6.12-1.04.23-.73.18-.78.2-.91.2-.96.18-.96.2-.99.28-1.05.38-1.11.45-1.12.45-1.01.35-.83.24-.73.18-.79.25-.99.38-.95.26" filter="url(#a)"/><path d="m-26.06-75.25-.48-2.72-1.58-1.2-1.79-.66-1.59-.41-1.38-.56-1.33-.74-1.43-.79-1.68-.82-2.02-.94-2.23-1.06-2.16-.91-1.91-.49-1.93-.34-2.54-1.13-3-3.39 27.05 16.16.27-.39-1.36-.57-1.9-.95-1.73-.88-1.35-.6-1.13-.31-1.11-.08-1.27.03-1.5-.02-1.68-.16-1.76-.29-1.76-.34-1.72-.36-1.64-.32-1.48-.19-1.33.08-1.46.32-2.23-.21" filter="url(#a)"/><path d="m-9.9-109.26-.84 3.69-.88 2.39-.99 1.63-1.19.94-1.28.61-1.2.75-1.04 1.2-.91 1.65-.93 1.79-1.08 1.42-1.27.74-1.33.24-1.15.45-.74 1.47-.29 2.89v3.84l-.01 3.66-.21 2.48-.4 1.4-1.09 1.2" filter="url(#a)"/><path d="m-30.89-72.49.21-.88-.21-1.64.3-1.43.93-.83 1.2-.58 1.11-.8.86-1.29.61-1.82.49-2.16.47-2.18.58-1.89.78-1.43 1-1 1.15-.83 1.19-.89 1.13-1.06 1.01-1.15.94-1.2.96-1.4 1.15-1.74 1.55-1.49 1.42.11-20.69 28.36.22 3.4-.77 1.62-1.02.57-.92.55-.65.95-.44 1.24-.4 1.22-.49.99-.59.76-.65.67-.63.67-.56.78-.42.93-.28 1.13-.33 1.34-.64 1.52" filter="url(#a)"/><path d="m-36.62-69.38 2.36-1.29 1.52-.74 1.1-.5.84-.37.75-.31.84-.31.99-.31 1.12-.25 1.17-.15 1.15-.01 1.09.08 1.04.13 1.01.11.95.11.9.11.91.08 1.08-.11 1.45-.33-20.27 4.06.02-.08-.76.39-.94.62-.87.65-.83.64-.8.61-.81.6-.8.61-.79.64-.79.66-.79.72-.81.76-.85.81-.92.88-.98.95-1.02 1.02-1.03 1.07-1.03 1.11-.99 1.11-.9 1.06-.72.84-.26.28.61-.89 17.75-15.32-.75-2.67 1.08-1.24 1.46-.42 1.28-.21.96-.31.74-.5.72-.68.82-.87.89-1.11.86-1.33.75-1.46.66-1.4.73-1.14.94-.84 1.08-.56.34.27-13.18 14.68-1.4-3.86.38-1.47 1.2-.62 1.5-.06 1.33-.08.93-.61.57-1.25.43-1.73.47-1.96.59-1.97.68-1.9.71-1.81.7-1.73.7-1.66.7-1.68.63-2.03.47-2.8.34-3.78.54-4.24 1.3-3.12 2.41-.17" filter="url(#a)"/><path d="m-39.56-67.57 2.22-.86 1.23-.5 1.14-.39 1.32-.16 1.43.1 1.35.23 1.16.15.98-.05.88-.27.91-.43.96-.44 1.04-.3 1.08-.03 1.1.24 1.1.41 1.05.38.96.22.8.08.74.11.96-.15m-50.79 6.84 1.58-1.32.96-.15.71.1.96-.02 1.29-.25 1.49-.51 1.53-.71 1.48-.87 1.42-.95 1.4-.87 1.5-.56 1.68-.1 1.87.35 1.91.59 1.73.48 1.39.08 1.06-.3.99-.37 1.3.03 1.55.35.89-.15m-1.53 1.69-1.04.36-.73.42-.75.55-.76.65-.73.71-.76.74-.82.8-.91.85-.99.93-1.04 1.01-1.04 1.06-1.03 1.07-1.03 1.1-1.09 1.23-1.24 1.35" filter="url(#a)"/><path d="m-43.07-64.52.16-1.28v-1.51l.02-1.8.1-1.82.3-1.55.61-1.12.93-.73 1.14-.5 1.21-.51 1.21-.73 1.13-.98 1.02-1.16.77-1.25.3-1.38-.37-1.58-.95-1.54" filter="url(#a)"/><path d="m-45.37-63.03.07-.2-.83.42-1.18.48-1.42.41-1.68.31-1.87.2-1.95.16-1.91.15-1.81.14h-1.71l-1.74-.37-1.95-.88-2.29-1.27-2.63-1.26-2.7-.73-2.23.25-1.32 1.62 30.54.25-.48-.59.47-.96.78-.71.83-.61.77-.68.7-.83.68-.92.71-.94.8-.91.9-.87.98-.84 1.04-.85 1.05-.82 1-.79.9-.71.81-.65.75-.67.85-.77 1.05-.87 1.21-.9.91-.76-.53-.3m-19.38 19.24-1.42 1.59-1.26 1.32-1.07 1.13-1.02.99-1 .77-.97.51-.89.29-.82.2-.79.31-.8.54-.89.77-1.01.9-1.14.91-1.24.84-1.26.76-1.27.75-1.36.8-1.67 1.03-1.93 1.81 20.52-14.4 1.24-.75 1.53.23 1.5.24 1.12-.21.72-.72.48-.99.49-.96.65-.71.88-.34 1.09.01 1.26.29 1.39.49 1.45.58 1.45.55 1.32.45 1.26.18 1.9-.65" filter="url(#a)"/><path d="m-50.36-56.69.29-1.13.76-1.61.76-1.5.78-1.21.84-.9.88-.7.88-.62.85-.61.8-.67.77-.72.73-.77.72-.8.75-.8.79-.79.86-.78.91-.79.97-.85 1.02-.94 1.04-1.03 1-1.08.86-1.03.56-.85.1-.53-.48-.48m-9.6-2.9-1.12 3.14-.57 1.56-.76.79-.78.76-.57 1.12-.36 1.45-.27 1.57-.29 1.51-.38 1.39-.47 1.28-.58 1.23-.66 1.26-.67 1.38-.59 1.62-.45 1.83-.39 1.83-.58 1.55-.8 1.54" filter="url(#a)"/><path d="m-39.13-74.35-1.82 1.55-.68 1.19-.59.92-.67.82-.71.82-.69.85-.65.91-.61.96-.59 1.01-.6 1.06-.67 1.08-.77 1.09-.87 1.12-.92 1.19-.88 1.29-.75 1.42-.7 1.51-.84 1.52-1.12 1.49 1.44-1.13 1.34-.94 1.09-1.04.95-1.14.98-1.1 1.04-.96 1.06-.78 1.03-.65.96-.58.89-.53.88-.47.89-.39.93-.34.93-.33.93-.42.92-.5.7-.35" filter="url(#a)"/><path d="m-85.17-36.09.53-1.32 1.22-1.2 1.33-1.1 1.67-.75 2.12-.43 2.32-.32 2.14-.41 1.76-.59 1.37-.73 1.11-.82.96-.86.91-.88.88-.91.85-.99.79-1.1.73-1.17.77-1.19 1-1.02 1.55-.65 2.26-.09 2.7.27 2.36-.39-2.95 29.18-1.01-.42-.63-.91-.1-1.01.07-1.11.01-1.17-.09-1.23-.16-1.26-.13-1.27-.03-1.25.04-1.22.05-1.21v-1.22l-.07-1.23-.11-1.27-.12-1.33-.08-1.45.01-1.54.23-1.46.72-1.55" filter="url(#a)"/><path d="m-58.19-46.67.43-.61.49-1.43.34-1.71.12-1.72-.06-1.55-.07-1.27.06-.97.3-.82.53-.86.63-1.09.6-1.41.51-1.73.43-1.92.44-1.94.5-1.8.6-1.57.65-1.35.64-1.23.58-1.26.52-1.38.29-1.52-.5-1.52" filter="url(#a)"/><path d="m-42.77-65.94-.23.32-.68.69-.73.81-.71.82-.77.85-.84.9-.92.96-.96 1.04-.97 1.09-.94 1.12-.88 1.09-.8 1.01-.69.88-.58.75-.5.66-.49.65-.53.73-.61.9-.7 1.07-.74 1.18-.75 1.2-.72 1.11-.68.95-.53.55-1.09 1.52-1.64.87-.17.85-.28.91-.53.94-.63.96-.64.98-.63 1.02-.67 1.01-.74.98-.86.91-.99.87-1.07.83-1.1.79-1.01.75-.84.74-.65.89-.57 1.13-.42 1.06 12.46-13.85.11-.67-.22-1.03-.31-1.58-.22-1.76.02-1.64.24-1.52.33-1.56.2-1.75-.02-1.99-.17-2.06-.14-1.82.07-1.32.31-.81.43-.6.34-.9.07-1.66-.21-2.41-.27-2.43.24-.88m-.8 28.39-.68 1.76-.43 1.11-.39 1.01-.41 1.1-.38 1.15-.33 1.13-.3 1.11-.31 1.11-.32 1.09-.3 1.06-.27 1-.26.98-.23 1.06-.21 1.25-.17 1.46-.09 1.65-.03 1.54" filter="url(#a)"/><path d="m-63.3-36.99-.43.08-1.03.9-1.2.87-1.05.79-.8.87-.6 1.01-.5 1.07-.5 1.03-.6.92-.77.83-1.01.84-1.28.97-1.55 1.14-1.79 1.26-1.93 1.14 15.57-14.25-.33-.22.03-1.04-.35-1.58-.82-1.87-.88-1.93-.47-1.74.14-1.44.61-1.2.74-1.19.57-1.38.33-1.67.15-1.92.14-2 .13-1.99-.09-1.91-.8-1.66-2.44-.92 3.34 25.66-5.23-.4-.33 1.69-.32 1.29-1.05.85-1.16.8-.75.98-.25 1.16v1.28l-.07 1.32-.47 1.27-1.02 1.18-1.63 1.06-2.09.92-2.28.81-2.07.8-1.52.89-.76 1.09-.14 1.28.08 1.37-.3 1.29-1.19 1.12-2.21 1.13-2.75 1.38-1.62 1.81" filter="url(#a)"/><path d="m-61.06-62.41-.86 1.21.26.87.41.87v.99l-.44 1.1-.64 1.27-.56 1.47-.36 1.66-.18 1.76-.09 1.75-.1 1.67-.14 1.57-.16 1.45-.18 1.34-.26 1.21-.34 1.12-.27 1.13.17 1.27.66 1.41.19 1.66" filter="url(#a)"/><path d="m-50.8-57.19-1.35 1.12-.97 1.19-.62.89-.39.61-.35.52-.44.63-.56.81-.66.98-.71 1.12-.72 1.17-.7 1.17-.68 1.15-.66 1.12-.62 1.09-.57 1.07-.52 1.04-.47 1.02-.45 1.01-.43 1.02-.45 1.05-.5 1.11-.58 1.24-.57 1.24.02.24" filter="url(#a)"/><path d="m-77.51-4.03.32-2.28.35-1.04.46-.98.48-1.15.45-1.25.42-1.26.44-1.2.49-1.13.57-1.07.62-1.04.63-1.03.61-1.03.55-1.06.47-1.15.38-1.26.33-1.35.33-1.38.4-1.31.51-1.13.66-.92.73-.8.68-.87.57-1.25.84-2.09-.87-.84-1.56-1.69-1.47-2.22-.75-1.94.22-1.31.83-.89.75-.93.17-1.29-.53-1.78-1.09-2.24-1.47-2.7-1.72-3.06-1.74-3.15-1-2.48.67-.49 8.24 29.95.17.85.51 1.13.85 1.3.79 1.39.37 1.4-.11 1.35-.44 1.27-.49 1.19-.37 1.13-.17 1.09-.01 1.05.12 1.07.29 1.1.52 1.14.77 1.14.95 1.16.87 1.23.49 1.28.14 1.21.84 1.05 12.78-31.7-1.04-.14-1.13.34-1.52.22-1.79.06-1.73.05-1.45.19-1.14.38-.97.56-.95.63-1 .66-1.03.69-.99.75-.9.79-.78.84-.69.93-.67 1.06-.78 1.02-.87.82-.21 1.21.53-.98.5-1.04.47-1.14.52-1.1.64-.97.75-.88.87-.82.95-.78.96-.76.87-.77.72-.81.59-.84.5-.87.49-.89.57-.96.7-.98.9-.89 1.4-.9-12.93 16.38.26.55-.07 1.37-.35 1.49-.39 1.45-.31 1.36-.19 1.24-.13 1.13-.13 1.07-.16 1.05-.16 1.07-.14 1.07-.11 1.09-.08 1.12-.06 1.16-.05 1.2v1.18l.06 1.11.11 1.03.06 1.08-.12 1.35-.36 1.4 2.54-25.18-.64-.26-1.42-1.41-2.26-2.23-2.33-2.48-1.49-2.14-.28-1.54.63-1.1.9-1.03.54-1.29-.16-1.7-.8-2.08-1.18-2.27-1.28-2.34-1.33-2.39-1.42-2.59-1.26-2.77-.49-2.4.53-.88" filter="url(#a)"/><path d="m-67.09-27.84-.1-.01-.08-.77-.13-1.16-.04-1.31.12-1.28.24-1.2.23-1.21.18-1.27.12-1.33.13-1.33.15-1.3.15-1.27.12-1.24v-1.13l-.06-1.06.48-1.76-1.51 18.63-.7-.26.03-.7.32-.96.28-1.17.09-1.31-.21-1.45-.54-1.63-.8-1.82-.86-1.91-.7-1.84-.37-1.65-.04-1.51.03-1.45-.35-1.2-1.36-.27M68.67-22.02l5.06-3.64.37-1-.77-.72-.41-1.26.21-1.81.55-2 .49-1.83.2-1.48-.13-1.18-.25-1.06-.09-1.18.3-1.45.58-1.66.38-1.56.43-1.08" filter="url(#a)"/><path d="m57.05-36.32.13 1.58.54.9.82.67 1 .53 1.05.49 1.03.47 1 .49.98.58.95.77.9 1.02.82 1.26.69 1.33.47 1.12.19.58-.03-.14L84.48-.56l-.7-3.19-1.22-1.62-1.29-1.24-1.11-1.22-.84-1.2-.65-1.14-.62-1.08-.66-1.1-.7-1.16-.7-1.2-.72-1.17-.79-1.08-.92-.95-1.04-.85-1.12-.84-1.15-.95-1.05-1.11-.82-1.26-.79-1.75" filter="url(#a)"/><path d="m67.59-24.67.06.13-.16-.59-.37-1.17-.49-1.43-.49-1.42-.44-1.26-.41-1.05-.39-.9-.39-.84-.42-.85-.43-.88-.46-.9-.49-.94-.48-1.03-.51-1.5 6.24 15.1.32-.12.97.25 1.21.65 1.26.89 1.3.97 1.36.92 1.48.83 1.62.78 1.71.82 1.68.95 1.66 1.1 1.82 1.18 2.18 1.08 2.49.86 2.38.69 2.14.97 2.83 1.9" filter="url(#a)"/><path d="m67.51-26.1-.22 1.34-.84.98-.45.93-.02 1 .12 1.1.11 1.15.1 1.13.1 1.07.02 1.05-.13 1.1-.37 1.17-.58 1.23-.69 1.25-.65 1.2-.5 1.12-.28 1.05-.09 1.01-.03 1.03-.12 1.07L62.66-4l-.52 1.27-.51 1.47.04 1.1 3.59-32.19.02-.02-.31-.5-.4-.79-.43-.91-.44-.94-.46-.98-.49-1.04-.54-1.12-.58-1.2-.62-1.23-.63-1.2-.61-1.08-.59-.92-.62-.83-.73-.87-.9-.94-.9-.77 6.92 10.28.53 1.55.3 1.07.18 1.01.01 1.05-.09 1.09-.03 1.15.15 1.22.31 1.28.37 1.3.3 1.25.17 1.15.03 1.05-.08 1.03-.18 1.14-.23 1.29-.23 1.4-.18 1.21.03.49" filter="url(#a)"/><path d="m62.92-37.4.82.23 1.26.46 1.54.36 1.33.44.88.66.59.83.73.88 1.27.86 1.9.79 2.34.75 2.36.71 2 .65 1.46.6.87.69.52.88 1.76-.05-21.63-9.74.22.56.28.98.16 1.05.14 1.03.17.96.12.96-.01 1.07-.15 1.29-.23 1.51-.18 1.61-.06 1.5.07 1.2.14.83.18.74.31 1.56m-6.77-27.14 1.23 1.31.88.77.84.6 1.03.59 1.36.63 1.72.6 2 .48 2.15.35 2.17.26 2.08.24 2.01.26 2.06.26 2.28.22 2.37.19 1.89.08m-30.45-13.2-.59-1.02-.72-.83-.61-.73-.66-.8-.79-.93-.89-1.01-.91-.99-.9-.92-.86-.84-.83-.8-.83-.78-.81-.75-.74-.69-.53-.58-.43-.69 10.71 11.67-.93-1.49.59-2.03.7-2.44.01-2.03-.73-1.33-1.12-.9-1.08-.88-.84-1.12-.6-1.33-.49-1.39-.5-1.3-.54-1.25-.53-1.39-.41-1.8-.23-2.37-.03-2.87.07-3.03.03-2.76-.18-2.17-.47-1.73-.76-1.82-.96-2.4-1.1-2.79-1.2-2.78 42.39 54.05-.54-2.16-1.41-.99-1.9-.75-2.18-.68-2.31-.55-2.31-.38-2.17-.25-1.98-.26-1.77-.34-1.67-.44-1.65-.46-1.62-.48-1.44-.59-1.06-.79-.66-.98-.52-.91-.94-.43-1.7.23-2.14.49-1.58.09-.39.55-18.2-8.32.63-.54 1.34.13 1.43.51 1.24.64 1.01.59.86.46.83.35.89.3.95.33 1.01.36 1.05.38 1.09.4 1.14.5 1.18.73 1.21 1.02 1.14 1.13" filter="url(#a)"/><path d="m47.82-59.93 4.68-2.46 2.83-1.08.26 1.36-.61 2.19-.28 1.87.45 1.11 1.1.41 1.51-.01 1.68-.11 1.76-.03 1.87.08 2.07.1 2.27.03 2.31.02 2.1.17 1.67.46 1.3.79 1.18 1.02 1.33 1.15 1.48 1.25 1.41 1.27 1.42.94 1.73-.12" filter="url(#a)"/><path d="m44.01-63.65 1.17 1.18 1.06.62 1.32.35 1.45.37 1.39.48 1.26.54 1.15.53 1.05.52.97.57.9.6.86.61.88.59.94.56.99.61 1.04.72 1.11.83 1.23.85 1.42.76 1.51.61 1.37.54 1.11.48 1.48-.03M44.01-63.65l.17-1.31-.41-1.17-.09-1.47-.05-1.65-.22-1.84-.35-2.12-.33-2.38-.18-2.5.06-2.54.23-2.61.11-2.57-.47-2.19-1.27-1.52-1.54-1.59-.28-4.54 2.32 30.01.86-7.01-1.97-.28-1.77.57-1.07.04-.66-.64-.51-1.39-.39-2.23-.15-3.16.18-3.93.43-4.3.42-4.08.08-3.37-.46-2.61-.75-2.14-.08-.66" filter="url(#a)"/><path d="m38.85-68.02-1.29-.5-1.06-.21-.9.11-.92.07-1.01-.23-1.06-.53-1.05-.69-.99-.71-.94-.6-.92-.48-.92-.37-.92-.3-.92-.27-.9-.23-.91-.18-.94-.12-1.02-.05h-1.11l-1.16.04-1.11.06-.91.05-.68-.12-.89-.54 39.72 18.89-.55-.05-.84-.6-.89-.73-.83-.74-.79-.75-.84-.77-.94-.79-1.04-.79-1.08-.77-1.07-.72-1.03-.69-.96-.66-.9-.64-.84-.62-.76-.58-.7-.55-.7-.59-.9-.72-1.3-.92-1.49-.8" filter="url(#a)"/><path d="m37.59-68.41 1.58.63 1.6.46 1.29.12 1.07.03 1.05.02 1.22-.04 1.41-.13 1.51-.15 1.49.02 1.34.34 1.16.74 1.09 1.01 1.17.96 1.3.6 1.37.12 1.53-.26 3.05-.48m-26.31-5.82.63.13 1.02-1.13 2.11-2.41 2.89-2.76 2.88-2.07 2.22-.79 1.39.37.92.83 1.04.45 1.6-.33 2.07-.88 2.1-.73 1.72-.12 1.49.15 2.86-1.63M35.51-70.24l-1.48-2.57-.38-3.24-.46-2.09-.72-.96-.82-.68-.75-.96-.67-1.31-.62-1.43-.64-1.34-.67-1.26-.71-1.31-.78-1.44-.94-1.49-1.08-1.4-1.03-1.47-.53-1.83.36-1.91 11.92 26.69-1.65-2.12-1.05-1.68-.37-2.36.02-2.82-.05-2.58-.38-1.86-.76-1.02-1-.42-1.08-.16-1.05-.28-.96-.67-.9-1.17-.89-1.59-.88-1.84-.79-2.04-.49-2.45-.15-3.11-.67-2.95" filter="url(#a)"/><path d="m35.51-70.24.35.66-.01.81.22 1.03.53 1.26.7 1.33.72 1.28.65 1.16.56 1.05.52.94.54.9.57.88.59.91.59.97.59 1.06.57 1.15.51 1.25.45 1.31.36 1.28.3 1.17.31 1.04.4 1.02.51 1.08.55 1.22-14.02-26.05-.66-1.38-.25-2.14-.36-1.58-.69-.82-.89-.54-.87-.71-.74-1.14-.59-1.55-.51-1.85-.54-1.96-.65-1.89-.78-1.66-.91-1.36-.96-1.17-.95-1.21-.9-1.5-.9-1.81-1.02-1.91-1.29-1.65-1.59-1.17-1.72-.64-1.27-.13.37-.16 56.08 25.42-3.29.69-3.68 1.16-3.17.8-2.45.27-1.88-.1-1.59-.22-1.53-.12-1.58.1-1.66.37-1.71.58-1.71.58-1.62.3-1.42-.29-1.12-.96-.83-1.33-.69-1.12-.72-.41-.98.31-1.72.88-4.06 3.02" filter="url(#a)"/><path d="m46.33-47.31-.09-1.4-.06-1.38-.19-1.11-.44-.98-.6-1.04-.65-1.13-.67-1.12-.67-1.04-.64-1.01-.57-1.06-.43-1.19-.3-1.31-.26-1.35-.34-1.27-.55-1.08-.83-.86-1.07-.63-1.16-.43-1.03-.34-.66-.51-.28-1.04-.45-1.57-1.82-1.37m-.97-.4-1.14-.49-.86-.09-.82-.21-.91-.25-.99-.12-1.04.08-1.05.32-1.07.53-1.14.67-1.21.68-1.24.52-1.19.24-1.04.03-.85.13-.77.54-1.07.53m14.99-4.51.31-1.83.16-2.46-.18-2.32-.56-1.65-.76-1.04-.79-.92-.67-1.32-.53-2.02-.48-2.63-.56-2.76-.73-2.35-.89-1.61-.88-1.13-.73-1.45-.77-2.06-1.52-.29" filter="url(#a)"/><path d="m30.2-73.33.97 1.8 1.09 1.51 1.08 1.06.78.93.54.94.51.94.65.93.75.99.74 1.07.59 1.19.38 1.29.18 1.39.1 1.46.12 1.44.27 1.28.45 1.04.53.85.42.97.23 1.39M30.04-73.45l-.76-.4-.89-.77-.71-1.4-.5-1.76-.44-1.75-.53-1.57-.69-1.32-.85-1.08-.98-.85-1.03-.72-1.03-.72-.98-.86-.97-1.07-.99-1.24-1.09-1.27-1.22-1.2-1.32-1.05-1.35-.95-1.3-.92-1.2-.93-1.14-.91-1.08-.89-.95-1.27-.98-2.74 22.21 27.23.86-.15 1.09-.21 1.31.08 1.39.34 1.35.33 1.28.13 1.25-.09 1.33-.24 1.52-.31 1.74-.37 1.89-.45 1.96-.6 1.99-.86 2.08-1.17 2.2-1.32 2.16-1.03 1.79-.21 1.15.81.23 1.44-28.57 3.88-.5-1.62-.38-2.64-.46-1.83-.73-.75-.91-.28-.98-.37-1-.6-1.03-.71-1.04-.67-1.01-.6-.97-.63-.93-.79-.93-1.12-.99-1.48-1.14-1.8-1.31-1.92-1.38-1.83-.94-1.41.45-.61-7.4-1.83 1.01 1.51.99.83 1.02.5 1.04.75 1.03 1.2 1.05 1.52 1.13 1.58 1.22 1.4 1.28 1.12 1.24.89 1.13.84 1 .95.88 1.08.85 1.09.92.96 1 .75 1.03.67.94.76.76.9.59.95.31 1.04-.38.8" filter="url(#a)"/><path d="m25.73-75.26.81-2.11-.09-1.65-.79-.27-1.06.04-1.11-.23-1.07-.55-.99-.82-.88-1.06-.78-1.34-.75-1.56-.82-1.61-1-1.4-1.21-.99-1.4-.58-1.42-.44-1.26-.74-1.04-1.48-1.11-2.31-1.4-2.48M26.7-75.07l.24.16 1.24-.06 1.4-.56 1.33-.58 1.25-.23 1.26.14 1.3.31 1.3.33 1.21.32 1.05.4.93.56.94.69 1.09.7 1.33.51 1.5.16 1.55-.2 1.45-.42 1.33-.29 1.2.16.61.35" filter="url(#a)"/><path d="m2.84-108.4 2.46 2.43 1.72.53 1.34.16 1.12 1.08 1.02 1.99 1.01 2.38 1.06 2.39 1.1 2.35 1.11 2.4 1.09 2.41 1.05 2.25 1 1.84.98 1.29.97.84.97.64.95.76.91 1.1.85 1.46.73 1.6.64 1.45.66 1.14 1.12.84-3.07-.92-1.11-.46-1.26-.39-1.2-.07-1.1.27-1.08.48-1.11.5-1.16.34-1.21.16-1.23.06-1.23.1-1.19.25-1.15.44-1.08.56-1.04.61-1 .59-.99.51-.99.42-.99.36-.97.41-.91.52-.84.7-.8.78-.78.74-.44 1.35" filter="url(#a)"/><path d="m19.21-77.75.29-3.08-.46-.58-.91-.1-1.05-.59L16-83.46l-1.1-1.9-1.11-2.02-1.1-1.83-1.04-1.61-1-1.56-.96-1.81-.91-2.41-.8-3.23-.8-3.61-1.04-1.67 12.48 27.15-.29-.12-.92-.29-1.13-.28-1.25-.26-1.32-.25-1.3-.25-1.22-.21-1.12-.19-1.05-.17-1-.16-1.01-.15-1.02-.16-1.06-.14-1.07-.12-1.07-.09-1.02-.07-.96-.03h-.97l-1.06.03-1.33.12-2.13.27 43.49 19.41L36.94-63l-1.19-1.39-.76-.99-.52-.87-.51-.88-.65-.94-.8-.98-.88-.97-.89-.91-.86-.82-.84-.71-.85-.59-.86-.49-.88-.41-.87-.36-.85-.33-.87-.34-.92-.42-1.03-.54-1.15-.7-1.21-.75-.93-.57-.41.43-1.03.3-1.15-.12-1.2-.39-1.27-.41-1.26-.29-1.21-.13-1.13.02-1.05.08-1 .08-.99.04-1 .01-1.04.03-1.07.12-1.06.24-.99.36-.88.47-.9.53-1.46.26 20.41-1.47-1.34-.8-1.16-.87-1.19-.9-1.28-.8-1.3-.59-1.22-.42-1.13-.41-1.04-.52-1.01-.72-1-.84-1.03-.88-1.07-.83-1.12-.75-1.11-.64-1.1-.53-1.1-.47-1.12-.47-1.19-.54-1.26-.56-1.19-.43-.73-.25.25-.41" filter="url(#a)"/><path d="m16.05-78.78-.6-2.7-.97-2.84-1.33-1.31-1.31-.38-1.16-.18-1.05-.41-1.01-.85-.98-1.48-1-2.33-1.05-3.26-1.11-3.88-1.13-3.62-1.12-2.38-1.1-.96-1.23-1.14-2.06-4.85" filter="url(#a)"/><path d="m14.48-78.99-2.62-.55-1.26-.28-.91-.26-.89-.38-.93-.47-.97-.47-1.01-.41-1.06-.36-1.09-.37-1.07-.4-1.03-.4-1-.32-1.03-.21-1.11-.1-1.17-.08-1.09-.17-.67-.38.22-.76 39.65-1.31-.75-.75-1.33-.01-1.51.38-1.46.64-1.32.61-1.24.47-1.25.41-1.36.56-1.46.75-1.46.79-1.35.64-1.18.33-1.03-.03-.98-.41-1.01-.61-1.23-.14-1.9 1.43-3.12 1.77-22.66 7.52.58-.7 1.15-.59 1.01-.56.92-.58.92-.63.97-.67.98-.65.98-.56.99-.45 1-.36 1.01-.32 1.01-.32L.37-79l.99-.23 1.01-.1 1.04.02 1.06.09 1.05.12 1.03.11.99.17 1.02.29.96.08.2-1.49.08-.58-.95-.32-1.03-.51-.97-.95-.98-1.14-1.04-.89-1.1-.51-1.1-.33-1.08-.5-1.08-.88-1.1-1.16-1.15-1.16-1.19-.97-1.16-.83-1.14-.96-1.23-1.26-1.56-1.45-1.6-1.08" filter="url(#a)"/><path d="m-9.14-90.32 1.54 1.15 1.43.57 1.12.8 1.08.92 1.13.72 1.16.42 1.11.24 1.06.26 1.01.41 1.02.6 1.05.79 1.08.93 1.05.94.98.74.99.43 1.25.24 2 .43m0 0 .02-2.41.99.34 1.36.81 1.35.75 1.22.57 1.12.34 1.06.12 1.07-.08 1.14-.24 1.22-.34 1.27-.35 1.26-.3 1.2-.2 1.13-.12 1.09-.1 1.13-.14 1.21-.2 1.29-.2 1.21-.17.99-.25.81-.8" filter="url(#a)"/><path d="m6.92-80.18 1.4.16 1.15.35 1.02.43 1.14.39 1.27.34 1.27.34 1.18.41 1.05.49.96.56.9.57.89.57.93.55.95.52.94.5.91.49.85.48.82.48.81.48.84.47.85.51.78.57.65.62.59.71.8 1.19L2.13-80.99l1.97-.32 1.38-.62 1.11-.5 1.04-.43 1.07-.44 1.13-.44 1.2-.37 1.28-.22 1.35-.08 1.38-.01 1.37-.04 1.31-.11 1.25-.18 1.19-.18 1.17-.1 1.21-.03 1.29-.06 1.39-.25 1.47-.62 1.49-1.03 1.44-1.32 1.21-1.41.25-1.17L2.17-80.84l-1.12 1.73-.9 1.64-.98.74-1.04.32-1 .15-.96.15-.92.3-.92.56-.94.84-.87 1.1-.78 1.35-.73 1.45-.85 1.28-1.04.81-.57.36M.5-80.95l-.4-.61-1.07-1.56-1.23-1.64-1.18-.93-1.08-.25-1.07-.02-1.13-.14-1.2-.36-1.21-.55-1.21-.78-1.31-1.16-1.49-1.6-1.65-1.94-1.51-1.83-1.26-1.3" filter="url(#a)"/></g><path fill="none" stroke="#000" stroke-linejoin="round" stroke-width="3" d="M-8.86 19.56Q11.58 33.72 1.36-4.624" filter="url(#a)"/><path fill="#D77F8C" stroke="#000" stroke-linejoin="round" stroke-width="3" d="m-26.64 36.66.77.21.78.22.77.21.78.22.77.22.77.22.77.22.77.23.76.22.77.22.76.23.76.22.76.22.76.23.76.22.75.22.75.22.75.22.74.21.74.22.74.21.74.21.73.21.73.2.73.2.72.2.72.2.72.19.71.18.71.19.7.18.7.17.69.17.69.17.69.16.68.15.67.15.67.14.67.14.66.13.65.12.65.12.64.11.64.11.63.09.62.09.62.08.61.07.61.07.6.05.59.05.59.04.58.02.57.02.56.01h.56l.55-.01.54-.02.53-.03.53-.04.52-.05.51-.06.5-.08.5-.09.48-.09.48-.11.47-.13.46-.13.45-.15.44-.16.43-.17.42-.19.42-.2.4-.21.39-.23.39-.25.37-.25.37-.27.35-.29.34-.3.34-.32.32-.33.31-.35.3-.36.29-.38.28-.4.27-.41.25-.43.25-.45.23-.47.22-.48.21-.5.2-.51.19-.54.17-.55.16-.58.15-.59.14-.61.12-.63-.54.09-.55.09-.54.09-.54.09-.54.09-.55.08-.54.09-.54.08-.54.07-.55.08-.54.08-.54.07-.55.07-.54.07-.54.07-.54.07-.55.06-.54.07-.54.06-.54.06-.55.06-.54.06-.54.05-.55.06-.54.05-.54.05-.54.05-.55.05-.54.05-.54.05-.54.04-.55.05-.54.04-.54.04-.54.04-.55.04-.54.04-.54.04-.55.03-.54.04-.54.03-.54.03-.55.04-.54.03-.54.03-.54.02-.55.03-.54.03-.54.03-.55.02-.54.02-.54.03-.54.02-.55.02-.54.02-.54.02-.54.02-.55.02-.54.02-.54.02-.54.01-.55.02-.54.02-.54.01-.55.02-.54.01-.54.01-.54.02-.55.01-.54.01-.54.01-.54.02-.55.01-.54.01-.54.01-.55.01-.54.01-.54.01-.54.01-.55.01-.54.01h-.54l-.54.01-.55.01-.54.01-.54.01-.54.01h-.55l-.54.01-.54.01-.55.01-.54.01-.54.01h-.54l-.55.01-.54.01-.54.01-.54.01-.55.01" filter="url(#a)"/></svg>