<svg xmlns="http://www.w3.org/2000/svg" width="500" height="500" viewBox="-100 -100 200 200"><defs><clipPath id="c"><path d="m33.53-5.14-.27-.18-.3-.17-.34-.17-.38-.17-.41-.16-.45-.15-.48-.15-.52-.15-.55-.15-.59-.14-.61-.14-.65-.13-.67-.14-.71-.13-.73-.13-.72-.11-.77-.12-.82-.11-.86-.12-.9-.12-.94-.13-.98-.12-1.02-.13-1.05-.12-1.08-.13-1.1-.12-1.13-.13-1.15-.12-1.17-.12L11-9.22l-1.2-.11-1.2-.11-1.21-.11-1.21-.1-1.21-.1-1.21-.09-1.2-.08-1.19-.07-1.18-.07-1.16-.06-1.15-.05-1.13-.05-1.1-.03-1.08-.03-1.06-.01h-2.02l-.97.02-.93.02-.9.04-.87.05-.83.05-.79.07-.76.08-.72.09-.68.1-.65.11-.61.12-.57.13-.54.13-.5.15-.47.15-.43.17-.41.17-.37.17-.34.18-.31.19-.28.2-.25.21-.23.22-.19.22-.16.23-.13.24-.11.24-.08.25-.05.26-.02.27v.27l.02.27-.38 1.43.39.37.4.38.42.38.43.38.45.39.45.39.47.38.48.4.49.39.51.39.51.4.53.39.53.4.55.39.56.4.58.4.58.4.6.4.62.4.62.39.64.4.65.4.66.39.68.38.68.38.69.38.71.37.71.35.72.35.74.34.74.33.75.31.75.3.77.28.77.26.78.25.79.23.79.21.8.18.81.17.81.14.82.11.82.09.83.07.84.03.84.01.84-.02.85-.05.85-.08.86-.11.86-.14.87-.17.86-.21.87-.23.87-.26.88-.3.87-.33.87-.35.88-.39.87-.41.87-.44.87-.46.86-.49.86-.51.71-.33.7-.35.69-.36.68-.37.67-.38.65-.38.65-.39.63-.39.61-.4.6-.4.58-.4.56-.39.54-.4.51-.39.49-.38"/></clipPath><clipPath id="b"><path d="m-31.09-6.45.18-.31.22-.29.25-.29.3-.27.35-.26.38-.25.42-.24.45-.24.5-.22.52-.22.57-.21.6-.2.62-.2.67-.19.69-.19.68-.16.74-.16.78-.16.83-.17.87-.16.92-.16.95-.16.98-.16 1.02-.16 1.05-.16 1.08-.15 1.1-.15 1.12-.15 1.14-.14 1.15-.14 1.17-.14 1.17-.12 1.18-.12 1.18-.12 1.19-.11 1.17-.1 1.17-.09 1.16-.08 1.15-.07 1.13-.06 1.11-.05 1.1-.04 1.07-.02 1.04-.02h1.02l.99.01.96.02.93.04.89.05.86.06.83.08.78.09.75.11.71.11.67.14.63.14.6.16.55.17.51.19.48.19.44.21.41.22.36.23.34.24.3.25.27.26.23.28.2.28.17.3.13.31.1.31.07.33.04.34v.35l-.02.36-.06.37-.08.39-.12.39-.14.39.71.7-.42.53-.43.53-.44.53-.45.54-.46.53-.48.54-.49.55-.5.54-.51.54-.52.55-.53.54-.54.55-.55.54-.55.55-.57.54-.58.54-.59.55-.6.55-.61.54-.62.54-.63.54-.64.53-.64.53-.65.52-.66.51-.66.5-.67.49-.67.47-.67.46-.68.44-.69.43-.68.41-.69.38-.69.36-.69.34-.7.32-.7.28-.7.26-.7.23-.71.2-.71.16-.71.13-.72.1-.72.06-.72.02-.73-.01-.73-.06-.74-.09-.75-.13-.75-.17-.76-.22-.76-.25-.77-.29-.78-.34-.78-.37-.79-.42-.8-.45-.81-.49-.81-.53-.82-.56-.82-.6-.83-.63-.84-.66-.83-.69-.65-.46-.65-.47-.64-.49-.63-.5-.63-.52-.61-.51-.61-.53-.59-.53-.58-.54-.57-.53-.55-.54-.53-.53-.51-.53-.48-.52-.46-.51"/></clipPath><filter id="a"><feTurbulence baseFrequency=".05" numOctaves="3" result="noise" type="noise"/><feDisplacementMap in="SourceGraphic" in2="noise" scale="2"/></filter></defs><rect width="100%" height="100%" x="-100" y="-100" fill="#F3E5AB"/><path fill="#CD5C5C" stroke="#000" stroke-linejoin="round" stroke-width="1.667" d="m74.53 1.32-.16.13-.05 1.08-.12 1.14.31 1.61-.2 2.44-.38 1.22.1.71.15-.78-.73 4.63.4-1.27-.55 3.11-.04-.5-.22 1.58-.15 1.16-.47 2.05-.48 1.35-.39 1-.02.18-.34 1.59-.66 3.2-.57.7-.11.47-.4 2.44-.22-.05-.44 1.43-.41.35-.17 1.08-.61.76-.97 1.91-.05.8-1.02 1.93.14.24-1.53 2.32.04.5-.21-.26-1.67 3.76-.29-.3-1.25 2.59-.82 1.07.38-.51-.5 1.01-.75.74-.95 1.62-1.14 1.44-.44.9-.15.53-1.59 1.28-.82 1.15-.16.23-.46.3-1.18 1.71-.56.14-.81.84-2.43 2.53 1.05-.93-.76.75-1.41 1.19-1 1.31-1.8.94-.75.56-.51.58-2.81 1.96 1.99-1.15-2.24 1.61-1.45.79-2.97 2 2.57-1.28-1.26.41-2.26 1.4-.67.61-1.9 1.19-.39-.35-.58.37-3.19 1.56 1.68-.74-2.31 1.08-.88.39-1.2.86-1.77.48-1.61.28.73-.19-1.96.69-1.12.7-.64.1-2.08.38-.45.24-2.15.42.33.04-.64-.07-2.72.57-.05-.16-2.64.85-.02-.06-.98-.13-2.05.18-.67.31-2.18-.02-1.04.14-1.78-.1-.02.05-.94-.05-1.6-.21-1.28-.01-.07.24-2.01-.4-.03.16-1.75-.27-1.56.01-1.51-.26.59.18-2.03-.55-1.56-.49-3.23-.54 1.09.5-2.45-.88 1.43.22-3.31-.55 1.14.13-2.7-.88-2.44-.69V78l-.28.04-2.1-1.34.01.04-1.12-.14-2.58-1.16-.18-.22-1.3-.9-.61-.49-2.24-.9.78.04-.8-.19-2.42-1.25-.21-.3-.92-.55-1.63-.91.17-.16-3.16-2.56.42.52.42.14-2.17-1.39-.15-.14-2.3-1.5-.82-.97-.43-.88-1.29-1.08-.02.09-2.08-2.26-1.56-1.47.56.48-1.92-1.97-.7-.96h-.05l-.91-1.09-.22-1.04-1.1-.78-.16.09-2.24-3.51-.3-.58-1.17-1.7.24.41-1.31-2.14-.32.25.17-.5-.24-.75-1.73-2.8-.25-.11.23.24-2.56-4.96-.35-1.44 1.07 2.42-1.11-2.25-1-1.97-.11.13.53.44-1.22-3.69-1.25-2.39.32.21-.68-2.22-.56-2.09-.5-1.39.12-.08-.14-.26-.14-.84-.74-2.15.02-1.44-.44-.13-.45-3.83-.25-.86.28 1.82-.17-4.02-.06-.08-.41-1.62-.35-2.04.22-.83-.2-1.18v-.89l-.27-3.04.2.86-.04-.87.24-4.4-.29 1.24.11-2.7.08.8.04-2.2-.04-1.21.15-.95.17-1.39.02-.73.46-1.96.43-2.16.02-1.55-.06-.32.4-2.13.3-.23.47-1.98.06-.44.65-1.51.4-2.06-.14.62.6-2.57.38-1.23.09-.43 1.06-2.57.3-.69.43-1.42.82-2.05.12.66.25-1.39 1.12-1.83h.16l-.62.06 1.51-3.13 1.2-1.1.19-1.31.51-.3 1.65-3-1.21 1.44 1.59-1.66.46-1.22.14-.4 1.17-1.67 1.39-2.19-.11.64 1.46-1.62.65-1.88 1.07-.59.34-1.13 1.05-.44 1.56-1.88-.54.63 1.94-2.2-.48.35 2.33-2.21 1.44-1.04.92-.96-1.82 1.31 2.43-2 1.94-1.16-.5.15 1.37-1.19 1.4-1.1.42-.22-.88.6 2.4-1.84 2.05-1.39 1.27-.83-.98.94 2.99-1.5.13-.47 1.23-.44 1.32-1.29.72-.37.17.09 1.75-.81.77-.27 1.04-.16 1.35-.66 1.82-.69.83-.58.71-.05 3.04-.98-.83.03 2.59-.42.72-.39-.52.2 1.15-.21 3.61-.95-.64.27 2.09-.25 1.64-.41-.7.01.93-.19 1.38-.07 2.17-.38.66.02h1.86l1.04-.18 2.17.32 1.01.02-.65-.24 1.8.2.73-.25.96.35 1.36-.07 2.68.5.18-.04 2.05-.05.25.28-.13.06 2.19.39 1.72.2 1.23.43.11-.03 2.98.68.11-.12 1.11.39.92.56.14-.24 3.98 1.55-.72-.67.97.76 1.54.38 1.63.64 1.32 1.22.52-.05.88.44 1.57.74-.57-.43.66.49.75.66 2.01.69 1.3 1.01.23.19 2.69 1.83 1.99 1.7.26-.64 1.18 1.63-.75-.82 2.87 1.97-1.46-.63 1.26 1.05.46.11 3.48 3-.48-.26-.16-.32 1.63 1.96.26.61.73.13 1.5 1.45 1.22 1.42.9.82.34.65.87 1.06 1.91 2.15-.21.61.79.54.29 1.12 2.08 2.13.76 1.28-.29.02 1.18 1.72-.67-1.29.91 2.04.63.87.36.86 1.84 2.9-.43.08 1.15 1.83.6 1.17.01-.02.34 1.31.66.96.23.21.85 2.51.47 1.33.54 1.67.41 1.22.78 1.69-.14 1.09.37.68.53 1.32-.01.3.79 3.4-.12-1.19-.11.74.66 1.56.38 2.01.2 1.22.25 1.45.25 2.66-.46-1.23.45 2.62.41 1.23.21 3.42-.49-2.36.51 2.33-.14 1.55-.17 1.8.26 2.58-.16.13" filter="url(#a)"/><path fill="#fff" d="m-31.09-6.45.18-.31.22-.29.25-.29.3-.27.35-.26.38-.25.42-.24.45-.24.5-.22.52-.22.57-.21.6-.2.62-.2.67-.19.69-.19.68-.16.74-.16.78-.16.83-.17.87-.16.92-.16.95-.16.98-.16 1.02-.16 1.05-.16 1.08-.15 1.1-.15 1.12-.15 1.14-.14 1.15-.14 1.17-.14 1.17-.12 1.18-.12 1.18-.12 1.19-.11 1.17-.1 1.17-.09 1.16-.08 1.15-.07 1.13-.06 1.11-.05 1.1-.04 1.07-.02 1.04-.02h1.02l.99.01.96.02.93.04.89.05.86.06.83.08.78.09.75.11.71.11.67.14.63.14.6.16.55.17.51.19.48.19.44.21.41.22.36.23.34.24.3.25.27.26.23.28.2.28.17.3.13.31.1.31.07.33.04.34v.35l-.02.36-.06.37-.08.39-.12.39-.14.39.71.7-.42.53-.43.53-.44.53-.45.54-.46.53-.48.54-.49.55-.5.54-.51.54-.52.55-.53.54-.54.55-.55.54-.55.55-.57.54-.58.54-.59.55-.6.55-.61.54-.62.54-.63.54-.64.53-.64.53-.65.52-.66.51-.66.5-.67.49-.67.47-.67.46-.68.44-.69.43-.68.41-.69.38-.69.36-.69.34-.7.32-.7.28-.7.26-.7.23-.71.2-.71.16-.71.13-.72.1-.72.06-.72.02-.73-.01-.73-.06-.74-.09-.75-.13-.75-.17-.76-.22-.76-.25-.77-.29-.78-.34-.78-.37-.79-.42-.8-.45-.81-.49-.81-.53-.82-.56-.82-.6-.83-.63-.84-.66-.83-.69-.65-.46-.65-.47-.64-.49-.63-.5-.63-.52-.61-.51-.61-.53-.59-.53-.58-.54-.57-.53-.55-.54-.53-.53-.51-.53-.48-.52-.46-.51" filter="url(#a)" transform="translate(49.01 -23.68)"/><path fill="#fff" d="m33.53-5.14-.27-.18-.3-.17-.34-.17-.38-.17-.41-.16-.45-.15-.48-.15-.52-.15-.55-.15-.59-.14-.61-.14-.65-.13-.67-.14-.71-.13-.73-.13-.72-.11-.77-.12-.82-.11-.86-.12-.9-.12-.94-.13-.98-.12-1.02-.13-1.05-.12-1.08-.13-1.1-.12-1.13-.13-1.15-.12-1.17-.12L11-9.22l-1.2-.11-1.2-.11-1.21-.11-1.21-.1-1.21-.1-1.21-.09-1.2-.08-1.19-.07-1.18-.07-1.16-.06-1.15-.05-1.13-.05-1.1-.03-1.08-.03-1.06-.01h-2.02l-.97.02-.93.02-.9.04-.87.05-.83.05-.79.07-.76.08-.72.09-.68.1-.65.11-.61.12-.57.13-.54.13-.5.15-.47.15-.43.17-.41.17-.37.17-.34.18-.31.19-.28.2-.25.21-.23.22-.19.22-.16.23-.13.24-.11.24-.08.25-.05.26-.02.27v.27l.02.27-.38 1.43.39.37.4.38.42.38.43.38.45.39.45.39.47.38.48.4.49.39.51.39.51.4.53.39.53.4.55.39.56.4.58.4.58.4.6.4.62.4.62.39.64.4.65.4.66.39.68.38.68.38.69.38.71.37.71.35.72.35.74.34.74.33.75.31.75.3.77.28.77.26.78.25.79.23.79.21.8.18.81.17.81.14.82.11.82.09.83.07.84.03.84.01.84-.02.85-.05.85-.08.86-.11.86-.14.87-.17.86-.21.87-.23.87-.26.88-.3.87-.33.87-.35.88-.39.87-.41.87-.44.87-.46.86-.49.86-.51.71-.33.7-.35.69-.36.68-.37.67-.38.65-.38.65-.39.63-.39.61-.4.6-.4.58-.4.56-.39.54-.4.51-.39.49-.38" filter="url(#a)" transform="translate(-45.76 -23.5)"/><g fill="none" stroke="#000" transform="translate(49.01 -23.68)"><path stroke-linejoin="round" stroke-width="1.667" d="m-30.34-2.41-.28-.5-.24-.47-.19-.45-.14-.43-.1-.41-.05-.39v-.37l.04-.36.08-.34.13-.32.18-.31.22-.29.25-.29.3-.27.35-.26.38-.25.42-.24.45-.24.5-.22.52-.22.57-.21.6-.2.62-.2.67-.19.69-.19.68-.16.74-.16.78-.16.83-.17.87-.16.92-.16.95-.16.98-.16 1.02-.16 1.05-.16 1.08-.15 1.1-.15 1.12-.15 1.14-.14 1.15-.14 1.17-.14 1.17-.12 1.18-.12 1.18-.12 1.19-.11 1.17-.1 1.17-.09 1.16-.08 1.15-.07 1.13-.06 1.11-.05 1.1-.04 1.07-.02 1.04-.02h1.02l.99.01.96.02.93.04.89.05.86.06.83.08.78.09.75.11.71.11.67.14.63.14.6.16.55.17.51.19.48.19.44.21.41.22.36.23.34.24.3.25.27.26.23.28.2.28.17.3.13.31.1.31.07.33.04.34v.35l-.02.36-.06.37-.08.39-.12.39-.14.39-.17.41-.2.42-.22.43-.25.43-.28.44-.3.45-.32.46-.35.47-.36.47-.4.48" filter="url(#a)"/><path stroke-linejoin="round" stroke-width="2.222" d="m-32.31-4.56.07.25.13.29.17.33.22.36.27.39.3.42.34.45.37.46.41.49.44.5.46.51.48.52.51.53.53.53.55.54.57.53.58.54.59.53.61.53.61.51.63.52.63.5.64.49.65.47.65.46.83.69.84.66.83.63.82.6.82.56.81.53.81.49.8.45.79.42.78.37.78.34.77.29.76.25.76.22.75.17.75.13.74.09.73.06.73.01.72-.02.72-.06.72-.1.71-.13.71-.16.71-.2.7-.23.7-.26.7-.28.7-.32.69-.34.69-.36.69-.38.68-.41.69-.43.68-.44.67-.46.67-.47.67-.49.66-.5.66-.51.65-.52.64-.53.64-.53.63-.54.62-.54.61-.54.6-.55.59-.55.58-.54.57-.54.55-.55.55-.54.54-.55.53-.54.52-.55.51-.54.5-.54.49-.55.48-.54.46-.53.45-.54.44-.53.43-.53.42-.53.4-.52.39-.52.37-.52.37-.51.34-.51.34-.5.32-.5.31-.5.29-.49.28-.49" filter="url(#a)"/><circle cx="21.334" cy="-8.085" r="4.592" clip-path="url(#b)" filter="url(#a)"/><circle cx="20.899" cy="-4.465" r="3.364" clip-path="url(#b)" filter="url(#a)"/><circle cx="19.544" cy="-8.665" r="4.892" clip-path="url(#b)" filter="url(#a)"/><circle cx="21.534" cy="-7.245" r="3.342" clip-path="url(#b)" filter="url(#a)"/><circle cx="19.714" cy="-6.55" r="4.548" clip-path="url(#b)" filter="url(#a)"/><circle cx="22.539" cy="-8.855" r="4.246" clip-path="url(#b)" filter="url(#a)"/><circle cx="22.259" cy="-4.335" r="3.21" clip-path="url(#b)" filter="url(#a)"/><circle cx="20.584" cy="-8.32" r="4.54" clip-path="url(#b)" filter="url(#a)"/><circle cx="20.984" cy="-5.585" r="4.672" clip-path="url(#b)" filter="url(#a)"/><circle cx="21.449" cy="-8.76" r="4.944" clip-path="url(#b)" filter="url(#a)"/></g><g fill="none" stroke="#000" transform="translate(-45.76 -23.5)"><path stroke-linejoin="round" stroke-width="2.222" d="m34.06-2.88.12-.27.08-.26.05-.25v-.24l-.03-.23-.07-.22-.11-.21-.15-.2-.19-.19-.23-.19-.27-.18-.3-.17-.34-.17-.38-.17-.41-.16-.45-.15-.48-.15-.52-.15-.55-.15-.59-.14-.61-.14-.65-.13-.67-.14-.71-.13-.73-.13-.72-.11-.77-.12-.82-.11-.86-.12-.9-.12-.94-.13-.98-.12-1.02-.13-1.05-.12-1.08-.13-1.1-.12-1.13-.13-1.15-.12-1.17-.12L11-9.22l-1.2-.11-1.2-.11-1.21-.11-1.21-.1-1.21-.1-1.21-.09-1.2-.08-1.19-.07-1.18-.07-1.16-.06-1.15-.05-1.13-.05-1.1-.03-1.08-.03-1.06-.01h-2.02l-.97.02-.93.02-.9.04-.87.05-.83.05-.79.07-.76.08-.72.09-.68.1-.65.11-.61.12-.57.13-.54.13-.5.15-.47.15-.43.17-.41.17-.37.17-.34.18-.31.19-.28.2-.25.21-.23.22-.19.22-.16.23-.13.24-.11.24-.08.25-.05.26-.02.27v.27l.02.27.05.28.07.29.1.3.12.29.14.31.16.31.18.31.21.32.22.32.24.32" filter="url(#a)"/><path stroke-linejoin="round" stroke-width="2.222" d="m34.66-2.87-.12.18-.18.22-.21.25-.27.27-.29.3-.34.31-.37.34-.41.35-.43.36-.47.37-.49.38-.51.39-.54.4-.56.39-.58.4-.6.4-.61.4-.63.39-.65.39-.65.38-.67.38-.68.37-.69.36-.7.35-.71.33-.86.51-.86.49-.87.46-.87.44-.87.41-.88.39-.87.35-.87.33-.88.3-.87.26-.87.23-.86.21-.87.17-.86.14-.86.11-.85.08-.85.05-.84.02-.84-.01-.84-.03-.83-.07-.82-.09-.82-.11-.81-.14-.81-.17-.8-.18-.79-.21-.79-.23-.78-.25-.77-.26-.77-.28-.75-.3-.75-.31-.74-.33-.74-.34-.72-.35-.71-.35-.71-.37-.69-.38-.68-.38-.68-.38-.66-.39-.65-.4-.64-.4-.62-.39-.62-.4-.6-.4-.58-.4-.58-.4-.56-.4-.55-.39-.53-.4-.53-.39-.51-.4-.51-.39-.49-.39-.48-.4-.47-.38-.45-.39-.45-.39-.43-.38-.42-.38-.4-.38-.39-.37-.39-.37-.36-.37-.36-.37-.34-.36-.33-.36-.32-.36-.3-.35-.29-.35-.28-.35-.27-.34" filter="url(#a)"/><circle cx="19.659" cy="-6.115" r="3.238" clip-path="url(#c)" filter="url(#a)"/><circle cx="18.674" cy="-2.305" r="4.85" clip-path="url(#c)" filter="url(#a)"/><circle cx="21.104" cy="-2.185" r="4.404" clip-path="url(#c)" filter="url(#a)"/><circle cx="18.729" cy="-5.595" r="3.554" clip-path="url(#c)" filter="url(#a)"/><circle cx="20.544" cy="-2.505" r="4.26" clip-path="url(#c)" filter="url(#a)"/><circle cx="20.559" cy="-3.48" r="3.63" clip-path="url(#c)" filter="url(#a)"/><circle cx="20.379" cy="-3.545" r="4.202" clip-path="url(#c)" filter="url(#a)"/><circle cx="19.284" cy="-5.59" r="3.724" clip-path="url(#c)" filter="url(#a)"/><circle cx="18.679" cy="-2.925" r="3.366" clip-path="url(#c)" filter="url(#a)"/><circle cx="19.629" cy="-2.01" r="4.932" clip-path="url(#c)" filter="url(#a)"/></g><g fill="none" stroke="#B25D25" stroke-linejoin="round" stroke-width="2"><path d="m-55.82-55.15 54.35-4.89 5.83-8.82-1.84-4.65-2.11-.26-.04 2.45 3.2 3.24 5.23 2.5 4.24.96.52-.53-3.97-1.37-6.96-1.39-7-.82-3.99-.04.99.64 6.09.99 9.18.85 8.75.08 4.52-1.1-2.12-1.99-8.82-1.7-13.34-.24-13.28.27-3.6-3.34 17.92-8.14" filter="url(#a)"/><path d="M57.41-52.01 7.27-68.18l-21.46-2.86-4.37 2.44 3.93 4.1 5.99 3.25 4.67.9 2.63-1.59 1.46-3.15 1.21-3.27.85-2.23-.63-.65-2.93.92-4.36 2.07-2.88 2.54 2.07 2.2 8.24.89 11.48-1.35 8.96-4.01 3.07-5.44.19-3.47-.31-.58" filter="url(#a)"/><path d="m35.39-72.69-17.77 3.18-22.21.48-5.03-.86 8.07-.26 12.35.78 10.24 1.06 5.45.79.92.79-1.79 1.45-2.36 2.51-1.37 3.56V-55l.79 3.86 1.75 1.7 4.74-2.73 8.32-7.22L53.6-57.3" filter="url(#a)"/><path d="m-57.82-52.29 21.74-14.1 11.41-2.89 12.3.91 10.38 2.2 4.56 1.26-1.4-.68-4.01-2.22-2.91-2.67-.37-2.12 1.34-.87 1.67.62 1.57 1.92L.4-68.4l2.37 2.24 1.84 1.33.9.22 1.72-1.27 5.69-3.18 28.94.46" filter="url(#a)"/><path d="m-36.11-72.29 8.62-2.5 2.61.39-.38 1.34 2.93 1 7.41 1.27 10.79 2.23 13.03 3.1 13.64 3.28 11.03 2.69 3.97 1.5-7.08-.02-19.38-1.46-27.45-1.84-24.72.45-18.12 10.76" filter="url(#a)"/><path d="m-45.58-65.31 16.18-6.53 13.39-4.82 6.51-2.49 2.78-.6.98 1.04-.05 2.39-.04 3.1 1.26 2.83 2.79 1.75 2.56.38-.32-.53-4.18-.63-5.25-.4-.69-.99 7.47-2.9L9.46-77.9l14.65-.33" filter="url(#a)"/><path d="m-26.97-76.57 41.63 12.06 2.77 5.96-6.96-1.78-1.53-3.55 3.08-2.44 2.92-1.01.98.06.46.89 1.72 1.48 3.07 1.48 2.99.75 1.61-.42.28-1.31.27-1.39 1.66-.65 3.41.47 4.39 1.48 3.87 2.19 1.01 2.12-6.38-.32-21.87-6.95-42.94-7.88" filter="url(#a)"/><path d="M24.11-78.23 6.19-62.56l9.14 5.46.82-3.09-3.97-4.82-4.48-3.56-4.91-2.41-5.46-2.07-4.41-1.93-1.14-1.29 3.19.1 6.19 2.14 4.95 4.38-2.34 5.07-10.22-.2 16.79-16.59" filter="url(#a)"/><path d="m66.62-36.76-30.3-13.83L7.47-61.46-3.5-67.5l-1.77-1.43-.78 1.96-1.71 3.4-.25 2.81 3.88.85 7.77-1.3 8.1-2.65 3.69-3.03-3.56-2.9-8.56-2.65-4.34-1.89 12.77.34 31.3 7.02" filter="url(#a)"/><path d="M61.04-46.92 4.13-61.27l-16.04-6.75-4.02-2.49 3.35-.12 6.92 1.38 5.55 1.73 1.32.94-1.74-.3-.78-1.02 3.85-.61 9.33.86 12.38 2.7 10.98 3.92 4.97 3.57-4.31 1.31-13.57-2.47L6-65.18l-3.57-9.06 18.28-4.63" filter="url(#a)"/><path d="m45.42-65.29-8.73 3.53-22.77-5.12-11.23-3.38 2.42-.19 9.47 2.02 9.57 2.52 5.59 1.67.83.43-2.39-.5-3.05-.82-1.56-.59.56.06 1.46.89-.03 1.66-3.5 1.96-6.65 1.42-6.28.19-1.59-.44-3.94 1.35-54-2.13" filter="url(#a)"/><path d="M70.12-27.55 15.18-51.68l3.33-7.26 10.93-1.92 5.92-1.73.34-1.97-4.16-1.46-8.14-.48-11.02.43-11.29.98L-7-64l-2.74.81 1.85.17 3.63-.65 3.66-1.25 5.67-1 11.61.51 16.72 2.02 11.52.27-3.06-5.48" filter="url(#a)"/><path d="m-31.42-75.05.79 5.05 16.97 6.28 17.95 4.87 10.68 1.89 4.63-1.06 1.49-2.81-.19-3.05-1.62-2.17-3.07-.76-4.13.66L7.9-64.4l-2.82 2.23-.29 2.03 2.4 1.17 3.79-.14 2.78-1.54-.35-2.58-3.81-2.64-4.88-1.16-1.27 1.91 7.63 5.5 18.94 7.17 22.51 4.46 5.09-4.63" filter="url(#a)"/><path d="M32.63-74.04 3.27-71.07l12.08 6.62 16.5 6.14 9.24 2.15 1.19-2.01-3.95-4.39-5.7-4.36-5.17-2.51-3.9.02-3.05 2.06-2.94 2.89-3.3 2.43-3.64 1.19-3.49-.03-2.28-.55.62-.24 5.11.32 9.16.09 9.78-.44 10.56 5.11 30.67 31.81" filter="url(#a)"/><path d="m24.83-77.56 17.33 13.9-2.77-.55-9.31-1.28-9.37-.17-5.53-.22-1.54-.63.14-.42.49.4 1.98 1.32 4.98 2.06 6.97 2.53 5.89 2.64L39-54.84l11.47 7.39L68.7-31.77" filter="url(#a)"/><path d="M-13.14-81 16.9-67.95l10.74 8.33 7.73 5.47-.51.57-8.72-2.85-10.62-3.23-5.65-1.41 1.8.6 6.05 1.33 3.83.47-3.86-1.16-12.28-2.45-15.38-2.92-8.93-2.88 6.4-3.04 22.67-3.06 21.8-.35" filter="url(#a)"/><path d="M70.76-24.77 59.53-44.29l-13.3-9.24-17.98-7.66-15.14-6.64-7.13-4.31 1.39-1.06 7.45 2.08 9.46 4.2 6.64 4.74-.52 3.28-9.38-.24-14.5-4.72-9.39-7.01 8.46-3.08 38.11 7.5" filter="url(#a)"/><path d="m20.85-79.11-.33 6.72-6.8.31.03-1.05 4.34-.19 5.94.99 5.59 1.47 4.23 1.43 2.92 1.35 2.07 1.39 1.44 1.34.48.98-1.1.3-3.18-.44-5.18-.91-5.78-.73-3.11.7 3.38 3.6 8.6 6.27-2.15 1.49-48.35-26.23" filter="url(#a)"/><path d="M58.49-50.35 2.15-65.9l-12.32-6.24 4.59-.56 5.67 1.77.63 1.28-3.11-.17-2.57-.84 1.36-.33 6.02.76 8.98 1.58 9.33 1.7 7.77 1.49 5.72 1.53 3.57 2.07.04 2.63-6.97 2.33-17.82.77L-15-57.48l-27.56-1.85-11.85 2.46" filter="url(#a)"/><path d="m43.7-66.45-7.84-1.08L19.69-69l-8.67-1.33-.2-1.11 2.85-.46 2.34.31 1.07.74-.08.57-1.34-.06-2.81-.43-4.57.09-6.98 1.55-10.02 2.92-11.71 2.63-8.71.08-.86-2.75.99-.19-30.2 16.34" filter="url(#a)"/><path d="M-22.97-78.5 7.54-57.77l-5.61-2.22 2.24-4.95 8.88-2.99 8.38-.97 4.37.41.04 1.08-3.07.99-4.15.35-2.79-.13.64.21 4.68 1.42 7.17 2.77 6.35 3.31 1.67 2.56-5.64.8-12.72-1.5L2.92-60.8l-7.45-6.79 9.26-7.69 9.52-5.5" filter="url(#a)"/><path d="m12.53-80.98-13.54 7.71 12.84 1.83 11.92.84 6.21 1.19-1.2.8-8.37-.08-12.15-.62-10.57-.6-4.75-.4 1.3-.52 3.43-1.11.89-1.94-2.05-2.47.32-2.28 6.16-1.73-2.51-1.99" filter="url(#a)"/><path d="m-9.18-81.84 29.84 8.57 4.09 3.13-.9 2.48 1.67 3.64 3.77 4.66 2.23 4.19-2.32 1.91-6.92-1.32-8.7-3.94-7.14-4.74-3.8-3.43-.63-.65 1.64 2.31L7-60.94l4.46 3.81 3.25 1.47-3.52-2.45-18.63-7.45-31.99-4.51" filter="url(#a)"/><path d="M67.85-34.28 8.84-58.41-7.69-69.04l-7.28-2.17-.95 1.62 5.03 2.54 8.53 2.31 9.15 1.8 7.91 1.12 6.19.27 5.41-.3 6.12.09 7.05 1.45 5.47 2.16.07-.02-4.69-4.65 9.57 1.91" filter="url(#a)"/></g><g fill="none" stroke="#000"><circle cx="11.916" cy="-1.186" r="2.256" filter="url(#a)"/><circle cx="10.58" cy=".986" r="1.758" filter="url(#a)"/><circle cx="9.712" cy=".966" r="2.572" filter="url(#a)"/><circle cx="12.812" cy="1.618" r="1.146" filter="url(#a)"/><circle cx="9.384" cy="-1.322" r="1.16" filter="url(#a)"/><circle cx="9.672" cy="-.802" r="2.458" filter="url(#a)"/><circle cx="10.38" cy=".594" r="2.684" filter="url(#a)"/><circle cx="12.048" cy=".262" r="1.742" filter="url(#a)"/><circle cx="10.684" cy="-.342" r="2.686" filter="url(#a)"/><circle cx="9.912" cy=".65" r="2.428" filter="url(#a)"/><circle cx="-11.034" cy="-.568" r="1.232" filter="url(#a)"/><circle cx="-10.298" cy="-3.572" r="2.708" filter="url(#a)"/><circle cx="-9.242" cy="-2.52" r="2.41" filter="url(#a)"/><circle cx="-9.278" cy="-.264" r="1.118" filter="url(#a)"/><circle cx="-10.154" cy=".284" r="2.962" filter="url(#a)"/><circle cx="-12.158" cy="-2.328" r="2.57" filter="url(#a)"/><circle cx="-9.93" cy="-.236" r="2.56" filter="url(#a)"/><circle cx="-9.414" cy="-2.616" r="1.91" filter="url(#a)"/><circle cx="-11.834" cy=".28" r="1.256" filter="url(#a)"/><circle cx="-10.818" cy=".148" r="2.34" filter="url(#a)"/></g><path fill="#D77F8C" stroke="#000" stroke-linejoin="round" stroke-width="3" d="m30.27 60.84-.24-.37.25 1.36-.05-.73-.05.77-.1.56-.17.35-.02.44-.4.58.24-.12-.2.05-.3.66.15-.21-.98 1.35-.37.45-.26.24.48-.34-.38.44-.24.23-1.35 1.18.1-.17.05-.08-.6.61-.57.34-.98.62-.64.41.9-.58-.6.4-1.72.97-.92.46-.48.26.93-.43-1.4.64-.81.34.75-.32-1.67.73-.36.1-1.79.62-.1.06.59-.2-1.02.34-2.41.67-.35.1.29-.08-1.02.26-1.58.35-.03.01.06-.02-.93.18-1.54.26-1.02.14-.84.11-.64.07-.8.08.17-.01-.87.06-.92.06-.37.03-.29.02-1.26.05-.09-.02H-.63l.11.01-.64-.03.56-.01-2-.06-.9-.07.75.03-2.48-.29-.27-.03.58.09-2.08-.33 1.03.16-2.52-.53 1.13.25-1.25-.25-.76-.2-1.29-.46.72.21-1.39-.56v.07l.21.05-.54-.19-1.78-.94-.15-.18-.18-.08.27.14-.96-.55-.39-.35.4.32-.45-.54h-.15l-.57-.64-.04-.01-.13-.1-.34-.79-.08-.01-.46-1-.09-.32.05-.13-.01.2-.1-.53-.11-.43.06.3.09-1.41.09.18h-.07l.22-.99-.15.43.36-1 .5-.7-.08.2.33-.66.39-.46v-.11l-.05.18.24-.43.41-.45.23-.23.21-.14 1.45-1.36-.69.6.56-.44 1.65-1.14-.58.31 1.19-.72-.1.08.05-.1 1.3-.69.37-.2.79-.38.84-.43.17-.04h-.08l.78-.34.7-.27 1.84-.7.27-.08-.34.08.21-.03.88-.3.88-.28 1.51-.43 1.72-.42-.24.05.7-.16 1.42-.29.57-.1 1.19-.2-1.24.21 2.15-.34.2-.03-.54.07 1.78-.23.51-.05 1.16-.11.97-.07 1.34-.05.8-.03.28-.01-.59.01h.4l1.74.02 1.85.07.31.01-.45-.02 2.24.18-1.22-.12 1.77.17-.8-.1 2.49.42.41.08.47.08.3.1 1.44.31-.49-.14-.23-.03 2.32.69-1.3-.36 1.29.38.62.26.51.28-.01.02.56.2 1.22.66-.88-.51 1.24.77.46.43.37.26-.16-.06.64.73.18.09-.04-.08.03.01.71 1.15-.11-.18.19.2.41 1.12-.03.02.04.54" filter="url(#a)"/></svg>