<svg xmlns="http://www.w3.org/2000/svg" width="500" height="500" viewBox="-100 -100 200 200"><defs><clipPath id="c"><path d="m32.46-1.38-.35-.07-.39-.08-.41-.08-.45-.07-.48-.08-.51-.08-.54-.08-.57-.09-.6-.08-.63-.08-.66-.07-.69-.08-.71-.08-.74-.08-.77-.07-.74-.1-.79-.1-.83-.09-.88-.1-.92-.08-.97-.09-1-.08-1.04-.08-1.08-.07-1.1-.07-1.14-.06-1.16-.06-1.19-.05-1.2-.05-1.22-.04-1.23-.04-1.25-.03-1.25-.02-1.25-.02-1.26-.01-1.25-.01H-.04l-1.24.01-1.23.01-1.21.02-1.2.02-1.18.03-1.15.04-1.14.04-1.1.05-1.08.05-1.05.06-1.02.07-.98.07-.95.07-.92.08-.88.09-.84.08-.8.1-.77.09-.73.1-.69.11-.65.1-.61.12-.58.11-.54.11-.51.12-.47.12-.43.13-.41.12-.37.13-.35.13-.31.13-.27.13-.25.14-.22.13-.18.14-.16.14-.13.15-.1.14-.07.15-.04.15-.02.15.01.15 1.02 1.02.51.13.54.13.55.14.56.13.58.12.59.13.61.12.62.12.64.12.65.12.66.11.67.11.69.1.7.1.71.1.73.09.74.09.76.09.77.09.79.08.8.07.81.07.82.06.83.06.84.05.86.04.86.04.86.03.88.02.88.01.88.01h.89l.89-.01.9-.02.9-.02.9-.03.9-.04.89-.05.9-.05.9-.06.89-.06.89-.08.89-.07.88-.09.87-.08.88-.1.86-.09.86-.1.85-.11.84-.1.84-.11.82-.11.82-.11.81-.11.79-.11.79-.11.78-.11.76-.1.76-.11.74-.1.73-.1.72-.09.7-.09.69-.08.61-.09.59-.09.59-.09.57-.08.56-.09.54-.08.53-.08.52-.07.49-.08.49-.07.46-.07.45-.07.43-.07.41-.06.39-.06"/></clipPath><clipPath id="b"><path d="m-35.57-.09.33-.07.37-.07.4-.08.43-.08.47-.07.49-.08.53-.09.56-.08.6-.08.62-.08.65-.09.68-.08.7-.09.74-.08.76-.09.74-.1.79-.1.83-.1.88-.1.92-.1.96-.09 1-.1 1.03-.09 1.07-.1 1.1-.08 1.13-.09 1.15-.08 1.17-.08 1.19-.07 1.21-.07 1.22-.07 1.24-.06 1.24-.05 1.24-.05 1.25-.05 1.24-.03L-3.4-3l1.24-.02 1.22-.02 1.21-.02h3.55l1.14.01 1.12.02 1.1.02 1.07.03 1.05.04 1.02.04.98.04.96.05.93.06.9.06.86.07.83.07.81.07.76.08.74.08.71.09.67.08.65.09.62.09.59.1.56.09.54.1.51.09.49.1.47.1.44.1.41.11.4.1.37.11.35.1.32.11.31.11.29.11.26.1.25.11.23.11-1.48 1.27-.34.11-.35.1-.37.11-.39.1-.4.09-.41.1-.44.09-.44.1-.47.08-.48.09-.5.08-.52.09-.53.07-.55.08-.57.07-.59.07-.6.07-.63.06-.65.07-.66.06-.69.05-.71.05-.73.05-.76.04-.77.04-.79.04-.82.03-.83.03-.85.02-.88.02-.89.01-.91.01H4.66l-.96-.01-.97-.01-.99-.01-1-.02-1.01-.02-1.02-.03L-2.33 3l-1.03-.04-1.05-.03-1.05-.05-1.05-.04-1.05-.05-1.06-.05-1.05-.05-1.05-.05-1.05-.06-1.04-.05-1.03-.06-1.03-.06-1.01-.06-1-.06-.99-.06-.97-.06-.95-.05-.94-.06-.91-.06-.9-.05-.87-.05-.85-.06-.82-.05-.75-.05-.74-.05-.72-.05-.7-.05-.69-.04-.66-.05-.65-.05-.62-.05-.6-.04-.58-.05-.55-.04-.53-.05-.51-.04-.47-.04-.45-.05"/></clipPath><filter id="a"><feTurbulence baseFrequency=".05" numOctaves="3" result="noise" type="noise"/><feDisplacementMap in="SourceGraphic" in2="noise" scale="2"/></filter></defs><rect width="100%" height="100%" x="-100" y="-100" fill="#BC8F8F"/><path fill="#CD7F32" stroke="#000" stroke-linejoin="round" stroke-width="1.667" d="m75.99.03.25 1.19-.12 2.87-.05.38-.17 2.63-.17.2-.36 3.07.25-1.76-.29 2.19-.22 1.89-.06 1.22.01.74-.47 3.66-.17.54-.28 1.47-.53 1.87.13.09-.6 2.29.27-.91-.51 1.52-.93 2.97-.06 1.68-.61 1.55-.15.31-.34.95.27-.37-1.17 3.39-1.23 3.15-.01-.94-.74 2.54-.76.95.7-1.7-1.41 3.98-.12-.04-.91 1.43-.93 2.35-.63 1.09-.17.68-.76.61-.83 1.5-1.26 2.55-.03.04-.84 1.51-1.68 1.83-.34.73-.91.9-.05.24-1.53 2.01-.46.51.68-.88-1.93 2.39-.61.59-.82.79-1.48 1.92-.23-.07-1.53 1.91-.46.65-2.08 1.93-.64.4-.33.4-1.24.92-1.51 1.36-1.47 1.27-.74.73.65-.84-1.83 1.35.77-.48-1.72 1.04-1.41 1.13-1.97 1.26 1.45-.9-3.72 2.13 1.26-.45-3.13 1.36-2.45 1.38.61-.16-1.07.5-1.15.35-3.06 1.27.46-.26-1.28.75-.54.16-1.42.55-2.47.49.06.15-.86.12-.96.53-1.64.51-1.96.27.12.04-2.6.3-.07.13-1.16.3-1.79.13-2.24.19.16-.09-1.12.31-.7-.23-1.13.06-.62.27-3.19-.05-.27-.11-2.11-.14.8.06-3.15-.16.13.24-.2-.35-2.16-.18-.6.01-1.45-.18-1.96-.59-.62-.08-1.76-.37-.64.05-.67-.34-2.76-.8-.86-.18-.65-.05-.91-.36-2.32-.66-.6-.2-1.02-.44.24.07-2.87-1.2-2.29-1.31 1.18.77-1.64-1.09-.84-.09-.25-.12-1.15-.87-1.43-.73-.33-.24-2.87-1.86-.37-.4-.29-.07-.98-.49-1.98-1.42-1.94-1.76-.61-.21-.48-.64-.27-.08-1.68-1.3-1.18-1.13-.89-.94.06-.11-2.14-1.97.19-.15.02.43-2.1-2.22.58.71-2.98-3.2-1.25-1.85-1.16-1.74 1.07 1.55-1.97-2.63-.63-.38-.8-1.8.68.91-1.49-2.09-1.06-1.36-1.11-1.96-1.04-1.35.35.09-1.68-2.95-.32-.24-.06-.47-1.23-1.78-.2-.59-.2-.53-1-2.27-.03.19-.34-1.1-.43-.69-1.09-3.68.11.39-2-4.63.48.3-.8-1.53-.28-.48-.31-1.46-.64-2.66-.42-1.22.34 1.13-1.06-4.34.26.17-.02-.28-.6-3.09-.3-.63-.59-2.47.08.18.12-1.31-.44-2.48.09.5-.47-1.67.17-2.71-.38.16.29-1.39-.31-.89-.22-2.53-.04-2.16.18-1.1-.2.01.21-2.13-.01-.68.31-3.71.01-3.03-.05 2.14.02-2.92.18-1.36.65-2.76-.27.81.15-2.01.36-1.42.02-.75.57-2.03.24-1.02-.03-1.16.6-1.74-.26.18.62-1.79.72-2.33v-1.12l.68-1.87.22-.62.41-1.19.47-1.36.59-1.6.63-1.54.07.12.92-2.73.36-1.23.63-1.19-.06.32.73-1.52 1.39-3.28.16.05.58-1.52.6-.87.77-1.34.94-1.63.66-.93 1.15-1.91.28-.67.6-.78 2.13-2.62-.33.54 1.4-2.57.02.3.68-.6 1.85-2.55-.34.28 1.74-1.72-1.29 1.14 1.87-2.09.47-.49 3.08-2.96.29-.08-.57.42 2.5-2.21.6-.94-.34.68 3.52-2.86-.55.01 1.47-.74.89-.72 1.94-1.47-.13.2.41-.24 1.16-.88 2.86-1.76-1.19.61 1.79-.92 1.95-1.12 1.07-.7.06.03 2.06-1.15.11.22 2.27-1.05-.5-.01 2.52-1 .31-.16-.71.39 2.65-1.01 1.87-.4 2-.57 1.19-.45-.05.07.99-.4 1.95-.61-.73.36 2.03-.41 3.05-.46.59.02-.25-.33 1.02.23.45-.42 3.83-.12h-.45l1.01.06 2-.29 2.1.26 1.17-.37-.47.04 1.07.24 3.61.26-.21-.06h1.67l-1.06.04 2.59.17 1.01.52 1.15-.06 1.15.39 3.01.76.12-.03-.52-.4 2.08.47 1.43.72 1.24.24 1.64.77 2.52.92-.89-.74.2.19 2.73 1.33.7.09.7.69.45.09 1.99.95 1.13.49 1.51.66-.97-.55 2.64 1.73 1.2.62-.04-.14.91.74 2.56 1.77-.33-.32 3.69 2.84-.62-.44-.01-.02L44.02-73l.81.39.73 1.13.57.63 1.61.84.01.65.69.34 2.64 2.76.14.05 1.57 1.55-.11.31.4-.03 1.51 1.99.89 1.16.66 1.2.74.71.46.82 1.05 1.26 1.06 1.29.96 1.74.13.13.57.93.45.77 2.25 3.58.2-.12-.55-.28.76 1.73 1.96 3.27-.2-.06.67 1.27.59 1.39-.15-.56.87 2.23 1.45 3.25-.25-.63.03.41 1.26 2.46.08 1.35.45 1.15.08-.09.42 2.1.99 2.65.47 2.56-.03.3.71 2.25-.25-1.33.37 1.17.31 2.45-.01.41.61 2.32.38 3.96.11.34-.22-1.36.76 3.49.21 2.23-.09.45.08 2.24.08.23.21 1.8-.1.96-.26-.15.18 2.99.25 1.19" filter="url(#a)"/><path fill="#fff" d="m-35.57-.09.33-.07.37-.07.4-.08.43-.08.47-.07.49-.08.53-.09.56-.08.6-.08.62-.08.65-.09.68-.08.7-.09.74-.08.76-.09.74-.1.79-.1.83-.1.88-.1.92-.1.96-.09 1-.1 1.03-.09 1.07-.1 1.1-.08 1.13-.09 1.15-.08 1.17-.08 1.19-.07 1.21-.07 1.22-.07 1.24-.06 1.24-.05 1.24-.05 1.25-.05 1.24-.03L-3.4-3l1.24-.02 1.22-.02 1.21-.02h3.55l1.14.01 1.12.02 1.1.02 1.07.03 1.05.04 1.02.04.98.04.96.05.93.06.9.06.86.07.83.07.81.07.76.08.74.08.71.09.67.08.65.09.62.09.59.1.56.09.54.1.51.09.49.1.47.1.44.1.41.11.4.1.37.11.35.1.32.11.31.11.29.11.26.1.25.11.23.11-1.48 1.27-.34.11-.35.1-.37.11-.39.1-.4.09-.41.1-.44.09-.44.1-.47.08-.48.09-.5.08-.52.09-.53.07-.55.08-.57.07-.59.07-.6.07-.63.06-.65.07-.66.06-.69.05-.71.05-.73.05-.76.04-.77.04-.79.04-.82.03-.83.03-.85.02-.88.02-.89.01-.91.01H4.66l-.96-.01-.97-.01-.99-.01-1-.02-1.01-.02-1.02-.03L-2.33 3l-1.03-.04-1.05-.03-1.05-.05-1.05-.04-1.05-.05-1.06-.05-1.05-.05-1.05-.05-1.05-.06-1.04-.05-1.03-.06-1.03-.06-1.01-.06-1-.06-.99-.06-.97-.06-.95-.05-.94-.06-.91-.06-.9-.05-.87-.05-.85-.06-.82-.05-.75-.05-.74-.05-.72-.05-.7-.05-.69-.04-.66-.05-.65-.05-.62-.05-.6-.04-.58-.05-.55-.04-.53-.05-.51-.04-.47-.04-.45-.05" filter="url(#a)" transform="translate(36.72 -26.93)"/><path fill="#fff" d="m32.46-1.38-.35-.07-.39-.08-.41-.08-.45-.07-.48-.08-.51-.08-.54-.08-.57-.09-.6-.08-.63-.08-.66-.07-.69-.08-.71-.08-.74-.08-.77-.07-.74-.1-.79-.1-.83-.09-.88-.1-.92-.08-.97-.09-1-.08-1.04-.08-1.08-.07-1.1-.07-1.14-.06-1.16-.06-1.19-.05-1.2-.05-1.22-.04-1.23-.04-1.25-.03-1.25-.02-1.25-.02-1.26-.01-1.25-.01H-.04l-1.24.01-1.23.01-1.21.02-1.2.02-1.18.03-1.15.04-1.14.04-1.1.05-1.08.05-1.05.06-1.02.07-.98.07-.95.07-.92.08-.88.09-.84.08-.8.1-.77.09-.73.1-.69.11-.65.1-.61.12-.58.11-.54.11-.51.12-.47.12-.43.13-.41.12-.37.13-.35.13-.31.13-.27.13-.25.14-.22.13-.18.14-.16.14-.13.15-.1.14-.07.15-.04.15-.02.15.01.15 1.02 1.02.51.13.54.13.55.14.56.13.58.12.59.13.61.12.62.12.64.12.65.12.66.11.67.11.69.1.7.1.71.1.73.09.74.09.76.09.77.09.79.08.8.07.81.07.82.06.83.06.84.05.86.04.86.04.86.03.88.02.88.01.88.01h.89l.89-.01.9-.02.9-.02.9-.03.9-.04.89-.05.9-.05.9-.06.89-.06.89-.08.89-.07.88-.09.87-.08.88-.1.86-.09.86-.1.85-.11.84-.1.84-.11.82-.11.82-.11.81-.11.79-.11.79-.11.78-.11.76-.1.76-.11.74-.1.73-.1.72-.09.7-.09.69-.08.61-.09.59-.09.59-.09.57-.08.56-.09.54-.08.53-.08.52-.07.49-.08.49-.07.46-.07.45-.07.43-.07.41-.06.39-.06" filter="url(#a)" transform="translate(-52.1 -26.79)"/><g fill="none" stroke="#000" transform="translate(36.72 -26.93)"><path stroke-linejoin="round" stroke-width="1.667" d="m-37.1.45.01-.04.04-.04.07-.05.1-.04.14-.06.16-.05.2-.06.24-.07.27-.06.3-.07.33-.07.37-.07.4-.08.43-.08.47-.07.49-.08.53-.09.56-.08.6-.08.62-.08.65-.09.68-.08.7-.09.74-.08.76-.09.74-.1.79-.1.83-.1.88-.1.92-.1.96-.09 1-.1 1.03-.09 1.07-.1 1.1-.08 1.13-.09 1.15-.08 1.17-.08 1.19-.07 1.21-.07 1.22-.07 1.24-.06 1.24-.05 1.24-.05 1.25-.05 1.24-.03L-3.4-3l1.24-.02 1.22-.02 1.21-.02h3.55l1.14.01 1.12.02 1.1.02 1.07.03 1.05.04 1.02.04.98.04.96.05.93.06.9.06.86.07.83.07.81.07.76.08.74.08.71.09.67.08.65.09.62.09.59.1.56.09.54.1.51.09.49.1.47.1.44.1.41.11.4.1.37.11.35.1.32.11.31.11.29.11.26.1.25.11.23.11.21.11.19.11.18.1.16.11.14.11.13.1.12.11.1.1.09.11.07.1" filter="url(#a)"/><path stroke-linejoin="round" stroke-width="2.222" d="m-37.09.7.12.04.16.04.2.04.23.04.27.03.3.04.33.04.36.04.39.04.43.04.45.05.47.04.51.04.53.05.55.04.58.05.6.04.62.05.65.05.66.05.69.04.7.05.72.05.74.05.75.05.82.05.85.06.87.05.9.05.91.06.94.06.95.05.97.06.99.06 1 .06 1.01.06 1.03.06 1.03.06 1.04.05 1.05.06 1.05.05 1.05.05 1.06.05 1.05.05 1.05.04 1.05.05 1.05.03 1.03.04 1.04.03 1.02.03 1.01.02 1 .02.99.01.97.01.96.01h1.87l.91-.01.89-.01.88-.02.85-.02.83-.03.82-.03.79-.04.77-.04.76-.04.73-.05.71-.05.69-.05.66-.06.65-.07.63-.06.6-.07.59-.07.57-.07.55-.08.53-.07.52-.09.5-.08.48-.09.47-.08.44-.1.44-.09.41-.1.4-.09.39-.1.37-.11.35-.1.34-.11.33-.1.31-.11.29-.11.28-.12.27-.11.26-.11.24-.12.23-.12.22-.11.2-.12" filter="url(#a)"/><circle cx="-9.147" cy="-.868" r="3.578" clip-path="url(#b)" filter="url(#a)"/><circle cx="-8.867" cy="-1.843" r="3.9" clip-path="url(#b)" filter="url(#a)"/><circle cx="-7.262" cy="-2.568" r="3.134" clip-path="url(#b)" filter="url(#a)"/><circle cx="-7.992" cy="-2.583" r="4.972" clip-path="url(#b)" filter="url(#a)"/><circle cx="-10.472" cy="-2.178" r="4.138" clip-path="url(#b)" filter="url(#a)"/><circle cx="-10.757" cy="-1.853" r="3.634" clip-path="url(#b)" filter="url(#a)"/><circle cx="-7.717" cy="-1.258" r="3.752" clip-path="url(#b)" filter="url(#a)"/><circle cx="-9.792" cy=".742" r="3.204" clip-path="url(#b)" filter="url(#a)"/><circle cx="-10.542" cy=".022" r="3.976" clip-path="url(#b)" filter="url(#a)"/><circle cx="-6.512" cy="-3.863" r="4.24" clip-path="url(#b)" filter="url(#a)"/></g><g fill="none" stroke="#000" transform="translate(-52.1 -26.79)"><path stroke-linejoin="round" stroke-width="2.222" d="m34.32-.79-.06-.04-.08-.04-.12-.05-.13-.06-.17-.06-.2-.06-.23-.06-.26-.07-.29-.07-.32-.08-.35-.07-.39-.08-.41-.08-.45-.07-.48-.08-.51-.08-.54-.08-.57-.09-.6-.08-.63-.08-.66-.07-.69-.08-.71-.08-.74-.08-.77-.07-.74-.1-.79-.1-.83-.09-.88-.1-.92-.08-.97-.09-1-.08-1.04-.08-1.08-.07-1.1-.07-1.14-.06-1.16-.06-1.19-.05-1.2-.05-1.22-.04-1.23-.04-1.25-.03-1.25-.02-1.25-.02-1.26-.01-1.25-.01H-.04l-1.24.01-1.23.01-1.21.02-1.2.02-1.18.03-1.15.04-1.14.04-1.1.05-1.08.05-1.05.06-1.02.07-.98.07-.95.07-.92.08-.88.09-.84.08-.8.1-.77.09-.73.1-.69.11-.65.1-.61.12-.58.11-.54.11-.51.12-.47.12-.43.13-.41.12-.37.13-.35.13-.31.13-.27.13-.25.14-.22.13-.18.14-.16.14-.13.15-.1.14-.07.15-.04.15-.02.15.01.15.04.15.06.16.08.15.11.16.13.15.16.16.17.16.2.16.21.16.24.16" filter="url(#a)"/><path stroke-linejoin="round" stroke-width="2.222" d="m34.26-.29-.12.05-.16.04-.19.05-.22.05-.25.05-.27.05-.3.05-.32.06-.35.06-.37.06-.39.06-.41.06-.43.07-.45.07-.46.07-.49.07-.49.08-.52.07-.53.08-.54.08-.56.09-.57.08-.59.09-.59.09-.61.09-.69.08-.7.09-.72.09-.73.1-.74.1-.76.11-.76.1-.78.11-.79.11-.79.11-.81.11-.82.11-.82.11-.84.11-.84.1-.85.11-.86.1-.86.09-.88.1-.87.08-.88.09-.89.07-.89.08-.89.06-.9.06-.9.05-.89.05-.9.04-.9.03-.9.02-.9.02-.89.01h-.89l-.88-.01-.88-.01-.88-.02-.86-.03-.86-.04-.86-.04-.84-.05-.83-.06-.82-.06-.81-.07-.8-.07-.79-.08-.77-.09-.76-.09-.74-.09-.73-.09-.71-.1-.7-.1-.69-.1-.67-.11-.66-.11-.65-.12-.64-.12-.62-.12-.61-.12-.59-.13-.58-.12-.56-.13-.55-.14-.54-.13-.51-.13-.51-.14-.49-.14-.47-.13-.46-.14-.44-.14-.43-.14-.42-.14-.39-.14-.39-.14-.37-.14" filter="url(#a)"/><circle cx="22.51" cy="-2.457" r="3.556" clip-path="url(#c)" filter="url(#a)"/><circle cx="19.83" cy="1.993" r="3.364" clip-path="url(#c)" filter="url(#a)"/><circle cx="22.63" cy=".398" r="3.354" clip-path="url(#c)" filter="url(#a)"/><circle cx="23.19" cy="1.443" r="3.456" clip-path="url(#c)" filter="url(#a)"/><circle cx="21.875" cy=".663" r="4.14" clip-path="url(#c)" filter="url(#a)"/><circle cx="24.07" cy="-2.782" r="3.782" clip-path="url(#c)" filter="url(#a)"/><circle cx="19.93" cy="-1.397" r="4.342" clip-path="url(#c)" filter="url(#a)"/><circle cx="21.05" cy=".523" r="3.802" clip-path="url(#c)" filter="url(#a)"/><circle cx="20.475" cy="-1.257" r="3.246" clip-path="url(#c)" filter="url(#a)"/><circle cx="22.315" cy="-.222" r="3.072" clip-path="url(#c)" filter="url(#a)"/></g><g fill="none" stroke="#B87333" stroke-linejoin="round" stroke-width="2"><path d="m57.34-58.5.66 1.06-.12.75-.96.31-1.78-.09-2.55-.42-3.35-.73L45-58.71l-5.25-1.5-6.32-1.94-7.38-2.36-8.38-2.8-9.36-3.31-10.41-3.89-11.55-4.42m-28.37 4.58.27-.25 1.23-.56 1.69-.65 1.93-.64 2.13-.6 2.35-.61 2.59-.62 2.81-.64 3-.64 3.15-.63 3.26-.61 3.33-.58 3.36-.55 3.37-.51 3.37-.49 3.35-.47 3.31-.46 3.25-.44 3.21-.39 3.18-.33 3.11-.28 2.75-.39M-8.94-89l1.06.04 1.45-.1 1.6-.09 1.57-.06 1.53-.04 1.46-.03 1.36-.03 1.2-.02h1.02l.83.02.61.03.31.02H3.91l-1.15.02-1.72.01h-2.38" filter="url(#a)"/><path d="m-13.63-88.18.49.23 1.98.26 2.51.47 2.71.73 2.93.97 3.27 1.19 3.67 1.39 4.05 1.57 4.35 1.72 4.57 1.85 4.75 1.98 4.87 2.08 4.93 2.16 4.93 2.21 4.93 2.24 4.96 2.26 4.97 2.35" filter="url(#a)"/><path d="m42.4-74.22-.42-.22-.1.16-.18.32-.58.27-1.11.13-1.7-.05-2.33-.24-2.97-.42-3.67-.59-4.39-.79-5.16-1.05-5.97-1.35-6.83-1.68-7.72-1.98-8.76-2.18m-14.74-.92 2.45-.75 2.47-.51 2.46-.37 2.44-.27 2.5-.2 2.64-.15 2.81-.11 2.95-.09 3.02-.09 2.94-.11 2.75-.14 2.51-.11 2.41-.04 2.62.13" filter="url(#a)"/><path d="m-40.21-75.8 1.37-.95 1.13-.63 1.38-.73 1.71-.89 1.92-.98 1.99-.99 1.99-.97 1.92-.94 1.78-.87 1.63-.77 1.45-.66 1.25-.53.97-.39.45-.21" filter="url(#a)"/><path d="m-19.71-86.22 1.69-.46 1.45-.31 1.49-.23 1.69-.21 1.9-.19 2.09-.17 2.21-.17 2.24-.16 2.17-.13 2.02-.11 1.85-.09 1.66-.11 1.43-.13 1.14-.13.8-.15.59-.13" filter="url(#a)"/><path d="m-13.63-88.18.35.1 1.51-.13 1.73-.15 1.62-.12 1.56-.07 1.62-.05 1.72-.02 1.81-.01 1.83.01H1.9l1.67.01H5.1l1.36.01 1.17.02.97.02.73.02.41-.02.04-.07-.33-.12-.64-.14-.77-.15m48.1 29.01.43.62.03.54-.41.39-.97.14-1.63-.21-2.3-.58-3-.93-3.68-1.27-4.41-1.66-5.19-2.1-6.05-2.55-6.98-2.99-7.96-3.43-8.9-3.95-9.75-4.57" filter="url(#a)"/><path d="m64.22-47.47 1.12 2 .31.84-.1.32h-.39l-.68-.27-.98-.56-1.34-.94-1.76-1.41-2.23-1.91-2.7-2.45-3.19-2.99-3.71-3.57-4.25-4.17-4.75-4.76-5.17-5.28-5.68-5.91m-42.35-9.65.2.11 1.07-.09 1-.08.59.01.2.14-.07.25-.29.38-.52.51-.83.65-1.21.82-1.67 1.01-2.18 1.21-2.74 1.43-3.34 1.67-3.91 1.91-4.46 2.14-4.99 2.32-5.45 2.3" filter="url(#a)"/><path d="m12.7-88.11 2.09.61 1.47.61 1.7.87 2.17 1.22 2.59 1.51 2.88 1.73 3.01 1.86 3.04 1.95 3.02 1.99 3.01 2.01 2.99 2.04 2.98 2.04 2.93 2.02 2.83 1.95 2.72 1.79m-82.48-18.17.82-.18 1.65-.18 2.14-.03 2.53.13 2.87.29 3.2.44 3.56.59 3.93.7 4.31.81 4.61.88 4.83.96 4.96 1.05 5.04 1.14 5.1 1.2 5.19 1.25 5.28 1.28 5.4 1.34 5.54 1.45 5.55 1.54m13.29 11.47.68 1.19.5.84.54.88.56.89.45.75.23.47v.16l-.24-.16-.49-.53-.79-1-1.15-1.58-1.53-2.17-1.85-2.67-2.19-3.2" filter="url(#a)"/><path d="m24.22-84.66-.38-.33.37.2.56.4.41.43.17.39-.08.37-.35.34-.66.31-1.02.29-1.41.27-1.84.27-2.25.24-2.65.23-3.06.21-3.5.18-3.97.15-4.52.1h-5.13l-5.75-.09-6.32-.18-6.82-.24" filter="url(#a)"/><path d="m-1.08-89.54 1.73.17 1.44.25 1.61.45 1.96.63 2.21.77 2.35.89 2.44.99 2.54 1.09 2.67 1.18 2.8 1.26 2.89 1.3 2.93 1.33 2.9 1.32 2.82 1.3 2.74 1.28 2.67 1.28 2.58 1.26 2.43 1.17 2.1.95 1.65.65" filter="url(#a)"/><path d="m51.22-66.21 1 1.07.63.72.63.77.67.84.61.82.5.71.34.54.18.37.01.18-.19-.02-.43-.28-.7-.55-.98-.84-1.26-1.15-1.6-1.48-2-1.92-2.5-2.42-3.05-2.95-3.56-3.45m-59.23-10.97 1.46-.42.75-.19h.34l.06.16-.16.35-.4.54-.72.77-1.14 1.02-1.69 1.3-2.28 1.61-2.86 1.93-3.34 2.2-3.84 2.48-4.43 2.81-5.18 3.26-6.06 3.84m80.43-17.01.79.38.46.4.36.47.14.48-.14.47-.44.47-.78.47-1.19.44-1.64.36-2.15.25-2.64.15-3.15.06-3.67-.01-4.22-.07-4.8-.16-5.4-.24-6.01-.31-6.65-.36-7.41-.36-8.37-.32m9.16-8.24.43-.09 1.07-.25 1.36-.25 1.58-.24 1.73-.23 1.74-.22 1.6-.19 1.38-.18 1.19-.16 1.02-.13.81-.1.49-.06.02-.01-.44.01-.66.02" filter="url(#a)"/><path d="m35.57-79.25.94.91.52.99-.17.95-.96.87-1.8.81-2.59.78-3.36.81-4.15.86-4.97.91-5.87.96-6.8 1.04-7.76 1.12-8.68 1.2-9.56 1.18-10.42 1.06-11.35.84" filter="url(#a)"/><path d="m36.48-78.51 1.64 1.16.98.82.53.6.06.39-.36.21-.73.09-1.15-.02-1.62-.17-2.14-.32-2.68-.51-3.22-.67-3.78-.86-4.34-1.05-4.92-1.29-5.63-1.58-6.58-1.85-7.83-2.07" filter="url(#a)"/><path d="m-28.23-83.2.77-.12 1.34-.37 1.58-.37 1.75-.32 1.97-.26 2.23-.25 2.48-.24 2.67-.24 2.74-.22 2.73-.2 2.67-.16 2.62-.12 2.59-.11 2.57-.09 2.55-.08 2.48-.07 2.36-.04 2.13-.03 1.82-.07 1.49-.15 1.2-.24" filter="url(#a)"/><path d="m-31.42-81.38.86-.52.92-.47 1.04-.48 1.07-.48 1.01-.46.92-.41.82-.36.74-.29.66-.22.57-.16.42-.08.2.01-.13.15-.5.29-.89.46-1.29.64-1.66.82-2 1-2.41 1.19-3.07 1.53m66.88-1.69 14.55 14.14.91.31-1.07-.75-1.68-.17-2.67.17-3.38.26-3.16.2-2.08.22-1.01.59-.76 1.14-1.17 1.48-1.12 1.37.19.89 1.83.23 1.16-.92-3.57-3.11-5.37-4.07 31.14 7.7m-107.05-4.68 28.23-4.33-2.96 3.42 6 2.37 14.85 1.69L9.2-61.14l8.74 1.23 2.4.23-1.44-1.09-2.57-2.25-2.32-2.75-2.02-2.39-2.28-1.35-2.73-.11-2.58.78-1.19 1.04 1.4.71 4.4.13 6.39-.34 5.71-.57 1.28-.79-6.42-1.69-13.39-3.97-8.05-6.18 27.17-5.08" filter="url(#a)"/><path d="M70.45-34.44 56.87-53.25l-4.22-4.67-4.93-3.74-7.95-4.65-9.56-4.8-7.38-3.36-2.52-.96 1.32 1.01 1 1.5-3.6.49-9.32-1.08-11.99-2.17-9.1-2.42-1.31-2.44 8.37-2.85 15.14-2.59 12.51.58" filter="url(#a)"/><path d="m-45.8-71.23 35.81-5.84 3.78-3.2 3.89-.32 6.09 1.76 6.2 2.54 5.84 2.75 5.04 2.76 2.76 2.32-.83 1.31-4.13.1-5.57-.76-5.3-1.08-4.68-1.1-4.63-1.06-4.06-.95-.85-.68 5.66-.64 12.72-1.62 15.22-2.49L44.02-73" filter="url(#a)"/><path d="M70.45-34.44 32.67-59.18 5.4-70.28l-8.14-3.29-.71 1.38-1.71 3.06-3.75 2.98-3.61 2.17-2.18.81-.91-1.07.13-2.93 2.03-3.91 5.41-3.37 9.42-1.46 12.18.94 11.91 2.78 7.71 3.43-.29 2.98-10.48 1.12-14.8-4.13 24.16-12.67" filter="url(#a)"/><path d="m41.78-74.66-1.67.02-8.63-3.08-8.52-1.68-7.79.42-5.44 2.42-.18 4.09 5.58 4.84 8.14 4.05 5.87 1.77.37-.93-5.03-2.8-7.76-3.29-7.43-3.05-5.76-3.16-4.68-3.85-4.75-3.73-5.75-.82-11.62 6.5-36.63 21.7" filter="url(#a)"/><path d="m48.44-69.02-51.39-5.72-15.15 4.63 3.3 5.37 7.96 1.46 6.79-2.08 5.19-3.24 4.72-2.38 5.02-.56 5.58 1.35 6.16 2.89 6.49 3.75 5.98 3.7 4.07 2.75.68 1.16-3.52-.58-7.51-2.11-10.35-3.24-11.41-3.79L.92-69.19l-5.49-2.24 3.05-.26 11.44 1.07 4.36-.55-44.57-10.88" filter="url(#a)"/><path d="M60.41-54.21 25.99-74.49l-8.83-4.69.64-.76 1.11-.32.5.32 1.51 1.78L24-74.97l3.08 3.54.72 2.58-2.88.95-5.69-.48-6.39-1.34L7.7-71.5l-3.27-2.09-1.93-2.18-1.31-1.72-.93-.53-.99.83-2.92 1.21-7.37-.01-10.5-2.07-4.06-3.79 13.25-6.38" filter="url(#a)"/><path d="M31.23-81.57 3.67-80.09l-4.59 3.52-2.06 3.6-.9 2.75 2.79 2.13 8.08 2.08L18.9-63.5l12.04 2.9 8.13 2.35 1.59.04-5.05-3.58-8.76-6.47-7.6-6.26-3.1-2.79-.52.54-1.17-.58 22.02-1.16" filter="url(#a)"/><path d="m-53.44-63.82 34.76-12.56 15.49-1.91 10.45.31 5.67.87 2.77 1.19 1.98 1.26 1.95.95 1.45.39.03-.21-1.78-.62-3.09-.58-3.03.01-1.37 1.01 1.38 2.11 4.06 2.87 5.45 3.03 4.89 2.55 2.61 1.57-1.15.21-6.59-1.35-11.32-1.31-.64 6.06 60.53 25.94" filter="url(#a)"/><path d="m31.77-81.46 9.28 17.25-4.66-3.08-3.02-3.59-2.92-1.67-3.11-.39-2.21.12-.67.28.69.39 1.39.57 1.35.79.56.95-1.06.92-3.45.51-6.2-.22-8.4-.8-9.01-.68-7.26.32-3.13 1.52 2.24 1.71 6.39.37 6.46-1.32 2.68-.72 4.66 3.66 48.17 10.49" filter="url(#a)"/><path d="m23.53-85.21 14.38 16.17-7.46-1.55-2.68-.06 3.76 2.26 4.83 1.53 2.49-.5-.29-1.74-2.4-1.56-4.09-.53-5.62.35-6.58.42-5.99-.21-3.44-.9.04-.95 2.14-.14.97 1.26-1.52 3.11 2.62 5.87 21.58 10.15 34.26 19.14" filter="url(#a)"/><path d="m60.41-54.21-23.7-15.21-8.64-.87-4.53 2.44-9.46-.09-13.04-2.55-12.7-2.83-10.02-1.62-6.39-.43-2.27-.15 1.73-.64 4.36-1.19 4.5-1.21 2.08-.49-1.29.71-2.89 1.84-.52 1.83 1.56.5-27.49 5.15" filter="url(#a)"/><path d="m21.7-85.58 8.94 4.63.73 2.15-4.67 1.74-4.14 2.76-.99 2.74 1.03 1.3.93-.45-.52-1.37-2.43-1.27-4.24-.67-5.39-.15-5.04.15-2.66.37 1.18.63 4.89.77 6.71.49 6-.19 4.01-.77 2.7-.4 2.46.95.61 1.83-6.51-.38-14.97-6.79 4.98-10.27" filter="url(#a)"/><path d="m-59.3-56.02 5.95-3.73 16.42-7.92 14.48-5.45 6.25-2.07-.63-.37-3.67-.09-3.37-.45-.95-.93 2.46-1.01 6.34-.11 10.47 1.83L8.24-72.5l12.32 3.74.39-.51-21.2-7.64-30.1-5.17" filter="url(#a)"/><path d="m-51.1-66.4 67.65 3.35 26.61 3.27 7.95.27-.03-.7-4.76-1.68-8.47-3.59-10.18-5.33-8.8-5.58-4.8-4.35-.17-2.53 3.12-.92 4.84.66 6.98 3.1 11.45 7.55 18.1 15.64m16.75 44.39-.42-1.29-.62-1.98-.65-1.81-.68-1.46-.66-1.16-.61-.95-.55-.87-.54-.92-.6-1.04-.74-1.15-.92-1.21-1.01-1.17-1.03-1.05-1-.94-.96-.85-.92-.84-.75-.83-.43-.55-.32.29M-1.08-89.54l1.58.05 1.02-.04.94-.02h3.31l1.02.04.98.08 1.01.11 1.1.13 1.2.12 1.27.11 1.26.1 1.15.07 1 .04.9.02 1.09.13 1.39.53" filter="url(#a)"/><path d="m-3.08-89.25 1.82-.06 1.47.15 1.13.29 1.01.36 1.06.4 1.08.45 1.04.47.98.43.93.35.96.29 1.04.27 1.11.32 1.17.46 1.15.62 1.02.72.79.6.63.31 1.17.06-20.12-6.55.12-.24.93-1.13 1.28-1.62L0-93.56l1.21-.6 1.16-.3 1.2-.45 1.24-.82 1.24-1.08 1.17-1.03 1.1-.73 1.1-.42 1.21-.26 1.36-.34 1.6-.68 2.01-1.2 3-1.93-52.87 2.28 1.98-.22 1.47.34 1.45.85 1.48 1.16 1.62 1.32 1.75 1.26 1.77.85 1.61.17 1.35-.55 1.11-1.04.99-1.04 1.03-.56 1.19.22 1.38.97L-12.6-96l1.45 1.3 1.24.94 1.04.81 1.06 1.26 1.52 1.65 2.65.73-2.56-.04-1.37-.18-.92-.3-.92-.51-1.12-.76-1.33-.95-1.43-1.07-1.4-1.16-1.33-1.24-1.25-1.27-1.22-1.18-1.3-1.07-1.58-1.09-2.08-1.44-2.58-1.93 22.39 14.19.14.02.95.07 1.27.17L0-88.8l1.18.25 1.12.2 1.11.18 1.08.19 1.06.27 1 .36.99.44 1 .45 1.06.41 1.12.35 1.15.31 1.12.32 1.06.4.96.54.91.72.94.86 1.07.91 1.27.85 1.51.78 1.84 1.2" filter="url(#a)"/><path d="m-7.92-88.77 1.18-.72 1.47-.59 1.3-.56 1.25-.69 1.29-.85 1.28-1.07 1.27-1.41 1.26-1.76 1.29-1.97 1.33-2 1.34-1.97 1.35-2.05 1.36-2.28 1.43-2.51 1.55-2.49 1.67-1.97 1.82-1.09 2.18-.62 3.25-1.1-28.87 27.7-.69-.35-.78-.52-1.3-1.5-1.69-2.54-1.74-2.76-1.52-1.97-1.26-.69-1.1.27-1.17.48-1.4.01-1.69-.7-1.87-1.23-1.86-1.3-1.67-.91-1.39-.29-1.21.17-1.25.16-1.5-.46-1.92-1.44-2.31-2.42-2.4-2.77-1.06-.56" filter="url(#a)"/><path d="m23.87-109.87-1.5-1.95-1.31-.5-1.23.4-1.41.8-1.61.99-1.71 1.12-1.7 1.27-1.61 1.49-1.49 1.75-1.41 2.02-1.34 2.17-1.33 2.09L4.9-96.4l-1.28 1.43-1.25 1.09-1.24.82-1.25.59-1.3.29-1.3-.01-1.3-.14-1.31.23-1.44 1.39-1.15 1.94-.77.1-1.34-.6-1.68-.07-1.46-.15-1.2-.19-1.04-.04-1 .12-1.06.19-1.19.16-1.32.11-1.39.04-1.39-.03-1.32-.13-1.25-.2-1.18-.21-1.15-.11-1.14.06-1.15.18-1.19.13-1.21-.06-1.17-.23-1.18-.19 25.42 1.2.34-.52.45-.34.76-.47 1.04-.54 1.2-.57 1.26-.65 1.29-.76 1.3-.84 1.29-.9 1.26-.95 1.25-1 1.26-1.03 1.29-1.05L6-99.42l1.25-1.24 1.2-1.42 1.22-1.58 1.37-1.59 1.52-1.29 1.39-.34-52.87 15.27.55 1.81 1.47.62 1.54.01 1.44-.06 1.34-.02 1.25-.11 1.15-.29 1.07-.44 1.04-.4 1.09-.14 1.18.2 1.3.44 1.4.41 1.45.14 1.41-.28 1.29-.6 1.13-.56 1.05-.04 1.09.8 1.06 1.38.26.92" filter="url(#a)"/><path d="m-14.36-87.82 2.05-.37 1.67-.27 1.15-.19.93-.13.93-.09 1.05-.06 1.16-.04 1.22-.04 1.25-.03 1.25-.02 1.24-.01 1.19.01 1.16.04 1.14.08 1.13.1 1.1.12 1.03.12.95.12.92.16 1.02.21 1.15.24 1.12.18m-25.81-.13v.41l-.67.62-.75.77-.83.79-.96.8-1.07.95-1.06 1.22-.94 1.41-.79 1.39-.7 1.18-.67.93-.69.8-.7.87-.68 1.04-.77 1.02-1.08 1.23m13.09-15.79.19-.12 1.22-.31 1.33-.55 1.08-.81.87-.93.87-.9.98-.82 1.12-.84 1.21-.9 1.26-.91 1.34-.79 1.43-.65 1.42-.72 1.05-.93.17-.74-17.49 11.53 1.19-.52.99-.51 1.17-.96 1.13-1.45 1.01-1.61.93-1.42.98-1.05 1.09-.68 1.21-.41 1.29-.29 1.34-.31 1.37-.5 1.36-.79 1.35-1.11 1.34-1.38 1.35-1.55 1.4-1.68 1.41-1.81 1.35-1.95 1.24-1.88 1.19-1.33 1.39-.45 1.7-1.04-29.72 25.01-.16-2.77.68-.93.93-.61 1.06-.56 1.18-.54 1.21-.45 1.14-.34 1.05-.3 1.01-.36 1.05-.51 1.14-.73L-5-96.35l1.28-1.27 1.38-1.5 1.56-1.66 1.73-1.54 1.56-.53-20.22 16.06.61-1.45.44-1.79.57-1.92.76-1.68.99-1.02 1.19-.35 1.27.06 1.24.12 1.18-.09 1.12-.48 1.14-.95 1.19-1.42 1.25-1.77 1.31-1.94 1.37-1.9 1.4-1.69 1.4-1.42 1.39-1.16 1.4-.99 1.49-.96 1.57-1.25 1.47-1.84.99-2.07-.22-.83-28.52 29.36.46-5.96 1-.68 1.02.37 1.04.4 1.1.29h1.17l1.18-.49 1.12-1.04 1.05-1.44.99-1.5 1.02-1.24 1.1-.77 1.21-.35 1.32-.14 1.39-.21 1.41-.51 1.41-.89 1.38-1.18 1.33-1.3 1.35-1.28 1.47-1.29 1.63-1.4 1.62-1.54L9.7-110" filter="url(#a)"/><path d="m-21.58-85.82 1.68-.54 1.36-.8 1.02-.8.84-.73.81-.7.85-.71.97-.69 1.1-.7 1.17-.73 1.12-.75.96-.76.8-.75.87-.73 1.39-.62 2.72-.3m-20.31 11.32-.01-.84-.74-.43-.89.34-.9.7-.93.72-.97.61-1.03.52-1.06.5-1.09.5-1.12.52-1.13.52-1.14.48-1.12.45-1.11.41-1.06.4-1.04.41-1.04.44-1.07.46-1.11.52-1.16.6-1.19.67-1.19.67-1.05.46-.68.44 3.14-15.42 1.26.37 1.53-.26 1.33-.71 1.26-.61 1.3-.46 1.35-.35 1.4-.1 1.5.36 1.62.9 1.68 1.22 1.59 1.07 1.4.59 1.22.28 1.18.62 1 1.35.07 1.08m98.88 67.66.12-1.85.54-1.58.44-1.37.24-1.12.15-1.03.14-1.15.09-1.38-.01-1.62-.08-1.77-.06-1.8.02-1.69.11-1.59.17-1.57.1-1.68-.16-1.66-.03-1.22M-23.52-85.2l.31-.23 1.32-.69 1.49-.84 1.36-.83 1.14-.79.96-.82.88-.95.87-1.12.93-1.27 1.02-1.39 1.07-1.43 1.06-1.42.99-1.38.95-1.32 1.01-1.32 1.19-1.41 1.31-1.52 1.13-1.38.88-.54" filter="url(#a)"/><path d="m-9.34-104.59-.61 1.34-.53 1.87-.86 2.34-1.1 2.21-1.17 1.7-1.1 1.16-.99.74-.92.58-.89.68-.93.94-1.06 1.23-1.25 1.45-1.37 1.45-1.18 1.2-.22.5-.84.26-1.12.26-1.11.23-1.09.21-1.11.18-1.11.21-1.12.3-1.12.43-1.12.52-1.14.53-1.16.49-1.16.41-1.16.32-1.12.25-1.03.28-.97.43-1.02.63-1.23.69-1.52.39 20.94-6.86.26.09.88.54 1.47.76 1.61.49 1.46.15 1.24.03 1.09.08 1 .12.98.07 1.02-.03 1.06-.09 1.08-.06 1.07.04.99.2.95.41.98.67 1.1.98 1.18 1.16 1.01 1.04.72.73-23.17-6.37-2.82-3.02-2.26-2.82-1.4-.51-1.12.46-1.12.67-1.14.75-1.15.76-1.23.54-1.49-.03-1.88-.94-2.27-1.92-2.5-2.58-2.5-2.46-2.31-1.41-1.57.44" filter="url(#a)"/><path d="m-25.85-84.03-1.61.61-1.19.3-1.15.16-1.18.12-1.21.24-1.18.4-1.15.51-1.11.55-1.09.53-1.09.45-1.07.39-1.08.34-1.09.35-1.12.41-1.14.51-1.15.61-1.17.69-1.2.7-1.25.61-1.36.45-1.48.2-1-.63 43.15-13.95-1.24.21-1.62.3-1.38.3-1.11.3-.95.31-.93.32-.97.33-1.1.35-1.22.38-1.29.41-1.26.43-1.14.42-.98.4-.9.4-.89.42-.94.43-.93.4-.61.17-2.12 1.12.6-.21.99-.38 1.04-.35 1.03-.31 1-.27.96-.26.98-.24 1.06-.26 1.15-.27 1.25-.29 1.26-.3 1.21-.28 1.11-.23 1.02-.2.98-.16 1-.14 1.12-.11 1.28-.1 1.34-.09 1.03-.05.25.09-22.73 5.11 1.14.37 1.26.8 1.11.11.99-.31 1.01-.17 1.09.23 1.15.51 1.15.49 1.13.22 1.14-.12 1.16-.32 1.18-.31 1.17-.13 1.1.1 1.01.29.94.37.94.43 1.05.54 1.44.69 2.21.66-23.37-4.45.72-.79.56-1.26.61-1.45.71-1.33.82-1.03.89-.71.93-.53.93-.58.95-.83 1.01-1.13 1.11-1.29 1.22-1.22 1.22-.97 1.12-.81.94-.93.79-1.27.62-1.51-.2-1.65" filter="url(#a)"/><path d="m-31.42-81.38-1.85.39-2.08-1.39-2.27-2.07-2.13-1.67-1.78-.9-1.4-.18-1.1.43-.9.9-.81 1.23-.81 1.33-.96 1.2-1.2.84-1.53.34-1.84-.16-2.09-.55-2.26-.71-2.34-.65-2.34-.43-2.32-.19-2.29-.15-2.26-.45-2.27-.96-2.22-1.3-1.8-1.63M80.79-43.58l-.35 1.44-.27 1.99.44 1.53.62 1.27.15 1.49-.64 1.97-1.31 2.39-1.57 2.48-1.37 2.22-.82 1.7-.19 1.17.27.84.16.94-.71 1.41-1.16 1.27M-33.97-79.95l-2.18 1.16-1.31.66-1 .35-1.07.1-1.28-.07-1.39-.06-1.36.14-1.26.44-1.15.68-1.13.74-1.15.67-1.2.54-1.25.48-1.28.53-1.33.67-1.37.8-1.34.8-1.14.61-.97.3-1.45.49" filter="url(#a)"/><path d="m-33.97-79.95-2.79-.13-1.73-.18-.93.45-.71.77-.8.81-1 .67-1.23.42-1.47.12-1.67-.16-1.8-.33-1.77-.31-1.61-.11-1.46.08-1.56.06-2.03-.2-2.54-.2-1.48.82-4.38.35.03-.4 1.63.78 2 .9 2.1.55 2.05.12 1.9-.13 1.78-.1 1.76.12 1.79.33 1.78.39 1.69.25 1.56-.01 1.39-.28 1.22-.49 1.1-.67 1.19-.81 1.69-.8" filter="url(#a)"/><path d="m-38.27-77.27-1.54 1.12-1.22.78-1.09.69-1.09.72-1.09.74-1.07.73-1.04.71-1.03.72-1.02.75-1.02.82-1.03.9-1 .93-.95.9-.86.81-.79.72-.76.71-.75.77-.77.86-.77.85-.81.84-1.12 1.49" filter="url(#a)"/><path d="m-40.21-75.8-1.1.36-.98.65-1 .8-1.06.8-1.09.72-1.11.62-1.11.58-1.09.63-1.08.75-1.05.88-1.02.93-.97.86-.94.74-.9.63-.88.6-.86.67-.83.77-.78.83-.74.81-.69.69-.42.02" filter="url(#a)"/><path d="m-40.21-75.8-1.25.05-1.15.32-1.54-.07-1.87-.47-1.81-.42-1.5.04-1.14.55-.95.89-1.06.92-1.41.65-1.9.14-2.24-.42-2.16-.72-1.62-.53-.96-.02-.54-.22 23.1-.69-1.01.48-1.15.3-1.44.05-1.62-.1-1.55-.01-1.37.22-1.23.4-1.23.43-1.41.35-1.68.24-1.9.15-1.9.07-1.72-.13-1.71-.62-3-1.29 21.56.92.86-1.46.34-2.29-.26-3.12-.17-2.69.35-1.67.81-.98.95-.99.84-1.46.66-1.99.59-2.28.6-2.34.56-2.44.43-2.72.38-2.98.63-2.77 1.36-2.86-8.38 35.03-2.32 1.47-1.87-.2-1.97-.77-1.73-.41-1.42.14-1.43.36-1.69.23-1.92-.02-1.98-.24-1.95-.43-2.03-.67-2.34-.98-2.8-1.27-3.02-1.31-2.3-.79-.1.41 27.35 7.34 2.24-1.74 1.25-.8 1.14-.47 1.16-.25 1.17-.12 1.12-.08 1.1-.12 1.08-.19 1.09-.29 1.09-.36 1.1-.41 1.08-.45 1.06-.47 1.02-.49.98-.49.97-.42.99-.3 1.02-.11 1.02.06.96.18.83.21.76.02 1.43-.47" filter="url(#a)"/><path d="m-45.2-72.17-2.26-.9-.9 1.13-.64 1.27-.84 1.11-1.08.95-1.21.77-1.2.57-1.09.46-.98.47-.9.56-.9.62-.95.64-.96.66-.92.72-.9.83-1.06.88-1.45.86-1.78.42 16.92-8.87.12.02-.56.94-.7 1.54-.43 1.82-.15 1.81-.09 1.54-.26 1.17-.5.88-.66.75-.68.78-.6.87-.49 1.02-.33 1.24-.13 1.51.05 1.76.17 1.84.18 1.77.35 2.24 4.99-23.84-1.76 2.61-.98 1.64-.78.95-.63.75-.55.78-.56.85-.62.9-.64.93-.63.97-.57 1.08-.49 1.21-.43 1.32-.4 1.4-.41 1.42-.46 1.39-.52 1.34-.54 1.3-.51 1.29-.43 1.28-.31 1.31-.2 1.4-.16 1.57-.24 1.85-.1 2.06" filter="url(#a)"/><path d="m-48.02-69.36-2.39 1.79-1.4 1.13-1.25.41-1.41-.14-1.57-.34-1.5-.16-1.23.29-.88.77-.61 1.12-.55 1.28-.66 1.24-.89 1.08-1.16.91-1.36.77-1.49.71-1.53.71-1.51.78-1.42.83-1.28.91-1.06 1-.83 1.13-.81 1.4-1.64 2.09M-51.1-66.4l-.8.62-.75.6-.55.6-.54.69-.63.76-.72.81-.78.81-.83.78-.85.8-.88.85-.88.93-.87 1.02-.86 1.08-.86 1.1-.88 1.13-.91 1.18-.91 1.24-.88 1.28" filter="url(#a)"/><path d="m-53.44-63.82-1.39-2.33-2.26-1.58-1.95-.55-1.63.02-1.19.55-.78 1-.6 1.26-.67 1.29-.92 1.15-1.27.92-1.67.63-2.06.35-2.32.16-2.38.16-2.13.35-1.71.7-1.27 1.07-1.1 1.28-1.37 1.22-1.93.9-2.38.45-2.2.1-1.88.26 54.32-22.34-.86.52-.66.31-.75.39-.88.53-.98.62-1 .7-1.01.77-1.01.8-1 .78-1 .73-.98.7-.96.71-.97.78-1.06.9-1.15 1.01-1.16 1.01-.79.74.25-.16M73.74-22.33 75.9-21l1.07 1.48.22 1.8.03 1.75.24 1.54.49 1.38.63 1.34.71 1.38.89 1.37 1.25 1.32 1.71 1.23 2.11 1.18 2.27 1.17 2.16 1.27 1.84 1.47L92.95.4l.98 1.95.5 2.03.06 2.03-.34 2.39-20.41-31.13.31 1.83.29 1.68.35 1.75.39 1.63.41 1.45.37 1.35.34 1.35.3 1.37.27 1.36.25 1.32.22 1.25.19 1.22.17 1.23.17 1.28.2 1.38.26 1.49.29 1.58.27 1.61.19 1.59.09 1.48.03 1.34.1 1.1.27.85.23 1.27-5.96-33.76-.37-.51-.43-.39-.5-.76-.53-1.17-.52-1.45-.48-1.56-.45-1.49-.45-1.34-.48-1.18-.55-1.08-.62-1.01-.68-.93-.73-.85-.82-.93-1.02-1.35-1.12-1.88M-55.4-60.97l1.54-1.17.9-.59.76-.39.82-.4 1-.48 1.22-.48 1.42-.33 1.55-.03 1.64.28 1.69.52 1.64.5 1.47.2 1.21-.28 1.08-.48 1.24.06 1.55.72" filter="url(#a)"/><path d="m-57.17-58.64-.07-.5.3-1.03.48-.99.53-1.05.47-1.15.41-1.15.4-1.07.46-.99.6-1.02.73-1.21.78-1.45.69-1.58.51-1.45.45-1.33 1.23-1.9m-12.13 23.85.86-1.41.76-1.07.86-1.01.89-.98.86-.92.81-.84.78-.79.79-.76.8-.72.8-.64.78-.55.75-.47.76-.52.92-.72 1.33-1.12 2.17-1.85" filter="url(#a)"/><path d="m-64.88-46.37.58-1.28.65-1.18.71-1.22.75-1.25.76-1.23.76-1.21.77-1.17.78-1.14.77-1.1.75-1.05.73-1 .72-.95.7-.92.69-.89.67-.84.65-.8.63-.77.7-.8.86-.94 1.15-1.18 1.37-1.31 1-.84-18.7 26.3.94-2.15.58-1.3.52-1.14.57-1.15.65-1.2.69-1.22.72-1.24.74-1.22.75-1.19.75-1.17.75-1.14.73-1.1.69-1.05.66-1.01.66-.97.69-.98.76-1.01.81-.99 1.16-1.16-6.56 1.83-.16.69-.45 1.22-.49 1.4-.52 1.46-.55 1.44-.6 1.38-.68 1.32-.72 1.27-.7 1.27-.61 1.31-.44 1.37-.31 1.43-.27 1.5-.33 1.5-.44 1.44-.49 1.23-.4.89-.4.83-.36 1.23-1.41 1.39-1.94.45-1.54.63-.82 1.07-.66 1.2-1.08 1.05-1.61.84-1.88.8-1.77.92-1.53 1.08-1.38 1.14-1.38 1.1-1.46 1-1.56.98-1.7 1-1.87 1.07-1.83 1.18-2.12.85 27.54-17.75-.78 1.7-1.23.81-1.81.5-1.98.5-1.67.68-1.1.94-.58 1.19-.36 1.38-.49 1.42-.82 1.36-1.19 1.22-1.45 1-1.47.84-1.14.93-.59 1.18m15.67-13.04 1.36-.1.43-1.27.43-1.23.64-.94.96-.7 1.35-.53 1.64-.42 1.66-.42 1.35-.57.89-.85.62-1.01.79-.92 1.38-.51 2.06-.02 2.58.21M-71.4-30.6l-.61 1.58-.93 1.39-1.06 1.26-.76 1.2-.47 1.18-.48 1.15-.74 1.09-1 1.06-1.08 1.07-.91 1.11-.64 1.19-.39 1.26-.29 1.3-.34 1.35-.47 1.37-.62 1.39-.75 1.45-.88 1.56-.98 1.75-1.03 1.9-.93 1.87-.6 1.51-.41.71" filter="url(#a)"/><path d="m-72.08-28.73.5-1.43.34-1.18.31-1.21.29-1.29.2-1.39.04-1.5-.17-1.63-.3-1.7-.31-1.71-.25-1.67-.12-1.64-.03-1.66.03-1.69.09-1.71.21-1.66.38-1.54.59-1.42.72-1.41.62-1.55.31-1.84.02-2.01-.07-1.83-.46-1.92m142.08 40.6.22.65.5.65.8.58 1.13.73 1.39.97 1.43 1.22 1.2 1.4.87 1.51.59 1.51.51 1.49.58 1.45.75 1.46.91 1.44 1.05 1.39 1.19 1.32 1.34 1.22 1.41 1.13 1.43 1.09 1.63 1.28L94.64.04M72.47-27.28l-1.05-2.02-1.26-1.13-.99-.86-.69-.9-.66-.95-.75-.91-.81-.88-.71-.94-.56-1.08-.46-1.13-.55-1.02-.78-.75-1.05-.47-1.2-.4-1.15-.72-1.39-1.74" filter="url(#a)"/><path d="m71.54-2.64.53-1.06.22-1.11.16-1.15.21-1.26.2-1.35.12-1.39.04-1.38.02-1.37.03-1.42.01-1.5-.03-1.55-.11-1.54-.13-1.41-.07-1.23.04-1.04.1-.92.03-.95-.14-1.2-.3-1.81 2.69 18.87-.2-2.14-.17-1.58-.13-1.2-.15-1.27-.18-1.49-.2-1.62-.2-1.56-.2-1.38-.19-1.13-.19-.94-.2-.87-.24-.97-.32-1.28-.46-1.77-.65-2.32m13.5-35.02-2.33 2.3-1 2.83-.86 2.98-.63 2.53-.38 2.06-.25 1.78-.24 1.75-.33 1.86-.53 2-.7 2.04-.68 1.94-.57 1.8-.76 1.87-1.52 2.15-2.13 2.12-1.01.91m-7.46-34.3.29 1.45.26 1.87.46 1.65.53 1.43.47 1.36.38 1.45.26 1.56.18 1.64.12 1.64.12 1.63.14 1.57.2 1.52.26 1.44.33 1.35.38 1.26.42 1.2.45 1.21.44 1.25.4 1.25.37 1.24.36 1.22.33 1.33.16 1.49.07 1.38" filter="url(#a)"/><path d="m69.19-36.9-.14-.31-.7-.65-1.13-.85-1.29-.75-1.41-.55-1.42-.45-1.27-.56-.97-.81-.63-1.06-.42-1.2-.41-1.18-.54-1.07-.72-.92-.91-.77-1.07-.61-1.26-.39-1.48-.15-1.69.04-1.75.12-1.6.01-1.23-.21-.82-.49-.79-.54L69.19-36.9l-.24-.25-.33-.85-.51-1.22-.55-1.25-.53-1.13-.51-1.05-.53-1.06-.57-1.12-.58-1.16-.6-1.17-.61-1.12-.64-1.09-.69-1.09-.73-1.09-.71-1.06-.66-.98-.63-.93-.75-1.01-.97-1.18 3.21-8.58.5 1.03.44 1.33.54 1.44.64 1.34.67 1.23.6 1.22.47 1.32.31 1.48.19 1.59.12 1.62.15 1.56.29 1.45.52 1.31.73 1.15.85.99.77.9.52.99.24 1.29.14 1.95-.34 3.42" filter="url(#a)"/><path d="m69.41-36.68-.99-2.65.08-2.09.73-1.94.76-1.85.44-1.76-.02-1.6-.49-1.34-.88-1.07-1.08-.92-1.06-.93-.89-1.06-.67-1.25-.47-1.4-.35-1.5-.28-1.59-.22-1.7-.16-1.78-.16-1.79-.28-1.68-.49-1.5-.65-1.46-.59-1.74-.24-2.18.39-2.08" filter="url(#a)"/><path d="m65.98-44.26.68 1.05.8.76 1.11.7 1.39.72 1.47.74 1.41.74 1.33.75 1.33.77 1.38.79 1.38.83 1.35.95 1.31 1.15 1.31 1.41 1.27 1.65 1.32 1.68 1.77 1.38 2.26 1.44" filter="url(#a)"/><path d="m63.46-49.2 1 1.87.9 1.67.7 1.26.6 1.05.59.98.64 1 .69 1.05.74 1.06.75 1.06.73 1.04.72 1.05.7 1.07.69 1.12.69 1.21.69 1.32.7 1.47.7 1.55.64 1.52.6 1.27.58.86.68.38.95.38L63.81-48.8l.11-.04.38.47.74.93.96 1.05 1.06.94 1.09.77 1.07.69 1 .76.93.92.91 1.03.98.99 1.02.85.93.9.76 1.26 1 1.27.67 6.87-.85-2.29-.92-1.41-.77-1.06-.74-1-.82-.97-.9-.96-.89-.96-.79-1.03-.66-1.12-.52-1.21-.42-1.23-.4-1.17-.51-1.09-.72-1.04-.97-.99-1.12-.94-.98-.79-.5-.43-.13.03-2.25-3.58 1.74 1.96 1.1.68.91.61.93.85.97.99.95 1.01.83.97.65 1.02.49 1.12.5 1.2.66 1.16.92 1.01 1.12.84 1.16.83 1.04 1.04.87 1.23.89 1.08-15.73-17.6-.2-.96-.19-1.02-.44-1-.6-1.1-.55-1.3-.35-1.53-.16-1.72-.1-1.78-.17-1.71-.32-1.58-.44-1.43-.51-1.34-.53-1.29-.58-1.31-.68-1.33-.79-1.37-.84-1.41-.74-1.46-.55-1.53-.45-1.53-.68-1.01" filter="url(#a)"/><path d="m61.56-52.38 1.47 2.18.83.91 1 .6 1.44.52 1.72.5 1.73.49 1.58.54 1.45.61 1.37.69 1.25.82 1.03 1 .78 1.16.73 1.2.96 1.09 1.47.85 1.99.62 2.28.54 2.27.75 2.23 1.23 2.51 1.82 2.04 2.52-41.68-61.24 1.16 3.03.82 1.94.66 1.64.58 1.57.51 1.67.53 1.75.66 1.68.9 1.41 1.09 1.1 1.1.95.85 1.08.41 1.53-.11 2.1-.52 2.6-.69 2.8-.57 2.63-.22 2.21.16 1.77.43 1.49.48 1.41.36 1.37.22 1.18.29.92-.57-.93 1.19.53 1.12 1.05.77 1.3.62 1.2.65 1.1.76 1.06.83 1.04.83 1.04.8 1.01.76 1 .75 1.01.74 1.05.72 1.09.65 1.14.6 1.14.57 1.15.62 1.12.74 1.05.87.96 1 .98 1.14 1.34 1.22 2.17-7.39-5.2-.89-1.6-.47-.97-.47-1.01-.55-1.16-.58-1.19-.54-1.12-.53-1.05-.53-1.06-.55-1.12-.58-1.19-.6-1.18-.6-1.11-.63-1.04-.73-1.07-.85-1.21-.85-1.26-.61-.99" filter="url(#a)"/><path d="m43.55-77.86 1.54 1.59 1.07 1.03.89.87.83.83.79.9.78 1.02.77 1.16.77 1.24.73 1.25.68 1.2.62 1.12.6 1.07.63 1.06.67 1.09.69 1.11.67 1.07.65.99.66.95.8 1.07-2.25-2.79-.2-1.74-.3-1.78-.47-1.42-.45-1.23-.32-1.35-.13-1.79.12-2.41.34-2.93.46-3.15.4-3.02.23-2.66.04-2.35.02-2.35.38-2.93.93-3.7 8.2 53.75.03-.16-.27-.76-.43-1.02-.49-1.2-.51-1.29-.52-1.23-.55-1.14-.6-1.09-.64-1.08-.65-1.11-.61-1.12-.55-1.13-.5-1.17-.51-1.23-.57-1.26-.63-1.18-.64-.98-.61-.79-.66-1.2.75.86 1.1.44 1.59.1 2.02-.14 2.23-.26 2.26-.28 2.09-.15 1.79.17 1.46.61 1.33.84 1.52.68 1.84.24 1.97.15 2.08.83 3.38 1.79" filter="url(#a)"/><path d="m54.59-62.39 1.44.32.71.97.78.86 1.05.66 1.28.55 1.36.51 1.35.52 1.27.55 1.18.65 1.14.8 1.15.87 1.23.77 1.34.53 1.48.41 1.97.73 3.42 1.44M32.78-89.39l.88 1.2.73.97.71 1.05.78 1.09.85 1.06.92 1.02.99 1.01 1.05 1.01 1.07 1 1.05.97.98.95.88.98.79 1.02.74 1.08.71 1.08.71 1.05.7 1.02.68 1.04.7 1.13.82 1.26.99 1.33.71.86-2.78-2.81 1.53-3.47-.75-.47-.84-.67-.65-1.13-.59-1.3-.66-1.25-.75-1.11-.81-1.05-.86-1.13-.86-1.3-.87-1.44-.91-1.45-.96-1.3-.99-1.11-.96-1.05-.87-1.2-.7-1.51-.53-1.89-.48-2.21-.75-2.39-1.51-1.98" filter="url(#a)"/><path d="m46.13-70.85 1.1.72.98.6 1.31.47 1.56.33 1.55.24 1.39.27 1.17.42.99.63.94.77.97.84 1.03.81 1.05.79.99.86.91.99.89 1.09 1 1.02 1.12.75 1.01.53.72.62m-15.44 4.53.58-2.06.13-1.88-.18-1.65-.44-1.26-.63-.89-.72-.72-.73-.81-.67-1.1-.59-1.38-.57-1.43-.64-1.19-.75-.86-.74-.81-.4-1.32-.19-1.68-24.91-.32.85-.03 1.02.61 1.06.21 1.21-.47 1.38-.96 1.45-1.04 1.35-.75 1.19-.31 1.06.06 1 .25 1.04.25 1.12.18 1.22.15 1.29.18 1.35.25 1.33.33 1.19.45.95.59.87.64 1.26.23 1.72-.5" filter="url(#a)"/><path d="m32.57-88.8 1.18.31.81.72.79.76.85.86.84 1.04.78 1.2.79 1.31.85 1.36.91 1.4.85 1.46.69 1.48.54 1.38.58 1.14.85.98.95.79M28.77-89.4l.75.47.84.89.96.99.94 1 .84 1.02.79 1.03.76 1.04.77 1.07.79 1.08.83 1.09.91 1.13 1.03 1.16 1.09 1.12 1.01.95.65.55.04.13" filter="url(#a)"/><path d="m42.4-74.22-.02-.55.8-.26 1.34-.17 1.63-.34 1.74-.5 1.77-.54 1.75-.5 1.73-.32 1.64.02 1.51.44 1.34.82 1.16.93 1.06.67 1.06.02.71-.23-.97 12.85-.83-.53-1.06-.56-1.06-.75-1.01-.86-.96-.82-.95-.73-.97-.67-1.02-.67-1.06-.72-1.08-.78-1.06-.8-1.02-.77-.99-.72-.98-.66-.97-.62-.98-.62-.97-.6-.92-.61-.87-.63-.94-.69-1.16-.73-.75-.32 6.37 21.13-1.11-.91-.48-1.61-.27-1.89-.26-1.7-.31-1.45-.38-1.26-.5-1.07-.65-.87-.77-.72-.77-.74-.63-.98-.46-1.32-.44-1.6-.6-1.69-.78-1.79-.74-2.12-.69-1.92" filter="url(#a)"/><path d="m46.16-56.53-.53-1.69-.64-1.41-.71-1.3-.68-1.15-.59-1.09-.5-1.1-.49-1.11-.55-1.04-.65-.93-.66-.93-.58-1.09-.48-1.34-.45-1.6-.55-1.81-.7-1.91-.87-1.83-.96-1.39-3.8-2.21.26-.16-.64-.51-1.02-.52-1.05-.59-.96-.7-.88-.81-.86-.81-.87-.72-.86-.59-.86-.52-.92-.51-1.11-.55-1.31-.56-1.37-.64-1.25-1.09" filter="url(#a)"/><path d="m31.77-81.46 2.1.92 1.5.17 1.66-.65 1.96-1 2-.81 1.83-.33 1.56.1 1.37.35 1.31.36 1.38.2 1.56-.07 1.81-.39 2.04-.7 2.22-.88 2.26-.79 2.13-.43 1.93.09 1.76.45 1.77.41 1.98-.13 2.32-.87 2.51-.99 2.81.12L7.7-110.78l1.09 1.2.87 1.28 1.03 2.1 1.19 2.27 1.3 1.86 1.34 1.24 1.31.73 1.27.4 1.24.28 1.24.35 1.24.56 1.22.88 1.15 1.17 1.03 1.38.89 1.5.77 1.62.66 1.76.59 1.88.62 1.83.76 1.43 1.06.65 1.45-.13 1.51-.01.21 3.64" filter="url(#a)"/><path d="m32.74-80.91-.95-1.7-1.03-1.31-.97-1.1-.95-.86-.96-.65-.95-.66-.87-.89-.8-1.19-.77-1.4-.85-1.44-1-1.33-1.13-1.22-1.17-1.22-1.08-1.35-.95-1.54-.86-1.76-.93-1.98-1.18-2.06-1.39-1.79-1.3-1.19m18.58 25.98-1.25-.55-1.17-.53-1.01-.47-.97-.46-.97-.42-.97-.38-.98-.34-1.03-.32-1.09-.31-1.16-.32-1.2-.34-1.2-.33-1.15-.31-1.1-.27-1.09-.25-1.13-.22-1.18-.21-1.22-.21-1.23-.19-1.15-.16-1.01-.11-.8-.06h-.58l-.25.08-3.8 7 2.14-.39 1.13-.62.85-.65.88-.48.99-.26 1.09-.06 1.15.1 1.15.2 1.11.26 1.08.22 1.07.14 1.11.03 1.17-.01 1.21.02 1.22.08 1.17.11 1.13.07 1.08-.04 1.09-.15 1.12-.16 1.09-.06 1.03.09 1.03.25 1.47.5" filter="url(#a)"/><path d="m30.1-82.06 1.56-.85 1.37-.79 1.5-.96 1.64-.93 1.62-.67 1.56-.33 1.52-.03 1.54.16 1.58.22 1.64.1 1.73-.15 1.81-.39 1.77-.4 1.63-.14 1.43.26 1.31.46 1.45.22 1.8-.45 2.16-1.29 2.49-2.04" filter="url(#a)"/><path d="m28.11-83.01 2.32-1.13L32-84.5l1.39-.49 1.17-.03.99.56 1 .77 1.18.56 1.44.19 1.68-.16 1.82-.36 1.8-.35 1.66-.18 1.45.11 1.26.39 1.18.56 1.24.51 1.37.29 1.52.05 1.66-.1 1.77-.07 1.87.2 1.75.79.62 1.34m-37.6-4.74-.28-.43.77-.34 1.42-.93 1.64-1.3 1.57-1.06 1.4-.52 1.28-.03 1.22.18 1.25.14 1.34-.06 1.47-.31 1.59-.51 1.7-.59 1.78-.5 1.82-.31 1.88-.1 1.9-.02 1.78-.03 1.44.06 1.1.48 2.12.61" filter="url(#a)"/><path d="m21.7-85.58 1.74-.78.65.26.76.31.99.19 1.09.19 1.06.32 1.03.46 1.02.56 1.02.56 1.03.49 1.06.39 1.1.29 1.15.21 1.19.18 1.23.26 1.27.42 1.36.64 1.47.82 1.51.76.83-.04M21.7-85.58l-1.44-.63-1.31-.62-1.13-.85-.93-1.09-.84-1.16-.91-1.03-1.06-.86-1.18-.86-1.2-1.01-1.16-1.18-1.07-1.24-1.02-1.16-1.01-1.08-1.07-1.06-1.17-1.15-1.22-1.28-1.16-1.34-1.06-1.39-1.19-1.52-1.89-2.6" filter="url(#a)"/><path d="m15.31-87.78.06.29-.81.06-1.26.16-1.39.41-1.36.6-1.24.63-1.12.56-1.03.47-.99.45-1.01.51-1.05.56-1.06.57-1.07.52-1.08.47-1.1.43-1.11.45-1.13.48-1.13.5-1.12.5-1.1.53-.98.56-.63.78-.05 1.23 22.76-11.72 1.14-5.67-.71-.66-1.22-1.02-1.21-1.98-1.17-1.96-1.17-1-1.18.06-1.15.42-1.1-.2-1.1-1.48-1.17-2.78-1.22-3.4-1.09-2.93-.79-1.7-.89-.71" filter="url(#a)"/><path d="m15.83-87.38.38-.48 1.2-.27 1.42.03 1.44.17 1.35.23 1.17.32 1.02.42.93.47.95.4 1.03.27 1.11.13 1.17.03 1.21.04 1.22.11 1.16.19.98.29.9.42 1.68.83-20.32-3.6.27.1 1.02.61 1.13 1.19 1.05 1.57.93 1.65.82 1.48.74 1.21.75.92.81.65.88.45.93.36.94.39.92.5.86.65.8.8.73.89.71.91.71.88.59 1 .22 1.34.16 1.39 2.13-15.39-1.54-.26-1.36-.47-1.21-.44-1.11-.35-1.07-.26-1.06-.23-1.02-.23-1-.24-1.02-.2-1.1-.17-1.22-.16-1.31-.18-1.31-.24-1.21-.25-1-.2-.83-.05-.94-.01-1.92-.34-2.3-.33-1.2-.7-1.04-.47-.88-.24-.92-.27-1.04-.4-1.13-.46-1.16-.43-1.16-.38-1.2-.36-1.24-.38-1.29-.4-1.32-.41-1.32-.39-1.29-.35-1.24-.34-1.15-.34-1.08-.32-1.1-.23-1.25-.1-1.5-.07-1.44-.32-.38-.82 4.33 20.78 1.68-.99.77-1.45.57-1.18.69-.88.89-.63 1.04-.46 1.11-.38 1.15-.37 1.16-.44 1.16-.54 1.13-.68 1.1-.77 1.1-.75 1.1-.58 1.09-.31 1-.16.92-.32.93-.77 1.16-.9 1.25-.04" filter="url(#a)"/><path d="m9.39-88.96 1.28-1.56 1.4-1.19 1.37-.1 1.36-.25 1.39-1.08 1.46-1.7 1.52-1.62 1.52-.99 1.49-.27 1.46.09 1.44-.01 1.44-.41 1.45-.76 1.48-.88 1.51-.79 1.53-.69 1.49-.65 1.59-.67 2.33-.83M9.39-88.96l-1.48.06-.78.21-.85.19-1.05.11-1.14.05H2.93l-1.13-.02-1.15-.01-1.19.01-1.22.05-1.24.1-1.23.15-1.18.2-1.12.22-1.02.23-.94.25-.94.3-1.09.34-1.3.38-1.21.31-.22.11m22.64-3.24-1.35-1.78-.74-.42-.85-.49-1.04-.85-1.16-1.11-1.18-1.08-1.19-.77-1.24-.38-1.3-.13-1.35-.13-1.38-.28-1.38-.47-1.35-.58-1.29-.6-1.24-.59-1.23-.6-1.28-.67-1.4-.82-1.53-1.05-1.58-1.29-1.53-1.35-1.34-1-1.02-.22-.47-.16" filter="url(#a)"/><path d="m6.8-89.13 2.27-2.53 1.69-1.62 1.47-.5 1.38.1 1.25.31 1.11.44 1.02.58 1.05.63 1.18.5 1.34.21 1.45-.14 1.47-.46 1.39-.65 1.29-.68 1.26-.48 1.33-.19 1.45-.32 1.44-1.13M6.19-89.17l-.82-.13-1.42-.27-1.23-.35-1.11-.41-1.15-.57-1.27-.91-1.35-1.33-1.41-1.72-1.44-1.99-1.43-2.06-1.39-1.97-1.35-1.7-1.32-1.31-1.34-.95-1.44-.73-1.51-.67-1.51-.66-1.42-.58-1.29-.61-1.27-1.17-1.36-2.22-1.61-2.46" filter="url(#a)"/><path d="m6.4-89.11-2.59 3.1-1.33.99-.97 1.12L.5-82.82l-1.1.85-1.15.63-1.15.46-1.12.3-1.09.15-1.02.01-.94-.06-.88-.03-.89.16-.96.46-1.05.77-1.01.89-.81.73-1.05.36L2.79-89.37l-.65-.83-.66-.51-1.01-.25-1.26-.16-1.36-.3-1.37-.65-1.39-1.16-1.38-1.64-1.36-1.9-1.31-1.89-1.3-1.64-1.32-1.25-1.39-.89-1.44-.63-1.43-.52-1.39-.66-1.36-1.05-1.36-1.46-1.36-1.41-1.48-.6-2.13-.22-.3-1.32 2.09-.08 1.55.88 1.5 2.12 1.53 2.47 1.53 1.92 1.47.93 1.4.04 1.32-.4 1.26-.3 1.2.12 1.21.67 1.26 1.21 1.34 1.7 1.42 2.11 1.45 2.25 1.45 2.02 1.41 1.43 1.28.8 1.02.43.66.34.66.28-.6-.28-1.38-1.51-1.57-1.26-1.46-.37-1.33-.23-1.29-.32-1.27-.37-1.22-.46-1.13-.62-1.1-.84-1.18-1.01-1.37-1.05-1.55-1-1.53-.98-1.32-1.15-1.59-.93" filter="url(#a)"/><path d="m1.02-89.28-3.09.05-2.69.14-2.78.23-2.69.29-2.48.36-2.35.45-2.32.54-2.39.62-2.48.72-2.54.8-2.6.87-2.66.94-2.71 1.01-2.79 1.08-2.87 1.15-2.98 1.22-3.12 1.29-3.25 1.36-3.35 1.44-3.36 1.51-3.27 1.61-3.11 1.69-2.97 1.77-2.94 1.79-3.03 1.77-3.16 1.67-3.24 1.55-3.23 1.56-3.34 1.86-4.89 2.7" filter="url(#a)"/><path d="m-1.08-89.54-2.91.2-2.45.21-2.18.29-2.14.38-2.16.46-2.18.53-2.18.59-2.17.66-2.14.71-2.11.77-2.08.84-2.09.92-2.09 1-2.09 1.09-2.09 1.17-2.09 1.24-2.07 1.32-2.08 1.39-2.07 1.48-2.07 1.55-2.06 1.62-2.01 1.68-1.96 1.74-1.9 1.8-1.83 1.86-1.78 1.93-1.74 2.02-1.7 2.08-1.63 2.13-1.56 2.2-1.54 2.33-1.59 2.5-1.61 2.48" filter="url(#a)"/><path d="m-3.08-89.25-1.18.11-1.47.25-1.76.29-2.05.35-2.07.43-1.8.52-1.36.62-.86.7-.49.77-.34.86-.45.91-.73.99-1 1.05-1.1 1.12-.88 1.18-.41 1.24.2 1.31.66 1.38.71 1.47.3 1.48.07 1.38 1.26 1.4" filter="url(#a)"/><path d="m-3.64-89.31-3.5.4-2.87.32-2.58.35-2.42.45-2.32.55-2.27.65-2.26.73-2.28.82-2.3.89-2.36.95-2.4 1.03-2.43 1.1-2.42 1.17-2.42 1.23-2.42 1.31-2.51 1.38-2.65 1.46-2.86 1.54-3.05 1.62-3.15 1.68-3.08 1.74-2.85 1.76-2.48 1.75-2.09 1.74-1.8 1.75-1.7 1.84-1.82 1.98-2.11 2.19-2.38 2.34-2.45 2.33-2.37 2.13-2.27 1.71" filter="url(#a)"/><path d="m-3.64-89.31-3.21.4-2.44.32-2.32.36-2.35.45-2.4.55-2.48.65-2.62.73-2.74.82-2.85.89-2.89.96-2.88 1.03-2.81 1.1-2.7 1.17-2.61 1.24-2.56 1.31-2.56 1.38-2.64 1.47-2.71 1.54-2.77 1.62-2.74 1.68-2.6 1.74-2.35 1.76-2.04 1.75-1.79 1.76-1.71 1.78-1.91 1.85-2.36 2-2.86 2.17-3.16 2.31-3.07 2.36-2.66 2.38-2.49 2.58-3.49 3.58" filter="url(#a)"/><path d="m-7.92-88.77-1.59.19-2.17.33-2.23.44-2.26.57-2.33.66-2.4.75-2.44.83-2.43.9-2.39.97-2.33 1.05-2.26 1.11-2.2 1.18-2.16 1.26-2.14 1.33-2.15 1.4-2.17 1.48-2.19 1.56-2.19 1.63-2.18 1.68-2.13 1.74-2.05 1.75-1.97 1.78-1.89 1.81-1.81 1.85-1.76 1.94-1.75 2.04-1.73 2.15-1.74 2.28-1.74 2.36-1.72 2.43-1.66 2.47-1.58 2.51-1.49 2.51-1.4 2.48-1.41 2.4-1.48 2.29-1.66 2.06" filter="url(#a)"/><path d="m-8.94-89-1.88.44-2.91.51-2.91.55-3.08.61-3.34.67-3.44.72-3.25.77-2.89.84-2.52.92-2.33 1.01-2.4 1.1-2.74 1.19-3.28 1.25-3.91 1.33-4.43 1.4-4.75 1.48-4.82 1.55-4.67 1.63-4.48 1.69-4.42 1.74-4.59 1.8-5.03 1.86-5.63 1.94-6.2 2.02-6.48 2.08-6.24 2.15-5.44 2.22-4.37 2.34-3.87 2.51-5.21 2.66-8.78 2.88" filter="url(#a)"/><path d="m-8.94-89-3.58.43-4.11.51-2.52.53-1.63.6-1.62.66-2.05.71-2.63.75-3.19.8-3.65.89-3.89.99-3.83 1.07-3.55 1.16-3.26 1.21-3.24 1.28-3.62 1.35-4.39 1.43-5.32 1.53-6.06 1.63-6.43 1.68-6.38 1.69-5.82 1.65-4.59 1.56-2.94 1.37" filter="url(#a)"/><path d="m-8.69-88.67-3.52.37-2.73.45-2.23.57-2.15.67-2.23.76-2.35.83-2.49.9-2.62.97-2.72 1.05-2.73 1.11-2.64 1.18-2.52 1.25-2.44 1.32-2.47 1.4-2.64 1.48-2.89 1.55-3.15 1.63-3.34 1.69-3.39 1.73-3.32 1.76-3.19 1.77-3.09 1.78-3.09 1.83-3.23 1.91-3.38 2.02-3.45 2.16-3.3 2.28-2.93 2.36-2.45 2.43-2.17 2.48-2.29 2.53-2.68 2.56-2.96 2.48-3.79 2.04" filter="url(#a)"/><path d="m-9.28-88.69-4.25.65-3.1.54-2.43.61-2.04.69-1.85.73-1.84.78-1.93.85-2.06.93-2.17 1.03-2.23 1.12-2.29 1.2-2.32 1.27-2.37 1.35-2.42 1.42-2.43 1.5-2.38 1.58-2.3 1.64-2.17 1.71-2.06 1.77-1.99 1.83-1.98 1.9-2.04 1.97-2.1 2.04-2.16 2.12-2.16 2.19-2.14 2.25-2.12 2.32-2.13 2.37-2.14 2.38-2.1 2.37-1.93 2.36-1.68 2.39-1.43 2.46-1.33 2.56-1.59 2.59-2.3 2.49M75.03-13.19l.25 1 .81 2.58.99 2.64.73 2.51.33 2.49.07 2.55.02 2.63.08 2.66.15 2.71.18 2.74.17 2.76.16 2.77.16 2.73.16 2.65.13 2.57.06 2.5-.08 2.48-.27 2.48-.47 2.49-.62 2.42-.65 2.27-.58 2.15-.67 2.46-1.05 3.33" filter="url(#a)"/><path d="m-15.58-87.57-1.95.56-3.67.78-4.09.77-3.4.77-2.46.82-1.91.93-1.88 1.04-2.23 1.13-2.69 1.21-3.08 1.27-3.32 1.35-3.48 1.42-3.66 1.5-3.98 1.58-4.5 1.64-5.11 1.71-5.67 1.77-5.96 1.83-5.86 1.89-5.35 1.96-4.6 2.04-3.9 2.11-3.53 2.18-3.63 2.26-4.15 2.32-4.89 2.37-5.53 2.38-5.82 2.36-5.64 2.34-5.18 2.35-5.05 2.47-5.84 2.62-7.22 2.62" filter="url(#a)"/><path d="m-16.57-87.17-2.42.55-3.21.74-3.62.84-3.36.92-2.63.97-1.95 1.05-1.7 1.11-1.93 1.19-2.45 1.25-3.02 1.33-3.47 1.39-3.7 1.48-3.73 1.55-3.7 1.64-3.68 1.7-3.71 1.74-3.77 1.75-3.77 1.77-3.72 1.76-3.69 1.8-3.69 1.89-3.7 2.01-3.64 2.16-3.47 2.28-3.37 2.36-3.61 2.42-4.34 2.47-5.08 2.56-4.96 2.63-4.65 3.07" filter="url(#a)"/><path d="m-16.52-87.24-3.53.98-2.91.82-2.27.72-2.2.78-2.43.89-2.73 1.02-2.89 1.11-2.86 1.19-2.67 1.24-2.52 1.3-2.59 1.37-2.97 1.46-3.54 1.54-4.08 1.62-4.31 1.67-4.11 1.7-3.65 1.73-3.24 1.79-3.08 1.91-2.97 2.09-2.55 2.2-2.42 2.09" filter="url(#a)"/><path d="m-19.71-86.22-3.32.91-2.53.66-3.11.75-3.63.92-3.91 1.06-3.87 1.15-3.46 1.22-2.8 1.29-2.14 1.34-1.74 1.43-1.7 1.5-1.93 1.58-2.32 1.65-2.73 1.71-3.07 1.77-3.32 1.83-3.45 1.89-3.4 1.96-3.17 2.04-2.78 2.11-2.36 2.18-2.11 2.26-2.16 2.32-2.48 2.36-2.9 2.38-3.18 2.36-3.28 2.33-3.4 2.35-3.77 2.46-3.98 2.61-2.73 2.62" filter="url(#a)"/><path d="m-19.71-86.22-3.13.91-2.59.65-2.69.75-2.49.91-2.22 1.05-2.17 1.14-2.35 1.21-2.64 1.27-2.88 1.34-3.01 1.4-3.09 1.49-3.25 1.57-3.58 1.64-4.04 1.7-4.5 1.74-4.78 1.8-4.77 1.87-4.46 1.94-4.02 2.02-3.66 2.08-3.54 2.15-3.63 2.23-3.85 2.34-4.27 2.44-5.22 2.5-6.08 2.36-3.33 1.78m96.24-44.28-1.78.91-.86.64-1.3.74-1.14.9-.57 1.03-.1 1.13-.04 1.21-.32 1.25-.71 1.31-.99 1.39-1.08 1.46-1.04 1.56-.94 1.63-.76 1.67-.46 1.72.05 1.76.71 1.83 1.37 1.92 1.86 2.01 1.92 2.06 1.48 2.03.87 2.02 1.24 2.31" filter="url(#a)"/><path d="m-21.58-85.82-4.38.77-2.62.94-3.69.99-4.49 1.05-3.96 1.12-2.64 1.2-1.43 1.27-.86 1.33-.92 1.41-1.37 1.49-1.98 1.57-2.58 1.65-3.15 1.7-3.66 1.75-4.14 1.77-4.58 1.77-5.01 1.79-5.42 1.83-5.79 1.92-6.04 2.04-6.11 2.16-5.96 2.28-5.64 2.36-5.22 2.42-4.82 2.47-4.47 2.5-4.2 2.5-3.97 2.46-3.45 2.39-2.21 2.27-2.94 2.05" filter="url(#a)"/><path d="m-21.58-85.82-4.67.78-4.74.93-3.47.99-3.03 1.05-3.32 1.13-3.68 1.2-3.61 1.27-3.01 1.34-2.17 1.41-1.48 1.49-1.21 1.58-1.38 1.64-1.81 1.71-2.29 1.75-2.62 1.77-2.81 1.77-2.92 1.8-3.09 1.84-3.42 1.93-3.85 2.05-4.26 2.16-4.45 2.28-4.34 2.36-4.03 2.42-3.76 2.47-3.81 2.49-4.15 2.49-4.41 2.46-4.07 2.39-3.13 2.34-2.81 2.35-4.14 2.57" filter="url(#a)"/><path d="m-21.58-85.82-2.66.78-3.36.94-2.98.99-2.49 1.06-2.26 1.13-2.3 1.2-2.52 1.28-2.8 1.35-3.09 1.42-3.37 1.5-3.59 1.58-3.73 1.65-3.73 1.71-3.53 1.75-3.13 1.77-2.55 1.79-1.94 1.82-1.43 1.87-1.18 1.96-1.26 2.06-1.65 2.18-2.21 2.27-2.73 2.36-3.1 2.42-3.19 2.46-3.07 2.48-2.83 2.48-2.67 2.47-2.69 2.47-2.95 2.48-3.3 2.55-3.51 2.63-3.13 2.65-1.9 2.45-.18 2.11" filter="url(#a)"/><path d="m-28.23-83.2-2.21 1.23-2.17 1.27-2.12 1.27-2.09 1.29-2.11 1.36-2.16 1.44-2.24 1.53-2.31 1.62-2.31 1.69-2.23 1.74-2.07 1.79-1.88 1.86-1.71 1.92-1.64 2-1.62 2.07-1.69 2.15-1.77 2.21-1.83 2.27-1.86 2.32-1.82 2.35-1.77 2.38-1.68 2.4-1.59 2.41-1.54 2.45-1.49 2.48-1.44 2.53-1.39 2.55-1.33 2.57-1.24 2.57-1.14 2.53-1.03 2.49-.94 2.42-.88 2.33-.93 2.38-1.44 3.1" filter="url(#a)"/><path d="m-30.29-82.05-2.77 1.03-2.32 1.31-2.24 1.31-2.34 1.34-2.43 1.41-2.49 1.5-2.66 1.6-2.94 1.67-3.29 1.73-3.53 1.77-3.65 1.78-3.7 1.77-3.79 1.8-3.96 1.84-4.15 1.94-4.17 2.05-3.97 2.18-3.54 2.29-3.1 2.36-2.89 2.42-3.11 2.46-3.67 2.47-4.26 2.48-4.47 2.45-4 2.44-2.96 2.45-1.9 2.54-1.78 2.69-3.56 2.78-6.15 2.26" filter="url(#a)"/><path d="m-30.35-82.08-1.84 1.4-1.35 1.25-1.65 1.27-2.03 1.33-2.14 1.4-2.06 1.52-1.85 1.61-1.64 1.67-1.47 1.72-1.36 1.77-1.31 1.82-1.29 1.88-1.26 1.96-1.19 2.04-1.07 2.11-.86 2.18-.66 2.25-.5 2.31-.46 2.37-.51 2.37-.55 2.34-.5 2.31-.32 2.33-.17 2.45-.07 2.6.24 2.6" filter="url(#a)"/><path d="m-31.42-81.38-3.28 1.67-2.6 1.36-2.83 1.33-3.32 1.4-3.57 1.51-3.39 1.6-2.95 1.68-2.41 1.75-1.92 1.78-1.57 1.78-1.41 1.78-1.49 1.8-1.74 1.85-2.11 1.95-2.49 2.07-2.82 2.19-3.09 2.29-3.3 2.37-3.44 2.42-3.52 2.45-3.45 2.47-3.23 2.48-2.88 2.46-2.55 2.47-2.42 2.48-2.52 2.54-2.64 2.58-2.45 2.59-2 2.49-2.13 2.35-4.21 2.47m189.19-2.5.68 4.11.5 2.87.53 2.74.57 2.64.57 2.54.49 2.52.37 2.57.31 2.62.34 2.67.43 2.7.48 2.74.41 2.77.2 2.77-.1 2.73-.33 2.66-.43 2.57-.38 2.51-.3 2.49-.27 2.49-.36 2.49-.5 2.42-.57 2.28-.5 2.15-.46 2.47-.61 3.33m-1.07-66.85 6.38 4.14 2.64 2.89 2.32 2.77 2.08 2.65 1.73 2.58 1.54 2.56 1.46 2.6 1.25 2.65.88 2.7.62 2.74.8 2.76 1.57 2.77 2.77 2.76 3.98 2.73 4.77 2.66 4.96 2.61 4.57 2.55 3.83 2.52 2.89 2.48 1.84 2.46.68 2.44-.53 2.41-1.7 2.39-2.53 2.4-2.82 2.4-2.43 2.42-1.59 2.4-.72 2.34-.38 2.23-.68 2.01-.94 1.7-.5 1.46-1.3 1.97" filter="url(#a)"/><path d="m-33.97-79.95-2.9 1.84-2.33 1.36-3.21 1.42-4.39 1.55-4.77 1.67-4.1 1.72-2.94 1.77-1.99 1.8-1.57 1.87-1.69 1.93-2.1 2.02-2.58 2.09-2.95 2.16-3.17 2.23-3.24 2.29-3.18 2.33-3.05 2.36-2.92 2.39-2.82 2.41-2.77 2.43-2.71 2.46-2.6 2.49-2.39 2.52-2.06 2.54-1.75 2.55-1.52 2.54-1.52 2.52-1.71 2.5-2.07 2.48-2.45 2.51-2.7 2.59-2.73 2.75-2.56 2.97-2.45 3.13-2.6 3.13-2.78 2.98-2.69 3.53" filter="url(#a)"/><path d="m-33.97-79.95-4.18 1.82-2.87 1.33-2.06 1.37-2.2 1.51-2.65 1.63-3.02 1.69-3.25 1.72-3.34 1.75-3.31 1.79-3.18 1.87-2.96 1.95-2.75 2.03-2.56 2.09-2.47 2.16-2.52 2.23-2.76 2.31-3.2 2.38-3.71 2.39-4.05 2.31-4.05 2.19-3.63 2.16-3.66 2.36" filter="url(#a)"/><path d="m-38.4-77.07-2.27 1.35-2.02 1.57-1.99 1.63-2.11 1.68-2.28 1.76-2.43 1.8-2.48 1.79-2.39 1.74-2.24 1.71-2.11 1.76-2.07 1.88-2.15 2.03-2.27 2.18-2.33 2.29-2.29 2.36-2.12 2.4-1.92 2.44-1.77 2.49-1.76 2.49-2.05 2.45-2.51 2.37-2.3 2.49" filter="url(#a)"/><path d="m-38.4-77.07-3.66 1.37-3.1 1.59-2.15 1.65-2.24 1.7-2.64 1.78-2.73 1.82-2.41 1.8-1.93 1.77-1.59 1.77-1.51 1.83-1.62 1.95-1.81 2.07-1.98 2.21-2.13 2.3-2.3 2.38-2.48 2.43-2.68 2.45-2.77 2.47-2.7 2.47-2.46 2.46-2.14 2.46-1.83 2.49-1.64 2.52-1.55 2.57L-94-24.2l-1.69 2.52-2.05 2.49-2.37 2.61-1.18 3.04" filter="url(#a)"/><path d="m-38.27-77.27-2.3 1.76-2.24 1.65-2.49 1.75-2.66 1.76-2.65 1.77-2.45 1.79-2.16 1.85-1.9 1.93-1.72 2.01-1.71 2.09-1.81 2.16-1.97 2.23-2.08 2.29-2.08 2.33-1.92 2.36-1.68 2.38-1.41 2.4-1.2 2.42-1.12 2.45-1.16 2.48-1.27 2.52-1.42 2.55-1.58 2.55-1.69 2.54-1.76 2.51-1.77 2.47-1.65 2.44-1.42 2.43-1.15 2.5-.98 2.69-1.09 3.09-1.43 3.63L-96.18.1m57.91-77.37-2.55 1.75-3.25 1.63-3.89 1.73-3.64 1.76-2.98 1.74-2.42 1.77-2.15 1.82-2.1 1.9-2.23 1.99-2.56 2.06-3.09 2.14-3.79 2.2-4.59 2.26-5.34 2.32-5.89 2.35-6.09 2.36-5.85 2.36-5.21 2.37-4.4 2.4-3.71 2.45-3.32 2.53-3.15 2.57-2.91 2.58-2.77 2.53-3.83 2.43-6.92 2.5" filter="url(#a)"/><path d="m-40.21-75.8-4.42 1.67-3.33 1.69-2.57 1.67-2.06 1.78-1.87 1.82-1.91 1.81-2.18 1.75-2.67 1.72-3.31 1.79-3.95 1.9-4.47 2.06-4.81 2.19-4.94 2.3-4.96 2.37-4.89 2.42-4.85 2.45-4.97 2.46-5.3 2.46-5.7 2.43-6 2.39-6.13 2.39-6.23 2.49-6.81 2.81-10.96 3.49" filter="url(#a)"/><path d="m-40.21-75.8-2.66 1.68-2.86 1.7-2.88 1.7-2.54 1.78-2.08 1.84-1.75 1.81-1.66 1.77-1.71 1.76-1.83 1.82-1.98 1.95-2.16 2.08-2.34 2.22-2.43 2.31-2.44 2.39-2.36 2.42-2.24 2.46-2.14 2.46-2.11 2.47-2.07 2.47-2 2.47-1.88 2.49-1.74 2.52-1.75 2.55-1.94 2.56-2.18 2.54-2.18 2.51-1.72 2.56-1.12 2.6-1 2.32" filter="url(#a)"/><path d="m-42.02-74.35-3.39 2.17-2.65 1.91-2.52 1.74-2.35 1.72-2.24 1.79-2.26 1.89-2.34 1.99-2.36 2.07-2.32 2.13-2.35 2.19-2.5 2.26-2.74 2.31-2.97 2.35-3.09 2.36-3.08 2.34-2.99 2.35-2.94 2.37-3.03 2.44-3.26 2.52-3.5 2.59-3.36 2.6-2.47 2.52-1.03 2.07" filter="url(#a)"/><path d="m-42.02-74.35-2.84 2.2-2.21 1.94-1.89 1.77-1.79 1.76-1.76 1.84-1.73 1.94-1.75 2.04-1.77 2.11-1.79 2.19-1.75 2.25-1.67 2.3-1.51 2.35-1.33 2.37-1.15 2.4-1.02 2.41-.93 2.44-.89 2.47-.89 2.49-.91 2.52-.92 2.54-.92 2.55-.91 2.53-.88 2.53-.84 2.52-.81 2.53-.76 2.57-.7 2.66-.63 2.78-.53 2.89-.41 2.99-.26 3.01-.13 2.95-.02 2.82.04 2.64.07 2.45.09 2.36.12 2.91M74.05-19.88l.65 3 .81 3.02 1.07 2.8 1.27 2.69L79-5.66l.78 2.77.34 2.83.06 2.84-.04 2.79-.01 2.73.01 2.66-.02 2.62-.1 2.58-.17 2.56-.2 2.55-.14 2.55-.04 2.55.08 2.56.19 2.55.26 2.53.33 2.51.36 2.47.39 2.44.34 2.42.19 2.38-.12 2.37-.61 2.35-1.19 2.31-1.61 2.22-1.63 2.09-1.09 1.95-.36 1.86-.52 1.71" filter="url(#a)"/><path d="m74.05-19.88.92 2.99 1.47 3.01 3.02 2.79 3.99 2.69 4.1 2.69 3.73 2.77 3.19 2.82 2.56 2.83 1.9 2.79 1.26 2.72.71 2.66.28 2.61.03 2.57-.02 2.55.1 2.54.37 2.54.64 2.55.81 2.55.85 2.55.77 2.53.6 2.51.4 2.47.27 2.44.36 2.39.76 2.37 1.36 2.37 1.71 2.4 1.37 2.42-.18 2.37-3.38 2.31M-48.3-69.02l-1.11.76-1.92 1.61-1.86 1.82-1.82 1.95-1.95 2.06-2.28 2.13-2.71 2.2-3.08 2.25-3.23 2.32-3.05 2.35-2.62 2.39-2.08 2.4-1.63 2.41-1.38 2.43-1.37 2.47-1.52 2.49-1.71 2.53-1.83 2.54-1.8 2.54-1.64 2.54-1.4 2.52-1.16 2.52-1.04 2.53-1.05 2.59-1.19 2.66-1.42 2.78-1.64 2.89-1.77 2.96-1.76 2.98-1.62 2.93-1.41 2.8-1.26 2.65-1.21 2.5-1.15 2.43-.94 2.52-.24 2.53" filter="url(#a)"/><path d="m-47.73-69.44-3.19 2.63-4.11 2.01-4.78 1.68-4.61 1.61-4.26 1.75-3.99 1.95-3.76 2.15-3.6 2.28-3.49 2.37-3.43 2.42-3.46 2.46-3.56 2.47-3.7 2.47-3.76 2.48-3.59 2.49-3.15 2.49-2.51 2.51-1.94 2.53-1.72 2.55-2.07 2.57-2.98 2.58-4.25 2.6-5.48 2.62-6.16 2.66-5.93 2.7-4.66 2.73-2.64 2.75-.6 2.78.35 2.82-.84 2.8-4.07 2.62-6.22 1.91" filter="url(#a)"/><path d="m-47.73-69.44-5.01 2.64-5.45 2.01-4.92 1.68-3.32 1.63-1.86 1.76-.98 1.97-.67 2.15-.7 2.3-.92 2.38-1.2 2.43-1.45 2.46-1.66 2.47-1.79 2.49-1.9 2.49-2.02 2.5-2.16 2.5-2.3 2.52-2.42 2.55-2.45 2.56-2.39 2.57-2.24 2.6-2.05 2.62-1.87 2.64-1.7 2.68-1.57 2.71-1.46 2.73-1.39 2.76-1.31 2.78-1.21 2.78-1.08 2.77-.92 2.73-.77 2.66-.79 2.54-1.19 2.35-1.75 2.17-.19 2.45" filter="url(#a)"/><path d="m-48.02-69.36-3.06 2.56-2.53 1.93-2.24 1.95-1.89 2.07-1.6 2.13-1.58 2.19-1.8 2.24-2.09 2.3-2.33 2.35-2.42 2.38-2.35 2.39-2.18 2.39-1.98 2.41-1.85 2.44-1.79 2.49-1.82 2.51-1.86 2.54-1.81 2.55-1.64 2.52-1.36 2.5-1.04 2.48-.81 2.46-.75 2.48-.92 2.57-1.35 2.75L-95-6.83l-2.44 3.13-2.53 3.11-2.04 2.95-2.53 3.52" filter="url(#a)"/><path d="m-51.1-66.4-7.39 1.93-5.58 1.49-1.13 1.48.43 1.68-.11 1.94-1.4 2.16-2.56 2.3-3.23 2.38-3.35 2.42-3.1 2.44-2.78 2.47-2.62 2.46-2.74 2.47-3.01 2.47-3.23 2.48-3.26 2.49-3.14 2.52-3.06 2.54-3.2 2.55-3.58 2.57-3.93 2.57-3.94 2.6-3.46 2.65-2.77 2.69-2.26 2.71-2.15 2.71-2.56 2.76-5.4 2.56" filter="url(#a)"/><path d="m-53.44-63.82-.78.98-1.22 1.33-1.72 1.6-2.43 1.92-3.23 2.18-3.75 2.32-3.79 2.38-3.39 2.41-2.76 2.43-2.18 2.44-1.86 2.46-1.81 2.45-1.99 2.44-2.19 2.44-2.36 2.46-2.45 2.51-2.58 2.53-2.79 2.54-2.96 2.51-2.98 2.49-2.82 2.53-2.55 2.59-1.34 2.29" filter="url(#a)"/><path d="m-53.44-63.82-1.34 1-1.48 1.37-1.35 1.66-1.52 1.97-1.8 2.22-2.03 2.36-2.16 2.42-2.17 2.45-2.13 2.47-2.1 2.48-2.12 2.49-2.16 2.49-2.21 2.5-2.19 2.5-2.04 2.53-1.79 2.54-1.49 2.56-1.17 2.58-.92 2.6-.77 2.63-.72 2.64-.74 2.68-.81 2.71-.95 2.74-1.12 2.75-1.32 2.77-1.52 2.77-1.7 2.74-1.77 2.71-1.67 2.63-1.43 2.55-1.08 2.48-.64 2.48-.1 2.66.59 3.1.56 3.72" filter="url(#a)"/><path d="m-53.44-63.82-4 .99-1.19 1.36-1.56 1.63-2.43 1.96-3 2.21-3.04 2.34-2.64 2.41-2.17 2.43-1.93 2.46-2.03 2.47-2.29 2.47-2.42 2.48-2.21 2.48-1.75 2.48-1.24 2.51-.98 2.52-1.07 2.55-1.52 2.56-2.07 2.58-2.53 2.59-2.7 2.62-2.58 2.66-2.21 2.69-1.73 2.72-1.32 2.75-1.15 2.78-1.32 2.8-1.78 2.8-1.99 2.62-.29 1.9" filter="url(#a)"/><path d="m-53.44-63.82-1.08.99-1.42 1.36-2.25 1.64-3.44 1.97-4.35 2.2-4.55 2.35-4.13 2.41-3.44 2.43-2.73 2.46-2.15 2.47-1.73 2.48-1.44 2.48-1.31 2.48-1.31 2.49-1.43 2.51-1.68 2.53-1.98 2.55-2.29 2.56-2.6 2.59-2.85 2.6-3.09 2.62-3.38 2.66-3.71 2.7-4.01 2.72-4.11 2.75-3.82 2.78-3.08 2.79-2.15 2.79-1.68 2.74-2.29 2.75-3.44 3.35" filter="url(#a)"/><path d="m-52.15-64.96-2.13 1.89-3.06 2.24-3.41 2.23-3.36 2.19-3.21 2.23-3.01 2.32-2.63 2.36-2.08 2.4-1.54 2.39-1.26 2.39-1.29 2.41-1.5 2.45-1.71 2.49-1.73 2.52-1.57 2.54-1.29 2.54-1.05 2.52-.97 2.5-1.11 2.48-1.45 2.49-1.89 2.52-2.34 2.62-2.66 2.76-2.79 2.92-2.69 3.03-2.37 3.06-1.96 2.99-1.7 2.89-1.84 2.77-2.06 2.53" filter="url(#a)"/><path d="m-52.15-64.96-2.23 1.87-2.5 2.22-2.89 2.2-3.24 2.16-3.24 2.2-2.9 2.29-2.49 2.34L-74-47.3l-2.62 2.37-3.24 2.35-4.11 2.37-5.09 2.4-5.95 2.46-6.45 2.5-6.48 2.54-6.22 2.55-6.06 2.52-6.2 2.49-6.29 2.45-5.53 2.37-3.3 2.3-.7 2.33-3.26 3.07m219.24-12.1 5.35 3.38L84-15.67l3.02 2.98 2.45 2.8 2.69 2.66 2.56 2.58 1.74 2.56.79 2.58.31 2.63.47 2.67L99 8.5l1.37 2.75 1.37 2.77.9 2.76.2 2.73-.47 2.67-.77 2.58-.58 2.53.05 2.5.91 2.49 1.69 2.47 2.08 2.43 1.84 2.32 1.01 2.28.01 2.4-.11 2.65 2.55 2.32M-53.89-63.24l-.63 1.69-.03 1.61.07 1.96.38 2.26.46 2.37.03 2.42-.65 2.43-1.18 2.44-1.31 2.46-1.09 2.47-.6 2.46-.02 2.46.57 2.47 1.09 2.48 1.49 2.51 1.73 2.54 1.86 2.55 1.93 2.55 2.03 2.57 2.29 2.6 2.9 2.64 3.88 2.68 4.97 2.7 5.43 2.71 4.47 2.75 3.8 2.55" filter="url(#a)"/><path d="m-53.55-63.52-4.29 2.73-3.03 2.3-2.29 2.18-2.71 2.22-3.01 2.32-2.81 2.39-2.48 2.41-2.51 2.4-2.96 2.41-3.63 2.42-4.15 2.45-4.35 2.5-4.17 2.53-3.74 2.54-3.2 2.55-2.57 2.53-1.9 2.51-1.2 2.51-.61 2.53-.27 2.58-.32 2.67-.73 2.77-1.41 2.88-2.15 2.95-2.88 2.96-3.56 2.9-4.12 2.79-4.47 2.65-4.36 2.53-3.63 2.5-2.52 2.58-2.09 2.8-2.86 3.21" filter="url(#a)"/><path d="m-53.55-63.52-2.8 2.7-1.71 2.28-1.55 2.15-1.91 2.18-2.35 2.29-2.49 2.37-2.2 2.39-1.68 2.37-1.24 2.36-1.06 2.38-1.17 2.41-1.44 2.46-1.68 2.51-1.83 2.54-1.84 2.54-1.78 2.52-1.74 2.48-1.76 2.44-1.78 2.38-1.68 2.35-1.31 2.38-.67 2.55-.17 3.07-.71 4.71" filter="url(#a)"/><path d="m-56.08-60.37-2.28 2.11-3.18 2.04-3.84 2.17-3.52 2.32-2.27 2.42-.93 2.43-.13 2.41-.02 2.4-.49 2.42-1.28 2.46-2.19 2.5-3.03 2.53-3.66 2.55-4.04 2.55-4.11 2.53-3.95 2.52-3.58 2.52-3.1 2.54-2.56 2.59-2.04 2.69-1.57 2.78-1.13 2.87-.76 2.92-.41 2.93-.15 2.88v2.77l-.09 2.67-.51 2.58-1.32 2.51-2.39 2.51-3.37 2.47-3.73 2.33-2.78 2.1-.38 2.35" filter="url(#a)"/><path d="m-56.08-60.37-5.13 2.08-3.95 2.02-2.24 2.14-1.17 2.29-1.31 2.39-2.21 2.41-3.34 2.39-4.28 2.36-4.76 2.38-4.66 2.42-4.09 2.47-3.4 2.52-2.94 2.54-2.84 2.53-3.01 2.52-3.15 2.48-2.96 2.44-2.43 2.42-1.75 2.44-1.34 2.51-1.54 2.72-2.28 2.99-2.77 3.22-1.71 3.01 1.34 1.87" filter="url(#a)"/><path d="m-56.1-60.67-1.27 2.34-1.46 2.6-1.26 2.54-1.13 2.45-1.13 2.43-1.14 2.44-1.13 2.46-1.08 2.47-1.02 2.47-.93 2.46-.82 2.47-.66 2.48-.49 2.52-.3 2.54-.14 2.55-.02 2.56.02 2.57.02 2.61-.01 2.64-.02 2.68.06 2.71.19 2.73.35 2.77.41 2.83.33 2.95.4 3.17m8.15-61.34-9.78 2.74-2.37 2.65-1.11 2.52-.83 2.39-.78 2.34-.91 2.37-1.35 2.43-2.03 2.49-2.7 2.54-3.07 2.56-2.97 2.54-2.44 2.52-1.71 2.49-1.08 2.48-.74 2.49-.72 2.55-.92 2.65-1.19 2.77-1.4 2.89-1.44 2.97-1.32 2.97-1.05 2.9-.75 2.78-.57 2.62-.62 2.47-.94 2.4-1.49 2.5-2.45 2.51" filter="url(#a)"/><path d="m-61.99-51.73-6.13 2.7-3.72 2.51-2.17 2.36-1.05 2.3-.57 2.33-.56 2.42-.76 2.5-.98 2.54-1.14 2.56-1.23 2.54-1.29 2.51-1.34 2.48-1.43 2.47-1.5 2.47-1.54 2.53-1.49 2.63-1.36 2.76-1.2 2.9-1.04 2.99-.91 2.99-.79 2.92-.7 2.77-.69 2.61-.83 2.4-.99 2.33-.75 2.88" filter="url(#a)"/><path d="M-62.93-50.1-65-47.98l-2.54 2.4-2.28 2.55-1.66 2.54-1.05 2.49-.63 2.45-.47 2.47-.56 2.49-.83 2.54-1.13 2.56-1.38 2.57-1.51 2.58-1.47 2.6-1.32 2.63-1.11 2.67-.94 2.7-.86 2.72-.86 2.75-.89 2.75-.87 2.75-.75 2.73-.52 2.69-.32 2.61-.3 2.53-.51 2.45-.64 2.45-.33 2.65.37 3.09.04 3.7" filter="url(#a)"/><path d="m-64.3-47.89-1.21 2.24-1.73 2.67-1.65 2.57-1.39 2.47-1.19 2.43-1.11 2.44-1.1 2.49-1.05 2.52-.96 2.56-.85 2.56-.76 2.57-.72 2.59-.72 2.61-.73 2.66-.71 2.68-.65 2.72-.58 2.74-.48 2.75-.41 2.75-.36 2.75-.34 2.7-.36 2.62-.37 2.51-.28 2.32-.02 2.13.31 2.43" filter="url(#a)"/><path d="m-65.04-46.42-1.65 3.51-1.59 2.63-2.54 2.44-3.81 2.38-4.59 2.41-4.75 2.47-4.62 2.52-4.33 2.55-3.71 2.55-2.68 2.55-1.48 2.57-.74 2.6-1 2.64-2.36 2.67-4.37 2.7-6.19 2.73-6.99 2.74-6.35 2.76-4.6 2.75-2.67 2.72-1.62 2.71-1.35 2.72 1.34 2.46" filter="url(#a)"/><path d="m-65.04-46.42-2.21 3.52-1.59 2.65-1.59 2.44-1.81 2.41-2.05 2.42-2.21 2.48-2.38 2.54-2.65 2.56-2.94 2.56-3.08 2.57-2.96 2.59-2.57 2.62-2.03 2.65-1.54 2.69L-97.86-7l-1.07 2.74-1.05 2.75-1.02 2.75-.88 2.73-.63 2.68-.43 2.61-.49 2.5-.78 2.38-.93 2.32-.61 2.5-.28 3m38.87-63.58-.69 1.68-.58 2.29-.33 2.36-.24 2.41-.32 2.48-.46 2.55-.55 2.57-.55 2.57-.44 2.58-.27 2.59-.08 2.63.09 2.66.25 2.7.37 2.72.45 2.74.5 2.75.52 2.74.54 2.72.61 2.67.73 2.6.87 2.52.92 2.48.87 2.49.81 2.6.95 2.75 1.22 2.6.48 1.39" filter="url(#a)"/><path d="m-67.16-41.62-1.24 1.71-.87 2.31-.99 2.38-1.12 2.45-1.13 2.51-.97 2.57-.78 2.6-.63 2.6-.56 2.61-.56 2.63-.62 2.66-.67 2.7-.7 2.72-.69 2.75-.62 2.75-.51 2.76-.37 2.73-.22 2.71-.07 2.67.04 2.64.13 2.6.19 2.59.21 2.59.19 2.62.18 2.64.18 2.69.23 2.71.36 2.74.53 2.75.7 2.69.78 2.58.76 2.4.65 2.18.62 2.06.78 2.06 1.1 2.13 1.14 1.79" filter="url(#a)"/><path d="m-67.1-41.94-.43 2.43 2.1 2.58 3.17 2.63 1.56 2.62-.61 2.59-1.57 2.55-1.04 2.5.4 2.47 1.92 2.46 2.86 2.48 2.93 2.55 2.28 2.65 1.31 2.79.47 2.89.09 2.95.23 2.93.85 2.85 1.77 2.74 2.87 2.63 3.88 2.53 4.46 2.48 4.33 2.48 3.6 2.45 2.85 2.3 2.81 2.08 3.07 2.33m94.56-47.17-.53 1.03-.64 2.48-.15 2.87.01 2.87-.16 2.77-.31 2.66-.25 2.57-.08 2.54.02 2.56-.08 2.59-.32 2.64-.55 2.68-.7 2.72-.77 2.76-.86 2.8-1.05 2.78-1.31 2.68-1.52 2.55-1.52 2.42-1.22 2.31-.78 2.01-.84 1.15M-67.73-40.75l-2.33 3.07-4.17 2.46-3.18 2.39-1.34 2.49-.17 2.56.2 2.57.13 2.58-.13 2.56-.48 2.59-.92 2.62-1.42 2.66-1.9 2.7-2.3 2.72-2.55 2.74-2.6 2.74-2.41 2.74-2 2.72-1.48 2.66-.97 2.6-.59 2.52-.37 2.47-.24 2.48-.16 2.6-.13 2.75-.4 2.6-1.82 1.38" filter="url(#a)"/><path d="m-67.73-40.75-5.28 3.06-.53 2.45-.19 2.39-.66 2.47-1.14 2.55-1.46 2.57-1.55 2.57-1.46 2.55-1.39 2.58-1.58 2.61-2.15 2.65-2.92 2.68-3.64 2.71-4 2.74-3.9 2.74-3.45 2.74-2.97 2.72-2.7 2.68-2.74 2.6-2.93 2.49-2.96 2.37-2.5 2.31-1.45 2.49-.64 2.99" filter="url(#a)"/><path d="m-68.09-39.52-1.4 2.64-3.3 2.68-4.58 2.64-4.57 2.59-3.96 2.54-3.05 2.5-1.95 2.47-1.05 2.45-.71 2.47-.94 2.55-1.53 2.66-2.13 2.8-2.54 2.9-2.68 2.94-2.58 2.92-2.36 2.85-2.18 2.73-2.23 2.62-2.68 2.54-3.59 2.49-4.85 2.46-6.1 2.43-6.6 2.37-5.54 2.32-3.22 2.55-4.36 3.29m80.68-68.4-1.07 2.63-1.15 2.67-1.18 2.63-1.1 2.58-.93 2.54-.77 2.5-.61 2.45-.5 2.44-.43 2.46-.42 2.52-.41 2.65-.42 2.78-.38 2.9-.32 2.96-.23 2.94-.16 2.85-.12 2.74-.1 2.6-.05 2.51.04 2.47.16 2.5.23 2.51.17 2.27-.15 1.21" filter="url(#a)"/><path d="m-69.08-36.91-3.37 2.81-1.03 2.63-1.78 2.56-2.58 2.53-2.39 2.48-1.51 2.44-.59 2.42-.08 2.43-.06 2.5-.41 2.63-.95 2.77-1.49 2.91-1.94 2.98L-89.4.12l-2.03 2.86-1.56 2.73-.85 2.58-.21 2.47-.05 2.44-.61 2.54-1.95 2.78-3.8 3.16" filter="url(#a)"/><path d="m-69.08-36.91-2.19 2.85-3.65 2.67-4.52 2.61-3.46 2.56-1.89 2.52-.8 2.48-.32 2.48-.14 2.52.01 2.59.21 2.72.32 2.82.24 2.9-.06 2.93-.55 2.89-1.1 2.82-1.54 2.74-1.8 2.65-1.78 2.58-1.56 2.52-1.21 2.49-.85 2.47-.6 2.46-.49 2.48-.44 2.49-.35 2.55-.1 2.59.3 2.65.65 2.67.74 2.63.46 2.5-.03 2.28-.4 2.04-.33 1.88-.01 2.19" filter="url(#a)"/><path d="m-69.08-36.91-1.1 2.84-1.04 2.66-1.16 2.6-1.3 2.55-1.4 2.51-1.38 2.47-1.28 2.47-1.18 2.49-1.12 2.58-1.1 2.69-1.05 2.82-.92 2.9-.69 2.93-.4 2.9-.1 2.83.12 2.73.22 2.64.16 2.56-.02 2.51-.3 2.47-.62 2.45-.88 2.44-1.02 2.44-1 2.45-.72 2.5-.21 2.56.55 2.69 1.29 2.89 1.43 2.92-.32 1.99" filter="url(#a)"/><path d="m-70.3-33.77-13.05 2.48-10.75 2.55-3.68 2.54.7 2.49 1.83 2.45.8 2.42-.89 2.45-2.17 2.54-2.74 2.66-2.73 2.81-2.37 2.91-1.89 2.95-1.53 2.92-1.45 2.84-1.82 2.72-2.61 2.61-3.82 2.53-5.42 2.48-7.19 2.45-8.54 2.43-8.45 2.39-6.23 2.38-2.62 2.5-.14 2.68 1.83 2.41m84.46-63.23-1.07 2.22-1.77 2.69-2.33 2.7-2.66 2.6-2.66 2.57-2.25 2.6-1.54 2.65-.71 2.7-.01 2.73.44 2.75.56 2.76.42 2.76.15 2.74-.15 2.7-.38 2.66-.52 2.62-.56 2.59-.57 2.58-.6 2.58-.69 2.61-.85 2.64-1.02 2.68-1.09 2.71-.97 2.73-.65 2.72-.22 2.67.17 2.55.39 2.38.43 2.21.36 2.09.42 2.08.78 2.17 1.11 2.28.3 2.67" filter="url(#a)"/><path d="m-72.08-28.73.11 2.82-.68 2.47-.71 2.45-.55 2.42-.38 2.44-.21 2.54-.06 2.7.09 2.85.23 2.94.35 2.97.45 2.91.54 2.82.6 2.72.62 2.62.63 2.54.6 2.5.58 2.47.56 2.44.57 2.44.62 2.45.7 2.47.84 2.52.98 2.58 1.1 2.67 1.17 2.74 1.24 2.72 1.32 2.57 1.34 2.36 1.48 2.33M72.94-24.72l1.2 1.87 1.81 1.96 2.69 2.48 2.55 2.77 1.77 2.83 1.05 2.78.67 2.7.59 2.65.75 2.62L87.08.57l1.41 2.66 1.72 2.7 1.85 2.73 1.81 2.76 1.62 2.77 1.37 2.76 1.16 2.72 1.06 2.67 1.07 2.62 1.18 2.57 1.35 2.53 1.48 2.5 1.47 2.46 1.21 2.45.62 2.41-.27 2.41-1.3 2.4-2.17 2.42-2.53 2.41-2.17 2.41-1.18 2.35-.01 2.23.63 2.02.4 1.71-.14 1.47-.54 1.97" filter="url(#a)"/><path d="m72.94-24.72 4.15 1.84.1 1.91-.11 2.43.74 2.73L79.51-13l2.31 2.76 2.37 2.67L86-4.97l.9 2.56.11 2.57-.22 2.61.04 2.65.66 2.69 1.29 2.73 1.6 2.77 1.51 2.79 1.13 2.77.75 2.68.59 2.56.74 2.45.99 2.38.88 2.41-.17 2.73-2.8 4.43" filter="url(#a)"/><path d="m72.94-24.72 2.28 1.84.28 1.9.21 2.42.93 2.73 2.15 2.81 3.62 2.75 4.98 2.67 5.7 2.59 5.38 2.55 3.98 2.57 1.95 2.61-.05 2.64-1.34 2.68-1.57 2.72-.81 2.77.54 2.8 1.93 2.78 2.88 2.69 3.17 2.55 2.88 2.43 2.42 2.32 2.11 2.01 1.31 1.16" filter="url(#a)"/><path d="m71.48-29.93 4.88 3.96 7.33 2.62 6.74 2.38 5.28 2.55 3.87 2.72 2.55 2.78 1.32 2.75.35 2.7-.18 2.64-.21 2.62.2 2.63.82 2.65 1.43 2.69 1.81 2.72 1.85 2.76 1.6 2.76 1.25 2.76 1.03 2.73 1.03 2.68 1.21 2.61 1.4 2.56 1.42 2.53 1.25 2.49.98 2.47.84 2.43.97 2.4 1.32 2.37 1.54 2.39 1.31 2.42.71 2.44.46 2.43 1.16 2.54 2.54 2.94" filter="url(#a)"/><path d="m71.06-32.03 2.76 3.81 2.61 2.85 2.07 2.61 1.71 2.69 1.81 2.79 2.54 2.82 3.68 2.79 4.67 2.75 4.96 2.75 4.44 2.77 3.36 2.8 2.24 2.8 1.46 2.78 1.19 2.72 1.34 2.67 1.79 2.61 2.32 2.56 2.73 2.54 2.85 2.52 2.77 2.53 2.78 2.54 3.13 2.57 3.62 2.57 3.59 2.52 2.83 2.47 2.12 2.58.82 2.98" filter="url(#a)"/><path d="m71.06-32.03 4.14 3.8 8.79 2.84 6.38 2.6 1.85 2.68-.5 2.79-.24 2.81 1.21 2.78 2.46 2.75 2.96 2.73 2.95 2.76 2.86 2.79 2.94 2.81 3.08 2.78 3.07 2.72 2.88 2.66 2.63 2.59 2.51 2.56 2.49 2.53 2.45 2.5 2.34 2.49 2.4 2.55 3.15 2.62 4.88 2.61 7.3 2.45 8.45 2.49" filter="url(#a)"/><path d="m69.16-37.31 1.38 2.62.73 2.63.66 2.73.69 2.71.67 2.6.63 2.54.56 2.58.5 2.65.45 2.71.39 2.71.34 2.66.3 2.6.25 2.56.22 2.56.15 2.59.09 2.62V7.4l-.07 2.66-.18 2.74-.31 2.92-.44 3.16-.54 3.31" filter="url(#a)"/><path d="m69.41-36.68-1.56-3.81-.57-2.46.42-2.24 1.53-2.25 2.32-2.25L74-51.94l1.9-2.22.95-2.18-.01-2.12-.71-2.04-1.11-1.97-1.34-1.9-1.55-1.83-1.79-1.77-2.06-1.72-2.25-1.65-2.35-1.59-2.36-1.52L59-75.91l-2.31-1.39-2.3-1.32-2.35-1.25-2.44-1.17-2.57-1.1-2.81-1.02-3.08-.95-3.35-.88-3.51-.81-3.48-.73-3.32-.67-3.16-.58-3.17-.51-3.38-.42-3.73-.33-4.41-.25-6.4-.32" filter="url(#a)"/><path d="m67.96-39.93-.3-1.98-.24-2.36.81-2.41 1.35-2.36.89-2.26.07-2.18-.51-2.11-.64-2.05-.53-2.01-.48-1.97-.7-1.93-1.22-1.88-1.93-1.83-2.61-1.75-3.1-1.7-3.27-1.64-3.15-1.59-2.81-1.54-2.41-1.47-2.04-1.39-1.8-1.29-1.68-1.2-1.7-1.09-1.82-1-2.06-.92-2.36-.84-2.66-.79-2.89-.74-3.05-.68-3.17-.62-3.37-.54-3.73-.51-4.33-.57" filter="url(#a)"/><path d="m67.09-42.16 3.56-1.16-.83-1.88-1.48-2.17-1.52-2.22-1.53-2.22-1.49-2.2-1.36-2.17-1.14-2.11-.91-2.03-.68-1.94-.55-1.87-.62-1.81-.83-1.77-1.11-1.73-1.29-1.66-1.36-1.58-1.38-1.49-1.55-1.46-1.92-1.47-2.24-1.46-2.01-1.29-1.66-1.06" filter="url(#a)"/><path d="m67.09-42.16 4.8-1.17 3-1.89-1.11-2.18-2.25-2.24-1.5-2.23-.1-2.21 1.41-2.17 2.74-2.11 3.5-2.04 3.38-1.95 2.42-1.87.97-1.82-.51-1.77-1.66-1.72-2.44-1.66-3.01-1.58-3.46-1.52-3.8-1.46-3.82-1.42-3.32-1.38-2.31-1.28L58.86-81l-.59-1.06-.91-.98-1.11-.84" filter="url(#a)"/><path d="m67.09-42.16.97-1.17 2.68-1.89 1.08-2.18-.9-2.24-1.57-2.23-1.1-2.21-.16-2.17.65-2.11 1-2.04.82-1.95.22-1.87-.55-1.82-1.28-1.77-1.78-1.72-2.05-1.66-2.15-1.58-2.15-1.52-2.05-1.46-1.78-1.42-1.4-1.38-1.06-1.28-1.1-1.17-1.73-1.06-2.54-.98-2.49-.84" filter="url(#a)"/><path d="m66.18-44.2-1.15-3.35.3-2.33.41-2.21-.22-2.21-.98-2.18-1.45-2.11-1.59-2.03-1.55-1.93-1.5-1.86-1.48-1.81-1.52-1.76-1.58-1.71-1.63-1.64-1.65-1.58-1.65-1.51-1.62-1.45-1.62-1.41-1.68-1.33-1.79-1.27-1.92-1.17-2.01-1.08-2.02-1.02-2.06-.96-2.3-.89-2.79-.79-3.06-.8" filter="url(#a)"/><path d="m66.18-44.2 10.36-3.37-3.03-2.36-3.39-2.24-2.29-2.23-1.73-2.19-1.36-2.13-.96-2.03-.63-1.95-.55-1.88-.79-1.82-1.24-1.76-1.69-1.71-1.97-1.64-2-1.58-1.86-1.51-1.68-1.44-1.62-1.38-1.72-1.31-1.93-1.23-2.18-1.16-2.37-1.08-2.46-1.01-2.46-.93-2.45-.87-2.48-.79-2.56-.72-2.71-.64-2.92-.57-3.19-.48-3.49-.39-3.83-.31-4.12-.21-4.38-.12-4.53-.03-4.58.04-4.77.13-6.23.33" filter="url(#a)"/><path d="m63.81-48.8 6.92-3.24-2.82-2.43-3.34-2.24-2.61-2.13-1.95-2.03-1.3-1.92-.64-1.85-.16-1.79-.04-1.75-.32-1.7-.83-1.64-1.36-1.57-1.74-1.5-1.89-1.44-1.85-1.38-1.69-1.32-1.51-1.24-1.36-1.16-1.26-1.08-1.27-1.01-1.43-.94-1.81-.88-2.4-.81-3.1-.73-3.73-.66-4.1-.59-4.12-.53-3.8-.48-2.95-.33" filter="url(#a)"/><path d="m63.81-48.8-.61-3.23.9-2.43 1.8-2.22 1.69-2.13.26-2.02-1.42-1.92-2.31-1.84-2.1-1.79-1.12-1.75-.02-1.7.66-1.64.62-1.57-.09-1.5-1.14-1.44-2.11-1.38-2.66-1.33-2.68-1.25-2.38-1.16-2.11-1.08-2.18-1.01-2.64-.95-3.24-.89-3.6-.84-3.48-.76-2.57-.61.42-.11" filter="url(#a)"/><path d="m61.56-52.38-1.03-1.75-1.08-1.92-.72-1.98.09-1.98.67-1.98.54-1.94-.09-1.88-.69-1.81-.9-1.74-.79-1.67-.7-1.62-.87-1.57-1.36-1.52-1.99-1.44-2.51-1.36-2.76-1.26-2.72-1.17-2.51-1.06-2.29-.99-2.17-.9-2.22-.83-2.39-.77-2.66-.7-2.94-.65-3.2-.58-3.44-.51-3.62-.45-3.77-.36-3.91-.28-4.07-.2-4.38-.11-4.86-.02-5.41.08-5.59.13-4.46.17" filter="url(#a)"/><path d="m60.54-54.08-2.3-1.96-2.51-2.02-1.67-1.98-1.18-1.97-1.13-1.95-1.32-1.88-1.56-1.81-1.79-1.72-1.98-1.66-2.12-1.61-2.19-1.57-2.2-1.52-2.16-1.45-2.08-1.37-2.03-1.26-2-1.17-2-1.06-2.04-.98-2.07-.9-2.12-.83-2.16-.77-2.2-.72-2.24-.66-2.26-.59-2.25-.53-2.21-.46-2.11-.38-1.93-.31-1.71-.24-1.18-.24" filter="url(#a)"/><path d="m60.54-54.08-1.24-1.95-1.27-2L56.9-60l-.99-1.96-.84-1.94-.79-1.88-.9-1.8-1.14-1.71-1.41-1.65-1.61-1.61-1.72-1.57-1.75-1.52-1.79-1.47-1.84-1.38-1.87-1.28-1.88-1.18-1.87-1.07-1.89-.98-1.98-.89-2.15-.83-2.35-.77-2.55-.75-2.71-.71-2.71-.6-2.74-.56" filter="url(#a)"/><path d="m60.54-54.08-.79-1.94-.82-1.99-.12-1.96.92-1.95 1.34-1.93.66-1.87-.71-1.8-2.01-1.71-2.65-1.64-2.52-1.6-1.9-1.57-1.17-1.53-.65-1.48-.47-1.4-.59-1.29-.93-1.18L46.75-82l-1.87-.98-2.27-.89-2.36-.76-2.16-.69-3.47-1.03" filter="url(#a)"/><path d="m60.41-54.21-1.38-2.61-1.21-2.25-1.26-2.04-1.14-1.91-.98-1.82-.84-1.77-.74-1.75-.62-1.7-.54-1.64-.61-1.56-.83-1.49-1.19-1.43-1.63-1.37-2.06-1.3-2.4-1.22-2.64-1.15-2.76-1.07-2.78-.99-2.75-.93-2.71-.86-2.7-.78-2.72-.72-2.74-.63-2.75-.57-2.74-.48-2.78-.39-2.88-.31-3.09-.21-3.35-.12-3.52-.03-3.41.01-2.35-.01" filter="url(#a)"/><path d="m60.41-54.21-1.67-2.61-1.38-2.24-.83-2.04-.23-1.9.09-1.82.18-1.77.15-1.75.07-1.7-.17-1.63-.63-1.56-1.26-1.49-1.88-1.43-2.31-1.37-2.46-1.31-2.36-1.22-2.14-1.15-1.95-1.07-1.84-1-1.88-.93-2.04-.86-2.34-.8-2.7-.72-3.11-.64-3.43-.57-3.63-.5-3.69-.4-3.71-.32-3.86-.22-4.15-.13-3.28.08" filter="url(#a)"/><path d="m60.41-54.21-.88-2.62-1.25-2.25-1.6-2.06-1.56-1.91-1.44-1.82-1.37-1.79-1.36-1.75-1.41-1.7-1.56-1.64-1.78-1.56-2.03-1.49-2.24-1.43-2.36-1.37-2.4-1.29-2.36-1.22-2.3-1.14-2.23-1.06-2.19-.99-2.18-.92-2.2-.85-2.22-.77-2.25-.7-2.29-.63-2.31-.54-2.35-.46-2.39-.37-2.44-.28-2.52-.2-2.59-.11-2.65-.02-2.7.05-2.72.13-2.72.18-2.73.25-2.71.29-2.72.4-3.1.68" filter="url(#a)"/><path d="m57.34-58.5.11-1.73.08-1.94-.9-1.96-1.93-1.91-2.31-1.8-2.07-1.71-1.59-1.65-1.18-1.6-1.06-1.56-1.26-1.51-1.65-1.44-2.04-1.36-2.32-1.25-2.4-1.15-2.34-1.05-2.23-.97-2.15-.89-2.14-.82-2.22-.76-2.37-.7-2.55-.64-2.71-.58-2.8-.51-2.84-.43-2.83-.36-2.82-.28-2.89-.2-3.09-.1-3.41-.02-3.77.08-3.87.13-3.15.17" filter="url(#a)"/><path d="m57.34-58.5-1.3-1.74-1.41-1.94-1.39-1.97-1.42-1.91-1.52-1.81-1.68-1.72-1.82-1.64-1.94-1.61-2.01-1.56-2.06-1.51-2.08-1.44-2.08-1.34-2.07-1.25-2.06-1.15-2.05-1.05-2.07-.96-2.09-.89-2.14-.82-2.21-.76-2.27-.69-2.35-.63-2.4-.56-2.43-.5-2.44-.42-2.42-.34-2.41-.26-2.41-.18-2.44-.09h-2.49l-2.52.08-2.5.17-2.44.25-2.39.34-2.38.41-2.16.41-1.39.34" filter="url(#a)"/><path d="m56.88-59.32-1.37-2.04-1.34-1.89-1.34-1.74-1.44-1.74-1.54-1.76-1.55-1.71-1.53-1.63-1.54-1.55-1.57-1.48-1.65-1.42-1.68-1.36-1.66-1.29-1.6-1.22-1.55-1.14-1.54-1.06-1.61-.98-1.79-.92-2.05-.85-2.34-.78-2.59-.71-2.78-.63-2.87-.55-2.9-.47-2.92-.39-2.95-.3-3.02-.2-3.13-.12-3.21-.03-3.27.05-3.46.13-4.6.33" filter="url(#a)"/><path d="m56.14-60.03-2.24-2.14-2.41-2-2-1.92-1.73-1.81-1.7-1.68-1.9-1.62-2.25-1.58-2.66-1.56-3-1.52-3.18-1.45-3.17-1.36-3-1.25-2.75-1.15-2.5-1.05-2.31-.96-2.24-.89-2.27-.82-2.37-.76-2.45-.72-2.42-.65-2.19-.6-1.8-.53-1.32-.46-.84-.38-.5-.29-.63-.19" filter="url(#a)"/><path d="m55.48-61.23-1.66-2.2-1.43-1.65-1.6-1.69-1.64-1.77-1.49-1.73-1.29-1.63-1.2-1.55-1.28-1.46-1.47-1.42-1.69-1.35-1.86-1.3-1.96-1.21-1.98-1.13-1.99-1.06-1.99-.98-2.02-.91-2.04-.85-2.07-.78-2.1-.7-2.16-.63-2.24-.55-2.36-.47-2.57-.38-2.84-.3-3.2-.2-3.58-.12-3.85-.03-3.99.05-4.18.13-5.43.33" filter="url(#a)"/><path d="m55.48-61.23.4-2.2-1.36-1.64-1.96-1.7-2.16-1.76-2.11-1.73-1.92-1.64-1.66-1.53-1.38-1.47-1.16-1.42-1.06-1.35-1.14-1.29-1.38-1.22-1.71-1.13-2.03-1.06-2.27-.98-2.41-.92-2.44-.85-2.44-.78-2.43-.7-2.49-.63-2.57-.56-2.67-.47-2.76-.39-2.87-.31-3.02-.2-3.19-.12-3.31-.03-3.24.01-2.26-.01" filter="url(#a)"/><path d="m54.59-62.39-1.76-1.92-1.71-1.93-1.49-1.81-1.24-1.68-1.19-1.61-1.37-1.58-1.68-1.56-1.95-1.51-2.1-1.45-2.14-1.34-2.11-1.24-2.06-1.14-2.03-1.04-2.03-.95-2.06-.88-2.14-.82-2.23-.75-2.34-.69-2.46-.63-2.54-.57-2.61-.49-2.6-.43-2.59-.35-2.55-.26-2.55-.19-2.6-.09-2.71-.01-2.79.08-2.76.15-2.59.24-2.65.38-4.08.64" filter="url(#a)"/><path d="m52.68-64.35 1.34-1.96.11-1.86-1.9-1.65-2.13-1.57-1.58-1.56-1.19-1.56-1.25-1.52-1.58-1.45-1.9-1.34-2.05-1.24-2.08-1.13-2.08-1.03-2.15-.95-2.3-.88-2.47-.81-2.59-.75-2.68-.69-2.72-.64-2.77-.57-2.82-.5-2.88-.43-2.92-.36-2.96-.27-3.08-.19-3.31-.11-3.69-.01-4.12.08-4.28.14-3.43.16" filter="url(#a)"/><path d="m51.22-66.21-.91-2.14.06-1.61-.13-1.52-.85-1.55-1.64-1.57-2.27-1.53-2.61-1.45-2.63-1.34-2.44-1.23-2.14-1.12-1.86-1.03-1.73-.94-1.75-.86-1.92-.8-2.15-.75-2.41-.68-2.61-.62-2.75-.55-2.86-.49-2.94-.41-3.02-.33-3.14-.25-3.26-.17-3.44-.08-3.63.01-3.8.09-3.92.18-3.95.25-3.93.34-3.9.41-3.81.45-3.91.52-5.59.76" filter="url(#a)"/><path d="m51.08-66.26-2.47-2.45-1.5-1.88-1.09-1.6-1.22-1.45-1.49-1.4-1.58-1.39-1.5-1.36-1.34-1.29-1.24-1.2-1.25-1.11-1.36-1.04-1.5-.97-1.72-.91-2.01-.85-2.35-.78-2.66-.7-2.84-.64-2.82-.56-2.66-.49-2.56-.41-2.73-.31-3.38-.24-5.12-.32" filter="url(#a)"/><path d="m48.44-69.02 1.01-1.13-2.14-1.37-2.56-1.53-2.38-1.58-2.17-1.55-2.01-1.46-1.93-1.34-1.9-1.22-1.9-1.11-1.92-1.02-1.95-.93-2-.86-2.08-.8-2.18-.74-2.29-.68-2.38-.63-2.44-.55-2.46-.49-2.45-.42-2.44-.33-2.43-.26-2.47-.17-2.56-.09h-2.65l-2.72.08-2.7.17-2.64.25-2.64.36-2.86.45-2.57.4" filter="url(#a)"/><path d="m47.74-70.01-1.65-1.47-1.44-1.58-1.53-1.64-1.62-1.59-1.59-1.47-1.51-1.33-1.54-1.21-1.7-1.1-1.93-1.01-2.11-.92-2.21-.86-2.23-.79-2.21-.73-2.21-.67-2.24-.61-2.34-.54-2.48-.46-2.67-.4-2.88-.31-3.1-.23-3.31-.15-3.52-.06-3.67.03-3.78.11-3.84.2-3.87.27-3.87.36-3.91.44-3.99.51-4.13.58-4.26.65-4.35.68-4.37.69-4.55.73-5.1.82-5.06.99" filter="url(#a)"/><path d="m46.13-70.85-1.5-1.63-1.1-1.38-.43-1.35-.3-1.4-.84-1.37-1.66-1.3-2.29-1.19-2.46-1.1-2.29-1.02-1.98-.95-1.78-.89-1.82-.83-2.05-.75-2.38-.68-2.68-.6-2.85-.52-2.95-.44-2.99-.36-3.06-.27-3.15-.18-3.3-.09-3.46-.02-3.66.07-3.84.13-3.99.19-4.04.24-4.02.3-4.05.39-4.72.68" filter="url(#a)"/><path d="m46.13-70.85 2.99-1.63 2.42-1.39.94-1.35-.5-1.39-2.01-1.38-3.23-1.29-3.83-1.2-3.8-1.1-3.41-1.02-2.92-.95-2.57-.89-2.4-.82-2.38-.75-2.45-.68-2.53-.6-2.64-.52-2.75-.44-2.88-.35-3.04-.26-3.21-.18-3.41-.09-3.6-.01-3.81.06-3.97.13-4.13.2-4.26.25-4.35.31-4.37.4-4.17.5-3.65.5" filter="url(#a)"/><path d="m45.56-71.48-.42-1.57.41-1.69-.87-1.63-2.21-1.47-2.76-1.33-2.75-1.2-2.55-1.09-2.33-.99-2.13-.92-1.98-.85-1.93-.79-1.99-.72-2.14-.67-2.34-.61-2.54-.54-2.68-.47-2.78-.39-2.85-.31-2.9-.23-2.97-.15-3.05-.06-3.12.02-3.18.11-3.22.2-3.24.27-3.26.36-3.34.43-3.47.52-3.62.58-3.73.65-3.7.68-3.46.67-3.24.69-3.4.78" filter="url(#a)"/><path d="m44.83-72.61.11-1.4-.81-1.25-1.87-1.41-2.61-1.41-2.79-1.31-2.64-1.19-2.41-1.09-2.23-1.01-2.1-.95-2.04-.88-2.02-.81-2.03-.74-2.06-.66-2.12-.58-2.23-.51-2.35-.41-2.49-.33-2.63-.25-2.77-.15-2.87-.08-2.95.01-3.04.08-3.1.15-3.17.22-3.24.3-3.28.37-3.32.45-3.33.54-3.33.63-3.32.72-3.35.8-3.46.87-3.6.93-3.72.98-3.81 1.1-4.59 1.54" filter="url(#a)"/><path d="m44.83-72.61-1.11-1.4.75-1.24.27-1.4-.76-1.41-1.57-1.3-2.07-1.19-2.33-1.09-2.47-1.01-2.52-.95-2.51-.88-2.37-.82-2.21-.74-2.07-.68-2.06-.59-2.24-.51-2.57-.43-2.98-.35-3.35-.26-3.64-.17-3.8-.09-3.88-.01-3.94.07-4.04.14-4.22.2-4.46.26-4.69.33-4.81.41-4.85.5-5.17.63-6.87.77" filter="url(#a)"/><path d="m41.77-74.68-.38-.52-1.26-1.41-1.69-1.48-1.84-1.32-1.73-1.17-1.57-1.07-1.55-1-1.73-.94-2.04-.88-2.32-.82-2.48-.76-2.49-.68-2.41-.6-2.33-.53-2.32-.45-2.43-.37-2.6-.28-2.81-.19-2.99-.11-3.11-.02-3.19.05-3.4.13-4.57.33" filter="url(#a)"/><path d="m36.48-78.51-.77-.99-.11-1.15-.76-1.05-1.64-.96-2.13-.88-2.39-.81-2.57-.77-2.7-.71-2.73-.67-2.69-.6-2.63-.54-2.55-.46-2.52-.39-2.53-.32-2.6-.23-2.74-.15-2.93-.07-3.12.02-3.28.1-3.35.18-3.42.27-3.55.34-3.8.41-3.98.45-3.93.52-4.36.75" filter="url(#a)"/><path d="m35.57-79.25.01-.69-.63-.94-1.69-.99-2.31-.98-2.59-.93-2.63-.87-2.5-.81-2.34-.73-2.19-.65-2.13-.58-2.16-.49-2.24-.41-2.36-.33-2.52-.24-2.69-.15-2.86-.08-3.01.01-3.14.08-3.24.15-3.34.21-3.47.28-3.68.35-3.95.43-4.19.52-4.3.61-4.25.69-4.28.79-4.83.96" filter="url(#a)"/><path d="m35.61-79.11-2.78-1.62-2.02-1.08-1.74-.94-1.55-.88-1.49-.81-1.63-.76-1.87-.71-2.14-.66-2.35-.59-2.48-.52-2.55-.44-2.61-.37-2.65-.28-2.68-.2-2.72-.12-2.75-.03-2.77.05-2.77.14-2.76.23-2.73.3-2.71.38-2.7.46-2.73.53-2.79.59-2.89.65-3.03.71-3.19.78-3.35.85-3.45.93-3.45 1.04-3.37 1.12-3.24 1.21-3.13 1.24-3.01 1.25-2.76 1.25-2.42 1.06" filter="url(#a)"/><path d="m32.74-80.91-3.42-1.07-2.84-.99-2.13-.94-1.83-.88-1.87-.8-2.02-.71-2.13-.64-2.19-.56-2.19-.47-2.19-.39-2.17-.3-2.18-.21-2.2-.13-2.21-.04-2.21.03-2.2.11-2.17.18-2.13.26-2.09.33-2.06.4-2.02.49-2 .57-1.97.66-1.95.74-1.9.82-1.83.9-1.76.97-1.69 1.05-1.64 1.11-1.61 1.19-1.58 1.25-1.5 1.32-1.4 1.4-1.25 1.48-1.12 1.5-.98 1.42-.83 1.42" filter="url(#a)"/><path d="m32.74-80.91 1.82-1.05-1.65-.98-2.23-.93-2.11-.87-1.93-.8-1.95-.72-2.13-.65-2.37-.57-2.56-.49-2.75-.41-2.92-.33-3.12-.24-3.31-.15-3.48-.07h-3.63l-3.79.08-3.93.14-4.08.2-4.29.26-4.58.31-4.9.4-4.87.49-3.86.5" filter="url(#a)"/><path d="m32.74-80.91-.53-1.06-1.69-.99-1.86-.94-2.14-.88-2.42-.79-2.56-.72-2.56-.64-2.53-.56-2.48-.48-2.46-.4-2.48-.3-2.52-.22-2.57-.14-2.62-.05-2.67.03-2.7.1-2.74.17-2.75.24-2.75.31-2.75.39-2.74.47-2.75.55-2.8.64-2.89.73-2.99.8-3.08.88-3.17.95-3.21 1.02-3.2 1.12-3.14 1.21-3.08 1.25-3 1.15" filter="url(#a)"/><path d="m31.23-81.57-1.33-1.19.45-.94-.1-.81-1.4-.73-2.45-.71-3.04-.65-3.24-.6-3.22-.52-3.1-.46-2.93-.37-2.8-.3-2.74-.22-2.8-.14-2.95-.05-3.16.03-3.4.11-3.61.19-3.78.28-3.91.34-3.96.42-3.93.5-4.14.6-5.05.82-6.93 1.16" filter="url(#a)"/><path d="m30.1-82.06-4.63-.95-1.67-.93-1.65-.87-2.05-.79-2.22-.71-2.19-.64-2.11-.56L11.5-88l-2.08-.4-2.08-.32-2.02-.24-1.9-.14-1.7-.07-1.5.01-1.28.09-1.05.14-.82.21-.58.27-.34.33-.15.41-.04.5-.11.62.2.77" filter="url(#a)"/><path d="m28.11-83.01-.83-.83-.9-.76-.63-.71-1.17-.7-2-.65-2.65-.6-2.97-.51-3.02-.44-2.97-.36-2.89-.29-2.89-.2-2.95-.11-3.07-.03-3.2.05-3.32.14-3.45.22-3.6.3-3.78.38-3.98.45-4.13.52-4.19.59-4.14.65-4.04.69-4.03.73-4.23.79-4.62.9-4.96 1.02-4.86 1.07-4.37.75" filter="url(#a)"/><path d="m26.96-83.79-.79-.89-1.01-.67-2.09-.7-2.64-.67-2.85-.59-2.86-.51-2.77-.43-2.67-.35-2.61-.27-2.62-.19-2.72-.1-2.83-.02-2.93.07-3.02.16-3.09.23-3.15.32-3.24.39-3.33.47-3.45.53-3.54.6-3.59.66-3.58.72-3.51.78-3.46.86-3.4.94-3.43 1.04-3.56 1.12-3.79 1.2-4.07 1.24-4.2 1.27-3.91 1.3-3.3 1.39-3.94 1.72" filter="url(#a)"/><path d="m23.53-85.21-.65-.16-2.03-.7-2.42-.69-2.5-.6-2.5-.51-2.45-.42-2.39-.34-2.33-.27-2.31-.18-2.33-.09-2.35-.01-2.36.08-2.37.17-2.35.25-2.33.32-2.31.41-2.3.47-2.3.55-2.28.61-2.26.67-2.25.74-2.23.81-2.2.88-2.2.96-2.17 1.05-2.17 1.12-2.16 1.21-2.17 1.27-2.19 1.35-2.22 1.43-2.27 1.53-2.29 1.64-2.25 1.71-2.17 1.74-2.07 1.75-1.52 1.5" filter="url(#a)"/><path d="m23.53-85.21.09-.16-2.28-.7-2.57-.7-2.54-.59-2.5-.51-2.49-.42-2.44-.34-2.43-.27-2.45-.18-2.5-.09h-2.6l-2.69.08-2.8.17-2.91.25-3.04.32-3.15.41-3.25.48-3.33.55-3.38.61-3.46.68-3.57.74-3.73.81-3.91.88-4.07.97-4.15 1.05-4.13 1.13-4.09 1.2-4.15 1.28-4.44 1.36-4.9 1.44-5.39 1.53-5.55 1.63-5.17 1.69-4.27 1.72-3.22 1.68-2.69 1.59-3.92 1.4" filter="url(#a)"/><path d="m21.7-85.58-2.67-.92-2.25-.69-2.1-.54-2.14-.45-2.22-.37-2.29-.28-2.36-.18-2.42-.1-2.47-.01-2.51.06-2.53.13-2.53.2-2.54.28-2.53.35-2.51.43-2.48.51-2.45.59-2.42.68-2.39.77-2.38.84-2.4.92-2.46.99-2.52 1.06-2.6 1.14-2.68 1.2-2.74 1.28-2.78 1.34-2.8 1.43-2.8 1.51-2.75 1.59-2.68 1.7-2.6 1.8-2.51 1.86-2.36 1.85-2.11 1.68-1.77 1.4-1.49.86" filter="url(#a)"/><path d="m20.06-86.35-1.97-.68-2.07-.48-2.39-.45-2.44-.4-2.35-.35-2.31-.26-2.35-.18-2.45-.09H-.81l-2.62.08-2.65.16-2.64.24-2.63.33-2.61.39-2.62.48-2.62.54-2.63.6-2.65.66-2.69.71-2.75.78-2.86.85-3.02.93-3.15 1.04-3.18 1.13-3.08 1.2-2.91 1.23-2.83 1.25-2.84 1.24-2.29 1.05" filter="url(#a)"/><path d="m20.06-86.35-1.93-.68-1.97-.49-2.34-.45-2.49-.4-2.5-.34-2.5-.26-2.53-.17-2.61-.08-2.68.01-2.75.09-2.8.18-2.84.26-2.91.33-2.98.42-3.06.49-3.13.55-3.2.62-3.24.69-3.27.75-3.31.82-3.31.89-3.3.97-3.23 1.06-3.13 1.14-3.02 1.22-2.95 1.29-2.95 1.36-3.05 1.45-3.24 1.54-3.49 1.62-3.75 1.67-3.98 1.72-4.08 1.74-4 1.79-3.8 1.92-3.89 2.18-4.95 2.35" filter="url(#a)"/><path d="m17.39-87.31-1.56-.26-2.34-.42-2.55-.41-2.48-.35L6.08-89l-2.35-.17-2.41-.08-2.53.01-2.65.09-2.75.18-2.82.26-2.88.34-2.91.42-2.95.49-2.96.56-2.99.62-3.02.68-3.06.75-3.13.81-3.21.89-3.29.98-3.39 1.05-3.49 1.14-3.59 1.21-3.73 1.29-3.88 1.36-4 1.44-4 1.54-3.78 1.62-3.33 1.68-2.85 1.71-2.7 1.71-3.21 1.72-4.36 1.87-5.7 2.46" filter="url(#a)"/><path d="m15.71-87.35-3.18-.85-2.27-.48-2.14-.29-2.36-.16-2.61-.08-2.78-.01-2.89.07-3 .14-3.13.19-3.25.27-3.37.33-3.46.41-3.59.49-3.76.57-3.97.67-4.17.74-4.25.82-4.19.9-4.04.96-4 1.03-4.34 1.11-5.1 1.17-5.87 1.21-5.96 1.23-5.59 1.24-7.89 1.33" filter="url(#a)"/><path d="m15.71-87.35-3.3-.85-2.43-.49-2.22-.28-2.31-.16-2.43-.07H.49l-2.6.08-2.62.14-2.63.22-2.62.28-2.61.35-2.63.44-2.67.52-2.76.61-2.85.69-2.95.77-3.03.85-3.11.92-3.14 1-3.16 1.07-3.14 1.14-3.12 1.21-3.13 1.28-3.18 1.36-3.31 1.43-3.47 1.51-3.65 1.61-3.85 1.69-4.03 1.78-4.18 1.82-4.18 1.8-3.96 1.67-3.5 1.47-2.97 1.32-2.61 1.53" filter="url(#a)"/><path d="m12.7-88.11-2.08-.38-2.07-.35-2.14-.25-2.28-.17-2.49-.08-2.69.01-2.84.09-2.89.16-2.85.25-2.76.32-2.69.39-2.7.47-2.82.54-3.09.6-3.47.65-3.97.69-4.55.72-5.07.79-5.25.9-4.7 1.02-3.36 1.06-2.17.73" filter="url(#a)"/><path d="m12.7-88.11-2.4-.38-2.31-.35-2.13-.25-2.12-.17-2.22-.08-2.33.01-2.4.09-2.39.16-2.33.25-2.28.32-2.26.39-2.28.47-2.34.54-2.39.6-2.38.65-2.32.69-2.2.72-2.11.79-2.13.9-2.23 1.02-2.28 1.06-1.82.73" filter="url(#a)"/><path d="m11.55-88.5-1.71-.34-1.79-.21-2.18-.13-2.52-.06-2.71.01-2.75.08-2.7.14-2.63.21-2.62.28-2.72.35-2.96.43-3.28.51-3.62.59-3.87.69-3.98.76-3.97.84-3.94.92-3.98.99-4.17 1.05-4.47 1.13-4.77 1.19-4.98 1.26-5.07 1.33-5.04 1.4-5.01 1.48-5.18 1.55-5.57 1.66-5.88 1.85-5.41 2.2-3.82 2.52" filter="url(#a)"/><path d="m9.39-88.96-1.67-.15-2.2-.11-2.45-.05-2.49.01-2.48.08-2.5.15-2.61.21-2.82.28-3.14.35-3.57.43-4.02.51-4.4.59-4.6.69-4.57.76-4.36.84-4.07.91-3.8.99-3.61 1.05-3.49 1.12-3.47 1.19-3.63 1.26-4.05 1.32-4.79 1.39-5.71 1.47-6.43 1.52-6.78 1.57-7.3 1.76-9.81 2.42" filter="url(#a)"/><path d="m9.39-88.96-1.67-.14-2.17-.11-2.4-.06-2.4.01-2.34.08-2.29.14-2.24.21-2.19.27-2.14.34-2.11.41-2.08.5-2.04.59-2 .67-1.96.76-1.9.82-1.86.9-1.81.97-1.78 1.04-1.7 1.11-1.59 1.17-1.41 1.23-1.22 1.28-1.22 1.38-1.57 1.65-2.16 2.25" filter="url(#a)"/><path d="m9.39-88.96-1.59-.15-2.18-.11-2.52-.05-2.62.01-2.67.09-2.74.15-2.82.21-2.85.28-2.83.36-2.76.43-2.75.52-2.81.6-2.97.69-3.21.77-3.45.85-3.64.92-3.71.99-3.67 1.06-3.53 1.13-3.38 1.2-3.32 1.26-3.42 1.34-3.7 1.41-4.08 1.48-4.42 1.58-4.62 1.68-4.78 1.83-4.99 1.98-4.98 1.95-4.22 1.26" filter="url(#a)"/><path d="m6.8-89.13-1.26-.09-1.92-.12-2.27-.06-2.55.03-2.74.11-2.78.19-2.73.27-2.66.34-2.65.42-2.7.49-2.82.56-2.97.61-3.09.67-3.16.73-3.24.78-3.44.85-3.77.95-4.24 1.04-4.63 1.13-4.76 1.19-4.52 1.24-4.02 1.25-3.62 1.3-3.66 1.38-5.18 1.7" filter="url(#a)"/><path d="m7.86-89.17-2.19-.06-2.58-.07-2.5.01-2.41.09-2.37.16-2.35.21-2.32.28-2.3.35-2.29.43-2.31.51-2.36.6-2.39.69-2.43.76-2.42.85-2.39.91-2.33.99-2.27 1.05-2.22 1.12-2.18 1.19-2.18 1.26-2.18 1.32-2.17 1.39-2.17 1.46-2.15 1.52-2.13 1.57-2.29 1.77-2.79 2.41" filter="url(#a)"/><path d="m6.19-89.17-2.58-.18-2.24-.08-2.28.03-2.13.12-1.81.2-1.49.28-1.26.35-1.17.43-1.2.5-1.28.57-1.32.63-1.26.68-1.09.74-.83.8-.62.88-.56.97-.68 1.05-.92 1.13-1.09 1.2-.99 1.27-.53 1.33.13 1.41.67 1.53.85 1.65.83 1.71 1.33 1.73 2.58 2.33" filter="url(#a)"/><path d="m6.19-89.17-2.54-.18-2.29-.08-2.49.03-2.55.13-2.51.2-2.44.29-2.41.36-2.42.43-2.44.51-2.47.58-2.5.63-2.54.7-2.56.75-2.56.82-2.55.9-2.52.98-2.52 1.07-2.58 1.15-2.67 1.22-2.82 1.29-2.99 1.37-3.14 1.45-3.26 1.53-3.26 1.62-3.16 1.67-3.03 1.71-3.06 1.73-3.37 1.78-3.77 1.92-3.69 2.17-2.6 2.34" filter="url(#a)"/></g><path fill="none" stroke="#000" stroke-linejoin="round" stroke-width="3" d="M-8.5 24.12Q9.53 31.53.515-5.074" filter="url(#a)"/><path fill="#D77F8C" stroke="#000" stroke-linejoin="round" stroke-width="3" d="m-32.99 53.59.2-.76.22-.75.23-.73.24-.7.25-.69.27-.67.27-.66.29-.63.29-.61.31-.6.32-.58.33-.56.34-.54.35-.52.36-.51.38-.48.38-.47.39-.46.4-.43.41-.42.43-.4.43-.38.44-.37.45-.35.46-.33.47-.32.48-.3.49-.28.49-.27.51-.25.51-.24.53-.21.53-.21.54-.18.55-.17.55-.16.57-.14.57-.13.58-.11.59-.09.6-.08.6-.06.61-.05.62-.04.63-.02h1.27l.65.03.65.03.66.06.67.06.67.08.69.09.68.11.69.12.7.13.71.15.71.16.72.17.72.19.73.2.73.21.74.22.74.24.75.25.76.26.76.27.76.29.77.3.77.31.78.32.79.33.78.35.79.35.8.37.8.38.8.39.81.4.81.42.81.42.82.43.82.45.83.45.82.47.83.47.84.49.83.49.84.51.84.52.85.52.84.54.85.54.85.56.86.56.85.57.86.58.86.6.86.6.86.6-.61-.46-.61-.46-.62-.45-.61-.44-.61-.44-.61-.43-.61-.42-.61-.42-.61-.41-.62-.4-.61-.39-.61-.39-.61-.38-.61-.37-.61-.36-.61-.36-.62-.34-.61-.34-.61-.33-.61-.33-.61-.31-.61-.31-.61-.3-.62-.29-.61-.28-.61-.27-.61-.27-.61-.25-.61-.25-.61-.23-.61-.23-.62-.22-.61-.21-.61-.2-.61-.19-.61-.18-.61-.18-.61-.16-.62-.15-.61-.14-.61-.14-.61-.12-.61-.11-.61-.11-.61-.09-.62-.08-.61-.07-.61-.07-.61-.05-.61-.04-.61-.03-.61-.02-.62-.01-.61.01-.61.01-.61.03-.61.03-.61.05-.61.06-.62.07-.61.08-.61.09-.61.11-.61.11-.61.13-.61.14-.62.16-.61.16-.61.18-.61.19-.61.2-.61.21-.61.23-.62.24-.61.25-.61.26-.61.28-.61.29-.61.3-.61.32-.62.33-.61.34-.61.35-.61.37-.61.39-.61.39-.61.41-.62.43-.61.43-.61.45-.61.47-.61.48-.61.49-.61.51-.61.52-.62.54-.61.55-.61.56-.61.58" filter="url(#a)"/></svg>