<svg xmlns="http://www.w3.org/2000/svg" width="500" height="500" viewBox="-100 -100 200 200"><defs><clipPath id="c"><path d="m20.32 4.79-.25-.21-.26-.21-.27-.22-.29-.23-.31-.23-.31-.23-.33-.24-.34-.23-.36-.24-.36-.24-.38-.23-.39-.24-.41-.23-.41-.23-.42-.23-.45-.3-.47-.3-.48-.29-.5-.28-.51-.28-.53-.26-.54-.26-.56-.24-.58-.23-.59-.23-.6-.2-.61-.2-.63-.18-.64-.16-.65-.15-.66-.14-.67-.11-.68-.11-.68-.08-.7-.07-.7-.06-.7-.04-.72-.02H.67l-.72.01-.72.02-.72.04-.72.06-.72.07-.73.08-.71.1-.72.11-.71.12-.71.13-.71.15-.69.15-.7.17-.68.17-.68.19-.66.18-.66.2-.65.2-.64.21-.63.21-.62.21-.61.22-.59.22-.58.22-.57.22-.56.22-.55.22-.54.22-.52.22-.52.22-.5.22-.5.22-.49.22-.47.22-.46.21-.46.22-.44.21-.43.21-.41.21-.41.21 2.12 1.17.35-.04.36-.04.37-.04.38-.05.4-.06.41-.05.42-.06.44-.06.44-.06.46-.07.46-.06.48-.07.49-.07.5-.08.51-.07.53-.08.53-.08.55-.07.56-.09.58-.08.58-.08.59-.08.6-.08.61-.08.62-.08.63-.08.63-.07.64-.07.65-.07.65-.07.65-.06.66-.06.66-.05.66-.05.67-.04.66-.03.66-.03.67-.03.66-.02.66-.01h1.31l.64.01.65.02.64.03.63.03.63.05.62.05.61.06.61.06.6.08.59.08.58.09.57.09.56.11.55.11.55.11.53.13.52.13.52.13.5.14.49.14.48.15.47.15.42.11.41.11.41.12.39.11.39.12.37.11.37.12.35.11.35.12.33.11.32.11.31.11.3.11.28.1.28.1"/></clipPath><clipPath id="b"><path d="m-19.37 4.55.2-.18.2-.18.22-.18.23-.2.25-.19.25-.21.26-.2.28-.21.29-.21.3-.22.3-.21.32-.22.33-.21.34-.22.35-.22.37-.26.38-.26.4-.26.41-.26.43-.26.44-.26.46-.25.47-.24.48-.24.5-.23.52-.22.52-.21.55-.2.55-.19.57-.18.59-.17.59-.16.61-.14.62-.12.63-.12.64-.1.65-.08.67-.07.67-.05.68-.04.68-.03.7-.01.7.01.7.02.71.04.72.05.72.06.71.08.72.09.72.1.72.12.72.12.72.14.71.15.71.16.7.16.7.17.69.18.68.19.67.19.67.2.66.19.64.21.64.2.62.2.61.21.61.21.59.21.59.21.58.21.57.21.55.22.55.21.54.22.53.21.51.21.5.21.5.21.48.21-.57 1.54-.26.01h-.88l-.33-.01-.34-.01-.35-.01-.38-.02-.38-.02-.4-.02-.42-.03-.43-.03-.44-.03-.46-.04-.47-.04-.49-.04-.51-.04-.52-.04-.54-.05-.55-.05-.57-.05-.58-.05-.59-.06-.61-.05-.62-.06-.64-.05-.65-.05-.65-.06-.67-.05-.68-.05-.68-.05-.69-.04-.7-.05-.71-.04-.71-.03-.71-.04-.72-.03-.72-.03-.72-.02-.72-.01-.71-.01-.72-.01h-1.42l-.7.01-.7.02-.69.03-.68.03-.67.03-.67.05-.65.04-.64.06-.62.06-.62.07-.6.08-.58.08-.57.09-.55.09-.54.1-.52.11-.5.11-.48.11-.47.12-.45.12-.43.09-.42.09-.41.08-.39.09-.38.09-.37.09-.36.09-.34.09-.33.1-.32.09-.3.08-.29.09-.28.09-.26.08-.24.08"/></clipPath><filter id="a"><feTurbulence baseFrequency=".05" numOctaves="3" result="noise" type="noise"/><feDisplacementMap in="SourceGraphic" in2="noise" scale="2"/></filter></defs><rect width="100%" height="100%" x="-100" y="-100" fill="#FFE4E1"/><path fill="#C8A2C8" stroke="#000" stroke-linejoin="round" stroke-width="1.667" d="m56.33-.15-.1-.01-.04 2.61.07 1.3-.23 3.29.13-1.31L56 9.74l-.3 2.68.14-1 .02 1.03-.47 4.17.18-1-.5 3.47-.23 1.54.11.76-.21.43-.22 1.08-.02.23-.47 4.06-.46 1.35-.01.54-.27 1.51-.23 1.06-.43 2.72-.77 2.68.29-1.53-.7 3.51-.83 2.44.22-.19-.25.79-.24.77-.07.37-1.32 3.98.22-.67-1.28 3.73-.25.65.03.01-1.04 2.3.56-1.21-.92 2.62-.94 1.83-.46.79-.54 1.92-.32.6-.6.62.1-.02-.71 1.64-1.02 1.91-.12.43-.94 1.41-1.8 3.2.9-1.58-.53.9-.54.98-1.45 1.95-1.49 2.19.54-.45-.43.61-1.91 2.33.97-.99-2.19 2.55-.89.79-.35.85-1.93 2.18.36-.2-.75.22-1.17 1.26.02.22-1.57 1.63-.95.96.7-.73-1.74 1.19-.5.4-2 1.47-.99.91.03-.01-1.17.68-.9.47-.01.16.03-.09-1.28.97-1.31.49-.72.65-.19.03-1.56.49-.54.34-.28.24-.82.13-1.2.59-.63.33-1.38.06-.83.63-2.35.08 1.41.02-2.23.38-1.12.25-.02.06-.42-.02-2.08.04.31-.11-2.38.28.43-.36-1.14.26-2.1-.46.23.28-.08-.12-.86-.28-1.94-.05-1.47-.46.2.43-1.08-.22-1.21-.43-.97-.35-.55-.46-.8-.32-1.53-.21-.02-.24-2.38-.97-.35-.14-.37-.28-1.01-.74-.64-.39-.93-.23-.07-.05-.95-.55-1.23-1.05-.94-.84-1.2-.74-.08-.07-1.32-1.3-.45-.34-.38-.09-1.47-1.35-.38-.23-1.64-1.76-.6-.55-.44-.55-1.19-1.08.84.69-1.88-1.98-.73-1.32.14.36-1.3-1.59-.38-.39-.97-1.52-.64-.5-1.53-2.64.57.82-1.39-2.26-.67-.97-.33-.72-.32-.43-.95-1.7-.63-1.29.25.74-1.46-2.85-.71-1.3-.63-1.07.21-.12-1.06-2.02-.75-1.37-.22-.88-.8-2.04-.17-.41-.48-1.46-.34-.34-.58-2.35-.68-2.04.07.73-.3-.62-.95-3.86-.1.09-.72-3.21-.45-1.05-.43-1.42-.03-.75-.06-.04-.81-2.88-.09-.56.12-.16-.76-3.57-.12-1.22-.44-2.74-.08-.11-.14-.49-.65-3.74.34 1.31-.25-1.66-.16-.81-.32-3.25-.39-3.06.08-.95-.24-1.01-.11-.96V8.46l-.18-2.53.06 2.21V2.98l.11 1.7-.26-4.27-.04-1.31.11-2.31.13.34-.19-1.6.07-.78.18-3.12.07-.96.11-1.84.2-2.87-.07.05.34-1.46v-.87l.18-1.06.22-1.95.04-1.67.65-3.73.13-.21-.18.72.22-1.64.24-1.8.66-3.12.31-.89.08-1.27.18-.31.81-3.46-.13-.05.48-1.42-.2.69.59-2.11.12-.66 1.3-4.86-.36 1.55 1.42-4.69-.41 1.24.23-.11 1.04-3.59-.41 1.4 1.66-4.52.76-1.55-.68 1.61.73-1.91.48-.78.99-2.49-.12.41 1.54-3.31-.26.66 1.01-2.04.56-.91-.15-.33 2-3.49.42-.49-.71 1.26 2.13-3.39.29-.43-.02.18 1.74-2.92.3-.3-.13.47.17-.55 1.13-1.17.66-1.08 1.22-1.53.83-1.02 1.27-1.61.8-.85.64-.65.39-.36 1.13-1.11.28-.15.04.14 1.78-1.94.74-.26 1.39-1.09h-.44l1.18-.68.71-.47.1.1 1.88-1.75-.39.6 1.9-1.58.44.16 1.26-1.06-.26.46 2.17-1.25.35.07.76-.34 1.19-.66 1.79-.8-.18.08.13.28 2.62-.95-.55.15 1.59-.41 1.13-.13.57-.23.28.03 1.09-.16.3-.1 2.98.14.37-.44 1.31.41.16-.13 1.28.22.64-.3-.76.01 2.37.13 1.06.26 1.11.34-.67-.17 3.08.9.37-.25-.06.27-.08-.18 1.14.61 2.34.51-.09.18-.11.18 3.1 1.06.3.38 1.05.59.69.43.06-.27 1.18.62.69.76 1.46 1.08-.14-.49-.06.1 2.19 1.76 1.25 1.12-.51-.4 2.41 1.88.19.03-.44-.22 1.29 1.23.71.81.68.23.81 1.07 1.08.97.77 1.15 1.42 1.47-.13.33 1.08.96.91 1.28-.41-.76.73 1.15.62.71 1.45 2.12-.04.36 1.75 2.33-.94-1.18 1.3 1.94 1.44 2.64 1.04 1.63.03-.26.74 1.93.08.05 1.18 2.47.46 1.13.2.22.92 1.72.21 1.08.29.06.48 1.78.91 2.31-.01.08 1.22 2.83.08.52.31.86.32.74.52 1.46.48 1.8.59 1.91-.66-1.78.74 2.27.2 1 1.12 4.71.17.89.36 1.02-.05-.69.45 2.63-.03.06.28 1.83.44 2.1.45 2.37.36 1.51-.04.96.27 1.86.15 1.08.2 1.46.02 1.47.23 2.13.4 2.89-.07-.54-.03-.95.14 3.34.1 2.25.01.66.07 2.71.07 1.76.16.25v1.81l-.1-.01" filter="url(#a)"/><path fill="#fff" d="m-19.37 4.55.2-.18.2-.18.22-.18.23-.2.25-.19.25-.21.26-.2.28-.21.29-.21.3-.22.3-.21.32-.22.33-.21.34-.22.35-.22.37-.26.38-.26.4-.26.41-.26.43-.26.44-.26.46-.25.47-.24.48-.24.5-.23.52-.22.52-.21.55-.2.55-.19.57-.18.59-.17.59-.16.61-.14.62-.12.63-.12.64-.1.65-.08.67-.07.67-.05.68-.04.68-.03.7-.01.7.01.7.02.71.04.72.05.72.06.71.08.72.09.72.1.72.12.72.12.72.14.71.15.71.16.7.16.7.17.69.18.68.19.67.19.67.2.66.19.64.21.64.2.62.2.61.21.61.21.59.21.59.21.58.21.57.21.55.22.55.21.54.22.53.21.51.21.5.21.5.21.48.21-.57 1.54-.26.01h-.88l-.33-.01-.34-.01-.35-.01-.38-.02-.38-.02-.4-.02-.42-.03-.43-.03-.44-.03-.46-.04-.47-.04-.49-.04-.51-.04-.52-.04-.54-.05-.55-.05-.57-.05-.58-.05-.59-.06-.61-.05-.62-.06-.64-.05-.65-.05-.65-.06-.67-.05-.68-.05-.68-.05-.69-.04-.7-.05-.71-.04-.71-.03-.71-.04-.72-.03-.72-.03-.72-.02-.72-.01-.71-.01-.72-.01h-1.42l-.7.01-.7.02-.69.03-.68.03-.67.03-.67.05-.65.04-.64.06-.62.06-.62.07-.6.08-.58.08-.57.09-.55.09-.54.1-.52.11-.5.11-.48.11-.47.12-.45.12-.43.09-.42.09-.41.08-.39.09-.38.09-.37.09-.36.09-.34.09-.33.1-.32.09-.3.08-.29.09-.28.09-.26.08-.24.08" filter="url(#a)" transform="translate(27.86 -31.95)"/><path fill="#fff" d="m20.32 4.79-.25-.21-.26-.21-.27-.22-.29-.23-.31-.23-.31-.23-.33-.24-.34-.23-.36-.24-.36-.24-.38-.23-.39-.24-.41-.23-.41-.23-.42-.23-.45-.3-.47-.3-.48-.29-.5-.28-.51-.28-.53-.26-.54-.26-.56-.24-.58-.23-.59-.23-.6-.2-.61-.2-.63-.18-.64-.16-.65-.15-.66-.14-.67-.11-.68-.11-.68-.08-.7-.07-.7-.06-.7-.04-.72-.02H.67l-.72.01-.72.02-.72.04-.72.06-.72.07-.73.08-.71.1-.72.11-.71.12-.71.13-.71.15-.69.15-.7.17-.68.17-.68.19-.66.18-.66.2-.65.2-.64.21-.63.21-.62.21-.61.22-.59.22-.58.22-.57.22-.56.22-.55.22-.54.22-.52.22-.52.22-.5.22-.5.22-.49.22-.47.22-.46.21-.46.22-.44.21-.43.21-.41.21-.41.21 2.12 1.17.35-.04.36-.04.37-.04.38-.05.4-.06.41-.05.42-.06.44-.06.44-.06.46-.07.46-.06.48-.07.49-.07.5-.08.51-.07.53-.08.53-.08.55-.07.56-.09.58-.08.58-.08.59-.08.6-.08.61-.08.62-.08.63-.08.63-.07.64-.07.65-.07.65-.07.65-.06.66-.06.66-.05.66-.05.67-.04.66-.03.66-.03.67-.03.66-.02.66-.01h1.31l.64.01.65.02.64.03.63.03.63.05.62.05.61.06.61.06.6.08.59.08.58.09.57.09.56.11.55.11.55.11.53.13.52.13.52.13.5.14.49.14.48.15.47.15.42.11.41.11.41.12.39.11.39.12.37.11.37.12.35.11.35.12.33.11.32.11.31.11.3.11.28.1.28.1" filter="url(#a)" transform="translate(-27.18 -27.69)"/><g fill="none" stroke="#000" transform="translate(27.86 -31.95)"><path stroke-linejoin="round" stroke-width="1.667" d="m-20.64 5.77.07-.07.08-.09.1-.09.1-.11.13-.12.13-.13.15-.14.15-.15.18-.16.18-.16.2-.18.2-.18.22-.18.23-.2.25-.19.25-.21.26-.2.28-.21.29-.21.3-.22.3-.21.32-.22.33-.21.34-.22.35-.22.37-.26.38-.26.4-.26.41-.26.43-.26.44-.26.46-.25.47-.24.48-.24.5-.23.52-.22.52-.21.55-.2.55-.19.57-.18.59-.17.59-.16.61-.14.62-.12.63-.12.64-.1.65-.08.67-.07.67-.05.68-.04.68-.03.7-.01.7.01.7.02.71.04.72.05.72.06.71.08.72.09.72.1.72.12.72.12.72.14.71.15.71.16.7.16.7.17.69.18.68.19.67.19.67.2.66.19.64.21.64.2.62.2.61.21.61.21.59.21.59.21.58.21.57.21.55.22.55.21.54.22.53.21.51.21.5.21.5.21.48.21.47.2.46.2.44.2.44.2.42.19.41.19.4.19.39.18.37.18.37.18" filter="url(#a)"/><path stroke-linejoin="round" stroke-width="2.222" d="m-20.36 6.31.09-.02.11-.03.12-.04.14-.04.15-.06.17-.06.19-.06.2-.07.22-.07.23-.08.24-.08.26-.08.28-.09.29-.09.3-.08.32-.09.33-.1.34-.09.36-.09.37-.09.38-.09.39-.09.41-.08.42-.09.43-.09.45-.12.47-.12.48-.11.5-.11.52-.11.54-.1.55-.09.57-.09.58-.08.6-.08.62-.07.62-.06.64-.06.65-.04.67-.05.67-.03.68-.03.69-.03.7-.02.7-.01H-.3l.72.01.71.01.72.01.72.02.72.03.72.03.71.04.71.03.71.04.7.05.69.04.68.05.68.05.67.05.65.06.65.05.64.05.62.06.61.05.59.06.58.05.57.05.55.05.54.05.52.04.51.04.49.04.47.04.46.04.44.03.43.03.42.03.4.02.38.02.38.02.35.01.34.01.33.01h.88l.26-.01.25-.01.24-.02.21-.02.21-.02.19-.03.17-.03.16-.03.15-.04.13-.05.12-.04" filter="url(#a)"/><circle cx="2.604" cy="1.271" r="4.784" clip-path="url(#b)" filter="url(#a)"/><circle cx="-.116" cy="-1.174" r="3.782" clip-path="url(#b)" filter="url(#a)"/><circle cx="-1.361" cy="2.386" r="3.882" clip-path="url(#b)" filter="url(#a)"/><circle cx="1.739" cy=".381" r="4.598" clip-path="url(#b)" filter="url(#a)"/><circle cx="1.884" cy=".536" r="4.91" clip-path="url(#b)" filter="url(#a)"/><circle cx="-1.711" cy="1.781" r="3.536" clip-path="url(#b)" filter="url(#a)"/><circle cx=".099" cy="1.916" r="4.642" clip-path="url(#b)" filter="url(#a)"/><circle cx="-1.036" cy="-2.074" r="3.646" clip-path="url(#b)" filter="url(#a)"/><circle cx="-.406" cy="-2.219" r="4.76" clip-path="url(#b)" filter="url(#a)"/><circle cx="2.389" cy="-1.609" r="3.26" clip-path="url(#b)" filter="url(#a)"/></g><g fill="none" stroke="#000" transform="translate(-27.18 -27.69)"><path stroke-linejoin="round" stroke-width="2.222" d="m21.96 6.32-.09-.09-.11-.11-.13-.12-.14-.14-.15-.15-.18-.16-.19-.18-.2-.18-.22-.2-.23-.2-.25-.21-.26-.21-.27-.22-.29-.23-.31-.23-.31-.23-.33-.24-.34-.23-.36-.24-.36-.24-.38-.23-.39-.24-.41-.23-.41-.23-.42-.23-.45-.3-.47-.3-.48-.29-.5-.28-.51-.28-.53-.26-.54-.26-.56-.24-.58-.23-.59-.23-.6-.2-.61-.2-.63-.18-.64-.16-.65-.15-.66-.14-.67-.11-.68-.11-.68-.08-.7-.07-.7-.06-.7-.04-.72-.02H.67l-.72.01-.72.02-.72.04-.72.06-.72.07-.73.08-.71.1-.72.11-.71.12-.71.13-.71.15-.69.15-.7.17-.68.17-.68.19-.66.18-.66.2-.65.2-.64.21-.63.21-.62.21-.61.22-.59.22-.58.22-.57.22-.56.22-.55.22-.54.22-.52.22-.52.22-.5.22-.5.22-.49.22-.47.22-.46.21-.46.22-.44.21-.43.21-.41.21-.41.21-.4.2-.38.2-.38.19-.36.2-.35.19-.35.18-.33.18-.32.18-.31.17-.3.17" filter="url(#a)"/><path stroke-linejoin="round" stroke-width="2.222" d="m21.7 7.13-.11-.03-.13-.05-.14-.05-.17-.06-.18-.07-.19-.07-.22-.08-.22-.09-.25-.09-.25-.1-.28-.1-.28-.1-.3-.11-.31-.11-.32-.11-.33-.11-.35-.12-.35-.11-.37-.12-.37-.11-.39-.12-.39-.11-.41-.12-.41-.11-.42-.11-.47-.15-.48-.15-.49-.14-.5-.14-.52-.13-.52-.13-.53-.13-.55-.11-.55-.11-.56-.11-.57-.09-.58-.09-.59-.08-.6-.08-.61-.06-.61-.06-.62-.05-.63-.05-.63-.03-.64-.03-.65-.02-.64-.01H.71l-.66.01-.66.02-.67.03-.66.03-.66.03-.67.04-.66.05-.66.05-.66.06-.65.06-.65.07-.65.07-.64.07-.63.07-.63.08-.62.08-.61.08-.6.08-.59.08-.58.08-.58.08-.56.09-.55.07-.53.08-.53.08-.51.07-.5.08-.49.07-.48.07-.46.06-.46.07-.44.06-.44.06-.42.06-.41.05-.4.06-.38.05-.37.04-.36.04-.35.04-.33.04-.32.03-.31.03-.29.02-.28.03-.27.01-.26.02-.24.01-.24.01h-.22" filter="url(#a)"/><circle cx="17.721" cy="7.092" r="3.984" clip-path="url(#c)" filter="url(#a)"/><circle cx="15.751" cy="5.482" r="4.036" clip-path="url(#c)" filter="url(#a)"/><circle cx="16.836" cy="6.227" r="3.81" clip-path="url(#c)" filter="url(#a)"/><circle cx="15.646" cy="5.562" r="3.368" clip-path="url(#c)" filter="url(#a)"/><circle cx="19.301" cy="6.217" r="4.452" clip-path="url(#c)" filter="url(#a)"/><circle cx="18.611" cy="3.677" r="3.444" clip-path="url(#c)" filter="url(#a)"/><circle cx="17.956" cy="7.012" r="3.23" clip-path="url(#c)" filter="url(#a)"/><circle cx="17.576" cy="7.102" r="4.408" clip-path="url(#c)" filter="url(#a)"/><circle cx="18.581" cy="3.707" r="4.134" clip-path="url(#c)" filter="url(#a)"/><circle cx="15.271" cy="3.387" r="4.066" clip-path="url(#c)" filter="url(#a)"/></g><g fill="none" stroke="#556B2F" stroke-linejoin="round" stroke-width="2"><path d="m34.87-74.84-.12-.19.11.37.06.53-.16.46-.48.25-.84-.01-1.22-.24-1.61-.47-2.06-.74-2.57-1.06-3.15-1.45-3.71-1.87-4.23-2.27-4.76-2.65-5.36-3.03-6.16-3.46m-20.39 2.7.54-.35.8-.61.82-.57.79-.5.7-.41.6-.32.47-.2.33-.1.16.01-.03.14-.27.29-.58.48-.94.72-1.32.97-1.66 1.18-1.98 1.34-2.3 1.51" filter="url(#a)"/><path d="m40.77-65.53.69 1.06.43.77.37.77.32.78.26.68.15.51v.29l-.17.04-.34-.19-.5-.41-.68-.63-.86-.89-1.05-1.18-1.28-1.54-1.55-1.95-1.87-2.42-2.22-2.91-2.56-3.39-2.86-3.83-2.94-4.09" filter="url(#a)"/><path d="m33.96-76.12.45.65.12.31.06.4-.02.49-.19.44-.45.32-.75.15-1.07-.02-1.38-.18-1.71-.37-2.08-.62-2.49-.89-2.93-1.19-3.39-1.48-3.87-1.75-4.33-2.05-4.8-2.38-5.21-2.74-5.68-3.05" filter="url(#a)"/><path d="m-31.69-78.94 1.19-1.28 1.26-.97 1.43-.82 1.63-.76 1.84-.76 2.06-.78 2.28-.83 2.46-.88 2.57-.93 2.62-.93 2.62-.92 2.61-.89 2.59-.88 2.6-.87 2.64-.84 2.76-.77 2.94-.64m27.55 17.57.53.71.38.49.49.67.59.86.6.92.57.89.49.81.41.73.32.62.2.49.06.31-.11.09-.3-.14-.49-.38-.66-.61-.85-.85-1.04-1.13-1.28-1.43-1.55-1.77-1.84-2.13-2.15-2.51-2.39-2.84-2.42-2.99m25.39 38.19.32.88.25.96.09.7-.11.33-.27.08-.41-.06-.54-.22-.71-.5-.95-.94-1.22-1.49-1.52-2.05-1.8-2.57-2.08-3.02-2.34-3.44-2.61-3.9-2.92-4.43-3.26-5.05-3.58-5.69-3.84-6.28" filter="url(#a)"/><path d="m37.26-71.62.36.74.53.87.55.91.6 1.01.57.99.45.84.29.6.08.34-.11.08-.3-.19-.52-.48-.73-.81-.97-1.14-1.2-1.47-1.43-1.79-1.64-2.11-1.88-2.46-2.21-2.9-2.59-3.42m-55.7-.4.81-.75.59-.5.65-.55.71-.59.67-.53.55-.41.41-.27.28-.12.18.01.07.13-.03.24-.14.37-.28.53-.46.73-.66.96-.87 1.2-1.11 1.46-1.36 1.71-1.61 1.98-1.91 2.31-2.23 2.68-2.55 3.07-2.9 3.45" filter="url(#a)"/><path d="m38.03-70.11 1.19 1.94.91 1.62.53 1.13.22.76-.02.55-.22.39-.41.24-.62.06-.84-.15-1.07-.35-1.32-.55-1.55-.74-1.83-.94-2.11-1.14-2.43-1.39-2.78-1.66-3.12-1.96-3.46-2.27-3.77-2.57-4.08-2.85-4.42-3.13-4.82-3.44-5.14-3.81" filter="url(#a)"/><path d="m42.66-62.18.87 1.84.56 1.19.42.9.33.73.22.6.13.48.04.34-.09.13-.23-.14-.41-.48-.6-.85-.8-1.23-1.01-1.62-1.24-2.04-1.51-2.52-1.82-3.1-2.2-3.75-2.59-4.4" filter="url(#a)"/><path d="m33.96-76.12.27.64-.42.28-.85.35-1.3.44-1.87.43-2.55.31-3.27.14-4-.03-4.73-.19-5.49-.36-6.3-.59-7.23-.88-8.21-1.13-9.26-1.22m40.46-12.03.71.68.47.41.2.26.03.24-.14.26-.39.17-.77.02-1.25-.19-1.8-.41-2.4-.62-2.97-.79-3.48-.96-3.95-1.16-4.39-1.38m-11.46.21 1.11-.47.62-.18.63-.14.64-.13.58-.11.46-.04.3.05.12.13-.05.24-.2.33-.37.44-.58.56-.86.69-1.21.83-1.59.98-1.97 1.12-2.32 1.22-2.63 1.34-2.94 1.49-3.28 1.65" filter="url(#a)"/><path d="m45.63-55.56.3.56.29 1.02.16.95-.01.71-.24.39-.47.07-.71-.23-.95-.52-1.19-.8-1.46-1.1-1.75-1.41-2.04-1.71-2.35-1.99-2.66-2.28-2.96-2.6-3.28-3.01L22.7-71l-3.94-4-4.31-4.48-4.69-4.92-5.07-5.33m28.32 12.32.23.51.5.63.44.53.36.46.3.45.26.46.18.4.04.28-.13.09-.34-.13-.57-.37-.83-.66-1.13-1.01-1.46-1.39-1.77-1.79-2.1-2.17-2.48-2.6-2.96-3.14" filter="url(#a)"/><path d="m46.4-53.72.38 1.55-.31 1.01-.94.74-1.6.43-2.26.17-2.92-.05-3.57-.28-4.25-.53-4.95-.79-5.67-1.02-6.41-1.17-7.15-1.28-7.9-1.45-8.68-1.79-9.49-2.27-10.46-2.51m47.81-27.62 1.04.69 1 .75.94.72.92.72.96.77 1 .82.97.79.86.7.68.54.47.37.27.22.1.07-.06-.06-.25-.22-.55-.46-.93-.75m-55.87 4.36.72-.75.67-.67.67-.63.68-.6.68-.6.71-.6.69-.59.64-.53.53-.43.41-.31.27-.19.14-.07.01.05-.12.2-.3.36-.5.58-.76.84-1.05 1.15-1.35 1.46-1.66 1.77-1.94 2.04-2.18 2.22" filter="url(#a)"/><path d="m45.63-55.56.28.53.24.93.09.82-.14.52-.4.13-.7-.28-1.01-.68-1.32-1.05-1.63-1.44-1.97-1.83-2.3-2.26-2.64-2.67-3-3.08-3.39-3.48-3.83-3.93-4.3-4.53-4.85-5.24-5.62-5.96" filter="url(#a)"/><path d="m17.28-90.74.35.28.02.34-.27.53-.66.67-1.14.76-1.67.87-2.2 1.02-2.75 1.22-3.35 1.39-3.99 1.51-4.69 1.58L-8.44-79l-6.04 1.53-6.7 1.57-7.54 1.94M19.9-89.2l.74.61.06.41-.2.65-.44.89-.82 1.02-1.29 1.06-1.82 1.07-2.35 1.1-2.89 1.15-3.42 1.27-3.96 1.43-4.52 1.59-5.1 1.74-5.7 1.88-6.36 2-7.1 2.21-7.92 2.54" filter="url(#a)"/><path d="m6.91-94.82.44.17 1.21.41 1.17.48 1.12.55 1.23.66 1.37.76 1.48.82 1.53.85 1.51.83 1.44.8 1.32.74 1.16.65.96.54.8.44.67.38.54.33.18.11" filter="url(#a)"/><path d="m19.21-89.96.77.7.67.49.55.39.53.42.5.45.39.41.19.28-.08.11-.36-.07-.64-.23-.9-.37-1.15-.51-1.43-.66-1.8-.84-2.22-1.06-2.64-1.32-3.1-1.62" filter="url(#a)"/><path d="m12.83-92.77 1.93.82.7.65.02.59-.49.61-.93.7-1.36.84-1.84 1.02-2.33 1.17-2.87 1.32-3.38 1.47L-1.61-82l-4.41 1.68-5.01 1.76-5.69 1.9-6.45 2.06-7.12 2.07m19.7-21.49.19.08.89-.05 1.28-.11 1.45-.11 1.55-.06 1.59-.02 1.6.02 1.63.05 1.66.08 1.65.09 1.59.07 1.43.04 1.21.02.94-.01.67-.04.35-.09.12-.1m39.7 47.04.35.93.34 1.1.24.93.12.68.03.52-.04.48-.1.41-.18.24-.31-.06-.47-.46-.65-.86-.83-1.23-1.01-1.59-1.2-1.92-1.4-2.27-1.61-2.67-1.82-3.13-2.03-3.61-2.23-4.12-2.41-4.61-2.59-5.08-2.97-5.71" filter="url(#a)"/><path d="m37.26-71.62.14.66-.13.64-.57.56-.99.54-1.49.45-2.09.21-2.76-.12-3.46-.43-4.15-.7-4.87-.95-5.62-1.2-6.4-1.46-7.18-1.78-7.92-2.14-8.67-2.51M6.91-94.82l.41.13 1.13.32 1.02.3.89.31.9.34.96.38.99.4.94.39.82.35.65.29.4.19.03.01-.43-.21-.84-.42-.99-.55" filter="url(#a)"/><path d="m41.81-63.9.23.36.42.91.5 1.07.49 1.05.43.92.34.73.21.5.07.26h-.09l-.25-.27-.42-.58-.6-.93-.83-1.38-1.1-1.92-1.4-2.48-1.65-2.96-1.75-3.22m12.5 24.72.25.87.04.93-.27.66-.6.33-.9.1h-1.18l-1.46-.1-1.79-.31-2.15-.64-2.54-1.05-2.95-1.45-3.35-1.8-3.75-2.08L24.1-54l-4.57-2.59-4.98-2.91-5.41-3.3-5.85-3.74-6.27-4.21-6.68-4.67-7.11-5.07m62.19 23.85.19.76.17.71.12.77-.01.66-.19.43-.42.11-.68-.24-.95-.59-1.21-.92-1.5-1.24-1.77-1.59-2.05-1.93L34.77-62l-2.65-2.61-2.98-2.95-3.35-3.33-3.77-3.83-4.22-4.42-4.74-5.02-5.13-5.5m24.95 12.58.85.85.49.55.29.41.24.43.2.46.1.42-.06.29-.25.13-.46-.06-.69-.27-.96-.5-1.28-.81-1.64-1.15-2.01-1.51-2.39-1.88-2.73-2.22-3.02-2.57-3.22-2.91-3.36-3.22" filter="url(#a)"/><path d="m41.84-64.16.52 1.33.38.99.26.82.11.57-.1.31-.3.05-.52-.2-.75-.42-.97-.66-1.23-.94-1.53-1.28-1.85-1.68-2.21-2.11-2.58-2.57-2.94-3-3.29-3.42-3.59-3.83-3.78-4.26-3.94-4.68m-.7-3.63 2.16.88 1.37.8 1.14.81 1.12.87 1.17.96 1.24 1.07 1.29 1.15 1.32 1.21 1.34 1.24 1.34 1.26 1.31 1.23 1.27 1.17 1.17 1.07 1.05.94.9.8.74.63.57.45.41.27.29.15.28.22" filter="url(#a)"/><path d="m19.21-89.96.74.7.56.47.37.37.29.42.23.47.08.47-.14.39-.42.29-.72.2-1 .11-1.29.06-1.56.02-1.84-.01-2.16-.03-2.51-.08-2.9-.15-3.3-.26-3.73-.38-4.16-.53-4.63-.65-5.2-.66" filter="url(#a)"/><path d="m21.16-88.51-22.68-.02-11.69 2.85-2.49 2.49 2.52 2.29 4.56 1.75 4.59.88 3.01.13.57-.24-1.46-.42-1.97-.59-.74-.83 1.26-.99 2.65-.9 2.65-.43 1.71.37 1.02 1.27 1.19 1.67 1.37.76.07-1.67-2.07-4.05-.71-3.56 16.84-.37" filter="url(#a)"/><path d="M10.69-93.64 7.4-92.23l-8.33 4.67-4.86 4.27 1.39 1.9 4.75.08 4.88-.27 3.56.56 2.29 1.77 1.38 2.79.55 3.16-.37 2.71-.99 1.58-.84.23-.01-.87.55-1.51L11-73l-3.09-2.08-6.57-2.19-8.84-2-8.47-1.63-5.39-1.7-.87-2.62 3.49-3.84 5.17-3.5" filter="url(#a)"/><path d="m-5.85-95 16.41 29.03-7.52.88-2.76-.5.79 1.16.36.12-1.85-2.38-3.8-4.16-4.23-4.24-2.85-2.94-.24-.99 2.56.89 4.59 2.22 5.34 2.69 4.82 2.29 3.2 1.3.8.15-1.79-.82-3.02-1.32-.94-.78 3.26 1.48-2.38 4.27-44.91-.55" filter="url(#a)"/><path d="m-29.62-81.4-1.5 12.43 14.37 2.99 12.29-3.1 6-5.42 2.7-4.05 2.17-1.82 2.56-.56 3.09-.03 3.68.84 3.94 2.4 3.11 3.96.93 4.31-1.56 2.92-2.59.22-2.15-2.88-4.57-5.98-15.03-8.19-23.18-2.11" filter="url(#a)"/><path d="m26.69-84.12 14.88 26.47 2.05 7.08-5.73-.38-7.58-3-4.49-2.87-.84-1.51-.23-.64-2.99-1.18-6.78-2.73L6.17-67l-7.79-4.48-4.34-3.81-.21-2.84 3.07-2.26 4.5-2.15 3.45-2.11-.41-1.98-5.11-2.27-3.92-3.15L5.8-95.16" filter="url(#a)"/><path d="m-10.77-93.94 9.14 14.39 15.88 13.52 5.69 4.53.31-2.55-.34-5.33-.04-4.77-.45-2.59-1.25-.4-1.46.74-.72.44.1-1.09-.58-2.96-3.64-3.84-8.22-2.36-12.82 1.91-16.74 7.57-14.1 9.53" filter="url(#a)"/><path d="m-24.62-85.73 21.61-1.39 7.2 4.15 4.06 3.9 5.21 3.46 3.93 2.36 1.09.35.04-1.15 1.76-.73 4.08 1.19 3.72 2.51-.99 1.08-8.62-3.24-14.02-7.9-8.98-8.72 11.44-4.96" filter="url(#a)"/><path d="m-5.85-95 11.4 16.23-11.71 3.93-4.45 2.84 4.16 4.28 7.18 4.3 5.96 1.99 2.9-1.45-.38-4.18-2.87-4.95-4.21-3.69-4.69-1.32-4.81.73-5.26 1.05-6.2-1.14-4.94-5.2 1.99-6.39" filter="url(#a)"/><path d="M40.77-65.53 15.49-82.48l-.17-3.05 4.83 2.54 1.97 3.52-3.38 2.64-7.66 1.56-8.79.98-6.56.86-2.38.83 1.83.51 4.65-.14 5.53-.82 4.66-1.2 2.56-1.08-.01-.45-1.99.62-2.31 1.91-.66 2.89 1.73 2.75 2.19.9-1.2-2.62-5.08-8.19 12.72-12.79" filter="url(#a)"/><path d="m21.36-88.12-22-.32-5.84 2.82-1.54 2.21-.67 1.76.56 1.59 1.26.97.82-.22-.07-1.49-.56-2.15-.42-1.93.07-1.12.63-.18 1.27.49 2.3.9 3.78 1.08 5.24 1.06 5.61.66 4.18-.16 1.66-.67-.08.61-.57 4.43-6.21 6.66-39.76-10.93" filter="url(#a)"/><path d="m26.5-84.15-14.75 2.32-4.89 5.18 5.12 5.31 4.68 4.08.21 1.17-3.27-1.97-4.54-3.81-3.97-3.8-2.04-2.26.74-.09 3.54 1.75 5.11 2.41 4.55 1.54 1.91-.42-1.53-2.44-4.04-3.3-4.4-2.57-2.92-.98-1.17.14-.72.37-1.41 1.2-4.78 3.96-33.8 2.6" filter="url(#a)"/><path d="M23.35-86.75 5.13-88.3l-10.24 1.32 1.06 1.57 5.32 1.26 4.21.34L7.4-84l.67.22.17 1.16-.74 1.8-2.62 1.67-4.75.88-5.79-.17-4.73-1.07-1.62-1.57 2.57-1.42 6.43-.42 8.95 1.49 9.84 4.01 9.44 6.29 7.99 7.02 4.77 4.52-1.94-2.34-13.9-12.32-32.78-19.41" filter="url(#a)"/><path d="m-34.4-75.31 38.53-1.81 19.4 4.1 7.3 1.17 1.97.23.28.85-.13 1.54-.54 1.58-1.27 1.26-2.07 1.08-2.52 1.12-2.51 1.03-2.26.39-2.1-.62-2.01-1.21-1.45-.63-.06.82.76 1.5-2.44-.62L3.1-68.72l-17.54-8.68 3.8-16.26" filter="url(#a)"/><path d="M41.81-63.9 13.87-81.84l-3.71-6.37-1.5-2.12-3.94-.29-5.08.82-4.14 1.34-2.12 1.22-.07.61 1.52-.18 2.48-.81 2.73-1.1 2.39-.88 1.75-.11 1.18 1.11.84 2.44.99 3.68 2.34 4.93 5.54 6.42 7.7 6.64-2.03-.78-38.59-25.17" filter="url(#a)"/><path d="m5.8-95.16 24.82 29.61 5.37 2.82-1.46-3.53-5.47-5.4-7.36-5.14-7.07-4.06-5.34-3.03-3.35-2.21-1.99-1.36-1.47-.32-1.28.72-.74 1.38.32 1.44 1.33.92 1.38.1.23-.69-.95-1.16-.05-.85 3.91.75 9.06 4.03 12.47 10.5L51.1-39.72" filter="url(#a)"/><path d="m18.03-90.58 12.93 19.33-1.94-3.31-5.14-4.17-7.11-1.48-7.02.88-4.32 2.27-.94 2.54.94 1.87.77.69-.25-.48-.41-1.26 1.03-1.44 3.45-1.01 5.21-.12 4.71.79 1.08 1.28-5.48 1.1-13.25.51-17.8-.37-11.48-3.58 10.4-14.96" filter="url(#a)"/><path d="m44.3-58.58-2.71.62-12.78-4.7-11.66-3.74-3.56-.08L14.88-65l-.02.57-3.74-.92-5.27-1.77-3.48-2.14-.83-2.73-.36-3.55-2.58-3.94-4.43-3.61-.9-3.02L3.9-87.85l23.64 4.74" filter="url(#a)"/><path d="m-.26-95.76.09 8.57-3.07 4.63 3.57 2.54 3.23 3.36-.33 3.38-1.98 1.62-.93-.99.69-3.15 1.06-3.98.1-3.34L.92-85l-2.18-.75-2.41-.76-2.54-1.4-4.3-.66-9.74 3.66-15.62 11.15" filter="url(#a)"/><path d="m9.32-94.09 20.14 22.58-1.14-2.29-4.95-4.03-3.44-.96-2.75.26-3.54-.72-4.32-2.15-4.43-2.69-4.06-2.15-3.29-1.07-1.45-.09 1.98.67 6.09 1.56 8.12 2.46 5.24 1.49-1.68-3.84 2.13-5.25" filter="url(#a)"/><path d="m35.19-74.45-14.94-3.51-14.09-4.28-7.09-3.18-2.54-1.51.33-.23 1.71.6 1.64 1.38.73 2.24.12 2.88.52 2.87 1.56 2.01 2.03.65 1.09-.37-.63-.39-1.94.2-3.38-.14-8.07-1.61-16.29.62-18.08 12.98" filter="url(#a)"/><path d="m-35.87-73.76 37.25-5.4 18.63 3.94 3.89 3.74-4.26 2.76-7.45 1.37-7.9-.34-6.7-1.44-4.22-1.49-1.12-1.08 1.53-1.17 2.79-2.05 2.62-3.05 1.69-3.15.89-1.95.44-.1-.12 1.12-1.33.99-2.86.46-1.99 2.58L4.28-66.8 50.9-40.72" filter="url(#a)"/><path d="M52.75-33.1 26.48-55.11l-15.82-5.31-4.3-2.7v-3.92l.46-5.25-.2-5.28-.91-3.99-1.57-2.13-2.27-.49-2.77.47-2.55.82-1.3.91.62 1.12 2.37 1.55 3.08 1.94 2.52 1.83 1.08 1.07-.6-.11-2.29-1.07-3.59-1.14-2.4.23 5.44 3.19 20.41 6.75 23.74 11.06" filter="url(#a)"/><path d="m-22.49-87.5 18.88-4.34 5.94-.94-.61.73-3.86 1.17-3.52.96-1.05.97 1.61 1.73 3.46 3.11 4.38 4.56 4.68 5.44 4.54 5.42 3.92 4.6 2.57 3.24.18 1.5-3.29-.56-7.21-2.86-9.92-5.01-9.61-6.29-5.59-6.07.91-4.27 8.13-.63 17.11 7.33L47.3-51.33" filter="url(#a)"/><path d="m26.5-84.15-7.22-3.12-5.13 2.4.75 5.94 2.02 4.7-1.86.74-6.47-2.64-8.37-3.84-6.9-3.1-3.25-1.37.86.46 3.99 1.74 5.19 2.01 4.23 1.17 1.76-.35-.97-1.8-3.06-2.65-4.55-2.77-6.11-1.56-9.4 3.7-22.02 17.29" filter="url(#a)"/><path d="M16.23-91.33 1.79-93.27l-2.97.37.29 3.67 1.12 5.75.97 5.36.69 3.09.62.46.42-1.4-.29-2.18-1.45-2.16-2.28-1.62-1.73-.66.67.69 3.98 2.17 5.89 3.22 3.72 3.3L8.89-71l-6.64 1.23 5.34 5.61 44.8 30.04" filter="url(#a)"/><path d="m-39.3-68.46 50.96 4.35 14.88-.07 4.73.13 2.18.11-.42-1.76-3.4-3.81L24.42-74l-5.06-3.6-3.37-1.9-1.23-.35.38.34 1.12.11 1.27-.71 1.19-1.51.76-1.85-.51-1.57-2.84-.54-6.1 1.76-12.89 6.78-40.02 15.18" filter="url(#a)"/><path d="m-41.72-64.48 52.21 1.45 16.75 4.12-1.22-2.5-5.96-5.18-5.04-3.96-3.63-1.64-3.03.28-2.5 1.38-1.17 1.64 1.16 1.26 3.83.57 5.73-.18 5.86-.84 3.95-1.33.69-1.61-2.38-1.43-3.5-.52-1.64.82 2.44 1.6 6.26 1.8 9.39 6.95 15.91 27.68" filter="url(#a)"/><path d="m-10.59-94.02-3.2 6.49 6.36 2.6 2.46 3.74.97 3.74 1.72 2.49 1.84.84.96-.65.14-1.64.12-1.94.68-1.53 1.08-.69.95.08.64.37.89.19 2.05.01 3.66.23 4.46.8 3.23.98-.26.1-4.52-1.33-6.54-1.2-4.27 2.47-4.34 7.48-38.21 2.42" filter="url(#a)"/><path d="M50.9-40.72 31.07-62.54l.71 1.53-4.28 1.67-9.61.02-8.76-.3-4.22-.56-.14-1.6 1.31-3.11.13-4.24-2.43-4.38-4.96-3.5-6.4-2.11-6.32-.88-4.84-.16-2.46.12.4.29 3.58.7 7.04 1.36 10.17 2.03 11.62 2.19 10.57 1.49 8.99.89 4.02-3.36" filter="url(#a)"/><path d="M45.63-55.56 4.03-67.04l.59-8.13 5.4-1.76.34-.05-3.45-.33-3.04.6.65 2.96 4.85 4.86 6.6 4.55 4.45 2.01-.38-1.21-5.02-3.49-7.7-4.59-8.76-5.24-4.28-5.25 24.93-7.85" filter="url(#a)"/><path d="M38.97-68.93 8.58-77.79l3.51-.31 5.17.89.09-1.4-2.19-2.68-1.33-1.66.73.86 2.6 3.36 3.51 4.31 2.79 2.97.02-.1-4.22-3.11-8.14-4.13-9.67-2.43-8.2.76-6.15 2.97-6.9.74 3.21-14.75" filter="url(#a)"/><path d="m38.97-68.93 4.44 12.74-4.97-6.04-8.31-7.23-8.3-4.84-5.45-2.19-1.77.01.53 1.2.63 1.1-.81.19-2.3-.59-2.53-.54-1.19.32.79 1.47 1.98 2.63 1.39 3.8-.95 4.28-3.41 1.73-5.1-5.82-28.26-19.02" filter="url(#a)"/><path d="M49.75-44.92 22.62-66.06l-3.01-5.72-3.97-4.96-5.52-3.79-4.02-2.09-1.51-.82-.05-.29.2-.31.49-.24 1.85.66 3.39 2.37 2.31 3.57-4.07 2.59-14.38-.16-20.05-.57-9.98 2.23" filter="url(#a)"/><path d="m-31.69-78.94 46.15 11.28 9.03-5.63-1.88-5.38-3.63-.14-3.47 4.07-3.12 5.2-2.18 3.72-.45 1.1 1.39-1.33L12.3-69l1.06-3.72-1.51-3.88-4.02-3.69-4.61-3.3-2.4-2.7 1.69-1.85 5.34-.59 6.46 1.12 4.53 2.85-1.48 2.04L-5.85-95m59.92 58.74.13.87.11.76.09.84.09 1.04.08 1.27.06 1.49.05 1.67.04 1.73.05 1.71.06 1.61.09 1.48.12 1.39.11 1.36.1 1.4.09 1.52.14 1.79" filter="url(#a)"/><path d="m-13.62-87.65.79-.67.89-.86.83-.62.75-.33.74-.22.76-.28.78-.41.79-.52.77-.59.73-.61.7-.54.72-.39.85-.31 1.05-.42 1.25-.67.96-.67M-5-95.2l-.44-.47-.78-1.12-.97-1.47-1.01-1.16-.96-.54-.89-.06-.87.11-.88.04-.95-.11-1.02-.29-1.1-.51-1.17-.78-1.22-1.08-1.24-1.32-1.2-1.42-1.16-1.48-1.03-1.58L-5-95.2l.93-.79 1.12-.91 1.2-.58 1.12-.47.98-.68.87-.98.78-1.12.77-.99.79-.7.86-.37.93-.14 1-.13 1.04-.39 1.09-.78 1.07-1.16.91-1.41.53-1.57.13-1.35m-16.4 14.49-.69.89-.92.17-.92.07-.87.14-.83.25-.8.35-.78.45-.81.56-.82.6-.84.63-.83.61-.83.57-.81.54-.8.49-.81.47-.8.47-.81.49-.78.54-.71.61-.6.67-.48.74" filter="url(#a)"/><path d="m-5.85-95-1.06.37-.85 1.11-.71 1.61-.67 1.54-.67 1.18-.69.9-.72.78-.76.73-.77.72-.76.78-.68.98-.6 1.28-.52 1.54-.49 1.62-.49 1.61-.42 1.56.07 1.35-4.74-11.02.47-.49.74-.72.76-.71.78-.65.79-.6.79-.55.79-.52.82-.5.84-.48.87-.45.87-.43.86-.42.82-.4.78-.35.78-.3.81-.24.82-.24 1.01-.46" filter="url(#a)"/><path d="m-19.93-80.51.42-.5.63-.91.59-1.26.61-1.17.69-.79.75-.4.79-.3.76-.54.73-.97.7-1.34.71-1.46.72-1.34.69-1.08.66-.8.81-.55 1.65-.69m-2.57.59-1.61-.35-1.29-.67-.99.1-.83.71-.8.79-.83.52-.9.17-.94-.08-.97-.16-.96-.09-.92.02-.85.17-.76.28-.71.32-.67.2-.72-.04-1.12-.03" filter="url(#a)"/><path d="m-13.57-92.56.76-3.74 1.03.1.86.14.78-.48.79-.75.82-.7.85-.65.84-.87.82-1.36.83-1.96.88-2.42.97-2.62 1.05-2.46 1.11-2.04 1.1-1.55 1.05-1.26.97-1.25.92-1.48.9-1.6 1.02-1.43 1.24-1.12 1.48-.79 1.38.91m-41.92 28.41.67-.41 1.01.34.96.24.96-.02.96-.33.92-.55.87-.51.89-.17.93.25.99.52.99.52.97.3.94.06.94-.05.93-.07.93-.06.92.03.98.29 1.09.53.86.4" filter="url(#a)"/><path d="m-16.85-91.04 1.42-1.31.83-1.58.76-1.46.78-1.53.69-2.1.59-2.8.55-3.14.62-2.99.74-2.55.82-2.15.87-1.99.84-2.04.8-2.16.79-2.3.92-2.4 1.38-1.79 2.63 1.12" filter="url(#a)"/><path d="m-16.59-91.5.23-1.14.49-2.95.49-3.42.65-2.36.87-.9.97-.2.92-.51.82-1.41.75-2.22.74-2.5.79-2.13.85-1.42.89-.85.91-.77.94-1.15 1.04-1.6 1.24-1.74 1.45-1.7 1.51-2.46 1.44-4.84M55.23-17.93l.22-1.46.84-1.73.6-1.69.04-1.57-.28-1.6-.21-1.74.08-1.88.37-1.94.6-1.92.79-1.89.92-1.94.94-2.07.78-2.26.37-2.4-.11-2.39-.32-2.15.1-1.59.97-.07" filter="url(#a)"/><path d="m1.56-123.06-.64.98-1.11.24-1.34 1.2-1.33 2.11-1.17 2.71-.98 2.98-.85 2.88-.79 2.49-.8 2-.81 1.59-.82 1.38-.81 1.26-.82 1.1-.85.76-.93.25-1.02-.26-1.07-.46-1.02-.07-.8 1.15-.49 2.85-.29 3.57-.67 1.91-2.34 1.42-.9-2.68-1.5-2.83-1.48-2.46-1.42-2.28-1.23-1.57-.95-.29-.69.95-.63 1.55-.75 1.25-1 .35-1.19-.57-1.28-1.02-1.32-1.11-1.48-1.43-1.86-2.25-1.89-1.88" filter="url(#a)"/><path d="m-19.8-89.62.17-.56.56-1.65.61-1.81.68-1.3.8-.69.9-.37.92-.38.92-.56.89-.71.86-.8.83-.83.83-.89.82-1.02.82-1.21.83-1.4.81-1.49.8-1.33.81-.98.85-.64.98-.65 1.21-1.17 1.45-1.72 1.15-1.42" filter="url(#a)"/><path d="m-19.8-89.62.14-.58.62-1.26.58-1.8.5-2.21.52-2.23.61-2.11.68-2.08.74-2.03.81-1.63.89-.96.92-.47.87-.74.77-1.86.68-3.13.66-3.57 1.08-2.45-12.95 30.86.78-2.99.7-1.34.85-.53.84-.7.75-1.06.73-1.25.77-1.22.81-1.12.85-1.04.87-.99.85-.94.85-.84.87-.64.88-.43.92-.36.92-.51.88-.91.83-1.39.79-1.73.8-1.79.93-1.44 1.22-.75 1.5-.11 1.19-.41-21.48 24.39.78.72.96.19.9-.14.84-.35.83-.32.84-.18.86-.04.89.05.91.1.92.05.89-.07.84-.18.81-.24.78-.18.79.01.83.25.86.55.86.79.83.93.73.81.63.44.72-.03-41.19-16.32 2.6 1.25 1.67-.5 1.14-1.36 1.18-.63 1.44.67 1.63 1.59 1.61 1.8 1.44 1.41 1.27.89 1.25.72 1.43 1.15 1.61 1.79 1.45 1.77 1.01.92 1.45 2.16-.74.68-1.4.13-1.31-.13-1.21-.34-1.1-.46-.93-.18-.77.31-.71.69-.77.82-.94.7-1.12.48-1.27.25-1.31.15-1.26.12-1.14.15-1.03.14-1 .06-1.04-.08-1.17-.18-1.31-.22-1.42-.2-1.46-.11-1.24.08-.68.32-.15.53" filter="url(#a)"/><path d="m-23.23-86.82.07-.22.51-.45.62-.57.67-.67.71-.77.73-.84.75-.87.75-.88.76-.93.77-.99.77-1.06.79-1.12.81-1.12.84-1.04.85-.9.85-.68.84-.44.86-.3.88-.38.91-.71.97-1.01 1.14-.85" filter="url(#a)"/><path d="m-24.62-85.73.84-.73.53-.52.56-.5.61-.53.67-.53.73-.53.77-.53.8-.52.8-.51.81-.49.81-.47.81-.45.84-.44.87-.44.93-.49 1.11-.62 1.45-.82-14.68 9.38.76-.57.61-.84.53-.82.51-.93.51-1.14.53-1.33.58-1.36.65-1.19.75-.94.81-.65.87-.42.91-.28.93-.28.93-.38.92-.6.88-.87.83-1.14.79-1.26.77-1.17.81-.86.88-.54.94-.54 1.01-1.03 1.11-1.7-7.17-15.46-1.61 2.86-.95 3.69-.69 3.6-.68 2.88-.77 1.94-.84 1.22-.85.93-.81 1.02-.75 1.3-.65 1.61-.56 1.88-.41 2.19-.28 2.45-.2 2.48-.24 2.04-.47 1.13-.7.57-.19 2.51-21.24-10.35 1.4 2.25 1.84 3.11 1.81 2.27 1.6 1.07 1.39.04 1.21-.66 1.1-1.01 1.06-.98 1.12-.54 1.25.23 1.4 1.04 1.43 1.48 1.27 1.32 1 .78.95.33 1.41-.38" filter="url(#a)"/><path d="m-27.46-83.52.22-.54.48-.97.73-.96.81-.78.77-.69.68-.68.64-.7.64-.73.65-.78.68-.86.7-.95.73-.99.74-.98.77-.93.8-.87.82-.84.85-.81.89-.78.92-.76.9-.78.84-.87.75-.87.89-.74 1.8-.89-19.83 20.86.46-1.77.54-.61.64-.65.7-.9.7-1.11.6-1.24.52-1.26.51-1.1.55-.88.62-.74.65-.87.64-1.2.62-1.56.68-1.61.64-1.04" filter="url(#a)"/><path d="m-49.65-71.61.63.5.74-.71.82-.97.9-.99 1.03-.75 1.17-.36 1.27-.08 1.25-.05 1.1-.27.86-.63.63-.94.49-1.04.49-.87.65-.52.88-.2 1.07-.09 1.15-.29 1.1-.7 1.01-1.06 1.02-.94 1.22-.03 1.19.55-.64.65.61-.46.59-.54.6-.55.62-.56.68-.58.75-.6.78-.6.76-.55.73-.49.69-.43.67-.41.69-.42.72-.44.76-.47.8-.5.82-.5.8-.43.65-.31h.2m-19.18 34.87-.09-1.66.22-1.87.28-1.46.26-1.29.27-1.32.26-1.42.22-1.48.2-1.46.16-1.37.1-1.31.04-1.43.02-1.63.17-1.76.47-1.62.77-1.36.84-1.13" filter="url(#a)"/><path d="m-31.69-78.94-.87 1.09-.87 1.13-.77 1.01-.63.82-.51.67-.46.62-.48.67-.53.78-.58.87-.62.92-.61.94-.61.93-.61.97-.62 1.06-.65 1.2-.58 1.15-.44.87 6.43-10.35.2-1.25-.01-2.7-.16-3.54-.1-3.71.19-3.1.58-2.03.84-1.17.83-.99.56-1.49.24-2.23.04-2.72.13-2.61.46-1.94.87-1.16 1.03-.94.57-1.83-.68-3.45-5.46 36.39-.18 1.77-.61 1.4-.61 1.15-.57 1.08-.51 1.12-.43 1.23-.33 1.43-.21 1.65-.1 1.81-.01 1.89.01 1.87-.02 1.76-.12 1.6-.24 1.42-.31 1.3-.26 1.28-.08 1.3.17 1.22.4 1.07.16 1.15 3.55-28.2-1.34 1.43-1.23.04-1.12.06-.89.5-.67.91-.56 1.17-.54 1.3-.59 1.27-.66 1.12-.74.96-.83.83-.9.75-.97.71-1.01.72-1.03.71-.98.59-.77.19-.04-.83 14.87-12.43-1.27 1.59-.81.84-.7.85-.72.82-.82.7-.92.6-.97.6-.9.73-.77.92-.65 1.1-.6 1.18-.64 1.13-.74 1.01-.82.86-.85.76-.83.72-.81.76-.78.87-.8 1.03-.82 1.18-.82 1.18-.8.91-.66.25-.17-.89 18.67-19.7-1.98.23-1.42-.3-1 .36-.95.49-.96.52-.92.66-.84.88-.78 1.02-.75 1.06-.76 1.03-.82.94-.91.85-1.04.71-1.22.5-1.41.2-1.55-.09-1.56-.2-1.41.1-1.17.85-.98 1.45-.98-.37" filter="url(#a)"/><path d="m-37.61-70.84-.19.22-.5.85-.55 1.07-.47 1.2-.4 1.35-.38 1.46-.39 1.46-.42 1.38-.47 1.26-.52 1.16-.54 1.11-.54 1.1-.5 1.12-.42 1.13-.33 1.16-.23 1.23-.15 1.36-.13 1.56-.16 1.73-.18 1.74-.18 1.63.07 1.28m14.85-49.03-.74 1.5-.5 1.42-.5 1.54-.56 1.7-.63 1.81-.69 1.76-.78 1.51-.83 1.11-.81.76-.69.61-.48.75-.27 1.1-.16 1.5-.13 1.77-.2 1.84-.46 1.87-1.24 2.56" filter="url(#a)"/><path d="m-30.51-92.8-.45 2.34-.42 1.63-.43 1.69-.53 1.78-.66 1.73-.81 1.49-.89 1.2-.89.95-.75.86-.51.96-.27 1.19-.11 1.42-.14 1.53-.27 1.49-.42 1.39-.63 1.53-1.32 2.42-15.42 8.42 1.39.96 1.58-.55 1.24-.62 1.03-.37 1.07-.2 1.14-.21 1.1-.44.9-.77.67-1.07.56-1.16.66-.93.89-.52 1.07-.34 1.05-.81 1.36-2.16" filter="url(#a)"/><path d="m-39.72-67.97-1.29 2.32-.77 1.24-.73.86-.83.7-1 .54-1.21.33-1.4.13-1.49.02-1.42.06-1.28.22-1.12.48-1.02.7-1 .87-1 .94-1.02.93-1.07.83-1.21.68-1.49.54-1.86.46-2.2.57-2.28.88-2.04 1.27-1.69 1.6 28.57-13.35-4.38-4.46-1.62-.35.06 2.07.13 2.27-.42 1.55-.91.84-1.21.34-1.47-.04-1.78-.36-2.08-.5-2.21-.34-2.08.06-1.78.39-1.64.21-1.89-.94-2.35-3.19 19.93 36.79.03-2.33-.02-1.26-.01-.97.04-1.04.11-1.25.18-1.44.21-1.53.2-1.54.16-1.5.1-1.47.05-1.48.03-1.53.05-1.6.07-1.62.14-1.53.2-1.39.27-1.24.33-1.17.39-1.19.43-1.28.48-1.34.49-1.24.2-.45" filter="url(#a)"/><path d="m-44.3-58.96-2.52-.31-.49 1.31-.22 1.24-.42 1.01-.69.94-.81.99-.79 1.04-.74 1.03-.7.98-.74.93-.82.97-.9 1.07-.93 1.22-.9 1.3-.82 1.24-.71 1.01-.66.63-.8.23-.93-.23 25.42-55.23-.47 1.88-.84 1.58-.94 1.66-.85 1.83-.67 1.99-.49 2.01-.31 1.94-.15 1.89-.05 1.9.01 1.98.01 2.04-.06 2-.19 1.84-.35 1.58-.52 1.28-.69 1.03-.82.84-.86.8-.78.92-.62 1.13-.53 1.24-.65 1.1-.63 1.08 1.62 3.09" filter="url(#a)"/><path d="m-45.29-56.47-.69.59-.32.81-.36.9-.53 1.07-.64 1.18-.63 1.19-.55 1.17-.49 1.17-.48 1.18-.5 1.24-.57 1.28-.61 1.31-.6 1.27-.56 1.2-.49 1.12-.42 1.07-.36 1.07-.32 1.15-.33 1.23-.37 1.29-.45 1.34-.54 1.5-.61 1.83-.6 1.97 10.81-26.44.29-2.01-.5-2.85-1.12-3.66-1.02-3.5-.4-2.65.21-1.82.54-1.39.61-1.35.59-1.47.54-1.54.57-1.51.62-1.35.72-1.17.78-1.03.73-1.06.56-1.33.26-1.73-.02-2.06-.16-2.19-.1-2.27.03-2.57.1-3.33-.16-5.02-5.41 53.32 1-3.33.46-1.65.24-1.11.16-1.22.06-1.58v-1.87l.04-1.9.2-1.72.37-1.48.46-1.42.41-1.55.29-1.8.19-1.98.18-1.99.24-1.84.33-1.7.37-1.69.33-1.86.26-2.19.2-2.64-.1-2.73-5.69 39.25-2.69-7.61 1.41-.56 1.5.32.88-.42.37-1.26.09-1.77v-2l.02-2 .1-1.92.21-1.83.27-1.78.28-1.86.22-2.03.07-2.32-.09-2.62-.21-2.84-.18-2.82v-2.49l.27-1.96.43-1.51.3-1.45-.13-1.9-.52-2.8-.03-3.21-2.57 50.64-.08-.04-.58.65-.81.55-.96.57-1.06.77-1.03 1-.89 1.18-.69 1.27-.49 1.28-.36 1.23-.34 1.18-.39 1.14-.53 1.13-.72 1.12-.94 1.1-1.18 1.1-1.37 1.07-1.45 1.05-1.36 1-1.07.96-.72 1-.55 1.31-.79 1.86-1.27 2 19.63-25.48.87-3.48-.16-2.38-.16-1.57.17-1.22.38-1.18.49-1.23.53-1.26.52-1.29.45-1.42.33-1.59.25-1.76.23-1.83.31-1.74.44-1.54.52-1.36.52-1.37.4-1.6.27-1.92.27-2.11.44-2.06.46-1.52m-8.39 37.73-.02.38-.23 1.6-.19 1.87-.06 1.94.1 1.86.22 1.66.26 1.45.24 1.32.24 1.3.31 1.41.43 1.55.57 1.67.62 1.75.53 1.82.32 1.85.11 1.77.1 1.54m99.84-4.52-.01-2.32-.05-1.97.44-1.92.77-1.86.76-1.74.57-1.7.45-1.83.38-2.04.31-2.17.21-2.13.15-1.98.2-1.87.3-1.86.39-1.93.34-1.96.23-1.9.12-1.77.05-1.71-.05-1.99-.11-3.38-8.52 62.81.42-1.7.45-1.72.52-1.67.42-1.55.27-1.35.16-1.16.1-1.1.04-1.18-.01-1.31-.05-1.43.01-1.48.18-1.49.28-1.48.22-1.42.04-1.33.02-1.41" filter="url(#a)"/><path d="m-34.53-64.36-1.27 1.44-.59.75-.65.7-.72.81-.72.87-.7.84-.73.78-.76.74-.76.74-.73.79-.66.86-.58.9-.52.93-.49.97-.5 1.02-.56 1.07-.65 1.07-.73.96-.74.81-.65.74-.53.8-.59.81-.39-.16m-1.3 4.86-.32.83-.24.88-.21.82-.26.89-.33 1.03-.39 1.13-.42 1.23-.42 1.32-.37 1.39-.32 1.43-.29 1.41-.27 1.36-.26 1.31-.27 1.3-.28 1.37-.29 1.45-.29 1.48-.29 1.44-.3 1.33-.29 1.2-.28 1.16-.29 1.27-.28 1.6-.18 1.94" filter="url(#a)"/><path d="m-56.28-74.17.78 1.86-.29 1.68-.29 1.63.28 2.02.91 2.7 1.27 3.27 1.25 3.4.9 3.05.37 2.34-.2 1.56-.65.95-.8.83-.38 1.37.54 2.49 1.12 3.28.3 2.14m-.87 2.84-1.11.27-1.29.8-.67 1.15-.52 1.28-.83 1.25-1.21 1.13-1.33 1.03-1.24.91-1.14.82-1.13.85-1.14 1.09-1.04 1.5-.97 1.8-1.57 1.54-3.32.58" filter="url(#a)"/><path d="m-52.9-32.94.24-1.08.3-1.41.21-1.18.15-1.02.1-1.09.09-1.32.1-1.58.15-1.75.22-1.72.31-1.54.35-1.28.35-1.1.29-1.13.2-1.37.28-1.77 1.04-2.8-4.38 23.14.4-.97.49-1.27.35-1.08.25-.93.24-.96.29-1.12.37-1.33.43-1.47.46-1.46.47-1.34.46-1.14.43-.98.42-.93.46-1.03.62-1.31 1.07-2.55-7.29 21.14-1.99.52-.05 2.02.16 1.84-.01 1.39-.23 1.15-.42 1.15-.55 1.27-.59 1.37-.55 1.41-.47 1.37-.41 1.28-.38 1.22-.37 1.24-.36 1.36-.37 1.52-.51 1.67-.75 1.76-.96 1.77-.77 1.39" filter="url(#a)"/><path d="m-52.98-31.67-.2-1.3v-1.4l.21-1.33.19-1.2.04-1.18-.16-1.34-.28-1.63-.3-1.92-.22-2.1-.15-2.15-.17-2.09-.27-1.98-.35-1.83-.28-1.7-.13-1.48-.08-.06M53.4-29.27l.54 1.92.53 1.73.51 1.48.53 1.32.55 1.25.56 1.26.55 1.33.51 1.39.47 1.42.42 1.34.4 1.18.44 1.03.49 1.08.46 1.39.37 1.66.4 1.21.01-63.5-.09 3.19-.42 2.86-.22 2.41-.21 2.16-.37 2.12-.5 2.19-.56 2.21-.59 2.17-.69 2.17-.8 2.22-.79 2.27-.54 2.26-.09 2.08.34 1.79.47 1.47.14 1.32-.58 1.47-1.18 1.79-1.34 1.53" filter="url(#a)"/><path d="m52.7-33.79.17-.12.58-1.49.5-2.21.08-2.17-.26-1.8-.33-1.45-.19-1.34.01-1.43.2-1.61.3-1.78.34-1.87.32-1.87.23-1.87.14-1.95.18-2.2.31-2.58.23-2.77-.42-2.28.41 59.31-.06-2.15-.04-1.49-.05-1.02-.08-1.01-.1-1.21-.11-1.4-.11-1.47-.12-1.47-.14-1.44-.16-1.43-.2-1.45-.22-1.51-.25-1.57-.25-1.62-.23-1.58-.21-1.44-.18-1.24-.18-.99-.18-.71-.24-.65-.17-.89-.65-3.41-.25-2.07-.11-1.35-.13-1.06-.21-1.03-.29-1.07-.36-1.1-.38-1.11-.37-1.13-.36-1.19-.33-1.33-.31-1.45-.3-1.54-.3-1.52-.3-1.41-.28-1.27-.28-1.31-.47-1.67-6.18-.86.62 1.25.56 1.09.56 1.12.57 1.03.57.94.57.87.58.85.6.89.6.96.6 1.05.58 1.1.55 1.13.51 1.11.47 1.08.44 1.07.42 1.06.4 1.06.37 1.01.29.89.19.81.19.89.5.91" filter="url(#a)"/><path d="m50.9-40.72.02-1.42.1-.84-.23-.91-.37-1.08-.38-1.15-.32-1.19-.26-1.26-.21-1.37-.19-1.5-.21-1.56-.24-1.58-.25-1.55-.25-1.47-.25-1.39-.26-1.32-.25-1.33-.21-1.52-.22-1.87-.78-2.22" filter="url(#a)"/><path d="m50.9-40.72.04-1.44.21-.96.06-1.18-.15-1.28-.28-1.24-.35-1.18-.34-1.2-.33-1.28-.31-1.41-.25-1.55-.18-1.68-.1-1.75-.01-1.79.05-1.8.07-1.79.01-1.76-.09-1.76-.25-1.75-.38-1.67-.09-1.29 1.93 27.49 1.04 1.62.79 1.93 1.54 1.33 2.41.38 2.68-.15 2.15-.01 1.15.61.21 1.34-.31 1.86-.29 2.06.14 1.96.73 1.68L63.69-27l1.65 1.14 1.81 1.04 1.81 1.07 1.78 1.2 1.52 1.51.5 2.25" filter="url(#a)"/><path d="m52.86-17.16.07-1.34.08-1.35-.05-1.37-.14-1.42-.2-1.52-.19-1.6-.14-1.6-.08-1.53-.07-1.39-.07-1.25-.11-1.17-.18-1.2-.27-1.34-.38-1.52-.44-1.63-.37-1.54-.17-1.21.11-.86-.03-1.12-5.21 31.5.53-1.69.83-1.6 1.09-1.63 1.05-1.63.79-1.61.42-1.55.06-1.49-.2-1.43-.28-1.41-.15-1.41.07-1.44.28-1.47.41-1.51.37-1.57.26-1.67.09-1.78-.05-1.79-.11-1.66-.1-1.34-.07-1.04-.17-1.05-.39-1.53" filter="url(#a)"/><path d="m49.23-46.38.24-1.25.22-1.44.09-1.65.2-2.01.33-2.31.4-2.43.42-2.4.42-2.35.45-2.35.52-2.46.53-2.56.37-2.52.09-2.33-.11-2.24-.02-2.38-.25-2.42-3.9 35.1-1.04 2.79.2 1.44.35.94.4.83.47.99.49 1.27.37 1.54.12 1.65-.14 1.61-.34 1.49-.41 1.37-.35 1.32-.24 1.37-.11 1.52-.05 1.81-.22 2.18-.13-25.72.39.76.67.74 1 .64 1.12.51.99.51.73.72.54 1.05.48 1.38.53 1.58.63 1.53.8 1.22 1.03.78 1.32.4 1.53.25 1.36.46.95 1.1L48.6-47.98l-.39-1.03-.63-1.28-.75-1.13-.82-.91-.84-.75-.79-.68-.7-.72-.6-.83-.52-.95-.48-1.04-.49-1.08-.52-1.04-.59-.98-.69-.92-.79-.88-.87-.85-.92-.8-.89-.71-.82-.62-.75-.61-.82-.74-.99-1.3" filter="url(#a)"/><path d="m59.34-25.29-.73-1.66-.89-1.74-.72-1.63-.58-1.4-.53-1.16-.52-1.01-.53-1-.53-1.12-.53-1.31-.48-1.46-.42-1.51-.39-1.41-.4-1.23-.45-1.05-.51-.95-.55-.94-.56-.93-.56-.86-.58-.81-.64-1.02-.94-1.84.58 2.21.39 1.25.29 1.08.24 1.14.2 1.21.17 1.24.14 1.24.12 1.29.16 1.37.18 1.47.19 1.54.16 1.52.12 1.44.09 1.34.07 1.26.06 1.26.07 1.34.05 1.48.04 1.6.02 1.64.01 1.58.01 1.45-.03 1.35-.34 1.31-3.89-36 .04-1.74-.05-1.3-.09-1.35-.26-1.25-.43-1.16-.47-1.2-.39-1.37-.29-1.56-.25-1.66-.32-1.68-.44-1.66-.58-1.6-.66-1.5-.68-1.34-.68-1.19-.66-1.15-.67-1.34-.62-1.73-.3-2.17" filter="url(#a)"/><path d="m46.4-53.72 1.05 1.2.97.86 1.29.44 1.31.27 1.09.43.8.69.62.93.51 1.04.5.97.62.81.91.67 1.36.69 1.86 1 2.02 1.48 1.17 1.55L45.92-55.5l-.08-.68-.04-1.32.14-1.8.11-1.9-.06-1.79-.22-1.63-.3-1.56-.29-1.67-.2-1.97-.11-2.32-.08-2.55-.13-2.51-.21-2.28-.25-2.09-.23-2.15-.28-2.31-.5-2.25-.33-2.41 2.77 35.13.41.58.66 1.05.87 1.02.98.87.98.77.9.74.81.76.76.79.81.78.93.66 1.13.5 1.36.34 1.59.31 1.74.51 1.7.94 1.38 1.39.97 1.48.93.7 1.45-.94-37.14-22.36.74-.03.78-.6.94-.48 1.05-.23 1.04.03.93.32.8.6.71.8.72.93.78.96.85.88.9.72.92.54.93.44.96.45 1.03.43 1.01.32.56.23-.2-.22.35.67.4 1.04.38 1.07.41 1.13.44 1.2.47 1.27.46 1.28.45 1.26.41 1.2.36 1.18.31 1.17.25 1.19.19 1.2.14 1.21.12 1.22.15 1.29.23 1.43.31 1.63.35 1.74.27 1.59.06 1.03-.16.1" filter="url(#a)"/><path d="m44.3-58.58 1.42-.67 1.28-.02.82.58.4 1.18.22 1.54.31 1.56.56 1.3.89.94 1.15.6 1.26.42 1.22.43 1.06.57.87.75.72.91.63 1.05.62 1.19.66 1.36.73 1.52.83 1.53.97 1.31 1.14.87 1.28.5 1.21.5 1.2.17-21.91-21.22-.71-1.83-.49-1.19-.5-1.1-.55-1.24-.61-1.4-.63-1.47-.64-1.4-.63-1.3-.63-1.21-.61-1.18-.58-1.18-.53-1.15-.5-1.1-.46-1.06-.45-1.06-.46-1.1-.51-1.17-.6-1.19-.71-1.18-.79-1.15-.83-1.09-.79-1.04-.68-1-.54-1.25" filter="url(#a)"/><path d="m42.66-62.18-.21-.58-.39-.97-.53-1.2-.62-1.42-.63-1.54-.58-1.53-.55-1.43-.56-1.31-.6-1.17-.63-1.08-.61-.98-.59-.92-.54-.85-.53-.81-.56-.81-.62-.86-.68-.98-.73-1.13-.75-1.28-.75-1.32-.73-1.16-.7-.62" filter="url(#a)"/><path d="m42.58-62.23-.29-1.7.08-2.22-.07-2.47-.34-2.2-.53-1.74-.56-1.52-.43-1.64-.25-2.01-.08-2.34-.01-2.42-.02-2.2-.14-1.76-.34-1.25-.56-.86-.68-.86-.59-1.44-.36-2.48-.03-3.74" filter="url(#a)"/><path d="m42.58-62.23-.32-1.65-.46-1.34-.37-2-.14-2.57v-2.65l-.09-2.3-.31-1.8-.52-1.43-.6-1.28-.54-1.33-.38-1.51-.16-1.81.08-2.28.31-2.95.47-3.63.43-3.94.03-3.52-.63-2.45-1.08-1.64 17.34 49.38-.46-1.12-1.42-.69-1.23-.88-.84-1.16-.67-1.18-.71-.94-.84-.68-.92-.58-.89-.65-.81-.79-.79-.83-.86-.72-.96-.54-1.04-.46-1.07-.6-1.09-.89-1.07-1.08-.86-.79-.14.58-1.5-1.12-.8-1.31-.72-1.13-.66-.88-.59-.71-.55-.64-.56-.65-.61-.69-.68-.76-.74-.79-.79-.81-.81-.8-.81-.75-.78-.7-.73-.63-.69-.54-.66-.46-.65-.38-.7-.35-.78-.39-.87-.52-1.08-.8-1.61-1.45 16.62 14.93 1.12 1.03.74.65.76 1.1.79 1.33.76 1.29.68 1.16.62 1.08.6 1.03.6 1.02.61.99.61.96.59.92.54.91.5.96.47 1.06.51 1.19.55 1.17.44.55-11.45-18.76.29.91.43 1.12.47 1.25.56 1.4.64 1.44.61 1.39.53 1.36.43 1.34.39 1.32.39 1.27.41 1.2.44 1.11.45 1.06.44 1.04.41 1.09.39 1.16.36 1.27.34 1.36.32 1.38.3 1.33.3 1.17.24 1.06.12 1.11.02 1.47 16.32-18.54-1.61.12-1.19-.72-1.39-.76-1.42-.77-1.18-.94-.88-1.13-.73-1.12-.85-.85-1.14-.43-1.42-.04-1.57.12-1.54.07-1.37-.14-1.17-.39-1.04-.63-1-.79-1.06-.83-1.12-.78-1.03-.75-.75-.88-.68-.74-1.46 1.31" filter="url(#a)"/><path d="m31.47-109.52-.33 2.56.33 2.57.26 2.32.29 1.85.49 1.35.64 1.14.66 1.31.55 1.77.39 2.34.22 2.77.12 2.94.08 2.76.14 2.32.17 1.85.08 1.62-.09 1.67-.05 1.61.39 1.03L51.52-51.5l-1.09-1.84-.84-1.24-.76-1.13-.7-1.01-.65-.93-.61-.9-.57-.95-.53-1.05-.51-1.13-.51-1.18L44.2-64l-.63-1.05-.75-.96-.87-.9-.96-.9-.97-.91-.89-.88-.77-.84-.69-.91-.72-1.11-1.14-1.28-1.85-2.38-.7-.89-.51-1.15-.61-1.27-.74-1.19-.78-1.04-.78-.93-.73-.86-.67-.8-.59-.75-.55-.7-.54-.65-.6-.67-.66-.75-.61-.9-.66-1.33" filter="url(#a)"/><path d="m57.25-75.71-2.07.17-2.21.42-1.95.5-1.71.32-1.5-.11-1.29-.63-1.13-.96-1.08-.93-1.11-.64-1.21-.29-1.28-.09-1.27-.04-1.23.02-1.21.26-1.17.6-1.08.67-.93.1-.94-.74" filter="url(#a)"/><path d="m31.59-78.88 1.08.74.92.19.8.21.68.35.68.36.85.23 1.07.03 1.22-.06 1.22.06 1.12.35 1 .68.96.91 1.02.95 1.14.8 1.22.61 1.24.47 1.17.48 1.07.64.91.91.73 1.13.72 1.07 1.32.78M16.08-92.62l.49.53.63.47.63.4.65.42.68.46.69.5.71.53.71.55.75.58.78.62.81.66.81.67.76.65.71.61.65.6.62.61.62.65.66.7.72.75.79.81.83.92.81 1.05" filter="url(#a)"/><path d="m21.98-110.43.85 2.44.84 1.54.59 1.75.36 2.27.33 2.53.47 2.35.62 1.91.72 1.45.7 1.19.59 1.2.41 1.45.25 1.81.19 2.03.26 2.01.41 1.71.61 1.34.76 1.14.65 1.43-2.66-3.19 1.75-1.45.96.9 1.13.48 1.34-.24 1.4-.64 1.38-.8 1.39-.9 1.43-.98 1.49-.93 1.49-.7 1.39-.26 1.23.23 1.11.61 1.09.81 1.15.9 1.26.97 1.38.97 1.53.62 1.8-.19 2.1-1.15 2.35-2.3-46.39-25.05 1.6 1.55.93.99.95 1 .98 1.33.89 1.66.75 1.77.68 1.6.67 1.3.69 1.02.71.8.75.68.78.64.79.67.8.84.76 1.13.68 1.44.58 1.62.51 1.54.49 1.21.58.71.74.27.72.58-.79 4.75" filter="url(#a)"/><path d="m28.25-82.3-.48-1.61-.41-1.24-.47-.74-.6-.6-.7-.76-.73-1.06-.7-1.33-.65-1.45-.61-1.42-.59-1.3-.6-1.21-.59-1.2-.6-1.23-.59-1.24-.6-1.26-.65-1.4-.76-1.64-1-1.72-1.25-1.38-.76-.99 12.63 23.97-.73-.77-.43-.51-.53-.68-.65-.93-.73-1.03-.79-.95-.8-.77-.79-.59-.75-.51-.71-.56-.68-.67-.64-.84-.62-.98-.63-1.07-.68-1.09-.81-1.03-.92-.95-.94-.93-.85-1.02-.82-1-1.58-.46" filter="url(#a)"/><path d="m27.54-83.11-.78-.63-.53-.13-.68-.13-.85-.12-.98.01-1.03.12-1 .16-.93.19-.89.29-.87.46-.88.57-.85.54-.8.34-.74.1-.75-.04-.84.02-.98.25-1.03.49-.75.4-.07-.59" filter="url(#a)"/><path d="m26.69-84.12-.75-.27-.96-.59-1-.32-1.06.04-1.08.38-1.03.57-.94.58-.86.42-.8.23-.75.1-.74.07-.74.11-.78.13-.89.18-1 .27-1.04.5-.79.72-.24.7" filter="url(#a)"/><path d="m26.69-84.12-.57 2.24-.11 2.71.52 1.27.93.24 1.07-.04 1.03.16.9.53.74.83.61.99.52.99.47.94.44.92.4 1 .34 1.2.29 1.44.22 1.66.16 1.79.1 1.82.12 1.84.23 1.99.41 2.27.26 2.66-27.1-29.75.1-.35.48-.36.77-.26.87-.11.88.1.86.33.87.47.85.43.85.22.85-.09.85-.36.86-.51.85-.48.83-.33.77-.13.75.11.78.35.88.54.91.2.56-1.38" filter="url(#a)"/><path d="m23.35-86.75-1.29-1.42-.41-1.62-.24-1.9-.38-1.72-.55-1.28-.67-.84-.75-.42-.85-.16-.94-.09-.98-.21-.99-.47-.96-.74-.91-1.01-.83-1.23-.74-1.45-.64-1.62-.57-1.73-.6-1.69-.73-1.5-.89-1.25-.83-1.34-.72-2.43 14.34 24.26.52.81.98 1.06.93.98.82.8.74.65.67.54.62.53.61.59.62.7.65.84.68.94.72 1.01.74 1.02.76.97.73.9.65.86.55.84.39.78.26.65.32.82-5 8.3.47-1.03-.16-1.12-.22-1.46-.3-1.52-.43-1.44-.52-1.33-.55-1.32-.5-1.4-.42-1.5-.36-1.52-.34-1.42-.36-1.26-.42-1.14-.48-1.14-.55-1.27-.63-1.35-.73-1.27-.77-1-.54-.56-.01-.05" filter="url(#a)"/><path d="m2.72-104.17.4.56.63.57.93.38 1.01.46.97.67.9.83.83.83.76.74.72.62.71.58.73.61.78.72.82.85.85.94.89.98.89.89.88.71.85.43.82.09.83-.15.86-.03.85.9.73 2.87-3.33-2.46.1-2.07-.31-1.98-.82-.72-1.01-.57-.95-1.36-.8-2.34-.67-2.87-.63-2.69-.65-2-.71-1.17-.76-.59-.82-.5-.87-.9-.9-1.61-.94-2.29-.96-2.58-.98-2.24-.96-1.45-.88-.77-.8-.79-.77-1.79-.54-3.57 16.57 37.12.38.08.69.51.7.74.6.93.51 1.18.5 1.37.54 1.45.58 1.41.57 1.38.48 1.41.37 1.48.25 1.6.18 1.69.16 1.74.22 1.7.29 1.62.31 1.68.23 2.02.29 1.85-9.59-26.86-.92-.66-1.1-1.07-.82-1.87-.66-2.37-.63-2.19-.66-1.53-.66-.93-.69-.62-.74-.61-.81-.73-.88-.95-.94-1.25-.95-1.65-.92-2-.86-2.19-.77-2.18-.74-2.26-.76-2.86-.87-4.13-1.19-5.08L31.05-69.6l-.46-1.29-.38-1.35-.59-1.2-.7-1.09-.69-1.12-.61-1.2-.52-1.24-.49-1.18-.47-1.06-.51-.92-.57-.81-.64-.75-.71-.7-.75-.68-.77-.7-.73-.76-.67-.86-.61-.95-.6-.96-.62-.85-.63-.67-.62-.49-.64-.41-.84-.49" filter="url(#a)"/><path d="m-9.28-109.45.22.87.94 1.02.98.53.91.29.92.26.99.27 1.07.31 1.12.38 1.11.51 1.03.64.94.79.85.96.78 1.12.78 1.26.79 1.27L5-97.8l.89.91.92.6.9.35.84.28.67.4.45.55.34.55.68.52" filter="url(#a)"/><path d="m29.46-83.57-.74-.3-.72-.54-.63-.55-.59-.53-.66-.53-.75-.56-.83-.57-.86-.56-.85-.54-.82-.51-.77-.46-.75-.42-.74-.39-.73-.36-.74-.33-.77-.33-.82-.34-.88-.39-.94-.44-.96-.43-.95-.4-.96-.35-1.15-.36-1.3-.49 1.3.51 1.15.33.97.26.97.3.98.36.95.41.87.42.8.42.75.41.73.4.73.41.73.4.75.43.77.47.81.52.85.55.86.56.84.53.78.48.68.47.6.5.62.58.69.61.73.36" filter="url(#a)"/><path d="m9.63-94.07-.26-.2-.8-.22-.96-.32-.94-.35-.93-.35-.9-.31-.85-.26-.8-.23-.76-.22-.77-.28-.82-.35-.9-.41-.97-.43-1.03-.37-1.02-.25-.98-.12-.92-.02h-1.71l-.88-.04-.94-.02-.99.02-1.06.06-.79-.19 5.37-8.79.56.03.93.74 1.18 1.57 1.27 1.84 1.19 1.6 1.03 1.21.88.91.77.78.71.72.73.59.79.36.89.03.95-.32.98-.53 1.02-.27L9-97.45l.69 3.11" filter="url(#a)"/><path d="m9.69-94.34-.9-.91-1.1-.97-.96-.68-.93-.52-.9-.43-.87-.36-.8-.36-.77-.44-.79-.61-.84-.83-.94-1.03-1.03-1.17-1.1-1.19-1.1-1.05-1.05-.75-.98-.4-.92-.13-.93-.1-.98-.38-1.1-.92-1.22-1.44-1.33-1.58-.94-.93L9.32-94.09l-1.85-.57-.96-.35-.87-.38-.89-.45-.85-.52-.78-.57-.73-.57-.75-.51-.81-.41-.91-.33-.99-.31-1.05-.32-1.06-.38-1-.44-.95-.51-.9-.55-.9-.55-.93-.44-.98-.26-1.04-.11-1.11-.08-.85-.5" filter="url(#a)"/><path d="m5.8-95.16-1.19-.35-.98-.54-.7-.57-.63-.36-.68-.12-.78.03-.89.05-1-.01-1.05-.06-1.04-.12-.97-.16-.89-.24-.83-.36-.85-.47-.89-.47-.92-.27-1.01.07-1.74.13-7.58-19.38.76.69 1.29 1.61 1.36 1.26 1.23.88 1.14.85 1.1 1.03 1.11 1.16 1.11 1.16 1.08 1.01 1.04.73.99.36.97.02.98-.17 1.05-.07 1.1.27 1.12.84 1.09 1.5.98 2.08.84 2.35.73 2.12.66 1.4.72.71.97.64 1.2.77-2.67-.4-.74.49-.8.79-.82.45-.91.13-.99.16-1.01.52-.94.95-.83 1.27-.73 1.42-.66 1.48-.64 1.53-.63 1.6-.63 1.64-.63 1.61-.57 1.48-.49 1.26-.46.95-.82 1.26" filter="url(#a)"/><path d="m3.13-95.56.27-2.12 1.09-1.18 1.22-1.94 1.14-1.73 1.01-.83.9.02.79.51.75.67.75.61.82.38.95.02 1.09-.44 1.22-.91 1.31-1.23 1.33-1.28 1.26-1.03 1.13-.63 1.06-.39 1.09-.54 1.22-1.04 1.37-1.59 1.3-1.8.87-1.4.09-.19" filter="url(#a)"/><path d="m2.49-95.26.4-.62.69-1.79 1.02-2.41 1.09-1.75 1.03-.66h.97l.92.05.88-.29.88-.8.91-1.31 1.04-1.75 1.17-2.01 1.31-2.12 1.44-2.16 1.6-2.22 1.76-2.14 1.72-1.59 1.51-1.03" filter="url(#a)"/><path d="m2.49-95.26.48-3.01.63-.96.96-1.09 1.07-1.26 1.06-1.01.98-.42.89.19.81.45.76.19.79-.45.93-1.16 1.08-1.56 1.14-1.43 1.09-.89 1.22-.36 2.35.16" filter="url(#a)"/></g><g fill="none" stroke="#000"><circle cx="6.756" cy="3.796" r="2.392" filter="url(#a)"/><circle cx="7.204" cy="6.72" r="2.36" filter="url(#a)"/><circle cx="9.4" cy="5.064" r="1.312" filter="url(#a)"/><circle cx="8.964" cy="5.776" r="1.584" filter="url(#a)"/><circle cx="7.504" cy="3.5" r="2.82" filter="url(#a)"/><circle cx="7.472" cy="2.988" r="1.672" filter="url(#a)"/><circle cx="8.548" cy="5.924" r="2.506" filter="url(#a)"/><circle cx="7.204" cy="6.1" r="2.478" filter="url(#a)"/><circle cx="8.624" cy="3.656" r="2.626" filter="url(#a)"/><circle cx="6.412" cy="5.1" r="1.324" filter="url(#a)"/><circle cx="-10.24" cy="7.238" r="1.86" filter="url(#a)"/><circle cx="-9.664" cy="7.134" r="2.58" filter="url(#a)"/><circle cx="-8.608" cy="9.022" r="2.512" filter="url(#a)"/><circle cx="-9.236" cy="7.93" r="2.884" filter="url(#a)"/><circle cx="-8.528" cy="8.834" r="1.12" filter="url(#a)"/><circle cx="-10.96" cy="6.81" r="2.686" filter="url(#a)"/><circle cx="-11.092" cy="8.434" r="1.392" filter="url(#a)"/><circle cx="-9.456" cy="7.934" r="2.98" filter="url(#a)"/><circle cx="-9.648" cy="6.262" r="1.746" filter="url(#a)"/><circle cx="-10.516" cy="8.046" r="1.406" filter="url(#a)"/></g><path fill="#D77F8C" stroke="#000" stroke-linejoin="round" stroke-width="3" d="m-34.55 77.12.12-1.26.14-1.22.19-1.2.21-1.16.24-1.13.28-1.11.31-1.07.33-1.04.37-1.02.39-.99.42-.95.45-.93.47-.9.5-.88.52-.84.55-.82.57-.79.59-.76.62-.74.63-.7.66-.69.67-.65.7-.63.71-.61.73-.57.75-.56.76-.52.78-.51.79-.47.81-.46.82-.42.83-.41.85-.38.85-.35.87-.34.88-.3.88-.29.9-.26.9-.24.91-.22.91-.2.92-.17.93-.15.93-.13.93-.11.94-.09.94-.07.94-.04.94-.03h.94l.94.01.94.04.93.05.94.08.93.09.92.12.92.13.92.15.91.17.9.18.9.21.88.22.88.24.87.26.85.27.85.29.83.31.82.33.81.34.79.36.78.37.76.39.75.4.73.42.71.43.7.45.67.47.66.47.64.49.61.51.59.52.57.53.55.55.52.56.5.57.48.58.44.6.42.61.4.62.36.63.34.65.31.65.27.67.25.68.22.68.18.7.15.71.11.72.08.73.05.74-.05-.74-.08-.73-.11-.72-.15-.71-.18-.7-.22-.68-.25-.68-.27-.67-.31-.65-.34-.65-.36-.63-.4-.62-.42-.61-.44-.6-.48-.58-.5-.57-.52-.56-.55-.55-.57-.53-.59-.52-.61-.51-.64-.49-.66-.47-.67-.47-.7-.45-.71-.43-.73-.42-.75-.4-.76-.39-.78-.37-.79-.36-.81-.34-.82-.33-.83-.31-.85-.29-.85-.27-.87-.26-.88-.24-.88-.22-.9-.21-.9-.18-.91-.17-.92-.15-.92-.13-.92-.12-.93-.09-.94-.08-.93-.05-.94-.04-.94-.01h-.94l-.94.03-.94.04-.94.07-.94.09-.93.11-.93.13-.93.15-.92.17-.91.2-.91.22-.9.24-.9.26-.88.29-.88.3-.87.34-.85.35-.85.38-.83.41-.82.42-.81.46-.79.47-.78.51-.76.52-.75.56-.73.57-.71.61-.7.63-.67.65-.66.69-.63.7-.62.74-.59.76-.57.79-.55.82-.52.84-.5.88-.47.9-.45.93-.42.95-.39.99-.37 1.02-.33 1.04-.31 1.07-.28 1.11-.24 1.13-.21 1.16-.19 1.2-.14 1.22" filter="url(#a)"/></svg>