<svg xmlns="http://www.w3.org/2000/svg" width="500" height="500" viewBox="-100 -100 200 200"><defs><clipPath id="c"><path d="m27.48-1.01-.29-.08-.32-.07-.34-.08-.38-.07-.4-.07-.42-.07-.45-.07-.47-.07-.49-.06-.51-.06-.53-.06-.55-.06-.57-.05-.59-.05-.6-.05-.65-.08-.67-.08-.7-.07-.72-.06-.75-.06-.76-.04-.78-.05-.8-.03-.81-.03-.82-.03-.83-.01-.85-.02h-1.7l-.85.01-.86.01-.85.02-.85.02-.85.02-.84.03-.83.04-.82.04-.81.04-.8.04-.79.05-.77.05-.75.05-.74.05-.72.06-.7.05-.68.06-.66.06-.64.06-.62.05-.6.06-.58.06-.56.06-.53.06-.52.05-.49.06-.47.06-.45.05-.43.05-.41.06-.4.05-.37.05-.36.05-.34.04-.33.05-.31.04-.3.05-.29.04-.27.04-.26.04-.24.04-.24.04-.22.04-.21.03-.19.04-.19.03-.18.04-.17.03-.16.03-.15.03.19 1.14.15.04.16.05.16.05.17.04.18.05.19.05.2.04.21.05.22.05.24.05.24.04.25.05.27.05.27.05.29.04.3.05.32.04.33.05.34.05.36.04.38.04.39.05.41.04.43.04.44.04.47.03.48.04.51.03.52.03.54.03.56.03.58.02.6.02.62.02.64.02.66.01.67.01.69.01H.88l.75-.01.76-.01.78-.01.78-.02.8-.02.8-.02.82-.03.81-.03.83-.03.82-.04.83-.04.82-.04.82-.05.83-.05.81-.05.81-.06.8-.06.79-.06.78-.06.76-.06.75-.07.73-.07.72-.07.63-.05.62-.06.61-.06.59-.06.58-.06.56-.07.55-.06.52-.07.51-.06.49-.07.46-.07.44-.07.42-.07.39-.07.37-.07"/></clipPath><clipPath id="b"><path d="m-26.42-1.1.35-.1.38-.09.4-.1.44-.09.45-.09.49-.09.5-.09.52-.09.55-.08.57-.08.58-.08.6-.07.61-.07.63-.07.64-.06.73-.11.75-.1.76-.1.78-.08.8-.08.8-.06.82-.06.83-.05.83-.04.84-.03.84-.03.84-.01.85-.01h.84l.84.01.83.02.82.02.82.03.81.04.8.04.79.05.77.05.76.06.74.06.73.06.71.07.69.07.68.07.66.08.63.07.62.08.6.08.57.08.56.08.54.08.51.08.5.08.47.08.46.08.43.08.42.07.39.08.38.07.36.07.35.07.33.07.31.07.3.06.29.07.27.06.26.06.25.06.24.06.22.05.22.05.2.06.19.05.19.05.17.04.16.05.16.04.15.05.13.04.14.04-.56 1.49-.16.06-.16.06-.18.06-.19.05-.2.06-.2.06-.22.05-.23.06-.25.05-.25.06-.27.05-.28.05-.3.05-.31.05-.32.05-.34.05-.35.05-.36.04-.39.05-.4.04-.42.04-.44.04-.46.04-.48.03-.5.03-.52.03-.54.02-.57.03-.58.01-.6.02-.63.01-.64.01H1.67l-.72-.01-.74-.01-.75-.02-.77-.02-.78-.02-.8-.03-.8-.03-.82-.04-.82-.04-.84-.04-.83-.04-.84-.05-.85-.05-.84-.05-.84-.06-.84-.06-.84-.06-.82-.06-.82-.06-.8-.07-.8-.07-.77-.06-.76-.07-.74-.07-.72-.07-.7-.07-.67-.07-.65-.07-.62-.07-.58-.07-.55-.07-.54-.07-.52-.07-.5-.07-.47-.08-.45-.07-.43-.08-.41-.08-.37-.07-.35-.08-.32-.09-.3-.08-.26-.08-.23-.09"/></clipPath><filter id="a"><feTurbulence baseFrequency=".05" numOctaves="3" result="noise" type="noise"/><feDisplacementMap in="SourceGraphic" in2="noise" scale="2"/></filter></defs><rect width="100%" height="100%" x="-100" y="-100" fill="#F08080"/><path fill="#FFEBCD" stroke="#000" stroke-linejoin="round" stroke-width="1.667" d="m52.16-.76-.06 2.81.11-.11-.26 2.6.15-.14-.07 1.4-.15 1.92.07.89-.4 3.02-.3 1.6.36-1.03v-.5l-.35 2.85-.42 2.23-.23 1.31.16-.55-.42 3.29.08-.62-.47 2.16-.52 2.4.1.13-.25.94.17-.98-.47 2.06-.44 1.32-.37 1.52-.15.85-.85 2.47-.21.59-.31 1.35.12-.26-1.04 2.87.06.05-.25.12-.38 1.34-.58 1.22-.66 1.49-.48 1.27-.33.98.13-.6-1.12 2.34.05.17-.82 1.69-.88 1.36-.37.71-.49.74.4-.48-.63 1.41-2.04 2.87.16-.22-.97 1.76-.36.17-1.31 2.19.55-.95-1.2 1.67-.67.89.72-.98-1.56 2.27-.76.55-.89.97.01.11-.93 1.14-.29.22-1.7 1.78.96-.88-2.92 2.43.7-.22-1.88 1.6.6-.84-1.52 1.4-.66.33-.43.25-.2.3-.82.67-1.18.72-1.67 1.15.57-.56-1.3 1.01-1.27.52-.71.35-.94.68-1.04.47 1.13-.82-1.71 1.02-1.51.55-.58.04-1.63.73.44-.36-.92.46-.37.11-.71-.09-.81.45-2.2.31.05-.11-1.16.26.18.2-1.35-.06-.17.11-1.04.16-1.26.03-1.38-.07h-1.27l-.64-.18.23.11-1.03.03-.33-.13-1.55-.3.53.08-1.77-.3-.76.07-1.2-.35-.7-.32-1.21-.46-.04.06-1.47-.41-.46-.09-.61-.18-.3-.19-1.61-.62-1.38-.62-.52-.3.45.29-1.38-.94-.69-.39-.12-.1-1.97-1.06-.15-.29-1.2-.56-.49-.33-1.61-1.18-.83-.55.88.66-.94-.79-.87-.82-.39-.33-.84-.54-.34-.47-1.47-1.16-1.04-1.53.06.44-.1-.2-1.55-1.85-1.24-1.4.63.83-1.61-1.7-1.1-1.73.04.13-1.27-1.81.04-.09-.38-.18-.48-1.06-1.05-1.78-.92-.79.41.36-1.55-2.71.09-.14-.34-.31-.44-.98-.54-.55-.49-1.01-.4-1.2-1.25-2.22.01-.57-1.03-2.29-.25.02.48 1-1.05-2.6-.31-1.12-.41-1.3-.24.01-.13-.78-.37-1-.27-.27-.18-1.32-.84-2.31-.32-1.36-.41-1.45-.77-2.47.61 1.84-1.03-4.37.39 1.34-.61-2.6-.13.14-.46-2.44.29.71-.68-4.2.08.34-.36-1.63.04-.66-.45-1.96-.01-.05-.06-1.35-.1-2.44.13.99-.44-2.92.16.59-.2-1.83.05-2.18-.05.44-.15-3.4.02-2.01.15 1.38.01-2.43.04-1.66-.01-1.18.22-1.79.04-.73-.07-1.01.22-2.04-.04-.31.18-.93-.02.19.29-2.13.16-2.65-.08 1.12.34-1.62.39-2.4-.19.47.18-.65.5-3.15.29-.83.54-2.72-.31 1.66.31-2.05.58-2.36.16-.08.16-1 .79-2.55.08-.58.92-2.08-.5 1.4.78-2.11-.15.03.6-2.12.47-.37.73-2.12.47-1.16-.03-.03.55-1.33.15-.49.92-1.53.83-1.76.31-.58-.06-.4 1.3-2.3.6-1.29.37.05.31-.75.85-1.27.59-1.21.71-.64-.56.37 1.08-1.48 1.55-1.93.53-.55.16-.32.75-1.04-.45.19 1.54-1.57.77-.95.23-.12.96-1.08.58-.74-.25.43 1.77-1.77 1.38-1.15-.33.21 1.03-1.06.85-.43.92-.79.07-.35 1.87-1.25-.03-.08.77-.35.6-.67.61-.27 1.53-.97.37-.11.47-.33 1.38-.66.67-.11-.61.12 2.48-.99-.39.1 1.19-.5 1.04-.41h-.35l2.11-.59 1.13-.44.48-.14 1.05-.04.74-.23.7-.12.6-.19.54-.11.03.22 1.42-.32.31-.04 1.89-.24.07.3 1.9-.17.59-.13-.53.1 1.01.15 1.22-.06.38-.01 1.79.13.58.24.27.08 2.68.56-.22.02-.49-.03 2.53.44-.31-.12 1.5.69.49.06 1.55.55-1.11-.45 1.41.69 1.12.37.99.65.8.27.45.38 1.29.53 1.29.87-.59-.59 1.13.74 1.7 1.11.35.32.93.82.68.36.13.12.71.6.67.51.28.39 1.63 1.43 1.02 1.06.27.03.04.09 1.31 1.47-.05-.3 1.32 1.65.32.31.71.87.14.02 1 1.43.66.68.56.97 1.46 1.73.07.35-.09.14-.01-.16.97 1.22 1.55 2.82.65 1-.11-.26.96 1.54.25.58.22.78.29.31 1.31 2.31.42 1.05-.36-.33 1.14 1.72.48 1.45.26.42.99 2.49-.37-.76.46 1.38.66 1.53 1.01 2.52.18 1.45-.14-1.27.88 3.25.1 1.02.31.81-.14-.54.65 2.83.23 1.17.19.59.32 1.63.26 1.1-.02.16.36 1.83.24.28.15 1.47.15 1.23.31 1.74.04.11.12 1.45.1 1.24.46 2.48-.02.01.07 1.76.12 2.77-.11-1.3.1.14.13 2.06-.03 3.6-.02.43.12.07-.06 2.81" filter="url(#a)"/><path fill="#fff" d="m-26.42-1.1.35-.1.38-.09.4-.1.44-.09.45-.09.49-.09.5-.09.52-.09.55-.08.57-.08.58-.08.6-.07.61-.07.63-.07.64-.06.73-.11.75-.1.76-.1.78-.08.8-.08.8-.06.82-.06.83-.05.83-.04.84-.03.84-.03.84-.01.85-.01h.84l.84.01.83.02.82.02.82.03.81.04.8.04.79.05.77.05.76.06.74.06.73.06.71.07.69.07.68.07.66.08.63.07.62.08.6.08.57.08.56.08.54.08.51.08.5.08.47.08.46.08.43.08.42.07.39.08.38.07.36.07.35.07.33.07.31.07.3.06.29.07.27.06.26.06.25.06.24.06.22.05.22.05.2.06.19.05.19.05.17.04.16.05.16.04.15.05.13.04.14.04-.56 1.49-.16.06-.16.06-.18.06-.19.05-.2.06-.2.06-.22.05-.23.06-.25.05-.25.06-.27.05-.28.05-.3.05-.31.05-.32.05-.34.05-.35.05-.36.04-.39.05-.4.04-.42.04-.44.04-.46.04-.48.03-.5.03-.52.03-.54.02-.57.03-.58.01-.6.02-.63.01-.64.01H1.67l-.72-.01-.74-.01-.75-.02-.77-.02-.78-.02-.8-.03-.8-.03-.82-.04-.82-.04-.84-.04-.83-.04-.84-.05-.85-.05-.84-.05-.84-.06-.84-.06-.84-.06-.82-.06-.82-.06-.8-.07-.8-.07-.77-.06-.76-.07-.74-.07-.72-.07-.7-.07-.67-.07-.65-.07-.62-.07-.58-.07-.55-.07-.54-.07-.52-.07-.5-.07-.47-.08-.45-.07-.43-.08-.41-.08-.37-.07-.35-.08-.32-.09-.3-.08-.26-.08-.23-.09" filter="url(#a)" transform="translate(28.26 -27.57)"/><path fill="#fff" d="m27.48-1.01-.29-.08-.32-.07-.34-.08-.38-.07-.4-.07-.42-.07-.45-.07-.47-.07-.49-.06-.51-.06-.53-.06-.55-.06-.57-.05-.59-.05-.6-.05-.65-.08-.67-.08-.7-.07-.72-.06-.75-.06-.76-.04-.78-.05-.8-.03-.81-.03-.82-.03-.83-.01-.85-.02h-1.7l-.85.01-.86.01-.85.02-.85.02-.85.02-.84.03-.83.04-.82.04-.81.04-.8.04-.79.05-.77.05-.75.05-.74.05-.72.06-.7.05-.68.06-.66.06-.64.06-.62.05-.6.06-.58.06-.56.06-.53.06-.52.05-.49.06-.47.06-.45.05-.43.05-.41.06-.4.05-.37.05-.36.05-.34.04-.33.05-.31.04-.3.05-.29.04-.27.04-.26.04-.24.04-.24.04-.22.04-.21.03-.19.04-.19.03-.18.04-.17.03-.16.03-.15.03.19 1.14.15.04.16.05.16.05.17.04.18.05.19.05.2.04.21.05.22.05.24.05.24.04.25.05.27.05.27.05.29.04.3.05.32.04.33.05.34.05.36.04.38.04.39.05.41.04.43.04.44.04.47.03.48.04.51.03.52.03.54.03.56.03.58.02.6.02.62.02.64.02.66.01.67.01.69.01H.88l.75-.01.76-.01.78-.01.78-.02.8-.02.8-.02.82-.03.81-.03.83-.03.82-.04.83-.04.82-.04.82-.05.83-.05.81-.05.81-.06.8-.06.79-.06.78-.06.76-.06.75-.07.73-.07.72-.07.63-.05.62-.06.61-.06.59-.06.58-.06.56-.07.55-.06.52-.07.51-.06.49-.07.46-.07.44-.07.42-.07.39-.07.37-.07" filter="url(#a)" transform="translate(-33.15 -24.8)"/><g fill="none" stroke="#000" transform="translate(28.26 -27.57)"><path stroke-linejoin="round" stroke-width="1.667" d="m-27.99-.29-.02-.06.02-.07.06-.07.11-.08.14-.08.18-.09.22-.09.26-.09.28-.09.32-.09.35-.1.38-.09.4-.1.44-.09.45-.09.49-.09.5-.09.52-.09.55-.08.57-.08.58-.08.6-.07.61-.07.63-.07.64-.06.73-.11.75-.1.76-.1.78-.08.8-.08.8-.06.82-.06.83-.05.83-.04.84-.03.84-.03.84-.01.85-.01h.84l.84.01.83.02.82.02.82.03.81.04.8.04.79.05.77.05.76.06.74.06.73.06.71.07.69.07.68.07.66.08.63.07.62.08.6.08.57.08.56.08.54.08.51.08.5.08.47.08.46.08.43.08.42.07.39.08.38.07.36.07.35.07.33.07.31.07.3.06.29.07.27.06.26.06.25.06.24.06.22.05.22.05.2.06.19.05.19.05.17.04.16.05.16.04.15.05.13.04.14.04.12.04.12.04.11.03.1.04.1.03.09.03.09.04.08.03.07.03.07.03" filter="url(#a)"/><path stroke-linejoin="round" stroke-width="2.222" d="m-27.56-.83-.14.11-.09.11-.06.1-.02.1.02.1.06.09.1.09.13.1.16.08.2.09.23.09.26.08.3.08.32.09.35.08.37.07.41.08.43.08.45.07.47.08.5.07.52.07.54.07.55.07.58.07.62.07.65.07.67.07.7.07.72.07.74.07.76.07.77.06.8.07.8.07.82.06.82.06.84.06.84.06.84.06.84.05.85.05.84.05.83.04.84.04.82.04.82.04.8.03.8.03.78.02.77.02.75.02.74.01.72.01h2.05l.64-.01.63-.01.6-.02.58-.01.57-.03.54-.02.52-.03.5-.03.48-.03.46-.04.44-.04.42-.04.4-.04.39-.05.36-.04.35-.05.34-.05.32-.05.31-.05.3-.05.28-.05.27-.05.25-.06.25-.05.23-.06.22-.05.2-.06.2-.06.19-.05.18-.06.16-.06.16-.06.15-.05.14-.06.14-.06.12-.05.12-.06.11-.05.11-.06.1-.05.09-.06.08-.05" filter="url(#a)"/><circle cx="-13.585" cy="-2.355" r="4.32" clip-path="url(#b)" filter="url(#a)"/><circle cx="-13.615" cy="-1.66" r="4.864" clip-path="url(#b)" filter="url(#a)"/><circle cx="-12.735" cy="-.12" r="4.208" clip-path="url(#b)" filter="url(#a)"/><circle cx="-12.41" cy="-.69" r="4.844" clip-path="url(#b)" filter="url(#a)"/><circle cx="-11.31" cy="-.92" r="3.82" clip-path="url(#b)" filter="url(#a)"/><circle cx="-11.325" cy="-.465" r="3.216" clip-path="url(#b)" filter="url(#a)"/><circle cx="-13.035" cy="-2.99" r="3.624" clip-path="url(#b)" filter="url(#a)"/><circle cx="-11.145" cy=".235" r="3.434" clip-path="url(#b)" filter="url(#a)"/><circle cx="-10.275" cy="1.02" r="3.054" clip-path="url(#b)" filter="url(#a)"/><circle cx="-11.355" cy="-2.805" r="3.252" clip-path="url(#b)" filter="url(#a)"/></g><g fill="none" stroke="#000" transform="translate(-33.15 -24.8)"><path stroke-linejoin="round" stroke-width="2.222" d="m28.63-.33.04-.05.01-.06-.04-.07-.06-.06-.11-.07-.13-.08-.17-.07-.2-.07-.23-.08-.26-.07-.29-.08-.32-.07-.34-.08-.38-.07-.4-.07-.42-.07-.45-.07-.47-.07-.49-.06-.51-.06-.53-.06-.55-.06-.57-.05-.59-.05-.6-.05-.65-.08-.67-.08-.7-.07-.72-.06-.75-.06-.76-.04-.78-.05-.8-.03-.81-.03-.82-.03-.83-.01-.85-.02h-1.7l-.85.01-.86.01-.85.02-.85.02-.85.02-.84.03-.83.04-.82.04-.81.04-.8.04-.79.05-.77.05-.75.05-.74.05-.72.06-.7.05-.68.06-.66.06-.64.06-.62.05-.6.06-.58.06-.56.06-.53.06-.52.05-.49.06-.47.06-.45.05-.43.05-.41.06-.4.05-.37.05-.36.05-.34.04-.33.05-.31.04-.3.05-.29.04-.27.04-.26.04-.24.04-.24.04-.22.04-.21.03-.19.04-.19.03-.18.04-.17.03-.16.03-.15.03-.14.03-.13.02-.12.03-.12.03-.11.02-.1.03-.1.02-.09.03-.09.02-.07.02" filter="url(#a)"/><path stroke-linejoin="round" stroke-width="2.222" d="m28.75-.41-.03.07-.08.07-.1.07-.15.07-.18.07-.22.07-.24.07-.28.07-.31.07-.34.07-.37.07-.39.07-.42.07-.44.07-.46.07-.49.07-.51.06-.52.07-.55.06-.56.07-.58.06-.59.06-.61.06-.62.06-.63.05-.72.07-.73.07-.75.07-.76.06-.78.06-.79.06-.8.06-.81.06-.81.05-.83.05-.82.05-.82.04-.83.04-.82.04-.83.03-.81.03-.82.03-.8.02-.8.02-.78.02-.78.01-.76.01-.75.01h-2.17l-.69-.01-.67-.01-.66-.01-.64-.02-.62-.02-.6-.02-.58-.02-.56-.03-.54-.03-.52-.03-.51-.03-.48-.04-.47-.03-.44-.04-.43-.04-.41-.04-.39-.05-.38-.04-.36-.04-.34-.05-.33-.05-.32-.04-.3-.05-.29-.04-.27-.05-.27-.05-.25-.05-.24-.04-.24-.05-.22-.05-.21-.05-.2-.04-.19-.05-.18-.05-.17-.04-.16-.05-.16-.05-.15-.04-.14-.05-.13-.04-.12-.05-.12-.04-.12-.04-.1-.05-.1-.04-.1-.04-.09-.04-.08-.04" filter="url(#a)"/><circle cx=".755" cy="2.345" r="4.598" clip-path="url(#c)" filter="url(#a)"/><circle cx="1.74" cy="1.12" r="3.572" clip-path="url(#c)" filter="url(#a)"/><circle cx="1.31" cy="-.625" r="4.646" clip-path="url(#c)" filter="url(#a)"/><circle cx="1.09" cy="-.515" r="4.036" clip-path="url(#c)" filter="url(#a)"/><circle cx="1.28" cy="1.705" r="3.856" clip-path="url(#c)" filter="url(#a)"/><circle cx=".455" cy="-2.195" r="3.26" clip-path="url(#c)" filter="url(#a)"/><circle cx="1.26" cy="1.275" r="4.418" clip-path="url(#c)" filter="url(#a)"/><circle cx="1.54" cy="2.085" r="3.854" clip-path="url(#c)" filter="url(#a)"/><circle cx="1.19" cy="-1.775" r="4.19" clip-path="url(#c)" filter="url(#a)"/><circle cx="1.565" cy="1.275" r="4.986" clip-path="url(#c)" filter="url(#a)"/></g><g fill="none" stroke="#C04000" stroke-linejoin="round" stroke-width="2"><path d="m37.24-54.88 1.13 2 .65 1.11.45.75.35.63.28.55.22.47.14.38.04.23-.08.06-.23-.15-.37-.38-.56-.63-.74-.92-.96-1.23-1.18-1.57-1.39-1.89-1.6-2.21-1.89-2.62-2.39-3.28" filter="url(#a)"/><path d="m36.37-56.08.02.16.35.54.56.88.57.94.44.79.27.56.1.34-.05.17h-.19l-.33-.16-.47-.32-.63-.51-.8-.74-1-.97-1.23-1.24-1.48-1.55-1.78-1.89-2.05-2.23-2.31-2.54-2.54-2.82-2.91-3.19M7.92-77.18l1.48.3.58.27.15.3-.25.33-.67.34-1.09.39-1.49.46-1.91.55-2.37.61-2.9.67-3.49.72-4.14.79-4.85.87-5.58.97m.4-3.73.66-.36.69-.31.56-.22.46-.15.39-.1.29-.03.18.07.04.18-.1.3-.26.44-.47.6-.71.79-.99.97-1.28 1.18-1.58 1.37-1.89 1.57-2.24 1.83-2.64 2.15-3.04 2.5-3.3 2.71m24.35-19.3.66-.12.86-.11.9-.13.87-.12.83-.11.79-.1.79-.09.78-.08.76-.07.69-.06.57-.04.38-.03h.13l-.16.01-.48.03-.75.05-1 .09-1.24.08" filter="url(#a)"/><path d="m3.31-78.18 1.29.15.86.2.7.23.54.23.35.22.19.23.03.25-.13.28-.32.31-.53.34-.77.37-1.01.4-1.25.46-1.5.51-1.76.56-2.04.6-2.35.64-2.7.68-3.09.74-3.49.78-3.9.86-4.34.96M36.27-56.1l.78 1.4.2 1.2-.54.64-1.25.16-1.91-.19-2.55-.45-3.19-.68-3.85-.89-4.54-1.13-5.26-1.41-6.01-1.74-6.8-2.07-7.63-2.36-8.52-2.64" filter="url(#a)"/><path d="m-1.26-78.06 1.28-.12.56-.02.34.06.29.11.27.16.2.22.04.29-.15.36-.39.44-.68.51-.97.57-1.29.64-1.6.73-1.92.82-2.26.92-2.62 1.01-3.02 1.12-3.47 1.26-3.95 1.45-4.39 1.59m66.04 17.83.82 1.66.2.92-.09.66-.31.59-.55.51-.81.41-1.09.29-1.39.16-1.67.06-1.96-.04-2.28-.19-2.61-.35-2.98-.55-3.34-.74-3.72-.95-4.09-1.14-4.47-1.31-4.87-1.47-5.25-1.63-5.64-1.81-6.01-2.03-6.36-2.28-6.73-2.53" filter="url(#a)"/><path d="m44.92-39.76.42 1.37.26 1.37-.04 1.1-.38.77-.7.49-1 .28-1.31.08-1.6-.11-1.9-.28-2.2-.45-2.52-.63-2.83-.81-3.18-1.01-3.53-1.24-3.88-1.45-4.24-1.65-4.62-1.84-5.01-2.01-5.4-2.2-5.79-2.41-6.15-2.66-6.5-2.93-6.85-3.18m55.8-2.97.49.63.35.58.25.64.13.64-.09.56-.36.43-.63.28-.89.17-1.11.12-1.32.08-1.55.03-1.83-.07-2.12-.21-2.46-.38-2.79-.54-3.14-.66-3.48-.79-3.83-.89-4.19-1.03-4.56-1.16-4.91-1.34-5.26-1.5-5.74-1.63m1.58-6.27.27-.18.88-.35.95-.36.99-.34 1.03-.33 1.09-.33 1.11-.32 1.09-.28 1.04-.26.94-.21.83-.18.72-.15.58-.11.47-.09.32-.07.2-.04.07-.02-.07.01-.21.03-.37.06-.56.08-.82.12-1.08.19" filter="url(#a)"/><path d="m36.28-55.94.04.34-.19.97-.77 1.04-1.57.8-2.39.51-3.2.31-3.98.17-4.76.08-5.56.04H7.48l-7.3-.08-8.18-.23-9.01-.47-9.87-.64" filter="url(#a)"/><path d="m36.27-56.1 1.02 1.5.89 1.44.61 1.03.39.67.22.45.09.27-.04.13-.15-.04-.31-.25-.49-.5-.7-.79-.92-1.1-1.16-1.43-1.47-1.84-1.83-2.34-2.23-2.88-2.52-3.34m15.89 21.76.35 1.06.19.73-.02.44-.23.16-.43-.06-.65-.29-.92-.62-1.23-1.05-1.59-1.53-1.97-2.05-2.37-2.57-2.77-3.12-3.19-3.68-3.59-4.2-3.9-4.72-4.18-5.26m-29.04-6 .45-.17 1.13-.31 1.22-.28 1.2-.21 1.14-.15 1.11-.13 1.06-.1 1.01-.09.98-.07.97-.07.94-.06.9-.06.82-.07.69-.06.49-.07.26-.06.04-.05-.17-.03-.31-.03-.37-.04-.37-.03" filter="url(#a)"/><path d="m-25.77-68.07.91-.46 1.08-.47 1.28-.39 1.48-.29 1.64-.17 1.82-.08 2 .01 2.16.07 2.32.13 2.44.19 2.53.24 2.62.3 2.7.36 2.78.41 2.86.45 2.89.46 2.92.44 2.91.44 2.92.42 2.91.46 2.92.5 2.85.52 2.69.45" filter="url(#a)"/><path d="m40.29-49.78.08.5-.15.43-.39.36-.73.2-1.16-.06-1.63-.34-2.11-.6-2.61-.88-3.13-1.18-3.67-1.5-4.24-1.85-4.8-2.17-5.38-2.51-5.96-2.88-6.57-3.36-7.29-3.9m33.57.03.18.22.12.3-.05.32-.3.29-.62.21-1.04.04-1.52-.17-2.03-.36-2.57-.54-3.11-.7-3.72-.86-4.39-1.03-5.15-1.2-5.87-1.41m-2.66-2.91.97-.07.96-.09.99-.05 1.02-.01 1.1.02 1.21.05 1.3.06 1.38.06 1.39.07 1.35.07 1.25.07 1.12.06 1 .06.88.05.8.06.66.03h.45l.17-.05-.25-.08" filter="url(#a)"/><path d="m13.98-75.32.87.44.47.51.09.55-.26.61-.63.68-1.04.74-1.45.83-1.87.95-2.31 1.07-2.78 1.17-3.3 1.24-3.84 1.33-4.43 1.44-5.05 1.6-5.66 1.8-6.18 1.91-6.61 1.84" filter="url(#a)"/><path d="m30.18-63.79.14.19.06.5-.34.42-.78.28-1.22.17-1.67.1-2.16.01-2.69-.13-3.31-.32-3.97-.53-4.64-.75-5.27-.92-5.87-1.03-6.48-1.16-7.27-1.32m-11.51 1.27.91-.82.78-.63.68-.55.6-.47.49-.36.37-.23.26-.09.13.04.01.19-.13.36-.33.55-.54.78-.78 1-1.01 1.24-1.25 1.46-1.5 1.7-1.76 1.95-2.06 2.22-2.35 2.45-2.65 2.66M5.95-77.73l1.65.38.82.23.77.23.87.26.93.31.93.32.88.32.8.3.74.3.69.29.62.27.54.25.41.19.26.13.07.05-.12-.05-.31-.12-.48-.2-.67-.26-.9-.36-1.21-.51-1.48-.67m10.75 5.4.76.61.55.41.45.36.42.38.41.41.38.42.29.38.16.3-.01.19-.2.07-.39-.03-.58-.14-.78-.24-1-.37-1.22-.49-1.49-.64-1.77-.78-2.07-.94-2.4-1.09-2.74-1.28-3.13-1.47-3.53-1.7m-11.44-1.25.62-.13.53-.1.49-.06.51-.04.53-.03h.52l.46.04.33.08.15.12-.04.17-.25.22-.43.28-.61.35-.8.42-1.03.5-1.26.58-1.55.67-1.84.74-2.17.82-2.53.9-2.89 1.04-3.23 1.17" filter="url(#a)"/><path d="m-1.26-78.06 1.39-.09.95.04.92.15 1.1.21 1.29.24 1.39.27 1.43.3 1.38.32 1.28.31 1.11.28.89.21.63.13.38.03.13-.04.06-.06m21.21 16.63.73 1.08.68.99.49.75.44.7.48.78.56.89.57.92.51.82.4.66.26.47.13.27.03.12-.07-.03-.19-.21-.33-.43-.52-.72-.72-1.02-.92-1.32-1.1-1.6-1.27-1.88-1.43-2.16m-51.22-13.29.85-.28 1.29-.09 1.55.11 1.84.28 2.17.4 2.46.52 2.73.63 2.96.73 3.17.82 3.35.87 3.5.95 3.63 1.07 3.72 1.21 3.8 1.31 3.8 1.34 3.72 1.24 3.63 1.16" filter="url(#a)"/><path d="M53.95 2.12 53.83.23l-.1-1.24-.08-1.34-.11-1.44-.17-1.32-.2-1.1-.2-.96-.18-.96-.19-1.05-.22-1.16-.26-1.25-.27-1.28-.28-1.23-.29-.99-.2-.49-75.01-54.06 1.16-1.03.67-.63.58-.64.59-.75.61-.9.61-1 .61-1.05.59-1.06.57-1.09.55-1.14.54-1.25.54-1.32.57-1.33.62-1.21.7-.98.79-.74.91-.68 1.01-.9 1-1.34.61-1.97-33.48 26.4 1.2.62 1.06.29 1.19-.14 1.16-.4 1.03-.43.92-.3.89-.17.91-.07.96-.01 1.01.04 1.01.05h.97l.87-.11.8-.3.77-.53.81-.78.77-.77.45.25-2.82 2.71-.56-6.16.83-1.26 1.04.03.95-.03.75-.61.58-1.17.49-1.43.49-1.37.53-1.25.51-1.31.44-1.6.38-1.96.39-2.15.45-2.09.47-2.08.48-2.25.93-2-16.04 37.48-.69-1.39.2-1.66.75-1.05.79-.74.64-.71.46-.87.35-1.11.26-1.34.22-1.56.16-1.71.15-1.82.16-1.87.2-1.91.26-1.97.27-2.12.24-2.3.23-2.35.3-2.18.45-1.86.58-1.71.65-1.95 1.38-1.93-15.41 49.64.48-.07.43-.67.61-.77.76-.77.76-.79.68-.87.58-.95.54-.98.56-.89.61-.75.7-.58.77-.41.83-.26.86-.12.9-.02.97.02 1.11-.07 1.21-.3.7-.79" filter="url(#a)"/><path d="m-50.8-27.46.12.51.45-.74.54-1.05.52-1.11.49-1.12.43-1.14.38-1.1.32-1.01.26-.91.25-.82.31-.81.44-.83.56-.9.65-1.03.64-1.2.53-1.26-4.19 11.66-.11.88-.12 1.06-.03 1.23.15 1.28.29 1.33.36 1.41.37 1.45.31 1.43.22 1.32.06 1.2-.09 1.07-.2.98-.24.96-.2.95-.1.97.04.96.19.95.29.93.33.95.28.99.24 1.02.25 1.06.53 1.31 91.32-32.22-.32-1.43-.33-.94-.35-.85-.39-.93-.42-1.01-.44-1.04-.43-1.04-.4-1.04-.4-1.04-.4-1.05-.42-1-.41-.94-.39-.88-.36-.82-.32-.79-.31-.68-.42-.73-14.45-35.33.71 3.47.52 2.17.48 1.51.43 1.27.36 1.3.31 1.44.34 1.52.47 1.43.62 1.15.73.84.71.73.51.95.25 1.41.06 1.83.07 1.87.32 1.37.65.59.63.28-.63 2.02" filter="url(#a)"/><path d="m28.83-65.35-.42-.63-.36-2-.03-2.99.13-3.14.09-2.73-.05-2.17-.24-1.62-.44-1.16-.64-.88-.77-.89-.74-1.3-.55-2.02-.27-2.7-.18-2.86-.53-2.17-1.56.03 1.17 24.73-.79-.73-.79-.8-.8-.8-.74-.68-.71-.57-.73-.51-.76-.52-.79-.54-.79-.56-.79-.55-.77-.52-.73-.48-.7-.45-.68-.42-.7-.4-.73-.38-.76-.35-.76-.32-.73-.28-.7-.25-.78-.29-.96-.46-.81-.62m1.98 4.15.2-.42-.42-1.08-.78-.89-.92-.44-.94-.18-.93-.15-.87-.28-.81-.46-.76-.61-.73-.74-.76-.83-.82-.92-.89-1-.94-1.04-.95-.98-.9-.78-.82-.55-.76-.47-.74-.67-.78-.99-.86-1.01-.95-.68-1.25-1.54" filter="url(#a)"/></g><g fill="none" stroke="#000"><circle cx="7.02" cy="8.536" r="1.554" filter="url(#a)"/><circle cx="9.224" cy="5.616" r="1.252" filter="url(#a)"/><circle cx="8.1" cy="8" r="1.352" filter="url(#a)"/><circle cx="6.964" cy="8.44" r="1.082" filter="url(#a)"/><circle cx="8.264" cy="5.636" r="2.046" filter="url(#a)"/><circle cx="7.56" cy="6.564" r="1.242" filter="url(#a)"/><circle cx="7.488" cy="5.256" r="2.744" filter="url(#a)"/><circle cx="5.5" cy="6.508" r="2.772" filter="url(#a)"/><circle cx="8.216" cy="6.152" r="1.49" filter="url(#a)"/><circle cx="7.084" cy="6.436" r="2.218" filter="url(#a)"/><circle cx="-8.844" cy="8.034" r="2.508" filter="url(#a)"/><circle cx="-9.572" cy="7.606" r="1.054" filter="url(#a)"/><circle cx="-8.108" cy="10.782" r="2.692" filter="url(#a)"/><circle cx="-8.764" cy="9.05" r="2.266" filter="url(#a)"/><circle cx="-9.512" cy="10.238" r="1.896" filter="url(#a)"/><circle cx="-9.236" cy="10.854" r="2.232" filter="url(#a)"/><circle cx="-7.844" cy="9.154" r="1.218" filter="url(#a)"/><circle cx="-9.776" cy="10.698" r="1.594" filter="url(#a)"/><circle cx="-6.488" cy="7.274" r="1.614" filter="url(#a)"/><circle cx="-8.172" cy="9.562" r="1.148" filter="url(#a)"/></g><path fill="#D77F8C" stroke="#000" stroke-linejoin="round" stroke-width="3" d="m32.62 55.98-.14.41.06-.28-.07.21-.29 1.09.07.12-.21.1-.29.49.01.11-.41.56.31-.44-1.03 1.17.54-.51-.25.37-.42.36-.43.25-.93.74.24-.14.2-.15-1.1.7-.83.52.51-.35-.41.22-1.1.55-.35.14-.8.31-.05.07.2-.11-1.56.55-.82.2 1.12-.28-1.29.34.12-.04-1.42.34.03.01-.8.15-.86.13.26-.02-.7.09-2.09.26-.72.04-.26.04.54-.04-.75.04-.5.04-2.43.02 1.39.01-2.29-.03.14.01-1.34-.07-1.35-.11.8.07-1.76-.17 1.18.12-2.59-.31-.16-.03 1.03.15-2.13-.33-.19-.04-1.75-.39.05.03-.25-.08-.85-.21-1.13-.33 1.08.31-2.37-.75h.03l.57.23-1.53-.58-1-.36-.14-.08h.12l-.65-.24-.75-.38-.47-.25-.06-.08-.44-.26-.18-.09-.32-.18-.67-.44-1.05-.73-.52-.47-.32-.29.42.36-.77-.76-.39-.31.43.37-.85-.98-.21-.12-.15-.41-.32-.41.17.28-.45-1.01.11.38-.3-1.12-.13-.12.02.08-.13-1.02-.02.18.08-.61.04-.52.01-.01.12-.51.09-.51v-.01.29l.15-.7.02.28.63-1.15-.15.17.5-.55-.11-.12.43-.27-.13.08.47-.54.41-.26.27-.35.74-.48.17-.09-.27.23.75-.47 1.07-.65.41-.14.33-.14-.47.19.32-.22.64-.25 1.27-.4-.33.1.89-.28.48-.16.92-.24.17-.05 1.58-.36-.58.1 1.75-.3-.23.06.62-.09 1.35-.17.27-.02-.19.01.5-.06.67-.05.58-.04.32-.01 2.43-.04h-.48l1.15.02 1.74.08 1.14.09-.44-.04 1.51.15.42.06-.95-.12 2.56.35-.59-.1 2.13.4.04.01 1.01.23-.07-.03.63.15-.69-.15 1.16.26 1.9.61-.78-.28 2 .68h-.01l.82.29-.93-.33 1.27.48.85.44.81.32.74.48-.24-.22.08.09 1.47.84-.51-.32.14.09.08.09 1.34.9.47.46.18.11.33.38.07.11.57.5.17.21.28.49.1.02.41.81-.18-.29-.01-.08.62 1.12-.05-.09v.21l.05.22.23.53.14.52-.05.22.07.42" filter="url(#a)"/></svg>