<svg xmlns="http://www.w3.org/2000/svg" width="500" height="500" viewBox="-100 -100 200 200"><defs><clipPath id="c"><path d="m27.03-3.55-.28-.14-.3-.14-.33-.13-.35-.13-.37-.13-.4-.13-.43-.12-.44-.12-.48-.11-.49-.11-.52-.11-.55-.09-.57-.1-.59-.09-.61-.08-.58-.14-.62-.14-.65-.12-.7-.11-.73-.1-.77-.08-.8-.08-.84-.06-.87-.05-.89-.03-.92-.03-.95-.01H9.05l-1 .02-1.02.03L6-6.14l-1.04.05-1.05.05-1.06.07-1.05.07-1.06.08-1.05.09-1.05.09-1.04.1-1.03.1-1.02.11-1 .11-.99.12-.97.12-.95.12-.94.13-.91.13-.88.13-.86.14-.83.13-.81.14-.78.14-.74.14-.72.14-.69.14-.66.14-.62.14-.6.15-.56.14-.53.14-.51.14-.47.15-.45.14-.41.15-.39.14-.36.15-.34.15-.3.14-.28.15-.26.15-.22.15-.2.16-.17.15-.15.16-.12.15-.09.16-.07.16-.05.16-.68 1.08.42.14.44.15.45.14.47.15.48.15.51.15.51.15.54.15.55.15.57.15.58.15.59.15.62.15.62.14.65.15.66.15.67.14.7.15.71.14.73.14.74.14.76.13.78.13.79.13.8.12.81.12.82.11.84.1.85.1.85.09.86.09.87.07.87.07.88.06.88.05.88.03.89.03.88.02.89.01h.88l.87-.01.88-.02.86-.03.86-.05.85-.05.84-.06.84-.08.82-.08.8-.1.8-.11.78-.11.76-.13.75-.13.73-.15.71-.15.7-.16.68-.17.65-.18.64-.18.61-.19.6-.19.57-.2.55-.2.53-.21.51-.16.49-.16.48-.17.46-.17.45-.17.43-.18.41-.17.4-.17.38-.18.37-.17.35-.18.33-.17.31-.17.3-.18.27-.16"/></clipPath><clipPath id="b"><path d="m-25.64-3.23.24-.17.27-.17.29-.17.32-.17.34-.16.36-.16.4-.16.41-.15.44-.15.47-.14.49-.13.52-.13.54-.12.57-.12.58-.1.53-.2.58-.18.61-.17.66-.14.71-.13.74-.12.78-.09.82-.08.85-.06.89-.05.92-.03.94-.01h.97l1 .02 1.02.03 1.03.05 1.05.06 1.06.07 1.08.09 1.08.09 1.08.11 1.08.11 1.09.13 1.08.13 1.07.14 1.06.15 1.05.15 1.04.16 1.02.16 1 .17.98.17.96.18.93.18.91.18.88.18.85.18.82.18.79.19.75.18.72.18.69.19.65.18.62.18.58.19.55.18.51.18.48.18.44.18.41.18.38.17.35.18.32.18.28.18.25.18.22.17.19.18.15.18.13.18.09.18.07.18.03.18v.18l-.02.18-.06.18 2.54.92-.55.13-.55.12-.58.13-.58.13-.61.13-.62.13-.63.12-.65.13-.66.13-.67.13-.69.12-.7.13-.72.12-.72.12-.74.12-.76.12-.77.12-.79.12-.8.11-.81.11-.83.11-.84.1-.84.1-.86.1-.87.09-.87.09-.88.07-.89.08-.89.06-.89.06-.89.05-.9.04-.89.04-.9.03-.89.01-.89.01h-1.76l-.87-.02-.86-.03-.86-.03-.84-.04-.83-.06-.82-.06-.81-.07-.79-.08-.78-.08-.76-.1-.75-.1-.73-.11-.71-.12-.69-.12-.68-.13-.65-.14-.64-.14-.62-.14-.6-.15-.57-.16-.56-.15-.54-.16-.51-.17-.5-.16-.47-.16-.46-.17-.44-.14-.43-.14-.41-.15-.4-.14-.39-.15-.37-.14-.36-.15-.34-.15-.33-.15-.32-.14-.3-.15-.28-.14-.27-.15-.26-.14-.24-.14"/></clipPath><filter id="a"><feTurbulence baseFrequency=".05" numOctaves="3" result="noise" type="noise"/><feDisplacementMap in="SourceGraphic" in2="noise" scale="2"/></filter></defs><rect width="100%" height="100%" x="-100" y="-100" fill="#E6E6FA"/><path fill="beige" stroke="#000" stroke-linejoin="round" stroke-width="1.667" d="m69.67.95.05.73.09-.42-.35 2.05.07 1.29.01 3.49-.04-.89-.21 2.48-.14-.12-.27 2.01-.28 4.02-.04.64-.15-.83-.16 1.5-.18 1.3-.19.53-.21 1.32-.6 3.21-.47 1.6-.05.03-.24 2.37.18-1.3-.89 2.95-.29.82-.29.36-.48 2.08-.36 1.36-.66 1.11-.7 2.17.21-.55-1.25 2.8-1.01 2.16.25-.1-.01.41-.99 1.59-.76 1.53-.4.95-.5 1.39-.02-.26-1.16 2.2-.77 1.47-.45.54-.39-.01-1.26 2.44-.79 1.56-.67.88-.7.12-1.14 2.38-.55.34-.23.52-1 1.11.08-.26-1.45 1.77-1.49 1.53-.73 1.16-.28.11-.7.84-.69.45-.96 1.42-.79.56-1.92 1.48.7-.55-2.91 2.62-.16.02.11-.04-1.68 1.74-1.85.81.89-.64-2.94 2.21-.33-.06v.34l-2.06.95.18-.13-1.7 1.49-.43.18-.97.37-2.55 1.05-1.45.88 1.73-1.18-2.47 1.44-1.75.62-.35.23.42-.33-2.4.98-2.48.8 1.14-.54-.47.39-2.14.73-.32-.19-1.34.18-1.35.5-1.57.3.85-.06-2.86.13-1.51.48.52-.03-3.89.02-.9.04.3-.03.68.06-3.1.23-1.94.17.56-.27-1.55-.05-.57.1-.31-.33-1.56.27-1.31-.49-1.92-.2-2.09-.31.21-.13-.94.12-3.15-.78.89.43-1.29-.56-2.07-.84.87.65-2.19-.72-1.03-.46-.19-.13-3-1.1.57.06-.73-.12-1.3-.37-2.6-1.6.89.88-2.33-1.34-.98-1.1-1.96-.92.01.07-.43-.41-.06-.01-1.53-.72-.88-.46-2.21-1.51-.7-.82-.41-.35-.44-.24-2.01-1.81-.04.2-.52-.49-.81-1.03-1.13-.89-.29-.05-2.09-1.9-1.05-1.65-.75-.27.78.31-1.82-2.19-1.28-.63-.14-.5-.19-.14-2.72-3.74.35.55-1.68-2.48.6 1.12-.31-.25-.82-1.52-1.89-2.97-.47-.64.43.29-.82-1.4-1.07-1.36-.38-1.17-.16.3-1.36-2.58.01.1-1.38-3.15-.07-.16-.17-.61-.73-2.13-.69-.63-.33-1.64-.27-.22-1.43-4.07.27 1.12-1.31-4.52v.5-.78l-.88-2.41-.42-1.6.07-.95-.25.39.32.3-1.04-4.64.2 1.04-.38-2.09-.35-1.02-.02-.72-.34-3.37-.41-.7.11-.86-.3-1.29-.11-2.04.03-.61-.17-1.94.13 1.22-.38-3.2.01-2.47-.04.2V-.52l.02.13-.03-2.05.15.04.04-3.28.26-2.35-.17 1.46-.03-1.75.34-3.59.36-1.19-.04-1.09.2.91.28-2.78.16-2.41-.12 1.53.32-2.11.52-2.1.13-.46.2-.32.26-2.16.82-3.01-.07.13.66-2.11.28-.75.09-.53.57-1.6 1.17-3.47-.47.99 1.4-2.96-.18.27.84-2.45.52-1.35.43-.13.45-1.71.18.1.99-2.52.14.06.03-.25 1.38-2.73 1.61-2.2.34-1.21-.33.92 1.79-2.39-.08-.88.55.05 1.19-2.37.15-.39 1.27-1.31 1.28-1.29-1.12.89 1.23-1.53 1.69-2.02.06.08 1.49-1.51.05-.36 1.31-1.4-.22.2 2.51-2.17.03-.39.32-.58 1.33-.68 1.21-1.48.74-.15-.01.06.57-.4 1.23-1.54 2.42-1.29-.49.04.78-.42 1.06-.76 1.58-1.48 1.34-.57.92-.24.61-.21 1.75-1.49.81-.09.3-.62 1.44-.6 1.14-.24.95-.38.87-.54-.24.13 3.22-1.1.13-.02 1.38-.55 1.76-.72.29-.09 2.24-.3.03-.05 1.18-.22.96-.17.16.13.32-.34 3.72-.29.77-.3.22.2 1.25-.48 1.71.09.51-.24 2.11.19 1.48-.13.96-.12 1.43.29-.97.18 2.18.15 1.06-.09.51.21 2.23-.1-.24.04 1.47.55.82-.09.52.38 2.34.25.83.41 1.5.35-.41-.04 3.59.95.02-.28-.82-.13 2.05.77 2.02.68.58.19 1.89 1.3-.33-.44 2 1.17-.52-.67 2.76 1.69-.41-.42 1.71.97 1.06.94.41-.04 2.18 1.56-.04.06 1.29.6.82.75-.17.05 1.51 1.16 1.31 1.17.19.01.49.65 3.17 2.37-1.22-.99 2.18 1.89.02.14 1.28 1.14.5.58.07-.15.86.93 1.1 1.44 1.62 1.6.58 1.14.83.76.12.45.48.4 1.03 1.65 1.23 1.57 1.42 1.94.21.24.03.32 1.73 2.35.47.65-.09.74.8.92 1.03 1.72.66 1.73-.6-1.27.73 1.23 1.14 2.45.14.53 1.25 2.39.8 1.7-.55-1 1.43 3.37.05.15-.02-.16.57 1.46.09 1.25.39.34 1.09 3.45.32 1.89.35 1.23.08.34.6 1.71.1 1.34.33.05.06.45.26 2.43.48 2.86.2-.85.19 2.3.22 3.29.2.58.1-.17.28 1.8-.31-.24.15 3.06.23-.56.01 2.09.31 3.85-.23 1.51.09.82.05.73" filter="url(#a)"/><path fill="#fff" d="m-25.64-3.23.24-.17.27-.17.29-.17.32-.17.34-.16.36-.16.4-.16.41-.15.44-.15.47-.14.49-.13.52-.13.54-.12.57-.12.58-.1.53-.2.58-.18.61-.17.66-.14.71-.13.74-.12.78-.09.82-.08.85-.06.89-.05.92-.03.94-.01h.97l1 .02 1.02.03 1.03.05 1.05.06 1.06.07 1.08.09 1.08.09 1.08.11 1.08.11 1.09.13 1.08.13 1.07.14 1.06.15 1.05.15 1.04.16 1.02.16 1 .17.98.17.96.18.93.18.91.18.88.18.85.18.82.18.79.19.75.18.72.18.69.19.65.18.62.18.58.19.55.18.51.18.48.18.44.18.41.18.38.17.35.18.32.18.28.18.25.18.22.17.19.18.15.18.13.18.09.18.07.18.03.18v.18l-.02.18-.06.18 2.54.92-.55.13-.55.12-.58.13-.58.13-.61.13-.62.13-.63.12-.65.13-.66.13-.67.13-.69.12-.7.13-.72.12-.72.12-.74.12-.76.12-.77.12-.79.12-.8.11-.81.11-.83.11-.84.1-.84.1-.86.1-.87.09-.87.09-.88.07-.89.08-.89.06-.89.06-.89.05-.9.04-.89.04-.9.03-.89.01-.89.01h-1.76l-.87-.02-.86-.03-.86-.03-.84-.04-.83-.06-.82-.06-.81-.07-.79-.08-.78-.08-.76-.1-.75-.1-.73-.11-.71-.12-.69-.12-.68-.13-.65-.14-.64-.14-.62-.14-.6-.15-.57-.16-.56-.15-.54-.16-.51-.17-.5-.16-.47-.16-.46-.17-.44-.14-.43-.14-.41-.15-.4-.14-.39-.15-.37-.14-.36-.15-.34-.15-.33-.15-.32-.14-.3-.15-.28-.14-.27-.15-.26-.14-.24-.14" filter="url(#a)" transform="translate(31.2 -26.33)"/><path fill="#fff" d="m27.03-3.55-.28-.14-.3-.14-.33-.13-.35-.13-.37-.13-.4-.13-.43-.12-.44-.12-.48-.11-.49-.11-.52-.11-.55-.09-.57-.1-.59-.09-.61-.08-.58-.14-.62-.14-.65-.12-.7-.11-.73-.1-.77-.08-.8-.08-.84-.06-.87-.05-.89-.03-.92-.03-.95-.01H9.05l-1 .02-1.02.03L6-6.14l-1.04.05-1.05.05-1.06.07-1.05.07-1.06.08-1.05.09-1.05.09-1.04.1-1.03.1-1.02.11-1 .11-.99.12-.97.12-.95.12-.94.13-.91.13-.88.13-.86.14-.83.13-.81.14-.78.14-.74.14-.72.14-.69.14-.66.14-.62.14-.6.15-.56.14-.53.14-.51.14-.47.15-.45.14-.41.15-.39.14-.36.15-.34.15-.3.14-.28.15-.26.15-.22.15-.2.16-.17.15-.15.16-.12.15-.09.16-.07.16-.05.16-.68 1.08.42.14.44.15.45.14.47.15.48.15.51.15.51.15.54.15.55.15.57.15.58.15.59.15.62.15.62.14.65.15.66.15.67.14.7.15.71.14.73.14.74.14.76.13.78.13.79.13.8.12.81.12.82.11.84.1.85.1.85.09.86.09.87.07.87.07.88.06.88.05.88.03.89.03.88.02.89.01h.88l.87-.01.88-.02.86-.03.86-.05.85-.05.84-.06.84-.08.82-.08.8-.1.8-.11.78-.11.76-.13.75-.13.73-.15.71-.15.7-.16.68-.17.65-.18.64-.18.61-.19.6-.19.57-.2.55-.2.53-.21.51-.16.49-.16.48-.17.46-.17.45-.17.43-.18.41-.17.4-.17.38-.18.37-.17.35-.18.33-.17.31-.17.3-.18.27-.16" filter="url(#a)" transform="translate(-35.82 -26.08)"/><g fill="none" stroke="#000" transform="translate(31.2 -26.33)"><path stroke-linejoin="round" stroke-width="1.667" d="m-26.97-1.77.06-.11.07-.12.08-.13.1-.14.12-.14.14-.16.16-.16.17-.16.2-.17.23-.17.24-.17.27-.17.29-.17.32-.17.34-.16.36-.16.4-.16.41-.15.44-.15.47-.14.49-.13.52-.13.54-.12.57-.12.58-.1.53-.2.58-.18.61-.17.66-.14.71-.13.74-.12.78-.09.82-.08.85-.06.89-.05.92-.03.94-.01h.97l1 .02 1.02.03 1.03.05 1.05.06 1.06.07 1.08.09 1.08.09 1.08.11 1.08.11 1.09.13 1.08.13 1.07.14 1.06.15 1.05.15 1.04.16 1.02.16 1 .17.98.17.96.18.93.18.91.18.88.18.85.18.82.18.79.19.75.18.72.18.69.19.65.18.62.18.58.19.55.18.51.18.48.18.44.18.41.18.38.17.35.18.32.18.28.18.25.18.22.17.19.18.15.18.13.18.09.18.07.18.03.18v.18l-.02.18-.06.18-.08.18-.11.19-.14.18-.17.19-.19.19-.22.18-.24.19-.27.2-.29.19-.31.19" filter="url(#a)"/><path stroke-linejoin="round" stroke-width="2.222" d="m-27.03-.64.08.12.1.12.12.12.13.12.15.13.16.14.18.13.19.14.21.13.22.15.24.14.26.14.27.15.28.14.3.15.32.14.33.15.34.15.36.15.37.14.39.15.4.14.41.15.43.14.44.14.46.17.47.16.5.16.51.17.54.16.56.15.57.16.6.15.62.14.64.14.65.14.68.13.69.12.71.12.73.11.75.1.76.1.78.08.79.08.81.07.82.06.83.06.84.04.86.03.86.03.87.02h1.76l.89-.01.89-.01.9-.03.89-.04.9-.04.89-.05.89-.06.89-.06.89-.08.88-.07.87-.09.87-.09.86-.1.84-.1.84-.1.83-.11.81-.11.8-.11.79-.12.77-.12.76-.12.74-.12.72-.12.72-.12.7-.13.69-.12.67-.13.66-.13.65-.13.63-.12.62-.13.61-.13.58-.13.58-.13.55-.12.55-.13.52-.12.51-.12.5-.13.48-.12.46-.12.45-.11.43-.12.42-.11.4-.11.39-.11" filter="url(#a)"/><circle cx="3.489" cy="-4.425" r="3.452" clip-path="url(#b)" filter="url(#a)"/><circle cx="2.759" cy="-5.505" r="4.266" clip-path="url(#b)" filter="url(#a)"/><circle cx="5.184" cy="-5.915" r="3.344" clip-path="url(#b)" filter="url(#a)"/><circle cx="5.524" cy="-3.925" r="4.194" clip-path="url(#b)" filter="url(#a)"/><circle cx="6.554" cy="-3.145" r="4.234" clip-path="url(#b)" filter="url(#a)"/><circle cx="2.459" cy="-1.435" r="4.234" clip-path="url(#b)" filter="url(#a)"/><circle cx="4.144" cy="-4.405" r="3.046" clip-path="url(#b)" filter="url(#a)"/><circle cx="6.644" cy="-5.12" r="3.232" clip-path="url(#b)" filter="url(#a)"/><circle cx="4.264" cy="-5.945" r="4.298" clip-path="url(#b)" filter="url(#a)"/><circle cx="6.299" cy="-6.175" r="3.378" clip-path="url(#b)" filter="url(#a)"/></g><g fill="none" stroke="#000" transform="translate(-35.82 -26.08)"><path stroke-linejoin="round" stroke-width="2.222" d="m28.53-2.29-.06-.11-.07-.11-.1-.12-.11-.12-.14-.13-.16-.13-.18-.14-.2-.13-.23-.14-.25-.13-.28-.14-.3-.14-.33-.13-.35-.13-.37-.13-.4-.13-.43-.12-.44-.12-.48-.11-.49-.11-.52-.11-.55-.09-.57-.1-.59-.09-.61-.08-.58-.14-.62-.14-.65-.12-.7-.11-.73-.1-.77-.08-.8-.08-.84-.06-.87-.05-.89-.03-.92-.03-.95-.01H9.05l-1 .02-1.02.03L6-6.14l-1.04.05-1.05.05-1.06.07-1.05.07-1.06.08-1.05.09-1.05.09-1.04.1-1.03.1-1.02.11-1 .11-.99.12-.97.12-.95.12-.94.13-.91.13-.88.13-.86.14-.83.13-.81.14-.78.14-.74.14-.72.14-.69.14-.66.14-.62.14-.6.15-.56.14-.53.14-.51.14-.47.15-.45.14-.41.15-.39.14-.36.15-.34.15-.3.14-.28.15-.26.15-.22.15-.2.16-.17.15-.15.16-.12.15-.09.16-.07.16-.05.16-.02.16.01.16.02.17.05.17.07.17.09.17.12.17.13.17.15.17.18.18" filter="url(#a)"/><path stroke-linejoin="round" stroke-width="2.222" d="m28.62-1.42-.08.12-.11.12-.12.14-.14.14-.16.14-.19.15-.2.16-.22.16-.24.16-.26.17-.27.16-.3.18-.31.17-.33.17-.35.18-.37.17-.38.18-.4.17-.41.17-.43.18-.45.17-.46.17-.48.17-.49.16-.51.16-.53.21-.55.2-.57.2-.6.19-.61.19-.64.18-.65.18-.68.17-.7.16-.71.15-.73.15-.75.13-.76.13-.78.11-.8.11-.8.1-.82.08-.84.08-.84.06-.85.05-.86.05-.86.03-.88.02-.87.01H2.4l-.89-.01-.88-.02-.89-.03-.88-.03-.88-.05-.88-.06-.87-.07-.87-.07-.86-.09-.85-.09-.85-.1-.84-.1-.82-.11-.81-.12-.8-.12-.79-.13-.78-.13-.76-.13-.74-.14-.73-.14-.71-.14-.7-.15-.67-.14-.66-.15-.65-.15-.62-.14-.62-.15-.59-.15-.58-.15-.57-.15-.55-.15-.54-.15-.51-.15-.51-.15-.48-.15-.47-.15-.45-.14-.44-.15-.42-.14-.4-.14-.39-.14-.37-.14-.35-.14-.34-.13-.32-.14-.31-.13-.29-.13-.28-.12-.26-.13" filter="url(#a)"/><circle cx="-4.95" cy="2.154" r="3.676" clip-path="url(#c)" filter="url(#a)"/><circle cx="-1.595" cy="6.049" r="3.124" clip-path="url(#c)" filter="url(#a)"/><circle cx="-2.755" cy="1.594" r="3.176" clip-path="url(#c)" filter="url(#a)"/><circle cx="-1.885" cy="3.789" r="3.082" clip-path="url(#c)" filter="url(#a)"/><circle cx="-1.83" cy="5.519" r="4.342" clip-path="url(#c)" filter="url(#a)"/><circle cx="-2.915" cy="6.494" r="3.344" clip-path="url(#c)" filter="url(#a)"/><circle cx="-4.595" cy="1.579" r="3.92" clip-path="url(#c)" filter="url(#a)"/><circle cx="-4.31" cy="5.569" r="4.374" clip-path="url(#c)" filter="url(#a)"/><circle cx="-4.845" cy="3.609" r="4.53" clip-path="url(#c)" filter="url(#a)"/><circle cx="-5.63" cy="3.109" r="4.882" clip-path="url(#c)" filter="url(#a)"/></g><g fill="none" stroke="#000" stroke-linejoin="round" stroke-width="2"><path d="m-10.56-84.35 2.7-.19 1.89-.04 1.81.09 2.04.17 2.31.25 2.51.32 2.62.37 2.62.41 2.53.43 2.4.44 2.25.43 2.12.42 2.01.38 1.87.37 1.74.38m34.59 31.95.7 1.37.21.7-.03.4-.16.37-.28.36-.48.25-.75.01-1.08-.29-1.42-.65-1.79-1.01-2.16-1.36-2.51-1.68-2.87-1.97-3.22-2.22-3.58-2.49-3.98-2.78-4.41-3.15-4.83-3.61-5.25-4.13-5.62-4.65-6.06-5.12" filter="url(#a)"/><path d="m-15.45-83.4 1.62-.19 1.28-.09 1.35-.03h1.53l1.76.02 2 .02 2.16.03 2.24.04 2.24.06 2.21.1 2.17.11 2.1.11 1.99.12 1.79.09 1.53.06 1.26.05 1.07.07.96.1.59.07" filter="url(#a)"/><path d="m11.18-83.91 1.69.29 1.03.33.67.35.41.36.13.37-.18.42-.46.49-.73.58-1.01.68-1.34.75-1.71.81-2.13.86-2.55.89-2.96.93-3.37.98-3.82 1.05-4.28 1.14-4.78 1.24-5.28 1.34-5.85 1.45-6.43 1.55-7.02 1.6m88.93 6.5.63.76.82 1.13.77 1.1.58.88.34.62.12.4-.08.18-.31-.03-.52-.26-.78-.53-1.04-.82-1.33-1.15-1.66-1.49-1.98-1.83-2.33-2.16-2.67-2.52-3.05-2.91-3.49-3.39-3.92-3.87" filter="url(#a)"/><path d="m29.98-77.16.82.66.66.53.44.48.13.4-.22.31-.57.24-.9.2-1.21.14-1.55.07-1.91-.01-2.33-.11-2.8-.22-3.34-.33-3.91-.45-4.53-.56-5.17-.68-5.82-.8-6.45-.95-6.9-1.09m3.58-4.64.8-.09 1-.1 1.42-.15 1.66-.15 1.68-.15 1.6-.12 1.51-.11 1.46-.08 1.37-.06 1.23-.04 1.02-.01h.72l.38.02.05.01-.21-.03-.42-.09-.76-.13m-24.74 4.33 2.17-.74 1.37-.49 1.16-.41 1.06-.35.91-.26.71-.15.48-.06.25.02.02.1-.17.17-.39.25-.65.35-.97.47-1.37.62-1.84.78-2.33.95-2.82 1.08-3.37 1.18" filter="url(#a)"/><path d="m28.27-78.13 1.22.81.63.61.16.46-.3.35-.81.22-1.34.1-1.89-.02-2.46-.11-3.05-.22-3.7-.31-4.41-.42-5.16-.52-6-.66-6.94-.81-7.9-1m10.79-5.48.9-.11 1.17-.01.98.02.64.08.28.12-.05.17-.34.19-.68.22-1.07.27-1.55.35-2.1.43-2.69.52-3.27.6-3.79.66-4.31.71" filter="url(#a)"/><path d="m49.19-60.16.46.55.08.38-.1.38-.32.35-.65.19-1.09-.11-1.61-.47-2.16-.84-2.71-1.2-3.27-1.58-3.85-1.96-4.5-2.36-5.21-2.77-6.01-3.22-6.83-3.69-7.58-4.15m-9.69-4.08 1.25-.29 1.21-.12 1.13-.05 1-.01.75.04.43.09.11.12-.23.16-.55.19-.89.21-1.29.26-1.76.33-2.31.41-2.91.52-3.56.62-4.22.68" filter="url(#a)"/><path d="m-6.84-84.64.58-.15.56-.05.6.02.56.1.4.2.16.33-.18.45-.58.6-1 .73-1.4.86-1.78.98-2.17 1.1-2.58 1.25-3.04 1.41-3.54 1.62-4.08 1.83-4.63 2.07-5.21 2.3-5.79 2.5m96.23 16.01.13.6-.26.63-.6.6-1.07.46-1.61.25-2.16.09-2.68-.03-3.2-.1-3.76-.21-4.36-.37-5-.61-5.68-.89-6.34-1.18-7.04-1.47-7.73-1.73-8.45-1.92-9.15-2.07-9.84-2.21-10.67-2.26m74.18-5.97 1.41 1.26.75.73.44.48.22.32.07.25-.08.21-.28.13-.52-.01-.86-.23-1.22-.5-1.61-.76-1.99-1.02-2.4-1.27-2.85-1.55-3.36-1.9-3.94-2.31-4.54-2.73-5.01-3.08" filter="url(#a)"/><path d="m2.63-84.96 1.66.09 1.11.06.84.08.63.13.45.19.27.24.11.3-.04.34-.24.39-.48.43-.76.46-1.08.51-1.43.54-1.81.6-2.18.66-2.57.75-2.96.85-3.35.93-3.77.99-4.23 1.03-4.73 1.1-5.31 1.26-5.87 1.46" filter="url(#a)"/><path d="m50.62-58.55.98 1.51.77 1.27.44.94.1.67-.19.46-.46.31-.74.16-1.05-.02-1.38-.2-1.7-.4-2.05-.6-2.4-.79-2.75-.96-3.11-1.13-3.48-1.3-3.88-1.53-4.27-1.8-4.68-2.11-5.09-2.43-5.55-2.75-6.04-3.05-6.58-3.29-7.14-3.47" filter="url(#a)"/><path d="m43.16-66.98.19.4.07.56-.3.57-.65.63-.98.75-1.34.86-1.78.9-2.28.88-2.82.82-3.35.79-3.88.79-4.4.81-4.93.81-5.49.78-6.08.73-6.72.68-7.36.65-8.02.65-8.66.63-9.29.62-9.98.73m80.42-21.3 1.24 1 .83.74.59.59.44.53.26.45.01.33-.28.21-.58.06-.89-.08-1.19-.22-1.5-.33-1.82-.43-2.18-.53-2.59-.66-3.03-.83-3.51-1.05-3.98-1.27-4.45-1.48-4.97-1.66-5.62-1.82-6.44-2.03" filter="url(#a)"/><path d="m-23.81-80.13.95-.36 1.14-.31 1.48-.3 1.78-.29 1.97-.28 2.1-.23 2.18-.18 2.22-.11 2.22-.05h2.22l2.2.03 2.2.03 2.21.04 2.22.03 2.21.03 2.16.03 2.06.04 1.93.02 1.74.01 1.51-.03 1.22-.09.89-.14.72-.13m27.24 17.25.39.31.84.95 1.06 1.27 1.07 1.32.98 1.24.86 1.11.77 1.01.7.93.64.86.53.73.37.5.16.22-.09-.1-.32-.4-.53-.68-.75-.99-1.03-1.38-1.45-1.94" filter="url(#a)"/><path d="m5.87-84.9.84.12.9.09.72.13.59.19.51.23.4.25.25.28.03.3-.22.31-.53.33-.86.33-1.19.35-1.52.38-1.84.42-2.19.47-2.56.51-2.99.54-3.45.57-3.93.61-4.43.63-4.93.62-5.45.57m86.53 34.89.81 1.73.13.8-.35.24-.77-.2-1.21-.64-1.66-1.07-2.12-1.45-2.59-1.79-3.07-2.16-3.57-2.59-4.13-3.13-4.71-3.78-5.36-4.47-6.05-5.17-6.78-5.83-7.64-6.49" filter="url(#a)"/><path d="m19.03-81.99-.2-.12-.1.24-.01.52-.23.69-.69.79-1.26.84-1.86.89-2.45.97-3.05 1.08-3.66 1.2-4.28 1.35-4.96 1.49-5.65 1.64-6.37 1.75-7.13 1.88-7.96 1.99-8.87 2.18" filter="url(#a)"/><path d="m19.03-81.99-.04-.15.37.13.78.33.87.4.73.39.49.32.23.26-.01.18-.25.12-.51.07-.79.02-1.13-.03-1.51-.09-1.91-.17-2.33-.26-2.78-.36L8-81.3l-3.78-.57-4.45-.66-5.22-.72m64.59 38.53-.12-.33.38.74.53 1.09.49 1.07.37.87.19.55-.02.19-.24-.19-.46-.57-.68-.93-.87-1.26-1.09-1.59-1.33-1.98-1.65-2.46-2.03-3.08-2.4-3.76-2.64-4.32M35.53-73.24l1.31 1.04 1.05.87.97.79.96.8.93.77.82.68.66.58.47.43.27.27.06.1-.14-.05-.34-.21-.54-.37-.77-.57-1.05-.83-1.4-1.15-1.81-1.51-2.31-1.96" filter="url(#a)"/><path d="m2.17-85.43.7.28.28.29.19.35v.43l-.32.56-.72.72-1.15.89-1.58 1.09-2.01 1.29-2.47 1.49-2.96 1.7-3.49 1.92-4.06 2.13-4.65 2.31-5.28 2.5-5.98 2.72-6.73 3.04-7.46 3.5m87.72-9.66-.15-.05.75.8.96 1.02.99 1.08 1 1.14 1.03 1.21 1.09 1.29 1.11 1.35 1.07 1.31.96 1.19.79.98.61.75.43.52.24.29.02-.01-.35-.49-.85-1.18" filter="url(#a)"/><path d="m45.89-64.34 1.14 1.38 1.02 1.23.78.98.6.8.5.7.46.67.41.65.32.58.18.44.01.26-.19.06-.4-.16-.6-.37-.82-.59-1.06-.84-1.3-1.09-1.59-1.39-1.87-1.69-2.17-1.98-2.45-2.26-2.75-2.54-3.07-2.85-3.39-3.18" filter="url(#a)"/><path d="m29.98-77.16.99.78 1.18.88 1.32 1.04 1.36 1.15 1.38 1.22 1.4 1.29 1.44 1.36 1.47 1.4 1.47 1.4 1.44 1.36 1.37 1.27 1.22 1.12 1.03.91.79.67.59.48.44.35.32.28m-64.93-23.11.69-.11.77-.06.52.02.24.14.01.26-.19.37-.37.49-.63.63-.98.8-1.41 1.01-1.88 1.24-2.38 1.49-2.89 1.77-3.43 2.05-4.02 2.33-4.64 2.62-5.34 2.96M2.17-85.43l.9.26.88.22 1.2.2 1.39.2 1.45.2 1.42.2 1.32.21 1.2.22 1.1.21.97.19.81.18.56.13.22.05-.18-.05-.63-.17-1.25-.3" filter="url(#a)"/><path d="m33.63-74.7.25.2.34.32.13.31-.1.28-.37.21-.67.11-1.05-.02-1.48-.18-1.99-.34-2.56-.54-3.16-.74-3.78-.97-4.43-1.19-5.16-1.42-6.03-1.63-7.02-1.8m38.98 8.86 1.1 1.02.43.81-.07.73-.5.74-.94.73-1.46.7-2.02.67-2.59.64-3.19.63-3.78.62-4.37.67-4.95.72-5.54.78-6.18.83-6.86.82-7.62.79-8.42.8-9.18.81-9.71.7" filter="url(#a)"/><path d="m33.63-74.7.16.23.08.43-.29.52-.69.59-1.1.64-1.56.67-2.04.7-2.58.69-3.14.68-3.75.64-4.41.62-5.11.6-5.82.6-6.55.6-7.29.63-8.02.69-8.72.73-9.39.71" filter="url(#a)"/><path d="m58.48-46.45.21.82-.11.38-.21.55-.37.67-.63.62-.97.45-1.36.19-1.77-.07-2.19-.35-2.61-.59-3.01-.8-3.41-.97-3.81-1.1-4.22-1.23-4.65-1.4-5.11-1.6-5.59-1.87-6.11-2.17-6.64-2.49-7.21-2.77-7.79-2.99-8.37-3.15-8.87-3.33m68.52 1.77-.27-.18.37.41.33.4.09.24-.21.03-.5-.14-.8-.28-1.12-.44-1.5-.65-1.96-.97-2.52-1.35-3.14-1.77-3.76-2.19-4.39-2.59-5.18-3.02" filter="url(#a)"/><path d="m-11.04-84.14.6.03h1.58l2.1.07 2.28.19 2.38.29 2.51.38 2.67.45 2.79.52 2.87.57 2.88.6 2.82.64 2.74.66 2.66.67 2.57.66 2.47.62 2.28.54 2 .43M-.27-85.18l1.36-.04 1.34.16 1.36.31 1.5.38 1.69.43 1.86.45 1.96.47 1.99.49 1.97.52 1.91.53 1.83.52 1.73.48 1.58.42 1.39.34 1.12.26.83.17.56.12" filter="url(#a)"/><path d="m-2.89-85.13.88-.1 1.1.01.86.08.47.16.08.24-.26.31-.55.38-.87.46-1.24.53-1.66.65-2.16.77-2.69.91-3.24 1.08-3.79 1.23-4.29 1.37-4.81 1.43-5.5 1.52m66.26.81.38.42.91.78 1 .84.99.82.97.81.9.74.76.63.56.48.32.29.05.08-.23-.16-.52-.4-.79-.63-1.07-.87-1.36-1.15-1.64-1.48m22.21 27.37-.15-.36.31.64.4.95.31.88.15.64-.07.31-.32-.04-.58-.42-.84-.77-1.1-1.12-1.34-1.43-1.59-1.72-1.82-2.02-2.09-2.36-2.4-2.79-2.77-3.33-3.18-3.94-3.63-4.57-4.04-5.15" filter="url(#a)"/><path d="m-29.86-76.88.86-.5.94-.61.8-.49.68-.35.57-.21.45-.09.29.04.13.17-.04.31-.22.45-.44.63-.69.81-1 1.03-1.35 1.27-1.71 1.54-2.09 1.79-2.47 2.03L-38-66.8l-3.25 2.53-3.67 2.86-4.1 3.34" filter="url(#a)"/><path d="m1.21-85.31.87.02.59.16.45.18.4.2.3.21.11.25-.13.32-.41.4-.71.5-1 .59-1.31.69-1.64.79-2 .88-2.41.97-2.85 1.07-3.32 1.16-3.81 1.23-4.26 1.29-4.7 1.35-5.21 1.47-5.91 1.72m46.92-14.05 1.77.28 1.27.31 1.06.28.92.24.72.18.49.13.23.1.01.07-.25.04-.57-.02-1.02-.11-1.54-.23-2.11-.38-2.66-.53-3.07-.68m54.12 42.45.86 1.79.29.97-.09.52-.39.2-.69-.11-1.01-.38-1.31-.6-1.6-.78-1.91-.97-2.25-1.24-2.62-1.58-3.03-2.01-3.47-2.5-3.93-2.99-4.36-3.48-4.8-3.94-5.23-4.38-5.74-4.79-6.35-5.22-7.14-5.74" filter="url(#a)"/><path d="m35.53-73.24 1.19.98.7.68.37.51.1.4-.18.28-.55.12-.97-.07-1.43-.27-1.94-.46-2.46-.66-2.98-.83-3.5-.99-4.01-1.14-4.57-1.33-5.27-1.58-6.15-1.87-7.17-2.16m44.27 12.76 1.29 1.21.38.61-.19.28-.7.05-1.16-.1-1.61-.2-2.1-.32-2.68-.5-3.37-.78-4.13-1.11-4.92-1.46-5.64-1.79-6.3-2.09-6.98-2.42-7.74-2.83" filter="url(#a)"/><path d="m2.17-85.43.7.27.28.27.19.32-.02.38-.34.49-.74.62-1.18.77-1.64.93-2.11 1.11-2.59 1.3-3.1 1.5-3.69 1.7-4.31 1.9-4.98 2.09-5.65 2.29-6.38 2.48-7.13 2.64m21.64-17.67 1.39-.54 1.38-.45 1.31-.35 1.21-.26 1.05-.19.87-.16.68-.11.5-.09.35-.05.16-.02-.14.03-.59.1-1.16.19-1.75.28M48.61-61.3l-40.75-.63-1.36.96 4.72 1.94 5.2 1.21 3.97-.52 1.8-2 .08-2.16.01-.79.74.93-.25 1.18-4.57-.97-10.18-4.13-11.89-5.56-5.39-4.38 8.69-3.58 18.8-2.6" filter="url(#a)"/><path d="m13.52-83.66-16.46 6.05 8.33 3.68 9.12 5.49 8.71 6.45 7.37 5.16 2.78 2.3-3.69-.67-8.59-2.66-9.55-3.46-6.97-3.58-3.27-3.43-.43-2.94 1.22-1.71 2.11.11 1.49 1.54-.66 2.46 5.68 7.05 51.34 23.13" filter="url(#a)"/><path d="m-26.69-78.67 32.1 5.52 1.73-1.8.31-.91 4.53 1.58 7.1 3.3 5.99 3.63 2.68 2.89-.1 1.63-.86.16-.19-1.25.22-2.32-.73-2.64-2.61-2.02-3.42-.45.83 2.63 14.39 8.6 25.13 17.81" filter="url(#a)"/><path d="m-15.45-83.4-18.13 12.91 2.84.63 12.03-3.62 13.56-2.5 11.88-.03 9.61 1.9 7.75 2.92 5.92 3.2L33.3-65l-.59 2.38-5.12 1.45-8.64.35-9.23-.63-6.07-1.3-.54-1.77 4.08-2.35 4.56-3.18-.14-3.56-9.1-1.88-21.64 4.42-36.91 20.47" filter="url(#a)"/><path d="m5.87-84.9 27.39 17.99 6.61 7.09-8.11-2.93-11.77-5.01-7.42-2.57-.98-.15 2.64.24 1.87-1.01-1.63-2.51-4.95-3.28-6.49-2.94-6.74-1.63-6.27.15-1.22.86 21.04-3.6" filter="url(#a)"/><path d="m31.04-76.22 17.59 21.38.51 3.44-8-1.96-11.9-3-12.71-2.94-11.41-3.14-8.84-3.26-5.94-2.51-3.57-.79-1.98 1.25-.27 2.42 2.47 1.6 3.02-1.5-6.94-5.28-17.83-3.32" filter="url(#a)"/><path d="m-35.05-73.45 6.26 3.65 15.19 1.76 14.67 3.48 12.33 2.75 8.7.78 4.94-.96 1.71-1.97-1.07-2.37-3.45-2.31-4.99-1.74-5.16-.62-3.95.81-2.18 2.03-1.03 2.48-1.09 1.91-1.78.56-1.91-1.18-.91-2.92.33-4.43.37-5.26-1.37-4.68-4.39-2.49-8.17.2" filter="url(#a)"/><path d="M45.03-65.27 26.17-67.2l-12.03 3.5-12.52-1.95-5.94-4.24-.27-3.19.49-.79-.77 1.4.43 2.49L.75-67.6l10.66 1.66 13.04 1.24 11.34 1.61 7.77 2.36 4.55 2.07-3.08-6.61" filter="url(#a)"/><path d="m-45.4-64.83 18.24-8.47 22.93-.36 19.6 4.15 10.43 3.65.63.91-6.56-1.2L9.8-67.67l-10.02-.48-7.29.91-3.46 1.67-.08 1.39 1.94.26 2.76-1.09 3.06-1.96 3.35-2.08 3.58-1.57 3.38-.8 2.83.02 2.38.95 1.74 1.77-1 1.69-6.61.07-4.53-1.11 39.15-.84" filter="url(#a)"/><path d="m-22.86-80.51 34.67 17.15.39.44-6.68-2.54-7.57-2.06-4.44-.81-.3-.14 2.43-.31 3.49-.88 3.78-1.33 3.78-1.27 3.28-.52 2.06.87.32 2.47-1.44 3.45-2.84 2.98-3.41.86-2.19-1.63 3.3-1.49 17.77 5.95 42.11 30.49" filter="url(#a)"/><path d="m-35.05-73.45 17.79-4.6 15.02-.29 5.28 2.92-2.87 3.67-5.37 3.08-2.42 2.36 2.53 1.54 6.33.43 8.02-.27 8 .28 6.07 1.61 2.18 1.82.52.52 10.12 2.15 22.39 12.24" filter="url(#a)"/><path d="m45.03-65.27-12.91 9.74-18.22-5.25-8.39-5.76-4.29-3.53-2.35-2.39-.84-1.91-.9-1.09-2.71.04-4.31.87-3.16.95 1.7.63 8.81.84 14.84 2.34 15.28 4.58 3.86 2.46L-.27-85.18" filter="url(#a)"/><path d="m31.04-76.22-15.9-.43-1.58 1.94 1.88 1.5 4.76 1.97 4.92 2.13 2.71 1.49-.19.36-2.51-.73-3.76-1.35-4.07-1.39-3.79-1.11-3.21-.85-2.41-.74-1.36-.68-.27-.52.53-.31.92-.02 1.19.5 1.28 1.52-.4 2.78-6.58 2.69-16.25-1.96-5.96-12.59" filter="url(#a)"/><path d="M63.53-35.17 29.74-57.22l-4.91-4.36-3.67-1.87-2.46-1.01-1.76-1-3.12-1.57-4.79-1.87-4.68-1.46-2.16-.53 1.91.39 5.85.91 8.02.97 7.44.77 4.02.64-1.67.43-8.92-.83-15.89-3.96-15.33-6.83 5.54-6.24" filter="url(#a)"/><path d="m-34.76-73.83 41.51 8.06-7.53-.56-12.15-.91-1.99-.82 7.86-.36 12.44.51 12.13 1.46 8.79 2.02 3.98 1.79-1.35.67-6.11-.93-9.15-2.25-9.64-2.62-7.79-1.93-4.91-.64-2.69.43-2.06.49-2.5-.67-2.55-2.44-1.31-3.56v-2.9l-1.04-.62-3.97 1.29 1.93-2.19" filter="url(#a)"/><path d="m-29.25-77.09 34.86 4.93 1.45 3.98 3.82 4.87 10.25 3.26 10.89 1.36 7.03.08 1.8-.68-2.91-.98-6.39-.81-8-.66-6.92-.97-3.84-1.4-2.8-1.56-4.31-3.28 24.3-8.21" filter="url(#a)"/><path d="m29.98-77.16-17.27 5.97 1.83 4.77 3.28.41 3.72-1.05 2.66-1.46.98-1.25-.43-.28L23-68.99l-3.67 1.89-6.25 1.62-8.82.32-10.22-1.23-9.23-2.04-4.96-1.53 2.85-.02 13.17 1.7 22.08 3.05 20.26 2.2-4.58-11.67" filter="url(#a)"/><path d="m-32.12-76.07 35.8 3.46L8.6-68l-4.55.27-.29-.64 4.77.22 4.99.28 1.3-.66-2.25-1.29-2.26-.58 1.85 1.38 7.73 3.54 11.68 4.71 11.25 4.2 7.24 2.51 3.14 1.11 1.51 1.05 2.74 3.73" filter="url(#a)"/><path d="m-33.7-74.59 18.21 4.4 13.37 3.28 6.78 1.11 7.18 1.49 6.58 1.95 2.87 1.55-1.52.53-4.07-.6-4.13-1.5-2.51-2-.34-1.95 1.75-1.36 3.58-.44 4.76.38 4.46.59 1.9-.03-2.76-1.33-8.37-2.76L.48-75.13l-14.46-4.17 1.98-4.67m11.73-1.21-1.56-.09-1.21-.01-1.11-.02-1.08-.01-1.1.02-1.16.05-1.18.06-1.14.02-1.03-.04-.92-.08-.86-.09-.89-.08-.95-.06-1.05.03-1.11.24-1.34.51m35.23 10.17-.72-.44-1.16-.49-1.03-.67-.94-.86-.94-.98-.93-1.02-.9-.97-.87-.88-.86-.7-.87-.47-.91-.23-.94-.02-.96.07-.92-.02-.84-.22-.77-.34-.8-.16-.97-.14-1.21-2.08" filter="url(#a)"/><path d="m-2.89-85.13.86-3.41 1.34-.82 1.33-.99 1.15-.99 1-.69.95-.48.98-.5 1.06-.63 1.12-.7 1.14-.64 1.12-.55 1.1-.54 1.1-.69 1.18-.82 1.39-.79 1.99-.2 4.25 7.38.04 1.2-.77.14-1.13-.32-1.21-.35-1.25-.15-1.28.1-1.28.32-1.25.48-1.19.52-1.12.45-1.07.33-1.05.25-1.03.22-1.02.25-.99.27-.95.28-.95.29-1 .33-1.11.41-1.23.42-1.3.34-1.27.17-1.36.02-26.39 5.44.95-.46 1.08-.58 1.04-.44 1.01-.34 1-.3 1.01-.27 1.02-.23 1.04-.2 1.09-.17 1.14-.18 1.18-.2 1.19-.21 1.17-.23 1.14-.24 1.08-.22 1-.21.93-.16.89-.1.89-.04h.98l1.16-.03 1.33-.08 1.23-.1.59.03-.22-.2.48-1.45.95-1.47 1.16-1.49 1.27-1.5 1.32-1.44 1.3-1.41 1.23-1.39 1.12-1.21 1.03-.84 1.03-.46 1.08-.36 1.19-.66 1.26-1.21 1.3-1.68 1.28-1.87 1.33-2.09 1.5-3.35" filter="url(#a)"/><path d="m-10.88-84.01 1.17-.02 1.6.11 1.34.03 1.12.06 1.07.28 1.11.58 1.16.81 1.18.93 1.15.92 1.05.87.92.84.81.87.75.89.79.79.87.51 1.01.22 1.39.36m61.01 59.88-.75-1.3-1.14-.92-1.14-1.03-1.02-1.03-.96-.87-1.02-.71-1.06-.64-.95-.72-.66-.92-.38-1.15-.24-1.31-.36-1.35-.66-1.19-.96-.9-1.14-.57-1.21-.21-1.39.26-1.45.64m-63.17-55.14-.84.7-.79.74-.84.71-.91.7-.99.7-1.04.67-1.07.58-1.08.48-1.04.48-.94.59-.82.79-.71 1-.65 1.13-.64 1.15-.66 1.06-.7.92-.77.79-.8.7-.77.72-.67.94-.56 1.5m-12.24-19.09 1.57-.49 1.72-.27 1.64.01 1.51.06 1.35-.11 1.24-.21 1.23-.08 1.27.21 1.32.46 1.33.56 1.29.51 1.25.37 1.23.21 1.22.06 1.24-.13 1.22-.32 1.2-.43 1.21-.25 1.22.19 1.2.56 1.04.47 1.07.83" filter="url(#a)"/><path d="m3.04-98.07.17.52-.76.31-1.19.9-1.37.92-1.42.6-1.35.47-1.26.67-1.17 1.07-1.13 1.35-1.15 1.35-1.18 1.17-1.12 1-.98.93-.8.84-.7.66-.61.62-.23.99" filter="url(#a)"/><path d="m-13.21-83.7.36-.18.58-.81.55-1.91.59-2.79.79-2.95 1.01-2.55 1.17-1.9 1.22-1.3 1.25-1 1.29-1.03 1.37-1.35 1.46-1.83 1.52-2.27 1.5-2.41 1.33-1.9.87-.89-.17-1.38" filter="url(#a)"/><path d="m-15.45-83.4 1.28-1.62.94-.19.84-.01.82-.25.9-.57 1.01-.87 1.1-1.13 1.14-1.32 1.15-1.42 1.16-1.37 1.2-1.15 1.26-.84 1.29-.53 1.31-.4 1.26-.52 1.2-.89 1.15-1.34 1.12-1.61 1.17-1.53 1.26-1.16 1.32-.84 1.28-.9.63-.81-13.45-6.66-1 1.83-1.24 2.18-1.22 2.09-1.26 1.74-1.32 1.35-1.3 1.18-1.16 1.28-.98 1.52-.85 1.69-.79 1.72-.81 1.67-.86 1.56-.93 1.45-1.02 1.29-1.1 1.05-1.19.71-1.25.34-1.25.06-1.13.08-.88.67-.54 1.83-.39 2.74-.81 2.01m-.3.62-.76 1.03-.57 1.89-.74 1.34-1 .64-1.1.44-1.01.63-.83.9-.71 1.05-.68 1.03-.7.96-.65.97-.51 1.09-.32 1.27-.19 1.36-.23 1.32-.34 1.21-.29 1.23.1 1.49.59 1.6" filter="url(#a)"/><path d="m-44.73-69.86.36-.24.69-.46.89-.51.92-.47.86-.43.85-.41.88-.41.97-.43 1.02-.41 1.04-.42 1.03-.45 1.03-.51 1.05-.58 1.08-.6 1.09-.57 1.08-.52 1.09-.48 1.11-.52 1-.39m94.91 27.15.02 2.77.04 2.18-.06 2.01-.11 1.81-.07 1.58.07 1.33.25 1.12.38 1.01.41 1.05.34 1.22.23 1.43.14 1.62.05 1.71-.03 1.69-.18 1.62-.36 1.5-.47 1.39-.46 1.26-.32 1.19-.15 1.3.02 1.75.27 2.45" filter="url(#a)"/><path d="m-32.12-76.07-1.63.41-1.21.23-1.1.07-1.11.12-1.21.13-1.42-.21-1.76-.89-2.09-1.56-2.23-1.81-2.07-1.43-1.69-.63-1.34.15-1.25.46-1.5.22-1.92-.33-2.26-.82-2.3-.91-2.04-.38-1.96.67 29.45 8.75 1.15-.92 1.18-.99 1.06-.92.98-.84.94-.78.91-.78.88-.81.86-.83.85-.82.86-.76.89-.7.93-.68.97-.69 1.01-.74 1.07-.76 1.11-.74 1.13-.73 1.12-.75 1.08-.78 1-.77.93-.62.87-.39.74-.35.37-.69-27.4 21.45.77-.81 1.05-1 1.01-.86.91-.71.9-.67.95-.66 1.01-.68 1.05-.66 1.05-.63 1.02-.6.99-.6.96-.58.93-.57.92-.54.92-.5.9-.45.9-.42.91-.42 1.01-.45 1.18-.48.88-.28" filter="url(#a)"/><path d="m-25.96-112.03-2.46 2.1-.93 2.31-.68 2.04-.56 2.36-.49 2.67-.53 2.58-.66 2.17-.81 1.69-.9 1.41-.88 1.45-.74 1.78-.54 2.25-.37 2.58-.33 2.59-.43 2.24-.66 1.63-.9 1.01-1.03.63-.93.62-.61.97-.31 1.32-.36 1.31-.71 1.16.24 3.19" filter="url(#a)"/><path d="m-45.18-65.03.45-.46.77-1.01.6-1.17.5-1.2.54-1.08.65-.86.72-.64.72-.56.72-.66.72-.88.72-1.11.66-1.21.54-1.11.48-.99.64-1.16m-10.74 15.5-.19.93-.76.79-.81.88-.66 1.01-.49 1.09-.36 1.12-.32 1.15-.35 1.15-.38 1.16-.39 1.18-.32 1.21-.26 1.24-.2 1.25-.19 1.27-.25 1.3-.34 1.4-.43 1.5-.38 1.49-.03 1.24.26.57m5.31-21.06-1.22-.34-1.24.46-.69.89-.5.91-.64.77-.91.6-1.2.43-1.42.26-1.56.11-1.62.05-1.56.09-1.41.28-1.25.6-1.17 1.02-1.29 1.4-1.53 1.37-1.28.52M67.49-21.82l.26 2.22.29 1.7.26 1.49.21 1.45.18 1.39.12 1.25.08 1.12.04 1.06v2.27l-.01 1.33-.02 1.45-.03 1.54-.05 1.51-.07 1.38-.07 1.2-.05 1.04-.05 1.04-.07 1.19-.08 1.43-.07 1.42-.08.41m-.79-28.89.82-.72.37-.85.02-1.04.47-1.45 1.23-1.98 1.72-2.39 1.59-2.46.9-2.19.03-1.72-.62-1.27-.83-1.04-.6-1.09-.1-1.34.43-1.71.81-2.05.97-2.31.9-2.5.75-2.58.58-2.56.45-2.32.34-1.82.31-1.25.12-1.6" filter="url(#a)"/><path d="m-48.25-92.91-.97 1.74-.29 1.58-.06 1.73-.09 1.88-.06 2.15.08 2.48.16 2.64.08 2.47-.14 2.11-.31 1.76-.31 1.66-.15 1.81.01 2.01.02 2.05-.15 1.85-.35 1.5-.31 1.2.05 1.12-.13 1.28m-4.87 7.29-.15-.24-.6.93-.87 1.31-.98 1.21-1.07.91-1.16.63-1.18.5-1.11.52-.95.65-.79.83-.72.97-.77 1.04-.91 1.02-1.08.98-1.19.98-1.19 1.11-1.08 1.35-.92 1.42-.52.95" filter="url(#a)"/><path d="m-59.21-45.19-.83 1.58-.82.81-.89.66-.96.7-1.1.75-1.31.73-1.62.66-1.94.56-2.15.54-2.12.61-1.88.77-1.5.95-1.2 1.09-1.12 1.18-1.27 1.21-1.52 1.23-1.61 1.26-1.47 1.27-1.19 1.18-1.06 1.13-1.3 1.65" filter="url(#a)"/><path d="m-91.5-29.88 3-1.85 2.4-1.55 2.46-.93 2.89-.41 3.02-.23 2.74-.33 2.37-.54 2.07-.69 1.87-.73 1.59-.78 1.14-.96.69-1.18.71-1.12 1.57-.43 2.15.55" filter="url(#a)"/><path d="m-61.26-40.93 1.61.32 1.21-.27.61-.76.83-.63 1.3-.34 1.53-.3 1.43-.46 1.16-.7.89-.84.73-.85.68-.79.71-.71.74-.67.77-.65.8-.63.79-.6.74-.56.68-.54.69-.48.92-.35 1.31-.07 1.19.44-21.32 10.44-.95 1.21-1.68.69-1.6.63-1.23.87-1.08 1.05-1.17 1.08-1.26 1.02-1.2 1.01-.97 1.07-.82 1.17-.89 1.24-1.19 1.24-1.49 1.17-1.55 1.1-1.34 1.08-1.17 1.15-1.44 1.43-1.99 1.83" filter="url(#a)"/><path d="m-61.78-39.58.36-1.06.11-1.06-.27-1.38-.43-1.57-.3-1.56-.09-1.55v-1.68l-.11-2-.38-2.34-.68-2.6-.9-2.72-1.01-2.72-.97-2.71-.91-2.72-.83-2.8-.78-2.95-.79-3.16-.46-3.3 7.6 42.33-.13.56-.23 1.2-.21 1.39-.25 1.44-.3 1.38-.29 1.28-.23 1.21-.11 1.25.04 1.36.18 1.51.31 1.58.43 1.51.46 1.31.4 1.17.39 1.57" filter="url(#a)"/><path d="m-62.44-37.4-.24 2.18-.62 1.33-.61 1.33-.49 1.33-.36 1.28-.24 1.27-.17 1.31-.14 1.36-.11 1.4-.09 1.39-.08 1.34-.08 1.26-.09 1.2-.11 1.13-.12 1.09-.11 1.07-.12 1.06-.13 1.04-.1 1.07-.05 1.19.05 1.52.11 1.97.22 2.02" filter="url(#a)"/><path d="m-62.44-37.4-.75 1.88-.46 1.36-.35 1.45-.26 1.44-.19 1.33-.16 1.26-.15 1.26-.17 1.31-.17 1.38-.17 1.39-.16 1.33-.14 1.24-.14 1.17-.12 1.15-.05.89.27-.21 1.77-16.67.64-2.14-.18-1.82-.14-1.64.13-1.38.27-1.22.21-1.2.1-1.29.05-1.38.14-1.41.33-1.39.53-1.35.63-1.36.55-1.43.4-1.5.25-1.55.2-1.53.27-1.47.34-1.45.33-1.55.16-1.75v-1.82l-.03-1.52.12-.96.33-1.4m-6.9 39.59.14-2.08.3-1.8-.07-1.72-.51-1.88-.82-2.07-.85-2.07-.57-1.87-.17-1.55.21-1.27.38-1.15.34-1.23.13-1.49-.12-1.87-.31-2.21-.34-2.44-.34-2.48-.49-2.49-.93-2.76-1.36-3.29-1.41-3.21M67-23.66l-.16-1.38.18-1.35-.05-1.51-.36-1.59-.44-1.58-.32-1.49-.16-1.39-.03-1.28.01-1.21-.01-1.21-.06-1.26-.09-1.36-.1-1.49-.11-1.6-.1-1.66-.1-1.65-.1-1.54-.15-1.4-.21-1.26-.3-1.23-.32-1.31-.18-1.42.07-1.41.2-1.27" filter="url(#a)"/><path d="m66.4-25.37.44 1.41.33 1.01.32.93.33 1.08.34 1.27.34 1.38.29 1.44.23 1.44.19 1.38.18 1.29.18 1.16.2 1.09.23 1.07.24 1.15.26 1.28.25 1.47.23 1.65.19 1.72.17 1.58.13 1.2.12.66.23.01-8.43-51.65-.01 1.23.1.71.17 1.12.12 1.55.1 1.75.12 1.71.23 1.54.35 1.31.39 1.11.33 1 .19.98.07 1.02.03 1.12.21 1.25.55 1.45.63 1.85-1 2.71M49.92-39.65l1.59-.26.6.19.56.63.87.77 1.04.82 1.02.86.96.83 1 .72 1.08.56 1.11.44.91.46.57.65.25.93.31 1.13.93 1.19 1.76 1.24 1.49 1.55" filter="url(#a)"/><path d="m64.56-32.28.28-.94.95-1.54 1-1.56.84-1.51.89-1.71 1.12-2.07 1.29-2.38 1.1-2.41.49-2.1-.35-1.56-1.04-1.04-1.35-.76-1.17-.81-.67-1.17-.04-1.66.46-2.12.74-2.43.81-2.57.76-2.62.66-2.62.54-2.55.19-2.43-.43-2.37-1.47-2.08" filter="url(#a)"/><path d="m90.84-6.83-2.65-1.53-1.41-1.21-.94-1.19-.88-1.11-.94-1.07-1.06-1.1-1.26-1.18-1.52-1.25-1.7-1.27L76.73-19l-1.63-1.23-1.43-1.16-1.23-1.07-1.11-.96-1.01-.9-.9-.9-.7-1.03-.46-1.25-.17-1.58.21-1.98.67-2.32.32-1.89-5.21 1.4m-1.48-3.82-.61-1.84-.45-1.83-.28-1.72-.02-1.66.2-1.58.23-1.46.11-1.38-.02-1.4-.08-1.45-.07-1.53-.03-1.62.06-1.76.24-1.94.44-2.04.55-2.23.27-2.94" filter="url(#a)"/><path d="m61.8-39.39 1.37.48 1.3.31 1.06.57 1.11.51 1.29.44 1.41.49 1.44.71 1.4.96 1.31 1.19 1.12 1.33.86 1.39.58 1.38.45 1.3.54 1.17.86 1.01 1.26.92 1.56.99 1.74 1.15 2.1 1.17 2.87.84 3.64 1.06-31.8-24.74-1.36 3.36.41 1.65 1.01 1.06.91.94.62.95.31 1 .02 1.06-.18 1.14-.26 1.22-.21 1.3-.1 1.4-.02 1.5-.01 1.56-.09 1.55-.22 1.46-.43 1.36-.62 1.3-.59 1.14-.06.53-2.32-67.53 1.35.92.1 1.8-.25 2.3-.02 2.32.33 2.14.47 1.98.42 1.92.28 1.88.19 1.89.15 1.9.14 1.96.1 2.05.02 2.14-.1 2.18-.2 2.15-.27 2.08-.28 1.98-.24 1.85-.09 1.67.24 1.49.53 1.49.19 2-1.69-3.45-.72-.68-.56-.79-.61-.94-.71-.94-.81-.9-.87-.91-.92-.93-.91-.94-.88-.91-.86-.86-.83-.79-.84-.77-.88-.76-.92-.74-.95-.68-.98-.56-.97-.42-.93-.3-.88-.3-.81-.39-.79-.48-.81-.49-1-.42-1.84-1.03 5.25 5.11.24.35.99.32 1.32.36 1.28.48 1.12.54 1.01.49 1 .42 1.05.42 1.09.55 1.07.72.99.89.88.95.8.94.78.91.77.92.61.92.23.72" filter="url(#a)"/><path d="m80.49-44.77-2.76 1.32-2.71.46-1.92-.37-1.02-1.04-.51-1.46-.58-1.49-1-1.21-1.42-.8-1.64-.42-1.7-.17-1.71-.02-1.75-.02-1.61-.22-1.12-.53-.75-.55-2.02.81" filter="url(#a)"/><path d="m39.58-72.81 1 1.07 1.11 1.06.89.9.74.86.67.83.61.83.59.81.62.85.67.9.75.96.8 1 .8.99.75.96.68.96.64.99.65 1.08.72 1.2.8 1.27.76 1.18.54.85.17.43 1.63 1.32 1.25.62.8.78.66.91.81.79 1.02.58 1.13.5 1.05.65.86.92.63 1.22.45 1.41.39 1.42.44 1.31.6 1.09.77.85.94.67 1.07.57 1.16.62 1.23.82 1.25 1.24 1.19 1.82.93 2.17-21.92-24.78 1.18 1.11.94.6.94.61.83.8.64.98.56 1.05.6.99.71.85.83.73.9.68.92.73.93.86.98.98 1.06 1.04 1.14.99 1.15.92 1.09.83.93.79.72.7.59.58.76.83-20.15-54.35.35 5.04.25 2.38.37 1.7.09 1.98-.43 2.6-.78 2.99-.82 2.98-.57 2.75-.21 2.43.12 2.13.31 1.88.26 1.67.15 1.41.13.98.27.56-.48-.4 1.53-.14 2.64-.59 2.13.07 1.29.81.86 1.08.77 1.07.87.94 1.05.78 1.26.6 1.47.41 1.69.21 1.98-.01 2.26-.2 2.44-.25h2.37l1.98.55 1.51 1.11 1.35 1.3 1.78.91 2.56.38 3.82 1.1" filter="url(#a)"/><path d="m78.26-53.99-2.01-.18-2.63-.03-2.17.02-1.51-.26-.92-.75-.49-1.21-.31-1.44-.42-1.38-.74-1.1-1.14-.77-1.49-.46-1.78-.23-2.02-.08-2.13-.06-1.91-.28-1.31-.72-.6-1.07-.72-.48-4.77 4.31m-2.2-2.74-1.4-.44-1.33.25-1.07.16-.91-.07-.9-.21-.89-.37-.82-.6-.78-.76-.82-.72-.93-.53-1.05-.27-1.12-.08-1.09-.02-1.01-.05-.93-.13-.87-.18-.87-.24-.89-.32-.93-.35-1.05-.17-1.34.33-1.9 1.08m20.94 1.32.24-.86.05-1.39-.03-1.71.08-2.13.16-2.45.03-2.4-.33-1.93-.76-1.26-1.01-.8-.99-.83-.7-1.26-.41-1.74-.28-1.87-.37-1.68-.5-1.61-.43-2.13-.19-3.1.45-3.91" filter="url(#a)"/><path d="m43.18-66.84-1.31.79-.93-.45-.76-.88-.84-.85-.94-.7-.94-.58-.91-.54-.88-.48-.83-.43-.83-.37-.84-.31-.89-.29-.97-.26-1.04-.23-1.11-.24-1.15-.37-1.41-.5 35.62 12.35-2.5-.78-1.9-.81-1.53-.59-1.12-.59-.88-.69-.89-.71-1.07-.66-1.23-.6-1.28-.57-1.13-.59-.9-.63-.75-.59-.82-.4-1.16-.04-1.72.43-2.36.13" filter="url(#a)"/><path d="m59.59-70.06-1.77 1.02-1.93.54-1.73-.15-1.43-.69-1.19-.83-1.09-.65-1.07-.36-1.07-.18-1.13-.02-1.29.17-1.48.39-1.59.43-1.49.13-1.3-.31-1.08-.36-.6.02m-4.76-3.73 1.37-.14 1.52-.98 1.35-.59 1.18.02 1.2.2 1.35.09 1.47-.05 1.46-.01 1.32.19 1.1.48.86.75.7.93.66.94.77.82 1.03.59 1.37.34 1.69.15 1.87.04 1.82-.02 1.52.02 1 .18.31.71-46.16-13.27 1.07.27 1.04.26 1.03.25.93.24.91.27.97.35 1.05.42 1.07.45 1.03.46.98.45.93.43.9.43.91.43.93.47.95.51.96.55.98.6 1.09.68 1.55 1.03" filter="url(#a)"/><path d="m31.45-76.26 1.5.9 1.06.29 1.15-.27 1.27-.55 1.27-.43 1.18-.08 1.11.27 1.06.48 1.11.54 1.21.43 1.35.2 1.48-.06 1.54-.25 1.5-.29 1.4-.29 1.31-.39 1.4-.7 1.9-1-6.08 1.35-1.32.64-1.52.29-1.46.06-1.44-.08-1.37-.15-1.29-.17-1.23-.09-1.24.08-1.22.22-1.16.23-1.04.05-.95-.22-.94-.42-1.06-.43-.89-.12" filter="url(#a)"/><path d="m31.04-76.22 1.14-.37 1.29-.05 1.01.32.89.38.87.37.88.41.9.5.94.56 1 .57 1.06.53 1.1.52 1.1.49 1.08.47 1.05.43 1.01.37.95.33.87.37.85.46 1.03.57 1.51.61 2.27.48" filter="url(#a)"/><path d="m52.59-76.23-.42.04-.95-.09-1.32.08-1.48.18-1.55.2-1.56.15-1.52.06-1.43-.06-1.29-.24-1.12-.4-1.01-.48-.95-.45-.97-.31-1.02-.18-1.07-.13-1.1-.2-1.1-.31-1.15-.26-1.27.11-1.23.47-.4.34-4.24-2.19 1.73-.56 1.22-.2 1.28-.3 1.43-.54 1.61-.88 1.74-1.07 1.7-.93 1.52-.53 1.32-.14 1.21.06 1.22.03 1.29-.08 1.41-.21 1.57-.33 1.81-.55 2.07-.83 2.26-1.01 2.21-.85 1.86-.3 1.41.38 1.32.6 1.82.28-34.68 8.4 2.22-6 2-3.27 1.34-.71.97.64.86 1.08.97.9 1.15.48 1.32.1 1.42-.12 1.49-.37 1.63-.77 1.84-1.34 2.04-1.81 2.24-1.92 2.56-1.78 3.04-1.53L22.3-80.95l-1.74-.51-1.21.05-.97.36-.94.17-.98-.14-1.02-.32-1.06-.3-1.1-.17-1.11.02-1.1.24-1.07.46-1.03.65-1.01.74-.99.69-.97.56-.96.42-.9.41-.82.5-.72.67-.7.83-.85 1.19 40.98-1.21-.64-.28-.94-.13-1.05-.28-.98-.42-.91-.48-.89-.44-.96-.35-1.04-.28-1.1-.26-1.12-.27-1.13-.28-1.11-.27-1.09-.27-1.05-.29-1-.36-.95-.45-.92-.55-.96-.56-1.06-.49-1.19-.34-1.2-.25-1-.2-.51.06-.2 1.09" filter="url(#a)"/><path d="m30.27-67.25-.27-.92-.69-1.1-.67-1.23-.64-1.24-.68-1.09-.73-.9-.76-.77-.76-.72-.77-.7-.8-.69-.86-.68-.94-.67-.99-.64-.99-.52-.92-.33-.86-.21-.89-.27-.99-.69-.21-2.28-20.93 9.43 1.12.05 1.09-.57 1.1-.71 1.12-.78 1.07-.77.98-.69.9-.66.87-.69.89-.72.91-.72.95-.66.97-.61.98-.61.98-.59.98-.48 1.03-.27 1.1-.04 1.21.12 1.29.13 1.39-.16-1.5-.35-1.17-.13-1.29.2-1.16.51-1.04.58-.97.49-.95.44-.96.48-.97.51-.95.47-.91.31-.89.12-.88-.03-.92-.03-1.01.16-1.07.46-1.11.71-1.09.77-1.02.62-.87.34-.67.32-.48 1.35 34.04-2.81-.36-.23-.87-.51-.87-.47-.85-.45-.89-.47-.96-.49-1.03-.52-1.06-.5-1.02-.45-.95-.36-.92-.29-.94-.25-.99-.26-1.04-.3-1.08-.32-1.25-.34-1.75-.29-21.4 5.98.33-.68.98-.56 1.23-.35 1.19-.26 1.1-.23 1.06-.25 1.09-.3 1.12-.35 1.14-.39 1.12-.37 1.06-.35.99-.31.93-.29.92-.25.92-.15.94.04.93.26.91.41.87.42.84.23.82-.21.91-2.04" filter="url(#a)"/><path d="m11.18-83.91-.61-.41-.76-.65-.82-.64-.9-.48-.96-.35-.98-.26-.98-.23-.95-.21-.95-.17-.98-.12-1.05-.08-1.13-.06-1.21-.05-1.23-.05-1.23-.05-1.2-.09-1.19-.14-1.24-.17-1.35-.17-1.42-.12-1.19-.12-.49-.22 22.3 4.46h-.9l-.9-.08-.93-.06-.98-.03-.99.01-.97.02-.94.02h-.93l-.95-.01H1.16l-1.1.03-1.16.05-1.18.08-1.17.1-1.15.13-1.12.17-1.16.2-1.2.24-1.21.27-1.06.25-.75.22-.69.21" filter="url(#a)"/><path d="m9.84-84.2-1.02-.4-.88-.3-.97-.29-1.01-.28-.98-.34-.93-.48-.93-.64-.97-.72-1.05-.65-1.14-.42-1.21-.13-1.23.12-1.23.24-1.22.18-1.23-.01-1.27-.23-1.3-.42-1.29-.5-1.18-.45-1.02-.31-.87-.19-.78-.17-.48-.32 22.72 6.16-.39-.43-.96-.04-1.04-.08-.98-.23-.91-.36-.85-.4-.89-.35-.98-.29-1.12-.24-1.23-.22-1.28-.17-1.25-.05-1.17.09-1.01.03-.59-.47 12.66 3.27-.64-1.33-.95-.1-.91-.23-.87-.41-.94-.33L1-87.27l-1.17-.08-1.24-.08-1.25-.15-1.25-.24-1.24-.33-1.25-.43-1.28-.55-1.29-.66-1.28-.79-1.23-.87-1.15-.85-1.08-.65-1.04-.32-1.06.01-1.15.16h-1.33l-1.56-.31-1.8-.67" filter="url(#a)"/></g><g fill="none" stroke="#000"><circle cx="12.19" cy="7.958" r="1.864" filter="url(#a)"/><circle cx="10.938" cy="5.938" r="2.148" filter="url(#a)"/><circle cx="9.022" cy="5.618" r="2.41" filter="url(#a)"/><circle cx="10.858" cy="6.682" r="2.9" filter="url(#a)"/><circle cx="10.658" cy="6.87" r="2.892" filter="url(#a)"/><circle cx="11.346" cy="4.97" r="1.588" filter="url(#a)"/><circle cx="10.582" cy="6.17" r="1.562" filter="url(#a)"/><circle cx="10.938" cy="8.478" r="1.928" filter="url(#a)"/><circle cx="10.846" cy="5.99" r="2.778" filter="url(#a)"/><circle cx="10.038" cy="5.382" r="2.644" filter="url(#a)"/><circle cx="-9.436" cy="3.226" r="2.826" filter="url(#a)"/><circle cx="-8.5" cy="4.39" r="2.184" filter="url(#a)"/><circle cx="-9.264" cy="4.11" r="1.998" filter="url(#a)"/><circle cx="-7.712" cy="4.142" r="1.964" filter="url(#a)"/><circle cx="-7.28" cy="3.846" r="1.196" filter="url(#a)"/><circle cx="-10.468" cy="1.446" r="2.858" filter="url(#a)"/><circle cx="-7.864" cy="3.13" r="2.53" filter="url(#a)"/><circle cx="-10.352" cy="1.438" r="2" filter="url(#a)"/><circle cx="-9.328" cy="2.066" r="2.86" filter="url(#a)"/><circle cx="-8.996" cy="2.69" r="1.812" filter="url(#a)"/></g><path fill="#D77F8C" stroke="#000" stroke-linejoin="round" stroke-width="3" d="m23.22 58.81.16.46-.13-.31.09.23.03 1.24.05-.49.05.97v.26l-.15.91-.07.39.09-.72-.11.76-.14.75.05-.34-.3 1.24.1-.46-.45 1.05-.26.74-.1-.06-.33.74.1-.22.09-.02-.27.4-.39.64-.13.15-.68.87-.2.26v.01l-1.16 1.21-.22.24-.89.81.13-.11-.67.56-.32.24.25-.2-.81.58.09-.08-1.2.89-1.05.62-.23.16-.83.46 1.02-.59-.81.46-.76.41-.48.22-.14.07-1.96.85.33-.13-.45.18-1.22.43-.88.29-.03.01-.85.23.57-.15-1.86.47-.85.18-.21.04-1.09.18 1.15-.21-2.13.33 1.36-.2-2.16.29.13-.01H1.8l-1.19.09.54-.03H.32l-.65.03h-.02l-1.44-.12-1.26-.1.64.07-1.19-.15-.34-.06-.7-.2.68.18-1.08-.25h-.29l-1.44-.57.13.13h-.02l-.22-.14-1.04-.48-.02.09-1.21-.68-.13-.09-.09-.09-.88-.64-.45-.33.64.58-.34-.48-.42-.34-.81-.71-.09-.11-.04-.24-.34-.4-.19-.2.22.04-.48-.85-.18-.57.01.22-.35-1.26-.04.24-.1-.72.05-.4-.04.61.04-1.01-.09-.23.02.1v-.26l.12-1.01-.1.25.06-.39.48-1.66-.26.86.02-.25.5-1.29.02-.02.28-.64.21-.29.22-.49.37-.54.43-.53.21-.37-.12.13.37-.41.9-1-.45.39.66-.64.7-.71.29-.25.83-.76-.02.06.34-.25-.18.12 1.37-1.05-.18.16.94-.63-.12.08 1.44-.91.81-.41-.05.01.49-.26.83-.38.01-.01 1.21-.53-.26.09.94-.37-.59.24 1.29-.5 1.55-.51.25-.07-.03.01 1.58-.42.48-.09.02-.01-.13.03 1.95-.38-.73.13-.02.01 1.87-.27.06-.02 1.52-.08.69-.06h-.3.5l1.17.05.85-.01h-.77l1.15.03.39.03-.11.04 1.07.11-.37-.02.81.06 1.37.32.99.34.23.03-.04.02.72.27.46.17.61.33.28.13-.66-.29.41.19.93.58.45.31.02.01.27.04.37.47.21.06.59.53.12.22.32.39.31.52-.05-.09.35.39.46.98-.17-.3.31.66" filter="url(#a)"/></svg>