<svg xmlns="http://www.w3.org/2000/svg" width="500" height="500" viewBox="-100 -100 200 200"><defs><clipPath id="c"><path d="m35.46 5.02-.31-.7-.36-.71-.38-.73-.42-.73-.44-.74-.48-.75-.51-.74-.53-.74-.56-.74-.59-.73-.62-.72-.63-.71-.67-.7-.69-.68-.71-.67-.74-.95-.77-.93-.81-.88-.85-.85-.87-.81-.91-.77-.94-.72-.96-.67-.99-.62-1.01-.58-1.03-.52-1.06-.47-1.07-.41-1.09-.36-1.1-.31-1.12-.26-1.12-.2-1.13-.16-1.14-.09-1.14-.05H6.56l-1.14.05-1.14.09-1.14.15-1.13.19-1.13.23-1.11.27-1.11.31-1.09.34-1.07.38-1.06.42-1.05.45-1.02.47-1.01.5-.98.53-.96.54-.94.57-.91.58-.89.6-.87.62-.84.62-.81.63-.79.64-.76.65-.73.64-.71.65-.68.65-.66.64-.63.64-.6.63-.58.63-.56.63-.53.62-.51.62-.49.62-.46.6-.44.61-.42.59-.4.59-.37.58-.35.57-.32.56-.31.55-.28.54.38 3.68.24.36.26.34.28.33.29.32.32.31.33.3.36.28.37.28.4.27.41.25.44.24.45.23.47.23.49.21.52.2.53.19.55.19.58.17.6.17.62.15.64.15.67.14.68.13.71.12.72.12.75.11.77.1.79.09.8.08.83.08.84.08.86.06.88.07.9.05.91.05.92.05.94.04.95.04.96.03.98.04.99.02.99.03 1.01.02 1.01.02 1.02.01 1.02.02 1.03.01 1.04.01 1.03.01h1.04l1.04.01h3.1l1.03-.01 1.02-.01 1.01-.01 1.01-.01 1-.02.98-.02.98-.02.96-.03.94-.03.94-.04.8-.05.79-.06.78-.06.76-.07.75-.08.73-.09.71-.09.69-.11.68-.11.65-.13.62-.13.6-.15.58-.15.55-.17.51-.19"/></clipPath><clipPath id="b"><path d="m-34.35 4.86.36-.47.4-.48.42-.5.45-.5.48-.5.5-.52.53-.51.56-.52.58-.51.61-.52.63-.51.66-.51.67-.5.71-.5.72-.49.73-.65.77-.65.81-.62.84-.61.87-.59.91-.56.93-.54.97-.51 1-.49 1.02-.45 1.04-.43 1.07-.39 1.09-.36 1.1-.32 1.12-.3 1.14-.26 1.14-.22 1.16-.19 1.16-.15 1.17-.12 1.17-.08 1.17-.05 1.17-.02 1.16.02 1.16.05 1.15.08 1.14.12 1.13.14 1.12.18 1.1.2 1.08.23 1.07.25 1.04.28 1.03.3 1 .32.97.34.95.36.93.38.9.39.87.4.85.42.81.43.79.44.76.44.73.45.7.45.67.45.64.46.61.45.59.46.56.45.54.45.5.45.49.45.45.46.43.44.41.45.38.44.35.44.33.43.31.43.28.42.25.42.23.41-.87 2.57-.32.29-.35.27-.36.27-.39.26-.41.25-.42.24-.45.23-.46.22-.49.21-.51.2-.52.2-.54.18-.57.17-.58.17-.6.16-.63.15-.64.14-.67.14-.68.13-.71.12-.73.11-.75.11-.77.1-.78.09-.81.09-.82.08-.84.07-.85.07-.87.07-.88.06-.9.05-.91.05-.93.05L5 11l-.94.04-.96.03-.96.04-.97.03-.97.03-.98.03-.99.02-.99.03-.99.02-.99.02-.99.02-1 .02-.99.02-.99.02-.98.03-.98.02-.98.02-.97.02-.96.02-.96.02-.94.03-.94.02-.92.02-.92.02-.9.03-.89.02-.87.02-.86.02-.84.02-.83.02-.72.01-.72.01h-2.72l-.65-.01-.62-.01-.61-.01-.58-.02-.57-.02-.55-.02-.52-.03-.5-.03-.48-.04"/></clipPath><filter id="a"><feTurbulence baseFrequency=".05" numOctaves="3" result="noise" type="noise"/><feDisplacementMap in="SourceGraphic" in2="noise" scale="2"/></filter></defs><rect width="100%" height="100%" x="-100" y="-100" fill="#A6B8F2"/><path fill="#DFB220" stroke="#000" stroke-linejoin="round" stroke-width="1.667" d="m82.68 1.4-.1-.15v2.17l.11.58-.23 2.35-.05.67-.38 2.11.37.45-.33 1.04-.28 4.38-.04-2.01-.06 2.56-.35 2.28-.31 1.34-.43.91-.6 1.43-.62 2.78.19-.02-.68 2.47.26-.22-.47 1.43-.93 2.51-.02-.1-.07.98-.72 1.52-1.31 3.38.32-.17-.41.96-1.07 1.73-.86 2.29 1.18-2.23-2.26 4.32-.61.71.37.29-1.55 2.18.54-.51-2.2 3.17.67-.63-1.86 3.19.78-1.87-2.9 4.29.45-.18-1.55 1.6.33.46-1.65 1.72-.19.38L61.43 60l-.99 1.27.62-.81-1.65 2.09-.87.27-.27.62-2.66 2.84.23-.22-1.76 1.4-.7.51-1.51 1.81-.85.85 1.17-1.49-1.79 1.77-1.37 1.17-1.22 1.14-1.29.34.22.43-4.21 2.9 2.15-1.54-2.06 1.24-1.36.95-2.47 1.57-.8.48-.05.08L35.07 81l-1.06.46.26.19-1.61.68-.85.28-2.14 1.02 1.25-.55-2.96 1.28-1.82.39 1.24-.05-4.87 1.74-.34-.11-.37.08-1.35.56-1.76.31-1.42.42 1.39-.42-2.94.45h.31l-1.71.56-3.28.4-1.64.22-1.23.1-.87.03-2.73.25-.68.21-.95-.21-.23.07-1.33.14-2.13.13-2.31-.08.25-.15.01-.12-2.18-.14-2.81.08-1.13-.01-.9-.24-.47-.08.63.25-3.2-.58.21-.16-2.2-.44-1.33-.2-1.79-.39-.09.04-2.07-.27-.65-.41-3.53-1 .69.11-3.35-1.19 1.89.73-2.04-.72-1.48-.75-1.46-.6-1.98-.81-.51-.24-2.56-.92-1.21-.65-.22-.49.63.42-3.35-1.5 1.12.05-3.06-1.36-1.82-1.14.71-.05-2.48-1.73-.02.34-.09.02-3.63-2.91-.85-.26.04-.47-2.17-1.78-.68-.59-1.5-.94.47.06-2-1.67.36.25-1.02-.85-1.65-1.65-1.46-1.84-1.42-1.44-.09-.04-1.43-1.93.55.6-1.86-1.49-1.01-2.39-.11.46-1.96-2.67.14-.28-1.64-2.45.19.35-1.5-2.63.41 1.23-1.1-1.71-1.08-1.9-1.33-2.3.82.86-1.46-2.28.24-.03-2.07-3.85.91 1.09-1.81-3.5.53 1.12-1.19-2.26-.47-1.17-.4-1.06-.34-1.19-.43-1.89-.57-1.34-.15.07-.83-3.51-.04.41-.79-2.96.75 1.49-.4-2-.52-.69-.22-2.84-.47-1.06-.84-3.95.34.45-.45-3.13.1.57-.04-.76-.41-2.12-.08-2.08.06-.91-.13.51V5l-.13-2.49.19-2.86-.38-1.08.35-1.99.02-2.56.01-1.19.06-1.43.1 1.57.14-2.07.21-2.63.24-1.52-.14.44.09-1.31.84-3.44.36-1.35.39-1.8-.14-1.22.46-1.2-.42 1.72.93-3.8.87-2.98.18.16.11-.92.15-.99.73-1.89.69-1.59.15-.36.84-2.42 1-1.97.45-.8.56-1.86.24-.03.73-1.17h-.41l1.96-3.61 1.18-1.95-.76 1.45.72-1.12 1.85-3.31-.37.18 1.21-2.03 1-1.01-.24.5.94-1.7-.02.04 1.81-2.1 1.25-1.84.08-.21 1.52-1.69.31-.69.92-1.07 1.91-2.15.26-.25 1.66-1.4 1.22-.91-1.11.72 1.89-1.6 1.41-1.61 2.33-1.84-1.9 1.36 3.79-2.66.26-.31.93-1.11.04.45 1.5-1.16 1.53-1.32-.45.54 3.88-2.54.08-.21 1.7-1.03-.73.58 3.7-2.02-1.09.51.85-.47.42-.27 1.26-.46 2.37-1.6 2.03-.28.48-.57.82-.22 3.21-1.26.59-.37 1.34.01-.74-.06 2.71-.96 2.95-.48-.77.05 2.23-.59 1.04-.14-.1-.2.54.23 1.04-.31 1.96-.49 4.14-.62.92.24.3-.34-.57.03 3.86-.03-1.05.04 2.88-.09 1.26-.1.86-.2 1.02.24 2.41-.1 2.65.25h1.01l1.17.23.39-.26 2.29.46-.1.18.13.02 2.67.3.58-.06 2.52.66.74.31-.09.07 1.63.2 1.15.44 2.5.71 1.48.33-.23.17 2.85.96-1.34-.75 1.98.53 2.09 1.01.38.42.76.22 2.54.93 1.33.83-.09-.26.45.5 2.95 1.47.55.44.21-.24 4.41 2.84-.13-.14.62.23 1.05.98.1-.08 1.69 1.27 1.77 1.52.49.01.11.37 1.96 1.9 1.71.85.01.33 1.16 1 .79 1.04.91.75 2.26 2.03-.62-.64 2.82 2.71-.57-.45.28.81 3.1 3.25.08-.02-.36-.26 2.69 3.3-.15.39-.71-1.36 2.72 3.51-.33-.22 1.57 2.64.51.94 1.16 1.55.77 1.34-.07-.24 1.38 2.29 1.04 2.33-.4-.3.54.78.85 1.88.25.46.96 1.3 1.06 3.25-.39-1.06 1.22 3.33.42.78.74 1.63.64 2.11-.28-.95.3.8.46 1.72 1.05 3.61-.35-.1.35.64.27 1.22.19 1.01.56 2.17.01 1.12.1 1.58.66 3.17.06.1.35 2.41-.2-.89.33 1.81-.1 1.42.08 2.76.25-.43.23 2.34.07 2.6-.28 1.81-.1-.15" filter="url(#a)"/><path fill="#fff" d="m-34.35 4.86.36-.47.4-.48.42-.5.45-.5.48-.5.5-.52.53-.51.56-.52.58-.51.61-.52.63-.51.66-.51.67-.5.71-.5.72-.49.73-.65.77-.65.81-.62.84-.61.87-.59.91-.56.93-.54.97-.51 1-.49 1.02-.45 1.04-.43 1.07-.39 1.09-.36 1.1-.32 1.12-.3 1.14-.26 1.14-.22 1.16-.19 1.16-.15 1.17-.12 1.17-.08 1.17-.05 1.17-.02 1.16.02 1.16.05 1.15.08 1.14.12 1.13.14 1.12.18 1.1.2 1.08.23 1.07.25 1.04.28 1.03.3 1 .32.97.34.95.36.93.38.9.39.87.4.85.42.81.43.79.44.76.44.73.45.7.45.67.45.64.46.61.45.59.46.56.45.54.45.5.45.49.45.45.46.43.44.41.45.38.44.35.44.33.43.31.43.28.42.25.42.23.41-.87 2.57-.32.29-.35.27-.36.27-.39.26-.41.25-.42.24-.45.23-.46.22-.49.21-.51.2-.52.2-.54.18-.57.17-.58.17-.6.16-.63.15-.64.14-.67.14-.68.13-.71.12-.73.11-.75.11-.77.1-.78.09-.81.09-.82.08-.84.07-.85.07-.87.07-.88.06-.9.05-.91.05-.93.05L5 11l-.94.04-.96.03-.96.04-.97.03-.97.03-.98.03-.99.02-.99.03-.99.02-.99.02-.99.02-1 .02-.99.02-.99.02-.98.03-.98.02-.98.02-.97.02-.96.02-.96.02-.94.03-.94.02-.92.02-.92.02-.9.03-.89.02-.87.02-.86.02-.84.02-.83.02-.72.01-.72.01h-2.72l-.65-.01-.62-.01-.61-.01-.58-.02-.57-.02-.55-.02-.52-.03-.5-.03-.48-.04" filter="url(#a)" transform="translate(34.5 -29.15)"/><path fill="#fff" d="m35.46 5.02-.31-.7-.36-.71-.38-.73-.42-.73-.44-.74-.48-.75-.51-.74-.53-.74-.56-.74-.59-.73-.62-.72-.63-.71-.67-.7-.69-.68-.71-.67-.74-.95-.77-.93-.81-.88-.85-.85-.87-.81-.91-.77-.94-.72-.96-.67-.99-.62-1.01-.58-1.03-.52-1.06-.47-1.07-.41-1.09-.36-1.1-.31-1.12-.26-1.12-.2-1.13-.16-1.14-.09-1.14-.05H6.56l-1.14.05-1.14.09-1.14.15-1.13.19-1.13.23-1.11.27-1.11.31-1.09.34-1.07.38-1.06.42-1.05.45-1.02.47-1.01.5-.98.53-.96.54-.94.57-.91.58-.89.6-.87.62-.84.62-.81.63-.79.64-.76.65-.73.64-.71.65-.68.65-.66.64-.63.64-.6.63-.58.63-.56.63-.53.62-.51.62-.49.62-.46.6-.44.61-.42.59-.4.59-.37.58-.35.57-.32.56-.31.55-.28.54.38 3.68.24.36.26.34.28.33.29.32.32.31.33.3.36.28.37.28.4.27.41.25.44.24.45.23.47.23.49.21.52.2.53.19.55.19.58.17.6.17.62.15.64.15.67.14.68.13.71.12.72.12.75.11.77.1.79.09.8.08.83.08.84.08.86.06.88.07.9.05.91.05.92.05.94.04.95.04.96.03.98.04.99.02.99.03 1.01.02 1.01.02 1.02.01 1.02.02 1.03.01 1.04.01 1.03.01h1.04l1.04.01h3.1l1.03-.01 1.02-.01 1.01-.01 1.01-.01 1-.02.98-.02.98-.02.96-.03.94-.03.94-.04.8-.05.79-.06.78-.06.76-.07.75-.08.73-.09.71-.09.69-.11.68-.11.65-.13.62-.13.6-.15.58-.15.55-.17.51-.19" filter="url(#a)" transform="translate(-48.03 -29.61)"/><g fill="none" stroke="#000" transform="translate(34.5 -29.15)"><path stroke-linejoin="round" stroke-width="1.667" d="m-36.44 8.37.08-.22.11-.25.14-.29.16-.32.19-.35.23-.37.25-.4.28-.42.31-.44.34-.45.36-.47.4-.48.42-.5.45-.5.48-.5.5-.52.53-.51.56-.52.58-.51.61-.52.63-.51.66-.51.67-.5.71-.5.72-.49.73-.65.77-.65.81-.62.84-.61.87-.59.91-.56.93-.54.97-.51 1-.49 1.02-.45 1.04-.43 1.07-.39 1.09-.36 1.1-.32 1.12-.3 1.14-.26 1.14-.22 1.16-.19 1.16-.15 1.17-.12 1.17-.08 1.17-.05 1.17-.02 1.16.02 1.16.05 1.15.08 1.14.12 1.13.14 1.12.18 1.1.2 1.08.23 1.07.25 1.04.28 1.03.3 1 .32.97.34.95.36.93.38.9.39.87.4.85.42.81.43.79.44.76.44.73.45.7.45.67.45.64.46.61.45.59.46.56.45.54.45.5.45.49.45.45.46.43.44.41.45.38.44.35.44.33.43.31.43.28.42.25.42.23.41.21.4.18.4.16.39.14.38.12.37.09.37.07.36.06.35.03.34.01.33" filter="url(#a)"/><path stroke-linejoin="round" stroke-width="2.222" d="m-35.85 10.82.17.11.2.09.24.1.27.08.31.07.34.07.36.06.4.06.42.05.45.04.48.04.5.03.52.03.55.02.57.02.58.02.61.01.62.01.65.01h2.72l.72-.01.72-.01.83-.02.84-.02.86-.02.87-.02.89-.02.9-.03.92-.02.92-.02.94-.02.94-.03.96-.02.96-.02.97-.02.98-.02.98-.02.98-.03.99-.02.99-.02 1-.02.99-.02.99-.02.99-.02.99-.03.99-.02.98-.03.97-.03.97-.03.96-.04.96-.03L5 11l.93-.04.93-.05.91-.05.9-.05.88-.06.87-.07.85-.07.84-.07.82-.08.81-.09.78-.09.77-.1.75-.11.73-.11.71-.12.68-.13.67-.14.64-.14.63-.15.6-.16.58-.17.57-.17.54-.18.52-.2.51-.2.49-.21.46-.22.45-.23.42-.24.41-.25.39-.26.36-.27.35-.27.32-.29.3-.3.29-.3.26-.32.25-.32.22-.34.21-.34.18-.35.17-.36.15-.37.13-.38" filter="url(#a)"/><circle cx="-19.31" cy="2.408" r="3.384" clip-path="url(#b)" filter="url(#a)"/><circle cx="-22.845" cy="1.468" r="3.496" clip-path="url(#b)" filter="url(#a)"/><circle cx="-19.365" cy="5.003" r="3.354" clip-path="url(#b)" filter="url(#a)"/><circle cx="-19.54" cy="4.588" r="3.54" clip-path="url(#b)" filter="url(#a)"/><circle cx="-23.115" cy="3.928" r="4.744" clip-path="url(#b)" filter="url(#a)"/><circle cx="-19.605" cy="3.573" r="4.878" clip-path="url(#b)" filter="url(#a)"/><circle cx="-20.425" cy="2.438" r="3.1" clip-path="url(#b)" filter="url(#a)"/><circle cx="-18.75" cy="5.238" r="4.822" clip-path="url(#b)" filter="url(#a)"/><circle cx="-18.77" cy="5.353" r="4.312" clip-path="url(#b)" filter="url(#a)"/><circle cx="-21.355" cy="4.578" r="4.086" clip-path="url(#b)" filter="url(#a)"/></g><g fill="none" stroke="#000" transform="translate(-48.03 -29.61)"><path stroke-linejoin="round" stroke-width="2.222" d="m36.72 10.3.04-.32.01-.39-.04-.43-.07-.49-.11-.53-.15-.56-.18-.6-.22-.63-.25-.65-.29-.68-.31-.7-.36-.71-.38-.73-.42-.73-.44-.74-.48-.75-.51-.74-.53-.74-.56-.74-.59-.73-.62-.72-.63-.71-.67-.7-.69-.68-.71-.67-.74-.95-.77-.93-.81-.88-.85-.85-.87-.81-.91-.77-.94-.72-.96-.67-.99-.62-1.01-.58-1.03-.52-1.06-.47-1.07-.41-1.09-.36-1.1-.31-1.12-.26-1.12-.2-1.13-.16-1.14-.09-1.14-.05H6.56l-1.14.05-1.14.09-1.14.15-1.13.19-1.13.23-1.11.27-1.11.31-1.09.34-1.07.38-1.06.42-1.05.45-1.02.47-1.01.5-.98.53-.96.54-.94.57-.91.58-.89.6-.87.62-.84.62-.81.63-.79.64-.76.65-.73.64-.71.65-.68.65-.66.64-.63.64-.6.63-.58.63-.56.63-.53.62-.51.62-.49.62-.46.6-.44.61-.42.59-.4.59-.37.58-.35.57-.32.56-.31.55-.28.54-.27.53-.24.52-.22.51-.2.5-.18.49-.16.47-.14.47-.12.45-.11.44-.08.43" filter="url(#a)"/><path stroke-linejoin="round" stroke-width="2.222" d="m36.57 11.53-.13.36-.18.34-.22.32-.27.29-.31.28-.35.26-.38.25-.42.22-.46.22-.49.19-.51.19-.55.17-.58.15-.6.15-.62.13-.65.13-.68.11-.69.11-.71.09-.73.09-.75.08-.76.07-.78.06-.79.06-.8.05-.94.04-.94.03-.96.03-.98.02-.98.02-1 .02-1.01.01-1.01.01-1.02.01-1.03.01h-3.1l-1.04-.01H8.11l-1.03-.01-1.04-.01-1.03-.01-1.02-.02-1.02-.01-1.01-.02-1.01-.02-.99-.03-.99-.02-.98-.04-.96-.03-.95-.04-.94-.04-.92-.05-.91-.05-.9-.05-.88-.07-.86-.06-.84-.08-.83-.08-.8-.08-.79-.09-.77-.1-.75-.11-.72-.12-.71-.12-.68-.13-.67-.14-.64-.15-.62-.15-.6-.17-.58-.17-.55-.19-.53-.19-.52-.2-.49-.21-.47-.23-.45-.23-.44-.24-.41-.25-.4-.27-.37-.28-.36-.28-.33-.3-.32-.31-.29-.32-.28-.33-.26-.34-.24-.36-.22-.36-.2-.38-.18-.38-.16-.4-.14-.41-.13-.42-.11-.43-.09-.44-.07-.45-.06-.46" filter="url(#a)"/><circle cx="-1.886" cy="-4.013" r="4.92" clip-path="url(#c)" filter="url(#a)"/><circle cx="-2.626" cy="-1.998" r="4.412" clip-path="url(#c)" filter="url(#a)"/><circle cx="-5.081" cy="-3.663" r="4.924" clip-path="url(#c)" filter="url(#a)"/><circle cx="-4.616" cy="-1.848" r="4.858" clip-path="url(#c)" filter="url(#a)"/><circle cx="-1.036" cy="-2.408" r="3.282" clip-path="url(#c)" filter="url(#a)"/><circle cx="-5.496" cy="-5.708" r="4.484" clip-path="url(#c)" filter="url(#a)"/><circle cx="-2.571" cy="-5.998" r="4.652" clip-path="url(#c)" filter="url(#a)"/><circle cx="-5.841" cy="-3.248" r="4.486" clip-path="url(#c)" filter="url(#a)"/><circle cx="-1.436" cy="-4.288" r="3.496" clip-path="url(#c)" filter="url(#a)"/><circle cx="-5.121" cy="-2.008" r="3.36" clip-path="url(#c)" filter="url(#a)"/></g><g fill="none" stroke="#13866B" stroke-linejoin="round" stroke-width="2"><path d="m52.25-69.37.88.92.59.84.32.74-.03.62-.44.49-.86.36-1.27.24-1.7.12-2.17-.01-2.66-.17-3.22-.35-3.79-.55-4.36-.73-4.93-.91-5.52-1.06-6.14-1.2-6.81-1.34-7.52-1.51-8.28-1.72-9.15-1.92-10.1-2.07" filter="url(#a)"/><path d="m62.38-58.87-.09.03-.18.35-.52.33-1.05.08-1.61-.19-2.18-.4-2.78-.62-3.44-.89-4.23-1.24-5.09-1.63-6.02-2.06-6.9-2.5-7.7-2.96-8.45-3.44-9.26-3.95-10.36-4.44m77.81 35.34-.04.45-.54.92-1.46.69-2.41.29h-3.34l-4.24-.21-5.17-.39-6.15-.56-7.18-.76-8.27-1-9.37-1.26-10.49-1.58-11.6-1.95-12.72-2.4-13.91-2.83-15.17-3.15m16.22-24.48.67-.24.72-.18.85-.23.94-.24.84-.19.59-.08.27.04-.08.19-.39.33-.66.48-.91.63-1.18.79-1.54.95-2 1.14-2.54 1.33-3.11 1.54-3.68 1.79-4.31 2.1-4.86 2.28M-.98-89.46l1.18.01 2.01.27 2.59.43 2.86.54 2.91.64 2.89.71 2.87.77 2.88.83 2.88.85 2.82.85 2.71.77 2.5.66 2.22.59 1.79.46" filter="url(#a)"/><path d="m72.68-42.68-.08.09.24.59.32.73.28.72.16.61-.01.43-.22.18-.44-.14-.68-.5-.96-.94-1.26-1.38-1.58-1.85-1.91-2.29-2.23-2.71-2.57-3.16-2.94-3.68-3.35-4.29-3.73-4.88-4.02-5.38" filter="url(#a)"/><path d="m62.1-59.15 1.31 1.98-.22.6-1.01.17-1.61.03-2.27-.11-3.05-.36-3.92-.72-4.86-1.13-5.85-1.56-6.85-1.99-7.86-2.41-8.94-2.85-10.12-3.28-11.36-3.72-12.41-4.13m-15.13-4.32 1.77-.32 2.06-.38 2.67-.4 3.16-.38 3.5-.29 3.76-.2 4.04-.16 4.3-.15 4.47-.13 4.54-.12 4.51-.09 4.45-.05 4.43.05 4.43.16m-27.7-3.56.38-.2.98-.07 1.41-.02 1.59-.02 1.63-.02 1.6-.03 1.52-.02 1.38-.01 1.16.01.8.02.27.01-.38-.02-1.02-.02-1.52-.03H.22m17.05 2.03 1.5.29 1.53.41 1.44.42 1.2.36.94.3.74.24.56.2.42.18.24.16.04.14-.22.08h-.51l-.84-.08-1.19-.19-1.59-.28-2.02-.39-2.55-.49-3.18-.63-3.96-.77-4.76-.98" filter="url(#a)"/><path d="m16.62-87.74.68.29 1.04.4 1.54.56 1.87.69 2.02.78 2.02.81 1.94.8 1.86.78 1.78.76 1.72.74 1.65.72 1.54.68 1.39.61 1.2.51.98.4.72.3.38.15-.29-.24m3.85 2.38 1.56 1.2 1.29 1.01 1.1.88 1.05.87 1.03.87.96.83.83.73.68.62.51.48.32.32.09.13-.2-.12-.51-.37-.86-.66-1.23-.95-1.59-1.27-1.93-1.6-2.28-1.95M68.4-49.95l.79 1.2.26.71-.11.46-.49.23-.93-.11-1.4-.52-1.87-.92-2.33-1.29-2.81-1.66-3.34-2.05-3.92-2.47-4.54-2.96-5.15-3.47-5.74-4.05-6.38-4.64-7.08-5.29-7.83-5.93" filter="url(#a)"/><path d="m18.9-87.16 1.36.48 1.26.48.82.42.4.38.05.36-.24.39-.49.45-.75.51-1.04.56-1.37.6-1.75.62-2.18.65-2.64.7-3.11.75-3.59.82-4.08.88-4.56.93-5.09.95-5.64.92-6.23.91-6.89.92-7.6 1.03-8.16 1.04" filter="url(#a)"/><path d="m18.9-87.16 1.53.54 1.77.66 1.68.69 1.62.73 1.62.77 1.7.85 1.79.94 1.89 1 1.92 1.06 1.93 1.06 1.87 1.05 1.8 1.01 1.69.96 1.57.9 1.46.83 1.31.75 1.16.63.95.5.7.34.35.12-.08-.15-.42-.46" filter="url(#a)"/><path d="m25.31-85.3 1.44.64.4.76-.55.79-1.4.88-2.28.98-3.25 1.1-4.27 1.25-5.3 1.44-6.32 1.62-7.36 1.78-8.44 1.92-9.67 2.05-11.06 2.23-12.62 2.49M67.89-50.89l.62 1.02.6.97.45.82.27.68.09.53-.12.33-.34.08-.58-.18-.81-.41-1.06-.67-1.35-.92-1.65-1.21-1.98-1.54-2.31-1.91-2.66-2.3-3.05-2.76-3.48-3.24-3.95-3.74-4.41-4.24-4.9-4.7-5.53-5.2M6.97-89.27l.87.13.62.16.34.24.06.31-.18.38-.42.46-.75.55-1.16.65-1.67.76-2.18.87-2.7 1-3.21 1.12-3.74 1.22-4.33 1.32-4.98 1.41-5.71 1.53-6.47 1.67-7.17 1.82-7.77 1.91m96.99 3.39.9 1 1.12 1.1 1.16 1.1 1.08 1.06.99 1.03.89.98.79.91.66.77.47.56.24.32-.03.03-.3-.28-.6-.6-.94-.93-1.29-1.29-1.67-1.73-2.07-2.22" filter="url(#a)"/><path d="m26.65-84.55-.18-.25.96.31 1.22.5 1.21.53 1.15.52 1.03.46.87.41.72.36.55.32.41.27.24.22.01.14-.29.02-.66-.14-1.11-.33-1.56-.5-1.95-.67-2.28-.82-2.63-.98-3.09-1.2-3.72-1.44m47.24 30.97-.31.06-.31.23-.46.5-.87.52-1.39.36-2.01.1-2.67-.2-3.36-.51-4.06-.82-4.8-1.12-5.57-1.42-6.38-1.75-7.21-2.06-8.06-2.35-8.94-2.61-9.87-2.86-10.84-3.13-11.67-3.55m-16.62-1.52.6-.39 1.15-.53 1.47-.59 1.65-.61 1.77-.63 1.91-.65 2.1-.7 2.26-.76 2.37-.8 2.36-.81 2.29-.77 2.15-.71 1.97-.64 1.74-.56 1.48-.48 1.25-.42 1.09-.36 1.02-.3.9-.24m17.22-.11.82-.03.99.15.93.18.98.17 1.03.18 1.01.19.89.19.71.18.52.17.3.16.06.14-.24.1-.6.06-1 .01-1.43-.05-1.84-.1-2.26-.15-2.66-.18-3.1-.25-3.49-.32-3.69-.38" filter="url(#a)"/><path d="m10.82-88.84-.01.18.26.28.26.42-.06.58-.56.74-1.13.9-1.69 1.06-2.21 1.22-2.74 1.39-3.34 1.59-4.03 1.79-4.79 2-5.57 2.22-6.35 2.46-7.1 2.71-7.85 2.99-8.71 3.33-9.76 3.82" filter="url(#a)"/><path d="m16.62-87.74.56.23.71.21.97.26 1.07.3.98.3.74.25.44.19.13.11-.19.05h-.51l-.89-.03-1.32-.09-1.82-.16-2.34-.25-2.9-.36-3.48-.46-4.09-.56-4.54-.68" filter="url(#a)"/><path d="m13.52-88.34 1.13.2 1.47.45 1.48.52 1.55.59 1.73.65 1.89.73 1.97.76 1.94.77 1.86.75 1.76.72 1.66.69 1.58.65 1.49.63 1.37.57 1.23.52 1.05.43.85.34.6.23.27.08-.23-.18-.9-.53M20.94-90.59l-1.19-.27h-1.07l-1.02.03-1.13-.01h-1.24l-1.27.04-1.23.07-1.13.1-1.07.12-1.06.1-1.09.06-1.19-.02-1.32-.07-1.45-.06-1.53.03-1.54.18-1.47.29-1.39.32-1.32.23-1.15.12-.15.02-27.49-16.18 1.1.57 1.38 1.34 1.77 1.8 1.89 1.36 1.8.93 1.68 1 1.57 1.41 1.46 1.73 1.37 1.69 1.32 1.33 1.37.79 1.51.23 1.63-.24 1.59-.56 1.35-.55 1.05.01 1.18 1.31 2.47 2.03-4.51.1.62-.41.59-.18.82-.2 1.06-.2 1.21-.18 1.29-.16 1.35-.17 1.41-.15 1.47-.12 1.51-.06 1.51.01 1.46.03 1.36-.01 1.25-.09 1.14-.18 1.09-.22 1.07-.22 1.15-.17 1.26-.09 1.37-.02 1.35.02 1.08-.1.45-.45m-31.01 3.94-1.6-.11-1.15-.63-.96-.98-.91-.64-.96-.13-1.08.17-1.22.24-1.35.13-1.45-.09-1.54-.39-1.68-.73-1.82-1.06-1.99-1.27-2.09-1.3-2.13-1.09-2.1-.77-2.05-.46-1.98-.4-1.92-.64-1.78-1.05-1.56-1.14-1.5-.4-2.54 1.77" filter="url(#a)"/><path d="m13.89-90.71-1.79-.12-.98.03-.88-.04-.96-.07-1.1-.02-1.27.05-1.4.11-1.51.12-1.54.11-1.51.08-1.45.07-1.39.06-1.31.06-1.26.06-1.2.08-1.15.11-1.18.18-1.29.24-1.47.31-1.62.33-1.61.34-1.28.34-.73.29-.17.17" filter="url(#a)"/><path d="m-16.16-87.82.47 1.53.83.39 1.23-.38 1.53-.43 1.6-.14 1.46.16 1.29.37 1.16.51 1.13.63 1.15.69 1.19.69 1.22.66 1.25.64 1.3.65 1.36.66 1.41.58 1.39.41 1.27.34 1.03.64.91 1.34 1.29 1.38M-17.2-87.68l.64-.33.48-.53.79-.63 1.18-.84 1.45-1.17 1.49-1.51 1.38-1.74 1.23-1.79 1.14-1.68 1.16-1.44 1.23-1.2 1.33-1.07 1.44-1.16 1.54-1.46 1.68-1.86 1.83-2.11 1.99-2.02 2.03-1.64 1.88-1.53 1.58-2.42 1.2-4.34" filter="url(#a)"/><path d="m7.55-82.6-1.11-.11-1.41-.45-1.57-.65-1.54-.66-1.43-.56-1.33-.46-1.28-.4-1.23-.38-1.19-.35-1.16-.31-1.15-.27-1.2-.18-1.3-.07-1.4.12-1.44.3-1.36.39-1.19.33-.99.08-.89-.19-.92-.27-.88-.12-.24-.33-2.95.48-1.62.59-.91.29-1 .25-1.21.31-1.38.32-1.49.26-1.59.09-1.69-.13-1.75-.38-1.7-.53-1.56-.54-1.35-.34-1.13-.01-1 .33-.97.58-1.08.64-1.28.56-1.53.41-1.72.26-1.75.21-1.61.47-1.63.94 28.98-3.56.47.02 1.57.25 1.62.39 1.36.21 1.07-.12.89-.31.86-.29.97-.09 1.18.25 1.4.6 1.52.86 1.5.96 1.36.89 1.18.65 1.06.42 1.05.33 1.12.44 1.2.71 1.17 1.17.92 1.89-5.84-27.31-.18 1.69-1.04 1.37-1 1.28-1.16.98-1.47.51-1.7.18-1.66.24-1.41.63-1.06 1.12-.79 1.49-.71 1.55-.81 1.29-1.04.79-1.32.3-1.45.18-1.2.84-.53 1.99-.44 1.64" filter="url(#a)"/><path d="m-30.02-83.23-1.99.47-1.7.61-1.28.48-1.02.26-.92.11-.94.1-.99.19-1.06.34-1.14.45-1.26.49-1.37.47-1.44.4-1.43.33-1.36.26-1.26.2-1.17.2-1.18.38-1.53.83-2.82 1.71-12.09-8.17.82 1.05 1.57-.49 1.82-.69 1.94-.35 1.97-.07 1.83-.05 1.59-.25 1.37-.44 1.27-.5 1.34-.39 1.55-.13 1.78.16 1.96.4 2 .5 1.87.43 1.64.25 1.38.08 1.15-.03.97-.09.84-.19.96-.17 1.68.49 2.62.65" filter="url(#a)"/><path d="m-49.19-73.87.48-.34.64-.42.78-.45.92-.57 1.05-.66 1.18-.71 1.26-.68 1.29-.59 1.23-.51 1.14-.45 1.02-.41.88-.4.68-.35.5-.27.46-.21 1.47-.8 1.65-.84 1.51-.7 1.38-.63 1.32-.63 1.27-.64 1.21-.6 1.17-.55 1.17-.51 1.2-.45 1.23-.42 1.22-.37 1.13-.32 1-.27.88-.24.82-.23.91-.25 1.26-.32 1.98-.45 3.17-.66" filter="url(#a)"/><path d="m-16.16-87.82-1.17.23-1.19.3-1.24.33-1.32.36-1.28.38-1.2.36-1.15.38-1.17.4-1.24.46-1.31.51-1.34.55-1.38.59-1.46.65-1.48.69-1.27.63-.74.38M81.12-18.4l.2 1.28 1.09 1.49 2.4 1.29 3.09 1.02 2.77.91 1.83.98.94 1.17.48 1.35.45 1.51.69 1.62.98 1.7 1.28 1.74 1.56 1.75 1.83 1.69 2.02 1.63 1.95 1.61 1.5 1.68.73 1.72-.77 1.31m-165.9-71.24 1.38-1.51 1.04-1.01.9-.82.83-.75.84-.78.9-.84.98-.9 1.02-.92 1.03-.89 1.01-.84.98-.79.94-.73.91-.7.93-.68.99-.7 1.09-.74 1.19-.81 1.25-.83 1.16-.76.81-.51.02.06-28.25-1.76 2.36-1.32 2.25-.75 2.31.1 2.31.56 2.32.79 2.25.87 2 .68 1.6.19 1.16-.47.93-1 1-1.06 1.39-.6 1.92.27 2.21 1.19 1.85 1.52.39.79-6.01 3.98-1.36.15-.84.32-.91.48-1.18.44-1.42.31-1.57.21-1.64.18-1.64.2-1.59.2-1.52.19-1.46.2-1.47.28-1.55.37-1.75.39-2.05.23-2.39-.07-2.73-.4-3.29-.37" filter="url(#a)"/><path d="m-47.11-73.95.41-.24.86-.79.93-1.11.99-1.23 1.04-1.18 1.04-1.04.99-.93.91-.85.81-.82.75-.83.72-.88.78-.95.9-1.03 1.04-1.14 1.14-1.26 1.2-1.34 1.23-1.33 1.3-1.18 1.34-.97 1.18-.86.65-.98-.32-1.03M80.56-20.57l.23-1.09-.29-.89-.34-.95-.3-1.15-.25-1.3-.21-1.31-.18-1.21-.21-1.12-.25-1.11-.3-1.21-.34-1.33-.35-1.44-.33-1.5-.36-1.52-.44-1.5-.56-1.37-.36-.88M-48.3-72.53l.34-.59.4-.85.26-1.44.27-1.79.54-1.68.87-1.35 1.08-1.08 1.1-1.01.98-1.07.83-1.15.71-1.21.64-1.21.65-1.23.72-1.26.84-1.35.98-1.49 1.08-1.71 1.1-1.92 1.13-2.04 1.19-1.9 1.31-1.47 1.27-.94.79-.78-.6-2.04-22.27 35.22.55-.22-.7.92-.97 1.11-.91.99-.76.89-.69.91-.66 1.03-.66 1.17-.66 1.29-.63 1.35-.56 1.37-.5 1.36-.47 1.37-.5 1.41-.57 1.46-.58 1.4-.38.67" filter="url(#a)"/><path d="m-50.19-71.23-2.17 1.24-1.47 1.25-1.13.85-1.06.49-1.25.23-1.57.06h-1.82l-1.88.12-1.67.41-1.35.72-1.19.86-1.39.69-1.89.37-2.46.35-3.02.8 6.14 15.97 1.12-2.17.68-1.31.61-1.03.57-.88.55-.84.57-.88.63-.98.7-1.08.77-1.13.81-1.14.84-1.13.86-1.12.89-1.11.92-1.1.94-1.06.93-.97.87-.83.79-.7.73-.69.86-.97 1.21-1.45" filter="url(#a)"/><path d="m-42.95-111.16-1.77 3.11-1.17 1.69-.47 1.86-.23 1.94-.31 1.87-.59 1.64-.97 1.2-1.39.72-1.69.37-1.77.35-1.51.78-.89 1.63-.04 2.76.74 3.75 1.1 4.14.92 3.77.46 3.08.32 2.75.43 2.61-.74 1.75m-2.19 2.49-2.17-.14-1.26.89-.92 1.27-1.04 1.15-1.33.81-1.53.55-1.55.51-1.4.66-1.21.84-1.06.93-.98.92-.94.82-.94.74-.97.71-1.13.7-1.41.65-1.77.52-2 .33-1.88.1-1.47-.03-1.31.75m27.05-12.77.53 3.01.8 2.98-.14 1.91-.74 1.2-1.01.81-1.11.66-1.07.73-.85.96-.48 1.27v1.56l.55 1.79.98 1.9 1.01 1.83.45 1.59.02 1.88M80.37-21.58l1.45.97 1 1.36 1.29 1.4 1.18 1.45.87 1.46.71 1.37.73 1.26.86 1.17.95 1.18 1.02 1.26 1.04 1.38 1.09 1.51 1.13 1.63 1.12 1.71 1.03 1.73.98 1.64 1.2 1.49 1.73 1.37 1.23 1.12" filter="url(#a)"/><path d="m-39.26-85.15-.2.2-1.04.67-1.06.74-1.05.9-1.07 1.07-1.05 1.18-1.02 1.17-.96 1.09-.91.99-.88.89-.89.85-.91.87-.91.95-.9 1.05-.88 1.14-.87 1.2-.8 1.2-.68 1.15-.56 1.06-.59.97-.75.88-.61.59" filter="url(#a)"/><path d="m-95.82-61.46 3.5.47 1.79.11 1.1-.8 1.55-.84 2.35-.29 3.02.4 3.35.89 3.26 1.03 2.79.75 2.14.17 1.57-.47 1.22-.91 1.15-1.02 1.25-.83 1.57-.34 3.53 2.02 24-1.09-.96-1.26-1.53-.9-1.62-.85-1.53-.69-1.36-.32-1.15.18-.96.62-.92.82-1.01.77-1.15.6-1.2.44-1.09.43-.94.5-.92.55-1.14.5-1.57.31-2.12.04-2.83-.65-1.11-35.87.5 3.61-.08 3.01.24 3.32.67 3.67.61 3.49.11 2.77-.53 1.76-1.06.85-1.35.37-1.39.36-1.32.67-1.26.99-.87 1.48 1.05 3.22 5.48 6.99-1.61.77-1.57.51-1.34.8-1.2.86-1.2.68-1.28.44-1.36.33-1.34.41-1.21.62-1.06.86-.99.99-1.08.97-1.32.84-1.66.69-1.96.56-2.13.5-2.04.46-1.67.52-1.15.72-.99.92-1.81.5 28.45-12.26.53-1.9-.37-2.45-.24-2.41.3-1.91.7-1.41.77-1.19.57-1.32.19-1.77-.19-2.39-.43-2.93-.42-3.09-.15-2.84.32-2.29.86-1.71 1.13-1.38.66-1.75-5.56 34.79-1.21 1.39-.77.81-.82.53-1.03.41-1.21.44-1.27.57-1.3.68-1.36.7-1.42.69-1.45.69-1.44.75-1.4.81-1.37.84-1.39.81-1.41.77-1.44.8-1.47.9-1.54 1.04-1.64 1.17-1.65 1.22-1.53 1.26-1.54 1.32-2.27 1.38 30.12-17.88-1.81-4.69 1.32-1.15 1.44-.69 1-.98.71-1.3.65-1.41.74-1.37.8-1.28.69-1.29.44-1.43.14-1.71-.02-2.04.01-2.35.12-2.52-.08-2.15-1.11-.34" filter="url(#a)"/><path d="m-68.17-50.57.01-.55.2-1.16.19-1.15.2-1.09.3-1.1.46-1.16.62-1.23.68-1.3.67-1.35.65-1.4.66-1.39.75-1.33.88-1.23.96-1.14.92-1.1.77-1.05.61-.99.61-.91.91-1.03 1.39-1.41m-14.29 26.38-5.03-2.61-2.48-.77-.35 1.34-.26 1.72-.91 1.24-1.32.84-1.18.83-.72 1.13-.34 1.47-.3 1.63-.66 1.55-1.27 1.3-1.9.99-2.49.7-2.98.48-3.38.35-3.57.39-3.38.7-2.66 1.18-1.58 1.47-.76 1.08-1.93.39 38.31-15.78-1.23 2.3-.88 1.05-1.12.57-1.25.54-1.12.8-.96 1.08-.98 1.23-1.19 1.21-1.49 1.08-1.77.94-2.03.8-2.27.71-2.48.67-2.59.71-2.52.82-2.2.98-1.79 1.08-1.5 1.09-1.53 1.05-1.81 1.14-1.95 1.48-1.96 2.12-2.37 3.18m37.03-23.02 4.14-.91 1.04-1.26.55-.94.81-.77 1.01-.76.96-.83.8-.87.68-.84.66-.73.73-.66.82-.68.88-.76.95-.84 1.04-.79 1.18-.61 1.27-.41 1.2-.36.85-.68" filter="url(#a)"/><path d="m-72.63-67.92-1.48 1.87-.95 1.67.06 1.86.61 1.93.69 1.88.55 1.82.46 1.87.44 1.97.41 1.98.34 1.84.16 1.59-.1 1.43-.42 1.51-.63 1.66-.22 1.01m-1.53 3.06.04-1.48-.74-1.51-1.25-1.98-1.3-2.33-1.02-2.39-.66-2.18-.29-1.91.03-1.68.26-1.58.4-1.52.46-1.45.42-1.35.25-1.31-.04-1.39-.34-1.65-.6-2.24-.9-3.7 2.84 37.2-.5 1.59-.39 1.39-.31 1.2-.27 1.18-.27 1.26-.23 1.35-.19 1.35-.11 1.3-.07 1.26-.06 1.29-.1 1.37-.14 1.44-.15 1.49-.11 1.47-.05 1.41.02 1.34.04 1.28.01 1.2-.03 1.01-.01.77.12.72.2 1.01M80.1-23.34l-2.25-2.19-.56-1.58-.74-.84-1.36-.43-1.7-.4-1.62-.62-1.3-.86-1.03-1.03-.91-1.06-.87-1.06-.81-1.05-.71-1.04-.63-.97-.75-.72-1.07-.18-1.4.73 14.38 3.6 4.05-4.31.7-1.92-1.67-.83-2.03-.65-1.44-.84-.69-1.11-.1-1.38.29-1.62.53-1.86.65-2.04.64-2.12.44-2.07.09-1.94-.22-1.88-.24-2.05.18-2.53.85-3.11 1.23-3.18.42-.54" filter="url(#a)"/><path d="m98.64-15.1-.92-2.89-1.12-2-1.22-1.62-1.19-1.4-1.09-1.25-1.04-1.13-1.13-1.05-1.32-1.02-1.44-1-1.39-1.01-1.14-1.04-.82-1.1-.54-1.2-.45-1.28-.59-1.31-.95-1.24-1.34-1.11-1.56-1.03-1.49-1.04-1.36-1.01-1.75-.66-1.97-.71m-4.93-8.69 1.1.72 1.59.53 1.83.33 2.12.2 2.49.06 2.82-.12 3.04-.27 3.1-.32 2.99-.18 2.7.15 2.13.67 1.42 1.23 1.08 1.5 1.74 1.22 3.82 1.33-45.67-34.61 1.08 1.04.66 1.06.48 1.4.53 1.55.63 1.53.68 1.45.71 1.39.68 1.33.64 1.35.55 1.43.45 1.54.4 1.56.4 1.5.44 1.36.49 1.18.55 1.03.63.96.66 1.12.46 1.58.58 2.2" filter="url(#a)"/><path d="m46.49-62.02.84-.23.92.39 1.06.52 1.25.45 1.43.29 1.51.18 1.46.21 1.29.4 1.09.66.93.88.89.94.95.85 1 .72.89.68.68.77.67.79 1.33.41 1.64-.42-1.53-2.32 1.28-4.79-.7-1.22-.89-.99-.68-1.38-.4-1.7-.25-1.82-.27-1.76-.38-1.69-.39-1.81-.13-2.22.4-2.91 1.05-3.69 1.53-4.36 1.54-4.62.73-4.42.27-5.46" filter="url(#a)"/><path d="m64.79-55.85-.09.15.38.52.7.98.81 1.22.83 1.29.81 1.29.77 1.24.73 1.2.68 1.17.65 1.15.59 1.12.56 1.1.52 1.06.52 1.07.54 1.11.57 1.2.59 1.28.57 1.33.55 1.38.57 1.45.55 1.28m-25.3-60.92.08 1.76.28 1.72.43 1.76.52 1.84.44 1.99.38 2.04.47 1.87.73 1.5 1 1.09 1.12.86 1.03.93.77 1.24.44 1.69.12 2.09-.1 2.32-.15 2.27-.04 1.98.26 1.58.8 1.46 1.91 2.32L59-62.93l1.41-2.23-.72-1.18-.95-1.13-.55-1.66-.18-2.09-.19-1.99-.53-1.5-.92-1.02-1.09-.86-.95-1.13-.61-1.67-.25-2.22-.01-2.61.06-2.73v-2.55l-.2-2.07-.51-1.39-.91-.92-1.32-1.55-2.32-4.27" filter="url(#a)"/><path d="m83.87-49.25-.95-2.43-1.99-.98-2.22-.35-1.96-.46-1.56-.79-1.35-1-1.35-.98-1.39-.86-1.33-.76-1.15-.74-1-.76-.98-.74-1.04-.74-1.1-.83-1.1-.96-1.26-.85-1.59.01-.98.99M36-74.55l1.2.34 1.62.66 1.41.29 1.22.01 1.16-.06 1.15.05 1.14.25 1.11.43 1.06.59 1.03.65 1.08.66 1.15.6 1.16.55 1.03.58.87.72.81.9" filter="url(#a)"/><path d="m53.41-68.37-1.32-.17-1.27-.22-1.2-.53-1.21-.53-1.21-.42-1.24-.29-1.27-.18-1.27-.1-1.22-.08-1.16-.1-1.13-.17-1.17-.27-1.23-.41-1.26-.55-1.26-.62-1.28-.47-1.37.02-1.34.75-.7 1.02m23.11 3.32-.66-1.04-.39-1.46.02-2.39.47-3.16.5-3.16.04-2.44-.59-1.53-.98-.93-.97-.91-.64-1.44-.22-2.24.02-3.01-.02-3.49-.23-3.64-.36-3.69-.34-4.11-.79-5.67" filter="url(#a)"/><path d="m52.25-69.37.23-1.67.44-3.07.16-2.77-.43-1.74-.95-.93-1.14-.66-1.02-.85-.71-1.3-.38-1.84-.15-2.43-.02-2.99-.01-3.48-.11-3.7-.35-3.43-.72-2.7-1.07-1.76-1.07-.81-.71.85m1.96 30.3-1.05-1.02-.73-.64-.62-.8-.64-1.15-.76-1.41-.94-1.4-1.1-1.23-1.16-1.04-1.12-1.01-.98-1.13-.85-1.35-.78-1.51-.81-1.57-.92-1.42-1.05-1.17-1.14-.95-1.1-.97-.86-1.26-.63-1.62-1.42-1.93" filter="url(#a)"/><path d="m66.02-69.18-.87.06-1.04-.2-1.24-.48-1.31-.65-1.32-.72-1.3-.7-1.3-.61-1.38-.39-1.51-.17-1.63-.01-1.62-.03-1.47-.18-1.27-.34-1.23-.41-1.42-.59-1.6-1.02" filter="url(#a)"/><path d="m44.51-75.62-.82.58-.98.17-1-.31-1.25-.36-1.47-.3-1.49-.31-1.4-.38-1.27-.39-1.2-.31-1.19-.15-1.23.02-1.29.13-1.31.13-1.29.05-1.21-.03-1.17.05-1.14.37-1.14.76-1.1.86-.83 1.14 17.52-5.31 1.27.42 1.61.9 1.26.73.97.59.87.58.89.62.94.68.98.72 1.01.74 1.01.77 1.02.78 1.01.81 1 .8.97.82.96.84.99.88 1.03.92 1.09.92 1.18.97 1.82 1.66L37.7-79.65l-1.83-1.34-1.07-.59-.93-.48-1.01-.56-1.11-.62-1.14-.65-1.12-.64-1.08-.63-1.02-.57-.99-.51-.98-.48-1.03-.51-1.1-.6-1.21-.69-1.28-.7-1.23-.65-1.01-.6-.67-.65-.47-.83" filter="url(#a)"/><path d="m67.01-70.28-2.56-1.24-1.67-.66-1.46-.7-1.45-.59-1.5-.4-1.51-.3-1.46-.33-1.37-.44-1.3-.52-1.28-.51-1.31-.41-1.35-.28-1.38-.17-1.32-.13-1.2-.22-1.08-.4-1.02-.67-1.13-.89-1.34-.84-1.46-.22-1.16.55-3.31-1.71-1.41-1.08-1.21-1.37-1.07-1.18-1.05-.89-1.04-.78-.97-.79-.91-.93-.88-1.1-.91-1.32-.95-1.51-1.02-1.61-1.06-1.49-1.1-1.2-1.15-.81-1.21-.51-1.27-.46-1.31-.64-1.28-.87-1.18-.91-1.01-.72-.94-.69-1.61-.96" filter="url(#a)"/><path d="m8.9-97.36.79.78.94.93.91.74 1 .66 1.14.6 1.23.47 1.26.32 1.24.22 1.2.29 1.18.46 1.17.7 1.16.89 1.11.97 1.06.97.98.93.91.88.91.83.95.79 1.03.72 1.13.66 1.24.64 1.45.72 1.5.83" filter="url(#a)"/><path d="m33.06-82.19 2.93-4.3 1.6-1.57 1.27-.07 1.08 1.07 1.18 1.27 1.53.74 1.84.02 1.97-.43 1.86-.5 1.66-.28 1.48.06 1.36.32 1.32.49 1.33.58 1.37.6 1.51.48 1.77.17 2.07-.21 2.3-.51 2.33-.48 2.22-.18 2.15.12 2.21-.11 2.52-2.3m-46.54 3.45-1.39-1.8-.94-1.09-.77-.79-.79-.92-.85-1.3-.92-1.79-.93-2.2-.91-2.43-.88-2.3-.91-1.89-1.01-1.44-1.15-1.28-1.24-1.63-1.2-2.37-.96-3.25-.43-3.92.2-3.28M25.31-85.3l1.49 1.49 1.43.59 1.17.64.95 1.04.77 1.39.66 1.51.62 1.46.63 1.41.62 1.48.61 1.63.63 1.74.66 1.68.67 1.51.56 1.33.32 1.32.08 1.43.11 1.38.57 1.33M24.03-85.68l-1.68-.25-1.72-.05-1.44-.12-1.19-.16-1.11-.05-1.14.15-1.22.36-1.24.52-1.22.62-1.15.64-1.07.57-1.04.4-1.04.2-1.1.03-1.2-.01-1.31.1-1.4.36-1.41.68-1.34.97-1.25 1.12-1.17 1-1.01.52-.12.25 27.57-7.85-1.64-.46-1.62-.53-1.37-.45-1.16-.37-1.08-.38-1.08-.44-1.13-.47-1.14-.46-1.12-.39-1.08-.32-1.04-.27-1.04-.25-1.1-.24-1.18-.23-1.32-.21-1.44-.2-1.53-.2-1.55-.25-1.51-.27-1.44-.27-1.39-.21-1.37-.11-1.48-.03-2.46-.12 7.42 18.63.83-1.33 1.21-1.17 1.45-.78 1.49-.97 1.39-1.27 1.24-1.36 1.12-1.18 1.03-.94 1.01-.75 1.05-.61 1.11-.49 1.18-.33 1.2-.19 1.17-.07 1.08-.02 1.05-.03 1.17-.1 1.53-.26 2.06.02-31.03-12.5.42 1.06.87.74 1.2.32 1.33.03 1.37.03 1.4.3 1.43.65 1.49.93 1.55 1.02 1.58.97 1.51.78 1.37.6 1.2.45 1.03.37.88.36.58.4.12.86" filter="url(#a)"/><path d="m10.85-88.64-.35 1.04-.66.34-.9.05-1.05-.17-1.19-.24-1.35-.19-1.46-.06-1.5.05-1.47.13-1.4.17-1.33.19-1.27.18-1.2.19-1.12.23-1.05.27-1.03.32-1.15.37-1.41.47-1.74.63-1.81.84-1.26.91L8.53-89.3l-.64.25-1.05-.05-1.4-.05H3.85l-1.59.05-1.5.05-1.4.03-1.32.03-1.28.03-1.21.05-1.14.07-1.04.11-.98.16-1.1.2-1.49.27-2.09.35-2.26.45" filter="url(#a)"/><path d="m8.14-89.04-1.19-.16-1.52-.11-1.69-.08-1.65-.05-1.52-.02-1.4.02-1.32.04-1.27.04-1.22.05-1.16.06-1.15.08-1.19.11-1.3.15-1.44.2-1.52.23-1.45.23-1.23.2-.94.16-.78.16-.98.23-1.65.41" filter="url(#a)"/><path d="m8.14-89.04.73.53.87.66.86.38.95.16 1.11.09 1.19.1 1.18.18 1.12.26 1.06.36 1.06.43 1.13.48 1.23.5 1.24.53 1.16.6.98.62.72.46-.13-.21 1.69 9.31-.54-1.21-.85-1.18-.73-1.15-.63-1.14-.69-1.05-.84-.88-1-.73-1.09-.66-1.1-.71-1.05-.77-.99-.79-1.01-.69-1.06-.49-1.12-.25-1.16-.07-1.09-.01-.99-.17-.86-.6-.8-1.16-.8-1.31-.92-.65" filter="url(#a)"/><path d="m29.11-82.99-1.71-.75-1.14-.4-.91-.3-.93-.35-1.06-.39-1.17-.42-1.24-.41-1.24-.38-1.19-.35-1.14-.31-1.12-.3-1.15-.28-1.16-.26-1.15-.26-1.09-.24-1-.21-.94-.2-.93-.16-.95-.14-.96-.1-.97-.07-5.06-.15-1.02-8.79-1.21-1.75-1.36.01-1.4.34-1.39-.03-1.38-.65-1.43-1.16-1.56-1.41-1.71-1.36-1.81-1.03-1.77-.53-1.63-.1-1.44.04-1.33-.16-1.33-.57-1.45-.92-1.66-1.11-1.91-1.15-2.1-1.18-2.05-1.11-1.62-.87-1.12.21" filter="url(#a)"/></g><path fill="none" stroke="#000" stroke-linejoin="round" stroke-width="3" d="M-9.76 16.76Q13.68 30.705 1.96-5.838" filter="url(#a)"/><path fill="#D77F8C" stroke="#000" stroke-linejoin="round" stroke-width="3" d="m35.13 71.73-.18-.35-.47 1.22-.18.3.33-.02-.15.19-.65.52.12.15-.19.18-.43.24-.67.59.29-.43-.3.36-1.42.81-.21-.03.33-.01-.53.19-1.51.63-.03.01.23-.22-1.13.41.09-.06-2.21.56.63-.1-1.12.18-.24-.04-2.12.31-.2.03-.17-.02-.29.09-1.49.02-.52.08-1.81.03-.11-.02.79.01-2.01-.04-1.31-.04-2.14-.12.01.01 1.12.04-2.67-.19.34.04-1.82-.21-.71-.1-.31-.03-2.73-.41.51.08-2.27-.41.77.15-1.81-.36-1.88-.42.82.19-.6-.14-2.2-.53 1.29.32-2.69-.71-.28-.08-2.01-.6-.72-.25-.78-.27-.38-.12.92.33-1-.36-1.27-.46-2.32-.91.34.16-1.53-.7.04.06-1.42-.65-.82-.43.1.07-1.52-.79.84.43-1.57-.89-.98-.59-.4-.26.57.35-2.33-1.48-.39-.35-.13-.04-.41-.36.61.47-1.85-1.59.11.01.23.32-1.06-1.2-.74-.77-.01-.01-.11-.14.14.02-.39-.61-.23-.38-.17-.15-.42-1.06.15.34-.05-.13-.23-.92.17-.41.06-.66-.3.25-.03.19.27-.39.07-.65.28-.49-.01-.02.49-.98-.02.08h.03l.89-.88.16-.19.49-.32-.39.42v-.12l1.95-1.1-.07.07.86-.31.03-.1h.09l.75-.31-.21.03.93-.18.24-.04 1.37-.33 1.38-.28-.58.1 1.77-.25-1.03.15 1.89-.28 1.25-.08 1.26-.07.07.01h.33-.27l.46-.04 2.91.01h-.94l.65-.02 2.29.11-.58-.04 2.02.14 1.03.11-.4-.06 2.09.23.85.1 2.43.36-2.04-.31.76.1 1.79.29 2.1.38-.48-.09 1.74.35.3.07 3 .71.49.13.44.11 1.21.35.8.22.83.26.58.18-.3-.09 2.76.93-1.05-.37 1.94.69.99.39-1.54-.58 3.48 1.41-.88-.39.17.1 1.84.78.91.44 1.12.57-.4-.21 1.53.81.57.35-.37-.21.54.34 1.12.63-.16-.1.71.56.92.54.29.25.38.35.28.25.27.25 1.24 1.21.34.37-.18-.21.89.99.28.38-.42-.48.37.49.56.75.14.68.19.16-.06.32.37.95.03.02-.13.64.03-.2-.33.92" filter="url(#a)"/></svg>