<svg xmlns="http://www.w3.org/2000/svg" width="500" height="500" viewBox="-100 -100 200 200"><defs><clipPath id="c"><path d="m31.57-3-.26-.46-.29-.47-.34-.48-.37-.48-.41-.48-.44-.48-.48-.47-.51-.46-.55-.46-.58-.45-.61-.43-.64-.42-.67-.4-.69-.39-.73-.36-.74-.65-.78-.61-.82-.56-.86-.52-.9-.47-.94-.42-.97-.37-.99-.33-1.03-.27-1.05-.23-1.07-.18-1.08-.13-1.11-.08-1.11-.04-1.13.01-1.13.05-1.14.09-1.14.13-1.14.17-1.13.2-1.13.24-1.11.27-1.11.31-1.09.33-1.07.36-1.06.38-1.03.4-1.01.42-.99.45-.96.45-.93.48-.91.48-.87.5-.84.5-.82.52-.78.51-.74.53-.71.52-.68.53-.65.53-.61.53-.58.52-.55.53-.51.52-.49.52-.45.51-.42.51-.39.51-.37.5-.34.49-.32.5-.29.48-.27.49-.24.48-.21.48-.19.47-.17.47-.14.47-.12.46-.1.46-.08.46-.05.45-.04.45-.01.44.88 3.94.39.26.41.25.42.25.42.25.44.24.45.23.45.22.47.21.47.21.48.2.49.19.51.17.5.17.52.15.53.15.54.13.55.13.56.11.58.1.58.09.59.07.61.05.61.04.63.02.63.01.64-.02.65-.04.66-.05.67-.08.68-.09.69-.12.69-.13.7-.15.71-.17.72-.19.72-.21.74-.22.73-.23.75-.26.75-.26.76-.27.77-.29.77-.29.78-.3.79-.31.79-.31.79-.31.8-.32.81-.31.81-.31.82-.3.82-.3.82-.29.83-.28.83-.27.83-.26.83-.24.84-.23.83-.21.83-.19.83-.17.83-.16.83-.14.81-.11.67-.23.66-.22.65-.21.63-.22.63-.21.61-.22.6-.22.58-.21.57-.22.55-.22.53-.23.51-.24.48-.24.46-.25.43-.26"/></clipPath><clipPath id="b"><path d="m-33.25-3.09.26-.54.3-.55.34-.55.36-.55.41-.55.44-.54.47-.53.5-.52.54-.5.56-.48.6-.47.62-.45.66-.43.68-.4.71-.38.69-.71.74-.65.78-.6.83-.54.87-.49.9-.42.95-.37.98-.3 1.01-.25 1.04-.19 1.06-.13 1.09-.07 1.11-.02 1.13.03 1.14.09 1.15.13 1.16.18 1.16.22 1.16.27 1.17.3 1.15.34 1.15.38 1.14.41 1.13.43 1.11.46 1.1.49 1.07.51 1.05.52 1.03.54 1 .56.97.57.94.58.91.58.87.59.85.59.81.6.77.59.74.6.69.59.67.59.62.58.59.58.56.57.51.57.48.55.45.55.41.55.38.53.35.53.32.52.29.52.26.51.23.5.2.5.18.49.14.49.11.48.09.48.06.47.03.46.01.46-.02.46-.05.45-.06.45 1.88 2.3-.39.17-.4.17-.4.16-.41.17-.43.15-.43.16-.44.15-.44.14-.46.14-.47.13-.47.12-.48.12-.49.11-.49.1-.5.1-.52.09-.52.08-.54.07-.54.07-.56.05-.56.05-.57.03-.58.02H9.21l-.61-.02-.61-.04-.62-.04-.63-.07-.64-.07-.65-.09-.65-.11-.66-.12-.67-.13-.68-.15-.69-.16-.69-.17-.7-.18-.71-.19-.72-.21-.73-.21-.73-.21-.75-.23-.75-.23-.76-.23-.78-.24-.78-.24-.79-.24-.79-.24-.81-.23-.82-.24-.82-.22-.84-.23-.84-.21-.85-.21-.86-.19-.87-.19-.87-.17-.88-.16-.88-.15-.89-.13-.89-.12-.9-.1-.89-.09-.72-.17-.72-.16-.7-.17-.71-.16-.69-.16-.69-.16-.68-.16-.66-.16-.65-.16-.64-.16-.62-.16-.61-.17-.59-.18-.56-.18-.54-.18"/></clipPath><filter id="a"><feTurbulence baseFrequency=".05" numOctaves="3" result="noise" type="noise"/><feDisplacementMap in="SourceGraphic" in2="noise" scale="2"/></filter></defs><rect width="100%" height="100%" x="-100" y="-100" fill="#704214"/><path fill="#FFEBCD" stroke="#000" stroke-linejoin="round" stroke-width="1.667" d="M70.82-.66v2.97l.05.81-.14 1.92.08.92-.14 1.71-.14 1.17.02 1.13.16-.65-.61 4.06-.25 1.79v-.51l-.15 1.94-.43 2.31v1.51l-.19.11-.55 3.37-.44.89h.22l-.14 1.14-.69 2.48-.06-.16-.58 2-.51 2.46.21-1.05-1.04 3.84-.41.66-.19.49-1 3.13.36-1.47-1.24 3.48-.19.44-.36 1.2-1.25 2.73.16-.75-1.12 2.85-.52 1.02-.4.37-.91 2.14L58 52.9l.37-.74-2.24 3.69.15-.6-1.18 1.96.01.4-1.18 1.49-.25.65-1.07 1.45-1.29 1.64-.17.48-.66.96-.21-.05-.88 1.26-1.66 2.13-.7.4-1.93 2.33.49-.64-2.5 2.59.35-.33.57-.6-2.76 2.71-1.53 1.52 1.55-1.33-2.31 1.92-1.08.55.45-.18-2.03 1.89-1.34.96-1.27.61-.83.93L30.86 82l.63-.24.22-.18-2 1.34-.99.3-1.92 1.3-.91.46.03-.14-3.95 1.76.19-.3.68-.09-2.07.92-1.56.8.32-.28-1.13.21-2.14.72-1.03.24-1.81.63-.09.27-3.06.49.21-.16v-.11l-1.27.55-1.74.18-.83-.01-.6.16-1.41.13-1.84-.03-.71-.05h-.93l-2.24.37-.47-.25-1.16.16.34-.03-.95.11-3.18-.31 1.08-.21-1.9-.21-2.53-.43-.82.17-.49-.41-.19.17-1.77-.62-.61.11-.35-.18-3.38-.84-1.02-.41-1.34-.35 1.84.17-2.67-.71-.97-.37-1.82-1-.41-.26-2.18-.93-1.48-.54-.04.05-1.63-.82-.22-.36-1.3-.68.3.13-.68-.65-1.72-1.15.24.39-1.81-1.6-1.59-1.09-1.19-.82-.44.15-1.77-2.17-.65-.19.32.41-1.48-1.42-1.08-1.32-.69-.34-.99-1.08-1.44-1.42-.18-.31-.97-1.1-1.62-1.74.5.52-1.09-1.44-1.89-2.14-.28-.44-1.2-1.89h-.2l-.62-.77-1.6-2.46-.9-1.34-.21-.59-1.03-1.65.33.58-.02.16-1.55-3.25.2.41-2.14-3.72.63.99-2.06-4.3-.47-.94.38.83-1.11-2.07-.05-.31-.79-1.94-.42-1.69-.47-.46-.82-2.13-.2-1.14-.52-1.49.44.95-.89-3.08-.57-.71-.95-4.67.29 2.5-.18-1.99-.81-2.47-.08-.15-.15-1.77-.22-.11-.06-1.5-.36-1.79-.25-2.23-.18-.58-.17-2.54-.23.39-.18-.85-.51-5.18.38 1.67-.19-2.58-.38-3.75.04-1.34.22 2.46-.04-1.49-.32-2.82.04-1.52.28-2.54-.07-3.69-.03 3.01.07-4.42.34-2.36-.08-.06.18-2 .23.91.01-2.72.38-1.13.21-1.4.12-1.59.02-.95.59-2.68.07-.6.39-1.96.5-1.22-.12-.04 1.04-4.42-.52 2.63.55-1.97 1.05-3.25-.1-.37.14-.79.72-1.41.59-2.43.81-1.45.35-1.3.28.01.39-2.06.69-1.6-.14.65.88-2.14.22-.17 1.21-2.15 1.2-2.74-.18.24.63-.72-.41.43 1.43-2.64 1.54-2.59-.21.19 1.26-1.8.94-1.2 1.72-2.6-1.3 1.54 2.4-3.06-.31.3 1.89-2.31-.46.55.54-.91 1-1.24 1.98-1.91-.85.87 1.55-1.91-.18.06 1.3-.94.92-1.23 1.9-1.91.71-.3 1.41-1.19 1.28-1.26-.76.62 1.18-.82.67-.53 1.99-1.67.25.07 1.03-1.02 1.08-.51.4-.4 2.78-1.86.67-.32 1.66-1.01 1.33-.49.97-.51.54-.31.02.13 2.1-1.03.95-.21.06-.05 1.21-.62v-.03l3.04-.92.37-.12 1.72-.6.34-.12 2.61-.78-2.02.6 2.73-.57 2.54-.38.9-.35.35.07-.45.22 2.5-.45 1.19-.11 1.58-.28.56.04.46-.01L.77-91l.42.19.17-.29 1.27.28 1.74-.17.47.26.69-.07 3.27.41-.8-.01 2.81.38.91.24 1.33.39-1.45-.52 2.66.79 1.88.67-.18-.37 1.16.38.9.6 1.62.47.32-.21 2.17 1.3-.76-.36 2.82 1.07 1.08.42 2.13 1.29-1.33-.89 1.21.9 2.39.87-.54.2 2.68 1.37.37.09.93.72 1.16.68 2.21 1.59-.91-.27.79.3 1.06.89.79.63 1.01.79 2.13 2.15.17.14.47.58 1.72 1.68-.65-.88 2.02 1.92 1.73 2.06.29.22.9 1.24-.25-.54 1.17 1.31.87 1.18 1.88 2.66-.67-1.18.69.81 1.38 2.18.12.4 1.86 2.35 1.46 3.15-.19-.95.69 1.12.69 1.14 1.07 2.2-.2-.06.68 1.2-.01.2 2.33 4.06-.95-1.94.91 2.54.12-.15.57.91 1 2.41.98 3.19-.38-1.4.83 2.59.72 2.43.76 2.05-.54-1.82 1.03 4.08.02-.52.33 1.65.69 1.4.06 1.09-.14-.5.56 2.11.6 3.22.15.39.23 1.91.3 1.75.5 2.48.01-.42.18 1.51.12 1.09-.1 1.2.54 3.34.1 1.65.2 2.17-.04.59-.06.62.2 1.42.06 2.4-.31-.45v2.97" filter="url(#a)"/><path fill="#fff" d="m-33.25-3.09.26-.54.3-.55.34-.55.36-.55.41-.55.44-.54.47-.53.5-.52.54-.5.56-.48.6-.47.62-.45.66-.43.68-.4.71-.38.69-.71.74-.65.78-.6.83-.54.87-.49.9-.42.95-.37.98-.3 1.01-.25 1.04-.19 1.06-.13 1.09-.07 1.11-.02 1.13.03 1.14.09 1.15.13 1.16.18 1.16.22 1.16.27 1.17.3 1.15.34 1.15.38 1.14.41 1.13.43 1.11.46 1.1.49 1.07.51 1.05.52 1.03.54 1 .56.97.57.94.58.91.58.87.59.85.59.81.6.77.59.74.6.69.59.67.59.62.58.59.58.56.57.51.57.48.55.45.55.41.55.38.53.35.53.32.52.29.52.26.51.23.5.2.5.18.49.14.49.11.48.09.48.06.47.03.46.01.46-.02.46-.05.45-.06.45 1.88 2.3-.39.17-.4.17-.4.16-.41.17-.43.15-.43.16-.44.15-.44.14-.46.14-.47.13-.47.12-.48.12-.49.11-.49.1-.5.1-.52.09-.52.08-.54.07-.54.07-.56.05-.56.05-.57.03-.58.02H9.21l-.61-.02-.61-.04-.62-.04-.63-.07-.64-.07-.65-.09-.65-.11-.66-.12-.67-.13-.68-.15-.69-.16-.69-.17-.7-.18-.71-.19-.72-.21-.73-.21-.73-.21-.75-.23-.75-.23-.76-.23-.78-.24-.78-.24-.79-.24-.79-.24-.81-.23-.82-.24-.82-.22-.84-.23-.84-.21-.85-.21-.86-.19-.87-.19-.87-.17-.88-.16-.88-.15-.89-.13-.89-.12-.9-.1-.89-.09-.72-.17-.72-.16-.7-.17-.71-.16-.69-.16-.69-.16-.68-.16-.66-.16-.65-.16-.64-.16-.62-.16-.61-.17-.59-.18-.56-.18-.54-.18" filter="url(#a)" transform="translate(36.43 -23.73)"/><path fill="#fff" d="m31.57-3-.26-.46-.29-.47-.34-.48-.37-.48-.41-.48-.44-.48-.48-.47-.51-.46-.55-.46-.58-.45-.61-.43-.64-.42-.67-.4-.69-.39-.73-.36-.74-.65-.78-.61-.82-.56-.86-.52-.9-.47-.94-.42-.97-.37-.99-.33-1.03-.27-1.05-.23-1.07-.18-1.08-.13-1.11-.08-1.11-.04-1.13.01-1.13.05-1.14.09-1.14.13-1.14.17-1.13.2-1.13.24-1.11.27-1.11.31-1.09.33-1.07.36-1.06.38-1.03.4-1.01.42-.99.45-.96.45-.93.48-.91.48-.87.5-.84.5-.82.52-.78.51-.74.53-.71.52-.68.53-.65.53-.61.53-.58.52-.55.53-.51.52-.49.52-.45.51-.42.51-.39.51-.37.5-.34.49-.32.5-.29.48-.27.49-.24.48-.21.48-.19.47-.17.47-.14.47-.12.46-.1.46-.08.46-.05.45-.04.45-.01.44.88 3.94.39.26.41.25.42.25.42.25.44.24.45.23.45.22.47.21.47.21.48.2.49.19.51.17.5.17.52.15.53.15.54.13.55.13.56.11.58.1.58.09.59.07.61.05.61.04.63.02.63.01.64-.02.65-.04.66-.05.67-.08.68-.09.69-.12.69-.13.7-.15.71-.17.72-.19.72-.21.74-.22.73-.23.75-.26.75-.26.76-.27.77-.29.77-.29.78-.3.79-.31.79-.31.79-.31.8-.32.81-.31.81-.31.82-.3.82-.3.82-.29.83-.28.83-.27.83-.26.83-.24.84-.23.83-.21.83-.19.83-.17.83-.16.83-.14.81-.11.67-.23.66-.22.65-.21.63-.22.63-.21.61-.22.6-.22.58-.21.57-.22.55-.22.53-.23.51-.24.48-.24.46-.25.43-.26" filter="url(#a)" transform="translate(-31.77 -22.71)"/><g fill="none" stroke="#000" transform="translate(36.43 -23.73)"><path stroke-linejoin="round" stroke-width="1.667" d="m-33.92 1.06-.09-.23-.06-.29-.02-.34.01-.39.05-.42.08-.45.12-.48.16-.5.19-.52.23-.53.26-.54.3-.55.34-.55.36-.55.41-.55.44-.54.47-.53.5-.52.54-.5.56-.48.6-.47.62-.45.66-.43.68-.4.71-.38.69-.71.74-.65.78-.6.83-.54.87-.49.9-.42.95-.37.98-.3 1.01-.25 1.04-.19 1.06-.13 1.09-.07 1.11-.02 1.13.03 1.14.09 1.15.13 1.16.18 1.16.22 1.16.27 1.17.3 1.15.34 1.15.38 1.14.41 1.13.43 1.11.46 1.1.49 1.07.51 1.05.52 1.03.54 1 .56.97.57.94.58.91.58.87.59.85.59.81.6.77.59.74.6.69.59.67.59.62.58.59.58.56.57.51.57.48.55.45.55.41.55.38.53.35.53.32.52.29.52.26.51.23.5.2.5.18.49.14.49.11.48.09.48.06.47.03.46.01.46-.02.46-.05.45-.06.45-.1.44-.11.44-.14.44-.15.44-.18.43-.2.43-.22.43-.24.42-.25.43-.27.42" filter="url(#a)"/><path stroke-linejoin="round" stroke-width="2.222" d="m-33.91 2.03.18.35.23.32.27.29.32.28.35.26.4.24.42.23.46.22.49.2.52.2.54.18.56.18.59.18.61.17.62.16.64.16.65.16.66.16.68.16.69.16.69.16.71.16.7.17.72.16.72.17.89.09.9.1.89.12.89.13.88.15.88.16.87.17.87.19.86.19.85.21.84.21.84.23.82.22.82.24.81.23.79.24.79.24.78.24.78.24.76.23.75.23.75.23.73.21.73.21.72.21.71.19.7.18.69.17.69.16.68.15.67.13.66.12.65.11.65.09.64.07.63.07.62.04.61.04.61.02h1.19l.58-.02.57-.03.56-.05.56-.05.54-.07.54-.07.52-.08.52-.09.5-.1.49-.1.49-.11.48-.12.47-.12.47-.13.46-.14.44-.14.44-.15.43-.16.43-.15.41-.17.4-.16.4-.17.39-.17.37-.17.37-.18.36-.17.35-.18.34-.18.33-.18.32-.18.32-.18.3-.17.29-.18" filter="url(#a)"/><circle cx="15.416" cy=".412" r="4.362" clip-path="url(#b)" filter="url(#a)"/><circle cx="13.316" cy="4.662" r="4.188" clip-path="url(#b)" filter="url(#a)"/><circle cx="16.621" cy="1.782" r="3.148" clip-path="url(#b)" filter="url(#a)"/><circle cx="16.706" cy=".607" r="4.5" clip-path="url(#b)" filter="url(#a)"/><circle cx="16.246" cy="2.892" r="3.834" clip-path="url(#b)" filter="url(#a)"/><circle cx="17.651" cy="2.457" r="4.35" clip-path="url(#b)" filter="url(#a)"/><circle cx="15.481" cy="5.097" r="4.33" clip-path="url(#b)" filter="url(#a)"/><circle cx="16.261" cy="4.027" r="4.15" clip-path="url(#b)" filter="url(#a)"/><circle cx="16.336" cy=".667" r="3.2" clip-path="url(#b)" filter="url(#a)"/><circle cx="17.191" cy="3.177" r="4.406" clip-path="url(#b)" filter="url(#a)"/></g><g fill="none" stroke="#000" transform="translate(-31.77 -22.71)"><path stroke-linejoin="round" stroke-width="2.222" d="m31.74.26.19-.15.14-.2.09-.25.04-.29.01-.33-.05-.36-.08-.39-.13-.41-.17-.43-.21-.45-.26-.46-.29-.47-.34-.48-.37-.48-.41-.48-.44-.48-.48-.47-.51-.46-.55-.46-.58-.45-.61-.43-.64-.42-.67-.4-.69-.39-.73-.36-.74-.65-.78-.61-.82-.56-.86-.52-.9-.47-.94-.42-.97-.37-.99-.33-1.03-.27-1.05-.23-1.07-.18-1.08-.13-1.11-.08-1.11-.04-1.13.01-1.13.05-1.14.09-1.14.13-1.14.17-1.13.2-1.13.24-1.11.27-1.11.31-1.09.33-1.07.36-1.06.38-1.03.4-1.01.42-.99.45-.96.45-.93.48-.91.48-.87.5-.84.5-.82.52-.78.51-.74.53-.71.52-.68.53-.65.53-.61.53-.58.52-.55.53-.51.52-.49.52-.45.51-.42.51-.39.51-.37.5-.34.49-.32.5-.29.48-.27.49-.24.48-.21.48-.19.47-.17.47-.14.47-.12.46-.1.46-.08.46-.05.45-.04.45-.01.44v.45l.02.44.04.43.06.44.07.43.09.43.11.42.12.43.13.42.15.42" filter="url(#a)"/><path stroke-linejoin="round" stroke-width="2.222" d="m32.89-1.07-.04.48-.09.45-.14.42-.18.39-.23.37-.26.34-.31.32-.33.3-.38.29-.4.27-.43.26-.46.25-.48.24-.51.24-.53.23-.55.22-.57.22-.58.21-.6.22-.61.22-.63.21-.63.22-.65.21-.66.22-.67.23-.81.11-.83.14-.83.16-.83.17-.83.19-.83.21-.84.23-.83.24-.83.26-.83.27-.83.28-.82.29-.82.3-.82.3-.81.31-.81.31-.8.32-.79.31-.79.31-.79.31-.78.3-.77.29-.77.29-.76.27-.75.26-.75.26-.73.23-.74.22-.72.21-.72.19-.71.17-.7.15-.69.13-.69.12-.68.09-.67.08-.66.05-.65.04-.64.02-.63-.01-.63-.02-.61-.04-.61-.05-.59-.07-.58-.09-.58-.1-.56-.11-.55-.13-.54-.13-.53-.15-.52-.15-.5-.17-.51-.17-.49-.19-.48-.2-.47-.21-.47-.21-.45-.22-.45-.23-.44-.24-.42-.25-.42-.25-.41-.25-.39-.26-.39-.26-.38-.27-.36-.27-.36-.27-.35-.27-.33-.28-.33-.28-.32-.28-.31-.28-.3-.28" filter="url(#a)"/><circle cx="-11.315" cy="6.277" r="4.132" clip-path="url(#c)" filter="url(#a)"/><circle cx="-14.335" cy="2.932" r="4.626" clip-path="url(#c)" filter="url(#a)"/><circle cx="-10.33" cy="2.777" r="4.034" clip-path="url(#c)" filter="url(#a)"/><circle cx="-12.8" cy="4.572" r="4.538" clip-path="url(#c)" filter="url(#a)"/><circle cx="-12.48" cy="3.017" r="4.9" clip-path="url(#c)" filter="url(#a)"/><circle cx="-14.84" cy="2.232" r="3.278" clip-path="url(#c)" filter="url(#a)"/><circle cx="-12.745" cy="6.127" r="4.612" clip-path="url(#c)" filter="url(#a)"/><circle cx="-10.71" cy="3.482" r="3.754" clip-path="url(#c)" filter="url(#a)"/><circle cx="-13" cy="2.752" r="4.846" clip-path="url(#c)" filter="url(#a)"/><circle cx="-10.86" cy="4.422" r="4.656" clip-path="url(#c)" filter="url(#a)"/></g><g fill="none" stroke="#D8D8D8" stroke-linejoin="round" stroke-width="2"><path d="m60.62-47.59.64 1.64.5 1.06.51 1.12.46 1.15.36 1.02.22.77.07.47-.1.11-.31-.33-.54-.85-.81-1.41-1.12-2.02-1.43-2.67-1.72-3.28-1.96-3.8-2.04-4.06M35.57-78.6l.86.5.99.76 1.09.92 1.13 1.01 1.07 1 .95.9.8.78.67.64.55.53.4.4.21.23-.05-.01-.38-.31-.71-.64-1.04-.92-1.3-1.15-1.51-1.35-1.6-1.52" filter="url(#a)"/><path d="m36.48-78.33-.3-.03.35.31.6.52.67.62.61.64.46.59.27.47.05.34-.14.23-.35.12-.57.01-.82-.13-1.12-.3-1.44-.48-1.8-.67-2.17-.85-2.54-1.03-2.91-1.22-3.3-1.42-3.67-1.63-4.03-1.83L10-86.1l-4.52-2.27m47.71 28.31 1.4 2.15.62 1.41.05.83-.34.57-.69.44-1.03.32-1.37.17-1.72.02-2.08-.13-2.46-.31-2.86-.48-3.28-.64-3.74-.77-4.2-.87-4.69-.97-5.19-1.1-5.7-1.26-6.2-1.48L3-63.88l-7.21-2-7.78-2.26-8.36-2.47-8.97-2.67M2.63-90.82l1.43.03 1.48.25 1.79.41 2.06.52 2.19.61 2.23.67 2.16.68 2.04.66 1.9.63 1.77.59 1.6.52 1.33.41.97.26.49.06" filter="url(#a)"/><path d="m31.81-81.41.34.27.2.5-.21.54-.82.45-1.49.34-2.13.25-2.77.25-3.42.28-4.15.32-4.98.31-5.86.25-6.76.14-7.66-.01-8.56-.12-9.56-.14m-9.01-1.44.64-.29 1.21-.68 1.63-.87 1.96-1.01 2.17-1.07 2.24-1.07 2.2-.99 2.06-.88 1.88-.78 1.7-.67 1.47-.59 1.14-.48.7-.38.51-.34" filter="url(#a)"/><path d="m-19.98-87.39 2.09-.64 1.32-.42.99-.32.77-.22.57-.13.39-.04.22.06-.05.15-.42.28-.89.43-1.4.61-1.95.82-2.55 1.08-3.25 1.39-4.06 1.76m-5.55 2.41 1.14-.51 1.65-.64 2.09-.64 2.34-.52 2.51-.35 2.62-.19 2.72-.04 2.85.07 2.98.16 3.13.21 3.26.25 3.38.27 3.49.28 3.6.29 3.69.3 3.74.31 3.74.32 3.65.3 3.52.27 3.4.26 3.33.28 3.3.36M61.65-45.2l.49 1.32.17 1.55-.31 1.28-.76 1.03-1.2.84-1.65.66-2.11.44-2.58.23-3.05.01-3.52-.19-3.99-.37-4.46-.54-4.94-.68-5.44-.81-5.93-.91-6.43-1.04-6.93-1.18-7.47-1.36-8.01-1.56-8.56-1.79-9.15-1.99-9.79-2.11-10.53-2.05" filter="url(#a)"/><path d="m27.4-83.86-.49-.26.33.38.38.61.18.68-.14.72-.49.74-.88.75-1.29.78-1.75.79-2.22.83-2.67.89-3.11.95-3.53 1.04-3.96 1.1-4.4 1.14-4.9 1.16-5.45 1.18-5.99 1.19-6.54 1.22-7.05 1.24-7.57 1.24-8.15 1.21m34.44-26.06 2.02-.32 1.6-.18 1.38-.09 1.29-.02 1.24.04 1.21.06 1.17.07 1.13.07 1.08.06 1.03.06.96.07.85.06.67.07.46.05.18.03-.13.01-.43-.01-.74-.04-1-.06-1.24-.08-1.51-.12-1.96-.21" filter="url(#a)"/><path d="m8-90.4 1.97.31 1.05.22.48.16.17.16-.05.17-.33.16-.71.15-1.19.13-1.75.13-2.33.11-2.92.08-3.54.04-4.21.02-5.05.03" filter="url(#a)"/><path d="m-5.35-90.79 1.33-.05 1.51.16 1.67.37 1.88.54 2.07.67 2.24.77 2.39.88 2.56.95 2.7 1.03 2.83 1.09 2.93 1.16 2.97 1.2 2.97 1.22 2.89 1.22 2.72 1.14 2.51 1.04 2.32.98 2.22.96 2.15.94M4.84-90.73l1.35.14 1.8.4 1.93.57 1.99.69 2.03.77 2.03.82 2.06.88 2.13.92 2.15.95 2.13.92 2.01.87 1.88.79 1.7.7 1.55.64 1.44.64 1.47.72" filter="url(#a)"/><path d="m15.96-88.82.98.41.8.42.58.38.33.37.07.4-.2.43-.5.43-.87.42-1.3.4-1.75.37-2.2.36-2.66.36-3.13.38-3.68.41-4.3.44-5 .51-5.72.58-6.45.64-7.08.57" filter="url(#a)"/><path d="m14.26-89.12 1.23.36.8.2.8.25.83.3.8.31.73.3.61.29.46.27.27.24.02.17-.28.11-.58.03-.87-.04-1.17-.11-1.46-.18-1.78-.26-2.15-.37-2.56-.49-3.02-.6-3.49-.71-4.09-.81m-21.56 3.38.78-.2.87-.28 1.14-.38 1.4-.44 1.55-.47 1.54-.46 1.43-.41 1.22-.35 1-.27.81-.21.62-.15.33-.08-.18.02-.85.15-1.23.2M36.36-78.3l.98.83 1.07.92 1.15 1.04 1.1 1.04.97.93.82.79.67.64.55.53.4.41.19.21-.11-.06-.48-.43-.88-.81-1.27-1.16-1.6-1.44-1.96-1.7" filter="url(#a)"/><path d="m41.52-73.7.62.72.54.68.4.68.22.7-.05.62-.39.49-.75.34-1.11.23-1.43.14-1.77.06-2.12-.03-2.48-.12-2.84-.23-3.22-.31-3.6-.41-4.01-.54-4.48-.71-5-.92-5.57-1.11-6.19-1.27-6.85-1.36-7.53-1.41-8.19-1.47m10.36-10.4 2.53-.4 2.13-.13 1.81.11 1.75.3 1.92.42 2.15.49 2.35.57 2.5.64 2.58.74 2.64.82 2.67.88 2.71.93 2.73.97 2.75.98 2.76.99 2.74.98 2.68.93 2.56.88 2.44.84 2.32.82 2.21.83 2.13.86" filter="url(#a)"/><path d="m-21.19-86.74 1.05-.46 1.33-.39 1.56-.4 1.64-.37 1.64-.34 1.63-.28 1.63-.25 1.66-.21 1.68-.2 1.66-.17 1.59-.16 1.5-.13 1.39-.12 1.27-.12 1.14-.1.96-.11.73-.09.47-.08.2-.07-.07-.05-.31-.04-.57-.04-.75-.01" filter="url(#a)"/><path d="m-21.25-86.69.46-.21.99-.36 1.36-.44 1.57-.46 1.61-.46 1.52-.43 1.37-.37 1.18-.3 1.01-.24.82-.19.63-.14.34-.08-.1.01-.78.15-1.72.32m70.24 39.98.11.9-.54.93-1.55.47-2.5.18-3.39.06-4.25-.03-5.17-.15-6.14-.33-7.17-.6-8.23-.89-9.3-1.2L.74-52.15l-11.47-1.97-12.66-2.26-13.97-2.32m49.08-31.08.6.19.4.23.49.35.36.43.11.48-.16.56-.44.63-.71.73-1.02.85-1.33.95-1.67 1.06-2.03 1.16-2.42 1.24-2.83 1.31-3.27 1.39-3.71 1.49-4.16 1.6-4.59 1.7-5.04 1.82-5.53 1.92-6.06 2.05-6.63 2.2-7.1 2.21" filter="url(#a)"/><path d="m16.14-88.45.23-.1.64.21.73.31.66.31.53.3.37.29.17.29-.06.26-.36.23-.7.16-1.07.11-1.43.05-1.82.01-2.23-.04-2.66-.08-3.11-.15-3.58-.23-4.05-.3-4.62-.37-5.2-.46" filter="url(#a)"/><path d="m-16.57-88.43 1.5-.41 1.64-.21 1.87-.08h2.21l2.56.05 2.79.07 2.89.13 2.9.19 2.87.21 2.84.21 2.76.16 2.6.14 2.4.13 2.19.13m34.24 25.07L52.71-61l.93 1.47.89 1.4.73 1.16.5.81.27.51.06.24-.15-.04-.37-.31-.59-.65-.86-1.01-1.19-1.46-1.57-1.98-1.96-2.5-2.31-2.96-2.64-3.45M57.7-53.25l.61 1.4.24.75.13.62.04.54-.13.39-.35.18-.57-.02-.78-.18-1-.31-1.24-.47-1.51-.67-1.79-.92-2.1-1.23-2.44-1.55-2.8-1.93-3.19-2.32-3.61-2.7-4.02-3.09-4.43-3.46-4.83-3.82-5.23-4.2-5.62-4.57-5.95-4.89" filter="url(#a)"/><path d="m-25.83-84.76.92-.34 1.11-.13 1.48-.02 1.81.06 2.07.16 2.3.25 2.56.33 2.79.39 3.02.44 3.17.48 3.29.54 3.37.61 3.45.69 3.53.75 3.59.8 3.62.85 3.63.89 3.6.93 3.56.96 3.5.94 3.38.83 3.17.68 3.02.7M22.13-86.28l.28.07 1.09.44.99.46.65.36.33.27.1.22-.1.19-.34.14-.62.07-.95-.03-1.33-.14-1.75-.27-2.23-.43-2.75-.6-3.28-.76-3.83-.89-4.46-.99-5.29-1.06m60.13 38.18.03.25.25.57.27.62.14.4-.1.05-.35-.33-.63-.69-.91-1.06-1.24-1.48-1.62-1.99-2.02-2.6-2.43-3.26-2.88-3.98-3.45-4.92" filter="url(#a)"/><path d="m39.22-75.99 1.37 1.4.68.76.43.53.29.45.17.4-.02.32-.29.19-.61-.02-.97-.24-1.34-.47-1.71-.67-2.11-.88-2.57-1.12-3.04-1.38-3.54-1.65-4.02-1.9-4.51-2.16-5-2.43-5.49-2.77" filter="url(#a)"/><path d="m-14.85-89.03.99-.12 1.55.08 2.03.3 2.58.46 2.99.6 3.23.78 3.41.93 3.6 1.05 3.82 1.16 4.05 1.25 4.2 1.35 4.25 1.39 4.21 1.39 4.12 1.35 4.04 1.34 4.03 1.43m21 24.38.38.9.24.88-.23.37-.65.02-.99-.2-1.34-.37-1.73-.58-2.17-.88-2.63-1.25-3.14-1.68-3.65-2.16-4.2-2.66-4.79-3.2-5.39-3.71-6.02-4.21-6.72-4.68-7.46-5.16-8.1-5.68" filter="url(#a)"/><path d="m29.13-82.78 1.7.93.71.63.2.62-.24.62-.73.6-1.23.55-1.71.55-2.15.59-2.59.63-3.06.68-3.58.69-4.16.66-4.79.61-5.46.61-6.17.66-6.9.75-7.66.85-8.41.83-9.05.61" filter="url(#a)"/><path d="m-8.65-90.28.6-.16.36.03.44.1.49.15.42.24.22.36-.05.5-.33.66-.63.82-.91.97-1.2 1.13-1.49 1.29-1.78 1.47-2.09 1.67-2.43 1.89-2.8 2.13-3.22 2.39-3.69 2.66-4.19 2.95-4.72 3.26-5.22 3.57-5.65 3.78-5.92 3.76m104.13-7.98.68 1.51-.09 1.11-.81.86-1.67.43-2.61-.07-3.58-.51-4.54-.85-5.56-1.17-6.62-1.47-7.69-1.77-8.77-2.07-9.83-2.4-10.89-2.83-11.94-3.33m2.25-12.19 2.07-.62 1.2-.35.83-.2.57-.05.34.1.15.26-.04.41-.28.57-.59.75-.93.92-1.28 1.13-1.62 1.32-1.97 1.55-2.35 1.77-2.76 2.02-3.22 2.28-3.71 2.56-4.22 2.86-4.71 3.12-5.14 3.37" filter="url(#a)"/><path d="m-38.11-76.82-.01.1.88-.49 1.31-.75 1.53-.83 1.66-.86 1.79-.87 1.92-.89 2.03-.92 2.11-.92 2.11-.9 2.05-.85 1.95-.78 1.83-.69 1.71-.62 1.59-.56 1.49-.52 1.37-.49 1.25-.45 1.08-.43.91-.38.69-.31.35-.2-.21-.07" filter="url(#a)"/><path d="m-24.86-85.27.77-.18 1.52-.17 2.18-.15 2.62-.09 3.01-.01 3.41.05 3.79.08 4.1.09 4.31.11 4.41.15 4.41.18 4.34.2 4.21.2 4.02.12" filter="url(#a)"/><path d="m1.36-91.1 1.09.19.66.21.22.34-.2.48-.65.65-1.2.83-1.84.99-2.55 1.15-3.29 1.31-4.05 1.51-4.85 1.75-5.72 2.07-6.73 2.43-7.82 2.89" filter="url(#a)"/><path d="m.77-91 .36.08.47.04.56.09.52.16.37.24.17.33-.09.43-.4.52-.78.62-1.2.71-1.62.79-2.05.89-2.47 1-2.88 1.1-3.32 1.19-3.76 1.27-4.24 1.39-4.81 1.55-5.48 1.76-6.25 2.06m-3.26-.78.78-.73.68-.5.98-.65 1.23-.82 1.37-.9 1.42-.92 1.44-.91 1.45-.91 1.43-.87 1.36-.82 1.23-.74 1.04-.62.82-.46.57-.32.28-.16.01-.03-.25.1-.47.2-.71.32m86.38 40.1.55 1.28.33 1.45-.04 1.11-.4.77-.74.49-1.07.19-1.44-.13-1.82-.47-2.19-.81-2.6-1.14-3.01-1.45-3.44-1.75-3.86-2.05-4.29-2.31-4.74-2.58-5.21-2.85-5.72-3.15-6.24-3.51-6.74-3.91-7.2-4.36-7.57-4.87-7.93-5.38m41.12-3.23-.28-.17.93.66 1.43 1.04 1.62 1.24 1.71 1.36 1.77 1.47 1.78 1.53 1.75 1.56 1.7 1.55 1.6 1.5 1.51 1.42 1.41 1.32 1.31 1.18 1.18 1.02 1.03.85.87.73.74.66.54.52" filter="url(#a)"/><path d="m-2.02-91.14 1 .08 1.38.19 1.41.23 1.53.28 1.68.32 1.85.38 1.96.42 2.01.44 2.01.46 1.94.46 1.79.43 1.61.39 1.39.35 1.2.3 1.04.26.84.2.44.06-.29-.2M47.1-68.12 11.85-55.4l14.25 4.3 13.64-.05 3.79-1.28-5.58-2.87-11.25-5.03-12.11-6.43-9.1-6.1-4.54-4.25-.68-1.79 1.44.25 2.15 1.35 2.65 1.59 3.95 1.55 6.17 1.78 8.32 2.43 8.97 3.14 7 3.27 2.04 2.4-5.93.61-17.42-1.97-32.05-5.24-34.56-.4" filter="url(#a)"/><path d="m64.2-38.69-1.53-.1-12.52-8.17-19.94-9.35-16.71-6.25-6.53-2.18 3.26.22 8.05.37 7.29-.85 2.9-2.15-2.64-2.82-7.33-2.69-9.9-2-9.99-1.04-8.2-.09-5.73.7-3.61 1.17-1.83 1.11.78.35 5.35-1.04 11.36-2.09 16.35-1.03 18.11 3.72 17.04 11 13.34 16.25" filter="url(#a)"/><path d="m-54.55-58.17 34.64-10.5-5.36-1.51-6.39-.74-.96-.87 2.96-.14 4.37.83 3.69 1.07 1.81.35-.04-.79-.87-1.6-.53-1.63.38-.95 1.12.03 1.24.73.98.77.94.29 1.65-.1 2.7.32 2.4 1.5-1.07 1.93-6.26-1.03-3.92-8.14L-4.16-90.9" filter="url(#a)"/><path d="m-7.75-90.63-3.79 11.58 14.89 6.6 4.91 3.31-4.46-.19-6.83-2.25-3.48-2.77 2.52-2.09 7.54-.54 8.73 1.35 5.78 2.88 1.89 3.79 1.91 4.29 5.99 3.61.61-3.11-39.65-25.73" filter="url(#a)"/><path d="m-25.83-84.76 9.67 12.99 11.56 2.89-1.54-1.85-3.41-1.58 1.08-.51 4.86.11 6.08.42 5.93.38 5.36-.12 4.1-.65 1.99-.35.16 1.04.53 2.12 2.41-.1-1.69-8.01L4.37-90.99" filter="url(#a)"/><path d="M56.32-55.51 37.27-70.9l-17.01-8.18-8.68-.78-2.85 3.12-1.43 3.81-1.41 2.88.03 1.44 2.71-.09 4.56-1.58 4.29-2.74 2.31-3.04-.21-2.17-2.63-.36-5.21 1.54-7.84 2.62-8.64 2.62-3.89 2.5 9.04 3.22 24.07 1.58 9.79-15.41" filter="url(#a)"/><path d="m-47-68.14 37.27 5.86-11.55.71-9.86-.44.84-.32 7.59-.87 8.53-2.49L-8.05-70l3.23-5.15 1.39-4.58.96-2.99 1.82-1.06 3.78.98 6.12 3.02 6.1 4.29-1.7 2.75-20.27-2.63-32.25-.83" filter="url(#a)"/><path d="M65.37-35.07 36.31-53.25 10.84-68.42 1.99-78.91l.57-5.41 3.97-.98 4.73 2.44 4.34 4.82 3.25 6.16 2.08 6.47 1.34 5.57.4 2.86-1.85-1.77-4.56-6.38-5.35-6.71-10.68.28-51.33 8.37" filter="url(#a)"/><path d="m-43.41-72.16 34.07-10.28 20.59 1.46 15.45 6.67 8.71 6.72 1.24 3.66-3.79.36-4.74-1.1-3.02-.58-1.58.56-2.4.81-5.11-.26-7.59-2.07-7.88-3.65-5.56-4.46-1.67-4.44 2.35-3.59 5.73-1.59 8.13 1.99 8.22 6.48-.85 6.83-44.05-15.63" filter="url(#a)"/><path d="m-49.13-65.86 45.47 2.35 15.48 6.27 11.53 3.57 6.88-.71 2.48-3.08-1.37-3.77-5.11-3.76-8.07-3.43-8.83-2.8-6.73-1.9-2.59-.87 1.6.16 3.78.94 2.89 1.21-.46.82-4.08-.09-5.27-.86-2.34-.69 3.28.84 6.34 3.04.72 3.4-9.37-2.63 19.04-20.6" filter="url(#a)"/><path d="m-53.61-59.37 64.65-.41 16.4-5.19 1.07.33-5.36 1.77-7.8-.6-8.05-3.57-7.41-5.04-6.51-4.48-5.27-2.53-3.22-.19-.21 1.59 3.28 2.33 6.18 1.81 7.7.38 8.42-.68 10.37.75 14.67 5.89 16.96 11.56 8.36 8.06" filter="url(#a)"/><path d="M8.8-90.39 34.36-64.4l-9.55-2.58-13.92-6.99-6.98-3.38.89 1.71 5.45 4.75 5.62 4.26 2.91 1.07.07-2.7-1.01-5.01-.34-4.89 1.11-2.3 2.33 2.31.69 8.1L9.04-57.94l-64.64 1.38" filter="url(#a)"/><path d="M-28.82-83.26 6.19-64.75l-3.71-5.33-2.6-6.66.24-1.87.26 2.37-.22 3.91.34 3.18 2.27 1.78 4.92 1 7.23 1L23-64.36l6.57.02 2.35-2.19-4.19-4.64-11.64-5.35-18.52-2.41-24.73 4.63-26.03 13.87" filter="url(#a)"/><path d="m-2.02-91.14 1.68 8.38 6.41 7.77 2.22 3.75-2.64 1.15-6.79.45-6.85.99-2.45 1.86 2.89 2.18 5.19 1.49 3.51-.06.58-1.66-.54-2.26-.27-1.35-2.34.64L-7-64.72l7.02 7.45L64.65-37.5" filter="url(#a)"/><path d="m17.12-88.44-32.58 9.65-3.94 1.66 3 .52 3.42-.15 2.66-.69 2.22-1.18 1.61-1.48.69-1.49.14-1.24.75-.86 2.54-.32 4.73.44 6.28 1.43 6.33 2.33 4.62 2.68 1.54 2.25-1.76 1.5-3.73 1.32-3.5 2.24-1.48 3.37 4.39 3.67 42.65 9.54" filter="url(#a)"/><path d="m-48.13-67.1 23.94-12.96 3.15-.2-1.03 2.56 3.06 1.54 6.71 1.1 7.24 1.65 5.5 2.05 2.78 1.48-.11.2L.34-70.7l-4.66-1.63-5.05-1.68-3.41-1.64-.17-1.79 3.08-1.93 4.36-1.47 2.97-.05.93 1.94 2.5 3.51 10.35 3.65 16.96.96-6.07-15.45" filter="url(#a)"/><path d="M-48.13-67.1 18.6-55.59l16.76-5.64-.83-7.04-6.59-5.21-7.21-3.12-4.61-1.25-.39.4 3.35 1.64 4.84 2.14 3.73 1.66 1.02.5-1.51-.63-2.41-.94-1.31-.17.96 1.14 2.95 2.03 3.61 1.75 3.08.59 2.5-.1 3.19 1.24 4.72 4.06 1.39 1.48-19.77-23.69" filter="url(#a)"/><path d="m17.12-88.44-22.39.52-4.85 1.22 6.09 2.31 10.14 2.78 9.06 2.32 5.34 1.48.7.69-3.65.07-6.63-.33-7.58-.36-6.62.08-4.64.86-2.83 1.63-2.06 1.98-2.55 1.67-3.48.87-3.37-.06-1.12-.69 2.58-.83 4.94-.65 3.05-.26-4.77 1.34-35.67 11.37" filter="url(#a)"/><path d="M43.71-71.44-.75-69.6l-1.74-5.55 8.5-2.27 11.92 2.83 10.24 5.34 3.88 4.2-4.2 1.11-10.6-1.39-13.62-1.96-13.7-1.06-11.64-.25-7.32-.81-.88-2.72 4.76-4.45 6.39-4.67L.77-91" filter="url(#a)"/><path d="M47.75-67.42-2.52-75.3l-16.99.32 3.17-.48 10.58-1.8 10.58-1.3 8.35.28 5.84 1.55 3.03 1.65.01.76-2.32-.4-3-1.02-1.8-.76.54.17 2.62 1.08 3.21 1.26 1.82.38-.95-1.32-3.54-2.98-4.27-3.6-2.57-2.62-.05-.71-.84.23-9.24-1.59-18.6-2.11" filter="url(#a)"/><path d="m-33.75-80.17 27.89 1.76 9.44 4.84 5.09 1.5.68-1.03-2.42-1.81-3.53-1.91-2.63-1.73.02-.98 3.46.35 6.17 1.8 6.74 2.68 4.59 2.44.37 1.1-4.22-.81-7.24-2.41-7.24-2.97-4.1-2.18.89-.27 5.57 2.1 7.66 4.2 5.93 5.3 1.25 4.58.58 1.93 36.5 8.44" filter="url(#a)"/><path d="m8-90.4-18.75 4.29 3.14 2.43 11.42 2.43 11.32 3.21 7.7 2.98 3.5 1.92-.04 1.05-2.98.82-5.54.79-7.2.43-7-.35-4.6-1.25-.94-1.91 2.23-2.18 3.67-2.03 3.66-1.34 3.77-.02 5.41 1.64 7.98 2.73 8.31 2.47 6.24 3.44 19.95 18.94" filter="url(#a)"/><path d="M-24.32-85.58 8.27-68.89l-11.2 2-8.09 1.19 3.04 1.01 7.74.81 5.54.78.73.67-2.8.39-3.25.02-.91-.33 2.68-.67 5.77-1.01 7.27-1.29 7.03-1.38 5.55-1.26 3.46-.94 1.38-.36.02.65-.28 2.08-.34 3.05-2.25 1.88-7.04-1.9-14.34-4.85-45.67-8.67" filter="url(#a)"/><path d="m-47-68.14 39.26-9.88 17.02-1.76 2.54-.75.71 1.04 3.49 3.02 4.44 3.73 2.14 2.95-1.68 1.3-4.81-.5-6.13-1.97-5.62-2.86-3.98-3.12-1.97-2.79-.23-2.1.81-1.36 1.03-.82.46-.48-.58-.15-1.78.46-3.04 1.36-4.95 1.93-7.51 1.05-5.65-2.29 11.13-7.8" filter="url(#a)"/><path d="M59.25-49.91 12.79-73.77l-8.4-5.37 1.59 2.53-1.83 2.67-7.1.35-8.08-1.2-4.61-1.17.47.2 4.5 2.29 6.44 4.27 6.87 5.07 6.75 3.97 6.67 1.05 6.34-2.6 5.48-4.82 5.03-3.06 7.42 4.04 12.54 12.79 8.66 7.71" filter="url(#a)"/><path d="M-55.81-56.37-4.7-71.79l10.49-9.56 4.59-3.03 6.48 2.22 7.05 5.14 4.29 5.37-.18 3.65-3.72 1.41-4.67-.07-3.14-.33-.42.15 1.85.47 2.52-.09 1.04-1.46-2.28-2.95-6.44-3.85-10.05-3.83-11.53-2.63-10.24.23-9.84 5.96-28.24 21.02" filter="url(#a)"/><path d="m19.96-87.58 22.69 25.72-7.36-1.73-16.26-8.68-12.52-7.15-5.05-3.82 1.31-.98 4.55.99 4.26 2.24 1.09 2.94-3.29 3.14-6.68 2.86-7.28 2.18-4.62 1.37.14.77 4.8.57 7.52.56 7.69.17 5.97-1.15 3.2-3.25-.84-4.91-7.19-4.05-17.42 1.64-44.34 13.2" filter="url(#a)"/><path d="M-44.33-70.93 20.64-55.6l12.73-2.66-8.24-6.01-11.07-5.76-5.27-4.46 1.29-3.01 4.64-1.76 4.2-.85.98-.24-3.3.36-6.47 1.43-6.56 3.2-2.95 4.95 3.11 5.32 10.12 3.56 18.74.5L48-66.88" filter="url(#a)"/><path d="M-16.94-88.31 5.97-59.98l-16.17 1.81-4.79-3.06 10.61-2.06 16.12-1.12 12.69-1.58 5.99-2.39.57-2.21-2.35-.87-3.87.5-5.37.53-7.4-.92-9.83-2.35-12.62-1.98-14.36-.21-10.74.03-3.84.3" filter="url(#a)"/><path d="m56.51-54.56-2.31 4.9-17.63-8.41-16.83-10.68-10.06-7.07-5.57-3.01-3.97-.7-2.97.12-.85.51 2.45 1.1 5.83 1.86 7.82 2.36L20-71.35l5.3 1.41 2.01.18-1.15-1-3.76-1.72-6.29-1.78-9.31-1.18-11.68-.08-9.53 1.11 2.52 2.18 25.87 5.84 49.84 26.3" filter="url(#a)"/><path d="m18.02-87.84-38.41 9.56-10.6 1.63 1.85-1.54 6.67-2.26 5.76-1.25 1.53.7-2.86 2.65-5 3.85-4.25 3.93-1.58 2.93 1.52 1.31 4.03-.42 5.83-1.81 7.09-2.68 7.73-2.98 7.4-2.82 5.94-2.37 3.87-1.87 1.94-1.41.13-.89-2.21.17-3.99 2.73 3.17 8.64 45.19 20.99" filter="url(#a)"/><path d="m70.11-14.69-.15-1.03-.21-1.05-.25-1.33-.28-1.51-.29-1.56-.3-1.56-.3-1.5-.29-1.38-.28-1.25-.28-1.15-.29-1.09-.3-1.07-.31-1.08-.33-1.11-.35-1.15-.38-1.22-.42-1.33-.46-1.41-.44-1.35-.4-1.2-.58-1.86-64.78-49.27 1.57.3.93.45.8.45.86.51.94.67.98.9 1.02 1.09 1.06 1.12 1.08.96 1.07.76.98.67.84.75.72.91.7 1.04.8 1.12.82 1.25.16 1.57M-2.58-91.18l.61-.64.9-1.33 1-2.09.99-2.37 1-2.28L3-101.9l1.18-1.76 1.3-1.59 1.42-1.47 1.49-1.31 1.53-1 1.49-.59 1.4-.24 1.28-.25 1.21-.72 1.36-1.56 1.98-2.43 2.81-2.73-30.1 27.27-2.12.43-1.33.46-.89.42-.85.37-.94.34-1.05.35-1.11.4-1.1.43-1.04.43-.92.43-.81.42-.78.43-.86.48-.9.56-.5.39 9.93-5.39.57-.16-.67.27-1 .4-1.12.43-1.16.41-1.11.39-1.04.37-.94.38-.87.38-.84.4-.82.4-.83.4-.85.42-.9.44-.99.51-1.1.6-1.21.72-1.29.82-1.28.89-1.12.84-.94.61 35.02-42.17-1.12 1.31-1.43 1.78-1.31 1.74-1.27 1.79-1.31 1.6-1.3 1.5-1.18 1.62-1.05 1.83-.98 1.86-.99 1.87-1.03 2.07-1.02 2.44-.95 2.51-.88 1.86-.89 1.09-.82 1.75-.63 4.53" filter="url(#a)"/><path d="m-19.98-87.39 1.94-1.54 1.23-1.18 1.1-.53 1.04-.34.99-.46 1-.65 1.05-.79 1.09-.82 1.07-.76 1.03-.65 1-.52 1.04-.41 1.09-.31 1.14-.19 1.15-.11 1.11-.09 1.09-.18 1.04-.38.85-.64.41-1-25.8 13.36.2-1.71.3-3.18.35-2.75.52-1.83.75-1.11 1-.54 1.22-.1 1.31-.01 1.26-.38 1.08-1.17.91-2.15.81-3 .86-3.5.99-3.55 1.09-3.15 1.04-2.28.87-1.06.92-.35 1.81-1.9M69.42-18.26l.92-1.99 1.94-2.27 1.12-2.04-.14-1.63-.81-1.26-.78-1.11-.37-1.14.11-1.31.51-1.51.82-1.71 1.06-1.87 1.14-1.95.99-2.02.62-2.21.15-2.64-.42-2.99M-32.67-80.68l1.16-.32 1.6-.32 1.52-.35 1.27-.54 1.07-.64.93-.56.88-.37.89-.15.91-.01.92.06.93.06.95.02h1l1.07.02 1.14.08 1.17.14 1.12.16 1 .12.8.07.67.09 1.33.09" filter="url(#a)"/><path d="m-34.78-79.15-1.55-1.52-.95.88-.88.76-.98.22-1.09-.08-1.18-.02-1.21.26-1.22.59-1.2.79-1.17.84-1.12.77-1.04.65-.99.54-1 .43-1.12.34-1.31.22-1.4.1-1.1-.1-.73-1.08 37.38-45.03.79-.06-.75 1.24-1.1 1.83-1.23 1.87-1.21 1.89-1.11 1.97-.98 1.92-.9 1.71-.84 1.47-.8 1.36-.75 1.44-.64 1.7-.54 2.1-.42 2.6-.35 3.05-.38 3.25-.52 3.1-.74 2.55-.97 1.76-1.14.95-1.19.28-.95.24.33 2.15-2.66 2.2 2.5 2.59.99-.8.7-1.12.81-.77 1.05-.33 1.31.05 1.5.32 1.58.44 1.52.44 1.37.36 1.19.31 1.04.37.97.61 1.09 1 1.29 1.14.99-.16M61.63 4.4l.67-1.38.94-1.27.79-1.22.55-1.18.52-1.15.62-1.15.73-1.19.68-1.26.48-1.39.22-1.52.03-1.6-.04-1.59.06-1.49.24-1.34.39-1.23.39-1.23.19-1.45.03-1.77M52.96-38.83l1.23.72 1.37 1 1.29.92 1.14.9.89 1 .62 1.15.41 1.19.34 1.14.37 1.05.48.94.64.85.86.73 1.12.61 1.35.57 1.38.7 1.14 1.02.74 1.37.44 1.48.35 1.48" filter="url(#a)"/><path d="m60.09-37.75 1.14 1.92.92 1.56.81 1.12.76.89.69.86.56.91.41.98.26 1.01.2 1.02.27 1.02.5 1.07.75 1.19.82 1.35.62 1.38.32 1.46M-43.41-72.16l3.04 1.51 1.16-.83.69-1.18.56-.99.56-.76.66-.56.84-.36 1.02-.17 1.14-.02 1.17.09 1.19.13 1.23.07 1.31-.1 1.49-.05 1.63 1.08m-38.21 25.7 1.24-1.99.86-1.44.66-.93.62-.77.7-.86.83-1.01.92-1.1.96-1.14.97-1.13.96-1.08.92-1.01.89-.95.86-.87.84-.81.79-.77.77-.75.73-.76.72-.82.72-.86.72-.81.7-.67.63-.52.29-.34" filter="url(#a)"/><path d="m-45.45-70.05-1.28.58-1.24-.02-1.25.18-1.05.49-.86.67-.88.62-1.16.35-1.55-.03-1.89-.32-2.09-.38-2.16-.28-2.22-.12-2.33-.03h-2.44l-2.39.08-2.07.33-1.51.68-.97.99-.71 1.14-.89 1.18-1.38 1.2-1.91 1.04-2.07-.01" filter="url(#a)"/><path d="m-46.15-69.01-2.72-3.71.1-1.19.61-1.02.8-1.16.84-1.47.71-1.84.58-2.03.51-1.91.52-1.66.51-1.5.46-1.62.36-1.96.25-2.39.23-2.64.33-2.54.62-2.1.97-1.63 1.2-1.67 1.1-2.58.73-3.92.93-3.75-11.62 46.2-1.67-.22-1.76-.88-1.38-.31-1.16.25-1.12.51-1.19.55-1.35.46-1.55.37-1.69.35-1.68.48-1.52.75-1.31 1.01-1.22 1.07-1.34.76-1.71.16-2.16-.38-2.41-.32-2.29.69-2.32 1.77 6.86 5.61.7-.83 1.1-1.43 1.16-1.15 1.42-.45h1.65l1.76.05 1.8-.12 1.84-.27 1.84-.36 1.71-.46 1.46-.67 1.1-.92.79-1.04.69-.96.83-.7 1.15.54.5-29.04-.23 2.56-.44 2.91-.44 2.54-.07 2.51.27 2.6.32 2.45.06 2.03-.32 1.51-.62 1.1-.72.89-.57 1-.3 1.33-.03 1.72.16 2 .3 2.07.24 1.85-.62 1.79" filter="url(#a)"/><path d="m-53.61-59.37.99-1.35.95-.35 1.28-.06 1.23-.17.93-.49.65-.78.58-.85.72-.67.96-.32 1.2.09 1.37.36 1.4.39 1.32.15 1.2-.21 1.12-.5 1.14-.56 1.23-.35 1.29.02 1.2.56.9 1.83m-23.86 6.26.78-1.94.6-1.77.65-1.32.63-1.11.52-1.17.35-1.35.18-1.53.08-1.64.04-1.72.05-1.79.03-1.9-.05-2.03-.18-2.12-.22-2.16-.11-2.07.15-2.06.16-2.63M-68.68-36l.73-1.6.72-1.63.84-1.29.87-1.01.76-.92.63-.91.55-.92.55-.91.63-.9.72-.97.77-1.09.73-1.2.57-1.2.32-.97.17-.46.55.65.2.02.08.69-.01 1.21-.04 1.56.02 1.71.11 1.67.16 1.54.13 1.39.07 1.27v1.21l-.12 1.17-.26 1.14-.3 1.21-.13 1.41.23 1.64.56 1.68.59 1.32.45.72m-1.44-61.04 1.18 4.82.73 3.15.15 2.46-.2 1.96-.33 1.6-.41 1.38-.55 1.21-.77.99-.97.82-.95.9-.56 1.42.11 2.27.71 3.02.83 3.22.39 2.8-.08 2.34.13 2.29.7 1.4" filter="url(#a)"/><path d="m-69.88-83.45-.69 4-1.24 2.2-.62 2.25.2 2.85.84 3.32 1.26 3.44 1.39 3.22 1.26 2.81.94 2.44.63 2.23.42 2.17.35 2.11.36 1.97.42 1.75.41 1.6.35 1.69.54 2.33" filter="url(#a)"/><path d="m-63.34-41.08.13-.72.09-1.27-.03-1.34-.12-1.41-.09-1.5-.05-1.66-.13-1.86-.29-1.99-.42-2.01-.43-1.94-.32-1.9-.22-2.03-.17-2.25-.1-2.39.13-2.3.46-2.19.4-2.82-.47-4.93m1.63 36.51-.57 1.26-.71 1.45-.71 1.42-.65 1.32-.55 1.24-.48 1.24-.42 1.23-.38 1.2-.36 1.16-.38 1.12-.41 1.13-.46 1.16-.5 1.21-.5 1.28-.53 1.38-.57 1.45-.63 1.21 6.2-14.08-.21 1.13-.39 1.52-.31 1.29-.21 1.13-.16 1.15-.12 1.23-.14 1.29-.16 1.33-.17 1.37-.16 1.41-.07 1.43.03 1.44.16 1.44.25 1.43.27 1.35.18 1.2v.96l-.07 1.17" filter="url(#a)"/><path d="m-67.45-28.11-.76-.85-1.75.49-1.21.96-.7 1.23-.69 1.3-.93 1.29-1.07 1.29-1.04 1.3-.96 1.33-.97 1.32-1.09 1.27-1.21 1.19-1.27 1.14-1.21 1.16-1.1 1.28-1.05 1.45-1.26 1.6-1.78 1.62-2.51 1.6-2.86 1.98-1.35 2.99m26.77-26.94-.24-2.47-.28-2.2.09-1.62.15-1.49-.05-1.68-.26-1.88-.35-1.93-.36-1.86-.34-1.77-.31-1.69-.26-1.61-.14-1.51.03-1.45.19-1.5.33-1.7.38-1.99.09-2.24-1-1.89M78.46-72.4 78-69.26l-.11 1.82-.12 1.82-.44 2.22-.77 2.48-.91 2.48-.92 2.38-.86 2.34-.77 2.34-.67 2.36-.54 2.32-.37 2.23-.09 2.04.31 1.74.83 1.38 1.25 1.04 1.24.92.53 1.19-.74 1.75-2.02 2.34-2.86 2.68-2.25 2.25-2.22-.29-.07-1.27.15-1.33-.08-1.2-.38-1.05-.71-.92-1.04-.84-1.28-.79-1.35-.82-1.24-.89-1.06-1-.91-1.08-.81-1.04-.75-.88-.65-.63-.52-.22-.36 1.02" filter="url(#a)"/><path d="m65.59-34.84.84 2.48.88 1.17.92.87.73.89.51 1.01.46 1.14.57 1.26.71 1.36.75 1.42.73 1.45.64 1.44.56 1.39.54 1.34.62 1.3.75 1.32.92 1.44 1.02 1.61 1 1.79.8 1.85.5 1.68.26 1.27.23.78" filter="url(#a)"/><path d="m89.3-6.59-1.47-2.36-1.37-2.31-1.4-2.1-1.21-1.78-1.08-1.49-1.06-1.29-1.1-1.24-1.22-1.24-1.42-1.25-1.62-1.25-1.71-1.22-1.57-1.23-1.21-1.23-.69-1.28-.13-1.34.42-1.47.79-1.62.58-1.54-.77-.95-3.11.28-2.82 1.48L85.94-5.63l-.1-1.27-1.21-1.83-1.57-2.01-1.21-1.98-.78-1.8-.65-1.55-.8-1.34-1.01-1.24-1.09-1.28-1.01-1.37-.88-1.46-.81-1.5-.83-1.44-.93-1.29-1.07-1.09-1.12-.92-1.01-.87-.6-1.04.1-1.39.77-1.77.27-1.36-4.27 2.41m1.16 17.84-.2-2.08-.11-1.77-.09-1.63-.09-1.6-.09-1.54-.08-1.43-.05-1.27-.05-1.17-.08-1.12-.13-1.1-.19-1.11-.26-1.09-.31-1.08-.38-1.14-.42-1.41-.43-1.94-.51-2.43" filter="url(#a)"/><path d="m44.54-53.67.79-1.45.93-.04 1.04.59 1.06.91 1.04 1.03.99.98.97.84.98.68.98.58.95.55.9.59.85.65.85.67.88.66.89.63.85.61.78.65.77.77.88 1.05 1.06 1.61 1.22 2.42" filter="url(#a)"/><path d="m62.22-44.29-.4-.71-.29-.76-.31-.87-.39-.99-.44-1.09-.43-1.14-.41-1.14-.4-1.15-.41-1.14-.45-1.17-.49-1.22-.54-1.32-.58-1.47-.59-1.63-.59-1.69-.58-1.62-.54-1.4-.53-1.14-.53-1.08-.64-1.38-.88-1.59 4.61 48.86.38-1.33 1.06-1.16.97-1.23.72-1.28.59-1.33.57-1.4.61-1.48.61-1.56.51-1.64.35-1.68.16-1.68-.02-1.65-.19-1.62-.34-1.63-.39-1.59-.33-1.24-.14-.42-.91-2.54.92 1.44.67 1 .67 1.18.8 1.3.91 1.28.94 1.24.86 1.24.75 1.27.68 1.26.67 1.16.71 1.06.75.99.75.95.76.93.84.81.93.62.85.58 1 1.15-13.51-17.52-1.87-2.32-.94-1.22-.63-.88-.62-.79-.7-.77-.8-.75-.87-.74-.92-.82-.96-.95-.98-1.11-.98-1.17-.92-1.1-.8-.88-.67-.61-.71-.4-1.3-.99 10.11 6.76-.11-1.07-.28-1.25-.78-1.44-.91-1.51-.79-1.54-.56-1.51-.36-1.5-.25-1.55-.16-1.67-.09-1.88.07-2.09.3-2.27.54-2.44.66-2.66.51-2.99-.18-3.53" filter="url(#a)"/><path d="m56.51-54.56-1.38-2.57-1.16-1.88-.92-1.42-.77-1.13-.68-.96-.67-.88-.69-.89-.73-.91-.72-.88-.68-.8-.66-.76-.71-.8-.86-.93-1.01-1.07-.96-.95-.2-.05 12.8 16.88-.44-3.59-1.16-1.92-.94-1.47-.59-1.42-.3-1.5-.19-1.59-.22-1.6-.31-1.52-.33-1.51-.25-1.62-.1-1.85-.07-2.05-.22-2.07-.48-1.87-.65-1.64-.55-1.67-.15-2.08.37-2.56.44-1.87" filter="url(#a)"/><path d="m55.05-57.71-.86-2.2.28-2.64.45-2.48.26-2.07.19-2.02.31-2.39.46-2.72.43-2.63.13-2.14-.23-1.61-.4-1.66-.15-2.54.28-3.71.38-3.58-.04-.32m-1.49 34.71 3.74-.93 4.99-3.34 3.98-2.32 2.21-.41.67 1.09-.24 1.9-.41 2.05.08 1.69 1 .96 1.98.15 2.55-.41 2.48-.46 2.15-.1 2.37.21 2.25 1.42" filter="url(#a)"/><path d="m53.19-60.06 1.61 2.08 1.44 1.16 1.32.52 1.09.51.85.74.66.92.61.97.65.96.74.89.86.81 1 .68 1.09.56 1.1.56 1.01.76.93 1.13 1 1.4 1.12 1.15.82-.39M53.07-60.46l.86-3.8-.91-.55-1.01-.36-.9-.71-.74-1-.54-1.24-.3-1.53-.15-1.8-.15-1.94-.26-1.93-.4-1.82-.47-1.76-.45-1.84-.35-2.04-.27-2.28-.28-2.42-.4-2.32-.59-1.94-.77-1.38-.8-.91-.57-.91-.29-1.49-.85-2.65" filter="url(#a)"/><path d="m42.63-91.53-.69.71-.02 1.44.48 1.42.72 1.42.76 1.57.72 1.62.73 1.5.77 1.25.81 1.08.84 1.08.82 1.2.76 1.36.59 1.51.33 1.66.01 1.83-.21 2.04-.1 2.16.47 2.1 1.25 2.31" filter="url(#a)"/><path d="m58.3-38.62-.29-1.93-.26-1.18-.15-1.02-.04-1.1-.03-1.22-.1-1.27-.24-1.19-.39-1.07-.53-.96-.58-.93-.59-.99-.54-1.12-.49-1.3-.49-1.45-.52-1.54-.59-1.52-.64-1.38-.65-1.2-.63-1.03-.59-1.05-.59-1.31-.67-1.61-.95-1.43.98 1.39.42 1.92-.17 2.25-.33 2.14-.04 1.8.39 1.45.76 1.19.98 1.02 1.03.91.95.89.74.95.42 1.13.05 1.38-.33 1.65-.58 1.84-.64 1.87-.49 1.71-.21 1.42v1.13l.01 1.01-.11 1.08-.02 1.25.28 1.7-11.29-69.42.02 2.11.68 1.67.65 2 .4 2.24.17 2.32.08 2.34.11 2.34.21 2.32.36 2.18.5 1.95.6 1.68.6 1.51.49 1.55.37 1.76.29 1.98.37 2.01.52 1.76.6 1.29.39.86-.21.47" filter="url(#a)"/><path d="m48-66.88.13.2.55.99.71 1.16.71 1.07.63.99.58 1.05.58 1.21.64 1.36.7 1.46.73 1.41.7 1.29.62 1.15.52 1.11.4 1.17.27 1.22.2 1.07.37.92-9.94-20.07.96.25 1.28-.35 1.33.04 1.21.47 1.18.53 1.3.38 1.52.21 1.78.13 2.02.11 2.17.12 2.22.13 2.14.15 1.94.22 1.64.4 1.27.69.94.95.9 1 1.33.74 2.16.29 2.82-.27 3.01-2.61M47.1-68.12l-1.12-.14-1.45-.58-1.18-.75-.97-.68-.88-.62-.89-.59-.98-.51-1.13-.3h-1.3l-1.4.33-1.41.62-1.34.79-1.28.83-1.23.73-1.19.44-1.11.12-.98.15-1.11 1.36" filter="url(#a)"/><path d="m43.06-72.32 1.61 1.86.82 1.91.29 1.75.23 1.38.35 1.1.44 1.06.43 1.17.42 1.21.44 1.19.45 1.15.46 1.25.4 1.48.29 1.78.17 1.96.1 1.84.19 1.38.42.83.14 1.22-7.65-25.52 1.74 1.71 1.28 1.25.95.86.79.66.76.64.8.69.82.78.8.85.78.91.8.95.86 1.02.93 1.09.98 1.16.97 1.2.89 1.17.79 1.13.7 1.07.65 1.02.6.96.56.81.49.59.44.23M39.22-75.99l-.49-1.52-.08-2.25.35-2.92.3-2.68-.16-1.82-.71-.94-1.1-.44-1.23-.4-1.16-.69-1.03-1.06-.92-1.35-.85-1.49-.71-1.61-.38-1.89-.04-2.38-.56-3.17" filter="url(#a)"/><path d="m39.22-75.99.06-2.68.13-2.64-.28-1.57-.42-1.19-.36-1.5-.25-2.16-.17-2.71-.25-2.76-.51-2.3-.84-1.68-.98-1.47-.83-1.96-.43-2.8-.07-3.07-.04-2.5-.61-3.47M22.79-76.78l1.2-.06.91-.92 1.07-.76 1.14-.32 1.13.07 1.11.29 1.08.36 1.04.43.98.52.9.55.83.42.79.2.78.11.92.07 1.54-.96" filter="url(#a)"/><path d="m38.21-76.78 1.35.72 1.34.64 1.17.43 1.26.06 1.47-.24 1.6-.29 1.63-.15 1.66-.08 1.79-.29 2.03-.69 2.26-1.04 2.31-1.06 2.13-.68 1.8-.12 1.45.33 1.27.55 1.35.53 1.8.33 2.43.14 2.12 1.77M35.57-78.6l-.14-.09-1.04-.4-1.15-.53-1.08-.61-1.06-.57-1.08-.48-1.07-.43-1.02-.4-.96-.4-.95-.35-1-.26-1.1-.17-1.16-.09-1.19-.07-1.14-.11-1.07-.19-1.02-.26-1.02-.27-1.05-.22-1.05-.2" filter="url(#a)"/><path d="m36.48-78.33-1.33 2.27.52.08.92.13.85.76.63 1.38.4 1.79.22 1.98.13 1.97.14 1.85.26 1.65.43 1.42.62 1.15.71.91.7.73.61.67.49.78.44 1.12.39 1.81.32 2.94-11.75-28.38.41 2.11.66 1.67.89.65.83.31.7.5.58.9.49 1.31.48 1.53.51 1.53.59 1.33.69 1.05.76.86.81.78.8.87.72 1.05.53 1.26.27 1.44.03 1.49-.02 1.37.12 1.32.24 1.57" filter="url(#a)"/><path d="m5.84-95.89 2.11.67 1.29.82 1.14.8 1.03.73.92.57.89.42.93.32.97.28.99.27.97.31.96.39.93.56.91.75.88.88.85.87.92.79 1.66.89-2.82-1.07 2.28.44 1.54.36 1.06.44.89.41.95.31 1.09.2 1.2.13 1.25.13 1.23.21 1.16.35 1.05.49.94.61.85.67.81.69.83.69.91.66 1.05.6 1.17.51 1.26.4 1.25.29 1.16.24 1.04.28.96.41 1.43 1.03-26.6-10.19-1.61-.47-1.3.46-1.22.73-1.14.74-1.09.79-1.09.85-1.08.77-1.01.5-.9.14-.84-.07-.87.02-1 .41-1.15.9-1.27 1.17-1.32 1.08-1.08.23" filter="url(#a)"/><path d="m17.12-88.44-.48-2.17-.77-.94-1.04-.23-1.06.03h-.99l-.99-.13-1.04-.3-1.12-.49-1.18-.68-1.2-.78-1.18-.75-1.14-.61-1.1-.45-1.05-.39-.98-.48-.97-.66-.99-.89-1.04-1.14-.97-1.27-.7-.55m18.83 12.5.96.86.99.69 1.01.49 1.01.43 1.01.46 1.03.56 1.03.69.98.81.88.92.77.95.73.96.75.91.82.86.89.84.87.89.78.99.69 1.05.78.97" filter="url(#a)"/><path d="m15.96-88.82-.48-.14-1.07-.43-1.01-.58-.84-.84-.82-1.09-.92-1.19-1.06-1.03-1.17-.75-1.23-.49-1.22-.39-1.19-.45-1.11-.63-1.04-.78-.96-.8-.93-.72-1.01-.7-1.16-.84-1-1.15m18.4 13.37-1.71-.69-1.19-.4-.84-.32-.82-.36-.95-.39-1.11-.35-1.19-.29-1.21-.22-1.2-.19-1.14-.2-1.08-.23-1-.26-.87-.29-.63-.31-.41-.34m15.35 4.84.13.52.44 1.69.7 1.43.88.79.95.52.92.66.87.94.84 1.17.8 1.25.74 1.21.68 1.14.65 1.09.64 1.06.69 1.06.73 1.05.75 1.03.74 1.02.74 1.09.85 1.31 1.47 1.11" filter="url(#a)"/><path d="m16.14-88.45.46-1.09.99-.95 1.11-.39 1.09.14 1.03.49 1.04.66 1.08.62 1.15.47 1.2.28 1.21.06 1.21-.11 1.22-.21 1.26-.23 1.31-.16 1.35-.05 1.36.05 1.36.15 1.33.32 1.27.57 1.09.61.43-.47-27.97-2.09-1.25-.25-1.35-.22-1.28-.19-1.23-.15-1.17-.13-1.1-.09-1.04-.06-.97-.05-.94-.04-.93-.03-.94-.03h-.98l-1.01.03-1.07.06-1.09.1-1.08.11-.98.11-.84.1-.79.11-1.04.19-1.83.31L8-90.4l-.39.11-1.19.05-1.19.43-1.11.76-1.03.75-.96.47-.92.13-.91-.05-.92-.03-.94.11-.98.26-1.01.32-1.01.28-1 .23-.98.18-.95.22-.96.32-1 .49-1.02.67-.95.85-.84.94-.78.94-.89.77-1.17.61 23.9-9.8.23.31 1.01.55 1 .55.86.45.83.38.87.39.92.4.93.38.94.32.94.27.95.3.94.38.93.52.9.69.95.81 1.14.86 1.21.8 1.53-18.89-2.14.6-1.56.69-1.29.23-1.23.38-1.23.65-1.22.62-1.18.37-1.12.3-1.09.62-1.13 1.15-1.21 1.5-1.29 1.34-1.33.68-1.33-.05-1.41-.21-1.28 1.32" filter="url(#a)"/><path d="m4.37-90.99-1.42.37-1.02 1.08-.86 1.53-.87 1.18-.9.52-.95.06-.98-.05-.99.15-.96.57-.9 1.04-.82 1.43-.78 1.62-.78 1.61-.83 1.48-.85 1.38-.8 1.28-.73 1.08-.73.71-.85.34-1.19-.25m83.95 59.17 11.6 2.92-.03 3.21-1.41 2.92-1.23 2.71-.95 2.65-.52 2.64.09 2.66.78 2.7 1.37 2.74 1.81 2.76 2.15 2.77 2.53 2.74 3.08 2.69 3.83 2.63 4.62 2.59 5.16 2.56 5.08 2.56 4.22 2.57 2.72 2.57 1.02 2.54-.34 2.49-.93 2.43-.72 2.35-.01 2.29.77 2.23 1.29 2.19 1.32 2.19.75 2.24-.56 2.29-2.28 2.26-2.04 1.88" filter="url(#a)"/><path d="m.77-91 1.91-.01 2.53.12 2.39.24 2.44.34 2.78.42 3.27.51 3.71.6 3.89.67 3.8.76 3.48.82 3.1.87 2.77.93 2.58.97L42-82.73l2.74 1.1 3.03 1.19 3.39 1.27 3.75 1.37 4.06 1.46 4.35 1.55 4.63 1.61 4.96 1.65 5.37 1.67 5.73 1.67 5.83 1.7 5.39 1.82 4.82 2.02 5.42 2.32 7.07 2.62" filter="url(#a)"/><path d="m.77-91 1.26-.01 1.94.12 2.37.24 2.67.33 2.85.42 2.87.5 2.8.59 2.65.67 2.51.75 2.49.81 2.63.87 2.91.91 3.24.96 3.5 1.02 3.63 1.08 3.63 1.16 3.52 1.25 3.4 1.35 3.38 1.45 3.55 1.56 3.93 1.63 4.41 1.68 4.63 1.65 4.2 1.59 3.23 1.58 3.42 1.91" filter="url(#a)"/><path d="m-1.56-91.15 2.34.22 2.23.16 2.41.21 2.49.28 2.42.35 2.3.41 2.22.46 2.17.54 2.18.61 2.22.72 2.3.82 2.4.92 2.51 1.03 2.57 1.11 2.54 1.19 2.44 1.24 2.28 1.29 2.13 1.35 2.05 1.41 2.08 1.48 2.23 1.57 2.44 1.65 2.64 1.72 2.77 1.8 2.78 1.84 2.69 1.88 2.61 1.95 2.61 2.09 2.73 2.29 2.88 2.49 2.82 2.45 2.69 2.57" filter="url(#a)"/><path d="m-2.02-91.14 2.16.07 1.88.07 2.13.15 2.44.24 2.62.34 2.61.42 2.51.51 2.4.59 2.37.68 2.39.75 2.43.82 2.47.88 2.51.93 2.6.98 2.71 1.05 2.87 1.12 3.03 1.2 3.19 1.28 3.3 1.38 3.29 1.47 3.18 1.55 2.95 1.61 2.67 1.65 2.46 1.69 2.43 1.73 2.61 1.79 2.98 1.9 3.37 2.04 3.63 2.2 3.71 2.29 3.77 2.31 3.96 2.22 3.87 2.12" filter="url(#a)"/><path d="m-2.58-91.18 1.39.11 2.26.14 2.55.16 2.55.21 2.43.27 2.34.33 2.36.39 2.52.45 2.91.5 3.5.58 4.26.68 5.08.78 5.76.88 6.16 1 6.14 1.09 5.76 1.17 5.15 1.22 4.51 1.25 3.93 1.28 3.5 1.32 3.34 1.4 3.7 1.45 4.59 1.3 5.74.9" filter="url(#a)"/><path d="m-5.35-90.79 2.19-.21h1.95l2.06.1 2.32.15 2.67.2 2.98.27 3.13.33 3.08.39 2.91.44 2.8.5 2.89.59 3.2.67 3.66.77 4.12.89 4.53.99L44-83.62l5.19 1.16 5.48 1.23 5.69 1.25 5.69 1.28 5.49 1.33 5.29 1.4 4.97 1.44 3.81 1.3 1.68.91" filter="url(#a)"/><path d="m-7.85-90.34 3.06-.4 2.48-.19 2.18-.05 2.07.05 2.1.13 2.22.23 2.38.31 2.56.4 2.74.48 2.85.57 2.88.66 2.84.73 2.75.8 2.65.86 2.62.91 2.64.95 2.7 1.01 2.79 1.08 2.82 1.15 2.79 1.24 2.69 1.34 2.6 1.45 2.63 1.55 2.88 1.66 3.31 1.7 3.63 1.66 3.32 1.52 1.85 1.12" filter="url(#a)"/><path d="m-7.4-90.56 2.1-.23 2.04-.14 2-.01 2.07.07 2.19.15 2.31.21 2.35.27 2.34.33 2.26.4 2.19.45 2.12.53 2.1.61 2.11.7 2.15.8 2.2.91 2.26 1 2.31 1.1 2.33 1.17 2.36 1.23 2.34 1.28 2.3 1.33 2.23 1.4 2.15 1.46L45.48-74l2.02 1.64 2 1.74 1.98 1.8 1.91 1.84 1.8 1.81 1.66 1.72 1.5 1.58 1.72 1.81" filter="url(#a)"/><path d="M-7.75-90.63v.03l2.29-.16 2.57-.14 2.42-.05 2.36.04 2.43.13 2.6.21 2.76.3 2.84.39 2.81.47 2.68.56 2.55.64 2.46.72 2.5.8 2.66.84 2.97.9 3.35.93 3.77.99 4.15 1.05 4.34 1.13 4.26 1.22 3.93 1.29 3.64 1.4 3.87 1.57 4.89 1.83 5.94 2.1" filter="url(#a)"/><path d="m-8.65-90.28 1.27-.26 1.84-.21 2.04-.13 2.13-.03 2.22.07 2.34.13 2.41.2 2.45.26 2.51.33 2.61.38 2.77.45 2.98.51 3.2.59 3.37.68 3.45.79 3.47.88 3.42 1 3.32 1.08 3.21 1.17 3.14 1.22 3.18 1.26 3.36 1.31 3.73 1.35 4.17 1.42 4.53 1.5 4.65 1.61 4.55 1.78 4.6 2.07 4.99 1.99" filter="url(#a)"/><path d="m-8.65-90.28 1.51-.26 1.9-.22 2.07-.12 2.18-.02 2.27.07 2.4.14 2.56.21 2.75.27 2.95.33 3.13.4 3.26.46 3.32.54 3.33.62 3.32.72 3.33.81 3.38.91 3.47 1.01 3.56 1.1 3.61 1.18 3.62 1.23 3.6 1.3 3.53 1.35 3.48 1.42 3.48 1.49 3.59 1.57 3.91 1.65 4.47 1.72 5.23 1.8 6.07 1.85 6.7 1.9 6.93 1.99 6.57 2.1 5.69 2.27 4.47 2.39 3.45 2.37 3.45 2.15 4.23 1.67M69.93-16.2l3.8 3.04 4.32 3.32 6.19 3.09 7.72 2.86 6.16 2.74 2.34 2.65-1.3 2.61-3.09 2.58-2.8 2.56-1.26 2.56.61 2.57 2.21 2.58 3.35 2.6 3.99 2.6 4.13 2.6 3.85 2.6 3.37 2.58 3.16 2.54 3.42 2.48 3.77 2.45 3.31 2.52 1.79 2.77.67 2.97-1.43 2.59" filter="url(#a)"/><path d="m-11.19-89.9 2.27-.42 2-.23 2.13-.19 2.17-.13 2.14-.05 2.08.02 2.08.11 2.11.19 2.17.29 2.22.36 2.28.45 2.34.53 2.41.62 2.47.7 2.51.78 2.47.85 2.39.88 2.24.89 2.14.9 2.2.98 2.47 1.14 2.76 1.31" filter="url(#a)"/><path d="m-14.51-89.15 1.08-.37 2.13-.47 2.47-.38 2.5-.26 2.46-.15 2.46-.05 2.51.04 2.59.11 2.71.19 2.85.26 3.05.31 3.27.38 3.48.44 3.66.51 3.81.58 3.95.68 4.13.77 4.42.88 4.79.98 5.09 1.09 5.18 1.16 4.88 1.22 4.24 1.26 3.51 1.29 3.12 1.35 3.45 1.41 4.6 1.47 5.96 1.55 6.61 1.77 7.25 2.79" filter="url(#a)"/><path d="m-16.57-88.43 1.85-.57 2.21-.49 2.44-.45 2.4-.37 2.21-.27 2.03-.17 1.89-.06 1.81.03 1.77.11 1.77.18 1.73.25 1.66.31 1.55.37 1.41.43 1.26.5 1.16.57 1.09.66 1.02.76.89.87.66.98.32 1.07-.02 1.17-.3 1.22-.41 1.25-.37 1.27-.32 1.33-.31 1.45-.22 1.61-.53 1.3" filter="url(#a)"/><path d="m-16.57-88.43 1.09-.56 2.2-.5 2.49-.45 2.4-.37 2.25-.28 2.22-.16 2.31-.07 2.5.03 2.74.1 2.97.17 3.13.24 3.22.3 3.3.36 3.4.41 3.61.48 3.91.54 4.36.63 4.91.73 5.48.84 5.88.95 5.92 1.08 5.55 1.19 5.34 1.29 6.65 1.39 10.53 1.76" filter="url(#a)"/><path d="m-19.98-87.39 2.74-.86 2.23-.64 2.22-.54 2.26-.46 2.24-.38 2.18-.27 2.15-.18 2.16-.08 2.2.02 2.27.09 2.32.17 2.35.23 2.33.3 2.29.35 2.25.41 2.23.47 2.26.53 2.34.62 2.46.71 2.6.83 2.73.95 2.84 1.07 2.82 1.19 2.59 1.23 2.01 1.03" filter="url(#a)"/><path d="m-19.98-87.36 2.38-.83 1.99-.7 1.77-.55 1.68-.43 1.8-.32 2.02-.26 2.26-.19 2.43-.14 2.52-.07h2.57l2.63.08 2.73.17 2.88.25 3.08.34 3.29.42 3.53.5 3.74.6 3.92.68 3.99.78 3.93.86 3.75.93 3.4.89 2.71.5m24.9 68.07.42 1.68.57 2.62 1.1 2.91 1.27 2.84.98 2.75.53 2.68.17 2.67-.06 2.69-.17 2.72-.27 2.75-.35 2.77-.39 2.76-.41 2.74-.39 2.7-.38 2.65-.38 2.61-.44 2.58-.53 2.58-.64 2.57-.76 2.56-.86 2.53-.92 2.49-.95 2.42-.94 2.37-.91 2.31-.88 2.26-.87 2.22-.91 2.2-.97 2.18-1.05 2.14-1.11 2.07-1.21 2-1.34 1.93-1.51 1.9-1.71 1.94-1.95 2.01-2.34 2.06" filter="url(#a)"/><path d="m-21.25-86.69 4.23-.72 2.06-.75 1.65-.67 1.66-.55 1.72-.44 1.77-.34 1.79-.26 1.78-.19 1.76-.13 1.7-.06 1.64.02 1.56.1 1.49.19 1.39.28 1.3.36 1.18.45 1.07.54.97.62.9.7.86.78.86.84.85.88.77.94.58.98.25 1.04-.13 1.13-.43 1.2-.64 1.28-.95 1.36-1.51 1.51-1.44 1.9" filter="url(#a)"/><path d="m-24.3-85.45 1.78-1.03 1.44-.86 1.56-.76 1.72-.67 1.96-.56 2.18-.44 2.35-.35 2.47-.27 2.54-.19 2.61-.13 2.68-.05 2.76.02 2.83.11 2.9.2 2.95.28 2.98.37 3 .46 3.02.55 3.06.63 3.09.7 3.16.78 3.21.85 3.27.89 3.31.96 3.33 1.01 3.32 1.08 3.28 1.15 3.24 1.25 3.27 1.34 3.43 1.44 3.82 1.56 4.43 1.66 5.04 1.71 5.26 1.67 4.59 1.54 3.41 1.13" filter="url(#a)"/><path d="m-24.3-85.45 2.28-1.02 1.99-.86 1.91-.77 1.96-.67 2.04-.55 2.09-.45 2.13-.35 2.17-.27 2.23-.2 2.29-.13 2.33-.07 2.39.02 2.46.1 2.56.18 2.68.27 2.8.35 2.93.45 3.01.53 3.05.62 3.04.7 2.98.77 2.86.84 2.79.88 2.79.93 2.93.97 3.14 1.04 3.34 1.12 3.4 1.2 3.3 1.26 3.24 1.26 3.14 1.31" filter="url(#a)"/><path d="m-24.86-85.27 1.75-.49 1.83-.76 2.08-.79 2.3-.75 2.36-.66 2.29-.55 2.13-.45 1.99-.36 1.88-.28 1.81-.2 1.78-.13 1.76-.06 1.73.02 1.71.11 1.68.19 1.63.28 1.56.36 1.45.46 1.31.54 1.15.62 1 .71.86.77.73.84.62.9.53.95.43 1 .32 1.07.19 1.15-.01 1.24-.23 1.33-.39 1.44-.32 1.56.06 1.69.48 1.75.33 1.75-1.49 1.9" filter="url(#a)"/><path d="m-24.86-85.27-.37-.49.25-.76 1.5-.79 2.19-.74 2.48-.66 2.56-.56 2.61-.45 2.63-.36 2.62-.28 2.58-.2 2.54-.14 2.5-.06 2.48.02 2.51.1 2.57.19 2.71.27 2.87.36 3.09.45 3.3.53 3.49.62 3.64.71 3.72.77 3.77.84 3.82.88 3.95.94 4.17 1 4.42 1.05 4.62 1.13 4.59 1.22 4.29 1.3 3.84 1.41 3.55 1.57 3.75 1.84 4.46 2.12" filter="url(#a)"/><path d="m-27.16-84.27 1.44-.77 1.46-.7 1.72-.75 1.8-.77 1.76-.73 1.76-.66 1.83-.56 1.98-.47 2.14-.37 2.32-.29 2.45-.22 2.57-.16 2.64-.08 2.7-.01 2.8.08 2.92.15 3.07.24 3.26.33 3.44.41 3.6.5 3.73.59 3.79.68 3.82.78 3.83.87 3.77.93 3.48.9 2.46.5" filter="url(#a)"/><path d="m-29.49-82.94 1.13-1.12.7-.86 1.28-.78 1.88-.77 2.28-.76 2.42-.72 2.36-.66 2.21-.56 2.13-.47 2.13-.38 2.24-.3 2.37-.22 2.49-.16 2.57-.08h2.63l2.69.07 2.8.16 2.95.24 3.14.33 3.33.42 3.51.5 3.66.6 3.76.68L31-87l3.84.85 3.81.89 3.73.88 3.56.79 3.8.81" filter="url(#a)"/><path d="m-29.49-82.94 1.02-1.11 1.1-.86 1.68-.78 1.84-.77 1.94-.75 2.11-.73 2.28-.66 2.37-.57 2.34-.47 2.29-.39 2.25-.3 2.26-.23 2.29-.16 2.34-.1L1-90.84l2.43.05 2.51.14 2.62.23 2.75.31 2.88.39 3 .48 3.1.56 3.16.65 3.3.78 3.93.97" filter="url(#a)"/><path d="m-29.49-82.94 1.82-1.11 1.67-.86 1.72-.77 1.9-.76 2.06-.76 2.12-.73 2.12-.66 2.09-.57 2.05-.48 2.05-.39 2.09-.31 2.13-.23 2.16-.17 2.2-.1 2.2-.04 2.22.05 2.28.12 2.36.22 2.47.29 2.59.38 2.71.47 2.84.54 2.42.37" filter="url(#a)"/><path d="m-32.27-81.08 3.01-1.81 2.35-1.33 1.87-1.01 1.61-.81 1.51-.71 1.54-.67 1.69-.63 1.87-.6 2.1-.54 2.29-.47 2.44-.4 2.52-.3 2.54-.21 2.55-.11 2.57-.02 2.63.06 2.72.14 2.83.22 2.89.27 2.9.34 2.83.4 2.74.46 2.64.52 2.62.61 2.73.7 2.99.81 3.39.94 3.82 1.07 4.04 1.27 3.44 1.48" filter="url(#a)"/><path d="m-32.27-81.08 1.41-1.8 2.68-1.33 2.25-1 1.74-.81 1.55-.71 1.65-.67 1.88-.63 2.11-.6 2.27-.55 2.38-.49 2.45-.4 2.49-.32 2.5-.22 2.55-.13 2.65-.03 2.8.05 3 .13 3.17.2 3.27.27 3.24.32 3.14.38 3.11.42 3.24.47 3.42.52 3.49.43" filter="url(#a)"/><path d="m-32.27-81.08 3.05-1.82 2.46-1.33 2.03-1.01 1.81-.81 1.75-.72 1.81-.67 1.91-.63 2.03-.59 2.12-.54 2.2-.46 2.24-.39 2.25-.29 2.27-.19 2.29-.1 2.32-.01 2.38.07 2.42.15 2.45.23 2.46.29 2.45.35 2.43.43 2.42.49 2.44.57 2.49.65 2.58.76 2.69.86 2.8.96 2.9 1.07 2.98 1.16 2.98 1.22 2.85 1.26 2.62 1.28 2.38 1.33 2.36 1.46 2.67 1.61 2.43 1.32" filter="url(#a)"/><path d="m-32.67-80.68 2.06-1.83 1.67-1.29 1.86-.99 2.06-.85 2.17-.79 2.23-.76 2.23-.72 2.19-.65 2.13-.57 2.07-.48 2.07-.39 2.09-.3 2.15-.23 2.22-.16 2.28-.09 2.32-.01 2.37.07 2.4.15 2.46.24 2.51.32 2.56.41 2.6.5 2.64.59 2.7.68 2.81.77 2.92.87 2.98.93 2.73.9 1.41.51m-71.24 6.3-1.53 1.17-1.61 1.29-1.87 1.52-1.99 1.64-1.98 1.65-1.89 1.66-1.85 1.71-1.89 1.81-2 1.93-2.1 2.09-2.14 2.21-2.05 2.3-1.89 2.34-1.69 2.35-1.51 2.33-1.37 2.32-1.27 2.33-1.25 2.36-1.27 2.38-1.37 2.43-1.51 2.46-1.69 2.49-1.86 2.53-2.01 2.57-2.08 2.62-2.07 2.66-1.96 2.68-1.72 2.7-1.4 2.73-1.05 2.8-.79 2.92-.65 3.06-.55 3.11-.45 3.01-.42 2.5-.74.72" filter="url(#a)"/><path d="m-38.11-76.82-2.62 2.28-2.3 2.11-1.91 1.93-1.67 1.82-1.56 1.79-1.53 1.83-1.51 1.9-1.48 1.97-1.43 2.05-1.36 2.1-1.3 2.14-1.24 2.19-1.19 2.22-1.14 2.25-1.11 2.28-1.07 2.32-1.05 2.36-1.03 2.43-1.01 2.49-.99 2.54-.97 2.58-.92 2.59-.86 2.59-.79 2.61-.71 2.62-.62 2.65-.53 2.65-.44 2.63-.34 2.62-.25 2.7-.19 2.94-.15 3.21-.15 2.95-.2.97m142.85-22.5.58 3.18.47 2.59.67 2.73.92 2.84 1.08 2.8 1.06 2.73.94 2.69.72 2.67.41 2.69.06 2.7-.27 2.74-.53 2.76-.67 2.76-.67 2.74-.59 2.7-.46 2.64-.31 2.59-.2 2.58-.12 2.57-.12 2.57-.18 2.57-.32 2.55-.49 2.49-.71 2.44-.92 2.36-1.09 2.29-1.17 2.24-1.19 2.2-1.21 2.19-1.25 2.24-1.33 2.3-1.38 2.27-1.33 1.88M-41.51-74.07l-5.57 2.3-6.45 1.66-4.28 1.57-2.06 1.6-.88 1.71-.77 1.86-1.36 2.06-2.4 2.23-3.68 2.35-4.96 2.38-5.83 2.35-5.93 2.28-5.14 2.25-3.76 2.25-2.41 2.29-1.67 2.35-1.79 2.42-2.51 2.43-3.31 2.41-3.81 2.37-4.14 2.4-4.86 2.62-5.93 2.97-6.19 3.14m87.79-52.34-1.98 1.93-1.87 1.71-1.85 1.7-1.93 1.78-2.21 1.88-2.7 1.98-3.29 2.04-3.71 2.1-3.76 2.14-3.44 2.19-2.92 2.21-2.35 2.24-1.91 2.26-1.66 2.29-1.58 2.35-1.6 2.4-1.69 2.49-1.78 2.54-1.86 2.58-1.97 2.58-2.15 2.57-2.4 2.57-2.7 2.62-2.9 2.68-2.91 2.7-2.62 2.59-2.11 2.32-1.35 1.97-.65 1.64" filter="url(#a)"/><path d="m-45.63-69.99-2.38 1.58-4.19 1.58-3.89 1.74-2.81 1.86-1.95 1.96-1.63 2.03-1.82 2.08-2.33 2.12-3.04 2.16-3.9 2.19-4.84 2.21-5.65 2.23-6.03 2.23-5.65 2.27-4.63 2.34-3.51 2.46-2.96 2.59-3.28 2.67-3.92 2.62-4.27 2.39-5.09 2.07-8.02 2.11" filter="url(#a)"/><path d="m-49.13-65.86-4.91.89-6.03 1.61-4.28 2.09-2.46 2.39-1.32 2.49-1.32 2.45-2.29 2.35-3.72 2.27-4.99 2.22-5.69 2.23-5.58 2.3-4.79 2.36-3.64 2.4-2.51 2.43-1.81 2.43-1.71 2.44-2.26 2.5-3.25 2.62-4.2 2.72-4.68 2.76-4.75 2.63-5.07 2.36-4.02 1.98m83.62-50.55-1.97 2.11-3.06 2.62-3.35 2.67-2.69 2.53-1.73 2.37-1.13 2.25-1.13 2.24-1.6 2.27-2.3 2.34-2.91 2.39-3.31 2.44-3.51 2.47-3.58 2.49-3.68 2.53-3.83 2.57-4.04 2.62-4.17 2.66-4.09 2.69-3.7 2.71-2.99 2.76-2.05 2.82-1.08 2.9-.32 2.96-.02 3-.28 2.97-1.02 2.93-1.95 2.92-2.65 2.89-2.91 2.78-3.32 2.42-4.88 2.42" filter="url(#a)"/><path d="m-50.79-63.49-2.6 2.09-4.1 2.61-3.67 2.67-3.2 2.52-3.22 2.36-3.19 2.24-2.63 2.22-1.75 2.25-1.06 2.32-1 2.38-1.62 2.43-2.61 2.45-3.58 2.47-4.16 2.5-4.29 2.56-4.04 2.61-3.58 2.65-3.07 2.67-2.56 2.67-2.06 2.7-1.58 2.77-1.22 2.9-1.22 3.05-1.87 3.1-2.87 2.98-3.08 2.46-2.1.69m69.53-64.26-.34 1.61-.37 2.11-.12 2.18.42 2.18.87 2.22.83 2.25.23 2.26-.57 2.27-1.12 2.32-1.1 2.41-.49 2.49.48 2.56 1.43 2.58 2.06 2.57 2.26 2.56 2.1 2.57 1.78 2.6 1.51 2.63 1.33 2.64 1.22 2.58 1.14 2.52 1.08 2.59 1.08 3 1.55 3.79 3.39 4.4" filter="url(#a)"/><path d="m-51.89-61.97.34 3.18.66 2.83-1.15 2.58-1.84 2.35-1.24 2.23-.02 2.21 1 2.28 1.38 2.34 1.13 2.41.57 2.45.06 2.48-.23 2.51-.26 2.54-.13 2.58.09 2.63.37 2.68.73 2.7 1.19 2.74 1.79 2.78 2.47 2.84 3.08 2.9 3.42 2.95 3.32 2.97 2.7 2.96 1.73 2.93.81 2.9.37 2.84.68 2.78 1.65 2.72 2.76 2.65 3.25 2.6 2.66 2.55 1.67 2.67 3.07 3.47m-38.08-91.23-2.21 3.16-2.02 2.81-1.92 2.57-1.77 2.33-1.59 2.21-1.47 2.19-1.42 2.24-1.42 2.32-1.39 2.39-1.28 2.44-1.1 2.45-.92 2.48-.8 2.5-.76 2.56-.75 2.61-.76 2.65-.76 2.67-.77 2.68-.85 2.72-.95 2.78-1.03 2.9-1 3.01-.82 3.04-.55 2.95-.35 2.75-.27 2.68-.09 4.04" filter="url(#a)"/><path d="m-55.81-56.37-1.8 2.15-2.58 2.03-2.54 2.16-2.31 2.27-2.37 2.26-2.76 2.25-3.49 2.28-4.5 2.39-5.54 2.49-6.19 2.57-6.14 2.59-5.35 2.56-4.2 2.53-3.28 2.54-2.93 2.59-3.25 2.64-4.05 2.65-5.07 2.55-5.83 2.39-5.96 2.37-6.21 2.81-6.77 4.42m93.12-55.49-1.23 2.18-1.13 2.07-1.14 2.21-1.16 2.29-1.13 2.3-1.12 2.3-1.15 2.36-1.19 2.44-1.22 2.53-1.21 2.59-1.14 2.6-1.06 2.61-.93 2.6-.82 2.61-.71 2.63-.62 2.64-.58 2.67-.56 2.69-.56 2.73-.56 2.77-.53 2.83-.46 2.88-.34 2.9-.22 2.92-.1 2.94-.01 2.96.08 2.99.09 2.94.05 2.83-.05 2.61-.08 2.27.02 1.7.07.54" filter="url(#a)"/><path d="m-57.14-53.97-1.23 1.88-1.36 2.15-1.42 2.34-1.58 2.3-1.68 2.28-1.59 2.31-1.34 2.43-1.11 2.53-1.03 2.58-1.19 2.61-1.54 2.59-1.9 2.58-2.16 2.59-2.16 2.61-1.95 2.63-1.57 2.65-1.17 2.66-.89 2.69-.81 2.75-.87 2.82-1.02 2.89-1.09 2.88-1.05 2.87-.87 2.87-.69 2.99-.62 3.14-.68 3.08-1.44 2.75m36.01-73.45-1.5 1.87-1.66 2.14-3.01 2.33-4.36 2.3-4.6 2.25-3.81 2.3-2.87 2.41-2.59 2.52-3.05 2.58-3.91 2.6-4.63 2.58-4.97 2.56-4.89 2.57-4.61 2.6-4.37 2.62-4.26 2.63-4.21 2.63-3.94 2.63-3.32 2.72-2.52 2.86-2.08 2.95-2.54 2.91-3.9 2.65-5.46 2.4-6.81 1.85" filter="url(#a)"/><path d="m-58.16-51.76-1.89 1.73-6.72 2.51-9.72 2.37-8.14 2.27-3.99 2.31-.07 2.44 2.03 2.56 2.07 2.61.63 2.62-1.36 2.61-3.05 2.6-3.9 2.61-3.8 2.63-2.96 2.65-1.83 2.67-.86 2.69-.38 2.74-.46 2.78-.99 2.83-1.73 2.87-2.42 2.91-2.93 2.92-3.17 2.94-3.19 2.94-3.09 2.94-3.05 2.88-3.15 2.76-3.33 2.57-3.47 2.35-3.45 2.19-3.45 2.24-3.72 2.58-2.82 2.71m87.73-85.31-.17 2.32.17 2.22-.07 2.29-.33 2.4-.55 2.46-.77 2.49-.96 2.5-1.02 2.5-.94 2.54-.72 2.58-.48 2.64-.25 2.69-.11 2.71-.02 2.74-.01 2.79v2.85l-.01 2.9.01 2.95.03 2.96.08 2.94.12 2.92.2 2.88.3 2.82.47 2.77.7 2.72.92 2.67 1.12 2.65 1.22 2.65 1.23 2.7 1.21 2.76 1.18 2.76 1.09 2.5.78 1.53" filter="url(#a)"/><path d="m-58.61-51.28-1.9 3.73-1.21 2.51-.97 2.15-.91 2.2-.89 2.39-.87 2.55-.83 2.61-.78 2.62-.73 2.57-.66 2.54-.59 2.56-.54 2.58-.48 2.63-.43 2.62-.39 2.61-.33 2.63-.28 2.7-.22 2.85-.15 2.96-.1 2.89-.08 2.64-.08 2.39-.08 1.84" filter="url(#a)"/><path d="M-59.81-48.54-61-46.42l-1.01 2.24-.98 2.4-.98 2.49-.96 2.51-.9 2.5-.84 2.49-.78 2.53-.73 2.59-.67 2.65-.6 2.68-.55 2.72-.48 2.75-.43 2.79-.36 2.85-.3 2.9-.22 2.95-.14 2.95-.03 2.95.05 2.92.13 2.87.18 2.82.22 2.77.25 2.72.29 2.67.33 2.66.39 2.66.47 2.69.55 2.71.6 2.69.59 2.53.56 2.3.7 2.5m6.84-87.57-17.95 2.13-.8 2.24 1.55 2.41 1.66 2.49 1.22 2.52.45 2.51-.32 2.5-.88 2.54-1.22 2.6-1.42 2.65-1.53 2.7-1.65 2.72-1.78 2.76-1.99 2.81-2.26 2.85-2.49 2.91-2.58 2.95-2.42 2.95-2.04 2.95-1.52 2.91-1.08 2.87-.92 2.83-1.12 2.77-1.56 2.73-2.05 2.7-2.26 2.67-2.06 2.67-1.45 2.67-.67 2.66-.07 2.61v2.52l-.62 2.4-1.8 2.29-2.96 2.17-2.86 1.99.02 1.56" filter="url(#a)"/><path d="m-59.81-48.54-2.57 2.1-3.93 2.21-3.53 2.37-3.39 2.47-3.82 2.49-3.94 2.47-3.32 2.46-2.27 2.49-1.4 2.55-1.05 2.62-1.24 2.66-1.78 2.68-2.48 2.69-3.18 2.73-3.76 2.8-4.05 2.89-3.97 2.97-3.49 2.98-2.85 2.95-2.48 2.9-2.8 2.89-3.83 2.87-4.77 2.75-4.49 2.4-5.67 2.4" filter="url(#a)"/><path d="m-61.24-46.22-2.24 1.99-4.62 2.4-5.15 2.5-3.49 2.51-1.67 2.48-.93 2.44-1.17 2.48-1.85 2.54-2.68 2.63-3.58 2.66-4.46 2.68-4.98 2.69-4.85 2.72-3.93 2.79-2.59 2.89-1.44 2.96-1.1 2.98-1.88 2.95-3.55 2.9-5.31 2.88-5.97 2.87-5.13 2.74-4.05 2.4-3.47 2.39" filter="url(#a)"/><path d="m-62.67-43.13-6.18 2.26-3.06 2.63-1.49 2.75-1.39 2.74-1.91 2.66-2.4 2.57-2.68 2.53-3.02 2.56-3.64 2.6-4.43 2.63-4.95 2.65-4.85 2.65-4.01 2.68-2.78 2.75-1.6 2.82-.84 2.87-.68 2.88-1.11 2.88-1.95 2.9-2.99 2.96-3.97 3.02-4.5 3-4.16 2.89-2.95 2.66-2.15 2.24" filter="url(#a)"/><path d="m-62.67-43.13-3.07 2.26-4.33 2.64-3.95 2.75-2.72 2.75-1.84 2.66-1.56 2.57-1.54 2.54-1.46 2.57-1.28 2.6-1.11 2.64-1.05 2.65-1.11 2.66-1.17 2.69-1.13 2.75-.94 2.82-.72 2.87-.72 2.89-1.06 2.89-1.71 2.91-2.29 2.96-2.38 2.99-1.8 2.97-1.01 2.85-.75 2.67-1.35 2.47-2.15 2.38" filter="url(#a)"/><path d="m-62.67-43.13-2.56 2.29-.82 2.67-.74 2.79-1.02 2.76-1.31 2.68-1.63 2.61-2.01 2.58-2.34 2.6-2.42 2.63-2.19 2.67-1.75 2.69-1.34 2.71-1.16 2.75-1.29 2.8-1.68 2.85-2.15 2.88-2.54 2.92-2.74 2.92-2.69 2.93-2.44 2.9-2.11 2.87-1.84 2.79-1.77 2.69-1.88 2.59-2.03 2.49-2.01 2.43-1.65 2.44-.99 2.48-.3 2.55.06 2.58v2.56l-.2 2.46-.05 2.29.54 2.18 1.04 2.36 2.54 2.97" filter="url(#a)"/><path d="m-63.06-41.07-.96 1.97-1.41 2.52-2.64 2.5-4.06 2.4-4.55 2.44-4.03 2.55-3.33 2.64-3.14 2.69-3.5 2.69-3.92 2.69-3.92 2.72-3.35 2.81-2.48 2.89-1.75 2.96-1.52 2.96-1.81 2.95-2.3 2.89-2.46 2.86-2.05 2.82-1.37 2.76-1.06 2.67-1.7 2.65-3.12 2.68-4.68 2.24m65.11-63.95-.84 1.99-1 2.55-1 2.51-.97 2.43-.93 2.47-.89 2.58-.82 2.66-.75 2.71-.69 2.71-.67 2.74-.67 2.77-.69 2.84-.69 2.91-.7 2.95-.7 2.97-.72 2.94-.7 2.91-.61 2.86-.44 2.81-.2 2.75.1 2.71.33 2.66.45 2.64.45 2.65.33 2.69.2 2.71.15 2.68.25 2.52.49 2.28.59 2.5" filter="url(#a)"/><path d="m-64.5-38.33-5.17 3.07-3.73 2.78-.58 2.67.67 2.52.5 2.47-.31 2.52-1.23 2.6-1.99 2.64-2.39 2.64-2.38 2.64-2.05 2.67-1.56 2.73-1.23 2.82-1.3 2.87-1.84 2.88-2.57 2.86-2.98 2.89-2.63 2.95-1.48 3.01-.12 3 .61 2.87.05 2.65-2.19 2.23" filter="url(#a)"/><path d="m-64.5-38.33-2.29 3.1-3.28 2.81-3.66 2.7-3.44 2.56-2.91 2.51-2.28 2.56-1.64 2.63-1 2.67-.43 2.68-.02 2.7.2 2.73.27 2.79.22 2.84.05 2.89-.19 2.91-.5 2.92-.8 2.93-1 2.91-1.04 2.87-.92 2.8-.71 2.69-.49 2.57-.31 2.45-.12 2.39.14 2.4.49 2.46.83 2.57.96 2.64.75 2.66.23 2.53-.61 2.09-2.6.98" filter="url(#a)"/><path d="m-64.5-38.33-3.52 3.07-1.54 2.78-2.85 2.67-4.14 2.52-4.5 2.47-4.33 2.52-4.2 2.6-4.27 2.64-4.27 2.64-3.91 2.64-3.18 2.67-2.38 2.73-1.9 2.82-1.92 2.87-2.33 2.88-2.79 2.86-2.95 2.89-2.59 2.95-1.67 3.01-.35 3 .6 2.87-.11 2.65-3.06 2.23m61.57-60.55.4 2.33-.71 2.24-.76 2.35-.63 2.57-.45 2.72-.25 2.76-.11 2.74-.05 2.74-.01 2.79.03 2.86.14 2.93.28 2.96.44 2.97.63 2.95.84 2.9 1.06 2.86 1.28 2.81 1.43 2.76 1.48 2.72 1.37 2.69 1.16 2.67.88 2.66.65 2.64.53 2.62.55 2.58.69 2.49.92 2.42 1.19 2.36 1.43 2.35 1.59 2.44 1.59 2.63 1.45 2.92 1.24 3.07 1.08 2.88m-22.08-89.97-2.82 2.19-.69 2.72-1.03 2.53-1.91 2.46-2.78 2.53-3.33 2.63-3.44 2.68-3.14 2.68-2.67 2.69-2.32 2.72-2.25 2.78-2.37 2.84-2.48 2.88-2.28 2.91-1.71 2.92-.9 2.92-.17 2.92.16 2.88-.07 2.8-.72 2.69-1.5 2.56-2.02 2.42-2.14 2.36-1.83 2.37-1.29 2.46-.71 2.58-.16 2.68.44 2.75 1.15 2.81 1.72 2.63" filter="url(#a)"/><path d="m-65.85-33.33-1.34 3.86-1.44 2.6-1.91 2.37-2.1 2.5-1.84 2.65-1.33 2.7-.87 2.69-.69 2.69-.79 2.72-1.02 2.79-1.17 2.85-1.16 2.89-1.01 2.91-.87 2.93-.87 2.92-1.07 2.91-1.37 2.86-1.64 2.79-1.73 2.68-1.56 2.56-1.14 2.45-.63 2.4-.19 2.41.06 2.47.11 2.55.07 2.6.16 2.59.49 2.46.77 2.2.34 1.92-1.22 2.33" filter="url(#a)"/><path d="m-66.9-30.08-.84.99-.64 2.56-.78 2.89-1.19 2.84-1.66 2.72-1.95 2.69-1.95 2.75-1.69 2.84-1.29 2.93-.82 2.98-.37 2.98-.01 2.94.16 2.89.12 2.85-.08 2.79-.31 2.75-.45 2.7-.38 2.66-.11 2.65.25 2.65.56 2.65.65 2.64.4 2.6-.08 2.5-.59 2.38-.76 2.26-.4 2.16.12 1.96-.36 1.55m14.45-74.75-3.25.96-9.96 2.51-10.64 2.87-7.36 2.82-3.37 2.7-.28 2.64 1.24 2.68 1.15 2.8-.01 2.91-1.29 2.97-1.82 2.97-1.41 2.92-.54 2.88-.04 2.83-.34 2.79-1.16 2.73-1.78 2.66-1.82 2.59-1.75 2.55-2.39 2.51-3.66 2.62-3.77 3.43" filter="url(#a)"/><path d="m-67.45-28.11-.18 1.69 1.13 2.03 1.63 2.45.84 2.7-.19 2.75-.72 2.71-.57 2.71-.01 2.73.6 2.81.97 2.87 1 2.91.81 2.93.56 2.93.44 2.93.5 2.89.69 2.85.92 2.77 1.12 2.67 1.22 2.58 1.23 2.51 1.15 2.47 1.07 2.46.98 2.49.97 2.5 1.02 2.52 1.12 2.49 1.23 2.46 1.33 2.42 1.42 2.38 1.5 2.38 1.65 2.36 1.86 2.33 2.1 2.28 2.31 2.24 2.27 2.25 1.79 2.31 1.01 2.37m98.26-93.66 4.34 4.25 5.79 3.31 4.13 2.9 1.71 2.78.36 2.78.15 2.79.67 2.78 1.63 2.73 2.69 2.71 3.58 2.69 4.01 2.69 3.86 2.71 3.17 2.74 2.14 2.76 1.06 2.76.23 2.74-.19 2.69-.26 2.65-.14 2.6-.05 2.58-.14 2.57-.41 2.58-.69 2.58-.71 2.56-.31 2.5.51 2.44 1.43 2.37 1.99 2.3 1.77 2.23.81 2.18-.28 2.18-.66 2.25-.47 2.4-1.69 2.7" filter="url(#a)"/><path d="m67.66-28.23 2.1 1.95 1.74 3 .68 3.04.54 2.9.86 2.81 1.24 2.79 1.61 2.79 1.99 2.77 2.4 2.73 2.76 2.7 2.93 2.69 2.85 2.69 2.49 2.7 1.91 2.73 1.22 2.76.57 2.76.05 2.74-.22 2.7-.29 2.64-.21 2.59-.1 2.57-.03 2.56-.03 2.59-.02 2.6.09 2.57.27 2.52.42 2.44.38 2.39.02 2.32-.57 2.19-.8 1.98.65 2.27" filter="url(#a)"/><path d="m67.66-28.23 2.76 1.95 1.39 3 1.1 3.05 1.33 2.9 1.82 2.81 2.2 2.8 2.23 2.79 1.9 2.77 1.36 2.73.8 2.71.43 2.69.27 2.69.29 2.71.37 2.73.46 2.76.58 2.76.76 2.74 1.08 2.7 1.47 2.64 1.83 2.6 2.08 2.57 2.19 2.57 2.17 2.59 2.02 2.59 1.72 2.56 1.24 2.52.64 2.44.12 2.38-.14 2.31-.03 2.21.08 2.1-.2 2.14 1.42 2.33" filter="url(#a)"/><path d="m66.13-33.02 1.5 1.9 1.25 1.83.69 2.07.48 2.36.72 2.6 1.12 2.76 1.42 2.87 1.45 2.94 1.3 2.96 1.08 2.94.87 2.89.72 2.8.58 2.73.41 2.65.22 2.61.06 2.57-.02 2.55.04 2.57.14 2.59.21 2.62.17 2.62.17 2.52.45 2.26.59 2.06" filter="url(#a)"/><path d="m65.37-35.07.89 1.26 1.41 2.24 1.36 2.52 1.1 2.7.88 2.81.83 2.86.88 2.84 1 2.81 1.17 2.78 1.33 2.78 1.42 2.75 1.39 2.71 1.25 2.68 1.07 2.66.91 2.65.82 2.66.76 2.69.69 2.74.59 2.81.45 2.83.3 2.79.12 2.68.04 2.51.27 2.39.83 2.17" filter="url(#a)"/><path d="m64.65-37.5 1.45 3.51 3.01 2.48 4.94 2.17 4.92 2.24 3.36 2.43 1.66 2.63.67 2.78.44 2.89.63 2.95.96 2.97 1.27 2.94 1.6 2.89 1.99 2.83L93.99.97l2.93 2.7 3.3 2.66 3.48 2.64 3.37 2.62 2.98 2.62 2.36 2.62 1.63 2.63.95 2.63.38 2.62-.05 2.62-.39 2.6-.74 2.59-1.04 2.56-1.19 2.57-.92 2.58-.19 2.61.72 2.62 1.24 2.57.94 2.5.04 2.45-.81 2.36-.1 1.87" filter="url(#a)"/><path d="m64.65-37.5 1.22 3.5.9 2.47 1.08 2.15 1.37 2.21 1.56 2.41 1.71 2.61 1.84 2.76 1.97 2.88 2.04 2.94 2 2.96 1.82 2.94 1.42 2.89.9 2.82.3 2.74-.2 2.69-.51 2.64-.52 2.61-.28 2.59.08 2.6.39 2.61.53 2.62.46 2.62.28 2.62.09 2.63.01 2.63.02 2.58.13 2.47.36 2.27.71 2.26.22 3.01" filter="url(#a)"/><path d="m63.22-41.88 9.52 2.48 1.86 2.7.42 2.56-.01 2.54-.08 2.62.39 2.72 1.34 2.81 2.48 2.85 3.39 2.85 3.78 2.84 3.62 2.82 3.01 2.81 2.28 2.77 1.66 2.75 1.39 2.73 1.45 2.72 1.75 2.71 2.05 2.72 2.14 2.75 1.89 2.75 1.38 2.76.77 2.75.35 2.7.27 2.66.58 2.62 1.08 2.58 1.48 2.58 1.45 2.6.88 2.6-.07 2.59-.9 2.53-1.14 2.46-.56 2.39.46 2.34 1.16 2.2.68 1.99-3.13 2.28" filter="url(#a)"/><path d="m61.65-45.2 8.84 2.9 2.26 2.77-1.15 2.66-1.54 2.57-.8 2.56.12 2.62.93 2.7 1.59 2.78 2.07 2.83 2.37 2.83 2.43 2.83 2.27 2.81 1.92 2.79 1.43 2.77.94 2.74.58 2.71.47 2.69.6 2.69.96 2.69 1.37 2.73 1.67 2.76 1.73 2.78 1.44 2.79.89 2.74.24 2.65-.26 2.53-.4 2.44-.12 2.42.25 2.61-.08 3.05-1.95 3.54" filter="url(#a)"/><path d="m60.62-47.59 2.07 2.51 1.79 2.68 1.63 2.69 1.14 2.62.7 2.57.55 2.54.65 2.59.87 2.67 1.05 2.74 1.11 2.8 1.07 2.81.98 2.8.88 2.8.83 2.78.79 2.75.74 2.72.64 2.69.52 2.64.42 2.63.38 2.61.37 2.6.28 2.67.04 2.85-.57 2.43" filter="url(#a)"/><path d="m58.77-51.05 10.48 1.87.85 2.16.85 2.18 1.18 2.35.53 2.52-.3 2.61-.65 2.57-.49 2.49-.01 2.45.56 2.45 1.13 2.51 1.63 2.61 2.05 2.72 2.35 2.81 2.53 2.89 2.55 2.92 2.44 2.92 2.23 2.89 2 2.84L92.49.48l1.72 2.72 1.76 2.67 1.86 2.64 1.91 2.62 1.75 2.62 1.32 2.62.68 2.63-.02 2.64-.43 2.64-.34 2.64.35 2.64 1.41 2.6 2.34 2.48 2.54 2.29 1.17 2.28-2.38 3.02" filter="url(#a)"/><path d="m56.32-55.51 1.52 2.09 1.64 1.95 1.37 1.99 1.08 2.15.94 2.34.9 2.48.91 2.56.94 2.59 1 2.6 1.06 2.61 1.09 2.65 1.05 2.7.94 2.75.77 2.79.57 2.82.39 2.82.28 2.81.24 2.8.26 2.78.32 2.74.38 2.71.43 2.69.45 2.67.43 2.67.37 2.7.22 2.76.01 2.84-.2 2.92-.27 2.91-.07 2.66.36 1.75" filter="url(#a)"/><path d="m56.51-54.56 1.03 1.09 1.77 1.92 1.91 2.14 1.72 2.17 1.54 2.23 1.51 2.35 1.59 2.47 1.67 2.53 1.68 2.53 1.65 2.48 1.65 2.42 1.7 2.42 1.78 2.46 1.88 2.55 1.94 2.67 1.9 2.79 1.79 2.88 1.64 2.94 1.51 2.95 1.44 2.92 1.38 2.86 1.26 2.77 1.12 2.69 1.1 2.63 1.38 2.57 1.73 2.52 1.34 2.41-.5 1.86M55.05-57.71l1.75 2.14 1.82 2.05 2.09 1.99 2.46 2.04 2.55 2.18 2.47 2.34 2.29 2.47 2.08 2.55 1.84 2.58 1.64 2.61 1.63 2.62 1.83 2.66 2.21 2.71 2.66 2.76 3.04 2.79 3.29 2.82 3.38 2.82 3.31 2.82 3.12 2.8 2.78 2.78 2.37 2.75 1.94 2.73 1.62 2.7 1.58 2.69 1.87 2.7 2.35 2.72 2.65 2.77 2.5 2.82 1.91 2.85 1.23 2.82.8 2.71.37 2.55-.33 2.42 1.65 2.2" filter="url(#a)"/><path d="m53.19-60.06 3.32 3.74 2.62 2.45 2.15 2.19 1.71 2.17 1.5 2.18L66-45.09l1.54 2.35 1.42 2.45 1.17 2.52.88 2.52.68 2.47.65 2.42.79 2.4 1.03 2.45 1.29 2.54 1.49 2.65 1.58 2.78 1.5 2.88 1.27 2.96.97 2.97.69 2.94.58 2.86.65 2.78.84 2.68.89 2.61.77 2.49.11 2.34" filter="url(#a)"/><path d="m53.07-60.46 4.5 2.45 3.22 2.22 1.02 2.08.47 2 .75 2.04 1.16 2.14 1.55 2.28 1.96 2.42 2.44 2.51 2.85 2.55 3.03 2.56 2.91 2.56 2.51 2.6 2.04 2.65 1.66 2.72 1.54 2.78 1.64 2.81 1.8 2.8 1.79 2.79 1.5 2.82 1.02 2.86.77 2.75 1.23 2.42 2 1.99" filter="url(#a)"/><path d="m51.69-62.64 2.59 3.04 1.87 2.93 1.41 2.52 1.26 2.29 1.29 2.2 1.37 2.18 1.44 2.23 1.42 2.33 1.32 2.44 1.18 2.5 1 2.51.89 2.47.84 2.39.87 2.36.95 2.4 1.02 2.48 1.07 2.62 1.07 2.76 1.05 2.88.97 3 .86 3.07.65 3.01.42 2.8.8 3.02" filter="url(#a)"/><path d="m51.69-62.64 2.43 3.05 3.28 2.94 4.23 2.52 4.85 2.29 4.59 2.21 3.56 2.2 2.29 2.25 1.35 2.34.95 2.44 1.06 2.5 1.41 2.51 1.89 2.47 2.48 2.41 3.25 2.4 4.14 2.42 4.95 2.52 5.41 2.64 5.41 2.77 4.99 2.89 4.33 2.97 3.54 3 2.59 2.97 1.7 2.87 1.27 2.77 1.49 2.7 2.94 2.63" filter="url(#a)"/><path d="m51.67-62.27 1.28.83 4 2.23 5.01 2.53 3.81 2.46 2.18 2.33 1.47 2.26 1.81 2.24 2.6 2.29L77-42.73l3.22 2.45 2.82 2.49 2.24 2.51 1.76 2.48 1.53 2.45 1.55 2.45 1.77 2.5 2.14 2.57 2.64 2.68 3.25 2.79 3.86 2.87 4.31 2.93 4.41 2.95 4.11 2.92 3.61 2.86 3.14 2.79 2.85 2.71 2.6 2.65 2.05 2.59 1.28 2.55 1.07 2.55 2.1 2.63 3.56 3.27" filter="url(#a)"/><path d="m49.79-64.93 2.34 1.91 3.01 2.35 3.73 2.37 3.42 2.26 2.62 2.15 1.88 2.09 1.39 2.12 1.1 2.2.92 2.3.85 2.42.88 2.5 1 2.55 1.21 2.58 1.44 2.6 1.67 2.64 1.86 2.68 2.02 2.74 2.21 2.78 2.4 2.82 2.58 2.82 2.69 2.82 2.63 2.81 2.43 2.79 2.09 2.75 1.61 2.71L100.8.5l.43 2.67.12 2.6.69 2.26 2.18 1.29" filter="url(#a)"/><path d="m48.92-66.11 3.63 2.57 2.53 2.02 1.56 2.28 1.79 2.42 2.46 2.4 2.76 2.31 2.41 2.25 1.65 2.22.95 2.26.66 2.33.9 2.43 1.47 2.49 2.1 2.5 2.51 2.47 2.6 2.4 2.4 2.36 2.09 2.39 1.88 2.47 1.88 2.61 2.03 2.75 2.03 2.89 1.63 3.03.86 3.15.38 3.02 2.03 2.06" filter="url(#a)"/><path d="m48-66.88 2.07 1.46 2.16 1.85 1.52 2.03 1.27 2.24 1.4 2.36 1.75 2.36 2.13 2.31 2.39 2.24 2.39 2.22 2.12 2.24 1.7 2.31 1.35 2.42 1.21 2.49 1.31 2.52 1.59 2.47 1.92 2.38 2.11 2.3 2.1 2.3 1.81 2.42 1.41 2.6 1.2 2.71 1.57 2.61 1.57 2.44" filter="url(#a)"/><path d="m48-66.88 2.66 1.48 2.43 1.89 1.79 2.07 2.14 2.27 2.92 2.38 3.5 2.38 3.54 2.32 3.07 2.29 2.3 2.27 1.49 2.31.88 2.36.56 2.44.53 2.48.74 2.5 1.1 2.47 1.52 2.46 1.93 2.45 2.26 2.48 2.48 2.57 2.55 2.66 2.52 2.78 2.47 2.88 2.49 2.94 2.68 2.97 3.01 2.94 3.37 2.88 3.66 2.79 3.86 2.71 4 2.65 3.96 2.59 3.33 2.65 2.47 2.95" filter="url(#a)"/><path d="m46.81-68.34 6.8 1.39 5.67 1.64 1.15 1.85-.63 2.07-.19 2.24 1.01 2.34 2.1 2.36 2.74 2.33 2.95 2.29 2.81 2.3 2.42 2.32 1.89 2.38 1.39 2.44 1.06 2.47 1 2.49 1.24 2.49 1.69 2.46L84.17-28l2.8 2.51 3.21 2.59 3.39 2.68 3.33 2.78 3.04 2.87 2.61 2.93 2.19 2.94 1.92 2.93 1.93 2.87 2.18 2.8 2.52 2.72 2.73 2.66 2.76 2.6 2.67 2.56 2.71 2.55 3.21 2.64 3.06 3.28" filter="url(#a)"/><path d="m46.81-68.34 1.21 1.39 1.45 1.62 1.69 1.84 2.01 2.06 2.25 2.23 2.26 2.34 2.04 2.35 1.78 2.32 1.61 2.29 1.57 2.27 1.58 2.31 1.56 2.36 1.47 2.43 1.34 2.48 1.26 2.49 1.25 2.47 1.29 2.45 1.35 2.44 1.37 2.46 1.32 2.55 1.23 2.65 1.13 2.78 1.02 2.88.88 2.97.71 2.99.58 2.97.58 2.89.73 2.79.95 2.72 1.01 2.64.37 2.58M45.08-70.4l3.27 1.8 2.67 1.66 2.02 1.84 2.31 2.04 2.6 2.19 2.44 2.23 2.05 2.2 1.78 2.16 1.81 2.11 2.05 2.12 2.35 2.17 2.59 2.27 2.7 2.37 2.68 2.47 2.52 2.52 2.28 2.55 2.05 2.55 1.95 2.57 2.05 2.62 2.3 2.73 2.44 2.84 2.13 2.88 1.36 2.73.73 2.34 1.76 2.04" filter="url(#a)"/><path d="m43.06-72.32 5.28 2.96 2.72 2.05.99 1.83.71 1.88 1.13 2.04 1.65 2.19 1.99 2.29 2.1 2.32 2.09 2.3 2.06 2.26 2.03 2.23 2.02 2.25 1.98 2.32 1.94 2.41 1.86 2.49 1.77 2.53 1.65 2.49 1.54 2.37 1.47 2.28 1.46 2.27 1.43 2.4 1.34 2.66 1.26 2.83 1.02 2.47" filter="url(#a)"/><path d="m43.71-71.44 1.63 1.33 1.94 1.55 2.06 1.69 2.24 1.88 2.68 2.06 3.16 2.17 3.35 2.22 3.17 2.21 2.82 2.19 2.6 2.16 2.77 2.19 3.35 2.25 4.19 2.32 5.04 2.41 5.59 2.48 5.66 2.54 5.17 2.58 4.26 2.62 3.11 2.66 2.04 2.7 1.28 2.74 1.04 2.79 1.35 2.82 2.11 2.82 3.02 2.83 3.69 2.82 3.83 2.8 3.41 2.76 2.8 2.73 2.58 2.7 3.12 2.67 4.17 2.64 4.89 2.65 4.53 2.7 3.09 2.89 1.66 2.47" filter="url(#a)"/><path d="m43.71-71.44 1.64 1.32 1.69 1.55 1.9 1.69 2.57 1.87 3.24 2.05 3.45 2.17 3.16 2.21 2.69 2.21 2.43 2.18 2.57 2.15 3.06 2.18 3.67 2.23 4.17 2.31 4.38 2.4 4.21 2.48 3.66 2.53 2.85 2.57 1.93 2.61 1.13 2.64.65 2.69.63 2.74 1.08 2.79 1.79 2.81 2.47 2.83 2.81 2.83 2.64 2.82 1.99 2.81 1.17 2.76.69 2.71 1.01 2.7 2.34 2.75 3.73 2.86 2.29 2.83" filter="url(#a)"/><path d="m41.52-73.7 2.79 1.87 3.14 1.62 3.85 1.62 4.08 1.73 3.65 1.88 3.26 2.04 3.2 2.15 3.26 2.2 3.11 2.2 2.67 2.18 2.2 2.17 1.94 2.2 2.02 2.24 2.34 2.32 2.81 2.41 3.32 2.47 3.85 2.54 4.42 2.58 4.93 2.61 5.2 2.66 5.07 2.7 4.48 2.74 3.59 2.79 2.78 2.82 2.4 2.83 2.59 2.83 3.27 2.82 4.01 2.8 4.34 2.76 3.94 2.73 2.79 2.7 1.37 2.67.62 2.63 1.42 2.58 2.87 2.72-.15 4.06" filter="url(#a)"/><path d="m41.35-73.84 1.11.94 2.23 1.57 3.1 1.86 3.72 1.89 4.02 1.89 3.82 1.92 3.22 2.02 2.54 2.16 2.14 2.25 2.23 2.3 2.73 2.29 3.52 2.24 4.41 2.21 5.17 2.21 5.51 2.26 5.22 2.39 4.22 2.55 2.85 2.65 1.78 2.61 1.65 2.39 2.39 2.05 4.23 2.05M38.21-76.78l2.27 2.15 1.7 1.64 1.74 1.74 1.78 1.85 1.74 1.9 1.65 1.93 1.57 2 1.53 2.09 1.5 2.19 1.48 2.26 1.43 2.3 1.38 2.3 1.32 2.3 1.26 2.3 1.21 2.33 1.14 2.37 1.07 2.43.98 2.46.89 2.49.8 2.47.71 2.46.66 2.44.62 2.48.6 2.54.59 2.65.58 2.78.55 2.89.51 2.98.44 3.02.35 2.99.25 2.91.16 2.79.08 2.73v2.66" filter="url(#a)"/><path d="m38.21-76.78 5.54 2.13 3.16 1.62 1.57 1.72 1.33 1.83 1.7 1.87 2.31 1.9 3.07 1.96 3.84 2.04 4.44 2.16L70-57.3l5.06 2.29 5.26 2.29 5.41 2.26 5.36 2.24 4.99 2.25 4.34 2.31 3.64 2.41 3.25 2.51 3.36 2.57 3.91 2.53 4.52 2.37 4.6 2.19 3.76 2.08 2.67 2.23 3.86 2.85" filter="url(#a)"/><path d="m37.42-77.41 2.84 1.65 2 1.84 1.92 1.79 2.09 1.71 2.47 1.7 2.99 1.76 3.52 1.87 3.93 2 4.19 2.1 4.26 2.16 4.16 2.18 3.94 2.16 3.65 2.15 3.41 2.17 3.27 2.21 3.26 2.28 3.42 2.38 3.73 2.46 4.19 2.52 4.71 2.55 5.16 2.58 5.33 2.6 5.01 2.66 4.16 2.73 2.94 2.82 1.73 2.85 1.11 2.78 1.7 2.67 3.68 2.82 5.41 3.85" filter="url(#a)"/><path d="m36.36-78.3 3.82 1.76 4.05 1.77 2.86 1.7 2.14 1.76 2.15 1.83 2.65 1.88 3.27 1.91 3.73 1.98 3.99 2.07 4.14 2.17 4.29 2.24 4.48 2.29 4.61 2.29 4.58 2.28 4.24 2.27 3.53 2.29 2.55 2.35 1.47 2.41.59 2.49.2 2.51.45 2.49 1.23 2.41 2.27 2.34 3.24 2.33 3.86 2.44 4.08 2.61 3.73 2.72 2.89 2.65 3.73 2.46m-89.61-65-.89 1.31 1.97 1.61 2.53 1.75 2.08 1.74 1.42 1.72.93 1.72.71 1.78.77 1.89.97 1.99 1.22 2.1 1.41 2.15 1.48 2.17 1.42 2.17 1.27 2.16 1.09 2.18.89 2.22.7 2.29.5 2.38.33 2.46.17 2.52.05 2.56-.01 2.58-.04 2.62-.03 2.67-.03 2.74-.02 2.8-.03 2.84-.07 2.81-.17 2.78-.34 2.88-.7 3.18-1.33 3.18" filter="url(#a)"/><path d="m35.57-78.6 7.24 1.3 1.91 1.6.65 1.74.71 1.74 1.25 1.71 1.97 1.71 2.64 1.76 3.13 1.87 3.33 1.98 3.28 2.09 3.08 2.15 2.83 2.16 2.6 2.16 2.42 2.14 2.34 2.14 2.39 2.19 2.59 2.26 2.89 2.37L86-41.07l3.37 2.52L92.79-36l3.43 2.55 3.52 2.55 3.6 2.58 3.32 2.73 2.31 2.96 1.14 3.24 2.59 3.61" filter="url(#a)"/><path d="m34.27-79.92 1.56 1.26 2.64 1.39 3.83 1.57 4.1 1.69 3.53 1.71 3.06 1.7 3.22 1.7 3.9 1.76 4.62 1.86 5.01 1.96 4.93 2.08 4.56 2.14 4.07 2.16 3.68 2.15 3.53 2.12 3.63 2.12 3.9 2.15 4.14 2.23 4.11 2.35 3.71 2.47 3.19 2.56 2.99 2.57 3.47 2.53 4.34 2.44 4.46 2.21 3.1 1.4" filter="url(#a)"/><path d="m34.27-79.92 2.03 1.27 1.87 1.4 1.96 1.59 2.18 1.69 2.26 1.72 2.22 1.71 2.17 1.73 2.2 1.79 2.27 1.88 2.27 1.99 2.16 2.08 2 2.14 1.86 2.16 1.82 2.16 1.89 2.16 1.97 2.17 1.99 2.21 1.88 2.28 1.64 2.38 1.35 2.45 1.1 2.52.98 2.56 1.05 2.57 1.24 2.59 1.5 2.65 1.73 2.74 1.8 2.85 1.69 2.9 1.39 2.75 1.15 2.37 1.74 2.06" filter="url(#a)"/><path d="m33.11-80.6 2.71 1.58 2.47 1.28 2.15 1.41 1.84 1.55 1.7 1.66 1.74 1.74 1.85 1.81 2.01 1.86 2.18 1.91 2.35 1.98 2.46 2.06 2.51 2.16 2.49 2.23L64-55.1l2.38 2.29 2.33 2.27 2.3 2.27 2.22 2.28 2.13 2.34 2.03 2.41 2.01 2.5 2.11 2.55 2.33 2.5 2.56 2.4 2.67 2.27 2.48 2.22 2.1 2.39 1.96 2.8 2.84 3.35" filter="url(#a)"/><path d="m33.11-80.6 2.01 1.58 1.13 1.26 1.02 1.4 1.2 1.54 1.28 1.64 1.22 1.73 1.14 1.8 1.17 1.84 1.29 1.89 1.42 1.95 1.47 2.04 1.38 2.14 1.19 2.23.93 2.28.61 2.29.27 2.25-.04 2.23-.31 2.21-.46 2.26-.52 2.39-.5 2.57-.37 2.72-.01 2.72.37 2.4-.76 1.61" filter="url(#a)"/><path d="m33.11-80.6 2.27 1.58 1.59 1.27 1.64 1.41 1.76 1.54 1.82 1.65 1.84 1.74 1.83 1.8 1.78 1.85 1.72 1.9 1.67 1.97 1.65 2.05 1.64 2.15 1.65 2.23 1.6 2.28 1.53 2.28 1.41 2.27 1.28 2.24 1.16 2.26 1.1 2.31 1.08 2.41 1.09 2.52 1.09 2.61 1.05 2.57.98 2.39.93 2.12.91 1.92.61 1.75M33.11-80.6l2.63 1.57 3.59 1.26 4.53 1.4 4.11 1.54 3.47 1.64 3.41 1.72 3.64 1.79 3.53 1.84 2.9 1.89 2.04 1.94 1.48 2.03 1.57 2.14 2.28 2.22 3.33 2.29 4.33 2.28 5.02 2.26 5.32 2.21 5.34 2.19 5.2 2.22 4.82 2.36 4.03 2.59 2.87 2.83 2.25 2.95 4.81 2.68" filter="url(#a)"/><path d="m32.18-81.32 1.95 1.33 1.99 1.33 2.64 1.44 3.82 1.58 4.88 1.67 5.3 1.71 5.08 1.72 4.57 1.75 4.15 1.8 4.01 1.9 4.06 1.99 4.07 2.08 3.74 2.13 3.01 2.17 2.01 2.17 1.03 2.17.44 2.19.34 2.24.73 2.31 1.37 2.38 2.02 2.46 2.56 2.52 3 2.56 3.47 2.59 4.08 2.63 4.86 2.68 5.66 2.74 6.24 2.8 6.33 2.84 5.75 2.83 4.54 2.83 2.96 2.87 1.55 2.99 1.07 2.93 1.89 2.38" filter="url(#a)"/><path d="m31.81-81.41 3.12 1.12 3.25 1.26 3.47 1.32 3.91 1.43 4.11 1.56 3.8 1.66 3.23 1.75 2.83 1.82 2.78 1.87 3.01 1.94 3.26 2.01 3.32 2.09 3.09 2.17 2.67 2.23 2.17 2.27 1.77 2.3 1.65 2.3L85.08-48l2.31 2.34 2.96 2.38 3.58 2.42 3.97 2.47 4.01 2.48 3.7 2.48 3.2 2.46 2.71 2.45 2.53 2.47 2.72 2.54 3.17 2.64 3.56 2.78 3.56 2.9 3.18 3 2.84 3.05 3 3.03 3.69 2.9 4.4 2.81 5.14 2.71" filter="url(#a)"/><path d="m31.81-81.41 1.72 1.1 2.04 1.23 2.44 1.29 2.78 1.4 2.86 1.51 2.74 1.62 2.67 1.71 2.75 1.78 2.99 1.82 3.32 1.88 3.68 1.93 4.04 2.01 4.29 2.12 4.28 2.23 3.94 2.29 3.31 2.3 2.62 2.26 2.22 2.19 2.39 2.12 3.34 2.11 4.81 2.25 5.69 2.56 3.51 2.2" filter="url(#a)"/><path d="m29.67-82.98 2.84 1.36 1.89 1.27 1.56 1.27 1.54 1.34 1.61 1.43 1.69 1.54 1.78 1.64 1.84 1.72 1.89 1.8 1.89 1.86 1.86 1.92 1.8 1.99 1.7 2.06 1.59 2.16 1.49 2.22 1.4 2.27 1.35 2.28 1.35 2.28 1.36 2.29 1.4 2.3 1.41 2.35 1.38 2.42 1.29 2.49 1.17 2.53 1.04 2.5.95 2.41.92 2.32.92 2.31.91 2.43.8 2.67.69 2.85.73 2.5M19.96-87.58l.72 1.02 1.53 1.09 2.31 1.14 2.36 1.22 2.07 1.27 1.7 1.29 1.36 1.33 1.08 1.37.84 1.43.62 1.53.42 1.6.21 1.7.03 1.76-.08 1.84-.1 1.89-.02 1.97.18 2.05.4 2.13.53 2.21.47 2.27.18 2.29-.21 2.27-.56 2.25-.73 2.24-.76 2.29-.77 2.4-.95 2.57-1.36 2.73-1.87 2.74-2.22 2.43-2.83 1.63" filter="url(#a)"/><path d="m19.96-87.58 2.06 1.03 2.53 1.08 2.52 1.16 2.39 1.22 2.24 1.28 2.05 1.3 1.9 1.33 1.77 1.38 1.73 1.45 1.75 1.53 1.81 1.62 1.87 1.71 1.9 1.78 1.91 1.84 1.88 1.92 1.85 1.98 1.79 2.07 1.72 2.14 1.66 2.21 1.57 2.26 1.5 2.28 1.42 2.29 1.38 2.29 1.33 2.3 1.3 2.35 1.26 2.43 1.23 2.5 1.17 2.54 1.1 2.52 1.01 2.42.93 2.29.87 2.25.85 2.39.85 2.81.81 3.37" filter="url(#a)"/><path d="m19.64-87.37 3.18.98 2.36.95 2.33.92 2.36.95 2.42 1.02 2.53 1.11 2.62 1.22 2.61 1.31 2.56 1.41 2.51 1.49 2.6 1.58 2.88 1.63 3.26 1.66 3.57 1.68 3.67 1.71 3.47 1.79 3.04 1.9 2.61 2.04 2.46 2.17 2.7 2.24 3.27 2.24 3.68 2.12 3.56 1.94 4.05 1.6" filter="url(#a)"/><path d="m18.02-87.84 1.74.51 1.97.84 2.11 1.01 2.11 1.11 2.02 1.19 1.87 1.25 1.67 1.27 1.44 1.3 1.22 1.35 1.06 1.41 1 1.49 1.06 1.57 1.21 1.67 1.38 1.74 1.46 1.8 1.35 1.85 1.07 1.89.68 1.98.34 2.1.16 2.24.2 2.35.39 2.35.56 2.31.6 2.42.43 3.19" filter="url(#a)"/><path d="m15.96-88.82 1.94.77 1.99.73 2.12.87 2.2.99 2.23 1.1 2.19 1.18 2.1 1.24 1.99 1.27 1.89 1.31 1.8 1.35 1.75 1.42 1.72 1.49 1.73 1.59 1.73 1.66 1.72 1.74 1.7 1.81 1.65 1.85 1.61 1.92 1.56 2 1.54 2.11 1.53 2.23 1.52 2.32 1.46 2.36L59-51.19l1.28 2.31 1.15 2.26.65 1.57" filter="url(#a)"/><path d="m15.96-88.82 3.81.77 2.29.73 1.77.86 1.97.99 2.42 1.1 2.77 1.18 2.83 1.23 2.66 1.27 2.4 1.31 2.26 1.35 2.28 1.41 2.47 1.49 2.68 1.57 2.84 1.67 2.85 1.73 2.7 1.8 2.48 1.85 2.29 1.9L64-62.62l2.55 2.1 3.01 2.24 3.4 2.34 3.46 2.36 3.22 2.31 3.06 2.42 3.79 3.2" filter="url(#a)"/><path d="m15.96-88.82 1.95.76 1.96.73 2.09.85 2.2.99 2.25 1.09 2.21 1.17 2.13 1.22 2.01 1.26 1.9 1.29 1.82 1.33 1.79 1.4 1.78 1.46 1.8 1.56 1.81 1.65 1.82 1.73 1.78 1.79L49-66.71l1.64 1.83 1.54 1.89 1.51 2.03 1.62 2.34 1.82 2.58 1.49 1.65" filter="url(#a)"/><path d="m11.6-89.91 5.01 1.01 3.28.76 1.9.8 1.57.88 1.78.91 2.19.93 2.74.97 3.36 1.04 3.85 1.1 4.09 1.2 4.01 1.29 3.68 1.39 3.32 1.48 3.08 1.56 3.07 1.62 3.29 1.65 3.63 1.67 3.98 1.69 4.29 1.76 4.66 1.87 5.18 2.03 5.8 2.21 5.92 2.33 4.97 2.31 4.62 2.2M11.72-89.78l-.31.3-.06.62.97.71 1.65.79 1.78.85 1.66.9 1.55.92 1.51.96 1.46 1.01 1.27 1.08.77 1.18-.04 1.26-1.07 1.36-2.02 1.46-2.6 1.55-2.56 1.63-1.86 1.65-.85 1.64-.27 1.6-.96 1.59-2.69 1.65-2.35 1.62" filter="url(#a)"/><path d="m11.72-89.78 1.57.31 2.63.63 2.81.74 3.27.81 3.7.88 3.68.91 3.2.96 2.61 1 2.2 1.07 2.08 1.15 2.17 1.24 2.41 1.33 2.68 1.42 3 1.5 3.35 1.58 3.71 1.64 4.01 1.68 4.14 1.75 4.02 1.8 3.67 1.88 3.16 1.96 2.66 2.03 2.33 2.11 2.29 2.14 2.6 2.15 3.22 2.16 4.03 2.16 4.89 2.19 5.63 2.26 6.11 2.36 6.23 2.48 6.05 2.56 5.85 2.6 5.77 2.56 5.49 2.47 4.21 2.25 3.45 1.42" filter="url(#a)"/><path d="m11.72-89.78 1.43.31 2.45.63 2.55.73 2.53.8 2.45.87 2.43.92 2.5.94 2.71 1 2.92 1.05 3.07 1.14 3.1 1.22 3.12 1.32 3.21 1.4 3.42 1.5 3.74 1.57 3.97 1.62 4.02 1.67 3.8 1.72 3.36 1.77 2.87 1.85 2.57 1.94 2.65 2.04 3.12 2.12 3.88 2.17 4.59 2.17 4.98 2.12 4.88 2.07 4.42 2.06 4.08 2.12 4.24 2.27 4.56 2.41 3.8 2.17" filter="url(#a)"/><path d="m8-90.4 1.6.46 1.32.5 2.04.61 2.37.71 2.36.79 2.14.85 1.84.9 1.56.93 1.36.98 1.27 1.03 1.23 1.11 1.19 1.2 1.09 1.29.9 1.38.61 1.48.24 1.55-.19 1.62-.65 1.65-1.06 1.67-1.39 1.7-1.6 1.76-1.66 1.88-1.61 2.03-1.33 2.22-.75 2.33-.3 2.32-1.44 2.2" filter="url(#a)"/><path d="m8.8-90.39 2.18.42 1.9.44 1.99.46 2.17.53 2.31.62 2.5.74 2.66.85 2.78.96 2.78 1.07 2.65 1.15 2.47 1.22 2.26 1.27 2.12 1.32 2.03 1.38 2.05 1.45L45.78-75l2.26 1.6 2.42 1.68 2.56 1.75 2.66 1.82 2.69 1.89 2.7 1.97 2.67 2.04 2.64 2.13L69-57.91l2.59 2.27 2.54 2.29 2.44 2.28 2.27 2.25 2.05 2.24 1.88 2.27 1.94 2.39 2.36 2.6 3 2.85 3.28 2.98 2.97 2.73" filter="url(#a)"/><path d="m5.53-90.8 2.7.42 2.78.45 2.74.53 2.7.62 2.59.71 2.4.79 2.18.85 1.97.91 1.85.94 1.83 1.01 1.88 1.06 2 1.14 2.12 1.23 2.24 1.32 2.33 1.41 2.39 1.49 2.43 1.56 2.41 1.63 2.36 1.68 2.27 1.73 2.18 1.79 2.11 1.86 2.08 1.95 2.11 2.03 2.15 2.11 2.21 2.16 2.25 2.16 2.26 2.14 2.29 2.11 2.33 2.14 2.34 2.2 2.32 2.35 2.2 2.53 1.97 2.7 1.69 2.64 1.39 1.61" filter="url(#a)"/><path d="m5.53-90.8 3.15.42 2.45.44 2.2.52 2.18.61 2.2.7 2.21.78 2.23.84 2.26.89 2.32.94 2.38.97 2.4 1.04 2.39 1.11 2.31 1.2 2.22 1.29 2.15 1.38 2.12 1.47 2.17 1.55 2.26 1.62 2.34 1.65 2.37 1.67L54.22-68l2.34 1.76 2.3 1.88 2.3 2.03 2.34 2.22 2.42 2.33 2.55 2.32 3.02 2.21" filter="url(#a)"/><path d="m4.84-90.73 3.28.35 2.89.4 2.79.42 2.48.46 2.06.51 1.78.59 1.76.69 1.95.81 2.27.92 2.64 1.03 3.06 1.11 3.5 1.18 3.93 1.24 4.22 1.26 4.24 1.31 3.99 1.35 3.52 1.42 3.08 1.51 2.88 1.62 3.01 1.74 3.34 1.84 3.3 1.73 1.72 1.13" filter="url(#a)"/><path d="m1.19-90.81 1.71.05 2.1.17 2.14.27 2.03.36 1.86.4 1.62.45 1.39.51 1.27.6 1.29.68 1.44.8 1.68.9 1.9 1.01 2.05 1.11 2.05 1.17 1.9 1.23 1.64 1.26 1.34 1.3 1.04 1.34.79 1.42.55 1.49.37 1.6.38 1.78.68 2.06.7 1.97" filter="url(#a)"/><path d="m1.19-90.81 1.87.05 2.4.17 2.56.29 2.59.36 2.59.41 2.6.47 2.6.54 2.57.62 2.49.72 2.41.83 2.36.94 2.37 1.03 2.48 1.12 2.65 1.19 2.85 1.25 3.05 1.31 3.18 1.35 3.2 1.42 3.11 1.5 2.94 1.57 2.74 1.66 2.6 1.73 2.57 1.79 2.67 1.86 2.92 1.91 3.2 2 3.45 2.11 3.58 2.24 3.49 2.35 3.17 2.38 2.77 2.33 2.83 2.44 3.57 3.22" filter="url(#a)"/><path d="m1.19-90.81 1.79.05 2.39.17 2.57.29 2.42.35 2.17.41 1.99.47 1.92.53 1.95.61 2.04.71 2.15.82 2.24.93 2.29 1.03 2.3 1.12 2.28 1.18 2.22 1.25 2.16 1.29 2.1 1.34 2.04 1.4 1.98 1.48 1.96 1.55 1.97 1.65 2.01 1.73 2.05 1.79 2.05 1.83 1.97 1.86 1.82 1.91 1.72 2.05 1.8 2.35 2.05 2.59 1.7 1.68" filter="url(#a)"/></g><path fill="none" stroke="#000" stroke-linejoin="round" stroke-width="3" d="M-10.88 7.81Q8.61 17.385-1.135-4.604" filter="url(#a)"/><path fill="#D77F8C" stroke="#000" stroke-linejoin="round" stroke-width="3" d="m-62.65 38.16 1.77 1.78 1.73 1.74 1.71 1.67 1.69 1.63 1.66 1.57 1.63 1.52 1.61 1.47 1.58 1.42 1.56 1.37 1.53 1.32 1.51 1.28 1.49 1.22 1.47 1.18 1.45 1.13 1.42 1.08 1.41 1.04 1.38.99 1.37.94 1.35.9 1.32.86 1.32.82 1.29.77 1.28.73 1.26.69 1.24.65 1.23.61 1.21.56 1.2.53 1.19.49 1.17.45 1.17.41 1.14.38 1.14.34 1.13.3 1.11.27 1.11.23 1.09.2 1.09.17 1.08.13 1.07.1 1.06.06 1.06.04h1.04l1.05-.03 1.03-.05 1.04-.09 1.03-.12 1.02-.14 1.02-.17 1.02-.2 1.01-.23 1.02-.25 1.01-.27 1.01-.31 1.01-.32 1.02-.35 1.01-.38 1.01-.4 1.02-.41 1.01-.45 1.03-.46 1.02-.48 1.03-.5 1.03-.53 1.04-.54 1.04-.56 1.05-.58 1.05-.59 1.06-.61 1.07-.63 1.08-.64 1.08-.66 1.1-.68 1.1-.68 1.12-.71 1.12-.71 1.14-.73 1.14-.73 1.16-.75 1.17-.76 1.19-.77 1.2-.78 1.21-.79 1.23-.8 1.24-.81 1.26-.81 1.27-.82 1.29-.82 1.31-.84 1.33-.83 1.34-.85 1.37-.84 1.38-.85 1.4-.85 1.42-.86 1.45-.85 1.46-.86 1.49-.86 1.51-.86-1.22-.01-1.21-.01-1.22-.01h-1.22l-1.21-.01-1.22-.01-1.22-.01-1.21-.01-1.22-.01h-1.22l-1.21-.01-1.22-.01-1.22-.01-1.21-.01-1.22-.01-1.21-.01-1.22-.01-1.22-.01-1.21-.01-1.22-.01-1.22-.01-1.21-.01-1.22-.01-1.22-.01-1.21-.01-1.22-.01-1.21-.02-1.22-.01-1.22-.01-1.21-.01-1.22-.02-1.22-.01-1.21-.01-1.22-.02-1.22-.01-1.21-.02-1.22-.01-1.21-.02-1.22-.01-1.22-.02-1.21-.02-1.22-.02-1.22-.01-1.21-.02-1.22-.02-1.22-.02-1.21-.02-1.22-.02-1.21-.02-1.22-.02-1.22-.02-1.21-.03-1.22-.02-1.22-.02-1.21-.03-1.22-.02-1.22-.03-1.21-.02-1.22-.03-1.21-.03-1.22-.03-1.22-.03-1.21-.02-1.22-.03-1.22-.04-1.21-.03-1.22-.03-1.22-.03-1.21-.04-1.22-.03-1.22-.03-1.21-.04-1.22-.04-1.21-.03-1.22-.04-1.22-.04-1.21-.04-1.22-.04-1.22-.04-1.21-.05-1.22-.04-1.22-.05-1.21-.04-1.22-.05-1.21-.04-1.22-.05-1.22-.05-1.21-.05-1.22-.05-1.22-.05-1.21-.06-1.22-.05-1.22-.05-1.21-.06-1.22-.06-1.21-.05-1.22-.06-1.22-.06-1.21-.06" filter="url(#a)"/></svg>