<svg xmlns="http://www.w3.org/2000/svg" width="500" height="500" viewBox="-100 -100 200 200"><defs><clipPath id="c"><path d="m27.79-2.12-.18-.28-.24-.28-.28-.27-.33-.26-.38-.26-.41-.26-.45-.25-.49-.25-.52-.24-.55-.23-.59-.23-.61-.22-.63-.22-.66-.21-.68-.2-.84-.26-.86-.25-.88-.24-.89-.23-.92-.22-.92-.21-.94-.2-.95-.18-.96-.17-.96-.16-.97-.15-.97-.13-.97-.12-.98-.11-.97-.09-.97-.08-.97-.07-.96-.05-.96-.04L2-8.77l-.94-.01H.13l-.92.01-.91.03-.9.04-.88.05-.87.06-.85.07-.84.09-.82.09-.81.11-.78.11-.77.13-.75.13-.73.15-.71.15-.69.16-.67.16-.65.18-.63.18-.61.18-.58.2-.57.19-.54.21-.52.2-.5.21-.48.22-.46.21-.43.22-.41.22-.4.22-.37.23-.36.23-.34.23-.32.24-.29.23-.28.24-.26.24-.24.25-.22.24-.21.25-.18.25-.16.25-.15.25-.23 4.04.45.23.47.23.48.22.5.23.51.23.52.23.53.22.54.23.56.22.56.22.58.22.59.22.6.21.6.21.62.21.64.21.64.2.66.2.67.2.68.19.69.19.7.18.72.17.72.16.72.16.74.14.74.14.75.12.76.12.76.1.77.09.77.08.78.06.78.05.78.04.79.02.79.01.8-.01.8-.02.79-.03.81-.05.8-.07.81-.08.8-.09.81-.11.81-.12.81-.14.81-.15.81-.16.81-.18.81-.19.81-.2.81-.21.81-.22.8-.23.81-.24.79-.25.8-.26.79-.26.78-.27.78-.28.76-.28.76-.28.74-.29.57-.25.55-.26.53-.26.51-.27.49-.26.46-.28.43-.28.41-.28.37-.28.34-.29.31-.29.27-.29.22-.3.18-.3.14-.3"/></clipPath><clipPath id="b"><path d="m-28.87-2.37.31-.32.36-.31.4-.31.44-.31.46-.3.5-.3.53-.3.55-.28.57-.28.6-.28.62-.27.63-.26.65-.26.66-.25.68-.24.88-.3.89-.3.9-.29.89-.27.89-.27.9-.25.89-.24.89-.22.88-.22.88-.19.88-.19.86-.17.87-.15.85-.14.85-.13.84-.11.84-.09.83-.08.82-.06.81-.05.8-.03.8-.01.79-.01.78.02.78.02.76.05.76.05.75.07.74.08.73.1.73.11.72.11.7.13.7.15.69.15.68.16.68.17.66.18.65.18.64.2.63.2.62.21.61.21.59.22.58.22.57.22.56.23.54.23.53.24.51.23.5.24.49.24.48.24.47.24.45.25.44.25.43.25.41.25.41.25.38.25.38.25.36.26.34.25.33.26.57 5.15-.32.27-.34.27-.35.27-.37.27-.39.26-.4.27-.41.27-.43.27-.45.26-.46.27-.47.26-.49.26-.5.26-.52.26-.53.25-.55.25-.56.25-.58.25-.6.25-.61.24-.63.23-.64.23-.66.23-.68.21-.68.21-.71.2-.71.19-.73.18-.74.17-.75.16-.77.14-.77.13-.79.12-.8.1-.81.09-.82.08-.82.06-.84.04-.85.03-.85.01-.86-.01-.86-.02-.88-.05-.87-.05-.89-.08-.88-.09-.9-.11-.89-.13-.9-.14-.9-.17-.9-.17-.9-.2-.89-.21-.9-.22-.9-.24-.89-.26-.88-.27-.88-.28-.88-.29-.86-.31-.85-.31-.85-.33-.82-.33-.82-.34-.64-.28-.63-.28-.61-.29-.59-.29-.56-.3-.54-.31-.52-.31-.48-.31-.45-.32-.42-.32-.39-.32-.35-.33-.3-.33-.27-.33-.22-.34"/></clipPath><filter id="a"><feTurbulence baseFrequency=".05" numOctaves="3" result="noise" type="noise"/><feDisplacementMap in="SourceGraphic" in2="noise" scale="2"/></filter></defs><rect width="100%" height="100%" x="-100" y="-100" fill="#4682B4"/><path fill="#C04000" stroke="#000" stroke-linejoin="round" stroke-width="1.667" d="m79.44 1.16-.38 1.46.03.06-.07 1.11.05.61-.04 2.55-.06 1.37.03 1.3-.63 2.68-.06 1.6-.14.88-.4 3.67-.25 1.07-.25 1.36-.55 2.83.43-2.88-.45 3.05-.07 1 .16-.3-1 3.17-.91 3.32-.15.49-.2.87-.17.87-.73 2.04-1.07 2.31-.04 1.14-.66 1.79-.06-.25-.12.77-1.16 2.52-.5.9-1.2 2.91-.02-.54-.72 2.08.53-.65-2.22 3.63-.06.31-1.11 2.08-1.44 2.18.05.19-1.06 1.82-.35.2-1.94 2.98.57-1.04-.44 1.05-.23.46-2.02 2.31-.35.7-.14.04-1.78 2.07-.85 1.28-.72.84.08-.43-.71 1.26-2.06 1.53-.4.65-1.41 1.34-.87.86-.07.27-1.47 1.67-1.82 1.57-.8.51-1.73 1.11-2.27 2.2 1.22-1.15-3.03 2.1.01.13-.45.26-3.32 2.41.71-.72-1.74.99.24-.06-3 1.49-.31.13-1.88 1.01-1.37.8.81-.44-2.23 1.08-1.94.69-2.15.88-.08.15-.52.09-.04.07-2.4.7.07-.22-3.48 1.2 2.14-.49-3.96.87-1.61.11-1.17.28.68-.07-2.58.42-1.89.54-1.08-.25-.51.26-2.46.18 1.85-.07-3 .08.41-.01-3.28.04-.69.2-1.43-.45-2.77-.08-.03.22-.77-.35-.62.25-.27.03-3.78-.82-2.44-.33.82.13-2.12-.55.42.12-2.47-.25.63.15-1.87-.53-2.63-.81-.64-.24-2.71-1.1-.87-.15 1.17.4-3.16-1.05.38-.32-2.31-.92-1.31-.65-.46-.14-1.1-.44-1.57-.91-2.04-1.01-.22-.48.66.35-1.94-.82-1.61-1.32v.17l-2.97-2.04-1.09-.8-1.26-.98.74.85-2.61-2.27.16-.05-.95-.7-3.11-2.95-1.24-1.23-.61-.67.28.27-1.15-.87-1.78-2.17.67.56-1.04-1.28-1.34-1.09-.98-1.13.18.47-1.5-2.46-.7-1.06-1.8-2.1.05.2-1.26-1.75-1.42-2.38-.01.26-.37-.62-.93-1.67-.8-1.17-.09-.27-.47-.58-1.84-3.71-.32-.35-.78-1.62-.08-.12-.52-1.5-1.28-2.91-.04.22-.39-.63-.8-2.2-.61-1.49-.48-2.47-.43-.27-.95-3.05.02-.25-.26-.79-.98-3.29-.26-.77.09-.17-1.33-4.51-.11-1.12.03-.3-.08.38-.64-4.22-.32-.6.11.69-.18-2.61-.18-.66-.26-1.48-.19-2.95.07 1.1-.47-3.36.08-1.93-.05-2.55-.3-.37-.04-1.76.23-1.29.04-.27-.06-.12.04-2.16.04-.89-.07-3.85.12.67.06-4.08.44-2.98.09-.74.13-2.1.18.06-.17.06.13-1.16.34-2.43.35-2.15.77-3.72-.58 2.27.94-3.86.37-.72-.04-.49.95-3.79.21.62-.26-.16.73-2.63.43-1.32.15-.37.88-2.59.49-.83.45-1.49.91-2.49.26-.36.91-1.45.32-1.04.14-.28 1.28-2.82 1.24-2.35-.26.68.24-.68.13-.72 2-3.7.87-1.12.04-.3 1.79-2.98.79-.8.59-.53.05-.34 1.38-2.04 1.07-1.22.48-.62 1.71-2.12-1.66 1.84 4.05-4.43.11-.32-.25.09 2.34-2.52.64-.66 1.04-1.1.41-.02.8-1.01h-.03l2.14-1.92.11.1.5-.57 3.64-2.64.47-.44 1.38-1.01.46-.19.59-.89.48-.16 1.24-.65 2.09-1.37.44-.3 2.41-1.15-1.32.38 2.94-1.54-.07.28 2.54-1.65.4.24-.1-.29 3.48-1.5 1-.2.83-.13.74-.31 1.45-.57-.97.26 3.03-.87 2.13-.64.24-.15 1.96-.38 1.51-.32-.9.11 3.62-.72 1.57-.02h-.42l.13-.32 2.58.07 2.62-.45 2.31.05-2.51-.05 2.3.11 2.92.08.36-.33 1.17.4.57.08 3.19-.06-.41.21 1.9.16-.49-.38 4.04 1.03.54-.13-2-.43 3.13.87 1.82.2 1.22.34.84.03-.32-.06 1.73.43 1.9.51.89.77.15-.31 3.21 1.45 2.04.56-.44-.1 1.31.56 2.38 1.43 1.07.34 1.79.87-.9-.28 3.35 1.78-.03.05.23-.17 2.18 1.66-1.21-.9 1.25.7 1.9 1.51 1.64 1.25 1.18.69 2.53 2.24-.15-.23.82.91.66.35 1.12.77.78.61 2.05 2.51-.23-.51 1.86 1.85-.31-.15 1.79 2.08.8.55.32.45 2.38 2.75.05.23L58.22-65l.26.66.6.78 1.11 1.06.97 2.25-.26-.92.82 1.18 2.21 3.46.29.7.5 1.2.07-.01.87.98.4 1.43.62.71 1.67 3.57.08-.48.5 1.89.58.04 2 4.87-.61-1.3.9 2.17 1.06 2.71-.45-.65 1.4 4.53-.2-1.48.07.94.7 2.34.94 2.79-.43-1.26 1.06 3.33-.43-1.06.75 3.31.36 1.56.41 1.03.41 1.81.07 1.59.38 2.5.02-1.18.14 1.58.31 2.87.11-.19.28 3.61-.09-.45.21 2.33.44 2.59.02 1.48-.06-.86-.21 4.26.37 1.89-.38 1.46" filter="url(#a)"/><path fill="#fff" d="m-28.87-2.37.31-.32.36-.31.4-.31.44-.31.46-.3.5-.3.53-.3.55-.28.57-.28.6-.28.62-.27.63-.26.65-.26.66-.25.68-.24.88-.3.89-.3.9-.29.89-.27.89-.27.9-.25.89-.24.89-.22.88-.22.88-.19.88-.19.86-.17.87-.15.85-.14.85-.13.84-.11.84-.09.83-.08.82-.06.81-.05.8-.03.8-.01.79-.01.78.02.78.02.76.05.76.05.75.07.74.08.73.1.73.11.72.11.7.13.7.15.69.15.68.16.68.17.66.18.65.18.64.2.63.2.62.21.61.21.59.22.58.22.57.22.56.23.54.23.53.24.51.23.5.24.49.24.48.24.47.24.45.25.44.25.43.25.41.25.41.25.38.25.38.25.36.26.34.25.33.26.57 5.15-.32.27-.34.27-.35.27-.37.27-.39.26-.4.27-.41.27-.43.27-.45.26-.46.27-.47.26-.49.26-.5.26-.52.26-.53.25-.55.25-.56.25-.58.25-.6.25-.61.24-.63.23-.64.23-.66.23-.68.21-.68.21-.71.2-.71.19-.73.18-.74.17-.75.16-.77.14-.77.13-.79.12-.8.1-.81.09-.82.08-.82.06-.84.04-.85.03-.85.01-.86-.01-.86-.02-.88-.05-.87-.05-.89-.08-.88-.09-.9-.11-.89-.13-.9-.14-.9-.17-.9-.17-.9-.2-.89-.21-.9-.22-.9-.24-.89-.26-.88-.27-.88-.28-.88-.29-.86-.31-.85-.31-.85-.33-.82-.33-.82-.34-.64-.28-.63-.28-.61-.29-.59-.29-.56-.3-.54-.31-.52-.31-.48-.31-.45-.32-.42-.32-.39-.32-.35-.33-.3-.33-.27-.33-.22-.34" filter="url(#a)" transform="translate(37.91 -27.95)"/><path fill="#fff" d="m27.79-2.12-.18-.28-.24-.28-.28-.27-.33-.26-.38-.26-.41-.26-.45-.25-.49-.25-.52-.24-.55-.23-.59-.23-.61-.22-.63-.22-.66-.21-.68-.2-.84-.26-.86-.25-.88-.24-.89-.23-.92-.22-.92-.21-.94-.2-.95-.18-.96-.17-.96-.16-.97-.15-.97-.13-.97-.12-.98-.11-.97-.09-.97-.08-.97-.07-.96-.05-.96-.04L2-8.77l-.94-.01H.13l-.92.01-.91.03-.9.04-.88.05-.87.06-.85.07-.84.09-.82.09-.81.11-.78.11-.77.13-.75.13-.73.15-.71.15-.69.16-.67.16-.65.18-.63.18-.61.18-.58.2-.57.19-.54.21-.52.2-.5.21-.48.22-.46.21-.43.22-.41.22-.4.22-.37.23-.36.23-.34.23-.32.24-.29.23-.28.24-.26.24-.24.25-.22.24-.21.25-.18.25-.16.25-.15.25-.23 4.04.45.23.47.23.48.22.5.23.51.23.52.23.53.22.54.23.56.22.56.22.58.22.59.22.6.21.6.21.62.21.64.21.64.2.66.2.67.2.68.19.69.19.7.18.72.17.72.16.72.16.74.14.74.14.75.12.76.12.76.1.77.09.77.08.78.06.78.05.78.04.79.02.79.01.8-.01.8-.02.79-.03.81-.05.8-.07.81-.08.8-.09.81-.11.81-.12.81-.14.81-.15.81-.16.81-.18.81-.19.81-.2.81-.21.81-.22.8-.23.81-.24.79-.25.8-.26.79-.26.78-.27.78-.28.76-.28.76-.28.74-.29.57-.25.55-.26.53-.26.51-.27.49-.26.46-.28.43-.28.41-.28.37-.28.34-.29.31-.29.27-.29.22-.3.18-.3.14-.3" filter="url(#a)" transform="translate(-40.36 -28.6)"/><g fill="none" stroke="#000" transform="translate(37.91 -27.95)"><path stroke-linejoin="round" stroke-width="1.667" d="m-29.02.87-.29-.32-.21-.33-.14-.32-.06-.33-.01-.32.06-.33.12-.32.18-.33.22-.32.28-.32.31-.32.36-.31.4-.31.44-.31.46-.3.5-.3.53-.3.55-.28.57-.28.6-.28.62-.27.63-.26.65-.26.66-.25.68-.24.88-.3.89-.3.9-.29.89-.27.89-.27.9-.25.89-.24.89-.22.88-.22.88-.19.88-.19.86-.17.87-.15.85-.14.85-.13.84-.11.84-.09.83-.08.82-.06.81-.05.8-.03.8-.01.79-.01.78.02.78.02.76.05.76.05.75.07.74.08.73.1.73.11.72.11.7.13.7.15.69.15.68.16.68.17.66.18.65.18.64.2.63.2.62.21.61.21.59.22.58.22.57.22.56.23.54.23.53.24.51.23.5.24.49.24.48.24.47.24.45.25.44.25.43.25.41.25.41.25.38.25.38.25.36.26.34.25.33.26.32.25.3.25.29.26.28.25.25.25.25.25.23.25.22.25.2.25.19.25" filter="url(#a)"/><path stroke-linejoin="round" stroke-width="2.222" d="m-28.27-2.15-.4.31-.33.32-.26.32-.18.32-.12.33-.05.33.01.33.06.34.12.33.17.33.22.34.27.33.3.33.35.33.39.32.42.32.45.32.48.31.52.31.54.31.56.3.59.29.61.29.63.28.64.28.82.34.82.33.85.33.85.31.86.31.88.29.88.28.88.27.89.26.9.24.9.22.89.21.9.2.9.17.9.17.9.14.89.13.9.11.88.09.89.08.87.05.88.05.86.02.86.01.85-.01.85-.03.84-.04.82-.06.82-.08.81-.09.8-.1.79-.12.77-.13.77-.14.75-.16.74-.17.73-.18.71-.19.71-.2.68-.21.68-.21.66-.23.64-.23.63-.23.61-.24.6-.25.58-.25.56-.25.55-.25.53-.25.52-.26.5-.26.49-.26.47-.26.46-.27.45-.26.43-.27.41-.27.4-.27.39-.26.37-.27.35-.27.34-.27.32-.27.31-.26.29-.27.28-.26.26-.26.25-.26.23-.26.22-.25.2-.26.19-.25.17-.25" filter="url(#a)"/><circle cx="-4.539" cy="5.16" r="3.846" clip-path="url(#b)" filter="url(#a)"/><circle cx="-3.299" cy="3.625" r="4.54" clip-path="url(#b)" filter="url(#a)"/><circle cx="-3.589" cy="5.62" r="4.026" clip-path="url(#b)" filter="url(#a)"/><circle cx="-1.469" cy="6.845" r="3.504" clip-path="url(#b)" filter="url(#a)"/><circle cx="-1.849" cy="4.335" r="4.054" clip-path="url(#b)" filter="url(#a)"/><circle cx="-2.504" cy="2.865" r="4.404" clip-path="url(#b)" filter="url(#a)"/><circle cx="-3.004" cy="3.76" r="3.852" clip-path="url(#b)" filter="url(#a)"/><circle cx="-4.029" cy="4.52" r="4.896" clip-path="url(#b)" filter="url(#a)"/><circle cx="-4.069" cy="4.98" r="3.142" clip-path="url(#b)" filter="url(#a)"/><circle cx="-1.319" cy="7.16" r="4.15" clip-path="url(#b)" filter="url(#a)"/></g><g fill="none" stroke="#000" transform="translate(-40.36 -28.6)"><path stroke-linejoin="round" stroke-width="2.222" d="m26.15.74.5-.28.41-.29.34-.29.26-.29.18-.29.12-.29.05-.29-.01-.28-.08-.28-.13-.28-.18-.28-.24-.28-.28-.27-.33-.26-.38-.26-.41-.26-.45-.25-.49-.25-.52-.24-.55-.23-.59-.23-.61-.22-.63-.22-.66-.21-.68-.2-.84-.26-.86-.25-.88-.24-.89-.23-.92-.22-.92-.21-.94-.2-.95-.18-.96-.17-.96-.16-.97-.15-.97-.13-.97-.12-.98-.11-.97-.09-.97-.08-.97-.07-.96-.05-.96-.04L2-8.77l-.94-.01H.13l-.92.01-.91.03-.9.04-.88.05-.87.06-.85.07-.84.09-.82.09-.81.11-.78.11-.77.13-.75.13-.73.15-.71.15-.69.16-.67.16-.65.18-.63.18-.61.18-.58.2-.57.19-.54.21-.52.2-.5.21-.48.22-.46.21-.43.22-.41.22-.4.22-.37.23-.36.23-.34.23-.32.24-.29.23-.28.24-.26.24-.24.25-.22.24-.21.25-.18.25-.16.25-.15.25-.13.26-.1.25-.09.25-.08.26-.05.26-.04.25-.02.26v.26l.01.26.03.26" filter="url(#a)"/><path stroke-linejoin="round" stroke-width="2.222" d="m26.38-3.26.51.32.44.32.35.32.28.31.22.32.14.31.08.31.02.31-.03.3-.09.31-.14.3-.18.3-.22.3-.27.29-.31.29-.34.29-.37.28-.41.28-.43.28-.46.28-.49.26-.51.27-.53.26-.55.26-.57.25-.74.29-.76.28-.76.28-.78.28-.78.27-.79.26-.8.26-.79.25-.81.24-.8.23-.81.22-.81.21-.81.2-.81.19-.81.18-.81.16-.81.15-.81.14-.81.12-.81.11-.8.09-.81.08-.8.07-.81.05-.79.03-.8.02-.8.01-.79-.01-.79-.02-.78-.04-.78-.05-.78-.06-.77-.08-.77-.09-.76-.1-.76-.12-.75-.12-.74-.14-.74-.14-.72-.16-.72-.16-.72-.17-.7-.18-.69-.19-.68-.19-.67-.2-.66-.2-.64-.2-.64-.21-.62-.21-.6-.21-.6-.21-.59-.22-.58-.22-.56-.22-.56-.22-.54-.23-.53-.22-.52-.23-.51-.23-.5-.23-.48-.22-.47-.23-.45-.23-.45-.22-.43-.23-.41-.22-.4-.23-.39-.22-.38-.22-.36-.21-.35-.22-.33-.21-.32-.21" filter="url(#a)"/><circle cx="12.209" cy="-2.024" r="4.458" clip-path="url(#c)" filter="url(#a)"/><circle cx="16.114" cy="-1.159" r="4.026" clip-path="url(#c)" filter="url(#a)"/><circle cx="13.659" cy="-4.239" r="3.71" clip-path="url(#c)" filter="url(#a)"/><circle cx="14.794" cy="-3.829" r="3.452" clip-path="url(#c)" filter="url(#a)"/><circle cx="16.284" cy="-3.984" r="4.91" clip-path="url(#c)" filter="url(#a)"/><circle cx="13.279" cy="-2.264" r="3.79" clip-path="url(#c)" filter="url(#a)"/><circle cx="11.674" cy="-1.729" r="4.2" clip-path="url(#c)" filter="url(#a)"/><circle cx="15.064" cy="-1.184" r="4.208" clip-path="url(#c)" filter="url(#a)"/><circle cx="11.864" cy="-1.839" r="3.516" clip-path="url(#c)" filter="url(#a)"/><circle cx="14.764" cy="-3.924" r="3.32" clip-path="url(#c)" filter="url(#a)"/></g><g fill="none" stroke="#A7856A" stroke-linejoin="round" stroke-width="2"><path d="m-3.56-95.39 1.01-.06.58-.1.96-.13 1.21-.07h1.26l1.24.05 1.21.05 1.19.01 1.18-.04 1.16-.08 1.15-.06 1.12-.03 1.09.02 1.07.09 1.08.14 1.15.16 1.19.12 1.13.02.94-.12.78-.13 1.11.22m-27.72.64-2.66-7.84-1.52 1.37-1.25 1.37-1.42-.48-1.71-1.93-1.94-2.58-2.02-2.49-1.89-1.85-1.6-.99-1.32-.36-1.26-.42-1.51-1.23-1.94-1.98-2.36-1.24-3.23.92m23.34 20.36.48.48 1.4.38 1.24-.02 1.07-.25 1.1-.31 1.22-.24 1.28-.15 1.25-.02 1.18.14 1.14.28 1.15.43 1.16.52 1.17.57 1.16.57 1.15.53 1.09.5.97.46.71.35.16-.07" filter="url(#a)"/><path d="m-14.27-93.74.96-.28 1-.54 1.17-.72 1.13-.6 1.09-.38 1.13-.29 1.25-.34 1.3-.41 1.28-.46 1.2-.43 1.16-.38 1.2-.36 1.25-.35 1.25-.34 1.24-.34 1.47-.48 2.39-.92m-30.05 10.28.41-1.96.6-1.41.9-1.06 1.23-.62 1.4-.39 1.38-.48 1.28-.79 1.2-1.18 1.12-1.54 1.09-1.77 1.09-1.76 1.12-1.55 1.21-1.15 1.33-.75 1.41-.48 1.43-.36 1.38-.36 1.33-.39 1.35-.53 1.42-.89 1.4-1.45 1.2-2.08.95-3.04M77.9-16.77l-.23-2.11-.08-1.79.11-1.74.58-1.87 1.2-2.07 1.63-2.19 1.57-2.1 1.03-1.87.23-1.57-.51-1.31-.86-1.19-.77-1.27-.32-1.48.23-1.78.64-2.08.87-2.3.96-2.49.98-2.6.73-2.68.08-2.66.14-2.22M-24.68-90.75l-2 1.65-1.01 1.1-.83.95-.68 1.46-.5 1.95-.49 1.95-.66 1.47-.89.84-1.07.44-1.06.41-.89.68-.62 1.09-.39 1.43-.24 1.65-.22 1.83-.27 2.01-.42 2.12-.55 1.99-.43 1.63.24 1.23" filter="url(#a)"/><path d="m-3.63-97.08-2.29.44-1.58.25-1.09.24-.99.25-1.07.27-1.16.3-1.19.31-1.21.32-1.24.35-1.26.38-1.28.41-1.25.42-1.16.42-1.02.41-.9.44-.88.47-1.03.51-1.46.62-2.47 1.02m0 0 2.92.65 1.49-.41 1.11-.08 1.02.28 1.03.3 1.09.16 1.19.03h1.26l1.29.07 1.27.15 1.22.28 1.22.43 1.21.57 1.18.62 1.05.55.83.5.81.6 1.53.96m-54.37-6.04 1.39.9 1.26.22 1.22-.21 1.3-.42 1.44-.51 1.63-.42 1.85-.12 2.01.33 2.04.71 1.93.87 1.73.78 1.54.5 1.39.15 1.28-.24 1.12-.68.91-1.21.66-1.69.62-1.7 1.07-.59 2.11 1.74 2.85 2.02" filter="url(#a)"/><path d="m-28.46-89.2.52.2 1.18.39 1.53.51 1.45.32 1.19.04.99-.19.91-.26.98-.21 1.12-.11 1.26.02 1.33.13 1.3.22 1.2.24 1.05.18 1.1-.04 2-.42m-21.65.63 1.56-1.52.48-2.77.22-3.89.4-3.82.64-2.96.81-2.02.89-1.32.98-.85 1.13-.53 1.31-.46 1.39-.84 1.34-1.66 1.15-2.68.91-3.6.72-4.37.82-5.21 2.33-5.23 4.52 26.15-1.94.83-1.73.7-1.3.81-1.14 1.09-1.13 1.28-1.17 1.37-1.19 1.34-1.13 1.24-1.05 1.04-.99.76-.99.47-1.09.22-1.22.14-1.27.35-1.18.82-.9 1.39-.75 1.8-1.43 1.93M77.52-19.27l.68 1.32.78.76.57 1.03.39 1.31.4 1.43.61 1.47.87 1.49 1.15 1.5 1.36 1.53 1.46 1.56 1.44 1.63 1.32 1.69 1.19 1.72L90.83.82l.92 1.49.66 1.32.42 1.25.42 1.43.64 1.77.3 1.85-16.67-29.2.33-1.68.88-1.86.47-1.76-.11-1.59-.29-1.49-.11-1.47.15-1.52.25-1.54.11-1.51-.11-1.43-.24-1.39-.13-1.45.15-1.64.46-1.88.61-2.09.51-2.12.2-1.97-.24-1.96-1.04-3.47M-39.21-83.04l-2.03-2.28-2.05-1.89-1.98-.99-1.72.15-1.42 1-1.32 1.09-1.55.44-1.99-.59-2.34-1.42-2.34-1.62-2-1.13-1.78-.58-2.36-.89-3.93-2.14-5.04-1.57" filter="url(#a)"/><path d="m77.45-20.86.71 1.4 1.5.9 1.21.81.72 1.04.62 1.27.85 1.36 1.27 1.39 1.62 1.41 1.76 1.45 1.66 1.53 1.42 1.57 1.3 1.59 1.43 1.76 1.49 2.23.53 2.54M-62.11-47.25l.37-1.53.9-1.7.78-1.61.58-1.58.45-1.52.4-1.45.37-1.38.37-1.37.38-1.37.41-1.38.47-1.36.55-1.31.66-1.25.75-1.2.85-1.14.91-1.09.95-1.02.94-.99.84-.99.67-1 .47-.94.35-.73.19-.32" filter="url(#a)"/><path d="m-48.47-75.48-.83.51-.96.32-1.27.24-1.63.05-1.96-.19-2.16-.34-2.21-.32-2.08-.13-1.89.1-1.73.27-1.68.35-1.73.32-1.78.28-1.76.31-1.68.44-1.64.61-1.79.67-2.07.66-2.4.65-2.67.8-2.99.92-2.96.23m39.62-4.62.59 3.04.9 3.6.07 2.25-.51 1.44-.67 1.22-.72 1.08-.85.84-.91.72-.72.89-.27 1.36.18 1.75.31 1.75-.04 1.4-.37 1.42.11 2.94.06-22.29-1.93 2.82-.4 1.65-.44 1.23-.71 1.02-.79.99-.69 1.09-.51 1.23-.38 1.36-.35 1.47-.41 1.53-.52 1.52-.6 1.48-.63 1.43-.53 1.36-.36 1.3-.19 1.29-.13 1.33-.17 1.44-.25 1.5-.1 1.39.1 1.13 9.99-29.56.31-.19.72-.56 1-.73 1.05-.66.98-.58.87-.56.82-.58.82-.62.92-.63 1.04-.64 1.17-.63 1.25-.61 1.25-.6 1.19-.56 1.1-.49 1.02-.43.99-.37 1.02-.38 1.07-.44 1.1-.51 1.08-.51 1.03-.37 1.06-.14 1.85-.18" filter="url(#a)"/><path d="m-57.66-65.23 1.5-.5.73-1.07.9-1.2 1.08-1 1.16-.77 1.16-.65 1.1-.59 1.01-.55.94-.5.91-.46.95-.42 1.05-.36 1.18-.29 1.34-.23 1.46-.15 1.49-.08 1.44-.03 1.3-.01 1.11-.03.97-.14.93-.26 1.05-.31 1.2-.27 1.06.14-33.07 36.76.51-.51.17-1.04-.12-1.39-.28-1.67-.31-1.76-.25-1.69-.08-1.49.16-1.32.4-1.27.58-1.31.68-1.38.73-1.41.75-1.35.73-1.26.63-1.19.51-1.12.6-1.04.76-1.2-.6-3.01m-2.45 3.26-.23.45-.56.76-.74 1.1-.81 1.32-.79 1.44-.77 1.49-.72 1.43-.64 1.32-.55 1.19-.5 1.11-.5 1.14-.53 1.23-.55 1.28-.52 1.22-.48 1.09-.46.96-.35.67" filter="url(#a)"/><path d="m-67.09-50.18.02.5-.09 1.72-.29 1.72-.48 1.39-.52 1.19-.4 1.21-.23 1.34-.1 1.49-.06 1.56-.12 1.54-.21 1.47-.28 1.37-.28 1.31-.15 1.26.06 1.2.24 1.11.25 1.21.4 2.46 2.24-25.05-.76-.09-.8 1.24-1.12 1.21-1.39.84-1.45.65-1.36.67-1.26.82-1.24.97-1.31 1.04-1.46 1.04-1.68.95-2.01.77-2.49.56-2.81.64-1.85 1.84M76.27-25.26l.55 1.31.51 1.32.38 1.4.36 1.35.39 1.24.43 1.16.41 1.18.34 1.27.27 1.37.2 1.45.17 1.51.17 1.54.2 1.56.25 1.55.3 1.56.29 1.65.24 1.85.17 2 .17 1.71-5.8-27.98.05-2.19-.33-1.18-.3-1.12-.16-1.28-.05-1.42v-1.46l.04-1.46.08-1.49.12-1.57.12-1.67.1-1.77.04-1.84v-1.91l-.04-1.94-.1-1.93-.23-1.8-.41-1.62-.69-1.49-1.04-1.53-1.03-1.34" filter="url(#a)"/><path d="m-70.72-42.92-.76.78-1.61.9-1.97.76-1.6.93-1.18 1.12-1.03 1.16-.98 1.12-.8 1.12-.55 1.18-.37 1.25-.43 1.29-.72 1.26-1.15 1.19-1.52 1.15-1.71 1.18-1.66 1.32-1.46 1.52-1.26 1.63-1.31 1.5-1.73 1.09-2.43.54-2.87.34-1.58 1.42" filter="url(#a)"/><path d="m-79.49-88.32.68 3.94-.61 2.06-.14 2.07.23 2.38.52 2.78.8 3.2 1 3.44.94 3.38.74 3.04.51 2.58.32 2.15.22 1.89.23 1.84.37 2 .63 2.22.82 2.25.8 2.03.49 1.61-.04.9-1.18 1.78-1.91.93-2.21.65-2.05.68-1.75.8-1.45.89-1.17.97-.89 1.05-.56 1.2-.26 1.36-.09 1.51-.14 1.58-.48 1.55-1.03 1.47-1.64 1.4-2.12 1.35-2.31 1.31-2.2 1.21-1.9 1.02-1.59.8-1.44.74-1.63.92-2.83.8" filter="url(#a)"/><path d="m-71.89-40.07.7-1.74.59-1.18.57-1.06.59-1.08.62-1.17.62-1.22.59-1.18.57-1.11.58-1.11.63-1.16.7-1.27.77-1.37.83-1.41.85-1.36.84-1.23.8-1.05.72-.86.69-.84.98-1.33-18.54-5.78.77 1.82 1.09 3.23.62 2.98.18 2.22.12 1.75.36 1.77.6 2.03.65 2.18.51 2.1.3 1.85.12 1.6-.08 1.45-.34 1.4-.49 1.52.44 2.1-12.74 28.28.86-2.25.61-1.49.48-1.07.32-.9.3-.96.44-1.14.64-1.34.77-1.48.82-1.49.8-1.43.78-1.34.77-1.26.73-1.23.67-1.18.55-1.12.43-1.03.36-1.05.39-1.29.5-1.44" filter="url(#a)"/><path d="m-74.29-33.47-.4 1.71-.14 1-.02 1.12.14 1.36.21 1.49.08 1.5-.15 1.45-.33 1.44-.4 1.45-.34 1.46-.18 1.43.01 1.34.18 1.27.29 1.22.33 1.28.29 1.42.2 1.6.08 1.77.03 1.84.11 1.83.28 1.74.46 1.58.54 1.3.76.68M91.32 3.02l-1.05-1.89-.93-2.18-.92-2.01-.78-1.78L87-6.51l-.6-1.63-.62-1.61-.64-1.58-.64-1.52-.61-1.46-.56-1.38-.49-1.32-.47-1.24-.56-1.21-.74-1.22-.88-1.28-.87-1.38-.89-1.44-1.34-1.55-1.57-2.24" filter="url(#a)"/><path d="m74.89-30.84.32-.23.16-1.51-.04-1.54-.2-1.35-.25-1.3-.26-1.37-.28-1.47-.31-1.56-.32-1.63-.29-1.71-.19-1.81-.08-1.91.01-1.96.02-1.96-.1-1.85-.29-1.69-.44-1.48-.48-1.34-.35-1.32-.17-1.45-.09-1.71-.31-2.05-.73-2.4-.63-2.46-2.01 60.86.44-.63-.03-1.23.09-1.32.55-1.35.87-1.34.89-1.33.67-1.36.42-1.39.22-1.44.09-1.46-.02-1.45-.09-1.4-.11-1.37-.06-1.36.07-1.39.19-1.46.28-1.49.28-1.48.19-1.43.03-1.38-.18-1.39-.41-1.48-.61-1.71-.45-2.25-5.24-10.73 1.01.91 1.7.7 1.43.91.94 1.17.93 1.18 1.5.92 2.39.49 3.12.1 3.4-.02 3.07.21 2.42.65 1.92.92 1.84.76 1.85.19 1.6-.08" filter="url(#a)"/><path d="m64.22-55.83.5.75.67.51.72.75.68 1.07.62 1.29.61 1.39.62 1.41.65 1.39.68 1.4.69 1.4.7 1.41.68 1.41.65 1.38.64 1.34.61 1.27.59 1.19.55 1.16.53 1.2.52 1.29.55 1.31.61 1.25.91 1.93M59.08-63.56l-.05-1.24-.25-1.15-.4-1.26-.63-1.24-.81-1.22-.82-1.27-.69-1.39-.51-1.58-.33-1.79-.2-1.98-.17-2.08-.3-1.96-.58-1.58-.89-1.04-1.05-.63-.88-.7-.45-1.32-.15-2.29-.71-3.58 7.9 26.8 2.55-1.03 1.78-.31 2.16-.56 2.33-.62h1.78l.97.93.46 1.57.54 1.61 1.02 1.17 1.56.61 1.83.25 1.79.27 1.53.57 1.26.94 1.13 1.18 1.2 1.27L82.37-57l1.61 1.14 1.84 1.09 2.03 1.04 2.21.97 2.65.98 3.32 1.63" filter="url(#a)"/><path d="m37.16-89.28.62.34.63.71.62.85.79 1.03 1.03 1.17 1.17 1.23 1.21 1.22 1.16 1.11 1.04.97.92.89.81.89.77.94.79 1.02.83 1.05.87 1.01.82.99.67 1.07.59 1.23 1.06 1.52-12.1-11.12-1.27-1.76-1.18-1.16-.89-.69-.75-.42-.72-.38-.75-.45-.81-.55-.89-.63-.95-.7-1.03-.77-1.11-.82-1.16-.89-1.14-.96-1.07-1.02-1.09-1.07-1.49-1.17-2.47-1.51 17.13 13.7-1.54-.85-1.17.21-.99.42-.84.04-.76-.4-.78-.62-.9-.57-1.06-.37-1.21-.17-1.32-.01-1.39.06-1.41.11-1.41.14-1.42.15-1.43.19-1.44.28-1.41.41-1.36.5-1.28.43-1.09.39-.49.78 21.55-3.33 1.35.9 1.46 1.15 1.37 1.31 1.12 1.49.82 1.59.61 1.54.51 1.33.58 1.09.72.87.87.75.93.76.82.92.61 1.15.41 1.29.41 1.34.68 1.84-12.06-18.42-.07-.78 1.4-.75 2.24-1.06 2.28-.67 1.81.22 1.28.96 1.03 1.08 1.19.54 1.66-.37 2.18-1.18 2.55-1.54 2.54-1.3 2.23-.68 1.85-.17 1.77-.37 2.15-2.11-30.47 6.64-1.93-1.3-1.03-.91-.94-1.17-.89-1.77-.81-2.31-.76-2.54-.83-2.46-.97-2.14-1.14-1.69-1.26-1.23-1.31-.88-1.26-.81-1.14-1.05-.98-1.54-.86-2.1-.87-2.6-.97-3-1.02-3.29-.78-3.24-.2-2.25-.02-.43L35.5-85.26l-1.66-2-.34-2.75-.25-3.07-.56-2.73-.85-2.28-.94-2.18-.89-2.51-.86-2.92-.93-2.98-1.07-2.51-1.21-1.87-1.26-1.71-1.11-2.42-.69-3.49.02-2.45 9.25 36.09 1.43-3.85-.96-.51-1.37-.51-1.33-.86-1.21-1.11-1.18-1.26-1.18-1.35-1.2-1.35-1.21-1.28-1.21-1.06-1.19-.79-1.17-.56-1.13-.54-1.09-.78-1.05-1.2-1.03-1.58-1.01-1.73-1.01-1.55-1.03-1.13-1.17-.74-1.36-.54-1.43-.58-1.53-.85 23.73 25.12-1.37-.48-1.52-.33-1.43.03-1.44.23-1.48.32-1.52.38-1.48.47-1.41.55-1.31.59-1.2.57-1.11.48-1.06.36-1.03.23-1.04.14-1.03.15-1 .3-.97.58-1.04.91-1.17 1.12-1.16.95H5.35L24.9-90.42l2.46-3.54.71 1.14.78 1.67 1.06 1.25 1.23.77 1.28.38 1.31.05 1.33-.23 1.38-.52 1.43-.83 1.52-1.1L41-92.6l1.68-1.04 1.74-.55 1.81.07 1.98.4 2.34.06 2.64-.79 1.46-.78" filter="url(#a)"/><path d="m1.48-77.7.97-2 1.13-2.05 1.16-1.72 1.11-1.3 1.05-.8 1.02-.27.99.04.99.02 1.02-.26L12-86.6l1.13-.66 1.12-.5 1.03-.24.98-.1.98-.11 1.08-.14 1.2-.35 1.29-1.29.88-1.88" filter="url(#a)"/><path d="m21.54-91.56-.53 6.36 1.44.94 1.82-1.03 1.6-.9 1.32-.07 1.1.73.92 1.22.81 1.38.76 1.29.74 1.09.72.87.65.81.5.9.35 1.15.3 1.38.38 1.58.57 1.77.74 1.83 1.09.79-19.48-23.74-.86-.78-1.11-1.44-1.03-2.62-.75-3.73-.65-3.67-.81-2.41-1.09-.73-1.29.42-1.36.57-1.33-.2-1.29-1.42-1.26-2.4-1.27-2.62-1.39-2.05-1.68-1.46-2.23-2.04-2.8-3.52 18.32 29.53 1.49.24 1.09.2.88.2.9.26 1 .35 1.12.41 1.22.47 1.28.48 1.32.51 1.32.53 1.31.55 1.27.6 1.24.63 1.21.67 1.15.66 1.1.65 1.03.6.96.54.86.49.76.46.66.43.62.44.81.6 1.4 1.14" filter="url(#a)"/><path d="m32.86-95.75-2.08-.78-1.53-.05-1.46.1-1.56.03-1.57-.01-1.53.01-1.43.04-1.32.05-1.21-.01-1.15-.05-1.11-.06-1.14-.01-1.16.08-1.16.16-1.15.16-1.13.13-1.12.06-1.13.02-1.14.05-1.16.13-1.2.2-1.26.17-1.25.02-1.09-.22" filter="url(#a)"/></g><g fill="none" stroke="#000"><circle cx="12.384" cy="21.872" r="2.666" filter="url(#a)"/><circle cx="13.228" cy="21.316" r="2.274" filter="url(#a)"/><circle cx="11.832" cy="20.14" r="1.278" filter="url(#a)"/><circle cx="14.152" cy="23.224" r="2.614" filter="url(#a)"/><circle cx="13.564" cy="20.312" r="2.522" filter="url(#a)"/><circle cx="13.688" cy="23.376" r="1.962" filter="url(#a)"/><circle cx="11.868" cy="22.624" r="1.036" filter="url(#a)"/><circle cx="14.892" cy="21.152" r="1.486" filter="url(#a)"/><circle cx="13.648" cy="21.424" r="2.546" filter="url(#a)"/><circle cx="14.572" cy="20.6" r="1.372" filter="url(#a)"/><circle cx="-13.018" cy="29.36" r="2.654" filter="url(#a)"/><circle cx="-13.306" cy="30.248" r="2.73" filter="url(#a)"/><circle cx="-10.47" cy="27.94" r="1.122" filter="url(#a)"/><circle cx="-11.29" cy="28.648" r="1.046" filter="url(#a)"/><circle cx="-12.142" cy="28.708" r="2.4" filter="url(#a)"/><circle cx="-14.086" cy="29.548" r="1.012" filter="url(#a)"/><circle cx="-10.954" cy="28.312" r="2.962" filter="url(#a)"/><circle cx="-11.858" cy="27.94" r="1.556" filter="url(#a)"/><circle cx="-11.422" cy="29.272" r="2.258" filter="url(#a)"/><circle cx="-13.198" cy="29.06" r="1.05" filter="url(#a)"/></g><path fill="#D77F8C" stroke="#000" stroke-linejoin="round" stroke-width="3" d="m-20.53 51.58.53 1.89.52 1.84.52 1.79.52 1.74.51 1.69.5 1.64.5 1.6.5 1.55.49 1.5.49 1.45.48 1.41.48 1.36.47 1.32.47 1.27.47 1.23.46 1.18.46 1.13.46 1.1.45 1.05.45 1 .45.97.44.92.44.88.44.83.43.8.43.76.43.71.42.68.43.63.42.6.42.55.41.52.41.48.41.44.41.4.41.37.4.33.41.3.4.25.4.22.4.19.39.15.4.12.39.08.39.05.39.02.39-.02.39-.05.39-.09.39-.11.39-.15.38-.17.39-.21.38-.24.39-.27.38-.3.39-.33.38-.36.39-.38.38-.42.38-.44.39-.47.38-.5.39-.52.38-.55.39-.58.39-.6.39-.63.38-.65.39-.68.39-.7.4-.72.39-.75.39-.78.4-.79.4-.82.39-.84.4-.86.41-.88.4-.9.41-.92.4-.95.41-.96.41-.98.42-1 .41-1.02.42-1.04.42-1.06.43-1.07.42-1.09.43-1.11.43-1.13.44-1.14.44-1.15.44-1.18.44-1.18.45-1.2.45-1.22.45-1.23-.42.36-.41.35-.42.35-.42.34-.42.34-.42.33-.42.33-.42.33-.42.31-.41.32-.42.31-.42.3-.42.3-.42.29-.42.28-.42.28-.41.28-.42.26-.42.26-.42.26-.42.25-.42.24-.42.24-.41.22-.42.22-.42.22-.42.21-.42.2-.42.19-.42.18-.41.18-.42.17-.42.16-.42.16-.42.14-.42.14-.42.13-.42.12-.41.11-.42.11-.42.09-.42.09-.42.07-.42.07-.42.06-.41.05-.42.04-.42.03-.42.02-.42.01h-.42l-.42-.01-.41-.02-.42-.03-.42-.04-.42-.05-.42-.06-.42-.07-.42-.08-.42-.1-.41-.1-.42-.12-.42-.12-.42-.14-.42-.15-.42-.16-.42-.18-.41-.18-.42-.2-.42-.21-.42-.22-.42-.23-.42-.25-.42-.26-.41-.27-.42-.29-.42-.29-.42-.31-.42-.33-.42-.33-.42-.35-.41-.37-.42-.38-.42-.39-.42-.4-.42-.42-.42-.43-.42-.45-.42-.46-.41-.48-.42-.49-.42-.5-.42-.52-.42-.54-.42-.55-.42-.56-.41-.58-.42-.59-.42-.62" filter="url(#a)"/></svg>