<svg xmlns="http://www.w3.org/2000/svg" width="500" height="500" viewBox="-100 -100 200 200"><defs><clipPath id="c"><path d="m30.05-6.58-.21-.51-.24-.48-.27-.45-.3-.44-.33-.41-.36-.39-.39-.37-.42-.35-.45-.33-.47-.31-.51-.29-.54-.28-.57-.26-.59-.24-.63-.23-.55-.25-.59-.23-.65-.22-.7-.2-.75-.19-.8-.18-.83-.15-.88-.15-.92-.13-.96-.12-.99-.11-1.02-.1-1.06-.08-1.07-.08-1.1-.06-1.12-.05-1.14-.04-1.14-.04-1.16-.02-1.17-.02-1.16-.01H2.84l-1.17.01-1.16.02-1.16.02-1.15.02-1.13.03-1.12.04-1.1.05-1.09.04-1.06.06-1.04.05-1.02.06-.99.07-.97.06-.94.07-.91.07-.88.08-.86.08-.82.07-.8.08-.76.09-.74.08-.71.08-.68.09-.65.08-.63.09-.6.08-.57.09-.56.09-.53.08-.51.09-.49.09-.47.09-.45.09-.42.09-.41.09-.39.09-.37.09-.35.09-.33.09-.32.09-.3.09-.28.09 1.33 9.81.32.48.33.48.35.48.37.5.38.49.4.5.42.5.44.5.45.51.48.5.49.51.51.5.53.5.56.5.57.5.6.5.61.5.64.5.67.49.68.49.72.48.74.47.76.46.79.44.82.44.84.41.87.4.89.38.91.35.94.34.97.31.98.28 1 .26 1.02.23 1.04.19 1.05.17 1.07.14 1.07.1 1.09.06 1.09.04 1.1-.01 1.11-.03 1.1-.08 1.1-.11 1.09-.15 1.09-.19 1.08-.22 1.07-.26 1.05-.3 1.03-.33 1.02-.37.99-.4.96-.44.94-.47.9-.5.88-.53.83-.56.81-.59.76-.61.72-.63.68-.66.64-.68.59-.69.55-.71.6-.54.58-.55.55-.57.53-.56.51-.58.47-.58.45-.58.43-.59.4-.59.37-.59.34-.58.32-.59.29-.57.27-.57.24-.56"/></clipPath><clipPath id="b"><path d="m-30.1-10.31.25-.35.27-.33.3-.32.32-.31.36-.29.38-.28.41-.26.43-.25.47-.24.49-.22.52-.22.54-.2.57-.19.6-.17.63-.17.55-.2.6-.19.66-.17.69-.16.75-.15.78-.13.83-.12.87-.11.91-.1.94-.08.97-.08 1.01-.06 1.03-.05 1.05-.05 1.08-.03 1.1-.02 1.11-.02h2.26l1.14.01 1.14.02 1.15.03 1.14.03 1.14.04 1.14.04 1.12.05 1.12.05 1.1.06 1.09.07 1.06.06 1.05.07 1.03.08 1.01.07.98.08.96.08.93.09.91.08.88.09.85.09.82.09.8.09.76.09.74.09.71.09.69.09.66.09.63.09.61.09.58.1.57.09.54.09.52.09.5.09.48.09.46.09.44.1.42.09.4.09.39.09.36.09.35.09.33.1.32.09.3.09-1.04 11.29-.31.54-.33.55-.34.55-.36.55-.38.56-.39.56-.42.56-.43.57-.45.56-.47.57-.49.56-.51.56-.53.55-.55.55-.57.55-.59.54-.62.55-.64.54-.66.53-.69.53-.72.51-.74.5-.76.48-.8.47-.82.45-.84.42-.87.41-.9.38-.92.35-.94.32-.97.3-.99.26-1.01.23-1.02.19-1.05.16-1.06.13-1.07.08-1.09.05-1.09.01-1.1-.03-1.11-.07-1.11-.11-1.11-.15-1.1-.19-1.11-.23-1.09-.27-1.09-.31-1.07-.34-1.05-.39-1.04-.42-1.02-.45-.99-.49-.97-.52-.94-.55-.91-.59-.87-.61-.84-.63-.81-.66-.76-.68-.72-.7-.68-.71-.63-.73-.59-.73-.55-.75-.6-.59-.58-.61-.56-.6-.53-.61-.51-.62L-27 .7l-.45-.61-.43-.62-.4-.61-.37-.61-.35-.61-.33-.59-.3-.59-.27-.58-.25-.57"/></clipPath><filter id="a"><feTurbulence baseFrequency=".05" numOctaves="3" result="noise" type="noise"/><feDisplacementMap in="SourceGraphic" in2="noise" scale="2"/></filter></defs><rect width="100%" height="100%" x="-100" y="-100" fill="#F08080"/><path fill="olive" stroke="#000" stroke-linejoin="round" stroke-width="1.667" d="m67.09.26-.01-.76-.09 4.61-.25-.5-.08 2.27.16.1-.34 1.62-.08.76.2 1.85-.57 2.96-.03 1.15-.38 1.4.17.9-.18.25-.21 1.8-.06-.04-.53 1.87.15.42-.93 4.67-.29.7-.45 1.5-.24.44.09-.02-.83 2.41-.11.87.02.29-.95 2.43-.17 1.03-.04.22-.73 1.84-.64 1.78-.95 1.81-.28.42-.33 1.39-1.06 1.85-.33 1.07-.7 1.1-.34 1.22-.42.33-.61 1.13-.35.81-.95 1.53-.17.75-.83.91-.23.38-.33.36-2.14 3.52.78-1.02-1.39 1.56-.2.81-2.08 2.17.26-.12-1.66 2.2-.35.13.01.2-1.05 1.15-1.2 1.32-.91.95-.58.74-1.87 1.65-.31-.04-.28.52-1.76 1.39-.73.59-1.3 1.39-.37.42-1.44.87.68-.45-2.32 1.72.1-.08-1.27.87h-.35l-.65.43-2.82 1.66.16-.08-1.21.89.44-.43-3.14 1.8.09-.26-.24.25-.54.02-1.16.77-1.4.47-1.27.4-2.25.7-2.21.65-1.05.5.01-.2h.39l-1.55.25-1.18.28-1.87.55L9.75 85l-3.17.38-.46.21-.37-.12-.68.06-2.12.24-1.54.18-.87-.27-.67.34-.6-.32-2.13.06-1.31.08-.71-.37-.82-.05.34.04-1.25.16-1.37-.32-1.56-.45-.46.22-1.73-.41-1.66-.71-1.38-.32.5.43-1.75-.78.09.17-.83-.16-.79-.38-3.54-1.41-.5-.12-.54-.48.06.2-1.89-.83.54.29-2.56-1.49-.05-.08-1.65-.6.83.2-1.73-.9-2.41-1.46-1.21-.95.25.24-1.33-1.14-2.13-1.35.45.04.45.44-3.74-2.94.87.74-1.43-1.64-.15.06-.19-.04-.61-.52-2.08-2.07-.86-1.06-.72-.82.03.45-1.57-2.17-.68-.76.12.16-1.72-2.01-.94-1.29.22.1-2.56-3.16.44.25-.32-.33-.92-1.08.09-.37-1.34-1.63-.84-2.16-1.61-2.35.37.58-.3-.61-1-1.69-.79-1.73.17-.07-1.8-3.13.92 1.85-1.02-2.12-.03-.46-1.4-3.01-.56-1.62-.08.03-.57-1.67-.22-.89-.13-.82-1.2-2.82.29 1.06-.42-2.02-.2-.75-.9-3.46.14-.19-.21-.53.03-.03-.82-2.81-.69-3.99.75 3.37-.87-3.64-.38-2.57-.04-.99-.29-.9.19-1.43-.3-1.76-.22-.59-.16-2.33.02-.63.01-1.68-.22-.53.02-.31.22-1.58-.14-3.78-.03-.75.17-2.33-.11 1.8-.12-2.79.38-2.49v-.19l.14-.78-.29.02.33-2.29.2-2.6.23-1.68.26.27.17-3.22.06-.14.41-1.87-.11.08.7-3.33.14.46.33-1.64.57-2.89.26-.26.71-2.35-.76 1.87 1.3-3.62-.5.97.75-2.51 1.07-2.77.28-.48.2-.49.33-1.22-.05.02 1.38-3.07.08-.25.68-1.67.89-1.95.62-1.16.39-.95.67-.74.17-.49.06-.4 1.47-2.56 1.95-2.9-.65.81.58-.87.92-.96-.19.08.58-1 1.48-1.91.8-1.33 1.29-1.78.32-.24.27-.47 2.13-2.23.51-.62-.27.07 1.99-1.98-.97.84.54-.57.63-.41 1.82-1.94 1.09-1.07.62-.44 1.59-1.25.98-.69-.23.12 1.91-1.68-1 .63 3.89-2.76-.61.67 1.24-1.01 1.09-.5 2-1.21-.64.42.53-.62 2.2-1.07-1.07.54 2.17-.99.65-.47.58-.09 2.17-1.08 1.94-.81-.52.34 2.63-1.02.49.05-1.15.49 2.34-1.13-.24.31 2.9-.78 1.89-.56-.04.16 1.21-.36.03.12 1.03-.35 1.77-.3 1.25.07 1.44-.2 1.58-.18-1.15.01 1.99.2.95-.09 1.07-.12 2.41.15-.53.05 2.68.31.99-.1-.69.03.89.08 1.64.45 1.66.27 1.83.05.13.29.41.18.74.15 1.48.08.13.3 2.55.9-1.17-.56 1.52.71 3.26 1.22.06.02.79.38-.15-.46.83.63 2.71 1.39 1.11.5.12.17 2.04.93 1.11.92-.48-.45.7.54 2.29 1.41.13-.13 1.2.94-.03.03 2.23 1.87 1 .97-.49-.87.38.8 1.41 1.19 1.73 1.27 1.33 1.14.42.73.2.34.96.67 1.43 1.53-.37-.2 1.87 2.07.66.74.42.19 1.3 2.27-.12-.81 1.72 3.03.28.18-.02-.14 1.87 2.7-.71-1.06 1.36 2.38-.13-.85 1.37 2.58.46.93-.35-.6 1.21 1.99 1.12 2.36 1.05 2.2.21.09v.03l.72 1.49.95 1.74.23.72.56 1.56.03.08 1.05 2.46.48 1.64.27 1.46.61 1.65-.19-.8.88 3.19.35.5.12-.02.38 1.89.89 3.5.08.12.33 1.53.3 1.47.21 1.02.11.75-.16.59.26.26.29 3.26.36 2.05-.13.03.16 1.62.46 2.34-.27.12.25 2.36.32 1.85-.21-.06.17 1.4-.12.53.31 2.79-.01-.76" filter="url(#a)"/><path fill="#fff" d="m-30.1-10.31.25-.35.27-.33.3-.32.32-.31.36-.29.38-.28.41-.26.43-.25.47-.24.49-.22.52-.22.54-.2.57-.19.6-.17.63-.17.55-.2.6-.19.66-.17.69-.16.75-.15.78-.13.83-.12.87-.11.91-.1.94-.08.97-.08 1.01-.06 1.03-.05 1.05-.05 1.08-.03 1.1-.02 1.11-.02h2.26l1.14.01 1.14.02 1.15.03 1.14.03 1.14.04 1.14.04 1.12.05 1.12.05 1.1.06 1.09.07 1.06.06 1.05.07 1.03.08 1.01.07.98.08.96.08.93.09.91.08.88.09.85.09.82.09.8.09.76.09.74.09.71.09.69.09.66.09.63.09.61.09.58.1.57.09.54.09.52.09.5.09.48.09.46.09.44.1.42.09.4.09.39.09.36.09.35.09.33.1.32.09.3.09-1.04 11.29-.31.54-.33.55-.34.55-.36.55-.38.56-.39.56-.42.56-.43.57-.45.56-.47.57-.49.56-.51.56-.53.55-.55.55-.57.55-.59.54-.62.55-.64.54-.66.53-.69.53-.72.51-.74.5-.76.48-.8.47-.82.45-.84.42-.87.41-.9.38-.92.35-.94.32-.97.3-.99.26-1.01.23-1.02.19-1.05.16-1.06.13-1.07.08-1.09.05-1.09.01-1.1-.03-1.11-.07-1.11-.11-1.11-.15-1.1-.19-1.11-.23-1.09-.27-1.09-.31-1.07-.34-1.05-.39-1.04-.42-1.02-.45-.99-.49-.97-.52-.94-.55-.91-.59-.87-.61-.84-.63-.81-.66-.76-.68-.72-.7-.68-.71-.63-.73-.59-.73-.55-.75-.6-.59-.58-.61-.56-.6-.53-.61-.51-.62L-27 .7l-.45-.61-.43-.62-.4-.61-.37-.61-.35-.61-.33-.59-.3-.59-.27-.58-.25-.57" filter="url(#a)" transform="translate(42.79 -29.83)"/><path fill="#fff" d="m30.05-6.58-.21-.51-.24-.48-.27-.45-.3-.44-.33-.41-.36-.39-.39-.37-.42-.35-.45-.33-.47-.31-.51-.29-.54-.28-.57-.26-.59-.24-.63-.23-.55-.25-.59-.23-.65-.22-.7-.2-.75-.19-.8-.18-.83-.15-.88-.15-.92-.13-.96-.12-.99-.11-1.02-.1-1.06-.08-1.07-.08-1.1-.06-1.12-.05-1.14-.04-1.14-.04-1.16-.02-1.17-.02-1.16-.01H2.84l-1.17.01-1.16.02-1.16.02-1.15.02-1.13.03-1.12.04-1.1.05-1.09.04-1.06.06-1.04.05-1.02.06-.99.07-.97.06-.94.07-.91.07-.88.08-.86.08-.82.07-.8.08-.76.09-.74.08-.71.08-.68.09-.65.08-.63.09-.6.08-.57.09-.56.09-.53.08-.51.09-.49.09-.47.09-.45.09-.42.09-.41.09-.39.09-.37.09-.35.09-.33.09-.32.09-.3.09-.28.09 1.33 9.81.32.48.33.48.35.48.37.5.38.49.4.5.42.5.44.5.45.51.48.5.49.51.51.5.53.5.56.5.57.5.6.5.61.5.64.5.67.49.68.49.72.48.74.47.76.46.79.44.82.44.84.41.87.4.89.38.91.35.94.34.97.31.98.28 1 .26 1.02.23 1.04.19 1.05.17 1.07.14 1.07.1 1.09.06 1.09.04 1.1-.01 1.11-.03 1.1-.08 1.1-.11 1.09-.15 1.09-.19 1.08-.22 1.07-.26 1.05-.3 1.03-.33 1.02-.37.99-.4.96-.44.94-.47.9-.5.88-.53.83-.56.81-.59.76-.61.72-.63.68-.66.64-.68.59-.69.55-.71.6-.54.58-.55.55-.57.53-.56.51-.58.47-.58.45-.58.43-.59.4-.59.37-.59.34-.58.32-.59.29-.57.27-.57.24-.56" filter="url(#a)" transform="translate(-38.63 -30.67)"/><g fill="none" stroke="#000" transform="translate(42.79 -29.83)"><path stroke-linejoin="round" stroke-width="1.667" d="m-31.32-5.9.04-.52.05-.5.07-.48.09-.47.1-.45.13-.43.15-.41.17-.4.2-.38.22-.37.25-.35.27-.33.3-.32.32-.31.36-.29.38-.28.41-.26.43-.25.47-.24.49-.22.52-.22.54-.2.57-.19.6-.17.63-.17.55-.2.6-.19.66-.17.69-.16.75-.15.78-.13.83-.12.87-.11.91-.1.94-.08.97-.08 1.01-.06 1.03-.05 1.05-.05 1.08-.03 1.1-.02 1.11-.02h2.26l1.14.01 1.14.02 1.15.03 1.14.03 1.14.04 1.14.04 1.12.05 1.12.05 1.1.06 1.09.07 1.06.06 1.05.07 1.03.08 1.01.07.98.08.96.08.93.09.91.08.88.09.85.09.82.09.8.09.76.09.74.09.71.09.69.09.66.09.63.09.61.09.58.1.57.09.54.09.52.09.5.09.48.09.46.09.44.1.42.09.4.09.39.09.36.09.35.09.33.1.32.09.3.09.29.09.27.09.26.09.24.1.23.09.22.09.21.09.2.09.18.09.18.09" filter="url(#a)"/><path stroke-linejoin="round" stroke-width="2.222" d="m-31.43-9.26.04.34.06.37.08.4.1.43.11.45.14.48.15.5.18.52.2.53.22.55.25.57.27.58.3.59.33.59.35.61.37.61.4.61.43.62.45.61.48.62.51.62.53.61.56.6.58.61.6.59.55.75.59.73.63.73.68.71.72.7.76.68.81.66.84.63.87.61.91.59.94.55.97.52.99.49 1.02.45 1.04.42 1.05.39 1.07.34 1.09.31 1.09.27 1.11.23 1.1.19 1.11.15 1.11.11 1.11.07 1.1.03 1.09-.01 1.09-.05 1.07-.08 1.06-.13 1.05-.16 1.02-.19 1.01-.23.99-.26.97-.3.94-.32.92-.35.9-.38.87-.41.84-.42.82-.45.8-.47.76-.48.74-.5.72-.51.69-.53.66-.53.64-.54.62-.55.59-.54.57-.55.55-.55.53-.55.51-.56.49-.56.47-.57.45-.56.43-.57.42-.56.39-.56.38-.56.36-.55.34-.55.33-.55.31-.54.3-.54.28-.52.27-.52.25-.52.25-.5.22-.5.22-.49.2-.48.2-.47.18-.46" filter="url(#a)"/><circle cx="-7.105" cy="-8.321" r="4.972" clip-path="url(#b)" filter="url(#a)"/><circle cx="-8.335" cy="-10.121" r="3.782" clip-path="url(#b)" filter="url(#a)"/><circle cx="-8.005" cy="-6.521" r="4.482" clip-path="url(#b)" filter="url(#a)"/><circle cx="-5.3" cy="-9.701" r="4.628" clip-path="url(#b)" filter="url(#a)"/><circle cx="-7.835" cy="-9.516" r="4.076" clip-path="url(#b)" filter="url(#a)"/><circle cx="-5.43" cy="-8.426" r="4.616" clip-path="url(#b)" filter="url(#a)"/><circle cx="-4.11" cy="-7.526" r="3.162" clip-path="url(#b)" filter="url(#a)"/><circle cx="-5.395" cy="-9.376" r="3.88" clip-path="url(#b)" filter="url(#a)"/><circle cx="-3.925" cy="-10.496" r="4.53" clip-path="url(#b)" filter="url(#a)"/><circle cx="-5.59" cy="-8.616" r="3.948" clip-path="url(#b)" filter="url(#a)"/></g><g fill="none" stroke="#000" transform="translate(-38.63 -30.67)"><path stroke-linejoin="round" stroke-width="2.222" d="m30.76.03.02-.8.01-.77-.01-.74-.03-.7-.05-.67-.08-.65-.1-.61-.13-.58-.15-.56-.19-.53-.21-.51-.24-.48-.27-.45-.3-.44-.33-.41-.36-.39-.39-.37-.42-.35-.45-.33-.47-.31-.51-.29-.54-.28-.57-.26-.59-.24-.63-.23-.55-.25-.59-.23-.65-.22-.7-.2-.75-.19-.8-.18-.83-.15-.88-.15-.92-.13-.96-.12-.99-.11-1.02-.1-1.06-.08-1.07-.08-1.1-.06-1.12-.05-1.14-.04-1.14-.04-1.16-.02-1.17-.02-1.16-.01H2.84l-1.17.01-1.16.02-1.16.02-1.15.02-1.13.03-1.12.04-1.1.05-1.09.04-1.06.06-1.04.05-1.02.06-.99.07-.97.06-.94.07-.91.07-.88.08-.86.08-.82.07-.8.08-.76.09-.74.08-.71.08-.68.09-.65.08-.63.09-.6.08-.57.09-.56.09-.53.08-.51.09-.49.09-.47.09-.45.09-.42.09-.41.09-.39.09-.37.09-.35.09-.33.09-.32.09-.3.09-.28.09-.27.09-.26.09-.24.09-.23.09-.22.09-.2.09-.19.09-.18.08-.17.09-.16.09" filter="url(#a)"/><path stroke-linejoin="round" stroke-width="2.222" d="m31.3-8.49-.02.36-.04.4-.06.42-.07.45-.1.47-.12.48-.14.51-.17.53-.19.54-.21.55-.24.56-.27.57-.29.57-.32.59-.34.58-.37.59-.4.59-.43.59-.45.58-.47.58-.51.58-.53.56-.55.57-.58.55-.6.54-.55.71-.59.69-.64.68-.68.66-.72.63-.76.61-.81.59-.83.56-.88.53-.9.5-.94.47-.96.44-.99.4-1.02.37-1.03.33-1.05.3-1.07.26-1.08.22-1.09.19-1.09.15-1.1.11-1.1.08-1.11.03-1.1.01-1.09-.04-1.09-.06-1.07-.1-1.07-.14-1.05-.17-1.04-.19-1.02-.23-1-.26-.98-.28-.97-.31-.94-.34-.91-.35-.89-.38-.87-.4-.84-.41-.82-.44-.79-.44-.76-.46-.74-.47-.72-.48-.68-.49-.67-.49-.64-.5-.61-.5-.6-.5-.57-.5-.56-.5-.53-.5-.51-.5-.49-.51-.48-.5-.45-.51-.44-.5-.42-.5-.4-.5-.38-.49-.37-.5-.35-.48-.33-.48-.32-.48-.31-.47-.29-.46-.27-.45-.27-.45-.25-.44-.23-.44-.23-.42-.21-.42-.2-.41-.2-.41" filter="url(#a)"/><circle cx="-11.526" cy="6.724" r="4.928" clip-path="url(#c)" filter="url(#a)"/><circle cx="-14.876" cy="6.699" r="3.246" clip-path="url(#c)" filter="url(#a)"/><circle cx="-10.916" cy="6.449" r="4.762" clip-path="url(#c)" filter="url(#a)"/><circle cx="-10.481" cy="3.874" r="4.81" clip-path="url(#c)" filter="url(#a)"/><circle cx="-12.171" cy="5.674" r="3.122" clip-path="url(#c)" filter="url(#a)"/><circle cx="-15.411" cy="8.079" r="3.512" clip-path="url(#c)" filter="url(#a)"/><circle cx="-11.841" cy="4.104" r="4.532" clip-path="url(#c)" filter="url(#a)"/><circle cx="-14.791" cy="4.134" r="3.34" clip-path="url(#c)" filter="url(#a)"/><circle cx="-13.776" cy="5.659" r="3.368" clip-path="url(#c)" filter="url(#a)"/><circle cx="-14.741" cy="5.709" r="4.036" clip-path="url(#c)" filter="url(#a)"/></g><g fill="none" stroke="#40E0D0" stroke-linejoin="round" stroke-width="2"><path d="m-15.99-83.22-.02.05 1.09-.23 1.57-.26 1.79-.22 1.82-.16 1.78-.09 1.75-.03 1.79.02 1.85.03 1.9.06 1.9.06 1.85.07 1.74.07 1.64.08 1.54.08 1.45.09 1.36.09 1.22.08.99.04.71-.02.44-.06.24-.09.03-.15m29.03 18.6 1.39 1.54.95 1.07.79.96.74.96.7.94.63.87.55.77.44.64.34.49.22.36.1.2-.04.06-.19-.11-.34-.28-.5-.47-.67-.66-.86-.9-1.1-1.21-1.43-1.63-1.84-2.12-2.27-2.6-2.57-3.02" filter="url(#a)"/><path d="m-33.73-74.24.46-.28 1.56-.86 1.78-.85 1.92-.84 2.05-.83 2.13-.82 2.15-.8 2.15-.8 2.13-.78 2.1-.77 2.05-.75 2.02-.74 1.98-.71 1.9-.65 1.57-.52m17.67.89.42.2.41.28.24.41-.03.54-.31.67-.6.8-.92.92-1.31 1.04-1.76 1.16-2.24 1.29-2.74 1.45-3.2 1.65-3.67 1.86-4.17 2.07-4.7 2.21-5.26 2.3-5.82 2.34-6.38 2.36-6.93 2.44-7.55 2.73" filter="url(#a)"/><path d="m51.45-54.88-.28-.14-.16.49-.43.59-.84.57-1.27.52-1.71.49-2.15.45-2.64.37-3.18.21-3.77.03-4.38-.16-4.97-.33-5.55-.48-6.11-.66-6.66-.84-7.22-1.02-7.84-1.19-8.51-1.29-9.3-1.37-10.14-1.45m72.13-11.62-.11-.26.49.45.79.73.79.73.59.59.3.39.01.19-.27-.02-.57-.2-.86-.41-1.18-.63-1.51-.87-1.87-1.12-2.31-1.44-2.87-1.8-3.51-2.23-3.88-2.57m20.33 12 .43.65.62.73.81.88.89.99.92 1.04.89 1.04.85 1.01.77.94.67.84.54.7.4.54.23.31.04.07-.17-.21-.39-.48-.62-.77-.89-1.07-1.14-1.4-1.38-1.72M8.27-84.96l1.47.2.98.19.57.19.36.2.23.23.11.27-.04.31-.22.38-.42.42-.64.46-.9.47-1.2.49-1.52.5-1.85.52-2.17.56-2.52.62-2.9.67-3.35.72-3.84.77-4.37.81-4.88.87-5.32.91-5.61.91" filter="url(#a)"/><path d="m8.27-84.96 1.38.22.76.26.19.31-.21.4-.52.48-.82.6-1.15.72-1.55.86-1.97 1.02-2.43 1.17-2.93 1.3-3.48 1.4-4.05 1.47-4.58 1.53-5.1 1.63-5.65 1.79-6.32 1.99-7.24 2.31" filter="url(#a)"/><path d="m53.45-51.5.97 1.91.53 1.6.03 1.04-.43.58-.83.31-1.19.14-1.56.03-1.94-.09-2.34-.23-2.75-.39-3.16-.56-3.58-.78-4.03-1.03-4.47-1.3-4.95-1.58-5.45-1.86-5.96-2.09-6.51-2.3-7.08-2.5-7.67-2.68-8.28-2.9-8.82-3.18m39.06-14.66.96.2.47.36.08.44-.26.53-.63.62-1.09.71-1.65.76-2.27.82-2.87.91-3.46 1.04-4.07 1.2-4.76 1.36-5.57 1.54-6.43 1.71-7.33 1.85-8.12 1.87m59.01-11.31.89.44.93.51.95.54.86.5.78.47.72.44.66.42.57.38.44.33.25.25.02.12-.24-.02-.51-.19-.75-.32-.98-.45-1.2-.57-1.54-.76-2.03-1.04-2.62-1.39-2.9-1.61" filter="url(#a)"/><path d="m39.5-69.32.83.91.23.65-.11.57-.37.57-.67.57-1.02.57-1.41.55-1.83.51-2.28.46-2.74.4-3.22.33-3.73.26-4.27.18-4.82.12-5.39.07H2.73l-6.49-.07-6.98-.2-7.43-.37-7.91-.53-8.5-.62m63.53-12.95 1.06.72 1.19.76 1.07.72 1 .72.95.75.88.71.77.63.64.54.54.47.46.4.34.31.17.17-.09-.02-.39-.27-.69-.51-1.01-.75-1.34-.98-1.67-1.23-1.84-1.41m-67.38 3.62.68-.52.63-.53.74-.63.84-.65.85-.6.76-.49.63-.36.45-.21.27-.07.08.08-.09.23-.27.37-.44.54-.63.73-.85.94-1.08 1.17-1.37 1.43-1.69 1.75-2.09 2.11-2.53 2.5-2.93 2.85-3.18 2.97m37.36-26.51.38.03.82-.04 1.13-.06 1.43-.04 1.64-.01 1.73.02 1.74.06 1.7.1 1.64.11 1.61.12 1.58.13 1.55.14 1.49.14 1.38.13 1.19.12.97.09.73.04.51.01.36-.03.18-.05-.08-.09-.42-.1" filter="url(#a)"/><path d="m35.47-72.68.41.46-.06.29-.12.54-.23.75-.48.83-.91.82-1.39.77-1.89.73-2.35.72-2.81.7-3.25.7-3.7.68-4.19.66-4.7.65-5.27.65-5.86.66-6.46.68-7.09.69-7.71.71-8.4.83-9.17 1.06m72.1-17.29.34.15.46.41.42.5.23.44-.06.3-.37.16-.64.07h-.93l-1.25-.09-1.63-.24-2.08-.42-2.56-.65-3.05-.84-3.59-1.04-4.19-1.22-4.81-1.41-5.42-1.63-5.89-1.91" filter="url(#a)"/><path d="m3.29-85.78.48.16 1.21.26 1.26.34 1.33.44 1.52.55 1.7.64 1.82.7 1.86.74 1.82.76 1.78.78 1.75.78 1.73.79 1.72.79 1.71.79 1.66.78 1.61.74 1.48.68 1.3.56 1.05.42.82.29.7.23.73.31.77.43" filter="url(#a)"/><path d="m2.76-85.73 2.08.34 1.59.57 1.69.88 2.13 1.2 2.6 1.49 2.93 1.69 3.1 1.84 3.18 1.97 3.26 2.08 3.36 2.2 3.48 2.32 3.57 2.4 3.63 2.48 3.62 2.53 3.57 2.46" filter="url(#a)"/><path d="m-30.84-76.37.23.18 1.32-.24 1.88-.26 2.21-.14h2.47l2.75.12 3.05.22 3.37.28 3.67.33 3.96.37 4.2.41 4.38.44 4.51.5 4.58.56 4.59.64 4.59.71 4.63.79 4.71.82 4.76.77" filter="url(#a)"/><path d="m-27.76-78-3.28 5.89 15.54.33 19.58 1.8 13.14 3.12 2.59 2.06-6.41-.1L3-66.58l-9.14-2.13-4.7-1.74.13-1.01 3.6-.25 5.35.48 5.98 1.11 6.14 1.43 6.01 1.12 5.11-.06 3.05-1.83.69-2.95 1.44-1.13 8.89 5.4 16.42 13.73" filter="url(#a)"/><path d="m14.65-83.64 13.48 12.65-.75-.48 1.73 1.68 1.56 3.84-1.82 3.37-4.47 1.92-5.08.73-5.17-.24-5.98-1.08-6.06-1.22-3.09-.08 2.58 1.94 7.61 2.84 8.24-1.95L-.19-85.81" filter="url(#a)"/><path d="m-50.23-56.66 15.82-11.96 15.74-4.49 15.17-2.37 10.16-.48 3.73.63-1.11.48-2.64-.23-1.5-.47-.05.18-.53 1.31-3.23 2.18-5.84 2.31-4.8 1.7 1.57.78 9.85-.07 10.59-1.11-6.66-3.6-39.77-2.37" filter="url(#a)"/><path d="m17.55-82.59-28.94 6.28-3.88 1.13 6.47 2.08 11.71 3.08 10.64 2.3 5.48.19.41-1.57-1.64-1.73-.35-.33 2.51 1.64 4.56 2.98 4.19 2.96 1.26 1.73-2.91.04-6.48-1.14-8.15-1.38-7.64-1.01-5.18-.59.08.29 9.92 3.13 23.2 7.22 20.64 3.79" filter="url(#a)"/><path d="m-30.21-76.71 13.41-4.75.09 1.55.98 4.3 8.55 4.7 13.65 4.56 12.02 4.17 5.29 2.98-1.68.93-4.79-1.03-3.27-1.69.48-.73 3.74 1.16 4.38 3.02-6.59 2.17-55.74-13.86" filter="url(#a)"/><path d="m57.04-44.83-37.6-18.71-14.02-4.73-.33-3.48 3.41-2.06 5.3.85 7.34 3.54 8.22 4.65 7.03 4 4.03 2.21.07.04-3.99-1.87-7.27-3.07-8.83-3.32-8.03-2.57-5.36-1.27-2.56-.18-1.1-.08.17-1.24 4.43-3.14 9.59-3.95 3.33-2.14" filter="url(#a)"/><path d="M55.78-47.15 42.43-63.36l-4.33-3.41-4.87.22-9.04-.55-10.58-1.32-7.5-.71-1.59.64 3.61 1.78 5.36 2.06 3.84 1.67 2.08 1.6 2.69 2.81 3.77 4.24.09 2.67-3.71-1.73 34.58 8.44" filter="url(#a)"/><path d="m29.65-76.8-9.03 12.12L8.63-62.1l3.06.79 8.16.33 5.7-.06 1.44-.09-2.07-.14-4.5-.68-5.89-1.73-6.07-2.71-5.1-3.08-3.5-2.69-1.96-1.8-.8-.77.38.25 2.44 1.24 5.39 1.87L12.54-70l4.24-.96-5.48-4.2-17.45-4.36-25.3 3.82" filter="url(#a)"/><path d="m-3.13-85.92 38.51 29.28 6.69 1.48-6.82-5.64-9.78-5.43-7.2-3.01-4.13-1.16-2.74-.75-2.09-1.08-1.04-1.18-.2-.84-1.45-.43L1.34-75l-9.03-.28-7.81-.12 2.02-.17 19.46.75 37.86 9.91" filter="url(#a)"/><path d="m35.98-72.58-19.49.4-3.37 3.41-11.13.96-13.35-.73-8.7-1.6-1.99-1.74 3.26-1.18 5.91-.29 6.4.26 5.53.13 3.43-.4-.1-.44-3.96.59L-5.84-71l3.5 2.6 14.4-1.26-5.63-15.86" filter="url(#a)"/><path d="m-41.71-67.15 35.4-4.72-2.5-3.48-6.71-1.78-4.47-.44-1.85.66 1.66 1.32 5.84 1.49L-6-72.96l6.65.27.65-.76-6.01-1.16-7.86-.46-2.79.83.4 2.19-28.98 7.43" filter="url(#a)"/><path d="M49.6-57.44.69-70.41l-11.99-6.52.28-1.85 3.75 1.07 4.71 2.38 5.02 2.6 4.99 2.42 4.7 2.24 4.32 2.1 3.93 1.85 3.49 1.47 3.05 1.24 2.89 1.45 3.13 2.11 3.21 2.64 1.9 2.15-1.49.11-5.49-2.93L25-61.06l.61-4.11 10.41.02 1.75-5.44" filter="url(#a)"/><path d="m8.27-84.96-26.73 10.55 1.85 1.14 10.83 1.48 9.93 2.32L9-67.08l.53 1.7-1.1.24-.95-1.65-.96-3.17-2.36-3.48-4.33-2.26-4.33.2-.04 2.91 7.69 4.3 12.55 1.82 4.81-6.57L8.27-84.96" filter="url(#a)"/><path d="m-27.23-78.62 37.25 4.97 8.8.57 1.73 2.23-2.36 1.21-4.36-1.13-3.96-2.57-2.2-2.51-.44-1.33.74.37 1.35 1.92 1.5 2.5 1.3 1.56.88-.48.49-2.24.54-2.25 2.39.02 10.51 5.47 26.41 18.48" filter="url(#a)"/><path d="m2.76-85.73-8.98 8.35 6.09 1.48 1.4-.38-2.49-.27-1.96.12 1.41.29 4.26.21 4.35.03 1.73-.05-1.75.03-3.86.23-3.43.47-.87.82L.57-73l2.55 2-.63 1.98-6.79.78-10.46-1.45-.28-4.68 31.07-8.93" filter="url(#a)"/><path d="M-47.95-59.9.83-64.65l-.54-6.71-8.65-.95-1.53 3.32 7.12 3.71 10.7 1.45 8.5-1.05 3.43-2.41-1.09-2.68-3.15-2.58-2.94-2.19-2.72-1.24-6.24.02-16.52.72-25.18 4.5" filter="url(#a)"/><path d="m-25.03-79.69 30.1 22.3-6.47-4.03-1.53-7.68 3.25-4.99 2.44-2.05.32-.29-.24.38.29.41.41.18-.34.08-1 .28-.23.71 2.81 1.27 7.6 2.27 11.4 4.04 8.62 5.3-8.69.85-50.83-17.76" filter="url(#a)"/><path d="m17.2-82.74 5.64 17.6-12.5-3.33-6.6-4.49-1.39-2.1 2.21-.14 5.12 1.19 6.85 2 6.91 2.15 5.5 1.62 3.24.71.74-.1-1.87-.5-4.84-.6-8.17-.64-10.54-.71-9.3-.81-2.5-1.31 6.8-3.11 8.14-5.56-5.2-4.55" filter="url(#a)"/><path d="m37.77-70.59-14.03.36L12-65.96l-17.05.16-14.52-.54-6.91.18 1.46.04 6.9-1.14 7.45-2.38 4.09-2.66.6-1.74.59-.08 3.97 1.4 5.32 1.95-3.1 1.68-21.9 2.59-29.13 9.84" filter="url(#a)"/><path d="M63.1-29.16 6.98-53.75l-2.2-13.66 7.04-4.24 2.68.32-2.8 1.12-5.54.23-5.61-.74-3.91-1.16-1.43-1.02.83-.6 1.86-.17 1.1.13-1.06.24-3.47.21-4.76.05-4.11-.15-1.59-.37 2.07-.44 5.88-.03 8.83 1.06 9.76 2.46 7.98 2.62 5.76.4 23.31 6.84" filter="url(#a)"/><path d="M59.53-39.24 22.2-65.28-3-72.73l-9.62.08 2.54 3.59 8.9 4.54 9.46 3.04 6.29.09 2.06-2.84-1.35-4.58-3.32-4.78-4.04-3.71-4.23-1.91-4.6.03-5.23 1.62-4.84 2.44-1.22 2.32 6.49 1.46L9.26-70.3l18.86 4.57 29.64 22.39" filter="url(#a)"/><path d="m-48.75-58.57 22.16-7.38 19.35-6.6 8.36-4.09 5.8-.53 7.63 2.84 7.96 4.8 4.59 4.71-1.14 2.73-6.26-.04-8.45-2.11-7.36-2.42-4.6-1.03-2.65.68-3.26.91-5.84-1.18-6.37-4.33-1.08-6.19-4.02-2.34" filter="url(#a)"/><path d="m33.24-74.55 8.19 12.94-9.25-.46-14.07-6.15-11.75-4.87-8.29-1.21-5.66 1.72-4.02 2.63-2.73 1.54-.6-.62 3.34-2.62 8.62-3.06 13.26-1.03 15.22 2.93 12.87 5.33 1.13-1.84" filter="url(#a)"/><path d="M58.94-40.88 19.92-69.55 5.52-79.83l-3.31-2.86.08.21-1.38 1.45-4.16 1.87-5.35 1.95-3.93 1.96-.62 1.98 3.06 2.02 5.75 2 6.73 1.85 5.95 1.42 3.62.71.26-.15-3.32-.9-5.65-1.24-5.17-1.01-1.36-.28 3.77.33 5.77-.26.66-2.55-11.39-3.18-35.22 5.28" filter="url(#a)"/><path d="M51.97-54.41 30.63-69.5l-12.52-4.64-12.27-2.65-10.08-.87-6.61.57-3.11 1.11-.38 1 1.43.78 2.72.83 4.02 1.2 5.37 1.75 6.21 2.1 5.9 1.81 4.31.73 1.92-.69-.23-1.61-.72-1.2 2.23.73 9.32 3.68 15.71 6.7 9.6 6.67" filter="url(#a)"/><path d="m-50.23-56.66 17.63-1.06 11.57-1.19 2.57-2.13 3.36-4.14 6.64-4.93 8.8-3.57 9.8-.74 9.77 2.18 8.23 3.86L33-64.73l.29 1.85-3.82-.35-5.74-1.48-5.32-.85-4.98.69-7.82.81-11.75-2.5-4.17-8.13 24.96-8.95" filter="url(#a)"/><path d="M53.8-50.9 29.77-69.4l-8.55-3.64-1.59.56 2.24 1.81 4.46 2.9 3.65 3.06-.05 1.66-4.22-.48-6.29-1.83-5.31-1.57h-2.46l.42 1.92 2.75 3.5 5.88 4.75 10.73 5.54 13.56 4.37L51.98-49l-8.14-15.91" filter="url(#a)"/><path d="m-16.48-83.27 27.67 16.36 5.88 5.48 3.35-.02.18-2.83-.98-2.88.09-1.91 1.41-1.33 1.66-1.19.69-.99-1.2-.5-3.65.1-5.87.47-6.68.48-5.21.13-1.98-.42.79-.83.54-.77-2.96.08-6.09 1.59-4.09 3.13-1.96 4.53-36.65 9.81" filter="url(#a)"/><path d="M51.97-54.41 9.33-68.59l-18.94-2.44.28.47 8.95 2.2 9.12 2.42 5.2 1.21.95-.49-1.73-1.76-2.51-1.99-1.94-1.07-1.15.55-1.02 1.95-1.39 2.17-.71 1.03 2.51-.73 7.53-1.66 10.61-.82 7.54 1.09-4.35-.38-34.53-18.78" filter="url(#a)"/><path d="m-3.56-85.75 25.82 15.09 3.45 2.35-.9.72-2.96-.04-3.65-1.1-2.61-1.83-.99-1.64-.33-.42-1.03 1.58-1.91 3.65-1.43 4.73 1.11 3.83 5.53 1.28 10.82-.76 11.27-2.23-9.2-16.35" filter="url(#a)"/><path d="m-18.59-82.59 36.98 16.05-3.66 1.43-10-3.71-4.18-4.24 1.7-2.47 4.23-.46 3.54.61 1.39.73.02.4.56.1 2.14-.1 2.76-.28 1.13-.59-2.06-1.22-4.5-2.17-4.57-3.04-3.9-2.96-4.97-1.42m43.43 18.82-5.13-.91-5.04-2.93.31-.38 1.99.91 2.11 1.72 1.93 2.41.84 2.29-1.69 1.03-4.95-.7-6.86-1.59-5.39-.81-.26 1.19 5.54 2.56L31.62-61l.84-2.45-3.83-4.02L49.6-57.44" filter="url(#a)"/><path d="M60.58-36.78 36.86-62.37l-1.48-4.85-.32-.14-5.08.09-10.01-.75-12-1.41-10.1-1.51-5.42-1.23-.22-.85 3.29-.52 3.98-.32 2.39-.32.61-.33 1.03.13 4.36 1.51 8.16 3.16 7.27 2.08-3.5-5.73L-.19-85.81" filter="url(#a)"/><path d="M61.75-32.83 19.8-61.04 6.87-67.41l7.13.63 11.03 1.72 6.57.42 1.06-.77-2.43-1-3.97-.83-4.65-.83-5.03-.9-5.01-.67-4.67-.24-4.69-.36-5.52-1.5-6.01-2.88-5.27-2.55-8.06 1.79-23.69 13.46" filter="url(#a)"/></g><g fill="none" stroke="#000"><circle cx="10.844" cy="7.936" r="2.43" filter="url(#a)"/><circle cx="7.512" cy="4.724" r="2.356" filter="url(#a)"/><circle cx="10.672" cy="7.712" r="1.754" filter="url(#a)"/><circle cx="9.808" cy="6.452" r="1.36" filter="url(#a)"/><circle cx="9.476" cy="6.796" r="2.05" filter="url(#a)"/><circle cx="10.684" cy="6.044" r="1.144" filter="url(#a)"/><circle cx="9.94" cy="7.616" r="2.298" filter="url(#a)"/><circle cx="10.268" cy="4.472" r="2.472" filter="url(#a)"/><circle cx="8.632" cy="7.224" r="1.518" filter="url(#a)"/><circle cx="9.92" cy="6.752" r="2.432" filter="url(#a)"/><circle cx="-10.038" cy="2.458" r="2.5" filter="url(#a)"/><circle cx="-11.686" cy="3.126" r="1.782" filter="url(#a)"/><circle cx="-10.634" cy="2.97" r="2.856" filter="url(#a)"/><circle cx="-8.926" cy=".854" r="2.018" filter="url(#a)"/><circle cx="-8.938" cy="3.13" r="1.404" filter="url(#a)"/><circle cx="-9.902" cy="-.406" r="1.138" filter="url(#a)"/><circle cx="-8.942" cy="2.778" r="1.06" filter="url(#a)"/><circle cx="-11.122" cy=".242" r="1.414" filter="url(#a)"/><circle cx="-11.838" cy="1.854" r="1.144" filter="url(#a)"/><circle cx="-9.09" cy="3.158" r="1.018" filter="url(#a)"/></g><path fill="#D77F8C" stroke="#000" stroke-linejoin="round" stroke-width="3" d="m-52.22 29.89.42 1.8.45 1.73.48 1.68.51 1.62.55 1.56.57 1.51.61 1.44.63 1.4.66 1.33.68 1.29.72 1.22.74 1.18.76 1.13.79 1.07.82 1.02.83.97.86.93.89.87.9.83.93.78.94.73.97.69.98.64 1 .6 1.02.55 1.04.51 1.06.47 1.07.43 1.08.39 1.1.35 1.12.31 1.12.27 1.14.23 1.15.2 1.17.16 1.17.12 1.18.09 1.2.06 1.2.02 1.21-.01 1.22-.05 1.22-.07 1.24-.11 1.23-.13 1.25-.16 1.24-.2 1.25-.22 1.26-.24 1.25-.28 1.26-.29 1.26-.33 1.26-.34 1.26-.38 1.26-.39 1.25-.41 1.26-.44 1.25-.46 1.25-.47 1.25-.5 1.24-.51 1.23-.54 1.23-.54 1.23-.57 1.21-.58 1.21-.59 1.2-.61 1.2-.62 1.18-.64 1.17-.65 1.16-.65 1.15-.67 1.14-.68 1.12-.69 1.11-.69 1.1-.7 1.08-.71 1.07-.72 1.05-.72 1.03-.72 1.02-.73 1-.74.98-.73.96-.74.94-.74.92-.73.9-.74.88-.74.86-.73.83-.74.81-.73.78-.72.76-.72.74-.72.71-.71.68-.7.65-.69.63-.69.59-.68.57-.66-.99.38-.98.39-.99.39-.99.4-.99.4-.98.41-.99.41-.99.41-.99.42-.98.41-.99.42-.99.42-.99.43-.98.42-.99.42-.99.42-.99.43-.99.42-.98.42-.99.41-.99.42-.99.41-.98.41-.99.41-.99.4-.99.4-.98.39-.99.39-.99.38-.99.38-.98.37-.99.37-.99.35-.99.35-.98.34-.99.34-.99.32-.99.31-.99.31-.98.29-.99.29-.99.27-.99.27-.98.25-.99.24-.99.22-.99.21-.98.2-.99.19-.99.17-.99.16-.98.14-.99.13-.99.11-.99.1-.98.08-.99.06-.99.04-.99.03-.99.01-.98-.01-.99-.03-.99-.05-.99-.07-.98-.09-.99-.11-.99-.13-.99-.15-.98-.17-.99-.2-.99-.22-.99-.24-.98-.27-.99-.29-.99-.31-.99-.34-.98-.37-.99-.38-.99-.42-.99-.44-.99-.47-.98-.5-.99-.52-.99-.55-.99-.59-.98-.6-.99-.64-.99-.67-.99-.7-.98-.73-.99-.76-.99-.79-.99-.82-.98-.86-.99-.89-.99-.92-.99-.95-.98-.99-.99-1.02" filter="url(#a)"/></svg>