<svg xmlns="http://www.w3.org/2000/svg" width="500" height="500" viewBox="-100 -100 200 200"><defs><clipPath id="c"><path d="m34.26-.92.01-.44-.04-.43-.08-.43-.12-.43-.15-.42-.21-.42-.24-.41-.28-.41-.33-.4-.37-.4-.41-.39-.46-.38-.49-.37-.54-.37-.58-.36-.43-.43-.5-.41-.58-.41-.64-.41-.72-.39-.78-.38-.85-.37-.92-.35-.97-.35-1.03-.33-1.09-.31-1.14-.3-1.18-.28-1.23-.26-1.27-.24-1.3-.23-1.34-.2-1.36-.19-1.39-.16-1.41-.15-1.43-.12-1.43-.11-1.45-.08-1.45-.06-1.45-.04-1.45-.02H-.26l-1.44.03-1.42.04-1.4.06-1.39.08-1.37.1-1.35.12-1.32.13-1.3.15-1.26.16-1.24.18-1.21.2-1.17.2-1.14.22-1.11.23-1.07.24-1.04.25-1.01.26-.97.26-.94.27-.91.27-.87.27-.85.28-.81.28-.79.28-.76.28-.74.29-.7.28-.68.29-.66.29-.63.29-.6.29-.58.29-.56.29-.53.29-.51.28-.49.29-.47.28 3.06 8.9.54.18.55.19.57.2.58.2.59.21.6.21.61.22.63.22.64.23.65.23.67.24.67.24.69.25.69.25.71.26.73.26.74.27.75.27.76.27.78.29.8.28.8.29.82.29.83.29.84.3.85.3.86.29.87.3.88.29.89.29.89.29.9.28.91.28.92.27.92.25.92.25.94.24.93.23.94.21.94.19.95.18.94.16.95.15.95.12.95.1.95.07.95.05.95.03h.95l.95-.03.94-.06.94-.09.94-.11.94-.15.93-.18.92-.22.92-.24.92-.28.91-.31.9-.34.9-.37.89-.4.87-.43.87-.46.76-.29.74-.31.74-.32.72-.34.72-.35.71-.37.69-.37.68-.39.67-.4.66-.4.64-.42.62-.42.61-.43.59-.43.57-.43"/></clipPath><clipPath id="b"><path d="m-34.17-1.16-.02-.61.02-.6.07-.58.1-.58.15-.57.19-.55.24-.54.27-.53.32-.51.37-.5.41-.49.44-.47.5-.46.53-.45.57-.42.44-.54.5-.52.58-.5.64-.48.72-.45.78-.44.85-.41.91-.38.98-.36 1.03-.34 1.08-.31 1.14-.28 1.18-.26 1.22-.23 1.27-.21 1.3-.18 1.33-.15 1.36-.13 1.38-.1 1.41-.07 1.41-.05 1.43-.03h1.44l1.45.02 1.44.05 1.44.06 1.44.09 1.42.11 1.42.13 1.39.15 1.38.16 1.36.18 1.34.2 1.32.22 1.28.22 1.26.25 1.23.25 1.2.26 1.16.27 1.14.29 1.09.29 1.07.29 1.03.3 1 .31.96.31.93.31.9.31.87.31.84.32.81.31.78.31.76.31.72.31.7.31.68.31.65.31.62.3.6.31.57.3.55.3.53.29.5.29.48.29.47.28-2.26 8.66-.52.2-.52.2-.54.21-.56.21-.57.22-.58.23-.59.24-.61.24-.62.25-.64.26-.65.27-.66.27-.67.28-.69.29-.7.3-.72.3-.73.31-.75.32-.77.33-.78.33-.79.35-.82.34-.82.36-.85.36-.85.36-.87.37-.88.37-.9.37-.9.38-.92.37-.93.37-.94.37-.95.36-.96.35-.96.35-.98.34-.98.33-.99.31-.99.29-1 .28-1 .26-1 .24-1.01.22-1.01.19-1 .17-1.01.13-1.01.11-1 .07-1 .04-1 .01-1-.04-.99-.07-.98-.11-.97-.15-.97-.19-.96-.24-.95-.28-.94-.32-.92-.37-.92-.41-.9-.45-.89-.5-.88-.54-.86-.58-.76-.36-.76-.38-.74-.4-.74-.43-.72-.45-.71-.46-.69-.49-.68-.5-.67-.52-.65-.54-.63-.55-.61-.56-.6-.57-.58-.59-.56-.59"/></clipPath><filter id="a"><feTurbulence baseFrequency=".05" numOctaves="3" result="noise" type="noise"/><feDisplacementMap in="SourceGraphic" in2="noise" scale="2"/></filter></defs><rect width="100%" height="100%" x="-100" y="-100" fill="#FFE4E1"/><path fill="#CD7F32" stroke="#000" stroke-linejoin="round" stroke-width="1.667" d="m80.87.33.12.49-.02 1.64-.17 1.35-.15 2.69-.07-.38-.33 1.87v1.63l-.06-.54-.35 2.28-.19.51.46-.49-.82 3.28-.04-.54-.24 1.73-.49 2.95.09-.49-.75 1.4-.27 1.31-.14.96-.85 1.83.05.06-.62 2.17-.38.71-1.19 2.42.75-1.36-1.18 2.83.42-.74-1.49 2.16-.15.92-.43.98-1.06 1.96.21-.52-1.65 2.85-.76.75.05.39-.89 1.57.51-1-2.19 2.99-.73.71-.38.78-1.64 1.8.05.29-.79 1.05-1.12.65.54-.1-2.4 2.4-.45-.05-1.19 1.58-.1.61-2.46 1.82.53-.16-1.25.89-.95.82.9-.68-3.23 2.59-1.18.98.25-.52-1.71 1.54-.54.45-2.52 1.58.27-.21-2.19 1.29-1.29 1.02-1.3.51.36.06-.49.28-.37.38-2.62 1.27.28-.08-2.94 1.12-1.08.56 1.22-.22-3 1.12-1.57.54.26-.02-2.27.92-1.54.53.05-.21-.86.26-2.79 1.16-1.13.09-2.44.73 1.31-.37-2.19.62.46-.07-3.78.69.25.14-.97.15-1.67.06-.77.16-.54.37-2.87.14-.61.33-1.98.21-1.98.1-2.31.15.56-.31-.61.24-1.69.11-2.23.03-1.47-.16 1.3-.03-3.83-.24-1.09.2.69-.16-3.19-.06-1.93-.38 1.03.03-2.47-.09-.32.03-3.42-.77-.11-.1-1.25-.21-.33-.09-.61-.07-3.25-.55-1.5-.38 1.66.18-4.17-1-1.48-.77-.35.05-2.1-.5.26-.15-1.17-.32-2.15-.62 1.41.31-2.45-.74-2.5-1.09.38-.02-1.97-.95-1.52-.8 1.1.48-1.61-.72-.22-.37-1.86-.65-2.41-1.75-1.1-.46-.46-.48-2.03-1.26.48.69-2.22-1.68-.48-.16-1.64-1.73 1.09.87-2.61-1.91-.58-.17.63.27-3.63-3.12-.33-.06-.8-.84.1.06-1.84-2 .18.34-2.02-2.24-.3-.35-.78-.94-.61-.4-1.36-1.64-1.41-1.79.14-.04-1.63-1.85.35.25-.38-.47-.93-1.3-1.46-2.16-.89-1.58-.85-1.06-.03-.25.56.87-1.37-2.09-.56-1.59-.18-.7-1.54-2.81-.41-.67.14.65-.27-1.1-1.32-2.58.06-.36-.76-1.99.32 1.46-.96-3.38.34 1.08-.9-2.61-.39-2 .23-.02-.74-1.42-.2-.49-.63-2.91.16.27-.27-2.38.15.22-.29-1.75-.25-1.75-.2-1.21-.27-2.52v1.1l.15-2.48.01-1.15-.13-.24-.21-.88.07-1.98.26-.02-.21-3.53.06 1.57.21-1.88.21-2.22.34-1.79-.11 1.17.25-2.35.45-2.92-.49.91.26-.13.71-3.84-.08-.19.46-.58.06-.28.1-1.13 1.09-2.58-.26-.41 1.15-2.36-.44.02.8-1.53.61-1.68.63-.81-.05-.07 1.12-2.73.19-.35.02-.45 1.53-2.67.07-.31-.46.95 1.58-2.27 1.38-2.53-.35.37.95-1.88.99-.96.3-.47.36-.94 1.87-2.04-1 1.1 2.91-3.41-.59.94.36-1.08 2.59-2.33-.18-.37.44-.33 1.35-1.42.25-.05.54-.85.82-.85 1.23-1.12 1.03-.57 2.19-1.84-1.17.67 2.45-2.05-.07-.06.27.09 2.63-2.16.28-.3 1.67-.97 2.48-1.65-.29.07-.47.63 2.27-1.54.54-.28 1.86-.97 1.39-.84-.93.45 2.12-1.08 1.3-.69 1.79-.91 1.46-.59.72-.4.79.1.93-.47.97-.58 2.61-.73.46-.6 1.68-.26 1.71-.39 1.46-.46-.68.21.63-.21 2.18-.67 1.85-.29 1.39-.27 1.53-.24.52-.18-.14.04 1.94-.29 2.86-.51-.69-.01 1.81-.08 1.78-.33.04.27 1.97-.43 1.81-.15.65.25 1.35-.23 2.63-.04-.25.25.66-.25 2.66.37 1.5-.15 1.83.18.39.18 1.18.03 1.31.18.14-.06 3.21.48.95.31.13.02 1.9.25.77.17h1.48l2.23.6.68.45 2.08.36.87.58.6-.25 1.31.75-.21.01 2.49.55.72.3.61.42 1.79.47 1.49.76 1.93.47.09.53.32.07 1.45.58.65.3.81.28 2.09 1.27.2.12 2.14 1.29 1.03.55.14.16 2.05 1.09.81.68.64.33 2.2 1.9.59.17 1.34.95-.29-.11 1.9 1.69 1.74 1.18.19.26 1.47 1.4.17.08.49.66 2.51 2.57-1.02-.9 1.29 1.09 2 2.01v.06l.33.89 1.09.97 1.54 1.58.59 1.01-.32-.61.71 1.2 1.36 2 .51.54-.09-.24 1.32 2.35.04-.28 1.6 2.4-.27.31 1.04 1.06.24 1.37.55.33 1.54 3.52-.65-1.87 1.86 3.94-.34-.56.45 1.8.36.64.11.38.37 1.33.27.34 1.59 4.86-1.21-3.4.81 2.7.85 1.37.16 2.19.01.06.61 1.78.01.73.36 1.53.15 1.18.12.26.03 1.12.03.98.16 1.04.25 4.57-.09-.83.05 1.71.24 1.14.03.97.12.49" filter="url(#a)"/><path fill="#fff" d="m-34.17-1.16-.02-.61.02-.6.07-.58.1-.58.15-.57.19-.55.24-.54.27-.53.32-.51.37-.5.41-.49.44-.47.5-.46.53-.45.57-.42.44-.54.5-.52.58-.5.64-.48.72-.45.78-.44.85-.41.91-.38.98-.36 1.03-.34 1.08-.31 1.14-.28 1.18-.26 1.22-.23 1.27-.21 1.3-.18 1.33-.15 1.36-.13 1.38-.1 1.41-.07 1.41-.05 1.43-.03h1.44l1.45.02 1.44.05 1.44.06 1.44.09 1.42.11 1.42.13 1.39.15 1.38.16 1.36.18 1.34.2 1.32.22 1.28.22 1.26.25 1.23.25 1.2.26 1.16.27 1.14.29 1.09.29 1.07.29 1.03.3 1 .31.96.31.93.31.9.31.87.31.84.32.81.31.78.31.76.31.72.31.7.31.68.31.65.31.62.3.6.31.57.3.55.3.53.29.5.29.48.29.47.28-2.26 8.66-.52.2-.52.2-.54.21-.56.21-.57.22-.58.23-.59.24-.61.24-.62.25-.64.26-.65.27-.66.27-.67.28-.69.29-.7.3-.72.3-.73.31-.75.32-.77.33-.78.33-.79.35-.82.34-.82.36-.85.36-.85.36-.87.37-.88.37-.9.37-.9.38-.92.37-.93.37-.94.37-.95.36-.96.35-.96.35-.98.34-.98.33-.99.31-.99.29-1 .28-1 .26-1 .24-1.01.22-1.01.19-1 .17-1.01.13-1.01.11-1 .07-1 .04-1 .01-1-.04-.99-.07-.98-.11-.97-.15-.97-.19-.96-.24-.95-.28-.94-.32-.92-.37-.92-.41-.9-.45-.89-.5-.88-.54-.86-.58-.76-.36-.76-.38-.74-.4-.74-.43-.72-.45-.71-.46-.69-.49-.68-.5-.67-.52-.65-.54-.63-.55-.61-.56-.6-.57-.58-.59-.56-.59" filter="url(#a)" transform="translate(32.71 -19.81)"/><path fill="#fff" d="m34.26-.92.01-.44-.04-.43-.08-.43-.12-.43-.15-.42-.21-.42-.24-.41-.28-.41-.33-.4-.37-.4-.41-.39-.46-.38-.49-.37-.54-.37-.58-.36-.43-.43-.5-.41-.58-.41-.64-.41-.72-.39-.78-.38-.85-.37-.92-.35-.97-.35-1.03-.33-1.09-.31-1.14-.3-1.18-.28-1.23-.26-1.27-.24-1.3-.23-1.34-.2-1.36-.19-1.39-.16-1.41-.15-1.43-.12-1.43-.11-1.45-.08-1.45-.06-1.45-.04-1.45-.02H-.26l-1.44.03-1.42.04-1.4.06-1.39.08-1.37.1-1.35.12-1.32.13-1.3.15-1.26.16-1.24.18-1.21.2-1.17.2-1.14.22-1.11.23-1.07.24-1.04.25-1.01.26-.97.26-.94.27-.91.27-.87.27-.85.28-.81.28-.79.28-.76.28-.74.29-.7.28-.68.29-.66.29-.63.29-.6.29-.58.29-.56.29-.53.29-.51.28-.49.29-.47.28 3.06 8.9.54.18.55.19.57.2.58.2.59.21.6.21.61.22.63.22.64.23.65.23.67.24.67.24.69.25.69.25.71.26.73.26.74.27.75.27.76.27.78.29.8.28.8.29.82.29.83.29.84.3.85.3.86.29.87.3.88.29.89.29.89.29.9.28.91.28.92.27.92.25.92.25.94.24.93.23.94.21.94.19.95.18.94.16.95.15.95.12.95.1.95.07.95.05.95.03h.95l.95-.03.94-.06.94-.09.94-.11.94-.15.93-.18.92-.22.92-.24.92-.28.91-.31.9-.34.9-.37.89-.4.87-.43.87-.46.76-.29.74-.31.74-.32.72-.34.72-.35.71-.37.69-.37.68-.39.67-.4.66-.4.64-.42.62-.42.61-.43.59-.43.57-.43" filter="url(#a)" transform="translate(-42.12 -18.53)"/><g fill="none" stroke="#000" transform="translate(32.71 -19.81)"><path stroke-linejoin="round" stroke-width="1.667" d="m-32.05 5.34-.34-.67-.32-.67-.3-.67-.26-.66-.24-.66-.2-.65-.17-.64-.14-.63-.09-.63-.06-.62-.02-.61.02-.6.07-.58.1-.58.15-.57.19-.55.24-.54.27-.53.32-.51.37-.5.41-.49.44-.47.5-.46.53-.45.57-.42.44-.54.5-.52.58-.5.64-.48.72-.45.78-.44.85-.41.91-.38.98-.36 1.03-.34 1.08-.31 1.14-.28 1.18-.26 1.22-.23 1.27-.21 1.3-.18 1.33-.15 1.36-.13 1.38-.1 1.41-.07 1.41-.05 1.43-.03h1.44l1.45.02 1.44.05 1.44.06 1.44.09 1.42.11 1.42.13 1.39.15 1.38.16 1.36.18 1.34.2 1.32.22 1.28.22 1.26.25 1.23.25 1.2.26 1.16.27 1.14.29 1.09.29 1.07.29 1.03.3 1 .31.96.31.93.31.9.31.87.31.84.32.81.31.78.31.76.31.72.31.7.31.68.31.65.31.62.3.6.31.57.3.55.3.53.29.5.29.48.29.47.28.44.28.42.28.4.27.39.26.36.26.35.26.33.25.32.24.3.24.29.24" filter="url(#a)"/><path stroke-linejoin="round" stroke-width="2.222" d="m-35.82-.35.31.53.33.56.37.56.39.58.43.59.44.59.47.6.5.6.51.6.54.59.56.59.58.59.6.57.61.56.63.55.65.54.67.52.68.5.69.49.71.46.72.45.74.43.74.4.76.38.76.36.86.58.88.54.89.5.9.45.92.41.92.37.94.32.95.28.96.24.97.19.97.15.98.11.99.07 1 .04 1-.01 1-.04 1-.07 1.01-.11 1.01-.13 1-.17 1.01-.19 1.01-.22 1-.24 1-.26 1-.28.99-.29.99-.31.98-.33.98-.34.96-.35.96-.35.95-.36.94-.37.93-.37.92-.37.9-.38.9-.37.88-.37.87-.37.85-.36.85-.36.82-.36.82-.34.79-.35.78-.33.77-.33.75-.32.73-.31.72-.3.7-.3.69-.29.67-.28.66-.27.65-.27.64-.26.62-.25.61-.24.59-.24.58-.23.57-.22.56-.21.54-.21.52-.2.52-.2.5-.18.48-.18.48-.18.46-.16.44-.17.44-.15.42-.15.41-.15.4-.14.38-.13" filter="url(#a)"/><circle cx="14.89" cy=".39" r="4.63" clip-path="url(#b)" filter="url(#a)"/><circle cx="18.535" cy=".24" r="4.434" clip-path="url(#b)" filter="url(#a)"/><circle cx="17.025" cy="2.09" r="3.448" clip-path="url(#b)" filter="url(#a)"/><circle cx="17.955" cy="2.97" r="4.498" clip-path="url(#b)" filter="url(#a)"/><circle cx="18.825" cy=".795" r="4.206" clip-path="url(#b)" filter="url(#a)"/><circle cx="15.26" cy="2.485" r="4.166" clip-path="url(#b)" filter="url(#a)"/><circle cx="19.19" cy="2.76" r="3.652" clip-path="url(#b)" filter="url(#a)"/><circle cx="19.24" cy="2.495" r="3.182" clip-path="url(#b)" filter="url(#a)"/><circle cx="14.895" cy="3.36" r="4.858" clip-path="url(#b)" filter="url(#a)"/><circle cx="15.615" cy="3.85" r="3.586" clip-path="url(#b)" filter="url(#a)"/></g><g fill="none" stroke="#000" transform="translate(-42.12 -18.53)"><path stroke-linejoin="round" stroke-width="2.222" d="m32.41 3.56.31-.46.28-.45.27-.45.23-.45.21-.45.18-.45.14-.45.12-.44.07-.44.04-.44.01-.44-.04-.43-.08-.43-.12-.43-.15-.42-.21-.42-.24-.41-.28-.41-.33-.4-.37-.4-.41-.39-.46-.38-.49-.37-.54-.37-.58-.36-.43-.43-.5-.41-.58-.41-.64-.41-.72-.39-.78-.38-.85-.37-.92-.35-.97-.35-1.03-.33-1.09-.31-1.14-.3-1.18-.28-1.23-.26-1.27-.24-1.3-.23-1.34-.2-1.36-.19-1.39-.16-1.41-.15-1.43-.12-1.43-.11-1.45-.08-1.45-.06-1.45-.04-1.45-.02H-.26l-1.44.03-1.42.04-1.4.06-1.39.08-1.37.1-1.35.12-1.32.13-1.3.15-1.26.16-1.24.18-1.21.2-1.17.2-1.14.22-1.11.23-1.07.24-1.04.25-1.01.26-.97.26-.94.27-.91.27-.87.27-.85.28-.81.28-.79.28-.76.28-.74.29-.7.28-.68.29-.66.29-.63.29-.6.29-.58.29-.56.29-.53.29-.51.28-.49.29-.47.28L-36-5l-.42.28-.41.27-.39.27-.37.26-.36.26-.33.25-.33.26-.3.24-.29.24" filter="url(#a)"/><path stroke-linejoin="round" stroke-width="2.222" d="m35.11 1.21-.31.35-.35.37-.37.38-.41.4-.43.41-.46.41-.48.43-.51.43-.53.43-.55.43-.57.43-.59.43-.61.43-.62.42-.64.42-.66.4-.67.4-.68.39-.69.37-.71.37-.72.35-.72.34-.74.32-.74.31-.76.29-.87.46-.87.43-.89.4-.9.37-.9.34-.91.31-.92.28-.92.24-.92.22-.93.18-.94.15-.94.11-.94.09-.94.06-.95.03H5.9l-.95-.03-.95-.05-.95-.07-.95-.1-.95-.12-.95-.15-.94-.16-.95-.18-.94-.19-.94-.21-.93-.23-.94-.24-.92-.25-.92-.25-.92-.27-.91-.28-.9-.28-.89-.29-.89-.29-.88-.29-.87-.3-.86-.29-.85-.3-.84-.3-.83-.29-.82-.29-.8-.29-.8-.28-.78-.29-.76-.27-.75-.27-.74-.27-.73-.26-.71-.26-.69-.25-.69-.25-.67-.24-.67-.24-.65-.23-.64-.23-.63-.22-.61-.22-.6-.21-.59-.21-.58-.2-.57-.2-.55-.19-.54-.18-.52-.18-.51-.18-.5-.17-.49-.16-.48-.17-.46-.15-.45-.15-.43-.15-.43-.14-.41-.14" filter="url(#a)"/><circle cx="-16.119" cy="-2.915" r="4.46" clip-path="url(#c)" filter="url(#a)"/><circle cx="-15.719" cy="-2.545" r="4.216" clip-path="url(#c)" filter="url(#a)"/><circle cx="-14.644" cy="-3.365" r="4.816" clip-path="url(#c)" filter="url(#a)"/><circle cx="-16.444" cy="-2.345" r="3.944" clip-path="url(#c)" filter="url(#a)"/><circle cx="-15.054" cy="-1.42" r="4.574" clip-path="url(#c)" filter="url(#a)"/><circle cx="-15.394" cy="-1.205" r="4.404" clip-path="url(#c)" filter="url(#a)"/><circle cx="-15.004" cy="-1.89" r="4.02" clip-path="url(#c)" filter="url(#a)"/><circle cx="-12.769" cy="-4.2" r="4.194" clip-path="url(#c)" filter="url(#a)"/><circle cx="-12.674" cy="-2.405" r="3.288" clip-path="url(#c)" filter="url(#a)"/><circle cx="-16.969" cy="-.95" r="3.44" clip-path="url(#c)" filter="url(#a)"/></g><g fill="none" stroke="#E6E6FA" stroke-linejoin="round" stroke-width="2"><path d="m14.76-74.18 33.51 21.04 8.45 8.44-9.23.98-18.25-3.26-17.16-4.6-9.7-3.99-1.57-2.81L4-60.49l3.76-2.09 1.62-2.39-1.03-2.47-2.83-2.12-3.43-1.4-3.11-.64-2.15-.04-.73.28 1.14.52 3.7.99 7.55 2.1 12.59 3.66 15.16 4.12 6.77-.18-17.64-11.87" filter="url(#a)"/><path d="m47.28-61.37-26.29-7.5-12.25-.96-4.78 1.13 1.21 2.46 4.27 3.21 4.99 2.92 4.5 1.83 3.54.58 2.44-.42 1.19-1.12-.43-1.69L23.05-63l-5.25-1.95-7.62-1.14-8.63.26-6.96 1.79-2.13 3.03 4.24 3.97 8.13 4.62 2.28 2.37-46.56-15.9" filter="url(#a)"/><path d="m21.14-73.16 8.5 6.09-11.44-1.2-13.94-.21-12.9 1.33-9.37 1.58-3.55 1.15 2.35 1 5.88 1.54 5.98 2.36 3.36 2.76v2.26l-1.78 1.06-.29-.21 4.5-.79 10.4-.48 13.47.04 10.49-.51 2.5-2.6-3.27-4.46 1.25-2.96 4.08-1.7" filter="url(#a)"/><path d="m-15.1-74.17-8.24 2.55 2.51 1.56 8.91 3.31 11.38 4.38L10.1-58.5l8.81 2.44 7.1 1.12 5.9.51 5.09.68 4 1.09 1.63 1.06-2.59.15-7.93-1.24-12.24-2.25-12.72-2-7.6-.34 2.1 2.09 11.51 4.28 13.33 5.21 3.67 4.01-3.86 1.92 49.19 12.21" filter="url(#a)"/><path d="M75.6-26.32 17.41-52.37 5.83-57.21l8 .78 5.09 1.4-3.5-.37-6.73-2.49L5.91-61l4.14-1.85 8.38.24 6.64 1.63-.51 1.47-8.49.05-10.06-1.56 1.02-1.31L30-57.07 73.63-31.5" filter="url(#a)"/><path d="m.8-75.47-6.26 1.09 6.23 1.87 6.43 2.4 2.73 1.43 1.09.34 2.48.21 5.04 1.03 6.75 2.21 6.54 3.05 4.46 3.12 1.45 2.44-1.17 1.44-2.5.6-2.63.19-2.64-.02-3.87-.41-6.92-1.15-10.87-1.78-13.41-1.4-11.91.4-4.53 2.96 7.67 4.29 13.19.6-36.41-16.02" filter="url(#a)"/><path d="m75.15-28.12-13.38-8.59-25.58-9.16-19.46-8.12-10.87-6.66-6.14-4.51-2.77-2.19 1.17-.43 4.37.41 4.8.56 2.42.7-.46 1.44-.98 2.76 2.49 3.9 7.37 3.99-.85 1.67-58.12-12.76" filter="url(#a)"/><path d="m7.45-75.32 19.74 6.08 12.38 6.31 9.63 6.19 5.54 3.83.57.81-4.25-1.51-8.18-2.59-10.4-2.69-10.34-2.36-8.35-1.99-5.5-1.69-2.85-1.26-.61-.45 1.55.68 3.24 1.69 3.01 1.96-.08 1.01-4.14-.87-3.61-3.1 24.88-5.14" filter="url(#a)"/><path d="m-23.06-72.35 25.44.64 9.42 1.14 1.48-.13-1.76-.7-3.75-.66-4.1-.34-2.38.1.49.48 2.88.76 3.54.95 2.23 1.13-.53 1.3-3.71 1.33L.26-65.3l-5.77.38-2.41-.3 3.4-.29 9.17.95 11.75 2.61 8.19 1.75-4.87-5.13-22.65-10.12" filter="url(#a)"/><path d="m-44.75-63.02 57.45 5.71 7.41-4.38 2.26-1.48 5.18 1.75 4.53 2.54.95 1.87-2.55.96-4.67.27-5.55-.34-5.5-.9-4.41-1.31-2.4-1.36-.21-1.09 1.08-.7 1.07-.43.41-.41.08-.71.1-1.45-.69-2.5-3.34-3.05-7.84-1.64-15.73 2.69-34.89 11.01" filter="url(#a)"/><path d="m-57.74-53.06 34.61 1.3 35.5-.02 11.72-3.98-5.37-4.44-10.1-2.86L2.77-64l.99.59 4.77 1.38 3.2 1.16-2.05.02-6.8-1.36-7.41-2.21-3.62-2.24.69-1.65.02-.77-6.96.24-10.71.3 10.01-5.63" filter="url(#a)"/><path d="M35.5-68.29 9.35-70.01l-13.67.26 2.57.08 9.27.57 8.93 1.79 6.29 3.23 4.22 4.17 3.4 4.14 3.08 3.09 2.05 1.31-.43-.76-3.96-2.45-7.36-3.15-9.33-2.55-9.16-.91-6.6.99-1.69 2.3 4.44 2.56 8.09 2.1 4.75 2.16 2.98 5.49 57.06 15.96" filter="url(#a)"/><path d="m53.66-56.44-24.85-.99-22.44-1.99-8.8-2.88.11-2.5 4.5-1.73 5.35-1.19 4.01-.83 2.17-.38.87.43.22 1.58-.71 2.68-3.06 3.01-6.98 1.88-10.63-.66-10.84-3.09-6.96-2.84-6.22 1.96-30.1 14.09" filter="url(#a)"/><path d="m68.31-40.45-36.9-12.12-23.65-3.29-5.64.18 4 1.88 8.22 2 9.27 1.19 7.65.02 3.72-1.22-1.36-2.31-5.9-2.99-8.51-2.96-8.77-2.25-7.35-1.19-5.51-.24-4.28.17-3.69-.07-2.5-.78.92-1.55 6.77-1.68 13.07-.26 17.6 3.8 21.92 11.95 28.57 26.49" filter="url(#a)"/><path d="m57.23-53.52-17.47-4.24-12.15.21-7.21-1.21-6.61-3.94-5.55-4.6-3.72-3.43-2.76-1.73-3.37-.2-4.42.89-3.89 1.54-.25 1.89 5.97 2.17 11.98 2.65 13.98 3.18 9.34 2.96-1.93 1.57-20.5 1.26-67.23 2.34" filter="url(#a)"/><path d="m-52.08-58.03 64.27.87 14.22-3.65-3.3-2.23-6.42-.41-2.82.65 1.02.54 2.16-.37 1.08-1.27-.67-1.5-2.29-.95-3.71-.06-4.68.74-4.18 1.24-1.38 1.61 2.86 2.08 5.59 2.7 4.01 3.34.33 4.18 4.24 5.71 23.16 6.07 24.05-5.85" filter="url(#a)"/><path d="m-60.96-49.19 29.64-8.42 23.88-4.48 10.27-1.08 6.94 1.49 6.95 2.54 4.8 2.2.91 1.37-2.33.88-3.76.88-3.7 1.05-2.73 1.02-1.23.75.44.42 1.67.2 1.97.12 1.43.07.71.03.36.04.19.14-.28.19-.78-.23.36-1.92 3.44-6.23L1.05-75.72" filter="url(#a)"/><path d="M62.5-48.03-.66-53.7l1.07-4.58 14.58-2.16 11.6-.73 6.39-.07 2.02.01-1.22-.05-2.87.15-2.79.55-1.76.74-1.09.38-1.59-.49-2.8-1.36-3.37-1.7-2.15-1.19.86-.01 4.37 1.43 6.88 2.58 7.8 3.17 7.01 2.91 1.9.93-15.23-4.88-52.79-14.03" filter="url(#a)"/><path d="m-32.99-69.17 42.27 2.98 23.84 4.61 9.17 1.19 1.07-.75-4.03-1.35-8.38-1.4-11.61-1.22-12.09-.93-8.95-.57-3.03-.09 3.21.53 6.98 1.21 6.55 1.72 2.29 1.83-3.47 1.55-7.91.98-9.53.34-8.52-.17-4.08.24 10.98 2.28 61.89-.25" filter="url(#a)"/><path d="m14.76-74.18-.45 9.42 10.42 4.98 2.15-1.84-1.67-2.89-3.03-1.41-4.66.05-6.02.81-5.92.98-4.57.72-3.26.14-2.75-.63-2.69-1.31-2.13-1.68-.55-1.52 1.55-.97 3.05-.31 2.86.04.56-.17-2.94-.89-4.74-1.58-2.01-1.61-2.92-.36" filter="url(#a)"/><path d="m10.47-74.99 19.8 11.31 13.69 9.69-2.44.84-11.9-3.44-11.79-3.09-5.61-.74 1.65 1.51 6.21 2.58 6.58 2.29 3.43 1.2-1.18.14-4.82-.31-5.76-.15-3.69.1-.08-.23 2.59-1.47 2.06-3.19-1.97-4.28-7.39-3.51-11.11-.42-9.44 4.1 7.62 8.29 68.54 9.18" filter="url(#a)"/><path d="M62.5-48.09 19.76-63.63l-8.61-2.85 1.41-.27 2.14-.11.74.12-1.33.6-3.26 1.02-4.2 1.09-3.64.67-1.78-.11.77-.9 3.17-1.35 4.55-1.31 4.33-.93 2.63-.41.25.13-1.34.77-.7 1.57 2.89 2.51 8.41 3.4 12.25 3.84 8.66 2.71-7.55-2.78-42.48-19.23" filter="url(#a)"/><path d="m23.9-72.35-19-1.19-15.62 1.78-8.03 3.09 1.01 2.66 6.16 1.31 5.99-.02 3.27-.77 1.25-.82 1.17-.32 2.34.5 3.72 1.47 4.41 2.33 3.58 2.68.37 2.21-5.07 1.04-10.65-.08-13.29-.45-10.13-.64 5.29-3.21 49.01-9.63" filter="url(#a)"/><path d="M72.19-33.48 21.2-55.65l3.09-.63 13.41 3.8 6.36.24-2.39-3.24-7.28-3.99-8.14-2.85L20-63.83l-2.93-.91.15-.91 1-.9-1.3-.44-4.75.69-3.82 2.78 7.61 6.21 27.26 9.93 25 6.69" filter="url(#a)"/><path d="m-45.04-62.95 40.59-5.38 16.47-.1 3.54 1.66-1.2 2.44-3.08 2.01-4.55.62-5.11-.99-3.47-2.13.3-2.35 4.37-1.6 6.4-.35 4.68.56-1.15.41-9.4-.52-16.27-.29-19.54 3.9-26.89 13.75" filter="url(#a)"/><path d="m14.63-74.2-7.29 6.21 9.82 2.97 7.74 1.26 7.49 2.84 6.26 3.75 1.99 2.43-2.95.09-5.39-1.49-4.77-1.61-3.42-.93-3.97-.43-6.04-.6-5.86-1.32-.14-2.05 7.07-2.52 1.51-3.51-26.98-5.86" filter="url(#a)"/><path d="m26.47-71.26-20.73-.83-17.24 3.91-12.67 2.88-6.06.55-1.65-.35.92-.16 3.89.27 8.59 1.09 14.53 2.82 19.69 5.15 20.95 6.28 15.37 3.87 2.67-2.77-13.24-10.99-27.81-14.97" filter="url(#a)"/><path d="m16.66-73.93-21.85 1.01-1.83 1.57 2.83 4.9 3.77 5.98 3.35 3.64 2.34.07.4-2.17-3.37-2.15-8.59-.63-12.77.98-12.63 1.49-6.46.25 4.13-2.65 14.08-5.77 16.12-6.13 5.28-2.18" filter="url(#a)"/><path d="m16.66-73.93-27.27 6.59 9.24 2.41L11.7-63.7l9.37.14 5.81-.52 3.25-.61 1.26-.29-.42.2-1.66.72-2 1.25-1.14 1.76.45 2.05 1.7 1.84 1.58 1.06h.16l-1.37-.67-1.77-.36-1.36.85-2.09 2.14-4.77 2.59-10.09.76-51.31-13.35" filter="url(#a)"/><path d="m30.29-69.99-.63 3.81-3.12.51 5.97 2.49L41-59.06l5.48 4.39.83 3.3L45.05-50l-2.53-.62-1.52-2.1-2.44-3.13-7.15-3.93-13.48-4.48L2.6-68.71l-8.3-3.78-7.46-1.97" filter="url(#a)"/><path d="M30.29-69.99 3.01-54.17l13.47 2.65 4.73-3.66-3.97-4.2-4.41-2.06-.3.25 3.87 1.59 6.07 1.98 6.65 2.01 6.61 2.14 6.2 2.35 4.58 2.23.69 1.26-5.49-.76-11.79-3.6-13.74-6.42-7.66-7.78.98-6.11-8.7-3.17" filter="url(#a)"/><path d="m55.4-55.26-44.37-8.48-19.74.45-11.9 2.33-.16 1.08 9.3-.52 10.85-1.56 6.05-1.83.88-1.37-.21-.52 2.06.14 2.88.05-1.14-.65-7.27-.64-12.61 1.75-42.1 7m49.15-17.42 1.47-.38 1.35-1.3 1.26-2.57 1.37-3.06 1.52-2.56 1.59-1.7 1.55-.99 1.46-.58 1.38-.33 1.35-.2 1.44-.3 1.64-.74 1.81-1.43 1.84-1.99 1.73-1.99 2.15-1.95" filter="url(#a)"/><path d="m23.11-97.77-2.06 3.48-1.88 2.36-1.58.89-1.53.29-1.58.58-1.62 1.25-1.6 1.81-1.56 1.95-1.52 1.59-1.5.9-1.5.24-1.46-.02-1.4.27-1.29.9-1.25 1.38-1.26 1.47-1.22 1.55-.88 1.18" filter="url(#a)"/><path d="m-9.18-75.06 1.27-.16 1.11-.08 1.21-.07 1.28-.05 1.28-.03 1.25-.01 1.22.02 1.21.04 1.22.05 1.28.08 1.32.1 1.31.13 1.23.15 1.12.17 1.03.18 1.04.17 1.25.21 2.1.37-26.71-.67 1.54-1.94 1.02-.89 1.04-.81 1.12-1.12 1.17-1.6 1.22-1.94 1.28-1.83 1.31-1.21 1.35-.38 1.39.3 1.41.58 1.45.45 1.5.05 1.55-.47 1.57-.94 1.57-1.3 1.55-1.44 1.53-1.33 1.54-1 1.63-.75 1.77-.93 1.89-1.75 2.02-2.94 2.67-4.11-36.09 27.3 1.76-.28 1.1-.03 1.08.18 1.16.34 1.21.46 1.23.59 1.26.72 1.25.8 1.22.73 1.18.55 1.15.35 1.15.25 1.17.3 1.2.46 1.18.63 1.09.76.95.84.79.97.62 1.18.23 1.52-23.78-11.07-.89-.08-1.35-.16-1.74-.79-1.86-1.25-1.74-1.25-1.51-.95-1.31-.54-1.23-.13-1.22.24-1.26.49-1.36.5-1.55.19-1.8-.41-2.08-1.15-2.34-1.79-2.52-2.09-2.59-1.94-2.53-1.37-2.41-.63-2.22-.14-1.87-.22-.72-1.04" filter="url(#a)"/><path d="m.99-71.24-1.92-.31-1.41-.31-1.26-.37-1.24-.29-1.2-.2-1.17-.14-1.14-.11-1.14-.1-1.16-.12-1.19-.1-1.18-.07-1.08-.01-.97-.02-.94-.11-1.1-.13-1.29.11-2.51-2.22-2.39-3.09-1.78-2.36-1.42-1.4-1.3-.54-1.39-.03h-1.59l-1.87-.36-2.15-.92-2.29-1.35-2.21-1.37-1.89-.91-1.52-.14-1.39.42-1.72.36-2.54-.58-3.36-1.99" filter="url(#a)"/><path d="m.93-88.31-.67.27-1.45.53-1.5.76-1.42 1.15-1.35 1.34-1.31 1.2-1.26.91-1.22.65-1.19.61-1.15.75-1.11.95-1.07 1.07-1 .99-.95.7-.98.39-1.07.37-1.18.95-1.3 1.49m13.3-24.06-1.54 2.19-1.03 2.83-1.04 2.41-1.14 1.66-1.17 1.3-1.11 1.51-.95 1.95-.8 2.18-.73 2.07-.79 1.74-.98 1.37-1.24.98-1.49.59-1.49.44-.61 1.72" filter="url(#a)"/><path d="m-58.44-72.19 1.61-1.65 1.92-.24 1.87.63 1.76.68 1.62.34 1.51.02 1.46-.13 1.46-.12 1.5-.04 1.57.03 1.62.07 1.65.11 1.64.18 1.58.23 1.5.22 1.43.15 1.38.04 1.41-.09 1.44-.2 1.45-.28 1.48-.26 1.6-.04 1.6-.02-1.46.46.91.04.79.53 1.01.19 1.17-.28 1.24-.47 1.21-.38 1.17-.18 1.14.08 1.14.32 1.19.53 1.22.66 1.23.71 1.21.63 1.18.46 1.15.24 1.13.05 1.15.04 1.17.25 1.21.64 1.24.9 1.15.73.53.35" filter="url(#a)"/><path d="m-25.55-71.71 1.12-1.17.36-1.97.4-1.44.79-.86 1.09-.78 1.21-.93 1.19-1 1.12-.99 1.05-.97 1.02-1.09 1.04-1.32 1.07-1.63 1.09-1.83 1.1-1.89 1.12-1.74 1.15-1.46 1.21-1.14 1.64-1.02" filter="url(#a)"/><path d="m-27.23-71.45 1.09-1.7.86-1.63.84-.77.84-.54.9-.77.99-1.14 1.03-1.51 1.02-1.73.98-1.67.99-1.33 1.09-.85 1.19-.51 1.27-.48 1.28-.78 1.24-1.21 1.19-1.57 1.21-1.7 1.3-1.64 1.45-1.57 1.51-1.62 1.22-.15" filter="url(#a)"/><path d="m-35.17-68.18-1.58.8-1.35.64-1.12.5-1.01.45-1.01.47-1.02.5-1.02.51-.99.48-.98.47-1.03.46-1.13.48-1.23.52-1.31.55-1.29.58-1.21.59-1.1.6-1.01.58-.99.57-1.08.58-1.23.61-1.35.72-1.25.95 22.2-11.01 1.34-.72 1.3-.78 1.02-.93.71-1.22.57-1.44.63-1.48.82-1.32 1.04-1.1 1.17-.91 1.22-.76 1.18-.66 1.09-.6 1-.6.96-.72 1.01-.93 1.16-1.1 1.31-1.17 1.36-1.16 1.17-1.23.81-.8-38.2 35.13.97-1.04.79-1.12.65-1.07.59-.94.62-.84.68-.8.78-.81.89-.86 1.01-.89 1.07-.88 1.04-.81.91-.7.71-.57.64-.51.79-.57.75-.65-.54.28.92-.36 1.09-.5 1.02-.41 1.01-.32 1.13-.32 1.23-.4 1.27-.46 1.21-.47 1.12-.42 1.03-.34.99-.31 1.05-.35 1.21-.4 1.35-.42 1.06-.33" filter="url(#a)"/><path d="m-62.2-53.77.52-.19.86-.44 1.08-.57 1.21-.62 1.23-.64 1.15-.64 1.06-.61 1-.56 1.02-.52 1.06-.54 1.09-.66 1.09-.87 1.07-1.05 1.06-1.03 1.07-.64.9.19.22.84 31.35.9-1.53-.89-1.32.11-1.11.16-.97-.07-.98-.28-1.09-.38-1.22-.4-1.33-.36-1.4-.33-1.4-.28-1.35-.19-1.26-.07-1.2.05-1.19.12-1.26.09-1.39-.01-1.5-.12-1.51-.17-1.42-.12-1.27.04-1.16.29-1.15.56-1.31.73-2.03.62" filter="url(#a)"/><path d="m-45.51-62.32-1.81-6.23 1.5-.55 1.34-.49.72-1.21.42-1.63.44-1.78.64-1.74.85-1.59.93-1.46.83-1.5.56-1.79.32-2.19.34-2.46.7-2.71 1.29-3.59M78.91-15.91l.66.47.52.94.28 1.07.29 1.05.55.99.92.97 1.33 1.02 1.63 1.14 1.68 1.25 1.53 1.34 1.23 1.37.97 1.35.87 1.32 1 1.3L93.67 1l1.6 1.41 1.79 1.5 1.75 1.59 1.53 1.62 1.24 1.58 1.01 1.51.86 1.4.85 1.36 1.86 2.13" filter="url(#a)"/><path d="m-47.23-61.37 1.09-1.52.24-1.02.31-.88.5-1.01.68-1.07.79-1.01.83-.96.79-1.09.73-1.34.68-1.61.68-1.77.69-1.77.7-1.65.7-1.52.7-1.46.74-1.63.81-2.04.97-2.2 1.07-1.06-15.65 27.88-1.69 1.4-.85.8-.62.76-.56.88-.54 1-.54 1.1-.49 1.19-.4 1.25-.26 1.27-.16 1.25-.09 1.2-.04 1.18.02 1.21.11 1.34.17 1.46.11 1.45-.04 1.3-.33 1.18-1.74 1.52" filter="url(#a)"/><path d="m-52.08-58.03.92-.44 1.42-.74 1.46-.68 1.34-.61 1.2-.49 1.12-.3 1.15-.09 1.25.07 1.34.14 1.38.14 1.35.09 1.28-.03 1.23-.15 1.21-.22 1.27-.19 1.32-.01 1.38.26 1.38.51 1.3.57 1.22.34 1.27-.05 1.81-.15-28.6 2.03.53-.93.88-1.42 1.02-1.29.97-1.18.83-1.06.75-.92.73-.85.74-.87.74-.96.75-1.05.76-1.12.78-1.16.81-1.23.84-1.35.83-1.46.82-1.52.82-1.45.82-1.34.86-1.25.91-1.32.98-1.57 1.01-1.91 1-2.04 1.24-1.59" filter="url(#a)"/><path d="m-39.81-92.13-.56 1.98-.6 1.54-.52 1.78-.68 1.75-.91 1.63-.99 1.57-.97 1.56-.92 1.45-.98 1.21-1.11.88-1.25.58-1.31.4-1.23.42-1.03.63-.7 1.06-.3 1.72.11 2.48.38 3.04.37 3.05.13 2.47.11 1.69.76 1.27-23.73 10.15 2.21-.7 1.44-.52 1.44-.52 1.39-.56 1.35-.6 1.34-.59 1.35-.5 1.3-.43 1.16-.41 1.02-.45.99-.45 1.14-.38 1.34-.35 1.45-.49 1.49-.79 2.04-1.03" filter="url(#a)"/><path d="m-75.6-35.22 1.39-2.13 1.13-1.51.93-1.13.83-.97.8-.91.81-.88.83-.86.85-.85.88-.83.94-.81.99-.78 1.02-.76 1-.76.93-.77.85-.77.76-.75.72-.72.7-.72.76-.72.89-.75 1.11-.78 1.39-.9 1.8-1.31-2.29.83-2.79-.4-2.4-.37-1.99-.16-1.97-.25-2.1-.39-2.12-.35-1.93-.08-1.61.31-1.3.68-1.13.92-1.23.88-1.68.58-2.34.14-2.91-.21-3-.24-2.55-.01-2.66-.47" filter="url(#a)"/><path d="m-55.48-54.75-.64-3.07.37-1.07.78-.64.57-1.02.27-1.57.19-1.9.32-1.95.43-1.92.37-1.9.16-1.9.03-1.78.19-1.49.7-1.09 1.26-.84 1.39-1.38 2.59-2.64-.83 1.79-.19 1.65-.59 1.33-1 .96-1.06.84-.87.93-.65 1.12-.53 1.31-.52 1.48-.51 1.65-.43 1.81-.3 1.92-.16 1.93-.07 1.81-.12 1.59-.33 1.27-.65 1-.88.92-.89 1.1-.66 1.44 1.36-.72 1.67-.28 1.45-.28 1.17-.36 1.14-.27 1.29-.1 1.44-.03 1.44-.16 1.3-.46 1.07-.74.87-.86.8-.7.87-.38 1.05-.03 1.3.18 1.58.28 1.83.38 1.89.38" filter="url(#a)"/><path d="m-40.99-68.54-1.33 1.01-1.23.94-1.01.85-.83.75-.74.71-.77.75-.87.84-.96.9-1.02.93-1.01.9-.97.84-.91.78-.85.76-.83.77-.81.84-.84.92-.86.96-.85.93-.75.84-.58.68-.34.33m-1.35 1.42-.52.37-.79.76-.93.92-.98.86-.98.8-.91.8-.85.83-.81.86-.82.86-.86.84-.9.85-.92.88-.94.92-.97.96-.99.93-1.03.83-1.04.73-1.03.7-1.04.76-1.03.67-1.01.22" filter="url(#a)"/><path d="m-90.24-24.88.69-.84.62-1.21.78-1.16 1.02-1.06 1.24-.97 1.33-.92 1.25-.91 1.08-.96.89-1 .76-1.01.72-.99.77-.93.92-.87 1.14-.81 1.39-.74 1.62-.65 1.76-.55 1.77-.45 1.59-.45 1.25-.62 1.02-.94 1.4-1.49" filter="url(#a)"/><path d="m-93.92-25.89 1.31-.71 1.33-1.02 1.82-.84 1.97-.76 1.84-.78 1.62-.82 1.44-.83 1.29-.88 1.1-.91.95-.94.88-.91.91-.86.97-.82.99-.87.94-.94.95-.98 1.12-.86 1.44-.61 1.67-.4 1.54-.45 1.21-.84 1.4-1.49 7.16-31.04-.38 2.49-.92 1.59-1.03 1.25-.69 1.31-.34 1.5-.17 1.64-.18 1.67-.35 1.58-.57 1.39-.7 1.22-.67 1.14-.46 1.21-.2 1.34-.04 1.43-.07 1.41-.29 1.29-.57 1.12-.79.99-.74.99-.34 1.24.33 1.7.68 1.93-.54 1.65-4.82 8.04-.13-.22.33-.52.54-1.02.45-1.29.29-1.35.22-1.31.26-1.2.43-1.07.6-.96.7-.91.72-.93.65-.97.56-1.01.51-1.05.65-1.27 1.35-2.06-9.66 19.81-1.15.12-.66.79-1.04.85-1.35.76-1.38.76-1.17.88-.92 1-.76 1.11-.77 1.17-.83 1.19-.92 1.16-.93 1.09-.98.98-1.15.87-1.47.84-1.75.92-1.65 1-1.1.68-.1-.39" filter="url(#a)"/><path d="m-74.78-28.13-.46.28-.78.72-.69 1-.66 1.07-.86 1.06-1.23 1.01-1.64.94-1.99.85-2.19.75-2.19.71-1.97.73-1.58.84-1.17.98-.9 1.1-.99 1.15-1.42 1.14-1.93 1.1-2.05 1.08-1.5 1.13-.83 1.44-2.24 2.11 29.32-21.12-.12 1.19-.2 1.29.22 1.35.42 1.37.31 1.36.11 1.31-.07 1.21-.15 1.1-.11 1.03.03 1 .23 1.02.39 1.07.42 1.09.3 1.08.06 1.04-.16 1.02-.19 1 .03 1.05.39 1.2.48 1.5.1 1.67" filter="url(#a)"/><path d="m-84.49-14.34.84.47.64-.65.59-1.08.54-1.05.42-.94.32-.94.36-1.02.52-1.1.72-1.13.87-1.11.88-1.04.81-1.03.73-1.06.76-1.1.76-.94" filter="url(#a)"/><path d="m-74.73-28.06-.51 1.06-.22 1.29.07 1.32.18 1.33.08 1.32-.09 1.27-.23 1.18-.26 1.1-.15 1.04.02 1.03.25 1.05.43 1.1.55 1.12.53 1.14.4 1.11.2 1.1.02 1.07-.07 1.07.03 1.1.28 1.1.6 1.07.81 1.02.66 1.02-.27.73-3.94-25.93.5-.68.64-.8.78-.9.75-.92.65-.92.51-.93.43-.91.44-.92.54-.96.67-.99.8-.99.88-.91.94-.79.93-.67.76-.61.45-.69" filter="url(#a)"/><path d="m-75.36-27.25 1.36-.37 1.09-.64.79-.89.76-.88.76-.85.66-.84.49-.9.4-.96.43-1.01.57-1.01.74-.97.85-.88.92-.78.98-.69 1.07-.58 1.18-.49 1.22-.49 1.14-.74 1.78-1.69-18.6 18.87.65-1.43.52-1.24.4-1.1.31-1.09.25-1.14.17-1.18.1-1.19.09-1.15.17-1.1.3-1.06.41-1.08.44-1.19.34-1.31.22-1.38.16-1.34.23-1.19.27-1.01.03-1.06M78.3-18.77l-1.14-3.19-.7-1.63-.5-1.06-.38-.88-.32-.89-.33-.94-.38-1.01-.46-1.06-.55-1.09-.6-1.09-.64-1.08-.65-1.06-.65-1.03-.64-1-.65-.97-.66-.95-.68-.89-.68-.8-.67-.72-.74-.77-1.11-1.29 11.54 18.54-.4-.54-.36-.71-.28-.77-.3-.84-.39-.91-.48-.99-.54-1.03-.59-1.08-.62-1.1-.63-1.08-.63-1.06-.64-1.02-.65-.99-.66-.97-.65-.94-.64-.91-.61-.86-.63-.83-.71-.87-.89-1.04-.93-1.18L75.6-26.32l-.36-1.2-.49-1.04-.64-1.06-.74-1.06-.75-1.06-.73-1.05-.69-1.02-.64-1-.63-.98-.66-.93-.73-.88-.8-.79-.84-.72-.86-.68-.85-.72-.8-.8-.59-.69-.09-.04 4.34-7.11.9 1.46.43.97.28.89.28.99.36 1.04.41 1.03.4 1.04.32 1.09.24 1.16.18 1.23.2 1.23.3 1.19.43 1.15.58 1.11.67 1.12.59 1.15.36 1.26.15 1.3.02.62" filter="url(#a)"/><path d="m75.49-27.56 2.32-.76.03.77.06.91.79.78 1.52.68 1.86.69 1.77.74 1.38.85 1.03.97 1 1.07 1.28 1.11 1.69 1.07 1.95.98 1.92.96 1.62 1.07.69 1.43" filter="url(#a)"/><path d="m88.95-58.69-3.08 2.14-.55 1.75.04 1.65-.03 1.59-.52 1.77-1.14 2.1-1.52 2.33-1.55 2.35-1.28 2.17-.91 1.93-.7 1.77-.79 1.8-.99 1.91-.94 1.87-.3 1.64.8 2.36-11.77-21.46.03.46.5.77.68.94.7.95.62.88.57.85.54.85.54.88.54.89.54.92.51.95.51.99.5 1.02.5 1.04.51 1.05.51 1.07.53 1.11.58 1.15.53.99-.03-.24" filter="url(#a)"/><path d="m74.28-29.63-.8-2.53-.32-1.61-.02-1.41.36-1.53.72-1.73.91-1.89.95-1.92.85-1.86.69-1.77.61-1.75.66-1.82.8-1.92.87-1.97.67-1.91.24-1.77v-1.81l.51-2.23 1.67-2.71 1.21-1.51-12.12 32.13 2.82 1.23.59 1.14.32 1.15.47 1.03.76.85 1.1.69 1.34.64 1.34.71 1.11.85.8 1 .59 1.09.58 1.13.73 1.15.88 1.17.91 1.19.87 1.16.92 1.12 1.24 1.08 1.56 1.23-19.72-21.31-.74-.88-.68-.9-.79-.9-.84-.84-.77-.81-.69-.82-.62-.83-.58-.84-.58-.83-.61-.81-.66-.79-.73-.78-.83-.76-.93-.72-1.01-.66-1.05-.64-1.02-.65-.93-.68-.88-.76-.98-.88-.93-.9 13.33-20.45 1.79.94.7 1.34.16 1.7-.13 1.95-.36 2.16-.48 2.25-.42 2.19-.21 1.97.07 1.71.29 1.5.42 1.35.45 1.28.36 1.28.13 1.36-.17 1.48-.44 1.6-.55 1.64-.43 1.56-.15 1.36.17 1.17.43 1.05.59 1.04.58 1.09-.32 1.1" filter="url(#a)"/><path d="m70.91-35.91 4.03-.45 5.37-1.05 3.03.11.58 1.24-.72 1.8-.76 1.79.07 1.39 1.34.85 2.51.36 3.23.11 3.29.18 2.73.5 1.85.88 1.22 1.06 1.57.85 3.16.6 4.24.94-36.47-11.47-1.54-1.31-1.83-.36-1.46-.37-.93-.59-.81-.64-.98-.52-1.17-.37-1.26-.28-1.29-.25-1.38-.22-1.51-.17-1.6-.08-1.62-.04-1.56-.09-1.38-.2-.9-.27.21.09" filter="url(#a)"/><path d="m69.58-38.62.93 1.68.19 1.27-.18 1.33-.13 1.35.17 1.26.43 1.17.45 1.11.24 1.14-.09 1.19-.42 1.22-.72 1.22-.91 1.2-.86 1.19-.45 1.24.19 1.58.3 3" filter="url(#a)"/><path d="m68.31-40.45.23.48.49 1 .54 1.07.52 1.08.44 1.09.35 1.15.23 1.21.14 1.28.06 1.31-.01 1.31-.05 1.27-.04 1.2.03 1.1.12 1 .2.95.26.95.27.99.25 1.02.18 1.02.08 1.01v1.11l-.14 1.45-.61 1.92M58.52-68.06l.25 1.7.82 1 1.06 1.04 1.01 1.13.78 1.22.53 1.33.35 1.42.26 1.46.25 1.45.26 1.44.27 1.4.27 1.38.26 1.37.27 1.33.33 1.28.44 1.16.56 1 .57.83.4.83.06 1.3.28 2-1.36-2-.19-.84-.23-.66-.59-.74-.79-.84-.81-.9-.73-.95-.64-1.04-.54-1.1-.49-1.15-.51-1.13-.58-1.06-.69-.96-.79-.88-.87-.85-.88-.89-.86-.98-.79-1.07-.75-1.12-.72-1.12-.74-1.11-.8-1.17-.79-1.31-.67-1.36-.7-.93" filter="url(#a)"/><path d="m66.05-43.58-.04-1.65-.67-1.33-.88-1-.9-.84-.82-.87-.67-1-.54-1.11-.5-1.15-.52-1.12-.59-1.07-.65-1.03-.71-1.02-.74-1.05-.73-1.12-.69-1.22-.62-1.3-.56-1.35-.6-1.35-.73-1.28-.91-1.19-1.03-1.1-1.18-1-1.79-.88" filter="url(#a)"/><path d="M66.05-43.58v-1.68l.16-1.96.03-1.7-.03-1.56.02-1.61.07-1.68.02-1.67-.1-1.6-.24-1.47-.4-1.35-.49-1.29-.43-1.44-.22-1.75-.02-2.07.02-2.2-.17-1.99-.48-1.57-.81-1.22-1.05-1.37-.85-3.04 4.38 33.21 1.45-3.23-1.42-.61-1.45-.38-.86-.83-.2-1.42.37-1.94.69-2.23.67-2.23.33-1.97-.14-1.56-.61-1.18-.96-.95-1.11-.92-1.02-1.06-.79-1.28-.51-1.46-.37-1.59-.36-2.03-.33-3.5m5.08 28.79-.88-.79-.77-.67-.84-.72-.9-.76-.91-.76-.93-.72-.95-.68-.96-.65-.99-.61-1.04-.59-1.11-.55-1.18-.5-1.24-.44-1.29-.37-1.31-.31-1.29-.32-1.26-.38-1.22-.47-1.21-.48-1.26-.36-1.27-.19-.73-.24" filter="url(#a)"/><path d="m41.98-53.48 1.56.95 1.43.15 1.6-.27 1.73-.33 1.68-.13 1.47.17 1.18.46.93.65.82.72.88.67 1.03.54 1.18.42 1.28.38 1.31.41 1.25.49.99.5.53.56 1.29.93 1.25.77 1.4.37 1.75.06 1.92-.01 1.71.2 1.19.55.69.89.42 1.1.5 1.11.85.97 1.38.75 1.9.54 2.29.41 2.49.39 2.45.5 2.24.66 1.97.82 1.7.92 1.38.98.85 1.09.53 1.03" filter="url(#a)"/><path d="m62.5-48.03-.68-.51-1.48-.5-1.67-.2-1.49-.23-1.14-.49-.83-.74-.69-.86-.75-.83-.92-.68-1.16-.5-1.31-.33-1.39-.24-1.38-.21-1.36-.21-1.37-.19-1.41-.13-1.42-.08-1.38-.08-1.29-.12-1.17-.22-1.12-.3-1.12-.3-.91.06" filter="url(#a)"/><path d="m62.5-48.09-1.92 1.93.76.5 1.26.45 1.1.61.74.73.41.86.16 1.02v1.14l-.1 1.21-.21 1.25-.26 1.28-.23 1.28-.06 1.27.09 1.21-.03.83-3.98-17.77-.19-3.23.18-2.13-.6-1.02-.91-.78-.9-.93-.81-1.11-.76-1.19-.76-1.15-.83-1.09-.88-1.05-.87-1.16-.73-1.4-.51-1.73-.28-2.05-.15-2.24-.18-2.27-.34-2.15-.52-2.02-.65-1.92-.73-1.81-.78-1.57-.87-1.25-1.09-1.29" filter="url(#a)"/><path d="m89.82-49.52-4.17-.05-2.15-.18-1.72-.36-1.84-.31-1.81-.26-1.62-.33-1.42-.46-1.3-.6-1.29-.66-1.38-.6-1.57-.42-1.89-.14-2.3.25-2.7.75-2.72.83-2.22-.8" filter="url(#a)"/><path d="m92.78-43.03-2.63-.47-1.27-.96-1.86-.6-2.52-.23-2.68-.07-2.4-.14-1.93-.32-1.53-.49-1.29-.57-1.22-.57-1.28-.5-1.37-.43-1.45-.41-1.48-.42-1.44-.47-1.36-.52-1.26-.58-1.16-.63-1.09-.64-1.16-.6-1.57-.47-1.6-.4m-.17-.08-1.25-.9-1.14-.76-1.12-.83-1.06-.79-1.02-.73-1.02-.7L49.4-59l-1.06-.71-1.08-.72-1.09-.69-1.1-.64-1.11-.59-1.13-.57-1.13-.57-1.13-.56-1.12-.53-1.09-.48-1.04-.39-.98-.3-.91-.23-.87-.22-.9-.28-1.13-.4-1.41-.57" filter="url(#a)"/><path d="m57.06-53.6.85-.05 1.1.49 1.03.7.92.78.94.77.97.75.96.76.91.8.88.83.88.8.89.74.91.69.91.67.88.69.85.73.82.76.82.76.9.8 1.13.9 1.82 1.34 10.88-13.19-.33-.07-1.79-.16-1.9-.36-1.86-.29-2-.07-2.37.2-2.75.43-2.93.52-2.75.41-2.32.15-1.85-.16-1.5-.36-1.38-.41-1.39-.38-1.37-.39-1.17-.41-.59-.17-1.47-1.4-.68-.56-1.13-.82-1.2-.68-1.23-.46-1.25-.38-1.24-.42-1.2-.53-1.14-.63-1.09-.64-1.08-.62-1.09-.57-1.11-.53-1.13-.52-1.14-.54-1.1-.55-1.06-.53-1-.47-.94-.32-.88-.14-.69-.06-.25-.35" filter="url(#a)"/><path d="m38.79-91.99 1.14.79 1.35 1.31 1.01 1.93.72 2 .67 1.64.72 1.24.77 1.08.73 1.19.63 1.51.5 1.82.45 2 .47 1.98.56 1.79.67 1.57.71 1.42.71 1.4.69 1.42.73 1.38.87 1.17 1.05.85 1.14.62 1.05.76.71 1.51-1.44 4.35" filter="url(#a)"/><path d="m70.96-42.9-1.22-1.47-.74-.89-.7-.65-.83-.65-1-.68-1.1-.67-1.14-.64-1.12-.64-1.07-.67-.99-.72-.92-.77-.85-.8-.82-.8-.81-.78-.83-.74-.93-.69-1.1-.72-1.35-.91-1.68-1.34.29.11-1.01-.93-1.01-.97-1-1.03-.98-.99-.99-.88-1.02-.77-1.05-.73-1.05-.73-1.04-.77-1.02-.81-.99-.8-.95-.74-.9-.68-.87-.61-.85-.59-.86-.6-.94-.64-1.04-.69-1.13-.73-1.13-.8-1.06-.85-1.12-.89-1.79-.8 21.87 16.91-1.89-.97-1.66-.16-1.67.16-1.47-.05-1.15-.47-.96-.74-.99-.67-1.18-.34-1.38.09-1.5.43-1.49.57-1.37.49-1.18.23-1.03-.06-.96-.29-1-.33-1.13-.16-1.27.15-1.36.45-1.35.56-1.19.41-.99.2-.89-.14 57.9.55-2.53.7-1.93-.09-1.87-.35-1.66-.49-1.37-.66-1.25-.69-1.31-.59-1.49-.39-1.69-.2-1.85-.06-1.95.01-1.93.02-1.82-.08-1.61-.27-1.41-.45-1.35-.51-1.42-.41-1.57-.2-1.59-.1-1.42-.24-1.23-.39-1.44-.26-2.16-.21" filter="url(#a)"/><path d="m38.01-66.81 1.02.53 1.15.72 1.11.72 1.08.71 1.05.66 1.03.63 1.04.62 1.04.67 1.05.73 1.04.78 1.01.8.92.74.79.68.74.7 1.13 1.15-15.85-11.14-1.48.45-.85-.17-.87-.4-1.13-.32-1.29-.17-1.33-.14-1.23-.22-1.12-.34-1-.42-.94-.43-.94-.36-1-.23-1.1-.07-1.22.14-1.35.33-1.44.48-1.45.54-1.39.49-1.28.37-1.17.3-1.16.28-1.24.32-1.35.28-.9.24m54.86 2.86-1.37-.03-2-.15-2.14.11-1.92.07-1.55-.25-1.26-.63-1.09-.87-1.07-.91-1.14-.78-1.28-.53-1.43-.27-1.57-.03-1.69.13-1.69.16H41.2l-1.36-.25-1.09-.48-.99-.41-1.15.15-1.02.51" filter="url(#a)"/><path d="m33.57-68.76-1.47-.52-1.32-.32-1.21-.19-1.14-.18-1.04-.26-.96-.32-.94-.34-.98-.31-1.06-.25-1.17-.22-1.27-.17-1.32-.14-1.33-.1-1.28-.07-1.23-.04-1.19.02-1.2.06-1.25.05-1.3.03-1.21.06-1.09.31L59.1-55.52l-1.19-1.03-1.15-.82-1.24-.76-1.21-.71-1.11-.7-1.06-.73-1.07-.72-1.13-.7-1.17-.66-1.19-.62-1.18-.61-1.15-.62-1.13-.63-1.13-.64-1.14-.6-1.15-.56-1.13-.47-1.09-.39-.99-.34-.89-.34-.8-.4-.87-.42-1.24-.26-1.61-.27" filter="url(#a)"/><path d="m28.96-70.71.64.57.69 1.05.8 1.28.84 1.18.82.97.76.77.69.67.64.72.59.85.56 1.04.56 1.15.64 1.15.77.97.88.75.9.67.72.84.42 1.23.13 1.66-.07 2.09-.25 3.09m20.3-29.68-2.19 1.08-1.93.27-1.95.2-1.85.07-1.77-.01-1.86.15-2.04.52-2.17.9-2.14 1.04-1.9.86-1.53.42-1.18-.08-.97-.44-1.04-.45-1.34-.06-1.69.46-1.83.78-1.68.62-1.5.16-1.96-.06-1.1-.76-.6-.37-.87-.86-1.11-.82-1.28-.61-1.33-.51-1.28-.55-1.2-.6-1.12-.56-1.12-.47-1.17-.42-1.23-.48-1.26-.56-1.2-.52-1.13-.31-1.14-.23" filter="url(#a)"/><path d="m23.9-72.35-1.33-1.39-1.29-1.03-1.22-1.21-1.17-1.07-1.18-.64-1.21-.35-1.21-.39-1.2-.64-1.18-.86-1.16-.88-1.16-.71-1.18-.47-1.23-.28-1.32-.21-1.43-.25-1.5-.43-1.45-.79-1.25-1.26-1.16-1.67-1.91-1.53" filter="url(#a)"/><path d="m18.91-73.76 1.8.2 1.61-.33 1.44-.3 1.27-.19 1.25-.36 1.38-.75 1.57-1.1 1.67-1.16 1.67-.89 1.63-.52 1.7-.35 1.85-.5 2.06-.91 2.16-1.3 2.07-1.48 1.98-1.47 2.13-1.6 2.3-1.9-33.02 14.91-.92-.32-.95-.71-.92-1.03-1.05-.91-1.18-.58-1.21-.31-1.17-.34-1.1-.61-1.09-.96-1.18-1.23-1.34-1.29-1.49-1.24-1.43-1.13-1.02-.77-.2.03-12.82 5.75 1.73.19 1.43.21 1.31.15 1.33.06 1.34.04 1.34.1 1.31.18 1.29.24 1.28.28 1.29.32 1.31.36 1.32.38 1.3.36 1.26.29 1.21.2 1.17.15 1.19.16 1.21.23 1.23.27 1.19.24 1.11.24 1.02.41.9.59-.77-.17-1.62 1.35-1.26.9-1.15-.24-1.15-.56-1.14-.31-1.12.09-1.12.45-1.17.69-1.23.78-1.27.78-1.27.71-1.21.71-1.11.88-1.04 1.2-1.04 1.43-1.05 1.24-1.03.68-1.1 1.17L14.63-74.2l-1.22-1.54-1.39-1.18-1.27-.24-1.17.06-1.13.01-1.18-.12-1.26-.23-1.34-.34-1.35-.44-1.32-.5-1.28-.54-1.27-.54-1.3-.62-1.38-.74-1.44-.91-1.49-.97-1.39-.88-.78-.94 18.8 9.87 2.27.4 1.36.28 1.11.2 1.12.2 1.21.23 1.27.28 1.31.33 1.28.37 1.21.37 1.13.35 1.05.33.99.33.97.33.99.36 1.02.4 1.08.43 1.14.48 1.21.52 1.2.53 1.08.52.75.45.36.25" filter="url(#a)"/><path d="m10.47-74.99 2.28.28 1.39.11 1.12.06 1.15.03 1.24.05 1.32.1 1.37.17 1.36.22 1.29.23 1.19.25 1.07.27.98.28.97.26 1.03.2 1.11.14 1.16.11 1.21.11 1.47.2" filter="url(#a)"/><path d="m45.73-93.65-2.87 1.25-2.3.75-1.74.05-1.7.37-1.92 1.24-2.07 1.93L31.07-86l-1.92 1.67-1.74 1.03-1.62.45-1.56.11h-1.56l-1.56.04-1.52.1-1.46.23-1.44.56-1.53 1.18-1.7 1.87-1.77 2.05-1.51 1.29-1.16.31.62 3.26.94 1.78 1.27.14 1.35-.68 1.27-.68 1.16-.2 1.06.45.97 1.03.92 1.39.88 1.47.89 1.27.89.89.89.53.86.32.78.36.7.64.6 1.06.46 1.29.63.35" filter="url(#a)"/><path d="m9.02-75.11.95.85 1.05.84 1.09 1.16.97 1.36.88 1.31.91.95 1.04.49 1.17.18 1.23.17 1.18.42 1.05.76.88.98.7 1.1.52 1.19.38 1.85-39.78-20.81 2.06-.45 1.77.34 1.43.56 1.32.6 1.29.61 1.32.63 1.33.67 1.36.7 1.35.67 1.33.56 1.27.39 1.21.21 1.18.11 1.26.18 1.44.39 1.62.52 1.67.3-3.33-.03 1.41.09 1.19.38 1.03.49 1 .38 1.06.23 1.13.19 1.17.25 1.14.35 1.11.4 1.09.43 1.1.44 1.15.48 1.2.53 1.23.59 1.2.62 1.13.59.94.47.62.26-19.9-7.17-1.83-.99-1.13-.71-1.08-.41-1.21-.52-1.32-.71-1.37-.81-1.4-.81-1.39-.77-1.4-.8-1.42-.94-1.48-1.19-1.59-1.57-1.72-1.95-1.76-2.14-1.65-1.87-1.41-1.14-1.26-.49-1.59-.95-2.3-2.52" filter="url(#a)"/></g><path fill="none" stroke="#000" stroke-linejoin="round" stroke-width="3" d="M-10.61 15.34q23.67.17 11.835-19.346" filter="url(#a)"/><path fill="#D77F8C" stroke="#000" stroke-linejoin="round" stroke-width="3" d="m26.77 53.78-.06.19-.22.63.09-.25-.06-.08-.2.71-.39.15-.48.59-.31.16-.44.32-.77.37.98-.5-1.01.61-1.42.54.47-.27-.72.27-.83.34-.63.27-1.28.27-.2.07-1.85.34.84-.12-2.38.41 1.99-.36-.95.21-.46.1-1.63.19-1.25.15-2.92.32-.83.09-.42.02.7-.03-1.37.09-2.05.1-1.28.06-.36.01.67-.05-2.87.09H2.4l-3.36-.03-1.12-.02 2.25.02-3.7-.08.7.03-1.51-.05-.42-.02-1.54-.07-3.39-.22 1.26.09-3.35-.26-2.19-.21-1.26-.13.43.04-2.39-.27.8.09.45.05-3.23-.4-1.14-.16-1.05-.16-1.72-.25-1.42-.25.15.01-2.85-.53-1.33-.24-1.36-.29-1.18-.29 1.78.42-3.12-.69.96.22-2.21-.55.51.14-3.13-.89-.85-.26.48.15-.04-.01-2.94-.9.91.27-1.86-.64.61.24-2.07-.89-1.66-.61 1.48.57-1.32-.57-1.24-.59.67.28-1.52-.7-.07-.02-1.19-.77.25.09-.87-.68-.11.06-.22-.46-.51-.32-.44-.5-.02.08.03-.01-.31-.67-.02-.28.06-.01-.25-.76.01-.37-.05-.02.1-.18-.09-.03.58-.86-.07-.28-.02.43.74-.75-.13-.11 1.05-.79.4-.15-.06.16-.28.05.29-.25.84-.27.53-.21 1.6-.59-.04-.02.44-.12.56-.12 2.31-.61-.29.04-.2.04.54-.1 3.2-.46.59-.14-1.61.22 2.77-.32-.12-.02 2.11-.21.99-.08-.05.04 2.05-.12-.74.02 3.43-.15 1.5-.03-2.14.05 1.26-.06h2.88l1.04-.01 4.15.09-.59-.01h.03l.46-.01 1.48.07 2.13.11 2.91.19.3.02 1.53.13 1.86.17h-.02l.65.07 1.46.16-.52-.07 3.64.45-.33-.04 2.2.28 2.78.45 1.01.15-.77-.13 2.91.52-.07-.01-.5-.1 1.22.25 3.3.66 1.54.37.32.04.02.06.71.17 1.61.41 2.62.7-1.21-.33.77.25 2.71.81-.26-.08.57.19-.65-.18 1.28.46 2.44.94-1.2-.53 1.29.63.44.2 1.33.52.03.01.9.49.16.27.22.03.17.11 1.1.78.27.2.04.02.92 1.14-.46-.64.75.78.28.31-.05.27.22.85-.08.09.01-.25" filter="url(#a)"/></svg>