<svg xmlns="http://www.w3.org/2000/svg" width="500" height="500" viewBox="-100 -100 200 200"><defs><clipPath id="c"><path d="m32.08-1.68-.54-.05-.57-.04-.6-.04-.64-.05-.68-.04-.7-.04-.73-.03-.76-.04-.79-.04-.8-.03-.83-.03-.86-.03-.87-.03-.88-.03-.91-.02-1.02-.04-1.06-.04-1.07-.03-1.09-.03-1.11-.03-1.13-.02-1.13-.02-1.15-.02-1.15-.02-1.16-.01-1.16-.01-1.16-.01-1.16-.01H2.93l-1.12.01H.69l-1.09.01-1.08.01-1.06.01-1.04.01-1.02.02-.99.02-.97.02-.94.02-.92.02-.88.02-.86.02-.82.03-.8.02-.76.03-.74.03-.7.03-.67.03-.63.03-.61.03-.57.03-.54.03-.51.03-.47.03-.45.04-.42.03-.39.03-.36.04-.34.03-.31.04-.28.03-.26.04-.24.03-.22.04-.2.03-.18.04-.15.03-.13.04-.12.04-.09.04-.07.03-.06.04-.04.04-.02.04v.04l.01.04.03.04 4.3 1.02.5.07.51.07.52.08.53.07.54.07.54.08.55.07.57.08.56.07.58.08.58.08.59.07.59.08.6.08.61.07.62.08.62.08.64.07.64.08.65.08.65.07.66.08.67.07.67.07.67.07.68.07.68.06.68.07.68.06.69.05.69.06.69.05.69.04.7.04.69.04.7.03.7.03.7.03.7.01.7.02h.71l.71.01.71-.01.71-.01.72-.01.72-.02.72-.03.73-.03.73-.04.74-.05.74-.05.74-.05.75-.06.76-.07.76-.08.77-.07.77-.09.78-.09.78-.09.78-.1.79-.1.8-.1.79-.11.79-.11.62-.09.62-.08.6-.09.6-.08.59-.09.58-.09.56-.09.55-.09.54-.09.52-.09.5-.09.48-.09.46-.09.44-.09.41-.09"/></clipPath><clipPath id="b"><path d="m-34.24-2.12.52-.05.56-.04.59-.04.62-.04.66-.04.68-.04.71-.03.74-.04.76-.03.79-.03.81-.03.84-.03.85-.02.87-.03.89-.02.98-.03 1.01-.03 1.04-.02 1.06-.03 1.08-.02 1.1-.02 1.12-.01 1.14-.02 1.15-.01 1.15-.01 1.17-.01 1.17-.01 1.17-.01h5.81l1.14.01h1.12l1.11.01 1.08.01 1.07.01 1.05.02 1.02.01 1 .02.98.01.95.02.91.02.9.02.86.02.83.02.79.03.77.02.74.03.7.02.67.03.64.03.61.03.58.03.54.03.52.03.48.03.46.04.43.03.4.04.37.03.36.04.32.04.31.04.29.04.26.04.24.04.22.04.2.05.19.04.16.05.14.05.12.05.11.04.09.05.07.06.06.05.04.05-1.83.94-.38.09-.39.09-.41.08-.41.1-.43.09-.44.09-.46.09-.46.1-.48.09-.5.1-.5.1-.52.09-.53.1-.55.1-.56.1-.57.1-.59.1-.61.09-.62.1-.64.1-.66.1-.68.1-.69.09-.71.1-.72.09-.74.09-.76.09-.78.08-.79.09-.81.07-.82.08-.83.07-.86.06-.86.06-.88.06-.89.05-.9.04-.91.04-.92.03-.93.03-.94.01-.95.01-.95.01-.96-.01-.96-.01-.96-.01-.97-.03-.96-.04-.97-.04-.96-.05-.95-.06-.96-.06-.94-.07-.94-.09-.93-.08-.92-.1-.9-.1-.89-.11-.88-.12-.86-.13-.85-.12-.82-.14-.81-.14-.78-.14-.7-.11-.68-.1-.66-.11-.65-.11-.63-.11-.61-.11-.59-.12-.56-.11-.55-.12-.52-.11-.49-.12-.47-.11-.44-.11-.42-.11-.38-.11"/></clipPath><filter id="a"><feTurbulence baseFrequency=".05" numOctaves="3" result="noise" type="noise"/><feDisplacementMap in="SourceGraphic" in2="noise" scale="2"/></filter></defs><rect width="100%" height="100%" x="-100" y="-100" fill="#98FB98"/><path fill="beige" stroke="#000" stroke-linejoin="round" stroke-width="1.667" d="m71.55.53.19 2.15.07-2.05-.28 3.96-.03.23-.26 1.73.27-.96-.56 4.76.34-1.02-.53 2.51.28-1.33-.5 1.99.03 2.18-.14-.47-1 4.18.32-.29-.35 1.48-.59 1.77.07.57.04.06-.84 2.07-.69 2.21-.4.81.16.87-.3.35-1.13 2.05-.16.34-.66 2.14.3-.85-.89 2.5-.05.67-1.41 2.6.45-1.19-.76 1.64-.93 1.65-1.34 2.52 1.41-2.66-1.42 2.55-.47.69-1.86 3.4-.09-.28-.09.06-1.63 1.98-.31 1.22-.29.15-1.86 2.55.01-.51-.92 1.74-.61.29-.52.71-.17.25-1.43 1.45-1.85 1.74.9-.85-1.24 1.33-1.72 1.58-.83.64-.24.51-.21.3-2.27 1.72-.19-.24-1.52 1.69.09-.23-2.89 2.13.77-.37-1.53.91-1.85 1.07.74-.36-2.43 1.2-.73.44-1.97 1.01 1.01-.22-1.01.43-.77.35-1.12.6-3.51 1.72.94-.61-2.75 1.02-.31.39-.08.01-.81.29-1.07.33-1.02.14-1.9.91-.37-.2-.81.61-.33.08-2.07.3-2.17.51-1.29.4-.43.11-.43.02-3.75.52-.05-.04.58-.28-2.64.47-1.66.16-.54-.34-.18.36.12-.01-2.96-.08-.38-.16-1.68.06-1.49.12 1.09-.26-1.8-.1-2.58-.12-1.62.04 2.01.26-3.66-.84.38.07-1.4-.01-1.98-.58-2.01-.5-.62.23-.33-.41-1.27-.27-.32-.06-2.74-.9.04.25.35-.03-4.35-1.41 1.58.52-1.7-.72-1.82-.73-.8-.5-.47-.37-2.09-.71-.24-.01-.58-.42-2.33-1.41.78.37-3.67-1.92 1.25.74-1.28-.74-1.13-1.06-2.86-1.68-.77-.72.19.14-1.66-1.46.01.03-.54-.26-1.42-1.13.44.27-1.91-1.63-.05-.29-1.47-.93-1.6-1.45-1.02-1.61.04.62-2.1-2.53.88.62-.19-.08-1.23-1.22-1.98-2.37-.68-1.11-.61-.66-.09-.53-1.46-2.04.77 1.53-1.97-2.96.22.32-1.49-2.2-.29-.59.02-.12-.92-1.24-.81-1.81-.65-1.25-.88-1.37-.41-1.15-.04-.03-.35-.81-.56-.75-.76-1.87-.66-1.61-.36-.63.04-1.37.02.43-.21-.64-1.15-2.72-.51-2.15-.5-.8.13-.19-.6-2.07.33.18-.42-1.72-.74-2.65.14 1.57-.65-3.38.26-.79-.7-2.24.06-.94.22 1.1-.25-1.65-.29-3.01-.09.02.03-2.33-.25-.94-.2-1.38.3-1.75-.36-1.64.22-1.59-.11 1.51.27-2.62-.29.35.44-3.77-.06.53.2-2.77.1 1.09.04-2.25.54-3.49-.25.67.1-.66.78-2.57-.08-.58.62-2.17.03-.75.05-.35.44-1.26.59-2.43.18.55.55-2.8-.26 1.63 1.15-3.64-.11.33.75-2.89.07.39.65-1.57.9-2.38.16-.53.59-.8.11-.58.8-1.33.17-.11.55-1.18.48-.96.41-.38.96-2.15.58-.62.63-1.22.81-1.46.68-.57.77-1.55.92-1.04.28-.21 1.58-2.35.72-.87.2-.19.28-.4-.23.01 3.05-2.89.54-.8.05.09.86-.98.47-.65 2.23-1.73-.19.31.72-.84 1.98-1.74 1.27-.96-.46.06.8-.37.8-.68 1.48-1.07.02-.15 3.07-1.8-.99.64 1.28-.73 2.26-1.54-1.69.75 2.77-1.48 1.06-.72 1.24-.33 1-.8.33-.18.48.09 2.94-1.51-1.03.59 1.63-.67 2.48-.92-.38-.17 1.33-.26 1.24-.31 2.34-.78-1.26.42 1.31-.67 3.06-.55 1.15-.18-1.28.29 2.88-.71.28-.08 1.09-.28 2.36-.37-.37.14 1.28-.27 1.81-.16.04.23 1.92-.33 1.76.03 1.08-.11.36.05.46.15 2.51-.14.62.15.7.05 3.21.34.75-.26.52.11-.22.22 1.56-.05 2.47.48.59.21-.05.2 2.62.23 1.3.53.23.23 1.4-.07-.46.27 2.49.39-.33-.07.88.62.53.05 2.75.87.93.73 1.88.23-.74.16 2.06.9 1.09.21 2.32 1.5-.31-.22 2.15.96-1.26-.26 3.32 1.61.45.24-.78-.38 2.54 1.59.1.05 2.33 1.64-1.35-1.06 2.46 1.92 2.44 1.87-1.2-1.18 2.01 1.83-.75-.51 2.12 1.88.96.85 1 .85.9.89 1.02 1.08.12.28.82.59-.3.06 1.92 1.71.06.61.35.19 2.06 2.73.84.48.92 1.67.15-.08.5 1.26 1.49 1.62.08.42.33 1.17.93 1.29-.1.05 1.32 2.23.44 1.04.43-.21 1.13 2.28.14.5 1.15 2.2-.81-1.09.79 1.25.71 2.02.31.46 1.21 3.81-.42-2.15.65 2.35-.19-.57.56 1.5.89 3.12.45 1.06-.35-1.38.07 1.74.94 2.19.3 1.91.41 2.19.06-.15.08 1.47.53 1.46-.06 1.5.04-1.13.23 4.02-.13-1.2.53 1.46.05 1.62-.09.67.35 1.91-.2 1.7.23 1.3-.2 1.65.19 2.15" filter="url(#a)"/><path fill="#fff" d="m-34.24-2.12.52-.05.56-.04.59-.04.62-.04.66-.04.68-.04.71-.03.74-.04.76-.03.79-.03.81-.03.84-.03.85-.02.87-.03.89-.02.98-.03 1.01-.03 1.04-.02 1.06-.03 1.08-.02 1.1-.02 1.12-.01 1.14-.02 1.15-.01 1.15-.01 1.17-.01 1.17-.01 1.17-.01h5.81l1.14.01h1.12l1.11.01 1.08.01 1.07.01 1.05.02 1.02.01 1 .02.98.01.95.02.91.02.9.02.86.02.83.02.79.03.77.02.74.03.7.02.67.03.64.03.61.03.58.03.54.03.52.03.48.03.46.04.43.03.4.04.37.03.36.04.32.04.31.04.29.04.26.04.24.04.22.04.2.05.19.04.16.05.14.05.12.05.11.04.09.05.07.06.06.05.04.05-1.83.94-.38.09-.39.09-.41.08-.41.1-.43.09-.44.09-.46.09-.46.1-.48.09-.5.1-.5.1-.52.09-.53.1-.55.1-.56.1-.57.1-.59.1-.61.09-.62.1-.64.1-.66.1-.68.1-.69.09-.71.1-.72.09-.74.09-.76.09-.78.08-.79.09-.81.07-.82.08-.83.07-.86.06-.86.06-.88.06-.89.05-.9.04-.91.04-.92.03-.93.03-.94.01-.95.01-.95.01-.96-.01-.96-.01-.96-.01-.97-.03-.96-.04-.97-.04-.96-.05-.95-.06-.96-.06-.94-.07-.94-.09-.93-.08-.92-.1-.9-.1-.89-.11-.88-.12-.86-.13-.85-.12-.82-.14-.81-.14-.78-.14-.7-.11-.68-.1-.66-.11-.65-.11-.63-.11-.61-.11-.59-.12-.56-.11-.55-.12-.52-.11-.49-.12-.47-.11-.44-.11-.42-.11-.38-.11" filter="url(#a)" transform="translate(35.91 -21.62)"/><path fill="#fff" d="m32.08-1.68-.54-.05-.57-.04-.6-.04-.64-.05-.68-.04-.7-.04-.73-.03-.76-.04-.79-.04-.8-.03-.83-.03-.86-.03-.87-.03-.88-.03-.91-.02-1.02-.04-1.06-.04-1.07-.03-1.09-.03-1.11-.03-1.13-.02-1.13-.02-1.15-.02-1.15-.02-1.16-.01-1.16-.01-1.16-.01-1.16-.01H2.93l-1.12.01H.69l-1.09.01-1.08.01-1.06.01-1.04.01-1.02.02-.99.02-.97.02-.94.02-.92.02-.88.02-.86.02-.82.03-.8.02-.76.03-.74.03-.7.03-.67.03-.63.03-.61.03-.57.03-.54.03-.51.03-.47.03-.45.04-.42.03-.39.03-.36.04-.34.03-.31.04-.28.03-.26.04-.24.03-.22.04-.2.03-.18.04-.15.03-.13.04-.12.04-.09.04-.07.03-.06.04-.04.04-.02.04v.04l.01.04.03.04 4.3 1.02.5.07.51.07.52.08.53.07.54.07.54.08.55.07.57.08.56.07.58.08.58.08.59.07.59.08.6.08.61.07.62.08.62.08.64.07.64.08.65.08.65.07.66.08.67.07.67.07.67.07.68.07.68.06.68.07.68.06.69.05.69.06.69.05.69.04.7.04.69.04.7.03.7.03.7.03.7.01.7.02h.71l.71.01.71-.01.71-.01.72-.01.72-.02.72-.03.73-.03.73-.04.74-.05.74-.05.74-.05.75-.06.76-.07.76-.08.77-.07.77-.09.78-.09.78-.09.78-.1.79-.1.8-.1.79-.11.79-.11.62-.09.62-.08.6-.09.6-.08.59-.09.58-.09.56-.09.55-.09.54-.09.52-.09.5-.09.48-.09.46-.09.44-.09.41-.09" filter="url(#a)" transform="translate(-33.63 -27.23)"/><g fill="none" stroke="#000" transform="translate(35.91 -21.62)"><path stroke-linejoin="round" stroke-width="1.667" d="m-37.22-1.59.09-.06.15-.06.19-.05.24-.06.28-.05.32-.06.37-.05.41-.05.45-.05.48-.04.52-.05.56-.04.59-.04.62-.04.66-.04.68-.04.71-.03.74-.04.76-.03.79-.03.81-.03.84-.03.85-.02.87-.03.89-.02.98-.03 1.01-.03 1.04-.02 1.06-.03 1.08-.02 1.1-.02 1.12-.01 1.14-.02 1.15-.01 1.15-.01 1.17-.01 1.17-.01 1.17-.01h5.81l1.14.01h1.12l1.11.01 1.08.01 1.07.01 1.05.02 1.02.01 1 .02.98.01.95.02.91.02.9.02.86.02.83.02.79.03.77.02.74.03.7.02.67.03.64.03.61.03.58.03.54.03.52.03.48.03.46.04.43.03.4.04.37.03.36.04.32.04.31.04.29.04.26.04.24.04.22.04.2.05.19.04.16.05.14.05.12.05.11.04.09.05.07.06.06.05.04.05.03.06.01.05v.06l-.01.06-.03.05-.04.06-.05.07-.06.06-.08.06-.08.06" filter="url(#a)"/><path stroke-linejoin="round" stroke-width="2.222" d="m-37.58-1.34.01.06.05.07.1.07.14.08.17.09.22.09.25.09.29.11.32.1.35.11.38.11.42.11.44.11.47.11.49.12.52.11.55.12.56.11.59.12.61.11.63.11.65.11.66.11.68.1.7.11.78.14.81.14.82.14.85.12.86.13.88.12.89.11.9.1.92.1.93.08.94.09.94.07.96.06.95.06.96.05.97.04.96.04.97.03.96.01.96.01.96.01.95-.01.95-.01.94-.01.93-.03.92-.03.91-.04.9-.04.89-.05.88-.06.86-.06.86-.06.83-.07.82-.08.81-.07.79-.09.78-.08.76-.09.74-.09.72-.09.71-.1.69-.09.68-.1.66-.1.64-.1.62-.1.61-.09.59-.1.57-.1.56-.1.55-.1.53-.1.52-.09.5-.1.5-.1.48-.09.46-.1.46-.09.44-.09.43-.09.41-.1.41-.08.39-.09.38-.09.37-.09.36-.08.34-.08.34-.08.32-.08.31-.08.31-.08.29-.07.29-.07.27-.07" filter="url(#a)"/><circle cx="-19.141" cy="-1.781" r="4.098" clip-path="url(#b)" filter="url(#a)"/><circle cx="-18.656" cy="-.696" r="3.734" clip-path="url(#b)" filter="url(#a)"/><circle cx="-19.101" cy=".359" r="4.674" clip-path="url(#b)" filter="url(#a)"/><circle cx="-17.121" cy="-2.346" r="3.126" clip-path="url(#b)" filter="url(#a)"/><circle cx="-17.546" cy="1.799" r="3.582" clip-path="url(#b)" filter="url(#a)"/><circle cx="-16.551" cy="-1.871" r="4.962" clip-path="url(#b)" filter="url(#a)"/><circle cx="-16.741" cy="-2.121" r="4.738" clip-path="url(#b)" filter="url(#a)"/><circle cx="-20.156" cy="1.469" r="4.946" clip-path="url(#b)" filter="url(#a)"/><circle cx="-15.936" cy=".524" r="3.926" clip-path="url(#b)" filter="url(#a)"/><circle cx="-19.606" cy="-1.686" r="4.794" clip-path="url(#b)" filter="url(#a)"/></g><g fill="none" stroke="#000" transform="translate(-33.63 -27.23)"><path stroke-linejoin="round" stroke-width="2.222" d="m34.94-1.19-.05-.05-.11-.05-.17-.05-.22-.05-.27-.05-.32-.05-.36-.05-.41-.05-.46-.04-.49-.05-.54-.05-.57-.04-.6-.04-.64-.05-.68-.04-.7-.04-.73-.03-.76-.04-.79-.04-.8-.03-.83-.03-.86-.03-.87-.03-.88-.03-.91-.02-1.02-.04-1.06-.04-1.07-.03-1.09-.03-1.11-.03-1.13-.02-1.13-.02-1.15-.02-1.15-.02-1.16-.01-1.16-.01-1.16-.01-1.16-.01H2.93l-1.12.01H.69l-1.09.01-1.08.01-1.06.01-1.04.01-1.02.02-.99.02-.97.02-.94.02-.92.02-.88.02-.86.02-.82.03-.8.02-.76.03-.74.03-.7.03-.67.03-.63.03-.61.03-.57.03-.54.03-.51.03-.47.03-.45.04-.42.03-.39.03-.36.04-.34.03-.31.04-.28.03-.26.04-.24.03-.22.04-.2.03-.18.04-.15.03-.13.04-.12.04-.09.04-.07.03-.06.04-.04.04-.02.04v.04l.01.04.03.04.05.04.06.05.07.04.09.04.1.04.12.05.13.04.14.04.15.05.16.04" filter="url(#a)"/><path stroke-linejoin="round" stroke-width="2.222" d="m35.46-.98-.01.06-.07.05-.11.07-.16.06-.2.07-.25.08-.28.07-.32.08-.35.09-.38.08-.41.09-.44.09-.46.09-.48.09-.5.09-.52.09-.54.09-.55.09-.56.09-.58.09-.59.09-.6.08-.6.09-.62.08-.62.09-.79.11-.79.11-.8.1-.79.1-.78.1-.78.09-.78.09-.77.09-.77.07-.76.08-.76.07-.75.06-.74.05-.74.05-.74.05-.73.04-.73.03-.72.03-.72.02-.72.01-.71.01-.71.01-.71-.01h-.71l-.7-.02-.7-.01-.7-.03-.7-.03-.7-.03-.69-.04-.7-.04-.69-.04-.69-.05-.69-.06-.69-.05-.68-.06-.68-.07-.68-.06-.68-.07-.67-.07-.67-.07-.67-.07-.66-.08-.65-.07-.65-.08-.64-.08-.64-.07-.62-.08-.62-.08-.61-.07-.6-.08-.59-.08-.59-.07-.58-.08-.58-.08-.56-.07-.57-.08-.55-.07-.54-.08-.54-.07-.53-.07-.52-.08-.51-.07-.5-.07-.49-.07-.48-.07-.48-.06-.46-.07-.45-.06-.44-.07-.43-.06-.42-.06-.41-.06-.41-.06" filter="url(#a)"/><circle cx="17.616" cy="1.618" r="4.08" clip-path="url(#c)" filter="url(#a)"/><circle cx="21.981" cy=".418" r="3.242" clip-path="url(#c)" filter="url(#a)"/><circle cx="22.011" cy=".798" r="4.002" clip-path="url(#c)" filter="url(#a)"/><circle cx="18.686" cy=".268" r="3.216" clip-path="url(#c)" filter="url(#a)"/><circle cx="18.156" cy="-1.292" r="4.396" clip-path="url(#c)" filter="url(#a)"/><circle cx="17.896" cy="1.183" r="4.122" clip-path="url(#c)" filter="url(#a)"/><circle cx="18.331" cy=".893" r="3.98" clip-path="url(#c)" filter="url(#a)"/><circle cx="19.141" cy="-1.392" r="3.22" clip-path="url(#c)" filter="url(#a)"/><circle cx="17.951" cy=".423" r="4.038" clip-path="url(#c)" filter="url(#a)"/><circle cx="18.711" cy="-2.572" r="4.054" clip-path="url(#c)" filter="url(#a)"/></g><path fill="none" stroke="#000" stroke-linejoin="round" stroke-width="3" d="M-10.97 8.04Q8.18 17.16-1.395-4.918" filter="url(#a)"/><path fill="#D77F8C" stroke="#000" stroke-linejoin="round" stroke-width="3" d="m-17.67 46.71.02-.54.04-.53.05-.52.08-.5.1-.49.11-.48.13-.47.15-.45.17-.44.18-.43.2-.41.21-.4.23-.39.24-.38.26-.36.27-.35.29-.34.3-.32.31-.32.33-.3.33-.29.35-.27.36-.26.37-.25.39-.24.39-.23.4-.21.41-.2.42-.19.43-.18.43-.16.45-.15.45-.14.45-.13.47-.11.47-.11.47-.09.48-.08.49-.06.49-.06.5-.04.49-.03.5-.02h1.02l.5.02.51.03.52.04.51.05.51.07.51.08.52.09.51.1.51.11.51.12.5.14.51.15.5.16.5.17.49.18.49.19.49.21.48.22.48.23.47.24.46.25.46.26.45.28.45.28.43.3.43.31.42.32.42.33.4.34.39.36.38.36.38.38.36.39.35.4.34.41.32.42.32.43.3.44.28.46.28.46.26.48.24.49.24.5.21.5.2.53.19.53.16.54.15.55.14.57.11.57.1.59.08.59.06.61.04.62-.34-.46-.35-.46-.34-.44-.35-.44-.34-.43-.35-.42-.34-.41-.35-.41-.34-.4-.35-.39-.34-.38-.35-.37-.34-.37-.35-.36-.34-.35-.35-.34-.34-.34-.35-.32-.34-.32-.35-.31-.34-.3-.35-.3-.34-.29-.35-.27-.34-.27-.35-.27-.35-.25-.34-.25-.35-.24-.34-.22-.35-.23-.34-.21-.35-.2-.34-.2-.35-.19-.34-.18-.35-.17-.34-.17-.35-.15-.34-.15-.35-.14-.34-.13-.35-.12-.34-.11-.35-.11-.34-.09-.35-.09-.34-.08-.35-.07-.34-.06-.35-.06-.34-.04-.35-.04-.34-.03-.35-.02-.34-.01h-.69l-.35.02-.34.02-.35.04-.34.04-.35.05-.34.05-.35.07-.34.08-.35.08-.34.1-.35.1-.34.11-.35.12-.34.13-.35.14-.34.15-.35.15-.34.17-.35.17-.34.18-.35.2-.34.2-.35.21-.34.21-.35.23-.34.24-.35.25-.34.25-.35.27-.34.27-.35.28-.34.29-.35.31-.34.31-.35.32-.34.33-.35.33-.34.35-.35.36-.34.36-.35.38" filter="url(#a)"/></svg>