<svg xmlns="http://www.w3.org/2000/svg" width="500" height="500" viewBox="-100 -100 200 200"><defs><clipPath id="c"><path d="m31.36-.71-.28-.46-.3-.47-.33-.48-.35-.49-.38-.49-.41-.51-.43-.5-.46-.52-.49-.51-.51-.52-.54-.51-.57-.52-.59-.51-.62-.51-.65-.5-.58-.62-.63-.63-.68-.61-.72-.6-.77-.6-.82-.58-.85-.56-.9-.55-.94-.53-.98-.5-1.02-.48-1.05-.46-1.08-.43-1.11-.41-1.13-.37-1.16-.34-1.19-.32-1.2-.28-1.21-.25-1.23-.21-1.25-.18-1.25-.15-1.25-.12-1.26-.07-1.26-.05-1.26-.01-1.25.02-1.25.06-1.23.09-1.23.12-1.21.15-1.2.18-1.18.21-1.16.24-1.15.27-1.12.29-1.1.32-1.07.34-1.05.36-1.03.38-.99.39-.97.42-.95.42-.91.45-.89.45-.87.46-.83.47-.81.47-.78.48-.75.47-.73.49-.71.48-.68.49-.67.5-.63.5-.62.5-.59.5-.56.5-.55.5-.52.5-.5.5-.48.5-.46.49-.44.49 1.3 12.71.6.22.63.23.64.23.66.24.68.24.69.24.71.25.72.24.74.25.76.25.78.25.78.26.81.25.82.26.84.26.85.26.88.26.89.27.91.26.93.27.95.26.96.26.98.27 1 .25 1.01.26 1.02.25 1.03.25 1.05.24 1.05.24 1.07.22 1.07.22 1.08.21 1.08.2 1.09.19 1.1.18 1.09.17 1.09.15 1.09.14 1.09.12 1.08.11 1.08.09 1.07.07 1.06.05 1.06.04 1.04.01h1.02l1.01-.02 1-.05.98-.07.96-.08.94-.12.92-.13.9-.15.87-.18.85-.2.83-.22.8-.25.77-.26.75-.29.71-.3.69-.33.66-.34.64-.36.6-.38.6-.26.58-.26.56-.28.54-.28.52-.29.51-.29.48-.31.47-.3.44-.31.43-.31.41-.32.38-.31.37-.32.35-.31.32-.31"/></clipPath><clipPath id="b"><path d="m-28.77-.17.31-.62.33-.63.36-.65.39-.66.41-.67.43-.68.47-.69.48-.69.52-.7.54-.7.56-.69.59-.7.62-.69.64-.68.66-.68.62-.86.66-.85.71-.84.74-.82.8-.81.83-.78.87-.76.91-.74.95-.71.98-.67 1.02-.65 1.04-.6 1.07-.57 1.11-.54 1.12-.49 1.14-.44 1.17-.41 1.18-.36 1.19-.32 1.21-.27 1.21-.22 1.22-.18 1.22-.12 1.22-.09 1.23-.03 1.22.01 1.21.05 1.2.1 1.19.15 1.18.18 1.17.23 1.15.27 1.13.31 1.12.35 1.09.38 1.06.42 1.05.44 1.02.48.99.51.97.53.94.56.91.57.89.6.85.61.83.62.8.64.77.65.74.65.72.66.69.65.66.67.64.66.61.68.59.68.57.68.54.68.51.69.49.68.47.69.44.68.42.68.4.68.37.67.35.66-3.49 15.97-.74.27-.75.28-.77.28-.78.29-.8.28-.82.29-.82.3-.85.29-.85.3-.87.3-.87.3-.89.3-.9.31-.91.3-.92.31-.94.31-.95.31-.97.31-.97.31-.99.32-1 .31-1 .31-1.01.31-1.01.3-1.02.3-1.03.3-1.02.29-1.02.29-1.02.28-1.02.27-1.02.26-1.01.24-1 .24-1 .23-.99.21-.98.2-.97.18-.95.17-.95.14-.93.13-.92.11-.9.09-.89.07-.87.05-.85.03h-.84l-.83-.02-.8-.05-.79-.07-.77-.1-.75-.12-.73-.15-.72-.17-.7-.2-.68-.23-.66-.25-.64-.28-.63-.3-.62-.33-.59-.35-.58-.37-.56-.39-.55-.42-.54-.43-.49-.29-.47-.31-.46-.31-.46-.32-.43-.33-.43-.34-.41-.34-.4-.34-.39-.36-.37-.35-.36-.36-.34-.35-.33-.36-.31-.35-.3-.35"/></clipPath><filter id="a"><feTurbulence baseFrequency=".05" numOctaves="3" result="noise" type="noise"/><feDisplacementMap in="SourceGraphic" in2="noise" scale="2"/></filter></defs><rect width="100%" height="100%" x="-100" y="-100" fill="#FFFFE0"/><path fill="#C04000" stroke="#000" stroke-linejoin="round" stroke-width="1.667" d="m81.33.94.26-.69-.11 2.52-.16 1.42.21.78-.65 3.71.1-.01-.04 1.11-.07-.69-.32 4.3-.14-.11-.41 1.95-.18 1.45.14.5-.67 1.93.31-.02-.92 3.05.13-.33-.7 2.08-.62 3.15-.04.32-.49.2-.08.54-1.06 3.1-.14.54-.82 1.91-.6 2.14-.76 1.53.6-1.73-.75 2.19-1.36 2.3-.04.66-1.04 1.78-.81 1.3.63-1.06-1.27 1.98-.94 1.93-.55 1.08-1.11 1.46-.23.24-1.04 1.93-.2.11-.58.75-1.02 1.34-.97 1.07-1.49 2.42.02-.51-.64 1.06-.95 1.15-1.86 1.62.49-.4-1.77 2.03-.18.09-1.51 1.57-1.11 1.11-.58.68-1.28.78-.87.87.65-.67-3.37 2.6-.28.78-1.35.78-.68.46-1.68 1.12-1.91 1.07-.98.8 1.19-.56-2.03 1.01-.81.5-2.64 1.94 1.24-1.02-3.04 1.82-.92.42-.89.22-2.08 1.06-.4.2-2.47.89.05-.2-1.01.66-1.65.44-1.65.89.92-.4-2.28.79.03-.04-2.87.85-1.81.54-1.84.34.22-.1-2.15.44-1.57.19-.28.03-1.45.4-1.05-.06-1.01.28-2.59.16-1.94.28-.14-.01.7-.26-1.52.17-1.17.28-2.89-.15-1.38.08.77.1-3.03-.18-1.11.03-3.48-.39.71-.09-2.14-.06.56.19-1.66-.54-3.81-.6-1.28-.01-.53-.35.84.04-3.4-.53.89.12-.88-.26-1.16-.22-3.66-.86.06-.3-.26.07-3.44-1.07 1.63.52-2.72-1.17-1.48-.78-1.27-.42-1.69-.69-1.8-.98 1.23.76-2.77-1.5-2.54-1.41.33.23-.18-.23-1.49-.84-.47-.38-1.87-1.33-1.68-.65-.4-.32-.78-.66-1.58-1.3-1.81-1.47.63.58-1.63-1.03-2.21-1.85-1.04-1.2.17.35.62.32-3.26-2.92-.3-.12-1.65-1.75-.45-.44.1.31-1.51-1.84-.89-1.36-1.09-.92-.93-1.4-.85-1.24-.19-.07-1.44-1.76-.42-.68-.83-1.3.25.19-2.06-2.84-.63-1.06-1.44-2.1 1.33 1.5-.97-1.11-.35-1-1.4-2.37.08-.09-1.46-2.49.11-.16-1.34-2.81-.78-1.78-.14-1-.5-.75-.01.28-.22-.87-.99-2.41-.33-1.81v.22l-.56-1.88-.7-1.63-.28-1.95-.33-.91-.16-.94-.58-1.75.06-.8-.21-1.41-.24-.08-.46-3.17.4 1.35-.88-4.56.21.07-.51-3.11.07-2.06.08 2.25-.36-3.04-.13-.73.26-1.53-.1-2.05-.07-3.05.04 2.74.14-2.97.17-2.22.18-1.51-.15-2.62-.07.74.2-1.59.32-1.15-.05-.63.49-2.6.01-.99.98-3.49-.66 2.08.99-3.56.05-.84-.26.67.51-1.52.58-2.15.78-2.45.87-2.13-.11-.42.01.13.69-1.79 1-2.52-.55 1.08 1.44-3.38.1-.28.79-1.94-.48.82 1.01-1.94 1.62-2.63-.12.07.36-.68.73-1.3.06-.43 1.42-2.2 1.01-1.09.54-1.18.62-1.29 1.79-2.73.97-.82.38-.71-.56.51 2.18-2.06 1.03-1.6 1.23-1.56-.62 1.03.69-1.18 1.58-1.42 1.39-1.65 1.44-1.34.99-.89.38-.6.43-.16 1.09-.98.45-.33 3.26-2.69-1.04.69 1.45-.93.82-.92.7-.1 3.34-2.5-.04.13-.06-.23 1.77-.76 2.44-1.75-.69.53 2.97-1.93-.06.5 1.23-.99.77-.25 2.74-1.18-.56.15 2.72-1.34.29-.24-1.27.67 3.44-1.35 1.87-.6-.32.19 1.39-.47.68-.24 2.75-.73 1.99-.76 1.72-.51 1.07-.01.9-.15.02.13.97-.38 1.87-.43.55.08 1.05-.07 2.63-.32.5-.28 2.11.05.73-.03 2.39-.18.47.04-.22-.32 1.87.06 2.31.18-.64-.21 1.39.08 2.69.04 1.53.37 1.47-.05-.89.24 2.23-.07 2.46.62 1.26.17.84.27 1.08.13-.57-.23 2.64.53 3.64 1.1h-.01l1.06.07-.21.21 3.89 1.09-.26-.16 1.39.76.05-.2.91.32 3.54 1.4-1.15-.39 1.38.59 2.72 1.43-.42-.33 1.55.86 1.12.4 1.27.94.95.41 2.28 1.64.43.34.84.4.73.09 1.68 1.45.4.13 2.71 1.98-.19-.01 1.61 1.19.84.59 1.58 1.45.37.02.61 1.01 1.85 1.44.19.24.17.35.57.48 2.42 2.56 1.56 1.41.36.5-1.06-1.25.61.92 3.14 3.54-1.39-1.27 2.81 3.16 1.19 1.94-1.19-1.7 1.49 1.62 1.07 2.02 1.14 1.7-.46-.84 1.36 2.1-.1.12 1.13 2.13.11-.14 2.63 4.84.05.13-.27-.47.62 1.86.89 1.05.77 1.9.17.71 1.17 2.56-.54-.71.16-.45 1.21 4.1.87 1.75.26 1.78.22-.03.24 1.63.12.14.49 1.14.25 2.22.76 2.75-.11-.45v1.5l.57 1.57.25 2.1.07.7.51 3.1-.44-2.56.39 4.3.22.46-.02-1.23.05 4.99-.15-.68.03 1.23.05 3.35.26-.69" filter="url(#a)"/><path fill="#fff" d="m-28.77-.17.31-.62.33-.63.36-.65.39-.66.41-.67.43-.68.47-.69.48-.69.52-.7.54-.7.56-.69.59-.7.62-.69.64-.68.66-.68.62-.86.66-.85.71-.84.74-.82.8-.81.83-.78.87-.76.91-.74.95-.71.98-.67 1.02-.65 1.04-.6 1.07-.57 1.11-.54 1.12-.49 1.14-.44 1.17-.41 1.18-.36 1.19-.32 1.21-.27 1.21-.22 1.22-.18 1.22-.12 1.22-.09 1.23-.03 1.22.01 1.21.05 1.2.1 1.19.15 1.18.18 1.17.23 1.15.27 1.13.31 1.12.35 1.09.38 1.06.42 1.05.44 1.02.48.99.51.97.53.94.56.91.57.89.6.85.61.83.62.8.64.77.65.74.65.72.66.69.65.66.67.64.66.61.68.59.68.57.68.54.68.51.69.49.68.47.69.44.68.42.68.4.68.37.67.35.66-3.49 15.97-.74.27-.75.28-.77.28-.78.29-.8.28-.82.29-.82.3-.85.29-.85.3-.87.3-.87.3-.89.3-.9.31-.91.3-.92.31-.94.31-.95.31-.97.31-.97.31-.99.32-1 .31-1 .31-1.01.31-1.01.3-1.02.3-1.03.3-1.02.29-1.02.29-1.02.28-1.02.27-1.02.26-1.01.24-1 .24-1 .23-.99.21-.98.2-.97.18-.95.17-.95.14-.93.13-.92.11-.9.09-.89.07-.87.05-.85.03h-.84l-.83-.02-.8-.05-.79-.07-.77-.1-.75-.12-.73-.15-.72-.17-.7-.2-.68-.23-.66-.25-.64-.28-.63-.3-.62-.33-.59-.35-.58-.37-.56-.39-.55-.42-.54-.43-.49-.29-.47-.31-.46-.31-.46-.32-.43-.33-.43-.34-.41-.34-.4-.34-.39-.36-.37-.35-.36-.36-.34-.35-.33-.36-.31-.35-.3-.35" filter="url(#a)" transform="translate(42.64 -21.78)"/><path fill="#fff" d="m31.36-.71-.28-.46-.3-.47-.33-.48-.35-.49-.38-.49-.41-.51-.43-.5-.46-.52-.49-.51-.51-.52-.54-.51-.57-.52-.59-.51-.62-.51-.65-.5-.58-.62-.63-.63-.68-.61-.72-.6-.77-.6-.82-.58-.85-.56-.9-.55-.94-.53-.98-.5-1.02-.48-1.05-.46-1.08-.43-1.11-.41-1.13-.37-1.16-.34-1.19-.32-1.2-.28-1.21-.25-1.23-.21-1.25-.18-1.25-.15-1.25-.12-1.26-.07-1.26-.05-1.26-.01-1.25.02-1.25.06-1.23.09-1.23.12-1.21.15-1.2.18-1.18.21-1.16.24-1.15.27-1.12.29-1.1.32-1.07.34-1.05.36-1.03.38-.99.39-.97.42-.95.42-.91.45-.89.45-.87.46-.83.47-.81.47-.78.48-.75.47-.73.49-.71.48-.68.49-.67.5-.63.5-.62.5-.59.5-.56.5-.55.5-.52.5-.5.5-.48.5-.46.49-.44.49 1.3 12.71.6.22.63.23.64.23.66.24.68.24.69.24.71.25.72.24.74.25.76.25.78.25.78.26.81.25.82.26.84.26.85.26.88.26.89.27.91.26.93.27.95.26.96.26.98.27 1 .25 1.01.26 1.02.25 1.03.25 1.05.24 1.05.24 1.07.22 1.07.22 1.08.21 1.08.2 1.09.19 1.1.18 1.09.17 1.09.15 1.09.14 1.09.12 1.08.11 1.08.09 1.07.07 1.06.05 1.06.04 1.04.01h1.02l1.01-.02 1-.05.98-.07.96-.08.94-.12.92-.13.9-.15.87-.18.85-.2.83-.22.8-.25.77-.26.75-.29.71-.3.69-.33.66-.34.64-.36.6-.38.6-.26.58-.26.56-.28.54-.28.52-.29.51-.29.48-.31.47-.3.44-.31.43-.31.41-.32.38-.31.37-.32.35-.31.32-.31" filter="url(#a)" transform="translate(-54.29 -23.52)"/><g fill="none" stroke="#000" transform="translate(42.64 -21.78)"><path stroke-linejoin="round" stroke-width="1.667" d="m-30.68 4.56.11-.32.12-.36.14-.4.16-.43.18-.47.19-.5.22-.52.24-.56.26-.57.29-.6.31-.62.33-.63.36-.65.39-.66.41-.67.43-.68.47-.69.48-.69.52-.7.54-.7.56-.69.59-.7.62-.69.64-.68.66-.68.62-.86.66-.85.71-.84.74-.82.8-.81.83-.78.87-.76.91-.74.95-.71.98-.67 1.02-.65 1.04-.6 1.07-.57 1.11-.54 1.12-.49 1.14-.44 1.17-.41 1.18-.36 1.19-.32 1.21-.27 1.21-.22 1.22-.18 1.22-.12 1.22-.09 1.23-.03 1.22.01 1.21.05 1.2.1 1.19.15 1.18.18 1.17.23 1.15.27 1.13.31 1.12.35 1.09.38 1.06.42 1.05.44 1.02.48.99.51.97.53.94.56.91.57.89.6.85.61.83.62.8.64.77.65.74.65.72.66.69.65.66.67.64.66.61.68.59.68.57.68.54.68.51.69.49.68.47.69.44.68.42.68.4.68.37.67.35.66.33.66.31.65.28.65.27.64.24.63.23.62.21.61.18.61.17.59.15.59" filter="url(#a)"/><path stroke-linejoin="round" stroke-width="2.222" d="m-30.32 11.71.12.21.15.24.16.26.18.27.2.29.22.31.23.32.25.33.27.33.29.35.3.35.31.35.33.36.34.35.36.36.37.35.39.36.4.34.41.34.43.34.43.33.46.32.46.31.47.31.49.29.54.43.55.42.56.39.58.37.59.35.62.33.63.3.64.28.66.25.68.23.7.2.72.17.73.15.75.12.77.1.79.07.8.05.83.02h.84l.85-.03.87-.05.89-.07.9-.09.92-.11.93-.13.95-.14.95-.17.97-.18.98-.2.99-.21 1-.23 1-.24 1.01-.24 1.02-.26 1.02-.27 1.02-.28 1.02-.29 1.02-.29 1.03-.3 1.02-.3 1.01-.3 1.01-.31 1-.31 1-.31.99-.32.97-.31.97-.31.95-.31.94-.31.92-.31.91-.3.9-.31.89-.3.87-.3.87-.3.85-.3.85-.29.82-.3.82-.29.8-.28.78-.29.77-.28.75-.28.74-.27.72-.27.7-.27.69-.27.67-.26.66-.25.64-.26.62-.25.6-.24.59-.25.57-.24" filter="url(#a)"/><circle cx="-17.725" cy="6.303" r="3.776" clip-path="url(#b)" filter="url(#a)"/><circle cx="-16.865" cy="7.248" r="4.462" clip-path="url(#b)" filter="url(#a)"/><circle cx="-18.47" cy="7.503" r="4.02" clip-path="url(#b)" filter="url(#a)"/><circle cx="-19.785" cy="7.758" r="4.236" clip-path="url(#b)" filter="url(#a)"/><circle cx="-21.62" cy="6.738" r="3.892" clip-path="url(#b)" filter="url(#a)"/><circle cx="-20.235" cy="10.348" r="3.712" clip-path="url(#b)" filter="url(#a)"/><circle cx="-21.58" cy="10.353" r="4.29" clip-path="url(#b)" filter="url(#a)"/><circle cx="-19.42" cy="9.468" r="4.674" clip-path="url(#b)" filter="url(#a)"/><circle cx="-19.935" cy="10.138" r="3.114" clip-path="url(#b)" filter="url(#a)"/><circle cx="-18.97" cy="8.548" r="4.508" clip-path="url(#b)" filter="url(#a)"/></g><g fill="none" stroke="#000" transform="translate(-54.29 -23.52)"><path stroke-linejoin="round" stroke-width="2.222" d="m32.97 2.88-.08-.25-.1-.28-.11-.31-.13-.33-.15-.36-.17-.37-.18-.4-.21-.41-.23-.43-.25-.45-.28-.46-.3-.47-.33-.48-.35-.49-.38-.49-.41-.51-.43-.5-.46-.52-.49-.51-.51-.52-.54-.51-.57-.52-.59-.51-.62-.51-.65-.5-.58-.62-.63-.63-.68-.61-.72-.6-.77-.6-.82-.58-.85-.56-.9-.55-.94-.53-.98-.5-1.02-.48-1.05-.46-1.08-.43-1.11-.41-1.13-.37-1.16-.34-1.19-.32-1.2-.28-1.21-.25-1.23-.21-1.25-.18-1.25-.15-1.25-.12-1.26-.07-1.26-.05-1.26-.01-1.25.02-1.25.06-1.23.09-1.23.12-1.21.15-1.2.18-1.18.21-1.16.24-1.15.27-1.12.29-1.1.32-1.07.34-1.05.36-1.03.38-.99.39-.97.42-.95.42-.91.45-.89.45-.87.46-.83.47-.81.47-.78.48-.75.47-.73.49-.71.48-.68.49-.67.5-.63.5-.62.5-.59.5-.56.5-.55.5-.52.5-.5.5-.48.5-.46.49-.44.49-.42.48-.4.48-.37.48-.36.47-.34.46-.32.46-.31.45-.28.44-.27.44-.26.43M32.5 7.66l-.13.2-.15.22-.17.24-.19.25-.2.26-.23.28-.25.28-.26.3-.29.3-.31.3-.32.31-.35.31-.37.32-.38.31-.41.32-.43.31-.44.31-.47.3-.48.31-.51.29-.52.29-.54.28-.56.28-.58.26-.6.26-.6.38-.64.36-.66.34-.69.33-.71.3-.75.29-.77.26-.8.25-.83.22-.85.2-.87.18-.9.15-.92.13-.94.12-.96.08-.98.07-1 .05-1.01.02H7.46l-1.04-.01-1.06-.04-1.06-.05-1.07-.07-1.08-.09-1.08-.11-1.09-.12-1.09-.14-1.09-.15-1.09-.17-1.1-.18-1.09-.19-1.08-.2-1.08-.21-1.07-.22-1.07-.22-1.05-.24-1.05-.24-1.03-.25-1.02-.25-1.01-.26-1-.25-.98-.27-.96-.26-.95-.26-.93-.27-.91-.26-.89-.27-.88-.26-.85-.26-.84-.26-.82-.26-.81-.25-.78-.26-.78-.25-.76-.25-.74-.25-.72-.24-.71-.25-.69-.24-.68-.24-.66-.24-.64-.23-.63-.23-.6-.22-.6-.23-.57-.22-.56-.21-.54-.21-.53-.21-.51-.21-.49-.2-.48-.2-.47-.19-.45-.2" filter="url(#a)"/><circle cx="20.645" cy="2.313" r="4.296" clip-path="url(#c)" filter="url(#a)"/><circle cx="19.75" cy="4.618" r="3.232" clip-path="url(#c)" filter="url(#a)"/><circle cx="19.735" cy="3.808" r="4.164" clip-path="url(#c)" filter="url(#a)"/><circle cx="20.155" cy="4.178" r="3.32" clip-path="url(#c)" filter="url(#a)"/><circle cx="17.46" cy="2.288" r="3.712" clip-path="url(#c)" filter="url(#a)"/><circle cx="21.745" cy=".898" r="3.202" clip-path="url(#c)" filter="url(#a)"/><circle cx="19.53" cy=".793" r="4.22" clip-path="url(#c)" filter="url(#a)"/><circle cx="21.725" cy=".478" r="4.21" clip-path="url(#c)" filter="url(#a)"/><circle cx="17.79" cy="3.228" r="3.582" clip-path="url(#c)" filter="url(#a)"/><circle cx="18.695" cy="4.458" r="4.142" clip-path="url(#c)" filter="url(#a)"/></g><g fill="none" stroke="silver" stroke-linejoin="round" stroke-width="2"><path d="m31.79-79.36 1.8.95 1.28.73 1.37.84 1.55 1.01 1.68 1.14 1.74 1.22 1.72 1.22 1.65 1.19 1.58 1.11 1.5 1.06 1.43 1.02 1.36.99 1.24.92 1.02.77.75.54.45.29.22.09.04-.04-.26-.24m-96.87-8.57.67-.47 1.46-.79 1.69-.86 1.74-.83 1.79-.79 1.83-.76 1.88-.74 1.91-.74 1.92-.71 1.86-.69 1.76-.65 1.64-.59 1.5-.54 1.34-.48 1.18-.43.98-.37.78-.31.59-.24.41-.18.24-.11.06-.05" filter="url(#a)"/><path d="m17.56-84.15 2.44.76 1.5.53 1.42.59 1.6.71 1.75.81 1.8.86 1.82.91 1.86.95 1.89 1L35.55-76l1.88 1.03 1.82 1 1.72.94 1.61.89 1.49.82 1.36.75 1.18.65.98.52.7.36.34.12-.11-.17m18.82 20.54.77 1.42.2.97-.06.9-.35.83-.74.61-1.2.31h-1.67l-2.13-.27-2.6-.49-3.1-.7-3.63-.94-4.16-1.18-4.71-1.43-5.23-1.66-5.76-1.88-6.29-2.15-6.86-2.45-7.43-2.81-7.99-3.2-8.57-3.53-9.19-3.78-9.97-3.97m8.15-10.62.39-.04.85-.19 1-.18 1.01-.14.95-.09.84-.05.65.01.42.06.12.13-.23.2-.58.27-.93.35-1.29.44-1.64.54-2.04.67-2.48.8-2.95.93-3.47 1.04-4.03 1.15-4.77 1.33" filter="url(#a)"/><path d="m67.8-47.71-.12-.03-.1.6-.36.75-.69.79-1.07.73-1.56.57-2.1.32-2.66.07-3.21-.14-3.77-.32-4.33-.49-4.91-.67-5.51-.88-6.12-1.05-6.73-1.21-7.35-1.35-7.98-1.53-8.61-1.76-9.27-2.04-9.98-2.29-10.76-2.46-11.49-2.59m33.29-23.15 1.61.02 1.18-.01.85-.01.51.02.25.07.02.16-.22.23-.48.32-.78.41-1.17.53-1.63.64-2.16.75-2.72.86-3.28.99-3.86 1.11-4.51 1.27-5.32 1.46-6.31 1.72M2.07-86.04l.26-.05 1.45.17 1.93.34 2.03.44 2.05.52 2.1.59 2.21.66 2.29.7 2.31.74 2.31.75 2.27.76 2.24.75 2.21.75 2.12.71 1.97.66 1.77.58 1.54.51 1.32.43 1.1.37.9.32.68.24.32.02" filter="url(#a)"/><path d="m15.49-84.45.46.06 1.35.39 1.15.43.64.38.17.36-.22.37-.59.37-.98.39-1.41.4-1.82.42-2.26.46-2.73.49-3.24.55-3.78.58-4.36.61-4.96.63-5.59.66-6.27.7-7.03.81-7.97.97m59.62-7.42.78.48.26.38-.04.49-.48.59-1.04.67-1.65.74-2.29.82-2.97.89-3.66.98-4.38 1.06-5.12 1.15-5.93 1.27-6.78 1.35-7.68 1.39-8.56 1.38-9.38 1.35-10.23 1.41" filter="url(#a)"/><path d="m38.03-76.06 1.12.66.95.71.57.51.25.37.01.32-.24.29-.53.25-.88.18-1.29.08-1.76-.04-2.27-.18-2.78-.34-3.33-.48-3.86-.65-4.4-.82-4.92-1-5.43-1.19-5.93-1.36-6.49-1.55-7.27-1.72" filter="url(#a)"/><path d="m-36.53-77.26.61.09 1.64-.24 2.35-.27 2.85-.2 3.21-.1 3.52.01 3.84.13 4.2.23 4.54.31 4.85.36 5.1.41 5.29.44 5.47.45 5.6.46 5.65.45 5.59.46 5.4.46 5.18.44" filter="url(#a)"/><path d="m7.62-85.57 2.02.13 1.52.28.94.28.47.27.15.29-.07.34-.28.4-.59.46-.99.5-1.48.54-1.99.58-2.52.62-3.05.67-3.61.71-4.18.78-4.77.86-5.4.97-6.03 1.05-6.62 1.08-6.95.93" filter="url(#a)"/><path d="m9.85-85.64 1.8.48.95.37.41.36.07.43-.13.56-.36.69-.69.81-1.14.92-1.65 1.01-2.16 1.13-2.71 1.26-3.26 1.41-3.83 1.57-4.4 1.72-4.95 1.88-5.5 2.02-6.07 2.19-6.72 2.38-7.42 2.61L-46-59.1l-8.57 2.66m28.89-25.26 1.3-.42 1.6-.48 1.83-.53 1.79-.5 1.56-.4 1.24-.29.95-.2.73-.14.54-.1.39-.07.19-.01-.09.05-.51.16-1.07.3-1.73.47-2.39.62-2.91.72m64.79 9.25.78.46.64.77.34.85-.06.87-.5.85-.96.85-1.43.85-1.91.83-2.41.84-2.94.85-3.47.88-4 .93-4.52.97-5.05 1.01-5.57 1.04-6.15 1.05-6.77 1.04-7.4 1.04-8.02 1.07-8.6 1.1-9.2 1.2-9.94 1.4-10.8 1.73M2.82-86.17l2.02.12 1.17.17.51.19.06.23-.29.31-.7.36-1.28.42-1.95.45-2.68.49-3.4.56-4.04.64-4.73.71-5.59.78-6.64.85" filter="url(#a)"/><path d="m58.93-59.64.87 1.34.51 1.32-.14 1.03-.79.75-1.46.49-2.11.25-2.76.09-3.4-.07-4.08-.22-4.78-.38-5.5-.54-6.23-.68-6.95-.81-7.7-.93-8.52-1.09-9.41-1.31-10.31-1.61-11.1-1.93-11.64-2.36" filter="url(#a)"/><path d="m51.89-66.4.56.42.89.9 1 1.03L55.35-63l1.04 1.1 1.08 1.15 1.08 1.13.95 1 .73.78.48.51.26.28.08.08-.08-.1-.2-.25-.36-.44-.73-.84m-73.87-26.22 1.47-.26 1.33-.14 1.46-.14 1.55-.15 1.51-.15 1.41-.12 1.23-.1.99-.08.74-.05.46-.03h.17l-.16.03-.56.07-.98.11-1.47.16-1.99.19-2.5.17m-36.73 14.56 2.33-1.54 1.73-.72 2.03-.55 2.52-.57 2.96-.58 3.3-.56 3.58-.51 3.81-.45 4.05-.41 4.25-.39 4.4-.38 4.51-.37 4.56-.36 4.6-.33 4.65-.29 4.71-.28 4.71-.28 4.65-.28 4.75-.19" filter="url(#a)"/><path d="m-34.59-78 1.92-.81 1.62-.63 1.73-.6 1.88-.56 2.06-.57 2.27-.59 2.37-.6 2.39-.58 2.33-.56 2.29-.54 2.18-.5 1.94-.45 1.45-.37.74-.26" filter="url(#a)"/><path d="m-31.85-79.18.42-.26 1.1-.47 1.24-.43 1.43-.42 1.63-.44 1.77-.46 1.83-.46 1.89-.47 1.92-.48 1.92-.47 1.84-.45 1.69-.4 1.48-.33 1.24-.27 1.01-.2.8-.15.58-.12.33-.09.02-.04h-.34l-.78.08-1.29.16m51.81 11.68.84.38.98.55 1.06.7 1.07.75.99.73.86.67.7.58.53.48.32.35.12.23-.12.1-.36-.04-.59-.18-.83-.33-1.09-.48-1.36-.64-1.66-.85-2.01-1.07-2.36-1.31-2.74-1.54-3.15-1.76-3.6-2.01-3.93-2.26" filter="url(#a)"/><path d="m38.98-75.65 1.64 1.18 1.15.77 1.09.69 1.17.77 1.26.88 1.3.93 1.26.94 1.17.89 1.05.81.91.72.76.6.58.47.37.33.16.14-.09-.04-.34-.23-.59-.44-.87-.67-1.22-.95-1.67-1.33-2.16-1.76m-77.76-8.23.31-.23.76-.41.65-.29.59-.2.55-.12.4-.02.17.11-.1.27-.38.44-.69.61-1.08.82-1.57 1.08-2.19 1.39-2.86 1.74-3.48 2.03-3.99 2.24-4.33 2.38m21.86-13.95 1.51-.24 1.78.1 2.55.26 3.36.37 4.06.5 4.55.7 4.86.89 5.07 1.1 5.24 1.25 5.46 1.39 5.76 1.52 6.1 1.68 6.41 1.82 6.56 1.85 6.47 1.69 6.22 1.43" filter="url(#a)"/><path d="m-38.81-75.86.37-.14 1.13-.59 1.24-.62 1.24-.6 1.21-.59 1.11-.54.91-.46.65-.33.34-.16v.03l-.37.22-.8.42-1.3.63-1.7.77m87.65 12.45 1.06.98.21.61-.14.64-.37.75-.7.78-1.17.69-1.71.58-2.21.51-2.68.51-3.12.53-3.58.55-4.08.52-4.63.44-5.21.35-5.79.28-6.41.22-7.05.2-7.71.18-8.37.16-8.96.08-9.49-.07-9.99-.2-10.66-.17" filter="url(#a)"/><path d="m-38.81-75.86 40.59 13.3 10.39 5.09 10.34 1.66 2.88-1.25-7.42-3.31-13.99-3.58-14.99-2.46-11.43-1.06-5.17-.33 1.69-.4 7.15-.9 9.84-1.31 9.5-1.33 7.09-.93 4.14-.38 1.9.05.81.11.43-.13.06-.14-.73.88-1.24 3.38.16 6.14.55 3.3-37.35-22.95" filter="url(#a)"/><path d="M73.76-36.93 18.29-60.91l-31.43-6.44-4.3-2.79 12.34.35 17.26 2.83 12.96 2.85 3.9.86-4.64-1.16-8.48-1.48-5.92.27 1.49 3.18 9.73 5.64 14.01 6.1 11.31 3.79 2.37-.45-8.1-3.69-14.47-1.98-20.46 4.17-70.36-4.18" filter="url(#a)"/><path d="m35.64-77.4-48.69 8.12 4.6 3.05 16.55 1.1 10.81 1.33 5.25 2.61 5.2 3.3 7.75 2.63 8.63 1.06 6.4-.44 2.26-1.25-2.47-1.78-8.09-3.01-15.45-5.51-21.6-9.38-3.97-10.6" filter="url(#a)"/><path d="m-63.15-54.57 66.53-4.48.33-3.74-9.53 1.32-1.6 1.81 4.48-.87 5.75-3.18 5.3-3.3 5-1.71 4.01.04 1.26.75-2.44.39-4.65-.13-4.38-.1-3.84.04-3.63-.64 8.42.28 54.82 12.91" filter="url(#a)"/><path d="m-63.53-53.86 57.52-6.8-1.01-8.63-7.38-2.61-2.47 3.16 1.31 5.52 2.32 4.4 2.39 1.29 2.65-2.02 2.66-4.3 1.76-4.87.38-3.64-.01-1.13 2.12 1.53 6.74 3.12 10.9 2.88 9.45 1.24.86.31-.89 4.95 48.76 24.43" filter="url(#a)"/><path d="m34.51-77.93-44.74 4.87 1.65-.25L2.1-75.34l7.65-2.32 2.98-1.33-1.59.21-5.19 1.55L-.07-75l-3.25 2.08 1.43 1.25 4.58.19 3.73-.68-.26-1.24-3.5-1.59-2.5-1.77 1.53-1.44 5.13-.6 27.27.54" filter="url(#a)"/><path d="M54.72-63.93 37.31-53.65l-25.8-5.21-5.12-4.91 5.29-3.37 4.76-3.14 1.19-3.18-1.37-2.6-2.92-1.51-4.3-.38-5.51.27-5.73.22-4.03-.44.24-1.13 6.37-.92 11.94 1.09 16.36 6.13L64.1-53.05" filter="url(#a)"/><path d="M22.04-82.77 9.57-81.63l5.62 6.37 7.37 3.67 1.43.36-3.32-.45-4.3.27-2.46 1.24.13 1.96 1.69 2.3 1.17 2.03-1.63.92-5.78-.81-9.14-2.48-9.42-3.48-6.07-3.66-1.43-3.32 1.09-2.35 2.15-.14 11.84 3.17 49.54 6.41" filter="url(#a)"/><path d="m-49.23-68.8 30.19-9.63 9.07-.29 7.71 2.02 5.31.64-.25-.48-5.08.19-5.91 1.97-1.89 3.5 4.83 3.82 9.82 2.66 8.96.25 1.79-2.65-6.96-4.64-9.73-4.19-1.53-.26 17.74 8.53 57.41 27.52" filter="url(#a)"/><path d="m-7.59-85.84-21.57 11.41 9.1-.11 16.3 1.28 15.3 3.87 11.8 4.93 6.28 4.17-1.3 1.96-8.56-.9-11.94-3.15-10.07-3.77-5.83-2.81-3.99-1.54-5.67-1.7-5.11-3.79 3.68-5.77 11.58-4.08" filter="url(#a)"/><path d="m21.2-83.05 4.28 1.42 2.1 1.25 1.43 1.64 1.42 1.77-.29 1.01-3.28.05-5.13-.15-4.3.73-1.48 2.08.85 3 .71 2.99-1.78 2.33-4.28 1.66-4.17 1.21-.3.54 6.8-.82 15.39-3.38 5.34-12.21" filter="url(#a)"/><path d="m31.56-79.56 8.35 7.49 7.91 8.01-3.15 2.68-11.8-.83-13.23-1.64-9.43-.99-4.51-.24-.41.1 2.93.16 4.82.21 3.02.35-3.07.35-9.36-.62L-9.12-67l-42.78.53" filter="url(#a)"/><path d="m-42.92-73.25 5.44 6.94 24.81-.38 17.28-1.75 8.05-2.31 3.19-1.37.36.37-2.3 1.61-4.39 1.66-5.23.46-5.42-1.46-5.91-3.15-5.86-3.76-3.04-3.32 2.53-2.83 4.79-2.41-3.7-.3" filter="url(#a)"/><path d="m-31.85-79.18 3.07 2.73 21.23-.42 19.18 2.36 8.74 3.81-.61 3.41-3.44 2.57-.56 2.11 3.53 2.11 4.8 2.32 1.88 2.44-4.45 1.94-11.7.45-15.17-1.45-8.25-1.94 12.35.56 37.07 4.19 29.77.56" filter="url(#a)"/><path d="m-51.9-66.47 55.97-.71 5.96 1.06.18 2.2 2.81.23 3.79-1.21 3.77-1 3.48-.1 1.99.4-1.56-.09-6.35-1.49-9.5-2.96-7.56-2.69 1.05.99L17.03-64l29.25 13.37 22.32 4.3" filter="url(#a)"/><path d="M5.51-86.13-22.4-75.49l8.9-1.76 17.11-1.63 15.36.59 11.07 2.09 6.11 2.31.24 1.38-6.45-.06-12.64-.97-15.79-.57L-12-73.04l-4.86 2.77 7.63 2.78 15.45-.02 2.33-4.44-45.14-4.81" filter="url(#a)"/><path d="m-20.86-83.14.54 7.31 15.08 4.3 1.3 2.96-8.67.7-7.76-1.31-1.13-2.59 5.05-3.02 7.96-2.64 7.88-1.7 6-.64 3.03.11-.72.25-4.38-.12-6.14-.48-3.29.11 9.64 2.41 44.33 7.86" filter="url(#a)"/><path d="m-25.36-81.89 11.67 1.42 15.77 8.43 9.89 7.63-2.92 2.53-10.59-1.88-9.96-3.66-4.14-3.41 2.49-2.24 7.04-.92 8.64.21 7.8.98 5.51 1.27 2.46.97-.82.22-3.33-.49-3.57-.38-.61 1.05 3.55 3.32 4.21 4.88 3.98 5.17 48.13 12.45" filter="url(#a)"/><path d="M52.87-65.37 6.51-76.76l-17.56-2.68-2 .76 3.76 1.6 3.71 1.35 2.54 1.05 2.46.95 3.03.71 3.22.14 2.8-.52 2.29-.76 2.25-.37 2.68.47 3.05 1.26 2.77 1.49 1.72 1 .34.17-.62-.21-.73.54-.49 2.07-1.49 2.56-5.04-.11-11.53-4.39-42.48-6.18" filter="url(#a)"/><path d="m73.76-36.93-31.22-9.8-31.32-13.98L1.15-71.2l3.53-5.29 7.71-1.08 5.78 1.35 1.12 2.19-3.56 2.09-6.38 1.75-6.82 1.4-5.54.93-3.6.18-1.69-.75.01-1.53 1.44-1.86 2.22-1.72 1.83-1.24.04-.45-2.44.67-2.91 1.9 4.63 3.03 26.01 5.7 47.2 19.73" filter="url(#a)"/><path d="m80.62-12.72-.49-1.77-.48-1.4-.48-1.21-.52-1.2-.55-1.25-.52-1.23-.5-1.17-.47-1.1-.47-1.08-.48-1.11-.52-1.17-.58-1.22-.62-1.21-.64-1.15-.64-1.06-.63-1.02-.63-1-.63-1.03-.63-1.05-.63-.98-.61-.86-.65-.76-.98-1.09-1.97-2.62L-.24-86.22l1.46-1.5 1.11-2.48 1.31-1.56 1.44-.4 1.42.26 1.34.52 1.31.5 1.34.27 1.39-.07 1.43-.36 1.4-.45 1.37-.32 1.36-.07 1.44.09 1.54.01 1.65-.31 1.73-.74 1.78-1.12 1.83-1.3 1.84-1.27 1.73-1.15 1.47-1.16 1.19-2.04" filter="url(#a)"/><path d="M-2.11-86.28-.4-92.3l1.34 1.34 1.23 1.72 1.31.8 1.39.11 1.41-.23L7.67-89l1.41-.68 1.47-.92 1.5-1.03 1.49-.95 1.45-.71 1.43-.45 1.46-.29 1.56-.33 1.71-.54 1.82-.86 1.9-1.21 1.96-1.54 2.05-1.8 2.1-1.88 1.99-1.71 1.51-1.14.65-.29-37.24 19.05-.21-2.2-.84-.58-1.17.5-1.35.48-1.47-.19-1.57-1.01-1.6-1.51-1.54-1.5-1.39-1.03-1.25-.49-1.16-.21-1.19-.39-1.35-.9-1.59-1.43-1.86-1.63-2.06-1.31-2.1-.62-1.98.01-1.73.12-1.27-.2-.72-1.38" filter="url(#a)"/><path d="m27.72-108.6-4.5 2.63-2.63 1.25-1.68.93-1.38.8-1.44.91-1.61 1.29-1.72 1.76-1.72 2.07-1.63 2.05-1.55 1.77-1.5 1.42-1.48 1.17-1.43 1.09-1.34 1.04-1.23.95-1.2.73-1.1.45-.47.33 28.45-18.11-3.98.84-2.53 1.2-1.69 1.16-1.39.86-1.41.7-1.53.9-1.62 1.28-1.63 1.55-1.59 1.51-1.52 1.22-1.47.83-1.44.49-1.39.27-1.33.1-1.24-.08-1.17-.28-1.08-.44-1.04-.57-1.07-.58-1.17.64-.75 6.68-2.23-6.86-1.32 1.33-1.27 1.79-1.36.36-1.42-1.03-1.45-1.85-1.42-2.12-1.38-1.96-1.39-1.58-1.51-1.17-1.74-.86-2.03-.78-2.29-.97-2.4-1.33-2.23-1.69-1.72-1.77-.58-.99m21.45 22.1 1.38-.08 1.52-.15 1.44-.13 1.36-.1 1.26-.05 1.18-.01 1.09.05 1.05.11 1.06.15 1.09.15 1.15.12 1.2.09 1.25.08 1.26.12 1.25.19 1.22.27 1.23.32 1.25.34 1.25.32 1.19.31 1.01.3.81.3.8.32 1.53.39m-55.08 9.24 1.84-1.16 1.04-.74.94-.69 1.01-.66 1.03-.62 1.02-.58.96-.54.93-.53.93-.54.95-.58 1-.61 1.04-.64 1.12-.65 1.21-.65 1.32-.63 1.39-.56 1.41-.48 1.32-.38 1.16-.26.99-.18.88-.16.91-.21 1.01-.27.84-.33" filter="url(#a)"/><path d="m17.98-105.49-1.35.29-1.97 1.39-1.97 1.35-1.78 1.65-1.61 1.96-1.56 1.88-1.54 1.4-1.5.74-1.43.24-1.33.13-1.23.42-1.16.86-1.12 1.1-1.13.87-1.2.26-1.29-.4-1.38-.63-1.42-.09-1.38 1.2-1.29 2.85-1.11 2.85 21.81-2.13-1.34.23-.85.08-1.07.01-1.29-.03-1.37-.01-1.31.04-1.21.07-1.13.1-1.06.1-1.03.09-1.03.07-1.09.06-1.18.05-1.27.08-1.35.16-1.41.31-1.48.44-1.34.28m-27.53-17.28 3.79.26 2.24.13 1.85 1.06 1.95 1.73 2.11 1.64 2.15 1.21 2.13.99 2.04 1.25 1.89 1.74 1.64 1.96 1.32 1.61 1.08.92 1.05.51 1.22.98 1.07 1.29m92.14 70.35-.31-1.36-.05-1.16.08-1.26.13-1.45.21-1.5.31-1.46.46-1.37.57-1.36.55-1.41.39-1.56.17-1.74.07-1.85.22-1.8.55-1.5.72-1.27-.13-1.87" filter="url(#a)"/><path d="m80.37-14.82-.08-1.42.09-1.22.09-1.3.13-1.46.22-1.51.34-1.48.44-1.4.41-1.38.26-1.41.06-1.49-.11-1.57-.2-1.58-.19-1.5-.12-1.4.05-1.38.23-1.52.31-1.7.12-1.82-.3-1.77-.71-1.76-69-32.67-1.32-.96-1.43-.78-1.2-.65-1.07-.59-1.08-.57-1.17-.53-1.21-.44-1.2-.34-1.15-.32-1.09-.35-1.05-.41-1.03-.46-1.04-.44-1.1-.37-1.17-.28-1.27-.17-1.35-.07-1.39.03-1.38.11-1.22.08-.81-.18m-2.84.81-.49-.81-1.06-.9-1.63-1.39-2-1.59-2.15-1.49-2.11-1.31-1.96-1.06-1.76-.74-1.58-.38-1.49-.18-1.46-.17-1.47-.25-1.45-.23-1.39-.02-1.36.25-1.41.34-1.6.09-1.91-.54-2.31-1.36-2.72-2.17-2.96-2.49-2.57-1.42-1.81 2" filter="url(#a)"/><path d="m9.65-97.32-1.76.83-1.86.33-1.72.52-1.48.85-1.31 1.04-1.2 1.02-1.15.81-1.13.51-1.15.25-1.2.16-1.26.23-1.31.4-1.33.58-1.34.63-1.3.56-1.24.49-1.12.51-.97.63-.84.73-.76.6-.84.29-1.04.17-1.21 1.28m-28.61 11.29 2.24-1.47 1.16-.61 1.01-.52 1.08-.6 1.17-.63 1.19-.59 1.19-.52 1.16-.5 1.15-.49 1.13-.5 1.13-.51 1.09-.48 1.06-.44 1.04-.38 1.04-.33 1.07-.31 1.1-.32 1.11-.33 1.12-.31 1.18-.29 1.38-.33 1.74-.47 2.07-.36" filter="url(#a)"/><path d="m-18.87-83.9 1.36-.54.9-.87.71-.89.74-.6.88-.35 1.01-.29 1.13-.35 1.22-.4 1.3-.37 1.35-.3 1.37-.21 1.34-.19 1.26-.22 1.17-.29 1.09-.34 1.06-.39 1.09-.43 1.06-.5.9-.47.95-.28m-27.31 10.01-1.29-.7-1.54-1.36-1.6-.85-1.32-.06-1.13.25-1.15.13-1.31-.16-1.51-.42-1.65-.58-1.74-.64-1.77-.64-1.8-.61-1.82-.53-1.86-.41-1.84-.22-1.77-.05-1.67-.01-1.76-.36-2.49-1.01-4.63-1.28M79.8-16.39l.92 1.48 1 1.4 1.05 1.22 1.08 1.08 1.21 1 1.38 1.01 1.52 1.06L89.59-7l1.72 1.25 1.76 1.34 1.62 1.44 1.36 1.51 1.1 1.57 1.21 1.62 1.81 1.67 2.43 1.66 1.53 1.29M-39.69-71.3l1.22-1.55.83-1.02.88-.83.89-.76.91-.72.98-.68 1.04-.61 1.05-.54.97-.53.85-.58.78-.64.87-.66 1.12-.63 1.19-.48.43-.17" filter="url(#a)"/><path d="m-25.68-81.7-.37.37-1 1.01-1.06.79-.98.43-.93.33-.9.5-.85.82-.78 1.11-.7 1.33-.64 1.4-.63 1.37-.63 1.33-.61 1.37-.54 1.52-.42 1.66-.34 1.61-.29 1.41-.29 1.64-.58 3.25 12.54-23.25-.58-.2-1.34.13-1.34.08-1.19-.07-1.12-.02-1.1.17-1.11.37-1.12.52-1.12.57-1.14.56-1.18.48-1.27.37-1.37.24-1.44.16-1.46.14-1.41.21-1.34.37-1.33.52-1.44.57-1.56.48-1.55.38-1.52.61 24.31-5.55-3.57-6.71-1.6-.31-1.16.98-1.33.65h-1.58l-1.62-.2-1.46.1-1.22.62-1.11.92-1.24.8-1.55.26-1.95-.4-2.25-.84-2.34-.89-2.23-.61-2.07-.3-2.02-.29-2.15-.54-2.45-.74-3.05-.88-3.36-1.56" filter="url(#a)"/><path d="m-48.72-60.2.73-1.05.77-1.22.73-1.19.72-.97.79-.81.85-.83.83-.97.78-1.12.74-1.18.76-1.12.82-1.01.9-.92.95-.9.94-.9.92-.87.92-.8.95-.79.97-.88.92-.91.32-.39-4.18 2.27.81-1.52.97-1.28.8-1.69.52-2.13.4-2.19.48-1.82.73-1.25.97-.78 1.15-.56 1.22-.59 1.26-.77 1.31-1 1.39-1.18 1.48-1.2 1.52-1 1.46-.67 1.28-.47 1.01-.62.76-1.21.79-2.1 1.3-2.87-21.61 26.9-.92-.37-1.53-.18-1.71-.28-1.75-.33-1.68-.25-1.48.01-1.37.29-1.44.35-1.66.1-1.86-.25-1.91-.44-1.76-.29-1.58.17-1.49.65-1.49.78-1.48.55 51.27-6.63-.92-.05-.99-.12-1-.09-.93-.05h-.92l-1.01.07-1.16.17-1.31.27-1.41.36-1.43.39-1.38.39-1.3.37-1.22.34-1.15.33-1.1.34-1.05.34-1 .33-.99.32-1.04.36-1.14.44-1.23.48-1.27.51-1.21.62-13.36 28.17.22-1.61.33-1.85.42-1.77.31-1.69.23-1.52.31-1.24.49-.95.66-.79.74-.79.7-.93.55-1.19.41-1.42.36-1.55.46-1.49.63-1.31.78-1.11.84-.97.83-1.02.8-1.16.83-1.27.98-1.21 1.54-1.83" filter="url(#a)"/><path d="m-39.5-75.33 1.01-3.12 1-.96.81-1.15.75-1.49.65-1.86.47-2.29.32-2.51.38-2.29.63-1.66.97-.94 1.22-.54 1.29-.66 1.2-1.3 1.09-2.21 1.04-3.07 1.12-3.48 1.27-3.16 1.42-2.18 1.36-1.05.98-.65.15-1.57" filter="url(#a)"/><path d="m-19.84-110.52.1 2.85-.77 1.66-1.43.69-1.68.86-1.63 1.53-1.48 1.92-1.34 1.85-1.23 1.58-1.13 1.38-1.02 1.37-.9 1.47-.77 1.58-.67 1.73-.55 1.9-.49 2.1-.49 2.17-.59 1.98-.74 1.53-.88 1.09-.89.96-.75 1.25-.69 1.52-1.39 1.44m-1.77.76-.28.1-1.13.15-1.44.38-1.32.58-1.13.65-1.01.67-.99.68-.99.73-1 .76-.95.73-.91.63-.88.55-.96.53-1.17.62-1.47.79-1.58 1.19-17.79-2.6 3.09-1.2 2.57-.45 2.14.01 1.88.08 1.8-.08 1.8-.28 1.78-.43 1.7-.46 1.61-.39 1.54-.25 1.52-.11 1.53-.05 1.51-.07 1.46-.17 1.34-.31 1.25-.41 1.2-.48 1.24-.52 1.35-.56 1.37-.52 1.05-.34.27-.15.06.23-.77.64-1.25 1.15-1.11 1.05-.93.89-.81.85-.74.93-.71 1.04-.67 1.09-.63 1.04-.56.98-.47 1.01-.4 1.16-.45 1.36-.7 1.46-.99 1.48-1.03 1.6" filter="url(#a)"/><path d="m-49.23-68.8-1.67-1.68-2.26-.63-1.27.64-.81.92-.86.7-1.17.39-1.58.17-2.03-.02-2.44-.26-2.76-.55-2.86-.83-2.56-.78-1.88-.16-1.29.84-1.7 1.39-3.24 1.11 51.36-6.09.24-.94-.62-.27-.99.08-1.08.35-1.09.47-1.1.43-1.17.27-1.25.08-1.35-.04-1.38-.02-1.33.12-1.23.32-1.1.52-1 .7-.98.87-.97 1.06-.96 1.14-1.17.71-2.45-1.01" filter="url(#a)"/><path d="m-72.54-61.55 2.73-1.21 2.32-.5 1.77-.21 1.52-.08 1.56-.1 1.7-.22 1.72-.38 1.55-.57 1.26-.72.94-.83.74-.84.71-.85.81-.94.88-1.22 1.01-1.06 2.09 2.48 2.14.59 1.74.15 1.11-.91.92-1.12 1.01-.75 1.21-.26 1.4.09 1.48.16 1.41.03 1.26-.18 1.14-.3 1.11-.27 1.17-.1 1.29.11 1.43.39 1.54.67 1.55.81 1.34 1.2" filter="url(#a)"/><path d="m-62.26-45.62.36-1.8.44-1.81.4-1.4.43-1.1.5-.99.58-1.02.61-1.03.62-1.02.61-.99.66-1 .71-1.1.71-1.26.69-1.38.61-1.38.56-1.21.54-.94.57-.7.63-.58.58-.47-3.34 2.96 1.98.79 1.9 1.04 1.18.08.7-.77.51-1.24.52-1.28.68-1.04.91-.64 1.19-.28 1.46.04 1.66.28 1.73.49 1.64.59 1.53.53 1.65.24 2.08-.43" filter="url(#a)"/><path d="m-60.09-42.62.09-1.44-.25-2.09-.17-2.06.04-1.63.27-1.23.45-1.02.57-.98.6-1.05.51-1.1.31-1.17.13-1.31.14-1.51.44-1.63.93-1.59 1.24-1.41-33.89 11.05.47-.01 2.76.69 2.78.32 2.28-.26 1.79-.76 1.4-1.13 1.19-1.33 1.16-1.34 1.32-1.13 1.59-.74 1.87-.32 2.05-.04 2.02.02 1.83-.14 1.49-.36 1.09-.59.69-.82.6-1.03 1.22-.91 2.85.17-10.46 16.97.76-1.08.52-1.37.63-1.49.74-1.37.75-1.17.69-1 .65-.93.68-.98.7-1 .71-.98.61-.89.5-.88.51-1.03.8-1.31 1.21-1.49M71.81-39.14l.03.09.22.44.46.83.59 1.07.6 1.14.57 1.12.5 1.07.47 1.05.46 1.13.47 1.26.5 1.37.47 1.38.43 1.27.37 1.07.31.93.29.92.31 1.12.29 1.69m0 0 .39-1.9.03-1.24.08-1.06.15-1.14.16-1.32.06-1.49-.1-1.56-.2-1.52-.23-1.43-.24-1.33-.26-1.27-.3-1.27-.33-1.31-.28-1.35-.19-1.38-.15-1.41-.23-1.45-.36-1.6-.41-1.82-.29-1.94-.12-1.71.04-.94" filter="url(#a)"/><path d="m-59.2-59.43-2.34-1.34-1.77-.78-.56.99-.17 1.69-.36 1.54-.83 1.08-1.44.61-2.04.27-2.52.06-2.83-.01-2.92.01-2.83.11-2.61.23-2.35.34-2.14.4-2.02.45-1.95.51-1.85.66-1.66.87-1.53.93-1.64.71-1.7.46-.3.85 63.2-31.16-.94.72-.98.63-1.07.74-1.11.8-1.09.85-1.04.86-1 .89-.99.89-1.01.89-1.04.85-1.04.79-1.04.75-1.02.74-.97.77-.92.82-.83.87-.76.9-.71.92-.76.95-.87 1.03-1.04 1.17-1.18 1.3-1.18 1.34-.94 1.23.62-1.03-1.54 1.1-1.28 1.22-1.5.62-1.91-.02-2.18-.25-2.16-.01-1.88.49-1.57.93-1.47 1.09-1.65.98-1.85.76-1.77.67-1.27.79-.79.83-1.11.27-1.91-.86m24.61-7.05-1.31 1.33-.96 1.07-.72.85-.76.85-.92.97-1.09 1.07-1.15 1.12-1.14 1.14-1.06 1.13-.95 1.11-.84 1.07-.74 1.01-.68.99-.67.98-.73 1-.81.98-.88.92-.9.84-.85.91-.83 1.3-1.09 2.39" filter="url(#a)"/><path d="m-61.53-56.12-1.67.87-1.55-.14-1.32.2-1.05.86-.95 1.26-.96 1.36-1.02 1.31-1.09 1.19-1.11 1.05-1.12.93-1.14.78-1.23.65-1.43.56-1.6.57-1.59.7-1.28.82-.94.76-1.41.86" filter="url(#a)"/><path d="m-63.53-53.86.56-.24.81-.45.92-.87.87-.99.79-.95.75-.91.8-.93.87-.99.95-1.01.97-.98.96-.91.93-.8.93-.7.96-.63 1.01-.59 1.04-.6 1.04-.59 1.02-.6 1-.62 1.06-.71 1.23-.84 1.38-.9.89-.46-22.71 18.09.38-.94-.22-1.22.12-1.19.53-1.18.53-1.31.3-1.51.11-1.66.11-1.73.3-1.71.56-1.6.79-1.4.91-1.18.9-1.01.82-.97.71-1.08.62-1.34.58-1.62.55-1.7.51-1.33.77-.99m-9.88 26.67L-65.88-51l-1.25 1.3-1.73.73-2.47.19-3.06-.24-3.21-.44-2.88-.34-2.29.01-1.67.46-1.18.89-.86 1.18-.74 1.19-.95.86-1.57.37-2.34-.28" filter="url(#a)"/><path d="m-64.5-53.04-.64 2.6-.67 1.7-.66 1.42-.53 1.38-.24 1.45.11 1.51.39 1.54.54 1.54.56 1.53.45 1.5.23 1.38-.04 1.19-.2 1.04-.22 1.03-.21 1.12-.18 1.09.37.34-9.6.87-.04-.39.07-.77.23-1.08.35-1.19.42-1.19.43-1.17.42-1.14.4-1.12.38-1.12.38-1.13.41-1.12.45-1.09.46-1.05.5-1.03.55-1.04.63-1.1.72-1.19.78-1.26.82-1.34.91-1.55 1.27-2.16 4.18-31.25.22.93-.84 1.73-.89 1.55-.57 1.52-.2 1.75.02 2.02-.03 2.15-.26 2.06-.5 1.86-.58 1.66-.52 1.54-.42 1.47-.44 1.41-.63 1.26-.84 1.09-.9.93-.8.82-.8.77-.55 1.43 3.56 6.03 2.33-26.64-.28 2.29-.47 2.45-.59 2.21-.29 2.09.18 2.13.45 2.16.35 2.05.03 1.78-.33 1.47-.55 1.19-.64 1.08-.65 1.15-.7 1.31-.72 1.49-.49 1.68.02 1.86.18 1.81" filter="url(#a)"/><path d="m-88.3-24.35.71.04.7-1.19.78-1.68.97-1.65 1.13-1.36 1.21-1.09 1.16-.94 1.02-.95.83-1.03.67-1.13.59-1.16.61-1.13.71-1.03.84-.94.96-.91 1-.92.98-.94.9-.81 1.01-.54 1.58-.41" filter="url(#a)"/><path d="m-71.03-42.14-1.82-2.2-1.51-2.27.1-1.48 1.13-1.01 1.41-.97 1.2-1.2.77-1.56.3-1.87-.1-2.07-.43-2.21-.68-2.34-.78-2.53-.7-2.63-.49-2.48-.39-2.06-.73-1.81-1-2.21" filter="url(#a)"/><path d="m-73.06-38.46.03-.16.56-1.11.64-1.21.56-1.08.53-1 .55-1.01.62-1.08.68-1.18.74-1.26.79-1.32.82-1.32.81-1.29.8-1.21.78-1.12.75-1.05.76-1 .78-1 .76-.96.71-.9.65-.82.72-.89.98-1.17 1.29-1.48 9.86 8.44-2.27-.03-1.68.51-1.31.54-1.14.4-1.12.32-1.15.36-1.17.43-1.17.49-1.13.55-1.08.66-1 .82-.87 1.02-.72 1.22-.59 1.36-.53 1.39-.59 1.27-.78 1.05-1.06.74-1.34.48-1.54.35-1.58.45-1.36.75-.88.93-.11.12M-82.88-18l.95-2.39.65-1.17.47-.95.47-1.14.56-1.39.63-1.49.61-1.42.54-1.27.49-1.12.48-1.06.51-1.07.55-1.12.58-1.16.64-1.19.77-1.2.92-1.32m-.79 1.94-.24 1.01-.06 1.44.08 1.4-.04 1.29-.19 1.15-.21 1.09-.11 1.17.03 1.39.11 1.58.12 1.64.09 1.5.08 1.2.03.98-.24 1.17-.84 2.17" filter="url(#a)"/><path d="m-75.39-32.86-3.16-1.26-3.9-.41-2.12.47-.99.91-.57 1.22-.34 1.51-.1 1.72.14 1.79.21 1.67-.06 1.42-.68 1.12-1.54.89-2.32.77-2.72.85-2.47 1.15-1.79 1.55-1.45 1.69-1.15 1.21m25.56-19.35.57.04.37-1.15.34-1.2.4-1.07.53-.99.68-.95.81-.91.88-.82.91-.76.92-.74.96-.76.99-.85 1.02-.94 1.01-1.07 1.01-1.16 1.07-1.22 1.22-1.12 1.32-.8 1.01-.42" filter="url(#a)"/><path d="m-76.53-29.63-1.25-2.49.58-1.39.37-1.32-.1-1.48-.24-1.5-.05-1.36.25-1.22.42-1.18.39-1.24.2-1.34-.03-1.41-.15-1.45-.08-1.49.1-1.55.26-1.71.19-1.87-.61-2.26" filter="url(#a)"/><path d="m-76.54-29.76-.53-.88-1.31-1.97-.68-1.79.24-1.36.69-1.13.56-1.17.06-1.42-.6-1.8-1.19-2.17-1.6-2.44-1.71-2.52-1.49-2.44-1-2.21-.43-1.99.03-1.91.17-2.05.01-2.38-.29-2.76-.44-2.95-.28-2.73.19-2.07.71-1.17 1.08-.69 1.02-2.25M78.05-25.32l.44 1.1.31 1.01.56 1.2.87 1.27 1.05 1.24 1.07 1.21.98 1.22.88 1.25.82 1.27.8 1.27.77 1.22.69 1.18.55 1.16.37 1.2.22 1.24.17 1.32.26 1.4.46 1.44.72 1.48.94 1.48 1 1.45 1.04 1.87" filter="url(#a)"/><path d="M106.29-3.87 104-7.43l-3.15-1.35-2.65-1.01-2.02-1.04-1.52-1.11-1.33-1.17-1.39-1.22-1.42-1.28-1.22-1.33-.8-1.38-.49-1.4-.67-1.35-1.48-1.16-2.52-.86-2.9-.57-1.9-.58-.49-1.08-.48-1.75 1.18.92 1.54.47 1.08.65.75.93.75 1.14.94 1.24 1.23 1.24 1.58 1.18 1.96 1.14 2.26 1.11 2.35 1.12 2.16 1.15 1.71 1.19 1.11 1.24.58 1.28.3 1.34.38 1.39.74 1.45 1.2 1.52 1.57 1.6 1.67 1.91 1.56 3.08-51.63-46.56.79.54.6.26.98.35 1.28.37 1.33.37 1.24.4 1.21.46 1.24.53 1.32.64 1.3.75 1.2.87 1.02.94.83.99.64 1.03.5 1.09.45 1.15.49 1.13.58 1.01.64.8.79.55 1.53.47 2.2 1.82-.83-2.94-.75-1.96-.46-1.55-.51-1.35-.54-1.2-.53-1.12-.52-1.16-.51-1.28-.5-1.4-.5-1.46-.48-1.41-.48-1.3-.5-1.18-.54-1.11-.57-1.07-.59-1.09-.6-1.07-.63-1.06L66-54.6l-.74-1.18-.81-1.33-.94-1.47-1.86-2.23L74.7-34.32l-.79-.78-1.11-.94-.82-1.01-.57-1.01-.59-1-.77-1.03-1.01-1.04-1.13-1.02-1.11-.97-.95-.92-.76-.89-.68-.85-.76-.8-.93-.75-1.01-.67-.94-.44-.81-.11-1.05-.42 15.62 13.94 2.97-.07 2.51.08.69.78-.03 1.35.1 1.58.53 1.54.97 1.3 1.29 1.07 1.47.91 1.55.88 1.52.96 1.43 1.1 1.27 1.22 1.12 1.31.97 1.36.84 1.43.68 1.5.59 1.53.73 1.45 1.22 1.18 1.87 1.06 2.2 2.57" filter="url(#a)"/><path d="m72.87-37.98 1.16.98.76 1.22.73 1.1.83.87.96.79 1.06.89 1.19 1.06 1.27 1.19 1.27 1.18 1.13 1.07.9.96.75.91.78.97.93 1.23 1.05 1.75 1.64 2.32-16.41-18.49 3.18.04 2.63.36.79 1.08-.01 1.29.09 1.22.73 1.11 1.55 1.01 2.27.9 2.64.76 2.49.66 1.97.68 1.37.79 1.16.98 1.65 1.21 2.67 1.55 3.08 2.26M72.52-39.37l-.41-1.51.88-3.17 2.53-3.92 2.68-3.64 1.65-2.73.31-1.75-.77-1.01-1.41-.63-1.59-.55-1.45-.71-1.08-1.06-.59-1.56-.07-2.09.29-2.45.4-2.49.17-2.14-.27-1.57-.73-1.1-.9-1.1-.65-1.73-.01-2.64.71-3.17 1-2.69.92-1.82" filter="url(#a)"/><path d="m69.73-44.2.69 1.11.87 1.67.63 1.3.48 1.07.46 1.03.48 1.11.5 1.15.48 1.14.45 1.11.41 1.09.41 1.15.42 1.28.42 1.4.41 1.44.35 1.31.26 1.11.2.89.21.78.32.85-9.48-24.24.42.54.74 1.14 1 1.33 1.12 1.26 1.11 1.06 1.06.9 1.03.85.99.89.94.98.84 1.03.69 1.03.55 1.04.48 1.11.56 1.29.74 1.52.91 1.61 1 1.28 1.34.27M67.8-47.71 67.63-50l-.82-1.45-.78-1.02-.6-1.02-.46-1.29-.41-1.54-.43-1.6-.51-1.44-.54-1.16-.54-.92-.48-.92-.44-1.2-.5-1.62-.58-1.83-.53-1.54.09-1.16 5.49 18.28-.61-.88-.37-.69-.69-1.02-.76-1.31-.54-1.57-.07-1.85.45-2.18.84-2.46.92-2.62.69-2.55.23-2.23-.25-1.79-.61-1.38-.78-1.14-.77-1.11-.7-1.22-.65-1.35-.64-1.46-.64-1.63-.51-1.86-.24-2 .59-1.91" filter="url(#a)"/><path d="m64.1-53.05.39.29-.34-1.3-.3-1.93-.15-2.03-.15-1.79-.25-1.41-.4-1.1-.54-1-.63-1.09-.66-1.23-.63-1.33-.54-1.34-.48-1.3-.45-1.29-.39-1.4-.26-1.66-.03-2.08.19-2.55.25-2.67 6.56 29.91-1.4-1.91-1.29-1.58-1.05-1.28-.87-1.06-.73-.85-.68-.7-.74-.67-.87-.73-.96-.79-.97-.82-.92-.77-.84-.71-.81-.67-.82-.67-.84-.7-.88-.7-1-.68-1.03-.58" filter="url(#a)"/><path d="m64.1-53.29 1.5.18 2.48-1.16 2.25-.48 1.54.42 1.24.73 1.35.6 1.52.44 1.57.49 1.47.77 1.34 1.12 1.33 1.37 1.39 1.29 1.39.89 1.23.45 1.4.78M61.29-56.45l1.42 2.82.65 1.53-.11 1.44-.44 1.67-.37 1.7-.12 1.5.11 1.28.25 1.14.35 1.13.42 1.17.44 1.28.3 1.4.03 1.5L64-35.4l-.29 1.38-.07 1.23.2 1.16.21 1.19-.2 1.1-2.56-27.11-1.51 1.27-1.08-.64-.75-.68-.57-.65-.59-.77-.7-.92-.79-.97-.8-.95-.81-.85-.83-.73-.9-.6-1.02-.46-1.15-.33-1.25-.25-1.3-.24-1.31-.28-1.25-.4-1.17-.55-1.11-.65-1.09-.63-1.1-.42-1.13-.06-1.06.23-.77.15" filter="url(#a)"/><path d="m46.14-96.64.93 2.07.46 2.97.45 2.68.4 2.33.36 2.14.45 1.94.67 1.66.95 1.3 1.15 1.01 1.24.85 1.18.87 1.02 1.02.81 1.21.64 1.36.54 1.39.49 1.36.42 1.35.27 1.5.1 1.77.04 2.06.17 2.09.34 1.7.2.83-.49-.46 1.06 1.25 1.32-1.9 2.06-.52 1.26.98.9 1.44 1 1.24 1.26.87 1.48.56 1.59.44 1.57.45 1.44.55 1.21.73.93.96.73 1.18.67 1.35.8 1.4 1 1.33 1.18 1.2 1.24 1.04 1.19.97 1.11 1.01 1.13 1.12 1.33 1.21 1.62 1.3 2.33 1.67-30.71-21.08 2.58-2.44 3.15-2.73 1.32.02-.03 1.97-.19 2.4.44 1.83 1.34.89 2.12.11 2.63-.35 2.78-.43 2.67-.28 2.43-.13 2.34-.07 2.49-.17 2.72-.24 2.39-.02.88.31-33.62-2.08.7 1.23.19.65.32.54.56.78.73 1.04.75 1.22.66 1.29.52 1.31.4 1.29.34 1.27.33 1.23.31 1.19.3 1.17.27 1.14.3 1.15.39 1.2.52 1.3.63 1.46.57 1.53.3 1.19.04.06-16.67-48.41.38 3.02.77 1.89.8 1.68.64 1.71.57 1.67.63 1.5.7 1.3.6 1.29.37 1.48.15 1.64.16 1.49.46.96.9.44.98.85-.57 4.25" filter="url(#a)"/><path d="m47.94-100.41.2 3.61.49 2.98.44 2.75.36 2.45.37 2.1.49 1.82.64 1.65.68 1.67.61 1.82.49 1.96.52 1.89.71 1.52.86 1.18.55 1.38-.31 2.35-.85 3.15.53 2.2m-2.46-2.45-.62-.5-.82-.97-.88-1.02-.9-1.03-.85-1.16-.77-1.35-.72-1.42-.71-1.35-.76-1.14-.86-.9-.96-.76-1.05-.79-1.1-.97-1.05-1.18-.95-1.28-.84-1.24" filter="url(#a)"/><path d="m50.31-67.85-.61-1.14-.55-1.45-.44-1.78-.62-1.61-.85-1.24-.91-1.05-.82-1.12-.66-1.36-.55-1.68-.48-2.03-.43-2.37-.34-2.69-.25-2.89-.19-2.93-.19-2.77-.37-2.67-1.3-3.13" filter="url(#a)"/><path d="m50.31-67.85 1.08 1.07.82.77.77.78.76.76.74.76.77.81.83.89.86.93.84.92.76.85.7.78.68.79.73.91.82 1.07.87 1.21.83 1.21.65 1 .43.63.69.79-16.89-18.7.52.14 1.44-.05 1.56.03 1.2.48.84.88.7.99.79.85 1.02.59 1.27.38 1.44.28 1.48.32 1.36.43 1.17.53 1.03.59 1.01.64 1.14.69 1.34.77 1.54.81 1.64.72 1.47.52.96.31 1.27.5M36.76-77l1.12.88 1.15.89 1.08.87.95.83.84.8.82.82.86.87.9.93.94.96.94.96.91.95.87.96.81.97.72.94.55.88.34.98" filter="url(#a)"/><path d="m50.26-49.64-.99-1.7-.86-1.49-.35-1.41-.2-1.24-.25-1.1-.33-1.09-.35-1.17-.35-1.29-.37-1.36-.43-1.38-.49-1.38-.55-1.4-.57-1.44-.55-1.48-.57-1.42-.64-1.25-.74-1.01-.88-.8-1.04-.68-1.14-.7-1.13-.86-.96-1.12-.88-.99-21.61-2.24 2.51-.1 1.98.09 1.47-.18 1.24-.29 1.18-.21 1.15-.02 1.09.16 1.01.26.96.28.99.27 1.06.31 1.08.36 1.11.29 1.43.07 2.22.42" filter="url(#a)"/><path d="m45.55-53.22-.37-1.91-.63-.93-.69-.77-.54-1.05-.39-1.38-.27-1.63-.25-1.77-.27-1.77-.36-1.68-.46-1.48-.58-1.25-.69-1.05-.79-.95-.86-.95-.92-.97-.99-.87-1.1-.58-1.19-.23-1.03-.41-.49-1.76-.89-2.75-.23-.2-1.4-4.03-.4-3.32-.65-1.3-.91-.47-1.06-.44-1.1-.7-1.06-1.02-1.04-1.3-1.11-1.52-1.25-1.7-1.35-1.86-1.21-2.09-.83-2.43-.48-2.84-.58-2.48" filter="url(#a)"/><path d="m59.78-86.61-1.57-2.94-1.79-.7-2.5 1.19-2.85 2.17-2.71 2.06-2.25 1.18-1.74.13-1.39-.56-1.32-.6-1.5-.05-1.78.75-1.99 1.35-1.99 1.39-1.7.79-1.07.15-.07.74" filter="url(#a)"/><path d="m25.93-81.68.38-.47.95-.72 1.25-.8 1.32-.42 1.29.02 1.26.23 1.34.14 1.5-.19 1.67-.55 1.8-.76 1.83-.71 1.83-.5 1.81-.28 1.84-.22 1.93-.42 2.07-.8 2.2-1.16 2.19-1.12 1.86-.41 1.16.15-6.1-.01-2.13 1.18-2.57 1.07-2.29.75-1.92.35h-1.6l-1.45-.05-1.53.28-1.7.72-1.8.99-1.75.91-1.59.59-1.41.32-1.27.29-1.18.43-1.17.45-1.41.15-2.5-.52M-2.42-98.85l1.95 1.1 1.48.78 1.28.94 1.33 1.04 1.42.94 1.41.76 1.33.68 1.25.77 1.22.94 1.2 1.14 1.17 1.23 1.11 1.18 1.05.96 1.09.69 1.26.46 1.49.37 1.6.41 1.32.47.71 1.01m-1.06-.07-1.07-.29-1.81-.44-1.58-.31-1.26-.16-1.12-.06-1.13-.07-1.21-.11-1.25-.15-1.26-.15-1.25-.12-1.24-.08-1.26-.05-1.28-.01H3.19l-1.23.02L.8-85l-1.08.06-.98.11-.88.18-.93.22-1.59.29" filter="url(#a)"/><path d="m29.68-64.46-.7-.86-.38-1.47-.31-1.98-.32-2.04-.41-1.88-.49-1.72-.53-1.6-.55-1.41-.65-1.09-.82-.72-1-.47-1.04-.51-.81-.87-.39-1.21-.08-.76-3.64-1.1-1.49-.88-.58-1.62-.64-1.3-1-.5-1.28.01-1.38.01-1.34-.31-1.26-.7-1.22-.99-1.27-1.12-1.33-1.16-1.35-1.16-1.32-1.18-1.27-1.24-1.23-1.33-1.11-1.42-.8-1.47-.5-2.21" filter="url(#a)"/><path d="m14.92-84.68.02.09-.62-.08-1.01-.18-1.25-.22-1.32-.22-1.29-.2-1.23-.17-1.21-.14-1.25-.13-1.29-.09-1.3-.08-1.23-.04-1.16-.02-1.09.01-.98.03-.68.07-.39.05 15.93 1.15-1.51-.48-1.53-1.15-1.24-1.4-1.1-1.22-1.17-.92-1.28-.64-1.35-.46-1.34-.41-1.29-.58-1.24-.97-1.2-1.5-1.19-2.05-1.25-2.42-1.35-2.51-1.5-2.27-1.63-1.76-1.72-.98-1.79-.12-1.9.12-1.91-1.41" filter="url(#a)"/><path d="m-11.66-84.34 1.34-.23 1.48-.28 1.41-.25 1.33-.19 1.26-.15 1.16-.13 1.08-.12 1.02-.1 1.03-.08 1.06-.04h1.12l1.2.03 1.28.05 1.32.06 1.26.05 1.13.07 1.08.1 1.37.16 2.04.37" filter="url(#a)"/><path d="m-7.68-81.17.85-.22 1.17-.39 1.18-.48 1.09-.38.99-.3.96-.27.97-.29 1.03-.33 1.1-.39 1.19-.39 1.28-.32 1.31-.16h1.24l1.11.07h1.07l1.39-.11 2.06.11m33.03-19.06-1.12.91-2.25 1.21-2.17 1.13-2 .99-1.91.99-1.83 1.06-1.74 1.08-1.68 1.03-1.65 1-1.66.99-1.66.92-1.65.75-1.64.5-1.62.3-1.6.27-1.54.43-1.45.71-1.38.95-1.41.98-1.59.81-1.95.78-2.22.72" filter="url(#a)"/><path d="m37.19-107.45-1.46 1.48-1.57 2.05-1.84 2.17-1.89 1.63-1.79.96-1.63.37-1.54-.02-1.58-.14-1.67.06-1.76.49-1.72.89-1.58 1.02-1.44.81-1.43.63-1.63.98-1.86 1.71-1.66 2.16-.63 4.39" filter="url(#a)"/><path d="m2.82-86.17 2.14-.18 1.65-1.41 1.44-2.63 1.42-2.73 1.52-1.98 1.6-1.23 1.61-.93 1.56-1.02 1.51-1.21 1.57-1.3 1.84-1.33 2.26-1.54 2.59-2.21 2.53-3.21 2.11-3.43M2.82-86.17l-.89-.07-.86-.2-1.02-.32-1.06-.34-1.06-.4-1.12-.58-1.24-.78-1.34-.85-1.41-.74-1.42-.45-1.4-.12-1.33.14-1.27.22-1.2.09-1.16-.2-1.17-.53-1.22-.81-1.36-.96-1.6-.91-1.89-.7-2.2-.51-2.36-.66-1.86-.93" filter="url(#a)"/><path d="m35.23-92.62-.62.89-1.86.98-1.63.51-1.28.02-1.17-.16-1.24-.05-1.36.16-1.46.32-1.51.36-1.55.29-1.55.21-1.51.16-1.45.18-1.37.24-1.33.3-1.34.33-1.37.35-1.38.41-1.32.43-1.21.38-1.22.2-1.52.01-2.16-.07-1.39-.08 1.63.08 1.72.12 1.46.14 1.23.14 1.16.15 1.2.18 1.26.21 1.26.21 1.18.21 1.12.2 1.14.23 1.26.27 1.42.32 1.45.36 1.21.3.73.2.18.16 13.63-24.18-1.36 2.47-1.66 1.67-1.85 1.29-1.74.51-1.54-.07h-1.56l-1.73.56-1.94 1.22-1.99 1.62-1.89 1.61-1.7 1.26-1.54.75-1.44.29-1.42.1-1.43.26-1.4.75-1.4 1.3-1.46 1.65-1.64 1.59-1.85 1.11-1.7.76.64.21.22-3.4 1.21-.19 1.55-.27 1.49-.39 1.38-.33 1.38-.46 1.5-.88 1.63-1.48 1.74-1.98 1.76-2.15 1.73-1.89 1.69-1.28 1.64-.51 1.58.19 1.53.59 1.53.56 1.62.08 1.78-.69 1.94-1.45 1.99-1.87 1.91-1.84 1.89-1.48 2.26-.74 3.64.35" filter="url(#a)"/></g><g fill="none" stroke="#000"><circle cx="11.054" cy="11.42" r="1.818" filter="url(#a)"/><circle cx="11.298" cy="14.236" r="2.156" filter="url(#a)"/><circle cx="14.234" cy="11.468" r="2.644" filter="url(#a)"/><circle cx="14.334" cy="13.648" r="1.746" filter="url(#a)"/><circle cx="14.234" cy="10.58" r="2.638" filter="url(#a)"/><circle cx="13.814" cy="12.552" r="1.306" filter="url(#a)"/><circle cx="11.978" cy="12.936" r="2.634" filter="url(#a)"/><circle cx="11.134" cy="10.984" r="1.904" filter="url(#a)"/><circle cx="14.402" cy="11.368" r="1.404" filter="url(#a)"/><circle cx="12.626" cy="11.108" r="1.342" filter="url(#a)"/><circle cx="-12.478" cy="15.136" r="2.274" filter="url(#a)"/><circle cx="-12.534" cy="13.648" r="2.142" filter="url(#a)"/><circle cx="-11.774" cy="16.792" r="2.332" filter="url(#a)"/><circle cx="-14.466" cy="17.016" r="2.512" filter="url(#a)"/><circle cx="-14.662" cy="16.56" r="2.52" filter="url(#a)"/><circle cx="-14.302" cy="17.02" r="1.734" filter="url(#a)"/><circle cx="-14.022" cy="14.788" r="1.086" filter="url(#a)"/><circle cx="-13.722" cy="15.828" r="1.122" filter="url(#a)"/><circle cx="-12.59" cy="14.652" r="1.642" filter="url(#a)"/><circle cx="-14.822" cy="16.788" r="2.202" filter="url(#a)"/></g><path fill="#D77F8C" stroke="#000" stroke-linejoin="round" stroke-width="3" d="m28.42 54.61-.1.86.27-.26-.23.02-.13.72-.27 1.13.27-.53-.58 1.12.09-.12-.23.43-.6.69-1.5 1.2.69-.63.01.28-1.74 1.29-.78.51.09.02.13-.23-1.51.97-1.98.92.76-.2-.58.12-1.46.77-1.02.32.21-.08-2.28.79 1.58-.46-2.74.85.07.02-1.21.27-1.96.58.93-.22-4.18.88 2.16-.4-.92.15-2.8.53-.99.19-2.99.41.11.01-1.42.13-.85.13 1.76-.2-2.97.31-1.18.1.23-.03-4.09.23 1.3-.05-3.46.12-2.17.01 1.99-.01-4.81-.03 1.07.03h.5l-2.15-.04-2.6-.13-1.56-.11-1.52-.1-1.84-.18-.11-.01-2.21-.27-.21-.05-1.2-.17-1.78-.23-.1-.07-.66-.07-1.3-.27-2.45-.51-.55-.09-.17-.09-2.32-.59-1.38-.37.23.08-.02-.01-1.53-.48-.91-.31-1.82-.73-.74-.34.7.31-2.07-.89-.35-.14.68.33-2.89-1.54-.94-.51 1.51.96-2.29-1.63-.53-.28.75.62-.85-.91-.46-.16-1.02-1.21-.12.11.03.12-.45-.83.13.11-.75-.84-.09-.3-.15-.57-.41-1.43-.24-.16.05-.72.08-.58.13.12-.14-.58.19.12.08-1.14.49-.29.28-.7-.23.25.52-.83-.2.38 1.25-1.21-.54.37 1.44-1.44-.56.75 1.51-1.41-.15.23.75-.63.86-.37.77-.6 1.2-.58-.91.55 1.26-.58-.01-.01 2.15-.97-1.31.5 2.48-.92-.07-.02.32-.1 3.65-1.08-.29.15 2.18-.57 1.53-.37-1.44.35 2.37-.51-.26.06.29-.08 1.52-.26 2.31-.41 3.17-.38-2.95.37 5.15-.61-1.28.14 1.98-.18 1.55-.11-.96.08 2.45-.18 1.18-.04.29-.02.66-.03 1.92-.03h3.57l2.95.1-.28-.01 2.77.16-.72-.05 1.28.08.37.04 2.71.25-.96-.11 1.81.16 1.05.14 4.16.6-1.16-.17 3.16.57-2.38-.44 5.49 1.05-2.85-.58 2.06.44 2.83.67 1.58.45.43.2.01.01-.73-.26 3.08.97-.15.01 2.39.97.88.35-.19-.1.85.36 1.02.48.89.49-.26-.1 1.32.87.25.15.85.52-.35-.11.69.41.66.67.57.42.43.42-.06.29.95.98-.1.02.25.71.09-.12.01.02.27.58.32 1.28-.15.3" filter="url(#a)"/></svg>