<svg xmlns="http://www.w3.org/2000/svg" width="500" height="500" viewBox="-100 -100 200 200"><defs><clipPath id="c"><path d="m29.99-2.46-.28-.01-.31-.01-.34-.01-.37-.01-.39-.01-.42-.01-.45-.01-.47-.01-.51-.01-.53-.01-.56-.01-.59-.01-.62-.01-.64-.01h-.67l-.6-.01-.64-.01-.7-.01-.74-.01h-.8l-.84-.01-.88-.01-.93-.01h-.97l-1-.01-1.05-.01h-1.07l-1.1-.01h-1.13l-1.16-.01H8.06l-1.19-.01H4.45l-1.23-.01H-2.9l-1.2.01h-1.2l-1.17.01h-1.16l-1.14.01-1.11.01-1.09.01-1.07.01-1.03.01-1.01.02-.98.01-.94.02-.91.02-.88.02-.85.02-.81.02-.77.03-.75.02-.7.03-.67.03-.64.03-.61.03-.57.03-.55.04-.51.03-.49.04-.46.04-.42.04-.4.04-.37.04-.35.05-.31.05-.29.04-.26.05-.23.06-.21.05-.19.05-.16.06-.14.06 2.9 1 .46.1.47.1.48.11.51.1.52.11.54.1.56.11.58.11.59.1.61.11.63.11.64.1.66.11.68.1.69.11.71.1.73.11.75.1.77.1.78.11.8.1.82.09.84.1.85.09.86.09.87.09.89.08.9.08.91.07.92.07.92.07.94.05.94.06.94.04.95.04.94.04.95.02.95.02.95.02h1.88l.94-.01.93-.02.92-.02.91-.03.9-.04.88-.05.88-.05.86-.06.85-.07.83-.08.81-.08.8-.09.78-.1.75-.1.74-.11.72-.11.69-.12.68-.12.65-.13.63-.13.6-.14.58-.14.56-.14.54-.1.53-.11.51-.11.49-.11.48-.11.47-.12.44-.11.43-.11.42-.11.39-.11.38-.11.37-.11.34-.1.33-.1.31-.1"/></clipPath><clipPath id="b"><path d="m-30.38-2.59.3-.02.33-.02.35-.01.39-.02.4-.01.44-.01.47-.02.49-.01.52-.01.55-.01.58-.01.6-.01.63-.01.66-.01.69-.01.61-.01.66-.01.72-.01.76-.01h.81l.85-.01.9-.01h.95l.98-.01 1.02-.01h1.05l1.09-.01h2.26l1.16-.01H1.8l1.21.01h1.21l1.19.01h1.17l1.15.01 1.14.01 1.11.01 1.08.01 1.06.01 1.03.01 1.01.01.97.01.93.02.91.01.87.02.84.02.8.02.76.02.74.02.7.02.66.03.63.02.6.03.57.03.53.02.51.03.48.03.45.03.42.04.39.03.37.04.33.03.31.04.29.04.25.04.23.04.21.05.18.04.16.05.13.04-2.97.81-.38.09-.4.09-.42.1-.44.09-.46.1-.48.1-.51.11-.52.1-.54.1-.56.11-.59.11-.6.11-.62.11-.65.11-.66.11-.69.11-.7.12-.74.11-.75.12-.77.12-.8.11-.82.12-.84.12-.86.11-.88.12-.9.11-.91.11-.93.11-.95.11-.96.11-.98.1-.99.1-1 .09-1 .09-1.02.08-1.02.08-1.02.08-1.03.06-1.03.06-1.03.06-1.03.04-1.02.04-1.01.03-1.01.02-1 .02h-1.96l-.96-.02-.94-.02-.92-.04-.91-.04-.88-.06-.86-.07-.83-.07-.81-.09-.78-.09-.75-.11-.73-.12-.69-.12-.66-.14-.63-.15-.6-.15-.57-.16-.53-.17-.55-.11-.54-.12-.51-.11-.5-.13-.48-.12-.45-.13-.44-.13-.42-.13-.39-.13-.38-.13-.36-.13-.33-.14-.32-.13-.3-.13-.28-.13"/></clipPath><filter id="a"><feTurbulence baseFrequency=".05" numOctaves="3" result="noise" type="noise"/><feDisplacementMap in="SourceGraphic" in2="noise" scale="2"/></filter></defs><rect width="100%" height="100%" x="-100" y="-100" fill="#F5FFFA"/><path fill="#D2691E" stroke="#000" stroke-linejoin="round" stroke-width="1.667" d="m73.8-.01.35 2.72V.95l-.45 3.34-.05 2.3.28-1.47-.35 2.83-.05-.43-.25 2.69-.02.01-.16 1.64-.16 2.9-.11.91-.66 2.4-.07.68-.54 3.13.37-1.48-.7 2.19v-.24l-.76 3.18.01.38-.75 1.29-.1 1.61-.95 2.33.16.01-.29.49-.9 2.52-.54.8-.77 1.65-.28.7-.06.35-.54.81-.64 1.23-.61 1.86.39-.32-1.82 2.66-.65 1.71-1 1.5-.7 1.08.53-.88-.71 1.33-1.51 1.8.76-.51-1.3 1.54-1.33 1.97-1.03 1.83.84-1.4L54 56.89l1.46-1.64-2.96 3.71.38-.89-1.37 2.07.75-.76-3.22 3.35.41-.69-1.98 2.14-1.97 1.7.51-.56-1.78 1.29-.01.55-1.18 1.01-.3.07-1.81 1.43-1.61.92.89-.58-3.12 2.2.71.06-1.87.82 1.14-.55-3.46 1.68.57-.04-1.44.75-.9.88-.76-.07-2.87 1.56.33-.12-1.16.42-.32-.05-2.09 1.21.01-.21-2.12.83-1.84.79.93-.19-2.08.5-1.57.4-.78.18-1.58.42-.5.25-1.87.4-.53.03-1.18.25-2.86.34-.29.14-.32-.04-1.02.29-1.2.23-1.87.23-.45-.26-.57.04-2.14.28-.4-.13-1.04-.05-.62.05-3.81-.11-1.16-.16-1.6.07.31-.19.35.09-1.3-.22-1.35-.12-3.57-.45-.03-.27-2.18-.53.81.43-.8-.33-1.99-.55-1.83-.48-1.21-.14.03-.15-2.84-.93.14.21-2.22-1.09.29-.12-2.08-.97.08.39-.84-.73-1-.24-2.48-1.03.94.27-1.35-.58-2.29-1.12-1.74-.81-.27-.55-.08-.09-1.14-.81-.09-.28-2.07-1.01-1.1-1.26-.58-.16-1.54-1.51-1.92-.88 1.01.6-2.85-2.3-.67-.79-.39-.55-.58-.36-1.17-1.46-1.08-.33-.5-.51-.33-.66-1.48-1.83-.12.07-.91-1.33-2.05-2.45.16.2-1.32-1.32-.67-1.07-.1-.17-.47-.83-1.37-1.54-.46-1.65-1.21-1.55-.5-.46-.67-1.46.1-.26-.84-.94-.69-1.39-1.07-2.1-.72-1.24.8.95-1.44-2.38-.78-2.37-.14.09-.92-2.52-.04.01-.1.02-.84-1.9-.08-.57-.46-1.67-.43-1.12-.43-1.6-.61-1.95-.01-.6-.34-.05-.73-3.6-.07-.9-.05.57.02-1.65-.8-2.25-.45-2.79.37-.21-.66-2.81-.16-1.92.2 1.26-.36-2.86.03.17-.07-.24-.2-2.79v.87l-.05-3.17.16-1.36.16-1.8-.09-.14-.09-2.63.14-2.96.26-.1-.06-1.31-.02-.13.31-2-.06-1.03.28-1.23.31-2.77.25-.35.03-.18.4-1.72.61-2.45.3-1.85-.18.86.71-2.27.14-1.56.57-2-.29 1.38.27-1.24.33-1.1 1.23-2.41-.28.24 1.03-3 .36-.48.78-2.62-.02.55.31-.86 1.59-3.8-.06.85.07-.44 1.28-2.17.03-.97 1.3-1.49 1.12-2.38-.07.21.52-1.16 1.5-1.53-.66.44 1.17-1.62 1.05-1.43-.08-.09.93-1.32 1.91-1.73 1.05-1.73-.27.8.63-1.34.91-1.07.81-.68.64-.7.97-.8.67-.88.4-.73 2.67-2.3.7-.51.19-.81.99-.02 1.17-1.21.57-.84.58-.49 1.51-.65 1.48-1.36-.25.47 2.66-2.09-.46.76 1.36-1.19 1.02-1.05 2.29-1.09 1.07-.29.63-.3.19-.34 1.43-.6 1.64-.48.3-.43.93-.14 2.35-1.43 1.62-.53-1.62.57.8-.46 2.37-.5.54-.38.47-.23 2.32-.18 1.06-.46 2.21-.71.59-.07-.58.09 2.43-.55 1.64.09.54-.13.56-.23 2.5-.11.24-.15 2.7-.13 1.06-.1-.61.17 2.6-.1 1.83-.15-.97.13.74-.11 2.62.1.71-.04 1.86.27-.15.08 2.27.06 1.93.26-.48-.14 1.77.25 1.32.25.81.04 2.35.69.76.39 1.03.3-.04-.1 3.06.73-.57.18.24.05 3.95 1.23.41.3-.18-.22-.23.22 1.05.26 2.79 1.14.67.58 2.03.78-.23-.07 2.92 1.47-.17.1-.37-.34 2.1.92.16.27 2.07 1.22.8.94 1.53.57.75.75 1.35 1.06.32.76 2.18 1.43-.69-.59.9.89.64.32 3.04 2.7.27.24-.8-.64L50.25-61l.02.01 1.07.91 1.86 1.75-.02.06 1.6 2.43.45.21.32.28.44.49.56 1.14 1.42 2-.02-.44 1.04 1.22.65 1.52.15.79 1.31 2.16.98.7.77 1.83.01-.19 1.21 2.12.12-.08.5 1.28.68 1.5.41.97.31.55 1.69 3.6-.44-1.14.09 1.26.89 1.85.18.2.3 1.53 1.16 2.42.29.99-.23.51.39 1.01.86 3.57.12.69.28-.35-.04.46.66 3.34.2 1.54.05.24.27 1.07.23 3.07.59 2.84-.25-1.38.03 1.14.2 3.64.17-.44-.12.88.03-.35.15 2.63-.03 1.33-.01 1.63.35 2.72" filter="url(#a)"/><path fill="#fff" d="m-30.38-2.59.3-.02.33-.02.35-.01.39-.02.4-.01.44-.01.47-.02.49-.01.52-.01.55-.01.58-.01.6-.01.63-.01.66-.01.69-.01.61-.01.66-.01.72-.01.76-.01h.81l.85-.01.9-.01h.95l.98-.01 1.02-.01h1.05l1.09-.01h2.26l1.16-.01H1.8l1.21.01h1.21l1.19.01h1.17l1.15.01 1.14.01 1.11.01 1.08.01 1.06.01 1.03.01 1.01.01.97.01.93.02.91.01.87.02.84.02.8.02.76.02.74.02.7.02.66.03.63.02.6.03.57.03.53.02.51.03.48.03.45.03.42.04.39.03.37.04.33.03.31.04.29.04.25.04.23.04.21.05.18.04.16.05.13.04-2.97.81-.38.09-.4.09-.42.1-.44.09-.46.1-.48.1-.51.11-.52.1-.54.1-.56.11-.59.11-.6.11-.62.11-.65.11-.66.11-.69.11-.7.12-.74.11-.75.12-.77.12-.8.11-.82.12-.84.12-.86.11-.88.12-.9.11-.91.11-.93.11-.95.11-.96.11-.98.1-.99.1-1 .09-1 .09-1.02.08-1.02.08-1.02.08-1.03.06-1.03.06-1.03.06-1.03.04-1.02.04-1.01.03-1.01.02-1 .02h-1.96l-.96-.02-.94-.02-.92-.04-.91-.04-.88-.06-.86-.07-.83-.07-.81-.09-.78-.09-.75-.11-.73-.12-.69-.12-.66-.14-.63-.15-.6-.15-.57-.16-.53-.17-.55-.11-.54-.12-.51-.11-.5-.13-.48-.12-.45-.13-.44-.13-.42-.13-.39-.13-.38-.13-.36-.13-.33-.14-.32-.13-.3-.13-.28-.13" filter="url(#a)" transform="translate(43.81 -25.11)"/><path fill="#fff" d="m29.99-2.46-.28-.01-.31-.01-.34-.01-.37-.01-.39-.01-.42-.01-.45-.01-.47-.01-.51-.01-.53-.01-.56-.01-.59-.01-.62-.01-.64-.01h-.67l-.6-.01-.64-.01-.7-.01-.74-.01h-.8l-.84-.01-.88-.01-.93-.01h-.97l-1-.01-1.05-.01h-1.07l-1.1-.01h-1.13l-1.16-.01H8.06l-1.19-.01H4.45l-1.23-.01H-2.9l-1.2.01h-1.2l-1.17.01h-1.16l-1.14.01-1.11.01-1.09.01-1.07.01-1.03.01-1.01.02-.98.01-.94.02-.91.02-.88.02-.85.02-.81.02-.77.03-.75.02-.7.03-.67.03-.64.03-.61.03-.57.03-.55.04-.51.03-.49.04-.46.04-.42.04-.4.04-.37.04-.35.05-.31.05-.29.04-.26.05-.23.06-.21.05-.19.05-.16.06-.14.06 2.9 1 .46.1.47.1.48.11.51.1.52.11.54.1.56.11.58.11.59.1.61.11.63.11.64.1.66.11.68.1.69.11.71.1.73.11.75.1.77.1.78.11.8.1.82.09.84.1.85.09.86.09.87.09.89.08.9.08.91.07.92.07.92.07.94.05.94.06.94.04.95.04.94.04.95.02.95.02.95.02h1.88l.94-.01.93-.02.92-.02.91-.03.9-.04.88-.05.88-.05.86-.06.85-.07.83-.08.81-.08.8-.09.78-.1.75-.1.74-.11.72-.11.69-.12.68-.12.65-.13.63-.13.6-.14.58-.14.56-.14.54-.1.53-.11.51-.11.49-.11.48-.11.47-.12.44-.11.43-.11.42-.11.39-.11.38-.11.37-.11.34-.1.33-.1.31-.1" filter="url(#a)" transform="translate(-29.88 -24.54)"/><g fill="none" stroke="#000" transform="translate(43.81 -25.11)"><path stroke-linejoin="round" stroke-width="1.667" d="m-32.2-2.38.11-.02.11-.03.13-.02.15-.02.17-.03.18-.02.21-.02.23-.02.25-.02.28-.01.3-.02.33-.02.35-.01.39-.02.4-.01.44-.01.47-.02.49-.01.52-.01.55-.01.58-.01.6-.01.63-.01.66-.01.69-.01.61-.01.66-.01.72-.01.76-.01h.81l.85-.01.9-.01h.95l.98-.01 1.02-.01h1.05l1.09-.01h2.26l1.16-.01H1.8l1.21.01h1.21l1.19.01h1.17l1.15.01 1.14.01 1.11.01 1.08.01 1.06.01 1.03.01 1.01.01.97.01.93.02.91.01.87.02.84.02.8.02.76.02.74.02.7.02.66.03.63.02.6.03.57.03.53.02.51.03.48.03.45.03.42.04.39.03.37.04.33.03.31.04.29.04.25.04.23.04.21.05.18.04.16.05.13.04.12.05.09.05.06.05.05.06.03.05.01.05-.01.06-.03.05-.05.06-.06.06" filter="url(#a)"/><path stroke-linejoin="round" stroke-width="2.222" d="m-32.16-1.42.11.06.12.07.13.09.16.09.16.1.19.1.2.11.23.12.24.12.25.12.28.13.3.13.32.13.33.14.36.13.38.13.39.13.42.13.44.13.45.13.48.12.5.13.51.11.54.12.55.11.53.17.57.16.6.15.63.15.66.14.69.12.73.12.75.11.78.09.81.09.83.07.86.07.88.06.91.04.92.04.94.02.96.02h1.96l1-.02 1.01-.02 1.01-.03 1.02-.04 1.03-.04 1.03-.06 1.03-.06 1.03-.06 1.02-.08 1.02-.08 1.02-.08 1-.09 1-.09.99-.1.98-.1.96-.11.95-.11.93-.11.91-.11.9-.11.88-.12.86-.11.84-.12.82-.12.8-.11.77-.12.75-.12.74-.11.7-.12.69-.11.66-.11.65-.11.62-.11.6-.11.59-.11.56-.11.54-.1.52-.1.51-.11.48-.1.46-.1.44-.09.42-.1.4-.09.38-.09.36-.09.34-.09.32-.09.31-.08.28-.08.27-.09.25-.07.23-.08.21-.08.2-.07" filter="url(#a)"/><circle cx="14.078" cy="-.833" r="4.874" clip-path="url(#b)" filter="url(#a)"/><circle cx="11.033" cy="-2.803" r="4.094" clip-path="url(#b)" filter="url(#a)"/><circle cx="11.323" cy="-.023" r="4.92" clip-path="url(#b)" filter="url(#a)"/><circle cx="11.333" cy="-3.703" r="3.23" clip-path="url(#b)" filter="url(#a)"/><circle cx="10.858" cy=".752" r="4.866" clip-path="url(#b)" filter="url(#a)"/><circle cx="11.698" cy="-2.133" r="4.486" clip-path="url(#b)" filter="url(#a)"/><circle cx="13.953" cy="-2.683" r="3.118" clip-path="url(#b)" filter="url(#a)"/><circle cx="12.693" cy="-1.333" r="3.972" clip-path="url(#b)" filter="url(#a)"/><circle cx="10.273" cy="-1.248" r="3.158" clip-path="url(#b)" filter="url(#a)"/><circle cx="13.398" cy="-.943" r="3.472" clip-path="url(#b)" filter="url(#a)"/></g><g fill="none" stroke="#000" transform="translate(-29.88 -24.54)"><path stroke-linejoin="round" stroke-width="2.222" d="m31.66-2.32-.09-.02-.1-.01-.12-.02-.13-.01-.15-.02-.17-.01-.19-.01-.22-.02-.23-.01-.27-.01-.28-.01-.31-.01-.34-.01-.37-.01-.39-.01-.42-.01-.45-.01-.47-.01-.51-.01-.53-.01-.56-.01-.59-.01-.62-.01-.64-.01h-.67l-.6-.01-.64-.01-.7-.01-.74-.01h-.8l-.84-.01-.88-.01-.93-.01h-.97l-1-.01-1.05-.01h-1.07l-1.1-.01h-1.13l-1.16-.01H8.06l-1.19-.01H4.45l-1.23-.01H-2.9l-1.2.01h-1.2l-1.17.01h-1.16l-1.14.01-1.11.01-1.09.01-1.07.01-1.03.01-1.01.02-.98.01-.94.02-.91.02-.88.02-.85.02-.81.02-.77.03-.75.02-.7.03-.67.03-.64.03-.61.03-.57.03-.55.04-.51.03-.49.04-.46.04-.42.04-.4.04-.37.04-.35.05-.31.05-.29.04-.26.05-.23.06-.21.05-.19.05-.16.06-.14.06-.11.06-.09.06-.07.06-.05.06-.03.07v.07l.01.06.03.07.05.07.07.08" filter="url(#a)"/><path stroke-linejoin="round" stroke-width="2.222" d="m31.19-1.59-.12.05-.15.06-.16.06-.18.07-.21.07-.21.08-.24.09-.26.09-.27.09-.29.1-.31.1-.33.1-.34.1-.37.11-.38.11-.39.11-.42.11-.43.11-.44.11-.47.12-.48.11-.49.11-.51.11-.53.11-.54.1-.56.14-.58.14-.6.14-.63.13-.65.13-.68.12-.69.12-.72.11-.74.11-.75.1-.78.1-.8.09-.81.08-.83.08-.85.07-.86.06-.88.05-.88.05-.9.04-.91.03-.92.02-.93.02-.94.01H2.9l-.95-.02L1 2.69l-.95-.02-.94-.04-.95-.04-.94-.04-.94-.06-.94-.05-.92-.07-.92-.07-.91-.07-.9-.08-.89-.08-.87-.09-.86-.09-.85-.09-.84-.1-.82-.09-.8-.1-.78-.11-.77-.1-.75-.1-.73-.11-.71-.1-.69-.11-.68-.1-.66-.11-.64-.1-.63-.11-.61-.11-.59-.1-.58-.11-.56-.11-.54-.1-.52-.11-.51-.1-.48-.11-.47-.1-.46-.1-.43-.1-.42-.1-.4-.1-.38-.1-.36-.09-.35-.09-.33-.1-.31-.09-.3-.09-.28-.08" filter="url(#a)"/><circle cx="-9.286" cy="-1.061" r="3.006" clip-path="url(#c)" filter="url(#a)"/><circle cx="-11.751" cy=".579" r="4.574" clip-path="url(#c)" filter="url(#a)"/><circle cx="-7.316" cy="-2.631" r="3.316" clip-path="url(#c)" filter="url(#a)"/><circle cx="-9.441" cy="-1.486" r="4.074" clip-path="url(#c)" filter="url(#a)"/><circle cx="-10.051" cy="-1.691" r="3.284" clip-path="url(#c)" filter="url(#a)"/><circle cx="-9.946" cy="-1.691" r="3.51" clip-path="url(#c)" filter="url(#a)"/><circle cx="-9.506" cy=".809" r="3.748" clip-path="url(#c)" filter="url(#a)"/><circle cx="-11.496" cy="-1.731" r="3.238" clip-path="url(#c)" filter="url(#a)"/><circle cx="-9.241" cy="-2.446" r="4.328" clip-path="url(#c)" filter="url(#a)"/><circle cx="-8.426" cy="-.056" r="3.644" clip-path="url(#c)" filter="url(#a)"/></g><g fill="none" stroke="#800020" stroke-linejoin="round" stroke-width="2"><path d="m42.03-68.89.65.77.63.57.41.41.32.41.22.41.02.38-.24.27-.55.14h-.86l-1.16-.13-1.5-.28-1.86-.45-2.27-.64-2.69-.86L30.01-69l-3.58-1.34-4.02-1.57-4.5-1.78-4.97-2-5.49-2.25-6.16-2.51m-28.47 2.81 1.23-.46 1.16-.53.72-.32.45-.14.34-.03.32.06.27.15.17.26.02.39-.2.53-.46.68-.75.86-1.06 1.04-1.35 1.25-1.67 1.46-2.01 1.69-2.38 1.93-2.76 2.19-3.15 2.45-3.55 2.69-3.96 2.92-4.39 3.13-4.79 3.29M50.25-61l.08.31-.13.68-.72.77-1.5.71-2.34.56-3.2.4-4.07.26-4.93.18-5.8.15-6.7.14-7.64.12-8.6.07-9.56-.01-10.53-.12-11.54-.27-12.6-.42m15.63-21.74.86-.24.75-.14 1.29-.25 1.78-.35 2.07-.39 2.25-.4 2.31-.4 2.28-.39 2.11-.38 1.87-.33 1.59-.28 1.38-.22 1.29-.17 1.18-.12m7.07.24 1.92.11 1.41.12 1.19.15 1.17.18 1.2.23 1.16.25 1.04.25.85.23.61.18.36.13.11.08-.16.04-.43-.01-.76-.06-1.17-.15-1.63-.25-2.09-.36-2.53-.43-3.08-.5" filter="url(#a)"/><path d="m-23.1-79.63 1.93-.31 1.91.01 2.38.24 2.9.44 3.32.6 3.62.78 3.88.96 4.14 1.13 4.43 1.28 4.69 1.43 4.93 1.55 5.14 1.65 5.32 1.76 5.47 1.88 5.56 1.96 5.53 1.96 5.43 1.86M-2.45-83.38l.51.12 1.53.1 1.71.15 1.8.22 1.94.27 2.1.3 2.16.32 2.13.32 2.04.32 1.96.32 1.84.32 1.58.29 1.06.18.34.01M-6.45-83l1.05-.03 1.73.19 1.92.39 2.11.56 2.31.7 2.51.83 2.69.95 2.89 1.06 3.09 1.17 3.26 1.27 3.38 1.35 3.45 1.42 3.47 1.45 3.44 1.45 3.34 1.41 3.21 1.35 3.06 1.29 2.91 1.24 2.67 1.03" filter="url(#a)"/><path d="m35.37-73.7.5.48.56.62.18.52-.35.36-.95.2-1.61.02-2.32-.18-3.06-.43-3.83-.67-4.61-.89-5.37-1.08-6.16-1.3-7.01-1.57-8.06-1.87" filter="url(#a)"/><path d="m58.99-50.94.47 1.22.39 1.01.3.8.09.51-.21.17-.55-.18-.93-.53-1.32-.87-1.71-1.22-2.12-1.56-2.51-1.92-2.88-2.32-3.29-2.75-3.78-3.26-4.42-3.82-5.07-4.39-5.42-4.92m43.99 48.4L6.66-55.49-4.81-66.83l3.11-2.88h6.89l6.39.65 2.7.64-2.18.43-5.38.09-5.21-.16-2.15-.13 1.53.21 3.41.6 2.44.84-.49.88-3.28.87-4.07.86-2.66.57-.46-.42.7-2.11-.24-3.61-3.65-3.45-9.69-.95-15.99 3.34-17.87 10.15" filter="url(#a)"/><path d="m-42.05-69 28.47 5.7 21.19 6.53-2.32.88-11.61-3.18-8.98-5.07-2.77-5.25 2.23-4.24 5.07-2.51 6.29-.51 6.28 1.33 4.75 2.46 1.4 2.6L5-68.37l-5.88.93-4.55.31 1.75.09 9.92.07 15.57 1.35 19.76 7.71 25.77 22.58" filter="url(#a)"/><path d="M53.18-58.27 29.73-70.8l3.47 2.91 8.21 6.46 4.08 4.89-3.02 2.16-10.29-.42-14.99-2.7-14.48-4.49-8.17-5.08 1.7-3.32 11.13 1.21 15.92 7.29 10.96 10.91-13.47 5.52-74.1-12.5" filter="url(#a)"/><path d="m-23.1-79.63 12.68.85 16.44 4.21 11.06 5.02 8.81 4.85 8.6 4.11 7.03 2.54 3.46.5-1.18-1.22-6.31-2.14-11.82-2.35-16.73-2.15-18.7-1.8-15.45-1.65-7.27-2.1 2.24-3.73 6.34-4.52" filter="url(#a)"/><path d="m57.97-51.72-39.7-17.82-16.26-2.57 3.47 2.71 8.67 2.2 4.41-.14-.81-1.36-2.77-.93-1.98-.12-.62-.2.06-.94-.07-.82-1.65 1.56-4.59 6.37L8-50.72l60.32 18.5" filter="url(#a)"/><path d="M62.85-43.94 14.86-58.35l-3.69-8.44-.72-5.57.48-2.51 4.25.74 6.66 3.14 5.64 3.61 2.34 2.14-.94.01-3.24-1.2-5.38-1.05-7.08-.31-3.66-.05 8.27-2.06 2.84-10.17" filter="url(#a)"/><path d="m-51.6-59.71 55.22-6.15 21.07 3.32 3.59 3.83-7.42.2-9.99-2.52-6.4-3.34-1.14-2.95L5.7-69.5 8.49-71l.37-1.13-3.34-.94-6.33-.69-6.78-.13-3.87.72 1.8 1.64 8.06 2.33 11.57 2.4 8.75 1.3-1.92-.99-16.84-3-25.25-2.01-10.46-1.56" filter="url(#a)"/><path d="m-42.05-69 59.64 7.01 15.55 5-3.98 2.73h-8.49l-6.42-1.87-1.7-1.96 3.84-.71 8.04.54 8.85.63 6.04-.57 1.48-2.2-2.06-3.1-2.79-2.62-.61-.87 3.22 1.77 6.93 4.86 7.69 5.81L50.25-61" filter="url(#a)"/><path d="M57.97-51.72.74-64.96l-12.41-1.82 8.6.72 9.68-.32 2.09-1.76-5.36-1.96-8.65-1.03-7.24.16-2.32 1.04 3.91 1.47 8.56 1.36 9.07.62 5.19-.15-.07 1.1-8.14 4.62-52.57-1.91" filter="url(#a)"/><path d="m-30.74-75.79 46.18 13.23-2.73-4.09-7.01-2.12 1.91 2.38 7.09 4.38 4.19 3.29-3.3.69-9.87-1.68-12.08-2.99-9.85-3.31-5.42-3-1.32-2.19 1.41-.89 3.46.85 6.06 2.68 9.23 3.95L7.95-60.7l8.32 1.99 4.81-1.16 11.11-1.84 23.36 6.36" filter="url(#a)"/><path d="m-30.55-76.13 25.61 1.54 2.91 1.99 9.74 4.29 12.58 4.75 7.03 2.83-1.78.13-8.43-1.85-10.34-2.56-7.79-2.19-2.71-1.14 2.76.06 6.91.94 8.79 1.11 8.22.5 5.82-.61 2.93-1.56.92-1.64.63-.5 1.83 1.63 3.4 3.65 4.11 4.17 3.45 2.42 2.08-.59-5.77-9.37" filter="url(#a)"/><path d="m-58.54-51.12 50.4-16.82 7.98-8.02-.92-2.87.7-.3 3.93 1.18 5.91 2.34 5.93 3.1 4.15 3.11 1.32 2.3-1.4 1.11-2.92.05-2.75-.5-1.18-.62.68-.59 1.47-.76.48-1.15-1.48-1.42-2.39-1.14-.65-.21 2.59.7 3.08.61-4.24-.84-34.43-7.88" filter="url(#a)"/><path d="M70.25-27.08 15.38-60.42-.26-71.39l2.54-3.08 6.65.14 5.34 1.37 2.99 1.42 1.11.9.02.32-.21.16.28.57 1.03 1.36 1.3 2 .3 2-2.13 1.06-5.18-.59-7.34-2.34-7.33-3.46-5.17-3.35-2.19-1.93.01.52 1.49 3.33 4.53 5.11 6.84 1.94-27.72-15.69" filter="url(#a)"/><path d="m-19.72-80.74 5.59 12.52L15.43-60l20.94 5.32 7.77.74-.37-2.11-3.32-2.12-4.3-.71-5.92.3-8.34.08-10.51-1.16-12.07-2.53-13.36-3.06-12.87-2.65-7.75-2.09-9.7 3.53" filter="url(#a)"/><path d="M30.89-75.85 3.88-78.46l-.49 4.1 11.21 7.99 11.75 6.02 5.38 1.38-1.89-2.2-5.82-3.31-5.19-2.34-1.38-.32 2.86 1.88 4.94 3.62L29-57.2l-.12 4.06-4.82 2.42-8.23-.15-8.86-3.01-6.24-5.18-1.06-5.63 4.34-3.82 5.62-.57-1.94 1.24-15.33-2.52-2.41-12.17" filter="url(#a)"/><path d="M62.85-43.94 28.47-62.21l-8.43-.71 7.1 2.95 6.75 1.94-1.6-.27-10.44-2.24-14.16-3.01-10.6-2.4-2.03-1.07 6.04-.23 8.52-.92 4.96-2.85.36-3.89-2.88-2.42-23.75-5.29" filter="url(#a)"/><path d="M-13.54-82.16 6.69-80.6l.72.86-2.55 2.79-2.55 4.03-3.65 3.43-3.43 1.87.16.7 5.77.57 10.06 1.28L21.53-63l5.85 1.99-1.96.56-9.59-1.8-12.2-3.81-8.2-3.62-8.86 1.77-45.11 16.79" filter="url(#a)"/><path d="m-30.74-75.79-2.87 5.45 2.46 2.67 4.96 2.94 10.46 2.08 12.94 1.82L8.6-58.34l8.81 3 7.54 2.49 7.17 1.02 5.52-.77 1.47-2.3-3.57-3.7-6.63-5.47-7.18-7.13L-.46-83.31" filter="url(#a)"/><path d="m-27.48-77.21 12.37-3.21 5.66.06 7.2 2.12 9.98 3.26 8.97 3.32 4.12 2.38-2.25.95-7.52-.24-9.68-.86-7.87-1.01-2.57-.98 4.26-.84 9.8-.46 11.44.14 8.14.51.7-.09-8.66-1.36-19.01-.25-41.97 7.31" filter="url(#a)"/><path d="m-56.64-53.96 5.55-5.22 8.35-4.52 12.01-1.75 12.8-.49 9.11-.75 4.93-.92 3.8.08 4.7 1.96 3.72 3.27-.57 2.7-4.3.2-1.63-2.95 6.43-5.66 8.2-7.65 4.17-4.41" filter="url(#a)"/><path d="m-2.45-83.38 21.61 7.62 5.06 5.84-3.36 2.94-5.91.23-3.08-.53.99.25 3.19 1.59 3.27 2.81L22-59.21l2.28 3.1 1.31 1.63-1.62-.82-6.06-3.66-8.68-5.89-6-6.34 1.03-4 9.22 1.56 35.21 10.49" filter="url(#a)"/><path d="m16.15-81.62-9.6 1.86-10.2 4.81-5.81 2.6 2.85.64 8.66.46 9.63 1.26 7.64 2.06 5.25 2.32 3.55 1.83 2.12.65.09-.82-2.84-2.06-6.1-2.67-8.64-2.56-9.66-1.99-9.01-1.3-7.3-.68-5.37-.23h-3.59l-1.28-.24.75-1.04-9.73 1.52" filter="url(#a)"/><path d="M30.89-75.85 2.38-77.07l-8.91.01-3.24.1 1.02.77 4.05 2.25 6.22 3.52 7.44 3.9 6.72 3.4 3.52 2.41-1.13 1.37-4.98.51-5.98-.11-3.8-.61-.15-1.26 2.42-2.25 2.37-3.48.37-4.44-1.57-4.5-2.25-3.39-2.89-1.55-6.09.32-13.04 2.2-19.13 5.27M1.37-83.46l-1.77.06-1.39-.13-1.17-.27-1.18-.3-1.26-.29-1.3-.27-1.31-.33-1.29-.42-1.28-.56-1.28-.65-1.27-.69-1.27-.62-1.26-.44-1.29-.18-1.33.05-1.37.13-1.41.01-1.42-.23-1.36-.43-1.2-.5-.86-.46-.5-.39-.93-.21" filter="url(#a)"/><path d="m-2.45-83.38.36-.13 1.1-.62 1.04-.67.94-.55.98-.42 1.08-.27 1.17-.16 1.22-.09 1.23-.09 1.22-.08 1.2-.04 1.17.03 1.15.08h1.18l1.31-.2 1.47-.45 1.59-.55 1.34-.29-21.81 4.6.68-1.35.84-.31 1.02-.94 1.03-1.67 1.03-1.87 1.08-1.55 1.17-1 1.25-.46 1.28-.06 1.3.16 1.3.18 1.34-.03 1.41-.5 1.5-1.07 1.59-1.49 1.64-1.59 1.64-1.29 1.56-.79 1.49-.43 1.48-.51 1.55-1.03 1.62-1.77 1.4-2.19.5-.71-30.7 22.27-1.91.24-1.36.4-1.18.57-1.06.7-1.02.75-1 .65-1 .48-1 .33-1.01.32-1.03.46-1.02.73-.98.99-.92 1.16-.85 1.15-.77.98-.67.75-.53.57-.48.47-.78.54-1.44 1.34 17.31-13.45-.66 1.97-1.15-.08-1.07.08-.96.73-.89 1.16-.86 1.21-.87 1.01-.92.78-.99.61-1.04.57-1.05.61-.97.74-.85.93-.69 1.1-.52 1.16-.36 1.09-.29 1.03-.5 1.3-1.2 1.79" filter="url(#a)"/><path d="m-6.45-83-1.73.32-1.13.28-1.07.15-1.08.15-1.05.22-1.01.3-1.01.37-1.08.44-1.13.46-1.17.48-1.13.47-1.06.47-.94.47-.77.47-.59.48-.49.56-.77.79-1.6 1.27L-6.45-83l-1.7.62-1.05 1.06-.96.96-1.01.6-1.03.31-1.03.18-1.06.19-1.11.23-1.16.27-1.15.3-1.08.38-.98.5-.84.63-.73.76-.66.82-.67.84-.73.83-.81.8-.87.76-.89.7-.87.64-.77.63-.57.64-.33.74L-6.45-83l-1.72.31-1.09.56-.93.95-.87 1.33-.82 1.5-.78 1.42-.83 1.17-.93.87-1 .68-1.02.69-.94.86-.81 1.07-.69 1.16-.52 1.14-.25 1.11.04 1.1-.51.41" filter="url(#a)"/><path d="M7.87-77.21 6.52-78l-.94-1-1-.74-1.08-.5-1.06-.37-.97-.32-.9-.28-.9-.26-.95-.26-1-.23-1.05-.16-1.12-.01-1.25.13-1.38.07-1.87-.96-1.1.36-1.56.23-1.16.56-.92.52-.95.47-1.08.46-1.16.46-1.16.49-1.08.53-.97.59-.83.66-.73.67-.67.7-.69.71-.75.75-.85.77-.92.71-.95.62-.95.56-.87.57-.47.57 18.72-11.6.62-.33.98-.4 1.2-.29 1.28-.15 1.26-.06 1.17-.05 1.11-.09 1.04-.14.99-.2.96-.21.96-.18 1.03-.14 1.14-.12 1.18-.12 1.15-.16 1.12-.14 1.55.02 4.85 4.56-.91-.26-1.05-.24-1.04-.17-1.06-.15-1.1-.15-1.14-.16-1.16-.15-1.15-.12-1.13-.11-1.1-.1-1.04-.09-1-.1-.98-.09-1.01-.07-1.04-.05-1.11-.03-1.17-.02-1.24.01-1.25.04-1.2.1-1.09.12-1 .08-1.26-.18" filter="url(#a)"/><path d="m7.57-74.29-1.31-.61-.92-1.07-.98-1.12-1.03-1.06-1-.79-.94-.37-.89.04-.9.26-.94.23-1 .01-1.08-.28-1.16-.54-1.24-.67-1.27-.71-1.22-.61-1.09-.33-.99-.09-1.3-.62-21.2.66 1.39-.61 1.43.08 1.38.21 1.32.07 1.2-.09 1.06-.09.94.01.92.11.97.15 1.07.11 1.17.04 1.26-.03 1.33-.13 1.33-.26 1.16-.41.73-.28.11 1.01.58-.09-1.02.23-1.41.32-1.44.22-1.36.11-1.24.06-1.13.03-1.04-.04-.99-.11-.99-.15-1.03-.09-1.09.03-1.13.16-1.14.25-1.14.26-1.12.25-1.09.21-1.14.13-1.25.04-1.45.04-1.6.28-1.63.62-1.82.31 26.66-3.09-1.36 2.55-1.34.97-1.26.39-1.17.1-1.03.16-.8.52-.54 1.04-.34 1.54-.26 1.9-.31 2.03-.42 1.92-.51 1.69-.54 1.46-.54 1.32-.49 1.23-.47.36 9.17-18.47 1.48-.66.84-.71.78-.92.89-1.13 1-1.16 1.06-1 1.14-.74 1.22-.52 1.28-.45 1.29-.54 1.26-.68 1.2-.83 1.15-1.02 1.1-1.25.99-1.49.89-1.44 1.07-.81 2.06-.1-21.76 15.91 1.48.7 1.13-.58.92-.58.93-.37 1.01-.18h1.11l1.15.18 1.21.34 1.22.44 1.24.5 1.21.5 1.17.48 1.1.46 1.03.43.98.38.93.34.92.32.96.35 1 .39 1.05.4 1.07.37 1.09.37 1.27.51 1.58.52-26.76-6.27-1.63.17-1.15.07-1.07-.04-1-.09-.88-.02-.82.09-.87.23-.96.36-1.03.47-1.05.52-1.03.51-1 .4-.99.26-.98.13-1.02.11-1.24.32-1.77.84" filter="url(#a)"/><path d="m-57.05-93.61 2.41.07 1.84-.19 1.93.4 2.06.77 2.11.83 2.1.75 2.08.7 2.07.78 2.02.97 1.93 1.07 1.79 1 1.63.75 1.49.5 1.45.4 1.45.48 1.47.62 1.39.7 1.22.6 1 .31.84-.24.76-.95.76-.86 1.53 3.41L-36.5-65.5l1.28-1.6.73-1.01.77-.97.91-1.01.93-1.02.84-1.03.73-1.05.68-1.01.7-.93.79-.78.91-.66 1.01-.59 1.05-.6.97-.61.68-.54.22-.37.2-.35m95.64 63.56.65-.95.98-1.74 1-1.79 1.07-1.65 1.39-1.71 1.68-1.9 1.65-2.03 1.25-2 .7-1.87.32-1.78.23-1.82.45-1.95.77-2.07 1.08-2.13 1.2-2.05 1.02-1.85.39-1.74-.85-2.94" filter="url(#a)"/><path d="m-37.74-74.79.3.44 1-.23 1.28-.49 1.29-.52 1.18-.45 1.05-.39.95-.34.95-.34.97-.35 1.04-.36 1.1-.38 1.19-.4 1.19-.42.8-.31-.45.16" filter="url(#a)"/><path d="m-23.9-79.17.03-1.6-.81.44-1.2.51-1.31.19-1.28.01-1.18.07-1.07.22-1.02.36-1.04.39-1.17.35-1.31.25-1.4.2-1.39.19-1.3.25-1.2.34-1.16.39-1.23.36-1.42.32-1.79.21" filter="url(#a)"/><path d="m-14.72-104.05-1.87.03-.81 1.26-.74 2.18-.94 2.45-1.08 2.32-1.08 2.11-.99 1.93-.85 1.84-.69 1.78-.55 1.69-.49 1.54-.56 1.31-.74 1.12-.82 1.24-.69 1.66-.53 1.82-.97 1.04m-1.62.94-1.02-.15-1.38.05-1.38.49-1.23.69-1.11.66-1.09.5-1.16.3-1.26.12-1.33.07-1.31.13-1.23.26-1.15.36-1.11.37-1.15.25-1.22-.04-1.12-.31-8.11-13.05 2.28 1.21 2.28 1.04 2.35 1.3 2.4 1.46 2.31 1.32 2.1 1.02 1.85.71 1.61.37 1.36-.05 1.14-.51 1.09-.84 1.27-.68 1.68.09 1.93 1.1 1.71 1.76M72.49-16.31l-.33-1.81-.43-1.58-.52-1.11-.61-.94-.64-1-.65-1.1-.63-1.14-.63-1.16-.61-1.14-.61-1.14-.6-1.1-.6-1.04-.6-.99-.61-.94-.63-.9-.68-.9-.72-.91-.72-.94-.69-.93-.65-.9-.72-.76-.91-.57-1.03-.4-.4-.33" filter="url(#a)"/><path d="m78.01-39.36-.67-.09-.57 1.07-.69 1.61-.48 1.69-.28 1.69-.26 1.68-.29 1.66-.29 1.61-.26 1.57-.3 1.56-.4 1.49-.47 1.37-.41 1.25-.23 1.34-.03 1.71.11 1.84M-32.44-75.2l.19-1.87.38-1.14.63-.73.96-.28 1.13-.1 1.13-.3 1.02-.75.82-1.27.59-1.66.39-1.85.32-1.79.47-1.55.72-1.29.77-1.12.51-.84" filter="url(#a)"/><path d="m-32.44-75.2.74-.6.51-.88.65-.78.87-.57 1-.49 1.03-.58.99-.72.91-.84.81-.87.76-.83.75-.79.81-.79.89-.88.96-1.05 1.04-1.25 1.07-1.41 1.08-1.43 1.05-1.3 1.02-1.09 1.04-.97 1.18-.96 1.27-1.03.93-1.01" filter="url(#a)"/><path d="m-35.75-73.06-.96.6-.83.5-.91.6-.96.64-.98.66-.96.66-.93.66-.89.66-.87.66-.87.7-.89.75-.92.82-.96.89-.99.93-.96.9-.9.85-.85.79-.81.76-.78.8-.78.94-.68 1.16 28.54-28.61.64.3-.66.94-1.02 1.18-.99 1.22-.92 1.08-.92.82-.95.58-.93.45-.9.54-.86.81-.87 1.19-.86 1.49-.81 1.5-.63 1.01h-.08l-2.41 1.62.87.51 1.03-.33 1.06-.38 1.11-.46 1.14-.56 1.13-.59 1.08-.55 1.01-.45.99-.33 1.01-.19 1.08-.05 1.14.02 1.16.03 1.14-.01 1.03-.03h.88l.76.07.82.1 1.05.06.97-.01" filter="url(#a)"/><path d="m-39.06-71.01-2.4-.72-1.45.29-1.63-.29-1.71-.55-1.54-.28-1.32.16-1.22.48-1.21.67-1.22.77-1.19.84-1.18.78-1.29.6-1.49.27-1.77-.11-1.99-.4-2.05-.47-1.93-.27-1.69.17-1.44.7-1.24 1.11-1.13 1.18-1.24.8-2.23.11 34.08-4.48 1.1-.7.94-.5.91-.58.92-.61 1.01-.63 1.1-.63 1.15-.59 1.13-.52 1.02-.44.95-.36.93-.3.96-.28.98-.25.88-.2.83-.01-59.28 10.49 1.12-1.38 1.68-.6 1.86-.25 2.26.12 2.7.43 2.78.41h2.4l1.86-.45 1.5-.63 1.51-.41 1.76.05 2.06.46 2.19.66 2.15.6 1.97.36 1.77.07 1.63-.16 1.59-.26 1.58-.25 1.52-.16 1.39-.1 1.21-.17 1.07-.39.82-.7-.57.84-3.21-2.45-1.46-.26-1.11.48-1.3.57-1.49.5-1.62.35-1.7.13-1.68.02-1.48.15-1.11.51-.72.91-.5 1.17-.59 1.16-.98.88-1.52.53-1.97.22-2.19.04-2.29-.08-2.4.02-1.77 1.23" filter="url(#a)"/><path d="m-60.21-55.06 1.61-.93 1.31-1.15.92-1.01.71-.8.73-.64.85-.52.95-.46 1.01-.44 1.02-.49 1.01-.59 1.03-.76 1.1-.91 1.15-1 .98-.92.47-.76 1.21.06 1.06-.35 1.02-.38 1.06-.33 1.2-.14 1.36.18 1.49.46 1.51.56 1.4.4 1.24.07 1.16-.2 1.27-.22 1.42.04 1.38.34 1.24 1.01-19.21-.69-2.12-.33-1.87.41-.95 1.2-.72 1.16-.94.73-1.25.28-1.41.06-1.41.03-1.3.19-1.12.46-.97.75-.92.97-.95 1.03-1.07.93-1.2.72-1.31.52-1.36.36-1.32.37-1.3.55-1.58.6 41.53-41.77-1.76 2.19-.88 2.16-.65 2.05-.58 1.95-.57 1.81-.6 1.66-.67 1.55-.77 1.47-.87 1.37-.94 1.26-.97 1.12-.97 1-.91.97-.82 1.06-.7 1.22-.59 1.39-.55 1.42-.62 1.24-.78.88-.98.44-1 .23-.57.63.59 2.22-5.81-3.42-2.87-1.05-2.13-.58-1.24.33-.47 1.23-.25 1.48-.65 1.02-1.38.21-2.1-.49-2.58-.77-2.73-.6-2.6-.22-2.37-.03-2.22-.16-2.35.05" filter="url(#a)"/><path d="m-48.92-62.82-.53.66-.77.59-.84.58-.89.56-.96.48-1.1.31-1.27.16-1.44.05-1.61.06-1.68.19-1.59.41-1.33.65-1.08.81-1.09.73-1.38.19-1.39-1.01m18.95-5.42 1.89-1.55 1.11-.89.84-.67.79-.6.83-.57.9-.54.96-.53.98-.55.98-.58.96-.6.96-.57.97-.52 1.02-.48 1.11-.53 1.28-.6 1.46-.56 1.42-.15-32.42 33.63-.08.15.26-.67.4-1.16.46-1.35.49-1.36.52-1.26.54-1.12.56-1 .57-.91.59-.89.6-.89.63-.93.66-.99.7-1.03.72-1.04.72-1.02.68-.96.65-.9.62-.84.67-.78.73-.73.76-.73.64-.89.47-1.11" filter="url(#a)"/><path d="m-80.75-64.56 2.97.27 1.64-.09 2.68.71 3.4 1.24 3.39 1.17 3 .78 2.52.39 2.07.12 1.69-.04 1.41-.12 1.22-.23 1.04-.4.89-.59.9-.58 1.21-.21 1.4.05-2.28 2.38.91-.44 1.37-.03 1.51-.05 1.47-.25 1.35-.42 1.19-.5 1.05-.52.92-.58.81-.67.74-.76.75-.78.82-.7.92-.55 1.02-.39 1.08-.27 1.12-.2 1.16-.18 1.24-.12 1.35-.02 1.43.19 1.41.53 1.24.91.78.83m-43.31 21.91.72-.75.82-1.26.98-1.25 1.02-1.17.95-1.09.86-.97.82-.85.83-.74.85-.69.89-.68.91-.72.92-.8.9-.92.87-1.01.84-1 .83-.87.85-.62.88-.49.9-.58 1.03-.48" filter="url(#a)"/><path d="m-51.6-59.71-.91.61-.85.62-.84.53-1 .47-1.21.49-1.38.5-1.5.46-1.54.36-1.54.3-1.51.25-1.51.21-1.55.18-1.53.22-1.36.46-1.08.87-.91 1.28-.96 1.41-1.16.82M71.63-21.19l-.18-.26-.46-.45-.54-.91-.59-1.17-.69-1.17-.86-1.05-1.05-.94-1.25-.83-1.42-.71-1.48-.61-1.36-.55-1.04-.6-.69-.72-.57-.83-.8-.84-1.18-.64-1.73-.04M-53.95-56.62l.7-1.11.78-.88.86-.67.96-.5 1.05-.46 1.09-.53 1.09-.67 1.09-.74 1.08-.69 1.06-.55 1.04-.39 1.03-.27 1.07-.14 1.13-.02 1.17.03 1.37-.01" filter="url(#a)"/><path d="m-53.68-57.42-.67 2.11-.82 1.67-.94 1.11-.87.87-.75.83-.63.86-.56.89-.5.94-.48 1.02-.49 1.1-.5 1.18-.5 1.22-.47 1.26-.4 1.27-.32 1.25-.26 1.24-.24 1.21-.24 1.21-.24 1.19-.22 1.23-.21 1.29-.25 1.37-.26 1.34-.02.67 9.79-26.6-1.61 1.24-1.41.62-1.26.43-1.02.55-.8.71-.75.74-.81.69-.92.66-.96.74-.93.92-.92 1.1-.9 1.2-.84 1.2-.71 1.01-.65.44-.89-.8" filter="url(#a)"/><path d="m-54.73-55.69-2.78-4.67-.6-1.76.06-1.24.63-.85.99-.57 1.05-.62.83-1.04.5-1.61.27-2 .3-2.03.54-1.66.85-1.14 1.06-.76 1.04-.75.8-1.13.46-1.74.18-2.29.12-2.51.31-2.28.66-1.74.83-1.29-.06-1.05m-34.67 60.18.41-1.39 1.1-1.28 1.26-1.24 1.18-1.25 1.14-1.23 1.16-1.12 1.17-1.03 1.13-.98 1.05-.96.99-.95.98-.93 1.03-.89 1.11-.88 1.16-.87 1.15-.91 1.08-.95.95-.96.79-.97.65-.95.57-.93.58-.9.64-.86.66-.87.67-.79 2.11.37-.93 1.32-.59.24-1 .55-.92.63-.77.7-.74.74-.85.75-.99.79-1.11.83-1.15.89-1.11.95-1.03.96-.95.95-.94.92-.98.9-1.05.88-1.12.87-1.2.86-1.43.89-1.86 1.06-2.18 1.84m22.05-17.11-.83 1.35-.35 1.23-.02 1.25v1.25l-.12 1.23-.29 1.21-.42 1.23-.48 1.25-.43 1.27-.3 1.28-.17 1.28-.11 1.24-.16 1.2-.26 1.14-.3 1.08-.21 1.07-.12 1.13-.29.9" filter="url(#a)"/><path d="m-85.44-34.9 1.76-1.64 1.06-1.37 1.69-1.04 1.95-.85 1.71-.85 1.35-.92 1.16-.95 1.2-.86 1.37-.69 1.51-.6 1.51-.63 1.39-.77 1.2-.96 1-1.07.85-1.09.76-1 .8-.79 1.1-.37 1.71.28 1.82-.05M52.7-34.56l1.83.16 1.64.29 1.33.49 1.09.65.97.7.94.66.9.66.84.71.74.83.64.97.57 1.06.6 1.09.79 1.03 1.12.96 1.47.92 1.61.92 1.28.73.61.08m-132.74-25.6-.73.29-1.5.73-1.53.86-1.17.97-.84 1.05-.66 1.07-.68 1.04-.82.98-1.02.92-1.24.87-1.5.82-1.76.77-1.95.74-2.02.74-1.88.77-1.58.8-1.32.8-1.31.71-1.65.6-2.15.59-2.32.77-1.71.9-.63.02m50.66-24.98-1.28-.42-1.12-.01-.95.3-.84.45-.8.49-.82.48-.85.46-.93.47-1.05.47-1.23.43-1.38.36-1.45.29-1.39.28-1.2.37-.97.52-.72.68-.51.83-.35.95-.4 1.01-1.5.93" filter="url(#a)"/><path d="m-63.42-43.59.51-1.94-.46-2.23-.48-1.89-.17-1.5.02-1.34.12-1.28.32-1.17.58-1.04.73-1.05.61-1.34.23-1.84-.24-2.31-.54-2.4-.39-1.95.11-1.42-.16-2.25-2.1 30.09.63-1.93.15-1.89-.26-2.11-.39-2.05-.05-1.61.5-1.05.92-.67 1.05-.56.95-.7.76-.94.61-1.15.53-1.3.48-1.39.4-1.46.23-1.57v-1.74l-.22-1.95-.37-2.12-.3-2.11-.04-1.86.3-1.5.34-1.41-.39-2.11-5.84 34.77.51.53.63-.45.53-1.08.59-1.27.72-1.19.86-1.01.93-.82.98-.65 1.02-.53 1.03-.47 1.03-.47 1.05-.5 1.05-.55 1.04-.62 1-.68.93-.72.84-.7.8-.59.85-.46.93-.36.95-.35.88-.44 1.03-.32" filter="url(#a)"/><path d="m-64.74-40.86-1.2 2.51-.95 1.2-.92.87-1.07.88-1.36.9-1.66.83-1.86.75-1.83.69-1.57.69-1.19.74-.85.82-.71.9-.84.96-1.15.97-1.45.96-1.6 1.04-1.53 1.25-1.47 1.47-1.69 1.34-1.85.49m162.88-.7-.35-1.35-.49-1.66-.46-1.41-.45-1.22-.49-1.19-.52-1.19-.52-1.18-.49-1.13-.45-1.04-.47-.98-.51-.94-.58-.96-.65-1.02-.68-1.05-.65-1.07-.64-1.09-.56-1.16M-58.06-53.09l-.19.57-.53.93-.55.92-.52.86-.52.85-.54.9-.57.99-.63 1.1-.67 1.2-.67 1.24-.59 1.21-.49 1.08-.39.92-.45 1.03-.96 2.23" filter="url(#a)"/><path d="m-67.4-34.13-.19-2-.13-1.33.18-1.29.01-1.47-.18-1.59-.1-1.54.25-1.4.59-1.26.76-1.2.73-1.21.55-1.28.33-1.34.18-1.38.16-1.38.22-1.33.36-1.28.51-1.28.59-1.34.61-1.44.58-1.49.5-1.38.4-1.21.26-1.27.25-1.73-8.81 36.9-.56.36-.79.95-.55.97-.5.81-.62.72-.79.76-.9.85-.91.96-.87 1.06-.85 1.14-.91 1.18-1.05 1.17-1.19 1.11-1.21 1.09-1.04 1.17-.78 1.34-.7 1.46-1.09 1.47-1.53 1.66 28.27-35.44-.49.7-.7.71-.77 1.01-.88 1.08-.96.99-.97.85-.89.8-.76.84-.66.92-.61.99-.58 1.01-.59 1.04-.63 1.1-.72 1.2-.71 1.16-.23.57M-88.3.12l.96-1.61.63-1.63.67-1.79.77-1.69.79-1.47.78-1.28.77-1.19.8-1.19.89-1.2 1-1.21 1.02-1.21.96-1.21.84-1.21.74-1.23.75-1.23.88-1.17 1.06-1.09 1.16-1 1.13-1 .87-1.05.48-.84.01.24m141.61 4.15.15-2.81 1.17-2.11.77-1.64.02-1.41-.25-1.41.04-1.57.57-1.77 1.03-1.91 1.23-2 1.17-2 .84-1.94.34-1.78-.2-1.55-.63-1.31-.69-1.21-.21-1.45.9-2.21 1.89-3.68-9.39 29.18 4.81-2.61-.94-1.01-1.18-1.15-.4-1.43.08-1.51.23-1.48.25-1.48.27-1.54.32-1.66.3-1.71.17-1.66-.05-1.52-.24-1.39-.25-1.38-.03-1.52.26-1.79.48-2.05.43-2.19.22-2.26.14-2.36.53-2.66 1.45-3.45-6.85 39.81.02-.74-.18-1.24-.07-1.51.1-1.56.16-1.46.09-1.32-.06-1.21-.21-1.15-.36-1.16-.47-1.19-.48-1.22-.37-1.27-.2-1.31-.03-1.33-.07-1.33-.51-1.73-8.74-8.41.9 1.39.69.86.66.94.64 1.13.62 1.27.59 1.33.55 1.32.49 1.27.43 1.21.4 1.15.38 1.13.38 1.12.39 1.15.41 1.17.41 1.18.42 1.17.42 1.13.42 1.07.41 1.04.4 1.08.37 1.19.37 1.4.43 1.57.43 1.36" filter="url(#a)"/><path d="m70.05-5 .56-.7.33-.99.13-1.18.02-1.19-.01-1.24.02-1.35.03-1.43.03-1.47v-1.44l-.01-1.4-.03-1.35-.03-1.26-.07-1.18-.13-1.16-.2-1.23-.24-1.32-.21-1.29-.13-1.03-.15-.86m-1.46-3.95-.41-.61-.48-.9-.48-.88-.61-.87-.86-.84-1.14-.73-1.4-.55-1.54-.39-1.52-.32-1.34-.35-1.09-.46-.88-.6-.77-.72-.81-.81-.97-.83-1.17-.75-1.53-.05" filter="url(#a)"/><path d="m58.49-48.47.64.93.89 1.14.87 1.08.73 1 .62.93.55.91.53.91.53.92.57.96.62 1.01.65 1.05.62 1.09.52 1.05.38.97.36.97.75 1.33" filter="url(#a)"/><path d="m55.55-55.35.51.72.66.97.69.96.67.94.65.99.66 1.06.68 1.13.7 1.15.7 1.15.67 1.09.63 1.04.59.99.55.98.53.99.51 1.03.52 1.08.54 1.14.53 1.15.48 1.11.39 1.01.34 1.01.57 1.44" filter="url(#a)"/><path d="m75.31-76.76-.44 1.33-.05 1.21-.14 1.69-.41 2.19-.46 2.37-.22 2.17.1 1.91.26 1.79.13 1.92-.16 2.14-.41 2.3-.47 2.26-.33 2.05-.15 1.77-.07 1.6-.26 1.65-.67 1.89-1.15 2.21-1.34 2.38-1.05 2.21-.46 1.73-.09 1.1-.04.82-.09-1.26-.03-.28-.17-1.44.08-1.67.21-1.65.28-1.6.35-1.59.37-1.6.29-1.55.11-1.49-.04-1.54.05-1.81.38-2.25.71-2.62.69-2.54.52-2.47-3.8 26.1.33 1.27.62 1.14.93 1.02 1.24.97 1.3.97 1.13 1.05.83 1.15.6 1.23.54 1.25.61 1.19.69 1.14.71 1.14.61 1.21.45 1.34.37 1.45.45 1.53.69 1.54 1.01 1.49 1.26 1.33 1.4 1.15 1.41 1.37.79 2.81-17.97-28.74.54 1.17.97 1 1.74.71 2.3.56 2.25.63 1.78.83 1.23 1.07.88 1.21.74 1.26.71 1.23.65 1.22.51 1.27.38 1.38.43 1.47.73 1.52 1.24 1.51 1.7 1.47 1.85 1.44 1.61 1.4 1.24 1.37 1.22 1.43 1.67 1.53 1.95.7" filter="url(#a)"/><path d="m72.95-21.58-.19-.26-.36-.47-.48-.94-.5-1.22-.47-1.29-.43-1.25-.43-1.24-.44-1.25-.45-1.25-.42-1.21-.39-1.1-.37-.97-.39-.83-.5-.91-1.04-2.02 5.49 20.12-.31-2.19-.19-1.09-.21-.88-.25-1.05-.27-1.24-.28-1.3-.31-1.29-.34-1.28-.38-1.26-.4-1.25-.4-1.2-.36-1.12-.33-1.03-.3-.98-.37-1.06-.54-1.28-.56-1.17-.41-.97.54.89.62 1.13.55 1.14.44 1.04.4.97.41 1.01.45 1.07.48 1.16.5 1.22.5 1.22.49 1.22.46 1.26.48 1.35.49 1.37.46 1.05.31.17 2.52-.48-.21-1.45-.68-1.69-.67-1.41-.65-1.21-.71-1.15-.78-1.14-.81-1.12-.75-1.07-.62-1.02-.53-.96-.56-.89-.75-.89-.91-.95-.88-.98-.59-.86-.68-1.5-.41-.94-.37-.91-.39-1.01-.48-1.07-.61-1.13-.68-1.17-.68-1.2-.65-1.21-.6-1.19-.56-1.14-.52-1.1-.51-1.05-.49-1.01-.48-.98-.48-.98-.47-1.05-.47-1.16-.48-1.31-.53-1.4-.63-1.4-.73-1.32-.75-1.29-.55-1.36.36-.93 11.11 4.71-.85 2.16v1.76l.15 1.59.15 1.5.25 1.4.43 1.32.58 1.31.56 1.38.35 1.53.03 1.69-.26 1.74-.35 1.65-.19 1.39.09 1.07.11 1.11 30.09 12.53-4.02-.56-3.6-1.06-2.3-1.16-1.15-1.32-.58-1.47-.64-1.42-1.1-1.16-1.48-.92-1.4-.85-.95-1-.49-1.2-.43-1.24-.96-1-1.96-.45-3.07.23-3.61.59-2.85.18-17.85-14.17.34.38 1.1.37 1.22.5 1.17.52 1.1.48.99.43.87.47.77.54.73.62.77.66.83.68.9.69.94.72.97.82.96.93.94 1.02.86 1.04.75 1.01.66.99.86 1.38" filter="url(#a)"/><path d="m64.07-42.01.29.36.59.82.95.85 1.54.62 2.15.32 2.4.17 2.12.28 1.52.58.89.96.46 1.25.29 1.41.36 1.46.61 1.4 1.04 1.27 1.64 1.07 2.24.86 2.69.69 2.78.62 2.42.76 1.77 1.08 1.23 1.43 1.27 1.47 1.74 1.07.96 1.02-35.17-23.75.27.44.46.86.4.97.27 1.1.15 1.25.08 1.35.09 1.35.14 1.28.16 1.19.13 1.14.03 1.15-.07 1.24-.15 1.35-.16 1.44-.13 1.4-.21 1.29-.49 1.12-.54 1.05-.43-20.97.43.35.57.8.57.89.56.96.59 1.03.62 1.07.64 1.07.66 1.04.65 1 .64.97.59 1.01.52 1.09.45 1.19.4 1.26.41 1.3.43 1.3.49 1.3.57 1.3.62 1.22.56.98.36.53.2.28" filter="url(#a)"/><path d="m62.08-45.77-.12 1.71-.04 1.27.41.93.48.9.36 1.02.27 1.15.24 1.23.2 1.25.17 1.25.1 1.21.03 1.17-.07 1.18-.22 1.28-.41 1.44-.56 1.61-.55 1.63-.32 1.33-.02.68m-2.24-25.1 1.66 1.22 1.71.62 1.34.6 1 .69.99.67 1.19.55 1.34.5 1.26.63 1.07.84.94 1.01 1.03.98 1.38.75 1.81.42 2.04.25 1.82.41 1.07.42" filter="url(#a)"/><path d="m58.99-50.94.05-1.52-.16-1.19-.54-.99-.6-.9-.58-.84-.58-.84-.6-.94-.6-1.07-.64-1.17-.68-1.21-.7-1.23-.68-1.24-.61-1.27-.58-1.31-.6-1.31-.69-1.26-.79-1.18-.76-1.11-.63-1.05-.53-1.02-.66-1.02-.76-.9-13.19 17.29.8.51 1.23-.08h1.13l1.1-.06 1.2-.23 1.34-.31 1.48-.32 1.55-.29 1.54-.22 1.44-.1 1.32.08 1.19.32 1.1.53 1.08.67 1.07.75 1.03.79.99.73 1.09.3.99-.2-7.13-44.71.41 4.73.29 3.62.26 3.08.19 2.85.1 2.73.08 2.52.16 2.18.3 1.82.47 1.56.57 1.44.64 1.4.65 1.38.6 1.39.49 1.47.36 1.62.23 1.8.14 1.96.12 2 .18 1.87.3 1.58.33 1.14.26.57 1.08.15 1.75-.05 2.23-.4 2.41-.57 2.19-.3 1.71.26 1.2.84.9 1.22.89 1.27 1.16 1.04 1.6.6 2.16.09 2.7-.38 2.89-.58 2.48-.14-15.26 11.63-.75-1.2-.59-.98-.67-.81-.75-.78-.79-.85-.81-.94-.83-1.04-.83-1.09-.84-1.06-.84-.99-.82-.9-.79-.85-.74-.85-.7-.86-.67-.82-.57-.6-.42-.34" filter="url(#a)"/><path d="m40.3-69.3 1.1.83.92.75.81.63.78.55.83.59.9.68.95.77.91.79.86.81.81.81.82.85.87.89.91.94.93.99.9 1.05.87 1.07.76.67-.49 1.22-.61 1.73.03 1.38.58.93.84.7.84.71.68.91.49 1.17.34 1.36.26 1.42.21 1.38.17 1.29.14 1.18.21 1.04.31.92.22 1.06-.48 1.77" filter="url(#a)"/><path d="m55.23-55.63-.7-.76-.88-1.1-.92-1.07-.93-1.01-.91-.95-.87-.92-.84-.88-.83-.85-.86-.84-.88-.82-.89-.79-.87-.75-.85-.71-.84-.7-.87-.72-.91-.74-.98-.78-1.04-.78-1.09-.79-1.15-.8-1.16-.77-1.18-.72-1.51-.74 17 13.63.95 1.28 1.05 1.09.72 1.19.34 1.35.09 1.39.11 1.27.27 1.07.43.94.49.92.41 1.03.25 1.23.11 1.4.04 1.51.06 1.52.14 1.45.24 1.31.3 1.17.32 1.05.29 1 .2 1.01.04 1.12-.2 1.28-.38 1.29-.84 1.28" filter="url(#a)"/><path d="m50.27-60.99 1.37.8 1.08 1.06.97.97.9.81.85.66.82.6.79.61.82.65.87.67.95.7 1.02.72 1.04.78 1.03.88.95.99.85 1.1.74 1.14.67 1.12.66 1.04.7.95.77.87.82.85.83.88.8.83.7.56" filter="url(#a)"/><path d="m69.91-56.86-1.05-.49-1.81-.09-1.74-.11-1.42-.33-1.23-.44-1.26-.33-1.41-.06-1.55.17-1.61.2-1.53.01-1.39-.31-1.23-.62-1.09-.77-.9-.7-.44-.27m-2.36-2.78 1.96 1.34 2.06-.13 1.96-.18 1.64.22 1.45.43 1.41.38 1.44.21 1.37.14 1.21.28 1.05.49 1.07.58 1.24.5 1.49.35 1.75.22 2.22.02 2.98-.3 3.24.35-48.85-5.22 1.72-.29 1.21.23 1.48-.2 1.68-.54 1.7-.57 1.61-.43 1.47-.24 1.35-.09 1.2.04 1.04.16.93.36.85.66.84.99.8 1.13.68.55.75-1.44" filter="url(#a)"/><path d="m33.9-89.21 1.36 1.3.98 1.19.87 1.02.69.99.58 1.13.57 1.32.63 1.46.7 1.55.76 1.58.8 1.49.89 1.31.95 1.06.95.9.84.89.65 1.04.55 1.18.66 1.15.97.98.96 1-.05 1.59-1.32 1.3m.53.4.13.19.39.54.68.82.83.94.86.99.85 1.02.79 1.02.71.98.64.93.57.89.54.86.54.88.55.91.56.94.59.98.62 1.03.65 1.09.69 1.15.71 1.19.69 1.17.61 1.11.5 1.09.68 1.48M44.53-66.7l-.2-.01.52.55.85.89.93.98.86.93.75.89.68.92.65 1.02.66 1.1.66 1.19.66 1.23.64 1.21.61 1.09.48.87.3.46" filter="url(#a)"/><path d="m42.35-68.13 1.4.63 1.19-.24 1.71-.64 2.03-.65 1.92-.35 1.69-.03 1.56.1 1.62.1 1.71.08 1.73.14 1.63.32 1.43.55 1.19.75.99.86.87.88.81.86.84.83.95.79 1.12.71 1.26.61 1.3.63 1.28.7 1.32.39-47.26-44.56.78 2.95 1.1 3.13.56 2.88.37 2.19.54 1.53.85 1.13 1.1.95 1.23.9 1.23.9 1.13.95.97 1.03.81 1.11.72 1.14.73 1.13.83 1.05 1.01.91 1.2.76 1.25.75.98 1.18.34 2.18-.69 3.67-1.33 4.12-21.52-26.18 1.93 1.39.97 1.23.89 1.54.86 1.59.77 1.39.72 1.11.78.86.9.78.99.87.99 1.08.93 1.3.84 1.39.76 1.32.71 1.13.71.95.73.83.79.82.89.87 1.03.85 1.19.7 1.3.48 1.18.65.34 2.29" filter="url(#a)"/><path d="m38.4-71.27 3.14-2.71 1.11.71 1.06.77 1.18.4 1.18.26 1.12.33 1.1.43 1.16.5 1.23.5 1.28.46 1.28.48 1.27.52 1.32.54 1.48.47 1.76.26h2.01l2.13-.17 1.93-.1 1.43.22.79.73.46 1.14.94 1.17 2.36.91" filter="url(#a)"/><path d="m72.01-64.24-1.61-1.67-1.28-.85-1.45-.17-1.74.23-1.97.33-2.06.25-2.02.1h-1.94l-1.86-.03-1.77-.01h-1.7l-1.59-.05-1.47-.18-1.33-.34-1.18-.5-1.03-.6-.9-.67-.78-.77-.75-.88-.84-.86-1.14-.51-1.54.07-1.66.08-.8-.94 2.46-1.91 2.14-1.16 1.31.34 1.02.8 1.13.55 1.38.04 1.62-.35 1.78-.48 1.86-.4 1.83-.22 1.69.02 1.54.22 1.51.28 1.73.12 2.2-.24 2.68-.61 2.84-.62 2.4.09 2.09 1.52" filter="url(#a)"/><path d="m37.6-72.21-1.53-.72-1.02-.55-.81-.41-.74-.35-.8-.36-.91-.41-1.04-.47-1.15-.5-1.2-.53-1.17-.52-1.06-.47-.86-.37-.71-.28-.74-.26-1.04-.33-1.47-.42-1.14-.25 17.39 7.2.85.97.81 1.15.86 1.03.92.82.91.7.83.68.75.76.71.86.68.98.62 1.12.53 1.23.43 1.33.33 1.43.27 1.49.25 1.53.25 1.54.26 1.52.29 1.4.36 1.18.44.85.39.65.17.78.25.94 7.97-10.25-.65-.19-.79-.69-.93-.91-1-.96-1.01-.95-.98-.92-.95-.87-.93-.81-.95-.75-.99-.7-1.02-.68-1.02-.64-.98-.63-.92-.61-.89-.63-.91-.63-.96-.66-1.04-.67-1.1-.67-1.18-.69-1.32-.74-1.68-.91" filter="url(#a)"/><path d="m33.27-74.62 1.5.76 1.18.72 1.15.79 1.11.85 1.03.9.93.96.84.99.76.96.73.92.71.87.75.83.79.84.81.85.82.87.79.88.77.89.76.92.78.96.8 1.02.8 1.11.76 1.17.72 1.2.58.84M17.97-90.85l.68 1.07.67 1.27.76 1.14.85 1.04.89 1 .9 1.08.85 1.17.75 1.19.65 1.07.62.84.74.65.97.58 1.17.67 1.18.85.92.91.32.47" filter="url(#a)"/><path d="m31.12-75.78 1.56-1.86 1.55-.88.65.72.43 1.14.66.93.97.65 1.18.47 1.32.39 1.42.27 1.52.09 1.65-.16 1.78-.46 1.88-.68 1.88-.73 1.78-.53 1.62-.1 1.42.39 1.25.73 1.15.75 1.2.58 1.36.48 1.29.02-36.06-4.97 1.67-.22 1.77.17 1.63.13 1.61-.22 1.58-.51 1.47-.56 1.35-.44 1.27-.28 1.3-.19 1.41-.15 1.51-.08 1.57.03 1.58.13 1.58.19 1.59.16 1.59.08 1.53.03 1.39.03 1.31.03 1.48.02 2.12.18 3.93.39" filter="url(#a)"/><path d="M24.99-78.54 22.92-76l-1.88.91-1.25-.1-.93-.54-.83-.58-.87-.39-.95-.12-1.07.13-1.16.39-1.24.66-1.25.89-1.19.95-1.08.78-1.02.45-1.17.12-1.64.09 19.6-6.18-1.08-1.06-1.23-1.65-.85-1.93-.74-1.57-.85-.97-.96-.72-.98-1.05-.94-1.82-.88-2.63-.86-3.1-.89-3.03-.98-2.44-1.1-1.61-1.25-.98-1.36-.87-1.37-1.38-1.26-2.06-1.56-1.78 18.73 30.35.17.28.15.25.46.33.81.54 1.04.72 1.13.79 1.12.75 1.06.63.98.51.88.45.79.46.75.56.74.72.8.94.85 1.1.88 1.15.88 1.02.68 1.01" filter="url(#a)"/><path d="m20.63-80.07-.4.6-.87.86-1 .25-.98-.18-1.02-.3-1.08-.23-1.14-.11-1.18.02-1.18.14-1.15.2-1.14.19-1.11.18-1.12.22-1.13.33-1.13.46-1.12.51-1.08.47-1 .35-.93.24-.88.18-.89.17-.89.18-.73.35-.61.73 44.58 2.99-.96-.65-1.17-.67-1.19-.68-1.17-.6-1.08-.45-.98-.34-.91-.3-.89-.33-.94-.4-1.02-.49-1.12-.55-1.19-.56-1.2-.53-1.11-.45-.9-.35-.65-.29-.6-.27-1.11-.35-2.63-.54-.24-.05 1.36-.45 1.54.27 1.18-.05.93-.19.89-.01.99.26 1.13.42 1.24.45 1.29.38 1.29.24 1.26.06 1.25-.13 1.28-.3 1.34-.37 1.4-.29 1.41-.03 1.35.36 1.26.72 1.22.83 1.29.64 1.33.35 1.01.33" filter="url(#a)"/><path d="m41.24-63.29.22-.64-.55-.99-.77-1.01-.85-.98-.92-.92-.98-.86-1.01-.78-1.01-.67-.96-.6-.88-.57-.82-.59-.78-.65-.81-.7-.89-.71-1.02-.63-1.12-.52-1.17-.42-1.07-.39-.87-.51-.65-.7-.57-.9-.86-.93-1.37-.76-1.14-.4" filter="url(#a)"/><path d="m20.96-80.3.06-.16 1.1-.45 1.35-.27 1.11-.06.86.02.8.11.92.23 1.14.32 1.34.27 1.5.06 1.59-.24 1.6-.48 1.45-.57.98-.58.12-.61 3.14 17.11-.88-1.22-.89-1.03-.94-.98-.99-.92-.96-.83-.9-.71-.83-.62-.78-.58-.78-.61-.82-.67-.9-.74-.99-.79-1.04-.78-1.06-.72-1-.58-.9-.42-.82-.28-.83-.23-.97-.34-1.08-.54-.8-.62.1-.49-3.06-.73 1.86.34 1.06.2 1.1.16h1.2l1.15-.25 1.09-.53 1.16-.76 1.37-.95 1.67-1.08 1.89-1.11 1.91-.9 1.74-.46 1.5-.02 1.32-.05 1.1-.71.65-1.8-21.77 7.92 2.92-3.79 2.37-4.83 1.63-1.66 1.12.67.82 1.37.75 1.05.93.31 1.34-.5 1.78-1.12 2.06-1.32 2.06-1.04 1.9-.61 1.87-.58 2.05-1.46 2.03-2.68.66-1.87-5.65 32.83-.76-.89-.91-.98-.97-.95-.96-.84-.9-.68-.83-.55-.79-.49-.8-.53-.83-.62-.9-.74-.96-.85-1-.86-1-.78-.97-.6-.89-.42-.83-.31-.82-.38-.87-.58-.94-.78-.93-.78-.96-.59-1.82-.57.04.1.57.65 1 .39.9.65.87.9.89.87.84.63.78.41.75.37.78.52.87.76.94.97.98 1.03.98.96.91.85.72.86.22.98-.63 1.16" filter="url(#a)"/><path d="m16.91-81.23.9-.11 1.01-.15 1.13-.21 1.25-.41 1.33-.51 1.34-.56 1.28-.65 1.27-.83 1.31-.95 1.41-.87 1.5-.58 1.57-.21 1.6.01h1.61l1.6-.23 1.57-.61 1.52-1.09 1.62-1.51 2.3-1.05M16.15-81.62l-1.76-.52-1.29-.56-1.12-.61-1.05-.48-1.08-.33-1.12-.26-1.15-.3-1.18-.34-1.18-.4-1.17-.45-1.13-.52L1.84-87l-1.02-.66-1.01-.63-1.03-.5-1.08-.25-1.12-.02-1.22.05-1.35-.27-1.02-1.02 20 7.95 1.17.09 1.34.07 1.25-.17 1.22-.56 1.28-.9 1.32-.98 1.3-.71 1.25-.29 1.19.01 1.14-.02 1.14-.32 1.18-.64 1.32-.76 1.54-.71 1.85-.68 2.03-.84 1.87-1.02.93-.83" filter="url(#a)"/><path d="m10.38-82.71-1.76-.12-1.44.21-1.22.41-1.17.34-1.15.11-1.09-.05-.99-.04-.93.11-.9.28-.94.38-.99.36-1.02.28-1.11.19-1.22.16-1.33.24-1.68.53 18.94-3.39-1.71-.63-1.39-.71-1.15-1-1.12-.88-1.15-.51-1.13-.26-1.06-.29-.98-.53-.99-.82-1.04-1.04-1.1-1.15-1.15-1.02-1.25-.59-1.36-.02-.96-.02 39.14 8.03-1.34-.54-1.72.19-1.33.4-1 .33-.92.19-1.02.07-1.13.03-1.18-.01-1.16-.06-1.11-.11-1.09-.12-1.1-.07-1.17.03-1.24.1-1.29.13-1.28.11-1.2.08-1.06.1-.93.21-1.26.12" filter="url(#a)"/><path d="m4.47-83.38 1.3.09 1.12-.07 1.18-.03 1.16.05 1.11.08 1.12.04 1.17-.01 1.23-.03 1.25-.06 1.22-.03h1.16l1.08.07 1.02.11 1 .1 1.03.04 1.38.05 2.75.39-41.36 4.82 1.4-.69.86-.3.8-.45.92-.52 1.01-.45 1.07-.33 1.11-.24 1.16-.2 1.18-.23 1.19-.28 1.15-.35 1.1-.37 1.06-.34.99-.27.89-.2.78-.16.93-.14 1.77-.05-25.77 10.45.88-1.06 1.03-.88 1.02-.69 1.04-.68 1.08-.73 1.08-.75 1.06-.64 1.02-.46 1.02-.29 1.03-.19 1.06-.2 1.08-.29 1.1-.38 1.13-.41 1.16-.36 1.18-.27 1.16-.16 1.13-.11 1.08-.16 1.01-.33.9-.52.8-.55.94-.32 1.78-.02-1.78-.09-.94-.06-.81-.11-.93-.23-1.06-.44-1.16-.67-1.23-.84-1.3-.91-1.36-.89-1.39-.93-1.43-1.08-1.46-1.32-1.46-1.48-1.43-1.38-1.37-.98-1.3-.4-1.3.12-1.38.34-1.54.1-1.67-.48-1.69-.93-1.67-.74-2.35-.64" filter="url(#a)"/><path d="m-14.79-89.75.46.55 1.33.66 1.38.46 1.28.32 1.25.35 1.29.45 1.33.56 1.31.58 1.26.52 1.17.37 1.11.12 1.02-.12.9-.2.78.08.92.77 1.76.94-2.62-.1 1.92.28 1.36.14 1.17.22 1.13.26 1.13.24 1.12.19 1.1.17 1.1.2 1.1.28 1.12.41 1.1.54 1.05.64.98.69.92.68.87.6.85.48.87.42 1.15.52 2.32 1.09" filter="url(#a)"/></g><g fill="none" stroke="#000"><circle cx="10.35" cy="17.03" r="2.112" filter="url(#a)"/><circle cx="12.266" cy="18.858" r="1.822" filter="url(#a)"/><circle cx="10.106" cy="17.566" r="2.174" filter="url(#a)"/><circle cx="9.514" cy="17.95" r="1.238" filter="url(#a)"/><circle cx="12.442" cy="15.874" r="1.198" filter="url(#a)"/><circle cx="12.518" cy="16.354" r="2.056" filter="url(#a)"/><circle cx="13.162" cy="16.978" r="1.904" filter="url(#a)"/><circle cx="9.714" cy="18.21" r="2.06" filter="url(#a)"/><circle cx="12.13" cy="18.058" r="1.956" filter="url(#a)"/><circle cx="11.15" cy="19.126" r="2.228" filter="url(#a)"/><circle cx="-9.012" cy="25.682" r="1.564" filter="url(#a)"/><circle cx="-10.584" cy="25.958" r="2.018" filter="url(#a)"/><circle cx="-10.488" cy="24.498" r="1.298" filter="url(#a)"/><circle cx="-10.284" cy="23.774" r="1.85" filter="url(#a)"/><circle cx="-7.98" cy="24.434" r="1.54" filter="url(#a)"/><circle cx="-8.028" cy="24.478" r="2.118" filter="url(#a)"/><circle cx="-8.692" cy="25.926" r="2.382" filter="url(#a)"/><circle cx="-9.716" cy="23.926" r="2.364" filter="url(#a)"/><circle cx="-9.552" cy="25.386" r="2.506" filter="url(#a)"/><circle cx="-8.944" cy="25.642" r="2.832" filter="url(#a)"/></g><path fill="#D77F8C" stroke="#000" stroke-linejoin="round" stroke-width="3" d="m26.83 40.73.07-.1.05.58.21.14-.02.79-.14-.32-.04.89.11-.4-.17.64-.15.62.2-.52-.63 1.42.14-.12-.62.92.56-.78-.95 1.37.49-.58-.13.14-.56.79-.76.83.34-.42-.73.88.11-.1-.24.24-.66.59-.67.59-.59.47-1.24.92 1.19-.88-2.26 1.64.09-.07-.64.43-1 .62.15-.08-.13.04-.81.45.27-.12-1.81.99-.89.43-.54.27-.81.37-.36.14.87-.38-.57.25-2.68 1.11.75-.28-.1.03-1.01.4-1.91.67.41-.14-1.8.58-.22.07-.31.09-.14.05-1.41.39.61-.18-1.17.31-1.75.41.84-.19-2.35.51h-.03l-1.71.28 1.15-.2-1.6.26-.76.07-.11.03-1.06.11-1 .07-.38.06-.38.01-.36-.01-.65.03-1.21-.05.07.04h-.24l-1.15-.04-.72-.13-.6-.03-.42-.11-.34-.05-1.21-.18-.33-.07-.4-.13-.64-.24.86.31-1.09-.35.17.03-.27-.11-.83-.46.05.16-1.01-.71.02.17-.15-.15v-.11l-.58-.59-.39-.47.25.4-.34-.3-.2-.43h-.05l-.17-.45-.03-.3-.3-.3.06-.72-.14.13.01-.4.1-.34.18-.55-.07-.37.17-.53.24-.37.02-.02.13-.42.35-.39.08-.22.61-.81.18-.24-.34.27.34-.29.29-.36.07-.19 1.01-.96.08-.12.61-.57-.04.08-.04-.07 1.25-1.03.32-.18-.26.2.32-.24 1.88-1.33-.49.32 1.01-.66.53-.38-.47.29 1.34-.77 1.19-.64-.82.42.86-.45 1.01-.51 1.52-.74-.15.07 1.78-.79-.77.33.54-.22 1.76-.71.76-.28.05-.02 1.48-.52.17-.05 1.54-.49-.38.12.16-.05 1.43-.41-.58.16.9-.25 1.48-.37 1.9-.43-1.36.3 1.32-.28 1.54-.28.12-.03.6-.09.33-.06.5-.04.33-.06.56-.04 2.58-.24.22-.01 1.02-.03.17.01-.98.03 2.04.02.4-.05.84.07-.26.03 1.58.15-.65-.08 1.5.21.29.07.08-.01 1.03.25.29.08.4.14.54.1-.59-.14.37.15 1.41.54-.91-.33.67.34.59.28.5.33.5.42.05.09-.41-.24.39.18.34.67.02-.18.31.69.34.69" filter="url(#a)"/></svg>