
  <svg viewBox="-100 -100 200 200" xmlns="http://www.w3.org/2000/svg" width="500" height="500" id="face-svg">
    <defs>
      <clipPath id="leftEyeClipPath">
        <polyline points="20.06,2.76 19.93,2.25 19.77,1.73 19.57,1.22 19.36,0.7 19.11,0.17 18.84,-0.35 18.55,-0.87 18.23,-1.4 17.89,-1.93 17.54,-2.45 17.16,-2.98 16.77,-3.5 16.37,-4.03 15.94,-4.55 15.51,-5.07 14.97,-5.62 14.41,-6.18 13.85,-6.74 13.27,-7.3 12.69,-7.87 12.1,-8.44 11.5,-9.01 10.89,-9.58 10.28,-10.14 9.67,-10.69 9.05,-11.23 8.42,-11.76 7.8,-12.27 7.17,-12.77 6.54,-13.25 5.91,-13.71 5.27,-14.14 4.64,-14.55 4.01,-14.94 3.38,-15.3 2.75,-15.62 2.12,-15.92 1.49,-16.19 0.87,-16.42 0.25,-16.62 -0.36,-16.79 -0.97,-16.92 -1.58,-17.02 -2.18,-17.09 -2.77,-17.12 -3.36,-17.11 -3.95,-17.07 -4.52,-16.99 -5.09,-16.89 -5.65,-16.75 -6.2,-16.57 -6.74,-16.37 -7.27,-16.14 -7.8,-15.87 -8.31,-15.59 -8.81,-15.27 -9.3,-14.93 -9.78,-14.58 -10.25,-14.2 -10.7,-13.8 -11.15,-13.38 -11.58,-12.96 -12,-12.52 -12.4,-12.07 -12.79,-11.61 -13.17,-11.15 -13.54,-10.67 -13.9,-10.18 -14.24,-9.69 -14.57,-9.18 -14.89,-8.67 -15.2,-8.14 -15.5,-7.62 -15.78,-7.09 -16.05,-6.55 -16.31,-6.01 -16.55,-5.47 -16.79,-4.93 -17,-4.39 -19.71,8.06 -19.35,8.28 -18.99,8.5 -18.61,8.73 -18.23,8.96 -17.83,9.19 -17.43,9.42 -17.03,9.66 -16.61,9.9 -16.19,10.14 -15.76,10.38 -15.32,10.63 -14.87,10.87 -14.42,11.12 -13.96,11.36 -13.5,11.61 -13.02,11.86 -12.54,12.12 -12.05,12.37 -11.55,12.62 -11.04,12.87 -10.52,13.13 -10,13.38 -9.46,13.62 -8.93,13.87 -8.38,14.11 -7.83,14.35 -7.28,14.58 -6.71,14.8 -6.15,15.02 -5.58,15.23 -5,15.43 -4.42,15.62 -3.83,15.8 -3.25,15.97 -2.65,16.13 -2.06,16.28 -1.46,16.41 -0.86,16.52 -0.25,16.62 0.35,16.71 0.96,16.78 1.58,16.83 2.19,16.86 2.8,16.87 3.42,16.86 4.04,16.83 4.66,16.79 5.28,16.72 5.9,16.63 6.52,16.51 7.14,16.38 7.76,16.22 8.38,16.04 9,15.84 9.61,15.62 10.23,15.37 10.84,15.1 11.45,14.82 12.05,14.5 12.65,14.17 13.24,13.82 13.83,13.45 14.41,13.06 14.98,12.66 15.43,12.36 15.87,12.05 16.29,11.73 16.7,11.4 17.1,11.06 17.48,10.7 17.84,10.34 18.19,9.98 18.51,9.6 18.81,9.21 19.09,8.82 19.35,8.43 19.58,8.02 19.77,7.62 19.94,7.2" />
      </clipPath>
      <clipPath id="rightEyeClipPath">
        <polyline points="-18.54,6.71 -18.36,6.11 -18.14,5.49 -17.89,4.87 -17.61,4.24 -17.3,3.61 -16.97,2.96 -16.61,2.31 -16.23,1.66 -15.84,0.99 -15.42,0.33 -14.99,-0.35 -14.55,-1.03 -14.1,-1.72 -13.63,-2.41 -13.15,-3.1 -12.5,-3.77 -11.84,-4.47 -11.19,-5.19 -10.53,-5.93 -9.88,-6.68 -9.23,-7.45 -8.59,-8.23 -7.96,-9.02 -7.33,-9.81 -6.7,-10.6 -6.09,-11.39 -5.48,-12.17 -4.88,-12.94 -4.29,-13.69 -3.7,-14.42 -3.12,-15.14 -2.55,-15.83 -1.99,-16.49 -1.44,-17.12 -0.89,-17.72 -0.35,-18.28 0.19,-18.8 0.71,-19.28 1.23,-19.72 1.75,-20.11 2.26,-20.46 2.76,-20.76 3.26,-21.01 3.75,-21.21 4.24,-21.36 4.72,-21.47 5.19,-21.52 5.66,-21.52 6.13,-21.47 6.59,-21.38 7.05,-21.24 7.5,-21.05 7.94,-20.82 8.38,-20.54 8.82,-20.23 9.25,-19.87 9.67,-19.48 10.08,-19.06 10.49,-18.6 10.9,-18.12 11.29,-17.61 11.68,-17.08 12.06,-16.54 12.43,-15.97 12.8,-15.4 13.15,-14.81 13.5,-14.21 13.84,-13.58 14.18,-12.95 14.51,-12.29 14.83,-11.63 15.14,-10.96 15.45,-10.27 15.75,-9.58 16.04,-8.89 16.32,-8.19 16.59,-7.48 16.86,-6.78 17.11,-6.07 18.33,11.65 17.97,11.89 17.6,12.14 17.23,12.39 16.84,12.64 16.45,12.89 16.05,13.14 15.64,13.4 15.22,13.65 14.79,13.91 14.36,14.17 13.91,14.42 13.46,14.68 13,14.93 12.54,15.19 12.06,15.44 11.57,15.7 11.08,15.95 10.57,16.21 10.05,16.46 9.53,16.71 8.99,16.96 8.45,17.21 7.9,17.45 7.34,17.69 6.78,17.92 6.2,18.14 5.62,18.36 5.03,18.57 4.44,18.77 3.84,18.96 3.23,19.14 2.62,19.3 2.01,19.46 1.39,19.61 0.77,19.74 0.14,19.85 -0.48,19.95 -1.12,20.04 -1.75,20.11 -2.38,20.16 -3.02,20.2 -3.65,20.22 -4.29,20.22 -4.92,20.2 -5.55,20.16 -6.19,20.1 -6.81,20.03 -7.44,19.93 -8.06,19.81 -8.68,19.68 -9.29,19.52 -9.9,19.34 -10.5,19.14 -11.09,18.92 -11.67,18.69 -12.25,18.43 -12.81,18.15 -13.36,17.85 -13.9,17.54 -14.43,17.21 -14.94,16.86 -15.44,16.49 -15.91,16.11 -16.37,15.71 -16.72,15.41 -17.05,15.1 -17.36,14.77 -17.65,14.44 -17.91,14.09 -18.14,13.74 -18.35,13.38 -18.52,13.01 -18.66,12.63 -18.77,12.25 -18.85,11.85 -18.88,11.45 -18.88,11.05 -18.83,10.64 -18.74,10.23" />
      </clipPath>
      <filter id="fuzzy">
        <feTurbulence id="turbulence" baseFrequency="0.05" numOctaves="3" type="noise" result="noise" />
        <feDisplacementMap in="SourceGraphic" in2="noise" scale="2" />
      </filter>
      <linearGradient id="rainbowGradient" x1="0%" y1="0%" x2="100%" y2="0%">
        <stop offset="0%" style="stop-color: rgb(165, 42, 42); stop-opacity: 1" />
        <stop offset="50%" style="stop-color: rgb(123, 104, 238); stop-opacity: 1" />
        <stop offset="100%" style="stop-color: rgb(50, 205, 50); stop-opacity: 1" />
      </linearGradient>
    </defs>
    <rect x="-100" y="-100" width="100%" height="100%" fill="rgb(25, 25, 112)" />
    <polyline id="faceContour" points="57.56,1.64 57.5,1.46 57.52,2.52 57.53,4.24 57.34,6.86 57.46,6.51 57.23,7.45 57.06,11.09 57.16,10.08 56.82,12.03 56.99,12.18 56.6,14.27 56.18,17.43 56.13,18.09 56.32,17.14 55.89,20.52 56.02,20.19 55.6,21.18 55.37,23.17 55.08,25.15 54.29,27.59 54.51,27.48 54.27,28.38 53.83,29.93 53.96,29.59 52.92,33.86 52.89,33.74 51.7,37.07 52.05,36.61 51.21,38.82 51.71,37.4 50.41,41.03 50.49,41.42 49.94,42.44 49.51,43.28 49.36,43.89 48.93,44.5 47.23,49.1 47.36,48.48 47.14,48.77 46.47,50.77 45.12,52.78 45.32,52.48 44.3,54.34 44.02,54.89 43.53,55.85 42.79,56.9 42.29,57.83 42.08,58.53 41.11,60.15 39.98,61.8 39.82,61.64 39.06,62.8 39.23,62.45 38.3,63.75 36.7,65.92 37.11,65.39 35.62,67.1 34.96,67.82 34.68,68.3 34.37,68.25 33.44,69.56 33.49,69.59 30.82,72.1 31.52,71.47 28.91,74.11 28.85,74.09 27.83,74.93 27.89,74.86 27.12,75.52 25.82,76.39 25.3,76.77 24.42,77.61 24.45,77.09 22.73,78.56 21.16,79.46 20.74,79.99 19.81,80.19 18.06,81.12 18.36,81.09 16.9,81.86 16.81,81.68 15.39,82.23 15.9,82.38 14.05,83.02 13.35,83.03 12.81,83.39 10.26,84.08 11.02,83.76 10.31,83.93 9.55,84.5 8.33,84.59 7.07,85.04 6.31,84.87 5.13,85.26 4.43,85.22 4.09,85.31 2.89,85.46 1.69,85.72 1.43,85.42 -0.07,85.65 0.2,85.43 -1.14,85.61 -2.18,85.58 -3.95,85.18 -5.1,85.29 -6.57,84.84 -5.59,85.32 -7.63,84.89 -9.33,84.41 -9.46,84.52 -10.25,84.11 -10.9,84.05 -10.55,84.14 -11.57,83.76 -13.84,83.18 -13.1,83.38 -15.16,82.35 -16.5,82.05 -16.74,81.67 -17.44,81.57 -18.69,80.74 -19.94,80.27 -20.14,79.9 -20.64,79.74 -22.03,79.2 -22.68,78.5 -24.65,77.05 -23.76,77.71 -25.26,77 -26.64,75.55 -27.04,75.6 -28.08,74.64 -27.95,74.74 -28.48,74.3 -29.94,73.02 -30.04,72.89 -31.28,71.86 -32.23,70.75 -32.73,70.31 -33.29,69.75 -33.54,69.24 -35.67,67.19 -36.53,66.08 -36.05,66.75 -38.4,63.36 -38.58,63.13 -38.63,63.28 -39.68,61.82 -39.4,62.17 -41.1,59.55 -41.17,59.35 -42.4,57.74 -42.76,56.7 -43.42,55.62 -43.44,55.76 -43.8,55.13 -44.09,54.68 -45.17,53.04 -46.78,49.72 -46.75,49.86 -47.53,48.24 -47.93,47.49 -47.94,47.24 -48.68,45.1 -49.48,43.47 -49.52,43.57 -49.86,42.04 -49.7,42.95 -50.75,39.66 -51.49,37.41 -51.31,38.24 -51.71,36.78 -52.07,35.69 -52.54,34.58 -52.95,32.89 -53.13,32.36 -53.27,31.59 -54.44,27.48 -54.24,28.15 -54.94,25.31 -54.28,27.67 -55.19,23.46 -55.39,22.85 -55.52,22.29 -55.68,21.2 -56.03,18.62 -56.3,17.68 -56.41,16.55 -56.28,16.72 -56.81,11.31 -56.86,11.7 -56.72,12.29 -56.94,10.81 -57.3,6.54 -57.22,5.33 -57.36,4.93 -57.23,3.88 -57.38,3.03 -57.33,1.97 -57.29,-0.94 -57.46,-2.7 -57.37,-3.98 -57.16,-6.4 -57.3,-5.61 -57.22,-6.89 -56.92,-9.65 -56.93,-10.55 -57.03,-9.72 -57.03,-11.01 -56.49,-14.39 -56.55,-15.09 -56.51,-15.7 -56.37,-16.76 -56.13,-18.6 -55.94,-18.69 -55.48,-22.31 -55.35,-22.99 -54.93,-24.66 -54.89,-25.02 -54.83,-25.85 -54.29,-27.72 -54.11,-28.61 -53.51,-31.23 -53.19,-31.88 -52.74,-33.73 -52.8,-33.83 -52.06,-35.9 -52.03,-36.63 -51.66,-37.28 -50.8,-39.73 -50.69,-39.65 -50.14,-41.82 -49.67,-42.87 -49.72,-43.06 -48.83,-45.06 -48.96,-44.71 -48.33,-46.14 -48.02,-46.96 -47.32,-48.63 -46.14,-50.97 -46.21,-51.02 -45.02,-53.2 -45.52,-52.01 -44.01,-54.85 -43.54,-55.98 -43.08,-56.4 -43.1,-56.39 -41.61,-58.94 -40.48,-61.01 -39.83,-61.34 -40.27,-60.83 -38.72,-63.09 -38.56,-63.52 -37.94,-64.19 -36.73,-65.64 -36.85,-65.54 -36.33,-66.16 -34.37,-68.34 -34.92,-67.84 -33.15,-69.88 -33.05,-70.06 -32.38,-70.5 -31.5,-71.38 -30.29,-72.63 -30.95,-72.15 -29.41,-73.23 -28.75,-74.29 -28,-74.91 -26.58,-75.83 -25.52,-76.41 -25.51,-76.85 -24.4,-77.4 -24.32,-77.34 -23.28,-78.36 -21.45,-79.23 -20.8,-79.73 -20.6,-80 -19.5,-80.68 -18.49,-80.95 -18.56,-80.93 -16.53,-81.7 -15.91,-82.12 -15.33,-82.35 -15.14,-82.44 -13.37,-83.42 -12.91,-83.36 -11.72,-83.49 -11.53,-83.64 -10.43,-83.95 -8.33,-84.75 -8.42,-84.76 -7.77,-84.91 -6.17,-85.2 -6.4,-85.18 -4.89,-85.28 -4.5,-85.43 -3.02,-85.6 -2.02,-85.29 -1.77,-85.66 0.39,-85.61 0.77,-85.49 1.08,-85.76 2.76,-85.69 4.18,-85.24 4.32,-85.23 4.81,-85.48 7.96,-84.83 5.91,-85.05 8.43,-84.41 9.65,-84.41 10.75,-84.11 10.81,-84.14 11.7,-83.67 13.47,-83.34 13.88,-82.82 14.83,-82.68 14.9,-82.6 15.21,-82.7 17.13,-81.67 17.9,-81.35 17.97,-81.54 19.85,-80.52 19.61,-80.67 20.24,-80.31 21.78,-79.18 22.04,-78.91 23.68,-78.17 23.48,-78.19 25.28,-76.59 26.71,-75.77 26.26,-76.26 28.09,-74.44 27.84,-74.74 29.65,-73.2 30.44,-72.64 30.77,-72.12 31.98,-71.02 32.64,-70.35 33.92,-69.16 34.47,-68.6 35.12,-67.94 35.79,-66.78 35.68,-67.08 37.23,-65.5 38.78,-63.15 38.15,-64.22 38.72,-63.41 39.77,-61.71 39.7,-61.83 40.62,-60.3 40.74,-60.29 41.02,-59.93 42.48,-57.6 43.53,-56.26 43.38,-56.18 43.36,-56.2 44.01,-55.01 45.53,-52.16 45.8,-51.39 46.34,-50.53 46.83,-49.58 47.85,-47.59 48.34,-46.57 48.63,-45.62 48.61,-45.71 49.7,-42.85 50.04,-42.42 50.59,-40.96 51.21,-39.02 51.59,-37.98 50.8,-39.86 51.71,-37.27 52.53,-34.49 52.6,-34.91 52.7,-34.4 53.89,-30.07 53.77,-30.07 54.36,-28.22 54.57,-27.32 55.03,-25.09 54.89,-24.83 54.88,-24.93 55.28,-23.92 55.47,-23.07 55.93,-19.07 56.11,-19.02 55.98,-18.74 56.62,-15.83 56.86,-12.76 56.92,-12.39 56.75,-13.6 57.19,-10.34 57.25,-9.46 57.23,-7.74 57.24,-7 57.28,-5.52 57.38,-2.87 57.59,-0.7 57.45,-1.9 57.56,1.64 57.5,1.46" fill="rgb(255, 192, 203)" stroke="black" stroke-width="1.6666666666666665" stroke-linejoin="round" filter="url(#fuzzy)" />
    <g transform="translate(27.560000000000002 -23.16)">
      <polyline id="rightCountour" points="-18.54,6.71 -18.36,6.11 -18.14,5.49 -17.89,4.87 -17.61,4.24 -17.3,3.61 -16.97,2.96 -16.61,2.31 -16.23,1.66 -15.84,0.99 -15.42,0.33 -14.99,-0.35 -14.55,-1.03 -14.1,-1.72 -13.63,-2.41 -13.15,-3.1 -12.5,-3.77 -11.84,-4.47 -11.19,-5.19 -10.53,-5.93 -9.88,-6.68 -9.23,-7.45 -8.59,-8.23 -7.96,-9.02 -7.33,-9.81 -6.7,-10.6 -6.09,-11.39 -5.48,-12.17 -4.88,-12.94 -4.29,-13.69 -3.7,-14.42 -3.12,-15.14 -2.55,-15.83 -1.99,-16.49 -1.44,-17.12 -0.89,-17.72 -0.35,-18.28 0.19,-18.8 0.71,-19.28 1.23,-19.72 1.75,-20.11 2.26,-20.46 2.76,-20.76 3.26,-21.01 3.75,-21.21 4.24,-21.36 4.72,-21.47 5.19,-21.52 5.66,-21.52 6.13,-21.47 6.59,-21.38 7.05,-21.24 7.5,-21.05 7.94,-20.82 8.38,-20.54 8.82,-20.23 9.25,-19.87 9.67,-19.48 10.08,-19.06 10.49,-18.6 10.9,-18.12 11.29,-17.61 11.68,-17.08 12.06,-16.54 12.43,-15.97 12.8,-15.4 13.15,-14.81 13.5,-14.21 13.84,-13.58 14.18,-12.95 14.51,-12.29 14.83,-11.63 15.14,-10.96 15.45,-10.27 15.75,-9.58 16.04,-8.89 16.32,-8.19 16.59,-7.48 16.86,-6.78 17.11,-6.07 18.33,11.65 17.97,11.89 17.6,12.14 17.23,12.39 16.84,12.64 16.45,12.89 16.05,13.14 15.64,13.4 15.22,13.65 14.79,13.91 14.36,14.17 13.91,14.42 13.46,14.68 13,14.93 12.54,15.19 12.06,15.44 11.57,15.7 11.08,15.95 10.57,16.21 10.05,16.46 9.53,16.71 8.99,16.96 8.45,17.21 7.9,17.45 7.34,17.69 6.78,17.92 6.2,18.14 5.62,18.36 5.03,18.57 4.44,18.77 3.84,18.96 3.23,19.14 2.62,19.3 2.01,19.46 1.39,19.61 0.77,19.74 0.14,19.85 -0.48,19.95 -1.12,20.04 -1.75,20.11 -2.38,20.16 -3.02,20.2 -3.65,20.22 -4.29,20.22 -4.92,20.2 -5.55,20.16 -6.19,20.1 -6.81,20.03 -7.44,19.93 -8.06,19.81 -8.68,19.68 -9.29,19.52 -9.9,19.34 -10.5,19.14 -11.09,18.92 -11.67,18.69 -12.25,18.43 -12.81,18.15 -13.36,17.85 -13.9,17.54 -14.43,17.21 -14.94,16.86 -15.44,16.49 -15.91,16.11 -16.37,15.71 -16.72,15.41 -17.05,15.1 -17.36,14.77 -17.65,14.44 -17.91,14.09 -18.14,13.74 -18.35,13.38 -18.52,13.01 -18.66,12.63 -18.77,12.25 -18.85,11.85 -18.88,11.45 -18.88,11.05 -18.83,10.64 -18.74,10.23" fill="white" stroke="white" stroke-width="0" stroke-linejoin="round" filter="url(#fuzzy)" />
    </g>
    <g transform="translate(-20.880000000000003 -23.990000000000002)">
      <polyline id="leftCountour" points="20.06,2.76 19.93,2.25 19.77,1.73 19.57,1.22 19.36,0.7 19.11,0.17 18.84,-0.35 18.55,-0.87 18.23,-1.4 17.89,-1.93 17.54,-2.45 17.16,-2.98 16.77,-3.5 16.37,-4.03 15.94,-4.55 15.51,-5.07 14.97,-5.62 14.41,-6.18 13.85,-6.74 13.27,-7.3 12.69,-7.87 12.1,-8.44 11.5,-9.01 10.89,-9.58 10.28,-10.14 9.67,-10.69 9.05,-11.23 8.42,-11.76 7.8,-12.27 7.17,-12.77 6.54,-13.25 5.91,-13.71 5.27,-14.14 4.64,-14.55 4.01,-14.94 3.38,-15.3 2.75,-15.62 2.12,-15.92 1.49,-16.19 0.87,-16.42 0.25,-16.62 -0.36,-16.79 -0.97,-16.92 -1.58,-17.02 -2.18,-17.09 -2.77,-17.12 -3.36,-17.11 -3.95,-17.07 -4.52,-16.99 -5.09,-16.89 -5.65,-16.75 -6.2,-16.57 -6.74,-16.37 -7.27,-16.14 -7.8,-15.87 -8.31,-15.59 -8.81,-15.27 -9.3,-14.93 -9.78,-14.58 -10.25,-14.2 -10.7,-13.8 -11.15,-13.38 -11.58,-12.96 -12,-12.52 -12.4,-12.07 -12.79,-11.61 -13.17,-11.15 -13.54,-10.67 -13.9,-10.18 -14.24,-9.69 -14.57,-9.18 -14.89,-8.67 -15.2,-8.14 -15.5,-7.62 -15.78,-7.09 -16.05,-6.55 -16.31,-6.01 -16.55,-5.47 -16.79,-4.93 -17,-4.39 -19.71,8.06 -19.35,8.28 -18.99,8.5 -18.61,8.73 -18.23,8.96 -17.83,9.19 -17.43,9.42 -17.03,9.66 -16.61,9.9 -16.19,10.14 -15.76,10.38 -15.32,10.63 -14.87,10.87 -14.42,11.12 -13.96,11.36 -13.5,11.61 -13.02,11.86 -12.54,12.12 -12.05,12.37 -11.55,12.62 -11.04,12.87 -10.52,13.13 -10,13.38 -9.46,13.62 -8.93,13.87 -8.38,14.11 -7.83,14.35 -7.28,14.58 -6.71,14.8 -6.15,15.02 -5.58,15.23 -5,15.43 -4.42,15.62 -3.83,15.8 -3.25,15.97 -2.65,16.13 -2.06,16.28 -1.46,16.41 -0.86,16.52 -0.25,16.62 0.35,16.71 0.96,16.78 1.58,16.83 2.19,16.86 2.8,16.87 3.42,16.86 4.04,16.83 4.66,16.79 5.28,16.72 5.9,16.63 6.52,16.51 7.14,16.38 7.76,16.22 8.38,16.04 9,15.84 9.61,15.62 10.23,15.37 10.84,15.1 11.45,14.82 12.05,14.5 12.65,14.17 13.24,13.82 13.83,13.45 14.41,13.06 14.98,12.66 15.43,12.36 15.87,12.05 16.29,11.73 16.7,11.4 17.1,11.06 17.48,10.7 17.84,10.34 18.19,9.98 18.51,9.6 18.81,9.21 19.09,8.82 19.35,8.43 19.58,8.02 19.77,7.62 19.94,7.2" fill="white" stroke="white" stroke-width="0" stroke-linejoin="round" filter="url(#fuzzy)" />
    </g>
    <g transform="translate(27.560000000000002 -23.16)">
      <polyline id="rightUpper" points="-17.74,12.66 -18.09,12.06 -18.36,11.46 -18.58,10.87 -18.73,10.28 -18.82,9.69 -18.86,9.1 -18.84,8.51 -18.79,7.92 -18.68,7.32 -18.54,6.71 -18.36,6.11 -18.14,5.49 -17.89,4.87 -17.61,4.24 -17.3,3.61 -16.97,2.96 -16.61,2.31 -16.23,1.66 -15.84,0.99 -15.42,0.33 -14.99,-0.35 -14.55,-1.03 -14.1,-1.72 -13.63,-2.41 -13.15,-3.1 -12.5,-3.77 -11.84,-4.47 -11.19,-5.19 -10.53,-5.93 -9.88,-6.68 -9.23,-7.45 -8.59,-8.23 -7.96,-9.02 -7.33,-9.81 -6.7,-10.6 -6.09,-11.39 -5.48,-12.17 -4.88,-12.94 -4.29,-13.69 -3.7,-14.42 -3.12,-15.14 -2.55,-15.83 -1.99,-16.49 -1.44,-17.12 -0.89,-17.72 -0.35,-18.28 0.19,-18.8 0.71,-19.28 1.23,-19.72 1.75,-20.11 2.26,-20.46 2.76,-20.76 3.26,-21.01 3.75,-21.21 4.24,-21.36 4.72,-21.47 5.19,-21.52 5.66,-21.52 6.13,-21.47 6.59,-21.38 7.05,-21.24 7.5,-21.05 7.94,-20.82 8.38,-20.54 8.82,-20.23 9.25,-19.87 9.67,-19.48 10.08,-19.06 10.49,-18.6 10.9,-18.12 11.29,-17.61 11.68,-17.08 12.06,-16.54 12.43,-15.97 12.8,-15.4 13.15,-14.81 13.5,-14.21 13.84,-13.58 14.18,-12.95 14.51,-12.29 14.83,-11.63 15.14,-10.96 15.45,-10.27 15.75,-9.58 16.04,-8.89 16.32,-8.19 16.59,-7.48 16.86,-6.78 17.11,-6.07 17.36,-5.37 17.6,-4.67 17.83,-3.97 18.04,-3.27 18.25,-2.58 18.46,-1.89 18.65,-1.21 18.83,-0.53 19,0.14 19.17,0.8" fill="none" stroke="black" stroke-width="1.6666666666666665" stroke-linejoin="round" filter="url(#fuzzy)" />
      <polyline id="rightLower" points="-14.8,5.99 -15.48,6.41 -16.09,6.83 -16.64,7.26 -17.11,7.68 -17.53,8.11 -17.88,8.54 -18.17,8.96 -18.41,9.39 -18.6,9.81 -18.74,10.23 -18.83,10.64 -18.88,11.05 -18.88,11.45 -18.85,11.85 -18.77,12.25 -18.66,12.63 -18.52,13.01 -18.35,13.38 -18.14,13.74 -17.91,14.09 -17.65,14.44 -17.36,14.77 -17.05,15.1 -16.72,15.41 -16.37,15.71 -15.91,16.11 -15.44,16.49 -14.94,16.86 -14.43,17.21 -13.9,17.54 -13.36,17.85 -12.81,18.15 -12.25,18.43 -11.67,18.69 -11.09,18.92 -10.5,19.14 -9.9,19.34 -9.29,19.52 -8.68,19.68 -8.06,19.81 -7.44,19.93 -6.81,20.03 -6.19,20.1 -5.55,20.16 -4.92,20.2 -4.29,20.22 -3.65,20.22 -3.02,20.2 -2.38,20.16 -1.75,20.11 -1.12,20.04 -0.48,19.95 0.14,19.85 0.77,19.74 1.39,19.61 2.01,19.46 2.62,19.3 3.23,19.14 3.84,18.96 4.44,18.77 5.03,18.57 5.62,18.36 6.2,18.14 6.78,17.92 7.34,17.69 7.9,17.45 8.45,17.21 8.99,16.96 9.53,16.71 10.05,16.46 10.57,16.21 11.08,15.95 11.57,15.7 12.06,15.44 12.54,15.19 13,14.93 13.46,14.68 13.91,14.42 14.36,14.17 14.79,13.91 15.22,13.65 15.64,13.4 16.05,13.14 16.45,12.89 16.84,12.64 17.23,12.39 17.6,12.14 17.97,11.89 18.33,11.65 18.67,11.41 19.01,11.17 19.34,10.93 19.66,10.7 19.98,10.47 20.28,10.24 20.57,10.01 20.86,9.79 21.13,9.57 21.4,9.35" fill="none" stroke="black" stroke-width="2.2222222222222223" stroke-linejoin="round" filter="url(#fuzzy)" />
      <circle r="4.02" cx="0.1975452639466284" cy="4.416068348144818" stroke="black" fill="none" stroke-width="1.0" filter="url(#fuzzy)" clip-path="url(#rightEyeClipPath)" /><circle r="4.018" cx="-1.0324547360533716" cy="4.701068348144818" stroke="black" fill="none" stroke-width="1.0" filter="url(#fuzzy)" clip-path="url(#rightEyeClipPath)" /><circle r="4.464" cx="-3.1324547360533717" cy="6.456068348144818" stroke="black" fill="none" stroke-width="1.0" filter="url(#fuzzy)" clip-path="url(#rightEyeClipPath)" /><circle r="4.96" cx="-1.6874547360533714" cy="8.121068348144817" stroke="black" fill="none" stroke-width="1.0" filter="url(#fuzzy)" clip-path="url(#rightEyeClipPath)" /><circle r="4.4719999999999995" cx="0.38254526394662847" cy="7.851068348144818" stroke="black" fill="none" stroke-width="1.0" filter="url(#fuzzy)" clip-path="url(#rightEyeClipPath)" /><circle r="3.004" cx="-0.7424547360533715" cy="4.2660683481448185" stroke="black" fill="none" stroke-width="1.0" filter="url(#fuzzy)" clip-path="url(#rightEyeClipPath)" /><circle r="3.002" cx="-1.1524547360533717" cy="7.506068348144819" stroke="black" fill="none" stroke-width="1.0" filter="url(#fuzzy)" clip-path="url(#rightEyeClipPath)" /><circle r="4.922" cx="1.0525452639466284" cy="8.666068348144819" stroke="black" fill="none" stroke-width="1.0" filter="url(#fuzzy)" clip-path="url(#rightEyeClipPath)" /><circle r="4.678" cx="-0.8624547360533716" cy="8.851068348144818" stroke="black" fill="none" stroke-width="1.0" filter="url(#fuzzy)" clip-path="url(#rightEyeClipPath)" /><circle r="4.454" cx="-3.187454736053372" cy="4.751068348144818" stroke="black" fill="none" stroke-width="1.0" filter="url(#fuzzy)" clip-path="url(#rightEyeClipPath)" />
      </g>
    <g transform="translate(-20.880000000000003 -23.990000000000002)">
      <polyline id="leftUpper" points="19.17,7.84 19.47,7.33 19.72,6.82 19.91,6.32 20.06,5.81 20.16,5.31 20.22,4.8 20.23,4.3 20.21,3.79 20.15,3.28 20.06,2.76 19.93,2.25 19.77,1.73 19.57,1.22 19.36,0.7 19.11,0.17 18.84,-0.35 18.55,-0.87 18.23,-1.4 17.89,-1.93 17.54,-2.45 17.16,-2.98 16.77,-3.5 16.37,-4.03 15.94,-4.55 15.51,-5.07 14.97,-5.62 14.41,-6.18 13.85,-6.74 13.27,-7.3 12.69,-7.87 12.1,-8.44 11.5,-9.01 10.89,-9.58 10.28,-10.14 9.67,-10.69 9.05,-11.23 8.42,-11.76 7.8,-12.27 7.17,-12.77 6.54,-13.25 5.91,-13.71 5.27,-14.14 4.64,-14.55 4.01,-14.94 3.38,-15.3 2.75,-15.62 2.12,-15.92 1.49,-16.19 0.87,-16.42 0.25,-16.62 -0.36,-16.79 -0.97,-16.92 -1.58,-17.02 -2.18,-17.09 -2.77,-17.12 -3.36,-17.11 -3.95,-17.07 -4.52,-16.99 -5.09,-16.89 -5.65,-16.75 -6.2,-16.57 -6.74,-16.37 -7.27,-16.14 -7.8,-15.87 -8.31,-15.59 -8.81,-15.27 -9.3,-14.93 -9.78,-14.58 -10.25,-14.2 -10.7,-13.8 -11.15,-13.38 -11.58,-12.96 -12,-12.52 -12.4,-12.07 -12.79,-11.61 -13.17,-11.15 -13.54,-10.67 -13.9,-10.18 -14.24,-9.69 -14.57,-9.18 -14.89,-8.67 -15.2,-8.14 -15.5,-7.62 -15.78,-7.09 -16.05,-6.55 -16.31,-6.01 -16.55,-5.47 -16.79,-4.93 -17,-4.39 -17.21,-3.85 -17.4,-3.31 -17.58,-2.77 -17.75,-2.23 -17.91,-1.69 -18.05,-1.16 -18.18,-0.63 -18.29,-0.11 -18.4,0.41 -18.49,0.93" fill="none" stroke="black" stroke-width="2.2222222222222223" stroke-linejoin="round" filter="url(#fuzzy)" />
      <polyline id="leftLower" points="19.5,3.11 19.76,3.5 19.96,3.9 20.11,4.31 20.21,4.72 20.26,5.13 20.28,5.54 20.25,5.96 20.18,6.38 20.08,6.79 19.94,7.2 19.77,7.62 19.58,8.02 19.35,8.43 19.09,8.82 18.81,9.21 18.51,9.6 18.19,9.98 17.84,10.34 17.48,10.7 17.1,11.06 16.7,11.4 16.29,11.73 15.87,12.05 15.43,12.36 14.98,12.66 14.41,13.06 13.83,13.45 13.24,13.82 12.65,14.17 12.05,14.5 11.45,14.82 10.84,15.1 10.23,15.37 9.61,15.62 9,15.84 8.38,16.04 7.76,16.22 7.14,16.38 6.52,16.51 5.9,16.63 5.28,16.72 4.66,16.79 4.04,16.83 3.42,16.86 2.8,16.87 2.19,16.86 1.58,16.83 0.96,16.78 0.35,16.71 -0.25,16.62 -0.86,16.52 -1.46,16.41 -2.06,16.28 -2.65,16.13 -3.25,15.97 -3.83,15.8 -4.42,15.62 -5,15.43 -5.58,15.23 -6.15,15.02 -6.71,14.8 -7.28,14.58 -7.83,14.35 -8.38,14.11 -8.93,13.87 -9.46,13.62 -10,13.38 -10.52,13.13 -11.04,12.87 -11.55,12.62 -12.05,12.37 -12.54,12.12 -13.02,11.86 -13.5,11.61 -13.96,11.36 -14.42,11.12 -14.87,10.87 -15.32,10.63 -15.76,10.38 -16.19,10.14 -16.61,9.9 -17.03,9.66 -17.43,9.42 -17.83,9.19 -18.23,8.96 -18.61,8.73 -18.99,8.5 -19.35,8.28 -19.71,8.06 -20.07,7.84 -20.41,7.63 -20.74,7.42 -21.07,7.21 -21.38,7.01 -21.69,6.81 -21.99,6.62 -22.28,6.42 -22.57,6.23 -22.84,6.05" fill="none" stroke="black" stroke-width="2.2222222222222223" stroke-linejoin="round" filter="url(#fuzzy)" />
      <circle r="3.402" cx="-3.179984201321296" cy="-3.028435780548302" stroke="black" fill="none" stroke-width="1.0" filter="url(#fuzzy)" clip-path="url(#leftEyeClipPath)" /><circle r="4.1739999999999995" cx="-1.6699842013212955" cy="-0.3084357805483018" stroke="black" fill="none" stroke-width="1.0" filter="url(#fuzzy)" clip-path="url(#leftEyeClipPath)" /><circle r="4.18" cx="-1.6799842013212958" cy="-0.32843578054830225" stroke="black" fill="none" stroke-width="1.0" filter="url(#fuzzy)" clip-path="url(#leftEyeClipPath)" /><circle r="4.4719999999999995" cx="-2.4949842013212957" cy="-2.803435780548302" stroke="black" fill="none" stroke-width="1.0" filter="url(#fuzzy)" clip-path="url(#leftEyeClipPath)" /><circle r="4.014" cx="-3.2099842013212956" cy="-1.5334357805483019" stroke="black" fill="none" stroke-width="1.0" filter="url(#fuzzy)" clip-path="url(#leftEyeClipPath)" /><circle r="3.022" cx="-1.334984201321296" cy="-2.9384357805483017" stroke="black" fill="none" stroke-width="1.0" filter="url(#fuzzy)" clip-path="url(#leftEyeClipPath)" /><circle r="3.614" cx="0.44001579867870433" cy="-2.208435780548302" stroke="black" fill="none" stroke-width="1.0" filter="url(#fuzzy)" clip-path="url(#leftEyeClipPath)" /><circle r="4.742" cx="-0.05998420132129567" cy="-3.2684357805483018" stroke="black" fill="none" stroke-width="1.0" filter="url(#fuzzy)" clip-path="url(#leftEyeClipPath)" /><circle r="4.986" cx="-2.0149842013212957" cy="-3.338435780548302" stroke="black" fill="none" stroke-width="1.0" filter="url(#fuzzy)" clip-path="url(#leftEyeClipPath)" /><circle r="3.922" cx="-0.4799842013212956" cy="-0.8284357805483014" stroke="black" fill="none" stroke-width="1.0" filter="url(#fuzzy)" clip-path="url(#leftEyeClipPath)" />
    </g>
    <g id="hairs">
      <polyline points="-30.29,-72.63 -30.13,-72.65 -29.11,-73.17 -27.69,-73.78 -26,-74.34 -24.13,-74.79 -22.12,-75.12 -19.97,-75.36 -17.67,-75.52 -15.21,-75.65 -12.6,-75.75 -9.85,-75.82 -7.01,-75.86 -4.1,-75.86 -1.13,-75.81 1.88,-75.72 4.91,-75.61 7.94,-75.48 10.95,-75.37 13.91,-75.28 16.82,-75.19 19.66,-75.12 22.41,-75.05 25.09,-74.94" fill="none" stroke="rgb(220, 208, 186)" stroke-width="2" stroke-linejoin="round" filter="url(#fuzzy)" /><polyline points="-6.17,-85.2 -5.97,-85.18 -5.49,-85.13 -5.07,-84.99 -4.82,-84.71 -4.81,-84.3 -5.08,-83.74 -5.68,-83.01 -6.63,-82.08 -7.96,-80.95 -9.69,-79.61 -11.83,-78.04 -14.43,-76.25 -17.5,-74.21 -21.09,-71.92 -25.19,-69.35 -29.8,-66.58 -34.85,-63.76" fill="none" stroke="rgb(220, 208, 186)" stroke-width="2" stroke-linejoin="round" filter="url(#fuzzy)" /><polyline points="10.75,-84.11 11.19,-83.95 12.13,-83.56 13.22,-83.09 14.29,-82.61 15.33,-82.12 16.35,-81.64 17.39,-81.13 18.44,-80.62 19.47,-80.11 20.43,-79.63 21.3,-79.18 22.06,-78.78 22.71,-78.42 23.23,-78.13 23.6,-77.93 23.78,-77.84 23.76,-77.87 23.5,-78.05 22.99,-78.39 22.16,-78.94 21,-79.73" fill="none" stroke="rgb(220, 208, 186)" stroke-width="2" stroke-linejoin="round" filter="url(#fuzzy)" /><polyline points="-16.53,-81.7 -15.85,-81.98 -14.93,-82.12 -13.7,-82.17 -12.21,-82.12 -10.52,-81.96 -8.66,-81.71 -6.65,-81.39 -4.5,-81 -2.26,-80.55 0.06,-80.03 2.43,-79.43 4.86,-78.76 7.35,-78.03 9.9,-77.23 12.49,-76.4 15.12,-75.54 17.73,-74.67 20.3,-73.83 22.78,-73.02 25.16,-72.26 27.47,-71.5 29.72,-70.73 31.89,-69.95" fill="none" stroke="rgb(220, 208, 186)" stroke-width="2" stroke-linejoin="round" filter="url(#fuzzy)" /><polyline points="-1.77,-85.66 -0.34,-85.59 0.42,-85.5 0.96,-85.34 1.36,-85.08 1.59,-84.71 1.59,-84.24 1.36,-83.67 0.87,-82.98 0.11,-82.17 -0.92,-81.22 -2.25,-80.15 -3.91,-78.94 -5.93,-77.59 -8.3,-76.1 -11.06,-74.46 -14.22,-72.67 -17.79,-70.73 -21.78,-68.64 -26.18,-66.38 -31.07,-63.79 -36.63,-60.58" fill="none" stroke="rgb(220, 208, 186)" stroke-width="2" stroke-linejoin="round" filter="url(#fuzzy)" /><polyline points="9.65,-84.41 10.46,-84.18 11.22,-83.93 12.1,-83.61 13.01,-83.28 13.86,-82.97 14.63,-82.69 15.33,-82.44 15.97,-82.19 16.55,-81.96 17.05,-81.75 17.44,-81.57 17.68,-81.43 17.77,-81.33 17.69,-81.28 17.42,-81.3 16.94,-81.38 16.23,-81.56 15.24,-81.83 13.96,-82.2 12.34,-82.72 10.42,-83.4 8.2,-84.27" fill="none" stroke="rgb(220, 208, 186)" stroke-width="2" stroke-linejoin="round" filter="url(#fuzzy)" /><polyline points="-33.05,-70.06 -32.23,-70.67 -31.15,-71.5 -29.95,-72.37 -28.61,-73.28 -27.1,-74.27 -25.42,-75.34 -23.65,-76.43 -21.84,-77.51 -20.08,-78.55 -18.39,-79.52 -16.78,-80.43 -15.26,-81.28 -13.81,-82.1 -12.46,-82.85 -11.29,-83.48 -10.45,-83.91" fill="none" stroke="rgb(220, 208, 186)" stroke-width="2" stroke-linejoin="round" filter="url(#fuzzy)" /><polyline points="4.32,-85.23 5.34,-85.21 6.51,-84.99 7.61,-84.71 8.74,-84.43 9.87,-84.15 10.91,-83.9 11.79,-83.66 12.52,-83.45 13.06,-83.28 13.34,-83.18 13.28,-83.21 12.85,-83.36 12.1,-83.63 11.12,-83.95" fill="none" stroke="rgb(220, 208, 186)" stroke-width="2" stroke-linejoin="round" filter="url(#fuzzy)" /><polyline points="22.04,-78.91 23.22,-78.25 24.29,-77.4 25.47,-76.38 26.69,-75.27 27.91,-74.14 29.12,-72.97 30.35,-71.77 31.58,-70.56 32.77,-69.36 33.91,-68.21 34.95,-67.14 35.87,-66.19 36.67,-65.38 37.32,-64.71 37.81,-64.22 38.11,-63.95 38.25,-63.88 38.36,-63.81" fill="none" stroke="rgb(220, 208, 186)" stroke-width="2" stroke-linejoin="round" filter="url(#fuzzy)" /><polyline points="50.04,-42.42 50.49,-41.05 50.67,-40.12 50.6,-39.64 50.35,-39.35 49.98,-39.12 49.47,-38.96 48.78,-38.92 47.89,-39.05 46.76,-39.41 45.37,-40.04 43.71,-41.01 41.75,-42.33 39.48,-44.04 36.91,-46.12 34.02,-48.54 30.83,-51.25 27.33,-54.24 23.5,-57.51 19.33,-61.1 14.81,-65.05 9.92,-69.39 4.7,-74.14 -0.77,-79.38" fill="none" stroke="rgb(220, 208, 186)" stroke-width="2" stroke-linejoin="round" filter="url(#fuzzy)" /><polyline points="4.81,-85.48 6.38,-85.07 6.94,-84.78 7.37,-84.48 7.64,-84.13 7.63,-83.74 7.3,-83.27 6.64,-82.73 5.62,-82.1 4.2,-81.39 2.37,-80.6 0.12,-79.71 -2.54,-78.72 -5.6,-77.62 -9.09,-76.41 -13.05,-75.1 -17.54,-73.69 -22.58,-72.14 -28.25,-70.36" fill="none" stroke="rgb(220, 208, 186)" stroke-width="2" stroke-linejoin="round" filter="url(#fuzzy)" /><polyline points="-39.83,-61.34 -22.76,-72.96 -14.99,-77.2 -16.65,-76.21 -22.14,-72.65 -26.74,-69.05 -27.57,-66.51 -23.49,-64.72 -15.07,-63.04 -4.48,-61.38 5.15,-60.39 11.11,-60.82 12.61,-62.9 11.37,-66.13 10.54,-69.45 12.32,-71.76 15.84,-72.36 16.89,-71.35 9.64,-70.27 -9.43,-71.97 -28,-74.91" fill="none" stroke="rgb(220, 208, 186)" stroke-width="2" stroke-linejoin="round" filter="url(#fuzzy)" /><polyline points="-40.27,-60.83 -7.47,-62.58 -2.49,-65.84 4.42,-67.3 13.01,-65.87 20.52,-62.96 26.13,-59.96 29.71,-57.77 30.84,-57.12 29.03,-58.55 24.43,-62.01 18.11,-66.72 11.73,-71.42 6.8,-75.02 4.22,-76.97 4.25,-77.37 6.72,-76.62 11.28,-75.02 17.19,-72.78 23.02,-70.39 26.66,-69.05 26.46,-69.97 23.58,-71.74 25.5,-66.87 50.8,-39.86" fill="none" stroke="rgb(220, 208, 186)" stroke-width="2" stroke-linejoin="round" filter="url(#fuzzy)" /><polyline points="37.23,-65.5 2.67,-73.86 -5.44,-75.62 -4.76,-76.45 -1.37,-76.63 4.28,-75.32 11.39,-72.71 17.82,-69.93 21.23,-68.17 19.85,-67.87 13.01,-68.8 2.15,-70.61 -8.23,-73.29 -12,-77.22 -5.98,-81.72 10.81,-84.14" fill="none" stroke="rgb(220, 208, 186)" stroke-width="2" stroke-linejoin="round" filter="url(#fuzzy)" /><polyline points="26.71,-75.77 -0.13,-71.08 -7.3,-69.64 -13.55,-69.74 -17.56,-70.63 -18.47,-71.94 -17.05,-73.58 -14.3,-75.24 -10.45,-76.38 -4.98,-76.57 2.52,-75.75 11.39,-74.16 19.69,-72.12 25.02,-69.88 25.06,-68.06 16.75,-68.46 -3.19,-73.24 -26.58,-75.83" fill="none" stroke="rgb(220, 208, 186)" stroke-width="2" stroke-linejoin="round" filter="url(#fuzzy)" /><polyline points="44.01,-55.01 5.07,-65.2 7.63,-70.73 18.69,-69.75 27.25,-66.27 31.1,-63.48 32.01,-61.78 32.45,-60.4 33.2,-59.26 32.99,-59.18 29.89,-60.62 23.26,-62.64 15.33,-63.25 12.49,-60.82 25.31,-52.97 54.57,-27.32" fill="none" stroke="rgb(220, 208, 186)" stroke-width="2" stroke-linejoin="round" filter="url(#fuzzy)" /><polyline points="39.77,-61.71 30.86,-58.55 17.42,-60.54 8.3,-62.72 4.03,-65.36 4.07,-67.44 6.83,-68.18 10.7,-67.76 14.66,-66.76 18,-65.77 19.91,-65.3 19.69,-65.79 17.18,-67.36 13.15,-69.65 9.07,-71.84 6.4,-73 5.83,-72.7 6.91,-71.22 8.27,-69.39 8.7,-67.87 8.44,-66.38 9.54,-63.81 12.71,-59.47 7.35,-54.82 -43.08,-56.4" fill="none" stroke="rgb(220, 208, 186)" stroke-width="2" stroke-linejoin="round" filter="url(#fuzzy)" /><polyline points="48.63,-45.62 39.61,-58.71 34.56,-63.06 28.51,-64.81 21.58,-64.91 14.44,-65.44 8.51,-67.51 5.42,-70.28 6.06,-72.27 9.99,-72.61 15.54,-71.51 20.49,-69.64 23.14,-67.59 23.23,-65.81 21.98,-64.88 21.01,-65.75 20.66,-69.2 18.65,-74.83 4.18,-85.24" fill="none" stroke="rgb(220, 208, 186)" stroke-width="2" stroke-linejoin="round" filter="url(#fuzzy)" /><polyline points="50.8,-39.86 5.4,-56.18 8.34,-59.52 20.09,-59.34 26.56,-61.15 26.81,-64.52 24.17,-67.41 21.5,-68.87 19.74,-69.47 18.43,-70.31 17.11,-71.85 16.19,-73.43 16.73,-73.87 19.41,-72.57 23.74,-70.1 28.08,-67.7 30.52,-66.29 30.11,-65.93 29.5,-64.82 46.83,-49.58" fill="none" stroke="rgb(220, 208, 186)" stroke-width="2" stroke-linejoin="round" filter="url(#fuzzy)" /><polyline points="52.53,-34.49 33.98,-56.85 26.13,-64.15 28.41,-62.51 31.51,-59.55 30.42,-59.07 25.25,-61.34 18.98,-64.83 14.61,-67.88 13.21,-69.58 13.69,-69.87 13.9,-69.22 12.13,-68.15 7.99,-66.99 2.29,-65.89 -3.71,-64.98 -9,-64.5 -13.24,-64.77 -16.8,-66.01 -20.34,-68.36 -22.9,-71.88 -19.5,-76.85 -2.02,-85.29" fill="none" stroke="rgb(220, 208, 186)" stroke-width="2" stroke-linejoin="round" filter="url(#fuzzy)" /><polyline points="38.78,-63.15 -7.82,-65.29 -18.78,-63.09 -10.02,-59.92 4.18,-57 14.78,-55.54 19.22,-56.01 18.88,-57.85 16.22,-60.05 13.24,-61.85 10.99,-63.04 9.61,-63.86 8.54,-64.77 6.94,-66.11 4.16,-67.88 0.02,-69.83 -4.92,-71.59 -9.51,-72.95 -12.23,-73.96 -11.58,-74.57 -6.41,-74.15 3.48,-71.43 15.29,-66.01 17.6,-62.57 -18.49,-80.95" fill="none" stroke="rgb(220, 208, 186)" stroke-width="2" stroke-linejoin="round" filter="url(#fuzzy)" /><polyline points="-23.28,-78.36 -16.95,-80.43 -9.96,-79.61 -0.19,-76.82 10.21,-74.09 17.05,-73.02 18.48,-74.06 15.4,-76.38 9.68,-78.56 2.91,-79.5 -3.31,-79.09 -6.55,-78.13 -4.58,-77.51 0.44,-76.99 -3.51,-74.02 -38.56,-63.52" fill="none" stroke="rgb(220, 208, 186)" stroke-width="2" stroke-linejoin="round" filter="url(#fuzzy)" /><polyline points="37.23,-65.5 33.85,-68.56 34.36,-66.41 33.42,-64.08 30.42,-62.79 25.57,-62.3 18.83,-62.4 10.92,-63.19 3.79,-64.73 -0.44,-66.73 -0.77,-68.71 2.21,-70.18 6.83,-70.91 11.28,-71.09 14.2,-71.23 14.81,-71.88 12.77,-73.27 8.24,-75.01 2.17,-76.15 -3.38,-75.6 -5.3,-72.9 -0.69,-69.09 9.47,-66.93 13.25,-70.13 -15.91,-82.12" fill="none" stroke="rgb(220, 208, 186)" stroke-width="2" stroke-linejoin="round" filter="url(#fuzzy)" /><polyline points="35.68,-67.08 10.5,-61.65 14.38,-60.81 17.13,-65.7 15.31,-71.8 10.73,-76.71 5.93,-79.5 2.81,-79.9 2.1,-78.13 3.56,-74.9 6.43,-71.23 9.66,-68.13 12.06,-66.24 12.86,-65.71 13.31,-65.83 17.36,-65.01 25.13,-64.15 13.47,-83.34" fill="none" stroke="rgb(220, 208, 186)" stroke-width="2" stroke-linejoin="round" filter="url(#fuzzy)" /><polyline points="-24.32,-77.34 3.07,-70.38 7.23,-64.24 0.88,-66.31 -4.38,-71.2 -5.83,-74.9 -4.99,-76.11 -3.88,-75.14 -3.51,-72.93 -3.88,-70.6 -4.74,-69.18 -6.17,-69.3 -8.25,-71.01 -10.21,-73.58 -10.12,-75.85 -5.61,-77.06 4.74,-77.08 20.06,-74.33 39.7,-61.83" fill="none" stroke="rgb(220, 208, 186)" stroke-width="2" stroke-linejoin="round" filter="url(#fuzzy)" /><polyline points="51.21,-39.02 17.94,-65.98 16.06,-70.81 18.5,-69.92 16.27,-70.71 10.3,-73.76 3.85,-77.36 -0.96,-79.97 -3.38,-80.89 -3.49,-80.03 -1.82,-77.71 0.68,-74.46 2.87,-71.05 3.83,-68.23 3.35,-66.5 2.13,-65.97 1.42,-66.43 2.33,-67.62 5.25,-69.42 9.82,-71.42 15.78,-72.08 24.05,-68.75 35.25,-60.89 40.62,-60.3" fill="none" stroke="rgb(220, 208, 186)" stroke-width="2" stroke-linejoin="round" filter="url(#fuzzy)" /><polyline points="30.44,-72.64 23.57,-57.45 8.14,-58.66 4.82,-59.86 8.64,-60.09 12.97,-60.63 14.11,-61.92 11.59,-63.53 7.51,-64.81 4.92,-65.35 5.83,-65.14 10.1,-64.56 15.68,-64.09 20.03,-64.16 21.66,-64.97 20.81,-66.5 18.96,-68.61 17.62,-71.17 17.27,-73.9 17.64,-76.17 19.19,-76.59 24.17,-73.15 34.22,-64.84 43.36,-56.2" fill="none" stroke="rgb(220, 208, 186)" stroke-width="2" stroke-linejoin="round" filter="url(#fuzzy)" /><polyline points="-6.17,-85.2 6.92,-76.45 13.86,-67.22 25.45,-56.33 34.6,-47.58 35.84,-43.56 28.23,-44.01 14.9,-46.88 1.1,-50.09 -8.71,-52.64 -13.31,-54.78 -14.95,-57.28 -16.48,-60.5 -17.61,-63.85 -13.48,-66.06 1.85,-65.38 28.05,-58.34 50.59,-40.96" fill="none" stroke="rgb(220, 208, 186)" stroke-width="2" stroke-linejoin="round" filter="url(#fuzzy)" /><polyline points="30.44,-72.64 12.46,-79.62 8.53,-78.68 10.9,-75.05 14.33,-72.42 15.94,-71.86 15.75,-72.67 15.08,-73.7 15.05,-74.27 16.02,-74.31 17.59,-74.12 19.2,-73.86 20.6,-73.33 21.9,-72.06 23.08,-69.68 23.8,-66.06 24.26,-61.12 26.66,-54.66 34.29,-47.44 45.25,-43.38 48.34,-46.57" fill="none" stroke="rgb(220, 208, 186)" stroke-width="2" stroke-linejoin="round" filter="url(#fuzzy)" /><polyline points="51.59,-37.98 41.99,-46.24 22.92,-59.57 6.81,-68.44 -3.74,-72.5 -9.41,-73.48 -11.04,-73.14 -9.48,-72.47 -5.88,-71.57 -1.96,-70.13 0.02,-68.17 -1.96,-66.6 -8.06,-66.72 -14.92,-69.01 -16.05,-72.82 -5.1,-78.04 17.13,-81.67" fill="none" stroke="rgb(220, 208, 186)" stroke-width="2" stroke-linejoin="round" filter="url(#fuzzy)" /><polyline points="51.59,-37.98 42.55,-53.92 33.14,-63.6 22.75,-71.47 14.34,-75.77 9.04,-75.73 6.59,-72.6 6.26,-68.84 7.31,-66.54 9.4,-66.21 12.51,-67.04 16.17,-68.21 18.96,-69.83 19.99,-72.14 21.32,-73.29 28.01,-67.94 48.63,-45.62" fill="none" stroke="rgb(220, 208, 186)" stroke-width="2" stroke-linejoin="round" filter="url(#fuzzy)" /><polyline points="-25.52,-76.41 -26.95,-69.9 -20.93,-70.36 -13.36,-68.75 -3.39,-66.93 6.22,-67.11 12.43,-69.43 14.38,-72.7 13.35,-75.58 11.37,-77.16 10.05,-77.08 9.91,-75.4 10.44,-72.58 10.63,-69.35 9.71,-66.61 7.7,-65.15 5.54,-65.27 4.66,-66.48 6.13,-67.75 9.52,-68.39 12.45,-69.14 12.16,-72 8.67,-77.77 -4.5,-85.43" fill="none" stroke="rgb(220, 208, 186)" stroke-width="2" stroke-linejoin="round" filter="url(#fuzzy)" /><polyline points="-34.37,-68.34 10.1,-63.46 16.73,-64.57 10.46,-65.12 4.16,-65.98 2.42,-67.11 3.96,-67.81 6.43,-67.55 9.18,-66.2 12.85,-63.98 17.84,-61.47 23.39,-59.39 27.76,-58.25 28.76,-58.03 24.04,-58.33 11.96,-59.11 -5.51,-61.39 -16.18,-67.35 8.43,-84.41" fill="none" stroke="rgb(220, 208, 186)" stroke-width="2" stroke-linejoin="round" filter="url(#fuzzy)" /><polyline points="21.78,-79.18 28.86,-64.11 15.61,-65.38 4.66,-64.3 1.77,-61.21 3.88,-59.35 6.73,-59.9 8.21,-61.98 8.62,-64.09 9.18,-65.12 10.43,-64.94 11.68,-64.24 11.78,-64.03 10.36,-65.01 8.16,-67.15 6.33,-69.86 5.56,-72.3 5.95,-73.65 7.02,-73.62 6.39,-73.42 0.3,-76.73 2.76,-85.69" fill="none" stroke="rgb(220, 208, 186)" stroke-width="2" stroke-linejoin="round" filter="url(#fuzzy)" /><polyline points="25.28,-76.59 12.2,-80.21 16.43,-76.44 22.26,-70.91 23.57,-67.2 19.52,-66.61 11.89,-68.46 3.26,-71.19 -4.2,-73.63 -9.23,-75.54 -11.41,-77.15 -10.96,-78.32 -8.57,-77.96 -5.05,-74.24 -1.11,-65.93 -2.02,-55.67 -43.08,-56.4" fill="none" stroke="rgb(220, 208, 186)" stroke-width="2" stroke-linejoin="round" filter="url(#fuzzy)" /><polyline points="29.65,-73.2 41.81,-51.18 34.76,-51.36 17.71,-57.16 0.13,-62.52 -12.36,-66.17 -18.2,-68.83 -18.46,-71.47 -15.2,-74.26 -10.19,-76.49 -4.01,-77.2 3.57,-75.95 12.38,-73.33 20.75,-70.99 25.79,-70.76 25.15,-73.08 17.12,-76.95 -6.4,-85.18" fill="none" stroke="rgb(220, 208, 186)" stroke-width="2" stroke-linejoin="round" filter="url(#fuzzy)" /><polyline points="-39.83,-61.34 3.29,-61.07 12.59,-67.89 16.69,-71.78 17.75,-73.76 15.16,-75.37 10.24,-76.93 5.3,-78.25 2.02,-79.19 0.67,-79.7 0.44,-79.74 0.34,-79.07 0.14,-77.41 0.56,-74.8 2.27,-72.16 4.14,-71.47 2.41,-74.42 -3.94,-79.91 2.76,-85.69" fill="none" stroke="rgb(220, 208, 186)" stroke-width="2" stroke-linejoin="round" filter="url(#fuzzy)" /><polyline points="1.08,-85.76 12.63,-59.27 3.7,-59.67 -0.96,-66.91 -1.03,-73.53 0.95,-77.78 2.98,-80.02 4.41,-80.92 5.77,-80.88 7.83,-79.93 10.53,-78.12 12.79,-75.76 13.11,-73.48 10.6,-71.8 5.78,-70.6 0.37,-68.96 -3.67,-65.83 -5.4,-61.38 -5.49,-58.32 -4.43,-60.87 4.02,-68.91 35.68,-67.08" fill="none" stroke="rgb(220, 208, 186)" stroke-width="2" stroke-linejoin="round" filter="url(#fuzzy)" /><polyline points="-45.02,-53.2 4.52,-59.69 12.73,-69.93 10.72,-74.81 5.35,-74.52 -1.96,-71.87 -8.8,-69.4 -12.75,-68.19 -13.43,-68.03 -12.46,-68.44 -11.87,-69.46 -12.64,-71.49 -14.57,-74.31 -17.56,-76.4 -22.38,-75.9 -28.22,-73.4 -28,-74.91" fill="none" stroke="rgb(220, 208, 186)" stroke-width="2" stroke-linejoin="round" filter="url(#fuzzy)" /><polyline points="-43.54,-55.98 -20.14,-64.98 -1.26,-70.89 3.05,-75.43 -1.72,-77.52 -9.97,-76.92 -18.2,-74.39 -24.02,-71.22 -25.53,-68.58 -21.34,-66.94 -11.2,-65.9 3.37,-64.39 18.97,-61.68 31.28,-58.56 36.75,-57.97 34.03,-63.3 24.5,-74.15 10.81,-84.14" fill="none" stroke="rgb(220, 208, 186)" stroke-width="2" stroke-linejoin="round" filter="url(#fuzzy)" /><polyline points="48.63,-45.62 15.75,-55.76 17.29,-58.46 15.24,-59.63 6.46,-60.11 -2.55,-61.09 -6.42,-63.22 -4.25,-66.17 1.55,-69.11 7.75,-71.21 11.97,-72.04 13.26,-71.54 12.04,-69.92 9.95,-67.41 9.35,-64.32 12.26,-61.24 18.72,-59.21 26.24,-59.37 31.3,-61.88 32.16,-65.31 27.36,-69.58 5.91,-85.05" fill="none" stroke="rgb(220, 208, 186)" stroke-width="2" stroke-linejoin="round" filter="url(#fuzzy)" /><polyline points="-43.1,-56.39 6.84,-60.34 13.81,-67.57 7.5,-71.19 -0.72,-71.84 -8.13,-71.14 -14.04,-70.18 -17.63,-69.61 -18.24,-69.68 -15.79,-70.16 -10.61,-70.43 -3.2,-69.84 5.68,-68.16 14.58,-65.79 21.2,-63.61 23.03,-62.5 18.41,-62.71 7.91,-63.93 -4.49,-65.67 -10.47,-66.87 2.43,-62.78 50.59,-40.96" fill="none" stroke="rgb(220, 208, 186)" stroke-width="2" stroke-linejoin="round" filter="url(#fuzzy)" /><polyline points="4.32,-85.23 3.1,-85.39 3.99,-84.63 6.96,-82.1 11.61,-78.06 15.73,-74.36 17.31,-72.78 16.04,-73.69 13.01,-76.08 9.63,-78.53 6.85,-80.08 5.3,-80.45 5.9,-79.69 9.98,-77.69 18.19,-74.18 28.6,-69.13 37.4,-62.49 46.83,-49.58" fill="none" stroke="rgb(220, 208, 186)" stroke-width="2" stroke-linejoin="round" filter="url(#fuzzy)" /><polyline points="46.83,-49.58 14.99,-65.42 11.23,-72.03 7.41,-74.88 1.98,-74.5 -1.72,-72.08 -2.05,-69.34 0.44,-67.48 3.95,-66.86 6.5,-67.33 6.63,-68.55 4,-70.1 -0.42,-71.48 -4.79,-72.16 -7.27,-71.74 -6.99,-70.12 -4.47,-67.63 -1.46,-64.96 -0.13,-63 -1.76,-62.53 -5.73,-63.66 -9.13,-65.18 -7.96,-64.1 3.11,-56.58 50.04,-42.42" fill="none" stroke="rgb(220, 208, 186)" stroke-width="2" stroke-linejoin="round" filter="url(#fuzzy)" /><polyline points="-16.53,-81.7 7.72,-67.44 3.24,-69.78 -0.45,-72.89 -2.57,-74.24 -5.13,-74.56 -7.06,-74.59 -6.47,-74.24 -3.13,-73.04 1.41,-71.06 5.27,-69.21 7.45,-68.67 7.88,-69.73 6.34,-71.49 1.42,-72.76 -7.93,-73.36 -16.45,-75.06 -3.02,-85.6" fill="none" stroke="rgb(220, 208, 186)" stroke-width="2" stroke-linejoin="round" filter="url(#fuzzy)" /><polyline points="9.65,-84.41 13.02,-82.95 12.65,-81.23 13.93,-76.75 19.27,-70 26.27,-63.74 31.63,-60.16 33.71,-59.52 32.57,-60.72 28.82,-62.58 23.02,-64.6 15.73,-66.95 7.83,-69.89 0.15,-73.1 -7.05,-75.61 -14.12,-76.23 -21.48,-74.34 -29.57,-70.2 -34.92,-67.84" fill="none" stroke="rgb(220, 208, 186)" stroke-width="2" stroke-linejoin="round" filter="url(#fuzzy)" /><polyline points="40.74,-60.29 19.55,-66.64 7.49,-69.47 7.7,-70.84 10.49,-70.96 11.33,-70.61 10.68,-70.34 10.43,-70.22 11.61,-70.1 13.78,-70 15.46,-70.21 15.11,-71 11.93,-72.29 6.15,-73.62 -1.11,-74.39 -8.24,-74.24 -13.57,-73.3 -15.9,-71.99 -15.04,-70.79 -12.02,-69.98 -8.45,-69.65 -5.04,-69.67 0.66,-69.02 16.31,-63.59 51.21,-39.02" fill="none" stroke="rgb(220, 208, 186)" stroke-width="2" stroke-linejoin="round" filter="url(#fuzzy)" /><polyline points="-30.29,-72.63 8.73,-64.69 12.87,-61.63 4.17,-65.55 -5.54,-70.13 -12.35,-72.45 -14.83,-72.65 -12.76,-71.68 -7.34,-70.06 -0.77,-67.98 4.88,-65.69 8.63,-63.65 10.89,-62.34 12.78,-61.93 15.32,-62.04 18.76,-61.99 22.36,-61.36 24.27,-60.69 21.59,-61.43 11.56,-64.85 -4.79,-70.27 -17.53,-75.68 -7.77,-84.91" fill="none" stroke="rgb(220, 208, 186)" stroke-width="2" stroke-linejoin="round" filter="url(#fuzzy)" /><polyline points="41.02,-59.93 42.68,-56.46 42.17,-55.08 35.76,-58.37 24.46,-63.48 11.89,-68 1.79,-70.98 -3.87,-72.36 -5.29,-72.39 -4.13,-71.48 -2.32,-70.24 -1.14,-69.38 -0.92,-69.42 -1.1,-70.29 -0.79,-71.31 0.7,-71.52 3.35,-70.32 6.21,-68.02 7.67,-65.88 6.48,-65.31 3.37,-66.73 1.84,-68.71 4.38,-68.32 1.2,-63.22 -43.54,-55.98" fill="none" stroke="rgb(220, 208, 186)" stroke-width="2" stroke-linejoin="round" filter="url(#fuzzy)" /><polyline points="13.47,-83.34 4.69,-75.85 3.25,-66.9 7.51,-61.46 9.89,-59.7 9.69,-60.68 8.71,-63.33 7.95,-66.81 7.46,-70.47 7.16,-73.64 7.33,-75.75 8.41,-76.58 10.44,-76.44 12.7,-76 13.96,-76.01 13.31,-76.81 10.77,-78.2 7.51,-79.56 5.03,-80.17 4.05,-79.49 3.73,-77.29 2.91,-73.74 3.87,-69.38 16.6,-63.28 49.7,-42.85" fill="none" stroke="rgb(220, 208, 186)" stroke-width="2" stroke-linejoin="round" filter="url(#fuzzy)" /><polyline points="-20.8,-79.73 -10.59,-79.9 3.06,-75.01 13.66,-71.71 18.67,-70.79 19.7,-70.65 18.54,-70.68 16.22,-71.23 13.44,-72.48 10.77,-73.95 8.66,-74.82 7.62,-74.28 8.22,-71.93 10.91,-67.91 15.54,-62.96 21.06,-58.18 26.01,-54.52 29.57,-52.24 32.15,-50.94 34.69,-50.54 36.22,-52.64 32.53,-59.89 18.33,-72.21 -10.43,-83.95" fill="none" stroke="rgb(220, 208, 186)" stroke-width="2" stroke-linejoin="round" filter="url(#fuzzy)" />
    </g>
    
        <g id="lineNose">
        <path d="M -6.57,12.86 Q 6.54, 24.81 -0.015000000000000124, -4.674" fill="none" stroke="black" stroke-width="3" stroke-linejoin="round" filter="url(#fuzzy)"></path>
        </g>
      
    <g id="mouth">
      <polyline points="-8.35,47.21 -8.24,46.96 -8.13,46.7 -8.02,46.43 -7.9,46.16 -7.79,45.88 -7.67,45.59 -7.55,45.3 -7.43,45 -7.31,44.7 -7.19,44.39 -7.07,44.08 -6.94,43.76 -6.82,43.44 -6.69,43.12 -6.56,42.79 -6.43,42.46 -6.3,42.13 -6.16,41.8 -6.03,41.47 -5.89,41.13 -5.76,40.8 -5.62,40.46 -5.48,40.13 -5.34,39.8 -5.19,39.46 -5.05,39.14 -4.91,38.81 -4.76,38.48 -4.61,38.16 -4.47,37.84 -4.32,37.53 -4.17,37.22 -4.02,36.91 -3.86,36.61 -3.71,36.31 -3.55,36.02 -3.4,35.74 -3.24,35.46 -3.08,35.19 -2.93,34.93 -2.77,34.67 -2.61,34.43 -2.44,34.19 -2.28,33.96 -2.12,33.74 -1.95,33.53 -1.79,33.33 -1.62,33.14 -1.45,32.96 -1.29,32.79 -1.12,32.64 -0.95,32.5 -0.78,32.37 -0.6,32.25 -0.43,32.15 -0.26,32.06 -0.09,31.98 0.09,31.92 0.26,31.88 0.44,31.85 0.62,31.84 0.8,31.84 0.97,31.86 1.15,31.9 1.33,31.95 1.51,32.02 1.69,32.11 1.87,32.22 2.06,32.35 2.24,32.5 2.42,32.67 2.61,32.86 2.79,33.07 2.98,33.3 3.16,33.55 3.35,33.83 3.53,34.12 3.72,34.44 3.91,34.79 4.1,35.15 4.28,35.55 4.47,35.96 4.66,36.4 4.85,36.87 5.04,37.36 5.23,37.88 5.42,38.42 5.61,38.99 5.8,39.59 6,40.22 6.19,40.87 6.38,41.55 6.57,42.26 6.77,43.01 6.96,43.78 7.15,44.58 7.34,45.41 7.54,46.27 7.73,47.17 7.73,47.17 7.57,46.74 7.41,46.32 7.25,45.92 7.09,45.54 6.93,45.17 6.77,44.82 6.61,44.47 6.45,44.15 6.29,43.83 6.12,43.53 5.96,43.24 5.8,42.97 5.64,42.71 5.48,42.46 5.32,42.23 5.16,42 5,41.79 4.84,41.59 4.68,41.41 4.52,41.23 4.36,41.06 4.19,40.91 4.03,40.77 3.87,40.64 3.71,40.52 3.55,40.41 3.39,40.31 3.23,40.21 3.07,40.13 2.91,40.06 2.75,40 2.59,39.95 2.43,39.91 2.27,39.87 2.1,39.84 1.94,39.83 1.78,39.82 1.62,39.82 1.46,39.82 1.3,39.84 1.14,39.86 0.98,39.89 0.82,39.92 0.66,39.97 0.5,40.02 0.34,40.07 0.18,40.14 0.01,40.2 -0.15,40.28 -0.31,40.36 -0.47,40.44 -0.63,40.54 -0.79,40.63 -0.95,40.73 -1.11,40.84 -1.27,40.95 -1.43,41.06 -1.59,41.18 -1.75,41.31 -1.91,41.43 -2.08,41.56 -2.24,41.69 -2.4,41.83 -2.56,41.97 -2.72,42.11 -2.88,42.26 -3.04,42.41 -3.2,42.55 -3.36,42.71 -3.52,42.86 -3.68,43.01 -3.84,43.17 -4,43.33 -4.17,43.49 -4.33,43.65 -4.49,43.81 -4.65,43.97 -4.81,44.13 -4.97,44.29 -5.13,44.45 -5.29,44.61 -5.45,44.77 -5.61,44.93 -5.77,45.08 -5.93,45.24 -6.1,45.4 -6.26,45.55 -6.42,45.7 -6.58,45.85 -6.74,46 -6.9,46.15 -7.06,46.29 -7.22,46.43 -7.38,46.57 -7.54,46.71 -7.7,46.84 -7.86,46.97 -8.02,47.09 -8.19,47.21" fill="rgb(215,127,140)" stroke="black" stroke-width="3" stroke-linejoin="round" filter="url(#fuzzy)" />
    </g>
  </svg>
  