<svg xmlns="http://www.w3.org/2000/svg" width="500" height="500" viewBox="-100 -100 200 200"><defs><clipPath id="c"><path d="m19.66.87-.05-.15-.08-.15L19.4.4l-.15-.16-.19-.18-.22-.17-.25-.18-.28-.18L18-.65l-.33-.18-.35-.19-.38-.18-.4-.18-.42-.18-.43-.18-.53-.24-.54-.24-.57-.24-.58-.22-.6-.22-.62-.22-.62-.2-.64-.2-.66-.18-.66-.18L9-4.04l-.67-.15-.69-.14-.69-.13-.69-.12-.69-.1-.7-.09-.7-.08-.7-.06-.7-.05L2.08-5l-.69-.02-.69-.01H.02l-.68.01-.67.03-.67.04-.65.05-.65.06-.64.08-.63.08-.61.1-.61.11-.59.11-.59.13-.57.13-.55.14-.55.15-.52.15-.52.16-.5.17-.49.17-.47.17-.45.18-.45.19-.42.18-.41.19-.4.18-.38.19-.37.19-.35.19-.34.19-.33.19-.31.19-.3.2-.29.19-.27.19-.26.19-.24.2-.24.19-.22.19-.2.19-.19.19-.18.19.04 3.13.33.08.33.08.35.07.35.08.37.07.37.07.38.07.39.06.39.06.41.06.41.06.42.05.43.05.43.05.44.04.45.05.46.04.47.03.48.04.48.03.5.02.5.03.5.01.52.02.51.01h1.59l.54-.01.54-.01.55-.02.54-.02.56-.03.55-.03.56-.04.56-.03.57-.05.56-.04.57-.05.57-.06.58-.05.57-.06.58-.06.58-.06.58-.07.58-.06.58-.07.58-.07.59-.06.59-.07.59-.07.58-.07.59-.07.59-.06.59-.07.59-.06.59-.06.58-.07.59-.06.58-.05.58-.06.57-.05.57-.06.56-.05.43-.07.41-.09.41-.08.38-.09.38-.09.36-.09.34-.1.32-.1.3-.11.27-.11.26-.12.22-.13.2-.13.17-.14.14-.15"/></clipPath><clipPath id="b"><path d="m-20.53.32.2-.13.24-.13.28-.14.31-.14.33-.14.36-.15.39-.14.41-.15.44-.14.45-.15.47-.14.49-.14.51-.14.51-.13.53-.13.68-.2.68-.2.7-.18.7-.18.7-.17.71-.15.71-.15.71-.13.71-.12.7-.11.71-.1.7-.09.7-.07.69-.06.69-.05.68-.04.67-.02.67-.02h.65l.65.01.64.02.63.03.61.04.61.05.6.05.58.07.57.08.56.08.55.09.54.1.52.11.51.11.49.12.49.12.46.13.46.13.44.14.43.13.41.15.4.14.38.14.37.15.36.15.34.15.33.15.31.15.3.15.29.15.27.15.25.14.25.15.23.15.21.14.21.15.19.14.18.14.17.15.15.14.14.14.13.14.11.13.11.14.08.13.08.14-.65 2.05-.37.05-.37.05-.38.04-.39.04-.39.05-.4.04-.4.03-.41.04-.42.03-.41.03-.42.03-.43.03-.42.02-.43.03-.43.02-.44.01-.44.02-.45.01-.45.01h-.45l-.46.01-.45-.01h-.46l-.45-.01-.46-.01-.45-.02-.45-.02-.45-.02-.45-.03-.45-.03L1.22 4l-.44-.04-.44-.04-.44-.04-.44-.05-.44-.05-.43-.06-.44-.06-.44-.05-.43-.07-.44-.06-.45-.06-.44-.07-.45-.06-.45-.07-.46-.06-.47-.07-.47-.06-.48-.06-.48-.06-.5-.06-.51-.06-.52-.05-.52-.05-.54-.05-.55-.05-.57-.04-.57-.03-.59-.04-.6-.02-.61-.03-.62-.02-.62-.01-.64-.01-.44-.05-.44-.04-.42-.05-.43-.04-.41-.05-.4-.05-.4-.05-.38-.05-.36-.05-.35-.06-.33-.06-.31-.06-.28-.07-.26-.07-.23-.08"/></clipPath><filter id="a"><feTurbulence baseFrequency=".05" numOctaves="3" result="noise" type="noise"/><feDisplacementMap in="SourceGraphic" in2="noise" scale="2"/></filter></defs><rect width="100%" height="100%" x="-100" y="-100" fill="#556B2F"/><path fill="#F0F" stroke="#000" stroke-linejoin="round" stroke-width="1.667" d="m57.07-.88-.18 3.51-.08.41.02.76-.13 2.93.08 1.43-.05 1.54-.05.2-.12-.31-.09 3.15-.23.43-.14 1.56-.48 3.46.03.04.14.31-.4 2.29-.57 2.59-.04 1.07-.22 1.69.21-1.3-.48 2.39-.15.25-.58 2.47v.2l-.5 1.91-.53 1.8-.33 1.47-.58 1.82-.03.76-.76 1.98-.15.6-.21.36-.09.7-1.41 3.6-.62 1.54.15-.34-.34.65-1.08 3.18.45-1.17-.67 1.43-.92 1.95-.48 1.1-.88 1.65.27-.35-.63.83L44 56l-1.29 2.52-.54 1.03.17-.69-1.18 2.28-.89 1.57-.16.29-1.05 1.73-.9 1.04-.17.21-1.35 1.51-.43.71-.77 1.21-1.04 1.2.35-.41-.5.41-1.82 2.22-.52.75-.38.44-.74.83-1.31.94-1.11 1.03-.14.41-.57.13-.53.63-1.27 1.19-1.83 1.15 1.36-1.02-2.58 1.99h-.13l-1.1.79-.45.03L19 83.44l.46-.25-1.19.7-.76.51-.65.28-.34.24-1.46.62-.91.51-.33-.15-.59.24-1.35.72-1.14.2-.14-.16-1.77.85-.03-.18-2.21.53.5-.32-1.76.59-.04-.19-2.52.32-.01.18-.26.04-2.54.06-.82-.08.64.12-1.49-.02-2.02-.4-.2-.16-.74.21.1-.18-.6-.18-2.39-.13-1.09-.56-.46.23-.56-.03-1.42-.42-.02-.42-1.69-.54-.26.07-1.21-.25-.94-.65-1.48-.5 1.07.55-.85-.82-2.14-.77-.11-.12-1.26-.67-1.54-.89-.16-.22-1.43-1.15.47.53-1.53-.86-1.23-1.07-.46-.32-.21-.19-.43-.6-.9-.46-1.47-1.28-.56-.88-.88-.37-1.86-1.91 1.12.81-2.01-2.1-1.51-1.46.44.46-1.61-2.12-.26-.23-.72-.79.21-.22-1.95-2.33-.21-.43-.17-.13-.2-.36-1.07-1.5-1.34-2.04-.23-.48-.94-1.62-.41-.55.12.41-1.67-3.09.71.93-.6-.99-.98-1.91-.47-1.2-.44-.5-1.04-2.49-.77-2.48-.47-.84-.01.3-.46-1.51-.89-2.14-.1-.46-.27-.82-.64-1.82.41.72-.42-.93-.39-1.32-1.29-3.93.06-.07-.29-1.36-.1-.85-.38-.5-.22-1.31-.69-2.71-.2-1.99-.27-1.52-.66-2.53-.09-1.53-.07.31.08.29-.21-1.41-.14-2.45-.57-3.66.14 1.42-.12-1.7.05-.88-.42-2.09.13-1.85-.12-.16-.21-2.24-.02-1.39-.02-.4.02-.71.02-3.79.02-2.56-.15 1.49.27-3.31-.16-.59.26-2.11-.15-.15.28-2.11.15-1.85.08.42.04-2.21.05.8.25-3.62.14-1.34-.02.32.45-1.75.53-3.89.08-.33.2-1.88.27-.8.52-2.25-.33 1.19.77-3.52.4-1.62.14-.17.34-.98.46-2.7-.29.95.87-2.51-.24.3 1.09-2.79.29-1.1.4-.72.62-2.26.21-.26.75-2.4.09-.11 1.12-2.65.45-.87.03-.02-.06.2 1.66-3.26-.01-.69.82-1 .47-.94-.38.12 1.69-2.54.36-.72 1.13-1.96-.04-.3.55-.41-.08.07 2.69-3.71-.17.12.29-.58.53-.85.7-.54 1.23-1.85.04.24.52-1.08.93-1.07 1.56-1.59.23-.27.64-.7.85-.62.61-.71.08-.09 1.85-1.74 1.27-.84-.32-.1 1.98-1.59-.1.25 1.58-1.17-.05.13 1.33-.83.51-.37 1.82-1.27-.54.46 2.1-1.08-.78.41 1.86-1.06.48-.63 1.41-.31.41-.14.85-.44.98-.26.56-.5 1.44-.46.41-.02 1.7-.46-.84.28 2.1-.69-.51.36 1.38-.54 1.95-.26 1.2.07.53-.23.31.09.96-.33 1.21.14 1.48-.2-.48.32 1.91-.01 1.18.16 1.04-.13.78.19 1.2.06.46.4.52.05.67-.06 1.32.31 1.11.44.18.18.23-.29 1.56.76 1.66.72.53-.06-.66-.33 1.03.5 2.47 1.33.31.26 1.13.29 1.79 1.01-1.4-.48 3.06 1.81.29.23-.01.02 1.03.54.13-.13 1.74 1.54.39.43.51.26 1.56 1.42.38.3-.18-.28.34.51L30-75.56l.65 1.02.03.03 1.45 1.37.96 1.09.98 1.14.24.04 1.15 1.44 1.2 1.72 1.03 1.04.23.69.05.06 1.89 2.55-.78-1.24 1.22 1.74 1.48 2.42.1.34.16.37.94 1.87.46.5.61 1.24.95 1.62.01.33.46.88.31.67 1.15 2.6.22.65-.23-.86 1.58 3.55.87 2.27-.63-1.44.5 1.58.76 2.08.34.2.78 2.88.71 2.1-.23-.75-.31-1.07.93 3.76.29.75.17.32.44 2.16.93 3.84-.29-.99.21 1.05.33.67.46 2.76.47 2.8-.07-.13.14.83.47 2.76-.23-.64.11 1.08.4 2.96.13 1.43.2 1.53.18 1.8.09 1.8.01-2.39.1 2.89.12.84-.08 3.11.23 2.18-.23-.61.27 1.4-.18 3.51" filter="url(#a)"/><path fill="#fff" d="m-20.53.32.2-.13.24-.13.28-.14.31-.14.33-.14.36-.15.39-.14.41-.15.44-.14.45-.15.47-.14.49-.14.51-.14.51-.13.53-.13.68-.2.68-.2.7-.18.7-.18.7-.17.71-.15.71-.15.71-.13.71-.12.7-.11.71-.1.7-.09.7-.07.69-.06.69-.05.68-.04.67-.02.67-.02h.65l.65.01.64.02.63.03.61.04.61.05.6.05.58.07.57.08.56.08.55.09.54.1.52.11.51.11.49.12.49.12.46.13.46.13.44.14.43.13.41.15.4.14.38.14.37.15.36.15.34.15.33.15.31.15.3.15.29.15.27.15.25.14.25.15.23.15.21.14.21.15.19.14.18.14.17.15.15.14.14.14.13.14.11.13.11.14.08.13.08.14-.65 2.05-.37.05-.37.05-.38.04-.39.04-.39.05-.4.04-.4.03-.41.04-.42.03-.41.03-.42.03-.43.03-.42.02-.43.03-.43.02-.44.01-.44.02-.45.01-.45.01h-.45l-.46.01-.45-.01h-.46l-.45-.01-.46-.01-.45-.02-.45-.02-.45-.02-.45-.03-.45-.03L1.22 4l-.44-.04-.44-.04-.44-.04-.44-.05-.44-.05-.43-.06-.44-.06-.44-.05-.43-.07-.44-.06-.45-.06-.44-.07-.45-.06-.45-.07-.46-.06-.47-.07-.47-.06-.48-.06-.48-.06-.5-.06-.51-.06-.52-.05-.52-.05-.54-.05-.55-.05-.57-.04-.57-.03-.59-.04-.6-.02-.61-.03-.62-.02-.62-.01-.64-.01-.44-.05-.44-.04-.42-.05-.43-.04-.41-.05-.4-.05-.4-.05-.38-.05-.36-.05-.35-.06-.33-.06-.31-.06-.28-.07-.26-.07-.23-.08" filter="url(#a)" transform="translate(29.97 -21.86)"/><path fill="#fff" d="m19.66.87-.05-.15-.08-.15L19.4.4l-.15-.16-.19-.18-.22-.17-.25-.18-.28-.18L18-.65l-.33-.18-.35-.19-.38-.18-.4-.18-.42-.18-.43-.18-.53-.24-.54-.24-.57-.24-.58-.22-.6-.22-.62-.22-.62-.2-.64-.2-.66-.18-.66-.18L9-4.04l-.67-.15-.69-.14-.69-.13-.69-.12-.69-.1-.7-.09-.7-.08-.7-.06-.7-.05L2.08-5l-.69-.02-.69-.01H.02l-.68.01-.67.03-.67.04-.65.05-.65.06-.64.08-.63.08-.61.1-.61.11-.59.11-.59.13-.57.13-.55.14-.55.15-.52.15-.52.16-.5.17-.49.17-.47.17-.45.18-.45.19-.42.18-.41.19-.4.18-.38.19-.37.19-.35.19-.34.19-.33.19-.31.19-.3.2-.29.19-.27.19-.26.19-.24.2-.24.19-.22.19-.2.19-.19.19-.18.19.04 3.13.33.08.33.08.35.07.35.08.37.07.37.07.38.07.39.06.39.06.41.06.41.06.42.05.43.05.43.05.44.04.45.05.46.04.47.03.48.04.48.03.5.02.5.03.5.01.52.02.51.01h1.59l.54-.01.54-.01.55-.02.54-.02.56-.03.55-.03.56-.04.56-.03.57-.05.56-.04.57-.05.57-.06.58-.05.57-.06.58-.06.58-.06.58-.07.58-.06.58-.07.58-.07.59-.06.59-.07.59-.07.58-.07.59-.07.59-.06.59-.07.59-.06.59-.06.58-.07.59-.06.58-.05.58-.06.57-.05.57-.06.56-.05.43-.07.41-.09.41-.08.38-.09.38-.09.36-.09.34-.1.32-.1.3-.11.27-.11.26-.12.22-.13.2-.13.17-.14.14-.15" filter="url(#a)" transform="translate(-33.49 -23.96)"/><g fill="none" stroke="#000" transform="translate(29.97 -21.86)"><path stroke-linejoin="round" stroke-width="1.667" d="m-20.05 1.12-.3-.02-.23-.04-.18-.06-.11-.06-.07-.08-.01-.09.04-.1.08-.11.13-.12.17-.12.2-.13.24-.13.28-.14.31-.14.33-.14.36-.15.39-.14.41-.15.44-.14.45-.15.47-.14.49-.14.51-.14.51-.13.53-.13.68-.2.68-.2.7-.18.7-.18.7-.17.71-.15.71-.15.71-.13.71-.12.7-.11.71-.1.7-.09.7-.07.69-.06.69-.05.68-.04.67-.02.67-.02h.65l.65.01.64.02.63.03.61.04.61.05.6.05.58.07.57.08.56.08.55.09.54.1.52.11.51.11.49.12.49.12.46.13.46.13.44.14.43.13.41.15.4.14.38.14.37.15.36.15.34.15.33.15.31.15.3.15.29.15.27.15.25.14.25.15.23.15.21.14.21.15.19.14.18.14.17.15.15.14.14.14.13.14.11.13.11.14.08.13.08.14.06.13.05.13.04.12.03.13.01.12v.13l-.01.12-.02.12-.03.11-.05.12" filter="url(#a)"/><path stroke-linejoin="round" stroke-width="2.222" d="m-20.75.36-.23.17-.17.15-.12.15-.05.13-.01.12.04.11.09.11.13.09.16.09.2.08.23.08.26.07.28.07.31.06.33.06.35.06.36.05.38.05.4.05.4.05.41.05.43.04.42.05.44.04.44.05.64.01.62.01.62.02.61.03.6.02.59.04.57.03.57.04.55.05.54.05.52.05.52.05.51.06.5.06.48.06.48.06.47.06.47.07.46.06.45.07.45.06.44.07.45.06.44.06.43.07.44.05.44.06.43.06.44.05.44.05.44.04.44.04.44.04.44.04.45.03.45.03.45.02.45.02.45.02.46.01.45.01h.46l.45.01.46-.01h.45l.45-.01.45-.01.44-.02.44-.01.43-.02.43-.03.42-.02.43-.03.42-.03.41-.03.42-.03.41-.04.4-.03.4-.04.39-.05.39-.04.38-.04.37-.05.37-.05.36-.05.35-.05.34-.05.34-.05.33-.05.32-.06.31-.05.3-.06.29-.05.29-.06" filter="url(#a)"/><circle cx="-9.006" cy="3.141" r="3.854" clip-path="url(#b)" filter="url(#a)"/><circle cx="-10.826" cy="-.564" r="4.864" clip-path="url(#b)" filter="url(#a)"/><circle cx="-11.006" cy="-.494" r="3.14" clip-path="url(#b)" filter="url(#a)"/><circle cx="-11.841" cy="2.071" r="4.742" clip-path="url(#b)" filter="url(#a)"/><circle cx="-11.781" cy="-.119" r="4.366" clip-path="url(#b)" filter="url(#a)"/><circle cx="-8.816" cy="-.954" r="4.654" clip-path="url(#b)" filter="url(#a)"/><circle cx="-9.386" cy="3.666" r="4.692" clip-path="url(#b)" filter="url(#a)"/><circle cx="-12.491" cy=".286" r="3.958" clip-path="url(#b)" filter="url(#a)"/><circle cx="-9.821" cy="1.701" r="3.842" clip-path="url(#b)" filter="url(#a)"/><circle cx="-12.716" cy="2.656" r="3.736" clip-path="url(#b)" filter="url(#a)"/></g><g fill="none" stroke="#000" transform="translate(-33.49 -23.96)"><path stroke-linejoin="round" stroke-width="2.222" d="m17.57 1.8.45-.03.39-.05.33-.06.28-.08.23-.09.17-.1.13-.12.08-.12.03-.13V.87l-.05-.15-.08-.15L19.4.4l-.15-.16-.19-.18-.22-.17-.25-.18-.28-.18L18-.65l-.33-.18-.35-.19-.38-.18-.4-.18-.42-.18-.43-.18-.53-.24-.54-.24-.57-.24-.58-.22-.6-.22-.62-.22-.62-.2-.64-.2-.66-.18-.66-.18L9-4.04l-.67-.15-.69-.14-.69-.13-.69-.12-.69-.1-.7-.09-.7-.08-.7-.06-.7-.05L2.08-5l-.69-.02-.69-.01H.02l-.68.01-.67.03-.67.04-.65.05-.65.06-.64.08-.63.08-.61.1-.61.11-.59.11-.59.13-.57.13-.55.14-.55.15-.52.15-.52.16-.5.17-.49.17-.47.17-.45.18-.45.19-.42.18-.41.19-.4.18-.38.19-.37.19-.35.19-.34.19-.33.19-.31.19-.3.2-.29.19-.27.19-.26.19-.24.2-.24.19-.22.19-.2.19-.19.19-.18.19-.17.18-.15.19-.14.18-.13.18-.12.18-.1.17-.09.18-.08.17-.07.17-.06.16" filter="url(#a)"/><path stroke-linejoin="round" stroke-width="2.222" d="m18.88-.28.31.28.26.27.21.24.15.23.1.22.06.2.01.2-.03.18-.07.17-.1.16-.14.15-.17.14-.2.13-.22.13-.26.12-.27.11-.3.11-.32.1-.34.1-.36.09-.38.09-.38.09-.41.08-.41.09-.43.07-.56.05-.57.06-.57.05-.58.06-.58.05-.59.06-.58.07-.59.06-.59.06-.59.07-.59.06-.59.07-.58.07-.59.07-.59.07-.59.06-.58.07-.58.07-.58.06-.58.07-.58.06-.58.06-.57.06-.58.05-.57.06-.57.05-.56.04-.57.05-.56.03-.56.04-.55.03-.56.03-.54.02-.55.02-.54.01-.54.01h-1.59l-.51-.01-.52-.02-.5-.01-.5-.03-.5-.02-.48-.03-.48-.04-.47-.03-.46-.04-.45-.05-.44-.04-.43-.05-.43-.05-.42-.05-.41-.06-.41-.06-.39-.06-.39-.06-.38-.07-.37-.07-.37-.07-.35-.08-.35-.07-.33-.08-.33-.08-.32-.08-.3-.08-.3-.08-.29-.09-.28-.08-.27-.09-.26-.09-.25-.09-.24-.09-.23-.09" filter="url(#a)"/><circle cx="3.557" cy="2.805" r="3.666" clip-path="url(#c)" filter="url(#a)"/><circle cx="3.157" cy="2.87" r="3.87" clip-path="url(#c)" filter="url(#a)"/><circle cx="3.902" cy="2.955" r="3.278" clip-path="url(#c)" filter="url(#a)"/><circle cx="2.467" cy=".99" r="3.824" clip-path="url(#c)" filter="url(#a)"/><circle cx="4.412" cy="2.935" r="4.628" clip-path="url(#c)" filter="url(#a)"/><circle cx="4.577" cy="3.72" r="3.114" clip-path="url(#c)" filter="url(#a)"/><circle cx="3.962" cy="4.465" r="4.35" clip-path="url(#c)" filter="url(#a)"/><circle cx="4.797" cy="2.495" r="3.2" clip-path="url(#c)" filter="url(#a)"/><circle cx="2.942" cy="4.885" r="3.588" clip-path="url(#c)" filter="url(#a)"/><circle cx="4.827" cy=".615" r="3.392" clip-path="url(#c)" filter="url(#a)"/></g><g fill="none" stroke="#4682B4" stroke-linejoin="round" stroke-width="2"><path d="m45.01-54.18.28.72.01.61-.34.29-.75-.13-1.19-.54-1.63-.95-2.15-1.46-2.72-2.02-3.32-2.59-3.95-3.13-4.6-3.68-5.29-4.28-5.99-5.01-6.65-5.83m1.2-5.71 1.15.34.94.32.87.31.94.34.99.36.98.37.88.34.8.32.7.3.59.26.43.21.2.11h-.06l-.3-.1-.57-.21-.91-.35-1.37-.57-1.81-.76m-9.12-2.1 1.01.04 1.07.25 1.13.41 1.18.5 1.27.58 1.36.64 1.43.7 1.49.76 1.52.8 1.54.83 1.53.83 1.5.81 1.43.77 1.35.72 1.28.68 1.18.63 1.07.55.91.45.73.34.53.22.31.07.06-.09M50.34-42l.43 2.14-.26.91-.87.2-1.35-.03-1.78-.06-2.25-.13-2.74-.27-3.26-.51-3.83-.81-4.41-1.16-5.01-1.49-5.63-1.78-6.25-2.02-6.87-2.32-7.5-2.67-8.14-3.07-8.82-3.43-9.51-3.78" filter="url(#a)"/><path d="m39.08-64.61 1.02 1.67.49 1.28v.87l-.38.63-.69.51-1 .4-1.34.28-1.7.14h-2.09l-2.47-.13-2.87-.25-3.28-.37-3.7-.48-4.14-.6-4.61-.74-5.09-.9-5.55-1.12-6.03-1.34-6.49-1.56-6.97-1.72-7.56-1.83m8-14.47.75-.49.98-.37 1.05-.35 1.11-.36 1.14-.37 1.15-.36 1.12-.34 1.05-.3.93-.26.81-.22.69-.17.57-.15.42-.1.19-.05h-.12l-.51.09-.87.16-1.16.22" filter="url(#a)"/><path d="m-30.57-74.74.62-.63.95-.8 1.21-.95 1.31-.97 1.33-.93 1.31-.89 1.28-.82 1.25-.78 1.21-.73 1.17-.7 1.09-.65.98-.59.82-.49.61-.39.4-.27.18-.15-.03-.04-.23.09M45.47-53.3l.39.96.26.83-.01.4-.28.06-.55-.27-.89-.7-1.27-1.22-1.67-1.75-2.08-2.28-2.51-2.83-3-3.45-3.57-4.19-4.22-5.04-5-5.96" filter="url(#a)"/><path d="m45-54.51.09.44.15.61.09.65-.05.55-.22.38-.43.19-.66-.01-.91-.26-1.18-.53-1.46-.79-1.75-1.06-2.06-1.33-2.41-1.66-2.77-2.02-3.16-2.41-3.55-2.79-3.91-3.12-4.27-3.43-4.64-3.73-4.98-4.08-5.24-4.46" filter="url(#a)"/><path d="m9.24-87.58.64.35.21.32.02.44-.19.58-.54.71-.96.84-1.37.99-1.76 1.17-2.15 1.35-2.6 1.53-3.11 1.68-3.68 1.85-4.29 2.03-4.94 2.26-5.61 2.47-6.22 2.55-6.7 2.47" filter="url(#a)"/><path d="m47.15-49.38.14.3.15.93-.29.47-.78-.13-1.21-.57-1.61-.94-2.07-1.33-2.58-1.82-3.17-2.43-3.78-3.07-4.38-3.69-4.98-4.23-5.58-4.75-6.24-5.32-6.84-5.94m-25.76.1 1.1-.73.63-.32.5-.2.42-.15.32-.06.21.08.04.24-.15.43-.39.63-.62.86-.89 1.09-1.19 1.35-1.5 1.64-1.84 1.91-2.18 2.21-2.54 2.53-2.94 2.94-3.39 3.41-3.78 3.79" filter="url(#a)"/><path d="m33.09-72.05.61.81.25.74-.03.83-.4.8-.87.68-1.37.52-1.88.39-2.36.31-2.85.26-3.35.2-3.88.13-4.43.03-5.01-.1-5.63-.2-6.25-.27-6.92-.32-7.56-.41-8.08-.67" filter="url(#a)"/><path d="m34.31-70.87 1.01 1.34.71 1.07.35.71v.4l-.28.16-.55-.03-.82-.2-1.12-.39-1.45-.61-1.84-.88-2.29-1.19L25.29-72l-3.24-1.85-3.73-2.2-4.23-2.58-4.73-2.98L4.03-85m9.82-1.16 1.31.67 1.35.71 1.15.6.98.52.83.47.7.43.55.37.4.28.22.18.06.1-.1.03-.28-.04-.47-.12-.71-.23-.99-.37-1.27-.54-1.57-.7-1.9-.86-2.21-.97-2.48-1.06m-39.38 11.24.62-.57 1.01-.89.99-.86.9-.76.82-.66.77-.58.69-.49.62-.42.54-.34.42-.26.29-.13.13-.01-.06.14-.24.28-.42.44-.61.59-.82.74-1.05.94-1.33 1.15-1.65 1.42-2.02 1.76-2.38 2.12m79.66 21.6 1.05 2.6.27 1.2-.22.49-.51.22-.76.07-1.04-.14-1.39-.46-1.77-.86-2.19-1.27-2.59-1.63-3.01-1.95-3.43-2.23-3.85-2.53-4.28-2.88-4.71-3.31-5.14-3.8-5.62-4.33-6.13-4.8-6.75-5.2m-5.68-6.05.95-.25.51-.12.42-.07.4-.02.31.06.13.15-.18.27-.59.42-1.04.58-1.48.75-1.93.92-2.41 1.1-2.96 1.3-3.64 1.58" filter="url(#a)"/><path d="m10.53-86.96.6.05.85.31.65.29.34.22.11.22-.07.25-.25.28-.49.28-.8.25-1.18.18-1.59.13-2.03.07-2.5.01-3-.05-3.51-.11-3.97-.15-4.4-.2m31.29 2.16-.19.14.51.51.29.4-.06.27-.35.21-.6.21-.9.2-1.23.18-1.63.12-2.06.03-2.54-.07-3.02-.17-3.51-.23-4-.25-4.51-.27-5.03-.34-5.61-.44" filter="url(#a)"/><path d="m34.31-70.87 1.01 1.35.71 1.1.33.76-.01.47-.31.28-.56.12-.83-.01-1.12-.13-1.44-.3-1.8-.5-2.19-.72-2.62-.97-3.06-1.21-3.5-1.47-3.94-1.73-4.36-2.03-4.78-2.34-5.21-2.63-5.7-2.92" filter="url(#a)"/><path d="m-20.55-82.61 1.37-.63 1.12-.36 1.35-.34 1.57-.29 1.73-.2 1.87-.14 1.98-.07 2.09-.03 2.2.01 2.26.07 2.29.1 2.28.12 2.26.14 2.24.15 2.23.16 2.23.19 2.2.2 2.09.2 1.84.13 1.61.05M40.3-62.87l.97 1.63.52.96.4.78.36.7.3.6.18.41.01.15-.22-.18-.46-.53-.72-.9-1-1.31-1.31-1.77-1.66-2.28-2.06-2.82-2.42-3.36m-9.64-9.86.44.33.47.62.21.61-.12.54-.48.46-.86.39-1.22.35-1.56.35-1.9.39-2.25.42-2.64.46-3.07.49-3.55.49-4.05.49-4.57.46-5.09.4-5.62.31-6.15.19-6.7.02" filter="url(#a)"/><path d="m42.04-59.74.75 1.39.58 1.03.49.91.38.78.28.66.17.54.08.43-.01.32-.13.17-.24.01-.38-.19-.54-.4-.7-.64-.89-.88-1.07-1.16-1.28-1.44-1.51-1.78-1.76-2.14-2.01-2.52-2.23-2.87-2.42-3.16-2.67-3.48-3.2-4.02m-4.94-5.6.96.63.62.49.6.47.47.38.29.29.13.24-.02.21-.18.2-.37.15-.6.08-.87-.02-1.15-.12-1.44-.22-1.74-.3-2.05-.37-2.4-.43-2.74-.5-3.08-.61-3.39-.73-3.7-.9-4.09-1.09" filter="url(#a)"/><path d="m41.88-60.11.18.62-.04.64-.45.42-.91.12-1.44-.2-1.98-.55-2.54-.87-3.12-1.19-3.72-1.51-4.35-1.85-5-2.23-5.68-2.6-6.39-3.06-7.18-3.57-8-4.07" filter="url(#a)"/><path d="m23.55-80.65.49.33.61.61.44.59.21.49-.05.4-.31.32-.55.26-.78.25-.99.25-1.22.27-1.47.27-1.75.25-2.05.21-2.38.15-2.75.1-3.13.02-3.55-.06-3.99-.16-4.44-.29-4.89-.44-5.34-.55-5.9-.59" filter="url(#a)"/><path d="m.16-88.55 1.48.05.97.13.57.22.23.32-.12.45-.45.55-.76.67-1.07.79-1.4.92-1.77 1.07-2.18 1.25-2.58 1.43-3.02 1.62-3.46 1.79-3.95 1.95-4.49 2.13-5 2.32-5.42 2.5" filter="url(#a)"/><path d="m.64-88.87.24.21.85.12.87.1.71.13.5.16.28.22.07.26-.12.3-.32.34-.51.4-.74.46-.99.51-1.24.58-1.51.64-1.81.7-2.14.78-2.47.86-2.84.98-3.21 1.12-3.63 1.26-4.06 1.36-4.41 1.35m62.5 8.32.53.74-.07.42-.51.23-.94.03-1.42-.15-1.92-.36-2.49-.61-3.12-.93-3.82-1.29-4.53-1.64-5.27-1.99-6.02-2.35L.3-78.35l-7.56-3.2" filter="url(#a)"/><path d="m22.24-81.44.18.18.16.23.16.33.1.45-.04.52-.25.55-.5.54-.79.5-1.09.48-1.39.47-1.68.5-1.96.55-2.25.6-2.54.65-2.87.67-3.2.68-3.57.68-3.97.69-4.41.72-4.87.75-5.31.73-5.73.65-6.16.56" filter="url(#a)"/><path d="m7.25-87.83.89.13 1.08.36 1.08.46 1.12.55 1.2.61 1.29.68 1.33.73 1.35.76 1.36.81 1.39.84 1.39.85 1.36.85 1.29.79 1.17.72 1.02.63.87.52.7.41.54.28.37.16.22.05.07-.05-.08-.14-.12-.14" filter="url(#a)"/><path d="m.64-88.87.3.22 1.04.13 1.18.1 1.13.11 1.05.13.93.15.84.15.74.15.64.13.55.12.41.11.27.08.11.05-.07.02-.29-.03-.55-.09-.86-.14-1.21-.19-1.59-.21-2.14-.28m-25.46 6.73.88-.52 1.15-.49 1.29-.38 1.45-.34 1.63-.33 1.8-.34 1.95-.32 2.05-.29 2.1-.27 2.13-.25 2.13-.24 2.09-.23 2.03-.24 1.93-.23 1.83-.21 1.76-.16 1.7-.11 1.53-.11 1.12-.24" filter="url(#a)"/><path d="M-5.05-88.41h.97l.83-.03.92-.02 1.05.01 1.15.04 1.19.08 1.19.09 1.19.11 1.14.11 1.06.11.95.11.81.1.64.09.5.07.33.04.17.02v-.01l-.21-.04-.4-.08-.59-.11-.83-.18-1.17-.27m-19.08 2.05.91-.35 1.37-.06 1.62.17 1.81.35 2.03.49 2.27.6 2.53.7 2.78.8 2.97.88 3.06.95 3.08.99 3.05.99 3.02.99 2.98.97 2.93.98 2.81.93 2.56.77" filter="url(#a)"/><path d="m-12.68-86.62 1.1-.32.85-.21.67-.17.55-.12.45-.08.37-.04.26.02.08.1-.21.21-.59.33-1 .47-1.39.6-1.76.71-2.18.83-2.72 1m53.66 13.86 1.07 1.47.89 1.28.8 1.23.82 1.29.86 1.35.87 1.4.86 1.4.8 1.33.7 1.19.56.98.43.73.29.46.14.19-.05-.18-.37-.71M30.65-74.54l.4.42.63.78.51.79.3.73.1.66-.13.61-.38.53-.66.42-.96.27-1.27.15-1.57.03-1.87-.06-2.18-.16-2.51-.24-2.85-.36-3.2-.5-3.57-.65-3.94-.79-4.33-.94-4.76-1.07-5.2-1.23-5.61-1.41-6.05-1.56" filter="url(#a)"/><path d="m41.88-60.11.17.6-.03.58-.43.31-.91-.04-1.45-.42-2.02-.82-2.61-1.21-3.23-1.6-3.89-2.01-4.59-2.44-5.27-2.91-5.93-3.39-6.6-3.94-7.38-4.59" filter="url(#a)"/><path d="m34.31-70.87.98 1.36.64 1.12.2.81-.17.55-.51.39-.8.28-1.11.2-1.43.12-1.78.01-2.18-.12-2.58-.28-3-.45-3.43-.64-3.86-.81-4.34-.99-4.83-1.18-5.34-1.36-5.83-1.55-6.3-1.76-6.75-2.04m8.98-10.35.08.05.89-.06 1.25-.05 1.53-.02 1.69.03 1.74.07 1.73.13 1.71.16 1.68.18 1.66.2 1.61.19 1.51.19 1.38.15 1.19.1.96.04.72-.02h.58l.63.14m-21.79-1.53 1.46-.4 1.43-.22 1.21-.14.99-.1.86-.08.78-.06.69-.04h.57l.4.01.2.05-.04.06-.34.07-.75.1-1.25.12-1.78.17-2.11.17m-13.17 4.62 1.29-.77.76-.38.42-.05.11.21-.19.45-.49.7-.84.98-1.21 1.31-1.66 1.69-2.17 2.13-2.73 2.57-3.24 2.96-3.71 3.29-4.22 3.77" filter="url(#a)"/><path d="m-29.88-75.54 1.51-1.34 1.13-.96 1-.8.97-.74.97-.68.95-.64.92-.6.88-.56.8-.51.7-.44.57-.35.41-.25.27-.16.1-.06-.08.06-.3.2-.57.37-.87.55-1.15.71-1.46.87" filter="url(#a)"/></g><g fill="none" stroke="#000"><circle cx="8.548" cy="11.28" r="2.374" filter="url(#a)"/><circle cx="5.808" cy="8.812" r="2.604" filter="url(#a)"/><circle cx="5.476" cy="10.328" r="2.648" filter="url(#a)"/><circle cx="7.42" cy="8.452" r="1.58" filter="url(#a)"/><circle cx="6.304" cy="9.676" r="2.882" filter="url(#a)"/><circle cx="8.684" cy="10.344" r="2.294" filter="url(#a)"/><circle cx="7.032" cy="9.428" r="2.452" filter="url(#a)"/><circle cx="5.988" cy="8.204" r="1.722" filter="url(#a)"/><circle cx="8.964" cy="9.644" r="2.438" filter="url(#a)"/><circle cx="6.252" cy="8.528" r="2.884" filter="url(#a)"/><circle cx="-8.232" cy="9.942" r="2.81" filter="url(#a)"/><circle cx="-8.292" cy="8.558" r="2.194" filter="url(#a)"/><circle cx="-6.168" cy="7.542" r="2.198" filter="url(#a)"/><circle cx="-6.02" cy="7.642" r="1.466" filter="url(#a)"/><circle cx="-7.912" cy="9.274" r="1.724" filter="url(#a)"/><circle cx="-5.876" cy="9.346" r="2.292" filter="url(#a)"/><circle cx="-5.316" cy="7.582" r="2.408" filter="url(#a)"/><circle cx="-7.808" cy="10.394" r="1.394" filter="url(#a)"/><circle cx="-8.472" cy="10.658" r="1.862" filter="url(#a)"/><circle cx="-7.44" cy="9.618" r="2.766" filter="url(#a)"/></g><path fill="#D77F8C" stroke="#000" stroke-linejoin="round" stroke-width="3" d="m27.49 42.49.19.42.44 1.4-.2-.37.26 1.9-.05.04-.08-.71.1 1.63.07-.74-.12.8-.07.78.14-.18-.13.65-.05.6-.35.84.04-.13-.53 1.55.01.15-.03-.11-.26.63-.99 1.82.71-1.32-.28.61-.14.43-.25.33-1.26 1.77-.33.43.34-.51-.91 1.02-.86.95.29-.26-.13.14-.36.31-1.75 1.46.56-.47-.81.72.16-.11-.75.52-.4.27-.33.24-.41.31-.61.37-2.27 1.25 1.19-.61-1.49.78-1.89.82-.31.13 1.33-.55-2.31.91.08-.03-1.46.49.35-.11.07-.03-1.81.52-1.4.32-.04.01.56-.12-1.11.23-1.23.2-1.17.12.76-.08-2.31.2.61-.04-.23.01-.62.03-1.5.02.23-.01h-.47l-.34-.04h-.49l-.88-.05-1.27-.2-1.62-.36.91.28-.81-.23-.34-.01-1.35-.43-.14-.08-.67-.14-1.27-.56.56.17-1.27-.6-.42-.27.47.35-1.01-.6-.85-.55.08.09-1.04-.8.82.56-.92-.85-.81-.62.58.37-.54-.57-.36-.34-.44-.62-.75-.98v-.17l.31.48-.66-1.17.12.09-.21-.56-.49-1.23.02.13.03-.64.01.13-.21-1.01.05-.93-.09.9.08-1.82-.02.13.06.26.23-1.68-.14.88-.04-.58.25-.39.03-.45.3-1.21.12-.32.58-1.11.06-.17-.18.42.87-1.65-.16.39.74-1.19.21-.3-.24.39.48-.72.75-.89 1.13-1.16-.42.41.71-.71.13-.23 1.25-1.07-1.06.9 1.75-1.43.97-.72.14-.06-.23.13 1.02-.69 1.38-.8-1.31.76 1.81-1.02 1.07-.57-1.1.57 1.26-.66 1.67-.74.67-.26-.15.06-.46.18.34-.13 2.09-.76.41-.12.31-.1 1.89-.49-.94.22.58-.13.45-.11 1.04-.21 1.23-.23.7-.06.75-.1.61-.05.25-.02 1.28-.06-.87.05 2.74-.03-1-.02 1.94.13-.35-.03-.4-.02 1.9.14.49.12 1.14.12.78.27.52.16-.91-.32 1.87.59.84.32-.69-.22 1.58.57-.42-.21.25.18.51.22.49.24.98.61-.04.03 1.28.83-.12-.08.84.74.17.25-.5-.39.38.18.52.57.82 1.24-.36-.76.47.91.1.29.14-.02.32.82.06.15" filter="url(#a)"/></svg>