<svg xmlns="http://www.w3.org/2000/svg" width="500" height="500" viewBox="-100 -100 200 200"><defs><clipPath id="c"><path d="m26.34.34-.13-.23-.18-.22-.22-.23-.25-.22-.3-.23-.32-.22-.37-.22-.39-.22-.43-.21-.46-.21-.49-.21-.52-.2-.54-.19-.57-.19-.59-.18-.65-.27-.68-.26-.71-.25-.75-.23-.77-.22-.79-.2-.83-.18-.84-.16-.86-.15-.88-.13-.9-.12-.91-.09-.92-.08-.93-.07-.94-.04-.94-.03-.95-.01h-.94l-.95.02-.95.03-.94.04-.93.06-.93.07-.91.09-.91.09-.89.11-.88.12-.86.12-.84.14-.83.14-.81.15-.79.16-.76.16-.75.17-.72.17-.69.18-.68.17-.65.19-.62.18-.6.19-.58.18-.55.19-.52.19-.5.18-.48.19-.45.18-.43.19-.4.18-.39.18-.36.17-.34.18-.31.17-.3.17-.28.17-.26.16-.23.17-.22.16-.2.16-.17.15-.16.16-.14.15-.12.15-.1.14-.09.15 1.37 1.1.3.1.31.1.33.09.34.1.35.09.37.09.37.09.39.08.39.08.41.09.42.07.43.08.44.08.45.07.46.07.48.07.48.07.5.06.51.06.52.07.54.06.54.05.55.06.56.05.58.05.58.05.59.05.6.04.6.04.62.04.62.04.63.03.63.04.64.02.65.03.66.02.66.02.66.02.68.02.68.01.68.01h2.78l.71-.01.71-.02.72-.01.72-.02.72-.02.73-.03.73-.03.73-.04.74-.04.74-.05.74-.05.74-.05.74-.06.74-.06.74-.07.74-.08.73-.08.74-.08.72-.09.57-.09.56-.09.56-.09.53-.1.53-.11.51-.12.49-.12.48-.13.46-.13.43-.14.42-.16.38-.15.37-.17.33-.18.3-.18"/></clipPath><clipPath id="b"><path d="m-27.86-.29.12-.2.15-.21.19-.21.23-.21.26-.2.3-.2.32-.2.36-.2.39-.18.43-.19.45-.17.48-.17.51-.17.54-.15.56-.15.56-.24.59-.23.64-.22.68-.19.71-.18.75-.16.79-.14.82-.13.85-.1.88-.09.91-.07.92-.05.95-.04.97-.02h.99l1 .02 1.01.02 1.02.05 1.03.05 1.03.07 1.04.09 1.03.09 1.03.1 1.02.12 1.02.12 1.01.13 1 .14.99.15.97.15.96.15.94.17.92.16.9.17.87.17.86.17.83.17.81.18.79.17.76.17.73.18.71.17.68.17.66.16.63.17.61.16.58.16.56.16.53.15.51.15.49.15.47.14.45.14.43.14.41.14.38.13.37.13.35.13.33.12.31.12.29.12.27.12.26.11.23.11.23.1-1.58.89-.23.07-.24.08-.26.07-.27.07-.29.07-.31.06-.32.07-.34.07-.36.06-.38.06-.39.06-.41.06-.42.06-.44.06-.46.06-.48.05-.5.05-.52.06-.54.05-.56.05-.57.04-.6.05-.62.04-.64.05-.66.04-.68.04-.69.03-.72.04-.73.03-.76.03-.77.03-.78.02-.81.03-.82.02-.83.02-.84.01-.86.01-.87.01-.87.01h-2.68l-.91-.01-.9-.01-.91-.01-.91-.02-.91-.02-.91-.02-.9-.03-.9-.03-.88-.04-.88-.04-.87-.04-.86-.05-.85-.06-.83-.06-.81-.06-.79-.07-.78-.07-.75-.08-.74-.08-.71-.09-.68-.1-.66-.1-.61-.09-.59-.1-.57-.11-.56-.12-.53-.12-.51-.13-.49-.13-.47-.15-.45-.15-.42-.16-.4-.17-.37-.18-.34-.19-.31-.2-.29-.21"/></clipPath><filter id="a"><feTurbulence baseFrequency=".05" numOctaves="3" result="noise" type="noise"/><feDisplacementMap in="SourceGraphic" in2="noise" scale="2"/></filter></defs><rect width="100%" height="100%" x="-100" y="-100" fill="#F2A6DE"/><path fill="#20DF54" stroke="#000" stroke-linejoin="round" stroke-width="1.667" d="m67.47-.55-.2 1.64.2 1.14-.14 1.47-.08 3.47.03-.06-.11 1.96.08-.49-.21.74-.49 5.17.35-1.75-.18 1.02-.49 4.23-.39 2.25-.13.47.05-.59-.53 2.86-.04 1.04-.16.86-.13-.1-.67 1.91-.73 3.38-.43 2.08.08-1.19-.47 1.69-.57 2.55-.41 1.31-.56 1.61-.67 1.57.43-1.64-.52 1.69-1.02 2.67-.15.47-.08.08-.74 2.06-1.05 1.87-.01.43-.14.74-.85 1.51-1.27 2.27.04.43-1.57 2.44-.22-.07-.97 2.38-.46.54-.49.44-.6.68-1.48 2.41.21-.1-.58 1.1-1.26 2.13-1.18 1.06-.81.39-.69 1.02-.34.69-2.19 2.69 1.23-1.57-1.97 2.31.95-1.03-2.03 2.21-.79.51-1.01.9-1.91 1.75-.55.51.04-.06-.44.7-2.39 1.49.85-.47-2.21 1.48-.84.9-1.12.88-.2-.25-.98 1 .18-.11-2.5 1.5-1.17.34-.92.94-.71-.17-.67.35-1.57.68-.92.69.43-.29-2.3 1.31-.92.32-1.6.21-.87.51-1.81.46 1.17-.39-2.49.67-1.19.4-1.04-.1-1.53.74-1.77.22.72-.32-.07.15-1.89.17-1.66-.07-1.9.49-.46-.23-1.11.06-.77.31-1.86-.14-1.94-.21.86-.13h-1.12l-.47.06.17-.1-2.7-.15-.75-.08-2.01-.56-1.08-.1.69-.07-3.83-.79.48.13-.48-.02-1.46-.37-1.77-.69-.1.16-2.61-1.33.56.3-1.05-.49-1.75-.73.33.17-.72-.57-2.14-1.36-1.14.07.69-.01-3.72-1.89.6.34-1.06-.83-.11-.13-2.84-1.88.48.07-2.2-1.43.44.38-1.89-1.37-.59-.51-1.45-1.5.34.75-1.02-1.53-.15.29-1.36-1.37-1.72-1.9-.21-.01-1.75-2.46.19.24-1.07-.83-.32-.74-1.64-1.51-.41-.53-.21-.89-1.04-.42-.54-.8-1.27-2.29-.74-1.01-.82-1.09-.28-.83-1.51-1.97.56.19-1.08-1.89-1.19-1.28.49.58-1.32-2.41-.34-.66-.87-2.44-.79-.8-.11-1.08-1.21-2.07.77 1.38-1.57-3.12.86 1.36-1.71-3.79-.16-.46-.92-3.05.04.05-1.01-3.17.53 1.82-.67-2.19-.33-2.36-.45-1.48-.03.54-.84-3.42-.39-1.25.2-.25-.77-3.93-.07 1.1-.16-.95-.38-4.03-.22.19-.05.06-.26-2.59-.2-1.5-.15-1.42.35 1.06-.37-4.59-.11-1.59-.23-1.46.09.76.01-3.4-.23-1.2-.07-2.46.27-.02.02-.87-.11.11.07-3.67.02-1.61.22-1.29-.07-.62.13-1.21.39-1.2.18-2.69.1-.38-.05-1.38.15-.65.34-1.49.5-2.84-.36 1.92 1.27-5.96.02.07.25-2.48.21.93.08-1.41.92-2.86-.09.17.73-3.21.31-1.24.71-1.59-.26.15.85-1.87.13-.5.19-.99.21.02 1.41-3.64.45-1.09.42-.86.22-.79.81-.88 1.15-3.12.21.22-.26-.07 1.29-1.86 1.28-2.82-.26.28.23.22.86-1.94 1.91-2.53-.57.39 1.5-2.13-.12.22 1.74-2.37-.78 1.04 1.63-2.27.64-.84 1.97-2.47.28-.26 1.19-1.53.6-.61.46-.37 1.88-1.84-.16-.06 1.18-1.03.6-.69.91-.31.46-.91.95-.68-.09.31 1-1.11 1.81-1.4 1.12-.53 1.43-1.24 1.18-.42 1.04-.8.64-.72.19.06 1.35-.59.26-.66 1.98-1.11-.09.33 1.43-.99.53.02 2.51-1.07.86-.45-.05-.03 1.49-.32 1-.56-.05.17 2.8-.89.42-.26-.26.22 1.25-.32 2.02-.44.8-.47.8.02 2.5-.19-.94-.23 2.45.05.52-.4 1.02-.09 1.57.14-.46.13 2.57-.16 1.41-.22-.4.44.61-.35 3.93.26-.88-.08 1.18.26.58.27.32.12 3.27.31.36.19 1.77.45.18.02 1.44.29 1.56.32.68.45-.39.02 2.34.33.8.35.88.51.33.37.34-.02 1.48.67 2.18 1.29.82.39-.74-.49 3.26 1.65-.14-.05.22.09 1.48 1.08 2.2 1.37-.08.07.73.22 2.08 1.74-.53-.56 2.65 2.13-1.17-.69 1.91 2.04.99.43 1.16.73.63 1.16.04-.59 2.11 2.83-.58-1.06 1.44 1.56.21.28 2.08 2.67 1.04.85-.09.08 1.67 2.6-.4-.66 1.49 1.79 1.04 1.57.33.34-.16.04 2.35 3.27.41 1.03-.42-.88 1.25 2.07-.53-.91 1.39 2.86.13.17.96 1.74 1.79 3.08-.5-.79.55 1.29.78 1.48-.44-.47 1.6 3.39-.04-.77.69 2.22.76 2.69.94 2.48.13-.3.19.52.98 3.59.05-.59.26 1.73.03.06.95 3.84.23.4-.28.32.51 1.54.03-.45.49 3.22.16 1.29.56.98-.01.98.28 1.36.08 2.13.12.07.33 3.78.21 1.22.33 1.97-.06 1.16-.27-2.19.22 4.87.32 1.23-.1.76.11.98-.06 1.12-.2 1.64" filter="url(#a)"/><path fill="#fff" d="m-27.86-.29.12-.2.15-.21.19-.21.23-.21.26-.2.3-.2.32-.2.36-.2.39-.18.43-.19.45-.17.48-.17.51-.17.54-.15.56-.15.56-.24.59-.23.64-.22.68-.19.71-.18.75-.16.79-.14.82-.13.85-.1.88-.09.91-.07.92-.05.95-.04.97-.02h.99l1 .02 1.01.02 1.02.05 1.03.05 1.03.07 1.04.09 1.03.09 1.03.1 1.02.12 1.02.12 1.01.13 1 .14.99.15.97.15.96.15.94.17.92.16.9.17.87.17.86.17.83.17.81.18.79.17.76.17.73.18.71.17.68.17.66.16.63.17.61.16.58.16.56.16.53.15.51.15.49.15.47.14.45.14.43.14.41.14.38.13.37.13.35.13.33.12.31.12.29.12.27.12.26.11.23.11.23.1-1.58.89-.23.07-.24.08-.26.07-.27.07-.29.07-.31.06-.32.07-.34.07-.36.06-.38.06-.39.06-.41.06-.42.06-.44.06-.46.06-.48.05-.5.05-.52.06-.54.05-.56.05-.57.04-.6.05-.62.04-.64.05-.66.04-.68.04-.69.03-.72.04-.73.03-.76.03-.77.03-.78.02-.81.03-.82.02-.83.02-.84.01-.86.01-.87.01-.87.01h-2.68l-.91-.01-.9-.01-.91-.01-.91-.02-.91-.02-.91-.02-.9-.03-.9-.03-.88-.04-.88-.04-.87-.04-.86-.05-.85-.06-.83-.06-.81-.06-.79-.07-.78-.07-.75-.08-.74-.08-.71-.09-.68-.1-.66-.1-.61-.09-.59-.1-.57-.11-.56-.12-.53-.12-.51-.13-.49-.13-.47-.15-.45-.15-.42-.16-.4-.17-.37-.18-.34-.19-.31-.2-.29-.21" filter="url(#a)" transform="translate(30.96 -31.87)"/><path fill="#fff" d="m26.34.34-.13-.23-.18-.22-.22-.23-.25-.22-.3-.23-.32-.22-.37-.22-.39-.22-.43-.21-.46-.21-.49-.21-.52-.2-.54-.19-.57-.19-.59-.18-.65-.27-.68-.26-.71-.25-.75-.23-.77-.22-.79-.2-.83-.18-.84-.16-.86-.15-.88-.13-.9-.12-.91-.09-.92-.08-.93-.07-.94-.04-.94-.03-.95-.01h-.94l-.95.02-.95.03-.94.04-.93.06-.93.07-.91.09-.91.09-.89.11-.88.12-.86.12-.84.14-.83.14-.81.15-.79.16-.76.16-.75.17-.72.17-.69.18-.68.17-.65.19-.62.18-.6.19-.58.18-.55.19-.52.19-.5.18-.48.19-.45.18-.43.19-.4.18-.39.18-.36.17-.34.18-.31.17-.3.17-.28.17-.26.16-.23.17-.22.16-.2.16-.17.15-.16.16-.14.15-.12.15-.1.14-.09.15 1.37 1.1.3.1.31.1.33.09.34.1.35.09.37.09.37.09.39.08.39.08.41.09.42.07.43.08.44.08.45.07.46.07.48.07.48.07.5.06.51.06.52.07.54.06.54.05.55.06.56.05.58.05.58.05.59.05.6.04.6.04.62.04.62.04.63.03.63.04.64.02.65.03.66.02.66.02.66.02.68.02.68.01.68.01h2.78l.71-.01.71-.02.72-.01.72-.02.72-.02.73-.03.73-.03.73-.04.74-.04.74-.05.74-.05.74-.05.74-.06.74-.06.74-.07.74-.08.73-.08.74-.08.72-.09.57-.09.56-.09.56-.09.53-.1.53-.11.51-.12.49-.12.48-.13.46-.13.43-.14.42-.16.38-.15.37-.17.33-.18.3-.18" filter="url(#a)" transform="translate(-42.76 -33.28)"/><g fill="none" stroke="#000" transform="translate(30.96 -31.87)"><path stroke-linejoin="round" stroke-width="1.667" d="m-26.96 1.48-.26-.13-.23-.14-.18-.16-.15-.17-.11-.18-.07-.19-.03-.19v-.2l.05-.2.08-.21.12-.2.15-.21.19-.21.23-.21.26-.2.3-.2.32-.2.36-.2.39-.18.43-.19.45-.17.48-.17.51-.17.54-.15.56-.15.56-.24.59-.23.64-.22.68-.19.71-.18.75-.16.79-.14.82-.13.85-.1.88-.09.91-.07.92-.05.95-.04.97-.02h.99l1 .02 1.01.02 1.02.05 1.03.05 1.03.07 1.04.09 1.03.09 1.03.1 1.02.12 1.02.12 1.01.13 1 .14.99.15.97.15.96.15.94.17.92.16.9.17.87.17.86.17.83.17.81.18.79.17.76.17.73.18.71.17.68.17.66.16.63.17.61.16.58.16.56.16.53.15.51.15.49.15.47.14.45.14.43.14.41.14.38.13.37.13.35.13.33.12.31.12.29.12.27.12.26.11.23.11.23.1.2.11.19.1.17.09.16.1.15.09.13.09.11.09.11.09.09.08.07.08" filter="url(#a)"/><path stroke-linejoin="round" stroke-width="2.222" d="m-28.68-1.81-.05.33-.02.32.03.31.06.29.09.28.13.27.16.25.2.24.22.24.26.21.29.21.31.2.34.19.37.18.4.17.42.16.45.15.47.15.49.13.51.13.53.12.56.12.57.11.59.1.61.09.66.1.68.1.71.09.74.08.75.08.78.07.79.07.81.06.83.06.85.06.86.05.87.04.88.04.88.04.9.03.9.03.91.02.91.02.91.02.91.01.9.01.91.01H.33l.87-.01.87-.01.86-.01.84-.01.83-.02.82-.02.81-.03.78-.02.77-.03.76-.03.73-.03.72-.04.69-.03.68-.04.66-.04.64-.05.62-.04.6-.05.57-.04.56-.05.54-.05.52-.06.5-.05.48-.05.46-.06.44-.06.42-.06.41-.06.39-.06.38-.06.36-.06.34-.07.32-.07.31-.06.29-.07.27-.07.26-.07.24-.08.23-.07.21-.08.19-.07.19-.08.16-.08.15-.08.14-.08.13-.08.11-.08.1-.08.09-.08" filter="url(#a)"/><circle cx="-4.078" cy="4.51" r="4.574" clip-path="url(#b)" filter="url(#a)"/><circle cx="-3.638" cy="3.315" r="3.606" clip-path="url(#b)" filter="url(#a)"/><circle cx="-2.463" cy="2.625" r="4.784" clip-path="url(#b)" filter="url(#a)"/><circle cx="-3.718" cy="2.7" r="3.77" clip-path="url(#b)" filter="url(#a)"/><circle cx="-4.558" cy="1.455" r="3.438" clip-path="url(#b)" filter="url(#a)"/><circle cx="-5.198" cy="3.57" r="3.648" clip-path="url(#b)" filter="url(#a)"/><circle cx="-5.853" cy="4.845" r="3.866" clip-path="url(#b)" filter="url(#a)"/><circle cx="-6.588" cy="5.4" r="4.354" clip-path="url(#b)" filter="url(#a)"/><circle cx="-6.728" cy="3.2" r="3.934" clip-path="url(#b)" filter="url(#a)"/><circle cx="-6.158" cy="3.81" r="3.896" clip-path="url(#b)" filter="url(#a)"/></g><g fill="none" stroke="#000" transform="translate(-42.76 -33.28)"><path stroke-linejoin="round" stroke-width="2.222" d="m25.04 2.19.37-.14.31-.15.25-.16.21-.17.15-.19.1-.2.04-.2.01-.21-.05-.21-.09-.22-.13-.23-.18-.22-.22-.23-.25-.22-.3-.23-.32-.22-.37-.22-.39-.22-.43-.21-.46-.21-.49-.21-.52-.2-.54-.19-.57-.19-.59-.18-.65-.27-.68-.26-.71-.25-.75-.23-.77-.22-.79-.2-.83-.18-.84-.16-.86-.15-.88-.13-.9-.12-.91-.09-.92-.08-.93-.07-.94-.04-.94-.03-.95-.01h-.94l-.95.02-.95.03-.94.04-.93.06-.93.07-.91.09-.91.09-.89.11-.88.12-.86.12-.84.14-.83.14-.81.15-.79.16-.76.16-.75.17-.72.17-.69.18-.68.17-.65.19-.62.18-.6.19-.58.18-.55.19-.52.19-.5.18-.48.19-.45.18-.43.19-.4.18-.39.18-.36.17-.34.18-.31.17-.3.17-.28.17-.26.16-.23.17-.22.16-.2.16-.17.15-.16.16-.14.15-.12.15-.1.14-.09.15-.06.14-.05.13-.03.14-.02.13v.13l.02.12.03.12.05.12.06.12.07.11" filter="url(#a)"/><path stroke-linejoin="round" stroke-width="2.222" d="m26.89-.33.14.29.09.29.02.27-.02.26-.07.24-.12.24-.15.22-.2.22-.24.2-.27.2-.3.18-.33.18-.37.17-.38.15-.42.16-.43.14-.46.13-.48.13-.49.12-.51.12-.53.11-.53.1-.56.09-.56.09-.57.09-.72.09-.74.08-.73.08-.74.08-.74.07-.74.06-.74.06-.74.05-.74.05-.74.05-.74.04-.73.04-.73.03-.73.03-.72.02-.72.02-.72.01-.71.02-.71.01H2.49l-.68-.01-.68-.01-.68-.02-.66-.02-.66-.02-.66-.02-.65-.03-.64-.02-.63-.04-.63-.03-.62-.04-.62-.04-.6-.04-.6-.04-.59-.05-.58-.05-.58-.05-.56-.05-.55-.06-.54-.05-.54-.06-.52-.07-.51-.06-.5-.06-.48-.07-.48-.07-.46-.07-.45-.07-.44-.08-.43-.08-.42-.07-.41-.09-.39-.08-.39-.08-.37-.09-.37-.09-.35-.09-.34-.1-.33-.09-.31-.1-.3-.1-.29-.1-.28-.11-.27-.1-.25-.11-.24-.11-.23-.11-.22-.11-.2-.12-.19-.11-.18-.12" filter="url(#a)"/><circle cx="16.05" cy="1.632" r="4.444" clip-path="url(#c)" filter="url(#a)"/><circle cx="15.065" cy="2.177" r="3.68" clip-path="url(#c)" filter="url(#a)"/><circle cx="12.72" cy="1.987" r="3.374" clip-path="url(#c)" filter="url(#a)"/><circle cx="13.665" cy="1.057" r="3.442" clip-path="url(#c)" filter="url(#a)"/><circle cx="12.35" cy="3.792" r="4.216" clip-path="url(#c)" filter="url(#a)"/><circle cx="12.135" cy="2.162" r="4.004" clip-path="url(#c)" filter="url(#a)"/><circle cx="15.535" cy="2.797" r="4.864" clip-path="url(#c)" filter="url(#a)"/><circle cx="15.605" cy="4.577" r="4.47" clip-path="url(#c)" filter="url(#a)"/><circle cx="15.24" cy="4.427" r="4.8" clip-path="url(#c)" filter="url(#a)"/><circle cx="13.07" cy=".847" r="4.284" clip-path="url(#c)" filter="url(#a)"/></g><g fill="none" stroke="#321386" stroke-linejoin="round" stroke-width="2"><path d="m-12.5-88.31 1.68-.31 1.56-.06 1.71.17 1.86.33 2.01.47 2.17.59 2.33.71 2.46.83 2.6.95 2.71 1.04 2.79 1.1 2.85 1.15 2.89 1.18 2.9 1.2 2.88 1.22 2.85 1.23 2.79 1.23 2.72 1.19 2.65 1.15 2.54 1.03 2.31.85 2 .62m-5.66-6.31 1.53 1.45 1.17.96.94.77.77.69.64.61.52.53.39.43.23.31.06.17-.16-.03-.44-.29-.79-.62-1.2-1-1.6-1.37-1.99-1.74-2.45-2.16m-8.4-5.66.58.26.82.4 1.02.55 1.06.61 1.04.64 1.01.65.94.61.81.53.63.41.4.29.14.13-.14-.04-.45-.23-.76-.45-1.07-.67-1.47-.93-1.95-1.21m28.62 31.41.76 1.73-.37.66-1.07.37-1.65.24-2.25.15-2.85.03-3.49-.08-4.17-.23-4.9-.45-5.66-.75-6.48-1.09-7.3-1.44-8.15-1.77-9.01-2.06-9.88-2.33-10.76-2.53-11.75-2.6m26.11-26.73 1.92.02 1.69.14 1.83.34 2.08.53 2.33.64 2.53.74 2.69.81 2.81.88 2.92.96 2.98 1.03 2.98 1.07 2.92 1.09 2.83 1.09 2.71 1.03 2.59.93 2.58.88" filter="url(#a)"/><path d="m37.01-74.71.92.5.78.58.6.55.45.46.28.36.1.22-.11.08-.35-.09-.65-.3-1-.59-1.44-.93-1.92-1.34-2.43-1.77-3.03-2.27-3.83-2.87" filter="url(#a)"/><path d="m47.31-63.83 1.17 1.48.73 1.02.46.71.3.56.1.36-.16.04-.47-.34-.79-.71-1.1-1.05-1.4-1.37-1.74-1.71-2.12-2.13-2.57-2.65-3.18-3.32-3.97-4.15m20.5 21.58.91 1.88.52 1.15.31.84.01.45h-.35l-.73-.43-1.06-.82-1.4-1.17-1.74-1.52-2.12-1.89-2.56-2.33-3.04-2.85-3.58-3.48-4.11-4.19-4.55-4.87-4.94-5.5" filter="url(#a)"/><path d="m36.27-76.06-.24.09.52.65.54.64.31.52.03.42-.24.33-.5.26-.76.2-1.02.14-1.3.09-1.63.01-1.98-.11-2.39-.25-2.79-.43-3.21-.62-3.63-.79-4.07-.97-4.53-1.15-4.99-1.33-5.45-1.51-5.88-1.76-6.28-2.04" filter="url(#a)"/><path d="m35.1-76.75 1.55 1.47 1.2.99.99.84.87.79.78.76.71.72.66.68.6.65.53.61.42.52.25.37.05.17-.21-.06-.46-.34-.73-.62-.99-.92-1.28-1.23-1.58-1.54-1.94-1.87-2.39-2.25m15.71 16.54.1.35-.09.62-.48.58-1.08.25-1.74-.14-2.38-.43-2.98-.64-3.58-.81-4.23-.99-4.92-1.22-5.68-1.55-6.48-1.93L9-68.7.86-71.38l-8.96-3-9.71-3.4" filter="url(#a)"/><path d="m41.94-70.15.04-.22.64.64.85.97.85 1.03.75.94.6.82.44.67.31.52.16.39.02.23-.16.07-.34-.11-.56-.31-.81-.56-1.07-.82-1.32-1.07-1.59-1.32-1.82-1.52-2.06-1.74-2.33-1.99-2.66-2.31-3.11-2.74-3.75-3.31m34.31 39.13.18.25.41 1.28.41 1.39.29 1.1.12.74-.04.45-.22.18-.38-.05-.57-.3-.74-.56-.93-.86-1.14-1.18-1.34-1.53-1.57-1.88-1.79-2.23-2.04-2.57-2.3-2.93-2.56-3.34-2.84-3.76-3.11-4.18-3.4-4.62-3.67-5.03-3.83-5.43M14.12-87.99l1.08.31.56.25.38.22.22.21-.04.21-.37.2-.75.21-1.11.2-1.48.19-1.89.17-2.37.11-2.91.03-3.52-.03-4.18-.08-4.86-.14-5.56-.19" filter="url(#a)"/><path d="m-13.75-87.99 1.32-.33 1.23-.31 1.02-.21.81-.11.61-.01.4.06.2.16-.04.25-.29.38-.58.5-.9.65-1.25.8-1.61.95-1.98 1.09-2.33 1.21-2.68 1.34-3.08 1.46-3.55 1.62-4.06 1.79-4.6 2.01m70.21-2.06 1.55 1.47 1.2 1 1 .85.88.8.81.8.76.77.73.76.68.74.62.7.54.64.4.52.25.37.05.18-.16-.03-.37-.26-.61-.51-.85-.77-1.1-1.04-1.35-1.32-1.64-1.62-2.01-1.99-2.42-2.37" filter="url(#a)"/><path d="m32.07-79.37 1.36 1.1.93.78.87.77.86.79.87.79.82.74.75.65.61.56.47.45.31.34.17.23.02.11-.15-.01-.36-.17-.61-.37-.91-.62-1.25-.92-1.59-1.23-1.89-1.51-2.18-1.78-2.67-2.14m-30.26-9.11.46.03 1.15-.03 1.12-.01 1.03.01.99.03.91.05.74.07.54.1.36.1.18.11-.03.1-.31.09-.65.06-1.05.03-1.47.02-1.93.01h-2.39l-2.88-.02m-30.35 12.42 1.77-1.1 2.06-.91 2.4-.84 2.69-.79 2.92-.73 3.12-.7 3.35-.68 3.6-.69 3.83-.7 4.04-.7 4.14-.68 4.16-.64 4.2-.6 4.34-.57M5.9-89.82l-.12.09.72.3 1.19.43 1.55.51 1.75.57 1.83.62 1.83.65 1.79.67 1.74.69 1.68.69 1.6.68 1.51.66 1.42.61 1.29.55 1.16.5 1.02.42.86.35.69.26.51.18.26.07-.08-.12" filter="url(#a)"/><path d="m32.07-79.37 1.37 1.13 1 .85.98.9 1 .95 1.03.98 1.03.96.97.89.86.79.73.68.59.55.43.43.3.3.16.18-.02.02-.24-.19-.53-.47-.87-.81-1.31-1.19-1.84-1.71" filter="url(#a)"/><path d="m41.36-71.21 1.03 1.18.78 1.03.59.91.28.69-.05.43-.4.19-.73-.05-1.08-.28-1.46-.52-1.86-.78-2.28-1.06-2.72-1.36-3.17-1.7-3.68-2.07-4.25-2.42-4.81-2.75-5.28-3.06-5.62-3.4m47.81 33.58.35.68.44 1.1.18.91-.18.58-.5.3-.8.13-1.05-.01-1.32-.1-1.6-.21-1.92-.36-2.27-.57-2.65-.83-3.04-1.14-3.45-1.46-3.86-1.8-4.27-2.1-4.7-2.39-5.13-2.68-5.56-2.97-5.99-3.3-6.42-3.65-6.89-3.99-7.54-4.18" filter="url(#a)"/><path d="m56.84-48.45.26 1.07-.36.72-.93.51-1.51.4-2.11.31-2.76.16-3.45-.06-4.16-.4-4.89-.79-5.66-1.2-6.43-1.58-7.23-1.91-8.04-2.23-8.86-2.51-9.7-2.78-10.57-3.11-11.42-3.55M7.1-89.25l2.22.27 1.28.24.88.23.64.2.42.2.18.19-.1.18-.41.18-.72.17-1.08.16-1.46.17-1.85.16-2.23.15-2.62.15-3.07.13-3.62.1-4.21.04-4.82.01" filter="url(#a)"/><path d="m-13.91-87.95.57.01 1.3.29 2.12.46 2.76.65 3.23.89 3.58 1.13 3.87 1.33 4.11 1.51 4.32 1.64 4.53 1.78 4.67 1.89 4.8 1.99 4.89 2.05 4.98 2.08 5.06 2.05M5.9-89.82l-.18.04.55.18.93.23 1.16.24 1.27.25 1.24.25 1.12.23.99.22.81.2.63.16.44.14.22.1v.06l-.24.01-.49-.04-.72-.08-.96-.13-1.21-.18-1.54-.24L8-88.49l-2.25-.41-2.44-.51m30.84 11.78.34.24.94.91 1.11 1.14 1.24 1.26 1.3 1.28 1.27 1.24 1.17 1.17 1.05 1.07.89.93.73.75.55.55.34.31.05-.02-.52-.62" filter="url(#a)"/><path d="m-37.66-74.36.66-.75.95-.58 1.29-.64 1.68-.77 1.99-.87 2.2-.91 2.31-.88 2.35-.84 2.36-.78 2.36-.73 2.38-.69 2.41-.66 2.42-.65 2.45-.63 2.43-.62 2.4-.59 2.33-.57 2.2-.55 2.02-.52 1.75-.5 1.38-.46 1.01-.44" filter="url(#a)"/><path d="m-2.22-89.79 1.84-.1.87.07.39.21.13.33-.17.46-.54.6-.95.76-1.35.9-1.73 1.06-2.15 1.22-2.64 1.39-3.2 1.58-3.84 1.76-4.49 1.98-5.17 2.2-5.85 2.42-6.53 2.64m69.02-9.35.22.19.59.42.59.5.44.46.21.39-.01.3-.27.19-.56.03-.9-.13-1.26-.33-1.65-.52-2.05-.71-2.47-.91-2.93-1.09-3.4-1.29-3.89-1.49-4.41-1.77-5.24-2.07" filter="url(#a)"/><path d="m-16.66-87.23.9-.01h1.68l1.94.25 2.26.47 2.66.65 3.06.81 3.38.95 3.61 1.08 3.79 1.22 3.94 1.32 4.05 1.42 4.15 1.49 4.22 1.56 4.27 1.61 4.29 1.61 4.25 1.57 4 1.33m10.22 9.81 1.56 2.27.74 1.16.44.72.37.65.36.67.35.67.28.59.18.4-.02.09-.26-.29-.54-.72-.81-1.16-1.07-1.6-1.35-2.05-1.71-2.6-2.26-3.35m13.71 23.33.68 2.2.48 1.35.26.77.08.43-.09.13-.29-.22-.5-.61-.73-1.04-.98-1.52-1.25-2.12-1.55-2.77-1.86-3.47-2.24-4.19-2.69-4.96-3.18-5.85M24.32-83.7l.56.24.73.33.88.44.88.49.85.51.8.52.73.49.6.44.45.37.28.29.1.2-.09.12-.28.03-.49-.09-.73-.21-.98-.36-1.27-.52-1.58-.69-1.91-.86-2.27-1.05-2.64-1.23-3.07-1.43-3.71-1.64" filter="url(#a)"/><path d="m20.32-85.64.73.24 1.16.55 1.14.57.9.46.66.33.44.23.2.13-.06.03-.36-.09-.73-.24-1.16-.44-1.63-.67-2.19-.95-2.93-1.25m-40.92 2.91 1.13-.64.98-.39.77-.23.42-.02.06.22-.29.45-.62.69-.98.96-1.4 1.27-1.9 1.64-2.45 2.06-3.02 2.51-3.56 2.94-4.09 3.31-4.68 3.67M57.39-47.16l.35.96.01.76-.22.77-.5.76-.82.68-1.2.51-1.59.24-2.03-.07-2.48-.38-2.92-.67-3.37-.94-3.82-1.18-4.26-1.42-4.73-1.69-5.2-1.97-5.72-2.25-6.26-2.51-6.84-2.73-7.44-2.89-8.04-3.08-8.59-3.34-8.98-3.76m22.91-18.61h1.09l1.16.07 1.26.06 1.36.06 1.37.07 1.35.08 1.32.09 1.24.11 1.11.12.94.12.76.11.55.09.31.05h.01L9.13-89l-.67-.14-.91-.2-.98-.26m-24.23 2.93.98-.32 1.42-.16 1.79-.07 2 .03 2.22.13 2.48.19 2.71.22 2.9.26 3 .31 3.05.36 3.05.39 3.01.41 2.93.41 2.83.39 2.66.37 2.57.35 2.68.48" filter="url(#a)"/><path d="m31.34-79.59.86.55.67.69.31.67-.01.66-.31.65-.6.64-.92.61-1.29.58-1.7.55-2.13.53-2.55.52-2.96.51-3.36.51-3.76.49-4.18.47-4.65.42-5.17.36-5.72.29-6.27.22-6.85.2-7.43.16-8 .04m59-14.43.51.22.59.27.63.36.53.36.38.36.22.34.01.3-.23.22-.54.14-.85.04-1.19-.06-1.55-.15-1.92-.27-2.3-.39-2.71-.52-3.15-.66-3.62-.82-4.14-.98-4.68-1.15-5.21-1.3" filter="url(#a)"/><path d="M-7.32-89.62h1.87l1.52.09 1.58.27 1.75.44 1.93.56 2.1.66 2.23.74 2.33.81 2.42.89 2.47.95 2.5 1 2.5 1.03 2.49 1.04 2.47 1.01 2.43.98 2.36.92 2.25.89 2.12.87 1.99.83 1.84.79 1.72.74m-72.89-2.64 1.62-1.12 1.56-.92 1.59-.86 1.57-.8 1.55-.73 1.54-.7 1.55-.67 1.6-.68 1.64-.67 1.69-.67 1.7-.66 1.69-.62 1.63-.6 1.55-.55 1.4-.51 1.24-.45 1.06-.4.86-.34.68-.3.46-.22.19-.14.02-.06" filter="url(#a)"/><path d="M-9.68-89.22h1.22l1.49.03 1.63.1 1.81.19 1.98.27 2.13.36 2.24.42 2.32.47 2.38.5 2.4.51 2.39.52 2.34.52 2.25.51 2.11.49 1.89.44 1.67.37 1.54.32 1.64.4m8.4 5.17.05.11.09.52-.34.54-.79.47-1.33.37-1.96.24-2.63.12-3.34-.01-4.07-.13-4.79-.23-5.53-.33-6.28-.45-7.06-.58-7.95-.74-9.01-.97" filter="url(#a)"/></g><g fill="none" stroke="#000"><circle cx="9.71" cy="33.078" r="2.568" filter="url(#a)"/><circle cx="11.97" cy="30.786" r="2.47" filter="url(#a)"/><circle cx="8.674" cy="32.518" r="2.356" filter="url(#a)"/><circle cx="11.806" cy="30.878" r="1.94" filter="url(#a)"/><circle cx="11.47" cy="30.242" r="2.84" filter="url(#a)"/><circle cx="11.822" cy="33.69" r="2.768" filter="url(#a)"/><circle cx="8.966" cy="32.45" r="1.08" filter="url(#a)"/><circle cx="9.654" cy="33.99" r="2.262" filter="url(#a)"/><circle cx="8.274" cy="30.762" r="1.08" filter="url(#a)"/><circle cx="9.71" cy="32.262" r="1.506" filter="url(#a)"/><circle cx="-9.066" cy="32.88" r="2.942" filter="url(#a)"/><circle cx="-7.374" cy="35.928" r="1.984" filter="url(#a)"/><circle cx="-8.55" cy="35.596" r="2.476" filter="url(#a)"/><circle cx="-8.194" cy="32.896" r="2.578" filter="url(#a)"/><circle cx="-6.73" cy="34.436" r="1.142" filter="url(#a)"/><circle cx="-6.802" cy="35.864" r="1.212" filter="url(#a)"/><circle cx="-8.934" cy="35.788" r="1.716" filter="url(#a)"/><circle cx="-7.542" cy="32.984" r="1.39" filter="url(#a)"/><circle cx="-8.954" cy="36.008" r="1.942" filter="url(#a)"/><circle cx="-7.522" cy="33.336" r="1.64" filter="url(#a)"/></g><path fill="#66CC82" stroke="#000" stroke-linejoin="round" stroke-width="3" d="m-36.54 65.12.16-.61.18-.6.22-.59.24-.58.27-.58.29-.57.32-.56.35-.55.37-.54.4-.54.41-.52.45-.52.46-.51.48-.49.51-.49.53-.48.55-.47.56-.46.59-.45.61-.43.62-.43.64-.42.66-.4.67-.4.69-.38.7-.37.72-.36.73-.35.75-.33.76-.33.77-.31.78-.3.8-.28.8-.28.82-.26.82-.24.84-.24.84-.21.85-.21.86-.19.86-.18.87-.16.88-.15.88-.14.88-.12.89-.1.9-.09.89-.07.9-.06.9-.05.9-.02.9-.01h.9l.9.02.9.04.9.06.9.07.89.09.89.1.89.13.88.14.88.16.87.18.86.19.86.22.85.23.84.25.84.27.83.29.81.3.81.33.79.35.79.37.77.38.76.41.75.42.73.45.72.47.71.49.69.51.68.53.66.55.64.57.62.6.61.62.59.63.57.67.55.68.53.7.51.73.49.75.46.78.45.8.42.82.39.84.38.87.35.89.32.92.3.94.27.97-.27-.97-.3-.94-.32-.92-.35-.89-.38-.87-.39-.84-.42-.82-.45-.8-.46-.78-.49-.75-.51-.73-.53-.7-.55-.68-.57-.67-.59-.63-.61-.62-.62-.6-.64-.57-.66-.55-.68-.53-.69-.51-.71-.49-.72-.47-.73-.45-.75-.42-.76-.41-.77-.38-.79-.37-.79-.35-.81-.33-.81-.3-.83-.29-.84-.27-.84-.25-.85-.23-.86-.22-.86-.19-.87-.18-.88-.16-.88-.14-.89-.13-.89-.1-.89-.09-.9-.07-.9-.06-.9-.04-.9-.02h-.9l-.9.01-.9.02-.9.05-.9.06-.89.07-.9.09-.89.1-.88.12-.88.14-.88.15-.87.16-.86.18-.86.19-.85.21-.84.21-.84.24-.82.24-.82.26-.8.28-.8.28-.78.3-.77.31-.76.33-.75.33-.73.35-.72.36-.7.37-.69.38-.67.4-.66.4-.64.42-.62.43-.61.43-.59.45-.56.46-.55.47-.53.48-.51.49-.48.49-.46.51-.45.52-.41.52-.4.54-.37.54-.35.55-.32.56-.29.57-.27.58-.24.58-.22.59-.18.6" filter="url(#a)"/></svg>