<svg xmlns="http://www.w3.org/2000/svg" width="500" height="500" viewBox="-100 -100 200 200"><defs><clipPath id="c"><path d="m27.61 4.88-.23-.76-.24-.77-.27-.78-.28-.79-.31-.8-.34-.79-.35-.8-.38-.81-.4-.8-.43-.8-.44-.8-.47-.79-.49-.78-.52-.78-.53-.77-.51-.93-.54-.92-.57-.9-.62-.9-.65-.88-.68-.87-.72-.84-.75-.82-.79-.79-.82-.76-.85-.73-.88-.7-.9-.66-.94-.62-.96-.58-.98-.53-1-.49-1.03-.45-1.04-.4-1.05-.35-1.07-.31-1.09-.25-1.09-.21-1.1-.15-1.1-.11-1.11-.06-1.11-.01-1.11.04-1.1.09-1.1.13-1.1.18-1.09.22-1.07.26-1.07.31-1.04.34-1.04.38-1.02.41-.99.45-.98.48-.96.5-.93.53-.92.56-.88.57-.86.59-.84.61-.8.61-.78.63-.76.63-.72.64-.7.63-.67.64-.64.64-.62.65-.59.65-.56.65-.54.65-.51.66-.49.65-.45.64-.43.64-.41.64-.37.63-.35.62-.32.61-6.18 15.75.65.06.67.06.68.06.7.08.72.08.73.09.75.1.77.12.79.12.8.13.82.14.83.15.85.17.87.18.88.18.9.2.92.21.94.23.96.23.98.25.99.26 1.01.28 1.02.29 1.04.31 1.06.32 1.06.33 1.08.35 1.09.36 1.09.37 1.11.38 1.11.39 1.11.4 1.12.4 1.12.41 1.13.41 1.12.42 1.12.41 1.11.41 1.11.4 1.1.4 1.1.38 1.08.38 1.07.35 1.06.34 1.04.32 1.02.3 1.01.27.98.24.97.21.94.18.92.14.89.1.87.07.84.01.81-.02.78-.07.75-.13.72-.17.69-.22.65-.27.63-.33.59-.37.56-.43.52-.48.54-.24.53-.26.5-.29.48-.31.46-.34.44-.37.41-.38.4-.41.38-.43.35-.45.34-.46.31-.48.29-.5.27-.51.25-.53"/></clipPath><clipPath id="b"><path d="m-23.81 5.76.14-1.01.16-1.02.17-1.02.19-1.03.21-1.02.22-1.03.25-1.02.26-1.02.28-1.01.3-1 .32-.99.34-.98.35-.96.38-.95.39-.92.37-1.18.4-1.14.43-1.13.45-1.09.49-1.07.51-1.03.55-.99.57-.94.61-.91.64-.86.66-.8.7-.76.72-.71.75-.64.78-.6.8-.53.83-.48.86-.42.88-.36.89-.3.92-.24.94-.18.96-.12.97-.07h.98l1 .05 1 .11 1.01.16 1.02.21 1.03.27 1.02.31 1.03.36 1.02.4 1.02.45 1.02.49 1 .52 1 .56.98.59.97.62.95.64.94.67.91.69.9.7.87.72.85.73.82.74.79.74.77.75.74.74.7.74.68.74.65.74.62.74.59.73.57.74.53.73.51.72.47.72.44.71.41.7.38.69.34.68.31.67.28.65L40.4 15.32l-.71.04-.73.05-.74.06-.76.07-.78.08-.8.09-.81.09-.83.11-.85.12-.86.13-.87.15-.9.16-.9.17-.92.18-.94.2-.95.2-.98.22-.99.24-1.01.25-1.02.26-1.04.28-1.05.3-1.07.31-1.07.34-1.09.34-1.1.37-1.1.37-1.11.4-1.12.4-1.12.42-1.12.43-1.12.44-1.12.45-1.12.45-1.12.46-1.11.46-1.1.46-1.09.45-1.09.45-1.07.44-1.06.43-1.05.42-1.03.4-1.01.38-.99.36-.97.33-.96.3-.92.27-.91.24-.88.2-.85.15-.83.11-.8.07-.77.01-.74-.03-.71-.09-.68-.15-.65-.21-.62-.26-.59-.32-.56-.39-.53-.44-.49-.51-.47-.57-.49-.3-.46-.33-.45-.36-.42-.4-.41-.43-.39-.47-.36-.49-.35-.52-.33-.55-.31-.58-.29-.61-.27-.63-.25-.66-.23-.68-.21-.69"/></clipPath><filter id="a"><feTurbulence baseFrequency=".05" numOctaves="3" result="noise" type="noise"/><feDisplacementMap in="SourceGraphic" in2="noise" scale="2"/></filter></defs><rect width="100%" height="100%" x="-100" y="-100" fill="#F2DCA6"/><path fill="#2057DF" stroke="#000" stroke-linejoin="round" stroke-width="1.667" d="m80.99.56.06.81.14 1.91-.26.72.19 2.13-.49 1.46v.64l-.07.31-.37 5.08.4-3.43-.3 2-.4 2.76-.52 2.51.15.53.1-.41-.67 3.39-.57 1.54.04.98-.65 1.64-.33 2.03-.36.5.01-.21-1.11 3.34-.57 2.26-.61 1.12.3-.67-1.25 3.45-.22 1.42-.6.28.26-.77-.51 1.43-.64 1.54-.87 1.83.35-.9-1.32 2.98-.96 1.34-.24 1.3-.99 1.33-1.41 2.55-1.22 1.52-.71.89.62-.77-2.4 3.7.43-.89-.83 1.41-.75.52-.57 1.22-2.57 2.54-.16.49-.68.42-.06.46-1.44 1.46-.1-.08-2.7 2.58-1.44 1.84.58-.76.12.01-1.29 1.03-2.97 2.41.21.07-2.92 2.2 1.23-1.13-.4.56-1.26 1.17-2.12 1.07-1.16 1.42-.05-.57-1.7 1.36-.7.49-1.39.95-.57.06-.86.84-1.74.99-2.89 1.15-.33.35 1.22-.39-3.18 1.37-.72.36-1.41.18-2.22 1.1-1.09.09v.04l-3.07 1.36 1.39-.55-1.99.37-2.43.8-.68.02-.73.14-.24.43-2.24.17-2.28.66-1.79.26.55-.24-1.32.32-3.99.5 2.48-.32-2.29.14-4.24.4.67-.22-.74-.16-2.32.35-1.26-.26-1.2-.07-.79-.05.62.12-1.66-.24-.94.27-1.76-.48-1.81.08-3.03-.38-.69-.28-.94-.31-.84-.03-2.6-.54-1.99-.49.08-.2-.45-.06-1.35-.44-.64-.17-.69-.28-3.13-.78-.55-.56-1.01-.29-2.07-.65-1.27-1.06-.04.37-1.55-.83-.87-.31-1.68-.73 1.2.34-3.55-1.92-.1.23-1.03-.98-.84-.01-4.14-2.81.65.72-1.5-1.2-.63-.23-1.58-1.53.92.17-1.34-.44-1.45-1.18-1.62-1.63.19.6-1.22-1.26-2.75-2.73-.05.08-.66-1.01-.03.47-2.33-2.54-.3-.04-.56-1.35-2.36-2.45 1.12 1.89-2.03-3.18-1.89-2.24.83 1-1.61-1.75-.54-1.1-.82-.72-.12-.7-1.9-2.67-.01-.65-.96-1.14-.49-1.05.12.47-1.32-2.61-1.63-2.61.01-.51-.87-1.09-.94-2.14.18.09-.74-1.93-.44-.34-.71-2.4-.09-.61-.92-1.82-.65-1.66.29.28-.46-1.92-.8-1.34-.64-2.78.16.44-.49-1.23-.21-.97.15-1.16-.87-2.23.23.19-.57-2.88-.52-3.12.02.12-.1-.42-.43-3.09-.2-.7.06-1.73.17-.26-.39-2.27-.21-2.82.21.16-.23.16.08-2.8.05-2.6.19-1.82-.13-.27-.01-2.35-.03 1.52.31-3.43.33-2.87.08.63.1-2.74.15-1.5.03.82.84-3.84.16-.73.05-.52.04-.92.29-2.1.34-.79.62-2.38.11-1.06.54-1.57.49-.62.07-.65.86-2.56-.26.48.27-1.04 1.4-2.81.23-1.92.64-.89.73-1.08.33-.96.26-.67.41-.96 1.42-3.03-.39 1.33 1.11-2.77 2.14-3.28.52-.94-.45.66.67-.88 1.3-1.2 1.74-3.33-.59 1.28.92-2.13 1.1-.85.59-1.21.02-.22 2.78-2.8.7-.91 1.07-1.21-1.66 1.83 1.82-2 1.49-1.56.18-.44 1.68-1.66 1.1-.78-.02.25.19-.74 1.59-1.49 1.54-.9 3.09-2.71-.5.29 2.2-1.44-.49.45 1.28-.9 2.05-1.33-.16.03 1.74-1.02 1.45-.97.69-.3-.6-.01 1.34-.49 4.03-2.05.1-.26-.57.31.47-.17 4.65-2.29-.75.55 2.03-1.03 1.46-.47.49-.06.51-.15.65-.15 2.84-1.09.94-.09.54-.2 1.92-.58 1.48-.26.71-.11-.13-.31 4.14-.65-.44-.07 3.2-.5.44-.04 1.66.27 1.16-.43-.63.02 4.15.15.45-.02-1.25-.24 3.7-.11-1.25.13 1.58.23 3.01.01.88-.25.63.25.35-.17 4 .48 1.38.38-1.97-.16 4.79.65-1.16-.09 2.6.55.2-.27 2.36.78.37.18.8.08 2.55.68.69.24.94.41.81.06.73.31 1.36.8 1.08.19 3.31 1.58-.59-.31 2.84 1.22-1.75-.75 2.1 1.25 2.06.62.19.22.17.08 1.41 1.2 4.27 2.03-.38-.06-1.14-.45 3.51 2.18-.31-.29 1.6 1.28.74.62 2.48 2.07.23-.06 1.66 1.36 1.76 1.65-.67-1.08 1.54 1.83-.49-.29 3.63 3.45-1.37-1.54 1.53 1.67 1.37.97 2.13 2.88-.37-.52 1.47 1.56.57 1.49.11-.22.43.42 1.61 2.36 1.84 2.2-1.21-1.15 1.7 2.03.66.8.44 1.2 1.33 1.53.47 1.48 1.34 1.98-1.47-2.27 1.66 3.17.21.26.88 1.52 1.08 2.1.81 1.79-.44-.46 1.32 2.55.36.95 1.01 2.46.15 1 .07.63.79 2.01.26.9.61 2.42.52.31.12.57.51 2.48-.37-.38.78 1.76.5 2.24.07.23.17 2.28.62 1.79-.2.3.44 1.76.17 3.47.13.1.32 3.33-.18-.55.01 1.54-.02-.13.39 2.31-.17 1.55-.05 1.97.06.81" filter="url(#a)"/><path fill="#fff" d="m-23.81 5.76.14-1.01.16-1.02.17-1.02.19-1.03.21-1.02.22-1.03.25-1.02.26-1.02.28-1.01.3-1 .32-.99.34-.98.35-.96.38-.95.39-.92.37-1.18.4-1.14.43-1.13.45-1.09.49-1.07.51-1.03.55-.99.57-.94.61-.91.64-.86.66-.8.7-.76.72-.71.75-.64.78-.6.8-.53.83-.48.86-.42.88-.36.89-.3.92-.24.94-.18.96-.12.97-.07h.98l1 .05 1 .11 1.01.16 1.02.21 1.03.27 1.02.31 1.03.36 1.02.4 1.02.45 1.02.49 1 .52 1 .56.98.59.97.62.95.64.94.67.91.69.9.7.87.72.85.73.82.74.79.74.77.75.74.74.7.74.68.74.65.74.62.74.59.73.57.74.53.73.51.72.47.72.44.71.41.7.38.69.34.68.31.67.28.65L40.4 15.32l-.71.04-.73.05-.74.06-.76.07-.78.08-.8.09-.81.09-.83.11-.85.12-.86.13-.87.15-.9.16-.9.17-.92.18-.94.2-.95.2-.98.22-.99.24-1.01.25-1.02.26-1.04.28-1.05.3-1.07.31-1.07.34-1.09.34-1.1.37-1.1.37-1.11.4-1.12.4-1.12.42-1.12.43-1.12.44-1.12.45-1.12.45-1.12.46-1.11.46-1.1.46-1.09.45-1.09.45-1.07.44-1.06.43-1.05.42-1.03.4-1.01.38-.99.36-.97.33-.96.3-.92.27-.91.24-.88.2-.85.15-.83.11-.8.07-.77.01-.74-.03-.71-.09-.68-.15-.65-.21-.62-.26-.59-.32-.56-.39-.53-.44-.49-.51-.47-.57-.49-.3-.46-.33-.45-.36-.42-.4-.41-.43-.39-.47-.36-.49-.35-.52-.33-.55-.31-.58-.29-.61-.27-.63-.25-.66-.23-.68-.21-.69" filter="url(#a)" transform="translate(51.66 -26.7)"/><path fill="#fff" d="m27.61 4.88-.23-.76-.24-.77-.27-.78-.28-.79-.31-.8-.34-.79-.35-.8-.38-.81-.4-.8-.43-.8-.44-.8-.47-.79-.49-.78-.52-.78-.53-.77-.51-.93-.54-.92-.57-.9-.62-.9-.65-.88-.68-.87-.72-.84-.75-.82-.79-.79-.82-.76-.85-.73-.88-.7-.9-.66-.94-.62-.96-.58-.98-.53-1-.49-1.03-.45-1.04-.4-1.05-.35-1.07-.31-1.09-.25-1.09-.21-1.1-.15-1.1-.11-1.11-.06-1.11-.01-1.11.04-1.1.09-1.1.13-1.1.18-1.09.22-1.07.26-1.07.31-1.04.34-1.04.38-1.02.41-.99.45-.98.48-.96.5-.93.53-.92.56-.88.57-.86.59-.84.61-.8.61-.78.63-.76.63-.72.64-.7.63-.67.64-.64.64-.62.65-.59.65-.56.65-.54.65-.51.66-.49.65-.45.64-.43.64-.41.64-.37.63-.35.62-.32.61-6.18 15.75.65.06.67.06.68.06.7.08.72.08.73.09.75.1.77.12.79.12.8.13.82.14.83.15.85.17.87.18.88.18.9.2.92.21.94.23.96.23.98.25.99.26 1.01.28 1.02.29 1.04.31 1.06.32 1.06.33 1.08.35 1.09.36 1.09.37 1.11.38 1.11.39 1.11.4 1.12.4 1.12.41 1.13.41 1.12.42 1.12.41 1.11.41 1.11.4 1.1.4 1.1.38 1.08.38 1.07.35 1.06.34 1.04.32 1.02.3 1.01.27.98.24.97.21.94.18.92.14.89.1.87.07.84.01.81-.02.78-.07.75-.13.72-.17.69-.22.65-.27.63-.33.59-.37.56-.43.52-.48.54-.24.53-.26.5-.29.48-.31.46-.34.44-.37.41-.38.4-.41.38-.43.35-.45.34-.46.31-.48.29-.5.27-.51.25-.53" filter="url(#a)" transform="translate(-36.22 -21.83)"/><g fill="none" stroke="#000" transform="translate(51.66 -26.7)"><path stroke-linejoin="round" stroke-width="1.667" d="m-24.36 14.86-.01-.79.01-.83.02-.85.03-.88.04-.91.06-.94.08-.95.09-.97.11-.99.12-.99.14-1.01.16-1.02.17-1.02.19-1.03.21-1.02.22-1.03.25-1.02.26-1.02.28-1.01.3-1 .32-.99.34-.98.35-.96.38-.95.39-.92.37-1.18.4-1.14.43-1.13.45-1.09.49-1.07.51-1.03.55-.99.57-.94.61-.91.64-.86.66-.8.7-.76.72-.71.75-.64.78-.6.8-.53.83-.48.86-.42.88-.36.89-.3.92-.24.94-.18.96-.12.97-.07h.98l1 .05 1 .11 1.01.16 1.02.21 1.03.27 1.02.31 1.03.36 1.02.4 1.02.45 1.02.49 1 .52 1 .56.98.59.97.62.95.64.94.67.91.69.9.7.87.72.85.73.82.74.79.74.77.75.74.74.7.74.68.74.65.74.62.74.59.73.57.74.53.73.51.72.47.72.44.71.41.7.38.69.34.68.31.67.28.65.24.64.21.62.17.61.15.59.11.58.08.56.04.55.01.52-.01.51-.05.5" filter="url(#a)"/><path stroke-linejoin="round" stroke-width="2.222" d="m-24.35 11.69.05.75.06.76.07.76.09.77.11.77.13.76.14.76.16.74.17.73.2.72.21.69.23.68.25.66.27.63.29.61.31.58.33.55.35.52.36.49.39.47.41.43.42.4.45.36.46.33.49.3.47.57.49.51.53.44.56.39.59.32.62.26.65.21.68.15.71.09.74.03.77-.01.8-.07.83-.11.85-.15.88-.2.91-.24.92-.27.96-.3.97-.33.99-.36 1.01-.38 1.03-.4 1.05-.42 1.06-.43 1.07-.44 1.09-.45 1.09-.45 1.1-.46 1.11-.46 1.12-.46 1.12-.45 1.12-.45 1.12-.44 1.12-.43 1.12-.42 1.12-.4 1.11-.4 1.1-.37 1.1-.37 1.09-.34 1.07-.34 1.07-.31 1.05-.3 1.04-.28 1.02-.26 1.01-.25.99-.24.98-.22.95-.2.94-.2.92-.18.9-.17.9-.16.87-.15.86-.13.85-.12.83-.11.81-.09.8-.09.78-.08.76-.07.74-.06.73-.05.71-.04.69-.04.67-.03.66-.02.64-.02.62-.01.61-.01H46l.54.01" filter="url(#a)"/><circle cx="7.659" cy="2.3" r="4.598" clip-path="url(#b)" filter="url(#a)"/><circle cx="4.294" cy="2.62" r="3.276" clip-path="url(#b)" filter="url(#a)"/><circle cx="3.059" cy="2.645" r="4.174" clip-path="url(#b)" filter="url(#a)"/><circle cx="7.949" cy="5.855" r="4.466" clip-path="url(#b)" filter="url(#a)"/><circle cx="3.829" cy="4.165" r="4.77" clip-path="url(#b)" filter="url(#a)"/><circle cx="5.124" cy="5.555" r="3.568" clip-path="url(#b)" filter="url(#a)"/><circle cx="7.539" cy="3.005" r="4.378" clip-path="url(#b)" filter="url(#a)"/><circle cx="5.129" cy="3.59" r="4.022" clip-path="url(#b)" filter="url(#a)"/><circle cx="4.469" cy="3.495" r="4.932" clip-path="url(#b)" filter="url(#a)"/><circle cx="4.564" cy="2.89" r="4.868" clip-path="url(#b)" filter="url(#a)"/></g><g fill="none" stroke="#000" transform="translate(-36.22 -21.83)"><path stroke-linejoin="round" stroke-width="2.222" d="m28.73 11.58-.03-.57-.05-.6-.06-.62-.09-.64-.1-.67-.12-.68-.13-.71-.16-.72-.18-.74-.2-.75-.23-.76-.24-.77-.27-.78-.28-.79-.31-.8-.34-.79-.35-.8-.38-.81-.4-.8-.43-.8-.44-.8-.47-.79-.49-.78-.52-.78-.53-.77-.51-.93-.54-.92-.57-.9-.62-.9-.65-.88-.68-.87-.72-.84-.75-.82-.79-.79-.82-.76-.85-.73-.88-.7-.9-.66-.94-.62-.96-.58-.98-.53-1-.49-1.03-.45-1.04-.4-1.05-.35-1.07-.31-1.09-.25-1.09-.21-1.1-.15-1.1-.11-1.11-.06-1.11-.01-1.11.04-1.1.09-1.1.13-1.1.18-1.09.22-1.07.26-1.07.31-1.04.34-1.04.38-1.02.41-.99.45-.98.48-.96.5-.93.53-.92.56-.88.57-.86.59-.84.61-.8.61-.78.63-.76.63-.72.64-.7.63-.67.64-.64.64-.62.65-.59.65-.56.65-.54.65-.51.66-.49.65-.45.64-.43.64-.41.64-.37.63-.35.62-.32.61-.29.6-.27.6-.24.58-.21.57-.19.56-.16.54-.14.54-.11.52-.09.51-.06.5m61.35 9.96-.06.48-.08.5-.09.52-.11.53-.13.53-.15.54-.17.54-.19.55-.21.53-.23.53-.25.53-.27.51-.29.5-.31.48-.34.46-.35.45-.38.43-.4.41-.41.38-.44.37-.46.34-.48.31-.5.29-.53.26-.54.24-.52.48-.56.43-.59.37-.63.33-.65.27-.69.22-.72.17-.75.13-.78.07-.81.02-.84-.01-.87-.07-.89-.1-.92-.14-.94-.18-.97-.21-.98-.24-1.01-.27-1.02-.3-1.04-.32-1.06-.34-1.07-.35L2 22.87l-1.1-.38-1.1-.4-1.11-.4-1.11-.41-1.12-.41-1.12-.42-1.13-.41-1.12-.41-1.12-.4-1.11-.4-1.11-.39-1.11-.38-1.09-.37-1.09-.36-1.08-.35-1.06-.33-1.06-.32-1.04-.31-1.02-.29-1.01-.28-.99-.26-.98-.25-.96-.23-.94-.23-.92-.21-.9-.2-.88-.18-.87-.18-.85-.17-.83-.15-.82-.14-.8-.13-.79-.12-.77-.12-.75-.1-.73-.09-.72-.08-.7-.08-.68-.06-.67-.06-.65-.06-.63-.04-.62-.04-.59-.04-.59-.03-.56-.02-.55-.02-.53-.02-.52-.01-.5-.01h-.48" filter="url(#a)"/><circle cx="11.935" cy="-10.393" r="3.294" clip-path="url(#c)" filter="url(#a)"/><circle cx="9.275" cy="-6.708" r="3.74" clip-path="url(#c)" filter="url(#a)"/><circle cx="12.715" cy="-9.983" r="4.416" clip-path="url(#c)" filter="url(#a)"/><circle cx="9.595" cy="-8.933" r="3.596" clip-path="url(#c)" filter="url(#a)"/><circle cx="10.39" cy="-9.008" r="4.366" clip-path="url(#c)" filter="url(#a)"/><circle cx="9.725" cy="-8.163" r="4.452" clip-path="url(#c)" filter="url(#a)"/><circle cx="11.84" cy="-6.318" r="4.994" clip-path="url(#c)" filter="url(#a)"/><circle cx="12.06" cy="-7.048" r="4.806" clip-path="url(#c)" filter="url(#a)"/><circle cx="10.03" cy="-9.388" r="3.6" clip-path="url(#c)" filter="url(#a)"/><circle cx="11.945" cy="-9.388" r="3.914" clip-path="url(#c)" filter="url(#a)"/></g><g fill="none" stroke="#861334" stroke-linejoin="round" stroke-width="2"><path d="m-.27-89.23 1.97.24 2.22.34 2.22.51 2.37.72 2.63.92 2.85 1.1 3 1.23 3.09 1.34 3.17 1.42 3.24 1.47 3.28 1.51 3.26 1.5 3.19 1.46 3.08 1.41 2.95 1.35 2.83 1.33 2.67 1.27 2.38 1.1M11.56-88.3l-.06.07 1.25.23 1.35.26 1.29.25 1.2.25 1.1.25.95.23.78.21.56.16.28.11-.04.04-.37-.03-.73-.09-1.08-.17-1.5-.27-2.05-.38-2.7-.53-3.22-.67" filter="url(#a)"/><path d="m43.71-75.08.17.17.54.6.49.71.23.64-.17.49-.64.31-1.17.12-1.71-.04-2.24-.18-2.76-.29-3.28-.41-3.81-.54-4.37-.68-4.98-.85-5.67-1.02-6.42-1.23-7.23-1.46-8.05-1.7-8.69-1.99m-23.8 4.87 1.12-.71.87-.53 1.03-.58 1.29-.68 1.35-.71 1.21-.63 1-.52.79-.39.58-.28.32-.14-.03.05-.48.28-1.08.57-1.8.91-2.25 1.12m45.52-8.66 2.98.47 1.73.39 1.61.44 1.68.52 1.77.6 1.83.64 1.84.67 1.8.68 1.74.65 1.62.62 1.52.59 1.43.56 1.34.53 1.2.49 1 .39.68.23.29.05-.07-.13-.25-.2-.44-.21m2.56 1.7 2.45 1.21.77.46.28.3.11.25-.1.18-.41.07-.82-.1-1.32-.32-1.9-.6-2.58-.94-3.35-1.31-4.14-1.71-4.88-2.1-5.38-2.44" filter="url(#a)"/><path d="m-39.85-77.56 1.02-.66.57-.36.53-.28.56-.23.44-.12.12.11-.24.37-.59.65-.96.95-1.39 1.28-1.87 1.64-2.41 1.98-2.97 2.32-3.65 2.81-4.64 3.61m26.29-19.75 1.82-.74 1.61-.38 1.62-.21 1.85-.16 2.14-.16 2.42-.15 2.61-.14 2.73-.1 2.82-.07 2.86-.06 2.9-.03 2.95-.03h2.98l2.97.03 2.93.07 2.83.11 2.67.13 2.45.11 2.17.08h1.87l1.56-.08 1.37-.11m2.18.25 1.42.72 1.73.82 1.8.9 1.7.91 1.6.91 1.57.91 1.57.93 1.58.94 1.57.95 1.54.95 1.49.91 1.36.84 1.15.72.88.54.54.34.17.09-.25-.21-.71-.57" filter="url(#a)"/><path d="m-41.43-76.57.45-.31.99-.62.98-.61.9-.56.91-.52.91-.51.88-.46.76-.39.62-.28.46-.17.3-.05.09.08-.17.25-.5.45-.86.68-1.25.95-1.64 1.2-1.98 1.43-2.28 1.62-2.56 1.75-2.88 1.89-3.43 2.2m109.9 7.47 1.05 1.31.6.88.46.69.43.66.35.62.21.49.02.32-.2.12-.44-.07-.69-.29-.98-.54-1.3-.83-1.62-1.14-1.94-1.46-2.25-1.75-2.55-2.04-2.88-2.34-3.3-2.69-3.84-3.14-4.48-3.67-5.08-4.2" filter="url(#a)"/><path d="m-15.47-87.43 1.1-.3 2.03-.18 2.22.01 2.33.2 2.4.35 2.49.48 2.59.58 2.71.67 2.8.73 2.87.79 2.92.81 2.97.84 3.01.85 3.06.87 3.1.88 3.1.88 3.07.9 3.02.9 2.94.91 2.78.9 2.54.82 2.22.68 1.86.48M22.79-85.66l.95.36 1.15.45 1.39.61 1.62.74 1.75.8 1.7.78 1.54.71 1.28.59 1 .47.68.3.33.11-.03-.07-.33-.22-.65-.3" filter="url(#a)"/><path d="m35.68-80.28.14.22.31.43.32.55-.09.46-.75.26-1.47.09-2.15-.04-2.8-.13-3.47-.23-4.18-.36-4.97-.52-5.84-.72-6.81-.95-7.85-1.2-9.09-1.4" filter="url(#a)"/><path d="m-33.41-81.33 1.59-.61 2.24-.67 2.25-.43 2.28-.21 2.39-.05 2.55.06 2.76.12 2.99.17 3.21.2 3.38.24 3.53.28 3.62.34 3.71.37 3.76.41 3.81.44 3.8.43 3.75.43 3.64.4 3.5.39 3.33.37 3.16.36 3 .36 2.91.36" filter="url(#a)"/><path d="m-32.94-81.5 3.21-1.26 2.54-.37 2.86.01 3.33.26 3.81.45 4.31.58 4.82.68 5.3.76 5.71.86 6.02.95 6.29 1.06 6.51 1.17 6.72 1.29 6.86 1.38 6.78 1.28m9.07 2.87.85 1.25.3.94-.17.79-.7.68-1.21.64-1.76.6-2.38.53-3.05.4-3.78.25-4.51.09-5.22-.04-5.91-.14-6.65-.21-7.44-.27-8.33-.31-9.27-.34-10.17-.38-10.92-.51-11.44-.88" filter="url(#a)"/><path d="m-28.29-83.79.17.05.98-.36 1.07-.37 1.03-.34 1.01-.32 1.04-.32 1.02-.31.96-.28.84-.23.69-.17.5-.11.31-.03.08.06-.15.17-.44.28-.75.41-1.09.54-1.49.69-1.92.83-2.35.99-2.72 1.09-2.98 1.15-3.33 1.23m45.4-9.32 2.97.47 1.71.38 1.56.44 1.62.51 1.7.58 1.76.64 1.79.67 1.8.71 1.77.71 1.73.72 1.66.71 1.59.7 1.52.66 1.41.61 1.26.53 1.07.43.85.33.64.23.43.14.17.01-.19-.18-.72-.44-1.09-.67" filter="url(#a)"/><path d="m9.59-88.46 2.95.44 1.64.32 1.44.32 1.45.36 1.45.38 1.45.4 1.4.41 1.33.39 1.19.36 1.04.33.84.27.65.22.44.16.22.08h-.03l-.31-.1-.68-.23-1.09-.36-1.6-.52-2.13-.68" filter="url(#a)"/><path d="m11.56-88.3-.03.08 1.32.27 1.46.31 1.46.33 1.45.35 1.44.36 1.39.38 1.33.37 1.22.35 1.05.31.86.25.66.2.46.15.28.11.1.05-.16-.02-.5-.13-.92-.26-1.38-.42-1.77-.55-2.16-.72m18.33 7.75 2.53 1.25.99.58.71.5.75.55.78.61.77.62.67.59.52.51.31.39.04.24-.25.07-.54-.09-.82-.24-1.1-.38-1.39-.52-1.69-.68-2.03-.86-2.4-1.04-2.79-1.26-3.23-1.5-3.7-1.77-4.21-2.05-4.93-2.38" filter="url(#a)"/><path d="m-16.18-87.32.8-.18 1.49-.25 1.96-.25 2.16-.18 2.2-.11 2.16-.05 2.12.01 2.08.03 2.03.06 1.96.07 1.85.06 1.68.05 1.51.04 1.35.03 1.17.02h.95l.67-.02.25-.05-.4-.11M70.12-44.5l.43.69.64 1.2.62 1.24.49 1.1.38.95.27.82.16.65.01.44-.15.19-.31-.09-.48-.41-.67-.75-.88-1.14-1.14-1.57-1.41-2-1.69-2.44-1.95-2.85-2.22-3.28-2.47-3.73-2.69-4.2-2.77-4.51" filter="url(#a)"/><path d="m69.93-45.4-.69-.64-.28.67-.52.93-.95.95-1.47.85-2.04.72-2.59.57-3.17.44-3.76.31-4.36.18-4.97.02-5.58-.16-6.19-.35-6.82-.54-7.48-.7-8.17-.85-8.86-.97-9.56-1.12-10.22-1.26-10.82-1.42-11.43-1.6-12.08-1.72M-23.9-85.1l2.04-.71 1.25-.35.98-.21.8-.13.65-.05.48.07.33.17.15.31-.07.44-.34.62-.66.78-1.03.98-1.4 1.16-1.79 1.35-2.16 1.53-2.55 1.69-2.96 1.88-3.4 2.12-3.88 2.4-4.35 2.71-4.79 3-5.26 3.25-5.83 3.62m121.05 3 .85 1.15.16.47-.05.38-.27.31-.58.15-.98-.11-1.43-.46-1.92-.84-2.42-1.22-2.89-1.55-3.39-1.87-3.91-2.19-4.51-2.58-5.14-3-5.8-3.47-6.48-3.94-7.29-4.4L9-83.58" filter="url(#a)"/><path d="m61.75-57.83 1.11 1.9.07 1.09-.78.63-1.44.47-2.08.39-2.75.3-3.48.16-4.27-.06-5.1-.29-5.95-.46-6.81-.59-7.66-.67-8.51-.75-9.34-.92-10.17-1.19-11.06-1.51-12.03-1.73-13.05-1.87" filter="url(#a)"/><path d="m66.35-51.59.38 1.07-.05.81-.73.32-1.48-.24-2.18-.7-2.86-1.06-3.53-1.38-4.26-1.73-5.07-2.17-5.97-2.68-6.96-3.22-8-3.76-9.08-4.29-10.11-4.85-10.99-5.51" filter="url(#a)"/><path d="m-38.4-78.53.6-.22 1.22-.3 1.94-.42 2.35-.39 2.56-.29 2.77-.2 3.02-.13 3.28-.09 3.48-.04 3.63.04 3.72.12 3.83.19 3.91.25 4.02.29 4.1.3 4.13.29 4.11.28 4.04.24 3.94.23 3.85.21 3.75.21 3.66.21 3.57.25m-6.65-5.12 1.51.67.79.4.85.42.86.44.79.43.69.42.57.39.36.31.09.19-.23.06-.58-.09-.92-.22-1.27-.37-1.66-.53-2.08-.72-2.57-.93-3.1-1.2-3.71-1.47-4.59-1.8M70.12-44.5l.41.67.63 1.15.58 1.17.43.95.25.68.09.43-.1.14-.31-.23-.59-.69-.88-1.23-1.18-1.77L68-45.54l-1.71-2.9-2.04-3.58-2.38-4.24" filter="url(#a)"/><path d="m68.12-48.86.29 1.11-.36.28-.99-.25-1.51-.54-2.08-.83-2.74-1.19-3.49-1.68-4.33-2.25-5.23-2.88-6.15-3.54-7.06-4.19-7.94-4.9-8.8-5.63-9.51-6.43m-41.63.45 1.42-.65 1.75-.8 1.41-.61 1.09-.44.82-.29.6-.16.39-.06.22.03.03.14-.21.25-.53.41-.9.58-1.35.78-1.79.99-2.26 1.2-2.69 1.37-3.14 1.55-3.63 1.73M-6.6-88.73l.87-.25 1.07-.08 1.17-.03 1.03-.02.87-.03.75-.01.69.02.61.04.46.06.26.09-.01.13-.31.18-.64.24-1 .27-1.4.32-1.83.34-2.29.37-2.8.41-3.33.47-3.88.52-4.31.51" filter="url(#a)"/><path d="m33.62-80.9 1.2.48.36.49.1.7-.14.86-.55.92-1.09.93-1.65.95-2.18 1-2.69 1.1-3.2 1.19-3.72 1.27-4.28 1.33-4.89 1.37-5.58 1.42-6.32 1.48-7.07 1.55-7.8 1.65-8.47 1.72-9.1 1.79-9.75 1.8-10.47 1.92" filter="url(#a)"/><path d="m66.79-50.39.94 1.37.44.98.06.55-.21.31-.38.21-.56.15-.78.02-1.05-.15-1.38-.4-1.72-.67-2.1-.95-2.48-1.27-2.89-1.59-3.32-1.95-3.78-2.33-4.26-2.72-4.73-3.11-5.22-3.5-5.73-3.91-6.28-4.33-6.85-4.75-7.13-5.23" filter="url(#a)"/><path d="m-15.47-87.43 1.22-.23 2.42.04 2.88.34 3.21.64 3.5.92 3.79 1.14 4.06 1.33 4.34 1.49 4.58 1.62 4.8 1.75 4.98 1.85 5.11 1.94 5.23 1.96 5.26 1.91 5.16 1.76 4.91 1.55m-78.27-16.37.11.07.83-.3.82-.28.6-.17.4-.07.21.04-.06.15-.38.32-.79.5-1.3.73-1.9.99-2.56 1.3-3.28 1.62-4.08 2.03" filter="url(#a)"/><path d="m22.79-85.66.79.3.65.28.61.36.56.44.42.47.13.46-.23.41-.63.36-1.03.32-1.4.31-1.75.29-2.11.31-2.5.31-2.94.34-3.43.34-3.99.32-4.55.28-5.1.23-5.65.21-6.29.23-7.06.29-7.63.22" filter="url(#a)"/><path d="m6.18-89.16 2.67.42 1.14.35.57.37.31.42.06.5-.26.6-.6.72-.97.82-1.36.94-1.75 1.05-2.18 1.17-2.65 1.29-3.14 1.42-3.63 1.56-4.1 1.7-4.56 1.83-5.05 1.98-5.63 2.16-6.3 2.38-7.05 2.62-7.72 2.78-8.26 2.87" filter="url(#a)"/><path d="m-19.58-86.48 1.8-.4 1.83-.21 2.03-.12 2.39-.1 2.74-.05 2.99.01 3.11.09 3.15.17 3.13.23 3.07.27 2.99.26 2.82.23 2.6.18 2.34.11 2.17.1 2.1.15m-65.95 10.77.14-.03.79-.5.91-.6.8-.51.57-.35.27-.12-.09.14-.4.41-.69.66-1.02.9-1.47 1.23-2.09 1.66-2.73 2.17-3.29 2.68" filter="url(#a)"/><path d="m15.82-87.35.85.09 1.39.43 1.58.55 1.71.61 1.77.66 1.76.67 1.69.66 1.62.65 1.57.65 1.52.64 1.42.61 1.23.51.89.35.47.14.08-.05-.14-.13-.36-.18m24.67 19.93.06.09.24.56.01.48-.26.35-.51.25-.8.13-1.17-.05-1.58-.28-2.01-.52-2.45-.75-2.89-.99-3.38-1.25-3.9-1.56-4.48-1.89-5.06-2.25-5.65-2.57-6.23-2.87-6.84-3.15-7.55-3.46-8.25-3.81" filter="url(#a)"/><path d="m51.87-68.45-.27-.27-.17.39-.45.51-.96.4-1.56.25-2.21.1-2.89-.03-3.65-.23-4.47-.48-5.38-.75-6.32-1.03-7.31-1.26-8.29-1.44-9.22-1.64-10-1.97-10.56-2.51" filter="url(#a)"/><path d="m45.74-73.47 1.76 1.41 1.26.97 1.1.87.94.77.81.71.74.69.69.67.62.63.54.57.4.48.24.36.03.2h-.21l-.48-.21-.75-.45-1.02-.67-1.3-.92-1.61-1.16L47.54-70l-2.31-1.75-2.62-2.03-2.97-2.3-3.6-2.69m-5.61-3.85 1.35.63.34.29.07.25-.24.2-.67.13-1.16.07-1.7-.02-2.32-.15-3.11-.35-3.99-.57-4.92-.75-5.91-.91-6.98-1.04-8.08-1.19m.82-3.11 2.58.09.97.01.41.03.17.11-.01.21-.26.3-.59.39-1.01.5-1.51.6-2.04.75-2.66.9-3.34 1.06-4.03 1.19-4.7 1.29-5.43 1.42-6.4 1.69" filter="url(#a)"/><path d="m-27.01-84.27 1.22-.31 1.19-.2 1.5-.22 1.88-.28 2.15-.3 2.33-.3 2.41-.29 2.46-.26 2.49-.24 2.52-.22 2.53-.21 2.51-.19 2.44-.17 2.28-.14 2.08-.12 1.83-.09 1.55-.07 1.29-.07.99-.07.42-.12m4.96.52 1.75.6 1.44.52 1.56.57 1.67.65 1.72.7 1.71.75 1.73.79 1.78.84 1.82.88 1.82.89 1.75.86 1.58.78 1.35.65 1.1.52.85.37.62.24.4.12.19.01.08-.04.24.02" filter="url(#a)"/><path d="m13.22-87.9 1.9.36 1.48.32 1.43.39 1.43.43 1.47.45 1.45.47 1.39.46 1.32.46 1.24.44 1.17.44 1.11.43 1.01.4.88.35.69.29.46.19.2.09-.09-.04-.4-.16-.74-.3-1.04-.42-1.29-.53-1.5-.6-1.77-.72" filter="url(#a)"/></g><path fill="none" stroke="#000" stroke-linejoin="round" stroke-width="3" d="M-9.07 19.74Q12.7 30.195 1.815-5.082" filter="url(#a)"/><path fill="#6683CC" stroke="#000" stroke-linejoin="round" stroke-width="3" d="m-23.5 89.97.11-1.5.14-1.46.15-1.43.18-1.39.19-1.37.22-1.33.23-1.3.26-1.26.27-1.24.29-1.2.3-1.17.33-1.14.34-1.11.36-1.07.37-1.05.39-1.01.4-.98.42-.95.43-.92.44-.89.46-.86.47-.82.48-.8.5-.77.5-.73.52-.71.53-.68.53-.64.55-.62.55-.59.57-.55.57-.53.58-.5.59-.47.59-.44.6-.41.61-.39.61-.35.62-.33.63-.29.62-.27.63-.24.64-.22.63-.18.64-.16.65-.13.64-.1.65-.07.64-.05.65-.02.64.01.65.03.64.06.64.09.65.12.63.14.64.16.63.2.63.22.63.24.62.27.61.3.61.32.61.35.6.38.59.4.58.42.58.45.57.47.56.5.55.53.54.55.54.57.52.6.51.62.5.64.49.67.48.7.46.71.45.74.44.77.43.79.41.81.39.83.39.86.36.88.35.9.33.92.32.95.3.97.28.99.27 1.02.24 1.04.23 1.05.2 1.08.19 1.11.17 1.12.14 1.14.13 1.17-.46-.7-.47-.68-.46-.67-.46-.66-.46-.64-.46-.63-.47-.62-.46-.6-.46-.59-.46-.58-.46-.56-.47-.55-.46-.53-.46-.52-.46-.5-.46-.5-.46-.47-.47-.46-.46-.45-.46-.44-.46-.41-.46-.41-.47-.39-.46-.37-.46-.36-.46-.35-.46-.32-.47-.32-.46-.3-.46-.28-.46-.27-.46-.25-.46-.24-.47-.22-.46-.21-.46-.19-.46-.17-.46-.16-.47-.14-.46-.13-.46-.11-.46-.09-.46-.08-.47-.06-.46-.05-.46-.03-.46-.01-.46.01-.46.02-.47.04-.46.05-.46.07-.46.09-.46.11-.47.12-.46.14-.46.16-.46.18-.46.19-.47.21-.46.23-.46.24-.46.27-.46.28-.46.3-.47.31-.46.34-.46.35-.46.37-.46.39-.47.41-.46.43-.46.44-.46.47-.46.48-.47.5-.46.52-.46.54-.46.56-.46.57-.46.6-.47.62-.46.63-.46.65-.46.68-.46.69-.47.71-.46.73-.46.75-.46.78-.46.79-.47.81-.46.83-.46.85-.46.87-.46.89-.46.92-.47.93-.46.95" filter="url(#a)"/></svg>