<svg xmlns="http://www.w3.org/2000/svg" width="500" height="500" viewBox="-100 -100 200 200"><defs><clipPath id="c"><path d="m33.99-8.66-.43-.61-.46-.61-.49-.6-.51-.6-.54-.59-.57-.58-.59-.56-.61-.55-.64-.53-.66-.51-.69-.49-.7-.46-.72-.44-.74-.42-.76-.39-.82-.7-.84-.65-.87-.59-.9-.53-.92-.48-.94-.41-.97-.36-.99-.3-1-.24-1.02-.18-1.04-.12-1.05-.07-1.06-.02-1.07.04-1.07.08-1.08.13-1.08.18-1.09.22-1.08.26-1.08.3-1.07.33-1.07.37-1.06.39-1.05.42-1.04.45-1.03.47-1.01.48-.99.51-.98.52-.96.52-.94.54-.92.55-.9.55-.87.55-.85.56-.83.55-.8.56-.78.55-.76.54-.72.54-.7.53-.68.52-.65.52-.63.5-.6.5-.57.48-.55.48-.53.46-.5.46-.48.45-.46.44-.43.43-.42.42-.4.41-.37.4-.35.4-.33.38-.32.38-.29.37-.27.36-.26.36-.23.35-.22.34-.19.33.49 5.4.33.3.35.3.37.3.38.31.39.32.41.32.42.32.44.33.45.33.46.33.48.34.5.34.51.35.52.34.53.35.56.36.57.35.58.36.6.36.62.37.64.36.65.36.67.37.68.36.7.35.72.36.73.34.74.35.76.33.77.32.79.32.8.3.81.29.82.28.84.26.85.25.85.22.87.21.88.19.89.17.89.14.9.12.91.09.92.07.92.03.92.01.93-.02.94-.05.93-.08.94-.11.94-.15.94-.18.93-.21.94-.25.93-.28.93-.31.93-.35.92-.38.91-.42.91-.44.89-.48.89-.51.88-.53.86-.56.74-.38.73-.4.72-.41.71-.43.69-.44.68-.45.67-.46.65-.47.63-.47.61-.49.6-.49.57-.5.55-.5.53-.5.5-.5"/></clipPath><clipPath id="b"><path d="m-36.89-7.29.44-.45.47-.45.51-.44.53-.44.56-.43.59-.43.61-.41.63-.4.66-.39.68-.37.71-.35.72-.34.74-.32.75-.31.77-.28.87-.5.88-.46.91-.43.93-.38.95-.34.97-.3.98-.26 1-.22 1.01-.17 1.02-.14 1.03-.09 1.03-.05 1.05-.02 1.04.02 1.05.06 1.05.09 1.04.12 1.05.15 1.04.19 1.03.2 1.03.24 1.02.26 1.01.27 1 .3.98.32.97.33.96.35.94.35.92.37.91.38.89.38.87.39.84.4.83.4.81.4.78.39.77.4.74.4.71.39.7.39.67.39.65.38.63.37.6.37.59.36.56.36.54.34.52.35.49.33.48.33.46.32.44.32.43.31.4.31.39.3.37.29.35.29.34.28.31.28.3.27.29.27.26.26.26.26.23.25 1.31 4.53-.25.23-.27.24-.28.25-.28.24-.3.26-.31.26-.32.26-.33.27-.34.27-.35.27-.37.28-.37.28-.39.29-.4.29-.41.29-.42.3-.44.3-.45.3-.47.31-.48.3-.5.31-.51.32-.52.31-.55.31-.55.31-.58.3-.58.31-.61.3-.62.29-.64.29-.66.28-.67.27-.69.26-.7.25-.73.24-.74.22-.76.21-.78.2-.79.17-.81.16-.83.14-.85.12-.86.09-.88.07-.9.05-.92.03-.93-.01-.94-.03-.97-.05-.97-.09-1-.12-1-.14-1.02-.18-1.03-.2-1.04-.24-1.06-.27-1.06-.29-1.07-.33-1.07-.36-1.08-.39-1.09-.41-1.09-.45-1.08-.47-1.09-.49-.88-.33-.88-.35-.86-.35-.87-.37-.85-.38-.84-.39-.82-.41-.82-.41-.79-.41-.78-.43-.76-.43-.73-.43-.71-.43-.68-.44-.66-.44"/></clipPath><filter id="a"><feTurbulence baseFrequency=".05" numOctaves="3" result="noise" type="noise"/><feDisplacementMap in="SourceGraphic" in2="noise" scale="2"/></filter></defs><rect width="100%" height="100%" x="-100" y="-100" fill="#A6F2B6"/><path fill="#DF20B7" stroke="#000" stroke-linejoin="round" stroke-width="1.667" d="m75.88-.42-.21 2.39.16 1.43.05.48-.11 2.04-.36 2.86.14.75.08-.6-.1-.81-.66 5.56.42-1.84-.49 1.66-.3 2.25.04.53-.25 1.06-.14.77-.41 1.75-.93 2.76.05.54-.62 1.92-.26.49-.05.97-.25.42-.54 2.22-.78 1.48.2-.4-.84 1.52-.52 1.99.5-.83-2.12 4.5.02-.12-.94 1.91-.3-.09-.28.84-1.31 3.17-.52.6-.47.73-.46.95-.98 1.52-.32.59-1.06 1.52.04-.49-.97 1.19-1.06 1.57-1.3 1.75.74-.75-1.39 1.7-.62.78-.27.35-1.14 1.37-.45 1.01-.71.56-.65.16-2.13 2.45-1.47 1.71 1.56-1.68-2.02 2.08-.38.29-1.61.94-1.45 1.66-.42.33-.58.24-1.4 1.07-.94.87-2.7 1.78-.48.53.24-.7-1.34 1.35-3.28 1.66.51-.28.47-.31-1.71.88-2.47 1.4.28-.21.13-.07-2.74 1.54-2.57.99-1.53.58.17-.15-1.56.62-1.52.57-.63.09.34.02-2.65.88-1.99.33.06.27-.83-.02-2.01.52.59.05-1.32.05-4 .78.77-.13.36-.17-2 .36-1.54.27-2.92.34-.73-.24-1.56.1-.99-.02-.62-.08-1.06.28-1.71.02.51.01.03-.05-1.36-.2-4.07-.19-.39-.18.07.16-3.45-.64-.5-.08.27.18-.39.12-4.06-.83.64.11-1.66-.58-.83-.04-1.14-.23-2.08-.7-1.5-.35-.18-.12-.47-.27-1.75-.66-2.86-1.31 1.6.86-2.29-.72-.31-.35-2.08-1-1.75-.75.77.4-.33-.25-4.42-2.35-.4.01 1.79.87-3.61-2-.29-.45-1.5-.9-1.88-1.15 1.19.86-.88-1.23-.88-.12-1.78-1.82-1.29-.69-.41-.47-1.83-1.45-.29-.49-2.12-1.73.89.83-.68-.84-1.04-.75-1.56-1.56-1.79-1.92.69.74h.07L-57 54.61l-.72-1.01.21.15-.39-.74-1.79-1.98-.1.02-.43-1.29-1.31-1.53-.54-.85-1.84-2.51.44.17-1.52-2.5.7 1.01-1.27-2.2-1.08-2.18.09.43.62 1.13-1.63-3.24-.45-.93-.08-.6-1.59-3.69.47 1.43-.55-.67-.48-1.53-.69-1.97-.68-2.9-.63-1.3-.02-.33-.53-.75-.14-.81-.35-1.38-.25-2.21-.19-.74-.67-1.78.1-.62-.2-1.92-.12.1-.62-3.43.08.88.2-.59-.24-2.57-.57-2.9.16.2-.34-1.95.24-.04-.2-2.5-.26-.4.26-1.47-.07-1.98.22-1.34-.09-1.61.23-.25-.07-2.43.03-2.36.1 2.1.18-3.95.4-.81.18-.46-.04-.34-.04-.75.71-2.81.15-.81.33-2.18.34-1.34-.22.25.23-.26 1.3-4.48.24-.41v-1.35l-.33 1.11.39-1.25 1.25-2.79.25-.79.28-1.07.44-1.21.55-1.39.9-1.5.46-1.26 1.1-2.18-.24.6.34-.29.62-1.74 2.12-3.34-.31.62 1.71-2.89-1.28 1.64.74-1.44 1.96-2.34-1.11 1.26 2.16-3.13-.47.84 2.17-3.03.15.05.23-.62 1.97-2.34.82-.41-.76.59 2.21-2.43 1.75-1.84-.4.09 1.85-1.66-.28-.05 2.55-1.94-.38.32-.15.12.1-.25 2.18-1.63 1.89-1.74 1.81-1.4-.42.36-.1.12 3.11-2.16-.19.14 2.28-1.73 1.4-.67-.48.26.46-.19 1.92-1.12-.43.25 2.48-1.14 1.1-.73 1.1-.47 2.68-1.35-.44.38 1.47-.32.04-.52 2.31-.52 1.84-.71 1.33-.56-.99.35 3-1.08-.91.37 1.59-.55 1.95-.16 1-.24 2.24-.61-.76.13.81-.02 3.1-.76.44.05 2.96-.44-1.61.39 1.54-.42 2 .03 2.42-.1.85-.1 1.29.01 1.07-.16 1.59.34.15-.14.65-.07.23.24 1.28-.25 4.43.44.16.2-1.14-.27 4.08.89-1.93-.53 3.34.75-.21-.15 2.04.18 2.42.94.34-.11-.7.12 1.05.21 3.46.76 1.08.78-.89-.49 2.34.73-.21-.33 1.92.92 1.82.69-.13.24 2.7 1.14.45.28.9.26 1.63.82.2.15 1.99 1.18 1.09.64.2-.06 2.32 1.85 1.44.75.3-.1.6.63 1.57 1.33-1.57-1.22 2.13 1.76 1.77 1.19-.59-.2 2.34 1.74 1.87 1.72.47.74.77.58-.36-.3 1.11.61.5.41 2.12 2.77-.34-.43 2.27 2.57 1.09 1.04.42.89.47.17.31.31 1.15 1.43-.61-.56 2.19 3.22.77 1.41-.18-.35 1.91 2.14.18 1.01.39.26.43.54.53 1.75 1.61 2.91-.32-.72 1.33 2.63.08-.3.16 1.28 1.48 2.64-.55-.79.86 1.91-.14-.14.73 1.98.4 1.25.51 1.49.22.32.89 2.71.33.57.02.01.68 2.12.16 1.61.67 2.18.26 2.09-.11-1.29.42 3.12.15.78.3.54-.34.58.4 3.54.26.09.1 1.39.2 2.29-.12.44.16-.08-.02 2.74.01.7.09.98-.21 2.39" filter="url(#a)"/><path fill="#fff" d="m-36.89-7.29.44-.45.47-.45.51-.44.53-.44.56-.43.59-.43.61-.41.63-.4.66-.39.68-.37.71-.35.72-.34.74-.32.75-.31.77-.28.87-.5.88-.46.91-.43.93-.38.95-.34.97-.3.98-.26 1-.22 1.01-.17 1.02-.14 1.03-.09 1.03-.05 1.05-.02 1.04.02 1.05.06 1.05.09 1.04.12 1.05.15 1.04.19 1.03.2 1.03.24 1.02.26 1.01.27 1 .3.98.32.97.33.96.35.94.35.92.37.91.38.89.38.87.39.84.4.83.4.81.4.78.39.77.4.74.4.71.39.7.39.67.39.65.38.63.37.6.37.59.36.56.36.54.34.52.35.49.33.48.33.46.32.44.32.43.31.4.31.39.3.37.29.35.29.34.28.31.28.3.27.29.27.26.26.26.26.23.25 1.31 4.53-.25.23-.27.24-.28.25-.28.24-.3.26-.31.26-.32.26-.33.27-.34.27-.35.27-.37.28-.37.28-.39.29-.4.29-.41.29-.42.3-.44.3-.45.3-.47.31-.48.3-.5.31-.51.32-.52.31-.55.31-.55.31-.58.3-.58.31-.61.3-.62.29-.64.29-.66.28-.67.27-.69.26-.7.25-.73.24-.74.22-.76.21-.78.2-.79.17-.81.16-.83.14-.85.12-.86.09-.88.07-.9.05-.92.03-.93-.01-.94-.03-.97-.05-.97-.09-1-.12-1-.14-1.02-.18-1.03-.2-1.04-.24-1.06-.27-1.06-.29-1.07-.33-1.07-.36-1.08-.39-1.09-.41-1.09-.45-1.08-.47-1.09-.49-.88-.33-.88-.35-.86-.35-.87-.37-.85-.38-.84-.39-.82-.41-.82-.41-.79-.41-.78-.43-.76-.43-.73-.43-.71-.43-.68-.44-.66-.44" filter="url(#a)" transform="translate(49.8 -29.64)"/><path fill="#fff" d="m33.99-8.66-.43-.61-.46-.61-.49-.6-.51-.6-.54-.59-.57-.58-.59-.56-.61-.55-.64-.53-.66-.51-.69-.49-.7-.46-.72-.44-.74-.42-.76-.39-.82-.7-.84-.65-.87-.59-.9-.53-.92-.48-.94-.41-.97-.36-.99-.3-1-.24-1.02-.18-1.04-.12-1.05-.07-1.06-.02-1.07.04-1.07.08-1.08.13-1.08.18-1.09.22-1.08.26-1.08.3-1.07.33-1.07.37-1.06.39-1.05.42-1.04.45-1.03.47-1.01.48-.99.51-.98.52-.96.52-.94.54-.92.55-.9.55-.87.55-.85.56-.83.55-.8.56-.78.55-.76.54-.72.54-.7.53-.68.52-.65.52-.63.5-.6.5-.57.48-.55.48-.53.46-.5.46-.48.45-.46.44-.43.43-.42.42-.4.41-.37.4-.35.4-.33.38-.32.38-.29.37-.27.36-.26.36-.23.35-.22.34-.19.33.49 5.4.33.3.35.3.37.3.38.31.39.32.41.32.42.32.44.33.45.33.46.33.48.34.5.34.51.35.52.34.53.35.56.36.57.35.58.36.6.36.62.37.64.36.65.36.67.37.68.36.7.35.72.36.73.34.74.35.76.33.77.32.79.32.8.3.81.29.82.28.84.26.85.25.85.22.87.21.88.19.89.17.89.14.9.12.91.09.92.07.92.03.92.01.93-.02.94-.05.93-.08.94-.11.94-.15.94-.18.93-.21.94-.25.93-.28.93-.31.93-.35.92-.38.91-.42.91-.44.89-.48.89-.51.88-.53.86-.56.74-.38.73-.4.72-.41.71-.43.69-.44.68-.45.67-.46.65-.47.63-.47.61-.49.6-.49.57-.5.55-.5.53-.5.5-.5" filter="url(#a)" transform="translate(-40.72 -28.58)"/><g fill="none" stroke="#000" transform="translate(49.8 -29.64)"><path stroke-linejoin="round" stroke-width="1.667" d="m-39.28-3.29.05-.31.1-.34.14-.37.18-.39.23-.4.26-.42.3-.43.34-.44.38-.45.41-.45.44-.45.47-.45.51-.44.53-.44.56-.43.59-.43.61-.41.63-.4.66-.39.68-.37.71-.35.72-.34.74-.32.75-.31.77-.28.87-.5.88-.46.91-.43.93-.38.95-.34.97-.3.98-.26 1-.22 1.01-.17 1.02-.14 1.03-.09 1.03-.05 1.05-.02 1.04.02 1.05.06 1.05.09 1.04.12 1.05.15 1.04.19 1.03.2 1.03.24 1.02.26 1.01.27 1 .3.98.32.97.33.96.35.94.35.92.37.91.38.89.38.87.39.84.4.83.4.81.4.78.39.77.4.74.4.71.39.7.39.67.39.65.38.63.37.6.37.59.36.56.36.54.34.52.35.49.33.48.33.46.32.44.32.43.31.4.31.39.3.37.29.35.29.34.28.31.28.3.27.29.27.26.26.26.26.23.25.22.25.21.24.19.24.17.23.16.24.15.22.14.23.12.22.1.22.1.21" filter="url(#a)"/><path stroke-linejoin="round" stroke-width="2.222" d="m-38.37.48.21.32.27.35.32.36.38.38.43.39.47.4.51.42.55.42.59.43.62.43.66.44.68.44.71.43.73.43.76.43.78.43.79.41.82.41.82.41.84.39.85.38.87.37.86.35.88.35.88.33 1.09.49 1.08.47 1.09.45 1.09.41 1.08.39 1.07.36 1.07.33 1.06.29 1.06.27 1.04.24 1.03.2 1.02.18 1 .14 1 .12.97.09.97.05.94.03.93.01.92-.03.9-.05.88-.07.86-.09.85-.12.83-.14.81-.16.79-.17.78-.2.76-.21.74-.22.73-.24.7-.25.69-.26.67-.27.66-.28.64-.29.62-.29.61-.3.58-.31.58-.3.55-.31.55-.31.52-.31.51-.32.5-.31.48-.3.47-.31.45-.3.44-.3.42-.3.41-.29.4-.29.39-.29.37-.28.37-.28.35-.27.34-.27.33-.27.32-.26.31-.26.3-.26.28-.24.28-.25.27-.24.25-.23.24-.23.24-.23.22-.22.21-.22.21-.21.19-.2.18-.2.18-.2.16-.19.16-.19" filter="url(#a)"/><circle cx="-31.092" cy="-6.247" r="4.088" clip-path="url(#b)" filter="url(#a)"/><circle cx="-33.462" cy="-5.337" r="4.9" clip-path="url(#b)" filter="url(#a)"/><circle cx="-34.692" cy="-3.607" r="3.562" clip-path="url(#b)" filter="url(#a)"/><circle cx="-31.637" cy="-3.477" r="3.694" clip-path="url(#b)" filter="url(#a)"/><circle cx="-35.167" cy="-4.732" r="4.362" clip-path="url(#b)" filter="url(#a)"/><circle cx="-35.232" cy="-4.402" r="3.89" clip-path="url(#b)" filter="url(#a)"/><circle cx="-35.062" cy="-4.592" r="4.092" clip-path="url(#b)" filter="url(#a)"/><circle cx="-31.277" cy="-4.837" r="4.264" clip-path="url(#b)" filter="url(#a)"/><circle cx="-32.562" cy="-4.207" r="4.144" clip-path="url(#b)" filter="url(#a)"/><circle cx="-31.622" cy="-4.242" r="4.144" clip-path="url(#b)" filter="url(#a)"/></g><g fill="none" stroke="#000" transform="translate(-40.72 -28.58)"><path stroke-linejoin="round" stroke-width="2.222" d="m36.52-3.41-.1-.39-.13-.43-.17-.47-.21-.51-.24-.53-.27-.56-.31-.57-.33-.59-.37-.6-.4-.6-.43-.61-.46-.61-.49-.6-.51-.6-.54-.59-.57-.58-.59-.56-.61-.55-.64-.53-.66-.51-.69-.49-.7-.46-.72-.44-.74-.42-.76-.39-.82-.7-.84-.65-.87-.59-.9-.53-.92-.48-.94-.41-.97-.36-.99-.3-1-.24-1.02-.18-1.04-.12-1.05-.07-1.06-.02-1.07.04-1.07.08-1.08.13-1.08.18-1.09.22-1.08.26-1.08.3-1.07.33-1.07.37-1.06.39-1.05.42-1.04.45-1.03.47-1.01.48-.99.51-.98.52-.96.52-.94.54-.92.55-.9.55-.87.55-.85.56-.83.55-.8.56-.78.55-.76.54-.72.54-.7.53-.68.52-.65.52-.63.5-.6.5-.57.48-.55.48-.53.46-.5.46-.48.45-.46.44-.43.43-.42.42-.4.41-.37.4-.35.4-.33.38-.32.38-.29.37-.27.36-.26.36-.23.35-.22.34-.19.33-.18.33-.16.32-.15.31-.13.31-.11.31-.09.29-.08.3-.06.29-.05.28-.04.28" filter="url(#a)"/><path stroke-linejoin="round" stroke-width="2.222" d="m36.13 1.99-.16.38-.2.4-.24.42-.29.44-.31.46-.36.47-.38.48-.42.48-.45.5-.47.49-.5.5-.53.5-.55.5-.57.5-.6.49-.61.49-.63.47-.65.47-.67.46-.68.45-.69.44-.71.43-.72.41-.73.4-.74.38-.86.56-.88.53-.89.51-.89.48-.91.44-.91.42-.92.38-.93.35-.93.31-.93.28-.94.25-.93.21-.94.18-.94.15-.94.11-.93.08-.94.05-.93.02-.92-.01-.92-.03-.92-.07-.91-.09-.9-.12-.89-.14-.89-.17-.88-.19-.87-.21-.85-.22-.85-.25-.84-.26-.82-.28-.81-.29-.8-.3-.79-.32-.77-.32-.76-.33-.74-.35-.73-.34-.72-.36-.7-.35-.68-.36-.67-.37-.65-.36-.64-.36-.62-.37-.6-.36-.58-.36-.57-.35-.56-.36-.53-.35-.52-.34-.51-.35-.5-.34-.48-.34-.46-.33-.45-.33-.44-.33-.42-.32-.41-.32-.39-.32-.38-.31-.37-.3-.35-.3-.33-.3-.32-.29-.31-.28-.3-.28-.28-.28-.26-.27-.26-.26-.24-.26-.22-.26-.22-.25-.2-.24" filter="url(#a)"/><circle cx="-20.601" cy="1.42" r="3.55" clip-path="url(#c)" filter="url(#a)"/><circle cx="-23.026" cy="3.165" r="3.282" clip-path="url(#c)" filter="url(#a)"/><circle cx="-23.211" cy="5.24" r="3.624" clip-path="url(#c)" filter="url(#a)"/><circle cx="-21.916" cy="1.505" r="4.938" clip-path="url(#c)" filter="url(#a)"/><circle cx="-20.591" cy="1.935" r="4.554" clip-path="url(#c)" filter="url(#a)"/><circle cx="-20.571" cy="5.435" r="4.592" clip-path="url(#c)" filter="url(#a)"/><circle cx="-23.671" cy="1.445" r="3.142" clip-path="url(#c)" filter="url(#a)"/><circle cx="-24.431" cy="2.9" r="3.682" clip-path="url(#c)" filter="url(#a)"/><circle cx="-21.401" cy="2.01" r="3.15" clip-path="url(#c)" filter="url(#a)"/><circle cx="-23.321" cy="5.74" r="4.264" clip-path="url(#c)" filter="url(#a)"/></g><g fill="none" stroke="#6E8613" stroke-linejoin="round" stroke-width="2"><path d="m51.4-60.57.85.95 1.03 1.24.99 1.17.91 1.05.75.87.55.64.35.45.18.3.02.18-.13.08-.29-.06-.47-.23-.67-.45-.89-.7-1.14-.98-1.4-1.26-1.72-1.54-2.08-1.88L45.72-63l-2.94-2.7-3.27-3.09" filter="url(#a)"/><path d="m64.47-43.74.71 1.77.69 1.44.53 1.03.37.78.24.58.1.39-.04.19-.22-.07-.4-.35-.62-.66-.85-1-1.1-1.37-1.35-1.77-1.61-2.19-1.85-2.59L57-50.52l-2.26-3.36-2.5-3.82M28.07-76.06l1.85.8 1.09.49.82.4.66.39.52.37.35.35.15.31-.11.23-.43.13h-.81l-1.23-.14-1.64-.3-2.03-.43-2.39-.55-2.76-.66-3.17-.77-3.66-.89-4.24-1.04-4.96-1.21-5.89-1.46m50.46 19.16-.08.01.05.48-.15.79-.49.93-.93.97-1.45.89-2.03.76-2.62.6-3.22.46-3.82.38-4.39.38-4.98.41-5.57.46-6.19.47-6.84.45-7.52.37-8.22.28-8.92.19-9.63.15-10.33.16-11.1.29m89.07-18.15.53.61.08.39-.26.27-.53.26-.83.24-1.25.18-1.77.07-2.42-.12-3.14-.37-3.9-.66-4.66-.92-5.42-1.13-6.19-1.27-6.97-1.43-7.73-1.65-8.6-1.9" filter="url(#a)"/><path d="m12.33-80.77-.46-.15.59.15.66.23.41.28.01.3-.45.32-.89.34-1.32.38-1.76.42-2.26.44-2.84.45-3.44.46-4.09.52-4.79.62-5.56.75-6.37.85-7.1.82m91.37 29.31.49.94.62 1.32.56 1.21.44.93.27.69.12.47-.05.27-.2.05-.37-.17-.54-.39-.71-.63-.93-.89-1.15-1.19-1.42-1.53-1.68-1.91-1.96-2.29-2.21-2.69-2.43-3.06-2.63-3.41-2.86-3.79-3.12-4.21" filter="url(#a)"/><path d="m3.29-82.02.88.18 1.88.25 2.13.38 2.03.46 1.96.53 1.99.59 2.08.63 2.18.67 2.23.69 2.19.69 2.04.66 1.82.58 1.56.5 1.35.4 1.15.31.88.2.5.07" filter="url(#a)"/><path d="m15.57-80.52 1.68.64 1.11.47 1.26.55 1.64.71 1.91.81 1.97.85 1.91.83 1.82.79 1.76.77 1.71.77 1.65.75 1.55.73 1.41.67 1.21.57.93.44.56.31m-67.29-6.73.1.13.61-.16.84-.27.87-.26.73-.17.51-.06.25.09.04.24-.16.4-.35.56-.56.73-.82.9-1.11 1.09-1.41 1.28-1.73 1.49-2.07 1.71-2.43 1.95-2.84 2.21-3.25 2.48-3.67 2.74-4.07 3-4.49 3.29-5.1 3.73m51.02-32.34 2.05.04 2.04.12 1.97.22 1.96.32 1.99.4 2.03.49 2.11.55 2.23.62 2.4.69 2.55.73 2.6.76 2.58.75 2.47.72 2.35.69 2.24.67 2.19.65 2.16.66 2.11.66 2 .66 1.79.63 1.47.58" filter="url(#a)"/><path d="m-6.73-81.83 2.03.03 1.97.07 1.85.14 1.81.23 1.81.31 1.83.38 1.87.44 1.97.47 2.08.49 2.18.52 2.23.53 2.22.55 2.16.56 2.09.56 2.02.58 1.96.55 1.84.53 1.66.46 1.43.37 1.12.26.84.15.59.06.42-.03m-46.41-7.03 2.37-.43 1.92-.06 1.83.13 1.97.25 2.25.35 2.56.43 2.78.5 2.89.59 2.92.65 2.87.69 2.81.69 2.74.69 2.7.67 2.72.68 2.77.69 2.8.72 2.76.74 2.64.77 2.45.75 2.21.75" filter="url(#a)"/><path d="m-6.73-81.83 1.94-.01 1.77-.05 1.48-.05 1.24-.03h1.81l.52.02.24.01-.03.03-.35.04-.81.06-1.46.08-2.14.08-2.41.04m13.18-.05 2.32.48 1.23.22 1.17.21 1.23.23 1.18.24 1.05.25.87.23.71.22.58.19.42.17.25.12.01.08-.24.02-.52-.02-.83-.05-1.13-.09-1.44-.13-1.73-.2-2.03-.3-2.4-.39-2.89-.52-3.48-.61m-34 6.54 1.56-.52 1.88-.28h2.07l2.4.18 2.84.28 3.25.39 3.56.51 3.8.65 4 .79 4.2.9 4.42.99 4.65 1.06 4.87 1.14 5.05 1.23 5.19 1.33 5.28 1.44 5.34 1.49 5.32 1.44 5.22 1.3 5.08 1.22m-4.54-7.42 1.08.8.78.69.74.75.5.62.11.34-.3.04-.69-.2-1.02-.37-1.32-.49-1.64-.63-2.03-.82L37.72-67l-3.11-1.44-3.77-1.83-4.42-2.24-5.01-2.61-5.69-2.96" filter="url(#a)"/><path d="m33.75-73.56.49.43.43.67v.71l-.49.75-1.04.77-1.69.76-2.39.75-3.11.75-3.8.76-4.42.78-5.02.84-5.65.91-6.33 1.01-7.09 1.11-7.94 1.21-8.89 1.32-9.93 1.43-10.86 1.45" filter="url(#a)"/><path d="m-8.27-81.41 1.83-.14 2.36.22 2.61.48 2.76.71 2.89.9 3.03 1.07 3.16 1.21 3.33 1.34 3.52 1.45L21-72.6l4.02 1.7 4.19 1.8 4.22 1.86 4.11 1.83 3.92 1.7 3.75 1.55 3.61 1.36m-88.97-8.9 1.78-1.25 1.12-.68.84-.46.85-.45.95-.48 1.04-.54 1.1-.55 1.05-.53.93-.45.73-.33.49-.2.25-.07.03.05-.17.16-.4.26-.69.4-1.04.58-1.48.82-1.97 1.1-2.46 1.39-2.89 1.64" filter="url(#a)"/><path d="m3.29-82.02.71.13 1.32.12 1.19.18.75.22.35.26.03.31-.24.36-.49.41-.79.49-1.12.55-1.52.62-1.92.66-2.34.72-2.76.78-3.2.87-3.72.97-4.31 1.08-4.9 1.19-5.41 1.24-5.8 1.23-6.21 1.23" filter="url(#a)"/><path d="m2.64-81.95.58.01.86.05 1.13.09 1.03.13.68.14.27.17-.1.18-.42.19-.74.21-1.09.23-1.53.26-2.06.27-2.64.27-3.2.28-3.69.28-4.11.3-4.58.29m67.62 17.72.01-.03.28.34.26.54.07.58-.23.47-.62.24-1.1-.04-1.63-.38-2.14-.69-2.63-.97-3.1-1.19-3.58-1.39-4.1-1.61-4.72-1.89L22-69.1l-6.23-2.57-7.14-2.94L.55-77.9m24.12.32.46.07 1.05.43 1.09.51.96.47.75.4.49.28.17.16-.15.03-.51-.08-.89-.21-1.35-.38-1.93-.58-2.56-.78-3.18-1.01-3.65-1.26" filter="url(#a)"/><path d="m51.9-60.16 1.25 1.78.56 1.16.15.99-.34.78-.86.54-1.37.36-1.83.27-2.29.24-2.72.25-3.18.25-3.66.19-4.2.09-4.75-.03-5.36-.13-5.96-.23-6.57-.32-7.14-.42-7.65-.59-8.17-.82-8.77-1.02-9.5-1.13-10.32-1.11m68.85-17 1.81.79 1 .45.64.34.39.28.12.23-.18.15-.53.05-.97-.08-1.48-.25-2.1-.45-2.79-.69-3.46-.91-4.02-1.15-4.5-1.35-5.07-1.58m27.02 6.82 1.32.91.47.71-.12.72-.69.74-1.36.71-2.1.66-2.87.65-3.63.68-4.34.74-5.01.81-5.65.85-6.33.89-7.09.91-7.98.95-8.95.96-9.95.95-10.94.96" filter="url(#a)"/><path d="m41.89-68.41 1.68 1.38 1.01.93.65.79.37.73.05.59-.37.4-.8.19-1.18.04-1.52-.03-1.84-.07-2.18-.1-2.55-.17-2.98-.3-3.47-.47-3.99-.69-4.51-.91-5.02-1.11-5.51-1.26-6.04-1.36-6.66-1.45-7.4-1.55-8.08-1.74" filter="url(#a)"/><path d="m-31.42-74.77 1.57-.54 1.94-.36 2.15-.11h2.49l2.94.06 3.34.11 3.66.19 3.9.3 4.09.42 4.28.52 4.45.57 4.61.58 4.71.56 4.77.55 4.77.55 4.78.6 4.88.71 5.12.86m-14.89-9.4.71.48.83.39 1.2.51 1.5.67 1.69.83 1.8.94 1.84 1 1.79.99 1.7.93 1.52.83 1.33.7 1.12.58.9.46.7.35.51.24.35.14.08-.09" filter="url(#a)"/><path d="m44.02-66.65 1.06.78.71.65.63.66.32.49-.16.15-.68-.22-1.17-.55-1.6-.79-2.06-1.01-2.59-1.25-3.16-1.56-3.73-1.95-4.27-2.41-5.08-2.98m33.71 21.39.7.81.21.44-.15.18-.44.06-.72-.01-1.02-.09-1.37-.22-1.8-.44-2.27-.74-2.77-1.07-3.29-1.42-3.8-1.74-4.36-2.07-4.94-2.38-5.61-2.72-6.34-3.11-7.19-3.55-8.22-4.02" filter="url(#a)"/><path d="m15.57-80.52 1.46.6.41.34.13.39.06.51-.12.6-.45.67-.83.72-1.24.8-1.61.91-2 1.06-2.42 1.22-2.86 1.36-3.35 1.49-3.87 1.6-4.41 1.71-4.95 1.83-5.52 1.96-6.1 2.11-6.69 2.28-7.31 2.45-7.92 2.6-8.43 2.59" filter="url(#a)"/><path d="m-31.42-74.77 1.5-.59 1.68-.47 1.74-.31 1.95-.25 2.26-.23 2.53-.23 2.7-.2 2.79-.16 2.85-.11 2.9-.08 2.96-.05 3.05-.03 3.1-.02 3.1-.02h6.02l2.85-.03 2.71-.05 2.53-.1 2.3-.11 2.09-.05" filter="url(#a)"/><path d="m-31.42-74.77 1.58-.54 1.95-.34 2.17-.09 2.54.06 2.99.12 3.4.17 3.72.24 3.94.33 4.14.45 4.35.57 4.57.68 4.8.75 4.96.78 5.01.73 4.96.68 4.86.64 4.79.61 4.61.49" filter="url(#a)"/><path d="m-.17-81.99.93.02.47.2-.03.32-.36.44-.57.58-.82.76-1.22.94-1.76 1.15-2.41 1.37-3.07 1.61-3.73 1.87-4.37 2.13-5.02 2.38-5.7 2.64-6.46 2.91-7.29 3.18-8.05 3.34M64.04-44.28l.21.85-.21 1.06-.83.81-1.54.43-2.3.07-3.05-.24-3.81-.51-4.58-.82-5.35-1.12-6.15-1.42-6.98-1.7-7.85-1.92-8.76-2.14-9.67-2.4-10.55-2.76-11.33-3.21-12.12-3.7m-9.32-6.7 1.85-1.25 1.32-.67 1.19-.48 1.35-.47 1.6-.54 1.85-.63 2.04-.69 2.17-.71 2.2-.7 2.2-.67 2.15-.63 2.09-.59 2.02-.56 1.92-.54 1.81-.51 1.69-.47 1.56-.42 1.43-.38 1.29-.32 1.09-.28.85-.24.53-.19.06-.12m54.54 20.88.13.05.69.59.93.94 1.01 1.11.97 1.11.83.95.59.68.3.33-.02-.02-.31-.31-.55-.54-.75-.69-.96-.9-1.28-1.28-1.86-2.01" filter="url(#a)"/><path d="m28.2-76.3.43.44.53.54.08.48-.47.43-1 .43-1.58.46-2.19.48-2.86.51-3.55.5-4.29.48-5.06.41-5.87.31-6.7.21-7.59.16-8.58.22-9.53.33m87.49 16.59.41.24.39.43.36.56.33.64.26.62.11.47-.1.23-.37-.05-.67-.35-.99-.63-1.31-.89-1.62-1.18-1.97-1.48-2.32-1.84-2.74-2.24-3.17-2.69-3.64-3.13-4.14-3.61-4.6-4.12M3.52-81.78l1.94-.03 1.98.17 1.51.21 1.26.22 1.18.22 1.16.22 1.14.21 1.07.2.93.18.71.15.42.11.09.04h-.22l-.53-.07-.86-.14-1.24-.24-1.57-.35-1.68-.43" filter="url(#a)"/><path d="m-6.73-81.83 2.07.07 2.09.19 2.06.34 2.1.49 2.17.64 2.26.76 2.37.86 2.54.94 2.74 1.03 2.94 1.1 3.08 1.19 3.14 1.27 3.13 1.31 3.07 1.32 3 1.29 2.91 1.21 2.81 1.11 2.7 1.02 2.56.96 2.43 1 2.4 1.21" filter="url(#a)"/><path d="m-21.09-78.84.27.01 1.32-.16 1.78-.09 2.21-.03 2.54.03 2.78.08 2.92.13 3.04.16 3.14.18 3.22.2 3.26.21 3.23.23 3.16.25 3.09.27 3.02.28 2.89.27 2.64.21 2.31.14" filter="url(#a)"/><path d="m32.12-74.38 1.23.65 1.11.62 1.12.66 1.11.67 1.05.65.92.58.74.47.49.35.25.21v.1l-.22-.01-.42-.11-.64-.22-.89-.36-1.21-.52-1.56-.73-1.97-.96-2.36-1.2-2.67-1.43-2.85-1.62m-13.02-4.19-.31-.13 1.05.19 1.42.28 1.47.32 1.33.33 1.13.3.95.28.81.24.62.2.33.1-.04-.02-.4-.13-.73-.23-1.18-.36-2.03-.55m-48.17 5.18 1.55-.58 1.87-.47 2.01-.31 2.31-.24 2.68-.25 3.01-.26 3.25-.24 3.37-.19 3.45-.15 3.51-.1 3.58-.07 3.64-.07 3.65-.09 3.6-.12 3.45-.13 3.26-.09 3.06-.03M4.8-82.03l2.72.31 1.05.19.52.16.32.15.12.17-.13.17-.47.19-.88.2-1.4.22-1.99.21-2.65.21-3.29.21-3.92.23-4.56.2-5.38.2m79.18 34.73.46.91.5 1.23.38 1.05.16.74-.06.45-.29.21-.53-.02-.79-.27-1.05-.53-1.32-.78-1.6-1.04-1.87-1.29-2.15-1.55L53.43-47l-2.76-2.15-3.13-2.51-3.51-2.89-3.91-3.29-4.25-3.67-4.58-4.04-5.04-4.48-5.84-5.05" filter="url(#a)"/><path d="m13.53-80.7 1.81.33 1.14.35.52.27.2.25.05.26-.17.28-.5.27-.93.23-1.37.23-1.78.22-2.2.25-2.66.27-3.2.29-3.84.3-4.53.29-5.24.25-5.84.18-6.27-.01m85.32 31.91.44.89.48 1.18.32.98.08.61-.18.28-.46-.02-.75-.32-1.05-.63-1.36-.95-1.69-1.29-2.04-1.63-2.4-1.99-2.78-2.35-3.19-2.77-3.6-3.2-4.03-3.65-4.43-4.12-4.75-4.56-5.02-5.04" filter="url(#a)"/><path d="m9.23-81.59-27.52 7.31 2.91 2.38L.23-70.06l14.31 3.49 6.59 3.66-.54 1.76-3.31-.48-2.36-1.42-1.13-.92-2.46-.18-5.93-.41-8.24-1.73-6.58-3.01-2.41-2.84-2.09-.87-10.45 1.1-12.58.07" filter="url(#a)"/><path d="m31.22-74.64-6.45-1.7-5.28-1.02.21.62 2.17 1.19 2.46 1.73 3.37 2.92 4.59 4.22 4.42 4.59 1.92 3.44-2.17.98-5.91-1.84-7.5-3.95-6.44-4.64-3.74-3.91-1.07-2.2.55-.22 1.25 1.49 2.08 2.55 4.25 2.92 8.78 3.75 15.38 8.99 28.17 29.91" filter="url(#a)"/><path d="m63.47-45.55-10.33-5.73-21.35-9.75-17.18-7.89L4.2-73.59l-6.49-1.59-4.23.71-2.03 2.15.15 3.02 2.28 3.64 5.14 4.17 8.84 4.47 10.81 3.98 6.62 1.8-5.12-2.78-17.09-8.8-14.84-12.05 2.14-6.49" filter="url(#a)"/><path d="m-60.26-49.99 70.58-5.02 15.27-9.27-3.18-5.92-6.02-1.97-2.08.74 2.16 1.66 3.32 1.12 1.66.29-.81.33-2.43 1.39-2.58 2.32-1.11 1.64 3.11-.37L31.81-62l29.93 14.66" filter="url(#a)"/><path d="m24.67-77.58 19.55 19.43-8.84-.63-15.67-.47-13.94 1.32-11.56.37-9.8-1.81-7.43-3.14-4.01-3.05-.19-2.14 3.21-1.28 5.55-.76 6.76-.24 7.76.78 10.09 2.32 13.23 3.55 7.54.97L-6.66-81.8" filter="url(#a)"/><path d="m15.57-80.52-5.37.84-8.41 2.73-14.52 3.46-13.46 3.53-7.62 3.03-.42 2.4 5.79 1.74 9.51.69 10.21-1.11L0-66.43l6.52-4.52 4.52-4.07 2.8-2.35 1.75-1.07-6.36-3.15" filter="url(#a)"/><path d="M50.29-61.18 2.8-59.01l-8.88-3.28-4.15-4.07.21-3.72 4.76-2.8 7.7-1.39 8.56.14 7.65 1.38 5.52 2.11 2.93 2.36.65 2.27-.77 2.1-1.05 2.01-.3 2.12.74 2.2.7 1.88-1.8.67-6.76-1.47-11.43-3.81-10.22-5.22 1.09-5.07 16.08-4.02 8.11-3.98" filter="url(#a)"/><path d="M22.14-78.6 11.5-69.21l14.43 9.39 3.84 2.08-5.98-3.29-8.17-5.03-6.49-4.56-4.24-3.13-1.78-1.34 1.38.47L9-72.72l5.39 2.46 2.11 1.86-4.44.19-9.75-1.93-8.4-3.42 1.02-3.16 23.75-2.64" filter="url(#a)"/><path d="M57.46-53.32-2.48-59.3l-7.89 1.42 6.67-.21 8.65-2.37 8.81-2.22L20.68-64l1.85-1.49-4.89-2.47-10.3-2.74-11.65-1.36-7.4 1.12 2.09 3.45 11.59 5.05 4.5 5.21-55-5.91" filter="url(#a)"/><path d="m61.74-47.34-36.12-9.97-1.12-1.77.76-2.81.14-1.32.21 1.19.23 2.47.37 2.06 1.14.88 2 .14 1.77.35-.52 1.09-4.52 1.56-8.66 1.15-10.99-.05-10.86-1.44-9.42-2.44-8.08-2.83-5.29-2.99 4.28-3.78L-.07-71.2l37.3-.45" filter="url(#a)"/><path d="m3.29-82.02 23.61 10.2-2.39 2.09-11.08-.59-7.19.21-.73 1.03 2.33.96 1.36.44-1.54-.08-4.12-.46-5.16-.7-4.41-.66-2.15-.21 1.03.68 4.32 1.85L4-64.43l7.72 3.23 6.48 2.94 3.49 2.27.34 1.65-.52 1.13.49.12-9.73-2.27-62.54-6.23" filter="url(#a)"/><path d="m67.86-36.19-23.13-20.8-21.22-6.62-14.99-2.72-2.8-.63 5.31 1.02 5.6 1.76.64 1.26-4.82-.12-7.41-1.66-6.28-2.61-2.47-2.72 2.18-2.16 5.98-1.31 7.79-.47 7.28.17 4.95.52 1.81.49-1.1.11-3.13-.12-4.5.82-10.41 2.96-47.1-.82" filter="url(#a)"/><path d="M64.04-44.28 9.89-56.72l-1.21-9.37 4.07-4.55 2.53-.63 2.79 1.95 3.47 3.25 3.2 3.36 2.51 2.48 2.27 1.02 2.41-.52 2.26-1.68 1.48-2.1.55-1.63.1-.42.05 1.02-.81 1.78-4.05.98-9.71-1.6L7.51-68.2l-11.34-6.35 3.11-4.26 23.05.5" filter="url(#a)"/><path d="m13.74-80.55-11.38 7.8 12.18 4.78 1.62.75L7-68.29l-11.53-.87-7.12-.38-.36-.46 5.22-.81 8.24-.83 9.07-.2 8.62.83 7.48 1.71 5.81 1.91 3.78 1.31 1.79.27.29-.61-.73-1.01-1.69-1.09-2.7-1-2.21-.07 2.67 3.03 11.28 6.88 5.74-1.2m24.49 47.79-.41-.7-.33-1.04-.35-1.12-.34-1.18-.34-1.27-.41-1.33-.52-1.31-.62-1.23-.68-1.13-.7-1.06-.7-1.05-.67-1.04-.66-1.04-.66-1.01-.69-.95-.71-.85-.71-.77-.7-.72-.71-.74-.76-.79-.76-.67-.44-.14 12.87 21.14-.13 1.26.04 1.57.07 1.43.03 1.28-.01 1.19-.04 1.12-.06 1.11L74.98-3l-.07 1.2-.07 1.26-.07 1.31-.07 1.36-.07 1.4-.07 1.42-.06 1.4-.08 1.24-.09.81-.07.13-.12-.56" filter="url(#a)"/><path d="m-1.46-82 1.18-1.55 1.09.2.94.23.85.01.9-.13 1.05-.15 1.2-.17 1.29-.25 1.31-.38 1.28-.52 1.25-.59 1.24-.58 1.27-.5 1.31-.43 1.36-.4 1.38-.48 1.37-.62 1.38-.78 1.43-.84 1.53-.74 1.59-.55 1.47-.33 1.16-.04 1.53.69-64.9 5.22 1.76-.1 1.8.47 1.56.68 1.36.33 1.29-.11 1.28-.31 1.3-.24 1.27-.03 1.24.13 1.19.2 1.18.19 1.2.19 1.25.24 1.29.36 1.3.46 1.29.5 1.27.43 1.29.27 1.32.1 1.27.03 1.07.06.7.09.79-.09 1.94.46 1.66.23 1.38.41 1.19.42 1.05.33.93.23.87.14.88.11.95.14 1.06.25 1.13.43 1.12.62 1.03.77.93.87.86.91.85.93.9.89 1.04.78 1.31.74 1.77.9" filter="url(#a)"/><path d="m-8.27-81.41.18-.3-1.16-.52-1.63-1.37-1.68-1.87-1.55-1.7-1.38-1.07-1.25-.27-1.15.4-1.1.76-1.09.74-1.13.38-1.24-.15-1.37-.64-1.53-.95-1.69-1.08-1.76-1.03-1.73-.85-1.59-.64-1.52-.56-1.71-.78-2.16-.99-2.15-.48 29.6 12.97-2.12.42-1.13.17-.93.15-1.02.18-1.13.23-1.16.25-1.09.26-1.01.25-.95.24-.96.25-1.02.27-1.11.33-1.18.37-1.16.39-1.03.37-.89.31-.95.32-1.7.7" filter="url(#a)"/><path d="m-10.06-81.41-2.23-.3-1.16.07-.97-.09-1.09-.12-1.19.02-1.19.18-1.13.2-1.07.11-1.04-.02-1.06-.09-1.13-.06-1.25.03-1.35.09-1.35.09h-1.2l-.83-.09-.22-.4M95.2-46.06l-4.1 1.88-2.44 2.12-1.84 2.18-1.45 2.16-1.13 2.1-.85 1.98-.65 1.84-.63 1.76-.84 1.74-1.15 1.82-1.36 1.91-1.21 1.93-.7 1.82-.05 1.58.36 1.3.11 1.22-.99 1.52-1.44 1.57m-88-67.02-.48.08-.61.24-.92.48-1.05.72-1.01.9-.92.94-.84.85-.83.68-.89.48-.98.35-1.05.33-1.07.37-1.03.46-.96.56-.92.64-.91.76-.96.92-.99 1.09-.99 1.19-.88 1.04-.22.57" filter="url(#a)"/><path d="m-13.16-80.65-.46.15-.52.61-.74 1.16-.84 1.56-.82 1.61-.79 1.34-.77.95-.78.64-.83.46-.89.44-.94.53-.93.73-.78 1.05-.53 1.48-.25 1.96-.17 2.23-.49 1.88-.99.75m11.71-19.51.76-3.75 1.68.07 1.55.51 1.28.15 1.14-.26 1.16-.53 1.28-.72 1.36-.91 1.38-1.13 1.34-1.34L.2-90.06l1.14-1.6 1.05-1.52 1.01-1.23 1.09-.83 1.34-.63 1.67-.89 1.83-1.48 1.22-1.46-.49.17" filter="url(#a)"/><path d="m-13.97-80.63 1.33-.12 1.62-.09 1.43.07 1.2.17 1.11.14 1.13.07 1.24.02 1.3.01 1.31.05 1.24.12 1.12.2 1 .31.87.4.79.43.81.37 1.02.28 1.41.23 1.75.41 1.16.71-22.84-3.78 1.33-.28 1.57-.66 1.35-.87 1.14-.95 1.07-1.02 1.14-1.14 1.26-1.23 1.36-1.29 1.38-1.34 1.35-1.41L.24-92.3l1.17-1.48 1.1-1.32 1.07-.95 1.14-.48 1.29-.08 1.49-.07 1.62-.57 1.6-1.39 1.49-2.06 1.3-2.25.11-3.47-27.59 25.79-.84-3.38-1.94-4.32-1.7-1.67-1.26.53-1.02 1.2-1.01.74-1.17-.17-1.43-1.09-1.76-1.79-2.05-2.14-2.17-1.95-1.92-1.16-1.36-.06-.74.49-.39-.84 14.74 17.04 1.55-.51 1.45-.48 1.24-.58 1.07-.67 1.01-.67 1.08-.55 1.16-.39 1.21-.27 1.21-.25 1.19-.31 1.22-.41 1.27-.48 1.33-.47 1.36-.41 1.33-.32 1.25-.26 1.12-.18.96-.13.8-.13.66-.24.68-.39.98-.4-25.13 8.5-.19-.26-1.22-1.35-1.75-2.6-1.91-2.49-1.79-1.42-1.55-.37-1.39.07-1.38-.05-1.5-.38-1.66-.56-1.8-.42-1.89-.19-2.12-.46-2.51-1.75-2.08-3.21" filter="url(#a)"/><path d="m-19.08-79.57-.19-.51.77-.82 1.05-1.13 1.1-.96 1.07-.56 1.07-.28 1.12-.21 1.2-.29 1.24-.43 1.17-.67 1.03-1.03.92-1.44 1.09-1.71 1.6-1.48 2.25-.83" filter="url(#a)"/><path d="m-41.2-62 .87-.93.46-.59.45-.95.61-1.18.74-1.18.78-1.05.74-.89.7-.77.69-.65.76-.58.88-.53 1.02-.53 1.11-.6 1.14-.73 1.07-.88.93-.96.79-.88.75-.68.92-.51 1.53-.5-3.82 1.36-.52.02-1.31.36-1.4.54-1.29.64-1.16.63-1.01.56-.91.46-.87.36-.89.3-1.01.3-1.14.33-1.24.38-1.25.41-1.16.39-.98.4-.89.51-1.12.87-1.7 1.37 20.29-9.21-.43-1.46.46-.99 1-.53 1.26-.34 1.25-.36 1.12-.45.99-.56.93-.69.9-.92.9-1.21.92-1.53.91-1.76.93-1.86.97-1.78 1.05-1.63 1.14-1.46 1.21-1.33 1.24-1.22 1.22-1.09 1.24-.93 1.4-.77 1.71-.71 1.95-1.08 1.52-2.78-25.79 27.44-2.05 1.03-1.52.78-1.31.7-1.14.63-.99.57-.86.51-.81.48-.81.51-.89.56-.95.64-1 .69-1 .72-.98.75-.96.77-.98.84-1.04.9-1.05.92-.94.85-.69.66-.45.44-.53.46-1.47 1.14 19.74-14.2-.95.92-1.19.7-1.11.63-.91.65-.68.74-.51.93-.42 1.12-.45 1.25-.56 1.27-.68 1.19-.7 1.12-.62 1.14-.5 1.25-.45 1.41-.52 1.53-.66 1.56-.64 1.41-.23 1.14.92 1.44 9.76-20.93 1.33-.6 1.24-.54 1.01-.4.97-.36 1.05-.39 1.12-.42 1.13-.42 1.08-.4 1.01-.35.96-.32.96-.28 1.01-.27 1.09-.26 1.13-.25 1.11-.25 1.06-.23 1.01-.21 1.11-.23 1.34-.25 1.08-.16-21.8 6.59 1.34-.55 1.32-.27 1.15.08 1.12.18 1.15.06 1.18-.18 1.14-.38 1.04-.45.95-.39.89-.24.91-.08.98.03 1.14.09 1.31.09 1.46-.08 1.7-.41" filter="url(#a)"/><path d="m-32.52-74.04 1.14-.63 1.27-.59 1.2-.42 1.08-.32 1.04-.31 1.07-.36 1.11-.42 1.12-.41 1.08-.36 1.02-.29.99-.2 1-.15 1.04-.12 1.09-.15 1.14-.19 1.1-.22 1.05-.22 1-.18 1.11-.14 1.34-.13 1.08-.05" filter="url(#a)"/><path d="m-34.57-73.15 1.58 2.25 1.13-.61 1.16-.89 1.22-.61 1.21-.35 1.12-.26 1.06-.31 1.04-.35 1.08-.36 1.11-.31 1.09-.19 1.05-.06 1.01.11 1.02.26 1.08.39 1.19.51 1.31.61 1.35.71 1.14.78.31.79-24.18-.99 1.38-.43 1.31.11 1.36-.12 1.31-.49 1.22-.62 1.16-.5 1.12-.25 1.11-.01 1.17.15 1.27.21 1.33.18 1.28.11 1.08.06 1.01.13 1.76.02-18.87 1.45 1.23-.8 1.03-.62 1.16-.68 1.23-.75 1.2-.79 1.11-.74 1.04-.67 1.02-.59 1.04-.56 1.08-.58 1.08-.64 1.03-.67.96-.65.9-.58.89-.49.97-.43 1.1-.43 1.28-.54 1.47-.68 1.81-.81-23.09 12.89-.4-.22-1.38-.08-1.61.08-1.52.25-1.29.43-1.1.6-1.02.74-1.05.82-1.1.79-1.14.68-1.13.48-1.12.3-1.1.18-1.11.19-1.12.31-1.14.49-1.18.67-1.25.77-1.33.78-1.37.67-1.34.5-1.41.55-2.01 1.34" filter="url(#a)"/><path d="m-36.47-72.1-.35-.58-.15-1.74.41-1.39.95-.75 1.26-.48 1.32-.53 1.24-.71 1.12-.87 1.02-.95.98-.91 1.03-.81 1.09-.68 1.12-.64 1.08-.72.98-.9.88-1.13.82-1.29.88-1.33.99-1.27 1.13-1.22 1.14-1.24.94-1.3.54-1.31.35-1.36" filter="url(#a)"/><path d="m-18.3-88.88-1.5 1.34-.99 1.08-.79.93-.79.82-.91.68-1.05.58-1.13.59-1.14.65-1.09.71-1.06.72-1.07.68-1.14.65-1.19.66-1.2.76-1.1.92-.93 1.1-.71 1.19-.51 1.13-.32.94-.25.72-.7.6" filter="url(#a)"/><path d="m-43.07-67.68 1.45-2.53.87-1.8 1.08-.84 1.03-.47.86-.49.75-.62.77-.76.86-.84.99-.88 1.09-.86 1.15-.81 1.16-.72 1.15-.61 1.14-.55 1.13-.54 1.13-.6 1.12-.73 1.05-.87.94-.98.82-1.03.75-.99.81-.89 1.09-.7 1.7-.5-54.68 21.78 1.54.78 2.09.36 2.28.25 2.17.2 2.04.08 1.93-.1 1.82-.26 1.67-.37 1.49-.41 1.32-.44 1.13-.4.98-.25.77-.08.47-.21.7-.32 4.21 2.66-2.28 1.88.46-1.08 1.05-1.6 1.08-1.57.73-1.63.36-1.85.16-2.1.15-2.27.27-2.24.38-2.08.41-1.91.35-1.83.28-1.81.36-1.69.62-1.38 1.02-1.04 1.28-1.06 1.28-1.66 1.2-2.67 1.51-3.99-1.23-1.31-.07 1.74-1.69.51-1.7.87-1.19 1.74-.57 2.62-.03 3.21.26 3.35.24 3.05-.01 2.47-.38 1.85-.75 1.32-1 .98-1.06.86-.89 1.03-.55 1.49-.23 2.07-.17 2.44-.45 2.26-.79 1.57-.65.81.11.41 15.83-14.22-1.31.85-1.13.9-.87.79-.73.7-.7.62-.77.58-.9.58-1.02.61-1.06.68-1.02.75-.94.85-.88.94-.89 1.02-.94 1.06-.95 1.03-.87.91-.67.74-.5.58-.48.55-.67.65-.42.5" filter="url(#a)"/><path d="m-52.12-59.93-.74.12-2.26-.18-2.43-.38-1.69.16-1.09.72-1.14.8-1.65.41-2.2-.04-2.4-.22h-2.08l-1.41.52-.68 1.07-.18 1.41-.09 1.46-.44 1.22-1.05.86-1.71.53-2.22.37-2.47.33-2.52.27-2.45.11-2.41.03-2.53.26-2.67.65 36.95-6.3-.14-.37-.9.36-1.29.48-1.41.48-1.28.6-1.02.82-.78 1-.65 1.07-.62 1.01-.64.92-.67.85-.69.85-.7.91-.76.99-.9 1.01-1.1.93-1.29.77-1.41.63-1.39.62-1.22.81-.98 1.12-.89 1.33-1.11 1.23-1.72.81 23.56-19.23 1.77-2.04 1.1-1.54.63-1.4.45-1.34.44-1.16.52-.91.62-.68.74-.59.85-.64.91-.79.94-.96.9-1.07.85-1.14.82-1.18.79-1.21.79-1.28.77-1.33.73-1.28.69-1.1.7-.78.77-.48.85-.44.89-.82 1.32-1.67" filter="url(#a)"/><path d="m-55.74-55.93-1.19 1.75-.64 1.21-.66 1.03-.73 1-.7 1.01-.58 1.04-.41 1.08-.23 1.11-.08 1.14.04 1.17.11 1.25.09 1.4.03 1.57-.08 1.61-.15 1.4-.06.81.02-.12m1.17-14.36-1.54 1.55-.83.84-.93.58-.87.52-.65.67-.47.94-.46 1.17-.6 1.23-.79 1.14-.9.93-.96.74-.99.7-.98.83-.97 1.08-1.01 1.21-1.23 1.11" filter="url(#a)"/><path d="m-93.53-33.36 2.41.14 1.49-.13 1.76-.19 1.87-.5 1.62-.88 1.3-1.11 1.23-1.12 1.42-1.01 1.66-.88 1.7-.85 1.45-.93 1.07-1 .81-.99.86-.88 1.28-.69 2.03-.46 2.78-.21 2.78-.26 1.75-1.51m-1.71 2.89-.48.47-.87 1.36-.72 1.25-.57 1.01-.5.93-.52.99-.56 1.09-.59 1.18-.59 1.21-.56 1.21-.53 1.21-.51 1.22-.48 1.2-.43 1.11-.33.9-.2.63-.12.51-.19.52" filter="url(#a)"/><path d="m-65.78-41.21.77-2.52-.42-2.01-.24-1.39.26-.9.54-.76.54-.91.4-1.15.22-1.43.06-1.66-.01-1.79.03-1.77.21-1.64.43-1.46.6-1.32.67-1.31.66-1.44.6-1.61.53-1.75.47-1.75.47-1.68.62-1.77.87-2.94m-8.28 34.96-.61 1.05-.76.41-1.18.26-1.65.33-1.92.46-1.91.6-1.59.8-1.22.99-1.09 1.08-1.31 1.03-1.74.89-2.04.68-1.96.39-1.65.03-1.37.3 21.04-7.27-1.27-.41-.91.88-1.52.87-2.25.56-2.43.42-2.12.55-1.63.8-1.36.98-1.36.99-1.49.82-1.52.59-1.51.42-1.89.48-2.82 1.02-2.57 3.2 26.89-12.77.22.28.99-.28 1.45-.62 1.67-.61 1.62-.46 1.35-.38 1.01-.44.8-.52.78-.54.85-.56.89-.6.88-.66.94-.64 1.18-.41 1.58.01 2.05.35 2.25-.29-22.97 11.31-2.7.23-3.59-.23-2.6.28-1.33.93-.63 1.21-.47 1.17-.67 1-1.02.91-1.39.91-1.71.93-1.95.93-2.09.9-2.07.93-1.87 1.08-1.56 1.34-1.28 1.59-1.23 1.62-1.59 1.22-2.48.34" filter="url(#a)"/><path d="m-69.51-33.45.95-1.16.75-1.28.61-1.2.51-1.05.48-.98.54-1 .63-1.06.69-1.09.7-1.06.67-.96.62-.85.63-.77.65-.73.71-.75.77-.79.82-.83.86-.89.84-.87.69-.75.31-.56m-13.43 18.63-.37 1.09-.39 1.12-.44 1.22-.44 1.17-.36 1.03-.28.91-.25.94-.28 1.07-.33 1.2-.34 1.24-.31 1.13-.24 1.04-.21 1.08-.22 1.23-.19 1.11m-10.66 3.71.49-.71.97-.54.99-.72.85-1.03.82-1.23.83-1.29.78-1.27.61-1.23.45-1.23.4-1.24.49-1.23.6-1.17.58-1.06.45-.97.4-.93.71-.94 1.35-.9 1.83-.73 1.27-.66m142.54 7.99-.44-1.07-.48-1.34-.42-1.3-.35-1.26-.28-1.22-.27-1.15-.28-1.08-.32-1.01-.34-1.01-.36-1.03-.37-1.07-.39-1.11-.43-1.16-.46-1.2-.5-1.25-.49-1.27-.48-1.23-.48-1.12-.53-1-.62-.98-.68-.99-.26-.48" filter="url(#a)"/><path d="m72.26-24.82-.47-1.95-.04-1.48.37-1.56.46-1.56.24-1.4-.08-1.16-.25-1.06-.2-1.09-.04-1.24.11-1.37.11-1.43.03-1.45-.04-1.54-.02-1.7.04-1.88.09-1.87.11-1.49-.43-.51" filter="url(#a)"/><path d="m70.64-29.34-.97-1.02-.87-.88-.85-.67-.75-.65-.71-.69-.81-.7-.96-.66-1.09-.62-1.14-.59-1.21-.59-1.33-.62-1.36-.67-1.2-.68-.97-.47-1.26.25L65.83-4.15l.44-.86.61-1.24.77-1.33.85-1.36.75-1.32.51-1.24.26-1.15.1-1.12.03-1.12.02-1.18.03-1.27.03-1.35.08-1.41.16-1.44.22-1.42.19-1.35.02-1.27-.26-1.2-.5-1.15-.51-1.22-.18-1.49.06-1.93 19.16 21.99-1.44-2.61-1.01-1.41-1.18-1.01-1.2-.99-.97-1.08-.71-1.21-.58-1.34-.55-1.43-.56-1.47-.55-1.42-.63-1.29-.85-1.13-1.18-.95-1.54-.82-1.71-.78-1.58-.83-1.18-.96-.83-.91-.77-.21-.86-1.91 1.47-1.02.96-1.84 1.5-2.31 2-2.61 1.59-2.42.5-1.91-.47-1.42-.93-1.17-.84-1.19-.49-1.36-.08-1.63.31-1.99.67-2.42 1.01-2.88 1.1-3.12.78-2.86.24-2.21.06-1.75-.56-.76" filter="url(#a)"/><path d="m61.72-14.57 1.72-.33 1.25-1.35.84-1.63.42-1.53-.01-1.29-.38-1.06-.61-.94-.61-.96-.4-1.06-.11-1.2.14-1.28.23-1.27.17-1.18.08-1.09.06-1.08.19-1.19.32-1.35.34-1.42.38-1.55.55-2.47-2.82-5.75.91.28.27.79.42 1.02.72 1.09.89 1.08.87 1.03.76 1.01.65 1.01.55 1.01.48 1.01.45.98.44.92.52.87.66.88.83.97 1.04 1.07 1.31 1.07-11.77-16.09 2.7-.96 1.04.3 1.05.68 1.41.77 1.48.81 1.23.91.89 1.02.69 1.07.68 1.03.82.93.98.8 1.1.69 1.26.62 1.55.6 1.82.69 1.73.95 1.64 1.15-24.57-15.26.53.98.6.85.65.91.6.95.53.99.5 1.09.49 1.18.5 1.22.49 1.21.49 1.16.46 1.12.42 1.07.37 1.05.33 1.02.29 1.02.25 1.04.23 1.08.21 1.15.21 1.22.21 1.26.2 1.28.19 1.22.11.98.02.38M59.39-51.41l.63.2 2.22.22 2.69-.18 2.01.18 1.19.71.98.88 1.31.68 1.74.47 1.89.45 1.71.63 1.36.88 1.08 1.04.99 1.06 1.09.99 1.31.83 1.66.61 2.14.33 2.63.08 2.93.06 2.65.49 1.74 1.2" filter="url(#a)"/><path d="m74.74-41.37-.98-.16-.71-1.01-.96-1.06-1.18-1.01-1.25-.9-1.23-.74-1.25-.57-1.33-.45-1.39-.43-1.38-.54-1.24-.76-1.02-1.04-.74-1.23-.59-1.06-1.25-.51m-.31-.31-.31-.6-.26-1.32-.42-1.65-.41-1.88-.17-2.16.13-2.34.26-2.24.14-1.86-.18-1.35-.53-.99-.76-.97-.81-1.3-.67-1.8-.43-2.28-.22-2.6-.12-2.61-.17-1.85.07.9" filter="url(#a)"/><path d="m57.46-53.32.52.2.49.54.56.77.68.95.78 1.06.85 1.06.86 1 .86.92.83.87.79.86.73.93.68 1.05.67 1.15.66 1.17.68 1.12.65 1.02.63 1 .72 1.23 1.06 1.99-14.12-19.78.39.64.36.57.3.74.3.96.38 1.14.48 1.22.57 1.24.58 1.17.57 1.09.54 1.02.51.96.47 1 .45 1.11.41 1.3.36 1.41.33 1.38.66 1.7-11.02-22.26-.02-.86.21-2.24.58-2.49.47-2.05-.06-1.35-.64-.83-1.01-.74-1.02-1.05-.72-1.66-.28-2.29.11-2.73.32-2.82.26-2.54-.01-2-.42-1.39-.83-.92-1.12-.76-1.18-1.02-.99-1.65-.66-2.4-.43-2.87-.49-2.7-.56-1.33 19.25 63.09-.75-1.65-.51-1.28-.42-1.37-.37-1.33-.33-1.2-.35-1.11-.41-1.07-.49-1.08-.55-1.12-.58-1.16-.57-1.16-.51-1.12-.47-1.03-.47-.9-.53-.79-.62-.77-.73-.89-.8-1.13-.83-1.31-.9-1.4-1.35-1.87m-1.25-.72-1.41.15-1.56-.25-1.54-.51-1.59-.31-1.57-.06-1.41.01-1.15-.1-.94-.22-.84-.27-.84-.27-.92-.3-.96-.38-.99-.48-1.01-.56-1.03-.5-1.1-.32-1.17-.09-1.23.17-1.29.36-1.33.54-1.41.7-1.48.84-.87.47 5.94-.33 1.91-.4 1.65-.6 1.47-.32 1.23.17.96.53.8.56.82.32 1-.11 1.27-.49 1.48-.65 1.57-.5 1.51-.09 1.38.41 1.25.85 1.1 1.13.96.98 1.34-.08" filter="url(#a)"/><path d="m45.79-65.46-1.59-1.02-1.08-.58-.73-.35-.69-.29-.82-.23-1.01-.2-1.17-.19-1.27-.21-1.28-.24-1.25-.29-1.2-.3-1.15-.28-1.12-.21-1.1-.15-1.11-.11-1.29-.06-2.06.07 16.02 1.69.43.56-.38-.33-.71-.52-.91-.54-1.08-.55-1.16-.54-1.21-.5-1.22-.39-1.25-.26-1.25-.16-1.25-.1-1.23-.13-1.19-.22-1.15-.34-1.13-.41-1.13-.39-1.12-.27-1.1-.1-1.08.1-1.06.27-1.12.35-1.33.27-1.66.1-1.53-.04 25.22 3.4 1.76-1.02 1.43-.79.69.39.71.78 1.13.55 1.56.24 1.79.09 1.85.06 1.82-.05 1.76-.3 1.59-.48 1.3-.27 1.06.28 1.44.72 3.16.6-16.32 12.69.13-1.15-.18-.67-.29-.57-.4-.78-.54-1.04-.71-1.17-.82-1.21-.83-1.17-.74-1.14-.6-1.09-.48-.99-.42-.84-.46-.66-.54-.55-.65-.47-.94-.64" filter="url(#a)"/><path d="m61.54-55.83-.75.01-.82-.32-.96-.69-1.09-.92-1.17-1.02-1.15-.99-1.08-.89-.98-.77-.92-.63-.9-.54-.95-.52-1.02-.55-1.1-.64-1.14-.73-1.1-.8-1.03-.82-.91-.77-.82-.65-.74-.51-.73-.41-.8-.35-.96-.4-1.31-.62-1.88-1.29m-1.29-.58-1.41-.85-1.03-.61-.99-.58-1.02-.56-1.08-.55-1.13-.54-1.15-.53-1.14-.51-1.09-.46-1.05-.41-1.02-.37-1.01-.33-1.04-.33-1.07-.33-1.06-.33-1.01-.32-.98-.33-1.02-.34-1.15-.36-1.31-.35-1.47-.34-2.21-.52" filter="url(#a)"/><path d="m30.77-74.92-1.66-1.21-1.07-1.11-.94-1.24-.89-1.13-.86-.95-.84-.9-.85-1.03-.84-1.33-.81-1.72-.73-2.14-.65-2.51-.66-2.71-.76-2.63-.96-2.23-1.17-1.66-1.28-1.1-1.28-.75-1.18-.72-.93-1.18-.38-2.23.32-3.74" filter="url(#a)"/><path d="m17.63-79.57 1.62.07 1.87-.32 1.51-.49 1.19-.4 1.13-.39 1.27-.51 1.46-.67 1.6-.69 1.64-.58 1.6-.36 1.49-.1 1.37.12 1.24.23 1.14.24 1.03-.45" filter="url(#a)"/><path d="m29.72-80.54-.62-.03-1.27-.01-1.28-.01-1.15-.01-1.03-.07-1.01-.16-1.08-.21-1.17-.12-1.19.07-1.11.22-1.02.22-1.06.1-1.23-.02-1.24-.04-.52.06m-5.49-1.11.46-1.27-.69-3.68-1.29-3-1.34-.96-1.17.38-1 .39-.92-.46-.98-1.44-1.1-2.05-1.28-2.1-1.47-1.65-1.67-1.07-1.82-.8-1.77-1.25-1.2-2.15.4-2.71L9.39-81.39l-1.3-.02-1.85-.17-1.49-.05-1.07.05-.87.12-.83.13-.91.11-1.02.1-1.15.07-1.26.06-1.31.04-1.3.05-1.23.08-1.14.14-1.1.21-1.16.28-1.26.35-1.27.34-.9.22.05-.08 22.37-2.03-.76-6.11-1.86-1.23-1.63.93-1.22 1.23-.99.72-.94-.01-1.01-.61-1.13-.96-1.27-1.04-1.39-.91-1.44-.69-1.45-.46-1.42-.3-1.37-.2-1.35-.14-1.37-.15-1.4-.23-1.43-.45-1.46-.8-1.53-1.24-1.71-1.65-1.97-1.76-2.16-1.31-2.17-.42L9.39-81.39l-1.24-.6-1.83-.96-1.45-1.28-1.03-1.59-.83-1.55-.83-1.19-.96-.79-1.12-.68-1.3-.88-1.45-1.12-1.56-1.17-1.57-1.06-1.52-1.05-1.43-1.38-1.42-1.85-1.61-1.99-2.06-1.53-3.03-1.21 5.45 11.02 1.17 1.22 1.16.78 1.06.9 1.21 1.05 1.41 1.12 1.51 1.03 1.47.83 1.35.59 1.19.46 1.04.41.88.43.76.41.75.35.97.29 1.63.35 3.07.44" filter="url(#a)"/><path d="m2.64-81.95-.53-3.97-.99-3.16-1.22-.71-1.38-.08-1.5-.25-1.51-.24-1.44.06-1.34.3-1.3.14-1.37-.37-1.49-1-1.57-1.44-1.6-1.59-1.55-1.45-1.52-1.15-1.57-.83-1.71-.75-1.85-1.22-1.72-2.25-.74-3.42" filter="url(#a)"/><path d="m2.64-81.95-.55-2.03-.99-1.6-1.15-.08-1.28.59-1.37.6-1.42.28-1.41-.16-1.36-.63-1.34-1.05-1.39-1.39-1.49-1.6-1.56-1.66-1.55-1.55-1.46-1.23-1.37-.72-1.4-.19-1.6-.03-1.96-.53-2.17-.87L2.49-81.81l-1.35-1.31-1.23-1.11-1.32-.86-1.48-1.19-1.57-1.44-1.52-1.34-1.38-.91-1.26-.39-1.23.03-1.28.15-1.4-.12-1.46-.75-1.49-1.45-1.51-1.82-1.62-1.65-1.87-1.32-2.16-.82" filter="url(#a)"/></g><g fill="none" stroke="#000"><circle cx="10.246" cy="6.07" r="1.744" filter="url(#a)"/><circle cx="11.294" cy="7.038" r="2.828" filter="url(#a)"/><circle cx="10.674" cy="6.254" r="1.608" filter="url(#a)"/><circle cx="12.91" cy="4.946" r="1.028" filter="url(#a)"/><circle cx="11.046" cy="7.786" r="2.978" filter="url(#a)"/><circle cx="11.93" cy="7.486" r="2.382" filter="url(#a)"/><circle cx="12.778" cy="5.774" r="1.41" filter="url(#a)"/><circle cx="9.098" cy="6.882" r="1.69" filter="url(#a)"/><circle cx="10.07" cy="7.866" r="2.226" filter="url(#a)"/><circle cx="9.154" cy="6.07" r="2.33" filter="url(#a)"/><circle cx="-12.948" cy="4.982" r="1.14" filter="url(#a)"/><circle cx="-12.62" cy="7.238" r="1.484" filter="url(#a)"/><circle cx="-9.824" cy="6.802" r="1.034" filter="url(#a)"/><circle cx="-9.668" cy="6.954" r="2.498" filter="url(#a)"/><circle cx="-12.336" cy="5.11" r="1.254" filter="url(#a)"/><circle cx="-11.184" cy="5.178" r="1.45" filter="url(#a)"/><circle cx="-13.036" cy="5.818" r="2.336" filter="url(#a)"/><circle cx="-11.836" cy="6.45" r="1.97" filter="url(#a)"/><circle cx="-11.596" cy="8.53" r="2.968" filter="url(#a)"/><circle cx="-10.012" cy="5.338" r="2.112" filter="url(#a)"/></g><path fill="#CC66B7" stroke="#000" stroke-linejoin="round" stroke-width="3" d="m-52.39 41.05.76 1.46.76 1.44.77 1.4.77 1.38.78 1.34.79 1.31.79 1.29.8 1.25.8 1.22.81 1.19.82 1.16.83 1.13.83 1.1.83 1.07.85 1.04.85 1 .86.98.86.95.87.91.88.89.88.85.89.83.9.79.91.77.91.73.92.7.92.67.93.65.94.61.95.58.96.55.96.51.97.49.97.46.99.43.99.39 1 .37 1 .33 1.02.31 1.02.27 1.03.25 1.04.21 1.04.18 1.05.15 1.06.12 1.07.09 1.08.06 1.08.03h1.09l1.1-.03 1.11-.07 1.12-.09 1.12-.13 1.14-.15 1.14-.19 1.15-.22 1.15-.24 1.17-.28 1.17-.31 1.19-.34 1.19-.37 1.2-.4 1.21-.44 1.22-.46 1.22-.49 1.24-.53 1.24-.55 1.25-.59 1.26-.62 1.27-.64 1.28-.68 1.29-.71 1.3-.74 1.31-.77 1.31-.8 1.33-.84 1.33-.86 1.34-.89 1.36-.93 1.36-.96 1.37-.98 1.38-1.02 1.39-1.05 1.4-1.08 1.41-1.11 1.42-1.14 1.42-1.17 1.44-1.2 1.45-1.24 1.46-1.26 1.47-1.3 1.47-1.32 1.49-1.36 1.5-1.39 1.5-1.42 1.52-1.45 1.53-1.48 1.54-1.51 1.54-1.55-1.1 1.11-1.11 1.08-1.11 1.06-1.1 1.04-1.11 1.02-1.11 1-1.1.97-1.11.95-1.11.93-1.1.91-1.11.89-1.11.86-1.1.84-1.11.82-1.11.8-1.1.78-1.11.75-1.11.74-1.1.71-1.11.68-1.1.67-1.11.65-1.11.62-1.1.6-1.11.58-1.11.56-1.1.53-1.11.52-1.11.49-1.1.47-1.11.45-1.11.42-1.1.41-1.11.38-1.11.36-1.1.34-1.11.32-1.11.29-1.1.27-1.11.25-1.11.23-1.1.21-1.11.19-1.1.16-1.11.14-1.11.13-1.1.09-1.11.08-1.11.06-1.1.03-1.11.01-1.11-.01-1.1-.03-1.11-.06-1.11-.07-1.1-.1-1.11-.12-1.11-.14-1.1-.16-1.11-.19-1.11-.2-1.1-.23-1.11-.25-1.11-.27-1.1-.29-1.11-.32-1.1-.34-1.11-.35-1.11-.38-1.1-.41-1.11-.42-1.11-.44-1.1-.47-1.11-.49-1.11-.51-1.1-.53-1.11-.56-1.11-.57-1.1-.6-1.11-.62-1.11-.64-1.1-.66-1.11-.68-1.11-.71-1.1-.73-1.11-.75-1.11-.77-1.1-.79-1.11-.81-1.1-.84-1.11-.85-1.11-.88-1.1-.9-1.11-.93-1.11-.94-1.1-.96-1.11-.99-1.11-1.01-1.1-1.03" filter="url(#a)"/></svg>