<svg xmlns="http://www.w3.org/2000/svg" width="500" height="500" viewBox="-100 -100 200 200"><defs><clipPath id="c"><path d="m23.46 7.17.01-.59-.02-.62-.04-.64-.07-.66-.09-.68-.12-.7-.14-.7-.18-.72-.19-.72-.23-.72-.26-.72-.28-.72-.31-.71-.34-.71-.36-.69-.26-.99-.3-.97-.36-.94-.4-.91-.45-.87-.5-.84-.54-.79-.6-.75-.63-.71-.68-.66-.72-.6-.76-.56-.8-.5-.83-.45-.87-.39-.89-.33-.93-.29-.95-.22-.98-.17-1-.11-1.02-.06-1.03-.01-1.05.05-1.06.1-1.07.15-1.08.21-1.08.25-1.08.29-1.09.34-1.08.38-1.07.43-1.07.46-1.06.5-1.05.53-1.04.56-1.03.59-1.01.62-.99.64-.97.67-.96.68-.94.7-.91.71-.89.73-.88.73-.84.74-.83.74-.8.74-.78.75-.76.74-.73.73-.71.73-.7.73-.67.73-.65.73-.63.72-.61.72-.59.72-.56.7-.55.7-.53.69-.5.68-.49.67-.47.66-.44.65-.28 9.05.43.02.45.01.47.01.48-.01.5-.01.51-.02.53-.02.55-.04.56-.04.58-.04.59-.06.61-.06.63-.07.63-.07.66-.08.67-.09.69-.09.71-.1.73-.11.74-.11.76-.12.78-.12.79-.12.8-.13.82-.13.84-.14.84-.13.86-.14.87-.14.87-.14.89-.14.89-.13.9-.14.9-.13.91-.13.91-.13.91-.12.91-.12.91-.11.91-.11.9-.1.9-.1.89-.08.88-.08.87-.07.87-.06.85-.06.83-.05.83-.03.8-.03.79-.02.77-.02h1.49l.71.01.69.01.67.02.65.02.62.03.6.03.57.03.55.02.53.03.5.02.52-.09.49-.11.49-.11.47-.14.46-.15.44-.17.43-.2.42-.22.4-.25.39-.27.38-.31.36-.34.36-.38.34-.41.32-.46"/></clipPath><clipPath id="b"><path d="m-24.89 8.9-.03-.71v-.76l.01-.79.03-.82.05-.84.08-.86.09-.88.12-.89.14-.89.17-.91.19-.9.21-.9.25-.9.26-.88.29-.88.18-1.24.22-1.21.26-1.19.31-1.14.36-1.11.4-1.05.45-1.01.49-.96.54-.9.58-.84.62-.78.66-.71.71-.65.74-.58.78-.51.81-.45.85-.37.87-.3.91-.24.93-.16.96-.09.98-.03 1 .04 1.03.11 1.03.18 1.05.24 1.06.3 1.08.36 1.08.41 1.08.47 1.09.53 1.09.57 1.09.62 1.08.67 1.08.7 1.08.75 1.06.78 1.06.81 1.05.84 1.03.86 1.02.89 1.01.91.99.92.97.93.95.95.94.95.92.95.89.95.88.95.86.95.84.94.82.94.81.94.79.94.77.94.75.93.73.92.72.91.7.91.68.9.66.88.65.88.62.86.61.85 4.03 11.87-.29.01-.31.01h-.33l-.35-.01-.36-.02-.39-.03-.4-.04-.42-.05-.45-.05-.46-.07-.49-.07-.51-.09-.52-.09-.55-.1-.57-.11-.6-.11-.61-.13-.64-.13-.66-.14-.69-.14-.72-.16-.74-.16-.76-.16-.79-.17-.81-.17-.84-.18-.87-.18-.88-.19-.91-.18-.93-.19-.95-.18-.97-.19-.98-.18-1-.18-1.02-.18-1.03-.17-1.04-.17-1.05-.16-1.06-.16-1.07-.15-1.06-.14-1.07-.13-1.07-.13-1.06-.11-1.06-.11-1.05-.1-1.04-.08-1.03-.08-1.01-.06-.99-.05-.98-.05-.95-.03-.93-.03-.9-.01-.88-.01h-.85l-.81.01-.78.01-.75.02-.71.02-.67.02-.64.01-.6.02h-.56l-.62-.13-.6-.15-.59-.18-.56-.19-.55-.22-.52-.25-.51-.27-.49-.31-.48-.34-.45-.39-.44-.42-.42-.46-.41-.52-.39-.57-.38-.62"/></clipPath><filter id="a"><feTurbulence baseFrequency=".05" numOctaves="3" result="noise" type="noise"/><feDisplacementMap in="SourceGraphic" in2="noise" scale="2"/></filter></defs><rect width="100%" height="100%" x="-100" y="-100" fill="#C1F2A6"/><path fill="#9B20DF" stroke="#000" stroke-linejoin="round" stroke-width="1.667" d="m66.86 1.88.11-.52.01-.01v4.14l.03-1.61-.21 1.52-.17 1.58.04 1.28-.14 1.09-.46 3.9.29-1.36-.43 2.98-.34 1.89-.18 1.14.25-.95-.4 1.39-.61 2.7.19-1.29-.74 4.22.03-.05-.13.05-.08.35-1.21 4.22.38-.97-.68 2.47-.56 1.11-.71 1.97.34-.34-1.1 2.54-.42.89.13.14-.66 1.57-1.11 2.03-.13.46-1.04 2.04-.42.93-.16.64-1.24 1.84-.04.27.04-.41-1.96 3.54-.61 1.19.31-1.03-1.01 2.21-.49.7-1.05 1.36h.13l-.59.7-1.26 1.48.17.03-1.63 2.22.08-.3-1.8 1.69-.6 1.37.05-.47-1.72 1.51.03.16-1.2 1.42.15-.14-1.97 2.18-.91.19-1.27 1.04-.9.89-1.52 1.6.93-1.05-1.43 1.03-1.6 1.37.31-.41-2.21 1.34-.99.97-1 .63-1.33.75.71-.54-.42.43-1.57.68-2.67 1.41-.99.46-1.29.56 1.18-.52-2.38 1.17-1.34.43-1.64.75.43-.29-1.51.58-1.15.54-.23-.14.19.16-.99.01-2.84.72-1.29.39.35-.2-1.87.18-.35.35L7.68 81l-1.36.3-1.56.08H4.5l-.37.01-3.58.19 1.4.02-1.4.07-3.3-.03 1.63-.1-2.31-.08-.25.04-.98-.1-2.58-.34.78.34-1.86-.26-.91-.33-2.06-.42-1.09-.3-.27-.11-1.44.02-1.09-.7-.23.2-2.36-.89-.87-.07 1.49.54-2.53-1.02-.34-.07-1.18-.73-1.58-.5-2.02-.95 1.23.67-1.5-.82-1.32-.83-.86-.27-.51-.59-1.47-.57-2.7-1.64.81.18-1.57-.65-.65-.19-.52-.62-1.22-1.04-.24-.15-.47-.48-1.5-1.59-2.59-1.72.51.5-.66-.57-1.7-1.65.12-.2-.72-.25-1.42-1.86-.47-.2-1.58-1.75.02.09-1.41-1.68-.25-.44-1.26-1.07-.08-.62.04-.14-1.5-1.58-.49-1.03-1.27-1.77-.17-.16-.83-1.36.3.64-1.03-1.87-.26-.72-.89-.71-1.31-2.61.13.04-1.41-2.55-.27-.8-.81-1.56.29.83-.53-.97-.35-1.07-1.51-4.26.61 1.46-1.15-2.68.38.99-1.1-2.75-.14-.48-.44-1.46-.73-2.16-.12-1.01-.18.09-.68-3.55.02.17-.38-1.24-.5-1.4-.39-2.86.17.21-.32-1.26-.24-1.02-.05-.81.01-.04-.48-4.3.04.27-.11-.93-.17-.74-.13-3.3-.05.57-.04-3.15-.17.79.18-1.76-.1-1.32-.07-2.71.1 1.56v-2.96l.26-1.71-.08-1.92-.06.34.35-2.46v-.34l.01-.76.2-1.48.28-2.42.02.83.04-1.19.54-2.81.55-2.42-.21-.11-.02.48.47-2.35.6-2.39-.07.74.85-3.16.07-.03.76-2.72.27-1.5.18.22.47-1.66.11-1.08.36-.6.89-2.41 1.05-1.48.24-1.04.06-.55.86-1.57.28-.26.83-1.52.96-1.95.07-.6.98-1.3-.06-.2.66-.96.58-.61.41-.69.93-1.77.5-1.15 1.1-1.16.33-.26.34-1.12.82-.97.31-.43 1.48-1.7.63-.9.27-.07 1.95-2.15.87-1.08 1.23-1.12-.91.87.69-.48 1.07-1.29.67-.71 1.06-.93.04-.16.69-.67 2.45-1.73.79-.81 1.28-.99-.75.6 1.41-.78 1.43-1.21.25-.32 1.25-.73 1.12-.76.7-.31 2.3-1.2.67-.22 1.12-.47.71-.79 2.07-.87-.09.4-.18-.36 1.87-.79.61-.12.34-.23 1.51-.68 2.7-.47.1.09.06-.16 3.47-1.01-2.34.41 2.48-.53.88-.01 1.36-.34 1.74-.16.49-.29.6.11.67-.31.54.08 2.65-.18.43-.03 2.52.02.24-.15.29.1.54.15 2.14-.07.92-.03 1.38.48.81-.26 1.05.45.75.09 2.47.16-.21.2.91-.02 1.57.49 1.08.15-.36.08 2.25.52 1.02.33 1.84.51 1.12.4-.01-.22-.53-.09 2.17.98.53.34 1.15.38 1.41.63 1.11.76 1.11.41 1.18.56 1.29 1.04-.65-.18 1.73.51.89.86.74.62 1.95 1.3-.38-.53 1.35.82.98.97.44.32 1.24.97.06.53 1.22.69 1.29 1.24.79.45 1.27 1.21.92.87-.21.34.07-.2L46-59.47l-.04-.26.84 1.52.33.05.1.04 1.74 1.99.82 1.41.79.8-.39.01 1.51 1.78.71 1.42 1.2 1.82.84 1.06-.84-1.09 1.39 2.2.49.97.25.65 1.03 1.81-.2-.54 1.44 2.28-.25.2.79 1.27 1.17 3.05.11-.2-.04.54.8 1.58.57 1.8.77 1.91.28.68-.15.12.38.68 1 3.42-.85-2.37 1.07 3.54.38 1.66.25.89.73 2.65-.11-.47.09.6.4 1.64.16 1.23.2 1.45.07 1.21.27 1.25.02.53.5 3.54-.1.04.27 1.85.09 1.49.08.76.03-.24.1 3.51-.15.95-.08 2.67.11-.52" filter="url(#a)"/><path fill="#fff" d="m-24.89 8.9-.03-.71v-.76l.01-.79.03-.82.05-.84.08-.86.09-.88.12-.89.14-.89.17-.91.19-.9.21-.9.25-.9.26-.88.29-.88.18-1.24.22-1.21.26-1.19.31-1.14.36-1.11.4-1.05.45-1.01.49-.96.54-.9.58-.84.62-.78.66-.71.71-.65.74-.58.78-.51.81-.45.85-.37.87-.3.91-.24.93-.16.96-.09.98-.03 1 .04 1.03.11 1.03.18 1.05.24 1.06.3 1.08.36 1.08.41 1.08.47 1.09.53 1.09.57 1.09.62 1.08.67 1.08.7 1.08.75 1.06.78 1.06.81 1.05.84 1.03.86 1.02.89 1.01.91.99.92.97.93.95.95.94.95.92.95.89.95.88.95.86.95.84.94.82.94.81.94.79.94.77.94.75.93.73.92.72.91.7.91.68.9.66.88.65.88.62.86.61.85 4.03 11.87-.29.01-.31.01h-.33l-.35-.01-.36-.02-.39-.03-.4-.04-.42-.05-.45-.05-.46-.07-.49-.07-.51-.09-.52-.09-.55-.1-.57-.11-.6-.11-.61-.13-.64-.13-.66-.14-.69-.14-.72-.16-.74-.16-.76-.16-.79-.17-.81-.17-.84-.18-.87-.18-.88-.19-.91-.18-.93-.19-.95-.18-.97-.19-.98-.18-1-.18-1.02-.18-1.03-.17-1.04-.17-1.05-.16-1.06-.16-1.07-.15-1.06-.14-1.07-.13-1.07-.13-1.06-.11-1.06-.11-1.05-.1-1.04-.08-1.03-.08-1.01-.06-.99-.05-.98-.05-.95-.03-.93-.03-.9-.01-.88-.01h-.85l-.81.01-.78.01-.75.02-.71.02-.67.02-.64.01-.6.02h-.56l-.62-.13-.6-.15-.59-.18-.56-.19-.55-.22-.52-.25-.51-.27-.49-.31-.48-.34-.45-.39-.44-.42-.42-.46-.41-.52-.39-.57-.38-.62" filter="url(#a)" transform="translate(42.24 -25.42)"/><path fill="#fff" d="m23.46 7.17.01-.59-.02-.62-.04-.64-.07-.66-.09-.68-.12-.7-.14-.7-.18-.72-.19-.72-.23-.72-.26-.72-.28-.72-.31-.71-.34-.71-.36-.69-.26-.99-.3-.97-.36-.94-.4-.91-.45-.87-.5-.84-.54-.79-.6-.75-.63-.71-.68-.66-.72-.6-.76-.56-.8-.5-.83-.45-.87-.39-.89-.33-.93-.29-.95-.22-.98-.17-1-.11-1.02-.06-1.03-.01-1.05.05-1.06.1-1.07.15-1.08.21-1.08.25-1.08.29-1.09.34-1.08.38-1.07.43-1.07.46-1.06.5-1.05.53-1.04.56-1.03.59-1.01.62-.99.64-.97.67-.96.68-.94.7-.91.71-.89.73-.88.73-.84.74-.83.74-.8.74-.78.75-.76.74-.73.73-.71.73-.7.73-.67.73-.65.73-.63.72-.61.72-.59.72-.56.7-.55.7-.53.69-.5.68-.49.67-.47.66-.44.65-.28 9.05.43.02.45.01.47.01.48-.01.5-.01.51-.02.53-.02.55-.04.56-.04.58-.04.59-.06.61-.06.63-.07.63-.07.66-.08.67-.09.69-.09.71-.1.73-.11.74-.11.76-.12.78-.12.79-.12.8-.13.82-.13.84-.14.84-.13.86-.14.87-.14.87-.14.89-.14.89-.13.9-.14.9-.13.91-.13.91-.13.91-.12.91-.12.91-.11.91-.11.9-.1.9-.1.89-.08.88-.08.87-.07.87-.06.85-.06.83-.05.83-.03.8-.03.79-.02.77-.02h1.49l.71.01.69.01.67.02.65.02.62.03.6.03.57.03.55.02.53.03.5.02.52-.09.49-.11.49-.11.47-.14.46-.15.44-.17.43-.2.42-.22.4-.25.39-.27.38-.31.36-.34.36-.38.34-.41.32-.46" filter="url(#a)" transform="translate(-38.39 -22.91)"/><g fill="none" stroke="#000" transform="translate(42.24 -25.42)"><path stroke-linejoin="round" stroke-width="1.667" d="m-24.01 12.77-.11-.03-.12-.12-.11-.21-.11-.3-.1-.38-.09-.44-.08-.52-.07-.57-.05-.62-.04-.68-.03-.71v-.76l.01-.79.03-.82.05-.84.08-.86.09-.88.12-.89.14-.89.17-.91.19-.9.21-.9.25-.9.26-.88.29-.88.18-1.24.22-1.21.26-1.19.31-1.14.36-1.11.4-1.05.45-1.01.49-.96.54-.9.58-.84.62-.78.66-.71.71-.65.74-.58.78-.51.81-.45.85-.37.87-.3.91-.24.93-.16.96-.09.98-.03 1 .04 1.03.11 1.03.18 1.05.24 1.06.3 1.08.36 1.08.41 1.08.47 1.09.53 1.09.57 1.09.62 1.08.67 1.08.7 1.08.75 1.06.78 1.06.81 1.05.84 1.03.86 1.02.89 1.01.91.99.92.97.93.95.95.94.95.92.95.89.95.88.95.86.95.84.94.82.94.81.94.79.94.77.94.75.93.73.92.72.91.7.91.68.9.66.88.65.88.62.86.61.85.59.83.57.82.56.8.53.79.52.77.51.75.48.74.47.72.46.71.43.69" filter="url(#a)"/><path stroke-linejoin="round" stroke-width="2.222" d="m-26.82 2.77.3 1.41.31 1.3.3 1.21.31 1.13.32 1.03.32.96.33.88.35.81.35.74.36.68.38.62.39.57.41.52.42.46.44.42.45.39.48.34.49.31.51.27.52.25.55.22.56.19.59.18.6.15.62.13h.56l.6-.02.64-.01.67-.02.71-.02.75-.02.78-.01.81-.01h.85l.88.01.9.01.93.03.95.03.98.05.99.05 1.01.06 1.03.08 1.04.08 1.05.1 1.06.11 1.06.11 1.07.13 1.07.13 1.06.14 1.07.15 1.06.16 1.05.16 1.04.17 1.03.17 1.02.18 1 .18.98.18.97.19.95.18.93.19.91.18.88.19.87.18.84.18.81.17.79.17.76.16.74.16.72.16.69.14.66.14.64.13.61.13.6.11.57.11.55.1.52.09.51.09.49.07.46.07.45.05.42.05.4.04.39.03.36.02.35.01h.33l.31-.01.29-.01.28-.03.25-.04.24-.04.23-.06.21-.06.19-.08.18-.08.17-.09.15-.1.14-.11" filter="url(#a)"/><circle cx="10.629" cy="11.252" r="3.81" clip-path="url(#b)" filter="url(#a)"/><circle cx="8.534" cy="9.162" r="3.94" clip-path="url(#b)" filter="url(#a)"/><circle cx="8.524" cy="9.567" r="3.042" clip-path="url(#b)" filter="url(#a)"/><circle cx="8.874" cy="8.492" r="3.142" clip-path="url(#b)" filter="url(#a)"/><circle cx="7.314" cy="13.032" r="3.508" clip-path="url(#b)" filter="url(#a)"/><circle cx="8.009" cy="12.412" r="4.05" clip-path="url(#b)" filter="url(#a)"/><circle cx="9.804" cy="10.132" r="3.962" clip-path="url(#b)" filter="url(#a)"/><circle cx="10.639" cy="9.307" r="3.636" clip-path="url(#b)" filter="url(#a)"/><circle cx="10.479" cy="10.937" r="3.78" clip-path="url(#b)" filter="url(#a)"/><circle cx="7.059" cy="9.352" r="4.98" clip-path="url(#b)" filter="url(#a)"/></g><g fill="none" stroke="#000" transform="translate(-38.39 -22.91)"><path stroke-linejoin="round" stroke-width="2.222" d="m22.41 10.48.17-.05.15-.12.15-.2.13-.27.12-.32.1-.38.09-.43.07-.47.05-.52.02-.55.01-.59-.02-.62-.04-.64-.07-.66-.09-.68-.12-.7-.14-.7-.18-.72-.19-.72-.23-.72-.26-.72-.28-.72-.31-.71-.34-.71-.36-.69-.26-.99-.3-.97-.36-.94-.4-.91-.45-.87-.5-.84-.54-.79-.6-.75-.63-.71-.68-.66-.72-.6-.76-.56-.8-.5-.83-.45-.87-.39-.89-.33-.93-.29-.95-.22-.98-.17-1-.11-1.02-.06-1.03-.01-1.05.05-1.06.1-1.07.15-1.08.21-1.08.25-1.08.29-1.09.34-1.08.38-1.07.43-1.07.46-1.06.5-1.05.53-1.04.56-1.03.59-1.01.62-.99.64-.97.67-.96.68-.94.7-.91.71-.89.73-.88.73-.84.74-.83.74-.8.74-.78.75-.76.74-.73.73-.71.73-.7.73-.67.73-.65.73-.63.72-.61.72-.59.72-.56.7-.55.7-.53.69-.5.68-.49.67-.47.66-.44.65-.43.64-.41.62-.39.61-.37.6-.35.59-.34.57-.32.56-.3.55-.28.53-.27.52" filter="url(#a)"/><path stroke-linejoin="round" stroke-width="2.222" d="m25.49 3.18-.23 1.06-.24.97-.25.91-.25.84-.27.77-.27.71-.28.66-.3.6-.3.55-.32.5-.32.46-.34.41-.36.38-.36.34-.38.31-.39.27-.4.25-.42.22-.43.2-.44.17-.46.15-.47.14-.49.11-.49.11-.52.09-.5-.02-.53-.03-.55-.02-.57-.03-.6-.03-.62-.03-.65-.02-.67-.02-.69-.01-.71-.01H8.93l-.77.02-.79.02-.8.03-.83.03-.83.05-.85.06-.87.06-.87.07-.88.08-.89.08-.9.1-.9.1-.91.11-.91.11-.91.12-.91.12-.91.13-.91.13-.9.13-.9.14-.89.13-.89.14-.87.14-.87.14-.86.14-.84.13-.84.14-.82.13-.8.13-.79.12-.78.12-.76.12-.74.11-.73.11-.71.1-.69.09-.67.09-.66.08-.63.07-.63.07-.61.06-.59.06-.58.04-.56.04-.55.04-.53.02-.51.02-.5.01-.48.01-.47-.01-.45-.01-.43-.02-.42-.02-.4-.04-.39-.04-.37-.05-.36-.06-.34-.06-.32-.07-.31-.08-.3-.09-.28-.09" filter="url(#a)"/><circle cx="-11.707" cy="-2.369" r="4.254" clip-path="url(#c)" filter="url(#a)"/><circle cx="-11.317" cy="-1.144" r="3.268" clip-path="url(#c)" filter="url(#a)"/><circle cx="-11.482" cy="-1.499" r="4.544" clip-path="url(#c)" filter="url(#a)"/><circle cx="-8.717" cy="-.874" r="3.336" clip-path="url(#c)" filter="url(#a)"/><circle cx="-11.027" cy="-.559" r="4.618" clip-path="url(#c)" filter="url(#a)"/><circle cx="-7.837" cy="-.609" r="4.016" clip-path="url(#c)" filter="url(#a)"/><circle cx="-7.157" cy="1.716" r="4.266" clip-path="url(#c)" filter="url(#a)"/><circle cx="-8.487" cy=".531" r="4.454" clip-path="url(#c)" filter="url(#a)"/><circle cx="-7.622" cy=".081" r="4.08" clip-path="url(#c)" filter="url(#a)"/><circle cx="-9.237" cy="-2.079" r="4.072" clip-path="url(#c)" filter="url(#a)"/></g><g fill="none" stroke="#865D13" stroke-linejoin="round" stroke-width="2"><path d="m-5.44-81.48 1.76-.06.9.14.25.32-.37.52-.92.73-1.4.96-1.85 1.18-2.38 1.4-2.98 1.64-3.69 1.92-4.49 2.25-5.38 2.66-6.28 3.07-7.14 3.34" filter="url(#a)"/><path d="m29.38-73.3.03.07.56.37.55.49.36.46.1.38-.17.3-.47.23-.77.19-1.08.13-1.41.09-1.73.03-2.07-.04-2.43-.12-2.84-.22-3.32-.33-3.85-.44-4.39-.56-4.89-.67-5.35-.76-5.81-.87-6.3-.99" filter="url(#a)"/><path d="m49.79-54.72.49.62.45.72.53.89.48.85.32.65.09.36-.13.11-.34-.12-.55-.34-.76-.56-1-.82-1.27-1.1-1.56-1.41-1.87-1.72-2.18-2.05-2.5-2.42-2.84-2.85-3.27-3.34-3.78-3.83m-50.75-6.78.73-.16 1.25-.24 1.69-.24 1.9-.17 1.97-.12 2.02-.06 2.08-.02 2.17.01 2.26.05 2.35.07 2.4.09 2.41.11 2.35.13 2.29.13 2.21.12 2.1.11 1.98.08 1.81.05 1.59.01 1.31-.02.95-.1M55.74-45.1l.67 1.13.45.77.38.78.31.78.2.71.08.56-.08.38-.22.19-.38-.02-.55-.24-.74-.49-.95-.78-1.17-1.08-1.41-1.38-1.64-1.67-1.87-1.96-2.1-2.25-2.34-2.55-2.59-2.93-2.9-3.35-3.27-3.85-3.68-4.33-4.09-4.78" filter="url(#a)"/><path d="m11.45-80.57 1.22.35.82.25.72.24.68.27.57.26.31.22-.02.19-.36.17-.67.16-.94.18-1.18.2-1.44.21-1.75.21-2.15.19-2.6.15-3.14.12-3.7.07-4.25.03-4.72-.03-5.21-.04" filter="url(#a)"/><path d="m-15.49-79.36.44-.03 1.14-.18 1.52-.2 1.75-.16 1.99-.11 2.21-.08 2.36-.06 2.4-.03H.7l2.28.03 2.13.04 1.96.02 1.76-.01 1.6-.02 1.46.01m28.35 14.96.81.62.62.66.34.55.13.47-.03.41-.21.35-.45.23-.73.09-1.03-.05-1.34-.17-1.67-.28-2.01-.41-2.36-.54-2.71-.7-3.09-.87-3.48-1.05-3.94-1.27-4.44-1.52-4.96-1.77-5.43-2.01-5.78-2.24-6.18-2.41" filter="url(#a)"/><path d="m-20.65-77.86.72-.19 1.24-.32 1.67-.38 1.85-.36 1.86-.33 1.8-.32 1.73-.3 1.68-.29 1.62-.27 1.53-.25 1.38-.23 1.12-.2.85-.16.63-.14.56-.09m-25.74 6.71 1.14-.52 1.33-.51 1.42-.37 1.49-.27 1.64-.21 1.85-.19 2.06-.18 2.26-.17 2.4-.15 2.48-.13 2.52-.11 2.49-.08 2.46-.07L1.8-78l2.34-.06 2.28-.06 2.17-.09 2.04-.09 1.88-.09 1.73-.1 1.69-.05 1.85.08" filter="url(#a)"/><path d="m28.09-74.34.78.65.62.43.75.47.8.51.74.49.61.41.43.32.25.23.05.14-.15.05-.35-.04-.55-.14-.77-.27-1.04-.41-1.4-.59-1.82-.81-2.29-1.05-2.69-1.29-3.03-1.5-3.4-1.72m-29.83-1.57 2.08-.23 2.04.13 2.23.39 2.45.62 2.66.85 2.9 1.06 3.21 1.24 3.54 1.42 3.83 1.56 4.06 1.7 4.17 1.81 4.22 1.86 4.21 1.88 4.23 1.88 4.32 1.91 4.42 2.01 4.41 2.05" filter="url(#a)"/><path d="m41.03-64.73.85.96.18.64-.24.51-.52.5-.86.49-1.31.39-1.82.28-2.35.16-2.87.1-3.39.03-3.94-.03-4.5-.11-5.09-.22-5.68-.35-6.28-.49-6.93-.64-7.7-.78-8.6-.84-9.56-.79" filter="url(#a)"/><path d="m59.72-37.03.1.1.2.61.28.86.22.83.1.59-.07.29-.25-.01-.43-.28-.58-.52-.75-.76-.93-1.01-1.13-1.34-1.38-1.72-1.64-2.19-1.93-2.69-2.2-3.17-2.46-3.63-2.73-4.08-3.04-4.58-3.44-5.16M10.54-80.55l.98.12.89.23.69.25.55.28.43.31.25.32-.03.31-.35.31-.69.31-.97.34-1.24.38-1.51.43-1.81.49-2.15.54-2.56.58-3.02.61-3.51.64-4.01.65-4.49.66-4.96.7-5.44.77-6.04.89" filter="url(#a)"/><path d="m45.96-59.73.58.94.36.48.31.45.2.44v.31l-.3.09-.62-.17-.97-.43-1.32-.73-1.75-1.1-2.19-1.54-2.65-1.97-3.05-2.37-3.42-2.72-3.86-3.09-4.57-3.59m-57.99 5.28 1.4-.82 1.44-.79 1.57-.71 1.79-.66 2.03-.65 2.23-.64 2.37-.64 2.45-.61 2.48-.59 2.49-.54 2.49-.51 2.47-.45 2.47-.41 2.45-.39 2.4-.38 2.34-.39 2.24-.39 2.13-.38 2.01-.35 1.8-.32 1.52-.3m10.67 2.06.32.26 1.08.6 1.29.69 1.41.77 1.45.82 1.47.86 1.43.86 1.35.85 1.26.8 1.17.76 1.08.71 1 .65.88.57.73.45.53.33.34.18.13.04-.07-.1-.28-.27-.54-.47-.91-.73" filter="url(#a)"/><path d="m-36.6-68.25.88-.74.94-.56 1.1-.53 1.36-.61 1.59-.69 1.76-.74 1.91-.76 2.03-.77 2.11-.76 2.16-.74 2.15-.71 2.11-.69 2.02-.64 1.91-.59 1.79-.55 1.66-.52 1.54-.48 1.42-.46 1.3-.44 1.15-.4 1.01-.35.92-.31.92-.24" filter="url(#a)"/><path d="m-11.72-80.56.97-.09.99-.11.78-.04.51.05.3.16.17.26.07.36-.07.48-.27.59-.55.73-.88.88-1.21 1.05-1.54 1.22-1.85 1.41-2.18 1.59-2.5 1.77-2.86 1.94-3.22 2.12-3.62 2.31-4.04 2.52-4.52 2.78-5 3.1-5.46 3.41" filter="url(#a)"/><path d="m-22.52-77.07 1.45-.55 1.24-.38 1.4-.37 1.61-.37 1.69-.34 1.68-.33 1.62-.3 1.54-.29 1.49-.27 1.44-.25 1.37-.24 1.26-.21 1.08-.19.86-.17.63-.13.43-.11.25-.07-.04-.03-.5-.01m-24.8 6.92 1.04-.24 1.74-.26 2.28-.15 2.69.02 3.05.19 3.41.31 3.82.4 4.23.47 4.61.55 4.92.6 5.11.65 5.19.69 5.23.71 5.29.75 5.35.77" filter="url(#a)"/><path d="m40.24-65.18.77.58.55.6.19.42-.12.25-.35.13-.62-.01-.99-.22-1.43-.49-1.91-.76-2.38-1.03-2.88-1.27-3.42-1.56-4.02-1.88-4.71-2.25-5.43-2.62-6.16-2.97" filter="url(#a)"/><path d="m47.13-58.16.54.6.81 1.02.66.94.47.75.32.62.2.51.05.36-.16.13-.4-.14-.68-.44-.96-.72-1.24-1.01-1.53-1.29-1.81-1.61-2.12-1.94-2.44-2.29-2.82-2.66-3.27-3.07-3.78-3.52m-63.5 1.87.15.12 1.16-.38 1.64-.5 1.96-.47 2.25-.41 2.53-.35 2.78-.3 2.99-.24 3.13-.19 3.24-.12 3.31-.06h3.35l3.39.04 3.41.07 3.48.1 3.54.1 3.62.11 3.67.13 3.68.15 3.61.19 3.52.25 3.4.3" filter="url(#a)"/><path d="M59.72-37.03h-.06l-.31.31-.58.38-.99.19-1.48-.21-2.04-.69-2.58-1.14-3.14-1.55-3.73-1.91-4.31-2.27-4.92-2.63-5.53-3.05-6.15-3.51-6.79-4.05-7.48-4.63L1.42-67l-9.05-5.74" filter="url(#a)"/><path d="m26.91-74.9.94.6.46.53.18.48-.02.51-.24.55-.52.58-.84.57-1.21.57-1.58.56-1.98.59-2.38.61-2.8.65-3.22.7-3.67.73-4.1.75-4.56.75-5.05.73-5.54.69-6.02.61-6.46.51-6.9.42-7.5.49" filter="url(#a)"/><path d="m.16-81.67.42.01.93.21 1.45.34 1.84.45 2.07.54 2.18.62 2.23.68 2.26.71 2.25.72 2.24.74 2.19.72 2.09.7 1.99.68 1.85.66 1.69.63 1.48.57 1.18.41m-69.55 5.76 1.9-1.37 1.44-1 1.28-.79 1.33-.73 1.47-.78 1.59-.86 1.69-.89 1.75-.91 1.79-.9 1.79-.86 1.71-.8 1.57-.74 1.35-.66 1.09-.56.85-.45.62-.33.4-.19.07-.02m-24.38 13.51 1.33-.94 2-1.16 2.2-1.07 2.34-.97 2.57-.92 2.86-.98 3.14-1.04 3.37-1.11 3.54-1.13 3.64-1.14 3.66-1.12 3.62-1.1 3.52-1.05 3.31-1" filter="url(#a)"/><path d="m-11.86-80.44-.71.12.81-.12 1.27-.18 1.36-.19 1.3-.17 1.23-.14 1.16-.12 1.14-.11 1.12-.08 1.09-.08 1-.05.85-.05.66-.03.47-.01h.28l.07.02-.16.03-.45.05-.78.06-1.09.07-1.35.07-1.53.08-1.7.07m-21 6.44.9-.29 1.29-.39 1.51-.36 1.65-.25 1.76-.16 1.91-.09 2.11-.05 2.33-.03 2.51-.01 2.65.02 2.76.05 2.8.08 2.81.11 2.8.14 2.8.16 2.78.18 2.77.2 2.72.2 2.61.18 2.48.16 2.33.16 2.27.2 2.29.23" filter="url(#a)"/><path d="m-7.25-81.36.68.01.98-.05 1.32-.04 1.52-.01 1.57.01 1.51.04 1.41.06 1.33.08 1.26.09 1.19.09 1.12.09.99.08.84.07.67.06.45.04.2.01-.07-.02-.4-.06-.72-.1-1.04-.15-1.4-.22m50.41 37.45.81 1.52.26.98.01.79-.27.57-.58.29-.88.04-1.2-.18-1.51-.44-1.87-.72-2.24-1.05-2.64-1.39-3.06-1.71-3.49-2L36-49.41l-4.33-2.57-4.73-2.88-5.14-3.24-5.59-3.65-6.12-4.09-6.73-4.51-7.33-4.89" filter="url(#a)"/><path d="m6.48-81.45.88.33.72.24.4.24-.01.27-.44.34-.87.42-1.33.5-1.84.61-2.37.71-2.98.81-3.65.91-4.4 1-5.19 1.1-6 1.26-6.84 1.52" filter="url(#a)"/><path d="m-22.34-76.71.53-.4 1.19-.32 1.51-.22 1.79-.13 2.04-.05 2.21.01 2.31.08 2.36.13 2.43.19 2.51.23 2.59.26 2.66.29 2.7.31 2.7.33 2.68.34 2.64.35 2.61.37 2.58.37 2.53.39 2.44.39 2.29.37 2.05.29 1.79.16m-49.45-4.89.71-.17 1.22-.25 1.63-.26 1.81-.21 1.87-.15 1.89-.1 1.94-.07 2.01-.04 2.09-.01 2.17.01 2.21.02 2.2.04 2.13.05 2.04.05 1.94.04 1.84.02 1.74.01h3.14l1.39.03 1.34.09 1.28.18m10.15 4.24.8.67.69.48.86.53.93.59.88.57.73.48.52.34.26.18-.02.01-.32-.15-.63-.35-.98-.6-1.41-.9-1.97-1.25" filter="url(#a)"/><path d="m19.43-78.4 1.66.8 1.36.73 1.41.82 1.5.93 1.55 1.03L28.47-73l1.54 1.12 1.52 1.15 1.48 1.15 1.47 1.16 1.44 1.13 1.4 1.08 1.33 1.01 1.23.93 1.12.83.98.73.84.63.7.53.57.45.44.33.24.12-.23-.33m11.2 15.88.65 1.09.39.67.27.59.13.51-.03.33-.24.06-.49-.3-.77-.68-1.07-1.07-1.37-1.48-1.7-1.97-2.04-2.5-2.42-3.09-2.82-3.66-3.22-4.19-3.54-4.67M-2.36-81.69l1.68-.01.91-.01.78.02.85.04.9.06.87.07.76.09.57.1.36.11.12.11-.13.11-.39.1-.68.11-.99.12-1.35.13-1.74.14-2.14.14-2.51.14-2.83.13-3.24.14" filter="url(#a)"/><path d="m-6.65-81.25.77-.19 1.14-.09 1.34-.07 1.28-.04 1.1-.04.87-.01.67.01.48.03.28.05.06.06-.22.09-.53.09-.86.11-1.23.13-1.7.14-2.29.16-2.91.16m-11.3 2.45 1.6-.53 1.3-.3.89-.18.63-.12.43-.05.28.04.16.15-.01.27-.22.41-.47.54-.77.69-1.08.84-1.35 1-1.63 1.14-1.9 1.29-2.21 1.45-2.61 1.63-3.12 1.89-3.71 2.22-4.26 2.52-4.64 2.69m97.88 14.87.21.69-.13.44-.59.11-1.07-.16-1.59-.44-2.15-.77-2.78-1.19-3.47-1.65-4.18-2.14-4.89-2.62-5.57-3.1-6.27-3.64-7.02-4.24-7.91-4.86-8.93-5.42" filter="url(#a)"/><path d="m8.28-80.91 1.5.17.7.22.45.29.28.37.1.45-.1.55-.33.62-.58.71-.92.76-1.28.82-1.66.89-2.02.99-2.37 1.11-2.71 1.26-3.07 1.41-3.47 1.58-3.91 1.71-4.36 1.83-4.83 1.94-5.3 2.03-5.76 2.1-6.2 2.17-6.69 2.25" filter="url(#a)"/><path d="m13.74-79.85 1.72.43 1.23.35.79.25.29.14-.14.07-.49.04-.78.03-1.12.01-1.56-.04-2.1-.11-2.69-.21-3.28-.33-3.85-.48-4.43-.62" filter="url(#a)"/><path d="m-32.44-71.44.67-.44 1.24-.56 1.59-.59 1.84-.58 2.01-.56 2.11-.52 2.18-.49 2.21-.44 2.22-.39 2.23-.35 2.24-.34 2.27-.32 2.31-.33 2.35-.32 2.38-.31 2.37-.29 2.34-.26 2.26-.22 2.11-.18 1.88-.19 1.6-.2 1.32-.24 1.19-.24" filter="url(#a)"/><path d="m-5.44-81.48 1.75-.05.87.16.22.35-.41.57-.97.78-1.44 1-1.91 1.24-2.46 1.49-3.14 1.82-3.93 2.17-4.74 2.54-5.58 2.9-6.43 3.28-7.36 3.67m59.82-18.93.58.22.04.19-.08.34-.14.53-.3.65-.52.77-.83.84-1.19.91-1.61.97-2.05 1.03-2.53 1.09-3.02 1.18-3.52 1.29-4.02 1.42-4.53 1.53-5.04 1.64-5.58 1.74-6.1 1.81-6.63 1.9-7.14 1.97-7.75 2.04m18.79-21.81 1.36-.49.87-.28.95-.34 1.15-.39 1.33-.43 1.46-.43 1.52-.42 1.49-.4 1.37-.36 1.18-.33.95-.28.76-.23.6-.19.44-.12.24-.07-.09.01-.56.09-1.07.18" filter="url(#a)"/><path d="m62.21-30.72-3.27-5.23-9.89-9.57-13.14-7.78-10.92-3.92-6.15-1.89-2.23-1.74-.26-1.97.32-1.66.2-.99-.48-.42-2.04-.12-4.53.04-7.47.24-9.62.48-9.64.57-6.68.43-1.02.15 5.8-.04 11.41-.15 13.09-.7 8.92-2.23-1.07-4.23-25.26-9.11" filter="url(#a)"/><path d="m-51.69-52.19 48.54-7.36 6.22-6.63v-.68l-.46 2.67.28 3.05 1.66 2.2 2.38 1.2 1.7.12.52-1.07.54-2.07 2.38-2.27 4.43-1.27 4.07.64-.21 2.38-7.19 2.21-13.23-1.06-15.36-4.34-30.99 5.67" filter="url(#a)"/><path d="m-29.82-73.25 4.5-.85 9.51-.41 11.63.86 10.8 1.37 7.31 1.64 2.63 1.63-1.54 1.13-3.54.54-2.35.44 1.49 1.21 5.96 2.46 8.56 3.43 7.76 3.39 3.69 2.24-1.63.82-4.94.6-3.46 2.56.56 5-8.38 1.14-60.25-20" filter="url(#a)"/><path d="m26.91-74.9 12.7 19.02-8.39 6.75-12.62.58-9.67-2.09-4.99-3.06-.75-3.17 1.83-2.98L7.7-62.6l2.08-2.52.09-2.15-3.28-1.45-7.36-.2-10.53 1.38-10.82 2.53-7.22 2.37-.81.72 4.51-.96 2.54-.19-9.9 3.22-13.41 1.05" filter="url(#a)"/><path d="M31.35-72.11 11.2-70.89l-14.19 2.34-5.68.23.11-.72 4.83-.83 7.46-.36 7.27.45 4.89 1.14 1.72 1.27-.85.85-1.98.3-1.54.11-.03.5 1.58 1.2 2.19 1.59 1.09 1.04-1.34-.65-3.45-2.82L10-69.39l-.59-3.36 3.3.23 11.37 8.47 36.51 28.94" filter="url(#a)"/><path d="m19.97-78.09-35.43 10.8-5.2-.75 4.09-2.69 8.26-2.77 8.8-2.02 7.03-.92 4.82.19 3.28 1.22 2.19 2.1 1.03 3 .06 4.13.72 5.54 4.06 6.43 8.55 5 9.08-.38 2.62-7.32 3.3-1.59" filter="url(#a)"/><path d="m-41.51-64.05 19.22-4 26.08 3.72 15.89 5.4 2.23 2.13-7.79-.95-12.75-1.98-13.49-1.5-11.45-.54-8.19.31-4.78.78-1.43.59 2.25-.44 6.27-2.18 9.53-3.83 10.38-4.34 8.36-3.07 4.87-.25-2.35 2.71-35.21 1.26" filter="url(#a)"/><path d="m24.69-76.07-4.88 12.74-3.16 9.11 3.46 2.07-.58-3.52-6.01-5.36-7.49-4.18-5.54-1.54-2.67 1.19-.59 2.89.8 3.11 3 2.38 7.14 1.94 11.57 2.48 11.41 2.89 3.63 1.14-2.21.3L63.44-26.5" filter="url(#a)"/><path d="m-51.69-52.19 48.75-8.03 3.57-9-2.88-4.16-.64.11 1.96 2.21 3.36 2.45 3.7 1.9 3.43 1.38 2.88 1.1 2.12.69 1.24-.13.54-1.26.31-2.21.51-2.61.61-2.32.11-1.55-.79-.36-1.18 1.36-1.1 3.46-5.55 3.72-39.08-7.81" filter="url(#a)"/><path d="M5.67-81.19 23.8-68.26l-8.66-1.89-9.07-1.44-3.12.7.69 1.79 1.39 1.91.47 1.46-1.04.67-2.56-.29-3.52-1.1-3.55-1.38-2.62-.9-1.04.24.84 1.46 2.49 1.88 3.14.89 3.31-.92 7.04-.88 19.36 4.53 28.14 15.78" filter="url(#a)"/><path d="m45.96-59.73-29.82-7.02-19.92-2.46-2.54-2.18 6.06-1.68 6.56-1.25 3.74-.77 1.36.07.7 1.26 1.05 2.4 1.11 2.94.06 2.63-2.11 1.59-4.64.34-6.46-.48-6.62-.45-4.8.26-1.58 1.11 1.95 1.63 5.67 2.09L7-56.28l19.45 5.88 22.69 7.03 6.6-1.73" filter="url(#a)"/><path d="m-2.36-81.69 25.21 9.42 11.62 7.31 3.78 5.84-3.64 3.07-8.39.24-9.19-1.66-6.97-2.37L6.22-62 4.6-63.56l-1.01-.87-1.37-.08-1.47.86L.2-62l.9 1.76 1.52.79.01-.95-3.26-2.62-5.19-3.46-.96-3.74 8.11-4.65-4.12-6.79" filter="url(#a)"/><path d="M53.61-48.89 15.39-66.44l-16.45-5.41 1-2.37 7.31-1.07 7.14.06 5.23 1.09 3.71 1.67 2.83 1.69 2.25 1.26 1.36.65-.42-.13-3.02-1.12-5.26-1.97-5.59-2.08-4.99-1.58-9.27-1.7-21.26-.53" filter="url(#a)"/><path d="m.69-81.72 26.58 20.89-2.91 3.63-2.29 1.58 2.01-.13 2.32-1.84-.27-2.4-3.43-2.13-5.29-1.71-4.63-1.45-1.62-1.2 2.21-.77 4.86-.17 5.11.25 3.02-.02-.29-1.04-3.15-1.88-4.16-1.21-5.85-.24-28.4-7.8" filter="url(#a)"/><path d="m1.23-81.57-13.99 14.96 14.63 1.92 10.14-.47 4.79.2 4.24 1.37 4.6 1.21 3.25-.11 1.09-1.08-.09-.71.04.54.02 1.39-1.76 1.37-5.64 1.44-10.64 1.51-12.2-3.04 19.14-17.42" filter="url(#a)"/><path d="m23.28-76.7-31 10.65 12.18 2.44 16.72 3.01 7.88 2.39-2.01.14-7.31-2.2-6.85-3.32-2.5-2.72 2.58-.66 5.6 1.7 4.65 2.52-.54.55-6.87-2.91-10.75-4.28-31.88-5.37" filter="url(#a)"/><path d="m15.99-79.33 22.15 26.4-10.71 2.92-16.73-4.88-7.95-4.12.6-1.92 3.35-1.13 2.11-1.6.33-2.19L8.93-68l.43-1.31 1.59.12 2.86 1.68 3.78 2.89 3.51 3.11 1.26 1.83-2.66-.7-5.31-2.43 2.78 2.65 43.42 25.05" filter="url(#a)"/><path d="m-40.84-64.76 20.19-5.6L2-67.91l15.79 2.6 7.97.59 2.41-.44-1.51-1.02-4.55-1.91-6.65-2.79-7.47-2.88-6.77-1.77-4.18.32.87 2.93 8.12 5.86 14.49 8.68 12.56 9.15-8.31 1.23-58.64-22.87" filter="url(#a)"/><path d="m-30.94-72.49 14.68-1.4L.83-66.76 18.23-59l8.86 3.27-.79-2.06-6.23-4.88-6.7-4.29-3.93-1.32-.15 2.14 2.76 4.36 3.8 4.48 3.17 2.81 1.9.47 1.03-1.35.65-2.19.02-2.24-1.6-1.69-4.19-.15-1.72 3.3L55-46.72" filter="url(#a)"/><path d="m48.97-56.13-10.13 3.6-22.03-9.61L2.96-69.3-2.49-73l-.85-1.63.3-.62-.79-.14-2.55.17-3.58.43-3.02.52-.68.21 2.86-.47 6.16-1.18 7.18-1.27 4.31-.58-2.21.11-8.78-.64-1.3-3.39" filter="url(#a)"/><path d="m54.45-47.83-33.02-14.7-7.53.76 6.32 3.64 6.64 3.55 3.86 3.07 2.82 2.09 2.72.12 1.6-2.53-.77-4.79-3.15-5.54-4.56-4.59-5.36-2.85-6.61-1.53-8.65-.98-11.33-.49-15.87.66-16.84 2.49" filter="url(#a)"/><path d="m46-59.47-27.75-8.46-14.76-3.4-1.98-2.73 3.8-.93 5.3 1.5 4.02 3.22 1.29 3.63-1.09 3.03-2.09 2.02-2.08 1.01-2.01-.08L6.31-62l-2.54-2.68-1.85-3.68-.34-3.93 1.06-3.28 1.36-2 .46-.55-.86.67-1.55 1.46.26 2.25 10.49 5.32 39.61 17.71" filter="url(#a)"/><path d="m-6.65-81.25 14.74 9.93L24.02-60.7l3.51 2.16-2.58-2.75-2.67-3.21-1.53-2.07-2.01-1.29-4.15-1.13-6.64-1.08-8.2-.71-8.28-.1-6.95.49-4.51.68-1.3.22 1.99-.82 4.25-2.07 4.97-2.77 6.05-2.09 12.03.8 27.99 7.51" filter="url(#a)"/><path d="m13.74-79.85 9.58 5.35 2.28 4.9 2.9 6.29 1.28 5.5-4.69 2.49-10.77-.71-12.96-2.76-10.44-3.53-5.06-3.47.39-2.99 3.84-2.29 4.66-1.43 3.8-.5 2.89.47 3.13 1.39 4.06 2.07 3.63 1.94-.03.48-6.32-1.89-12.11-2.7-17.09 1.8L-49.1-55.7" filter="url(#a)"/><path d="m50.19-53.91-37.81 1.04 11.2 1.65 9.48-.8-1.54-3.58-7.05-3.81-4.79-1.58 1.09.85 5.18 1.51 4.77.23 1.01-1.38-2.76-1.43-3.29.68 1.33 4.2 10.31 8.09 16.84 11.35 9.28 10.39" filter="url(#a)"/><path d="M46.8-58.21 2.51-68.43l-12.79-1.36 4.97.76 8.03.76 4.24-.46.57-1.61-.41-1.78.71-.91 2.48.54 3.71 1.95 3.84 2.82 2.75 2.87.59 2.1-2.08.78-4.36-.58-5.12-1.44-3.73-1.52-.64-1.01 2.74-.52 5.11-.62 6.18-1.31 5.24-2.17-.88-3.54-12.21-5.89" filter="url(#a)"/><path d="m-20.04-77.98 21.5 1.86 3.53 5.26-5.31 4.41-7.23 1.66-3-.17 2.35-.73 4.45-.79 2.6-.91-.78-1.08-2.7-.92-1.97-.26.4.69 2.38 1.47 2.81 1.57 2.54 1.27 4.29 1.95 10.97 5.49 22.03 10.64 19.73 6.49" filter="url(#a)"/><path d="m-26.82-74.76 8.28 14.51 14.33 4.08 8.72-3.2 7.03-4.83 4.37-3.8-.24-2.34-4.4-1.03-6.21.24-5.8 1.4-4.41 2.14-2.97 2.33-1.57 2.25.58 2.42 7.89 2.79 47.18-1.93" filter="url(#a)"/><path d="m47.13-58.16-21.09-9.13 4.38 2.18 3.97 3.4-1.56 2.17-4.71 1.01-4.36.56-2.31.74-.3 1.16 1.12 1.29 1.84.67 1.62-.8.27-2.6-1.42-3.77-1.81-3.51.2-1.8 3.4.3 4.57.81 2.13-1.63 5.88.69" filter="url(#a)"/><path d="m43.22-62.65-12.14-6.1-14.33-2.96-13.01.3-7.7 1.15-.08.67 5.39-.01 6.56-.36 4.7-.22 2.53.36 1.44 1.03.66 1.2-1.27.47-4.16-.9-4.95-1.84.06-1.09 9.92 1.59 14.72 3.17-2.83-7.29" filter="url(#a)"/><path d="m-36.6-68.25 2.18 3.29 16.23-6.06 15.57-4.32 12.1-.81 9.45 2.14 7.85 4.36 7.03 6.12 6.64 7.36 5.83 7.23 3.34 4.67-1.44-.25-7.32-5.29-12.08-6.59-18.23-2.52-52.06-5.13" filter="url(#a)"/><path d="m-43.59-62.03 15.28-2.38 14.63-.9 10.01.94 6.79 1.43 3.45.98 1.03.25.16-.42.46-1 1.22-1.23 1.91-.82 2.16.21 1.94 1.34 1.46 1.89 1.07 1.45.92.22.65-1.17-.39-2.07-2.5-2.35-4.75-2.31-5.01-2.45-2.86-3.08-4.17-4.09-14.07-2.44" filter="url(#a)"/><path d="m-10.84-80.57 26.69 13.64-8.34-2.36-10.52-2.8-5.17-.9-.07.27 3.95.64 6.92.76 8.3.96 7.69 1.16 5.28 1.19 1.92.96-1.23.47-3.17-.22-3.52-.94-2.78-1.44-2.32-1.49-3.7-1.07-7.43-.2-12.25 1.27-15.13 3.11-11.45 2.71 4.98-6.91M66.1-13.22l1.77.95.65 1.51.24 1.46.49 1.29.84 1.18.98 1.17 1.01 1.25 1.12 1.36 1.35 1.43 1.6 1.41 1.68 1.33 1.57 1.25 1.39 1.22 1.33 1.22 1.44 1.27 1.51 1.39 1.42 1.63 1.81 1.84-7.77-57.6-.18 2.64-.42 2.22-.89 1.95-1.16 1.87-1.02 1.8-.6 1.69-.24 1.63-.19 1.69-.52 1.84-1.06 2.01-1.53 2.06-1.6 1.93-1.11 1.64-.12 1.28 1.03.98 1.72.85 1.01 1.07-1.98 1.76-5.57 2.53M.16-81.67l-1.86-.08-1.45-.06-1.25-.05-1.06-.02-.93-.04-.9-.1-.94-.15-1.03-.17-1.08-.16-1.1-.16-1.06-.19-1.02-.25-1.01-.3-1.02-.29-1.1-.22-1.22-.09h-1.4l-1.42-.02-.91-.01 47.94-19-2.29 2.33-1.99.5-1.59-.66-1.38-.65-1.33.15-1.38 1.09-1.44 1.75-1.45 1.98-1.43 1.76-1.37 1.31-1.3.81-1.26.43-1.24.24-1.23.23-1.24.41-1.22.79-1.14 1.35-.99 1.98-.83 2.42-.93 2.12-1.67 1" filter="url(#a)"/><path d="m-2.36-81.69-.96-.2-1.25-.5-1.15-1.28-1.06-1.94-1.07-2.15-1.14-1.88-1.21-1.26-1.25-.6-1.23-.16-1.18-.12-1.16-.45-1.18-.95-1.24-1.32-1.28-1.37-1.5-1.31-2.5-1.37" filter="url(#a)"/><path d="m-5.44-81.48-.75-2.44-.85-2.39-.92-1.45-1.11-1.16-1.27-1.12-1.34-1.05-1.3-.88-1.23-.66-1.15-.38-1.11-.13-1.16.01-1.27-.05-1.42-.32-1.55-.68-1.62-1.02-1.58-1.17-1.45-1.1-1.24-.83-1.03-.57-1.23-1-2.44-1.89 26.48 20.2-.52 1.42-.69.17-.84.34-.95.61-1 .67-.96.59-.87.56-.8.64-.75.74-.78.77-.85.71-.92.65-.92.69-.85.86-.72 1.06-.56 1.2-.4 1.23-.08 1.27.39 1.36" filter="url(#a)"/><path d="m-6.65-81.25-.79-1.38-1.14-1.87-1.28-1.05-1.33-.69-1.28-.68-1.17-.54-1.04-.16-.97.29-.98.54-1.06.52-1.16.28-1.26-.07-1.34-.46-1.36-.84-1.38-1.13-1.36-1.23-1.33-1.1-1.27-.7-1.26-.21-1.31.12-1.49.07-1.8-.33-2.16-.83-2.3-1.78m31.82 13.23.73-.3 1.06-.38 1.26-.56 1.25-.71 1.15-.81 1.04-.93 1-1.08 1.03-1.3 1.12-1.52 1.21-1.59 1.25-1.45 1.27-1.16 1.28-.9 1.31-.86 1.37-1.13 1.4-1.58 1.39-1.96 1.46-2.08 1.92-2.1m-39.69 24.5.04.16.5-.03.78-.1.94-.14 1.04-.18 1.12-.17 1.14-.16 1.1-.13 1.03-.13.94-.17.89-.22.89-.25.96-.24 1.06-.2 1.13-.11 1.1-.02.9-.02.63.01" filter="url(#a)"/><path d="m-10.84-80.57 1.34-.07 1.14-.01.91-.01.84.01.89.1 1.01.17 1.09.25 1.12.3 1.08.36 1 .41.95.5.92.58.93.67.96.7.97.65.99.5.99.32.99.17.97.13.92.19.84.36.77.69.96 1.37-23.46-8.33-1.22.21-.68.01-.83.02-1-.02-1.14-.11-1.22-.18-1.23-.18-1.17-.15-1.08-.15-1-.18-.94-.21-.93-.18-.95-.05-1.03.09-1.11.2-1.21.26-1.42.2-2.1.21 16.59 1.5.76-.38.91-.5.82-.4.89-.28 1.02-.22 1.06-.21 1.03-.22.97-.26.92-.29.92-.28.99-.26 1.07-.2 1.15-.14 1.14-.1 1.07-.09.94-.11.87-.16.94-.17 1.15-.16 1.18-.13" filter="url(#a)"/><path d="m-15.39-79.27.94.88 1.07.63.87.07.91.04 1.03.26 1.08.46 1.07.52.98.48.9.39.88.31.91.21 1 .15 1.08.18 1.08.36.99.54.77.6.51.54.4 1.06-23.42-5.12.12 2.25-1.07.12-1.1.3-1 .67-1.02.75-1.08.66-1.09.55-1.04.54-.92.67-.77.85-.61 1.05-.48 1.21-.42 1.29-.42 1.3-.51 1.26-.6 1.2-.65 1.13-.65 1.01-.61.86-.56.84-.45 1.12-.62 1.23" filter="url(#a)"/><path d="m-37.77-53.75.19-.95-.16-.86-.02-1.02.17-1.09.35-1.04.49-.97.57-1.02.57-1.14.56-1.26.55-1.26.58-1.13.64-.88.74-.6.86-.38.96-.27.99-.33.95-.61.83-1.07.73-1.48.73-1.55.8-1.26.79-1.04.58-1.28" filter="url(#a)"/><path d="m-53.15-88.08 4.14 3.63 2.99 1.19 2.08.33 1.7.47 1.58.75 1.5.71 1.45.55 1.49.56 1.6.71 1.63.64 1.47.06 1.23-.69 1.28-.45 1.91 1.64 2.07 2.53m-4.09 1.89-.85.31-1.06.25-1.12.13-1.06.22-.94.38-.84.5-.8.58-.84.65-.95.67-1.05.64-1.11.55-1.1.46-1.03.41-1 .39-.96.39-.86.35-.49.17.21-.53 2.28 14.85.16-1.12.46-1.14.49-1.37.43-1.3.3-1.15.17-1.06.12-1.04.22-1.01.36-.94.52-.83.64-.73.73-.73.84-.99.9-1.48.54-1.98M65.4-18.36l.8 1.05.32 1.2.3 1.21.48 1.23.65 1.28.69 1.32.58 1.32.47 1.29.39 1.26.44 1.23.57 1.26.77 1.36.99 1.44 1.23 1.44L75.52.84 77.03 2l1.26 1.42.62 3.04" filter="url(#a)"/><path d="m-39.78-65.69.04-.96.44-1.61.67-1.72.47-1.97.11-2.3-.02-2.33.18-1.91.58-1.22.95-.66 1.09-.57 1.03-.95.86-1.56.76-2 .78-2.1.78-2.02.62-2.16.17-3.17m-37.07 39.86 2.21.12h1.48l1.05-.38.75-.78.86-.8 1.29-.47 1.73-.06 1.88.15 1.74.13 1.49-.04 1.3-.18 1.24-.26 1.23-.31 1.19-.43 1.09-.61 1.03-.84 1.11-1.07 1.08-1.16" filter="url(#a)"/><path d="m-46.41-58.8.8-2.64.49-1.78.63-.7.6-.36.49-.55.38-.89.36-1.14.4-1.23.49-1.24.61-1.26.75-1.32.78-1.41.7-1.4.46-1.27.25-1.03.42-1.36-10.99 22.25 1.27-1.09 1.28-.41 1.31-.33 1.2-.51 1.04-.53.94-.33.89-.07.87.05.89.04.97.06 1.09.19 1.16.3 1.08.11 1.01-.45 1.61-.92m-16.61 3.89 1.45 2.68-.04 1.26-.83.45-.89.46-.69.77-.47 1.06-.31 1.19-.19 1.23-.09 1.23-.03 1.2-.07 1.14-.21 1.05-.36.98-.43.99-.35 1.07-.17 1.21.08 1.33.29 1.41.39 1.45.27 1.48-.15 1.51-.39 1.86" filter="url(#a)"/><path d="m-49.1-55.7.34-1.08.26-1.67.45-1.49.81-1.05 1.06-.72 1.04-.57.88-.55.69-.59.55-.68.5-.8.48-.93.49-1.08.49-1.27.52-1.42.58-1.51.68-1.45.73-1.21.73-.91.66-.75.7-1.02.88-1.91-16.61 27.32-1.68.47-1.29.28-.57.72-.32.91-.43.89-.74.77-1.19.56-1.67.32-2.1.07-2.36-.08-2.34-.05-2.04.21-1.58.61-1.16 1.01-.95 1.25-1.03 1.24-1.27 1.06-1.55.82-1.72.68-1.88.66-2.08.8-2.21.92-2.03.32" filter="url(#a)"/><path d="m-41.3-68.44-.24.6-.55.88-.63.86-.59.74-.54.66-.54.67-.62.76-.7.89-.76 1-.77 1.07-.74 1.09-.72 1.06-.71.98-.67.92-.62.89-.55.95-.48 1.05-.45 1.16-.47 1.23-.5 1.22-.48 1.04-.48.75-18.25 11.96.91-1.31.81-1.15.83-1.23 1.01-1.24 1.29-.99 1.63-.62 1.82-.32 1.78-.24 1.52-.4 1.16-.71.82-1 .6-1.17.69-.94 1.35-.13 1.37.45-.99 2.1-.86 1.61-.75 1.19-.65.97-.66.91-.77.89-.96.88-1.15.87-1.26.85-1.19.85-1 .92-.73 1.02-.52 1.13-.43 1.24-.44 1.3-.5 1.34-.53 1.35-.51 1.36-.48 1.34-.52 1.25-.62 1.06-.73.78-.8.72-.82 1.56 15.92-23.44.1-1.94-.68-2.05-.49-1.67.05-1.13.45-.83.54-.88.36-1.2.01-1.68-.42-2.18-.82-2.62-1.06-2.87-1.05-2.87-.73-2.58-.21-2.11.35-1.65.72-1.39.86-1.39.9-1.57 1-1.89.65-2.5m14.57 20.06.03-.36-.67.53-.93.85-1.01.89-.98.84-.95.78-.88.75-.81.73-.74.76-.65.81-.61.87-.58.92-.6.95-.63.93-.65.87-.64.79-.61.74-.55.72-.5.77-.54.84-.69.94-.86 1.13-.88 1.41" filter="url(#a)"/><path d="m-58.99-38.02-2.55-2.73.25-.96.61-.87.47-1.12.14-1.5-.37-1.96-.94-2.37-1.28-2.56-1.24-2.41-.82-2.01-.27-1.59.09-1.42.14-1.65-.06-2.14.28-1.85 3.61 31.03 1.57-1.49.91-1.25.89-.86.79-.78.63-.87.51-1 .5-1.05.58-.98.72-.81.86-.59.96-.41.99-.32.95-.35.84-.5.73-.7.66-.85.73-.79.93-.46 1.13-.05 1.03-.02-17.38 15.81.75-.71.49-1.18.68-1.23.91-1.04 1.03-.79 1.13-.59 1.21-.47 1.32-.36 1.39-.32 1.35-.35 1.15-.44.85-.58.6-.65.52-.61.69-.42 1-.19 1.31-.02 1.58.07 1.48-.03m-20.36 12.85-.54 1.91-.4 1.42-.33 1.32-.29 1.27-.26 1.22-.23 1.17-.19 1.13-.16 1.17-.15 1.22-.16 1.27-.14 1.27-.12 1.22-.07 1.17-.03 1.12-.01 1.09v1.05l-.03 1.02-.04.99-.04.97.09 1.27" filter="url(#a)"/><path d="m-54.16-52.96-.59 1.52-.44 1.08-.33.96-.3.92-.34.93-.42.97-.51 1.02-.58 1.05-.61 1.06-.59 1.06-.5 1.09-.4 1.16-.31 1.26-.29 1.35-.32 1.38-.4 1.33-.46 1.21-.47 1.06-.34.93-.07.92.11 1.19m126.36 5.84-1.27-1.46-1.52-.92-1.12-.72-.49-.86-.14-.97-.14-.99-.39-.94-.67-.87-.9-.82-.97-.78-.94-.79-.85-.82-.77-.85-.76-.84-.77-.81-.76-.75-.69-.73-.63-.71-.66-.67-.93-.52-1.33-.42-1.3-1.1m16.4 12.09.08-.68.48-.98.14-1.17-.33-1.22-.54-1.23-.49-1.23-.36-1.27-.21-1.34-.15-1.41-.13-1.45-.17-1.41-.23-1.32-.26-1.25-.2-1.28-.04-1.43.14-1.64.19-1.72.11-1.38.37-.11" filter="url(#a)"/><path d="m55.48-47.13.39.92.42.92.44.93.45.94.46 1.01.49 1.08.5 1.14.5 1.15.49 1.13.46 1.11.45 1.14.43 1.22.41 1.26.37 1.18.29.93.19.62.22.53-.23-.8-1.16-.59-1.26-.96-.76-1.22-.47-1.18-.48-1.02-.7-.85-.97-.71-1.17-.61-1.21-.56-1.1-.53-.96-.51-.93-.44-1.13-.23-1.56.17-2.17.73" filter="url(#a)"/><path d="m62.21-30.72.09.44.34.9.45 1.03.51 1.09.59 1.19.65 1.23.69 1.2.71 1.11.73 1.01.77.94.8.95.83.99.82 1.06.78 1.15.7 1.23.63 1.33.6 1.42.63 1.47.65 1.47.65 1.42.63 1.34.66 1.05-14.96-27.61 2.26-3.17-.78-.99-1.14-.58-.8-.86-.37-1.27.07-1.64.52-1.95.97-2.24 1.34-2.5 1.54-2.68 1.49-2.73 1.18-2.55.69-2.16.26-1.61.46-1.39 1.68-2.68-2.43 46.52-.51-1.16-.5-.98-.44-.85-.41-.92-.4-1.11-.39-1.27-.4-1.34-.41-1.29-.43-1.17-.46-1.04-.48-.93-.49-.88-.49-.9-.51-1.02-.53-1.2-.56-1.34-.55-1.23-.31-.81-.11.2 1.65-4.1 1.05-2.67-.62-1.07-1.11-.59-.97-.66-.69-.86-.37-1.15.01-1.48.39-1.83.66-2.13.71-2.29.5-2.26.16-2.1-.14-1.92-.25-1.87-.14-2.02.07-2.31.2-2.5.18-2.42.13-2.11.16-1.92.16-2.58-2.91 39.79.58 2.03.44 1.03.42.98.42 1.13.41 1.22.37 1.2.32 1.12.3 1.05.3 1.02.29 1.04.29 1.12.28 1.21.26 1.28.25 1.29.23 1.25.22 1.15.19 1.07.18 1.03.16 1.07.12 1.16.07 1.23.05 1.24.12 1.19-6.81-28.58.53-2.53-.06-1.31-.68-.81-.66-.87-.48-1.02-.41-1.04-.47-1-.57-1.01-.62-1.09-.58-1.23-.52-1.34-.46-1.39-.45-1.37-.51-1.29-.58-1.18-.6-1.08-.57-1.07-.5-1.13-.45-1.3-.49-1.5-.5-1.62-.23-1.53.52-1.29 4.94 21.63 1.15-.56.41-1.57-.04-1.85-.44-1.59-.69-1.26-.64-1.22-.37-1.52.01-1.94.27-2.23.3-2.19.03-1.81-.39-1.33-.73-1.02-.81-1.1-.56-1.46-.09-1.93.36-2.38.58-2.97.47-3.86 1.86 53.13.09-1.7.35-1.51.35-1.34.3-1.39.19-1.47.01-1.42-.18-1.27-.34-1.09-.39-.98-.33-1.01-.23-1.1-.22-1.17-.23-1.19.07-1.2.72-.41" filter="url(#a)"/><path d="m50.58-53.92.35.42 1.11.78 1.13.95 1.02.88.97.69.94.59.87.6.77.72.71.81.72.84.83.82.93.78 1.02.79 1 .86.93.95.83 1.03.8 1.07.86 1.06 1.01 1.08 1.17 1.09 1.22 1.02.87.79-.16.56-19.9-19.18-.85-.9-.97-1.02-.93-.86-.86-.6-.87-.39-1-.24-1.17-.12h-1.31l-1.37.16-1.37.28-1.35.37-1.34.35-1.33.22-1.33.07-1.43.14-1.91.99" filter="url(#a)"/><path d="m49.79-54.72 1.73-4.46-.07-2.13.35-2.19.29-1.95-.36-1.22-1.04-.56-1.28-.34-1.12-.54-.79-.91-.53-1.23-.48-1.4-.52-1.55-.46-1.85-.24-2.29-.01-2.54-.1-2.24-.49-2 18.14 53.11-.47-1.04-.59-1.4-.55-1.38-.51-1.23-.47-1.15-.49-1.12-.51-1.13-.55-1.12-.56-1.08-.56-1.02-.56-.97-.55-.95-.54-.92-.53-.91-.53-.89-.55-.88-.59-.91-.66-.96-.72-1.05-.75-1.09-.7-1.04-.62-.92-.57-.86-.71-1.1" filter="url(#a)"/><path d="m47.13-58.16.91.21 1.86.02 1.82.01 1.53.17 1.29.44 1.07.75.9 1.02.77 1.12.74 1.04.77.86.82.74.84.72.91.71 1.08.61 1.43.35 1.82.07 1.97-.03.88.29" filter="url(#a)"/><path d="m47.13-58.16.34.84.23 1.79.22 1.72.41 1.31.56 1.07.65 1.04.68 1.05.68 1.02.59.96.43.97.23 1.07.05 1.2-.05 1.29-.04 1.28.02 1.2.06 1.13-.04 1.18-.18 1.25.13 1.12-11.07-29.06 1.88-.31 1.55-.54 1.04.03.74.69.66 1.07.74 1 .88.69 1.01.4 1.07.33 1.08.48 1.07.65 1.03.71.96.61.99.46 1.74.51m-16.44-6.78L40.52-66l-.68-1.29-.57-1.3-.5-1.29-.49-1.22-.48-1.29-.36-1.6-.18-2.05-.07-2.38-.14-2.35-.37-1.94-.65-1.36-.84-.96-.84-.92-.75-1.21-.65-1.64-.62-2.14-.62-2.55-.78-2.55-1.08-2.3" filter="url(#a)"/><path d="m41.03-64.73-.43-1.41-.75-1.19-.3-1.85.02-2.28-.03-2.13-.31-1.63-.56-1.2-.7-1.05-.7-1.13-.68-1.23-.73-1.18-.81-.97-.93-.67-1-.47-1.05-.42-1.04-.59-1.01-.93-.97-1.3-.93-1.59-.93-1.69-.98-1.6-1.11-1.54-1.73-1.49m16.87 29.09.4 1.32.4 1.4.47 1.02.56.82.61.85.65.91.64.92.6.89.52.9.41 1.02.31 1.19.22 1.37.17 1.43.2 1.35.31 1.24.43 1.28.44 1.58.29 2.04-7.63-21.53.88.62.86.72.75.66.74.62.82.64.89.66.9.66.88.62.87.61.86.63.88.67.91.74.89.79.88.86.85.95.86 1.05.88 1.07.83 1 .68.79.59.54 1.04 1.03M38.95-66.42l-1.07-.26-.74-.55-.73-.59-.81-.47-.91-.32-.95-.23-.97-.23-.96-.29-.95-.36-.91-.42-.87-.42-.87-.38-.89-.33-.94-.27-1.02-.25-1.08-.27-1.11-.28-1.12-.26-1.1-.24-1.18-.21-1.63-.14" filter="url(#a)"/><path d="m23.17-90.62-.1.37.38.63.66 1.18.79 1.51.82 1.68.83 1.71.86 1.56.9 1.25.96.88.99.58.99.41.96.44.86.68.76.98.65 1.22.61 1.27.62 1.15.63 1.03.57 1.09.44 1.3.29 1.43.09 1.16.92 1.15 1.03.86.85.95.64 1.05.53 1.02.54.95.57.93.56 1.01.49 1.12.35 1.19.25 1.22.21 1.23.3 1.2.48 1.17.59 1.03.46.76-.25.59 6.49-8.28-1.32-1.08-1.13-.87-.9-.6-.85-.46-.89-.49-.95-.58-.94-.64-.9-.66-.86-.65-.85-.63-.89-.62-.96-.6-1.02-.59-1.04-.54-.98-.51-.9-.51-.79-.56-.75-.61-.81-.74" filter="url(#a)"/><path d="m34.04-70.19.32-.39.91-.03.96.24.9.42.85.53.89.57.95.56 1.02.57 1.04.59 1 .59.97.54.97.42 1.05.32 1.18.37 1.21.63.99.92.72 1.19" filter="url(#a)"/><path d="m34.04-70.19.21-.15.86.09 1.2-.16 1.41-.47 1.54-.63 1.63-.63 1.65-.5 1.55-.21 1.42.09 1.32.25 1.4.09 1.66-.29 1.97-.67 2.22-.84 2.39-.84 2.55-1.03 2.68-1.52 2.25-1.58.52-.15" filter="url(#a)"/><path d="m46.33-67.12-.31-.36-.99-.34-1.23-.36-1.29-.35-1.23-.39-1.13-.4-1.05-.38-.99-.33-.96-.29-.97-.24-.98-.17-.97-.12-.96-.2-.99-.43-.93-.63m0 0-.95-.7-.77-.63-.65-.78-.69-.93-.78-1.03-.86-1.13-.88-1.21-.87-1.24-.84-1.22-.8-1.12-.75-1.01-.73-.88-.75-.8-.81-.81-.9-.87-.98-.95-1.04-.95-1.05-.82-1.05-.65-1.02-.56-.98-.63-.91-.85-.94-1.28-1.61-2" filter="url(#a)"/><path d="m28.09-74.34.9.3.62.38.79.4.93.44.97.46.95.46.92.4.91.37.91.33.91.34.89.37.86.44.86.54.96.7 1.22.88M25.8-75.31l1.75-1.4 1.19-.03.92.35.85.41.94.36 1.05.25 1.1.22 1.11.22 1.1.2 1.11.14 1.16.05 1.2.01 1.23.03 1.25.08 1.3.14 1.36.18 1.35.28 1.24.46 1.03.65.87.67.97.41 1.49.27 2.35 1.91" filter="url(#a)"/><path d="m24.69-76.07.99.77.96.73.9.61.84.48.8.42.8.48.82.58.83.67.81.7.78.69.75.65.73.65.72.68.68.72.59.73.31.7 14.59-8.97-1.66-.24-2.04.31-1.81.11-1.56-.11-1.35-.23-1.21-.29-1.14-.24-1.15-.15-1.16-.05-1.19-.01-1.18-.02-1.18-.07-1.15-.14-1.11-.2-1.05-.24-1.02-.24-1-.23-1.04-.22-1.11-.23-1.21-.21-1.31-.05-1.45.25-1.38.2-2.7-1.32 1.82-.08 1.42-.31 1.36-.24 1.34-.12 1.23.19 1.09.5 1.03.52 1.07.26 1.2-.13 1.33-.44 1.42-.56 1.46-.54 1.47-.49 1.45-.43 1.39-.3 1.26-.05 1.07.34.86.72.77.86.89.61 1.34.15" filter="url(#a)"/><path d="m19.96-78.31.71-1.5 1.51-1.62 1.65-1.42 1.49-.69 1.28.16 1.09.75 1.04.86 1.13.46 1.32-.19 1.51-.81 1.65-1.12 1.7-1.1 1.7-.91 1.72-.8 1.78-.9 1.82-1.02 1.81-.95 1.78-.8 1.34-.47-56.19 4.56.56.01.69.23.88.25 1.09.22 1.21.17 1.22.17 1.16.19 1.07.22 1 .25.99.26 1.02.26 1.05.24 1.08.25 1.08.29 1.06.35 1.04.43 1.01.47.99.46.95.37.97.29 1.06.27 1.12.24" filter="url(#a)"/><path d="m11.45-80.57 1.63-1.87 1.28-1.6 1.15-.67 1.2-.17 1.17.27 1.06.58.93.53.94.02 1.09-.78 1.34-1.55 1.6-1.96 1.72-1.83 1.74-1.28 1.72-.77 1.84-.86 2.18-1.7 2.71-3.04-25.3 16.68 1.01 1.7.79 1.11.95.14 1.07.04 1.05.39.9.77.69 1.04.5 1.29.35 1.57.27 1.84.3 1.99.39 1.94.52 1.69.64 1.35.74 1.04.78.78.75.62.5.63-.21.71L7.53-81l1.07.24 1.08.31.92.48.83.62.82.73.82.81.87.82.91.76.95.63.93.5.86.42.77.39.69.41.66.52.69.68.74.83.82.91.89.87.92.83.88.86.77 1.1L7.53-81l-.94-.53-.98-.5-1.09-.36-1.1-.23-1.06-.11-.98.01-.93.1-.97.12-1.05.07h-1.12l-1.15-.05-1.11-.05-1.01-.04-.91-.02-.88-.01-.95-.02-1.1-.02-1.19-.03-1.03.04 18.5 1.18 1.21-1.59 1.25-1.16 1.13-.16 1.04.08 1.02-.05 1.04-.14 1.05-.05 1.07.1 1.13.17 1.17.08 1.2-.11 1.14-.26 1.05-.31.95-.24.95-.15 1.05-.13 1.21-.17 1.38-.23 1.52-.28 1.6-.38 1.71-.81-11.46 4.41-1.69-.04-1.38-.33-1.18-.23-1.03-.15-.97-.11-.95-.04-.98.1-1.02.3-1.07.45-1.1.44-1.09.29-1.03.05-1-.16-1.02-.05-1.01.67 27.88-9.56-1.75.42-1.77.72-1.52.45-1.31.31-1.14.35-1.04.37-1.02.3-1.08.22-1.17.21-1.25.29-1.29.42-1.28.5-1.22.52-1.17.47-1.13.41-1.1.39-1.11.38-1.12.31-1.12.17-1.1-.03-1.08-.21H4.33l-1.34.99-1.76 1.67" filter="url(#a)"/><path d="m.4-81.82 1.61.16 2.29.15 2.43.25 2.38.33 2.41.4 2.55.44 2.73.5 2.84.55 2.89.63 2.91.7 2.98.79 3.09.88 3.29.95 3.52 1.01 3.78 1.06 3.98 1.12 4.11 1.17 4.16 1.23 4.16 1.29 4.19 1.34 4.25 1.41 4.29 1.47 4.19 1.53 3.88 1.62 3.4 1.7 2.99 1.78 2.88 1.87 3.19 1.93 3.76 1.95 4.27 1.96 4.64 1.98 5.01 2.04 5.22 2.13 5.05 1.95" filter="url(#a)"/><path d="m.4-81.82 1.61.16 2.39.15 2.46.25 2.38.34 2.42.39 2.51.45 2.57.5 2.54.55 2.44.63 2.38.71 2.38.8 2.5.87 2.71.96 2.96 1.01 3.21 1.07 3.42 1.13 3.56 1.17 3.58 1.24 3.49 1.29 3.29 1.35 3.03 1.41 2.78 1.48 2.56 1.55 2.4 1.63 2.24 1.71 2.04 1.78 1.88 1.87 1.78 1.91 1.88 1.95 2.26 1.98 2.93 1.98 3.75 2.01 4.45 2 4.53 1.99 3.46 1.99 1.41 2.33" filter="url(#a)"/><path d="m-5.44-81.48 2.56-.15 2.37-.03 2.33.06 2.45.14 2.56.23 2.55.3 2.49.37 2.45.42 2.55.47 2.8.53 3.16.59 3.5.66 3.73.75 3.78.84 3.58.92 3.23.99 2.84 1.03 2.6 1.07 2.67 1.12L51.84-70l3.77 1.24 4.53 1.32 5.17 1.4 5.66 1.56 7.37 1.83" filter="url(#a)"/><path d="m-5.98-81.56 2.8-.07 2.33-.01 2.25.06 2.43.14 2.55.2 2.49.25 2.31.31 2.17.37 2.14.43 2.26.5 2.51.57 2.82.63 3.16.71 3.44.79 3.62.87 3.66.96 3.59 1.02 3.47 1.08 3.37 1.12 3.35 1.16 3.44 1.2L57.89-68l4.18 1.37 4.64 1.48 4.47 1.51 4.18 1.33" filter="url(#a)"/><path d="m-7.25-81.36 1.83-.15 2.25-.08 2.18-.01 2.11.06 2.1.13 2.14.2 2.16.25 2.17.32 2.18.38 2.18.44 2.2.51 2.24.59 2.31.65 2.42.73 2.52.81 2.58.89 2.6.97 2.56 1.03 2.46 1.09 2.36 1.15 2.27 1.2 2.21 1.26 2.21 1.34 2.25 1.41 2.31 1.49 2.38 1.55 2.42 1.59 2.42 1.59 2.38 1.58 2.29 1.6 2.24 1.7 2.42 1.92 3.49 2.46" filter="url(#a)"/><path d="m-7.25-81.36 1.82-.15 2.25-.08L-1-81.6l2.11.05 2.09.13 2.13.2 2.13.25 2.13.31 2.08.37 2.04.44 1.98.5 1.93.57 1.91.64 1.89.72 1.9.79 1.94.88 1.97.96 2.01 1.02 2 1.09 1.97 1.13 1.92 1.17L37-69.15l1.85 1.3 1.88 1.4 1.95 1.5 2 1.61 1.98 1.71 1.94 1.8 1.66 1.62" filter="url(#a)"/><path d="m-7.74-81.07 1.24-.19 1.75-.17 2.05-.12 2.14-.03 2.14.05 2.15.13 2.16.22 2.16.29 2.18.36 2.18.42 2.22.47 2.27.54 2.35.6 2.45.68 2.55.76 2.59.84 2.55.92 2.45.99 2.28 1.04 2.14 1.09 2.07 1.14 2.11 1.19 2.2 1.26 2.33 1.32 2.38 1.37 2.33 1.42 2.14 1.45 1.93 1.5 1.94 1.64 2.36 1.73" filter="url(#a)"/><path d="m-9.48-80.91 2-.34 2.09-.2 2.18-.1 2.15-.02 2.1.06 2.08.13 2.08.19 2.08.25 2.06.32 2.04.38 2.01.44 1.98.52 1.93.58 1.91.66 1.88.74 1.87.81 1.86.89 1.85.97 1.85 1.03 1.83 1.1 1.81 1.15 1.77 1.21 1.75 1.28 1.72 1.34 1.7 1.42 1.68 1.49 1.65 1.54 1.6 1.59 1.54 1.6 1.47 1.63 1.43 1.69 1.43 1.8 1.48 1.98 1.55 2.17 1.54 2.21 1.07 1.68" filter="url(#a)"/><path d="m-9.48-80.91 1.94-.34 2.05-.2 2.2-.1 2.2-.02 2.18.06 2.17.13 2.2.19 2.28.25 2.38.32 2.47.38 2.52.44 2.52.52 2.45.58 2.35.66 2.25.74 2.22.81 2.25.89 2.33.97 2.41 1.03 2.47 1.1 2.48 1.15 2.46 1.21 2.42 1.28 2.42 1.34 2.46 1.42 2.54 1.49 2.61 1.54 2.67 1.59 2.68 1.6 2.71 1.63 2.79 1.69 2.95 1.8 3.17 1.98 3.43 2.17 3.61 2.21 3.62 1.68" filter="url(#a)"/><path d="m-9.48-80.91 1.94-.34 2.05-.2 2.16-.1 2.16-.03 2.13.04 2.16.12 2.21.17 2.26.24 2.26.28 2.25.35 2.24.41 2.22.48 2.24.53 2.23.6 2.21.67 2.23.75 2.28.83 2.41.93 2.56 1.01 2.64 1.1 2.77 1.27 3.49 1.61m24.21 55.72.75 2.28.72 2.67.86 2.64 1.07 2.6 1.37 2.61L72.41.92l2.39 2.56 2.91 2.54 3.21 2.5 3.11 2.46 2.67 2.38 1.98 2.29 1.24 2.23.61 2.19.2 2.2.09 2.24.2 2.31.43 2.38.63 2.4.73 2.43.78 2.4.85 2.36.96 2.31 1.06 2.24.99 2.17.67 2.09.22 2-.17 1.88-.23 1.73.02 1.61.13 1.63-.85 1.9-3.96 2.53" filter="url(#a)"/><path d="m-10.84-80.57.5-.38 2.15-.26 2.52-.19 2.62-.12 2.66-.04 2.67.05 2.65.12 2.62.21 2.66.28 2.73.34 2.87.41 3.02.46 3.19.52 3.43.59 3.74.65 4.14.75 4.58.83 5 .91 5.29.98 5.39 1.03 5.19 1.07 4.71 1.1 4.06 1.17 3.52 1.23 3.49 1.3 4.49 1.35 7.51 1.48" filter="url(#a)"/><path d="m-11.72-80.56 1.94-.35 1.96-.29 2.15-.2 2.23-.11 2.23-.03 2.2.04 2.18.12 2.19.18 2.21.24 2.23.31 2.24.36 2.25.43 2.24.5 2.21.56 2.2.64 2.18.71 2.18.79 2.19.87 2.22.95 2.23 1.02 2.26 1.08 2.3 1.13 2.36 1.17 2.43 1.21 2.48 1.29 2.46 1.39 2.42 1.49 2.39 1.6 2.53 1.76 3.63 2.23" filter="url(#a)"/><path d="m-14.2-80.03 2.95-.48 2.32-.37 1.99-.28 1.98-.2 2.14-.13 2.35-.05 2.54.03 2.66.12 2.69.19 2.66.26 2.58.34 2.58.39 2.69.45 2.94.5 3.36.56 3.89.63 4.46.71 4.94.81 5.17.92 5.06 1 4.71 1.03 4.3 1.01 3.72.97 2.42.9m-78.23-8.71-1.29.38-1.99.65-2.01.74-2.13.83-2.42.93-2.71 1.02-2.89 1.1-2.86 1.18-2.7 1.23-2.46 1.29-2.26 1.33-2.14 1.37-2.13 1.4-2.19 1.45-2.25 1.49-2.27 1.54-2.21 1.61-2.08 1.66-1.98 1.73-1.91 1.76-1.92 1.81-1.97 1.83-2.06 1.86-2.13 1.89-2.18 1.95-2.23 2.03-2.31 2.11-2.4 2.2-2.46 2.26-2.46 2.33-2.44 2.41-2.44 2.52-2.44 2.69-2.22 2.72-2.22 2.18" filter="url(#a)"/><path d="m-15.33-79.43-1.39.37-2.94.63-3.78.73-3.78.81-3.29.9-2.85.99-2.81 1.07-3.17 1.15-3.65 1.21-3.95 1.25-3.85 1.3-3.38 1.34-2.75 1.37-2.25 1.39-2.09 1.43-2.38 1.47-3.05 1.54-3.82 1.62-4.41 1.69-4.63 1.77-4.72 1.83-5.33 1.95-6.75 2.35" filter="url(#a)"/><path d="m-15.33-79.43-1.88.38-3.37.64-2.88.75-2.42.83-2.42.92-2.52 1.02-2.42 1.1-2.18 1.17-1.95 1.23-1.89 1.28-1.95 1.33-2.13 1.36-2.32 1.4-2.53 1.44-2.74 1.49-2.91 1.53-3.01 1.6-3 1.66-2.84 1.72-2.56 1.77-2.24 1.8-1.96 1.82-1.83 1.85-1.87 1.88-2.11 1.93-2.46 2.01-2.86 2.1-3.26 2.2-3.64 2.26-3.97 2.29-4.05 2.28-3.44 2.4-1.8 3.2" filter="url(#a)"/><path d="m-15.39-79.27-3.32.54-1.81.68-1.57.74-1.7.83-1.9.95-2.11 1.06-2.28 1.14-2.45 1.21-2.58 1.27-2.69 1.31-2.77 1.35-2.86 1.39-2.98 1.43-3.13 1.46-3.32 1.51-3.46 1.58-3.52 1.65-3.41 1.71-3.14 1.77-2.74 1.82-2.25 1.85-1.74 1.88-1.28 1.91-.95 1.93-.83 1.98-.98 2.04-1.42 2.11-2.09 2.19-2.83 2.27-3.4 2.32-3.58 2.35-3.31 2.39-2.78 2.46-2.34 2.57-2.22 2.46-2.1 1.19" filter="url(#a)"/><path d="m-15.49-79.36-3.21.89-2.26.77-2.14.81-2.51.9-2.91 1-3.03 1.08-2.88 1.15-2.61 1.21-2.42 1.26-2.46 1.3-2.74 1.34-3.18 1.37-3.69 1.39-4.14 1.42-4.39 1.47-4.41 1.53-4.27 1.62-4.17 1.7-4.29 1.76-4.6 1.83-4.95 1.95-5.45 2.34" filter="url(#a)"/><path d="m-22.52-77.07-.92.47-2.47.94-3.21 1.11-3.27 1.2-3.06 1.23-2.93 1.27-3.07 1.3-3.27 1.35-3.31 1.39-3.11 1.41-2.76 1.44-2.53 1.48-2.53 1.55-2.74 1.63-2.98 1.71-3.12 1.77-3.09 1.82-2.98 1.84-2.9 1.86-3.03 1.88-3.43 1.89-4.09 1.91-4.83 1.97-5.37 2.05-5.44 2.19-5.11 2.36-5.03 2.58-6.06 2.68" filter="url(#a)"/><path d="m-22.25-77.11-3.97 1.35-3.98 1.21-3.19 1.24-2.19 1.25-1.81 1.27-2 1.32-2.36 1.36-2.58 1.4-2.64 1.42-2.63 1.46-2.61 1.5-2.6 1.57-2.63 1.65-2.72 1.72-2.84 1.78-3.02 1.83-3.18 1.85-3.27 1.88-3.23 1.9-3.06 1.92-2.83 1.98-2.64 2.03-2.62 2.1-2.76 2.19-2.92 2.27-2.89 2.32-2.56 2.35-2.15 2.37-2.16 2.46-2.91 2.56-3.87 2.45-3.53 1.18" filter="url(#a)"/><path d="m-25.03-75.45-4.55.94-3.82 1.22-2.22 1.25-1.72 1.27-1.76 1.3-1.98 1.36-2.22 1.4-2.43 1.42-2.6 1.45-2.75 1.48-2.91 1.56-3.1 1.65-3.28 1.72-3.42 1.78-3.42 1.82-3.28 1.85-2.97 1.87-2.57 1.89-2.19 1.91-2.01 1.95-2.17 2.01-2.68 2.09-3.38 2.19-3.96 2.28-4.19 2.32-3.96 2.31-3.48 2.24-3.34 2.24-2.76 2.34" filter="url(#a)"/><path d="m-25.03-75.45-4.06.94-6.45 1.2-5.35 1.26-3.53 1.25-2.27 1.3-1.76 1.35-1.7 1.4-1.84 1.41-1.97 1.43-2.07 1.47-2.22 1.55-2.49 1.63-2.87 1.71-3.26 1.78-3.57 1.82-3.78 1.84-3.95 1.86-4.2 1.87-4.58 1.88-5.02 1.91-5.32 1.97-5.24 2.04-4.61 2.18-3.74 2.36-3.85 2.57-5.63 2.68m89.42-41.7-1.88 1.23-2.03 1.34-2.07 1.37-1.98 1.41-1.83 1.42-1.66 1.44-1.54 1.49-1.48 1.56-1.47 1.62-1.52 1.69-1.58 1.75-1.65 1.8-1.67 1.82-1.68 1.84-1.66 1.88-1.65 1.92-1.66 1.98-1.67 2.05-1.65 2.14-1.58 2.21-1.44 2.29-1.28 2.35-1.15 2.41-1.06 2.46-1.02 2.48-.98 2.49-.93 2.46-.89 2.45-.87 2.46-.91 2.47-.98 2.43-.96 2.36-.43 2.5" filter="url(#a)"/><path d="m-32.19-71.76-2.24 1.17-3.09 1.17-4.2 1.38-4.43 1.46-3.46 1.45-2.16 1.44-1.47 1.49-1.73 1.57-2.59 1.66-3.61 1.75-4.5 1.8-5.08 1.84-5.33 1.86-5.2 1.88-4.66 1.91-3.8 1.94-2.85 1.98-2.04 2.05-1.63 2.12-1.72 2.19-2.23 2.27-2.88 2.32-3.32 2.36-3.34 2.41-3 2.45-2.72 2.5-2.97 2.53-3.89 2.51-5.06 2.46-6.02 2.45-7.4 2.91" filter="url(#a)"/><path d="m-32.19-71.76-2.49 1.16-2.61 1.15-2.14 1.37-1.89 1.45-2.05 1.44-2.43 1.41-2.68 1.45-2.66 1.54-2.4 1.64-2.04 1.73-1.75 1.79-1.65 1.82-1.76 1.84-2.03 1.86-2.33 1.86-2.54 1.89-2.58 1.91-2.41 1.98-2.13 2.06-1.92 2.18-1.95 2.31-2.28 2.4-2.64 2.28-2.45 1.73" filter="url(#a)"/><path d="m-33.87-70.23-1.42.76-3.12 1.41-4.02 1.54-3.78 1.47-3.03 1.44-2.26 1.48-1.65 1.58-1.24 1.68-1.02 1.76-1.08 1.82-1.39 1.85-1.86 1.87-2.36 1.9-2.72 1.92-2.91 1.96-2.93 2.01-2.91 2.07-2.85 2.14-2.8 2.21-2.71 2.28-2.62 2.33-2.52 2.38-2.48 2.42-2.49 2.45-2.54 2.47-2.54 2.48-2.45 2.46-2.32 2.42-2.19 2.36-2.11 2.3-2.08 2.29-2 2.31-1.88 2.42-1.97 2.61-1.44 3.18" filter="url(#a)"/><path d="m-35.81-69.06-4.96 1.95-1.52 1.51-.77 1.44-1.03 1.46-1.57 1.55-2.07 1.64-2.38 1.72-2.45 1.77-2.31 1.81-2.07 1.83-1.85 1.86-1.73 1.88-1.74 1.93-1.82 2-1.87 2.07-1.83 2.15-1.69 2.23-1.48 2.3-1.27 2.36-1.13 2.42-1.09 2.45-1.16 2.47-1.3 2.48-1.49 2.46-1.66 2.46-1.74 2.45-1.69 2.44-1.51 2.43-1.27 2.43-1.13 2.45-1.22 2.52-1.43 2.58L-91.4.97l-1.41 2.59" filter="url(#a)"/><path d="m-39.78-65.69-1.83 1.54-1.78 1.45-1.9 1.52-1.8 1.64-1.66 1.73-1.63 1.78-1.76 1.81-2.02 1.83-2.4 1.83-2.9 1.85-3.44 1.9-3.91 1.96-4.18 2.04-4.12 2.14-3.76 2.21-3.17 2.28-2.59 2.35-2.15 2.41-1.97 2.45-2.01 2.48-2.23 2.47-2.64 2.44-3.13 2.43-3.37 2.45-2.81 2.49-1.52 2.37-2.35 2.12" filter="url(#a)"/><path d="m-39.78-65.69-3.73 1.53-2.17 1.44-2.36 1.51-2.52 1.62-2.41 1.71-2.11 1.78-1.73 1.8-1.34 1.81-1.03 1.82-.91 1.82-.98 1.86-1.21 1.93-1.49 2.02-1.73 2.11-1.93 2.19-2.07 2.26-2.19 2.31-2.3 2.39-2.33 2.48-2.14 2.57-1.72 2.54-1.59 2.25-2.37 1.86m44.36-45.61-.56 1.55-.79 1.46-1.46 1.53-1.63 1.65-1.47 1.74-1.19 1.8-.98 1.82-.86 1.84-.85 1.85-.9 1.87-.98 1.92-1.02 1.99-.98 2.07-.88 2.16-.74 2.23-.6 2.3-.48 2.37-.4 2.41-.34 2.46-.26 2.47-.15 2.47-.03 2.46.05 2.45.07 2.45.02 2.43-.03 2.43v2.42l.13 2.45.34 2.52.46 2.57.41 2.52.4 2.59" filter="url(#a)"/><path d="m-43.27-62.28-3.33 1.07-4.76 1.69-3.46 1.79-2.05 1.81-1.17 1.83-.82 1.84-.87 1.83-1.12 1.85-1.38 1.89-1.55 1.97-1.62 2.05-1.71 2.15-1.89 2.22-2.11 2.3-2.26 2.35-2.27 2.41-2.17 2.45-2.07 2.47-2.1 2.47-2.25 2.45-2.43 2.43-2.5 2.44-2.39 2.43-2.14 2.39-1.84 2.3-1.62 2.18-.66 1.88" filter="url(#a)"/><path d="m-42.36-63.15-3.08 2.16-4.16 2.12-2.8 1.98-1.31 1.9-.83 1.86-1.2 1.87-1.84 1.9-2.28 1.92-2.38 1.96-2.22 2.01-1.97 2.09-1.83 2.16-1.85 2.24-1.96 2.3-2.1 2.35-2.22 2.39-2.28 2.43-2.31 2.45-2.3 2.46-2.23 2.45-2.08 2.44-1.88 2.4-1.63 2.37-1.44 2.35-1.33 2.34-1.31 2.35-1.31 2.38-1.26 2.39-1.11 2.42-1 2.43-1.15 2.46-1.6 2.51-2.23 2.55-2.64 2.61-1.49 2.37" filter="url(#a)"/><path d="m-42.36-63.15-2.27 2.13-2.61 2.09-2.52 1.97-2.04 1.87-1.73 1.83-1.82 1.85-2.18 1.86-2.54 1.88-2.71 1.91-2.67 1.96-2.46 2.03-2.18 2.12-1.84 2.2-1.51 2.26-1.25 2.32-1.11 2.34-1.15 2.39-1.38 2.43-1.72 2.49-2.07 2.51-2.19 2.48-2.01 2.43-1.8 2.43-3.18 2.89" filter="url(#a)"/><path d="m-44.46-60.95-2.29 2.15-2.93 1.97-3.93 1.83-4.54 1.8-4.26 1.82-3.22 1.86-2.1 1.87-1.57 1.9-1.96 1.95-3.12 2.02-4.6 2.1-5.81 2.2-6.26 2.26-5.68 2.31-4.19 2.33-2.39 2.37-1.13 2.43-1.17 2.49-2.71 2.52-5.23 2.47-7.61 2.36-7.62 1.56m82.37-44.42-1.28 1.31-1.75 1.71-1.72 1.83-1.43 1.84-1.21 1.83-1.12 1.84-1.19 1.88-1.31 1.97-1.4 2.07-1.42 2.16-1.4 2.24-1.35 2.3-1.29 2.37-1.24 2.41-1.18 2.45-1.1 2.47-1.01 2.46-.9 2.45-.84 2.44-.82 2.42-.81 2.42-.75 2.41-.57 2.39-.39 2.42-.31 2.53-.51 2.61-.93 2.05" filter="url(#a)"/><path d="m-46.41-58.8-1.21 1.32-1.34 1.72-1.38 1.84-1.44 1.85-1.49 1.85-1.49 1.85-1.44 1.91-1.35 1.99-1.23 2.09-1.14 2.17-1.08 2.26-1.04 2.33-1.03 2.38-1.03 2.42-1.03 2.46-1.02 2.47-1.02 2.47-1 2.46-.97 2.46-.91 2.44-.84 2.44-.73 2.44-.62 2.44-.48 2.47-.36 2.49-.3 2.51-.28 2.5-.36 2.48-.45 2.45-.4 2.44-.14 2.56.03 3.19" filter="url(#a)"/><path d="m-46.68-58.73-1.67 2.1-1.28 1.76-1.18 1.76-1.19 1.83-1.2 1.86-1.17 1.88-1.13 1.91-1.09 1.95-1.05 2.04-1.01 2.12-.98 2.2-.94 2.27-.88 2.32-.83 2.35-.78 2.39-.74 2.43-.69 2.47-.62 2.49-.56 2.47-.47 2.42-.39 2.34-.33 2.24-.2 1.75" filter="url(#a)"/><path d="M-47.31-57.83-49-55.82l-1.61 1.93-1.94 1.88-2.71 1.85-3.62 1.84-4.1 1.9-3.81 1.99-2.88 2.09-1.69 2.19-.72 2.26-.2 2.33-.18 2.39-.52 2.43-1.01 2.46-1.5 2.47-1.91 2.47-2.21 2.46-2.44 2.45-2.57 2.45-2.6 2.44-2.49 2.44-2.22 2.45-1.82 2.46-1.36 2.49-.93 2.5-.66 2.5-.69 2.48-1.02 2.45-1.61 2.44-2.19 2.44-2.32 2.37-.27 1.72" filter="url(#a)"/><path d="m-49.1-55.7-1.29 1.9-1.61 1.87-1.82 1.84-1.87 1.82-1.76 1.87-1.53 1.98-1.29 2.1-1.05 2.2-.89 2.27-.79 2.33-.77 2.39-.79 2.43-.83 2.46-.89 2.47-.93 2.47-.93 2.46-.93 2.45-.91 2.44-.9 2.44-.93 2.44-.99 2.44-1.07 2.47-1.18 2.48-1.24 2.5-1.19 2.5-1.02 2.47-.7 2.45-.33 2.44-.05 2.44.12 2.36.33 1.72" filter="url(#a)"/><path d="m-49.92-54.73.99 1.66-1.4 1.94-1.42 1.96-1.12 1.92-.85 1.94-.54 2-.19 2.09.17 2.19.43 2.26.51 2.32.46 2.37.28 2.41.04 2.43-.19 2.46-.36 2.46-.41 2.45-.35 2.44-.23 2.4-.07 2.37.07 2.35.21 2.35.37 2.36.58 2.38.84 2.4 1.09 2.42 1.31 2.43 1.46 2.45 1.58 2.46 1.72 2.44 1.91 2.42 2.07 2.37 2.04 2.34 1.58 2.36.75 2.42.62 2.77m-13.95-80.79-1.14 1.65-1.67 1.94-1.95 1.95-2.11 1.92-2.15 1.93-2 1.99-1.73 2.08-1.42 2.18-1.13 2.25-.94 2.32-.88 2.36-.98 2.4-1.2 2.43-1.51 2.45-1.76 2.46-1.9 2.46-1.88 2.43-1.74 2.39-1.51 2.36-1.28 2.34-1.06 2.34-.86 2.34-.68 2.37-.54 2.39-.5 2.41-.58 2.43-.69 2.46-.66 2.48-.39 2.48-.05 2.42-.11 2.14-1.28 1.45" filter="url(#a)"/><path d="m-50.26-53.61-10.18 1.75-1.3 1.87.44 1.8-.65 1.86-2.33 1.99-3.5 2.13-3.85 2.22-3.48 2.29-2.62 2.35-1.66 2.41-.92 2.45-.66 2.47-.9 2.48-1.43 2.48-1.98 2.47-2.33 2.46-2.39 2.45-2.21 2.46-1.96 2.45-1.74 2.47-1.64 2.48-1.62 2.48-1.66 2.49-1.74 2.49-1.87 2.46-2.02 2.44-2.21 2.41-2.41 2.36-2.59 2.33-2.73 2.32-2.74 2.32-2.43 2.37-1.7 2.42-.69 2.43-.2 2.39-2.85 2.8" filter="url(#a)"/><path d="m-50.26-53.61-1.95 1.75L-53.9-50l-2.22 1.81-2.86 1.85-2.9 1.99-2.36 2.12-1.76 2.22-1.6 2.29-2.03 2.36-2.79 2.4-3.49 2.44-3.79 2.47-3.62 2.48-3.06 2.48-2.35 2.47-1.74 2.46-1.4 2.45-1.35 2.45-1.52 2.45-1.74 2.47-1.85 2.47-1.75 2.49-1.39 2.49-.86 2.48-.35 2.47-.05 2.44-.15 2.41-.6 2.36-1.21 2.32-1.73 2.3-2.01 2.3-2.07 2.38-1.96 2.46-1.63 2.37-.76 1.67" filter="url(#a)"/><path d="m-51.69-52.19-3.95 2.26-.72 1.75-.61 1.76-1.01 1.93-1.29 2.1-1.38 2.19-1.4 2.26-1.43 2.31-1.52 2.36-1.64 2.42-1.71 2.45-1.7 2.46-1.63 2.45-1.5 2.43-1.35 2.42-1.19 2.41-1.04 2.4-.94 2.39-.97 2.37-1.24 2.41-1.78 2.52-2.19 2.59-1.06 2.03" filter="url(#a)"/><path d="m-53.12-49.27-7.72 1.28-1.53 1.59.14 1.93-.63 2.13-1.81 2.22-2.37 2.27-2.28 2.32-1.95 2.36-1.85 2.42-2.05 2.46-2.38 2.46-2.5 2.45-2.22 2.43-1.59 2.42-.91 2.41-.47 2.4-.48 2.39-.92 2.39-1.68 2.42-2.55 2.49-3.38 2.54L-98.28 1l-4.78 2.56" filter="url(#a)"/><path d="m-53.12-49.27-1.28 1.29-1.02 1.61-1.06 1.95-1.13 2.14-1.14 2.24-1.13 2.29-1.12 2.34-1.13 2.38-1.14 2.44-1.16 2.46-1.17 2.48-1.16 2.46-1.14 2.45-1.09 2.43-1.03 2.43-.93 2.42-.83 2.42-.7 2.43-.57 2.45-.49 2.48-.47 2.5-.51 2.49-.54 2.46-.5 2.43-.37 2.43-.2 2.55-.12 3.17" filter="url(#a)"/><path d="m-53.12-49.27-1.5 1.3-2.46 1.62-2.13 1.95-1.52 2.16-1.2 2.25-1.16 2.3-1.2 2.35-1.24 2.39-1.25 2.45-1.26 2.47-1.32 2.48-1.41 2.47-1.53 2.46-1.64 2.44-1.7 2.44-1.67 2.43-1.57 2.44-1.48 2.44-1.46 2.47-1.63 2.48L-85.38-1l-2.27 2.49-2.53 2.47-2.53 2.44-2.25 2.41-1.73 2.36-1.02 2.29-.25 2.18.18 2.13-.42 2.36" filter="url(#a)"/><path d="m-53.53-48.58-2.41 1.56-1.85 1.76-3.25 1.93-4.92 2.05-5.59 2.18-4.99 2.26-3.68 2.32-2.36 2.35-1.44 2.38-1.04 2.4-1.12 2.44-1.51 2.46-2.09 2.46-2.74 2.42-3.39 2.37-3.83 2.32-3.84 2.28-3.26 2.27-2.27 2.31-1.56 2.35-1.9 2.39-3.48 2.34-5.16 2.17-4.53 2.16M64.91-20.6l17.15 2.29 4.32 2.52-1.88 2.65-2.24 2.66-.83 2.6.56 2.5 1.61 2.4 2.27 2.29 2.48 2.22 2.26 2.23 1.76 2.3 1.16 2.4.72 2.51.69 2.57 1.12 2.58 1.89 2.53 2.56 2.45 2.78 2.39 2.49 2.34 1.95 2.36 1.72 2.41 2.69 2.42 5.5 2.3" filter="url(#a)"/><path d="m64.91-20.6.75 2.32 1.83 2.55 2.43 2.67 2.15 2.67 1.59 2.61 1.38 2.52 1.74 2.41L79.3-.54l3.31 2.27 3.63 2.28 3.25 2.35 2.34 2.44 1.21 2.51.28 2.55-.32 2.56-.59 2.52-.7 2.48-.72 2.42-.67 2.38-.45 2.35-.09 2.32.38 2.29.84 2.27 1.2 2.25 1.43 2.25 1.62 2.23 1.72 2.19 1.3 2.24-.54 2.65m-152.5-96.27-6.42 1.75-5.5 2-3.64 2.11-3.29 2.23-2.7 2.31-1.9 2.37-1.44 2.39-1.46 2.42-1.78 2.44-2.16 2.46-2.43 2.48-2.56 2.45-2.58 2.43-2.5 2.4-2.32 2.36-2.04 2.35-1.66 2.35-1.19 2.36-.72 2.37-.31 2.4-.06 2.42v2.44l-.17 2.44-.49 2.44-.91 2.43-1.39 2.42-1.92 2.4-2.47 2.4-2.96 2.42-3.29 2.49-3.41 2.53-3.2 2.51-2.22 2.29-.95 1.88m71.05-77.84-1.48 2.81-1.33 2.32-1.47 2.28-1.45 2.34-1.17 2.4-.89 2.46-.71 2.49-.71 2.49-.74 2.48-.77 2.45-.7 2.43-.57 2.43-.44 2.43-.33 2.44-.3 2.44-.32 2.47-.4 2.47-.51 2.48-.63 2.48-.73 2.46-.78 2.43-.78 2.39-.64 2.34-.42 2.3-.12 2.26.14 2.26.3 2.39.42 2.64.33 3" filter="url(#a)"/><path d="m-56.72-42.96-10.14 1.88-3.52 2.19-.71 2.36-.18 2.4-.33 2.4-.52 2.41-.68 2.44-.93 2.48-1.23 2.48-1.48 2.46-1.59 2.43-1.52 2.39-1.36 2.36-1.15 2.34-1 2.34-.9 2.35-.84 2.38-.76 2.4-.68 2.42-.62 2.43-.65 2.44-.85 2.44-1.21 2.43-1.62 2.41-2 2.4-2.21 2.4-2.2 2.43-1.89 2.47-1.31 2.48-.59 2.41-.22 2.21-.77 1.84-1.93 1.41" filter="url(#a)"/><path d="m-56.72-42.96-1.57 1.86-2.81 2.15-3.86 2.33-4.93 2.38-5.38 2.37-4.59 2.37-3.02 2.41-1.73 2.45-1.47 2.47-2.14 2.45-2.97 2.41-3.25 2.37-2.73 2.31-1.83 2.29-1.23 2.29-1.33 2.32-1.99 2.34-2.7 2.38-3.07 2.38-3.12 2.4-3.27 2.42-3.38 2.46-2.53 2.55-.52 3.19m65.42-57.35-1.22 1.85-1.4 2.15-1.2 2.33-.94 2.37-.81 2.37-.8 2.37-.86 2.4-.92 2.44-.93 2.47-.9 2.45-.83 2.41-.8 2.36-.81 2.31-.9 2.28-1 2.28-1.03 2.31-.92 2.34-.67 2.37-.3 2.38.04 2.38.2 2.41.05 2.37-.35 1.61" filter="url(#a)"/><path d="m-57.55-41.44-1.22 1.84-1.62 2.15-1.59 2.31-1.4 2.38-1.34 2.45-1.41 2.5-1.46 2.49-1.5 2.46-1.52 2.44-1.57 2.41-1.69 2.42-1.88 2.41-2.16 2.42-2.48 2.43-2.76 2.44-2.89 2.47-2.83 2.48-2.66 2.47-2.5 2.46-2.42 2.43-2.25 2.4-1.71 2.37-.7 2.27.19 2.07-1.15 1.95" filter="url(#a)"/><path d="m-58.69-39.61-5.82 2.12-5.24 2.41-2.94 2.42-2.48 2.47-2.57 2.51-2.63 2.51-2.79 2.47-3.17 2.44-3.7 2.42-4.23 2.42-4.49 2.43-4.27 2.42-3.46 2.44-2.16 2.46-.77 2.47.22 2.48.43 2.47-.2 2.45-1.31 2.42-2.32 2.39-2.72 2.33-2.33 2.29-1.47 2.25-.72 2.26-.67 2.39-1.17 2.63-2.55 2.99m64.18-62.69-1.01 2.72-.76 2.39-.68 2.33-.69 2.42-.66 2.5-.62 2.52-.55 2.48-.48 2.44-.4 2.38-.33 2.35-.26 2.34-.2 2.34-.12 2.36-.07 2.39-.01 2.4.05 2.43.09 2.43.14 2.44.18 2.44.23 2.43.29 2.42.35 2.42.42 2.42.49 2.42.57 2.43.62 2.41.68 2.38.72 2.33.78 2.29.81 2.27.87 2.24.93 2.22 1.05 2.24 1.3 2.42 1.81 2.91m-6.79-81.34-1.01 2.28-1.85 2.19-2.19 2.38-2.48 2.52-2.5 2.54-2.13 2.49-1.6 2.43-1.2 2.38-1.04 2.33-1.09 2.32-1.33 2.33-1.72 2.35-2.17 2.38-2.52 2.4-2.56 2.42-2.22 2.43-1.53 2.44-.74 2.43-.08 2.43.31 2.41.36 2.41.17 2.41-.19 2.42-.55 2.43-.84 2.42-.89 2.38-.7 2.32-.45 2.28-.43 2.27-.78 2.28-1.42 2.09-1.28 1.92" filter="url(#a)"/><path d="m-61.29-33.53-.64 2.27-.72 2.17-.82 2.37-.82 2.5-.73 2.53-.58 2.48-.44 2.42-.35 2.36-.28 2.32-.24 2.3-.2 2.31-.18 2.33-.15 2.36-.11 2.39-.09 2.41-.04 2.42v2.43l.06 2.43.1 2.41.18 2.4.23 2.36.31 2.37.4 2.4.46 2.48.53 2.59.6 2.61.68 2.28" filter="url(#a)"/><path d="m-61.4-32.45-10.52 2.18-4.95 2.76-.59 2.63.68 2.44-.04 2.38-1.13 2.37-1.7 2.4-1.52 2.4-.88 2.41-.2 2.41.14 2.43-.1 2.46-.88 2.47-1.92 2.46-2.78 2.43-3.08 2.41-2.64 2.38-1.69 2.33-.74 2.25-.21 2.14-.47 2.1-2.49 2.34" filter="url(#a)"/><path d="m-61.87-30.79-2.1 1.73-1.03 2.35-.8 2.56-.98 2.57-1.44 2.5-2.07 2.42-2.61 2.35-2.78 2.32-2.4 2.3-1.55 2.31-.49 2.34.35 2.36.69 2.4.47 2.41-.1 2.42-.68 2.43-.98 2.43-.93 2.42-.67 2.39-.42 2.39-.35 2.39-.41 2.41-.48 2.45-.34 2.47-.18 2.41-.32 2.19-1.05 1.82-2.19 1.4m24.63-60.94-.6 2.59-.2 2.2.17 2.26.67 2.39 1.03 2.43 1.08 2.45.91 2.43.74 2.45.82 2.47 1.18 2.48 1.76 2.49 2.39 2.47 2.92 2.44 3.29 2.41 3.42 2.38 3.34 2.35 3 2.33 2.51 2.32 1.94 2.35 1.44 2.38 1.14 2.42 1.13 2.46 1.41 2.48 1.87 2.49 2.32 2.44 2.69 2.35 3.05 2.2 3.36 2 3.18 1.94 1.76 2.47m73.65-67.31 5.34 2.14 2.51 2.32.44 2.49.56 2.6 1.68 2.63 2.9 2.58 4.03 2.51 5.15 2.4L93-.81l6.46 2.23 6 2.23 4.82 2.3 3.4 2.4 2.13 2.5 1.14 2.58.43 2.58-.04 2.54-.14 2.46.17 2.37.82 2.33 2.03 2.36 4.76 2.44 9.09 2.61" filter="url(#a)"/><path d="m63.66-25.33 6.12 2.34 2.25 2.28.59 2.37.07 2.5.32 2.59.87 2.61 1.42 2.58 1.84 2.5 2.17 2.42 2.34 2.32 2.32 2.27 2.27 2.27 2.33 2.32 2.66 2.42 3.12 2.5 3.45 2.56 3.37 2.57 2.87 2.54 2.28 2.47 2.01 2.41 2.1 2.37 2.02 2.36 1.11 2.36-.17 2.28.53 2.03 4.39 1.44" filter="url(#a)"/><path d="m63.66-25.33 5.71 2.35 4.82 2.29 2.24 2.38 1.7 2.5 1.83 2.59 1.5 2.62.73 2.58.25 2.51.63 2.42 1.91 2.33 3.59 2.28 4.99 2.29 5.58 2.34 5.15 2.43 3.87 2.5 2.22 2.56.72 2.56-.15 2.53-.25 2.48.21 2.42.7 2.38.73 2.35.17 2.33-.46 2.28-.43 2.24.47 2.24 1.07 2.42-1.79 2.58" filter="url(#a)"/><path d="m62.59-28.87 1.28 4.21 1.68 2.9 2.73 2.34 3.1 2.26 2.41 2.33 1.25 2.44.24 2.52-.36 2.56-.52 2.58-.39 2.59-.06 2.58.37 2.56.87 2.54 1.34 2.51 1.76 2.46 2.09 2.39 2.24 2.31 2.16 2.23 1.77 2.17 1.09 2.18.27 2.21-.5 2.29-.95 2.38-1 2.44-.69 2.46-.23 2.45.23 2.42.57 2.37.81 2.25 1.14 1.87 1.89.79" filter="url(#a)"/><path d="m62.44-29.92 11.43 2.24 1.22 2.98-.08 2.71.59 2.44.94 2.35.98 2.38 1.08 2.45 1.29 2.51 1.33 2.57 1.1 2.58.59 2.59.06 2.58-.36 2.57-.54 2.54-.48 2.51-.29 2.46v2.39l.33 2.32.66 2.25.97 2.22 1.2 2.21 1.27 2.24 1.19 2.31.97 2.37.71 2.42.48 2.44.33 2.43.21 2.39.04 2.33-.2 2.26-.55 2.2-.93 2.15-1.1 2.16-.7 2.12.46 1.94" filter="url(#a)"/><path d="m62.21-30.72.88 1.19.54 2.2.78 2.61 1.16 2.58 1.61 2.44 1.95 2.38 2.04 2.39L73-12.49l1.48 2.51 1.13 2.55.87 2.57.72 2.58.64 2.58.62 2.56.62 2.54.62 2.52.62 2.46.58 2.4.56 2.32.57 2.23.69 2.18.92 2.17 1.22 2.21 1.41 2.29 1.35 2.38.95 2.45.22 2.48-.65 2.46-1.36 2.43-1.65 2.45-1.14 2.51.42 2.52" filter="url(#a)"/><path d="m61.16-33.31 2.79 1.97 2.8 1.82 2.01 2.2.75 2.47.06 2.49.06 2.41.36 2.36.65 2.36.79 2.41.83 2.47.91 2.52 1 2.55 1.05 2.56.97 2.56.78 2.54.58 2.53.5 2.53.59 2.54.8 2.51 1.01 2.38 1.17 2.12 1.21 1.89.82 2.01-.54 3.03M60.59-35.11l4.1 2.82 4.91 2.34 3.91 2.26 2.45 2.22 1.3 2.22L78.51-21l2.39 2.34 3.94 2.42 4.95 2.51 4.9 2.56 4.01 2.55 2.86 2.51 1.98 2.43 1.56 2.33 1.55 2.24 1.89 2.19 2.66 2.24 3.93 2.36 5.52 2.52 6.88 2.66 7.31 2.65 6.04 2.56 3.37 2.97" filter="url(#a)"/><path d="m59.79-36.69 2.2 2.83 3.71 2.2 6.42 2.07 6.51 2.26 4.26 2.41 2.07 2.45 1.45 2.4 2.34 2.37 3.77 2.37 4.82 2.41 4.94 2.47 4.11 2.51 2.76 2.55 1.6 2.56 1.24 2.56 1.92 2.54 3.23 2.53 4.48 2.53 4.98 2.57 4.61 2.56 3.79 2.42 3.3 2.07 3.55 1.57.45 1.23" filter="url(#a)"/><path d="m59.83-37.23.95 2.39 1.25 2.46 1.5 2.38 1.64 2.31 1.69 2.27 1.67 2.27 1.53 2.31 1.27 2.39.97 2.46.7 2.53.51 2.55.37 2.54.27 2.5.21 2.44.2 2.38.28 2.34.47 2.34.66 2.37.82 2.43.83 2.5.68 2.54.42 2.56.14 2.54-.05 2.5-.07 2.44.11 2.4.39 2.37.64 2.34.63 2.3.25 2.25-.45 2.26-1.15 2.42-.4 2.6" filter="url(#a)"/><path d="m59.72-37.03.75 1.27 2.26 2.01 3.69 2.08 3.48 2.15 2.03 2.3.68 2.4.17 2.44.48 2.42 1.16 2.41 1.74 2.43 1.96 2.45 1.79 2.5 1.43 2.54 1.11 2.56.99 2.58L84.58.09l1.41 2.56 1.7 2.55 1.82 2.53 1.78 2.47 1.67 2.42 1.59 2.32 1.62 2.24 1.71 2.16 1.74 2.15 1.57 2.19 1.2 2.28.81 2.4.58 2.49.48 2.51v2.45l-1.12 2.32-1.62 2.28" filter="url(#a)"/><path d="m59.72-37.03 1.45 1.26 1.18 2 1.15 2.06 1.6 2.13 2.03 2.28 2.06 2.4 1.75 2.42 1.44 2.42 1.35 2.39 1.57 2.4 1.88 2.43 2.09 2.49 2.07 2.52 1.86 2.56 1.66 2.57 1.62 2.57 1.81 2.55 2.05 2.55 2.11 2.54 1.8 2.51 1.19 2.46.59 2.35.38 2.18.72 2.03 1.37 1.97 1.97 2.02 2.29 2.09 2.35 2.45m-45.39-64.6.47 1.25.82 1.98.93 2.05.97 2.11.96 2.26.85 2.38.72 2.42.59 2.4.48 2.37.44 2.38.4 2.41.39 2.46.36 2.51.31 2.55.22 2.57.12 2.56.02 2.54-.04 2.51-.05 2.54-.05 2.59-.05 2.64-.06 2.54-.1 2.13-.27 1.22" filter="url(#a)"/><path d="m59.72-37.03.75 1.27 1.04 2.01.98 2.07 1.04 2.15 1.29 2.29 1.52 2.4 1.55 2.44 1.44 2.42 1.32 2.41 1.34 2.42 1.48 2.45 1.63 2.5 1.7 2.54 1.64 2.56 1.46 2.57L81.14.05l.99 2.56.73 2.55.49 2.53.29 2.48.14 2.42.08 2.33.11 2.22.17 2.15.23 2.12.19 2.17.03 2.28-.26 2.41-.46 2.52-.24 2.54.35 2.47.07 2.12M57.76-41.35l.43 3.07.46 2.27.82 2.14.96 2.11.89 2.17.76 2.28.61 2.38.47 2.42.35 2.41.24 2.4.16 2.41.11 2.45.09 2.49.05 2.53.01 2.55-.05 2.57-.14 2.58-.24 2.56-.39 2.55-.55 2.54-.68 2.51-.76 2.44-.76 2.34-.7 2.2-.66 2.08-.67 2.02-.75 2.08-.82 2.24-.83 2.56-.99 3.15" filter="url(#a)"/><path d="m57.76-41.35 2.4 3.08 3.41 2.28 3.81 2.14 3.35 2.13 2.92 2.18 2.89 2.3 2.98 2.38 2.86 2.42 2.45 2.42 1.9 2.42 1.35 2.43.83 2.46.37 2.5-.04 2.54-.32 2.56-.47 2.58-.48 2.58-.42 2.56-.33 2.56-.24 2.52-.09 2.48.15 2.42.48 2.32.83 2.24 1.12 2.17 1.27 2.15 1.29 2.2 1.2 2.28 1.01 2.4.71 2.49.27 2.51-.21 2.45-.71 2.33-1.26 2.28" filter="url(#a)"/><path d="m56.77-43.29 4 1.7.59 1.95 1.06 2.2 2.17 2.34 2.59 2.37 2.24 2.35 1.66 2.31 1.28 2.28 1.19 2.28 1.26 2.3 1.37 2.36 1.39 2.43 1.29 2.5 1.09 2.54.85 2.55.75 2.51.86 2.45 1.2 2.35L85.27.75l2.04 2.23 2.2 2.26 2.19 2.37 2.13 2.53 2.08 2.66 1.79 2.68.85 2.57-.23 2.99" filter="url(#a)"/><path d="m55.74-45.1 2.32 1.71 2.27 2.31 1.27 2.38.8 2.29.89 2.19 1.14 2.13 1.33 2.17 1.42 2.24 1.44 2.33 1.49 2.38 1.64 2.38 1.96 2.35 2.4 2.35 2.81 2.39 2.91 2.44 2.55 2.49 1.84 2.55 1.19 2.58L88.5-.79l1.72 2.65 2.38 2.36.72 1.18" filter="url(#a)"/><path d="m55.74-45.1 1.3 1.75 1.43 2.33 1.28 2.41 1.12 2.31.97 2.22.83 2.18.71 2.22.64 2.29.59 2.35.55 2.4.54 2.4.56 2.41.58 2.42.6 2.45.6 2.48.56 2.53.47 2.56.33 2.57.2 2.57.06 2.57-.02 2.56-.06 2.54-.07 2.53-.06 2.46-.05 2.36-.02 2.19v2.05l-.02 1.98-.14 2.03-.37 2.09-.59 2.46M55-46.72l3.59 1.55 2.74 1.88 1.74 2.2 2.28 2.29 3.1 2.26 3.41 2.19 3.21 2.16 2.74 2.17 2.25 2.24 1.8 2.33 1.45 2.37 1.24 2.37 1.17 2.35 1.22 2.35 1.41 2.38 1.68 2.44 1.96 2.49 2.06 2.54 1.73 2.58 1.33 2.7 2.17 2.94 5.78 3.43" filter="url(#a)"/><path d="m53.61-48.92 1.96 2.76 1.95 2.28 2.34 2.1 3.16 2.11 3.79 2.21 3.71 2.29 2.95 2.34 1.99 2.33 1.33 2.32 1.28 2.3 1.85 2.3 2.74 2.32 3.64 2.38 4.31 2.43 4.6 2.5 4.56 2.53 4.22 2.55 3.67 2.51 2.93 2.45 2.07 2.37 1.26 2.3.69 2.26.53 2.29.83 2.39 1.43 2.53 1.91 2.64 1.81 2.69 1.17 2.68 1.23 2.77 2.82 2.96" filter="url(#a)"/><path d="m54.45-47.83.76 1.25.91 1.57 1.1 1.91 1.39 2.16 1.66 2.26 1.75 2.26 1.59 2.24 1.27 2.22.9 2.26.6 2.3.45 2.36.41 2.38.45 2.41.51 2.42.54 2.44.55 2.47.54 2.5.52 2.53.5 2.56.48 2.58.47 2.58.45 2.57.48 2.56.51 2.54.58 2.5.61 2.43.58 2.34.45 2.24.24 2.15.02 2.11-.14 2.16-.21 2.28-.28 2.43-.42 2.56-.63 2.63-.86 2.88m-19.57-85.1 14.49.98 3.11 1.9-1.09 2.07-1.24 2.07.28 2.12 2.25 2.2 3.91 2.28 4.86 2.32 4.94 2.32 4.25 2.31 3.13 2.29 1.93 2.29.94 2.32.32 2.36.08 2.42.2 2.49.62 2.54 1.25 2.56 1.99 2.53 2.68 2.47 3.19 2.36 3.43 2.26 3.44 2.17 3.2 2.2 2.51 2.33 1.14 2.59.02 3 3.11 3.9" filter="url(#a)"/><path d="m51.7-52.13 1.69 2.29 1.28 1.88 1.28 1.97 1.29 2.04 1.29 2.08 1.38 2.15 1.56 2.21 1.76 2.28 1.89 2.32 1.93 2.32 1.94 2.32 2.03 2.31 2.22 2.32 2.48 2.34 2.71 2.39 2.75 2.44 2.51 2.5 1.99 2.52 1.35 2.54.75 2.51.41 2.45.35 2.39.52 2.32.73 2.29.85 2.33.91 2.4.98 2.52 1.2 2.62 1.48 2.66 1.62 2.64 1.51 2.52 1.25 2.18.91 1.05" filter="url(#a)"/><path d="m47.13-58.16 1.8 1.99 1.98 2.02 2.09 2 1.94 1.96 1.67 1.95 1.4 1.98 1.16 2.01.96 2.05.88 2.11.87 2.17.94 2.24.99 2.28 1.01 2.3.98 2.3.95 2.28.96 2.26L68.72-22l1.04 2.31 1.03 2.38.94 2.48.84 2.58.72 2.61.57 2.57.51 2.53.95 2.8" filter="url(#a)"/><path d="m46.8-58.21 1.04 1.04 1.52 1.83 1.6 2.06 1.56 2.09 1.53 2.04 1.54 1.98 1.6 1.98 1.64 2.02 1.6 2.09 1.45 2.15 1.28 2.2 1.14 2.21 1.09 2.23 1.16 2.27 1.34 2.29 1.6 2.34 1.86 2.37 2.07 2.4 2.14 2.41 2.06 2.43 1.78 2.45 1.39 2.49.9 2.53.45 2.56.08 2.58-.1 2.58-.04 2.58.23 2.57.62 2.57.94 2.59 1.05 2.59.95 2.46.78 2.12.59 1.61.39 1.25" filter="url(#a)"/><path d="m43.01-62.31 2.44 2.15 2.09 1.57 1.88 1.56 1.87 1.76 1.98 1.92 2.08 1.99 2.03 2 1.93 1.97 1.92 1.97 2.11 2.01 2.39 2.07 2.62 2.13 2.66 2.17 2.49 2.19 2.19 2.21 1.9 2.23 1.72 2.27L81-25.81l1.76 2.36 1.85 2.38 1.92 2.38 1.99 2.38 2.02 2.4 2.02 2.46 1.94 2.51 1.86 2.54 1.86 2.55 2.03 2.65 2.59 2.56" filter="url(#a)"/><path d="m43.01-62.31 4.72 2.16 2.1 1.58 1.83 1.58 1.79 1.78 1.79 1.93 1.87 2 1.93 2.01 1.89 1.99 1.72 2 1.51 2.03 1.39 2.1 1.4 2.14 1.52 2.18 1.66 2.21 1.77 2.24 1.84 2.26 1.92 2.3 2.05 2.34 2.23 2.36 2.43 2.4 2.53 2.41 2.49 2.42 2.27 2.46 1.93 2.49 1.56 2.53 1.22 2.56.95 2.58.75 2.59.6 2.58.52 2.57.52 2.57.56 2.62.61 2.67.74 2.58 1.21 2.18 2.39 1.25" filter="url(#a)"/><path d="m43.22-62.65 1.44.92 2.71 1.64 2.69 1.84 2.27 1.92 1.88 1.95 1.57 1.96 1.36 1.95 1.3 1.97 1.35 1.97 1.45 2 1.53 2.04 1.51 2.09 1.45 2.15 1.36 2.23 1.31 2.28 1.33 2.3 1.46 2.31 1.62 2.27 1.7 2.23 1.55 2.21 1.12 2.2.66 2.26.64 2.35 1.41 2.39" filter="url(#a)"/><path d="m43.22-62.65.88.95 1.87 1.67L48-58.16l1.99 1.94 1.93 1.98 1.8 1.99 1.6 1.99 1.4 1.99 1.36 2.02 1.47 2.05 1.7 2.09 1.91 2.15 2.03 2.2 1.99 2.25 1.86 2.29 1.67 2.3 1.46 2.32 1.3 2.32 1.18 2.33 1.13 2.34 1.14 2.39 1.22 2.44 1.34 2.49 1.47 2.54L82.5-9.2l1.59 2.53 1.59 2.48 1.56 2.39L88.71.5l1.24 2.25.83 2.26.34 2.37.01 2.56.21 2.74.92 2.68 1.2 1.59M40.24-65.18l1.44 1.58 1.38 1.65 1.32 1.64.9 1.63.44 1.68.19 1.79.25 1.89.5 1.96.79 1.98 1.01 1.99 1.11 2 1.12 2.04 1.04 2.09.88 2.14.64 2.18.37 2.2.14 2.23-.01 2.26-.05 2.3.01 2.33.11 2.37.17 2.39.14 2.4.04 2.42-.08 2.45-.19 2.49-.22 2.53L53.47-6l-.22 2.59-.33 2.6-.52 2.57-.76 2.53-.93 2.51-1 2.66-.88 2.91-.59 2.5M37.67-67.64l3.9 1.33 1.41 1.46 1.28 1.49 1.83 1.54 2.36 1.65 2.53 1.75 2.33 1.85 2.04 1.9 1.95 1.93 2.17 1.94 2.62 1.95 3.05 1.96 3.29 1.98 3.26 2.01 3 2.05 2.66 2.11 2.41 2.21 2.32 2.29 2.54 2.36 3.04 2.37 3.3 2.33 1.23 1.85" filter="url(#a)"/><path d="m36.43-68.61 8.56 1.57.77 1.64-.09 1.65.41 1.65 1.03 1.63 1.62 1.63 2.24 1.69 2.88 1.77 3.44 1.86 3.8 1.93 3.89 1.95 3.71 1.96 3.33 1.98 2.86 2.01 2.38 2.07 1.97 2.12 1.67 2.16 1.53 2.18 1.62 2.19 1.98 2.21 2.55 2.26 3.2 2.33 3.7 2.39 3.84 2.4 3.6 2.35 3.07 2.27 2.31 2.29 1.51 2.44 2.55 2.92" filter="url(#a)"/><path d="m35.99-68.93 4.73 1.26 3.8 1.37 1.99 1.45 1.02 1.5.86 1.57.97 1.66 1.1 1.77 1.21 1.85 1.41 1.91 1.73 1.94 2.16 1.96 2.58 1.97 2.89 1.98 3 2.01 2.85 2.05 2.47 2.09 1.99 2.16 1.5 2.22 1.2 2.28 1.12 2.32 1.26 2.32L79.31-27l1.67 2.24 1.83 2.2 2.07 2.19 2.53 2.26 3.3 2.43" filter="url(#a)"/><path d="m35.99-68.93 7.46 1.26 1.29 1.38.16 1.44.56 1.51 1.18 1.57 1.66 1.67 1.96 1.77 2.05 1.85 1.96 1.91 1.85 1.95 1.83 1.96 1.94 1.97 2.2 1.99 2.46 2.02 2.66 2.05 2.67 2.1 2.55 2.16 2.35 2.23 2.24 2.28 2.27 2.31 2.39 2.31 2.48 2.29 2.47 2.25 2.31 2.22 2.13 2.22 1.99 2.28 1.84 2.35 1.69 2.41" filter="url(#a)"/><path d="m30.46-72.97 2.73 1.26 2.49 1.22 1.68 1.29 1.45 1.34 1.65 1.39 2.07 1.43 2.49 1.48 2.77 1.55 2.79 1.64 2.6 1.72 2.29 1.81 1.98 1.88 1.72 1.91 1.53 1.94 1.41 1.95 1.35 1.96 1.4 1.97 1.55 1.99 1.69 2 1.79 2.07 1.89 2.21 2.16 2.5 2.5 3.06" filter="url(#a)"/><path d="m30.46-72.97 1.63 1.27 1.75 1.25 1.84 1.31 1.86 1.36 1.84 1.42 1.79 1.46 1.73 1.52 1.68 1.59 1.64 1.68 1.59 1.76 1.55 1.84 1.48 1.9 1.43 1.93 1.38 1.97 1.36 1.98 1.35 2.01 1.35 2.03 1.35 2.07 1.31 2.12 1.24 2.17 1.13 2.23 1.02 2.28.91 2.31.83 2.31.8 2.3.78 2.28.79 2.27.79 2.3.81 2.37.83 2.5.88 2.68.87 2.8.52 2.44" filter="url(#a)"/><path d="m29.38-73.3 3.53.67 4.8 1.02 3.01 1.18 1.32 1.28.67 1.35.86 1.41 1.5 1.46 2.35 1.52 3.16 1.59 3.81 1.68 4.2 1.75 4.31 1.83 4.2 1.89 3.96 1.94 3.75 1.96 3.72 1.98 3.92 2 4.3 2.03 4.61 2.07 4.63 2.12 4.21 2.17 3.45 2.23 2.65 2.28 2.15 2.31 2.08 2.32 2.39 2.29 2.88 2.28 3.45 2.25 4.27 2.27 5.44 2.34 6.44 2.49 6.37 2.78 7.11 3.41" filter="url(#a)"/><path d="m29.38-73.3 4.76.65 1.66 1 1.77 1.16 2.54 1.26 3.12 1.33 3.31 1.38 3.23 1.43 3.03 1.48 2.74 1.54 2.47 1.63 2.34 1.72 2.52 1.8 3.01 1.87 3.63 1.91 4.08 1.94 4.29 1.95 4.33 1.95 4.49 1.97 4.82 1.98 4.95 1.98 4.38 2 3.49 2.1 4.87 2.16" filter="url(#a)"/><path d="m26.91-74.9 3.05 1.2 1.53 1 1.48 1.06 1.84 1.17 2.14 1.25 2.34 1.33 2.53 1.38 2.8 1.43 3.12 1.49 3.4 1.56 3.55 1.64 3.51 1.73 3.33 1.81 3.06 1.87 2.79 1.92 2.49 1.94 2.21 1.96 1.97 1.97 1.85 1.98 1.94 2.01 2.25 2.04 2.65 2.1 2.98 2.2 3.11 2.34 3.1 2.3 3.53 1.62" filter="url(#a)"/><path d="m25.8-75.31 3.58.95 3.18 1.08 2.69 1.17 2.67 1.2 2.54 1.23 2.26 1.3 2.1 1.39 2.28 1.47 2.71 1.55 3.17 1.59 3.39 1.62 3.29 1.66 2.94 1.71 2.55 1.76 2.35 1.84L70-51.9l2.94 1.93 3.5 1.96 3.91 1.97 3.92 2 3.51 2.06 2.81 2.12 2.23 2.17 2.12 2.18 2.69 2.17 3.78 2.14 4.88 2.19 5.37 2.38 4.99 2.66 4.36 2.6 3.31 1.37" filter="url(#a)"/><path d="m25.8-75.31 2.67.95 2.19 1.07 1.95 1.16 2.19 1.18 2.75 1.22 3.34 1.28 3.64 1.38 3.49 1.46 3.07 1.54 2.65 1.58 2.53 1.6 2.75 1.64 3.12 1.67 3.41 1.74 3.46 1.83 3.28 1.89 3.05 1.93 2.88 1.94 2.79 1.92 2.75 1.93 2.78 2.01 3.12 2.13L93.53-38l4.61 2.33 4.49 2.39 5.1 2.56" filter="url(#a)"/><path d="m24.69-76.07 2.28 1.18 1.99 1.1 1.95 1.05 2.38 1.09 3.27 1.16 4.28 1.25 5.01 1.31L51-66.55l4.64 1.43 3.69 1.48 2.7 1.56 2.09 1.63 2.19 1.72 2.95 1.81 4.09 1.87 5.06 1.91 5.46 1.94 5.14 1.96 4.34 1.97 3.57 1.98 3.43 1.99 4.17 2.02 5.49 2.08 6.36 2.22 6.04 2.51 6.87 3.07" filter="url(#a)"/><path d="m24.69-76.07 3.81 1.18 4.92 1.11 4.04 1.06 2.43 1.09 1.38 1.18 1.13 1.25 1.55 1.33 2.35 1.39 3.23 1.44 3.94 1.5 4.4 1.58 4.6 1.66 4.64 1.73 4.65 1.82 4.65 1.87 4.66 1.92 4.63 1.95 4.48 1.97 4.13 1.99 3.53 2.01 2.72 2.03 1.9 2.09 1.45 2.14 1.7 2.22 2.79 2.31 4.26 2.36 5.17 2.37 4.54 2.32 2.69 2.22 1.74 2.2" filter="url(#a)"/><path d="m23.28-76.7 3.16 1.21 2.87 1.08 2.28 1.12 1.75 1.16 1.54 1.2 1.56 1.23 1.68 1.31L39.91-67l1.85 1.47 1.87 1.54 1.91 1.58 1.99 1.63 2.12 1.66 2.24 1.7 2.35 1.77 2.38 1.84 2.34 1.89 2.29 1.93 2.27 1.95 2.33 1.98 2.44 2L70.8-42l2.45 2.12 2.22 2.17 1.88 2.18 1.59 2.17 1.51 2.15 1.81 2.2 2.34 2.38 2.74 2.65 2.53 2.61L91.61-20" filter="url(#a)"/><path d="m23.28-76.7 2.95 1.2 1.99 1.07 1.91 1.11 2.19 1.15 2.82 1.18 3.85 1.21 4.98 1.28 5.77 1.37 5.89 1.45 5.27 1.53 4.24 1.57 3.21 1.6 2.57 1.62 2.45 1.66 2.81 1.73 3.44 1.82 4.19 1.89 4.85 1.95 5.26 1.93 5.36 1.88 5.22 1.87 4.85 1.96 4.13 2.19 2.74 2.31.49 1.48" filter="url(#a)"/><path d="m23.28-76.7 3.19 1.2L29-74.41l1.85 1.11 1.67 1.16 1.63 1.19 1.62 1.23 1.63 1.3 1.68 1.39 1.79 1.47 1.95 1.53 2.12 1.58 2.33 1.62 2.51 1.65 2.67 1.7 2.76 1.76 2.75 1.83L60.6-52l2.46 1.93 2.2 1.94 1.97 1.96 1.76 1.99 1.61 2.05 1.52 2.12 1.47 2.19 1.54 2.21 1.73 2.14 2 2.03 2.1 1.94 2 2.21 2.3 3.62" filter="url(#a)"/><path d="m22.13-77.08 2.41 1.04 2.28 1.09 2.36 1.08 2.72 1.05 3.05 1.09 3.19 1.15 3.11 1.23 2.92 1.29 2.71 1.35 2.5 1.41 2.31 1.45 2.18 1.52 2.12 1.6 2.13 1.69 2.21 1.78 2.31 1.87 2.37 1.92 2.3 1.93 2.2 1.91 2.41 1.91 3.2 2.07 3.51 2.36" filter="url(#a)"/><path d="m22.13-77.08 2.66 1.05 3.67 1.1 4.45 1.08 4.33 1.07 3.91 1.11 3.61 1.17 3.42 1.24 3.17 1.31 2.82 1.37 2.44 1.43 2.14 1.49 1.95 1.56 1.91 1.63 2.06 1.72 2.45 1.8 3.1 1.87 3.92 1.91 4.7 1.95 5.19 1.96 5.23 1.97 4.88 1.98 4.32 2 3.76 2.02 3.31 2.08 3.26 2.22 4.38 2.51 7.03 3.08" filter="url(#a)"/><path d="m22.13-77.08 5.05 1.04 5.24 1.11 3.78 1.08 2.26 1.07 1.36 1.1 1.48 1.17 2.39 1.24 3.47 1.3 4.15 1.37 4.12 1.43 3.56 1.48 2.77 1.55 2.16 1.63 1.95 1.71 2.15 1.8 2.59 1.87 3.09 1.91 3.46 1.94 3.69 1.96 3.93 1.96 4.34 1.98 4.89 1.99 5.32 1.99 5.39 2.01 5.01 2.11 2.64 2.17" filter="url(#a)"/><path d="m19.97-78.09.78.23 2.22.81 2.38 1 2.15 1.07 1.96 1.08 1.89 1.1 1.89 1.13 1.88 1.19 1.84 1.25 1.77 1.32 1.71 1.38 1.69 1.44 1.7 1.5 1.76 1.58 1.85 1.65 1.95 1.74 2.04 1.8 2.06 1.87 2.03 1.92 1.93 1.95 1.76 1.97 1.56 1.99 1.36 2.02 1.21 2.04 1.16 2.09 1.22 2.15 1.33 2.23 1.48 2.3 1.57 2.37 1.59 2.37 1.52 2.34 1.45 2.22 1.42 2.21" filter="url(#a)"/><path d="m18.85-78.49 1.75.41 2.32.71 2.78.88 2.92.98 2.63 1.04 2.11 1.1 1.74 1.14 1.66 1.18 1.83 1.23 2.14 1.3 2.44 1.37 2.63 1.44 2.7 1.52 2.69 1.56 2.66 1.6 2.66 1.63 2.68 1.68 2.71 1.75 2.67 1.82 2.56 1.89 2.42 1.94 2.36 1.93 2.46 1.92 2.67 1.92 2.88 1.99 2.79 2.16 2.4 2.28 2.2 2.26 3.28 2.55" filter="url(#a)"/><path d="m15.99-79.33 2.49.64 1.93.61 1.73.72 1.78.85 1.94.95 2.05 1.02L30-73.46l2.04 1.12 2 1.16 1.99 1.21 2.04 1.26 2.15 1.34 2.26 1.43 2.28 1.5 2.17 1.55 1.98 1.58 1.78 1.59 1.73 1.6 1.87 1.66 2.12 1.78 2.35 1.97 2.37 2.16 2.12 2.18 1.18 1.65" filter="url(#a)"/><path d="m15.99-79.33 4.9.64 2.34.6 1.57.72 1.81.84 2.37.95 2.88 1.01 3.23 1.07 3.39 1.12 3.43 1.15 3.4 1.19 3.36 1.26 3.38 1.32 3.49 1.42 3.67 1.5 3.8 1.55 3.78 1.58 3.54 1.57 3.18 1.55 2.86 1.56 2.81 1.68 3.38 1.91 5.4 2.43" filter="url(#a)"/><path d="m13.74-79.85 2.87.76 2.16.63 1.96.67 2.04.81 2.1.92 2.03 1.01L28.84-74l1.87 1.08 1.84 1.12 1.87 1.17 1.88 1.23 1.87 1.28 1.84 1.35 1.79 1.41 1.76 1.47 1.75 1.53 1.77 1.61 1.76 1.7 1.75 1.79 1.69 1.86 1.65 1.92 1.62 1.95 1.66 1.94 1.74 1.96 1.85 2.03 1.83 2.12 1.46 1.93" filter="url(#a)"/><path d="m14.1-79.93 2.07.62 2.08.61 2.17.65 2.39.76 2.51.86 2.49.96 2.44 1.03 2.48 1.09 2.62 1.15 2.83 1.19 2.98 1.25 3.02 1.31 2.9 1.38 2.66 1.45 2.37 1.52 2.18 1.57 2.19 1.61 2.46 1.66 2.96 1.71 3.59 1.77 4.16 1.83 4.47 1.89 4.39 1.92 3.91 1.96 3.22 1.97 2.63 2.01 2.39 2.06 2.65 2.13 3.27 2.18 3.93 2.19 4.3 2.17 4.33 2.11 4.2 2.14 3.96 2.4 3.49 3.05 4.14 3.64" filter="url(#a)"/><path d="m14.1-79.93 2.21.61 3.11.61 3.65.64 3.45.74 2.91.85 2.4.94 2.08 1.02 1.99 1.07 2.12 1.13 2.46 1.16 2.81 1.22 3.03 1.28 3.05 1.35 2.93 1.43 2.87 1.51 3.01 1.55 3.35 1.58 3.73 1.61 3.98 1.65 3.97 1.7 3.75 1.81 3.52 1.93 3.44 2.02 3.53 2 3.62 1.82 4.22 1.54 6.73 1.33" filter="url(#a)"/><path d="m14.1-79.93 2.03.61 1.99.61 1.93.65 2.03.74 2.23.85 2.48.95 2.82 1.02 3.24 1.08 3.63 1.13 3.83 1.17 3.77 1.23 3.5 1.29 3.21 1.36 3.08 1.44 3.2 1.5 3.49 1.56 3.83 1.59 4.12 1.62 4.3 1.67 4.39 1.73 4.39 1.82 4.25 1.9 3.89 1.96 3.31 1.95 2.63 1.87 2.25 1.81 2.68 1.94 4.51 2.41 7.81 3.44" filter="url(#a)"/><path d="m13.02-80.08 1.24.42 1.95.58 1.87.62 1.75.7 1.75.81 1.8.92 1.85.99 1.85 1.05 1.79 1.08 1.68 1.13 1.57 1.17 1.47 1.24 1.4 1.29 1.35 1.36 1.33 1.42L39-63.83l1.33 1.55 1.33 1.63 1.32 1.71 1.29 1.79 1.23 1.86 1.14 1.91 1.03 1.95.94 1.96.86 1.98.85 1.99.89 2 .94 1.97.91 1.98.77 2.32" filter="url(#a)"/><path d="m10.54-80.55 2.21.43 2.15.5 2.13.56 2.03.63 1.99.71 1.99.82 2 .91 2 .99 2.01 1.05 2.03 1.09 2.05 1.14 2.02 1.19 1.99 1.25 1.94 1.3 1.91 1.38 1.93 1.43 2.01 1.5 2.1 1.57 2.16 1.65 2.18 1.72 2.11 1.8 1.98 1.87 1.82 1.91 1.69 1.95 1.63 1.97 1.65 2 1.73 2.01 1.82 2.04 1.86 2.09 1.83 2.14 1.73 2.23 1.59 2.32 1.47 2.39 1.35 2.42 1.11 2.36.87 1.9" filter="url(#a)"/><path d="m8.28-80.91 2.4.38 2.66.43 2.67.49 2.56.56 2.35.63 2.2.71 2.23.82 2.48.9 2.88.98 3.31 1.04 3.59 1.09 3.64 1.13 3.49 1.19 3.2 1.25 2.83 1.3 2.45 1.37 2.1 1.43 1.84 1.5 1.71 1.56 1.78 1.65 2.08 1.72 2.59 1.8 3.24 1.86 3.94 1.91 4.54 1.95 4.95 1.97 5.09 1.99 4.95 2.01 4.61 2.04 4.31 2.07 4.28 2.14 4.67 2.22 5.13 2.34 5.02 2.41 4.31 2.49 5.57 3.08" filter="url(#a)"/><path d="m8.28-80.91 1.95.37 1.69.43 1.59.48 1.53.55 1.54.61 1.62.69 1.66.79 1.59.89 1.4.97 1.17 1.02.99 1.06.89 1.11.9 1.15 1.01 1.21 1.18 1.27 1.34 1.34 1.45 1.38 1.45 1.44 1.33 1.5 1.1 1.57.77 1.67.35 1.78-.09 1.88-.36 2.01-.25 2.19.05 2.66" filter="url(#a)"/><path d="m7.53-81 2.45.26 2.03.37 2.07.49 2.13.56 2.09.61 2 .68 1.92.76 1.91.84 1.95.93 2.03 1.01 2.07 1.07 2.07 1.12 2 1.18 1.9 1.23 1.82 1.3 1.78 1.37 1.8 1.44 1.85 1.5 1.91 1.55 1.95 1.6 1.96 1.64 1.93 1.69 1.89 1.75 1.83 1.82 1.79 1.89 1.75 1.94 1.74 1.94 1.74 1.93 1.76 1.93 1.81 2.01 1.78 2.15 1.65 2.29 1.35 2.28 1.14 2.56" filter="url(#a)"/><path d="m7.53-81 2.65.26 2.85.37 3 .48 2.65.55 2.36.61 2.42.67 2.72.75 3.02.83 3.12.92 3.02 1 2.84 1.06 2.7 1.11 2.77 1.16 3.16 1.22 3.91 1.27 4.86 1.35 5.71 1.43 6.17 1.49 6.04 1.55 5.41 1.58 4.61 1.61 4 1.63 3.86 1.7 4.22 1.8 4.96 1.96 5.88 2.07 6.62 2.08 6.67 1.84 4.51 1.55" filter="url(#a)"/><path d="m7.53-81 2.47.26 2.06.36 2.11.48 2.14.55 2.09.6 2.03.66 2.04.74 2.14.83 2.32.91 2.51.99 2.63 1.05 2.65 1.11 2.54 1.15 2.36 1.2 2.16 1.26 2.04 1.33 2.03 1.41 2.17 1.49 2.36 1.56 2.58 1.58 2.7 1.58 2.67 1.56 2.53 1.58 2.48 1.69 2.6 1.92 2.46 2.44" filter="url(#a)"/><path d="m7.53-81 3.09.26 2.66.37 2.3.47 2.06.55 2.14.61 2.49.66 2.83.75 2.99.83 2.92.91 2.72.99 2.63 1.06 2.81 1.1 3.28 1.16 3.94 1.2 4.53 1.27 4.87 1.34 4.82 1.41 4.47 1.5 4.01 1.55 3.74 1.58 3.84 1.59 4.21 1.59 4.62 1.63 4.9 1.76 5.27 1.99 5.89 2.33 5.47 2.71" filter="url(#a)"/><path d="m5.67-81.19 2.1.21 2.18.27 2.24.37 2.38.47 2.54.54 2.72.6 2.85.67 2.92.75 2.88.83 2.7.92 2.44.99 2.17 1.05 1.95 1.12 1.87 1.16 1.96 1.21 2.15 1.28 2.44 1.35 2.78 1.42 3.18 1.5 3.63 1.54 4.16 1.59 4.66 1.6 5.02 1.64 5.11 1.7 4.92 1.8 4.58 1.96 4.29 2.08 4.07 2.07 3.15 1.85.47 1.55" filter="url(#a)"/><path d="m4.29-81.67 2.44.3 2.31.39 2.28.42 2.55.44 2.92.49 3.23.55 3.35.61 3.22.69 2.91.79 2.53.87 2.23.95 2.13 1.01 2.25 1.06 2.52 1.1 2.89 1.15 3.24 1.2 3.5 1.27 3.58 1.33 3.49 1.38 3.27 1.43 3.1 1.49 3.18 1.57 3.62 1.65 4.3 1.77 5 1.87 5.66 1.91 6.79 1.85" filter="url(#a)"/><path d="m.69-81.72 2.47.18 2.43.25 2.5.27 2.48.31 2.38.37 2.28.45 2.24.51 2.28.57 2.38.64 2.49.71 2.58.8 2.64.88 2.63.96 2.56 1.03 2.48 1.08 2.38 1.12 2.29 1.15 2.23 1.2 2.24 1.26L49-66.61l2.53 1.48 2.56 1.5 1.94 1.32" filter="url(#a)"/></g><g fill="none" stroke="#000"><circle cx="9.952" cy="20.326" r="1.366" filter="url(#a)"/><circle cx="9.78" cy="21.946" r="1.922" filter="url(#a)"/><circle cx="9.532" cy="19.778" r="2.186" filter="url(#a)"/><circle cx="9.82" cy="20.802" r="1.132" filter="url(#a)"/><circle cx="8.316" cy="21.222" r="2.632" filter="url(#a)"/><circle cx="8.744" cy="22.106" r="1.522" filter="url(#a)"/><circle cx="6.288" cy="21.066" r="1.562" filter="url(#a)"/><circle cx="7.952" cy="19.862" r="1.378" filter="url(#a)"/><circle cx="9.32" cy="19.35" r="1.398" filter="url(#a)"/><circle cx="8.952" cy="21.958" r="2.03" filter="url(#a)"/><circle cx="-9.064" cy="27.032" r="1.936" filter="url(#a)"/><circle cx="-6.592" cy="28.384" r="1.306" filter="url(#a)"/><circle cx="-5.944" cy="27.44" r="2.114" filter="url(#a)"/><circle cx="-8.64" cy="25.176" r="2.184" filter="url(#a)"/><circle cx="-7.768" cy="28.2" r="2.92" filter="url(#a)"/><circle cx="-7.94" cy="28.436" r="1.028" filter="url(#a)"/><circle cx="-6.736" cy="25.152" r="2.246" filter="url(#a)"/><circle cx="-8.568" cy="28.468" r="1.506" filter="url(#a)"/><circle cx="-7.924" cy="26.44" r="2.764" filter="url(#a)"/><circle cx="-9.076" cy="25.056" r="2.92" filter="url(#a)"/></g><path fill="#A866CC" stroke="#000" stroke-linejoin="round" stroke-width="3" d="m-36.34 40.23.86.39.84.4.84.39.82.39.81.38.8.39.79.38.78.38.77.37.76.37.75.37.74.37.73.36.73.36.71.35.7.34.7.35.69.33.68.34.67.32.67.32.66.32.65.3.65.31.64.29.64.29.63.28.62.27.62.26.61.26.61.25.6.24.61.23.59.22.59.22.59.2.59.2.58.18.58.17.58.17.58.15.57.14.58.14.57.12.57.11.57.09.57.09.56.07.57.06.57.05.57.04.57.02.57.01.57-.01.57-.02.58-.03.58-.05.57-.06.58-.07.59-.1.58-.1.59-.12.6-.14.59-.15.61-.17.6-.19.61-.2.61-.22.62-.24.63-.25.63-.27.63-.29.64-.31.65-.32.65-.35.66-.36.67-.38.67-.4.69-.42.69-.44.69-.46.71-.48.71-.5.73-.52.73-.54.74-.56.75-.59.76-.6.77-.63.78-.65.79-.67.8-.69.81-.72.83-.73.83-.77.85-.78.86-.81.87-.83.88-.86.9-.88-.9.88-.88.86-.87.83-.86.81-.85.78-.83.77-.83.73-.81.72-.8.69-.79.67-.78.65-.77.63-.76.6-.75.59-.74.56-.73.54-.73.52-.71.5-.71.48-.69.46-.69.44-.69.42-.67.4-.67.38-.66.36-.65.35-.65.32-.64.31-.63.29-.63.27-.63.25-.62.24-.61.22-.61.2-.6.19-.61.17-.59.15-.6.14-.59.12-.58.1-.59.1-.58.07-.57.06-.58.05-.58.03-.57.02-.57.01-.57-.01-.57-.02-.57-.04-.57-.05-.57-.06-.56-.07-.57-.09-.57-.09-.57-.11-.57-.12-.58-.14-.57-.14-.58-.15-.58-.17-.58-.17-.58-.18-.59-.2-.59-.2-.59-.22-.59-.22-.61-.23-.6-.24-.61-.25-.61-.26-.62-.26-.62-.27-.63-.28-.64-.29-.64-.29-.65-.31-.65-.3-.66-.32-.67-.32-.67-.32-.68-.34-.69-.33-.7-.35-.7-.34-.71-.35-.73-.36-.73-.36-.74-.37-.75-.37-.76-.37-.77-.37-.78-.38-.79-.38-.8-.39-.81-.38-.82-.39-.84-.39-.84-.4" filter="url(#a)"/></svg>