<svg xmlns="http://www.w3.org/2000/svg" width="500" height="500" viewBox="-100 -100 200 200"><defs><clipPath id="c"><path d="m20.87-3.65-.01-.16-.04-.16-.07-.16-.09-.15-.12-.15-.14-.15-.17-.14-.2-.14-.22-.13-.26-.13-.27-.12-.31-.12-.33-.11-.35-.11-.38-.1-.3-.16-.33-.15-.39-.14-.42-.13-.48-.11-.51-.1-.55-.1-.6-.08-.63-.06-.66-.06-.7-.04-.73-.04-.76-.02-.79-.01h-.81l-.83.01-.85.02-.86.03-.88.04-.88.05-.9.05-.9.07-.9.07-.91.08-.9.09-.9.09-.89.1-.88.1-.87.11-.85.11-.85.12-.82.13-.81.12-.79.14-.76.13-.75.14-.72.14-.7.14-.67.14-.65.15-.62.15-.59.15-.57.16-.54.15-.52.16-.49.15-.46.16-.44.16-.42.16-.39.16-.38.17-.35.16-.32.17-.3.17-.29.17-.26.18-.23.17-.22.18-.2.18-.17.18-.15.19-.14.18-.12.19-.09.19.01 2.15.33.19.35.2.35.2.37.2.37.19.39.2.39.19.4.2.41.19.42.19.43.18.44.19.45.18.45.17.46.18.47.17.49.17.49.16.5.16.51.16.52.14.53.15.54.13.54.12.55.12.55.1.56.1.57.08.57.07.58.06.58.05.58.03.59.03h1.18l.59-.02.59-.03.6-.05.59-.06.59-.07.6-.08.59-.1.59-.11.59-.13.59-.13.58-.15.58-.15.58-.17.58-.17.57-.19.57-.19.57-.2.56-.21.56-.21.55-.22.54-.22.55-.22.53-.23.53-.23.53-.22.52-.23.51-.23.51-.22.5-.22.44-.21.43-.21.42-.21.42-.2.42-.21.4-.21.4-.21.39-.21.38-.21.37-.2.37-.21.35-.21.35-.2.33-.2.32-.21"/></clipPath><clipPath id="b"><path d="m-17.89-3.06-.06-.22-.03-.22v-.22l.03-.21.06-.21.09-.21.12-.2.15-.19.18-.18.21-.18.24-.17.27-.16.29-.16.33-.14.36-.14.26-.22.31-.2.36-.19.41-.18.45-.15.5-.14.54-.12.58-.11.62-.09.65-.07.69-.06.73-.04.75-.03.78-.01.8.01.82.02.85.03.86.04.87.06.88.07.89.08.89.09.9.1.89.11.9.12.88.13.88.13.86.14.86.15.83.15.82.16.81.17.78.16.76.18.73.17.71.18.68.18.66.18.63.19.6.18.57.19.54.19.51.19.48.19.45.19.42.19.39.2.36.19.34.19.31.2.28.19.26.2.23.19.21.2.17.2.15.2.13.2.1.21.07.2.05.21.03.2v.21l-.02.21-.05.21-.22 1.71-.43.18-.43.19-.45.19-.45.18-.47.19-.47.18-.48.19-.49.18-.49.18-.5.18-.51.18-.51.17-.52.18-.52.16-.53.17-.53.16-.55.16-.55.16-.55.15-.56.15-.56.14-.57.14-.56.13-.57.12-.56.11-.57.11-.56.09-.56.09-.55.07-.55.07-.55.05-.54.04-.54.03-.53.02H-.02l-.51-.02-.5-.03-.5-.05-.48-.06-.49-.07-.47-.08-.47-.09-.47-.11-.45-.12-.45-.12-.45-.14-.44-.15-.44-.16-.44-.17-.43-.18-.43-.18-.42-.2-.43-.2-.42-.21-.43-.21-.42-.22-.43-.22-.43-.23-.43-.22-.43-.24-.43-.23-.44-.24-.44-.23-.36-.22-.35-.23-.35-.22-.35-.23-.35-.24-.34-.24-.34-.24-.34-.24-.34-.25-.33-.25-.33-.26-.32-.26-.32-.26-.31-.27-.31-.27"/></clipPath><linearGradient id="d" x1="0%" x2="100%" y1="0%" y2="0%"><stop offset="0%" style="stop-color:#649869;stop-opacity:1"/><stop offset="32%" style="stop-color:#2dc17b;stop-opacity:1"/><stop offset="100%" style="stop-color:#1eb50b;stop-opacity:1"/></linearGradient><filter id="a"><feTurbulence baseFrequency=".05" numOctaves="3" result="noise" type="noise"/><feDisplacementMap in="SourceGraphic" in2="noise" scale="2"/></filter></defs><rect width="100%" height="100%" x="-100" y="-100" fill="#F0A6F2"/><path fill="#26DF20" stroke="#000" stroke-linejoin="round" stroke-width="1.667" d="m50.83.57.1-.14-.08 1.51-.19 3.38.04 1.5-.05.44.06.02-.11.08-.17 3.42-.17 1.76.16-1.41-.59 3.45.21-.86-.08 1.12-.47 2.81-.07-.13-.25 2.71-.08.7-.47 1.46-.07.43-.04 1.02-.6 1.99-.14 1.11-.41 2.09.07-.85-.3.99-.2 1.38-.66 1.87.15-.35-1.25 3.98-.46 1.07.14-.2-.34.97-.89 2.58.09.16-.35.42-.86 1.9-.39.91-.06.07-.74 1.57-.6 1.37-.74 1.5-.56 1.29.27-.45-.62.87-.41 1.09-.87 1.5-.1.36-.2.12-.4.44-.56 1.26-.56.8-1.37 2.23-.09-.06-.4.84-.75 1.01-.89.98-.18.12-.77 1.3-1.43 1.56-.54.36-1.16 1.36.27.05.54-.9-2.79 2.75-.18.27.19-.21-1.13 1.12-.62.58.01-.2-2.17 1.89.68-.74-1.36 1.24-1.78 1.45.15-.23-.55.25-1.77 1.13-.25.28-.07-.12-.06.11-2.31 1.35-.09-.07-1.36.46.21-.09-.97.7-2.05.48.28-.06-.78.36-.38.19.06-.09-2.72.62.4.2-2.54.15.61.16-1.02.23-1.56-.09.96-.13-.72.26-2.1.09-1.13.24-.97-.12-.08.11.14-.06-1.61.03-1.11-.13-.72-.26-1.77-.28.84.33-1.68-.27-.19-.17-.63-.03-.67-.24-1.58-.57-.28-.01-.93-.32-.26-.07-1.06-.37-.68-.4-1.5-.53h.44l-2.15-.94h-.08l-.89-.47-.97-.66-.31-.18-.5-.33-1.32-.54-1.56-1.28.37.1-1.63-1.18.27.29-.88-.94-.82-.28-.28-.29-1.05-1.26-.38-.11-.79-.96-1.02-.87-1.04-1.11-1.29-1.37.12.11-.72-.71.26.26-1.15-1.47-.12-.09-.3-.47-1.1-1.63-1.1-1.33-.16-.09-.75-1.25-.65-.64-.37-.65-1.08-1.87-.99-1.91.81 1.08-.88-1.03-.25-.75-.15-.2-.55-.64-1.39-3.18-.05-.23-.64-1.34-.2-.48-.6-1.49-.31-.28-.74-1.78-.56-1.54-.7-2.21.16.18-.18-.45-.19-.45-1.08-3.28-.15-.34-.64-2.54.26 1.13-.42-1.52-.22-.5-.27-1.24-.36-2.13-.32-1.26-.31-1.48.13.7-.43-1.65-.65-3.39-.02-1.05.12.64-.49-3.16.16 2.33-.4-4.27.13.47-.34-1.39-.12-1.49-.02-.05-.23-2.88.05-1.86-.21.94V3.67l-.02.45-.13-1.04.09-.53.07-3.55-.02-1.39-.06.7.01-.45.22-3.09-.03-1.38.09-1.42.04-1.45.07-.45-.05.82.16-2.51.25-1.62-.09-.86.48-1.85v-1.87l.56-2.08.02-1.28-.15 2.02.58-3.1-.31.59.67-3.32.12.08.38-1.73.19-1.44.15.05.45-2.02.68-2.67.01.38.41-1.28.14-1.12.13-.66.67-1.17.95-3.32.02.29.02.05.36-1.31.16-.16.88-2.15.17-.6 1.02-1.76-.02-.25 1.39-3.11-.22.93.55-1.3.34-.69.96-1.6-.34.51.7-1.4.61-.89 1.11-1.88.24-.8.03.46 1.5-2.45-.42.46.55-.65 1.61-1.93.39-.89.1-.21.76-.83.89-.92 1.55-1.7-.3.32.98-1.39-.04.37 1.41-1.71.46-.15 1.19-1.36.61-.34-.26.2 1.14-.93.03-.33 1.44-.88.8-.46.76-.51.28-.37.62-.58 1.25-.68 1.4-.8-1.19.68 2.04-1.01.66-.58 1.21-.57.52-.13 1-.35.65-.2 1.42-.63-.22-.07-.03.17 1.93-.57-.03-.07.88-.19 1.41-.5 1.44-.04.95-.22.08-.04.98-.3.82.07 1.19-.08.26.1.2-.19 1-.08 1.36.13-.06-.08 1.19.03.71.18-.41-.03 1.28.23.97-.14.51.31 1.8.1.62.51.51.06.89-.05 1.06.5 1.28.34.75.25.04.21.94.43-.4-.36.99.31 1.7.85-.11.14 1.99 1.04.39.33.29.01.21.05L21-72.11l-.38-.12.62.5.29.26 1.6 1.12.41.53 1.5 1.13.54.51.37.14.38.35 1.16 1.1-.47-.36 1.41 1.26 1.59 2.1.03-.08-.13-.2 1.31 1.6.27.37 1.17 1.26.98 1.46.34.24.35.67.55.64.45.84 1.03 1.5.21.52.22.49.88 1.57.16-.04.95 1.58.53 1.16-.42-.64 1.02 1.81.7 1.36.83 1.9.63 1.16-.17-.05.67 1.26.3.57.67 1.68.38 1 .47 1.43.17.34.56 1.58.41 1.28.14.55-.27-.34.97 2.87.54 1.79.42 2.05-.34-1.48.82 2.74.04 1.23-.02-.84.73 2.9.02.47-.04.23.44 1.98.44 2.98.16 1-.26-1.66.16 1.13.55 3.18-.05-.09.08 1.33.03.63.37 2.51.15 1.54.08 2.35.02 1.07.01.41.03 1.85.05 1.22.01 1.08.01 1.22.1-.14" filter="url(#a)"/><path fill="#fff" d="m-17.89-3.06-.06-.22-.03-.22v-.22l.03-.21.06-.21.09-.21.12-.2.15-.19.18-.18.21-.18.24-.17.27-.16.29-.16.33-.14.36-.14.26-.22.31-.2.36-.19.41-.18.45-.15.5-.14.54-.12.58-.11.62-.09.65-.07.69-.06.73-.04.75-.03.78-.01.8.01.82.02.85.03.86.04.87.06.88.07.89.08.89.09.9.1.89.11.9.12.88.13.88.13.86.14.86.15.83.15.82.16.81.17.78.16.76.18.73.17.71.18.68.18.66.18.63.19.6.18.57.19.54.19.51.19.48.19.45.19.42.19.39.2.36.19.34.19.31.2.28.19.26.2.23.19.21.2.17.2.15.2.13.2.1.21.07.2.05.21.03.2v.21l-.02.21-.05.21-.22 1.71-.43.18-.43.19-.45.19-.45.18-.47.19-.47.18-.48.19-.49.18-.49.18-.5.18-.51.18-.51.17-.52.18-.52.16-.53.17-.53.16-.55.16-.55.16-.55.15-.56.15-.56.14-.57.14-.56.13-.57.12-.56.11-.57.11-.56.09-.56.09-.55.07-.55.07-.55.05-.54.04-.54.03-.53.02H-.02l-.51-.02-.5-.03-.5-.05-.48-.06-.49-.07-.47-.08-.47-.09-.47-.11-.45-.12-.45-.12-.45-.14-.44-.15-.44-.16-.44-.17-.43-.18-.43-.18-.42-.2-.43-.2-.42-.21-.43-.21-.42-.22-.43-.22-.43-.23-.43-.22-.43-.24-.43-.23-.44-.24-.44-.23-.36-.22-.35-.23-.35-.22-.35-.23-.35-.24-.34-.24-.34-.24-.34-.24-.34-.25-.33-.25-.33-.26-.32-.26-.32-.26-.31-.27-.31-.27" filter="url(#a)" transform="translate(21.19 -26.66)"/><path fill="#fff" d="m20.87-3.65-.01-.16-.04-.16-.07-.16-.09-.15-.12-.15-.14-.15-.17-.14-.2-.14-.22-.13-.26-.13-.27-.12-.31-.12-.33-.11-.35-.11-.38-.1-.3-.16-.33-.15-.39-.14-.42-.13-.48-.11-.51-.1-.55-.1-.6-.08-.63-.06-.66-.06-.7-.04-.73-.04-.76-.02-.79-.01h-.81l-.83.01-.85.02-.86.03-.88.04-.88.05-.9.05-.9.07-.9.07-.91.08-.9.09-.9.09-.89.1-.88.1-.87.11-.85.11-.85.12-.82.13-.81.12-.79.14-.76.13-.75.14-.72.14-.7.14-.67.14-.65.15-.62.15-.59.15-.57.16-.54.15-.52.16-.49.15-.46.16-.44.16-.42.16-.39.16-.38.17-.35.16-.32.17-.3.17-.29.17-.26.18-.23.17-.22.18-.2.18-.17.18-.15.19-.14.18-.12.19-.09.19.01 2.15.33.19.35.2.35.2.37.2.37.19.39.2.39.19.4.2.41.19.42.19.43.18.44.19.45.18.45.17.46.18.47.17.49.17.49.16.5.16.51.16.52.14.53.15.54.13.54.12.55.12.55.1.56.1.57.08.57.07.58.06.58.05.58.03.59.03h1.18l.59-.02.59-.03.6-.05.59-.06.59-.07.6-.08.59-.1.59-.11.59-.13.59-.13.58-.15.58-.15.58-.17.58-.17.57-.19.57-.19.57-.2.56-.21.56-.21.55-.22.54-.22.55-.22.53-.23.53-.23.53-.22.52-.23.51-.23.51-.22.5-.22.44-.21.43-.21.42-.21.42-.2.42-.21.4-.21.4-.21.39-.21.38-.21.37-.2.37-.21.35-.21.35-.2.33-.2.32-.21" filter="url(#a)" transform="translate(-19.35 -23.42)"/><g fill="none" stroke="#000" transform="translate(21.19 -26.66)"><path stroke-linejoin="round" stroke-width="1.667" d="m-15.84-.84-.31-.21-.29-.21-.27-.21-.25-.22-.22-.23-.19-.22-.18-.23-.14-.23-.12-.23-.08-.23-.06-.22-.03-.22v-.22l.03-.21.06-.21.09-.21.12-.2.15-.19.18-.18.21-.18.24-.17.27-.16.29-.16.33-.14.36-.14.26-.22.31-.2.36-.19.41-.18.45-.15.5-.14.54-.12.58-.11.62-.09.65-.07.69-.06.73-.04.75-.03.78-.01.8.01.82.02.85.03.86.04.87.06.88.07.89.08.89.09.9.1.89.11.9.12.88.13.88.13.86.14.86.15.83.15.82.16.81.17.78.16.76.18.73.17.71.18.68.18.66.18.63.19.6.18.57.19.54.19.51.19.48.19.45.19.42.19.39.2.36.19.34.19.31.2.28.19.26.2.23.19.21.2.17.2.15.2.13.2.1.21.07.2.05.21.03.2v.21l-.02.21-.05.21-.07.22-.09.21-.11.22-.13.21-.16.22-.17.22-.19.23-.21.22-.23.23-.25.22" filter="url(#a)"/><path stroke-linejoin="round" stroke-width="2.222" d="m-20.12-4.17.19.32.2.31.22.31.24.3.24.3.26.29.27.29.28.29.29.27.3.28.31.27.31.27.32.26.32.26.33.26.33.25.34.25.34.24.34.24.34.24.35.24.35.23.35.22.35.23.36.22.44.23.44.24.43.23.43.24.43.22.43.23.43.22.42.22.43.21.42.21.43.2.42.2.43.18.43.18.44.17.44.16.44.15.45.14.45.12.45.12.47.11.47.09.47.08.49.07.48.06.5.05.5.03.51.02h1.04l.53-.02.54-.03.54-.04.55-.05.55-.07.55-.07.56-.09.56-.09.57-.11.56-.11.57-.12.56-.13.57-.14.56-.14.56-.15.55-.15.55-.16.55-.16.53-.16.53-.17.52-.16.52-.18.51-.17.51-.18.5-.18.49-.18.49-.18.48-.19.47-.18.47-.19.45-.18.45-.19.43-.19.43-.18.42-.19.4-.18.4-.19.38-.18.37-.18.37-.18.35-.18.34-.17.33-.18.32-.17" filter="url(#a)"/><circle cx="6.434" cy="2.362" r="3.462" clip-path="url(#b)" filter="url(#a)"/><circle cx="5.694" cy="3.962" r="3.072" clip-path="url(#b)" filter="url(#a)"/><circle cx="4.254" cy="3.092" r="3.512" clip-path="url(#b)" filter="url(#a)"/><circle cx="4.694" cy="1.257" r="4.83" clip-path="url(#b)" filter="url(#a)"/><circle cx="4.874" cy="5.327" r="4.89" clip-path="url(#b)" filter="url(#a)"/><circle cx="5.559" cy="2.222" r="4.478" clip-path="url(#b)" filter="url(#a)"/><circle cx="7.499" cy="5.327" r="4.61" clip-path="url(#b)" filter="url(#a)"/><circle cx="5.024" cy="1.042" r="4.878" clip-path="url(#b)" filter="url(#a)"/><circle cx="7.244" cy="3.797" r="4.588" clip-path="url(#b)" filter="url(#a)"/><circle cx="5.289" cy="2.542" r="3.912" clip-path="url(#b)" filter="url(#a)"/></g><g fill="none" stroke="#000" transform="translate(-19.35 -23.42)"><path stroke-linejoin="round" stroke-width="2.222" d="m19.85-2.09.18-.15.17-.14.15-.15.13-.16.12-.16.1-.16.07-.16.06-.16.03-.16.01-.16-.01-.16-.04-.16-.07-.16-.09-.15-.12-.15-.14-.15-.17-.14-.2-.14-.22-.13-.26-.13-.27-.12-.31-.12-.33-.11-.35-.11-.38-.1-.3-.16-.33-.15-.39-.14-.42-.13-.48-.11-.51-.1-.55-.1-.6-.08-.63-.06-.66-.06-.7-.04-.73-.04-.76-.02-.79-.01h-.81l-.83.01-.85.02-.86.03-.88.04-.88.05-.9.05-.9.07-.9.07-.91.08-.9.09-.9.09-.89.1-.88.1-.87.11-.85.11-.85.12-.82.13-.81.12-.79.14-.76.13-.75.14-.72.14-.7.14-.67.14-.65.15-.62.15-.59.15-.57.16-.54.15-.52.16-.49.15-.46.16-.44.16-.42.16-.39.16-.38.17-.35.16-.32.17-.3.17-.29.17-.26.18-.23.17-.22.18-.2.18-.17.18-.15.19-.14.18-.12.19-.09.19-.08.19-.06.2-.04.19-.03.2-.01.2.01.2.02.21.03.2.06.21.06.21" filter="url(#a)"/><path stroke-linejoin="round" stroke-width="2.222" d="m21.79-3.18-.17.19-.19.19-.21.19-.23.19-.24.2-.26.19-.27.2-.29.19-.29.2-.32.2-.32.21-.33.2-.35.2-.35.21-.37.21-.37.2-.38.21-.39.21-.4.21-.4.21-.42.21-.42.2-.42.21-.43.21-.44.21-.5.22-.51.22-.51.23-.52.23-.53.22-.53.23-.53.23-.55.22-.54.22-.55.22-.56.21-.56.21-.57.2-.57.19-.57.19-.58.17-.58.17-.58.15-.58.15-.59.13-.59.13-.59.11-.59.1-.6.08-.59.07-.59.06-.6.05-.59.03-.59.02h-1.18l-.59-.03-.58-.03-.58-.05-.58-.06-.57-.07-.57-.08-.56-.1-.55-.1-.55-.12-.54-.12-.54-.13-.53-.15-.52-.14-.51-.16-.5-.16-.49-.16-.49-.17-.47-.17-.46-.18-.45-.17-.45-.18-.44-.19-.43-.18-.42-.19-.41-.19-.4-.2-.39-.19-.39-.2-.37-.19-.37-.2-.35-.2-.35-.2-.33-.19-.33-.2-.31-.19-.31-.19-.3-.19-.28-.19-.28-.19-.26-.19-.26-.18-.25-.18-.24-.18" filter="url(#a)"/><circle cx="-2.553" cy=".218" r="4.876" clip-path="url(#c)" filter="url(#a)"/><circle cx="-3.233" cy=".228" r="4.034" clip-path="url(#c)" filter="url(#a)"/><circle cx="-.103" cy=".488" r="3.156" clip-path="url(#c)" filter="url(#a)"/><circle cx="-4.658" cy="1.228" r="3.04" clip-path="url(#c)" filter="url(#a)"/><circle cx="-1.603" cy="-2.757" r="4.104" clip-path="url(#c)" filter="url(#a)"/><circle cx="-4.723" cy="-.177" r="3.672" clip-path="url(#c)" filter="url(#a)"/><circle cx="-2.383" cy=".568" r="3.5" clip-path="url(#c)" filter="url(#a)"/><circle cx="-3.723" cy="-1.952" r="4.582" clip-path="url(#c)" filter="url(#a)"/><circle cx="-3.158" cy=".118" r="3.426" clip-path="url(#c)" filter="url(#a)"/><circle cx="-3.328" cy="-3.407" r="4.184" clip-path="url(#c)" filter="url(#a)"/></g><g fill="none" stroke="url(#d)" stroke-linejoin="round" stroke-width="2"><path d="M36.58-54.77 10.05-67.43-.68-71.31l-2.71-1.88-2.19-.74-3.41.16-3.56.83-2.37 1.23-.57 1.32 1.29 1.07 2.88.46 4.04-.3 4.5-.98 3.85-1.35 2.02-1.3-.37-.78-1.82.53-.58 2.86 3.94 5.32 7.57 3.19-11.95-17.4" filter="url(#a)"/><path d="m42.88-42.64-18.06-5.78-12.87-6.26-2.19-6.7L11.18-66l.8-1.16-1.67 1.74-4.35 3.14L.8-59l-2.87 2.62 1.19 1.32 3.28-.78.39-3.26-5.81-4.88-8.15-4.58.75-3.62 20.73-5.14" filter="url(#a)"/><path d="m-32.36-61.01 28.47 6-4.04-3.26-2.67-3.68 3.87-1.79 6.82-.33 5.03.21 1.05.34-2.04.48-2.71.67-1.33.73.64.61 1.74.43 1.1.27-1.24-.07-4.41-.95-6.66-2.41-5.59-4.15-.15-5.22-.09-2.62" filter="url(#a)"/><path d="m-7.04-78.29 6.62 2.33 10.93 3.58 6.72 2.21 2.41.79-.54-.09-2.56-.66-3.78-.78-3.84-.3-2.64.59-.77 1.37.65 1.42.68.63-.91-.5-3.56-1.09-6.31-.42-7.6 1.06-4.31 1.33 7.81-1.73 28.66-3.68" filter="url(#a)"/><path d="M3.95-78.61 23.32-54.7l-5.05 1.36-5.51-2.97-1.87-2.85-1.14-2.1-1.93-1.81L5.7-65.1l-1.25-2.38.11-2.31 1.32-1.57 1.94-.3 1.8 1.1 1.23 2.32 1.07 3.1 2.12 3.21 4.01 2.42 5.11 1.03 4.74.71 5.33 3.06 3.35-.06" filter="url(#a)"/><path d="m-29.36-64.35 37.15 4.99 10.31.9 3.38.78.64.03-2-.44-5.47-.51-8.54-.5-9.11-.6-6.01-.63-.28-.39 5.26-.01 7.79-.16 6.41-1.44 1.98-3.43-6.65-4.79-24.19-2.92" filter="url(#a)"/><path d="m26.33-67.69-34.75 4.55-2.44-2.12 3.9-2.38.75-.73-1.49.76-.37 1.6 2.26 1.88 4.13 1.99L2.9-59.9l4.44 2.71 4.5 3.09 4.48 2.83 3.47 1.63 1.65-.17.96-1.51 3.19-1.29 6.43.34 4.99.41-3.36-7.32" filter="url(#a)"/><path d="m-14.57-75.75 27.09 13.07-1.17-.51-3.56-1.72.36-.68 2.74.52 1.69 1-2 .59-6.09-.19-8.29-.69-7.68-.67-4.84-.32-1.13-.07 2.46-.21 5.31-.99 5.96-2.24 1.81-3.11-6.74-2.39-7.13-.82" filter="url(#a)"/><path d="m-36.26-55.21 27.43-3.54 14.97 3.06 2.22 2.4-.98 3.22.4 3.09 1.73 1.19 1.53-1.4.59-3.28.47-3.61 1.76-2.48 3.47-.79 4.02.08 2.68-.92-.59-3.88-6.27-6.97-18.49-9.76" filter="url(#a)"/><path d="M23.13-70.35 3.11-57.59l4.55 4.14-1.05-.6-6.14-2.81-6.6-3.19-4.33-2.57-1.32-1.51 1.17-.26 2.69.94 3.3 1.77 3.08 1.99 1.96 1.5.03.54-2.14-.49-3.63-1.12-3.57-.99-1.85.03.75 1.73 2.9 3.48 3.48 4.14 2.11 2.43-.81-1.93-5.85-5.39-29.21 2.43" filter="url(#a)"/><path d="m-34.36-58.19 22.58-10.83 16.63.36 9.72 3.88 5.02 3.99 3.26 3.47 3.5 3.59 4.05 3.83 3.39 2.89 1.16.26-1.73-2.87-3.82-4.51-4.55-3.96-4.67-2.77-4.19-2.37 2.21 1.99 26.37 23.05" filter="url(#a)"/><path d="m50.07-13.31-.81 1.35.17 1.57.08 1.6-.14 1.52-.24 1.36-.2 1.23-.12 1.14-.07 1.07-.07 1.03-.12.96-.22.95-.34 1.07-.52 1.34-.67 1.7-.47 1.66-47.45-85.23-.28.07-.54-.03-.69-.07-.76-.08-.78-.07-.81-.02-.86.05-.91.1-.92.11-.9.09-.84.07-.77.04-.71.02-.69-.01-.7-.06-.75-.09-.82-.09-.88-.06h-.94l-1.03.11-1.2.36-1.6.88m18.38-1.32-.3-.9-.58-1.85-.77-1.68-.86-1.61-.92-1.85-1-2.07-1.09-1.99-1.17-1.63-1.22-1.24-1.21-1.03-1.16-1.03-1.06-.94-.9-.63-.75-.53-.86-1.42-1.69-3.32" filter="url(#a)"/><path d="m-1.12-78.99-.28.16-.52.1-.69.06-.73.1-.76.16-.78.2-.84.23-.88.25-.89.26-.87.27-.8.29-.72.27-.65.25-.6.24-.61.24-.64.29-.7.35-.74.42-.76.49-.89.66L9.18-85.41l-.65.01-.94.36-1.04.46-1 .52-.9.56-.78.52-.69.43-.62.38-.63.4-.66.47-.7.47-.72.38-.66.35-.49.57-.28.63-12.39 6.28.59-.24.63-.71.63-.66.59-.51.54-.39.53-.33.59-.31.68-.34.77-.39.85-.45.92-.45.92-.39.8-.31.65-.35.69-.44-2.01.56-1.3.21-1.07.31-.87.31-.74.28-.66.24-.6.24-.59.3-.6.36-.66.42-.71.47-.74.51-.78.53-.78.55-.74.54-.7.51-.67.46-.7.47-.8.59-.67.83" filter="url(#a)"/><path d="m-7.04-78.29-1.1.46-.8.47-.64.63-.57.71-.52.65-.53.54-.57.46-.64.47-.67.52-.71.59-.74.63-.73.62-.72.6-.65.58-.58.64-.57.86-.61 1.18-.59 1.02m68.97 52.02.12-.85.44-1.42.62-1.21.41-1.03.12-1.08-.02-1.24-.03-1.37.02-1.38.07-1.34.14-1.31.23-1.33.32-1.35.31-1.34.16-1.24.06-1.21.24-1.6.69-2.54M-8.45-77.79l-.69-.02-.67.03-.63.13-.59.16-.59.21-.64.23-.71.23-.78.21-.84.2-.86.19-.87.19-.84.2-.82.18-.8.12-.83.09-.84.1-.79.18-.66.31-.68.29" filter="url(#a)"/><path d="m4.75-94.63-.95 1.05-.57.89-.63 1.49-.72 1.66-.77 1.45-.77 1.18-.73 1.06-.7 1.07-.68 1.08-.69.99-.7.81-.73.55-.76.29-.81.14-.9.28-.99.79-1.04 1.33-.94.92" filter="url(#a)"/><path d="m8.02-86.8-1.49.05-1.09.44-.9.4-.76.36-.68.33-.66.29-.67.29-.7.32-.71.38-.71.41-.7.43-.69.47-.69.53-.7.64-.72.74-.74.76-.8.65-.88.46-.98.31-.98.28-.78.39-.29.34-3.1 1.1.84-.5.44-.35.48-.47.57-.8.67-1.13.76-1.33.84-1.45.87-1.52.85-1.5.82-1.32.79-.93.79-.43.79.01.75.18.65-.07.57-.76.78-1.18-12.26 13.55.87-.33.51.09.58.22.7.11.79-.07.85-.23.89-.26.89-.19.86-.04.83.14.78.28.74.38.71.39.68.35.66.24.65.12.65.04.64.03.62.11.58.25.52.34.52.37.64.31.84.18m-38.24-18.84 1.7.81 1.32.42 1.47.89 1.58 1.41 1.54 1.65 1.49 1.74 1.46 1.87 1.46 2 1.41 1.92 1.26 1.52 1.08.82.94.06.87-.44.87-.4.95.35 1.19 1.59.66-.81.56-.83.46-.78.45-1.01.52-1.27.64-1.37.76-1.39.86-1.44.9-1.54.89-1.54.84-1.35.81-1.02.82-.8.87-.95.85-1.55.55-2.37" filter="url(#a)"/><path d="m-14.57-75.75.67.03.84.23.82.4.78.64.73.79.72.7.73.41.75.1.79-.12.81-.21.83-.22.82-.19.78-.15.74-.08.7.08.67.26.65.43.63.51.62.48.63.39.64.34.63.39.65.44.66.42-4.17-32.93-.33 2.08-.62 1.56-.8 1.39-.84 1.68-.82 1.9-.86 1.74-.94 1.23-1.01.71-1.04.47-.96.56-.86.79-.74.99-.63 1.08-.55 1.15-.5 1.35-.48 1.68-.47 2.03-.46 2.25-.54 1.91-.88.88 12.95-5.19-.77.27-.7.28-.74.22-.84.19-.93.22-.94.28-.89.32-.8.31-.71.3-.63.28-.6.29-.61.29-.66.31-.72.31-.76.34-.78.43-.79.55-.74.58-2.04 1.01.24-.48-.58.19-.79.33-.78.36-.74.35-.77.31-.8.23-.81.2-.77.22-.7.27-.64.33-.63.38-.68.44-.75.52-.8.58-.8.54-.77.42-.94.49" filter="url(#a)"/><path d="m-17.29-74.27-1.87-1.74-1.14.06-.81.49-.72.56-.81.3-.96-.1-1.09-.48-1.15-.75-1.19-.9-1.2-.92-1.22-.83-1.19-.61-1.11-.24-.96.23-.78.69-.66.99-.7.96-.92.62-1.22.15-1.38-.17-1.27-.17-1.03-.14-1.28-.73 24.66 2.73-1.8-1.59-.85 1.03-.64 1.09-.65.67-.75.35-.82.19-.88.04-.9-.13-.95-.4-1.02-.66-1.12-.85-1.22-.86-1.3-.71-1.32-.52-1.29-.39-1.13-.19-1.05.53-15.23-1.41 1.49 1.13 1.4.12 1.66.59 1.89.9 1.82.75 1.56.28 1.23-.25 1.02-.58.98-.56 1.08-.26 1.23.18 1.35.57 1.4.75 1.37.74 1.27.55 1.12.29.94.02.79-.16.72-.21.78-.02.97.31 1.18.63 1.21.56.91-.09.47-.26.78-.15.81-.26.73-.36.72-.34.78-.2.84-.07.88.01.87.01.83-.03.76-.07.7-.08.65-.05h.62l.63.02.68.02.76.05.88.2 1.04.48 1.14.73 1.02.45" filter="url(#a)"/><path d="m-22.4-70.87-2.68-4.28-.3 1.5-.03 1.91-.25 1.29-.54.72-.79.29-1.04-.13-1.21-.52-1.3-.72-1.27-.65-1.15-.29-1.01.14-.96.42-1.05.35-1.25.01-1.47-.36-1.56-.47-1.41-.16-1.1.28-1 .46-1.87.63" filter="url(#a)"/><path d="m-23.87-69.66.42-.5.69-.79.59-1.19.41-1.64.31-1.92.33-1.97.41-1.78.5-1.54.56-1.42.6-1.47.63-1.66.64-1.83.67-1.88.69-1.83.7-1.75.65-1.84.46-2.15.08-2.53-.24-1.88-10.24 32.5-.36-.7-.77-.21-.74.54-.7.78-.71.71-.72.56-.73.49-.76.49-.81.47-.85.47-.86.47-.84.54-.79.61-.76.68-.74.67-.76.6-.76.51-.74.48-.71.58-.72.74-.82.93-.69 1.22" filter="url(#a)"/><path d="m-24.75-68.93-.69.65-.75.89-.71.86-.66.77-.61.7-.61.66-.62.67-.65.72-.66.75-.65.8-.63.82-.61.85-.58.87-.56.88-.52.86-.47.83-.43.8-.4.81-.43.95-.7 1.43 11.33-16.23-.87 1.15-.64 1.09-.39 1.33-.11 1.72.05 1.92-.02 1.83-.2 1.54-.36 1.24-.41 1.08-.35 1.1-.27 1.22-.24 1.34-.22 1.35-.11 1.09.12.19 4.02-19.19.38-.29.35-.39.48-.55.59-.66.65-.71.67-.73.66-.76.64-.77.64-.79.64-.76.67-.71.7-.64.74-.61.76-.63.79-.67.8-.68.8-.64.78-.55.73-.47.63-.44.53-.45.58-.46 1.24-.7m-41.68 14.57 1.48-.75 2.14.4 2.2.8 1.88.71 1.49.35 1.14-.11.87-.54.76-.76.83-.69 1.01-.35h1.19l1.28.14 1.17-.08.94-.52.7-.92.56-.99.63-.66.92-.02 1.33.76 2.52 4.08" filter="url(#a)"/><path d="m-27.01-67.08.81.05.82-.14.68-.17.68.04.77.19.81.12.79-.06.75-.26.71-.4.66-.49.65-.57.63-.57.65-.5.69-.32.77-.09.83.11.89.18.87.11.83-.05.79-.14.78-.04.73.26.39.75" filter="url(#a)"/><path d="m-41.64-49.68.52-1.11.55-.87.55-.72.55-.69.58-.76.59-.83.6-.86.59-.84.59-.78.6-.71.63-.67.67-.64.69-.65.71-.68.7-.7.7-.73.71-.75.7-.75.69-.72.62-.66.56-.59.59-.62.94-1.07 76.34 48.22-.23.69-.39-.69-.54-1.18-.5-1.22-.45-1.08-.52-.9-.69-.72-.83-.59-.88-.53-.83-.56-.74-.63-.72-.7-.77-.77-.85-.76-.88-.65-.79-.45-.54-.38-.39-.67" filter="url(#a)"/><path d="m-18.82-64.89-.81.1-.81.29-.73.38-.63.37-.57.33-.56.31-.59.33-.65.36-.69.36-.76.28-.81.14-.87-.01-.93-.09-.98-.08-.98.05-.9.26-.78.44-.66.6-.7.86-1.13 1.42-19.43 14.39 1.64-1.58.89-.53.48-.54.38-.77.5-.9.69-.91.85-.9.93-.87.96-.8.98-.65 1.02-.48.99-.37.9-.4.7-.59.51-.84.4-1.02.48-.98.71-.74.94-.45 1-.29.93-.26.96-.06 1.04 1.19.42-.46-.09 2.86-.71.62-.65.64-.41 1.07-.23 1.31-.16 1.29-.18 1.15-.19 1.04-.2 1.01-.19 1.04-.2 1.09-.23 1.12-.27 1.17-.27 1.23-.2 1.3-.09 1.36.03 1.37.09 1.24.09.96.05.45 12.45-31.27-.66.42-.73.52-.64.49-.61.52-.63.61-.67.68-.7.72-.68.73-.67.75-.64.77-.63.78-.61.78-.57.77-.55.73-.53.72-.55.74-.57.85-.64.99-.68 1.12-.67 1.22-.62 1.09.69-.81.53-.45.75-.36.95-.26.99-.26.86-.35.71-.47.6-.54.59-.53.69-.41.83-.22.96-.02.99.09.92-.01.81-.32.85-.71 1.3-.68-14.36 7-.49.69-.65.55-.69.83-.62 1.04-.55 1.13-.49 1.11-.43 1.04-.41.94-.41.84-.44.79-.51.79-.56.85-.58.91-.55.97-.48.99-.42 1.01-.39 1.05-.43 1.11-.5 1.18-.56 1.15-.53.98-.5.95" filter="url(#a)"/><path d="m-42.69-25.24.09-1.92.33-1.35.2-1.08-.02-1.12-.12-1.22-.08-1.3.04-1.26.19-1.11.31-.93.34-.81.31-.79.27-.86.26-.97.29-1.1.29-1.24.17-1.45.03-1.64v-1.55l.12-1.11.03-1.21" filter="url(#a)"/><path d="m-41.34-45.53-.55 1.54-.2 1.48-.13 1.32-.03 1.17.08 1.09.1 1.06.01 1.07-.08 1.15-.05 1.27.14 1.42.42 1.51.56 1.46.46 1.27.18 1.15.11 1.77-2.04-17.97-.1 1.16-.23 1.2-.21.99-.19.85-.19.85-.2.98-.21 1.11-.21 1.18-.21 1.18-.2 1.14-.19 1.12-.17 1.14-.14 1.18-.1 1.24-.06 1.27-.06 1.25-.06 1.21-.09 1.2-.11 1.21-.11 1.25-.11 1.33-.2 1.93" filter="url(#a)"/><path d="m-42.53-43.17.66 2.66.12 1.33-.35.62-.43.56-.4.77-.37.98-.35 1.08-.31 1.08-.28 1.07-.23 1.08-.15 1.13-.01 1.24.16 1.38.35 1.48.51 1.54.57 1.52.52 1.47.39 1.4.22 1.33.04 1.29.14 1.91 5.32-52.85.12 1.34-.5 1.22-.56 1.3-.39 1.38-.25 1.41-.23 1.36-.31 1.25-.4 1.16-.44 1.12-.41 1.15-.32 1.22-.2 1.27-.12 1.28-.11 1.25-.13 1.2-.18 1.18-.24 1.19-.31 1.25-.4 1.27-.44 1.18-.3.95-18.9 15.04h1.14l1.49-.85 1.05-1.09.73-1.17.67-1.15.83-1.05 1.03-.92 1.16-.82 1.12-.77.93-.83.66-.98.46-1.14.4-1.21.54-1.09.77-.79.95-.43.84-.31.4-.66.28-1 3.45 1.22" filter="url(#a)"/><path d="m-43.41-41.02-.9-3.21.65-1.14.93-.79.61-1.09.11-1.58-.33-1.96-.53-2.14-.48-2.03-.26-1.79-.01-1.51.21-1.36.31-1.35.3-1.49.16-1.74-.03-1.99-.17-2.12-.13-1.98.16-1.58.62-1.31.88-2.65-24.18 54.78.7-2.09 1.49-1.25 1.63-.62 1.34-.5 1.09-.64 1.07-.77 1.23-.78 1.41-.73 1.45-.72 1.29-.79.98-.97.62-1.18.34-1.3.25-1.3.28-1.18.38-1.05.48-.99.74-.94 1.32-.7 2.03-.22 1.42.17" filter="url(#a)"/><path d="m-43.97-39.89-.87 2.34-.57 1.46-.38 1.1-.35.97-.36.95-.38 1.01-.4 1.1-.39 1.14-.39 1.15-.37 1.14-.33 1.15-.3 1.15-.29 1.14-.29 1.08-.3.96-.3.8-.27.74-.25.92-.27 1.35-.34 1.73 5.78-18.89.24-1.87-.4-2.19-.45-1.66-.17-1.15.06-.98.07-1.18-.12-1.61-.41-2.11-.65-2.52-.72-2.66-.55-2.49-.24-2.06-.04-1.71-.2-1.89-.5-2.56.58-1.97 2.81 33.29-1.73 1.49-1.75.74-1.11.77-.69.96-.41 1.13-.16 1.27v1.3l.06 1.26-.03 1.14-.21 1.05-.44 1.03-.65 1.08-.8 1.18-.89 1.28-.91 1.34-.88 1.31-.82 1.22-.74 1.04-.67.87-.61.82-.65 1.04-.92 1.38" filter="url(#a)"/><path d="m-47.41-28.03-.36.32-.37.88-.45 1.03-.44 1.08-.37 1.09-.32 1.01-.31.91-.34.84-.38.9-.41 1.05-.43 1.24-.44 1.39-.39 1.46-.3 1.47-.21 1.45-.16 1.21-.1.21-1.29 9.42.09-.83.34-.62.33-1.01.25-1.32.17-1.39.16-1.31.21-1.15.32-1.02.39-.99.43-1.05.39-1.17.3-1.29.22-1.38.16-1.4.13-1.33.13-1.21.14-1.06.18-.97.23-.96.36-.99.52-1.04.61-1.06.54-1.13.32-1.33-3.54-.49-.17 1.31.54 1.68.24 1.47-.24 1.11-.59.81-.81.64-1.01.66-1.23.8-1.4 1.01-1.43 1.21-1.27 1.33-.98 1.48-.52 1.77.36 2.52" filter="url(#a)"/><path d="m-47.75-26.64.22-1.05.36-1 .46-1.14.43-1.15.34-1.1.29-1.06.28-1.06.32-1.08.35-1.07.39-1.02.39-.94.39-.84.42-.77.46-.73.55-.75.64-.77.72-.8.76-.83.74-.86.62-.84.46-.7.46-.65M54-59.39l-.67 2.32-.7 2.01-.24 1.69-.11 1.72-.22 1.89-.39 2.04-.56 2.13-.66 2.11-.66 2.03-.55 1.86-.34 1.68-.06 1.5.26 1.33.5 1.18.61 1.09.47 1.1.13 1.2-.27 1.36-.51 1.46-.52 1.44-.42 1.36-.36 1.16-.18.57.42-34.07.03 2.63.07 1.71.13 1.33.22 1.22.16 1.36-.06 1.62-.27 1.84-.39 1.9-.34 1.8-.19 1.6-.04 1.42.05 1.32.06 1.34.02 1.42-.04 1.5-.05 1.5-.01 1.42.03 1.28.07 1.15.08 1.09.07 1.08.06 1.07.03.94-.11.53.02-.7-.32-1.81.09-1.16v-1.06l-.18-1.04-.29-1.09-.33-1.17-.33-1.25-.3-1.25-.25-1.22-.21-1.18-.16-1.18-.13-1.21-.11-1.26-.13-1.3-.16-1.3-.21-1.27-.26-1.21-.29-1.14-.32-1.08-.38-1.11-.47-1.2-.6-1.41-.7-1.68-.79-1.92" filter="url(#a)"/><path d="m46.38-32.25.59 1.46.99.69 1.43.26 1.65.16 1.71.21 1.6.35 1.32.58.98.86.74 1.09.74 1.17.87 1.13.96 1 .86.94.61.98.43 1.1.5 1.19.85 1.18 1.24 1.18 1.48 1.32 1.56 1.7 1.93 1.87-24.01-23.29.18-.1.33-.99.78-1.8.91-2.1.53-1.84-.05-1.4-.42-1.14-.37-1.22-.05-1.55.3-1.9.44-2.08.31-2.04v-1.84l-.32-1.61-.51-1.41-.52-1.27-.39-1.28-.16-1.52.09-1.91.06-2.01-.81-1.34-1.34 28.94.59.46 1.17.33 1.08.37.88.56.87.75.98.84 1.08.86 1.06.84.89.87.64.95.4 1.04.31 1.1.4 1.1.63 1.05.89 1.01 1.01 1.02.89 1.1.63 1.14.4 1.08.43.95.82.94 1.4 1.08 1.53.53L44.4-38.53l-.23-1.45-.26-1.33-.4-1.11-.43-.97-.39-.92-.39-.98-.42-1.05-.47-1.13-.5-1.15-.48-1.12-.42-1.08-.37-1.03-.35-1.01-.37-.98-.39-.98-.37-.94-.28-.87-.19-.66.01-6.67.58.77.51 1.08.36 1.3.13 1.48.03 1.57.04 1.52.12 1.39.22 1.23.31 1.13.38 1.05.48 1.04.58 1.03.61 1.04.56 1.05.42 1.08.25 1.13.12 1.19.11 1.29.19 1.35.23 1.28-.38-1 .47.94.5.89.5.87.47.87.44.88.45.9.47.97.48 1.07.45 1.14.44 1.15.44 1.08.47.98.5.91.53.86.52.88.46.94.38 1.06.31 1.27.32 1.57.48 1.8.87 1.37" filter="url(#a)"/><path d="m43.55-40.96.34 1.04.27 1.08.17 1.12.13 1.12.13 1.08.17 1.07.23 1.09.27 1.17.31 1.2.3 1.18.28 1.11.23 1.04.17 1.01.1 1 .04 1.03-.02 1.05-.09 1.03-.1 1.04.09 1.37-5.12-25.45.82-3.56.71-3.06.47-2.37.2-1.79-.21-1.23-.59-.76-.82-.49-.86-.47-.76-.61-.61-.84-.46-1.06-.36-1.25-.27-1.41-.18-1.63-.07-1.96.04-2.32.09-2.59.03-2.58-.13-2.2-.3-1.61-.38-1.16-.35-1.48-.37-3.68" filter="url(#a)"/><path d="m40.62-47.48.03-2.1-.47-1.03-.21-1.09.21-1.67.45-2.11.38-2.07.07-1.66-.27-1.23-.43-1.02-.43-1.12-.3-1.32-.21-1.45-.15-1.49-.14-1.57-.15-1.8-.37-2.03-1.02-1.67 2.31 25.07.68 1.39.6 1.27.48 1.03.4.89.39.88.4.92.41.99.41 1.03.39 1.03.37 1.02.35 1 .32.96.3.96.29 1 .32 1.13.37 1.31.39 1.39.27 1.01-.06-.26-8.1-20.76 1 1.46.99 1.18.91.95.94.64 1.11.29 1.26.11 1.22.19 1.04.47.82.74.71.89.73.88.81.78.81.73.71.79.58.95.56 1.17.78 1.28 1.11 1.18 1.21.6.8-.88-20.42-18.52.32.81.46.87.41.97.32 1.04.27 1.07.33 1.09.42 1.07.51 1.04.57.99.55.96.5.94.42.96.36 1 .32 1.05.31 1.09.3 1.1.3 1.09.29 1.04.26 1 .2.93.14.85.12.95.35 1.84m-11.08-56.9.61.69.33 1.62.15 2.24.03 2.76-.13 3.08-.3 3.14-.35 2.99-.21 2.6.15 1.97.62 1.17.99.5.95.41.23 1.34-.9 2.98-.81 2.8" filter="url(#a)"/><path d="m52.17-40.48-.97-1-.64-1.1-.62-1.01-.7-.94-.76-.88-.81-.79-.84-.71-.83-.67-.82-.7-.78-.8-.71-.94-.62-1.07-.52-1.16-.44-1.16-.44-1.05-.52-.89-.62-.72-.7-.6-.76-.48-.87-.28-1.05-.04-1.2.01-1.06-.17 2.31 23.78-.18-1.09.11-1.43.2-1.4.04-1.16-.15-1.06-.2-1.16-.14-1.36-.06-1.49-.07-1.44-.16-1.21-.35-.91-.49-.68-.53-.64-.42-.82-.23-1.09-.04-1.38.06-1.62.09-1.79v-1.7l-.34-.99-2.84-3.63-.1-1.46.16-2.15-.14-1.47-.55-.8-.78-.55-.79-.58-.69-.69-.57-.86-.45-1.16-.32-1.61-.2-2.15-.14-2.56-.15-2.71-.26-2.53-.39-2.13-.5-1.82-.53-1.79-.49-2.1-.4-2.49-.37-2.53-.46-2.06-.81-1.55-1.64-1.83" filter="url(#a)"/><path d="m30.02-63.59.07.01.32.35.54.63.65.79.69.85.67.84.61.79.55.74.51.73.51.75.51.8.5.82.45.8.45.84.63 1.14m-7.66-10.88-.64-3.21-.98-.77-.71-.55-.43-.96-.26-1.45-.16-1.91-.16-2.22-.23-2.29-.34-2.15-.47-1.84-.56-1.53-.62-1.28-.67-1.17-.66-1.22-.64-1.38-.62-1.54-.64-1.6-.72-1.5-.82-1.38-.88-1.34-.85-1.42-.67-1.43-.45-1.45-.61-1.18m.81 18.16.35.99.72 1.08.71.79.67.69.69.7.68.76.64.86.59.96.57 1.08.58 1.17.62 1.15.68 1 .7.79.67.62.57.59.43.74.33.87.38.81.81.86" filter="url(#a)"/><path d="m27.49-66.59-.67-1.27-.53-.73-.49-.88-.5-1.19-.53-1.45-.56-1.45-.61-1.24-.67-.94-.7-.73-.71-.68-.69-.75-.68-.88-.66-1.01-.66-1.13-.68-1.21-.71-1.3-.69-1.4-.63-1.58-.48-1.8-.32-1.98-.22-1.97-.27-1.72-.48-1.44 11.98 27.63-.3-.54-.23-1.17-.3-1.68-.4-1.85-.51-1.69-.59-1.39-.62-1.14-.6-1.11-.56-1.26-.55-1.39-.57-1.31-.63-1.07-.7-.93-.7-1.22-.66-1.92-.65-2.53-.82-2.41-1.12-1.33M7.77-72.29l.85.18.92-.01.83.03.67.14.55.22.51.26.54.29.62.28.7.24.78.12h.83l.86-.1.86-.15.85-.15.85-.11.82-.04.8.05.78.19.79.34.83.48.87.58.85.6.74.52.48.29M10.88-91.59l1.01 1.94.92 1.17.75.6.59.51.46.87.41 1.39.42 1.79.51 1.86.59 1.68.65 1.38.67 1.12.66.96.65.9.64.86.63.81.59.78.56.77.6.8.72.8.63.78" filter="url(#a)"/><path d="m23.13-70.35-.18-3.88-.64-.67-.78.11-.79-.09-.77-.37-.75-.5-.73-.51-.74-.52-.78-.52-.79-.56-.77-.63-.69-.74-.56-.93-.43-1.13-.37-1.32-.42-1.36-.62-1.12-.94-.66-1.14-.43" filter="url(#a)"/><path d="m7.64-75.75.61.06.81.05.87.11.82.16.7.16.61.17.55.16.59.16.65.15.74.16.79.19.81.25.78.34.74.4.72.45.74.44.75.36.7.22.53.14.38.15 17.41-.81-1.5-.27-1.3.08-1.14.17-1.04.1-.97-.13-.91-.38-.9-.42-.91-.22-.95.04-.96.17-.93.06-.87-.25-.8-.58-.77-.77-.8-.66-.88-.26-.97.24-1.04.59-1.08.61-1.05.36-.85.04-.44-.02-3.97-2.36-.52-.52-.27-.67-.31-.96-.42-1.13-.57-1.26-.67-1.4-.72-1.57-.76-1.65-.79-1.57-.83-1.3-.89-.93-.92-.59-.91-.38-.86-.37-.78-.5-.71-.67-.7-.84-.74-1.01-.82-1.32-.9-1.71-.89-1.67-.58-.76" filter="url(#a)"/><path d="m13.91-76.14-.57-.18-.33-.28-.35-.55-.46-.7-.61-.69-.73-.57-.82-.38-.85-.23-.87-.17-.87-.22-.89-.34-.88-.46-.85-.56-.77-.63-.66-.72-.56-.8-.61-.75-.96-.14 12.64 8.37 1.21.46.97.2 1-.28.99-.52.96-.5.99-.47 1.06-.58 1.13-.78 1.17-.84 1.15-.63 1.08-.23 1.02.17.99.36.97.33.94.19.87.15.76.25.75.38.89.43 1.33.55 2.29.35-23.11 1.06.04-4.72-.48-1.08-.84.29-.96.35-.95.01-.91-.29-.88-.5-.87-.65-.87-.78-.86-.88-.81-.93-.77-.99-.71-1.07-.68-1.17-.67-1.17-.71-1.07-.76-.83-.78-.56-.77-.37-.69-.36-.69-.69-1.04-1.32 15.72 18.35.68-.45.64-.63.83-.46.97-.36 1-.2.96-.07.92-.05.94-.19.98-.34 1-.36.96-.26.9-.13.89-.16 1.06-.42 1.27-.57 1.04-.15-17.11 4 .82 1.42.51 1.16.42.65.44.33.48.36.56.55.64.65.72.6.76.43.76.29.71.31.66.51.59.77.54.93.49.89.47.72.51.86.81 1.4L9.25-77.82l-.73-.13-.73-.3-.81-.41-.88-.37-.87-.3-.8-.24-.72-.21-.66-.19-.62-.19-.62-.19-.66-.23-.67-.28-.69-.3-.67-.29-.66-.21-.67-.11-.76-.09-.87-.2-.96-.34 28.08 20.37-.59-.91-.79-.81-.78-.73-.65-.87-.51-1.05-.46-1.12-.48-1.07-.53-.93-.6-.76-.65-.61-.7-.47-.75-.37-.77-.33-.75-.34-.68-.45-.58-.58-.48-.72-.44-.84-.48-.84-.62-.72-.81-.48-.94-.31-.88-.43-13.29-6.9.98.29.9.65.78.41.69.26.66.31.68.42.7.49.68.53.65.52.61.5.61.44.64.35.71.25.8.21.89.21.93.23.83.27.55.56" filter="url(#a)"/><path d="m22.34-90.69-.54.06-1.19 1.06-1.32.92-1.27.71-1.16.7-1 .67-.82.45-.67.07-.62-.22-.68-.21-.84.14-1.02.78-1.13 1.54-1.12 2.19-.97 2.16-.76 1.33.57.37.66.22.77.24.82.33.78.4.68.43.58.43.49.39.49.35.56.34.66.38.77.51.83.65.86.75.69.58" filter="url(#a)"/><path d="m7.23-78.34.8-1.59.83-1.01.82.19.91.14.94-.4.89-.63.75-.36.63.14.6.5.67.55.79.34.92-.02 1.03-.35 1.09-.6 1.14-.79 1.2-.96 1.27-1.15 1.32-1.29 1.29-1.2 1.22-.82 1.14-.27 1.26-.01 1.61-.4 2.38-1.46" filter="url(#a)"/><path d="m5.43-78.44 1.35-.02 1.05-.99 1.02-1.59 1-1.11.9-.19.78.47.7.64.67.4.69-.03.81-.52.96-.98 1.14-1.39 1.31-1.71 1.42-1.92 1.46-1.98 1.45-1.83 1.41-1.52 1.35-1.09 1.24-.58 1-.08h.75l1.05-1.6L5.43-78.44l-.4-3.89-.76-.03-.69-.16-.6-1.09-.57-1.78-.61-1.93-.68-1.56-.73-.98-.75-.59-.77-.59-.78-1-.82-1.49-.88-1.71-.91-1.48-.87-1.08-.83-1.25-1.04-2.51" filter="url(#a)"/><path d="m5.43-78.44-.53-1.98-.74-.32-.66-.52-.59-.91-.59-1.3-.64-1.64-.7-1.83-.73-1.77-.76-1.51-.77-1.14-.77-.72-.8-.36-.83-.1-.88-.07-.95-.26-1.05-.64-1.18-1.04L-9-95.82l-1.31-1.29-1.27-1.22-1.25-1.29-1.28-1.7-.98-2.61M2.67-78.84v.33l-.46.52-.61.68-.67.75-.67.7-.64.61-.62.61-.59.73-.59.91-.59 1.1-.59 1.27-.58 1.43-.6 1.49-.68 1.36-.81 1.06-.87.84-.75.82L3.08-78.81l.11.36.6.76.73 1.25.75 1.49.77 1.32.76.93.75.58.75.39.75.37.72.46.62.71.46 1.02.3 1.22.21 1.04.24.53.42.61" filter="url(#a)"/><path d="M1.18-79.02.8-81.71.06-84.7l-.74-1.37-.69-.22-.7.13-.76-.1-.85-.69-.95-1.37-1.04-1.89-1.13-2.05-1.17-1.72-1.16-1.01-1.09-.26-1.02.14-.96.01-.93-.51-.93-1.08-.97-1.33-1.08-1.23-1.23-.96-1.36-.8L1.24-78.94l.48-9.99.66-1.24.61.87.62 1.45.71 1.11.85.37.97-.3 1.05-.76 1.12-1.13 1.17-1.51 1.23-1.81 1.26-1.91 1.24-1.71 1.15-1.36 1.02-1.09.92-1.05.84-1.09.88-.93 1.23-.79 2.21-1.72" filter="url(#a)"/></g><g fill="none" stroke="#000"><circle cx="5.858" cy="7.264" r="2.614" filter="url(#a)"/><circle cx="8.642" cy="7.088" r="1.898" filter="url(#a)"/><circle cx="8.678" cy="8.728" r="1.422" filter="url(#a)"/><circle cx="7.234" cy="5.916" r="1.722" filter="url(#a)"/><circle cx="8.102" cy="7.38" r="1.592" filter="url(#a)"/><circle cx="7.418" cy="8.304" r="1.282" filter="url(#a)"/><circle cx="8.086" cy="6.68" r="2.216" filter="url(#a)"/><circle cx="6.094" cy="7.652" r="2.786" filter="url(#a)"/><circle cx="7.41" cy="6.448" r="1.444" filter="url(#a)"/><circle cx="7.414" cy="7.58" r="1.574" filter="url(#a)"/><circle cx="-9.234" cy="15.318" r="2.05" filter="url(#a)"/><circle cx="-9.282" cy="15.262" r="2.768" filter="url(#a)"/><circle cx="-7.022" cy="15.714" r="2.644" filter="url(#a)"/><circle cx="-5.454" cy="12.21" r="1.396" filter="url(#a)"/><circle cx="-6.97" cy="14.37" r="1.978" filter="url(#a)"/><circle cx="-8.586" cy="14.67" r="1.194" filter="url(#a)"/><circle cx="-8.094" cy="15.122" r="2.804" filter="url(#a)"/><circle cx="-6.998" cy="12.99" r="2.216" filter="url(#a)"/><circle cx="-5.682" cy="12.322" r="1.09" filter="url(#a)"/><circle cx="-9.138" cy="13.77" r="1.654" filter="url(#a)"/></g><path fill="#69CC66" stroke="#000" stroke-linejoin="round" stroke-width="3" d="m20.73 35.58.2.77.15.78.02.24-.04.36.05.23.03-.56-.01.82.06.56-.1.37-.04.03.02.67-.2.61-.04.44.07-.53-.31 1.04.08-.11-.2.58.01.01-.17.26-.63 1.32.29-.43-.39.75-.36.54.34-.6-.47.75-.64.82-.02.02.27-.3-1.13 1.28.24-.26.04-.08-.23.28-1.02.98-.07.03-.46.4-.4.27-.37.25-.16.14.08-.06-.13.08-.98.58-.61.33-.77.36.06-.03-.16.06.2-.07-.43.18-1.52.55.11-.03-.97.28.12-.03-.12.03-.93.21-.08.01-1.29.2-.21.01-.63.06-.38.01h.33l-1.34.01.72.02-1.25-.01-.54-.04h.62l-1.56-.13-.38-.07.41.05-.49-.05-.93-.26-.5-.07.28.05L.7 50.2l.29.06-.57-.24.11.04-.28-.1-.73-.3.11.04-.31-.19-.94-.56.31.27-1.35-.88-.09-.09.33.19-1.11-.92.42.38-.38-.32-.15-.29-.25-.16-.16-.29-.62-.84.23.37-.53-.65-.11-.21-.17-.42-.01-.13-.18-.08-.31-1.08.12.64-.17-.42-.08-.57-.14-.56-.15-.66v-.36h-.05v.1l.05-.37v-1.36l-.11.57.16-.73-.1-.2.23-.84.08-.66-.13.65v-.12l.35-1.15.3-.68.09-.14.03-.12.33-.57.31-.64-.23.41.38-.65-.12.2.27-.43.38-.53-.09.18.27-.41 1-1.09v-.07l-.04.06.74-.66.43-.42.05-.02-.25.23 1.28-.99.28-.22-.16.13 1.22-.74-.11.06.75-.4-.91.47.95-.49.83-.39.34-.14.47-.19.76-.26-.68.23.98-.32.67-.19.74-.19.14-.02-.66.15.44-.11.36-.07 1.26-.2.58-.06.07-.02 1.03-.03-.4.01 1.1-.01h.66l.58.09-.87-.09.12.02 1.61.17-.06-.03.48.11.26.06.33.04.28.07.95.31.2.03.79.25-.19-.01.1.06.54.19.98.53-.02.02.18.05.67.49.23.14.53.47.22.15-.1-.05.29.24.23.26.19.17.65.7-.44-.51.71.91.1.21-.01-.1.51 1-.19-.38.41.81-.06-.31.4 1.05-.09-.3" filter="url(#a)"/></svg>