<svg xmlns="http://www.w3.org/2000/svg" width="500" height="500" viewBox="-100 -100 200 200"><defs><clipPath id="c"><path d="m29.97-4.47-.08-.24-.12-.23-.15-.23-.18-.22-.22-.23-.25-.21-.29-.22-.32-.21-.35-.2-.38-.21-.41-.19-.44-.2-.47-.19-.51-.18-.53-.18-.5-.21-.55-.21-.59-.2-.64-.19-.67-.19-.72-.19-.76-.18-.79-.17-.83-.16-.87-.16-.89-.15-.93-.14-.96-.13-.98-.13-1.01-.11-1.04-.11-1.05-.09-1.07-.08-1.08-.08-1.1-.06-1.11-.05-1.11-.04-1.13-.02-1.12-.02H1.51l-1.12.02-1.12.04-1.12.04-1.1.05-1.09.07-1.08.08-1.06.09-1.05.1-1.03.12-1.01.12-.99.14-.97.14-.94.16-.92.17-.9.17-.87.19-.84.19-.81.2-.79.21-.76.22-.73.22-.7.23-.68.24-.65.24-.62.25-.59.25-.58.26-.54.27-.52.28-.49.28-.47.28-.44.3-.42.29-.39.31-.36.31-.34.31-.31.32-.29.33-.17 3.48.3.38.32.39.34.38.35.38.38.39.39.38.42.38.43.37.45.38.47.36.49.37.51.36.52.36.54.34.56.35.58.34.6.34.62.33.63.33.66.31.67.31.7.3.7.29.73.27.74.26.76.25.76.23.79.21.79.2.81.17.82.16.83.14.84.12.85.1.86.08.87.05.87.04.88.01.88-.02.89-.03.89-.06.9-.08.9-.1.9-.12.9-.15.9-.16.91-.19.9-.21.9-.23.9-.24.89-.27.9-.28.88-.3.89-.31.88-.32.87-.34.86-.36.86-.36.85-.37.85-.38.83-.38.82-.39.81-.39.8-.4.69-.33.67-.33.66-.33.65-.34.63-.34.62-.33.61-.34.59-.34.57-.34.55-.33.54-.33.51-.33.49-.32.47-.32.44-.32"/></clipPath><clipPath id="b"><path d="m-26.52-5.04-.11-.27-.07-.26-.03-.26.01-.24.04-.25.09-.23.11-.23.16-.22.19-.21.22-.21.26-.2.29-.19.33-.19.36-.17.39-.17.35-.22.41-.21.44-.2.49-.19.54-.17.58-.17.61-.15.66-.14.7-.13.74-.12.77-.1.81-.09.84-.08.88-.07.9-.06.92-.04.96-.03.97-.02 1-.01h1.01l1.03.02 1.04.03 1.05.04 1.06.05 1.07.06 1.07.07 1.07.09 1.07.09 1.06.11 1.06.11 1.06.13 1.04.13L4-9.46l1.02.15.99.17.98.17.96.18.94.19.91.2.88.2.86.22.83.22.8.23.78.24.74.24.71.25.67.26.64.26.61.27.58.27.54.28.52.29.48.29.45.3.41.31.38.32.35.32.32.33.28.33.25.35.21.35.18.35.15.36.11.37 2.04 1.4-.24.36-.26.36-.28.36-.3.35-.32.36-.34.36-.36.36-.37.35-.4.36-.41.35-.43.35-.44.34-.45.34-.48.34-.48.33-.51.33-.52.33-.54.32-.55.32-.56.31-.58.3-.58.29-.6.28-.6.28-.61.26-.62.24-.62.23-.63.22-.63.2-.63.18-.63.17-.64.14-.64.13-.64.11-.65.09-.64.06-.64.05-.65.02h-.65l-.65-.02-.65-.05-.66-.06-.65-.09-.66-.11-.67-.14-.67-.15-.68-.18-.68-.19-.69-.22-.7-.24-.71-.26-.72-.27-.73-.29-.74-.31-.75-.33-.77-.34-.78-.35-.79-.37-.81-.38-.82-.38-.83-.4-.85-.4-.87-.41-.87-.42-.66-.33-.66-.35-.66-.35-.65-.35-.66-.35-.65-.36-.64-.36-.64-.36-.63-.36-.62-.36-.61-.36-.6-.36-.58-.35-.57-.35-.55-.35"/></clipPath><filter id="a"><feTurbulence baseFrequency=".05" numOctaves="3" result="noise" type="noise"/><feDisplacementMap in="SourceGraphic" in2="noise" scale="2"/></filter></defs><rect width="100%" height="100%" x="-100" y="-100" fill="#F2A6D2"/><path fill="#20DF70" stroke="#000" stroke-linejoin="round" stroke-width="1.667" d="m79.74-.19-.06 3.34.06-.69.25 3.04-.43 1.3.34-.19-.07 1.64-.29 2.15-.33 2.3.06-.78-.31 1.49-.3 2.54-.02-.3-.76 4.95.04-.7-.14 1.54-.53 2.71-.01-.16-.7 1.62-.39 2.27-.14 1.07.07-.03-1.04 2.29-1.29 3.69.4-1.09.32.02-1.15 2.89-.87 1.84.04.64-.54.42-.56 1.34-.8 1.96-.99 2 .19.07-.82 1.64-.38.38-1.06 1.93-1.15 1.84-.3 1.04-.72 1.17L64 55.31l-.43.41-.16.48-.34.26-2.05 2.64-.15.56-1.16 1.84-.42.34-1.37 1.69-.13.05-.78.62-1.44 2.21-.37.14-1.1.92-1.34 1.48v-.03l-2.69 2.8-.06-.2-.87 1.16-1.02.71-2.17 1.97.21-.13-.74.65-.75.68-1.55 1.01-1.09.51-1.56 1.27-.52.21-.93.62L37 81.36l-.52.24-1.06 1.03-.91.11-1.16.64-2.27 1.39-.86.51-.86.26-1.29.34-1.41.71-.67.43-2.35.97-.42-.05-2.2.72.47.07-2.55.59-.36.02-2.21.53.25-.03-2.83.84-1.25.22-1.25-.01-.28.07-.76.43-1.57.23-2.57.04-1.03.22.05-.12.67.16-4.53-.04-.41.12-.96.09-3-.03 1.01.06-1.78-.28.35-.03-2.07.07-2.76-.42 1.74.27-4.38-.46-.29-.26-.89-.14-.26-.22-1.21.07-3.95-.74.33-.27-.13.28-2.96-1-.64-.27-1.23-.54-.11.15-.88-.38-2.02-.81.05.03-2.3-.83-.65-.28-3.61-1.64-1.24-.36-.83-.82-.92-.59-.86-.36-.86-.65-1.42-.54-1.71-.98.39.1-.21-.43-1.31-.43-2.41-2.03.68.35-2.63-1.86-1.52-1.19-.23-.23-1.81-1.48-1.12-.7.21.27-2.61-2.62.58.47.16-.11-2.97-2.97-.79-.67-.21-.24-.51-.6-1.32-1.67-.51-.72-2.5-2.94 2.12 2.48-2.83-3.28-.65-1.14-.9-1.12-.68-1.06-1.04-1.35-.57-1.22v.23l-1.83-3.22-.23-.59-.17.15-2.11-4.44-.41-.43-.11-.04-1.14-2.92-.18-.69-.24-.14-.25-.96-.85-2.07-.57-.94-.35-1.36-.1.65-1.16-3.16-.33-2.25-.72-2.19.09.71-.93-3.99-.62-.59.16-.08-.35-2.55-.12.87-.6-3.17.31.8-.56-2.36.09.77-.4-2.66-.41-2.74.15.42-.69-5.25.31 1.36-.67-4.67-.01.15.11-1.2-.12-2.34-.1.22.17-2.76-.32.07.16-.21.31-5.57-.27 2.12.28-3.36-.28 1.17.55-3.22-.25-.5.42-2.94-.13-.21.54-1.61.35-3.79-.28.28.36-1.68.67-1.82-.09-.11-.22.75.72-3.48.23-.98.53-1.38.07-.5 1.56-5.18-.3.13.36-1.39.1.31.5-2.07.35-1.02 1.16-1.71.42-1.21.25-.75.85-2.45.8-1.32.5-1.34.09-.52 1.75-2.77.3-.83.92-2-.35 1.12.9-1.59.39-.92 1.39-2.08.4-.47.69-1.41.96-1.35-.14.29 1.12-1.38 2.16-2.76.31-.92-.24.35.85-.93.97-1.22 1.45-1.6 1.91-1.83-.48.15 1.13-1.28 1.39-1.33.12.18 2.43-2.62-.28.43 1.17-1.15.86-.7 2.13-1.73.2-.41 2.7-1.51-1.7.78 3.49-2.49.58-.1.65-.64 1.1-.71-.98.72 3.78-2.25-.17.03 2.54-1.31-1.24.38 2.9-1.44.86-.34.37-.21 2.61-1.06 1.07-.5 1.93-1.06.36-.06.42-.09 2.26-.82-.45.21 2.75-.66 2.14-.83 1.88-.14-.12.01.89-.51.41-.1 2.15-.18 1.12-.21-1.16.23 3.6-.68 1.26-.26.61-.05 1.65.01 1.48-.1 1.05-.13-.12-.1 3.02.07 2.83.21-.32-.01.6.05 1.97.1 1.68.06.09.17h1.85l1.76.18.41.25 1.99.2.62.18 1.13.37 2.41.37 1.16.43.71.2-.48-.16L22-88.26l.05-.24 1.15.46 2.24.78.93.47.18-.13 1.59.82.34.2 2.36.96 2.29 1.04 1.44 1.01.71.12-1.15-.42 2.76 1.75.05-.23 1.59 1.24.87.47.12.24 3.76 2.31-1.88-1.13 2.65 1.82 1.05.94-.05-.04h-.18l3.67 2.53.62.9 1.08.96-.59-1.01 2.25 2.12 1.93 2.51v-.34l.8 1.09.58.53.72.8.54.79 1.97 2.3.42.27 1.98 2.54h-.25l1.69 1.85-.16.15 2.21 3.02-.86-.77 1.56 1.97-.47-.11 1.77 2.24-.95-1.13 1.64 2.69 1.94 3.14-.53-1.34.76 1.89.61 1.67.78 1.24.42 1.45.81 1.2.79 2.02.57 1.42.57 1.46-.11-.4.76 2.88.97 2.01-.54-.87.46.5.61 2.68.1.74.98 3.25.22 1.24.4 2.24.11.08.23.53.11 1.99.71 2.7.03-.64-.07.27.25 2.93.37 2.41.18 1.8.32 1.84-.09.24-.01 2.76.26.01-.18 1.15.07 2.55-.14.69-.06 3.34" filter="url(#a)"/><path fill="#fff" d="m-26.52-5.04-.11-.27-.07-.26-.03-.26.01-.24.04-.25.09-.23.11-.23.16-.22.19-.21.22-.21.26-.2.29-.19.33-.19.36-.17.39-.17.35-.22.41-.21.44-.2.49-.19.54-.17.58-.17.61-.15.66-.14.7-.13.74-.12.77-.1.81-.09.84-.08.88-.07.9-.06.92-.04.96-.03.97-.02 1-.01h1.01l1.03.02 1.04.03 1.05.04 1.06.05 1.07.06 1.07.07 1.07.09 1.07.09 1.06.11 1.06.11 1.06.13 1.04.13L4-9.46l1.02.15.99.17.98.17.96.18.94.19.91.2.88.2.86.22.83.22.8.23.78.24.74.24.71.25.67.26.64.26.61.27.58.27.54.28.52.29.48.29.45.3.41.31.38.32.35.32.32.33.28.33.25.35.21.35.18.35.15.36.11.37 2.04 1.4-.24.36-.26.36-.28.36-.3.35-.32.36-.34.36-.36.36-.37.35-.4.36-.41.35-.43.35-.44.34-.45.34-.48.34-.48.33-.51.33-.52.33-.54.32-.55.32-.56.31-.58.3-.58.29-.6.28-.6.28-.61.26-.62.24-.62.23-.63.22-.63.2-.63.18-.63.17-.64.14-.64.13-.64.11-.65.09-.64.06-.64.05-.65.02h-.65l-.65-.02-.65-.05-.66-.06-.65-.09-.66-.11-.67-.14-.67-.15-.68-.18-.68-.19-.69-.22-.7-.24-.71-.26-.72-.27-.73-.29-.74-.31-.75-.33-.77-.34-.78-.35-.79-.37-.81-.38-.82-.38-.83-.4-.85-.4-.87-.41-.87-.42-.66-.33-.66-.35-.66-.35-.65-.35-.66-.35-.65-.36-.64-.36-.64-.36-.63-.36-.62-.36-.61-.36-.6-.36-.58-.35-.57-.35-.55-.35" filter="url(#a)" transform="translate(43.74 -25.05)"/><path fill="#fff" d="m29.97-4.47-.08-.24-.12-.23-.15-.23-.18-.22-.22-.23-.25-.21-.29-.22-.32-.21-.35-.2-.38-.21-.41-.19-.44-.2-.47-.19-.51-.18-.53-.18-.5-.21-.55-.21-.59-.2-.64-.19-.67-.19-.72-.19-.76-.18-.79-.17-.83-.16-.87-.16-.89-.15-.93-.14-.96-.13-.98-.13-1.01-.11-1.04-.11-1.05-.09-1.07-.08-1.08-.08-1.1-.06-1.11-.05-1.11-.04-1.13-.02-1.12-.02H1.51l-1.12.02-1.12.04-1.12.04-1.1.05-1.09.07-1.08.08-1.06.09-1.05.1-1.03.12-1.01.12-.99.14-.97.14-.94.16-.92.17-.9.17-.87.19-.84.19-.81.2-.79.21-.76.22-.73.22-.7.23-.68.24-.65.24-.62.25-.59.25-.58.26-.54.27-.52.28-.49.28-.47.28-.44.3-.42.29-.39.31-.36.31-.34.31-.31.32-.29.33-.17 3.48.3.38.32.39.34.38.35.38.38.39.39.38.42.38.43.37.45.38.47.36.49.37.51.36.52.36.54.34.56.35.58.34.6.34.62.33.63.33.66.31.67.31.7.3.7.29.73.27.74.26.76.25.76.23.79.21.79.2.81.17.82.16.83.14.84.12.85.1.86.08.87.05.87.04.88.01.88-.02.89-.03.89-.06.9-.08.9-.1.9-.12.9-.15.9-.16.91-.19.9-.21.9-.23.9-.24.89-.27.9-.28.88-.3.89-.31.88-.32.87-.34.86-.36.86-.36.85-.37.85-.38.83-.38.82-.39.81-.39.8-.4.69-.33.67-.33.66-.33.65-.34.63-.34.62-.33.61-.34.59-.34.57-.34.55-.33.54-.33.51-.33.49-.32.47-.32.44-.32" filter="url(#a)" transform="translate(-30.87 -23.71)"/><g fill="none" stroke="#000" transform="translate(43.74 -25.05)"><path stroke-linejoin="round" stroke-width="1.667" d="m-23.18-2.1-.52-.31-.48-.31-.44-.31-.39-.3-.35-.3-.32-.29-.27-.29-.23-.28-.19-.28-.15-.27-.11-.27-.07-.26-.03-.26.01-.24.04-.25.09-.23.11-.23.16-.22.19-.21.22-.21.26-.2.29-.19.33-.19.36-.17.39-.17.35-.22.41-.21.44-.2.49-.19.54-.17.58-.17.61-.15.66-.14.7-.13.74-.12.77-.1.81-.09.84-.08.88-.07.9-.06.92-.04.96-.03.97-.02 1-.01h1.01l1.03.02 1.04.03 1.05.04 1.06.05 1.07.06 1.07.07 1.07.09 1.07.09 1.06.11 1.06.11 1.06.13 1.04.13L4-9.46l1.02.15.99.17.98.17.96.18.94.19.91.2.88.2.86.22.83.22.8.23.78.24.74.24.71.25.67.26.64.26.61.27.58.27.54.28.52.29.48.29.45.3.41.31.38.32.35.32.32.33.28.33.25.35.21.35.18.35.15.36.11.37.08.38.04.38.02.38-.02.4-.06.4-.08.4-.12.41-.14.41-.18.42-.2.43" filter="url(#a)"/><path stroke-linejoin="round" stroke-width="2.222" d="m-27.14-4.43.2.27.25.28.29.29.34.3.38.31.41.32.44.32.48.33.5.34.52.35.55.35.57.35.58.35.6.36.61.36.62.36.63.36.64.36.64.36.65.36.66.35.65.35.66.35.66.35.66.33.87.42.87.41.85.4.83.4.82.38.81.38.79.37.78.35.77.34.75.33.74.31.73.29.72.27.71.26.7.24.69.22.68.19.68.18.67.15.67.14.66.11.65.09.66.06.65.05.65.02h.65l.65-.02.64-.05.64-.06.65-.09.64-.11.64-.13.64-.14.63-.17.63-.18.63-.2.63-.22.62-.23.62-.24.61-.26.6-.28.6-.28.58-.29.58-.3.56-.31.55-.32.54-.32.52-.33.51-.33.48-.33.48-.34.45-.34.44-.34.43-.35.41-.35.4-.36.37-.35.36-.36.34-.36.32-.36.3-.35.28-.36.26-.36.24-.36.21-.35.19-.36.17-.35.15-.35.13-.35.1-.34.08-.34.06-.34.03-.34.02-.33" filter="url(#a)"/><circle cx="2.529" cy="-6.499" r="4.154" clip-path="url(#b)" filter="url(#a)"/><circle cx="-1.076" cy="-4.259" r="4.284" clip-path="url(#b)" filter="url(#a)"/><circle cx="1.504" cy="-7.734" r="4.198" clip-path="url(#b)" filter="url(#a)"/><circle cx="2.559" cy="-6.454" r="3.598" clip-path="url(#b)" filter="url(#a)"/><circle cx="-1.281" cy="-5.854" r="3.002" clip-path="url(#b)" filter="url(#a)"/><circle cx="-2.126" cy="-8.564" r="4.832" clip-path="url(#b)" filter="url(#a)"/><circle cx="2.119" cy="-6.854" r="4.19" clip-path="url(#b)" filter="url(#a)"/><circle cx="-.786" cy="-5.429" r="4.792" clip-path="url(#b)" filter="url(#a)"/><circle cx=".814" cy="-8.369" r="3.782" clip-path="url(#b)" filter="url(#a)"/><circle cx="2.759" cy="-6.059" r="4.866" clip-path="url(#b)" filter="url(#a)"/></g><g fill="none" stroke="#000" transform="translate(-30.87 -23.71)"><path stroke-linejoin="round" stroke-width="2.222" d="m28.81-1.92.27-.27.25-.27.2-.26.17-.26.13-.26.1-.25.06-.25.03-.25-.01-.24-.04-.24-.08-.24-.12-.23-.15-.23-.18-.22-.22-.23-.25-.21-.29-.22-.32-.21-.35-.2-.38-.21-.41-.19-.44-.2-.47-.19-.51-.18-.53-.18-.5-.21-.55-.21-.59-.2-.64-.19-.67-.19-.72-.19-.76-.18-.79-.17-.83-.16-.87-.16-.89-.15-.93-.14-.96-.13-.98-.13-1.01-.11-1.04-.11-1.05-.09-1.07-.08-1.08-.08-1.1-.06-1.11-.05-1.11-.04-1.13-.02-1.12-.02H1.51l-1.12.02-1.12.04-1.12.04-1.1.05-1.09.07-1.08.08-1.06.09-1.05.1-1.03.12-1.01.12-.99.14-.97.14-.94.16-.92.17-.9.17-.87.19-.84.19-.81.2-.79.21-.76.22-.73.22-.7.23-.68.24-.65.24-.62.25-.59.25-.58.26-.54.27-.52.28-.49.28-.47.28-.44.3-.42.29-.39.31-.36.31-.34.31-.31.32-.29.33-.27.32-.24.34-.21.33-.19.35-.17.34-.15.35-.12.35-.1.36-.08.36-.06.36" filter="url(#a)"/><path stroke-linejoin="round" stroke-width="2.222" d="m30.68-3.38-.11.21-.15.23-.19.25-.23.25-.27.27-.3.27-.33.29-.36.29-.39.3-.42.31-.44.32-.47.32-.49.32-.51.33-.54.33-.55.33-.57.34-.59.34-.61.34-.62.33-.63.34-.65.34-.66.33-.67.33-.69.33-.8.4-.81.39-.82.39-.83.38-.85.38-.85.37-.86.36-.86.36-.87.34-.88.32-.89.31-.88.3-.9.28-.89.27-.9.24-.9.23-.9.21-.91.19-.9.16-.9.15-.9.12-.9.1-.9.08-.89.06-.89.03-.88.02-.88-.01-.87-.04-.87-.05-.86-.08-.85-.1-.84-.12-.83-.14-.82-.16-.81-.17-.79-.2-.79-.21-.76-.23-.76-.25-.74-.26-.73-.27-.7-.29-.7-.3-.67-.31-.66-.31-.63-.33-.62-.33-.6-.34-.58-.34-.56-.35-.54-.34-.52-.36-.51-.36-.49-.37-.47-.36-.45-.38-.43-.37-.42-.38-.39-.38-.38-.39-.35-.38-.34-.38-.32-.39-.3-.38-.27-.39-.26-.38-.24-.38-.22-.38-.2-.38-.18-.37-.16-.38-.14-.37-.13-.37-.11-.37" filter="url(#a)"/><circle cx="-23.131" cy="-.248" r="3.128" clip-path="url(#c)" filter="url(#a)"/><circle cx="-22.401" cy="-2.028" r="3.436" clip-path="url(#c)" filter="url(#a)"/><circle cx="-24.506" cy="1.752" r="4.08" clip-path="url(#c)" filter="url(#a)"/><circle cx="-24.881" cy="-.648" r="3.022" clip-path="url(#c)" filter="url(#a)"/><circle cx="-25.561" cy="-1.223" r="4.198" clip-path="url(#c)" filter="url(#a)"/><circle cx="-23.366" cy="-2.453" r="3.752" clip-path="url(#c)" filter="url(#a)"/><circle cx="-25.066" cy="-2.578" r="3.874" clip-path="url(#c)" filter="url(#a)"/><circle cx="-23.441" cy="1.147" r="4.88" clip-path="url(#c)" filter="url(#a)"/><circle cx="-25.076" cy="-1.078" r="4.364" clip-path="url(#c)" filter="url(#a)"/><circle cx="-23.546" cy="-2.198" r="4.058" clip-path="url(#c)" filter="url(#a)"/></g><g fill="none" stroke="#431386" stroke-linejoin="round" stroke-width="2"><path d="m19.69-101.74-2.27.87-1.68.9-1.44.74-1.36.32-1.3-.2-1.27-.48-1.26-.38-1.28-.01-1.27.36-1.27.55-1.26.62-1.28.71-1.36.89-1.46 1.04-1.45.99-1.29.81-1.07.9-1.17 1.32m-3.52.3-2.79-5.39-1.43-3.18-1.02-.35-1.01.35-1.03.32-1.03.47-1.09.74-1.21.85-1.35.7-1.45.43-1.47.14-1.46-.08-1.48-.28-1.58-.56-1.77-.91-2.01-1.3-2.21-1.6-2.31-1.72-2.29-1.58-2.12-1.22-1.87-.72-1.59-.24-1.49-.24-1.82-2.37" filter="url(#a)"/><path d="m-31.6-87.03 1.04-.24 1.52-.4 1.47-.4 1.28-.38 1.11-.36 1.05-.35 1.08-.34 1.2-.31 1.34-.29 1.44-.25 1.39-.22 1.23-.17.99-.14.82-.17.93-.17 1.58.39-2.15.18 1.56-.39 1-.78.97-1.44 1.1-1.85 1.2-1.83 1.25-1.58 1.26-1.3 1.29-1.02 1.34-.74 1.41-.54 1.46-.44 1.49-.48 1.47-.61 1.43-.78 1.4-.89 1.39-.86 1.39-.67 1.4-.3 1.42.05 1.44.12 1.49-.27 1.55-1.08 1.39-1.73-32.28 20.01h-1.95l-2-.19-1.66.04-1.32.28-1.15.29-1.14.14-1.23-.03-1.35-.07-1.41.02-1.42.21-1.37.4-1.3.49-1.25.46-1.27.32-1.32.14-1.46.03-1.66-.03-1.8-.28-1.16-1.57 27.22-.65-1.91.25-1.85.38-1.58.36-1.32.3-1.15.27-1.09.3-1.12.36-1.18.41-1.28.41-1.33.39-1.35.34-1.32.32-1.27.34-1.21.42-1.16.51-1.14.59-1.13.62-1.09.55-1.01.36-.9.19-.79.15-.65.22" filter="url(#a)"/><path d="m-19.48-89.08-1.86.02-1.33-.54-1.29-.73-1.41-1.01-1.61-1.25-1.77-1.26-1.88-1.09-1.93-.93-1.98-.96-2.05-1.12-2.07-1.26-2.05-1.2-1.97-.93-1.92-.58-1.89-.35-1.83-.34-1.7-.56-1.6-.89-1.62-.83 28.42 17.23-.1-2.2.49-1.54.75-1.67 1.05-1.38 1.35-.78 1.49-.33 1.41-.26 1.2-.52 1.01-.88.89-1.14.88-1.21.95-1.13 1.04-1.08 1.17-1.2 1.26-1.52 1.32-1.87 1.33-2.03 1.4-1.99 1.55-2.45-22.37 26.24-1.47.29-1.51.29-1.41.2-1.43-.06-1.48-.28-1.47-.27-1.4-.05-1.29.2-1.23.33-1.22.3-1.23.21-1.28.13-1.31.15-1.37.2-1.44.23-1.52.21-1.63.17-1.72.16-1.75.15-1.66.2-1.47.31-1.41.55-2.44.99 33.07-4.11-1.87.6-1.3.39-1.27.19-1.27.14-1.21.26-1.13.48-1.06.67-1 .75-.98.69-.99.57-1.04.46-1.1.42-1.14.46-1.16.53-1.16.63-1.18.72-1.2.77-1.21.77-1.19.71-1.11.63-1.11.73-1.83 1.37 22.67-11.33-1.64.96-.89.75-.94.74-1.03.74-1.01.73-.9.72-.84.7-.83.69-.9.68-.96.69-1.01.71-1.02.75-1.04.81-1.06.9-1.05.95-.96.92-.68.72-.11.2" filter="url(#a)"/><path d="m-70.78-83.16 2.45-.28 1.64-.06 1.87.23 2.13.46 2.33.73 2.41.89 2.28.77 2.01.43 1.77.04 1.57-.28 1.45-.47 1.37-.53 1.35-.4 1.5-.08 1.79.41 1.92.83 1.35.56m-51.25 21.78 3.15.25 2.27-.9 2.09-.65 2.19-.15h2.12l1.87-.18 1.6-.44 1.42-.64 1.33-.74 1.27-.76 1.26-.76 1.27-.74 1.3-.72 1.34-.67 1.32-.64 1.27-.61 1.2-.64 1.19-.68 1.24-.76 1.21-.92.87-1.31.19-1.98.29-1.78 5.64 4.6 19.72-3.84-.87.06-1.24.19-1.2-.2-1.13-.25-1.05.04-1.01.35-1.03.51-1.11.5-1.19.43-1.24.41-1.23.45-1.19.51-1.15.56-1.1.58-1.08.6-1.09.6-1.13.54-1.17.44-1.08.4-.91.58-1.47.83" filter="url(#a)"/><path d="m-57.34-64.06 1.12-1.75.32-2.07-.02-2.07.21-1.72.59-1.3.89-.99 1.03-.81 1.07-.78 1.05-.86.99-1.05.88-1.29.78-1.51.7-1.65.65-1.73.62-1.78.62-1.77.6-1.64.49-1.35.18-.95-.55-.22m-16.27 32.77 1.15-2.21-.04-1.85-.37-1.82-.38-2.09-.32-2.39-.13-2.43.13-2.18.39-1.85.55-1.61.61-1.53.55-1.68.32-2.05-.01-2.57-.27-3.04-.27-3.2.07-3.03.36-3.05.3-3.69 1.37-3.47m-4.99 46.83-.88 1.17-.91.97-.96.91-.95.9-.86.87-.74.81-.66.8-.65.87-.73.99-.82 1.11-.88 1.17-.9 1.17-.93 1.17-.99 1.34-1.04 1.86m3.31 1.82-1.12.51-2.13.39-2.32.44-1.89.61-1.08.88-.36 1.2-.15 1.4-.48 1.46-1.1 1.4-1.7 1.29-2.05 1.16-2.13 1.07-1.95 1-1.68.93-1.48.89-1.57.86-1.99.87-2.5.98-2.61 1.33-2.16 1.99-1.88 2.33" filter="url(#a)"/><path d="m-72.21-38.81.43-1.18.59-1.48.63-1.44.62-1.36.64-1.32.65-1.28.62-1.18.58-1.09.56-.99.56-.97.59-.98.63-1.03.65-1.05.67-1.04.67-1.02.7-1.02.77-1.06.86-1.16.88-1.24.66-1 .09-.21M75.2-80.6l-.89 2.98.78 1.76.66 1.7.24 1.98-.16 2.24-.5 2.41-.76 2.48-.89 2.45-.88 2.34-.71 2.19-.45 2.03-.09 1.85.28 1.63.65 1.37.89 1.15.9 1.11.63 1.31.07 1.7-.62 2.11-2.54 3.14-3.38-7.45-.46.04-1.02-1.18-.86-1.29-.66-1.12-.55-.98-.52-.92-.57-.91-.63-.92-.72-.94-.83-.93-.93-.93-1.01-.92-1.06-.95-1.08-.98-1.04-1.01-.97-1-.88-.94-.76-.83-.67-.73-.66-.65-.83-.67-1.35-1.36" filter="url(#a)"/><path d="m60.59-59.83.39-1.52-.27-1.92-.49-1.91-.24-2.1v-2.19l.03-2.03-.16-1.73-.49-1.35-.84-1.06-1.08-.88-1.15-.9-1.1-1.03-.98-1.24-.86-1.45-.73-1.64-.59-1.83-.4-2.06-.22-2.3-.1-2.53-.08-2.7-.14-2.86-.23-2.98-.32-2.7-.62-1.47 8.52 41.57 1.12.44.86 1.17.73 1.21.7 1.16.71 1.1.68 1.04.67.96.64.89.65.87.66.89.7.97.74 1.05.78 1.12.79 1.14.76 1.14.7 1.15.66 1.22.65 1.28.67 1.27.82 1.16" filter="url(#a)"/><path d="m55.93-65.73-1.08-.15-1.54.5-1.57.4-1.32-.2-1.14-.61-1.09-.69-1.07-.64-1.02-.68-.99-.77-1.01-.8-1.05-.61-1.1-.32-1.06-.16-.98-.25-.86-.08-.21 1.33 49.53 3.65-2.88-.71-2.1.08-2.02.18-2.03.14-1.85-.1-1.5-.51-1.2-.89-1.05-1.1-1.15-1.05-1.47-.79-1.83-.48-2.05-.28-1.99-.33-1.68-.56-1.25-.83-.98-.9-1.07-.6-1.58.02-2.3.7-2.79.98-2.46.7-.9.71-6.19-5.29.72.55.69.36 1 .57 1.19.73 1.2.78 1.15.78 1.11.76 1.1.77 1.08.78 1.06.74 1 .7.97.69.96.72.98.82 1 .97 1.04 1.11 1.04 1.18 1.05 1.12 1.08.93 1.03.7.69.27m-38.82-26.1 1.69-3.46 1.31-.46 1.33.57 1.6.45 1.68.17 1.48.2 1.16.41.94.59.91.59 1.01.44 1.16.29 1.28.2 1.39.13 1.48.07 1.57-.06 1.65-.19 1.73-.31 1.55-.23.33.51" filter="url(#a)"/><path d="m23.2-88.04-.87-.56-.92-.76-.95-.71-.94-.58-1-.43-1.1-.34-1.19-.3-1.24-.34-1.22-.39-1.21-.42-1.2-.37-1.21-.28-1.23-.19-1.22-.17-1.21-.23-1.2-.33-1.09-.38-.77-.29-.11-.02L22-88.26l-1.5-2.77-.71-1.65-.99-.05-1.23.17-1.26-.5-1.16-1.37-1.06-2.02-1.03-2.27-1.05-2.19-1.12-1.92-1.19-1.66-1.24-1.61-1.25-1.79-1.23-2.05-1.21-2.17-1.23-2.08-1.48-1.95-2.18-1.76-3.28-.64 10.54 26.9.65.02 1.19-.2 1.29-.24 1.25-.05 1.2.19 1.22.31 1.23.29 1.25.17 1.22.04 1.18-.03 1.14-.01 1.14.06 1.16.12 1.22.16 1.24.18 1.22.21 1.11.26 1 .27.95.13.86-.3-24.4-1.64-1.4-.12-1-.3-1.15-.54-1.37-.69-1.43-.7-1.38-.58-1.3-.32-1.26-.04-1.25.17-1.27.28-1.27.28-1.27.19-1.22.05-1.17-.1-1.12-.25-1.06-.33-1-.33-.96-.28-1.05-.24-1.44-.25-2.07-.11" filter="url(#a)"/></g><g fill="none" stroke="#000"><circle cx="8.9" cy="32.642" r="1.728" filter="url(#a)"/><circle cx="9.348" cy="33.118" r="1.12" filter="url(#a)"/><circle cx="11.92" cy="35.722" r="2.89" filter="url(#a)"/><circle cx="10.1" cy="35.41" r="1.97" filter="url(#a)"/><circle cx="11.92" cy="33.258" r="2.772" filter="url(#a)"/><circle cx="10.36" cy="35.662" r="2.442" filter="url(#a)"/><circle cx="8.876" cy="34.754" r="1.008" filter="url(#a)"/><circle cx="11.276" cy="35.622" r="1.88" filter="url(#a)"/><circle cx="9.848" cy="36.082" r="2.602" filter="url(#a)"/><circle cx="11.492" cy="35.698" r="2.89" filter="url(#a)"/><circle cx="-10.208" cy="35.256" r="2.148" filter="url(#a)"/><circle cx="-11.092" cy="35.964" r="1.57" filter="url(#a)"/><circle cx="-10.252" cy="36.324" r="2.95" filter="url(#a)"/><circle cx="-10.284" cy="35.776" r="2.156" filter="url(#a)"/><circle cx="-11.164" cy="37.408" r="2.196" filter="url(#a)"/><circle cx="-12.68" cy="34.876" r="1.664" filter="url(#a)"/><circle cx="-12.844" cy="34.136" r="1.134" filter="url(#a)"/><circle cx="-10.648" cy="35.792" r="2.866" filter="url(#a)"/><circle cx="-10.568" cy="35.208" r="2.954" filter="url(#a)"/><circle cx="-11.48" cy="34.416" r="2.226" filter="url(#a)"/></g><path fill="#66CC91" stroke="#000" stroke-linejoin="round" stroke-width="3" d="m32.33 72.63-.18.97.01-.38h-.13l-.64 1.2.54-.6-.49.35-.32.36-.79.77.17.04.08-.08-.07.1-1.87.91-.76.19.51-.02-1.12.33-.58.2.39-.2-2.24.76-.89.15.95-.2-.71.17h-.16l-3.55.66.87-.11-2.01.27-1.7.15h-.07l-1.05.14h-.58l.11.02-.48.01-3.39.18-.2.03-2.35.02h1.1l-1.39.03H6.5h.28L4.56 79l-2.14-.09v.01l-1.55-.08-.58-.04.34.02-2.61-.16.57.03-4.02-.32.23.02-1.42-.14-.86-.09-3.82-.47 1.24.16.46.06-3.68-.5 1.53.22-2.41-.35-3.88-.65-.77-.14.99.19-.91-.19-3.97-.81-.27-.04-2.14-.49 1.58.34-2.27-.51-2.57-.69.7.17-.63-.13.14.01-3.74-1.11-.2-.03-.38-.17-.07.04-3.29-1.18 1.48.51-.93-.32-1.84-.73-1.72-.82-.56-.31-.25-.12-.16-.11.2.17-1.53-.94-.05-.01-1.59-.99.87.53-1.83-1.2.93.54-.36-.14-.44-.43-.6-.73-.82-.96.47.8-.56-.74.14-.1-.21-.9.03.08-.17-1-.06.66-.02-.7.05-.3.41-.64.29-.37.39-.26-.49.41.98-.85-.51.4.42-.44 1.3-.79-.03-.02-.03.07.69-.29-.09-.03 2.02-.75.65-.19 1.14-.21-.52.09 1.26-.35-.53.08 1.24-.26-.09.05 2.41-.41 1.19-.23-.46.15.99-.18 2.62-.23-.98.07 2.22-.19v-.01l1.95-.12 1.21-.03 1.38-.05 1.32-.05.28-.01 1.7.02h-.59l.99-.01 1.26.03 1.19.02 2.32.08-1.08-.04 3.86.18h.21l1.83.14-.47-.04.6.05 3.57.3-1.88-.17 5.2.54.97.12 1.46.19-1.11-.15 2.22.3 2.92.45-.65-.11h-.1l2 .32 3.08.56-.93-.18 1.97.37 1.34.29-.5-.08 3.46.74 1.57.42-2.05-.54 2.42.59 1.09.33 2.16.63-1.12-.34.44.11 1.9.57.27.1 2.77.96 1.39.52.41.13-1.27-.49 1.14.49 1.41.54 1.47.65-.55-.21.45.14 2.34 1.35.25.12-.44-.21.63.26-.08.09.53.33.72.54.71.55.87.95-.59-.52.7.85-.39-.51.64.85.43.73-.22-.39.34 1.21-.36-.02" filter="url(#a)"/></svg>