<svg xmlns="http://www.w3.org/2000/svg" width="500" height="500" viewBox="-100 -100 200 200"><defs><clipPath id="c"><path d="m40.98-.17-.29-.13-.32-.12-.36-.11-.39-.12-.43-.11-.46-.11-.51-.11-.55-.1-.58-.1-.63-.1-.67-.1-.71-.1-.75-.09-.78-.09-.83-.09-.66-.09-.75-.09-.81-.08-.9-.09-.97-.09-1.04-.09-1.11-.09-1.17-.08-1.24-.09-1.3-.09-1.35-.08-1.4-.09-1.45-.08-1.48-.08-1.53-.08-1.55-.07-1.58-.08-1.61-.07-1.62-.06-1.63-.06-1.64-.06-1.64-.06-1.65-.05-1.63-.04-1.63-.04-1.61-.04-1.6-.03-1.57-.03-1.55-.02-1.52-.02-1.49-.01-1.46-.01h-1.42l-1.38.01h-1.34l-1.31.02-1.26.01-1.21.03-1.17.02-1.13.03-1.08.04-1.04.04-.99.04-.95.04-.9.05-.87.05-.82.06-.79.05-.75.06-.72.06-.68.06-.65.06-.62.06-.58.07-.55.06-.52.07-.49.07-.46.07-.43.08-.41.07-.37.07-.36.08-.32.07-.31.08.58 1.84.42.07.45.07.46.08.49.08.52.08.53.08.56.08.58.09.61.08.64.09.66.1.69.09.72.09.75.1.77.1.8.1.84.11.86.11.9.1.94.11.97.12 1.01.11 1.04.12 1.08.12 1.12.12 1.15.12 1.19.12 1.22.12 1.26.12 1.29.12 1.33.12 1.35.12 1.38.12 1.41.11 1.43.12 1.46.11 1.47.1 1.49.11 1.5.09 1.51.1 1.52.08 1.52.08 1.52.08 1.52.06 1.51.06 1.49.05 1.48.04 1.47.03 1.44.02 1.41.01 1.38-.01 1.35-.01 1.31-.02 1.26-.04 1.22-.05 1.17-.07 1.12-.07 1.07-.09 1.01-.1.95-.11.88-.13.83-.14.76-.15.69-.16.82-.09.78-.1.74-.1.72-.11.68-.11.64-.12.62-.12.57-.13.55-.12.51-.13.49-.14.45-.13.42-.13.38-.14.37-.13"/></clipPath><clipPath id="b"><path d="m-39.98 0 .29-.19.33-.18.36-.18.4-.16.43-.16.47-.15.52-.15.55-.13.59-.13.63-.13.67-.12.71-.12.75-.1.8-.11.83-.1.67-.1.74-.09.83-.09.9-.09.97-.08 1.04-.08 1.11-.08 1.18-.08 1.23-.07 1.3-.08 1.35-.07 1.39-.06 1.44-.07 1.49-.06 1.51-.06 1.55-.05 1.58-.05 1.59-.05 1.61-.05 1.62-.04 1.63-.04 1.64-.04 1.63-.03 1.62-.03 1.61-.03 1.6-.02 1.58-.02 1.56-.01 1.54-.02h1.5l1.48-.01h2.84l1.37.01 1.32.01 1.29.01 1.24.01 1.19.02 1.15.02 1.11.03 1.06.02 1.02.03.97.03.92.03.89.04.84.04.8.04.76.04.73.04.69.04.66.04.62.05.59.04.55.05.52.05.49.05.46.05.43.05.4.05.37.05.34.06.32.05.29.05.26.06-.82 1.49-.46.08-.49.08-.5.08-.53.09-.55.08-.58.1-.59.09-.63.09-.64.1-.68.11-.69.1-.73.11-.75.11-.78.11-.81.12-.83.12-.87.12-.9.13-.93.13-.96.13-.99.13-1.03.14-1.07.14-1.1.14-1.13.15-1.17.15-1.2.14-1.23.15-1.27.15-1.29.15-1.33.15-1.35.15-1.37.15-1.4.14-1.42.15-1.44.14-1.46.13-1.47.13-1.47.13-1.49.11-1.49.12-1.49.1-1.48.1-1.49.08-1.47.08-1.45.06-1.44.06-1.42.04-1.4.03-1.36.02h-1.34l-1.3-.01-1.26-.03-1.22-.04-1.17-.06-1.12-.07-1.08-.09-1.02-.11-.96-.12-.9-.14-.85-.15-.78-.17-.73-.19-.66-.2-.77-.11-.74-.12-.72-.13-.68-.13-.64-.14-.62-.14-.58-.15-.55-.15-.52-.16-.48-.16-.46-.17-.43-.16-.39-.17-.37-.16-.34-.17"/></clipPath><filter id="a"><feTurbulence baseFrequency=".05" numOctaves="3" result="noise" type="noise"/><feDisplacementMap in="SourceGraphic" in2="noise" scale="2"/></filter></defs><rect width="100%" height="100%" x="-100" y="-100" fill="#F2A6F0"/><path fill="#20DF25" stroke="#000" stroke-linejoin="round" stroke-width="1.667" d="m87.91 1.39-.2.81-.15 1.57.34-1.49-.54 5.2.33.13-.23-1.11-.19 4.49.06-.46-.35 3.18H87l-.3.56-.49 3.81-.3.93-.56 3.01.03.45-.32.31-.33 2.36-.1.47-1.03 2.54-.52 2.9.19-.93-.48.83-.83 2.53-.5 1.8-.46 1.16-.16.62-.78 1.52-.48.93-.55 1.05-1.66 3.79 1.06-1.8-2.46 4.64-.46.63 1.01-1.74-1.61 3.42.01.35-1.95 2.26-.19.59-1.5 2.15-.23.58-.02-.42-1.08 2.15-1.44 1.88-.87 1.08-1.46 1.77.37-.11-1.14 1.21-1.61 1.73-.15.32-1.03 1.16-3.01 2.83.12-.13.53-.05-1.78 1.54-2.2 2.05-1.2.68.37.14-.48.4-2.5 1.87-.05.26-2.5 1.81-.22.04-.76.63-2.95 1.78-.28.54-1.18.84-.92.35-1.58.76v.4L39.63 84l-1.12.62-.26.18-2.44 1.5-1.55.26-1.08.55 1.37-.42-3.35 1.43-.08.01-2.3 1.14-1 .17-1 .32-3.56 1.38-1.19.24.34-.14-1.7.32-.19.08-1.38.64-2.75.48-2.78.21 1.8-.13-3.3.59-.9.34-1.91.12 1.04-.37-3.46.31-1.52.31-3.5.15.48-.21-1.22.44-1.48-.24-1.22-.12-1.57-.09-.98.04-.44-.11-2.59.11h-.65l-1.08-.12-2.61-.63-1.58.13-1.87-.55.46.24-2.55-.47.07-.37-3.13-.72-.48-.1-1.72-.16-.54-.28-3.69-.96 1.59.13-.78.08-2.57-.87-.81-.39-2.36-1.2.52.39-1.86-.84-2.77-1.27-1.75-.8-.46-.21.77.32-2.12-1.01-1.63-.84-2.36-1.49 1.16.71-3.91-2.25-.99-.81-.65-.46-.57-.37-1.34-.78-1.88-1.61-1.59-1.06-.2-.26-1.41-1.28.75.84-1.53-1.93-2.17-1.47-2.5-2.31 1.22 1.11-1.8-2.16-.54.08-1.76-2.09 1.13 1.19-2.3-2.51-.94-1.58-.77-.37-1.41-1.58-1.55-1.95.49.2-.04-.18-2.1-2.71-1.33-2.08-.18.3-.54-1.67-1.94-3 .05-.08-.58-.35-1.96-3.32 1.73 2.76-1.27-2.23-.45-.59-1.05-2.01-1-2.93-1.71-3.06.41.03-.58-.3-.77-2.16-.3-.43-.72-2.87-.72-2.36v.75l-.75-3.43.01-.29-.44-1.07-.14-.98-.37-1.43-1.01-2.77.03-1.32-.07.43-.53-2.25.02-.99-.33-1.28-.03-1.98-.46-3.17-.39-1.77-.19-1.06.29-.45-.35-1.73.11-1.07-.04-1.09-.09-1.65-.17-1.56.18-1.28.26-1.12-.11-1.63-.02-2.1.17-.22.12-2.93.4-1.85-.33-.31.54-2.47-.03-.53.21-1.7.59-2.08.08-1.3.38-2.08-.12.02.92-1.77.04-1.44.35-1 .03-1 .98-2.24-.11-.8 1.29-2.49.43-1.57-.01-.04.6-2.6 1.09-1.85-.13.48 1.42-3.59-.23.28 1.03-1.99.47-.94 1.03-2.24.87-.92-.91.9 2.4-3.89-.04.04.34-.65 1.35-2.13.51-1.27 1.41-1.46.39-1.24 2.32-2.68-.18.19-.2-.28.59-.3 1.3-1.47 2.33-2.53-1.3 1.29 1.52-1.77 1.93-2.24 1.76-2.23.82-.09.94-1.2.19-.34 2.65-2.54-.15.64.07-.39 1.16-1.12 2.63-1.84-.59.48 2.66-2.4-1.06.88 3.67-2.35-.69.49 2.1-1.59.58-.28 3.2-1.99.78-.44.68-.5 2.07-1.06-1.5.6 2.02-.76 2.7-1.63.17.07 1.5-.74 2.35-1.23.53-.12 1.96-.82.39-.09 1.56-.43 2.27-.81.64-.04-.62.12 2.77-.8 1.11-.25 1.98-.25.49-.29-.5.14 4.99-1.1-1.01.34.48-.28 1.31-.23 4.33-.34.95-.07.37-.39.07.3 3.09-.54-.05.19 4.11.06 1.68-.35 1.13.11.48.28.01-.09 2.65.04 2.4.07-2.78.12 4.21.24.26-.1 2.78.71.98-.23.98.26 3.76.95-1.61-.51 2.84.56-.47-.16 1.74.51 2.19 1.01 1.52.22 2.26.89.92.13.13.1 1.79.68 1.36.57 1.79.64.98.67 2.36 1.06.45.09 1.29.72 1.85 1.01.53.22.18-.08 2.77 1.84.19.17 1.21.36-.26.29 1.66.94 2.59 1.88.7.15-.01.63 3.1 2-.75-.57 3.14 2.5.29.26 1.87 1.69.09.15.99.87.13-.12 2.35 2.53.73.7-.1-.14.72.73 1.3 1.89 1.04 1.37.55-.03 1.91 2.1.85 1.54 1.03.84.52 1.53 1.82 2.42.2.29.38.76.9 1.03.71 1.11.34.31 1.72 3.09.17.38 1.2 2.21.55.93.07.68.81 1.52.73 1.15 1.67 3.68-1.19-2.34 1.38 2.61.43 1.1.13.83 1.14 3.18.38 1.64.87 2.89-.34-1 .47 1.25 1.03 2.89.1 1.12-.19-.87.55 1.94.63 3.38.02-.03.31 1.33.22 1.45.67 4.14-.21-1.82.59 3.25-.4 1.01.58 1.54-.02 2.27.06-1.29.1 2.99.05.07-.23 4.45.31 1.44-.2.81" filter="url(#a)"/><path fill="#fff" d="m-39.98 0 .29-.19.33-.18.36-.18.4-.16.43-.16.47-.15.52-.15.55-.13.59-.13.63-.13.67-.12.71-.12.75-.1.8-.11.83-.1.67-.1.74-.09.83-.09.9-.09.97-.08 1.04-.08 1.11-.08 1.18-.08 1.23-.07 1.3-.08 1.35-.07 1.39-.06 1.44-.07 1.49-.06 1.51-.06 1.55-.05 1.58-.05 1.59-.05 1.61-.05 1.62-.04 1.63-.04 1.64-.04 1.63-.03 1.62-.03 1.61-.03 1.6-.02 1.58-.02 1.56-.01 1.54-.02h1.5l1.48-.01h2.84l1.37.01 1.32.01 1.29.01 1.24.01 1.19.02 1.15.02 1.11.03 1.06.02 1.02.03.97.03.92.03.89.04.84.04.8.04.76.04.73.04.69.04.66.04.62.05.59.04.55.05.52.05.49.05.46.05.43.05.4.05.37.05.34.06.32.05.29.05.26.06-.82 1.49-.46.08-.49.08-.5.08-.53.09-.55.08-.58.1-.59.09-.63.09-.64.1-.68.11-.69.1-.73.11-.75.11-.78.11-.81.12-.83.12-.87.12-.9.13-.93.13-.96.13-.99.13-1.03.14-1.07.14-1.1.14-1.13.15-1.17.15-1.2.14-1.23.15-1.27.15-1.29.15-1.33.15-1.35.15-1.37.15-1.4.14-1.42.15-1.44.14-1.46.13-1.47.13-1.47.13-1.49.11-1.49.12-1.49.1-1.48.1-1.49.08-1.47.08-1.45.06-1.44.06-1.42.04-1.4.03-1.36.02h-1.34l-1.3-.01-1.26-.03-1.22-.04-1.17-.06-1.12-.07-1.08-.09-1.02-.11-.96-.12-.9-.14-.85-.15-.78-.17-.73-.19-.66-.2-.77-.11-.74-.12-.72-.13-.68-.13-.64-.14-.62-.14-.58-.15-.55-.15-.52-.16-.48-.16-.46-.17-.43-.16-.39-.17-.37-.16-.34-.17" filter="url(#a)" transform="translate(57.14 -24.5)"/><path fill="#fff" d="m40.98-.17-.29-.13-.32-.12-.36-.11-.39-.12-.43-.11-.46-.11-.51-.11-.55-.1-.58-.1-.63-.1-.67-.1-.71-.1-.75-.09-.78-.09-.83-.09-.66-.09-.75-.09-.81-.08-.9-.09-.97-.09-1.04-.09-1.11-.09-1.17-.08-1.24-.09-1.3-.09-1.35-.08-1.4-.09-1.45-.08-1.48-.08-1.53-.08-1.55-.07-1.58-.08-1.61-.07-1.62-.06-1.63-.06-1.64-.06-1.64-.06-1.65-.05-1.63-.04-1.63-.04-1.61-.04-1.6-.03-1.57-.03-1.55-.02-1.52-.02-1.49-.01-1.46-.01h-1.42l-1.38.01h-1.34l-1.31.02-1.26.01-1.21.03-1.17.02-1.13.03-1.08.04-1.04.04-.99.04-.95.04-.9.05-.87.05-.82.06-.79.05-.75.06-.72.06-.68.06-.65.06-.62.06-.58.07-.55.06-.52.07-.49.07-.46.07-.43.08-.41.07-.37.07-.36.08-.32.07-.31.08.58 1.84.42.07.45.07.46.08.49.08.52.08.53.08.56.08.58.09.61.08.64.09.66.1.69.09.72.09.75.1.77.1.8.1.84.11.86.11.9.1.94.11.97.12 1.01.11 1.04.12 1.08.12 1.12.12 1.15.12 1.19.12 1.22.12 1.26.12 1.29.12 1.33.12 1.35.12 1.38.12 1.41.11 1.43.12 1.46.11 1.47.1 1.49.11 1.5.09 1.51.1 1.52.08 1.52.08 1.52.08 1.52.06 1.51.06 1.49.05 1.48.04 1.47.03 1.44.02 1.41.01 1.38-.01 1.35-.01 1.31-.02 1.26-.04 1.22-.05 1.17-.07 1.12-.07 1.07-.09 1.01-.1.95-.11.88-.13.83-.14.76-.15.69-.16.82-.09.78-.1.74-.1.72-.11.68-.11.64-.12.62-.12.57-.13.55-.12.51-.13.49-.14.45-.13.42-.13.38-.14.37-.13" filter="url(#a)" transform="translate(-48.16 -30.92)"/><g fill="none" stroke="#000" transform="translate(57.14 -24.5)"><path stroke-linejoin="round" stroke-width="1.667" d="m-41.5 2.52.08-.31.08-.3.1-.28.11-.27.13-.25.15-.24.18-.24.2-.22.23-.21.26-.2.29-.19.33-.18.36-.18.4-.16.43-.16.47-.15.52-.15.55-.13.59-.13.63-.13.67-.12.71-.12.75-.1.8-.11.83-.1.67-.1.74-.09.83-.09.9-.09.97-.08 1.04-.08 1.11-.08 1.18-.08 1.23-.07 1.3-.08 1.35-.07 1.39-.06 1.44-.07 1.49-.06 1.51-.06 1.55-.05 1.58-.05 1.59-.05 1.61-.05 1.62-.04 1.63-.04 1.64-.04 1.63-.03 1.62-.03 1.61-.03 1.6-.02 1.58-.02 1.56-.01 1.54-.02h1.5l1.48-.01h2.84l1.37.01 1.32.01 1.29.01 1.24.01 1.19.02 1.15.02 1.11.03 1.06.02 1.02.03.97.03.92.03.89.04.84.04.8.04.76.04.73.04.69.04.66.04.62.05.59.04.55.05.52.05.49.05.46.05.43.05.4.05.37.05.34.06.32.05.29.05.26.06.25.05.22.06.2.05.18.06.15.06.14.05.13.06.1.05.09.06.07.05" filter="url(#a)"/><path stroke-linejoin="round" stroke-width="2.222" d="m-42.56-.5.18.1.18.11.18.12.2.13.22.14.23.14.25.16.27.15.29.17.32.16.34.17.37.16.39.17.43.16.46.17.48.16.52.16.55.15.58.15.62.14.64.14.68.13.72.13.74.12.77.11.66.2.73.19.78.17.85.15.9.14.96.12 1.02.11 1.08.09 1.12.07 1.17.06 1.22.04 1.26.03 1.3.01h1.34l1.36-.02 1.4-.03 1.42-.04 1.44-.06 1.45-.06 1.47-.08 1.49-.08 1.48-.1 1.49-.1 1.49-.12 1.49-.11 1.47-.13 1.47-.13 1.46-.13 1.44-.14L5.68 3l1.4-.14 1.37-.15 1.35-.15 1.33-.15 1.29-.15 1.27-.15 1.23-.15 1.2-.14 1.17-.15 1.13-.15 1.1-.14 1.07-.14 1.03-.14.99-.13.96-.13.93-.13.9-.13.87-.12.83-.12.81-.12.78-.11.75-.11.73-.11.69-.1.68-.11.64-.1.63-.09.59-.09.58-.1.55-.08.53-.09.5-.08.49-.08.46-.08.45-.07.43-.07.4-.07.39-.07.37-.07.36-.06.34-.06.32-.06.31-.06.3-.05" filter="url(#a)"/><circle cx="-19.057" cy="-.859" r="4.776" clip-path="url(#b)" filter="url(#a)"/><circle cx="-19.972" cy="2.296" r="3.364" clip-path="url(#b)" filter="url(#a)"/><circle cx="-22.132" cy="-1.579" r="3.354" clip-path="url(#b)" filter="url(#a)"/><circle cx="-21.122" cy="-.909" r="3.09" clip-path="url(#b)" filter="url(#a)"/><circle cx="-22.337" cy="-1.284" r="3.68" clip-path="url(#b)" filter="url(#a)"/><circle cx="-22.987" cy="-2.209" r="3.418" clip-path="url(#b)" filter="url(#a)"/><circle cx="-22.882" cy="-.884" r="3.77" clip-path="url(#b)" filter="url(#a)"/><circle cx="-23.407" cy="2.166" r="4.342" clip-path="url(#b)" filter="url(#a)"/><circle cx="-19.247" cy="-.094" r="4.746" clip-path="url(#b)" filter="url(#a)"/><circle cx="-20.257" cy="1.536" r="4.36" clip-path="url(#b)" filter="url(#a)"/></g><g fill="none" stroke="#000" transform="translate(-48.16 -30.92)"><path stroke-linejoin="round" stroke-width="2.222" d="m42.45 1.33-.08-.18-.08-.17-.09-.16-.11-.16-.13-.15-.14-.15-.17-.14-.2-.13-.22-.13-.25-.13-.29-.13-.32-.12-.36-.11-.39-.12-.43-.11-.46-.11-.51-.11-.55-.1-.58-.1-.63-.1-.67-.1-.71-.1-.75-.09-.78-.09-.83-.09-.66-.09-.75-.09-.81-.08-.9-.09-.97-.09-1.04-.09-1.11-.09-1.17-.08-1.24-.09-1.3-.09-1.35-.08-1.4-.09-1.45-.08-1.48-.08-1.53-.08-1.55-.07-1.58-.08-1.61-.07-1.62-.06-1.63-.06-1.64-.06-1.64-.06-1.65-.05-1.63-.04-1.63-.04-1.61-.04-1.6-.03-1.57-.03-1.55-.02-1.52-.02-1.49-.01-1.46-.01h-1.42l-1.38.01h-1.34l-1.31.02-1.26.01-1.21.03-1.17.02-1.13.03-1.08.04-1.04.04-.99.04-.95.04-.9.05-.87.05-.82.06-.79.05-.75.06-.72.06-.68.06-.65.06-.62.06-.58.07-.55.06-.52.07-.49.07-.46.07-.43.08-.41.07-.37.07-.36.08-.32.07-.31.08-.28.07-.26.08-.24.07-.22.08-.2.07-.18.08-.16.07-.15.08-.13.07-.12.07" filter="url(#a)"/><path stroke-linejoin="round" stroke-width="2.222" d="m43.16.18-.18.08-.18.09-.19.09-.21.11-.22.11-.25.12-.26.12-.28.13-.31.13-.33.13-.37.13-.38.14-.42.13-.45.13-.49.14-.51.13-.55.12-.57.13-.62.12-.64.12-.68.11-.72.11-.74.1-.78.1-.82.09-.69.16-.76.15-.83.14-.88.13-.95.11-1.01.1-1.07.09-1.12.07-1.17.07-1.22.05-1.26.04-1.31.02-1.35.01-1.38.01-1.41-.01-1.44-.02-1.47-.03-1.48-.04-1.49-.05-1.51-.06-1.52-.06-1.52-.08-1.52-.08-1.52-.08-1.51-.1-1.5-.09-1.49-.11-1.47-.1-1.46-.11-1.43-.12-1.41-.11-1.38-.12-1.35-.12-1.33-.12-1.29-.12-1.26-.12-1.22-.12-1.19-.12-1.15-.12-1.12-.12-1.08-.12-1.04-.12-1.01-.11-.97-.12-.94-.11-.9-.1-.86-.11-.84-.11-.8-.1-.77-.1-.75-.1-.72-.09-.69-.09-.66-.1-.64-.09-.61-.08-.58-.09-.56-.08-.53-.08-.52-.08-.49-.08-.46-.08-.45-.07-.42-.07-.41-.07-.38-.07-.37-.07-.35-.06-.34-.07-.32-.06-.3-.06-.28-.06-.28-.06L-40-1" filter="url(#a)"/><circle cx="27.146" cy="1.809" r="3.732" clip-path="url(#c)" filter="url(#a)"/><circle cx="28.146" cy="-2.226" r="3.004" clip-path="url(#c)" filter="url(#a)"/><circle cx="30.461" cy="-2.121" r="3.328" clip-path="url(#c)" filter="url(#a)"/><circle cx="27.696" cy="-1.136" r="3.092" clip-path="url(#c)" filter="url(#a)"/><circle cx="30.466" cy="-1.226" r="4.658" clip-path="url(#c)" filter="url(#a)"/><circle cx="31.226" cy=".519" r="3.896" clip-path="url(#c)" filter="url(#a)"/><circle cx="31.221" cy="-2.121" r="3.614" clip-path="url(#c)" filter="url(#a)"/><circle cx="29.766" cy="-1.341" r="3.086" clip-path="url(#c)" filter="url(#a)"/><circle cx="31.006" cy="-.566" r="4.678" clip-path="url(#c)" filter="url(#a)"/><circle cx="28.216" cy="2.244" r="3.634" clip-path="url(#c)" filter="url(#a)"/></g><g fill="none" stroke="#161386" stroke-linejoin="round" stroke-width="2"><path d="m16.79-113.89-1.7.72-2.12 2.14-2.02 2.89-1.72 2.81-1.44 2.3-1.29 1.55-1.2.73-1.14.13-1.12-.01-1.2.4-1.43 1.12-1.72 1.65-1.88 1.62-1.85 1.22-2.16.88-.44.09.47-.09.97.12 1.4.2 1.64.31 1.67.49 1.54.75 1.35.92 1.18.91 1.07.76 1.02.55 1.02.42 1.04.39 1.07.45 1.15.59 1.21.78 1.25.95 1.25 1.16 1.17 1.39.96 1.42v.12" filter="url(#a)"/><path d="m-13.7-93.07-.35.26.7.12 1.38-.03 1.57-.15 1.46-.2 1.32-.18 1.28-.11 1.35-.04 1.48.02 1.58.05 1.57.1 1.45.16 1.25.19 1.11.2 1.08.18 1.11.14.73.12-.96.24m-24.1.03-1.56-8.07-.54 1.08-.86 1.75-1.15 1.02-1.24.43-1.29-.06-1.42-.49-1.61-.96-1.86-1.44-2.13-1.94-2.36-2.35-2.55-2.53-2.67-2.43-2.75-2.2-2.82-2-2.91-1.65-3.02-.83-3.01.3M-40.8-80.2l.66-.63.69-.71.67-.7.79-.64.96-.67 1.11-.72 1.2-.75 1.26-.72 1.28-.68 1.26-.64 1.22-.62 1.18-.64 1.16-.65 1.12-.6 1.06-.51.91-.37.87-.32 1.63-.55" filter="url(#a)"/><path d="m-54.04-77.61 1.88-1.18 1.26-.73 1.23-.71 1.28-.69 1.37-.68 1.43-.69 1.41-.68 1.34-.64 1.23-.58 1.14-.54 1.1-.52 1.11-.55 1.17-.6 1.24-.63 1.31-.62 1.36-.56 1.38-.46 1.36-.38 1.33-.34 1.32-.34 1.37-.34 1.41-.36 1.09-.21-.64.04v-1.8l.45-1.57.71-2.26.92-1.99 1.09-1.28 1.17-.86 1.18-.89 1.17-1.09 1.18-1.23 1.25-1.28 1.37-1.27 1.49-1.3 1.52-1.32 1.44-1.3 1.33-1.27 1.32-1.21 1.55-1.06 2.04-.74 3.32-1.41" filter="url(#a)"/><path d="m-30.74-88.45-2.01-2.18-2.9-3.09-2.94-2.88-2.91-2.7-2.76-2.4-2.43-1.89-2.08-1.33-1.9-.9-1.87-.54-1.88-.07-1.85.55-1.77 1.05-1.79 1.04-2 .44-2.62-.33-5.11-1.44 35.94 18.02-.91 1.25-1.02 1.08-1.21.67-1.12.52-.98.53-.94.63-.97.8-1 .99-1.02 1.15-1.02 1.21-1.03 1.17-1.03 1.06-1.02.95-1.01.88-.97.89-.91.94-.83 1-.76 1.02-.69.98-.62.94-.57.99-.52 1.19-.38 1.45-.03 1.79-11.46-22.34.55-.75 2.17.29 2.33.38 2.05.17 1.77-.09 1.58-.27 1.54-.32 1.61-.24 1.75-.09 1.9.07 1.97.14 1.89.13 1.67.04 1.36-.06 1.08-.16.92-.4 1.26-.62 2.95.71-5.29 2.85-.78.68-.99 1.3-.95 1.75-.86 1.77-.8 1.56-.77 1.41-.69 1.35-.63 1.35-.61 1.32-.62 1.26-.63 1.18-.62 1.08-.57 1.02-.45 1.08-.29 1.27-.13 1.52-.09 1.61-.21 1.47-.32 1.47-.49 2.03" filter="url(#a)"/><path d="m-19.27-85.37-1.36-.11-1.22-.01-1 .1-1.03.1-1.15.01-1.28-.08-1.36-.14-1.39-.09-1.4.05-1.37.26-1.33.44-1.31.53-1.27.52-1.23.41-1.17.27-1.13.16-1.13.17-1.22.35-1.38.61-1.57.82-1.25.63m-6.68 4.97-.42-4.62.74-1.5 1.02-.99 1.18-.83 1.25-.91 1.21-1.18 1.13-1.42 1.1-1.33 1.1-.94 1.1-.54 1-.44.87-.83.85-1.48.87-2.02.24-2.1" filter="url(#a)"/><path d="m-89.9-61.85 2.94-.94 2.21-.95 2.06-.89 1.99-.72 1.83-.54 1.63-.39 1.47-.35 1.36-.42 1.32-.54 1.32-.68 1.39-.76 1.52-.75 1.72-.65 1.88-.51 1.93-.41 1.8-.39 1.55-.5 1.23-.67.88-.89.58-1.15.35-1.49.36-1.73.93-1.01 3.15 3.78-12.93 12.64 1.16.87-.12 1.52-.06 1.64.48 1.81.67 1.81.39 1.64-.02 1.47-.31 1.42-.41 1.42-.48 1.39-.55 1.28-.57 1.16-.38 1.18.05 1.39.53 1.62.69 1.62.37 1.41.54 2.06 18.98-41.96-1.48.77-1.21.5-1.18.57-1.13.64-1.09.7-1.07.73-1.05.73-1.01.67-.99.64-.98.62-1 .66-1.02.72-1.07.84-1.12.95-1.17 1.08-1.18 1.19-1.14 1.22-1.04 1.16-.98 1.08-1.02 1.05-1.1 1.05-.85.69" filter="url(#a)"/><path d="m-78.26-23.86-.47-1.42.19-1.48.39-1.46.27-1.51.04-1.54-.07-1.56-.02-1.53.12-1.46.27-1.4.34-1.37.36-1.36.34-1.37.35-1.36.36-1.32.38-1.28.4-1.25.4-1.24.41-1.26.46-1.25.57-1.27.69-1.32.79-1.42 1.01-1.45-3.57 5.47-5.28-3.99.86-.67 2.17-.29 1.62-.93.78-1.61.28-1.87.17-1.75.21-1.51.19-1.4.03-1.57-.2-1.89-.39-2.25-.44-2.53-.32-2.69-.03-2.72.28-2.71.31-2.77-.2-3.06-1.11-3.5-1.69-3.37" filter="url(#a)"/><path d="m-76.65-46.38-.19-3.62 1.08-1.15.97-.97.6-1.36.38-1.68.4-1.74.52-1.61.64-1.38.59-1.15.43-1.03.28-1.09.24-1.3.32-1.58.24-1.52-.87-.55-5.63 21.73-.22-.46-.82.54-1.01.97-1.09 1.06-1.02 1.11-.86 1.18-.77 1.26-.73 1.29-.72 1.32-.7 1.34-.69 1.38-.75 1.4-.85 1.38-.97 1.34-1 1.32-.91 1.29-.75 1.28-.61 1.27-.58 1.23-.59 1.18-.56 1.19-.53 1.28-.81 1.33m177.93-7.97 2.56 1.49 4.05.14 4.27-.01 3.44.49 2.51.98 1.74 1.31 1.04 1.54.45 1.7.12 1.8.12 1.77.46 1.68 1.12 1.59 2.01 1.51 2.72 1.35 2.77.96 2.91-.43-32.29-17.87-.99-.47-2.04-.19-1.76-.81-.91-1.44-.51-1.61-.74-1.34-1.22-.9-1.61-.54-1.73-.37-1.71-.38-1.72-.44-1.85-.39-1.97-.21-1.58-.16-.17-.82 15.57-3.77.76 1.94.2.93.26 1.02.42 1.25.5 1.46.52 1.6.49 1.62.43 1.53.35 1.39.28 1.29.23 1.23.21 1.18.19 1.08.17 1.1.19 1.5.38 2.51m-6.31-23.78-.6-1.18-.55-1.03-.69-1.07-.84-1.16-.87-1.22-.81-1.24-.72-1.2-.66-1.12-.65-1.03-.68-.97-.75-.98-.84-1.04-.92-1.12-.99-1.19-1.06-1.22-1.13-1.2-1.19-1.07-1.01-.46 1.11-15.51.39 1.09.51 1.78.56 1.41.63 1.1.68 1.08.7 1.21.68 1.39.69 1.53.74 1.56.84 1.52.94 1.43.95 1.38.83 1.37.63 1.39.34 1.43.01 1.51-.24 1.63-.22 1.67.28 1.64 1.11 2.17" filter="url(#a)"/><path d="m73.55-51.67-2.21.74-1.45-.11-1.17-.39-.74-.81-.55-1.1-.73-1.11-1.07-.97-1.33-.82-1.4-.77-1.36-.78-1.29-.76-1.3-.64-1.37-.44-1.41-.19-1.33.1-1.14.32-1.14.37 17.6 27.32.3-1.44.31-1.26.02-1.08-.03-1.25.21-1.53.5-1.72.59-1.77.37-1.65-.11-1.44-.59-1.24-.8-1.19-.58-1.34v-1.64l.52-1.86.46-1.68-.11-1.08" filter="url(#a)"/><path d="m60.65-68.12 2.46-1.68 1.89-.98.89.65.93 1.04 1.34.86 1.68.65 1.84.62 1.91.62 1.96.62 1.97.59 1.87.6 1.66.67 1.36.81 1.1.98.97 1.11 1.13 1.12 1.53.99 2.05.79 2.43.58 2.63.44 2.82.19 3.46-.27 4.9-.77-50.5-15.61-1.9-1.69-.97-1.44-.66-1.67-.62-1.76-.75-1.58-.91-1.3-1-1.06-.99-.91-.93-.88-.9-.91-.86-.99-.84-1.1-.82-1.23-.83-1.3-.91-1.29L40-93.8l-1.21-1.05-1.36-.93-1.43-1-1.39-1.32-1.26-1.86-1.18-2.56 20.37 27.09-.41 1.26.55 1.69 1.05 1.07 1.09.72.92.68.7.84.46 1.12.25 1.41.13 1.54.14 1.43.33 1.18.55.98.66 1.04.52 1.15.12.9" filter="url(#a)"/><path d="m83.71-69.67-.53-1.78-1.61-1-1.75-.99-1.9-.79-2.03-.49-2.11-.2-2.17.08-2.2.33-2.21.5-2.13.48-1.9.25-1.51-.18-1.04-.71-.66-1.17-.55-1.37-.87-1.15-1.51-.51-2.1.13-2.25.29-3.24.52-4.68-3.89-.93-.51-1.04-.61-1.09-.63-1.06-.6-1.06-.59-1.08-.63-1.13-.69-1.17-.75-1.23-.78-1.28-.76-1.29-.7-1.29-.64-1.28-.57-1.25-.52-1.28-.5-1.33-.5-1.43-.52-1.47-.52-1.45-.52-1.31-.45-1.08-.32-.73-.16.32.11" filter="url(#a)"/><path d="m40.59-83.69.09-1.11-.07-2.04-.58-1.63-1.02-1.06-1.2-.92-1.17-1.22-1.06-1.71-.94-2.07-.87-2.18-.89-2.02-.98-1.72-1.12-1.48-1.27-1.37-1.4-1.49-1.41-1.8-1.3-2.29-1.03-2.77-.7-3.08-.29-3.05.98-2.55 12.38 35.69 1.88-7.08-1.87.48-2.25 1.24-1.95.67-1.6.06-1.34-.43-1.16-.91-1.06-1.52-.98-2.23-.89-2.93-.82-3.37-.8-3.37-.85-2.89-.96-2.17-1.14-1.51-1.3-1.17-1.46-1.15-1.6-1.23-1.73-1.34-1.9-1.58-2.24-2.13-3.45-3.57" filter="url(#a)"/><path d="m16.77-113.74 1.47 2.04 1.51 1.49 1.27.72 1.16.59 1.15.94 1.15 1.54 1.15 2.14 1.12 2.42 1.11 2.25 1.12 1.79 1.09 1.39 1.03 1.31.94 1.59.93 1.86 1.01 1.83 1.18 1.47 1.2 1.1.38 1.71m-19.82-21.22 2.24 1.57.85 1.78.63 2.1.7 2.27.92 2.12 1.18 1.71 1.38 1.16 1.46.63 1.45.2h1.38l1.28.1 1.16.63.96 1.56.71 2.4.71 1.84-56.56 3.26 1.85-1.1 1.35-.84 1.1-.64 1.03-.49 1.05-.46 1.06-.58 1.08-.76 1.13-.91 1.21-.96 1.27-.9 1.3-.76 1.29-.58 1.27-.4 1.34-.21 1.46-.01 1.6.16 1.68.22 1.57.05 1.25-.4.75-.71.24-.35" filter="url(#a)"/></g><g fill="none" stroke="#000"><circle cx="13.304" cy="26.02" r="2.106" filter="url(#a)"/><circle cx="14.48" cy="24.22" r="2.344" filter="url(#a)"/><circle cx="15.984" cy="27.06" r="1.14" filter="url(#a)"/><circle cx="15.276" cy="27.06" r="1.144" filter="url(#a)"/><circle cx="14.6" cy="26.056" r="1.56" filter="url(#a)"/><circle cx="13" cy="27.556" r="2.786" filter="url(#a)"/><circle cx="13.228" cy="26.476" r="2.798" filter="url(#a)"/><circle cx="14.804" cy="25.88" r="1.54" filter="url(#a)"/><circle cx="15.488" cy="25.98" r="2.572" filter="url(#a)"/><circle cx="14.692" cy="26.668" r="2.902" filter="url(#a)"/><circle cx="-9.512" cy="20.342" r="2.668" filter="url(#a)"/><circle cx="-11.28" cy="20.574" r="1.686" filter="url(#a)"/><circle cx="-10.068" cy="21.766" r="1.95" filter="url(#a)"/><circle cx="-11.472" cy="23.346" r="2.312" filter="url(#a)"/><circle cx="-11.552" cy="20.962" r="1.536" filter="url(#a)"/><circle cx="-10.568" cy="19.978" r="1.918" filter="url(#a)"/><circle cx="-11.46" cy="22.054" r="2.074" filter="url(#a)"/><circle cx="-10.372" cy="23.058" r="1.102" filter="url(#a)"/><circle cx="-10.268" cy="23.394" r="2.614" filter="url(#a)"/><circle cx="-12.136" cy="20.726" r="1.76" filter="url(#a)"/></g><path fill="#66CC69" stroke="#000" stroke-linejoin="round" stroke-width="3" d="m-40.58 91.55.99-1.34.98-1.32.97-1.29.97-1.26.96-1.23.96-1.21.95-1.18.95-1.15.94-1.13.93-1.1.93-1.07.93-1.05.92-1.01.91-1 .91-.96.9-.94.9-.91.9-.88.89-.86.88-.83.88-.8.87-.78.87-.75.87-.72.86-.7.86-.67.85-.64.85-.62.84-.59.84-.56.84-.54.83-.51.83-.49.82-.45.82-.44.82-.4.81-.38.81-.36.8-.33.8-.3.8-.27.79-.25.8-.23.78-.2.79-.17.78-.14.78-.12.77-.1.77-.07.77-.04.77-.02.76.01.76.03.76.06.75.09.75.11.75.13.75.16.74.19.75.21.74.24.73.26.74.29.73.31.73.34.73.36.73.39.72.42.73.43.72.47.72.49.72.51.71.54.72.56.71.59.71.61.71.64.71.66.71.69.71.71.7.74.71.76.7.79.7.81.7.83.71.86.7.88.7.91.69.93.7.96.7.98.7 1.01.69 1.02.7 1.06.7 1.08.69 1.1.7 1.12.69 1.15.7 1.18.7 1.19-.7-1.19-.7-1.18-.69-1.15-.7-1.12-.69-1.1-.7-1.08-.7-1.06-.69-1.02-.7-1.01-.7-.98-.7-.96-.69-.93-.7-.91-.7-.88-.71-.86-.7-.83-.7-.81-.7-.79-.71-.76-.7-.74-.71-.71-.71-.69-.71-.66-.71-.64-.71-.61-.71-.59-.72-.56-.71-.54-.72-.51-.72-.49-.72-.47-.73-.43-.72-.42-.73-.39-.73-.36-.73-.34-.73-.31-.74-.29-.73-.26-.74-.24-.75-.21-.74-.19-.75-.16-.75-.13-.75-.11-.75-.09-.76-.06-.76-.03-.76-.01-.77.02-.77.04-.77.07-.77.1-.78.12-.78.14-.79.17-.78.2-.8.23-.79.25-.8.27-.8.3-.8.33-.81.36-.81.38-.82.4-.82.44-.82.45-.83.49-.83.51-.84.54-.84.56-.84.59-.85.62-.85.64-.86.67-.86.7-.87.72-.87.75-.87.78-.88.8-.88.83-.89.86-.9.88-.9.91-.9.94-.91.96-.91 1-.92 1.01-.93 1.05-.93 1.07-.93 1.1-.94 1.13-.95 1.15-.95 1.18-.96 1.21-.96 1.23-.97 1.26-.97 1.29-.98 1.32" filter="url(#a)"/></svg>