<svg xmlns="http://www.w3.org/2000/svg" width="500" height="500" viewBox="-100 -100 200 200"><defs><clipPath id="c"><path d="m27.78 2.76-.3-.53-.32-.55-.34-.54-.37-.55-.4-.55-.42-.54-.45-.53-.47-.52-.5-.51-.53-.5-.55-.47-.57-.46-.6-.43-.63-.41-.64-.39-.6-.73-.65-.67-.68-.62-.73-.56-.77-.5-.81-.45-.85-.38-.88-.32-.91-.26-.95-.21-.97-.14-1-.09-1.02-.03-1.05.02-1.06.07-1.08.12-1.08.17-1.1.21-1.11.25-1.11.3-1.1.33-1.11.36-1.11.39-1.09.43-1.09.45-1.08.47-1.06.49-1.04.51-1.03.52-1.01.54-.99.54-.96.56-.94.55-.91.56-.88.56-.86.56-.83.56-.8.55-.76.55-.74.53-.71.53-.67.52-.65.51-.61.49-.58.49-.56.47-.52.46-.5.45-.47.43-.44.43-.42.41-.4.4-.36.38-.35.38-.32.36-.29.35-.27.34-.25.33-.23.32-.2.3-.18.3-.16.28-.14.27-.12.26 1.52 2.52.47-.04.49-.06.5-.06.52-.06.53-.07.55-.08.56-.08.57-.1.59-.1.6-.1.61-.12.63-.12.64-.13.65-.14.66-.14.69-.15.69-.16.72-.17.73-.18.74-.18.76-.19.77-.2.78-.21.8-.22.81-.23.82-.23.83-.24.85-.24.85-.26.86-.25.86-.26.88-.27.88-.26.88-.27.88-.26.89-.27.89-.26.89-.26.89-.25.89-.24.88-.24.87-.23.88-.21.86-.2.86-.19.84-.17.84-.16.82-.14.81-.12.8-.09.79-.07.76-.05.75-.03h.74l.71.03.7.05.67.08.66.11.63.14.61.17.59.19.57.22.54.25.52.27.51.11.49.11.47.13.46.13.45.14.43.15.41.15.4.15.38.16.37.15.34.16.33.15.32.15.29.15.28.13"/></clipPath><clipPath id="b"><path d="m-29.41 2.47.27-.47.3-.48.33-.49.35-.49.38-.48.41-.48.43-.48.46-.46.49-.45.52-.43.55-.42.57-.4.6-.38.62-.35.66-.34.57-.65.63-.61.67-.55.73-.49.77-.44.81-.39.86-.32.9-.27.94-.21.98-.15 1-.1 1.04-.05 1.07.01 1.09.05 1.11.11 1.13.15 1.15.19 1.15.23 1.17.27 1.17.31 1.17.34 1.18.37 1.17.4 1.16.43 1.16.44 1.14.47 1.13.48 1.11.49 1.1.51 1.07.52 1.05.52 1.03.53 1 .53.97.53.95.53.91.52.89.52.85.52.83.5.79.5.76.48.72.48.7.46.66.45.64.44.6.43.57.41.55.4.52.39.49.37.47.37.45.35.42.34.4.33.37.31.35.31.32.29.31.28.28.27.26.26.24.25.22.24.21.22.18.22-1.83 1.82-.42-.07-.43-.06-.45-.08-.46-.08-.48-.09-.5-.09-.51-.1-.52-.11-.54-.12-.56-.12-.57-.13-.59-.14-.6-.15-.62-.16-.64-.16-.66-.17-.67-.18-.69-.19-.72-.2-.73-.2-.75-.22-.77-.22-.78-.23-.81-.24-.82-.25-.85-.26-.86-.27-.87-.27-.89-.28-.91-.28-.92-.29-.93-.29-.94-.29-.96-.3-.96-.29-.97-.29-.98-.29-.98-.28-.99-.28-.98-.27-.99-.26-.98-.26-.98-.23-.98-.23-.97-.21-.96-.19-.95-.18-.93-.15-.92-.13-.91-.11-.89-.08-.87-.06-.84-.03-.83-.01-.8.03-.77.06-.75.08-.72.12-.69.15-.65.18-.63.21-.6.24-.56.27-.53.29-.55.12-.53.12-.52.14-.49.14-.48.16-.45.16-.44.16-.42.17-.39.17-.38.18-.35.17-.34.17-.31.17-.3.16-.27.15"/></clipPath><filter id="a"><feTurbulence baseFrequency=".05" numOctaves="3" result="noise" type="noise"/><feDisplacementMap in="SourceGraphic" in2="noise" scale="2"/></filter></defs><rect width="100%" height="100%" x="-100" y="-100" fill="#AFA6F2"/><path fill="#C7DF20" stroke="#000" stroke-linejoin="round" stroke-width="1.667" d="m66.7 0 .05 2.24L66.68 5l.3.22-.34-.62.14 1.93v.14l-.09 1.23-.27 1.74-.07 3.03-.59 2.07.05-.24.27.15-.38 1.72-.29 2.38-.29.92-.09 1.33-.61 2.47v-1.03l-.75 3.3-.12.42-.55 2.81-.07-.55-1.01 3.35-.4 1.53.15-.15-.63 1.35-.05.35-.01-.27-.66 2.26-1.06 2.25-.11.25-.25 1.4-.9 1.77-.86 1.68-.32.69-1.15 2.29.15-.79.45-.31-2.66 4.7.13-.26-.38.86-.68.78-.28 1.21-.89.47-.93 2.05.52-.53-2.8 3.58.78-.55-.94.59-.24.34-2.66 3.28.92-1.07-1.04.86-.52.8-.42.11-.85 1.82-.82.67-2.52 2.15.8-.45-1.36.91-.9.81-1.56 1.35-1.07.95.25.43-1.86.98.46-.27-.23.49-2.67 1.72-1.09.72.57-.51-1.65.98-.54.28-.77.74-1.37.49-.74.53-1.83 1.17-.32-.13-2.06 1.13-.71-.11.03.13-1.71 1.12-1.84.52-.35-.15-1.24.62-.72.13-2.55.89.47-.44.15.37-2.51.23-.41.19-1.32.11-.65.28-1.96.49-.53-.03h-.51l-.5.01-1.51.09-2.04.07-.63.01-.93.16-1.28-.2.62.03-2.38.23-.5-.18-2.28-.11.07-.01-1.02-.38-1.49-.15-1.12.09-1.64-.47-.19-.27-.73-.15-1.68-.36.08.01-2.67-.65.32.01-3.07-.6-.24-.37-1.16-.61.82.58-2.41-1.07-.53-.54-1.43-.17-.75-.84-.38.2-1.47-.52.19-.36-2.87-1.43-.15-.39-1.98-1.27-1.28-1.16 1.18 1.04-2.79-2.08.71.84-2.57-2.13-.25-.3-.39.21-1.78-1.8-.2-.29.35.12-1.99-2.01.41.65-3.13-3.24-.37.17-.72-1.17-.46-.79-.35-.38-1.39-1.57.42.64-1.72-1.85-.89-1.26.24.01-1.32-1.51-.15-.11-1.86-3.37-.32.7-.47-1.45-.51-.82-.59-.69-1.71-3.72-.01.84-1.09-2.54.12.77-.69-2.01-.12-.91-1.04-1.16-.57-1.11.21.12-1.16-3.11.28.65-1.66-3.18-.16-1.21-.33-.62.31.29-.93-2.27-.43-1.71.03-.04-.31-.51-.07-.73-.8-3.02-.41-.98-.14-2.15h-.6l-.3-2.24.07-1.06-.41-2.46-.1-1.11-.11.5-.31-.94-.26-1.89-.01-.05-.34-2.55.2-.85-.46-2.46.27-1.08-.14-.42-.14-2.63-.2.93.03-2.13.19-4.08-.38.9.37-1.31.16-4.13-.13 2.02-.1-2.97.31-.51.17-1.3.1-1.64.07-1.31-.11-.78.04-.75.81-4-.07-.35-.07-1.13.28.26.44-1.81.05-1.45.6-2.47.87-2.22-.27-.55.97-2.52.18-1.17.28-.72-.21.59.4-1.11.66-2.44.8-1.75.14-.16-.39.71 1.66-4.25-.47 1.49 1.27-3.56.45-.94.5-1.33 1.25-2.24-.94 1.62.46-.54 1.36-2.33.85-2.1h.05l1.13-1.25-.39.03 1.16-2.19 1-1.52.29-.36 1.16-1.2-.32.31.78-.86 1.21-1.4 1.14-1.64 1.86-2.49.45-.42-1.15.93 2.5-2.8-.82.91 2.75-2.86-.53.1 1.55-.97 1.39-1.34.75-.54-.11-.38.82-.55.02-.17 1.77-1.66 2.12-1.18.09.37 1.12-1.42.52-.53 1.07-.44.45.02.08-.17 2.1-1.49-.45.39.9-.54 1.88-1 .39-.28 3.08-1.65-1.09.62 1.01-.49 3.35-1.42-.2.16.7-.25 1.95-.88.76-.3 1.1.07-.27-.35 1.04-.1 2.8-.73-.81.25 3.53-.65-1.59.05 3.49-.6.47.29-.09-.03.27-.25.95-.16 1.73.05.7-.06 2.23-.14.97-.04 1.69.03.44.04-.26.12 2.54-.06.35.12 1.35.39 1.87.15-.93-.07 2.5.36.34-.26.15.45 2.8.52-1.39-.41 2.89.52 1.55.77.93.28.24.23 1.06.2 1.98.64.9.38-.19.29 1.34.34 1.44 1.05.22-.08 2.31.76 1.23 1.08.36.3-.73-.52 2.44 1.16.46.38 2.23 1.44-.66-.48.26.57 2.34 1.53v-.08l1.03 1.06.84.77 1.31.99.23.25.26-.08 1.33 1 1.87 2.49.59.11 1.15 1.25 1.18 1.3.58.69-.5-1.16.74 1.89 2.01 1.7-1.09-1.13 1.85 2.64 1.08 1.23-.16-.65 1.51 2.76 1.74 2.25-.9-1.68.66 1.36 1.06 1.77.67 1.11 1.31 1.92-.18-.06.11.25 1.11 2.66v.11l.88.69.33 1.23.66 1.27.49 1.63.4 1.19.49.71.73 1.8 1.13 2.01.08.65.56.69.07 1.91.83 1.86-.33.14.64 1.04.79 3.12.18-.41-.21.05.46 2.31.49.96-.1.13.67 3.5.13 1.32.11-.67.13.77.34 2.76.11 2.05.47 1.71-.1 1.33.11-.73.35 3.18-.17 1.61.25 2.06-.13-.77.16 3.03-.14-.08L66.7 0l.05 2.24" filter="url(#a)"/><path fill="#fff" d="m-29.41 2.47.27-.47.3-.48.33-.49.35-.49.38-.48.41-.48.43-.48.46-.46.49-.45.52-.43.55-.42.57-.4.6-.38.62-.35.66-.34.57-.65.63-.61.67-.55.73-.49.77-.44.81-.39.86-.32.9-.27.94-.21.98-.15 1-.1 1.04-.05 1.07.01 1.09.05 1.11.11 1.13.15 1.15.19 1.15.23 1.17.27 1.17.31 1.17.34 1.18.37 1.17.4 1.16.43 1.16.44 1.14.47 1.13.48 1.11.49 1.1.51 1.07.52 1.05.52 1.03.53 1 .53.97.53.95.53.91.52.89.52.85.52.83.5.79.5.76.48.72.48.7.46.66.45.64.44.6.43.57.41.55.4.52.39.49.37.47.37.45.35.42.34.4.33.37.31.35.31.32.29.31.28.28.27.26.26.24.25.22.24.21.22.18.22-1.83 1.82-.42-.07-.43-.06-.45-.08-.46-.08-.48-.09-.5-.09-.51-.1-.52-.11-.54-.12-.56-.12-.57-.13-.59-.14-.6-.15-.62-.16-.64-.16-.66-.17-.67-.18-.69-.19-.72-.2-.73-.2-.75-.22-.77-.22-.78-.23-.81-.24-.82-.25-.85-.26-.86-.27-.87-.27-.89-.28-.91-.28-.92-.29-.93-.29-.94-.29-.96-.3-.96-.29-.97-.29-.98-.29-.98-.28-.99-.28-.98-.27-.99-.26-.98-.26-.98-.23-.98-.23-.97-.21-.96-.19-.95-.18-.93-.15-.92-.13-.91-.11-.89-.08-.87-.06-.84-.03-.83-.01-.8.03-.77.06-.75.08-.72.12-.69.15-.65.18-.63.21-.6.24-.56.27-.53.29-.55.12-.53.12-.52.14-.49.14-.48.16-.45.16-.44.16-.42.17-.39.17-.38.18-.35.17-.34.17-.31.17-.3.16-.27.15" filter="url(#a)" transform="translate(29.15 -26.8)"/><path fill="#fff" d="m27.78 2.76-.3-.53-.32-.55-.34-.54-.37-.55-.4-.55-.42-.54-.45-.53-.47-.52-.5-.51-.53-.5-.55-.47-.57-.46-.6-.43-.63-.41-.64-.39-.6-.73-.65-.67-.68-.62-.73-.56-.77-.5-.81-.45-.85-.38-.88-.32-.91-.26-.95-.21-.97-.14-1-.09-1.02-.03-1.05.02-1.06.07-1.08.12-1.08.17-1.1.21-1.11.25-1.11.3-1.1.33-1.11.36-1.11.39-1.09.43-1.09.45-1.08.47-1.06.49-1.04.51-1.03.52-1.01.54-.99.54-.96.56-.94.55-.91.56-.88.56-.86.56-.83.56-.8.55-.76.55-.74.53-.71.53-.67.52-.65.51-.61.49-.58.49-.56.47-.52.46-.5.45-.47.43-.44.43-.42.41-.4.4-.36.38-.35.38-.32.36-.29.35-.27.34-.25.33-.23.32-.2.3-.18.3-.16.28-.14.27-.12.26 1.52 2.52.47-.04.49-.06.5-.06.52-.06.53-.07.55-.08.56-.08.57-.1.59-.1.6-.1.61-.12.63-.12.64-.13.65-.14.66-.14.69-.15.69-.16.72-.17.73-.18.74-.18.76-.19.77-.2.78-.21.8-.22.81-.23.82-.23.83-.24.85-.24.85-.26.86-.25.86-.26.88-.27.88-.26.88-.27.88-.26.89-.27.89-.26.89-.26.89-.25.89-.24.88-.24.87-.23.88-.21.86-.2.86-.19.84-.17.84-.16.82-.14.81-.12.8-.09.79-.07.76-.05.75-.03h.74l.71.03.7.05.67.08.66.11.63.14.61.17.59.19.57.22.54.25.52.27.51.11.49.11.47.13.46.13.45.14.43.15.41.15.4.15.38.16.37.15.34.16.33.15.32.15.29.15.28.13" filter="url(#a)" transform="translate(-29.65 -26.34)"/><g fill="none" stroke="#000" transform="translate(29.15 -26.8)"><path stroke-linejoin="round" stroke-width="1.667" d="m-30.95 5.85.08-.15.09-.21.1-.25.12-.31.14-.34.16-.37.18-.41.2-.43.22-.44.25-.47.27-.47.3-.48.33-.49.35-.49.38-.48.41-.48.43-.48.46-.46.49-.45.52-.43.55-.42.57-.4.6-.38.62-.35.66-.34.57-.65.63-.61.67-.55.73-.49.77-.44.81-.39.86-.32.9-.27.94-.21.98-.15 1-.1 1.04-.05 1.07.01 1.09.05 1.11.11 1.13.15 1.15.19 1.15.23 1.17.27 1.17.31 1.17.34 1.18.37 1.17.4 1.16.43 1.16.44 1.14.47 1.13.48 1.11.49 1.1.51 1.07.52 1.05.52 1.03.53 1 .53.97.53.95.53.91.52.89.52.85.52.83.5.79.5.76.48.72.48.7.46.66.45.64.44.6.43.57.41.55.4.52.39.49.37.47.37.45.35.42.34.4.33.37.31.35.31.32.29.31.28.28.27.26.26.24.25.22.24.21.22.18.22.17.21.14.2.14.19.11.18.1.18.09.16.07.16.06.15.04.15.03.13" filter="url(#a)"/><path stroke-linejoin="round" stroke-width="2.222" d="m-30.96 7.1.1.09.12.04.13.01.15-.02.16-.04.18-.08.2-.09.22-.11.23-.13.26-.14.27-.15.3-.16.31-.17.34-.17.35-.17.38-.18.39-.17.42-.17.44-.16.45-.16.48-.16.49-.14.52-.14.53-.12.55-.12.53-.29.56-.27.6-.24.63-.21.65-.18.69-.15.72-.12.75-.08.77-.06.8-.03.83.01.84.03.87.06.89.08.91.11.92.13.93.15.95.18.96.19.97.21.98.23.98.23.98.26.99.26.98.27.99.28.98.28.98.29.97.29.96.29.96.3.94.29.93.29.92.29.91.28.89.28.87.27.86.27.85.26.82.25.81.24.78.23.77.22.75.22.73.2.72.2.69.19.67.18.66.17.64.16.62.16.6.15.59.14.57.13.56.12.54.12.52.11.51.1.5.09.48.09.46.08.45.08.43.06.42.07.41.05.39.05.38.05.36.04.35.04.34.03.33.03.31.02.31.02.29.01" filter="url(#a)"/><circle cx="-2.78" cy="1.21" r="4.988" clip-path="url(#b)" filter="url(#a)"/><circle cx="-1.3" cy="-1.15" r="4.57" clip-path="url(#b)" filter="url(#a)"/><circle cx="-.04" cy="1.77" r="3.716" clip-path="url(#b)" filter="url(#a)"/><circle cx="-1.215" cy=".9" r="4.668" clip-path="url(#b)" filter="url(#a)"/><circle cx=".815" cy="-1.02" r="4.664" clip-path="url(#b)" filter="url(#a)"/><circle cx=".59" cy="-.11" r="4.8" clip-path="url(#b)" filter="url(#a)"/><circle cx="-.915" cy=".295" r="4.96" clip-path="url(#b)" filter="url(#a)"/><circle cx="-1.68" cy="-1.555" r="4.058" clip-path="url(#b)" filter="url(#a)"/><circle cx="-.755" cy="1.79" r="4.988" clip-path="url(#b)" filter="url(#a)"/><circle cx="-.235" cy="1.655" r="4.294" clip-path="url(#b)" filter="url(#a)"/></g><g fill="none" stroke="#000" transform="translate(-29.65 -26.34)"><path stroke-linejoin="round" stroke-width="2.222" d="m29.47 6.67-.08-.2-.1-.25-.11-.31-.14-.35-.15-.4-.18-.43-.2-.46-.22-.48-.24-.51-.27-.52-.3-.53-.32-.55-.34-.54-.37-.55-.4-.55-.42-.54-.45-.53-.47-.52-.5-.51-.53-.5-.55-.47-.57-.46-.6-.43-.63-.41-.64-.39-.6-.73-.65-.67-.68-.62-.73-.56-.77-.5-.81-.45-.85-.38-.88-.32-.91-.26-.95-.21-.97-.14-1-.09-1.02-.03-1.05.02-1.06.07-1.08.12-1.08.17-1.1.21-1.11.25-1.11.3-1.1.33-1.11.36-1.11.39-1.09.43-1.09.45-1.08.47-1.06.49-1.04.51-1.03.52-1.01.54-.99.54-.96.56-.94.55-.91.56-.88.56-.86.56-.83.56-.8.55-.76.55-.74.53-.71.53-.67.52-.65.51-.61.49-.58.49-.56.47-.52.46-.5.45-.47.43-.44.43-.42.41-.4.4-.36.38-.35.38-.32.36-.29.35-.27.34-.25.33-.23.32-.2.3-.18.3-.16.28-.14.27-.12.26-.1.26-.08.24-.06.23-.04.22-.03.22-.01.2.01.2.03.19.03.18.06.17" filter="url(#a)"/><path stroke-linejoin="round" stroke-width="2.222" d="m29.52 8.45-.1.08-.11.05-.14.02-.15-.01-.16-.04-.19-.06-.21-.08-.22-.1L28 8.2l-.26-.13-.28-.13-.29-.15-.32-.15-.33-.15-.34-.16-.37-.15-.38-.16-.4-.15-.41-.15-.43-.15-.45-.14-.46-.13-.47-.13-.49-.11-.51-.11-.52-.27-.54-.25-.57-.22-.59-.19-.61-.17-.63-.14-.66-.11-.67-.08-.7-.05-.71-.03h-.74l-.75.03-.76.05-.79.07-.8.09-.81.12-.82.14-.84.16-.84.17-.86.19-.86.2-.88.21-.87.23-.88.24-.89.24-.89.25-.89.26-.89.26-.89.27-.88.26-.88.27-.88.26-.88.27-.86.26-.86.25-.85.26-.85.24-.83.24-.82.23-.81.23-.8.22-.78.21-.77.2-.76.19-.74.18-.73.18-.72.17-.69.16-.69.15-.66.14-.65.14-.64.13-.63.12-.61.12-.6.1-.59.1-.57.1-.56.08-.55.08-.53.07-.52.06-.5.06-.49.06-.47.04-.47.04-.45.04-.43.03-.42.03-.41.02-.4.02-.38.01-.37.01h-.7" filter="url(#a)"/><circle cx="4.315" cy="-3.763" r="4.288" clip-path="url(#c)" filter="url(#a)"/><circle cx="6.48" cy="-4.183" r="3.25" clip-path="url(#c)" filter="url(#a)"/><circle cx="4.46" cy="-5.173" r="4.384" clip-path="url(#c)" filter="url(#a)"/><circle cx="2.12" cy="-1.728" r="3.016" clip-path="url(#c)" filter="url(#a)"/><circle cx="4.38" cy="-5.003" r="3.2" clip-path="url(#c)" filter="url(#a)"/><circle cx="2.87" cy="-5.683" r="3.764" clip-path="url(#c)" filter="url(#a)"/><circle cx="2.925" cy="-5.683" r="3.05" clip-path="url(#c)" filter="url(#a)"/><circle cx="4.24" cy="-2.888" r="3.9" clip-path="url(#c)" filter="url(#a)"/><circle cx="4.22" cy="-1.493" r="3.646" clip-path="url(#c)" filter="url(#a)"/><circle cx="2.345" cy="-3.723" r="3.61" clip-path="url(#c)" filter="url(#a)"/></g><g fill="none" stroke="#137886" stroke-linejoin="round" stroke-width="2"><path d="m17.26-81.94.56.24.97.33 1 .36.87.37.73.36.64.33.54.31.4.26.2.2-.03.11-.32.02-.58-.08-.86-.16-1.15-.25-1.49-.36-1.88-.48-2.3-.62-2.71-.75-3.07-.88-3.27-1.03M48.79-58.4l1.26 2.14.65 1.09.23.58.01.46-.13.42-.33.31-.58.12-.86-.1-1.16-.33-1.44-.54-1.74-.76-2.04-.97-2.36-1.19-2.7-1.41-3.05-1.65-3.41-1.91-3.82-2.19-4.27-2.5-4.8-2.82-5.35-3.18-5.89-3.55-6.39-3.91" filter="url(#a)"/><path d="m-23.65-79.31 1.66-.55 2.09-.34 2.19-.04 2.41.21 2.68.39 2.95.56 3.19.71 3.45.85 3.73.96 3.96 1.05 4.16 1.1 4.28 1.16 4.36 1.21 4.4 1.25 4.42 1.32 4.4 1.35 4.4 1.36 4.58 1.48" filter="url(#a)"/><path d="m39.49-68.76 1.07 1.63.05.94-.79.67-1.67.45-2.57.26-3.48.15-4.34.1-5.22.08-6.1.04-7-.06-7.93-.19-8.93-.33-10.09-.39-11.48-.41" filter="url(#a)"/><path d="m16.33-82.22.63.28.43.35.31.46.07.57-.27.66-.63.77-.97.88-1.3.98-1.65 1.08L10.88-75l-2.54 1.29-3.04 1.42-3.55 1.56-4.07 1.7-4.55 1.82-5.04 1.91-5.55 1.99-6.1 2.12-6.67 2.32-7.26 2.61-7.78 2.83M5.2-84.64l1.27.28 1.01.16.83.11.74.11.65.11.55.13.43.13.28.14.07.14-.21.13-.57.1-.97.07-1.37.02-1.75-.03-2.08-.08-2.42-.14-2.85-.23-3.65-.29m44.33 15.02 1.24 1.68.56 1.05.04.85-.48.71-.98.61-1.44.59-1.88.61-2.28.68-2.69.73-3.14.77-3.6.8-4.12.83-4.68.83-5.28.83-5.9.81-6.49.76-7.06.69-7.6.6-8.19.55-8.89.58-9.68.84" filter="url(#a)"/><path d="m-16.08-82.49.88.01 1.16.01 1.67.09 2.08.19 2.34.32 2.52.42 2.65.53 2.73.63 2.79.71 2.86.79 2.95.85 3.09.9 3.23.96 3.36 1.02 3.41 1.05L25-72.96l3.2.99 2.94.88 2.66.68 2.34.4" filter="url(#a)"/><path d="m45.1-62.19.96.87.16.47-.16.4-.52.25-.95.02-1.47-.28-2.06-.63-2.71-1.02-3.39-1.37-4.07-1.7-4.73-2.05-5.41-2.47-6.05-2.93-6.61-3.42-7.11-3.91" filter="url(#a)"/><path d="m54.66-48.97.23.69.12.71-.17.32-.49-.06-.85-.35-1.24-.68-1.66-1.06-2.13-1.49-2.61-1.98-3.14-2.53-3.75-3.11-4.43-3.75-5.12-4.39-5.77-5.03-6.44-5.74m39.88 33.39.47 1.21.21 1.04-.02.81-.21.63-.46.42-.74.2-1.09-.06-1.45-.33-1.83-.61-2.2-.88-2.55-1.19-2.9-1.51-3.25-1.83-3.62-2.18-4.01-2.5-4.46-2.81-4.92-3.11-5.4-3.39-5.91-3.7-6.43-4.08-6.93-4.48-7.28-4.87" filter="url(#a)"/><path d="m58.24-41.13.3.94.13.79-.13.62-.48.31-.91-.05-1.36-.43-1.81-.81-2.25-1.19-2.69-1.61-3.16-2.05-3.65-2.51-4.22-2.99-4.8-3.45-5.42-3.92-5.99-4.36-6.52-4.81-6.96-5.28-7.24-5.81m36.59 7.81.36.28.76.65 1.08 1.02 1.18 1.18 1.15 1.17 1.02 1.05.86.9.69.74.56.61.44.51.36.43.26.33.16.22.04.07-.14-.11-.38-.37-.7-.72-1.1-1.18-1.56-1.69-2.04-2.24M-.53-84.85l.99.01.75.08.47.14.3.22.16.3-.03.38-.28.46-.61.56-.96.64-1.33.76-1.71.86-2.06.99-2.43 1.11-2.78 1.23-3.2 1.37-3.69 1.54-4.26 1.71-4.88 1.91-5.48 2.1-5.99 2.23" filter="url(#a)"/><path d="m35.52-71.69.75.68.42.47.08.29-.18.25-.42.24-.77.19-1.23.02-1.78-.22-2.38-.51-2.97-.8-3.54-1.08-4.07-1.32-4.64-1.54-5.32-1.76-6.08-1.98-6.94-2.2m-2.86-3.33.47-.16.72-.01.76.11.65.22.41.34.11.47-.25.62-.6.78-.95.95-1.28 1.13-1.62 1.35-2.01 1.55-2.42 1.76-2.85 1.94-3.26 2.1-3.68 2.28-4.12 2.49-4.6 2.78-5.07 3.1-5.55 3.41-6 3.59" filter="url(#a)"/><path d="m27.79-77.05-.05.15-.3.24-.55.46-1.07.57-1.78.59-2.58.6-3.38.64-4.19.7-5.03.76-5.88.8-6.74.78-7.6.74-8.53.7-9.65.77" filter="url(#a)"/><path d="m54.84-48.91-.27.06-.54.29-.97.21-1.53-.07-2.14-.39-2.82-.69-3.53-.99-4.3-1.3-5.08-1.67-5.92-2.07-6.78-2.48-7.66-2.93-8.62-3.41-9.67-3.85-10.82-4.23m-2.98-8.88 1.63-.58 1.45-.2 1.54-.03 1.78.06 2.09.1 2.36.13 2.55.19 2.69.24 2.76.31 2.78.36 2.76.4 2.74.43 2.72.44 2.74.43 2.78.44 2.78.44 2.71.42 2.43.34 1.91.2M.44-84.89l1.18-.12.81-.64.87-.92.98-.59 1.03-.1 1.04.08 1.04-.13 1.05-.59 1.06-1 1.08-1.16 1.08-1.03 1.11-.73 1.17-.45 1.31-.43 1.52-.68 1.63-1.07 1.43-1.16.63.05-23.92 10.91-1.41-1.11-.92-.93-.74-.84-.89-1.54-1.11-2.1-1.24-1.93-1.25-1.1-1.2-.15-1.15.44-1.15.45-1.21-.04-1.29-.74-1.37-1.27-1.41-1.43-1.46-1.23-1.52-.98-1.63-.93-1.81-1.15-1.9-1.36-1.8-1.28-1.76-1.16-2.9-.53 8.64 13.66.18 1.71 1.25.79 1.52.44 1.42.28 1.29.17 1.19.17 1.11.2 1.05.18.99.08 1-.07 1.05-.18 1.13-.14 1.2.1 1.25.33 1.29.27 1.37.2 1.33 3.11" filter="url(#a)"/><path d="m-8.69-84-2.41-.8-1.84-2.66-1.46-1.61h-1.05l-.86.68-.94.4-1.17-.36-1.41-1.05-1.57-1.4-1.64-1.36-1.65-1.13-1.63-.86-1.61-.62-1.59-.41-1.55-.17-1.48.03-1.44.04-1.46-.27-1.55-.8-1.63-1.24-1.43-1.16-.72-.25 26.57 16.13-1.07-2.04-.83-1.31-.69.46-.8.95-1.04.47-1.3-.32-1.5-.97-1.61-1.21-1.59-1.1-1.57-.85-1.57-.67-1.63-.66-1.67-.69-1.61-.66-1.45-.56-1.35-.47-1.42-.55-1.53-1.59 6.79 16.35 1.44-.59.9-.21.96-.24 1.1-.33 1.18-.38 1.17-.35 1.14-.32 1.13-.3 1.13-.31 1.13-.31 1.11-.29 1.07-.27 1.08-.29 1.06-.24 1.07.3" filter="url(#a)"/><path d="m-16.84-82.19.76-.15.72-.01.82.03.99.19 1.13.42 1.2.62 1.17.69 1.11.6 1 .4.9.19.8.02.78-.09.82-.1.89-.03.99.12 1.06.34 1.08.6 1.04.83.95.96.86.92.81.68.84.45.87.63.88 1.35m-24.92-8.69-2.33.94-1.31.34-1.11.17-1.12.3-1.11.46-1.03.54-.95.5-.88.42-.84.32-.81.24-.81.23-.82.25-.84.32-.89.42-.96.52-1.03.59-1.09.61-1.05.57-.93.46-.71.33-.54.3-.56.44" filter="url(#a)"/><path d="m-26.03-78-1.61.15-1.23-.45-1-.26h-.87l-.86.07-.97-.16-1.21-.56-1.46-.9-1.64-1.02-1.71-.87-1.69-.54-1.56-.19-1.37.08-1.19.16-1.16-.01-1.43-.49-2.06-1.12-2.84-1.56-3.11-1.08m45.38 8.18.11-.02-.96-.34-1.15-.39-1.1-.27-.99-.11-.91.03-.87.13-.89.19-.97.19-1.03.14-1.11.09-1.14.07-1.16.11-1.12.21-1.1.38-1.07.59-1.05.77-.99.73-.82.2-.42-.98m93.72 58.03.35 1.28.98 1.66 1.62 1.51 1.93 1.25 1.72 1.15 1.12 1.22.51 1.37.25 1.47.37 1.49.66 1.45.88 1.42.85 1.47.66 1.57.46 1.67.42 1.68.7 1.56 1.28 1.29 1.91 1.06 2.12 1.01 1.5.79M-30.99-75.21l-.83.61-.62.99-.6 1.22-.73 1.13-.88.93-.88.79-.79.75-.66.78-.61.81-.63.83-.67.86-.71.9-.68 1-.62 1.1-.53 1.17-.47 1.16-.47 1.11-.49 1.1-.54 1.2-.6 1.37-.62 1.51-.56 1.43-.33 1.05.03.28m14.49-24.08-1.91-1.87-1.42-.78-1.06.28-1.05.63-1.09.71-1.02.74-.95.64-1 .36-1.18-.03-1.45-.39-1.68-.6-1.84-.61-1.88-.48-1.76-.2-1.49.17-1.11.59-.81.76-.89.43-1.6-.18-2.94.11" filter="url(#a)"/><path d="m-32.58-74.24-2.56-2.72-1.9-1.23-1.31.45-1.15.69-1.01.58-.83.63-.76.7-.92.54-1.29.17-1.67-.28-1.93-.55-1.93-.52-1.74-.23-1.44.15-1.23.47-1.2.64-1.46.6-1.96.36-2.51-.03-2.83-.54-2.6-1.04-1.22-1.09m51.72 5.89-.66-.28-.94-.09-1.15-.13-1.07.1-.93.41-.94.48-1.06.22-1.21-.29-1.31-.74-1.28-.91-1.12-.66-.84-.11-.6.45-.52.62-.8.13-1.38-.85-1.58-.57-2.21.81 1.43-.72.97-.36h.99l1.08.39 1.08.53 1 .43.88.15.81-.1.79-.24.86-.28.96-.24 1.05-.14 1.12-.05 1.14.04 1.15.12 1.2.23 1.22.32 1.02.27.54-.27m-21.9 2.3 1.39.87 1.35.3.99-.83.88-1.03.95-.62 1.04-.08 1.09.3 1.07.46 1.01.45.95.38.93.36.96.38 1.03.43 1.12.38 1.18.2 1.18-.08 1.01-.24.17.19M77.23 7.71l-1.04-.69-1.07-.85-.65-.9-.42-1.16-.38-1.42-.42-1.58-.41-1.58-.4-1.51-.39-1.42-.38-1.38-.39-1.37-.44-1.39-.48-1.39-.49-1.37-.39-1.39-.24-1.45-.2-1.56-.5-1.57-1.13-1.32-1.46-.71-.7.15" filter="url(#a)"/><path d="m-38.41-69.25.12-.5.21-1.13.23-1.84.4-1.99.62-1.64.78-1.19.8-.9.74-.82.65-.83.58-.89.56-.96.51-1.14.47-1.49.42-1.97.41-2.41.51-2.66.67-2.52.75-1.93.57-1.29.15-2.25" filter="url(#a)"/><path d="m-39.16-68.71-1.3 1.02-1.06.82-.92.85-.84.9-.77.87-.72.84-.73.82-.79.86-.89.92-.98.95-.99.92-.94.84-.86.73-.78.68-.76.7-.79.79-.82.91-.78.96-.68.87-.81.9 9.51 7.04.54-1.89.27-1.56.01-1.42v-1.24l.14-1.13.31-1.16.46-1.25.56-1.35.55-1.39.43-1.4.28-1.4.21-1.37.31-1.28.54-1.13.72-1 .61-1.12.37-1.76-1.55.97-.13.9-.5 1.47-.51 1.28-.55 1-.64.87-.74.9-.76 1.06-.7 1.21-.56 1.31-.4 1.35-.29 1.32-.22 1.28-.2 1.26-.2 1.25-.22 1.26-.25 1.21-.3 1.15-.35 1.1-.36 1.11-.3 1.2-.15 1.2.07 1.02.35.87.58 1.82 16.29-37.52-.92.86-.94.77-1.02.88-.96.89-.79.8-.68.72-.65.68-.7.71-.77.75-.84.81-.87.85-.86.89-.79.91-.68.91-.56.89-.51.89-.6 1.03-.9 1.41-1.12 1.74-1.66.26-1.65-.45-1.09-.01-.76.51-.88.65-1.21.48-1.46.28-1.52.21-1.5.23-1.6.25-1.8.19-1.94.11-1.81.09-1.47.08-1.3.06-1.66.17-2.27.4" filter="url(#a)"/><path d="m-50.29-55.87.97-.92 1.23-1.09 1.2-1.17 1.02-1.05.84-.88.73-.78.69-.8.7-.86.76-.9.82-.87.86-.78.88-.69.84-.59.78-.53.74-.49.78-.49.9-.5 1.08-.51 1.16-.5 1.01-.52.89-.8" filter="url(#a)"/><path d="M-49.97-56.18v1.89l-.38 1.35-.77.98-.83.84-.7.84-.57.93-.45 1.06-.34 1.17-.22 1.23-.09 1.24-.01 1.23-.01 1.22-.09 1.26-.2 1.32-.27 1.38-.24 1.44-.12 1.46.07 1.36.25 1 .09.3m13.15-50.93-1.53.95-.54 1.15-.24 1.28-.24 1.39-.39 1.45-.53 1.46-.67 1.42-.73 1.35-.71 1.3-.57 1.37-.36 1.53-.14 1.73-.04 1.94-.07 2.05-.24 2.05-.41 1.9-.51 1.58-.47 1.13-.43.74-.61.86-.29.36.06-.97-.13-1.3.25-1.05.63-1.02.73-1.29.62-1.6.48-1.71.43-1.59.45-1.42.49-1.33.51-1.36.52-1.47.52-1.55.52-1.58.51-1.57.47-1.51.42-1.43.4-1.35.47-1.33.63-1.45.8-1.76.79-2.04.06-1.85m-12.79 37.24.01.37-.18.91-.16 1.3-.25 1.36-.4 1.16-.48.93-.49.82-.46.88-.44 1.04-.44 1.2-.43 1.31-.39 1.33-.35 1.26-.27 1.17-.2 1.1-.14 1.15-.11 1.37-.08 1.67.17 1.65" filter="url(#a)"/><path d="m-50.8-84.39.61 3.86.27 2.92-.31 2.08-.76 1.24-.89.81-.7 1-.33 1.61-.01 2.29.11 2.6-.02 2.42-.3 1.85-.58 1.2-.68.84-.47 1 .04 1.67.53 2.41.6 2.41.5 1.24-3.39 5.68 1.17-1.92.82-1.34.67-.96.7-.78.75-.74.77-.79.72-.85.64-.89.59-.91.6-.93.66-.95.76-.97.86-.95.91-.89.95-.78.93-.66.91-.58.92-.56.94-.57.98-.58 1.03-.59 1.05-.59.96-.61.75-.55.28-.36" filter="url(#a)"/><path d="m-56.58-45.26 1.32-1.76 1.1-1.09.78-.85.6-.85.63-.83.84-.65 1.14-.36 1.36-.05 1.44.11 1.36.04 1.2-.21 1.03-.55.9-.79.88-.84.9-.67.94-.41.98-.18 1.02-.11 1.08-.21 1.09-.28 1 .61" filter="url(#a)"/><path d="m-57.35-44.1.64-1.03.38-.34.51-.61.64-.91.69-.99.73-.91.75-.81.78-.76.77-.77.73-.81.67-.83.61-.82.58-.81.63-.84.75-.92.89-1.06 1.02-1.15.97-1 .59-.49-.23.56-15.32 21.13-2.57-5.06 1.19-1.31 1.23-.76.48-.96-.01-1.17-.11-1.34-.1-1.54-.17-1.78-.3-1.97-.39-2-.28-1.9-.04-1.78.22-1.72.4-1.63.51-1.48.46-1.73-2.26 32.09.51-1.14.3-.75.33-.91.39-1.15.43-1.32.43-1.39.43-1.37.41-1.25.41-1.11.43-.98.48-.94.53-.94.56-.99.57-1.03.54-1.04.52-1.07.5-1.11.54-1.15.59-1.11.62-.94.53-.65.07-.22-14.83-17.36-.46 2.01.07 2.33.21 2.49.21 2.36.19 2.13.19 1.99.24 2.01.31 2.05.28 1.96.09 1.7-.16 1.4-.24 1.3-.07 1.5.32 1.91.63 2.27.68 2.31.44 2.04.19 1.63.3 1.35.76 1.41.53 1.77-26.48 31.87 1.77-2.87 1.63-1.31 1.34-1.18 1.32-1.25 1.38-1.27 1.39-1.28 1.33-1.28 1.19-1.32.97-1.38.79-1.4.71-1.34.83-1.19 1.1-1.02 1.4-.94 1.59-.99 1.57-1.17 1.46-1.34 1.34-1.37 1.18-1.34.88-1.78M61.7-32.17l.31 1.39.24 1.08.25 1.14.1 1.17-.07 1.15-.14 1.13-.14 1.16-.1 1.2-.08 1.25-.12 1.27-.21 1.28-.32 1.28-.39 1.32-.37 1.36-.29 1.42-.22 1.42-.22 1.33-.29 1.22-.35 1.19L58.85-7l-.84 1.65" filter="url(#a)"/><path d="m57.28-11.5 1.17-2.06.98-1.72.56-1.24.24-1.05.19-1.15.34-1.32.5-1.41.51-1.39.39-1.26.23-1.13.08-1.06-.03-1.09-.12-1.16-.16-1.15-.13-1.12-.33-1.36-.71-3.25.92.32 1.08.61.96.9 1.21.83 1.55.68 1.69.59 1.56.61 1.29.69.96.81.66.97.54 1.13.7 1.24 1.19 1.21 1.84.99 2.32.6 2.16.15.6.42-39.94-20.7 1.54-2.37 1.54-.73 1.23.22 1.09.54 1.11.43 1.23.21 1.32.07 1.3.08 1.17.23.93.48.62.79.3 1.14.01 1.43-.17 1.58.23 1.22 3.4-1.18" filter="url(#a)"/><path d="m39.96-55.1 1.4.35.74.52.86.58.93.64.91.73.88.74.88.68.89.59.91.57.91.59.87.65.8.71.72.75.67.75.72.68.84.57.98.5 1 .52.9.71.73.99.62 1.17.52 1.17" filter="url(#a)"/><path d="m40.62-50.04.55.79.99.34 1.37.12 1.42-.01 1.29.03 1.09.23.96.47.89.61.9.62.96.52 1.04.39 1.06.33 1.03.37.93.5.84.62.84.74.84.93.62 1.31-1.15-2.9-.17-1.2-.31-1.01-.43-.94-.4-1-.32-1.1-.28-1.21-.27-1.31-.29-1.38-.26-1.44-.22-1.51-.18-1.56-.21-1.61-.29-1.6-.41-1.54-.53-1.44-.61-1.34-.61-1.26-.53-1.25-.4-1.27-.26-1.27-.21-1.2-.32-1.22-.44-1.67-.29-2.68 7.03 31.09 2.33-3.08 1.64-2.9.06-1.44-.56-.97-.69-1.03-.73-1.09-.79-1-.87-.89-.87-.89-.78-1.05-.6-1.34-.38-1.69-.14-2.02.13-2.35.38-2.64.61-2.87.75-2.93.72-2.79.57-2.57.37-2.52.22-2.75.04-2.84-.34-1.66-2.18 42.54.78 1.71.58.97.55.86.55.96.52 1.07.51 1.16.52 1.21.53 1.22.58 1.24.6 1.23.58 1.2.52 1.18.45 1.19.38 1.24.33 1.17.07.64" filter="url(#a)"/><path d="m49.86-75.1.38 1.94.22 1.1v1.28l.02 1.52.19 1.54.38 1.46.49 1.4.53 1.42.53 1.46.51 1.45.5 1.36.45 1.28.32 1.33.13 1.53-.01 1.77.01 1.79.16 1.44.16.86-.06.45" filter="url(#a)"/><path d="m53.53-50.83.77 1.26.37.83.33.88.36.96.4 1.01.41 1.05.42 1.09.4 1.17.37 1.25.34 1.31.33 1.34.36 1.35.38 1.33.42 1.27.41 1.23.38 1.2.34 1.2.28 1.2.25 1.21.21 1.21.19 1.13.13.76-.08.17-9.26-27.97-.1-.78.98.06 1.39.36 1.35.54 1.09.67.85.75.77.77.84.71.97.64 1.09.61 1.17.64 1.27.67 1.41.68 1.55.68 1.66.7 1.71.75 1.72.82 1.81.81 2 .69 2.3.56 2.47.53 2.1.65.76.53m-40.39-60.03.99 1.05.81 2.15.7 2.01.72 1.69.63 1.66.5 1.79.38 1.99.27 2.24.17 2.54.03 2.85-.13 3.06-.25 3.08-.26 2.82-.12 2.32.19 1.62.61.88 1.01.32 1.13.21.75.82-.07 2-.75 2.93-.49 2.61.67 2.1 19.35 4.07-1.78-.49-1.59-.35-1.52-.26-1.42-.29-1.31-.35-1.24-.39-1.13-.54-.96-.76-.79-1.01-.68-1.09-.75-.93-1.02-.56-1.4-.19-1.67-.02-1.72-.11-1.51-.37-1.41-.76-1.73-1.58-1.66-2.46 2.03.13 1.77-.1 1.37.21 1.55.08 1.59.12 1.31.51.9.99.69 1.21.76 1.09 1.02.81 1.23.59 1.28.56 1.11.69.89.85.82.88.98.72 1.35.42 1.7.15 1.85.11 1.77.34 1.72.66 2.24.6-49.4-28.49 1.77.86 1.05.74.72.57.71.51.78.57.83.63.82.66.78.67.77.65.77.66.78.69.78.74.77.76.74.75.71.71.71.7.77.79.9 1.04 1.02 1.27.88.82-.78-.99-.74-1.81-.38-2-.13-2.04-.13-1.87-.35-1.49-.61-1.09-.79-.86-.79-.89-.69-1.12-.55-1.38-.47-1.56-.49-1.64-.53-1.71-.49-1.9-.32-2.2-.14-2.43-.27-2.28-.97-1.74L30.44-99" filter="url(#a)"/><path d="m39.49-68.76-.87-.73-.53-.57-.48-.77-.51-.99-.6-1.03-.68-.96-.73-.89-.72-.84-.69-.81-.7-.76-.76-.69-.89-.63-.93-.64-.75-.71-.34-.73-.03-.68 27.24 23.21-1.71-2.11-1.07-1.74-.96-1.2-1.06-.8-1.17-.52-1.17-.36-1.08-.34-.92-.41-.8-.49-.78-.56-.86-.6-1-.63-1.12-.65-1.19-.7-1.15-.71-1.05-.63-.93-.44-.88-.3-.93-.36-1.17-.16-1.03-.98-1.66-.74-1.1.16-.99.21-1-.05-.99-.15-.99-.07h-.99l-.96-.1-.91-.35-.89-.57-.88-.63-.9-.51-.94-.27-.98-.01-1.02.18-1.03.26-1.04.25-1.04.19-1.04.09-1.06-.04-1.1-.17-1.06-.13-1.04.3-1.63 1.04 25.24 1.11.28.4.62.75.6 1.01.52 1.11.53 1.09.64 1.03.77.99.88.96.92.9.89.85.79.8.67.79.54.85.44.92.39 1.01.41 1.07.46 1.13.5 1.17.53 1.21.55 1.27.55 1.25.51 1.02.36.58.03.87" filter="url(#a)"/><path d="m27.42-77.27.26.14-.44-.45-.85-.72-1.02-.7-1.06-.58-1.01-.49-.95-.47-.91-.51-.89-.55-.91-.55-.95-.5-1-.44-1.04-.39-1.1-.38-1.12-.41-1.09-.42-1.03-.41-.96-.36-.91-.37-1.02-.39-1.72-.36 20.45 9.83.31-3.43.05-4.31-.42-3.24-.83-1.71-1.1-.48-1.18.01-1.1-.15-1-.49-.99-.65-1.03-.61-1.05-.67-1.03-1.09-1.02-1.68-1.06-1.94-1.11-1.58-1.09-1.28-1.67-2.26 15.32 25.56-.67-.52-1.07-.75-1.12-.78-1.04-.74-.96-.64-.91-.52-.9-.44-.91-.39-.94-.36-.97-.38-.99-.38-1.03-.4-1.08-.4-1.14-.42-1.13-.4-1.05-.42-.99-.46-.73-.44-5.5-2.06.65.48.94.57.93.44.88.3.87.17.88.13.89.18.93.3.97.43 1.03.54 1.09.61 1.07.56 1.01.43.94.3 1.05.34 1.39 1" filter="url(#a)"/><path d="m14.78-82.99 1.61-1.39.85.72.78.78.94.42 1.05.02 1.12-.24 1.12-.36 1.14-.3 1.17-.18 1.24-.08 1.28-.06 1.25-.05 1.13-.05.99-.14 1.05-.37 1.38-.66 1.34-.55" filter="url(#a)"/><path d="m11.89-83.51 2.26.49 1.56.29 1.31-.34 1.39-1.22 1.53-1.81 1.51-1.71 1.34-1.01 1.11-.1.92.69.85 1.13.87 1.23.96.97 1.08.48 1.23-.1 1.36-.6 1.48-.9 1.59-.99 1.63-.96 1.6-.97L39.01-90l1.7-1 2.38.19" filter="url(#a)"/><path d="m13.28-83.1-1.8-.78-1.03-.44-.89-.18-.89-.2-.91-.34-.94-.46-.98-.48-.99-.4-1-.29-.99-.19-1.03-.13-1.07-.11-1.14-.1-1.19-.13-1.19-.15-1.15-.18-1.04-.19-.92-.23-.83-.32-.84-.44-.95-.51-1.13-.43-1.28-.08-2.19.56 23.42 5.23.74.28 1.05-.01 1.14-.22 1.23-.23 1.24-.1 1.18-.02 1.12.03 1.07.08 1.04.12 1.02.16 1 .14 1.03.06 1.1-.04 1.23-.1 1.41-.15 1.68-.19 1.84-.19" filter="url(#a)"/><path d="m9.99-83.81-1.44-.57-.84-1.01-.84-1.77-.93-2.01-.97-1.68-1.01-1.33-1.02-1.41-1.07-1.79-1.16-2.05-1.28-1.96-1.37-1.58-1.42-1.14-1.37-.87-1.23-.72-1.06-.71-.96-.94-1.04-1.67-1.32-2.58-1.4-2.45.11-.28" filter="url(#a)"/><path d="m7.49-84.17.13-1.34-.68-2.2-.95-1.69-1.03-.94-1.02-.67-1-1.08-1.02-1.94-1.13-2.84-1.29-3.31-1.42-3.03-1.5-2.06-1.46-.98-1.35-.53-1.12-1.03-.74-1.64-.19-.81 13.13 25.5-1.57-.07-.86-.31-.86-.46-1.04-.39-1.18-.22-1.23-.08-1.19-.01-1.09.04-.96.07-.86.08-.83.08-.85.04-.93.01-1.03-.02-1.11-.01h-1.15l-1.18.01h-1.13l-1.01-.01-.84-.02-.76-.02-.83-.06L2.31-84.7l1.78.12 1.22.19 1.04.31.94.38.87.44.84.45.84.43.86.45.89.52.93.62.95.69.99.69.98.64.96.58.91.6.86.7.78.82.72.89.67.88.69.83.71.76.42.63-35.29-4.49 1.47-1.47.99-.96.95-.71.96-.55.91-.39.81-.21.72-.13.69-.15.73-.29.87-.44 1.03-.58 1.17-.71 1.25-.75 1.25-.61 1.13-.28.77-.02 17.06-6.84-.88 1.25-1.23.36-1.35-.24-1.28-.35-1.19-.08-1.11.36-1.09.72-1.06.9-1.03.89-1.02.78-1.02.65-1.05.53-1.08.43-1.07.3-.97.18-.69.09-.38.03-1.44.2-1.34.61-1.26 1.1-1.15 1.2-1 .99-.82.81-.68.86-.61 1.01-.64 1.04-.74.9-.84.67-.89.59-.91.76-.87 1.11-.8 1.45-.6 1.49-.04 1.27" filter="url(#a)"/><path d="m-.53-84.85-2.93.18-2.7.21-2.62.28-2.49.36-2.26.42-2.03.47-1.98.55-2.14.63-2.44.71-2.76.81-2.99.89-3.04.95-2.94 1-2.8 1.03-2.69 1.05-2.72 1.11-2.89 1.17-3.17 1.27-3.45 1.37-3.7 1.48-3.88 1.59-4 1.67-3.99 1.72-3.76 1.77-3.27 1.83-2.91 1.96-3.27 1.98-3.95 1.41" filter="url(#a)"/><path d="m-2.76-84.71-1.95.1-1.63.16-1.89.24-2.4.35-2.87.45-3.15.55-3.21.65-3.08.74-2.95.83-2.95.9-3.17.95-3.58.99-4.07 1.01-4.46 1.04-4.66 1.08-4.56 1.13-4.24 1.19-3.85 1.25-3.57 1.32-3.62 1.39-3.99 1.48-4.55 1.61-5.08 1.76-5.4 1.91-5.45 2-5.21 2-4.89 1.91-5.47 2-8.98 2.81" filter="url(#a)"/><path d="m-6.14-84.54-1.41.3-2.82.39-3.2.44-2.97.49-2.62.55-2.51.64-2.62.73-2.77.83-2.78.91-2.68.97-2.52 1.02-2.44 1.04-2.48 1.08-2.62 1.13-2.81 1.21-2.98 1.3-3.07 1.4-3.15 1.51-3.22 1.59-3.36 1.68-3.54 1.73-3.71 1.79-3.75 1.82-3.6 1.84-3.33 1.85-3.06 1.85-2.89 1.84-2.86 1.9-3.23 1.97-4.32 1.83-5.31.57" filter="url(#a)"/><path d="m-6.41-84.29-1.88.02-2.48.33-2.71.47-3.1.57-3.47.66-3.69.76-3.66.84-3.35.92-2.87.96-2.41.99-2.12 1.01-2.06 1.04-2.22 1.07-2.54 1.13-2.95 1.19-3.36 1.26-3.68 1.31-3.85 1.39-3.92 1.48-4.08 1.61-4.5 1.76-5.2 1.91-5.88 2-6.08 2-5.54 1.9-4.55 2-3.45 2.8" filter="url(#a)"/><path d="m-10.28-83.95-1.86.54-1.7.49-1.79.53-2.16.64-2.68.75-3.15.85-3.4.93-3.35 1-3.11 1.02-2.84 1.06-2.67 1.09-2.61 1.14-2.62 1.23-2.61 1.32-2.56 1.42-2.52 1.52-2.57 1.61-2.78 1.68-3.12 1.75-3.5 1.78-3.74 1.82-3.72 1.84-3.37 1.86-2.84 1.87-2.37 1.88-2.26 1.92-2.67 1.98-3.39 2.09-4 2.24-4.12 2.46-3.69 2.6-3.04 2.25-3.13.73" filter="url(#a)"/><path d="m-8.69-84-2.77.5-2.5.59-2.23.66-2.2.76-2.34.87-2.48.94-2.53.98-2.46 1-2.33 1.01-2.22 1.04-2.21 1.08-2.29 1.14-2.42 1.2-2.56 1.27-2.7 1.33-2.89 1.41-3.15 1.5-3.45 1.63-3.76 1.77-3.94 1.89-3.85 1.96-3.48 1.99-2.86 1.98-2.22 1.98-1.87 2.03-2.09 2-2.29 1.9" filter="url(#a)"/><path d="m-12.22-83.35-1.64.45-1.65.5-2.04.63-2.52.75-2.97.87-3.23.95-3.25 1-3.09 1.04-2.86 1.05-2.73 1.1-2.77 1.14-2.92 1.24-3.04 1.33-2.99 1.43-2.72 1.53-2.32 1.61-1.99 1.69-1.87 1.75-2.05 1.79-2.45 1.82-2.88 1.84-3.16 1.86-3.19 1.88-3.06 1.9-2.99 1.95-3.15 2.02-3.61 2.11-4.16 2.24-4.45 2.37-4.2 2.41-3.51 2.32-2.85 2.12-2.59 1.91-2.77 1.4" filter="url(#a)"/><path d="m-14.21-82.87-1.3.43-2.28.6-2.76.75-2.83.86-2.84.95-2.92 1-3.03 1.03-3.11 1.03-3.14 1.05-3.19 1.09-3.3 1.17-3.49 1.27-3.86 1.39-4.46 1.5-5.3 1.59-6.28 1.67-7.07 1.72-7.26 1.77-6.55 1.82-5.16 1.88-3.78 1.89-3.12 1.71-3.08 1.6" filter="url(#a)"/><path d="m-14.98-82.42-3.47.52-3.13.8-2.61.89-2.36.97-2.38 1.03-2.45 1.04-2.59 1.04-2.85 1.06-3.3 1.11-3.87 1.2-4.4 1.3-4.78 1.41-4.91 1.52-4.85 1.61-4.74 1.68-4.73 1.74-4.83 1.78-4.91 1.82-4.81 1.83-4.54 1.84-4.3 1.83-4.42 1.84-5.09 1.88-6.16 1.96-6.45 1.83-2.23.55" filter="url(#a)"/><path d="m-19.29-81.22-3.23 1.56-1.57 1.19-.75 1.02-.96.99-1.56 1.02-1.97 1.1-2 1.17-1.76 1.25-1.4 1.32-1.05 1.39-.79 1.49-.65 1.59-.6 1.7-.63 1.81-.72 1.9-.79 1.95-.8 1.99-.74 2-.59 2.01-.37 2-.14 2.01.06 2.01.18 2.03.2 2.07.1 2.14-.04 2.21-.17 2.28-.17 2.33.01 2.38.34 2.44.74 2.52.99 2.63 1.03 2.59 1.05 2.25.76 1.66" filter="url(#a)"/><path d="m-22.56-79.93-3.2 1.68-2.51 1.3-1.98 1.06-1.86.99-2.05 1.09-2.33 1.22-2.53 1.35-2.56 1.47-2.43 1.57-2.18 1.65-1.92 1.72-1.75 1.77-1.74 1.8-1.88 1.83-2.09 1.85-2.29 1.86-2.37 1.88-2.3 1.91-2.14 1.97-1.95 2.04-1.84 2.13-1.83 2.22-1.88 2.29-1.88 2.3-1.73 2.24-1.46 2.12-1.24 2.01-1.27 2.01-1.68 2.23-2.27 2.81-2.61 3.86" filter="url(#a)"/><path d="m-27.91-77-2.92.57-1.72.95-2.12 1.09-2.58 1.19-2.83 1.26-3.06 1.31-3.44 1.37-3.98 1.46-4.53 1.57-4.87 1.69-4.88 1.81-4.57 1.91-3.99 1.97-3.29 1.99-2.55 1.99-1.87 2-1.36 1.99-1.19 1.98-1.44 1.97-2.1 1.96-2.92 2-3.66 2.08-4.17 2.21-4.46 2.36-4.46 2.39-4.07 2.14-3.33 1.16" filter="url(#a)"/><path d="m-28.81-76.46-7.35.82-2.34.79-.79 1.01-.31 1.25-.55 1.4-1.27 1.51-2.23 1.6-3.19 1.69-3.9 1.74-4.12 1.78-3.81 1.82-3.11 1.85-2.37 1.86-1.85 1.88-1.74 1.91-1.98 1.95-2.43 2-2.82 2.08-3.01 2.14-2.94 2.21-2.65 2.24-2.31 2.25-2.06 2.25-1.99 2.24-2.12 2.26-2.4 2.33-2.73 2.45-3.05 2.59-3.25 2.7-3.22 2.74-2.85 2.7-2.19 2.59-1.46 2.43-1.28 2.23-2.05 1.89-2.52 1.3" filter="url(#a)"/><path d="m-28.36-76.85-3.37 1.3-2.48 1.17-2.59 1.23-2.31 1.28-1.88 1.33-1.75 1.39-2.03 1.48-2.56 1.6-3.03 1.72-3.28 1.84-3.24 1.93-3.03 1.97-2.78 2-2.61 2.01-2.53 2.01-2.52 2-2.49 2.01-2.43 2.01-2.35 2.03-2.32 2.08-2.4 2.14-2.57 2.21-2.75 2.28-2.89 2.34-2.94 2.39-2.93 2.45-2.91 2.51-2.88 2.56-2.84 2.58-2.77 2.57-2.53 2.61-1.86 2.79-2.58 2.65" filter="url(#a)"/><path d="m-30.99-75.21-1.62 1.07-1.92 1.38-2.1 1.48-2.3 1.52-2.53 1.58-2.67 1.67-2.59 1.73-2.31 1.78-1.94 1.8-1.62 1.82-1.41 1.83-1.36 1.85-1.43 1.85-1.6 1.87-1.78 1.92-1.91 1.99-1.94 2.1-1.89 2.24-1.79 2.36-1.71 2.4-1.61 2.29-1.46 2.07-1.43 1.88-1.51 1.38" filter="url(#a)"/><path d="m-33.7-72.82-1.68 1.06-1.44 1.29-1.44 1.35-1.48 1.45-1.5 1.57-1.51 1.74-1.48 1.88-1.45 1.96-1.37 2-1.28 2.01-1.19 2.01-1.09 2-.98 1.99-.89 1.99-.8 2-.72 2.01-.66 2.07-.63 2.13-.6 2.2-.56 2.28-.5 2.33-.38 2.38-.24 2.43-.13 2.51-.09 2.57-.14 2.57-.17 2.49-.06 2.56-.1 3.52" filter="url(#a)"/><path d="m-33.7-72.82-1.23 1.07.69 1.3 1.82 1.36 1.13 1.46-.17 1.6-.99 1.75-1.08 1.89-.73 1.97-.27 2.01.05 2.02.24 2.02.34 2.01.41 2.01.49 2.01.51 2.03.46 2.05.31 2.1.09 2.16-.16 2.23-.32 2.29-.29 2.36.04 2.41.67 2.46 1.48 2.51 2.23 2.56 2.61 2.6 2.5 2.63 1.92 2.66 1.22 2.71.74 2.72.75 2.7 1.23 2.59 2.16 2.47 3.32 2.66 2.6 4.21m-28.75-75.12-2.65.87-1.41 1.37-1.78 1.7-2.5 1.79-3.31 1.79-4.13 1.8-4.77 1.83-5.02 1.83-4.73 1.84-3.9 1.84-2.79 1.87-1.72 1.92-1.04 2-.9 2.11-1.29 2.23-2.03 2.33-2.94 2.35-3.85 2.25-4.63 2.05-4.99 1.85-4.07 1.68-.5 1.59M-42.1-66.4l-1.92 2.24-1.75 1.73-2.26 1.74-3.12 1.84-3.82 1.88-4 1.88-3.62 1.89-3 1.93-2.45 2-2.17 2.09-2.17 2.17-2.36 2.24-2.54 2.26-2.56 2.27-2.34 2.25-1.91 2.25-1.47 2.28-1.19 2.36-1.24 2.47-1.64 2.57-2.37 2.64-3.23 2.66-4.09 2.63-4.76 2.56-5.05 2.49-4.91 2.46-4.36 2.49-3.56 2.58-2.71 2.69-2.02 2.74-1.78 2.69-2.26 2.72-2.49 3.14" filter="url(#a)"/><path d="m-43.5-64.55-2.23 2.15-2.11 2.3-1.86 2.12-1.84 2.01-2.01 1.99-2.33 2-2.78 2.01-3.22 2.01-3.46 2.02-3.39 2.05-2.99 2.11-2.47 2.19-2 2.25-1.75 2.33-1.69 2.38-1.76 2.44-1.82 2.48-1.8 2.53-1.68 2.57-1.49 2.61-1.29 2.64-1.14 2.66-1.02 2.68-.97 2.68-.92 2.67-.91 2.66-.94 2.64-1.1 2.62-1.44 2.6-1.88 2.58-2.29 2.53-2.45 2.47-2.3 2.39-1.99 2.31-1.74 2.24-1.2 2.31.76 2.4" filter="url(#a)"/><path d="m-45.3-62.26-2.72 3.25-1.72 2.26-1.3 1.88-1.2 1.81-1.22 1.88-1.28 1.98-1.3 2.09-1.27 2.19-1.19 2.26-1.08 2.29-.99 2.28-.92 2.23-.9 2.23-.9 2.26-.92 2.35-.93 2.46-.93 2.59-.89 2.65-.83 2.66-.72 2.62-.59 2.55-.48 2.48-.36 2.44-.3 2.48-.24 2.58-.23 2.68-.27 2.74-.3 2.68-.2 2.71.13 3.13" filter="url(#a)"/><path d="m-47.16-59.77-1.79 2.21-1.51 1.77-1.55 1.88-1.5 1.99-1.43 2.02-1.39 2.01-1.39 2-1.42 2.03-1.46 2.09-1.52 2.18-1.58 2.26-1.63 2.32-1.62 2.38-1.55 2.43-1.41 2.48-1.23 2.52-1.04 2.57-.86 2.6-.7 2.64-.57 2.66-.5 2.67-.48 2.68-.51 2.67-.62 2.64-.73 2.63-.81 2.62-.79 2.6-.64 2.59-.41 2.54-.19 2.49-.1 2.42-.04 2.16.05 1.34" filter="url(#a)"/><path d="m-49.51-56.73-13.55 1.03 1.09 1.78 1.48 2.03-.98 2.06-2.99 2.02-3.84 1.99-3.85 2.03-3.64 2.09-3.66 2.18-3.93 2.27-4.17 2.33-4.09 2.39-3.55 2.43-2.64 2.49-1.66 2.53-.81 2.57-.28 2.61-.08 2.64-.21 2.66-.61 2.67-1.22 2.68-1.93 2.66-2.55 2.65-2.92 2.63-2.86 2.62-2.41 2.59-1.79 2.57-1.42 2.53-1.72 2.46-2.79 2.39-4.05 2.29-4.22 2.24-2.38 2.31-1.15 2.39" filter="url(#a)"/><path d="m-53.58-50.91-1.34 1.52-2.65 1.86-3.09 1.91-2.77 1.96-2.39 2.08-2.28 2.2-2.35 2.3-2.41 2.37-2.34 2.41-2.14 2.45-1.87 2.5-1.55 2.54-1.28 2.59-1.1 2.62-1.08 2.65-1.24 2.66-1.59 2.68-2 2.67-2.4 2.67-2.65 2.65L-96.8-1l-2.51 2.61-2.14 2.58-1.67 2.55-1.23 2.51-.92 2.46-.81 2.42-.84 2.4-.87 2.41-.77 2.45-.47 2.52v2.57l.5 2.52.82 2.39.33 2.11-2.19 1.32" filter="url(#a)"/><path d="m-61.31-34.31-9.8 2.56-2.07 2.21-1.4 2.46-1.23 2.61-1.15 2.63-1.32 2.62-1.68 2.63-1.98 2.65-2.04 2.67-1.77 2.67-1.31 2.64-.81 2.62-.52 2.59-.52 2.58-.83 2.56-1.29 2.53-1.75 2.48-2.1 2.42-2.26 2.37-2.19 2.33-1.79 2.35-1.17 2.42-.65 2.54-.81 2.65-2.01 2.49-4.05 1.54m47.44-61.27 2.32 1.25 1.46 2.4-.05 2.68-.17 2.66.27 2.61.6 2.61.73 2.65.89 2.67 1.15 2.66 1.33 2.64 1.26 2.6.96 2.59.69 2.57.69 2.55 1 2.53 1.44 2.47 1.83 2.42 2.14 2.35 2.62 2.31 3.4 2.3 4.17 2.39 4.12 2.59 2.54 2.9 1.22 3.32" filter="url(#a)"/><path d="m-62.37-30.76-1.4 1.28-1.19 2.43-1.15 2.71-1.15 2.69-1.5 2.65-2.2 2.65-2.94 2.67-3.3 2.69-3.15 2.69-2.55 2.66L-84.59-3l-.79 2.61-.04 2.59.36 2.56.29 2.52-.26 2.49-1.11 2.45-2.03 2.42-2.66 2.42-2.76 2.42-2.23 2.45-1.25 2.47-.13 2.48.77 2.46 1.21 2.43 1.22 2.38.93 2.34.53 2.26.08 2.14-.35 1.94-.51 1.73-.31 1.56-.04 1.55" filter="url(#a)"/><path d="m-62.62-29.46-7.27 3.36-6.15 3.35-1.78 2.98 1.2 2.7 1.87 2.54 1.12 2.46-.09 2.43-1.17 2.47-1.88 2.54-2.1 2.63-1.84 2.67-1.21 2.7-.45 2.69.21 2.64.56 2.59.54 2.53.2 2.49-.35 2.47-.94 2.46-1.43 2.44-1.73 2.4-1.79 2.32-1.63 2.24-1.34 2.16-1.07 2.13-.92 2.17-.82 2.26-.6 2.35-.13 2.42.43 2.4.6 2.36-.68 2.5M56.76-45.26l1.69 2.5 3.1 2.53 3.3 2.52 2.59 2.48 1.57 2.43.73 2.38.37 2.33.45 2.31.83 2.32 1.36 2.37 1.96 2.43 2.62 2.48 3.26 2.54 3.73 2.59 3.89 2.63 3.57 2.66 2.82 2.68 1.79 2.67.83 2.63.36 2.57.69 2.51 1.78 2.48 3.16 2.49 3.89 2.54 3.22 2.62 1.1 2.77-1.15 2.9-.88 2.64" filter="url(#a)"/><path d="m54.77-48.72 1.93 2.47 3.2 2.35 3.36 2.41 2.94 2.46 2.72 2.46 2.78 2.42 2.79 2.37 2.64 2.32 2.47 2.31 2.34 2.33 2.24 2.4 2.06 2.49 1.77 2.59 1.48 2.67 1.31 2.73 1.32 2.75 1.46 2.73 1.6 2.67 1.61 2.58 1.53 2.5 1.37 2.43 1.24 2.4 1.13 2.42 1.07 2.47 1.11 2.51 1.35 2.52 1.76 2.48 1.95 2.43 1.6 2.44 1.43 2.53 3.92 2.5M54.77-48.72l1.35 2.47 1.58 2.36 2.13 2.42 2.25 2.46 1.81 2.46 1.24 2.42.93 2.38.9 2.33 1.03 2.31 1.15 2.35 1.16 2.41 1.06 2.5.91 2.59.77 2.68.69 2.73.71 2.74.85 2.72 1.06 2.66 1.29 2.59 1.45 2.51 1.49 2.45 1.39 2.42 1.22 2.44 1.09 2.47.99 2.5.94 2.51.84 2.51.61 2.51.25 2.57-.14 2.71-.47 2.89-.75 2.94-.32 2.21" filter="url(#a)"/><path d="m51.8-53.71 1.53 2.49 1.76 2.21 2.39 2.09 2.62 2.09 2.34 2.19 1.94 2.3 1.81 2.37 2.06 2.41 2.54 2.4 2.97 2.38 3.19 2.35 3.08 2.33 2.7 2.34 2.18 2.38 1.6 2.42 1.08 2.47.72 2.53.59 2.58.71 2.63 1.01 2.66 1.34 2.7L93.47-.7l1.4 2.66 1.03 2.57.6 2.49.39 2.45.57 2.5 1.11 2.41 2.27 1.99" filter="url(#a)"/><path d="m50.3-55.64 3.95 1.37 3.21 2.05 1.08 2.05.49 2.02.93 2.07 1.57 2.17 1.96 2.28 2.03 2.35 1.95 2.39 1.81 2.39 1.68 2.37 1.5 2.34 1.28 2.33 1.01 2.34.77 2.4.66 2.47.69 2.57.84 2.66 1.06 2.73 1.25 2.76 1.37 2.75 1.35 2.7 1.23 2.6 1.05 2.49.89 2.39.8 2.34.77 2.37.78 2.51.94 2.62 1.46 2.55 1.83 2.96m-53-87.51 6.53 2.28 5.47 1.81L56.31-63l3.35 1.72 1.97 1.82 1.41 1.89 1.46 1.94 1.7 1.96 1.93 1.97 2.28 1.98 2.84 2.01 3.53 2.05 4.17 2.12 4.67 2.2 5.04 2.3 5.32 2.37 5.41 2.42 5.33 2.41 5.47 2.34 6.43 2.18 8.38 1.96 11.57 2.26" filter="url(#a)"/><path d="m38.16-69.76 2.93 2.68 2.16 1.9 1.61 1.59 1.38 1.57 1.41 1.68 1.5 1.81 1.53 1.92 1.48 1.97 1.4 2 1.32 2.02 1.26 2.06 1.21 2.1 1.21 2.16 1.2 2.24 1.22 2.3 1.25 2.35 1.27 2.36 1.27 2.36 1.24 2.34 1.2 2.32 1.12 2.32 1.04 2.35.93 2.42.81 2.53.66 2.65.5 2.78.35 2.86.26 2.86.31 2.76.49 2.48.65 2.02" filter="url(#a)"/><path d="m36.36-70.92 2.8 1.23 4.15 1.52 3.14 1.68 1.57 1.71.68 1.74.57 1.78.91 1.84 1.38 1.9 1.8 1.95 2.11 1.98 2.26 1.99 2.25 2.03 2.11 2.06 1.88 2.1 1.62 2.17L67.03-41l1.41 2.31 1.55 2.36 1.88 2.38 2.28 2.38 2.66 2.36 2.93 2.32 3.01 2.31 2.89 2.33 2.64 2.38 2.28 2.45 1.85 2.54 1.34 2.58.9 2.68.22 3.48" filter="url(#a)"/><path d="m34.49-72.75 1.79 1.58 2.03 1.46 2.54 1.57 2.81 1.66 2.69 1.71 2.38 1.75 2.15 1.8 2.17 1.85 2.44 1.91 2.89 1.95 3.36 1.99 3.64 2.01 3.64 2.04 3.31 2.08 2.77 2.14 2.21 2.19 1.78 2.26 1.61 2.31 1.73 2.35 2.15 2.38 2.78 2.38 3.58 2.37 4.37 2.36 4.94 2.36 5.11 2.38 4.72 2.43 3.76 2.47 2.49 2.53 1.28 2.58.62 2.62.89 2.68 2.03 2.75 3.44 2.84 4.2 2.89 3.71 2.72 1.18 1.93M30.32-75.73l-2.06-1.06-1.77-.86-1.81-.9-1.83-.9-1.83-.84-1.88-.77-1.92-.69-1.98-.62-2.02-.54-2.03-.47-2.02-.38-2.01-.31-2-.24-1.99-.16-1.97-.08-1.93-.02-1.87.05-1.79.11-1.72.19-1.7.26-1.72.34-1.79.43-1.83.53-1.8.61-1.78.71-1.84.86-2.11 1.05-2.17 1.15" filter="url(#a)"/><path d="m29.86-76.11.57-.8-.25-.95-1.82-.95-2.15-.91-1.97-.84-1.86-.77-1.97-.69-2.16-.61-2.31-.51-2.39-.43-2.45-.35-2.53-.28-2.63-.21-2.81-.14-3.04-.07-3.3.01-3.54.09-3.68.17-3.8.25-4.03.33-4.53.43-5.04.47" filter="url(#a)"/><path d="m28.15-76.75-1.35-1.13-.92-.99-.99-.91-1.06-.84-1.12-.77-1.38-.68-1.84-.6-2.26-.51-2.54-.41-2.64-.34-2.7-.28-2.83-.2-3.06-.14-3.37-.06-3.68.02-3.94.1-4.08.18-4.13.25-4.18.34-4.28.4-4.14.45-3.07.45" filter="url(#a)"/><path d="m24.25-78.89-1.33-.84-1.46-.77-1.62-.72-1.6-.67-1.62-.6-1.78-.53-2.01-.45-2.19-.37-2.32-.3-2.39-.22-2.44-.15-2.48-.07-2.52-.01-2.54.05-2.58.12-2.66.19-2.86.26-3.13.35-3.4.44-3.51.52-3.48.62-3.41.71-3.6.86-4.36 1.05-5.21 1.14" filter="url(#a)"/><path d="m22.59-79.86-1.47-.7-1.83-.72-1.97-.67-2.05-.61-2.09-.52-2.08-.44-2.06-.36-2.05-.28-2.06-.2-2.09-.13-2.1-.06-2.11.01-2.1.09-2.1.15-2.1.23-2.16.31-2.22.4-2.3.48-2.37.59-2.41.68-2.4.77-2.37.84-2.31.92-2.24.96-2.2.98-2.18 1.01-2.2 1.04-2.23 1.09-2.25 1.17-2.27 1.24-2.23 1.3-2.18 1.36-2.2 1.56" filter="url(#a)"/><path d="m16.33-82.22-3.17-.85-1.95-.44-1.69-.32-1.78-.27-1.93-.22-2.02-.17-2.1-.08H-.47l-2.22.08-2.27.15-2.27.24-2.27.3-2.23.37-2.21.44-2.2.51-2.21.58-2.25.67-2.28.76-2.33.85-2.38.94-2.41.98-2.4 1.01-2.33.99-2.22.99-2.23 1.07-2.5 1.27-2.85 1.49-2.07 1.25" filter="url(#a)"/><path d="m14.78-82.99-.42-.32-1.2-.4-2.28-.33-2.64-.25-2.61-.18-2.55-.12-2.55-.05-2.61.03-2.69.09-2.81.15-2.93.23-3.03.3-3.1.39-3.17.49-3.33.58-3.66.67-4.17.77-4.79.86-5.39.93-5.76.97-5.76.97-5.31.97-4.67.99-4.54 1.05-5.75 1.14-7.37 1.05" filter="url(#a)"/><path d="m11.89-83.51-1.09-.15-1.29-.22-1.74-.25-2-.22-2.12-.16-2.24-.07-2.36.01-2.5.1-2.59.17-2.65.26-2.65.32-2.61.4-2.55.46-2.52.55-2.55.62-2.68.71-2.89.79-3.14.86-3.4.93-3.59.98-3.67 1.03-3.7 1.07-3.68 1.13-3.73 1.19-3.9 1.29-4.18 1.38-4.48 1.48-4.71 1.58-4.74 1.67-4.59 1.74-4.36 1.79-4.26 1.83-4.31 1.88-4.33 1.89-3.9 1.82-3.09 1.77-3.14 1.94" filter="url(#a)"/><path d="m9.99-83.81-1.92-.32-2.17-.28-2.13-.18-2.16-.08-2.26.02-2.32.09-2.35.17-2.33.25-2.31.31-2.33.38-2.37.44-2.45.51-2.57.58-2.7.67-2.86.76-3.02.85-3.19.94-3.24 1-3.1 1.01-2.76.97-2.38.93-2.36 1-2.94 1.33-4.44 2.11" filter="url(#a)"/></g><g fill="none" stroke="#000"><circle cx="9.996" cy="33.534" r="2.22" filter="url(#a)"/><circle cx="12.444" cy="32.438" r="2.982" filter="url(#a)"/><circle cx="11.276" cy="33.662" r="2.376" filter="url(#a)"/><circle cx="12.448" cy="34.418" r="1.65" filter="url(#a)"/><circle cx="8.824" cy="32.522" r="2.138" filter="url(#a)"/><circle cx="9.124" cy="32.026" r="2.804" filter="url(#a)"/><circle cx="12.148" cy="35.086" r="2.62" filter="url(#a)"/><circle cx="12.576" cy="34.362" r="1.086" filter="url(#a)"/><circle cx="8.896" cy="33.862" r="2.238" filter="url(#a)"/><circle cx="12.524" cy="32.022" r="2.276" filter="url(#a)"/><circle cx="-7.266" cy="28.668" r="1.288" filter="url(#a)"/><circle cx="-6.902" cy="31.016" r="2.728" filter="url(#a)"/><circle cx="-8.626" cy="29.252" r="1.52" filter="url(#a)"/><circle cx="-7.63" cy="31.656" r="1.16" filter="url(#a)"/><circle cx="-8.058" cy="30.112" r="2.764" filter="url(#a)"/><circle cx="-8.342" cy="30.096" r="1.672" filter="url(#a)"/><circle cx="-9.782" cy="29.492" r="2.124" filter="url(#a)"/><circle cx="-9.97" cy="30.968" r="2.826" filter="url(#a)"/><circle cx="-6.342" cy="30.692" r="1.16" filter="url(#a)"/><circle cx="-9.726" cy="29.032" r="2.428" filter="url(#a)"/></g><path fill="#BFCC66" stroke="#000" stroke-linejoin="round" stroke-width="3" d="m-33.88 31.09.51 1.49.52 1.44.53 1.39.55 1.35.56 1.31.58 1.26.58 1.21.6 1.18.61 1.13.63 1.08.63 1.05.65 1 .65.97.67.92.67.89.69.84.69.81.7.77.71.74.72.69.72.66.74.63.73.59.75.56.75.52.76.5.76.45.77.43.77.4.77.36.78.34.79.31.78.27.79.25.79.22.79.2.8.17.79.14.8.12.79.09.8.07.79.04.8.02h.79l.8-.02.79-.04.79-.07.78-.08.79-.11.78-.12.77-.14.77-.16.77-.17.76-.2.76-.2.75-.23.75-.24.74-.25.73-.26.73-.28.72-.29.71-.31.7-.31.7-.33.68-.33.68-.35.67-.35.65-.36.65-.37.64-.38.62-.38.62-.39.6-.4.59-.4.57-.4.57-.41.55-.41.54-.41.52-.42.51-.42.49-.41.48-.42.46-.42.45-.41.43-.42.41-.41.4-.41.38-.41.36-.4.35-.4.32-.39.31-.39.29-.38.27-.37.24-.37.23-.36.21-.35.18-.34.17-.33-.62-.09-.63-.08-.62-.09-.62-.09-.62-.08-.63-.09-.62-.08-.62-.09-.62-.08-.63-.09-.62-.08-.62-.09-.62-.08-.62-.08-.63-.08-.62-.09-.62-.08-.62-.08-.63-.09-.62-.08-.62-.08-.62-.09-.62-.08-.63-.08-.62-.09-.62-.08-.62-.08-.63-.09-.62-.08-.62-.09-.62-.08-.63-.09-.62-.09-.62-.08-.62-.09-.62-.09-.63-.09-.62-.09-.62-.09-.62-.09-.63-.09-.62-.1-.62-.09-.62-.09-.62-.1-.63-.1-.62-.09-.62-.1-.62-.1-.63-.1-.62-.1-.62-.11-.62-.1-.63-.11-.62-.1-.62-.11-.62-.11-.62-.11-.63-.11-.62-.12-.62-.11-.62-.12-.63-.11-.62-.12-.62-.13-.62-.12-.62-.12-.63-.13-.62-.13-.62-.13-.62-.13-.63-.13-.62-.14-.62-.14-.62-.13-.63-.15-.62-.14-.62-.14-.62-.15-.62-.15-.63-.15-.62-.16-.62-.15-.62-.16-.63-.16-.62-.17-.62-.16-.62-.17-.62-.17-.63-.18-.62-.17-.62-.18-.62-.18-.63-.18-.62-.19-.62-.19-.62-.19-.63-.19-.62-.2" filter="url(#a)"/></svg>