<svg xmlns="http://www.w3.org/2000/svg" width="500" height="500" viewBox="-100 -100 200 200"><defs><clipPath id="c"><path d="m30.79-2.78-.12-.23-.16-.22-.2-.22-.23-.21-.26-.2-.3-.2-.33-.19-.37-.18-.4-.18-.43-.17-.47-.17-.5-.16-.53-.16-.56-.15-.6-.14-.52-.17-.57-.17-.63-.16-.68-.16-.73-.14-.78-.14-.83-.13-.87-.12-.91-.11-.95-.11-.98-.09-1.02-.09-1.05-.08-1.08-.07-1.11-.06-1.12-.05-1.14-.05L9.2-7.5l-1.17-.02-1.18-.02-1.18-.01-1.19-.01-1.18.01-1.18.01-1.18.02-1.17.03-1.16.03-1.14.05-1.13.04-1.11.06-1.08.06-1.07.07-1.04.08-1.02.08-.99.09-.97.09-.93.1-.91.1-.87.11-.84.12-.82.11-.78.12-.75.13-.71.13-.69.13-.66.14-.63.13-.6.14-.57.15-.55.14-.52.15-.49.15-.47.15-.45.16-.41.15-.4.16-.37.17-.35.16-.32.17-.31.17-.28.17-.26.17-.23.18-.22.18.96 2.05.28.25.3.25.32.26.33.25.34.26.37.25.38.26.4.25.41.26.44.25.45.25.47.26.48.25.51.25.52.25.54.24.56.25.59.25.6.24.62.25.65.23.67.24.68.23.71.23.73.22.75.21.77.2.79.2.81.19.83.18.84.17.86.16.88.15.9.14.9.13.92.11.94.1.94.08.95.07.96.06.97.04.97.02.98.01.98-.01.98-.03.98-.04.98-.06.97-.07.97-.1.96-.11.95-.13.95-.14.93-.17.92-.17.9-.2.88-.21.87-.23.85-.24.83-.26.8-.27.79-.28.76-.3.73-.3.71-.32.67-.24.65-.24.63-.24.62-.25.6-.26.58-.26.56-.27.54-.27.53-.27.5-.27.48-.28.45-.27.44-.28.41-.27.38-.28"/></clipPath><clipPath id="b"><path d="m-30.95-2.07.12-.24.16-.23.19-.22.23-.22.27-.2.31-.2.34-.19.38-.18.42-.17.45-.16.49-.16.52-.15.56-.14.59-.14.62-.13.55-.14.61-.14.67-.13.72-.13.77-.11.82-.12.86-.1.92-.1.95-.09.99-.09 1.03-.08 1.06-.08 1.09-.07 1.12-.06L-12-6.3l1.17-.05 1.17-.05 1.2-.04 1.2-.04 1.21-.03 1.21-.02 1.22-.02 1.21-.02 1.2-.01h3.56l1.16.01 1.14.02 1.12.02 1.1.02 1.07.03 1.05.03 1.02.03 1 .04.96.04.93.04.9.05.87.05.84.05.81.06.77.06.74.06.71.06.68.06.65.07.62.06.59.07.57.07.54.07.52.07.49.07.46.08.44.07.42.08.39.08.37.07.35.08.33.08.3.08.29.09.26.08.25.08.22.08-2.51 2.22-.33.2-.36.21-.36.2-.38.21-.4.21-.41.22-.42.22-.44.22-.46.22-.47.23-.48.22-.51.23-.51.24-.53.23-.55.24-.56.24-.59.24-.6.24-.61.25-.64.25-.65.25-.67.25-.69.25-.71.25-.73.25-.74.25-.76.24-.77.25-.79.24-.81.23-.82.24-.84.22-.84.22-.87.21-.87.2-.88.2-.9.18-.9.17-.91.16-.92.15-.92.13-.93.12-.94.1-.93.08-.94.07-.94.05-.93.03-.93.01-.93-.01-.93-.03-.92-.05-.91-.08-.9-.1-.89-.12-.88-.14-.87-.17-.86-.19-.83-.21-.83-.24-.8-.25-.79-.28-.77-.3-.74-.32-.73-.34-.66-.22-.65-.22-.63-.24-.62-.24-.6-.25-.58-.26-.57-.26-.54-.27-.53-.28-.51-.28-.48-.28-.47-.29-.44-.29-.42-.28-.39-.29"/></clipPath><linearGradient id="d" x1="0%" x2="100%" y1="0%" y2="0%"><stop offset="0%" style="stop-color:#b1a40d;stop-opacity:1"/><stop offset="13.6%" style="stop-color:#53f42f;stop-opacity:1"/><stop offset="100%" style="stop-color:#a70314;stop-opacity:1"/></linearGradient><filter id="a"><feTurbulence baseFrequency=".05" numOctaves="3" result="noise" type="noise"/><feDisplacementMap in="SourceGraphic" in2="noise" scale="2"/></filter></defs><rect width="100%" height="100%" x="-100" y="-100" fill="#F2A6EC"/><path fill="#20DF31" stroke="#000" stroke-linejoin="round" stroke-width="1.667" d="m70.64 1.97.07-.2-.07-.23.1 3.34-.21.74.24-.01-.39 3.48-.08-.4.11.7-.39 2.88.23-.77-.93 5.52.33-.87-.3 1.3-.3.5-.17 1.25-.3 2.52-.45 1.71-.37 1.25-.53 1.81.38-.47-.78 1.71-.17.81-.69 2.87-.7 2.16-.21.44-.12.8-.55 1.34-.11.11.09-.28-1.2 3.12-.8 2.23-.71 1.12-.17.05-.82 2.3-.01-.22-1.57 2.65.41-.37-.46.47-1.41 2.98-.61 1.29.13-.38-1.39 2.16h.01l-.85 1.32-.61.33-1.24 2.05-.9 1.4-.47.28-.6.93-1.73 2.2-.17.53-.32.34-.27.32-.88 1.01-3.31 2.95 1.32-1.21-2.76 2.7-.32.27L41 70.54l1.59-1.34-1.11.99-2.19 2.01-1.92 1.07.04-.02-.93.85-.48.46-1.32.57.76-.09-1.15.68-.76.55-2.54 1.48-.01.23-2.22.85-.43.33-2.39 1.06.82-.29-.68.57-1.27.61-2.09.87-1.13.2-.09.13-1.61.86-1.44.11.22.33-1.64.29h-.43l-2.04.75-1.88.4.53.06-2.72.47-1.66.18.06.07-2.12.19-.15-.15-1.1.39-1.08.08-2.3.07.97.14-1.63-.03-1.66.08-.61-.04-2.67-.33 1.21.07-1.25.22-2.19-.4-1.89.01.2-.07-2.72-.44.47.11-2.37-.62-1.16-.09-.01-.06.1.06-2.93-.65.23-.25-.99-.07-2.43-.88.22-.1-1.7-.6-.35.26-.74-.74-2.99-.97-.46-.27-.1-.22-1.64-.53-2.2-.99.25-.29-1.36-.69-.27-.2-1.4-.58-2.26-1.58-1.01-.58-.83-.48-.92-.87-.02.04-.35-.47-1.99-1.3-.01-.28-1.29-1.12-1.02-.52-.39-.73-1.33-1.17-.21.1-2.05-2.1-.73-.6-.72-1.21-.34-.03-.43-.82-2.28-2.59.17.38-.85-1.27-.44-.67-.99-1.04-.82-1.07-1.46-2.42-.42-.5-1.52-1.82.58.79-.99-1.72-1.21-2.04.75.83-1.74-2.62-.17-.5-1.2-1.96.32.22-.74-1.66-.09-.3-1.41-2.55.33.03-1.43-3.03-.26.11.06-.72-1.16-3.11.32 1.01-.8-1.91-.7-1.78-.2-.52-.35-1.36-.5-1.68-.6-2.01-.29-2.46.14.52-.66-2.15-.22-.97-.53-1.9.13-.49.04-.08-.28-.57-.35-3.92-.08 1.36-.27-4.5-.14.92-.17-2.25-.06-.53-.1-.17-.02-2.81-.2-3.69-.05.25-.09-2.59.22-1.24.05.57.06-2.81-.22-.15.17-.38-.01-2.98.31-1.45-.2-.93.27-.92.35-1.73-.25-1.05.45-2.91.24-.53.11-1.45.03-.55.21-.24.77-4.14.39-1.59-.26 1.26.39-1.32.79-2.97-.23.09.85-2.73.15-.45.61-2.06.17.19.66-2.54.76-1.84.07-.17.71-2.18.29-.57-.24.84 1.43-3.53.04-.01.65-1.54 1.2-1.83 1.02-1.66-.14.1.62-1.49.7-1.44.43-.51.27-.74 1.92-2.79-.28.87 1.44-2.15.11-.6-.26.32 2.07-2.63v-.3l1.07-.98.65-1.05 1.16-.92.76-1.3-.24.24 2.17-2.25.55-.57-.49.15 1.93-1.43 1.34-1.6.15.21.86-1.12.34-.34 1.8-1.49 1.38-1 .95-.81-.08.11 2.67-1.98.05-.3.35-.21.73-.51-.29.16 1.93-.94 3.36-2.13 1.72-.71-1.04.19 2.44-.85.86-.48.15.03.99-.73 2.19-.87-2.41 1.04 3.48-1.3-.72.22 3.23-1.07-1.19.4 3.09-.86-.6-.27.59.05 2.92-.72 1.18-.32-.37.21 1.17-.35 3.74-.66-.56.02 1.83-.13.5.17.96-.39 2.86.11.14-.17.98.07 1.53-.19-.9-.07 2.63.16.54.28H4.6l.57.11 1.52.22 1.66-.01-.46-.26 2.04.5 1.14.37 1.73.39-.01-.08 1.79.45 2.38.64.17.08 1.14.34.21.13 1.64.3 2.63 1.25-1.01-.62.98.6 1.44.72-.23-.33 2.27.97 1.28.87.41.24 1.99.93v-.18l2.93 1.69.34.36.43.63.24-.09.79.61 1.07.56.65.75 1.49 1.03.64.31.97.79 1.15 1.07 1.16 1.16.76.38 1.3 1.41 1.39 1.63-.54-1.02 2.29 2.36-.73-.68 1.34 1.62.57.59 1.45 1.85 1.29 1.54.44.3.29.37-.07-.32 1.07 1.75.24.3.68 1.03 1.13 1.95.64.52 1.15 2.24.81 1.42-.32-.7 1.67 2.57 1.22 2.52-.48-1.42.05.64 1.5 2.72-.05-.22 1.26 3.16.32.71.71 1.49-.06-.68 1.03 3.33.26.5 1.07 3.04-.3-.94.84 2.61.14.45.09.53.74 2.19.52 2.13.32 1.32.37 1.45-.52-1.73.71 2.57-.05.27.49 2.25.46 1.51.47 2.68.18 1.26.2 1.5-.27-.47.64 3.17-.1 1.86.23.28-.05.82.23 2.2-.14 1.17.26.44-.2 1.07-.04 4.07.07-.2" filter="url(#a)"/><path fill="#fff" d="m-30.95-2.07.12-.24.16-.23.19-.22.23-.22.27-.2.31-.2.34-.19.38-.18.42-.17.45-.16.49-.16.52-.15.56-.14.59-.14.62-.13.55-.14.61-.14.67-.13.72-.13.77-.11.82-.12.86-.1.92-.1.95-.09.99-.09 1.03-.08 1.06-.08 1.09-.07 1.12-.06L-12-6.3l1.17-.05 1.17-.05 1.2-.04 1.2-.04 1.21-.03 1.21-.02 1.22-.02 1.21-.02 1.2-.01h3.56l1.16.01 1.14.02 1.12.02 1.1.02 1.07.03 1.05.03 1.02.03 1 .04.96.04.93.04.9.05.87.05.84.05.81.06.77.06.74.06.71.06.68.06.65.07.62.06.59.07.57.07.54.07.52.07.49.07.46.08.44.07.42.08.39.08.37.07.35.08.33.08.3.08.29.09.26.08.25.08.22.08-2.51 2.22-.33.2-.36.21-.36.2-.38.21-.4.21-.41.22-.42.22-.44.22-.46.22-.47.23-.48.22-.51.23-.51.24-.53.23-.55.24-.56.24-.59.24-.6.24-.61.25-.64.25-.65.25-.67.25-.69.25-.71.25-.73.25-.74.25-.76.24-.77.25-.79.24-.81.23-.82.24-.84.22-.84.22-.87.21-.87.2-.88.2-.9.18-.9.17-.91.16-.92.15-.92.13-.93.12-.94.1-.93.08-.94.07-.94.05-.93.03-.93.01-.93-.01-.93-.03-.92-.05-.91-.08-.9-.1-.89-.12-.88-.14-.87-.17-.86-.19-.83-.21-.83-.24-.8-.25-.79-.28-.77-.3-.74-.32-.73-.34-.66-.22-.65-.22-.63-.24-.62-.24-.6-.25-.58-.26-.57-.26-.54-.27-.53-.28-.51-.28-.48-.28-.47-.29-.44-.29-.42-.28-.39-.29" filter="url(#a)" transform="translate(31.61 -30.1)"/><path fill="#fff" d="m30.79-2.78-.12-.23-.16-.22-.2-.22-.23-.21-.26-.2-.3-.2-.33-.19-.37-.18-.4-.18-.43-.17-.47-.17-.5-.16-.53-.16-.56-.15-.6-.14-.52-.17-.57-.17-.63-.16-.68-.16-.73-.14-.78-.14-.83-.13-.87-.12-.91-.11-.95-.11-.98-.09-1.02-.09-1.05-.08-1.08-.07-1.11-.06-1.12-.05-1.14-.05L9.2-7.5l-1.17-.02-1.18-.02-1.18-.01-1.19-.01-1.18.01-1.18.01-1.18.02-1.17.03-1.16.03-1.14.05-1.13.04-1.11.06-1.08.06-1.07.07-1.04.08-1.02.08-.99.09-.97.09-.93.1-.91.1-.87.11-.84.12-.82.11-.78.12-.75.13-.71.13-.69.13-.66.14-.63.13-.6.14-.57.15-.55.14-.52.15-.49.15-.47.15-.45.16-.41.15-.4.16-.37.17-.35.16-.32.17-.31.17-.28.17-.26.17-.23.18-.22.18.96 2.05.28.25.3.25.32.26.33.25.34.26.37.25.38.26.4.25.41.26.44.25.45.25.47.26.48.25.51.25.52.25.54.24.56.25.59.25.6.24.62.25.65.23.67.24.68.23.71.23.73.22.75.21.77.2.79.2.81.19.83.18.84.17.86.16.88.15.9.14.9.13.92.11.94.1.94.08.95.07.96.06.97.04.97.02.98.01.98-.01.98-.03.98-.04.98-.06.97-.07.97-.1.96-.11.95-.13.95-.14.93-.17.92-.17.9-.2.88-.21.87-.23.85-.24.83-.26.8-.27.79-.28.76-.3.73-.3.71-.32.67-.24.65-.24.63-.24.62-.25.6-.26.58-.26.56-.27.54-.27.53-.27.5-.27.48-.28.45-.27.44-.28.41-.27.38-.28" filter="url(#a)" transform="translate(-29.3 -31.4)"/><g fill="none" stroke="#000" transform="translate(31.61 -30.1)"><path stroke-linejoin="round" stroke-width="1.667" d="m-30.16.96-.23-.35-.2-.35-.17-.33-.13-.32-.1-.31-.07-.29-.03-.29.01-.27.05-.26.08-.26.12-.24.16-.23.19-.22.23-.22.27-.2.31-.2.34-.19.38-.18.42-.17.45-.16.49-.16.52-.15.56-.14.59-.14.62-.13.55-.14.61-.14.67-.13.72-.13.77-.11.82-.12.86-.1.92-.1.95-.09.99-.09 1.03-.08 1.06-.08 1.09-.07 1.12-.06L-12-6.3l1.17-.05 1.17-.05 1.2-.04 1.2-.04 1.21-.03 1.21-.02 1.22-.02 1.21-.02 1.2-.01h3.56l1.16.01 1.14.02 1.12.02 1.1.02 1.07.03 1.05.03 1.02.03 1 .04.96.04.93.04.9.05.87.05.84.05.81.06.77.06.74.06.71.06.68.06.65.07.62.06.59.07.57.07.54.07.52.07.49.07.46.08.44.07.42.08.39.08.37.07.35.08.33.08.3.08.29.09.26.08.25.08.22.08.21.09.19.08.18.09.16.08.14.09.13.08.11.09.1.08.09.09.07.08" filter="url(#a)"/><path stroke-linejoin="round" stroke-width="2.222" d="m-32.46-1.9.11.19.14.2.16.22.2.23.23.25.26.25.29.27.32.27.34.28.37.28.39.29.42.28.44.29.47.29.48.28.51.28.53.28.54.27.57.26.58.26.6.25.62.24.63.24.65.22.66.22.73.34.74.32.77.3.79.28.8.25.83.24.83.21.86.19.87.17.88.14.89.12.9.1.91.08.92.05.93.03.93.01.93-.01.93-.03.94-.05.94-.07.93-.08.94-.1.93-.12.92-.13.92-.15.91-.16.9-.17.9-.18.88-.2.87-.2.87-.21.84-.22.84-.22.82-.24.81-.23.79-.24.77-.25.76-.24.74-.25.73-.25.71-.25.69-.25.67-.25.65-.25.64-.25.61-.25.6-.24.59-.24.56-.24.55-.24.53-.23.51-.24.51-.23.48-.22.47-.23.46-.22.44-.22.42-.22.41-.22.4-.21.38-.21.36-.2.36-.21.33-.2.33-.19.31-.2.29-.19.28-.19.27-.19.26-.18.24-.18.23-.18.22-.17.21-.18" filter="url(#a)"/><circle cx="-7.322" cy="-2.058" r="4.1" clip-path="url(#b)" filter="url(#a)"/><circle cx="-6.332" cy="1.797" r="3.26" clip-path="url(#b)" filter="url(#a)"/><circle cx="-6.432" cy="-1.383" r="4.86" clip-path="url(#b)" filter="url(#a)"/><circle cx="-6.247" cy="-1.433" r="4.43" clip-path="url(#b)" filter="url(#a)"/><circle cx="-5.422" cy="-.538" r="3.942" clip-path="url(#b)" filter="url(#a)"/><circle cx="-4.937" cy=".417" r="4.682" clip-path="url(#b)" filter="url(#a)"/><circle cx="-6.137" cy="2.552" r="4.754" clip-path="url(#b)" filter="url(#a)"/><circle cx="-5.682" cy="2.502" r="4.198" clip-path="url(#b)" filter="url(#a)"/><circle cx="-7.317" cy="1.862" r="4.314" clip-path="url(#b)" filter="url(#a)"/><circle cx="-6.867" cy="-2.308" r="4.202" clip-path="url(#b)" filter="url(#a)"/></g><g fill="none" stroke="#000" transform="translate(-29.3 -31.4)"><path stroke-linejoin="round" stroke-width="2.222" d="m30.3-.21.18-.28.16-.28.12-.27.1-.26.07-.26.04-.26v-.25l-.03-.24-.05-.24-.1-.23-.12-.23-.16-.22-.2-.22-.23-.21-.26-.2-.3-.2-.33-.19-.37-.18-.4-.18-.43-.17-.47-.17-.5-.16-.53-.16-.56-.15-.6-.14-.52-.17-.57-.17-.63-.16-.68-.16-.73-.14-.78-.14-.83-.13-.87-.12-.91-.11-.95-.11-.98-.09-1.02-.09-1.05-.08-1.08-.07-1.11-.06-1.12-.05-1.14-.05L9.2-7.5l-1.17-.02-1.18-.02-1.18-.01-1.19-.01-1.18.01-1.18.01-1.18.02-1.17.03-1.16.03-1.14.05-1.13.04-1.11.06-1.08.06-1.07.07-1.04.08-1.02.08-.99.09-.97.09-.93.1-.91.1-.87.11-.84.12-.82.11-.78.12-.75.13-.71.13-.69.13-.66.14-.63.13-.6.14-.57.15-.55.14-.52.15-.49.15-.47.15-.45.16-.41.15-.4.16-.37.17-.35.16-.32.17-.31.17-.28.17-.26.17-.23.18-.22.18-.2.17-.18.19-.16.18-.15.18-.12.19-.11.18-.09.19-.08.19-.06.19-.05.19" filter="url(#a)"/><path stroke-linejoin="round" stroke-width="2.222" d="m32.11-2.38-.12.2-.15.22-.18.23-.2.23-.23.25-.26.25-.29.26-.31.26-.34.27-.36.27-.38.28-.41.27-.44.28-.45.27-.48.28-.5.27-.53.27-.54.27-.56.27-.58.26-.6.26-.62.25-.63.24-.65.24-.67.24-.71.32-.73.3-.76.3-.79.28-.8.27-.83.26-.85.24-.87.23-.88.21-.9.2-.92.17-.93.17-.95.14-.95.13-.96.11-.97.1-.97.07-.98.06-.98.04-.98.03-.98.01-.98-.01-.97-.02-.97-.04-.96-.06-.95-.07-.94-.08-.94-.1-.92-.11-.9-.13-.9-.14-.88-.15-.86-.16-.84-.17-.83-.18-.81-.19-.79-.2-.77-.2-.75-.21-.73-.22-.71-.23-.68-.23-.67-.24-.65-.23-.62-.25-.6-.24-.59-.25-.56-.25-.54-.24-.52-.25-.51-.25-.48-.25-.47-.26-.45-.25-.44-.25-.41-.26-.4-.25-.38-.26-.37-.25-.34-.26-.33-.25-.32-.26-.3-.25-.28-.25-.26-.25-.25-.25-.24-.25-.22-.25-.2-.24-.19-.24-.18-.24-.17-.24-.15-.24-.13-.24" filter="url(#a)"/><circle cx="13.831" cy="1.972" r="4.634" clip-path="url(#c)" filter="url(#a)"/><circle cx="10.061" cy="1.662" r="3.966" clip-path="url(#c)" filter="url(#a)"/><circle cx="13.981" cy="2.182" r="3.456" clip-path="url(#c)" filter="url(#a)"/><circle cx="12.996" cy="1.257" r="3.794" clip-path="url(#c)" filter="url(#a)"/><circle cx="13.816" cy="1.662" r="3.168" clip-path="url(#c)" filter="url(#a)"/><circle cx="13.426" cy=".002" r="4.816" clip-path="url(#c)" filter="url(#a)"/><circle cx="12.436" cy="1.067" r="4.224" clip-path="url(#c)" filter="url(#a)"/><circle cx="13.981" cy="2.142" r="3.204" clip-path="url(#c)" filter="url(#a)"/><circle cx="11.921" cy="-1.053" r="4.962" clip-path="url(#c)" filter="url(#a)"/><circle cx="12.486" cy="3.797" r="3.204" clip-path="url(#c)" filter="url(#a)"/></g><g fill="none" stroke="url(#d)" stroke-linejoin="round" stroke-width="2"><path d="M59.81-45.96 23.9-64.59 8.82-66.14l-9.29 1.8-2.3.87 3.11-1.02 6.37-1.89 8.19-1.27 8.58.04 7.12.96 3.86.83-.52-.42-4.86-2.19-7.95-3.69-9.1-4.22-8.3-3.62-6.16-2.14-3.31-.33.13 1.38 4.12 2.78 7.55 3.59 7.55 3.16 4.8 1.21 27.8 4.8" filter="url(#a)"/><path d="M56.43-51.77 7.38-62.6l-7.57-7.73.01-3.24 3.98.05 6.43 2.05 7.12 3.55 6.54 4.68 4.48 4.84.63 3.54-4.31.94-8.61-2.11-11.2-4.52-12.18-5.27-11.92-4.03-9.54-1.93-4.66-1.37-6.47 1.86" filter="url(#a)"/><path d="m-27.12-79.61-5.52 4.21-1.89 1.71-2.19 1.94.51 1.36 5.48.81 9.94.78 11.06.95 7.87.81 2.43.44-1.47.36-1.24.62 2.34.37 5.38-1.6 4.14-4.88-1.62-6.36-10.67-2.51-31.27 4.61" filter="url(#a)"/><path d="M56.43-51.77 14.04-70.95.17-75.01l-3.28 1.48-4.1 2.94-4.62 2.5-.9 1.9 4.85 1.89 9.12 2.08 9.93 1.79 7.8.76 4.73-.58 2.75-1.55 2.51-1.7 3.37-1 4.19.18 4.23 1.29 3.43 1.98 1.85 1.98-1.32.87-8.79-1.85-25.44-4.19-59.54 2.45" filter="url(#a)"/><path d="m-34.57-75.48 27.75 2.21 18.04 5.84 10.79 3.07 8.3 1.03 5.87.07 2.71-.22-.41-.28-2.88-.39-4.8-.64-6.7-1.14-8.9-1.86-11.01-2.45-12.09-2.37-11.37-1.44-8.72-.25-4.66.23-.78.08-1.12 1.86-16.32 12.31" filter="url(#a)"/><path d="m-41.69-69.8 37.05-1.75.61-4.53-3.61-3.5-1.35-1.45 2.24.67 5.33 2.49 6.71 3.67 6.14 4.05 4.32 3.67 2.3 2.77.91 1.67.51.72 1.07.24 2.15.27 2.85.47 2.14.27-.38-.75-3.67-2.38-5.49-3.68-4.02-3.45.02-1.25 3.96 1.64 4.78.93L6.69-85.76" filter="url(#a)"/><path d="m9.93-85.53-.28.62-6.29 2.37-8.66 3.51-5.24 2.66-1 .97.72-.47.69-1.18 1.22-.9 3.37.63 5.93 2.99 5.97 4.65 1.17 3.14-5.61-2.91-2.86-9.45 15.52-5.5" filter="url(#a)"/><path d="M-37.56-73.1.15-71.41l8.19 5.72 1.46 3.45.59-1.28.68-3.87-.46-3.66-2.5-1.87-4.09.22-4.39 1.82-3.42 2.62-1.72 2.54.14 1.62 1.67.03 2.62-1.83 2.99-3.39 3.15-3.96 3.66-3.12 4.94-.97 6.77 1.75 7.87 3.8 6.1 3.73.3.72-4.18-2.93 16.42 5.44" filter="url(#a)"/><path d="M65.12-33.63 45.16-59.87l-14.09-9.05-14.1-1.79-9.32 1.08-1.59 1.95 4.19 2.07 6.57 2.26 6.64 2.45 4.87 1.85.84-.17-4.43-3.06-6.86-4.84-1.84-3.3L26.05-68l19.74 11.62L66.1-30.57" filter="url(#a)"/><path d="M-16.05-83.89 5.09-73.12l15.36 9.84-.63 3.04-4 1.07.97 1.44 5.41 1.62L27.72-55l2.5.38-.97-.21-3.21-.66-3.91-1.15-3.44-1.7-2.24-2.21-.85-2.56-.04-2.75-.31-2.72-1.11-2.26-1.11-1.27.17-.31.62-.75-2.27-3.44-3.72-5.54 12.29-.76" filter="url(#a)"/><path d="m-45.82-65.67 64 10.77 11.23-1.97-8.97-6.88-9.69-4.84-4.9-1.25-2.2 1.04-2.38 1.59-3.35 1.1-3.53.25-2.97-.63-2.53-1.44-2.67-2.07-3.17-2.29-3.24-1.98-2.24-1.26-.03-.39 2.71.4 4.69.97 4.62 1.05 2.05.15-3.03-1.29-26.14 1.54" filter="url(#a)"/><path d="M54.64-54.53 10.67-66.89l-31.27 1.34-14.42 1.83-1.71-.57 6.17-2.44 10.31-2.73 12.16-1.61 12.5.1 11.34 1.41 8.32 1.49 3.61.22-1.85-1.71-6.43-3.05-8.58-2.8-7.33-.83-2.62 1.96 4.24 4.08 9.24 4.23 4.49 2.11-18.51.35-57.27 11.95" filter="url(#a)"/><path d="m32.81-76.77.52 2.52-5.87 5.53-11.97 4.63-10.17 1.72-3.43-.64 2.57-1.82 5.26-2.14 4.99-1.98 3.05-1.72.42-1.62-2.36-1.74-4.81-1.96-6.31-1.84-6.27-1.18-4.54-.09-1.42.91 2.3 1.31 5.11 1.31 4.95 2.31 1.68 6.42 5.34 14.79 55.6 26.33" filter="url(#a)"/><path d="m6.69-85.76-1.85 2.38 2.85 3.21 3.41 3.15L12.9-74l-3.16 2.3-8 1.26-9.45.33-7.48-.24-4.23-.43-1.45-.32.72-.19 3.26-.29 6.59-.74 9.61-1.12 10.43-.72 8.09 1.07 3.7 4.01-.28 6.71 2.15 8.79 42.56 22.56" filter="url(#a)"/><path d="M64.09-36.23 18.24-59.39l-29.6-5.55-7.74-3.54 3.05-2.56 4.91-.33 3.53 1.84 1.38 2.75-1.21 2.29-2.86 1.19-1.13.33 4.3-.38 9.67-2.01 11.02-4.51 11.99-3.69L43.8-67.8" filter="url(#a)"/><path d="m-55.02-54.35 42.9-18.3L-.1-78.82l6.73-.79 4.15.56-.16.46-4.11.3-5.43.39-3.64.63.19 1.01 4.19 1.68 6.65 2.59 6.79 3.47 4.78 3.83 1.73 3.36-.82 2.15-1.48.73.1-.27 2.89-.71 4.69-.99 3.35-1.8-2.33-3.39-12.21-5.19-23.28-5.79-20.84-2.83" filter="url(#a)"/><path d="m-33.84-75.99 2.58 2.09 4.12 4.41 15.29 1.83 18.12 1.83 11.98 2.96 1.62 2.75-7.58.58L.55-61.78l-9.76-3.83-3.3-3.12 4.41-.51 9.78 2.38 9.76 3.35 3.47.91-4.9-4.34-7.46-8.75-19.2-8.47" filter="url(#a)"/><path d="m44.65-67.19-16.91 9.83-23.23-4.08-5.31-4.81 6.04-1.98 7.57-.07 4.06.86.49 1.55-.8 2.09-.04 2.08 1.22 1.38 1.63.24.86-.81-.3-1.21-.69-.84.17-.04 1.24.48.53.19-3.08-.78-7.61-1.56-6.62-1.08 10.26 2.86 48.28 22.52" filter="url(#a)"/><path d="M66.19-30.04 52.51-52.31l-6.83-7.6-4.08-2.33-4.03-.98-5.96-1.22-7.85-1.43-8.37-1.16-7.45-.78-5.39-.72-2.22-.85 1.93-.8 6.11-.39 8.61.01 8.13-.23 5.11-1.11 1.54-1.89-1.14-1.71-4.39-.93-13.48-1.09-37.61-3.23" filter="url(#a)"/><path d="m52.59-57.81-6.7-5.32-5.99-.74-10.66-.8-15.44-1.79-14.99-1.83-9.86-1.63-3.38-1.41 1.71-.78 4.55.51 5.62 2.02 5.64 2.92 4.98 2.61 3.76 1.08 2.32-.97 1.21-2.53.86-2.92 1.02-2.12.96-.63.04.97-2.81 2.3L4.6-66.02l-26.33 2.11-29.14 4.09" filter="url(#a)"/><path d="m27.48-79.45-38.42 3.62-5.68-.46 2.16-.46 2.41 1.69 3.83 3.59 5.64 4.03 5.26 2.95 2.67 1.05v-.74l-1.13-1.81-.84-2.12-.3-1.95-.13-1.43.11-.61.71.32-.09.9-5.31.78-13.88.36-13.88-1.2 13.34-12.95" filter="url(#a)"/><path d="m27.48-79.45 11.81 11.17.15 7.72-12.76-.01-17.97-4.22L-8-68.83l-12.44-2.04-7.23-.48-1.59.03 4.57-.03 11.12-.02L3-70.84l18.14 1.78 14.09 3.17 5.5 1.76-13.25-15.32" filter="url(#a)"/><path d="m-42.03-69.46 33.14-8.02 15.62-.74 8.14 2.25 6.4 3.28 4.66 2.44 1.76 1.02-2 .06-6.17-.47-9.63-.86-10.67-1.12-8.51-.97-4.41-.37-.87.63 1.04 2.01 2.9 3.83.64 5.37-43.76 4.89" filter="url(#a)"/><path d="m-1.83-86.17 21.17 6.45 11.47 6.43 7.29 5.27 2.12 1.83-2.71-1.05-6.32-2.37-8.33-2.59-8.29-2.21-6.2-1.39-3.2-.24-.68 1.03 1.32 2.1 3.89 2.64 6.71 2.26 6.31 1.1 4.33 2.3 32.33 17.87m10.7 34.1 1.39 2.45 2.81 2.41 2.54 2.47 2.02 2.5 2.25 2.49 3.07 2.45 3.7 2.4 3.67 2.38 3.05 2.39 2.38 2.44 2.24 2.53 2.81 2.61 3.83 2.65 4.57 2.65 4.23 2.63 2.59 2.59.29 2.57-1.11 2.5-.26 2.37 2.59 2.27 4.76 2.42 2.44 2.92" filter="url(#a)"/><path d="m.82-86.46-2.48.11-2.32.15-2.29.24-2.38.34-2.5.45-2.58.53-2.61.6-2.6.65-2.54.68-2.49.69-2.42.72-2.35.79-2.33.87-2.31.99-2.32 1.09-2.37 1.16-2.4 1.21-2.48 1.28-2.62 1.36-2.86 1.47-3.09 1.57-3.13 1.72-3.53 2.27" filter="url(#a)"/><path d="m-4.69-86.28-4.7.24-2.73.38-2.11.49-2.14.57-2.24.64-2.22.68-2.14.7-2.15.72-2.36.77-2.82.84-3.4.94-4 1.04-4.42 1.12-4.6 1.21-4.5 1.28-4.21 1.36-3.87 1.43-3.58 1.49-3.48 1.56-3.62 1.62-3.95 1.67-4.34 1.72-4.65 1.76-4.84 1.8-4.99 1.82-5.25 1.82-5.62 1.84-5.89 1.89-5.7 1.98-5.11 2.07-4.95 2.17-5.64 2.23-3.88 1.99" filter="url(#a)"/><path d="m-4.69-86.28-2.19.24-2.2.38-2.49.5-2.67.57-2.76.64-2.75.68-2.68.71-2.57.73-2.5.78-2.45.85-2.4.95-2.33 1.04-2.25 1.14-2.19 1.22-2.21 1.29-2.34 1.37-2.5 1.44-2.67 1.5-2.77 1.57-2.78 1.63-2.76 1.67-2.75 1.73-2.79 1.77-2.89 1.8-2.94 1.83-2.9 1.85-2.77 1.89-2.59 1.93-2.44 2-2.39 2.09-2.43 2.16-2.47 2.23-2.54 2.28-2.77 2.33-3.3 2.33-4.03 2.29-4.09 2.23" filter="url(#a)"/><path d="m-4.69-86.28-1.78.24-2.59.36-2.89.48-2.87.56-2.8.63-2.77.67-2.85.69-3.14.69-3.67.73-4.35.79-4.96.89-5.21 1.01-4.92 1.09-4.12 1.18-3.17 1.23-2.5 1.3-2.44 1.38-2.96 1.47-3.67 1.55-4.27 1.59-4.91 1.57-5.44 1.51-4.04 1.58" filter="url(#a)"/><path d="m-6.15-86.06-2.11.34-2.26.52-1.58.59-1.16.65-1.3.69-1.66.71-1.93.72-1.99.76-1.88.84-1.69.94-1.51 1.04-1.35 1.14-1.21 1.21-1.03 1.29-.79 1.36-.49 1.43-.18 1.5.03 1.56.07 1.62-.11 1.68-.4 1.72-.66 1.76-.68 1.8-.39 1.82.18 1.83.86 1.85 1.4 1.9 1.62 1.99 1.47 2.07 1.09 2.16.69 2.21.47 2.25.38 2.36" filter="url(#a)"/><path d="m-7.98-85.93-3.33.52-2.42.49-2.05.52-1.93.54-1.95.59-2.15.66-2.45.75-2.79.87-3.07.98-3.15 1.09-3.05 1.18-2.82 1.26-2.62 1.33-2.58 1.39-2.82 1.45-3.35 1.49-4.01 1.54-4.67 1.58-5.08 1.61-5.13 1.65-4.8 1.68-4.22 1.73-3.63 1.78-3.35 1.84-3.53 1.91-4.05 1.96-4.53 2-4.62 2.01-4.39 2.08-4.61 2.26-5.39 2.74" filter="url(#a)"/><path d="m-7.42-85.95-7.91.73-2.96.6-2.44.66-2.96.71-3.2.71-3 .73-2.66.76-2.41.84-2.28.95-2.26 1.06-2.31 1.15-2.44 1.22-2.67 1.31-2.96 1.37-3.26 1.44-3.49 1.51-3.6 1.58-3.59 1.63-3.52 1.68-3.49 1.73-3.58 1.77-3.77 1.8-4.03 1.83-4.27 1.86-4.42 1.89-4.51 1.94-4.65 2.01-4.92 2.08-5.3 2.16-5.54 2.23-5.38 2.27-4.75 2.32-4.06 2.32-4.16 2.31-5.59 2.29-7.32 2.37M69.88-14.14l.47 2.01.8 2.62 1.52 2.58 2.72 2.52 3.66 2.51L82.92.63l3.49 2.54 2.84 2.57 2.13 2.61L92.8 11l.75 2.65.2 2.61-.12 2.58-.11 2.55.25 2.55.98 2.53 1.94 2.51 2.76 2.41 2.99 2.25 2.3 2.06.81 2.15-1.08 3.48" filter="url(#a)"/><path d="m-11.96-85.15-3.32.75-2.91.55-3.24.56-3.05.64-2.4.75-1.86.86-1.75.99-2.07 1.09-2.59 1.2-3.11 1.26-3.45 1.33-3.57 1.39-3.46 1.44-3.21 1.49-3.01 1.54-2.98 1.57-3.26 1.6-3.86 1.64-4.6 1.67-5.29 1.7-5.68 1.76-5.73 1.83-5.55 1.92-5.36 1.98-4.93 1.97-3.7 1.96-1.95 2.33" filter="url(#a)"/><path d="m-13.14-84.83-3.61.77-3.38.81-2.73.74-2.19.69-1.92.71-1.95.8-2.18.93-2.42 1.05-2.52 1.15-2.49 1.22-2.37 1.28-2.34 1.34-2.5 1.42-2.85 1.49-3.31 1.56-3.73 1.6-3.98 1.66-3.95 1.71-3.64 1.76-3.12 1.81-2.53 1.81-2.22 1.78-2.47 1.74-3.24 1.82-3.59 2.11-2.43 2.2" filter="url(#a)"/><path d="m-13.14-84.83-3.06.76-2.7.81-2.66.74-2.72.68-2.8.7-2.92.78-3.03.91-3.14 1.04-3.34 1.13-3.74 1.2-4.38 1.26-5.19 1.32-6.11 1.4-6.99 1.47-7.61 1.54-7.61 1.59-6.72 1.61-5.24 1.66-4.11 1.75-4.28 1.91-5.25 2.15-4.25 2.51" filter="url(#a)"/><path d="m-13.14-84.83-7.8.77-2.83.82-1.62.75-1.5.7-1.94.73-2.43.82-2.59.95-2.45 1.06-2.22 1.17-2.17 1.23-2.45 1.31-2.98 1.37-3.58 1.45-4.02 1.51-4.18 1.57-4.07 1.63-3.82 1.68-3.61 1.73-3.55 1.77-3.57 1.8-3.62 1.82-3.56 1.85-3.41 1.88-3.32 1.93-3.4 2-3.69 2.08-3.95 2.16-3.91 2.22-3.55 2.28-3.34 2.32-3.94 2.33-5.04 2.27-3.33 2.23" filter="url(#a)"/><path d="m-16.65-84.16-2.27.96-1.97.77-1.65.67-1.53.7-1.63.81-1.76.95-1.85 1.09-1.85 1.17-1.8 1.25-1.72 1.31-1.67 1.38-1.61 1.45-1.58 1.52-1.56 1.58-1.53 1.64-1.52 1.69-1.5 1.73-1.46 1.77-1.41 1.8-1.32 1.84-1.22 1.85-1.12 1.9-1.03 1.94-.97 2.01-.92 2.09-.87 2.16-.8 2.22-.72 2.27-.63 2.3-.57 2.32-.52 2.32-.48 2.33-.41 2.38-.2 2.5" filter="url(#a)"/><path d="m-16.05-83.89-3.05.54-2.95.66-2.17.76-2.07.88-2.49 1-2.99 1.12-3.2 1.22-3.1 1.29-2.81 1.34-2.54 1.4-2.36 1.45-2.26 1.5-2.17 1.54-2.05 1.57L-54.2-66l-1.86 1.64-1.89 1.68-2.05 1.72-2.26 1.77-2.47 1.84-2.59 1.9-2.56 1.96-2.48 1.99-2.48 2-2.75 2.07-3.14 2.25-3.04 2.73" filter="url(#a)"/><path d="m-16.05-83.89-2 .54-2.27.67-3.11.77-4.33.88-5.27 1.02-5.47 1.13-4.87 1.22-3.8 1.3-2.6 1.36-1.61 1.4-.97 1.46-.79 1.51-1.03 1.55-1.61 1.59-2.42 1.63-3.36 1.66-4.34 1.7-5.23 1.74-5.9 1.8-6.28 1.86-6.39 1.92-6.31 1.97-6.15 2.04-5.91 2.1-5.47 2.16-4.74 2.24-4.03 2.25-4.2 2.19-5.7 2.09-6.95 2.31-4.75 3.38" filter="url(#a)"/><path d="m-19.14-83.03-4.27.69-3.24.62-1.3.63-.83.77-1.24.94-1.87 1.08-2.47 1.18-2.98 1.24-3.46 1.29-3.92 1.35-4.3 1.43-4.52 1.5-4.52 1.57-4.29 1.61-3.95 1.67-3.7 1.71-3.73 1.76-4.08 1.8-4.57 1.81-4.85 1.8-4.7 1.8-4.24 1.86-3.96 1.96-4.45 2.06-5.62 2.19-4.58 2.72" filter="url(#a)"/><path d="m-21.18-82.36-3.98.71-3.58.57-2.11.75-1.74.98-2.59 1.12-3.96 1.21-5.14 1.27-5.7 1.32-5.5 1.39-4.63 1.46-3.34 1.53-2.02 1.59-1.09 1.64-.87 1.69-1.44 1.74-2.65 1.78-4.15 1.81-5.49 1.83-6.36 1.87-6.61 1.9-6.39 1.95-5.9 2.02-5.39 2.1-4.93 2.16-4.45 2.22-3.73 2.27-2.66 2.3-1.41 2.33-.47 2.37-.65 2.42-2.52 2.51-5.59 2.62-7.32 2.53-2.23 1.53" filter="url(#a)"/><path d="m-23.72-81.45-2.26.84-2.1 1.08-2.26 1.21-2.38 1.25-2.34 1.25-2.22 1.28-2.06 1.34-1.93 1.43-1.83 1.51-1.8 1.56-1.8 1.61-1.82 1.66-1.86 1.7-1.86 1.76-1.84 1.8-1.78 1.8-1.76 1.77-1.82 1.77-1.93 1.82-2.01 1.95-1.87 1.97-1 1.61" filter="url(#a)"/><path d="m-23.72-81.45-8.95.86-.65 1.09-.08 1.23-1.08 1.26-1.96 1.27-2.57 1.31-2.97 1.37-3.25 1.45-3.4 1.53-3.46 1.59-3.51 1.64-3.61 1.69-3.76 1.73-3.91 1.78-4.01 1.8-4.01 1.82-3.93 1.84-3.81 1.88-3.76 1.93-3.84 2-4.13 2.08-4.63 2.15-5.21 2.22-5.65 2.27-5.64 2.3-4.92 2.31-3.79 2.29-3.75 2.28-5.21 2.35" filter="url(#a)"/><path d="m-24.71-80.72-3.17.65-4.07 1.11-4.2 1.31-4.18 1.33-3.89 1.35-3.72 1.4-3.74 1.45-3.7 1.5-3.35 1.55-2.81 1.57-2.33 1.61-2.19 1.64-2.35 1.67-2.7 1.71-3.04 1.76-3.34 1.83-3.68 1.9-4.23 1.96-5.08 1.97-6.19 1.99-7.2 2.06-7.28 2.24-4.57 2.71m91.01-38.27-1.43.66-2.2 1.13-2.45 1.31-2.38 1.35-2.31 1.36-2.29 1.42-2.32 1.46-2.37 1.52-2.41 1.56-2.42 1.6-2.39 1.62-2.35 1.66-2.36 1.7-2.47 1.74-2.64 1.8-2.82 1.86-2.95 1.92-2.96 1.98-2.86 2.04-2.66 2.1-2.43 2.16-2.17 2.22-1.9 2.23-1.67 2.21-1.58 2.19-1.68 2.3-1.86 2.6-2.87 2.44" filter="url(#a)"/><path d="m-24.86-80.75-2.78 1.19-2.4 1.29-2.19 1.31-1.94 1.28-1.79 1.29-1.76 1.38-1.8 1.46-1.81 1.55-1.78 1.6-1.75 1.65-1.69 1.7-1.65 1.74-1.58 1.78-1.51 1.81-1.44 1.83-1.38 1.86-1.33 1.89-1.3 1.95-1.29 2.02-1.29 2.09-1.26 2.16-1.22 2.22-1.16 2.27-1.1 2.3-1.05 2.32-1.01 2.36-.98 2.41-.96 2.51-.92 2.62-.79 2.52-.47 1.52" filter="url(#a)"/><path d="m-24.86-80.75-3.62 1.19-2.25 1.29-2.28 1.3-2.64 1.27-3.05 1.3-3.33 1.37-3.39 1.46-3.3 1.53-3.2 1.6-3.14 1.65-3.15 1.69-3.14 1.73-3.03 1.78-2.76 1.8-2.44 1.83-2.2 1.85-2.22 1.88-2.58 1.93-3.24 2.01-3.97 2.08-4.5 2.16-4.63 2.21-4.27 2.27-3.47 2.29-2.46 2.31-1.53 2.31-1.14 2.31-1.85 2.38-4.52 2.48" filter="url(#a)"/><path d="m-25.72-80.27-2.89 1.21-3.91 1.47-2.98 1.4-2.1 1.37-1.86 1.43-2.02 1.48-2.22 1.55-2.32 1.58-2.39 1.61-2.53 1.65-2.86 1.69-3.39 1.73-4.04 1.77-4.61 1.84-4.94 1.89-4.88 1.96-4.46 2.01-3.84 2.07-3.26 2.13-2.88 2.18-2.79 2.22-2.92 2.27-3.07 2.3-3.1 2.36-2.92 2.4-2.69 2.45-2.63 2.48-2.93 2.5-3.61 2.48-4.42 2.48-4.93 2.47-4.83 2.48-3.98 2.55-2.59 2.65-1.32 2.7-2.63 2.49" filter="url(#a)"/><path d="m-27.12-79.61-3.83 2.07-2.54 1.42-2.24 1.33-2.32 1.4-2.37 1.49-2.3 1.55-2.13 1.58-2.03 1.62-2.06 1.64-2.18 1.68-2.33 1.73-2.41 1.77-2.37 1.83-2.26 1.89-2.18 1.96-2.16 2.01-2.2 2.07-2.25 2.12-2.21 2.18-2.09 2.22-1.9 2.26-1.75 2.3-1.71 2.35-1.84 2.4-2.06 2.45-2.26 2.48-2.39 2.5-2.4 2.48-2.35 2.47-2.2 2.45-1.93 2.45-1.56 2.54-1.5 2.73-2.12 2.84" filter="url(#a)"/><path d="m-27.12-79.61-3.78 2.05-2.47 1.41-2.04 1.32-1.92 1.38-1.87 1.47-1.82 1.53-1.79 1.57-1.75 1.59-1.72 1.63-1.66 1.65-1.58 1.7-1.54 1.74-1.52 1.8-1.54 1.85-1.59 1.92-1.6 1.98-1.56 2.04-1.48 2.09-1.36 2.16-1.25 2.21-1.16 2.23-1.1 2.2-1.08 2.18-1.1 2.31-1.17 2.59-1.23 2.43m40.96-48.32-6.93 2.08-1.33 1.26-1.47 1.2-2.95 1.33-4 1.48-4.3 1.56-4.12 1.61-3.76 1.65-3.28 1.69-2.71 1.73-2.17 1.78-1.8 1.81-1.79 1.82-2.23 1.84-3.03 1.88-3.98 1.93-4.82 2-5.32 2.08-5.46 2.16-5.34 2.21-5.23 2.26-5.38 2.29-5.78 2.31-6.16 2.3-5.91 2.3-4.3 2.37-1.95 2.48m203.57 9.41.51 3.08.34 2.72.36 2.65.4 2.59.39 2.55.39 2.53.41 2.54.43 2.56.4 2.58.27 2.62.08 2.65-.12 2.65-.24 2.62-.19 2.59-.02 2.57.23 2.55.44 2.53.53 2.5.43 2.4.19 2.28-.13 2.17-.45 2.18-.77 2.38-1.28 2.09" filter="url(#a)"/><path d="m-34.13-75.83-.79.51-1.54.98-2.02 1.32-2.11 1.51-1.99 1.59-1.81 1.63-1.67 1.66-1.6 1.7-1.6 1.75-1.62 1.79-1.67 1.82-1.7 1.83-1.74 1.86-1.77 1.9-1.77 1.96-1.78 2.02-1.73 2.1-1.65 2.17-1.55 2.22-1.41 2.27-1.31 2.3-1.23 2.34-1.22 2.37-1.26 2.43-1.32 2.5-1.39 2.56-1.4 2.59-1.31 2.59-1.07 2.62-.88 2.45" filter="url(#a)"/><path d="m-33.84-75.99-2.59 1.12-3.19 1.44-2.76 1.54-2.33 1.58-1.96 1.59-1.71 1.62-1.69 1.64-1.91 1.67-2.33 1.72-2.8 1.77-3.14 1.83-3.26 1.88-3.07 1.95-2.67 2.01-2.2 2.07-1.84 2.12-1.73 2.18-1.94 2.21-2.39 2.26-2.96 2.29-3.43 2.33-3.62 2.4-3.39 2.45-2.74 2.49-1.9 2.5-1.27 2.47-1.22 2.45-1.86 2.43-2.71 2.39-2.9 2.46-1.73 3.13" filter="url(#a)"/><path d="m-34.57-75.48-2.08.94-4.35 1.42-4.04 1.57-3.07 1.61-2.52 1.62-2.29 1.64-2.19 1.69-2.25 1.73-2.52 1.77-2.91 1.81-3.15 1.82-3.04 1.83-2.63 1.85-2.17 1.92-2 1.99-2.34 2.07-3.11 2.15-4.07 2.22-4.98 2.25-5.81 2.29-6.6 2.29-7.17 2.27-6.91 2.27-5.24 2.33" filter="url(#a)"/><path d="m-34.92-75.27-2.33 1.81-2.18 1.6-2.45 1.59-2.83 1.61-3.1 1.61-3.14 1.64-2.99 1.68-2.87 1.72-2.95 1.78-3.25 1.83-3.59 1.89-3.75 1.96-3.54 2.02-2.97 2.08-2.22 2.12-1.54 2.18-1.16 2.23-1.18 2.26-1.55 2.3-2.14 2.34-2.71 2.4-3.11 2.45-3.21 2.48-3.07 2.49-2.77 2.48-2.45 2.46-2.33 2.46-2.54 2.48-3.2 2.54-4.14 2.64-4.74 2.69-4.36 2.48m85.39-64.32-.79 1.61.43 1.61-.33 1.66-1.19 1.71-1.39 1.77-1.23 1.82-1.09 1.86-1.11 1.86-1.12 1.88-.94 1.93-.54 1.99-.03 2.07.42 2.13.67 2.2.72 2.25.6 2.3.41 2.35.21 2.38.01 2.43-.2 2.48-.39 2.52-.54 2.57-.53 2.61-.3 2.65.17 2.66.79 2.67 1.4 2.65 1.78 2.63 1.8 2.6 1.52 2.56 1.18 2.58 1.15 2.66 1.64 2.79 2.44 2.94 2.89 3.02 2.55 3.04 2.93 3.24" filter="url(#a)"/><path d="m-42.03-69.46-7.06 1.38-1.77 1.63-.78 1.66-1.39 1.73-2.05 1.81-2.38 1.83-2.51 1.82-2.71 1.82-3.04 1.85-3.39 1.92-3.61 2-3.7 2.08-3.82 2.16-4.15 2.21-4.69 2.25-5.14 2.28-5.25 2.29-5.01 2.3-4.87 2.36-5.29 2.51-6.38 2.84-10.04 3.53m84.75-42.32-1.32.97-1.38 1.64-1.5 1.89-1.52 1.9-1.45 1.87-1.37 1.86-1.31 1.9-1.27 1.98-1.25 2.07-1.23 2.15-1.21 2.21-1.19 2.26-1.18 2.31-1.14 2.34-1.06 2.39-.98 2.43-.88 2.47-.77 2.53-.68 2.57-.6 2.62-.56 2.64-.53 2.66-.52 2.66-.5 2.65-.49 2.62-.45 2.6-.41 2.57-.33 2.6-.26 2.67-.16 2.78-.05 2.92.07 2.99.17 3.01.21 2.97.13 2.77" filter="url(#a)"/><path d="m-45.82-65.67-2.02 2.2-1.52 1.75-1.41 1.72-1.4 1.82-1.41 1.92-1.42 2-1.4 2.04-1.36 2.1-1.32 2.15-1.25 2.19-1.19 2.25-1.12 2.27-1.07 2.32-1.03 2.36-.99 2.4-.96 2.45-.9 2.47-.83 2.49-.74 2.48-.67 2.48-.6 2.5-.53 2.52-.48 2.57-.41 2.61-.34 2.64-.27 2.62-.22 2.56-.19 2.45-.17 2.46-.12 2.98.09 4.76m27.25-74.53-4.33 2.19-6.78 1.74-7.2 1.7-6.3 1.81-4.84 1.9-3.21 1.98-1.77 2.03-.68 2.08-.08 2.13-.05 2.18-.58 2.22-1.55 2.26-2.75 2.29-3.9 2.33-4.77 2.38-5.2 2.45-5.12 2.47-4.53 2.48-3.62 2.46-2.73 2.44-2.32 2.44-2.66 2.46-3.61 2.52-4.62 2.63-5.15 2.67-5.78 2.46" filter="url(#a)"/><path d="m-48.54-62.85-3.55 1.29-9.68 1.59-9.39 1.8-5.05 1.93-.82 2.01 1.49 2.05 1.97 2.1 1.34 2.14.21 2.2-1.16 2.25-2.67 2.27-4.11 2.32-5.25 2.35-5.83 2.41-5.7 2.44-4.87 2.48-3.63 2.48-2.38 2.48-1.52 2.48-1.22 2.49-1.39 2.52-1.71 2.57-1.94 2.61-2.2 2.63-2.78 2.63-3.7 2.55-4.26 2.45-3.56 2.46-1.97 2.97-1.85 4.76m86.66-70.65-1.61 1.75-1.52 1.8-1.48 1.96-1.39 2.01-1.29 2.04-1.23 2.06-1.19 2.12-1.17 2.18-1.13 2.22-1.09 2.25-1.05 2.27-1 2.31-.96 2.38-.91 2.44-.87 2.48-.81 2.47-.75 2.45-.68 2.42-.61 2.41-.52 2.42-.44 2.5-.43 2.7-.56 2.8M68.28-21.84l1.33 3.49 1.48 3.08 1.07 2.84.55 2.71.15 2.62-.04 2.58-.06 2.56L72.73.6v5.18l-.03 2.64-.07 2.65-.11 2.65-.14 2.64-.16 2.61-.2 2.58-.24 2.55-.31 2.52-.41 2.48-.56 2.4-.71 2.32-.85 2.25-.94 2.22-.94 2.22-.82 2.24-.68 2.25-.75 2.4-1.48 2.91m4.95-72.15 15.17 3.47.61 3.06-3.31 2.83-2.31 2.69-.1 2.62 1.52 2.56 2.09 2.54 1.9 2.54 1.53 2.56 1.33 2.58 1.34 2.62 1.39 2.65 1.35 2.65 1.25 2.62 1.25 2.59 1.4 2.57 1.58 2.55 1.51 2.55 1.03 2.51.38 2.43.17 2.26.67 2.08 1.26 2.15-.54 3.49" filter="url(#a)"/><path d="m68.28-21.84.89 3.47.61 3.06.52 2.83.71 2.69.98 2.62 1.16 2.56 1.14 2.54.91 2.54.55 2.56.2 2.58-.04 2.62-.11 2.65-.06 2.65.09 2.62.27 2.59.41 2.57.46 2.55.37 2.55.16 2.51-.03 2.43-.01 2.26.15 2.08.04 2.15-.55 3.49" filter="url(#a)"/><path d="m68.28-21.84.88 3.49.87 3.07.8 2.84.77 2.7.75 2.63.71 2.57.68 2.56.69 2.55.75 2.58.77 2.6.67 2.63.43 2.65.12 2.65-.15 2.63-.29 2.61-.32 2.57-.25 2.56-.22 2.53-.26 2.48-.35 2.4-.5 2.31-.6 2.23-.61 2.21-.44 2.22-.2 2.21-.27 2.11-1.17 2.11M-51.94-58.84l-2 2.05-2.84 1.56-3.14 1.74-2.67 1.96-1.83 2.1-1.12 2.17-.76 2.22-.8 2.25-1.09 2.29-1.46 2.32-1.79 2.36-2.02 2.39-2.09 2.45-2.04 2.51-1.84 2.55-1.56 2.6-1.28 2.63-1.07 2.65-1 2.66-1.06 2.67-1.22 2.62-1.51 2.55-1.94 2.43-2.38 2.29-2.27 2.37-.29 3.06" filter="url(#a)"/><path d="m-51.94-58.54-3.13 2.28-7.23 2.17-9.72 2.04-8.26 2.04-5.18 2.12-3.25 2.19-3.09 2.24-3.64 2.26-3.69 2.28-2.82 2.32-1.55 2.38-.61 2.44-.53 2.48-1.36 2.46-2.65 2.45-3.83 2.43-4.34 2.44-4.01 2.46-3.21 2.52-2.92 2.61-4.21 2.67-7.34 2.72-9.54 2.93m94.3-52.62-1.66 2.35-1.81 2.02-1.95 2.02-2.18 2.14-2.22 2.24-1.92 2.29-1.47 2.3-1.15 2.33-1.11 2.37-1.32 2.42-1.64 2.47-1.95 2.49-2.14 2.49-2.2 2.5-2.15 2.5-2.04 2.52-1.85 2.54-1.61 2.57-1.32 2.6-1.05 2.61-.88 2.61-.89 2.6-1.09 2.59-1.4 2.6-1.62 2.61-1.59 2.6-1.24 2.58-.7 2.55-.28 2.52-.3 2.47-.76 2.34-.95 2.11.27 1.87" filter="url(#a)"/><path d="m-53.86-55.63-4.47 1.87-6.49 2.25-5.87 2.24-3.61 2.23-1.69 2.25-.73 2.29-.4 2.32-.31 2.35-.38 2.39-.77 2.43-1.54 2.49-2.54 2.54-3.42 2.58-3.84 2.62-3.69 2.65-3.17 2.65-2.59 2.66-2.3 2.64-2.32 2.62-2.43 2.6-2.31 2.61-1.74 2.63-.81 2.7.11 2.76.57 2.83.29 2.83-.68 2.76-2.02 2.61-3.11 2.4-3.32 2.23-2.22 2.17-.5 2.28-1.43 2.2" filter="url(#a)"/><path d="m-55.3-53.48-4.42 1.76-2.72 1.89-.9 2.12-.34 2.25-.54 2.3-.95 2.29-1.26 2.31-1.39 2.36-1.4 2.41-1.4 2.47-1.47 2.49-1.58 2.48-1.68 2.49-1.69 2.48-1.57 2.5-1.34 2.52-1.05 2.57-.82 2.59-.66 2.61-.6 2.6-.54 2.58-.4 2.58-.2 2.59-.05 2.62-.14 2.61-.53 2.55-.92 2.48-.75 2.78-.21 3.72" filter="url(#a)"/><path d="m-55.02-54.35-4.44 2.86-7.03 2.3-4.7 2.2-1.72 2.24-.54 2.29-.8 2.31-1.48 2.35-1.9 2.38-2.07 2.43-2.21 2.48-2.52 2.54-2.88 2.58-3.08 2.62-2.96 2.64-2.59 2.66-2.27 2.65-2.26 2.64-2.78 2.61-3.73 2.59-4.88 2.59-5.85 2.62-6.27 2.69-5.96 2.77-4.93 2.84-3.53 2.85-2.24 2.79-1.54 2.63-1.74 2.37-2.69 2.14-3.49 2.15-1.59 2.65m94.75-75.67-1.15 1.7-1.33 2.16-1.22 2.33-1.12 2.34-1.07 2.32-1.06 2.32-1.1 2.37-1.09 2.44-1.05 2.48-.96 2.5-.84 2.51-.75 2.5-.68 2.51-.64 2.52-.62 2.55-.63 2.58-.62 2.6-.61 2.61-.58 2.61-.53 2.61-.44 2.6-.35 2.6-.22 2.6-.08 2.59.08 2.57.22 2.55.33 2.51.36 2.5.37 2.49.37 2.53.39 2.62.45 2.72.44 2.68.32 2.3.18 1.44m140.5-56.41 1.32 2.87 1.64 3.06 1.38 2.87 1.16 2.69.84 2.58.54 2.54.41 2.52.46 2.5.58 2.48.61 2.44.47 2.44.26 2.45.05 2.5-.02 2.55v2.61l.1 2.65.12 2.65.03 2.64-.18 2.61-.42 2.56-.53 2.52-.44 2.46-.17 2.43.15 2.4.29 2.37.13 2.28-.36 2.09-1.04 2.04-2.14 2.91" filter="url(#a)"/><path d="m-58.96-47.38-4.03 2.08-7.17 2.43-4.24 2.3-.89 2.25.14 2.32-.71 2.44-2.19 2.5-3.31 2.51-3.6 2.5-3.09 2.49-2.1 2.48-1.13 2.5-.59 2.54-.68 2.57-1.33 2.59-2.3 2.61-3.27 2.6-3.98 2.6-4.29 2.58-4.26 2.59-4.12 2.6-4.06 2.59-4.15 2.57-4.2 2.53-3.98 2.5-3.43 2.46-2.75 2.38-2.24 2.34-2.33 2.55-2.03 3.44" filter="url(#a)"/><path d="m-58.82-47.48-3.89 2.8-3.77 2.38-2.77 2.32-2.46 2.33-2.43 2.35-2.16 2.4-1.66 2.47-1.19 2.54-1.02 2.58-1.14 2.61-1.32 2.64-1.37 2.65-1.23 2.64-1.01 2.63-.95 2.6-1.14 2.56-1.64 2.54-2.32 2.58-2.98 2.65-3.33 2.77-3.19 2.88-2.44 2.92-1.3 2.89-.28 2.72-.38 2.29-2.8 1.34" filter="url(#a)"/><path d="m-61.04-43.99-1.63 1.88-3.87 2.25-4.35 2.33-3.24 2.35-2.27 2.42-2.22 2.48-2.7 2.56-3.08 2.59-2.92 2.63-2.27 2.65-1.56 2.66-1.25 2.65-1.63 2.63-2.64 2.61-3.83 2.59-4.71 2.58-4.91 2.63-4.42 2.68-3.58 2.76-2.87 2.81-2.65 2.81-2.94 2.72-3.47 2.58-3.83 2.41-3.68 2.26-2.98 2.23-2.37 2.35-3 2.57-2.47 3.06m87.34-73.73 3.57 1.86 2.58 2.23 1.44 2.31.9 2.34-.17 2.39-1.34 2.46-1.77 2.53-1.26 2.58-.15 2.61 1.07 2.63 2.03 2.65 2.64 2.64 2.91 2.62 3.04 2.59 3.24 2.54 3.65 2.53 4.15 2.54L-30.05.7l4.29 2.76 3.52 2.9 2.45 2.96 1.57 2.97 1.3 2.93 1.72 2.73m-46.49-60.4-1.45 2.38-1.32 1.9-1.83 2.21-1.92 2.47-1.81 2.56-1.83 2.54-1.94 2.5-1.87 2.48-1.54 2.47-1.1 2.5-.88 2.53-1.05 2.57-1.6 2.6-2.27 2.61-2.76 2.6-2.9 2.59-2.68 2.58-2.31 2.59-1.98 2.59-1.81 2.58-1.77 2.56-1.69 2.53-1.44 2.5-1 2.45-.44 2.42.16 2.45.67 2.62.92 2.98.68 3.19" filter="url(#a)"/><path d="m-61.73-42.44-1.07 2.55-.97 2.41-.93 2.34-.95 2.4-.95 2.47-.94 2.55-.94 2.6-.92 2.62-.88 2.64-.81 2.66-.73 2.64-.68 2.63-.66 2.59-.68 2.57-.66 2.56-.6 2.59-.44 2.67-.25 2.76-.04 2.84.09 2.85.14 2.78.1 2.59.03 2.35.02 2.12.06 2.13-.02 2.64" filter="url(#a)"/><path d="m-62.92-39.75-.92 2.41-.9 2.27-.98 2.34-1.16 2.45-1.37 2.55-1.51 2.59-1.57 2.61-1.54 2.62-1.44 2.64-1.28 2.64-1.1 2.62-.95 2.57-.87 2.53-.88 2.5-.89 2.53-.85 2.63-.72 2.76-.51 2.89-.29 2.96-.23 2.95-.59 2.92-1.35 2.72m21.9-57.7-5.31 2.45-3.44 2.32-.57 2.4-.28 2.51-1.26 2.6-2.27 2.63-2.75 2.67-2.71 2.67-2.33 2.68-1.81 2.67-1.31 2.65-.85 2.63-.55 2.62-.47 2.64-.67 2.66-1.14 2.72-1.79 2.74-2.38 2.75-2.77 2.71-2.82 2.66-2.53 2.58-2.03 2.5-1.5 2.45-1.11 2.42-.9 2.44-.86 2.45-.88 2.45-.84 2.43-.76 2.38-.7 2.29-.75 2.22-.9 2.17-1.04 2.16-1.01 2.15-.78 2.19-.26 2.39 1.47 3.02" filter="url(#a)"/><path d="m-63.92-37-3.29 2.08-.47 2.33-.6 2.51-1.36 2.61-1.8 2.64-1.7 2.65-1.27 2.67-.81 2.67-.49 2.67-.31 2.64-.23 2.61-.19 2.6-.16 2.61-.18 2.65-.22 2.7-.26 2.75-.29 2.77-.29 2.73-.26 2.67-.26 2.56-.28 2.47-.33 2.41-.37 2.38-.32 2.42-.2 2.47-.04 2.5.1 2.5.17 2.39.28 2.24.47 2.12.61 2.22 1.01 2.63" filter="url(#a)"/><path d="m-63.92-37-.42 2.08-.72 2.32-.83 2.5-.79 2.6-.66 2.64-.51 2.65-.38 2.66-.29 2.67-.2 2.66-.13 2.63-.06 2.61.03 2.59.12 2.6.22 2.64.3 2.69.34 2.75.35 2.78.36 2.75.35 2.68.38 2.56.41 2.45.48 2.37.55 2.35.65 2.4.76 2.49.91 2.56 1.09 2.58 1.2 2.47 1.15 2.08.77 1.21m-6.92-70.47-.82 2.18-.88 2.41-1.04 2.38-1.31 2.39-1.55 2.43-1.62 2.47-1.48 2.53-1.22 2.58-.96 2.6-.81 2.61-.79 2.6-.87 2.57-.99 2.57-1.13 2.57-1.21 2.58-1.21 2.57-1.09 2.55-.92 2.52-.68 2.48-.4 2.45-.12 2.44.08 2.49v2.62l-.4 2.82-.85 2.9-.31 2.54m22.41-66.04-7.94 2.55-.39 2.71-.57 2.68-1.32 2.64-1.6 2.65-1.66 2.67-1.61 2.66-1.36 2.64-.98 2.6-.68 2.57-.6 2.58-.84 2.62-1.28 2.69-1.78 2.76-2.15 2.78-2.3 2.75-2.13 2.67-1.71 2.56-1.16 2.43-.69 2.36-.53 2.34-.77 2.39-1.34 2.48-1.85 2.56-1.96 2.58-1.46 2.46-.52 2.08.17 1.2" filter="url(#a)"/><path d="m-66.34-30.13-1.64 2.82-2.35 2.73-2.52 2.62-2.6 2.64-2.99 2.68-3.36 2.67-3.29 2.64-2.74 2.59-1.95 2.57-1.16 2.57-.51 2.62-.1 2.7-.07 2.76-.5 2.78-1.38 2.75-2.39 2.66-3.14 2.55-3.27 2.43-2.75 2.37-1.95 2.35-1.34 2.4-1.26 2.48-1.44 2.52-1.3 2.52-.56 2.4.08 2.17-.8 1.92-1.68 2.24M68.14-22.95l2.52 1.51 7.98 2.47 7.93 2.79 3.78 2.78.17 2.7-1.18 2.61-1.02 2.56-.51 2.54-.2 2.51L87.5 2l-.06 2.47.04 2.46.25 2.47.6 2.52 1.11 2.56 1.75 2.61 2.45 2.65 3.02 2.65 3.32 2.64 3.31 2.61 2.98 2.57 2.44 2.52 1.71 2.47.77 2.43-.32 2.39-1.31 2.34-1.78 2.28-1.4 2.2-.18 2.14 1.25 2.1 2.02 2.05 1.28 1.93-2.52 2.02" filter="url(#a)"/><path d="m-66.96-27.49-1.3 3.12-1.49 2.55-1.97 2.62-2.67 2.68-3.22 2.7-3.35 2.65-3.1 2.6L-86.75-6l-2.22 2.59-1.65 2.63-1 2.71-.3 2.76.29 2.78.66 2.73.76 2.65.67 2.55.52 2.46.36 2.41.23 2.39.14 2.42.02 2.45-.16 2.46-.36 2.43-.58 2.37-.7 2.27-.79 2.19-.93 2.15-1.25 2.14-1.54 2.1-1.16 2.02-.77 1.9M67.77-24.4l.16.87.51 2.28.6 2.81.56 2.9.5 2.84.48 2.74.46 2.67.44 2.61.39 2.58.3 2.58.15 2.59.01 2.61-.14 2.64-.27 2.65-.35 2.65-.41 2.64-.44 2.62-.45 2.58-.48 2.57-.49 2.53-.51 2.48-.53 2.4-.54 2.33-.58 2.26-.61 2.23-.66 2.23-.74 2.24-.83 2.26-.97 2.41-1.14 2.91" filter="url(#a)"/><path d="m67.45-25.72.61 2.17.53 2.09.58 2.42.62 2.66.63 2.69.64 2.65.68 2.58.76 2.54.79 2.51L74-.93l.54 2.45.31 2.42.14 2.39.06 2.37.06 2.41.06 2.5.02 2.62-.01 2.71-.03 2.68-.03 2.52-.13 2.24-.44 2.16M66.1-30.57l2.86 2.61 3.13 2.25 2.41 2.21 1.78 2.44 1.39 2.66 1.26 2.77 1.26 2.79 1.23 2.74 1.16 2.68 1.04 2.64.93 2.61.88 2.6.87 2.61.9 2.62.97 2.64 1.05 2.66 1.1 2.66 1.08 2.64.92 2.62.67 2.6.34 2.57.01 2.52-.25 2.48-.38 2.42-.34 2.34-.14 2.29.17 2.25.45 2.25.59 2.25.65 2.25.8 2.24.97 2.17.5 2-1.24 1.87" filter="url(#a)"/><path d="m65.96-31.02.8 1.89 1.15 2.54 1.34 2.48 1.38 2.44 1.18 2.51.91 2.61.8 2.65.92 2.64 1.17 2.59 1.4 2.55 1.45 2.52 1.3 2.49 1.09 2.46.97 2.43.98 2.39 1.06 2.37 1.09 2.4 1.04 2.49 1.03 2.64 1.13 2.76 1.1 2.77.63 2.56.22 1.86M64.35-35.73l2.89 2.34 5.64 2.58 4.18 2.49 2.46 2.37 1.59 2.39 1.14 2.5 1.05 2.63 1.4 2.71 2.08 2.75 2.65 2.72 2.68 2.69 2.05 2.65.98 2.63-.1 2.61-.79 2.62-.86 2.63-.36 2.64.54 2.66 1.52 2.66 2.34 2.64 2.76 2.63 2.75 2.6 2.41 2.57 1.94 2.54 1.56 2.48 1.4 2.42 1.44 2.35 1.56 2.3 1.6 2.26 1.39 2.24.83 2.26.03 2.25-.57 2.25-.29 2.18.85 1.99 1.03 1.88" filter="url(#a)"/><path d="m64.35-35.73 3.23 2.3 1.06 2.54 1.58 2.46 2.53 2.33 2.68 2.31 2.07 2.43 1.24 2.59.69 2.69.5 2.73.58 2.71.79 2.65 1.15 2.61 1.62 2.57 2.14 2.54 2.48 2.54 2.45 2.55 2.06 2.61 1.51 2.68 1.19 2.73 1.2 2.64 1.26 2.42.92 2.35 1.02 3.18" filter="url(#a)"/><path d="m64.09-36.23 1.19 2.79 1.45 2.24 2.35 2.27 3.33 2.38 3.46 2.44 2.61 2.5 1.43 2.57.56 2.62.22 2.65.26 2.64.41 2.62.48 2.59.44 2.56.37 2.52.34 2.5.46 2.48.74 2.47 1.17 2.49 1.68 2.52 2.17 2.56 2.52 2.61 2.64 2.65 2.44 2.65 1.86 2.65.99 2.63.05 2.58-.69 2.54L98 34.97l-.89 2.44-.51 2.42-.08 2.39.27 2.29.42 2.12.26 2.05-.42 2.92" filter="url(#a)"/><path d="m63.06-39.56 12.26 3.18 9.69 2.76 3.31 2.61-.52 2.48-2.31 2.38-2.62 2.38-1.89 2.47-.63 2.59.73 2.69 1.97 2.72 2.94 2.71 3.54 2.67 3.78 2.63 3.68 2.59 3.4 2.58 3.15 2.57 3.12 2.59 3.35 2.63 3.68 2.66 3.85 2.67 3.55 2.64 2.58 2.6 1.08 2.56-.15 2.58.29 2.59 2.95 2.55 5.29 2.89" filter="url(#a)"/><path d="m60.83-44.24 3.19 2.95 2.28 2.49.84 2.54.48 2.58.75 2.55 1.04 2.49 1.13 2.46 1 2.47.84 2.54.76 2.61.86 2.68 1.03 2.71 1.19 2.71 1.2 2.69 1.05 2.65.74 2.64.37 2.62.04 2.62-.17 2.63-.21 2.65-.12 2.66.04 2.66.2 2.65.3 2.63.29 2.61.23 2.58.14 2.55.11 2.49.18 2.43.33 2.36.49 2.28.52 2.25.33 2.24-.04 2.26-.36 2.27-.53 2.42-1.04 2.93" filter="url(#a)"/><path d="m60.88-44.02 1.47 2.65 1.01 2.53 1.07 2.51 1.27 2.44 1.42 2.38 1.46 2.37 1.41 2.39 1.3 2.44 1.21 2.49 1.1 2.55 1.03 2.6.94 2.62.9 2.63.89 2.61.92 2.59.98 2.56 1.05 2.53 1.1 2.49 1.09 2.48 1.06 2.45 1.01 2.47.95 2.5.86 2.55.67 2.61.36 2.66-.09 2.68-.51 2.67-.75 2.65-.68 2.63-.4 2.56-.19 2.38-.12 2.13.15 2.32M59.38-46.74l12.7 2.64 9.7 2.59L85.63-39l.89 2.52 1.1 2.54 2.47 2.51 3.47 2.46 3.49 2.41 2.64 2.41 1.52 2.47.87 2.56 1.1 2.65 2.07 2.71 3.19 2.7 3.75 2.67 3.53 2.62 2.75 2.58 2.07 2.55 2.06 2.52 3 2.5 4.51 2.53 5.34 2.75 4.22 3.27 3.04 4.09" filter="url(#a)"/><path d="m58.59-48.48 1.46 1.79 1.98 2.47 2.14 2.59 2.31 2.58 2.32 2.52 2.02 2.45 1.55 2.41 1.03 2.4.64 2.41.46 2.44.52 2.49.77 2.55 1.13 2.59 1.49 2.62 1.74 2.62 1.79 2.62 1.64 2.59 1.38 2.56 1.12 2.53 1.01 2.5 1.1 2.48 1.32 2.46 1.55 2.46 1.63 2.49 1.51 2.55 1.17 2.62.72 2.67.25 2.69-.17 2.67-.39 2.67-.39 2.67-.21 2.63-.25 2.32-.74 1.63" filter="url(#a)"/><path d="m58.59-48.48 1.03 1.77 1.45 2.45 1.8 2.57 2.11 2.56 2.38 2.5 2.63 2.44 2.79 2.39 2.83 2.37 2.79 2.38 2.81 2.42 3.01 2.46 3.43 2.52 3.97 2.58L96-14.46l4.42 2.62 3.97 2.61 3.13 2.58 2.26 2.55 1.71 2.52 1.65 2.5 1.93 2.45 2.21 2.4 2.23 2.33 1.92 2.31 1.35 2.41.71 2.68-.7 2.45m-65.87-69 1.46 3.24.65 2.05.56 2.1.5 2.29.35 2.42.12 2.5-.25 2.53-.81 2.52-1.43 2.49-1.9 2.48-2 2.49-1.66 2.54-.98 2.6-.2 2.66.37 2.69.57 2.7.33 2.68-.2 2.66-.81 2.63-1.32 2.61-1.61 2.62-1.69 2.62-1.66 2.64-1.56 2.67-1.44 2.67-1.25 2.65-1 2.64-.72 2.61-.57 2.6-.73 2.59-1.32 2.58-2.17 2.49-2.82 2.29-2.51 1.79-.67.69" filter="url(#a)"/><path d="m57.24-50.35 9.09 1.74 2.72 2.04-.63 2.36-.5 2.5 1.02 2.53 2.41 2.5 3.11 2.45 3.22 2.4 3.05 2.39 2.87 2.4 2.67 2.43 2.41 2.48 2.07 2.53 1.71 2.58 1.42 2.61 1.23 2.62 1.18 2.61 1.25 2.59 1.45 2.56 1.8 2.53 2.19 2.5 2.51 2.46 2.62 2.42 2.51 2.39 2.27 2.4 2.05 2.5 1.77 2.67 1.29 2.85.72 2.98 1.47 3.01" filter="url(#a)"/><path d="m55.28-54.01 1.75 2.88 1.47 2.26 1.34 2.22 1.27 2.35 1.22 2.46 1.15 2.5 1.06 2.48.92 2.43.8 2.4.7 2.38.65 2.38.62 2.41.62 2.45.61 2.51.6 2.57.58 2.61.55 2.62.5 2.61.44 2.58.35 2.56.25 2.53.13 2.51.04 2.51-.01 2.51.01 2.34.16 1.34" filter="url(#a)"/><path d="m54.64-54.53 1.79 2.24 1.33 2.13 1.34 2.08 1.6 2.06 1.91 2.12 2.05 2.24 1.92 2.34 1.63 2.44 1.34 2.48 1.11 2.48.97 2.45.87 2.42.76 2.4.68 2.44.63 2.53.66 2.65.74 2.73.83 2.75.92 2.68.98 2.59.9 2.48.58 2.52.38 3.05" filter="url(#a)"/><path d="m53.51-56.48 5.07 2.61 2.24 2.53 1.59 2.33 1.33 2.3 1.21 2.37 1.38 2.45 1.77 2.48 2.11 2.47 2.14 2.44 1.83 2.41 1.39 2.38 1.06 2.39.95 2.41 1.07 2.46 1.31 2.51 1.56 2.57 1.8 2.61 2.02 2.63 2.19 2.61 2.24 2.59 2.05 2.55 1.68 2.54L94.84.68l1.33 2.51 1.65 2.51 1.79 2.34 1.13 1.35" filter="url(#a)"/><path d="m52.83-57.51 1.69 2.68 1.58 2.35 1.64 2.21 1.86 2.13 2.12 2.11 2.29 2.16 2.29 2.26 2.19 2.35 2.1 2.44 2.05 2.48 1.99 2.48 1.85 2.47 1.61 2.44 1.41 2.45 1.37 2.48 1.54 2.57 1.84 2.64 2.08 2.71 2.07 2.72 1.78 2.68 1.29 2.64.76 2.6.31 2.57.16 2.55.53 2.43 1.19 2.21-.22 2.39" filter="url(#a)"/><path d="m51.59-59.24 1.82 1.46 3.09 1.84 3 2.16 2.4 2.28 1.91 2.3 1.59 2.33 1.33 2.38 1.15 2.43 1.07 2.47 1.19 2.46 1.52 2.43 2 2.41 2.5 2.39 2.85 2.39 3.02 2.41L85-22.65l2.83 2.5 2.66 2.57 2.48 2.62 2.23 2.64 1.88 2.62 1.43 2.58 1.05 2.56.85 2.54.87 2.46 1.29 2.35 2.31 2.83M49.57-61.45l7.12 1.36 9.88 1.37 7.2 1.77 4.35 2.04 2.54 2.16 1.72 2.17 1.72 2.15 2.24 2.16 2.78 2.19 2.91 2.25 2.44 2.34 1.54 2.41.71 2.46.39 2.48.88 2.46 2.14 2.44 3.79 2.43 5.28 2.47 6.1 2.55 6.02 2.65 5.13 2.74 3.95 2.75 3.1 2.71 2.93 2.6 3.41 2.51 4.62 2.54 7.74 3.06" filter="url(#a)"/><path d="m49.57-61.45 1.74 1.36 1.8 1.39 2.23 1.78 3.08 2.06 3.79 2.16 3.88 2.18 3.29 2.17 2.41 2.17 1.58 2.21 1.05 2.28.88 2.35.97 2.42 1.24 2.47 1.55 2.47 1.81 2.48 1.97 2.46 2.09 2.48 2.33 2.51 2.8 2.58 3.42 2.64 3.97 2.7 4.15 2.72 3.76 2.69 2.92 2.66 1.93 2.61 1.2 2.58.99 2.54 1.26 2.48 1.82 2.42 2.41 2.57 3.67 3.13" filter="url(#a)"/><path d="m47.55-63.89 4.95 2.02 5.53 1.58 5.36 1.56 4.46 1.79 3.12 2 2.2 2.11 2.01 2.15 2.2 2.14 2.29 2.16 2.11 2.18 1.76 2.25 1.53 2.33 1.63 2.4 2.17 2.46 3.07 2.48 4.1 2.46 4.92 2.42 5.25 2.41 5.08 2.43 4.67 2.53 4.44 2.66 4.67 2.78 5.34 2.82 6.53 2.76 8.15 2.64 8.57 2.76" filter="url(#a)"/><path d="m46.94-64.83 1.04 1.34 1.41 1.58 1.49 1.56 1.59 1.63 1.74 1.81 1.89 1.98 1.98 2.08 2.03 2.14 1.99 2.15 1.88 2.16 1.66 2.2 1.41 2.26 1.22 2.33 1.1 2.41 1.09 2.45 1.16 2.48 1.25 2.46 1.36 2.44 1.47 2.43 1.59 2.46 1.67 2.54 1.7 2.66 1.66 2.76 1.61 2.78 1.52 2.73 1.32 2.59.89 2.37 1.27 1.95M45.19-66.17l8.45 1.27 5.38 1.42 1.19 1.51.46 1.55 1.69 1.64 3.15 1.79 3.96 1.95 4.01 2.06 3.56 2.11 2.98 2.13 2.53 2.14 2.4 2.18 2.58 2.23 2.97 2.32 3.28 2.39 3.37 2.46 3.17 2.49 2.84 2.47 2.63 2.41 2.88 2.33 3.71 2.33 4.84 2.47 5.6 2.72 5.63 2.76 5.18 1.93" filter="url(#a)"/><path d="m45.19-66.17 5.11 1.29 3.98 1.44 2.05 1.53.69 1.58.05 1.69.17 1.83.76 1.98 1.57 2.08 2.35 2.13 2.96 2.17 3.27 2.19 3.25 2.24 2.91 2.29 2.38 2.36 1.82 2.41 1.35 2.46 1 2.47.75 2.49.58 2.48.44 2.5.44 2.54.61 2.59.95 2.65 1.44 2.69 1.89 2.7 2.21 2.7 2.27 2.66 2.14 2.63 1.9 2.6 1.67 2.57 1.48 2.58 1.34 2.62 1.11 2.77.64 2.98.06 2.94.57 1.79M43.8-67.8l-2.53 1.02.98 1.63 1.96 1.89 1.7 1.88 1.26 1.82 1.07 1.82 1.14 1.9 1.31 2.02 1.4 2.14 1.32 2.23 1.06 2.3.68 2.37.23 2.42-.2 2.44-.54 2.45-.71 2.45-.73 2.42-.61 2.4-.47 2.4-.4 2.41-.5 2.45-.73 2.51-.97 2.57-1.11 2.64-1.04 2.67-.83 2.63-.59 2.58-.59 2.59-1.18 2.84-2.48 3.88" filter="url(#a)"/><path d="m42.5-69.21-1.47 2.35 1.77 1.74.97 1.58-.29 1.56-1.05 1.59-1.26 1.68-1.21 1.82-1.14 1.95-1.14 2.05-.99 2.12-.58 2.14.11 2.18.78 2.21 1.13 2.27.84 2.34-.07 2.41-1.41 2.45-2.74 2.47-3.7 2.47-4.02 2.45-3.72 2.46-3.01 2.48-2.14 2.56-1.32 2.66-.58 2.74-.11 2.76L15.93-9l-1.3 2.62-3.15 2.52-4.49 2.55-3.12 3.08" filter="url(#a)"/><path d="m42.5-69.21 2.14 2.36 1.35 1.75.68 1.59.19 1.56.15 1.61.48 1.7.94 1.84 1.23 1.96 1.22 2.07.96 2.12.52 2.16.06 2.2-.26 2.24-.35 2.29-.19 2.36.13 2.41.53 2.45.83 2.48.98 2.48.94 2.49.71 2.51.39 2.54.03 2.59-.28 2.64-.47 2.69-.55 2.71-.53 2.7-.51 2.66-.57 2.64-.77 2.59-1.07 2.58-1.34 2.58-1.44 2.63-1.22 2.77-.87 2.97-.78 2.95-1.17 1.79" filter="url(#a)"/><path d="m42.5-69.21 3.79 2.35 2.86 1.74 1.93 1.58 1.7 1.56 1.7 1.59 1.77 1.68 1.9 1.82 2.07 1.95 2.21 2.05 2.31 2.12 2.35 2.14 2.33 2.18 2.19 2.21 1.94 2.27 1.61 2.34 1.31 2.41 1.13 2.45 1.11 2.47 1.26 2.47 1.51 2.45 1.84 2.46 2.18 2.48 2.49 2.56 2.72 2.66 2.82 2.74 2.76 2.76L98.85-9l2.25 2.62 1.81 2.52 1.17 2.55.14 3.08M41.74-69.59l.08 1.44.5 1.41 1.01 1.65 1.46 1.82 1.69 1.83 1.67 1.82 1.44 1.84 1.09 1.92.7 2.02.32 2.13-.02 2.23-.25 2.3-.34 2.36-.31 2.42-.17 2.44.04 2.45.26 2.45.44 2.42.51 2.41.45 2.4.29 2.42.05 2.45-.22 2.51-.52 2.57-.78 2.64-.93 2.67-.86 2.64-.59 2.58-.42 2.59-.68 2.85-.83 3.88" filter="url(#a)"/><path d="m39.43-71.82 3.31 1.92 1.72 1.58 1.94 1.56 2.4 1.67 2.5 1.78 2.27 1.82 1.91 1.82 1.6 1.85 1.42 1.92 1.39 2.02 1.51 2.12 1.75 2.22 2.07 2.29 2.36 2.36 2.54 2.41 2.57 2.44 2.43 2.45 2.18 2.45 1.85 2.42 1.54 2.41 1.26 2.4 1.08 2.41 1.01 2.44 1.09 2.5 1.32 2.58 1.61 2.66 1.89 2.68L91.98-10l2.04 2.51 1.91 2.35 1.43 1.97" filter="url(#a)"/><path d="m37.82-72.92 1.91 1.39 2.1 1.6 1.91 1.56 1.68 1.6 1.55 1.68 1.51 1.77 1.51 1.8 1.51 1.82 1.48 1.87 1.43 1.93 1.39 2.02 1.36 2.13 1.34 2.21 1.35 2.3 1.37 2.36 1.38 2.41 1.38 2.44 1.36 2.45 1.31 2.44 1.22 2.43 1.1 2.42.94 2.41.81 2.42.7 2.46.64 2.51.61 2.58.61 2.64.54 2.67.44 2.65.32 2.59.28 2.59.31 2.85.05 3.89m-37.4-74.89 6.05 1.39 4.99 1.6 2.41 1.56 1.63 1.6 1.73 1.68 2.2 1.77 2.88 1.8 3.66 1.82 4.32 1.87 4.69 1.93 4.79 2.02 4.6 2.13 4.21 2.21 3.63 2.3 2.9 2.36 2.1 2.41L96-40.03l.93 2.45.88 2.44 1.24 2.43 1.95 2.42 2.74 2.41 3.43 2.42 3.88 2.46 4.18 2.51 4.47 2.58 4.76 2.64 4.85 2.67 4.33 2.65 3.12 2.59 1.69 2.59 1.13 2.85 2.77 3.89" filter="url(#a)"/><path d="m36.33-73.95 2.16 1.46 2.35 1.68 2.69 1.8 2.83 1.79 2.74 1.72 2.49 1.64 2.21 1.61 1.96 1.61 1.79 1.67 1.74 1.78 1.82 1.9 1.95 2.01 2.03 2.08 2.03 2.11 1.95 2.12 1.89 2.16 1.91 2.2 2.03 2.29 2.2 2.39 2.34 2.48 2.36 2.56 2.33 2.6 2.29 2.53 1.79 2.16.17.92m-58.5-53.78 2.62 1.53 3 1.2 3.63 1.25 3.66 1.37 3.63 1.45 3.81 1.51 4.05 1.56 4.11 1.61 3.88 1.66 3.39 1.72 2.85 1.77 2.54 1.79 2.71 1.84 3.41 1.89 4.43 1.98 5.33 2.08 5.74 2.17 5.43 2.26 4.54 2.33 3.45 2.4 2.58 2.45 2.21 2.49 2.38 2.46 2.95 2.41 3.61 2.34 4.13 2.39 4.66 2.68 4.97 2.92" filter="url(#a)"/><path d="m27.89-79.21 2.27 1.04 2.22 1.19 1.94 1.2 1.84 1.26 1.92 1.35 2.08 1.44 2.21 1.49 2.31 1.54 2.3 1.59 2.22 1.65 2.09 1.71L53.26-62l1.94 1.77 1.99 1.81 2.14 1.86 2.34 1.95 2.53 2.05 2.68 2.15 2.71 2.23 2.59 2.31 2.37 2.38 2.15 2.47 2.08 2.56 2.07 2.7 1.46 3.07" filter="url(#a)"/><path d="m27.89-79.21 2.45 1.04 2.3 1.19 2.11 1.21 2.03 1.26 2.11 1.36 2.25 1.43 2.34 1.5 2.37 1.54 2.37 1.6 2.36 1.66 2.3 1.71 2.19 1.75 2.02 1.78 1.89 1.81 1.86 1.87 1.99 1.96 2.23 2.06 2.48 2.16 2.61 2.24 2.56 2.31 2.36 2.39 2.1 2.48 1.94 2.55 1.93 2.61 1.97 2.57 1.52 2.15" filter="url(#a)"/><path d="m26.2-80.32 2.55 1.04 2.43 1.11L33.83-77l2.9 1.21 3.17 1.28 3.42 1.35 3.6 1.44 3.7 1.49 3.69 1.55 3.51 1.6 3.12 1.66 2.59 1.71 2.07 1.75 1.7 1.79 1.6 1.82 1.8 1.89 2.29 1.97 2.92 2.06 3.62 2.16 4.22 2.25 4.58 2.32 4.6 2.4 4.25 2.48 3.63 2.52 3 2.52 2.91 2.39 3.86 2.02 5.95 1.33" filter="url(#a)"/><path d="m23.93-81.29 4.03 1.57 3.05 1.32 2.44 1.18 2.72 1.11 3.3 1.12 3.58 1.24 3.36 1.37 2.87 1.51 2.43 1.61 2.22 1.67 2.27 1.68 2.48 1.66 2.71 1.64 2.91 1.64 3.05 1.68 3.15 1.76 3.24 1.88 3.28 1.98 3.23 2.07 3.15 2.1 3.14 2.11 3.41 2.11 4.03 2.16 4.66 2.25 4.62 2.36 3.94 2.49 4.7 2.39" filter="url(#a)"/><path d="m23.93-81.29 4.24 1.58 4.24 1.33 3.84 1.19 2.86 1.12 1.98 1.16 1.5 1.26 1.37 1.4 1.42 1.53 1.56 1.62 1.7 1.67 1.84 1.69 1.95 1.67 2.08 1.68 2.2 1.7 2.32 1.75 2.45 1.83 2.57 1.9 2.66 2 2.75 2.06 2.81 2.12 2.85 2.16L78-44.66l2.92 2.27 2.99 2.33 3.09 2.4 3.24 2.45 3.34 2.49 3.37 2.48 3.32 2.45 3.27 2.41 3.27 2.42 3.27 2.52 3.08 2.7 2.74 2.88 2.73 3.01 2.95 3.77" filter="url(#a)"/><path d="m22.72-81.68 2.07.8 2.54 1.18 2.38 1.21 2.03 1.16 1.74 1.11 1.62 1.13 1.65 1.21 1.78 1.34 1.9 1.48 1.99 1.59 2.01 1.66 1.97 1.68 1.86 1.65 1.72 1.6 1.58 1.57 1.48 1.58 1.48 1.65 1.57 1.82 1.69 2.02 1.76 2.21 1.8 2.48 2.32 3.59" filter="url(#a)"/><path d="m18.48-83.21 2.96 1.03 2.07.73 2.09.86 2.28 1.03 2.39 1.11 2.36 1.14 2.23 1.16 2.09 1.21 1.98 1.29 1.94 1.39 1.92 1.5 1.91 1.59 1.85 1.64 1.77 1.67L50-64.19l1.61 1.68 1.6 1.71 1.63 1.75 1.67 1.82 1.71 1.9 1.75 1.98 1.77 2.06 1.82 2.11 1.88 2.16 1.95 2.2 2.01 2.26 2.01 2.32 1.95 2.4 1.87 2.47 1.78 2.51 1.72 2.5 1.65 2.45 1.58 2.34 1.55 2.3 1.57 2.49 1.49 3 .94 3.64" filter="url(#a)"/><path d="m18.27-83.34 2.52.53 2.74.74 2.7.86 2.77.92 3.03 1 3.26 1.06 3.41 1.12 3.56 1.19 3.77 1.25 3.98 1.33 4.07 1.4 3.96 1.46 3.66 1.52 3.3 1.57 3.01 1.64 2.93 1.69 3.12 1.74 3.51 1.76 3.97 1.77 4.38 1.81 4.71 1.91 4.9 2.05 4.81 2.17 4.33 2.16 4.44 2.11 7.88 2.56" filter="url(#a)"/><path d="m17.13-83.68 4.77.69 1.82.76 1.91.76 2.54.87 2.84 1 2.82 1.08 2.84 1.11 3.07 1.14 3.41 1.18 3.62 1.25 3.49 1.36L53.35-71 56-69.43l2.41 1.64 2.51 1.66 2.86 1.66 3.29 1.63 3.67 1.63 3.91 1.66 4.06 1.74 4.15 1.86 4.2 1.99 4.21 2.1 4.26 2.13 4.35 2.08 4.32 2.02 3.89 2.19 4.22 3.07" filter="url(#a)"/><path d="m16.96-83.76 2.01.43 2.24.57 2.21.71 2.25.83 2.3.91 2.42.98 2.71 1.04 3.17 1.11 3.65 1.17 4.09 1.25 4.46 1.31 4.88 1.38 5.4 1.45 5.95 1.5 6.33 1.56 6.32 1.62 5.82 1.7 4.91 1.75 3.85 1.75 2.91 1.69 2.46 1.67 3.02 1.79 5.25 2.22 9.38 3.02" filter="url(#a)"/><path d="m12.79-84.85 3.17.83 2.43.62 2.29.64 2.3.73 2.3.82 2.24.9 2.2.98 2.17 1.05 2.16 1.11L36.22-76l2.19 1.25 2.2 1.32 2.2 1.38 2.17 1.45 2.12 1.51 2.04 1.57 1.98 1.62 1.97 1.7 2.01 1.74 2.08 1.75 2.16 1.73 2.15 1.75 2.1 1.87 2.1 2.15 2.43 2.45 3.03 2.28" filter="url(#a)"/><path d="m12.8-84.77 1.62.47 1.76.6 1.82.68 1.72.72 1.63.77 1.64.86 1.67.96 1.64 1.04 1.52 1.08 1.34 1.11 1.24 1.13 1.23 1.19 1.29 1.3 1.34 1.43 1.32 1.57 1.23 1.66 1.12 1.71 1.05 1.69 1.03 1.64.96 1.57.67 1.36-.21.67" filter="url(#a)"/><path d="m11.07-85.16 2.04.5 2.09.62 1.72.62 1.55.65 1.5.73 1.5.81 1.5.89 1.51.97L26-78.33l1.51 1.1 1.46 1.16 1.37 1.24 1.21 1.31.97 1.37.68 1.44.39 1.5.22 1.55.21 1.62.32 1.7.45 1.77.45 1.76.33 1.67.29 1.55.54 1.59.63 1.99" filter="url(#a)"/><path d="m11.07-85.16 2.95.5 4.09.63 3.33.62 2.26.66 1.71.74 1.71.82 2.01.9 2.4.98 2.69 1.05 2.83 1.11 2.86 1.19 2.83 1.25 2.86 1.32L48.63-72l3.35 1.46 3.75 1.52 4.11 1.57 4.29 1.64 4.2 1.69 3.95 1.74 3.76 1.76 3.95 1.78 4.59 1.82 5.39 1.92 5.69 2.05 5.03 2.18 3.87 2.16 4.05 2.12 7.53 2.57" filter="url(#a)"/><path d="m11.07-85.16 3.28.5 3.01.63 2.27.62 2.42.66 3.08.74 3.66.82 3.74.9 3.38.98 2.9 1.05 2.66 1.11 2.87 1.19 3.48 1.25 4.25 1.32L56.96-72l5.19 1.46 5.03 1.52 4.5 1.57 3.89 1.64 3.56 1.69 3.75 1.74 4.47 1.76 5.43 1.78 6.24 1.82 6.7 1.92 6.84 2.05 6.6 2.18 5.57 2.16 3.71 2.12 4.73 2.57" filter="url(#a)"/><path d="m7.89-86.03 2.78.71 2.65.64 2.62.63 2.71.65 2.99.68 3.24.75 3.23.84 2.94.91 2.52.98 2.17 1.06 2.05 1.13 2.18 1.2 2.55 1.28 3.04 1.34 3.52 1.41 3.85 1.47 3.92 1.54 3.76 1.6 3.51 1.65 3.28 1.71 3.24 1.75 3.41 1.8 3.74 1.84 4.1 1.91 4.42 1.99 4.58 2.07 4.61 2.16 4.47 2.26 4.27 2.33 4.09 2.41 4.02 2.48 4.11 2.51 4.15 2.5 3.88 2.42 3.11 2.27 2.42 2.29 3.71 3.14" filter="url(#a)"/><path d="m7.89-86.03 2.78.71 2.6.64 2.44.63 2.27.65 2.16.68 2.09.75 2.1.84 2.11.91 2.13.98 2.13 1.06 2.11 1.13 2.06 1.2 2 1.28 1.94 1.34 1.9 1.41 1.87 1.47 1.85 1.54 1.83 1.6 1.81 1.65 1.79 1.71 1.77 1.75 1.76 1.8 1.73 1.84 1.72 1.91 1.7 1.99 1.69 2.07 1.68 2.16 1.68 2.26 1.65 2.33 1.63 2.41 1.58 2.48 1.48 2.51 1.37 2.5 1.24 2.42 1.19 2.27L75-28.86l1.82 3.14" filter="url(#a)"/><path d="m7.89-86.03 2.86.71 2.62.64 2.53.63 2.62.65 2.88.68 3.14.75 3.17.84 3 .91 2.74.98 2.58 1.06 2.6 1.13 2.76 1.2 2.95 1.28 3.04 1.34 3.01 1.41 2.91 1.47 2.81 1.54 2.82 1.6 2.95 1.65 3.13 1.71 3.27 1.75 3.32 1.8 3.28 1.84 3.2 1.91 3.17 1.99 3.23 2.07 3.41 2.16 3.61 2.26 3.73 2.33 3.64 2.41 3.27 2.48 2.68 2.51 2.19 2.5 2.28 2.42 3.02 2.27 3.58 2.29 2.97 3.14" filter="url(#a)"/><path d="m7.89-86.03 3.59.71 2.99.64 3.29.62 3.36.64 3.08.68 2.63.74 2.33.82 2.37.9 2.76.98 3.32 1.05 3.85 1.11 4.2 1.19 4.32 1.25 4.25 1.33 4.08 1.39 3.9 1.46L65.92-69l3.47 1.58 3.22 1.64 3.03 1.69 3 1.74 3.3 1.77 3.95 1.79 4.77 1.84 5.52 1.94 5.91 2.05 5.81 2.15 5.25 2.21 4.23 2.26 3.14 2.45 4.65 2.81M3.09-86.09l-2.28-.2-1.77.04-2.04.13-2.45.2-2.75.27-2.86.33-2.85.4-2.77.46-2.76.51-2.88.56-3.11.63-3.38.71-3.59.8-3.66.9-3.67 1.03-3.71 1.12-3.91 1.21-4.24 1.28-4.59 1.34-4.81 1.4-4.85 1.48-4.66 1.56-4.07 1.56-3.88 1.42" filter="url(#a)"/><path d="m-.08-86.53-1.08.21-2.18.18-2.68.2-2.68.27-2.52.34-2.37.4-2.29.46-2.26.51-2.28.56-2.36.62-2.43.7-2.51.79-2.62.9-2.76 1.02-2.95 1.13-3.13 1.21-3.24 1.27-3.23 1.32-3.24 1.39-3.5 1.49-4.08 1.61-4.08 1.61" filter="url(#a)"/></g><g fill="none" stroke="#000"><circle cx="9.08" cy="12.54" r="2.472" filter="url(#a)"/><circle cx="8.06" cy="11.548" r="2.128" filter="url(#a)"/><circle cx="7.72" cy="11.924" r="2.704" filter="url(#a)"/><circle cx="10.252" cy="10.356" r="1.572" filter="url(#a)"/><circle cx="10.692" cy="10.284" r="1.338" filter="url(#a)"/><circle cx="9.704" cy="10.06" r="1.776" filter="url(#a)"/><circle cx="9.884" cy="10.712" r="2.966" filter="url(#a)"/><circle cx="9.944" cy="12.468" r="2.03" filter="url(#a)"/><circle cx="9.876" cy="12.128" r="1.498" filter="url(#a)"/><circle cx="8.596" cy="13.016" r="1.996" filter="url(#a)"/><circle cx="-8.91" cy="11.824" r="1.458" filter="url(#a)"/><circle cx="-10.106" cy="14.788" r="2.128" filter="url(#a)"/><circle cx="-9.114" cy="13.08" r="1.072" filter="url(#a)"/><circle cx="-11.342" cy="12.012" r="1.352" filter="url(#a)"/><circle cx="-9.37" cy="14.24" r="2.816" filter="url(#a)"/><circle cx="-8.718" cy="14.616" r="1.622" filter="url(#a)"/><circle cx="-9.074" cy="15.312" r="2.206" filter="url(#a)"/><circle cx="-11.242" cy="14.46" r="2.04" filter="url(#a)"/><circle cx="-10.094" cy="12.124" r="2.354" filter="url(#a)"/><circle cx="-11.022" cy="13.324" r="2.814" filter="url(#a)"/></g><path fill="#66CC6F" stroke="#000" stroke-linejoin="round" stroke-width="3" d="m42.71 49.31-.24-.62-.03.76.36.08-.08 1.84.18-.39-.16.96.07.89-.26.98.4-.98-.64 1.8-.12.74.37-.95-1.1 2.73.2-.37-.13.23-.79 1.56.22-.21-.9 1.25-.85 1.33.19-.48.21-.2-2.23 2.59.43-.39-1.29 1.37.57-.56-.06.04-1.68 1.57-1.07.95.24-.06.16-.26-2.61 2.15 1.41-1.06-2.74 2 .24-.16-.83.56-.2.16-1.83 1.17-.65.36-.37.2-2.31 1.26-.54.29 1.04-.55-3.09 1.51-1.15.53 1.53-.68-3.88 1.66-.34.13-1.73.63-.02.01-.98.33-2.15.68.58-.19-.21.07.35-.11-2.39.69-1.03.27.03-.02-2.25.51-1.59.3.15-.01-1.45.22-2.15.34.15-.06-1.27.13-2.01.19.62-.06.06-.03-3.05.12-1.88.01 1.27.07-2.94-.21-.76.01-.29-.04.71.1-2.2-.25-.23-.07-.04-.01-.84-.12-1.06-.34-1.85-.39-1.43-.44.63.07.38.15-1.3-.49-1.98-.79-.22-.11-.87-.72-.04.16-.11-.16-.62-.49-.81-.43-.95-1.1 1.05 1.02-1.02-1.08-.56-.72h-.07l.06.13-1.03-1.82.02-.03-.17-1.05.2 1.17-.56-2.35.28.78-.19-.5-.24-.3.06-.76.11-.42-.1-1.04-.02-.02.08-.4.3-1.33.69-1.76-.35.92.2-.91.77-1.57.04-.04.75-1.04-.03-.17.36-.29 1.09-1.56-.36.38.71-.96.61-.63.39-.42 1.11-1.16.57-.58 1.03-.83.02-.14-1.02.91 3.12-2.6.04.07.77-.57.4-.33.12-.15 2.29-1.46.65-.46-.47.38 1.04-.66 1.12-.66 1.8-.97 1.07-.56-.36.2 2.02-.99.27-.13.48-.2.18-.1 3.52-1.42-2.04.81 2.94-1.14 2.14-.73.81-.25 1.58-.46-1.71.5 1.02-.3 1.08-.31 2.23-.55.94-.25 1.7-.35 1.14-.18-.28.05 1.6-.25 1-.14-1.16.15 2.75-.39 2.54-.12 1.21-.12h.33-.26l2.72.11-1.66-.05.9.02 1.93.01-.53-.03 2.75.27 1.34.2.66.19-.7-.14 1.66.27.88.29.19-.05.96.28.96.45-.66-.36 1.57.71-.21-.06 1.53.78.41.05.6.48.93.71-.46-.32.58.33.11.16.81.79.95.93.2.49-.11-.3.15.15.52 1.28.24.66" filter="url(#a)"/></svg>