<svg xmlns="http://www.w3.org/2000/svg" width="500" height="500" viewBox="-100 -100 200 200"><defs><clipPath id="c"><path d="m31.71-4.94.08-.26.05-.26.02-.26-.02-.27-.05-.27-.09-.27-.12-.27-.15-.27-.19-.28-.23-.27-.26-.27-.31-.27-.33-.27-.37-.26-.41-.27-.27-.31-.34-.31-.39-.31-.45-.31-.52-.3-.58-.3-.63-.28-.7-.28-.75-.28-.8-.26-.86-.25-.91-.24-.96-.23-1-.21-1.04-.2-1.09-.19-1.12-.17-1.15-.15-1.19-.14-1.22-.12-1.24-.11-1.26-.09-1.28-.07-1.29-.05-1.31-.04-1.32-.02H4.33L3-14.16l-1.33.03-1.32.05-1.33.06-1.32.09-1.31.1-1.29.11-1.29.13-1.27.14-1.25.15-1.23.17-1.21.18-1.19.19-1.17.21-1.15.21-1.11.22-1.1.22-1.06.24-1.04.24-1.02.24-.98.25-.96.26-.94.25-.91.26-.88.26-.87.26-.84.27-.81.27-.8.27-.76.28-.75.27-.72.28-.7.28-.68.28-.65.27-.63.28-.61.28-.62 11.93.5.4.5.39.52.4.53.39.54.39.56.39.56.39.58.38.59.38.6.37.61.37.62.36.63.35.64.35.66.33.66.33.68.33.69.31.7.31.72.29.72.28.74.27.74.25.76.22.76.21.77.19.78.17.78.14.79.13.8.09.8.07.81.05.81.01.82-.01.82-.03.83-.06.83-.09.83-.12.84-.14.85-.17.84-.19.85-.22.85-.24.86-.26.86-.29.86-.3.87-.33.87-.34.88-.36.87-.38.89-.38.88-.4.89-.41.89-.41.9-.42.9-.43.9-.43.91-.42.91-.43.91-.42.91-.41.92-.41.91-.4.92-.39.75-.37.76-.37.75-.37.74-.36.74-.36.73-.36.72-.35.71-.35.71-.34.69-.34.68-.32.67-.33.65-.31.64-.31.62-.3"/></clipPath><clipPath id="b"><path d="m-30.9-5.56-.08-.32-.05-.32-.03-.33-.01-.33.03-.34.05-.35.08-.35.1-.35.14-.36.17-.35.2-.36.23-.36.26-.36.3-.35.32-.36.19-.42.24-.43.3-.42.35-.42.4-.41.47-.41.52-.39.57-.39.63-.38.68-.36.73-.36.78-.33.83-.32.88-.3.93-.28.96-.26 1.01-.25 1.04-.22 1.08-.19 1.11-.18 1.15-.15 1.17-.13 1.2-.1 1.22-.09 1.24-.05 1.25-.03 1.27-.01 1.29.02 1.29.04 1.3.06 1.3.09 1.31.11 1.3.13 1.3.16 1.3.17 1.29.19 1.28.22 1.27.23 1.25.24 1.24.26 1.22.28 1.21.29 1.19.3 1.16.32 1.15.32 1.12.33 1.1.33 1.07.34 1.05.35 1.03.35 1 .35.99.36.96.36.94.36.92.37.9.37.88.38.85.37.84.38.81.38.79.37.76.38.75.38.72.37 1.5 15.38-.49.49-.5.49-.51.48-.52.49-.53.48-.55.48-.55.48-.57.47-.57.46-.58.45-.6.45-.6.43-.6.43-.62.41-.62.41-.64.39-.64.39-.66.37-.66.37-.67.34-.68.33-.69.31-.69.28-.69.26-.7.24-.7.21-.71.19-.7.15-.71.12-.71.1-.72.06-.71.03-.72-.01-.71-.03-.72-.07-.72-.1-.72-.14-.72-.16-.73-.2-.72-.23-.73-.26-.74-.28-.74-.32-.74-.34-.75-.36-.75-.39-.77-.41-.76-.43-.78-.45-.79-.46-.8-.48-.8-.48-.82-.5-.83-.5-.84-.5-.85-.51-.87-.5-.88-.5-.89-.5-.91-.48-.91-.48-.93-.46-.94-.45-.96-.43-.74-.43-.75-.42-.74-.41-.74-.41-.75-.41-.74-.39-.73-.39-.73-.38-.73-.37-.71-.37-.71-.35-.69-.34-.69-.33-.67-.32-.65-.31"/></clipPath><filter id="a"><feTurbulence baseFrequency=".05" numOctaves="3" result="noise" type="noise"/><feDisplacementMap in="SourceGraphic" in2="noise" scale="2"/></filter></defs><rect width="100%" height="100%" x="-100" y="-100" fill="#A6F2DE"/><path fill="#DF2053" stroke="#000" stroke-linejoin="round" stroke-width="1.667" d="m82.16 1.57-.29.04.18 2.77-.08-1.47-.15 2.48-.01-.17.07 1.37-.6 2.71.25.35-.35 1.74-.08 1.52-.34.77-.29 2.4-.09.24-.2 1.38-.82 2.28.44-1.35-.38 2.4-1.06 2.74.11-.8-1.24 3.79.57-1.58-.89 2.17-.29 1.56.01.31-1.52 2.94-.17.22-.46 1.46-.18.21-.82 1.83-1.08 2.07-.18.24.14-.18-1.66 3.05-.1.13-1.16 1.72.56-.58-1.3 2.11-.79.94-.8.6-1.09 1.96-1.05 1.43-.03-.01.48-.41-3.22 3.72.87-.59-1.89 2.14-1.58 1.61.72-1.04-1.96 2.1-.25.5-1.49 1.08.47-.49-2.05 1.95-2.43 2.25 1.18-1.14-.89.91-1.87 1.5-.17.02-1.03.81-1.21 1.06-2.28 1.35-.08.08-.65.65-2.22.94-1.29 1.18-.68.33-1.93.91-1.93.9h.8l-2.14 1.05 1.66-1.04-3.78 1.84.7-.11-2.26.81-1.2.59-2.85 1.26 1.29-.8-1.31.65-1.76.43-.12.41-1.36.18-.37.09-3.6 1.11-1.73.27-.46.06-1.39.33-3.05.62 2.04-.21-2.26.36-.11.13-1.97.18-1.17.21-2.26.43-1.61.14-.4-.09-1.77.01-.85.25-2.1-.14 1.44-.01-3.82.27h-2.28l.75.05-2.33-.07h-.46l-1.98-.31-1.69-.06-.96-.24-2.42-.18.65.18-2.19-.56-2.76-.58-1.11.08-1.02-.45-1.07.03 1.71.1-4.57-.81 1.21.16-2.31-.69-1.41-.26-.42-.24-.36-.08-3.05-1.21-.42-.08-1.86-.71-1.64-.74 1.2.61-4-1.67 1.72.48-2.92-1.09-1.08-.71-.14.06-2.72-1.53-1.37-.57-.11-.12-2.02-1.04.5-.14-1.15-.3-1.51-1.33.25.13-3.99-2.61.17.3-1.51-1.76-1.48-.97.28.18-1.7-1.31-.49-.09-1.28-1.29-.32-.17-1.47-1.47-1.3-1.53-.96-.76-.08.19-.33-.68-1.52-1.88-1.18-1.03-.08-.39-1.41-1.56.54.75-1.56-1.96-1.77-2.27-.33-.62-1.12-1.28.22.11-1.04-1.8-.08.32-.96-2.3-1.21-1.98-.35.13-.31-1.15-.86-1.54-1.14-1.64.17.16-1.25-3.06-.13.14-.06-.92-1.44-3.4.23.78-.47-1.06-.37-1.92-.87-2.27.97 2.69-1.22-2.63-.61-3.18-.31-.25.01.1-.27-2.2-.33-1.63-.41-.35-.03-1.49.11-.04-.71-4.69-.09 1.29-.24-3.71-.01-.01-.01-1.59-.37.46.16-2.12-.27-1.59.11-1.75-.17-2.16.05-.94.06 1.16.17-4.18-.03-.05.18-.5.19-2.34-.18-.77.04.19.61-3.19.18-.76-.08-1.62.03.24.4-1.38.17-1.52.12-.54.19-1.14.45-.65.95-3.13-.38.58.62-2.26 1.06-2.75 1.06-2.38-.58 1.07.36-.29.57-2.3-.02.14 1.02-2.05v-.43l.56-1.52 1.13-1.5 1.17-2.55.57-.89.19-.27.64-.82.88-1.51-.18-.05 1.83-2.83.39-.53.23-.41 1.5-2.25 1.33-1.49.63-1.19-.46 1.17 1.58-1.99.62-1.25.99-.58 1.91-1.93.52-.58.26-.31-.14-.32 1.35-.97.97-1.01.4-.24 1.84-1.7 1.81-1.49-.27.28.11-.27.99-.67 2.79-2.26-.05.03.01.12 2.33-1.84 1.37-.7 1.47-1.24-.88.71 1.57-1.02 1.62-.66 2.29-1.49 1.34-.69 1.61-.97-.37.38 1.11-.54 3.37-1.41-1.16.16 1.35-.53 2.38-.57 1.2-.67.29.06 1.23-.31 1.62-.64-.83.35 1.16-.66 3.35-.88-.27.19 2.77-.79.59-.26.98-.11 1.73-.39 1.08-.33 2.96-.45 1.59.01-.12-.17.11.23 3.1-.38.83-.19 2.13-.23-.28.17 2.28-.28.25.26 2.32-.18 1.11.1 2.33-.04-.86.17.05-.27 1.88.39 2.69.08 2.1.22.61.24-.53-.04 2.74.37.65-.24.41.14 3.94.78.63.15 1.34.42 1.52.36.4.06-.07-.13 3.41 1.06-.19-.04 2.56 1.07 1.25.28.99.27-.5-.02 1 .59 2.75.74-.36.1 1.79.53 2.52 1.33.5.29.59.42 1.14.56 2.42 1.34 1.25.53-.76-.52 3.47 2.12-.88-.15.98.44 2.05 1.17 1.38 1.19-1.62-1.14 2.77 1.71 1.96 1.91 1.29 1.02.72.5 1.08.93-.37.06.29-.04 1.33 1.23 2.39 2.31.97 1.43 1.05.88-.26-.18.75.34.91 1.2.93 1.01.27.45 1.05 1.93 1.02 1.29 1.49 1.37.76.73-.53-.29.22.11 1.24 1.94 1.11 2.15 1.07 1.55.73.75.16.57.09.8 1.5 1.97 1.01 2.5-.28-.72.73 1.37.6 1.71.2.76.27.76 1.03 1.67-.4-.71.67 1.64.41 1.57.5 1.03.67 2.61.5.99.04 1.44-.19-1.11 1.04 3.29.22 1.13.2 1.07-.13.78.38 1.31.24.84.25.61v1.89l.32 1 .16.92.08 4.63-.05-.33.13.88-.02 2.48.18 2.03-.29.04" filter="url(#a)"/><path fill="#fff" d="m-30.9-5.56-.08-.32-.05-.32-.03-.33-.01-.33.03-.34.05-.35.08-.35.1-.35.14-.36.17-.35.2-.36.23-.36.26-.36.3-.35.32-.36.19-.42.24-.43.3-.42.35-.42.4-.41.47-.41.52-.39.57-.39.63-.38.68-.36.73-.36.78-.33.83-.32.88-.3.93-.28.96-.26 1.01-.25 1.04-.22 1.08-.19 1.11-.18 1.15-.15 1.17-.13 1.2-.1 1.22-.09 1.24-.05 1.25-.03 1.27-.01 1.29.02 1.29.04 1.3.06 1.3.09 1.31.11 1.3.13 1.3.16 1.3.17 1.29.19 1.28.22 1.27.23 1.25.24 1.24.26 1.22.28 1.21.29 1.19.3 1.16.32 1.15.32 1.12.33 1.1.33 1.07.34 1.05.35 1.03.35 1 .35.99.36.96.36.94.36.92.37.9.37.88.38.85.37.84.38.81.38.79.37.76.38.75.38.72.37 1.5 15.38-.49.49-.5.49-.51.48-.52.49-.53.48-.55.48-.55.48-.57.47-.57.46-.58.45-.6.45-.6.43-.6.43-.62.41-.62.41-.64.39-.64.39-.66.37-.66.37-.67.34-.68.33-.69.31-.69.28-.69.26-.7.24-.7.21-.71.19-.7.15-.71.12-.71.1-.72.06-.71.03-.72-.01-.71-.03-.72-.07-.72-.1-.72-.14-.72-.16-.73-.2-.72-.23-.73-.26-.74-.28-.74-.32-.74-.34-.75-.36-.75-.39-.77-.41-.76-.43-.78-.45-.79-.46-.8-.48-.8-.48-.82-.5-.83-.5-.84-.5-.85-.51-.87-.5-.88-.5-.89-.5-.91-.48-.91-.48-.93-.46-.94-.45-.96-.43-.74-.43-.75-.42-.74-.41-.74-.41-.75-.41-.74-.39-.73-.39-.73-.38-.73-.37-.71-.37-.71-.35-.69-.34-.69-.33-.67-.32-.65-.31" filter="url(#a)" transform="translate(41.92 -24.67)"/><path fill="#fff" d="m31.71-4.94.08-.26.05-.26.02-.26-.02-.27-.05-.27-.09-.27-.12-.27-.15-.27-.19-.28-.23-.27-.26-.27-.31-.27-.33-.27-.37-.26-.41-.27-.27-.31-.34-.31-.39-.31-.45-.31-.52-.3-.58-.3-.63-.28-.7-.28-.75-.28-.8-.26-.86-.25-.91-.24-.96-.23-1-.21-1.04-.2-1.09-.19-1.12-.17-1.15-.15-1.19-.14-1.22-.12-1.24-.11-1.26-.09-1.28-.07-1.29-.05-1.31-.04-1.32-.02H4.33L3-14.16l-1.33.03-1.32.05-1.33.06-1.32.09-1.31.1-1.29.11-1.29.13-1.27.14-1.25.15-1.23.17-1.21.18-1.19.19-1.17.21-1.15.21-1.11.22-1.1.22-1.06.24-1.04.24-1.02.24-.98.25-.96.26-.94.25-.91.26-.88.26-.87.26-.84.27-.81.27-.8.27-.76.28-.75.27-.72.28-.7.28-.68.28-.65.27-.63.28-.61.28-.62 11.93.5.4.5.39.52.4.53.39.54.39.56.39.56.39.58.38.59.38.6.37.61.37.62.36.63.35.64.35.66.33.66.33.68.33.69.31.7.31.72.29.72.28.74.27.74.25.76.22.76.21.77.19.78.17.78.14.79.13.8.09.8.07.81.05.81.01.82-.01.82-.03.83-.06.83-.09.83-.12.84-.14.85-.17.84-.19.85-.22.85-.24.86-.26.86-.29.86-.3.87-.33.87-.34.88-.36.87-.38.89-.38.88-.4.89-.41.89-.41.9-.42.9-.43.9-.43.91-.42.91-.43.91-.42.91-.41.92-.41.91-.4.92-.39.75-.37.76-.37.75-.37.74-.36.74-.36.73-.36.72-.35.71-.35.71-.34.69-.34.68-.32.67-.33.65-.31.64-.31.62-.3" filter="url(#a)" transform="translate(-40.12 -29.13)"/><g fill="none" stroke="#000" transform="translate(41.92 -24.67)"><path stroke-linejoin="round" stroke-width="1.667" d="m-29.2-3.06-.22-.18-.21-.21-.21-.21-.19-.24-.19-.24-.17-.26-.15-.28-.14-.28-.12-.3-.1-.3-.08-.32-.05-.32-.03-.33-.01-.33.03-.34.05-.35.08-.35.1-.35.14-.36.17-.35.2-.36.23-.36.26-.36.3-.35.32-.36.19-.42.24-.43.3-.42.35-.42.4-.41.47-.41.52-.39.57-.39.63-.38.68-.36.73-.36.78-.33.83-.32.88-.3.93-.28.96-.26 1.01-.25 1.04-.22 1.08-.19 1.11-.18 1.15-.15 1.17-.13 1.2-.1 1.22-.09 1.24-.05 1.25-.03 1.27-.01 1.29.02 1.29.04 1.3.06 1.3.09 1.31.11 1.3.13 1.3.16 1.3.17 1.29.19 1.28.22 1.27.23 1.25.24 1.24.26 1.22.28 1.21.29 1.19.3 1.16.32 1.15.32 1.12.33 1.1.33 1.07.34 1.05.35 1.03.35 1 .35.99.36.96.36.94.36.92.37.9.37.88.38.85.37.84.38.81.38.79.37.76.38.75.38.72.37.7.37.68.37.65.37.64.36.61.36.6.36.57.35.55.35.53.34.52.34" filter="url(#a)"/><path stroke-linejoin="round" stroke-width="2.222" d="m-26.82-.82.34.2.39.21.43.22.47.23.5.24.54.26.56.26.59.28.61.28.63.3.65.31.67.32.69.33.69.34.71.35.71.37.73.37.73.38.73.39.74.39.75.41.74.41.74.41.75.42.74.43.96.43.94.45.93.46.91.48.91.48.89.5.88.5.87.5.85.51.84.5.83.5.82.5.8.48.8.48.79.46.78.45.76.43.77.41.75.39.75.36.74.34.74.32.74.28.73.26.72.23.73.2.72.16.72.14.72.1.72.07.71.03.72.01.71-.03.72-.06.71-.1.71-.12.7-.15.71-.19.7-.21.7-.24.69-.26.69-.28.69-.31.68-.33.67-.34.66-.37.66-.37.64-.39.64-.39.62-.41.62-.41.6-.43.6-.43.6-.45.58-.45.57-.46.57-.47.55-.48.55-.48.53-.48.52-.49.51-.48.5-.49.49-.49.47-.49.46-.49.45-.49.43-.49.42-.48.41-.48.39-.48.38-.47.37-.47.36-.46" filter="url(#a)"/><circle cx="12.819" cy="-1.108" r="3.554" clip-path="url(#b)" filter="url(#a)"/><circle cx="14.924" cy=".217" r="3.232" clip-path="url(#b)" filter="url(#a)"/><circle cx="13.119" cy="-4.703" r="4.23" clip-path="url(#b)" filter="url(#a)"/><circle cx="14.334" cy="-1.498" r="4.062" clip-path="url(#b)" filter="url(#a)"/><circle cx="12.874" cy="-4.518" r="4.928" clip-path="url(#b)" filter="url(#a)"/><circle cx="16.024" cy="-3.763" r="4.378" clip-path="url(#b)" filter="url(#a)"/><circle cx="13.714" cy="-.378" r="3.062" clip-path="url(#b)" filter="url(#a)"/><circle cx="14.244" cy="-3.878" r="4.522" clip-path="url(#b)" filter="url(#a)"/><circle cx="15.499" cy="-3.548" r="3.466" clip-path="url(#b)" filter="url(#a)"/><circle cx="16.064" cy="-.988" r="3.206" clip-path="url(#b)" filter="url(#a)"/></g><g fill="none" stroke="#000" transform="translate(-40.12 -29.13)"><path stroke-linejoin="round" stroke-width="2.222" d="m29.49-2.67.31-.19.3-.21.28-.21.26-.21.24-.23.22-.23.19-.24.17-.24.14-.25.11-.26.08-.26.05-.26.02-.26-.02-.27-.05-.27-.09-.27-.12-.27-.15-.27-.19-.28-.23-.27-.26-.27-.31-.27-.33-.27-.37-.26-.41-.27-.27-.31-.34-.31-.39-.31-.45-.31-.52-.3-.58-.3-.63-.28-.7-.28-.75-.28-.8-.26-.86-.25-.91-.24-.96-.23-1-.21-1.04-.2-1.09-.19-1.12-.17-1.15-.15-1.19-.14-1.22-.12-1.24-.11-1.26-.09-1.28-.07-1.29-.05-1.31-.04-1.32-.02H4.33L3-14.16l-1.33.03-1.32.05-1.33.06-1.32.09-1.31.1-1.29.11-1.29.13-1.27.14-1.25.15-1.23.17-1.21.18-1.19.19-1.17.21-1.15.21-1.11.22-1.1.22-1.06.24-1.04.24-1.02.24-.98.25-.96.26-.94.25-.91.26-.88.26-.87.26-.84.27-.81.27-.8.27-.76.28-.75.27-.72.28-.7.28-.68.28-.65.27-.63.28-.61.28-.59.27-.56.28-.55.27-.52.27-.51.27-.48.27-.47.26-.44.26-.43.26-.41.26m68.98 1.56-.35.22-.38.23-.42.24-.45.24-.48.25-.51.26-.53.27-.56.27-.58.29-.6.29-.62.3-.64.31-.65.31-.67.33-.68.32-.69.34-.71.34-.71.35-.72.35-.73.36-.74.36-.74.36-.75.37-.76.37-.75.37-.92.39-.91.4-.92.41-.91.41-.91.42-.91.43-.91.42-.9.43-.9.43-.9.42-.89.41-.89.41-.88.4-.89.38-.87.38-.88.36-.87.34-.87.33-.86.3-.86.29-.86.26-.85.24-.85.22-.84.19-.85.17-.84.14-.83.12-.83.09-.83.06-.82.03-.82.01-.81-.01-.81-.05-.8-.07-.8-.09-.79-.13-.78-.14-.78-.17-.77-.19-.76-.21-.76-.22-.74-.25-.74-.27-.72-.28-.72-.29-.7-.31-.69-.31-.68-.33-.66-.33-.66-.33-.64-.35-.63-.35-.62-.36-.61-.37-.6-.37-.59-.38-.58-.38-.56-.39-.56-.39-.54-.39-.53-.39-.52-.4-.5-.39-.5-.4-.47-.39-.47-.39-.45-.39-.44-.39-.43-.38-.41-.38-.4-.38-.39-.37-.37-.37-.36-.37" filter="url(#a)"/><circle cx="11.96" cy="-3.404" r="3.634" clip-path="url(#c)" filter="url(#a)"/><circle cx="10.095" cy="-5.454" r="3.106" clip-path="url(#c)" filter="url(#a)"/><circle cx="12.64" cy="-4.624" r="3.348" clip-path="url(#c)" filter="url(#a)"/><circle cx="10.325" cy="-2.189" r="3.74" clip-path="url(#c)" filter="url(#a)"/><circle cx="12.79" cy="-4.209" r="3.062" clip-path="url(#c)" filter="url(#a)"/><circle cx="11.925" cy="-3.529" r="4.516" clip-path="url(#c)" filter="url(#a)"/><circle cx="13.71" cy="-6.004" r="4.122" clip-path="url(#c)" filter="url(#a)"/><circle cx="10.295" cy="-3.019" r="4.524" clip-path="url(#c)" filter="url(#a)"/><circle cx="12.46" cy="-6.334" r="3.554" clip-path="url(#c)" filter="url(#a)"/><circle cx="9.32" cy="-3.244" r="3.366" clip-path="url(#c)" filter="url(#a)"/></g><g fill="none" stroke="#328613" stroke-linejoin="round" stroke-width="2"><path d="m21.74-78.13.66.17.92.39.56.38.04.33-.61.23-1.33.15-2.04.09-2.71.05-3.36.04-4.08.02-4.9-.01-5.86-.05-7.02-.09-8.37-.1m6.35-3.89.9.04 1.45-.13 1.33-.15 1.03-.09.74-.04.44.01.1.08-.31.13-.81.2-1.4.26-2.05.34-2.72.43-3.37.52-4.15.65" filter="url(#a)"/><path d="M60.89-54.16h-.01l.18.27.09.38-.13.35-.41.27-.73.08-1.14-.17-1.61-.51-2.14-.87-2.66-1.19L49.17-57l-3.64-1.69-4.15-1.95-4.79-2.29-5.54-2.73-6.32-3.2-6.88-3.63-7.01-4m21.74 2.28 1.65.64 1.17.61.57.43.11.29-.3.17-.79.02-1.35-.14-1.96-.34-2.6-.52-3.28-.72-4.06-.93-4.94-1.16-5.89-1.42-6.9-1.7" filter="url(#a)"/><path d="m50.18-64.39 1.45 1.4.74.8.11.34-.47.01-.97-.25-1.41-.41-1.85-.55-2.4-.74-3.06-1.07-3.83-1.51-4.63-1.99-5.43-2.47-6.34-2.87-7.56-3.27" filter="url(#a)"/><path d="m67.05-46.75.34.39.14.3.26.57.37.78.33.8.19.65-.02.44-.25.21h-.49l-.72-.21-.98-.46-1.26-.73-1.57-1.02-1.88-1.34-2.2-1.64-2.52-1.96-2.83-2.28-3.13-2.57-3.39-2.85-3.7-3.14-4.07-3.46-4.57-3.87-5.07-4.37m-36-8.25 1.58-.07 1.52.06 1.84.15 2.14.2 2.32.24 2.35.26 2.3.29 2.22.3 2.22.31 2.26.34 2.27.33 2.07.29 1.65.21 1.09.08.52-.07M-45.04-67.5l.87-.7.77-.47 1.14-.62 1.39-.77 1.41-.78 1.26-.69 1.01-.54.72-.36.43-.19.13-.02-.2.17-.52.35-.84.53-1.22.74-1.72 1.04-2.36 1.4-2.95 1.72" filter="url(#a)"/><path d="m-33.07-74.27 1.72-.47 2.08-.36 2.18-.2 2.33-.08 2.54.03 2.83.09 3.14.12 3.47.15 3.73.15 3.94.17 4.09.2 4.18.24 4.27.29 4.33.34 4.35.37 4.34.4 4.24.43 4.09.45 3.9.47 3.63.41" filter="url(#a)"/><path d="m-41.26-69.71 1.99-1.19 1.78-.91 1.7-.76 1.73-.69 1.83-.71 1.88-.73 1.83-.7 1.69-.64 1.51-.56 1.28-.47.97-.34.57-.22.11-.09-.52.08m78.14 17.61-.12.11.34.47.54.79.43.84.07.65-.35.38-.76.15-1.14-.02-1.48-.13-1.81-.2-2.16-.29-2.52-.41-2.94-.57-3.4-.79-3.9-1.01-4.44-1.21-4.98-1.38-5.5-1.51-5.99-1.65-6.52-1.83-7.08-2.08-7.75-2.35-8.53-2.58m24.87-5.52 2.07.27 1.76.34 1.97.56 2.2.74 2.27.87 2.26.93 2.23.98 2.25 1.01 2.3 1.08 2.37 1.12 2.4 1.18 2.4 1.2 2.31 1.18 2.17 1.11 1.99 1.01 1.81.88 1.68.78 1.59.73 1.57.77 1.53.79 1.31.69" filter="url(#a)"/><path d="m3.36-81.06 2.02.28 1.95.21 1.56.17 1.22.15 1.06.14 1.02.13 1.01.14.97.16.84.17.64.17.38.15.11.11-.18.09-.45.07-.74.04-1.05.03-1.42-.02-1.81-.06-2.25-.12-2.71-.17-3.2-.19-3.76-.22-4.3-.28m-22.12 3.93 1.37-.28 1.56-.15 1.98-.07 2.54-.02 3.08.05 3.46.12 3.74.21 3.93.27 4.1.32 4.27.37 4.4.42 4.49.48 4.5.55 4.45.6 4.4.61 4.37.61 4.34.62 4.31.7" filter="url(#a)"/><path d="m-11.48-80.26 1.01-.03.7-.04.86-.07 1-.08.95-.07.77-.02.55.03.33.09.09.16-.15.21-.46.26-.8.31-1.18.38-1.54.45-1.91.54-2.28.64-2.72.73-3.24.82-3.8.91-4.28.95-4.66.97m73.78 3.38.69.3.39.33.18.38-.16.31-.54.21-.97.1h-1.42l-1.91-.09-2.42-.19-2.97-.3-3.61-.48-4.38-.72-5.26-.97L13-72.07l-7-1.38-7.69-1.53-8.28-1.72" filter="url(#a)"/><path d="m-31.91-74.43-.27-.05.67-.23.83-.21.6-.07.27.09-.09.28-.41.45-.73.65-1.02.84-1.33 1.05-1.7 1.29-2.12 1.54-2.62 1.83-3.19 2.15-3.87 2.55-4.61 3.02-5.37 3.47m67.51-24.35.48.08 1.35.18 1.64.27 1.81.36 1.89.43 1.84.46 1.68.44 1.51.4 1.33.36 1.19.33 1.05.3.89.27.71.21.45.14.13.03-.24-.09-.69-.24-1.16-.41-1.77-.63m34.14 20.77.66.99.06.38-.47.01-.92-.2-1.4-.33-1.92-.49-2.5-.7-3.09-.97-3.74-1.34-4.47-1.76-5.34-2.25-6.3-2.74-7.23-3.16-8.08-3.52-8.8-3.9" filter="url(#a)"/><path d="m-27.85-75.98 1.12-.33.83-.28.76-.26.84-.25.87-.22.79-.15.63-.06.44.04.22.17v.29l-.26.42-.57.58-.9.74-1.27.89-1.64 1.05-2 1.21-2.39 1.38-2.82 1.59-3.29 1.8-3.76 2.01-4.18 2.19-4.53 2.31-4.79 2.36" filter="url(#a)"/><path d="m-17.25-79.09 1.54-.35 1.52-.28 1.33-.17.98-.07.68.01.47.09.29.15.07.23-.2.33-.5.44-.83.55-1.15.68-1.52.79-1.92.94-2.37 1.07-2.84 1.23-3.27 1.39-3.7 1.55-4.1 1.71-4.5 1.82-4.94 1.87-5.46 1.93m-1.07-1.78 1.93-1.42 1.44-.98 1.18-.75 1.14-.68 1.26-.71 1.36-.75 1.37-.75 1.26-.69 1.09-.58.9-.46.69-.34.5-.23.27-.09.01.06-.28.22-.59.39-.9.56-1.22.7-1.53.86-1.92 1.09-2.39 1.36-2.81 1.61" filter="url(#a)"/><path d="m-48.74-64.96 2.03-1.42 1.76-.98 1.69-.74 1.86-.7 2.18-.74 2.48-.83 2.69-.87 2.79-.86 2.83-.81 2.83-.76 2.82-.72 2.78-.7 2.75-.68 2.7-.65 2.63-.62 2.57-.58 2.46-.53 2.3-.51 2.04-.49 1.69-.48 1.33-.48 1.2-.45" filter="url(#a)"/><path d="m-1.59-80.84 1.98-.05 1.71.09 1.52.19 1.53.25 1.72.31 1.99.37 2.17.42 2.21.43 2.14.44 2.03.42 1.94.39 1.85.38 1.75.35 1.6.31 1.36.26 1.06.2.73.13.44.05.28.01.28.01m39.11 29.86-.43-.07-.39.48-.61.8-1.09.78-1.73.57-2.44.3-3.18.07-3.89-.12-4.6-.29-5.33-.5-6.09-.73-6.88-.96-7.7-1.18-8.52-1.4-9.34-1.62-10.18-1.83-11.03-2.04-11.79-2.28-12.31-2.72m94.58-1.21.72.5 1.28 1.21 1.39 1.41 1.22 1.28 1 1.05.83.88.73.77.64.73.56.67.47.58.35.46.2.26.01.04-.21-.24-.47-.51-.75-.8-1.1-1.16-1.57-1.71-2.23-2.42" filter="url(#a)"/><path d="m73.4-36.47.52 1.42.1.64-.12.49-.34.34-.59.13-.88-.13-1.19-.39-1.52-.61-1.84-.8-2.17-1-2.52-1.22-2.91-1.51-3.32-1.86-3.77-2.24-4.25-2.62-4.69-3.01-5.11-3.37-5.51-3.76-5.95-4.17-6.49-4.58-7.14-5.01-7.73-5.43m11.87-3.96.83.22 1.01.27.93.24.83.21.77.23.68.24.54.24.28.19-.05.12-.45.03-.89-.06-1.31-.14-1.69-.22-2.04-.29-2.39-.38-2.82-.46-3.52-.6-4.5-.74M61.38-54l.79 1.02.62.87.52.84.42.76.26.58.01.31-.3.02-.59-.22-.88-.39-1.14-.55-1.42-.73-1.74-.98-2.11-1.29-2.48-1.63-2.85-1.97-3.25-2.32-3.71-2.7-4.27-3.16-4.93-3.67-5.65-4.18" filter="url(#a)"/><path d="m55.15-60.01 1.49 1.44 1.43 1.46 1.07 1.13.73.76.49.51.31.37.18.29.05.23-.09.14-.27.01-.48-.2-.75-.47-1.08-.77-1.41-1.09-1.76-1.36-2.11-1.61-2.5-1.89-2.92-2.24-3.32-2.67-3.59-3.05M73.4-36.47l.51 1.38.07.51-.18.26-.44.02-.75-.32-1.11-.75-1.5-1.18-1.91-1.6-2.35-2.02-2.82-2.43-3.32-2.89-3.88-3.45-4.44-4.08-5-4.77-5.47-5.46-5.78-6.02M12.85-79.8l.62-.03.79.31.62.5.11.61-.51.68-1.16.76-1.74.86-2.28 1-2.82 1.16-3.4 1.32L-1-71.15l-4.83 1.63-5.61 1.76-6.35 1.88-7.05 1.99-7.7 2.1-8.42 2.25-9.41 2.57" filter="url(#a)"/><path d="m13.5-80.04 1.26.29 1.7.37 1.39.33.99.26.62.18.3.13-.01.09-.33.07-.7.02-1.11-.04-1.59-.15-2.19-.26-2.91-.39-3.7-.49-4.37-.61m52.3 20.23 1.51 1.46 1.48 1.51 1.14 1.2.85.88.65.67.55.57.47.55.4.52.32.48.21.38.08.24-.12.01-.36-.23-.65-.51-.93-.76-1.18-.97-1.43-1.18-1.68-1.43-1.97-1.73-2.3-2.09-2.64-2.46-3.06-2.91" filter="url(#a)"/><path d="m-10.01-80.42 1.02.05 1.75-.07 1.84-.06 1.81.01 1.83.07 1.87.12 1.93.14 1.95.17 1.9.17 1.83.18 1.75.19 1.71.2 1.69.2 1.64.2 1.53.18 1.33.16 1.08.1.79.04.54-.01.33-.03.15-.03-.09-.05-.54-.15m32.51 16.16.96.8.48.54.1.38-.14.32-.29.38-.43.43-.67.41-1.03.29-1.46.1-1.93-.09-2.4-.26-2.85-.37-3.28-.46-3.72-.55-4.18-.65-4.68-.79-5.2-.97-5.73-1.2-6.25-1.42-6.73-1.61-7.19-1.78-7.68-1.93-8.23-2.15m-12.68-1.21 1.49-.5 1.4-.45 1.03-.31.69-.18.39-.05.15.04-.05.15-.24.26-.49.41-.81.59-1.22.81-1.7 1.05-2.22 1.31-2.75 1.57-3.23 1.81-3.68 1.97-4.27 2.2m85.97-8.47.73.47.91.58.72.52.34.4-.07.31-.48.22-.89.14-1.29.06-1.73-.04-2.18-.14-2.65-.22-3.16-.3-3.74-.4-4.4-.52-5.13-.71-5.88-.91-6.59-1.12L-5.39-75l-7.92-1.4" filter="url(#a)"/><path d="m10.03-80.37.37.17.5.13.63.16.63.2.52.29.29.34-.05.39-.48.42-.93.45-1.37.48-1.78.53-2.2.59-2.64.66-3.15.73-3.75.81-4.4.87-5.06.96-5.63.99-6.09 1.01-6.53 1-7.17 1.1" filter="url(#a)"/><path d="m-17.25-79.09 1.74-.31 2.11-.17 2.32-.04 2.35.1 2.41.2 2.58.26 2.79.3 2.94.35 3.05.38 3.09.42 3.1.45 3.09.47 3.03.48 2.9.45 2.72.43 2.52.38 2.32.35 2.1.26 1.66.1M3.36-81.06l2 .28 1.97.21 1.57.17 1.19.15.96.12.83.11.71.09.54.1.26.09-.11.06-.55.01-1.01-.05-1.51-.11-2.12-.18-2.79-.24-3.45-.32m-54.17 18.38 37.81-7.56 13.69.86 3.79 3.54 6.31 4.31 7.3 3.32 2.8 1.3-3.48-.7-7.11-2.1-6.64-2.75-3.47-2.84-.16-2.55 1.33-2.11.63-1.72-1.1-1.45-2.1-1.18-1.79-.83-2.15-.4-6.55.29-15.16 2.72-24.22 10.13" filter="url(#a)"/><path d="M75.46-31.61 3.32-53l-5.78-7.81 14.22-2.21 11 .09.92.2-7.28-.94-10.24-2.09-8.12-2.31-2.78-1.41 3.47.12 8.45 1.5 10.33 2.07 8.3 1.63 2.92.51-3.75-.61-8.89-1.11-10.13-1.07L-1-67.61l-2.59-1.92-3.97-2.08-16.84 2.56-38.45 17.24" filter="url(#a)"/><path d="m10.11-80.17-32.02 11.04 2.51 2.6 3 .69-1.52-.62-1.25-1.2 1.66-.66 4.29.58 6.3 1.54L1-64.98l7.93-.7 5.13-3.27 1.25-4.46-.59-2.85-4.19-.27-28.76-2.45" filter="url(#a)"/><path d="m13.5-80.04 15.12 23.69-4.37 1.68.59-1.18 1.28-.71.49-.44.73-.58 1.6-.68 1.84-.6.36-.6-3.13-1.01-7.75-1.75-11.61-2.32-12.79-2.24-10.62-1.48-6.26-.47-2.41.37-1.75.98-3.53.98 2.66-2.07 36.16-11.7" filter="url(#a)"/><path d="m-59.33-55.57 31.75-11.46 14.51-2 4.13.72 4.51 1.98L4.12-63l10.62 4.5 9.1 4.75 5.73 3.7 2.59 1.69-.22-.65-3.98-2.64-8.97-3.91-13.1-4.28-12.85-3.68-5.51-2.4 9.52-1.02 28.17.91 29.93 6.02" filter="url(#a)"/><path d="m49.03-64.96-53.12 1.59 3.19.3 9.65 2.38 1.15 2.93-6.36 1.84-9.44-.21-8.63-2.23-5.11-3.39-.17-3.46 4.93-2.69 8.95-1.7 10.87-.88 10.23-.4 7.51-.12 3.97.24.9.66-1.51.79-4.17-.07-7.93-1.92-12.09-2.8-17.97 1.15-38.01 12.25" filter="url(#a)"/><path d="M54.86-59.97 13.23-71.88 3.44-74.4l-2.34.96.96 1.38 3.2 1.19 3.25 1.29 2.64 1.69 3.74 2.34 6.48 3.21 7.79 3.8 4.06 3.11-5.53.46L11-58.02l-21.12-4.7-16.02-2.37-32.67 8.94" filter="url(#a)"/><path d="m-54.13-60.7 9.84-3.45 23.89-4.32 25.05.16 16.2 3.02 3.13 2.78-6.79.84-8.7-.9-3.31-1.61 4.05-1.52 7.38-1.23 3.98-.9-4.73-.11L.97-66.56l-20.91 2.23-11.94-1.21 28.04-15.45" filter="url(#a)"/><path d="M32.58-74.21 2.65-73.15l-.41 5.33 11.67 2.67 10.97.09 5.83-1.27.57-1.92-2.04-1.65-.64-.06 3.78 2.49 8.06 4.7 8.65 5.13 3.85 2.85L48-57.14l-11.46-8.65 5-3.95" filter="url(#a)"/><path d="m56.48-58.78-59.19-5.38-8.51-2.35 2.32-1.37 1.22-.43 2.38.25 5.86.6 7.93.83 6.79 1.08 3.35 1.34-.43 1.54-2.78 1.63-2.82 1.63-.75 1.51 2.29 1.21 4.5.64 4.3-.14 1.08-.85-4.35-1.3-9.69-1.62-11.34-2.23-5.14-3.08 10.21-2.58 27.59 3.08 36.51 18.75" filter="url(#a)"/><path d="m-48.74-64.96 66.36 6.98L28.45-65l-4.78-6.48-8.85-2.9-10.66.22-10.77 2.03-8.21 2.59-3.75 2.37.53 1.77 2.9.93 3.07-.1 2.33-1.05 2.56-1.47 4.59-1.17 6.91-.65L10.25-70l-.81-3.12-9.55-4.62-17.14-1.35" filter="url(#a)"/><path d="m-52.48-62.18 26.46-11 7.61-3.44 1.4-.33-2.76 1.58-5.46 2.54-5.58 2.39-2.99 1.4 1.28.25 5.83-.41 9.77-.18 12.6.85 13.64 2.06 11.55 2.62 5.48 2.04-2.46.53-5.64-1.55 1.39-4.88-6.14-12.33" filter="url(#a)"/><path d="m37.98-71.64 4.18 7.52 4.77 6.27-5.61-.56-13.35-2.17-16.34-.73-14.1 1.22-8.04 2.53-1.09 2.92 4.17 2.38 6.77 1.13 7.24-.48L13-53.63l4.77-3.18 2.64-3.76.71-3.61-.04-2.48.6-.46 1.24 1.55.07 1.71.07-.91 29.08 2.29" filter="url(#a)"/><path d="M75.46-31.61 12.02-52.23 8.2-64.29l5.86-4.88 4.5-.95.1.34-4.5.56-6.6.84L2.48-67l-1.13 1.81 2.78 1.81 4.55 1.39 3.73.87 1.61.54.19.45.78.44 3.2.4 5.96.44 7.29.76 5.68 1.38-.4 1.95-16.05.89-65.71-13.63" filter="url(#a)"/><path d="m27.45-76.17 19.59 15.4-1.74.94-.87.65 3.43 2.44 2.94 2.7-2.78 1.41-10.94-.7-17.71-2.79-19.64-4.16-15.38-4.45-6.35-3.91 4.07-3.22 11.79-2.73 12.39-2.07 1.25-.86-26.32-1.2" filter="url(#a)"/><path d="m49.03-64.96-33.42 4.4 4.84 4.49 5.81 2.59-.53 1.97-6.35.89-7.59-.42-4.25-1.28 1.16-1.54 6.1-1.3 8.87-.88 8.39-.8 4.51-1.41-1.24-2.46-5.7-3.01-5.68-2.23-.93-.48 2.61-.26-6.12-4.97-25.48-9.1" filter="url(#a)"/><path d="M76.96-28.42 32.25-59.79l-20.23-6.64-1.75 2.16 7.09 3.21 6.63 1.71 1.59.35-4.09-.29-7.7-.52-7.42-.58-3.15-.48 2.81-.32 6.73-.3 6.39-.39h3.49L25.7-60l9 5.78 17.87 10.2L70.68-33.6l4.98 2.75m-87.14-49.41 26.91 5.72 7.96 5.33 1.27 2.85-.28-.14-1.64-2.34-2.85-2.93-2.67-2.28-.63-1.17 2.41-.04 4.54 1 3.66 1.9-1.85 2.33-12.08 1.37-20.55-2.25 3.44-10.08" filter="url(#a)"/><path d="m50.18-64.39-11.99 1.33L25.5-64l-3.69 2.76-.62 3.29-.19.94-.38-1.76-.37-3.11.54-2.89 2.43-1.69 4.62-.24 6.06.98 6.04 1.74 4.31 1.95 1.08 1.51-3.11.49-7.08-.77-9.19-1.66-7.98-1.65-3.72-.68.6.47 1.51.67 1.2-.16 12.03 1.14 34.95 13.26" filter="url(#a)"/><path d="M56.48-58.78 38.19-68.81l-2.98 2.02.01 6.22-2.52 4-3.28.04-1.38-2.42 1.13-2.56 2.11-1.16.39.25-3.53.57-7.52-.5-8.86-2.3-6.24-3.78-1.2-4.16 3.06-3.16 5.19-.85 8.4 3.28 18.17 11.25 35.27 28.1" filter="url(#a)"/><path d="m-55.97-59 36.39-11.09 25.75 3.62 13.79 6.88 2.48 4.88-2.1 2.74-1.21 1.72.75.88.99-.69-.46-2.78-2.02-4.36-2.52-4.62-2.33-3.56-2.81-2.05-4.72-1.05-7.12-.81-7.64-.64-4.57.31.85 1.95 4.07 2.71 4.1-.17 33.99-10.49" filter="url(#a)"/><path d="m-29.34-75.37 5.37-.17 11.76-1.69 5.04-.82-1.15.4-1.98 1.5 1.62 2.1 5.92 1.9 7.16.94 3.83-.21-2.03-.77-6.17-.19-5.16 1.29.09 2.27 2.61.73-8.05-3.24-25.54-1.53" filter="url(#a)"/><path d="m61.38-54-5.31 3.93-14.76-5.38-17.28-4.1-16.42-2.46-9.82-1.5-1.4-1.22 4.19-1.1 5.82-.72 5.42.09 5.1 1.21L22-62.89l4.01 3.11.79 2.86-3.78 1.1-6.97-1.86-6.45-4.6-3.19-5.26-3.06-2.96-15.69 2.29-48.9 14.57" filter="url(#a)"/><path d="m-31.72-74.8 46.05 6.73 14.31 2.48 2.93 1.35-6.42-.23-10.52-1.12-8.24-1.33-2.88-1.31 1.61-1.19 3.22-.81 1.89-.19-1.36.44-5.06.91-7.29 1.22-6.29 1.51-1.63 1.82 4.47 1.97 7.72 1.78 5.41 1.36 1.08.62.3-2.87-28.9-16.46" filter="url(#a)"/><path d="M75.46-31.61 62.25-49.57l-9.66-7.04-15.87-3.63-20.48-2.46-18.85-2.28-12.69-2.33-5.99-2.09-1.55-1.49.05-.7-.19-.07-.76.24-.45.19 1.3-.05 4.27-.23 7.65-.08 10.43.51 11.71 1.45 11.25 2.4 9.53 3.08 6.92 2.98 1.34.42-12.12-7.16-29.68-12.93" filter="url(#a)"/><path d="m-43.57-68.74 33.35-5.51 13.01 3.43-.96 4.25-8.22 1.86-9.54.24-8.51.19-7.15.92-5.04 1.58-.9 1.58 5.28.8 11.12-.71 13.25-2.7 10.32-4.72 5.26-5.76 2.75-4.58 9.37-.68m61.05 65.17 1.01 2.06 1.56 2.89 1.27 3.03.87 2.88.82 2.67 1.13 2.47 1.62 2.35 2.02 2.32 2.2 2.33L95.55 12l2.02 2.42 1.82 2.43 1.6 2.44 1.36 2.41 1.09 2.37.82 2.33.52 2.27.16 2.23-.3 2.19-.85 2.16-1.4 2.13-1.84 2.13-2.1 2.12-2.1 2.12-1.88 2.12-1.48 2.1-1 2.06-.55 1.96-.33 1.85-.36 1.75-.55 1.73-.7 1.81-1.12 1.82-1.72 1" filter="url(#a)"/><path d="M-1.59-80.84h2.83l2.61.09 2.69.17 2.75.23 2.86.31 3.07.4 3.3.48 3.51.56 3.67.62 3.8.69 3.91.73 4.02.79 4.16.86 4.3.92 4.42.99 4.51 1.06 4.61 1.11 4.73 1.18 4.94 1.23 5.32 1.32 5.81 1.4 6.3 1.49 6.6 1.57 6.54 1.63 6.13 1.68 5.66 1.71 5.43 1.72 5.46 1.65 4.98 1.5 3.36 1.41" filter="url(#a)"/><path d="m-3.84-80.99 2.21-.04L.79-81l2.34.09 2.37.16 2.53.24 2.76.3 2.98.35 3.09.42 3.08.47 2.96.55 2.83.62 2.76.7 2.8.77 2.96.85 3.18.93 3.43 1.02 3.65 1.09 3.8 1.16 3.88 1.23 3.87 1.29 3.8 1.34 3.72 1.39 3.74 1.44 3.94 1.49 4.29 1.56 4.7 1.6 5.04 1.66 5.13 1.7 4.92 1.72 4.52 1.74 4.22 1.84 4.51 2.09 5.26 2.44" filter="url(#a)"/><path d="m-5.97-80.76 1.95-.04 2.44-.02 2.54.03 2.52.09 2.56.16 2.66.22 2.81.31 2.92.38 2.96.47 2.9.54 2.78.61 2.67.67 2.58.72 2.55.78 2.58.85 2.61.91 2.65.98 2.65 1.04 2.66 1.1 2.72 1.16 2.8 1.21 2.92 1.29 2.99 1.38 3.02 1.49 2.98 1.58 2.88 1.62 2.83 1.62 3.15 1.83 4.11 2.74" filter="url(#a)"/><path d="m-5.97-80.76 2.11-.04 2.55-.02 2.67.03 2.67.1 2.76.16 2.95.23 3.14.31 3.21.39 3.19.48 3.17.55 3.24.62 3.43.68 3.71.73 3.95.8 4.1.86 4.08.92 3.92 1 3.69 1.06 3.53 1.12 3.57 1.18 3.88 1.25 4.43 1.33 5.09 1.41 5.64 1.49 5.88 1.57 5.76 1.63 5.43 1.67 5.13 1.71 5.16 1.71 5.55 1.73 6.02 1.76 6.09 1.9 5.8 2.15 5.89 2.27" filter="url(#a)"/><path d="m-9.9-80.19 3.15-.37 2.63-.17 2.55-.05 2.6.02 2.71.09 2.88.16 3.06.24 3.23.31 3.35.39 3.36.47 3.25.55 3.05.62 2.81.68 2.6.74 2.52.8 2.59.86 2.81.93 3.14 1 3.46 1.06 3.73 1.13 3.84 1.19 3.82 1.26 3.68 1.34 3.49 1.41 3.29 1.5 3.12 1.56 3.02 1.63 2.93 1.67 2.92 1.71 2.98 1.73 3.19 1.75 3.54 1.78 3.9 1.83 4.06 1.85 3.76 1.83 3.23 1.85 3.6 2.73" filter="url(#a)"/><path d="m-10.01-80.42 2.9-.21 2.63-.18 2.54-.11 2.65-.01 2.98.08 3.43.15 3.77.22 3.87.29 3.72.34 3.47.41 3.29.47 3.26.54 3.33.61 3.47.69 3.56.76 3.62.85 3.69.92 3.82 1 4.02 1.08 4.27 1.16 4.52 1.22 4.77 1.28 5.08 1.34 5.53 1.38 6.12 1.43 6.71 1.49 7.08 1.54 7.03 1.61 6.54 1.67 5.76 1.72 5.14 1.7 5.66 1.54 8.57 1.65" filter="url(#a)"/><path d="m-10.01-80.42 2.94-.21 2.64-.18 2.48-.11 2.41-.01 2.4.07 2.43.15 2.49.22 2.54.28 2.58.34 2.58.4 2.6.46 2.61.53 2.63.6 2.67.67 2.71.75 2.74.83 2.76.9 2.81.99 2.84 1.07 2.88 1.15 2.89 1.22 2.83 1.27 2.77 1.31L54-66.36l2.93 1.41 3.21 1.5 3.38 1.52 2.89 1.32.78.6" filter="url(#a)"/><path d="m-9.89-80.25 1.12-.11 2.2-.19 2.43-.14 2.47-.06 2.47.02 2.48.08 2.5.16 2.55.22 2.6.31 2.64.39 2.66.46 2.63.54 2.59.61 2.53.67 2.48.73 2.43.8 2.4.85 2.38.92 2.36.99 2.34 1.05 2.33 1.12 2.33 1.18 2.32 1.24 2.31 1.32 2.31 1.41 2.3 1.49 2.26 1.57 2.23 1.63 2.17 1.68 2.11 1.7 2.04 1.72 1.92 1.7 1.78 1.69 1.76 1.86 2.16 2.52" filter="url(#a)"/><path d="m-11.48-80.26 1.97-.17 2.47-.19 2.51-.17 2.45-.09 2.39-.02 2.39.07 2.43.14 2.53.22 2.63.28 2.75.34 2.9.4 3.07.47 3.28.53 3.48.6 3.65.68 3.75.76 3.79.83 3.79.91 3.74 1 3.69 1.07 3.58 1.16 3.45 1.22 3.27 1.27 3.15 1.33 3.17 1.37 3.4 1.42 3.8 1.48 4.25 1.53 4.64 1.57 5.02 1.7 5.76 2.02 6.76 2.37" filter="url(#a)"/><path d="m-14.44-79.81 2.99-.3 1.96-.23 2.2-.19 2.56-.13 2.74-.06 2.83.01 2.94.08 3.14.15 3.38.22 3.58.3 3.64.37 3.55.46 3.39.53 3.24.6 3.23.67 3.37.72 3.69.78 4.1.85 4.56.91 4.94.97 5.16 1.05 5.15 1.1 4.96 1.16 4.71 1.23 4.61 1.3 4.86 1.39 5.39 1.49 5.9 1.57 6.04 1.63 5.69 1.68 5.33 1.77 5.41 1.9 3.18 1.49" filter="url(#a)"/><path d="m-15.52-79.48 3.11-.55 2.59-.32 2.57-.24 2.61-.16 2.6-.1 2.63-.02 2.7.06 2.86.14 3.07.2 3.26.28 3.34.33 3.29.39 3.12.46 2.91.53 2.77.6 2.79.67 2.99.74 3.35.83 3.75.9 4.07.98 4.21 1.07 4.12 1.15 3.9 1.22 3.65 1.27 3.55 1.32 3.66 1.35 3.93 1.42 4.28 1.5 4.45 1.53 3.98 1.32 1.99.6" filter="url(#a)"/><path d="m-18.82-78.72 2-.45 2.51-.44 2.47-.36 2.36-.28 2.36-.21 2.43-.14 2.54-.07H.49l2.74.07 2.86.14 3 .21 3.18.28 3.4.37 3.62.44 3.82.52 3.92.59 3.93.66 3.85.71 3.73.77 3.65.83 3.63.9 3.68.97 3.72 1.03 3.66 1.09 3.5 1.15 3.29 1.19 3.27 1.26 3.61 1.37 4.34 1.53 5.14 1.67 5.31 1.68 4.48 1.27M-24.67-77.24l-.08.5-1.11.71-1.94.83-2.16.9-2.09.99-1.95 1.08-1.84 1.19-1.8 1.28-1.79 1.37-1.7 1.43-1.53 1.48-1.29 1.5-1.1 1.52-1.05 1.53-1.12 1.56-1.24 1.58-1.28 1.62-1.18 1.69-.9 1.76-.52 1.87-.13 1.96.2 2.07.38 2.14.44 2.22.37 2.25.23 2.28.03 2.29-.13 2.26-.16 2.19-.03 2.12.25 2.14.63 2.34 1.14 2.7 1.24 3.16m23.21-58.51-1.79.5-2.04.71-2.82.81-3.55.9-4.1.98-4.47 1.08-4.59 1.18-4.46 1.27-4.24 1.36-3.98 1.42-3.68 1.48-3.34 1.49-3.03 1.52-2.84 1.52-2.95 1.54-3.39 1.56-4.08 1.6-4.86 1.65-5.57 1.74-6.1 1.83-6.31 1.95-6.11 2.06-5.47 2.15-4.63 2.21-4.15 2.25-4.53 2.29-5.76 2.4-6.79 2.51-5.77 2.49-.63 2.25" filter="url(#a)"/><path d="m-25.83-76.58-1.32.34-1.79.55-2.18.77-2.44.96-2.6 1.11-2.69 1.23-2.76 1.31-2.88 1.34-3.02 1.35-3.14 1.36-3.19 1.36-3.08 1.4-2.9 1.44-2.69 1.48-2.53 1.5-2.39 1.54-2.3 1.58-2.26 1.66-2.34 1.8-2.55 1.89-3 1.96-4.14 2.59M80.62-15.47l5.76 1.98 5.1 2.37 3.65 2.77.73 2.9-1.14 2.83-1.4 2.66-.77 2.49-.1 2.39.3 2.34.47 2.36.55 2.39.73 2.41 1.01 2.44 1.4 2.43 1.76 2.41 1.92 2.38 1.81 2.32 1.34 2.28.68 2.24v2.2l-.43 2.16-.52 2.15-.29 2.13.08 2.13.37 2.12.39 2.11.17 2.09-.17 2.03-.39 1.96-.35 1.87-.07 1.78.23 1.74.3 1.72-.07 1.66-1.05 1.53-2.59 1.43-4.82 1.61" filter="url(#a)"/><path d="m-27.85-75.98-2.15.75-2.45.9-2.26.97-2.18 1.06-2.21 1.18-2.26 1.28-2.3 1.37-2.3 1.43-2.26 1.48-2.17 1.49-2.05 1.51-1.94 1.51-1.85 1.52-1.81 1.53-1.8 1.58-1.79 1.62-1.76 1.69-1.73 1.79-1.7 1.93-1.7 2.07-1.73 2.2-1.73 2.21-1.61 2.09-1.44 2.03-1.6 2.59" filter="url(#a)"/><path d="m-27.85-75.98-2.45.75-2.78.9-2.35.96-2.12 1.06-2.16 1.18-2.26 1.27-2.32 1.37-2.3 1.43-2.23 1.47-2.17 1.5-2.1 1.5-2.05 1.51-1.99 1.51-1.94 1.53-1.86 1.56-1.79 1.61-1.76 1.68-1.79 1.77-1.87 1.91-1.98 2.09-2.02 2.24-1.87 2.25-1.48 1.95-1.07 1.34" filter="url(#a)"/><path d="m-31.72-74.8-2.04.81-2.75 1.2-2.69 1.34-3.03 1.4-3.7 1.4-4.33 1.39-4.49 1.39-4.04 1.41-3.14 1.45-2.23 1.49-1.65 1.53-1.62 1.59-2.14 1.64-3.03 1.71-4.05 1.78-5.05 1.85-5.89 1.92-6.5 1.98-6.89 2.05-7.01 2.11-6.82 2.15-6.28 2.21-5.34 2.25-4.12 2.3-2.87 2.34-1.88 2.38-1.49 2.43-1.8 2.45-2.69 2.45-3.77 2.39-4.6 2.28-4.91 2.17-4.7 2.12-4.17 2.18-3.88 2.3-4.73 2.22-7.3 1.39" filter="url(#a)"/><path d="m-33.07-74.27-3.89.97-3.71 1-3.2 1.19-3.39 1.31-3.86 1.4-4.16 1.45-4.18 1.5-4.13 1.51-4.11 1.51-4.12 1.51-4.01 1.52-3.82 1.54-3.71 1.58-3.92 1.64-4.54 1.71-5.39 1.82-6.11 1.94-6.31 2.07-5.86 2.16-4.89 2.2-3.81 2.21-3.19 2.25-3.86 2.41-6.37 2.61-9.09 2.56" filter="url(#a)"/><path d="m-31.91-74.43-4.51 1.54-3.79 1.4-3.09 1.41-2.48 1.4-2.56 1.37-3.27 1.36-4.19 1.37-4.78 1.42-4.76 1.46-4.2 1.51-3.45 1.54-2.96 1.59-3.03 1.66-3.7 1.73-4.67 1.8-5.42 1.89-5.6 1.95-5.09 2-4.28 2.05-3.81 2.1-4.32 2.17-5.87 2.27-7.57 2.33-7.18 2.29-3.71 1.98" filter="url(#a)"/><path d="m-35.28-73.02-1.72.67-2.43 1.22-2.36 1.35-2.24 1.41-2.22 1.47-2.26 1.5-2.29 1.52-2.31 1.51-2.26 1.51-2.2 1.52-2.08 1.54-1.95 1.59-1.82 1.64-1.72 1.73-1.65 1.83-1.65 1.95-1.69 2.06-1.79 2.16-1.87 2.2-1.94 2.23-1.97 2.28-2.02 2.39-2.06 2.5-2 2.47-1.72 2.23" filter="url(#a)"/><path d="m-36.39-72.48-2.45 1.05-2.46 1.42-2.36 1.42-2.25 1.38-2.16 1.36-2.09 1.39-2.06 1.43-2.09 1.48-2.16 1.52-2.24 1.57-2.24 1.63-2.18 1.68-2.07 1.76-1.98 1.84-1.93 1.91-1.93 1.97-1.93 2.03-1.92 2.09-1.91 2.14-1.92 2.19-1.98 2.24-2.1 2.27-2.2 2.3-2.23 2.35-2.18 2.42-2.07 2.54-1.96 2.65-1.95 2.6-2.03 2.32-1.95 2" filter="url(#a)"/><path d="m-36.39-72.48-2.14 1.06-2.56 1.43-2.37 1.43-2.23 1.38-2.22 1.37-2.28 1.4-2.29 1.44-2.26 1.49-2.19 1.54-2.13 1.59-2.06 1.65-2.03 1.7-1.98 1.79-1.92 1.85-1.86 1.93-1.75 1.99-1.63 2.05-1.49 2.11-1.35 2.16-1.28 2.21-1.25 2.25-1.3 2.3-1.37 2.34-1.43 2.39-1.46 2.42-1.45 2.44-1.43 2.43-1.38 2.37-1.34 2.29-1.27 2.19-1.17 2.14-1.01 2.17-.83 2.24-.66 2.21-.57 2.09-.85 2.31" filter="url(#a)"/><path d="m-36.39-72.48-1.98 1.05-2.58 1.41-2.6 1.42-2.7 1.38-3.08 1.35-3.6 1.38-3.99 1.43-4.07 1.47-3.93 1.52-3.68 1.57-3.49 1.61-3.39 1.68-3.36 1.75-3.36 1.83-3.36 1.9-3.37 1.96-3.38 2.02-3.34 2.08-3.22 2.13-3 2.19-2.75 2.23-2.64 2.27-2.84 2.27-3.36 2.29-3.9 2.36-3.94 2.59-3.7 2.97-5.41 2.99" filter="url(#a)"/><path d="m-36.39-72.48-3.08 1.04-5.63 1.4-5.54 1.41-4.52 1.36-3.45 1.35-2.52 1.36-1.86 1.41-1.59 1.45-1.7 1.51-2.06 1.54-2.49 1.58-2.86 1.64-3.07 1.72-3.21 1.81-3.35 1.88-3.58 1.94-3.95 1.99-4.35 2.03-4.53 2.09-4.12 2.16-3.36 2.27-3.28 2.45-3.53 2.34M80.42-16.54l.3 1.93.66 2.17.71 2.42.52 2.62.31 2.69.2 2.64.16 2.56.16 2.51.18 2.48.25 2.48.39 2.48.58 2.46.84 2.45 1.1 2.42 1.25 2.4 1.24 2.39.99 2.39.55 2.4.02 2.4-.46 2.37-.74 2.31-.81 2.26-.7 2.17-.58 2.1-.55 2.02-.71 1.96-1.06 1.94-1.47 1.94-1.78 1.98-1.89 2.01-1.74 2.02-1.42 1.9-1.09 1.68-.93 1.42-.95 1.21" filter="url(#a)"/><path d="m-37.63-71.89-4.34 1.85-3.73 1.5-4.35 1.35-4.92 1.33-5.28 1.35-5.56 1.41-5.61 1.46-5.37 1.51-4.86 1.55-4.23 1.58-3.57 1.65-3.01 1.73-2.78 1.81-3.12 1.88-4.13 1.95-5.6 1.99-7.04 2.05-8.05 2.1-8.56 2.16-8.77 2.26-8.68 2.33-7.1 2.28-.44 1.97m119.1-41.05-3.24 1.87-2.78 1.51-2.69 1.37-2.83 1.35-2.9 1.38-2.76 1.43-2.54 1.49-2.47 1.53-2.67 1.59-3.06 1.63-3.48 1.7-3.76 1.77-3.84 1.85-3.72 1.92-3.53 1.98-3.31 2.04-3.11 2.1-2.89 2.15-2.59 2.2-2.26 2.25-1.96 2.28-1.82 2.33-1.94 2.37-2.31 2.43-2.9 2.48-3.55 2.49-4.19 2.41-4.69 2.26-4.94 2.05-4.9 1.96-4.47 2.11-3.2 2.6" filter="url(#a)"/><path d="m-41.26-69.71-6.33 1.36-2.43 1.26-2.01 1.3-1.69 1.34-1.38 1.41-1.27 1.47-1.46 1.52-1.82 1.56-2.23 1.6-2.57 1.66-2.76 1.73-2.77 1.83-2.62 1.89-2.44 1.96-2.31 2-2.26 2.07-2.27 2.11-2.29 2.18-2.32 2.24-2.38 2.26-2.53 2.25-2.74 2.15-2.85 1.99-2.32 1.63" filter="url(#a)"/><path d="m-42.88-69.05-.97.83-1.55 1.41-1.5 1.57-1.34 1.56-1.05 1.52-.67 1.5-.44 1.52-.4 1.55-.47 1.6-.46 1.67-.29 1.75-.03 1.86.18 1.98.27 2.08.24 2.16.12 2.21-.04 2.25-.25 2.27-.48 2.28-.6 2.24-.48 2.16-.02 2.09.74 2.11 1.6 2.33 2.11 2.68.78 3.14m-.86-46.23-1.23.69-1.84 1.36-2.23 1.52-2.68 1.58-3.1 1.58-3.42 1.63-3.56 1.69-3.51 1.79-3.33 1.87-3.09 1.94-2.92 2-2.89 2.05-3.04 2.11-3.36 2.16-3.79 2.21-4.14 2.26-4.26 2.29-4.01 2.34-3.43 2.37-2.63 2.42-1.83 2.44-1.26 2.43-1.08 2.37-1.4 2.26-2.24 2.17-3.44 2.13-4.59 2.16-5.27 2.23-5.28 2.21-4.75 2.07-3 2.3" filter="url(#a)"/><path d="m-48.75-65.08-2.29 1.75-1.97 1.43-2.15 1.44-2.39 1.51-2.45 1.56-2.36 1.62-2.17 1.69-1.98 1.78-1.88 1.91-1.89 2.01-2 2.12-2.14 2.19-2.21 2.23-2.21 2.25-2.12 2.27-1.99 2.25-1.85 2.25-1.79 2.23-1.83 2.23-2.01 2.28-2.33 2.33-2.69 2.39-2.92 2.43-2.87 2.41-2.43 2.36-1.68 2.31-.96 2.28-.64 2.32-.94 2.61-.61 3.47m59.75-63.91-1.56 1.76.48 1.43 1.17 1.45.93 1.51.38 1.56-.37 1.63-1.26 1.7-2.05 1.8-2.44 1.92-2.29 2.02-1.67 2.13-.86 2.19-.16 2.23.26 2.26.39 2.27.35 2.26.27 2.25.26 2.25.33 2.26.4 2.3.41 2.34.34 2.38.26 2.4.31 2.4.54 2.37.93 2.34 1.4 2.33 1.8 2.32 2.1 2.34 2.3 2.37 2.36 2.44 2.11 2.73 1.39 3.37" filter="url(#a)"/><path d="m-51.49-62.85-2.45 1.05-1.71 1.34-2.21 1.5-3.1 1.55-4.24 1.61-5.49 1.67-6.66 1.76-7.55 1.88-8.02 2-7.93 2.12-7.16 2.18-5.76 2.22-4 2.25-2.41 2.26-1.55 2.26-1.87 2.22-3.28 2.19-5.25 2.17-6.88 2.22-7.27 2.32-6.28 2.44-4.86 2.5-4.66 2.41-6.08 2.2-6.67 1.76m122.24-49.14-1.68 1.41-1.65 1.6-1.28 1.6-.98 1.64-.87 1.7-.93 1.81-1.07 1.93-1.15 2.05-1.09 2.15-.86 2.22-.48 2.25-.05 2.27.31 2.28.5 2.26.48 2.27.31 2.26.05 2.28-.16 2.31-.26 2.34-.2 2.38.01 2.39.31 2.39.67 2.38 1.04 2.36 1.38 2.36 1.71 2.36 2.01 2.39 2.28 2.43 2.42 2.49 2.33 2.56 1.93 2.62 1.31 2.67.67 2.68.32 2.58.63 2.29 2.62 1.94" filter="url(#a)"/><path d="m-56.37-58.76-10.89 1.61-6.6 1.54-1.63 1.66-.43 1.78-.94 1.93-1.81 2.08-2.59 2.17-3.18 2.24-3.55 2.26-3.69 2.28-3.61 2.27-3.36 2.27-3.01 2.25-2.59 2.25-2.14 2.27-1.74 2.3-1.44 2.34-1.41 2.37-1.66 2.4-2.16 2.39-2.74 2.37-3.17 2.35-3.35 2.34-3.29 2.35-3.17 2.38-3.13 2.42-3.24 2.48-3.42 2.55-3.54 2.63-3.29 2.7-2.44 2.74-1.55 2.68-3.75 2.12m97.54-73.76.64 1.26-.01 1.6-.47 1.86-.4 1.97-.42 2.01-.59 2.03-.72 2.08-.7 2.12-.53 2.19-.33 2.23-.26 2.27-.38 2.31-.65 2.35-.93 2.39-1.09 2.41-1.06 2.42-.81 2.39-.46 2.34-.06 2.27.32 2.22.65 2.19.97 2.2 1.33 2.24 1.75 2.29 2.2 2.35 2.63 2.4 2.97 2.43 3.16 2.41 3.05 2.33 2.5 2.32 1.53 2.67 1.41 3.72" filter="url(#a)"/><path d="m-58.69-56.78-.9 1.15-2.14 1.62-3.68 1.75-5.3 1.88-6.07 2.04-5.76 2.17-4.84 2.23-3.97 2.23-3.52 2.25-3.54 2.25-3.81 2.24-4.06 2.22-4.2 2.17-4.39 2.17-4.93 2.21-5.85 2.31-6.62 2.42-6.43 2.46-5.07 2.41-3.19 2.34-1.08 2.41 2.91 3.03" filter="url(#a)"/><path d="M-58.81-56.15-61.18-54l-2.45 1.85-3.08 1.93-3.9 2.11-4.15 2.23-3.82 2.28-3.3 2.29-2.9 2.29-2.53 2.28-2.08 2.27-1.5 2.26-.91 2.26-.52 2.27-.45 2.31-.71 2.35-1.15 2.38-1.61 2.4-1.99 2.39-2.25 2.38-2.46 2.36-2.7 2.37-3.02 2.38-3.33 2.41-3.47 2.45-3.32 2.5-2.86 2.54-2.27 2.59-1.9 2.58-1.97 2.56-2.48 2.48-3.07 2.37-3.31 2.25-3.05 2.16-2.4 2.09-1.41 2.13-1.29 2.9" filter="url(#a)"/><path d="m-58.81-56.15-2.52 2.13-2.3 1.82-2.4 1.89-2.79 2.08-3.18 2.21-3.39 2.25-3.35 2.26-3.05 2.26-2.57 2.26-2.09 2.25-1.72 2.22-1.5 2.21-1.38 2.21-1.35 2.26-1.42 2.32-1.58 2.39-1.77 2.41-1.91 2.39-1.98 2.34-2.01 2.3-2.21 2.28-2.62 2.3-3.03 2.35-3.17 2.24-4.18 1.13" filter="url(#a)"/><path d="m-61.24-53.64-7.03 1.6-1.31 1.79-1.69 2.11-2.44 2.28-2.63 2.3-2.39 2.29-1.95 2.28-1.46 2.28-1.1 2.27-.95 2.26-1.01 2.25-1.28 2.26-1.59 2.31-1.86 2.35-2.05 2.38-2.11 2.39-2.09 2.39-1.99 2.38-1.8 2.36-1.54 2.35-1.2 2.37-.86 2.4-.6 2.45-.53 2.49-.71 2.55-1.12 2.59-1.61 2.6-1.93 2.57-1.81 2.49-1.23 2.36-.43 2.24.18 2.14.26 1.95-.91 1.02" filter="url(#a)"/><path d="m-61.24-53.64-2.93 1.59-4.79 1.77-5.62 2.1-6.23 2.26-6.13 2.29-4.87 2.27-2.98 2.27-1.41 2.27-.65 2.26-.68 2.23-1.22 2.23-2.04 2.23-2.99 2.28-4.05 2.34-5.02 2.38-5.69 2.39-5.86 2.39-5.47 2.36-4.68 2.33-3.81 2.31-3.2 2.33-2.94 2.34-2.82 2.39-2.46 2.46-1.79 2.53-1.87 2.59-4.5 2.6-9.61 2.93m106.31-64.72-2.36 1.6-2.19 1.79-2.05 2.12-2.19 2.28-2.36 2.3-2.3 2.29-1.99 2.29-1.54 2.28-1.11 2.27-.87 2.26-.82 2.25-.93 2.27-1.08 2.31-1.16 2.35-1.12 2.38-1.01 2.39-.85 2.39-.73 2.38-.68 2.37-.66 2.36-.67 2.37-.65 2.41-.59 2.45-.48 2.5-.33 2.54-.22 2.58-.15 2.59-.2 2.56-.38 2.47-.59 2.37-.69 2.25-.54 2.15-.14 2.1.18 2.12.15 2.9" filter="url(#a)"/><path d="m-62.23-53.06-2.06 2.31-3.75 1.89-5.06 1.96-4.36 2.05-2.64 2.12-1.26 2.18-.79 2.23-1.22 2.27-2.19 2.3-3.31 2.34-4.19 2.38-4.59 2.42-4.41 2.43-3.79 2.39-2.96 2.33-2.24 2.25-1.78 2.18-1.61 2.15-1.64 2.17-1.74 2.22-1.86 2.27-2.02 2.33-2.25 2.42-2.44 2.5-2.48 2.46-2.48 2.18-1.55 1.7" filter="url(#a)"/><path d="m-62.85-51.81-2.57 1.44-3.38 2.18-3.18 2.37-2.67 2.34-2.18 2.3-1.86 2.28-1.67 2.28-1.56 2.27-1.53 2.26-1.56 2.25-1.62 2.26-1.62 2.31-1.45 2.35-1.1 2.39-.63 2.39-.21 2.39.04 2.38.1 2.37-.02 2.36-.22 2.38-.4 2.41-.48 2.45-.49 2.5-.47 2.54-.45 2.57-.44 2.58-.43 2.54-.45 2.46-.45 2.37-.48 2.25-.48 2.16-.45 2.09-.36 2.04-.35 1.94-.74 1.29" filter="url(#a)"/><path d="m-62.85-51.81-1.64 1.42-2.26 2.15-2.09 2.36-1.81 2.32-1.8 2.28-2.06 2.26-2.42 2.26-2.68 2.26-2.74 2.24-2.61 2.21-2.38 2.23-2.15 2.27-2.01 2.34-1.94 2.38-1.9 2.39-1.83 2.39-1.67 2.35-1.43 2.33-1.16 2.31-.87 2.32-.66 2.34-.58 2.39-.71 2.45-1.06 2.53-1.55 2.59-1.86 2.59-.21 2.93" filter="url(#a)"/><path d="m-62.85-51.81-2.88 1.42-2.43 2.14-2.22 2.36-1.62 2.32-1.12 2.27-.97 2.26-1.1 2.26-1.34 2.26-1.6 2.23-1.83 2.21-1.97 2.22-2.04 2.26-2.04 2.33-2.01 2.39-2.02 2.4-2.08 2.38-2.12 2.35-2.1 2.32-1.94 2.3-1.73 2.31-1.55 2.33-1.38 2.37-1.14 2.44-.71 2.55-.27 2.58-.41 1.91" filter="url(#a)"/><path d="m-64.43-49.82-.88 1.05-1.39 1.88-1.42 2.05-1.41 2.12-1.41 2.18-1.38 2.22-1.33 2.27-1.26 2.29-1.16 2.32-1.07 2.37-.96 2.42-.87 2.43-.78 2.41-.67 2.33-.6 2.23-.52 2.14-.49 2.12-.44 2.15-.4 2.19-.35 2.23-.29 2.29-.24 2.42-.19 2.74-.08 3.08" filter="url(#a)"/><path d="m-63.97-50.99-2.07 2.63-1.98 2.58-1.7 2.4-1.52 2.28-1.64 2.26-2.04 2.29-2.63 2.27-3.18 2.26-3.54 2.24-3.64 2.26-3.47 2.31-3.13 2.35-2.67 2.39-2.09 2.4-1.44 2.4-.86 2.37-.45 2.37-.35 2.36-.55 2.38-.94 2.41-1.38 2.46-1.77 2.5-2.02 2.54-2.15 2.57-2.14 2.56-2 2.53-1.75 2.45-1.38 2.36-.95 2.26-.39 2.16.35 2.11 1.01 2.08.96 2.09-.2 2.27-.86 3.09m197.88-52.1 1.31 2.11 2.44 2.08 2.68 2.2 2.88 2.44 3.56 2.66L96.7-5.6l5.2 2.74 5.46 2.64 5.23 2.51 4.51 2.42 3.37 2.37 1.92 2.36.38 2.39-.96 2.41-1.8 2.43-1.97 2.43-1.51 2.41-.6 2.38.48 2.33 1.47 2.28 2.13 2.24 2.31 2.19 1.95 2.17 1.12 2.14.03 2.12-1 2.12-1.61 2.13-1.63 2.14-1.17 2.13-.54 2.1.01 1.98.5 1.82 1.19 1.63 1.63 1.47-.94 1.1" filter="url(#a)"/><path d="m79.35-19.85 5.58 2.1-.49 2.08-.72 2.2.4 2.43 1.55 2.66 2.32 2.75 2.6 2.74 2.47 2.64 2 2.51 1.36 2.41.71 2.36.2 2.36-.04 2.38v2.41l.22 2.43.53 2.43.82 2.41.99 2.38 1.04 2.33.96 2.28.82 2.23.7 2.19.67 2.16.75 2.13.9 2.11.93 2.11.65 2.12-.04 2.16-.97 2.18-1.63 2.17-1.38 2.05-.29 1.72-1.14 1.02" filter="url(#a)"/><path d="m79.35-19.85.86 2.08.91 2.05.99 2.15.85 2.39.56 2.62.33 2.75.25 2.74.28 2.63.28 2.49.22 2.37.07 2.3-.08 2.31-.19 2.34-.24 2.38-.22 2.42-.15 2.44-.11 2.44-.09 2.41-.12 2.32-.21 2.22-.34 2.14-.56 2.23-.86 2.48-1.23 3.1M-67.43-46.06l-1.15 1.51-1.36 2.03-1.28 2.19-1.27 2.26-1.34 2.3-1.43 2.33-1.45 2.35-1.42 2.39-1.32 2.44-1.21 2.43-1.08 2.4-.94 2.32-.82 2.25-.68 2.21-.56 2.18-.43 2.21-.35 2.24-.3 2.3-.29 2.35-.32 2.38-.33 2.41-.32 2.43-.25 2.45-.14 2.5-.01 2.59.08 2.67.13 2.71.18 2.65.34 2.74 1.07 3.99" filter="url(#a)"/><path d="m-67.66-45.65-26.99 2.62 2.43 2.08 2.91 2.13-1 2.27-2.78 2.29-2.55 2.24-1.92 2.19-1.83 2.19-2.29 2.26-2.88 2.34-3.27 2.39-3.37 2.4-3.33 2.38-3.35 2.35-3.59 2.31-4.13 2.31-4.92 2.31-5.77 2.35-6.44 2.39-6.68 2.45-6.34 2.53-5.64 2.61-5.18 2.68-5.15 2.87-3.13 3.19m107.19-60.13-.02 2.64.24 2.1 2.28 2.15 3.82 2.29 3.87 2.3 2.75 2.25 1.41 2.21.5 2.23.15 2.29.14 2.36.27 2.39.51 2.41.82 2.39 1.21 2.36 1.57 2.35 1.75 2.35 1.66 2.36 1.32 2.4.92 2.44.74 2.49 1 2.54L-39 6.23l2.82 2.58 3.89 2.55 4.59 2.47 4.66 2.35 3.94 2.23 2.52 2.15 1.03 2.08.83 2.12 4.02 2.89m-57.35-72.77-3.59 2.53-4.09 2.26-2.72 2.27-2.32 2.31-3.04 2.32-3.78 2.33-3.77 2.38-2.99 2.43-2.02 2.44-1.4 2.41-1.35 2.32-1.7 2.23-2.08 2.16-2.17 2.16-1.92 2.18-1.55 2.22-1.39 2.29-1.7 2.33-2.42 2.39-3.16 2.41-3.39 2.39-2.71 2.36-1.32 2.4-.15 2.58-.61 2.85-2.3 2.53m57.81-58.65-.9 1.53-1.46 1.95-1.7 2.29-1.52 2.34-1.22 2.24-1.03 2.16-.98 2.16-.97 2.24-.94 2.34-.86 2.4-.76 2.4-.66 2.38-.62 2.33-.65 2.3-.69 2.29-.72 2.3-.66 2.33-.53 2.37-.36 2.44-.28 2.52-.34 2.58-.47 2.57-.51 2.91" filter="url(#a)"/><path d="m-71.22-39.91-1.23 1.93-1.67 2.43-1.68 2.37-1.4 2.34-1.2 2.4-1.18 2.46-1.3 2.48-1.32 2.41-1.19 2.33-.89 2.25-.56 2.19-.29 2.2-.18 2.22-.19 2.27-.27 2.32-.34 2.36-.35 2.4-.26 2.43-.12 2.47.05 2.49.21 2.54.31 2.57.37 2.59.39 2.59.38 2.54.37 2.46.35 2.37.36 2.25.38 2.16.45 2.11.51 2.12.61 2.19.75 2.2.52 1.68" filter="url(#a)"/><path d="m-71.41-39.64-3.51 3.14-3.77 2.68-2.12 2.29-1.32 2.13-1.57 2.17-2.01 2.29-2.05 2.39-1.63 2.44-1 2.43-.5 2.41-.33 2.38-.5 2.36-.85 2.37-1.25 2.39-1.55 2.42-1.7 2.47-1.7 2.51-1.6 2.53-1.38 2.55-1.06 2.53-.66 2.48-.2 2.42.21 2.35.5 2.28.6 2.23.52 2.2.36 2.23.23 2.26.2 2.31.24 2.35.24 2.35.13 2.29-.11 2.18-.27 2.04-.16 1.93.19 1.82.41 1.8" filter="url(#a)"/><path d="m-71.41-39.64-25.98 3.13-7.05 2.69-2.62 2.29.38 2.12 2.28 2.17 2.46 2.28 1.5 2.4.45 2.43-.08 2.44-.11 2.4.04 2.38-.02 2.36-.41 2.36-1.07 2.39-1.82 2.42-2.5 2.46-3.08 2.51-3.53 2.54-3.88 2.54-3.99 2.54-3.78 2.48-3.17 2.42-2.31 2.35-1.47 2.27-1 2.22-1.03 2.2-1.39 2.21-1.74 2.26-1.76 2.32-1.36 2.36-.74 2.38-.22 2.3-.05 2.19-.54 2.05-2.04 1.9-3.45 1.74m74.51-83.61-1.72 3.21-1.53 2.47-2.02 2.29-2.45 2.37-2.39 2.48-1.91 2.49-1.33 2.44-.86 2.32-.56 2.23-.4 2.19-.38 2.18-.47 2.22-.65 2.27-.87 2.31-1.02 2.37-1.09 2.4-1.01 2.43-.87 2.46-.7 2.49-.53 2.53-.39 2.57-.28 2.6-.2 2.58-.21 2.55-.36 2.46-.65 2.35-.94 2.25-1.09 2.16-.9 2.11-.31 2.11.62 2.19 1.43 2.21.95 1.67m176.38-60.5.38 1.47.95 2.33 1.08 2.39.96 2.39.87 2.47.86 2.56.84 2.61.71 2.6.57 2.53.52 2.49.62 2.45.85 2.46 1.05 2.46 1.06 2.47.87 2.43.53 2.39.17 2.34-.11 2.31-.27 2.35-.3 2.42-.17 2.49.21 2.48.7 2.33.93 2.13.37 2.13" filter="url(#a)"/><path d="m-76.41-28.54-4.02.99-3.19 2.42-.91 2.66-.44 2.58-.69 2.47-.86 2.38-.9 2.33-.97 2.32-1.15 2.33-1.42 2.36-1.68 2.4-1.89 2.45-2.01 2.51-2.1 2.54-2.23 2.56-2.44 2.54-2.73 2.49-3.01 2.41-3.06 2.33-2.68 2.24-1.75 2.18-.43 2.16.81 2.17 1.41 2.23 1.01 2.33-.22 2.41-1.44 2.43-1.62 2.33-.75 2.19-.82 1.99" filter="url(#a)"/><path d="m-76.41-28.54-8.48 1-8.86 2.44-5.04 2.67-2.14 2.59.4 2.48 2.15 2.4 2.69 2.35 2.19 2.33 1.15 2.35-.05 2.38-1.27 2.42-2.44 2.48-3.42 2.51-4.03 2.55-4.08 2.55-3.57 2.52-2.61 2.48-1.51 2.41-.6 2.34-.09 2.27-.14 2.23-.62 2.22-1.26 2.23-1.71 2.26-1.65 2.3-1.09 2.31-.3 2.3.23 2.26.13 2.18-.49 2.12-1.11 2.07-1.05 2.1-.09 2.15 1.2 2.16 1.98 1.91 1.92 1.44" filter="url(#a)"/><path d="m-76.77-28.25-1.75 2.31-1.84 2.89-2.13 2.6-2.9 2.29-3.06 2.13-2.41 2.1-1.61 2.15-1.29 2.22-1.62 2.29-2.42 2.34-3.35 2.39-4.08 2.42-4.43 2.45-4.3 2.48-3.72 2.52-2.77 2.54-1.67 2.57-.61 2.57.2 2.54.6 2.5.55 2.43.13 2.35-.43 2.28-.88 2.24-1.01 2.21-.72 2.21-.11 2.23.55 2.24 1.02 2.23 1.2 2.2 1.21 2.12 1.31 2.02 1.62 1.95 1.91 1.9 1.84 1.9 1.2 1.81-.67 1.22" filter="url(#a)"/><path d="m-76.77-28.25-4.57 2.29-6.04 2.86-4.98 2.6-2.03 2.28.18 2.1.69 2.07.08 2.12-.78 2.19-1.42 2.26-1.83 2.32-2.25 2.36-2.69 2.4-3.03 2.43-2.98 2.44-2.44 2.48-1.56 2.52-.63 2.57-.01 2.6.16 2.59-.03 2.54-.34 2.45-.53 2.34-.49 2.23-.32 2.12-.13 2.06-.24 2.09-1.15 2.31-3.37 2.82" filter="url(#a)"/><path d="m-76.19-29.32-4.52 3.94-4.17 2.99-4.35 2.65-4.17 2.47-3.62 2.36-2.96 2.33-2.29 2.31-1.58 2.33-.83 2.36-.24 2.41-.04 2.47-.36 2.51-1.11 2.55-1.99 2.55-2.68 2.54-2.93 2.48-2.74 2.4-2.24 2.33-1.65 2.25-1.17 2.21-.89 2.19-.76 2.2-.69 2.25-.66 2.31-.7 2.35-.84 2.34-1 2.28-.95 2.17-.49 2.03.18 1.91.39 1.82-1.04 1.79m52.03-73.7-2.15 3.92-.73 2.76-.33 2.21-.26 2.01-.25 2.01-.28 2.09-.29 2.19-.32 2.25-.34 2.32-.35 2.35-.33 2.39-.3 2.42-.22 2.43-.11 2.45v2.51l.14 2.57.28 2.61.41 2.61.53 2.56.61 2.46.63 2.35.61 2.21.56 2.09.54 1.93.43 1.35M78.81-22.28l1.34 2.26 4.19 2.14 5.46 2.12 3.81 2.22 1.47 2.42.18 2.61.22 2.71 1.07 2.71 2.16 2.63 3.03 2.51 3.46 2.4 3.43 2.34 3.05 2.34 2.48 2.36 1.96 2.4 1.67 2.43 1.77 2.43 2.27 2.43 2.93 2.39 3.34 2.33 3.12 2.26 2.25 2.22 1.19 2.19.52 2.18.29 2.13-.26 2-1.73 1.87-1.3 1.58" filter="url(#a)"/><path d="m76.96-28.42.75 1.51.81 2.16.87 2.33.92 2.36 1 2.39 1.03 2.4.95 2.43.78 2.5.56 2.55.36 2.59.22 2.58.11 2.54.02 2.52-.02 2.49-.04 2.48-.04 2.47-.06 2.47-.1 2.44-.17 2.41-.22 2.38-.25 2.36-.26 2.37-.33 2.42-.46 2.45-.67 2.45-.84 2.38L81 36.3l-.82 2.26-.87 2.27-.83 2.08" filter="url(#a)"/><path d="m75.46-31.61 2.52 1.49 2.65 1.96 1.23 2.38.51 2.53.48 2.48.71 2.38.87 2.35.86 2.37.7 2.46.5 2.57.3 2.63.19 2.65.17 2.6.22 2.52.37 2.45.58 2.39.78 2.37.91 2.38.92 2.41.78 2.43.49 2.44.15 2.43-.13 2.4-.3 2.34-.31 2.28-.22 2.23-.17 2.21-.21 2.19-.39 2.14-.62 2.01-.72 1.88-.08 1.59M74.13-34.69l8.08 2.44 8.15 2 3.15 2.13-.42 2.35-1.17 2.46-.12 2.44 1.64 2.39 3.45 2.36 4.95 2.39 5.99 2.46 6.67 2.56 7.1 2.63 7.29 2.63 7.01 2.6 6.11 2.53 4.57 2.45 2.64 2.39.71 2.37-.87 2.38-1.92 2.41-2.47 2.43-2.59 2.44-2.34 2.44-1.7 2.41-.62 2.34.87 2.28 2.47 2.23 3.67 2.21 3.91 2.22 3.1 2.17 1.89 2.02 2.42 2.32" filter="url(#a)"/><path d="m73.4-36.47 5.5 2.01.21 2.08.46 2.04 2.09 2.16 3.31 2.33 3.56 2.41 3.1 2.41L94-18.65l1.84 2.35 1.73 2.37 1.95 2.44 2.28 2.55 2.43 2.62 2.26 2.65 1.81 2.61 1.27 2.53.84 2.42.59 2.36.53 2.33.49 2.36.4 2.39.22 2.43.16 2.46.39 2.51.89 2.53 1.45 2.4 2.03 1.95 2.2 1.61" filter="url(#a)"/><path d="m71.81-39.24 1.79 2.41 1.52 2.21.98 2.1.74 2.08.77 2.17.92 2.3 1.01 2.38.96 2.39.81 2.36.63 2.33.47 2.35.36 2.42.29 2.53.26 2.63.26 2.67.26 2.64.29 2.54.3 2.4.29 2.29.19 2.27.03 2.35-.17 2.45-.24 2.37-.11 1.97.1 1.26" filter="url(#a)"/><path d="m71.81-39.24 2.01 2.43 2.68 2.22 1.8 2.11.85 2.1.56 2.2.8 2.31 1.14 2.4 1.32 2.4 1.32 2.38 1.23 2.36 1.18 2.39 1.2 2.46 1.25 2.55 1.24 2.61 1.08 2.64.77 2.6.38 2.53.06 2.45-.09 2.37-.04 2.35.12 2.36.28 2.4.31 2.44.19 2.46-.03 2.49-.23 2.48-.25 2.37.02 2.16.56 2.05.82 2.55M69.85-42.11l8.76 2.09 6.35 2.22 1 2.23-.65 2.14-.05 2.05 1.09 2.01 1.95 2.05 2.36 2.11 2.47 2.19 2.61 2.25 2.96 2.3 3.52 2.34 4.03 2.37 4.16 2.43 3.79 2.51 3.17 2.59 2.95 2.64 3.58 2.57 4.89 2.4 6.05 2.25 6.54 2.43 7.44 3.24" filter="url(#a)"/><path d="m69.85-42.11 3.08 2.09 4.25 2.22 2.91 2.23 1.47 2.14 1.3 2.05 2.18 2.01 3.22 2.05 3.79 2.11 3.79 2.19 3.42 2.25 2.96 2.3 2.58 2.34 2.38 2.37 2.36 2.43 2.57 2.51 3.06 2.59 3.76 2.64 4.57 2.57 5.09 2.4 4.78 2.25 3.45 2.43 3.57 3.24" filter="url(#a)"/><path d="m68.74-44.26 11.45 2.87 4.18 2.29-.86 2.17-1.79 2.13-1.02 2.11-.04 2.12.72 2.2 1.38 2.28 2.13 2.36 3.02 2.37L91.9-19l4.89 2.34 5.41 2.36 5.36 2.42 4.64 2.53 3.41 2.62 2.08 2.68 1.06 2.66.6 2.56.67 2.39 1.07 2.27 1.58 2.25 2.15 2.38 2.66 2.57 2.86 2.59 2.73 2.08" filter="url(#a)"/><path d="m64.54-49.41 2.09 1.99 2.17 1.76 2.41 1.99 2.66 2.15 2.74 2.21 2.67 2.2 2.69 2.17 2.91 2.17 3.28 2.19 3.65 2.25 3.89 2.29 3.97 2.35 3.91 2.37 3.87 2.38 3.9 2.39 3.99 2.43 4.09 2.48 4.03 2.54 3.73 2.6 3.2 2.62 2.56 2.6 1.99 2.54 1.71 2.47 1.76 2.4 2.11 2.38 2.62 2.38 3.01 2.4 3.03 2.45 2.42 2.47 1.31 2.5.3 2.48.28 2.39 1.5 2.17 3.03 2.07 4.74 2.56" filter="url(#a)"/><path d="m63.49-51.34 2.58 2.6 2.39 1.99 3.91 1.97 5.02 2.13 4.87 2.24 4.07 2.28 3.42 2.24 3.19 2.19 3.14 2.14 2.96 2.11 2.53 2.13 1.97 2.17 1.53 2.22 1.45 2.27 1.87 2.33 2.76 2.38 3.93 2.43 4.95 2.48 5.48 2.52 5.19 2.57 4.15 2.57 2.68 2.56 1.32 2.52.54 2.49.65 2.49 1.64 2.5 3.2 2.52 4.75 2.53 5.41 2.5 4.21 2.37.83 2.08-3.85 1.79" filter="url(#a)"/><path d="m62.29-52.8 4.08 1.88 5.81 2.07 4.87 1.99 3.81 2.02 2.94 2.12 2.01 2.22 1.09 2.25.48 2.23.33 2.18.61 2.13 1.16 2.11 1.79 2.12 2.41 2.15 2.95 2.2 3.29 2.27 3.34 2.31 3.05 2.36 2.53 2.41 2.05 2.46 1.86 2.52 2.08 2.59 2.53 2.6 2.93 2.57 3 2.49 2.65 2.43 1.88 2.45.75 2.54-.2 2.53.7 2.28" filter="url(#a)"/><path d="m62.29-52.8 10.34 1.86 3.24 2.05.89 1.96.95 1.99 1.87 2.09 3.02 2.19 4.15 2.24 5.09 2.22 5.66 2.16 5.79 2.1 5.54 2.07 4.99 2.06 4.07 2.1 2.78 2.16 1.24 2.23-.05 2.29-.46 2.32.44 2.31 2.44 2.3 4.35 2.34 4.56 2.58 3.93 3.36" filter="url(#a)"/><path d="m60.89-54.16 1.28.86 1.92 1.66 2.15 1.9 2.31 1.93 2.39 1.96 2.35 2.02 2.24 2.09 2.33 2.14 2.79 2.15 3.57 2.15 4.38 2.16 4.84 2.17 4.72 2.21 4.07 2.27 3.17 2.33 2.46 2.35 2.18 2.35 2.4 2.34 2.96 2.34 3.55 2.39 3.93 2.51 3.91 2.66 3.51 2.77 2.93 2.82 2.63 2.7 3.39 2.4 5.24 1.85 3.57 1.27" filter="url(#a)"/><path d="m59.84-55.04 1.19.99 1.87 1.47 2.36 1.77 2.5 1.91 2.46 1.98 2.34 2.05 2.19 2.13 2 2.19 1.79 2.23 1.54 2.21 1.26 2.19 1.03 2.15.85 2.14.76 2.14.76 2.17.82 2.22.88 2.27.93 2.32.93 2.37.89 2.42.84 2.48.79 2.53.77 2.57.75 2.59.73 2.56.68 2.52.6 2.48.5 2.48.43 2.5.37 2.54.3 2.57.11 2.71.24 3.17" filter="url(#a)"/><path d="m58.87-56.47 1.72 1.69 1.59 1.51 1.97 1.72 2.28 1.85 2.46 1.93 2.51 1.98 2.44 2.04 2.22 2.11 1.93 2.14 1.69 2.17 1.57 2.17 1.56 2.19 1.64 2.21 1.74 2.25 1.86 2.29 1.99 2.33 2.1 2.36 2.18 2.38 2.21 2.4 2.15 2.43 2 2.48 1.77 2.54 1.45 2.6 1.09 2.62.75 2.61.54 2.55.48 2.48.6 2.4.79 2.36.93 2.38.95 2.41.86 2.44.7 2.47.43 2.56-.03 2.68-.21 2.57 1.56 1.52M56.48-58.78l3.08 2.66 3.07 1.81 3.79 1.7 5.06 1.8 5.88 1.9L83-46.93l4.56 2.05 3.17 2.13 1.94 2.19 1.11 2.21.78 2.21.86 2.19 1.23 2.16 1.63 2.15 1.94 2.15 2.14 2.18 2.34 2.22 2.66 2.28 3.13 2.32 3.59 2.38 3.9 2.42 3.91 2.48 3.62 2.53 3.22 2.57 2.87 2.58 2.63 2.56 2.38 2.53 1.99 2.5 1.41 2.49.87 2.51.75 2.54 1.21 2.56 2.16 2.57 3.52 2.48 6.19 1.82M55.15-60.01l.23 2.85.25 2.02 1.27 1.76 1.8 1.77 2.03 1.85 2.06 1.9 1.92 1.97 1.63 2.03 1.24 2.09.81 2.13.4 2.15.07 2.16-.16 2.17-.29 2.19-.35 2.23-.33 2.28-.27 2.32-.16 2.36-.01 2.35.13 2.37.23 2.38.24 2.43.13 2.53-.06 2.64-.36 2.71-.73 2.72L65.74.96l-1.55 2.4-1.82 2.18-1.69 2.09-1.07 2.36-.73 2.92" filter="url(#a)"/><path d="m54.86-59.97 1.69 1.78.61 1.96-.59 1.81-.69 1.78-.05 1.82.6 1.9.89 1.98.87 2.05.77 2.13.72 2.18.68 2.21.61 2.2.43 2.19.15 2.17-.15 2.15-.37 2.17-.44 2.18-.31 2.23-.06 2.28.21 2.33.35 2.38.33 2.43.1 2.49L61-8.65l-.5 2.57-.69 2.57-.79 2.57-.84 2.53-.95 2.51-1.12 2.5-1.35 2.52-1.62 2.53-1.94 2.54-2.3 2.5-2.57 2.39-2.48 2.09-1.55 1.8m11.13-84.43 2.59 1.19 1.91 1.46 2.81 1.72 3.39 1.78 3.13 1.78 2.39 1.8 1.81 1.85 1.79 1.89 2.26 1.96 2.9 2.01 3.36 2.08 3.49 2.11 3.33 2.14 3.08 2.15 2.93 2.16 2.98 2.18 3.25 2.21 3.67 2.28 4.13 2.32 4.53 2.36 4.7 2.35 4.48 2.33 3.7 2.32 2.52 2.35 1.49 2.48 1.37 2.68 2.53 2.86 4.27 2.97 5.07 3.04 4.34 3.03" filter="url(#a)"/><path d="m53.43-61.46 2.28 1.19 1.48 1.46 1.69 1.73 2.05 1.78 2.61 1.78 3.42 1.81 4.23 1.84 4.76 1.9 4.85 1.96 4.46 2.02 3.8 2.07 3.06 2.12 2.47 2.14 2.13 2.16 1.98 2.16 1.96 2.18 1.96 2.23 1.97 2.27 2.05 2.32 2.24 2.36 2.57 2.35 2.95 2.34 3.28 2.34 3.47 2.39 3.42 2.5 3.1 2.66 2.53 2.83 1.83 2.89 1.35 2.84 1.34 2.54 3.38 1.69" filter="url(#a)"/><path d="m52.14-62.48 1.78 1.36 1.79 1.44 1.85 1.64 1.82 1.75 1.79 1.77 1.79 1.8 1.77 1.84 1.77 1.9 1.79 1.97 1.84 2.05 1.88 2.11 1.87 2.17 1.79 2.19 1.63 2.2 1.43 2.19 1.23 2.16 1.05 2.16.94 2.16.86 2.19.82 2.23.79 2.27.77 2.32.8 2.38.84 2.42.93 2.48 1.03 2.53 1.09 2.58 1.07 2.58.97 2.58.79 2.53.55 2.49.29 2.48.05 2.52-.14 2.55-.21 2.58-.27 2.71-.39 3.18" filter="url(#a)"/><path d="m52.14-62.48 1.94 1.35 2.31 1.42 2.69 1.64 3.05 1.73 3.08 1.76 2.65 1.78 1.98 1.82 1.41 1.89 1.15 1.95 1.24 2.02 1.56 2.1 2.01 2.15 2.46 2.2 2.79 2.2 2.95 2.17 2.89 2.15 2.62 2.13 2.2 2.12 1.71 2.14 1.25 2.19.96 2.25.89 2.3 1.06 2.34 1.4 2.37 1.8 2.41 2.1 2.5 2.25 2.68 2.12 2.9 1.68 2.95 1.13 2.48" filter="url(#a)"/><path d="m47.41-66.1 3.79 2.74 2.78 1.88 2.25 1.66 2.27 1.68 2.87 1.72 3.81 1.75 4.68 1.77 5.17 1.81 5.18 1.87 4.89 1.93 4.48 2.01 4.07 2.08 3.65 2.15 3.24 2.19 2.85 2.2 2.6 2.18 2.46 2.13 2.31 2.1 2.01 2.08 1.64 2.11 1.54 2.17 2.19 2.24 3.69 2.32 5.37 2.36 6.05 2.35 5.31 2.28 3.45 2.3" filter="url(#a)"/><path d="m47.65-66.15 3.27 1.06 6.93 1.77 6.13 1.74 4.41 1.69 3.41 1.69 2.72 1.72 1.9 1.75 1.15 1.77.97 1.81 1.53 1.86 2.63 1.93 3.87 2 4.94 2.08 5.72 2.15 6.22 2.19 6.56 2.2 6.69 2.18 6.51 2.14 5.94 2.09 5.04 2.07 4.13 2.1 3.67 2.16 3.98 2.24 4.84 2.33 5.13 2.4 3.49 2.36-1.51 2.13" filter="url(#a)"/><path d="m47.65-66.15 5.31 1.08 4.7 1.77 2.23 1.76 2.07 1.7 2.73 1.71 3.14 1.74 3.06 1.76 2.59 1.79L75.36-51l1.17 1.89.68 1.96.6 2.03.91 2.1 1.56 2.15 2.32 2.19 3.06 2.19 3.64 2.18 4.04 2.16 4.24 2.14 4.28 2.15 4.12 2.16 3.77 2.21 3.26 2.26 2.63 2.31 2.06 2.35 1.68 2.4 1.66 2.45 1.93 2.53 2.33 2.64 2.6 2.7 2.57 2.64 2.37 2.4 2.29 2.04 1.93 1.99" filter="url(#a)"/><path d="m45.6-67.32 3.79 1.84 3.04 1.62 2.29 1.61 2.62 1.62 3.58 1.64 4.3 1.69 4.27 1.73 3.52 1.75 2.48 1.78 1.61 1.81 1.14 1.86 1.05 1.92 1.19 1.97 1.45 2.05 1.75 2.09 2.08 2.14 2.4 2.13 2.66 2.11 2.85 2.07 2.98 2.07 3.14 2.16 3.43 2.42 3.58 2.73 2.71 2.66" filter="url(#a)"/><path d="m45.6-67.32 8.54 1.85 4.7 1.64 3.56 1.62 3.09 1.63 2.99 1.66 3.26 1.7 3.75 1.74 4.17 1.77 4.31 1.8 3.99 1.84 3.21 1.89 2.17 1.94 1.27 2 .85 2.06 1.08 2.1 1.82 2.13 2.73 2.14 3.45 2.15 3.79 2.15 3.76 2.2 3.61 2.26 3.58 2.34 3.76 2.4 4.18 2.39 4.85 2.3 5.85 2.17 6.95 2.03 7.12 2.02 4.3 2.36" filter="url(#a)"/><path d="m45.6-67.32 3.45 1.86 2.84 1.65 3.1 1.63 3.79 1.63 4.06 1.68 3.81 1.71 3.56 1.75 3.62 1.78 3.9 1.82 4.11 1.85 4 1.91 3.51 1.96 2.84 2.01 2.27 2.07 2.11 2.11 2.56 2.14 3.55 2.15 4.79 2.17 5.8 2.2 6.12 2.23 5.56 2.28 4.28 2.32 2.8 2.35 1.66 2.36 1.29 2.35 1.65 2.35 2.37 2.4 2.98 2.5 3.18 2.67 3.02 2.82 2.89 2.91 3.19 2.84 3.56 2.55 2.21 1.7M44.62-67.76l2.11 1.29 1.84 1.46 1.91 1.65 1.8 1.68L53.79-60l1.19 1.69.93 1.71.84 1.73.87 1.76.93 1.79.97 1.85.94 1.9.86 1.98.75 2.05.7 2.14.7 2.2.75 2.23.74 2.2.62 2.13.41 2.04.18 1.98.08 2.02.18 2.31.41 3" filter="url(#a)"/><path d="m42.03-69.73 2.01 1.71 1.85 1.5 1.96 1.56 2 1.65 1.84 1.69 1.57 1.7 1.31 1.72 1.13 1.74 1.09 1.77 1.16 1.8 1.3 1.84 1.41 1.9 1.42 1.96 1.33 2.02 1.15 2.1.9 2.14.65 2.18.4 2.19.18 2.18.03 2.17-.04 2.15-.01 2.15.1 2.17.23 2.21.33 2.26.37 2.31.34 2.35.29 2.41.22 2.45.18 2.54.1 2.64-.08 2.7-.37 2.65-.67 2.4L67 3.23l-.9 1.99" filter="url(#a)"/><path d="m42.79-69.21 2.04 1.25 1.91 1.2 2.04 1.36 2.08 1.48 2.13 1.55 2.16 1.6 2.19 1.64 2.16 1.67 2.11 1.71 2.07 1.74 2.06 1.77 2.04 1.81 1.99 1.84 1.92 1.9 1.85 1.95 1.85 2.03 1.9 2.11 1.94 2.15 1.9 2.17 1.7 2.14 1.45 2.04 1.3 1.75 1.39 1.22" filter="url(#a)"/><path d="m37.98-71.64 2.97 1.35 3.47 1.14L48-67.91l2.93 1.37 2.26 1.5 1.95 1.59 2.01 1.64 2.24 1.68 2.53 1.69 2.74 1.72 2.86 1.73 2.93 1.77 3.06 1.8 3.29 1.85 3.67 1.91 4.09 1.98 4.47 2.06 4.65 2.14 4.58 2.2 4.22 2.23 3.61 2.21 2.81 2.14 1.98 2.06 1.46 1.99 1.76 2.04 3.25 2.31 3.95 3.01" filter="url(#a)"/><path d="m37.39-72.06 2.57 1.21 2.9 1.36 2.54 1.33 2.3 1.34 2.41 1.41 2.73 1.47 3.04 1.55 3.15 1.59 3.04 1.64 2.8 1.69 2.65 1.71L70.19-54l2.86 1.78 3.14 1.82 3.35 1.86 3.5 1.92 3.52 1.97 3.47 2.04 3.29 2.11 3.04 2.14 2.86 2.15 3.01 2.12 3.52 2.06 4.06 2.01 3.9 2.1 3.02 2.46 3.62 3.18" filter="url(#a)"/><path d="m32.94-74.31 3.4.9 1.92 1.19 1.96 1.3 2.17 1.33 2.3 1.34 2.39 1.37 2.44 1.41L52.01-64l2.5 1.53 2.48 1.59 2.45 1.64 2.44 1.68 2.43 1.71 2.48 1.75 2.53 1.78 2.58 1.82 2.56 1.86 2.45 1.91 2.24 1.97 1.98 2.04 1.72 2.11 1.49 2.15 1.32 2.17 1.18 2.13 1.17 2.04 1.34 1.92 1.78 1.87 2.45 2.41" filter="url(#a)"/><path d="m32.94-74.31 2.43.9 3.01 1.19 3.13 1.29 3.22 1.32 3.22 1.34 3.16 1.36 3.25 1.41 3.53 1.46 3.89 1.53 4.13 1.58 4.24 1.63 4.38 1.67 4.76 1.71 5.42 1.74 6.2 1.77 6.72 1.81 6.72 1.84 6.14 1.9 5.17 1.96 4.27 2.03 3.89 2.11 4.34 2.17 5.45 2.2 6.49 2.22 6.36 2.19 7.24 1.89" filter="url(#a)"/><path d="m32.94-74.31 2.55.91 2.74 1.19 2.36 1.3 2.21 1.34 2.24 1.34 2.32 1.38 2.4 1.42 2.41 1.48 2.34 1.54 2.2 1.6 2.07 1.64 1.96 1.69 1.91 1.72L64.57-54l1.96 1.8 2 1.83 1.98 1.88 1.88 1.93 1.75 1.98 1.63 2.05 1.55 2.1 1.57 2.14 1.64 2.14 1.74 2.13 1.81 2.12 1.8 2.13 1.72 2.22 1.57 2.4 1.42 2.6 1.23 2.59.84 2.29" filter="url(#a)"/><path d="m29.19-75.64 4 1.13 4.85 1.11 3.84 1.2 2.49 1.28 1.69 1.32 1.44 1.35 1.54 1.38 1.83 1.42 2.21 1.48 2.63 1.54 3 1.6 3.28 1.64 3.44 1.68L69-55.78l3.78 1.76 4.1 1.79 4.49 1.83 4.79 1.88 4.83 1.93 4.5 1.99 3.85 2.05 3.13 2.1 2.6 2.14 2.46 2.14 2.73 2.14 3.33 2.12 4.1 2.13 4.89 2.23 5.38 2.4 5.2 2.59 4.19 2.6 1.63 2.29" filter="url(#a)"/><path d="m28.7-75.89 1.25.57 1.61.89 1.22 1.06.76 1.18.64 1.26.8 1.3.82 1.34.53 1.38.07 1.43-.33 1.48-.46 1.53-.36 1.59-.12 1.64.14 1.68.35 1.72.45 1.76.43 1.79.3 1.83.12 1.88-.02 1.92-.1 1.99-.05 2.05.01 2.1.01 2.14-.14 2.15-.41 2.13-.72 2.1-.9 2.09-.97 2.19-1.23 2.43-2.14 2.75-2.39 2.69" filter="url(#a)"/><path d="m28.7-75.89 1.43.57 2.19.9 2.36 1.07 2.4 1.18 2.39 1.27 2.32 1.31 2.23 1.35 2.14 1.39 2.06 1.44 2.02 1.49 1.97 1.54 1.94 1.6 1.88 1.65 1.83 1.69 1.76 1.73 1.68 1.77 1.62 1.81 1.55 1.85 1.49 1.9 1.46 1.95 1.41 2 1.37 2.05 1.32 2.1 1.24 2.13L73.93-36l1.1 2.16 1.03 2.18.98 2.21.94 2.28.91 2.35.88 2.4.83 2.4.74 2.33.63 2.18.51 2.06.42 2.04.35 2.37m-58.36-68.2 2.47 1.01.68.86-.25.92.1 1.04.99 1.15 1.55 1.23 1.54 1.28 1.19 1.32.84 1.36.65 1.4.54 1.45.35 1.51-.01 1.56-.48 1.61-.89 1.66-1.12 1.7-1.11 1.72-.81 1.76-.36 1.79.08 1.82.24 1.84-.15 1.89-.87 2.02-1.3 2.2-2.32 1.9" filter="url(#a)"/><path d="m24.89-77.24 2.43 1.02 1.36.86.36.94-.13 1.05-.01 1.16.42 1.24.92 1.29 1.23 1.34 1.25 1.37 1.04 1.41.71 1.48.5 1.52.49 1.58.7 1.63.94 1.67 1.01 1.72.77 1.74.22 1.79-.57 1.81-1.43 1.86-2.27 1.91-2.96 1.97-3.38 2.04-3.37 2.11-2.85 2.17-1.93 2.19-1.14 2.16-1.43 2.06-2.93 1.78-2.54 1.24" filter="url(#a)"/><path d="m24.89-77.24 3.23 1.02 2.83.87 2.51.95 2.26 1.06 2.21 1.17 2.3 1.25 2.4 1.3 2.46 1.35 2.5 1.38 2.53 1.43 2.56 1.49 2.58 1.54 2.57 1.6 2.51 1.64 2.45 1.69 2.39 1.72 2.38 1.77 2.42 1.8 2.45 1.85 2.46 1.89 2.35 1.94 2.15 1.99 1.86 2.05 1.57 2.1 1.36 2.13 1.35 2.15 1.52 2.15 1.82 2.16 2.08 2.19 2.15 2.26 1.91 2.37 1.46 2.47 1.09 2.48 1.15 2.37 1.7 2.2 2.17 2.08" filter="url(#a)"/><path d="m25.08-77.2 2.45.84 2.78.75 3.28.84 3.33.97 3.07 1.07 2.78 1.13 2.63 1.18 2.61 1.23 2.66 1.31 2.67 1.38 2.62 1.47 2.52 1.55 2.41 1.6 2.41 1.66 2.56 1.7 2.92 1.72 3.39 1.76 3.85 1.8 4.14 1.83 4.15 1.88 3.9 1.94 3.47 2.01 3.04 2.07 2.72 2.13 2.6 2.18 2.63 2.2 2.72 2.2 2.73 2.16 2.59 2.13 2.32 2.1 2.08 2.13 2.08 2.17 2.41 2.26 2.94 2.35 3.27 2.42 2.8 2.38 1.89 2.16" filter="url(#a)"/><path d="m21.74-78.13 3.2.89 2.54.8 2.03.78 1.98.85 2.17.95 2.36 1.04 2.47 1.1 2.49 1.15 2.47 1.2 2.39 1.26 2.32 1.34 2.26 1.43 2.22 1.52 2.23 1.58 2.25 1.64 2.28 1.67 2.29 1.69 2.28 1.72 2.26 1.74 2.22 1.76 2.17 1.81 2.05 1.85 1.89 1.87 1.78 1.96 2.03 2.23 2.31 2.49" filter="url(#a)"/><path d="m13.91-79.9 4.09.79 3.33.63 2.67.64 2.41.72 2.43.81 2.56.88 2.71.95 2.84 1.04 2.99 1.12 3.13 1.19 3.2 1.25 3.2 1.31 3.18 1.35 3.18 1.39 3.25 1.45 3.4 1.5 3.6 1.55 3.83 1.61 4.05 1.65 4.22 1.7 4.26 1.72 4.08 1.76 3.69 1.79 3.19 1.84 2.73 1.78 2.43 1.6 2.62 1.62" filter="url(#a)"/><path d="m13.5-80.04 3.56.77 2.85.66 2.72.68 2.68.72 2.6.77 2.49.81 2.36.89 2.25.96 2.16 1.03 2.14 1.1 2.15 1.16 2.17 1.23 2.21 1.29 2.25 1.37 2.28 1.45 2.3 1.53 2.35 1.59 2.39 1.64 2.46 1.69 2.53 1.71 2.56 1.75 2.57 1.78 2.51 1.82 2.41 1.87 2.29 1.92 2.17 2 2.07 2.06 1.98 2.14 1.88 2.2 1.76 2.24 1.63 2.22 1.51 2.17 1.45 2.09 1.47 2.02 1.59 2.06 1.88 2.33 2.61 3.03" filter="url(#a)"/><path d="m10.64-80.13 2.04.26 2.39.35 2.63.49 2.61.56 2.52.64 2.48.71 2.47.79 2.52.87 2.57.94 2.67 1.02 2.75 1.11 2.82 1.18 2.82 1.24 2.77 1.3 2.65 1.34 2.5 1.38 2.35 1.44 2.22 1.49 2.12 1.55 2.11 1.6 2.21 1.66 2.35 1.69 2.45 1.71 2.41 1.73 2.34 1.82 2.54 2.09 2.9 2.42" filter="url(#a)"/><path d="m10.64-80.13 2.05.26 2.4.37 2.68.49 2.82.57 2.93.65 2.99.73 3.02.81 2.98.89 2.95.97 2.92 1.05 2.92 1.13 3.02 1.2 3.2 1.26 3.44 1.32 3.63 1.37 3.68 1.42 3.6 1.48 3.38 1.52 3.13 1.58 2.96 1.63 2.9 1.67 2.96 1.72 3.03 1.75 2.99 1.79L86-50.67l2.4 1.87 1.96 1.92 1.61 1.99 1.53 2.05 1.79 2.11 2.3 2.16 2.81 2.18 3.06 2.15 2.99 2.06 2.79 1.94 2.82 1.9 3.98 2.42" filter="url(#a)"/><path d="m10.03-80.37 1.38.23 3.31.4 4.02.52 3.82.6 3.32.65 2.82.7 2.44.75 2.21.79 2.18.86 2.35.93 2.69 1 3.12 1.07 3.58 1.12 4.05 1.18 4.5 1.25L60.74-67l5.19 1.4 5.22 1.5 4.93 1.57 4.5 1.63 4.21 1.67 4.28 1.7 4.63 1.7 4.94 1.69 5.22 1.67 5.89 1.84 6.59 2.51" filter="url(#a)"/><path d="m7.93-80.59 2.47.38 2.47.33 2.67.39 2.75.48 2.75.56 2.76.64 2.86.71 3.1.79 3.43.87 3.81.95 4.12 1.03 4.29 1.11 4.36 1.18 4.42 1.25 4.56 1.29 4.85 1.35 5.23 1.4 5.53 1.44 5.59 1.5 5.31 1.56 4.8 1.61 4.39 1.66 4.46 1.69 5.27 1.73 6.71 1.77 8.17 1.8 8.68 1.83 7.47 1.79 5.34 1.62 6.7 1.62" filter="url(#a)"/><path d="m5.24-80.67 3.25.26 2.47.29 2.47.4 2.39.51 2.15.58 1.82.64 1.44.69 1.05.73.75.79.57.85.57.92.7.99.97 1.05 1.29 1.11 1.58 1.16 1.77 1.22 1.79 1.3 1.64 1.39 1.36 1.49 1 1.57.59 1.62.29 1.66.26 1.75.17 1.89-1.47 1.47" filter="url(#a)"/><path d="m3.36-81.06 3.76.43 3.06.37 2.85.36 2.81.39 2.79.47 2.73.53 2.68.62 2.7.68 2.83.76 3.06.83 3.3.91 3.44.98 3.43 1.08 3.32 1.15 3.13 1.23 2.98 1.26 2.9 1.3 2.9 1.32 2.98 1.4 3.22 1.55 3.79 1.72 4.51 1.69" filter="url(#a)"/><path d="m3.31-80.79 2.48.17 2.65.23 2.6.3 2.66.4 2.69.5 2.65.57 2.58.63 2.46.69 2.36.74 2.29.79 2.29.85 2.34.92 2.42.99 2.49 1.06 2.53 1.11 2.52 1.17 2.48 1.23 2.47 1.31 2.45 1.39 2.45 1.49 2.4 1.57 2.33 1.63 2.24 1.67 2.22 1.73 2.21 1.77 2.07 1.66 1.91 1.42" filter="url(#a)"/><path d="m4.17-80.96 1.33.1 2.64.28 2.86.34 2.77.37 2.72.41 2.76.49 2.88.56 3 .64 3 .71 2.84.79 2.62.87 2.42.95 2.38 1.04 2.48 1.11 2.72 1.18 2.97 1.25 3.16 1.3 3.27 1.35 3.27 1.41 3.22 1.46 3.19 1.51 3.19 1.56 3.25 1.62L72.46-58l3.46 1.71 3.56 1.74 3.6 1.78 3.61 1.8 3.58 1.85 3.56 1.88 3.49 1.94 3.33 2.03 2.98 2.17 2.56 2.26 3.03 2.37" filter="url(#a)"/><path d="m4.17-80.96.88.09 2.29.28 2.49.33 2.46.36 2.45.41 2.43.47 2.42.54 2.4.61 2.37.69 2.35.77 2.35.83 2.36.92 2.37 1 2.39 1.08 2.4 1.16 2.36 1.22 2.31 1.28 2.22 1.31 2.13 1.36 2.08 1.41 2.04 1.47 1.99 1.51 1.87 1.49 1.81 1.54 2.56 2.36" filter="url(#a)"/></g><path fill="none" stroke="#000" stroke-linejoin="round" stroke-width="3" d="M-10.44 4.62Q10.99 12.3.275-5.272" filter="url(#a)"/><path fill="#CC6681" stroke="#000" stroke-linejoin="round" stroke-width="3" d="m-33.57 50.6.85-.9.85-.87.84-.85.84-.81.83-.8.82-.76.82-.74.81-.72.8-.69.8-.67.79-.64.78-.61.78-.6.77-.57.77-.55.76-.52.76-.5.75-.48.74-.45.74-.44.73-.41.73-.39.72-.37.71-.35.71-.33.71-.3.7-.29.69-.27.69-.25.69-.23.67-.21.68-.19.67-.17.66-.15.66-.14.65-.12.65-.1.64-.08.64-.07.64-.05.63-.03.62-.02h.62l.62.02.61.03.61.04.6.06.6.07.59.09.59.11.59.11.58.13.58.14.57.16.57.17.57.18.56.19.56.21.55.21.56.23.54.24.55.25.54.26.53.27.54.28.53.3.52.3.53.3.52.32.51.33.52.34.51.34.51.35.5.36.5.37.5.37.5.38.49.39.49.39.49.4.49.41.48.41.48.41.48.42.47.43.48.43.47.43.47.44.46.44.47.45.46.45.46.45.46.45.45.46.46.46.45.46.45.46.45.46.45.46-.61-.03-.6-.04-.61-.04-.6-.03-.61-.04-.6-.03-.61-.04-.6-.03-.61-.04-.6-.03-.61-.04-.6-.03-.61-.03-.6-.04-.61-.03-.6-.03-.6-.03-.61-.03-.6-.04-.61-.03-.6-.03-.61-.02-.6-.03-.61-.03-.6-.03-.61-.03-.6-.02-.61-.03-.6-.02-.61-.03-.6-.02-.61-.02-.6-.02-.61-.02-.6-.02-.61-.02-.6-.02-.61-.02-.6-.01-.6-.02-.61-.01-.6-.01-.61-.02-.6-.01-.61-.01h-.6l-.61-.01-.6-.01h-.61l-.6-.01h-2.42l-.61.01h-.6l-.61.01h-.6l-.61.01-.6.01-.61.01-.6.02-.6.01-.61.02-.6.01-.61.02-.6.03-.61.02-.6.02-.61.03-.6.03-.61.03-.6.03-.61.03-.6.04-.61.03-.6.04-.61.04-.6.05-.61.04-.6.05-.61.04-.6.06-.61.05-.6.05-.6.06-.61.06-.6.06-.61.06-.6.07-.61.07-.6.07-.61.07-.6.07-.61.08-.6.08-.61.08-.6.09-.61.08" filter="url(#a)"/></svg>