<svg xmlns="http://www.w3.org/2000/svg" width="500" height="500" viewBox="-100 -100 200 200"><defs><clipPath id="c"><path d="m19.49 1.24-.14-.14-.17-.15L19 .79l-.2-.16-.22-.16-.24-.17-.26-.16-.28-.17-.29-.17-.31-.16-.34-.16-.35-.16-.37-.15-.38-.15-.4-.14-.38-.25-.41-.24-.43-.23-.47-.21-.49-.19-.52-.17-.54-.16-.57-.14-.6-.12-.62-.1-.64-.08-.66-.06-.68-.04-.7-.03-.71-.01-.73.01-.74.02-.76.05-.76.05-.78.07-.78.09-.78.09-.79.11-.8.12-.79.13-.79.15-.8.15-.78.15-.79.17-.77.17-.77.18-.76.18-.75.19-.74.19-.73.19-.71.2-.7.19-.68.2-.67.19-.66.2-.63.19-.62.2-.6.19-.59.19-.56.18-.55.18-.52.18-.51.18-.5.17-.47.17-.46.17-.44.16-.42.16-.41.15-.39.16-.37.14-.36.15-.34.14-.32.14-.31.13-.29.13-.28.12-.26.12-.24.12-.09 1.31.38-.02.39-.03.41-.03.42-.03.44-.04.44-.04.46-.04.47-.04.48-.05.49-.05.51-.05.51-.06.53-.06.54-.07.55-.06.57-.07.57-.07.59-.08.61-.08.62-.08.62-.09.64-.09.65-.09.66-.1.67-.09.68-.11.69-.1.7-.1.7-.11.7-.11.72-.11.71-.11.72-.11.72-.11.73-.11.72-.11.72-.11.72-.1.72-.1.72-.1.71-.1.7-.09.7-.08.69-.09.68-.07.67-.07.66-.06.65-.05.64-.05.62-.03.62-.03.59-.02.58-.01h.57l.55.01.53.02.51.03.5.04.47.05.46.06.44.07.42.08.4.09.38.09.37.03.37.02.34.03.34.03.32.02.31.03.29.02.28.02.27.02.25.01.23.01.23.01h.2l.19-.01.18-.02"/></clipPath><clipPath id="b"><path d="m-21.63 1.01.12-.08.13-.09.15-.09.17-.1.19-.1.22-.1.23-.11.25-.1.27-.11.29-.11.31-.1.33-.1.35-.1.36-.1.39-.1.35-.17.39-.16.41-.16.44-.14.48-.14.5-.12.53-.11.56-.09.58-.09.61-.07.63-.06.66-.05.67-.03.7-.03.71-.01h.73l.75.01.76.03.77.03.78.04.79.06.79.06.8.07.81.08.81.08.8.1.81.1.8.1.8.11.8.12.79.12.78.12.77.13.76.13.74.13.74.14.72.13.71.14.69.13.68.14.66.14.65.13.63.14.61.13.59.13.57.13.56.13.54.12.52.13.5.12.49.11.47.12.45.11.44.12.42.1.41.11.39.11.38.1.36.1.34.09.33.1.31.09.29.09.29.09 1.86.85-.24-.02-.27-.02-.27-.02-.29-.02-.31-.03-.32-.03-.33-.03-.34-.03-.36-.04-.38-.04-.39-.05-.4-.04-.42-.05-.44-.05-.44-.06-.47-.05-.48-.07-.5-.06-.52-.07-.53-.06-.55-.08-.57-.07-.58-.08-.6-.08-.62-.09-.64-.08-.65-.09-.66-.09-.69-.09-.69-.1-.71-.09-.73-.1-.73-.09-.75-.1-.75-.1-.77-.09-.77-.09-.78-.09-.79-.09-.79-.09-.79-.08-.79-.08-.79-.08-.8-.07-.79-.06-.78-.06-.78-.06-.77-.04-.76-.04-.76-.03-.74-.03-.73-.02h-1.41l-.68.01-.66.02-.64.02-.62.04-.6.05-.57.05-.55.07-.53.07-.5.08-.48.09-.47.02-.46.03-.45.03-.43.02-.42.03-.39.03-.38.03-.37.03-.34.03-.33.02-.31.02-.3.01-.27.02h-.49"/></clipPath><filter id="a"><feTurbulence baseFrequency=".05" numOctaves="3" result="noise" type="noise"/><feDisplacementMap in="SourceGraphic" in2="noise" scale="2"/></filter></defs><rect width="100%" height="100%" x="-100" y="-100" fill="#E5A6F2"/><path fill="#42DF20" stroke="#000" stroke-linejoin="round" stroke-width="1.667" d="m54.71.51-.14.63.01 3.59.04-1.93-.08 2.11-.07 2.13-.11 1.38v1.16l-.28 1.56-.04.82-.44 3.93.04.01-.08.78-.26 2.35-.14.69-.13.94-.17.79-.14.67-.13 1.04-.63 2.6-.16 1.28-.55 2.16-.15 1.04-.32 1.33-.08.58-.87 3.02.46-1.59-.91 3.03-.21.72-.67 2.19.01-.03-.44 1.18.17-.4-.45 1.25-1.35 3.1-.85 1.88-.18.43-.08.67-1.36 2.61.02.68.6-1.41-1.67 2.86-.37.8-.35 1.29v.08l-1.99 3.19.02-.03-.66 1.28.14-.29-1.55 2.4-.09-.05-.75 1.17-.84 1.47-.49.02-1.03 1.99-.13-.06-.49.51-.73 1.11-.96.92-.18.27-.94 1.17-1.09.96-.81.99.52-.62-.5.42-1.87 2.06-1.51 1.21-.42.39.38-.21-.75.3-2.45 2.16.29-.18-1.49.93.16-.15-.89.49-1.37.83-.05.44-2.08.81-.69.31-.19.26-.88.3-.92.54 1.09-.55-1.45.57-2.39 1.06-1.06.24.89-.04-2.78.97 1.08-.51-2.19.71.28-.31-1.97.56.43-.16-2 .43-.01-.04-.21.12-2.86-.02.81.25-2.31.15-.21-.08-1.56-.05.56-.21-1.46.09-1.81-.27.33.3-1.31-.12.39-.32-2.24-.07-.58-.13-.6-.33-.54-.27-1.78-.47-.47.07.34-.08-2.67-.91.38.39-.51-.38-1.5-.47-1.58-.74-1.48-.81.83.57-1.08-.64-1.75-1.25.27.31-1.8-1.48.47.63-.58-.29-2.23-1.48-.03-.22.22-.09-2.69-1.77.86.41-1.22-.96-1.25-1.02-.69-.93-.55-.47-.37-.13-1.16-1.04-.55-1.13.06.45-1.21-1.49-1.36-1.48-.8-1.02-.74-1 .15.31-.01.2-1.77-2.58-.74-1.26.12.25-.15-.25-2.1-3.18-.21-.64-.3-.45-1.24-2.33.08.19-.68-1.14-.3-.73-.89-1.78-.31-.51-.54-1.24-.44-.65-1.2-2.69.25.15-.87-1.47-.3-1.47.04.52-1.07-2.77.18.23-1.09-3.43.2 1.39-.09-.56-.92-3.61-.2-.53-.35-.84.09-.05-.93-3.38-.37-1.47.05.74-.67-3.66-.16-.68.18.15-.75-2.83-.08-.41-.09-1.7-.34-2.05-.03.17-.36-1.46-.29-2.63.24 1.48-.1-.67-.35-4.77.18 2.64-.45-5.75.08 1.72-.14-1.85-.27-3.25.09-.47-.14-1.74.14-1.75-.1-1.51.06-.62-.07-2.13.06.86.12-2.64.21-2.43.1-1.55-.17-.36.26-.95.12-1.38.21-1.68-.2-.11.14-.2.05-1.75.47-1.53.15-2.66.18-.56.43-2.11.21-.91.2-1.99.07.72.36-2.57.32-.61.28-1.87.16-.07.57-2.55-.04-.27.51-1.37.49-1.88.61-1.47.56-1.79.07-.57.19-.43.81-2.24.02.16.81-2.63.14.24.26-.97 1.24-2.76-.51 1.1.74-1.42.9-2.39 1.21-2.1-.63.99 1.08-2.01.09.02.9-1.5.67-1.25.16.02.86-1.93.83-1.2.12-.11 1.18-1.46-.27.23 1.16-2.02.85-.62.21-.64.81-.78 1.82-2.34-.33.52.1-.11 2.32-2.66v-.2l.32-.27 1.01-.93.97-.9.77-.76 1.57-1.44-.89.74 1.02-.66 1.95-1.69-.57.47 1.55-.98-.09-.39.99-.2.6-.65 1.27-1.05.23.17 2.18-1.21-.4.01 1.03-.52 1.03-.36.01.1.97-.69-.01-.11 2.38-.94-.43.35 1.45-.38 1.64-.7 1.1-.16-.17.07 2.11-.64-.09.21.55-.26.88.04 1.3-.39 1.85-.15.84-.15-.8-.03 1.15.01h2.63l-.66-.02 1.55.17-.35-.08L3-85.07l1.83.28.47.17-.26-.11 2.02.41.78.25-.04-.11 1.43.25.68.55.96-.16 1.95.79-.64-.28 2.32 1.22-.35-.09.47.16 1.08.31 1.51.91.63.42-.59-.61.95.48 1.39.9 1.3.91 1.18.81.11.07 1.22.99 1.03.7.29-.07 1.8 1.68-.63-.47 1.02.66.42.56 1.51 1.39.81.73.34.33 1.1 1.29.41.22.67.96-.47-.79 1.97 2.41-.14-.01 1.58 1.55.37.74-.04-.05.95 1.18 1.51 2.23-.66-.82 1.64 2.54.43.56.36.38.7 1.27.36.6 1.6 2.81-.13-.03h-.01l.83 1.93.95 1.31-.54-.37 1.35 2.37.49 1.31.71 1.35.33.72.59 1.73.01-.17.04.29.84 2.68.36 1.14.67 1.82.47 1.02-.29-.57 1.03 3.81-.02-.72.39 1.36.54 2-.28-.75 1.01 4.36.11-.17-.03.41.56 3.59.16.4.29.93-.02-.01.43 3.44.11.54.16 1.18.33 2.15.12 1.34.2 1.99-.2-1.75.33 3.4.11.92.21 2.09-.14 1.36.1.78.12-.22-.09 1.49-.03 2.01.21 2.02-.14.63" filter="url(#a)"/><path fill="#fff" d="m-21.63 1.01.12-.08.13-.09.15-.09.17-.1.19-.1.22-.1.23-.11.25-.1.27-.11.29-.11.31-.1.33-.1.35-.1.36-.1.39-.1.35-.17.39-.16.41-.16.44-.14.48-.14.5-.12.53-.11.56-.09.58-.09.61-.07.63-.06.66-.05.67-.03.7-.03.71-.01h.73l.75.01.76.03.77.03.78.04.79.06.79.06.8.07.81.08.81.08.8.1.81.1.8.1.8.11.8.12.79.12.78.12.77.13.76.13.74.13.74.14.72.13.71.14.69.13.68.14.66.14.65.13.63.14.61.13.59.13.57.13.56.13.54.12.52.13.5.12.49.11.47.12.45.11.44.12.42.1.41.11.39.11.38.1.36.1.34.09.33.1.31.09.29.09.29.09 1.86.85-.24-.02-.27-.02-.27-.02-.29-.02-.31-.03-.32-.03-.33-.03-.34-.03-.36-.04-.38-.04-.39-.05-.4-.04-.42-.05-.44-.05-.44-.06-.47-.05-.48-.07-.5-.06-.52-.07-.53-.06-.55-.08-.57-.07-.58-.08-.6-.08-.62-.09-.64-.08-.65-.09-.66-.09-.69-.09-.69-.1-.71-.09-.73-.1-.73-.09-.75-.1-.75-.1-.77-.09-.77-.09-.78-.09-.79-.09-.79-.09-.79-.08-.79-.08-.79-.08-.8-.07-.79-.06-.78-.06-.78-.06-.77-.04-.76-.04-.76-.03-.74-.03-.73-.02h-1.41l-.68.01-.66.02-.64.02-.62.04-.6.05-.57.05-.55.07-.53.07-.5.08-.48.09-.47.02-.46.03-.45.03-.43.02-.42.03-.39.03-.38.03-.37.03-.34.03-.33.02-.31.02-.3.01-.27.02h-.49" filter="url(#a)" transform="translate(22.25 -23.95)"/><path fill="#fff" d="m19.49 1.24-.14-.14-.17-.15L19 .79l-.2-.16-.22-.16-.24-.17-.26-.16-.28-.17-.29-.17-.31-.16-.34-.16-.35-.16-.37-.15-.38-.15-.4-.14-.38-.25-.41-.24-.43-.23-.47-.21-.49-.19-.52-.17-.54-.16-.57-.14-.6-.12-.62-.1-.64-.08-.66-.06-.68-.04-.7-.03-.71-.01-.73.01-.74.02-.76.05-.76.05-.78.07-.78.09-.78.09-.79.11-.8.12-.79.13-.79.15-.8.15-.78.15-.79.17-.77.17-.77.18-.76.18-.75.19-.74.19-.73.19-.71.2-.7.19-.68.2-.67.19-.66.2-.63.19-.62.2-.6.19-.59.19-.56.18-.55.18-.52.18-.51.18-.5.17-.47.17-.46.17-.44.16-.42.16-.41.15-.39.16-.37.14-.36.15-.34.14-.32.14-.31.13-.29.13-.28.12-.26.12-.24.12-.09 1.31.38-.02.39-.03.41-.03.42-.03.44-.04.44-.04.46-.04.47-.04.48-.05.49-.05.51-.05.51-.06.53-.06.54-.07.55-.06.57-.07.57-.07.59-.08.61-.08.62-.08.62-.09.64-.09.65-.09.66-.1.67-.09.68-.11.69-.1.7-.1.7-.11.7-.11.72-.11.71-.11.72-.11.72-.11.73-.11.72-.11.72-.11.72-.1.72-.1.72-.1.71-.1.7-.09.7-.08.69-.09.68-.07.67-.07.66-.06.65-.05.64-.05.62-.03.62-.03.59-.02.58-.01h.57l.55.01.53.02.51.03.5.04.47.05.46.06.44.07.42.08.4.09.38.09.37.03.37.02.34.03.34.03.32.02.31.03.29.02.28.02.27.02.25.01.23.01.23.01h.2l.19-.01.18-.02" filter="url(#a)" transform="translate(-32.52 -22.62)"/><g fill="none" stroke="#000" transform="translate(22.25 -23.95)"><path stroke-linejoin="round" stroke-width="1.667" d="m-21.74 1.2-.07.05-.05.03-.03.02-.02-.01v-.02l.02-.03.04-.04.05-.06.08-.06.09-.07.12-.08.13-.09.15-.09.17-.1.19-.1.22-.1.23-.11.25-.1.27-.11.29-.11.31-.1.33-.1.35-.1.36-.1.39-.1.35-.17.39-.16.41-.16.44-.14.48-.14.5-.12.53-.11.56-.09.58-.09.61-.07.63-.06.66-.05.67-.03.7-.03.71-.01h.73l.75.01.76.03.77.03.78.04.79.06.79.06.8.07.81.08.81.08.8.1.81.1.8.1.8.11.8.12.79.12.78.12.77.13.76.13.74.13.74.14.72.13.71.14.69.13.68.14.66.14.65.13.63.14.61.13.59.13.57.13.56.13.54.12.52.13.5.12.49.11.47.12.45.11.44.12.42.1.41.11.39.11.38.1.36.1.34.09.33.1.31.09.29.09.29.09.26.08.25.08.24.08.22.08.21.07.2.07.18.07.17.07.16.06.14.07" filter="url(#a)"/><path stroke-linejoin="round" stroke-width="2.222" d="m-22.23.93.06.13.07.11.09.09.11.07.12.06.15.05.16.04.19.03.2.01.22.01h.49l.27-.02.3-.01.31-.02.33-.02.34-.03.37-.03.38-.03.39-.03.42-.03.43-.02.45-.03.46-.03.47-.02.48-.09.5-.08.53-.07.55-.07.57-.05.6-.05.62-.04.64-.02.66-.02.68-.01h1.41l.73.02.74.03.76.03.76.04.77.04.78.06.78.06.79.06.8.07.79.08.79.08.79.08.79.09.79.09.78.09.77.09.77.09.75.1.75.1.73.09.73.1.71.09.69.1.69.09.66.09.65.09.64.08.62.09.6.08.58.08.57.07.55.08.53.06.52.07.5.06.48.07.47.05.44.06.44.05.42.05.4.04.39.05.38.04.36.04.34.03.33.03.32.03.31.03.29.02.27.02.27.02.24.02.24.01.23.01.21.01.2.01h.18l.18.01h.46l.13-.01" filter="url(#a)"/><circle cx="-17.13" cy="1.007" r="4.278" clip-path="url(#b)" filter="url(#a)"/><circle cx="-18.94" cy="-2.103" r="3.482" clip-path="url(#b)" filter="url(#a)"/><circle cx="-18.125" cy="2.557" r="3.87" clip-path="url(#b)" filter="url(#a)"/><circle cx="-15.405" cy="-1.773" r="4.42" clip-path="url(#b)" filter="url(#a)"/><circle cx="-17.225" cy="1.412" r="3.94" clip-path="url(#b)" filter="url(#a)"/><circle cx="-18.08" cy="-.023" r="3.174" clip-path="url(#b)" filter="url(#a)"/><circle cx="-16.385" cy="-.208" r="4.08" clip-path="url(#b)" filter="url(#a)"/><circle cx="-17.975" cy="2.372" r="4.588" clip-path="url(#b)" filter="url(#a)"/><circle cx="-14.57" cy=".777" r="3.988" clip-path="url(#b)" filter="url(#a)"/><circle cx="-15.08" cy="-1.478" r="3.14" clip-path="url(#b)" filter="url(#a)"/></g><g fill="none" stroke="#000" transform="translate(-32.52 -22.62)"><path stroke-linejoin="round" stroke-width="2.222" d="m19.96 1.9.03.02H20V1.9l-.02-.05-.04-.06-.05-.08-.07-.1-.09-.11-.11-.13-.13-.13-.14-.14-.17-.15L19 .79l-.2-.16-.22-.16-.24-.17-.26-.16-.28-.17-.29-.17-.31-.16-.34-.16-.35-.16-.37-.15-.38-.15-.4-.14-.38-.25-.41-.24-.43-.23-.47-.21-.49-.19-.52-.17-.54-.16-.57-.14-.6-.12-.62-.1-.64-.08-.66-.06-.68-.04-.7-.03-.71-.01-.73.01-.74.02-.76.05-.76.05-.78.07-.78.09-.78.09-.79.11-.8.12-.79.13-.79.15-.8.15-.78.15-.79.17-.77.17-.77.18-.76.18-.75.19-.74.19-.73.19-.71.2-.7.19-.68.2-.67.19-.66.2-.63.19-.62.2-.6.19-.59.19-.56.18-.55.18-.52.18-.51.18-.5.17-.47.17-.46.17-.44.16-.42.16-.41.15-.39.16-.37.14-.36.15-.34.14-.32.14-.31.13-.29.13-.28.12-.26.12-.24.12-.23.12-.21.11-.2.11-.18.1-.17.1-.16.1-.14.09-.12.09-.12.09-.1.08" filter="url(#a)"/><path stroke-linejoin="round" stroke-width="2.222" d="m20.31 1.38-.02.18-.04.15-.05.14-.07.11-.08.1-.1.08-.11.06-.13.05-.15.04-.16.03-.18.02-.19.01h-.2l-.23-.01-.23-.01-.25-.01-.27-.02-.28-.02-.29-.02-.31-.03-.32-.02-.34-.03-.34-.03-.37-.02-.37-.03-.38-.09-.4-.09-.42-.08-.44-.07-.46-.06-.47-.05-.5-.04-.51-.03-.53-.02-.55-.01H10l-.58.01-.59.02-.62.03-.62.03-.64.05-.65.05-.66.06-.67.07-.68.07-.69.09-.7.08-.7.09-.71.1-.72.1-.72.1-.72.1-.72.11-.72.11-.73.11-.72.11-.72.11-.71.11-.72.11-.7.11-.7.11-.7.1-.69.1-.68.11-.67.09-.66.1-.65.09-.64.09-.62.09-.62.08-.61.08-.59.08-.57.07-.57.07-.55.06-.54.07-.53.06-.51.06-.51.05-.49.05-.48.05-.47.04-.46.04-.44.04-.44.04-.42.03-.41.03-.39.03-.38.02-.37.03-.36.01-.35.02-.33.02-.32.01-.31.01-.3.01h-.28l-.27.01h-.27" filter="url(#a)"/><circle cx="-7.775" cy="3.154" r="3.442" clip-path="url(#c)" filter="url(#a)"/><circle cx="-12.5" cy="-.631" r="3.384" clip-path="url(#c)" filter="url(#a)"/><circle cx="-9.07" cy=".274" r="3.332" clip-path="url(#c)" filter="url(#a)"/><circle cx="-8.895" cy=".089" r="4.586" clip-path="url(#c)" filter="url(#a)"/><circle cx="-7.59" cy="1.874" r="3.73" clip-path="url(#c)" filter="url(#a)"/><circle cx="-8.57" cy="1.339" r="4.664" clip-path="url(#c)" filter="url(#a)"/><circle cx="-11.62" cy="1.774" r="4.43" clip-path="url(#c)" filter="url(#a)"/><circle cx="-11.31" cy="-.096" r="4.862" clip-path="url(#c)" filter="url(#a)"/><circle cx="-8.455" cy=".304" r="3.38" clip-path="url(#c)" filter="url(#a)"/><circle cx="-8.305" cy="-1.071" r="4.716" clip-path="url(#c)" filter="url(#a)"/></g><g fill="none" stroke="#132886" stroke-linejoin="round" stroke-width="2"><path d="m-2.39-84.94.54-.02.77.2 1.22.36 1.49.51 1.62.64 1.69.76 1.8.85 1.89.95 1.99 1.01 2.06 1.07 2.09 1.12 2.11 1.14 2.1 1.14 2.07 1.13 2.04 1.1 1.99 1.07 1.93 1.04 1.84 1.01 1.69.96 1.51.89" filter="url(#a)"/><path d="m-5.54-84.4 1.29-.29 1.02-.16.66-.07h.45l.34.06.22.13.04.18-.2.24-.44.3-.69.38-.98.48-1.29.57-1.63.67-2 .78-2.36.86-2.72.94-3.1 1.01-3.42 1.03m28.19-6.78.46.1.98.38 1.2.55 1.31.66 1.36.77 1.36.85 1.36.91 1.36.96 1.38.99 1.38.99 1.38.99 1.36.99 1.33.96 1.31.96 1.28.93 1.22.89 1.14.82 1.01.71.87.61.73.48.54.34.3.13-.04-.22" filter="url(#a)"/><path d="m-6.97-84.18.7-.18 1-.16 1.11-.17 1.05-.14.91-.11.81-.08.75-.03.66-.02.56.01.43.03.29.05.14.07-.03.09-.22.12-.42.13-.63.15-.85.16-1.09.16-1.36.19-1.7.22-2.13.29-2.68.38M31.5-69.53l.46.61.57.69.73.9.8.99.78 1 .74.97.7.96.67.94.62.89.56.82.48.71.39.58.28.43.15.28.02.08-.12-.12-.29-.35-.46-.59-.63-.84-.81-1.1-1.04-1.41-1.27-1.74-1.45-2.01m13.53 23.02.27.95.45 1.43.44 1.35.37 1.13.29.91.22.75.14.59.07.44-.01.28-.09.11-.19-.08-.3-.3-.42-.56-.55-.85-.7-1.19-.84-1.55-.99-1.94-1.16-2.33-1.33-2.72-1.48-3.1-1.63-3.48-1.83-3.93-2.03-4.41M4.83-84.79l.44.16.78.27 1.04.38 1.18.46 1.26.53 1.34.59 1.4.64 1.44.69 1.43.72 1.39.74 1.33.72 1.26.71 1.2.68 1.13.65 1.06.59.94.53.8.43.65.32.49.21.33.1.18.01.13.05m-41.96-6.68.26-.12.51-.27.61-.26.63-.18.6-.09.51.01.37.11.2.23-.01.37-.23.53-.45.67-.65.84-.85.99-1.06 1.16-1.3 1.33-1.57 1.52-1.86 1.72-2.15 1.95-2.47 2.18-2.78 2.44-3.13 2.67-3.48 2.89-3.8 3.06" filter="url(#a)"/><path d="m-21.87-77.68.81-.68 1.05-.65 1.19-.6 1.23-.55 1.22-.53 1.21-.48 1.18-.46 1.15-.44 1.12-.42 1.07-.41 1.01-.36.87-.31.69-.25.46-.18.23-.11.01-.05-.35.06" filter="url(#a)"/><path d="m-11.56-82.96 1.33-.48.99-.28.84-.21.74-.16.63-.13.53-.1.42-.06.25-.02-.04.05-.44.15-.9.25-1.32.36-1.72.46-2.23.59m-14.24 8.31 1.1-.81.91-.71.67-.52.53-.39.46-.31.41-.24.34-.15.25-.04.13.1-.05.27-.25.46-.48.67-.7.88-.93 1.1-1.15 1.3-1.37 1.52-1.6 1.76-1.86 2.03-2.15 2.35-2.47 2.66-2.8 2.9m77.04.37.3.57.13.76-.14.76-.51.6-.92.38-1.33.19-1.73.04-2.11-.09-2.51-.21-2.92-.35-3.36-.52-3.84-.72-4.36-.97-4.88-1.23-5.42-1.46-5.94-1.67-6.51-1.78-7.13-1.89-7.79-2.03m51.65-2.39.78.87.42.49.22.32.1.27-.02.21-.19.11-.44-.06-.72-.28-1.06-.52-1.41-.76-1.8-1.02-2.2-1.3-2.62-1.62-3.06-1.98-3.52-2.35-4.17-2.78" filter="url(#a)"/><path d="m5.04-84.73 1.54.38 1.14.39 1.12.47 1.25.58 1.38.69 1.48.78 1.5.85 1.51.9 1.47.92 1.44.91 1.4.91 1.37.87 1.32.84 1.24.79 1.16.73 1.06.66.98.61.9.57.79.51.63.41.36.2m12.94 18.69.56.9.42.91.49 1.05.47 1.05.39.9.27.7.15.52.04.36-.05.23-.14.1-.24-.07-.35-.28-.5-.54-.66-.83-.81-1.12-.97-1.42-1.13-1.72-1.3-2.01-1.49-2.35-1.72-2.72-1.98-3.17-2.28-3.66-2.59-4.19" filter="url(#a)"/><path d="m2.32-84.96.19-.03.79.06.91.12.86.14.8.15.74.15.68.14.61.14.51.14.41.12.27.12.09.1-.11.08-.34.04-.59.01-.84-.05-1.11-.1-1.4-.14-1.66-.21-1.91-.26-2.3-.28" filter="url(#a)"/><path d="m.77-85.13 1.02.11.85.08.99.14 1.06.17 1.05.19.98.2.91.18.78.16.62.12.41.08.19.03-.07-.02-.34-.08-.7-.15-1.23-.27m-31.61 8.08 1.03-.73.69-.53.68-.48.7-.47.68-.44.61-.36.47-.25.31-.13.1.02-.1.17-.32.32-.54.48-.77.66-1.03.88-1.32 1.11-1.61 1.31-1.93 1.56-2.46 2.01m77.95 33.09.12.63-.24.59-.56.51-.93.29-1.33.05-1.74-.16-2.17-.38-2.6-.62-3.06-.9-3.53-1.2-4.01-1.55-4.51-1.89-5.02-2.25-5.54-2.57-6.09-2.88-6.66-3.17-7.22-3.5-7.73-3.93-8.12-4.48m53.62-4.23.37.52.31.43.29.48.16.41-.07.24-.35.04-.66-.18-.98-.38-1.32-.59-1.67-.86-2.06-1.14-2.48-1.48-2.93-1.83-3.39-2.2-3.84-2.55-4.4-2.94m-9.68-3.55 1.53.01.63.06.36.1.24.14.13.21-.04.27-.26.35-.52.43-.8.5-1.09.59-1.4.66-1.73.74-2.09.85-2.47.95-2.9 1.05-3.34 1.13-3.81 1.23-4.37 1.4" filter="url(#a)"/><path d="m-27.4-73.53.96-.8.84-.45 1.14-.55 1.38-.61 1.53-.63 1.64-.62 1.75-.61 1.86-.63 1.95-.65 2.01-.65 2.03-.65 2-.63 1.92-.6 1.85-.55 1.75-.5 1.64-.48 1.54-.46 1.45-.44 1.48-.41m30.21 17.49 1.02 1.1.44.62.18.42.03.34-.16.19-.42-.02-.73-.3-1.07-.61-1.42-.95-1.8-1.28-2.24-1.65-2.72-2.05-3.29-2.52-3.88-3.01L13-80.19m-5.2-3.99 1.08.32.75.35.53.41.28.48-.02.56-.33.64-.61.72-.89.8-1.19.88-1.49.98-1.83 1.09-2.15 1.22-2.49 1.36-2.81 1.51-3.15 1.65-3.55 1.78-3.97 1.89-4.43 2.01-4.92 2.16-5.38 2.31-5.83 2.39" filter="url(#a)"/><path d="m-30.47-70.67 19.14 5.69 16.12 5.59 2.95 2.24-5.38-.07-7.24-1.82-4.91-2.31-1.44-1.36 1.31.2 2.96 1.23 3.9 1.18 4.46.25 4.62-.99 4.06-1.98 2.7-2.46.82-2.44-.97-2.21-2.23-2.1-2.7-2.16-2.41-1.91-1.53-.78-.15 1.17 2.99 2.96 11.75 4.5 22.38 11.47" filter="url(#a)"/><path d="m2.32-84.96-2.88 4.12 10.78 6.98 7.61 5.34.68 1.84-3.15-.2-2.99-.51-.8-.12 1.01.04 1.1-.15-.24-.3-1.66.03-2.07.57-1.71.45-1.52-.24-.96.87L11-58.22l39.03 24.59" filter="url(#a)"/><path d="m33.53-66.96-13.81-9.12-6.65-2.16-3.16 1.3-2.46 2.45-2.2 2.38-1.18 1.63.2.5.99-.69.78-1.6.06-2.05-.54-2.13-.8-1.97-.86-1.7-.84-1.38-.68-1-.14-.56.89.09 2.56 1.31 5.33 3.83 9.84 8.7 15.28 16.68 15.53 25.07" filter="url(#a)"/><path d="m32.17-68.57 1.48 2.38-1.07 2.13-8.09-1.53-12.96-2.97-13.41-2.04-10.15-.57-4.9.35.63.58 5.02.45 7.26.2 7.09-.06 5.13-.21 2.47-.21-.08-.17-2.27-.38-3.79-.84-3.59-1.06-.92-.62 1.31-.12-6.04.15-29.67 7.23" filter="url(#a)"/><path d="M45.27-47.45 32.96-59.23l-13.2-4.26-13.32-.1-11-.79-5.52-2.62-.47-3.2 1.51-2.24 1.08-.81.62-.07 1.73-.35 3.81-.94 5.14-.74 4.77.89 3.19 2.89-.28 2.14-9.15-4.47-17.79-7.29" filter="url(#a)"/><path d="M43.97-50.76 18.78-71.04l-3.24-4.69 1.05.78.59 2.87-2.14 3.06-6.36 1.61-9.79-.39-10.15-1.71-7.06-2.02-2.04-1.53 2.79-.32 5.76 2.11 6.45 6.17L4.3-53.85l43.85 14.14" filter="url(#a)"/><path d="m-32.89-67.7 29.77-5.86 11.86-.39 3.6.5 3.83 3.01 4.69 4.76 2.96 4.4-.19 2.63-2.4.71-2.47-.66-.93-1.31.61-1.25.62-.78-.79-.39-1.34-.8.91-2.79 2.92-6.37 3.96-3.63" filter="url(#a)"/><path d="m-41.86-54.62 32.04-12.92 24.57 3.11 11.45 5.76-.49 2.71-7.68-1.12-9.17-3.45-6.42-3.89-1.96-2.89 1.76-1.18 3.15.34 2.15.99.42.69.12.11 1.89-.4 3.27-2.05-.01-6.84-3.32-7.73" filter="url(#a)"/><path d="m33.67-66.95-39.97.96-1.83-.19 12.87.39 14.04 2.36 9.73 2.49 4.22.25-.25-2.6-2.7-4.19-3.17-3.9-2.56-2.28-2.04-.42-2.56.69-4.22.33-4.83-.92 2.45.96 26.82 14.37" filter="url(#a)"/><path d="m40.37-57.38-7.79-1.61-12.01-7.89-6.91-3.1-5.37.07-5.27.95-3.53.85-.3.54 2.84.24 4.5.05 4.03-.09 1.42-.39-2.35-.84-5.24-1.04-4.79-.45-.26 1 5.41 2.04 5.65.08-3.94-7.19-8.01-10.93" filter="url(#a)"/><path d="M22.18-77.54 2.71-79.53l-5.2.55 2.45.25 2.87.41.55.76-1.76 1.15-2.89 1.63-2.81 2.12-2.07 2.25-1.02 1.72.52.53 2.71-.85 4.86-1.9 5.32-2.35 2.77-2.33-2.48-1.93-8.08-.81-10.99 1.25-8.02 1.94 7.98-7.79" filter="url(#a)"/><path d="m38.88-59.59-40.21-7.08-3.62-3.49 7.89-1.69 9 .62 6.69 2.19 3.12 2.01-.4.65-2.94-.63-4.34-1.19-5.09-1.1-5.41-.76-5.03-.39-3.68-.01-1.44.5 1.31 1.2 4.04 2 4.92 2.32-.4.86-13.98-3.72-15.01-7.59" filter="url(#a)"/><path d="m26.52-74.24-1.57 17.81-14.77-4.6-11.24-5.29-5.31-3.05.28-1.89 2.73-1.24 1.05-.36-2.79.48-5.32.68-4 .1 1.34-.49 8.54.08L9.64-69.6l14.4 4.69 4.71.82L9.23-83.93" filter="url(#a)"/><path d="M46.9-43.65 28.71-56.42 8.75-67.22l-9.26-3.9-.84 1.28 1.73 3.83 1.05 4.57 1.41 4.26 4.03 3.24 5.9 1.41 3.21-1.21-3.98-4.2-10.31-6.58-8.87-7.4-.7-6.43-8.05-2.94" filter="url(#a)"/><path d="m-17.17-87.53.95.29.98.43 1.01.26 1.01.08h1.03l1.03-.03 1-.04.93-.05.85.01.79.07.74.15.78.25.93.4 1.2.43 1.55.34.41 13.17.11-1.11h-.57l-.88-.4-.95-.83-.87-1.04-.81-1.11-.77-1.11-.8-1.09-.86-1.01-.94-.89-1.03-.76-1.08-.66-1.04-.5-.99-.15-1.5.44-20.23 16.89.86-1.18.65-1.3.51-1.13.54-1.05.54-1.15.48-1.36.42-1.55.39-1.66.43-1.6.52-1.4.59-1.15.61-1.04.57-1.15.47-1.46.37-1.76.35-1.76.45-1.34.61-.7.71-.45.54-1.25m-11.67 26.7.3-1.31-.15-2.32-.05-2.39.05-2.29.01-2.39-.04-2.59-.05-2.75-.04-2.82.07-2.69.27-2.28.54-1.67.79-1.09.89-.79.84-.88.69-1.27.5-1.8.35-2.33.22-2.69.17-2.66.32-2 1.02-.12M-44.62-43.5l.35-1.24.41-1.14.38-1.05.38-1.15.39-1.28.37-1.28.36-1.15.39-.97.46-.83.51-.81.49-.88.42-1.03.39-1.17.45-1.33.43-1.67" filter="url(#a)"/><path d="m-39.27-59.28-.63 1.3-.54.89-.54.86-.55.84-.53.83-.52.86-.51.93-.53 1.03-.53 1.1-.52 1.11-.5 1.08-.46 1.04-.45 1.01-.43 1-.42 1-.42 1.02-.43 1.02-.42.97-.36.82-.18.58 14.58-22.22-.86.71-.8.65-.65.61-.58.66-.58.73-.58.8-.61.81-.62.81-.6.8-.57.81-.52.82-.48.81-.49.81-.59.86-.78 1.02-.95 1.31-.83 1.48" filter="url(#a)"/><path d="m-46.24-45.08-.52-2.25.02-1.66.32-1.25.47-1.22.42-1.39.22-1.6v-1.77l-.11-1.83-.1-1.81-.01-1.76.07-1.73.12-1.73.16-1.74.19-1.73.21-1.7.22-1.7.22-1.73.24-1.78.3-1.8.4-1.77.56-1.69.74-1.62.7-1.7-.21-1.59m93.36 58.49 1.26 2.03 1.09.99.88.82.68 1 .53 1.21.44 1.33.38 1.4.3 1.39.26 1.34.26 1.3.34 1.25.49 1.25.68 1.29.87 1.31 1.04 1.26 1.12 1.13 1.04.97.76.94.28 1.23-.39 1.93-17.11-41.76 1.27 1.56.79 1.36.6 1.18.49 1.07.49.99.54.95.57.95.55.97.5 1.06.45 1.15.45 1.23.51 1.25.63 1.23.75 1.17.8 1.12.66 1.01.36.75.01.35-25.2-44.39-.03.58.54 1.05.48 1.31.35 1.42.25 1.43.24 1.39.32 1.29.41 1.15.44 1.1.36 1.2.19 1.41.01 1.61-.07 1.71-.01 1.67.1 1.66.16 1.63.05.94m-9.44-28.22-1.29-1.08-.92-.64-.85-.53-.86-.53-.88-.53-.9-.54-.91-.51-.86-.46-.8-.4-.74-.36-.71-.32-.7-.3-.71-.27-.72-.27-.73-.25-.75-.25-.79-.24-.83-.21-.89-.17-.91-.15-.87-.13-.77-.12-.63-.1-.58-.07 36.14-11.55-1.41 3.67-1.78 2.64-1.74 1.81-1.57 1.06-1.41.55-1.37.38-1.4.55-1.39.73-1.25.59-.98.06-.77-.41-.85-.19-1.22.78-1.53 1.65-1.4 1.43-.92 1.31-1.18-.81.89.46.82.22.84.32.81.46.78.47.76.38.76.27.79.23.84.24.92.25.98.21 1.04.09 1.06-.07 1.04-.19.95-.24.86-.19.87.09 1.58.9-30.42-9.8.89-2.86 1.11-4.25 1.14-2.6 1.08-.77 1.01.3.95.7.88.8.81.78.79.65.8.41.87.08.93-.25.98-.5 1-.53 1.04-.4 1.09-.18 1.16-.03 1.23.01 1.26-.02 1.23.01 1.16.15 1.17.23h1.39l1.84.58-32.1 6.88-.29-.37-.96-.32-.88-.55-.82-.72-.87-.9-.99-1.1-1.04-1.21-1.02-1.21-.97-1.08-.93-.94-.94-.8-.99-.73-1.09-.64-1.19-.56-1.26-.49-1.24-.47-1.26-.5-2.05-1.07" filter="url(#a)"/><path d="m54.09-11.59-.35-3.25-.37-3.11-.37-2.83-.4-2.59-.45-2.47-.5-2.44-.54-2.45-.57-2.44-.58-2.4-.56-2.35-.53-2.3-.52-2.27-.52-2.22-.55-2.18-.59-2.14-.64-2.09-.68-2.03-.73-1.97-.78-1.91-.83-1.86-.9-1.8-.96-1.74-1.03-1.69-1.12-1.63-1.21-1.58-1.3-1.53-1.39-1.49-1.48-1.44-1.56-1.39-1.61-1.31-1.67-1.24-1.73-1.18-1.81-1.12-1.89-1.09-1.89-.97-1.73-.8-2.02-.85m-21.97-3.05-1.71.29-1.54.34-1.69.44-1.82.52-1.88.6-1.92.67-1.94.75-2 .82-2.08.88-2.18.93-2.25.97-2.27 1.02-2.22 1.08-2.11 1.16-2.02 1.24-1.99 1.36-2.05 1.46-2.19 1.55-2.34 1.64-2.41 1.7-2.37 1.72-2.24 1.74-2.13 1.75-2.13 1.79-2.26 1.85-2.42 1.94-2.53 2.01-2.58 2.13-2.58 2.28-1.58 2.11" filter="url(#a)"/><path d="m-6.88-84.39-3.18.59-1.77.58-1.68.61-1.91.68-2.06.77-2.12.84-2.21.89-2.4.95-2.62.99-2.78 1.03-2.75 1.1-2.59 1.18-2.38 1.27-2.29 1.38-2.36 1.48-2.54 1.57-2.69 1.65-2.69 1.69-2.49 1.74-2.2 1.76-1.97 1.78-1.91 1.83-2.04 1.88-2.31 1.93-2.53 1.98-2.69 2-2.74 1.99-2.75 1.98-2.71 1.99-2.65 2.07-2.75 2.27-3.27 2.54-4.69 2.93" filter="url(#a)"/><path d="m-9.92-83.66-2.84.89-2.78.71-2.43.64-1.92.67-1.45.75-1.15.87-1.07.96-1.15 1.04-1.34 1.14-1.56 1.21-1.77 1.29-1.92 1.36-2.04 1.42-2.13 1.49-2.2 1.55-2.26 1.6-2.3 1.66-2.31 1.7-2.26 1.76-2.17 1.79-2.04 1.84-1.9 1.89-1.75 1.94-1.67 2.02-1.65 2.1-1.69 2.17-1.75 2.21-1.81 2.23-1.85 2.25-1.88 2.32-1.9 2.44-1.85 2.6-1.47 2.59-.86 2.22" filter="url(#a)"/><path d="m-11.56-82.96-1.45.34-1.68.64-1.77.78-1.86.85-1.96.91-2.1.95-2.24.98-2.29 1.02-2.21 1.08-2.11 1.15-2.04 1.25-2.11 1.37-2.27 1.47-2.44 1.58-2.56 1.64-2.57 1.7-2.48 1.73-2.36 1.74-2.22 1.75-2.13 1.79-2.1 1.85-2.12 1.93-2.28 2.01-2.52 2.07-2.63 2.06-2.25 1.84-.78 1.16" filter="url(#a)"/><path d="m-13.01-82.58-2.46.6-1.3.59-1.32.64-1.63.75-1.79.87-1.74.97-1.6 1.06-1.5 1.14-1.49 1.22-1.55 1.3-1.67 1.37-1.83 1.44-1.99 1.49-2.14 1.56-2.23 1.61-2.24 1.66-2.15 1.72-1.98 1.76-1.8 1.81-1.66 1.85-1.6 1.9-1.64 1.96-1.74 2.03-1.88 2.1-1.96 2.17-1.95 2.21-1.86 2.26-1.72 2.3-1.64 2.35-1.65 2.43-1.73 2.49-1.77 2.52-1.71 2.47-1.59 2.36-1.5 2.26-1.17 2.49" filter="url(#a)"/><path d="m-17.59-80.42-1.89 1.12-1.65 1.11-1.5 1.06-1.42 1.11-1.35 1.21-1.26 1.29-1.21 1.37-1.19 1.43-1.21 1.48-1.23 1.53-1.21 1.58-1.16 1.64-1.1 1.7-1.03 1.74-1 1.78-.98 1.79-.95 1.82-.87 1.87-.79 1.97-.71 2.1-.69 2.23-.71 2.35-.75 2.37-.53 2.16m24.21-38.6-1.71.88-2.08.97-2.29 1.02-2.54 1.06-2.94 1.16-3.27 1.28-3.24 1.41-2.84 1.53-2.27 1.62-1.83 1.69-1.68 1.72-1.83 1.75-2.14 1.76-2.51 1.79-2.82 1.83-3.07 1.88-3.26 1.93-3.33 1.97-3.21 1.99-2.88 2-2.4 2.01-2.05 2.05-2.09 2.13-2.64 2.23-3.42 2.34-3.82 2.39-3.31 2.37-2.21 2.34-3 2.38" filter="url(#a)"/><path d="m-20-79.38-2.94 1.28-1.1 1.03-1.31 1.09-1.9 1.22-2.21 1.31-2.2 1.39-2.05 1.45-1.9 1.49-1.87 1.55-1.91 1.6-1.95 1.66-1.92 1.71-1.78 1.75-1.56 1.79-1.35 1.83-1.23 1.86-1.24 1.93-1.44 2.01-1.77 2.09-2.16 2.17-2.49 2.21-2.67 2.21-2.6 2.2-2.33 2.26-1.97 2.45-1.74 2.73-2.07 2.83" filter="url(#a)"/><path d="m-21.87-77.68-1.17.68-1.5 1.03-1.61 1.24-1.65 1.34-1.73 1.42-1.81 1.47-1.85 1.51-1.84 1.57-1.78 1.62-1.72 1.68-1.67 1.73-1.61 1.78-1.59 1.81-1.58 1.86-1.61 1.91-1.67 1.97-1.7 2.04-1.69 2.11-1.6 2.17-1.47 2.23-1.33 2.26-1.25 2.31-1.24 2.36-1.27 2.41-1.32 2.46-1.35 2.48-1.33 2.47-1.26 2.46-1.16 2.48-1.13 2.53-1.2 2.58-1.29 2.34-1.19 1.31" filter="url(#a)"/><path d="m-25.7-74.89-1.47.66-2.59 1.33-2 1.52-1.38 1.62-1.22 1.71-1.39 1.74-1.61 1.77-1.74 1.77-1.78 1.79-1.79 1.82-1.81 1.86-1.86 1.91-1.95 1.96-2.02 1.99-2.06 2.02-2.02 2.05-1.96 2.08-1.89 2.13-1.86 2.19-1.91 2.25-2.01 2.3-2.1 2.34-2.08 2.37-1.95 2.41-1.73 2.45-1.49 2.49-1.32 2.52-1.19 2.55-1.1 2.54-.98 2.51-.88 2.49-.86 2.48-.9 2.53-1.04 2.58-1.29 2.56-1.63 2.51-1.33 2.91" filter="url(#a)"/><path d="m-32.79-67.81-1.04.66-2.58 1.53-3.58 1.72-3.92 1.79-3.61 1.82-3.13 1.85-2.77 1.86-2.5 1.91-2.2 1.98-1.85 2.07-1.58 2.15-1.46 2.2-1.5 2.25-1.66 2.29-1.92 2.33-2.29 2.37-2.83 2.42-3.45 2.45-4.05 2.46-4.37 2.47-4.26 2.46-3.64 2.45-2.68 2.42-1.63 2.38-.91 2.33-.84 2.29-1.52 2.28-2.67 2.33-3.73 2.4-4.2 2.51-3.97 2.59-3.16 2.64-1.66 2.44m85.57-70.17-1.28 1.66-1.32 1.75-1.21 1.7-1.17 1.74-1.19 1.83-1.21 1.92-1.19 1.98-1.16 2.01-1.11 2.01-1.05 2.03-1.01 2.04-.97 2.11-.93 2.17-.89 2.24-.83 2.3-.8 2.33-.76 2.35-.73 2.38-.74 2.42-.74 2.47-.75 2.53-.74 2.58-.7 2.56-.57 2.45-.4 2.35-.26 2.34-.26 2.71-.25 3.85" filter="url(#a)"/><path d="m-35.19-65.1-1.27 1.4-1.47 1.67-1.96 1.82-2.68 1.85-3.21 1.85-3.22 1.88-2.77 1.97-2.15 2.07-1.66 2.15-1.49 2.21-1.62 2.25-1.94 2.28-2.36 2.33-2.77 2.37-3.08 2.41-3.19 2.45-3.07 2.47-2.83 2.46-2.57 2.46-2.43 2.44-2.4 2.42-2.35 2.38-2.1 2.32-1.57 2.26-.97 2.25-.66 2.3-.88 2.4-1.64 2.51-2.88 2.63-4.48 2.92m67.46-66.54-1.61 2.09-1.32 1.69-1.29 1.71-1.26 1.83-1.2 1.95-1.16 2-1.17 2.02-1.23 2.03-1.31 2.03-1.4 2.06-1.45 2.12-1.44 2.19-1.37 2.25-1.28 2.31-1.15 2.34-1.03 2.38-.9 2.4-.79 2.44-.71 2.48-.65 2.52-.65 2.54-.7 2.52-.77 2.5-.84 2.48-.87 2.48-.82 2.51-.67 2.57-.51 2.6-.4 2.66-.56 2.91-.83 3.39m119.5-29.76-.78-2.13-1.2-2.82-.97-2.64-.72-2.36-.68-2.24-.78-2.23-.88-2.26-.97-2.24-1.08-2.21-1.22-2.15-1.34-2.11-1.4-2.09-1.41-2.06-1.41-2.04-1.42-2.03-1.43-2.01-1.41-1.99-1.31-1.93-1.16-1.85-1.04-1.77-1.02-1.67-1.1-1.53-1.21-1.28-1.38-1.18" filter="url(#a)"/><path d="m-49.45-36.35-1 2.91-.84 2.59-.86 2.42-.91 2.38-.91 2.38-.84 2.41-.78 2.39-.76 2.34-.8 2.29-.86 2.27-.93 2.29-.95 2.37-.96 2.49-.92 2.62-.88 2.76-.81 2.88-.68 2.97-.49 2.91-.3 2.72-.21 2.42-.31 2.13-.45 2.05-.3 2.12-.25 2.06" filter="url(#a)"/><path d="m-51.14-30.21-.54 2.25-.59 2.32-.74 2.53-.92 2.64-1.05 2.61-1.1 2.5-1.05 2.44-.93 2.41-.75 2.45-.54 2.5-.31 2.54-.11 2.55-.06 2.55-.16 2.54-.41 2.55-.66 2.58-.73 2.61-.53 2.59-.11 2.51.36 2.46.6 2.67.3 3.06M51.75-27.14l.38-1.33.92-2.43.15-2.59-.67-2.44-.8-2.31-.34-2.24.43-2.21 1.22-2.19 1.83-2.17 2.08-2.13 1.95-2.08 1.53-2.01 1.04-1.94.65-1.89.42-1.83.28-1.78.08-1.74-.27-1.68-.7-1.61-1.14-1.55-1.53-1.51-1.8-1.49-1.89-1.48-1.66-1.46-1.08-1.36-.32-1.14.62-.82" filter="url(#a)"/><path d="m48.82-37.89 5.28-2.75 4.72-2.43 2.55-2.27.86-2.2-.15-2.13-.85-2.06-1.39-1.99-1.76-1.92-1.9-1.86-1.86-1.81-1.74-1.76L51-62.78l-1.39-1.66-1.15-1.6-.92-1.54-.74-1.5-.67-1.47-.76-1.41-.93-1.37-1.18-1.29-1.42-1.22-1.67-1.15-1.97-1.1-2.27-1.04-2.41-.93-2.14-.78-1.44-.61-.39-.36" filter="url(#a)"/><path d="m47.79-40.85 1.98-2.43.97-2.16-.86-2.15-1.1-2.12-.76-2.05-.57-1.97-.51-1.9-.43-1.85-.25-1.79-.16-1.75-.26-1.71-.56-1.65-.91-1.59-1.2-1.53-1.34-1.49-1.34-1.46-1.2-1.45-1-1.39-.79-1.3-.64-1.16-.63-1.07-.96-1.11-2.07-1.4" filter="url(#a)"/><path d="m43.43-51.13.43-1.31.05-1.79-.11-1.88-.41-1.84-.65-1.78-.65-1.75-.47-1.7-.29-1.65-.35-1.58-.68-1.53-1.17-1.48-1.67-1.44-2.02-1.39-2.18-1.33-2.12-1.26-1.95-1.19-1.74-1.12-1.55-1.04-1.4-.96-1.31-.87-1.31-.79-1.4-.72-1.59-.66-1.85-.6-2.09-.55-2.27-.49-2.34-.42-2.32-.33-2.28-.24-2.34-.16-2.82-.1-4.62-.04" filter="url(#a)"/><path d="m35.11-65.41-.2-1.49-1.6-1.47-1.7-1.48-1.53-1.47-1.29-1.42-1.12-1.32-1.08-1.23-1.18-1.15-1.36-1.07-1.53-.99-1.64-.92-1.66-.83-1.66-.76-1.65-.68-1.67-.62-1.71-.55-1.77-.5-1.81-.42-1.85-.35-1.88-.27-1.92-.18-1.97-.09H-.7l-2.13.08-2.21.17-2.3.25-2.38.33-2.45.39-2.49.47-2.52.52-2.48.57-2.4.6-2.28.66-2.22.74-2.26.88-2.49 1.03-2.64.89" filter="url(#a)"/><path d="m31.5-69.53 1.62-1.35-1.9-1.27-2.13-1.21-1.82-1.19-1.63-1.18-1.58-1.17-1.58-1.1-1.55-1.03-1.51-.93-1.47-.84-1.49-.76-1.56-.69-1.66-.6-1.75-.52-1.81-.44-1.84-.37-1.85-.29-1.86-.22-1.88-.14-1.93-.08-2.01.01-2.11.08-2.22.16-2.3.23-2.38.32-2.68.46-3.64.69" filter="url(#a)"/><path d="m31.09-69.75-1.62-1.66-1.65-1.56-1.53-1.34-1.45-1.19-1.44-1.11-1.45-1.05-1.44-.99-1.44-.9-1.45-.82-1.49-.74-1.55-.67-1.61-.6-1.66-.55-1.68-.48-1.69-.42-1.7-.34-1.7-.25-1.72-.17-1.74-.08-1.79.01-1.82.09-1.86.18-1.89.26-1.91.33-1.92.41-1.9.47-1.87.52-1.81.58-1.74.62-1.67.68-1.63.76-1.65.84-1.7.93-1.79.98-2.02 1.1-2.75 1.68" filter="url(#a)"/><path d="m22.18-77.54 6.5-1.01-1.08-.96-2.77-.83-2.89-.76-2.62-.71-2.29-.66-2.1-.57-2.07-.49-2.14-.4-2.21-.33-2.24-.26-2.22-.19-2.2-.13-2.22-.04-2.3.03-2.43.11-2.6.18-2.82.26-3.08.33-3.42.41-3.81.47-4.18.54-4.35.62-3.72.64" filter="url(#a)"/><path d="m20.89-78.42.2-1.2-1.25-.79-1.91-.74-2.04-.71-1.99-.65-1.87-.57-1.77-.48-1.7-.4-1.69-.32-1.69-.26-1.71-.19-1.74-.12-1.77-.04-1.8.03-1.86.11-1.91.19-1.97.26-2.04.33-2.13.41-2.25.48-2.36.54-2.39.61-2.15.64" filter="url(#a)"/><path d="m19.59-79.33.16-.91-1.48-.6-1.49-.58-1.39-.58-1.48-.58-1.65-.54-1.79-.48-1.85-.41-1.88-.31-1.9-.23-1.95-.14-2.02-.05-2.09.04-2.16.13-2.25.2-2.32.29-2.39.35-2.47.42-2.52.49-2.54.54-2.54.59-2.49.65-2.43.71-2.4.78-2.44.86-2.55.95-2.77 1.03-3.03 1.11-3.26 1.2-3.34 1.3-3.34 1.41-3.63 1.65-4.71 2.23" filter="url(#a)"/><path d="m18.2-80.23-.77-.31-1.38-.67-1.6-.72-1.66-.66-1.65-.56-1.64-.47L7.87-84l-1.64-.3-1.63-.24-1.64-.16-1.64-.08H-.35l-1.69.07-1.72.15-1.76.23-1.8.31-1.84.39-1.86.46-1.88.54-1.89.62-1.87.69-1.85.77-1.82.83-1.8.88-1.78.94-1.75.99-1.71 1.04-1.69 1.09-1.65 1.18-1.65 1.29-1.7 1.41-1.79 1.55-1.92 1.67-2.04 1.78-2.09 1.89-2.29 2.19" filter="url(#a)"/><path d="m14.5-81.81-1.74-.81-1.91-.65-1.83-.52-1.7-.39-1.6-.29-1.59-.2-1.63-.11-1.71-.03-1.81.07-1.9.15-1.95.23-1.99.31-2.01.37-2.03.45-2.04.5-2.06.56-2.09.62-2.13.67-2.16.74-2.18.82-2.19.89-2.18.98-2.17 1.06-2.15 1.14-2.11 1.23-2.07 1.3-1.99 1.38-1.95 1.45-1.98 1.49-2.11 1.55-2.34 1.6-2.53 1.67-2.52 1.76-2.29 1.95-2.33 2.52" filter="url(#a)"/><path d="m7.06-84.32-1.54-.3-1.65-.2-1.67-.11-1.8-.01-1.93.09-2 .17-2.07.26-2.16.32-2.28.39-2.41.46-2.55.51-2.68.57-2.79.62-2.87.68-2.94.74-2.98.82-3.03.9-3.08.98-3.17 1.06-3.26 1.15-3.38 1.23-3.51 1.31-3.62 1.38-3.68 1.44-3.68 1.49-3.79 1.55-4.32 1.6-5.37 1.66-6.4 1.75-5.95 1.95-3 2.51" filter="url(#a)"/></g><path fill="none" stroke="#000" stroke-linejoin="round" stroke-width="3" d="M-8.12 22.44Q8.98 25.95.43-5.202" filter="url(#a)"/><path fill="#78CC66" stroke="#000" stroke-linejoin="round" stroke-width="3" d="m-32.79 36.83.67 1.65.68 1.61.68 1.58.68 1.53.69 1.49.68 1.45.69 1.41.7 1.37.69 1.34.7 1.29.7 1.26.7 1.22.7 1.18.71 1.14.71 1.11.71 1.07.71 1.03.71 1 .72.96.71.93.72.89.72.86.72.82.72.78.72.75.72.72.73.69.72.65.73.61.73.59.72.55.73.52.73.49.73.46.72.42.73.4.73.36.73.33.73.31.73.27.73.24.73.22.72.18.73.16.73.13.72.1.73.07.72.05.73.01.72-.01.72-.03.72-.07.72-.09.72-.11.72-.14.71-.17.72-.19.71-.21.71-.24.71-.27.7-.29.71-.31.7-.33.7-.36.7-.38.7-.4.69-.43.69-.44.69-.47.69-.49.68-.51.68-.53.68-.55.67-.58.68-.59.67-.61.66-.63.66-.65.66-.66.66-.69.65-.7.65-.73.64-.74.65-.75.63-.78.64-.79.63-.8.62-.82.62-.84.62-.86.61-.86.61-.89.61-.9.59-.91.6-.93.59-.94.58-.95.58-.97.58-.98-.68.53-.68.51-.69.51-.68.5-.68.49-.68.49-.69.47-.68.47-.68.46-.68.45-.69.44-.68.43-.68.43-.68.41-.69.4-.68.4-.68.38-.68.38-.69.36-.68.35-.68.34-.68.34-.69.32-.68.31-.68.29-.68.29-.68.28-.69.26-.68.25-.68.24-.68.23-.69.21-.68.2-.68.19-.68.18-.69.16-.68.15-.68.13-.68.13-.69.1-.68.1-.68.08-.68.06-.69.06-.68.03-.68.02-.68.01-.69-.01-.68-.02-.68-.04-.68-.06-.68-.07-.69-.08-.68-.11-.68-.11-.68-.14-.69-.15-.68-.17-.68-.19-.68-.2-.69-.22-.68-.24-.68-.26-.68-.27-.69-.29-.68-.31-.68-.33-.68-.35-.69-.36-.68-.39-.68-.4-.68-.42-.69-.44-.68-.46-.68-.48-.68-.51-.68-.52-.69-.54-.68-.56-.68-.58-.68-.6-.69-.63-.68-.64-.68-.67-.68-.68-.69-.71-.68-.73-.68-.75-.68-.78-.69-.79-.68-.82-.68-.84-.68-.87-.69-.88-.68-.91-.68-.94-.68-.95-.69-.98-.68-1.01" filter="url(#a)"/></svg>