<svg xmlns="http://www.w3.org/2000/svg" width="500" height="500" viewBox="-100 -100 200 200"><defs><clipPath id="c"><path d="m22.53-1.91-.12-.41-.16-.38-.18-.36-.22-.34-.24-.32-.27-.3-.3-.28-.33-.26-.35-.25-.38-.23-.4-.21-.42-.2-.45-.19-.47-.17-.5-.16-.49-.15-.54-.15-.56-.13-.59-.12-.63-.11-.65-.1-.68-.1-.71-.08-.73-.08-.76-.08-.78-.06-.79-.06-.82-.06-.83-.05-.84-.04-.86-.04-.86-.03-.88-.03-.88-.03-.88-.02-.89-.02-.89-.01-.89-.01-.89-.01-.89-.01h-2.61l-.85.01-.84.01-.82.01-.82.01-.79.02-.78.01-.77.02-.74.02-.73.02-.7.03-.69.02-.66.03-.65.03-.62.03-.6.04-.57.03-.56.04-.53.04-.51.04-.49.04-.47.04-.45.05-.42.04-.41.05-.39.05-.37.05-.35.05-.33.05-.31.06-.29.06-.27.06-.26.06-.23.06-.22.06-.2.07-.18.07 2.07 2.22.29.2.31.21.32.22.34.22.36.23.37.23.39.24.41.25.42.25.44.26.45.27.46.27.49.28.49.29.52.29.52.3.55.31.56.31.58.32.6.32.61.33.63.33.64.34.65.34.67.35.68.35.69.35.7.35.71.34.72.35.73.34.74.34.75.33.75.33.75.31.76.31.77.29.76.28.77.27.76.24.76.23.77.21.75.19.76.17.75.14.74.11.74.09.73.06.71.02h.71l.7-.04.69-.06.67-.11.66-.14.65-.17.63-.22.61-.24.6-.29.58-.32.56-.36.55-.39.52-.42.51-.46.49-.49.44-.29.42-.3.41-.32.4-.33.37-.34.36-.36.34-.36.32-.37.3-.38.28-.39.26-.39.24-.39.21-.39.19-.39.17-.39"/></clipPath><clipPath id="b"><path d="m-17.69-.07-.08-.37-.05-.36-.01-.33.03-.31.06-.29.09-.28.13-.25.15-.24.19-.23.21-.21.25-.2.27-.18.3-.17.32-.16.35-.15.36-.14.39-.13.42-.12.45-.11.49-.11.52-.09.55-.09.57-.08.61-.08.63-.07.65-.06.68-.05.7-.05.72-.05.74-.04.76-.04.77-.03.79-.03.79-.02.81-.02.82-.02.82-.01.83-.02h.83l.84-.01h3.32l.82.01.81.01.81.01.79.01.78.01.77.02.75.02.74.02.73.02.7.02.69.02.67.03.65.02.63.03.62.03.58.03.57.03.55.03.52.04.51.03.48.04.46.03.44.04.42.04.4.04.38.04.36.05.34.04.32.05.3.04.27.05.26.05.24.05.21.05.19.06-2.5 1.62-.34.15-.36.15-.37.15-.39.16-.41.16-.42.16-.44.17-.45.18-.46.18-.48.18-.49.18-.51.19-.51.2-.53.2-.54.2-.55.2-.57.21-.58.22-.59.21-.6.22-.61.23-.62.23-.63.22-.64.24-.63.23-.65.23-.64.24-.65.23-.65.23-.65.23-.65.23-.65.22-.65.22-.64.21-.64.21-.63.2-.63.19-.63.18-.62.17-.61.16-.61.14-.6.14-.59.11-.59.1-.58.09-.57.07-.56.04-.56.03-.55.01-.54-.01-.53-.04-.53-.05-.52-.08-.51-.11-.51-.12-.5-.15-.5-.18-.49-.2-.48-.22-.48-.24-.47-.27-.47-.29-.46-.32-.46-.33-.36-.2-.35-.21-.35-.22-.33-.23-.32-.24-.31-.24-.29-.25-.28-.26-.27-.26-.25-.26-.24-.27-.22-.27-.2-.27-.18-.27-.16-.27"/></clipPath><filter id="a"><feTurbulence baseFrequency=".05" numOctaves="3" result="noise" type="noise"/><feDisplacementMap in="SourceGraphic" in2="noise" scale="2"/></filter></defs><rect width="100%" height="100%" x="-100" y="-100" fill="#B1F2A6"/><path fill="#C220DF" stroke="#000" stroke-linejoin="round" stroke-width="1.667" d="m62.77 1.25-.2-.77.14 1.45-.17.08-.2 3.76.33-1.68-.15 1.82-.25.55-.47 4.92-.01.7-.11.05.27-.19-.41 3.38-.5 1 .11-.26.07.36-.65 2.42-.14.7-.32 2.16.14-.79-.77 3.17.22-.72-1.03 2.87-.24 1.54-.44.48.07.48-.13.48-.52 1.11-.68 1.95-.53.94-.31.64-.92 2.03-.06.17-.7 1.62-.76 1.73-.49.99.28-.38-.37.79-.98 1.57-.48.8-.7 1.06.24-.39-.89 1.16-.34.9-1.75 2.48-.54 1.17-1.06 1.34-.24.36-1.48 1.58-.58.82.71-.81-2.3 2.62-.06.03.62-.48-1.65 1.86-.69.64-1.26 1.3-.14.07-1.35 1.41-.54.48.4-.57-2.17 1.92.94-.82-1.68 1.35-1.59 1.34-.32.28-.48.21-2.73 1.91.38-.4-1.81 1.18.17.06.02.04-.98.63-2.15.99-.72.7-.5.03-.31.24L21.55 71l.1.06-1.1.1-1.53.59-1.16.59 1.09-.48-2.39.96-.8.27-1.86.65.03-.15-1.67.4.18-.11-3.13.64.21-.01-.36.25-1.47.06-.25.29-2.64.35-.81-.21-1.49.16 2.05-.01-2.06.03-1.88.03-1.11.13.8-.09-3.19-.04-.89-.08.23-.18-2.1-.05-.13.02-2.43-.47.53.14-2.26-.24 1.75.3-1.65-.51-2.78-.47 1.01.18-2.97-.73 1.59.36-2.36-.71-1.28-.39-.98-.25-1.42-.22-.32-.4-.63-.36-1.1-.25-1.79-.76.07-.17-.88-.56-1.21-.26-1.8-1.22-.34-.06.19.19-1.03-.55-.77-.75-2.78-1.61-.19-.01-.51-.48-.22-.17-1.92-1.69-.13.02-1.51-1.21-.13-.18-1.83-1.52-.26-.27.27.28-2.16-2.06.23.05-1.73-1.58-.11-.39-.45-.47-.72-.57-.75-.96-.56-.61-.94-1.11-.22-.06-.89-1.33-.13-.43-1.9-2.38.58.59-.76-.7-.57-.57-.7-1.31-.84-1.77-1.22-1.8-.99-1.39-.1-.37-.65-1.4.04.2-.24-.53-.48-1.59-.55-1-.13.49-1.4-3.6.43.66-1.44-3.03.05-.56-.5-.48-.48-1.62-.53-1.52-.36-1.18-.3-1.33.31.69-.03-.14-.91-2.62.07.02-.64-2.59-.24-2.09.17 1.62-.72-3.18-.16-2.21-.24-.14-.03-.82-.05-1.64-.33-1.65-.02-1.22-.21-.56-.03-1.22-.15-1.77.15-.18-.3-1.05-.08-1.39.11-.73-.1-.96-.01-3.46.16.66.04-1.02.14-1.58-.14-.9.13-1.92.1-1.49.44-1.9-.19.05.37-1.79.13-.93.05-1.3.03-.08.52-2.13.16-.56.25-.89.41-2.41-.24 1.35.29-1.31.25-1.6.25-1.25 1.1-3.26-.37 1.59 1.01-2.8.27-1.08.48-1.75.25-.59-.24.68 1.47-3.19-.69 1.41 1.01-2.94.77-1.53.46-.73.58-.94-.33.34.9-1.93 1.34-2.53.66-.65-.29.58.38-1.07 1.49-2.18-1.15 1.85.78-1.49 2.28-3.4-.19.51-.21.29 1.9-2.73 1.15-1.46.22-.04-.55.67 1.6-1.76-.15-.28 1.39-1.23.86-1.18.88-.82.49-.32 1.9-1.81-.99.93 1.7-1.64 1.26-1.27.37-.16-.5.38 1.87-1.48.17-.14.76-.69.81-.58 2.35-1.5 1.06-.65.35-.33-.52.18 2.26-1.38.5-.1.53-.46 1.83-1.01 1.71-.61-.09-.28 1.58-.59 1.07-.33 1.31-.72-1.56.58 1.54-.3 2.02-.77.62-.23.34-.1 1.16-.37 1.61-.67-.56.22 2.44-.59-.69.32 1.67-.27.27-.09 1.42-.35 1.65-.15.37-.06 1.9-.28.35-.07 2.19-.18-.3.07 2.13.08.85-.15.27.08 1.38.09 1.79.12-.75-.12 1.6-.01h-.1l1.87.27 1.83.44.37-.18 2.26.57.2.02-1.11-.11 1.39-.04 1.52.54 1.97.69-.53-.41 1.27.43 1.64.64.54-.04 1.43.98 1.96.64-.24-.17.68.22.99.54 2.39 1.28-.55-.37 1.44.65.44.41 1 .58.23.22 2.85 1.82-.13-.03.83.51-.39-.56.95.88 1.42 1.14 1.12.77 1.85 1.49.33.11.23.19.02.24 1.1.84 2.03 1.79-.91-.39 1.21 1.07 1.19 1.34 1.84 1.74-1.39-1.47 2.52 2.82.08.21.44.53 1.36 1.59-.01-.14.01.34 1.27 1.73.06-.17 1.83 2.9.5.52.15.53.08.15 2.05 3.05-.14-.26-.16.14.22.54.2.45 1.68 3.29-.08-.48 1.09 2.34-.24-.31.37.83 1 2.3.6 1.71.61.93-.36-.67.9 2.15.51 1.78.36 1.32.45 1.47-.2-.78.3 1.76-.18-.9 1.1 4.04-.01.44.15.69.47 2.16.08-.31.25 1.52-.21-.14.59 3.57.22.68.14 1.89.02-.02.25 2.75.2.48.02 1.58.02-.84-.06 2.29.16 1.07.16 1.52-.03 2.16-.2-.77" filter="url(#a)"/><path fill="#fff" d="m-17.69-.07-.08-.37-.05-.36-.01-.33.03-.31.06-.29.09-.28.13-.25.15-.24.19-.23.21-.21.25-.2.27-.18.3-.17.32-.16.35-.15.36-.14.39-.13.42-.12.45-.11.49-.11.52-.09.55-.09.57-.08.61-.08.63-.07.65-.06.68-.05.7-.05.72-.05.74-.04.76-.04.77-.03.79-.03.79-.02.81-.02.82-.02.82-.01.83-.02h.83l.84-.01h3.32l.82.01.81.01.81.01.79.01.78.01.77.02.75.02.74.02.73.02.7.02.69.02.67.03.65.02.63.03.62.03.58.03.57.03.55.03.52.04.51.03.48.04.46.03.44.04.42.04.4.04.38.04.36.05.34.04.32.05.3.04.27.05.26.05.24.05.21.05.19.06-2.5 1.62-.34.15-.36.15-.37.15-.39.16-.41.16-.42.16-.44.17-.45.18-.46.18-.48.18-.49.18-.51.19-.51.2-.53.2-.54.2-.55.2-.57.21-.58.22-.59.21-.6.22-.61.23-.62.23-.63.22-.64.24-.63.23-.65.23-.64.24-.65.23-.65.23-.65.23-.65.23-.65.22-.65.22-.64.21-.64.21-.63.2-.63.19-.63.18-.62.17-.61.16-.61.14-.6.14-.59.11-.59.1-.58.09-.57.07-.56.04-.56.03-.55.01-.54-.01-.53-.04-.53-.05-.52-.08-.51-.11-.51-.12-.5-.15-.5-.18-.49-.2-.48-.22-.48-.24-.47-.27-.47-.29-.46-.32-.46-.33-.36-.2-.35-.21-.35-.22-.33-.23-.32-.24-.31-.24-.29-.25-.28-.26-.27-.26-.25-.26-.24-.27-.22-.27-.2-.27-.18-.27-.16-.27" filter="url(#a)" transform="translate(42.74 -25.23)"/><path fill="#fff" d="m22.53-1.91-.12-.41-.16-.38-.18-.36-.22-.34-.24-.32-.27-.3-.3-.28-.33-.26-.35-.25-.38-.23-.4-.21-.42-.2-.45-.19-.47-.17-.5-.16-.49-.15-.54-.15-.56-.13-.59-.12-.63-.11-.65-.1-.68-.1-.71-.08-.73-.08-.76-.08-.78-.06-.79-.06-.82-.06-.83-.05-.84-.04-.86-.04-.86-.03-.88-.03-.88-.03-.88-.02-.89-.02-.89-.01-.89-.01-.89-.01-.89-.01h-2.61l-.85.01-.84.01-.82.01-.82.01-.79.02-.78.01-.77.02-.74.02-.73.02-.7.03-.69.02-.66.03-.65.03-.62.03-.6.04-.57.03-.56.04-.53.04-.51.04-.49.04-.47.04-.45.05-.42.04-.41.05-.39.05-.37.05-.35.05-.33.05-.31.06-.29.06-.27.06-.26.06-.23.06-.22.06-.2.07-.18.07 2.07 2.22.29.2.31.21.32.22.34.22.36.23.37.23.39.24.41.25.42.25.44.26.45.27.46.27.49.28.49.29.52.29.52.3.55.31.56.31.58.32.6.32.61.33.63.33.64.34.65.34.67.35.68.35.69.35.7.35.71.34.72.35.73.34.74.34.75.33.75.33.75.31.76.31.77.29.76.28.77.27.76.24.76.23.77.21.75.19.76.17.75.14.74.11.74.09.73.06.71.02h.71l.7-.04.69-.06.67-.11.66-.14.65-.17.63-.22.61-.24.6-.29.58-.32.56-.36.55-.39.52-.42.51-.46.49-.49.44-.29.42-.3.41-.32.4-.33.37-.34.36-.36.34-.36.32-.37.3-.38.28-.39.26-.39.24-.39.21-.39.19-.39.17-.39" filter="url(#a)" transform="translate(-33.4 -24.11)"/><g fill="none" stroke="#000" transform="translate(42.74 -25.23)"><path stroke-linejoin="round" stroke-width="1.667" d="m-14.7 5.09-.49-.65-.45-.62-.4-.59-.36-.55-.32-.53-.27-.49-.23-.47-.2-.45-.16-.42-.11-.39-.08-.37-.05-.36-.01-.33.03-.31.06-.29.09-.28.13-.25.15-.24.19-.23.21-.21.25-.2.27-.18.3-.17.32-.16.35-.15.36-.14.39-.13.42-.12.45-.11.49-.11.52-.09.55-.09.57-.08.61-.08.63-.07.65-.06.68-.05.7-.05.72-.05.74-.04.76-.04.77-.03.79-.03.79-.02.81-.02.82-.02.82-.01.83-.02h.83l.84-.01h3.32l.82.01.81.01.81.01.79.01.78.01.77.02.75.02.74.02.73.02.7.02.69.02.67.03.65.02.63.03.62.03.58.03.57.03.55.03.52.04.51.03.48.04.46.03.44.04.42.04.4.04.38.04.36.05.34.04.32.05.3.04.27.05.26.05.24.05.21.05.19.06.18.05.15.05.14.06.11.06.09.05.08.06.06.06.04.06.02.07v.06" filter="url(#a)"/><path stroke-linejoin="round" stroke-width="2.222" d="m-18.57-2.34-.13.15-.1.17-.06.19-.02.2v.22l.04.23.06.24.09.25.11.26.14.26.16.27.18.27.2.27.22.27.24.27.25.26.27.26.28.26.29.25.31.24.32.24.33.23.35.22.35.21.36.2.46.33.46.32.47.29.47.27.48.24.48.22.49.2.5.18.5.15.51.12.51.11.52.08.53.05.53.04.54.01.55-.01.56-.03.56-.04.57-.07.58-.09.59-.1.59-.11.6-.14.61-.14.61-.16.62-.17.63-.18.63-.19.63-.2.64-.21.64-.21.65-.22.65-.22.65-.23.65-.23.65-.23.65-.23.64-.24.65-.23.63-.23.64-.24.63-.22.62-.23.61-.23.6-.22.59-.21.58-.22.57-.21.55-.2.54-.2.53-.2.51-.2.51-.19.49-.18.48-.18.46-.18.45-.18.44-.17.42-.16.41-.16.39-.16.37-.15.36-.15.34-.15.32-.14.31-.13.28-.14.27-.12.26-.13.23-.12.22-.12.2-.11.19-.12.17-.1" filter="url(#a)"/><circle cx="9.402" cy="-1.092" r="3.25" clip-path="url(#b)" filter="url(#a)"/><circle cx="4.752" cy="-4.972" r="3.498" clip-path="url(#b)" filter="url(#a)"/><circle cx="8.632" cy="-4.342" r="4.014" clip-path="url(#b)" filter="url(#a)"/><circle cx="5.527" cy="-3.532" r="3.994" clip-path="url(#b)" filter="url(#a)"/><circle cx="5.112" cy="-3.287" r="4.93" clip-path="url(#b)" filter="url(#a)"/><circle cx="7.732" cy="-3.632" r="4.98" clip-path="url(#b)" filter="url(#a)"/><circle cx="7.577" cy="-4.847" r="4.836" clip-path="url(#b)" filter="url(#a)"/><circle cx="8.842" cy="-5.037" r="3.276" clip-path="url(#b)" filter="url(#a)"/><circle cx="8.922" cy="-1.417" r="3.442" clip-path="url(#b)" filter="url(#a)"/><circle cx="8.967" cy="-2.842" r="3.066" clip-path="url(#b)" filter="url(#a)"/></g><g fill="none" stroke="#000" transform="translate(-33.4 -24.11)"><path stroke-linejoin="round" stroke-width="2.222" d="m22.01 3.74.2-.72.17-.67.14-.64.1-.61.07-.58.03-.54v-.52l-.03-.48-.06-.46-.1-.43-.12-.41-.16-.38-.18-.36-.22-.34-.24-.32-.27-.3-.3-.28-.33-.26-.35-.25-.38-.23-.4-.21-.42-.2-.45-.19-.47-.17-.5-.16-.49-.15-.54-.15-.56-.13-.59-.12-.63-.11-.65-.1-.68-.1-.71-.08-.73-.08-.76-.08-.78-.06-.79-.06-.82-.06-.83-.05-.84-.04-.86-.04-.86-.03-.88-.03-.88-.03-.88-.02-.89-.02-.89-.01-.89-.01-.89-.01-.89-.01h-2.61l-.85.01-.84.01-.82.01-.82.01-.79.02-.78.01-.77.02-.74.02-.73.02-.7.03-.69.02-.66.03-.65.03-.62.03-.6.04-.57.03-.56.04-.53.04-.51.04-.49.04-.47.04-.45.05-.42.04-.41.05-.39.05-.37.05-.35.05-.33.05-.31.06-.29.06-.27.06-.26.06-.23.06-.22.06-.2.07-.18.07-.17.07-.14.07-.13.07-.12.07-.09.08-.08.07-.07.08-.05.08-.04.08-.02.08" filter="url(#a)"/><path stroke-linejoin="round" stroke-width="2.222" d="m22.9-3.19.13.2.09.23.06.27.03.29v.31l-.03.33-.06.35-.09.36-.11.38-.14.38-.17.39-.19.39-.21.39-.24.39-.26.39-.28.39-.3.38-.32.37-.34.36-.36.36-.37.34-.4.33-.41.32-.42.3-.44.29-.49.49-.51.46-.52.42-.55.39-.56.36-.58.32-.6.29-.61.24-.63.22-.65.17-.66.14-.67.11-.69.06-.7.04h-.71l-.71-.02-.73-.06-.74-.09-.74-.11-.75-.14-.76-.17-.75-.19-.77-.21-.76-.23-.76-.24-.77-.27L-.06 7l-.77-.29-.76-.31-.75-.31-.75-.33-.75-.33-.74-.34-.73-.34-.72-.35-.71-.34-.7-.35-.69-.35-.68-.35-.67-.35-.65-.34-.64-.34-.63-.33-.61-.33-.6-.32-.58-.32-.56-.31-.55-.31-.52-.3-.52-.29-.49-.29-.49-.28-.46-.27-.45-.27-.44-.26-.42-.25-.41-.25-.39-.24-.37-.23-.36-.23-.34-.22-.32-.22-.31-.21-.29-.2-.27-.2-.26-.19-.25-.18-.22-.18-.21-.17-.2-.17-.18-.16-.17-.16-.15-.15-.13-.15" filter="url(#a)"/><circle cx="-10.5" cy="-3.423" r="4.44" clip-path="url(#c)" filter="url(#a)"/><circle cx="-9.35" cy="-2.278" r="4.696" clip-path="url(#c)" filter="url(#a)"/><circle cx="-9.815" cy="-4.528" r="4.7" clip-path="url(#c)" filter="url(#a)"/><circle cx="-7.89" cy="-1.603" r="3.846" clip-path="url(#c)" filter="url(#a)"/><circle cx="-9.685" cy="-3.803" r="3.954" clip-path="url(#c)" filter="url(#a)"/><circle cx="-8.03" cy="-2.898" r="3.81" clip-path="url(#c)" filter="url(#a)"/><circle cx="-8.645" cy="-2.653" r="3.456" clip-path="url(#c)" filter="url(#a)"/><circle cx="-9.865" cy="-3.073" r="3.658" clip-path="url(#c)" filter="url(#a)"/><circle cx="-9.345" cy="-.863" r="3.728" clip-path="url(#c)" filter="url(#a)"/><circle cx="-10.985" cy="-2.313" r="4.856" clip-path="url(#c)" filter="url(#a)"/></g><g fill="none" stroke="#867413" stroke-linejoin="round" stroke-width="2"><path d="m-10.18-74.21.69-.15 1.18-.19 1.31-.17 1.33-.15 1.28-.14 1.22-.11 1.13-.08 1-.05.84-.02.63-.01h.39l.11.01H.72l-.56.01-.94.02-1.35.06-1.79.11m56.1 32.92-.03.27.2.55.33.77.34.77.23.6.05.36-.12.12-.31-.12-.49-.36-.69-.67-.92-1.02-1.17-1.39-1.42-1.74-1.66-2.09-1.96-2.51-2.36-3.06-2.87-3.71-3.44-4.39m-69.41-3.9 1.41-.7 2.02-.62 2.25-.31 2.49-.05 2.86.11 3.31.22 3.75.3 4.16.37 4.5.44 4.8.56 5.04.68 5.25.83 5.4.96 5.52 1.05 5.6 1.08 5.71 1.07 5.95 1.13m-9.9-11.68.82.52.83.57.66.51.33.32v.18l-.23.09-.42.08-.59.06-.84-.02-1.18-.14-1.6-.32-2.08-.51-2.53-.68-3-.82-3.46-.96-3.98-1.13-4.54-1.3-5.17-1.46" filter="url(#a)"/><path d="m17.52-72.37.61.27.48.52-.05.53-.64.54-1.21.61-1.75.71-2.31.79-2.94.86-3.61.92-4.31 1-5.02 1.11-5.76 1.25-6.55 1.36-7.39 1.43-8.36 1.5" filter="url(#a)"/><path d="m-36.32-61.36 1.43-1 1.31-.62 1.61-.56 1.97-.57 2.23-.52 2.38-.43 2.51-.35 2.64-.28 2.83-.24 3.01-.23 3.2-.2 3.34-.18 3.46-.14 3.5-.08 3.51-.03 3.46-.01 3.37-.01 3.31-.01h3.31l3.43.08 3.58.22 3.72.38" filter="url(#a)"/><path d="m30.99-65.69.95.87.89.84.63.7.22.5-.23.3-.63.16-.99.07-1.31.01-1.63-.04-1.98-.13-2.36-.23-2.76-.36-3.22-.5-3.72-.66-4.24-.82-4.78-.98-5.37-1.15-6.05-1.3-6.91-1.43m-16.8 3.44.35-.27.81-.41 1.25-.55 1.52-.61 1.72-.65 1.85-.65 1.91-.64 1.93-.59 1.88-.55 1.79-.5 1.69-.46 1.61-.42 1.56-.39 1.52-.38 1.47-.37 1.36-.33 1.18-.32.97-.28.72-.23.35-.17" filter="url(#a)"/><path d="m14.61-73.44 1.08.44.68.43.24.43-.23.44-.79.4-1.4.4-2.03.4-2.65.46-3.33.51-4.08.54-4.86.56-5.65.57-6.38.58-6.99.49m75.9 29.06.11.17.08.45-.14.34-.33.22-.57.01-.88-.3-1.23-.69-1.63-1.09-2.03-1.48-2.44-1.87-2.88-2.32-3.36-2.83-3.84-3.36-4.29-3.87-4.63-4.3-4.93-4.7-5.44-5.24" filter="url(#a)"/><path d="m-26.18-68.49 1.83-.72 1.94-.35 2.19-.1 2.52.1 2.84.29 3.15.46 3.48.61 3.83.72 4.18.79 4.45.84 4.67.9 4.83.94 4.94.99 4.99.99 5.03.98 5.25 1.12M-2.33-75.32l1.64.04 1.23.05 1.18.11 1.2.15 1.23.17 1.25.18 1.28.22 1.34.23 1.38.26 1.37.26 1.29.26 1.16.23 1 .2.85.18.73.14.59.11.45.08.25.01.01-.05-.24-.12-.48-.16-.67-.19-.89-.24" filter="url(#a)"/><path d="m8.54-74.52.75.03.7.14.35.13.19.12.15.16.09.21-.05.25-.26.27-.51.3-.8.33-1.09.35-1.43.35-1.8.33-2.18.32-2.62.33-3.09.34-3.58.39-4.16.45-4.78.51-5.41.6m76.12 32.74-.07.13.11.73.05.86-.17.66-.44.39-.73.17-1-.02-1.29-.23-1.61-.47-1.94-.75-2.28-1.02-2.62-1.26-2.96-1.48-3.29-1.69-3.64-1.93-3.99-2.21-4.35-2.52-4.7-2.85-5.07-3.16-5.45-3.44-5.87-3.69-6.31-3.96-6.74-4.31" filter="url(#a)"/></g><path fill="none" stroke="#000" stroke-linejoin="round" stroke-width="3" d="M-10.15 28.65Q7.52 35.88-1.315-4.524" filter="url(#a)"/><path fill="#BD66CC" stroke="#000" stroke-linejoin="round" stroke-width="3" d="m-18.02 22.62.05 2.22.05 2.16.07 2.12.07 2.07.09 2.02.09 1.98.1 1.93.12 1.88.11 1.83.13 1.79.14 1.74.15 1.69.15 1.65.16 1.6.17 1.56.18 1.51.19 1.46.2 1.42.2 1.38.21 1.33.22 1.28.23 1.24.24 1.2.24 1.15.25 1.11.26 1.07.26 1.02.28.98.28.94.29.89.29.85.3.81.31.76.32.73.32.68.33.64.34.6.34.56.35.51.36.48.36.44.37.39.38.36.38.31.39.28.39.23.4.2.41.16.41.12.42.07.42.05h.43l.44-.04.44-.07.45-.11.45-.15.45-.19.47-.22.46-.26.48-.3.47-.33.49-.37.48-.41.49-.44.5-.48.5-.51.51-.55.51-.59.51-.62.52-.65.53-.69.52-.72.54-.76.53-.79.54-.83.55-.85.54-.9.56-.92.55-.96.56-.99.56-1.02.57-1.06.57-1.09.57-1.12.58-1.15.58-1.18.58-1.22.58-1.24.59-1.28.59-1.31.6-1.33.59-1.37.6-1.4.61-1.43.6-1.46.61-1.49.61-1.51.61-1.55.61-1.58-.38.87-.39.85-.38.82-.38.82-.39.79-.38.78-.39.76-.38.74-.39.73-.38.7-.39.69-.38.67-.39.65-.38.63-.38.62-.39.59-.38.58-.39.56-.38.53-.39.52-.38.5-.39.48-.38.46-.39.45-.38.42-.38.4-.39.38-.38.36-.39.34-.38.32-.39.3-.38.28-.39.26-.38.24-.39.21-.38.2-.38.17-.39.16-.38.13-.39.11-.38.09-.39.06-.38.05-.39.02h-.38l-.39-.02-.38-.05-.38-.06-.39-.09-.38-.12-.39-.13-.38-.16-.39-.18-.38-.2-.39-.23-.38-.25-.38-.28-.39-.3-.38-.32-.39-.35-.38-.37-.39-.39-.38-.42-.39-.44-.38-.47-.39-.49-.38-.52-.38-.54-.39-.57-.38-.59-.39-.62-.38-.64-.39-.67-.38-.7-.39-.72-.38-.74-.39-.77-.38-.8-.38-.83-.39-.85-.38-.87-.39-.91-.38-.93-.39-.95-.38-.99-.39-1.01-.38-1.03-.39-1.07-.38-1.09-.38-1.12-.39-1.15-.38-1.17-.39-1.21-.38-1.23-.39-1.26-.38-1.28-.39-1.32-.38-1.34-.39-1.37" filter="url(#a)"/></svg>