<svg xmlns="http://www.w3.org/2000/svg" width="500" height="500" viewBox="-100 -100 200 200"><defs><clipPath id="c"><path d="m29.02-.83.07-1.18.03-1.15-.01-1.11-.04-1.08L29-6.4l-.12-1.01-.15-.97-.19-.94-.23-.89-.26-.86-.3-.82-.34-.77-.38-.73-.41-.69-.45-.65-.33-.95-.39-.89-.45-.82-.51-.74-.58-.68-.63-.61-.68-.55-.74-.47-.8-.4-.85-.34-.89-.28-.95-.21-.99-.15-1.03-.09-1.07-.03-1.1.02-1.14.07-1.17.13-1.19.16-1.22.22-1.24.25-1.26.29-1.28.33-1.28.35-1.3.39-1.3.42-1.3.43-1.31.46-1.3.48-1.3.49-1.29.5-1.28.52-1.27.52-1.26.53-1.24.53-1.23.54-1.21.53-1.18.53-1.17.53-1.14.53-1.12.51-1.09.51-1.07.5-1.05.5-1.02.48-.99.47-.96.46-.94.45-.92.44-.89.42-.87.42-.84.41-.83.39-.8.38-.77.38-.76.36-.74.35-.71.34-.69.33-.67.32-.65.31-.63.29-.61.29-.58.28 4.16 5.46.35.27.38.28.4.29.41.3.44.3.46.31.48.33.5.33.52.34.55.35.56.36.58.37.61.39.62.39.65.4.66.41.69.42.72.44.73.44.76.46.77.47.8.48.82.49.84.49.86.51.87.52.9.52.91.53.92.54.94.53.95.54.97.54.98.53.98.53 1 .52 1 .51 1.01.49 1.01.48 1.02.47 1.01.44 1.02.42 1.02.39 1.02.36 1.01.32 1.01.29 1 .25 1 .21.98.16.98.12.97.06.95.01.94-.05.92-.11.91-.18.89-.23.88-.3.85-.37.84-.44.82-.51.79-.58.78-.66.75-.72.73-.8.71-.87.67-.57.66-.61.64-.66.63-.7.62-.75.6-.79.59-.83.57-.88.55-.92.54-.96.52-1 .51-1.04.49-1.08.47-1.11.46-1.15"/></clipPath><clipPath id="b"><path d="m-28.17-2.05-.05-.89-.02-.87.01-.85.05-.82.07-.8.1-.77.14-.75.17-.72.2-.69.24-.67.26-.64.3-.61.33-.58.36-.56.4-.53.3-.71.36-.67.4-.63.46-.59.5-.54.56-.51.61-.46.65-.41.7-.38.75-.33.79-.28.83-.25.87-.21.92-.16.95-.13.98-.09 1.02-.05 1.05-.02 1.08.01 1.1.05 1.13.08 1.15.11 1.16.13 1.19.16 1.19.19 1.21.21 1.22.23 1.23.25 1.23.26 1.23.29 1.23.3 1.23.31 1.23.32 1.22.33 1.22.35 1.2.34 1.19.36 1.18.36 1.17.36 1.15.37 1.14.36 1.11.37 1.1.37 1.08.36 1.05.36 1.04.36 1.01.35.99.35.97.34.95.34.93.34.9.32.89.33.87.32.85.31.84.31.81.3.79.3.77.29.75.29.73.27.72.28.69.26.67.26-2.32 5.93-.36.3-.37.31-.4.32-.41.32-.44.34-.46.34-.47.36-.5.36-.51.38-.54.38-.55.4-.58.41-.59.42-.61.43-.63.45-.65.45-.68.47-.69.48-.72.49-.73.5-.75.52-.78.53-.79.54-.81.55-.82.56-.84.58-.86.58-.87.58-.88.59-.9.6-.91.59-.92.6-.92.59-.94.59-.95.58-.95.57-.95.55-.96.54-.96.52-.97.5-.97.47-.96.45-.97.41-.96.38-.96.34-.95.3-.95.26-.95.2-.93.16-.93.11-.92.05-.91-.01-.9-.08-.89-.13-.87-.2-.86-.27-.85-.33-.83-.41-.82-.47-.81-.55-.78-.62-.77-.68-.76-.76-.73-.82-.67-.48-.66-.53-.64-.55-.64-.59-.62-.63-.6-.66-.59-.69-.58-.72-.56-.75-.54-.78-.53-.81-.51-.82-.49-.85-.48-.86-.45-.88"/></clipPath><linearGradient id="d" x1="0%" x2="100%" y1="0%" y2="0%"><stop offset="0%" style="stop-color:#776462;stop-opacity:1"/><stop offset="67.1%" style="stop-color:#c83a11;stop-opacity:1"/><stop offset="100%" style="stop-color:#c97aad;stop-opacity:1"/></linearGradient><filter id="a"><feTurbulence baseFrequency=".05" numOctaves="3" result="noise" type="noise"/><feDisplacementMap in="SourceGraphic" in2="noise" scale="2"/></filter></defs><rect width="100%" height="100%" x="-100" y="-100" fill="#F2A6EF"/><path fill="#20DF29" stroke="#000" stroke-linejoin="round" stroke-width="1.667" d="m80.57 2.19.31 1-.04-.71.13-.06-.33 1.54-.21 3.69-.07 3.01-.22-.06.02 1.29-.42 1.2.05 2.05-.51 3.45-.02-.23.01-.2-.57 3.75-.48 2.07v-.31l-.63 1.36-.58 2.8.27.25-1.39 3.71 1-2.07-.4 1.3-.8 1.59-.39 2.23-.2.38-.69.69-1.44 3.54.06-.01-.73 2.59-.27.46-.4 1.08-.47.6-.8.95-.69 2.37-1.14 2.08-.36.56-.9 1.6.11.09-2.15 3.27.35.28-.13-.48-1.84 3.15.09-.16-.93 1.06-1.25 2.25-1.34 1.46-.18.41-1.02 1.14-.47.68-2.27 2.94-1.36 1.29 1.02-1.06-1.18 1.14-1.07.99.29-.2-2.2 2.5-1.34 1.54-2.04 1.65-1.25.62-.55.87-.89.07-.95 1.33-2.08 1.31 1.53-.91-2.31 1.51-.02-.1-1.38 1.04-1.82.89-.73.62-.43.8-1.95.9-1.25.6-1.15.24-2.16 1.08.55.22-2.89 1.14-.82.42-.31.23-.57.17-1.86 1-1.68.4-1.57.44 1.24-.01-3.8 1.1-.09-.01-2.12.23-1.71.54-.53.5-1.93-.17-.91.28-1.89.51-1.16-.1.98-.01-.76.08-1.76.49-2.9-.12.8.17-2.91.28-1.64-.38-2.32.11.34.08-.46-.07-1.52.16-.2-.22-2.62.09-.86-.61.22.25-4.49-.28-2.72-.86.2.51-.02-.37.06-.08-3.44-.96.39.46-2.51-.58-2.44-.77-.74-.45-1.22-.21-1.28-.21 1.1-.09-4.51-1.68.94.42-.15-.24-2.18-.85-.53-.67-1.88-.48-1.55-.8-.23.16-1.66-1-.92-.72-1.31-.69-1.48-.8.88-.28-2.18-.59-.76-1.06-.62-.08-3.1-2.63-1.16-.08-.33-.87-3.02-2.51 1.65 1.72-.79-.95-2.58-2.63.31.76-1.7-2.21-.33-.61-.99.05-.17-1.16-2.19-2.2.05.16-1.47-2.27-1.55-.67-1.14-1.63-.45-1.16.22.86-1.86-2.14-.31-1.15-1.67-2.16-.29-.16-.75-1.55.73.51-1.67-2.25-1.39-1.73-.34-1.21-.87-1.76-1.5-2.96.48.71.01-.48-.55-1.12-.99-1.39-.39-2.45-1.29-1.89.04.22-.79-2.5-.27-1.03-.44-1.12-.63-1.29-.91-3.34-.46-.47-.29-.81-.63-2.69.09-.48-.61-2.84.05-.46-.34.17.17-.34-.34-2.14-.8-3.97-.11.12.03-2.16-.25-.39-.41-2.57.36-.15-.3-2.62.04-.65-.56-1.62-.07-2.23.31-2.79.04-.38-.24-1.25.03.19-.12-1.95.11-4.22.08-1.19.38-.46-.1.26.09-.35.07-4.26.39-1.1.31-3.19-.27 2.48.66-4.76.47-.27-.12-.26.09-3.07.78-1.27-.07-1.09.2-.77-.17-.17 1.55-3.87.44-2.66-.08.35.56-.74.38-1.66.19-.75.59-1.07.26-1.73.4-1.07 1.4-2.32.14-.65.5-1.2.86-2.13 1.78-3.21-1.02 1.31 1.2-1.47.54-1.99 1.72-1.75.65-1.79-.02-.34-.27.82 1.43-2.48.58-1.64 1.17-.53.76-1.48 1.17-1.79-.41.8 1.92-2.79 1.49-1.52-.31-.43 1.47-1.34 1.12-1.32-.85 1.54 2.96-3.63 1.8-1.84.21-.3.72.06 1.32-1.57.99-.79.76-.74-.49.27.64-.68 2.81-1.53-.04-.58 1.89-1.61 1.62-1.02.51-.28 2.14-.95.08-.48.36-.14 1.58-1.23.35-.1 1.39-1.22 1.19-.53-.28.39 3.02-1.69 2.05-.75 2.1-.72-.24-.14-.22.28 2.19-1.25.01.11 2.46-.96.34.27 2.53-1.08 2.63-.5 1.07-.21-1.09-.14 2.31-.53 1.29-.22 2.69-.24.79-.54-.89.37 2.62-.35.08-.03 1.9-.18 1 .03 2.7-.14-1.34-.16 1.97-.07 2.67.25-.66-.22.68.22 1.83-.02 2.86-.14 1.11.09.8.24 1.04.26.3-.18 3.07.6.24-.12 1.33.16 3.62 1.05.65.19-.52.09.97-.21 1.1.17.49.5 4.26 1.03-.14.42.06-.19 3.26 1.18-.47.33 1.97.46.94.39 1.69.8 1.94.71-.1.4 1.62.9.73.15.53.04 1.72 1.35 2.55 1.07-1.61-.62 2.38 1.43 1.08.77.34.37.96.44 2.13 1.78 1.88 1.48-.34-.15 2.55 2.54.87.71 1.7 1.29v.43l.51.6.92 1.03-.07-.57 1.59 1.89.62.48 1.74 2.12.1.21 1.47 2.14 1.94 1.61.33.89 1.39 1.88-.25-.71.98 1.76-.16-.41 1.45 2.18.95 1.47.14.41.3.79 1.49 1.94-.37-.25 2.62 4.35.23.74.36.42v.81l1.27 1.81-.3.03.49 2.17 1.8 3.16-.43-.82.62 1.96.87 1.76.31 1.87.82 1.63.78 2.49-.03-.96.66 3.33-.02-.49.94 2.98-.34-.1.05-.28.79 3.27.44 1.84-.28-1.21.73 4.84.32 1.55-.26.92.47 3.06.07.44.23 1.1-.09.59.36 2.1-.05 2.61.39.96-.14-.76-.06 1.56-.15 4.76.31 1" filter="url(#a)"/><path fill="#fff" d="m-28.17-2.05-.05-.89-.02-.87.01-.85.05-.82.07-.8.1-.77.14-.75.17-.72.2-.69.24-.67.26-.64.3-.61.33-.58.36-.56.4-.53.3-.71.36-.67.4-.63.46-.59.5-.54.56-.51.61-.46.65-.41.7-.38.75-.33.79-.28.83-.25.87-.21.92-.16.95-.13.98-.09 1.02-.05 1.05-.02 1.08.01 1.1.05 1.13.08 1.15.11 1.16.13 1.19.16 1.19.19 1.21.21 1.22.23 1.23.25 1.23.26 1.23.29 1.23.3 1.23.31 1.23.32 1.22.33 1.22.35 1.2.34 1.19.36 1.18.36 1.17.36 1.15.37 1.14.36 1.11.37 1.1.37 1.08.36 1.05.36 1.04.36 1.01.35.99.35.97.34.95.34.93.34.9.32.89.33.87.32.85.31.84.31.81.3.79.3.77.29.75.29.73.27.72.28.69.26.67.26-2.32 5.93-.36.3-.37.31-.4.32-.41.32-.44.34-.46.34-.47.36-.5.36-.51.38-.54.38-.55.4-.58.41-.59.42-.61.43-.63.45-.65.45-.68.47-.69.48-.72.49-.73.5-.75.52-.78.53-.79.54-.81.55-.82.56-.84.58-.86.58-.87.58-.88.59-.9.6-.91.59-.92.6-.92.59-.94.59-.95.58-.95.57-.95.55-.96.54-.96.52-.97.5-.97.47-.96.45-.97.41-.96.38-.96.34-.95.3-.95.26-.95.2-.93.16-.93.11-.92.05-.91-.01-.9-.08-.89-.13-.87-.2-.86-.27-.85-.33-.83-.41-.82-.47-.81-.55-.78-.62-.77-.68-.76-.76-.73-.82-.67-.48-.66-.53-.64-.55-.64-.59-.62-.63-.6-.66-.59-.69-.58-.72-.56-.75-.54-.78-.53-.81-.51-.82-.49-.85-.48-.86-.45-.88" filter="url(#a)" transform="translate(41.72 -29.77)"/><path fill="#fff" d="m29.02-.83.07-1.18.03-1.15-.01-1.11-.04-1.08L29-6.4l-.12-1.01-.15-.97-.19-.94-.23-.89-.26-.86-.3-.82-.34-.77-.38-.73-.41-.69-.45-.65-.33-.95-.39-.89-.45-.82-.51-.74-.58-.68-.63-.61-.68-.55-.74-.47-.8-.4-.85-.34-.89-.28-.95-.21-.99-.15-1.03-.09-1.07-.03-1.1.02-1.14.07-1.17.13-1.19.16-1.22.22-1.24.25-1.26.29-1.28.33-1.28.35-1.3.39-1.3.42-1.3.43-1.31.46-1.3.48-1.3.49-1.29.5-1.28.52-1.27.52-1.26.53-1.24.53-1.23.54-1.21.53-1.18.53-1.17.53-1.14.53-1.12.51-1.09.51-1.07.5-1.05.5-1.02.48-.99.47-.96.46-.94.45-.92.44-.89.42-.87.42-.84.41-.83.39-.8.38-.77.38-.76.36-.74.35-.71.34-.69.33-.67.32-.65.31-.63.29-.61.29-.58.28 4.16 5.46.35.27.38.28.4.29.41.3.44.3.46.31.48.33.5.33.52.34.55.35.56.36.58.37.61.39.62.39.65.4.66.41.69.42.72.44.73.44.76.46.77.47.8.48.82.49.84.49.86.51.87.52.9.52.91.53.92.54.94.53.95.54.97.54.98.53.98.53 1 .52 1 .51 1.01.49 1.01.48 1.02.47 1.01.44 1.02.42 1.02.39 1.02.36 1.01.32 1.01.29 1 .25 1 .21.98.16.98.12.97.06.95.01.94-.05.92-.11.91-.18.89-.23.88-.3.85-.37.84-.44.82-.51.79-.58.78-.66.75-.72.73-.8.71-.87.67-.57.66-.61.64-.66.63-.7.62-.75.6-.79.59-.83.57-.88.55-.92.54-.96.52-1 .51-1.04.49-1.08.47-1.11.46-1.15" filter="url(#a)" transform="translate(-44.53 -24.96)"/><g fill="none" stroke="#000" transform="translate(41.72 -29.77)"><path stroke-linejoin="round" stroke-width="1.667" d="m-26.15 7.87-.31-1.05-.29-1.05-.27-1.03-.24-1.02-.22-1.01-.19-.99-.17-.97-.14-.95-.11-.94-.08-.91-.05-.89-.02-.87.01-.85.05-.82.07-.8.1-.77.14-.75.17-.72.2-.69.24-.67.26-.64.3-.61.33-.58.36-.56.4-.53.3-.71.36-.67.4-.63.46-.59.5-.54.56-.51.61-.46.65-.41.7-.38.75-.33.79-.28.83-.25.87-.21.92-.16.95-.13.98-.09 1.02-.05 1.05-.02 1.08.01 1.1.05 1.13.08 1.15.11 1.16.13 1.19.16 1.19.19 1.21.21 1.22.23 1.23.25 1.23.26 1.23.29 1.23.3 1.23.31 1.23.32 1.22.33 1.22.35 1.2.34 1.19.36 1.18.36 1.17.36 1.15.37 1.14.36 1.11.37 1.1.37 1.08.36 1.05.36 1.04.36 1.01.35.99.35.97.34.95.34.93.34.9.32.89.33.87.32.85.31.84.31.81.3.79.3.77.29.75.29.73.27.72.28.69.26.67.26.66.25.63.25.62.24.59.23.58.23.56.22.55.22.52.21.51.2.49.19" filter="url(#a)"/><path stroke-linejoin="round" stroke-width="2.222" d="m-29.24-2.67.23.83.26.86.28.87.31.89.33.9.35.9.38.91.39.91.42.9.44.89.45.88.48.86.49.85.51.82.53.81.54.78.56.75.58.72.59.69.6.66.62.63.64.59.64.55.66.53.67.48.73.82.76.76.77.68.78.62.81.55.82.47.83.41.85.33.86.27.87.2.89.13.9.08.91.01.92-.05.93-.11.93-.16.95-.2.95-.26.95-.3.96-.34.96-.38.97-.41.96-.45.97-.47.97-.5.96-.52.96-.54.95-.55.95-.57.95-.58.94-.59.92-.59.92-.6.91-.59.9-.6.88-.59.87-.58.86-.58.84-.58.82-.56.81-.55.79-.54.78-.53.75-.52.73-.5.72-.49.69-.48.68-.47.65-.45.63-.45.61-.43.59-.42.58-.41.55-.4.54-.38.51-.38.5-.36.47-.36.46-.34.44-.34.41-.32.4-.32.37-.31.36-.3.33-.29.31-.28.3-.28.27-.27.25-.26.24-.26.21-.25.2-.24.17-.24.16-.24" filter="url(#a)"/><circle cx="6.931" cy="8.293" r="3.912" clip-path="url(#b)" filter="url(#a)"/><circle cx="5.941" cy="8.223" r="3.426" clip-path="url(#b)" filter="url(#a)"/><circle cx="8.826" cy="9.363" r="4.276" clip-path="url(#b)" filter="url(#a)"/><circle cx="6.791" cy="8.828" r="4.31" clip-path="url(#b)" filter="url(#a)"/><circle cx="5.651" cy="10.438" r="4.028" clip-path="url(#b)" filter="url(#a)"/><circle cx="7.636" cy="11.203" r="4.592" clip-path="url(#b)" filter="url(#a)"/><circle cx="6.946" cy="10.338" r="4.058" clip-path="url(#b)" filter="url(#a)"/><circle cx="7.891" cy="12.203" r="4.074" clip-path="url(#b)" filter="url(#a)"/><circle cx="6.821" cy="10.728" r="3.886" clip-path="url(#b)" filter="url(#a)"/><circle cx="8.826" cy="8.698" r="3.858" clip-path="url(#b)" filter="url(#a)"/></g><g fill="none" stroke="#000" transform="translate(-44.53 -24.96)"><path stroke-linejoin="round" stroke-width="2.222" d="m26.66 12.09.36-1.35.33-1.34.31-1.34.28-1.32.26-1.31.23-1.3.19-1.27.17-1.26.13-1.23.1-1.2.07-1.18.03-1.15-.01-1.11-.04-1.08L29-6.4l-.12-1.01-.15-.97-.19-.94-.23-.89-.26-.86-.3-.82-.34-.77-.38-.73-.41-.69-.45-.65-.33-.95-.39-.89-.45-.82-.51-.74-.58-.68-.63-.61-.68-.55-.74-.47-.8-.4-.85-.34-.89-.28-.95-.21-.99-.15-1.03-.09-1.07-.03-1.1.02-1.14.07-1.17.13-1.19.16-1.22.22-1.24.25-1.26.29-1.28.33-1.28.35-1.3.39-1.3.42-1.3.43-1.31.46-1.3.48-1.3.49-1.29.5-1.28.52-1.27.52-1.26.53-1.24.53-1.23.54-1.21.53-1.18.53-1.17.53-1.14.53-1.12.51-1.09.51-1.07.5-1.05.5-1.02.48-.99.47-.96.46-.94.45-.92.44-.89.42-.87.42-.84.41-.83.39-.8.38-.77.38-.76.36-.74.35-.71.34-.69.33-.67.32-.65.31-.63.29-.61.29-.58.28-.57.26-.55.26-.53.25-.51.24-.5.23-.47.22-.46.21-.44.2-.43.2-.41.19" filter="url(#a)"/><path stroke-linejoin="round" stroke-width="2.222" d="m31.79-9.1-.28 1.38-.3 1.37-.31 1.36-.33 1.34-.35 1.32-.37 1.3-.39 1.27-.4 1.25-.42 1.21-.44 1.19-.46 1.15-.47 1.11-.49 1.08-.51 1.04-.52 1-.54.96-.55.92-.57.88-.59.83-.6.79-.62.75-.63.7-.64.66-.66.61-.67.57-.71.87-.73.8-.75.72-.78.66-.79.58-.82.51-.84.44-.85.37-.88.3-.89.23-.91.18-.92.11-.94.05-.95-.01-.97-.06-.98-.12-.98-.16-1-.21-1-.25-1.01-.29-1.01-.32-1.02-.36-1.02-.39-1.02-.42-1.01-.44-1.02-.47-1.01-.48-1.01-.49-1-.51-1-.52-.98-.53-.98-.53-.97-.54-.95-.54-.94-.53-.92-.54-.91-.53-.9-.52-.87-.52-.86-.51-.84-.49-.82-.49-.8-.48-.77-.47-.76-.46-.73-.44-.72-.44-.69-.42-.66-.41-.65-.4-.62-.39-.61-.39-.58-.37-.56-.36-.55-.35-.52-.34-.5-.33-.48-.33-.46-.31-.44-.3-.41-.3-.4-.29-.38-.28-.35-.27-.33-.27-.31-.26-.3-.25-.27-.24-.25-.24-.23-.24-.21-.23-.2-.22-.17-.22-.16-.22" filter="url(#a)"/><circle cx="17.397" cy=".965" r="3.728" clip-path="url(#c)" filter="url(#a)"/><circle cx="15.147" cy="3.29" r="4.604" clip-path="url(#c)" filter="url(#a)"/><circle cx="18.502" cy="3.805" r="4.122" clip-path="url(#c)" filter="url(#a)"/><circle cx="14.222" cy="3.405" r="3.846" clip-path="url(#c)" filter="url(#a)"/><circle cx="17.842" cy="3.925" r="3.722" clip-path="url(#c)" filter="url(#a)"/><circle cx="15.457" cy=".565" r="4.116" clip-path="url(#c)" filter="url(#a)"/><circle cx="13.922" cy=".01" r="4.888" clip-path="url(#c)" filter="url(#a)"/><circle cx="17.697" cy="1.805" r="3.964" clip-path="url(#c)" filter="url(#a)"/><circle cx="15.187" cy=".7" r="4.92" clip-path="url(#c)" filter="url(#a)"/><circle cx="14.432" cy=".795" r="4.516" clip-path="url(#c)" filter="url(#a)"/></g><g fill="none" stroke="url(#d)" stroke-linejoin="round" stroke-width="2"><path d="m50.33-73.48.94.88.11.46-.36.21-.74.02-1.11-.11-1.51-.22-1.98-.34-2.51-.5-3.13-.73-3.8-1.01-4.55-1.35-5.34-1.75-6.16-2.21-6.95-2.66-7.74-3.07-8.7-3.39" filter="url(#a)"/><path d="m41.94-80.65.51.47.75.76.66.93.38.93.01.89-.39.8-.84.68-1.34.54-1.85.4-2.34.27-2.78.19-3.2.14-3.6.13-4.01.11-4.45.1-4.94.05H9.03l-6.1-.09-6.76-.18-7.49-.25-8.21-.32-8.95-.36-9.67-.4" filter="url(#a)"/><path d="m62.32-60.19.37 1.05-.34.63-.94.49-1.67.28-2.47.03-3.28-.2-4.07-.39-4.88-.6-5.74-.85-6.67-1.2-7.65-1.61-8.64-2.02-9.65-2.39-10.67-2.73-11.76-3.04-12.93-3.35" filter="url(#a)"/><path d="m65.54-55.19.19.49.32.66.31.68.17.57-.1.26-.51-.25-1-.86-1.5-1.47-1.99-2.05-2.48-2.6L56-62.92l-3.46-3.81-4.01-4.57-4.46-5.34m-2.13-4.01.64.5 1.16.87 1.35 1.08 1.34 1.14 1.25 1.1 1.09 1.01.91.85.65.64.38.4.11.16-.12-.04-.34-.21-.53-.36-.73-.5-.97-.68-1.26-.9-1.62-1.18-2.06-1.53-2.54-1.92-2.92-2.21" filter="url(#a)"/><path d="m65.54-55.19.21.53.36.76.39.87.3.86.11.69-.17.4-.49.06-.8-.26-1.1-.54-1.4-.8-1.71-1.07-2.02-1.37-2.37-1.72-2.75-2.1-3.14-2.5-3.58-2.93-4.07-3.41-4.58-3.92-5.04-4.43-5.39-4.87-5.52-5.23m24.13 9.44 1.91 1.84 1.32 1.22.93.88.6.6.33.37.11.15-.1-.04-.35-.24-.63-.46-.98-.73-1.38-1.07-1.84-1.48-2.31-1.94-2.85-2.45M-2.68-93.97l-.36-.05.37.15.14.33-.37.5-.88.69-1.35.91-1.93 1.14-2.63 1.39-3.41 1.61-4.24 1.87-5.08 2.14-5.98 2.44-6.93 2.72-7.86 2.87" filter="url(#a)"/><path d="m-33.74-85.75 1.05-.13 2.58-.42 3.18-.23 3.44.1 3.68.38 4.04.57 4.5.68 4.98.76 5.44.82 5.85.9 6.16.99 6.37 1.12 6.5 1.27 6.62 1.46 6.81 1.63 7.09 1.75" filter="url(#a)"/><path d="m46.91-76.73 1.72 1.83.7 1.17-.1.84-.78.64-1.38.53-1.91.5-2.39.53-2.86.57-3.37.62-3.9.64-4.5.65-5.15.61-5.87.56-6.67.49-7.5.41-8.36.36-9.18.29-9.92.19-10.59.12-11.25.06m58.24-28.1 1.75.37 1.59.43 1.02.29.64.19.53.17.5.21.46.26.35.29.13.3-.13.28-.42.26-.71.22-1.03.2-1.36.16-1.74.13-2.17.1-2.62.06-3.08.02-3.56-.02-4.1-.04-4.72-.04-5.4-.05-6.04-.11m-8.87.88.56-.13 1.33-.43 1.71-.43 2.03-.43 2.25-.42 2.38-.41 2.38-.4 2.31-.35 2.26-.32 2.22-.27 2.17-.24 2.06-.22 1.88-.2 1.62-.19 1.37-.17 1.16-.15.97-.14.81-.13.62-.14.35-.15" filter="url(#a)"/><path d="m7.24-93.78 1.01.18 1.36.21 1.62.27 1.74.33 1.71.37 1.55.36 1.27.3.91.2.61.11.35.06.15.04-.05.01-.33-.03-.79-.18-1.63-.47m40.62 25.81.59.83 1.1 1.37 1.14 1.4.98 1.25.82 1.05.68.92.59.84.54.79.49.75.43.68.36.6.26.48.15.34.01.16-.18-.09-.42-.41-.7-.8-.98-1.21-1.26-1.57-1.49-1.9-1.71-2.19-1.88-2.43-2.03-2.68" filter="url(#a)"/><path d="m57.34-66.21.25.63.13.86-.5.59-1.33.12-2.24-.38-3.16-.86-4.07-1.26-4.98-1.59-5.89-1.92-6.83-2.29-7.85-2.7-9.03-3.14L1.47-81.7l-11.71-4.01m-26.43 1.81.74-.42 1.18-.62 1.46-.65 1.75-.69 1.95-.73 2-.72 1.91-.66 1.77-.61 1.66-.55 1.62-.53 1.62-.5 1.63-.5 1.59-.47 1.47-.44 1.28-.39 1.01-.32.72-.26.43-.19.22-.12.02-.07-.24.02-.76.15" filter="url(#a)"/><path d="m17.94-91.94 16.4 15.34-2.67 5.47-6.84 2.77-4.32 1.62 1.69 1.3 5.89.46 5.92-1.12 3-2.62-.85-3.26-4.52-2.9-7.66-1.97-9.43-.85-8.21.32-2.92 1.62 5.03 2.85 11.23 3.36 11.64 2.7 8.7 2.48 12.81 7.17 18.94 15.23" filter="url(#a)"/><path d="m-51.77-72.33 31.08 4.64 28.98 1.77 8.57-1.97-3.08-1.14-5.91.88-3.55 2.18.57 2.32 3.76 1.45 4.6-.03 3.13-1.71.33-3.18-2.39-4.17-3.9-4.51-3.71-4.16-2.06-3.13.38-1.63 2.79-.09 4.56.97 5.33 1.34 5.41 1.61 6.66 2.98 11 4.53 2.46-6.46" filter="url(#a)"/><path d="m-53.57-70.49 5-3.04 4.88-1.42 8.12-1.26 9.78 1.05 10.55 2.1 10.74.81 10.63-1.11 10.01-1.82 7.32-1.03.74.09-9.29.51-17.79.61-14.83 1.86 11.67 4.92 70.63 11.56" filter="url(#a)"/><path d="m29.41-87.65-2.98-.22-1.86 1.01-3.13.86-4.78 1.2-4.26 2.38-2.32 2.96-.33 2.19 1.02.6 1.33-.87.45-1.65-1.25-1.66-2.81-1.04-3.73-.24-4.44.16-5.83-.24-8.05-.83-10.78.34-14.82 5.75L-64.06-58" filter="url(#a)"/><path d="m-58.27-65.74 34.68-15.31 8.57-1.4 8.82 1.77 9.41.78 7.23-.22 4.51-.3 2.39.1 1.18.58 1.23.96 2.53 1.17 4.52 1.21 6.2 1.18 6.58 1.19 5.02 1 1.25.06-4.23-1.83-8.75-3.16-3.6.78L63.3-58.43" filter="url(#a)"/><path d="m-51.77-72.33 50.93-6 29.42 8.6 4.23 8.92-13.5 4.21-16.66-.09-7.84-2.12 4.14-2.69 11.41-3.05 11.66-3.5 7.69-3.28 3.24-1.84-.29.24-2.73 1.87.05 3.63 15.28 8.29 26.32 14.97" filter="url(#a)"/><path d="m8.58-93.7-28.23 7.16.33 1.55 8.26.38 4.13-.09-1.3-.59-3.17-.62-2.25.12-.92 1.43-.16 2.71.56 3.21 1.69 2.54 2.06.92-.2-.65-5.38-1.3-10.06-1.48-7.5-3.43 4.61-5.96m72.19 7.96-6.67 6.39-22.45-5.75L1.5-83.28l-1.95-.42 4.6 2.19 8.04 3.21 8.93 2.94 7.21 1.78 3.33.11-1.15-1.46-4.22-2.16-4.52-1.45-2.1.38 1.38 2.1 3.57 2.4 2.96 1.07.74-.43 1.74.05 10.81 2.53 12.59.31" filter="url(#a)"/><path d="m-36.32-84 28.42 9.78 31.22 8.73 11.72.68-1.09-2.63-4.2-2.27-1.99-1 1.52.06 4.13.95 4.89 1.85 3.5 2.58.02 2.52-4.79 1.09-9.22-1.67-11-4.66-8.95-6.17-4.19-5.08 1.72-2.73 10.66-2.31 13.36-3.37" filter="url(#a)"/><path d="m-4.02-94.13 31.79 15.62 1.91 7.54-5.27 2.1-6.14-2.6-6.71-5.24-6.39-5.07-4.48-3.13-1.64-1.05.75.11 1.27.35-.44.22-3.04.23-3.79.29-1.05-.2L-4-86.64l4.38-3.34 1.64-3.16 5.22-.64" filter="url(#a)"/><path d="M52.03-71.76 9.22-77.48l-13.46 3.07 2.25 1.31 5.57-.73 4.47-2.24 2.88-3.14 2-3.2 1.93-2.36 2.41-.95 2.76.63 2.29 2.01.91 3-.09 3.71 1.47 4.62 6.65 5.97 12.66 6.67 13.07 4.08 5.48-1.7 3.21 1.95" filter="url(#a)"/><path d="m-51.56-72.63 45.62-7.54 22.26 3.9 11.59 3.24 1.75-.57-3.43-1.89-3.12-.5.19 1.84 3.48 3.68 4.83 4.34 3.72 3.8.72 2.45-2.85.79-5.56-.72-6.42-1.74-5.45-2.11L12-65.52l-2.84-1.3-3.33-.83-4.41-.68-4.79-.85-4.98-1.35-6.13-2.76.43-5.63L26.5-88.5" filter="url(#a)"/><path d="m-47.62-76.08 41.89-6.67 4.6.88-2.12 2.53-2.93 1.11-2.9-.11-.76-.43 2.49-.17 4.75.47 5.99 1.46 8.03 2.62 11.34 3.4 13.02 2.84 9.31.43 1.65-1.96.75 2.67 26.08 28.2" filter="url(#a)"/><path d="M70.31-46.79-.75-61.03l-9.09-3.26 1.85-1.9-3.4-1.72-4.06-.85 2.03.05 8.75.22 10.73-.53 7.11-1.66 1.1-2.34-3-2.02-2.69-.88 1.31.25 5.66.59 6.78.01 2.81-1.09-5.69-2.72-12.67-5.53 11.16-7.53" filter="url(#a)"/><path d="m-22.31-90.21 17.58 8.34 2.08 4.19 4-1.86 3.04-3.83 1.9-3.06 1.01-1.48-1.04-.07-4.18.93-6.62 1.54-6.27 1.74-2.65 1.44 2.31.72 5.05-.19 2.76-1.07-3.48-1.86-8.72-1.81-11.38 1.73-24.85 12.48" filter="url(#a)"/><path d="M31.1-86.85.34-85.01l-9.18 2.72-4.12 2.25 1.47 1.9 5.74 1.72 6.63 1.2 4.58.4 1.55-.36-.36-.74-.21-.76 1.41-.63 3.09-.51 3.55-.33 2.43.01.39.4-1.29.5-1.42.14.13-.4 1.57-.58.55-.32-2.32-.37-4.01-2.26L-16.08-92" filter="url(#a)"/><path d="M60.85-62.25 40.44-50.6l-28.63-7.56-14.78-8.19-5.02-5.79.6-4.04 4.66-2.54 7.71-.74 8.7 1.04 6.71 2.12 2.06 2.14-3.86 1.15-9.21-.28-12.39-1.48-12.08-1.82-7.37-1.14 1.92.11 14.59 1.58 26.57 4.07 30.23 9.79 20.92 20.21" filter="url(#a)"/><path d="m73.14-39.63-31.5-29.99-9.35-7.63-.18-.23 3.43 2.89 5.33 5.05 4.66 5.53.84 3.99-4.61 1.27-9.12-1.29-10.8-2.88-9.39-3.35-6.09-3.12-2.43-2.68.68-2.25 2.89-1.83 3.91-1.37 3.22-.85.82-.17-1.6 1.01-.97 3.02 4.67 4.94 11.77 3.24 8.47-6.43-14.14-17.06" filter="url(#a)"/><path d="M52.03-72.19 5.47-82.77.24-83.82l7.7 5.43 3.48 6.23-6.1 3.78-11.77 1.33-10.81.18-5.86-.13-1.14-.56.89-1.49.84-2.73 1.18-3.8 3.75-4.31 7.73-4.07 10.11-3.1 8.04-1.77 1.51-.89-4.55-1.29 6.65-2.21" filter="url(#a)"/><path d="m-50.84-72.57 53.08 3.13 4.81 6.84-13.06-1.49L-15-69.8l.61-6.14 7.28-4.91 9.51-3.2 8.93-1.48 7.28-.05 5.16.92 2.48 1.47-.37 1.82-1.52 2.5 1.53 4.01 9.19 6.63 16.53 9.65 15.4 11.3 7.93 13.24" filter="url(#a)"/><path d="m-22.65-90.48 35.77 25.63-7.22-1.21-6.6-1.82-2.84-.76.26-.98 3.08-.85 4.51.06 3.75.91 1.12.75-2.22-.42-4.62-1.84-4.53-2.52-1.18-1.84 4.59.11 10.25 2.49 12.43 4.08 8.85 3.84.37 1.79-7.37-.34-4.34-.13 15.83 2.31 25.33 1.74" filter="url(#a)"/><path d="m-26.85-88.52 45.04 15.09 6.05-3.28.56-1.4-2.94 1.53-6.2 2.07-6.19 1.16-2.57.15 2.66-.16 7.16.47 9.56 1.84 9.42 3.35 6.87 4.17 2.23 3.62-3.62 1.69-8.99-.87-11.55-2.97-9.72-3.99-4.46-4.19.27-4.4-.94-4.87-12.82-4.34-33.8 2.75" filter="url(#a)"/><path d="m-56.8-67.08 21.96-.69 21.48-1.03L-.1-71.38l8.05-3.97 2.66-3.64-1.36-1.73-1.4.63 2.54 2.44 7.63 3.43 10.33 3.73 9.01 3.19 4.77 1.33-1.07-2.48-12.26-9.36-35.18-16.05" filter="url(#a)"/><path d="m37.54-83.3-.27 11.31-9.58 1.49-4.43 1.9-.95 2.69 1.78 2.22 4.11.69 4.76-1.26 2.82-2.83-1.15-3.43-5.73-2.9-9.48-1.63-11.37-.19-10.43 1.13-5.74 2.64 2.63 4.87 12.36 7.37 16.51 7.11-1.15-1.72-67.08-24.35" filter="url(#a)"/><path d="M-19.78-91.29-34.62-73.6l11.02 7.63 6.69 3.04.14-1.37-.53-3.75 2.15-3.93 5.14-3.01 7.07-2 7.35-1.39 5.79-1.2 2.84-1.09-.25-.64-2.11.4-2.36 1.57-2.18 1.86-3.8.44L-6.33-79l-14.96-2.35-17.9 2.67-19.08 12.94" filter="url(#a)"/><path d="m-19.78-91.29-4.2 10.96 20.32.7 14.44.79 3.52.33-2.92-.07-4.05.61-2.72 1.66-2.05 2.09-3.38 1.84-5.92 1.54-7.49 1.65-6.3 2.03-2.42 2.03 2.28 1.12 5.33-.6 5.44-2.19 3.37-2.17 1.03.23-.73 3.71-4.77 3.98-17.01-3.21-19.76-11.41" filter="url(#a)"/><path d="m-17.15-91.79 24.11 4.45 7.14 2.04 6.94 2.68 6.72 4.22 4.42 4.54.11 2.89-4.36.43-6.78-1.3-6.32-1.71-4.01-1.19-1.6-.45-.33.1-.4.31-1.31.25-2.45-.05-3.37-.53-3.79-1.27-3.1-2.15-.62-2.84L-2.5-84l8.41-.86 12.69 2.64 19.3 7.96 25.24 15.42" filter="url(#a)"/><path d="m-10.09-93.67.02 3.89 13.31 8.27 15.58 6.63 7.4 1.86-.56-1.16-3.6-.99-2.63.7-.25 1.71 1.72 1.22 2.8-.02 3.17-.53 3.04.4 2.51 1.83 2.64 1.82 4.99-1.07-7.11-16.63m46.6 71.51 2.61-1.75-.36-1.81-.06-1.98 1.18-2.16 2.21-2.3 2.49-2.24 2.06-2.01 1.25-1.7.49-1.48-.03-1.38-.2-1.41-.13-1.57.13-1.83.43-2.15.63-2.46.46-2.59-.09-2.46v-2.67M-4.02-94.13l.04-.66-1.09-.82-1.32-.74-1.3-.75-1.25-.98-1.2-1.12-1.19-.97-1.25-.72-1.36-.55-1.44-.57-1.49-.69-1.5-.76-1.55-.74-1.69-.68-1.9-.68-2.07-.77-2.11-1.05-1.92-1.25-.89-.2" filter="url(#a)"/><path d="m23.13-121.46-2.36 3.09-2.82 3.21-2.46 2.75-2.01 1.74-1.69.9-1.48.62-1.39.74-1.4.97-1.48 1.2-1.55 1.55-1.55 2.06-1.42 2.41-1.2 2.33-1.12 1.84-1.39 1.31-1.83.61 1.34.16-.19.06.91.52 1.08.65 1.06.56 1.09.44 1.2.45 1.26.61 1.22.85 1.13 1.03 1.06 1.07 1.04.92 1.08.7 1.16.58 1.23.72 1.26 1.06 1.19 1.3.81 1.24.01.54" filter="url(#a)"/><path d="m-25.48-103.02 2.94.92 2.24 1 1.6 1 1.31.7 1.29.42 1.37.35 1.38.44 1.3.54 1.16.55 1.04.4 1.04.23 1.13.31 1.33.73 1.59 1.01 2.08.45-34.85 12.87 1.13-.97.9-.76.95-.66 1.05-.63 1.21-.65 1.28-.71 1.28-.72 1.17-.71 1.06-.64.97-.57.98-.52 1.04-.49 1.16-.48 1.27-.47 1.36-.47 1.37-.46 1.33-.43 1.25-.4 1.2-.35 1.24-.32 1.33-.28 1.31-.22.88-.16-.17-.13" filter="url(#a)"/><path d="m-10.98-93.3.15-.06-.86.29-1.26.5-1.28.62-1.19.59-1.18.48-1.24.37-1.34.33-1.39.32-1.37.38-1.27.43-1.14.49-1.02.54-.95.58-.95.63-1.02.69-1.14.78-1.2.86-1.2.88-1.12.83-1.01.72-.93.64-.9.72-1.02 1.14M79.8-15.15l-.02 1.37.17 1.5.19 1.3.16 1.21.16 1.26.19 1.3.25 1.33.29 1.33.3 1.33.29 1.36.23 1.37.16 1.32.1 1.24.05 1.21.01 1.3-.03 1.52-.07 1.73-.09 1.75-.07 1.5-.01 1.21.05 1.19" filter="url(#a)"/><path d="m-10.88-93.13-2.13.29-1.53.42-1.17.45-1.07.42-1.18.37-1.34.39-1.42.42-1.39.45-1.28.48-1.14.47-1 .49-.92.49-.92.53-1.03.59-1.22.67-1.36.71-1.37.7-1.2.63-1.01.66-1.07 1.09 2.79-9.81 1.91-.52 1.47.15 1.02.19.89.06.95-.06 1.13-.09 1.3-.13 1.44-.17 1.53-.21 1.52-.17 1.42-.07 1.25.06 1.14.13 1.25.08 1.61-.01 2.13-.15-11.77 2.65-1.77.35-1.36-.41-1.19-.64-1.1-.43-1.16-.12-1.34.12-1.49.27-1.53.33-1.48.3-1.44.14-1.42-.08-1.42-.28-1.42-.43-1.44-.5-1.49-.57-1.63-.66-1.88-.78-2.22-.89-2.56-.77-2.37.77L-3.1-108.7l-2.28 1.22-1.59 1.85-1.26 1.75-1.09 1.4-1 1-.99.71-1.06.66-1.12.88-1.13 1.18-1.08 1.4-1.02 1.44-1.04 1.25-1.21.96-1.46.69-1.57.63-1.45.94-1.66 1.22 1.83-.6 1.61-.42 1.61-.4 1.49-.32 1.31-.2 1.23-.06 1.21.05 1.23.11 1.21.13 1.16.13 1.1.18 1.06.31 1.08.48 1.11.65 1.13.74 1.13.73 1.09.66 1.04.61 1 .58.93.51.82.32.78.25 1.16.97m69.74 95.92.62-.96.48-1.01.57-1.3.59-1.53.5-1.52.34-1.36.23-1.18.23-1.12.31-1.16.4-1.24.4-1.28.3-1.28.15-1.27.08-1.28.14-1.29.29-1.31.41-1.3.41-1.29.32-1.36.32-1.48.38-1.55.06-1.44" filter="url(#a)"/><path d="m-2.73-95.83-2.07.41-1.53.23-1.26.18-1.09.18-.99.22-.99.25-1.05.28-1.14.3-1.2.33-1.19.36-1.16.38-1.17.44-1.28.48-1.42.52-1.52.53-1.45.49-1.23.41-.65.21-2.19 1.25 1.27-1.81 1.02-1.36 1.3-.66 1.48-.5 1.47-.77 1.33-1.18 1.17-1.48 1.08-1.59 1.08-1.58 1.11-1.61 1.1-1.76 1.07-1.98 1.01-2.19 1-2.25 1.04-2.15 1.14-1.87 1.25-1.51 1.32-1.21 1.33-1.14 1.36-1.51 1.43-2.28 1.44-3.09.45-3.3" filter="url(#a)"/><path d="m-4.57-106.9.13.8-1.1.98-1.34.84-1.28.78-1.16.77-1.07.78-1.06.71-1.13.56-1.21.44-1.25.43-1.24.5-1.23.6-1.26.7-1.31.8-1.38.96-1.37 1.17-1.25 1.38-1.09 1.52-.93 1.43-.82 1.08-.17 1.01.24.14-2.65-1.13-2.7-1.36-2.1-.51-1.51.16-1.13.58-.95.75-.91.72-.95.51-1.05.21-1.19-.07-1.42-.36-1.75-.65-2.14-.92-2.44-.75-2.54.2" filter="url(#a)"/><path d="m-26.85-88.52-.27-.81.19-1.19.71-.9 1.06-.61 1.29-.47 1.43-.47 1.46-.53 1.42-.56 1.32-.54 1.26-.46 1.22-.39 1.24-.37 1.23-.39 1.17-.46 1.07-.5.97-.53.97-.58 1.05-.6 1.16-.6 1.15-.7-23.2 12.38 1.24-.54.56-.46.56-.55.76-.64.97-.72 1.13-.84 1.26-1 1.32-1.12 1.3-1.15 1.23-1.06 1.14-.85 1.15-.63 1.26-.51 1.38-.55 1.31-.72.82-.71-.26-.55-51.94.79 4.28 3.57 2.58.24 1.92-.61 2-.23 2.19.43 2.28.96 2.17 1.17 1.9.99 1.55.55 1.29.17 1.29.24 1.57.88 1.92 1.74 2.01 2.02 1.75 1.06 2.06-.62-3.02 1.69 2.62-1 2.09-.15 1.57.27 1.16.26.95.01.92-.25 1.01-.43 1.14-.47 1.28-.41 1.36-.27 1.4-.1 1.35.05 1.29.13 1.23.09 1.21.01 1.21-.1 1.13-.18.99-.17.86-.01.86.26.64.16" filter="url(#a)"/><path d="m-57.81-76.06 1.58-1 1.22-.34 1.15-.28 1.14-.26 1.11-.23 1.05-.23 1.03-.29 1.05-.42 1.13-.59 1.17-.75 1.21-.84 1.23-.82 1.22-.7 1.19-.53 1.13-.39 1.04-.33.95-.37.95-.4 1.06-.3 1.22-.23 1.24-.39M-36.32-84l1.68.4 1.42.41 1.33-.18 1.46-.31 1.52-.17 1.4-.01 1.23.2 1.13.46 1.17.79 1.29 1.08 1.43 1.2 1.53 1.07 1.57.73 1.54.34 1.37.03.86-.1-.17-.09" filter="url(#a)"/><path d="m-17.31-79.89-1.97-.92-1.43-.49-1.24-.31-1.14-.32-1.09-.49-1.11-.62-1.22-.63-1.39-.5-1.54-.35-1.6-.2-1.53-.04-1.34.12-1.15.3-1.01.43-.96.53-.9.53-.68.32-2.22 1.43 1.31-.94.51-1.26.32-1.53.38-1.66.49-1.63.63-1.59.8-1.54.98-1.41 1.17-1.15 1.31-.85 1.34-.57 1.27-.42 1.16-.4 1.09-.48 1.08-.67 1.15-.92 1.25-1.19 1.37-1.39 1.44-1.43 1.38-1.35 1.07-1.37.7-1.61 1.36-1.21m-24.07 26.85-1.84.45-1.8.27-1.72.12-1.53.1-1.27.13-1.07.13-1.06.09-1.23-.04-1.55-.31-1.89-.58-2.17-.66-2.37-.41-2.6-.02-2.77-.18-1.85-1.89" filter="url(#a)"/><path d="m-50.35-56.81.2-1.93v-1.71l.11-1.81.29-1.92.48-1.76.6-1.43.63-1.2.58-1.06.56-.92.6-.73.67-.56.74-.53.83-.67.94-.9.96-1.25.66-2.17.16-3.46-21.06 7.14 1.62.27 1.15-.53 1.47-.88 1.63-.73 1.65-.38 1.59-.06 1.49.08 1.32.05 1.1-.08.91-.22.86-.36.95-.54 1.08-.77 1.14-.96 1.48-1.01-1.85 2.19-5.54-4.73-.51 1.31-.17 1.28-.88.29-1.41-.24-1.64-.29-1.8-.21-1.99-.18-2.15-.14-2.17-.03-1.96.18-1.64.46-1.3.74-1.11 1-1.15 1.18-1.53 1.04-2.33.15-2.91-2.26" filter="url(#a)"/><path d="m-47.62-76.08-.3.5-.12.68-.19 1.05-.36 1.22-.56 1.17-.76 1.08-.94 1-1.05.97-1.07.97-1.02.95-.92.98-.83 1.03-.74 1.1-.68 1.2-.64 1.27-.6 1.32-.57 1.3-.57 1.29-.61 1.26-.63 1.31-.54 1.41-.32 1.37.19.57" filter="url(#a)"/><path d="m-47.62-76.08 2.15-.79 1.31-1.02 1.34-.75 1.39-.44 1.3-.35 1.1-.45.92-.6.81-.68.8-.68.87-.6.98-.48 1.11-.38 1.24-.32 1.34-.28 1.39-.27 1.34-.25 1.21-.22 1.04-.18.92-.16.93-.15 1.05-.13 1.16.01.88.17L-83.4-66l1.96-.28.75-.5.61-.84 1.12-.81 1.72-.55 2.06-.31 2.13-.22 2.05-.23 1.97-.26 1.92-.26 1.91-.22 1.86-.19 1.78-.22 1.66-.29 1.59-.4 1.54-.49 1.55-.52 1.54-.47 1.47-.41 1.31-.42 1.09-.53.87-.62.57-.48.11.12" filter="url(#a)"/><path d="m-33.29-107.72.32.83-.28 1.86-.91 2.2-1.22 2.17-1.25 1.91-1.14 1.64-.96 1.49-.78 1.49-.68 1.47-.68 1.34-.77 1.06-.89.82-.98.76-.99.97-.94 1.3-.92 1.57-.9 1.73-.72 1.95-.32 2.35.15 2.31.38.83" filter="url(#a)"/><path d="m-48.53-74.93-.12-1.33.05-1.18-.04-2.15-.03-2.82.14-2.93.37-2.68.56-2.32.66-2.01.67-1.79.64-1.61.67-1.4.75-1.2.79-1.18.72-1.53.49-2.27.26-3.18.3-3.92.94-4.03 1.91-3.2-12.76 45.03-1.31.09-1.56 1.08-1.41 1.11-1.3.76-1.3.48-1.39.36-1.47.36-1.5.46-1.44.61-1.28.76-1.15.9-1.14.95-1.29.87-1.63.69-1.94.49-1.78.35-.36.12 21.24-8.3.61-2.13.14-1.74.59-.97.9-.58.84-.6.65-.83.53-1.07.54-1.27.65-1.42.75-1.54.84-1.6.9-1.53.95-1.33 1-1.04.97-.84.89-.8.8-.9.77-1.01.81-1.13.82-1.47.73-1.98-23.42 59.12.68-1.86.21-1.6.18-1.25.2-1.28.09-1.49-.12-1.67-.27-1.7-.29-1.64-.19-1.53-.04-1.48.11-1.46.22-1.47.33-1.44.44-1.38.56-1.31.63-1.3.63-1.34.56-1.41.49-1.37.51-1.18.56-.94.69-1.03 1.56-2.21-2.96 3.63.22-.45-.42.63-.62 1.03-.7 1.19-.7 1.29-.62 1.37-.47 1.46-.29 1.58-.09 1.7.1 1.81.22 1.85.28 1.77.23 1.63.14 1.49.06 1.44v1.47l-.07 1.5-.15 1.41-.19 1.27.03 1.37.51 2.02.47 2.53-5.11 1.59.39-1.76.29-1.37.29-1.42.19-1.54.05-1.59.02-1.56.08-1.51.2-1.42.32-1.33.4-1.2.43-1.12.37-1.13.28-1.24.15-1.42.08-1.59.09-1.64.23-1.55.46-1.38.72-1.19.92-1.06.93-1.08.67-1.35.22-1.88.24-2.16" filter="url(#a)"/><path d="m-56.8-67.08-1.3.69-1.04.82-1.25.81-1.38.71-1.46.58-1.56.44-1.67.37-1.71.37-1.71.36-1.75.25-1.92.02-2.18-.21-2.33-.19-2.23.22-1.95.75-1.82.88-1.94.07-1.7-1.83" filter="url(#a)"/><path d="m-57.96-65.31.12-.81.58-1 .58-1.21.58-1.51.62-1.73.59-1.85.46-1.92.34-1.88.33-1.7.43-1.38.59-1.04.73-.85.77-.95.71-1.36.6-1.91.53-2.33.61-2.36.84-2.01.99-1.62.77-1.77.24-1.72m10.66 32.67-1.8-.15-1.17.44-1.14.26-1.16-.11-1.13-.29-1.12-.28-1.18-.22-1.34-.24-1.52-.28-1.65-.23-1.67-.01-1.55.27-1.33.56-1.01.78-.74.91-.78.77h-1.51l-2.36-.42-1.92 2.79-.21-.05-.62.87-.8 1.1-.85 1.12-.83 1.05-.74.97-.65.94-.61.98-.61 1.07-.65 1.17-.7 1.21-.74 1.23-.74 1.22-.74 1.27-.73 1.34-.73 1.39-.73 1.4-.75 1.38-.73 1.37-.65 1.42-.5 1.47 17.04 2.77-2.22-2.9-.54-2.17.29-1.44.37-1.21.08-1.42-.18-1.69-.29-1.79-.29-1.72-.3-1.62-.39-1.63-.41-1.73-.29-1.79.03-1.7.39-1.48.59-1.25.48-.97-.05-.18.41-.8-.61 1.91-.48 1.69-.56 1.45-.56 1.29-.49 1.14-.44 1.07-.44 1.06-.48 1.12-.46 1.25-.34 1.4-.14 1.55.05 1.67.16 1.76.14 1.78.06 1.72-.03 1.65-.09 1.57-.14 1.49-.16 1.4-.09 1.33.27 1.3.81 1.27.92-28.07-.64 1.64-.59 1.16-.46.86-.48.9-.56 1.1-.62 1.25-.65 1.3-.63 1.31-.63 1.31-.63 1.33-.64 1.38-.63 1.4-.62 1.41-.58 1.41-.53 1.38-.48 1.33-.41 1.28-.37 1.2-.32 1.09-.3.97-.25.69-.08.1" filter="url(#a)"/><path d="m-64.06-58-.99 1.31-.86.94-.65.67-.82.58-1.14.62-1.31.76-1.33.86-1.32.85-1.38.8-1.47.81-1.49.95-1.39 1.12-1.35 1.12-1.69.92-2.23 1.24 18.84-11.91 2.64.49.67-1.21.43-1.37.72-1.06 1.09-.72 1.33-.52 1.36-.49 1.24-.57 1.05-.69.92-.8.92-.86 1.05-.84 1.3-.65 1.51-.31 1.55-.03 1.29-.14.92-.65 1.14-.4M77.8-25.44l-.55 2.81.53 1.65.53 1.55.34 1.7.19 1.75.11 1.69.04 1.56v1.45l-.03 1.36-.06 1.32-.12 1.31-.21 1.31-.32 1.31-.44 1.32-.51 1.32-.5 1.32-.41 1.26-.29 1.15-.22 1.06-.28 1.12-.42 1.39-.54 1.77-.58 1.81-.69.85 4.43-35.14 1.18 2.3 1.29 1.44 1.06 1.42.71 1.64.42 1.78.28 1.75.37 1.6.54 1.42.71 1.29.81 1.26.84 1.31.86 1.39.84 1.31.83 1.04.82.68 1.03.93" filter="url(#a)"/><path d="m-66.07-53.88 1.38-1.79 1.4-1.02 1.69-.39 1.79-.13 1.65-.2 1.37-.49 1.04-.83.77-1.12.63-1.2.68-1.12.86-.88 1.1-.66 1.3-.48 1.39-.4 1.39-.36 1.29-.34 1.19-.28 1.09-.18 1.02-.05.96.11.94.19 1.19.1 1.99-.35m-11.56-8.39-1.04 1.01-.89.73-1 .93-1.11 1.12-1.1 1.14-1.01 1.06-.92.99-.85.99-.84 1.02-.84 1.09-.85 1.11-.83 1.13-.82 1.12-.81 1.12-.81 1.14-.81 1.17-.75 1.16-.62.98-.33.57-.03.2m-.65 1.79-5.13-1.09-3.87-.72-.95 1.01.08 1.74v1.84l-.39 1.73-.84 1.5-1.41 1.17-2.17.75-2.99.31-3.56-.01-3.62-.1-3.06.12-2.19.48-1.71.6-1.86.21.12.2 28.47-.5-1.57.39-.35 1.3-.38 1.45-.65 1.31-.81 1.13-.87.99-.82.9-.75.87-.7.9-.69 1.02-.75 1.25-.87 1.53-.98 1.61-.97 1.23-.72.66M79.35-48.97l-.4 1.07-.19 1.95-.39 2.16-.42 2.02-.29 1.89-.08 1.82.16 1.76.42 1.63.63 1.46.61 1.31.26 1.33-.31 1.49-.75 1.65-.6 1.51-.25.76M-83.84-15.05l.49-3.26.46-1.73.37-1.41.42-1.36.58-1.28.74-1.2.84-1.17.87-1.24.8-1.32.69-1.36.58-1.3.49-1.2.46-1.09.46-1.04.51-1.05.54-1.12.59-1.24.6-1.37.65-1.4.69-.94-.14.65.1 2.42-.49 1.51-.44 1.27-.32 1.17-.19 1.14-.04 1.17.14 1.28.34 1.46.54 1.64.68 1.73.74 1.73.68 1.62.51 1.48.31 1.35.13 1.29.04 1.27v2.46l.18 1.17.64 1.12 1.09 1.7-6.44-26.59.66-1.28.84-1.32.99-1.18 1.15-1.1 1.23-1.03 1.22-.97 1.12-.94.98-.99.86-1.05.78-1.04.8-.93.9-.74 1.01-.58 1.12-.48 1.14-.52 1.12-.61 1.03-.73.93-.81.87-.87.9-.88 1.1-.8 1.3-.56 1.07.15" filter="url(#a)"/><path d="m77.15-28.04.65-.8.24-1.32-.43-1.21-.63-1.32-.49-1.53-.28-1.69-.07-1.77.07-1.8.08-1.77-.01-1.73-.15-1.66-.2-1.58-.16-1.48v-1.4l.19-1.31.32-1.18.07-.91m7.17 54.77v-3.43l-.21-1.76-.2-1.19-.19-1.19-.2-1.31-.21-1.35-.25-1.34-.28-1.34-.31-1.37-.36-1.46-.41-1.56-.44-1.64-.44-1.68-.41-1.66-.33-1.57-.27-1.44-.25-1.28-.3-1.08-.43-.92-.55-.86-.31-.39" filter="url(#a)"/><path d="m80.83-10.83-.25-1.09-.23-1.63-.21-1.76-.25-1.81-.29-1.76-.31-1.62-.31-1.47-.31-1.33-.3-1.18-.29-1.08-.31-1.03-.33-1.07-.33-1.1-.33-1.12-.34-1.07-.68-1.46m-.82-1.63 1.35 1.33 2.38.61 2.51.42 2.36.48 2.19.57 1.9.65 1.61.77 1.56.87 1.87.95 2.41 1.02 2.95 1.12 3.3 1.31 3.26 1.58 2.66 1.85 1.23 2.22-.66 3.24" filter="url(#a)"/><path d="m74.63-35.91.78 1.59 1.04 1.39 1.07 1.17 1 1.05.92 1.01.83 1 .74 1.01.68 1.05.67 1.12.72 1.22.79 1.34.85 1.48.87 1.61.86 1.69.89 1.7 1.01 1.64 1.16 1.5 1.21 1.36 1.07 1.33.78 1.46.57 1.72.88 1.93L96.09-4l-22.77-6.24.72-2.28.17-1.78-.09-1.75-.04-1.72.12-1.62.25-1.53.27-1.39.19-1.27.03-1.15-.08-1.11-.12-1.13-.05-1.24.05-1.35.06-1.45-.1-1.54-.31-1.62-.44-1.72-.41-1.83-.4-1.91" filter="url(#a)"/><path d="m73.57-38.81.39-.14.4 1.07.62 1.43.84 1.45 1.06 1.33 1.28 1.13 1.35.98 1.23.94.97.97.72 1.01.59.97.61.93.7 1.08.82 1.57.84 1.97-14.22-19.85.98 1.99.41 1.27.31 1.38.23 1.58.17 1.68.15 1.64.17 1.53.2 1.39.22 1.28.2 1.2.2 1.14.22 1.11.26 1.12.32 1.18.31 1.27.25 1.43.12 1.58v1.72l-.09 1.78-.13 1.73-.16 1.57-.21 1.3-.15 1.01-4.47-35.05.9-1.2 2.39-2.79 2.19-2.83 1.11-2.38.11-2.02-.64-1.64-1.11-1.3-1.11-1.19-.54-1.55.4-2.26 1.27-2.99 1.63-3.27 1.28-2.9.51-2.08-.14-1.42-.08-1.53.79-2.66 1.42-3.39" filter="url(#a)"/><path d="m44.92-62.32.8-.45.85-.14.93-.01 1.08.05 1.21.17 1.27.35 1.32.51 1.36.61 1.38.66 1.32.69 1.19.73 1 .77.8.8.69.79.72.73.81.69.91.67.92.7.92.68 1.04.56 1.16.35.5.11 1.35 3.18.01 2.09.03 1.39.41 1 .58.96.54 1.12.38 1.31.25 1.47.13 1.55.03 1.61-.02 1.65-.04 1.68-.03 1.67-.01 1.58-.01 1.47-.05 1.37-.17 1.34-.28 1.34-.31 1.28-.7.84-1.72-29.65.8.72 1.3 1.37.99 1.24.78 1.04.8.89 1.03.82 1.33.76 1.61.73 1.77.76 1.78.83 1.65.97 1.46 1.15 1.31 1.31 1.28 1.38 1.34 1.33 1.46 1.2 1.48 1.09 1.39 1.08 1.31 1.14 1.5 1.04 2.4.05-28.77-20.9-.2-2.14-.29-1.39.26-1.82.56-2.16.42-2 .05-1.59-.31-1.23-.53-1.12-.57-1.28-.53-1.59-.44-1.91-.4-2.1-.45-2.11-.54-1.97-.61-1.8-.57-1.67-.43-1.6-.31-1.47-.3-1.28-.33-1.18-.18-1.65-.21-2.77" filter="url(#a)"/><path d="m67.47-52.05.78.72 1.28 1.39 1.02 1.23.85.98.94.81 1.21.7 1.55.63 1.92.58 2.23.52 2.39.54 2.34.65 2.07.89 1.7 1.19 1.41 1.4 1.38 1.41 1.63 1.22 1.99.97 2.39.8 3.19.72 5.43.95-39.63-21.44 2.03-.87 1.27.39 1.77.44 1.6.83 1.06 1.28.81 1.39 1.12 1.08 1.86.53 2.72.01 3.34-.28 3.46-.22 2.98.18 2.03.81.9 1.52.03 2.07-.18 2.31.39 2.11 1.55 1.55 2.66.91 2.99.58 2.25.72 1.21.27-40.25-21.26 2.95-3.13 2.38-3.25.02-1.37-1.44-.37-1.76-.44-1.39-1.07-.83-1.74-.4-2.19-.22-2.26-.27-2.03-.42-1.66-.55-1.33-.6-1.14-.61-1.12-.64-1.19-.73-1.31-.83-1.53-.83-1.9-.68-2.42-.47-3.01-.39-3.46-.57-3.48-.86-2.31 9.3 44.12.14-1.83.49-1.86-.04-1.69-.59-1.57-.63-1.83-.24-2.38.16-2.83.3-2.89.13-2.51-.26-1.85-.61-1.19-.78-.83-.7-.88-.44-1.33-.26-1.91-.28-2.35-.49-2.62-.51-2.71v-1.62l2.49 33.75-.84-.99-1.24-1.18-1.18-1.21-1.06-1.17-.99-1.07-.96-.93-.89-.8-.8-.68-.69-.6-.66-.54-.72-.52-.86-.56-1.1-.69-1.45-.96-2.01-1.54 13.18 10.94-.62-2.05-.82-1.32-.55-1.62-.2-1.93-.08-1.85-.2-1.49-.45-1.07-.69-.8-.85-.78-.93-.96-.92-1.26-.88-1.58-.85-1.81-.83-1.95-.82-1.98-.79-1.93-.77-1.8-.77-1.56-.79-1.28-.7-1.19-.44-1.47-1.08-1.81 23.95 55.49-.69-1.36-.12-1.21-.05-1.37-.3-1.48-.59-1.45-.76-1.3-.79-1.15-.73-1.07-.59-1.08-.43-1.17-.28-1.26-.17-1.29-.16-1.22-.22-1.11-.4-1.04-.62-1.06-.89-1.22-1.19-1.47L57.44-66" filter="url(#a)"/><path d="m57.34-66.21-1.44-1.45-1.03-1.09-.85-.8-.75-.63-.69-.6-.72-.66-.8-.76-.92-.86-1.03-.96-1.12-1.02-1.19-1.02-1.22-.99-1.21-.92-1.19-.83-1.15-.71-1.1-.61-1.06-.53-1.03-.5-1.04-.5-1.07-.53-1.08-.52-1.05-.46-1.02-.4-1.25-.58m15.85-22.75.74 2.88-.27 3.07.24 2.27.72 1.59.86 1.51.81 1.82.74 2.18.73 2.33.78 2.25.84 2.06.86 1.85.82 1.6.73 1.37.47 1.3-.1 1.73-.9 2.59-1.2 3.09-.07 2.59" filter="url(#a)"/><path d="m40.34-99.02.52 1.02.74 1.39.83 1.63.73 1.71.7 1.57.76 1.32.9 1.09.97 1.07.94 1.29.85 1.66.71 2.02.59 2.26.55 2.3.58 2.11.62 1.79.63 1.41.53 1.11.4.91.33.65.17.01.07.57-.21-1.54-.71-.61-.89-.65-1.03-.86-1.11-1.04-1.16-1.13-1.18-1.18-1.16-1.17-1.12-1.12-1.07-1.06-1.02-.96-.97-.89-.95-.81-.94-.77-.96-.77-.97-.78-.95-.81-.93-.83-.88-.81-.89-.78-.99-.74-1.25-.74-1.57-.85 21.48 19.27 2.85-2.43 1.17-.12.37 1.17.58 1.26 1.07.94 1.41.72 1.53.71 1.53.78 1.49.83 1.45.77 1.44.58 1.48.37 1.51.19 1.55.15 1.58.22 1.64.31 1.69.33 1.71.3 1.77.41 2.28.91" filter="url(#a)"/><path d="m50.33-73.48-.44 3.1.3 1.17.79.27.85.26.73.6.61 1 .5 1.36.41 1.61.41 1.74.48 1.69.62 1.48.72 1.25.72 1.04.6.98.41 1 .26 1.1.14 1.23.04 1.35-.09 1.47-.19 1.51-.14 1.41.12 1.06.09.37 13.51-22.8-2.04-.93L68-70.1l-1.77-.93-1.76-.82-1.71-.7-1.58-.64-1.4-.62-1.24-.54-1.15-.38-1.11-.21-1.08-.16-1.06-.22-1.2-.26-1.53-.16-1.86-.1-1.69-.34-.61-.4 1.86-1.54 1.68.35.92 1.45.59 1.54.63 1.09.9.48 1.26-.05 1.57-.35 1.77-.38 1.86-.2 1.9.04 1.98.21 2.14.28 2.35.23 2.48.13 2.38.07 1.96-.05 1.8-1.36-35-5.64 1.13 1.03 1.36 1.27 1.34 1.11 1.28 1.05 1.18 1.05 1.07 1.03.94.96.81.86.73.78.68.76.69.79.73.87.78.99.84 1.11.89 1.21.91 1.29.93 1.33.89 1.3.81 1.19.67 1.01.51.79.38.59.17.13" filter="url(#a)"/><path d="m41.94-80.65-.06 1.76 1.08.81 1 1.4.68 1.98.63 1.99.79 1.59.97 1.12.97.82.81.76.63.83.53.88.53.89.58.95.58 1.09.48 1.36.33 1.68.21 1.92.18 1.99.14 1.94-.04 1.88-.39 1.89-.53 1.68.29 1.14-17.04-36.39 1.51-6.24-1.35.37-1.7.93-1.57.3-1.38-.36-1.19-.9-1.03-1.33-.94-1.61-.91-1.76-.94-1.81-.98-1.83-1.01-1.91-.98-2.06-.86-2.31-.75-2.57-.7-2.74-.8-2.73-1.07-2.45-1.42-2.06-1.65-1.74-1.73-1.74-1.63-2.28-.97-3.41 23.32 42.09-.9-1.32-.65-1.61-.85-1.57-.94-1.59-.94-1.67-.91-1.64-.96-1.42-1.04-1.11-1.17-.84-1.25-.79-1.29-.98-1.23-1.34-1.05-1.67-.74-1.81-.4-1.76-.09-1.73-.11-1.8 12.9 23.75.99 1.24.7 1.16.91.79 1.06.54 1 .62.78.93.6 1.26.53 1.42.62 1.39.8 1.21.98 1.05 1.03 1.07.94 1.27.77 1.57.63 1.76.57 1.68.53 1.38.27 1.14-.25 1.41" filter="url(#a)"/><path d="m32.94-85.74-.5-.6-1.12-.77-1.12-1.2-.85-2.02-.54-2.96-.37-3.54-.44-3.38-.73-2.47-1.12-1.18-1.46-.03-1.59.54-1.48.41-1.23-.27-1.01-1.1-.94-1.79-1.07-2.13-1.3-2.1-1.5-1.85-1.58-1.68-1.52-2.16-.85-3.96m22.42 33.84-.11 1.69.35 1.53.72.88.81.84.75 1.09.63 1.31.52 1.41.44 1.45.38 1.51.33 1.63.28 1.84.29 2.07.31 2.21.14 2.2-.37 1.49" filter="url(#a)"/><path d="m33.04-86.14-1.69-.73-1.44-.68-1.25-.67-1.14-.68-1.11-.7-1.1-.7-1.15-.66-1.2-.63-1.22-.62-1.18-.63-1.07-.64-.97-.64-.91-.63-.98-.66-1.14-.75-1.32-.87-1.43-.92-1.46-.82-1.45-.53-1.04.02 53.58 16.7-1.29 1.43-1.23.4-.95-.38-1.01-.67-1.3-.65-1.59-.53-1.79-.38-1.89-.23-1.92-.11-1.84-.09-1.7-.13-1.5-.26-1.29-.43-1.12-.62-.99-.79-.95-.88-.99-.79-1.1-.49-1.26-.04-1.37.36-1.36.39-1.29.02-1.36-.35-1.87.15L.83-122.46l2.39 3.41 2.12 2.29 1.61 2.54 1.28 2.54 1.21 2.01 1.31 1.26 1.43.67 1.52.45 1.5.59 1.39.85 1.22 1.08 1.05 1.24.9 1.44.84 1.67.89 1.82 1.04 1.67 1.22 1.13 1.3.57 1.18.66.85 1.66.56 2.62.83 2.25" filter="url(#a)"/><path d="m26.5-88.5-.32-1.26-1-1.05-1.18-.53-1.28-.45-1.27-.62-1.14-.87-.97-1.2-.82-1.61-.78-2.01-.84-2.31-.99-2.4-1.15-2.25-1.28-1.87-1.34-1.42-1.37-.99-1.37-.72-1.38-.62-1.47-.65-1.61-.77-1.71-.97-1.58-1.3-.99-1.66.11-1.38" filter="url(#a)"/><path d="m19.04-91.77 1.66-.65 1.79.01 1.45.19 1.31.12h1.33l1.37-.03 1.38.06 1.36.2 1.34.31 1.31.33 1.3.26 1.29.17 1.3.09 1.31.09 1.32.12 1.33.14 1.36.1 1.38.02 1.42-.05 1.43.02 1.41.27 1.45.73 1.73 1.18 2.36 1.01-36.24-4.74.26-1.3.89-1.14 1.17-.3 1.42-.07 1.52-.07 1.43.1 1.28.42 1.17.67 1.17.68 1.28.45 1.42.12 1.54-.18 1.59-.33 1.56-.4 1.51-.44 1.44-.53 1.41-.56 1.41-.33 1.72.35-31.03 1.58.75-.05 1.49-.18 1.55-.42 1.31-.49 1.08-.35.99-.01 1.02.33 1.12.56 1.21.63 1.27.53 1.29.42 1.29.31 1.3.25 1.32.23 1.37.19 1.4.15 1.43.08 1.4.01 1.34-.06 1.29-.17 1.29-.3 1.33-.21 1.42.88L8.58-93.7l2.26-.68 1.84-1.77 1.79-1.53 1.56-.6 1.24.1 1.05.31 1.07.12 1.24-.3 1.49-.75 1.67-1.01 1.71-.96 1.6-.54 1.44.03 1.35.43 1.42.39 1.64-.11 1.92-.77 2.08-1.11 1.99-.99 1.75-.66 2.12-.97" filter="url(#a)"/><path d="m8.58-93.7 2.06.61L12-92.07l1.25 1.46 1.18 1.31 1.06.76.94.27.9.11.9.31.95.73.96 1.2.91 1.53.81 1.7.73 1.7.66 1.69.61 1.68.64 1.48.8.76-18.06-18.4-.99-.51-1.41-1.5-1.52-2.16-1.37-2.14-1.2-1.49-1.12-.5-1.1.34-1.14.71-1.19.51-1.26-.1-1.34-.87-1.4-1.66-1.45-2.37-1.5-2.91-1.53-3.14-1.58-2.85-1.65-2.03-1.7-.91-1.65-.13-1.45-.23-1.07-.97-.87-.43" filter="url(#a)"/><path d="m5.33-94.11.98-.2.94-.19 1.11-.9 1.34-1.58 1.53-1.76 1.63-1.46 1.65-.96 1.58-.53 1.41-.3 1.2-.23 1.07-.3 1.12-.43 1.39-.53 1.81-.54 2.23-.79 1.89-2.34L5.33-94.11l1.02-.78.92-.18.99-.1 1.12.07 1.25.25 1.35.35 1.41.36 1.39.31 1.25.22 1.05.08.89-.07.87-.17 1.11-.15 1.67.06 2.99.51m-24.65-.82-.34.05-1.14-.08-1.14-.12-1.08-.08-1.1-.04-1.15-.02-1.16-.02h-1.11l-1.02.01-.96.05-.97.1-1.14.14-1.42.16-1.71.16-1.97.19m17.41-.5 1.08.15 1.57.12 1.58.21 1.39.32 1.21.35 1.14.35 1.15.34 1.22.36 1.29.38 1.32.4 1.28.4 1.16.4 1.01.4.9.4.89.43 1.02.46 1.21.53 1.28.6.95.57.22.33" filter="url(#a)"/><path d="m-26.92-108.84 3.14 1.04 2.45 1.54 1.81 1.65 1.53 1.51 1.49 1.14 1.48.69 1.4.24 1.26-.06 1.15-.15 1.11.02 1.15.37 1.22.78 1.28 1.09 1.28 1.22 1.22 1.23 1.18 1.05 1.2.7 1.17.34.36.27" filter="url(#a)"/></g><g fill="none" stroke="#000"><circle cx="11.75" cy="16.682" r="2.374" filter="url(#a)"/><circle cx="11.322" cy="14.074" r="2.164" filter="url(#a)"/><circle cx="12.478" cy="17.574" r="1.784" filter="url(#a)"/><circle cx="11.934" cy="16.178" r="1.434" filter="url(#a)"/><circle cx="13.53" cy="14.514" r="1.022" filter="url(#a)"/><circle cx="12.494" cy="17.858" r="1.09" filter="url(#a)"/><circle cx="11.426" cy="16.602" r="1.594" filter="url(#a)"/><circle cx="12.482" cy="15.942" r="2.812" filter="url(#a)"/><circle cx="13.458" cy="14.19" r="2.446" filter="url(#a)"/><circle cx="12.99" cy="14.282" r="1.896" filter="url(#a)"/><circle cx="-10.672" cy="21.136" r="2.482" filter="url(#a)"/><circle cx="-10.172" cy="21.916" r="1.816" filter="url(#a)"/><circle cx="-9.244" cy="20.264" r="1.9" filter="url(#a)"/><circle cx="-10" cy="18.944" r="2.112" filter="url(#a)"/><circle cx="-9.456" cy="21.456" r="1.88" filter="url(#a)"/><circle cx="-10.08" cy="21.352" r="1.454" filter="url(#a)"/><circle cx="-9.78" cy="22.42" r="1.48" filter="url(#a)"/><circle cx="-11.652" cy="20.424" r="1.35" filter="url(#a)"/><circle cx="-12.636" cy="19.672" r="1.284" filter="url(#a)"/><circle cx="-10.16" cy="22.764" r="1.562" filter="url(#a)"/></g><path fill="#66CC6B" stroke="#000" stroke-linejoin="round" stroke-width="3" d="m27.85 65.07-.13-.14-.43 1.98.15.03-.21.31.02.33-.71 1.17.15-.57-.03.47-.54.72-.69.85.2-.55.1.17-1.75 1.6-.35.41-.66.38.62-.35-.74.37-.39.26-.3.26-.67.36-1.55 1.02.33-.2-2.35 1.01-1.16.47.88-.35-.44.2-.51.19-1.12.35-1.58.48-1.41.36-.46.15.45-.13-.51.15-2.56.52-1.09.14-.25.06-.44.11-1.63.19-.32.03-2.44.22 1.65-.15-1.32.1-.4.02-2.92.15-.98.01.09-.02-.19.02-2.71-.06-.11-.01-2.72-.17-.31-.02-.94-.09-1.17-.13-.18-.02-2.77-.4-.8-.13-.16-.05-1.73-.32.56.12-.06-.01-3.54-.84.1.05-.03-.01-2.7-.83.95.32-2.96-.94 1.35.47-.7-.29-1.85-.71.33.18-2.48-1.09.4.21-.37-.23-1.91-.96-.42-.15-.79-.51-1.74-1.06.41.25-.32-.28-.69-.43-.56-.31.1-.13-2.18-1.75 1.16 1.13-.88-.87-1.25-1.35.07-.15-.43-.48-.77-1.09-.01-.17.48.6-.82-.96-.04-.32-.41-.8.17-.01-.38-1.26.19.6-.18-1.56.04-.01-.08-.8.18-.62.2-1.07-.41 1.17.29-.62.63-1.64-.41 1.01.41-1.5.31-.6.25-.29 1.03-.97-.1.12.77-.82-.6.51.62-.68.66-.39 1.16-1.01-.58.47.79-.63.42-.24.94-.59-.2.1 1.51-.77-.36.2 2.71-1.19.05-.01.42-.2 1.97-.58 1.04-.32.65-.24.64-.14-1.33.34 2.49-.61 1.87-.33-.49.1.42-.05 2-.34.34-.05.35-.04-.09-.02 2.89-.27 1.4-.08-1.05.04 3.24-.14-.03-.01-.09.02 1.55-.02 2.02.03 1.72.07-.98-.04 3.42.22-.53-.04 1.23.11-1.11-.1 3.95.45-1.09-.16 1.47.22 1.56.26.89.14.29.06 1.72.34 2.69.67-1.27-.31 2.59.73-1.11-.32 2.63.8 1.28.4.39.2.12.02-.38-.17 1.38.52 1.41.65.49.24 1.67.73-.88-.45 2.47 1.46-.51-.46.44.37 1.87 1.08.43.41-.48-.26 1.74 1.14.7.72.06.02-.18-.13.4.45.58.6.62.62.06.17.22.31.83 1.53.04-.27.57 1.24-.03.17.06.48.09-.12-.04.31.27 1.41-.02-.59.25 1.57" filter="url(#a)"/></svg>