<svg xmlns="http://www.w3.org/2000/svg" width="500" height="500" viewBox="-100 -100 200 200"><defs><clipPath id="c"><path d="m35.18.73-.24-.3-.28-.3-.31-.31L34-.49l-.38-.32-.42-.31-.46-.31-.5-.3-.54-.3-.57-.3-.61-.28-.65-.28-.68-.28-.72-.26-.75-.25-.63-.41-.7-.38-.76-.36-.83-.34-.9-.31-.95-.29-1.02-.26-1.06-.24-1.12-.2-1.17-.19-1.22-.15-1.25-.13-1.29-.1-1.32-.08-1.34-.05-1.37-.02L9.4-7.2 8-7.17l-1.41.04-1.42.07-1.41.09-1.42.1-1.4.13-1.4.15-1.38.16-1.36.17-1.34.2-1.32.2-1.29.22-1.26.23-1.23.24-1.19.25-1.16.26-1.11.26-1.08.27-1.04.28-1 .28-.95.28-.91.28-.87.29-.82.28-.79.29-.74.29-.7.28-.66.28-.62.28-.59.28-.55.27-.52.27-.48.26-.46.26-.43.26-.39.25-.37.25-.34.25-.3.24-.28.24-.26.23-.23.23-.2.23-.18.22-.16.21-.13.22-.12.2 4.7 2.62.52.1.54.08.54.09.55.08.56.08.57.07.58.07.59.07.59.06.6.06.61.05.62.05.62.05.63.04.64.04.65.03.66.03.67.02.68.02.69.02.7.01h2.14l.73-.01.73-.02.74-.02.75-.03.75-.03.76-.03.76-.05.77-.04.77-.05.77-.06.78-.05.78-.07.79-.06.79-.07.79-.07.79-.07.8-.07.8-.08.8-.07.81-.08.8-.07.81-.07.81-.07.81-.07.82-.07.81-.07.82-.06.81-.06.82-.05.82-.05.82-.04.82-.04.82-.03.82-.03.82-.02.82-.01.81-.01h.81l.81.01.81.01.67-.03.66-.02.66-.02.66-.03.64-.02.64-.02.62-.01.62-.02.6-.02.59-.02.58-.02.56-.02.54-.03.53-.02.51-.03"/></clipPath><clipPath id="b"><path d="m-32.55 1.8.28-.36.31-.37.35-.37.38-.37.42-.38.46-.38.49-.37.54-.38.56-.37.61-.36.64-.36.68-.34.71-.34.75-.33.79-.32.65-.49.73-.47.79-.44.86-.42.93-.39.98-.37 1.05-.33 1.1-.31 1.16-.28 1.2-.25 1.25-.21 1.28-.19 1.32-.16 1.36-.13 1.38-.09 1.4-.07 1.42-.04 1.43-.01 1.44.01 1.44.05 1.45.06 1.44.1 1.42.11 1.42.14 1.4.16 1.38.18 1.35.2 1.33.22 1.3.23 1.26.25 1.23.26 1.19.28 1.15.29 1.11.3 1.07.31 1.02.31.98.33.93.33.88.33.84.34.8.34.74.34.7.34.66.35.62.34.57.34.54.34.5.33.46.33.43.33.4.32.36.32.33.32.3.31.26.31.23.31.21.3.17.3.15.29.12.29.09.28.07.28.04.27.02.26-6.01 2.1-.7.16-.72.15-.72.14-.73.14-.74.13-.75.13-.75.12-.77.11-.76.11-.78.09-.78.1-.78.08-.79.08-.8.08-.8.06-.8.07-.82.05-.83.05-.83.04-.83.04-.84.03-.85.02-.84.01-.85.01H4.95l-.85-.01-.84-.02-.84-.03-.84-.03-.83-.03-.83-.04-.83-.05-.82-.05-.81-.05-.8-.06-.8-.06-.79-.06-.79-.07-.78-.07-.76-.07-.77-.07-.75-.07-.75-.06-.73-.07-.73-.07-.73-.06-.71-.06-.71-.06-.7-.05-.7-.05-.69-.05-.68-.04-.68-.03-.67-.03-.67-.02-.66-.01-.66-.01h-.65l-.65.01-.64.02-.64.02-.64.03-.63.04-.53-.01h-.53l-.52-.01h-1.01l-.49.01h-.97l-.46.01h-2.55"/></clipPath><filter id="a"><feTurbulence baseFrequency=".05" numOctaves="3" result="noise" type="noise"/><feDisplacementMap in="SourceGraphic" in2="noise" scale="2"/></filter></defs><rect width="100%" height="100%" x="-100" y="-100" fill="#BDF2A6"/><path fill="#A420DF" stroke="#000" stroke-linejoin="round" stroke-width="1.667" d="m72.47-.68.03 2.91-.14-.68.08 2.03-.25.46.05 2.68-.23-.56.02 1.53L72 9.27l-.53 2.62.05 1.12.06-1.64-.61 3.74.3-.86-.56 1.99-.36 1.21-.02.9-.7 2.33.27-.96-.14 1.19-1.09 2.98.1.63-.86 1.56-.65 2.08.07-.36-.4 1.22-.18.51-.96 2.12-.3.83-.3.98-.52 1.2-1.07 1.26-.49 1.2-.01-.22-1.48 3.28.69-1.69-.97 2.2-1.4 1.92-.05.06.1-.05-1.83 2.63-.63 1.2-.63.4-.83 1.42-.99 1.02.35-.26-1.32 1.64-.54.23-.91 1.54.43-.82-1.85 2.34.62-.54-2.92 2.73-.28.54-.29.02-1.48 1.28-.11.16-2.68 2.21.23-.04-1.34.71-1.56 1.45-.49.02.13.17-.25.13-3.39 2.39v-.33l.42-.02-3.06 1.88.9-.63-.29.4-3.48 1.82 1.26-.73-3.25 1.73-.99.45.92-.67-2.07 1.02.46-.13-2.28.99-.65.27-2.5.94.35.09-3 .8-.92.22.3-.1-1.23.27-2.94.92.54-.12-1.02.17-1.16.3-1.85.19-.78.13.06.02-1.27.3-1.03.09-1.21.08-1.41.41-2.96.23.28-.07.69-.04-3.92-.11H-.69l-1.1.1-.35.03-.94-.05-2.18-.12-.34-.04-.12.02-3.15-.27-1.99-.25 1.69.07-2.31-.23-1.72-.56-.39.11-.11-.14-2.52-.67-1.89-.21.15.09.32-.12-1.5-.19-1.77-.5-1.07-.6-2.41-.88-.44-.02-1.7-.9-.71-.3-1.35-.33.62.21-2.31-1.2-.75-.45-2.39-1.24 1.38.81-2.79-1.28.68.11-.61-.21-.95-.65-1.73-.75-.29-.44-.75-.54-2.2-1.47-2.17-1.61 1.27 1.12-2.02-1.86-1.14-.71-.11-.39-1.15-.57-1.08-.98-1.09-.91-.34-.24-.4-.59-.93-1.06-1.54-1.37-.41-.63-.88-.61-.33-.91-.72-.66-.79-.77-1.65-2.4-.01.62-.75-1.79-1.96-1.98.01-.47.05.04-1.49-1.75-.57-1.17.08.06-1.16-2.08-.35-.37-.54-1.29-.35-.25-.85-1.79-.53-1.55-.54-.76.07-.21-.77-1.22-.35-1.33-.71-1.07-.62-2.01-.24-.18-.55-1.22-.66-2.55.48 1.15-.89-2.39-.11-.65-.06-1.04-.58-1.27-.32-1.05-.33-2.71.51 2.3-.95-3.08-.33-2.04-.17-1.43.13-.14-.38-2.26.11.38-.02-.14-.22-3.43.05-.1-.25-2.81-.14.06.12-1.5.04-2.83L-72.5.2l.2-2.02.03-3 .31-1.5-.12-1.01.11-1.44.2-1.55.26-1.9.05 1.13.16-1.33.18-2.38.04-.21.03.12.2-1.43.53-2.5.21-.32.63-1.85.37-1.08.05-.85.59-2.16.45-1.06.22-1.22.69-1.04-.1-.35.63-.62.86-2.56.42-1.3.22.18.66-1.44 1.3-2.75-.14.13-.11.47.16-.62 1.58-2.68.58-1.06.81-1.07-.7.92 1.54-2.75 1.34-1.69.37-.37.8-1.04.25-.27.93-1.39 1.63-1.94-.45.63-.12-.21 2.02-1.8-.08-.14.49-.61 2.07-1.88 1.01-1.23.98-.77-.55.4 2.36-2.32.34.06 1.42-1.47-.12.1.03-.07 2.02-1.56 2.3-1.74v.1l1.29-.91.88-.67.37-.26 1.47-1.07.32.28 1.33-.97-.13.22 3.94-2.29-1.49.66 1.3-.55 2.21-1.08 1.91-.92-.92.38h.13l1.94-.72-.94.1 2.43-.62 1.98-.8.97-.39 1.96-.59.15-.12.65-.13 1.9-.31.22-.14 3.4-.7-1.51.3 1.22-.22 2.03-.35.74-.23 1.99-.21-.86.02 1.7-.24 2.59-.41 1.39.01.72.03 1.56-.11-.25.12 2.33-.12.58.21.25-.25.91.15 2.54.2-.07-.03 1.49.13 1.95.17.22.07 1.87.18-.23.01 2.1.21 2 .31-.4.06 1.8.42 1.97.65-.27-.39 3.17 1.17-1.25-.38 3.05.83-.05-.17 2.48 1.11-1.04-.54 3.42 1.54-.06-.23.39.15.3.13 2.06 1.18 1.26.5.66.32.82.38.73.3.71.56.7.26 2.53 1.41.14.26 2.4 1.78.12-.13-.63-.25 2.15 1.23-.11-.2 2.71 2.07.34.7 1.75 1.53.52.04.76.75.82.71.7.67 1.66 1.95.05-.26 1.59 1.9-.41-.87 1.56 2.08.72.76.09.05.85.92.98 1.38.44.8.3.33 1.6 2.12.4.7 1.14 1.2-.29-.17.24.83 1.04 1.38 1.18 1.74.39 1.18.85.88.73 1.57-1-1.32 1.65 2.86 1.27 2.57-.31-1.05.06.79.93 2.09.06.61.55.57.61 1.68.35.87.24.69.41 1.78.22.97.6 2.3.38 1.3.36.1.03.46.4 1.81.39 2.08.22.98-.12.67.54 1.6-.12-.28.26 4.3-.07-2.97.16 2.99.09.88.03 2.26.3.14.02.56.09.38-.06 2.52.03 2.91" filter="url(#a)"/><path fill="#fff" d="m-32.55 1.8.28-.36.31-.37.35-.37.38-.37.42-.38.46-.38.49-.37.54-.38.56-.37.61-.36.64-.36.68-.34.71-.34.75-.33.79-.32.65-.49.73-.47.79-.44.86-.42.93-.39.98-.37 1.05-.33 1.1-.31 1.16-.28 1.2-.25 1.25-.21 1.28-.19 1.32-.16 1.36-.13 1.38-.09 1.4-.07 1.42-.04 1.43-.01 1.44.01 1.44.05 1.45.06 1.44.1 1.42.11 1.42.14 1.4.16 1.38.18 1.35.2 1.33.22 1.3.23 1.26.25 1.23.26 1.19.28 1.15.29 1.11.3 1.07.31 1.02.31.98.33.93.33.88.33.84.34.8.34.74.34.7.34.66.35.62.34.57.34.54.34.5.33.46.33.43.33.4.32.36.32.33.32.3.31.26.31.23.31.21.3.17.3.15.29.12.29.09.28.07.28.04.27.02.26-6.01 2.1-.7.16-.72.15-.72.14-.73.14-.74.13-.75.13-.75.12-.77.11-.76.11-.78.09-.78.1-.78.08-.79.08-.8.08-.8.06-.8.07-.82.05-.83.05-.83.04-.83.04-.84.03-.85.02-.84.01-.85.01H4.95l-.85-.01-.84-.02-.84-.03-.84-.03-.83-.03-.83-.04-.83-.05-.82-.05-.81-.05-.8-.06-.8-.06-.79-.06-.79-.07-.78-.07-.76-.07-.77-.07-.75-.07-.75-.06-.73-.07-.73-.07-.73-.06-.71-.06-.71-.06-.7-.05-.7-.05-.69-.05-.68-.04-.68-.03-.67-.03-.67-.02-.66-.01-.66-.01h-.65l-.65.01-.64.02-.64.02-.64.03-.63.04-.53-.01h-.53l-.52-.01h-1.01l-.49.01h-.97l-.46.01h-2.55" filter="url(#a)" transform="translate(43.67 -20.58)"/><path fill="#fff" d="m35.18.73-.24-.3-.28-.3-.31-.31L34-.49l-.38-.32-.42-.31-.46-.31-.5-.3-.54-.3-.57-.3-.61-.28-.65-.28-.68-.28-.72-.26-.75-.25-.63-.41-.7-.38-.76-.36-.83-.34-.9-.31-.95-.29-1.02-.26-1.06-.24-1.12-.2-1.17-.19-1.22-.15-1.25-.13-1.29-.1-1.32-.08-1.34-.05-1.37-.02L9.4-7.2 8-7.17l-1.41.04-1.42.07-1.41.09-1.42.1-1.4.13-1.4.15-1.38.16-1.36.17-1.34.2-1.32.2-1.29.22-1.26.23-1.23.24-1.19.25-1.16.26-1.11.26-1.08.27-1.04.28-1 .28-.95.28-.91.28-.87.29-.82.28-.79.29-.74.29-.7.28-.66.28-.62.28-.59.28-.55.27-.52.27-.48.26-.46.26-.43.26-.39.25-.37.25-.34.25-.3.24-.28.24-.26.23-.23.23-.2.23-.18.22-.16.21-.13.22-.12.2 4.7 2.62.52.1.54.08.54.09.55.08.56.08.57.07.58.07.59.07.59.06.6.06.61.05.62.05.62.05.63.04.64.04.65.03.66.03.67.02.68.02.69.02.7.01h2.14l.73-.01.73-.02.74-.02.75-.03.75-.03.76-.03.76-.05.77-.04.77-.05.77-.06.78-.05.78-.07.79-.06.79-.07.79-.07.79-.07.8-.07.8-.08.8-.07.81-.08.8-.07.81-.07.81-.07.81-.07.82-.07.81-.07.82-.06.81-.06.82-.05.82-.05.82-.04.82-.04.82-.03.82-.03.82-.02.82-.01.81-.01h.81l.81.01.81.01.67-.03.66-.02.66-.02.66-.03.64-.02.64-.02.62-.01.62-.02.6-.02.59-.02.58-.02.56-.02.54-.03.53-.02.51-.03" filter="url(#a)" transform="translate(-33.73 -23.91)"/><g fill="none" stroke="#000" transform="translate(43.67 -20.58)"><path stroke-linejoin="round" stroke-width="1.667" d="m-33.87 4.52.04-.16.06-.2.07-.22.09-.25.11-.27.13-.29.16-.31.19-.33.22-.34.25-.35.28-.36.31-.37.35-.37.38-.37.42-.38.46-.38.49-.37.54-.38.56-.37.61-.36.64-.36.68-.34.71-.34.75-.33.79-.32.65-.49.73-.47.79-.44.86-.42.93-.39.98-.37 1.05-.33 1.1-.31 1.16-.28 1.2-.25 1.25-.21 1.28-.19 1.32-.16 1.36-.13 1.38-.09 1.4-.07 1.42-.04 1.43-.01 1.44.01 1.44.05 1.45.06 1.44.1 1.42.11 1.42.14 1.4.16 1.38.18 1.35.2 1.33.22 1.3.23 1.26.25 1.23.26 1.19.28 1.15.29 1.11.3 1.07.31 1.02.31.98.33.93.33.88.33.84.34.8.34.74.34.7.34.66.35.62.34.57.34.54.34.5.33.46.33.43.33.4.32.36.32.33.32.3.31.26.31.23.31.21.3.17.3.15.29.12.29.09.28.07.28.04.27.02.26v.26l-.02.26-.04.25-.07.24-.08.24-.09.24-.12.22-.13.23-.14.21-.16.21" filter="url(#a)"/><path stroke-linejoin="round" stroke-width="2.222" d="m-33 6.43.18.07.2.06.23.06.26.04.28.04.3.03.32.02.34.01.36.02.37.01h2.55l.46-.01h.97l.49-.01h1.01l.52.01h.53l.53.01.63-.04.64-.03.64-.02.64-.02.65-.01h.65l.66.01.66.01.67.02.67.03.68.03.68.04.69.05.7.05.7.05.71.06.71.06.73.06.73.07.73.07.75.06.75.07.77.07.76.07.78.07.79.07.79.06.8.06.8.06.81.05.82.05.83.05.83.04.83.03.84.03.84.03.84.02.85.01h1.69l.85-.01.84-.01.85-.02.84-.03.83-.04.83-.04.83-.05.82-.05.8-.07.8-.06.8-.08.79-.08.78-.08.78-.1.78-.09.76-.11.77-.11.75-.12.75-.13.74-.13.73-.14.72-.14.72-.15.7-.16.7-.16.68-.16.68-.18.67-.17.65-.19.65-.18.64-.2.62-.19.62-.2.6-.21" filter="url(#a)"/><circle cx="-8.312" cy="3.583" r="4.062" clip-path="url(#b)" filter="url(#a)"/><circle cx="-8.807" cy="2.723" r="4.944" clip-path="url(#b)" filter="url(#a)"/><circle cx="-10.227" cy="6.453" r="3.148" clip-path="url(#b)" filter="url(#a)"/><circle cx="-6.532" cy="4.553" r="4.548" clip-path="url(#b)" filter="url(#a)"/><circle cx="-6.642" cy="4.303" r="4.648" clip-path="url(#b)" filter="url(#a)"/><circle cx="-10.652" cy="4.208" r="3.194" clip-path="url(#b)" filter="url(#a)"/><circle cx="-10.652" cy="1.783" r="4.212" clip-path="url(#b)" filter="url(#a)"/><circle cx="-10.092" cy="1.798" r="4.538" clip-path="url(#b)" filter="url(#a)"/><circle cx="-8.252" cy="4.458" r="4.194" clip-path="url(#b)" filter="url(#a)"/><circle cx="-8.307" cy="3.673" r="4.818" clip-path="url(#b)" filter="url(#a)"/></g><g fill="none" stroke="#000" transform="translate(-33.73 -23.91)"><path stroke-linejoin="round" stroke-width="2.222" d="m36.03 3 .02-.13v-.16l-.02-.19-.04-.2-.07-.23-.09-.25-.11-.26-.15-.27-.18-.29-.21-.29-.24-.3-.28-.3-.31-.31L34-.49l-.38-.32-.42-.31-.46-.31-.5-.3-.54-.3-.57-.3-.61-.28-.65-.28-.68-.28-.72-.26-.75-.25-.63-.41-.7-.38-.76-.36-.83-.34-.9-.31-.95-.29-1.02-.26-1.06-.24-1.12-.2-1.17-.19-1.22-.15-1.25-.13-1.29-.1-1.32-.08-1.34-.05-1.37-.02L9.4-7.2 8-7.17l-1.41.04-1.42.07-1.41.09-1.42.1-1.4.13-1.4.15-1.38.16-1.36.17-1.34.2-1.32.2-1.29.22-1.26.23-1.23.24-1.19.25-1.16.26-1.11.26-1.08.27-1.04.28-1 .28-.95.28-.91.28-.87.29-.82.28-.79.29-.74.29-.7.28-.66.28-.62.28-.59.28-.55.27-.52.27-.48.26-.46.26-.43.26-.39.25-.37.25-.34.25-.3.24-.28.24-.26.23-.23.23-.2.23-.18.22-.16.21-.13.22-.12.2-.09.21-.08.19-.05.2-.04.18-.03.19-.01.18.01.17.02.17.03.17.05.16" filter="url(#a)"/><path stroke-linejoin="round" stroke-width="2.222" d="m34.92 4.36-.24.09-.26.09-.31.07-.33.06-.36.06-.39.05-.42.05-.45.04-.46.03-.49.03-.51.03-.53.02-.54.03-.56.02-.58.02-.59.02-.6.02-.62.02-.62.01-.64.02-.64.02-.66.03-.66.02-.66.02-.67.03-.81-.01-.81-.01h-.81l-.81.01-.82.01-.82.02-.82.03-.82.03-.82.04-.82.04-.82.05-.82.05-.81.06-.82.06-.81.07-.82.07-.81.07-.81.07-.81.07-.8.07-.81.08-.8.07-.8.08-.8.07-.79.07-.79.07-.79.07-.79.06-.78.07-.78.05-.77.06-.77.05-.77.04-.76.05-.76.03-.75.03-.75.03-.74.02-.73.02-.73.01h-2.14l-.7-.01-.69-.02-.68-.02-.67-.02-.66-.03-.65-.03-.64-.04-.63-.04-.62-.05-.62-.05-.61-.05-.6-.06-.59-.06-.59-.07-.58-.07-.57-.07-.56-.08-.55-.08-.54-.09-.54-.08-.52-.1-.52-.09-.5-.1-.5-.1-.49-.1-.48-.1-.46-.11-.46-.11-.45-.12-.45-.11-.43-.12" filter="url(#a)"/><circle cx="10.443" cy="3.955" r="4.97" clip-path="url(#c)" filter="url(#a)"/><circle cx="9.993" cy="2.77" r="4.276" clip-path="url(#c)" filter="url(#a)"/><circle cx="11.993" cy="4.56" r="4.846" clip-path="url(#c)" filter="url(#a)"/><circle cx="9.773" cy="6.34" r="3.008" clip-path="url(#c)" filter="url(#a)"/><circle cx="8.608" cy="5.955" r="3.796" clip-path="url(#c)" filter="url(#a)"/><circle cx="11.343" cy="4.895" r="4.14" clip-path="url(#c)" filter="url(#a)"/><circle cx="11.563" cy="2.47" r="3.948" clip-path="url(#c)" filter="url(#a)"/><circle cx="10.643" cy="3.61" r="3.446" clip-path="url(#c)" filter="url(#a)"/><circle cx="11.658" cy="3.59" r="3.754" clip-path="url(#c)" filter="url(#a)"/><circle cx="11.958" cy="4.11" r="4.996" clip-path="url(#c)" filter="url(#a)"/></g><g fill="none" stroke="#866213" stroke-linejoin="round" stroke-width="2"><path d="m13.77-74.7 1.5.4.98.33.51.29.11.27-.31.26-.76.26-1.25.25-1.79.25-2.4.24-3.07.24-3.84.23-4.68.26-5.51.28-6.21.3-6.83.25m-1.59-2.13 1.38-.42 1.02-.27 1.09-.25 1.21-.25 1.22-.25 1.15-.24 1.03-.21.93-.19.81-.16.68-.13.53-.09.34-.04h.15l-.09.05-.39.12-.76.2-1.2.27-1.61.33-1.94.38-2.34.47" filter="url(#a)"/><path d="m-21.37-72.72 1.31-.41.84-.23.8-.18.8-.15.71-.11.53-.05.3.03.07.12-.18.22-.43.32-.73.43-1.04.56-1.35.67-1.7.81-2.1.97-2.57 1.15-3.11 1.33-3.68 1.53-4.31 1.8m74.36-1.59.54.55.45.54-.05.3-.42.19-.73.17-1.02.2-1.42.18-1.9.09-2.48-.06-3.11-.25-3.79-.44-4.46-.62-5.14-.78-5.83-.94-6.58-1.11-7.45-1.28-8.46-1.39" filter="url(#a)"/><path d="m54.93-49.81.75 1.09.57.86.54.81.47.73.33.58.15.41-.01.27-.17.14-.33.03-.51-.12-.73-.33-.97-.58-1.24-.82-1.49-1.09-1.77-1.35-2.05-1.63-2.38-1.95-2.72-2.29-3.04-2.62-3.31-2.92-3.57-3.22-4.14-3.64m-37.93-7.97.1-.08 1.16-.17 1.42-.15 1.31-.11 1.08-.05.87-.01.69.01.53.04.37.06.23.09.07.12-.11.15-.31.17-.56.21-.84.24-1.16.27-1.5.32-1.87.37-2.31.45-2.79.54-3.27.61-3.67.65-3.93.65" filter="url(#a)"/><path d="m50.53-54.65.87 1.07.27.58-.04.48-.39.37-.76.25-1.13.13-1.52.03-1.92-.09-2.35-.23-2.82-.4-3.33-.59-3.87-.81-4.43-1.01-5.01-1.18-5.62-1.33-6.26-1.48-6.91-1.67-7.53-1.94-8.08-2.26-8.62-2.61m46.3-3.2.76.4 1.1.56.95.48.67.33.39.22.13.11-.13.04-.41-.05-.75-.17-1.21-.35-1.78-.58-2.47-.89-3.16-1.21-3.69-1.48m-30.87-1.58-.59.14.33.01.48.02.25.14-.13.28-.52.47-.91.66-1.35.88-1.85 1.12-2.45 1.35-3.12 1.6-3.82 1.89-4.56 2.2-5.28 2.5-5.91 2.7m79.67-6.75.73.63 1.02.77.92.67.91.65 1.02.73 1.09.82 1.1.85.99.79.79.63.53.43.23.2-.09-.07-.47-.37-.88-.71-1.35-1.08-1.84-1.4" filter="url(#a)"/><path d="m51.71-53.62.92 1.4.02.62-.64.24-1.23.04-1.82-.13-2.45-.34-3.12-.58-3.83-.86-4.62-1.18-5.47-1.55-6.37-1.9-7.23-2.24-8.07-2.56-8.96-2.85-10.03-3.2" filter="url(#a)"/><path d="m52.12-52.75-.07-.01-.14.6-.66.6-1.25.53-1.86.48-2.48.46-3.11.42-3.75.37-4.43.29-5.17.18-5.95.07-6.74-.03-7.55-.08-8.36-.09-9.2-.09-10.06-.14-10.92-.29-11.82-.46" filter="url(#a)"/><path d="m47.3-57.72.8.74.87.87.82.84.71.74.58.61.45.51.31.39.16.28-.01.16-.16.04-.33-.09-.53-.24-.75-.44-1.03-.67-1.33-.95-1.67-1.23-1.97-1.52-2.25-1.76-2.51-1.98-2.78-2.23-3.17-2.56m21.42 16.4.56 1.07v.8l-.4.74-.85.66-1.38.53-1.95.37-2.53.28-3.09.21-3.64.17-4.2.11h-4.79l-5.43-.14-6.08-.28-6.77-.42-7.45-.52-8.15-.61-8.9-.72-9.71-.79-10.49-.86-11.05-1.1m46.21-25.5.37.04.71.14.56.2.25.27-.08.32-.42.41-.78.5-1.16.59-1.6.69-2.05.79-2.56.88-3.1.99-3.7 1.1-4.36 1.25-5.08 1.42-5.84 1.61-6.53 1.73-6.98 1.64m45.72-14.3.69.12 1.11.19 1.33.25 1.48.3 1.53.35 1.55.39 1.51.42 1.47.41 1.37.39 1.24.36 1.09.31.91.25.72.2.49.14.21.05-.12-.05-.5-.2-.94-.33-1.52-.48" filter="url(#a)"/><path d="m34.62-66.91 1.71 1.02 1.03.73.59.48.19.23-.15.04-.41-.06-.68-.14-1.04-.26-1.52-.46-2.12-.75-2.79-1.12-3.5-1.5-4.23-1.85-5.18-2.19m33.96 18.35.28.24.21.52-.08.52-.41.48-.75.42-1.11.34-1.49.27-1.89.21-2.29.16-2.74.08-3.2-.02-3.7-.14-4.21-.27-4.73-.4-5.24-.53-5.74-.63-6.25-.74-6.8-.86-7.39-1.01-8.07-1.15-8.85-1.2-9.79-1.06" filter="url(#a)"/><path d="m48.12-57.01.83.88.79.85.58.65.38.49.21.37.01.24-.2.11-.41-.03-.64-.18-.89-.33-1.16-.51-1.47-.71-1.8-.94-2.19-1.22-2.59-1.52-3.03-1.83-3.46-2.12-3.91-2.41-4.4-2.72-5.06-3.12m-58.78 7.04.92-.59 1.29-.63 1.64-.69 1.95-.75 2.22-.83 2.43-.92 2.58-.95 2.64-.97 2.63-.95 2.53-.91 2.3-.83 1.92-.71 1.54-.59 1.53-.52" filter="url(#a)"/><path d="m50.48-54.39.42.28.64.62.64.66.58.64.47.56.34.42.15.25-.04.08-.26-.14-.51-.4-.83-.7-1.21-1.12-1.7-1.64-2.27-2.24-2.81-2.76m12.26 12.25.63.8.81 1.08.7.95.54.78.44.69.38.65.35.63.28.56.17.41.02.21-.15-.01-.34-.24-.52-.48-.74-.76-.96-1.07-1.22-1.41-1.47-1.73-1.72-2.05-1.98-2.37-2.28-2.76-2.62-3.26m-66.08-16.3.66-.01 1.62.16 2.34.32 2.87.51 3.26.71 3.62.89 3.97 1.05 4.32 1.18 4.64 1.29 4.91 1.39 5.14 1.51 5.38 1.61 5.58 1.71 5.7 1.8 5.71 1.85L46-55.4" filter="url(#a)"/><path d="m-8.62-75.42.05-.06 1.01-.14 1.19-.1.99-.02.67.06.37.13.08.21-.21.29-.47.36-.74.45-1.01.54-1.3.62-1.62.72-1.96.81-2.35.91-2.79 1.03-3.25 1.16-3.79 1.34-4.39 1.56-5.07 1.83-5.72 2.05" filter="url(#a)"/><path d="m-18.61-73.56 1.61-.23 1.69-.17 1.81-.07 1.96.02 2.18.08 2.42.12 2.6.14 2.72.17 2.82.18 2.9.2 2.96.24 2.97.27 2.9.31 2.74.32 2.55.3 2.31.24 2.13.18 2.08.21" filter="url(#a)"/><path d="m8.43-75.47 1.25.13.96.13.93.15.81.19.6.21.38.23.13.23-.15.22-.46.21-.81.19-1.17.18-1.57.17-1.99.14-2.46.13-2.98.09-3.54.06-4.07.02-4.56-.03-5.05-.01" filter="url(#a)"/><path d="m26.99-70.69.46.21.77.39.89.46.78.42.58.32.35.23.13.18-.05.13-.26.08-.52.03-.83-.07-1.22-.21-1.65-.38-2.09-.54-2.53-.69-2.97-.83-3.44-.96-3.99-1.13-4.7-1.38m58.9 42.41L39.18-54.95l-22.49-8.29-11.58.46-.89 2.4 4.2.6 4.72-1.15 3.96-1.17 3.44-.1 2.79.66 1.67.52.7-.18.59-.8 1.02-1.18.95-1.48.82-1.07 3.35 1.45 9.99 6.09 11.66 7.46" filter="url(#a)"/><path d="m-16.49-74.01.77 4.61-1.17 7.21 12.47 6.17 15.36 4.4 7.57 1.45-2.07-1.89-7.33-4.3-7.6-5.04-5.41-4.33-3.09-3-1.73-1.68-1.86-.48-3.84 1.06-6.66 3.23-5.52 5.26 9.77 4.08 56.52-6.2" filter="url(#a)"/><path d="m26.99-70.69 4.63 3.45-3.95 1.25-7.15.63-2.53 2.48 1.83 3.85 1.06 3.13-3.82 1.01-9.02-.99-11.25-1.97-9.21-2.11-3.46-1.84 4.24-1.18 11.57.21 16.32 2.32 16.99 4.26 13.32 4.71 7.27 3.68 3.6 4.47 10.32 16.26" filter="url(#a)"/><path d="M65.54-32.81-.2-51.18l-9.64-6.13 13.29-.39 15.3 1.68 9.41 1.19 3.22-.41-.93-1.91-3.3-2.64-4.59-2.43-5.19-1.61-4.95-.72-3.76-.26-2.16-.28-1.21-.52-1.79-.29-3.25 1.06-3.6 3.55-2.04 5.75-2.81 4.5-14.08-2.65-20.38-7.78" filter="url(#a)"/><path d="m50.48-54.39 2.16 8.3-12.2-1.97-11.93-5.2-5.8-3.03-2.97-.85-3.3-.15-3.23-.28-1.12-.6 1.94-.96 3.74-1.42 2.99-1.77.38-1.38-3.1 1L3.6-56.78-56.89-47" filter="url(#a)"/><path d="m41.22-62.81-6.63 10.36-12.05-3.56 1.38-1.9 4.8.33-.15-.05-5.6-1.61-6.62-2.44-3.33-1.95.78-.9 2.06-.45-.62-1.09-5.41-2.12-9.4-2.16-11.31-.33-11.93 2.57-9.85 3.35 6.85-6.25" filter="url(#a)"/><path d="m-1.77-76-11.04 3.31 1.72 3.07L-9.46-66l3.6 2.72 8.01 1.21 10.03-.02 7.46-.76 1.44-1.17-5.3-1.37L5.6-66.71l-11.32-1.02-7.97-.65-.57-.44 9-.05 17.71 1.74 22.5 6.8 24.79 17.71" filter="url(#a)"/><path d="m50.48-54.39-38.27-5.64 1.59 1.86 3.29 2.24 1.1.21-.31-1.35-2.72-2.05-5.76-1.91-7.39-.95-6.19.35-2.57 1.35 1.68 1.47 4.23.61 3.42-.88-.69-2.16-5.65-2.51-7.19-1.91-3.05-1.15-1.23.53-30.78 7.81" filter="url(#a)"/><path d="M52.12-52.75 30.61-63.83l-13.04-.38-9.38 4.35-3.18 5.59 5.17 4.88 10.03 2.74 9.17.13 5.07-1.77 1.37-2.33-.18-1.86-.54-1.06-2.55-.65-9.15-.99-21.07-1.49-32.46.45-24.52 6.04" filter="url(#a)"/><path d="m33.92-67.17-38.5 2.09.93 4.34 14.44 2.72 10.01.23 2.1-1.96-1.65-2.72-.57-1.9 2.6-.28 4.91 1.1 5 1.59 3.05 1.24.47.57-1.16.41-.82 1.25 1.01 2.78 1.96 3.7-1.22 2.27-10.16-1.94-21.91-6.37-28.72-4.57-27.91 9.89" filter="url(#a)"/><path d="m24.67-71.46-42.88 8.51-4.9-1.99 3.4-2.08 2.3-.4.12.52-1.55.83-2.33 1.03-1.52 1.12 1.18.92 4.9.35 7.95-.54L.15-64.6l7.11-1.92 3.81-1.7.66-.54-.52 1.49 1.54 3.97 6.86 6.08 13.04 6.48 14.73 4.18 8.72 1 5.86 6.06" filter="url(#a)"/><path d="m39.81-63.59-13.64 7.01-21.64-.72-9.33-.22-.6.47 2.6-.4L.4-58.9l3.58-1.6 4.11-1.02 4.2-.3 3.59.12 2.73.36 2.25.75 2.25 1.52 2.18 2.56 1.66 3.45 1.12 3.59 1.57 2.49 2.65.27-.69-1.83L12.01-50l-68.65 2.73" filter="url(#a)"/><path d="m-9.48-75.4-8.65 7.13 5.46.51 3.66.96 3 1.49 3.08 1.36 3.5 1.19 4.17 1.01 4.44.64 3.78.01 2.44-.63 1.15-.94.24-.82-.77-.44-2.69-.17-5.74-.25-8.96-.56-10.6-.78-9.46-.59-5.97-.03-1.63.47 3.06.59 11.75-.02 41.21-5.42" filter="url(#a)"/><path d="m-21.37-72.72 38.78 9.5 5.96 1.93-7.45-.56L2.7-63.46l-12.86-.95-8.21.49-1.53 1.54 4.59 1.62 7.83.76 7.25-.48 3.93-1.24.5-.74-.6 1.23 1.29 3.87 4.28 5.5 4.48 4.17-1.79-.88-13.38-7.28-20.79-8.29-22.4 4.3" filter="url(#a)"/><path d="m-32.38-68.12 42.57 2.64 8.24.23-3.85-.83-5.94.56-5.16 2.03-2.77 2.3.41 1.39 2.71.05 3.11-.86L9-61.64l.93-.74.67-.56.99-.95.79-1.8-.44-2.64-1.7-2.79-1.4-1.82 1.04.34 7.56 4.05 31.38 12.21" filter="url(#a)"/><path d="m24.67-71.46-37.58 3.5-5.27 1.08 7.57 1.67 10.17 2.29 9.76 2.07 8.75 1.36 6.76.54 3.33-.33-1.39-1.2-6.66-1.78-11.15-1.72-12.87-.93-10.22-.01-4.3-.02 2-1.74 22.69-9.03" filter="url(#a)"/><path d="m8.21-75.54 15.82 7.21 3.34 4.77-3.12 2.4-6.24.86-5.4.95-2.82 1.54-.96 1.68-.57 1.12-1 .18-1.32-.67-.96-1.16.09-1.25 1.66-1.14 3.24-1.13 4.16-1.29 3.88-1.44 2.36-1.15.08-.17-2.9 1.01-7.43 1.24-13.11-.21-16.75-.92-30.41 8.5" filter="url(#a)"/><path d="m-46.35-58.53 20.82-5.77 1.79.09 8.76-.64 15.05.48 15.13 2.84 9.82 4.06 1.9 3.04-5.16.58-8.79-1.85-8.65-3.19-6.2-3.32-2.87-2.59 1.37-1.33 7.05.19 12.35 1.35 11.54.87-1.89-2.8-27.19-9.6" filter="url(#a)"/><path d="m-57.69-45.96 54.02.35 14.41-.92L19.35-49l2.87-2.86-2.6-1.99-5.81-.98-7.16-.6-7.68-.85-7.68-1.4-6.8-1.97-4.78-2.42-1.95-2.59.69-2.33 2.24-1.58 2.45-.58 1.93.2 1.53.22 1.88-.62 2.72-1.85 2.22-2.34-2.74-.99-12.05 1.81" filter="url(#a)"/><path d="m17.54-73.63 25.14 21.05-.16-2.35-5.8-4.61-8.06-2.34-11.49-.94-13.97-.74-12.95-.92-8.43-.94-2.41-.55 3.04.26 7.36 1.28L.89-62.29 15-59.9l13.7 1.72 5.06-.16-15.14-3.48-49.7-6.85" filter="url(#a)"/><path d="m29.74-69.23 11.42 12.19-7.26-1.12-4.8-1.33.47.05 1.79-.09.13-.9-2.05-1.29-3.18-1.01-2.84-.39-1.77.13-1.3.31-2.6.13-5.79-.11-9.61-.13-12.12.17-11.62.55-7.63.62-1 .2 6.02-.26 10.2.02 8.14 1.06 2.84.12 30.5-10.1" filter="url(#a)"/><path d="M44.27-60.04-.85-66.69l-21.02-.26-10.4 2.09-5.67 2.81-1.63 1.95 3.23.15 7.93-1.52 10.78-2.39 10.89-2.44 8.52-2.06 4.8-1.56.98-1.03-2.27-.38-4.86.37-6.83 1.18-7.66 1.85-6.16 2.13-1.29 1.87 6.4 1.73 17.3 4.01 53.72 9.76" filter="url(#a)"/><path d="m56.65-47.3-61.8-9.51-15.36-.93 10.23.81 16.4-.29 9.62-2.11-.58-3.43-7.58-3.55-9.66-2.57-8.44-1.02-5.52.45-.73 1.73 7.55 3.41 19.47 6.12 28.92 8.28 14.1-1.63" filter="url(#a)"/><path d="m-8.62-75.42 25.99 14.37-11.08-1.87-9.97-2.46-.5-1.17 5.46-.18 5.9.38 2.8.44-1.02.04-3.57-.46-4.15-.73-3.15-.58-1.41-.12.34.49 1.75 1 2.66 1.3 3.13 1.34 3.5 1.23 4.45 1.32 6.31 1.91 7.65 2.63 4.45 1.99-7.19-2.09L.35-65.3l-19.76-8.01" filter="url(#a)"/><path d="M68.75-23.73 22.96-51.87l-33.39-7.93-17.25-2.11-5.69-.73 2.09-.15 7.69.3 11.12.47 11.61.18 9.1-.33 4.82-.66.77-.44-1.45.33-1.4 1.3.15 1.9 1.71 1.63 2.13.36 1.74-1.29 2.69-1.76 8.09 1.29 17.97 9.38 20.39 18.37M-3.8-76.04l2.1-.05 1.98.02 2.05.09 2.32.15 2.66.2 2.93.25 3 .31 2.85.37 2.59.44 2.36.51 2.24.57 2.24.65 2.37.72 2.59.8 2.85.86 3.13.93 3.36.99 3.52 1.06 3.58 1.1 3.57 1.17 3.55 1.24 3.61 1.32 3.77 1.41 4.02 1.5 4.25 1.58 4.32 1.63 4.13 1.63 3.68 1.6 3.05 1.57 2.47 1.55 2.24 1.59 2.6 1.66 3.49 1.74 4.29 1.77 4.76 1.87M-24.32-71.53l-4.23.58-4.07.74-2.63.94-1.97 1.05-1.96 1.08-2.44 1.09-3.15 1.11-3.64 1.15-3.62 1.24-3.09 1.32-2.36 1.4-1.82 1.49-1.76 1.56-2.19 1.61-2.92 1.66-3.64 1.68-4.11 1.7-4.23 1.72-4.06 1.76-3.77 1.81-3.42 1.85-3.05 1.9-2.6 1.94-2.06 1.98-1.57 2.01-1.39 2.05-1.69 2.09-2.43 2.15-3.29 2.23-3.74 2.34-3.55 2.52-3.38 2.7-4.46 2.76" filter="url(#a)"/><path d="m-32.38-68.12-3.36 1.28-5.53.99-5.2.98-3.75 1.1-2.47 1.23-1.84 1.33-1.86 1.42-2.38 1.51-3.18 1.58-3.92 1.63-4.33 1.67-4.33 1.68-3.92 1.69-3.32 1.72-2.71 1.75-2.25 1.8-2.02 1.85-1.98 1.9-2.06 1.94-2.24 1.97-2.6 2-3.24 2.04-4.21 2.09-5.36 2.15-6.27 2.22-6.48 2.33-5.93 2.51-5.56 2.69-6.19 2.75m211.18-2.74 14.54 2.42-2.6 2.58-3.06 2.48-.07 2.29 2.53 2.13 3.69 2.04 3.6 2.06L91.8-.93l1.97 2.22 1.21 2.32.68 2.38.43 2.4.38 2.37.45 2.34.47 2.27.36 2.24.21 2.21.2 2.21.54 2.21 1.21 2.22 2 2.22 2.6 2.22 2.69 2.2 2.19 2.16 1.31 2.12.4 2.06-.24 1.99-.43 1.94-.31 1.92-.11 1.88-.18 1.85-.55 1.75-.5 1.64 1.62 1.55M56.65-47.3l2.14 2.21 2.01 1.94 2.83 2.03 4.57 2.1 6.23 2.06 7.05 2.01 6.91 1.97 6.18 1.99 5.39 2.03 4.87 2.11 4.68 2.18 4.64 2.24 4.58 2.28 4.55 2.32 4.8 2.35 5.37 2.35 5.79 2.33 5.35 2.21 4.02 2.03 2.87 1.85 2.91 1.83 3.36 2.2" filter="url(#a)"/><path d="m39.81-63.59 1.99 1.26 2.18 1.55 2.09 1.53 1.94 1.47 1.75 1.47 1.59 1.52 1.49 1.6 1.48 1.68 1.51 1.74 1.51 1.8 1.47 1.83 1.41 1.86 1.36 1.89 1.33 1.92 1.34 1.95 1.37 1.99 1.42 2.02 1.42 2.05 1.4 2.08 1.31 2.11 1.19 2.15 1.04 2.18.87 2.21.73 2.21.59 2.19.52 2.14.45 2.11.43 2.1.44 2.15.46 2.27.55 2.41.63 2.61.7 2.78.62 2.34m-43.1-68.82 6.16 1.44 2.43 1.43 2.15 1.5 2.61 1.49 2.99 1.45 3 1.46 2.71 1.49 2.31 1.56 2.07 1.64 2.14 1.72 2.54 1.77 3.27 1.8 4.25 1.82 5.33 1.85 6.31 1.87 6.95 1.91 7.16 1.96 6.99 2 6.74 2.02 6.72 2.01 6.86 1.98 6.55 1.98 4.64 2.03.9 2.3M22.24-72.4l2.99.85 3.97.72 3.72.69 3.07.75 2.47.83 1.98.93 1.75 1.04 1.83 1.17 2.25 1.27 2.87 1.36 3.44 1.42 3.72 1.44 3.6 1.45 3.21 1.45 2.83 1.47 2.83 1.52 3.35 1.58 4.28 1.68 5.31 1.76 6.09 1.83 6.33 1.84 5.96 1.65 6.52 1.08" filter="url(#a)"/><path d="m19.19-73.23 2.79.65 2.94.76 3.09.83 3.21.91 3.15.97 2.87 1.03L39.83-67l2.43 1.12 2.46 1.17 2.63 1.24 2.93 1.32 3.36 1.43 3.93 1.53 4.57 1.6 5.14 1.63 5.47 1.63 5.47 1.58 5.16 1.56 4.69 1.56 4.19 1.6 3.89 1.68 3.86 1.77 4.08 1.9 4.46 2.07 5.63 2.31 9.86 2.43" filter="url(#a)"/><path d="m17.27-74.02 2.44.72 2.66.72 3 .77 3.36.83 3.42.91 3.22.97 2.96 1.03 2.82 1.08 2.81 1.13 2.83 1.18 2.91 1.25 2.96 1.33 2.98 1.44 2.91 1.52 2.71 1.6 2.45 1.62 2.25 1.62 2.27 1.6 2.55 1.58 3.06 1.59 3.6 1.64 3.99 1.7 4.15 1.81 4.12 1.92 4.11 2.03 4.15 2.11 4.01 2.08 3.33 1.87 2.88 1.56" filter="url(#a)"/></g><path fill="none" stroke="#000" stroke-linejoin="round" stroke-width="3" d="M-8.75 10.14Q11.78 22.44 1.515-4.534" filter="url(#a)"/><path fill="#AC66CC" stroke="#000" stroke-linejoin="round" stroke-width="3" d="m-20.78 65.23.19-.77.21-.77.21-.75.22-.75.23-.73.24-.72.24-.71.26-.7.27-.68.28-.67.28-.66.3-.65.3-.63.31-.62.32-.61.33-.6.33-.58.35-.57.35-.55.36-.54.37-.53.37-.51.38-.5.39-.48.4-.47.4-.45.41-.44.41-.43.43-.4.42-.4.44-.38.44-.36.45-.34.45-.33.46-.32.46-.29.47-.29.48-.26.48-.25.48-.23.49-.21.5-.2.49-.18.51-.16.51-.14.51-.13.51-.1.52-.09.53-.08.53-.05.53-.03.53-.02.54.01.54.02.54.04.55.06.55.08.55.1.56.12.55.15.56.16.56.18.57.2.56.22.57.24.56.27.57.28.57.31.58.33.57.35.57.37.58.39.57.42.58.43.57.46.58.49.57.5.58.53.58.55.57.57.58.6.57.62.57.64.58.67.57.69.57.72.57.74.56.76.57.79.56.81.57.84.56.86.56.89.55.91.56.94.55.97.55.99.54 1.01.55 1.04.54 1.07-.54-1.07-.55-1.04-.54-1.01-.55-.99-.55-.97-.56-.94-.55-.91-.56-.89-.56-.86-.57-.84-.56-.81-.57-.79-.56-.76-.57-.74-.57-.72-.57-.69-.58-.67-.57-.64-.57-.62-.58-.6-.57-.57-.58-.55-.58-.53-.57-.5-.58-.49-.57-.46-.58-.43-.57-.42-.58-.39-.57-.37-.57-.35-.58-.33-.57-.31-.57-.28-.56-.27-.57-.24-.56-.22-.57-.2-.56-.18-.56-.16-.55-.15-.56-.12-.55-.1-.55-.08-.55-.06-.54-.04-.54-.02-.54-.01-.53.02-.53.03-.53.05-.53.08-.52.09-.51.1-.51.13-.51.14-.51.16-.49.18-.5.2-.49.21-.48.23-.48.25-.48.26-.47.29-.46.29-.46.32-.45.33-.45.34-.44.36-.44.38-.42.4-.43.4-.41.43-.41.44-.4.45-.4.47-.39.48-.38.5-.37.51-.37.53-.36.54-.35.55-.35.57-.33.58-.33.6-.32.61-.31.62-.3.63-.3.65-.28.66-.28.67-.27.68-.26.7-.24.71-.24.72-.23.73-.22.75-.21.75-.21.77" filter="url(#a)"/></svg>