<svg xmlns="http://www.w3.org/2000/svg" width="500" height="500" viewBox="-100 -100 200 200"><defs><clipPath id="c"><path d="m36.2-1.86-.53-.05-.57-.04-.6-.05-.62-.05-.66-.05-.68-.04-.7-.05-.73-.04-.76-.04-.77-.04-.79-.04-.81-.04-.83-.03-.84-.04-.86-.03-.95-.05-.98-.05-1-.05-1.02-.04-1.03-.03-1.06-.04-1.07-.03-1.08-.02-1.09-.02-1.09-.02-1.1-.01-1.1-.01-1.1-.01h-1.1l-1.09.01H8.5l-1.07.01-1.06.01-1.05.02-1.03.02-1.02.02-.99.03-.98.03-.95.03-.93.03-.91.04-.88.03-.85.04-.82.05-.8.04-.77.05-.74.04-.71.05-.68.05-.65.06-.62.05-.6.05-.56.06-.54.05-.51.06-.48.06-.45.06-.43.06-.41.06-.39.06-.36.07-.34.06-.33.06-.3.07-.3.06-.27.07-.26.07-.25.07-.22.07-.22.07-.2.07-.19.07-.18.08-.16.07-.15.08-.15.07-.13.08-.13.08-.11.08.32.51.17.07.18.08.19.08.2.08.21.08.22.08.23.08.23.08.25.08.27.08.27.08.29.08.3.08.31.08.33.08.34.08.36.07.38.08.39.08.41.07.43.08.46.07.47.07.5.07.52.06.55.06.57.06.6.06.62.05.65.05.68.05.7.04.72.03.76.03.77.03.81.02.82.02.86.01.87.01H2.4l.93-.01.96-.02.98-.02.99-.03 1-.03 1.02-.04 1.03-.04 1.04-.05 1.05-.06 1.05-.06 1.06-.06 1.06-.07 1.06-.08 1.05-.07 1.05-.09 1.05-.08 1.03-.1 1.03-.09 1.01-.1.99-.1.98-.1.95-.11.94-.1.83-.08.82-.09.8-.08.79-.09.78-.09.75-.08.74-.09.71-.09.69-.08.67-.09.64-.09.62-.08.59-.09.56-.08.53-.08"/></clipPath><clipPath id="b"><path d="m-36.38-2.02.47-.03.49-.03.52-.03.55-.03.57-.03.61-.03.62-.03.66-.03.68-.02.7-.03.72-.02.75-.03.77-.02.79-.02.81-.02.82-.03.87-.03.9-.03.93-.03.96-.02 1-.02 1.01-.02 1.05-.01 1.06-.01 1.09-.01 1.09-.01h4.5l1.14.01 1.14.01 1.13.01 1.13.01 1.11.02 1.11.02 1.1.02 1.07.02 1.07.03 1.04.03 1.02.02 1 .03.97.04.95.03.92.04.89.03.87.04.83.04.81.04.77.05.75.04.71.05.68.04.65.05.63.05.59.05.56.06.54.05.51.06.48.05.46.06.44.06.42.06.39.06.38.06.36.07.34.06.32.07.31.07.29.07.27.07.26.07.24.08.23.08.22.07.2.08.2.09.18.08.17.09h-.37l-.19.07-.2.08-.21.07-.22.07-.23.08-.25.07-.25.08-.27.07-.27.08-.3.08-.3.08-.32.08-.34.08-.35.08-.37.08-.38.08-.4.08-.42.08-.44.08-.46.08-.48.08-.51.08-.53.08-.55.08-.58.07-.61.08-.63.07-.67.07-.68.07-.72.06-.74.07-.77.06-.79.05-.83.05-.84.05-.88.04-.89.04-.92.04-.95.02-.96.03-.98.02-1 .01-1.02.01h-1.03l-1.05-.01-1.05-.01-1.07-.02-1.07-.02-1.08-.04-1.08-.03-1.08-.05-1.08-.05-1.08-.06-1.07-.06-1.06-.07-1.05-.08-1.03-.08-1.02-.09-1-.1-.99-.1-.95-.1-.94-.11-.91-.12-.88-.11-.82-.09-.8-.08-.79-.09-.77-.09-.76-.09-.73-.09-.71-.09-.7-.1-.67-.09-.64-.09-.63-.1-.59-.09-.57-.09-.55-.09-.52-.09"/></clipPath><linearGradient id="d" x1="0%" x2="100%" y1="0%" y2="0%"><stop offset="0%" style="stop-color:#bac569;stop-opacity:1"/><stop offset="73.6%" style="stop-color:#0f41aa;stop-opacity:1"/><stop offset="100%" style="stop-color:#2f40fc;stop-opacity:1"/></linearGradient><filter id="a"><feTurbulence baseFrequency=".05" numOctaves="3" result="noise" type="noise"/><feDisplacementMap in="SourceGraphic" in2="noise" scale="2"/></filter></defs><rect width="100%" height="100%" x="-100" y="-100" fill="#ECA6F2"/><path fill="#2FDF20" stroke="#000" stroke-linejoin="round" stroke-width="1.667" d="m63.06.77-.02-1.16-.11 3.12.04.71-.1.27.05.85-.22 1.83-.19 3.84-.16.55-.02 1.22-.21 1.21-.2 1.99-.01 1.32-.14.54-.49 1.34-.29 1.71-.49 2.68.06.93-.22.63-.23.32-.28 1.32-.23 1.1-.17.96-.33 1.02-.14.85-.43 1.22-.45.66-.5 1.8-.32 1.06-.41 1.68-.57 1.77-1.1 2.44-.56 1-.06.14-.93 1.84.4-.64-1.22 2.45-.28.92.1-.52-.91 1.63-.26 1.39-1.11 1.22-1.24 2.25.29-.2-.62 1.06-.1.34-.71.63-1.45 2.21-.48.81-1.16 1.58-1.34 1.97-.16.13.27-.43-1.77 1.91-.39.54-.25.7-.68.76-.68.36-.77 1.15-1.7 1.46.31-.18-2.19 2.09-.33.42-1.03.58.25.13-2.18 1.64-.31.04.27-.03-2.04 1.63-.07-.12-.67.79-.99.56-1.16.78-.69.54-1.24.69-1.38.71-1.8.85.63-.11-1.51.47-.39.04-1 .59-1.04.57-2.21.67.01.04.12-.15-2.89 1.14-1.32.54.01-.33-.8.35-.01.01-1.84.63-1.71.26-.5-.07.17.2-1.01.12-1.57.16-.97-.02-1.01.16-.57.19-1.13-.21-2.84-.09.26.21-1.96-.22-1 .22.09-.39.04.35-1.29-.36-2.05-.24-1.31-.22-.44.1-1.86-.58-.25-.04-.63-.14-.62-.06-2.91-1.06-1-.33.34.18-1.17-.34-.48-.01-1.28-.61.11.06-2.32-1.03-1.58-.99 1.98 1.29-2.17-1.21-.94-.52-1.37-.76-1.42-.84 1.19.59-1.8-.98-2.05-1.35-1.07-.95-.47-.36-.5.01.84.2-2.42-1.66-1.68-1.24-.1-.11-.53-.63-2.17-1.85.04-.26-.13.29-1.71-2.29-.5-.01-.78-1-.77-.96-.91-1-.88-1.15v.02l-.67-.82-1.14-1.42-.76-1.12-.34-.72-1.24-1.42.26.54-.57-1.15-1.53-2.22-1.09-1.78-.09-.04-.21-.39-1.16-2.1-.2-.82-1.21-2.25.85 1.61-1.86-4.06.56 1.27-1.32-2.93.3 1.01-.91-2.27.08.29-.74-1.71-1.07-2.99-.04.13-.34-1.28-.58-1.88-.13.21-.28-1.23-.42-1.94-.66-1.95-.33-.9-.06-.96-.38-1.12-.43-2.49-.08.1.04.15-.56-2.27-.23-1.13-.33-2.36-.17-.83.07.08-.42-3 .08.38-.4-4.79.29 2.87-.41-4.36V5.32l-.19.69-.08-1.42-.07-3.78-.04-.49.11-1.64.11-1.69-.06-1.17.15.79-.03-1.65.07-1.76.09-.75.2-2.07-.07-.03.23-2.43.34-2.41.04-1.52-.16 2.28.37-3.14.38-1.72-.05-.54.5-2.15.56-2.44-.49 1.46.37-1.01.22-1.54.34-1.07.97-3.46.26-1.36.6-1.81-.4 1.84.89-3.44.77-2.31-.42 1.46.71-1.74.48-1.02.07-.58 1.45-4.05-.55 1.64.22-.17 1.2-2.78 1.42-3.22-.76 1.79.71-1.55.78-1.45-.32.21 1.02-1.71 1.1-1.5.53-1.53.51-.44.63-.95.57-1.23.8-.84.48-.64.43-.73 2.01-2.97-.34.47.24-.22 1.2-1.43 1.77-2.23-.1.04.98-1.19.03.12 1.46-1.51.45-.32.76-.74.17-.32 2.23-2.07.05.06 1.23-1.2.36.09-.33-.2.91-.51 2.4-1.66.44-.56 1.21-1.07 1.87-1.04-.08.42 1.11-.74.47-.61.56-.11.61-.39 1.3-.9 1.99-.54-.9.06 1.97-.69.99-.34 1.92-.74 1.68-.9-1.22.7 1.72-.51.1-.16 1.51-.48-.11-.22 2.19-.27 1.09-.19.73-.28.7-.08 2.17-.45-.5.1.76-.29 3.03-.18.82.06 1.17-.23h.7l-.19.02 1.74.24.49-.02.56.14 2.05.21 1.11-.11-.62-.15 3.25.72-1.84-.23 4.17.34.36.1.48.06-.87.21 2.21.42 1.33.15.28.03 1.73 1.05 1.85.15-.43.22-.16-.21 1.38.54 1.81 1.01 1.12.25.21.36 1.73.95.07-.04 1.16.53-.11.13 2.03.95.09.28 1.64 1-.05.01 1.5.87 2.01 1.56.07.32.63.24 1.66 1.22.12.41.29-.12 1.78 1.67 1.07 1.02-.26.12 1.12.93.83.94 1.6 1.56.13.39 1.22 1.38 1.28 1.28-.23.13-.04-.42 2.22 3.04-.22-.25 1.15 1.36.14.47.87 1.24.23.32.99 1.24 1.16 2.34-.08-.34.64 1.39.86 1.44.84 1.05.76 1.87-.75-1.24 1.43 2.29.2.42.26.98.36.83 1.49 3.21-.13.28.84 2.33-.26-1.09.31.86 1.23 3.24-.18.06.68 1.77.32.37.07.68.89 2.99.58 2.52-.08.57v-.13l.73 3.32-.15-.7.32 1.52.52 1.77-.11.01.28 1.23.11 1.62.46 3.02.31 2.23.07.37.02.65h-.12l.26 3.41-.16-2.42.26 3.41.26 1.97-.1 1.35.07.67.06 2.29-.02-1.16" filter="url(#a)"/><path fill="#fff" d="m-36.38-2.02.47-.03.49-.03.52-.03.55-.03.57-.03.61-.03.62-.03.66-.03.68-.02.7-.03.72-.02.75-.03.77-.02.79-.02.81-.02.82-.03.87-.03.9-.03.93-.03.96-.02 1-.02 1.01-.02 1.05-.01 1.06-.01 1.09-.01 1.09-.01h4.5l1.14.01 1.14.01 1.13.01 1.13.01 1.11.02 1.11.02 1.1.02 1.07.02 1.07.03 1.04.03 1.02.02 1 .03.97.04.95.03.92.04.89.03.87.04.83.04.81.04.77.05.75.04.71.05.68.04.65.05.63.05.59.05.56.06.54.05.51.06.48.05.46.06.44.06.42.06.39.06.38.06.36.07.34.06.32.07.31.07.29.07.27.07.26.07.24.08.23.08.22.07.2.08.2.09.18.08.17.09h-.37l-.19.07-.2.08-.21.07-.22.07-.23.08-.25.07-.25.08-.27.07-.27.08-.3.08-.3.08-.32.08-.34.08-.35.08-.37.08-.38.08-.4.08-.42.08-.44.08-.46.08-.48.08-.51.08-.53.08-.55.08-.58.07-.61.08-.63.07-.67.07-.68.07-.72.06-.74.07-.77.06-.79.05-.83.05-.84.05-.88.04-.89.04-.92.04-.95.02-.96.03-.98.02-1 .01-1.02.01h-1.03l-1.05-.01-1.05-.01-1.07-.02-1.07-.02-1.08-.04-1.08-.03-1.08-.05-1.08-.05-1.08-.06-1.07-.06-1.06-.07-1.05-.08-1.03-.08-1.02-.09-1-.1-.99-.1-.95-.1-.94-.11-.91-.12-.88-.11-.82-.09-.8-.08-.79-.09-.77-.09-.76-.09-.73-.09-.71-.09-.7-.1-.67-.09-.64-.09-.63-.1-.59-.09-.57-.09-.55-.09-.52-.09" filter="url(#a)" transform="translate(37.16 -26.16)"/><path fill="#fff" d="m36.2-1.86-.53-.05-.57-.04-.6-.05-.62-.05-.66-.05-.68-.04-.7-.05-.73-.04-.76-.04-.77-.04-.79-.04-.81-.04-.83-.03-.84-.04-.86-.03-.95-.05-.98-.05-1-.05-1.02-.04-1.03-.03-1.06-.04-1.07-.03-1.08-.02-1.09-.02-1.09-.02-1.1-.01-1.1-.01-1.1-.01h-1.1l-1.09.01H8.5l-1.07.01-1.06.01-1.05.02-1.03.02-1.02.02-.99.03-.98.03-.95.03-.93.03-.91.04-.88.03-.85.04-.82.05-.8.04-.77.05-.74.04-.71.05-.68.05-.65.06-.62.05-.6.05-.56.06-.54.05-.51.06-.48.06-.45.06-.43.06-.41.06-.39.06-.36.07-.34.06-.33.06-.3.07-.3.06-.27.07-.26.07-.25.07-.22.07-.22.07-.2.07-.19.07-.18.08-.16.07-.15.08-.15.07-.13.08-.13.08-.11.08.32.51.17.07.18.08.19.08.2.08.21.08.22.08.23.08.23.08.25.08.27.08.27.08.29.08.3.08.31.08.33.08.34.08.36.07.38.08.39.08.41.07.43.08.46.07.47.07.5.07.52.06.55.06.57.06.6.06.62.05.65.05.68.05.7.04.72.03.76.03.77.03.81.02.82.02.86.01.87.01H2.4l.93-.01.96-.02.98-.02.99-.03 1-.03 1.02-.04 1.03-.04 1.04-.05 1.05-.06 1.05-.06 1.06-.06 1.06-.07 1.06-.08 1.05-.07 1.05-.09 1.05-.08 1.03-.1 1.03-.09 1.01-.1.99-.1.98-.1.95-.11.94-.1.83-.08.82-.09.8-.08.79-.09.78-.09.75-.08.74-.09.71-.09.69-.08.67-.09.64-.09.62-.08.59-.09.56-.08.53-.08" filter="url(#a)" transform="translate(-28.09 -24.76)"/><g fill="none" stroke="#000" transform="translate(37.16 -26.16)"><path stroke-linejoin="round" stroke-width="1.667" d="m-39.37-1.72.16-.03.2-.02.22-.03.25-.03.29-.03.31-.03.35-.03.37-.03.41-.03.43-.04.47-.03.49-.03.52-.03.55-.03.57-.03.61-.03.62-.03.66-.03.68-.02.7-.03.72-.02.75-.03.77-.02.79-.02.81-.02.82-.03.87-.03.9-.03.93-.03.96-.02 1-.02 1.01-.02 1.05-.01 1.06-.01 1.09-.01 1.09-.01h4.5l1.14.01 1.14.01 1.13.01 1.13.01 1.11.02 1.11.02 1.1.02 1.07.02 1.07.03 1.04.03 1.02.02 1 .03.97.04.95.03.92.04.89.03.87.04.83.04.81.04.77.05.75.04.71.05.68.04.65.05.63.05.59.05.56.06.54.05.51.06.48.05.46.06.44.06.42.06.39.06.38.06.36.07.34.06.32.07.31.07.29.07.27.07.26.07.24.08.23.08.22.07.2.08.2.09.18.08.17.09.17.08.15.09.15.09.13.09.13.1.13.09.11.1.12.1.1.1.1.1" filter="url(#a)"/><path stroke-linejoin="round" stroke-width="2.222" d="m-38.91-.84.2.05.24.05.26.06.31.06.33.07.37.08.4.07.43.08.46.09.48.09.52.09.55.09.57.09.59.09.63.1.64.09.67.09.7.1.71.09.73.09.76.09.77.09.79.09.8.08.82.09.88.11.91.12.94.11.95.1.99.1 1 .1 1.02.09 1.03.08 1.05.08 1.06.07 1.07.06 1.08.06 1.08.05 1.08.05 1.08.03 1.08.04 1.07.02 1.07.02 1.05.01 1.05.01h1.03l1.02-.01 1-.01.98-.02.96-.03.95-.02.92-.04.89-.04.88-.04.84-.05.83-.05.79-.05.77-.06.74-.07.72-.06.68-.07.67-.07.63-.07.61-.08.58-.07.55-.08.53-.08.51-.08.48-.08.46-.08.44-.08.42-.08.4-.08.38-.08.37-.08.35-.08.34-.08.32-.08.3-.08.3-.08.27-.08.27-.07.25-.08.25-.07.23-.08.22-.07.21-.07.2-.08.19-.07.19-.06.18-.07.17-.07.16-.06.15-.07.16-.06.14-.06.14-.06.14-.06.13-.06" filter="url(#a)"/><circle cx="-12.06" cy="-.977" r="4.752" clip-path="url(#b)" filter="url(#a)"/><circle cx="-12.485" cy="-1.432" r="4.458" clip-path="url(#b)" filter="url(#a)"/><circle cx="-12.735" cy="-2.532" r="3.322" clip-path="url(#b)" filter="url(#a)"/><circle cx="-11.795" cy=".638" r="3.716" clip-path="url(#b)" filter="url(#a)"/><circle cx="-9.355" cy="-.837" r="3.188" clip-path="url(#b)" filter="url(#a)"/><circle cx="-8.025" cy=".053" r="3.096" clip-path="url(#b)" filter="url(#a)"/><circle cx="-9.18" cy="-2.537" r="4.608" clip-path="url(#b)" filter="url(#a)"/><circle cx="-11.505" cy="1.588" r="3.33" clip-path="url(#b)" filter="url(#a)"/><circle cx="-8.7" cy="-1.107" r="3.706" clip-path="url(#b)" filter="url(#a)"/><circle cx="-12.15" cy="-1.837" r="4.302" clip-path="url(#b)" filter="url(#a)"/></g><g fill="none" stroke="#000" transform="translate(-28.09 -24.76)"><path stroke-linejoin="round" stroke-width="2.222" d="m39.55-1.4-.15-.04-.2-.04-.24-.05-.28-.04-.32-.05-.35-.04-.4-.05-.44-.05-.46-.05-.51-.05-.53-.05-.57-.04-.6-.05-.62-.05-.66-.05-.68-.04-.7-.05-.73-.04-.76-.04-.77-.04-.79-.04-.81-.04-.83-.03-.84-.04-.86-.03-.95-.05-.98-.05-1-.05-1.02-.04-1.03-.03-1.06-.04-1.07-.03-1.08-.02-1.09-.02-1.09-.02-1.1-.01-1.1-.01-1.1-.01h-1.1l-1.09.01H8.5l-1.07.01-1.06.01-1.05.02-1.03.02-1.02.02-.99.03-.98.03-.95.03-.93.03-.91.04-.88.03-.85.04-.82.05-.8.04-.77.05-.74.04-.71.05-.68.05-.65.06-.62.05-.6.05-.56.06-.54.05-.51.06-.48.06-.45.06-.43.06-.41.06-.39.06-.36.07-.34.06-.33.06-.3.07-.3.06-.27.07-.26.07-.25.07-.22.07-.22.07-.2.07-.19.07-.18.08-.16.07-.15.08-.15.07-.13.08-.13.08-.11.08-.11.08-.1.09-.09.08-.09.08-.08.09-.08.09-.06.08-.07.09-.06.09-.05.09" filter="url(#a)"/><path stroke-linejoin="round" stroke-width="2.222" d="m39.56-.78-.15.04-.19.06-.24.05-.28.06-.32.07-.36.07-.39.07-.44.07-.46.08-.5.08-.53.08-.56.08-.59.09-.62.08-.64.09-.67.09-.69.08-.71.09-.74.09-.75.08-.78.09-.79.09-.8.08-.82.09-.83.08-.94.1-.95.11-.98.1-.99.1-1.01.1-1.03.09-1.03.1-1.05.08-1.05.09-1.05.07-1.06.08-1.06.07-1.06.06-1.05.06-1.05.06-1.04.05-1.03.04-1.02.04-1 .03-.99.03-.98.02-.96.02-.93.01H.58l-.87-.01-.86-.01-.82-.02-.81-.02-.77-.03-.76-.03-.72-.03-.7-.04-.68-.05-.65-.05-.62-.05-.6-.06-.57-.06-.55-.06-.52-.06-.5-.07-.47-.07-.46-.07-.43-.08-.41-.07-.39-.08-.38-.08-.36-.07-.34-.08-.33-.08-.31-.08-.3-.08-.29-.08-.27-.08-.27-.08-.25-.08-.23-.08-.23-.08-.22-.08-.21-.08-.2-.08-.19-.08-.18-.08-.17-.07-.17-.08-.16-.08-.15-.07-.15-.08-.14-.07-.14-.07-.13-.07-.13-.07-.13-.07-.12-.07" filter="url(#a)"/><circle cx="20.611" cy="-.569" r="3.794" clip-path="url(#c)" filter="url(#a)"/><circle cx="19.491" cy="2.026" r="3.126" clip-path="url(#c)" filter="url(#a)"/><circle cx="21.351" cy="-2.149" r="4.332" clip-path="url(#c)" filter="url(#a)"/><circle cx="18.631" cy="-.264" r="3.514" clip-path="url(#c)" filter="url(#a)"/><circle cx="18.666" cy="-.844" r="3.59" clip-path="url(#c)" filter="url(#a)"/><circle cx="18.196" cy=".581" r="4.686" clip-path="url(#c)" filter="url(#a)"/><circle cx="18.581" cy="1.271" r="4.526" clip-path="url(#c)" filter="url(#a)"/><circle cx="18.491" cy="-2.339" r="3.066" clip-path="url(#c)" filter="url(#a)"/><circle cx="20.811" cy="-.209" r="3.588" clip-path="url(#c)" filter="url(#a)"/><circle cx="20.736" cy="-1.574" r="4.108" clip-path="url(#c)" filter="url(#a)"/></g><g fill="none" stroke="url(#d)" stroke-linejoin="round" stroke-width="2"><path d="m-6.69-83.23 24.7 8.37 9.44 6.69.59 2.82-1.48.59-1.4.08-1.8.16-2.24.3-1.8.41-.85.32-.66-.31-1.93-1.49-4.19-2.6-6.31-2.85-7.45-1.94-7.18-.36-4.96 1.08-.14 1.92 8.24 2.47 21.93 4.09 36.13 15.72" filter="url(#a)"/><path d="m-6.69-83.23 23.37 11.35 2.77.91 1.79 1.35-.17.46-3.37-1.25-5.2-1.97-5.29-1.65-4.46-1.01-2.94-.34-.4.58 2.86 1.89 5.08 3.17 4.02 3.56-.33 2.47-3.48.65 2.29.35 17.61 2.53 15.96-.59" filter="url(#a)"/><path d="m48.53-53.64-7.24-8.39-7.58-4.31-11.79-3.5-12.91-2.82-9.44-1.43-3.3.42L-.8-71.6l7.23 2.8 8.48 2.22 6.67.62 2.98-1.16-.93-2.17-3.59-1.73-4.47.28-4.21 3.22-3.77 5.5.43 4.75 38.42.83" filter="url(#a)"/><path d="M43.19-60.64 8.63-69.28l-4.35 3.6 7.22 4.23 7.64 2.5 4.68 1.04 2.09.21.84-.12.35-.31-.11-.63-.64-1.11-1.08-1.52-1.62-1.68-2.67-1.59-3.97-1.26-4.11-.56-1.69.86 2.2 3.11 2.6 5.9-8.58 7.29-54.03-6.76" filter="url(#a)"/><path d="m-20.73-78.78 37.28 11.29 7.23.34-4.85.82-11.59 1.16-11.1.14-4.05-1L-3-67.36l10.24-.96 9.53-.7 3.35-1.16-5.14-2.26-11.83-3.1-13-2.78-7.17-1.51 2.55-1.53" filter="url(#a)"/><path d="m23.61-77.46-30.89 2.4-7.14.65 1.78-1.79 1.94-1.35 1.36.36 2.5 1.65 3.87 1.65 3.36.5.96-.8-.81-1.02.93.31 6.04 2.18 9.97 2.28 7.64-.88 9.53 1.26" filter="url(#a)"/><path d="m42.14-62.05-19.4-8.4-4.14.62 5.84 2.64 6.15 1.57 2.59.29-1.01-.31-2.99-.3-2.95-.08-1.31.13.83.2 2.3.24 2.37.2.8-.02-2.27-.65-6.17-1.48-8.92-1.37L7-67.4l3.99 7.35 22.39 14.27 26.09 17.87" filter="url(#a)"/><path d="M-9.06-82.8 8.69-67.96l-3.7 2.45.63 1.47 6.29 3.63 7.5 4.41 4.53 2.81.56.25-1.71-1.51-2.11-1.84-2.07-1.32-2.56-.66-2.93-.06-1.64.7 1.83 1.75 5.57 2.7 5.26 2.46-2.17-.46-7.96-5.48 29.18-3.98" filter="url(#a)"/><path d="m-14.47-81.36 2.75.86 3.57 2.92-3.73 4.97-6.29 4.46-2.24 2.39 4.62.69 10.35.47 12.81 1.33L19-61.17l7.58 1.96 2.11.89-3.23-.35-7.29-1.12-9.59-1.23-10.2-1.21-9.18-1.59-6.19-2.48-1.13-3.15 4.54-2.21 8.42 2.02L8.66-58.68l48.85 24.96" filter="url(#a)"/><path d="m59.47-27.91-4.99-6.23-14.97-13.45-15.92-13.1-10.24-7.45-4.12-2.18-.08.31 2.38.77 4.03.99 4.62 1.86 3.06 2.77-1.43 2.41-8.11.25-13.92-2.47-14.67-3.79-8.27-3.51.73-3.97-4.26-1.21" filter="url(#a)"/><path d="M55.7-39.4 11.56-62.56l-7.05-4.45 7.69-.27 7.79-.27 3.48-1.17-.53-1.92-2.83-2.08-3.29-1.39-2.22.05-.24 1.93 1.71 3.82 2.59 5.25 1.69 5.68-.7 4.78-3.09 2.6-3.81-.38-2.83-3.79-3.08-7.44-9.25-10.75-16.26-7.39" filter="url(#a)"/><path d="m-26.77-75.49 3.47.15-4.31 2.86-2.43 1.26.56.29 4.18-.23 8.03-.42 10.5.08 9.99 1.29 6.06 2.28.17 1.96-4.65.49-5.39-.26-1.53 1.6 6.84 4.93 43.81 5.57" filter="url(#a)"/><path d="m-20.73-78.78 13.57 9.69 20.63 5.24 6.91-1.49-3.3-4.1-7.38-3.33-7.89-1.47-6.63.07-4.12.94-.74 1.32 2.83 1.41 5.58 1.32 6.63.95 5.57.34 2.69-.1-.69.36-3.18 1.81-5.78 1.91-11.78-4.2-5.15-13.73" filter="url(#a)"/><path d="M53.39-44.84 17.6-65l-8.17-5.18-5.62.74-1.31 2.85 4.65 3.05 7.77 2.28 7.19 1.18 4.97.28 3.25.01 2.82.46 3.03 1.34 2.64 1.84.5 1.03-3.71-1.32-9.26-4.09-14.47-5.33-16.06-4.26-6.69-3.15 26.9-7.42" filter="url(#a)"/><path d="m-33.55-70.96 12.92 6.51 19.22-2.73 7.53-4.42-.38-3.32-2.55-1.92-1.93-.76-1.14.19-1.06.83-1.51 1.17-2.02 1.32-1.9 1.53-.09 1.99 3.98 2.72 8.54 3.21 9.15 2.28 2.47-1.15-3.63-4.44 24.31 1.63" filter="url(#a)"/><path d="M43.42-60.77 22.66-74.14l-5.43-3.11-1.53.98-3.27 2.13-5.67 2.03-5.67 1.87-3.15 2.05-.19 2.3 1.33 2.08 1.39 1.24 1.32.19L4-62.73l4.39.46 8.16 2.67 12.47 3.81 10.16-1.71-7.3-14.63M-.4-83.85l-.14.21-.6 1.06-.92 1.45-1.1 1.1-1.12.65-1.03.53-.91.71-.81.99-.78 1.17-.78 1.19-.79 1.1-.8.93-.78.73-.75.56-.66.48-.53.56-.35.83-.16 1.27-.44 1.81L11.98-91.1l-1.28.08-1.56.36-1.3.54-1.12.66-1.05.72-1.04.78-1.03.82-1 .77-.93.62-.85.46-.79.34-.77.3-.85.31-1.02.32-1.28.28-1.53.25-1.27.26" filter="url(#a)"/><path d="m-6.19-83.33-1.62.1-1.2-.3-1.2-.85-1.25-1.13-1.18-.84-1.03-.29-.89.16-.82.29-.83.19-.92.04-1.02-.07-1.13-.06-1.2-.01-1.21.08-1.18.12-1.17.1-1.15.02-1.14-.1-1.12-.24-1.08-.4-1.1-.69-1.14-1.11-.7-1.19-6.64-10.4 2.09.52 1.87 2.13 1.87 2.64 1.76 2.36 1.57 1.68 1.39.92 1.25.23 1.14-.26 1.1-.58 1.1-.71 1.14-.61 1.22-.21 1.26.47 1.29 1.21 1.25 1.75 1.19 1.9 1.11 1.65 1.09 1.22 1.12.76 1.25.32h1.26" filter="url(#a)"/><path d="m-12.96-81.84-1.12.1-.89-.51-.86-.7-.93-.51-1.1-.36-1.28-.39-1.37-.47-1.37-.5-1.33-.48-1.32-.53-1.31-.64-1.31-.74-1.28-.72-1.21-.57-1.17-.33-1.2-.14-1.32-.08-1.48-.07-1.6.03-1.59.24-1.5.38-1.36.04-1.21-.89-1.28-2.01 6.76.99 2.29 1.08 1.94 1.23 1.63 1.4 1.32 1.06 1.11.62 1.03.38 1.1.43 1.22.63 1.29.74 1.28.59 1.23.28 1.22-.01 1.3-.08 1.32.03 1.01.36.01 1.27" filter="url(#a)"/><path d="m-19.66-79.41 1.14-.72 1.07-1.15.83-.95.66-.66.64-.54.68-.51.78-.48.88-.46.96-.45.99-.54 1-.72.97-.94.95-1.08.97-1.09 1.05-.96 1.16-.75 1.27-.55 1.26-.48 1.08-.64.71-1.11.15-1.71m-24.73 19.06.77.27.82-.45.96-.37 1.04-.12 1.07.03 1.11.01 1.1-.09 1.05-.18.95-.21.86-.16.79-.04.79.12.84.29.91.39.97.4 1.01.34 1.01.27.98.24.96.23.86.31.32.65-38.55-2.06.98.26 1.09.01 1.28-.01 1.35.01 1.3.08 1.13.06.89-.17.68-.61.61-1.04.75-1.15 1.14-.66 1.65.38 2.06 1.47 1.98 1.83.91 1.02m88.05 56.46.23-.62.34-1.17.8-1.42 1-1.52.89-1.55.71-1.59.5-1.67.29-1.79.12-1.85.06-1.82.05-1.67v-1.47l-.09-1.4.02-1.79-.38-2.8m-122.66-5.26.82-1.3.9-.8.83-.8.86-.89.93-.89.97-.81.95-.76.87-.76.77-.84.7-.91.68-.95.69-.95.75-.89.78-.84.8-.84.78-.88.76-.94.74-.96.71-.88.7-.74.71-.64.84-.53 1.31.53 1.05 3.51-.89.37-.88.25-.76.52-.79.66-.82.73-.77.81-.65.93-.51 1.09-.39 1.22-.29 1.35-.19 1.43-.09 1.51v1.54l.05 1.55.02 1.51-.05 1.48-.11 1.49-.11 1.54.02 1.45.35.81" filter="url(#a)"/><path d="m-39.9-64.86.8-1.55.72-.82.7-.74.72-.88.65-1.05.53-1.22.4-1.28.34-1.23.43-1.09.61-.97.82-.97.94-1.11.95-1.36.81-1.67.57-1.95.33-2 .6-1.36m-11.83 22.28-1.42 1.73-.93 1.11-.69.83-.65.82-.68.87-.71.92-.7.91-.66.9-.64.91-.62.92-.64.96-.65 1-.66 1.05-.65 1.06-.59 1.01-.51.93-.4.81-.25.46.23-.66 6.41-37.21-.05 1.19-.07 1.71.11 2.28.2 2.43.07 2.19-.13 1.88-.27 1.73-.27 1.78-.22 1.85-.23 1.79-.31 1.62-.34 1.51-.27 1.58-.07 1.77.07 1.86v1.7l-.23 1.35-.4 1.01-.48.65-.53 1.53.08-1.59.12-1.34.39-1.06.53-.97.54-1.03.49-1.15.45-1.28.41-1.33.43-1.28.52-1.14.67-1.01.79-.99.77-1.07.55-1.15.31-1.03.08-.59m-9.71 22.46-.83.38-.96.26-1.2.63-1.19.76-1 .75-.76.81-.6.97-.62 1.02-.82.89-1.07.65-1.13.52-1 .69-.9 1.01-1.07.88-1.35-.97" filter="url(#a)"/><path d="m-70.96-30.69.38-3.28 1.33-1.53 1.6-.74 1.59-.53 1.44-.59 1.27-.64 1.17-.62 1.14-.6 1.11-.61 1.02-.71.86-.83.62-.98.43-1.12.45-1.21.77-1.09 1.21-.63 1.28-.05 1.07-.19" filter="url(#a)"/><path d="m-77.42-18.11.69-.61.13-.66.71-1.09 1.08-1.3 1.16-1.32 1.13-1.2 1.13-1.04 1.17-.92 1.19-.9 1.17-1.01 1.09-1.16.99-1.28.94-1.3.92-1.22.94-1.1.86-1.03.62-1.1.22-1.25-.09-1.39.05-1.28.93-.81 2.14-.19 2.43.06.81.5" filter="url(#a)"/><path d="m-58.57-65.94-.59 1.07.36 2.18.49 2.52.57 2.6.61 2.47.41 2.03-.01 1.45-.36 1.02-.36 1.04-.01 1.5.37 1.99.51 2.06.41 1.62.41 1.44-.15 2.65M59.97-24.82l.08.72.02 1.21-.14 1.18-.18 1.14-.12 1.11-.03 1.14.04 1.23-.03 1.4-.24 1.55-.51 1.59-.7 1.46-.68 1.22-.52.97-.46.84-.74.7-1.01-.46m28.76-.85-1.42-2.7-1.25-1.26-1.74-.93-1.92-1.13-1.77-1.41-1.46-1.59-1.11-1.59-.83-1.49-.63-1.35-.5-1.26-.42-1.21-.41-1.17-.58-1.11-.94-.98-1.47-.84-1.97-.72-2.2-.7-2.01-.78-1.49-.85-.9-.86-.5-.79-.3-.39m-1.28-3.01-.8-1.59-.53-1.53-.59-1.4-.69-1.14-.73-.89-.7-.75-.61-.71-.55-.75-.57-.78-.63-.8-.7-.81-.73-.83-.74-.83-.75-.83-.78-.82-.79-.75-.77-.64-.74-.47-.64-.2" filter="url(#a)"/><path d="m55.7-39.4-.92-2.36-.01-1.88.52-1.87.44-1.64.06-1.28-.22-1.07-.26-1.17-.04-1.54.31-2.01.62-2.4.76-2.59.56-2.48.09-2.1-.34-1.69-.17-1.79.19-2.36-16.88 6.4.48.66.75.83.7.75.63.7.62.74.64.79.64.83.63.83.63.85.63.85.63.89.63.94.63.98.62 1.01.62 1.02.62 1.02.6.99.57.94.52.88.47.83.43.82.41.82.37.83.33.82" filter="url(#a)"/><path d="m54.05-14.18.24-1.29.31-1.07.37-1.03.26-1.05.19-1.07.15-1.1.1-1.14v-1.19l-.1-1.25-.14-1.34-.09-1.42-.01-1.46.07-1.47.06-1.41v-1.34l-.11-1.25-.19-1.15-.24-1.09-.25-1.08-.29-1.16-.38-1.29-.44-1.47-.21-1.6.24-1.52" filter="url(#a)"/><path d="m51.95-47.76.99.5 1.25-.16.89.37.52.9.42 1.18.53 1.23.73 1.13.95.95 1.12.74 1.23.61 1.23.61 1.2.69 1.18.77 1.19.84 1.19.91 1.21 1.03 1.23 1.23 1.31 1.4 1.32 1.35 1.08.89 1.42-.26-23.03-17.96.15 1.54-.18 1.39.06 1.04.35.86.53.85.55.96.42 1.16.22 1.34.03 1.43-.01 1.4.05 1.29.19 1.16.3 1.08.3 1.09.21 1.16.07 1.27-.03 1.4-.05 1.48.02 1.5.07 1.42v1.31l-.19 1.25-.33 1.19-.27.49M43.15-61.06l.03.05-.25-.59-.53-.92-.7-1.05-.77-1.08-.76-1.11-.71-1.15-.63-1.21-.58-1.24-.58-1.21-.62-1.09-.69-.94-.75-.82-.76-.84-.73-1-.68-1.26-.63-1.54-.61-1.72-.64-1.7-.71-1.44-.8-1.15-.85-1.07-.72-1.31-.29-1.11 9.31 20.19.19.41.63.83.77 1.05.75 1.15.67 1.17.55 1.19.41 1.23.26 1.31.14 1.41.08 1.47.1 1.45.19 1.32.31 1.14.43.99.51.9.51.93.42 1.05.28 1.21.1 1.39v1.51l.04 1.57.2 1.56.49 1.49-23.19-63.2.25 1.04.9 1.77.98 2.09.79 2.35.58 2.49.43 2.47.42 2.2.49 1.75.62 1.3.69 1.07.69 1.13.59 1.44.49 1.82.43 2.12.44 2.24.52 1.97.56 1.25.37.77 17.92-6.71-1.23.06-1.08-1.06-1.48-.25-1.85.71-1.99 1.21-1.98 1.27-1.84 1.09-1.62.75-1.32.31-1.02-.18-.85-.49-.95-.34-1.36.25-1.79.53-1.77-.14-27.21 1.8.52.1.81-.26.91-.51.91-.6.93-.73.97-.88 1.01-.9.99-.7.9-.32.81.07.76.31.79.28.9-.02 1.05-.43 1.13-.74 1.09-.73.91-.41.7-.01.65.14 1-.04 1.58.16-6.18-2.76-.64-.11-.95-.22-.84-.31-.73-.32-.76-.28-.87-.24-.97-.23-1.01-.24-1.01-.23-.99-.21-.98-.2-.96-.19-.95-.2-.9-.23-.85-.22-.81-.16-.8-.1-.87-.02-1.04-.01-1.32-.03-1.58-.05-1.35-.04m69.32 74.65.85 1.63.52 2.11 1.39 2.26 2.27 2.31L70.19-.3l2.78 2.33 2.55 2.41 2.22 2.51 1.89 2.62 1.62 2.68 1.4 2.69 1.24 2.62 1.1 2.52.95 2.41.75 2.3.51 2.23.25 2.23.05 2.26-.08 2.32-.13 2.38-.15 2.38-.12 2.34.04 2.23.44 2.13 1.09 2.04 1.77 1.99 2 1.97 1.23 1.93-.63 1.99-2.45 2.35-2.09 3.07" filter="url(#a)"/><path d="m-.4-83.85-1.28.07-2.14.22-2.59.32-2.71.37-2.59.43-2.36.49-2.16.53-2.11.6-2.22.66-2.51.73-2.89.8-3.3.87-3.63.94-3.82 1.01-3.83 1.07-3.72 1.14-3.52 1.19-3.33 1.24-3.2 1.29-3.14 1.35-3.16 1.41-3.22 1.49-3.34 1.57-3.56 1.67-3.94 1.77-4.54 1.85-5.32 1.94-6.14 2.02-6.68 2.08-6.81 2.16-7 2.16-7.01 1.77" filter="url(#a)"/><path d="m-2.08-83.64-2.67.17-1.92.3-1.77.38-1.68.45-1.63.5-1.64.57-1.66.66-1.66.73-1.59.81-1.48.87-1.36.95-1.3 1.02-1.29 1.1-1.33 1.18-1.39 1.25-1.43 1.31-1.43 1.37-1.35 1.4-1.23 1.45-1.05 1.5-.85 1.55-.68 1.62-.53 1.69-.39 1.75-.28 1.8-.16 1.85-.03 1.9.09 1.96.16 2.03.17 2.1.13 2.16.15 2.22.26 2.33.88 2.41" filter="url(#a)"/><path d="m-2.9-83.7-2.95.41-2.24.4-2.13.43-2.18.48-2.31.54-2.44.58-2.55.66-2.59.72-2.55.79-2.43.87-2.33.93-2.26 1-2.31 1.07-2.47 1.13-2.68 1.18-2.83 1.22-2.86 1.27-2.71 1.32-2.44 1.38-2.25 1.45-2.26 1.53-2.57 1.64-3 1.74-3.35 1.85-3.7 1.98-3.91 1.89" filter="url(#a)"/><path d="m-2.9-83.7-3 .42-2.3.4-2.11.43-2.04.49-2.01.55-2.02.6-2.09.66-2.21.74-2.33.81-2.39.88-2.38.96-2.32 1.02-2.24 1.09-2.16 1.14-2.12 1.2-2.1 1.25-2.08 1.3-2.11 1.37-2.15 1.43-2.23 1.51-2.33 1.59-2.43 1.69-2.53 1.77-2.6 1.86-2.64 1.94-2.63 1.99-2.56 2.01-2.46 2-2.31 1.96-2.16 1.9-2.06 1.9-2.31 1.88-2.42.61" filter="url(#a)"/><path d="m-6.69-83.23-1.75.35-2.06.43-2.21.49-2.17.54-2.07.6-1.99.67-1.97.74-2 .82-2.08.89-2.25.96-2.5 1.02-2.8 1.09-3.05 1.15-3.16 1.2-3.13 1.26-3 1.31-2.87 1.36-2.87 1.44-3.07 1.51-3.43 1.6-3.85 1.69-4.11 1.78-4.09 1.87-3.75 1.93-3.14 1.98-2.46 2-1.87 2-1.57 1.96-1.64 1.92-2.02 1.93-2.63 1.97-3.4 2.09-5.39 2.96" filter="url(#a)"/><path d="m-6.19-83.33-2.57.5-2.12.48-2 .5-2.21.57-2.6.65-2.96.76-3.1.82-3.05.89-2.87.96-2.66 1.03-2.52 1.11-2.47 1.19-2.55 1.27-2.72 1.33-2.96 1.37-3.2 1.42-3.37 1.46-3.37 1.51-3.19 1.57-2.88 1.64-2.59 1.7-2.45 1.75-2.58 1.82-2.99 1.86-3.51 1.93-3.99 1.98-4.21 2.03-4.1 2.09-3.73 2.13-3.26 2.14-2.94 2.12-3 2.07-3.42 2.06-3.81 2.14-3.27 2.29-.33 1.49" filter="url(#a)"/><path d="m-6.19-83.33-2.52.5-2.14.48-2.18.5-2.42.57-2.67.65-2.72.76-2.58.82-2.32.89-2.14.96-2.08 1.03-2.15 1.11-2.27 1.19-2.39 1.27-2.47 1.33-2.53 1.37-2.56 1.42-2.57 1.46-2.54 1.51-2.45 1.57-2.34 1.64-2.24 1.7-2.17 1.75-2.18 1.82-2.25 1.86-2.36 1.93-2.44 1.98-2.49 2.03-2.48 2.09-2.48 2.13-2.48 2.14-2.49 2.12-2.45 2.07-2.28 2.06-2.12 2.14-2.29 2.29-2.35 1.49" filter="url(#a)"/><path d="m-6.19-83.33-2.48.5-2.14.48-1.94.49-1.86.56-1.91.66-1.95.74-1.94.83-1.9.88-1.86.94-1.83 1.02-1.84 1.1-1.85 1.19-1.85 1.26-1.83 1.32-1.77 1.37-1.69 1.4-1.62 1.45-1.55 1.5-1.52 1.55-1.52 1.62-1.54 1.69-1.57 1.74-1.59 1.8-1.58 1.85-1.55 1.9-1.47 1.96-1.37 2.03-1.28 2.1-1.23 2.15-1.29 2.22-1.36 2.32-1.19 2.41" filter="url(#a)"/><path d="m-6.19-83.33-2.38.49-1.91.48-1.51.49-1.18.55-.98.64-1 .74-1.14.81-1.25.87-1.17.92-.89 1-.5 1.08-.14 1.17.16 1.25.44 1.31.75 1.35 1.12 1.38 1.43 1.42 1.49 1.45 1.25 1.51.81 1.59.45 1.68.46 1.75.88 1.79 1.49 1.77 1.86 1.7 2.07 1.52" filter="url(#a)"/><path d="m-9.06-82.8-2.11.46-2.66.48-2.65.53-2.51.64-2.59.75-2.88.83-3.22.87-3.37.93-3.3 1-3.08 1.08-2.89 1.18-2.91 1.26-3.17 1.32-3.62 1.35-4.07 1.38-4.29 1.42-4.21 1.46-3.88 1.53-3.64 1.59-3.85 1.68-4.71 1.74-5.94 1.78-6.85 1.8-6.65 1.81-4.86 1.93-1.53 2.41" filter="url(#a)"/><path d="m-9.06-82.8-1.83.46-1.88.48-2.17.55-2.56.65-2.75.75-2.71.84-2.61.88-2.6.95-2.76 1.01-2.97 1.11-3.17 1.19-3.26 1.27-3.3 1.32-3.32 1.37-3.34 1.4-3.37 1.45-3.38 1.49-3.35 1.56-3.36 1.62-3.48 1.68-3.71 1.75-3.93 1.8-4.05 1.85-3.95 1.89-3.77 1.96-3.68 2.03-3.83 2.1-4.09 2.15-4.25 2.22-4.55 2.31-5.42 2.41" filter="url(#a)"/><path d="m-10.88-82.33-2.78.48-1.93.5-2.71.63-3.28.77-3.14.83-2.71.88-2.41.93-2.39.99-2.55 1.08-2.77 1.18-2.93 1.26-2.99 1.32-2.99 1.35-2.98 1.38-3.08 1.4-3.41 1.45-3.9 1.51-4.35 1.59-4.5 1.67-4.36 1.75-4.26 1.79-4.63 1.76-5.2 1.69-3.72 1.52" filter="url(#a)"/><path d="m-12.96-81.84-1.52.49-2.07.62-2.77.8-3.12.87-3.06.9-2.79.95-2.59 1.01-2.52 1.11-2.6 1.21-2.77 1.28-2.95 1.34-3.04 1.37-2.97 1.41-2.69 1.46-2.26 1.5-1.83 1.56-1.57 1.63-1.58 1.69-1.83 1.75-2.22 1.81-2.55 1.86-2.67 1.91-2.53 1.96-2.25 2.04-1.98 2.09-1.89 2.14-2 2.17-2.37 2.13-2.95 1.98-3.42 1.58-3.41.8" filter="url(#a)"/><path d="m-12.96-81.84-5.69.48-1.17.62-1.93.79-3.08.86-3.42.9-3.11.93-2.65 1-2.29 1.09-2.09 1.2-2.05 1.27-2.18 1.33-2.44 1.36-2.81 1.39-3.23 1.43-3.71 1.47-4.27 1.54-4.87 1.6-5.43 1.68-5.74 1.74-5.73 1.78-5.47 1.82-5.29 1.86-5.53 1.93-6.04 2.03-5.84 2.16-6.16 2.49" filter="url(#a)"/><path d="m-12.96-81.84-1.59.49-1.83.62-2.26.8-2.48.88-2.57.91-2.62.95-2.64 1.02-2.61 1.12-2.56 1.21-2.48 1.29-2.38 1.34-2.31 1.38-2.28 1.42-2.33 1.46-2.43 1.52-2.5 1.57-2.49 1.64-2.38 1.7-2.17 1.76-1.94 1.82-1.8 1.87-1.84 1.93-2.04 1.98-2.33 2.03-2.58 2.09-2.63 2.12-2.49 2.13-2.26 2.11-2.13 2.1-2.23 2.1-2.44 2.18-2.43 2.36-2.01 2.62-2.64 3.44" filter="url(#a)"/><path d="m-14.47-81.36-2.33.56-2.82.62-3.32.75-3.12.85-2.58.92-2.16.98-1.99 1.05-2.02 1.12-2.15 1.17-2.31 1.23-2.49 1.27-2.69 1.33-2.87 1.4-3.03 1.46-3.15 1.55-3.25 1.63-3.26 1.72-3.21 1.8-3.09 1.87-2.92 1.93-2.81 1.97-2.78 1.99-2.84 1.99-2.93 2-2.95 2.01-2.76 2.04-2.41 2.08-2.02 2.12-1.85 2.17-2.04 2.21-2.66 2.26-3.44 2.4-4.11 2.61-4.3 2.79-3.87 2.58-3.6 1.65" filter="url(#a)"/><path d="m-14.47-81.36-1.55.55-1.58.6-1.76.73-1.85.82-1.83.9-1.79.95-1.74 1.02-1.72 1.08-1.72 1.14-1.7 1.19-1.66 1.23-1.61 1.27-1.57 1.32-1.55 1.38-1.55 1.45-1.55 1.54-1.54 1.64-1.53 1.75-1.52 1.84-1.57 1.94-1.61 1.98-1.53 1.98" filter="url(#a)"/><path d="m-16.29-80.69-1.19.46-1.87.74-2.1.86-2.26.91-2.4.97-2.43 1.03-2.36 1.1-2.24 1.16-2.21 1.2-2.37 1.25-2.72 1.29-3.17 1.35-3.59 1.42-3.85 1.49-3.9 1.58-3.72 1.67-3.41 1.77-3.06 1.86-2.81 1.93-2.8 2-3.14 2.04-3.64 2.03-3.88 1.88-3.32 1.41-1.94.41" filter="url(#a)"/><path d="m-15.07-81.39-4.35 1.35-2.13 1.03-1.62.92-1.81.93-2.27 1.01-2.69 1.13-2.84 1.23-2.71 1.31-2.43 1.36-2.15 1.4-1.95 1.43-1.85 1.48-1.83 1.52-1.9 1.59-2.06 1.66-2.29 1.71-2.55 1.78-2.78 1.83-2.89 1.89-2.9 1.94-2.81 2-2.65 2.04-2.48 2.08-2.34 2.11-2.25 2.13-2.2 2.15-2.21 2.16-2.29 2.21-2.4 2.27-2.56 2.35-2.69 2.4-2.67 2.42-2.39 2.37-1.77 2.31-1.15 2.28-1.34 2.15-2.67 1.45" filter="url(#a)"/><path d="m-15.07-81.39-3.39 1.34-2.54 1.02-2.14.92-1.99.91-2.06 1-2.29 1.11-2.54 1.22-2.7 1.3-2.73 1.35-2.6 1.38-2.38 1.41-2.12 1.45-1.88 1.5-1.76 1.56-1.75 1.63-1.82 1.69-1.88 1.75-1.92 1.81-1.94 1.85-2.04 1.91-2.28 1.97-2.64 2.03-2.98 2.09-3.22 2.14-3.3 2.16-3.28 2.12-3.23 1.98-2.84 1.57-1.55.8" filter="url(#a)"/><path d="m-18.67-79.75-2.51.87-1.81.83-2.14.89-2.89.98-3.44 1.13-3.52 1.24-3.25 1.32-2.97 1.37-2.91 1.4-3.1 1.42-3.42 1.47-3.68 1.52-3.7 1.58-3.48 1.65-3.05 1.72-2.54 1.77-2.05 1.83-1.69 1.88-1.52 1.93-1.62 1.99-1.95 2.04-2.47 2.08-3.05 2.11-3.59 2.13-3.94 2.13-4.15 2.14-4.24 2.18-4.36 2.26-4.64 2.36-5.06 2.46-5.43 2.45-5.31 2.31-4.72 2.15-6.03 3.03" filter="url(#a)"/><path d="m-19.66-79.41-1.35.82-1.75.95-1.79.98-1.65 1.06-1.47 1.13-1.36 1.19-1.37 1.24-1.43 1.29-1.5 1.33-1.48 1.4-1.4 1.48-1.28 1.56-1.15 1.65-1.04 1.74-.96 1.81-.92 1.89-.89 1.93-.86 1.98-.84 1.99-.81 2-.78 2.01-.73 2.02-.65 2.06-.52 2.09-.34 2.14-.14 2.19.06 2.26.2 2.32.27 2.42.23 2.5.13 2.57.01 2.59-.08 2.55-.05 2.5.17 2.45.62 2.43 1.3 3.24m25.6-69.76-2.26.81-3.16.93-2.75.97-2.23 1.04-2.19 1.11-2.47 1.17-2.79 1.23-2.91 1.25-2.78 1.31-2.58 1.36-2.53 1.43-2.74 1.51-3.16 1.61-3.59 1.69-3.8 1.79-3.73 1.86-3.47 1.94-3.29 1.98-3.45 1.99-3.87 1.99-4.24 1.94-4.13 1.9-3.57 1.9-3.14 1.97-3.99 2.06-6.79 2.95" filter="url(#a)"/><path d="m-19.66-79.41-1.63.81-1.95.94-1.94.98-1.91 1.04-1.88 1.12-1.79 1.19-1.71 1.23-1.63 1.27-1.58 1.32-1.56 1.37-1.55 1.46-1.54 1.53-1.55 1.62-1.53 1.72-1.52 1.8-1.48 1.88-1.45 1.93-1.42 1.97-1.4 1.99-1.36 1.98-1.33 1.98-1.28 1.98-1.24 2-1.21 2.07-1.18 2.13-1.14 2.17-1.06 2.13-.95 1.99-.87 1.97-1.09 2.5" filter="url(#a)"/><path d="m-20.73-78.78-2.33 1.13-1.39.97-1.19 1.02-1.09 1.11-.85 1.18-.6 1.23-.49 1.25-.54 1.3-.69 1.35-.76 1.43-.71 1.5-.5 1.6-.26 1.69-.09 1.78-.07 1.87-.13 1.93-.13 1.98v2l.29 1.99.6 1.93.78 1.86.56 1.89-.16 1.86-.24.58" filter="url(#a)"/><path d="m-20.73-78.78-2.54 1.13-2.09.97-2.16 1.02-2.25 1.11-2.25 1.18-2.14 1.23-1.96 1.25-1.75 1.3-1.57 1.35-1.44 1.43-1.4 1.5-1.45 1.6-1.53 1.69-1.6 1.78-1.64 1.87-1.65 1.93-1.67 1.98-1.73 2-1.83 1.99-1.89 1.93-1.9 1.86-1.88 1.89-1.87 1.86-1.28.58" filter="url(#a)"/><path d="m-20.73-78.78-2.57 1.14-1.89.98-1.85 1.03-2.03 1.12-2.14 1.2-2.12 1.24-2.05 1.27-1.97 1.32-1.97 1.38-2.02 1.46-2.06 1.53-2.04 1.63-1.97 1.72-1.84 1.81-1.74 1.88-1.69 1.94-1.69 1.97-1.75 1.99-1.81 1.98-1.85 1.98-1.88 1.99-1.9 2.01-1.88 2.06-1.85 2.13-1.81 2.15-1.82 2.15-1.88 2.13-1.97 2.25-1.99 2.76-1.73 3.77" filter="url(#a)"/><path d="m-24.02-77.34-1.54.72-1.75.96-1.83 1.12-1.94 1.2-1.97 1.24-1.87 1.26-1.72 1.3-1.6 1.35-1.53 1.43-1.54 1.52-1.59 1.6-1.68 1.7-1.76 1.79-1.83 1.87-1.88 1.93-1.89 1.98-1.88 1.99-1.85 1.98-1.75 1.93-1.56 1.89-1.36 1.9-1.29 1.96-1.44 2.06-1.88 2.94" filter="url(#a)"/><path d="m-24.02-77.34-1.42.73-2.08.99-3.33 1.14-4.55 1.22-4.9 1.26-4.24 1.29-2.98 1.34-1.72 1.4-1 1.47-.97 1.57-1.51 1.66-2.28 1.75-2.9 1.82-3.15 1.9-3.05 1.95-2.75 1.97-2.52 2-2.53 2-2.8 2.01-3.21 2.03-3.55 2.06-3.68 2.1-3.54 2.15-3.2 2.2-2.75 2.27-2.31 2.34-2.02 2.41-1.96 2.5-2.2 2.54-2.7 2.56-3.33 2.55-3.85 2.52-4.09 2.5-3.98 2.51-3.56 2.55-3.12 2.58-3.97 2.46" filter="url(#a)"/><path d="m-24.63-76.95-1.56.72-3.17 1.06-3.8 1.32-3.23 1.41-2.51 1.4-2.21 1.39-2.28 1.41-2.54 1.45-2.91 1.52-3.37 1.57-3.82 1.65-4.08 1.72-3.99 1.77-3.49 1.83-2.67 1.88-1.84 1.93-1.35 1.98-1.41 2.04-2.06 2.08-3.07 2.11-4.14 2.12-4.9 2.12-5.12 2.12-4.67 2.15-3.64 2.23-2.51 2.38-2.1 2.51-2.99 2.52-4.72 2.11-5.97.73" filter="url(#a)"/><path d="m-25.19-76.84-1.74 1.15-2.16 1.18-2.26 1.26-2.1 1.27-1.87 1.28-1.72 1.33-1.66 1.39-1.67 1.48-1.71 1.56-1.76 1.66-1.84 1.75-1.95 1.83-2.08 1.9-2.2 1.95-2.27 1.98-2.32 1.99-2.34 2-2.36 2.01-2.44 2.02-2.55 2.05-2.64 2.1-2.65 2.14-2.54 2.19-2.37 2.26-2.25 2.33-2.33 2.42-2.68 2.5-3.28 2.55-3.91 2.57-4.25 2.54-4.02 2.51-3.15 2.48-1.86 2.49-.67 2.6.14 2.57" filter="url(#a)"/><path d="m-25.19-76.84-2.92 1.15-2.09 1.17-1.91 1.26-1.95 1.26-1.97 1.28-1.94 1.32-1.94 1.39-2.01 1.47-2.08 1.55-2.14 1.65-2.16 1.74-2.16 1.82-2.16 1.9-2.19 1.94-2.28 1.98-2.45 1.99-2.66 1.99-2.87 2-2.94 2.01-2.81 2.03-2.46 2.08-1.99 2.13-1.56 2.17-1.37 2.23-1.52 2.3-2.01 2.41-2.7 2.53-3.37 2.61-3.61 2.59-3.05 2.53-1.69 2.79-.39 3.84" filter="url(#a)"/><path d="m-26.77-75.49-1.99.94-2.7 1.27L-34.4-72l-2.44 1.25-1.76 1.28-1.4 1.35-1.47 1.44-1.86 1.52-2.36 1.61-2.85 1.71-3.3 1.8-3.66 1.87-3.89 1.94-3.92 1.98-3.75 1.98-3.51 1.97-3.43 1.94-3.71 1.9-4.19 1.93-4.48 2.02-4.3 2.19-4.04 2.51-3.45 2.85m71.4-40.53-2.13.94-3.31 1.27-4.5 1.27-4.84 1.25-4.76 1.27-4.82 1.35-5.1 1.43-5.28 1.51-5.01 1.61-4.17 1.7-3.02 1.79-1.94 1.88-1.32 1.93-1.32 1.98-1.89 1.99-2.87 1.97-4.09 1.92-5.41 1.88-6.72 1.89-7.57 1.95-6.46 2.06-2.62 2.93" filter="url(#a)"/><path d="m-26.69-75.91-2.83 1.96-2.18 1.63-1.81 1.42-1.67 1.37-1.61 1.4-1.58 1.46-1.54 1.52-1.48 1.6-1.42 1.67-1.36 1.74-1.33 1.79-1.29 1.85-1.26 1.9-1.25 1.95-1.22 2-1.21 2.05-1.19 2.09-1.16 2.11-1.12 2.13-1.08 2.15-1.02 2.18-.98 2.22-.93 2.27-.88 2.33-.85 2.37-.81 2.38-.77 2.37-.74 2.32-.71 2.31-.63 2.33-.54 2.39-.43 2.51-.37 2.64-.32 2.7m127.82-11 .95 3.62 1.61 2.45 2.77 2.1 3.2 2.18 2.46 2.34 1.37 2.44.8 2.51.96 2.59 1.47 2.66 1.87 2.72 2.01 2.73 1.98 2.7 2.07 2.64 2.4 2.55 2.89 2.44 3.37 2.33 3.72 2.22 3.89 2.16 3.78 2.16 3.13 2.25 1.88 2.42.84 2.62 1.43 2.67 3.26 1.99" filter="url(#a)"/><path d="m-28.56-74.87-2.8 1.6-1.88 1.37-1.74 1.26-1.69 1.3-1.59 1.38-1.48 1.48-1.45 1.57-1.47 1.67-1.54 1.76-1.64 1.84-1.74 1.91-1.79 1.96-1.76 1.98-1.66 2-1.47 2-1.26 2.01-1.11 2.02-1.04 2.05-1.08 2.1-1.19 2.14-1.32 2.2-1.44 2.26-1.49 2.34-1.46 2.41-1.37 2.5-1.25 2.54-1.1 2.56-1.03 2.54-1.02 2.51-1.04 2.49-1 2.5-.86 2.55-.87 2.57-1.29 2.46" filter="url(#a)"/><path d="m-33.52-71.07-.97.54-1.56 1.14-2.32 1.38-2.6 1.48-2.44 1.55-2.26 1.64-2.27 1.75-2.37 1.83-2.4 1.91-2.28 1.95-2.07 1.99-1.85 1.98-1.76 1.98-1.85 1.96-2.13 1.97-2.48 2-2.74 2.06-2.79 2.11-2.7 2.15-2.63 2.16-2.91 2.19-3.65 2.34-4.66 2.69-5.32 3.09-4.56 2.97" filter="url(#a)"/><path d="m-33.55-70.96-3.44 1.42-3.07 1.56-2.32 1.54-2.58 1.59-3.05 1.68-3.24 1.79-3.23 1.87-3.27 1.94-3.49 1.99-3.84 2-4.15 2.01-4.23 2.01-3.92 2.01-3.19 2.03-2.13 2.06-1 2.11-.09 2.17.34 2.22.17 2.29-.5 2.35-1.47 2.43-2.47 2.48-3.25 2.52-3.77 2.54-4.02 2.53-4.06 2.51-3.97 2.48-3.78 2.45-3.5 2.4-3.06 2.34-2.48 2.29-1.88 2.29-1.61 2.41-1.91 2.68-2.31 2.9-3.04 2.27" filter="url(#a)"/><path d="m-34.78-69.76-2.21 1.67-3.21 1.48-4.31 1.49-4.35 1.58-3.3 1.68-2.05 1.75-1.38 1.8-1.61 1.84-2.52 1.88-3.67 1.93-4.69 1.99-5.35 2.04-5.58 2.09-5.31 2.11-4.57 2.11-3.45 2.12-2.23 2.12-1.32 2.17-1.09 2.24-1.8 2.35-3.36 2.41-5.34 2.42-6.84 2.33-6.79 2.28-5.14 2.43-5.71 2.58" filter="url(#a)"/><path d="m-37.06-67.75-3.18 1.23-3.38 1.43-3.37 1.56-4.12 1.68-4.96 1.76-5.26 1.8-4.73 1.84-3.53 1.87-2.2 1.92-1.38 1.98-1.43 2.05-2.24 2.08-3.34 2.11-4.22 2.11-4.59 2.1-4.55 2.11-4.33 2.14-4.18 2.23-4.29 2.35-4.76 2.45-5.35 2.43-5.32 2.27-4.29 2.12-7.19 3m96.02-48.3-1.41 1.16-1.64 1.42-1.67 1.66-1.52 1.81-1.37 1.9-1.28 1.96-1.24 1.99-1.22 2.02-1.19 2.01-1.17 2-1.14 2-1.12 2.02-1.1 2.05-1.07 2.1-1.04 2.16-1 2.22-.96 2.28-.91 2.35-.85 2.42-.79 2.49-.73 2.52-.66 2.54-.6 2.53-.56 2.51-.51 2.48-.47 2.45-.42 2.4-.33 2.32-.24 2.24-.15 2.21-.08 2.35-.1 2.85-.07 4.02" filter="url(#a)"/><path d="m-37.99-66.69-1.32 1.59-1.04 1.59-.63 1.7-.4 1.79-.44 1.82-.5 1.84-.37 1.88-.03 1.93.46 1.99.91 2.05 1.22 2.09 1.38 2.11 1.42 2.12 1.44 2.11 1.48 2.13 1.51 2.17 1.46 2.25 1.32 2.33 1.08 2.4.76 2.4.36 2.33-.01 2.28.06 2.24 1.24 2.12 3.29 1.42M-39.9-64.86l-2.98 1.39-2.4 1.73-1.19 1.83-1.13 1.86-1.86 1.87-2.79 1.9-3.62 1.97-4.17 2.02-4.39 2.08-4.27 2.12-3.86 2.13-3.18 2.15-2.4 2.16-1.62 2.19-1.01 2.23-.7 2.29-.69 2.33-.98 2.36-1.44 2.37-1.92 2.36-2.28 2.36-2.49 2.37-2.53 2.4-2.46 2.43-2.28 2.48-1.98 2.51-1.54 2.52-1.08 2.53-.82 2.57-.9 2.66-1.25 2.85-1.64 3.08-2.47 3.33-4.64 2.91" filter="url(#a)"/><path d="m-39.9-64.86-7.11 1.36-2.22 1.7.04 1.8.19 1.82-.46 1.83-1.13 1.86-1.63 1.92-1.98 1.98-2.26 2.04-2.45 2.09-2.48 2.11-2.4 2.1-2.23 2.1-2.12 2.09-2.12 2.13-2.24 2.23-2.42 2.35-2.54 2.44-2.65 2.42-2.97 2.26-3.58 2.11-3.16 2.99" filter="url(#a)"/><path d="m-39.9-64.86-5.19 1.37-1.12 1.72-1.55 1.82-2.44 1.84-2.8 1.85-2.81 1.88-2.72 1.94-2.52 2.01-2.22 2.06-1.84 2.1-1.49 2.12-1.26 2.13-1.17 2.13-1.24 2.15-1.37 2.19-1.51 2.27-1.69 2.32-1.92 2.37-2.3 2.38-2.79 2.34-3.28 2.31-3.46 2.28-3.04 2.31-2.09 2.37-1.25 2.49-1.49 2.63-2.1 2.68" filter="url(#a)"/><path d="m-40.81-63.83-2.83 2.52-1.66 1.93-1.98 1.97-2.22 2.03-2.09 2.03-1.8 2.02-1.55 2-1.4 1.98-1.34 2-1.39 2.05-1.5 2.1-1.68 2.16-1.91 2.22-2.16 2.28-2.42 2.35-2.56 2.43-2.52 2.49-2.25 2.52-1.83 2.54-1.38 2.52-1.08 2.5-1.03 2.47-1.18 2.44-1.38 2.38-1.47 2.33-1.39 2.27-1.27 2.28-1.31 2.4-1.52 2.67-1.62 2.9-1.31 2.25" filter="url(#a)"/><path d="m-40.81-63.83-2.89 2.5-2.05 1.91-1.47 1.94-1.33 2-1.41 2.02-1.53 2-1.51 1.97-1.36 1.95-1.13 1.96-.95 2-.91 2.06-.97 2.13-1.11 2.17-1.21 2.21-1.27 2.29-1.29 2.39-1.3 2.51-1.29 2.57-1.34 2.56-1.44 2.5-1.65 2.47-1.68 2.3-.93.93" filter="url(#a)"/><path d="m-40.81-63.83-2.21 2.5-2.12 1.91-2.39 1.94-2.47 2-2.35 2.02-2.19 2-2.2 1.97-2.44 1.95-2.73 1.96-2.86 2-2.73 2.06-2.37 2.13-2.05 2.17-1.95 2.21-2.17 2.29-2.63 2.39-3.1 2.51-3.26 2.57-2.91 2.56-2.21 2.5-1.82 2.47-2.44 2.3-3.17.93" filter="url(#a)"/><path d="m-42.58-61.6-1.85 1.77-2.03 1.85-2.54 1.82-2.93 1.84-3.18 1.92-3.33 2-3.32 2.07-3.12 2.1-2.75 2.12-2.41 2.11-2.29 2.1-2.48 2.12-2.97 2.17-3.67 2.25-4.54 2.33-5.54 2.38-6.5 2.38-7.04 2.33-6.62 2.27-5.08 2.23-3.26 2.23-2.89 2.25-4.48 2.88m81.71-45.37-2.44 1.53-2.15 1.76-1.6 1.94-2.06 2.05-2.94 2.11-3.57 2.14-3.62 2.15-3.16 2.14-2.48 2.15-1.9 2.17-1.5 2.22-1.37 2.28-1.39 2.34-1.48 2.36-1.54 2.37-1.49 2.36-1.37 2.35-1.27 2.35-1.29 2.39-1.48 2.42-1.82 2.47-2.24 2.51-2.67 2.51-3.05 2.52-3.21 2.56-3.01 2.65-2.34 2.84-1.6 3.08-2.04 3.31-4.61 2.9" filter="url(#a)"/><path d="m-46.12-56.72-4.12 1.65-2.49 1.93-3.23 2.01-4.46 1.96-5.04 1.92-4.62 1.94-3.75 2.01-3.11 2.09-2.98 2.14-3.2 2.2-3.5 2.24-3.74 2.33-3.9 2.41-3.94 2.49-3.71 2.54-3.06 2.54-2.07 2.5-1.11 2.48-.86 2.46-1.77 2.45-3.75 2.45-5.9 2.36-6.61 2.07-2.73 1.37" filter="url(#a)"/><path d="m-46.12-56.72-5.46 1.65-4.39 1.92-2.33 2.01-2.38 1.95-2.76 1.92-2.63 1.94-2.34 2-2.42 2.08-2.87 2.14-3.2 2.19-2.98 2.24-2.18 2.31-1.25 2.41-.73 2.49-1.09 2.54-2.35 2.54-4.19 2.5-5.94 2.47-6.73 2.45-5.87 2.46-3.53 2.51-1.37 2.54-1.61 2.42" filter="url(#a)"/><path d="m-46.6-56.08-9.08 1.9-6.24 1.97-1.3 2.08.09 2.15-.33 2.16-.71 2.15-.62 2.15-.38 2.15-.41 2.17-.8 2.23-1.43 2.29-2.1 2.35-2.72 2.37-3.26 2.37-3.72 2.37-4.12 2.36-4.44 2.37-4.6 2.4-4.52 2.43-4.13 2.47-3.48 2.51-2.72 2.54-2.04 2.56-1.65 2.62-1.51 2.71-1.61 2.82-1.84 2.91-2.18 2.91-2.63 2.74-3.13 2.43-3.5 2.17-2.42 2.61" filter="url(#a)"/><path d="m-47.4-55.24-2.94 2.11-1.13 2.11-1.16 2-1.38 1.92-1.36 1.94-1.19 2.03-1.04 2.12-.95 2.17-.89 2.23-.82 2.28-.73 2.36-.66 2.44-.63 2.5-.65 2.53-.73 2.54-.8 2.51-.82 2.49-.79 2.46-.7 2.42-.62 2.37-.6 2.33-.65 2.31-.74 2.33-.81 2.41-.73 2.52-.48 2.58-.15 2.52-.1 2.51-.47 3.3" filter="url(#a)"/><path d="m-47.4-55.24-16.91 2.1-8.71 2.11-.84 1.99 2.81 1.92 2.43 1.94.09 2.02-2.07 2.1-2.89 2.17-2.38 2.22-1.28 2.27-.48 2.35-.51 2.43-1.42 2.5-2.91 2.53-4.56 2.54-5.94 2.51-6.72 2.48-6.75 2.46-6.09 2.42-4.97 2.37-3.75 2.31-2.57 2.26-1.46 2.26-.61 2.39-.87 2.67-2.99 2.88-4.75 2.24" filter="url(#a)"/><path d="m-48.6-53.06-10.96 2.15-4.39 2.04.1 1.89.32 1.93-.89 2.04-1.74 2.14-1.76 2.2-1.3 2.25-.87 2.31-.78 2.39-1.09 2.46-1.56 2.51-2.02 2.54-2.3 2.54-2.38 2.52-2.37 2.49-2.32 2.46-2.36 2.43-2.55 2.39-2.87 2.39-3.21 2.38-3.42 2.41-3.3 2.46-2.82 2.53-2.1 2.6-1.49 2.66-1.34 2.72-1.8 2.75-2.69 2.73-3.53 2.64-3.85 2.48-3.33 2.33-2.05 2.3-.47 2.54-.67 3.18m79.12-82.81-1.48 2.39-.95 1.78-.88 1.84-.91 2.03-.94 2.14-.92 2.2-.89 2.24-.85 2.28-.8 2.37-.75 2.45-.69 2.51-.63 2.54-.57 2.54-.51 2.51-.45 2.48-.4 2.45-.35 2.42-.29 2.37-.25 2.34-.2 2.33-.15 2.36-.11 2.42-.07 2.5-.01 2.57.05 2.62.13 2.68.23 2.84.34 3.03.44 3.07M60.87-20.81l1.44 2.25 1.33 2.87 1 2.9.52 2.69.18 2.52.1 2.41.19 2.36.28 2.35.33 2.38.36 2.44.4 2.53.44 2.6.44 2.65.36 2.65.21 2.61.02 2.52-.15 2.43-.28 2.33-.35 2.27-.36 2.26-.35 2.28-.34 2.32-.32 2.37-.34 2.37-.43 2.33-.61 2.24-.82 2.14-.98 2.06-1.04 2.01-.99 1.99-.94 1.97-1 2-1.13 2.08-1.06 2.01-.41.95" filter="url(#a)"/><path d="m-51.76-47.88-3.98 1.13-1.61 1.66-2 2.03-2.31 2.18-2.3 2.22-2.03 2.24-1.58 2.28-1.28 2.36-1.48 2.45-2.21 2.52-3.16 2.54-3.88 2.54-4.02 2.51-3.58 2.48-2.87 2.45-2.27 2.41-2 2.37-2.01 2.33-2.1 2.33-2.09 2.35-1.96 2.42-1.83 2.5-1.81 2.57-2.04 2.61-2.73 2.68-3.85 2.84-4.34 3.02-1.5 3.07" filter="url(#a)"/><path d="m-52.93-45.09-1.15 1.85-2.95 2.15-4.8 2.1-5.03 2.11-3.68 2.21-1.83 2.34-.43 2.4.21 2.42.28 2.4.08 2.38-.13 2.37-.24 2.39-.3 2.42-.36 2.46-.46 2.5-.57 2.53-.7 2.58-.81 2.62-.91 2.67-1.05 2.72-1.25 2.74-1.48 2.75-1.72 2.7-1.86 2.63-1.9 2.53-1.78 2.45-1.55 2.39-1.28 2.36-1 2.35-.71 2.37-.37 2.36.01 2.37.43 2.38.84 2.42 1.23 2.5 1.35 2.47.3 2.07" filter="url(#a)"/><path d="m-52.17-46.88-2.14 3.77-2.07 2.4-2.1 2.27-1.71 2.25-1.4 2.29-1.42 2.38-1.75 2.49-2.11 2.55-2.29 2.58-2.16 2.55-1.77 2.53-1.22 2.49-.74 2.45-.5 2.42-.58 2.4-.94 2.39-1.45 2.39-1.89 2.43-2.12 2.49-2.03 2.54-1.69 2.6-1.2 2.66-.75 2.69-.47 2.69-.4 2.66-.49 2.59-.63 2.52-.71 2.43-.68 2.4-.62 2.38-.62 2.39-.77 2.39-1.09 2.35-1.46 2.21-1.72 1.89-1.42 1.41" filter="url(#a)"/><path d="m-54.79-40.88-1.41.47-2.23 2.04-1.82 2.23-1.49 2.25-1.43 2.36-1.63 2.49-2.01 2.57-2.39 2.59-2.56 2.56-2.43 2.52-2.09 2.48-1.65 2.45-1.22 2.41-.85 2.39-.54 2.37-.28 2.38-.12 2.41-.1 2.47-.23 2.54-.47 2.6-.74 2.66-.94 2.69-1.05 2.71-1.09 2.67-1.19 2.6-1.44 2.5-1.71 2.41-1.8 2.36-1.47 2.37-.82 2.41-.35 2.43-.04 2.52 1.54 2.73" filter="url(#a)"/><path d="m-55.01-40.71-1.62 2.03-1.5 1.87-1.27 2.14-1.49 2.37-1.73 2.47-1.75 2.45-1.64 2.41-1.54 2.37-1.5 2.35-1.49 2.38-1.47 2.42-1.45 2.46-1.47 2.5-1.57 2.54-1.75 2.58-1.91 2.62-1.91 2.67-1.68 2.72-1.21 2.74-.61 2.74-.09 2.7.19 2.62.16 2.53-.18 2.45-.68 2.39-1.19 2.35-1.61 2.36-1.87 2.36-1.91 2.37-1.78 2.37-1.45 2.38-.95 2.42-.25 2.46.63 2.45 1.56 2.37 2.3 2.46m38.23-89.51-6.24 3.69-4.06 2.57-1.2 2.23-1.3 2.32-2.11 2.49-2.51 2.6-2.69 2.6-3.04 2.56-3.45 2.51-3.54 2.47-3.08 2.44-2.1 2.41-.96 2.37-.02 2.36.42 2.36.31 2.39-.27 2.46L-91.39 3l-1.91 2.6-2.49 2.66-2.69 2.7-2.4 2.73-1.67 2.7-.8 2.61-.3 2.48-.64 2.35-1.69 2.31-2.59 2.39-2.25 2.4-2.77 1.81" filter="url(#a)"/><path d="m-56.75-36.42-1.46 3.96-1.31 2.81-2.04 2.53-2.75 2.36-2.83 2.29-2.38 2.28-1.95 2.32-1.92 2.38-2.2 2.45-2.47 2.49-2.53 2.51-2.38 2.55-2.22 2.57-2.23 2.64-2.44 2.71-2.76 2.78L-95.63 8l-3.01 2.74-2.64 2.63-1.96 2.49-1.15 2.37-.59 2.3-.65 2.28-1.3 2.3-2.13 2.39-2.68 2.57-3.64 2.88" filter="url(#a)"/><path d="m-56.75-36.42-2.34 3.97-1.56 2.82-.71 2.53-.61 2.37-.88 2.3-1.22 2.29-1.46 2.34-1.58 2.39-1.6 2.46-1.56 2.5-1.46 2.53-1.32 2.56-1.13 2.6-.96 2.65-.86 2.72-.87 2.76-.96 2.76-1.08 2.72-1.14 2.62-1.2 2.5-1.28 2.41-1.45 2.35-1.65 2.32-1.75 2.33-1.65 2.36-1.42 2.37-1.1 2.32-.7 2.25-.44 2.38-1.54 3.41" filter="url(#a)"/><path d="m-57.52-34.11-.91 2.12-1.1 2.82-1.06 2.86-1.04 2.68-1.12 2.52-1.29 2.45-1.39 2.42-1.39 2.41-1.28 2.38-1.24 2.34-1.3 2.29-1.44 2.29-1.59 2.32L-75.33.2l-1.68 2.49-1.77 2.56-1.97 2.62-2.25 2.68-2.28 2.82-1.65 2.98-.3 3.09-.38 3.17" filter="url(#a)"/><path d="m-58.41-30.67-2.07 1.37-2.57 2.35-4.96 2.33-5.88 2.24-5.27 2.25-4.36 2.31-3.81 2.38-3.36 2.45-2.62 2.49-1.51 2.52-.29 2.54.65 2.57 1.09 2.63.98 2.71.36 2.78-.7 2.79-2.17 2.74-3.79 2.63-5.16 2.48-5.84 2.36-5.71 2.29-5.05 2.28-4.21 2.3-3.15 2.39-1.61 2.56.3 2.88" filter="url(#a)"/><path d="m-58.61-30.7-.94 3.71-.74 2.53-.93 2.21-1.18 2.24-1.18 2.32-.91 2.39-.52 2.47-.19 2.51-.03 2.53-.05 2.56-.19 2.6-.31 2.66-.37 2.71-.3 2.77-.14 2.76.04 2.71.18 2.61.24 2.5.21 2.4.18 2.34.16 2.33.2 2.33.23 2.35.25 2.35.25 2.34.28 2.33.37 2.41.48 2.64.48 2.54" filter="url(#a)"/><path d="M-59.84-25.88-62.37-24l-.24 1.87.03 2.17-.05 2.32-.2 2.4-.35 2.48-.42 2.52-.46 2.54-.47 2.56-.44 2.6-.37 2.65-.24 2.73-.09 2.76.02 2.76.06 2.71.03 2.6-.03 2.5-.04 2.4v2.35l.11 2.32.22 2.33.3 2.35.35 2.35.42 2.35.52 2.36.67 2.4.8 2.49.72 2.45.41 2.05" filter="url(#a)"/><path d="m-59.84-25.88-5.65 1.89-6.95 1.88-5.32 2.17-2.69 2.32-.08 2.42 1.64 2.48 2.19 2.52 1.84 2.55 1.1 2.57.31 2.6-.33 2.67-.79 2.73-1.14 2.76-1.41 2.75-1.62 2.7-1.75 2.6-1.81 2.51-1.82 2.41-1.78 2.36-1.75 2.34-1.78 2.34-1.95 2.35-2.25 2.36-2.58 2.37-2.76 2.37-2.53 2.4-1.9 2.41-1.07 2.38-.5 2.24-.73 1.95-1.97 1.28m47.83-73.68L-60.4-24l-.49 1.87-.55 2.16-.55 2.31-.55 2.41-.55 2.47-.52 2.52-.43 2.53-.29 2.56-.18 2.59-.1 2.65-.07 2.72-.04 2.77v2.76l.05 2.71.12 2.61.16 2.49.17 2.39.15 2.34.14 2.32.14 2.33.14 2.34.2 2.36.27 2.33.43 2.33.63 2.4.92 2.65.98 2.53m120.19-67.4 1.58 2.6 1.33 2.6 1 2.58 1.36 2.5 1.87 2.36 2.09 2.28 1.95 2.27 1.81 2.32 2.06 2.4 2.82 2.47 3.89 2.55 4.81 2.64 5.09 2.7 4.61 2.75 3.67 2.72 2.87 2.67 2.73 2.59 3.22 2.51 3.8 2.37 3.96 2.18 3.94 2.01 2.19 1.95" filter="url(#a)"/><path d="m59.97-24.95 2.19 2.61 2.21 2.6 2.19 2.59 2.46 2.5 2.2 2.36 1.51 2.28.99 2.28.94 2.34 1.27 2.4L77.6-.51l1.94 2.56 2.09 2.64L84 7.4l3 2.74 3.92 2.72 4.8 2.66 5.03 2.59 4.18 2.48 2.5 2.36.94 2.2.99 2.05 3.57 1.97 7.62 1.97M59.97-24.95l.74 2.63 1.09 2.63 1.28 2.6 1.13 2.52.69 2.38.3 2.32.14 2.31.21 2.37.36 2.44.45 2.52.43 2.59.34 2.67.22 2.71.1 2.72.02 2.69-.08 2.64-.18 2.56-.26 2.46-.3 2.36-.28 2.27-.24 2.22-.19 2.23-.24 2.29-.35 2.38-.48 2.45-.55 2.41-.55 2.21-.63 2.07-.89 2.56" filter="url(#a)"/><path d="m59.97-24.82 1.19 2.37 1.74 1.97 2.13 2.22 2.12 2.53 1.84 2.64 1.58 2.6 1.51 2.51 1.6 2.41 1.74 2.36 1.72 2.32 1.51 2.33 1.16 2.38.81 2.46.59 2.57.53 2.66.58 2.71.69 2.69.79 2.6.95 2.46 1.27 2.26 1.76 2.08 2.09 1.95 1.77 1.93.98 2.05 1.9 2.42" filter="url(#a)"/><path d="m60.05-25.39.51 1.19 1.73 2.09 2.96 2.42 3.04 2.51 2.16 2.48 1.26 2.38.83 2.33.72 2.33.64 2.37.51 2.43.37 2.51.4 2.58.62 2.66.96 2.7 1.33 2.73 1.56 2.7 1.6 2.65 1.38 2.57 1.01 2.46.65 2.36.48 2.25.53 2.19.72 2.18.82 2.26.68 2.43.2 2.63-.12 2.69 1.1 2M60.05-25.39l-.46 1.17-.22 2.05-.69 2.4-.87 2.5-.61 2.46-.16 2.36.11 2.3-.03 2.28-.54 2.33-1.27 2.39-1.9 2.46-2.23 2.55-2.2 2.63-1.92 2.7-1.61 2.75-1.44 2.74-1.45 2.68-1.62 2.61-1.88 2.54-2.1 2.4-2.2 2.14-2.09 2.04m25.02-60.87 2.1 1.8 3.24 2.24 2.05 2.44.97 2.44.78 2.43 1.18 2.45 1.79 2.46 2.5 2.43 3.16 2.38 3.62 2.34 3.69 2.32 3.38 2.36 2.79 2.4 2.11 2.47 1.49 2.55 1 2.64.74 2.71.75 2.75 1.03 2.75 1.45 2.7 1.74 2.63 1.84 2.55 2.15 2.42 2.89 2.16 2.8 2.05" filter="url(#a)"/><path d="m56.41-36.79 1.33.9.77 2.09 1.01 2.56 1.28 2.68 1.57 2.63 2.03 2.52 2.53 2.45 2.79 2.46 2.54 2.5 1.83 2.53.97 2.54.29 2.5v2.45l.07 2.39.3 2.36.54 2.35.68 2.39.8 2.46.97 2.56 1.32 2.67 1.78 2.73 2.21 2.74 2.31 2.67 1.91 2.52 1.04 2.3.03 2.05-.75 1.87-1.55 1.84" filter="url(#a)"/><path d="m56.41-36.79.49.92 1 2.12 1.12 2.58 1.02 2.7.95 2.64 1.08 2.54 1.45 2.48 2.01 2.48 2.51 2.52 2.76 2.55 2.61 2.53 2.11 2.51 1.49 2.46.92 2.43.62 2.41.59 2.41.8 2.45 1.1 2.52 1.42 2.58 1.63 2.63 1.74 2.64 1.75 2.62 1.68 2.55 1.55 2.45 1.34 2.34 1.09 2.25.83 2.21.6 2.25.39 2.34.13 2.45-.14 2.52-.27 2.46-.06 2.25.3 1.91.09 1.68-.89 2.17" filter="url(#a)"/><path d="m56.41-36.79.47.91 1.13 2.1 1.75 2.57 2.38 2.69 2.77 2.64 2.71 2.52 2.3 2.47 1.75 2.47 1.24 2.5.87 2.54.62 2.54.54 2.5.61 2.45.84 2.41 1.19 2.38 1.55 2.38 1.85 2.42 2.03 2.49 2.06 2.57L87 11.41l1.69 2.69 1.34 2.68 1.01 2.6.81 2.47.86 2.3 1.19 2.14 1.47 2.03 1.26 2.03.37 2.18-.63 2.53-.91 3.05" filter="url(#a)"/><path d="m55.57-39.12 6.83 1.97.17 2.42.51 2.43 2.46 2.43 3.53 2.44 3.4 2.45 2.77 2.45 2.32 2.46 2.12 2.46 1.95 2.43 1.59 2.4.98 2.37.25 2.36-.35 2.38-.65 2.43-.52 2.49-.01 2.57.8 2.64 1.67 2.71 2.38 2.74 2.79 2.73 2.89 2.69 2.85 2.62 2.87 2.51 2.89 2.39 2.61 2.23 1.92 2.08 1.73 1.99 2.06 1.99" filter="url(#a)"/><path d="m55.7-39.4 4.47 1.86 2.82 1.76.52 2.16.25 2.49.92 2.61 1.56 2.61 1.86 2.54 1.9 2.5 1.88 2.5 1.84 2.52 1.67 2.54 1.32 2.53.81 2.51.29 2.46-.1 2.43-.2 2.42-.02 2.42.38 2.46.82 2.51 1.15 2.58 1.25 2.63 1.08 2.64.67 2.62.17 2.55-.28 2.45-.59 2.34-.72 2.26-.69 2.22-.6 2.25-.48 2.34-.39 2.45-.33 2.52-.33 2.46-.38 2.25-.17 1.91.58 1.69.9 2.17M55.7-39.4l-.83 1.86.31 1.76.5 2.16.3 2.49.04 2.61-.25 2.61-.54 2.54-.75 2.5-.79 2.5-.72 2.52-.69 2.54-.79 2.53-1.08 2.51-1.48 2.46-1.9 2.43-2.26 2.42-2.52 2.42-2.64 2.46-2.64 2.51-2.54 2.58-2.4 2.63-2.3 2.64-2.29 2.62-2.4 2.55-2.55 2.45-2.64 2.34-2.51 2.26-2.11 2.22-1.57 2.25-1.05 2.34-.8 2.45-.77 2.52-.84 2.46-.84 2.25L8.3 44.9l-1.57 1.69-1.12 2.17" filter="url(#a)"/><path d="m54.21-42.61 2.27 2.81 2.17 2.49 2.41 2.45 2.53 2.43L65.6-30l1.16 2.43.48 2.43.23 2.44.32 2.45.57 2.45.81 2.43.97 2.39 1.01 2.35.93 2.34.71 2.36.43 2.39.21 2.47.16 2.53.33 2.63.66 2.73.99 2.78 1.17 2.78 1.16 2.7 1.02 2.66.87 2.78 1.33 3.2" filter="url(#a)"/><path d="m53.85-43.44 1.36 3.24.81 2.28.6 2.09.5 2.25.46 2.45.42 2.57.4 2.57.39 2.53.38 2.51.35 2.51.31 2.52.25 2.54.19 2.53.1 2.5.04 2.47-.01 2.43-.05 2.42-.09 2.42-.14 2.46-.19 2.51-.25 2.58-.34 2.63-.41 2.65-.48 2.62-.54 2.56-.6 2.46-.65 2.34-.68 2.24-.72 2.2-.76 2.23-.81 2.33-.9 2.48-1 2.59-1.1 2.55-1.11 2.27-.92 1.73-.5.92m5.23-90.58 7.7 2.06 9.85 2.41 7.1 2.21 4.68 2.13 2.69 2.23.99 2.4-.26 2.51-.94 2.54-1.08 2.49-.84 2.46-.32 2.45.41 2.48 1.26 2.53 2.17 2.54 3.06 2.51 3.81 2.45 4.34 2.38 4.56 2.32 4.36 2.26 3.69 2.22 2.86 2.27 2.48 2.51 2.47 2.88-.79 2.81" filter="url(#a)"/><path d="m51.96-47.13 1.4 2.41 1.65 2.35 1.83 2.4 1.52 2.42 1.04 2.43.72 2.41.71 2.42.94 2.42 1.25 2.42 1.44 2.43 1.44 2.44 1.23 2.45.97 2.43.77 2.38.73 2.32.79 2.3.84 2.31.74 2.36.53 2.39.34 2.41.31 2.5.27 2.86.08 4.1" filter="url(#a)"/><path d="m52.71-45.89.38 1.35-1.02 1.99-3.03 2.2-3.66 2.2-2.63 2.21-.95 2.3.45 2.43 1.18 2.51 1.29 2.53.97 2.52.42 2.51-.22 2.51-.82 2.52-1.3 2.54-1.56 2.52-1.54 2.5-1.22 2.47-.67 2.43.01 2.4.62 2.41.97 2.43.95 2.5.52 2.58-.2 2.64L40.59 14l-1.88 2.68-2.57 2.61-3.01 2.48-3.14 2.32-2.85 2.15-2.16 2.05-1.39 2.04-1.13 2.19-1.94 2.53-2.97 3.06" filter="url(#a)"/><path d="m50.25-50.25 2.09 1.96 2.85 1.81 2.04 2.01 1.33 2.22 1.45 2.34 1.93 2.41 2.26 2.44 2.23 2.46 1.99 2.45 1.74 2.46 1.51 2.47 1.3 2.46 1.09 2.47.86 2.46.69 2.44.55 2.42.51 2.4.53 2.4.61 2.42.75 2.46.91 2.52 1.05 2.58 1.11 2.64 1.08 2.7.99 2.73.9 2.72.81 2.69.69 2.61.47 2.51.06 2.4-.4 2.27-.71 2.16-.54 2.12.07 2.15.75 2.3 1.69 2.53M48.53-53.64l-.26-1.52.88-1.57.31-1.64-.37-1.72-.56-1.75-.51-1.75-.5-1.71-.55-1.63-.65-1.55-.81-1.46-1.03-1.36-1.33-1.29-1.71-1.21-2.05-1.14-2.3-1.07-2.34-1-2.19-.94-1.91-.86-1.66-.81-1.58-.73-1.78-.66-2.25-.61-2.85-.53-3.31-.46-3.42-.37-3.15-.28-2.91-.17-3.67-.2" filter="url(#a)"/><path d="m47.54-54.88-.9-1.62-1.02-1.72-.67-1.65-.51-1.61-.74-1.61-1.12-1.61-1.44-1.58-1.6-1.52-1.65-1.45-1.67-1.4L34.48-72l-1.82-1.29-1.88-1.22-1.89-1.14-1.84-1.04-1.78-.96-1.73-.89-1.69-.82-1.68-.76-1.68-.71-1.69-.62-1.68-.54-1.54-.44-1.07-.28" filter="url(#a)"/><path d="m47.31-55.2 1.1-1.55.15-1.64-1.21-1.73-1.66-1.77-1.72-1.76-1.62-1.71L41.02-67l-.94-1.55-.59-1.44-.47-1.36-.65-1.28-.99-1.21-1.34-1.13-1.58-1.07-1.67-.99-1.7-.93-1.71-.87-1.77-.8-1.87-.73-2.01-.66-2.18-.6-2.41-.53-2.67-.46-2.86-.37-2.94-.28-2.97-.17-3.83-.2" filter="url(#a)"/><path d="m47.31-55.2-.61-1.55-.06-1.63-.2-1.73-.69-1.77-1.14-1.76-1.42-1.71-1.48-1.64-1.33-1.54-1.13-1.45-.98-1.36-.98-1.28-1.12-1.21-1.29-1.13-1.41-1.07-1.42-.99-1.38-.94-1.4-.87-1.51-.8-1.74-.73-2.03-.66-2.36-.61-2.72-.54-3.06-.47-3.21-.38-2.91-.26H8.07" filter="url(#a)"/><path d="m46.44-56.44-1.02-1.87-.85-1.69-.8-1.6-1.04-1.61-1.23-1.63-1.23-1.59-1.1-1.52-1-1.46-1.04-1.39-1.22-1.34-1.48-1.28-1.72-1.2-1.85-1.12-1.83-1.03-1.75-.95-1.67-.88-1.67-.8-1.74-.73-1.86-.66-1.96-.58-2.02-.51-2.05-.42-2.15-.36-2.31-.3-2.56-.26-2.75-.2-2.83-.16-2.9-.07-3.33.02-4.68.11" filter="url(#a)"/><path d="m46.3-56.91 3.44-1.49 2.45-1.77-.92-1.8-2.08-1.78-1.68-1.73-.98-1.64-.61-1.54-.7-1.44-1.08-1.35-1.56-1.27-1.93-1.2-2.12-1.13-2.12-1.05-2-.99-1.87-.92-1.82-.86-1.88-.79-2.03-.71-2.27-.65-2.54-.59-2.81-.51-3.04-.43-3.19-.36-3.28-.29-3.29-.22-3.28-.16-3.33-.1-3.6-.01-4.39.13-6.3.33" filter="url(#a)"/><path d="m43.42-60.77-2.14-2.3-1.74-1.92-1.45-1.67-1.27-1.51-1.29-1.41-1.45-1.37-1.66-1.33-1.82-1.27-1.89-1.19-1.89-1.11L25-76.87l-1.75-.93-1.7-.86-1.68-.8-1.68-.72-1.68-.66-1.68-.58-1.7-.49-1.74-.42-1.84-.35-1.98-.3-2.09-.26-2.12-.21-1.99-.16-1.81-.1-1.86.07" filter="url(#a)"/><path d="m42.14-62.05-1.41-1.85-1.42-1.83-1.45-1.67-1.54-1.52-1.63-1.41-1.65-1.32-1.64-1.24-1.6-1.19-1.54-1.11-1.53-1.04-1.57-.97-1.63-.91-1.75-.84-1.87-.77-1.99-.71-2.07-.64-2.11-.57-2.1-.49-2.08-.43-2.02-.34-1.98-.28-1.95-.21-1.94-.14-1.98-.07-2.09.03-2.28.13-2.46.24-2.4.33-1.97.35" filter="url(#a)"/><path d="m40.92-63.43-.03-1.8-.48-1.6-1.7-1.47-2.17-1.4-2.18-1.36-2.04-1.32-1.9-1.27-1.79-1.19-1.72-1.1-1.66-1.01-1.62-.93-1.6-.85-1.63-.78-1.67-.71-1.71-.63-1.77-.56-1.82-.49-1.89-.41-1.97-.34-2.05-.29-2.16-.23-2.24-.17-2.31-.1-2.38-.03-2.44.05-2.5.15-2.54.25-2.59.34-2.67.42-2.7.49-2.54.57" filter="url(#a)"/><path d="m40.79-63.82-1.82-2.03-1.43-1.68-1.46-1.5-1.55-1.38-1.55-1.3-1.49-1.24-1.42-1.18-1.37-1.1-1.37-1.04-1.4-.97-1.44-.9-1.52-.84-1.63-.77-1.82-.7-2.02-.64-2.22-.56-2.33-.49-2.36-.43-2.3-.34-2.21-.28-2.14-.2-2.12-.14-2.2-.07-2.37.03-2.64.13-2.9.24-2.88.33-2.16.35" filter="url(#a)"/><path d="m37.24-67.25-.92-1.24-1.46-1.35-1.42-1.35-1.37-1.33-1.43-1.29L29.1-75l-1.66-1.09-1.72-1-1.75-.9-1.76-.84-1.76-.76-1.76-.7-1.78-.61-1.82-.55-1.86-.46-1.93-.4-2.01-.33-2.09-.27-2.15-.2-2.2-.14-2.23-.07-2.25.02-2.26.09-2.28.17-2.3.26-2.31.34-2.34.41-2.35.49-2.4.57-2.44.65-2.48.74-2.46.8-2.36.84-2.18.85-2.08.85-2.24.96-2.85 1.48" filter="url(#a)"/><path d="m37.24-67.25-1.15-1.24-1.45-1.34-1.61-1.34-1.72-1.33-1.78-1.28-1.76-1.19-1.72-1.1-1.67-.99-1.66-.91-1.65-.84-1.66-.76-1.68-.7-1.68-.63-1.7-.55-1.74-.47-1.8-.41-1.88-.33-1.97-.28-2.04-.22-2.08-.16-2.11-.09-2.13-.02-2.15.07-2.16.16-2.18.25-2.15.33-2.1.39-2 .43-1.92.46-2.03.56-2.94 1.03" filter="url(#a)"/><path d="m37.24-67.25-.31-1.22-.82-1.32-1.53-1.33-1.8-1.32-1.82-1.28-1.76-1.2-1.7-1.09-1.67-.99-1.62-.91-1.61-.84-1.56-.78-1.55-.72-1.54-.64-1.59-.57-1.7-.49-1.86-.4-2.06-.35-2.26-.29-2.4-.25-2.39-.21-2.22-.17-2.03-.09-2.13.07" filter="url(#a)"/><path d="m37.5-67.37-1.84-1.89-.8-1.33-.55-1.26-.71-1.23-.91-1.17-1.07-1.1-1.2-1.03-1.39-.95-1.65-.9-1.95-.82-2.22-.76-2.41-.7-2.5-.62-2.51-.55-2.47-.49-2.39-.41-2.33-.33-2.3-.27-2.31-.19-2.4-.12-2.56-.05-2.79.05-3.07.14-3.33.23-3.55.32-3.74.39-3.99.46-3.76.59" filter="url(#a)"/><path d="m34.36-69.94-1.4-1.36-1.62-1.31-1.8-1.31-1.78-1.21-1.67-1.08-1.55-.97-1.44-.89-1.39-.82-1.41-.76-1.48-.69-1.57-.62-1.69-.54-1.82-.46-1.93-.39-2.06-.33-2.17-.27-2.25-.2-2.32-.15-2.37-.07h-2.4l-2.42.09-2.47.17-2.48.25-2.49.33-2.49.41-2.5.47-2.52.54-2.63.64-2.8.75-2.92.85-2.8.89-2.76 1.03" filter="url(#a)"/><path d="m31.95-71.81-1.53-1.5-.76-1.19-.38-1.07-.76-.98-1.48-.94-2.07-.87-2.34-.82-2.31-.75-2.13-.67-1.93-.61-1.8-.54-1.77-.47-1.87-.4-2.03-.32-2.21-.25-2.4-.18-2.58-.1-2.78-.03-3.03.06-3.3.16-3.59.24-3.79.33-3.87.4-3.8.46-3.56.51-3.06.5-1.98.35" filter="url(#a)"/><path d="m26.69-75.85-.41-.92-.99-.88-1.45-.89-1.58-.81-1.42-.74-1.33-.65-1.5-.59-1.86-.52-2.22-.45-2.48-.37-2.58-.3-2.6-.22-2.59-.15-2.63-.07-2.74.02-2.9.1-3.11.18-3.29.27-3.43.34-3.52.42-3.56.48-3.59.53-3.66.6-3.78.67-3.98.73-4.17.81-4.28.88-4.27.93-4.29 1.01-4.74 1.14-6.04 1.39-7.91 1.84" filter="url(#a)"/><path d="m26.69-75.85-1.66-.91-1.63-.87-1.7-.88-1.67-.82-1.58-.73-1.49-.66-1.49-.59-1.58-.53-1.76-.45-1.96-.39-2.13-.31-2.25-.24-2.31-.17-2.39-.09-2.5-.03-2.71.07-3 .16-3.32.25-3.65.33-3.9.4-4.01.47-3.89.5-3.5.5-2.34.35" filter="url(#a)"/><path d="m23.61-77.46-.27-.84-.51-.83-1.01-.78-1.07-.7-1.2-.59-1.51-.51-1.91-.42-2.27-.36-2.55-.29-2.73-.25-2.8-.18-2.81-.12-2.79-.05-2.79.03-2.83.11-2.91.2-3.02.28-3.15.36-3.26.43-3.39.51-3.59.58-3.85.66-4.14.74-4.34.8-4.35.85-4.2.9-4.09.97-4.35 1.12-5.14 1.33-6.24 1.48-6.97 1.16" filter="url(#a)"/><path d="m23.54-77.42-.25-1.16-1.14-.9-1.51-.71-1.74-.63-1.82-.57-1.9-.52-2.04-.45-2.21-.37-2.34-.29-2.41-.23-2.43-.16-2.47-.08h-2.56l-2.76.08-3.03.17-3.35.26-3.66.34-3.88.4-3.92.47-3.76.51-3.5.54-3.44.59-3.79.66-3.49.69" filter="url(#a)"/><path d="m21.81-78.37-1.55-.78-1.6-.81-1.6-.69-1.67-.59-1.68-.5-1.69-.42-1.75-.35-1.84-.29-1.95-.25-2.05-.19-2.11-.14-2.18-.07-2.22.01-2.27.1-2.3.18-2.31.27-2.28.34-2.24.41-2.22.46-2.28.53-2.5.63-2.86.77-3.04.84-2.71.67" filter="url(#a)"/><path d="m21.6-78.73-1.27-.92-1.11-.64-1.86-.59-2.2-.57-2.22-.51-2.09-.44-1.98-.36-1.93-.28-1.98-.22-2.11-.13-2.29-.06-2.54.02-2.81.1-3.07.2-3.29.28-3.41.35-3.43.42-3.38.48-3.31.54-3.29.6-3.38.67-3.54.74-3.69.8-3.74.88-3.7.93-3.73 1.01-4.06 1.14-4.56 1.39-4.98 1.83" filter="url(#a)"/><path d="m20.48-78.98-.43-1.05-.89-.7-1.81-.57-1.94-.49-1.84-.41-1.89-.34-2.07-.28-2.26-.25-2.38-.19-2.47-.14-2.56-.07-2.72.01-2.92.09-3.11.19-3.24.26-3.31.34-3.35.4-3.46.45-3.66.5-4.02.62-4.77.84-6.4 1.05" filter="url(#a)"/><path d="m17.29-80.53-.41-.33-1.47-.52-1.52-.47-1.58-.39-1.78-.33-1.97-.28-2.11-.24-2.15-.18-2.15-.12-2.17-.05-2.2.03-2.26.12-2.34.2-2.39.29-2.39.35-2.34.43-2.28.5-2.22.58-2.25.65-2.34.74-2.44.81-2.46.84-2.41.84-2.45.84-2.86.95-4.01 1.47" filter="url(#a)"/><path d="m17.88-80.54-2.4-.84-1.32-.52-1.01-.39-1.3-.31-1.84-.27-2.31-.24-2.58-.18-2.66-.13-2.67-.05-2.67.03-2.72.11-2.84.2-3.05.28-3.32.36-3.61.42-3.84.48-4.06.56-4.28.65-4.57.75-4.77.83-4.68.87-4.39.88-4.07.82" filter="url(#a)"/><path d="m14.3-81.74-1.39-.29-1.31-.33-1.58-.29-1.87-.26-2.04-.22-2.13-.18-2.21-.1-2.31-.03-2.42.06-2.51.15-2.52.24-2.46.31-2.35.4-2.28.46-2.25.55-2.31.61-2.4.7-2.52.76-2.62.84-2.73.9-2.85.99-2.96 1.06-3.03 1.15-3.03 1.22-2.95 1.29-2.85 1.35-2.87 1.38-3.04 1.41-3.41 1.45-3.8 1.5-4.09 1.58-4.14 1.69-3.93 1.8-3.34 1.86-2.05 1.65" filter="url(#a)"/><path d="m14.3-81.74-1.01-.28-1.03-.33-1.51-.29-1.92-.26-2.14-.23-2.2-.18-2.2-.12-2.2-.04-2.2.04-2.24.13-2.26.21-2.3.3-2.34.36-2.39.44-2.47.51-2.55.58-2.64.66-2.67.74-2.59.81-2.46.84-2.34.87-2.42.93-2.88 1.08-3.65 1.44-4.04 1.95" filter="url(#a)"/><path d="m14.02-81.77-2.33-.46-1.81-.37-1.86-.32-1.87-.25-1.84-.19-1.85-.13-1.91-.06-2.04.02-2.18.12-2.36.2-2.48.29-2.54.36-2.52.42-2.44.48-2.38.53-2.4.58-2.57.64-2.9.73-3.25.81-3.38.87-2.99.93-2.32 1.08" filter="url(#a)"/><path d="m14.02-81.77-2.42-.46-1.95-.38-1.9-.31-1.81-.25-1.75-.19-1.74-.13-1.79-.05-1.9.02-2.03.12-2.16.2-2.26.29-2.32.37-2.33.42-2.28.48-2.22.54-2.16.59-2.14.65-2.15.73-2.24.81-2.36.87-2.46.9-2.42.9-2.09.78" filter="url(#a)"/><path d="m14.02-81.77-2.44-.47-1.94-.38-1.92-.31-1.87-.25-1.89-.18-2.01-.11-2.22-.03-2.46.05-2.67.14-2.76.23-2.73.32-2.6.38-2.41.46-2.25.52-2.13.58-2.12.65-2.2.71-2.35.78-2.53.86-2.69.92-2.84 1-2.97 1.06-3.11 1.12-3.29 1.17-3.5 1.24-3.74 1.28-3.93 1.34-4.04 1.4-4.07 1.48-4.03 1.56-4.01 1.65-4.05 1.76-4.19 1.86-4.31 1.95-4.2 1.99-3.71 1.99-4.35 1.96" filter="url(#a)"/><path d="m12.69-81.92-1.11-.45-1.5-.3-1.84-.25-2.02-.23-2.11-.18-2.16-.12-2.21-.05-2.28.05-2.33.13-2.39.22-2.43.3-2.48.37-2.54.44-2.64.51-2.74.58-2.84.67-2.88.74-2.85.81-2.79.84-2.83.87-3.05.92-3.41 1.08-3.68 1.44-3.59 1.95" filter="url(#a)"/><path d="m11.35-82.55-1.2-.17-1.61-.23-1.95-.23-2.18-.18-2.32-.11-2.35-.03-2.34.07-2.31.16-2.29.24-2.35.33-2.45.4-2.58.47-2.7.55-2.8.62-2.85.7-2.85.77-2.87.83-2.95.91-3.13.99-3.43 1.06-3.82 1.15-4.23 1.23-4.54 1.29-4.66 1.35-4.54 1.37-4.2 1.41-3.71 1.45-3.19 1.5-2.86 1.58-2.89 1.69-3.47 1.8-4.42 1.85-4.21 1.65" filter="url(#a)"/><path d="m5.55-83.39-2.4-.11-1.8-.09-1.8-.01-1.89.08-1.93.18-1.88.27-1.76.35-1.61.42-1.45.5-1.38.56-1.36.64-1.39.72-1.4.79-1.36.86-1.31.94-1.23 1.01-1.17 1.08-1.16 1.17-1.14 1.24-1.12 1.3-1.06 1.36-1 1.39-.93 1.44-.87 1.49-.84 1.55-.78 1.62-.71 1.68-.56 1.74-.33 1.8-.04 1.84.22 1.89.3 1.95.17 2.04-.02 2.11.14 2.11.63 1.82" filter="url(#a)"/><path d="m1.34-83.61-1.72-.09-2.05.09-2.06.2-1.96.29-1.88.36-1.81.43-1.76.5-1.73.57-1.69.64-1.65.72-1.57.8-1.47.86-1.38.93-1.32 1.01-1.31 1.09-1.33 1.17-1.38 1.24-1.39 1.31-1.35 1.35-1.26 1.39-1.17 1.44-1.1 1.48-1.07 1.54-1.04 1.61-.98 1.68-.85 1.75-.66 1.79-.5 1.83-.45 1.87-.53 1.94-.63 2.04-.62 2.19-.52 2.5" filter="url(#a)"/></g><path fill="none" stroke="#000" stroke-linejoin="round" stroke-width="3" d="M-8.27 26.75Q8.96 38.01.345-4.682" filter="url(#a)"/><path fill="#6ECC66" stroke="#000" stroke-linejoin="round" stroke-width="3" d="m-40.9 33.86.83 1.7.82 1.64.83 1.57.82 1.51.82 1.45.81 1.39.82 1.33.81 1.28.82 1.21.81 1.16.81 1.1.81 1.05.81 1 .8.94.81.9.8.84.81.79.8.74.81.7.8.64.8.61.81.55.8.52.8.47.8.42.81.39.8.35.8.3.81.27.8.23.81.2.8.15.81.13.81.09.81.05.81.03.81-.01.81-.03.82-.07.81-.09.82-.12.82-.15.82-.17.82-.2.83-.21.82-.25.83-.26.83-.28.84-.31.83-.32.84-.34.84-.36.85-.37.85-.39.85-.4.85-.42.86-.43.86-.43.86-.45.87-.46.87-.47.87-.47.88-.48.88-.49.89-.49.89-.5.89-.49.9-.5.9-.5.91-.5.91-.5.91-.5.92-.49.93-.49.93-.49.94-.48.94-.47.94-.47.95-.46.96-.45.96-.43.97-.43.97-.41.98-.41.99-.38.99-.37.99-.36 1.01-.34 1.01-.32 1.01-.3 1.02-.28 1.03-.27 1.04-.24 1.04-.21 1.05-.2 1.05-.17 1.07-.14 1.07-.12 1.08-.09 1.08-.06-1.08.06-1.08.09-1.07.12-1.07.14-1.05.17-1.05.2-1.04.21-1.04.24-1.03.27-1.02.28-1.01.3-1.01.32-1.01.34-.99.36-.99.37-.99.38-.98.41-.97.41-.97.43-.96.43-.96.45-.95.46-.94.47-.94.47-.94.48-.93.49-.93.49-.92.49-.91.5-.91.5-.91.5-.9.5-.9.5-.89.49-.89.5-.89.49-.88.49-.88.48-.87.47-.87.47-.87.46-.86.45-.86.43-.86.43-.85.42-.85.4-.85.39-.85.37-.84.36-.84.34-.83.32-.84.31-.83.28-.83.26-.82.25-.83.21-.82.2-.82.17-.82.15-.82.12-.81.09-.82.07-.81.03-.81.01-.81-.03-.81-.05-.81-.09-.81-.13-.8-.15-.81-.2-.8-.23-.81-.27-.8-.3-.8-.35-.81-.39-.8-.42-.8-.47-.8-.52-.81-.55-.8-.61-.8-.64-.81-.7-.8-.74-.81-.79-.8-.84-.81-.9-.8-.94-.81-1-.81-1.05-.81-1.1-.81-1.16-.82-1.21-.81-1.28-.82-1.33-.81-1.39-.82-1.45-.82-1.51-.83-1.57-.82-1.64" filter="url(#a)"/></svg>