<svg xmlns="http://www.w3.org/2000/svg" width="500" height="500" viewBox="-100 -100 200 200"><defs><clipPath id="c"><path d="m34.35-2.29-.21-.33-.23-.34-.26-.34-.29-.35-.31-.35-.34-.35-.37-.35-.4-.35-.43-.35-.46-.35-.49-.35-.51-.34-.55-.33-.57-.34-.6-.32-.5-.43-.55-.41-.6-.41-.66-.39-.71-.39-.76-.37-.8-.35-.85-.34-.89-.32-.93-.3-.97-.28-1-.27-1.04-.24-1.06-.22-1.08-.21-1.1-.18-1.12-.15-1.14-.14-1.14-.11-1.15-.09-1.16-.07-1.16-.05-1.15-.03H5.66l-1.14.02-1.13.04-1.12.06-1.1.08-1.08.1-1.06.11-1.04.14-1.02.15-.99.17-.97.18-.93.2-.91.21-.88.23-.84.24-.82.24-.78.26-.76.27-.72.27-.69.28-.66.29-.64.29-.6.29-.58.3-.55.29-.53.3-.51.3-.48.29-.46.3-.44.3-.42.3-.39.3-.38.3-.36.29-.33.3-.32.29-.3.29-.28.29-.27.29-.25.28-.24.28-.9 4.33.17.27.17.27.18.28.19.27.2.28.21.28.22.29.24.28.25.29.26.3.27.29.29.3.3.31.32.3.33.31.34.32.36.32.38.32.4.33.41.33.44.34.46.35.47.34.5.36.53.35.54.36.57.36.6.37.62.36.64.37.67.36.69.36.71.36.74.36.76.35.78.34.81.33.82.33.85.31.87.3.88.29.9.26.92.26.93.23.95.21.95.18.97.16.98.14.98.11.99.08.99.04.99.02 1-.02.99-.05.98-.09.98-.13.97-.16.97-.2.94-.24.94-.27.92-.32.9-.35.88-.38.86-.42.79-.22.77-.24.76-.25.74-.27.73-.29.72-.29.7-.31.68-.32.66-.33.64-.34.62-.35.61-.35.57-.36.56-.36.53-.35"/></clipPath><clipPath id="b"><path d="m-35.6-2.55.19-.29.21-.29.25-.3.27-.3.3-.3.33-.3.36-.3.39-.29.42-.3.45-.3.48-.29.51-.29.54-.29.56-.28.6-.28.49-.35.55-.35.6-.34.66-.33.71-.32.75-.31.81-.3.85-.29.89-.27.93-.26.97-.24 1.01-.22 1.03-.21 1.07-.2 1.08-.17 1.11-.16 1.12-.14 1.14-.12 1.15-.1 1.16-.09 1.16-.06 1.16-.05 1.16-.03 1.15-.01h1.15l1.13.03 1.12.04 1.11.06 1.08.07 1.07.09 1.04.1 1.02.12 1 .14.97.14.93.16.92.17.88.18.84.2.82.2.79.21.76.21.72.23.7.23.66.23.64.24.6.24.58.24.56.25.53.24.5.25.49.24.46.25.44.25.42.25.4.25.37.24.36.25.34.25.31.24.31.24.28.25.27.23.25.24.23.23 1.24 2.65-.14.31-.15.32-.16.31-.16.31-.17.32-.18.31-.19.32-.2.32-.21.32-.23.32-.23.33-.24.33-.26.33-.26.33-.28.34-.3.34-.3.34-.32.34-.34.35-.35.36-.37.35-.39.37-.41.36-.43.37-.45.37-.47.37-.49.38-.51.37-.54.38-.56.37-.58.38-.61.37-.63.36-.65.37-.68.35-.7.35-.72.34-.75.33-.77.32-.79.3-.81.29-.83.27-.85.25-.88.23-.89.21-.9.19-.93.16-.94.14-.95.11-.97.07-.97.05-.99.02-1-.02-1-.06-1-.09-1.01-.12-1.02-.17-1.01-.2-1.01-.23-1-.28-1-.31-.99-.35-.98-.39-.97-.42-.84-.22-.83-.24-.82-.25-.82-.27-.8-.28-.79-.3-.77-.31-.76-.32-.75-.33-.72-.34-.71-.35-.69-.35-.67-.35-.64-.36-.62-.36"/></clipPath><filter id="a"><feTurbulence baseFrequency=".05" numOctaves="3" result="noise" type="noise"/><feDisplacementMap in="SourceGraphic" in2="noise" scale="2"/></filter></defs><rect width="100%" height="100%" x="-100" y="-100" fill="#F2A6EB"/><path fill="#20DF33" stroke="#000" stroke-linejoin="round" stroke-width="1.667" d="m61.06.86.17-.46-.13 2.2-.01 2.95v-.11l-.08.24.06.89-.46 3.82.2-.73-.51 3.97.05-.93-.2 3.91-.02-.53-.32 2.8-.52 1.76.28-.66-.36.94-.37 2.13-.14.53-.67 3.53-.05.53.18.2-.26.95-1.1 3.52.13.11-.07.22-.46 1.02-.79 2.36-.85 3.01.13-.56.31-.94-.81 2.77-.74 2.24-.58.98-.3 1.56-.98 1.32.05.44-.46 1.03-1.06 2.22-1.16 2.18.3-.87-1.34 2.46.64-.37-1.25 1.61-1.37 2.99.08-.72-.46.88-1.37 1.83.35-.24-.65 1.25-.57.72-1.16 1.54.39-.2-1.25 2.02-.53-.02-2.33 3.13.49-.15-.46.11-1.6 2.02-.67.57-.42.04-1.02 1.08.22.2-1.83 1.65-.47.12-.63.99-1.27.91-1.87 1.66.38-.23-1.28.81-.8.77-.05.09-.86.56-1.21.62-1.69 1.03-.55.4.52-.23-1.89.96-1.09.67-.82.43-1.22.72-.43.01-2.27 1 .52-.26-1.7.66-.6.33-.79.15.18.1-2.72.74.49.01-1.65.35-1.37.37-1.04-.2-.55.04-2.48.52-.34.05.35.1-.21-.09-1.12.1-.82-.01-2.78.14.57.06-1.4-.33-1.08.27-.18-.09-1.67-.42-1.33-.2-2.06-.27-.07.1-1.41-.15.72-.1-2.01-.2-1.45-.48-1.43-.62-.12.25-1.03-.52-.51.08.38-.25-2.31-.75-.99-.45.35.09-2.25-1.01-.46-.07-1.11-.77-.37-.5-2.26-.97.96.29-1.35-.63-.96-.44-1.02-.92-1-.71-1.84-1.31.65.34-.2-.03-2.28-2 .76.83-2.75-2.59-1.02-.62-1.01-1.11-.86-1.08.63.5-.73-.37-1.8-2-.51-.8-.64-1.09-.93-.59.8.73-2.61-3.4.56 1.14.11-.23-1.85-2.27-.87-1.4-1.68-2.72.74 1.46-.08-.3-2.29-3.78.22.42-.83-1.48.49 1.08-1.23-3.2-.52-.59-.06.01-1.12-2.56-1.39-2.46-.37-1.1-.54-1.27.57.95-1.83-3.74.23.97.31.08-1.29-3.54-.08-.54-.22-.53-.48-.92-.72-2.58.09-.23-.98-3.17.17.13-.29-1.34-.69-1.8-.08-1.29-.81-2.55.14-.18-.32-.48-.29-2.94-.02.42-.41-1.53-.12-1.83-.43-3.35-.01.58-.11-.77-.31-4.01.08.96-.25-3.48.07 1.31-.23-2.15-.06-1.54.09-2.15-.08-.14.01-1-.18-2.82.17-1.47.01-1.78-.07.87.1-3.26.11-.56v-1.7l.35-1.83.15-2.3-.04.23-.17-.03.35-2.28.58-3.56.16-1.13.11-1.82-.12 1.64.4-2.67.08-1.33.76-2.24-.3.87.71-2.97.24-1.41.05-.5.68-2.4L-57-31l.01-.86 1.04-3.56.5-.97-.11.39.82-2.66.94-2.83.78-1.79-.34.37.29-.89.72-1.08.38-1.59.5-.91.02.34.57-1.75.97-2 .19-.22.95-2.05.67-1.17.1.04 1.94-3.61-.09.06.65-.99.55-.76.37-.91.64-.88.73-.65 1.52-1.98-.37.12 1.33-1.73.91-.98-.78.68.65-.53L-38.7-68l.91-.87 1.57-1.99.17.05.52-.79 1.64-1.56.86-.65-1.04.66 2.23-1.99.63-.29.58-1.01.24.2 2.5-1.71-.55-.01 2.52-2-.32.33.49-.08 1.2-.95-.01-.09 3.09-1.71-.77.78 3.26-2.08-1.23.47 1.42-.38.98-.57-.62.41 2.57-1.31-.88.35 2.89-1.18-.49.37 2.95-.79.13-.03 1.29-.42.62-.01.78-.41.46.27.81-.22 1.54-.34.6-.22.25.15 1.89-.04 1.66-.34.65.03 1.75-.02-.16-.02 1.55-.06-.15.25 1.65.17 2-.03.34.37-1.05-.23 1.84.08 2.59.47.51.19.3.06 1.1.46.21.11 1.84.5.97.27 1.03.54.79.2 1.48.66-1.39-.72 2 .74 1.81.91 1.26.82.96.25.5.56-.21-.2 2.99 1.63-1.67-.77 1.75 1.38.9.62.56.3 1.26.67.62.59 2.39 1.73-.09.16.24.16.32.42.89.85.46.2 2.22 2.39.46.39.01.18.91.68 2.01 2.54-.67-.59h.38l2.16 2.71.12.2.98 1.41v-.05l2.22 3.09-.36-.71 1.05 1.76-.42-.39 1.14 1.63.19.2 2.18 4.06-.1-.6.69 1.05.84 2.06.65.92.68 1.87-.57-1.29.88 1.94.82 1.44.06.63.49 1.07.07.22.88 1.52.41 2.01.82 2.52.59 1.56-.31-1.06.61 1.11-.19.39.72 1.96.98 2.91-.58-1.64 1.13 3.99.54 2.38-.46-1.12.16.1.84 4.27.41 1.91.25 1.06-.1-.63.12.45.41 2.35.42 3.13.06.89.24 1.29.28 3.02-.1.16-.07.19.22 2.69v-1.28l.22 1.64.04 3.51.01.37.12 3.3-.13.8.17-.46" filter="url(#a)"/><path fill="#fff" d="m-35.6-2.55.19-.29.21-.29.25-.3.27-.3.3-.3.33-.3.36-.3.39-.29.42-.3.45-.3.48-.29.51-.29.54-.29.56-.28.6-.28.49-.35.55-.35.6-.34.66-.33.71-.32.75-.31.81-.3.85-.29.89-.27.93-.26.97-.24 1.01-.22 1.03-.21 1.07-.2 1.08-.17 1.11-.16 1.12-.14 1.14-.12 1.15-.1 1.16-.09 1.16-.06 1.16-.05 1.16-.03 1.15-.01h1.15l1.13.03 1.12.04 1.11.06 1.08.07 1.07.09 1.04.1 1.02.12 1 .14.97.14.93.16.92.17.88.18.84.2.82.2.79.21.76.21.72.23.7.23.66.23.64.24.6.24.58.24.56.25.53.24.5.25.49.24.46.25.44.25.42.25.4.25.37.24.36.25.34.25.31.24.31.24.28.25.27.23.25.24.23.23 1.24 2.65-.14.31-.15.32-.16.31-.16.31-.17.32-.18.31-.19.32-.2.32-.21.32-.23.32-.23.33-.24.33-.26.33-.26.33-.28.34-.3.34-.3.34-.32.34-.34.35-.35.36-.37.35-.39.37-.41.36-.43.37-.45.37-.47.37-.49.38-.51.37-.54.38-.56.37-.58.38-.61.37-.63.36-.65.37-.68.35-.7.35-.72.34-.75.33-.77.32-.79.3-.81.29-.83.27-.85.25-.88.23-.89.21-.9.19-.93.16-.94.14-.95.11-.97.07-.97.05-.99.02-1-.02-1-.06-1-.09-1.01-.12-1.02-.17-1.01-.2-1.01-.23-1-.28-1-.31-.99-.35-.98-.39-.97-.42-.84-.22-.83-.24-.82-.25-.82-.27-.8-.28-.79-.3-.77-.31-.76-.32-.75-.33-.72-.34-.71-.35-.69-.35-.67-.35-.64-.36-.62-.36" filter="url(#a)" transform="translate(35.17 -25.29)"/><path fill="#fff" d="m34.35-2.29-.21-.33-.23-.34-.26-.34-.29-.35-.31-.35-.34-.35-.37-.35-.4-.35-.43-.35-.46-.35-.49-.35-.51-.34-.55-.33-.57-.34-.6-.32-.5-.43-.55-.41-.6-.41-.66-.39-.71-.39-.76-.37-.8-.35-.85-.34-.89-.32-.93-.3-.97-.28-1-.27-1.04-.24-1.06-.22-1.08-.21-1.1-.18-1.12-.15-1.14-.14-1.14-.11-1.15-.09-1.16-.07-1.16-.05-1.15-.03H5.66l-1.14.02-1.13.04-1.12.06-1.1.08-1.08.1-1.06.11-1.04.14-1.02.15-.99.17-.97.18-.93.2-.91.21-.88.23-.84.24-.82.24-.78.26-.76.27-.72.27-.69.28-.66.29-.64.29-.6.29-.58.3-.55.29-.53.3-.51.3-.48.29-.46.3-.44.3-.42.3-.39.3-.38.3-.36.29-.33.3-.32.29-.3.29-.28.29-.27.29-.25.28-.24.28-.9 4.33.17.27.17.27.18.28.19.27.2.28.21.28.22.29.24.28.25.29.26.3.27.29.29.3.3.31.32.3.33.31.34.32.36.32.38.32.4.33.41.33.44.34.46.35.47.34.5.36.53.35.54.36.57.36.6.37.62.36.64.37.67.36.69.36.71.36.74.36.76.35.78.34.81.33.82.33.85.31.87.3.88.29.9.26.92.26.93.23.95.21.95.18.97.16.98.14.98.11.99.08.99.04.99.02 1-.02.99-.05.98-.09.98-.13.97-.16.97-.2.94-.24.94-.27.92-.32.9-.35.88-.38.86-.42.79-.22.77-.24.76-.25.74-.27.73-.29.72-.29.7-.31.68-.32.66-.33.64-.34.62-.35.61-.35.57-.36.56-.36.53-.35" filter="url(#a)" transform="translate(-29.13 -24.05)"/><g fill="none" stroke="#000" transform="translate(35.17 -25.29)"><path stroke-linejoin="round" stroke-width="1.667" d="m-36.27-.07-.01-.2v-.21l.02-.23.03-.23.05-.25.07-.26.09-.26.12-.28.14-.28.16-.28.19-.29.21-.29.25-.3.27-.3.3-.3.33-.3.36-.3.39-.29.42-.3.45-.3.48-.29.51-.29.54-.29.56-.28.6-.28.49-.35.55-.35.6-.34.66-.33.71-.32.75-.31.81-.3.85-.29.89-.27.93-.26.97-.24 1.01-.22 1.03-.21 1.07-.2 1.08-.17 1.11-.16 1.12-.14 1.14-.12 1.15-.1 1.16-.09 1.16-.06 1.16-.05 1.16-.03 1.15-.01h1.15l1.13.03 1.12.04 1.11.06 1.08.07 1.07.09 1.04.1 1.02.12 1 .14.97.14.93.16.92.17.88.18.84.2.82.2.79.21.76.21.72.23.7.23.66.23.64.24.6.24.58.24.56.25.53.24.5.25.49.24.46.25.44.25.42.25.4.25.37.24.36.25.34.25.31.24.31.24.28.25.27.23.25.24.23.23.23.23.2.23.2.22.18.22.17.22.17.21.14.21.14.2.13.2.12.2" filter="url(#a)"/><path stroke-linejoin="round" stroke-width="2.222" d="m-33.52 3.88.28.21.32.24.37.27.4.28.44.31.47.32.51.33.53.35.57.35.59.35.62.36.64.36.67.35.69.35.71.35.72.34.75.33.76.32.77.31.79.3.8.28.82.27.82.25.83.24.84.22.97.42.98.39.99.35 1 .31 1 .28 1.01.23 1.01.2 1.02.17 1.01.12 1 .09 1 .06 1 .02.99-.02.97-.05.97-.07.95-.11.94-.14.93-.16.9-.19.89-.21.88-.23.85-.25.83-.27.81-.29.79-.3.77-.32.75-.33.72-.34.7-.35.68-.35.65-.37.63-.36.61-.37.58-.38.56-.37.54-.38.51-.37.49-.38.47-.37.45-.37.43-.37.41-.36.39-.37.37-.35.35-.36.34-.35.32-.34.3-.34.3-.34.28-.34.26-.33.26-.33.24-.33.23-.33.23-.32.21-.32.2-.32.19-.32.18-.31.17-.32.16-.31.16-.31.15-.32.14-.31.13-.31.13-.31.12-.31.11-.31.11-.31.1-.31.1-.32.09-.31.09-.31.09-.32" filter="url(#a)"/><circle cx="19.652" cy="-.61" r="3.654" clip-path="url(#b)" filter="url(#a)"/><circle cx="19.502" cy="-1.8" r="4.008" clip-path="url(#b)" filter="url(#a)"/><circle cx="18.517" cy="-.765" r="4.086" clip-path="url(#b)" filter="url(#a)"/><circle cx="19.187" cy="1.93" r="4.912" clip-path="url(#b)" filter="url(#a)"/><circle cx="18.382" cy="1.235" r="3.958" clip-path="url(#b)" filter="url(#a)"/><circle cx="20.177" cy="-.14" r="3.786" clip-path="url(#b)" filter="url(#a)"/><circle cx="18.152" cy="1.605" r="4.686" clip-path="url(#b)" filter="url(#a)"/><circle cx="17.287" cy="1.605" r="3.334" clip-path="url(#b)" filter="url(#a)"/><circle cx="20.417" cy="1.04" r="4.054" clip-path="url(#b)" filter="url(#a)"/><circle cx="21.252" cy="-.65" r="4.824" clip-path="url(#b)" filter="url(#a)"/></g><g fill="none" stroke="#000" transform="translate(-29.13 -24.05)"><path stroke-linejoin="round" stroke-width="2.222" d="m35.29.49-.03-.22-.03-.23-.05-.24-.06-.26-.08-.28-.1-.29-.11-.3-.14-.31-.16-.32-.18-.33-.21-.33-.23-.34-.26-.34-.29-.35-.31-.35-.34-.35-.37-.35-.4-.35-.43-.35-.46-.35-.49-.35-.51-.34-.55-.33-.57-.34-.6-.32-.5-.43-.55-.41-.6-.41-.66-.39-.71-.39-.76-.37-.8-.35-.85-.34-.89-.32-.93-.3-.97-.28-1-.27-1.04-.24-1.06-.22-1.08-.21-1.1-.18-1.12-.15-1.14-.14-1.14-.11-1.15-.09-1.16-.07-1.16-.05-1.15-.03H5.66l-1.14.02-1.13.04-1.12.06-1.1.08-1.08.1-1.06.11-1.04.14-1.02.15-.99.17-.97.18-.93.2-.91.21-.88.23-.84.24-.82.24-.78.26-.76.27-.72.27-.69.28-.66.29-.64.29-.6.29-.58.3-.55.29-.53.3-.51.3-.48.29-.46.3-.44.3-.42.3-.39.3-.38.3-.36.29-.33.3-.32.29-.3.29-.28.29-.27.29-.25.28-.24.28-.22.28-.21.27-.19.26-.19.27-.17.25-.16.26-.15.24-.14.25-.13.24-.12.23" filter="url(#a)"/><path stroke-linejoin="round" stroke-width="2.222" d="m32.97 5.15-.24.21-.27.24-.3.27-.34.29-.37.31-.39.32-.43.34-.45.34-.48.35-.51.36-.53.35-.56.36-.57.36-.61.35-.62.35-.64.34-.66.33-.68.32-.7.31-.72.29-.73.29-.74.27-.76.25-.77.24-.79.22-.86.42-.88.38-.9.35-.92.32-.94.27-.94.24-.97.2-.97.16-.98.13-.98.09-.99.05-1 .02-.99-.02-.99-.04-.99-.08-.98-.11-.98-.14-.97-.16-.95-.18-.95-.21-.93-.23-.92-.26-.9-.26-.88-.29-.87-.3-.85-.31-.82-.33-.81-.33-.78-.34-.76-.35-.74-.36-.71-.36-.69-.36-.67-.36-.64-.37-.62-.36-.6-.37-.57-.36-.54-.36-.53-.35-.5-.36-.47-.34-.46-.35-.44-.34-.41-.33-.4-.33-.38-.32-.36-.32-.34-.32-.33-.31-.32-.3-.3-.31-.29-.3-.27-.29-.26-.3-.25-.29-.24-.28-.22-.29-.21-.28-.2-.28-.19-.27-.18-.28-.17-.27-.17-.27-.15-.27-.14-.27-.14-.26-.13-.27-.12-.26-.12-.27-.11-.26-.1-.26-.1-.27-.09-.26" filter="url(#a)"/><circle cx="-10.362" cy="-1.966" r="3.13" clip-path="url(#c)" filter="url(#a)"/><circle cx="-11.132" cy="1.194" r="3.156" clip-path="url(#c)" filter="url(#a)"/><circle cx="-10.042" cy="-.251" r="4.192" clip-path="url(#c)" filter="url(#a)"/><circle cx="-9.722" cy=".744" r="4.712" clip-path="url(#c)" filter="url(#a)"/><circle cx="-11.657" cy="-1.201" r="3.258" clip-path="url(#c)" filter="url(#a)"/><circle cx="-14.082" cy="-1.286" r="3.93" clip-path="url(#c)" filter="url(#a)"/><circle cx="-9.707" cy="-2.871" r="4.296" clip-path="url(#c)" filter="url(#a)"/><circle cx="-12.862" cy="-3.471" r="3.498" clip-path="url(#c)" filter="url(#a)"/><circle cx="-13.292" cy="-1.101" r="4.586" clip-path="url(#c)" filter="url(#a)"/><circle cx="-14.402" cy="-.771" r="3.05" clip-path="url(#c)" filter="url(#a)"/></g><g fill="none" stroke="#1E1386" stroke-linejoin="round" stroke-width="2"><path d="M31.61-75.49 8.98-62.48l5.4 4.12-1.58-4.88-5.91-7.57-4.16-6.41-.82-4.02 1.02-1.69.87.1-.27 1.16-1.1 1.49-.93 1.23-.11.65.31.1-.49-.19-2.21-.09-3.45.39-2.73 1.06-.18 1.23.86-.02-5.71-2.5-14.03-1.31" filter="url(#a)"/><path d="m50.77-48.9-4.94 1.37-16.85-5.5-15.49-8.47-10.47-7.71-6.97-5.05-4.99-2.23-3.91-.18-3.27.77-2.62.79-1.6.4-.2.23 1.5.5 3.65 1.04 6.19 1.48 7.96 1.8 6.83 2.24 2.34 2.6-4.72.86-36.24-9.85" filter="url(#a)"/><path d="M31.61-75.49-.77-76.81l.38-2.68 7 .21 6.16 2.49 3.49 3.34 1.18 3.33.1 3.11-.22 2.66-.89 1.65-2.52-.15-4.5-2.38-5.37-4.29-4.06-4.92-.69-3.8 3.37-1.11 6.17 2.32 5.42 4.78-1.38 3.26L-.27-74.3l-8.3-12.96" filter="url(#a)"/><path d="M55.33-36.84 21.97-67.87 11.4-74.4 9-72.25l1.84 3.36 3.48 1.83 2.85.05 1.8-.68 1.62-.25 1.84.37 1.09.18-1.25-1.04-4.41-2.49-6.65-3.05-6.52-2.26-3.7-.68.44.52 2.81.6-.24.2-9.97 1.19-20.65 5.01-16.59 7.46" filter="url(#a)"/><path d="m24.13-80.78-26.38-.47-.63-1.49 4.03.98 4.1 3.42 4.07 3.65 2.59 1.51-1.12-1.27-5.47-2.87-7.81-2.69-6.77-1.46-3-.16 1.94.87 7.92 2.12 17.87 5.04 30.36 15.34" filter="url(#a)"/><path d="m26.78-78.78-1.03-.65-1.67-.18-3.56.09-1.76 2.4 2.52 5.38 5.64 6.92 5.34 6.05 2.09 3.64-1.7 1.18-3.64-.31-2.55-.86.74-.95 3.83-1.09 3.85-2.17-1-5.6-10.11-11.06L5.22-87.54" filter="url(#a)"/><path d="m-9.97-86.84 28.22 9.66 6.61 1.15.49-.42-1.56-1.01-3.38-1.64-5.34-1.8-6.99-1.35-7.75-.25-7.12 1.53-4.41 3.95 1.08 6.4 8.53 7.11 12.24 3.27-.46-6.44-38.08-11.27" filter="url(#a)"/><path d="m31.76-75.17-24.07-6.1 2.16 1 7.67 5.52 4.74 6.27.76 4.4-2.12 1.67-4.41-.63-6.37-1.87L2.91-67l-6.08-1.75-3.24-1.41.02-1.4 2.33-1.56 3.2-1.48 3.19-.82 3.07.32 3.03 1.24 2.7 1.21 2.38.37 3.12.26 3.75 2.43-4.9 3.56-43.37-11.92" filter="url(#a)"/><path d="m-9.35-86.85.59 18.83 20.22 8.35 6.91 3.19-6.77-1.03-11.29-4.2-8.53-5.52-3.21-4.96 1.48-3.1 4.53-.81 5.69 1.14 4.8 2.21 2.02 2.12-1.33.84-3.01-1.2-1.29-2.99 3.26-3.47 7.44-2.35 7.91-.64 5.11.67 3.42 1.96" filter="url(#a)"/><path d="m17.88-84 20.21 23.32 4.01 5.45-4.35-.2-9.81-4.96-10.19-7.29-6.32-6.07-1.75-2.72.6.34.47 1.66-.04 1.42 1.13.78 3.5.29 4.71-.59 3.96-2.31-5.52-9.1" filter="url(#a)"/><path d="m-.71-87.97 19.29 10.29 3.68 3.61-6-2.16-8.36-2.19-6.26-.12-2.12 1.25 1.67 1.08 3.45-.13 3.12-1.4 1.79-1.81.81-.9.92 1.12 1.53 3.46-.16 4.81L3.97-67l-23.75 1.98-23.43 3.09" filter="url(#a)"/><path d="M5.93-87.68-5.74-71.93 9.27-69.3l12.06.16 5.74.29 1.08.25-1.68-.28-3.18-1.04-4.01-1.82-4.49-2.4-4.61-2.55-4.33-2.18-3.7-1.45-2.74-.64-1.54.01-.17.49 1.21.95 2.54 1.41 3.91 1.73 5.46 1.62 6.93.97 7.3.18 5.42-.32 1.79-.49-.18-.34" filter="url(#a)"/><path d="m-1.36-88 34.39 30.13 4.08 3.06-9.7-6.77-12.68-6.99-10.17-3.6-5.71-.07-1.54 1.98 1.03 2.21 1.45 1.07-.05-.5-2.53-1.67-4.69-2.14-5.24-2.2-3.83-2.15-1.49-1.8.37-.89 2.53-.61 8.33-3.42 12.03-5.18" filter="url(#a)"/><path d="m-33.03-73.81 25.97 1.23 6.91 1.5 7.5-.51 6.12-.25 4.64 2.16 4.07 4.48 2.49 4.42-1.24 1.79-5.9-1.56-9.1-3.61-9.14-3.78-5.81-2.75-.78-1.21-.13-.04-28.1.34" filter="url(#a)"/><path d="m47.91-54.8-30.45-6.96.27-1.22 2.62-1.91.29-.83-2.27-.01h-2.68l-.76-.29 1.67-.25 2.78.48 2.42 1.87 1.78 3.35 1.83 4.05 1.66 3.17-1.25.34-8.06-4.15L4-65.95l-5.24-9.91 28.02-2.92" filter="url(#a)"/><path d="M57.03-31.97 27.61-55.69 29.5-59l.31-3.45-3.65-3.79-3.95-1.92-2.42-.08-1.39.54-1.41.37-1.94.19-2.39.22-2.6.25-2.55.15-1.81.08.37.44 4.07 1.38 7.99 2.53L27.81-59l7.33 2.12 1.76-.61-3.39-3.62-6.19-5.66-22.1-20.77" filter="url(#a)"/><path d="m-5.16-87.77 26.75 13.38 4.02 3.08-5.33-.12-6.87-1.47-3.77-1.57-.24-.83 1.38.48 1.16 1.9.32 2.7-.03 2.39.27 1.23.68.23.64.37.75 1.73 3.27 3.49 10.18 5.44 17.19 8.98 11.24 12.75" filter="url(#a)"/><path d="M-44.58-60.4 2.48-71.14l16.39-3.82 2.74-1.2-2.69.2-2.83.92-.31.93 2.24.48 3.15.01 2.2-.12-.03.23-2.65 1-4.97 1.98-6.56 2.73-7.37 2.82-7.46 2.05-6.8.69-5.15-.7-2.39-1.69.94-2.33 3.62-2.84 5-3.04 6.57-2.6 8.59-2.91-9.62-9.27" filter="url(#a)"/><path d="m-21.47-82.46 40.8 18.13 6.02 2.3.26.33.44-.3-.72-1.67-1.88-2.04-1.58-.66-.66 1.29-.68 2.3-2.13 1.63-3.91-.23-4.4-2.19-2.82-3.28.06-3.32 2.48-2.69 3-1.98 1.54-1.53-.55-1.32-1.81-1.25-2.15-1.43-3.15-1.98-5.81-2.43-7.16-1.73-1.83-.48" filter="url(#a)"/><path d="m-3.02-87.66-6.8 4.2 2.61 1.53 4.19.58 4.43.13 3.21.33 1.54 1.09.92 2.17 2 3.14 4.06 3.42 5.35 2.51 4.45.45 1.35-1.93-2.47-3.6-5.15-3.89-2.3-1.47 21.28 7.69" filter="url(#a)"/><path d="m14.58-85.4-5.83 6.7-1.47 7.92-5.07 3.1-6.22-.57-5.54-2.2-3.88-2.19-1.55-1.45 1.7-.77 5.86-.18 9.85 1.01 11.6 2.92 8.89 3.68.9.29-7.1-6.86 10.06-4.78" filter="url(#a)"/><path d="m-25.92-79.96.58 1.01 8.55 1.46 12.37 3 8.74 2.76L5.82-70l-3.18.86-2.59.35 1.51.14 5.47.2 6.54.26 4.3-.09.38-1.09-3.07-2.46-4.73-3.41-4.91-3.31-4.53-2.15-3.08-.04L.77-77.3l17.34 10.54 37.22 29.92" filter="url(#a)"/><path d="M50.09-50.77 24.8-67.7 1.56-75.22l-12.17-2.63-2.95.37 2.3 2.22 4.06 2.41 3.43 1.1 1.81-.7.5-1.93.34-2.19 1.38-1.69 3.14-.93 4.72-.27 5.4.16 4.84.48 3.44.96 2.21 1.84 2.08 2.97 2.79 3.15 3.33 1.48 12.29 8.33" filter="url(#a)"/><path d="m29.22-77.22-28.12.94-18.45 5.36-3.26 1.45 4.84-.08 6.94.51 6.83.86 6.56.21 6.28-.85 5.41-1.43 3.47-1.16.32-.31-3.79.4-8.07.28L-3-71.68l-11.56-1.44-9.08-.72-6.43 2.18-6.86 5.41-3.02-.1" filter="url(#a)"/><path d="m10.16-86.8-22.3 13.82 5.28 1.34 1.94.73-2.02 1.61.58 2.21 5.37 2.08 7.07 1.09 4.46-.54-.03-2.27-3.3-3.4-3.89-3.39-2.66-2.27-1.12-.46.38 1.54 3.05 3.7 7.64 5.95 10.73 6.47.83-.63-39.98-25.02" filter="url(#a)"/></g><g fill="none" stroke="#000"><circle cx="9.476" cy="30.258" r="2.284" filter="url(#a)"/><circle cx="8.656" cy="32.294" r="2.204" filter="url(#a)"/><circle cx="10.82" cy="28.49" r="1.808" filter="url(#a)"/><circle cx="9.928" cy="28.634" r="1.876" filter="url(#a)"/><circle cx="9.52" cy="30.31" r="2.19" filter="url(#a)"/><circle cx="9.532" cy="32.038" r="1.058" filter="url(#a)"/><circle cx="10.548" cy="29.374" r="2.286" filter="url(#a)"/><circle cx="8.444" cy="30.674" r="2.432" filter="url(#a)"/><circle cx="10.676" cy="31.898" r="1.652" filter="url(#a)"/><circle cx="10.288" cy="31.646" r="1.972" filter="url(#a)"/><circle cx="-6.518" cy="27.232" r="2.912" filter="url(#a)"/><circle cx="-8.302" cy="24.4" r="1.586" filter="url(#a)"/><circle cx="-6.262" cy="24.336" r="1.896" filter="url(#a)"/><circle cx="-7.738" cy="24.348" r="1.2" filter="url(#a)"/><circle cx="-9.338" cy="26.516" r="1.628" filter="url(#a)"/><circle cx="-8.162" cy="24.476" r="2.95" filter="url(#a)"/><circle cx="-9.118" cy="25.336" r="2.438" filter="url(#a)"/><circle cx="-9.346" cy="25.28" r="2.35" filter="url(#a)"/><circle cx="-5.982" cy="26.024" r="1.51" filter="url(#a)"/><circle cx="-7.51" cy="25.852" r="2.302" filter="url(#a)"/></g><path fill="#66CC70" stroke="#000" stroke-linejoin="round" stroke-width="3" d="m-16.08 45.97.07-.58.08-.56.09-.54.1-.53.1-.51.11-.5.12-.47.12-.47.14-.45.14-.43.14-.42.15-.4.16-.39.17-.37.17-.36.18-.34.19-.33.19-.32.2-.3.21-.29.21-.28.22-.26.22-.25.23-.23.24-.22.24-.21.25-.2.25-.19.26-.17.26-.16.27-.15.28-.13.28-.13.29-.11.29-.1.29-.09.31-.08.3-.07.31-.06.32-.04.32-.04.33-.03.33-.01.34-.01.34.01.34.01.35.02.35.03.36.04.36.05.37.06.37.07.37.08.38.08.39.1.38.1.39.1.39.12.4.13.4.13.41.14.4.14.41.16.42.16.41.16.42.17.43.18.42.19.43.19.43.2.44.2.44.21.44.21.44.22.44.23.45.23.45.23.45.24.46.24.45.25.46.25.46.26.47.26.46.26.47.27.46.27.47.27.47.28.48.28.47.28.48.28.47.29.48.29.48.29.48.29.48.3.48.29.49.3.48.3.48.3-.48-.3-.48-.3-.49-.3-.48-.29-.48-.3-.48-.29-.48-.29-.48-.29-.47-.29-.48-.28-.47-.28-.48-.28-.47-.28-.47-.27-.46-.27-.47-.27-.46-.26-.47-.26-.46-.26-.46-.25-.45-.25-.46-.24-.45-.24-.45-.23-.45-.23-.44-.23-.44-.22-.44-.21-.44-.21-.44-.2-.43-.2-.43-.19-.42-.19-.43-.18-.42-.17-.41-.16-.42-.16-.41-.16-.4-.14-.41-.14-.4-.13-.4-.13-.39-.12-.39-.1-.38-.1-.39-.1-.38-.08-.37-.08-.37-.07-.37-.06-.36-.05-.36-.04-.35-.03-.35-.02-.34-.01-.34-.01-.34.01-.33.01-.33.03-.32.04-.32.04-.31.06-.3.07-.31.08-.29.09-.29.1-.29.11-.28.13-.28.13-.27.15-.26.16-.26.17-.25.19-.25.2-.24.21-.24.22-.23.23-.22.25-.22.26-.21.28-.21.29-.2.3-.19.32-.19.33-.18.34-.17.36-.17.37-.16.39-.15.4-.14.42-.14.43-.14.45-.12.47-.12.47-.11.5-.1.51-.1.53-.09.54-.08.56" filter="url(#a)"/></svg>