<svg xmlns="http://www.w3.org/2000/svg" width="500" height="500" viewBox="-100 -100 200 200"><defs><clipPath id="c"><path d="m28.96-1.1-.11-.02-.12-.03-.15-.02-.17-.02-.19-.03-.22-.02-.24-.03-.27-.02-.3-.02-.32-.03-.35-.02-.38-.02-.4-.03-.43-.02-.47-.02-.33-.03-.38-.03-.44-.03-.48-.02-.55-.03-.59-.02-.64-.03-.7-.02-.74-.02-.78-.03-.83-.02-.87-.01-.91-.02-.94-.02-.98-.01-1.01-.02-1.03-.01-1.06-.01H10.5l-1.1-.01-1.11-.01H2.6l-1.14.01-1.14.01-1.13.01-1.12.01-1.11.01-1.1.01-1.08.02-1.06.02-1.04.02-1.02.02-1 .02-.97.02-.95.03-.92.02-.89.03-.87.03-.84.03-.81.03-.78.03-.75.04-.72.03-.7.04-.67.03-.64.04-.62.04-.6.03-.57.04-.54.04-.52.04-.49.05-.47.04-.45.04-.42.05-.4.04-.38.05-.35.04-.33.05-.31.05-1.97.75.33.05.34.06.35.05.38.06.38.05.4.06.42.06.43.05.45.06.46.06.48.05.49.06.51.06.53.05.54.06.56.06.57.05.6.06.61.05.63.06.65.05.67.05.69.05.7.05.73.05.74.05.75.04.77.04.79.04.81.04.81.04.83.03.85.03.85.03.87.02.88.02.88.02.89.01.9.01h.91l.91.01.91-.01h.91l.91-.01.91-.01.91-.02.9-.02.9-.03.89-.03.89-.03.87-.04.86-.04.85-.04.84-.05.82-.05.8-.06.79-.05.77-.06.74-.07.73-.06.71-.07.68-.07.66-.07.64-.08.61-.05.6-.06.58-.06.56-.05.55-.06.54-.06.52-.06.5-.06.49-.05.46-.06.45-.06.44-.06.41-.05.4-.06.37-.05"/></clipPath><clipPath id="b"><path d="m-29.47-.95.11-.02.13-.02.15-.01.17-.02.2-.02.22-.02.25-.02.28-.02.3-.01.33-.02.36-.02.38-.02.41-.01.45-.02.46-.02.34-.02.4-.02.45-.02.49-.02.56-.02.6-.02.65-.01.7-.02.75-.02.79-.01.83-.02.88-.01.91-.01.94-.01.98-.01 1.01-.01 1.03-.01 1.06-.01h1.07l1.1-.01h5.61l1.14.01h1.12l1.13.01H.38l1.1.01 1.09.01 1.08.02 1.05.01 1.04.01 1.01.02.99.01.97.02.94.02.91.02.88.02.86.03.82.02.8.02.76.03.74.02.7.03.68.03.64.03.62.03.59.03.56.03.54.03.5.03.49.03.45.04.43.03.4.04.37.03.35.04.32.04.3.03.28.04.25.04.22.04 2.72.39-.3.04-.31.05-.33.04-.35.04-.35.05-.37.04-.39.05-.4.05-.42.04-.43.05-.44.05-.46.04-.47.05-.49.05-.5.05-.52.05-.54.04-.55.05-.57.05-.59.05-.6.05-.62.05-.64.04-.65.05-.67.05-.68.04-.7.05-.71.04-.73.04-.74.04-.76.04-.77.04-.78.04-.79.03-.8.03-.81.03-.82.02-.83.03-.83.02-.84.02-.85.01-.85.01-.86.01h-.85l-.86.01-.86-.01h-.86l-.85-.01-.86-.02-.85-.01-.84-.03-.84-.02-.83-.03-.82-.04-.82-.03-.8-.04-.8-.05-.78-.05-.77-.05-.75-.05-.74-.06-.73-.07-.71-.06-.69-.07-.63-.04-.62-.05-.6-.05-.6-.05-.58-.05-.57-.05-.56-.05-.54-.05-.52-.06-.51-.05-.5-.05-.47-.06-.46-.05-.45-.05-.42-.05"/></clipPath><filter id="a"><feTurbulence baseFrequency=".05" numOctaves="3" result="noise" type="noise"/><feDisplacementMap in="SourceGraphic" in2="noise" scale="2"/></filter></defs><rect width="100%" height="100%" x="-100" y="-100" fill="#A6F1F2"/><path fill="#DF2320" stroke="#000" stroke-linejoin="round" stroke-width="1.667" d="m65.74.39.04 1.12-.08 1.63-.07 1.05v-.43l.11 1.84-.4 2.37-.01.13.06 1.37-.03.17-.42 2.31-.22 1.46.03.55-.14.06-.31 1.31-.46 2.06-.07 1.07-.5 1.72.22-.95-.5 2.25-.76 1.74.03-.03-.33 1.61-.45.89-.27 1.47-.45 1.13-.29.6-.34.42-.38 1.42-1.2 2.72.67-1.54-1.18 2.34-.05.57-.77.96.03.45-.9 1.19-.71 1.35-.46.9-.78 1.82-.04-.22-1.47 2.33.17-.67-1.26 2.14-.65.82-.86 1.08.55-.37-1.38 1.47-1.04 1.4-.29.26-.31.37-1.58 1.91-1.03.92.41-.66-1.74 2.26.41-.39-2.29 2.2-.06-.02-.48.36-1.48 1.24-1.02.84.4-.12-.07-.01-1.44.98-.74.65-2.01 1.41-.89.62-1.6 1.1.42-.27-1.77 1.16.18-.3-1.96 1.1-.3.41-1.66.93-1.72.54 1.22-.36-2.02.71-.8.54-.75.29-.53.16-2.4 1.09-.95.41 1.19-.56-3.48 1.11-.3.28-1.55.23-.66.17-.1.21-2.11.54-.47-.06-.45.11-1.52.41.02-.15-.83.09-2.94.56.65-.06-3.18.21-.02-.06-1.53-.04.26.31-.41-.18-2.46.09-2.39.07.44-.2-1.44.16.85-.18-1.67-.08-2.37-.32-.66-.1-.48.23-1.28-.43h-1.44l-1.05-.13-1.62-.51.31.08-2.61-.86 1.65.71-1.35-.57-2.46-.54-.39-.05-3.05-1.09-.22-.1.39.24-1.66-.81-1.27-.43-.22-.15-1.24-.68-.22-.07-.25-.19-2.62-1.29-.34-.05-.84-.77-1.28-.7.26.29-.67-.21-2.45-1.5.47-.1-.97-.34-.8-.5-1.71-1.52-.02-.09-.64-.35-1.3-.94-1.37-1.15-1.67-1.35.37-.18-.8-.33-1.41-1.47-.02.03-.74-.91-1.31-1.13-1.29-1.32-.04-.23-.93-.88-.03-.3-.64-.69-.86-1.23-.8-.71-1.76-2.29-.43-.87.28.15-1.09-1.1-.71-1.22-1.07-1.87-.6-1.18-.65-1.12-.04-.23.38.77-.59-1.16-.55-.93-1.44-2.93-.45-1.02-.43-.51-.26-.88.28.66-.49-1.41-.76-2.16-.36-.79-.53-1.41.09-.19-.87-2.32-.08-.02-.48-2.27-.32-1.2.13.5-.63-2.48-.1-.78-.45-1.2.26 1.39-.32-2.59-.54-3.21.24 1.2-.57-2.12.11-1.24-.16.81-.08-1.94-.11-1.77-.17-1.81-.17-.49-.04-1.6.21-1.71.01-.69-.08-1.12.03-.82-.13-.59.19-2.25-.01-1.75.11-1.1.15 1.02.09-1.87.1-1.23.44-2.34-.27 1.17.16-1.19.41-2.91.02.46.26-1.68.34-1.66.66-2.12-.08-.19.23-.85.46-1.89.59-1.24.21-1.15.01.73.35-1.21.12-.58.32-.88 1.01-3.15.76-1.23-.11-.21.29-.33 1.21-2.21-.1-.13.85-1.74-.03.2.78-1.57-.05-.38.7-1.27 1.99-3.07-.19.39 1.13-1.38.89-1.5-.09-.02.13.21 1.09-1.84 1.2-1.29-.04.25 1.44-2.14-.29.21.38-.39 1.73-2.07.34-.4.61-.67.25-.38 2.28-2.21.99-.91 1.23-.88-1.02.85 1.52-1.3-.7.46 2.56-2.24.88-.37.46-.53.92-.52.82-.66 1.36-.84-.16.09 2.05-1.28-.1.04 2.29-1.69.87-.07-.3.2 1.15-.74.75-.68 1.76-.8.9-.37.82-.23.78-.3.37-.29-.16.05 2.65-.76 1.2-.61 1.36-.5 1.88-.55-.47.35 2.92-.67-1.37.21.68-.27 2.57-.38 1.25-.53.19.14 1.75-.1.94-.23-.24.12 3.2-.38-2.03.18 1.88-.36 1.82-.01.56-.06.55-.01 2.95-.05-.71.05h1.21l.24-.11 2.34.27 2.07.33-1.04-.09.61-.16 2.57.33.03.23.67.01 1.59.11 2.03.6.35-.17 1.24.37 1.07.52 2.12.57.43.08.1.16.11-.04 1.81.61 1.02.27h.47l1.28.77 1.41.44 1.29.65 1.45.83.7.2 1.68.99-.76-.4.37.18 1.04.78 2.2.95-.47-.18.77.5 1.37 1.1.64.29L36-60.95l2.44 1.4-.62-.35 1.3 1.26.91.72 1 .81.98.59.06.35 1.54 1.58L42.6-56l2.14 2.35-.22-.26 1.46 1.27.31.75.39.54.51.34 1.49 1.74.95.99 1.07 1.46.16.48-.22-.27 1.18 1.82.55.51 1.61 2.59.9 1.55-.21-.8.8 1.49.49 1.05.08.3 1.2 1.81-.1.22-.21-.64 1.71 3.5-.77-1.61 1.35 2.59.59 1.59.32.87.53 1.48-.23-1.2 1.5 4.27.1.78-.26-.81.59 2.36.42 1.12-.11-.94.59 2.43.25 1.27.19.08.59 2.59L64-17.7l.43 2.4.28 1.46.02.06.01.92.42 1.97.27 2.28-.05.6.06.92.41 3.29-.08-.67-.11 2.5.12-.03.18.36-.22 2.03.04 1.12" filter="url(#a)"/><path fill="#fff" d="m-29.47-.95.11-.02.13-.02.15-.01.17-.02.2-.02.22-.02.25-.02.28-.02.3-.01.33-.02.36-.02.38-.02.41-.01.45-.02.46-.02.34-.02.4-.02.45-.02.49-.02.56-.02.6-.02.65-.01.7-.02.75-.02.79-.01.83-.02.88-.01.91-.01.94-.01.98-.01 1.01-.01 1.03-.01 1.06-.01h1.07l1.1-.01h5.61l1.14.01h1.12l1.13.01H.38l1.1.01 1.09.01 1.08.02 1.05.01 1.04.01 1.01.02.99.01.97.02.94.02.91.02.88.02.86.03.82.02.8.02.76.03.74.02.7.03.68.03.64.03.62.03.59.03.56.03.54.03.5.03.49.03.45.04.43.03.4.04.37.03.35.04.32.04.3.03.28.04.25.04.22.04 2.72.39-.3.04-.31.05-.33.04-.35.04-.35.05-.37.04-.39.05-.4.05-.42.04-.43.05-.44.05-.46.04-.47.05-.49.05-.5.05-.52.05-.54.04-.55.05-.57.05-.59.05-.6.05-.62.05-.64.04-.65.05-.67.05-.68.04-.7.05-.71.04-.73.04-.74.04-.76.04-.77.04-.78.04-.79.03-.8.03-.81.03-.82.02-.83.03-.83.02-.84.02-.85.01-.85.01-.86.01h-.85l-.86.01-.86-.01h-.86l-.85-.01-.86-.02-.85-.01-.84-.03-.84-.02-.83-.03-.82-.04-.82-.03-.8-.04-.8-.05-.78-.05-.77-.05-.75-.05-.74-.06-.73-.07-.71-.06-.69-.07-.63-.04-.62-.05-.6-.05-.6-.05-.58-.05-.57-.05-.56-.05-.54-.05-.52-.06-.51-.05-.5-.05-.47-.06-.46-.05-.45-.05-.42-.05" filter="url(#a)" transform="translate(33.72 -24.57)"/><path fill="#fff" d="m28.96-1.1-.11-.02-.12-.03-.15-.02-.17-.02-.19-.03-.22-.02-.24-.03-.27-.02-.3-.02-.32-.03-.35-.02-.38-.02-.4-.03-.43-.02-.47-.02-.33-.03-.38-.03-.44-.03-.48-.02-.55-.03-.59-.02-.64-.03-.7-.02-.74-.02-.78-.03-.83-.02-.87-.01-.91-.02-.94-.02-.98-.01-1.01-.02-1.03-.01-1.06-.01H10.5l-1.1-.01-1.11-.01H2.6l-1.14.01-1.14.01-1.13.01-1.12.01-1.11.01-1.1.01-1.08.02-1.06.02-1.04.02-1.02.02-1 .02-.97.02-.95.03-.92.02-.89.03-.87.03-.84.03-.81.03-.78.03-.75.04-.72.03-.7.04-.67.03-.64.04-.62.04-.6.03-.57.04-.54.04-.52.04-.49.05-.47.04-.45.04-.42.05-.4.04-.38.05-.35.04-.33.05-.31.05-1.97.75.33.05.34.06.35.05.38.06.38.05.4.06.42.06.43.05.45.06.46.06.48.05.49.06.51.06.53.05.54.06.56.06.57.05.6.06.61.05.63.06.65.05.67.05.69.05.7.05.73.05.74.05.75.04.77.04.79.04.81.04.81.04.83.03.85.03.85.03.87.02.88.02.88.02.89.01.9.01h.91l.91.01.91-.01h.91l.91-.01.91-.01.91-.02.9-.02.9-.03.89-.03.89-.03.87-.04.86-.04.85-.04.84-.05.82-.05.8-.06.79-.05.77-.06.74-.07.73-.06.71-.07.68-.07.66-.07.64-.08.61-.05.6-.06.58-.06.56-.05.55-.06.54-.06.52-.06.5-.06.49-.05.46-.06.45-.06.44-.06.41-.05.4-.06.37-.05" filter="url(#a)" transform="translate(-30.66 -24.89)"/><g fill="none" stroke="#000" transform="translate(33.72 -24.57)"><path stroke-linejoin="round" stroke-width="1.667" d="M-29.78-.79v-.04l.01-.02.02-.01.02-.02.04-.02.06-.01.07-.02.09-.02.11-.02.13-.02.15-.01.17-.02.2-.02.22-.02.25-.02.28-.02.3-.01.33-.02.36-.02.38-.02.41-.01.45-.02.46-.02.34-.02.4-.02.45-.02.49-.02.56-.02.6-.02.65-.01.7-.02.75-.02.79-.01.83-.02.88-.01.91-.01.94-.01.98-.01 1.01-.01 1.03-.01 1.06-.01h1.07l1.1-.01h5.61l1.14.01h1.12l1.13.01H.38l1.1.01 1.09.01 1.08.02 1.05.01 1.04.01 1.01.02.99.01.97.02.94.02.91.02.88.02.86.03.82.02.8.02.76.03.74.02.7.03.68.03.64.03.62.03.59.03.56.03.54.03.5.03.49.03.45.04.43.03.4.04.37.03.35.04.32.04.3.03.28.04.25.04.22.04.2.04.18.04.16.04.14.05.11.04.1.04.07.05.05.04.04.04.02.05" filter="url(#a)"/><path stroke-linejoin="round" stroke-width="2.222" d="m-27.27-.3.2.03.22.03.25.03.28.04.29.04.32.04.34.04.37.05.38.05.4.05.42.05.45.05.46.05.47.06.5.05.51.05.52.06.54.05.56.05.57.05.58.05.6.05.6.05.62.05.63.04.69.07.71.06.73.07.74.06.75.05.77.05.78.05.8.05.8.04.82.03.82.04.83.03.84.02.84.03.85.01.86.02.85.01h.86l.86.01.86-.01h.85l.86-.01.85-.01.85-.01.84-.02.83-.02.83-.03.82-.02.81-.03.8-.03.79-.03.78-.04.77-.04.76-.04.74-.04.73-.04.71-.04.7-.05.68-.04.67-.05.65-.05.64-.04.62-.05.6-.05.59-.05.57-.05.55-.05.54-.04.52-.05.5-.05.49-.05.47-.05.46-.04.44-.05.43-.05.42-.04.4-.05.39-.05.37-.04.35-.05.35-.04.33-.04.31-.05.3-.04.29-.04.27-.05.26-.04.24-.04.23-.04.22-.04.21-.04.19-.03.18-.04.17-.04" filter="url(#a)"/><circle cx="13.869" cy=".148" r="4.422" clip-path="url(#b)" filter="url(#a)"/><circle cx="14.179" cy="2.058" r="4.694" clip-path="url(#b)" filter="url(#a)"/><circle cx="13.969" cy="-2.187" r="4.952" clip-path="url(#b)" filter="url(#a)"/><circle cx="13.854" cy="-1.132" r="4.462" clip-path="url(#b)" filter="url(#a)"/><circle cx="14.189" cy="-1.997" r="3.71" clip-path="url(#b)" filter="url(#a)"/><circle cx="16.604" cy="1.818" r="4.982" clip-path="url(#b)" filter="url(#a)"/><circle cx="16.434" cy="1.708" r="4.694" clip-path="url(#b)" filter="url(#a)"/><circle cx="12.604" cy="-2.137" r="4.422" clip-path="url(#b)" filter="url(#a)"/><circle cx="14.854" cy=".343" r="3.12" clip-path="url(#b)" filter="url(#a)"/><circle cx="15.929" cy=".573" r="4.432" clip-path="url(#b)" filter="url(#a)"/></g><g fill="none" stroke="#000" transform="translate(-30.66 -24.89)"><path stroke-linejoin="round" stroke-width="2.222" d="m29.27-.9-.01-.02v-.03l-.01-.02-.02-.02-.03-.02-.04-.02-.05-.03-.07-.02-.08-.02-.11-.02-.12-.03-.15-.02-.17-.02-.19-.03-.22-.02-.24-.03-.27-.02-.3-.02-.32-.03-.35-.02-.38-.02-.4-.03-.43-.02-.47-.02-.33-.03-.38-.03-.44-.03-.48-.02-.55-.03-.59-.02-.64-.03-.7-.02-.74-.02-.78-.03-.83-.02-.87-.01-.91-.02-.94-.02-.98-.01-1.01-.02-1.03-.01-1.06-.01H10.5l-1.1-.01-1.11-.01H2.6l-1.14.01-1.14.01-1.13.01-1.12.01-1.11.01-1.1.01-1.08.02-1.06.02-1.04.02-1.02.02-1 .02-.97.02-.95.03-.92.02-.89.03-.87.03-.84.03-.81.03-.78.03-.75.04-.72.03-.7.04-.67.03-.64.04-.62.04-.6.03-.57.04-.54.04-.52.04-.49.05-.47.04-.45.04-.42.05-.4.04-.38.05-.35.04-.33.05-.31.05-.29.04-.27.05-.25.05-.23.05-.21.05-.18.05-.18.05-.15.05-.14.05-.12.06" filter="url(#a)"/><path stroke-linejoin="round" stroke-width="2.222" d="m27.11-.38-.17.03-.2.03-.22.04-.23.04-.26.04-.28.04-.3.05-.31.05-.34.05-.36.05-.37.05-.4.06-.41.05-.44.06-.45.06-.46.06-.49.05-.5.06-.52.06-.54.06-.55.06-.56.05-.58.06-.6.06-.61.05-.64.08-.66.07-.68.07-.71.07-.73.06-.74.07-.77.06-.79.05-.8.06-.82.05-.84.05-.85.04-.86.04-.87.04-.89.03-.89.03-.9.03-.9.02-.91.02-.91.01-.91.01h-.91l-.91.01-.91-.01h-.91l-.9-.01-.89-.01-.88-.02-.88-.02-.87-.02-.85-.03-.85-.03-.83-.03-.81-.04-.81-.04-.79-.04-.77-.04-.75-.04-.74-.05-.73-.05-.7-.05-.69-.05-.67-.05-.65-.05-.63-.06-.61-.05-.6-.06-.57-.05-.56-.06-.54-.06-.53-.05-.51-.06-.49-.06-.48-.05-.46-.06-.45-.06-.43-.05-.42-.06-.4-.06-.38-.05-.38-.06-.35-.05-.34-.06-.33-.05-.31-.06-.3-.05-.28-.05-.28-.06-.25-.05-.25-.05-.23-.05-.22-.05-.21-.05-.19-.05" filter="url(#a)"/><circle cx="-2.554" cy="-.254" r="3.22" clip-path="url(#c)" filter="url(#a)"/><circle cx="-3.529" cy="-.019" r="4.108" clip-path="url(#c)" filter="url(#a)"/><circle cx="-1.974" cy="-2.924" r="3.144" clip-path="url(#c)" filter="url(#a)"/><circle cx="-1.594" cy="1.201" r="3.484" clip-path="url(#c)" filter="url(#a)"/><circle cx=".571" cy=".936" r="3.318" clip-path="url(#c)" filter="url(#a)"/><circle cx=".941" cy="-2.384" r="4.13" clip-path="url(#c)" filter="url(#a)"/><circle cx="-1.479" cy="-1.104" r="3.116" clip-path="url(#c)" filter="url(#a)"/><circle cx="-1.784" cy=".921" r="3.34" clip-path="url(#c)" filter="url(#a)"/><circle cx="-3.529" cy="-1.584" r="3.248" clip-path="url(#c)" filter="url(#a)"/><circle cx=".226" cy="-.674" r="3.832" clip-path="url(#c)" filter="url(#a)"/></g><g fill="none" stroke="#138615" stroke-linejoin="round" stroke-width="2"><path d="m-11.48-71.89 1.08-.26h1.22l1.46.1 1.62.18 1.76.23 1.88.28 2.03.34 2.18.39 2.31.44 2.42.47 2.45.5 2.45.51 2.41.52 2.34.51 2.25.48 2.14.44 2 .39 1.85.35 1.75.34 1.69.35 1.56.38" filter="url(#a)"/><path d="m42.6-56 1.27 1.42.48.66.05.36-.32.15-.67-.04-1.03-.21-1.42-.41-1.89-.66-2.45-.99-3.03-1.35-3.62-1.72-4.19-2.06-4.8-2.39-5.59-2.79-6.52-3.29m-22.92-2.19 1.97-.36 1.34-.26 1.08-.17.97-.11.85-.1.72-.08.58-.07.42-.04.26-.02.08.03-.13.08-.39.13-.68.18-1.02.23-1.41.28-1.87.36-2.37.48-2.98.65m-17.29 7.66.49-.3 1.05-.64 1.2-.7 1.22-.68 1.16-.62 1.12-.57 1.09-.56 1.05-.54.97-.49.82-.4.61-.3.4-.2.21-.1.07-.03-.05.03-.26.11-.59.25-1.09.48-1.67.77" filter="url(#a)"/><path d="m24.36-68.03 1.14.63.82.55.41.44-.02.35-.37.29-.63.28-.88.31-1.13.33-1.45.35-1.77.38-2.13.41-2.49.42-2.89.42-3.35.4-3.87.36-4.42.34-4.98.3-5.53.27-6.08.21-6.65.16-7.25.15m1.04-5.41 1.04-.66 1.29-.61 1.27-.5 1.2-.44 1.17-.4 1.2-.4 1.26-.43 1.31-.44 1.28-.43 1.13-.37.88-.29.57-.19.25-.07h-.01l-.25.05-.51.1-.91.17m43.05 4.45.85.38.76.44.7.44.8.52.93.59 1.01.66 1.05.7 1.06.72 1.07.75 1.06.75 1 .72.92.66.78.58.63.47.43.33.23.18.01.01-.24-.18-.49-.38-.77-.59-1.1-.81-1.41-1.05-1.69-1.26" filter="url(#a)"/><path d="m31.86-64.03.77.59.67.63.48.61.2.54-.17.42-.61.3-1.08.18-1.53.05-2.01-.08-2.5-.22-3.01-.37-3.53-.53-4.08-.66-4.68-.77-5.35-.84-6.08-.91-6.87-.98-7.56-1.15m4.85-5.2.75.09 1.32.05 1.54.08 1.68.1 1.81.15 1.96.18 2.13.22 2.26.25 2.37.29 2.41.32 2.39.35 2.32.36 2.17.33 1.98.29 1.74.2 1.42.11h1.01" filter="url(#a)"/><path d="m55.47-39.45.34.79.21.6.05.4-.16.21-.36.06-.54-.07-.75-.19-.98-.36-1.23-.58-1.53-.85-1.84-1.14-2.17-1.47-2.56-1.82-2.97-2.19-3.4-2.6-3.86-3.01-4.32-3.41-4.79-3.8-5.19-4.16-5.43-4.52m-21.58-4.93 1.53-.18.38-.01.17.1-.02.24-.33.38-.78.54-1.28.7-1.86.89-2.44 1.09-3.05 1.31-3.69 1.58-4.46 1.86-5.3 2.15-6.07 2.39" filter="url(#a)"/><path d="m55.47-39.45.25.8-.05.63-.39.48-.75.34-1.11.26-1.44.2-1.8.17-2.2.09-2.62-.01-3.07-.15-3.54-.32-4.01-.48-4.51-.67-5.02-.86-5.54-1.05-6.07-1.25L7-42.7l-7.09-1.63-7.55-1.84-7.97-2.1-8.41-2.38-9.04-2.53m3.79-12.17 1.14-.71 1.37-.7 1.55-.65 1.59-.58 1.56-.52 1.53-.48 1.53-.48 1.57-.48 1.6-.49 1.59-.47 1.45-.43 1.21-.34.85-.25.45-.17.05-.13m28.6 2.11 1.33.45.76.31.44.31.2.36-.05.38-.41.37-.86.33-1.41.27-2 .2-2.6.14-3.15.12-3.64.1-4.11.06h-4.61l-5.19-.04-5.88-.06-6.72-.04m17.92-6.27 1.81-.01 1.03.04 1.04.07 1.21.11 1.29.13 1.23.14 1.08.11.92.1.78.08.61.07.42.05.2.02h-.06l-.37-.04-.7-.07-.97-.09-1.25-.16" filter="url(#a)"/><path d="m30.13-64.8 1.18.55.28.28-.07.25-.33.26-.67.2-1.12.09-1.68-.07-2.3-.28-2.98-.5-3.67-.72-4.41-.95-5.2-1.21-6.02-1.47-6.84-1.7m36.33 6.54 1.15.87 1.17.84 1.22.86 1.1.8.92.7.71.56.51.42.25.23-.06-.01-.44-.29-.85-.6-1.23-.9-1.53-1.16-1.7-1.33m-51.54-8.04 1.31-.3 1.12-.17 1.13-.18 1.22-.21 1.36-.24 1.48-.24 1.5-.23 1.41-.21 1.25-.17 1.06-.15.84-.12.59-.09.28-.08-.03-.04h-.41l-.99.08m55.43 26.59.05.26.18.7-.04.72-.44.51-.95.15-1.5-.22-2.05-.57-2.56-.86-3.09-1.16-3.63-1.46-4.2-1.77-4.8-2.07-5.43-2.37-6.12-2.65-6.83-2.92-7.5-3.26-7.86-3.72" filter="url(#a)"/><path d="m30.13-64.8 1.37.64.85.54.92.69 1.09.83 1.22.93 1.26.97 1.23.97 1.15.92 1.05.86.94.78.82.68.69.58.56.47.43.36.31.25.17.14.05.04-.09-.08-.25-.2-.42-.37-.64-.57-.9-.8-1.23-1.07m-22.55-13 .24.14.64.21.86.27.93.3.92.34.89.36.81.36.69.34.48.28.21.18-.09.07-.4-.04-.68-.13-.95-.21-1.22-.29-1.5-.36-1.79-.46-2.09-.55-2.37-.64-2.6-.75-2.86-.91m-36.4 5.64.96-.64 1.03-.51.85-.35.62-.22.48-.12.39-.06.37-.01.32.07.22.16.02.31-.23.48-.52.66-.81.85-1.1 1.02-1.34 1.2-1.6 1.37-1.86 1.56-2.17 1.77-2.52 2-2.9 2.23-3.25 2.41-3.53 2.52-3.83 2.67" filter="url(#a)"/><path d="m-28.12-66.09 1.11-.64 1.47-.54 1.58-.4 1.65-.3 1.78-.26 1.96-.25 2.19-.28 2.39-.3 2.52-.33 2.57-.31 2.53-.28 2.46-.23 2.37-.19 2.3-.15 2.28-.13 2.26-.11 2.2-.12 1.98-.13 1.64-.18 1.24-.26m-35.26 2.77 2.16-.66 1.84-.55 1.75-.43 1.7-.31 1.67-.24 1.65-.2 1.68-.19 1.71-.2 1.75-.2 1.73-.2 1.64-.19 1.51-.15 1.35-.14 1.17-.12.99-.11.83-.1.69-.09.47-.08L3.3-73" filter="url(#a)"/><path d="m-7.35-72.61.52-.01.74-.08.65-.08.63-.06.59-.01.49.04.29.1.06.15-.19.21-.44.28-.69.33-.98.41-1.32.49-1.71.57-2.11.66-2.48.74-2.86.81-3.25.89-3.76 1.01-4.33 1.21m43.11-5.94 1.53.46 1.04.45 1.03.53 1.24.67 1.47.8 1.66.9 1.8 1 1.89 1.09 1.94 1.14 1.92 1.15 1.83 1.11 1.67 1.03 1.51.94 1.35.85 1.23.77 1.14.7 1.01.6.83.48.7.46m2.12 1.85 1.04 1.04.7.85.68.81.76.88.78.92.74.9.64.81.52.71.41.61.33.53.24.43.14.31-.01.12-.17-.08-.37-.32-.55-.54-.73-.77-.92-.98-1.11-1.23-1.34-1.49-1.6-1.78-1.9-2.11-2.27-2.52" filter="url(#a)"/><path d="m-22.9-68.71 2.29-.6 2.25-.38 2.44-.17 2.64.03 2.84.19 3.04.29 3.26.36 3.51.38 3.74.41 3.87.41 3.94.42 3.95.46 3.97.5 4.03.56 3.99.62m-43.14-5.55 1.63-.39.89-.2 1.1-.21 1.35-.21 1.45-.2 1.44-.16 1.38-.13 1.29-.11 1.22-.1 1.13-.1 1.07-.09 1.01-.09.94-.07.85-.07.71-.05.53-.04.3-.04.08-.03-.14-.02H.96l-1.02.01H-1.4" filter="url(#a)"/><path d="m30.13-64.8 1.28.58.58.38.46.42.45.49.38.52.23.48-.01.42-.28.33-.58.24-.88.13-1.19.02-1.52-.09-1.86-.2-2.23-.32-2.61-.42-2.97-.5-3.34-.59-3.71-.68-4.06-.79-4.43-.92L-1-66.36l-5.34-1.18-5.97-1.25" filter="url(#a)"/><path d="m17.73-70.32.43.16.68.32 1.06.49 1.39.63 1.6.74 1.71.82 1.78.89 1.76.91 1.69.89 1.52.8 1.28.68.97.5.6.29.18.06-.17-.16m-68.29-.25 1.52-.92 1.36-.72 1.43-.64 1.46-.57 1.53-.53 1.63-.55 1.74-.58 1.82-.57 1.84-.55 1.82-.52 1.8-.48 1.78-.46 1.79-.46 1.79-.46 1.76-.45 1.64-.43 1.46-.39 1.23-.34 1-.27.79-.23.56-.18.19-.15" filter="url(#a)"/><path d="m-2.72-73.06.55-.01.59.08.33.18-.08.3-.48.43-.85.57-1.26.73-1.78.89-2.36 1.05-3 1.24-3.62 1.45-4.24 1.66-4.81 1.82-5.34 1.89-5.9 1.93m62.77-7.5.94.57.51.32.64.4.83.49.88.52.82.5.74.47.63.43.52.36.37.27.14.13-.14-.04-.46-.24-.75-.42-1.01-.62-1.29-.83-1.78-1.13m29.25 31.96-.29-.36-.1.64-.44.61-.91.3-1.39-.03-1.9-.32-2.41-.61-2.93-.95-3.49-1.32-4.04-1.7-4.63-2.06-5.25-2.41-5.92-2.71-6.61-3.02-7.31-3.35-7.95-3.76-8.47-4.21-8.92-4.65" filter="url(#a)"/><path d="m59.81-30.64-22.99-8.62-26.33-11.7-7.95-6.41 5.66-1.34 10.24 1.7 8.72 2.94 4.45 2.9-.07 1.95-2.91.64-3.2-.38-2.26-.88-3.03-1.28L13-53.66 1.44-58.47l-9.53-6.54 2.08-5.39 16.93-1.81" filter="url(#a)"/><path d="m6.49-72.64 7.91 19.95-16.28 1.47-5.89-3.88 1.82-5.1 2.88-4.02 2.14-1.63 2.3 1.14 2.64 3.32 1.67 4.27-.13 3.82-.32 2.45 3.15 1.08 8.98.64 12.93 1.64 11.18 3.05 1.54-.74-22.83-24.33" filter="url(#a)"/><path d="M62.78-21.77 24.59-50.39l-7.9-4.08 4.95 3.12.57 2.03-7.65-1.02L4-53.24l-6.55-2.88.91-1.28 7.11 1 8.87 2.86 5.9 3.24.59 1.88-3.3-.42-2.88-2.33 2.12-2.81 9.18-1.64 12.99.7 7.35 3.03" filter="url(#a)"/><path d="m14.54-71.41-.47.51-3.92.18-3.4.93L5-68.11l-.08 2.43.45 3.18L5-58.78l-1.07 3.8.32 3.39 3.99 2.7 7.2 1.71 6.32.08.78-2.52-5.21-5.63-6.71-7.56-6.41-6.73-11.8-2.95" filter="url(#a)"/><path d="m13.3-71.78-1.9 3.41-14.54 1.83-9.59 1.14-2.19 1.37 2.97 2.48 5.62 3.45 6.27 3.5 5.47 2.68 3.82 1.45 2.09.4.8-.15-.04-.08-.84.38-1.85.75-2.57.51-1.77-.46 1.92-1.38 8.87-.42 16.6 3.81 17.97 8.38 4.47-1.41" filter="url(#a)"/><path d="m-14.73-71.24-1.49 1.95 6.25 2.21 7 3.27 6.58 4.76 7.7 4.8 7.77 2.86 4.93.01-.08-2.15-5.13-2.62-8.37-1.51-8.9.17-6.76 1.3-2.82 1.23 1.57.26 5.2-.64 6.92-.4 4.41.99-6.34 1.89-24.36.16-22.29-3" filter="url(#a)"/><path d="m-28.12-66.09 16.05-.9 18.74 2.27 8.8 2.31.87.92-1.46-.12-1.09-.42-.85-.16-.89.59v1.77l2.21 3.12 4.58 4.11 5.2 4.16 3.05 3.03-1.04 1-4.61-1.24-5.07-2.83-1.64-3.3 3.39-2.75 5.56-2.05 1.19-2.31-9.24-3.51-21.4-2.36-34.95 7.27" filter="url(#a)"/><path d="m-37.48-60.09 48.28 3.27 12.56-2.87 5.21-.32 1.53 1.05-2.62.67-4.98-.06-4.32-.52-1.75-.65.66-.41 1.69.22 1.67.87 2.2 1.35 4.45 2.04 2.77.72-24.42-18" filter="url(#a)"/><path d="M62.78-21.77 46.2-44.61l-14.53-9.91-10.98-4.11-5.72-1.43.23.17 5.44 1.84 7.96 3.54 6.68 4.3 2.1 3.4-3.47 1.36-6.03.22-1.78 1.72 7.42 3.72 7.8-2.23-19.65-27.22" filter="url(#a)"/><path d="m22.95-68.47-21.06-.22 3.99 3.83 10.39 4.93 6.68 4.43 3.04 3.5 2.61 2.49 3.47 1.27 3.2-.24 1.15-1.66-1.46-2.43-2.96-2.1-2.4-.81-.2.73 1.98 1.47 2.13.7-.97-1.37-6.71-3.6L13-62.12l-16.1-3.89-13.74-2.08-11.28 2" filter="url(#a)"/><path d="m-10.04-72.28 29.57 12.86 6.66 7.78-2.01 1.48-4.51-1.77-5.25-3.08-4.65-3.08-3.89-2.13L1.3-61l-6.66.29-8.28.77-7.26.94-2.72 1.48 4.73 2.5 13.12 2.78 17.89-.26 10.3-7.84-9.47-11.27" filter="url(#a)"/><path d="m20.18-69.51-35.32 6.31-1.93 1.66 14.15 1.62 16.9 3.05 12.76 3.22 6.82 2.01 1.58.25-2.27-1.42-4.53-2.62-5.05-3.04-3.99-2.54-2.06-1.3-.39.2v1.34l-1.04 1.61-2.61.99-3.1.01-1.21-.54 2.51-.12 5.8.77 6.44.68 5.26-1.06 15.62 4.52" filter="url(#a)"/><path d="m27.1-66.55-4.49-.07-.11 2.73 4.38 4.77 3.45 4.4-1.35 1.94-6.78-.91-9.98-2.51-9.75-2.34-6.74-1.1-2.73.15.55.66 2.07.26 1.9-.59.82-1.36-.2-1.62-.44-1.31.21-.55 1.5.29 2.96.67 4.93.45 9.05.7 16.01 4.59 21.62 15.61" filter="url(#a)"/><path d="m-36.1-61.14 42.9 4.46 13.13.07 8.39.83 3.99.89-1.52.26-5.74-.63-7.01-1.44-5.5-1.96-2.58-2.08.25-1.79 2.18-1.19 3.21-.4 3.74.47 4.01 1.29 3.91 1.76 2.94 1.52.87.4-1.87-1.26-4.24-2.68-5.48-3.15-5.89-2.57-7.05-1.14-12.1 1.6-30.54 6.74" filter="url(#a)"/><path d="m-23.89-68.17 7.13 3.69-1.49 7.22 7.58 4.08 9.93 1.27 6 .22.73.21-2.72.31-3.06.27-.43.07 3.27-.43 5.43-1.35 4.35-2.48.62-3.11-3.5-2.41-6.03-.24-7.06 2.43-8.85 3.78-12.77 2.43-13.89-1.17-2.27-4.1" filter="url(#a)"/><path d="m62.36-22.89-21.65-20.6-25.28-11.73L3.16-58.8l1.43.52 6.93 1.23 4.27.23-1.66-.64-5.74-.17-5.36 1.56-1.07 3.58 4.19 4.63 6.96 3.92 5.59 1.6 1.5-1.41-1.59-3.77-.71-4.45 3.4-3.39 6.13-2.21 2.89-3.72-1.23-4.29" filter="url(#a)"/><path d="m21.2-69.24-5.97 2.11-15.98 1.25-6.68 2.08 5.34 2.63 11.91 2.72 12.04 2.21 8.33 1.18 3.91.02.77-.87-.52-1.22-.48-1.01-.16-.49-.58-.04-2.37.01-5.47-.45-9.04-1.14-11.21-1.42-9.58-.8-2.14.58 10.93 2.05L28.1-56.3l17.88 3.66" filter="url(#a)"/><path d="m-48.15-49.97 42.75-7.81 4-6.1-.73-2.43.17.25-.11 1.24-1.68.98-3.22.29-3.9-.21-3.7-.32-2.74-.24-1.15-.28.8-.54 2.46-.86 3.11-.88 2.47-.46 1.14.32L-8-66l1.77 1.21 5.15.83 9.05.39 10.82.77 8.44 2.09-.04 1.22L.63-73.13" filter="url(#a)"/><path d="m-32.13-63.79 37.5 4.8 19.49 7.03 5.05 1.48-1.73-2.53-2.65-4.01-.54-3.32 1.32-1.79.71-.81-2.62-.82-7.21-1.12-10.56-.72-9.38.83-.05 2.99 19.4 5.92L55.96-38.4" filter="url(#a)"/><path d="m-40.92-57.48 23.73-1.32 11.47 6.2 6.58 1.66.24-2.3-3.29-3.46-3.44-3-1.67-2.03.36-1.09 1.51-.32 1.62.32 1.31.99 1.44 1.64 2.39 2.11 3.8 2.07 4.97 1.28 5.02-.19 3.33-2.03.16-3.58-1.97-3.62 1.42-.49 12.66 6.51 23.26 16.44" filter="url(#a)"/><path d="m-46.42-52.04 59.95 1.38 19.43-1.42 3.06-3.98-.74-3.05.3-.52 2.06 1.69 2.72 2.46 1.88 1.78.01.37-2.3-.68-4.62-.65-6.56.57-7.18 2.18-5.51 2.46-3.45-.96-10.11-8.31-31.49-6.83" filter="url(#a)"/><path d="m-10.23-72.42 15.54 3.15 7.86 2.44-1.33.65-3.51.71-.57 1.78 2.81 2.89 3.31 3.14.72 2.22-2.74.47-4.6-1.31-3.8-2.39-1.03-2.51 2.17-1.8 4.41-.64 5.09.48 4.3 1.16 2.58 1.17.73.7-.55.25-1.68.1-4.95-.68-8.64-3.29 14.29-5.78" filter="url(#a)"/><path d="m36-60.95-15.87 7.86-24.65-1.02-10.83-4.07-.81-3.13 3.32-.72 4.35 1.23 4.52 2.08 4.84 2.13 5.4 1.89 5.68 1.66 5.2 1.41 4.14 1.09 3.2.79 3.19.66 4.14.85 5.21 1.31 5.18 1.69 3.14 1.49-1.23.31-7.96-1.77L19.52-49l-24.95-4.34-25.66-2.73-5.93-4.55" filter="url(#a)"/><path d="m-46.42-52.04 35.47-6.37 26.08 1.85 8.77-.18-.68-2.36-1.85-2.51.67-1.35 3.14.14 4.18 1.47 3.73 2.43 2.1 2.94-.32 2.88-2.95 2.26-4.99 1.13-5.76-.26-5.38-1.48-4.83-1.98-5.38-1.28-6.98.66-7.01 3.12-1.85 4.68 1.67 3.83-43.47-2.56" filter="url(#a)"/><path d="m38.44-59.55-29.47-6.7-7.95.98 3.23 3.05 2.65 1.59-.83-.34-1.67-.75.22.47 2.78 2.19 4.65 3.24 5.51 3.03 5.33 1.74 3.85.1.82-1.38-3.65-2.49-8.6-2.94-10.45-.94 1.54 6.38 51.47 17.5" filter="url(#a)"/><path d="m-22.9-68.71 42.51 11.4 1.22-.7-13.75-1.42-11.75.65-2.52 2.15 5.47 2.36 8.29 1.47 6.81.1 3.9-1.05 1.27-1.72-1.15-2.13-3.56-2.37-4.68-2.05-2.56-.64 2.21 1.35 4.6 1.62 1.35-2.16 15.37-2.95" filter="url(#a)"/><path d="m-41.95-56.61 54.51 8.17 3.22.62-10.04-4.94L1-58.28l2.29-3.56 5.52-1.24 5.79.38 4.82.92 3.54.49 2.54-.25 2.39-.52h2.98l3.31.78L37.02-60l2.7 1.85L42.6-56" filter="url(#a)"/><path d="m-45.22-53.49 14.81-8.55 4.53-.95 3.28 1.97 10.02 2.32 15.79 2.26 15.75 1.81 10.71.54 4.34-1.15-.13-2.32-1.73-2.39-1.19-1.49.44.1 1.6 1.53-2.94-.32-24.61-12.6" filter="url(#a)"/><path d="m18.16-70.24 4.88 6.57-1.2 4.02-5.34-.67-4.55-1.38-1.39.05 2.01 1.66 3.72 2.44 3 2.24.5 1.27-2.47-.09-4.75-1.44-5.61-2.37-4.68-2.64-2.25-2.2.66-1.16 2.39.11 1.6 1.05-1.69.95-4.88-.41-2.45-1.61 12.15 1.03 39.38 11.81" filter="url(#a)"/><path d="m32.33-63.85-34.06 8.92-5.42-.56-5.09-3.69-4.43-3.57-1.93-2.11 1.57-.58 5.61.45 9.2.94 11.06 1.07 10.54 1.08 8.18 1.07 5.25 1.04 2.9.93 1.24.6-.8-.33-4.58-2.45-8.98-5.3-4.33-3.74" filter="url(#a)"/><path d="m-40.72-57.49 28.26-7.96 9.59-1.06 4.6.51 6.3 1.5 7.73 2.44 6.96 2.55 4.39 1.53 1.28-.01-1.16-1.29-2.11-1.76-1.58-1.31-.21-.22.93 1.09.73 2.13-1.46 2.45-5.27 1.89-9.01.53-10.22-1.15-6.96-2.51.53-2.88 9.36-1.69 15.54 1.22 17.36 6.29 22.38 18.91" filter="url(#a)"/><path d="m46.29-51.89-20.47-4.14-12.12-2.48 1.42-1.38 4.9-.09 2.91 1.32-.16 1.94-2.15 1.09-1.99-.64-.02-1.75 2.03-1.27 1.67-.03-2.91-.07-11.87-2.34-21.65-3.06-24.24 5.07" filter="url(#a)"/><path d="m22.95-68.47-25.74 1.28-8.48 1.01-3.88.54.91-.09h4.98l7.41 1.07 8.56 2.74 8.49 4.15 6.79 4.34 3.2 2.91-1.52.33-5.94-2.28-8.78-3.69-9.51-3.27-7.95-1.2-4.19 1.51.23 3.4.11 2.93-11.78-.04-21.33-.28" filter="url(#a)"/><path d="M14.54-71.41-5.93-53.67l.14 4.82-.14-1.66 3.48-3.23 6.13-2.5 5.55-1 4 .48 3.48 1.51 3.43 1.8 1.82 1.18-2.36-.07-7.6-1.24-10.76-1.53-9.38-.93-4.27-.25.68-.59 3.08-2.16 10.31-3.33 36.16 2.47" filter="url(#a)"/><path d="m44.74-53.65-10.93-.34-6.22-.19 1.76.74.49-.65-3.56-2.43-4.9-2.93-2.92-2.04-.12-.72.85.05-.88-.1-4.18-.68-6.85-.96-6.8-.32-3.5 1.11 1.27 2.21 2.96.8-2.49-4.61-.33-8.42" filter="url(#a)"/><path d="M54.88-40.14 44.31-50.22l-11.56-6.9-10.52-2.43-7.18.56-2.31 1.58.83 1.06.83.11-1.09-.58-2.65-1.13-2.04-1.59 1.19-1.44 5.6-.04 8.57 2.07 7.68 2.29 2.31-2.06.03-3.71M-4.39-72.87l1.57 11.94 7.35 6.46 3.29-.2 1.75-1.82.94-.62.68.88.54 1.28-.14.31-1.34-1.34-2.3-2.64-2.33-2.9-1.51-2.05-.52-.55-.12.88-.57 1.59-1.52 1.28-2.17.2-1.97-.98-1.41-1.56-2.03-1.45-4.5-1.25-6.12-1.55-3.25-1.77-3.04.26" filter="url(#a)"/><path d="M56.04-38.1 18.27-53.87l-6.75.88 8 3.14 5.14.6-2.83-2.61-7.75-4.34-7.66-4.08-4.1-2.51.65-.53 4.56 1.07 6.09 1.83 4.43 1.58.01.59-5.19-.47-8.62-.81-7.44-.05 5.72 2.62 48.33 10.62" filter="url(#a)"/><path d="m-22.74-68.76-9.9 8.44 7.5 2.15 14.93 1.7 15.24.58 11.48-.81 6.38-1.79 1.43-2.31-2.65-2.37-5.31-1.84-6.13-.62-4.75 1.19-1.04 3.07 4.34 4.2 8.93 3.61 8.54.49.37-4.88-10.57-9.25-7.42-5.36" filter="url(#a)"/><path d="m-28.97-65.55 51.4 15.97 8.68-1.1-3.96-5.61-3.1-2.66-.13 1.21 1.21 2.89.79 2.33-1.11.73-3.9-.79-5.41-1.55-2.82-1.57 4.08-1.1 11.08.34 13.63 4.23 10.35 7.44" filter="url(#a)"/><path d="m-41.74-56.64 36.89-1.98 20.55 2.8 3.24.51-5.73.2-6.87.99-3.63 1.27.25.6 2.59-.53 2.39-1.46-.78-2.03L.83-58.4l-11.37-1.31-11.36.84-1.99 4.09 20.42 9.3 65.83 22.59m2.38 10.03.62 3.28.9 2.54.98 2.37.76 2.31.63 2.28.78 2.26 1.08 2.23 1.3 2.21L73 8.79l.84 2.15.3 2.12-.2 2.1-.49 2.1-.52 2.1-.37 2.09-.1 2.08.18 2.04.42 2 .62 1.97.78 1.95.85 1.97.76 1.98.49 2.01.06 2-.4 1.98-.7 1.91-.68 1.81-.35 1.7.04 1.6.17 1.53-.16 1.46-.82 1.44-1.64 1.54-3.16 1.9" filter="url(#a)"/><path d="m64.74-12.86.58 3.29.62 2.54.98 2.37.91 2.32.41 2.29-.14 2.26-.44 2.24-.48 2.21-.34 2.18-.15 2.15v2.12l.09 2.11.09 2.11.03 2.1-.03 2.09-.09 2.08-.14 2.04-.17 2-.22 1.99-.27 1.97-.36 1.97-.48 1.98-.64 2-.84 1.99-1.07 1.95-1.32 1.88-1.52 1.8-1.62 1.71-1.58 1.62-1.42 1.56-1.22 1.52-1.07 1.5-1.06 1.51-1.17 1.49-1.3 1.41-1.25 1.17-1.32.95" filter="url(#a)"/><path d="m64.74-12.86.46 3.27.24 2.52.14 2.35.07 2.3v2.27l-.05 2.24-.1 2.22-.14 2.2-.2 2.17-.25 2.13-.31 2.1-.37 2.09-.44 2.08-.49 2.1-.55 2.09-.6 2.08-.63 2.04-.67 1.98-.72 1.94-.76 1.9-.84 1.92-.93 1.96-1.04 2.04-1.15 2.1-1.22 2.12-1.27 2.02-1.28 1.85-1.35 1.75m-51.9-120.1-2.27.16-2.36.2-2.05.21-2.22.24-2.48.3-2.57.37-2.48.47-2.35.55-2.31.64-2.4.7-2.58.75-2.78.8-2.95.86-3.09.91-3.24.98-3.46 1.06-3.75 1.13-4.11 1.21-4.4 1.28-4.49 1.32-4.37 1.37-4.07 1.41-3.74 1.44-3.59 1.48-3.72 1.51-4.14 1.55-4.71 1.59-5.25 1.64-5.52 1.7-5.34 1.78-4.7 1.86-4 1.9-3.95 1.85-4.85 1.71-4.73 1.69" filter="url(#a)"/><path d="m-1.61-73.13-1.82.15-2.11.21-1.87.21-1.76.23-1.83.29-2.02.36-2.23.45-2.34.55-2.37.62-2.28.7-2.18.74-2.13.78-2.16.84-2.28.88-2.43.95-2.59 1.03-2.69 1.11-2.74 1.2-2.74 1.27-2.69 1.32-2.63 1.35-2.57 1.38-2.53 1.41-2.49 1.48-2.43 1.51-2.28 1.46-2.24 1.33-2.87 1.42" filter="url(#a)"/><path d="m-2.72-73.06-2.99.29-2.03.22-1.77.22-1.96.28-2.29.37-2.6.46-2.77.56-2.81.64-2.71.7-2.53.76-2.35.79-2.24.85-2.23.9-2.34.97-2.55 1.05-2.77 1.13-2.98 1.2-3.14 1.28-3.25 1.32-3.37 1.36-3.5 1.4-3.59 1.43-3.63 1.47-3.6 1.51-3.54 1.53-3.54 1.56-3.67 1.6-3.9 1.65-4.16 1.74-4.59 1.98-5.16 2.44" filter="url(#a)"/><path d="m-2.72-73.06-2.94.29-2.32.22-2.12.22-2.14.28-2.34.37-2.58.47-2.71.56-2.68.64-2.54.7-2.4.76-2.31.8-2.31.84-2.31.91-2.29.97-2.22 1.06-2.18 1.13-2.17 1.2-2.25 1.28-2.43 1.32-2.69 1.37-3.02 1.4-3.39 1.44-3.7 1.47-3.9 1.51-3.95 1.53-3.86 1.57-3.75 1.62-3.71 1.67-3.78 1.78-3.93 1.92-4.08 2.09-4.3 1.92" filter="url(#a)"/><path d="m-4.39-72.87-3.21.28-2.74.36-2.22.42-2.03.47-2.01.52-2.04.57-2.12.64-2.21.69-2.28.77-2.33.84-2.39.9-2.46.98-2.59 1.02-2.76 1.06-2.9 1.09-2.96 1.12-2.92 1.15-2.84 1.21-2.81 1.3-2.92 1.4-3.16 1.51-3.44 1.62-3.58 1.68-3.51 1.69-3.22 1.64-2.77 1.55-2.19 1.44-1.67 1.34-2.62 1.14" filter="url(#a)"/><path d="m-4.39-72.87-3.11.28-2.9.36-3.01.42-2.77.48-2.37.52-2.17.58-2.29.64-2.55.7-2.74.77-2.76.85-2.63.91-2.48.98-2.44 1.03-2.58 1.06-2.8 1.1-3.01 1.13-3.09 1.17-3 1.24-2.81 1.32-2.64 1.42-2.6 1.51-2.73 1.6-3.01 1.65-3.37 1.66-3.78 1.65-4.23 1.63-4.71 1.65-5.15 1.76-5.28 1.96-4.64 2.19-2.93 2.22-1.56 1.79" filter="url(#a)"/><path d="m-7.59-72.49-1.48.13-2.18.26-2.35.37-2.45.48-2.52.58-2.49.66-2.51.72-2.69.77-2.99.81-3.36.86-3.71.91-4.04.98-4.39 1.07-4.71 1.14-4.9 1.22-4.82 1.28-4.45 1.33-3.89 1.38-3.42 1.41-3.25 1.44-3.45 1.48-3.85 1.51-4.22 1.55-4.38 1.6-4.26 1.64-3.98 1.7-3.66 1.78-3.38 1.84-3.26 1.88-3.46 1.86-4.41 1.81-6.61 1.87-10.21 2.2" filter="url(#a)"/><path d="m-10.04-72.28-1.91.44-2.19.49-2.17.52-2.16.57-2.21.64-2.3.7-2.48.76-2.76.84-3.08.91-3.37.98-3.56 1.03-3.6 1.06-3.53 1.09-3.37 1.11-3.16 1.14-2.94 1.2-2.77 1.28-2.77 1.39-2.99 1.52-3.39 1.62-3.79 1.7-3.99 1.7-3.87 1.66-3.48 1.54-2.7 1.47-1.8 1.46" filter="url(#a)"/><path d="m-10.04-72.28-1.48.45-1.83.49-1.35.53-1.05.58-1.06.65-1.21.72-1.33.78-1.35.86-1.29.93-1.17 1-1.03 1.04-.89 1.08-.77 1.11-.72 1.15-.76 1.2-.91 1.27-1.13 1.35-1.35 1.44-1.46 1.52-1.4 1.59-1.13 1.63-.75 1.67-.29 1.68.19 1.71.68 1.76 1.19 1.83 1.71 1.92 2.16 1.98 2.37 2.03 2.18 2.03 1.54 2.02.6 2.01-.14 1.97.02 1.84 1.32 1.61 2.36 1.8" filter="url(#a)"/><path d="m-10.23-72.42-2.54.63-2.12.48-2.5.58-2.64.69-2.58.75-2.47.77-2.3.81-2.05.85-1.83.9-1.75.98-1.87 1.05-2.21 1.15-2.66 1.22-3.13 1.29-3.47 1.33-3.65 1.37-3.61 1.4-3.39 1.44-3.1 1.47-2.82 1.5-2.65 1.54-2.59 1.58-2.65 1.62-2.8 1.68-3.04 1.78-3.22 1.88-3.27 1.95-3.47 1.84-3.59 1.51" filter="url(#a)"/><path d="m-10.23-72.42-2.41.62-1.66.48-1.85.57-1.98.68-1.91.74-1.72.77-1.54.79-1.41.82-1.32.88-1.29.95-1.3 1.03-1.34 1.12-1.37 1.21-1.35 1.28-1.31 1.32-1.28 1.34-1.25 1.37-1.27 1.41-1.24 1.46-1.12 1.51-.85 1.45-.47 1.31-.06 1.41" filter="url(#a)"/><path d="m-14.05-71.51-.61.22-2.14.54-2.48.71-2.24.77-1.96.79-1.81.81-1.81.86-1.89.91-2.01.99-2.11 1.08-2.17 1.16-2.19 1.23-2.16 1.3-2.08 1.34-2 1.39-1.91 1.41-1.85 1.45-1.79 1.49-1.76 1.52-1.74 1.57-1.74 1.6-1.74 1.66-1.76 1.72-1.75 1.77-1.7 1.82-1.58 1.86-1.43 1.88-1.34 1.89-1.38 1.95-1.57 2.07-1.79 2.27L-72.3-27l-.93 2.29" filter="url(#a)"/><path d="m-13.36-71.45-3.05.56-3.45.8-3.26.8-3.12.78-3.13.78-3.16.83-3.05.88-2.79.95-2.57 1.04-2.52 1.13-2.74 1.21-3.17 1.29-3.7 1.32-4.17 1.35-4.53 1.37-4.77 1.41-4.89 1.46-4.93 1.5-5.09 1.49-5.75 1.51-7.03 1.75-8.85 2.47" filter="url(#a)"/><path d="m-16.28-70.78-2.11.47-2.24.7-2.41.74-2.66.79-2.76.87-2.63.94-2.36 1.02-2.13 1.07-2.08 1.09-2.2 1.12-2.41 1.16-2.59 1.2-2.72 1.28-2.76 1.36-2.76 1.45-2.7 1.54-2.62 1.6-2.51 1.64-2.44 1.67-2.49 1.7-2.66 1.74-3 1.78-3.35 1.84-3.58 1.91-3.57 1.97-3.32 2.01-2.96 2.01-2.66 2.01-2.57 1.98-2.64 1.96-2.68 1.95-2.54 1.97-2.18 2.06-1.77 2.24-1.67 2.47-2.45 2.65-4.38 2.61" filter="url(#a)"/><path d="m-16.28-70.78-2.32.47-2.37.69-1.91.74-1.76.79-1.82.86-1.93.94-2.02 1.01-2.07 1.07-2.06 1.09-2.03 1.11-1.99 1.14-1.97 1.19-1.97 1.26-1.98 1.35-2 1.45-1.98 1.53-1.92 1.59-1.85 1.65-1.82 1.66-1.84 1.68-1.94 1.71-2.12 1.75-2.31 1.83-2.43 1.91-2.43 1.99-2.29 2.03-2.09 2.02-1.92 2.02-1.85 2-1.85 1.97-1.79 1.83-1.59 1.61-1.1 1.79" filter="url(#a)"/><path d="m-15.81-71.13-3.08 1.03-2.68.88-2.58.78-2.53.79-2.37.83-2.14.91-1.96.98-1.89 1.07-1.93 1.17-2.06 1.24-2.24 1.3-2.48 1.35-2.74 1.38-2.98 1.41-3.1 1.44-3.04 1.48-2.82 1.52-2.48 1.55-2.2 1.59-2.08 1.64-2.18 1.71-2.39 1.77-2.55 1.83-2.49 1.86-2.21 1.85-1.93 1.83-2.08 1.84-2.72 1.87-3.2 1.7" filter="url(#a)"/><path d="m-15.81-71.13-3.09 1.03-2.58.88-2.21.78-2.07.79-2.03.84-2.05.91-2.07.98-2.11 1.08-2.13 1.16-2.16 1.25-2.19 1.3-2.24 1.35-2.29 1.38-2.32 1.42-2.27 1.44-2.15 1.48-1.96 1.52-1.72 1.56-1.52 1.6-1.39 1.65-1.34 1.71-1.37 1.77-1.43 1.83-1.49 1.85-1.57 1.86-1.72 1.87-1.97 1.9-2.28 2.02-2.44 2.32-2.29 3.1" filter="url(#a)"/><path d="m-19.05-70.08-.73.97-1.63.72-1.54.74-1.51.83-1.53.9-1.55.98-1.56 1.07-1.52 1.17-1.39 1.24-1.19 1.31-.98 1.35-.82 1.37-.78 1.41-.8 1.44-.83 1.47-.79 1.51-.62 1.55-.37 1.58-.09 1.64.12 1.7.22 1.77.23 1.84.27 1.86.39 1.85.43 1.8.28 1.86.88 2.18M64.71-13.84l-.24 1.82-1.14 2.4-1.8 2.41-2.16 2.34-1.95 2.3L56.23-.3l-.28 2.23.31 2.22.44 2.19.19 2.17-.22 2.12-.63 2.1-.96 2.07-1.21 2.07-1.36 2.09-1.47 2.1-1.51 2.1-1.59 2.05-1.8 1.98-2.13 1.9-2.49 1.83-2.63 1.83-2.49 1.89-2.05 1.96-.99 2.17m31.35-52.61.43 1.83.67 2.4.62 2.41.39 2.35.18 2.3.08 2.27.08 2.24.15 2.22.22 2.19.25 2.17.19 2.13.07 2.09-.11 2.08-.29 2.08-.42 2.09-.5 2.1-.48 2.09-.43 2.05-.34 1.98-.31 1.91-.38 1.86-.55 1.86-.77 1.92-.95 2.03-1.03 2.2-1.01 2.48M-22.9-68.71l-1.18.39-2.21.68-2.81.84-3.01.91-2.98.99-3.12 1.09-3.47 1.18-3.84 1.27-3.94 1.32-3.61 1.36-2.92 1.39-2.11 1.42-1.55 1.46-1.44 1.49-1.84 1.52-2.59 1.57-3.45 1.61-4.15 1.67-4.63 1.72-4.94 1.77-5.23 1.83-5.61 1.85-5.99 1.89-6.11 1.92-5.74 1.97-4.75 2.06-3.34 2.13-1.89 2.14-1.04 2.01-1.56 1.84-3.01 2.26" filter="url(#a)"/><path d="m-23.11-68.47-2.39.73-1.91.92-1.67.94-1.7 1-1.82 1.09-1.91 1.19-1.93 1.28-1.9 1.34-1.85 1.37-1.79 1.4-1.77 1.42-1.74 1.46-1.71 1.5-1.66 1.54-1.58 1.58-1.45 1.62-1.35 1.67-1.27 1.73-1.25 1.78-1.27 1.83-1.33 1.87-1.41 1.9-1.48 1.94-1.53 1.99-1.56 2.04-1.55 2.07-1.5 2.07-1.42 2.02-1.3 1.98-1.14 1.97-.96 2.08-.77 2.19-.84 1.84" filter="url(#a)"/><path d="m-23.89-68.17-2.2.82-1.88 1.02-1.94 1.1-1.99 1.12-1.99 1.12-1.97 1.11-2 1.14-2.03 1.19-2.06 1.27-2.03 1.37-1.99 1.47-1.96 1.55-1.96 1.62-2.03 1.66-2.16 1.68-2.3 1.7-2.41 1.74-2.47 1.78-2.45 1.85-2.36 1.92-2.2 1.97-2.04 2-1.9 2.01-1.83 2-1.8 1.98-1.83 1.97-1.81 1.97-1.74 2.02-1.63 2.08-1.6 2.2-1.67 2.3-1.75 2.28-1.64 2.13-1.4 1.93-1.95 2.48" filter="url(#a)"/><path d="m-23.89-68.17-2.16.82-2.69 1.02-2.65 1.09-2.54 1.12L-36.4-63l-2.33 1.11-2.21 1.13-2.26 1.18-2.47 1.27-2.77 1.36-2.98 1.47-3.06 1.55-2.99 1.62-2.83 1.66-2.62 1.67-2.39 1.7-2.13 1.72-1.86 1.77-1.62 1.85-1.51 1.91-1.57 1.97-1.85 2.01-2.24 2.01-2.65 2-2.96 1.98-3.07 1.95-2.96 1.94-2.7 1.96-2.48 2.06-2.49 2.23-2.65 2.47-2.45 2.64-2.31 2.6" filter="url(#a)"/><path d="m-24.71-67.94-2.8 1.1-2.24.96-2.39.95-2.38 1.06-2.23 1.19-2.18 1.27-2.31 1.34-2.62 1.35-3 1.38-3.34 1.4-3.53 1.43-3.52 1.48-3.37 1.5-3.24 1.55-3.33 1.57-3.66 1.63-4.11 1.69-4.47 1.77-4.51 1.84-4.11 1.86-3.38 1.84-2.74 1.79-3.23 1.84-5.69 2.18" filter="url(#a)"/><path d="m-25.61-67.57-5.71 1.2-4.32 1.12-1.62 1.13-.8 1.12-1.19 1.1-1.94 1.1-2.65 1.15-3.25 1.24-3.68 1.33-3.84 1.46-3.69 1.55-3.25 1.62-2.71 1.66-2.36 1.66-2.39 1.65-2.84 1.67-3.7 1.72-4.75 1.8-5.84 1.92-6.68 2.01-7.06 2.04-6.88 2-6.27 1.98-5.26 2.07-3.69 2.27-3.1 2.08" filter="url(#a)"/><path d="m-29.84-65.48-3.78 1.46-3.76 1.37-2.66 1.39-1.93 1.4-1.67 1.39-1.63 1.4-1.62 1.42-1.61 1.46-1.61 1.51-1.68 1.54-1.77 1.59-1.88 1.63-2.05 1.68-2.24 1.74-2.47 1.79-2.7 1.84-2.86 1.87-2.89 1.91-2.83 1.95-2.68 1.99-2.5 2.03-2.35 2.05-2.22 2.05-2.1 2.05-2 2.03-1.95 2.07-2.03 2.14-2.16 2.25-2.15 2.37-1.72 2.41-1 2.39-.45 2.56" filter="url(#a)"/><path d="m-32.13-63.79-1.8 1.07-1.71.99-1.64 1.04-1.56 1.13-1.56 1.24-1.62 1.36-1.74 1.49-1.8 1.59-1.78 1.65-1.7 1.68-1.59 1.67-1.49 1.68-1.45 1.7-1.47 1.75-1.49 1.84-1.49 1.92-1.45 1.98-1.37 2.01-1.29 2.01-1.22 1.99-1.17 1.96-1.11 1.94-1.03 1.9-.97 1.91-.99 2-1.09 2.22-1.11 2.51-.74 2.9" filter="url(#a)"/><path d="m-32.13-63.79-1.34 1.07-1.01 1.01-.91 1.06-.91 1.14-1.09 1.26-1.31 1.39-1.43 1.51-1.46 1.6-1.39 1.66-1.29 1.69-1.19 1.7-1.05 1.71-.87 1.74-.68 1.8-.49 1.86-.36 1.93-.29 1.98-.28 2-.27 2-.23 2.01-.17 2-.05 2 .09 2.02.21 2.05.31 2.1.41 2.14.48 2.17.58 2.17.7 2.12.8 2.09.86 2.07.78 2.1.6 2.17.45 2.24.66 2.26 1.33 2.2 1.73 2.12" filter="url(#a)"/><path d="m-32.13-63.79-1.81 1.07-1.71 1.01-1.75 1.05-1.79 1.14-1.84 1.26-1.9 1.38-1.91 1.51-1.89 1.6-1.85 1.66-1.83 1.68-1.91 1.7-2.05 1.7-2.26 1.74-2.46 1.79-2.58 1.86-2.56 1.92-2.4 1.98-2.14 2-1.88 2.01-1.73 2-1.69 1.99-1.75 1.99-1.84 2-1.88 2.05-1.89 2.09-1.92 2.16-2 2.19-2.13 2.17-2.14 2.12-1.91 2.05-1.44 2.02-1 2.07-.97 2.2-1.38 2.32-.84 2.17" filter="url(#a)"/><path d="m-32.03-63.83-2.2 1.24-3.26 1.35-3.93 1.41-3.62 1.4-2.76 1.38-1.88 1.42-1.34 1.45-1.19 1.51-1.4 1.54-1.89 1.58-2.59 1.63-3.41 1.68-4.22 1.73-4.77 1.79-4.85 1.84-4.44 1.87-3.73 1.9-3.08 1.95-2.88 1.98-3.31 2.03-4.18 2.06-5.02 2.05-5.31 2.03-4.81 2.01-3.87 2.04-3.33 2.13-3.82 2.26-4.72 2.39-3.81 2.42.03 1.91" filter="url(#a)"/><path d="m-34.08-62.55-6.15.85-.54 1.01-.07 1.12-.76 1.22-1.59 1.36-2.28 1.49-2.76 1.6-2.98 1.66-2.96 1.68-2.8 1.67-2.65 1.66-2.67 1.68-2.91 1.73-3.35 1.82-3.8 1.92-4.09 1.99-4.08 2.02-3.83 2.01-3.53 1.98-3.33 1.97-3.25 1.93-3.13 1.84-3 1.77-3.26 1.89-3.21 2.37" filter="url(#a)"/><path d="m-34.08-62.55-3.89.86-3.04 1.02-2.1 1.13-1.78 1.25-1.65 1.38-1.59 1.51-1.68 1.62-1.87 1.67-2.02 1.69-2.06 1.69-1.96 1.69-1.8 1.72-1.66 1.78-1.65 1.85-1.73 1.93-1.85 1.98-1.93 2-1.96 2.01-1.93 1.99-1.93 1.98-2.03 1.98-2.21 1.98-2.46 2.03-2.68 2.09-2.8 2.17-2.75 2.22-2.51 2.21-2.17 2.11-1.9 1.98-1.77 1.91-1.55 1.93-.64 2.27" filter="url(#a)"/><path d="m-33.92-62.64-2.52 1.41-3.1 1.46-3.95 1.42-3.99 1.39-3.36 1.41-2.65 1.47-2.18 1.52-1.89 1.57-1.7 1.6-1.6 1.64-1.7 1.7-1.97 1.76-2.35 1.81-2.62 1.85-2.67 1.9-2.41 1.93-1.97 1.96-1.48 2-1.14 2.03-1.04 2.06-1.22 2.06-1.61 2.08-2.11 2.09-2.61 2.13-3.04 2.16-3.33 2.21-3.45 2.23-3.32 2.22-2.96 2.2-2.5 2.15-2.13 2.12-2.01 2.12-2.06 2.18-1.9 2.28-1.38 2.47-1.06 2.73-1.58 3.19" filter="url(#a)"/><path d="m-33.92-62.64-2.65 1.41-3.2 1.45-4.58 1.42-5.42 1.38-5 1.41-3.81 1.47-2.54 1.52-1.56 1.55-.95 1.6-.65 1.63-.63 1.7-.88 1.75-1.39 1.8-2.1 1.85-2.79 1.89-3.32 1.92-3.48 1.96-3.29 1.99-2.88 2.03-2.45 2.05-2.22 2.06-2.23 2.06-2.43 2.08-2.58 2.11-2.62 2.16-2.52 2.22-2.44 2.25-2.52 2.25-2.73 2.2-2.87 2.12-2.65 2.06-1.82 2.05-.59 2-1.37 1.79m85.16-63.19-1.73 1.39-1.42 1.44-1.22 1.41-.77 1.36-.04 1.39.74 1.44 1.23 1.5 1.23 1.53.8 1.57.17 1.6-.35 1.66-.59 1.72-.51 1.78-.25 1.83.06 1.85.23 1.88.24 1.91.15 1.97.13 2.04.35 2.1.92 2.08 1.76 1.99 2.64 1.84 3.38 1.75 3.55 1.49" filter="url(#a)"/><path d="m-35.28-61.8.12 1.1-1.09 1.14-1.01 1.23-1.16 1.37-1.26 1.51-.93 1.63-.25 1.68.5 1.69 1.03 1.68 1.18 1.67.98 1.69.61 1.75.26 1.84.11 1.93.16 1.98.38 2.01.65 2.01.91 1.98 1.09 1.96 1.22 1.94 1.33 1.92 1.51 1.94 1.69 2.05 1.69 2.22 1.46 2.46 1.36 2.63 2.27 2.58m-16.55-48.41-1.94 1.08-2.58 1.24-2.17 1.38-1.74 1.55-1.58 1.66-1.56 1.71-1.51 1.72-1.49 1.7-1.51 1.69-1.63 1.73-1.82 1.79-1.99 1.87-2.09 1.94-2.06 1.98-1.89 2.01-1.66 2.01-1.46 2-1.33 2-1.28 1.99-1.3 2.02-1.3 2.05-1.25 2.1-1.15 2.14-1 2.17-.9 2.15-.82 2.13-.81 2.09-.78 2.08-.72 2.1-.62 2.17-.55 2.23-.6 2.28-.8 2.32-.91 2.48-.43 2.99" filter="url(#a)"/><path d="m-37.02-60.62-10.83 1.08.03 1.24.8 1.38-.19 1.55-.87 1.66-1.13 1.71-1.26 1.72-1.44 1.7-1.68 1.69-1.94 1.73-2.17 1.79-2.41 1.87-2.73 1.94-3.15 1.98-3.67 2.01-4.2 2.01-4.67 2-4.95 2-4.97 1.99-4.72 2.02-4.16 2.05-3.33 2.1-2.27 2.14-1.14 2.17-.11 2.15.58 2.13.69 2.09.16 2.08-.93 2.1-2.31 2.17-3.57 2.23-4.23 2.28-3.89 2.32-2.9 2.48-3.96 2.99" filter="url(#a)"/><path d="m-37.02-60.62-1.46 1.08-1.57 1.23-2.07 1.38-2.96 1.54-3.78 1.66-4.15 1.72-3.97 1.71-3.44 1.69-2.8 1.69-2.2 1.72-1.74 1.78-1.41 1.87-1.22 1.93-1.18 1.99-1.33 2.01-1.68 2.01-2.22 1.99-2.82 1.99-3.39 1.99-3.74 2-3.75 2.04-3.41 2.1-2.82 2.15-2.2 2.18-1.71 2.16-1.49 2.12-1.54 2.06-1.75 2.04-2 2.08-2.18 2.18-2.15 2.27-2.22 2.27-4.12 2.25" filter="url(#a)"/><path d="m-37.48-60.09-2.93 1.9-2.07 1.33-1.69 1.34-1.6 1.46-1.61 1.54-1.69 1.57-1.83 1.6-1.95 1.64-1.97 1.7-1.87 1.76-1.72 1.82-1.6 1.85-1.61 1.9-1.75 1.93-2.03 1.96-2.33 2.01-2.57 2.03-2.66 2.05-2.6 2.06-2.43 2.07-2.2 2.1-1.94 2.12-1.71 2.16-1.47 2.21-1.2 2.22-.93 2.23-.72 2.19-.66 2.15-.84 2.11-1.22 2.12-1.66 2.17-2.06 2.28-2.23 2.47-1.71 2.73.02 3.18M64-17.7l4.4 3 3.07 2.54 1.56 2.47 2.49 2.42 3.86 2.37 4.4 2.32L87.94-.3l3.54 2.25 2.89 2.23 2.25 2.21 1.53 2.17.77 2.14.05 2.12-.5 2.09-.78 2.1-.73 2.1-.41 2.09.17 2.08.93 2.04 1.75 2 2.38 1.94 2.58 1.91 2.16 1.93 1.1 1.97-.32 2.04-1.45 2.1-1.49 2.12-.08 2.03 1.9 1.86 3.35 1.75" filter="url(#a)"/><path d="m64-17.7.95 3 2.3 2.55 3.79 2.48 3.71 2.42 2.17 2.37.59 2.32-.17 2.29-.12 2.26.27 2.23.56 2.21.67 2.18.63 2.14.62 2.12.69 2.11.86 2.1 1.09 2.1 1.35 2.09 1.62 2.08 1.85 2.04 2.06 1.99 2.2 1.96 2.28 1.94 2.23 1.95 2.04 1.98 1.62 2.02.97 2.06.28 2.05-.21 1.97-.3 1.81-.26 1.64-.7 1.49-1.39 1.48M-38.36-59.72l-1.69 1.4-1.76 1.36-2.31 1.56-2.62 1.69-2.49 1.74-2.07 1.73-1.62 1.69-1.33 1.68-1.29 1.72-1.44 1.78-1.72 1.86-1.97 1.95-2.14 1.99-2.13 2.01-1.96 2.01-1.69 2-1.39 1.98-1.16 1.99-1.12 2.01-1.26 2.05-1.59 2.09-1.99 2.15-2.34 2.17-2.54 2.16-2.53 2.11-2.31 2.08-1.89 2.06-1.38 2.09-.92 2.17-.67 2.23-.63 2.25-.44 2.2.09 2.11" filter="url(#a)"/><path d="m-40.92-57.48-.92.78-1.37 1.16-1.6 1.46-1.55 1.56-1.48 1.58-1.46 1.59-1.47 1.63-1.46 1.69-1.4 1.75-1.32 1.81-1.27 1.85-1.24 1.89-1.26 1.92-1.29 1.96-1.31 1.99-1.31 2.03-1.26 2.05-1.16 2.06-1.04 2.05-.92 2.07-.84 2.1-.79 2.16-.8 2.21-.81 2.26-.78 2.24-.65 2.2-.47 2.11-.32 2.05-.32 2.05-.47 1.98-.54 1.79" filter="url(#a)"/><path d="m-40.22-57.94-2.32.94-3.76 1.55-3.02 1.75-2.25 1.77-2.31 1.74-2.84 1.69-3.27 1.67-3.33 1.7-3.05 1.78-2.62 1.86-2.24 1.95-1.99 2-1.83 2.02-1.71 2.01-1.58 1.99-1.48 1.99-1.53 1.98-1.76 2-2.11 2.05-2.43 2.09-2.55 2.15-2.37 2.17-1.95 2.16-1.48 2.11-1.26 2.07-1.43 2.06-1.96 2.09-2.48 2.17-2.53 2.23-1.91 2.25-1.24 2.19-1.39 2.11" filter="url(#a)"/><path d="m-41.74-56.64-1.53.92-2.78 1.6-2.73 1.64-2.33 1.6-1.98 1.58-1.64 1.63-1.39 1.69-1.27 1.76-1.34 1.82-1.6 1.86-1.96 1.9-2.34 1.92-2.66 1.96-2.83 2-2.8 2.03-2.64 2.05-2.4 2.06-2.2 2.07-2.07 2.08-2.01 2.11-1.98 2.16-1.95 2.21-1.91 2.23-1.85 2.23-1.71 2.18-1.38 2.14-.87 2.09-.42 2.08-.49 2.14-1.24 2.22-2.1 2.4-1.18 2.44" filter="url(#a)"/><path d="m-40.72-57.49-2.32 1.88-2.19 1.89-2.44 1.82-2.6 1.74-2.37 1.67-1.87 1.63-1.46 1.66-1.3 1.75-1.41 1.85-1.67 1.95-1.94 2-2.1 2.02-2.13 2-2.08 1.98-2.06 1.96-2.14 1.94-2.33 1.96-2.55 2-2.66 2.07-2.54 2.18-2.2 2.25-1.82 2.22-1.78 2.1-2.43 1.92-3.44 1.81-2.92 1.47" filter="url(#a)"/><path d="m-40.72-57.49-3.23 1.9-3.78 1.91-4.24 1.83-3.7 1.75-2.45 1.69-1.29 1.66-.7 1.7-.68 1.78-1.02 1.88-1.42 1.96-1.7 2.01-1.87 2.02-2 2.02-2.19 2-2.48 2-2.79 2-3.01 2.02-3.02 2.05-2.81 2.11-2.45 2.13-2.14 2.16-2.02 2.14-2.23 2.13-2.76 2.11-3.48 2.11-4.15 2.13-4.5 2.17-4.34 2.23-3.57 2.28-2.39 2.32-1.09 2.35-.13 2.36-.1 2.38-1.68 2.37-4.98 2.26m86.39-71.92-2.16 1.9-1.9 1.9-1.65 1.83-1.5 1.75-1.36 1.69-1.27 1.65-1.23 1.69-1.22 1.78-1.21 1.87-1.2 1.96-1.16 2.01-1.1 2.02-1.04 2.02-.96 1.99-.89 1.99-.81 1.99-.75 2.01-.67 2.05-.61 2.1-.56 2.14-.51 2.16-.46 2.15-.41 2.12-.36 2.1-.31 2.08-.25 2.11-.21 2.17-.16 2.23-.11 2.27-.07 2.32-.01 2.36.11 2.33.25 1.81" filter="url(#a)"/><path d="m-40.72-57.49-8.22 1.89-.98 1.9-.66 1.82-1.91 1.75-2.95 1.67-3.21 1.65-2.76 1.67-2.01 1.76-1.49 1.86-1.4 1.96-1.75 2-2.25 2.02-2.66 2.01-2.75 1.99-2.51 1.97-2.05 1.97-1.61 1.98-1.39 2.03-1.48 2.09-1.84 2.16-2.29 2.18-2.62 2.17-2.68 2.11-2.41 2.03-1.91 2-1.45 2.06-1.4 2.19-1.77 2.31-1.29 2.15" filter="url(#a)"/><path d="m-41.95-56.61-3.95 2.41-5.98 1.8-5.68 1.6-3.77 1.56-1.51 1.62.15 1.69.85 1.78.63 1.83-.13 1.87-1.09 1.9-1.99 1.93-2.74 1.97-3.25 2.01-3.53 2.03-3.52 2.06-3.27 2.07-2.85 2.07-2.39 2.09-2 2.13-1.79 2.16-1.82 2.2-2.05 2.22-2.43 2.21-2.81 2.19-3.05 2.16-3.01 2.13-2.66 2.15-2.09 2.2-1.54 2.28-1.17 2.35-.92 2.36-.75 2.16-1.23 1.64-2.61 1" filter="url(#a)"/><path d="m-42.94-55.7-4.91 2.11-2.76 1.83-1.37 1.76-1.29 1.67-1.5 1.65-1.57 1.68-1.45 1.78-1.31 1.89-1.25 1.97-1.24 2.03-1.28 2.03-1.34 2.02-1.39 2-1.41 2-1.4 2.01-1.35 2.03-1.26 2.06-1.17 2.11-1.12 2.13-1.15 2.15-1.24 2.15-1.39 2.13-1.48 2.13-1.46 2.12-1.28 2.15-.97 2.19-.63 2.23-.37 2.28-.26 2.3-.29 2.33-.37 2.31-.43 2.28-.5 2.18-.56 2.05-.57 1.88-.47 1.8.05 1.87" filter="url(#a)"/><path d="m-45.22-53.49-2.56 1.33-4.52 1.46-3.15 1.5-1.69 1.6-1.36 1.7-1.64 1.78-2.02 1.84-2.36 1.88-2.66 1.9-2.87 1.94-2.87 1.97-2.59 2-2.12 2.04-1.59 2.06-1.22 2.07-1.07 2.07-1.19 2.1-1.51 2.12-1.94 2.17-2.37 2.2-2.76 2.21-3.02 2.21-3.13 2.19-3.05 2.16-2.76 2.15-2.27 2.16-1.66 2.2-1.15 2.27-.99 2.32-1.22 2.31-1.49 2.21-1.11 2.09.01 2.34-.37 3.96" filter="url(#a)"/><path d="m-46.08-52.44-7.67 1.78-5.95 1.47-1.32 1.58.66 1.71.67 1.79-.03 1.84-.76 1.89-1.32 1.9-1.74 1.93-2.17 1.97-2.7 2-3.36 2.04-4.05 2.06-4.62 2.06-4.89 2.07-4.73 2.09-4.16 2.12-3.36 2.16-2.52 2.2-1.87 2.22-1.55 2.21-1.55 2.18-1.78 2.15-2.06 2.13-2.2 2.15-1.98 2.19-1.31 2.28-.35 2.35.34 2.35-.05 2.16-1.52 1.63-.12 1M64.29-16.34l4.98 1.29-.23 1.93-.34 2.38.61 2.54 1.67 2.48 2.36 2.33 2.38 2.2L77.56.94l1.15 2.1.74 2.11.8 2.12 1.26 2.14 1.96 2.17 2.67 2.17 3.21 2.17 3.46 2.15 3.35 2.13 2.91 2.1 2.27 2.08 1.54 2.07.8 2.06.1 2.02-.57 1.96-1.07 1.87-1.15 1.78-.42 1.73 1.15 1.72 2.21 1.71-1.13 1.63" filter="url(#a)"/><path d="m-46.42-52.04-3.16 2.13-1.9 1.73-.99 1.56-.84 1.59-1.09 1.74-1.39 1.89-1.58 2-1.69 2.04-1.73 2.04-1.73 2.01-1.69 1.99-1.61 1.97-1.44 1.97-1.24 1.99-1.01 2.04-.79 2.09-.65 2.15-.64 2.16-.75 2.15-.97 2.11-1.19 2.07-1.32 2.06-1.31 2.09-1.19 2.16-1.09 2.23-1.12 2.26-1.26 2.31-1.27 2.47-.36 2.97" filter="url(#a)"/><path d="m-46.42-52.04-1.93 2.11-2.13 1.71-2.63 1.55-3.12 1.56-3.54 1.69-3.87 1.86-4.05 1.99-3.87 2.03-3.22 2.03-2.22 1.99-1.27 1.96-.83 1.94-1.13 1.92-2.07 1.92-3.24 1.97-4.19 2.06-4.61 2.19-4.29 2.28-3.27 2.25-2.15 2.07-2.57 1.89-6.29 2.45" filter="url(#a)"/><path d="m-48.15-49.97-1.93.81-1 1.52-1.44 1.72-2.21 1.79-2.68 1.85-2.63 1.88-2.14 1.89-1.55 1.92-1.14 1.94-1.11 2-1.41 2.03-1.85 2.06-2.19 2.05-2.31 2.04-2.25 2.06-2.11 2.09-1.98 2.15-1.86 2.21-1.69 2.24-1.44 2.23-1.2 2.18-1.14 2.1-1.28 2.06-1.48 2.05-1.42 2.08-1.15 2.2-1.4 2.68" filter="url(#a)"/><path d="m-48.53-49.58-1.61 1.6-1.76 1.44-1.73 1.5-1.74 1.7-1.83 1.89-1.89 2.02-1.81 2.06-1.63 2.04-1.39 2-1.11 1.97-.85 1.95-.67 1.95-.63 1.96-.73 2.02-.98 2.08-1.26 2.16-1.49 2.19-1.61 2.16-1.61 2.09-1.59 2.01-1.53 1.98-1.34 2.05-1.02 2.18-.87 2.3-.96 2.14" filter="url(#a)"/><path d="m-52.06-44.98-4.59 1.54-3.46 2-.76 2.21.1 2.17-.21 2.07-.93 1.99-1.63 1.96-2.17 1.95-2.46 1.96-2.51 1.99-2.4 2.04-2.24 2.1-2.11 2.15-2.07 2.16-2 2.15-1.85 2.1-1.63 2.08-1.41 2.08-1.32 2.11L-89.09-4l-1.47 2.22L-92 .49l-1.27 2.3-1.21 2.33-1.51 2.35-2.13 2.36-2.54 2.36-2.38 2.24" filter="url(#a)"/><path d="m-52.06-44.98-1.51 1.55-2.54 2.02-2.21 2.23-1.57 2.18-1.4 2.08-1.82 2-2.6 1.98-3.32 1.97-3.62 1.98-3.35 2.02-2.61 2.06-1.73 2.12-1.11 2.15-1.01 2.16-1.46 2.15-2.26 2.13-3.15 2.12-3.87 2.13-4.25 2.15-4.25 2.2-3.87 2.23-3.14 2.27-2.14 2.29-1.04 2.29-.11 2.27.27 2.23-.14 2.16-1.29 2.11-2.7 2.07-3.6 2.1-3.39 2.18-2.05 2.28-.5 2.31-.45 2.28-4.02 2.48M63.7-18.93l.7 1.89.7 2.37.48 2.46.35 2.46.27 2.42.19 2.37.14 2.33.1 2.3.07 2.26.01 2.24-.05 2.21-.1 2.18-.14 2.15-.19 2.12-.24 2.11-.29 2.1-.35 2.1-.43 2.1-.48 2.07-.52 2.05-.55 2-.59 1.96-.63 1.94-.7 1.95-.81 1.98-.92 2.03-1.05 2.06-1.15 2.05-1.19 1.97-1.22 1.82-1.2 1.64-1.13 1.49-1.05 1.48M-53.99-42.08l-.14 2.24-.02 1.85.2 1.81-.16 1.92-.73 2.03-1.06 2.1-.94 2.11-.45 2.08.15 2.08.7 2.1 1.04 2.13 1.19 2.18 1.16 2.21 1.04 2.22.85 2.21.63 2.2.4 2.18.14 2.18-.08 2.2-.25 2.22-.29 2.24-.18 2.25.1 2.25.48 2.23.9 2.2 1.26 2.17 1.54 2.12 1.68 2.09 1.75 2.06 1.76 2.05 1.76 2.07 1.76 2.1 1.71 2.11 1.56 2.05 1.22 1.92.9 2 2.13 2.89" filter="url(#a)"/><path d="m-53.8-42.47-2.03 3.36-1.75 2.38-1.8 2.02-1.64 1.94-1.32 1.94-1.01 1.95-.78 1.97-.66 2-.62 2.06-.6 2.12-.59 2.16-.55 2.17-.53 2.15-.54 2.13-.57 2.11-.64 2.12-.69 2.15-.71 2.19-.69 2.23-.62 2.27-.52 2.29-.43 2.29-.32 2.26-.19 2.23-.04 2.16.11 2.1.26 2.07.35 2.09.39 2.17.38 2.28.35 2.31.41 2.27.82 2.48" filter="url(#a)"/><path d="m-55.79-39.4-12.69 1.57 1.65 1.68 1.55 1.89-.78 2.05-2 2.13-1.95 2.12-1.46 2.09-1.2 2.07-1.37 2.09-1.79 2.13-2.2 2.18-2.38 2.22-2.3 2.22-2.07 2.22-1.85 2.19-1.71 2.18-1.68 2.18-1.68 2.2-1.61 2.22-1.4 2.24-1 2.25-.52 2.25-.07 2.23.19 2.2.18 2.16-.15 2.12-.7 2.09-1.33 2.06-1.83 2.06-2.03 2.07-1.8 2.09-1.17 2.09-.5 2.04-.26 1.96-.59 1.93-.84 1.94-1.08 1.35m52.42-76.76-.48 1.56-.39 1.67-.34 1.88-.3 2.05-.27 2.12-.25 2.12-.23 2.08-.25 2.06-.34 2.08-.46 2.12-.56 2.18-.6 2.21-.55 2.22-.42 2.21-.23 2.19-.02 2.16.15 2.17.28 2.18.34 2.21.37 2.24.35 2.26.34 2.26.31 2.23.32 2.2.34 2.16.41 2.13.53 2.07.7 2.01.93 1.99 1.11 2.03 1.11 2.21.98 2.49 1.18 3.01" filter="url(#a)"/><path d="m-55.79-39.4-3.36 1.55-2.58 1.66-.79 1.87-.78 2.03-1.9 2.11-3.07 2.11-3.67 2.07-3.62 2.04-3.21 2.06-2.84 2.1-2.67 2.17-2.72 2.21-2.82 2.22-2.87 2.21-2.83 2.17-2.73 2.14-2.62 2.13-2.52 2.15-2.38 2.2-2.2 2.25-2.07 2.28-2.03 2.27-2.1 2.23-2.17 2.17-2.27 2.19-2.76 2.26-3.79 2.22-2.88 2.42" filter="url(#a)"/><path d="m-58.04-34.64-1.04 1.91-1.89 1.95-4.13 2.01-6.33 1.93-6.92 1.93-5.84 1.99-4.17 2.11-2.91 2.19-2.38 2.19-2.31 2.14-2.49 2.08-2.82 2.04-3.3 2.05-3.75 2.09-3.86 2.15-3.42 2.21-2.72 2.26-2.28 2.29-2.53 2.32-3.31 2.33-3.92 2.34-3.81 2.34-5.79 2.22m81.92-49.07-.83 1.93-.57 1.98-.34 2.02-.31 1.96-.47 1.95-.63 2.04-.67 2.13-.59 2.19-.45 2.19-.3 2.16-.19 2.11-.11 2.09-.04 2.1.05 2.14.13 2.18.2 2.23.25 2.27.29 2.29.36 2.29.44 2.26.53 2.22.61 2.15.67 2.09.71 2.05.74 2.09.8 2.17.9 2.27 1 2.3 1.07 2.27 1.27 2.47" filter="url(#a)"/><path d="m-57.94-34.51-1.89 2.24-1.92 2.25-1.94 2.19-1.49 2.05-.92 1.96-.61 1.98-.62 2.06-.79 2.16-.87 2.23-.77 2.23-.59 2.2-.42 2.15-.41 2.09-.55 2.08-.76 2.1-1.01 2.17-1.19 2.25-1.27 2.34-1.14 2.33-.74 2.11-.27 1.59-.43.97" filter="url(#a)"/><path d="m-57.94-34.51-5.54 2.26-1.13 2.27-.39 2.2-.54 2.07-.82 1.98-1.06 2.01-1.27 2.09-1.48 2.18-1.7 2.23-1.86 2.24-1.94 2.21-1.98 2.16-2.03 2.13-2.1 2.13-2.14 2.16-2.05 2.2-1.72 2.24-1.21 2.26-.63 2.26-.15 2.22.07 2.19-.09 2.17-.7 2.14-1.71 2.08-2.56 1.92-2.09 1.74.21 1.85M63.51-19.01l.62 2.1.52 1.83.63 2.07.81 2.34.94 2.47.9 2.44.68 2.33.44 2.23.24 2.16.16 2.13.18 2.13.29 2.14.42 2.16.53 2.17.56 2.18.5 2.17.31 2.16.02 2.13-.31 2.12-.62 2.09-.81 2.07-.85 2.04-.73 2-.51 1.95-.26 1.89-.08 1.84-.03 1.8-.11 1.8-.32 1.82-.56 1.83-.78 1.83-.95 1.81-1.1 1.77-1.38 1.78-2.31 2.16" filter="url(#a)"/><path d="m-59.15-32.3-1.28 1.55-1.71 2.1-1.72 1.96-1.89 1.91-1.87 2.01-1.63 2.13-1.48 2.21-1.58 2.2-1.85 2.16-2.14 2.09-2.25 2.07-2.13 2.08-1.85 2.12-1.45 2.18-1.04 2.23-.69 2.26-.5 2.29-.51 2.3-.64 2.27-.75 2.22-.72 2.14-.57 2.05-.51 1.99-.7 2.02-.91 2.19-.83 2.47-1.95 2.5m35.15-57.7-.61 1.57-.84 2.12-.8 1.98-.77 1.94-.73 2.04-.66 2.16-.59 2.22-.52 2.21-.47 2.16-.43 2.13-.37 2.11-.31 2.13-.24 2.16-.16 2.21-.07 2.24-.01 2.27.05 2.29.1 2.27.13 2.25.16 2.21.2 2.18.25 2.14.32 2.14.41 2.13.49 2.14.59 2.14.64 2.12.68 2.09.71 2.03.72 1.98.76 1.93.78 1.87.8 1.79.81 1.72.89 1.74 1.07 1.87.92 1.55" filter="url(#a)"/><path d="m-59.44-31.97-4.93 2.04-3.29 2.28-2.66 2.05-1.96 1.93-1.34 1.97-.88 2.08-.61 2.18-.56 2.25-.64 2.24-.77 2.2-.95 2.16-1.25 2.12-1.69 2.11-2.2 2.14-2.66 2.2-2.92 2.24-2.97 2.27-2.92 2.25-2.93 2.22-2.96 2.18-2.8 2.17-2.19 2.17-1.31 2.11-.73 1.88.31 1.32" filter="url(#a)"/><path d="m-59.33-31.76-1.74 3.18-2.72 2.03-3.46 1.82-3.15 1.96-2.4 2.14-1.8 2.23-1.47 2.22-1.26 2.16-.99 2.08-.64 2.05-.37 2.06-.39 2.11-.89 2.17-1.77 2.23-2.73 2.26-3.36 2.29-3.42 2.29-2.88 2.28-2.06 2.23-1.39 2.13-1.17 2.03-1.36 1.92-1.39 1.94-.69 2.19-.37 2.82" filter="url(#a)"/><path d="m-60.09-30.53-2.46 3.06-2.02 2.1-1.01 1.87-.5 1.97-.34 2.11-.31 2.22-.32 2.27-.42 2.27-.63 2.22-.94 2.19-1.26 2.16-1.51 2.16-1.61 2.19-1.55 2.22-1.34 2.24-1.04 2.25-.73 2.25-.51 2.22-.46 2.19-.6 2.15-.93 2.12-1.33 2.08-1.68 2.07-1.83 2.06-1.69 2.06-1.27 2.06-.72 2.05-.16 2.01.24 1.95.45 1.89.52 1.83.58 1.81.86 1.87 1.82 2.1 3.45 2.34" filter="url(#a)"/><path d="m-61.1-27.38-1.56 1.24-2.52 1.46-2.48 1.89-2.12 2.16-1.68 2.28-1.06 2.24-.35 2.15.14 2.06.21 2.02-.16 2.05-.74 2.1-1.21 2.16-1.42 2.22-1.34 2.26-1.19 2.29-1.14 2.3-1.3 2.28-1.49 2.24-1.46 2.13-1.1 2-.63 1.84-.42 1.76-.64 1.84" filter="url(#a)"/><path d="m-61.1-27.38-.51 1.25-.98 1.48-1.7 1.91-2.51 2.18-3.5 2.28-4.42 2.24-4.78 2.16-4.38 2.08-3.54 2.06-2.76 2.07-2.45 2.12-2.59 2.19-2.96 2.23-3.24 2.27-3.27 2.28-3.04 2.29-2.61 2.26-2.04 2.2-1.44 2.14-.98 2.08-.78 2.04-.89 2.07-1.2 2.17-1.51 2.27-1.77 2.29-2.26 2.26-1.52 2.46" filter="url(#a)"/><path d="m-61.54-25.92-.69 1.14-.94 1.96-.82 2.3-.75 2.36-.96 2.28-1.48 2.16-2.17 2.09-2.76 2.05-3.03 2.09-2.97 2.14-2.7 2.2-2.47 2.25-2.38 2.27-2.37 2.29-2.29 2.28-1.94 2.24-1.33 2.21-.59 2.15.1 2.12.51 2.11.62 2.11.4 2.15v2.15l-.42 2.14-.75 2.08-.88 2.01-.79 1.97-.47 1.99-.02 2.02.33 1.7-.47.5M63.26-20.28l3.08 1.46 1.64 1.94 1.23 2.25.9 2.38.71 2.42.7 2.41.7 2.37.54 2.34.25 2.3-.03 2.26-.12 2.24.06 2.21.42 2.19.81 2.15 1.08 2.12 1.16 2.11 1.07 2.11.88 2.1.65 2.1.43 2.07.23 2.05.01 2-.22 1.96-.44 1.93-.56 1.95-.53 1.98-.34 2.03-.16 2.08-.2 2.08-.54 2-.88 1.83-.67 1.62.6 1.31" filter="url(#a)"/><path d="m63.26-20.28 6.68 1.46-.45 1.93-.21 2.24 1.18 2.38 1.93 2.42 1.89 2.4 1.5 2.37 1.17 2.33.96 2.3.79 2.26.55 2.24.26 2.2-.02 2.18-.16 2.15-.17 2.12-.08 2.1-.06 2.1-.14 2.1-.35 2.1-.58 2.09-.69 2.05-.61 1.99-.35 1.95.04 1.91.43 1.91.67 1.96.61 2.05.2 2.14-.47 2.17-.9 2.06-.09 1.69" filter="url(#a)"/><path d="m63.26-20.28.95 1.45 1.7 1.93 1.23 2.23.49 2.38.1 2.41.08 2.4.29 2.37.49 2.32.58 2.29.53 2.26.43 2.23.36 2.21.36 2.18.39 2.14.37 2.11.24 2.1.04 2.09-.17 2.1-.3 2.1-.35 2.1-.31 2.05-.28 2-.3 1.92-.38 1.87-.5 1.87-.62 1.92-.68 2.04-.58 2.21-.3 2.49" filter="url(#a)"/><path d="m62.78-21.77 4.46 1.42 3.57 1.62 2.68 1.93 1.08 2.19.27 2.33.62 2.39 1.49 2.39 2.16 2.37 2.19 2.34 1.61 2.3.74 2.27-.03 2.24-.36 2.21-.18 2.18.36 2.16 1.02 2.12 1.5 2.12 1.66 2.1 1.47 2.1 1.07 2.1.63 2.09.25 2.05-.01 2-.2 1.95-.32 1.93-.38 1.93-.34 1.97-.26 2.05-.25 2.11-.45 2.12-.61 2.04-.18 1.86.38 1.76" filter="url(#a)"/><path d="m62.78-21.77.77 1.4 1.83 1.57 2.99 1.88 3.61 2.15 3.76 2.29 3.5 2.37 2.98 2.36 2.61 2.35 2.76 2.3 3.38 2.27 3.97 2.24 4.04 2.22 3.43 2.2L104.94 8l1.99 2.13 2.2 2.08 2.96 2.03 3.5 2.01 2.97 2.04 1.28 2.15-.01 2.29 4.95 2.07" filter="url(#a)"/><path d="m61.93-25.22.7.97 2.01 1.74 2.42 1.8 1.9 1.84 1.11 1.98.5 2.13.16 2.25.15 2.33.41 2.36.91 2.35 1.48 2.32 1.95 2.29 2.21 2.26 2.24 2.23 2.06 2.21 1.78 2.18 1.46 2.14 1.17 2.1.94 2.07.74 2.06.49 2.09.09 2.14-.4 2.19-.49 2.18.38 2.06 2.18 1.84" filter="url(#a)"/><path d="m61.93-25.22.53.98 1.42 1.74 1.2 1.8.59 1.86.19 1.98.09 2.14.2 2.26.35 2.34.46 2.36.48 2.35.45 2.33.37 2.29.3 2.27.24 2.23.19 2.22.18 2.18.2 2.14.23 2.11.24 2.09.2 2.08.08 2.1-.09 2.13-.25 2.14-.33 2.11-.28 2.02-.09 1.86.1 1.66-.02 1.36m-7.23-57.13 3.43.97 5.84 1.74 6.07 1.8 4.72 1.84 2.86 1.98 1.47 2.13.68 2.25.2 2.33-.2 2.36-.45 2.35-.44 2.32-.08 2.29.47 2.26 1 2.23 1.28 2.21 1.33 2.18 1.29 2.14 1.36 2.1 1.67 2.07 2.18 2.06 2.79 2.09 3.29 2.14 3.48 2.19 3.16 2.18 2.4 2.06 2.1 1.84" filter="url(#a)"/><path d="m60.66-28.29 2.61 2.18 2.44 1.77 1.36 1.79.58 1.81.34 1.87.58 2 1.05 2.13 1.46 2.25 1.56 2.32 1.33 2.35.86 2.35.39 2.33.1 2.3.05 2.27.23 2.24.49 2.22.75 2.18.9 2.15.86 2.11.64 2.09.24 2.09-.15 2.1-.33 2.13-.21 2.15.13 2.11.36 2.02.15 1.87-.26 1.66.32 1.36" filter="url(#a)"/><path d="m60.13-29.77 1.63 1.57 1.03 2.3 1.56 2.17 2.29 2.05 2.83 2.05 3.15 2.06 3.3 2.12 3.27 2.19 3.13 2.28 3.02 2.34 3.03 2.35 3.21 2.3 3.45 2.24L98.67.43l3.68 2.14 3.52 2.12 3.16 2.12 2.63 2.14 1.97 2.16 1.28 2.19.62 2.18.1 2.17-.22 2.13-.32 2.08-.15 2.05.32 2.06.9 2.11.99 2.3.54 3.07M59.22-32.23l-.12 1.97L58-28.2l-.9 2.17-.4 2.12-.09 2.05.04 2.03.15 2.05.28 2.08.31 2.16.1 2.25-.39 2.34-1.06 2.35-1.68 2.31-2.07 2.23L50.14.09l-1.96 2.09-1.62 2.08-1.31 2.08-1.17 2.09-1.32 2.13-1.64 2.14-1.99 2.15-3.19 2.54" filter="url(#a)"/><path d="m57.87-34.82 2.31 3.43 1.58 2.65 1.14 2.19 1.22 1.97 1.99 1.87 3.16 1.85 4.07 1.91 4.17 2 3.41 2.12 2.28 2.22 1.41 2.3 1.18 2.33 1.55 2.35 2.16 2.32L92.07-1l2.57 2.27 2.24 2.24 1.89 2.22 1.79 2.19 2.05 2.16 2.54 2.11 3.01 2.08 3.3 2.07 3.42 2.1 3.45 2.15 3.33 2.19 2.93 2.19 2.05 2.07 1.03 1.85" filter="url(#a)"/><path d="m56.93-36.71 1.76 2.45 2.66 2.77 3.75 2.53 4.23 2.23 4.02 2.02 3.2 1.92 1.97 1.88.67 1.93-.38 2.01-.96 2.11-.99 2.22-.56 2.29.15 2.33.93 2.34 1.67 2.33 2.29 2.3 2.75 2.28 2.98 2.25 2.96 2.22 2.62 2.2 2.01 2.15 1.28 2.12.7 2.08.58 2.08.97 2.1 1.67 2.15 2.2 2.2 2.05 2.18 1.06 2.08-.06 1.85M57.14-36.07l1.56 2.23.97 1.82.91 1.86.87 1.99.82 2.07.76 2.08.73 2.08.69 2.06.64 2.08.59 2.12.54 2.19.49 2.26.44 2.32.38 2.34.31 2.3.24 2.25.16 2.18.08 2.13.02 2.11-.04 2.11-.1 2.13-.16 2.16-.22 2.2-.25 2.23-.26 2.23-.23 2.16-.24 1.92-.29 1.65" filter="url(#a)"/><path d="m57.24-36.29 2.79.57 2.94 1.91 2.07 2.38 2.05 2.39 1.93 2.22 1.31 2.06.56 1.96.06 1.93-.09 1.97.08 2.04.43 2.14.84 2.22 1.28 2.29 1.65 2.33 1.87 2.34 1.91 2.33L80.68-.9l1.5 2.29 1.18 2.26.9 2.23.64 2.2.43 2.16.23 2.15.07 2.12-.02 2.12-.01 2.11.14 2.12.43 2.1.79 2.07 1.08 2.02 1.13 1.94.78 1.9.16 1.88-.31 1.94-.25 2.05.13 2.23-.05 2.5" filter="url(#a)"/><path d="m56.04-38.1 1.12 2.1 1.03 2.01.89 1.9.81 1.92.75 2.01.71 2.06.66 2.08.61 2.07.55 2.09.5 2.1.44 2.14.38 2.2.33 2.27.27 2.31.22 2.32.15 2.3.1 2.25.03 2.2-.02 2.16-.08 2.13-.14 2.14-.21 2.14-.26 2.17-.33 2.19-.38 2.2-.45 2.18-.49 2.14-.54 2.08-.6 2.04-.64 2.03-.67 1.98-.65 1.5M55.96-38.4 57.1-37l1.55 1.35 2.67 1.86 3.3 2.21 2.98 2.28 2.19 2.18 1.6 2.04 1.62 1.93 2.22 1.87 3.14 1.88 3.99 1.95 4.42 2.05 4.27 2.17 3.66 2.28 3 2.33 2.77 2.35 3.2 2.33 4.06 2.3L112.7.59l5.56 2.16 5.53 2.21 4.93 3.01" filter="url(#a)"/><path d="m55.96-38.4 1.73 1.43 1.6 1.41 1.25 1.92 1.01 2.24.81 2.28.63 2.19.5 2.07.44 1.99.43 1.95.46 1.98.47 2.04.47 2.14.43 2.21.39 2.29.32 2.32.26 2.34.2 2.33.16 2.31.13 2.29.12 2.26.1 2.23.07 2.2.03 2.17-.02 2.14-.07 2.12-.14 2.12-.19 2.11-.26 2.13-.34 2.11-.42 2.08-.5 2.01-.59 1.94-.66 1.87-.74 1.86-.79 1.91-.84 1.99-.99 2.19" filter="url(#a)"/><path d="m55.96-38.4 11.75 1.42-1.77 1.38-2.06 1.89.09 2.22 1.85 2.29 2.95 2.18 3.73 2.06 4.34 1.95 4.67 1.92 4.66 1.93 4.27 2 3.61 2.1 2.78 2.2 1.9 2.28 1.14 2.32.63 2.34.52 2.33.9 2.3 1.79 2.28 3.09 2.25 4.47 2.23 5.52 2.21 5.82 2.17 5.4 2.1 4.66 2.03 4.16 1.97 3.89 1.88 2.35 1.4" filter="url(#a)"/><path d="m55.96-38.4.89 1.42 1.06 1.4 1.91 1.91 2.77 2.24 3.16 2.28 2.98 2.19 2.37 2.06 1.66 1.98 1.07 1.93.68 1.97.46 2.03.4 2.12.45 2.21.63 2.28.87 2.32 1.14 2.34 1.35 2.32 1.46 2.31 1.49 2.29 1.47 2.26 1.43 2.23 1.38 2.19 1.34 2.17 1.26 2.12 1.19 2.1 1.15 2.1 1.06 2.11.81 2.14.34 2.18-.02 2.15.21 2.07 1.12 1.92 1.93 1.79" filter="url(#a)"/><path d="m54.67-40.94 3.54 2.13 3.14 1.6 1.61 1.63.64 1.92.5 2.15.84 2.22 1.24 2.17 1.53 2.06 1.66 1.97 1.59 1.92 1.32 1.94.89 2.01.38 2.09-.05 2.19-.29 2.27-.29 2.32-.05 2.34.31 2.33.68 2.31.93 2.28 1.01 2.25.92 2.23.76 2.22.67 2.18.85 2.12 1.25 2.02 1.51 2.05.73 2.48" filter="url(#a)"/><path d="m54.88-40.14 3 .97 3.68 1.48 2.53 1.75 1.1 1.86.11 1.9-.21 1.95.01 2 .49 2.05 1.01 2.06 1.38 2.08 1.51 2.09 1.41 2.11 1.16 2.15.91 2.21.75 2.27.73 2.3.84 2.32L76.3-4.3l1.2 2.26 1.3 2.2 1.3 2.17 1.17 2.14.99 2.14.78 2.15.66 2.18.6 2.19.62 2.2.65 2.19.65 2.14.55 2.09.31 2.04.11 2.03.32 1.98 1.41 1.51" filter="url(#a)"/><path d="m51.82-44.79 3.21 2.34 2.45 1.82 2.38 1.68 1.49 1.63.53 1.74.08 1.92.14 2.08.45 2.15.83 2.12 1.17 2.06 1.49 1.99 1.81 1.94 2.13 1.95 2.37 2 2.5 2.08 2.41 2.18 2.11 2.27 1.7 2.32 1.27 2.35 1.01 2.33.95 2.31L85.45.75 86.91 3l1.66 2.24 1.45 2.26.73 2.24-.19 2.17-.45 2.05M50.64-46.61l7.8 2.55 4.18 2.35 1.28 1.97.68 1.81 1.67 1.8 3.02 1.82 3.77 1.86 3.62 1.91 2.74 1.97 1.69 2.01 1.08 2.03 1.28 2.05 2.2 2.04 3.41 2.05 4.26 2.07 4.33 2.13 3.71 2.23 2.98 2.35 2.77 2.44 3.29 2.4 4.09 2.24 4.41 2.06 3.27 2.15-1.55 2.51" filter="url(#a)"/><path d="m49.63-48.28 1.77 1.82 3.34 1.88 4.48 1.87 3.86 1.79 2.36 1.7 1.07 1.67.46 1.74.53 1.88 1.01 2.03 1.64 2.12 2.28 2.12 2.93 2.06 3.58 1.96 4.16 1.89 4.52 1.85 4.46 1.89L96-16.02l3.19 2.15 2.77 2.31 3.13 2.41 4.04 2.36 4.13 2.32" filter="url(#a)"/><path d="m48.68-49.27 2.1 1.81 2.06 1.69 1.89 1.92 1.53 1.99 1.13 1.93.85 1.87.77 1.85.79 1.85.84 1.88.89 1.93.9 1.97.88 2.01.85 2.04.82 2.05.79 2.06.77 2.08.78 2.1.78 2.16.8 2.25.82 2.33.83 2.38.83 2.36.78 2.27.72 2.16.6 2.1.42 2.1.11 2.08-.19 2.15" filter="url(#a)"/><path d="m48.68-49.27 2.33 1.83 1.82 1.71 1.82 1.94 1.65 1.99 1.42 1.94 1.21 1.89 1.02 1.87.9 1.87.87 1.91.96 1.95 1.15 1.99 1.38 2.02 1.62 2.06 1.79 2.07 1.81 2.09 1.68 2.12 1.4 2.16 1.11 2.2.91 2.26.93 2.3 1.18 2.31 1.6 2.3 1.99 2.27 2.2 2.21 2.08 2.17 1.64 2.14.98 2.14.35 2.15-.07 2.18-.17 2.21-.04 2.22.16 2.22.29 2.16.39 2.03.61 1.93 1.29 2.15m-43.75-76.7 3.73 2.36 6.06 2.07 5.05 1.97 2.89 1.89 1.78 1.82 1.8 1.75 2 1.76 1.78 1.83 1.18 1.94.66 2.03.7 2.09 1.32 2.09 2.3 2.06 3.2 2.02 3.67 1.98 3.6 2L92-17.31l2.39 2.11 1.73 2.19 1.29 2.26 1.1 2.31 1.11 2.33 1.32 2.34 1.73 2.32 2.34 2.29 3.02 2.27 3.5 2.25 3.41 2.23 2.59 2.18 1.38 2.12.63 2.05 1 1.98 1.89 1.9.68 1.41" filter="url(#a)"/><path d="m46.68-51.35 4.59 1.99 9.27 1.8 7.52 1.83 3.34 1.92.68 1.96.23 1.93 1.02 1.89 1.9 1.88 2.19 1.89 1.81 1.91 1.05 1.95.39 1.99.19 2.02.55 2.06 1.4 2.07 2.43 2.09 3.37 2.12 4.01 2.16 4.22 2.21 4.02 2.26 3.5 2.29 2.8 2.32 2.08 2.3 1.57 2.26 1.49 2.22 1.89 2.17 2.7 2.15 3.56 2.14 4.09 2.15 4 2.18 3.31 2.21 2.37 2.22 1.52 2.22.87 2.16.35 2.03-.2 1.94-1.41 2.15" filter="url(#a)"/><path d="m45.98-52.64 2.97 1.51 1.3 1.73.99 1.76 1.25 1.83 1.65 1.9 2.01 1.92 2.29 1.91 2.55 1.88 2.78 1.87 2.97 1.86 3.02 1.89 2.92 1.93 2.68 1.96 2.43 2.01 2.28 2.04 2.4 2.05 2.81 2.06 3.52 2.08 4.38 2.1 5.23 2.15 5.91 2.25 6.27 2.34 6.31 2.41 5.9 2.38 4.86 2.27 2.97 2.14.89 2.1.93 2.12 4.93 1.79" filter="url(#a)"/><path d="m44.52-53.91 7.3 1.7.37 1.71-.01 1.85.75 1.9 1.33 1.91 1.63 1.87 1.85 1.81 2.17 1.75 2.62 1.75 3.11 1.8 3.47 1.9 3.59 2.01 3.48 2.09 3.24 2.1 2.98 2.05 2.71 1.99 2.39 1.92 2 1.9 1.63 1.93 1.43 2.02 1.59 2.16 2.15 2.3 2.94 2.38 3.59 2.39 3.7 2.35 4.1 2.37" filter="url(#a)"/><path d="m42.6-56 3.99 1.92 4.38 1.77 3.44 1.77 3.07 1.85 2.77 1.89 2.12 1.9 1.36 1.86.94 1.81 1.1 1.77 1.68 1.76 2.4 1.82 2.96 1.9 3.23 2 3.19 2.08 2.94 2.1 2.55 2.06 2.1 1.99 1.71 1.93 1.47 1.9 1.56 1.93 2.05 2.02 2.89 2.16 3.88 2.3 4.82 2.39 5.68 2.39 6.36 2.36L122.98-2M42.6-56l2.22 1.94 1.97 1.78 1.89 1.81 2.15 1.86 2.47 1.91 2.67 1.91 2.71 1.87 2.56 1.83 2.26 1.8 1.9 1.81 1.54 1.87 1.27 1.94 1.1 2.01 1.03 2.06 1 2.07 1.04 2.06 1.11 2.02 1.2 2.01 1.3 2.01 1.37 2.05 1.36 2.12 1.26 2.19 1.07 2.25.87 2.31.68 2.34.6 2.34.6 2.32.64 2.3.66 2.28.64 2.25.58 2.23.5 2.19.4 2.13.25 2.06.05 1.98-.23 1.9-.7 1.42" filter="url(#a)"/><path d="m43.61-54.59 1.32.97 1.37 1.19 1.56 1.42 1.92 1.6L52-47.7l2.28 1.8 2.12 1.87 1.89 1.89 1.76 1.9 1.8 1.88 1.92 1.86 2.01 1.87 1.94 1.88 1.71 1.92 1.44 1.96 1.29 2 1.38 2.04 1.76 2.05 2.26 2.05 2.64 2.05 2.62 2.06L85-14.51l1.53 2.22 1.14 2.39 1.27 2.57 1.75 2.57 1.84 2.11 1.82 1.01" filter="url(#a)"/><path d="m42.07-56.17 5.99.81.7 1.45.73 1.66 1.71 1.77 2.45 1.85 2.72 1.89 2.56 1.89 2.19 1.87 1.78 1.83 1.5 1.81 1.44 1.82 1.57 1.87 1.8 1.94 2.02 2 2.18 2.06 2.27 2.07 2.33 2.05 2.41 2.02 2.47 2.01 2.46 2.01 2.33 2.05 2.01 2.11 1.59 2.19 1.16 2.25.88 2.31.87 2.34 1.11 2.35 1.56 2.32 2.08 2.3 2.6 2.28 2.98 2.26 3.11 2.24 2.75 2.2 1.75 2.14.44 2.05-.15 2.06.57 2.5" filter="url(#a)"/><path d="m42.01-56.52 1.59 1.53 1.72 1.25 1.65 1.28 1.5 1.42 1.38 1.56 1.29 1.67 1.24 1.78 1.27 1.84 1.36 1.88 1.47 1.89 1.56 1.86 1.6 1.85 1.55 1.84 1.41 1.86 1.24 1.89 1.09 1.94 1 2 1.03 2.04 1.15 2.05 1.28 2.06 1.38 2.06 1.33 1.99 1.12 1.76 1.03 1.44" filter="url(#a)"/><path d="m42.01-56.52 4.64 1.54 3.14 1.26.78 1.29.41 1.44 1.08 1.58 2 1.69 2.73 1.79 3.1 1.86 3.07 1.89 2.76 1.89 2.41 1.88 2.16 1.87 2.05 1.87 2 1.89 1.94 1.92 1.93 1.96 2.02 2.01 2.26 2.03 2.6 2.05 2.86 2.06 2.91 2.05 2.62 2.07 2.05 2.11 1.45 2.22 1.18 2.39 1.32 2.57 1.56 2.57 1.58 2.12 2.02 1.01" filter="url(#a)"/><path d="m41.03-57.11 1.4.82 1.65 1.07 2.17 1.38 3.15 1.6 3.99 1.73 4.18 1.82 3.81 1.87 3.35 1.88 3.11 1.86 3.06 1.83 2.99 1.81 2.74 1.81 2.28 1.86 1.79 1.93 1.51 2 1.55 2.05 1.96 2.07 2.64 2.05 3.46 2.02 4.21 1.99 4.76 1.98 4.95 2.02 4.72 2.09 4.06 2.17 3.12 2.27 2.18 2.33 1.57 2.36 1.53 2.36 2.07 2.33 2.76 2.28 2.96 2.25 2.07 2.25.36 2.34.43 2.1" filter="url(#a)"/><path d="m36-60.95 6.68 1.3 1.41 1.51 1.22 1.49 1.5 1.42 1.53 1.39 1.53 1.41 1.63 1.49 1.79 1.59 1.91 1.68 1.95 1.77 1.88 1.84 1.76 1.87 1.65 1.89 1.62 1.89 1.67 1.89 1.76 1.9 1.79 1.92 1.75 1.94 1.6 1.98 1.4 2.01 1.25 2.04 1.23 2.06 1.38 2.08 1.68 2.1 2.04 2.14L84-14.16l2.61 2.26 2.63 2.32 2.4 2.36 1.95 2.36L95-2.57l.98 2.2.91 2.13 1.24 2.1 1.73 2.06 1.78 1.97.58 1.75" filter="url(#a)"/><path d="m34.64-62.14 3.08 1.98 2.56 1.41 2.96 1.2 2.9 1.16 2.23 1.23 1.41 1.38.85 1.54.71 1.66.9 1.77 1.29 1.82 1.73 1.85 2.13 1.85 2.49 1.82 2.8 1.8 3.1 1.81 3.36 1.85 3.54 1.92 3.58 1.99 3.38 2.06 2.92 2.08 2.24 2.06 1.52 2.01.92 1.95.57 1.93.56 1.95.87 2.03 1.4 2.17 2.02 2.3 2.47 2.4 2.52 2.4 2.08 2.37.76 2.39" filter="url(#a)"/><path d="m34.64-62.14 2.51 1.98 1.49 1.42 1.29 1.2 1.28 1.16 1.33 1.24 1.38 1.39 1.41 1.53 1.42 1.67 1.41 1.77 1.36 1.83 1.29 1.85 1.18 1.84 1.05 1.83.93 1.81.82 1.83.76 1.86.75 1.92.75 2 .76 2.05.73 2.07.67 2.05.58 2.01.46 1.98.37 1.96.29 1.99.25 2.06.2 2.17.16 2.28.1 2.36.05 2.39-.01 2.4-.08 2.39-.09 2.44-.04 2.55" filter="url(#a)"/><path d="m32.33-63.85 1.99.75 1.79 1.32 1.98 1.44 2.06 1.36 2.2 1.27 2.43 1.23 2.62 1.29 2.68 1.38 2.65 1.52 2.54 1.63 2.42 1.74 2.24 1.81 2.02 1.83 1.81 1.84 1.69 1.82 1.74 1.8 1.99 1.8 2.33 1.83 2.67 1.91 2.86 1.99 2.83 2.07 2.59 2.11 2.22 2.08 1.8 2.01 1.47 1.92 1.4 1.86 1.7 1.86 2.2 1.95 2.37 2.16 1.65 2.45.85 3.21" filter="url(#a)"/><path d="m29.09-65.58 2.95 1.3 3.37 1.18 3.34 1.33 2.93 1.38 2.89 1.34 3.32 1.27 3.83 1.25 4.03 1.29 3.83 1.39 3.33 1.51 2.73 1.62 2.19 1.73 1.81 1.79 1.62 1.84 1.6 1.83 1.79 1.82 2.19 1.79 2.86 1.79 3.75 1.81 4.77 1.89 5.69 2 6.17 2.09L106-28.2l4.9 2.1 3.63 2.02 3.1 1.9 3.91 1.78 5.21 1.75 4.75 1.96 2.53 2.85M28.72-65.76l.9.93 1.39 1.09 1.88 1.25 1.92 1.34 1.73 1.4 1.49 1.43 1.35 1.43 1.33 1.42 1.36 1.41 1.38 1.44 1.33 1.49 1.2 1.57 1.03 1.65.87 1.74.77 1.8.72 1.85.7 1.87.65 1.88.55 1.88.42 1.87.31 1.89.26 1.92.32 1.96.43 2 .49 2.05.43 2.06.2 2.07-.09 2.06-.33 2.01-.43 1.91-.3 1.88.21 2.32" filter="url(#a)"/><path d="m21.67-69.24 2.57 1.22 2.27 1.11 2.05.95 2 .92 2.01.97 1.99 1.1 1.95 1.19 1.97 1.26 2.03 1.28 2.07 1.28 2.09 1.28 2.05 1.32 1.95 1.4 1.85 1.49 1.79 1.6 1.76 1.7 1.79 1.78 1.85 1.82 1.91 1.84 1.96 1.82 1.94 1.78 1.91 1.77 1.88 1.77 1.94 1.86 2.11 2 2.34 2.15 2.46 2.23 2.31 2.18 1.91 2.04 1.63 1.98 1.95 1.87" filter="url(#a)"/><path d="m21.67-69.24 2.58 1.21 2.51 1.1 2.4.95 2.21.9 1.99.96 1.86 1.08 1.88 1.18 2.04 1.26 2.26 1.27 2.44 1.26 2.47 1.26 2.33 1.27 2.03 1.35 1.71 1.45 1.52 1.57 1.55 1.69 1.81 1.79 2.15 1.86 2.44 1.88 2.52 1.86 2.41 1.79 2.11 1.66 1.79 1.43 1.67 1.13 2.35 1.26" filter="url(#a)"/><path d="m21.67-69.24 2.63 1.22 2.37 1.1 2.1.96 1.89.91 1.74.97 1.66 1.09 1.67 1.19 1.7 1.26 1.71 1.27 1.7 1.28 1.64 1.27 1.57 1.31 1.5 1.38 1.47 1.48 1.48 1.6 1.51 1.69 1.55 1.79 1.57 1.83 1.57 1.84 1.54 1.82 1.48 1.78 1.4 1.72 1.34 1.72 1.31 1.8 1.34 1.99 1.41 2.26 1.39 2.38 1.12 2.09.34.99" filter="url(#a)"/><path d="m20.18-69.51 2.46.6 2.72.96 2.2 1 1.8.95 1.65.94 1.64 1 1.65 1.09 1.66 1.19 1.67 1.24 1.66 1.27 1.67 1.28 1.69 1.29 1.75 1.33 1.84 1.4 1.95 1.49 2.03 1.6 2.04 1.69 1.98 1.78 1.84 1.82 1.67 1.83 1.5 1.82 1.39 1.79 1.33 1.77 1.32 1.78 1.35 1.86 1.41 2 1.47 2.15 1.43 2.23 1.25 2.18.93 2.05.88 1.98 1.24 1.87" filter="url(#a)"/><path d="m18.37-70.12 4.47.84 2.26.86 2.55.88 2.88.88 2.77.9 2.42.97 2.16 1.05 2.16 1.16 2.45 1.25 2.87 1.32 3.31 1.38 3.59 1.39 3.57 1.4 3.27 1.39 2.77 1.41 2.34 1.43 2.22 1.51 2.47 1.59 3.02 1.69 3.55 1.8 3.77 1.89 3.61 1.92 3.32 1.86 3.29 1.81 3.51 1.92 2.71 2.41" filter="url(#a)"/><path d="m18.37-70.12 4.95.84 3.83.87 2.07.89 1.77.89 2.19.92 2.56.98 2.63 1.08 2.58 1.17 2.69 1.27 3.05 1.34 3.48 1.38 3.73 1.4 3.6 1.41 3.09 1.42 2.46 1.45 2.01 1.49L67-49.76l2.27 1.63 2.81 1.72 3.29 1.79 3.54 1.84 3.53 1.88 3.43 1.87 3.45 1.88 3.73 1.86 4.27 1.87 4.94 1.89 5.53 1.95 5.62 2.03 4.8 2.07 3.15 2.01 2.57 1.91 6.22 2.55" filter="url(#a)"/><path d="m17.73-70.32 1.41.34 2.41.51 2.63.72 2.53.85 2.35.92 2.24.94 2.24.96 2.33 1.02 2.44 1.1 2.51 1.18 2.49 1.22 2.46 1.26 2.41 1.28 2.38 1.3 2.33 1.34 2.24 1.42 2.16 1.49 2.09 1.6 2.1 1.69 2.22 1.77 2.4 1.81 2.66 1.83 2.94 1.82 3.2 1.8 3.43 1.79 3.55 1.81 3.55 1.88 3.41 2 3.2 2.12 3 2.19 2.83 2.17 2.67 2.05 2.62 1.93 2.81 1.79 2.06 1.49M14.54-71.41l2.14.79 1.3.57.99.6 1.04.73 1.24.83 1.38.89 1.32.93 1.11.97.85 1.02.65 1.1.53 1.16.41 1.22.23 1.26-.09 1.27-.44 1.29-.71 1.34-.79 1.4-.61 1.49-.27 1.59.08 1.69.24 1.76.11 1.82-.27 1.84-.78 1.82-1.26 1.79-1.58 1.76-1.68 1.77-1.61 1.84-1.44 2-1.37 2.19-1.65 2.29-2.45 2.19-3.23 1.98-1.98 2.45" filter="url(#a)"/><path d="m12.95-71.61 1.9.43 1.89.56 1.76.57 1.78.62 1.86.73 1.92.82 1.9.88 1.85.92 1.78.97 1.75 1.03 1.74 1.09 1.72 1.16 1.7 1.22 1.65 1.25 1.59 1.27 1.52 1.3 1.46 1.34 1.45 1.4 1.43 1.49 1.43 1.59 1.44 1.68 1.42 1.77 1.39 1.82 1.34 1.83 1.26 1.83 1.17 1.79 1.09 1.76 1.02 1.77.98 1.84.97 2 1 2.19.97 2.29.86 2.19.69 1.99.75 2.45" filter="url(#a)"/><path d="m10.92-72.21 3.25.54 2.92.61 2.47.59 2.6.63 2.84.68 2.82.75 2.5.81 2.1.87 1.88.91 1.99.97 2.43 1.05 3.05 1.14 3.65 1.22 4.11 1.31 4.38 1.35 4.51 1.39L62.98-56l4.54 1.4 4.42 1.39 4.22 1.43 3.99 1.48 3.96 1.57 4.21 1.68 4.7 1.82 5.27 1.95 5.69 2.03 5.6 1.81 5.7 1.34M5.45-72.73l-1.4-.19-1.73-.11-1.9-.03-2.01.04-2.15.12-2.41.19-2.73.25-3.04.33-3.2.39-3.19.44-3.03.51-2.8.57-2.62.63-2.58.69-2.75.76-3.02.83-3.34.89-3.55.96-3.61 1.01-3.52 1.05-3.39 1.09-3.32 1.13-3.35 1.17-3.5 1.23-3.64 1.3-3.76 1.41-3.81 1.51-3.92 1.6-4.17 1.66-4.59 1.68-5.1 1.65-5.63 1.59-6.18 1.55-6.72 1.62-7.01 1.97-7.89 3.11" filter="url(#a)"/><path d="m6.49-72.64-3.29-.34-2.33-.09-2.05.04-1.97.12-1.93.16-1.91.19-1.91.24-1.93.28-1.96.36-2.01.43-2.07.52-2.12.6-2.15.67-2.16.72-2.14.77-2.13.81-2.11.85-2.1.91-2.07.99-2.07 1.09-2.07 1.19-2.14 1.3-2.21 1.37-2.15 1.34-1.75 1.08-.96.43" filter="url(#a)"/><path d="m1.84-73.13-1.41-.01-2.14.06-2.15.13-2.08.19-2.08.27-2.18.33-2.31.4-2.44.46-2.55.51-2.59.57-2.62.63-2.64.7-2.7.76-2.81.84-2.93.9-3.03.96-3.03 1.02-2.92 1.05-2.67 1.1-2.35 1.13-2.03 1.17-1.79 1.24-1.71 1.31-1.79 1.41-2.02 1.51-2.33 1.6-2.66 1.65-2.96 1.67-3.25 1.65-3.46 1.61-3.55 1.62-3.44 1.71-3.27 1.98-3.36 2.39-4.18 2.43" filter="url(#a)"/><path d="m.63-73.13-2.04.05-2 .13-1.96.18-1.95.21-2.12.23-2.42.29-2.78.36-3.13.44-3.37.53-3.46.62-3.39.68-3.16.73-2.89.77-2.67.82-2.6.87-2.82.93-3.25 1.01-3.82 1.1-4.28 1.19-4.49 1.28-4.44 1.33-4.32 1.33-4.42 1.31-4.76 1.34-4.87 1.5-3.61 1.46" filter="url(#a)"/></g><g fill="none" stroke="#000"><circle cx="12.672" cy="28.798" r="1.782" filter="url(#a)"/><circle cx="12.496" cy="29.322" r="2.47" filter="url(#a)"/><circle cx="12.116" cy="27.63" r="1.374" filter="url(#a)"/><circle cx="10.164" cy="26.55" r="1.876" filter="url(#a)"/><circle cx="11.808" cy="28.438" r="2.676" filter="url(#a)"/><circle cx="12.744" cy="26.346" r="2.98" filter="url(#a)"/><circle cx="12.36" cy="26.838" r="2.3" filter="url(#a)"/><circle cx="12.8" cy="29.242" r="1.674" filter="url(#a)"/><circle cx="11.3" cy="26.926" r="1.354" filter="url(#a)"/><circle cx="12.488" cy="26.478" r="1.232" filter="url(#a)"/><circle cx="-11.108" cy="26.392" r="1.984" filter="url(#a)"/><circle cx="-7.944" cy="26.04" r="1.272" filter="url(#a)"/><circle cx="-8.116" cy="25.396" r="2.202" filter="url(#a)"/><circle cx="-11.268" cy="26.968" r="2.822" filter="url(#a)"/><circle cx="-10.732" cy="26.816" r="2.358" filter="url(#a)"/><circle cx="-8.344" cy="26.004" r="2.89" filter="url(#a)"/><circle cx="-9.072" cy="24.728" r="2.596" filter="url(#a)"/><circle cx="-10.156" cy="24.224" r="1.37" filter="url(#a)"/><circle cx="-10.436" cy="26.648" r="2.152" filter="url(#a)"/><circle cx="-11.344" cy="26.736" r="2.354" filter="url(#a)"/></g><path fill="#CC6866" stroke="#000" stroke-linejoin="round" stroke-width="3" d="m36.57 45.76-.02.44.13.65-.03-.15-.1.46-.22.56.06.16-.28.48-.08.19-.27.32.01.01.1-.09-.28.47-.59.46-.43.57.25-.35-.56.67-.38.25.09-.02-1.2.87.33-.21-1.71 1.15-1.09.64 1.32-.74-1.65.9-.14.1-1.61.9 1.12-.65-.74.41-1.54.8-1.02.49-1.42.61-.5.2 1.41-.63-.73.36-1.27.51-.71.29-2.33.85-1.01.36 1.78-.62-1.42.49-2.51.83 1.51-.49-2.45.77-.97.28.12-.03-.28.09-1.34.36-1.38.36-1.7.42-1.78.41-.11.02 1.15-.25-1.13.25-.23.05-3.21.64-.4.06-1.59.27-1.13.18 1.86-.29-3.16.45-1.19.16-.42.02-1.61.16-.45.06.71-.09-2.32.17-.98.09 1.01-.07-1.71.08.84-.02-2.45.02.44.05-1.8-.08.61.08-2.45-.14-.15.02-.64-.11-1.24-.12.33-.02-1.11-.16.14.03.02.05-.29-.01-1.42-.32-.85-.34-.18-.05.6.16-.81-.21-.47-.29-.24-.11-.12-.07-1.11-.56.26.26-.14-.14-.21-.38-.29-.02.08-.2-.35-.18-.38-.68-.11-.49.14-.04-.12-.57.1.13-.12.02.26-.57.18-.55-.27.46.33-.83.06-.02.25-.23.8-1.07v.07l.16-.28.56-.45-.13.02.18-.13 1.42-1.14-.68.51.36-.38 1.01-.66.89-.61.04.04.83-.52-.35.2 1.94-1.12-.24.16-.14.03 2.25-1.08.23-.16-1.04.54 1.25-.6.35-.14 1.11-.54.98-.41 1.36-.52.14-.04 1.95-.73-1.09.38 3.14-1.09.22-.08-1.2.4 2.44-.78 1.53-.46-.46.13.96-.28 2.14-.58 1.29-.33.15-.04-.27.07 2.6-.61-.99.23 1.64-.37 2.02-.4-.53.1 2.45-.46-1.12.2 2.44-.41.1-.02h.02l2.31-.34 1-.11.78-.08-.69.07 2.54-.23.18-.04-.06.02 1.8-.12-.94.05 2.25-.11 1.45-.03h-1.47l2.85.02-.02-.04-.42-.01 2.46.14-.06-.04.38.05.62.05.97.11-.49-.07.31.07.82.15 1.49.24-.52-.02.37.07 1.36.37-.25-.16.84.43.64.26.53.29-.01-.07.05.16.44.4-.26-.25.36.09.57.95-.2-.27.46.49-.02.1" filter="url(#a)"/></svg>