<svg xmlns="http://www.w3.org/2000/svg" width="500" height="500" viewBox="-100 -100 200 200"><defs><clipPath id="c"><path d="m25.32-1.21-.06-.8-.09-.79-.13-.77-.16-.77-.19-.75-.23-.74-.26-.73-.3-.71-.32-.69-.36-.68-.38-.66-.42-.64-.44-.62-.47-.6-.5-.58-.47-.76-.51-.73-.56-.7-.59-.67-.64-.64-.67-.6-.71-.56-.74-.53-.77-.49-.8-.45-.83-.41-.85-.38-.87-.33-.89-.29-.91-.26-.92-.21-.93-.18-.95-.13-.94-.1-.96-.06-.95-.03-.95.01-.95.05-.95.08-.94.11-.92.15-.92.18-.9.2-.89.24-.88.26-.85.29-.84.31-.82.33-.79.36-.78.37-.75.4-.73.41-.7.42-.68.44-.66.45-.63.47-.61.47-.58.48-.56.49-.53.49-.52.49-.49.5-.47.5-.45.5-.43.5-.42.5-.39.5-.38.5-.36.51-.34.5-.32.5-.31.5-.29.5-.27.5-.26.5-.25.49-.23.5-.21.48-.2.49.67 8.61.23.49.25.49.26.48.27.49.28.48.29.48.3.48.32.48.33.48.34.47.35.46.37.46.38.46.4.45.4.45.43.45.43.44.46.44.47.43.48.43.51.42.51.41.54.4.56.39.57.37.59.37.6.35.63.33.64.32.65.3.68.29.69.26.7.24.72.22.73.2.75.18.76.15.76.12.79.11.78.07.8.04.81.02.81-.01.82-.04.82-.07.82-.1.82-.13.83-.16.82-.2.82-.22.81-.26.81-.29.8-.32.79-.35.78-.38.77-.42.75-.44.74-.48.72-.5.71-.53.68-.56.67-.59.64-.61.62-.64.58-.52.55-.54.54-.55.53-.58.5-.6.49-.62.47-.64.45-.66.43-.68.41-.7.39-.72.36-.74.34-.76.31-.78.29-.79"/></clipPath><clipPath id="b"><path d="m-26.57-2.25.05-.77.08-.77.12-.75.16-.75.19-.74.22-.72.25-.72.29-.7.32-.69.35-.68.38-.66.42-.65.44-.63.46-.62.5-.6.46-.75.5-.73.55-.7.59-.68.63-.66.68-.63.7-.59.75-.57.77-.54.81-.5.84-.47.86-.43.88-.4.91-.36.92-.32.94-.29.95-.25.96-.22.97-.17.97-.14.97-.1.98-.07.97-.03.96.01.96.04.95.08.94.11.93.14.91.18.89.2.88.24.85.26.84.29.81.32.8.34.76.37.75.38.72.41.69.43.67.44.64.46.62.47.59.48.57.5.54.5.52.51.5.52.47.52.46.53.43.52.42.53.39.54.38.54.36.54.33.54.32.55.31.55.28.55.27.55.25.55.24.55.22.55.21.54.19.55-.25 10.98-.24.49-.24.49-.26.49-.27.5-.28.49-.29.5-.29.5-.31.5-.32.5-.32.49-.34.5-.35.5-.36.49-.37.5-.38.49-.4.49-.4.49-.42.49-.44.49-.44.48-.46.48-.48.47-.49.47-.5.46-.52.45-.54.43-.54.43-.57.41-.57.39-.6.38-.6.36-.62.35-.64.32-.65.3-.66.27-.67.25-.69.23-.7.2-.71.17-.72.14-.74.11-.74.07-.75.05-.76.01-.77-.03-.77-.05-.78-.1-.79-.13-.79-.17-.79-.21-.79-.25-.8-.28-.79-.32-.8-.36-.79-.4-.79-.44-.78-.47-.78-.51-.77-.55-.77-.58-.75-.62-.74-.64-.74-.68-.71-.71-.63-.53-.61-.55-.6-.57-.6-.59-.57-.6-.57-.63-.55-.64-.54-.65-.52-.68-.5-.68-.48-.7-.47-.71-.44-.72-.42-.73-.4-.74"/></clipPath><filter id="a"><feTurbulence baseFrequency=".05" numOctaves="3" result="noise" type="noise"/><feDisplacementMap in="SourceGraphic" in2="noise" scale="2"/></filter></defs><rect width="100%" height="100%" x="-100" y="-100" fill="#F2A6DB"/><path fill="#20DF59" stroke="#000" stroke-linejoin="round" stroke-width="1.667" d="m57.29-.57.06 1.21-.06 3.63-.09-1.82.05 2.5-.19 1.69-.24 3.87.05-.53.05.37-.43 4.76.22-.57-.41 1.71.28-.81-.39 3.62.1-1.59-.17 1.83-.43 2.95-.38 2.71-.22-.21-.55 2.7-.26 1.78.21-.6-.85 3.87-.35 1.53.4-1.68-.83 3.08-.73 2.06.64-1.66-.49 1.26-1.02 3.64-.23.93-.93 2.88-.17.5.5-1.78-.85 2.57-1.07 3.02.02-.69-1.44 3.12.82-.8-.3.11-.93 2.27-1.04 1.97-.32.89-.51.62-.01.53-2.12 3.52.83-1.11-1.48 2.78-.4.77-1.03 1.66.38-.71-1.03 1.71-.47.66-1.46 1.98.46-.76-.82 1.25-.95 1.25-.7.63-.85 1.54-1.17 1.19.46-.89-2.26 2.83.27-.41-.38.5-1.29 1.32-.79.9-.08.04-.58.49-1.78 1.77.23.11-2.31 1.37-.59.72.18-.13-2.67 1.91-.14.1-1.32.52h.52l-1.52.67-.08-.01-1.44.79.09.1-1.48.83-.21.02-.78.37-2.1 1.2.45-.47-2.33 1.09.26-.28-2.83 1.2 1.63-.89-1.38.73-.97.16-2.21.64-.95-.06-.62-.07.4.35-1.37-.08-2.11.14.06.28-.64-.35-1.84.01-1.28.23-.76-.1-.68-.22-.09.11-1.52-.25-.17.08-.59-.17-1.38-.14-1.22-.28.45-.12-2-.01-.07-.24-.46-.11-2.91-1.03.17-.16-1.9-.25-.07-.18.02-.27-2.84-1.29-.4-.1-.81-.66.19.28-.99-.29-2.38-1.5.64.46-.77-.69-2.23-1.93-.17.01-.69-.25.35.23-2.41-1.93-.58-.92.01-.01-1.44-1.2-.66-.6-.58-.44-1.22-1.47-.61-.17-1.28-1.5-.23-.74-.45-.32-.52-.64-1.4-1.49-.38-.7-.78-1.36-.22-.17-.15-.43-1.32-1.48-1.49-1.79.06-.01-.51-1.3-.5-.69-.36-.77-.92-1.68-.37-.26-1.23-2.11-.33-1.23.43 1.2-.39-1.26-1.74-3.13.11.17-.59-1.99-.79-1.73-.1-.11-1.01-2.31-.14-.33-.2-.9-1.04-2.26.11.1-.72-1.9-.5-1.68-1.17-3.65.37.56-.31-1.67-.82-1.86.64 1.45-.68-2.31-.56-1.87-.04-.95-.14-.08-.83-4.12.03.91-.42-3.7-.17-.4-.7-3.8.08.18-.19-2.49-.11-.68-.01-.33-.03-.9-.37-1.44.12-.11-.23-4.56-.2.45-.12-1.39.04-2.2.1-.48-.1-2.95-.21-.45.25-3.27-.05-1.17-.2 1.63.4-4.75-.01-.33-.01-.89-.13-.2.14-.86.3-2.52-.09-1.39.27-2.39-.22.78.55-3.19.18-.73.2-2.82-.14 1.28.53-3.88.5-1.88-.09.36.3-2.41.32-.72.16-1.47.41-1.39.32-2.19-.09.53.32-.64.34-2.3.96-3.22-.33 1.41 1.11-3.48.3-1.07.36-1.14.7-2.35.63-1.2.02.27.59-1.91.35-.83.52-1.25.34-.87.85-2.01.65-1.74.52-.64.22-.52 1.01-1.9-.24.65 1.53-3.12-.21.34-.13.56 2.14-4.23.01.25.99-1.62.33-.51 1.68-2.2-.34.58.67-1.25.49-.93 1.19-.88.68-1.14 1.6-1.87-.86.91 1.92-2.54-.97 1.24.17-.11 1.81-2.1.85-.82.28.04 2.49-2.74-.85.84 1.61-1.69.92-.45 1-.84.33-.16.42-.58.12-.09 2.05-1.41.93-.86 1.47-.57.94-.38-.63.34 1.05-.73 1.69-.72.23-.3 1.67-.57.48-.53.72-.03.4-.24 1.47-.37-.16-.21 2.56-.55-.84.14 2.1-.62.75-.44.87.2 1.91-.35-.17-.03 1 .02 1.37-.14 1-.35-.57.35 1.19-.39 1.85.02.27.24.54-.16.43-.12.94.1 1.59.41 1.03-.02.32.05 2.11.45 1 .32.97.29.97-.08.79.64 1.02.29-.75-.35.5.3 1.82.42.77.69 2.45.93-1.97-1.13 2.41 1.11.03.19.91.82 2.34.9.19.31-1.07-.55 1.58.99 1.39.98 2.17 1.71-.22-.49 1.15 1.09.89.86.32-.05.45.54.95 1.3.73.53.93.72-.24-.22 1.87 1.61.74.87.16.34 1.11 1.29.8 1.25 1.38 1.57.27.34.48.36.95 1.43.29.71.41.37.54 1.05 1.16 1.68.18.06.72 1.68 1.4 2.03-.69-1.26 1.63 3.11-.24-1.07 1.17 2.81-.12-.25.57 1.01.86 1.38.1.87.8 1.65 1.14 2.76-.05-.11.42 1.01.45 1.47 1.24 2.86.28.88.08.3.59 1.21.34 1.77.4 1.83.49.48-.08.68.89 3.07h.2l.41 2.02.01.11.46 1.29.03 1.52.47 2.22.54 3.31.33 1.35-.25-.86.4 1.54-.18-.08.64 2.86.14 1.73.41 2.67.11 2.27.12-.26-.14-.62.11 2.69.15 3.52.15-1.85.04 1.27.01 2.11-.04 3.27.22 1.7-.17-.55.06 1.21" filter="url(#a)"/><path fill="#fff" d="m-26.57-2.25.05-.77.08-.77.12-.75.16-.75.19-.74.22-.72.25-.72.29-.7.32-.69.35-.68.38-.66.42-.65.44-.63.46-.62.5-.6.46-.75.5-.73.55-.7.59-.68.63-.66.68-.63.7-.59.75-.57.77-.54.81-.5.84-.47.86-.43.88-.4.91-.36.92-.32.94-.29.95-.25.96-.22.97-.17.97-.14.97-.1.98-.07.97-.03.96.01.96.04.95.08.94.11.93.14.91.18.89.2.88.24.85.26.84.29.81.32.8.34.76.37.75.38.72.41.69.43.67.44.64.46.62.47.59.48.57.5.54.5.52.51.5.52.47.52.46.53.43.52.42.53.39.54.38.54.36.54.33.54.32.55.31.55.28.55.27.55.25.55.24.55.22.55.21.54.19.55-.25 10.98-.24.49-.24.49-.26.49-.27.5-.28.49-.29.5-.29.5-.31.5-.32.5-.32.49-.34.5-.35.5-.36.49-.37.5-.38.49-.4.49-.4.49-.42.49-.44.49-.44.48-.46.48-.48.47-.49.47-.5.46-.52.45-.54.43-.54.43-.57.41-.57.39-.6.38-.6.36-.62.35-.64.32-.65.3-.66.27-.67.25-.69.23-.7.2-.71.17-.72.14-.74.11-.74.07-.75.05-.76.01-.77-.03-.77-.05-.78-.1-.79-.13-.79-.17-.79-.21-.79-.25-.8-.28-.79-.32-.8-.36-.79-.4-.79-.44-.78-.47-.78-.51-.77-.55-.77-.58-.75-.62-.74-.64-.74-.68-.71-.71-.63-.53-.61-.55-.6-.57-.6-.59-.57-.6-.57-.63-.55-.64-.54-.65-.52-.68-.5-.68-.48-.7-.47-.71-.44-.72-.42-.73-.4-.74" filter="url(#a)" transform="translate(29.22 -33.11)"/><path fill="#fff" d="m25.32-1.21-.06-.8-.09-.79-.13-.77-.16-.77-.19-.75-.23-.74-.26-.73-.3-.71-.32-.69-.36-.68-.38-.66-.42-.64-.44-.62-.47-.6-.5-.58-.47-.76-.51-.73-.56-.7-.59-.67-.64-.64-.67-.6-.71-.56-.74-.53-.77-.49-.8-.45-.83-.41-.85-.38-.87-.33-.89-.29-.91-.26-.92-.21-.93-.18-.95-.13-.94-.1-.96-.06-.95-.03-.95.01-.95.05-.95.08-.94.11-.92.15-.92.18-.9.2-.89.24-.88.26-.85.29-.84.31-.82.33-.79.36-.78.37-.75.4-.73.41-.7.42-.68.44-.66.45-.63.47-.61.47-.58.48-.56.49-.53.49-.52.49-.49.5-.47.5-.45.5-.43.5-.42.5-.39.5-.38.5-.36.51-.34.5-.32.5-.31.5-.29.5-.27.5-.26.5-.25.49-.23.5-.21.48-.2.49.67 8.61.23.49.25.49.26.48.27.49.28.48.29.48.3.48.32.48.33.48.34.47.35.46.37.46.38.46.4.45.4.45.43.45.43.44.46.44.47.43.48.43.51.42.51.41.54.4.56.39.57.37.59.37.6.35.63.33.64.32.65.3.68.29.69.26.7.24.72.22.73.2.75.18.76.15.76.12.79.11.78.07.8.04.81.02.81-.01.82-.04.82-.07.82-.1.82-.13.83-.16.82-.2.82-.22.81-.26.81-.29.8-.32.79-.35.78-.38.77-.42.75-.44.74-.48.72-.5.71-.53.68-.56.67-.59.64-.61.62-.64.58-.52.55-.54.54-.55.53-.58.5-.6.49-.62.47-.64.45-.66.43-.68.41-.7.39-.72.36-.74.34-.76.31-.78.29-.79" filter="url(#a)" transform="translate(-38.79 -26.71)"/><g fill="none" stroke="#000" transform="translate(29.22 -33.11)"><path stroke-linejoin="round" stroke-width="1.667" d="m-25.09 5.55-.31-.77-.27-.77-.24-.78-.2-.79-.17-.78-.13-.79-.09-.78-.06-.79-.02-.78.01-.77.05-.77.08-.77.12-.75.16-.75.19-.74.22-.72.25-.72.29-.7.32-.69.35-.68.38-.66.42-.65.44-.63.46-.62.5-.6.46-.75.5-.73.55-.7.59-.68.63-.66.68-.63.7-.59.75-.57.77-.54.81-.5.84-.47.86-.43.88-.4.91-.36.92-.32.94-.29.95-.25.96-.22.97-.17.97-.14.97-.1.98-.07.97-.03.96.01.96.04.95.08.94.11.93.14.91.18.89.2.88.24.85.26.84.29.81.32.8.34.76.37.75.38.72.41.69.43.67.44.64.46.62.47.59.48.57.5.54.5.52.51.5.52.47.52.46.53.43.52.42.53.39.54.38.54.36.54.33.54.32.55.31.55.28.55.27.55.25.55.24.55.22.55.21.54.19.55.18.54.16.53.15.54.14.53.13.53.12.52.1.52.1.51.08.51.08.5" filter="url(#a)"/><path stroke-linejoin="round" stroke-width="2.222" d="m-27.67-2.11.09.73.14.75.16.75.2.75.24.76.26.76.29.76.32.76.35.75.38.75.4.74.42.73.44.72.47.71.48.7.5.68.52.68.54.65.55.64.57.63.57.6.6.59.6.57.61.55.63.53.71.71.74.68.74.64.75.62.77.58.77.55.78.51.78.47.79.44.79.4.8.36.79.32.8.28.79.25.79.21.79.17.79.13.78.1.77.05.77.03.76-.01.75-.05.74-.07.74-.11.72-.14.71-.17.7-.2.69-.23.67-.25.66-.27.65-.3.64-.32.62-.35.6-.36.6-.38.57-.39.57-.41.54-.43.54-.43.52-.45.5-.46.49-.47.48-.47.46-.48.44-.48.44-.49.42-.49.4-.49.4-.49.38-.49.37-.5.36-.49.35-.5.34-.5.32-.49.32-.5.31-.5.29-.5.29-.5.28-.49.27-.5.26-.49.24-.49.24-.49.24-.49.22-.48.21-.48.21-.48.2-.47.19-.47.18-.47.17-.46.17-.46.16-.46" filter="url(#a)"/><circle cx=".603" cy="1.866" r="3.49" clip-path="url(#b)" filter="url(#a)"/><circle cx="-1.747" cy="-1.749" r="3.676" clip-path="url(#b)" filter="url(#a)"/><circle cx="1.543" cy="-1.929" r="4.354" clip-path="url(#b)" filter="url(#a)"/><circle cx=".973" cy="1.831" r="4.562" clip-path="url(#b)" filter="url(#a)"/><circle cx="-1.132" cy=".996" r="4.174" clip-path="url(#b)" filter="url(#a)"/><circle cx="-1.092" cy="-2.629" r="3.104" clip-path="url(#b)" filter="url(#a)"/><circle cx="1.798" cy="-1.904" r="3.094" clip-path="url(#b)" filter="url(#a)"/><circle cx="2.113" cy="-1.794" r="4.282" clip-path="url(#b)" filter="url(#a)"/><circle cx=".733" cy="-1.699" r="4.152" clip-path="url(#b)" filter="url(#a)"/><circle cx="1.353" cy="-2.409" r="4.256" clip-path="url(#b)" filter="url(#a)"/></g><g fill="none" stroke="#000" transform="translate(-38.79 -26.71)"><path stroke-linejoin="round" stroke-width="2.222" d="m23.86 6.91.32-.8.27-.81.24-.81.2-.82.16-.82.13-.82.09-.81.05-.82.02-.81-.02-.8-.06-.8-.09-.79-.13-.77-.16-.77-.19-.75-.23-.74-.26-.73-.3-.71-.32-.69-.36-.68-.38-.66-.42-.64-.44-.62-.47-.6-.5-.58-.47-.76-.51-.73-.56-.7-.59-.67-.64-.64-.67-.6-.71-.56-.74-.53-.77-.49-.8-.45-.83-.41-.85-.38-.87-.33-.89-.29-.91-.26-.92-.21-.93-.18-.95-.13-.94-.1-.96-.06-.95-.03-.95.01-.95.05-.95.08-.94.11-.92.15-.92.18-.9.2-.89.24-.88.26-.85.29-.84.31-.82.33-.79.36-.78.37-.75.4-.73.41-.7.42-.68.44-.66.45-.63.47-.61.47-.58.48-.56.49-.53.49-.52.49-.49.5-.47.5-.45.5-.43.5-.42.5-.39.5-.38.5-.36.51-.34.5-.32.5-.31.5-.29.5-.27.5-.26.5-.25.49-.23.5-.21.48-.2.49-.19.48-.18.47-.16.48-.15.46-.14.47-.13.45-.12.46-.11.44-.1.45-.09.43" filter="url(#a)"/><path stroke-linejoin="round" stroke-width="2.222" d="m26.39-5.93.02.96-.02.94-.05.93-.08.91-.12.9-.15.88-.17.86-.21.85-.23.83-.26.82-.29.79-.31.78-.34.76-.36.74-.39.72-.41.7-.43.68-.45.66-.47.64-.49.62-.5.6-.53.58-.54.55-.55.54-.58.52-.62.64-.64.61-.67.59-.68.56-.71.53-.72.5-.74.48-.75.44-.77.42-.78.38-.79.35-.8.32-.81.29-.81.26-.82.22-.82.2-.83.16-.82.13-.82.1-.82.07-.82.04-.81.01-.81-.02-.8-.04-.78-.07-.79-.11-.76-.12-.76-.15-.75-.18-.73-.2-.72-.22-.7-.24-.69-.26-.68-.29-.65-.3-.64-.32-.63-.33-.6-.35-.59-.37-.57-.37-.56-.39-.54-.4-.51-.41-.51-.42-.48-.43-.47-.43-.46-.44-.43-.44-.43-.45-.4-.45-.4-.45-.38-.46-.37-.46-.35-.46-.34-.47-.33-.48-.32-.48-.3-.48-.29-.48-.28-.48-.27-.49-.26-.48-.25-.49-.23-.49-.23-.49-.21-.49-.21-.49-.19-.49-.19-.48-.17-.49-.17-.49-.16-.48-.15-.49-.14-.48" filter="url(#a)"/><circle cx="14.639" cy="5.071" r="3.24" clip-path="url(#c)" filter="url(#a)"/><circle cx="17.154" cy="4.866" r="3.74" clip-path="url(#c)" filter="url(#a)"/><circle cx="18.749" cy="1.826" r="3.566" clip-path="url(#c)" filter="url(#a)"/><circle cx="15.049" cy="1.491" r="3.834" clip-path="url(#c)" filter="url(#a)"/><circle cx="17.784" cy="2.936" r="3.576" clip-path="url(#c)" filter="url(#a)"/><circle cx="17.934" cy="3.606" r="3.16" clip-path="url(#c)" filter="url(#a)"/><circle cx="14.699" cy=".241" r="4.25" clip-path="url(#c)" filter="url(#a)"/><circle cx="14.719" cy="3.161" r="3.82" clip-path="url(#c)" filter="url(#a)"/><circle cx="14.844" cy="1.816" r="3.292" clip-path="url(#c)" filter="url(#a)"/><circle cx="16.194" cy="1.336" r="3.98" clip-path="url(#c)" filter="url(#a)"/></g><g fill="none" stroke="#351386" stroke-linejoin="round" stroke-width="2"><path d="M50.41-43.14 11.4-64.34l-24.92-1.8-5.45-.35 7.8-1.78 12.28-2.5 10.37-2.57 5.93-2.42 1.93-2.07-.36-1.43-1.19-.55-1.42.21-1.67.59-1.92.61-1.77.6-.94 1.01-.16 1.8-.85 2.26-3.51 1.57-5.57-.33-2.06-2.36 5.35-4.44L-8.52-89.8" filter="url(#a)"/><path d="M-19.89-85.07 5.86-68.8l-4-1.01-7.53-2.96-5.35-1.18-.78.27 3.2.2 4.32-1.06 2.82-2.39.47-2.78-1.08-1.94-.64-.13 3.07 2.81 10.77 7.21 18.46 9.6 7.61-7.11" filter="url(#a)"/><path d="m-4.16-90.4-.72 1.06 5.04 4.25 4.01 6.3.58 4.33-.3 1.18 1.6-.6 3.58-.95 3.72-.87 2.35-.82.99-.52.41.21-.03.98-1.16 1.37-1.87 1.84 1.22 3.92 9.84 8.49 17.22 12.77 8.17 4.62" filter="url(#a)"/><path d="M30.63-76.68 8.94-83.16l-2.96 1.13.54.86-1.04-.55-1.35-.45-.89.48-1.58 1.01-3.2.66-3.88-.3-2.5-1.25-.22-1.34.95.01 1.11 2.66 4.8 5.32 17.74 7.75 32.43 20.29" filter="url(#a)"/><path d="m25.21-81.67-31 10.83-6.71.16-4.7-1.24-2.16-1.86.86-1.62 3.42-.41 5.94.83 8.16 1.25 8.76.86 6.76.28 2.5.13-2.54.44-6.66.57-8.17.04-4.96-.06 6.59 3.31 42.25 8.68" filter="url(#a)"/><path d="m-43.33-59.3 26.3-18.05 9.04.81 4.5 6.13.94 3.91-1.66.76-.73-.66 2.4-.74 3.76-.76 1.1-1.48-4.14-2.54-8.17-2.95-8.34-2.08-4.99-.43-.73.69.12 1.58-17.25 11.83" filter="url(#a)"/><path d="m-28.2-79.22 43.27 11.26 9.27-.99 1.92.16 1.2 3.24-1.12 3.46-4.53 1.5-6.59-.57-6.38-1.67-4.4-1.68-1.46-.82 1.8.66 4.21 2.17 4.71 2.68 4.94 1.36 10.41-.83 11.5-4.74" filter="url(#a)"/><path d="m33-74.42-39.04-.44-13.16 4.59 6 3.94L.29-63.11l11.35 1.19 5.24-1.68-.21-3.82-3.33-4.41-4.49-3.65-4.47-2.13-3.65-.47-2.23.71-.54.98.85.22 1.56-.95 1.75-1.48 2.11-.37 3.8 2.61 7.66 6.41 12.34 8.17 11.19 3.02-2.77-11.21" filter="url(#a)"/><path d="m-19.89-85.07 3.92-1.01 9.29.96 9.44 2.96 4.13 2.52-1.52.52-3.81-1.26-2.82-1.67-.4-.39 1.91 1.92 2.98 4.04.93 4.75-5.91 3.64-14.57 1.27-14-2.6 5.55-12.68" filter="url(#a)"/><path d="m20.29-84.86 8.46 13.7-.72 2.32-3.3-.18-7.07-2.96-8.03-4.26-4.96-3.27.1-1.05 4.32.92 6.12 1.79 5.5 1.62 3.52 1.06 1.23.74-1.02.91-3.11 1.53-4.38 2.13-3.11 1.53.65-3.08-13-19.42" filter="url(#a)"/><path d="M-19.26-85.41 1.1-81.4l7.84 6.2 4.99 5.38 1.88 2.86 1.4 1 2.65-.17 3.15-1.42 1.94-2.77-.34-3.68-2.82-3.65-5.17-2.66-7.23-.95-8.33 1.32-7.09 3.79L-8-70.56l6.99 5.24 15.57 1.48 15.15-4.44 6.74-1.69" filter="url(#a)"/><path d="m-31.82-75.7 28.64-7.2 11.22-.31 3.13 2.69-.8 3.65-2.08 3.16L5.77-72 3-71.91.37-72.93l-1.88-1.38-.56-1.07.89-.32 1.81.45 1.6.82.22.53-1.29-.19-1.3-.75.91-.55 3.25.42 1.79 1.69.17 2.49 30.47.82" filter="url(#a)"/><path d="m-45.51-55.31 17.56-11.02 17.46 4.51 11.75 1.98 1.93-3.27-3.18-5.78-2.54-5.3.17-3.35 1.46-1.35h.39l-1.82.71-3.17 1.05-2.5 1.36-.25 1.74 1.93 2.19 2.59 2.27 1.83 1.1 1.82-1.94 5.4-5.47 11.07-5.57 5.48-2.42" filter="url(#a)"/><path d="m-12.34-88.77 10.46 5.22L14.03-78l9.18 3.62 2.62 1.87-2.91.18-7.56-1.13L5.27-75.1l-9.25-1.51-5.4-1.02-.99-.28.63.87-2.28 2.19-7.71 2.84-10.19 2.13-6.71 1.37-4.55 5.23" filter="url(#a)"/><path d="m38.15-67.84-5.12 5.44L21-71.28 15.31-75l-.95 1.69 1.21 3.24 1.9 2.24 1.35.5-.39-1.05-2.5-1.93-3.65-1.84-2.93-.76-.73.72 1.48 1.65 2.01 1.16.24-.68-2.87-2.89-5.24-3.98-5.18-3.05-2.54-.11 1.84 4.06 8.22 7.78 16.15 5.87 5.29-16.85" filter="url(#a)"/><path d="m34.27-72.79-7.09.36-.61 2.39-2.42-2.17-1.23-1.14-.15 1.22-1.71 1.57-5 .19-7.75-1.27-8.69-1.69-7.97-1.12-6.12-.21-3.03.41 1.52.56 6.66.74 10.55 1.83L14-66.94l16.18 6.28 12.67.4" filter="url(#a)"/><path d="M54.23-28.86 8.42-62.56-.23-76.81l-1.29-2.8-2.32 2.74-4.24 4.26-4.15 3.58-1.86 2.17 1.17.8 3.41-.21 4.28-.72 4.17-.65 3.79-.11 3.58.51 3.51.62 3.18-.2 2.26-1.79.87-3.32-.37-3.8-.66-2.79.03-1.19.93-.67 1.43-1.87-5.08-6.3" filter="url(#a)"/><path d="m38.85-66.76-28.52-2.68 2.51 3.26-1.73.13-6.73-4.35-4.87-5.91.33-4.62 4.44-2 5.3.5 2.61 1.76-2.62 1.5-7.69.31-8.18-.74-.27-1.11 14.6-.43 24.23 5.85" filter="url(#a)"/><path d="m-8.52-89.8 22.73 9.85.37-1.37.54.58 4.71 3.68 6.41 4.53 5.37 3.58 2.84 1.86-.18.03-3.19-1.58-5.87-2.66-7.9-3-9.01-2.61-8.98-1.69-7.78-.59-5.55.39-2.74.91-.32.79.43.13-.7-.82-.86-2.18 5.08-4.76 14.61-6.1" filter="url(#a)"/><path d="M53.73-31.78 14.92-67.6l-4.98-9.87 4.63.23 1.7 1.74-3.98-.16-7.32-2.07-7.58-2.62-5.92-1.88-3.51-.6-.91.63 1.67 1.5 3.96 1.97 5.74 2.05 6.78 1.66 6.89.82 5.76-.29 3.53-1.22 1.5-1.32h1.67l2.5.95-9.13-10.26" filter="url(#a)"/><path d="m-38.18-67.61 26.68-12.36L2.19-81.3l12.48 3.48 9.7 5.45 4.86 5.24.08 3.35-2.32 1.1-1.35-.21 1.78-.2 4.51.72 5.13 1.96 4.1 3.03 2.86 3.06 1.49.57.52-.78" filter="url(#a)"/><path d="m-14.77-87.92 2.39 10.44 13.3 2.31 11.05 1.39 7.87 1.39 3.9.11-.42-1.51L19-75.96l-7.15-1.5-8.21.19-6.95 2.15-3.51 3.46.99 3.3 4.88 1.53 7.21-1.14 8.16-2.93 8.19-1.52 8.46 6.11 21.24 28.76" filter="url(#a)"/><path d="m25.21-81.67 3.47 8.63.87 9.08-6.03 3.33-7.01.59-4.06-.46-.46-1.21 1.98-1.96 2.89-2.56 2.74-2.72 2.11-2.34 1.3-1.5.39-.56-.58.06-1.57.01-2.39-.71-2.83-1.73-2.71-2.51-1.99-2.53-.54-1.51 1.91.85 5.45 4.59 8.09 8.19 2.98 4.66L5.8-90.41" filter="url(#a)"/><path d="m12.66-88.5-28.87 17.75 7.55 8.4 16.34 3.04 9.99-1.09 2.41-3.12-.82-2.65-.56-.81.52.83 1.06 1.5 1.07 1.28.89.53.57-.35.06-1.26-.6-2.26-1.64-3.68-3.92-5.62-7.04-7.13-6.56-5.84 2.37-1.48m-4.8-.45.36-1.25.5-.12h.7l.87-.19.99-.34 1.07-.33 1.09-.17 1.11-.04 1.1.04 1.05.01.98-.06.88-.14.76-.21.68-.28.68-.29.8-.17 1.09.02 1.49.11 2.1.24" filter="url(#a)"/><path d="m16.36-81.09-1.71-.92-1.16-.97-.85-.63-.64-.38-.54-.35-.55-.45-.63-.58-.74-.67-.84-.7-.92-.64-.98-.55-1-.41-.99-.27-.96-.15-.9-.05-.82.01-.77.05-.75.05-.76.02-.78-.05-.71-.18-.53-.51-.62-1.12-1.14-.26-.9-.67-.9-.68-.96-.39-1-.03-.98.21-.97.33-.93.33-.91.27-.87.23-.84.21-.81.23-.79.25-.82.23-.88.17-.97.09-1.02.08-1 .12-.76.12-.07-.38 3.59-5.69h.62l.85.99.9.85.92.61.95.45.96.29.96.11h.97l.99-.06 1-.16.96-.34.89-.45.84.06.92 1.32 1.2 1.56" filter="url(#a)"/><path d="m-2.79-90.54.59-.01.54.03.72-.05.79-.07.78-.03.75.02.78.09.84.15.91.22.97.27 1.01.29 1.03.3 1.03.3.98.28.9.29.8.29.69.3.58.31.57.31.67.35.93.44 1.27.62 1.8.9-42.58-27.88.58 2.7 1.29 1.65 1.51 1.38 1.42.89 1.25.42 1.13.47 1.13 1.04 1.19 1.75 1.25 2.18 1.26 2.15 1.21 1.72 1.14 1.13 1.08.58 1.06.2 1.05.1 1.05.44 1.02 1.22.89 1.7.77.7-1-.02.67-7.58.98.47.84 1.1.77.69.79.51.81.27.82-.21.83-.9.87-1.64.96-2.2 1.08-2.46 1.19-2.29 1.27-1.8 1.34-1.21 1.42-.98 1.51-1.53 1.51-2.37 1.28-1.07-18.94 23.2.91-3.66.85-3.73.76-1.59.77-.24.81.16.83.18.84.11.84-.07.89-.38.97-.73 1.06-1.01 1.16-1.14 1.26-1.21 1.32-1.28 1.38-1.36 1.36-1.37 1.31-1.24 1.19-1.11 1.06-1.23.86-1.76.58-2.09.5-1.49-21.51 26.24 1.02.1.92.1.76.12.7.18.72.28.74.39.74.41.72.36.73.29.76.23.85.24.91.28.96.33 1.01.43 1.06.54 1.05.57.94.27" filter="url(#a)"/><path d="m-24.99-97.41 1.47.28.83-.19.71-.16.94.37 1.16.93 1.27 1.14 1.2.95 1.06.47h.92l.83-.2.85-.04.92.35.99.67 1.02.6.99.12.97-.43 1.01-.35 1.23.88 1.63 1.63.23-.12.68-.4.77-.63.74-.61.71-.4.74-.22.77-.15.76-.18.75-.2.75-.18.81-.15.9-.21 1-.36 1.05-.46 1.11-.3 1.54.36" filter="url(#a)"/><path d="m-6.9-90.04-.83.5-.91.55-.88.64-.86.51-.85.36-.82.27-.79.25-.77.27-.77.31-.78.36-.79.42-.8.48-.78.54-.75.57-.73.58-.73.63-.77.69-.82.8-.83.9-.76.98-.62.96-.45.89-.42.77-.68.64 17.32-14.07.92-1.15.9-1.33.79-1.51.76-1.52.77-1.42.75-1.28.75-.98.78-.55.82-.16.84-.06.79-.42.76-1.02.8-1.31 1.01-.87 1.47-.82" filter="url(#a)"/><path d="m-24.29-77.44.16-.8.38-.81.63-.89.84-.85.92-.7.9-.52.84-.39.77-.37.75-.41.76-.5.77-.59.76-.64.75-.63.74-.56.72-.5.74-.45.76-.43.79-.44.82-.51.84-.58.93-.62.95-.61" filter="url(#a)"/><path d="m-10.62-89.18-.07.37-.63 1.22-.64 1.56-.63 1.19-.68.6-.74.22-.76.23-.74.53-.67.94-.59 1.29-.5 1.48-.43 1.53-.42 1.54-.47 1.54-.58 1.54-.67 1.45-.66 1.33-.42 1.29-.07 1.4L1.02-97.52l-.73.85-.99.66-.85.58-.74.58-.72.56-.77.47-.82.33-.86.24-.9.29-.92.47-.94.68-.92.81-.88.8-.86.65-.84.51-.46.48m-20.84 10.03.93-.36.96-.58.96-.63.94-.57.91-.5.86-.49.79-.49.73-.53.73-.56.77-.59.85-.61.91-.6.94-.5.91-.36.84-.2.79-.14.81-.17.9-.26 1-.32 1.24-.4-1.67.57-.6.53-.81.58-.7.55-.58.75-.52 1.22-.48 1.79-.43 2.19-.39 2.25-.39 1.97-.43 1.49-.48 1.07-.51.9-.49 1.02-.41 1.33-.34 1.64-.35 1.69-.49 1.41-.71.94-.88.77-.74 2.21" filter="url(#a)"/><path d="m-18.84-85.8 1.19-.66.9-.68.8-.7.73-.72.66-.86.62-1.14.61-1.41.65-1.48.73-1.31.82-1.03.89-.87.95-.92 1.02-1.05 1.15-1.15 1.55-1.12" filter="url(#a)"/><path d="m-19.89-85.07.13.25-.45 1.15-.8 1.17-.99.76-.99.45-.88.36-.73.47-.64.65-.6.84-.61.98-.62 1.06-.66 1.11-.69 1.11-.73 1.09-.74 1.03-.69.96-.54.92-.31.94-.09 1.02-.01.98.2.17 12.07-17.81-.04-.07.64-.43.87-.54.89-.57.84-.58.77-.57.73-.56.71-.51.73-.47.77-.47.81-.53.82-.64.86-.72.9-.66.94-.41.89.04" filter="url(#a)"/><path d="m-4.42-80.1-1.39-.86-1.06-.31-.97-.31-.94-.47-.92-.54-.87-.42-.84-.26-.8-.17-.8-.21-.82-.34-.86-.37-.87-.18-.84.22-.8.62-.75.66-.72.05-.73-1.05-.8-.99-4.57 2.93.95.6 1.13-.57 1.09-.67 1.04-.12 1.01.56.98.86.92.67.86.14.8-.35.77-.52.77-.28.79.2.81.72.84 1.11.79 1.16.33.24" filter="url(#a)"/><path d="m-24.77-82.1.64-.58 1.1-.82 1.11-.71.95-.61.8-.56.73-.55.74-.56.77-.56.81-.56.81-.56.8-.56.78-.56.76-.54.78-.52.8-.52.83-.53.87-.53.91-.53.96-.5.99-.41 1.01-.3.94-.23.79-.32.73-.53 60.54 76.23-.54-1.8-.27-.96-.33-.72-.55-.78-.7-1-.75-1.21-.71-1.32-.67-1.26-.63-1.14-.61-1.02-.54-.98-.45-1.01-.4-1.05-.44-1.04-.57-.93-.75-.8-.9-.69-.93-.6-.91-.46-.88-.22-.48-.39-69.69-42.62.33-1.9.37-1.05.34-1.45.39-2.05.49-2.36.59-2.28.64-1.99.64-1.68.66-1.4.7-1.17.78-1.02.84-1.02.84-1.25.75-1.77.61-2.36.51-2.75.53-2.74.68-2.41 1.02-1.93 2.16-.45" filter="url(#a)"/><path d="m-18.03-112.9-.2 4.06-.4 3.6-.61 2.86-.79 1.89-.88 1.05-.86.58-.77.65-.63 1.26-.5 2.17-.4 2.97-.37 3.2-.39 2.77-.37 2.02-.32 1.4-.34 1.07-.66.83.8-.34.62-.13.68-.01.92.25 1.16.56 1.27.72 1.2.66 1.01.44.82.14.72-.06.75-.07.87.09.96.26.94.21.69-.23" filter="url(#a)"/><path d="m-26.52-80.52-1.46-.75-1.91-2.07-1.96-2.1-1.68-1.12-1.26.09-.92.88-.74 1.05-.71.71-.84.09-1.05-.54-1.27-.84-1.38-.68-1.43-.23-1.66-.17-2.26-1.17-2.74-2.45 1.66 22.42.57.91.98-.09 1.1-.7 1.04-.91.92-.98.77-1.04.65-1.09.62-1.03.7-.85.85-.58 1.04-.31 1.13-.11 1.12-.04 1.01-.05.84-.13.68-.21.6-.36.62-.54.71-.77.85-.96 1.07-1.06 2.06-.92-.15-.2.48-1.09.64-1.12.6-1.05.53-1.08.52-1.17.6-1.23.72-1.25.79-1.24.81-1.2.76-1.1.71-1 .7-.92.73-.99.78-1.18.8-1.44.76-1.66.68-1.66.66-.89M-31.82-75.7l-1.16 1.21-.57.27-.46.13-.51.32-.58.6-.65.78-.7.89-.71.9-.7.88-.67.85-.67.83-.7.83-.74.86-.78.9-.8.94-.79.97-.74.97-.66.93-.6.85-.6.82-.67.79-.8 1.15" filter="url(#a)"/><path d="m-31.82-75.7.25-1.92.11-2.73.19-2.72.4-2.08.71-1.12.92-.47.86-.48.63-1.07.4-1.78.34-2.26.44-2.41.62-2.41.68-2.47.56-2.59.27-2.67-.04-2.8.22-2.79m-9.37 36.87.4.75.32 1.1-.05 1.09-.4.91-.53.95-.51 1.18-.42 1.35-.39 1.31-.46 1.09-.54.87-.57.81-.51 1-.36 1.35-.18 1.74-.07 1.98-.11 1.76-.21.93.05-.03m93.71 32.08.1-.33.27-.73.69-1.27.99-1.88 1.1-2.31 1.06-2.44.98-2.37.86-2.19.75-2.03.65-1.97.57-1.97.43-1.96.21-1.88-.05-1.75-.2-1.68-.14-1.82.15-2.05.57-2.19 1.49-2.3M-34.75-72.19l.15.12-.41 1.2-.54 1.43-.5 1.38-.41 1.33-.31 1.35-.27 1.36-.33 1.33-.42 1.26-.53 1.18-.6 1.08-.64.99-.62.93-.51.95-.38 1.02-.23 1.15-.12 1.27-.03 1.35.02 1.37-.01 1.39-.23 1.5 7.78-25.85-2.09-.07-2.36-1.41-1.86-.9-1.24-.03-.9.49-.83.67-.87.72-.97.72-1.07.7-1.14.67-1.15.63-1.1.63-1.05.62-1.04.55-1.13.41-1.3.2h-1.51l-1.76-.15-1.99-.2-2.05.06-1.64.8-.82 1.32 25.91-1.61-.88.07-1.27-.54-1.28-.11-1.08.44-.98.76-.99.8-1.04.66-1.07.51-1.03.44-.91.52-.82.64-.8.7-.93.62-1.14.46-1.32.43-1.41.53-1.44.66-1.37.66-.64 1.29 20.4-9.54-.88.08-1.07-.2-.87.54-.71 1.07-.74 1.13-.88.92-1.02.66-1.06.47-1 .44-.91.51-.82.63-.8.71-.83.75-.88.79-.89.86-.87.97-.77 1.1-.69 1.16-.68 1.11-.75.94-.83.75-.92.67-1.1.8-1.32 1.51 20.96-17.7-1.58.96-1.06.83-1.59-.07-2.21-.91-2.35-1.17-2.09-.92-1.75-.56-1.53-.29-1.34-.01-1.06.4-.75.88-.73 1.07-1.19.75-1.86.25-1.9.38-.53 1.5" filter="url(#a)"/><path d="m-39.86-65.41-.64.52-.88.65-.94.8-1 .7-1.13.37-1.23.09-1.22.06-1.08.24-.9.54-.77.8-.74.95-.78 1.01-.84 1.01-.89.98-.95.89-1 .78-1.09.64-1.17.54-1.24.55-1.3.66-1.36.81-1.32.89-1.24.69" filter="url(#a)"/><path d="m-39.86-65.41-2.01-1.56-2.15-1.17-1.43.2-.83 1.04-.42 1.39-.29 1.42-.32 1.29-.49 1.08-.73.82-1.07.51-1.44.2-1.76-.05-1.92-.14-1.87-.04-1.6.25-1.28.58-1.08.76-1.18.73-1.49.53-1.85.39-2.01.49-1.85.92-1.29 1.86-.45 3.95 29.49-13.32 1-.94 1.21-.21 1.03-.26.79-.47.68-.66.66-.78.69-.8.75-.64.85-.3.94.1.98.38.98.47.92.33.87.08.85-.15.88-.28.9-.33.89-.37.86-.36.87-.26.91-.07.94.28.92 1.19-20.38 3.8.2-.47.42-1.1.51-1.17.55-1.07.55-.98.56-.98.56-1.07.54-1.19.51-1.27.46-1.25.44-1.14.43-.99.46-.88.5-.89.55-.99.61-1.17.65-1.34.7-1.41.72-1.38.76-1.28.8-1.14.81-1.11.7-1.17.44-.87" filter="url(#a)"/><path d="m-47.95-33.9.17-2.78.04-1.99.09-1.67.19-1.45.28-1.22.34-1.07.35-1.03.31-1.12.25-1.25.21-1.39.23-1.43.3-1.39.37-1.26.39-1.17.35-1.14.24-1.26.2-1.37.28-1.33.16-.64-1.08 2.13.09-.51.1-1.39-.07-1.71-.02-1.84.18-1.84.28-1.87.22-2.03.04-2.29-.17-2.54-.33-2.75-.4-2.88-.35-2.94-.16-2.8.17-2.5.34-2.33.08-2.83-.58-4.19-.51-6.31" filter="url(#a)"/><path d="m-41.65-102.89-.5 3.23-.34 2.81.07 2.44.17 2.21-.08 1.78-.49 1.27-.76 1-.81 1.08-.6 1.47-.29 1.98.01 2.42.21 2.68.28 2.79.27 2.76.21 2.69.16 2.58.1 2.4.03 2.18-.03 1.88-.12 1.58-.23 1.32-.34 1.16-.42 1.04-.36.83m-1.17 2.38-.67 1.55-.54 1.16-.54 1-.56.91-.56.89-.54.95-.52 1.08-.52 1.21-.55 1.3-.59 1.34-.63 1.33-.64 1.34-.61 1.32-.57 1.28-.51 1.21-.44 1.08-.37 1.03-.33 1.12-.37 1.32-.39 1.37.35 1.09.46-.86.43-1.15.38-1.17.33-1.12.3-1.09.33-1.16.41-1.24.51-1.29.56-1.33.59-1.35.57-1.37.54-1.37.52-1.32.5-1.23.48-1.11.46-1.02.4-1.02.34-1.1.35-1.08.79-.49 14.59-12.93-1.36-.17-.89.21-.71.38-.7.48-.77.55-.83.61-.86.69-.83.76-.78.81-.73.8-.69.76-.67.7-.67.66-.66.67-.64.74-.58.88-.54 1.07-.54 1.23-.61 1.23-.72 1.04-.67.95" filter="url(#a)"/><path d="m-69.24-34.2 2.43-.04 1.92-.56 1.58-.71 1.25-.74 1.01-.79 1-.83 1.16-.84 1.32-.85 1.36-.89 1.27-.95 1.13-1.04 1.01-1.08.96-1.06.9-.97.75-.85.56-.78.89-.79 9.66-16.16-.56.58-.66.91-.72 1.06-.71 1.02-.66.9-.6.82-.54.81-.51.85-.47.9-.47.96-.49 1.02-.53 1.09-.58 1.14-.63 1.16-.6 1.09-.52.99-.41.86" filter="url(#a)"/><path d="m-53.54-82.26.98 3.48-.06 2.82.09 2.36.43 2.39.65 2.59.67 2.61.48 2.37.1 1.91-.37 1.41-.74 1.07-.8 1.09-.39 1.55.47 2.35 1.35 3.01 1.94 3.28-.24 1.4-.12 1.15-.18 1.31-.19 1.5-.12 1.63-.05 1.7-.03 1.7-.04 1.64-.01 1.59.07 1.55.15 1.46.18 1.35.1 1.23.04 1.18.08 1.25.25 1.4.4 1.54.36 1.86-1.24-24.53.09-1.91.17-1.5.39-1.29.41-1.38.38-1.46.42-1.37.47-1.21.49-1.1.45-1.11.37-1.17.31-1.25.31-1.31.36-1.36.41-1.42.45-1.49.45-1.57.4-1.67.31-1.76.2-1.77.19-1.63.34-1.32.62-1.08.84-1.3-8.83 32.43.74 1.15v1.38l-.51 1.27-.55 1.3-.32 1.47-.03 1.67.24 1.8.37 1.86.4 1.78.38 1.6.39 1.4.45 1.31.51 1.39.64 1.6 1.37 2-4.1-23.25.16-.41.3-1.01.3-1.22.28-1.39.26-1.5.3-1.5.36-1.42.38-1.32.37-1.26.32-1.28.25-1.33.2-1.41.19-1.49.23-1.54.31-1.58.4-1.6.47-1.59.52-1.54.55-1.4.56-1.2.52-.99.42-1.01.17-1.63-8.45 31.82.49-.77.4-.72.42-.86.49-.96.54-1.02.59-1.07.61-1.09.62-1.06.61-1 .6-.91.58-.82.59-.77.59-.71.58-.68.59-.7.65-.87.78-1.13.63-.6-20.77 41.79.15-1.85.52-1.29.78-1.33.8-1.28.71-1.21.6-1.17.51-1.15.46-1.15.43-1.13.4-1.09.4-1.07.4-1.08.42-1.17.41-1.31.4-1.4.43-1.44.55-1.37.68-1.25.66-.96" filter="url(#a)"/><path d="m-50.68-42.78.73-1.63.67-.92.69-.64.74-.58.72-.69.61-.91.48-1.14.45-1.23.49-1.17.6-.97.69-.75.75-.58.77-.51.78-.56.67-.72.16-.58m96.25 34.38-.04-.12.22.64.33 1.13.33 1.49.25 1.66.17 1.63.13 1.48.1 1.31.11 1.21.13 1.17.17 1.18.21 1.22.24 1.3.25 1.38.27 1.45.24 1.47.22 1.42.16 1.32.08 1.24.03 1.17-.01 1.15-.01 1.29-.05 1.67M-64.33-15.64l1.37-2.35 1-1.62.88-1.35.81-1.32.71-1.35.64-1.33.59-1.28.56-1.21.54-1.18.49-1.16.47-1.14.44-1.08.46-.99.58-.9.73-.93.83-1.1.66-1.14.12-.02-24.31 28.55.87-.82 1.74-.81 1.66-1.22 1.06-1.58.54-1.75.26-1.79.17-1.77.27-1.71.57-1.59.96-1.45 1.28-1.33 1.37-1.28 1.19-1.33.88-1.39.68-1.36.79-1.19 1.19-.9 1.66-.58 1.94-.35 1.82-.28 1.39-.45.91-.86.64-1.6.8-2.57" filter="url(#a)"/><path d="m-53.35-81.96.57 2.91.05 2.98.15 2.5.25 2.26.08 1.96-.28 1.53-.59 1.16-.69 1.07-.51 1.32-.16 1.78.22 2.22.45 2.46.51 2.44.4 2.21.21 1.92.04 1.68-.04 1.59-.07 1.64-.04 1.76v1.86l.06 1.91.12 1.86v1.64l-.46 2.02-1.19 1.05-1.28.3-.57.68-.11 1.15-.08 1.33-.3 1.29-.55 1.2-.72 1.14-.76 1.17-.75 1.23-.71 1.31-.65 1.38-.6 1.42-.58 1.44-.68 1.43-.85 1.39-1.07 1.38-1.24 1.4-1.22 1.49-.95 1.51-.71 1.25-1.52.44L-42-47.62l-.92 1.03-.85.66-.78.6-.76.57-.83.5-.89.48-.9.58-.8.82-.67 1.08-.56 1.27-.51 1.33-.54 1.29-.64 1.25-.89 1.37-.88 1.81-.55 2.3 1.5 2.29-.3 1.2-.5 1.05-.4 1.12-.27 1.24-.13 1.37.04 1.45.23 1.52.37 1.54.43 1.53.33 1.48.17 1.4.06 1.35.09 1.34.25 1.33.47 1.27.64 1.1.71.85.67.62.6.46 9.7-42.61-1.03.2-.92.73-.83.84-.79.77-.78.67-.78.6-.82.56-.88.54-.96.57-.99.68-.96.82-.88.97-.79 1.12-.69 1.21-.61 1.28-.52 1.32-.41 1.25-.26 1.05-.2.83-.56 1.09m109.21 7.35-.41-2.77-.28-2.08-.18-1.64-.1-1.38-.07-1.3-.07-1.3-.12-1.33-.16-1.35-.18-1.38-.16-1.42-.12-1.47-.08-1.51-.08-1.52-.13-1.53-.21-1.52-.28-1.55-.32-1.57-.32-1.6-.32-1.6-.33-1.63-.4-1.67-.44-1.69-.43-1.62-.4-1.7m5.59 38.13.85-3.43 1.32-2.98.52-2.05-.22-1.35-.49-1.1-.34-1.22.02-1.52.39-1.85.66-2.09.77-2.21.69-2.19.48-2.08.22-1.91.01-1.82-.03-1.91.09-2.17.25-2.43.31-2.45.21-2.18-.02-1.97-.13-3.15" filter="url(#a)"/><path d="m54.7-26.64.64-2.34-.16-1.48-.12-1.24.05-1.27.15-1.37.13-1.47.03-1.49-.08-1.46-.1-1.47-.03-1.55.15-1.73.33-1.86.42-1.76.38-1.45.58-1.53-2.28 42.1.18.09.04-1.25-.07-1.28-.04-1.08.01-1.08.07-1.29.07-1.53.04-1.67.04-1.63.03-1.43.06-1.14.04-.88-.02-.85-.17-1.26-.37-2.35-.47-2.22.82 2.1 1.32 1.53 1.05 1.02.53.84.25.93.31 1.12.48 1.34.6 1.52.61 1.6.61 1.49.67 1.26.83 1.06.99 1.06 1.05 1.3.92 1.3.56-.23" filter="url(#a)"/><path d="m55.8-.02.1-1.97.08-2.05.07-1.65.07-1.32.08-1.18.06-1.16.01-1.14-.04-1.14-.12-1.19-.17-1.29-.19-1.44-.19-1.55-.15-1.53-.11-1.4-.06-1.19-.04-1.01-.07-1.04-.16-1.37-.31-1.94-.43-2.28-.03-1.52.38 1.62.53 1.9.83 1.56 1.08 1.05 1.21.72 1.17.7 1.09.93 1.04 1.22 1.16 1.43 1.34 1.46 1.43 1.37 1.28 1.23.96 1.17.75 1.21.93 1.25 1.53 1.14 2.23.89 2.45.93 1.72 1.86M51.1-60.54l.05 1.6.34 1.87.19 1.93.16 1.78.2 1.67.26 1.64.3 1.59.34 1.51.31 1.42.2 1.43.06 1.51-.1 1.61-.16 1.65-.11 1.6.02 1.52.15 1.46.19 1.42.23 1.55-.41-2.02.77-1.59.91-2.27.83-2.17.31-1.77-.18-1.45-.35-1.36-.27-1.47-.15-1.63-.11-1.71-.22-1.69-.39-1.57-.55-1.45-.6-1.43-.5-1.57-.28-1.84-.01-2.13.21-2.3.31-2.31.31-2.22.25-2.13.17-2.12.05-2.39-.46-3.52m-.05 44.09-1.43-.03-1.31-.63-.87-.82-.91-.71-.95-.65-.84-.73-.68-.83-.56-.93-.5-1.02-.5-1.09-.55-1.06-.69-.89-.87-.65-1.05-.46-1.2-.42-1.29-.32-1.35.3L53.12-33.8l-.76-2-.46-1.26-.57-.99-.76-.84-.94-.7-1.06-.57-1.09-.54-1.06-.59-1-.68-.93-.76-.85-.8-.76-.87-.67-.95-.62-1-.66-.92-.78-.67-.97-.27-1.08.03-1.07-.02-1.46-.37" filter="url(#a)"/><path d="m52.23-36.87.21-.92-.32-.96-.35-1.2-.24-1.34-.16-1.42-.11-1.48-.09-1.61-.03-1.77.08-1.97.21-2.12.24-2.18.12-2.11-.07-1.93-.28-1.71-.36-1.57-.3-1.52-.16-1.59.02-1.75.15-2.01.07-2.25-.7-2.93" filter="url(#a)"/><path d="m52.31-37.55.76.83.57 1.3.41 1.23.49 1.07.65 1 .81 1.06.96 1.17 1.1 1.24 1.16 1.21 1.17 1.1 1.12.99 1.09.94 1.15 1.01 1.3 1.18 1.52 1.38 1.69 1.52 1.7 1.49 1.45 1.26 1.09.89.87.76 1.17 1.78M52.31-37.55l-.51-.8-.45-1.2-.44-1.22-.45-1.09-.52-1.03-.56-1.08-.59-1.15-.6-1.19-.6-1.13-.61-1.07-.67-1.05-.71-1.09-.71-1.14-.65-1.07-.65-1.1 7.83 14.1-.26-1.54-.35-1.13-.41-1.1-.45-1.24-.48-1.36-.46-1.39-.45-1.4-.44-1.39-.43-1.41-.42-1.4-.42-1.36-.42-1.29-.42-1.19-.43-1.1-.44-1.04-.44-1.02-.46-1.01-.48-1.04-.52-1.05-.55-1.09-.59-1.12-.63-1.13-.65-1.2-.53-1.38 11.13 29.38.97-2.59.59-1.94-.25-1.29-.42-1.36-.35-1.57-.31-1.63-.34-1.6-.33-1.62-.23-1.76-.06-1.98.15-2.21.33-2.36.42-2.41.41-2.36.3-2.19.12-1.99-.07-1.81-.2-1.74-.23-1.83-.23-1.96-.34-1.91-.59-1.63-.72-1.6-.15-2.53" filter="url(#a)"/><path d="m51.08-41.63.22 1.69.2 1.43.13 1.33.02 1.39-.06 1.44-.11 1.44-.15 1.41-.21 1.42-.29 1.52-.37 1.64-.4 1.74-.34 1.71-.22 1.53-.05 1.25.09 1 .08.93-.17 1.15-.61 1.6-.98 2.05-.55 2.18 2.27-7.31.79-.56.38-.69.15-.91.1-1.3.2-1.68.29-1.82.26-1.74.15-1.54v-1.34l-.09-1.23-.16-1.21-.25-1.19-.38-1.13-.52-1.03-.57-1.02-.42-1.21-.07-1.62 1.05-2.53-.08-.3-.25-1.61-.39-1.9.03-2.09.36-2.27.41-2.31.28-2.26.17-2.21.13-2.16.09-2.05-.03-1.79-.21-1.5-.34-1.33-.3-1.44-.08-1.8.16-2.22.3-2.55.29-2.68.16-2.64v-2.51l-.08-2.49.22-2.84.8-3.24" filter="url(#a)"/><path d="m50.41-43.14.2.65.32 1.12.3 1.32.27 1.32.24 1.31.19 1.32.11 1.34.05 1.35v2.7l.06 1.38.13 1.44.2 1.5.21 1.52.19 1.42.12 1.24.02 1.05-.07.98-.13 1.16-.09 1.54.01 1.76-2.61-28.3.38.62.48.69.47.97.45 1.14.48 1.18.51 1.15.56 1.11.6 1.08.64 1.04.65 1.03.67 1.05.68 1.13.65 1.28.63 1.43.6 1.49.55 1.43.48 1.23.39 1.03.35.96.44 1.13.66 1.5.51 1.88-11.83-25.55.31.65.44.68.64.81.72.91.76.94.82.91.97.84 1.19.73 1.44.58 1.59.44 1.55.42 1.33.55 1.03.87.89 1.31 1.55 1.55" filter="url(#a)"/><path d="m48.44-48.35.37 1.91.21 1.95-.08 1.77-.08 1.54.14 1.32.32 1.18.39 1.14.32 1.18.19 1.26.03 1.34-.12 1.4-.26 1.45-.38 1.5-.47 1.58-.5 1.67-.46 1.75-.37 1.74-.26 1.6-.18 1.27-.21.91-.55.74-1.45.81 14.33-.36-.43-1.84-.33-1.56-.24-1.15-.25-.97-.3-1.05-.37-1.26-.43-1.43-.48-1.5-.49-1.45-.5-1.33-.52-1.22-.51-1.13L54-34.7l-.5-1.12-.49-1.14-.46-1.18-.42-1.2-.39-1.21-.35-1.22-.35-1.19-.4-1.19-.53-1.27-.81-1.45-.86-1.48" filter="url(#a)"/><path d="m48.02-49.36.46 1.19.57 1.5.56 1.47.49 1.3.42 1.19.39 1.16.36 1.18.36 1.2.36 1.22.35 1.21.35 1.22.34 1.19.32 1.15.29 1.12.26 1.14.26 1.27.28 1.56.34 2.04.46 2.72-7.17-25.92-.96-2.17-.78-1.45-.72-1.06-.61-.92-.52-.9-.49-.88-.51-.83-.57-.76-.63-.7-.68-.7-.7-.71-.71-.74-.74-.72-.75-.69-.75-.62-.7-.58-.64-.57-.59-.63-.63-.61-.64-.39" filter="url(#a)"/><path d="m48.07-49.25.2.21.47.85.66 1.16.67 1.25.55 1.23.42 1.2.35 1.2.36 1.2.38 1.19.4 1.18.42 1.18.43 1.19.47 1.19.49 1.12.49.91.4.44-7.16-16.7.15.28.44.91.63 1.21.71 1.21.73 1.1.72.99.72.95.72.96.71.98.7 1.03.64 1.07.59 1.11.54 1.14.5 1.12.47 1.1.49 1.1.56 1.2.67 1.49.71 2.03.73 2.85" filter="url(#a)"/><path d="m48.07-49.25-.81-2.32-.69-1.58-.56-1.25-.48-1.1-.42-1.04-.37-1.05-.34-1.08-.35-1.1-.37-1.13-.39-1.14-.43-1.18-.46-1.2-.51-1.19-.56-1.11-.59-1-.57-.93-.46-.97-.36-1.18-.43-1.68 9.15 23.23.29.12.61.7.75 1.08.76 1.18.75 1.08.79.93.93.77 1.11.65 1.22.61 1.14.69.93.88.78 1.08.85 1.12.98 1.05.75 1.4-25.7-25.23.7.08.98.11 1.08.12 1.02.26.91.45.79.57.73.62.68.63.65.64.63.65.61.67.57.71.53.8.52.92.57 1 .95.9" filter="url(#a)"/><path d="m39.42-88.9.35 1.17.62 1.7.52 2.09.43 2.07.47 1.69.54 1.29.54 1.14.41 1.27.22 1.58.08 1.88.03 2.02.1 1.94.23 1.73.38 1.45.47 1.22.49 1.11.42 1.13.29 1.26.12 1.42-.05 1.58-.18 1.79.13 1.84 4.93 24.5-.18-.55-.06-1.12-.05-1.33-.1-1.36-.18-1.31-.21-1.27-.22-1.27-.23-1.27-.25-1.24-.32-1.22-.39-1.22-.44-1.26-.46-1.3-.44-1.3-.37-1.34-.3-1.47-.24-1.7-.26-1.74-.23-1.23-.86-1.38.71 1.12.71 1.1.7 1.23.66 1.24.63 1.18.65 1.14.68 1.15.67 1.17.62 1.16.56 1.17.49 1.16.46 1.17.48 1.16.53 1.14.57 1.12.59 1.14.64 1.19.66 1.18.66 1.37M33.66-63.83l.49.61.68.44.74.31.76.27.78.37.74.56.7.7.71.75.77.63.88.43.94.28.89.32.69.57.43.85.32.85.99-.02L45-53.8l-.14 2.01.21 1.67.36 1.46.36 1.34.34 1.3.31 1.36.24 1.45.09 1.52-.14 1.58-.38 1.66-.56 1.79-.72 1.95-.89 2.04-.93 1.69" filter="url(#a)"/><path d="m44.72-56.67-.21-2.45-.26-1.42-.28-1.28-.31-1.3-.31-1.41-.28-1.57-.21-1.72-.13-1.84-.08-1.88-.08-1.82-.13-1.69-.2-1.58-.24-1.58-.26-1.71-.36-1.82-.58-1.82-.78-1.89-.45-2.95 5.15 31.73 2.45-2.71 2.14-1.36 1.2.32 1.13.77 1.66.36 2.1-.09 2.08-.1 1.69.32 1.29.85 1.11 1.17 1.21 1.1 1.41.74 1.53.42 1.33.68.97 1.47L34.8-90.7l.41 1.52.55 1.22.59 1.52.51 1.77.49 1.86.48 1.86.49 1.79.46 1.73.39 1.68.3 1.66.21 1.66.17 1.64.19 1.58.23 1.5.32 1.42.42 1.31.51 1.19.58 1.05.63.93.58.9.46 1.02.34 1.3.61 1.92-.12.48.18.99.29 1.25.22 1.51.14 1.68.11 1.7.1 1.63.08 1.59.05 1.61.04 1.62.09 1.54.16 1.34.14 1.23-.09 1.39-.51 1.91-.8 2.32" filter="url(#a)"/><path d="m44.72-56.67.24.06.89.19 1.2.24 1.03.67.7 1.16.51 1.4.52 1.38.64 1.25.72 1.17.73 1.16.69 1.17.69 1.11.78 1 .93.86 1.06.78 1.1.76 1.01.81.96 1.08 1.03 2.14-7.69-4.47-.52-.87-.55-.78-.66-1.02-.69-1.21-.64-1.26-.57-1.24-.54-1.22-.54-1.26-.54-1.29-.54-1.26-.52-1.18-.49-1.05-.47-.93-.47-.83-.53-.6-.4.34 22.68 6.88-2.5-.16-1.34-.65-1.01-.87-1.08-.99-1.23-.97-1.36-.85-1.38-.74-1.26-.81-1.07-1-.83-1.26-.59-1.46-.43-1.54-.46-1.29-.87-.58-1.74.64-2.68 1.83-2.77 1.7-1.71-.99" filter="url(#a)"/><path d="m40.73-63.97.85 1.37.73.98.58.85.53.84.52.84.51.85.5.87.51.91.54.98.59 1.05.65 1.12.69 1.14.68 1.1.63 1.06.57 1.14.61 1.53 1.01 2.19m10.24-18.04-3.26-.43-1.95-.66-1.97.05-2 .48-1.86.55-1.63.41-1.42.22-1.28.07-1.15-.06-1.07-.17-1.03-.28-1-.39-.95-.53-.81-.72-.9-1.06.01-1.65-.01-1.5-.32-1.09-.49-.94-.56-.97-.58-1.13-.57-1.34-.54-1.52-.53-1.59-.53-1.57-.55-1.49-.55-1.43-.53-1.44-.46-1.56-.36-1.78-.26-2.07-.14-2.34-.05-2.57-.03-2.74-.18-2.9-.71-2.54" filter="url(#a)"/><path d="m39.39-65.71.93 1.05.89.65.98.52.97.46.88.52.77.61.74.65.84.54 1.1.3 1.43-.02 1.78-.28 2.01-.37 2-.22 1.79.14 1.5.55 1.31.84 1.33.93 1.5.9 1.55.87 1.25.91.84.91 1.63.31" filter="url(#a)"/><path d="m38.85-66.76.61 1.17.58 1.2.58 1.15.58 1.06.58.99.53.96.47.98.4 1.02.35 1.07.32 1.11.32 1.16.35 1.21.39 1.25.41 1.29.42 1.34.38 1.37.36 1.37.39 1.37.45 1.4.46 1.44.3 1.29.03.74-17.79-75.49.95 4.86 1.29 2.11.88 1.85.43 2.46.15 2.88.08 2.89.14 2.62.25 2.26.39 1.9.51 1.6.56 1.45.53 1.56.38 1.94.18 2.43.03 2.79-.02 2.89.04 2.69.15 2.29.29 1.76.4 1.29.38 1.23.13 1.43-.29-.71.39.54.63.46.77.58.85.61.96.55.99.48.93.52.8.66.64.82.57.91.57.9.65.83.75.75.82.76.84.85.81 1 .76 1.15.73 1.2.77 1.14.88 1.09 1 1.22 1.06 1.47 1.13 1.05-18.3-19.54.3.68.34.94.32 1.26.32 1.4.38 1.36.43 1.23.44 1.15.39 1.13.28 1.19.15 1.32.01 1.44-.1 1.58-.2 1.69-.24 1.79-.23 1.84-.16 1.82-.07 1.73.02 1.57.06 1.41.21 1.25.47 1.28.37 2.22" filter="url(#a)"/><path d="m28.17-100.4 1.08 3.13.48 2.27.38 1.99.35 1.82.33 1.75.33 1.68.36 1.63.39 1.56.42 1.49.43 1.51.41 1.59.4 1.69.42 1.72.51 1.58.66 1.33.78 1.12.71 1.1.39 1.22.2.95-.51-.34-.72-.55-.84-.79-.86-.86-.84-.84-.8-.77-.79-.72-.77-.63-.77-.55-.75-.46-.75-.4-.74-.37-.71-.36-.67-.37-.65-.39-.66-.41-.63-.24-.32.35" filter="url(#a)"/><path d="m36.72-69.63.95-3.64-.73-1.28-.98-.89-.81-1.09-.62-1.34-.51-1.51-.44-1.63-.37-1.72-.34-1.73-.37-1.65-.42-1.48-.44-1.39-.41-1.45-.36-1.61-.5-1.74-1.03-1.27 5.73 23.51.97 1.1.64.75.56.71.54.74.53.78.53.81.56.87.59.91.6.96.61.98.6.97.57.95.54.91.53.89.49.9.45.87.39.79.4.74-10.1-15.63 1.49.14 1.72-1.25 1.28-.58.88.21.85.37.97.24 1.03.24 1.04.37 1.08.43 1.23.29 1.47-.05 1.69-.38 1.8-.55 1.8-.54 1.77-.46 1.79-.46 1.82-.51 1.74-.21 1.52.73-26.97 1.97 1.23.62.79.48.59.69.58.7.68.58.76.5.8.53.79.64.77.76.76.82.75.8.76.76.75.72.73.7.72.68.75.64.8.57.9.5 1 .5.97.69.83 1.27" filter="url(#a)"/><path d="m35.07-71.54-.76-1.22-.66-1.13-.65-1.03-.66-1-.63-1.03-.58-1.08-.55-1.08-.54-1.02-.56-.95-.57-.92-.57-.96-.57-1.08-.6-1.22-.68-1.33-.78-1.38-.86-1.34-.85-1.21-.69-1.03-.45-.96-.47-1.24-1.46-1.33 28.54 44.4-1.13-2.08-.81-1.52-.63-1.21-.56-1.04-.52-.95-.51-.9-.53-.87-.55-.85-.6-.84-.63-.83-.67-.84-.67-.87-.68-.88-.66-.89-.62-.9-.58-.88-.55-.85-.55-.79-.59-.71-.66-.67-.73-.72-.86-.9-.91-1.12-1.11-1.29.65 1.87.67 1.57.71 1.14.68.83.63.71.57.7.53.75.48.85.45.96.44 1.07.44 1.18.44 1.23.45 1.19.44 1.11.41 1.11.73 1.94" filter="url(#a)"/><path d="m33.16-74.08.91 1.39.7 1.55.66 1.26.66.9.64.74.57.76.49.87.46.97.48 1.01.53 1 .58.96.6.95.58.95.52.99.43 1.04.36 1.1.31 1.11.31 1.09.33 1.02.38 1 .4 1.05.36 1.21.35 1.54-29.6-44.33.99.99.82.62.64.62.65.72.73.81.77.82.76.81.74.77.74.77.79.78.85.8.89.79.88.78.83.77.75.77.68.78.63.77.61.77.62.76.65.72.69.64.77.6.85.9.5 1.97" filter="url(#a)"/><path d="m30.39-76.9 1.55.87 1.16.33.96.47.89.71.87.83.85.81.81.72.77.65.7.66.65.69.66.71.69.71.75.72.78.76.77.84.75.88.72.86.65.81.6.7.59-.41L29.7-77.4l-.8-.44-.82-.23-.82.06-.81.08-.77-.12-.8-.36-.86-.44-.99-.35-1.07-.12-1.08.28-1.01.78-.97 1.25-1.05 1.43-1.24 1-1.02-.54 13.38-2.81.32-4.02.05-2.48-.54-.78-.78-.45-.83-.65-.89-.85-.95-.87-.95-.84-.88-.8-.8-.83-.73-.89-.72-.97-.74-1.02-.74-1.1-.69-1.22-.63-1.45-.62-1.76-.72-2.06-.93-2.18-1.07-1.91-.83-1.58-3.07-6.35.97 1.65.82 2.01.62 1.98.46 2.03.42 2.01.56 1.69.77 1.16.89.7.9.59.79.89.62 1.49.49 2.1.43 2.41.46 2.27.52 1.7.56 1.03.6.78.69 1.27 1 2.06 1.63 1.99" filter="url(#a)"/><path d="m3.71-75.54.8-.95.89-.45.99-.45 1-.56.93-.53.83-.45.74-.45.71-.57.71-.73.78-.82.84-.77.88-.61.86-.33.8.02.72.39.69.67.71.75.77.6.77.27.69-.32.75-1.44 1.3-1.6-1.58-.99 1.62.41 1.39.93 1.15.86.95.7.81.59.74.51.71.47.71.44.72.45.74.45.77.47.79.5.81.55.82.63.83.72.84.83.83.91.83.97.81.92.75.76.75.61.97.71-21.71-15.87 1.14.77 1 .59.7.47.65.48.77.6.88.68.93.72.89.7.83.65.75.63.69.61.66.62.64.64.65.65.66.66.69.67.72.7.73.75.73.82.73.92.76 1.05.88 1.24 1.1 1.42" filter="url(#a)"/><path d="m2.16-102.66 1.15 1.19 1.2.77 1.12.98 1.08 1.34 1.06 1.43 1.06 1.2 1.01.75.96.26.87-.13.77-.23.68.01.61.55.61 1.2.66 1.63.71 1.52.76.82.77-.03.71.07-.03 2.99-.03-.19.37.51.7 1.13.62 1.42.51 1.28.57.95.71.73.81.69.84.8.76.95.65 1.08.5 1.22.38 1.36.31 1.43.3 1.39.35 1.25.39 1.12.4 1.1.34 1.31.29 1.58.24 1.59.07 1.08-12.52-25.08.54.42-.72-.25-.98-.39-.87-.35-.72-.28-.63-.22-.63-.21-.7-.22-.81-.22-.91-.24-.99-.23-1.03-.22-1.05-.2-1.03-.18-.99-.14-.92-.11-.84-.08-.78-.04-.75-.01h-.79l-.86.02-.74.03-.07-.13 19.24 4.38-.64-.33.39.75.54 1.53.56 1.76.55 1.52.53 1.23.52 1.14.55 1.21.62 1.27.68 1.25.67 1.17.62 1.1.51 1.1.41 1.09.36 1.09.34 1.15.29 1.38.26 1.63.7.62" filter="url(#a)"/><path d="m33.39-89.83-1.1-.36-1.11.65-1.08.62-1.04.25-1.06.05-1.17.06-1.27.18-1.27.28-1.19.36-1.05.35-.95.27-.91.12-.92-.09-.87-.36-.72-.72-.47-1.07-.42-.73L15-87.44" filter="url(#a)"/><path d="m14.23-88.13.99.45.83.27.66.13.7.11.84.06.94-.05.96-.16.9-.2.83-.09.82.16.95.44 1.12.56 1.19.4 1.08.08 1.1-.04m-13.91-2.12.21 4.62.41 2.22.56.49.68-.03.75.17.69.69.55 1.23.39 1.6.26 1.8.24 1.96.34 2.05.54 1.85.74 1.16.77.38.44 1.31-9.39-21.92-.13-.72-.14-.76-.39-.99-.62-1.02-.81-.83-.95-.58-1.06-.44-1.1-.55-1.08-.87-1.05-1.23-.99-1.41-.93-1.4-.86-1.25-.83-1.09-.82-.98-.87-.87-.9-.76-.83-.76-.63-1.04-.73-1.1" filter="url(#a)"/><path d="m12.41-88.55 1.55-.1 1.33-.53 1.19-1.15 1.16-1.78 1.17-1.83 1.13-1.18 1.01-.23.86.52.74.82.76.62.94.12 1.29-.46 1.62-.9 1.72-1.03 1.47-.86 1.15.23-19.86 7.5-.8-.56-.87-.67-.96-.92-1.03-1.08-1.05-1.26-1.04-1.46-1-1.51-.96-1.34-.91-1.04-.87-.77-.83-.69-.84-.82-.85-1.03-.86-1.12-.84-.91-.83-.43-.86-.03-.93-.18-.87-1.15-.41-2.43" filter="url(#a)"/><path d="m11.64-88.79.6-.52.51-1.19.85-1.43 1.1-1.23 1.13-.8 1.05-.45 1-.42 1.04-.72 1.17-1.07 1.3-1.27 1.34-1.29 1.26-1.25 1.1-1.29 1.09-1.45 1.55-1.82 2.69-3.44" filter="url(#a)"/><path d="m10.85-89.43 1.54-5.87.5.21.33 1.29.56.99.82.47.94.16.93.07.9.05.91-.02.96-.19 1.06-.44 1.14-.75 1.2-1.11 1.26-1.34 1.29-1.23 1.32-.61 1.32.28 1.27.77 1.25.13 1.69-1.37-7.07 27.32-.39-.35-.47-.46-.5-.86-.53-1.19-.6-1.35-.66-1.38-.66-1.31-.64-1.16-.62-.96-.65-.74-.69-.59-.72-.58-.71-.69-.66-.89-.64-1.01-.65-1.03-.7-.9-.75-.7-.71-.53-.62-.43-.51-.41-.51-.42-.67-.39-.83-.4" filter="url(#a)"/><path d="m8.91-89.64.95-.18.93-.56.84-.9.74-.95.68-.53.71-.01.82.2.94-.03 1.07-.58 1.17-1.2 1.27-1.67 1.33-1.81 1.34-1.55 1.22-.95 1.03-.26.83.24.84.34 1.17.16 1.85.01 2.72-.26L7.91-89.96l.93.35.88.39.8.37.66.42.55.59.51.76.56.83.66.78.73.65.74.58.72.62.66.75.64.91.63.99.64.93.63.78.61.61.63.62.71.86.82 1.3.76 1.63.07 1.52" filter="url(#a)"/><path d="m2.86-90.85 1.33-.49 1.05.32 1.05.4 1.07.32 1.07.2.99.13.9.07.78.05.7.05.67.04.7.05.78.05.86.06.89.07.85.08.79.11.78.17.89.23 1.19.3 1.88.35" filter="url(#a)"/><path d="m2.86-90.85 1.3.22 1.08-.03 1.08-.07 1.11.01 1.07.1 1 .09.9.04.8-.01h.72l.69.05.71.1.77.15.84.16.86.14.86.11.85.1.86.15.91.24.98.33.91.33.51.17-.5-.11-19.68-2.25.6.24.86 1.06.93 1.42.96 1.26.97.96.98.73.96.57.91.48.82.41.71.38.6.41.53.48.52.62.57.82.67.95.72.97.62.83.46.7 1.01.67L.95-90.67l.54-.69.73-1.6.93-1.31 1.02-.55 1.07.04 1.09.31 1.1.31 1.12.16 1.09-.09 1.03-.36.95-.66.85-.91.74-1.01.68-.78.76-.32 1.06-.15 1.35-1.13M.95-90.67l-.67-3.45-.95.58-.84.87-.74.41-.76-.12-.83-.64-.93-1.19-1.01-1.59-1.08-1.73-1.13-1.55-1.14-1.16-1.14-.75-1.11-.46-1.08-.31-1.08-.29-1.11-.55-1.17-1.29-1.14-2.33" filter="url(#a)"/></g><g fill="none" stroke="#000"><circle cx="8.68" cy="2.824" r="2.274" filter="url(#a)"/><circle cx="9.6" cy=".948" r="2.3" filter="url(#a)"/><circle cx="8.744" cy="3.528" r="2.202" filter="url(#a)"/><circle cx="9.644" cy="3.164" r="2.25" filter="url(#a)"/><circle cx="9.32" cy="4.352" r="1.698" filter="url(#a)"/><circle cx="7.276" cy="1.988" r="1.37" filter="url(#a)"/><circle cx="8.756" cy="3.792" r="1.018" filter="url(#a)"/><circle cx="6.288" cy="3.644" r="1.964" filter="url(#a)"/><circle cx="9.916" cy="2.564" r="1.412" filter="url(#a)"/><circle cx="9.68" cy="1.004" r="1.292" filter="url(#a)"/><circle cx="-7.246" cy="1.9" r="2.816" filter="url(#a)"/><circle cx="-8.27" cy="4.156" r="2.7" filter="url(#a)"/><circle cx="-6.342" cy="1.736" r="2.064" filter="url(#a)"/><circle cx="-7.766" cy="3.1" r="2.298" filter="url(#a)"/><circle cx="-7.39" cy=".848" r="1.364" filter="url(#a)"/><circle cx="-8.078" cy="3.352" r="2.638" filter="url(#a)"/><circle cx="-5.63" cy="3.788" r="2.004" filter="url(#a)"/><circle cx="-6.718" cy="3.612" r="1.076" filter="url(#a)"/><circle cx="-7.826" cy="4.028" r="2.596" filter="url(#a)"/><circle cx="-8.102" cy="3.208" r="2.206" filter="url(#a)"/></g><path fill="#66CC84" stroke="#000" stroke-linejoin="round" stroke-width="3" d="m13.76 64.17.25.81-.09.42.05.38.05.19-.14-.32-.14 1.09.09-.58.05.28-.43 1.07-.28.64.24-.42-.6.9.26-.24-.35.47-.91 1.04.25-.23.07-.09-.77.89-.5.48-.24.15.07-.08-.52.54-1.15.92.62-.45-1.53 1.08.04.06-1.29.82.4-.29-.03.02-1.21.83-.7.38-.66.4-1.01.54-.31.14-1.5.74.46-.21-1.78.82.09-.06.07-.01-2.3.96.83-.31-.46.16-1.15.45-.63.25-1.88.66-.81.27 1.39-.47-1.18.4-1.98.61-1.1.31-1 .26.99-.26-1.07.29-2.31.54 1.76-.41-2.89.66.96-.2-.64.12-1.84.36-.88.14-1.29.2 1.31-.22-1.47.22-1.02.13-.6.05-.9.12-.97.03-1.38.08h-.42l.21-.01-1.21.05-.19-.01h-.47l-1.62-.07-.51-.06-.49-.01-.51-.08-.74-.18.32.13-.41-.12-.93-.14.24.08-.66-.22-1.39-.36.23.09-.75-.31.17.02-1.39-.68.24.1-.85-.41.37.16-.03-.01-.87-.6.42.15-.46-.26-.65-.78.41.45-.5-1.02-.3-.31.11.14.08-.13-.22-.34.03-.88-.05.38.13-.9.11-.04-.01-.58.12-.32.07.24-.15.13.29-.56.39-.76.47-.76.15-.23.13-.22.79-.74-.45.37 1.31-1.2.01-.09.13-.12.37-.35.3-.17.9-.77.83-.59-.55.42 1.28-.9.47-.33-.59.41 1.17-.78.21-.12.73-.44.73-.43-.22.16.64-.34 1.56-.83.93-.47-.28.15.98-.44-.32.13 1.33-.6.86-.37.47-.19 1.63-.63.13-.04 1.85-.65-1.24.43 1.31-.46.95-.31-.15.05 3.4-.99-.92.25.8-.22-.21.06 1.29-.34 2.19-.51-.98.23 2.39-.52-.72.14.88-.16 2.34-.42.62-.07.15-.03 1.44-.14.22-.06 1.11-.09.23-.02.82-.03H.03l1.95-.12-1.04.03h.6l.73.02 1.84.04 1.1.02.64.11.76.08.25.01.49.1-.53-.14 1.37.23.52.18.38.07.64.16-.13-.04 1.3.5.03.09-.55-.26.34.08.78.41.2.05.79.52.21.42.46.26-.33-.37.27.51.24.32.03-.28.09.37.56 1" filter="url(#a)"/></svg>