<svg xmlns="http://www.w3.org/2000/svg" width="500" height="500" viewBox="-100 -100 200 200"><defs><clipPath id="c"><path d="m27.99-5.67-.39-.34-.42-.35-.45-.34-.48-.33-.5-.34-.52-.33-.55-.32-.57-.32-.59-.32-.61-.3-.62-.3-.65-.29-.65-.28-.68-.28-.68-.26-.8-.37-.81-.36-.83-.34-.84-.32-.85-.3-.86-.29-.88-.26-.88-.24-.89-.22-.89-.21-.9-.18-.9-.15-.91-.14-.9-.12-.9-.09-.91-.08-.89-.05-.9-.03-.89-.02-.88.01-.88.02-.87.05-.86.06-.85.07-.84.1-.83.11-.81.12-.81.14-.79.15-.78.17-.76.18-.75.18-.73.2-.72.21-.7.22-.68.22-.67.23-.65.24-.64.25-.62.24-.6.26-.58.25-.57.26-.55.27-.53.26-.52.26-.49.27-.49.26-.47.26-.45.26-.44.27-.42.26-.41.26-.4.26-.38.26-.37.26-.36.26-.34.26-.33.25-.32.26-.3.25-.29.25-.28.25-.27.25 5.42 6.17.26.45.27.44.28.45.31.44.31.44.33.43.35.44.36.43.38.42.39.43.4.42.42.41.43.41.44.4.46.39.47.4.49.39.51.38.51.37.54.37.54.36.56.35.57.34.58.32.6.31.61.3.61.28.63.27.63.24.65.23.65.21.67.19.67.17.67.15.69.12.69.11.7.07.7.06.71.03.71.01.72-.02.72-.04.73-.06.73-.09.74-.12.74-.14.74-.16.74-.19.75-.21.75-.23.75-.26.75-.28.76-.29.75-.32.76-.34.75-.36.75-.37.76-.39.75-.4.75-.42.75-.42.74-.44.74-.45.73-.46.59-.36.59-.37.57-.37.57-.38.55-.39.54-.39.53-.39.51-.39.5-.4.48-.39.45-.4.44-.39.42-.39.39-.39.37-.39"/></clipPath><clipPath id="b"><path d="m-29.41-7.83.46-.24.48-.24.51-.23.53-.23.55-.23.58-.23.6-.22.61-.21.64-.21.65-.21.66-.2.68-.19.69-.19.71-.18.71-.18.84-.24.85-.23.87-.22.87-.21.88-.19.89-.19.9-.17.9-.16.9-.14.9-.14.91-.11.91-.11.9-.09.91-.08.9-.06.89-.06.89-.03.89-.03.87-.01h.87l.86.01.85.02.84.03.83.05.82.06.81.06.79.08.78.08.77.1.75.1.74.11.72.12.71.13.69.13.68.14.66.14.65.15.63.15.61.16.6.16.58.16.57.17.55.17.53.17.52.18.51.17.48.18.48.17.46.18.44.18.43.17.42.18.4.18.4.18.38.17.37.18.36.18.34.18.33.18.33.18.31.17.29.18.29.18.28.18-4.94 6.73-.19.46-.2.45-.21.46-.24.46-.24.46-.27.46-.28.45-.3.46-.31.46-.33.45-.34.45-.36.45-.38.44-.39.44-.4.43-.43.44-.44.43-.46.43-.47.42-.49.41-.51.41-.53.4-.54.39-.55.37-.58.37-.58.34-.61.34-.61.31-.64.3-.64.28-.66.25-.67.24-.69.21-.69.19-.71.17-.72.14-.73.11-.74.09-.75.06-.76.04h-.77l-.77-.02-.79-.05-.79-.08-.79-.11-.8-.14-.81-.17-.81-.19-.82-.23-.81-.25-.82-.28-.82-.31-.83-.33-.82-.36-.82-.38-.82-.4-.82-.43-.81-.45-.81-.47-.81-.48-.8-.5-.79-.51-.78-.53-.78-.54-.65-.41-.64-.42-.62-.42-.62-.43-.61-.43-.59-.44-.57-.44-.56-.43-.54-.44-.53-.44-.5-.44-.49-.43-.46-.43-.43-.42-.41-.41"/></clipPath><filter id="a"><feTurbulence baseFrequency=".05" numOctaves="3" result="noise" type="noise"/><feDisplacementMap in="SourceGraphic" in2="noise" scale="2"/></filter></defs><rect width="100%" height="100%" x="-100" y="-100" fill="#A6EBF2"/><path fill="#DF3320" stroke="#000" stroke-linejoin="round" stroke-width="1.667" d="m68.93.39-.04.4-.07 1.84-.05 1.33.14-1.07-.27 4.12.22-1-.17 2.28-.33 1.18-.05.91-.3 3.08.14-.22.01-.33-.61 2.71-.34 1.75-.22 1.87-.25.95-.14-.22.01.63-1.23 4.03-.11.71.44-1.18-1.15 3.85-.23.04-.46 1.77-.87 2.1.26-.75-.53 2.01-.8 1.43-.44 1.02-.59 1.31-.49 1.1-.35.62.76-1.75-1.6 3.57.11-.11-.25.66-1.39 2.39-.82.72-1.12 2.15-.11.37.18-.26-1.49 2.14-1.16 1.58.78-.8-1.23 1.32-.92 1.32-.38.3-1 1.73-.76.49-.77 1.29-1.73 1.86-1.17 1.09 1.48-1.45-2.4 2.27-.25.34L43 61.52l.88-.93-1.43 1.32-.78.78-1.73 1.59-1.57 1.2.01.17-1.2.51.08.13-1.53 1.01-1.9 1.41.23-.23-1.36.84-1.04.54-.55.45.55-.35-1.4.93-.94.24-1.59.95-.49.22-.19.14-3.01 1.22-1.29.68-1.52.82.05-.27-1.98.8h-.22l-.28-.09-2.48 1.1-.84-.11-1.09.48-.6.14-.95.13-.47.16-1.15.19-2.32.45.44-.25-1.4.48-1.94.05-1.59.12-.25.06-1.57-.02-1.64.25-1.11-.26 1.1.05-3.13.21-.69-.1 1.27.03-1.83-.2-2.03.08-.92-.4-2.26-.19-.58.13-1.25-.5-.88-.08-1.51-.31 1.72.53-2.7-.67-1.75-.36-.55-.2-1.63-.57.51.17-2.41-.95h-.62l-.6-.37-.95-.3-2.74-1.2.06-.02-.86-.35-1.3-.47-1.41-.76-.85-.23-1.1-.68-.35-.33-1.11-.45-1.11-1.06.22.12-2.44-1.23-1.25-.75.55.17-1.73-1.16-.65-.27-1.04-1.05-1.11-.72-1.41-1.24-.14.07-1.44-1.52-.67-.43-.49-.49-.57-.77-1.71-1.57-1.06-1.24.04-.28-.05.53-1.47-1.72.48.37-1.71-1.9-.6-1.17-.31-.1.16.09-2.33-3.05-.38-.34-1.04-1.8-.31-.36-.32-.51-1.19-2.18-.51-.54-.54-.9-.73-1.44-.49-.48-.5-1.37.52 1.39-1.1-2.42-1.29-2.62-.06.05-.56-1.81-.34-.16-.37-1.45-.44-1.27-.88-2.15-.61-1.31.25.22-.65-1.58-.1-.64-.76-2.1-.13-.72-.3-.64-.19-1.35-.5-2.96-.27-.97-.37-1.57-.06.52.02-.39-.42-2.58-.23-1.32-.24-1.99.26.15-.35-1.37.02-1.94v-.62l-.31-.41-.06-1.23-.04-1.62.12-1.64-.02-1.41-.06-1.66-.03-1.08.04-.43.29-1.37-.03-.75.08-3.04.1 1.55.14-1.81-.01-2.5.43-1.68-.04-.3.08-.56.24-1.55.63-1.96.19-1.58v-.72l.38-2.18.27-.33-.02-.23.61-2.18.52-1.35.1-.43.39-1.68.64-1.13.57-1.51-.27.56.8-1.88.9-2.55.26-.37.77-1.57.35-1.13-.04-.49.81-1.52.74-1.06-.1.06.97-2.13.08.35 1.44-1.98.58-1.42.87-1.49-.16.28 1.41-1.83-.15.03 1-1.61.81-.97-.58.72 2.66-3.03.3-.74 1-1.25-.66.64.78-.28 1.94-2.58-.44.78 2.29-2.25.83-1.02.06-.36.54-.22.82-.74 2.12-1.91.59-.02 1.08-1.13.99-.66.36-.56.14-.15 1.95-1.43 1.15-.61.93-.82.6-.11.66-.35 1.33-.75 1.03-.47-.2-.21 2.79-1.33-.95.27 1.97-.82.52-.38 1.31-.65.98-.36.11-.1 2.07-.73 1.54-.44-.65.16 1.46-.32 1.69-.84.98-.25.35-.12 2.16-.16 1.84-.52-.64.13 1.12-.25 3.38-.75-.23.02-.04.25.16-.11 3.88-.29.08-.27-.08.07 2.1.03.93-.1 1.81.19.15-.1 2.14-.08.04.01-.27.11 3.85.34-.6-.29 1.46.16 3.45.73-.79-.39.03.09 3.58.64-.47.03 1.51.32 1.53.53.98.29-.39-.26-.06.01 2.24.53 1.33.6 1.59.47 2.19 1.05-1.35-.71 2.93 1.34-.34-.06.38.05 2.27 1.31.34.05.51.34.82.43 1.16.51 1.99 1.11-.3.1 2.22 1.38.62.46.73.25 1.1.75.28.3 1.65 1.05.31.82 1.54 1.04.9.79.54.29.57.54.31.05.81.96.73.88 1.61 1.85.42.09.24.03 1.38 1.61.78 1.02.81 1.19h.35l.48.82 2.19 2.81-.47-.63 1.65 2.52.81 1.26.82.94.14.2.48.81-.22-.17 1.17 2.32.3.49 1.29 2.05.39.84.73.94-.6-1.08 1 1.91.57 1.73.31.38.8 2.35.48 1.07.63 1.99-.09-.43 1.32 3.37.04-.58-.15.64.94 2.47.47 2.1.19-.03-.48-.73.72 2.32.69 2.6-.16-.05.38.54.28 2.29.47 2.21-.06-.19-.04.46.13.62.37 2.18.03 1.2.11 2.22.13-.6.17 3.02.15 1.95.01 1.13-.2-.5.09 2.5-.04.4" filter="url(#a)"/><path fill="#fff" d="m-29.41-7.83.46-.24.48-.24.51-.23.53-.23.55-.23.58-.23.6-.22.61-.21.64-.21.65-.21.66-.2.68-.19.69-.19.71-.18.71-.18.84-.24.85-.23.87-.22.87-.21.88-.19.89-.19.9-.17.9-.16.9-.14.9-.14.91-.11.91-.11.9-.09.91-.08.9-.06.89-.06.89-.03.89-.03.87-.01h.87l.86.01.85.02.84.03.83.05.82.06.81.06.79.08.78.08.77.1.75.1.74.11.72.12.71.13.69.13.68.14.66.14.65.15.63.15.61.16.6.16.58.16.57.17.55.17.53.17.52.18.51.17.48.18.48.17.46.18.44.18.43.17.42.18.4.18.4.18.38.17.37.18.36.18.34.18.33.18.33.18.31.17.29.18.29.18.28.18-4.94 6.73-.19.46-.2.45-.21.46-.24.46-.24.46-.27.46-.28.45-.3.46-.31.46-.33.45-.34.45-.36.45-.38.44-.39.44-.4.43-.43.44-.44.43-.46.43-.47.42-.49.41-.51.41-.53.4-.54.39-.55.37-.58.37-.58.34-.61.34-.61.31-.64.3-.64.28-.66.25-.67.24-.69.21-.69.19-.71.17-.72.14-.73.11-.74.09-.75.06-.76.04h-.77l-.77-.02-.79-.05-.79-.08-.79-.11-.8-.14-.81-.17-.81-.19-.82-.23-.81-.25-.82-.28-.82-.31-.83-.33-.82-.36-.82-.38-.82-.4-.82-.43-.81-.45-.81-.47-.81-.48-.8-.5-.79-.51-.78-.53-.78-.54-.65-.41-.64-.42-.62-.42-.62-.43-.61-.43-.59-.44-.57-.44-.56-.43-.54-.44-.53-.44-.5-.44-.49-.43-.46-.43-.43-.42-.41-.41" filter="url(#a)" transform="translate(33.23 -23.37)"/><path fill="#fff" d="m27.99-5.67-.39-.34-.42-.35-.45-.34-.48-.33-.5-.34-.52-.33-.55-.32-.57-.32-.59-.32-.61-.3-.62-.3-.65-.29-.65-.28-.68-.28-.68-.26-.8-.37-.81-.36-.83-.34-.84-.32-.85-.3-.86-.29-.88-.26-.88-.24-.89-.22-.89-.21-.9-.18-.9-.15-.91-.14-.9-.12-.9-.09-.91-.08-.89-.05-.9-.03-.89-.02-.88.01-.88.02-.87.05-.86.06-.85.07-.84.1-.83.11-.81.12-.81.14-.79.15-.78.17-.76.18-.75.18-.73.2-.72.21-.7.22-.68.22-.67.23-.65.24-.64.25-.62.24-.6.26-.58.25-.57.26-.55.27-.53.26-.52.26-.49.27-.49.26-.47.26-.45.26-.44.27-.42.26-.41.26-.4.26-.38.26-.37.26-.36.26-.34.26-.33.25-.32.26-.3.25-.29.25-.28.25-.27.25 5.42 6.17.26.45.27.44.28.45.31.44.31.44.33.43.35.44.36.43.38.42.39.43.4.42.42.41.43.41.44.4.46.39.47.4.49.39.51.38.51.37.54.37.54.36.56.35.57.34.58.32.6.31.61.3.61.28.63.27.63.24.65.23.65.21.67.19.67.17.67.15.69.12.69.11.7.07.7.06.71.03.71.01.72-.02.72-.04.73-.06.73-.09.74-.12.74-.14.74-.16.74-.19.75-.21.75-.23.75-.26.75-.28.76-.29.75-.32.76-.34.75-.36.75-.37.76-.39.75-.4.75-.42.75-.42.74-.44.74-.45.73-.46.59-.36.59-.37.57-.37.57-.38.55-.39.54-.39.53-.39.51-.39.5-.4.48-.39.45-.4.44-.39.42-.39.39-.39.37-.39" filter="url(#a)" transform="translate(-34.86 -26.43)"/><g fill="none" stroke="#000" transform="translate(33.23 -23.37)"><path stroke-linejoin="round" stroke-width="1.667" d="m-32.03-5.49.07-.22.13-.22.17-.23.21-.24.25-.23.29-.24.33-.24.36-.24.39-.24.42-.24.46-.24.48-.24.51-.23.53-.23.55-.23.58-.23.6-.22.61-.21.64-.21.65-.21.66-.2.68-.19.69-.19.71-.18.71-.18.84-.24.85-.23.87-.22.87-.21.88-.19.89-.19.9-.17.9-.16.9-.14.9-.14.91-.11.91-.11.9-.09.91-.08.9-.06.89-.06.89-.03.89-.03.87-.01h.87l.86.01.85.02.84.03.83.05.82.06.81.06.79.08.78.08.77.1.75.1.74.11.72.12.71.13.69.13.68.14.66.14.65.15.63.15.61.16.6.16.58.16.57.17.55.17.53.17.52.18.51.17.48.18.48.17.46.18.44.18.43.17.42.18.4.18.4.18.38.17.37.18.36.18.34.18.33.18.33.18.31.17.29.18.29.18.28.18.26.17.26.18.24.17.23.17.23.17.21.18.2.17.2.16.18.17.17.17" filter="url(#a)"/><path stroke-linejoin="round" stroke-width="2.222" d="m-32.18-3.63.05.25.11.27.14.29.18.32.22.33.26.35.29.37.33.38.35.39.39.4.41.41.43.42.46.43.49.43.5.44.53.44.54.44.56.43.57.44.59.44.61.43.62.43.62.42.64.42.65.41.78.54.78.53.79.51.8.5.81.48.81.47.81.45.82.43.82.4.82.38.82.36.83.33.82.31.82.28.81.25.82.23.81.19.81.17.8.14.79.11.79.08.79.05.77.02h.77l.76-.04.75-.06.74-.09.73-.11.72-.14.71-.17.69-.19.69-.21.67-.24.66-.25.64-.28.64-.3.61-.31.61-.34.58-.34.58-.37.55-.37.54-.39.53-.4.51-.41.49-.41.47-.42.46-.43.44-.43.43-.44.4-.43.39-.44.38-.44.36-.45.34-.45.33-.45.31-.46.3-.46.28-.45.27-.46.24-.46.24-.46.21-.46.2-.45.19-.46.17-.45.15-.45.13-.45.13-.44.1-.45.09-.43.08-.44.06-.43.04-.43.03-.42" filter="url(#a)"/><circle cx="-1.735" cy="5.118" r="3.996" clip-path="url(#b)" filter="url(#a)"/><circle cx="-5.32" cy="5.238" r="3.974" clip-path="url(#b)" filter="url(#a)"/><circle cx="-2.805" cy="6.403" r="3.834" clip-path="url(#b)" filter="url(#a)"/><circle cx="-1.685" cy="7.743" r="3.146" clip-path="url(#b)" filter="url(#a)"/><circle cx="-.65" cy="5.638" r="4.952" clip-path="url(#b)" filter="url(#a)"/><circle cx="-4.62" cy="8.383" r="3.082" clip-path="url(#b)" filter="url(#a)"/><circle cx="-2.33" cy="6.388" r="4.942" clip-path="url(#b)" filter="url(#a)"/><circle cx="-5.125" cy="6.448" r="3.81" clip-path="url(#b)" filter="url(#a)"/><circle cx="-5.29" cy="9.558" r="3.804" clip-path="url(#b)" filter="url(#a)"/><circle cx="-4.915" cy="6.933" r="4.916" clip-path="url(#b)" filter="url(#a)"/></g><g fill="none" stroke="#000" transform="translate(-34.86 -26.43)"><path stroke-linejoin="round" stroke-width="2.222" d="M29.88-2.5v-.28l-.04-.29-.09-.3-.14-.31-.17-.32-.22-.33-.26-.33-.29-.33-.32-.34-.36-.34-.39-.34-.42-.35-.45-.34-.48-.33-.5-.34-.52-.33-.55-.32-.57-.32-.59-.32-.61-.3-.62-.3-.65-.29-.65-.28-.68-.28-.68-.26-.8-.37-.81-.36-.83-.34-.84-.32-.85-.3-.86-.29-.88-.26-.88-.24-.89-.22-.89-.21-.9-.18-.9-.15-.91-.14-.9-.12-.9-.09-.91-.08-.89-.05-.9-.03-.89-.02-.88.01-.88.02-.87.05-.86.06-.85.07-.84.1-.83.11-.81.12-.81.14-.79.15-.78.17-.76.18-.75.18-.73.2-.72.21-.7.22-.68.22-.67.23-.65.24-.64.25-.62.24-.6.26-.58.25-.57.26-.55.27-.53.26-.52.26-.49.27-.49.26-.47.26-.45.26-.44.27-.42.26-.41.26-.4.26-.38.26-.37.26-.36.26-.34.26-.33.25-.32.26-.3.25-.29.25-.28.25-.27.25-.25.24-.24.25-.23.24-.22.23-.21.24-.2.23-.18.23-.18.23-.16.23-.15.22" filter="url(#a)"/><path stroke-linejoin="round" stroke-width="2.222" d="M30.06-1.86v.3l-.04.31-.09.32-.14.33-.17.35-.21.35-.25.36-.28.37-.31.38-.33.38-.37.39-.39.39-.42.39-.44.39-.45.4-.48.39-.5.4-.51.39-.53.39-.54.39-.55.39-.57.38-.57.37-.59.37-.59.36-.73.46-.74.45-.74.44-.75.42-.75.42-.75.4-.76.39-.75.37-.75.36-.76.34-.75.32-.76.29-.75.28-.75.26-.75.23-.75.21-.74.19-.74.16-.74.14-.74.12-.73.09-.73.06-.72.04-.72.02-.71-.01-.71-.03-.7-.06-.7-.07-.69-.11-.69-.12-.67-.15-.67-.17-.67-.19-.65-.21-.65-.23-.63-.24-.63-.27-.61-.28-.61-.3-.6-.31-.58-.32-.57-.34-.56-.35-.54-.36-.54-.37-.51-.37-.51-.38-.49-.39-.47-.4-.46-.39-.44-.4-.43-.41-.42-.41-.4-.42-.39-.43-.38-.42-.36-.43-.35-.44-.33-.43-.31-.44-.31-.44-.28-.45-.27-.44-.26-.45-.24-.44-.22-.45-.21-.44-.19-.44-.18-.45-.16-.44-.15-.44-.13-.44-.12-.44-.1-.44" filter="url(#a)"/><circle cx="-12.778" cy="2.532" r="4.51" clip-path="url(#c)" filter="url(#a)"/><circle cx="-10.193" cy="4.057" r="3.668" clip-path="url(#c)" filter="url(#a)"/><circle cx="-12.518" cy="2.022" r="3.958" clip-path="url(#c)" filter="url(#a)"/><circle cx="-14.303" cy="3.772" r="4.604" clip-path="url(#c)" filter="url(#a)"/><circle cx="-12.513" cy="2.502" r="4.726" clip-path="url(#c)" filter="url(#a)"/><circle cx="-12.288" cy="4.132" r="4.438" clip-path="url(#c)" filter="url(#a)"/><circle cx="-13.318" cy="6.332" r="4.98" clip-path="url(#c)" filter="url(#a)"/><circle cx="-13.543" cy="4.857" r="4.198" clip-path="url(#c)" filter="url(#a)"/><circle cx="-13.663" cy="3.047" r="3.614" clip-path="url(#c)" filter="url(#a)"/><circle cx="-12.343" cy="4.627" r="3.05" clip-path="url(#c)" filter="url(#a)"/></g><g fill="none" stroke="#13861F" stroke-linejoin="round" stroke-width="2"><path d="m46.91-57.72.36.45.2.75-.23.68-.74.52-1.23.4-1.72.32-2.22.23-2.78.13-3.38-.04-4.03-.25-4.73-.5-5.44-.77-6.16-.99-6.85-1.17-7.57-1.3-8.32-1.38-9.15-1.48-10.01-1.65m40.33-13.46 1.43.37 1.19.35.93.28.88.26 1 .32 1.14.38 1.22.42 1.19.44 1.07.41.89.35.71.3.53.23.35.17.17.09-.05.01-.3-.09-.6-.21-.91-.32-1.21-.43-1.44-.5-1.52-.55-1.58-.6m-55.75 9.49 1.74-1.12 1.67-.86 1.73-.72 1.89-.68 2.08-.7 2.27-.73 2.41-.78 2.49-.8 2.52-.82 2.52-.8 2.49-.79 2.45-.76 2.41-.72 2.31-.65 2.14-.58 1.86-.53" filter="url(#a)"/><path d="m59.5-39.61.23.34-.2.1-.45.15-.74.07-1.14-.16-1.58-.5-2.07-.92-2.62-1.4-3.2-1.92-3.82-2.44-4.45-2.97-5.06-3.48-5.66-4-6.29-4.54-7-5.16-7.79-5.82m-11.75-6.41.65.07 1.41.09 1.65.12 1.71.14 1.71.16 1.69.17 1.68.2 1.67.2 1.62.2 1.51.17 1.3.14 1.06.1.81.1.64.09.46.1.07-.01" filter="url(#a)"/><path d="m41.92-62.38.34.27.01.22-.32.22-.64.22-1 .17-1.45.01-1.99-.17-2.57-.37-3.19-.56-3.84-.75-4.54-.97-5.27-1.2-6.02-1.42-6.8-1.63-7.6-1.89-8.28-2.25m-23.08 4.38.92-.59 1.12-.48 1.38-.53 1.6-.6 1.76-.66 1.87-.69 1.94-.7 1.99-.7 2.01-.69 2.02-.66 1.99-.64 1.94-.6 1.84-.56 1.67-.51 1.45-.46 1.2-.42 1.04-.37 1.1-.31m31.22 5.21-.02.04.43.26.47.3.27.25v.17l-.31.09-.63.02-1.01-.06-1.43-.18-1.91-.32-2.46-.51-3.07-.7-3.77-.91-4.52-1.12-5.4-1.31m-14.18-.36.09-.03.93-.2 1-.2.75-.12.5-.04.35.01.18.06-.04.13-.35.2-.7.29-1.08.38-1.53.49-2.02.59-2.56.71-3.17.86-3.87 1.06m19.15-5.39 1.69.01 1.39.01 1.22.01h1.06l.93.01.82.02.75.04.66.06.5.07.28.07-.02.07-.38.06-.77.06-1.16.07-1.59.08-2.02.06h-2.33l-2.41-.12" filter="url(#a)"/><path d="m5.98-78.49 1.58.27 1.06.29.39.28-.04.33-.39.44-.79.53-1.27.6-1.84.67-2.43.74-3.05.82-3.65.94-4.2 1.12-4.78 1.28-5.38 1.42-6.12 1.52-7.04 1.66m51.02-10.23 1.16.57.73.57.1.54-.54.53-1.13.57-1.69.65-2.25.72-2.82.81-3.44.89-4.12.98-4.84 1.11-5.59 1.24-6.37 1.36-7.14 1.44-7.87 1.44-8.61 1.44" filter="url(#a)"/><path d="m-23.24-74.18 1.8-.52 1.52-.25 1.6-.14 1.88-.09 2.18-.04 2.43.02 2.61.08 2.75.14 2.84.18 2.91.2 2.93.23 2.95.27 2.92.29 2.87.31 2.81.31 2.74.27 2.62.23 2.46.21 2.29.21 2.24.25m-34.05-6.25.06.1.79.14 1.51.11 1.94.12 2.12.15 2.22.2 2.29.26 2.35.29 2.36.31 2.31.32 2.21.31 2.09.3 1.97.29 1.85.27 1.7.24 1.44.21m-23.34-3.92 1.1-.02 1.19.03 1.15.02 1.09.03 1.08.05 1.1.07 1.11.08 1.07.09.95.09.79.09.55.08.31.08.06.07-.19.05-.46.03-.77.01-1.12-.04-1.54-.09-1.95-.14-2.34-.16-2.64-.21" filter="url(#a)"/><path d="m-7.94-78.27-.12.07.27.05h.64l.72-.01.6.04.42.11.22.19v.28l-.25.35-.54.43-.86.51-1.17.61-1.51.73-1.84.85-2.2.98-2.58 1.12-2.99 1.25-3.46 1.37-3.98 1.51-4.55 1.69-5.25 1.94m75.54-.83.59.8.68.7.45.49.17.34-.07.23-.29.2-.48.17-.69.13-.95.04-1.24-.06-1.56-.19-1.91-.31-2.27-.45-2.65-.58-3.02-.73-3.42-.88-3.82-1.04-4.28-1.2-4.78-1.38-5.3-1.6-5.84-1.87-6.58-2.13" filter="url(#a)"/><path d="m44.15-60.54.76.95.49.75.09.47-.29.3-.65.21-1.03.09-1.44-.05-1.89-.22-2.33-.38-2.8-.55-3.33-.75-3.92-.98-4.54-1.26-5.22-1.58-5.93-1.93-6.65-2.25-7.33-2.5-8-2.64m64.99 25.77.15.6-.9.28-1.82.18-2.7.17-3.58.15-4.52.07-5.52-.13-6.61-.4-7.76-.67-8.96-.87-10.16-.98-11.35-1.08-12.53-1.28-13.57-1.75" filter="url(#a)"/><path d="m41.02-63.17.72.59.53.41.43.37.38.4.35.45.29.43.17.36.02.26-.18.13-.39-.01-.64-.14-.91-.3-1.19-.46-1.46-.62-1.72-.79-1.98-.98-2.28-1.19-2.66-1.48-3.11-1.81-3.62-2.16-4.18-2.5-4.73-2.81" filter="url(#a)"/><path d="m44.88-59.66 1.1 1.17.61.6.43.53.3.53.16.5-.04.41-.23.33-.45.23-.67.13h-.95l-1.25-.18-1.59-.39-1.96-.65-2.33-.89-2.69-1.13-3.04-1.32-3.39-1.5-3.77-1.69-4.18-1.9-4.6-2.18-5.02-2.46-5.44-2.72-6.1-2.89M59.5-39.61l.04.3-.77-.02-1.4-.02-2.09-.15-2.87-.43-3.71-.82-4.62-1.27-5.56-1.78-6.53-2.31-7.54-2.86-8.57-3.39-9.63-3.91-10.68-4.41-11.82-4.89" filter="url(#a)"/><path d="m55.13-47.09.5.63.15.32-.05.24-.19.21-.32.15h-.51l-.77-.27-1.09-.61-1.46-.98-1.87-1.33-2.28-1.63-2.69-1.93-3.1-2.24-3.47-2.57-3.82-2.97-4.21-3.42-4.76-3.97-5.53-4.57" filter="url(#a)"/><path d="m61.2-36.11.4.84.43 1.15.33.98.18.66v.27l-.22-.15-.47-.59-.74-1.05-1.02-1.52-1.32-2.07-1.65-2.71-2.01-3.41-2.42-4.1-2.79-4.72" filter="url(#a)"/><path d="m57.82-42.5.92 1.51.51.84.27.5.14.41.08.41v.42l-.09.35-.22.2-.39-.01-.59-.31-.8-.63-1.05-.99-1.3-1.33-1.56-1.67-1.83-2.02-2.11-2.4-2.42-2.82-2.76-3.26-3.1-3.71-3.47-4.14-3.92-4.65" filter="url(#a)"/><path d="m57.52-42.99.34.83.06.93-.48.65-1.01.41-1.52.33-1.97.33-2.43.35-2.91.34-3.41.27-3.95.15h-4.51l-5.1-.17-5.68-.36-6.27-.54-6.85-.72-7.45-.88-8.08-1-8.77-1.13-9.43-1.25-10.05-1.41-10.64-1.5m14.46-24.51 1.52-.67 1.22-.55 1.18-.49 1.21-.46 1.24-.44 1.26-.41 1.24-.39 1.2-.38 1.17-.36 1.12-.34 1.05-.3.96-.26.83-.21.65-.16.45-.1.2-.05-.07.02-.37.08-.67.17-.98.25-1.26.35-1.57.45-1.76.47" filter="url(#a)"/><path d="m59.11-40.45.38.68.25.4.17.37.14.44.07.43-.05.31-.21.08-.42-.26-.67-.67-.93-1.13-1.24-1.61-1.56-2.13-1.91-2.67-2.24-3.19-2.53-3.7-2.79-4.2m15.94 21.57-11.18-8.12-17.42-10.07-11.26-4.6-7.33-2.35-6.37-2.73-5.09-3.32-2.67-2.86-.37-1.2.87 1.1 1.12 3.11.67 3.55-.91 1.64-4.69-1.63-11.82-1.54-34.92 10.4" filter="url(#a)"/><path d="M60.63-37.84 43.75-54.49l-19.39-9.13-11.55-2.2-1.05 1.61 4.65 1.93 4.85.23 2.31-1.52-.6-2.27-3.06-1.96-4.89-1.08-6-.08-6.38.83-6 1.58-4.44 2.09-.6 2.13 6.11 1.45 13.6.19 16.91-.35 13.61 1.78 6.7 3.18" filter="url(#a)"/><path d="m6.58-78.2 18.84 13.58 3.67 3.45L31-59.88l-1.95-1.01-3.81-1.83-1.91-.52.96 1.61 1.48 2.79-.97 2.26-4.37.45-6.1-1.65-5.15-3.09-3.06-3.25-3.88-2.35-8.6-2.79 7.18-9.32" filter="url(#a)"/><path d="m39.17-65.03-26.02 1.62 9.3 3.43 4-.02-6.33-3.04-10.13-3.37L2.5-68l-2.37.71 2.05 1.95 4.51 1.46 4.86-.41 3.02-2.34-.82-2.71-5.5-.48-7.21 4.7 4.57 12.83 57.81 21.97" filter="url(#a)"/><path d="m36.14-67.13.38 4.59-.58 2.74 2.9 2.3 3.35 1.43 2.28 1.4-.13 1.27-4.08.2-8.47-1.5-11.08-2.9-9.95-3.31-4.89-2.59 2.22-1.04 8.39.92 11.09 2.72 9.31 3.48 3.54 1.99-4.9-2.28-13.6-7.76-17.33-9.57-8.76-3.56" filter="url(#a)"/><path d="m-11.8-77.4 26.29 8.11 12.03 8.2-1.85 2.27-4.72-.6-2.27-1.1-.83-1.42-1.87-2.12-3.91-2.59-5.28-2.24-5.27-1.05-4.15.51-2.56 1.74-1.15 2.23-.09 1.95 1.01 1.22 2.63.45 4.65-.15 5.82-.69 4.44-1.33.16-1.92-4.71-1.99-5.58-.67 3.57 2.69 40.32 6.24" filter="url(#a)"/><path d="m10.1-77.99-6.59 4.32-8.57 1.56 1.19.18 6.5 1.68 7.6 3.84 6.56 4.7 4.63 3.7 2.8 1.55 1.66-.62 1.06-2.01.41-2.38-.54-1.85-1.11-.64-.35 1.01 1.74 2.5 3.3 2.76 1.34.75-5.4-3.41-13.61-7.31-16.81-6.77-19.15.25" filter="url(#a)"/><path d="m-53.05-50.33 48.11-14.48 10.63-6.58-.2-.52-2.13 3.32-1.27 4.91-.21 4.78.35 3.7.76 2.42 1.45 1.42 2.22.77 2.57.34 2.3-.02 1.85-.34 1.73-.56 1.91-.78 1.92-1 1.8-1.01 2.84-.2 6.31 1.97 8.96 3.94-.57-1.48L2.73-78.54" filter="url(#a)"/><path d="m25.74-73.06-9.74.43-8.75 2.28-9.31.36-4.69.18.87 1.61 4.23 3.14 4.58 3.69L5.8-58.4l.89 1.33.01-.43.57-1.58 1.78-1.91 2.44-1.71 1.71-1.53-.18-1.63-2.19-1.8-3.44-1.78-4.03-1.45-4.27-.89-1.76.12 10.78 2.8 38.8 11.14" filter="url(#a)"/><path d="m-17.13-76.35 19.89.37 9.57 1.97 5.79 2.21 2.65 1.68-.07 1.31-1.62 1.52-1.76 2.01-1.33 2.08-1.42 1.25-2.1-.22-2.28-1.44-.98-1.52 1.22-.07 2.12 2.37-.35 4.65-5.44 5.44-7.79 3.84.18.04 16.71-6.15 1.4-21.08" filter="url(#a)"/><path d="m41.92-62.38-5.2-2.19-1.09 3.74-2.94 3.99-5.81 1.36-4.87-.2-2.58-.46-2.64-.49-5.74-.71-9.76-.82-12.03-.56-11.14-.07-7.18.14-1.41-.2 4.47-1.03 8.74-1.94 9.96-2.53 7.53-2.63 2.3-2.32-3.12-1.78-4.63-1.05 1.74.07 16.42 1.98 29.52 7.99" filter="url(#a)"/><path d="m-4.17-78.6 22.3 10.71 19.47 13.2 6.87 6.24-3.16.87-6.33-.59-4.69-.04-3.17.21-4.68-.59-7.62-1.77-8.07-2.52-4.18-2.82 1.64-3.33 5.01-4.15 3.51-4.09-5.96-2.02-37.57-.84" filter="url(#a)"/><path d="M64.69-27.96 17.93-53.11l-27.99-6.99-9.71-2.9 2-1.52 8.09-.87 9.73-.57 8.27-.54 4.85-.71.48-.87-3.89-.77-7.11-.34-8.16.21-6.34.5-1.71.39 4.56.23 10.1.6 11.87 1.83 7.21 3.08-3.98 2.17-13.29-3.47 13.96-12.7" filter="url(#a)"/><path d="m-8.05-78.11 25.77 11.57 11.69 7.27-2.35-.48-8.88-2.96-9.33-2.35-6.15-.72-1.33.75 3.4 1.51 6.48 1.53 6.87 1.04 4.72.35 1.29-.31-1.39-.65-1.46-.24 1.79 1.17 7.16 3.46 11.78 6.65 13.03 10.76 8.38 9.44" filter="url(#a)"/><path d="m39.48-64.21-8.01-2.45-5.05.28-8.93-1.34-8.3-1.17-4.55-.28-.31.31 2.26.41 2.03.26-.68.22-4.38.4-7.17.71-7.76.92-5.96.97-2.74.94.2.97 1.41 1.08.58 1.12-1.03.83-1.44.12.05-.82 1.25-1.49-.25-1.57 2.44-2.25 34.12-10.05" filter="url(#a)"/><path d="m6.58-78.2 22.54 16.61-5.9.25-7.35-1.13-2.78-.57.13-.66.38-1.3-.68-1.9-1.53-2.04-1.51-1.6-.8-.7.26.43 1.48 1.57 2.74 2.42 3.62 2.67 3.64 1.92 2.72.21 1.74-1.52 2.15-1.52 2.73-.35-12.9-10.68" filter="url(#a)"/><path d="m85.17-36.07-1.76.74-.79 1.42-1.56 2.17-2.08 2.31-1.9 2.01-1.27 1.66-.51 1.42.06 1.31.23 1.29-.12 1.38-.87 1.59-1.71 1.8-2.19 1.77-1.89 1.27-.87.6L.67-78.48l.63-.04.87.06.88.09.99.07 1.11.07 1.18.08 1.2.11 1.18.15 1.13.18 1.09.22 1.06.24 1.03.27 1 .28.93.29.87.29.8.27.81.28.9.31 1.04.36 1.18.42 1.22.46 1.11.45.97.44 1.66.75-26.65-6.29-1.14-1.87-1.07-.5-1.02-.41-1.1-.59-1.18-.97-1.19-1.44-1.2-1.89-1.26-2.15-1.37-2.12-1.42-1.76-1.42-1.27-1.45-.99-1.68-1.32-2.02-2.35-1.75-3.25 31.62 23-.06.01h-.66l-1.13-.06-1.27-.07-1.24-.08-1.14-.06-1.04-.03h-.95l-.92.05-.96.06-1.03.05-1.12.04-1.17.01-1.08-.01-.53-.03" filter="url(#a)"/><path d="m-4.17-78.4.41 4.25.61.03.88-.73 1.02-.17 1.02.46.97.69.92.54.9.23.93-.01.98-.07 1.04.11 1.06.51.98 1.06.85 1.62.71 1.93.7 1.72.86.96.52-.01-40.88-4.88 1.62-.85.89-.53.84-.48.89-.47.91-.45.93-.44.93-.43.94-.4.94-.39.95-.37.96-.37.99-.36 1.04-.34 1.07-.31 1.1-.28 1.1-.26 1.09-.25 1.09-.27 1.13-.28 1.11-.27.8-.14.16.1-17.77-.69.86-.26 1.09.18 1.2.23 1.14.09 1.04-.06 1.02-.15 1.08-.09 1.15.06 1.21.2 1.24.28 1.2.27 1.15.17 1.12.02 1.22-.12 1.35-.24.74-.14" filter="url(#a)"/><path d="m-30.25-84.05 1.23.74 1.25.31 1.32.6 1.4.81 1.39.81 1.32.69 1.23.53 1.19.39 1.18.3 1.2.23 1.21.14 1.22.05h1.18l1.04.14.8.42.77.37m-1.12.25 1.54-.14 1.4-.06 1 .09.87.25.93.33 1.01.34 1.04.28 1.04.2 1.05.13 1.03.08 1.03.12.99.19.96.25.92.28.93.25.98.2 1.07.19 1.16.29 1.27.48 1.23.66.37.43" filter="url(#a)"/><path d="m-13.64-76.88 1.01-.92.75-.77.86-1.38.87-1.94.79-2.2.77-2.28.84-2.19.96-1.92 1.06-1.4 1.15-.9 1.2-.75 1.26-1.05L-.82-96 .5-97.31l1.31-.74 1.25-.81.82-2.85-17.52 24.83-1.33 1.07-1.03.5-1.04.23-1 .29-.92.45-.86.57-.85.61-.85.6-.84.63-.81.67-.79.73-.76.73-.77.7-.77.66-.75.66-.7.76-.63.9-.59.99-.57.93-.58.7-.63.12" filter="url(#a)"/><path d="m-37.17-88.14.36-1.22 1.4.06 1.61.86 1.71 1.24 1.68 1.24 1.54.77 1.29.06 1.08-.58.99-.81 1.04-.52 1.17.07 1.31.7 1.47 1.3 1.65 2.05 1.8 2.8 1.72 2.54 1.71.7" filter="url(#a)"/><path d="m6.88-90.28-.75 1.8-1.37 1.2-1.16.97-1.03.8-1.04.63-1.09.42-1.14.2-1.16.04-1.15.03-1.11.16-1.08.39-1.05.55-1 .61-.95.61-.91.65-.93.77-.96.83-1.01.66-1.05.26-1.24.17-1.5 1.81" filter="url(#a)"/><path d="m3.25-85.16-.65.44-1.07.11-1.16.09-1.18.22-1.17.39-1.13.53-1.09.65-1.05.71-1.02.73-.96.72-.92.65-.92.56-.94.49-.99.44-1.02.4-1.05.4-1.09.36-1.12.32-1.01.28-.84.32m-1.69.84-.84.38-.66.41-.85.43-.97.39-.97.37-.93.43-.88.52-.84.59-.83.62-.82.61-.82.58-.82.56-.83.54-.8.56-.8.58-.78.62-.8.68-.82.75-.84.79-.83.77-.73.66-.59.6-.59.79M58.66 3.38 60.3 2.3l.5-1.1.29-1.03.5-.97.72-1 .84-1.1.88-1.22.91-1.34.89-1.37.79-1.39.62-1.37.39-1.32.21-1.19.08-.92.05-.51.07-.07" filter="url(#a)"/><path d="m68.04-13.6 3.05-.54 1.31.3-.01 1v1.3l.61 1.37 1.14 1.35 1.37 1.35 1.38 1.38 1.38 1.39 1.47 1.36 1.51 1.32 1.33 1.29.91 1.27.36 1.28-.03 1.29-.13 1.29.06 1.33.49 1.42 1.23 1.57 2.25 1.81 2.94 2.03L68.04-13.6l-.67.19-.45.61-.37.97-.36 1.21-.24 1.32-.11 1.32-.12 1.31-.29 1.3-.53 1.28-.68 1.21-.68 1.12-.57 1.05L62.52.3l-.36.97-.36.94-.42.9-.52.92-.64.92-.6.25 11-46.22-.39 2.73.13 1.87-.19 1.73-.44 1.69-.49 1.63-.35 1.51-.11 1.4.09 1.29.16 1.21.06 1.16-.1 1.15-.2 1.2-.18 1.25-.11 1.27-.06 1.26.06 1.29.18 1.57-.64 2.21m-89.21-61.31-1.46.33-.95.29-.93.27-.97.24-.98.24-.99.23-1.02.17-1.04.1-1.09.03-1.12-.02-1.13-.05-1.15-.06-1.18-.05-1.21.03-1.21.19-1.15.43-1.04.61-.89.58-.81.4-.82.61 21.14-4.57-1.47.33-.99.21-.94.25-1.02.16-1.14-.11-1.31-.5-1.48-.87-1.6-1.11-1.62-1.1-1.57-.91-1.49-.65-1.46-.47-1.51-.41-1.59-.43-1.66-.44-1.63-.31-1.53-.1-1.43.06-1.43.08h-1.56l-1.76-.05-1.96.1-1.97.58-1.5 1.13 33.55 5.29-.69-.65-.97-.21-.91.43-.88.6-.9.53-.92.44-.93.38-.96.33-.97.3-1 .24-1.06.17-1.13.08h-1.23l-1.32-.06-1.34-.05-1.28.04-1.15.22-1 .4-.96.55-1.03.67-1.22.84-1.86 1.18L.82-78.58l-.64.02-1.08-.02h-1.13l-1.09.03-1.05.06-1.04.09-1.01.1-.98.12-.95.12-.96.15-.98.17-1.02.2-1.05.21-1.08.23-1.1.23-1.12.26-1.1.28-1.08.31-1.02.32-.94.31-.9.3-1.09.35-1.65.56" filter="url(#a)"/><path d="m-28.13-71.87 1.22-1.35.43-2.45.41-2.2.58-1.67.67-1.62.63-1.86.63-1.92.69-1.69.82-1.32.96-1.05 1.07-.98 1.12-1.14 1.12-1.52 1.04-1.97.87-2.18.6-1.72.66-1.56" filter="url(#a)"/><path d="m-28.13-71.87-.08.23-.73.69-.76.79-.78.69-.81.56-.85.47-.86.51-.86.6-.82.72-.77.83-.69.92-.62.99-.58 1.04-.61 1.04-.7 1.01-.8.95-.85.84-.8.72-.59.66-.31.76-.27 1.1 14.14-16.12 1.52-.45 1.27.09 1.2.32 1.14.3 1.11.26 1.11.35 1.12.4 1.07.32 1.02.05.96-.22.95-.39.97-.37 1.02-.2h1.05l1.06.15 1.08.23 1.11.31 1.1.55.86 1.01.3 1.64-22.66-3.08-1.78-1.21-.95.52-.84.57-.97.35-1.16.13-1.38-.1-1.53-.36-1.59-.51-1.55-.45-1.45-.23-1.43-.01-1.54.05-1.77-.14-2.01-.47-2.14-.8-2.06-.86-1.81-.39-1.68.6-2.22 1.92" filter="url(#a)"/><path d="m-33.39-68.92-.97.77-1.04.85-.9.87-.74.83-.67.78-.7.79-.75.83-.82.87-.85.88-.83.84-.79.77-.73.74-.7.8-.7.96-.68 1.13-.64 1.29-.99 1.78" filter="url(#a)"/><path d="m-34.32-68.1.7-.73.65-.59.76-.48.84-.43.88-.43.86-.47.85-.53.82-.57.83-.58.84-.59.85-.59.86-.56.89-.53.99-.51 1.22-.53 1.46-.6-26.28 25.43.5-1.17.6-1.36.56-1.32.59-1.22.62-1.04.66-.84.7-.74.74-.79.76-.92.8-.97.83-.89.8-.77.58-.83.18-1.03-.04-.78" filter="url(#a)"/><path d="m-37.42-66.06-.32.2-.65.34-.86.49-.96.63-1 .74-1.01.74-.97.7-.95.66-.91.68-.89.74-.87.79-.86.81-.84.77-.83.71-.81.65-.79.67-.8.74-.8.86-.78.92-.76.91-.72.85-.71.79-.76.83-1.09 1.18" filter="url(#a)"/><path d="m-37.92-65.35-1.19.33-1.67-.31-1.75-.25-1.49.14-1.14.51-.83.8-.68.96-.71 1-.87.9-1.06.71-1.22.44-1.29.19-1.26.07-1.17.13-1.15.4-1.22.79-1.29.93-.98-.22" filter="url(#a)"/><path d="m-37.92-65.35-2.64-2.14-.7 1.22-.63 1.48-.93 1.01-1.14.51-1.2.24-1.24.14-1.33.14-1.52.11-1.71-.01-1.83-.15-1.81-.31-1.65-.53-1.45-.7-1.59-.28 20.38-.07.77-.52.72-.4.93-.29 1.13-.22 1.15-.22 1.07-.27.98-.3.91-.33.88-.33.87-.37.86-.37.89-.32.93-.17 1.01.02 1.07.19 1.07.19.99.02.75-.24.29-.47M80.95-50.52l-.45 2.41-1.52 2.84-1.38 2.76-1.26 2.59-1.12 2.36-.94 2.12-.71 1.89-.46 1.68-.25 1.55-.15 1.46-.23 1.42-.42 1.38-.49 1.32-.19 1.25.64 1.11 1.69.86 1.11.73-7.53 2.69m0 0 .34 1.95.38 1.3.41.88.59.77.89.86 1.24.99 1.49 1.12 1.53 1.22 1.36 1.3 1.08 1.37.87 1.41.87 1.38 1.1 1.3 1.36 1.24L82.14.25l.92 1.39.46 1.56 1.23 1.68M-67.77-49.4l1.3-1.94 1.58-.98 1.66-.41 1.48-.32 1.1-.55.74-.85.54-1.07.57-1.08.8-.92 1.11-.63 1.41-.29 1.57-.01 1.55.1 1.38-.04 1.14-.39.89-.79.76-1.13.76-1.16.99-.63 1.47.55 1.45 1.05" filter="url(#a)"/><path d="m-44.12-60.31-1.08 1.18-1.09 1.09-.93.93-.79.8-.68.72-.63.71-.63.77-.68.85-.71.9-.7.91-.67.9-.63.87-.6.85-.57.86-.58.88-.59.95-.64 1.01-.67 1.08-.67 1.08-.63 1-.5.88-.2.5 14.87-19.72.13-.55.41-.87.79-.92 1.02-.8 1.07-.68 1-.63.9-.67.81-.75.78-.82.79-.84.81-.81.84-.77.84-.71.84-.67.81-.68.8-.7.78-.76.77-.82.76-.86.78-.84.84-.75.93-.67.98-.67.97-.72-5.41 16.19-1.17.11-1.16.36-1.23.08-1.16-.08-1.09-.08-1.05.05-1.02.27-.99.51-.96.68-.95.65-.96.48-.95.28-1.05.21-1.42.37-2 1.15-33.21 11.58 2.18-.85 1.68-.65 1.41-.67.96-.92.79-.98 1.09-.76 1.56-.46 1.87-.3 1.86-.36 1.64-.52 1.38-.65 1.28-.6 1.38-.39 1.61-.09 1.83.16 1.89.21 1.79.08 1.56-.2 1.28-.45 1.01-.59.76-.58.62-.52.78-.68 1.44-1.59" filter="url(#a)"/><path d="m-48.74-55.24-.28.25-.18.46-.26.95-.4 1.2-.54 1.2-.61 1.04-.65.89-.64.8-.59.81-.49.89-.39 1.02-.32 1.13-.34 1.2-.4 1.18-.47 1.1-.46 1.01-.4.96-.27.98-.18 1.04-.1 1.11.24 1M66.91-18.64l.29-.89.48-1.62.31-1.39.14-1.13.1-1.13.2-1.27.29-1.41.32-1.47.26-1.48.15-1.47.03-1.49-.01-1.57.01-1.67.03-1.72-.09-1.67-.3-1.49-.42-1.26-.28-1.1.11-1.05.36-1.09-.13-1.04" filter="url(#a)"/><path d="m-49.52-54.96-.38-.56-.92.26-1.02.77-.94.94-.77.96-.67.9-.67.8-.77.68-.9.56-1.04.5-1.15.51-1.23.63-1.2.79-1.07.91-1 .91-1.7.85 16.09-11.05-1.1.93-1.68.48-1.85.17-1.38.38-.88.7-.74.8-.87.68-1.09.52-1.28.45-1.38.45-1.42.52-1.35.62-1.21.72-1.02.8-.94.82-.99.74-1.16.63-1.29.58-1.31.6-1.51.65-2.31.63 23.38-8.57.35-.35.93-1.1.83-1.01.68-.79.65-.66.71-.64.81-.68.87-.73.89-.76.86-.77.85-.77.84-.75.86-.74.92-.72.95-.69.95-.65.93-.6.89-.56.87-.55.91-.54 1-.56 1.07-.54.99-.44.72-.27-26.13 24.86.44-2.23-.27-2.22-.23-1.8.18-1.27.5-.93.66-.82.72-.82.73-.86.72-.96.62-1.1.48-1.23.35-1.3.27-1.32.25-1.33.3-1.4.34-1.51.4-1.64.41-1.67.34-1.62.17-1.53.04-1.44.39-1.18" filter="url(#a)"/><path d="m-58.99-40.59-.65-1.09.49-.91.51-1.13.33-1.4.07-1.62-.15-1.75-.27-1.77-.21-1.66-.07-1.54.06-1.48.11-1.53.1-1.65.1-1.74.1-1.77.05-1.76-.06-1.81-.19-1.91-.18-2.05-.01-2.16.23-2.32.28-2.79.33-2.88m-2.48 41.79-.31 1.23-.41 1.27-.51 1.3-.5 1.27-.42 1.21-.32 1.16-.24 1.13-.19 1.14-.19 1.15-.23 1.15-.28 1.11-.29 1.09-.24 1.08-.15 1.1-.08 1.14-.02 1.21-.03 1.27-.09 1.31-.13 1.28-.11 1.16.05 1 .23.92.06 1.18" filter="url(#a)"/><path d="m66.38-21.19-.39-1.28-.25-.58-.37-.71-.6-.89-.82-.92-.98-.86-1.01-.81-.97-.82-.91-.86-.88-.92-.85-.96-.83-.98-.8-.95-.8-.84-.87-.67-.93-.48-.95-.37-.89-.41-.81-.61-.84-.79-1.05-.84-1.28-1.1-99.72-7.51-.61.07-.8.44-.75.63-.74.81-.76.91-.79.92-.79.85-.76.77-.71.73-.65.74-.59.77-.53.83-.47.89-.51.98-.74 1.19" filter="url(#a)"/><path d="m-63.58-30.02.78-1.79.76-1.52.72-1.19.67-1.02.6-.92.59-.85.64-.77.75-.66.86-.56.96-.49 1.04-.5 1.07-.58 1.09-.77 1.03-.98.8-1.22-12.36 13.82.85-1.77.73-1.54.67-1.23.62-1.05.54-.97.5-.92.5-.88.54-.83.6-.78.65-.77.73-.79.78-.85.83-.9.83-.91.77-.81.82-.64 1.36-.7-12.32 16.34.16.19.12 1 .16 1.27.22 1.33.38 1.36.63 1.4.8 1.41.8 1.36.7 1.28.58 1.24.49 1.25.46 1.29.47 1.31.49 1.26.49 1.15.42.93.25.79.72 1.13" filter="url(#a)"/><path d="m-63.58-30.02-.29-.01-1.06.5-1.11.76-.7.99-.25 1.18-.03 1.25-.04 1.23-.15 1.13-.32 1.07-.48 1.04-.64 1.09-.78 1.15-.88 1.22-.89 1.23-.8 1.11-.64.81-.33.41 9.39-16.16-1.33-3.01-.77-2.42.34-1.48.61-1.14.51-1.1.39-1.11.33-1.1.31-1.12.32-1.15.29-1.22.3-1.29.31-1.35.3-1.41.22-1.5.02-1.63-.22-1.81-.46-1.99-.54-2.07-.4-2-.06-1.83.34-1.74.54-1.91.42-2.29.18-2.45" filter="url(#a)"/><path d="m-63.31-30.58-.24 1.47.4 1.58.38 1.48v1.26l-.35 1.1-.47 1-.39.98-.18 1.05.03 1.16.19 1.25.26 1.31.31 1.33.33 1.3.33 1.24.27 1.19.16 1.17v1.19l-.1 1.17.04 1.03.52.92 1.26 1.63 3.92-.94-.24-1.57-.13-1.48-.59-1.31-.85-1.18-.83-1.17-.64-1.21-.41-1.25-.23-1.26-.13-1.22-.14-1.18-.25-1.17-.39-1.19-.45-1.23-.42-1.29-.34-1.31-.34-1.34-.42-1.45-.44-1.55-.63-1.42-.7-1.38-.16-1.47.12-1.53.05-1.6-.19-1.65-.34-1.64-.34-1.57-.27-1.51-.28-1.5-.42-1.6-.61-1.74-.77-1.92-.9-2.23-.56-2.86" filter="url(#a)"/><path d="m-64.52-27.94-.61 1.16-.42 1.06-.43 1.1-.57 1.02-.65.96-.58.98-.44 1.09-.34 1.2-.32 1.27-.36 1.28-.42 1.25-.44 1.2-.44 1.19-.43 1.21-.46 1.22-.49 1.22-.5 1.18-.44 1.15-.39 1.14-.45 1.17-.62 1.06-.48.73 9.89-23.16-1.38.3-1.06.86-.61 1.03-.33 1.05-.4 1.04-.82 1.01-1.52.95-2.22.88-2.61.85-2.54.85-2.14.92-1.78 1.01-1.82 1.15-2.21 1.29-2.47 1.36-2.2.94-1.87-.69" filter="url(#a)"/><path d="m-65.01-25.83-.07-.89.15-1.18.23-1.16.27-1.11.22-1.2.05-1.4-.19-1.62-.41-1.77-.51-1.81-.47-1.73-.37-1.62-.26-1.54-.2-1.47-.09-1.4.14-1.27.47-1.14.68-1.18.55-1.55.01-2.23-.35-2.67M65.66-23.51l.97.03.55-.79.14-1.27.13-1.46.27-1.48.43-1.52.64-1.66.83-1.84.83-1.95.54-1.92.1-1.78-.25-1.67-.24-1.69.12-1.8.64-1.69 1.79-.96-7.49 23.45 1.73-.23.54-.8.04-1.24v-2.76l-.12-1.25-.23-1.23-.2-1.32-.04-1.5.18-1.71.37-1.92.56-2.07.75-2.21.84-2.19.63-1.66.12.13" filter="url(#a)"/><path d="m64.54-27.32 1.22 1.82.41 1.33.26.89.27.82.31.96.36 1.09.44 1.12.49 1.12.49 1.13.43 1.11.3 1.02.22.85.24.73.35.89.52 1.54" filter="url(#a)"/><path d="M85.39-1.99 84-3.6l-1.97-1.84-1.42-1.74-.93-1.58-.82-1.45-.94-1.32-1.06-1.19-1.04-1.06-.87-1-.62-1.03-.45-1.09-.44-1.13-.62-1.13-.86-1.07-.95-1.05-.75-1.05-.29-1.07.06-1.04-.4-.88-2.15-.72-2.94-1.28.72 2.04.43 1.31.28.9.24.87.26 1.01.27 1.11.28 1.16.27 1.16.27 1.15.24 1.09.22 1.03.2.98.19.98.18 1.06.18 1.17.18 1.26.17 1.3.16 1.37.16 1.64.2 1.97 22.88-11.48.04-2.14-1.05-1.05-1.88-.63-2.28-.64-2.49-.76-2.63-.81-2.67-.78-2.48-.77-1.99-.84-1.36-.93-.9-.9-1-.73-1.69-.52-2.41-.52-2.17-.84-.87-.86-.04.58-1.32.57.43.72.58 1.04.27 1.11-.02 1.07-.18 1.06-.23 1.11-.28 1.2-.41 1.26-.58 1.31-.75 1.35-.81 1.33-.8 1.19-.82.93-1.07.71-1.46.74" filter="url(#a)"/><path d="m54.93-59.05-.03 1.02.42 1.45.65 1.52.83 1.37.89 1.2.79 1.11.57 1.09.33 1.12.18 1.15.17 1.17.27 1.16.39 1.13.42 1.12.35 1.12.2 1.13.07 1.16.01 1.19.1 1.22.28 1.25.48 1.27.66 1.27.74 1.2.52 1.05-.89.83.09.43.48.46.81.92 1.05.82 1.33.75 1.43.74 1.22.8.82.88.42 1.03.19 1.14.23 1.21.54 1.19.97 1.1 1.39 1 1.68.9 1.75.84 1.63.84 1.36.93 1.04 1.09.75 1.3.5 1.46.29 1.55.19 1.68.51 1.98 1.9 2.3M61.51-35.73l.65 1.88.52 1.46.43 1.27.37 1.19.33 1.14.3 1.13.27 1.13.24 1.13.2 1.11.18 1.07.17 1.06.19 1.06.23 1.09.24 1.12.22 1.15.15 1.16.08 1.15.01 1.07v.95l.03.87.09.95.12 1.2.1 1.31" filter="url(#a)"/><path d="m61.2-36.11.57.82.82 1.17.97 1.1 1.03.99.93.94.75.98.66 1.01.75 1 1 .93 1.25.81 1.32.7 1.15.66.81.84.51 1.21.41 1.45.73.65L61.2-36.11l-.44-1.57-.28-1.05-.24-.76-.3-.8-.37-.97-.44-1.09-.52-1.08-.53-1-.5-.89-.44-.82-.42-.83-.43-.94-.47-1.11-.52-1.3-.57-1.43-.61-1.52-.7-1.61-.73-1.36 10.54-21.13.14 3.32-.13 2.75-.24 2.45-.14 2.23.03 2.13.08 2.14-.03 2.25-.19 2.33-.32 2.28-.29 2.04-.11 1.67.13 1.3.36 1.06.48 1.04.53 1.13.62 1.19.8 1.05.78.86-.1 1.04-2.28 2.17-2.72 3.1.64 1.27 1.28.86 1.67.74 1.45.85 1.12.99 1.03 1 1.19.9 1.46.77 1.69.69 1.77.67 1.64.7 1.33.78.92.91.54 1.09.37 1.24.52 1.29.88 1.22 1.16 1.25 1.07 1.67 1.58 2.17-24.31-22.97 3.87-.17 1.89.7.32 1.53-.11 1.77.03 1.65.32 1.43.58 1.22.78 1.07.97.97 1.19.88 1.36.81 1.43.76 1.3.78 1.08.85.88.95.87 1.05 1.04 1.09 1.34 1.09 1.62 1.11 1.73 1.23 1.31 1.32.94.54-24.74-22.63 1.24 1.38.89 1.24.9 1.15 1.15 1.03 1.55.83 1.86.63 1.91.56 1.75.61 1.64.67 1.81.68 2.26.6 2.69.46 2.67.32 2.01.23 1.03.44.77 1.55-29.17-43-.95 2.02.37 1.06.76 1.03.54 1.38.12 1.8-.23 2.14-.34 2.29-.22 2.25.01 2.06.25 1.8.44 1.51.62 1.17.79.77.92.44.79.4.19.97-.75 1.95-2.08 2.83" filter="url(#a)"/><path d="m57.52-42.99 2.21-.3 2.18.09 1.87.1 1.21.35 1.01.5 1.4.44 1.87.36 2.01.46 1.76.72 1.39 1.01 1.15 1.16 1.08 1.18 1.09 1.13 1.11 1.1 1.09 1.11 1.12 1.15 1.22 1.12 1.44.9 1.79.45 2.05.16 2.27 1.13-33.49-16.64 1.07 1.56.88 1.2.77 1.05.76.81.86.56 1 .43 1.06.49.97.71.81.99.65 1.21.64 1.29.75 1.23.9 1.1.94 1.01.84.91.8.6 1.13.02-14.83-15.17.86 1.74.66 1.35.5 1.22.3 1.08.12 1.02v1.03l.01 1.12.09 1.19.19 1.27.22 1.32.19 1.37.16 1.35.18 1.29.24 1.17.28 1.07.23 1.03.18 1.16.27 1.49.3 1.88M57.6-78.99l-1.35 4.49-.31 2.98.53 1.47.77 1 .35 1.49-.36 2.32-.84 2.84-.84 2.82-.45 2.42.02 1.97.3 1.72.34 1.7.22 1.81.09 1.78.05 1.44-.03.79" filter="url(#a)"/><path d="m55.13-47.09.37.86-.19.99-.51 1.27-.36 1.36.09 1.22.48 1.03.58.94.41.95.14 1.03-.06 1.1-.1 1.16-.01 1.18.13 1.21.18 1.26.08 1.36-.11 1.44-.24 1.46-.18 1.39.01 1.21-.48.75 5.88-8.88-.59-1.66-.42-1.28-.37-1.11-.34-.94-.31-.8-.33-.79-.39-.89-.48-1-.55-1.05-.58-.99-.54-.87-.42-.71-.26-.65-.15-.71-.38-.84-2.46-3.78-.49-.14-.95-.86-.78-.98-.69-.91-.73-.83-.81-.73-.86-.66-.88-.63-.87-.63-.86-.63-.87-.59-.87-.48-.84-.36-.79-.31-.72-.36-.72-.46-.85-.5-1-.5-.69-.67m35.97 27.02-.67-1.91-.94-1.55-.99-1.36-1.04-1.15-1.13-.89-1.14-.67-1.07-.57-.96-.62-.89-.74-.92-.79-1.05-.74-1.19-.57-1.29-.36-1.28-.22-1.16-.24-1-.4-.94-.68-.99-.89-1.04-.81h-.54l.3.21 1.1.77 1.25.68 1.01.6.72.62.59.67.63.71.76.75.89.78.96.77.96.72.91.67.83.65.83.68.93.75 1.1.84 1.29.95 1.39 1.07 1.33 1.27.75 1.82" filter="url(#a)"/><path d="m53.14-50.24.31.18 1.46.44 2.16-.06 2.13-.31 1.55-.08.85.41.48.8.58.94 1 .83 1.42.62 1.57.48 1.3.43.78.43.45.44 1.11.82" filter="url(#a)"/><path d="M71.72-38.42 71-40.36l-.7-1.37-.99-.95-1.11-.61-1.18-.42-1.32-.31-1.48-.31-1.54-.37-1.44-.46-1.22-.57-.93-.64-.68-.71-.56-.77-.61-.8-.8-.82-1.08-.77-1.33-.72-1.41-.75-1.27-1.02-.88-1.14m-.35 0 2-4.25-.8-1.13-1.19-.49-1.04-.55-.72-.95-.41-1.37-.22-1.58-.16-1.59-.16-1.49-.21-1.41-.28-1.39-.37-1.41-.47-1.46-.51-1.58-.47-1.74-.37-1.91-.29-2.01-.28-1.97-.41-1.88-.74-1.91-1.55-2.2 10.65 1.6.54 1.5-.08 2.84-.71 3.43-1.16 3.65-1.27 3.52-.99 3.06-.43 2.36.26 1.55.84.86 1.03.57.63.94-.13 1.87-.64 2.62-.33 2.41.44 1.49-.81-1.19-.94-.94-.95-.68-1.04-.35-1.09-.3-1-.46-.83-.64-.69-.69-.67-.61-.75-.42-.89-.23-1.04-.1-1.15-.05-1.18-.05-1.18-.06-1.15-.03-1.13.03-1.12.07h-1.08l-1.01-.23-.92-.46-1.01-.3-1.65.33" filter="url(#a)"/><path d="m51.48-91.77.28 1.61-.31 3.39-.39 3.63.1 2.66.37 1.86.15 1.8-.35 2.25-.73 2.71-.84 2.9-.69 2.82-.3 2.42.28 1.6.92.55.79.56-2.23 4.93" filter="url(#a)"/><path d="m47.15-57.69 3.65-1.47 3.17-1.48 1.55.1.72 1.03.39 1.51.34 1.71.49 1.63.73 1.37.93 1.05 1.04.78 1.06.61 1.05.54 1.11.52 1.32.47 1.68.34 2.11.11 2.49-.15 2.6-.31 2.39-.25 1.97.06 1.56.53 1.3 1 1.11 1.43 1.6 1.83" filter="url(#a)"/><path d="m60.05-39.97-.63-1.08-.74-1.22-.67-1.15-.56-.98-.48-.83-.47-.74-.51-.76-.61-.83-.71-.95-.78-1.03-.83-1.09-.84-1.07-.82-1.02-.79-.94-.75-.89-.77-.88-.8-.92-.81-.89-.57-.48-4.34-32.77 1.1 3.16.46 2.44-.05 2.67-.18 2.77.21 2.14.81 1.18 1.1.7.79 1.1.04 2.1-.66 2.93-.92 3.05-.71 2.47-.24 1.69.17 1.24.39 1.19-.73-.88.89 1.02.9.92.78.77.75.75.75.81.75.86.74.89.76.93.77.99.79 1.04.8 1.08.77 1.09.74 1.04.67.98.59.89.52.83.49.83.49.88.54.98.6 1.07.63 1.07.56.92.34.5-.14-.35L43.34-61.5l.92.75 1.24.51 1.2.44 1.04.46.94.55.92.62.95.63 1.04.58 1.16.5 1.28.45 1.41.47 1.5.54 1.59.63 1.66.7 1.84.62 2.03.22" filter="url(#a)"/><path d="m41.92-62.38.51.32.53.37.59.49.69.63.77.74.8.77.79.77.77.77.77.78.76.8.77.81.76.81.78.86.81.95.83 1.05.84 1.11 1.09 1.58-31.37-18.62 1.07-.52 1.12.04.99.08.94.03.98.1 1.02.2 1.1.24 1.14.23 1.16.19 1.11.21 1.03.29.94.38.9.45.91.49.96.58.96.71.99.83 1.19.48m-2.44-1.83 1.59.34 1.41-.12 1.39-.43 1.5-.67 1.53-.59 1.38-.19 1.14.32.92.72.85.88.96.79 1.24.5 1.59.14 1.91-.15 2.06-.24 2.01-.06 1.79.31 1.59.7 1.52.9 1.67.8 1.9.46 2.06.03 2.18-.46 2.27-.99 1.28-.87M34.28-97.28l-.38 1.21-.07 2.64-.12 3.57-.15 3.59-.04 3.13.2 2.52.54 1.85.93 1.12 1.21.53 1.25.39.91.89.34 1.81-.14 2.53-.12 2.38.3 1.63.23 2.46" filter="url(#a)"/><path d="m19.05-70.3 1.59-.23 1.19-.06.98-.1.92-.12.88-.02.85.16.81.35.77.5.74.6.76.61.88.53 1.04.34 1.18.15 1.24.12 1.13.32.97.44 1.16-.42 12.52 23.82-.68-1.73-.56-1.2-.53-1.19-.42-1.22-.34-1.21-.34-1.19-.37-1.17-.41-1.12-.46-1.08-.5-1.03-.55-.95-.62-.82-.68-.68-.7-.58-.67-.57-.63-.65-.6-.77-.63-.87-.69-.91-.73-.94-.65-1.06-.47-1.25-.4-1.25-.62-.63" filter="url(#a)"/><path d="m35.41-67.38.75.37.76.56.79.67.82.75.86.77.86.75.79.68.72.62.63.58.6.58.62.63.7.72.77.81.77.82.61.62.29.25-11.96-10.64.26 1.13.64.63.87.38.91.47.86.66.8.83.7.91.62.92.55.89.52.83.54.78.61.74.69.7.77.68.79.69.76.73.7.82.61.93.53 1.03.44 1.07.41 1.14.54 1.39 1.21 2.1-17.55-21.83.21-1.78-.33-2.09-.8-1.02-1-.33-.99-.18-.92-.34-.83-.59-.75-.82-.71-1.02-.7-1.22-.74-1.36-.82-1.44-.92-1.42-1-1.31-.98-1.16-.91-1.04-.79-.95-.75-.87-.8-.79-.97-.69-1.12-.79-1.33-1.26-2.43-2.04 20.38 24.51 1.65.9 1.19.38 1 .31.94.39.93.48.95.58.96.6.98.55 1.03.38 1.07.21 1.07.09 1.05.11 1 .26.94.48.91.65.93.67 1 .59 1.07.53 1.09.65 1.09.88 1.08.95-21.93-10.64v-1.25l-.63-1.33-.9-.79-.92-.44-.92-.3-.89-.31-.87-.39-.82-.48-.79-.58-.78-.7-.79-.87-.86-1.01-1.01-1.06-1.17-.93-1.25-.73-1.07-.58-.53-.55.19-.3" filter="url(#a)"/><path d="m32.87-69.32.34.58.89.72.91.65.85.6.82.61.82.65.84.71.84.74.81.75.76.74.68.7.63.67.6.68.61.71.65.76.68.83.69.85.66.83.63.84.67.99.72 1.14" filter="url(#a)"/><path d="m42.19-52.46-1.26-1.11-.62-1.14-.39-.98-.26-.93-.22-.97-.32-.96-.5-.86-.7-.76-.78-.72-.75-.82-.63-.97-.49-1.14-.43-1.21-.49-1.19-.64-1.08-.74-.97-.1-1.05-1.99-1.11 1.25.97.86.95.87.83.87.71.81.68.77.72.76.77.77.81.77.81.77.79.72.76.67.72.6.72.55.74.53.8.55.87.58.92.6.92.63.87.67.83.72.88.67 1.11.42 1.42 15.35-25.82-1.77 1.38-1.53.09-1.6-.26-1.69-.06-1.7.23-1.63.41-1.62.53-1.71.65-1.82.73-1.85.65-1.73.4-1.51.06-1.25-.27-1.04-.53-.88-.73-.87-.76-1.14-.33-1.78.88-2.4 2.1-2.24 1.05-.95-.51-.7-.64-.58-.93-.6-1.03-.68-.88-.78-.65-.83-.53-.88-.58-.9-.76-.95-.95-.97-1.1-.97-1.11-.95-.97-.91-.72-.87-.47-.88-.27-.93-.2-1-.24-1.08-.37-1.11-.55-1.04-.71-.92-.79-.97-.79L8.3-87.4" filter="url(#a)"/><path d="m28.39-71.71.82-.12 1.33-.62 1.47-.45 1.45-.2 1.46-.14 1.5-.22 1.53-.37 1.55-.49 1.6-.59 1.63-.6 1.66-.51 1.7-.34 1.79-.22 2.05-.38 2.42-.94-24.3 6.14-1.56-.74-.87-.45-.77-.37-.84-.33-.97-.32-1.09-.34-1.15-.35-1.15-.34-1.06-.3-.94-.24-.85-.18-.81-.16-.86-.16-.93-.17-1.02-.16-1.04-.13-1.04-.08-1.02-.05-1.09-.04-1.44-.15-1.68-.28" filter="url(#a)"/><path d="m25.78-73.07-.34-.05-.66-.08-.88-.04-1.02-.07-1.14-.14-1.21-.2-1.19-.2-1.09-.15-.95-.09-.83.02-.81.12-.87.21-.98.25-1.07.28-1.13.35-1.07.43-.68.42.21.3 15.71-1.36-.55.51-.61-.25-.82-.31-.98-.28-1.12-.28-1.19-.29-1.15-.27-1.05-.25-.94-.24-.84-.23-.83-.25-.85-.25-.93-.22-.99-.19-1.03-.14-1.06-.09-1.07-.06-1.12-.02-1.18.02-1.22.04-1.23.06-1.14.07-.81.06-.21.06 22.92 2.8 2.17-7.31-1.11 1.18-1.55 1.74-1.36.63-1.13-.6-.94-1.67-.75-2.42-.58-2.65-.51-2.36-.56-1.77-.7-1.19-.86-.91-.98-.97-1.04-1.3-1.04-1.78-.95-2.32-.91-2.66-1.1-2.4-1.74-1.63-2.17-1.14L2.5-72.03l2.23-.28 1.3-.1 1.19-.09 1.14-.22 1.08-.26 1.04-.19 1.03-.12 1.05-.1 1.01-.07.95-.05.86-.01.8.01.83-.01.96-.06 1.15-.1 1.32-.12 1.35-.07 1.21.02 1.04.18 1.7.61" filter="url(#a)"/><path d="m22.81-74.4 2.47-1.05 1.2-.26 1.09-.17 1.18-.3 1.19-.28 1.16-.11 1.15.08 1.17.21 1.22.28 1.26.29 1.27.28 1.28.23 1.27.21 1.24.21 1.22.27 1.23.32 1.27.36 1.34.33 1.38.24 1.45-.02 1.62-.55L52.23-75l1.16-.76-30.58 1.36.38-.49-.96-.47-1.3-.51-1.22-.66-.96-.87-.73-1.03-.62-1.1-.65-1.01-.77-.87-.91-.73-1.01-.7-1.05-.77-1.06-.85-1.07-.86-1.14-.81-1.25-.71-1.35-.61-1.44-.58-1.46-.85-.8-1.39 20.72 16.58-1.85-.85-1.58-.64-1.33-.53-1.05-.44-.81-.38-.71-.33-.73-.33-.83-.38-.92-.44-1-.51-1.01-.54-1.01-.53-1.03-.46-1.1-.38-1.2-.34-1.27-.35-1.42-.36-2.47-.37" filter="url(#a)"/><path d="m21.97-74.74-1.75.7-1.57.55-1.05-.25-.71-.52-.63-.35h-.75l-.92.35-1.07.64-1.15.85-1.18.99-1.16.97-1.14.77-1.1.41-1.09.08-1.08-.06-1.07.09-1 .43-.87.78-.79.93-1.2.99 48.98-16.07-2-.11-1.14-.61-1.16-.38-1.46.14-1.73.51-1.82.57-1.73.34-1.55.05-1.4-.07-1.37.1-1.41.47-1.46.75-1.39.66-1.18.22-.97-.25-.88-.36-.98-.08-1.15.17-1.52.65-2.99 4.48-1.33-.6 1.47.15 1.42.17 1.17.24 1.06.05 1.08-.24 1.13-.41 1.14-.4 1.1-.19 1.02.06.97.28.98.41 1.04.43 1.16.35 1.31.19 1.45-.06 1.59-.34 1.64-.54 1.54-.55 1.23-.2.45.68" filter="url(#a)"/><path d="m.6-69.99.57-.81.8-.69.8-.48.9-.26 1.02-.12 1.12-.16 1.17-.31 1.18-.48 1.14-.53 1.09-.43 1.07-.22 1.07-.07 1.08-.11 1.07-.27.98-.42.79-.41.58-.23.63-.04 1.39.22" filter="url(#a)"/><path d="m16.81-76.34 1.85.58 1.46.84 1.19.96.99.85.88.67.81.54.78.5.78.52.75.56.75.63.72.71.73.79.75.83.8.84.82.82.82.83.76.87.67.94.6.98.59.93.67.79.77.73.76.9.71 1.41" filter="url(#a)"/><path d="m17.26-76.09-.88-1.33-1.15-.52-1.11-.48-1.1-.41-1.09-.28-1.09-.19-1.13-.15-1.17-.17-1.2-.22-1.19-.29L5-80.47l-1.09-.36-1.04-.33-1.01-.25-1.03-.19-1.08-.16-1.13-.17-1.13-.21-1.07-.24-1.03-.26-1.31-.27-2.66-.3 22.29 5.95-2.26-.19-1.09-.16-1-.04-1.14.03-1.23.07-1.21.06-1.13.06-1.05.09-.97.12-.96.17-.97.21-1.01.2-1.05.17-1.04.13-1 .15-1 .23-1.13.3-1.36.31-1.03.11" filter="url(#a)"/><path d="m29.12-83.83-.96 1.14-1.4.91-1.39.67-1.39.27-1.42-.04-1.38-.1-1.27.09-1.12.37-.98.66-.95.81-1.01.73-1.07.48-1.11.2-1.29.02-2.25-.28-.07.01-.67-.03-1.14-.04-1.26-.01-1.23.01H4.62l-1.03.01-.96.02-.94.05-.97.09-1.02.1-1.06.1-1.06.09-.98.09-.93.15-1.17.26-2.41.28" filter="url(#a)"/><path d="m10.13-77.9 2.39-.49 1.34-.34 1.03.28.89.4.81.19.8-.01.87-.06 1 .06 1.14.22 1.24.31 1.25.25 1.21.08 1.13-.12 1.05-.24 1-.22 1.08.02 1.71.63-8.74 16.49.06-1.05-.12-1.38-.35-1.31-.56-1.17-.73-1.09-.85-1.05-.89-.98-.83-.87-.7-.77-.61-.71-.58-.68-.66-.71-.75-.92-.82-1.3-.93-1.56-1.11-1.26-.8-.73.89.23 1.3.32 1.18.31 1.04.31.91.3.79.29.76.29.81.31.92.34 1.05.39 1.12.43 1.1.46 1.01.47.91.48.82.5.77.52.79.55.82.57.76.5.49.44-1.47-7.38-.46-.26-.94-.35-1.07-.16-1.25-.02-1.38.07-1.39.1-1.23.13-1.03.1-.86.07-.78-.01-.84-.07-.96-.09-1.1-.04-1.23-.01-1.35-.03-.9-.06-4.12-.5 1.94-1.35 1.69-1.44 1.19-.41 1.08.08 1.15-.06 1.26-.47 1.3-.87 1.28-1.1 1.22-1.09 1.19-.94 1.22-.7 1.3-.5 1.43-.38 1.52-.34 1.55-.35 1.51-.37 1.44-.41 1.41-.52 1.46-.72 1.6-.99 1.73-1.23 1.75-1.36 1.74-1.6 1.85-1.75L27.1-76.92l-1.73-.83-1.08-.22-1.26-.04-1.42.02-1.37.02-1.18-.03-.98-.07-.85-.11-.82-.1-.9-.08-.99-.04-1.07.01-1.1.05-1.09.07-1.08.06H9.07l-1.2-.05-1.09-.06-.2.12" filter="url(#a)"/><path d="m6.58-78.2.6-5.41 1.03.95 1.16 1.21 1.15.31 1.18-.36 1.21-.57 1.19-.38 1.13-.07 1.05.05 1-.2 1.03-.74 1.15-1.25 1.32-1.36 1.58-1.02 1.88-.63 2.27-.73 2.88-1.22m-56.11-4.89 1.54 1.08.92-.14 1.22.18 1.49.64 1.59.92 1.62 1.11 1.6 1.29 1.57 1.4 1.49 1.4 1.41 1.21 1.3.9 1.18.5 1.1.19 1.07.01 1.06.05 1.1.27 1.12.55 1.16.67 1.17.44 1.18-.15 1.17-.72 1.11-.38.98 1.67.57 2.77-.04-.01-1.52.25-1.15.07-1.13.11-1.11.2-1.08.23-1.04.2-1.03.17-.99.18-.95.25-.92.34-.91.4-.93.42-.97.4-1.01.35-1.04.29-1.07.26-1.07.26-1.06.32-1.02.41-.94.5-.85.55-.81.53-.98.56-1.57.57" filter="url(#a)"/><path d="m33.86-96.09-2.5.02h-1.44l-1.76.77-2.14 1.69-2.14 2.05-1.84 1.7-1.42.92-1.11.15-.96-.27-1-.26-1.15.1-1.29.6-1.39 1.07-1.42 1.38-1.42 1.5-1.4 1.38-1.4 1.07-1.38.76-1.34.69-1.25.87-.9.91-.25.33-1.51-.39-1.17-1.52-1.18-1.82-1.2-1.53-1.18-1.31-1.2-1.28-1.21-1.27L-6.92-89l-1.22-1.19-1.2-1.17-1.19-1.03-1.24-.75-1.31-.51-1.4-.62-1.53-1.03-1.69-1.31-1.78-1.07-1.14-.13m6.77 30.54 1.3-1.65.95-.99.8-.93.82-1.06.82-1.07.78-.97.77-.78.82-.61.9-.49.96-.42.98-.35.99-.31 1.04-.31 1.1-.36 1.03-.48.61-.53" filter="url(#a)"/></g><path fill="none" stroke="#000" stroke-linejoin="round" stroke-width="3" d="M-9.53 11.27Q10.6 11.445.535-4.734" filter="url(#a)"/><path fill="#CC7066" stroke="#000" stroke-linejoin="round" stroke-width="3" d="m-26.17 32.79.56.37.56.36.56.35.56.33.57.32.56.32.57.3.57.29.57.28.57.26.57.26.58.25.57.23.58.23.58.21.57.21.58.19.58.19.58.17.58.17.57.16.58.14.58.14.58.13.58.11.58.11.58.1.58.1.58.08.57.07.58.07.57.06.58.04.57.05.58.03.57.02.57.02.57.01h1.13l.56-.01.57-.02.56-.03.56-.03.55-.04.56-.05.55-.06.55-.06.55-.06.55-.08.54-.08.54-.08.54-.09.54-.1.53-.1.53-.11.52-.11.53-.12.52-.13.52-.13.51-.13.51-.14.51-.14.5-.15.5-.15.49-.16.49-.16.49-.17.48-.17.48-.17.48-.18.47-.18.46-.19.46-.19.46-.19.45-.19.45-.2.44-.2.44-.21.43-.2.42-.21.42-.22.42-.21.41-.22.4-.22.4-.22.4-.22.38-.23.39-.22.37-.23.37-.23.36-.23.36-.24.35-.23.34-.23.34-.24.33-.24.32-.23.32-.24.31-.24-.31.24-.32.24-.32.23-.33.24-.34.24-.34.23-.35.23-.36.24-.36.23-.37.23-.37.23-.39.22-.38.23-.4.22-.4.22-.4.22-.41.22-.42.21-.42.22-.42.21-.43.2-.44.21-.44.2-.45.2-.45.19-.46.19-.46.19-.46.19-.47.18-.48.18-.48.17-.48.17-.49.17-.49.16-.49.16-.5.15-.5.15-.51.14-.51.14-.51.13-.52.13-.52.13-.53.12-.52.11-.53.11-.53.1-.54.1-.54.09-.54.08-.54.08-.55.08-.55.06-.55.06-.55.06-.56.05-.55.04-.56.03-.56.03-.57.02-.56.01h-1.13l-.57-.01-.57-.02-.57-.02-.58-.03-.57-.05-.58-.04-.57-.06-.58-.07-.57-.07-.58-.08-.58-.1-.58-.1-.58-.11-.58-.11-.58-.13-.58-.14-.58-.14-.57-.16-.58-.17-.58-.17-.58-.19-.58-.19-.57-.21-.58-.21-.58-.23-.57-.23-.58-.25-.57-.26-.57-.26-.57-.28-.57-.29-.57-.3-.56-.32-.57-.32-.56-.33-.56-.35-.56-.36" filter="url(#a)"/></svg>