<svg xmlns="http://www.w3.org/2000/svg" width="500" height="500" viewBox="-100 -100 200 200"><defs><clipPath id="c"><path d="m27.81-2.35-.35-.41-.37-.41-.39-.42-.42-.41-.44-.42-.45-.42-.48-.41-.49-.41-.52-.41-.53-.39-.55-.39-.56-.38-.58-.36-.6-.36-.61-.34-.65-.53-.67-.51-.7-.48-.71-.44-.74-.42-.76-.39-.77-.35-.8-.32-.81-.29-.82-.25-.84-.22-.85-.18-.85-.15-.87-.12-.87-.08-.88-.05-.88-.02-.88.01-.88.04-.89.07-.88.1-.87.13-.87.15-.86.17-.86.2-.84.22-.84.23-.82.26-.81.28-.8.29-.78.3-.77.32-.75.33-.74.34-.72.35-.7.36-.68.37-.67.37-.64.37-.63.38-.6.38-.59.38-.57.39-.55.38-.53.38-.51.38-.5.37-.48.38-.46.37-.44.36-.43.36-.41.36-.4.36-.39.35-.37.35-.35.34-.34.34-.33.34-.31.33-.3.33-.28.32-.27.32-.26.31-.25.31.53 8.18.34.19.35.19.36.18.38.18.37.19.39.18.4.17.41.18.41.17.43.16.43.17.45.15.45.16.46.14.47.14.48.14.5.13.5.13.52.12.53.11.53.1.55.1.56.08.57.07.58.06.6.05.6.03.61.03h1.25l.65-.02.65-.04.65-.05.67-.06.68-.08.68-.09.69-.11.7-.12.71-.13.71-.14.72-.16.72-.16.73-.18.74-.19.74-.19.74-.2.75-.21.75-.22.75-.22.76-.22.75-.22.76-.23.76-.22.75-.22.76-.22.75-.22.75-.21.75-.21.75-.2.74-.19.73-.18.73-.17.72-.16.71-.15.61-.17.6-.17.59-.17.59-.16.57-.16.57-.16.55-.15.54-.15.52-.14.52-.14.5-.14.48-.13.46-.13.45-.13.42-.12"/></clipPath><clipPath id="b"><path d="m-28.27-2.87.41-.56.43-.56.44-.56.46-.56.49-.55.49-.56.52-.54.53-.53.54-.52.56-.5.57-.48.59-.47.59-.45.61-.42.62-.41.69-.7.7-.66.72-.61.73-.56.75-.5.76-.45.77-.4.77-.34.79-.28.8-.24.8-.18.8-.12.81-.08.82-.03.81.02.82.07.82.11.82.16.81.19.81.23.81.27.8.3.8.33.79.36.78.38.78.41.76.43.76.45.74.47.74.47.72.49.71.5.7.51.69.52.67.51.66.52.64.52.63.52.62.51.6.51.58.51.57.5.56.49.54.48.52.48.52.46.49.46.49.44.46.44.46.42.44.42.43.41.42.4.41.39.39.38.39.37.37.36.36.35.35.34.33.34.33.32.32.32.3.3.3.3 1.46 7.11-.28.15-.28.14-.29.14-.31.15-.31.14-.33.14-.34.14-.35.13-.36.14-.37.13-.39.12-.39.13-.41.12-.43.11-.43.11-.45.11-.47.1-.48.1-.49.1-.51.09-.53.08-.55.08-.56.06-.58.06-.59.05-.62.04-.63.03-.64.02-.67.01h-.68l-.7-.02-.71-.02-.73-.04-.75-.04-.75-.06-.78-.07-.78-.08-.8-.09-.81-.09-.82-.11-.83-.12-.84-.13-.85-.13-.85-.15-.86-.15-.87-.15-.86-.16-.87-.17-.87-.17-.87-.17-.87-.17-.86-.18-.86-.17-.85-.18-.85-.17-.83-.17-.83-.16-.81-.17-.8-.15-.79-.16-.77-.14-.76-.14-.73-.13-.72-.12-.65-.14-.64-.13-.63-.14-.62-.13-.6-.13-.59-.12-.57-.12-.56-.12-.54-.12-.52-.11-.5-.12-.49-.1-.46-.11-.44-.1-.42-.11"/></clipPath><filter id="a"><feTurbulence baseFrequency=".05" numOctaves="3" result="noise" type="noise"/><feDisplacementMap in="SourceGraphic" in2="noise" scale="2"/></filter></defs><rect width="100%" height="100%" x="-100" y="-100" fill="#F2F2A6"/><path fill="#2020DF" stroke="#000" stroke-linejoin="round" stroke-width="1.667" d="m60.63.6.01.83-.27 1.65.11-.02.11.95-.12 1.9-.29.57-.18 3.98-.22-.08.35-.24-.51 2.81.17-.75-.51 2.43-.21 2.54.16-.74-.19.87-.33 1.13-.9 3.45.49-1.55-.55 2.47-.17 1.31-.62.93.12.11-.08-.07-.64 2.56-.48 1.58-.32.89-.85 2.83-.43.98.4-1.76-.14 1.21-1.12 2.44-.44 1.47-.23.14-.29.62-.78 1.76-.62 1.13-.43 1.16-.73 1.08-.34.82-.85 1.46-.7 1.01-.49.88v-.2l-1.12 2.11-.99 1.66-.42.45-.18.12-1.37 1.92.29-.35-1.35 1.37.74-.78-2.77 3.31-.06.07.5-.82-2.46 3.11.6-.46-1.86 1.75.38-.51-.9.78-.71.47-.59.83-.9.94-.71.28-1.02 1.06-1.78 1.53.34-.59-.93.96-1.55.81-.55.51-.73.71.23-.25-1.66.93-2.13 1.28.33-.3-.66.45-.88.71-.73-.05-2.23 1.05.63.13-.48-.13-1.43.68-1.77.85-.95.24-.14.07-1 .21-2.09.62-.04.23-1.25-.02-.03.11-2.44.48 1.11-.05-2.15.16-2.45.55.52-.36-.69.32-2.2-.01.89.11-2.21-.06-1.13.24-2.37-.03.46.07.24.05-.05-.12-2.98-.29-.84-.04-1.22-.19-.45-.11-1.07.1.1-.29-1.35-.17-1.01-.04-.03-.11-1.23-.37-2.89-.72-.06-.14-1.1-.3-.81-.08.69-.06-2.86-.67-.43-.24-1.17-.83-.33.1-1-.65-1.64-.65-.49-.29-.5-.57-.25-.08-.78-.04-1.99-1.32.22.12-2.51-1.36-.61-.82.69.43-2.26-1.59.45.54-2.03-1.78.3.05-1.94-1.39-.76-.38.62.24-2.29-1.88.13-.28-.17-.13-1.19-1.27-1.78-1.56-.2-.37h-.25l.12-.62-1.66-1.38-1.46-2.08.11.14-1.29-1.55.8.93-1.5-1.94-.29-.41-.47-.91-1.19-1.65-.35-.51-.76-1.25-.42-.59-.16-.71-1.34-2.13-.02-.15.19.28-1.01-2.29-.69-1.8-.55-1.06-.87-1.74.06.78-.22-.62-1.2-3.36-.49-1.29v-.01l-.35-1.21.17.38-1-3.02-.12.02-.11-.76-.76-2.58-.17-.67.04-.49-.18-.05-.79-3.47-.08.27-.39-1.76-.11-1.4-.18-1.01-.02-.71-.25-1.33-.08.02-.31-2.68.03-.69-.23-.98.14-1.12-.45-3.01.1 1.32.04-2.09.01-.29-.11-2.29V-.71l-.07.4.03-.16-.03-4.57.27-.16-.15.97.01-3.1.14-.42.24-1.32.15-2.2.08-.65.26-2.83.23.33.31-2.98-.11 1.86.29-2.87.33-1.96.44-.74-.18-.55.66-2.34-.11.97.67-3.03.06.6.35-1.36.77-2.69-.04-.72-.07.49.67-1.4.42-1.53 1.23-2.37-.17.09.5-.8-.66.61 1.29-2.35-.45.43 1.25-2.53 1.28-2.54-.42.85.29-.47.8-1.6 1.43-2.4.23-.38.8-1.07-.46-.04.86-1.25.37-.42 1.57-2.01.21-.4-.06-.32.96-.98 1.53-1.82-.41.06 1-1.18.52-.66 2.26-2.13-.39.48.41-.48.14-.43.87-.95 1.99-1.38.81-1.17.4.01.3-.83 1.68-1.19.71-.94.97-.15.38-.49-.14-.11 1.11-.44 2.27-1.64.41-.16v-.15l.19-.05 3.08-1.9.18-.13.05.05 2.31-1.14-.24-.07.88-.37 1.71-.59 1.27-.6.58-.27.36-.12 1.57-.76-.13.2.69-.08.9-.35 3.09-1.07-1.64.51 1.86-.23.53-.05.79-.33 1.39-.31 1.08-.07.9-.2.79.15 1.41-.14.85-.41 1.37.2h-.27l2.61.07-.92-.06 1.51-.17 2.04.38-.6-.28 1.19.23 2.52.31-.92-.12 2.63.29.41-.07.36.13 1.48.47-.39-.24 1.73.3.85.49 1.71.46 1.98.47-1.44-.44 2.53.84.15.15.12.38.72-.05 1.13.48 1.57.82.42.39 1.78.95 2.02.75-.07.06.12-.09.79.75 1.8 1.06.16.16.89.46.13.17 1.51.99 1.16.84 1.45 1.49-.03-.26.96 1.13-.05-.14.72.66.19.15.94.97 1.33 1.58 1.24.66.74.94 1.55 1.73-.72-.79 1.95 2.39-.03.04.93.95-.25-.22.45 1.03 1.49 1.83 1.01 1.1.03.01.57 1.34.69.94-.51-.69 1.07 1.72 1.66 2.1.34.9-.16-.09 1.25 2.09-.65-.77 1.51 2.76-.06-.07.89 1.22-.14.19.81 2.35 1.2 2.04-.22-.32.23.89.7 2.12.41.68.08 1.08.92 2.46.32 1.06-.02-.19.49 1.32-.33-.11.91 2.7.12.27.22 2.17.25.55.4 2.61.13-1.06.26 3.4.14-.74.21 2.16-.01.35.25 1.09.16 2.65.01-.4.09 2.11.23.19-.06 1.7.11 1.87-.08.48.23 3.25.01.15.01.83" filter="url(#a)"/><path fill="#fff" d="m-28.27-2.87.41-.56.43-.56.44-.56.46-.56.49-.55.49-.56.52-.54.53-.53.54-.52.56-.5.57-.48.59-.47.59-.45.61-.42.62-.41.69-.7.7-.66.72-.61.73-.56.75-.5.76-.45.77-.4.77-.34.79-.28.8-.24.8-.18.8-.12.81-.08.82-.03.81.02.82.07.82.11.82.16.81.19.81.23.81.27.8.3.8.33.79.36.78.38.78.41.76.43.76.45.74.47.74.47.72.49.71.5.7.51.69.52.67.51.66.52.64.52.63.52.62.51.6.51.58.51.57.5.56.49.54.48.52.48.52.46.49.46.49.44.46.44.46.42.44.42.43.41.42.4.41.39.39.38.39.37.37.36.36.35.35.34.33.34.33.32.32.32.3.3.3.3 1.46 7.11-.28.15-.28.14-.29.14-.31.15-.31.14-.33.14-.34.14-.35.13-.36.14-.37.13-.39.12-.39.13-.41.12-.43.11-.43.11-.45.11-.47.1-.48.1-.49.1-.51.09-.53.08-.55.08-.56.06-.58.06-.59.05-.62.04-.63.03-.64.02-.67.01h-.68l-.7-.02-.71-.02-.73-.04-.75-.04-.75-.06-.78-.07-.78-.08-.8-.09-.81-.09-.82-.11-.83-.12-.84-.13-.85-.13-.85-.15-.86-.15-.87-.15-.86-.16-.87-.17-.87-.17-.87-.17-.87-.17-.86-.18-.86-.17-.85-.18-.85-.17-.83-.17-.83-.16-.81-.17-.8-.15-.79-.16-.77-.14-.76-.14-.73-.13-.72-.12-.65-.14-.64-.13-.63-.14-.62-.13-.6-.13-.59-.12-.57-.12-.56-.12-.54-.12-.52-.11-.5-.12-.49-.1-.46-.11-.44-.1-.42-.11" filter="url(#a)" transform="translate(22.15 -26.46)"/><path fill="#fff" d="m27.81-2.35-.35-.41-.37-.41-.39-.42-.42-.41-.44-.42-.45-.42-.48-.41-.49-.41-.52-.41-.53-.39-.55-.39-.56-.38-.58-.36-.6-.36-.61-.34-.65-.53-.67-.51-.7-.48-.71-.44-.74-.42-.76-.39-.77-.35-.8-.32-.81-.29-.82-.25-.84-.22-.85-.18-.85-.15-.87-.12-.87-.08-.88-.05-.88-.02-.88.01-.88.04-.89.07-.88.1-.87.13-.87.15-.86.17-.86.2-.84.22-.84.23-.82.26-.81.28-.8.29-.78.3-.77.32-.75.33-.74.34-.72.35-.7.36-.68.37-.67.37-.64.37-.63.38-.6.38-.59.38-.57.39-.55.38-.53.38-.51.38-.5.37-.48.38-.46.37-.44.36-.43.36-.41.36-.4.36-.39.35-.37.35-.35.34-.34.34-.33.34-.31.33-.3.33-.28.32-.27.32-.26.31-.25.31.53 8.18.34.19.35.19.36.18.38.18.37.19.39.18.4.17.41.18.41.17.43.16.43.17.45.15.45.16.46.14.47.14.48.14.5.13.5.13.52.12.53.11.53.1.55.1.56.08.57.07.58.06.6.05.6.03.61.03h1.25l.65-.02.65-.04.65-.05.67-.06.68-.08.68-.09.69-.11.7-.12.71-.13.71-.14.72-.16.72-.16.73-.18.74-.19.74-.19.74-.2.75-.21.75-.22.75-.22.76-.22.75-.22.76-.23.76-.22.75-.22.76-.22.75-.22.75-.21.75-.21.75-.2.74-.19.73-.18.73-.17.72-.16.71-.15.61-.17.6-.17.59-.17.59-.16.57-.16.57-.16.55-.15.54-.15.52-.14.52-.14.5-.14.48-.13.46-.13.45-.13.42-.12" filter="url(#a)" transform="translate(-25.62 -26.18)"/><g fill="none" stroke="#000" transform="translate(22.15 -26.46)"><path stroke-linejoin="round" stroke-width="1.667" d="m-31.03 1.51.16-.28.18-.32.22-.37.24-.41.27-.44.29-.47.31-.5.35-.52.36-.53.38-.54.41-.56.43-.56.44-.56.46-.56.49-.55.49-.56.52-.54.53-.53.54-.52.56-.5.57-.48.59-.47.59-.45.61-.42.62-.41.69-.7.7-.66.72-.61.73-.56.75-.5.76-.45.77-.4.77-.34.79-.28.8-.24.8-.18.8-.12.81-.08.82-.03.81.02.82.07.82.11.82.16.81.19.81.23.81.27.8.3.8.33.79.36.78.38.78.41.76.43.76.45.74.47.74.47.72.49.71.5.7.51.69.52.67.51.66.52.64.52.63.52.62.51.6.51.58.51.57.5.56.49.54.48.52.48.52.46.49.46.49.44.46.44.46.42.44.42.43.41.42.4.41.39.39.38.39.37.37.36.36.35.35.34.33.34.33.32.32.32.3.3.3.3.28.29.27.28.27.27.25.26.24.26.24.25.22.24.22.23.21.23.2.22" filter="url(#a)"/><path stroke-linejoin="round" stroke-width="2.222" d="m-30.97 6.7.16.1.2.09.22.1.25.09.27.09.3.1.33.09.35.1.38.1.4.09.42.11.44.1.46.11.49.1.5.12.52.11.54.12.56.12.57.12.59.12.6.13.62.13.63.14.64.13.65.14.72.12.73.13.76.14.77.14.79.16.8.15.81.17.83.16.83.17.85.17.85.18.86.17.86.18.87.17.87.17.87.17.87.17.86.16.87.15.86.15.85.15.85.13.84.13.83.12.82.11.81.09.8.09.78.08.78.07.75.06.75.04.73.04.71.02.7.02h.68l.67-.01.64-.02.63-.03.62-.04.59-.05.58-.06.56-.06.55-.08.53-.08.51-.09.49-.1.48-.1.47-.1.45-.11.43-.11.43-.11.41-.12.39-.13.39-.12.37-.13.36-.14.35-.13.34-.14.33-.14.31-.14.31-.15.29-.14.28-.14.28-.15.26-.14.25-.14.25-.15.23-.14.23-.14.22-.14.21-.14.2-.14.19-.14.19-.13" filter="url(#a)"/><circle cx="4.904" cy="-4.379" r="3.456" clip-path="url(#b)" filter="url(#a)"/><circle cx="8.339" cy="-3.979" r="4.598" clip-path="url(#b)" filter="url(#a)"/><circle cx="5.004" cy="-.334" r="4.29" clip-path="url(#b)" filter="url(#a)"/><circle cx="6.174" cy="-2.989" r="4.408" clip-path="url(#b)" filter="url(#a)"/><circle cx="8.484" cy="-2.954" r="3.456" clip-path="url(#b)" filter="url(#a)"/><circle cx="4.874" cy="-3.294" r="3.926" clip-path="url(#b)" filter="url(#a)"/><circle cx="7.804" cy="-3.629" r="3.268" clip-path="url(#b)" filter="url(#a)"/><circle cx="8.314" cy="-4.424" r="4.756" clip-path="url(#b)" filter="url(#a)"/><circle cx="4.874" cy="-3.599" r="3.494" clip-path="url(#b)" filter="url(#a)"/><circle cx="5.389" cy="-2.149" r="4.568" clip-path="url(#b)" filter="url(#a)"/></g><g fill="none" stroke="#000" transform="translate(-25.62 -26.18)"><path stroke-linejoin="round" stroke-width="2.222" d="m29.97.8-.1-.2-.12-.23-.16-.27-.18-.29-.2-.32-.23-.33-.26-.36-.28-.37-.3-.39-.33-.39-.35-.41-.37-.41-.39-.42-.42-.41-.44-.42-.45-.42-.48-.41-.49-.41-.52-.41-.53-.39-.55-.39-.56-.38-.58-.36-.6-.36-.61-.34-.65-.53-.67-.51-.7-.48-.71-.44-.74-.42-.76-.39-.77-.35-.8-.32-.81-.29-.82-.25-.84-.22-.85-.18-.85-.15-.87-.12-.87-.08-.88-.05-.88-.02-.88.01-.88.04-.89.07-.88.1-.87.13-.87.15-.86.17-.86.2-.84.22-.84.23-.82.26-.81.28-.8.29-.78.3-.77.32-.75.33-.74.34-.72.35-.7.36-.68.37-.67.37-.64.37-.63.38-.6.38-.59.38-.57.39-.55.38-.53.38-.51.38-.5.37-.48.38-.46.37-.44.36-.43.36-.41.36-.4.36-.39.35-.37.35-.35.34-.34.34-.33.34-.31.33-.3.33-.28.32-.27.32-.26.31-.25.31-.23.31-.23.29-.21.3-.2.29-.19.28-.17.28-.17.27-.16.27-.15.27-.13.26m52.34.1-.16.12-.19.11-.23.12-.25.11-.29.11-.31.12-.33.11-.37.11-.38.12-.41.12-.42.12-.45.13-.46.13-.48.13-.5.14-.52.14-.52.14-.54.15-.55.15-.57.16-.57.16-.59.16-.59.17-.6.17-.61.17-.71.15-.72.16-.73.17-.73.18-.74.19-.75.2-.75.21-.75.21-.75.22-.76.22-.75.22-.76.22-.76.23-.75.22-.76.22-.75.22-.75.22-.75.21-.74.2-.74.19-.74.19-.73.18-.72.16-.72.16-.71.14-.71.13-.7.12-.69.11-.68.09-.68.08-.67.06-.65.05-.65.04-.65.02h-1.25l-.61-.03-.6-.03-.6-.05-.58-.06-.57-.07-.56-.08-.55-.1-.53-.1-.53-.11-.52-.12-.5-.13-.5-.13-.48-.14-.47-.14-.46-.14-.45-.16-.45-.15-.43-.17-.43-.16-.41-.17-.41-.18-.4-.17-.39-.18-.37-.19-.38-.18-.36-.18-.35-.19-.34-.19-.34-.18-.32-.19-.32-.18-.3-.19-.3-.18-.29-.18-.28-.18-.28-.18-.26-.18-.26-.17" filter="url(#a)"/><circle cx="5.607" cy="2.225" r="4.498" clip-path="url(#c)" filter="url(#a)"/><circle cx="5.107" cy="1.36" r="4.458" clip-path="url(#c)" filter="url(#a)"/><circle cx="4.342" cy="3.135" r="4.812" clip-path="url(#c)" filter="url(#a)"/><circle cx="8.587" cy="-.61" r="4.246" clip-path="url(#c)" filter="url(#a)"/><circle cx="8.132" cy="2.6" r="3.29" clip-path="url(#c)" filter="url(#a)"/><circle cx="7.227" cy="1.525" r="3.148" clip-path="url(#c)" filter="url(#a)"/><circle cx="9.277" cy="-.59" r="4.588" clip-path="url(#c)" filter="url(#a)"/><circle cx="9.172" cy="1.835" r="3.524" clip-path="url(#c)" filter="url(#a)"/><circle cx="4.737" cy="2.345" r="4.482" clip-path="url(#c)" filter="url(#a)"/><circle cx="6.077" cy="-.285" r="4.858" clip-path="url(#c)" filter="url(#a)"/></g><g fill="none" stroke="#861313" stroke-linejoin="round" stroke-width="2"><path d="m-17.7-73.17.55-.24.6-.25.59-.2.56-.16.54-.11.49-.08.39-.01.25.07.08.16-.07.26-.23.35-.42.46-.62.58-.86.73-1.14.88-1.43 1.04-1.75 1.21-2.07 1.37-2.37 1.5-2.65 1.61-2.95 1.71-3.34 1.91-3.9 2.27m57.27-14.37 1.04.7.56.68.14.67-.44.64-1.08.64-1.69.68-2.26.77-2.83.88-3.44.99-4.06 1.07-4.68 1.15-5.3 1.23-5.96 1.3-6.75 1.41-7.7 1.57-8.67 1.76" filter="url(#a)"/><path d="m-30.92-65.98 1.26-.68 1.1-.68.74-.47.54-.32.44-.22.34-.12.17.04-.06.22-.3.42-.56.64-.86.88-1.19 1.17-1.56 1.46-1.97 1.8-2.41 2.16-2.88 2.53-3.32 2.88m94.04 15.8.15.74.38 1.1.26.8.06.4-.15.07-.33-.22-.54-.55-.77-.96-1.06-1.49-1.41-2.11-1.81-2.8-2.28-3.54-2.78-4.27-3.27-5.01M1.62-76.66l1.39.3 1.27.4 1.62.6 1.94.78 2.15.94 2.3 1.08 2.42 1.2 2.48 1.31 2.55 1.38 2.62 1.43 2.7 1.48 2.78 1.55 2.81 1.58 2.74 1.58 2.54 1.47 2.41 1.4" filter="url(#a)"/><path d="m18.69-72.96 1.11.53 1.03.57.9.55.73.46.45.35.15.25-.13.19-.4.13-.64.09-.91.04-1.2-.02-1.5-.07-1.84-.12-2.19-.19-2.6-.28-3.04-.39-3.49-.55-3.89-.71-4.24-.87-4.69-.93m55.52 27.32 1 1.51.23.86-.21.6-.51.48-.78.41-1.08.33-1.39.25-1.71.18-2.06.09-2.41-.01-2.79-.13-3.19-.28-3.58-.44-4-.58-4.42-.72-4.85-.86-5.31-1.01-5.78-1.19-6.28-1.36L-8.09-50l-7.32-1.63-7.73-1.78-8.01-2.05" filter="url(#a)"/><path d="m33.55-63.68.12.11.07.35-.11.37-.29.44-.43.54-.59.63-.8.7-1.09.71-1.43.68-1.83.64-2.26.58-2.69.53-3.13.49-3.56.45-3.96.43-4.35.42-4.73.39-5.15.35-5.61.33-6.14.31-6.65.31-7.09.29-7.5.3m4.49-12.05.37-.41.69-.51 1.03-.65 1.16-.72 1.12-.69 1.05-.64.99-.6.91-.55.77-.46.57-.34.34-.21.1-.05-.18.1-.5.29-.96.56-1.6.91" filter="url(#a)"/><path d="m-9.89-75.39 1.08-.18 1.53.08 1.8.33 2.05.55 2.29.73 2.51.88 2.69 1.03 2.85 1.15 2.96 1.25 3.08 1.35 3.19 1.45 3.31 1.53 3.39 1.61 3.44 1.65 3.42 1.64 3.34 1.57 3.25 1.48 3.31 1.55" filter="url(#a)"/><path d="m-30.78-65.87.52-.24 1.41-.41 1.78-.35 1.97-.19 2.21-.07 2.48.03 2.77.11 3 .18 3.2.29 3.38.38 3.57.47 3.73.55 3.86.62 3.97.66 4.03.71 4.07.76 4.13.83 4.2.91 4.27.97 4.29.93 4.32.92M-4.94-76.15l1.35-.06 1.52.2 1.74.47 1.98.67 2.22.86 2.48 1 2.7 1.14 2.88 1.26 3.03 1.36 3.14 1.42 3.23 1.48 3.29 1.55 3.33 1.61 3.3 1.64 3.2 1.6 3.13 1.57" filter="url(#a)"/><path d="m49.48-44.51.15.56-.02.35-.21.18-.44-.04-.74-.31-1.06-.63-1.41-.97-1.79-1.32-2.18-1.69-2.62-2.15-3.14-2.67-3.7-3.23-4.36-3.81-5.08-4.44-5.84-5.12m36.23 33.87.6 1.19.01.55-.28.44-.53.35-.78.2-1.1-.04-1.43-.37-1.8-.72-2.19-1.08-2.59-1.42-3-1.71-3.4-1.98-3.83-2.26-4.26-2.58-4.7-2.93-5.14-3.34-5.57-3.76-6.03-4.2-6.56-4.58-7.31-4.86m49.89 15.36.08.28.58.89.75 1.04.7.95.54.78.39.58.23.38.1.2-.05-.02-.21-.27-.43-.58-.68-.95-1-1.39-1.47-2.03" filter="url(#a)"/><path d="m16.61-73.84-.34-.03.3.32.18.4-.02.47-.17.57-.31.68-.48.79-.72.89-1.03.96-1.41 1.01-1.81 1.07-2.22 1.14-2.61 1.22-2.99 1.32-3.36 1.43-3.75 1.52-4.15 1.65-4.53 1.76-4.94 1.87-5.35 1.93-5.79 1.97-6.28 2.06-6.91 2.34" filter="url(#a)"/><path d="m16.61-73.84-.21-.02.72.34.86.42.92.47 1.04.52 1.16.58 1.22.63 1.2.61 1.11.56.94.47.73.36.52.26.32.17.13.06-.06-.04-.27-.17-.5-.28-.84-.43-1.45-.72m-19.9-6.28 1.63.25 1.28.31 1.39.41 1.5.53 1.58.64 1.68.74 1.8.83 1.92.9 1.99.93 1.98.93 1.9.89 1.74.83 1.56.75 1.42.68 1.33.64 1.28.65 1.28.66 1.2.61m-64.84-1.08.74-.25.58-.36.71-.48.85-.56.88-.58.83-.54.74-.48.67-.41.58-.35.45-.25.31-.14.13-.03-.05.11-.24.24-.45.39-.72.57-1.02.78-1.35 1-1.66 1.23-2 1.46-2.49 1.81m15.67-10.5 1.23-.37 1.51-.11 1.93.08 2.35.23 2.75.35 3.13.42 3.49.47 3.76.55 3.99.65 4.2.77 4.4.88 4.6.96 4.72.99 4.71.95" filter="url(#a)"/><path d="m-34.52-63.1 22.69-6.5 5.2 3.08 4.72 6.16 5.57 4.06 5.18.8 4.21-1.18 3.15-1.68 2.14-1.5 1.29-1.3.75-1.09.78-.62 1.36.1 2.02.66 2.24.64 1.78.17.89.11-.27 1.26-2.52 3.34-6.51 4.69-5.36 4.42 36.92 7.79" filter="url(#a)"/><path d="M52.46-38.28 31.18-50.32l5.81 4.76 3.42 2.41-5.3-1.7-12.48-4.32-14.86-5.47-12.41-5.48-7.51-4.65-2.98-3.23-.37-1.46.4.42.5 2.29 1.98 3.83L-5.41-59l12.16-.45-14.46-16.58" filter="url(#a)"/><path d="m17.97-72.91-3.66 1.63 7.86 5.54 2.86 2.41-3.89-.71-6.78-1.42-5.65-.71-2.62.14.21.57 1.8.64 2.12.63 1.71.71 1.28.96 1.38 1.21 2.06 1.22 2.73.81 2.59.1 1.25-.4-.8-.28-2.78.07-4.53-.62-6.25-3.13-3.07-4.61 23.51.98" filter="url(#a)"/><path d="m-41.83-55.56 35.64 1.07 4.99-2.43 1.99-2.92.46-1.34.6-.14 2.2-.24 3.21-1.13 2.41-1.9.07-2.01-2.86-1.48-5.25-.74-6.34-.15-5.66.14-3.23.24.41.44 4.41 1.04 7.54 2.06 8.32 3 5.24 2.79-1.68.45-8.82-3.37-10.33-5.41-18.62-.63" filter="url(#a)"/><path d="m-12.28-75.11-3.8 4.67 3.72 6.56 6.56 5.7 7.37 1.74 7.24-1.26 7.01-1.88 6.46-.98 5.08.1 2.79.67.04.74-2.42.53-3.79.28-3.64.1-2.25-.15-.7-.75-.32-1.97-1.83-3.55-4.69-4.3-7.83-2.44-12.87 2.87-31.16 12.21" filter="url(#a)"/><path d="M40.42-57.05 18.9-63.96l-8.76 3.34-3.76 2.55-4.46-.56-4.42-1.8-1.6-1.41 2.72-.61 6.19-.13 7.05-.19 5.09-.84 1.56-1.89-1.44-2.76-2.7-2.77-5.43-2.37-16.65-2.63" filter="url(#a)"/><path d="M51.71-39.69 32.18-58.74l-16.71-7.52-13.44-1.7-7.25-.22.02-.1 5.41.32 7.31 1.11 5.81 1.56 2.18 1.23-1.86.25-4.87-.79-6.21-1.38-6.08-1.33-5.24-.83-4.43-.18-4.02.41-4.01.95-3.92 1.45-2.95 1.69-.2 1.16 4.97-.5 12.22-2.14 20.74.61 36.32 14.76" filter="url(#a)"/><path d="M54.47-33.89 20.92-58.36.94-67.35l-7.93-2.63-.21.53 3.22 1.87 2.31 1.92-.85 1.26-2.87.54-1.85.39 1.22 1.22 3.8 2.7 4.32 3.86 2.92 3.51-2.39.35-37.15-11.27" filter="url(#a)"/><path d="m-44.91-51.64 42.92-9.13 6.07-2.52-2.97 1.7-4.94 2.17-4.09 1.33-1.52.62.98.17 2.3-.21 2.83-.49 3.65-.56 5.05-.49 6.29-.41 6.23-.38 4.23-.42.69-.68-3.18-1.36-5.57-2.24-4.86-2.37-2.03-.5L.8-64.33l-39.69 5.55" filter="url(#a)"/><path d="m29.43-67-18.38 5.29 9.53 3.93 6.72.22 1.25-1.56-1.04-1.42-1.52-.54-2.34-.01-4.01-.09-5.67-.35-6.38-.27-6.08.25-5.43.86-4.98 1-4.37.39-2.7-.68.4-1.6 3.95-1.86 6.33-1.59 7.24-1.43 8.51-1.58 10.66-.9L29.43-67" filter="url(#a)"/><path d="m49.66-43.7-11.48-8.92-1.64 2.22-6.23-1.46-8.62-3.94-6.92-3.29-2.95-1.26.9.19 2.89.22 3.07-.58 3.3-.73 4.83.65 6.11 2.53 3.04 2.27-8.31-3.25-32.59-17.1" filter="url(#a)"/><path d="m-26.94-68.42 14.52-.09 12.9.97 4.67 1.18-.1.79-1.33.23-.83-.04.15.01 1.36.11 2.73.16 3.94.25 4.61.53 4.38 1.08 3.05 1.7.72 2.06-2.22 1.89-4.94 1.09-6.58-.23-6.67-1.83-5.62-3.24-4.23-3.89-2.92-3.3-1.44-1.6-1.49.42-18.5 4.3" filter="url(#a)"/><path d="m-2.68-76.7 36.77 30.53 6.39 5.53-6.76-5.51-8.77-8.44-7.09-7.32-5.99-4.78-5.75-2.13-4.8.12-2.09 1.61 1.94 2.23 5.63 2.05 7.05 1.2 5.25-.11.68-1.52-5.18-2.06-9.79-.83-6.45.86 27.3-4.33" filter="url(#a)"/><path d="M52.6-38.47 25-54.04l-17.17.91-12.55.59-3.23-1.74 3.63-2.56 5.67-1.88 4.79-.35 2.95 1.28.71 2.34-2.01 2.39-4.95 1.42-7.15-.2-7.42-1.88-4.89-2.99.47-3.1 7.55-1.87 14.13.71 17.58 4.34 15.85 7.48 8.64 6.12-4.13-9.83" filter="url(#a)"/><path d="m41.14-56.26-11.1-4.5-10.52.35-13.46-1.92-10.11-3.06-4.7-2.79-.27-1.71 2.59-.34 3.92.9 3.83 1.8 2.86 2.37 1.99 2.56 1.72 2.24 1.25 1.09-.78-.85-4.34-2.78L-3-65.94l-6.06-.6.7 1.7 29.75-6.82" filter="url(#a)"/><path d="m8.48-75.85 3.04 9.97-8.96 2.1-2.1.36-.08-.73-1.3-1.53-1.22-1.71.98-1.45 3.53-1 4.86-.36 4.48.46 2.6 1.2-.24 1.69-2.96 2.3-3.8 3.96-1.66 6.61L3.6-48.5l-38.12-14.6" filter="url(#a)"/><path d="m3.06-76.56-18.83 6.26-10.3 5.75-.84 1.8 5.32-1.01 7.68-2.27 7.14-2.53 5.1-2.16 3-1.35 1.98-.27 2.38.81 3.83 1.71 5.38 2.34 6.19 2.74 5.98 3.08 5.04 3.36 3.93 3.52 3.1 3.46L42-47.93l3.42 3.9 4.56 5.15 2.48.6" filter="url(#a)"/><path d="m-32.13-65.23 18.5-4.42 18.36 3.76 9.9 6.18.55 4.85-4.24 2.06-4.27-.87-1.24-2.72 2.78-2.77 5.45-1.61 4.92-.61 1.56-.51-1.44-.51.71 1.08 10.69 4.71 16.47 8.03" filter="url(#a)"/><path d="m-44.91-51.64 15.07-11.22 13.5-6.02 9.7-1.23 8.34 2.26 8.19 3.43 6.88 2.28 4.14.15 1.22-1.49-.88-1.89-2.01-1.15-2.68.04-3.18 1.02-3.3 1.46-2.51 1.31-.6.78 1.83.05 3.51-.74 3.41-1.5 1.67-1.86-.08-1.3v.57l.29 3.31-8.94 4.57-47.55.03" filter="url(#a)"/><path d="M12.92-74.77-.91-72.92l-2.83 2.89 3.47 3.29 7.91 3.25 6.92 2.57 1.58 1.42-4.49.39-8.12-.14-8.03-.14-4.76.06.1.11 4.69-.06 7.69-.32 8.56-.37 7.51-.06 5.23.46 2.65.96.63 1.26-.16 1.36.1 1.1-.2-.48-4.35-4.42-14.54-8.96-23.97-5.37" filter="url(#a)"/><path d="M54.25-34.21 45-48.3l-8.48-7.32-10.48-4.91L15.77-64l-6.91-2.46-2.27-1.32 1.11.08 2.11 1.34 1.62 2.14 1.42 2.45 2.5 2.44 4.28 2.2 5.43 1.88 5.75 2.11 6.2 3.24 6.04 3.42 1.01-2.3-10.54-15.16" filter="url(#a)"/><path d="m-43.95-52.62 36.22-13.81 10.11-4.48.18-.02-4.18 1.89-5.74 2.24-4.93 1.51-2.3.24.88-.9 3.3-1.45 4.48-1.34 4.78-.82 4.77-.22 4.53.22 3.53.52 1.34.95-2 1.77-7.39 2.73-18.71 3.84-32.78 12.51M1.03-76.43l1.04-.08 1.77.13 1.95.22 1.89.27 1.83.33 1.83.41 1.84.48 1.82.55 1.79.63 1.78.68 1.79.76 1.81.83 1.84.9 1.83.97 1.82 1.03 1.8 1.08 1.78 1.14 1.77 1.19 1.77 1.25 1.76 1.3 1.76 1.38 1.72 1.45 1.66 1.52 1.57 1.56 1.48 1.58 1.39 1.56 1.36 1.55 1.36 1.56 1.41 1.59 1.4 1.64 1.3 1.68 1.09 1.6.84 1.31" filter="url(#a)"/><path d="m-9.1-75.72 1.73-.29 1.72-.21 1.94-.13 2.03-.05 2.09.03 2.17.09 2.35.14 2.62.2 2.95.27 3.26.33 3.48.41 3.59.48 3.55.55 3.43.64 3.23.71 3.03.79 2.8.86 2.58.9 2.35.96 2.15 1.01 2.02 1.05 1.96 1.11 2.02 1.17 2.14 1.24 2.33 1.31 2.52 1.38 2.75 1.45 3.03 1.52 3.33 1.57 3.62 1.61 3.86 1.66 4.03 1.7 4.22 1.72 4.4 1.75 4.56 1.85 4.2 2.33" filter="url(#a)"/><path d="m-9.1-75.72 1.98-.29 1.87-.21 1.84-.13 1.88-.06 1.93.02 2 .08 2.07.13 2.15.18 2.23.24 2.24.31 2.19.37 2.11.43 2.02.51 2.01.59 2.07.67 2.22.77 2.37.85 2.53.9 2.65.91 2.76.91 2.85.93 2.91 1.04 3.63 1.4" filter="url(#a)"/><path d="m-9.89-75.39 2.03-.47 2.04-.26 2.04-.16 1.99-.08 1.95-.03 1.94.04 1.94.11 1.95.18 1.94.25 1.97.31 2.02.39 2.12.47 2.25.53 2.36.6 2.46.67 2.49.74 2.46.81 2.39.89 2.28.95 2.18 1.01 2.08 1.08 2.04 1.12 2.06 1.18 2.12 1.23 2.24 1.29 2.36 1.36 2.44 1.45 2.45 1.54 2.37 1.58 2.29 1.59 2.31 1.56 2.49 1.53 2.61 1.52 2.11 1.35.47.73" filter="url(#a)"/><path d="m-12.28-75.11 2-.36 1.98-.35 2.11-.25 2.15-.17 2.1-.1 2.05-.03 2.01.03 2.03.1 2.08.16 2.17.23 2.27.31 2.34.37 2.35.44 2.29.52 2.19.58 2.11.65 2.16.71 2.4.79 2.78.87 3.2.93 3.53.99 3.68 1.06 3.55 1.12 3.23 1.17 2.82 1.19 2.56 1.14 2.62 1.11 3.06 1.23 4.26 1.74" filter="url(#a)"/><path d="m-10.64-75.62.42.05.77-.17 1.31-.22 1.8-.19 2.11-.14 2.31-.06 2.46.01 2.61.07 2.73.12 2.78.19 2.78.24 2.76.31 2.76.38 2.81.45 2.92.52 3.09.6 3.3.69 3.56.76 3.85.84 4.12.89 4.34.93 4.41.96 4.39 1.01 4.42 1.06 4.7 1.13 5.31 1.13 5.54 1.05 3.1.87" filter="url(#a)"/><path d="m-13.73-74.55 1.89-.47 1.95-.4 2.01-.34 1.99-.26 1.92-.19 1.81-.11 1.69-.05 1.58.01 1.48.08 1.38.15 1.29.2 1.21.27 1.19.35 1.2.42 1.21.48 1.16.55 1.05.59.94.65.87.75.81.87.59.91-.19.49" filter="url(#a)"/><path d="m-14.63-74.2 1.35-.85 1.11-.38 1.54-.28 2-.23 2.25-.19 2.33-.13 2.37-.06H.77l2.53.07 2.58.12 2.57.19 2.51.25 2.41.31 2.33.38 2.33.46 2.4.52 2.59.61 2.83.69 3.1.77 3.31.84 3.46.89 3.49.94 3.37.97 3.12 1.02 2.8 1.07 2.55 1.12 2.54 1.18 2.89 1.24 3.5 1.37 4 1.6 3.38 1.72" filter="url(#a)"/><path d="m-15.32-74.12 1.32-.43 1.08-.44 1.4-.39 1.91-.34 2.27-.27 2.38-.19 2.35-.12 2.25-.06 2.19.01 2.19.07 2.23.14 2.34.2 2.46.26 2.62.34 2.72.41 2.73.49 2.61.54 2.42.58 2.39.62 2.84.74 3.91.99 5.84 1.4" filter="url(#a)"/><path d="m-15.32-74.12 1.5-.44 1.58-.44 1.67-.4 1.8-.33 1.97-.26 2.11-.18 2.19-.11 2.22-.04 2.21.03 2.2.09 2.22.17 2.24.23 2.3.3 2.37.38 2.47.45 2.55.51 2.59.59 2.62.65 2.66.73 2.73.8 2.92.87 3.21.93 3.56 1.01 3.87 1.06 4.07 1.12 4.08 1.16 3.92 1.2 3.67 1.24 3.45 1.32 3.27 1.44 3.13 1.64 2.99 1.78 3.06 1.69 4.46 1.26" filter="url(#a)"/><path d="m-16.76-73.56.64-.5.95-.46 1.47-.44 1.9-.39 2.15-.34 2.27-.27 2.29-.19 2.24-.12 2.2-.06 2.19.01 2.21.07 2.28.14 2.39.21 2.51.27 2.64.34 2.76.42 2.79.49 2.75.54 2.69.61 2.73.67 2.94.75 3.21.86 3.35.93 3.38.97 3.73 1.26" filter="url(#a)"/><path d="m-17.12-73.44.96-.61 1.4-.49 1.59-.43 1.67-.36 1.75-.3 1.84-.25 1.9-.21 1.97-.14 2.02-.09 2.12-.02 2.22.04 2.31.1 2.38.15 2.4.21 2.36.27 2.28.34 2.22.39 2.26.45 2.47.5 2.82.58 3.2.69 3.55.96" filter="url(#a)"/><path d="m-17.12-73.44 1.67-.62 1.75-.49 1.83-.43 1.86-.37 1.87-.3 1.84-.24 1.77-.19 1.67-.13 1.62-.06 1.59-.01 1.58.07 1.58.12 1.59.18 1.56.25 1.54.32 1.49.38 1.41.46 1.31.53 1.2.61 1.06.69.91.77.74.84.59.89.44.94.28.98.16 1.03.05 1.08.01 1.14.05 1.2.15 1.28.28 1.37.35 1.47.09 1.54-.56 1.6-.79 1.92M59.48-15l1.83 2.66 1.24 2.58-.01 2.37-.4 2.3-.3 2.3-.11 2.32.04 2.31.13 2.32.17 2.33.24 2.32.35 2.28.5 2.24.68 2.18.83 2.16.88 2.15.82 2.17.62 2.19.37 2.2.11 2.2-.11 2.17-.26 2.12-.35 2.07-.46 2.04-.6 2.05-.76 2.09-.9 2.15-1.04 2.11-1.28 1.96" filter="url(#a)"/><path d="m-18.97-72.57 1.65-.78 1.7-.62 1.74-.53 1.71-.44 1.69-.37 1.69-.3 1.72-.25 1.75-.2 1.8-.13 1.83-.07 1.87-.01 1.9.05 1.94.12 1.97.18 1.99.24 2.01.31 2 .37 1.98.44 1.96.52 1.93.6 1.91.69 1.9.76 1.9.83 1.89.89 1.89.93 1.89.97 1.91 1.01 1.93 1.07L35-65.17l1.82 1.16 1.64 1.2 1.59 1.32 2.23 1.9" filter="url(#a)"/><path d="m-20.68-71.98 1.07-.88.61-.62 1.04-.52 1.38-.47 1.66-.43 1.96-.39 2.26-.34 2.49-.27 2.58-.21 2.59-.13 2.59-.07 2.64-.01 2.72.07 2.82.12 2.86.2 2.84.26 2.82.33 2.91.41 3.15.48 3.55.54 3.98.57 4.36.63 4.7.74 5.29 1 6.96 1.4" filter="url(#a)"/><path d="m-21.56-71.61 2.23-.89 1.89-.76 1.74-.64 1.69-.54 1.67-.45 1.66-.38 1.68-.31 1.72-.26 1.78-.2 1.83-.13 1.89-.08 1.93-.01 1.97.05 2.01.11 2.02.18 2.05.23 2.06.3 2.07.37 2.09.44 2.12.52 2.15.59 2.17.68 2.15.76 2.11.83 2.05.89 2 .93 1.98.96 2.05 1.01 2.18 1.07 2.25 1.13 2.16 1.14 1.87 1.05 1.64.88" filter="url(#a)"/><path d="m-23.68-70.45 1.64-.89 1.47-.76 1.58-.68 1.6-.61 1.64-.54 1.68-.49 1.76-.44 1.84-.39 1.91-.33 1.98-.27 2.02-.19 2.06-.13 2.11-.06 2.17.01 2.23.08 2.29.15 2.34.22 2.36.28 2.37.37 2.36.43 2.35.5 2.36.57 2.43.65 2.52.71 2.67.79 2.81.86 2.92.93 2.99.99 3.02 1.06 3.06 1.12 3.15 1.16 3.27 1.19 3.34 1.2 3.28 1.22 3.23 1.38 3.42 1.76 4.28 2.34" filter="url(#a)"/><path d="m-26.94-68.42 2.72-1.6 2.09-1.1 1.8-.86 1.66-.72 1.6-.63 1.58-.55 1.63-.5 1.72-.44 1.81-.4 1.89-.34 1.95-.27 1.97-.21 1.95-.14 1.93-.08h1.91l1.88.06 1.88.13 1.87.2 1.87.27 1.88.34 1.88.41 1.89.48 1.87.55 1.85.61 1.85.68 1.89.76 1.98.85 2.04.93 1.99.96 1.85.99 1.56.87" filter="url(#a)"/><path d="m-27.13-68.37 2.24-1.33 1.6-.92 1.43-.85 1.2-.81.98-.75 1.01-.67 1.28-.57 1.66-.49 1.96-.41 2.12-.34 2.17-.28 2.18-.23 2.23-.17 2.34-.11 2.49-.04 2.66.01 2.85.07 3.04.13 3.28.18 3.58.25 3.81.32 3.91.42 4.32.65m32.13 60.05 2.64 1.46 2.77 1.77 1.34 2.14.36 2.4-.1 2.5-.22 2.47-.15 2.4.1 2.34.48 2.31.89 2.3 1.22 2.3 1.43 2.29 1.55 2.29 1.67 2.26 1.85 2.22 2.09 2.16 2.3 2.12 2.41 2.08 2.35 2.08 2.14 2.08 1.8 2.08 1.31 2.07.67 2.07-.02 2.07-.52 2.07-.61 2.06-.35 1.99.06 1.8 1.77 1.22m-31.23-61.4.36 1.46.33 1.77.26 2.14.17 2.4.12 2.5.08 2.47.04 2.4-.02 2.34-.07 2.31-.14 2.3-.2 2.3-.27 2.29-.32 2.29-.37 2.26-.42 2.22-.45 2.16-.49 2.12-.54 2.08-.59 2.08-.64 2.08-.7 2.08-.75 2.07-.8 2.07-.85 2.07-.93 2.07-.98 2.06-1.03 1.99-.99 1.8-.77 1.22" filter="url(#a)"/><path d="m-27.13-68.22.36-.71 1.59-1.07 1.9-1 1.82-.86 1.7-.74 1.64-.65 1.65-.56 1.68-.51 1.75-.45 1.84-.41 1.94-.36 2.02-.3 2.06-.24 2.07-.17 2.04-.1 2-.04 2.01.03 2.07.1 2.12.16 2 .19 1.61.17 1.13.18" filter="url(#a)"/><path d="m-27.13-68.22 1.05-.72 1.87-1.08 1.89-1 1.74-.87 1.6-.74 1.52-.64 1.51-.57 1.57-.5 1.69-.45 1.83-.4 1.94-.35 2.03-.28 2.06-.22 2.08-.15 2.08-.08 2.08-.01 2.11.05 2.15.12 2.19.18 2.24.26 2.28.33 2.35.4 2.38.48 2.36.53 2.25.58 2.14.63 2.34.75 3.11.99 4.49 1.41" filter="url(#a)"/><path d="m-30.92-65.98 2.8-1.52 2.03-1.13 1.8-.99 1.81-.92 1.88-.87 1.91-.81 1.9-.75 1.83-.66 1.77-.58 1.7-.49 1.64-.42 1.6-.34 1.57-.28 1.55-.22 1.53-.16 1.52-.09 1.49-.03 1.47.03 1.46.09 1.43.15 1.4.22 1.35.28 1.29.34 1.22.41 1.14.49 1.06.56.94.66.83.75.72.86.66.92.73.93.82.91.68 1.01" filter="url(#a)"/><path d="m-31.16-65.38.98-.96 1.31-1.14 1.21-1.08 1.32-1 1.57-.94 1.77-.87 1.86-.81 1.86-.75 1.84-.66 1.83-.58 1.84-.5 1.86-.42 1.88-.35 1.92-.28 1.95-.22 2-.16 2.05-.09L0-76.22l2.15.03 2.18.09 2.19.15 2.21.22 2.23.28 2.25.35 2.3.42 2.35.48 2.4.57 2.43.67 2.45.75 2.44.85 2.47.9 2.52.92 2.56.9 2.52.87 2.05.77" filter="url(#a)"/><path d="m-31.16-65.38.82-.95 1.06-1.14.94-1.08.95-.99 1.24-.93 1.64-.88 1.91-.81 2-.75 1.9-.67 1.73-.59 1.57-.5 1.49-.42 1.56-.36 1.76-.29 2.05-.23 2.38-.17 2.69-.1 2.93-.05 3.12.02 3.25.07 3.37.14 3.48.2 3.59.26 3.74.32 3.92.39 4.18.44 4.52.49 4.81.53 3.82.47" filter="url(#a)"/><path d="m-32.13-65.23.31-.68 1.53-.88 1.66-1 1.49-1.05 1.32-1.03 1.26-.97 1.3-.86 1.38-.77 1.49-.68 1.6-.59 1.73-.52 1.91-.47 2.09-.4 2.25-.35 2.38-.28 2.45-.22 2.46-.15 2.43-.08 2.4-.02 2.39.06 2.41.12 2.47.19 2.56.27 2.7.33 2.82.41 2.92.48 2.98.54 2.98.61 3 .68 3.09.76 3.29.85 3.52.93 3.65.97 3.52.98 2.57.88" filter="url(#a)"/><path d="m-35.22-62.28 1.22-1.09 1.89-1.19 2.11-1.07 2.08-1.01 2.09-1.01 2.19-1.03 2.28-1.01 2.23-.97 2.04-.88 1.76-.8 1.54-.69 1.37-.62 1.3-.54 1.29-.48 1.36-.44 1.49-.39 1.61-.34 1.64-.27 1.54-.19 1.36-.12 1.12-.1.69-.14" filter="url(#a)"/><path d="m-35.22-62.28.76-1.11.74-1.19.71-1.09 1.13-1.03 1.64-1.03 1.95-1.03 1.99-1 1.83-.96 1.66-.87 1.55-.78 1.55-.69 1.64-.61 1.77-.54 1.91-.47 2.03-.42 2.14-.36 2.21-.3 2.26-.24 2.29-.17 2.28-.1 2.28-.03 2.27.04 2.3.1L8-76l2.38.24 2.44.3 2.54.4 2.67.49 2.71.58 2.36.57 1.16.51" filter="url(#a)"/><path d="m-38.02-59.73 1.48-1.97-.51-1.5-1.34-1.27-.23-1.13 1.33-1.06 2.3-1.05 2.51-1.03 2.33-1 2.1-.95 1.98-.87 1.95-.78 1.95-.69 1.96-.62 1.96-.54 2.02-.48 2.13-.41 2.29-.36 2.47-.29 2.64-.23 2.79-.17 2.89-.09 3-.03 3.11.04 3.23.11 3.38.18 3.56.25 3.79.32 4.04.4 4.28.48 4.36.53 4.21.58 3.96.63 4.2.75 5.68 1 7.95 1.41" filter="url(#a)"/><path d="m-39.03-58.35 2.5-1.59 2.43-1.63 1.56-1.47 1.22-1.28 1.25-1.16 1.45-1.07 1.7-1.05 1.92-1.03 2.11-1.01 2.18-.95 2.13-.89 2.01-.8 1.82-.71 1.65-.62 1.53-.55 1.49-.49 1.51-.44 1.54-.39 1.58-.32 1.56-.27 1.5-.19 1.37-.13 1.23-.08H1.3l1.11.1 1.53.35" filter="url(#a)"/><path d="m-39.44-57.87 1-1.26 1.57-1.52 1.53-1.5 1.4-1.39 1.35-1.28 1.35-1.19 1.44-1.13 1.55-1.07 1.65-1.01 1.74-.95 1.81-.91 1.84-.84 1.84-.78 1.82-.72 1.8-.63 1.76-.54 1.73-.47 1.73-.38 1.75-.32 1.82-.27 1.9-.25 1.84-.2 1.5-.02" filter="url(#a)"/><path d="m-39.05-58.35.02-.55.46-1.24.51-1.44.73-1.4 1.02-1.29 1.3-1.17 1.56-1.11 1.84-1.07 2.07-1.03 2.19-1 2.19-.95 2.07-.87 1.93-.79 1.8-.71 1.73-.62 1.73-.56 1.79-.49 1.9-.42 2-.37 2.1-.31 2.2-.24 2.26-.18 2.29-.11 2.32-.04 2.34.03 2.37.1 2.42.16 2.45.22 2.53.29 2.71.39 3.04.51 3.3.63 2.65.54" filter="url(#a)"/><path d="m-41.31-56.22.18-1.46.67-1.47 1.27-1.52 1.45-1.47 1.3-1.4 1.08-1.29 1-1.22 1.1-1.14 1.37-1.08 1.68-1.01 1.89-.96 1.97-.89 1.91-.83 1.8-.76 1.68-.68 1.63-.6 1.69-.53 1.83-.45 2.04-.37 2.29-.31 2.51-.23 2.7-.18 2.83-.11 2.95-.05 3.04.01 3.15.07 3.29.14 3.43.2 3.58.27 3.68.32 3.71.39 3.7.46 3.67.52 3.76.62 4.06.75 4.89.95 6.69 1.21" filter="url(#a)"/><path d="m-44.91-51.64 2.28-2.24 2.41-1.77 2.53-1.54 2.44-1.43 2.31-1.4 2.18-1.39 2.03-1.35 1.91-1.27 1.83-1.2 1.81-1.13 1.79-1.09 1.74-1.05 1.67-1 1.62-.96 1.63-.9 1.67-.81 1.73-.73 1.78-.64 1.75-.57 1.62-.51 1.44-.44 1.2-.4.97-.34.79-.27.68-.2.63-.14.56-.09.43-.07.33.01" filter="url(#a)"/><path d="m-44.85-51.32-.38-1.42 1-1.57 1.13-1.58 1.26-1.55 1.44-1.53 1.55-1.49 1.57-1.45 1.57-1.39 1.56-1.31 1.58-1.23L-31-67l1.54-1.09 1.5-1.03 1.47-.97 1.46-.91 1.49-.85 1.55-.78 1.63-.71 1.72-.63 1.81-.55 1.92-.47 2.04-.39 2.16-.33 2.28-.26 2.35-.21 2.41-.14 2.49-.07 2.59-.01 2.65.06 2.46.07 2.24.13" filter="url(#a)"/><path d="m-44.85-51.32.66-1.43 1.16-1.58 1.31-1.59 1.41-1.55 1.5-1.54 1.51-1.5 1.47-1.45 1.43-1.38 1.41-1.31 1.43-1.23 1.5-1.16 1.58-1.1 1.68-1.02 1.76-.97 1.83-.9 1.87-.84 1.89-.77 1.88-.69 1.88-.62 1.86-.54 1.84-.46 1.84-.38 1.85-.32 1.87-.25 1.9-.19 1.93-.12 1.96-.06h2l2.02.07 2.05.12 2.07.19 2.09.25 2.09.32 2.04.39 1.98.44 1.95.5 2.31.7" filter="url(#a)"/><path d="m-45.06-50.92-.67-1.28.49-1.7 1.65-1.67 1.88-1.54 1.66-1.47 1.36-1.42 1.1-1.39.96-1.34.96-1.28 1.09-1.2 1.28-1.15 1.51-1.09 1.68-1.05 1.8-1 1.85-.96 1.83-.88 1.81-.81 1.78-.73 1.77-.64 1.81-.57 1.9-.51 2.03-.44 2.16-.39 2.29-.32 2.41-.26 2.47-.2 2.5-.13 2.5-.06 2.53.02 2.63.1 2.79.17 2.65.2 1.82.12" filter="url(#a)"/><path d="m-47-48.49 2.63-1.93 3.12-1.72 2.46-1.7 1.59-1.64 1.25-1.56 1.33-1.48 1.57-1.43 1.79-1.39 1.93-1.34 1.97-1.28 1.93-1.21 1.83-1.15 1.7-1.1 1.59-1.05 1.51-1.01 1.48-.95 1.49-.89 1.54-.81 1.59-.73 1.62-.65 1.6-.57 1.53-.51 1.42-.44 1.3-.39 1.19-.33 1.12-.26 1.07-.2 1.01-.13.95-.05.9.01.87.1.83.17.64.2.07.12" filter="url(#a)"/><path d="m-47.4-47.2-.17-1.51.37-1.66.15-1.68-.11-1.68.23-1.62.96-1.55 1.62-1.48 1.83-1.44 1.63-1.39 1.27-1.34 1-1.29.97-1.21 1.21-1.15 1.55-1.09 1.84-1.06 1.95-1.03 1.9-.98 1.75-.93 1.64-.84 1.6-.74 1.66-.66 1.74-.57 1.85-.51 2.03-.46 2.36-.45 2.81-.42 2.91-.36" filter="url(#a)"/><path d="m-47.4-47.2-10.81-1.52 3.46-1.68 3.51-1.7 1.03-1.69-.74-1.63-1.14-1.56-.55-1.49.42-1.44 1.28-1.39 1.8-1.35 2.04-1.28 2.09-1.21 2.07-1.15 2.09-1.11 2.14-1.05 2.22-1.01 2.28-.95 2.28-.89 2.22-.81 2.13-.73 2.07-.65 2.1-.57 2.26-.51 2.53-.45 2.85-.39 3.16-.32 3.39-.26 3.51-.19 3.56-.13 3.59-.06 3.65.02 3.79.09 3.95.16 3.9.18 3.39.18 2.59.18" filter="url(#a)"/><path d="m-48.43-45.75.49-1.42-.11-1.55.22-1.63.77-1.67 1.13-1.67 1.23-1.62 1.13-1.55.99-1.49.92-1.44.99-1.4 1.16-1.35 1.39-1.28 1.57-1.22 1.67-1.15 1.7-1.11 1.71-1.06 1.72-1.02 1.76-.98 1.81-.91 1.89-.83 1.95-.75 1.98-.66 1.99-.57 1.99-.52 2.03-.46 2.17-.42 2.36-.37 2.56-.29 2.68-.2 2.8-.16" filter="url(#a)"/><path d="m-48.43-45.75.05-1.42.32-1.54.21-1.63.22-1.67.29-1.66.36-1.61.48-1.56.71-1.49 1.04-1.44 1.38-1.39 1.6-1.35 1.64-1.29 1.55-1.21 1.43-1.16 1.41-1.1 1.53-1.06 1.75-1.03 1.96-.99 2.05-.92 2-.84 1.87-.75 1.75-.66 1.76-.57 1.9-.51 2.14-.47 2.43-.44 2.75-.43 2.97-.36" filter="url(#a)"/><path d="m-49.86-43.35 1.2-2.19.99-1.76 1.08-1.71 1.18-1.7 1.23-1.68 1.28-1.65 1.34-1.6 1.42-1.57 1.48-1.54 1.53-1.5 1.55-1.45 1.56-1.39 1.58-1.32 1.6-1.25 1.64-1.18 1.67-1.11 1.7-1.05 1.73-.98 1.76-.93 1.78-.86 1.78-.8 1.79-.72 1.76-.65 1.75-.56 1.72-.48 1.72-.4 1.72-.34 1.75-.27 1.78-.23 1.8-.16 1.84-.07 2.07.03 2.85.14" filter="url(#a)"/><path d="m-50.66-41.75-.16-2.99-1.44-2.05-.27-1.76 1.19-1.69 1.73-1.67 1.46-1.65.86-1.61.28-1.55-.06-1.49-.1-1.44.09-1.4.42-1.36.77-1.29 1.08-1.22 1.38-1.15 1.63-1.1 1.8-1.07 1.86-1.04 1.83-1.02 1.78-.97 1.84-.87 1.93-.77 1.91-.65 1.66-.53 1.17-.46" filter="url(#a)"/><path d="m-51.81-39.59.31-1.79.67-1.95 1.13-1.9 1.25-1.81 1.23-1.75 1.23-1.71 1.23-1.68 1.25-1.63 1.28-1.61 1.32-1.56 1.36-1.54 1.4-1.5 1.44-1.46 1.47-1.41 1.48-1.34 1.49-1.26 1.49-1.2 1.52-1.12 1.55-1.06 1.6-1 1.65-.95 1.71-.9 1.8-.85 1.82-.79 1.67-.62 1.1-.22" filter="url(#a)"/><path d="m-51.81-39.59-.52-1.78-1.48-1.94-.42-1.89.79-1.81 1.38-1.74 1.39-1.7 1.08-1.67.77-1.63.57-1.6.46-1.56.37-1.54.22-1.5.11-1.46.16-1.42.47-1.34 1.01-1.27 1.64-1.2 2.15-1.13 2.32-1.06 2.1-1 1.62-.92 1.37-.89 2.15-.93" filter="url(#a)"/><path d="m-53.06-37.06.87-3.36.45-2.24.61-1.99.42-1.87.16-1.78.04-1.71.06-1.68.2-1.65.44-1.61.74-1.55 1.03-1.5 1.25-1.45 1.4-1.41 1.47-1.38 1.52-1.32 1.54-1.23 1.53-1.13 1.42-1.06 1.23-1.05 1.16-1.09 1.69-1.2 3.3-1.22" filter="url(#a)"/><path d="m-53.9-35.14.59-2.51.29-2.57.31-2.27.62-2.07.8-1.91.6-1.81.19-1.75-.12-1.7-.12-1.66.18-1.61.62-1.56 1.01-1.51 1.25-1.46 1.33-1.42 1.33-1.36 1.29-1.3 1.27-1.23 1.28-1.17 1.33-1.11 1.43-1.08 1.56-1.05 1.72-1.02 1.87-.97 1.93-.88 1.86-.78 1.73-.65 1.72-.54 1.55-.46M58.3-19.76l1.71 2.68 2.58 2.13 3.01 1.91 3.44 1.94 3.52 2.13 2.79 2.3 1.44 2.41.12 2.42-.66 2.38-.83 2.34-.61 2.3-.26 2.28.01 2.28.24 2.28.5 2.3.83 2.28 1.18 2.25L78.75 21l1.53 2.05 1.39 1.99 1.1 2.06.68 2.22.37 2.11 1.57.73" filter="url(#a)"/><path d="m-53.74-34.95-1.89-.95-3.29-1.97-1.82-2.24-.29-2.2.19-2.05.39-1.93.83-1.82 1.4-1.74 1.72-1.7 1.55-1.66.95-1.61.19-1.57-.51-1.5-.96-1.46-1.04-1.43-.8-1.39-.37-1.33.04-1.24.24-1.14.36-1.04.75-1.01 1.68-1.07 3.4-1.45" filter="url(#a)"/><path d="m-53.74-34.95-3.58-.98 1.38-2.02 1.73-2.27 1.45-2.21 1.26-2.07 1.14-1.94 1.09-1.84 1.05-1.77 1.03-1.71.97-1.67.89-1.62.81-1.57.74-1.52.72-1.46.78-1.41.88-1.36 1.03-1.29 1.17-1.24 1.31-1.18 1.41-1.12 1.49-1.07 1.54-1.03 1.62-.98 1.69-.92 1.79-.83 1.88-.76 1.96-.67 2.06-.59 2.2-.52 2.42-.47 2.67-.42 2.93-.36 3.16-.28 3.37-.2 3.64-.11 3.86-.02" filter="url(#a)"/><path d="m-55.89-29.74-.29-2.47-.2-1.92.49-1.87.74-2.01.61-2.11.46-2.12.48-2.04.57-1.95.61-1.86.54-1.79.41-1.72.3-1.68.3-1.62.45-1.57.71-1.53 1.01-1.47 1.27-1.42 1.43-1.36 1.5-1.31 1.5-1.24 1.47-1.18 1.42-1.13 1.37-1.08 1.36-1.05 1.44-1.01 1.63-.95 1.87-.87 2.08-.77 2.14-.67 2.08-.57 2.1-.51 2.5-.44 3.35-.36" filter="url(#a)"/><path d="m-55.82-30.23.58-1.65-.43-1.99-1.21-1.86-1.04-1.82-.34-1.82.34-1.86.79-1.87.99-1.86 1.08-1.82 1.19-1.79 1.36-1.74 1.52-1.71 1.63-1.66 1.65-1.63 1.58-1.59 1.46-1.55 1.32-1.51 1.23-1.46 1.2-1.4 1.26-1.35 1.38-1.27 1.54-1.2 1.68-1.14 1.8-1.07 1.87-1.01 1.94-.94 2.02-.89 2.09-.82 2.17-.75 2.18-.67 2.13-.58 2.07-.49 2.07-.41 2.21-.33 2.51-.29 2.81-.28 2.99-.39" filter="url(#a)"/><path d="m-55.82-30.23.76-1.65.65-1.98.44-1.87.37-1.8.39-1.83.34-1.85.18-1.87.02-1.85-.03-1.83.12-1.78.45-1.75.86-1.7 1.25-1.66 1.52-1.63 1.65-1.59 1.63-1.55 1.5-1.51 1.31-1.46 1.14-1.41 1.02-1.35.97-1.27 1.01-1.21 1.11-1.14 1.26-1.07 1.47-1.01 1.73-.95 2.03-.89 2.28-.83 2.47-.76 2.49-.68 2.39-.6 2.22-.49 2.12-.4 2.34-.31 3.28-.34" filter="url(#a)"/><path d="m-56.9-25.46.26-2.84.02-2.03-.41-1.87-1.28-1.86-1.99-1.91-2.08-2.01-1.56-2.07-.68-2.07.32-2.03 1.19-1.95 1.79-1.87 2.03-1.8 1.89-1.74 1.49-1.68 1.03-1.63.65-1.58.53-1.53.66-1.48.98-1.43 1.35-1.37 1.57-1.31 1.56-1.24 1.3-1.19.97-1.13.75-1.09.84-1.05 1.28-1.01 1.91-.95 2.48-.88 2.74-.77 2.66-.67 2.49-.58 2.54-.5 3.05-.45 3.9-.36" filter="url(#a)"/><path d="m-56.9-25.46-.29-2.83-2.34-2.02-1.9-1.86-.55-1.85.49-1.9 1-2 1.14-2.06 1.06-2.07.89-2.02.66-1.95.46-1.87.27-1.8.12-1.73.03-1.68.06-1.64.24-1.58.56-1.52.93-1.48 1.25-1.44 1.42-1.38 1.48-1.32 1.51-1.25 1.63-1.18 1.89-1.11 2.22-1.08 2.51-1.07 2.68-1.08 2.62-1.04 2.4-.93 2.75-.97" filter="url(#a)"/><path d="m-56.96-26.06-1.91-1.46-1.21-2.01-.66-2.07-.43-2-.11-1.91.13-1.85.17-1.84.05-1.85-.07-1.86-.12-1.84-.09-1.82-.03-1.79.1-1.74.3-1.7.57-1.67.87-1.63 1.14-1.59 1.31-1.56 1.36-1.52 1.35-1.48 1.36-1.43 1.44-1.37 1.64-1.29 1.84-1.22 1.91-1.15 1.81-1.08 1.65-1.01 1.72-.95 2.27-.91 3.21-.9 3.81-.88m89.66 51.51.3 2.34-.16 2.25-.8 2.38-1.75 2.46-2.56 2.46-2.73 2.41-2.13 2.38-1.16 2.35-.35 2.34-.03 2.34-.29 2.34-.91 2.33-1.55 2.32-1.92 2.29-1.9 2.25-1.56 2.22-1.12 2.2-.84 2.18-.84 2.19-1.11 2.2-1.5 2.2-1.8 2.19-1.86 2.17L27.84 33l-1.31 2.11-.97 2.09-.86 2.08-1.04 2.08-1.45 2.08-2.01 2.05-2.55 2.02-3.01 1.95-3.27 1.89-3.12 1.8-2.4 1.77-1.56 2.03" filter="url(#a)"/><path d="m57.96-22.2 1.16 2.52 1.03 2.43.77 2.17 1.05 2.02L63.46-11l1.66 2.18 1.49 2.32 1.2 2.4.93 2.41.81 2.4.81 2.37 1.01 2.33 1.37 2.32 1.86 2.32 2.26 2.3 2.38 2.29 2.07 2.26 1.39 2.23.57 2.18-.03 2.13-.15 2.11.25 2.1.96 2.08 1.61 2.09 1.84 2.09 1.46 2.08.61 2.07-.39 2.07-1.18 2.05-1.57 2.02-1.52 1.98-1.13 1.96-.57 1.93.4 1.41M57.05-24.9l-2.95 2.69-2.43 2.4-.28 2.33.75 2.38.72 2.43.09 2.42-.53 2.39-.85 2.36-.82 2.33-.59 2.32-.36 2.32-.24 2.31-.28 2.33-.47 2.32-.76 2.28L47 12.96l-1.26 2.18-1.35 2.15-1.37 2.14-1.36 2.15-1.44 2.19L38.55 26l-2.03 2.25-2.35 2.25-2.32 2.15-1.67 2.01-.61 2.62" filter="url(#a)"/><path d="m56.89-26.11 1.97 1.72 3.94 2.2 2.37 2.29.37 2.32-.48 2.37-.41 2.41.01 2.41.5 2.38 1.03 2.35 1.59 2.33 2.08 2.31 2.37 2.31 2.4 2.31 2.22 2.32 1.94 2.33 1.65 2.3 1.36 2.24 1.08 2.17.79 2.12.58 2.1.5 2.14.58 2.17.81 2.16 1.4 2.16 2.98 2.3M56.91-25.92l.66 1.6.92 2.17.78 2.35.49 2.31.27 2.18.18 2.13.17 2.13.17 2.22.17 2.3.15 2.37.12 2.39.08 2.39.05 2.37v2.35l-.05 2.33-.12 2.32-.18 2.31-.25 2.29-.32 2.27-.38 2.23-.42 2.18-.45 2.15-.49 2.12-.53 2.1-.57 2.1-.64 2.09-.71 2.09-.78 2.08-.85 2.08-.92 2.07-.97 2.05-1.01 2.02-1.04 1.97-1.05 1.93-1.09 1.85-1.08 1.65-1.05 1.43" filter="url(#a)"/><path d="m56.91-25.92 3.97 1.59 2.38 2.15-.13 2.34-.51 2.29.37 2.18 1.62 2.1 2.79 2.11 3.7 2.19 4.27 2.29 4.48 2.36 4.37 2.39L88.14.45l3.21 2.36 2.37 2.33 1.54 2.31.93 2.31.58 2.3.47 2.3.52 2.27.66 2.24.89 2.17 1.2 2.12 1.52 2.07 1.67 2.08 1.68 2.1 1.83 2.1 2.45 2.05 3.14 2.03 2.54 2.06.45 2.15" filter="url(#a)"/><path d="m56.59-26.98 8.93 1.11 8 1.7 1.16 2.07-2.07 2.23-2.03 2.32-.82 2.38.32 2.41 1.05 2.41 1.56 2.4 2.03 2.37 2.61 2.35 3.3 2.33 3.88 2.34 4.15 2.33 3.88 2.33 3.08 2.32 1.96 2.29.87 2.25.19 2.2.04 2.18.32 2.16.71 2.17.99 2.2 1.14 2.22 1.27 2.23 1.48 2.2 1.64 2.14 1.6 2.04 1.26 1.97.37 1.98.05 2.28" filter="url(#a)"/><path d="m54.25-34.21 1.03 2.6.99 2.39 1.02 2.3.92 2.28.84 2.28.84 2.28.86 2.24.84 2.18.73 2.15.57 2.15.42 2.2.31 2.28.25 2.34.19 2.37.1 2.38-.01 2.36-.11 2.33-.2 2.31-.21 2.31-.18 2.31-.12 2.31-.08 2.29-.11 2.26-.2 2.18-.33 2.08-.45 2.02-.53 2.08-.59 2.23-.56 2.13-.07.75" filter="url(#a)"/><path d="m54.25-34.21 1.57 2.59 1.15 2.37 1.29 2.29 1.19 2.27 1.03 2.27.93 2.27.96 2.24 1.07 2.17 1.21 2.12 1.33 2.13 1.32 2.17 1.15 2.27.86 2.33.55 2.38.31 2.37.18 2.36.13 2.31.13 2.3.18 2.28.35 2.28.61 2.32.9 2.37 1 2.38.86 2.32.82 2.13 1.64 1.96M52.6-38.47l2.11 2.28 2.46 2.25 1.54 2.29.85 2.31.68 2.3.92 2.3 1.35 2.3 1.84 2.27 2.21 2.24 2.42 2.2 2.48 2.18 2.5 2.19 2.48 2.23 2.41 2.29 2.23 2.33 1.95 2.37L84.62.23l1.22 2.37.93 2.34.74 2.34.65 2.32.62 2.31.67 2.31.78 2.28 1 2.25 1.36 2.18 1.87 2.14 2.47 2.09 2.99 2.09 3.14 2.1 2.72 2.11 1.67 2.07.23 2.04-1.13 2.07-.46 2.16M51.77-39.62l4.01 1.53 5.57 1.95L64.39-34l1.16 2.24 1.17 2.28 2.24 2.28 3.35 2.28 3.77 2.28 3.27 2.26 2.09 2.23.77 2.19-.07 2.15-.03 2.15.91 2.19 2.42 2.26 3.91 2.33 4.89 2.37 5.15 2.38 4.74 2.36 3.99 2.33 3.1 2.3 2.19 2.28 1.43 2.29 1.21 2.32 2.04 2.39 3.62 2.45 3.94 2.4.2 1.81" filter="url(#a)"/><path d="m50.26-42.38 1.71 2.35 3.88 2.33 6.42 2.34 6.91 2.28 5.07 2.2 2.39 2.13.48 2.07.05 2.07.78 2.09 1.87 2.16 2.61 2.24 2.83 2.3 2.71 2.36 2.69 2.38 2.96 2.37 3.47 2.36 3.96 2.34 4.19 2.32L109.3.6l3.56 2.29 2.84 2.31 2.26 2.4 2.45 2.54 3.66 2.49 4.57 2" filter="url(#a)"/><path d="m50.91-41.61.65 1.76.67 1.79.42 1.97.03 2.13-.25 2.22-.29 2.27-.2 2.29-.11 2.29-.08 2.29-.11 2.27-.2 2.24-.26 2.2-.31 2.18-.29 2.2-.22 2.22-.13 2.28-.06 2.33-.07 2.37-.16 2.37-.34 2.36-.56 2.35-.75 2.33-.92 2.32-1.06 2.31-1.2 2.32-1.34 2.31-1.46 2.26-1.48 2.19-1.39 2.1-1.23 2.03-1.16 2.09-1.21 2.23-1.22 2.14-1.57.76" filter="url(#a)"/><path d="m50.91-41.61 3.84 1.76 3.89 1.8 1.9 1.98.79 2.13.39 2.22.28 2.28.39 2.29.69 2.29 1.03 2.29 1.25 2.27 1.23 2.24.97 2.21.61 2.19.27 2.21.06 2.23.03 2.28.11 2.34.23 2.36.37 2.37.47 2.37.56 2.35.64 2.33.68 2.32.67 2.32.56 2.31.35 2.29.05 2.26-.26 2.19L72.5 23l-.46 2.08-.29 2.09-.06 2.13-.01 2.12-.25 2.05-.56 2-.57 1.95" filter="url(#a)"/><path d="m49.66-43.7 1.62 1.68 1.26 2.1 1.34 2.26 1.45 2.31 1.6 2.28 1.72 2.22 1.67 2.16 1.46 2.12 1.21 2.11 1.04 2.15 1.02 2.21 1.08 2.26 1.2 2.33 1.27 2.36 1.26 2.38 1.19 2.39L72.14-6l1.03 2.37 1.09 2.35 1.29 2.35 1.59 2.34 1.87 2.34 1.98 2.33 1.79 2.31 1.28 2.27.55 2.21-.16 2.18-.62 2.16-.7 2.17-.38 2.21.13 2.25.58 2.29.79 2.31.9 2.09 1.41.84" filter="url(#a)"/><path d="m49.82-43.61 1.03 1.87 1.23 1.78 1.74 1.84 2.13 1.96 2.31 2.09 2.43 2.18 2.58 2.24 2.64 2.26 2.43 2.27 1.97 2.28 1.41 2.26 1.06 2.23 1.07 2.18 1.41 2.15 1.81 2.14 1.94 2.17 1.63 2.26.98 2.33.26 2.38-.09 2.4.07 2.36.63 2.32 1.21 2.3 1.46 2.25 1.59 2.19 2.18 2.42 3.27 3.67M49.82-43.61l1.01 1.88.9 1.79.83 1.85.81 1.97.82 2.11.82 2.19.8 2.25.76 2.27.71 2.28.65 2.28.59 2.27.52 2.23.46 2.2.41 2.17.36 2.18.32 2.21.27 2.27.23 2.32.2 2.37.14 2.38.07 2.36v2.34l-.1 2.32-.18 2.3-.26 2.3-.32 2.33-.35 2.38-.38 2.39-.4 2.34-.43 2.14-.55 1.98" filter="url(#a)"/><path d="m45.97-49.93 3.45 1.19.49 1.45.33 1.67.67 1.77L51.97-42l1.38 1.98 1.62 2.08 1.8 2.17 1.9 2.2 2 2.18 2.09 2.15 2.15 2.1 2.1 2.08 1.94 2.1 1.75 2.14 1.67 2.21 1.81 2.29 2.09 2.36 2.3 2.4 2.2 2.39 1.71 2.35 1.21 2.33 1.26 2.4L86.9.49l1.72 2.59" filter="url(#a)"/><path d="m44.96-51.03 6.86 1.4 1.43 1.71 1.87 1.87 2.17 1.94 1.7 1.96 1.07 1.96.63 1.98.48 2.03.57 2.1.82 2.17 1.2 2.23 1.63 2.25 2.05 2.28 2.33 2.27 2.42 2.27 2.28 2.24 1.99 2.22 1.63 2.2 1.31 2.21 1.1 2.24 1.05 2.28 1.15 2.33 1.34 2.36 1.58 2.37 1.81 2.37 2 2.36 2.13 2.33 2.19 2.32 2.13 2.33 1.9 2.33 1.49 2.34.91 2.31.26 2.21-.32 2.03-.6 1.82.03 1.83 2.29 2.8" filter="url(#a)"/><path d="m44.96-51.03 11.14 1.4-1.08 1.71-2.03 1.86-.63 1.94.87 1.95 2.05 1.96 2.84 1.97 3.23 2.03 3.15 2.1 2.7 2.17 2 2.21 1.28 2.26.75 2.27.55 2.28.72 2.26 1.22 2.24 1.87 2.21 2.45 2.2 2.8 2.2 2.82 2.22 2.55 2.28 2.12 2.32 1.73 2.37 1.5 2.38L93 2.13l1.47 2.35 1.49 2.32 1.47 2.31 1.52 2.32 1.67 2.34 1.76 2.38 1.45 2.41.53 2.34-.6 2.15-1.07 1.99" filter="url(#a)"/><path d="m44.96-51.03 2.25 1.4 2.75 1.7 3.06 1.85 2.37 1.94 1.6 1.95 1.28 1.94 1.35 1.97 1.52 2.02 1.55 2.09 1.46 2.16 1.34 2.21 1.42 2.25 1.76 2.27 2.35 2.27 3.09 2.27 3.76 2.23 4.24 2.21 4.43 2.17 4.34 2.18 3.99 2.2 3.53 2.27 3.02 2.33 2.59 2.38 2.23 2.39 2 2.37 1.9 2.35 1.97 2.3 2.23 2.28 2.58 2.25 2.63 2.29 1.59 2.35 1.44 1.49" filter="url(#a)"/><path d="m43.47-52.86 2.11 2.25 1.38 1.66 1.09 1.62 1.05 1.68 1.11 1.77 1.2 1.86 1.25 1.97 1.24 2.08 1.2 2.16 1.16 2.19 1.13 2.18 1.08 2.14.97 2.11.84 2.09.71 2.11.64 2.14.65 2.22.73 2.29.79 2.35.76 2.4.65 2.4.49 2.35.41 2.34.45 2.4.51 2.59.2 2.59" filter="url(#a)"/><path d="m43.02-53.89 2.14 2.25 1.96 1.83 1.75 1.8 1.38 1.85.99 1.91.76 1.93.73 1.93.81 1.95.94 2 1.05 2.07 1.11 2.14 1.14 2.19 1.14 2.24 1.14 2.26 1.15 2.27 1.14 2.26 1.09 2.24.98 2.2.85 2.13.74 2.09.71 2.11.72 2.22.75 2.4.68 2.54.59 2.48.55 2.08.78 1.58M43.02-53.89l.37 2.24.57 1.82-.45 1.78-1.47 1.84-1.68 1.9-1.03 1.91-.11 1.91.45 1.93.39 1.98-.06 2.04-.48 2.12-.49 2.18-.09 2.23.47 2.25.75 2.26.5 2.28-.24 2.28-1.19 2.21-2 2.09-2.4 1.94-2.16 1.83-1.24 1.9-1.6 2.12" filter="url(#a)"/><path d="m43.27-53.67 4.37 1.36.46 1.67.34 1.65.95 1.66 1.33 1.71 1.39 1.79 1.31 1.88 1.21 1.99 1.17 2.09 1.14 2.15 1.09 2.19 1.02 2.18.97 2.16 1.02 2.13 1.2 2.13 1.48 2.15 1.79 2.19 2.02 2.24 2.04 2.3 1.86 2.35 1.49 2.38 1.05 2.39.67 2.38.44 2.36.34 2.34.34 2.33.42 2.31.56 2.33.75 2.42.82 2.55.56 2.52-.55 2.02" filter="url(#a)"/><path d="m43.27-53.67 4.68 1.36 2.35 1.67 1.11 1.65.71 1.66.76 1.71.98 1.79 1.28 1.88 1.58 1.99 1.9 2.09 2.27 2.15 2.7 2.19 3.18 2.18 3.61 2.16 3.93 2.13 4.03 2.13 3.89 2.15 3.55 2.19 3.15 2.24 2.8 2.3 2.55 2.35 2.42 2.38 2.34 2.39 2.25 2.38 2.14 2.36 2.09 2.34 2.19 2.33 2.54 2.31 2.99 2.33 3.25 2.42 3.09 2.55 2.49 2.52.29 2.02" filter="url(#a)"/><path d="m41.14-56.26 4.36 1.36 3.19 1.3.8 1.43-.04 1.53.15 1.61.69 1.66 1.26 1.72 1.76 1.8 2.21 1.89 2.58 1.99 2.86 2.07 2.96 2.14 2.86 2.17 2.55 2.18 2.1 2.16 1.59 2.15 1.1 2.14.7 2.16.47 2.2.39 2.25.48 2.3.66 2.35.9 2.38 1.11 2.39 1.28 2.39 1.37 2.36 1.42 2.35L84.29.51l1.37 2.33 1.39 2.35 1.59 2.41 1.93 2.47 2.15 2.41 1.9 2.14 1.2 1.81" filter="url(#a)"/><path d="m37.61-59.59 3.64 1.41 2.82 1.45 1.63 1.55 1.73 1.63 2.45 1.69 3.22 1.73 3.6 1.78 3.43 1.82 2.77 1.87 1.97 1.88 1.5 1.9 1.61 1.91 2.22 1.96L73.25-35l3.9 2.1 4.67 2.17 5.4 2.22 5.76 2.22 5.24 2.22 3.42 2.26.88 2.44-.89 2.77" filter="url(#a)"/><path d="m34.48-62.81 1.34.8 1.92 1.36 2.25 1.68 2.31 1.72 2.21 1.65 2.08 1.57 2 1.52 2.11 1.53 2.51 1.57 3.28 1.6 4.25 1.66 5.2 1.72 5.84 1.8 6 1.9 5.61 2.01 4.79 2.12 3.83 2.2 3.07 2.22 2.65 2.2 2.44 2.08 1.98 1.9 1.35 1.8 3.92 2.27" filter="url(#a)"/><path d="m32.1-65.17 2.43 1.13 1.41 1.18 1.34 1.36 1.48 1.49 1.62 1.56 1.68 1.6 1.61 1.64 1.5 1.67 1.42 1.72 1.37 1.76 1.36 1.81 1.35 1.84 1.34 1.89 1.29 1.91 1.22 1.95 1.16 1.99 1.09 2.03 1.08 2.08 1.09 2.13 1.14 2.19 1.17 2.23 1.19 2.26 1.17 2.28 1.12 2.27 1.04 2.25.98 2.22.91 2.17.84 2.15.75 2.16L69.9-8l.57 2.38.5 2.47.42 2.44.37 2.24.38 2.04.07 2.34" filter="url(#a)"/><path d="m29.43-67 3.58 1.55 1.39 1.29 1.14 1.29 1.33 1.37 1.44 1.48 1.47 1.55 1.43 1.59 1.43 1.63 1.46 1.67 1.49 1.72 1.54 1.76 1.59 1.8 1.64 1.85 1.67 1.88 1.65 1.91 1.61 1.95 1.51 1.98 1.38 2.03 1.22 2.08 1.08 2.13.99 2.19.94 2.23.97 2.26 1.02 2.28 1.1 2.27L66.68-19l1.24 2.21 1.28 2.17 1.29 2.13 1.24 2.14 1.1 2.24.9 2.41.72 2.54.63 2.5.56 2.12.41 1.6" filter="url(#a)"/><path d="m29.3-67.17 1.78 1.38 1.68 1.39 1.46 1.24 1.4 1.27 1.47 1.4 1.5 1.54 1.46 1.6 1.38 1.6 1.27 1.59 1.19 1.56 1.14 1.57 1.12 1.58 1.1 1.63 1.1 1.68 1.09 1.74 1.08 1.83 1.07 1.92 1.04 2.02 1 2.11.94 2.18.87 2.2.8 2.17.75 2.11.69 2.03.67 2.02.65 2.09.64 2.18.59 1.88" filter="url(#a)"/><path d="m28.41-67.63 1.99.95 3.12 1.22 3.13 1.24 2.31 1.29 1.54 1.36 1.32 1.46 1.55 1.52 1.91 1.56 2.21 1.61 2.4 1.65 2.48 1.69 2.5 1.73 2.48 1.78 2.41 1.83 2.36 1.86 2.39 1.89 2.57 1.91 2.85 1.93 3.08 1.98 3.13 2.03 2.89 2.11 2.47 2.18 2.06 2.23 1.88 2.24 1.91 2.24 2.02 2.29 2.2 2.45 2.83 2.8" filter="url(#a)"/><path d="m25.54-69.51 1.54.79 2.7.95 2.94 1.08 2.45 1.15 1.72 1.21 1.2 1.27 1.01 1.34 1.14 1.43 1.47 1.48 1.92 1.54 2.45 1.58 2.97 1.62 3.42 1.66 3.67 1.7 3.69 1.75 3.48 1.8 3.12 1.85 2.7 1.89 2.35 1.89 2.24 1.85 2.48 1.82 2.67 1.84 1.11 1.81" filter="url(#a)"/><path d="m25.54-69.51 1.29.8 2.05.98 2.88 1.09 3.13 1.18 2.68 1.24 1.96 1.3 1.41 1.38 1.22 1.45 1.36 1.51 1.63 1.57 1.95 1.62 2.26 1.66 2.55 1.7 2.89 1.75 3.26 1.79 3.66 1.83 3.95 1.87 4.07 1.9 3.98 1.94 3.67 1.96 3.26 2.01 2.83 2.06 2.51 2.12 2.35 2.18 2.33 2.23 2.48 2.27 2.76 2.29 3.13 2.32 3.41 2.32 3.39 2.27 3.08 2.15 3 1.93 3.6 1.77 3.72 1.92" filter="url(#a)"/><path d="m25.61-69.57 1.9.49 3.07.95 2.36 1.11 1.45 1.19 1.17 1.22 1.45 1.24 1.89 1.29 2.25 1.38 2.4 1.48 2.48 1.55 2.62 1.58 2.91 1.56 3.28 1.55 3.51 1.53 3.45 1.54 3.16 1.57 2.91 1.62 3.12 1.65 3.72 1.67 4.05 1.7 3.44 1.77 3.66 1.65" filter="url(#a)"/><path d="m19.82-72.48 7.2 1.22 1.72 1.09 1.06 1.03 1.6 1.07 2.21 1.13 2.64 1.18 2.96 1.24 3.25 1.29 3.52 1.35 3.68 1.42 3.63 1.49 3.37 1.55 2.97 1.57 2.56 1.59 2.17 1.58 1.89 1.6 1.67 1.63 1.52 1.65 1.45 1.71 1.47 1.78 1.6 1.85 1.84 1.94 2.15 2.03 2.47 2.1 2.78 2.15 3.08 2.17 3.43 2.16 3.85 2.14 4.27 2.12 4.55 2.11 4.57 2.14 4.33 2.2 3.98 2.29 3.72 2.41 3.41 2.57 2.64 2.64 2.17 2.25" filter="url(#a)"/><path d="m17.97-72.91 2.01.7 2.6.99 3.18 1.02 3.4 1.04 3.12 1.07 2.53 1.12 1.98 1.18 1.74 1.23 1.81 1.28 2.04 1.35 2.17 1.41 2.07 1.49 1.79 1.54 1.45 1.56 1.22 1.58 1.22 1.59 1.39 1.59 1.71 1.61 2.04 1.65 2.31 1.69 2.53 1.76 2.68 1.84 2.8 1.93 2.87 2.02 2.91 2.1 2.84 2.17 2.72 2.2 2.61 2.17 2.58 2.13 2.7 2.08 2.88 2.06 2.92 2.1 2.65 2.17 2.02 2.18L99-15" filter="url(#a)"/><path d="m17.97-72.91 3.56.7 1.91.99 1.64 1.03 1.71 1.03 1.92 1.08 2.14 1.13 2.36 1.18 2.62 1.23 2.97 1.29 3.44 1.35 3.99 1.42L50.68-59l4.71 1.54L60-55.89l4.13 1.58 3.34 1.59 2.42 1.6 1.57 1.62 1.01 1.66.83 1.7 1.04 1.77 1.59 1.85 2.33 1.94 3.12 2.02 3.78 2.1 4.15 2.16 4.13 2.17 3.75 2.17 3.14 2.14 2.57 2.11 2.31 2.09 2.47 2.13 2.96 2.18 3.42 2.27 3.4 2.41 2.95 2.67 3.94 3.21" filter="url(#a)"/><path d="m17.85-73.29 1.4.65 1.9.95 1.9 1 1.77.97 1.66.97 1.61 1.02 1.57 1.07 1.55 1.15 1.51 1.21 1.49 1.29 1.47 1.35 1.46 1.43 1.43 1.49 1.41 1.55 1.38 1.6 1.35 1.64 1.3 1.69 1.27 1.73 1.24 1.78 1.21 1.83 1.16 1.86 1.13 1.89 1.06 1.91 1.01 1.94.94 1.98.88 2.03.85 2.12.82 2.19.79 2.24.76 2.26.69 2.21.59 2.2.44 2.33" filter="url(#a)"/><path d="m17.85-73.29 1.54.64 2.46.96 2.76.99 2.69.96 2.58.97 2.58 1.01 2.59 1.06 2.52 1.14 2.33 1.2 2.17 1.27 2.2 1.35 2.46 1.41 2.83 1.49 3.13 1.53 3.21 1.59 3.13 1.63 3.03 1.68 3.1 1.71 3.4 1.77 3.82 1.81 4.14 1.86 4.16 1.89 3.85 1.9 3.33 1.9 2.79 1.9 2.5 1.97 2.92 2.07 4.35 2.17 5.37 2.02" filter="url(#a)"/><path d="m17.7-73.44 1.45.55 3.12.75 3.74.91 3.48.98 2.77 1.02 1.99 1.06 1.47 1.11 1.41 1.16 1.84 1.2 2.58 1.25 3.44 1.32 4.21 1.39 4.73 1.47 4.95 1.53 4.81 1.56 4.35 1.57 3.69 1.56 3.06 1.55 2.7 1.57 2.75 1.59 3.22 1.63 3.94 1.67 4.59 1.71 4.84 1.8 4.76 1.97 5.15 2.36 6.1 3.31M16.61-73.84l.8.44.82.58.81.76.99.89 1.34.96 1.69 1.02 1.87 1.08 1.86 1.12 1.72 1.17 1.47 1.23 1.15 1.28.83 1.34.5 1.41.19 1.48-.06 1.53-.27 1.56-.39 1.57-.44 1.59-.41 1.59-.33 1.61-.24 1.65-.14 1.69-.13 1.76-.18 1.83-.35 1.92-.64 2.02-1.02 2.11-1.42 2.17-1.68 2.21-1.61 2.19-1.18 2.13-.55 2.06-.14 2.03-.32 2.11-1.13 2.19-2.7 1.9" filter="url(#a)"/><path d="m9.25-75.79 2.64.41 2.68.6 3.06.62 3.41.63 3.61.66 3.54.74 3.27.83 2.85.9 2.46.97 2.2 1.02 2.15 1.08 2.34 1.12 2.71 1.17 3.21 1.2 3.73 1.24 4.27 1.31 4.73 1.44 5.15 1.59 5.64 1.67 6.33 1.57 6.58 1.26 3.06.9" filter="url(#a)"/><path d="m9.25-75.79 1.63.42 2.25.6 2.22.63 1.96.64 1.79.68 1.77.75 1.8.84 1.81.92 1.81.98 1.81 1.04 1.81 1.09 1.83 1.14 1.84 1.19 1.81 1.24 1.78 1.29 1.75 1.37 1.72 1.46 1.71 1.53 1.71 1.57 1.67 1.57 1.63 1.55 1.6 1.53 1.61 1.54 1.69 1.57L54.02-47l1.72 1.79 1.08 1.51" filter="url(#a)"/><path d="m8.89-75.92 1.97.46 1.71.43 1.73.47 1.85.55 1.99.65 2.12.74 2.2.83 2.27.89 2.31.93 2.39.95 2.56.99L34.82-67l3.17 1.08 3.53 1.15 3.79 1.21 3.91 1.29 3.88 1.37 3.81 1.45 3.77 1.5 3.76 1.54 3.64 1.56 3.78 1.67 5.62 2.15" filter="url(#a)"/><path d="m8.48-75.85 1.62.17 3.06.39 3.48.54 3.12.6 2.54.64 2.14.68 2.05.75 2.24.84 2.5.91 2.63.97 2.66 1.04 2.65 1.08 2.78 1.14 3.1 1.18 3.5 1.23 3.84 1.29 3.99 1.37 3.95 1.45 3.84 1.53 3.84 1.58 4.04 1.58 4.42 1.54 4.83 1.53 5.07 1.52 5.09 1.53 5.24 1.67 5.16 2.59" filter="url(#a)"/><path d="m4.25-76.33 2.04.22 2.36.31 2.2.37 2.08.44 2.06.49 2.03.58 1.96.67 1.86.75 1.77.84 1.7.89 1.68.94 1.7.98 1.79 1.02 1.94 1.08 2.12 1.14 2.32 1.2 2.48 1.27 2.55 1.34 2.51 1.41 2.37 1.47 2.15 1.53 1.95 1.59 1.82 1.63 1.78 1.68 1.85 1.73 1.98 1.77 2.09 1.82 2.14 1.86 2.1 1.9 2.01 1.91 1.89 1.92 1.83 1.95 1.92 2 2.15 2.11 2.36 2.25 2.23 2.44 2.46 2.91" filter="url(#a)"/><path d="m4.25-76.33 1.9.22 2.02.3 1.77.37 1.52.43 1.32.49 1.19.56 1.13.65 1.14.75 1.2.82 1.23.88 1.22.93 1.1.96.9 1.01.63 1.05.38 1.11.23 1.17.27 1.24.48 1.31.81 1.38 1.12 1.46 1.26 1.51 1.11 1.57.65 1.61.05 1.65-.51 1.68-.85 1.72-.86 1.73-.63 1.84-.72 2.32" filter="url(#a)"/><path d="m.11-76.49 2.49.14 1.75.12 1.62.2 1.54.28 1.48.35 1.48.42 1.54.5 1.61.57 1.67.65 1.65.74 1.55.81 1.39.88 1.22.92 1.1.97 1.05 1.02 1.06 1.06 1.12 1.12 1.18 1.18 1.2 1.26 1.16 1.32 1.05 1.39.89 1.46.71 1.52.57 1.58.47 1.62.46 1.66.49 1.71.49 1.75.36 1.81.06 1.88-.27 1.95-.44 1.95-.39 1.81-.15 1.42" filter="url(#a)"/></g><path fill="none" stroke="#000" stroke-linejoin="round" stroke-width="3" d="M-6.85 25.41Q9.18 35.655 1.165-4.752" filter="url(#a)"/><path fill="#66C" stroke="#000" stroke-linejoin="round" stroke-width="3" d="m-39.59 23.14.96.86.97.83.97.8.97.77.98.74.99.71.98.69.99.65.99.63 1 .61.99.58 1 .55 1 .53 1 .5 1.01.48 1 .45 1 .44 1.01.41 1 .39 1.01.36 1 .35 1 .32 1.01.31 1 .28.99.27 1 .25 1 .23.99.21.99.19.98.18.99.16.98.15.97.13.97.11.97.11.96.08.96.08.95.06.95.05.94.04.93.03.93.01.92.01.91-.01.91-.01.9-.02.89-.03.88-.04.88-.05.86-.05.86-.06.85-.07.84-.07.83-.07.82-.08.8-.09.8-.09.79-.09.77-.09.77-.1.75-.09.74-.1.73-.1.72-.1.7-.1.69-.09.68-.1.66-.09.65-.1.63-.09.62-.08.61-.08.59-.08.57-.07.56-.07.54-.06.53-.06.51-.05.5-.04.47-.03.46-.03.44-.01.43-.01h.4l.39.01.37.03.35.03.33.05.31.05.29.08.27.08.25.1.23.11.21.12.19.14.17.16.14.17.12.19.1.21-.74-.18-.75-.18-.74-.16-.75-.15-.74-.14-.75-.13-.74-.13-.74-.12-.75-.1-.74-.1-.75-.1-.74-.08-.75-.08-.74-.07-.75-.07-.74-.06-.75-.05-.74-.05-.75-.04-.74-.04-.74-.03-.75-.03-.74-.02-.75-.02-.74-.02-.75-.02-.74-.01-.75-.01h-.74l-.75-.01H3.6l-.75-.01h-.74l-.75-.01-.74-.02-.74-.01-.75-.02-.74-.02-.75-.03-.74-.03-.75-.03-.74-.04-.75-.05-.74-.05-.75-.05-.74-.06-.75-.07-.74-.07-.74-.08-.75-.09-.74-.1-.75-.1-.74-.11-.75-.12-.74-.13-.75-.13-.74-.15-.75-.15-.74-.17-.75-.17-.74-.19-.75-.19-.74-.21-.74-.22-.75-.23-.74-.24-.75-.25-.74-.27-.75-.27-.74-.29-.75-.31-.74-.32-.75-.33-.74-.34-.75-.36-.74-.38-.74-.39-.75-.4-.74-.42-.75-.44-.74-.45-.75-.47-.74-.48-.75-.51-.74-.52-.75-.53-.74-.56-.75-.57" filter="url(#a)"/></svg>