<svg xmlns="http://www.w3.org/2000/svg" width="500" height="500" viewBox="-100 -100 200 200"><defs><clipPath id="c"><path d="m21.55 1.39-.03-.12-.07-.12-.1-.12-.12-.12-.15-.13-.18-.13-.2-.12-.23-.13-.25-.13-.27-.13-.29-.12-.32-.13-.33-.12-.36-.13-.37-.12-.41-.16-.43-.15-.46-.15-.47-.15-.5-.14-.53-.14-.54-.14-.56-.13-.58-.12-.6-.12-.61-.11-.63-.11-.65-.1-.66-.09-.67-.08-.68-.08-.7-.06-.7-.06-.71-.05-.72-.05-.72-.03-.73-.03-.73-.02-.74-.01-.74-.01-.73.01-.74.01-.73.02-.73.03-.73.03-.72.04-.72.05-.71.05-.7.06-.7.06-.68.07-.68.08-.66.08-.66.08-.64.09-.62.09-.62.1-.6.09-.59.1-.57.1-.55.11-.55.1-.52.1-.51.11-.5.1-.48.1-.47.11-.45.1-.44.11-.43.1-.41.11-.4.1-.38.1-.37.11-.36.1-.34.1-.33.1-.31.1-.29.1-2.2 1.86.33.01h.34l.35.01h.71l.38.01h.37l.39.01h.79l.41.01.41.01h.42l.43.01.43.01h.45l.45.01.46.01.47.01.47.01.48.01.49.01.5.01.5.01.51.02.52.01.52.02.52.02.53.02.54.02.54.02.54.02.55.02.56.02.56.03.56.02.57.03.57.02.58.03.58.02.58.03.59.02.6.03.6.03.6.02.61.02.61.03.62.02.63.02.63.02.63.02.64.01.64.01.65.02h.65l.66.01H9.7l.67-.01.67-.01.67-.02.67-.01.67-.03.53-.01.53-.02.52-.02.51-.03.5-.02.5-.03.48-.04.47-.03.46-.05.44-.04.43-.05.41-.05.4-.06.37-.06.35-.06"/></clipPath><clipPath id="b"><path d="m-24.67 1.37.06-.09.1-.1.13-.1.17-.09.19-.1.23-.11.25-.1.28-.1.31-.1.34-.11.36-.1.38-.11.41-.1.43-.1.45-.11.48-.12.51-.13.53-.12.57-.12.59-.12.62-.12.64-.12.66-.11.68-.11.7-.1.72-.1.74-.09.75-.09.76-.09.78-.08.78-.07.79-.07.79-.06.8-.05.8-.05.81-.04.8-.03.8-.03.8-.02.79-.02.78-.01h.78l.76.01.76.01.75.02.73.02.72.03.7.03.69.04.67.05.65.05.64.05.61.06.6.07.58.06.56.07.54.08.52.07.5.08.47.08.46.08.44.08.42.08.4.09.38.08.36.08.35.09.33.08.31.08.29.09.27.08.26.09.24.08.22.08.21.09.19.08.17.08.15.08.14.07 1.74 1.62h-4.99l-.36.01h-.37l-.37.01h-.37l-.38.01h-.38l-.39.01-.38.01-.39.01-.39.01-.4.02-.39.01-.4.02-.4.01-.4.02-.4.02-.41.02-.41.02-.42.03-.42.02-.42.03-.43.02-.44.03-.45.03-.45.03-.46.03-.48.03-.48.03-.5.03-.5.03-.52.03-.54.02-.55.03-.57.03-.58.02-.6.03-.62.02-.63.02-.66.02-.67.02-.7.01-.71.01-.74.01-.75.01h-2.36l-.83-.01-.83-.01h-.62l-.61-.01h-.62l-.61-.01-.61-.01-.62-.01-.6-.02-.6-.02-.59-.02-.58-.02-.57-.03-.56-.03-.54-.03-.52-.03-.5-.04"/></clipPath><filter id="a"><feTurbulence baseFrequency=".05" numOctaves="3" result="noise" type="noise"/><feDisplacementMap in="SourceGraphic" in2="noise" scale="2"/></filter></defs><rect width="100%" height="100%" x="-100" y="-100" fill="#E8F2A6"/><path fill="#3920DF" stroke="#000" stroke-linejoin="round" stroke-width="1.667" d="m58.44 1.2-.05 1.19.15-1.28-.07 4.52-.14.71.15-1.16-.26 2.65-.02 2.92-.32 1.06.02.36-.39 3.87.34-1.56-.32 2.4-.31 1.37.23-.24-.67 3.29-.02.95-.23 1.73-.63 2.5.67-2.58-1.15 5.32.2-.81-.07-.05-1.28 5.57.18-.43-.97 3.75-.02-.97-.21 1.17-.09.75-.23.84-.89 2.57-.18.56-.28.46-.63 1.61-.45 1.38-.9 2.24.03.21-1.02 2.42.07-.23-.98 1.88-.47 1.4-.3.39-.57.87-.92 2.49-.81 1.03.03.28-.87 1.42-.73 1.16-.74 1.12-.89 1.28-.02.24-1.2 2.12-.05-.62-.53 1.37-2.12 2.62.65-.51-.74.71-1.51 2-.45.57.63-.86-1.37 1.7-1.58 1.56-1.14 1.2.17-.06-1.5 1.39.58-.86-1.65 1.99-.16-.25L28 79.2h-.19l-2.01 1.67.91-.76-1.78 1.64L23 83.02l.09-.09-.38.35-.95.34-.39.56-.35-.01-3.18 1.7.29-.14-1.06.83-.58.28-.98.05-.5.58-1.94.38.3.13-2.11.67-1.21.53-.01-.33-1.53.63H7.15l-.75.34 1.12-.32-1.57.54-1.23-.1.16.09-1.64.27-.54-.12-.62.12h-3.17l.34.21-1.54-.29-.27.09-1.04-.07.11-.01-1.41-.11-1.79-.3-.56-.1-.24-.12-2.22-.59-1.49-.27.35.2.11-.34-1.77-.17-2.04-1.03.62.18-2.27-.85-.21-.04-.67-.49-1.73-.6-.69-.46-.1.22-1.42-1.03-.44-.16-.53-.23-.25-.51-2.94-1.66-.62-.66.38.03-1.49-.88-.92-1.06-.25-.11-.06.1-1.72-1.25-.51-.49.11.15-1.87-2.22-1.1-1.09-.92-1.12-.79-.83-.55-.19.16-.27-1.27-1.54-1.66-1.7-.14-.33-1.17-1.56-.55-.95-.14-.21-.67-1.02-.14-.02-1.21-1.9-.34-.29-1.1-2.41-.55-.72-.56-.86-.4-1.03-.42-1-1.37-2.25.81 1.07-.6-1.04-.85-2.03.12.44-1.12-2.32-.75-2.02-.29-.74-.49-.92-.48-1.2-.88-2.09-.46-1.35-.79-2.65-.29-.83.04-.77.19.89-.64-2.13-.45-1.6-.49-1.32.13.57-.39-2.39-.29-.83-.27-1.2-.68-3.61-.25-.59-.32-2-.38-2.5.01.07-.14.1-.25-2.64-.24-1.52-.35-2.28.21.78-.27-2.82-.15-1.27-.17-2.48-.05-1.27-.1-1.48-.07-.34-.1-1.5-.05-2.75.01 1.07.13-2.66.01-1.65v-.36l.1-2.97-.02.09-.08-2.79.16-.59-.1.59.4-5.18.2-.06.17-2.59-.24 1.57.28-1.85.5-4.86.12.16.28-1.5.09-1.69.39-2.08.09.83.1-1.38.24-.91-.02-.06.66-3.45.94-3.03-.03-.46.08.3.53-1.87.38-2.26.14.35 1.14-3.48-.16-.16-.03.07 1.17-2.54.38-1.15-.41.7.84-2.4 1.18-2.9.03.26.72-1.83.15-.39 1.35-2.69.3-.51.21-.77.65-.99-.16-.18.8-1.32 1.34-2.16.67-1.14.05-.12 1.16-2.04-.06.04 1.44-1.85-.31.3.91-1.33.31-.65 2.02-2.44.51-.9.96-.93-.78.87 1.36-1.68.87-.89.8-1.12.71-.58-.17.36 1.91-1.89 1.65-1.68-.43.24 1.04-.76 1.24-1.05.71-.61-.59.59 1.42-1.45 2.04-1.56-.34.67-.17-.12 2.83-2.09-.56.44 1.58-.84-.07.01 2.05-1.39 1.03-.31.42.05 1.39-.89.67-.28 1.51-.52-.11.16.89-.33 1.52-.79 1.05-.23.81-.34.91-.19.08-.04 1.34-.22.36.18 1.48-.5-.36-.07 3.48-.37-.39.15v.1l1.99-.32H.26l2.03.34-.68-.22.31.25 2.29-.06-.17.33.92-.22 1.36.37 1.75.31-.81-.24 1.6.28 2.6.75.16.34.58-.06.89.19.04.39.67.04 1.22.35 1.47.8.13-.09 1.33.54 1.56.64.89.9-.13.12 1.63.84 1.11.47-.45-.02.91.36 1.68 1.32-.02.02 1.92 1.62-.06-.35.92.78.46.39 1.78 1.63 1.12 1.1.96 1 1.19.93.21.6-.74-.79 1.74 1.33.46 1.1.91.81 1.08 1.19.24.42.15.62 1.78 1.9.01.25 1.42 2.16 1.24 1.51-.58-.98 1.42 2.63.3.43.78 1.06-.5-.65 1.26 2.69.37.14.93 2.3-.13-.82.89 2.31.83 1.24.03-.25 1.53 4.15-.09-.27.73 1.68.09-.02.82 1.96.15.61.82 2.48-.09-.64.78 2.34.62 1.66-.07.34.98 2.91.26 1.02.29 1.48.13.77.48 2.12.17.02v.21l.19 1.22.48 1.52.33 1.86.26.82.45 2.34.09.99.05 1.08.6 3.73-.01.18.2 1.88-.14-.45.48 3.55-.05-1.08.08 1.4.03 3.07.13-.9.14 1.68-.12 1.36.2 4.65-.04.58-.03 2.11-.05 1.19" filter="url(#a)"/><path fill="#fff" d="m-24.67 1.37.06-.09.1-.1.13-.1.17-.09.19-.1.23-.11.25-.1.28-.1.31-.1.34-.11.36-.1.38-.11.41-.1.43-.1.45-.11.48-.12.51-.13.53-.12.57-.12.59-.12.62-.12.64-.12.66-.11.68-.11.7-.1.72-.1.74-.09.75-.09.76-.09.78-.08.78-.07.79-.07.79-.06.8-.05.8-.05.81-.04.8-.03.8-.03.8-.02.79-.02.78-.01h.78l.76.01.76.01.75.02.73.02.72.03.7.03.69.04.67.05.65.05.64.05.61.06.6.07.58.06.56.07.54.08.52.07.5.08.47.08.46.08.44.08.42.08.4.09.38.08.36.08.35.09.33.08.31.08.29.09.27.08.26.09.24.08.22.08.21.09.19.08.17.08.15.08.14.07 1.74 1.62h-4.99l-.36.01h-.37l-.37.01h-.37l-.38.01h-.38l-.39.01-.38.01-.39.01-.39.01-.4.02-.39.01-.4.02-.4.01-.4.02-.4.02-.41.02-.41.02-.42.03-.42.02-.42.03-.43.02-.44.03-.45.03-.45.03-.46.03-.48.03-.48.03-.5.03-.5.03-.52.03-.54.02-.55.03-.57.03-.58.02-.6.03-.62.02-.63.02-.66.02-.67.02-.7.01-.71.01-.74.01-.75.01h-2.36l-.83-.01-.83-.01h-.62l-.61-.01h-.62l-.61-.01-.61-.01-.62-.01-.6-.02-.6-.02-.59-.02-.58-.02-.57-.03-.56-.03-.54-.03-.52-.03-.5-.04" filter="url(#a)" transform="translate(27.6 -28.57)"/><path fill="#fff" d="m21.55 1.39-.03-.12-.07-.12-.1-.12-.12-.12-.15-.13-.18-.13-.2-.12-.23-.13-.25-.13-.27-.13-.29-.12-.32-.13-.33-.12-.36-.13-.37-.12-.41-.16-.43-.15-.46-.15-.47-.15-.5-.14-.53-.14-.54-.14-.56-.13-.58-.12-.6-.12-.61-.11-.63-.11-.65-.1-.66-.09-.67-.08-.68-.08-.7-.06-.7-.06-.71-.05-.72-.05-.72-.03-.73-.03-.73-.02-.74-.01-.74-.01-.73.01-.74.01-.73.02-.73.03-.73.03-.72.04-.72.05-.71.05-.7.06-.7.06-.68.07-.68.08-.66.08-.66.08-.64.09-.62.09-.62.1-.6.09-.59.1-.57.1-.55.11-.55.1-.52.1-.51.11-.5.1-.48.1-.47.11-.45.1-.44.11-.43.1-.41.11-.4.1-.38.1-.37.11-.36.1-.34.1-.33.1-.31.1-.29.1-2.2 1.86.33.01h.34l.35.01h.71l.38.01h.37l.39.01h.79l.41.01.41.01h.42l.43.01.43.01h.45l.45.01.46.01.47.01.47.01.48.01.49.01.5.01.5.01.51.02.52.01.52.02.52.02.53.02.54.02.54.02.54.02.55.02.56.02.56.03.56.02.57.03.57.02.58.03.58.02.58.03.59.02.6.03.6.03.6.02.61.02.61.03.62.02.63.02.63.02.63.02.64.01.64.01.65.02h.65l.66.01H9.7l.67-.01.67-.01.67-.02.67-.01.67-.03.53-.01.53-.02.52-.02.51-.03.5-.02.5-.03.48-.04.47-.03.46-.05.44-.04.43-.05.41-.05.4-.06.37-.06.35-.06" filter="url(#a)" transform="translate(-33.35 -25.86)"/><g fill="none" stroke="#000" transform="translate(27.6 -28.57)"><path stroke-linejoin="round" stroke-width="1.667" d="m-23.25 2.09-.33-.05-.28-.06-.24-.06-.2-.07-.16-.07-.12-.08-.08-.07-.04-.09-.01-.08.04-.09.06-.09.1-.1.13-.1.17-.09.19-.1.23-.11.25-.1.28-.1.31-.1.34-.11.36-.1.38-.11.41-.1.43-.1.45-.11.48-.12.51-.13.53-.12.57-.12.59-.12.62-.12.64-.12.66-.11.68-.11.7-.1.72-.1.74-.09.75-.09.76-.09.78-.08.78-.07.79-.07.79-.06.8-.05.8-.05.81-.04.8-.03.8-.03.8-.02.79-.02.78-.01h.78l.76.01.76.01.75.02.73.02.72.03.7.03.69.04.67.05.65.05.64.05.61.06.6.07.58.06.56.07.54.08.52.07.5.08.47.08.46.08.44.08.42.08.4.09.38.08.36.08.35.09.33.08.31.08.29.09.27.08.26.09.24.08.22.08.21.09.19.08.17.08.15.08.14.07.13.08.1.07.1.08.07.07.06.07.05.07.04.06.02.07v.12" filter="url(#a)"/><path stroke-linejoin="round" stroke-width="2.222" d="m-24.78 1.86.12.06.17.06.22.06.27.05.32.06.35.05.39.04.42.05.45.04.48.04.5.04.52.03.54.03.56.03.57.03.58.02.59.02.6.02.6.02.62.01.61.01.61.01h.62l.61.01h.62l.83.01.83.01h2.36l.75-.01.74-.01.71-.01.7-.01.67-.02.66-.02.63-.02.62-.02.6-.03.58-.02.57-.03.55-.03.54-.02.52-.03.5-.03.5-.03.48-.03.48-.03.46-.03.45-.03.45-.03.44-.03.43-.02.42-.03.42-.02.42-.03.41-.02.41-.02.4-.02.4-.02.4-.01.4-.02.39-.01.4-.02.39-.01.39-.01.38-.01.39-.01h.38l.38-.01h.37l.37-.01h.37l.36-.01h6.93l.26-.01h.48" filter="url(#a)"/><circle cx="-12.716" cy="-.367" r="3.116" clip-path="url(#b)" filter="url(#a)"/><circle cx="-12.886" cy=".918" r="3.938" clip-path="url(#b)" filter="url(#a)"/><circle cx="-11.166" cy=".443" r="3.408" clip-path="url(#b)" filter="url(#a)"/><circle cx="-11.136" cy=".698" r="4.958" clip-path="url(#b)" filter="url(#a)"/><circle cx="-11.366" cy="-1.122" r="4.802" clip-path="url(#b)" filter="url(#a)"/><circle cx="-14.226" cy="-1.487" r="3.952" clip-path="url(#b)" filter="url(#a)"/><circle cx="-10.861" cy="-1.107" r="3.768" clip-path="url(#b)" filter="url(#a)"/><circle cx="-12.291" cy=".118" r="4.634" clip-path="url(#b)" filter="url(#a)"/><circle cx="-14.296" cy="-.027" r="4.412" clip-path="url(#b)" filter="url(#a)"/><circle cx="-9.976" cy="-.842" r="4.902" clip-path="url(#b)" filter="url(#a)"/></g><g fill="none" stroke="#000" transform="translate(-33.35 -25.86)"><path stroke-linejoin="round" stroke-width="2.222" d="m20.08 2.32.31-.07.27-.07.24-.08.2-.09.16-.09.13-.1.09-.1.06-.11.02-.11-.01-.11-.03-.12-.07-.12-.1-.12-.12-.12-.15-.13-.18-.13-.2-.12-.23-.13-.25-.13-.27-.13-.29-.12-.32-.13-.33-.12-.36-.13-.37-.12-.41-.16-.43-.15-.46-.15-.47-.15-.5-.14-.53-.14-.54-.14-.56-.13-.58-.12-.6-.12-.61-.11-.63-.11-.65-.1-.66-.09-.67-.08-.68-.08-.7-.06-.7-.06-.71-.05-.72-.05-.72-.03-.73-.03-.73-.02-.74-.01-.74-.01-.73.01-.74.01-.73.02-.73.03-.73.03-.72.04-.72.05-.71.05-.7.06-.7.06-.68.07-.68.08-.66.08-.66.08-.64.09-.62.09-.62.1-.6.09-.59.1-.57.1-.55.11-.55.1-.52.1-.51.11-.5.1-.48.1-.47.11-.45.1-.44.11-.43.1-.41.11-.4.1-.38.1-.37.11-.36.1-.34.1-.33.1-.31.1-.29.1-.29.09-.27.1-.25.09-.24.09-.23.09-.22.08-.2.09-.18.08-.18.08-.16.08" filter="url(#a)"/><path stroke-linejoin="round" stroke-width="2.222" d="m21.82 1.56-.02.11-.06.11-.11.1-.14.09-.18.09-.21.09-.25.08-.27.08-.3.07-.33.07-.35.06-.37.06-.4.06-.41.05-.43.05-.44.04-.46.05-.47.03-.48.04-.5.03-.5.02-.51.03-.52.02-.53.02-.53.01-.67.03-.67.01-.67.02-.67.01-.67.01H7.71l-.66-.01H6.4l-.65-.02-.64-.01-.64-.01-.63-.02-.63-.02-.63-.02-.62-.02-.61-.03-.61-.02-.6-.02-.6-.03-.6-.03-.59-.02-.58-.03-.58-.02-.58-.03-.57-.02-.57-.03-.56-.02-.56-.03-.56-.02-.55-.02-.54-.02-.54-.02-.54-.02-.53-.02-.52-.02-.52-.02-.52-.01-.51-.02-.5-.01-.5-.01-.49-.01-.48-.01-.47-.01-.47-.01-.46-.01-.45-.01h-.45l-.43-.01-.43-.01h-.42l-.41-.01-.41-.01h-.79l-.39-.01h-.37l-.38-.01h-.71l-.35-.01h-.34l-.33-.01h-.63l-.3-.01h-.3l-.29-.01h-.54l-.27-.01h-.25l-.24-.01" filter="url(#a)"/><circle cx="14.495" cy="3.329" r="3.688" clip-path="url(#c)" filter="url(#a)"/><circle cx="16.73" cy="2.759" r="3.424" clip-path="url(#c)" filter="url(#a)"/><circle cx="16.605" cy="-.776" r="4.784" clip-path="url(#c)" filter="url(#a)"/><circle cx="16.485" cy=".319" r="3.662" clip-path="url(#c)" filter="url(#a)"/><circle cx="15.57" cy="4.074" r="3.482" clip-path="url(#c)" filter="url(#a)"/><circle cx="12.86" cy="3.719" r="3.786" clip-path="url(#c)" filter="url(#a)"/><circle cx="14.76" cy="2.259" r="4.102" clip-path="url(#c)" filter="url(#a)"/><circle cx="16.605" cy=".029" r="3.26" clip-path="url(#c)" filter="url(#a)"/><circle cx="13.95" cy="-.121" r="3.992" clip-path="url(#c)" filter="url(#a)"/><circle cx="13.215" cy=".044" r="4.442" clip-path="url(#c)" filter="url(#a)"/></g><g fill="none" stroke="#862213" stroke-linejoin="round" stroke-width="2"><path d="m1.61-90.43.7.17.78.13.56.14.36.18.16.22-.09.28-.39.34-.72.42-1.11.49-1.58.56-2.09.62-2.63.67-3.14.74-3.64.86-4.1.95-4.41.88" filter="url(#a)"/><path d="m-2.76-90.23 1.65-.17H.27l1.1.07.89.08.78.08.71.07.62.07.47.06.26.03v.02l-.28-.02-.58-.04-.96-.09-1.61-.18m-28.7 10.2.15-.1.86-.71.94-.71.86-.61.79-.56.74-.51.67-.44.56-.36.44-.25.28-.12.08.03-.18.2-.47.4-.8.62-1.14.83-1.44 1.01-1.81 1.24" filter="url(#a)"/><path d="m.26-90.55 1.09.2.4.16.31.21.27.31.18.39.03.5-.13.61-.34.73-.57.87-.83 1.02-1.12 1.17-1.44 1.3-1.79 1.43-2.14 1.55-2.47 1.71-2.8 1.87-3.13 2.07-3.47 2.3-3.85 2.53-4.24 2.75-4.63 2.91-4.98 2.99-5.36 3.04" filter="url(#a)"/><path d="m-17.39-86.05 1.26-.63 1.3-.38 1.4-.25 1.56-.19 1.74-.18 1.9-.18 2-.15 2.02-.11 1.99-.07 1.95-.05 1.89-.03 1.82-.04 1.75-.03 1.66-.04 1.54-.03h1.43l1.31.02m14.02 6.86.43.39.63.51.51.46.42.47.35.5.23.52.05.44-.23.31-.56.12-.89-.05-1.22-.2-1.51-.31-1.8-.4-2.1-.49-2.44-.61-2.81-.75-3.16-.91-3.51-1.08-3.86-1.27-4.24-1.47-4.67-1.68" filter="url(#a)"/><path d="m8.07-89.45.08-.02 1.02.26 1.17.33.97.29.72.23.53.18.37.13.21.1.02.04-.23-.02-.53-.1-.88-.17-1.29-.28-1.76-.39-2.15-.56m-27.14 5.02.63-.36 1.27-.59 1.41-.55 1.45-.49 1.47-.46 1.49-.45 1.46-.41 1.44-.4 1.41-.39 1.35-.37 1.27-.35 1.11-.31.9-.26.62-.19.32-.14.12-.09.19-.09m40.38 21.18 1.09 1.3.51.87.14.58-.26.22-.72-.16-1.2-.54-1.69-.92-2.2-1.31-2.72-1.7-3.26-2.08-3.82-2.48-4.42-2.95-5.09-3.48-5.84-4.02m34.77 24.14.29.46.12.43-.02.45-.15.44-.32.35-.54.2-.79.03-1.05-.14-1.35-.3-1.65-.49-1.98-.72-2.35-.99-2.73-1.28-3.12-1.58-3.49-1.88-3.87-2.17-4.24-2.47-4.65-2.78-5.08-3.07-5.6-3.36-6.23-3.62" filter="url(#a)"/><path d="m34.63-73.27.5.94.41.78.18.66-.09.58-.33.54-.57.51-.84.44-1.15.32-1.53.17-1.93.01-2.36-.16-2.77-.32-3.2-.47-3.62-.59-4.03-.71-4.44-.84L4-72.4l-5.31-1.14-5.81-1.28-6.36-1.39-6.84-1.56" filter="url(#a)"/><path d="m-17.39-86.05 1.35-.53 1.57-.08 1.87.24 2.21.48 2.58.64 2.93.81 3.22.97 3.46 1.16 3.64 1.33 3.83 1.51 4 1.63 4.17 1.73 4.29 1.78 4.38 1.79 4.36 1.75 4.29 1.65" filter="url(#a)"/><path d="m33.63-73.81-.08-.13.34.49.23.58-.04.49-.36.34-.7.2-1.04.07-1.36-.05-1.73-.21-2.12-.4-2.55-.65-3.05-.9-3.56-1.16-4.11-1.4-4.68-1.63-5.23-1.87-5.72-2.12-6.18-2.42m-12.58.18 1.58-.95 1.09-.52.88-.38.74-.31.61-.23.45-.14.27-.03.09.08-.11.19-.36.33-.66.51-.99.7-1.32.9-1.69 1.09-2.05 1.3-2.42 1.5-2.84 1.75" filter="url(#a)"/><path d="m33.42-74.41.09.3.33.39.6.65.71.81.71.82.64.79.56.72.49.66.4.58.3.48.18.33.01.15-.2-.11-.46-.39-.74-.7-1.02-1.01-1.28-1.3-1.49-1.53-1.7-1.75-1.93-2.03-2.23-2.4m22.39 31.28.39 1.44-.21.98-.7.69-1.18.48-1.69.31-2.21.16-2.76-.03-3.33-.26-3.93-.54-4.54-.86-5.16-1.21-5.78-1.55-6.4-1.89-7.03-2.18-7.7-2.36-8.44-2.43-9.21-2.48-9.93-2.66" filter="url(#a)"/><path d="m25.13-81.51 1.23.97.69.52.59.51.59.6.53.64.37.57.14.44-.14.26-.42.09-.68-.05-.89-.16-1.11-.24-1.35-.34-1.62-.45-1.94-.58-2.26-.72-2.61-.88-2.95-1.03-3.33-1.21-3.77-1.42-4.21-1.63-4.57-1.86m-30.4 12.82.54-.39 1.18-1.06 1.24-1.11 1.18-1 1.13-.91 1.11-.85 1.06-.81 1-.77.92-.7.79-.63.62-.49.4-.35.18-.19-.05-.02-.31.16-.76.49" filter="url(#a)"/><path d="m-9.66-89.27.8-.07.99.11 1.27.23 1.54.34 1.77.43 1.98.54 2.12.65 2.24.76 2.34.86 2.41.94 2.46 1.01 2.47 1.05 2.44 1.06 2.39 1.05 2.35 1.02 2.32.99 2.29.97 2.25.96 2.16.93 2.02.87 1.84.74" filter="url(#a)"/><path d="m20.4-84.62.33.3.57.39.39.34.16.3-.03.31-.2.31-.43.28-.7.22-1 .17-1.32.12-1.65.1-2.02.05-2.41-.01-2.87-.14-3.37-.3-3.91-.46-4.46-.61-4.96-.7-5.4-.83m36.35 1.93 1.05.94.49.72.13.67-.21.67-.49.75-.78.86-1.1.96-1.48 1-1.93.99-2.43.96-2.94.92-3.45.95-3.94 1.04-4.42 1.13-4.88 1.23-5.37 1.26-5.87 1.27-6.41 1.3-6.96 1.35-7.51 1.41m80.8 5.96.73 1.7.53 1.13.36.88.16.64-.05.27-.29-.13-.53-.53-.77-.92-1.06-1.34-1.4-1.84-1.8-2.42-2.24-3.04-2.67-3.68-3.03-4.26-3.29-4.76m-55.09-7.11 1.86-1.26 1.28-.62 1.36-.51 1.59-.53 1.78-.55 1.91-.54 1.99-.49 2.02-.46 2.01-.43 1.94-.41 1.84-.39 1.74-.39 1.62-.38 1.47-.35 1.28-.31 1.04-.25.93-.2" filter="url(#a)"/><path d="m-31.24-76.19 1.07-1.09.8-.73.88-.72.93-.74.89-.72.84-.68.77-.62.65-.52.48-.39.27-.21.04-.04-.21.15-.58.42-1.21.93m-7.36 6.49.56-.38 1.2-1.01 1.3-1.02 1.28-.9 1.3-.84 1.33-.79 1.38-.79 1.44-.79 1.47-.79 1.5-.8 1.52-.78 1.51-.76 1.49-.74 1.45-.72 1.38-.68 1.28-.65 1.16-.59 1.02-.53.86-.46.64-.37.41-.27.16-.16.01-.08m11.37-.35.96-.01.88.2.64.27.44.36.26.46.04.55-.26.62-.6.69-.92.76-1.21.86-1.47.96-1.73 1.08-2.01 1.21-2.32 1.35-2.68 1.52-3.09 1.69-3.52 1.86-3.95 1.99-4.37 2.07-4.77 2.14-5.21 2.24-5.7 2.47" filter="url(#a)"/><path d="m-.77-90.55 1.04.08.69.12.32.14.1.18-.08.23-.3.3-.6.37-.96.47-1.35.57-1.79.68-2.26.8-2.76.92-3.33 1.02-3.89 1.05-4.53 1.07m47.46 2.31.76.68.73.77.65.82.43.73.1.55-.29.34-.64.16-.96.02-1.23-.06-1.51-.12-1.81-.19-2.15-.28-2.55-.39-2.95-.51-3.36-.63-3.78-.78-4.22-.96-4.73-1.16-5.29-1.36-5.84-1.55" filter="url(#a)"/><path d="m33.63-73.81-.02-.11.51.53.52.66.37.58.17.45-.04.31-.23.2-.41.07-.64-.09-.91-.29-1.24-.55-1.62-.83-2.03-1.14-2.43-1.44-2.83-1.73-3.23-2.02-3.63-2.29-4.01-2.56-4.47-2.88" filter="url(#a)"/><path d="m16.62-86.7 1.18.54.82.56.41.5.06.43-.28.35-.6.29-.95.26-1.29.24-1.67.24-2.08.22-2.55.19-3.07.16-3.61.12-4.14.1-4.68.07h-11.26" filter="url(#a)"/><path d="m16.49-86.61.42.13.59.43.38.55.01.58-.38.58-.75.55-1.14.56-1.52.58-1.91.62-2.31.68-2.74.73-3.22.77-3.75.82-4.32.91-4.9.99-5.47 1.07-6.02 1.04-6.6.96" filter="url(#a)"/><path d="m-20.82-84.41.65-.33 1.3-.48 1.48-.37 1.58-.26 1.68-.18 1.77-.11 1.87-.05h1.95l2.05.03 2.11.06 2.13.07 2.12.08 2.08.1 2.05.13 2.01.14 2 .16 1.96.16 1.91.14 1.81.13 1.71.13 1.6.15 1.5.19 1.22.13m-12.46-5.3 1.71.41 1.49.46 1.14.4.94.35.87.34.87.35.9.37.94.39.93.4.9.39.82.37.69.34.53.28.34.19.12.07-.12-.05-.37-.17-.62-.28-.86-.38-1.12-.48-1.35-.59-1.51-.74" filter="url(#a)"/><path d="m-2.37-90.48-.03.12.71.06 1.18.06 1.34.11 1.3.15 1.22.17 1.18.18 1.13.18 1.1.17 1.05.16.96.14.85.14.72.12.59.1.42.08.19.03-.18-.07-.68-.21-1.38-.4m38.19 36.23.39.84.53 1.36.41 1.06.27.75.16.53.05.34-.09.16-.22-.06-.37-.32-.55-.59-.73-.89-.94-1.23-1.15-1.6-1.36-2-1.59-2.46-1.87-2.99-2.23-3.62-2.68-4.33-3.23-5.11m-62.31-4.51 1.11-.8 1.16-.78 1.19-.74 1.33-.77 1.5-.84 1.63-.87 1.68-.87 1.68-.86 1.67-.85 1.63-.82 1.56-.77 1.43-.72 1.27-.63 1.07-.54.83-.42.55-.34" filter="url(#a)"/><path d="m-30.02-77.63 1.08-.79 1.07-.72 1.06-.65 1.16-.66 1.31-.69 1.42-.72 1.48-.71 1.52-.71 1.55-.7 1.58-.7 1.58-.68 1.58-.66 1.55-.64 1.49-.59 1.41-.56 1.29-.5 1.11-.45.89-.39.66-.33.48-.27.35-.23-.01-.17m47.75 29.33.82 1.76.3.92-.08.5-.42.22-.72.01-1.04-.2-1.4-.46-1.82-.78-2.26-1.17-2.76-1.59-3.27-2.01-3.79-2.43-4.3-2.84-4.86-3.24-5.46-3.66-6.06-4.1-6.57-4.57" filter="url(#a)"/><path d="m40.68-64.82.73.89.48.71.48.78.42.73.33.61.23.5.15.37.04.23-.09.04-.25-.19-.42-.44-.62-.71-.82-.99-1.03-1.3-1.26-1.66-1.56-2.13-1.95-2.7-2.45-3.35" filter="url(#a)"/><path d="m43.06-61.23.35.62.05.53-.08.59-.31.49-.57.32-.87.14-1.17-.03-1.48-.19-1.84-.37-2.22-.59-2.64-.85-3.07-1.14-3.52-1.44-3.97-1.73-4.42-2-4.9-2.28-5.39-2.56-5.93-2.85-6.49-3.15-7.21-3.39m-6.22-4.68.86-.25.82-.3.83-.35.76-.31.67-.25.57-.19.47-.13.36-.06.2.03.01.14-.2.27-.43.41-.66.54-.87.68-1.11.8-1.37.96-1.69 1.16-2.08 1.38-2.51 1.64-2.91 1.84-3.15 1.86M4.96-90.13l1.25.29.95.19.84.19.82.21.73.23.53.21.27.18.03.14-.18.13-.37.13-.55.13-.76.13-1 .12-1.27.11-1.58.08-1.93.05-2.34.02h-6.14l-3.89.02" filter="url(#a)"/><path d="m4.21-90.24.29.2.88.18 1.12.22 1.19.27 1.21.31 1.23.34 1.18.35 1.07.33.92.29.75.24.6.18.46.14.33.1.18.06h.01l-.18-.05-.37-.11-.59-.19-.83-.28-1.05-.4m19.62 12.72.74.67.31.36.25.32.29.4.26.42.15.38-.03.28-.22.15-.42.03-.62-.11-.83-.27-1.09-.48-1.4-.72-1.76-1-2.16-1.31-2.58-1.6-2.98-1.9-3.37-2.18-3.78-2.43-4.27-2.7" filter="url(#a)"/><path d="m-33.69-74.08.71-.42 1.18-.64 1.62-.87 1.87-.89 2.04-.82 2.19-.73 2.33-.69 2.49-.66 2.63-.66 2.78-.66 2.9-.65 2.99-.63 3.05-.63 3.08-.63 3.06-.64 3-.65 2.9-.65 2.81-.61 2.72-.55" filter="url(#a)"/><path d="m7.26-89.69 1.53.39 1.03.44.36.38-.22.36-.67.38-1.05.44-1.41.53-1.79.63-2.23.73-2.73.82-3.29.93-3.89 1.02-4.53 1.08-5.26 1.16-6.11 1.3m70.49 26.14.37.81.51 1.3.36.97.19.58.04.26-.14-.01-.33-.33-.54-.7-.78-1.11-1.02-1.56-1.31-2.05-1.63-2.61-2.01-3.26-2.4-3.95-2.7-4.55" filter="url(#a)"/><path d="m-.77-90.55 1.08.07.8.11.52.1.41.12.36.15.28.19.15.22-.02.29-.21.34-.44.41-.69.48-.98.54-1.3.6-1.66.66-2.03.7-2.39.77-2.74.84-3.08.95-3.41 1.02-3.75 1.05-4.18 1.11m71.54 26.87.26.83.12 1.32-.27 1.03-.66.75-1.03.6-1.4.51-1.77.43-2.16.35-2.55.27-2.97.2-3.39.12-3.84.02-4.29-.1-4.75-.26-5.21-.47-5.68-.68-6.17-.87-6.66-1.04-7.18-1.13-7.72-1.14-8.25-1.13-8.69-1.27" filter="url(#a)"/><path d="m-13.82-87.74.23-.01.62-.19.68-.17.54-.06.31.12.07.3-.16.48-.36.67-.56.83-.75 1.01-.98 1.19-1.23 1.4-1.54 1.64-1.85 1.9-2.21 2.18-2.57 2.48-2.97 2.77-3.36 3.02-3.71 3.22-4.04 3.4-4.35 3.58m93.49 14.72.55 1.84.16 1.27-.13.96-.41.71-.71.42-1.02.08-1.34-.29-1.67-.64-1.99-.97-2.32-1.24-2.65-1.46-2.99-1.68-3.34-1.9-3.71-2.15-4.1-2.44-4.52-2.75-4.96-3.09-5.41-3.44-5.89-3.83-6.33-4.25-6.72-4.69L-15-78m59.6 19.87.43.58.37.73.28.65.18.55.04.44-.12.26-.33.02-.57-.31-.84-.69-1.11-1.07-1.4-1.45-1.69-1.82-1.99-2.21-2.29-2.62-2.64-3.08-3-3.57-3.4-4.15-3.89-4.79" filter="url(#a)"/><path d="m47.49-52.96.37.82.5 1.3.35.96.17.59.04.31-.12.09-.28-.16-.47-.46-.67-.78-.88-1.12-1.09-1.48-1.34-1.9-1.64-2.39-2.01-3-2.48-3.74-2.99-4.52-3.44-5.27m-59.13-5.75 1.57-1.19 1.65-.61 1.77-.26 2.08-.1 2.45-.04 2.79.04 3.08.1 3.36.18 3.6.26 3.8.33 3.95.4 4.04.47 4.12.54 4.18.61 4.29.75 4.43.91 4.52.96" filter="url(#a)"/><path d="m41.34-64.29.87 1.79.2.96-.24.67-.58.63-.87.64-1.18.63-1.52.6-1.87.54-2.23.5-2.62.46-3.03.42-3.46.35-3.92.27-4.39.16-4.86.05-5.32-.08-5.78-.19-6.23-.29-6.72-.39-7.2-.46-7.73-.51-8.36-.47M16.62-86.7l1.18.53.83.53.41.46.04.35-.3.24-.67.14-1.03.07h-1.41l-1.81-.06-2.24-.13-2.77-.21-3.38-.32-4.04-.41-4.68-.5-5.18-.65" filter="url(#a)"/><path d="m41.92-63.31-.19-.04-.14.52-.56.34-1.08.03-1.61-.21-2.13-.41-2.68-.64-3.26-.92-3.91-1.22-4.58-1.53-5.29-1.83-6.06-2.13-6.88-2.45-7.73-2.83-8.58-3.28" filter="url(#a)"/><path d="m11.62-88.32.54.04.4.16.31.24.25.28.17.34.03.39-.16.43-.41.48-.7.51-1.01.55-1.36.55-1.7.55-2.07.56-2.42.57-2.79.6-3.16.64-3.54.66-3.93.68-4.38.68-4.86.67-5.24.62m22.04-12.36-2.67.39-2.31.36-2.08.44-1.86.51-1.73.59-1.75.68-1.88.77-2.06.87-2.21.95-2.27 1-2.27 1.05-2.22 1.09-2.21 1.14-2.25 1.2-2.34 1.27-2.44 1.36-2.53 1.45-2.55 1.53-2.54 1.61-2.53 1.69-2.55 1.76-2.56 1.82-2.43 1.85-2.1 1.8-1.67 1.67-1.51 1.43" filter="url(#a)"/><path d="m-13.04-87.91-.97.4-.74.73-.45.95-.57 1.04-.77 1.07-.83 1.07-.84 1.11-.89 1.17-1.03 1.24-1.17 1.32-1.21 1.41-1.1 1.49-.86 1.58-.55 1.65-.24 1.72-.05 1.77-.01 1.82-.14 1.84-.36 1.87-.52 1.89-.49 1.91-.2 1.95.27 2.01.72 2.11 1.05 2.25 1.24 2.39 1.49 2.46 1.87 2.44 2.1 2.47 1.49 3.02m1.47-49.46-2.27.91-2.05.84-2.23.94-2.4 1.06-2.38 1.14-2.16 1.2-1.85 1.26-1.6 1.32-1.55 1.4-1.66 1.44-1.85 1.51-2.04 1.56-2.15 1.61-2.15 1.69-2.11 1.77-2.07 1.85-2.11 1.93-2.24 2-2.42 2.07-2.62 2.14L-60-55.4l-2.8 2.23-2.79 2.26-2.76 2.27-2.78 2.28-2.91 2.29-3.08 2.32-3.21 2.36-3.19 2.45-3.04 2.56-2.87 2.63-2.82 2.58-2.82 2.35-2.56 2.09-1.8 2.68" filter="url(#a)"/><path d="m-20.89-84.4-1.57.93-1.4.96-1.36 1.02-1.4 1.13-1.44 1.22-1.49 1.32-1.51 1.41-1.53 1.49-1.55 1.58-1.55 1.65-1.52 1.72-1.48 1.76-1.41 1.81-1.34 1.84-1.26 1.85-1.19 1.86-1.15 1.87-1.11 1.89-1.07 1.92-1.07 1.99-1.15 2.21-1.33 2.72-1.67 3.93" filter="url(#a)"/><path d="m-20.89-84.4-1.57.94-1.5.98-1.47 1.05-1.5 1.15-1.54 1.26-1.56 1.35-1.55 1.45-1.54 1.54-1.54 1.62-1.53 1.68-1.52 1.75-1.48 1.8-1.44 1.84-1.4 1.86-1.35 1.89-1.3 1.93-1.25 1.96-1.22 2.02-1.17 2.1-1.15 2.17-1.13 2.27-1.12 2.33-1.1 2.4-1.05 2.42-.98 2.45-.9 2.45-.81 2.48-.75 2.51-.71 2.54-.71 2.55-.7 2.55-.65 2.58-.55 2.67-.47 2.66-.36 1.63" filter="url(#a)"/><path d="m-29.59-77.87-2.62 2.46-1.79 1.6-1.49 1.48-1.49 1.57-1.65 1.7-1.78 1.82-1.79 1.91-1.67 1.98-1.46 2.06-1.26 2.12-1.1 2.17-1.03 2.22-1.03 2.25-1.05 2.27-1.1 2.29-1.13 2.31-1.14 2.33-1.13 2.37-1.09 2.41-1.02 2.45-.94 2.5-.87 2.52-.81 2.55-.77 2.59-.75 2.64-.69 2.72-.62 2.79-.53 2.85-.45 2.85-.43 2.81-.47 2.75-.54 2.72-.6 2.72-.59 2.71-.44 2.54-.15 2.32.03 2.39" filter="url(#a)"/><path d="m-50.6-45.02-1.29 2.61-1.54 2.16-1.67 2.38-1.59 2.57-1.56 2.62-1.55 2.58-1.48 2.52-1.31 2.53-1.17 2.61-1.14 2.72-1.22 2.81-1.37 2.85-1.46 2.83-1.44 2.76-1.36 2.72-1.28 2.67-1.31 2.66-1.48 2.63-1.72 2.62-1.87 2.62-1.84 2.65-1.57 2.7-1.11 2.76-.6 2.76-.19 2.68-.25 2.55-.69 2.47" filter="url(#a)"/><path d="m-51.96-41.24-3.11 3.12-.4 2.94-.37 2.77-1.15 2.63-2.08 2.52-2.69 2.52-2.78 2.63-2.35 2.76-1.63 2.84-.84 2.87-.17 2.84.28 2.78.45 2.73.35 2.7.09 2.67-.21 2.67-.41 2.66-.47 2.68-.42 2.7-.37 2.73-.43 2.77-.59 2.81-.81 2.83-.92 2.84-.86 2.82-.59 2.75-.21 2.64.15 2.48.43 2.35.61 2.3.67 2.39.61 2.54.48 2.6.95 2.57" filter="url(#a)"/><path d="m-53.24-38.11-.94 3.11-2.13 2.73-3.87 2.62-4.15 2.47-2.84 2.46-1.23 2.59-.36 2.76-.37 2.87-.81 2.88-1.27 2.84-1.55 2.77-1.66 2.72-1.68 2.68-1.64 2.67-1.62 2.65-1.62 2.65-1.62 2.66-1.6 2.69-1.49 2.73-1.26 2.76-.98 2.8-.71 2.83-.56 2.86-.57 2.85-.76 2.79-1.13 2.66-1.63 2.44-2.13 2.22-2.12 2.16-.97 2.44 1.37 3.08" filter="url(#a)"/><path d="m-54.15-33.98-5.22 1.84.23 2.66.62 2.45.18 2.41-.17 2.58-.38 2.79-.52 2.9-.64 2.91-.72 2.85-.75 2.78-.71 2.73-.65 2.69-.58 2.67-.54 2.66-.58 2.67-.67 2.68-.79 2.71-.89 2.74-.9 2.78-.77 2.8-.5 2.82-.1 2.82.33 2.79.67 2.72.79 2.61.69 2.51.42 2.42.09 2.38-.22 2.39-.41 2.44-.34 2.46.09 2.43.76 2.34 1.1 2.19.37 1.7" filter="url(#a)"/><path d="m-55.8-27.34-.26 1.06-.31 1.74-.4 2.43-.43 2.87-.42 3.01-.36 2.99-.27 2.86-.2 2.77-.13 2.71-.07 2.67-.02 2.67.04 2.66.09 2.67.14 2.68.2 2.71.25 2.74.31 2.78.37 2.81.43 2.81.48 2.81.53 2.77.57 2.71.59 2.61.63 2.51.66 2.43.71 2.4.77 2.4.85 2.41.92 2.42.97 2.37.98 2.28.94 2.14.89 1.96.85 1.79.96 1.64m98.59-94.94-.41-3.11.74-2.42 1.86-2.23 2.3-2.22 1.82-2.28.81-2.36-.17-2.42-.8-2.38-1.05-2.27-1.06-2.13-.98-1.98-.87-1.87-.79-1.81-.77-1.79-.84-1.76-1.02-1.73-1.25-1.66-1.45-1.56-1.46-1.49-1.3-1.5-1.08-1.53-.91-1.46-.49-.94m7.38 38.97-.82-2.02-1.04-2.25-1.19-2.32-1.31-2.43-1.33-2.47-1.3-2.41-1.25-2.28-1.24-2.12-1.27-1.98-1.28-1.88-1.29-1.83-1.28-1.79-1.25-1.74-1.26-1.7-1.31-1.64-1.37-1.59-1.48-1.53-1.57-1.47-1.64-1.43-1.66-1.36-1.67-1.3-1.64-1.23-1.62-1.15-1.61-1.07-1.6-.99-1.61-.91-1.62-.83-1.63-.74-1.62-.65-1.63-.57-1.65-.51-1.67-.45-1.66-.38-1.63-.29-1.83-.2" filter="url(#a)"/><path d="m48.96-49.33.27-2.83.67-1.97 1.24-1.82.52-1.85-.47-1.9-.96-1.97-.95-2-.72-1.99-.58-1.95-.63-1.86-.8-1.76-.96-1.67-1-1.59-.92-1.54-.75-1.48-.61-1.41-.6-1.34-.78-1.24-1.17-1.14-1.69-1.06-2.24-.98-2.68-.9-2.93-.83-2.98-.73-2.91-.66-2.83-.57-2.87-.51-3.08-.45-3.44-.36-3.85-.26-4.06-.23" filter="url(#a)"/><path d="m45.9-55.69 11.76-2.19-1.21-1.97-4.26-1.97-3.62-2.05-2.32-2.05-1.47-1.98-1.23-1.86-1.35-1.74-1.55-1.65-1.61-1.58-1.51-1.52-1.35-1.46-1.25-1.39-1.25-1.31-1.37-1.22-1.53-1.13-1.69-1.04-1.81-.95-1.93-.88-2.01-.79-2.13-.72-2.26-.63-2.39-.56-2.51-.48-2.6-.41-2.64-.33-2.65-.27-2.7-.19-2.82-.11-3.03-.03-3.29.06-3.46.16-3.43.23-3.11.23-2.26.2" filter="url(#a)"/><path d="m43.06-61.23-1.31-2.25-1.05-1.81-1.01-1.83-.83-1.8-.57-1.72-.41-1.59-.47-1.52-.71-1.47-1-1.44-1.23-1.4-1.39-1.35-1.49-1.28-1.56-1.2-1.65-1.12-1.77-1.04-1.9-.98-2.01-.9-2.04-.81-2-.72-1.92-.63-1.91-.55-2.01-.51-2.27-.47-3.21-.51" filter="url(#a)"/><path d="m39.26-66.98 1.19-1.76-.01-1.6-.73-1.56-1.05-1.51-1.32-1.48-1.62-1.48-1.86-1.47-1.92-1.42-1.85-1.31-1.7-1.2-1.58-1.09-1.54-1.02-1.59-.94-1.68-.89-1.79-.8-1.82-.72-1.82-.63-1.87-.55-2-.51-2.21-.45-2.3-.36-2.58-.18" filter="url(#a)"/><path d="m39.26-66.98-1.15-1.78-.55-1.61-.22-1.57-.19-1.52-.52-1.51-.93-1.49-1.1-1.47-.94-1.4-.65-1.3-.49-1.2-.61-1.1-1.02-1.01-1.58-.94-2.08-.86-2.4-.78-2.52-.7-2.52-.63-2.49-.54-2.53-.48-2.58-.4-2.66-.34-2.73-.26-2.86-.2L.8-90.2l-3.65-.05-4.25.07-4.55.22-3.51.42" filter="url(#a)"/><path d="m36-71.36.36-1.48-.61-1.3-.57-1.42-.96-1.46-1.45-1.43-1.74-1.35-1.83-1.25-1.82-1.16-1.78-1.09-1.71-1-1.65-.93-1.64-.85-1.66-.77-1.73-.68-1.82-.6-1.94-.53-2.06-.45-2.19-.39-2.32-.3-2.46-.23-2.57-.14-2.67-.06-2.76.03-2.89.11-3.05.19-3.24.28-3.42.38-3.64.53-4.06.8" filter="url(#a)"/><path d="m36-71.36-1.16-1.48-1.06-1.32-1.28-1.42-1.54-1.47-1.69-1.43-1.68-1.34-1.57-1.25-1.44-1.17-1.37-1.08-1.36-1.01-1.44-.92-1.56-.84-1.71-.76-1.83-.68-1.93-.6-1.98-.52-2.03-.44-2.03-.37-2.05-.3-2.05-.21-2.07-.12-2.09-.05-2.13.05-2.17.13-2.24.22-2.3.3-2.35.39-2.36.47-2.4.55-2.48.62-2.7.73-3.06.94-3.69 1.34" filter="url(#a)"/><path d="m27.05-79.89-1.24-1.49-.08-1.22.15-1.05-.34-.96-1.14-.9-1.89-.82-2.37-.74-2.53-.64-2.48-.57-2.32-.5-2.2-.43-2.16-.36-2.21-.29-2.33-.21-2.48-.12-2.59-.04-2.7.04-2.8.13-2.96.21-3.18.29-3.46.39-3.73.48-3.79.55-2.59.4" filter="url(#a)"/><path d="m20.27-84.5-.37-1-2.03-.87-2.06-.72-1.86-.6-1.76-.52-1.75-.47-1.79-.4-1.81-.34-1.82-.26-1.84-.19-1.86-.1L-.57-90l-1.93.06-1.95.14-1.96.22-1.97.31-1.97.39-1.98.47-1.96.56-1.95.63-1.92.72-1.9.79-1.88.87-1.9.95-1.9 1.03-1.94 1.1-1.96 1.17-2.01 1.25-2.08 1.32-2.17 1.41-2.23 1.46-2.22 1.45-2.11 1.4-1.92 1.36-1.74 1.51" filter="url(#a)"/><path d="m19.51-85.52-2.22-.95-1.8-.7-1.61-.57-1.61-.5-1.7-.47-1.78-.4-1.82-.34-1.84-.26-1.85-.19-1.91-.12-1.99-.03-2.07.05-2.14.13-2.17.21-2.17.3-2.17.38-2.19.46-2.22.54-2.29.62-2.38.7-2.5.77-2.61.84-2.71.93-2.74 1.02-2.71 1.09-2.62 1.13-2.53 1.12-2.56 1.07-2.32.82" filter="url(#a)"/><path d="m7.26-89.69-1.27-.1-1.56-.15-1.59-.13-1.71-.08-1.86-.01-1.99.09-2.02.17-2.02.26-1.97.34-1.95.42-1.93.51-1.92.58-1.92.67-1.94.74-2 .82-2.11.9-2.24.97-2.42 1.05-2.58 1.13-2.75 1.2-2.87 1.26-2.96 1.34-2.94 1.39-2.82 1.45-2.59 1.49-2.34 1.55-2.11 1.61-2.05 1.68-2.11 1.77-2.22 1.84-2.25 1.93-2.38 2.19-3.25 2.77" filter="url(#a)"/><path d="m2.29-90.21-2.66-.13-2.29.11-1.97.23-1.72.3-1.58.36-1.53.44-1.54.53-1.56.61-1.58.7-1.57.77-1.58.84-1.56.93-1.54 1-1.5 1.08-1.44 1.15-1.33 1.22-1.21 1.29-1.05 1.35-.9 1.42-.75 1.47-.62 1.53-.53 1.59-.47 1.65-.48 1.73-.51 1.82-.58 1.89-.66 1.98-.73 2.05-.78 2.11-.78 2.18-.74 2.24-.64 2.29-.47 2.34-.19 2.36.05 2.47-.56 2.98" filter="url(#a)"/></g><path fill="none" stroke="#000" stroke-linejoin="round" stroke-width="3" d="M-7.94 8.08Q7.09 13.95-.425-5.494" filter="url(#a)"/><path fill="#7366CC" stroke="#000" stroke-linejoin="round" stroke-width="3" d="m16.43 66.82-.34 1.06v-.21l-.01.24-.2.18-.3.73-.27.38-.46.31.17-.03-.56.49.04-.08-.88.81-.22.05-.14.18-.63.32.2-.12-1.35.57.79-.32-1.52.68-.4.06.83-.27-.62.28-1.48.4.81-.24-1.08.26-.61.14.43-.09-2.03.26-.32.05-.04-.01-.44.07-1.15.01.8.03-1.73-.03-.13.02-.12-.03-.13.02-1.75-.14.6.07-1.06-.09-1.9-.28-.27-.06.28.04-1.01-.2.21.05-1-.22-.51-.12-1.63-.46 1.02.3-1.35-.4-1.67-.57-.69-.26.11.03-.67-.26.2.08-.24-.1-1.01-.45-.3-.13-1.62-.83-.21-.11.54.3-1.73-1-.62-.35.49.3-.2-.12-.66-.47-.24-.14-.92-.65-.92-.75.21.19-1.14-.93.22.2-1.29-1.26-.36-.38.46.55-.03-.03-1.29-1.44.54.51-.67-.85-.19-.16-.43-.72-.06.06-.36-.52-.09-.15-.62-1.34-.06-.35-.14-.17-.19-.62.32.74-.48-1.26.12.46-.14-1.17-.17-.64-.02.32.18-1.11-.16.05.14-.78.01.21.12-.55.09-.69-.09.77.49-1.48-.03-.14.05.11.43-.56-.35.21.49-.43-.02-.02.17-.42.72-.56.37-.44-.49.48.42-.42.75-.42.1-.08.57-.46.97-.4-.14-.06.54-.22.21-.04.82-.3-.47.2 1.31-.39.33-.07-.41.11.87-.24.53-.08.28-.07.21-.02 1.63-.2-.48.04 1.21-.08-.14.01.44.01 1.36.03.14-.02 1.77.1.32.06.96.11.34.04.68.12.64.12.25.03-.54-.1.41.07 1.04.23 1.07.27.27.06.66.19 1.27.4.66.23 1 .37-.04-.01-.1-.04 1.59.66.71.33-.05-.04.3.15 1.37.71.5.24.79.47-.53-.29-.16-.09 1.21.71.41.24 1.07.73-.31-.21 1.11.79-.26-.14.93.7.07.04 1.12 1.02-.68-.58 1.56 1.53-.14-.2.13.14.83 1.05-.34-.45.82 1.1-.14-.31.07.13.61.97.64 1.13.02.12-.1-.43.47 1.32-.12-.55.37.99-.23-.6.37 1.33.07.05.09.37-.04 1.03.05-.66-.04.81.03.6-.08-.13-.14 1.13.09-.42-.02.25" filter="url(#a)"/></svg>