<svg xmlns="http://www.w3.org/2000/svg" width="500" height="500" viewBox="-100 -100 200 200"><defs><clipPath id="c"><path d="m24.18 1.42-.44-.17-.46-.17-.47-.18-.5-.19-.5-.19-.53-.21-.53-.21-.55-.22-.56-.22-.58-.23-.58-.23-.59-.24-.6-.25-.61-.25-.62-.25-.7-.26-.72-.26-.72-.28-.74-.29-.74-.29-.75-.3-.75-.3-.75-.31-.76-.3-.76-.31-.76-.3-.76-.31-.76-.29-.75-.29-.75-.29-.74-.27-.74-.27-.73-.25-.72-.25-.72-.23-.7-.21-.69-.2-.68-.19-.67-.17-.65-.15-.64-.14-.63-.11-.61-.1-.59-.09-.58-.06-.56-.05-.54-.02-.53-.02-.5.01-.49.02-.47.04-.45.06-.43.06-.41.09-.39.09-.37.11-.35.12-.33.13-.32.14-.29.14-.27.15-.26.16-.24.16-.22.16-.2.16-.19.17-.16.17-.16.17-.13.17-.12.17-.1.18-.08.17-.07.17-.05.18-.04.17-.02.16v.17l.01.16.03.16-1.04 3.98.28.15.28.15.3.15.31.16.31.15.33.16.33.16.34.16.36.17.35.17.37.17.38.18.38.19.39.18.4.2.41.2.42.2.43.21.44.21.45.22.46.24.46.23.47.25.48.26.49.26.5.28.5.28.51.29.51.3.52.3.53.31.53.32.54.32.54.33.55.33.56.33.55.33.57.33.56.33.58.32.57.32.58.31.59.3.59.29.59.28.59.27.6.24.61.23.6.21.61.19.62.16.61.14.62.11.63.08.62.05.63.02.63-.01.63-.05.63-.08.63-.11.64-.15.63-.19.63-.22.63-.25.52-.08.52-.1.51-.11.51-.13.5-.14.5-.15.48-.17.48-.18.48-.19.46-.19.45-.21.44-.21.43-.22.42-.22.4-.23"/></clipPath><clipPath id="b"><path d="m-23.62 1.63.49-.09.5-.1.52-.1.53-.1.55-.11.56-.12.57-.11.58-.13.6-.12.6-.13.61-.13.62-.14.62-.13.63-.14.63-.15.75-.14.76-.15.76-.15.77-.17.76-.16.77-.17.76-.17.76-.17.75-.18.75-.17.75-.18.74-.17.73-.18.73-.17.71-.16.71-.16.7-.16.69-.16.67-.14.67-.14.65-.14.64-.12.62-.12.61-.12.6-.1.58-.1.57-.08.55-.08.54-.07.52-.07.51-.05.49-.05.47-.04.45-.04.44-.02.42-.02.41-.02.38-.01h1.37l.3.01.29.01.26.01.25.01.23.01.22.01.2.01h.65l.12-.01.11-.01.09-.02.08-.02.06-.02.05-.03.03-.04.02-.04.01-.05-.01-.05-.03-.06 2.98 4.49-.27-.01-.28-.01-.29-.01-.29-.01h-.63l-.34.01-.34.01-.35.02-.37.02-.38.03-.39.04-.4.04-.41.05-.42.06-.44.06-.45.07-.46.08-.48.09-.49.09-.51.11L7.9.4l-.53.13-.55.14-.56.15-.57.16-.59.18-.6.19-.61.19-.62.21-.64.22-.65.23-.65.24-.67.25-.68.25-.68.27-.69.26-.7.27-.71.28-.71.28-.72.27-.72.28-.72.27-.73.27-.73.26-.72.25-.73.25-.72.23-.73.22-.71.2-.72.19-.7.17-.7.15-.69.13-.69.1-.67.08-.66.06-.65.02h-.64l-.63-.02-.61-.06-.59-.09-.58-.11-.57-.15-.52-.01-.51-.02-.5-.03-.48-.05-.48-.06-.46-.07-.46-.09-.44-.09-.42-.1-.41-.11-.4-.12-.38-.13-.37-.13-.35-.14-.33-.14"/></clipPath><filter id="a"><feTurbulence baseFrequency=".05" numOctaves="3" result="noise" type="noise"/><feDisplacementMap in="SourceGraphic" in2="noise" scale="2"/></filter></defs><rect width="100%" height="100%" x="-100" y="-100" fill="#A6F2BF"/><path fill="#DF209F" stroke="#000" stroke-linejoin="round" stroke-width="1.667" d="M54.37-.56 54.5.69l-.05 1.5.01-.07-.34 3.85.04.1-.06 1.53-.05 1.56.07.07-.2 2.18-.29 2.67.03-1.74-.25 2.74-.46 2.6.15-.78-.06 1.18-.32 2.11-.33.2-.14 1.62-.1 1.1-.57 1.84-.38 1.96.12-.24-.4 1.51-.77 2.3.11.13.03-.33-.94 3.43-.48 1.34.26-1.24L48.05 37l-.13.54.11-.11-.24 1.13-.98 1.92-.64 1.43-.28.54-.55 1.35-.18.71-.51 1.05-.59 1.07-.58 1.02-.33.58-.6 1.17-.46.79-.97 1.59-.05.23-1.65 2.94-.26.26-.44.81-.93.92.79-.79-1.27 1.7-1.17 1.62-.54.88-.79.68.56-.42-.83.9-.95 1.33-1.95 1.92.39-.25-1.4 1.37.81-.8-1.64 1.27-.38.54-1.2 1.15-.91.9-.76.44-.67.49-.1.41-.95.6-.77.26-1.38 1.03.22.08-.18.08-1.59.84-1.22.96-.72.26.48-.09-2.27 1.11-.97.36-.23.02-1.05.58-.19.07-1.42.71-2.52.87 1.28-.37-1.09.31-.7.01-1.42.55-.53-.01-1.8.44.05-.05-1.68.19.32.03-.13-.06-1.37.5-2.34-.21.9.24-1.7-.15-.44.03-1.37.25-1.41-.3-.4-.03-.79.06.57-.14-1.78-.19-.99-.01-1.29-.41-.86-.08.17-.04-2.84-.58-.39.12-.72-.2-.15-.18-.35-.15-1.18-.57-1.32-.37.74.26-1.79-.91-.83-.43-1.92-.99.23.17-.64-.07-2.05-1.49.33.45-.56-.39-1.45-.72-.15-.03-.82-.74-.85-.72-1.82-1.39v.25l-1.52-1.34-.57-.66-.55-.44.11-.24-2.06-1.84.04.14-.54-.87-.09.27-.82-1-1.59-1.69-.92-1 .29.5-1.07-1.98-.12.17-1.15-1.57-.88-.74.08-.13-1.28-1.88.59.95-2-3.2-.32-.67-.03-.11-1.28-1.8.67.65-.56-.63-1-1.56-.3-.73-1.38-2.65.17.34-.51-1.59-.6-.8-.19-.7-.16-.3-1.36-3.26.37.83-.83-2-.58-1.32-.59-2.07.23.28-.66-1.45-.21-.83-.28-1.3-.49-1.84-.39-.64-.09-.68-.58-2.22.29.48-.44-.58-.53-3.15.04.48-.59-3.76.06.1-.23.07-.18-1.67-.18-1.43-.33-1.62-.03-.88-.13-1.61v-.19l-.34-2.97V10l-.16-3.82-.02.66-.21-1.18-.04-2.8.04-2.43-.19 1.45.12-1.6-.09-2.9.12-.33.11-1.91-.13-.3.24-2.15.13-.56v.13l-.06-1 .37-2.91-.3.88.15-1.79.46-2.86-.09.53.55-3.63.05-.11.47-1.82-.24-.39.11-.19.9-3.41.06-1.4-.13.9.23-.71.21-1.5.93-2.58-.05-.2.49-1.75-.11.54.66-2.61.42-1.03.08-.3.66-2.4.66-1.58.45-.29.14-1.09.76-1.37.6-1.57.12-.51.6-1.34.78-1.19.6-1.5.42-.67-.35.48 1.07-1.86.46-.7.09-.26 1.61-2.82-.06.24.05-.17 1.51-2.2-.08-.17.72-.88.18-.46 1.17-1.56.52-.31.78-1.34.43-.4 1.16-1.26.59-.72.86-1 .79-.8.51-.66.82-.43 1.28-1.35-.05-.34-.06.54 1.04-1.18 1.05-.91 1.51-1.35-.81.58 2.11-1.38-.48.25 2.09-1.42-.31.08 1.36-.67.45-.46 1.47-.99.92-.06-.39-.05 1.73-.83.32-.14 1.53-.77.6-.14.63-.29 1.38-.58 1.33-.43-1.75.56 2.54-.96 1.07-.35-.08.2 2.04-.33.03-.2 1.73-.16-.75.11 1.43-.34.58-.15 1.97-.18 1.16.04-.39-.06.76-.09 2.77.18-1.71-.19 1.92.34 1.04-.17-.01.13.87.14 1.91.13-.2.09 1.32-.05.55-.01 2.31.71-.8-.13.65.22 1.86.4-.06.1 1.24.25.84.34.49.37.94.31 1.13.36-.2.05 1.58.56 2.32 1.34-.4-.45 1.36.97-.44-.32 1.61 1.1.67.31.4.45.75.74 1.35.6 1.9 1.67-.89-1.17 1.15 1.5.14.03 1.11.79 1.24 1.18-.27-.43 1.04 1 .82 1.2 1.12.72.19.9 1.78 1.58.15-.07.1.38.3.57.62.44 1.9 2.91-1.01-1.85 1.87 3.01.87.89-.05.26 1.27 1.81-.03-.21.14.52 1.27 1.94.87 1.54-.69-1.2 1.27 2.41 1.16 2.32-.17-.21.37.02.36 1.1.89 2.11-.11.42.87 1.38.55 1.17.73 1.84.03-.18v1.08l.38.14.62 2.27.06.23.34 1.1.85 2.04.61 2.47.04.09.49 2.29-.38-2.15.24 1.84.72 3.43.45 1.94-.13-.33.14.28.51 1.84.22 1.78.46 2.18-.44-1.63.17 1.33.5 1.95.02 1.69.21.48.16 3.71-.13-2.07.37 4.64-.06-1.29.12 3.45.12.38-.14 1.65-.04.3.13.84.13 1.25" filter="url(#a)"/><path fill="#fff" d="m-23.62 1.63.49-.09.5-.1.52-.1.53-.1.55-.11.56-.12.57-.11.58-.13.6-.12.6-.13.61-.13.62-.14.62-.13.63-.14.63-.15.75-.14.76-.15.76-.15.77-.17.76-.16.77-.17.76-.17.76-.17.75-.18.75-.17.75-.18.74-.17.73-.18.73-.17.71-.16.71-.16.7-.16.69-.16.67-.14.67-.14.65-.14.64-.12.62-.12.61-.12.6-.1.58-.1.57-.08.55-.08.54-.07.52-.07.51-.05.49-.05.47-.04.45-.04.44-.02.42-.02.41-.02.38-.01h1.37l.3.01.29.01.26.01.25.01.23.01.22.01.2.01h.65l.12-.01.11-.01.09-.02.08-.02.06-.02.05-.03.03-.04.02-.04.01-.05-.01-.05-.03-.06 2.98 4.49-.27-.01-.28-.01-.29-.01-.29-.01h-.63l-.34.01-.34.01-.35.02-.37.02-.38.03-.39.04-.4.04-.41.05-.42.06-.44.06-.45.07-.46.08-.48.09-.49.09-.51.11L7.9.4l-.53.13-.55.14-.56.15-.57.16-.59.18-.6.19-.61.19-.62.21-.64.22-.65.23-.65.24-.67.25-.68.25-.68.27-.69.26-.7.27-.71.28-.71.28-.72.27-.72.28-.72.27-.73.27-.73.26-.72.25-.73.25-.72.23-.73.22-.71.2-.72.19-.7.17-.7.15-.69.13-.69.1-.67.08-.66.06-.65.02h-.64l-.63-.02-.61-.06-.59-.09-.58-.11-.57-.15-.52-.01-.51-.02-.5-.03-.48-.05-.48-.06-.46-.07-.46-.09-.44-.09-.42-.1-.41-.11-.4-.12-.38-.13-.37-.13-.35-.14-.33-.14" filter="url(#a)" transform="translate(34.67 -23.2)"/><path fill="#fff" d="m24.18 1.42-.44-.17-.46-.17-.47-.18-.5-.19-.5-.19-.53-.21-.53-.21-.55-.22-.56-.22-.58-.23-.58-.23-.59-.24-.6-.25-.61-.25-.62-.25-.7-.26-.72-.26-.72-.28-.74-.29-.74-.29-.75-.3-.75-.3-.75-.31-.76-.3-.76-.31-.76-.3-.76-.31-.76-.29-.75-.29-.75-.29-.74-.27-.74-.27-.73-.25-.72-.25-.72-.23-.7-.21-.69-.2-.68-.19-.67-.17-.65-.15-.64-.14-.63-.11-.61-.1-.59-.09-.58-.06-.56-.05-.54-.02-.53-.02-.5.01-.49.02-.47.04-.45.06-.43.06-.41.09-.39.09-.37.11-.35.12-.33.13-.32.14-.29.14-.27.15-.26.16-.24.16-.22.16-.2.16-.19.17-.16.17-.16.17-.13.17-.12.17-.1.18-.08.17-.07.17-.05.18-.04.17-.02.16v.17l.01.16.03.16-1.04 3.98.28.15.28.15.3.15.31.16.31.15.33.16.33.16.34.16.36.17.35.17.37.17.38.18.38.19.39.18.4.2.41.2.42.2.43.21.44.21.45.22.46.24.46.23.47.25.48.26.49.26.5.28.5.28.51.29.51.3.52.3.53.31.53.32.54.32.54.33.55.33.56.33.55.33.57.33.56.33.58.32.57.32.58.31.59.3.59.29.59.28.59.27.6.24.61.23.6.21.61.19.62.16.61.14.62.11.63.08.62.05.63.02.63-.01.63-.05.63-.08.63-.11.64-.15.63-.19.63-.22.63-.25.52-.08.52-.1.51-.11.51-.13.5-.14.5-.15.48-.17.48-.18.48-.19.46-.19.45-.21.44-.21.43-.22.42-.22.4-.23" filter="url(#a)" transform="translate(-30.13 -19.35)"/><g fill="none" stroke="#000" transform="translate(34.67 -23.2)"><path stroke-linejoin="round" stroke-width="1.667" d="m-27.13 2.27.22-.04.25-.05.29-.05.31-.06.35-.06.37-.07.4-.07.42-.07.44-.09.46-.08.49-.09.5-.1.52-.1.53-.1.55-.11.56-.12.57-.11.58-.13.6-.12.6-.13.61-.13.62-.14.62-.13.63-.14.63-.15.75-.14.76-.15.76-.15.77-.17.76-.16.77-.17.76-.17.76-.17.75-.18.75-.17.75-.18.74-.17.73-.18.73-.17.71-.16.71-.16.7-.16.69-.16.67-.14.67-.14.65-.14.64-.12.62-.12.61-.12.6-.1.58-.1.57-.08.55-.08.54-.07.52-.07.51-.05.49-.05.47-.04.45-.04.44-.02.42-.02.41-.02.38-.01h1.37l.3.01.29.01.26.01.25.01.23.01.22.01.2.01h.65l.12-.01.11-.01.09-.02.08-.02.06-.02.05-.03.03-.04.02-.04.01-.05-.01-.05-.03-.06-.04-.06-.05-.08-.07-.08-.08-.09-.09-.09-.11-.11-.12-.11-.14-.11-.14-.13-.16-.13" filter="url(#a)"/><path stroke-linejoin="round" stroke-width="2.222" d="m-28.68 4.75.15.08.16.09.18.11.21.12.22.13.25.13.26.14.28.14.3.15.32.14.33.14.35.14.37.13.38.13.4.12.41.11.42.1.44.09.46.09.46.07.48.06.48.05.5.03.51.02.52.01.57.15.58.11.59.09.61.06.63.02h.64l.65-.02.66-.06.67-.08.69-.1.69-.13.7-.15.7-.17.72-.19.71-.2.73-.22.72-.23.73-.25.72-.25.73-.26.73-.27.72-.27.72-.28.72-.27.71-.28.71-.28.7-.27.69-.26.68-.27.68-.25.67-.25.65-.24.65-.23.64-.22.62-.21.61-.19.6-.19.59-.18.57-.16.56-.15.55-.14L7.9.4l.52-.12.51-.11.49-.09.48-.09.46-.08.45-.07.44-.06.42-.06.41-.05.4-.04.39-.04.38-.03.37-.02.35-.02.34-.01.34-.01h.63l.29.01.29.01.28.01.27.01.25.02.25.02.23.01.23.02.22.03.2.02.2.02.19.02.18.02.17.02" filter="url(#a)"/><circle cx="-6.181" cy="-2.004" r="4.712" clip-path="url(#b)" filter="url(#a)"/><circle cx="-6.396" cy="-1.974" r="3.424" clip-path="url(#b)" filter="url(#a)"/><circle cx="-5.211" cy="-1.209" r="3.768" clip-path="url(#b)" filter="url(#a)"/><circle cx="-3.971" cy=".481" r="4.43" clip-path="url(#b)" filter="url(#a)"/><circle cx="-6.661" cy=".656" r="3.114" clip-path="url(#b)" filter="url(#a)"/><circle cx="-6.311" cy="-2.559" r="3.954" clip-path="url(#b)" filter="url(#a)"/><circle cx="-5.886" cy="-1.654" r="4.418" clip-path="url(#b)" filter="url(#a)"/><circle cx="-6.666" cy=".981" r="3.026" clip-path="url(#b)" filter="url(#a)"/><circle cx="-7.531" cy="1.461" r="4.62" clip-path="url(#b)" filter="url(#a)"/><circle cx="-6.126" cy="1.911" r="3.144" clip-path="url(#b)" filter="url(#a)"/></g><g fill="none" stroke="#000" transform="translate(-30.13 -19.35)"><path stroke-linejoin="round" stroke-width="2.222" d="m27.33 2.58-.2-.08-.22-.08-.25-.1-.29-.1-.3-.11-.33-.12-.36-.13-.38-.14-.4-.15-.42-.15-.44-.17-.46-.17-.47-.18-.5-.19-.5-.19-.53-.21-.53-.21-.55-.22-.56-.22-.58-.23-.58-.23-.59-.24-.6-.25-.61-.25-.62-.25-.7-.26-.72-.26-.72-.28-.74-.29-.74-.29-.75-.3-.75-.3-.75-.31-.76-.3-.76-.31-.76-.3-.76-.31-.76-.29-.75-.29-.75-.29-.74-.27-.74-.27-.73-.25-.72-.25-.72-.23-.7-.21-.69-.2-.68-.19-.67-.17-.65-.15-.64-.14-.63-.11-.61-.1-.59-.09-.58-.06-.56-.05-.54-.02-.53-.02-.5.01-.49.02-.47.04-.45.06-.43.06-.41.09-.39.09-.37.11-.35.12-.33.13-.32.14-.29.14-.27.15-.26.16-.24.16-.22.16-.2.16-.19.17-.16.17-.16.17-.13.17-.12.17-.1.18-.08.17-.07.17-.05.18-.04.17-.02.16v.17l.01.16.03.16.04.15.06.15.07.14.09.14.1.13.11.12.13.12.14.12.16.11.16.1m40.3 9.91-.18.12-.21.15-.24.16-.26.18-.29.19-.31.2-.33.22-.35.21-.36.23-.39.22-.4.23-.42.22-.43.22-.44.21-.45.21-.46.19-.48.19-.48.18-.48.17-.5.15-.5.14-.51.13-.51.11-.52.1-.52.08-.63.25-.63.22-.63.19-.64.15-.63.11-.63.08-.63.05-.63.01-.63-.02-.62-.05-.63-.08-.62-.11-.61-.14-.62-.16-.61-.19-.6-.21-.61-.23-.6-.24-.59-.27-.59-.28-.59-.29-.59-.3L3.3 9l-.57-.32-.58-.32-.56-.33-.57-.33-.55-.33-.56-.33-.55-.33-.54-.33-.54-.32-.53-.32-.53-.31-.52-.3-.51-.3-.51-.29-.5-.28-.5-.28-.49-.26-.48-.26-.47-.25-.46-.23-.46-.24-.45-.22-.44-.21L-9 2.1l-.42-.2-.41-.2-.4-.2-.39-.18-.38-.19-.38-.18-.37-.17-.35-.17-.36-.17-.34-.16-.33-.16-.33-.16-.31-.15-.31-.16-.3-.15-.28-.15-.28-.15-.27-.15-.26-.15-.25-.16-.24-.15-.23-.15-.23-.16-.21-.16-.2-.15-.2-.16-.18-.16" filter="url(#a)"/><circle cx=".922" cy="-1.2" r="4.058" clip-path="url(#c)" filter="url(#a)"/><circle cx=".877" cy="-1.4" r="3.892" clip-path="url(#c)" filter="url(#a)"/><circle cx=".592" cy="-.4" r="3.048" clip-path="url(#c)" filter="url(#a)"/><circle cx="4.757" cy="1.835" r="4.336" clip-path="url(#c)" filter="url(#a)"/><circle cx="5.037" cy="-.1" r="4.758" clip-path="url(#c)" filter="url(#a)"/><circle cx="1.672" cy="1.075" r="3.236" clip-path="url(#c)" filter="url(#a)"/><circle cx=".422" cy="2.25" r="4.502" clip-path="url(#c)" filter="url(#a)"/><circle cx="4.787" cy="-.22" r="3.686" clip-path="url(#c)" filter="url(#a)"/><circle cx="2.622" cy="-1.45" r="3.106" clip-path="url(#c)" filter="url(#a)"/><circle cx="2.627" cy="-2.065" r="4.572" clip-path="url(#c)" filter="url(#a)"/></g><path fill="none" stroke="#000" stroke-linejoin="round" stroke-width="3" d="M-6.62 38.2Q6.65 46.875.015-4.22" filter="url(#a)"/><path fill="#C6A" stroke="#000" stroke-linejoin="round" stroke-width="3" d="m-17.49 83.17.47-1.37.47-1.34.47-1.31.48-1.29.47-1.26.47-1.24.48-1.2.47-1.18.48-1.16.47-1.12.48-1.1.48-1.07.47-1.04.48-1.02.47-.99.48-.96.47-.94.48-.91.47-.88.47-.85.47-.83.47-.8.47-.77.47-.75.47-.72.47-.69.46-.66.46-.64.46-.61.46-.59.46-.56.46-.53.45-.5.45-.48.45-.45.45-.42.44-.4.44-.37.44-.34.44-.32.43-.29.43-.26.42-.23.43-.21.42-.19.41-.15.42-.13.41-.1.4-.08.4-.05.4-.02.39.01.39.03.39.06.38.08.37.11.38.14.36.16.36.19.36.22.35.24.35.27.34.3.34.32.33.35.32.38.32.4.31.43.31.46.3.48.3.51.29.53.28.56.28.59.27.62.26.64.26.66.25.7.24.72.24.74.23.77.22.8.21.83.21.85.2.87.19.91.19.93.17.95.17.98.16 1.01.15 1.04.15 1.06.13 1.08.13 1.11.12 1.14.11 1.17.1 1.19.09 1.22.08 1.24.08 1.27-.08-1.27-.08-1.24-.09-1.22-.1-1.19-.11-1.17-.12-1.14-.13-1.11-.13-1.08-.15-1.06-.15-1.04-.16-1.01-.17-.98-.17-.95-.19-.93-.19-.91-.2-.87-.21-.85-.21-.83-.22-.8-.23-.77-.24-.74-.24-.72-.25-.7-.26-.66-.26-.64-.27-.62-.28-.59-.28-.56-.29-.53-.3-.51-.3-.48-.31-.46-.31-.43-.32-.4-.32-.38-.33-.35-.34-.32-.34-.3-.35-.27-.35-.24-.36-.22-.36-.19-.36-.16-.38-.14-.37-.11-.38-.08-.39-.06-.39-.03-.39-.01-.4.02-.4.05-.4.08-.41.1-.42.13-.41.15-.42.19-.43.21-.42.23-.43.26-.43.29-.44.32-.44.34-.44.37-.44.4-.45.42-.45.45-.45.48-.45.5-.46.53-.46.56-.46.59-.46.61-.46.64-.46.66-.47.69-.47.72-.47.75-.47.77-.47.8-.47.83-.47.85-.47.88-.48.91-.47.94-.48.96-.47.99-.48 1.02-.47 1.04-.48 1.07-.48 1.1-.47 1.12-.48 1.16-.47 1.18-.48 1.2-.47 1.24-.47 1.26-.48 1.29-.47 1.31-.47 1.34" filter="url(#a)"/></svg>