<svg xmlns="http://www.w3.org/2000/svg" width="500" height="500" viewBox="-100 -100 200 200"><defs><clipPath id="c"><path d="m30.92-7.67-.26-.21-.29-.22-.32-.2-.34-.21-.38-.2-.4-.19-.43-.19-.45-.19-.48-.18-.5-.18-.52-.17-.55-.17-.57-.16-.59-.16-.61-.15-.65-.19-.68-.19-.7-.19-.74-.17-.76-.16-.79-.15-.81-.15-.83-.13-.86-.12-.88-.12-.9-.1-.92-.09-.93-.08-.95-.06-.97-.06-.97-.05-.99-.03-.99-.02-1-.01H6.9l-1.01.01-1.01.02-1.01.04-1.01.04-1.01.06-1 .06-.99.08-.99.09-.98.1-.96.11-.96.12-.94.13-.92.14-.91.15-.89.16-.87.17-.85.18-.83.18-.81.2-.78.2-.77.22-.73.22-.72.23-.69.23-.66.25-.63.25-.61.26-.59.26-.56.27-.53.28-.51.28-.48.3-.46.3-.44.3-.41.32-.38.32-.36.33-.34.33-.31.34-.29.36-.26.35-.23.37-.22.37-.18.38-2.5 3.35.36.4.37.41.38.41.41.41.41.41.43.41.45.41.46.41.48.42.49.41.5.4.52.41.53.4.54.4.55.39.58.4.58.39.61.39.61.38.64.38.64.36.66.36.67.35.68.33.69.32.7.31.72.29.72.27.73.25.74.24.75.21.76.19.76.17.77.14.78.12.78.09.79.07.8.04.8.01.8-.01.81-.04.82-.07.81-.1.83-.12.83-.15.83-.18.83-.2.84-.24.84-.25.85-.29.85-.3.85-.33.86-.36.85-.37.86-.4.87-.41.86-.43.86-.45.87-.46.86-.48.87-.48.86-.5.86-.5.86-.51.7-.41.69-.41.68-.41.67-.42.67-.42.65-.42.64-.42.63-.42.61-.41.59-.42.58-.41.56-.41.54-.4.51-.39.49-.39"/></clipPath><clipPath id="b"><path d="m-37.54-9.46.14-.17.18-.16.21-.17.26-.16.29-.16.33-.15.36-.15.4-.15.43-.15.46-.14.5-.14.53-.14.56-.14.59-.13.61-.13.61-.14.64-.15.7-.14.73-.14.78-.13.82-.14.86-.12.9-.12.93-.12.97-.11.99-.1 1.03-.1 1.05-.09 1.07-.08 1.09-.08 1.11-.06 1.12-.06 1.14-.05 1.15-.03 1.15-.03 1.16-.01h1.16l1.16.01 1.16.02 1.15.04 1.14.05 1.13.06 1.12.08 1.11.1 1.09.11 1.07.12 1.05.15 1.03.15 1 .18.98.19.96.21.93.23.9.24.87.26.85.28.81.29.78.31.75.34.73.34.69.37.66.38.63.4.6.41.58.43.54.44.52.47.49.48.47.49.44.52.41.53.38.56.36.57.34.59.31.6.28.63.25.64.24.66.21.68.18.69 5.72.13-.25.5-.26.5-.27.51-.28.5-.29.51-.3.5-.31.51-.31.5-.33.5-.34.49-.35.49-.36.48-.36.47-.38.47-.39.46-.4.45-.42.45-.42.45-.44.43-.46.41-.46.41-.48.38-.5.37-.51.35-.52.33-.54.3-.56.27-.57.25-.58.22-.61.19-.62.16-.63.13-.66.1-.67.06-.69.03-.71-.01-.73-.04-.75-.07-.77-.11-.78-.14-.81-.18-.83-.21-.85-.24-.87-.27-.89-.31-.91-.33-.94-.37-.95-.39-.97-.41-1-.44-1.01-.47-1.04-.48-1.05-.5-1.07-.52L-8 7.84l-1.11-.54-1.12-.55-1.14-.56-1.15-.56-1.16-.57-1.17-.57-1.18-.56-1.19-.56-1.19-.55-.95-.49-.95-.48-.94-.48-.94-.48-.93-.48-.92-.47-.91-.47-.9-.46-.88-.45-.87-.45-.84-.43-.83-.42-.8-.42-.78-.4-.74-.38"/></clipPath><filter id="a"><feTurbulence baseFrequency=".05" numOctaves="3" result="noise" type="noise"/><feDisplacementMap in="SourceGraphic" in2="noise" scale="2"/></filter></defs><rect width="100%" height="100%" x="-100" y="-100" fill="#F2A6D6"/><path fill="#20DF65" stroke="#000" stroke-linejoin="round" stroke-width="1.667" d="m78.01.22.29 1.02v1.92l-.23.89-.01.41.04.92-.38 1.94v.46l-.31 2.77v-.18l-.19 2.71-.29.36-.05 2.35-.22-.06-.57 3.53.06-.01-.89 3.04.14-.41-.52 1.4-.73 2.45.11-.44-.25 1.31-.48.48.12.65-.68 1.97-1.01 2.72-.18-.21-.46.81-.37.76-.23.91-1.06 2.57-.98 1.24-.05.54-.82 1.62.65-.98-1.51 2.43-1.76 2.95 1.15-1.51-2.42 3.24.6-.77-2.01 3.53.56-1.11-.21.3-1.55 2.23-.45.41-1.22 1.35-.81 1.21-.97 1.03-1.95 2.28.08.07-1.3 1.1-1.55 1.63h.08l-1.11.77.5-.38-.56.64-4.22 3.59 1.71-1.26-1.96 1.34.04.02-2.44 2.11 1.27-.78-1.72 1.11-.72.29-2.98 2.35-1.25.71-.98.67.47-.21-1.53.67-1.07.79-1.87.87-1.21.37-.05.35-.56.01-2.45.99-.91.52-.48.27-2.32 1.09-.88.22-1.15.44-1.2.61-.05-.14-1.87.66-1.04.14-.12.25-2.03.37.13-.07-1.78.56-2.25.3-1.4.18-.13.32-.27-.05-4.33.44.2.28-.7-.09-1.81.06-.64.2-1.06.2-.9-.13-1.41.1-2.25-.14-.27.1-2.45.11-.41-.03-.92-.22-2.63-.21.79.16-2.95-.33-.01.19-1.96-.37-1.64-.22-2.04-.37 1.17.31-1.8-.41-.23-.18-3.43-.83-.65-.17-2.94-1 1.93.58-3.17-.87-.67-.34-.02.15-3.37-1.2.41.28-1.95-.89-.62-.44-.96-.35-1.48-.75.4.52-.17-.44-4.07-1.95-.97-.47-.75-.24-2.61-1.89 1.38.9-2.09-1.18-.79-.57-.32-.22-3.4-2.24.25-.02-.67-.69-1.49-.95-.25-.27-1.4-1.24-.75-.77-2.34-1.75.51.19-2.22-2.06.17.43.11-.21-1.08-.89-1-1.32-1.68-1.59-.25-.56-.84-.93-.92-.7-.58-.87-1.62-2.33-.93-1.39.43.71-1.03-1.36-.58-.75-.71-1.2h-.23l-1.06-2.08-.94-1.7-.62-1.02-.58-.37-.33-1.42-.45-.75-.54-1.14-1.48-2.16-.3-1.76-.24-.51-.05.33-.66-1.79-.02-.26-.73-1.04-1.11-3.74.25 1.45-.58-1.94-.49-1.84-.22-1.12-.01-.4-.72-2.3-.46-1.37-.17-1.15-.74-2.46.22-.36.02-.72-.53-2.41-.2-.1-.26-1.83-.05-1.61-.25-2.58.18.21-.26-1.12.04-.82-.15-1.29.09-2.45-.16-.66-.05-.69.41-.79v-1.69l-.1-.27.17-2.01.15-2.19-.33.5.47-2.26.13-1.3.54-3.32-.4.92.24-1.44.63-1.98.01-1.13.9-3.2-.17.49.36-.67.08-.52.59-2.25.62-2.49.39-1.18.46-1.29.55-.85-.12-.16.42-.54.43-1.59 1.11-2.08.43-1.68.25-.25.62-1.19.66-1.15.57-1.56.39-.1.91-2.28.82-.93.06-.26 1.16-2.03 1.04-1.45-.09.15 1.5-2.17-.23.59 1.52-2.73.58-.7.42-.36 1.38-1.33.44-.49-.62.15 1.44-1.44 1.71-1.57-.65.22 2.74-2.48.15-.14.34-.55.57-.43 2.07-1.76 1.15-1.31 1.39-1.18 1.28-.85-.57.44-.02-.16 1.88-1.14 1.83-1.63.98-.75-.53.58 2.26-1.6.82-.55-.05-.06 1.12-.55 1.67-1.07 1.11-.66 2.38-1.15-.77.57 2.77-1.51 1.83-.66 1.02-.68 1.98-.5-.7.12 1.71-.66 1.02-.43 1.08-.43-.23.28 2.44-.84.32-.31 4.31-1.09-.43.27.33-.24-.07-.1 2.43-.28 1.33-.46.24-.02 4.36-.75-2.35.33 4.52-.3-.64.03 2.94-.29-.47.05.46-.24 2.91.05 1.24-.16 1.42.02h.72l.3.26.97-.26 1.98.25 2.74.2 1.32.02-.42.21 1.64.31.39.09 2.1-.01.52.2 1.6.33.5-.05 2.73.65.63.41.35.16 1.02-.02 2.22.76 1.9.49.33.22.5.28.54.2 1.22.48 2.3.73.71.38 1.11.72 2.54 1 .43.24.98.41 1.67.97.82.53.46.36 2.39 1.34-.97-.69 1.08.69 1.35.89 1.21.74 1.37 1.11 1.81 1.17.45.11 1.43 1.22-.86-.25 1.94 1.28.35.24 2.68 2.28-.15-.09 1.11 1.51.16-.34 1.91 2.18-.08-.12 1.75 1.96-.55-.78 2.51 2.81.29.07 1.19 1.75 1.17 1.81-1.27-1.86 2.08 2.43.71 1.55.72.68-.23-.37 1.54 1.97.19.69 1.14 1.46.28 1.26 1.15 1.63.33.59.97 1.68.8 1.71-.22-.37.69 1.3.88 2.56.56.55-.11.42 1.03 1.87.46 1.19.72 1.91-.49-1.38.43 1.21.68 2.77.72 1.56.48 2.51-.41-2.19.81 4.36-.23-1.84.84 4.03.12 1.47-.15-.89.92 3.45-.06-.28-.13 1.46.41 1.47.17 1.96.27 1.45-.34.19.26 2.31.27.03-.3-.19.14 2.53-.11 1.96.29 1.02" filter="url(#a)"/><path fill="#fff" d="m-37.54-9.46.14-.17.18-.16.21-.17.26-.16.29-.16.33-.15.36-.15.4-.15.43-.15.46-.14.5-.14.53-.14.56-.14.59-.13.61-.13.61-.14.64-.15.7-.14.73-.14.78-.13.82-.14.86-.12.9-.12.93-.12.97-.11.99-.1 1.03-.1 1.05-.09 1.07-.08 1.09-.08 1.11-.06 1.12-.06 1.14-.05 1.15-.03 1.15-.03 1.16-.01h1.16l1.16.01 1.16.02 1.15.04 1.14.05 1.13.06 1.12.08 1.11.1 1.09.11 1.07.12 1.05.15 1.03.15 1 .18.98.19.96.21.93.23.9.24.87.26.85.28.81.29.78.31.75.34.73.34.69.37.66.38.63.4.6.41.58.43.54.44.52.47.49.48.47.49.44.52.41.53.38.56.36.57.34.59.31.6.28.63.25.64.24.66.21.68.18.69 5.72.13-.25.5-.26.5-.27.51-.28.5-.29.51-.3.5-.31.51-.31.5-.33.5-.34.49-.35.49-.36.48-.36.47-.38.47-.39.46-.4.45-.42.45-.42.45-.44.43-.46.41-.46.41-.48.38-.5.37-.51.35-.52.33-.54.3-.56.27-.57.25-.58.22-.61.19-.62.16-.63.13-.66.1-.67.06-.69.03-.71-.01-.73-.04-.75-.07-.77-.11-.78-.14-.81-.18-.83-.21-.85-.24-.87-.27-.89-.31-.91-.33-.94-.37-.95-.39-.97-.41-1-.44-1.01-.47-1.04-.48-1.05-.5-1.07-.52L-8 7.84l-1.11-.54-1.12-.55-1.14-.56-1.15-.56-1.16-.57-1.17-.57-1.18-.56-1.19-.56-1.19-.55-.95-.49-.95-.48-.94-.48-.94-.48-.93-.48-.92-.47-.91-.47-.9-.46-.88-.45-.87-.45-.84-.43-.83-.42-.8-.42-.78-.4-.74-.38" filter="url(#a)" transform="translate(40.73 -19.84)"/><path fill="#fff" d="m30.92-7.67-.26-.21-.29-.22-.32-.2-.34-.21-.38-.2-.4-.19-.43-.19-.45-.19-.48-.18-.5-.18-.52-.17-.55-.17-.57-.16-.59-.16-.61-.15-.65-.19-.68-.19-.7-.19-.74-.17-.76-.16-.79-.15-.81-.15-.83-.13-.86-.12-.88-.12-.9-.1-.92-.09-.93-.08-.95-.06-.97-.06-.97-.05-.99-.03-.99-.02-1-.01H6.9l-1.01.01-1.01.02-1.01.04-1.01.04-1.01.06-1 .06-.99.08-.99.09-.98.1-.96.11-.96.12-.94.13-.92.14-.91.15-.89.16-.87.17-.85.18-.83.18-.81.2-.78.2-.77.22-.73.22-.72.23-.69.23-.66.25-.63.25-.61.26-.59.26-.56.27-.53.28-.51.28-.48.3-.46.3-.44.3-.41.32-.38.32-.36.33-.34.33-.31.34-.29.36-.26.35-.23.37-.22.37-.18.38-2.5 3.35.36.4.37.41.38.41.41.41.41.41.43.41.45.41.46.41.48.42.49.41.5.4.52.41.53.4.54.4.55.39.58.4.58.39.61.39.61.38.64.38.64.36.66.36.67.35.68.33.69.32.7.31.72.29.72.27.73.25.74.24.75.21.76.19.76.17.77.14.78.12.78.09.79.07.8.04.8.01.8-.01.81-.04.82-.07.81-.1.83-.12.83-.15.83-.18.83-.2.84-.24.84-.25.85-.29.85-.3.85-.33.86-.36.85-.37.86-.4.87-.41.86-.43.86-.45.87-.46.86-.48.87-.48.86-.5.86-.5.86-.51.7-.41.69-.41.68-.41.67-.42.67-.42.65-.42.64-.42.63-.42.61-.41.59-.42.58-.41.56-.41.54-.4.51-.39.49-.39" filter="url(#a)" transform="translate(-48.6 -19.95)"/><g fill="none" stroke="#000" transform="translate(40.73 -19.84)"><path stroke-linejoin="round" stroke-width="1.667" d="m-36.8-7.64-.25-.19-.22-.19-.17-.19-.13-.19-.1-.18-.05-.18-.02-.18.03-.18.06-.17.11-.17.14-.17.18-.16.21-.17.26-.16.29-.16.33-.15.36-.15.4-.15.43-.15.46-.14.5-.14.53-.14.56-.14.59-.13.61-.13.61-.14.64-.15.7-.14.73-.14.78-.13.82-.14.86-.12.9-.12.93-.12.97-.11.99-.1 1.03-.1 1.05-.09 1.07-.08 1.09-.08 1.11-.06 1.12-.06 1.14-.05 1.15-.03 1.15-.03 1.16-.01h1.16l1.16.01 1.16.02 1.15.04 1.14.05 1.13.06 1.12.08 1.11.1 1.09.11 1.07.12 1.05.15 1.03.15 1 .18.98.19.96.21.93.23.9.24.87.26.85.28.81.29.78.31.75.34.73.34.69.37.66.38.63.4.6.41.58.43.54.44.52.47.49.48.47.49.44.52.41.53.38.56.36.57.34.59.31.6.28.63.25.64.24.66.21.68.18.69.16.72.14.72.12.75.09.76.07.78.05.79.03.81.02.82-.01.84-.03.85" filter="url(#a)"/><path stroke-linejoin="round" stroke-width="2.222" d="m-36.76-6.88.27.2.34.23.4.25.46.27.51.29.55.3.6.33.64.34.68.35.72.38.74.38.78.4.8.42.83.42.84.43.87.45.88.45.9.46.91.47.92.47.93.48.94.48.94.48.95.48.95.49 1.19.55 1.19.56 1.18.56 1.17.57 1.16.57 1.15.56 1.14.56 1.12.55 1.11.54 1.09.53 1.07.52 1.05.5 1.04.48 1.01.47 1 .44.97.41.95.39.94.37.91.33.89.31.87.27.85.24.83.21.81.18.78.14.77.11.75.07.73.04.71.01.69-.03.67-.06.66-.1.63-.13.62-.16.61-.19.58-.22.57-.25.56-.27.54-.3.52-.33.51-.35.5-.37.48-.38.46-.41.46-.41.44-.43.42-.45.42-.45.4-.45.39-.46.38-.47.36-.47.36-.48.35-.49.34-.49.33-.5.31-.5.31-.51.3-.5.29-.51.28-.5.27-.51.26-.5.25-.5.24-.5.23-.49.22-.49.21-.48.21-.48.19-.48.19-.46.17-.46.17-.46.16-.45" filter="url(#a)"/><circle cx="-10.937" cy="-11.343" r="3.28" clip-path="url(#b)" filter="url(#a)"/><circle cx="-8.742" cy="-11.458" r="4.994" clip-path="url(#b)" filter="url(#a)"/><circle cx="-12.317" cy="-10.353" r="4.846" clip-path="url(#b)" filter="url(#a)"/><circle cx="-9.277" cy="-6.933" r="3.902" clip-path="url(#b)" filter="url(#a)"/><circle cx="-7.667" cy="-11.368" r="4.49" clip-path="url(#b)" filter="url(#a)"/><circle cx="-9.047" cy="-10.623" r="4.804" clip-path="url(#b)" filter="url(#a)"/><circle cx="-12.387" cy="-8.948" r="4.654" clip-path="url(#b)" filter="url(#a)"/><circle cx="-10.737" cy="-6.603" r="3.162" clip-path="url(#b)" filter="url(#a)"/><circle cx="-12.202" cy="-11.158" r="3.29" clip-path="url(#b)" filter="url(#a)"/><circle cx="-8.977" cy="-7.708" r="3.032" clip-path="url(#b)" filter="url(#a)"/></g><g fill="none" stroke="#000" transform="translate(-48.6 -19.95)"><path stroke-linejoin="round" stroke-width="2.222" d="m31.71-5.46.08-.22.04-.22.01-.23-.03-.22-.07-.22-.09-.23-.14-.22-.16-.22-.2-.22-.23-.21-.26-.21-.29-.22-.32-.2-.34-.21-.38-.2-.4-.19-.43-.19-.45-.19-.48-.18-.5-.18-.52-.17-.55-.17-.57-.16-.59-.16-.61-.15-.65-.19-.68-.19-.7-.19-.74-.17-.76-.16-.79-.15-.81-.15-.83-.13-.86-.12-.88-.12-.9-.1-.92-.09-.93-.08-.95-.06-.97-.06-.97-.05-.99-.03-.99-.02-1-.01H6.9l-1.01.01-1.01.02-1.01.04-1.01.04-1.01.06-1 .06-.99.08-.99.09-.98.1-.96.11-.96.12-.94.13-.92.14-.91.15-.89.16-.87.17-.85.18-.83.18-.81.2-.78.2-.77.22-.73.22-.72.23-.69.23-.66.25-.63.25-.61.26-.59.26-.56.27-.53.28-.51.28-.48.3-.46.3-.44.3-.41.32-.38.32-.36.33-.34.33-.31.34-.29.36-.26.35-.23.37-.22.37-.18.38-.17.38-.14.39-.11.4-.1.4-.07.41-.04.42-.03.42v.43l.02.43.04.44" filter="url(#a)"/><path stroke-linejoin="round" stroke-width="2.222" d="m31.6-4.55-.13.23-.17.25-.22.27-.27.29-.3.31-.34.33-.37.34-.41.35-.43.36-.47.38-.49.39-.51.39-.54.4-.56.41-.58.41-.59.42-.61.41-.63.42-.64.42-.65.42-.67.42-.67.42-.68.41-.69.41-.7.41-.86.51-.86.5-.86.5-.87.48-.86.48-.87.46-.86.45-.86.43-.87.41-.86.4-.85.37-.86.36-.85.33-.85.3-.85.29-.84.25-.84.24-.83.2-.83.18-.83.15-.83.12-.81.1-.82.07-.81.04-.8.01-.8-.01-.8-.04-.79-.07-.78-.09-.78-.12-.77-.14-.76-.17-.76-.19-.75-.21-.74-.24-.73-.25-.72-.27-.72-.29-.7-.31-.69-.32-.68-.33-.67-.35-.66-.36-.64-.36-.64-.38-.61-.38-.61-.39-.58-.39-.58-.4-.55-.39-.54-.4-.53-.4-.52-.41-.5-.4-.49-.41-.48-.42-.46-.41-.45-.41-.43-.41-.41-.41-.41-.41-.38-.41-.37-.41-.36-.4-.33-.4-.33-.39-.3-.39-.29-.39-.28-.38-.26-.38-.24-.37-.23-.37-.21-.37-.2-.35" filter="url(#a)"/><circle cx="-22.044" cy="-1.759" r="3.56" clip-path="url(#c)" filter="url(#a)"/><circle cx="-20.859" cy="-2.609" r="4.796" clip-path="url(#c)" filter="url(#a)"/><circle cx="-17.614" cy="-.049" r="4.166" clip-path="url(#c)" filter="url(#a)"/><circle cx="-17.409" cy="-1.589" r="4.46" clip-path="url(#c)" filter="url(#a)"/><circle cx="-21.834" cy="1.086" r="3.182" clip-path="url(#c)" filter="url(#a)"/><circle cx="-21.734" cy="-1.874" r="3.07" clip-path="url(#c)" filter="url(#a)"/><circle cx="-20.439" cy=".156" r="4.852" clip-path="url(#c)" filter="url(#a)"/><circle cx="-20.234" cy=".746" r="4.356" clip-path="url(#c)" filter="url(#a)"/><circle cx="-19.889" cy="-3.414" r="3.95" clip-path="url(#c)" filter="url(#a)"/><circle cx="-17.999" cy="-1.569" r="4.888" clip-path="url(#c)" filter="url(#a)"/></g><g fill="none" stroke="#3D1386" stroke-linejoin="round" stroke-width="2"><path d="m-62.86-48.51 10.4-8.88 17.34-5.07 16.97-2.2 8.28-1.38-.19-1.33-3.23-.98-1.2-.38 2.94-.04 6.23-.13 6.97-.44 4.85-.55 1.08-.32-2.07-.12-2.12-.27 2.32-.37 10.1.95 17.43 4.65 19.1 8.89 10.47 8.02" filter="url(#a)"/><path d="M18.02-79.79-5.27-68.14l17.43 3.1 17.41 3.59 7.78 3.19.11 1.78-2.07 1.35-.98 1.93-.79 1.97-3.49.51-7.1-1.85-7.83-3.63-3.97-3.72 1.73-2.18 3.86-.06.14.96-3.32-.79 3.43-5.84 1.58-11.55" filter="url(#a)"/><path d="m-57.7-55.41 27.65.13 23.26-3.41 2.4-4.03-4.25-2.91-.99-2.22 3.36-2.11 4.68-2.02 3.37-1.67 1.72-1.08 1.52-.35 2.77.4 3.8 1.19 3.34 2.2 2.54 3.6 4.49 4.94 8.74 3.98 2.99-3.57L1.95-81.73" filter="url(#a)"/><path d="m-27.94-76.42 31.96 5.41-.56-1.03.38-.26 2.11 1.45 1.09 2.54-.18 2.78.08 2.37 2.17 1.78 5.31 1.33 8.12 1.16 9.45 1.19 8.91 1.23 6.88 1.08 3.99.56.68-.38-3.09-1.65-7.49-2.91-12.38-3.53-16.95-2.99-19.47-1.47-17.51-.29-9.36-1.29 3.09-4.4 13.25-6.23" filter="url(#a)"/><path d="m-47.52-65.02 61.62 4.17 11.8 1.05-6.08-.59-9.36-1.34-6.93-1.81-2.75-1.63 1.02-1.04 3.1-.77 2.87-1.04.44-1.37-2.48-1.14-2.79-.42 1.21-.03 5.23-1.18-.34-4.5-9.53-5.35" filter="url(#a)"/><path d="M-61.34-51.24 4.67-62.07l17.01-5.01-6.55-3.64-12.34-2.19-8.11-.44-.59 1.07 5.83 2.04 9.34 2.36 9.69 2.13 7.32 1.42 3.02.41-1.69-.59-4.64-1.05-3.83-.36.88 1.69 6.51 4.19 7.52 4.52-1.28-.94-17.64-12.21L-.49-82.01" filter="url(#a)"/><path d="m-34.07-73.76 55.1 17.46-1.69-5.79-14.6-7.32-10.69-4.37-3.11-1.68 2.93.22 6.12 1.82 7.18 3.34 7.53 4.5 7.95 4.8 8.03 4.01 6.78 2.3 3.88.25.41-1.49-2.09-2.49-3.32-2.84-5.69-3.05-13.13-3.35-27.17-2.46-38.58 5.29" filter="url(#a)"/><path d="M73.71-27.73 9.21-55.46l-20.12-6.48 3.17-1.89 5.87-1.32 1.17-1.37-2.06-1.22-1.95-.97.15-.81 2.73-.68 5.02-.38 6.67.17 7.22.8 6.19 1.18 3.4.98-.49.3-4.05-.48-5.82-.81-5.74-.6-4.99-.27-3.01-.8 2.89-3.5-5.95-8.4" filter="url(#a)"/><path d="m-29.22-76.04-9.87 8.14 7.27 5.61 16.11 4.55 13.16 3.15 6.03.66.34-1.93-2.5-3.43-3.63-3.45-4.49-2.52-5.37-1.42-5.74-.52-5.28.05-3.88-.07-.82-1.24.33-1.12-25.28 9.22m35.45-19.51 25.53 10.1-11.61-.01-7.19-1.4 3.28-1.31 7.88-.95 6.25-.45 2.03.32-.85 1.45-.15 2.74L11.52-66l7.92 2.62 8.91.44 4.97-2.32-3.44-4.81-14.56-6.53-24.42-4.88" filter="url(#a)"/><path d="m10.57-80.91-4.18 8.65-7.2 6.59-2.02.94.46-1.89L.4-67.8l5.01 1.26 5.89 3.21 4.79 3.56 2.34 2.55-.27.98-2.15-.44-2.89-1.46-2.28-1.95-.29-1.74 2.68-.85 5.37.34 5.89 1.06 2.16 1.09-5.32 1.34-5.13 3.18 47.1 7.52" filter="url(#a)"/><path d="m-25.21-77.51 1.48-.22 2.36 1.03 7.14 2.26 10.76 2.07 9.56.78 5.68-.2 3.15.16 3.83 1.87 6.59 4.05 8.62 5.51 7.46 5.28 2.76 3.04-2.85-.59-4.67-3.74.63-3.87 9.51.76 18.23 13.83" filter="url(#a)"/><path d="m47.01-65.14-16.15-6.69-8.18 3.41-11.37 4.87L1.3-61.1l-4.36-.12.49-1.43 2.55-1.48 2.98-.83 3.41-.16 4.2.11 4.67-.08 3.95-.35 1.92-.2-.63.69-2.43 2.12-2.35 3.38-.11 3.36 3.18 1.29 4.81-2.8.81-7.59-9.96-10.43-11.51-6.37" filter="url(#a)"/><path d="M-21.6-78.81.83-75.94l10.08 3.21-2.85 2.25-5.24 3.23-.24 4.28 5.39 4.24L15-55.62l4.46 1.42.39-.13-2.23-.99-2.07-.94.43-.15 3.41.87 4.66 1.34 2.62.77-2.32-.82-7.48-2.64-9.28-3.74-6.39-3.7-2.33-3.12-2.94-2.86-3.71-2.91 26.78-6" filter="url(#a)"/><path d="m60.02-52.44-8.49-7.78-8.45-5.12-5.33-.98-.56 3.31 3.25 5.98 3.54 5.93-.12 3.44-5.58-.34-9.65-3.89-10.3-6.15-7.65-6.58-3.47-5.32.36-2.95 2.92-.21 4.13 2.08 3.83 3.2 1.32 2.62-3.44.45-7.72-1.84-9.43-2.4-35.63-3.62" filter="url(#a)"/><path d="m48.95-63.86-5.28-1.45-6.03 2.3-4.61 4.9-6.44 4.27-9.78.98-9.99-2.24-6.57-3.71-2.36-3.52.25-2.48 1.14-1.21 1.86.05 3.57 1.01 5.91 1.17 7 .17 5.16-1.66.53-3.18-4.32-2.91-5.18-.24 2.39 4.35 20.4 10.29 33.1 19.81" filter="url(#a)"/><path d="m-56.64-56.76 60.46-3.18 9.84 1.85-5.33-.63-6.26-2.14-5.55-1.8-5.5-.79-5.16-.14-3.9-.14-1.99-.67.27-1.45 2.69-2.22 4.73-2.67 5.36-2.46 3.86-1.33.91.69-.78 3 2.47 3.87 9.05-.51-13.16-14.23" filter="url(#a)"/><path d="m55.01-58.08-20.15 4.66-27.33-5.09-11.47-3.83-.4-2 3.54-2.08 4.18-2.74 4.58-2.68 5.19-1.76 5.19-.39 4.01.9 1.92 1.72-.78 1.77-4.14.95-8.55-.26-13.44-.55-15.65.73-6.33.34L8.54-81.31" filter="url(#a)"/><path d="m-40.3-70.27 20.86-.92 9.92 7.66 4.27 3.55-.44-2.13-3.18-4.46-4.6-3.77-4.69-1.94-3.13-.38-.19.4 2.92.51 4.93.21 5.17-.18 4.11-.44 2.95-.39 2.51-.05 2.52.43 1.84.78-.36.82-3.19.61-4.31.31-2.2-.13 1.09-1.48 1.28-4.23 10.76-5.82" filter="url(#a)"/><path d="m56.68-56.24 4.21 10.47-9.75-6.77-8.92-7.93-4.8-4.7-2.78-1.17-2.72 2.02-2.82 4.36-1.61 5.06.92 3.67 2.29.62-1.56-3.03-12.49-5.69-25.28-5.43-27.41-1.69-7.79-1.5" filter="url(#a)"/><path d="m-26.23-77.08 15.08.8 15.5 1.11 5.27 3.23 2.32 6.19 5.55 7.48 8.01 6.05 5.88 2.72.55-.77-4.87-2.89-9.17-3.22-12.58-2.65-13.62-2.45-7.61-3.06 8.58-3 29.39 2.24 42.98 19.81" filter="url(#a)"/><path d="M68.9-38.87 18.85-60.23l-29.88-6.31-13.69-2.26-6.72.24-2.67 1.59 2.03 1.75 7 1.1 9.95.04 9.47-1.06 6.3-1.83 2.76-1.92.59-1.22-.26.2-.86 2.17-2.27 4.3-7.53 5.27-22.6 3.18-31.81 3.75" filter="url(#a)"/><path d="m-58.52-54.12 56.21-12.15 11.25-4.01-4.18.12-5.09 1.19-.65 1.86 3.12 2.76 3.67 3.15 1.11 2.31-2.72.32-5.53-1.89-6.02-3.27-4.51-3.34-2.03-2.37.82-1.02 4.26.43 8.32 2.28 11.65 4.34L21-59.04l-8.37-1.14-58.29-6.14" filter="url(#a)"/><path d="m-50.77-62.12 55.65-5.35 11.45-6.2 1.34-3.13 1.85.03 2.42 1.95-.98 2.57-7.8 2.59-14.48 2.54-16.88 2.33-12.78 1.38-3.62-.41 5.81-2.1 9.89-2.23 9.79-1.45 35.84-7.21" filter="url(#a)"/><path d="m18.65-79.38 16.27 8.31-.75-.72-2.7-1.16-.58.82.48 2.25-.04 2.4-.97 1.69-1.24.9-.52.69.56 1.17.48 1.76-2.22 1.51-6.8-.18-9.37-2.88-7.1-4.49-9.37-1.27-47.62 8.22" filter="url(#a)"/><path d="m26.73-76.81-7.07 4.52L14.3-66l-7.22 4.52-2.85 3.64 1.24 1.85 2.32-.59.95-2.51-1.19-3.17-2.61-2.66-2.53-1.41-.95.07 1.7 1.45 4.81 2.34 7.45 2.38 8.53 1.39 7.13-.46 3.34-2.5-1.57-3.82-5.89-3.84-8.72-2.59-10.45-.69-11.14 1.15-6.14 1.16 29.51-8.95" filter="url(#a)"/></g><path fill="none" stroke="#000" stroke-linejoin="round" stroke-width="3" d="M-10.49 22.5Q10.11 32.505-.19-4.474" filter="url(#a)"/><path fill="#66CC8B" stroke="#000" stroke-linejoin="round" stroke-width="3" d="m32.15 56.02-.03.86-.18 1.11.16-.59-.06.14-.27 1.1-.03.37-.15.37-.14.37.05-.33-.6 1.51.15-.55.01.13-.44.91-.34.34.17-.09-.83 1.08-.21.22-.29.31.04-.18-.37.51-1.04.85-.05.01.3-.26-1.32 1.06.41-.32-.78.51.5-.32-1.32.8.55-.29-1.65.87.05-.06-.92.39.74-.31-1.83.72.51-.15-1.28.41.24-.09-1.65.47.05-.03-1.2.23 1.04-.18-.61.14-1.15.16-.4.07-.77.07h-.02l-1.35.07-.74.01h.29l-.82-.01-.46-.02.6.03-1.86-.12h-.1l-1.32-.18.7.09-.63-.08-.63-.11-.64-.14-1.13-.29-.54-.14-.7-.21.01-.01-.62-.23.4.16-1.61-.66-.43-.21.13.12-.76-.43.54.28-1.88-1-.1-.09.07.07-1.09-.79.13.08.17.16-.12-.19-1.27-.95.51.47-.83-.89.01.09-.48-.53-.06-.01-.27-.43-.47-.45-.28-.45-.22-.35-.36-.81.17.44-.37-.59.05-.13-.25-.37-.3-.84-.18-.62.1.23-.16-.38-.04-.62-.03-.63-.11-.38.09-.62-.02-.75-.09.83.15-.86.18-1.22.21-.37-.26.69.18-.37.21-.84-.15.33.27-.48.65-1.38.11-.24.33-.34.09-.34-.26.42.35-.45.55-.74.39-.31.29-.31.19-.11-.27.18.18-.21.55-.49 1.33-.97-.19.07-.17.16.45-.27 1.09-.71.3-.08.28-.16.21-.15.82-.33 1.13-.49-.18.05-.28.1 1.36-.43-.11-.01 1.25-.31-.54.12.35-.09 1.63-.36 1.18-.16-.31.05-.07-.01 2.16-.22-.8.06 1.25-.07 1.16-.01h-.04l.95.03-.58-.02.43.01 1.8.16-.41-.06.28.04.17.01 2.1.36.04.01-.54-.1 1.25.26.54.14.56.19.86.27.46.17.56.19-.71-.23.89.31 1.33.62-.01.01-.2-.06 1.27.69-.32-.22.99.65.22.19.83.64-.79-.62.66.46 1.15.97-.38-.29.96 1.02-.13-.19.47.43.08.23.61.66v.24l.26.24.18.35-.19-.21.5.81.38.72-.1.02.28.61-.1.01.18.62.19.86-.14-.71.08.26.17.87-.12.62" filter="url(#a)"/></svg>