<svg xmlns="http://www.w3.org/2000/svg" width="500" height="500" viewBox="-100 -100 200 200"><defs><clipPath id="c"><path d="M26.06 1.2 25.8.95 25.52.7l-.31-.27-.32-.26-.35-.26-.38-.27-.39-.27-.42-.26-.44-.27-.47-.27-.48-.26-.51-.27-.53-.26-.55-.25-.57-.26-.53-.32-.57-.31-.61-.31-.64-.3-.68-.3-.71-.28-.75-.28-.78-.27-.81-.26-.84-.24-.87-.24-.89-.22-.91-.2-.93-.2-.94-.18-.96-.16-.98-.15-.98-.13-.99-.11-.99-.1-1-.09-1-.07-.99-.05-.99-.03-.98-.02h-.98l-.96.01-.95.03-.94.04-.92.06-.9.07-.88.08-.86.1-.84.11-.82.12-.79.13-.76.14-.75.15-.71.16-.69.17-.66.17-.63.18-.61.19-.58.19-.55.19-.53.2-.5.2-.47.2-.45.2-.43.2-.41.2-.38.2-.36.2-.33.2-.32.2-.29.19-.27.2-.25.2-.23.19-.2.19-.19.19-.17.19-.15.18-.13.18-.03 2.37.32.16.35.15.35.15.37.15.39.15.41.15.42.16.43.15.45.15.47.15.49.15.5.16.52.15.53.16.56.15.57.16.58.16.61.17.63.16.64.17.67.17.68.17.71.18.72.18.74.18.75.19.78.19.79.19.8.19.82.2.84.2.84.2.86.2.87.2.88.2.88.2.9.19.89.2.9.19.91.19.9.18.9.18.9.17.9.16.88.15.88.14.88.13.86.12.84.11.83.09.82.08.8.06.78.04.75.03.74.01.71-.01.69-.03.66-.05.63-.07.6-.1.58-.11.55-.13.51-.16.49-.17.5-.08.49-.09.47-.09.45-.11.44-.11.41-.12.4-.13.38-.14.36-.15.34-.15.32-.16.3-.17.28-.17.27-.17.24-.18"/></clipPath><clipPath id="b"><path d="m-23.13.36.29-.23.31-.24.32-.24.35-.24.37-.24.39-.24.4-.23.43-.24.45-.23.47-.23.48-.23.51-.23.52-.23.55-.22.55-.22.55-.26.58-.25.61-.25.64-.25.67-.25.69-.23.73-.24.75-.23.77-.22.8-.21.82-.2.83-.19.86-.19.87-.17.88-.17.9-.15.9-.14.92-.13.92-.12.92-.1.93-.09.93-.08.92-.06.93-.06.92-.04.91-.02.9-.01h.89l.89.01.87.02.85.04.84.05.82.06.81.07.79.08.77.09.75.1.72.11.71.12.68.12.67.13.64.14.61.14.6.15.57.16.55.15.53.16.51.16.48.16.47.16.45.17.42.16.41.17.39.16.37.17.35.17.34.17.31.17.3.16.28.17.26.16.24.17.23.16.21.16-3.55 1.11-.34.2-.36.2-.38.2-.4.19-.41.2-.43.2-.45.2-.47.2-.49.2-.51.2-.52.21-.54.2-.56.21-.57.22-.59.21-.62.21-.63.22-.65.22-.67.23-.68.23-.71.23-.72.24-.75.24-.75.25-.78.25-.78.25-.81.26-.81.26-.83.26-.83.27-.85.27-.85.26-.87.27-.86.27-.87.27-.88.26-.87.27-.87.25-.88.26-.86.24-.87.24-.85.22-.85.22-.84.21-.82.19-.82.18-.79.16-.79.14-.76.13-.75.11-.72.08-.7.07-.68.03-.66.02-.63-.01-.61-.04-.57-.06-.55-.09-.53-.12-.49-.14-.46-.18-.43-.2-.41-.23-.37-.26-.41-.12-.39-.13-.37-.14-.35-.16-.33-.17-.32-.18-.3-.19-.27-.2-.27-.21-.24-.22-.22-.22-.21-.23-.19-.24-.17-.24-.15-.24"/></clipPath><filter id="a"><feTurbulence baseFrequency=".05" numOctaves="3" result="noise" type="noise"/><feDisplacementMap in="SourceGraphic" in2="noise" scale="2"/></filter></defs><rect width="100%" height="100%" x="-100" y="-100" fill="#F2C0A6"/><path fill="#209DDF" stroke="#000" stroke-linejoin="round" stroke-width="1.667" d="m61.9 1.12.05.15-.02.83-.16 1.82-.18 1.53.26-.9-.32 3.01.02-.06-.28 3.02-.28 1.57-.11.76.04.65-.05-.64-.33 3.4-.06-.03-.5 1.96.2-.05-.98 4.05.21-1.07.01-.42-.98 4.6.4-1.71-.86 3.16-.02.48-.48.88-.27.78-.34 1.11-.14.87-.85 2.37-.05-.06-.79 1.61-.45 1.31-.17.16-1.14 2.6-.27 1.09-.27-.1-1.07 2.02.41-.15-1.5 2.47.4-.76-.78 1.42-1.23 1.83.79-1.02-1.27 1.66-1.07 1.82.11-.06-.62.75-2.18 3.01.24-.09-.06.28-2.19 2.38.77-.75-1.06 1.39.35-.82-2.06 2.55-.3.11-.55.69-1.2 1.25-.64.48-1.11 1.44-.09-.23-1.93 2.03-.16.05-1.4 1-.76.49.52-.1-2.32 1.6-.2-.11-1.7 1.38-.51.38-.22.27-1.56.76 1.18-.68-1.8 1.1-1.91 1.16-1.57.4-.44.32 1.28-.38-1.77.77-1.16.58-1.8.74-.52.15-1.15.55-1.09.29-1.69.38 1.49-.48-3.16 1.01-1.01.37.25-.22-.45.01-1.7.62.01-.04-1.15.17-2.05.27-1.19.3-1.17.03.03.05h.04l-.94.03-2.2.13-2.7-.05-.23.02h.92l-2.49-.2-.74.09-.7-.15.09.08-1.63-.55-1.17.18-1.08-.22-.58-.26h.18l-3.29-.79-.57-.12h-.76l-1.78-.76-1.41-.34.77.38-1.33-.66-.34.09-1.32-.54.13-.31-.78-.03-1.65-.64-1.15-.76-1.12-.44-.42-.23-1.64-.8.39.05-.96-.49-1.9-1.25-.16-.27-.54-.14-1.78-1.09-.88-.74-1.49-1.31.01-.03-1.43-.86.87.66-2.46-2.14-.76-.67.29.38-1.45-1.72-1.25-1 .01-.03-.58-.56-.44-.69-1.19-1.02-.96-1.21-.37-.2-1.44-1.79-.16-.18-.08-.21-1.74-2.69-.06.44-1.14-1.78-1.08-1.81.81 1.06-1.4-2.07.43.51-1.23-2.04-1.16-1.43.03-.44-.09.15-.97-2.23-.98-1.66-.65-1.21.37.72-.95-2.26.5 1.14-1.39-2.93-.84-2.15.06-.61-.28-.44-1.03-2.75.34.39-.68-.94.3.12-.81-2.73.13 1.27-1.12-4.56.47 1.81-.39-.95-.73-4.43-.08.06.01.15-.42-1.76-.46-3.05.09 1.08-.2-2.66-.06.17-.42-1.86.17-.79-.41-2.6.07-1.16-.32-1.21.18-.68.07.77-.31-1.98-.03-3.38.14 1.02-.14-2.33.15-.85.13-1.88-.2-.34.06-.34.43-3.81-.08 1.06.22-2.88-.08-.63.17-.2.21-1.75.22-2.65.01-.22.29-1.3.35-1.69.03.68.41-1.98.18-1.13-.23.29.78-2.13.93-3.85.14-.33-.04.22.33-1.64.68-1.54.65-2.07-1 2.76 1.06-2.98.67-1.5.08-.22.95-2.08.23-1.13-.21 1.16 1.55-3.52-.01-.03 1.26-2.45-.03-.15.9-1.5-.48.77 1.27-2.11.95-1.58.58-1.23.71-.73.16-.62.47-.21.66-.99.93-1.63.33-.54.19.24 1.13-1.7.9-.93.7-.91.78-1.1 1.61-1.57-.51.67.58-.62 1.07-1.12.49-.46.68-.78 2.16-1.97-.35.19.72-.18 1.94-1.77-.73.21 1.55-.91.57-.53.56-.19.86-.76 1.8-1.12-.52.11 3.19-1.9.22-.2-.86.51 2.58-1.32-.7.3 1.62-.56 1.82-1.1 1.15-.2.68-.24.89-.51.89-.56-.79.26 1.36-.23 1.87-.54.81-.27.34-.36.96-.15 1.7-.4 1.64-.21.21-.18.12-.09 1.56-.16 1.22-.38-.15.21 2.4-.23 1.37-.25 1.27.17-.08-.2-.34.08 2.74.02-.64.12.87-.08 1.68.16 2.24.01.06.07 1.64.26-.65-.28 1.28.23 1.99.39.36-.15-.71.13 3.17.64.61-.15-.06.13 3.22.82.24.12-.52-.01 2.68.88-.22-.06 1.65.49.65.64.81-.08.12.17 1.47.68 1.36.78.49.24.35.04 1.35.76-.33-.05 2.79 1.83.71.46-.46-.5 2.48 1.99.27.05 1.82 1.48-.88-.79 2.05 1.87.04-.07 1.24 1.12.43.27-.07-.05 1.68 1.65.92.68-.01.24.43.06 1.24 1.64 1.77 1.85.33.49 1.13.99.37.69.43.82.62.8.87 1.3.23-.05 1.09 1.47-.23-.16 1.63 2.3.61 1.35-.64-1.2 1.71 3.13.01-.1.54.64.59 1.45.69.8.79 2.03-.46-.92 1.5 2.96.06-.03.35 1.51.28.36 1.52 3.6-.34-.7.09-.37.3 1.11.44 1.68.52 1.04.3 1.77.51 1.33.01-.44.43 2.02.64 2.65.17.87.31.35.34 1.81-.12.42.68 2.52-.2-.81.53 4.02-.06-.32.25 1.54.16-.02.15 2.83.02-.46.15 1.18.11 2.62-.08-1.46.3 3.63-.22 1.39.22-1.19-.03 3.89.05.15" filter="url(#a)"/><path fill="#fff" d="m-23.13.36.29-.23.31-.24.32-.24.35-.24.37-.24.39-.24.4-.23.43-.24.45-.23.47-.23.48-.23.51-.23.52-.23.55-.22.55-.22.55-.26.58-.25.61-.25.64-.25.67-.25.69-.23.73-.24.75-.23.77-.22.8-.21.82-.2.83-.19.86-.19.87-.17.88-.17.9-.15.9-.14.92-.13.92-.12.92-.1.93-.09.93-.08.92-.06.93-.06.92-.04.91-.02.9-.01h.89l.89.01.87.02.85.04.84.05.82.06.81.07.79.08.77.09.75.1.72.11.71.12.68.12.67.13.64.14.61.14.6.15.57.16.55.15.53.16.51.16.48.16.47.16.45.17.42.16.41.17.39.16.37.17.35.17.34.17.31.17.3.16.28.17.26.16.24.17.23.16.21.16-3.55 1.11-.34.2-.36.2-.38.2-.4.19-.41.2-.43.2-.45.2-.47.2-.49.2-.51.2-.52.21-.54.2-.56.21-.57.22-.59.21-.62.21-.63.22-.65.22-.67.23-.68.23-.71.23-.72.24-.75.24-.75.25-.78.25-.78.25-.81.26-.81.26-.83.26-.83.27-.85.27-.85.26-.87.27-.86.27-.87.27-.88.26-.87.27-.87.25-.88.26-.86.24-.87.24-.85.22-.85.22-.84.21-.82.19-.82.18-.79.16-.79.14-.76.13-.75.11-.72.08-.7.07-.68.03-.66.02-.63-.01-.61-.04-.57-.06-.55-.09-.53-.12-.49-.14-.46-.18-.43-.2-.41-.23-.37-.26-.41-.12-.39-.13-.37-.14-.35-.16-.33-.17-.32-.18-.3-.19-.27-.2-.27-.21-.24-.22-.22-.22-.21-.23-.19-.24-.17-.24-.15-.24" filter="url(#a)" transform="translate(41.04 -22.2)"/><path fill="#fff" d="M26.06 1.2 25.8.95 25.52.7l-.31-.27-.32-.26-.35-.26-.38-.27-.39-.27-.42-.26-.44-.27-.47-.27-.48-.26-.51-.27-.53-.26-.55-.25-.57-.26-.53-.32-.57-.31-.61-.31-.64-.3-.68-.3-.71-.28-.75-.28-.78-.27-.81-.26-.84-.24-.87-.24-.89-.22-.91-.2-.93-.2-.94-.18-.96-.16-.98-.15-.98-.13-.99-.11-.99-.1-1-.09-1-.07-.99-.05-.99-.03-.98-.02h-.98l-.96.01-.95.03-.94.04-.92.06-.9.07-.88.08-.86.1-.84.11-.82.12-.79.13-.76.14-.75.15-.71.16-.69.17-.66.17-.63.18-.61.19-.58.19-.55.19-.53.2-.5.2-.47.2-.45.2-.43.2-.41.2-.38.2-.36.2-.33.2-.32.2-.29.19-.27.2-.25.2-.23.19-.2.19-.19.19-.17.19-.15.18-.13.18-.03 2.37.32.16.35.15.35.15.37.15.39.15.41.15.42.16.43.15.45.15.47.15.49.15.5.16.52.15.53.16.56.15.57.16.58.16.61.17.63.16.64.17.67.17.68.17.71.18.72.18.74.18.75.19.78.19.79.19.8.19.82.2.84.2.84.2.86.2.87.2.88.2.88.2.9.19.89.2.9.19.91.19.9.18.9.18.9.17.9.16.88.15.88.14.88.13.86.12.84.11.83.09.82.08.8.06.78.04.75.03.74.01.71-.01.69-.03.66-.05.63-.07.6-.1.58-.11.55-.13.51-.16.49-.17.5-.08.49-.09.47-.09.45-.11.44-.11.41-.12.4-.13.38-.14.36-.15.34-.15.32-.16.3-.17.28-.17.27-.17.24-.18" filter="url(#a)" transform="translate(-32.73 -20.61)"/><g fill="none" stroke="#000" transform="translate(41.04 -22.2)"><path stroke-linejoin="round" stroke-width="1.667" d="m-24.91 2.65.1-.22.11-.22.13-.22.15-.23.17-.22.18-.24.21-.23.22-.23.25-.24.26-.24.29-.23.31-.24.32-.24.35-.24.37-.24.39-.24.4-.23.43-.24.45-.23.47-.23.48-.23.51-.23.52-.23.55-.22.55-.22.55-.26.58-.25.61-.25.64-.25.67-.25.69-.23.73-.24.75-.23.77-.22.8-.21.82-.2.83-.19.86-.19.87-.17.88-.17.9-.15.9-.14.92-.13.92-.12.92-.1.93-.09.93-.08.92-.06.93-.06.92-.04.91-.02.9-.01h.89l.89.01.87.02.85.04.84.05.82.06.81.07.79.08.77.09.75.1.72.11.71.12.68.12.67.13.64.14.61.14.6.15.57.16.55.15.53.16.51.16.48.16.47.16.45.17.42.16.41.17.39.16.37.17.35.17.34.17.31.17.3.16.28.17.26.16.24.17.23.16.21.16.2.15.18.16.16.15.15.15.13.15.12.14.1.14.09.14.08.13.06.13" filter="url(#a)"/><path stroke-linejoin="round" stroke-width="2.222" d="m-25.18 3.22.01.17.01.19.03.21.05.21.06.23.07.23.09.24.1.24.12.24.14.25.15.24.17.24.19.24.21.23.22.22.24.22.27.21.27.2.3.19.32.18.33.17.35.16.37.14.39.13.41.12.37.26.41.23.43.2.46.18.49.14.53.12.55.09.57.06.61.04.63.01.66-.02.68-.03.7-.07.72-.08.75-.11.76-.13.79-.14.79-.16.82-.18.82-.19.84-.21.85-.22.85-.22.87-.24.86-.24.88-.26.87-.25.87-.27.88-.26.87-.27.86-.27.87-.27.85-.26.85-.27.83-.27.83-.26.81-.26.81-.26.78-.25.78-.25.75-.25.75-.24.72-.24.71-.23.68-.23.67-.23.65-.22.63-.22.62-.21.59-.21.57-.22.56-.21.54-.2.52-.21.51-.2.49-.2.47-.2.45-.2.43-.2.41-.2.4-.19.38-.2.36-.2.34-.2.33-.2.31-.19.29-.2.27-.21.25-.2.24-.2.23-.21.2-.21.19-.2.18-.21" filter="url(#a)"/><circle cx="-14.261" cy="5.964" r="4.492" clip-path="url(#b)" filter="url(#a)"/><circle cx="-17.126" cy="7.249" r="3.466" clip-path="url(#b)" filter="url(#a)"/><circle cx="-13.921" cy="6.849" r="3.198" clip-path="url(#b)" filter="url(#a)"/><circle cx="-17.431" cy="6.469" r="3.326" clip-path="url(#b)" filter="url(#a)"/><circle cx="-17.471" cy="5.709" r="4.414" clip-path="url(#b)" filter="url(#a)"/><circle cx="-15.751" cy="8.924" r="4.542" clip-path="url(#b)" filter="url(#a)"/><circle cx="-16.821" cy="6.279" r="4.336" clip-path="url(#b)" filter="url(#a)"/><circle cx="-16.776" cy="7.159" r="3.872" clip-path="url(#b)" filter="url(#a)"/><circle cx="-17.386" cy="4.169" r="3.402" clip-path="url(#b)" filter="url(#a)"/><circle cx="-15.491" cy="4.879" r="3.222" clip-path="url(#b)" filter="url(#a)"/></g><g fill="none" stroke="#000" transform="translate(-32.73 -20.61)"><path stroke-linejoin="round" stroke-width="2.222" d="m27.58 3.35-.08-.17-.09-.19-.1-.19-.12-.21-.14-.21-.16-.22-.18-.23-.19-.24-.22-.24-.24-.25-.26-.25-.28-.25-.31-.27-.32-.26-.35-.26-.38-.27-.39-.27-.42-.26-.44-.27-.47-.27-.48-.26-.51-.27-.53-.26-.55-.25-.57-.26-.53-.32-.57-.31-.61-.31-.64-.3-.68-.3-.71-.28-.75-.28-.78-.27-.81-.26-.84-.24-.87-.24-.89-.22-.91-.2-.93-.2-.94-.18-.96-.16-.98-.15-.98-.13-.99-.11-.99-.1-1-.09-1-.07-.99-.05-.99-.03-.98-.02h-.98l-.96.01-.95.03-.94.04-.92.06-.9.07-.88.08-.86.1-.84.11-.82.12-.79.13-.76.14-.75.15-.71.16-.69.17-.66.17-.63.18-.61.19-.58.19-.55.19-.53.2-.5.2-.47.2-.45.2-.43.2-.41.2-.38.2-.36.2-.33.2-.32.2-.29.19-.27.2-.25.2-.23.19-.2.19-.19.19-.17.19-.15.18-.13.18-.11.18-.09.17-.07.17-.06.16-.04.16-.03.15-.01.15.01.15.02.14.03.14" filter="url(#a)"/><path stroke-linejoin="round" stroke-width="2.222" d="m27.65 4.86-.08.14-.09.15-.1.16-.13.16-.13.17-.16.18-.17.18-.19.18-.21.18-.23.18-.24.18-.27.17-.28.17-.3.17-.32.16-.34.15-.36.15-.38.14-.4.13-.41.12-.44.11-.45.11-.47.09-.49.09-.5.08-.49.17-.51.16-.55.13-.58.11-.6.1-.63.07-.66.05-.69.03-.71.01-.74-.01-.75-.03-.78-.04-.8-.06-.82-.08-.83-.09-.84-.11-.86-.12-.88-.13-.88-.14-.88-.15-.9-.16-.9-.17-.9-.18-.9-.18-.91-.19-.9-.19-.89-.2-.9-.19-.88-.2-.88-.2-.87-.2-.86-.2-.84-.2-.84-.2-.82-.2-.8-.19-.79-.19-.78-.19-.75-.19-.74-.18-.72-.18-.71-.18-.68-.17-.67-.17-.64-.17-.63-.16-.61-.17-.58-.16-.57-.16-.56-.15-.53-.16-.52-.15-.5-.16-.49-.15-.47-.15-.45-.15-.43-.15-.42-.16-.41-.15-.39-.15-.37-.15-.35-.15-.35-.15-.32-.16-.31-.15-.3-.16-.28-.16-.27-.16-.25-.16-.24-.16-.23-.16-.22-.17-.2-.17-.19-.17" filter="url(#a)"/><circle cx="-7.433" cy="-1.879" r="3.444" clip-path="url(#c)" filter="url(#a)"/><circle cx="-5.413" cy="-.884" r="3.774" clip-path="url(#c)" filter="url(#a)"/><circle cx="-5.348" cy="1.421" r="3.988" clip-path="url(#c)" filter="url(#a)"/><circle cx="-6.468" cy="-3.209" r="4.366" clip-path="url(#c)" filter="url(#a)"/><circle cx="-4.588" cy="-3.299" r="3.416" clip-path="url(#c)" filter="url(#a)"/><circle cx="-6.968" cy=".871" r="4.826" clip-path="url(#c)" filter="url(#a)"/><circle cx="-4.878" cy="-2.664" r="3.854" clip-path="url(#c)" filter="url(#a)"/><circle cx="-6.553" cy="-1.724" r="3.548" clip-path="url(#c)" filter="url(#a)"/><circle cx="-8.453" cy=".191" r="3.35" clip-path="url(#c)" filter="url(#a)"/><circle cx="-6.468" cy="-.439" r="3.494" clip-path="url(#c)" filter="url(#a)"/></g><g fill="none" stroke="#86135E" stroke-linejoin="round" stroke-width="2"><path d="m-22.95-71.17 28.63.37 7.84.82 3.59 1.51 2.63 1.39.57 1.03-1.88.8-3.28.74-3.32.72-2.73.76-2.13.95-1.35 1.29.28 1.6 2.84 1.5 5.3.77 6.47-.19 6.2-.48 5.54.46 4.73 1.55 1.63-.17-6.06-6.33-14.62-11.38" filter="url(#a)"/><path d="M56.07-32.85 4.66-47.97l-1.15-7.26 6.29-1.69 2.48-.54-1.64-1.47-3.42-2.3-3.07-2.1-1.77-1.08-.87.01-1.11.65-2.01.68-2.13.33-.42-.05 1.86-.28 1.13-.88-4.09-2.77-7.21-5.12-.5-3.23" filter="url(#a)"/><path d="m34.67-63.47 1.54 11.03-8.24-3.84-5.4-1.09-2.75 1.13-.36.98.99-.19.57-1.5-1.01-2.48-2.47-2.92-3.13-2.7-3.18-1.97-3.22-1.05-3.66-.28-4.52.23-5.57.65-6.59 1.23-7.18 1.88-6.24 1.72-1.41-.68 9.33-5.47 22.67-7.69" filter="url(#a)"/><path d="m-47.73-48.81 21.33-14.93 17.1-5.84 11.89-1.3 6.05-.37 1.15-.7-.91-.58.09.48 2.59 2.25 4.61 4.21 4.97 5.69 3.79 6.19 1.72 5.29-1.31 2.59-5.8-2.22-8.85-7.58.64-7.25 32.43 8.35" filter="url(#a)"/><path d="M56.81-30.06 25.76-49.62l-6.84-1.13-.51-.56.58-2.89-2.14-4.3-5.33-3.94-6.32-2.43-4.55-.89-1.35-.06 1.34-.08 2.23-.52 1.23-.84-.79-.55-2.69.49-3.56 2.07-2.63 3.67.74 4.55 6.26 4.02 10.63 1.72 6.23-2.21-14.21-6-43.95.73" filter="url(#a)"/><path d="m-17.52-73.78 30.79 17.74-8.13-1.32-6.4-1.56 4.99 1.59 11.76 3.73 11.11 3.42 5.69 1.2-.5-1.25-4.31-2.55-4.49-2.28-1.98-1.14.69-.35 1.12-.73-1.06-2.14-3.71-3.52-3.69-3.71v-2.48l4.39-.61 6.24 1.79 13.87 8.39" filter="url(#a)"/><path d="m52.61-40.18-20.75-2.91-24.17-10.4-9.3-7.07 1.12-1.96 4.87 1.68 5.08 3.09 4.58 2.8 4.46 1.87 4.39 1.17 3.63.82 1.45.34-2.13-.7-6.09-2.18-8.57-3.48-7.97-3.98-4.32-3.36.06-1.81 1.65.13-1.5 1.23-6.32-.26-4.74-4.86.69-5.45" filter="url(#a)"/><path d="m17.93-73.46 12.93 14.24L21.37-63l-10.72-5.05-6.34-2.88-2.68-.99-.78.21-.18 1.04-.29 1.57-.5 1.65-.48 1.19-.12.48.65.12 2.03.58 3.91 1.87 5.48 3.32 5.53 4.03 4.06 3.61 3.81 2.8 8.24 3.33 14.13 6.37 11.02 13.83" filter="url(#a)"/><path d="m31.37-66.01-4.63-.91-5.79-1.98-1.24-.12.12.22-.72-.29-1.98-.55-2.94-.31-3.59.27-4.24.85-5.17 1.06-5.86.72-4.84-.02-.4-.9 7.64-1.65 15.4-1.47 11.7.59" filter="url(#a)"/><path d="m-16.95-73.75 7.28-1.19 7.8 2.17 10.38 4.41 8.62 3.75 3.19 1.37-2.29-.82-5.33-1.8-5.59-1.63L3-68.44l-2.28-.32-1.11-.01-.74.13-.52.41.39.96 2.4 1.67 4.99 2.03 6.7 1.84 4.15 1.81-9.55 3.2-50.39 1.53" filter="url(#a)"/><path d="m28.64-67.96 11.74 13.4-4.65 3.01-14.42-2.19-14.15-3.52-7.72-2.7-.28-1.29 4.8-.31 6.37-.19 4.94-.89 1.93-1.91-1.17-2.58-3.53-2.48-5.23-1.67-6.82-.45-8.46.89-9.63 2.18-9.39 3.16-7.34 3.29-3.83 2.07.64-.94" filter="url(#a)"/><path d="m-37.56-61.08 18.7-8.54 7.89-.79 8.78 3.99 9.31 6.08 6.38 4.87 1.62 1.67-2.28-1.49-3.93-3.48-3.65-4.03-2.62-3.53-1.99-2.51-2.14-1.37-2.58-.34-2.54.48L-8.34-69l-.56 1.32.4.94 1.42-.35 3.48-2.21 6.56-3.21 7.26-2.07-.7-1.38" filter="url(#a)"/><path d="m.92-76.65 7.14 1.03-.76.65-2.72 2.15-1.01 3.9 1.55 4.83L8-59.48l2.94 3.42 2.63 1.74 2.41.2 1.96-.71.73-.98-1.27-.88-3.29-.78-4.22-.75-3.4-.63-1.2-.2 1.22.52 2.42 1.06 1.03.59-3.63-1.27-8.64-3.3-1.83-2.97 35.78-1.54" filter="url(#a)"/><path d="M12.53-75.21 7.36-62.53l12.06 8.11-.81.3-11.68-3-13.36-3.34-8.98-2.77-3.34-2.09 1.08-1.54 4.2-1.29 6.43-1.26 7.38-.87 6.12.29 2.1 1.83-4.57 2.09-12.35-1.22-4.61-7.78" filter="url(#a)"/><path d="m39.29-59.5-17.03-2.21L.29-63.15l-9.23-.44 2.83.7 8.19 1.74 7.33 1.82 3.23.83-1.15-.59-4.03-1.63-4.95-1.78-4.36-.9-3.04.61-1.73 2.05-.69 2.67.4 2.16 2.11.81 4.64-.65 7.14-1.65 7.68-2.16 4.46-2.43-2.36-2.36-9.62-1.38-10.01-.84 18.86-7.7" filter="url(#a)"/><path d="m-25.59-70.1-4.19 3.72 6.24-1.27 9.46-2.51 8.2-1.6 7.01.09 7.02 1.76 7.07 2.97 6.01 3.66 3.74 3.83.7 3.32-2.62 1.8-5.71-.69-7.78-3.31-8.39-4.59-7.92-3.53-6.99-.92-4.54.46.21-1.8-7.52-1.39m86.71 58.81.11.67.05 1.04.05 1.03.06 1.02.05 1.08.03 1.13.03 1.17.02 1.18.03 1.19.02 1.17.01 1.17-.02 1.14-.07 1.1-.08 1.07-.1 1.02-.1 1.03-.11 1.12-.13 1.36-.23 2.03.38-21.72.25-1.26.97-1.49 1.11-1.66.91-1.62.73-1.55.57-1.5.38-1.46.18-1.44.04-1.48.01-1.53.02-1.56.09-1.58.16-1.61.3-1.69.54-1.84.89-1.99 1.28-2.07 1.5-1.92 1.35-1.62.88-1.72.02-3.44M.69-76.69l-1.64-.02-.73.01-.68.04-.87.06-1.03.08-1.07.1-1.05.12-.97.13-.92.15-.89.16-.9.19-.92.2-.95.23-.98.25-.97.27-.96.28-.92.27-.87.27-.77.24-.64.25-.59.28-.65.35-.7.31" filter="url(#a)"/><path d="m-2.9-76.76-1.64-3.19-1.42-1.01-1.27-1.54-1.11-1.26-.95-.36-.9.18-.98.01-1.21-.78-1.47-1.85-1.71-2.87-1.81-3.38-1.79-3.01-1.61-1.67-1.36-.08-1.01.32-.45-2.09L-2.9-76.76l-1.46.23-1.28.17-1.04.17-.92.2-.86.23-.84.25-.86.28-.92.29-.95.29-.96.29-.96.27-.93.26-.89.26-.82.26-.76.29-.72.33-.71.39-.77.46-.87.52-.98.55-1.05.56-1.02.51-.98.49-1.53.86-3.28-31.75 2.33 3.47 1.73 2.26 1.6 2.52 1.53 2.71 1.45 2.48 1.37 1.85 1.29 1.1 1.2.45 1.13-.02 1.08-.37 1.04-.72.98-1.02.91-1.08.9-.55.99.6 1.14 1.93 1.24 2.73 1.32 3.03 1.76 2.22 1.16-.49.78-.32.62-.19.63-.27.72-.37.84-.38.95-.32 1.04-.29 1.08-.35 1.07-.45 1.03-.55.98-.62.95-.61.96-.52.98-.44 1.03-.42 1.12-.49 1.21-.59 1.31-.51 1.4-.2 1.53.02 1.32-.75-25.11 9.34 1.88-1.39 1.28-1.96.89-1.5.7-.99.68-.62.75-.28.86.05.97.35 1.06.47 1.11.32 1.11-.12 1.1-.75 1.06-1.29 1.06-1.5 1.04-1.3 1.04-.87 1.06-.64 1.25-.98 1.66-1.7 1.58-1.61-5.04 6.33-1.86 1.03-1.15.87-.91 1.16-.94 1.23-1.05 1.08-1.14.86-1.13.66-1.04.5-.92.35-.81.27-.72.21-.69.15-.77.04-.98-.22-1.22-.52-1.24-.3-.38 2.4 23.2-23.63-.64 1.3-1.35 1.39-1.48 1.53-1.37 1.61-1.26 1.6-1.2 1.54-1.14 1.47-1.11 1.37-1.11 1.22-1.13 1.12-1.15 1.12-1.14 1.22-1.09 1.27-1.01 1.1-.89.68-.79.23-.74.04-.77.35-.91.99-1.13 1.36-1.19.96-.6.16" filter="url(#a)"/><path d="m-7.74-76.11-1 .4-.67.29-.76.19-.91.23-.98.35-.95.47-.89.55-.86.57-.83.5-.79.39-.7.32-.6.32-.55.39-.61.47-.7.49-.8.6-.97-3.31.96-.18.79-.28.67-.32.61-.28.64-.25.74-.22.85-.2.92-.2.95-.19.98-.19 1.01-.2 1.01-.18.94-.16.78-.13.68-.11 1.04-.13 67.25 41.25.08 1.4.07 1.52.09 1.48.11 1.38.09 1.31.05 1.32.06 1.35.1 1.37.17 1.32.18 1.25.13 1.2.04 1.18-.03 1.22-.02 1.26.05 1.33.12 1.38.07.76" filter="url(#a)"/><path d="M-9.63-75.68h-1.53l-1.37-.32-1.11-.19-1-.05-1.01-.1-1.02-.22-.94-.22-.8-.04-.67.23-.65.43-.75.45-.99.3-1.3.07-1.63-.02-1.68.4m16.45-.72-1.95-2.54-1.5-1.1-1.06.27-.99.29-1.13-.37-1.2-.85-1.11-.8-.91-.37-.75.04-.78.13-.98-.15-1.33-.62-1.77-1.09-2.2-1.34-2.17-.48" filter="url(#a)"/><path d="m-12.97-75.07-.87-.33-.83-.02-.93.18-.93.16-.86.11-.77.13-.75.2-.79.28-.88.34-.96.37-1.02.38-1.04.32-1.02.25-.98.15-.97.11-.98.13-1.01.23-1.04.4-1.06.54-1.01.62-.92.58-.79.48-.65.37-4.49-21.24 3.82 1.51 1.97 1.43 1.53 1.53 1.36 1.01 1.29.38 1.32.12 1.43.29 1.5.69 1.51 1.1 1.42 1.43 1.31 1.55 1.17 1.41 1.08.98 1 .38.97-.13.93-.11.95.66.99 1.03-.96.15 1.21.3 1.3.38 1.09.18.91.28.89.63.94.96.99.99 1.03.66 1 .19.93-.2.85-.33.77-.19.71.17.7.54.73.84.77 1.01.84 1.07.88 1.06.85 1.06.76 1.1.63 1.12.57.98.73.67 1.22.44-34.92 2.41.99-.41.67-1.23.54-1.53.52-1.37.54-1.02.59-.72.64-.62.7-.64.77-.72.81-.79.82-.83.76-.87.67-.86.59-.75.58-.58.63-.47.73-.57.82-.82.76-.89.49-.63-.34.36-1.17-.33-1.19-.1-.89.05-.67.23-.64.24-.76.12-.94.04-1.09.02-1.16.08-1.17.12-1.08.11-.97.07-.82.07-.72.21-.98.52-2.24.98" filter="url(#a)"/><path d="m5.74-90.67-2.22.37-1.57.98-1.14 1.03-.91.84-.82.66-.8.61-.83.65-.93.74-1.01.83-1.04.91-1.03 1.01-.97 1.06-.91 1.02-.85.9-.85.77-.87.69-.92.69-.95.69-.92.63-.87.54-.93.59-1.35.71" filter="url(#a)"/><path d="m-32.64-62.34 1-.93.68-.82.67-.77.76-.74.84-.72.9-.69.88-.63.83-.54.77-.46.76-.44.77-.47.85-.57.93-.64.99-.64.99-.59.91-.53.8-.59.79-.67-.02.06.78-.21.98-.38.96-.42.95-.38.96-.31.99-.25.96-.22.92-.22.86-.23.86-.25.9-.27.97-.28 1.05-.25 1.12-.23 1.08-.18.84-.15.4-.15-.13-.13" filter="url(#a)"/><path d="m-19.98-72.47.71-.23.72-.07.68.16.73.19.81.03.86-.17.9-.27.93-.26.96-.14.98-.03.98.07.93.1.88.11.85.11.87.12.92.15 1.04.2 1.19.27 1.3.3 1.22.25-18.46-.89.73-.16.76.12.72.29.74.2.8-.03.86-.22.9-.25.94-.15.98-.02.99.05.96.07.93.09.88.18.88.31.92.43.96.52 1.03.55 1.07.64 1.02.78.81.95.4.84-.1.06" filter="url(#a)"/><path d="m-22.95-71.17 1.48-.72 1.09-.45.87-.35.72-.29.65-.24.66-.21.75-.2.83-.22.89-.24.93-.25.97-.23 1-.22 1-.2.94-.14.78-.1.69-.05 1.03-.07-16.2 4.44-1.37.96-.49.98-.62.94-.86.73-.98.57-.96.53-.87.57-.76.63-.66.71-.59.8-.55.84-.55.87-.58.85-.64.83-.67.83-.65.9-.58.99-.48 1.03-.38.93-.36.69-.45.43-1.02.61m-1.23-5.58.89-.85.83-.74.86-.79.86-.75.82-.66.79-.59.76-.54.73-.54.73-.52.73-.52.77-.53.81-.55.88-.61.94-.66 1-.69.96-.63.62-.36-.26.21m.86-.51-1.18-.11-1.46.26-1.34.19-1.29.03-1.33-.27-1.44-.61-1.56-.9-1.71-1.15-1.84-1.33-1.9-1.34-1.83-1.07-1.63-.55-1.44.01-1.38.3-1.5.21-1.67-.17-1.62-.42-1.15-.46-.58-1.27" filter="url(#a)"/><path d="m-25.59-70.1-.25-.96.45-1.14.76-.91.75-1.52.55-2.53.34-3.21.27-3.11.38-2.23.61-1.06.8-.22.9-.17.86-.86.75-1.89.62-2.65.59-2.83.82-2.58 1.42-2.21-22.22 45.37-.31-.14.23-.59.42-.87.49-1.03.56-1.08.59-1.03.6-.97.56-.96.51-.96.48-.96.5-.9.55-.8.63-.7.72-.63.8-.6.75-.57.11-.4" filter="url(#a)"/><path d="m-8.78-71.68-.3-.27-.7-.13-.96-.02h-1.05l-1.03-.01-.98.02-.93.07-.86.16-.8.22-.73.26-.73.24-.79.17-.89.08-1.01.02-1.1.02-1.1.09-1.02.18-.89.25-.74.28-.67.32-.92.52L-29-68l.52-.11.44-.46.95-.76.77-.67.65-.61.66-.62.75-.7.85-.75.93-.77.93-.72.9-.63.81-.54.72-.5.65-.55.66-.71.71-.91.78-1.06.79-.96.73-.69.69-.95-16.17 14.68-1.84-1.75-1.78-1.72-1.54-1.09-1.28-.48-1.06.05-.95.35-.93.51-.98.55-1.1.49-1.25.31-1.35.09-1.33.01-1.2.08-1.18.06-1.5-.27-2.16-.9-2.68-1.28-2.51-.84-2.01-.05 27.77 6.64.85-1.09 1.04-.71 1.03-.64.94-.64.8-.65.72-.66.72-.66.79-.64.89-.58.96-.56.96-.55.9-.58.8-.64.71-.66.68-.63.71-.57.78-.49.88-.45.92-.44.95-.5 1.05-.57 1.28-.58 1.59-.37" filter="url(#a)"/><path d="m-12.66-84.76-1.45.63-.99.81-.89.77-.9.76-.88.7-.82.58-.78.46-.79.37-.83.4-.87.53-.9.74-.89.94-.82 1.11-.74 1.18-.66 1.19-.61 1.14-.62 1.1-.67 1.08-.76 1.06-.83 1-.86.87-.83.71-.68.59-.54.53m-.82.7-1.49-2.92.75-.12 1.02.03.87-.48.72-1 .68-1.24.74-1.17.82-.92.83-.72.77-.71.69-.85.65-1.07.72-1.25.84-1.32.97-1.29.99-1.13.88-1 .7-1.31" filter="url(#a)"/><path d="m-60.95-70 1.63.88 2.7 1.74 2.54 1.1 1.97.19 1.4-.54.98-.93.81-.91.88-.58 1.14-.05 1.52.5 1.86.93 2.07 1.13 2.08 1.09 1.86.85 1.53.53 1.33.1 1.56-.84" filter="url(#a)"/><path d="m-35.75-62.86.53-1.22.54-1.27.65-.74.66-.63.57-.88.47-1.24.45-1.49.54-1.54.65-1.46.72-1.41.63-1.48.39-1.69.16-2-.06-2.49-.92-3.15M-54.19-56.3l1.25.15 1.18-.34 1.01-.54.84-.64.81-.68.91-.66 1.07-.53 1.25-.36 1.35-.14 1.36.01 1.26.09 1.11.03.98-.12.9-.35.89-.57.94-.76.93-.79.4-.36m0 0-.32.52-.76 1.07-.79 1-.73.8-.65.7-.61.66-.6.68-.63.76-.66.82-.69.88-.67.91-.66.89-.62.86-.57.83-.54.81-.5.82-.46.81-.43.81-.44.84-.48.94-.57 1.17-.71 1.49-.9 1.89M79.46 1.63 77.99.44l-2.4-1.58-1.97-1.4-1.58-1.31-1.48-1.26-1.41-1.2-1.22-1.12-.84-1.1-.36-1.1.13-1.14.41-1.17.12-1.09-.87-.93-2.13-.79-2.54-.77-1.25-.2" filter="url(#a)"/><path d="m60.6-15.72-.06.51.04 1.28.1 1.18.13 1.05.1 1.01.04 1.01-.03 1.03-.12 1.06-.16 1.1-.2 1.13-.19 1.16-.15 1.17-.12 1.18-.07 1.16-.04 1.14-.02 1.12-.06 1.09-.13 1.04-.23.99-.36.98-.45 1.05-.46 1.27-.33 1.94m-95.39-71.01 1.37-1.12.8-.53.83-.27.92-.13.92-.11.85-.18.83-.26.85-.25.93-.21 1-.22 1.03-.33.99-.45.92-.43.83-.12.92.38 1.74.47m-16.9 5-1.04.47-.82.13-.88.1-1.02.23-1.06.45-1.04.59-1.05.6-1.09.47-1.11.36-1.08.32-.99.39-.85.52-.76.6-.71.59-.77.56-.8.68-.76 1.08-.91 1.44" filter="url(#a)"/><path d="m-40.38-58.1.63-.74.69-.86.74-.87.78-.88.76-.87.71-.87.64-.87.6-.89.54-.92.51-1 .45-1.11.44-1.23.48-1.31.59-1.26.77-1.17 1.03-1.23 2.02-1.67-12.38 17.75.65-.74.61-1.01.46-1.38.35-1.64.35-1.63.47-1.32.63-.94.75-.66.77-.6.68-.79.54-1.12.43-1.44.42-1.62.55-1.56.74-1.38.87-1.21.83-1.22.62-1.21.61-.94 1.66-.85-33.52 31.48 1.32.41 1.28.03 1.4-.14 1.46-.33 1.42-.49 1.27-.55 1.09-.55.9-.58.73-.66.6-.78.5-.89.46-.97.48-.97.62-.88.89-.69 1.27-.35 1.71.09 1.96.18 1.68-.77m-2.39 2.67-.67.98-.69 1.01-.66.87-.59.77-.55.75-.52.78-.49.79-.48.8-.46.83-.47.89-.51.98-.54 1.06-.56 1.05-.52.99-.43.88-.35.86-.4 1.06-.78 1.65M54.64 3.47l.59-1.22.45-1.01.43-1.04.38-1.09.28-1.09.24-1.11.32-1.13.48-1.13.61-1.12.64-1.09.51-1.06.25-1-.07-.97-.33-.94-.39-.99-.27-1.11-.02-1.26.25-1.37.93-1.98.42 1.64.24 1.27.21 1.24.19 1.15.17 1.06.16 1.01.16 1 .17 1 .19 1.03.18 1.06.18 1.1.15 1.16.13 1.18.12 1.2.12 1.21.12 1.2.1 1.16.05 1.15.01 1.42" filter="url(#a)"/><path d="m-37.85-80.5-.45.88-.09 2-.21 1.82-.41 1.44-.56 1.2-.58 1.2-.47 1.43-.35 1.69-.26 1.81-.25 1.73-.28 1.53-.29 1.34-.28 1.23-.31 1.24-.38 1.25-.54 1.22-.69 1.13-.69 1.15-.32 1.39.08 1.02-.33.54.3-.45.35-.77.45-1.1.56-1.17.68-1.06.72-.9.71-.77.63-.73.57-.74.55-.81.58-.9.63-.98.66-1.04.67-1.03.66-.96.69-.83.67-.72.05-.35-17.81 42.86.06-.29-.22-.75-.21-1.05-.1-1.08.01-.97.12-.91.23-.9.32-.93.39-.95.43-.97.43-.99.41-1.03.37-1.1.32-1.18.26-1.24.19-1.24.18-1.19.23-1.11.34-1.08.41-1.22.4-1.43.36-1.47.53-1.02m-28.75 13.08 3.16-.63 2.1-.73 1.65-.41 1.81-.1 1.93-.12 1.73-.38 1.28-.71.87-.97.67-1.04.77-.96.99-.85 1.15-.8 1.09-.85.94-.87.96-.65 1.32-.17 1.76.19 1.7-.22 1.58-.85M60.04-18.66l-.25-1.32-.15-1.14-.05-1.33.16-1.54.45-1.66.68-1.71.7-1.68.52-1.62.23-1.5-.03-1.3-.21-1.07-.26-.89-.15-.92.11-1.25.37-1.75.41-1.99.46-2.01" filter="url(#a)"/><path d="m-49.97-45.27 1.45-.66 1.06-.6.53-.79.48-.68.68-.46.85-.31.89-.33.8-.43.7-.56.7-.63.8-.61.96-.52 1.08-.45 1.07-.42.84-.41.04-.16-14.2 10.13-.06-2.83.19-2.06.43-1.38.5-.99.5-.82.42-.87.27-1.09.01-1.45-.29-1.83-.46-2.12-.41-2.18-.11-2.03.22-1.87.42-1.87.69-1.81 1.71-1.23-3.55 25.66-.01-.26.37-1.26.53-1.35.55-1.17.47-1.04.38-.99.3-1.01.28-1.06.32-1.06.39-1.01.5-.95.62-.91.69-.94.71-1.02.65-1.14.51-1.24.33-1.26.18-1.16.27-1.02.73-1.09" filter="url(#a)"/><path d="m-51.66-42.43.58-.88.55-.72.75-.88.85-.9.85-.8.81-.66.82-.49.88-.35.96-.24 1-.21.95-.28.85-.44.75-.6.7-.74.71-.8.76-.75.77-.65.77-.43.78-.1.89.09.99-.33" filter="url(#a)"/><path d="m-51.63-42.28-1.13-1.55-.27-1.2.36-.91.6-1.01.58-1.17.47-1.23.39-1.19.33-1.1.3-1.08.25-1.15.18-1.26.12-1.36.12-1.4.17-1.46.28-1.51.47-1.44.7-1.25.39-1.69-5.56 25.44-.1-.97-.59-1.9-.42-1.67.15-1.11.57-.84.66-.94.5-1.24.2-1.52-.07-1.69-.28-1.78-.49-1.93-.69-2.21-.89-2.56-.93-2.65-.8-2.2-.64-1.23 2.27 29.96-.55-.69-.29.67-.48.99-.65.97-.66.9-.57.84-.46.8-.4.83-.41.87-.43.95-.44 1.04-.45 1.17-.49 1.3-.54 1.37-.58 1.33-.6 1.14-.6.96-.62.73-.47.03" filter="url(#a)"/><path d="m-54.43-36.28.02-.29-.26.66-.39 1.02-.41 1.09-.37 1.05-.32.95-.28.88-.27.87-.26.92-.26.99-.27 1.08-.3 1.19-.33 1.31-.37 1.37-.34 1.34-.27 1.2-.19 1.03-.15.83-.09.15 8.7-46.68.01 2.41-.37 1.54-.32 1.24-.17 1.33-.12 1.4-.16 1.34-.18 1.28-.2 1.26-.26 1.28-.35 1.3-.36 1.34-.22 1.44.05 1.56.26 1.63.27 1.57.05 1.47-.21 1.46-.41 1.71-.9 2.48" filter="url(#a)"/><path d="m-69.45-23.42 1.13-.59.96-.91 1.09-1.31 1.12-1.38.99-1.23.9-1.02.97-.8 1.12-.61 1.23-.45 1.16-.41.88-.57.51-.89.25-1.18.42-1.2 1.15-.83 1.35-.64-.87.96-.98.96-.66 1.06-.48 1.03-.49.89-.54.77-.58.74-.57.81-.56.92-.59 1.03-.67 1.13-.75 1.2-.82 1.23-.87 1.17-.89 1.05-.89.9-.87.81-.77.81-.64.88-.57.89-.36.57 14.42-19.81-3.01-.48-.41 1.34-.06 1.48-.33 1.19-.54.88-.55.75-.47.78-.41.87-.46.95-.59 1-.78 1.07-.91 1.17-.96 1.26-.94 1.24-.88 1.09-.85.92-.78.72-.7-.03 13.63-16.2.21-.2.53-1.21.48-1.37.34-1.32.24-1.24.22-1.14.27-1.14.3-1.21.26-1.39.12-1.56-.04-1.64-.1-1.55.01-1.33.26-1.11.46-1.08.35-1.39-.2-1.71" filter="url(#a)"/><path d="m-54.22-37.44 2.57 1.46 2.02-.03 1.22-.71.47-1.13.1-1.24.12-1.13.32-.97.58-.82.8-.67.99-.48 1.12-.26 1.17-.09 1.13-.03.99-.13.8-.31.67-.45.68-.3 1.04.15 1.65.32m-24.93 28.44.28-1.2.24-.97.21-.86.22-.9.23-1.03.29-1.17.33-1.29.35-1.34.36-1.3.33-1.2.32-1.08.31-.99.29-.91.28-.83.29-.83.35-.91.42-1.05.49-1.15.67-1.48M59.7-20.47l1.15-1.17 1-1.73.64-1.86.54-1.77.31-1.59.05-1.45-.02-1.43.12-1.49.33-1.54.55-1.6.76-1.68.93-1.83.96-1.97.83-2.01.48-1.91.04-1.69-.3-1.5-.35-1.48-.11-1.68.24-2 .39-2.2.04-1.99-.1-1.66" filter="url(#a)"/><path d="m59.7-20.47-.21-.68.03-1.36.17-1.62.18-1.56.18-1.49.24-1.48.25-1.48.19-1.43.07-1.29-.04-1.16-.06-1.14.07-1.25.33-1.51.65-1.83.91-2.12 1.04-2.27.95-2.26.7-2.12.43-2 .31-1.98.29-2 .2-1.85.26-1.56 1.39-1.71M-55.4-34.23l-1.01.25-1.05.69-.69.74-.65.64-.7.65-.6.8-.39 1.01-.21 1.22-.18 1.35-.32 1.38-.52 1.32-.7 1.19-.76 1.05-.74.94-.63.91-.53.92-.44 1.01-.41 1.13-.44 1.29-.56 1.41-.73 1.35-.94.68 21.37-41.94-.63 1.51-.48 1.05-.44.81-.43.83-.45.96-.49 1.1-.53 1.14-.53 1.1-.51 1.02-.47.98-.43 1.02-.4 1.12-.39 1.22-.39 1.27-.35 1.2-.3 1.06-.32 1.07-.63 1.55" filter="url(#a)"/><path d="m-55.48-34.01-1.05 1.25-.66.86-.78.45-1.12.34-1.31.43-1.22.59-.94.83-.6 1.15-.38 1.41-.37 1.51-.53 1.39-.75 1.12-.86.89-.79.75-.54.73-.43 1.09 12.28 4.75-.43-1.3-.22-1.01-.18-.92-.25-.99-.32-1.13-.27-1.3-.09-1.4.15-1.39.33-1.29.39-1.14.27-1.09.07-1.12-.14-1.11-.22-.89-.11-.59.4-1.37" filter="url(#a)"/><path d="m-53.26-61.17-.5 1.96-.5 1.22-.36 1.07-.36 1.07-.43 1.18-.43 1.32-.34 1.47-.18 1.56-.01 1.6.1 1.62.11 1.63.03 1.58-.11 1.52-.23 1.41-.26 1.32-.17 1.29-.04 1.34.02 1.42v3.45l-.29 2.61m-.33.85-.42.95-.76.61-.88.96-.92 1.25-1 1.24-1.06 1.06-1.04.9-.89.82-.66.85-.42.95-.25 1.07-.21 1.2-.29 1.29-.44 1.31-.59 1.24-.59 1.14-.56 1.27-.95 2.1m11.6-18.57.49-1.46.4-1.22.33-.87.37-.73.47-.78.55-.86.58-.92.61-.91.63-.89.67-.88.69-.9.69-.93.67-.93.65-.88.65-.79.64-.75.64-.79.64-.96.71-1.07.85-.92 1.01-.46m-13.04 19.01-.78 2.91-.58 1.72-.54 1.11-.62.85-.66.78-.61.81-.48.89-.3 1.03-.17 1.16-.1 1.24-.14 1.26-.24 1.22-.38 1.17-.52 1.15-.61 1.17-.61 1.21-.54 1.23-.39 1.17-.3 1.08-.62 1.4" filter="url(#a)"/><path d="m-67.81-5.2.99-2.43.38-1.39.42-1.16.55-1.1.5-1.13.36-1.22.27-1.27.33-1.21.5-1.07.66-.93.7-.83.57-.82.32-.9.03-1.06-.09-1.34.48-1.78 2.87-2.09m117.36 6.11.32.72.34 1.02.35 1.12.39 1.17.51 1.17.68 1.12.83 1.05.94.99.95.96.88.96.74.99.55 1.05.34 1.12.15 1.2.04 1.25.02 1.3.07 1.31.19 1.32.3 1.32.4 1.32.5 1.35.58 1.5.42 1.7L55.39-48.4l-.16.55.13 1.01.25 1.22.29 1.27.32 1.24.3 1.23.21 1.27.11 1.35.03 1.39-.01 1.37.01 1.29.06 1.15.11 1.04.2.97.27.98.33 1.03.41 1.08.49 1.07.63 1.03.75 1.03.61 1.27-.15 1.81-1.19 1.93-.17-.87.31.72.7.72 1.16.74 1.26.83 1 .99.73 1.12.71 1.16 1.01 1.09 1.49.96 1.88.86 1.97.83 1.68.88 1.19 1 .92 1.09 1.23 1.12 2.14 1.22 3.59 2.42M58.14-25.92l-.64-1.25-.43-1.33-.36-1.23-.32-1.05-.31-.85-.31-.75-.38-.76-.45-.84-.51-.92-.55-.97-.55-.97-.52-.96-.5-.96-.47-.97-.49-.98-.55-1-.62-.95-.61-.75 8.06 16.16.2.96-.1 1.09-.36 1.47-.52 1.6-.5 1.53-.34 1.36-.09 1.21.19 1.1.37 1.05.4 1.04.23 1.08-.07 1.11-.44 1.14-.77 1.13-1.02 1.12-1.1 1.1-.96 1.05-.55.96-.21.75-.82-.08 5.2-26.26-.39-.5-.37-.26-.4-.61-.43-.94-.43-1.09-.44-1.08-.47-1.04-.48-1-.5-.96-.51-.95-.55-.91-.6-.87-.64-.8-.66-.75-.63-.74-.59-.73-.56-.77-.68-.96-1.22-1.57" filter="url(#a)"/><path d="m56.37-31.74-.26-.57-.34-.27-.7-.41-1.02-.54-1.13-.6-1.03-.67-.82-.76-.67-.8-.66-.78-.76-.67-.89-.57-.95-.49-.91-.49-.85-.49-.81-.46-.85-.38-.9-.32-.89-.62-.86-1.63 15 10.41.56 1.08 1.79.63 2.77.16 2.41.28 1.26.79.3 1.27.02 1.48.29 1.44.75 1.26 1.07 1.08 1.13 1 1.02 1.04.89 1.14.96 1.21 1.32 1.23 1.93 1.15 2.39.96 1.53 1.16" filter="url(#a)"/><path d="m56.07-32.85-.07.14-.29-.62-.44-1.05-.48-1.16-.47-1.12-.46-1.07-.46-1.04-.47-1.01-.48-1-.48-1-.49-.98-.48-.96-.5-.94-.5-.92-.52-.91-.54-.92-.56-.94-.55-.93-.56-.9-.56-.86-.56-.81-.57-.82-.55-.85-.47-.84m11.51 21.51.27-.05-.25-.63-.52-1.02-.56-1.11-.5-1.11-.46-1.08-.42-1.07-.41-1.07-.4-1.07-.39-1.08-.38-1.08-.37-1.08-.36-1.07-.37-1.07-.37-1.08-.38-1.1-.4-1.12-.45-1.09-.48-1.02-.52-.93-.54-.87-.59-.88-.7-.82" filter="url(#a)"/><path d="m55.33-60.94-.15 2.31.2 1.65.24 1.6.2 1.53.14 1.45v1.49l-.2 1.63-.38 1.79-.44 1.84-.32 1.73-.06 1.52.28 1.23.54 1.01.62.94.4 1.1-.02 1.48-.32 1.83-.11 1.74.03.59 1.05-.31 2.63-.39 2.19.18 1.07.9.5 1.22.56 1.2.82 1.12.94 1.11.86 1.19.76 1.25.8 1.2 1.05 1.08 1.4.96 1.65.91 1.7 1.02 1.64 1.21 1.61 1.37 2.04.55M56.32-31.78l-.15-.43.15.16.44.62.69.85.83.93.87.95.81 1 .68 1.07.54 1.18.46 1.23.47 1.24.55 1.2.67 1.14.77 1.09.8 1.11.75 1.13.67 1.18.58 1.19.57 1.16.62 1.09.7 1.04.76.98.77.86.35.9" filter="url(#a)"/><path d="m56.32-31.78-.16-.43.1.17.25.68.35.99.39 1.12.42 1.13.43 1.12.43 1.14.42 1.18.41 1.21.39 1.22.37 1.18.34 1.13.31 1.11.29 1.14.28 1.19.28 1.29.26 1.37.06.78 1.71 1.31-.3-.39-.31-.86-.27-1.13-.24-1.25-.27-1.26-.3-1.21-.37-1.16-.41-1.14-.44-1.15-.44-1.18-.43-1.22-.4-1.23-.37-1.22-.36-1.2-.37-1.17-.39-1.12-.41-1.04-.44-.9-.45-.76-.45-.69-.49-.77-.56-1.01-.59-1.19-.42-1.25M44.01-62.82l1.31 1.53.66 1.35.37 1.36.32 1.25.37 1.12.42 1.03.43 1 .39 1.05.37 1.09.4 1.1.48 1.05.57.97.63.88.63.83.56.87.47.94.44 1.02.52 1.06.53 1.29-.81 2.77.18-2.25-.46-1.32-.48-1.07-.47-.96-.43-.96-.39-1.01-.32-1.1-.3-1.17-.31-1.21-.36-1.18-.4-1.09-.4-1.04-.32-1.12-.2-1.3-.18-1.34-.34-1.04" filter="url(#a)"/><path d="m76.56-34.7-1.01.14-1.29-.71-1.79-.77-1.99-.65-1.9-.48-1.76-.29-1.76-.1-1.86-.02-1.87-.1-1.67-.34-1.27-.67-.81-.96-.59-1.03-.8-.78-1.41-.26-1.85.05-1.34-.42.72.89.75.78.64.8.54.95.48 1.03.49 1.05.52 1.01.52.94.51.83.49.75.52.74.57.8.67.89.74.95.75.96.71.95.67 1.01.71 1.38.83 2.16-12.96-20.96-.39-.64-.54-.95-.51-.89-.53-.9-.57-.91-.59-.88-.58-.82-.58-.78-.56-.75-.56-.76-.56-.77-.56-.77-.61-.77-.69-.81-.85-.94-1.25-1.34 9.93 13.68 1.4-2.35 1.59-3.01.57-1.98-.18-1.35-.58-1.05-.77-.83-.79-.75-.61-.9-.29-1.26.07-1.69.31-1.99.33-2.07.12-1.93-.2-1.76-.39-2-.38-3.22-1.92 25.11 5.22-1.6 2.04-.14.85.66.31 1.2.48 1.17 1.05.75 1.6.34 1.89.15 1.86.23 1.66.46 1.47.7 1.42.77 1.58.52 1.65.06 1.33-.18.7.53" filter="url(#a)"/><path d="m49.38-46.01-.03.07.18 1.12-.03 1.38-.04 1.37.15 1.21.35 1.06.4 1 .3 1.05.1 1.19-.15 1.35-.36 1.49-.47 1.55-.45 1.47-.35 1.26-.29 1.03-.34.91-.44 1.04-.49 1.3-.22 1.26m2.18-22.11-.69-1.49-.68-1.33-.42-1.2-.28-1.17-.28-1.09-.39-.98-.5-.89-.58-.85-.62-.88-.66-.97-.68-1.11-.68-1.23-.66-1.28-.6-1.24-.54-1.14-.5-1.07-.54-1.13-.55-1.24-.24-.82 9.48 19.76.73-3.37 1.04-2.73.77-2.25.04-1.46-.6-.81-.96-.43-1.06-.37-.94-.63-.66-1.13-.35-1.74-.13-2.19-.06-2.35-.06-2.22-.08-1.92-.18-1.65-.57-1.58-.87-2.6" filter="url(#a)"/><path d="m49.32-84.49.53 3.52-.09 2.83.05 2.05.43 1.61.69 1.55.72 1.67.51 1.88.11 2.17-.32 2.44-.62 2.6-.77 2.62-.85 2.57-.86 2.5-.74 2.26-.34 1.78.19 1.36.81 1.72-.69-1.86-.55-.97-.44-.9-.29-1.07-.14-1.3.01-1.52.09-1.73.14-1.92.12-2.11.08-2.26-.03-2.27-.21-2.06-.45-1.61-.71-1.08-.83-.81-.69-1-.28-1.65.19-2.3.31-2.5-.43-2.21 2.31 29.52 1.55.23 1.91-.31 1.52.15.79.78.46 1.04.7.83 1.25.39 1.71.03h1.79l1.5.27 1.03.7.69 1.01.71 1.06 1.07.85 1.53.59 1.77.52 1.53.75.94 1 .54.63 1.03-.73" filter="url(#a)"/><path d="m30.22-60.55 1.42.87.95.4.72.41.66.42.72.38.78.34.81.35.84.39.88.46.96.52 1.05.55 1.08.55 1.03.55.89.59.71.7.56.8.55.8.75.49.7.01" filter="url(#a)"/><path d="m45.18-52.22 1.63-.14 1.45-.18 1.45-.06 1.31.22.91.66.47 1.08.15 1.34.11 1.37.28 1.22.6.97.91.73 1.15.55 1.3.47 1.34.47 1.34.52 1.36.57 1.43.6 1.48.61 1.51.59 1.44.51 1.31.34 1.3.17 1.58.21 1.63.97-33.11-33.88.93 1.01.42 1.06.28 1.3.36 1.33.43 1.22.43 1.19.4 1.34.4 1.52.47 1.61.51 1.59.42 1.54.24 1.51.15 1.38.25 1.09-.02 1.4-.62-.8.65-2.09-.84-.51-1.05-.53-.96-.88-.82-1.11-.66-1.23-.53-1.25-.44-1.25-.38-1.24-.35-1.27-.33-1.29-.32-1.32-.34-1.3-.42-1.22-.52-1.1-.64-1-.73-.95-.78-1.01-.81-1.09-.8-1.21-.8-1.3-.9-1.35-1.04-1.27-.59-.56 13.97 26.51.7.55.98.35.92.42.91.45 1.05.36 1.17.31 1.15.38 1.02.54.89.64.92.64 1.08.51 1.31.35 1.44.3 1.38.39 1.13.64.83.89.75 1 1.14.8 1.66-.08-36.8-29.55.44.77.99 1.06.9 1.01.85.94.83.89.81.87.74.89.65.93.58.94.56.92.55.84.59.75.61.7.63.67.63.7.59.72.57.76.66.84.95 1.14 1.41 1.6.39.78.49.88.44.93.48.87.54.8.58.75.59.77.58.8.55.87.53.91.48.96.43.99.36 1.02.31 1.06.28 1.08.3 1.08.35 1.06.41 1.01.44.98.41.99.39 1.03.28 1.07.09 1.24L39.29-59.5l2.07.41 1.72.47 1.21.64.86.78.65.86.62.82.77.64 1.06.33 1.36.04 1.6-.17 1.68-.18 1.6-.01 1.42.23 1.23.44 1.13.55 1.09.59 1.1.57 1.19.55 1.23.61.71 1.11" filter="url(#a)"/><path d="m38.86-59.56-.77.28-1.09-.04-.8-.57-.6-.72-.57-.67-.62-.6-.68-.55-.73-.51-.79-.46-.87-.38-.95-.34-.99-.32-1-.34-1-.38-.98-.44-.94-.48-.87-.43-.78-.26-.68.02-.61.26 15.41 6.01-.62-1.82.37-2.31-.02-1.51-.6-.67-.75-.61-.53-1.16-.27-1.77-.17-2.11-.27-2.05-.5-1.74-.74-1.33-.94-.95-1.08-.72-1.06-.71-.88-.98-.56-1.47-.3-1.9-.29-2.14-.39-3.22 7.92 27.52 1.31 1.17.85.71.68.63.73.76.81.89.86.96.83.95.78.89.71.85.66.79.63.77.61.75.62.76.61.77.63.81.63.85.61.88.57.9.53.9.53.88.51.78.48.56-4.21-8.32-.75-1.07-.72-.75-.71-.65-.76-.64-.84-.71-.91-.81-.94-.86-.91-.85-.85-.76-.78-.66-.73-.6-.71-.62-.66-.65-.57-.66-.59-.59-1.14-.35" filter="url(#a)"/><path d="m48.48-56.03-.94-.36-.81-.46-.97-.4-1.09-.46-1.14-.58-1.1-.72-.98-.8-.84-.82-.73-.77-.7-.69-.71-.62-.74-.54-.75-.41-.82-.27-.9-.21-1.04-.4-1.64-.73.88.79 1.32-2.62 1.93-1.75 1.48-.69.64.74.2 1.5.26 1.45.58.97.9.5 1.1.26 1.16.28 1.17.45 1.21.56 1.32.48 1.55.19 1.79-.2 1.93-.46 1.85-.44 1.58-.13 1.29.22 1.21.36 1.46.15 1.87.01 2.83.42" filter="url(#a)"/><path d="m59.24-70.48.29-2.08-1.33-.3-2.3.64-2.64.87-2.49.68-2.13.4-1.78.22-1.58.22-1.51.35-1.53.51-1.55.64-1.49.62-1.32.37-1.03-.15-.7-.75-.48-1.16-.61-.98-1.15-.12-1.76.85-1.83 1-.97 1.15-3.17-2.24-.97-.57-.71-.5-.72-.63-.76-.72-.77-.68-.76-.62-.74-.68-.72-.85-.69-1.15-.64-1.5-.61-1.83-.62-2.08-.66-2.17-.76-2.1-.87-1.88-.96-1.6-1.03-1.37-1.02-1.36-.97-1.61-.91-1.93-.89-2.04-.86-1.76-.78-1.58-1.1-2.91 19.52 34.12.49.5 1.01.81.93.78.85.74.85.71.84.7.77.72.67.78.59.83.54.85.53.79.55.71.58.63.65.63.69.7.58.8.07.77" filter="url(#a)"/><path d="m26.18-69.74-1.03-.35-.8-.17-.83-.16-.88-.25-.86-.3-.83-.27-.81-.17-.84-.09-.88-.01-.91.01-.91-.01-.89-.04-.89-.05-.96-.03-1.02-.02-.86-.1-.51-.24 11.16.43-.86-.97-.49-1.07-.62-.58-.82-.18-.92-.08-.92-.22-.88-.44-.85-.66-.85-.8-.91-.84-.96-.8-1.01-.71-1-.57-.97-.45-.92-.37-.91-.39-.92-.41-.79-.31-.01-.33" filter="url(#a)"/><path d="m21.16-72.24 1.49.05 1.52-.97 1.43-1.28 1.35-1.12 1.35-.85 1.45-.7 1.54-.66 1.59-.6 1.55-.43 1.47-.19 1.38.02 1.31.11 1.25.14 1.2.17 1.16.2 1.23.07 1.39-.4 1.51-1.13 1.36-1.88-26.53 9.45.25 3.86.93.67.89.03.75.26.65.63.66.88.73.89.82.75.87.63.85.63.76.75.64.9.53 1.02.46 1.02.44.98.4.97.22 1.1-.07 1.23-.11.52m-11.6-17.81-.78-.67-.88-.56-.88-.41-.88-.33-.88-.28-.93-.26-.99-.29-1.03-.3-1.03-.32-1-.31-.93-.3-.89-.27-.86-.25-.85-.25-.78-.23-.68-.21-.97-.33" filter="url(#a)"/><path d="m17.93-73.46-.5-.15-.87-.21-.9-.02-.99.14-1.07.16-1.09.04-1.05-.08-.99-.13-.93-.1-.87-.04-.85-.01-.81.02-.79.07-.79.19-.86.34-1 .5-1.2.61-1.28.61-1.05.16 5.07-8.43 1 .28.66.38.76.5.85.43.86.33.88.28.94.28 1.01.31 1.05.33 1.04.41.94.56.82.72.75.74.79.56.47.22" filter="url(#a)"/><path d="m-1.73-81.45.05.37.51.38.76.38.88.4.98.4 1.06.34 1.07.28 1.02.24.94.23.88.26.84.27.84.28.87.26.9.22.96.18 1.02.16 1.07.23 1.07.33 1.02.39.9.4.82.6 1.42 1.45-2.16-.87.2.86.87.5.81.73.71.89.68.77.72.52.78.33.77.36.71.57.62.82.53 1.04.5 1.12.55 1.1.63 1.05.64 1.08.53 1.25.43 1.43.57 1.24.63.51-12.12-16.29-2.07-.49-1.22-.15-1.05-.12-.97-.16-.9-.15-.86-.1-.83-.02-.82.03-.81.05-.83.04-.89.01-1-.01H2.42l-1.05.05-.92.07-.87.04-1.6-.08" filter="url(#a)"/><path d="m15.75-74.39-2.06-.65-1.12-.91-.9-1.46-.79-1.83-.74-1.81-.75-1.37-.81-.72-.88-.14-.92.08-.96-.16-1.01-.73-1.08-1.4-1.12-1.92-1.12-2.14-1.06-2.03-.97-1.75-.87-1.5-.59-1.35-.05-.25m14.58 21.22 1.6 2.67.77 1.44.78.25.9-.14.88.02.77.46.61.92.5 1.21.48 1.23.55 1.04.61.85.57.82.45 1.03.27 1.34.23 1.55.5 1.38 1.53.94" filter="url(#a)"/><path d="m-5.37-63.02.49-.47.95-1.25.92-.95.76-.74.65-.8.61-.87.65-.82.73-.64.82-.4.9-.21.93-.14.93-.19.9-.29.85-.39.82-.39.82-.29.81-.15.84-.11.9-.15.97-.12.89-.22.76-2.6.06-.13 1.12-1.38 1.51-1.31 1.15-.45.93.14.87.4.9.39.96.18 1.03-.13 1.11-.44 1.21-.7 1.29-.88 1.36-.98 1.41-1.03 1.43-1.07 1.51-1.12 1.64-1.18 1.87-1.24 2.05-1.34 1.88-1.63 1.11-2.54-1.17 18.88-1.96-.31-1.46-.42-1.27-.38-1.21-.28-1.22-.17-1.22-.09-1.17-.05-1.09-.05-1.02-.04-1-.02h-.99l-.99-.01-.95-.06-.91-.15-.89-.2-.89-.18-.94-.07-.98.07-.97.08-.95-.06-1.01-.32-1.17-.37-.91.51" filter="url(#a)"/><path d="m8.81-75.83 2.17.4 1.29.28 1.07.35.98.51.86.69.75.91.67 1.1.61 1.2.6 1.16.61 1.03.61.88.62.78.62.79.59.84.55.9.54.93.54.9.57.91.6.96.57 1.12.47 1.29.44 1.31 1.23 1.08M9.52-75.96l-.71-.75-1.04-.21-.92.05-.84.08-.87.02-.95-.07-1.02-.14-1.04-.18-.98-.21-.89-.23-.82-.23-.77-.2-.77-.18-.85-.14-.96-.12-1.07-.1-1.12-.07-1.1-.02-1.03.03-.95.05-.58.01" filter="url(#a)"/><path d="m-11.09-64.19 1.21-.74.78-1.41.6-1.19.6-.88.71-.7.8-.68.88-.75.92-.82.9-.8.85-.7.78-.54.73-.43.71-.41.75-.43.84-.39.96-.2 1.04.14 1.08.42.98.26.74-.64.12-1.35-.99.02.99.01.72-.28.84-.23.9-.06.91.02h.96l1.02-.06 1.09-.08 1.1-.05h1.1l1.06.04 1.01.09.98.14.95.19.93.22.92.18.9.12.89.12.9.24.96.44 1.03.45.91.07" filter="url(#a)"/><path d="m-22.8-91.55 2.17 1.78 1.86 1.39 1.48.82 1.28.49 1.25.31 1.2.11 1.14-.13 1.05-.33 1-.32 1.02-.07 1.09.35 1.18.74 1.22.92 1.2.84 1.12.57.99.23.86-.03.79-.15.78-.07.84.37 1 1.18 1.34 2.17 1.78 3.9-1.89 1.31-1.33.39-.94.01-.77.07-.69.33-.66.55-.71.63-.79.6-.88.52-.94.44-.95.34-.92.24-.86.14-.8.15-.77.26-.78.47-.86.64-.92.7-.8.76-.34 1.26L.92-76.65l-.57.07-.6.03-.68.05-.68.09-.75.12-.87.14-.97.13-1.02.13-1.02.12-.98.1-.93.12-.89.14-.9.19-.9.24-.94.3-.94.36-.95.41-.92.42-.91.42-.85.37-.74.32-.59.28-.53.31-.74.39" filter="url(#a)"/><path d="m-17.8-95.72 1.58.7 1.71 1.08 1.54 1.61 1.3 1.58 1.13 1.09 1.07.56 1.09.36 1.18.55 1.25.93 1.27 1.23 1.18 1.3 1.01 1.08.84.62.75.17.7.49.59 2.48.53 3.24-14.7 4.67.52-.52.89-.48 1-.48.95-.45.84-.38.79-.33.81-.3.87-.31.96-.3 1.02-.29 1.04-.25.97-.17.84-.12.69-.08.67-.09.72-.07.25.03" filter="url(#a)"/></g><g fill="none" stroke="#000"><circle cx="10.89" cy="4.56" r="1.252" filter="url(#a)"/><circle cx="8.478" cy="7.948" r="2.616" filter="url(#a)"/><circle cx="11.858" cy="6.832" r="2.358" filter="url(#a)"/><circle cx="9.762" cy="5.86" r="2.512" filter="url(#a)"/><circle cx="8.762" cy="6.812" r="2.23" filter="url(#a)"/><circle cx="9.09" cy="5.768" r="1.678" filter="url(#a)"/><circle cx="10.294" cy="5.32" r="2.406" filter="url(#a)"/><circle cx="9.338" cy="8.092" r="1.942" filter="url(#a)"/><circle cx="10.094" cy="4.968" r="2.752" filter="url(#a)"/><circle cx="11.142" cy="6.86" r="2.602" filter="url(#a)"/><circle cx="-11.692" cy="3.38" r="1.226" filter="url(#a)"/><circle cx="-8.228" cy="-.34" r="2.802" filter="url(#a)"/><circle cx="-10.904" cy=".236" r="2.354" filter="url(#a)"/><circle cx="-11.352" cy="1.676" r="2.84" filter="url(#a)"/><circle cx="-11.604" cy="-.028" r="1.75" filter="url(#a)"/><circle cx="-8.492" cy=".308" r="1.836" filter="url(#a)"/><circle cx="-10.528" cy="1.52" r="2.012" filter="url(#a)"/><circle cx="-11.088" cy="1.912" r="1.532" filter="url(#a)"/><circle cx="-9.236" cy="2.496" r="2.776" filter="url(#a)"/><circle cx="-11.508" cy=".796" r="2.516" filter="url(#a)"/></g><path fill="#66A9CC" stroke="#000" stroke-linejoin="round" stroke-width="3" d="m-36.68 50.02.21-.38.23-.38.26-.39.28-.38.31-.38.33-.38.36-.38.38-.38.4-.38.43-.37.45-.37.47-.38.49-.36.51-.37.54-.37.55-.36.57-.35.59-.36.6-.35.63-.35.64-.34.66-.34.67-.34.69-.33.71-.33.72-.32.73-.32.75-.31.75-.31.78-.3.78-.3.79-.29.81-.28.81-.28.83-.27.84-.27.84-.26.85-.25.86-.25.87-.23.87-.23.88-.22.89-.22.89-.2.89-.2.9-.19.9-.18.91-.17.91-.16.91-.16.91-.14.91-.14.92-.12.91-.11.92-.11.91-.09.91-.09.91-.07.9-.06.91-.05.9-.04.89-.03.89-.01.89-.01.88.01.88.02.86.04.86.04.86.06.84.07.84.09.82.09.82.12.81.12.79.14.79.15.77.17.76.18.75.2.73.21.72.23.71.24.69.26.68.28.66.29.64.3.63.32.61.34.59.36.57.37.56.39.53.41.52.42.49.44.47.46.46.48.42.49.41.51.39.54-.7-.19-.69-.18-.7-.17-.69-.16-.69-.15-.7-.15-.69-.14-.7-.13-.69-.13-.69-.11-.7-.11-.69-.11-.7-.09-.69-.09-.69-.08-.7-.08-.69-.07-.7-.06-.69-.05-.69-.05-.7-.04-.69-.04-.7-.03-.69-.02-.69-.02-.7-.01-.69-.01h-.7l-.69.01-.69.01-.7.02-.69.02-.7.03-.69.04-.69.04-.7.04-.69.05-.7.05-.69.06-.69.07-.7.07-.69.07-.7.08-.69.08-.7.09-.69.09-.69.1-.7.1-.69.1-.7.11-.69.12-.69.11-.7.12-.69.13-.7.12-.69.14-.69.13-.7.14-.69.14-.7.14-.69.15-.69.15-.7.16-.69.15-.7.16-.69.17-.69.16-.7.17-.69.17-.7.17-.69.18-.69.17-.7.18-.69.19-.7.18-.69.18-.69.19-.7.19-.69.19-.7.19-.69.2-.69.19-.7.2-.69.2-.7.2-.69.2-.69.2-.7.2-.69.21-.7.2-.69.2-.69.21-.7.21-.69.2-.7.21-.69.21-.69.2-.7.21-.69.21" filter="url(#a)"/></svg>