<svg xmlns="http://www.w3.org/2000/svg" width="500" height="500" viewBox="-100 -100 200 200"><defs><clipPath id="c"><path d="m18.65-2.93-.14-.15-.16-.15-.18-.15-.21-.15-.23-.14-.25-.14-.28-.14-.29-.14-.31-.13-.33-.14-.35-.13-.36-.13-.38-.12-.4-.12-.4-.12-.47-.14-.49-.14-.51-.14-.51-.13-.54-.13-.54-.12-.56-.12-.57-.12-.58-.11-.59-.1-.6-.1-.61-.09-.62-.09-.63-.08-.63-.07-.64-.07-.64-.06L4-6.84l-.65-.05-.65-.03-.66-.03-.66-.02-.66-.02H-.59l-.65.01-.65.03-.65.02-.64.04-.64.05-.63.05-.62.07-.61.07-.61.08-.6.08-.59.1-.57.1-.57.11-.55.12-.54.13-.52.13-.52.14-.49.14-.49.15-.46.16-.46.16-.43.17-.42.17-.4.18-.39.18-.37.19-.35.19-.34.19-.33.21-.31.2-.29.21-.27.22-.26.22-.25.23-.22.23-.21.23-.2.24-.17.24-.16.25 1.61 1.8.16.29.17.29.19.28.21.28.23.28.24.28.26.27.28.27.29.27.31.26.32.25.34.25.36.25.37.24.38.23.4.23.42.22.43.22.45.21.47.2.48.2.49.18.5.17.52.17.53.15.54.13.55.13.56.11.56.09.58.08.58.07.59.04.6.04.59.01.61.01.61-.02.6-.03.62-.05.61-.06.61-.08.61-.1.62-.1.61-.13.61-.13.6-.16.61-.16.59-.17.6-.19.59-.2.58-.2.58-.22.58-.22.56-.23.56-.24.55-.23.54-.25.54-.24.52-.25.52-.25.51-.24.49-.25.49-.24.47-.24.46-.24.38-.22.38-.22.36-.22.34-.21.34-.22.31-.22.31-.21.28-.22.27-.21.24-.21.23-.2.21-.21.19-.2.16-.19.14-.2"/></clipPath><clipPath id="b"><path d="m-18.02-3.31.02-.16.05-.16.08-.16.11-.16.14-.16.16-.16.19-.16.2-.16.23-.15.25-.16.27-.15.29-.15.3-.15.32-.15.33-.15.44-.17.44-.17.45-.16.47-.17.47-.16.48-.16.49-.15.5-.15.51-.15.51-.14.52-.13.53-.13.53-.12.54-.12.54-.1.55-.1.55-.09.56-.09.56-.07.57-.06.57-.06.57-.04.58-.04.58-.02.58-.01.58-.01.58.01.59.02.58.03.58.04.59.05.58.06.58.07.58.09.57.09.58.1.56.12.57.12.55.13.55.15.55.15.54.16.52.16.52.18.51.18.5.19.49.2.48.2.47.2.45.22.44.21.43.23.43.23.41.23.4.24.39.25.38.25.36.26.36.26.34.27.33.27.32.28.3.28.29.28L14.59.91l.01.38-.02.37-.03.37-.04.37-.07.36-.09.36-.11.35-.12.34-.14.34-.16.33-.18.32-.2.32-.21.3-.23.29-.25.29-.27.28-.29.27-.3.26-.32.25-.34.24-.36.22-.37.21-.4.2-.4.18-.43.16-.43.14-.46.12-.47.11-.48.08-.49.07-.51.04-.52.02h-.53l-.54-.02-.55-.04-.56-.06-.57-.09-.58-.1-.59-.13-.59-.14-.6-.16-.6-.18-.62-.19-.61-.22-.62-.22-.62-.24-.62-.25-.63-.27-.62-.27-.63-.29-.63-.29-.62-.29-.62-.3-.62-.3-.62-.31-.61-.3-.61-.3-.6-.3-.59-.3-.58-.29-.58-.28-.56-.27-.56-.27-.54-.25-.43-.26-.43-.26-.4-.26-.39-.25-.38-.26-.35-.25-.34-.24-.31-.24-.29-.24-.27-.24-.25-.23-.21-.23-.19-.22-.16-.22-.12-.22"/></clipPath><filter id="a"><feTurbulence baseFrequency=".05" numOctaves="3" result="noise" type="noise"/><feDisplacementMap in="SourceGraphic" in2="noise" scale="2"/></filter></defs><rect width="100%" height="100%" x="-100" y="-100" fill="#F2A6B2"/><path fill="#20DFC1" stroke="#000" stroke-linejoin="round" stroke-width="1.667" d="m56.03-.15-.06.56.07 2.46-.05 1.32-.04-.03-.11 1.13.05 2.27-.2.8-.13 1.99-.21 2.34-.03 1.1-.13.02-.08 2.06-.27 2.02-.02-.6-.33 1.78-.28 2.2h-.03l-.46 3.18-.1.47-.31 1.46-.58 2.25.05.35-.13.61-.8 2.87-.13.05-.46 2.4-.6 1.12-.05.26-.18.66-.84 2.73-.3.43-.32 1.02-.3 1.56-.6 1.03.18-.08-1.33 3.04-.25.56-.45 1.01-.27.25-1.39 2.97.58-.98-1.07 1.96-.25 1.07-.71.9-.54 1.25-1.19 1.89.03-.08.15-.19-1.32 1.94-.36.74-1.27 1.72-.63 1.17-.82 1.15-1.02.91.38-.28-.27.04-.3 1L34.72 67l-1.35 1.53-.91 1-.4.45-.56.25-.75.9.25.19-2.76 2.34-.13.49-.76.47-1.15.81-.49.59.69-.5-1.73 1.21-.95.26-.86.97-1.1.8-1.21.38-.62.74h-.31l.05.23-1.25.76L16 82.01l1.09-.93-.95.62-1.12.53-1.03.5-1.21.38-1.6.75.5-.59-2.3.72-.47.48-.32-.13-.69.35-1.07-.01-.75.33-.82.06-1 .2h-.08l-3.34.26 1.39-.07-1.7-.14-1.05-.17-.12.19-.38.1-1.29-.18-1.52.06.26.04-1.65-.2-1.75-.21-.01-.1-1.85-.67-.14.12.25.26-1.6-.71-1.52-.64-1.42-.4-.95-.33.07-.11-.07.13-.96-.11-1.1-.7-.64-.39-.68-.13-1.44-.93-.26-.17-.23-.04-1.62-.81-.73-.7-1.87-1.39-1.34-.7.62.07-1.24-.7.15.08-1.16-.78-.82-1.02-.41.11-1.77-1.45-.01-.6-.44-.31-1.78-1.46-.4-.71-.87-.7-.12-.4-.23.06-.7-1.19-1.28-1.18-.44-.43-.67-1.13-1.4-1.95.03-.06-.56-.46-.21-.48-1.79-3-.67-.67.14-.34-.52-.5-.3-.56-1-1.99-.92-1.21-.38-.99-.77-1.61-.56-.68-.41-1.26-.98-2.5-.01.46-.03-.26-.46-.86-.87-2.04-1.14-3.21.55 1.33-.27-.88-.3-.57-.57-2.06-.34-.25-1-4.01.28.97-.77-2.71-.68-2.07.06-.43-.05-.18-.56-1.98-.5-2.68.16 1.49-.21-1.61-.17-.88-.34-1.14-.65-4.11-.14-1.47.2 1.73-.29-2.39-.09-1.5-.32-2.45-.14-1.54-.08-.92-.16-.5-.07-2.09.06-1.25-.26-1.2.09-1.75.04.04-.19-2.29.14-2.31-.14.02.18-.47.05-3.45-.09-.28.11-.16.22-4.24-.25 2.05.09-2.02.3-3.45.15.74.23-3 .02.37.33-3.16.04-.5.18-1 .29-1.43.25-2.28.53-1.37.14-1.34-.28.91.26-.78.4-2.26.91-3.33.09-.63.19-.53.5-1.98.2-.61.79-2.9-.28 1.53.74-2.4.51-1.55.6-1.69-.12.64 1.37-3.63-.67 1.27.99-2.43.16.11 1.28-2.96.04-.07.6-.89 1.03-2.26-.25.17 1.04-2.15.29-.05.27-.93.13-.01.9-1.87 1.14-1.63 1.25-2.16-.4.81.61-1.2-.36.66 1.79-2.64.63-.55 1.42-1.84-.06.15.84-1.07.26-.41.78-.69.04-.43 1.22-1.1.65-.6 1.6-1.56.57-.73.02-.09 1.52-1.53.38-.34.24-.03 1.96-1.89 1.33-.7-.74.32 1.39-1.1.53-.06 1.2-.8.57-.72-.5.7 2.06-1.44.85-.43 1.03-.55 1.4-.71-.09.41.46-.6.65-.22.45.01 2.78-1.39-.2.08 1.02-.39 1.42-.22.84-.37 1.4-.22.27-.02.91-.09-.1.01 1.07-.06 1.45-.22.64-.05 1.25-.34 1.15.15-.52-.13 1.84.13.93-.19.62-.12 1.07.21-.4.28 1.68-.28 2.09.28-.47-.09 1.52.33 1.22.29.64.22 1.19.6 1.18-.05.26.27.72.39-.04.08 2.27.74.48.23.49.03 2.13 1.04-.41-.03.31.21.92.37 1.11.34.38.39 1.67.79 1.38 1.01-.96-.64.95.96 1.46.94 1.25 1.1.91.63.72.58.38.47-.75-.94 2.47 2.27.43.75 1.46 1.26-.22-.25 1.53 1.82-.39-.5 1.39 1.41.17.28 1.1 1.42 1.52 1.47.59 1.03.22-.02.64 1.47.35.06.33.38.22.58.56.63 1.34 2.38.03.15 1.45 2.51.29.19.49 1.03.2.22 1.77 3.39.19.56.32.57-.04.03 1.22 3.16.53.71-.09.01.46.84.92 2.61.33.62.01.4.68 1.78.2.42.24 1 .54 1.15.31 1.43.93 2.83-.09.22.69 2.11-.13-.52.69 3.2-.06-.69.35 1.22.33 1.83.23 1.52.25.53.01 1.45.23 1.32.21.35.32 1.68.13 2.58.43 3.28-.23-3.44.51 5.75-.26-1.22.35 4.46.14-.56-.01 1.45.01.46-.06.64.29 3.66-.26-1.81.17 3.17-.06.56" filter="url(#a)"/><path fill="#fff" d="m-18.02-3.31.02-.16.05-.16.08-.16.11-.16.14-.16.16-.16.19-.16.2-.16.23-.15.25-.16.27-.15.29-.15.3-.15.32-.15.33-.15.44-.17.44-.17.45-.16.47-.17.47-.16.48-.16.49-.15.5-.15.51-.15.51-.14.52-.13.53-.13.53-.12.54-.12.54-.1.55-.1.55-.09.56-.09.56-.07.57-.06.57-.06.57-.04.58-.04.58-.02.58-.01.58-.01.58.01.59.02.58.03.58.04.59.05.58.06.58.07.58.09.57.09.58.1.56.12.57.12.55.13.55.15.55.15.54.16.52.16.52.18.51.18.5.19.49.2.48.2.47.2.45.22.44.21.43.23.43.23.41.23.4.24.39.25.38.25.36.26.36.26.34.27.33.27.32.28.3.28.29.28L14.59.91l.01.38-.02.37-.03.37-.04.37-.07.36-.09.36-.11.35-.12.34-.14.34-.16.33-.18.32-.2.32-.21.3-.23.29-.25.29-.27.28-.29.27-.3.26-.32.25-.34.24-.36.22-.37.21-.4.2-.4.18-.43.16-.43.14-.46.12-.47.11-.48.08-.49.07-.51.04-.52.02h-.53l-.54-.02-.55-.04-.56-.06-.57-.09-.58-.1-.59-.13-.59-.14-.6-.16-.6-.18-.62-.19-.61-.22-.62-.22-.62-.24-.62-.25-.63-.27-.62-.27-.63-.29-.63-.29-.62-.29-.62-.3-.62-.3-.62-.31-.61-.3-.61-.3-.6-.3-.59-.3-.58-.29-.58-.28-.56-.27-.56-.27-.54-.25-.43-.26-.43-.26-.4-.26-.39-.25-.38-.26-.35-.25-.34-.24-.31-.24-.29-.24-.27-.24-.25-.23-.21-.23-.19-.22-.16-.22-.12-.22" filter="url(#a)" transform="translate(24.9 -25.79)"/><path fill="#fff" d="m18.65-2.93-.14-.15-.16-.15-.18-.15-.21-.15-.23-.14-.25-.14-.28-.14-.29-.14-.31-.13-.33-.14-.35-.13-.36-.13-.38-.12-.4-.12-.4-.12-.47-.14-.49-.14-.51-.14-.51-.13-.54-.13-.54-.12-.56-.12-.57-.12-.58-.11-.59-.1-.6-.1-.61-.09-.62-.09-.63-.08-.63-.07-.64-.07-.64-.06L4-6.84l-.65-.05-.65-.03-.66-.03-.66-.02-.66-.02H-.59l-.65.01-.65.03-.65.02-.64.04-.64.05-.63.05-.62.07-.61.07-.61.08-.6.08-.59.1-.57.1-.57.11-.55.12-.54.13-.52.13-.52.14-.49.14-.49.15-.46.16-.46.16-.43.17-.42.17-.4.18-.39.18-.37.19-.35.19-.34.19-.33.21-.31.2-.29.21-.27.22-.26.22-.25.23-.22.23-.21.23-.2.24-.17.24-.16.25 1.61 1.8.16.29.17.29.19.28.21.28.23.28.24.28.26.27.28.27.29.27.31.26.32.25.34.25.36.25.37.24.38.23.4.23.42.22.43.22.45.21.47.2.48.2.49.18.5.17.52.17.53.15.54.13.55.13.56.11.56.09.58.08.58.07.59.04.6.04.59.01.61.01.61-.02.6-.03.62-.05.61-.06.61-.08.61-.1.62-.1.61-.13.61-.13.6-.16.61-.16.59-.17.6-.19.59-.2.58-.2.58-.22.58-.22.56-.23.56-.24.55-.23.54-.25.54-.24.52-.25.52-.25.51-.24.49-.25.49-.24.47-.24.46-.24.38-.22.38-.22.36-.22.34-.21.34-.22.31-.22.31-.21.28-.22.27-.21.24-.21.23-.2.21-.21.19-.2.16-.19.14-.2" filter="url(#a)" transform="translate(-30.69 -28.71)"/><g fill="none" stroke="#000" transform="translate(24.9 -25.79)"><path stroke-linejoin="round" stroke-width="1.667" d="m-16.01-1.72-.42-.16-.36-.15-.31-.16-.26-.16-.21-.15-.17-.16-.13-.16-.09-.16-.05-.17-.01-.16.02-.16.05-.16.08-.16.11-.16.14-.16.16-.16.19-.16.2-.16.23-.15.25-.16.27-.15.29-.15.3-.15.32-.15.33-.15.44-.17.44-.17.45-.16.47-.17.47-.16.48-.16.49-.15.5-.15.51-.15.51-.14.52-.13.53-.13.53-.12.54-.12.54-.1.55-.1.55-.09.56-.09.56-.07.57-.06.57-.06.57-.04.58-.04.58-.02.58-.01.58-.01.58.01.59.02.58.03.58.04.59.05.58.06.58.07.58.09.57.09.58.1.56.12.57.12.55.13.55.15.55.15.54.16.52.16.52.18.51.18.5.19.49.2.48.2.47.2.45.22.44.21.43.23.43.23.41.23.4.24.39.25.38.25.36.26.36.26.34.27.33.27.32.28.3.28.29.28.28.29.26.3.25.29.24.3.22.3.21.31.19.31.19.31.17.32.16.31" filter="url(#a)"/><path stroke-linejoin="round" stroke-width="2.222" d="m-16.68-3.73-.31.2-.25.2-.21.2-.15.2-.11.2-.07.2-.02.21.02.21.06.21.09.21.12.22.16.22.19.22.21.23.25.23.27.24.29.24.31.24.34.24.35.25.38.26.39.25.4.26.43.26.43.26.54.25.56.27.56.27.58.28.58.29.59.3.6.3.61.3.61.3.62.31.62.3.62.3.62.29.63.29.63.29.62.27.63.27.62.25.62.24.62.22.61.22.62.19.6.18.6.16.59.14.59.13.58.1.57.09.56.06.55.04.54.02h.53l.52-.02.51-.04.49-.07.48-.08.47-.11.46-.12.43-.14.43-.16.4-.18.4-.2.37-.21.36-.22.34-.24.32-.25.3-.26.29-.27.27-.28.25-.29.23-.29.21-.3.2-.32.18-.32.16-.33.14-.34.12-.34.11-.35.09-.36.07-.36.04-.37.03-.37.02-.37-.01-.38-.03-.38-.04-.38-.07-.39-.08-.38-.1-.39-.12-.38-.14-.39-.15-.39-.18-.39-.18-.39" filter="url(#a)"/><circle cx="-3.509" cy="-.824" r="3.368" clip-path="url(#b)" filter="url(#a)"/><circle cx="-1.024" cy="-1.429" r="3.836" clip-path="url(#b)" filter="url(#a)"/><circle cx=".291" cy="-1.224" r="4.558" clip-path="url(#b)" filter="url(#a)"/><circle cx="-1.154" cy=".066" r="3.012" clip-path="url(#b)" filter="url(#a)"/><circle cx="-3.699" cy="-1.359" r="3.812" clip-path="url(#b)" filter="url(#a)"/><circle cx="-1.989" cy="-1.194" r="3.848" clip-path="url(#b)" filter="url(#a)"/><circle cx="-.614" cy="2.941" r="3.136" clip-path="url(#b)" filter="url(#a)"/><circle cx=".346" cy="2.176" r="3.824" clip-path="url(#b)" filter="url(#a)"/><circle cx="-.874" cy="-.129" r="3.436" clip-path="url(#b)" filter="url(#a)"/><circle cx="-2.514" cy="1.976" r="3.262" clip-path="url(#b)" filter="url(#a)"/></g><g fill="none" stroke="#000" transform="translate(-30.69 -28.71)"><path stroke-linejoin="round" stroke-width="2.222" d="m18.3-1.36.19-.16.16-.16.11-.16.08-.16.05-.16.01-.15-.02-.16-.05-.16-.07-.15-.11-.15-.14-.15-.16-.15-.18-.15-.21-.15-.23-.14-.25-.14-.28-.14-.29-.14-.31-.13-.33-.14-.35-.13-.36-.13-.38-.12-.4-.12-.4-.12-.47-.14-.49-.14-.51-.14-.51-.13-.54-.13-.54-.12-.56-.12-.57-.12-.58-.11-.59-.1-.6-.1-.61-.09-.62-.09-.63-.08-.63-.07-.64-.07-.64-.06L4-6.84l-.65-.05-.65-.03-.66-.03-.66-.02-.66-.02H-.59l-.65.01-.65.03-.65.02-.64.04-.64.05-.63.05-.62.07-.61.07-.61.08-.6.08-.59.1-.57.1-.57.11-.55.12-.54.13-.52.13-.52.14-.49.14-.49.15-.46.16-.46.16-.43.17-.42.17-.4.18-.39.18-.37.19-.35.19-.34.19-.33.21-.31.2-.29.21-.27.22-.26.22-.25.23-.22.23-.21.23-.2.24-.17.24-.16.25-.15.25-.12.26-.11.25-.1.27-.07.26-.07.27-.04.27-.03.27-.02.28v.28" filter="url(#a)"/><path stroke-linejoin="round" stroke-width="2.222" d="m18.49-2.87.18.16.14.16.1.16.07.17.03.17.01.18-.03.18-.06.18-.09.19-.11.19-.14.2-.16.19-.19.2-.21.21-.23.2-.24.21-.27.21-.28.22-.31.21-.31.22-.34.22-.34.21-.36.22-.38.22-.38.22-.46.24-.47.24-.49.24-.49.25-.51.24-.52.25-.52.25-.54.24-.54.25-.55.23-.56.24-.56.23-.58.22-.58.22-.58.2-.59.2-.6.19-.59.17-.61.16-.6.16-.61.13-.61.13-.62.1-.61.1-.61.08-.61.06-.62.05-.6.03-.61.02-.61-.01-.59-.01-.6-.04-.59-.04-.58-.07-.58-.08-.56-.09-.56-.11-.55-.13-.54-.13-.53-.15-.52-.17-.5-.17-.49-.18-.48-.2-.47-.2-.45-.21-.43-.22-.42-.22-.4-.23-.38-.23-.37-.24-.36-.25-.34-.25-.32-.25-.31-.26-.29-.27-.28-.27-.26-.27-.24-.28-.23-.28-.21-.28-.19-.28-.17-.29-.16-.29-.13-.29-.12-.28-.11-.29-.08-.29-.07-.29-.05-.29-.04-.29-.01-.29v-.28l.01-.29" filter="url(#a)"/><circle cx="7.145" cy="-2.499" r="3.23" clip-path="url(#c)" filter="url(#a)"/><circle cx="3.945" cy=".821" r="3.272" clip-path="url(#c)" filter="url(#a)"/><circle cx="4.57" cy="1.781" r="4.528" clip-path="url(#c)" filter="url(#a)"/><circle cx="8.04" cy="1.881" r="4.85" clip-path="url(#c)" filter="url(#a)"/><circle cx="8.425" cy=".841" r="3.034" clip-path="url(#c)" filter="url(#a)"/><circle cx="5" cy="1.736" r="3.24" clip-path="url(#c)" filter="url(#a)"/><circle cx="6.44" cy="-.594" r="3.36" clip-path="url(#c)" filter="url(#a)"/><circle cx="8.315" cy=".446" r="3.286" clip-path="url(#c)" filter="url(#a)"/><circle cx="8.085" cy=".751" r="3.45" clip-path="url(#c)" filter="url(#a)"/><circle cx="4.845" cy="1.006" r="3.004" clip-path="url(#c)" filter="url(#a)"/></g><g fill="none" stroke="#741386" stroke-linejoin="round" stroke-width="2"><path d="m45.23-50.35.06.46-.25.6-.63.51-1.12.2-1.65-.13-2.22-.41-2.78-.69-3.39-.98-4-1.33-4.62-1.68-5.25-2.03-5.9-2.36-6.56-2.69L-.3-63.9l-7.96-3.36-8.94-3.63m5.78-12.96 1.18-.24.96-.22.76-.14.58-.07h.43l.34.04.26.08.16.13.03.19-.15.25-.36.34-.6.43-.85.53-1.13.65-1.42.78-1.76.93-2.08 1.09-2.41 1.23-2.72 1.36-3.06 1.51-3.37 1.61" filter="url(#a)"/><path d="m-24.28-76.96.25.08 1.48.06 2.25.28 2.82.56 3.35.84 3.89 1.08 4.42 1.28 4.92 1.47 5.32 1.68 5.64 1.87 5.87 2.01 6.09 2.13 6.36 2.27 6.75 2.58m-7.66-15.6.21.21.44.39.64.63.61.65.44.54.23.36.02.2-.18.06-.39-.08-.6-.21-.86-.38-1.15-.57-1.48-.84-1.84-1.12-2.2-1.42-2.59-1.72-3.03-2.01-3.49-2.31" filter="url(#a)"/><path d="m-28.19-74 .55-.37 1.05-.63 1.35-.76 1.45-.72 1.52-.65 1.58-.61 1.67-.59 1.75-.59 1.82-.59 1.89-.6 1.94-.61 1.96-.6 1.91-.6 1.8-.56 1.65-.53 1.5-.49 1.36-.46 1.21-.42 1.01-.38.84-.3m40.96 29.51.48.94.61 1.15.6 1.19.48 1.01.37.83.27.7.2.57.12.43.01.26-.11.07-.25-.15-.41-.41-.58-.68-.76-.96-.92-1.24-1.09-1.51-1.26-1.78-1.45-2.09-1.71-2.48-2.03-2.98-2.39-3.55-2.66-4m17.07 24.36.43 1.15.16 1.1-.19.76-.51.45-.8.25-1.1.1-1.38-.02-1.69-.14-2.03-.27-2.37-.46-2.73-.71-3.11-.99-3.5-1.27-3.89-1.56-4.3-1.82-4.71-2.05-5.14-2.26-5.6-2.47-6.08-2.69-6.52-2.95-6.95-3.22-7.35-3.48" filter="url(#a)"/><path d="m2.82-85.38.22.16.7.16.57.28.29.43.02.59-.25.73-.57.89-.9 1.03-1.27 1.16-1.64 1.31L-2-77.18l-2.34 1.63-2.72 1.83-3.11 2.05-3.55 2.28-4 2.46-4.45 2.61-4.89 2.73-5.32 2.91-5.75 3.14m84.86 8.95.26.4.03.24-.12.2-.33-.02-.63-.43-.99-.92-1.34-1.45-1.7-1.96L39.83-53l-2.51-3-2.99-3.58-3.51-4.23-4.04-4.96-4.53-5.75" filter="url(#a)"/><path d="m6.19-85.1.07.07.48.28.39.39.11.48-.24.55-.63.63-1.03.73-1.43.84-1.82.98-2.23 1.13-2.68 1.27-3.17 1.42-3.69 1.53-4.21 1.63-4.74 1.73-5.24 1.84-5.71 1.91m72.16 12.14.44.89.51 1.05.42.99.22.77.03.52-.15.32-.32.14-.48-.06-.67-.27-.88-.5-1.1-.74-1.35-1-1.6-1.29-1.85-1.58-2.11-1.86-2.36-2.16-2.65-2.44-2.96-2.75-3.32-3.1-3.71-3.52-4.09-3.96-4.34-4.37M48.89-41.4l.33 1.13-.16.5-.53.19-.89-.03-1.29-.32-1.74-.71-2.24-1.2-2.77-1.74-3.31-2.3-3.85-2.85-4.38-3.38-4.92-3.92-5.48-4.44-6.11-4.98L4.72-71l-7.63-6.12" filter="url(#a)"/><path d="m33.94-67.8 1 1.3.63 1.04.17.75-.24.54-.6.38-.9.29-1.18.26-1.45.27-1.72.31-2.02.34-2.35.31-2.71.26-3.1.17-3.5.08h-3.93l-4.38-.08-4.86-.19-5.32-.3-5.76-.46-6.18-.62-6.57-.78-7.03-.95" filter="url(#a)"/><path d="m-4.16-85.04.97.07 1.45.4 1.74.75 2.05 1.06 2.38 1.33 2.67 1.58 2.92 1.8 3.12 2.01 3.32 2.19 3.51 2.32 3.65 2.42 3.7 2.46 3.69 2.48 3.71 2.55 3.75 2.76" filter="url(#a)"/><path d="m-32.55-69.49.98-.79 1.28-.84 1.41-.7 1.59-.59 1.82-.5 2.06-.45 2.28-.4 2.46-.35 2.6-.29 2.69-.24 2.79-.18 2.86-.14 2.96-.1 3.05-.06 3.13-.05 3.19-.05 3.22-.07 3.18-.1 3.12-.09 3.08-.03 3.14.12 3.26.26" filter="url(#a)"/><path d="m35.04-66.38 1.07 1.16.56.74.26.5.07.32-.09.2-.24.13-.37.09-.5.06h-.68l-.88-.1-1.11-.26-1.38-.45-1.66-.66-1.95-.87-2.26-1.1-2.58-1.34-2.94-1.6-3.29-1.87-3.65-2.14-4.03-2.41-4.47-2.7-4.96-2.96m-18.88 1.15.96-.49.69-.29.44-.15.34-.09.31-.04.28.02.17.13.01.28-.21.46-.46.64-.73.84-1.04 1.05-1.39 1.27-1.74 1.51-2.14 1.79-2.53 2.11-2.94 2.43-3.3 2.7-3.59 2.83" filter="url(#a)"/><path d="m-24.28-76.96.2.03 1.34-.08 2.01.07 2.48.26 2.91.44 3.35.59 3.79.71 4.18.82 4.49.95 4.7 1.06 4.89 1.17 5.06 1.28 5.31 1.42 5.63 1.62 5.92 1.9m-35.5-20.37 1.18-.09 1.16.24 1.32.44 1.57.6 1.76.76 1.91.9 2.05 1.02 2.18 1.14 2.3 1.21 2.4 1.29 2.46 1.34 2.47 1.38 2.45 1.39 2.41 1.38 2.36 1.37 2.31 1.38 2.26 1.45 2.21 1.51 2.14 1.47" filter="url(#a)"/><path d="M-6.68-84.76h1.26l1.59.16 1.84.33 2.03.49 2.2.65 2.36.75 2.52.85 2.65.94 2.76 1.03 2.8 1.08 2.82 1.12 2.79 1.08 2.64.94 2.23.62" filter="url(#a)"/><path d="m-15.02-82.15 1.87-.86 1.33-.41 1.39-.25 1.54-.2 1.63-.15 1.63-.11 1.57-.06 1.53-.04 1.5-.04 1.5-.04 1.47-.05 1.37-.07 1.18-.08.9-.11.56-.14.16-.18m-35.82 12.47 1.34-.95 1.57-.39 2.07-.17 2.58.03 2.97.24 3.33.49 3.68.69 4.04.85 4.37 1 4.67 1.09 4.96 1.18 5.25 1.27 5.5 1.34 5.69 1.4 5.77 1.42 5.78 1.34m-10.72-16.3-.2-.04.69.63 1.06.88 1.1.91.99.81.84.7.73.62.65.58.59.54.49.46.32.31.08.08-.19-.17-.42-.38-.59-.54-.77-.69-1.08-.96" filter="url(#a)"/><path d="m-27.57-74.37 1.51-1.33.87-.69.58-.42.48-.3.42-.22.34-.12.24-.01.15.12.04.25-.09.4-.26.57-.48.79-.71 1.03-.97 1.28-1.19 1.52-1.4 1.76-1.6 1.96-1.83 2.19-2.11 2.47-2.43 2.81-2.79 3.22-3.22 3.68M1.13-85.47l.74.04.93.2 1.18.28 1.4.31 1.53.35 1.54.39 1.53.42 1.48.44 1.38.43 1.22.39.99.32.75.24.52.19.39.15.42.13m6 3.57 1.08.89.45.81-.22.66-.88.54-1.46.52-1.97.57-2.48.69-3.04.77-3.7.83-4.43.82-5.19.81-5.91.77-6.63.75-7.32.73-8.09.76m59.43-2.29.17.15.69.8.91 1.11 1.01 1.26.99 1.27.89 1.16.74.99.6.81.45.64.34.45.2.28.08.09-.05-.1-.19-.3-.34-.5-.51-.69" filter="url(#a)"/><path d="m48.55-42.42.09.45-.23.31-.56.08-.93-.19-1.32-.49-1.73-.77-2.18-1.11-2.68-1.51-3.21-2.02-3.77-2.57-4.31-3.16-4.85-3.72-5.43-4.29-6.06-4.82-6.77-5.32-7.57-5.84" filter="url(#a)"/><path d="m31.46-70.56-.06.26-.35.6-.92.64-1.51.71-2.11.78-2.79.85-3.53.84-4.37.81-5.3.75-6.24.75-7.19.75-8.06.75-8.84.65-9.5.42" filter="url(#a)"/><path d="m42.29-55.74.11.35-.25.56-.62.66-1.14.58-1.74.36-2.38.11-3.01-.13-3.65-.34-4.3-.55-4.99-.75-5.7-.95-6.45-1.14-7.19-1.35-7.93-1.63-8.64-1.94-9.3-2.29m22.62-21.24.66.09.43.07.4.11.23.17-.01.28-.3.39-.56.52-.84.65-1.16.8-1.52.95-1.92 1.12-2.37 1.32-2.88 1.53-3.43 1.72-3.98 1.91-4.53 2.06-5 2.17" filter="url(#a)"/><path d="m45.23-50.35.12.49-.08.65-.35.61-.73.35-1.15.06-1.57-.18-2-.43-2.44-.69-2.91-.99-3.41-1.29-3.93-1.56-4.47-1.82-5-2.08-5.52-2.35-6.05-2.68-6.62-3.07-7.26-3.48-8-3.86m47.38 1.86.99 1.16.7.8.76.88.85 1 .89 1.07.84 1.04.74.92.6.76.46.6.35.45.25.35.19.28.12.22.03.1-.11-.08-.32-.36-.61-.74-.92-1.18-1.22-1.56-1.47-1.9" filter="url(#a)"/><path d="m38.01-62.43.09.13-.35.29-.74.44-1.16.57-1.63.61-2.19.56-2.8.45-3.47.3-4.14.16-4.81.02-5.48-.13-6.2-.32-6.93-.55-7.7-.73-8.5-.84-9.39-.9m10.81-18.97.55-.46.82-.38 1.06-.43 1.12-.44 1.08-.41.95-.33.77-.25.54-.15.24-.05-.13.08-.52.21-.94.35-1.37.51-1.72.58" filter="url(#a)"/><path d="m38.01-62.43.14.11-.21.19-.51.29-.84.34-1.21.3-1.67.15-2.19-.08-2.76-.31-3.38-.56-3.99-.79-4.61-1.03-5.24-1.33-5.92-1.66-6.63-1.96-7.33-2.25-7.91-2.6" filter="url(#a)"/><path d="m40.84-58.25 1 1.67.6.98.46.84.42.84.33.77.2.6.03.39-.12.17-.29-.05-.45-.28-.62-.52-.81-.78-1.01-1.05-1.25-1.36-1.51-1.71-1.78-2.08-2.03-2.46-2.25-2.78-2.5-3.12-2.83-3.51-3.26-3.97" filter="url(#a)"/><path d="m40.81-58.4.23.65.12.81-.29.58-.71.4-1.12.25-1.56.07-2.06-.18-2.59-.46-3.15-.73-3.72-.99-4.28-1.26-4.86-1.55-5.42-1.84-6.02-2.14-6.65-2.43-7.31-2.77-7.84-3.15m39.55-4.48 1.26.89.97.76.65.54.38.37.18.27.06.23-.07.21-.24.16-.48.03-.77-.11-1.09-.29-1.41-.46-1.73-.62-2.04-.76-2.35-.92-2.71-1.11-3.15-1.34-3.67-1.59-4.09-1.85m-10.32-1.47.6-.05h.51l.58.02.56.05.46.12.28.21.08.31-.12.42-.33.54-.52.65-.74.76-.96.9-1.19 1.04-1.44 1.19-1.71 1.37-2.02 1.55-2.33 1.74-2.65 1.89-2.95 2.02-3.28 2.15-3.67 2.37-4.19 2.75-4.8 3.31M4.1-85.38l1.32.18.89.17.89.21.9.23.82.24.69.21.49.18.3.14.1.12-.1.09-.28.05-.5.01-.77-.04-1.1-.09-1.48-.17-1.84-.24-2.16-.32-2.56-.37" filter="url(#a)"/><path d="m-24.28-76.96.1-.02 1.03-.19 1.48-.1 1.77.02 2.04.16 2.33.27 2.62.35 2.86.44 3.05.53 3.18.64 3.28.74 3.39.81 3.52.84 3.64.86 3.75.86 3.84.91 3.92 1.01 3.97 1.17 4.03 1.34 4 1.39" filter="url(#a)"/><path d="m-18.92-80.49.97-.49.72-.31.5-.19.43-.15.45-.13.44-.09.41-.02.29.09.15.22-.04.36-.24.52-.47.68-.73.84-.98 1.03-1.25 1.22-1.5 1.41-1.75 1.6-1.99 1.77-2.23 1.92-2.51 2.1-2.86 2.36-3.31 2.81-3.85 3.41m8.56-12.94 1.13-1.09.9-.77.97-.77 1.01-.79.98-.73.89-.65.82-.58.75-.51.66-.45.55-.36.43-.28.3-.19.16-.08-.02.04-.25.18-.52.36-.81.52-1.02.66-1.17.74" filter="url(#a)"/><path d="m-31.9-70.09 1.26-1.22 1.04-.96 1.1-.91 1.25-.96 1.38-.99 1.49-1.03 1.53-1.02 1.47-.98 1.35-.88 1.2-.79 1.03-.68.83-.55.57-.4.26-.22.03-.13" filter="url(#a)"/><path d="m-25.61-76.26.76-.44.5-.36.59-.42.63-.41.57-.38.47-.29.37-.2.25-.1.07.05-.16.24-.48.46-.81.72-1.15.97-1.5 1.24-1.87 1.55-2.34 1.93m28.07-13.71-.05-.44-.67-.52-.88-.14-.93.05-.9-.08-.85-.32-.78-.55-.76-.71-.81-.88-.94-1.06-1.07-1.22-1.16-1.13-1.12-.69-.86-.24-.39-.9m-5.43 16.33.8-.66.84-.53.72-.38.62-.37.59-.43.66-.5.75-.55.85-.58.9-.56.92-.5.93-.42.92-.31.87-.22.81-.15.72-.11.67-.11.67-.12.77-.16.9-.25.81-.27" filter="url(#a)"/><path d="m-6.68-84.76-.19.1-.51.18-.67.39-.78.67-.82.92-.82 1.09-.8 1.17-.8 1.15-.77 1.08-.72 1-.61 1.02-.47 1.19-.35 1.43-.32 1.62-.41 1.59-.58 1.48-.74 1.63-1.2 1.36 73.62 52.98-3.09-1.98.3-2.28.51-1.79v-1.29l-.44-.98-.66-.86-.67-.87-.59-.9-.52-.92-.52-.87-.61-.78-.78-.64-.98-.52-1.13-.46-1.19-.49-1.12-.64-.99-.84-.84-.95-.8-.75" filter="url(#a)"/><path d="m-9.16-84.44-.89.83-1 .24-.94.4-.88.74-.8 1.01-.7 1.13-.6 1.16-.54 1.09-.55.99-.61.87-.66.77-.69.75-.66.79-.61.87-.55.92-.49.98-.44 1.01-.4 1.13-.33 1.32-.28 1.58-.31 1.74-.4 1.59-.45 1.03-.33.41L2.4-84.34l-.07-.26-.54-.12-.74-.07-.8-.06-.81-.03h-.79l-.81.04-.83.08-.86.08-.87.06-.81.04-.74.03-.66.04-.64.07-.69.1-.84.1-.9.17" filter="url(#a)"/><path d="m-12.44-83.46 1.06-.36 1.05-.51.95-.63.83-.56.74-.36.7-.17.72-.07.77-.08.83-.14.86-.25.87-.36.86-.42.84-.4.82-.31.83-.21.82-.14.79-.19.77-.31.86-.39 1.19-.36 1.82-.23-18.78 6.37.26.14.81.3.98.26.97.24.88.32.8.4.73.46.72.53.76.64.8.76.84.78.84.67.8.49.76.39.73.43.73.57.73.71.65.8.48.76.07.08m-17.12-8.34 1.61-1.9.78-2.2.72-1.74.87-1.07.91-.83.85-.93.74-1.07.67-1.04.66-.9.73-.85.83-1.09.94-1.51 1.02-1.67 1.13-1.04 1.26.36m-14.17 17.47-1.01-2.16-.6-.35-.71-.21-.96-.39-1.15-.52-1.16-.37h-1.03l-.88.28-.85.23-.92-.14-1.02-.5-1.04-.56-.92-.24-.86.23-1.16.52-2.2.17" filter="url(#a)"/><path d="m.24-102.07-1.3 1.28-.79.72-.85.86-.94 1.11-.94 1.41-.9 1.52-.82 1.33-.77.96-.72.67-.73.66-.75.9-.8 1.19-.83 1.37-.84 1.47-.83 1.49-.89 1.42-1.07 1.1-.94.45m0 0-.64-.24-.57-.2-.61.24-.73.52-.86.53-.93.38-.93.2-.89.09-.82.12-.76.26-.71.43-.7.51-.74.49-.83.41-.95.3-1.02.22-1.01.22-.91.39-.78.61-.55.22-9.33-10.52 1.08-.88 1.81.61 1.69.86 1.43.58 1.3.39 1.3.45 1.39.62 1.4.7 1.31.55 1.14.22.94-.11.83-.24.85-.02.95.46 1.07.92 1.13.95 1.12.44 1.09-.18 1.02-.38-1.03.55-1.01.61-.84.65-.63.63-.58.61-.61.55-.67.48-.7.43-.74.46-.76.53-.77.63-.77.73-.72.78-.68.81-.64.86-.63.91-.68 1-.75 1.08-.84 1.08-.93 1.08" filter="url(#a)"/><path d="m-21.83-78.62-.13-.98-.93-1.39-1.13-1.12-1.02-.51-.9-.07-.9.1-1 .06-1.14-.09-1.26-.28-1.32-.46-1.31-.57-1.24-.47-1.14-.18-1.3-.02-2.29-.74 17.01 6.72.49 1.26-.23.94-.45 1.02-.42 1.25-.35 1.46-.36 1.47-.47 1.27-.59 1-.64.85-.59.87-.46 1.08-.3 1.4-.18 1.73-.18 1.87-.35 1.68-.67 1.07-1.02.46-14.2-20.96 1.24-.05 1.35.71 1.27.56 1.1.02.95-.56.88-.88.9-.86 1-.53 1.12-.07 1.24.29 1.25.35 1.18.08 1.04-.32.94-.48.97-.11 1.09.65 1.19 1.1 1.13.67 1.06-.27-.91.75-.67.73-.6.68-.62.7-.67.81-.68.96-.62 1.1-.54 1.21-.45 1.32-.39 1.41-.4 1.41-.48 1.35-.55 1.25-.55 1.19-.42 1.21-.27 1.18-.36.89" filter="url(#a)"/><path d="m-23.63-77.74-.79.73-.58.62-.68.89-.67 1.17-.58 1.32-.5 1.37-.48 1.31-.53 1.18-.61 1.04-.66.92-.68.85-.63.83-.57.83-.51.82-.47.8-.46.79-.47.87-.46 1.02-.43 1.25-.41 1.37-.38 1.26-.36.84-.26.29.02-.29 10.76-20.98.15.5-.62.97-.89.76-.88.59-.77.61-.66.77-.59.93-.6 1.05-.62 1.09-.66 1.05-.65.98-.58.91-.48.85-.4.81-.41.77-.52.95 89.02 44.48.18 2.25.16 1.51.14 1.26.12 1.33.12 1.41.1 1.38.09 1.26.07 1.14.06 1.07.04 1.06.03 1.09.02 1.14.02 1.2.01 1.28.01 1.37.01 1.36-.02 1.14-.03.48" filter="url(#a)"/><path d="m-29.73-72.38-.45 1.74-.83 1.22-.82.95-.73.76-.62.69-.52.72-.46.81-.45.9-.48.97-.55.98-.59.98-.56.97-.5.96-.39 1.02-.29 1.13-.22 1.31-.17 1.5-.18 1.57-.18 1.46-.23 1.17-.28.86-.35.85-.39 1.64.94-9.56.47-1.5.15-.78.2-.7.37-.82.53-1 .59-1.12.6-1.11.57-.99.51-.84.47-.73.45-.71.43-.73.49-.79.61-.79.69-.7" filter="url(#a)"/><path d="m-13.56-72-.65-.67-.52-.22-.68-.37-.87-.44-.97-.35-.96-.18-.89-.02-.83.05-.79.03-.8-.02-.81-.06-.82-.03-.82.09-.81.28-.8.47-.79.61-.77.64-.77.57-.77.42-.83.29-.99.22-1.4.6 86.4 49.84-.47-.53-.88-.67-.71-.83-.36-1.04-.18-1.13-.21-1.1-.37-.96-.57-.83-.72-.73-.81-.7-.83-.74-.8-.83-.75-.93-.7-.98-.69-.94-.68-.82-.65-.69-.62-.62-.64-.54-.71-.19 12.35 15.8.69 1.71.26 1.84.33 1.52.52 1.3.69 1.29.82 1.32.91 1.29 1 1.21 1.08 1.1 1.09 1.05.99 1.06.83 1.15.66 1.24.61 1.35.71 1.51.92 1.71 1.07 1.88.53 1.82" filter="url(#a)"/><path d="m54.5-20.25.27 1.86.28 1.85.4 1.49.55 1.3.61 1.3.51 1.34.36 1.34.23 1.27.19 1.2.21 1.13.26 1.12.31 1.14L59-2.7l.3 1.27.27 1.35.21 1.38.21 1.37.26 1.26.35 1.17.36 1.29.3 1.9M-45.69-57.54l.3-.28.43-.5.68-.62.88-.74.94-.78.85-.75.7-.71.6-.72.56-.77.64-.82.75-.83.81-.78.8-.71.72-.62.65-.47.65-.29.63-.16.33-.3-.04.43.49-.37.87-.5.97-.55.98-.46.95-.34.89-.27.87-.22.88-.21.89-.23.9-.25.88-.25.84-.16.81.02.87.29 1 .6 1.04.63.84.18-14.97 2.09.36-.7.7-.95.69-1.27.6-1.46.55-1.43.57-1.23.65-.98.75-.78.81-.69.81-.72.76-.8.7-.91.63-1 .58-1.05.58-1.05.58-1.04.63-1.03.69-1.06.77-1.12.83-1.21.82-1.29.68-1.31.41-1.28.14-1.84-6.26 12.66-.73 1-.53.79-.71.88-.83.88-.81.84-.72.87-.66.94-.62 1.01-.65 1.04-.67 1.06-.69 1.09-.65 1.07-.61.96-.58.76-.58.52-.57.55-.3 1.45-.39.42-.83.91-.89.95-.78.84-.64.75-.57.72-.58.78-.63.85-.66.9-.64.93-.6.93-.53.92-.48.92-.48.93-.49.94-.54.96-.58.99-.61 1.01-.61 1.05-.59 1.08-.55 1.06-.51 1.03-.48.99-.5.99-.36.35" filter="url(#a)"/><path d="m-52.68-62.8 1.65 1.34 1.56.47 1.33.23 1.12-.01 1.05-.27 1.06-.47 1.08-.55 1.05-.52.91-.46.72-.51.61-.61.68-.71.96-.6 1.3-.27 1.32-.02.59-.03m.06-.15.34.07.54-.25.61-.29.66-.31.74-.35.83-.36.95-.28 1.03-.14 1.04-.03 1-.02.91-.1.84-.19.86-.2.95-.14 1.03-.08.91.07.35 1.03m87.83 72.4-1.53-.67-.46-1.34-.13-1.56-.22-1.53-.39-1.42-.52-1.32-.57-1.25-.56-1.18-.48-1.15-.38-1.17-.28-1.24-.22-1.34-.23-1.41-.34-1.43-.52-1.38-.77-1.32-1.05-1.35-1.18-1.42-.98-1.32-.69-.69" filter="url(#a)"/><path d="m-41.71-57.39.78-1.83.71-1 .51-.66.44-.69.46-.89.5-1.11.54-1.21.53-1.18.53-1.09.51-.99.5-.93.48-.93.52-.98.56-1.03.64-1.05.7-1.04.72-1 .73-.98.68-.98.64-1.05.64-1.18.75-1.33 1.02-1.49 1.4-1.1" filter="url(#a)"/><path d="m-42.74-55.51.34-.65.48-1.5.21-2.09-.31-2.54-.7-2.77-.72-2.65-.39-2.26.11-1.84.42-1.69.4-1.92.06-2.42-.34-2.87-.48-2.88-.21-2.34v-2.25l1.13 32.67.34-.67.66-1.27.72-1.3.61-1.09.52-.88.49-.76.54-.77.62-.84.67-.93.68-.94.63-.92.55-.86.49-.82.47-.78.48-.77.57-.76.73-.81.91-.94 1.2-1.36-13.48 20.6.71-1.46.39-.94.24-1.02.23-1.28.32-1.44.38-1.44.42-1.3.44-1.12.47-.98.53-.92.6-.93.66-.99.67-1.01.62-1.02.54-1.02.43-1.01.36-1.04.36-1.03.43-1.05.54-1.1.56-1.19" filter="url(#a)"/><path d="m-45.12-50.29.55-1.62.16-1.35-.03-1.45-.08-1.44.08-1.25.34-1.09.54-1.1.52-1.32.31-1.62-.05-1.91-.38-2.09-.54-2.23-.31-2.21.4-1.81 1.24-.53-3.35 23.91-.44.68-.75 1.03-.95.75-1.2.38-1.41.14-1.44.15-1.19.43-.85.83-.64 1.09-.77 1.01-1.18.65-1.58.33-1.65.39-1.42.79-1.86.93" filter="url(#a)"/><path d="m-38-64.09-1.09 1.54-.43.75-.31.65-.4.8-.54.98-.61 1.09-.6 1.08-.54 1-.47.91-.42.89-.41.89-.43.95-.46 1-.5 1.03-.52 1.06-.53 1.12-.54 1.17-.4.7-.63 1.35-.43.9-.43.99-.47 1.06-.5 1.09-.5 1.1-.45 1.1-.4 1.1-.38 1.1-.37 1.11-.4 1.14-.42 1.17-.46 1.26-.5 1.46-.57 1.7-.59 1.74-.53 1.19 7.71-19.4-4.04-3.47-.52-1.7.83-.85 1.22-.58 1.01-.8.58-1.2.24-1.5.11-1.54.16-1.4.24-1.27.24-1.29.17-1.52.04-1.93-.15-2.47-.37-2.9-.5-2.85-.39-2.08-.05-.83.13.55-.2 32.62-3.86-1.14.09 1.93.39 1.9-.03 1.44-.34 1.17-.58 1.08-.89.98-1.31.85-1.8.68-2.18.54-2.31.44-2.09.47-1.59.61-.97.9-.46 1.22-.22 1.49-.32 1.6-.63 1.52-.95 1.37-1.03 1.35-.87 1.38-1.67.35 22.51-18.89.37-1.47.3-1.26.16-1.29.06-1.37v-1.43l.04-1.47.15-1.44.29-1.37.39-1.31.38-1.34.25-1.46.05-1.64-.1-1.76-.14-1.7-.02-1.48.21-1.25.47-1.19.67-1.46.82-2.01.75-2.88" filter="url(#a)"/><path d="m-50.34-38.22.04.25.36-.95.44-1.22.43-1.2.41-1.11.4-1.06.41-1.04.42-1.03.47-1.06.5-1.09.52-1.09.52-1.09.52-1.07.5-1.06.48-1.02.48-.95.43-.57m-9.01 22.38.51-.71.69-.93.78-.86.77-.79.7-.79.63-.87.57-.94.57-.94.61-.86.67-.75.7-.67.7-.66.74-.67.85-.61.98-.49.99-.3 1.17.14" filter="url(#a)"/><path d="m-44.34-52.38-.14.51-.47 1.03-.53 1.08-.54 1.1-.53 1.1-.49 1.1-.46 1.06-.43 1.05-.4 1.05-.41 1.09-.41 1.12-.42 1.14-.4 1.14-.38 1.11-.37 1.09-.35 1.13-.35 1.2-.34 1.19-.26.89-1.4 6.22-.47.2-.25.3-.42.69-.85.92-1.28.97-1.54.92-1.62.9-1.57.93-1.45 1.01-1.22 1.12-1.01 1.24-.98 1.36-1.22 1.53-1.38 1.94-.87 2.42-2.47 13.99 1.84-2.6 1.24-1.87.87-1.49.68-1.42.54-1.44.41-1.44.33-1.42.29-1.43.26-1.44.24-1.49.24-1.52.34-1.5.53-1.43.82-1.33 1.11-1.2 1.31-1.11 1.31-1.11 1.09-1.18.75-1.29.54-1.3.67-1.04 1.15-.43 1.39.17.65-.13M53.8-23.9l.47-1.85.14-1.51-.29-1.09-.31-1.01-.1-1.18.15-1.42.32-1.63.32-1.75.23-1.78.1-1.73.01-1.63-.02-1.54v-1.51l.05-1.5.06-1.52.03-1.53-.07-1.51-.16-1.46-.2-1.42-.18-1.5-.12-1.74-.2-1.95-.18-1.19-.05 34.95.34.72.54.9.63.97.5 1.17.31 1.39.2 1.5.18 1.51.24 1.47.26 1.44.23 1.41.17 1.38.11 1.32.08 1.23.11 1.16.19 1.12.29 1.13.39 1.17.45 1.24.44 1.35.38 1.52.27 1.68.22 1.63-7.94-34.97-.91-1.31-.4-1.43-.46-1.42-.58-1.23-.63-1.03-.61-.89-.57-.83-.55-.8-.59-.76-.63-.74-.67-.74-.67-.74-.65-.75-.64-.75-.67-.71-.71-.67-.75-.64-.75-.69-.71-.82-.65-.96-.56-.96-.41-.77-.46-.19" filter="url(#a)"/><path d="m51.79-32.79-.86-2.08-.94-1.21-.96-.76-.86-.61-.74-.61-.72-.59-.82-.51-.91-.46-.89-.49-.74-.64-.57-.79-.42-.92-.42-.91-.53-.79-.72-.58-.9-.43-1-.46-1.02-.56-1.02-.4-1.21.23m16.25 13.57.44.45 1.23.38 1.56.29 1.67.29 1.58.38 1.32.6 1.03.84.92.98.99.97 1.17.9 1.33.86 1.5.88 1.7 1.06L70-22.4l1.79 2.3 3.02 2.92" filter="url(#a)"/><path d="m51.79-32.79.29.56.98.57 1.75.24 2.22.02 2.37.02 2.23.18 1.85.47 1.27.81.63 1.14.16 1.37.01 1.49.17 1.52.54 1.54.88 1.54 1.15 1.53 1.41 1.39 1.71 1.24 2.09 1.19 2.46.04m-25.1-19.69.57 1.98.36 1.3.28 1.12.23 1.07.2 1.07.18 1.08.18 1.1.19 1.13.2 1.14.19 1.14.19 1.16.19 1.18.17 1.25.17 1.32.15 1.4.12 1.43.09 1.44.07 1.44.06 1.46.05 1.51.04 1.47.03 1.23.02 1.05" filter="url(#a)"/><path d="m50.86-35.62-.51-1.09-.89-.63-.87-.51-.62-.66-.41-.82-.41-.85-.6-.72-.96-.44-1.32-.06-1.59.25-1.63.31-1.4.05-.97-.37-.69-.4-1.15.55L49.92-5.6l.47-1.03.37-1.2.15-1.39.05-1.43.02-1.38v-1.36l-.03-1.36.01-1.39.08-1.41.18-1.39.27-1.37.32-1.35.29-1.33.22-1.3.12-1.25v-1.19l-.11-1.12-.21-1.06-.28-1.03-.33-1.04-.35-1.13-.37-1.31-.36-1.61.12-2.02m-.78-2.15.5.9.64 1.11.58 1.32.5 1.37.45 1.28.45 1.16.47 1.04.52.96.56.92.6.93.59.96.51 1.03.39 1.1.29 1.13.27 1.15.36 1.16.5 1.28.65 1.57.84 2.12 1.11 2.81M48.89-41.4l.13-.82-.32-1.04-.36-1.2-.28-1.23-.22-1.22-.26-1.21-.33-1.18-.38-1.15-.42-1.17-.42-1.25-.41-1.34-.42-1.39-.42-1.36-.43-1.33-.43-1.37-.43-1.54-.46-1.75-.65-2.32-.26-14.53 1.05 1.96.92.89.59.85.21 1.22-.1 1.63-.23 1.91-.13 1.91.15 1.7.48 1.41.72 1.17.79 1.1.7 1.19.54 1.38.37 1.6.2 1.77.09 1.86.04 1.83.08 1.69.14 1.56.08 1.54-.18 1.62-.48 1.54-.52 1.44" filter="url(#a)"/><path d="m65.41-24.82-1.12-1.1-1.35-.86-1.11-.93-1.02-.96-1.02-.93-1.01-.84-1.01-.79-.99-.77-.96-.81-.88-.92-.72-1.09-.52-1.29-.3-1.46-.17-1.49-.17-1.4-.32-1.16-.58-.85-.89-.56-1.15-.38-1.25-.45-1.06-.88-.64-1.13-.44-.72.25.62.13.78.11 1.13.17 1.24.25 1.17.28 1.06.22 1.02.13 1.08.05 1.17.06 1.27.14 1.36.27 1.42.27 1.46.07 1.51-.05 1.77-2.35-18.06-.43-2.39-.5-1.01-.5-.87-.51-1.09-.49-1.27-.46-1.33-.45-1.31-.46-1.3-.48-1.33-.47-1.38-.47-1.36-.46-1.25-.42-1.07-.36-.9-.27-.83-.24-.85-.29-.79-.27-.49" filter="url(#a)"/><path d="m45.51-49.75.23-.62.54-1.72.19-1.92-.3-1.62-.59-1.28-.69-1.1-.69-1.1-.63-1.21-.49-1.42-.3-1.64-.12-1.77-.01-1.77v-1.62l-.07-1.43-.17-1.33-.24-1.4-.27-1.65-.3-1.94-.36-2.11-.43-2.09-.4-1.96-.19-1.79.56-1.61 16.17 55.19-.26-.3-.63-.91-.66-.98-.67-1.05-.68-1.14-.68-1.2-.62-1.22-.57-1.16-.54-1.06-.55-.95-.55-.88-.55-.87-.55-.9-.56-.92-.56-.91-.58-.9-.55-.93-.53-1.04-.49-1.11-.47-.88-.47-.38-1.03-38.77-.34 2.73.74 1.86.72 1.87.35 2.05.05 2.1-.16 2.07-.37 2.18-.54 2.37-.58 2.53-.48 2.52-.28 2.42-.14 2.3-.07 2.22-.05 2.09.04 1.78.24 1.43.57 1.4 1.14 2.29M26.5-60.07l.9.77.67.32.79.15.92.17.99.22.98.25.88.28.76.32.69.26.72.11.81-.05.89-.1.88.1.79.48.7.85.73.95.89.67 1.07.21 1.04-.11.67-.08-14.73-3.24 1.09-.79 1.34-.31 1.16.09.91.31.64.44.48.52.47.42.64.15.92-.18 1.18-.36 1.31-.27 1.26.07 1.08.5.86.81.65.87.54.75-.97-.2-1-.43-.96-.69-.92-.73-.94-.51-.96-.23-.91-.06-.81-.04-.73-.13-.64-.31-.59-.55-.55-.78-.56-.91-.6-.92-.67-.78-.75-.52-.8-.25-.86-.02-.92.16-1.01.28-1.15.25-1.32-.05-1.88-.39 2.14-25.18.95 1.74 1.06 1.51.9 1.49.72 1.32.59 1.12.56.99.6.92.67.92.7.97.69 1.04.62 1.1.56 1.14.52 1.17.53 1.15.58 1.14.64 1.12.67 1.13.64 1.12.57 1.08.47.96.45.73.47.44.37.39-.33 1.41-.22-.58-.6 2.18-.21 2.17.35 1.61.78.99.99.62.98.55.87.67.7.89.52 1.12.3 1.31.11 1.47-.03 1.55-.07 1.55-.01 1.45.14 1.26.29 1.1.36 1 .34 1.01.21 1.09.04 1.14-.09 1.18-.27 1.22-.55 1.37-5.48-28.88-.35-.48-.19-1.12-.15-1.47-.33-1.5-.54-1.43-.54-1.52-.39-1.74-.22-1.86-.2-1.72-.34-1.35-.5-1.12-.55-1.28-.57-1.78-.86-2.14-1.63-2.7" filter="url(#a)"/><path d="m38.01-62.43-.43-1.13-.45-.97-.55-1.19-.55-1.46-.52-1.55-.48-1.44-.5-1.19-.58-.89-.66-.68-.74-.64-.75-.81-.72-1.09-.65-1.35-.51-1.35-.37-1.05-.32-.64-.6-.37" filter="url(#a)"/><path d="m65.61-57.31-2.5-1.02-1.1-.97-1.09-.65-1.55-.21-1.94.13-2.07.31-1.99.26-1.81.05-1.59-.18-1.41-.38-1.24-.54-1.08-.72-.9-.96-.73-1.2-.63-1.28-.68-1.03-.92-.38-1.27.46-1.43.98-1.2.7-.73-.04-.6.1m0 0-.59-1.57-.5-2.08-.52-1.73-.53-1.38-.42-1.41-.29-1.59-.25-1.76-.29-1.81-.38-1.8-.45-1.72-.51-1.53-.59-1.22-.66-.89-.76-.68-.84-.68-.87-.9-.82-1.26-.67-1.63-.43-1.96-.3-2.08-.66-1.69-1.69-.55 12.43 30.89-.8-2.22-.27-2.38-.21-1.99-.36-1.4-.55-.91-.69-.71-.73-.76-.72-.97-.65-1.19-.55-1.4-.43-1.61-.32-1.86-.24-2.2-.21-2.6-.2-2.98-.2-3.2-.22-3.14-.25-2.84-.34-2.46-.55-2.32-.72-2.6-.27-3.4 6.86 42.25-.4-.57-.5-.77-.46-.88-.48-.97-.52-1.1-.57-1.22-.57-1.34-.5-1.45-.39-1.54-.3-1.58-.33-1.52-.5-1.39-.72-1.27-.89-1.21-.85-1.22-.48-1.04.38-.22-9.1 14.54.85.26h.93l.91.02.84-.02.83-.06.86-.01.9.08.93.17.88.23.81.24.79.19.8.14.86.13.94.19.96.3.9.38.81.43.68.46.64.5.89.84" filter="url(#a)"/><path d="m20.07-81.56.71.57.9.68.74.63.66.6.7.67.77.75.81.79.77.78.7.71.64.65.62.64.66.69.75.77.78.83.76.82.67.74.54.62.13.13-1.14-1.32.11-1.15-.6-1.17-.7-1.34-.54-1.45-.4-1.45-.39-1.32-.52-1.14-.68-.97-.8-.87-.82-.85-.8-.9-.73-.99-.69-1.09-.69-1.17-.7-1.24-.68-1.3-.61-1.38-.51-1.39-.48-1.27-.58-1.09-.81-1.09-.78-1.2M30-71.82l.84 1.09.34 1.27.38 1.07.55.76.69.66.73.74.71.9.66 1.01.58 1.03.51.95.44.84.4.75.34.75.31.86.28 1.04.31 1.23.39 1.33.46 1.35.47 1.3.3 1.27-.01 1.4" filter="url(#a)"/><path d="m29.57-72.57 2.01-2.54.62.93.75.54 1.15-.44 1.31-.74 1.2-.34 1.07.22 1.11.48 1.32.27 1.58-.24 1.74-.75 1.77-1.09 1.81-1.41 1.87-1.72 1.38-1.13m-38.87-25.06 1.03 2.73.76 2.31.64 1.71.66 1.33.76 1.13.84 1.02.89.88.88.72.83.66.73.76.64 1.04.56 1.36.55 1.52.63 1.44.72 1.14.79.78.82.53.8.53.73.93.6 1.77.4 2.71.3 2.8.52 1.42-.72-.58-.78-1.41-.83-1.54-.82-1.1-.72-.83-.66-.83-.65-.97-.65-1.14-.65-1.23-.62-1.2-.61-1.1-.62-.96-.65-.81-.72-.68-.8-.55-.87-.48-.89-.46-.86-.51-.8-.59-.73-.68-.74-.72-.83-.74-.93-.65-.88-.29m17.31 19.47-1.2-.04-1.22-.28-.97-.54-.82-.33-.81-.03-.85.06-.86-.08-.82-.29-.74-.45-.67-.45-.65-.31-.68-.12-.75.09-.84.22-.89.22-.92.14-.86.07-.74.11-.6.39-.52 1.03" filter="url(#a)"/><path d="m26.75-74.95-.47-2.3-.43-2.85-.6-1.87-.73-.8-.78-.31-.8-.36-.79-.66-.75-.96-.68-1.12-.59-1.19-.5-1.28-.42-1.43-.46-1.52-.64-1.25-.78-.58-.58-.5" filter="url(#a)"/><path d="m41.67-71.65-1.35-.39-1.38-.62-1.25-.51-1.14-.25-1.08-.03-1.01.01-.94-.07-.92-.21-.95-.29-1.01-.38-.97-.48-.8-.58-.5-.61-.4-.35-1.22 1.46-.91-.63-1.29-.68-.99-.71-.79-.34-.8-.02-.87.13-.92.1-.89.01-.83-.07-.76-.14-.72-.16-.71-.1-.76.06-.84.26-.89.45-.92.54-.87.47-.8.29-.74.04-.7-.16-.73-.25-.81-.15-.91.24-1.07.8-1.24.68" filter="url(#a)"/><path d="m24.59-76.68 1.17-8.56-.28-1.91-.89.43-1.04.44-.95-.28-.78-1.04-.62-1.54-.52-1.66-.52-1.48-.61-1.15-.72-.91-.8-.98-.81-1.36-.74-1.91-.66-2.31-.59-2.35-.61-2.05-.71-1.69-.87-1.52-1-1.44-.99-.58" filter="url(#a)"/><path d="m20.09-79.74-.57-.4-.7-.4-.64-.34-.61-.31-.65-.33-.73-.35-.8-.37-.83-.38-.82-.36-.8-.33-.78-.3-.77-.28-.79-.28-.83-.3-.88-.32-.91-.31-.93-.29-.95-.24-.98-.17-.98-.12-.92-.12-.74-.16-.72-.22 29.98 18.31-.03-.35-.49-.69-.64-.79-.72-.87-.75-.87-.72-.79-.67-.65-.64-.55-.66-.52-.74-.56-.8-.67-.8-.75-.74-.8-.66-.75-.62-.68-.73-.61-.9-.61-.72-.51L.2-85.28l.8-.13.72-.01.71.04.78.08.88.08.93.1.95.13.94.18.94.21.91.23.88.25.84.26.79.27.77.28.77.29.8.31.84.33.86.35.83.35.74.34.58.31.48.26.66.3-1.23-.58.52.2.78.21.93.1 1.07-.22 1.19-.69 1.26-1.02 1.26-1.03 1.23-.75 1.19-.39 1.21-.23 1.26-.35 1.35-.67 1.43-.97 1.5-1.09 1.52-.96 1.5-.66 1.45-.35 1.38-.14 1.31-.07 1.24-.04 1.13.12 1.01.46 1.03.71 1.87-.15-31.83 6.94.73.57.63 1.21.43 1.14.39 1 .43 1.08.51 1.12.61.99.7.74.7.57.6.61.51.85.51 1.15.6 1.41.6 1.77.25 2.41-8.2-16.62.71.74.75.64.62.37.6.28.64.36.68.58.66.85.61 1.13.53 1.29.52 1.28.58 1.1.68.85.78.67.76.63.63.77.44.94.31.99.41.92.69.93.61 1.25" filter="url(#a)"/><path d="m15.16-82.09-.21-3.95-1.05.13-.91.23-.66-.86-.5-2.19-.47-3.3-.52-3.88-.64-3.86-.77-3.26-.91-2.15-1.05-.86-1.19.01-1.27-.35-1.09-2.03-.19-4.36" filter="url(#a)"/><path d="m-8.71-110.49 1.36-1 1.42 1.2 1.34 2.2 1.2 2.53 1.09 2.38 1.01 1.85.98 1.13.96.49.93.09.91.06.92.34.92.86.92 1.46.91 1.95.91 2.15.91 2 .91 1.61.91 1.23.86 1.04.77 1.02.6 1.07.42 1.69 16.7 13.36-.73-1.16-.77-.89-.57-.6-.52-.55-.61-.62-.71-.71-.78-.73-.79-.71-.77-.66-.75-.61-.74-.59-.74-.58-.75-.57-.74-.55-.7-.51-.66-.47-.64-.42-.68-.37-.76-.31-.87-.27-.95-.34-.94-.57-.53-.57-19.27 6.03.53-.76.52-.89.68-.86.81-.7.83-.49.83-.25.8-.1.78-.08.78-.17.77-.29.78-.39.79-.4.8-.35.85-.28.89-.22.92-.19.95-.18.96-.14.96-.04.95.08.92.15.84.14.71.13.62.25" filter="url(#a)"/><path d="m11.73-83.53.71-.52.74.39.86.51.91.42.87.26.82.12.76.02.72-.04.74-.01.78.1.84.26.88.44.84.51.69.4.47.16.58.19m-12.21-3.21-.55.04-.91.62-1.03.97-1.03.86-.97.56-.92.38-.9.42-.9.67-.88.94-.82 1.18-.73 1.3-.69 1.33-.72 1.24-.86.97-1.18 1.01m13.09-12.49-.45-1.1-.68-1.91-.83-1.51-.92-1.05-.94-.99-.95-1.04-.95-1.02-.95-.89-.94-.76-.93-.69-.9-.68-.9-.69-.89-.65-.91-.51-.92-.32-.95-.23-1-.38-1.05-.75-1.11-1.15-1.09-1.34-.98-1.2-.82-.77-.67-.42-.61-1.26m21.34 21.31 1.72-7.1.86-.03.96.57 1.06.05 1.09-.35 1.02-.48.91-.38.85-.27.91-.32 1.04-.5 1.23-.78 1.38-1.04 1.43-1.25 1.38-1.45 1.34-1.68 1.62-1.98 2.37-2.1" filter="url(#a)"/><path d="m11.73-83.53-.57.16-.87.07-.92-.23-.92-.33-.93-.29-.92-.17-.92-.03-.93.11-.9.2-.84.23-.78.18-.75.12-.78.11-.84.17-.76.23-.18.2 12.55-1 .4.05.68-.43.89-.59.98-.29.95.05.89.2.84.17.81.01.83-.19.89-.36.98-.45 1.05-.46 1.1-.45 1.14-.54 1.17-.72 1.21-.86 1.31-.74 1.42-.32 1.47.21 1.12.97" filter="url(#a)"/><path d="m10.29-83.75.93-.46.75-.72.75-.49.8-.05.87.2.92.18.94-.01.93-.24.91-.44.93-.61 1-.79 1.11-.95 1.24-1.04 1.29-.97 1.23-.72 1.01-.32.77.12.88.25 1.91-1.08-19.17 8.14-1-.42-.94-.31-.94-.24-.93-.17-.94-.1-.92-.02-.89.03-.85.09-.8.12-.78.13-.79.12-.78.1-.78.09-.79.1-.81.16-.87.22-.95.26-1.03.24-1.06.11L9.1-84.35l-.79-.47-.9-.94-.88-1.35-.89-1.21-.92-.86-.91-.68-.89-.8-.87-1.16-.86-1.52-.87-1.69-.89-1.52-.92-1.12-.95-.72-1.01-.64-1.09-1.04-1.15-1.75-1.15-2.4-1.12-2.61-1.05-2.25-1.01-1.58-1.07-1.08-1.27-1.02-1.5-1.1-1.72-.59L4.1-85.38l-1.01-.58-.6-.91-.65-.73-.75-.6-.83-.58-.84-.6-.85-.6-.88-.64-.93-.74-.98-.88-1-.99-.97-1.01-.88-.92-.82-.83-.8-.83-.91-1.02-1.1-1.08-1.12-.4L2.42-85.1l1.63-1.14 1.25-.66.99.15.93.36.96.15.99-.14.97-.35.94-.38.88-.33.88-.29.91-.32.97-.37 1.02-.41 1.02-.34.97-.21.88-.06.78-.03.77-.11.84-.19.92-.2.79-.2" filter="url(#a)"/><path d="m2.82-85.38-.91.62-.85.18-.85.29-.81.53-.76.73-.76.9-.76 1.06-.76 1.19-.74 1.26-.67 1.27-.6 1.21-.54 1.14-.53 1.04-.6.86-.71.57-.83.33-.86.58-.72 1.57L1.13-85.47.08-91.48l-.93-.62-.82.7-.87.24-.93-.25-.95-.3-.93-.17-.9-.23-.88-.57-.93-1.02-.98-1.34-1.06-1.36-1.12-1.11-1.17-.73-1.2-.37-1.21-.12-1.22.04-1.2.07-1.13-.05-.95-.33-.7-.7-.42-1.5" filter="url(#a)"/><path d="m.2-85.28-1.69.07-1.85.14-1.75.18-1.75.25-1.82.34-1.92.45-1.95.54-1.94.61-1.92.68-1.9.73-1.86.79-1.79.86-1.72.91-1.64.99-1.61 1.07-1.64 1.17-1.74 1.27-1.86 1.37-1.97 1.45-2.06 1.51-2.11 1.55-2.12 1.59-2.11 1.63-2.05 1.69-1.89 1.69-1.63 1.5-1.61 1.23" filter="url(#a)"/><path d="m-1.64-85.41-1.05.11-1.55.21-1.63.25-1.58.3-1.54.38-1.51.49-1.48.58-1.4.67-1.3.73-1.17.8-1.04.86-.95.92-.93 1.01-.98 1.08-1.06 1.16-1.12 1.24-1.1 1.31-.97 1.37-.75 1.41-.47 1.44-.18 1.47.08 1.51.3 1.57.44 1.64.55 1.72.64 1.79.73 1.88.84 1.94.91 2.04.86 2.17.59 2.35.11 2.49-.29 2.49-.48 2.34" filter="url(#a)"/><path d="m-1.12-85.28-2.17.19-1.88.19-1.69.23-1.73.33-1.84.45-1.94.54-2 .62-2.02.67-2.08.73-2.14.78-2.2.84-2.2.9-2.14.97-2.05 1.04-1.98 1.15-1.96 1.25-2.03 1.37-2.2 1.46-2.41 1.52-2.51 1.52-2.3 1.47-1.85 1.43-1.95 1.53" filter="url(#a)"/><path d="m-4.16-85.04-1.93.22-1.55.25-1.56.35-1.62.48-1.65.61-1.65.68-1.65.75-1.62.79-1.6.86-1.57.92-1.52 1-1.49 1.08-1.44 1.16-1.4 1.24-1.35 1.31-1.3 1.37-1.25 1.41-1.2 1.43-1.17 1.46-1.15 1.5-1.13 1.55-1.13 1.62-1.11 1.7-1.07 1.8-1 1.86-.94 1.9-.88 1.95-.89 2.11-1.01 2.46-1.06 2.85" filter="url(#a)"/><path d="m-5.61-84.82-1.11.11-1.57.3-1.88.48-1.93.58-1.85.65-1.74.69-1.69.74-1.68.8-1.67.86-1.67.91-1.69.99-1.71 1.07-1.77 1.17-1.83 1.28-1.89 1.37-1.93 1.46-1.94 1.51-1.9 1.55-1.85 1.57-1.77 1.63-1.7 1.69-1.58 1.68-1.34 1.49-1.01 1.22" filter="url(#a)"/><path d="m-6.58-84.77-.89.28-1.43.51-1.6.63-1.4.67-1.04.69-.69.75-.5.81-.44.86-.35.93-.14 1 .22 1.08.57 1.19.79 1.29.75 1.38.46 1.46.01 1.52-.46 1.55-.73 1.59-.62 1.63-.03 1.68.89 1.7 1.92 1.73 2.62 1.79 2.41 1.9.74 1.57" filter="url(#a)"/><path d="m-7.49-84.68-1.73.34-1.82.52-1.94.65-2.07.72-2.08.77-1.96.8-1.79.86-1.64.92-1.56 1.01-1.58 1.09-1.7 1.17-1.89 1.26-2.09 1.32-2.26 1.37-2.32 1.42-2.28 1.44-2.16 1.47-2 1.5-1.84 1.57-1.73 1.63-1.67 1.72-1.6 1.79-1.53 1.87-1.5 1.95-1.54 2.03-1.71 2.16-1.96 2.34-2.11 2.49-2.01 2.48-1.7 2.33M55.38-12.71l1.23 2.35 1.38 2.09 1.7 1.86 1.65 1.95 1.22 2.18.57 2.41-.08 2.57-.53 2.64-.76 2.67-.79 2.65-.68 2.63-.48 2.6-.23 2.57.07 2.56.37 2.55.63 2.54.8 2.51.85 2.48.78 2.43.63 2.37.42 2.32.19 2.26-.08 2.22-.39 2.17-.74 2.15-1.03 2.14-1.14 2.15-1.01 2.13-.69 2.1-.42 2.02-.42 1.98-1.28 2.15" filter="url(#a)"/><path d="m-7.76-84.66-2.23.61-2.17.7-1.88.68-1.65.7-1.55.74-1.53.8-1.52.87-1.5.93-1.49 1-1.5 1.08-1.53 1.19-1.57 1.29-1.59 1.39-1.6 1.46-1.58 1.52-1.54 1.55-1.5 1.59-1.48 1.63-1.43 1.67-1.37 1.7-1.27 1.73-1.21 1.79-1.19 1.89-.95 1.57" filter="url(#a)"/><path d="m-7.76-84.66-2.22.62-2.12.7-1.87.69-1.67.7-1.59.75-1.58.82-1.56.88-1.54.95-1.52 1.02-1.53 1.11-1.55 1.21-1.55 1.31-1.57 1.4-1.55 1.48-1.52 1.53-1.49 1.57-1.44 1.61-1.39 1.65-1.33 1.69-1.27 1.73-1.2 1.76-1.15 1.8-1.11 1.82-1.07 1.83-1.03 1.81-1.01 1.79-.99 1.78-.98 1.78-.69 1.55" filter="url(#a)"/><path d="m-10-84.07-2.29.73-2.11.72-2.36.68-2.76.74-2.82.82-2.51.89-2.14.94-1.95 1.02-2.03 1.11-2.28 1.22-2.56 1.31-2.82 1.41-3.06 1.48-3.27 1.53-3.41 1.57-3.42 1.61-3.29 1.65-3.07 1.69-2.88 1.73-2.79 1.76-2.83 1.79-2.9 1.82-2.91 1.83-2.75 1.81-2.43 1.79-2.29 1.78-2.66 1.78-2.2 1.54" filter="url(#a)"/><path d="m-12.24-83.54-2.36 1.1-1.56.82-1.24.76-1.03.82-.9.9-.85 1-.92 1.09-1.04 1.17-1.11 1.25-1.05 1.32-.85 1.38-.61 1.41-.4 1.43-.27 1.43-.21 1.46-.15 1.52-.06 1.59.01 1.7-.04 1.8-.2 1.87-.27 1.84.19 1.67 1.48 1.66m10.21-29.61-1.22.67-1.56.67-1.95.8-2.38.93-2.63 1.02-2.58 1.11-2.28 1.19-1.92 1.27-1.71 1.34-1.74 1.39-2 1.43-2.37 1.44-2.69 1.47-2.84 1.5-2.77 1.56-2.47 1.64-2.11 1.72-1.81 1.8-1.75 1.88-2 1.95-2.45 2.05-2.94 2.16-3.3 2.3-3.33 2.4-2.94 2.32-2.32 2.05-2.9 1.46" filter="url(#a)"/><path d="m-16.49-81.75-2.33 1.26-1.98 1.08-1.74.92-1.82.96-2.13 1.09-2.56 1.22-2.85 1.33-2.87 1.43-2.59 1.49-2.17 1.54-1.84 1.56-1.79 1.6-2 1.63-2.32 1.68-2.61 1.71-2.75 1.74-2.8 1.79-2.85 1.81-2.88 1.84-2.64 1.79-2.03 1.67-2.05 1.28" filter="url(#a)"/><path d="m-17.89-81.04-3.61.92-2.47 1-2.94 1.06-2.64 1.13-1.78 1.2-1.03 1.29-.77 1.36-.93 1.41-1.3 1.43-1.66 1.45-1.98 1.47-2.24 1.51-2.51 1.57-2.78 1.65-3.02 1.73-3.15 1.82-3.17 1.89-3.12 1.97-3.13 2.07-3.29 2.17-3.59 2.27-3.8 2.32-3.71 2.32-3.29 2.25-2.89 2.23-2.89 2.27-2.8 1.96" filter="url(#a)"/><path d="m-17.89-81.04-1.82.91-2.26 1-2.66 1.05-2.63 1.11-2.38 1.19-2.23 1.27-2.14 1.36-2.04 1.4-1.88 1.42-1.68 1.44-1.56 1.44-1.56 1.48-1.66 1.54-1.84 1.62-2.04 1.71-2.17 1.8-2.21 1.85-2.17 1.91-2.21 1.98-2.5 2.14-3.06 2.36-3.51 2.57-2.83 2.44" filter="url(#a)"/><path d="m-17.89-81.04-1.71.93-1.5 1.01-1.25 1.08-1.09 1.14-1.12 1.23-1.25 1.3-1.36 1.38-1.38 1.42-1.33 1.46-1.27 1.47-1.22 1.51-1.19 1.55-1.12 1.62-1.03 1.69-.88 1.78-.76 1.86-.67 1.94-.63 2.03-.64 2.11-.67 2.18-.67 2.24-.64 2.27-.55 2.29-.43 2.29-.31 2.28-.22 2.29-.16 2.31-.1 2.32-.06 2.35.03 2.38.14 2.39.27 2.41.35 2.44.32 2.49.15 2.63-.02 3.06.34 4.24" filter="url(#a)"/><path d="m-21.33-79.32-1.83 1.31-1.87 1.14-2.13 1.21-2.26 1.32-2.15 1.4-1.91 1.45-1.64 1.46-1.46 1.47-1.4 1.5-1.45 1.55-1.54 1.61-1.63 1.7-1.67 1.78-1.64 1.87-1.57 1.95-1.52 2.03-1.52 2.12-1.56 2.18-1.63 2.24-1.65 2.28-1.61 2.29-1.46 2.28-1.29 2.29-1.12 2.29-1.02 2.3-.96 2.33-.93 2.35-.9 2.38-.87 2.39-.9 2.42-1.04 2.47-1.2 2.54-1.29 2.69-1.2 2.98-1 3.3-1.33 2.97" filter="url(#a)"/><path d="m-23.63-77.74-1.71 1.2-1.78 1.43-1.75 1.46-1.72 1.51-1.77 1.56-1.92 1.59-2.11 1.62-2.26 1.64-2.29 1.69-2.18 1.72-1.96 1.76-1.73 1.79-1.55 1.81-1.49 1.84-1.58 1.85-1.77 1.88-1.99 1.92-2.16 1.98-2.2 2.07-2.1 2.16-1.86 2.26-1.56 2.37-1.28 2.47-1.1 2.55-1.06 2.6-1.2 2.62-1.43 2.6-1.74 2.6-1.99 2.61-2.14 2.66-2.18 2.68-2.15 2.54-2.09 2.06-1.3.92" filter="url(#a)"/><path d="m-29.71-72.47.48 1.19-.68 1.47-1.23 1.45-1.22 1.44-1.15 1.51-1.14 1.61-1.18 1.71-1.2 1.8-1.19 1.89-1.1 1.97-.98 2.06-.84 2.13-.7 2.21-.61 2.25-.54 2.29-.45 2.29-.35 2.29-.24 2.28-.13 2.29-.05 2.31.03 2.32.11 2.36.22 2.38.39 2.41.52 2.44.58 2.51.49 2.58.29 2.67.06 2.74-.07 2.75-.08 2.63.11 2.46.54 2.44 1.16 2.51m7.96-71.26-4.88 1.47-2.87 1.43-2.68 1.56-2.71 1.67-2.59 1.73-2.54 1.76-2.66 1.78-2.78 1.8-2.62 1.81-2.15 1.83-1.58 1.83-1.29 1.87-1.52 1.92-2.21 2.01-3.03 2.12-3.6 2.22-3.71 2.34-3.47 2.45-3.15 2.58-2.87 2.68-2.47 2.68-1.72 2.51-.93 2.26-2.61 2.66m59.69-45.74-1.78 1.34-2.58 1.71-1.86 1.78-1.1 1.87-.84 1.93-1.03 1.99-1.39 2.08-1.66 2.16-1.75 2.24-1.64 2.29-1.44 2.31-1.26 2.3-1.14 2.3-1.11 2.29-1.15 2.31-1.18 2.31-1.22 2.34-1.27 2.37-1.32 2.41-1.43 2.44-1.56 2.48-1.69 2.54-1.81 2.59-1.84 2.63-1.8 2.65-1.7 2.65-1.57 2.61-1.46 2.57-1.44 2.54-1.5 2.54-1.56 2.57-1.47 2.61-1.06 2.68-.4 2.75.19 2.78.11 2.5-1.17 1.15" filter="url(#a)"/><path d="m-35.69-65.79-2.1 1.93-2.38 1.9-2.36 1.78-2.27 1.78-2.23 1.83-2.32 1.84-2.33 1.86-2.09 1.87-1.62 1.92-1.1 1.99-.8 2.08-.9 2.2-1.43 2.3-2.29 2.4-3.32 2.5-4.29 2.55-5 2.6-5.31 2.6-5.16 2.61-4.64 2.6-3.88 2.59-3.11 2.58-2.45 2.55-1.97 2.53-1.67 2.49-1.63 2.49-1.9 2.52-2.45 2.56-2.9 2.6-2.87 2.57-2.84 2.48-4.34 2.31m82.32-68.8-2.05 2.96-1.95 2.13-1.9 2-1.72 2.13-1.51 2.28-1.38 2.35-1.34 2.34-1.28 2.31-1.1 2.28-.86 2.26-.65 2.28-.54 2.3-.58 2.33-.73 2.35-.89 2.39-1 2.43-1.02 2.46-.96 2.53-.86 2.58-.76 2.64-.72 2.66-.77 2.65-.88 2.6-1.06 2.54-1.24 2.51-1.38 2.5-1.35 2.53-1.08 2.58-.65 2.6-.39 2.65-.45 3.15" filter="url(#a)"/><path d="m-40.57-59.02-2.35 2.62-1.12 1.97-1.34 1.82-2.23 1.82-2.97 1.88-3.07 1.98-2.54 2.09-1.81 2.22-1.36 2.34-1.34 2.44-1.65 2.52-2.09 2.58-2.49 2.6-2.77 2.62-2.99 2.6-3.12 2.6-3.15 2.58-2.98 2.57-2.57 2.55-1.98 2.53-1.37 2.51-.91 2.51-.76 2.52-.95 2.54L-91.9.54l-1.98 2.53-2.41 2.52-2.46 2.51-1.88 2.52-.78 2.57.09 2.45-1.05 1.64" filter="url(#a)"/><path d="m-40.57-59.02-1.95 2.62-2.09 1.96-2.84 1.82-3.46 1.81-3.25 1.86-2.43 1.97-1.58 2.08-1.12 2.21-1.09 2.32-1.43 2.43-2 2.51-2.63 2.58-3.2 2.6-3.52 2.61-3.47 2.6-3.04 2.59-2.37 2.58-1.74 2.56-1.39 2.55-1.38 2.51-1.55 2.49-1.63 2.49-1.56 2.51-1.54 2.55-1.88 2.57-2.48 2.54-2.63 2.48-1.78 2.4-2.14 2.43m61-65.72-.85 1.38-1.43 2.07-1.89 2.4-2.1 2.44-1.98 2.38-1.68 2.29-1.39 2.26-1.25 2.24-1.21 2.26-1.23 2.28-1.19 2.32-1.05 2.36-.85 2.38-.63 2.41-.5 2.45-.5 2.52-.65 2.58-.9 2.63-1.17 2.67-1.38 2.66-1.49 2.59-1.46 2.52-1.26 2.48-.94 2.48-.65 2.53-.55 2.57-.58 2.52-.62 1.97" filter="url(#a)"/><path d="m-43.3-54.53-1.56 2.25-2.43 2.57-1.84 2.52-1.04 2.38-.72 2.26-.76 2.21-.88 2.21-1 2.22-1.12 2.26-1.28 2.29-1.41 2.33-1.46 2.35-1.35 2.37-1.2 2.4-1.14 2.45-1.27 2.54-1.52 2.66-1.68 2.77-1.51 2.76-1.14 2.56-1.03 2.27-1.48 2.78m28.82-53.41-9.28 2.26-1.2 2.58-1.25 2.53-2.27 2.38-2.67 2.27-2.56 2.23-2.25 2.21-1.85 2.24-1.39 2.27-.98 2.3-.75 2.34-.81 2.36-1.12 2.39-1.56 2.42-2.04 2.48-2.43 2.57-2.72 2.65-2.95 2.7-3.29 2.69-3.91 2.59-4.78 2.45-5.28 2.39-4.29 2.39-2.07 2.26" filter="url(#a)"/><path d="m-45.12-50.29-9.18 1.46-8.08 1.93-1.59 2.14 1.52 2.28 1.56 2.39.53 2.48-.32 2.57-.7 2.62-.82 2.63-1.03 2.63-1.49 2.61-2.2 2.6-2.97 2.58-3.56 2.57-3.74 2.55-3.46 2.53-2.87 2.51-2.21 2.52-1.73 2.52-1.59 2.54-1.73 2.54-2.03 2.54L-95.13 6l-2.46 2.55-2.46 2.58-2.28 2.62-1.94 2.66-1.42 2.67-.78 2.61v2.48l.87 2.3 1.44 2.18-.81 1.62" filter="url(#a)"/><path d="m-45.76-49.33-1.71 2.31-2.4 2.17-2.48 2.27-2.38 2.36-2.27 2.44-2.13 2.53-1.98 2.61-1.88 2.62-1.79 2.6-1.69 2.56-1.64 2.55-1.69 2.55-1.85 2.56-1.98 2.52-1.86 2.48-1.49 2.42-1.21 2.43-1.49 2.49-2.56 2.55-3.99 2.59-4.69 2.6-2.2 2.29" filter="url(#a)"/><path d="m-47.2-46.48-.64 1.71-1.07 2.28-1.44 2.38-1.9 2.46-2.37 2.55-2.76 2.63-3.02 2.64-3.02 2.61-2.76 2.57-2.33 2.56-1.97 2.56-1.97 2.55-2.45 2.53-3.37 2.49-4.36 2.46-5 2.47-4.91 2.49-4.1 2.53-2.92 2.54-1.91 2.51-1.47 2.46-1.54 2.41-2.08 2.38-3.14 2.38" filter="url(#a)"/><path d="m-48.89-41.69-3.89 1.79-3.64 2.27-2.7 2.28-2.56 2.29-2.1 2.34-1.33 2.38-.81 2.4-.91 2.42-1.64 2.47-2.53 2.53-3.19 2.59-3.31 2.65-2.92 2.65L-82.63-8l-1.49 2.59-.99 2.54-.8 2.52-.92 2.53-1.22 2.55-1.59 2.61-1.87 2.65-1.97 2.69-1.8 2.7-1.34 2.7-.81 2.68-.73 2.68-1.66 2.5-3.11 1.74" filter="url(#a)"/><path d="m-48.77-42.33-1.37 2.52-1.61 2.3-2.76 2.52-3.44 2.68-3.1 2.67-2.28 2.61-1.66 2.55-1.51 2.53-1.64 2.55-1.71 2.55-1.54 2.52-1.27 2.47-1.1 2.45-1.18 2.45-1.43 2.49-1.64 2.52-1.6 2.53-1.35 2.5-1.09 2.45-.92 2.4-.77 2.37-.84 2.37M54.05-23.37l9.43 2.69 1.17 3.09-1.64 3.14-1.37 2.85-.27 2.49.52 2.23.73 2.16.58 2.22.38 2.37.33 2.49.49 2.58.84 2.63 1.29 2.64 1.75 2.62 2.14 2.58 2.32 2.56 2.24 2.54 1.78 2.55 1.08 2.55.29 2.54-.23 2.5-.3 2.45.11 2.38.69 2.33.89 2.26.35 2.09-1.37 1.48M54.05-23.37l-6.41 2.68-1.01 3.08-2.33 3.14-2.36 2.85-.92 2.48.45 2.22.95 2.14.74 2.21.22 2.35L43 2.27l-.95 2.58-1.46 2.63-1.82 2.63-1.96 2.62-1.87 2.57-1.62 2.54-1.37 2.53-1.29 2.55-1.49 2.55-1.93 2.55-2.34 2.51-2.44 2.45-2.09 2.37L19 37.61l-.67 2.5" filter="url(#a)"/><path d="m-49.88-39.09-1.03 1.68-2.68 2.54-4.11 2.78-4.66 2.75-4.67 2.65-4.29 2.58-3.56 2.57-2.47 2.58-1.23 2.57-.14 2.55.6 2.52.88 2.51.74 2.51.27 2.53-.43 2.53-1.21 2.55-1.92 2.54-2.38 2.56-2.55 2.57-2.46 2.58-2.27 2.61-2.13 2.62-2.08 2.61-1.99 2.57-1.79 2.55-1.44 2.52-1.1 2.55-.94 2.63-1.07 2.68-1.46 2.64-1.74 2.4-1.06 2.02.83 1.77" filter="url(#a)"/><path d="m-50.34-38.22-4.31 3.12-4.25 2.97-3.64 2.8-3.38 2.6-2.61 2.51-1.95 2.51-2.22 2.55-3.23 2.55-4.29 2.52-4.74 2.47-4.36 2.45-3.27 2.45-1.79 2.49-.4 2.51.35 2.52.09 2.5-1.02 2.48-2.25 2.46-2.88 2.49-3.29 2.53-4.54 2.42-3.88 1.6m61.07-52.6-1.15 2.31-1.28 2.44-1.47 2.47-1.75 2.41-1.8 2.41-1.6 2.46-1.26 2.54-.89 2.61-.58 2.66-.36 2.67-.2 2.64-.13 2.58-.14 2.54L-64-.06l-.49 2.53-.82 2.57-1.15 2.61-1.38 2.65-1.43 2.68-1.29 2.68-1.06 2.66-.88 2.61-.84 2.52-.81 2.4-.67 2.22-.34 2.09.02 2.03.35 1.89" filter="url(#a)"/><path d="M-51.13-35.32-52.21-33l-1.53 2.44-3.2 2.47-4.65 2.42-5.1 2.41-4.41 2.46-2.91 2.54-1.17 2.62.19 2.66.89 2.67.95 2.64.6 2.59.04 2.54-.6 2.53-1.29 2.54-1.9 2.57-2.34 2.61-2.52 2.65-2.41 2.68-2.11 2.67-1.69 2.66-1.28 2.6-.97 2.51-.89 2.39-1.05 2.26-1.25 2.18-1.36 2.21-1.34 2.5-.22 3.32m43.71-70.54-.99 3.35-1.51 2.61-1.64 2.42-1.18 2.5-.83 2.59-.98 2.6-1.42 2.56-1.77 2.52-1.77 2.5-1.47 2.51-.99 2.53-.55 2.54-.22 2.55-.07 2.55-.04 2.56-.08 2.57-.12 2.59-.12 2.61-.07 2.61-.02 2.6-.07 2.58-.24 2.56-.54 2.55-.86 2.56-1.05 2.57-1.04 2.55-.82 2.48-.53 2.35-.37 2.18-.31 2-.1 1.9.56 1.94 1.25 2.17-.02 2.42" filter="url(#a)"/><path d="m-52.11-31.57-9.12 3.71.63 2.42 1.63 2.32.56 2.42-.83 2.53-2.31 2.63-3.69 2.69-4.76 2.69-5.31 2.64-5.34 2.57-4.87 2.53-3.95 2.51-2.69 2.53-1.22 2.56.15 2.61 1.14 2.65 1.59 2.67 1.48 2.67.92 2.65.12 2.59-.8 2.5-1.75 2.39-2.68 2.25-3.51 2.16-3.96 2.21-3.56 2.5-1.91 3.31" filter="url(#a)"/><path d="m-53.42-25.98-.46.89-1.45 2.05-3.21 2.41-4.17 2.55-3.64 2.65-2.23 2.72-.89 2.7-.22 2.65-.24 2.58-.68 2.53-1.16 2.51-1.46 2.54-1.46 2.58L-75.86 8l-.75 2.65-.35 2.67-.18 2.66-.34 2.62-.89 2.57-1.65 2.49-2.37 2.4-2.76 2.32-2.72 2.29-2.46 2.31-2.31 2.38-2.34 2.39-2.11 2.31-1.08 2.28.6 3.43M53.8-23.9l.43 1.99.58 2.24.8 2.43.91 2.62.88 2.78.86 2.83 1.01 2.81 1.32 2.74 1.6 2.64 1.71 2.59 1.57 2.56 1.24 2.55.87 2.57.59 2.59.49 2.59.61 2.61.85 2.62 1.14 2.61 1.29 2.6 1.25 2.58.94 2.53.47 2.49-.09 2.44-.55 2.38-.84 2.34-.89 2.3-.74 2.26-.52 2.23-.34 2.17-.29 2.09-.3 2-.24 1.9.05 1.81.28 1.78-.36 1.96-1.71 2.53M49.77-39.2l1.79 2.62 1.56 2.82.83 2.56.78 2.29 1.28 2.17 1.96 2.16 2.51 2.21 2.8 2.3 2.69 2.42 2.23 2.54 1.47 2.64.63 2.72-.07 2.74-.4 2.71-.29 2.65.22 2.57.93 2.54 1.57 2.52 1.89 2.54 1.79 2.56 1.32 2.56.69 2.57.28 2.58.48 2.64 1.34 2.64 2.1 2.51.95 2.4" filter="url(#a)"/><path d="m49.57-39.62 1.4 1.77 2.58 2.2 3.89 2.31 4.5 2.32 3.81 2.38 2.16 2.45.6 2.56-.11 2.68.06 2.77.67 2.78 1.15 2.7 1.32 2.55 1.25 2.39 1.19 2.27 1.25 2.25 1.34 2.32 1.32 2.44 1.16 2.56.95 2.64.88 2.68 1.09 2.68 1.5 2.6 2.06 2.44 2.62 2.17 3.36 1.98" filter="url(#a)"/><path d="m48.89-41.4.92 2.26.93 2.61.94 2.67.91 2.51.96 2.33 1.13 2.23 1.5 2.19 2 2.24 2.48 2.32 2.81 2.43 2.81 2.55 2.44 2.64 1.77 2.71.95 2.73.23 2.71-.18 2.65-.15 2.6.32 2.55 1.04 2.55 1.77 2.55 2.2 2.56 2.23 2.58 1.87 2.58 1.35 2.6.85 2.63.46 2.64.08 2.65-.24 2.67.08 2.73 2.32 2.64" filter="url(#a)"/><path d="M48.55-42.42 50.46-41l.65 2.06.55 2.44.69 2.54.77 2.47.79 2.34.82 2.24.84 2.21.86 2.25.81 2.31.72 2.42.61 2.54.53 2.63.49 2.71.5 2.73.53 2.71.51 2.65.45 2.59.36 2.55.24 2.53.12 2.55.01 2.56-.08 2.57-.14 2.57-.13 2.6v2.63l.19 2.65.35 2.53.14 2.4" filter="url(#a)"/><path d="m47.63-45.03 1.03 2.73.81 2.26.76 2.18.8 2.23.86 2.29.9 2.35.92 2.41.92 2.51.94 2.6.96 2.69.98 2.74.93 2.73.85 2.66.73 2.56.59 2.45.45 2.4.29 2.37.15 2.42.02 2.48-.07 2.55-.12 2.6-.09 2.63-.05 2.63.01 2.61.02 2.59-.03 2.57-.13 2.57-.26 2.58-.36 2.56-.44 2.54-.47 2.48-.46 2.41-.4 2.38-.39 2.41-.51 2.55m-10.6-88.56 1.58 2.6 1.08 2.09 1.88 2.19 3.41 2.39 4.96 2.47 5.83 2.44 5.75 2.32 4.82 2.24 3.45 2.19 2.05 2.21.92 2.28.24 2.37-.04 2.49-.02 2.62.2 2.72.6 2.77 1.21 2.74 2.09 2.66L90.31.45l4.1 2.43 4.71 2.43 4.87 2.57 4.91 2.81 6.18 3.1M43.27-54.3l.31 2.91-.36 2.28-.07 2.19.51 2.17.83 2.17.83 2.16.68 2.18.51 2.21.38 2.25.3 2.3.22 2.37.09 2.44-.09 2.53-.28 2.65-.43 2.74-.48 2.78-.44 2.74-.37 2.6-.32 2.4-.33 2.21-.37 2.15-.38 2.24-.4 2.45-.45 2.56-.7 2.47-1.65 2.51" filter="url(#a)"/><path d="m42.29-55.74 6.83 1.81.05 2.18-.37 2.14.39 2.07.99 2.05 1.28 2.07 1.59 2.13 2.1 2.23 2.88 2.32 3.71 2.36 4.33 2.37 4.51 2.33 4.25 2.29 3.68 2.27 3.04 2.28 2.5 2.33 2.23 2.41 2.23 2.51 2.43 2.61 2.67 2.7 2.73 2.74 2.52 2.73 2.02 2.67L102.3.45l1.01 2.53.93 2.52 1.15 2.57 1.48 2.63 1.7 2.58 1.74 2.3 1.81 1.71" filter="url(#a)"/><path d="m39.47-60.78 2.59 2.41 2.08 2.29 1.42 2.26 1.34 2.23 1.6 2.23 1.81 2.21 1.86 2.19 1.78 2.18 1.71 2.19 1.69 2.19 1.72 2.23 1.7 2.26 1.65 2.31 1.61 2.37 1.68 2.45 1.88 2.54 2.2 2.65 2.53 2.73 2.8 2.77 2.95 2.74 2.97 2.61 2.82 2.42 2.43 2.24 1.81 2.17 1.07 2.25.65 2.45.93 2.57 1.61 2.48 1.77 2.52" filter="url(#a)"/><path d="m38.36-62.37 1.08 1.59 1.41 2.16 1.56 2.24 1.63 2.22 1.69 2.19 1.73 2.14 1.79 2.1 1.78 2.09 1.65 2.12 1.45 2.16 1.23 2.24 1.12 2.3 1.12 2.34 1.26 2.35 1.46 2.33 1.67 2.31 1.82 2.29 1.9 2.31 1.92 2.35 1.89 2.43 1.86 2.51 1.82 2.61 1.73 2.69 1.59 2.73 1.41 2.73 1.23 2.67L80.27.44 81.3 3l.94 2.54.83 2.57.72 2.6.78 2.57 1.06 2.48 1.1 2.44.18 3.07M38.36-62.37l4.26 1.57 4.6 2.14 3.43 2.22 2.53 2.21 1.9 2.17 1.43 2.12 1.36 2.09 1.73 2.06 2.24 2.08 2.47 2.13 2.2 2.2 1.55 2.29.88 2.34.52 2.36.6 2.32 1.04 2.28 1.62 2.24 2.16 2.22 2.55 2.25 2.69 2.33 2.54 2.43 2.16 2.6 1.81 2.77 1.91 2.92 2.54 2.95 3.2 2.8 3.55 2.13" filter="url(#a)"/><path d="m38.36-62.37 1.27 1.57 1.58 2.13 1.41 2.22 1.32 2.21 1.34 2.16 1.44 2.12 1.54 2.09 1.59 2.06 1.56 2.07 1.49 2.12 1.38 2.2 1.28 2.28 1.21 2.34 1.15 2.36 1.12 2.33 1.12 2.28 1.19 2.22 1.27 2.21 1.33 2.23 1.3 2.3 1.19 2.42 1.05 2.57.96 2.79.95 2.98.74 3.1-.15 3.5m-33.43-63.4 1.03 1.13 1.62 1.42 2.44 1.73 3.52 1.97 4.31 2.1 4.34 2.15 3.62 2.15L60-50.14l1.58 2.09.97 2.07.86 2.07 1.13 2.12 1.64 2.2 2.18 2.27 2.7 2.34 3.22 2.37 3.7 2.33L82.03-28l4.04 2.21 3.42 2.19 2.18 2.2.78 2.25.01 2.34.67 2.51 2.79 2.96 5.04 3.62" filter="url(#a)"/><path d="m33.94-67.8 2.32 2.19 1.37 1.63 1.08 1.6 1.11 1.77 1.21 1.94 1.25 2.08 1.22 2.13 1.17 2.13 1.12 2.12 1.09 2.1 1.07 2.08 1.08 2.08 1.06 2.13 1.03 2.19.95 2.28.86 2.34.78 2.36.72 2.34.69 2.28.69 2.22.68 2.19.65 2.2.6 2.26.55 2.34.53 2.52.57 2.95.6 3.63M31.24-70.81l2.35 1.45 1.97 1.72 1.86 1.74 2 1.67 2.42 1.68 2.85 1.77 3.01 1.9 2.89 2.01 2.59 2.09 2.34 2.11 2.26 2.11 2.39 2.08 2.63 2.04 2.91 2.03 3.2 2.04 3.53 2.12 3.87 2.24 4.09 2.42 3.9 2.54 3.34 2.49 2.96 2.1 2.91 1.21" filter="url(#a)"/><path d="m31.24-70.81 2.05 1.45 2.46 1.72 3.28 1.74 3.92 1.67 4.35 1.68 4.39 1.77 3.92 1.9 3.16 2.01 2.55 2.09 2.43 2.11 2.67 2.11 2.92 2.08 2.98 2.04 2.99 2.03 3.33 2.04 4.18 2.12 5.27 2.24 5.98 2.42 5.75 2.54 4.75 2.49 4.3 2.1 5.89 1.21" filter="url(#a)"/><path d="m26.75-74.95 1.52 1.15 2.01 1.39 1.82 1.48 1.48 1.49 1.25 1.5L36-66.43l1.16 1.51 1.19 1.52 1.24 1.56 1.28 1.65 1.35 1.77 1.41 1.91 1.45 2.02 1.49 2.11 1.5 2.16 1.46 2.19 1.42 2.18 1.37 2.18 1.3 2.17 1.22 2.18 1.11 2.18.96 2.21.82 2.25.75 2.3.87 2.35 1.2 2.41 1.47 2.25" filter="url(#a)"/><path d="m26.75-74.95 1.62 1.15 2.49 1.38 2.72 1.47 2.71 1.49 2.7 1.5 2.54 1.51 2.15 1.5 1.64 1.51 1.27 1.55 1.27 1.63 1.72 1.75 2.49 1.9 3.39 2.02 4.18 2.1 4.65 2.17 4.74 2.18 4.46 2.18 3.95 2.18 3.44 2.15 3.16 2.16 3.22 2.16 3.58 2.2 3.89 2.23 3.72 2.19 3.82 2.22M26.75-74.95l1.48 1.15 1.7 1.39 1.75 1.48 1.73 1.49 1.69 1.5 1.67 1.51 1.61 1.51 1.53 1.52 1.45 1.56 1.47 1.65 1.57 1.77 1.76 1.91 1.91 2.02 1.96 2.11 1.88 2.16 1.7 2.19 1.5 2.18 1.35 2.18 1.29 2.17 1.3 2.18 1.35 2.18 1.42 2.21 1.46 2.25 1.44 2.3 1.37 2.35 1.41 2.41 1.86 2.25" filter="url(#a)"/><path d="m25.84-75.58 1.49.88 2.43 1.03 2.83 1.31 2.17 1.47 1.38 1.57 1.03 1.63 1.1 1.67 1.4 1.7 1.73 1.76 2.04 1.84 2.28 1.92 2.54 2.01 2.79 2.06 3.08 2.11 3.34 2.11 3.5 2.1 3.51 2.11 3.36 2.11 3.07 2.14 2.74 2.21 2.41 2.27 2.1 2.34 1.74 2.37 1.36 2.35 1.01 2.3.94 2.23 1.27 2.2 1.93 2.2 2.37 2.24 2.01 2.26 1.29 2.33L94-11.62" filter="url(#a)"/><path d="m22.18-78.58 2.32 1.71 2.36 1.5 2.29 1.42 2.02 1.43 1.73 1.45 1.54 1.47 1.47 1.48 1.48 1.5 1.5 1.5 1.54 1.49L42-62.1l1.6 1.6 1.67 1.72 1.78 1.86 1.88 2 1.91 2.11 1.81 2.16 1.6 2.19 1.35 2.19 1.26 2.19 1.47 2.16 1.89 2.05 2.46 1.67" filter="url(#a)"/><path d="m20.09-79.74 2.24 1.38 1.78 1.17 1.6 1.14 1.47 1.17 1.41 1.23L30-72.31l1.45 1.44 1.53 1.53 1.59 1.6 1.62 1.66 1.6 1.71 1.53 1.77 1.45 1.85 1.34 1.92 1.27 2 1.21 2.05 1.17 2.09 1.15 2.11 1.13 2.11 1.11 2.12 1.08 2.13 1.06 2.16 1.03 2.22 1.03 2.27 1.03 2.33 1.03 2.36 1.02 2.35.95 2.31.87 2.25.74 2.22.66 2.23.62 2.28.66 2.35.65 2.54.55 2.97.47 3.66" filter="url(#a)"/><path d="m20.09-79.74 7.37 1.36 1.38 1.16 1.34 1.13 1.66 1.14 1.56 1.21 1.4 1.3 1.42 1.41 1.56 1.51 1.74 1.57 1.94 1.63 2.16 1.66 2.42 1.72 2.78 1.78 3.25 1.88 3.85 1.97 4.5 2.06 5.07 2.1 5.4 2.12 5.39 2.1 5.01 2.06 4.28 2.01 3.35 1.96 2.62 1.92 3.23 1.92 6.38 2.01" filter="url(#a)"/><path d="m18.6-80.47 1.99.96 2.09 1.12 1.85 1.13 1.66 1.14 1.69 1.16 1.9 1.22 2.14 1.31 2.3 1.41 2.29 1.5 2.17 1.57 1.95 1.63 1.71 1.67 1.49 1.73 1.31 1.79 1.23 1.88 1.25 1.98 1.36 2.05 1.52 2.1L52.21-51l1.85 2.1 1.95 2.06 1.94 2.03 1.86 2 1.79 2.01 1.84 2.13 1.92 2.5 1.95 3.38" filter="url(#a)"/><path d="m17.68-80.84 1.87.8 1.64.95 1.62 1.11 1.69 1.25 1.76 1.35 1.84 1.4 1.88 1.44 1.91 1.47 1.94 1.48 1.97 1.5 1.99 1.52 1.99 1.53 1.94 1.55 1.89 1.61 1.82 1.68 1.74 1.79 1.69 1.9 1.62 2 1.54 2.09 1.46 2.15 1.39 2.19 1.33 2.19 1.34 2.2 1.4 2.19 1.53 2.2 1.66 2.21 1.74 2.24 1.71 2.28 1.52 2.32 1.31 2.36 1.23 2.39 1.44 2.4 1.85 2.35 2.6 2.18" filter="url(#a)"/><path d="m17.68-80.84 1.7.79 1.09.92.78 1.08.94 1.22 1.15 1.32 1.2 1.38 1.1 1.41.98 1.44.92 1.46.87 1.48.78 1.48.63 1.49.49 1.48.44 1.49.48 1.54.53 1.66.46 1.82.24 2-.02 2.14-.17 2.22-.14 2.29.47 2.85" filter="url(#a)"/><path d="m15.65-82.06 1.55.86 1.57.85 1.7.95 1.76 1.05 1.71 1.1 1.63 1.14 1.58 1.19 1.57 1.25 1.58 1.34 1.59 1.43 1.57 1.51 1.49 1.58 1.42 1.64 1.34 1.71 1.3 1.76 1.29 1.84 1.29 1.91 1.3 1.99 1.31 2.05 1.29 2.08 1.26 2.11 1.22 2.11 1.16 2.11 1.1 2.12 1.02 2.16.96 2.21.92 2.28.91 2.34.92 2.38.92 2.37.9 2.31.85 2.23.77 2.2.69 2.21.6 2.25.49 2.15.38 1.14" filter="url(#a)"/><path d="m12.41-83.06 2.41.9 1.86.76 1.6.71 1.54.77 1.58.9 1.64 1.05 1.67 1.17 1.65 1.28 1.6 1.35 1.53 1.41 1.47 1.43 1.43 1.47 1.4 1.48 1.36 1.5 1.33 1.5 1.3 1.51 1.27 1.53 1.26 1.59 1.27 1.7 1.29 1.85 1.31 1.99 1.3 2.12 1.28 2.18 1.26 2.21 1.21 2.19 1.15 2.19 1.2 2.52" filter="url(#a)"/><path d="m12.45-83.14 1.76.66 1.46.62 1.42.69 1.43.8 1.45.9 1.43.99 1.4 1.06 1.35 1.09 1.27 1.15 1.18 1.19 1.11 1.28 1.07 1.36 1.08 1.46L31-68.35l1.19 1.59 1.19 1.62 1.12 1.65 1.03 1.69.95 1.79.92 1.96.93 2.11.94 2.25 1.13 2.78" filter="url(#a)"/><path d="m11.73-83.53 1.95.63 1.9.75 1.74.73 1.58.75 1.55.82 1.62.93 1.74 1.06 1.84 1.18 1.9 1.28 1.92 1.36 1.93 1.41 1.99 1.45 2.1 1.48 2.27 1.5 2.45 1.51 2.61 1.54 2.74 1.56 2.78 1.62 2.74 1.69 2.64 1.78 2.48 1.89 2.29 1.99 2.11 2.08 1.96 2.15 1.87 2.18 1.81 2.2 1.79 2.2 1.74 2.2 1.7 2.2 1.65 2.21 1.71 2.24 1.91 2.28 2.23 2.32 2.6 2.37 2.87 2.42 2.91 2.45 2.27 2.52" filter="url(#a)"/><path d="m11.47-83.8 2.25.66 1.46.64 1.3.66 1.38.73 1.57.82 1.74.92 1.85.99 1.91 1.07 1.96 1.12 2.05 1.18 2.22 1.25 2.41 1.32 2.58 1.4 2.69 1.49 2.69 1.56 2.62 1.62 2.47 1.68 2.29 1.74 2.11 1.82 1.99 1.89 1.91 1.98 1.91 2.04 1.97 2.09 2.07 2.11 2.15 2.11 2.15 2.09 2.07 2.06 1.96 2.08 1.91 2.12 2 2.26 2.27 2.46 2.7 2.68 3.27 2.77 3.85 2.61" filter="url(#a)"/><path d="m10.29-83.75 1.58.34 2.1.57 2.24.67 2.21.71 2.12.74 1.97.8 1.81.9 1.72 1.03 1.73 1.15 1.83 1.26 2 1.33 2.24 1.39 2.54 1.43 2.86 1.46 3.17 1.48L45.77-67l3.4 1.5 3.36 1.5 3.32 1.51 3.38 1.56 3.53 1.66 3.66 1.83 3.68 2 3.62 2.15 3.59 2.23 3.47 2.31 2.77 2.87" filter="url(#a)"/><path d="m8.46-84.57 1.62.62 1.58.53 1.77.6 1.87.67 1.87.71 1.9.75 2 .82 2.16.93 2.33 1.04 2.41 1.16 2.37 1.25 2.23 1.34 2.01 1.39 1.75 1.44 1.54 1.46 1.41 1.49 1.4 1.5 1.52 1.52 1.74 1.54 1.99 1.57 2.22 1.65 2.37 1.74 2.43 1.86L55.34-55l2.32 2.09 2.24 2.17 2.19 2.2 2.13 2.21 2.1 2.2 2.11 2.18 2.19 2.11 2.22 2.04 1.53 2.18" filter="url(#a)"/><path d="m7.24-84.86 2.11.52 2.2.57 2.04.6 1.76.63 1.62.67 1.66.73 1.82.81 2.02.9 2.29.97 2.59 1.04 2.94 1.1 3.24 1.16 3.41 1.22 3.41 1.29 3.24 1.38 3.06 1.46 2.99 1.54 3.13 1.6 3.53 1.64 4.09 1.7 4.66 1.75 5.06 1.85 5.25 1.97 5.3 2.07 5.38 2.15 5.53 2.18 5.4 2.13 4.87 1.97 4.79 1.39" filter="url(#a)"/><path d="m5.72-85.19 2.35.62L10-84l1.84.57 2.02.61 2.34.66 2.64.7 2.77.75 2.75.82 2.59.92 2.44 1.03 2.42 1.14 2.54 1.24 2.74 1.33 2.93 1.38 3.01 1.43 2.91 1.46 2.71 1.49 2.5 1.5 2.39 1.5 2.5 1.52 2.8 1.54 3.23 1.61 3.71 1.71 4.12 1.84 4.39 1.99 4.44 2.12 4.19 2.19 3.67 2.22 3.35 2.2 3.97 2.2 5.48 2.53" filter="url(#a)"/><path d="m2.82-85.38 1.46.1 1.79.32 1.86.45 1.79.52 1.74.56 1.69.61 1.68.65 1.66.7 1.65.76 1.65.83 1.66.92 1.67 1.02 1.67 1.14 1.65 1.23 1.63 1.31 1.59 1.38 1.53 1.43 1.49 1.46 1.43 1.48 1.39 1.5 1.35 1.51 1.32 1.52 1.3 1.55 1.31 1.61 1.32 1.71 1.36 1.84 1.4 1.99 1.41 2.12 1.41 2.19 1.37 2.22 1.33 2.21 1.33 2.2 1.49 2.54" filter="url(#a)"/><path d="m2.82-85.38 1.44.11 1.73.32 1.73.45 1.66.52 1.61.56 1.59.62 1.56.65 1.49.71 1.41.76 1.36.84 1.32.94L21-77.86l1.23 1.14 1.19 1.24 1.15 1.31 1.13 1.39 1.16 1.42 1.2 1.47 1.23 1.48 1.24 1.51 1.21 1.52 1.14 1.55 1.06 1.6.98 1.66.88 1.75.78 1.87.68 1.98.56 2.09.45 2.16.4 2.2.39 2.21.44 2.2.47 2.19.45 2.16.36 2.16.15 2.31-.31 2.72" filter="url(#a)"/><path d="m1.75-85.59 1.86.33 2.26.26 1.96.32 1.81.41 1.85.5 2 .56 2.21.61 2.43.65 2.63.71 2.75.78 2.75.86 2.59.94 2.36 1.01 2.17 1.07 2.18 1.11 2.48 1.17 3.04 1.23 3.63 1.32 3.99 1.43 3.93 1.54 3.64 1.66 3.58 1.71 4.05 1.61 3.87 1.43" filter="url(#a)"/></g><g fill="none" stroke="#000"><circle cx="6.54" cy="26.86" r="1.892" filter="url(#a)"/><circle cx="6.752" cy="24.728" r="2.596" filter="url(#a)"/><circle cx="9.404" cy="27.444" r="2.11" filter="url(#a)"/><circle cx="9.472" cy="27.292" r="2.872" filter="url(#a)"/><circle cx="8.244" cy="27.396" r="2.672" filter="url(#a)"/><circle cx="7.628" cy="28.516" r="2.158" filter="url(#a)"/><circle cx="8.644" cy="28.716" r="2.25" filter="url(#a)"/><circle cx="6.472" cy="26.14" r="2.408" filter="url(#a)"/><circle cx="6.708" cy="27.04" r="2.522" filter="url(#a)"/><circle cx="9.14" cy="26.664" r="2.628" filter="url(#a)"/><circle cx="-7.108" cy="32.31" r="2.148" filter="url(#a)"/><circle cx="-9.364" cy="32.526" r="1.234" filter="url(#a)"/><circle cx="-6.424" cy="34.678" r="2.616" filter="url(#a)"/><circle cx="-9.18" cy="33.062" r="1.41" filter="url(#a)"/><circle cx="-9.452" cy="32.086" r="1.596" filter="url(#a)"/><circle cx="-8.088" cy="33.014" r="2.868" filter="url(#a)"/><circle cx="-9.244" cy="30.894" r="2.106" filter="url(#a)"/><circle cx="-9.232" cy="32.146" r="2.086" filter="url(#a)"/><circle cx="-8.396" cy="31.914" r="1.846" filter="url(#a)"/><circle cx="-7.984" cy="34.298" r="1.704" filter="url(#a)"/></g><path fill="#66CCBC" stroke="#000" stroke-linejoin="round" stroke-width="3" d="m-11.89 49.64.37-.5.37-.49.37-.48.38-.48.37-.46.37-.45.38-.45.37-.44.38-.43.37-.42.38-.41.37-.4.38-.39.37-.38.38-.38.37-.36.38-.36.37-.35.38-.33.37-.33.37-.32.37-.31.37-.3.37-.29.37-.29.37-.27.37-.26.37-.26.36-.24.36-.24.37-.22.36-.22.36-.2.35-.2.36-.19.36-.18.35-.16.35-.16.35-.15.35-.14.34-.13.34-.12.35-.11.33-.1.34-.09.33-.08.34-.07.32-.06.33-.05.32-.04.33-.03.31-.02.32-.01h.31l.31.01.31.02.3.03.3.04.29.06.3.06.29.07.28.08.28.09.28.1.28.12.27.12.27.13.26.15.26.15.25.17.25.17.25.19.24.2.24.21.23.21.23.23.23.24.22.25.21.26.21.28.21.28.19.29.2.31.19.31.18.33.18.34.18.34.17.36.16.37.16.38.15.4.15.4.14.41.13.43.13.44.12.44.12.46.11.47.1.49-.29-.3-.29-.28-.29-.28-.29-.27-.29-.27-.29-.25-.3-.25-.29-.25-.29-.23-.29-.23-.29-.23-.29-.21-.3-.21-.29-.2-.29-.2-.29-.18-.29-.19-.29-.17-.29-.17-.3-.16-.29-.15-.29-.15-.29-.14-.29-.13-.29-.13-.29-.12-.3-.11-.29-.11-.29-.1-.29-.09-.29-.09-.29-.08-.29-.07-.3-.07-.29-.06-.29-.05-.29-.05-.29-.04-.29-.04-.29-.02-.3-.03-.29-.01-.29-.01h-.58l-.29.01-.29.02-.3.03-.29.02-.29.04-.29.04-.29.05-.29.06-.29.06-.3.07-.29.07-.29.08-.29.08-.29.1-.29.1-.3.1-.29.11-.29.12-.29.12-.29.13-.29.13-.29.14-.3.15-.29.15-.29.16-.29.17-.29.17-.29.17-.29.19-.3.19-.29.19-.29.2-.29.21-.29.21-.29.22-.29.22-.3.23-.29.23-.29.25-.29.24-.29.25-.29.26-.29.27-.3.26-.29.28-.29.28-.29.29-.29.29-.29.3-.29.3-.3.31-.29.31-.29.32-.29.33" filter="url(#a)"/></svg>