<svg xmlns="http://www.w3.org/2000/svg" width="500" height="500" viewBox="-100 -100 200 200"><defs><clipPath id="c"><path d="m29.93-5.05-.19-.19-.21-.19-.26-.18-.28-.16-.33-.16-.35-.15-.4-.15-.43-.13-.47-.13-.51-.12-.55-.11-.58-.11-.62-.1-.65-.09-.69-.09-.55-.1-.61-.09-.69-.09-.75-.08-.82-.07-.88-.07-.94-.06-1-.05-1.06-.05-1.1-.05-1.16-.03-1.19-.04-1.24-.03-1.27-.02-1.3-.02-1.33-.02-1.35-.01L4.81-8H-.75l-1.39.01-1.38.01-1.37.01-1.36.02-1.34.01-1.32.02-1.3.02-1.27.02-1.24.02-1.21.03-1.18.02-1.14.03-1.11.03-1.06.02-1.04.03-.99.03-.95.03-.91.02-.88.03-.83.03-.8.03-.75.03-.73.02-.68.03-.65.03-.62.03-.6.02-.56.03-.53.02-.51.03-.48.02-.45.03-.43.02-.4.03-.37.02-.36.02-.33.02-.3.03-.29.02-.27.02-.25.02-.23.02 8.34 4.56.58.23.6.24.62.23.62.25.64.25.65.25.67.26.67.26.69.27.7.27.71.27.73.28.73.28.75.29.75.29.78.29.78.3.8.29.82.31.82.3.84.31.85.3.86.31.87.3.88.31.89.3.9.3.9.29.91.29.91.28.91.27.92.26.92.25.92.25.92.23.92.21.91.2.92.19.9.17.9.15.9.13.88.11.88.09.87.07.85.04.85.02h.83l.81-.03.81-.06.78-.08.78-.11.75-.14.74-.16.72-.2.69-.22.69-.25.66-.28.64-.31.62-.33.6-.36.58-.38.55-.41.54-.43.52-.45.5-.3.49-.31.47-.31.47-.33.44-.33.44-.35.42-.34.4-.36.39-.36.38-.36.37-.36.34-.36.34-.36.32-.36.3-.36"/></clipPath><clipPath id="b"><path d="m-26.26-2.47.17-.14.21-.13.24-.12.28-.12.31-.11.35-.1.39-.11.42-.09.46-.09.5-.09.53-.08.57-.08.61-.07.64-.07.68-.06.54-.07.61-.07.68-.06.74-.06.81-.05.86-.05.93-.05.98-.05 1.04-.04 1.08-.04 1.13-.03 1.18-.04 1.21-.03 1.24-.03 1.27-.02 1.3-.02 1.32-.02 1.33-.02L-.3-4.7l1.36-.01 1.36-.01 1.36-.01 1.36-.01h2.7l1.33-.01 1.31.01h2.56l1.24.01h1.22l1.18.01 1.16.01 1.12.01 1.09.02 1.05.01 1.01.01.98.02.94.01.9.02.86.02.82.02.79.01.75.02.71.02.68.02.65.02.62.02.59.02.56.02.53.02.51.02.48.02.45.02.43.03.4.02.38.02.36.02.33.02.32.02.29.02.27.02.26.02.24.02L25.64-.99l-.72.15-.73.15-.75.15-.76.15-.77.16-.78.15-.8.16-.8.16-.82.16-.82.17-.83.16-.84.17-.85.16-.86.17-.86.17-.88.17-.89.17-.9.17-.9.17-.92.17-.92.17-.92.17-.93.17-.93.16-.93.16-.92.16-.93.16-.92.15-.92.14-.91.14-.91.14-.9.12-.88.12-.88.11-.87.11-.85.09-.84.09-.83.07-.81.06-.79.06-.78.04-.77.03-.74.02h-.73l-.71-.01-.69-.02-.67-.03-.66-.05-.64-.06-.61-.08-.6-.09-.58-.1-.57-.12-.54-.13-.53-.15-.51-.16-.5-.17-.47-.18-.47-.2-.45-.21-.43-.22-.42-.23-.41-.24-.39-.24-.37-.18-.36-.18-.35-.18-.34-.18-.33-.19-.32-.2-.31-.19-.3-.2-.29-.2-.29-.2-.27-.2-.26-.2-.25-.19-.24-.2-.24-.19"/></clipPath><filter id="a"><feTurbulence baseFrequency=".05" numOctaves="3" result="noise" type="noise"/><feDisplacementMap in="SourceGraphic" in2="noise" scale="2"/></filter></defs><rect width="100%" height="100%" x="-100" y="-100" fill="#DFA6F2"/><path fill="#50DF20" stroke="#000" stroke-linejoin="round" stroke-width="1.667" d="m69.31 1.22.17.85.02 1.98-.03.89-.33 1.62.17-.48-.2 3.11-.05-1.17-.37 4.17.01-.88-.06 1.98-.25 1.53-.15.35-.16 1.02-.55 3.25-.09.73.07-.23-.65 2.25-.04 1.05-.69 2.32-.28 1.12-.77 2.69.61-2.02-.6 2.25-.5 1.56-.74 2.23-.18.46-.51 1.29-.21 1.15-.42.9-.22.4-.81 1.72-1.35 3.54.21-.68-.92 1.75-.54 1.28-.41.31-.55 1.2-.7.89.31.18-1.12 1.61-1.59 2.64.59-1.14-1.33 2.41-.59.98-.58.73-.97 1.54-1.69 1.99 1-.86-.92.72-1.57 1.96.17-.44-.52 1.2-1.07 1.17-1.29 1.44-1.32.97-.07.41-1.97 1.75-.01.14-1.79 1.5-.7.64-.41.63-1.82 1.63.02-.24-2.09 1.38.49-.23.08-.09-1.41 1.08-2 1.26-1.08 1.1-.68.15-.36.43-1.82.68-1.34 1.04-.24.09-.59.32-2.87 1.11 1.04-.45-1.79.94h-.08l-.22-.03-2.65 1.29-1.35.44-.22.23-.73.29-1.57.11-1.08.38-1.44.49-.88.29-1.8.36-.11.05-.95-.02-.27.22-2.3.51-.8-.18-.63.18-3.12.22-1.3-.01 1.35-.09-1.75.02-2.11.22.69-.18-2.89.27-2.3-.27.51-.1-1.8-.2-.68-.1 1.12.25-2.39-.49-1.2.01-1.53-.27.22-.11-2.59-.35-.55-.43-1.99-.46.07.12-.86-.08-.69-.46-1.62-.26-.45-.08-2.01-.84-.28-.23-2.13-.73.48-.15-2.16-.85-1.46-1.01.81.7-2.38-1.3-.69-.6-1.08-.43-1.86-.96.91.3-1.49-.91-1.85-1.33-1.38-.85-1.23-1-.71-.42.92.34-1.95-1.36-.36-.17-.35-.23-1.63-1.54-.5-.69-1-.47-1.43-1.69-.44-.55-1.31-1.3-1.1-1.43 1.03 1.15-1.58-1.74-1.88-2.19-.11.17-.27-.78-.89-.71-1.48-2.25-.62-.98-1.3-1.82-.38-.48-.68-1.2.04-.05-1.36-1.76-.48-1.05-.31-.65-.61-1.26-.05.26-1.69-3.5.19-.13-.96-1.35-.74-2.08.14.65-.58-1.41-1.11-2.5.47 1.11-.81-2.11-.59-2.25-.23-.47-.92-3.1.11.72-.3-1.17-.43-1.21-.44-1.91-.23-.53-.3-.61-.04-.75-1.17-4.5.46 1.89-.54-4.32-.11.16-.16-.53-.44-3.51-.05.61-.04-2.53-.41-1.7-.11-.29v-1.2l.11-.87-.16-.93-.16-2.81-.09-1.56-.06-.74.16-2.36-.05-.19.05-2.03.09.25v-1.61l.03-3.52.12-.02.05-1.05.13-1.1-.03-.17.39-2.13.21-1.63.19-.63.53-3.5-.31.45.46-2.74.41-1.82.09.15.24-1.24.59-1.62.45-2.83.21-.01.24-1.03.52-1.33.04-.8.23-.01.58-2.37.46-1.01.77-2.52.47-.64 1.1-2.3-.26.74.77-1.93.84-2.24-.21.69 1.16-2.84.59-.54.53-1.08-.06-.24 1.36-2.19.03.28.96-1.93 1.07-1.57v.08l1.41-2.21-.4.65 2.08-3.21-.49.75.91-.85 1.01-1.45.56-.5 1.55-2.35-.5.83 1.61-2.05.16.02 1.46-1.75 1.69-1.77.68-.42-.13.35.44-.46 1.97-2.03.2-.05-.04.01 1.11-1.19 2.15-1.62-.15.46 1.64-1.28-.53.18 1.8-1.47.59-.25 2.18-1.12 1.05-1.09 1.15-.28.69-.49.84-.69 2.46-1.11.18-.07-.3.07.67-.46 2.09-.73 2.19-.9.21-.16.71-.02.04-.04 1.87-.76.67-.14 1.54-.45 1.61-.31 1.22-.24.41-.05 2.34-.65.86.02.59-.09 1.92-.31-1.64.09 4.25-.43-1.21.03 1.3.01 1.58-.25 1.3.15.45.05.43-.11 4 .34.43-.19 1.18.08-.89.17 2.09.23.66.07-.35-.38 2.9.63.7-.01.71.48 1.23-.08.31.32 1.18-.05 1.52.79 1.31.3 1.41.38 1.94.5-.24.13 1.1.31.9.38 1.42.81 1.18.37.69.41 1.01.46 1.18.69 1.34.43-.35-.06.94.56 2.33 1.46-.33-.31 1.13.75 1.79 1.31 2.02 1.3 1.22 1.17.72.3.7.49.65.66.53.73-.24-.51.88 1.33 1.75 1.28.22.09 1.78 1.53.22.33.38.81L46.61-63l1.22 1.44.65.88.04-.43 1.79 2.3.65 1.35.02-.07-.21-.46 2.9 3.98.55.71.45 1.26.01-.22 1.21 1.72.16.35 1.39 2.29-.11-.03.58 1.4 1.28 2.19.73.87-.59-.68 1.39 2.71.01.31.34.24.94 2.38.38.66.73 2.34-.41-.77 1.35 3.24.04.48.84 1.85-.45-.76.59 1.76.91 2.49-.37-1.01.94 3.96.4 1.17.05.74.47 2.43v-.06l.54 1.83-.01 1.52.49 2.58.03 1.17.23 1.44.17.44.04-.17.07 2.93.22.61.19 1.71-.02 1.7-.06 1.42-.09.52.27-.54-.24 4.05.17.85" filter="url(#a)"/><path fill="#fff" d="m-26.26-2.47.17-.14.21-.13.24-.12.28-.12.31-.11.35-.1.39-.11.42-.09.46-.09.5-.09.53-.08.57-.08.61-.07.64-.07.68-.06.54-.07.61-.07.68-.06.74-.06.81-.05.86-.05.93-.05.98-.05 1.04-.04 1.08-.04 1.13-.03 1.18-.04 1.21-.03 1.24-.03 1.27-.02 1.3-.02 1.32-.02 1.33-.02L-.3-4.7l1.36-.01 1.36-.01 1.36-.01 1.36-.01h2.7l1.33-.01 1.31.01h2.56l1.24.01h1.22l1.18.01 1.16.01 1.12.01 1.09.02 1.05.01 1.01.01.98.02.94.01.9.02.86.02.82.02.79.01.75.02.71.02.68.02.65.02.62.02.59.02.56.02.53.02.51.02.48.02.45.02.43.03.4.02.38.02.36.02.33.02.32.02.29.02.27.02.26.02.24.02L25.64-.99l-.72.15-.73.15-.75.15-.76.15-.77.16-.78.15-.8.16-.8.16-.82.16-.82.17-.83.16-.84.17-.85.16-.86.17-.86.17-.88.17-.89.17-.9.17-.9.17-.92.17-.92.17-.92.17-.93.17-.93.16-.93.16-.92.16-.93.16-.92.15-.92.14-.91.14-.91.14-.9.12-.88.12-.88.11-.87.11-.85.09-.84.09-.83.07-.81.06-.79.06-.78.04-.77.03-.74.02h-.73l-.71-.01-.69-.02-.67-.03-.66-.05-.64-.06-.61-.08-.6-.09-.58-.1-.57-.12-.54-.13-.53-.15-.51-.16-.5-.17-.47-.18-.47-.2-.45-.21-.43-.22-.42-.23-.41-.24-.39-.24-.37-.18-.36-.18-.35-.18-.34-.18-.33-.19-.32-.2-.31-.19-.3-.2-.29-.2-.29-.2-.27-.2-.26-.2-.25-.19-.24-.2-.24-.19" filter="url(#a)" transform="translate(40.15 -29.67)"/><path fill="#fff" d="m29.93-5.05-.19-.19-.21-.19-.26-.18-.28-.16-.33-.16-.35-.15-.4-.15-.43-.13-.47-.13-.51-.12-.55-.11-.58-.11-.62-.1-.65-.09-.69-.09-.55-.1-.61-.09-.69-.09-.75-.08-.82-.07-.88-.07-.94-.06-1-.05-1.06-.05-1.1-.05-1.16-.03-1.19-.04-1.24-.03-1.27-.02-1.3-.02-1.33-.02-1.35-.01L4.81-8H-.75l-1.39.01-1.38.01-1.37.01-1.36.02-1.34.01-1.32.02-1.3.02-1.27.02-1.24.02-1.21.03-1.18.02-1.14.03-1.11.03-1.06.02-1.04.03-.99.03-.95.03-.91.02-.88.03-.83.03-.8.03-.75.03-.73.02-.68.03-.65.03-.62.03-.6.02-.56.03-.53.02-.51.03-.48.02-.45.03-.43.02-.4.03-.37.02-.36.02-.33.02-.3.03-.29.02-.27.02-.25.02-.23.02 8.34 4.56.58.23.6.24.62.23.62.25.64.25.65.25.67.26.67.26.69.27.7.27.71.27.73.28.73.28.75.29.75.29.78.29.78.3.8.29.82.31.82.3.84.31.85.3.86.31.87.3.88.31.89.3.9.3.9.29.91.29.91.28.91.27.92.26.92.25.92.25.92.23.92.21.91.2.92.19.9.17.9.15.9.13.88.11.88.09.87.07.85.04.85.02h.83l.81-.03.81-.06.78-.08.78-.11.75-.14.74-.16.72-.2.69-.22.69-.25.66-.28.64-.31.62-.33.6-.36.58-.38.55-.41.54-.43.52-.45.5-.3.49-.31.47-.31.47-.33.44-.33.44-.35.42-.34.4-.36.39-.36.38-.36.37-.36.34-.36.34-.36.32-.36.3-.36" filter="url(#a)" transform="translate(-45.33 -30.47)"/><g fill="none" stroke="#000" transform="translate(40.15 -29.67)"><path stroke-linejoin="round" stroke-width="1.667" d="m-26.51-.69-.07-.22-.05-.2-.04-.2-.02-.19.01-.18.03-.18.05-.16.08-.16.11-.15.15-.14.17-.14.21-.13.24-.12.28-.12.31-.11.35-.1.39-.11.42-.09.46-.09.5-.09.53-.08.57-.08.61-.07.64-.07.68-.06.54-.07.61-.07.68-.06.74-.06.81-.05.86-.05.93-.05.98-.05 1.04-.04 1.08-.04 1.13-.03 1.18-.04 1.21-.03 1.24-.03 1.27-.02 1.3-.02 1.32-.02 1.33-.02L-.3-4.7l1.36-.01 1.36-.01 1.36-.01 1.36-.01h2.7l1.33-.01 1.31.01h2.56l1.24.01h1.22l1.18.01 1.16.01 1.12.01 1.09.02 1.05.01 1.01.01.98.02.94.01.9.02.86.02.82.02.79.01.75.02.71.02.68.02.65.02.62.02.59.02.56.02.53.02.51.02.48.02.45.02.43.03.4.02.38.02.36.02.33.02.32.02.29.02.27.02.26.02.24.02.22.02.2.02.19.02.18.01.16.02.15.02.13.02.13.02.11.01.11.02" filter="url(#a)"/><path stroke-linejoin="round" stroke-width="2.222" d="m-28.77-2.22.13.11.13.12.15.13.16.15.17.15.19.16.19.17.2.18.21.18.22.19.24.19.24.2.25.19.26.2.27.2.29.2.29.2.3.2.31.19.32.2.33.19.34.18.35.18.36.18.37.18.39.24.41.24.42.23.43.22.45.21.47.2.47.18.5.17.51.16.53.15.54.13.57.12.58.1.6.09.61.08.64.06.66.05.67.03.69.02.71.01h.73l.74-.02.77-.03.78-.04.79-.06.81-.06.83-.07.84-.09.85-.09.87-.11.88-.11.88-.12.9-.12.91-.14.91-.14.92-.14.92-.15.93-.16.92-.16.93-.16.93-.16.93-.17.92-.17.92-.17.92-.17.9-.17.9-.17.89-.17.88-.17.86-.17.86-.17.85-.16.84-.17.83-.16.82-.17.82-.16.8-.16.8-.16.78-.15.77-.16.76-.15.75-.15.73-.15.72-.15.71-.14.69-.14.68-.14.67-.14.65-.13.64-.13.62-.13.61-.12.59-.12.58-.12" filter="url(#a)"/><circle cx="-25.593" cy="-.809" r="3.496" clip-path="url(#b)" filter="url(#a)"/><circle cx="-26.098" cy="-.624" r="3.088" clip-path="url(#b)" filter="url(#a)"/><circle cx="-23.928" cy="-1.939" r="4.874" clip-path="url(#b)" filter="url(#a)"/><circle cx="-26.333" cy=".271" r="3.716" clip-path="url(#b)" filter="url(#a)"/><circle cx="-28.563" cy="-2.334" r="3.812" clip-path="url(#b)" filter="url(#a)"/><circle cx="-24.248" cy="-3.584" r="4.598" clip-path="url(#b)" filter="url(#a)"/><circle cx="-28.763" cy=".796" r="4.092" clip-path="url(#b)" filter="url(#a)"/><circle cx="-26.873" cy="-2.054" r="4.096" clip-path="url(#b)" filter="url(#a)"/><circle cx="-27.008" cy="-1.189" r="4.696" clip-path="url(#b)" filter="url(#a)"/><circle cx="-28.003" cy="-.409" r="3.182" clip-path="url(#b)" filter="url(#a)"/></g><g fill="none" stroke="#000" transform="translate(-45.33 -30.47)"><path stroke-linejoin="round" stroke-width="2.222" d="m30.35-2.51.04-.3.03-.3.02-.28-.01-.27-.02-.26-.04-.25-.07-.23-.1-.23-.12-.21-.15-.21-.19-.19-.21-.19-.26-.18-.28-.16-.33-.16-.35-.15-.4-.15-.43-.13-.47-.13-.51-.12-.55-.11-.58-.11-.62-.1-.65-.09-.69-.09-.55-.1-.61-.09-.69-.09-.75-.08-.82-.07-.88-.07-.94-.06-1-.05-1.06-.05-1.1-.05-1.16-.03-1.19-.04-1.24-.03-1.27-.02-1.3-.02-1.33-.02-1.35-.01L4.81-8H-.75l-1.39.01-1.38.01-1.37.01-1.36.02-1.34.01-1.32.02-1.3.02-1.27.02-1.24.02-1.21.03-1.18.02-1.14.03-1.11.03-1.06.02-1.04.03-.99.03-.95.03-.91.02-.88.03-.83.03-.8.03-.75.03-.73.02-.68.03-.65.03-.62.03-.6.02-.56.03-.53.02-.51.03-.48.02-.45.03-.43.02-.4.03-.37.02-.36.02-.33.02-.3.03-.29.02-.27.02-.25.02-.23.02-.21.02-.2.02-.18.02-.17.01-.15.02-.15.02-.12.02-.12.01-.11.02-.09.01" filter="url(#a)"/><path stroke-linejoin="round" stroke-width="2.222" d="m31.65-3.61-.16.2-.17.22-.19.24-.2.27-.22.28-.23.3-.25.32-.26.33-.28.34-.29.34-.3.36-.32.36-.34.36-.34.36-.37.36-.38.36-.39.36-.4.36-.42.34-.44.35-.44.33-.47.33-.47.31-.49.31-.5.3-.52.45-.54.43-.55.41-.58.38-.6.36-.62.33-.64.31-.66.28-.69.25-.69.22-.72.2-.74.16-.75.14-.78.11-.78.08-.81.06-.81.03h-.83l-.85-.02-.85-.04-.87-.07-.88-.09-.88-.11-.9-.13-.9-.15-.9-.17-.92-.19-.91-.2-.92-.21-.92-.23-.92-.25-.92-.25-.92-.26-.91-.27-.91-.28-.91-.29-.9-.29-.9-.3-.89-.3-.88-.31-.87-.3-.86-.31-.85-.3-.84-.31-.82-.3-.82-.31-.8-.29-.78-.3-.78-.29-.75-.29-.75-.29-.73-.28-.73-.28-.71-.27-.7-.27-.69-.27-.67-.26-.67-.26-.65-.25-.64-.25-.62-.25-.62-.23-.6-.24-.58-.23-.58-.22-.56-.22-.54-.21-.54-.21-.52-.2-.51-.2-.5-.19-.48-.19-.47-.18-.46-.18" filter="url(#a)"/><circle cx="-18.044" cy="-5.975" r="4.398" clip-path="url(#c)" filter="url(#a)"/><circle cx="-17.744" cy="-3.87" r="3.872" clip-path="url(#c)" filter="url(#a)"/><circle cx="-16.749" cy="-7.38" r="4.018" clip-path="url(#c)" filter="url(#a)"/><circle cx="-15.959" cy="-5.65" r="4.106" clip-path="url(#c)" filter="url(#a)"/><circle cx="-15.949" cy="-5.1" r="3.78" clip-path="url(#c)" filter="url(#a)"/><circle cx="-13.214" cy="-3.635" r="3.19" clip-path="url(#c)" filter="url(#a)"/><circle cx="-13.764" cy="-4.375" r="3.708" clip-path="url(#c)" filter="url(#a)"/><circle cx="-17.569" cy="-3.265" r="4.792" clip-path="url(#c)" filter="url(#a)"/><circle cx="-13.274" cy="-6.16" r="4.364" clip-path="url(#c)" filter="url(#a)"/><circle cx="-15.444" cy="-3.535" r="3.348" clip-path="url(#c)" filter="url(#a)"/></g><g fill="none" stroke="#133086" stroke-linejoin="round" stroke-width="2"><path d="m42.7-67.01.57.44.71.67.58.64.43.57.25.44.03.23-.26-.02-.59-.3-.95-.6-1.32-.91-1.72-1.24-2.11-1.58-2.56-1.94-3.09-2.37-3.71-2.94" filter="url(#a)"/><path d="m31.88-75.51.32.23 1.25 1.02 1.76 1.48 1.91 1.69 1.87 1.74 1.76 1.72 1.63 1.66 1.52 1.61 1.44 1.56 1.4 1.52 1.38 1.48 1.36 1.44 1.29 1.35 1.18 1.23 1 1.02M-20.4-81.38h.58l1.24.21 1.91.34 2.53.48 3.05.63 3.49.81 3.84.98 4.13 1.15 4.36 1.31 4.57 1.45 4.7 1.55 4.8 1.61 4.85 1.65 4.92 1.69 5.06 1.79 5.19 1.9 5.11 1.72" filter="url(#a)"/><path d="m.05-85.04 2.66.17 1.28.07.68.08.45.11.34.12.26.14.16.17.03.2-.17.24-.39.28-.66.31-.94.35-1.22.41-1.52.45-1.84.51-2.19.53-2.59.56-3.05.59-3.55.66-4.07.73-4.53.78-5.01.86" filter="url(#a)"/><path d="m-8.92-84.18 1.07.06 1.7.4 2.27.76 2.85 1.08 3.34 1.39 3.79 1.67 4.2 1.92 4.56 2.15 4.9 2.36 5.19 2.54 5.44 2.72 5.57 2.84 5.49 2.81 5.12 2.4m-82.56-13.71 1.55-1.1 1.62-.92 1.77-.91 1.84-.91 1.85-.87 1.84-.84 1.82-.79 1.75-.74 1.65-.67 1.55-.61 1.47-.56 1.35-.51 1.16-.44.82-.33.39-.19.03-.06m53.6 13.62 1.03 1.19 1.09 1 .99.87.87.82.77.78.66.73.57.64.43.52.25.35.06.16-.15-.05-.36-.27-.57-.48-.79-.71-1.04-.97-1.4-1.3-1.91-1.79-2.6-2.45m21.36 26.43.8 1.74.19.86-.1.61-.38.5-.66.35-.98.15-1.3-.1-1.65-.35-2.01-.64-2.37-.93-2.76-1.2-3.15-1.46-3.57-1.7-4.01-1.95-4.48-2.22-4.96-2.53-5.47-2.88-5.99-3.25-6.51-3.64-6.98-4.01-7.4-4.39-7.72-4.86" filter="url(#a)"/><path d="m38.43-70.99.7.62.76.81.84.96.99 1.13 1.18 1.31 1.32 1.42 1.36 1.45 1.32 1.43 1.23 1.36 1.11 1.27.99 1.15.82.92.53.55.1-.02-.39-.58M34.47-73.76l1.43 1.08.57.74-.13.46-.75.28-1.34.14-1.91.06-2.44-.01-2.98-.04-3.52-.09-4.11-.17-4.77-.29-5.53-.4-6.36-.5-7.19-.6-8.03-.74-8.92-.89m43.65-5.91 1.03.61.46.45-.08.38-.59.35-1.18.31-1.81.28-2.48.27-3.15.25-3.81.25-4.52.23-5.32.22-6.21.25-7.19.24-8.23.08" filter="url(#a)"/><path d="m-25.35-79.29 1.29-.43 2.03-.3 2.25-.03 2.37.25 2.57.47 2.87.63 3.23.74 3.59.86 3.89.97 4.13 1.09 4.31 1.18 4.44 1.26 4.51 1.31 4.54 1.34 4.56 1.38 4.6 1.45 4.65 1.51 4.65 1.49 4.57 1.44" filter="url(#a)"/><path d="m57.44-47.9.06.36.19.7v.51l-.33.12-.72-.29-1.1-.64-1.47-1-1.87-1.34-2.29-1.72-2.78-2.14-3.33-2.63-3.92-3.16-4.53-3.73-5.11-4.32-5.67-4.94-6.2-5.52m-26.7-6.63 1.04-.19.74-.13.75-.09.65-.04.52.02.37.08.2.15-.01.21-.28.29-.6.37-1 .44-1.45.52-1.92.6-2.41.7-2.9.82-3.39.96-3.88 1.09-4.42 1.25" filter="url(#a)"/><path d="m44.7-65.39.27.46.42.67.42.67.24.54-.02.34-.33.14-.67-.06-1.02-.28-1.35-.49-1.7-.69-2.06-.93-2.49-1.2-2.98-1.54-3.51-1.92-4.05-2.28-4.53-2.62-4.99-2.97-5.42-3.39m-30.41-.62.63-.23 1.23-.35 1.48-.34 1.61-.32 1.66-.28 1.68-.26 1.65-.24 1.6-.22 1.52-.19 1.42-.17 1.3-.15 1.19-.13 1.08-.12.96-.09.86-.08.72-.06.51-.04.24-.03-.11-.03-.5-.02-.83-.04-1.06-.06" filter="url(#a)"/><path d="m-5.01-84.89 1.28-.04 1.18-.04 1 .01.9.04.81.08.63.1.31.14-.08.17-.47.21-.83.24-1.14.29-1.44.33-1.76.37-2.17.45-2.7.53-3.33.64-3.93.74-4.24.73m69.47 19.22.47.36.65.88.45.76.3.62.19.57.07.51-.13.35-.38.15-.66-.09-.96-.32-1.24-.53-1.54-.75-1.86-.97-2.17-1.21-2.49-1.48-2.84-1.78-3.21-2.08-3.61-2.4-4.03-2.7-4.44-2.99-4.81-3.26-5.25-3.57m-6.51-4.28.5.15v.26l-.25.35-.58.45-.98.59-1.45.76-2.03.95-2.7 1.14-3.42 1.33-4.14 1.52-4.87 1.74-5.63 1.98-6.46 2.23-7.28 2.31" filter="url(#a)"/><path d="m57.33-47.93.69 1.43.63 1.16.38.78.19.53.05.37-.07.25-.2.12-.34-.04-.53-.24-.75-.49-1.01-.81-1.3-1.15-1.6-1.54-1.89-1.93-2.19-2.31-2.47-2.67-2.74-3.03-3.01-3.37-3.31-3.76-3.68-4.22-4.15-4.81M-16.9-82.5l1.55-.36 1.59-.26 1.63-.19 1.71-.15 1.77-.12 1.79-.08 1.78-.05 1.76-.02 1.75-.02H.15l1.71.01 1.66.03 1.59.03 1.48.03 1.32.03h1.13l.91-.03.65-.05.39-.05.13-.05-.08-.07m5.99 1.53 1.37.38 1.12.35.9.33.82.33.78.34.7.33.55.28.31.19.02.1-.28-.02-.62-.14-.95-.24-1.28-.36-1.66-.48-2.11-.63-2.68-.82-3.25-.97" filter="url(#a)"/><path d="m-37.1-71.69 1.42-.75 1.95-.35 2.85-.21 3.72-.07 4.43.08 5.01.24 5.51.42 6 .61 6.44.79 6.84.94 7.17 1.08 7.45 1.22 7.73 1.27 7.94 1.17M-.83-84.98l.7.03 1.33.05 1.52.07 1.33.07 1.04.08.83.08.7.08.6.06.53.07.4.06.22.05-.05.04h-.41l-.84-.02-1.26-.05-1.65-.09-2.01-.14-2.52-.18" filter="url(#a)"/><path d="m4.77-84.64 1.37.18.63.16.34.27.11.41-.19.53-.57.65-.96.77-1.34.9-1.73 1.06-2.14 1.23-2.6 1.42-3.11 1.59-3.69 1.76-4.28 1.92-4.89 2.11-5.51 2.31-6.12 2.52-6.73 2.66-7.26 2.57m84.21-9.49.14.06.55.56.58.59.4.45.12.3-.18.13-.49-.05-.82-.24-1.18-.49-1.61-.77-2.12-1.1-2.66-1.43-3.25-1.81-3.81-2.19-4.31-2.56-4.74-2.82" filter="url(#a)"/><path d="m4.05-84.7.6-.06.74.1.88.17 1.05.19 1.18.2 1.25.2 1.26.2 1.17.21 1 .18.75.14.47.09.19.02-.08-.03-.36-.08-.68-.15-1.1-.26m19.51 8.07.26.14 1.08.75 1.44 1.05 1.47 1.08 1.31.98 1.08.83.85.67.65.54.49.43.36.34.27.25.18.16.06.05-.12-.11-.39-.33-.74-.59-1.18-.94-1.77-1.42m-15.04-9.01 1.25.63 1.05.49.94.45.86.41.76.38.65.35.53.32.43.3.31.29.19.27.06.24-.12.19-.35.1-.63-.03-.97-.18-1.35-.36-1.73-.52-2.08-.68-2.38-.8-2.62-.92-2.82-1.05-3.04-1.19-3.33-1.34" filter="url(#a)"/><path d="m28.61-77.53 1.14.69 1.06.65.9.58.84.58.76.58.56.48.23.3-.19.06-.64-.19-1.11-.45-1.59-.68-2.06-.9L26-76.95l-2.92-1.34-3.34-1.55-3.78-1.79m-.24-1.01 1.28.31 1.22.33.98.3.71.26.5.23.34.2.13.16-.15.08-.51-.02-.91-.15-1.36-.27-1.82-.41-2.26-.56-2.68-.72-3.01-.89m-28.37 2.25.51-.04.5-.09.52-.06.4.04.19.22-.12.41-.5.63-.94.85-1.43 1.09-1.97 1.39-2.6 1.72-3.29 2.12-3.95 2.52-4.56 2.88-5.07 3.08m85.42-2.14 1.09 1.08.38.77.07.74-.18.7-.48.64-.85.55-1.25.45-1.67.37-2.09.31-2.51.26-2.96.21-3.4.15-3.87.07-4.36-.07-4.88-.22-5.42-.35-5.95-.48-6.5-.58-7.02-.69-7.55-.81-8.11-.91-8.81-.92" filter="url(#a)"/><path d="m7.52-84.34.66-.02 1.46.33 1.57.47 1.58.53 1.62.59 1.72.65 1.83.72 1.92.76 1.96.8 1.94.81 1.83.78 1.66.73 1.44.63 1.17.51.85.32.49.11.15-.08.06-.08m5.06 3.32-9.82-2.31-11.81-2.26-5.62.85-1.58 2.76-2.35 3.08-5.19 2.77-5.35 2.53-.83 2.37 5.6 1.78 8.7.41 5.25-1.16-2.27-1.59-5.62.49L9.54-58l23.94 7.25 20.19-3.26" filter="url(#a)"/><path d="m5.66-84.81-15.02 3.79-6.54 3.75-4.62 3.41-1.36 3.34 2.56 3.14 5.28 1.85 5.66-.13 4.34-1.44 3.07-1.13 3.11.39 4.11 1.64 4.55 1.29 3.43-.68 1.61-2.96.36-3.96-2.45-3.09-13.69-.2-40.43 6.5" filter="url(#a)"/><path d="m10.77-84.1-.84 2.07 7.73 3.85 5.05 3.54 3.04 4.04 1.49 4.18-.91 2.71-3.41.05-4.84-2.4-4.95-3.56-4.06-3.15-2.32-1.68.27-.03 3.29.99 5.57 1 6.07.44 4.87.25 3.51 1.32 3.13 3.15 2.53 3.13.55-.89 11.98 3.98" filter="url(#a)"/><path d="m-34.19-74.26 22.79-5.7L.89-78.17l12.74 6.39 9.28 7.4 2.26 5.99-4.71 3.48-9.38.76-11.22-1.54-10.54-3.07-8.09-3.69-4.83-3.53-1.7-2.92.68-2.2 2.18-1.63 2.96-1.22 3.22-.94 3.03-.7 2.59-.6 2.52-.77 3.62-1.06 6.03-.61 9.04 2.44 14.71 11.02L64.1-32.56" filter="url(#a)"/><path d="M40.95-68.29 26.63-72.8l4.88 3.76 4.28 3.36-.01.89-4.51-1.2-8.81-2.13-12.21-2.02-13.18-1.19-10.36.13-3.5 1.63 6.14 2.8 14.94 2.95 16.94.98 9.45-3.7 14.02 1.15" filter="url(#a)"/><path d="m-3.71-84.88 9.78 12.14 14.12 6.62 4.04-1.19-1.31-2.54-2.04-1.03-.53.67 1.57 1.95 2.96 2.78 2.57 2.94.05 2.22-3.74.79-6.99-.71-7.97-1.64-6.14-1.79-2.34-1.39 1.78-.88 4.47-.65 4.07-.83-.74-1.2L1-69.71l-12.3-1.58 15.78-13.6" filter="url(#a)"/><path d="m-25.35-79.29 5.38 3.37 21.81 6.1 20.76 6.29 13.58 4.31 7.24 2.7 2.79 1.43-.77-.22-4.07-2.26-6.98-4.02-9.11-4.92-10.1-4.7-9.81-3.54-8.27-1.76-5.55.22-1.6 2.02 3.5 3.38 9.07 4.24 13.55 4.56 14.79 4.25L42.42-55l5.05-.14-.73-3.44-.08-1.68L57.44-47.9" filter="url(#a)"/><path d="m55.89-50.54-23.04 1.5-21-5.74-.75-4.35 8.24-1.11 7.58 1.53 3.66 3.03 1.06 3.29 1.29 2.41 2.7.44 2.13-2.6-1.68-6.2-5.65-8.52-4.56-7.05 1.21-2.32-3.52-3.6" filter="url(#a)"/><path d="M64.1-32.56 50.91-45.61 37.94-59.55l-1.71-3.68 3.89 2.72 2.41 3.86-2.27 2.29-6.15.29-7.31-.99-5.92-1.22-2.56-.4 2.99 1.18 10.02 2.62 13.9 2.67 9.76 2.14 7.4 10.22" filter="url(#a)"/><path d="M60.72-41.44 44.43-60.63l-8.26-7.26-7.72-4.26-8.83-2.71-9.51-1.4-8.07-.4-4.47.13-.24.45 2.85.75 3.73.83 2.21.38-.67-.16-2.07.6 1.14 3.07 3.78 2.88-28.7-13.65" filter="url(#a)"/><path d="M54.22-53.3 21.91-72.14l-4.73-2.82-2.52 2.14-6.93 1.73-7.57.16-3.89-.49.72.01 3.71.92 4.63 1.36 4.4.93 3.85-.08 3.12-1.07 1.85-1.41-.12-.76-2.36.87-4.93 2.84-9.94 3.22-19.78-.9-17.41-7.3" filter="url(#a)"/><path d="M11.48-83.62-3.73-64.99 8-63.73l4.23-5-2.14-4.17-3.44-1.17-2.63 1.49-1.29 2.94.68 2.93 2.9 1.52 3.76-.84 2.04-3.18-1.45-4.29-3.98-3.49-2.91-1.12 2.05 1.38 7.95 2.64 11.47 3.48 25.72 13.15" filter="url(#a)"/><path d="m-55.45-51.36 36.8-21.01 14.67-7.34 2.95-2.14-1.27.17-1.94 1.51-.69 2.21 1.71 2.16 4.04 1.5 5.12.55 4.85-.18 4.13-.37 3.64.04 3.01.74 1.26 1.31-1.79 1.52-4.55 1.32-4.63.53-2.73-.78-9.27-.86-44.88 5.51" filter="url(#a)"/><path d="m53.67-54.01-13.33-10.4-20.88-5.26-20.04-1.69-10.88-.52.02-.03 7.46.81 9.52 1.56 6.98 1.43 2.13.4-2.33-.92-4.38-1.63-3.38-1.34-.48-.25 1.94.6 1.83.1-.07-1.9 1.02-3.13 10.61-.13 20.9 7.2" filter="url(#a)"/><path d="M44.92-65.06 3.4-67.24l3.91-1.49 7.28-1.41 2.53-1.9 1.3-.83 3.3 1.3 5.12 2.95 4.68 3.07 2.02 1.69-1.5-.35-4.24-1.95-5.32-2.47-4.79-1.94-3.23-.92-1.2.05 1.25.8L18.67-69l6.94 2.79 8.07 3.9 5.86 4-.17 2.21-7.46-.56-5.85 1.3 38 22.32" filter="url(#a)"/><path d="M10.77-84.1-18.8-73.94l-2.08-2.16 3.56-2.22 6.06.06 8.02 2.2 8.43 3.48 6.82 3.6 3.56 2.57-.61.87-4.54-.79-6.86-1.76-6.54-1.9-3.58-1.36.99-.44 5.57.56 8.77 1.36 9.68 1.65 7.9 1.42 3.58 1.13-2.68 1.49-9.5 2-10.27-.43 30.23-8.68" filter="url(#a)"/><path d="m57.91-46.53-22.66-9.48-22.01-9.72-3.37-2.74 7.49 2.68 7.4 3.78 2.14 2.38-1.89.92-2.19.08-.4-.82.45-2.39-1.02-4.24-3.05-5.15-2.02-3.58 4.57 1.08 13.76 6.22 9.81 2.45" filter="url(#a)"/><path d="m-51.78-56.87 20.35-11.84-1.98 1.19 1.77.96 9.06-.87 12.17-.93 10.62.16 6.83 1.19 3.45 1.63 1.88 1.66 2.12 1.57 3.2 1.4 4.02.84 3.58-.35 1.3-2.03-2.61-3.51-6.79-4.02L8-73.33l-8.14-2.9-3.82-3.21.46-3.66 2.67-1.88" filter="url(#a)"/><path d="M59.33-44.15 17.38-65.47.98-69.56l4.36 2.3 10.37 4.04 7.16 2.86 1.15.59-4-1.32-6.78-2.3-7.1-2.41-5.86-2.02-4.22-1.45-2.63-.94-.78-.49 1.64-.1 3.97.24 4.55.56 2.04.75-2.82.75-7.01.64-7.32.6-4.01.81-4.09 1.96-33.98 11.56" filter="url(#a)"/><path d="m-13.75-83.26 20.91 8.87-.56 8.49-8.53 5.03-11.74.34-9.3-2.06-3.39-2.04 2.96-1.25 7.44-.98 8.95-1.26 7.54-1.17 3.87.02-1.38 1.96-7.51 3.08-12.3 1.57-11.29-2.62-3.4-6.04-7.62.79m66.72-7.37-13.15 5.39-.86 3.82-2.96-1.75-1.36-1.38 3.06 2.46 7.54 5.99 9.17 6.76 6.18 4.14-.55-.69-7.56-5.35-10.82-7.55-8.02-6.4.16-2.77 10.39 1.5 16.68 4.87 9.78 4.61" filter="url(#a)"/><path d="m27.62-77.9 5.14 13.54-13.03-5.76-10.99-5.82-7.24-2.77-4.93-.01-3.11 2.17-.68 3.27 1.87 2.55 2.86.02L-1-73.64l-1.08-4.32-2.99-3.19-3.99-.39-7.19 2.97-24.12 9.27" filter="url(#a)"/><path d="m-6.41-84.58 6.4 13.9 22.94 10.51 11.95 3.72-.09-1.22-7.08-3.12-8.8-2.62-6.46-.95-1.81.66 3.01 1.44 5.88 1.07 5.63-.28 2.66-2.1-1.17-3.61-3.46-3.97-2.58-2.63 1.03.25 4.4 2.97 3.13 2.27-3.37-4.1 2.81-5.14" filter="url(#a)"/><path d="m-46.48-63.22 48.9-3.66 7.68-.99 2.2 2.68 2.46 2.8.45 1.56-2.21.72-2.79.52-.67.59 2.74.56 5.3.4 5.28.11 2.16-.42-2.97-1.3-7.25-2.45-7.14-3.29-.78-2.85 9.48-.28 16.79 3.99 14.16 6.08-.7-4.55" filter="url(#a)"/><path d="m-35.46-72.97-.54 5.16 5.67-2.23 4.7-1.75 6.02-.7 7.95 1.07 9.48 3.27 9.68 4.76 7.65 4.72 3.43 3.12-1.65.7-5.8-1.64-7.9-3.25-7.86-3.83-6.04-3.46-2.77-2.54 1.55-1.56 5.94-1.02 8.17-1.17 5.64-1.75-2.71-1.99-14.79-1.09-21.78 2.52" filter="url(#a)"/><path d="m20.14-81.33 5.41 4.49 8.04 9.19 2.89 5.85-2.97 1.05-3.56-.45.27.82 4.59 2.56 6.44 3.15 5.3 2.28 2.01.41-2.2-1.68-6.5-3.31-10.35-3.98-13.22-3.66-14.43-2.8-13.06-2.16-8.35-2.32-.44-3.05 8.56-3.41 14.04-3.07 4.25-2.99" filter="url(#a)"/><path d="m-30.37-76.72 40.72 3.96 8 .38 4.08 2.85 4.1 3.93 1.19 2.51-2.57.01-4.4-2.05-4.01-3.07-2.58-3.06-1.29-2.23-.58-.75-.71.97-1.86 2.11-3.76 1.86-4.85.27-2.75-1.43 3.76-1.58 12.27.56 17.89 5.66 26.91 21.48" filter="url(#a)"/><path d="M59.33-44.15 23.87-65.94l-27.81-5.99h-13.87l-1.78 1.58 5.37 1.97 7.61 1.98 7.09 1.57 6.2.84 5.96.05 5.66-.7 4.13-1.37 1.05-1.82-2.49-1.97-4.93-1.89-5.2-1.65-3.76-1.21-3.56-.99-8.43-2.7-4.89-5.96m78.54 72.75 2 1.33 3.88 2.4 2.92 2.68 1.56 2.73L80.71.4l2.64 2.65 3.54 2.56 3.51 2.46 2.54 2.37 1.32 2.3.51 2.28.37 2.29.76 2.32 1.22 2.35 1.43 2.38 1.36 2.42 1.14 2.45 1.04 2.47 1.16 2.49 1.51 2.5 2.1 2.5 2.99 2.42 4.12 2.22 4.63 1.91 1.29 1.86M-.38-84.93l3.71.14 2.46.11 1.87.14 1.92.21 2.24.32 2.5.42 2.58.53 2.48.62 2.34.7 2.26.76 2.32.82 2.48.88 2.68.95 2.88 1.02 3.06 1.11 3.25 1.2 3.45 1.27 3.61 1.33 3.62 1.34 3.5 1.36 3.29 1.39 3.18 1.46 3.2 1.54 3.18 1.59 2.99 1.55 2.95 1.06" filter="url(#a)"/><path d="m-2.13-85.13 2.51.18 2.95.14 2.59.13 2.13.16 1.85.23 1.77.32 1.89.43 2.09.53 2.34.62 2.62.7 2.91.77 3.21.83 3.47.89 3.66.97 3.71 1.04 3.67 1.13 3.57 1.2 3.47 1.27 3.39 1.32 3.34 1.36 3.31 1.4 3.3 1.43 3.33 1.49 3.42 1.55 3.6 1.62 3.93 1.68 4.31 1.73 4.5 1.81L89-56.25l4.29 2.14 5.25 1.85" filter="url(#a)"/><path d="m-3.71-84.88 2.37-.06 2.22.04 2.23.13 2.23.2 2.21.28 2.26.33 2.42.4 2.69.47 3.02.54 3.36.62 3.64.69 3.82.77 3.88.84 3.79.93 3.54 1.01 3.22 1.1 2.89 1.18 2.66 1.27 2.64 1.32 2.86 1.37 3.29 1.41 3.89 1.44 4.52 1.5 5.07 1.57 5.34 1.67 5.28 1.78 4.89 1.87 4.36 1.96 3.96 2.03 3.97 2.06 4.43 2.08 5.06 2.06 5.4 2.06 5.03 2.11 3.98 2.21 4.01 2.2" filter="url(#a)"/><path d="m-3.71-84.88 2.26-.06 2.24.03 2.35.13 2.44.2 2.45.26 2.39.33 2.28.38 2.21.46 2.22.52 2.31.6 2.48.67 2.68.75 2.9.81 3.1.88 3.3.97 3.45 1.06 3.54 1.16 3.55 1.27 3.44 1.35 3.23 1.38 3.08 1.36 3.11 1.33 3.49 1.33 4.15 1.43 4.75 1.61 4.81 1.87 4.27 2.12" filter="url(#a)"/><path d="m-5.01-84.89 2.56-.09 2.49.07 2.25.1 1.84.12 1.51.16 1.37.22 1.36.3 1.39.4 1.4.5 1.39.59 1.36.68 1.29.74 1.2.8 1.06.85.81.9.51.98.17 1.07-.09 1.19L18.7-74l-.1 1.39-.05 1.35-.2 1.08-.31.56" filter="url(#a)"/><path d="M-3.8-84.92h.93l1.84-.01 2.33.06 2.48.13 2.39.2 2.19.26 2.06.33 2.06.4 2.21.46 2.5.54 2.81.62 3.11.69 3.31.76 3.43.84 3.44.92 3.41 1 3.34 1.1 3.28 1.18 3.2 1.26 3.17 1.32 3.17 1.37 3.24 1.4 3.37 1.44 3.5 1.49 3.58 1.57 3.56 1.66 3.45 1.77 3.3 1.88 3.15 1.96 3.03 2.03 2.98 2.07 3.12 2.08 3.48 2.05 3.84 2.03 4.07 2.1 5.83 2.49" filter="url(#a)"/><path d="m-8.05-84.49 2.84-.29 2.69-.11 2.6.02 2.43.08 2.22.13 2.08.18 2.12.24 2.27.33 2.52.43 2.75.52 2.93.62 3 .69 3.01.77 2.94.83 2.85.9 2.75.98 2.66 1.05 2.55 1.13 2.44 1.2 2.3 1.27 2.16 1.33 2.11 1.36 2.15 1.41 2.31 1.46 2.56 1.5 2.83 1.57 3.06 1.64 3.19 1.69 3.23 1.77 3.18 1.85 3.12 1.93L76.88-54l3.04 2.09 2.98 2.17 3.29 2.39 4.72 3.01" filter="url(#a)"/><path d="m-6.41-84.58 2.04-.21 1.56-.09 1.66-.02 1.67.05 1.48.13 1.15.19.85.26.68.32.69.39.79.46.92.54 1.03.6 1.14.68 1.28.76 1.49.82 1.72.91 1.9.99 1.92 1.09 1.72 1.17 1.3 1.26.69 1.32.03 1.36-.6 1.39-1.08 1.42-1.42 1.45-1.66 1.54-1.94 1.64-2.23 1.77-2.31 1.87-1.9 1.97-1.01 2.07-.4 2.13-1.11 2.09-2.68 1.72m65.57 37.65.57 2.1.54 2.31.87 2.34 1.36 2.34 1.57 2.37L74.81.98l.91 2.42.44 2.44.07 2.48-.18 2.52-.31 2.57-.3 2.62-.17 2.64.07 2.64.37 2.61.62 2.55.77 2.48.73 2.4.51 2.34.18 2.3-.16 2.26-.38 2.25-.4 2.24-.23 2.22.07 2.19.33 2.16.39 2.13.21 2.07-.12 1.96-.35 1.79-.29 1.59-.38 1.52-1.07 1.92" filter="url(#a)"/><path d="m-12.53-83.5 1.76-.47 1.68-.29 1.83-.24 2.1-.17 2.33-.1 2.41-.02 2.35.04 2.21.09 2.09.15 2.02.21 2.04.29 2.13.37 2.23.47 2.35.57 2.43.65 2.47.72 2.44.78 2.38.84 2.28.87 2.18.93 2.18 1.01 2.3 1.12 2.66 1.33 3.54 1.89" filter="url(#a)"/><path d="m-13.75-83.26 2.04-.38 2.35-.4 2.22-.34 2.03-.23 1.94-.14 1.95-.05 2 .02 2.05.11 2.08.17 2.09.24 2.11.31 2.15.37 2.2.44 2.28.51 2.36.59 2.44.65 2.5.73 2.52.8 2.49.88 2.43.96 2.37 1.05 2.33 1.15 2.33 1.27 2.34 1.34 2.33 1.39 2.25 1.37 2.15 1.31 2.12 1.3 2.28 1.38 2.48 1.59L55.61-63" filter="url(#a)"/><path d="m-16.9-82.5 2.63-.6 2.4-.49 2.34-.41 2.2-.33 2.07-.24 2.01-.14 2.03-.06 2.1.03 2.17.1 2.23.17 2.26.24 2.27.31 2.29.38 2.32.44 2.37.52 2.43.59 2.48.67 2.52.73 2.52.82 2.51.89 2.51.97 2.52 1.07 2.58 1.16 2.63 1.25 2.68 1.33 2.66 1.36 2.59 1.38 2.51 1.38 2.49 1.41 2.54 1.49 2.62 1.63 2.67 1.78 2.65 1.87 2.44 1.79 1.42 1.48" filter="url(#a)"/><path d="m-16.9-82.5 2.64-.6 2.38-.48L-9.6-84l2.16-.33 2.03-.24 2-.15 2.04-.06 2.14.02 2.22.09 2.29.17 2.32.23 2.31.29 2.31.37 2.31.43 2.36.5 2.44.57 2.54.65 2.65.71 2.75.79 2.85.85 2.96.93 3.08 1.02 3.17 1.14 3.22 1.27 3.17 1.42 2.98 1.47 2.59 1.4 2.16 1.21 2.39.96" filter="url(#a)"/><path d="m-19.44-81.6 2.31-.79 2.45-.62 2.48-.52 2.4-.42 2.25-.34 2.11-.24 2.03-.15 2.03-.07 2.05.02 2.1.09 2.13.17 2.14.23 2.14.3 2.15.37 2.17.44 2.2.5 2.22.59 2.25.65 2.27.73 2.27.8 2.27.87 2.27.96 2.3 1.05 2.34 1.15 2.36 1.26 2.36 1.35 2.3 1.38 2.15 1.37 1.99 1.32 1.9 1.3 1.97 1.38 2.16 1.59L53.37-63" filter="url(#a)"/><path d="m-19.48-81.56 1.87-.7 2.03-.6 2.15-.51 2.13-.43 2.09-.33 2.1-.26 2.17-.18 2.25-.11 2.28-.03 2.26.03 2.2.1 2.14.16 2.11.23 2.12.32 2.16.4 2.23.48 2.29.58 2.32.66 2.32.74 2.3.8 2.26.87 2.22.95 2.18 1.02 2.16 1.1 2.15 1.19 2.16 1.26 2.14 1.32 2.12 1.35 2.08 1.37 2.04 1.4 2.02 1.47 2.01 1.55 1.97 1.61 1.94 1.56 1.77 1.08" filter="url(#a)"/><path d="m-20.19-81.54.68-.33 2.21-.55 2.53-.56 2.46-.5 2.32-.43 2.21-.34 2.14-.24 2.15-.16 2.23-.07 2.34.01 2.47.09 2.59.16 2.68.23 2.76.3 2.84.36 2.92.44 3 .51 3.04.58 3.04.65 2.98.72 2.87.8 2.74.88 2.63.95 2.59 1.05 2.69 1.15 2.94 1.26 3.29 1.35 3.67 1.39 3.94 1.37 4.02 1.32 3.94 1.3 3.83 1.38 3.91 1.59L77.39-63" filter="url(#a)"/><path d="m-20.4-81.38 1.12-.37 1.73-.53 2.06-.55 2.13-.5 2.06-.42 1.99-.34 2.03-.27 2.16-.19 2.3-.11 2.41-.05 2.43.03 2.38.08 2.28.15 2.2.22 2.18.29 2.22.38 2.35.48 2.48.56 2.63.65 2.72.72 2.77.79 2.77.84 2.75.91 2.7.99 2.68 1.07 2.7 1.19 2.81 1.31 2.99 1.39 3.11 1.36 2.9 1.11 1.95.57" filter="url(#a)"/><path d="m-29.22-77 1.59-1.09 1.54-.96 1.55-.88 1.69-.79 1.87-.72 2.02-.65 2.07-.57 2.08-.51 2.09-.44 2.16-.36 2.27-.29 2.42-.21 2.57-.13 2.68-.07h2.74l2.74.07 2.71.13 2.67.2 2.66.27 2.69.36 2.75.45 2.86.54 2.98.63 3.1.71 3.21.78 3.32.83 3.46.87 3.68.92 3.98.97 4.15 1.04 3.04.83" filter="url(#a)"/><path d="m-33.6-74.51 2.67-1.7 2.12-1.26 1.73-1.03 1.52-.89 1.49-.79 1.59-.73 1.77-.66 2.02-.62 2.25-.57 2.39-.51 2.45-.44 2.41-.38 2.33-.3 2.28-.21 2.29-.13 2.38-.04 2.51.04 2.65.11 2.73.17 2.76.25 2.73.29 2.74.36 2.9.43 3.43.53 4.42.63" filter="url(#a)"/><path d="m-34.19-74.26 2.46-1.32 2.11-1.22 1.97-1.11 1.95-1 1.98-.9 2.01-.82 2.04-.73 2.06-.66 2.08-.58 2.06-.51 2.07-.44 2.06-.36 2.08-.29 2.11-.21 2.15-.14 2.16-.07 2.15.01 2.12.07 2.07.14 2.03.21 2.01.29 2.02.37 2.05.46 2.07.55 2.08.64 2.07.71 2.04.78 2 .85 1.96.91 1.95.98 1.98 1.07 2.02 1.19 2.08 1.31 2.08 1.4 1.92 1.36 1.48 1.12.73.58" filter="url(#a)"/><path d="m-34.19-74.26 2.65-1.29 2.25-1.22 1.94-1.1 1.87-.99 1.89-.9 1.96-.81 2.01-.74 2.05-.66 2.07-.6 2.07-.53 2.03-.45 1.99-.39 1.95-.32 1.98-.24 2.05-.17 2.11-.09 2.14-.02 2.04.04 1.84.09 1.61.12 1.53.17 1.72.27 1.9.39" filter="url(#a)"/><path d="m-35.46-72.97 1.73-1.28 2.12-1.27 2.17-1.2 2.23-1.11 2.27-1.01 2.24-.9 2.14-.83 2.03-.74 1.93-.66 1.88-.59 1.87-.52 1.87-.45 1.89-.37 1.92-.29 1.95-.23 1.98-.14 1.97-.08H.64l1.83.06 1.73.12 1.62.2 1.57.27 1.56.35 1.59.45 1.65.54 1.67.62 1.65.71 1.56.78 1.42.83 1.27.87 1.16.92 1.12.98 1.14 1.04.64.83" filter="url(#a)"/><path d="m-35.46-72.97 1.65-1.27 1.99-1.26 2-1.2 1.95-1.1 1.93-1.01 1.93-.91 1.94-.82 1.98-.74 2-.67 2.03-.6 2.04-.52 2.05-.46 2.06-.39 2.08-.31 2.13-.23 2.2-.16 2.27-.09 2.27-.02 2.22.04 2.11.1 2.01.15 1.97.21 2.02.29 2.17.4 2.36.53 2.68.7 3.15.85" filter="url(#a)"/><path d="m-37.1-71.69 1.24-1.28 1.83-1.5 2.15-1.44 2.2-1.28 2.13-1.09 2.02-.95 1.92-.83 1.89-.75 1.94-.69 2.04-.62 2.16-.58 2.25-.52 2.29-.46 2.27-.39 2.21-.31 2.13-.22 2.1-.14 2.1-.06 2.15.02 2.21.11 2.24.17 2.24.23 2.19.29 2.01.31 1.72.29" filter="url(#a)"/><path d="m-36.95-72.15-.1-.96.78-1.16.75-1.22.99-1.17 1.48-1.1 1.97-1.01 2.35-.92 2.56-.83 2.64-.74 2.61-.67 2.53-.6 2.44-.52 2.37-.45 2.37-.38 2.43-.3 2.57-.23 2.71-.15 2.84-.08 2.91-.01 2.92.06 2.89.12 2.87.19 2.88.26 2.96.35 3.08.44 3.2.53 3.27.63 3.29.71 3.26.78 3.25.82 3.35.87 3.59.91 4.14 1.01 5.38 1.46" filter="url(#a)"/><path d="m-36.95-72.15 1.2-.96 1.83-1.17 2.02-1.21 2.02-1.18 1.98-1.1 1.96-1.01 1.96-.91 1.97-.83 2-.75 2.02-.67 2.04-.59 2.05-.52 2.07-.45 2.08-.37 2.12-.3 2.16-.22 2.22-.15 2.24-.08h2.24l2.2.06 2.16.12 2.12.2 2.1.27 2.11.36 2.15.45 2.2.54 2.23.63 2.24.71 2.21.77 2.16.83 2.1.89 2.08.94 2.11 1.01 2.21 1.13 2.44 1.34 3.28 1.91" filter="url(#a)"/><path d="m-40.21-69.34 2.39-2.09 1.95-1.47 1.91-1.3 1.89-1.24 1.83-1.17 1.73-1.1 1.72-1.01 1.8-.92 1.93-.84 2.08-.75 2.18-.67 2.22-.6 2.22-.53 2.2-.45 2.17-.37 2.2-.3 2.23-.23 2.29-.15 2.35-.08 2.38-.01 2.37.06 2.36.13 2.34.19 2.35.28 2.38.35 2.46.45 2.51.54 2.54.63 2.54.71 2.52.77 2.5.83 2.53.88 2.56.94 2.61 1.02 2.71 1.13 3.02 1.34 4 1.91" filter="url(#a)"/><path d="m-40.17-69.35.89-1.13-.25-1.19-1.19-1.31-1.1-1.38-.31-1.35.75-1.26 1.79-1.12 2.61-.98 3.12-.86 3.27-.77 3.16-.7 2.92-.65 2.7-.59 2.62-.54 2.7-.48 2.86-.43 3-.34 3.01-.26 2.98-.16 3.2-.09 4.01-.02 6.15.07" filter="url(#a)"/><path d="m-42.78-66.81 1.47-1.79 1.21-1.43.67-1.39.22-1.35.29-1.3.73-1.24 1.27-1.18 1.71-1.1 1.99-1.02 2.17-.93 2.29-.85 2.4-.76 2.47-.69 2.49-.61 2.52-.53 2.54-.46 2.62-.39 2.77-.32 2.97-.23 3.17-.16 3.34-.09 3.45-.02 3.51.04 3.57.11 3.67.17 3.91.25 4.24.33 4.67.43 5.06.53 5.37.63 5.48.71 5.36.78 5.08.85 4.63.91 3.79 1.01M-42.65-67.16l-2.23 1.92-3.19 1.8-4.71 1.89-5.78 2-6.32 2.02-6.47 1.97-6.36 1.91-5.91 1.86-5.11 1.88-3.93 1.96-2.57 2.07-1.33 2.22-.56 2.33-.5 2.41-1.13 2.44-2.29 2.42-3.83 2.35-5.68 2.31-7.6 2.28-8.91 2.29-8.66 2.31-6.63 2.36-4.36 2.57-3.17 3.31" filter="url(#a)"/><path d="m-43.33-66.74-2.78 2.84-1.97 2.12-1.56 1.75-1.35 1.63-1.29 1.69-1.3 1.84-1.34 2-1.36 2.1-1.33 2.14-1.26 2.14-1.17 2.14-1.07 2.15-1.03 2.18-1.01 2.24-1.02 2.3-1.02 2.34-1.01 2.37-1 2.42-.96 2.48-.92 2.57-.87 2.67-.78 2.73-.69 2.71-.6 2.6-.5 2.47-.4 2.51-.35 2.95" filter="url(#a)"/><path d="m-45.02-64.97-1.58 1.62-2.2 1.83-3.19 2.02-3.62 2.06-3.29 1.99-2.58 1.89-1.83 1.86-1.23 1.87-.89 1.96-.84 2.08-1.04 2.22-1.46 2.34-1.96 2.41-2.42 2.44-2.71 2.41-2.76 2.36-2.55 2.31-2.22 2.29-1.98 2.3-2.09 2.36-2.62 2.46-3.33 2.69-3.39 3.12-1.93 3.56" filter="url(#a)"/><path d="m-47.75-62.02-3.13 2.58-4.2 2.28-4.03 2.04-3.48 1.89-3.05 1.85-2.74 1.9-2.49 2.02-2.21 2.15-1.86 2.29-1.48 2.38-1.14 2.43-.91 2.44-.85 2.43-.99 2.41-1.31 2.4-1.76 2.41-2.19 2.44-2.52 2.49-2.64 2.53-2.53 2.58-2.24 2.59-1.92 2.61-1.7 2.6-1.68 2.59-1.81 2.58-1.97 2.58-1.96 2.57-1.72 2.55-1.36 2.55-1.09 2.57-1.1 2.62-1.29 2.72-1.38 2.84-1.09 2.88-.48 2.69-.54 2.31-3.24 2.14m187.31-47.9.83 3.2 2.62 2.91 4.23 2.61 4.21 2.46 3.01 2.37 1.67 2.35.77 2.35.43 2.38.43 2.4.57 2.4.71 2.43.86 2.48 1.05 2.53 1.26 2.6 1.4 2.63 1.39 2.66 1.23 2.65 1.01 2.59.95 2.5 1.25 2.38 1.87 2.27 2.38 2.18 2.12 2.14.96 2.2 1.87 2.49M-49.86-59.17l-1.7 2.2-1.41 1.99-1.27 1.82-1.23 1.79-1.22 1.85-1.22 1.98-1.19 2.15-1.16 2.28-1.13 2.39-1.08 2.44-1.01 2.44-.95 2.42-.88 2.39-.83 2.37-.8 2.38-.79 2.42-.76 2.47-.73 2.52-.69 2.58-.62 2.6-.54 2.6-.44 2.58-.33 2.58-.25 2.57-.18 2.57-.12 2.58-.08 2.56-.05 2.52-.04 2.37.04 2.14.1 1.92" filter="url(#a)"/><path d="m-49.86-59.17-1.72 2.2-1.45 1.99-1.4 1.82-1.5 1.79-1.61 1.85-1.64 1.98-1.56 2.15-1.48 2.28-1.44 2.39-1.5 2.44-1.58 2.44-1.63 2.42-1.61 2.39-1.48 2.37-1.3 2.38-1.11 2.42-.99 2.47-.92 2.52-.9 2.58-.91 2.6-.88 2.6-.87 2.58-.85 2.58-.86 2.57-.81 2.57-.62 2.58-.3 2.56.04 2.52.12 2.37-.27 2.14-1.23 1.92m34.26-72.47-1.78 2.19-1.87 1.99-3.02 1.82-4.77 1.78-6.08 1.84-6.45 1.98-5.94 2.13-4.92 2.28-3.72 2.39-2.63 2.43-1.78 2.45-1.21 2.41-.77 2.38-.43 2.36-.27 2.37-.48 2.4-1.17 2.46-2.28 2.52-3.49 2.58-4.38 2.6-4.66 2.6-4.31 2.58-3.72 2.56-3.36 2.56-3.49 2.57-3.79 2.59-3.55 2.62-2.29 2.68-.13 2.44" filter="url(#a)"/><path d="m-50.87-57.72-2.09.93-1.6 1.87-1.4 2.22-1.87 2.28-3.17 2.23-5.05 2.18-6.64 2.16-7.09 2.17-6.08 2.22-4.01 2.28-1.79 2.34-.19 2.4.38 2.44-.03 2.49-1.05 2.54-2.27 2.59-3.38 2.63-4.16 2.63-4.57 2.62-4.6 2.58-4.27 2.54-3.62 2.52-2.74 2.52-1.77 2.53-.91 2.56-.37 2.59-.29 2.61-.63 2.6-1.25 2.56-1.88 2.53-2.23 2.48-2.12 2.49-1.69 2.53-1.28 2.58-1.32 2.49-2.04 2.11-3.83 1.25" filter="url(#a)"/><path d="m-51.29-57.62-1.82 2.4-2.22 2.43-2.47 2.35-2.43 2.23-2.14 2.14-1.8 2.1-1.6 2.11-1.63 2.17-1.74 2.25-1.82 2.31-1.75 2.35-1.52 2.39-1.24 2.43-1.07 2.49-1.08 2.58-1.32 2.64-1.63 2.68-1.85 2.65-1.82 2.57-1.55 2.48-1.26 2.39-1.23 2.32-1.45 2.26-1.5 2.28-1.37 2.64" filter="url(#a)"/><path d="m-51.29-57.62-1.78 2.42-2.43 2.45-3.77 2.37-4.62 2.24-4.18 2.16-2.89 2.13-1.67 2.15-1.08 2.2-1.14 2.27-1.57 2.33-2.11 2.38-2.62 2.43-3.02 2.47-3.22 2.54-3.2 2.59-2.89 2.63-2.38 2.64-1.82 2.62-1.45 2.57-1.42 2.52-1.76 2.49-2.28 2.48-2.73 2.5-2.83 2.55-2.54 2.61-2.07 2.64-1.83 2.63-1.97 2.59-2.16 2.5-1.82 2.3-1.25 1.94-2.92 1.89" filter="url(#a)"/><path d="m-51.29-57.62-1.91 2.39-1.51 2.41-1.48 2.34-1.4 2.23-1.25 2.12-1.12 2.08-1.05 2.1-1.06 2.15-1.08 2.23-1.08 2.3-1.03 2.33-.94 2.37-.84 2.39-.76 2.45-.71 2.56-.68 2.67-.67 2.72-.66 2.69-.62 2.57-.55 2.44-.46 2.49-.41 2.93" filter="url(#a)"/><path d="m-53.37-54.41-3.09 1.52-1.32 1.61-.93 1.79-.93 1.98-.98 2.17-1.02 2.32-1.14 2.44-1.26 2.47-1.37 2.46-1.45 2.43-1.47 2.38-1.45 2.38-1.4 2.38-1.33 2.42-1.22 2.48-1.12 2.53-.99 2.58-.86 2.59-.71 2.6-.59 2.59-.5 2.58-.44 2.57-.41 2.57-.36 2.56-.29 2.55-.25 2.51-.27 2.5-.34 2.55-.26 2.71-.03 3.02.08 3.27-.45 3.01" filter="url(#a)"/><path d="m-52.97-55.06-1.65 2.37-1.58 2.41-1.61 2.24-1.7 2.12-1.75 2.09-1.67 2.12-1.57 2.18-1.47 2.26-1.38 2.33-1.28 2.37-1.15 2.41-.99 2.46-.85 2.52-.75 2.58-.69 2.64-.72 2.65-.79 2.62-.87 2.57-.97 2.5-1.04 2.45-1.06 2.43-.97 2.46-.74 2.55-.49 2.63-.34 2.66-.35 2.59-.31 2.54-.47 3.22m29.21-68.97-4.04 2.38-5.36 2.42-3.59 2.24-1.48 2.13-.45 2.1-.41 2.13-1.06 2.19-2.07 2.28-3.06 2.33-3.63 2.39-3.54 2.42-2.87 2.47-1.94 2.54-1.2 2.59-.95 2.63-1.22 2.64-1.77 2.62-2.28 2.57-2.52 2.52-2.43 2.48-2.2 2.47-2.05 2.5-2.1 2.55-2.24 2.61-2.25 2.63-1.93 2.63-1.52 2.59-1.66 2.5-2.81 2.29-4.11 1.94-1.67 1.89" filter="url(#a)"/><path d="m-54.38-52.93-1.64 2.81-1.25 2.23-1.09 2.08-.99 2.06-.93 2.1-.87 2.18-.79 2.27-.71 2.34-.63 2.38-.59 2.41-.57 2.46-.56 2.52-.54 2.58-.49 2.64-.41 2.65-.31 2.62-.21 2.56-.13 2.51-.06 2.45-.02 2.44.03 2.48.1 2.54.18 2.62.27 2.65.32 2.64.33 2.66.34 2.84.49 3.02" filter="url(#a)"/><path d="m-55.45-51.36-1.11 1.81-1.19 2.02-1.15 2.2-1.13 2.39-1.12 2.5-1.07 2.52-1 2.49-.9 2.43-.81 2.39-.74 2.37-.67 2.39-.64 2.44-.59 2.49-.55 2.54-.48 2.58-.4 2.6-.32 2.61-.25 2.59-.19 2.59-.14 2.58-.09 2.57-.05 2.56v2.56l.06 2.57.13 2.59.21 2.63.29 2.7.35 2.73.4 2.72.44 2.62.49 2.46.55 2.33.65 2.29.71 2.37.72 2.52M67.48-19.93l2.43 2.34 5.14 2.6 4.02 2.44 2.14 2.38.89 2.47.1 2.57-.45 2.64L81.1.17l-.38 2.63.28 2.57 1.01 2.48 1.51 2.4 1.67 2.35 1.56 2.32 1.35 2.31 1.2 2.33 1.09 2.37.97 2.4.77 2.42.6 2.46.61 2.48.97 2.5 1.63 2.5 2.26 2.47 2.45 2.39 1.86 2.23.57 1.99-.67 1.83-.34 1.79" filter="url(#a)"/><path d="m-56.41-49.43-8.99 1.81-1.33 1.95-1.72 2.05-2.41 2.1-2.38 2.2-2.12 2.3-1.86 2.37-1.6 2.41-1.37 2.45-1.31 2.49-1.5 2.56-1.92 2.6-2.33 2.64-2.56 2.64-2.49 2.62-2.14 2.58-1.7 2.54-1.37 2.51-1.32 2.52-1.6 2.53-2.09 2.56-2.65 2.58-3.1 2.6-3.26 2.58-3.08 2.56-2.56 2.53-1.9 2.5-1.38 2.5-1.31 2.49-1.69 2.48-2.2 2.46-2.32 2.43-1.86 2.46-1.24 2.64-.7 2.83.95 2.25" filter="url(#a)"/><path d="m-56.44-49.71-1.73 2.16-3.82 2.19-5.11 2.41-4.32 2.55-2.72 2.55-1.39 2.5-.59 2.43-.17 2.37.01 2.36.04 2.38-.09 2.43-.38 2.49-.82 2.55-1.32 2.58-1.81 2.6-2.21 2.61-2.45 2.59-2.53 2.58-2.5 2.58-2.41 2.57-2.33 2.56-2.27 2.56-2.22 2.56-2.18 2.59-2.08 2.63-1.93 2.69-1.66 2.74-1.31 2.71-.93 2.62-.6 2.46-.43 2.32-.3 2.29-.11 2.37v2.52" filter="url(#a)"/><path d="m-57.74-47.28-10.34 1.89-.26 2.41.28 2.61-.53 2.59-1.14 2.51-1.71 2.42-2.42 2.36-3.01 2.33-3.18 2.37-2.79 2.42-2.03 2.49-1.21 2.54-.61 2.59-.36 2.6-.43 2.6-.72 2.59-1.03 2.58-1.3 2.57-1.53 2.57-1.76 2.55-2.05 2.55-2.29 2.56-2.35 2.57-2.02 2.62-1.33 2.7-.52 2.75.01 2.75-.06 2.63-.65 2.43-1.35 2.26-1.58 2.24-1.64 2.3" filter="url(#a)"/><path d="m-57.74-47.28-1.2 1.89-1.6 2.41-2.25 2.6-2.6 2.59-2.52 2.51-2.11 2.42-1.56 2.35-1.02 2.33-.61 2.36-.38 2.42-.34 2.49-.4 2.54-.51 2.59-.65 2.6-.83 2.6L-77.38-8l-1.33 2.58-1.58 2.57-1.73 2.56-1.69 2.55-1.43 2.55-.98 2.54-.51 2.56-.2 2.61-.18 2.71-.43 2.78-.64 2.8-.53 2.65-.16 2.38-.31 2.19-1.92 2.26" filter="url(#a)"/><path d="m-58.27-46.2-2.15 2.66-2.33 2.1-2.54 2.16-2.66 2.32-2.55 2.41-2.31 2.43-2.06 2.45-1.89 2.49-1.87 2.55-1.95 2.62-2.11 2.66-2.29 2.65-2.46 2.62-2.53 2.57-2.44 2.54-2.14 2.51-1.65 2.51-1.1 2.54-.55 2.56-.15 2.58.07 2.59.12 2.58.05 2.56-.07 2.53-.17 2.5-.25 2.5-.32 2.48-.5 2.48-.78 2.47-1.07 2.46-1.15 2.46-.81 2.48-.03 2.44.95 2.26 1.63 2.04.87 2.52" filter="url(#a)"/><path d="m-58.86-45.66-8.96 2.57.34 2.77.53 2.67-1.06 2.52-2.11 2.42-2.22 2.34-1.74 2.34-1.2 2.36-.86 2.44-.77 2.49-.81 2.56-.91 2.6-1.02 2.61-1.18 2.61-1.36 2.59-1.59 2.59-1.79 2.57-1.97 2.57-2.06 2.57-2 2.57-1.73 2.58-1.2 2.6-.46 2.63.39 2.67 1.12 2.69 1.52 2.66 1.43 2.58.87 2.48.03 2.37-.75 2.29-1.07 2.25-.74 2.25-.02 2.26.5 2.31.22 2.01" filter="url(#a)"/><path d="m-60.02-42.82-11.66 1.54-4.26 1.95-.45 2.32 1.3 2.44.85 2.44-.82 2.41-2.55 2.46-3.71 2.53-4.16 2.61-4.1 2.66-3.7 2.66-3.15 2.61-2.58 2.56-2.17 2.5-2.02 2.48-2.15 2.47-2.36 2.5-2.42 2.55-2.23 2.59-1.82 2.6-1.42 2.6-1.18 2.55-1.09 2.49-1.03 2.44-.92 2.45-.81 2.54-.85 2.67-1.08 2.67-1.32 2.65" filter="url(#a)"/><path d="m-59.81-43.51-3.37 3.3-2.1 2.7-1.81 2.53-2.16 2.39-2.35 2.33-2.16 2.32-1.76 2.36-1.4 2.43-1.22 2.51-1.19 2.57-1.24 2.61-1.29 2.61-1.38 2.61-1.58 2.6-1.88 2.59-2.24 2.58-2.49 2.58-2.58 2.57-2.48 2.58-2.3 2.59-2.13 2.61-2.01 2.63-1.89 2.66-1.67 2.66-1.29 2.63-.76 2.57-.22 2.47.24 2.39.5 2.32.57 2.26.43 2.24.19 2.22-.03 2.18-.05 2.15.09 2.14.08 2.22-.77 2.16" filter="url(#a)"/><path d="m-59.81-43.51-1.75 3.27-2.22 2.67-3.23 2.51-3.82 2.37-3.67 2.29-2.95 2.28-2.01 2.32-1.21 2.39-.82 2.47-.84 2.55-1.06 2.58-1.31 2.6-1.48 2.59-1.55 2.57-1.61 2.56-1.64 2.55-1.64 2.55-1.63 2.54-1.69 2.52-1.9 2.5-2.27 2.47-2.62 2.53-2.7 2.69-2.36 3.01-2.14 3.26-4.04 2.98" filter="url(#a)"/><path d="m-60.65-41.27-2.81 1.79-6.2 2.46-6.19 2.55-5.79 2.48-5.67 2.41-4.88 2.46-3.1 2.54-.98 2.63.62 2.68 1.27 2.66 1.08 2.63.45 2.56-.33 2.52-1.15 2.49-1.99 2.5-2.77 2.53-3.33 2.55-3.45 2.58-3.05 2.59-2.2 2.58-1.24 2.56-.54 2.52-.4 2.49-.91 2.49-1.93 2.48-3.09 2.47-3.89 2.46-3.89 2.44-3.03 2.46-1.74 2.53-.97 2.51-1.45 2.12-4.28 1.2m77.06-78.99-1.29 2.04-2.14 2.44-2.09 2.38-1.56 2.28-1.15 2.29-.96 2.35-.93 2.43-.96 2.51-1.07 2.57-1.25 2.61-1.48 2.62-1.69 2.61-1.82 2.6-1.81 2.58-1.71 2.58-1.59 2.57-1.48 2.56-1.43 2.57-1.4 2.58-1.33 2.61-1.16 2.63-.88 2.67-.55 2.66-.24 2.64-.07 2.56-.06 2.48-.19 2.38-.34 2.3-.36 2.26-.17 2.24.21 2.21.48 2.18.28 2.12-.49 2.11-1.1 2.57M67.01-22.36l.78 2.61 1.54 2.89 1.77 2.8 1.53 2.63 1.43 2.49 1.55 2.4 1.63 2.37 1.49 2.37L79.96.58l1.03 2.4.92 2.41.83 2.43.73 2.48.59 2.54.54 2.59.58 2.64.66 2.67.67 2.65.53 2.59.32 2.5.24 2.39.41 2.27.78 2.18.94 2.15.64 2.21-.36 2.49" filter="url(#a)"/><path d="m-61.16-40.08-1.48 2.9-2.32 2.74-4.58 2.47-6.28 2.34-5.95 2.37-3.97 2.49-1.65 2.61-.04 2.68.51 2.68.17 2.61-.69 2.53-1.8 2.46-2.9 2.42-3.7 2.42-4.05 2.46-3.91 2.52-3.48 2.6-3.08 2.63-2.96 2.62-3.23 2.59-3.94 2.56-4.75 2.3-4.23 1.26" filter="url(#a)"/><path d="m-62.26-37.78-3.14 2.93-2.54 2.48-1.21 2.24-.57 2.24-.42 2.32-.58 2.42-.98 2.5-1.42 2.58-1.77 2.61-1.87 2.62-1.72 2.61-1.35 2.58-.92 2.57-.55 2.57-.32 2.56-.27 2.55-.35 2.55-.45 2.57-.51 2.58-.45 2.63-.34 2.67-.21 2.7-.14 2.67-.16 2.58-.26 2.46-.34 2.34-.35 2.27-.3 2.24-.3 2.22-.36 2.28.49 2.94" filter="url(#a)"/><path d="m-62.73-37.14-1.96 2.98-.58 2.44-.41 2.29-.55 2.36-.71 2.52-.82 2.65-.86 2.71-.83 2.68-.71 2.63-.59 2.55-.46 2.49-.36 2.46-.3 2.47-.25 2.51-.23 2.55-.22 2.58-.23 2.6-.27 2.57-.28 2.55-.28 2.5-.21 2.47-.09 2.47.1 2.49.29 2.48.41 2.43.42 2.35.4 2.37.55 2.78.78 3.71" filter="url(#a)"/><path d="m-63.5-34.62-9.05 2.52 1.33 2.06 1.98 2.14.73 2.29-.42 2.4-1.17 2.49-1.65 2.57-1.98 2.61-2.34 2.61-2.79 2.59-3.28 2.56-3.58 2.54-3.45 2.55-2.74 2.54-1.54 2.54-.24 2.52.73 2.5 1.03 2.52.57 2.58-.49 2.7-1.69 2.83-2.45 2.85-2.19 2.65-1.16 2.26-2.2 2.11m38.04-62.53-1.12 2.54-.78 2.08-.88 2.17-1.11 2.32-1.27 2.42-1.26 2.52-1.09 2.59-.87 2.63-.65 2.62-.5 2.61-.37 2.59-.27 2.57-.21 2.57-.15 2.56-.15 2.56-.14 2.56-.14 2.57-.1 2.59-.03 2.63.06 2.66.13 2.68.13 2.64.09 2.57.01 2.46-.02 2.37.01 2.29.09 2.25.16 2.23.2 2.22.29 2.18.49 1.99.71 1.59" filter="url(#a)"/><path d="m-64.54-31.24-2.17 1.36-1.12 2.06-.73 2.34-.46 2.44-.29 2.53-.23 2.61-.2 2.64-.19 2.64-.2 2.61-.25 2.59-.32 2.57-.4 2.57-.46 2.56-.5 2.57-.48 2.56-.4 2.57-.28 2.6-.13 2.64.01 2.65.12 2.67.19 2.62.22 2.56.23 2.46.25 2.37.31 2.3.4 2.26.51 2.23.57 2.2.58 2.18.56 2.14.69 2.14 1.04 2.21.93 2.15" filter="url(#a)"/><path d="m-64.81-30.43-4.45 2.42-5.14 2.5-4.2 2.48-2.83 2.52-1.04 2.61.12 2.65-.05 2.64-1.33 2.61-2.94 2.57-4.07 2.55-4.36 2.56-3.91 2.55-3.1 2.55-2.38 2.55-1.99 2.55-1.92 2.58-1.92 2.63-1.67 2.66-.99 2.69v2.65l.97 2.57 1.4 2.45.95 2.34-.28 2.27-1.81 2.24-3.05 2.23-3.51 2.25-3.2 2.3-3.98 1.99" filter="url(#a)"/><path d="M-64.81-30.43-79.57-28l-.85 2.5 2.35 2.48 1.42 2.54-.35 2.61-1.86 2.66-2.74 2.64-2.93 2.61-2.54 2.58-1.86 2.56-1.17 2.56-.69 2.56-.58 2.56-.82 2.55-1.3 2.57-1.92 2.59-2.49 2.63-3 2.66-3.47 2.67-3.98 2.63-4.5 2.56-4.8 2.46-4.56 2.36-3.58 2.29-1.93 2.25-.13 2.22 1.2 2.21 1.57 2.17.74 2.1-.97 2.11-1.52 2.56m61.5-75.55 7.09 1.92.37 2.63-.78 2.8-.99 2.83-.62 2.74.15 2.63 1.02 2.52 1.68 2.45 1.96 2.44 1.81 2.46 1.3 2.5.66 2.55.13 2.59-.15 2.59-.12 2.57.08 2.54.34 2.5.61 2.47.91 2.47 1.3 2.47 1.78 2.46 2.2 2.45 2.34 2.42 2.14 2.44 1.8 2.52 1.78 2.5 2.27 2.1 3.19 1.19" filter="url(#a)"/><path d="m-65.57-28.07-3.04 2.63-2.31 2.45-1.54 2.46-1.94 2.59-3.39 2.66-5.11 2.64-6.18 2.58-6.02 2.54L-99.91-5l-3.24 2.53-1.93 2.54-1.17 2.53-.8 2.51-.62 2.5-.53 2.52-.63 2.58-.89 2.69-1.08 2.77-.95 2.78-.8 2.61-1.54 2.34-3.06 2.16-.8 2.23M66.56-24.27l.57 2.11.68 2.57.83 2.76.89 2.75.9 2.64.88 2.53.83 2.45.74 2.41.62 2.41.48 2.42.39 2.43.31 2.46.23 2.48.15 2.53.02 2.58-.12 2.61-.28 2.63-.41 2.63-.51 2.61-.56 2.55-.54 2.49-.47 2.42-.36 2.36-.28 2.31-.27 2.29-.32 2.26-.47 2.24-.65 2.23-.86 2.2-1.07 2.17-1.28 2.13-1.41 2.08-1.42 1.97-1.2 1.8-.87 1.6-.85 1.53-1.56 1.92" filter="url(#a)"/><path d="m65.99-27.22.69 2.57.72 2.46.86 2.6 1.03 2.71 1.18 2.71 1.14 2.62.91 2.54.62 2.46.35 2.43.16 2.42.04 2.42-.03 2.43-.09 2.45-.15 2.49-.2 2.53-.2 2.57-.19 2.61-.14 2.63-.09 2.63-.07 2.61-.09 2.55-.17 2.5-.26 2.42-.39 2.36-.52 2.31-.69 2.29-.86 2.26-1.03 2.25-1.15 2.22-1.18 2.21-1.13 2.18-1.02 2.15-.91 2.1-.86 2-.84 1.8-.82 1.44-.99 1.21m5.46-89.63 1.66 2.5 1.06 3.2 1.08 3.09 1.53 2.87 2.28 2.67 2.97 2.56 3.26 2.52 3.01 2.54 2.39 2.58 1.66 2.63L87.05.08l.67 2.61.46 2.57.39 2.5.42 2.43.54 2.39.68 2.36.85 2.35.97 2.36 1.05 2.39 1.13 2.41 1.28 2.44 1.52 2.47 1.79 2.48 1.96 2.48 1.88 2.46 1.47 2.41.8 2.33.07 2.21-.42 2.09-.51 2.01-.2 1.99.38 2.06.99 2.15 1.15 2.09-.02 1.56" filter="url(#a)"/><path d="m64.49-31.47 2.26 3.59L69.74-25l3.87 2.65 4.74 2.66L83.69-17l5.3 2.67 4.43 2.61 3.03 2.53 1.71 2.47.96 2.42.84 2.41 1.09 2.41 1.37 2.42 1.54 2.43 1.61 2.47 1.67 2.51 1.72 2.55 1.63 2.6 1.33 2.64.77 2.65.14 2.63-.33 2.58-.39 2.51.03 2.41.85 2.33 1.78 2.27 2.47 2.26 2.49 2.28 1.68 2.29.58 2.22.71 1.89 2.99 1.32" filter="url(#a)"/><path d="m64.94-30.71.37 1.43.74 2.42.91 2.89 1.21 2.95 1.71 2.84 2.36 2.69 2.92 2.58 3.21 2.55 3.08 2.55 2.53 2.59 1.66 2.62.71 2.63-.12 2.61-.7 2.56-.99 2.5-1 2.45-.84 2.39-.57 2.36-.27 2.36.06 2.36.39 2.39.69 2.41.92 2.45 1.02 2.47.92 2.48.61 2.48.15 2.46-.36 2.42-.77 2.32-.91 2.22-.73 2.09-.28 2.01.24 1.99.52 2.06.33 2.16-.22 2.09-.54 1.56" filter="url(#a)"/><path d="m64.94-30.71 9.75 1.38 10.09 2.35 4.03 2.84-.47 2.92-2.23 2.82-2.41 2.65-2.05 2.52-1.51 2.47-.81 2.47.1 2.53 1.22 2.59 2.46 2.63 3.76 2.63 4.9 2.59 5.71 2.5 5.89 2.4 5.31 2.29 4.04 2.22 2.74 2.21 2.58 2.23 4.6 2.21 6.7 2.5" filter="url(#a)"/><path d="m64.1-32.56.73 1.98 1.04 2.7 1.11 2.71 1.12 2.64 1.23 2.66 1.58 2.67 2.14 2.65 2.74 2.6 3.12 2.52 3.1 2.45 2.63 2.41 1.79 2.39.86 2.38.04 2.39-.46 2.4-.62 2.43-.52 2.46-.38 2.52-.28 2.59-.22 2.65-.08 2.69.22 2.73.64 2.68.97 2.55 1.05 2.35.77 2.75" filter="url(#a)"/><path d="m64.06-33.04.65 1.89.57 1.92.63 2.39.65 2.73.62 2.84.55 2.79.47 2.66.39 2.56.33 2.51.26 2.5.19 2.55.13 2.6.07 2.63.01 2.62-.05 2.58-.12 2.5-.17 2.42-.22 2.32-.27 2.27-.32 2.26-.36 2.29-.41 2.34-.48 2.4-.53 2.3-.36 1.52m-3.9-65.2 5.05 2.08 1.47 2.49 1.95 2.63 2.55 2.7 2.31 2.69 1.65 2.69 1.22 2.69 1.33 2.69 1.9 2.65 2.61 2.61 3.07 2.54 3.13 2.5 2.87 2.45 2.4 2.43L97.83.42l1.56 2.43 1.33 2.45 1.21 2.48 1.16 2.52 1.13 2.56 1.06 2.6.94 2.64.79 2.64.7 2.63.68 2.58.73 2.51.74 2.43.64 2.35.35 2.29-.15 2.28-.69 2.27-1.01 2.28-.7 2.22.22 2.14.85 2.21-1.42 3.1" filter="url(#a)"/><path d="m60.72-41.44 1.51 1.28 1.08 2.01 1.3 2.29 1.54 2.47 1.83 2.57 2.11 2.63 2.31 2.66 2.3 2.66 2.09 2.68 1.72 2.66 1.28 2.65.86 2.6.55 2.54.41 2.48.41 2.43.49 2.42.62 2.4.71 2.4.76 2.41.76 2.43.71 2.46.65 2.53.6 2.59.6 2.66.59 2.71.45 2.77.19 2.76.09 2.51.53 1.38" filter="url(#a)"/><path d="m60.72-41.44.61 1.26.85 1.98.97 2.27 1.07 2.43 1.17 2.55 1.36 2.61 1.65 2.63 2 2.64 2.24 2.65 2.23 2.66 1.95 2.64 1.54 2.6L79.59-10l1.11 2.46 1.21 2.4 1.34 2.37 1.31 2.38 1.06 2.38.72 2.36.55 2.3.65 2.35.73 2.66.37 3.16" filter="url(#a)"/><path d="m60.72-41.44.69 1.27 1.03 2 1.03 2.29 1.02 2.46 1.15 2.56 1.38 2.63 1.61 2.65 1.71 2.66 1.64 2.66 1.44 2.67 1.16 2.64.88 2.6.62 2.53.42 2.48.29 2.42.23 2.41.25 2.39.35 2.39.5 2.39.62 2.41.7 2.44.72 2.51.73 2.58.7 2.64.52 2.68-.05 2.72-.61 2.92" filter="url(#a)"/><path d="m59.33-44.15 1.43 2.8 1.18 2.66 1.07 2.5 1.04 2.34 1.05 2.25 1.05 2.3 1.04 2.43.97 2.59.86 2.69.71 2.7.57 2.66.45 2.59.38 2.55.33 2.54.26 2.55.17 2.6.06 2.64-.06 2.63-.14 2.61-.18 2.53-.15 2.43-.11 2.32-.11 2.25-.11 2.24-.14 2.24-.14 2.23-.39 2.52m-10.5-66.71.78 1.66 1.06 1.71 1.68 2.01 2.78 2.25 4.01 2.43 4.9 2.55 5.09 2.61 4.52 2.65 3.36 2.67 2.06 2.67 1.06 2.67.67 2.64.87 2.6 1.42 2.55 1.99 2.49 2.41 2.44 2.61 2.42 2.66 2.4 2.65 2.41 2.59 2.41 2.45 2.43 2.17 2.47 1.8 2.53 1.45 2.59 1.27 2.66 1.35 2.72 1.51 2.77 1.4 2.76.95 2.51 1.55 1.39" filter="url(#a)"/><path d="M57.91-46.53 61.57-44l.49 1.98.21 1.92.61 2.07 1.08 2.26 1.45 2.42 1.6 2.54 1.53 2.62 1.31 2.65 1.03 2.68.81 2.68.66 2.67.6 2.64.6 2.61.6 2.55.57 2.51.47 2.47.34 2.44.18 2.43.04 2.43-.07 2.44-.13 2.47-.18 2.51-.21 2.55-.24 2.61-.28 2.65-.3 2.67-.31 2.67-.32 2.62-.33 2.53-.33 2.43-.31 2.31-.3 2.22-.37 2.17-.65 2.23-1.26 2.52" filter="url(#a)"/><path d="m57.91-46.53 1.82 2.52L61-42.03l.88 1.92.77 2.07.85 2.25.97 2.42 1.06 2.53 1.08 2.61 1.01 2.65.9 2.67.77 2.68.64 2.67.54 2.64.46 2.61.4 2.55.36 2.5.32 2.46.26 2.43.21 2.43.13 2.42.03 2.43-.09 2.46-.23 2.5-.35 2.54-.43 2.61-.47 2.65-.48 2.69-.46 2.7-.47 2.65-.5 2.56-.51 2.42-.51 2.3-.5 2.18-.54 2.02" filter="url(#a)"/><path d="m57.33-47.93 5.21 2.54.11 2.04-.24 2.2.29 2.35.73 2.36.99 2.32 1.16 2.28 1.39 2.32 1.69 2.44 2.02 2.56 2.22 2.65 2.23 2.69 2.04 2.65 1.71 2.59 1.4 2.53L81.5-8.9l1.23 2.54 1.38 2.59 1.52 2.65 1.46 2.69 1.03 2.66.31 2.61-.22 2.51.25 2.28 1.45 1.66" filter="url(#a)"/><path d="m57.33-47.93 1.78 2.56 2.56 2.07 3.69 2.23 3.94 2.36 3.25 2.38 2.48 2.34 2.23 2.33 2.41 2.38 2.5 2.47 2.1 2.59 1.26 2.65.38 2.68-.12 2.66.01 2.62.7 2.58 1.7 2.58 2.72 2.59 3.44 2.61 3.72 2.62 3.46 2.62 2.78 2.58 1.84 2.52.93 2.45.29 2.38.04 2.32.14 2.31.46 2.32.95 2.36 1.64 2.39 2.46 2.42 2.87 2.46 2.37 2.59 3.4 2.76" filter="url(#a)"/><path d="m57.44-47.9 2.69 1.77 4.12 2.02 3.87 1.93 2.51 1.94 1.22 2.05.81 2.21 1.22 2.36 1.87 2.48 2.21 2.57 2.07 2.62 1.71 2.64 1.45 2.65L84.81-18l2.2 2.65 3.03 2.61 3.82 2.54 4.29 2.47 4.33 2.41 4 2.39 3.44 2.39 2.78 2.41 2.03 2.35 1.17 2.23.92 2.19 2.72 2.67" filter="url(#a)"/><path d="m54.68-52.26 2.46 2.12 2.06 2.25 1.32 2.2 1.13 2.19 1.26 2.25 1.4 2.31 1.53 2.33 1.69 2.31 1.84 2.31 1.94 2.34 1.89 2.44 1.7 2.55 1.46 2.64 1.32 2.68 1.38 2.65 1.64 2.6 1.98 2.53 2.27 2.51 2.34 2.54 2.13 2.6 1.65 2.66 1.06 2.7.6 2.69.57 2.65 1.19 2.64 1.21 2.76" filter="url(#a)"/><path d="m54.67-52.04 1.44 1.73 1.26 1.97 1.1 2.01 1.04 1.99 1.03 1.96 1.04 1.98 1.08 2.07 1.13 2.19 1.19 2.33 1.19 2.45 1.16 2.54 1.06 2.6.95 2.63.84 2.65.77 2.66.73 2.66.69 2.63.6 2.56.48 2.47.34 2.36.24 2.31.23 2.41.29 2.76.29 3.06M54.22-53.3l.89 1.4 1.75 1.91 2.54 2.13 2.88 2.18 2.93 2.22 3.11 2.28 3.49 2.32 3.89 2.33 4.16 2.34 4.24 2.35 4.18 2.41 4.01 2.48 3.68 2.56 3.15 2.63 2.4 2.66 1.54 2.65.73 2.62.2 2.6.08 2.58.42 2.59 1.09 2.62 1.9 2.63 2.67 2.63 3.27 2.59 3.6 2.54 3.63 2.45 3.3 2.37 2.53 2.32 1.37 2.29.22 2.31-.35 2.37.02 2.41.97 2.33 2.63 1.55" filter="url(#a)"/><path d="m54.22-53.3 1.18 1.37 2.2 1.88 2.01 2.09 1.46 2.15 1.22 2.18 1.3 2.23 1.57 2.29 1.78 2.31 1.82 2.3 1.64 2.28 1.36 2.31 1.09 2.4.92 2.53.85 2.65.79 2.71.71 2.68.62 2.58.56 2.47.58 2.42.64 2.46.69 2.58.58 2.7.39 2.95m-29.2-58.75 7.52 2.85 4.86 2.22.92 2.03.23 2.01 1.26 2 2.36 1.99L71-42.44l2.82 2.03 2.5 2.11 2.21 2.22 2.12 2.34 2.2 2.45 2.36 2.54 2.5 2.6 2.59 2.64 2.66 2.66 2.72 2.67 2.68 2.65 2.48 2.62 2.03 2.57 1.46 2.49 1.02 2.43 1.03 2.41 1.76 2.4 3.08 2.42 4.48 2.37 5.17 2.24 4.26 2.21 1.61 2.68" filter="url(#a)"/><path d="m50.31-58.81 1.31 1.87 2.19 2.24 2.43 2.15 2.09 2.08 1.56 2.03 1.14 2.02.9 2.01.81 2.03.84 2.06.96 2.15 1.12 2.25 1.31 2.36 1.44 2.46 1.5 2.55 1.46 2.61 1.33 2.64 1.18 2.67 1.02 2.66.9 2.65.81 2.61.73 2.57.66 2.51.57 2.48.46 2.44.35 2.42.25 2.42.17 2.43.12 2.44.06 2.47.04 2.54.03 2.6.1 2.67.26 2.74.33 2.84.07 3.05-.42 3.46M48.52-61.11l7.83 2.51 5.05 2.02 1.23 2.09 1.23 2.12 2.57 2.15 3.32 2.16 3.17 2.18 2.69 2.22 2.35 2.27 2.42 2.29 2.86 2.32 3.56 2.32 4.32 2.35 4.89 2.4 5.04 2.47 4.67 2.55 3.9 2.62 3 2.65 2.23 2.65 1.8 2.62 1.66 2.58 1.7 2.56 1.77 2.57 1.76 2.61 1.72 2.66 1.7 2.68 1.85 2.67 2.27 2.6 3 2.47 3.85 2.25 3.55 1.95-.04 1.72" filter="url(#a)"/><path d="m48.48-60.68 1.82 1.78 1.75 2 1.58 2.12 1.47 2.11 1.45 2.07 1.43 2.03 1.37 2.01 1.29 2 1.22 2.01 1.17 2.04 1.16 2.12 1.17 2.22 1.19 2.33 1.2 2.44 1.21 2.52 1.21 2.6 1.22 2.64 1.2 2.66 1.13 2.67 1.01 2.66.82 2.63.6 2.57.44 2.5.37 2.43.38 2.4.43 2.42.45 2.46.45 2.39.39 2.09.11 1.78M46.61-63l2.35 2.05 2.47 1.93 2.34 2.01 2.51 2.07 3.34 2.07 4.66 2.04 5.79 2.01 6.13 1.99 5.48 1.97 4.37 1.97 3.47 1.97 3.32 2.04 3.86 2.13 4.7 2.26 5.29 2.4 5.38 2.52 5.12 2.58 5.04 2.6 5.49 2.58 5.98 2.65 5.35 2.91 6.67 3.36" filter="url(#a)"/><path d="m46.61-63 2.15 2.07 2.57 1.95 2.16 2.03 1.56 2.09 1.22 2.09 1.15 2.06 1.27 2.03 1.43 2.01 1.58 1.99 1.7 2.01 1.79 2.03 1.88 2.1 1.94 2.2 2 2.31 2.02 2.43 2.05 2.52 2.06 2.58 2.05 2.64 1.98 2.66 1.84 2.68 1.69 2.68 1.61 2.66 1.68 2.59 1.78 2.48 1.69 2.36 1.33 2.22 1.24 2.28 1.89 3.32" filter="url(#a)"/><path d="m44.92-65.06 1.75 2.03 1.83 2.01 1.78 1.99L52-56.98l1.64 2.08 1.5 2.08 1.35 2.06 1.22 2.03 1.11 2.02 1.05 2.01 1.03 2.01 1.04 2.05 1.05 2.12 1.09 2.21 1.1 2.31 1.08 2.43 1.04 2.52.97 2.59.89 2.63.83 2.66.79 2.68.77 2.68.73 2.65.64 2.59.52 2.49.38 2.39.33 2.34.4 2.43.55 2.78.55 3.08" filter="url(#a)"/><path d="m42.92-66.92 2.03 1.87 1.93 1.95 2.17 1.97 2.58 1.99 2.88 2.03 2.98 2.06 2.94 2.06 2.98 2.04 3.12 2.03 3.21 2 3.09 1.99 2.68 1.99 2.18 2 1.83 2.06 1.84 2.16 2.23 2.27 2.84 2.41 3.44 2.51 3.94 2.58 4.32 2.62 4.49 2.63 4.19 2.68 3.12 2.8 1.57 2.83 1.02 2.38m-69.82-56 1.5 1.51 1.3 1.59 1.29 1.69 1.26 1.76 1.24 1.85 1.26 1.93 1.33 2.01 1.38 2.07 1.37 2.12 1.32 2.14 1.19 2.18 1.05 2.21.9 2.25.77 2.29.63 2.3.53 2.31.42 2.33.35 2.38.29 2.44.26 2.54.29 2.63.34 2.69.4 2.68.39 2.61.3 2.54.08 2.49-.16 2.51-.38 2.61-.45 2.72-.27 2.82.07 2.86M40.31-69.11l6.25 1.02.82 1.42 1.14 1.69 2.69 1.85 3.81 1.93 4.09 1.98 3.77 2.03 3.24 2.05 2.8 2.06 2.53 2.05L73.87-49l2.43 2.02 2.49 2 2.55 2.01 2.59 2.02 2.6 2.08 2.68 2.18 2.83 2.28L95.08-32l3.23 2.51 3.3 2.58 3.25 2.63 3.04 2.65 2.68 2.7 2.35 2.75 2.63 2.77 3.95 2.64 5.16 2.52" filter="url(#a)"/><path d="m40.31-69.11 2.7 1.03 2.73 1.44 1.69 1.71 1.36 1.86 1.5 1.95 1.75 2.01 1.91 2.04 1.94 2.06 1.85 2.07 1.7 2.07 1.57 2.05 1.55 2.03 1.66 2.04 1.87 2.04 2.04 2.09 2.11 2.14 2.02 2.24 1.79 2.33 1.5 2.43 1.21 2.51.98 2.59.86 2.63.81 2.67.84 2.67.92 2.67 1.02 2.63 1.06 2.59L84.28-8l.89 2.46.73 2.43.69 2.42.83 2.43.99 2.39.86 2.26.35 2.23-.55 2.69" filter="url(#a)"/><path d="m39.78-69.84 2.03.92 2.04 1.51 1.62 1.64 1.37 1.65 1.38 1.69 1.54 1.73 1.77 1.81 1.99 1.88 2.17 1.96L58-53.03l2.37 2.07 2.37 2.1 2.31 2.13 2.21 2.15 2.06 2.21 1.89 2.27 1.71 2.34 1.53 2.34 1.44 2.23 1.39 1.97 1.41 1.62 1.47 1.37M39.13-70.5l-.02 1.21-.07 1.25 1.08 1.46 1.86 1.68 2.06 1.82 1.91 1.93 1.62 1.98 1.29 2.04.96 2.05.66 2.07.39 2.06.18 2.05v2.03l-.07 2.03-.07 2.05.03 2.07.15 2.14.26 2.22.32 2.33.31 2.42.24 2.51.12 2.59-.02 2.63-.18 2.67-.38 2.68-.61 2.68-.89 2.65-1.18 2.59-1.43 2.51-1.53 2.44-1.5 2.39-1.33 2.45-1.11 2.56-1.04 2.53-1.66 1.81" filter="url(#a)"/><path d="m38.43-70.99 2.53.98 5.74 1.19 6.05 1.45 3.7 1.58 1.03 1.64-.39 1.69-.31 1.75.87 1.81 2.45 1.89 3.89 1.97 4.71 2.02 4.68 2.07 3.93 2.11 2.78 2.14 1.8 2.17 1.39 2.21 1.63 2.28 2.38 2.32 3.34 2.31 4.28 2.23 5 2.07 5.2 2 4.67 2.33 5.57 3.68" filter="url(#a)"/><path d="m36.49-72.46 6.66 1.27 1.24 1.15 1.22 1.28 1.93 1.45 2.16 1.56 2.02 1.65 1.83 1.7 1.79 1.77 1.97 1.84 2.3 1.91 2.79 1.98 3.37 2.04 4.02 2.09 4.62 2.12 5.1 2.17 5.36 2.2 5.42 2.24 5.36 2.27 5.28 2.3 5.22 2.3 5.2 2.29 5.13 2.32 4.94 2.38 4.48 2.53 3.8 2.69 3.2 2.82 3.33 2.84 4.76 2.7 6.5 2.27 2.91 1.15" filter="url(#a)"/><path d="m36.49-72.46 2.45 1.27 3.28 1.15 2.51 1.28 1.57 1.44 1.19 1.56 1.35 1.64 1.67 1.71 1.93 1.76 2.05 1.83 2.05 1.91 2.07 1.98 2.19 2.03 2.45 2.09L66-48.69l3.01 2.16 3.07 2.2 2.95 2.24 2.67 2.27 2.39 2.3 2.27 2.29 2.41 2.29 2.69 2.29 2.87 2.35 2.68 2.51 2.04 2.71 1.22 2.88.85 2.94 1.45 2.96 2.3 2.85m-66.4-62.31.05 1.87 1.47 1.35 1.79 1.24 1.83 1.32 1.76 1.47L43-64.87l1.5 1.78 1.39 1.88 1.22 1.96.99 2.02.72 2.04.44 2.06.21 2.06.05 2.04-.01 2.04-.05 2.03-.1 2.04-.22 2.08-.39 2.13-.62 2.21-.86 2.31-1.06 2.42-1.18 2.51-1.22 2.58-1.16 2.63-1.02 2.68-.87 2.69-.72 2.7-.64 2.67-.71 2.62-1.02 2.5-1.62 2.38-2.25 2.25-2.59 2.29-3.53 3.34m5-77.14 5.56 2.08 4.5 1.51 2.22 1.31 1.35 1.32 1.81 1.42 3.03 1.52 4.42 1.61 5.4 1.66 5.51 1.72 4.7 1.79 3.44 1.87 2.48 1.94 2.35 2 3.11 2.06 4.32 2.09 5.36 2.11 5.86 2.13 5.96 2.16 6.15 2.25 6.69 2.42 7.08 2.56 5.42 2.5" filter="url(#a)"/><path d="m31.55-75.82 6.2 1.99 3.45 1.7 1.2 1.43 1.07 1.32 1.93 1.35 2.71 1.47 3.02 1.61 2.96 1.75 2.8 1.86 2.68 1.94 2.59 2 2.47 2.03 2.36 2.05 2.33 2.05 2.46 2.04 2.71 2.02 2.95 2.01 3.04 2.01 2.89 2.03 2.57 2.07 2.23 2.15 2.04 2.28 2.1 2.4 2.37 2.51 2.82 2.6 3.47 2.63 4.2 2.62 4.77 2.68 4.72 2.94 3.86 3.39" filter="url(#a)"/><path d="m31.88-75.51 2.51 1.06 2.69 1.48 3.13 1.43 3.75 1.36 3.97 1.39 3.74 1.46 3.25 1.55 2.68 1.62 2.11 1.7 1.55 1.76 1.13 1.83.95 1.91 1.12 1.97 1.61 2.03 2.25 2.09 2.83 2.12 3.18 2.16 3.24 2.2 3.1 2.24 2.86 2.28 2.61 2.3 2.43 2.29 2.3 2.29 2.28 2.3 2.44 2.37 2.76 2.51 3.17 2.71 3.47 2.88 3.42 2.95 2.52 2.97.6 2.85" filter="url(#a)"/><path d="m31.88-75.51 2.08 1.04 2.7 1.47 2.43 1.42 2.42 1.34 2.64 1.35 2.74 1.44 2.58 1.52 2.27 1.59 2.01 1.66 1.94 1.73 2.05 1.79 2.32 1.87 2.63 1.94 2.89 2 3.02 2.06 2.99 2.1 2.87 2.11 2.83 2.13 3.01 2.16 3.34 2.26 3.34 2.42 2.57 2.56 2.02 2.51" filter="url(#a)"/><path d="m28.61-77.53 2.56 1.57 2.24 1.44 2.12 1.45 1.91 1.4 1.72 1.36 1.64 1.37 1.64 1.44 1.67 1.51 1.68 1.59 1.69 1.65 1.66 1.72 1.63 1.79 1.59 1.86 1.57 1.93 1.53 2 1.51 2.06 1.49 2.1 1.49 2.11 1.48 2.11 1.41 2.13 1.31 2.23 1.25 2.46 1.33 2.74" filter="url(#a)"/><path d="m27.62-77.9 1.72.81 2.14 1.22 2.21 1.37 2.17 1.41 2.02 1.4 1.83 1.38 1.64 1.41 1.56 1.46 1.52 1.53 1.56 1.6 1.61 1.68 1.66 1.74 1.72 1.81 1.75 1.88 1.76 1.95 1.75 2.02 1.7 2.07 1.64 2.11 1.54 2.14 1.45 2.17 1.36 2.23 1.31 2.28 1.26 2.35 1.21 2.36 1.15 2.25 1.09 2.01 1.07 1.64.96 1.39" filter="url(#a)"/><path d="m26.44-78.59 1.94.95 1.75 1.05 1.97 1.3 2.09 1.46 2 1.48 1.84 1.44 1.7 1.42 1.62 1.44 1.6 1.52 1.61 1.63 1.62 1.74 1.61 1.84 1.59 1.93 1.55 1.98 1.49 2.03 1.42 2.04 1.34 2.05 1.27 2.05 1.18 2.04 1.12 2.03 1.05 2.04.99 2.06.95 2.12.91 2.2.88 2.29.87 2.41.83 2.5.8 2.59.74 2.64.67 2.68.59 2.71.52 2.75.46 2.74.41 2.65.34 2.5.35 2.36" filter="url(#a)"/><path d="m26.44-78.59 1.95.95 1.75 1.05 1.98 1.3 2.07 1.46 2.01 1.48 1.85 1.44 1.71 1.41 1.64 1.44 1.62 1.52 1.64 1.62 1.65 1.74 1.65 1.84 1.63 1.92 1.58 1.99 1.51 2.02 1.45 2.04 1.36 2.06 1.29 2.04L58-47.23l1.14 2.03 1.08 2.03 1.01 2.05.97 2.11.92 2.18.91 2.29.88 2.41.86 2.51.83 2.59.76 2.64.68 2.67.61 2.71.53 2.77.48 2.79.42 2.66.33 2.54" filter="url(#a)"/><path d="m25.43-79.05 2.15.98 2.63 1.04 2.64 1.21 2.31 1.34 1.98 1.39 1.79 1.39 1.76 1.4 1.8 1.43 1.84 1.48 1.84 1.54 1.8 1.62 1.76 1.68 1.75 1.76 1.79 1.83 1.89 1.89 1.99 1.97 2.07 2.03L61.29-51l1.96 2.13 1.77 2.16 1.55 2.2 1.37 2.24 1.27 2.28 1.27 2.3 1.31 2.3 1.33 2.29 1.28 2.27 1.18 2.34 1.16 2.5 1.25 2.73 1.51 2.92 1.81 2.96 2.07 3.32" filter="url(#a)"/><path d="m24.74-79.46 1.86.88 2.11.93 2.28 1.08 2.35 1.27 2.3 1.41 2.19 1.44 2.04 1.42 1.92 1.4 1.86 1.42 1.87 1.49 1.93 1.59 1.97 1.7 1.96 1.81 1.92 1.91 1.87 1.97 1.86 2.02 1.92 2.04 2 2.05 2.09 2.04 2.07 2.02 1.97 2 1.79 1.98 1.6 1.94 1.45 1.96 1.35 2.03 1.29 2.17 1.26 2.24 1.31 1.78" filter="url(#a)"/><path d="m22.14-80.64 2.95 1.04 2.45.96 2.21.98 2.06 1.1 2.09 1.26 2.13 1.37 2.01 1.41 1.8 1.42 1.57 1.39 1.47 1.42 1.51 1.49 1.68 1.58 1.91 1.69 2.12 1.8 2.25 1.9 2.29 1.96 2.23 2.02 2.09 2.04 1.91 2.05 1.76 2.05 1.67 2.03 1.67 2 1.7 1.97 1.69 1.9 1.56 1.84 1.36 1.87 1.18 1.82" filter="url(#a)"/><path d="m21.24-81.02.95 1.04 2 .95 1.81.98 1.47 1.08 1.37 1.2 1.5 1.29L32-73.12l1.73 1.38 1.65 1.4 1.45 1.44 1.2 1.49.99 1.55.82 1.62.74 1.69.73 1.75.73 1.83.7 1.9.6 1.96.45 2.03.31 2.08.22 2.12.22 2.17.31 2.21.43 2.24.51 2.28.51 2.3.4 2.31.19 2.3-.11 2.31-.46 2.38-.77 2.52-.91 2.72-.79 2.88-.48 2.96-.22 2.98-.54 2.87" filter="url(#a)"/><path d="m20.38-81.46 1.42.64 1.93.83 1.99.9 2 .95 2.13 1.05 2.32 1.15 2.43 1.26 2.44 1.32 2.42 1.34 2.46 1.36 2.61 1.38 2.82 1.42 2.97 1.49 2.94 1.55 2.7 1.61 2.35 1.67 2.1 1.74 2.23 1.81 2.78 1.91 3.43 2.02 3.49 2 2.52 1.87" filter="url(#a)"/><path d="m20.38-81.46 1.73.64 2.54.85 2.39.9 2.18.97 2.2 1.06 2.39 1.17 2.58 1.26 2.68 1.33 2.67 1.36 2.62 1.38 2.55 1.4 2.5 1.45 2.45 1.51 2.4 1.57 2.36 1.64 2.39 1.71 2.56 1.77 2.87 1.85 3.23 1.93 3.46 2 3.37 2.07 2.91 2.11 2.35 2.13 2.17 2.09 2.56 1.96 2.13 2.22" filter="url(#a)"/><path d="m18.44-81.96 2.73.67 3.85.81 3.68.89 3.1.94 2.68 1.02 2.43 1.13 2.25 1.25 2.09 1.34 1.97 1.39 1.97 1.41 2.07 1.42 2.28 1.46 2.5 1.52 2.73 1.6 2.97 1.71 3.2 1.81 3.42 1.9 3.53 1.96 3.51 2.01 3.33 2.04 3.11 2.05 3.01 2.05 3.2 2.03 3.65 2.02 4.2 1.99 4.53 2 4.39 2.02 3.79 2.09 3.03 2.22 2.54 2.39 2.63 2.6 3.78 2.89 6.49 3.06" filter="url(#a)"/><path d="m18.44-81.96 1.86.67 2.28.8 2.59.89 2.71.95 2.63 1.02 2.46 1.13 2.34 1.24 2.37 1.34 2.57 1.39 2.92 1.4 3.4 1.42 3.88 1.45 4.2 1.52 4.25 1.6 3.97 1.7 3.44 1.81 2.79 1.89 2.21 1.97 1.85 2.01 1.82 2.04 2.14 2.06 2.77 2.04 3.57 2.03 4.3 2.01 4.75 1.99 4.77 1.98 4.42 1.99 3.96 2.07 3.7 2.19 3.67 2.35 3.4 2.55 2.4 3.24" filter="url(#a)"/><path d="m17.03-82.34 4.37.76 3.42.78 2.12.85 2.05.91 2.85.99 3.76 1.09 4.26 1.18 4.12 1.27 3.42 1.33 2.49 1.36 1.69 1.4 1.31 1.44 1.46 1.48 2.09 1.55 2.97 1.6 3.81 1.68 4.41 1.74 4.68 1.82 4.63 1.89 4.43 1.96 4.18 2.01 4 2.08 3.86 2.11 3.77 2.16 3.74 2.2 3.82 2.24 4.09 2.29 4.51 2.32 5.04 2.31 5.6 2.27 6.03 2.19 6.03 2.21 4.95 2.47 3.02 3.05 4.44 3.42" filter="url(#a)"/><path d="m10.77-84.1 1.92.41 2.03.56 2.18.69 2.16.76 2.08.8 2.01.84 1.99.9 2 .97 2.02 1.05 2.04 1.14 2.03 1.23 1.98 1.29 1.9 1.33 1.82 1.37 1.74 1.39 1.7 1.43 1.67 1.49 1.66 1.55 1.65 1.62L49-61.6l1.64 1.74 1.66 1.82 1.68 1.92 1.68 2.03 1.54 2.02 1.36 1.88" filter="url(#a)"/><path d="m10.77-84.1 1.9.41 2.2.58 2.39.7 2.37.77 2.23.81 2.11.87 2.04.92 2 .99L30-76.97l2 1.17 2.01 1.24 2 1.31 1.96 1.35 1.9 1.4 1.84 1.43 1.8 1.48 1.78 1.54 1.78 1.6 1.8 1.67 1.83 1.73 1.84 1.81 1.85 1.88 1.86 1.95 1.84 2.01 1.82 2.07 1.76 2.12 1.69 2.15 1.59 2.19 1.49 2.24 1.44 2.3 1.38 2.36 1.36 2.36 1.3 2.28 1.19 2.03 1.02 1.67 1.14 1.4" filter="url(#a)"/><path d="m10.77-84.1 1.86.4 2.14.56 2.49.68 2.88.75 3.34.79 3.78.84 4.09.88 4.2.95 4.15 1.03 4 1.12 3.95 1.22 4.11 1.28 4.49 1.33 4.91 1.35 5.14 1.35 5.09 1.39 4.96 1.46 5.14 1.54 5.95 1.61 7.4 1.67 9.18 1.85 10.41 2.59M10.07-84.09l1.56.42 1.92.48 2.15.57 2.26.65 2.32.73 2.37.79 2.38.87 2.4.94 2.44 1.03 2.51 1.13 2.59 1.22 2.61 1.3 2.58 1.35 2.48 1.4 2.35 1.42 2.22 1.47 2.12 1.52 2.04 1.61 1.97 1.7 1.91 1.8 1.83 1.88 1.8 1.96 1.81 2.01 1.91 2.04 2.11 2.05 2.34 2.06 2.52 2.04 2.58 2.01 2.45 2 2.22 1.99 1.99 2 1.91 2.07 2.03 2.2 2.18 2.35 2.05 2.57 1.73 3.24" filter="url(#a)"/><path d="m7.17-84.72 3.24.53 2.44.51 2.36.59 2.39.68 2.42.76 2.6.8 2.94.86 3.33.91 3.61.99 3.66 1.07 3.46 1.16 3.13 1.23 2.8 1.3 2.6 1.34 2.6 1.38 2.84 1.42 3.24 1.47 3.75 1.52 4.21 1.59 4.58 1.65 4.77 1.72 4.76 1.79 4.56 1.86 4.24 1.94 3.85 2.01 3.51 2.07 3.39 2.11 3.57 2.13 4.14 2.14 4.82 2.16 5.2 2.26 4.73 2.49 1.72 2.77" filter="url(#a)"/><path d="m7.52-84.34 2.21.31 1.92.38 2.04.47 2.22.56 2.36.63 2.43.7 2.47.78 2.51.85 2.53.91 2.59 1.01 2.69 1.09 2.82 1.2 2.94 1.28 3.02 1.35 2.99 1.37 2.88 1.39 2.72 1.41 2.56 1.46 2.43 1.53 2.33 1.65 2.35 1.77 2.53 1.88 2.92 1.96 3.4 2.04 3.74 2.1 3.57 2.09 2.89 2.04 2.78 2.23" filter="url(#a)"/><path d="m4.77-84.64 2.6.29 2.47.33 2.66.4 2.97.47 3.24.55 3.42.63 3.45.71 3.31.78 3.07.85 2.83.93 2.74 1.01 2.87 1.11 3.19 1.2 3.59 1.28 3.85 1.34 3.89 1.38 3.69 1.4 3.41 1.44 3.22 1.49 3.29 1.57 3.61 1.67 4.08 1.78 4.56 1.87 4.89 1.96 5.05 2.03 5.1 2.06 5.03 2.06 4.75 2.06 4.2 2.06 3.69 2.1 3.88 2.2 4.17 2.19" filter="url(#a)"/><path d="m4.77-84.64 2.72.29 2.45.33 2.74.39 2.9.47 2.72.55 2.45.63 2.37.71 2.57.77 2.98.85 3.48.92 3.94 1 4.25 1.1 4.36 1.2 4.26 1.28L53-72.81l3.79 1.37 3.6 1.4 3.49 1.42 3.44 1.47 3.4 1.55 3.4 1.66 3.53 1.77 3.9 1.87 4.43 1.97 4.86 2.03 4.93 2.08 4.74 2.07 4.92 2.02 5.54 1.93 3.58 1.67" filter="url(#a)"/><path d="m4.48-84.89.93.26 1.57.28 1.58.33 1.55.39 1.5.46 1.38.54 1.2.61 1.03.68.89.76.8.82.78.9.85.97.99 1.07 1.12 1.17 1.12 1.28.85 1.34.38 1.38-.22 1.36-.71 1.34-.99 1.37-1.04 1.45-.95 1.62-.71 1.82-.12 1.96.25 1.92" filter="url(#a)"/><path d="m4.05-84.7 1.6.02 1.5.12 2.01.21 2.45.32 2.65.43 2.67.54 2.62.63 2.56.71 2.54.78 2.58.83 2.68.89 2.78.95 2.8 1.04 2.69 1.12 2.46 1.2 2.21 1.28 2.06 1.32 2.11 1.35 2.35 1.38 2.73 1.41 3.14 1.48 3.49 1.54 3.73 1.61 3.86 1.67 3.88 1.67 3.5 1.55 2.49.66" filter="url(#a)"/><path d="m.05-85.04 3.12.19 2.3.24 2.32.29 2.3.33 2.16.41 2.03.47 1.97.55 2 .63 2.07.71 2.2.78 2.32.85 2.48.93 2.64 1.02 2.79 1.11 2.89 1.2 2.94 1.28 2.89 1.33 2.79 1.38 2.63 1.41 2.49 1.46 2.38 1.52 2.33 1.59 2.37 1.69 2.45 1.79 2.58 1.87 2.7 1.96 2.77 2.01 2.79 2.05 2.76 2.06 2.75 2.06 2.77 2.06 2.8 2.02 2.75 1.99 2.56 1.93 2.32 1.86 2.26 1.89 1.91 1.84" filter="url(#a)"/><path d="m.05-85.04 3.38.18 2.5.24 2.4.27 2.61.33 2.9.38 3.07.45 3.09.52 3.07.6 3.08.66 3.19.74 3.36.8 3.49.87 3.53.94 3.51 1.03 3.62 1.14 4.01 1.28 4.66 1.4 5.22 1.43 5.24 1.36 4.6 1.22 4.22 1.11 6.1 1.17" filter="url(#a)"/></g><g fill="none" stroke="#000"><circle cx="7.596" cy="32.14" r="1.198" filter="url(#a)"/><circle cx="10.264" cy="30.568" r="1.504" filter="url(#a)"/><circle cx="6.848" cy="28.868" r="1.764" filter="url(#a)"/><circle cx="9.528" cy="31.352" r="1.35" filter="url(#a)"/><circle cx="9.616" cy="30.028" r="1.93" filter="url(#a)"/><circle cx="8.736" cy="30.116" r="2.828" filter="url(#a)"/><circle cx="9.62" cy="31.516" r="1.38" filter="url(#a)"/><circle cx="10.208" cy="32.472" r="1.084" filter="url(#a)"/><circle cx="8.672" cy="32.308" r="1.588" filter="url(#a)"/><circle cx="10.36" cy="31.224" r="2.748" filter="url(#a)"/><circle cx="-9.988" cy="32.1" r="2.86" filter="url(#a)"/><circle cx="-11.66" cy="31.968" r="1.336" filter="url(#a)"/><circle cx="-8.468" cy="32.432" r="1.29" filter="url(#a)"/><circle cx="-9.9" cy="29.36" r="2.896" filter="url(#a)"/><circle cx="-11.932" cy="30.484" r="2.122" filter="url(#a)"/><circle cx="-11.612" cy="31.9" r="1.6" filter="url(#a)"/><circle cx="-8.46" cy="31.776" r="2.844" filter="url(#a)"/><circle cx="-10.704" cy="32.492" r="2.826" filter="url(#a)"/><circle cx="-9.756" cy="32.228" r="1.026" filter="url(#a)"/><circle cx="-9.42" cy="31.064" r="1.878" filter="url(#a)"/></g><path fill="#80CC66" stroke="#000" stroke-linejoin="round" stroke-width="3" d="m-23.18 66.38.32-.8.32-.79.32-.76.34-.75.34-.74.34-.71.36-.7.35-.68.37-.66.37-.65.38-.62.38-.62.38-.59.4-.58.39-.56.41-.54.4-.53.41-.51.42-.49.42-.47.43-.46.43-.44.43-.43.44-.41.44-.39.44-.38.45-.36.45-.34.46-.33.45-.31.46-.29.47-.28.46-.26.47-.24.47-.23.47-.22.48-.19.48-.18.48-.17.48-.15.48-.13.48-.12.49-.1.48-.09.49-.07.49-.05.49-.04.48-.02.49-.01.49.01.49.02.49.04.49.05.49.07.49.08.49.1.49.12.49.13.49.14.48.16.49.17.48.19.48.21.48.22.48.23.48.25.47.26.47.28.47.29.47.31.47.32.46.34.46.35.46.36.45.38.45.39.45.41.44.42.44.44.44.45.43.46.43.48.43.49.42.51.41.52.41.53.41.55.4.56.4.58.39.58.38.61.38.61.38.63.37.64.36.66.36.67.35.68.35.7.34.71-.43-.2-.43-.19-.43-.19-.43-.19-.43-.18-.43-.18-.43-.18-.43-.17-.43-.16-.43-.17-.43-.16-.43-.15-.43-.15-.43-.15-.43-.14-.43-.14-.43-.14-.43-.13-.43-.12-.43-.13-.43-.12-.43-.11-.43-.11-.43-.11-.43-.1-.43-.1-.43-.09-.43-.09-.43-.09-.43-.08-.43-.08-.43-.07-.43-.07-.43-.06-.43-.06-.43-.06-.43-.05-.43-.05-.43-.04-.43-.04-.43-.03-.43-.03-.43-.03-.43-.02-.43-.01-.43-.02h-.43l-.43-.01h-.43l-.43.01-.43.01-.43.01-.43.02-.43.03-.43.02-.43.04-.43.03-.43.05-.43.04-.43.05-.43.06-.43.06-.43.06-.43.07-.43.08-.43.08-.43.08-.43.09-.43.09-.43.1-.43.1-.43.11-.43.11-.43.12-.43.12-.43.12-.43.13-.43.14-.43.14-.43.15-.43.15-.43.15-.43.16-.43.17-.43.17-.43.17-.43.18-.43.19-.43.19-.43.19-.43.2-.43.21-.43.21-.43.21-.43.22-.43.23-.43.23-.43.23-.43.24" filter="url(#a)"/></svg>