<svg xmlns="http://www.w3.org/2000/svg" width="500" height="500" viewBox="-100 -100 200 200"><defs><clipPath id="c"><path d="m35.08-3.5-.38-.09-.42-.08-.47-.08-.5-.08-.53-.07-.58-.07-.61-.07-.65-.06-.67-.06-.71-.05-.75-.06-.77-.05-.8-.05-.83-.04-.85-.04-.89-.05-.93-.04-.98-.05-1.01-.04-1.05-.03-1.09-.04-1.12-.03-1.14-.03-1.18-.03-1.2-.02-1.22-.03-1.24-.02-1.25-.02-1.27-.02-1.27-.02-1.29-.01-1.28-.01-1.29-.01-1.29-.01-1.28-.01h-6.26l-1.21.01h-1.18l-1.16.01-1.14.01-1.11.01-1.09.02-1.06.01-1.02.02-1 .02-.96.02-.93.02-.9.02-.87.03-.83.03-.8.02-.76.03-.73.03-.7.04-.67.03-.63.04-.6.03-.58.04-.54.04-.52.04-.49.04-.46.04-.44.04-.42.05-.38.04-.37.05-.34.05-.31.05-.3.05-.27.05-.25.05-.22.06-.21.05-.18.06-.17.06 3.79 2.55.59.15.59.16.62.15.62.17.63.16.65.17.66.16.66.17.68.18.69.17.69.17.71.18.71.18.73.17.73.18.75.18.75.18.77.18.78.19.8.18.8.18.8.18.82.18.83.17.83.18.83.17.85.16.85.16.85.16.86.15.86.14.86.13.87.13.86.12.88.11.87.1.87.08.88.08.87.07.88.05.88.05.88.03.87.01.88.01.88-.01.88-.03.88-.04.88-.05.87-.07.88-.08.88-.1.88-.12.88-.13.87-.14.88-.16.87-.17.88-.18.87-.2.87-.22.86-.22.87-.24.86-.24.85-.26.85-.27.69-.18.68-.2.67-.19.66-.2.65-.2.63-.21.62-.21.6-.21.58-.21.57-.21.54-.21.53-.21.5-.2.47-.21.44-.2"/></clipPath><clipPath id="b"><path d="m-33.82-4.92.47-.1.51-.09.56-.08.59-.09.64-.08.67-.07.71-.07.74-.07.78-.06.8-.07.84-.05.86-.06.88-.05.91-.05.94-.05 1.04-.05 1.08-.05 1.1-.05 1.14-.04 1.16-.04 1.18-.04 1.2-.04 1.22-.03 1.24-.03 1.25-.03 1.25-.03 1.27-.02 1.26-.02 1.27-.02 1.27-.02 1.26-.01 1.26-.02 1.25-.01H.01l1.23-.01h4.71l1.13.01h1.1l1.08.01 1.05.01 1.02.02.99.02.96.01.92.02.9.03.86.02.83.03.79.03.76.03.73.03.69.04.66.03.62.04.59.04.56.05.53.04.5.05.46.04.44.05.41.05.38.06.35.05.34.05.3.06.28.06.26.06.23.06.21.07.19.06.16.07.14.07.12.07.1.07.07.08.06.07.04.08-7.13 3.51-.71.21-.72.21-.72.22-.74.22-.73.22-.75.23-.75.23-.75.23-.75.23-.76.23-.76.24-.76.23-.75.23-.76.24-.75.23-.76.24-.77.24-.76.24-.76.24-.77.23-.75.24-.75.23-.75.22-.74.23-.72.22-.72.21-.71.2-.69.2-.68.19-.68.18-.65.17-.65.16-.64.14-.62.14-.62.12-.6.11-.59.09-.59.08-.58.06-.58.05-.57.03-.56.02-.57-.01-.57-.02-.57-.04-.57-.05-.58-.08-.59-.1-.6-.11-.61-.13-.63-.15-.64-.17-.66-.18-.68-.21-.7-.22-.72-.24-.75-.25-.77-.27-.8-.28-.83-.3-.85-.31-.88-.32-.9-.33-.93-.34-.63-.25-.64-.25-.64-.26-.64-.26-.65-.27-.63-.26-.64-.27-.63-.27-.62-.27-.61-.27-.6-.27-.58-.27-.56-.26-.55-.26-.52-.25"/></clipPath><filter id="a"><feTurbulence baseFrequency=".05" numOctaves="3" result="noise" type="noise"/><feDisplacementMap in="SourceGraphic" in2="noise" scale="2"/></filter></defs><rect width="100%" height="100%" x="-100" y="-100" fill="#F2CCA6"/><path fill="#2080DF" stroke="#000" stroke-linejoin="round" stroke-width="1.667" d="m81.98 1.11-.2 1.79.02 1.31-.04.69v-.23l-.34 1.81.22.98-.14.3-.51 2.46.2 1.56-.4 1.63-.31 1.12-.39 2.12.02.68-.45 1.1-.24 1.5-.5 1.76.02 1.04-.42 1.42-.13.54-.72 2.16.36-1.28-.56 2.17-.76 1.35-.87 2.58-.46 1.15-.11.6-1.06 2.35-.02.03-.37.49-.52 1.01-.54 1.02-1.22 2.3-.27 1.48-.62 1.21-1.51 2.1.29-.31-1.29 2.07-.73 1.25.12.06-1.21 1.14.28.36-2.31 2.37-.66.62-.84 1.71.38-.78-1.93 2.1-1.7 2.53-.16-.24-.05.24-2.2 1.98.49-.29-2.97 2.87-.76.91-.81.18-.02.43-.77.57.04.11-.8.8-1.79 1.17-2.45 1.83.02-.02-2.7 2.2.35-.15-.46-.24-.38.6-3.24 2.11 1.1-.51-1.72 1.01-1.09.42-3.08 1.85-.4.02.05-.04-1.27.57-2.68 1.16.4.06-1.96.79-1.36.44-.21-.1-1.85.94-1.01.13.31.28-3.99 1.48 1.09-.39-2.1.41-1.77.42-1.37.19-.16.21-2.42.62-1.93.24v-.25l-3.35.89.01-.17-1.94.38.8-.19-2.34.09.89-.12-5.06.53.15.09-.39.06-1.94-.38-2.86.22-.96-.18-.8-.1-1 .3.05-.44h-3.93l-.26-.13-2.74-.2 2.62.36-4.32-1 1.35.18-2.17-.29-1.3-.06-2.57-.82-.66-.27-1.26.14-2.16-1.06-1.57-.47.54.63-1.86-.66-1.16-.38-2.43-1.4-.05-.07-.45.06-1.41-.7-.58.06-.59-.31-3.48-1.8-.12.39-1.83-1.18-.47-.42-1.87-.7-.01-.23-1.13-.81-1.14-.82-1.91-.99.28.07-.89-.73-1.04-.56-2.23-1.74.05.46-1.6-1.19-2.95-2.76-.11.39-.63-1.13-2.31-2.07 1.61 1.48-2.07-1.87-1.15-1.11-.99-.71-.77-1.2-.65-.74-1.31-1.24-.02-.36-.91-1.05-.04.11-3.19-4.23-.2.17-1.37-2.58.27.93-1.15-1.82-.15-1.1-.99-.96-.39-.85-.8-1.05-1.02-1.58.51.68-1.18-2.29-1.15-2.28-.6-.59.66.59-2.29-3.9 1.04 1.61-1.29-2.76.34.64-1.19-2.55-.93-2.78.58 1.25-1.05-3.05-.38-1.26-.83-1.86.14-.34-1.14-3.82.23.13-.08-.29-.19-.11-.68-2.53.05-1.48.1.29-.63-1.99-.3-1.69-.18-3.23-.12.99.01-.27.02-1.98-.06-2.06-.25-1.09-.01-2.04h-.1l.07-4.44-.13 1 .22-2.44-.2 1.02.13-2.89.2.43-.13-2.73.02-.62.29-2.41.38-2.52.09-.29.44-1.63.52-1.98-.12-.18-.27.45.63-3.11.08.44.64-2.4.52-3.01.15-.3.81-2.62.12.78.68-2.68.24-1.22-.49 1.6 1.13-2.85.54-.9.07-.96 1.57-3.33.61-1.31.08.16 1.15-2.42.56-1-.35.94 1.71-2.97.47-.98.64-1.15-.26.16 1.13-1.5-.36.06 1.35-1.62 1.71-2.06.88-1.61.11-.09 1.49-1.73.34-.41.61-.71 1.15-1.2-.61.09 3.78-4.09-.24.69.18-.22 2.05-2.5.04.53.77-.91 2.94-2.34-.65.18.06-.12 1.09-1.04 3.87-2.61.07-.2-.53-.13 2.71-1.44-.07.06.85-.64 1.75-1.02 2.66-1.88-1.05.71 1.12-.29 1.5-1.21 1.59-.75 1.53-.75.57-.32.08-.16 1.03-.32 1.51-.78 3.96-1.54.52-.47 1.36-.12-.9.14 3.29-1.08-.31.01 1.78-.23.38-.39 2.63-.61-.76-.03 1.6-.41 1.44-.39-.02.12 3.37-.77.95.26 3.27-.65.12.2-.59-.15 2.15-.31 1.44-.27.3.08.31-.1.55.03 2.14-.05 3.06.12 2.17.13-.42-.36 2.07.39 1.96.05 1.19-.1 1.48.09.97.43 2.12.16-1.19-.34 4.56.71-2.11-.19 2.61.29 2.66.66-2.33-.66 2.76.97 1.72.46-.78-.33 3.71.92-.46.01 1.67.12 4.22 1.48-.26.3.77.06 1.72.71.34.37 1.48.6 1.27.38 1.1.42.06.39 1.3.75 2.49 1.45 2.14.65-.21-.26 1.33 1.71-.19-.85.91 1.04 3.85 2.44-.73-.24 2.08 1.57-.01-.52 2.29 1.74-1.62-.91 2.89 2.2 1.63 1.6-.48-.56 3.1 2.44-.87-.3h.35l1.19 1.3.84 1.03 1.25 1.12.89 1.24.99 1.3.81.65.78.48-.17.25 1.97 2.03.72.95 1.44 2.27.57.3-.79-.62 2.67 3.97.25.31.61.99.92 1.17.23.7-.27-.22 2.12 4.3-.39-1.91-.11.54 1.35 2.95 1.05 1.57-.42-.26 1.73 3.36-.3.51.53.07.61 1.48.72 1.91-.11-.06 1.07 3.94-.04-.78.48 2.78.8 1.64.33 1.61.22 1.86-.01-1.07.55 3.87.42.49-.22.98.32-.06-.05 1.92.33 2.26.15 1.32.31 1.25.02.42-.05.92.29 2.5-.06 2.01.04.12.1 2.19-.2 1.79" filter="url(#a)"/><path fill="#fff" d="m-33.82-4.92.47-.1.51-.09.56-.08.59-.09.64-.08.67-.07.71-.07.74-.07.78-.06.8-.07.84-.05.86-.06.88-.05.91-.05.94-.05 1.04-.05 1.08-.05 1.1-.05 1.14-.04 1.16-.04 1.18-.04 1.2-.04 1.22-.03 1.24-.03 1.25-.03 1.25-.03 1.27-.02 1.26-.02 1.27-.02 1.27-.02 1.26-.01 1.26-.02 1.25-.01H.01l1.23-.01h4.71l1.13.01h1.1l1.08.01 1.05.01 1.02.02.99.02.96.01.92.02.9.03.86.02.83.03.79.03.76.03.73.03.69.04.66.03.62.04.59.04.56.05.53.04.5.05.46.04.44.05.41.05.38.06.35.05.34.05.3.06.28.06.26.06.23.06.21.07.19.06.16.07.14.07.12.07.1.07.07.08.06.07.04.08-7.13 3.51-.71.21-.72.21-.72.22-.74.22-.73.22-.75.23-.75.23-.75.23-.75.23-.76.23-.76.24-.76.23-.75.23-.76.24-.75.23-.76.24-.77.24-.76.24-.76.24-.77.23-.75.24-.75.23-.75.22-.74.23-.72.22-.72.21-.71.2-.69.2-.68.19-.68.18-.65.17-.65.16-.64.14-.62.14-.62.12-.6.11-.59.09-.59.08-.58.06-.58.05-.57.03-.56.02-.57-.01-.57-.02-.57-.04-.57-.05-.58-.08-.59-.1-.6-.11-.61-.13-.63-.15-.64-.17-.66-.18-.68-.21-.7-.22-.72-.24-.75-.25-.77-.27-.8-.28-.83-.3-.85-.31-.88-.32-.9-.33-.93-.34-.63-.25-.64-.25-.64-.26-.64-.26-.65-.27-.63-.26-.64-.27-.63-.27-.62-.27-.61-.27-.6-.27-.58-.27-.56-.26-.55-.26-.52-.25" filter="url(#a)" transform="translate(38.29 -29.73)"/><path fill="#fff" d="m35.08-3.5-.38-.09-.42-.08-.47-.08-.5-.08-.53-.07-.58-.07-.61-.07-.65-.06-.67-.06-.71-.05-.75-.06-.77-.05-.8-.05-.83-.04-.85-.04-.89-.05-.93-.04-.98-.05-1.01-.04-1.05-.03-1.09-.04-1.12-.03-1.14-.03-1.18-.03-1.2-.02-1.22-.03-1.24-.02-1.25-.02-1.27-.02-1.27-.02-1.29-.01-1.28-.01-1.29-.01-1.29-.01-1.28-.01h-6.26l-1.21.01h-1.18l-1.16.01-1.14.01-1.11.01-1.09.02-1.06.01-1.02.02-1 .02-.96.02-.93.02-.9.02-.87.03-.83.03-.8.02-.76.03-.73.03-.7.04-.67.03-.63.04-.6.03-.58.04-.54.04-.52.04-.49.04-.46.04-.44.04-.42.05-.38.04-.37.05-.34.05-.31.05-.3.05-.27.05-.25.05-.22.06-.21.05-.18.06-.17.06 3.79 2.55.59.15.59.16.62.15.62.17.63.16.65.17.66.16.66.17.68.18.69.17.69.17.71.18.71.18.73.17.73.18.75.18.75.18.77.18.78.19.8.18.8.18.8.18.82.18.83.17.83.18.83.17.85.16.85.16.85.16.86.15.86.14.86.13.87.13.86.12.88.11.87.1.87.08.88.08.87.07.88.05.88.05.88.03.87.01.88.01.88-.01.88-.03.88-.04.88-.05.87-.07.88-.08.88-.1.88-.12.88-.13.87-.14.88-.16.87-.17.88-.18.87-.2.87-.22.86-.22.87-.24.86-.24.85-.26.85-.27.69-.18.68-.2.67-.19.66-.2.65-.2.63-.21.62-.21.6-.21.58-.21.57-.21.54-.21.53-.21.5-.2.47-.21.44-.2" filter="url(#a)" transform="translate(-40.55 -24.43)"/><g fill="none" stroke="#000" transform="translate(38.29 -29.73)"><path stroke-linejoin="round" stroke-width="1.667" d="m-35.61-3.72-.09-.14-.02-.14.04-.13.1-.13.16-.12.22-.12.26-.11.33-.11.37-.11.42-.09.47-.1.51-.09.56-.08.59-.09.64-.08.67-.07.71-.07.74-.07.78-.06.8-.07.84-.05.86-.06.88-.05.91-.05.94-.05 1.04-.05 1.08-.05 1.1-.05 1.14-.04 1.16-.04 1.18-.04 1.2-.04 1.22-.03 1.24-.03 1.25-.03 1.25-.03 1.27-.02 1.26-.02 1.27-.02 1.27-.02 1.26-.01 1.26-.02 1.25-.01H.01l1.23-.01h4.71l1.13.01h1.1l1.08.01 1.05.01 1.02.02.99.02.96.01.92.02.9.03.86.02.83.03.79.03.76.03.73.03.69.04.66.03.62.04.59.04.56.05.53.04.5.05.46.04.44.05.41.05.38.06.35.05.34.05.3.06.28.06.26.06.23.06.21.07.19.06.16.07.14.07.12.07.1.07.07.08.06.07.04.08.02.08v.08l-.02.08-.04.08-.05.09-.07.09-.08.08-.1.09-.11.09-.13.09" filter="url(#a)"/><path stroke-linejoin="round" stroke-width="2.222" d="m-36.32-3.39.05.13.12.14.18.17.24.18.3.19.34.21.39.22.42.23.46.23.49.25.52.25.55.26.56.26.58.27.6.27.61.27.62.27.63.27.64.27.63.26.65.27.64.26.64.26.64.25.63.25.93.34.9.33.88.32.85.31.83.3.8.28.77.27.75.25.72.24.7.22.68.21.66.18.64.17.63.15.61.13.6.11.59.1.58.08.57.05.57.04.57.02.57.01.56-.02.57-.03.58-.05.58-.06.59-.08.59-.09.6-.11.62-.12.62-.14.64-.14.65-.16.65-.17.68-.18.68-.19.69-.2.71-.2.72-.21.72-.22.74-.23.75-.22.75-.23.75-.24.77-.23.76-.24.76-.24.77-.24.76-.24.75-.23.76-.24.75-.23.76-.23.76-.24.76-.23.75-.23.75-.23.75-.23.75-.23.73-.22.74-.22.72-.22.72-.21.71-.21.7-.21.69-.2.68-.2.68-.2.65-.19.65-.19.64-.18.62-.18.62-.18.6-.17" filter="url(#a)"/><circle cx="-10.612" cy="3.348" r="3.708" clip-path="url(#b)" filter="url(#a)"/><circle cx="-8.737" cy="1.473" r="3.464" clip-path="url(#b)" filter="url(#a)"/><circle cx="-9.882" cy="4.508" r="3.762" clip-path="url(#b)" filter="url(#a)"/><circle cx="-7.262" cy="1.413" r="4.472" clip-path="url(#b)" filter="url(#a)"/><circle cx="-8.247" cy="5.458" r="3.05" clip-path="url(#b)" filter="url(#a)"/><circle cx="-9.932" cy=".808" r="3.918" clip-path="url(#b)" filter="url(#a)"/><circle cx="-7.652" cy="4.528" r="4.5" clip-path="url(#b)" filter="url(#a)"/><circle cx="-9.622" cy="2.763" r="4.946" clip-path="url(#b)" filter="url(#a)"/><circle cx="-11.152" cy="3.503" r="3.172" clip-path="url(#b)" filter="url(#a)"/><circle cx="-9.672" cy="5.003" r="4.8" clip-path="url(#b)" filter="url(#a)"/></g><g fill="none" stroke="#000" transform="translate(-40.55 -24.43)"><path stroke-linejoin="round" stroke-width="2.222" d="m36.47-2.37.07-.14.02-.13-.02-.12-.08-.12-.11-.12-.17-.11-.21-.1-.25-.1-.3-.1-.34-.09-.38-.09-.42-.08-.47-.08-.5-.08-.53-.07-.58-.07-.61-.07-.65-.06-.67-.06-.71-.05-.75-.06-.77-.05-.8-.05-.83-.04-.85-.04-.89-.05-.93-.04-.98-.05-1.01-.04-1.05-.03-1.09-.04-1.12-.03-1.14-.03-1.18-.03-1.2-.02-1.22-.03-1.24-.02-1.25-.02-1.27-.02-1.27-.02-1.29-.01-1.28-.01-1.29-.01-1.29-.01-1.28-.01h-6.26l-1.21.01h-1.18l-1.16.01-1.14.01-1.11.01-1.09.02-1.06.01-1.02.02-1 .02-.96.02-.93.02-.9.02-.87.03-.83.03-.8.02-.76.03-.73.03-.7.04-.67.03-.63.04-.6.03-.58.04-.54.04-.52.04-.49.04-.46.04-.44.04-.42.05-.38.04-.37.05-.34.05-.31.05-.3.05-.27.05-.25.05-.22.06-.21.05-.18.06-.17.06-.15.06-.12.06-.11.06-.1.06-.07.06-.06.06-.04.07-.03.06-.01.07v.07" filter="url(#a)"/><path stroke-linejoin="round" stroke-width="2.222" d="m37.1-2.42-.05.1-.1.12-.14.13-.2.15-.23.15-.28.17-.32.17-.35.19-.38.19-.42.19-.44.2-.47.21-.5.2-.53.21-.54.21-.57.21-.58.21-.6.21-.62.21-.63.21-.65.2-.66.2-.67.19-.68.2-.69.18-.85.27-.85.26-.86.24-.87.24-.86.22-.87.22-.87.2-.88.18-.87.17-.88.16-.87.14-.88.13-.88.12-.88.1-.88.08-.87.07-.88.05-.88.04-.88.03-.88.01-.88-.01-.87-.01-.88-.03-.88-.05-.88-.05-.87-.07-.88-.08-.87-.08-.87-.1-.88-.11-.86-.12-.87-.13-.86-.13-.86-.14-.86-.15-.85-.16-.85-.16-.85-.16-.83-.17-.83-.18-.83-.17-.82-.18-.8-.18-.8-.18-.8-.18-.78-.19-.77-.18-.75-.18-.75-.18-.73-.18-.73-.17-.71-.18-.71-.18-.69-.17-.69-.17-.68-.18-.66-.17-.66-.16-.65-.17-.63-.16-.62-.17-.62-.15-.59-.16-.59-.15-.58-.15-.56-.15-.55-.15-.54-.14-.52-.14-.52-.13-.5-.13-.49-.13-.47-.13-.47-.12" filter="url(#a)"/><circle cx="-26.725" cy="-4.18" r="4.758" clip-path="url(#c)" filter="url(#a)"/><circle cx="-24.21" cy="-4.615" r="3.828" clip-path="url(#c)" filter="url(#a)"/><circle cx="-24.695" cy="-2.98" r="4.428" clip-path="url(#c)" filter="url(#a)"/><circle cx="-23.74" cy="-.36" r="3.316" clip-path="url(#c)" filter="url(#a)"/><circle cx="-24.285" cy="-4.715" r="3.554" clip-path="url(#c)" filter="url(#a)"/><circle cx="-23.64" cy="-1.635" r="4.266" clip-path="url(#c)" filter="url(#a)"/><circle cx="-26.985" cy="-2.5" r="4.086" clip-path="url(#c)" filter="url(#a)"/><circle cx="-25.675" cy="-1.085" r="4.612" clip-path="url(#c)" filter="url(#a)"/><circle cx="-25.35" cy="-2.645" r="3.822" clip-path="url(#c)" filter="url(#a)"/><circle cx="-27.52" cy="-4.38" r="4.21" clip-path="url(#c)" filter="url(#a)"/></g><g fill="none" stroke="#86134D" stroke-linejoin="round" stroke-width="2"><path d="m52.72-64.88 1.79 1.5.76.74.68.71.8.86.9.97.91 1 .86.95.77.85.67.73.54.62.44.5.3.39.15.25-.02.08-.21-.11-.4-.31-.62-.53-.87-.8-1.18-1.12-1.54-1.52-1.9-1.92-2.19-2.26-2.33-2.5m-90.89-8.11 1.8-.88 2.42-.43 2.89-.04 3.41.24 4.04.44 4.77.56 5.47.66 6.04.79 6.43.95 6.72 1.12 6.96 1.29 7.26 1.44 7.57 1.6 7.89 1.75 8.13 1.81 8.29 1.73" filter="url(#a)"/><path d="m59.47-58.05.87 1.01.72.73.65.67.65.73.63.79.55.74.4.62.2.44-.02.24h-.24l-.49-.25-.75-.55-1.04-.85-1.34-1.17-1.68-1.51-2.05-1.9-2.47-2.33-2.89-2.75-3.21-3.09-3.36-3.37" filter="url(#a)"/><path d="m61.27-56.1.61.54.76.92.94 1.18.95 1.23.85 1.14.72 1.02.61.89.48.74.33.55.15.31-.07.03-.29-.25-.5-.52-.73-.82-.98-1.15-1.27-1.54-1.57-1.96-1.92-2.41-2.3-2.96M14.9-83.65l-.45.01 1 .24 1.26.32 1.28.36 1.35.4 1.41.42 1.45.43 1.47.41 1.45.42 1.37.4 1.22.38.99.32.71.25.4.15.09.03-.27-.08-.68-.23-1.13-.37-1.58-.48-1.94-.59-2.21-.66" filter="url(#a)"/><path d="m60.46-56.75.71.58.66.63.72.81.77.95.71.92.56.79.37.59.17.38-.03.16-.24-.09-.48-.38-.76-.71-1.07-1.07-1.43-1.46-1.83-1.91-2.25-2.4-2.59-2.86-2.83-3.2m-23.31-14.6.7.25.3.46-.24.53-.82.57-1.45.62-2.12.7-2.8.8-3.47.89-4.21.96-5.06 1.01-6.03 1.06-7.09 1.15-8.12 1.26-9.02 1.34-9.8 1.35-10.83 1.41m21.65-17.26 1.56-.33 1.73-.22 2.12-.16 2.47-.1 2.65-.07 2.65-.03 2.57.01 2.48.01 2.38.02 2.29.02 2.18.03 2.06.03 2 .04 1.93.05 1.8.03 1.53-.02 1.35-.02" filter="url(#a)"/><path d="m55.3-62.74.98 1.12.76.97.54.84.29.67v.47l-.3.27-.59.11-.87-.01-1.17-.13-1.53-.27-1.91-.45-2.35-.65-2.81-.88-3.29-1.12-3.82-1.37-4.36-1.66-4.9-1.95-5.39-2.26-5.8-2.54-6.16-2.81-6.63-3.1-7.41-3.35m29.99.92.25.33.98.53 1.36.71 1.56.83 1.67.91 1.73.95 1.75 1.01 1.76 1.03 1.73 1.04 1.64.95 1.41.81 1.11.61.78.42.51.28.27.18h-.1" filter="url(#a)"/><path d="m59.47-58.05.85.99.69.69.58.58.53.62.48.61.32.51.07.28-.24-.03-.57-.34-.88-.67-1.21-1.02-1.6-1.43-2.05-1.9-2.59-2.46-3.25-3.09-4.06-3.85m-81.78-8.06.71-.23 1.4-.24 2.26-.34 2.96-.39 3.39-.35 3.61-.24 3.73-.09 3.85.01 4.01.07 4.16.1 4.32.11 4.45.14 4.57.17 4.62.2 4.57.2 4.4.15 4.23.07 4.26.02" filter="url(#a)"/><path d="m50.3-67.21-.44.05.23.83-.16.85-.86.69-1.61.53-2.36.41-3.06.36-3.73.36-4.4.37-5.1.37-5.9.34-6.74.28-7.62.21-8.5.1-9.34.02-10.21-.01-11.18-.03-12.12-.22" filter="url(#a)"/><path d="m40.98-73.84.24.26.68.59.98.74 1.22.89 1.3.94 1.27.91 1.15.82 1.03.75.92.69.82.64.71.57.57.47.39.34.18.18h-.05l-.29-.16-.54-.34-.8-.53-1.1-.75-1.41-1-1.67-1.25-1.83-1.45-1.92-1.66m22.96 21.75 1.76 2.61.94 1.38.59.9.37.64.2.43.02.23-.15-.02-.35-.3-.58-.6-.85-.94-1.15-1.36-1.53-1.89-1.95-2.51-2.39-3.15-2.79-3.74" filter="url(#a)"/><path d="m57.33-60.41.84.97.22.7-.42.32-1.08-.09-1.76-.43-2.46-.71-3.21-.98-4.04-1.31-4.97-1.72-5.9-2.21-6.78-2.7-7.62-3.17-8.59-3.66-9.9-4.2m66.8 33.13.1.34-.32.23-.93-.09-1.6-.45-2.3-.85-3.06-1.29-3.87-1.78-4.75-2.25-5.68-2.73-6.64-3.24-7.6-3.83-8.47-4.49-9.3-5.21-10.26-5.96" filter="url(#a)"/><path d="m66.58-49.82-.02.6.19 1.28-.31 1.08-.93.81-1.52.61-2.1.49-2.65.41-3.2.33-3.76.27-4.32.23-4.91.2-5.51.16-6.13.1-6.79-.01-7.45-.14-8.1-.29-8.76-.43-9.44-.54-10.14-.6-10.9-.62-11.74-.58-12.71-.44m14.76-27.01 1.42-.98 1.24-.72.95-.49.7-.33.57-.22.54-.14.47-.06.3.09-.02.28-.41.53-.84.79-1.26 1.04-1.66 1.31-2.06 1.57-2.52 1.87-3.01 2.23-3.56 2.63-4.05 2.99-4.45 3.24" filter="url(#a)"/><path d="m-45.12-70.85.7-.12 2.05-.34 3.02-.34 3.66-.14 4.24.09 4.81.24 5.41.36 5.97.46 6.45.58 6.88.74 7.3.87 7.71.95 8.12.94 8.42.92 8.57.94 8.58 1" filter="url(#a)"/><path d="m66.01-50.12.2.25.1.65-.02.83-.37.68-.82.41-1.28.16-1.74-.07-2.18-.25-2.62-.44-3.06-.61-3.51-.77-3.99-.94-4.49-1.12-5-1.34-5.57-1.6-6.17-1.86-6.84-2.11-7.56-2.34-8.3-2.53-8.93-2.77-9.39-3.12-9.66-3.59m11.48-11.37 1.59.1 1.89.1 1.88.24 2.03.37 2.29.49 2.55.61 2.8.73 3.09.85 3.38.95 3.66 1.04 3.85 1.09 3.94 1.12 3.95 1.14 3.9 1.15 3.86 1.18 3.82 1.22 3.76 1.28 3.63 1.28 3.41 1.22 3.17 1.11m-91.33-5.75 1.51-1.04.79-.45.82-.43.91-.49.85-.46.6-.32.28-.11-.06.09-.37.3-.65.48-1.03.71-1.54 1-2.26 1.43-3.27 2.03" filter="url(#a)"/><path d="m70.24-44 .06.55-.07.64-.35.49-.73.23-1.13.06-1.51-.09-1.92-.28-2.38-.54-2.87-.86-3.41-1.2-3.98-1.56-4.58-1.88-5.23-2.19-5.89-2.5-6.54-2.83-7.14-3.2-7.73-3.59-8.3-4.01-8.94-4.45-9.69-4.9m-32.25 4.68 1.76-1.08 1.43-.86 1.23-.65 1.28-.64 1.38-.69 1.41-.7 1.39-.69 1.33-.64 1.31-.61 1.29-.58 1.27-.55 1.16-.49.98-.42.73-.3.43-.18.15-.06-.17.07-.53.23-1 .41-1.5.61-1.93.78-2.01.82" filter="url(#a)"/><path d="m-39.93-74.33-.21.26.81-.36 1.24-.64 1.34-.69 1.28-.66 1.21-.59 1.21-.57 1.24-.55 1.24-.55 1.17-.5 1-.41.75-.3.46-.16.15-.02-.13.1-.38.21-.63.32-.87.42-1.17.56-1.54.73-1.93.91-2.24 1.04-2.27.96m35.13-10.11 2.31.11 1.27.12.65.17.27.28-.13.39-.58.5-1.14.63-1.73.76-2.38.91L-7.58-80l-3.74 1.23-4.45 1.4-5.15 1.55-5.88 1.71-6.7 1.92-7.79 2.32" filter="url(#a)"/></g><g fill="none" stroke="#000"><circle cx="11.496" cy="31.088" r="2.718" filter="url(#a)"/><circle cx="8.604" cy="28.072" r="2.648" filter="url(#a)"/><circle cx="9.968" cy="27.804" r="2.586" filter="url(#a)"/><circle cx="10.876" cy="30.88" r="1.204" filter="url(#a)"/><circle cx="11.204" cy="30.664" r="2.696" filter="url(#a)"/><circle cx="11.48" cy="28.824" r="2.23" filter="url(#a)"/><circle cx="9.632" cy="30.9" r="2.144" filter="url(#a)"/><circle cx="11.236" cy="30.716" r="1.258" filter="url(#a)"/><circle cx="11.744" cy="27.8" r="1.706" filter="url(#a)"/><circle cx="10.256" cy="28.312" r="2.78" filter="url(#a)"/><circle cx="-10.488" cy="27.154" r="2.866" filter="url(#a)"/><circle cx="-10.132" cy="29.262" r="2.816" filter="url(#a)"/><circle cx="-7.524" cy="29.782" r="1.68" filter="url(#a)"/><circle cx="-9.088" cy="26.646" r="1.828" filter="url(#a)"/><circle cx="-10.408" cy="26.75" r="1.032" filter="url(#a)"/><circle cx="-10.116" cy="26.714" r="1.65" filter="url(#a)"/><circle cx="-9.696" cy="28.634" r="1.516" filter="url(#a)"/><circle cx="-9.54" cy="30.026" r="2.21" filter="url(#a)"/><circle cx="-7.96" cy="26.558" r="2.794" filter="url(#a)"/><circle cx="-7.748" cy="28.402" r="1.3" filter="url(#a)"/></g><path fill="#69C" stroke="#000" stroke-linejoin="round" stroke-width="3" d="m-27.37 52.68.19-.47.2-.46.21-.46.22-.45.23-.45.25-.45.25-.44.26-.43.26-.43.28-.43.29-.42.3-.41.3-.41.32-.41.32-.39.33-.39.34-.39.35-.38.36-.37.36-.36.38-.36.38-.35.39-.35.4-.33.4-.33.41-.32.42-.31.43-.31.43-.3.45-.28.45-.28.45-.28.46-.26.47-.25.48-.25.48-.23.49-.23.5-.21.5-.21.5-.19.52-.19.52-.17.52-.17.53-.15.54-.15.54-.13.55-.12.55-.11.56-.1.56-.09.57-.08.57-.06.58-.05.58-.04.58-.03.59-.01.6-.01.6.02.6.02.61.04.61.05.61.06.62.08.62.09.63.1.63.12.63.14.63.15.64.16.64.18.64.19.65.21.65.22.65.24.65.25.66.27.66.28.66.31.66.31.66.34.67.35.66.37.67.38.67.4.67.42.67.43.68.46.67.47.68.49.67.5.68.53.68.54.67.56.68.58.68.6.68.62.68.64.67.65.68.68-.51-.31-.51-.3-.52-.28-.51-.28-.52-.27-.51-.26-.51-.26-.52-.24-.51-.23-.51-.23-.52-.22-.51-.21-.52-.2-.51-.19-.51-.19-.52-.17-.51-.17-.51-.16-.52-.16-.51-.14-.52-.14-.51-.13-.51-.12-.52-.12-.51-.11-.51-.1-.52-.09-.51-.08-.52-.08-.51-.08-.51-.06-.52-.06-.51-.05-.51-.04-.52-.04-.51-.03-.52-.03-.51-.02-.51-.01H2.43l-.52.02-.51.01-.52.03-.51.03-.51.03-.52.05-.51.04-.51.06-.52.05-.51.07-.51.07-.52.07-.51.08-.52.08-.51.09-.51.1-.52.1-.51.1-.51.11-.52.11-.51.12-.52.12-.51.13-.51.13-.52.13-.51.14-.51.15-.52.14-.51.15-.52.16-.51.16-.51.16-.52.17-.51.17-.51.17-.52.17-.51.18-.52.19-.51.18-.51.19-.52.2-.51.19-.51.2-.52.2-.51.2-.52.21-.51.21-.51.21-.52.21-.51.22-.51.22-.52.22-.51.22-.52.23-.51.22-.51.23-.52.23" filter="url(#a)"/></svg>