<svg xmlns="http://www.w3.org/2000/svg" width="500" height="500" viewBox="-100 -100 200 200"><defs><clipPath id="c"><path d="m34.62-3.21-.23-.11-.27-.12-.29-.11-.33-.11-.35-.11-.39-.11-.42-.11-.45-.1-.48-.1-.52-.1-.55-.1-.59-.09-.62-.09-.65-.08-.68-.08-.55-.12-.61-.12-.68-.11-.73-.1-.8-.09-.87-.09-.91-.07-.98-.07-1.02-.07-1.08-.05-1.11-.04-1.17-.04-1.2-.03-1.23-.03-1.27-.01-1.29-.01h-1.31l-1.33.01-1.35.01-1.36.02-1.37.03-1.37.03-1.36.04-1.37.04-1.36.05-1.34.06-1.33.06-1.32.06-1.29.07-1.27.07-1.25.08-1.22.08-1.19.08-1.16.08-1.13.09-1.09.09-1.06.09-1.02.1-.99.09-.95.1-.91.1-.88.1-.84.1-.8.1-.76.1-.74.1-.7.11-.66.1-.64.11-.61.1-.58.1-.55.11-.53.1-.5.11-.47.11-.44.1-.42.11-.4.11-.37.11-.35.1-.32.11-.31.11-.28.11-.26.11.58 1.86.34.16.36.16.37.16.39.16.41.16.43.17.45.16.46.17.49.16.51.17.54.16.55.17.58.16.6.17.62.16.65.17.67.16.7.16.73.17.75.16.78.16.82.16.84.16.87.15.9.15.93.15.96.14.99.13 1.01.14 1.04.12 1.07.12 1.1.11 1.11.11 1.14.09 1.16.09 1.17.08 1.19.07 1.21.06 1.22.06 1.22.04 1.23.03 1.24.02 1.23.01 1.24-.01 1.23-.01 1.22-.03 1.21-.04 1.2-.05 1.18-.06 1.16-.08 1.14-.08 1.11-.1 1.09-.11 1.05-.13 1.02-.13.98-.15.94-.16.9-.17.85-.18.81-.19.77-.19.71-.21.67-.22.61-.22.69-.16.67-.16.63-.17.61-.17.59-.17.55-.18.53-.18.51-.18.47-.18.45-.18.42-.18.4-.19.37-.18.34-.17.32-.18"/></clipPath><clipPath id="b"><path d="m-34.21-3.21.24-.07.27-.07.3-.07.34-.07.36-.07.39-.07.43-.06.46-.07.49-.06.53-.07.56-.06.59-.06.63-.06.66-.05.69-.06.55-.08.62-.07.69-.07.75-.06.81-.07.86-.06.93-.05.98-.05 1.03-.05 1.08-.04 1.13-.04 1.17-.04 1.2-.03 1.24-.02 1.27-.02 1.29-.02 1.32-.01 1.33-.01h2.71l1.37.01 1.36.01 1.37.01 1.36.02 1.35.03 1.34.03 1.32.03 1.31.04 1.29.04 1.26.04 1.23.05 1.21.06 1.18.05 1.14.07 1.11.06 1.08.07 1.04.07 1 .08.97.07.92.09.89.08.85.09.81.09.78.09.73.1.71.1.67.1.63.1.61.11.57.1.55.11.52.12.49.11.46.12.43.12.4.12.38.13.35.13.33.13.3.13.28.13.26.14.24.14.21.14-.37 1.37-.36.17-.39.17-.4.18-.41.17-.44.17-.45.17-.48.18-.49.17-.51.17-.54.17-.55.16-.58.17-.6.16-.62.17-.64.16-.67.16-.69.15-.71.16-.74.15-.77.15-.79.14-.83.15-.85.13-.88.13-.9.12-.94.12-.96.11-.99.1-1.01.1-1.04.08-1.07.08-1.08.07-1.11.06-1.13.04-1.14.04-1.16.03-1.18.02H-.5l-1.2-.01-1.21-.03-1.22-.04-1.21-.04-1.2-.06-1.21-.07-1.19-.08-1.18-.09-1.17-.1-1.15-.11-1.13-.11-1.11-.13-1.08-.14-1.06-.14-1.02-.15-.99-.16-.95-.16-.92-.17-.87-.18-.83-.18-.79-.18-.74-.19-.69-.19-.65-.19-.6-.19-.67-.16-.64-.16-.62-.16-.59-.16-.57-.15-.54-.16-.51-.16-.49-.16-.46-.16-.43-.15-.41-.15-.38-.15-.36-.15-.33-.15-.31-.14"/></clipPath><filter id="a"><feTurbulence baseFrequency=".05" numOctaves="3" result="noise" type="noise"/><feDisplacementMap in="SourceGraphic" in2="noise" scale="2"/></filter></defs><rect width="100%" height="100%" x="-100" y="-100" fill="#A6E5F2"/><path fill="#DF4220" stroke="#000" stroke-linejoin="round" stroke-width="1.667" d="m72.58.54-.12 1.72.32.89-.24.78-.08 1.3.14.26-.3 1.83-.12 3.32-.16 2.16-.04-.14-.47 1.97.05-.23-.2 2.56-.27 1.87.12-.36-.96 2.78.08.82-.42.41-.3 2.35.06.9.02-.17-1.31 4-.41 1.11-.27.72-.11-.29-.59 1.97.04.46-1.14 3.51-.46 1.34-.31.17-.78 2.21.39-1.11-1.93 4.04.35-.46-.85 1.13-1.36 2.36 1.09-1.41-1.21 2.84-.19.37-1.27 1.79-.65.83-1.35 2.02.2.62-1.06 1.32-.77 1.37-.7.53-1.36 1.05-.35.72.34.16-.18.04-1.74 2.08-1.52 1.53-.93.9-.98 1.93-.47-.2-1.03 1.13-.03-.01-.56.79-2.07 2.32-1.55 1.27.15-.74-.68.99-1.78 1.29-.95.58-.26.46-1.98 1.92-.25-.49-1.43 1.1.87-.18-.96.97-3.51 1.33.68-.29-.97 1-1.02.63-2.07.69.4.05-3.27 1.28.12.16-1.92.44.61.34-2.93.91 1.27-.27-2.14.69-.03-.31-3.03.98-1.8.51.73.05-1.49.49-.39-.14-1.54.36-.97.58-1.59.07-.59.13-.9.28-3.04.07-.53-.02-.72.21-2.68.3.12-.29-.14.34-1.72.05-1.81-.13h-.62l-1.1-.05-1.23-.19-2.08-.18-.71-.08-1.56.12-1.67-.58.66.26-.28-.12-3.31-.65-1.24-.15.01-.06.42-.3-1.54.03-2.67-.97-1.72-.37-.85-.3-.96-.08-.7-.46.28-.31-2.03-1.04h-1.37l-2.37-1.08.92.05-.54-.52-.78.4-2.78-1.69-1.41-.9-.96-.74.1-.27-.72.04-2.13-1.28-.47-.3-1.66-1.35-1.23-.96-1.18-1.22.73.22-2.72-1.98-1.01-.21 1.29.74-1-1.43-1.86-1.07 1.12.82-2.16-2.34-2.23-2.29.08 1-.29-1.41-.46.09-2.43-2.99-.85-1.06-.33-.27-1.05-1.59-.8-1.18-.7-.66-.33-.79-1.59-2.35-.57-.44-1.31-2.15 1.39.75-1.25-1.24-1.52-2.08.7 1.22-.58-2.1-.9-.68-.36-1.73-1.85-3.11-.2.42.23.03-1.68-4.39.47 2.17-.37-1.17-.65-2.61-.7-.77-.44-2.04-.38-1.3.35.7-.98-2.27-.93-2.94.41.2-1.05-2.99-.25-1.33-.36-1.19-.07-1.35-.3-1.64-.2-.31-.04.79-.17-1.69-.71-3.03.08-2.05-.28-1.21-.11-1.95.17.72-.44-3.6-.01.1-.01-.91.19-.34-.5-3.78.27.53-.04-4.01-.35.42.16-.99.03.13.14-4.84.23-.24-.07-1.48.03.3.2-.93-.03-1.38.58-4.7.44-1.38.07-.35-.02-.7.58-1.84-.04-1.19.32-1.3-.02.33.43-2.8.58-.31-.12-1.13 1.03-3.42-.28 1.34.83-4.1.23.51 1.05-2.85-.66 1.44 1.04-2.91 1.01-1.96-.14-.24.77-2.02 1.18-1.95-.07-.65.69.11.79-2.48.12-.77.38-.45.65-1.2 1.11-2.06.13-.56.91-.86.44-.89.56-1.37.5-.36.92-1.41-.18.11 1.74-2.21 1.03-.77 1.16-2.66.54-.46-.44 1.04 1.3-1.65 1.09-1.34 1.62-1.32-.08-1.02 1.07-.26.48-.81 1.38-.89 1.27-1.11 1.21-1.36.62-.81-.23-.02 1.19-.73 2.46-1.87.89-.77-.26.51 1.63-1.57.54-.51-.21.41 2.74-2.02 2.07-1.03-.72.29 1.41-.72.21-.19 1.01-.75 1.25-.2 1.06-.82 1.29-.55 1.9-.76 1.14-.34 1.88-.55.67-.35.18-.53 1.76-.43-.26-.25 1.45-.07.65-.16 1.14-.35 1.51-.33.84-.26 3.25-.76.38-.1 1.49-.18.24.27-.28-.21 3.33-.13-.84-.3 1.45.08 2.68.02 1.04.05 1.27.03.82-.1 1.17.07 1.64.07L3.41-87l3.39.43.22-.24 1.05.12.52.18.92.12.51.25 3.46.57.85.21-.17.06 1.72.02 1.95.96-.79-.59 3.75 1.63-.57-.36 2.58.81.9.46.65.34-1-.57 3.99 1.76.39.13 1.2.9 1.05.54-.26.07.34.22 1.73 1.15 2.22.85.72.72-.89-.7.36.27 1.37.84 2.75 1.69.09-.28 2.17 1.99-.39-.3 1.48 1.35.11.34 1.07.4 1.25 1.11 2.16 2.39 1.17.98-.72-.43 2.21 2.6-1-1.74 2.56 3.23.14-.51-.15.26 2.38 2.72-.51-.22 1.67 2.04.09-.22 2.24 3.08-.6-.52 1.16 1.56 1.16 1.48-.14.32.7 1.42 1.32 1.87.42.56v.9l1.16 1.43.43.36 1.11 2.16-.13 1.35.26-1 .98 3.14 1.14 1.67-.34-.88.63 2.89.52.51.33.99.75 2.04.45 1.08.67 1.65.25 1.17-.17-.04.49 1.03v1.19l1.17 4.25-.57-1.72.92 3.71.14-.75.28 2.2.45 3.04.05-.54.53 2.57.08.08.08 1.17.36 2.1.22 2.83-.42-.71.22 1.89.23 2.62.15-.32-.22.41.21 4.06-.19.69-.12 1.72" filter="url(#a)"/><path fill="#fff" d="m-34.21-3.21.24-.07.27-.07.3-.07.34-.07.36-.07.39-.07.43-.06.46-.07.49-.06.53-.07.56-.06.59-.06.63-.06.66-.05.69-.06.55-.08.62-.07.69-.07.75-.06.81-.07.86-.06.93-.05.98-.05 1.03-.05 1.08-.04 1.13-.04 1.17-.04 1.2-.03 1.24-.02 1.27-.02 1.29-.02 1.32-.01 1.33-.01h2.71l1.37.01 1.36.01 1.37.01 1.36.02 1.35.03 1.34.03 1.32.03 1.31.04 1.29.04 1.26.04 1.23.05 1.21.06 1.18.05 1.14.07 1.11.06 1.08.07 1.04.07 1 .08.97.07.92.09.89.08.85.09.81.09.78.09.73.1.71.1.67.1.63.1.61.11.57.1.55.11.52.12.49.11.46.12.43.12.4.12.38.13.35.13.33.13.3.13.28.13.26.14.24.14.21.14-.37 1.37-.36.17-.39.17-.4.18-.41.17-.44.17-.45.17-.48.18-.49.17-.51.17-.54.17-.55.16-.58.17-.6.16-.62.17-.64.16-.67.16-.69.15-.71.16-.74.15-.77.15-.79.14-.83.15-.85.13-.88.13-.9.12-.94.12-.96.11-.99.1-1.01.1-1.04.08-1.07.08-1.08.07-1.11.06-1.13.04-1.14.04-1.16.03-1.18.02H-.5l-1.2-.01-1.21-.03-1.22-.04-1.21-.04-1.2-.06-1.21-.07-1.19-.08-1.18-.09-1.17-.1-1.15-.11-1.13-.11-1.11-.13-1.08-.14-1.06-.14-1.02-.15-.99-.16-.95-.16-.92-.17-.87-.18-.83-.18-.79-.18-.74-.19-.69-.19-.65-.19-.6-.19-.67-.16-.64-.16-.62-.16-.59-.16-.57-.15-.54-.16-.51-.16-.49-.16-.46-.16-.43-.15-.41-.15-.38-.15-.36-.15-.33-.15-.31-.14" filter="url(#a)" transform="translate(40.15 -22.44)"/><path fill="#fff" d="m34.62-3.21-.23-.11-.27-.12-.29-.11-.33-.11-.35-.11-.39-.11-.42-.11-.45-.1-.48-.1-.52-.1-.55-.1-.59-.09-.62-.09-.65-.08-.68-.08-.55-.12-.61-.12-.68-.11-.73-.1-.8-.09-.87-.09-.91-.07-.98-.07-1.02-.07-1.08-.05-1.11-.04-1.17-.04-1.2-.03-1.23-.03-1.27-.01-1.29-.01h-1.31l-1.33.01-1.35.01-1.36.02-1.37.03-1.37.03-1.36.04-1.37.04-1.36.05-1.34.06-1.33.06-1.32.06-1.29.07-1.27.07-1.25.08-1.22.08-1.19.08-1.16.08-1.13.09-1.09.09-1.06.09-1.02.1-.99.09-.95.1-.91.1-.88.1-.84.1-.8.1-.76.1-.74.1-.7.11-.66.1-.64.11-.61.1-.58.1-.55.11-.53.1-.5.11-.47.11-.44.1-.42.11-.4.11-.37.11-.35.1-.32.11-.31.11-.28.11-.26.11.58 1.86.34.16.36.16.37.16.39.16.41.16.43.17.45.16.46.17.49.16.51.17.54.16.55.17.58.16.6.17.62.16.65.17.67.16.7.16.73.17.75.16.78.16.82.16.84.16.87.15.9.15.93.15.96.14.99.13 1.01.14 1.04.12 1.07.12 1.1.11 1.11.11 1.14.09 1.16.09 1.17.08 1.19.07 1.21.06 1.22.06 1.22.04 1.23.03 1.24.02 1.23.01 1.24-.01 1.23-.01 1.22-.03 1.21-.04 1.2-.05 1.18-.06 1.16-.08 1.14-.08 1.11-.1 1.09-.11 1.05-.13 1.02-.13.98-.15.94-.16.9-.17.85-.18.81-.19.77-.19.71-.21.67-.22.61-.22.69-.16.67-.16.63-.17.61-.17.59-.17.55-.18.53-.18.51-.18.47-.18.45-.18.42-.18.4-.19.37-.18.34-.17.32-.18" filter="url(#a)" transform="translate(-42.79 -22.97)"/><g fill="none" stroke="#000" transform="translate(40.15 -22.44)"><path stroke-linejoin="round" stroke-width="1.667" d="m-35.52-2.56.07-.06.08-.06.08-.06.1-.07.12-.06.13-.07.14-.07.17-.07.2-.06.22-.07.24-.07.27-.07.3-.07.34-.07.36-.07.39-.07.43-.06.46-.07.49-.06.53-.07.56-.06.59-.06.63-.06.66-.05.69-.06.55-.08.62-.07.69-.07.75-.06.81-.07.86-.06.93-.05.98-.05 1.03-.05 1.08-.04 1.13-.04 1.17-.04 1.2-.03 1.24-.02 1.27-.02 1.29-.02 1.32-.01 1.33-.01h2.71l1.37.01 1.36.01 1.37.01 1.36.02 1.35.03 1.34.03 1.32.03 1.31.04 1.29.04 1.26.04 1.23.05 1.21.06 1.18.05 1.14.07 1.11.06 1.08.07 1.04.07 1 .08.97.07.92.09.89.08.85.09.81.09.78.09.73.1.71.1.67.1.63.1.61.11.57.1.55.11.52.12.49.11.46.12.43.12.4.12.38.13.35.13.33.13.3.13.28.13.26.14.24.14.21.14.2.15.17.15.16.14.14.15.12.16.11.15.09.16.07.16.06.16.05.16" filter="url(#a)"/><path stroke-linejoin="round" stroke-width="2.222" d="m-35.19-1.61.13.08.14.08.16.1.17.1.18.11.21.11.22.12.24.13.27.13.29.13.31.14.33.15.36.15.38.15.41.15.43.15.46.16.49.16.51.16.54.16.57.15.59.16.62.16.64.16.67.16.6.19.65.19.69.19.74.19.79.18.83.18.87.18.92.17.95.16.99.16 1.02.15 1.06.14 1.08.14 1.11.13 1.13.11 1.15.11 1.17.1 1.18.09 1.19.08 1.21.07 1.2.06 1.21.04 1.22.04 1.21.03 1.2.01h2.38l1.18-.02 1.16-.03 1.14-.04 1.13-.04L7.6 4.7l1.08-.07 1.07-.08 1.04-.08 1.01-.1.99-.1.96-.11.94-.12.9-.12.88-.13.85-.13.83-.15.79-.14.77-.15.74-.15.71-.16.69-.15.67-.16.64-.16.62-.17.6-.16.58-.17.55-.16.54-.17.51-.17.49-.17.48-.18.45-.17.44-.17.41-.17.4-.18.39-.17.36-.17.35-.17.34-.17.32-.17.3-.17.29-.17.28-.16.27-.16.25-.17.24-.16.23-.16" filter="url(#a)"/><circle cx="-13.226" cy=".324" r="4.25" clip-path="url(#b)" filter="url(#a)"/><circle cx="-11.176" cy=".624" r="4.95" clip-path="url(#b)" filter="url(#a)"/><circle cx="-12.326" cy=".119" r="4.492" clip-path="url(#b)" filter="url(#a)"/><circle cx="-12.171" cy="2.349" r="3.594" clip-path="url(#b)" filter="url(#a)"/><circle cx="-12.521" cy=".394" r="4.064" clip-path="url(#b)" filter="url(#a)"/><circle cx="-15.191" cy=".489" r="3.302" clip-path="url(#b)" filter="url(#a)"/><circle cx="-11.356" cy="-.316" r="4.336" clip-path="url(#b)" filter="url(#a)"/><circle cx="-10.956" cy=".874" r="3.47" clip-path="url(#b)" filter="url(#a)"/><circle cx="-12.776" cy="1.759" r="3.824" clip-path="url(#b)" filter="url(#a)"/><circle cx="-11.521" cy="-.106" r="3.642" clip-path="url(#b)" filter="url(#a)"/></g><g fill="none" stroke="#000" transform="translate(-42.79 -22.97)"><path stroke-linejoin="round" stroke-width="2.222" d="m35.87-2.14-.07-.09-.07-.1-.08-.1-.1-.11-.1-.11-.13-.11-.14-.11-.16-.11-.19-.12-.21-.11-.23-.11-.27-.12-.29-.11-.33-.11-.35-.11-.39-.11-.42-.11-.45-.1-.48-.1-.52-.1-.55-.1-.59-.09-.62-.09-.65-.08-.68-.08-.55-.12-.61-.12-.68-.11-.73-.1-.8-.09-.87-.09-.91-.07-.98-.07-1.02-.07-1.08-.05-1.11-.04-1.17-.04-1.2-.03-1.23-.03-1.27-.01-1.29-.01h-1.31l-1.33.01-1.35.01-1.36.02-1.37.03-1.37.03-1.36.04-1.37.04-1.36.05-1.34.06-1.33.06-1.32.06-1.29.07-1.27.07-1.25.08-1.22.08-1.19.08-1.16.08-1.13.09-1.09.09-1.06.09-1.02.1-.99.09-.95.1-.91.1-.88.1-.84.1-.8.1-.76.1-.74.1-.7.11-.66.1-.64.11-.61.1-.58.1-.55.11-.53.1-.5.11-.47.11-.44.1-.42.11-.4.11-.37.11-.35.1-.32.11-.31.11-.28.11-.26.11-.25.11-.22.11-.21.11-.2.11-.17.11-.16.11-.15.11-.13.12-.12.11-.1.11" filter="url(#a)"/><path stroke-linejoin="round" stroke-width="2.222" d="m35.53-.95-.14.1-.15.12-.16.13-.18.14-.19.14-.21.15-.23.16-.26.17-.27.17-.3.17-.32.18-.34.17-.37.18-.4.19-.42.18-.45.18-.47.18-.51.18-.53.18-.55.18-.59.17-.61.17-.63.17-.67.16-.69.16-.61.22-.67.22-.71.21-.77.19-.81.19-.85.18-.9.17-.94.16-.98.15-1.02.13-1.05.13-1.09.11-1.11.1-1.14.08-1.16.08-1.18.06-1.2.05-1.21.04-1.22.03-1.23.01-1.24.01-1.23-.01-1.24-.02-1.23-.03-1.22-.04-1.22-.06-1.21-.06-1.19-.07-1.17-.08-1.16-.09-1.14-.09-1.11-.11-1.1-.11-1.07-.12-1.04-.12-1.01-.14-.99-.13-.96-.14-.93-.15-.9-.15-.87-.15-.84-.16-.82-.16-.78-.16-.75-.16-.73-.17-.7-.16-.67-.16-.65-.17-.62-.16-.6-.17-.58-.16-.55-.17-.54-.16-.51-.17-.49-.16-.46-.17-.45-.16-.43-.17-.41-.16-.39-.16-.37-.16-.36-.16-.34-.16-.32-.16-.3-.15-.29-.16-.28-.15-.26-.15-.25-.15-.23-.14-.22-.15-.21-.14-.2-.15" filter="url(#a)"/><circle cx="-11.163" cy="-2.431" r="4.348" clip-path="url(#c)" filter="url(#a)"/><circle cx="-8.298" cy="-2.476" r="4.72" clip-path="url(#c)" filter="url(#a)"/><circle cx="-13.098" cy="-3.136" r="3.058" clip-path="url(#c)" filter="url(#a)"/><circle cx="-12.748" cy="-1.371" r="3.072" clip-path="url(#c)" filter="url(#a)"/><circle cx="-12.273" cy="-3.976" r="4.032" clip-path="url(#c)" filter="url(#a)"/><circle cx="-11.948" cy="-2.586" r="3.646" clip-path="url(#c)" filter="url(#a)"/><circle cx="-10.418" cy="-2.316" r="4.636" clip-path="url(#c)" filter="url(#a)"/><circle cx="-10.288" cy="-.821" r="3.856" clip-path="url(#c)" filter="url(#a)"/><circle cx="-10.238" cy="-.136" r="4.092" clip-path="url(#c)" filter="url(#a)"/><circle cx="-11.813" cy="-4.411" r="3.744" clip-path="url(#c)" filter="url(#a)"/></g><g fill="none" stroke="#138628" stroke-linejoin="round" stroke-width="2"><path d="m-23.11-104.91.44.37 1.07.6 1.33.7 1.46.48 1.58.39 1.7.7 1.74 1.22 1.66 1.55 1.47 1.44 1.23 1.05 1.08.82 1.06 1.09 1.15 1.78 1.27 2.32 1.42 2.12 1.58 1.12 1.39.25" filter="url(#a)"/><path d="m10.86-109.34-1.1 3.38-1.19 2.08-1.28 1.31-1.27.55-1.19.08-1.13.13-1.13.69-1.18 1.47-1.25 2.06-1.33 2.33-1.37 2.37-1.32 2.31-1.18 2.02-1.12 1.33-1.96.6-30.53 7.49.71-.01 1.05-.32 1.28-.55 1.18-.57 1.01-.53.91-.46.9-.37.99-.29 1.11-.25 1.22-.22 1.31-.21 1.35-.2 1.35-.18 1.29-.18 1.18-.2 1.05-.24.91-.28.83-.33.79-.35.81-.36.9-.27 1.11.01 1.37.11-1.51.33-.88.66-.67 1.05-.57 1.17-.61.93-.71.54-.84.32-.93.34-1.01.5-1.09.64-1.14.69-1.15.68-1.07.7-.95.77-.79.84-.67.82-.54.74-.41.78-.34.99-.79 1.32 14.02-14.13-.68.53-.69.6-.69.49-.72.55-.77.68-.86.77-.99.77-1.1.73-1.16.68-1.17.59-1.15.49-1.08.4-.98.38-.84.45-.73.58-.69.76-.74.93-.86 1.07-.89 1.1-.64.97-.14 1.02 38.07-48.16-1.42 2.17-1.38 2.74-1.48 3.31-1.6 2.71-1.61 1.56-1.52.62-1.35.35-1.15.77-.96 1.53-.84 2.28-.82 2.73-.9 2.84-1.04 2.62-1.19 2.13-1.26 1.44-1.23.84-1.07.71-.85 1.22-.93 1.28" filter="url(#a)"/><path d="m-23.04-82.37-1.36.16-1.74-.55-1.79-.88-1.54-.54-1.25-.07-1.08.12-1.05.03-1.16-.21-1.39-.5-1.69-.82-1.99-1.15-2.16-1.41-2.15-1.54-2.02-1.51-1.94-1.57-2-2.01-2.64-3 2.37 12.25 2.41-.97 1.83.28 1.33.18 1.23.13 1.36.27 1.56.47 1.71.6 1.7.59 1.52.46 1.27.21 1.03-.09.9-.4.89-.61 1.02-.57 1.3-.18 1.8.82 2.58 2.35-7.41 3.7-.01.16.58-.02.79-.15.9-.22 1.06-.18 1.22-.03 1.35.05 1.4.03 1.36-.1 1.25-.21 1.13-.15 1.02.08.95.4.89.67.5.76m-30.93 25.12.83-1.46.08-1.18-.07-1.24.15-1.28.35-1.34.38-1.4.34-1.47.29-1.49.33-1.46.47-1.36.63-1.21.74-1.04.8-.87.81-.73.85-.71.99-.93 1.09-1.39.97-1.44-15.73 11.81.4-.1.6-.13.82-.57.94-.83.97-.85.96-.77.95-.69.96-.67.97-.72.98-.78.94-.81.86-.8.82-.73.88-.69 1.09-.76 1.35-.95 1.24-.96-3.35 2.64-.74.53-.54.56-.67.73-.84.86-.93.88-.93.87-.89.84-.85.84-.83.86-.82.9-.8.9-.78.87-.72.84-.7.85-.73.95-.81 1.08-.88 1.18-.86 1.15-.71.98-.66 1.01" filter="url(#a)"/><path d="m-50.79-42.34-.06-.86-.41-1.46-.46-1.61-.32-1.54-.1-1.38.16-1.25.38-1.16.58-1.09.74-.97.82-.85.81-.77.72-.83.56-.99.42-1.21.36-1.33.39-1.33.44-1.26.4-1.31.29-1.58.3-1.83.65-1.66 1.09-1.31m-6.95 6.77.99-1.2.62-.97.68-.8.83-.77.9-.85.9-.93.85-.95.8-.93.81-.88.85-.87.89-.88.89-.88.84-.86.74-.82.66-.76.65-.71.82-.82 1.64-1.47" filter="url(#a)"/><path d="m-51.93-61.2-1.41.29-2.51-.18-2.42-.1-1.58.51-.68 1.15-.18 1.47-.12 1.43-.41 1.17-.85.81-1.32.44-1.71.19-1.92.08-1.94.11-1.86.2-1.8.28-1.84.27-1.86.28-1.74.42-1.57.74-2.03.97-3.56.68 52.82-12.22-.15.12-1.02.13-1.24.18-1.17.16-1.08.16-1.08.18-1.16.14-1.26.09-1.29.07-1.21.17-1.01.42-.77.75-.59 1.02-.54 1.09-.68.88-.97.5-1.3.11-1.53-.04-1.56.14-1.39.53-1.18.76-1.23.46-1.31.39-.5.36-.37-1.52-.43-1.88.06-1.7.58-1.44.85-1.21.82-1.16.56-1.31.3-1.53.16-1.72.19-1.76.32-1.68.5-1.49.69-1.27.85-1.08.97-.98 1-1 .9-1.18.67-1.46.39-1.82.24-2.15.41-2.38.87-2.44.77-2.55" filter="url(#a)"/><path d="m-62.73-42.8.52.94-.32.99-.69 1.1-.74 1.2-.61 1.28-.41 1.34-.22 1.37-.11 1.36-.11 1.34-.17 1.32-.2 1.31-.2 1.34-.14 1.36-.05 1.37.05 1.34.13 1.3.24 1.24.27 1.18.22 1.14.1 1.15.12 1.19.63 1.1-.74-22.51-.27-1.06.5-1.29.38-1.39.05-1.48-.22-1.58-.35-1.68-.42-1.77-.46-1.86-.45-1.92-.36-1.9-.19-1.79.03-1.6.29-1.35.5-1.16.59-1.08.54-1.2.32-1.54.01-2.09-.15-2.58.12-2.64.84-1.97 1.08-1.01-3.39 37.9.28-1.68.07-1.53.11-1.56.29-1.4.36-1.26.27-1.27.08-1.37-.03-1.48-.06-1.53.01-1.52.13-1.46.28-1.36.44-1.19.6-1.02.7-.91.64-.94.47-1.12.3-1.37.33-1.56.6-1.66.88-1.89.66-2.85" filter="url(#a)"/><path d="m-68.36-57.76.74 2.02-.02 1.83.18 1.84.32 1.76.29 1.67.24 1.58.2 1.56.17 1.56.09 1.58-.06 1.58-.19 1.56-.3 1.54-.32 1.53-.05 1.37.52.16m-2.11 6.44.21-2.82.27-1.55.29-1.25.04-1.41-.29-1.72-.59-2.01-.76-2.19-.75-2.2-.55-2.04-.21-1.75.18-1.45.48-1.22.62-1.13.58-1.18.42-1.35.2-1.55-.01-1.75-.21-1.9-.36-2.01-.42-2.05-.42-2.03-.27-1.85.06-1.35.19-.4M68.89-28.23l-.22-.77-.03-.82.16-1.19.48-1.62.83-1.95.96-2.08.75-1.95.3-1.69-.19-1.41-.52-1.23-.63-1.19-.53-1.27-.36-1.37-.23-1.44-.18-1.49-.12-1.56.06-1.73.39-1.96.74-2.22.8-2.43.13-2.72m-9.09 12.94.9 1.18.53 1.23.37 1.26.29 1.24.32 1.21.42 1.19.48 1.16.51 1.13.46 1.14.39 1.18.29 1.27.22 1.38.18 1.46.22 1.48.3 1.41.3 1.24m-1.37-3.9-.65-1.55-.47-1.23-.45-1.13-.45-1.1-.5-1.1-.53-1.1-.54-1.1-.55-1.07-.56-1.06-.57-1.03-.59-1.02-.6-1.01-.61-1.01-.61-1.02-.61-1.05-.61-1.08-.62-1.07-.65-1.06-.78-1.12-1.04-1.33" filter="url(#a)"/><path d="m64.97-39.55.06 2.27-.21 1.71-.15 1.54-.01 1.47.13 1.35.23 1.2.27 1.07.29.99.26 1.04.2 1.17.09 1.3-.01 1.39-.11 1.37-.2 1.34-.36 1.42-.59 1.76-.53 2.44-5.43-52.21-.41 1.04.3 1.46.44 1.57.55 1.48.66 1.3.71 1.16.67 1.16.56 1.23.43 1.35.27 1.47.09 1.57-.05 1.63-.09 1.65-.02 1.56.15 1.41.31 1.25.38 1.14.41 1.22.51 1.57.54 2.04-11.3-19.56.49.68.7 1.14.56 1.17.47 1.16.38 1.22.27 1.32.15 1.42.09 1.48.1 1.41.21 1.29.34 1.14.41 1.1.35 1.14.11 1.26-.33 1.18-.74.51" filter="url(#a)"/><path d="m44.1-69.55 2.97-.22.99 1.04 1.23.17 1.86-.76 2.04-.93 1.68-.38 1.07.49.56 1.24.36 1.59.54 1.5.94 1.12 1.37.68 1.67.36 1.77.23 1.73.27 1.63.36 1.58.45 1.65.45 1.87.38 2.19.16 2.37-.19 1.4.14-52.76-7.04 1.39-1.91.92-1.02.97-.43 1.13-.17 1.13-.11.96-.03.77.1.73.21.92.2 1.21.07 1.43-.02 1.4.06 1.18.25 1.09.16 1.63-.32m-1.09-1.05L39.13-74l-1.1-1.36-.88-1.54-.44-1.89-.09-2.11-.04-2.07-.24-1.83-.49-1.52-.71-1.18-.82-.91-.85-.78-.84-.91-.79-1.28-.76-1.75-.71-2.12-.68-2.24-.65-2.07-.76-1.6-1.03-.95-1.22-.41-.37-.29" filter="url(#a)"/><path d="m38.32-74.16-2.11-1.13-1.33-.34-.93.21-.86.43-.97.35-1.06.13h-1.07l-.99-.03-.93.05-.94.18-1.07.37-1.28.57-1.46.71-1.41.75-1.02.74-.52.35 13.83-5.87 1.62.85 1.72.5 1.56.2 1.3.24 1.05.42.96.54 1.05.52 1.26.42 1.48.27 1.66.13 1.77-.05 1.86-.28 1.95-.51 1.98-.65 1.92-.57 1.75-.28 1.49.14 1.34.5 1.44.59 1.96.18 3.37-.53" filter="url(#a)"/><path d="m34.73-76.26.25-1.62.87-.49 1.16.38 1.35.57 1.46.32 1.51-.01 1.48-.19 1.38-.12 1.24.17 1.16.54 1.21.78 1.39.74 1.63.39 1.82-.09 1.87-.48 1.82-.61 1.78-.25 2.01 1.77L40.1-55.95l-.62-1.9-.82-1.78-.71-1.5-.44-1.5-.25-1.56-.23-1.52-.39-1.35-.61-1.12-.8-.91-.89-.78-.84-.72-.72-.73-.61-.76-.55-.84-.57-.98-.58-1.18-.51-1.39-.37-1.44-.33-1.21-.55-.83-.98-.76-.39-.13.66.19.86.16.94-.17 1.08-.51 1.2-.53 1.21-.25 1.1.05 1.01.16 1.05.04 1.22-.22 1.52-.52 1.83-.8 2.08-.99 2.15-1.06 2.06-.98 1.9-.82 1.83-.74 1.9-.7 1.98-.33 2.19.49 3.51.37m-37.27 5.4-.02 1.61-.85 1.26-.97-.09-.98-.87-1.03-.92-1.11-.61-1.16-.2-1.18.1-1.18.29-1.17.32-1.19.23-1.19.06-1.14-.09-1.06-.16-.93-.04-.85.21-.9.44-1.19.52-2.11.3 17.08-3.4-.96 1.71-1.46 1.03-1.35.8-1.13.18-.99-.34-.96-.51-1.05-.25-1.17.26-1.22.82-1.17 1.26-1.04 1.56-.93 1.7-.93 1.52-1.11.74-1.87-.32" filter="url(#a)"/><path d="m9.51-86.39 1.22.35 1.5.46 1.24.5 1.05.53 1 .62 1.01.7 1.04.74 1.08.71 1.06.71.99.78.88.91.78 1.03.74 1.1.78 1.09.84 1.03.85.97.73.93.45.93.15.89.14.35-44.04-32.2 1.62-.55 1.95.48 1.67 1.31 1.37 1.7 1.19 1.57 1.11 1.15 1.14.82 1.2.76 1.29.94 1.36 1.19 1.38 1.26 1.35 1.04 1.26.58 1.17.1L3.14-91l1.01.26.99.99 1.02 1.52 1 1.19.91.35" filter="url(#a)"/><path d="m25.76-91.12.27.73-.51-.06-1.05-.04-1.4.35-1.54.58-1.51.52-1.4.33-1.31.22-1.24.24-1.24.29-1.26.22h-1.29l-1.27-.35-1.14-.55-.96-.22-.91.83-.98 1.22-.22.24.84-4.45 1.12-4.57 1.03-1.83 1.09-.3 1.23.28 1.34.41 1.36.28 1.38-.03 1.38-.34 1.43-.54 1.53-.68 1.72-.98 1.99-1.62 2.31-2.53 2.48-3.11 2.19-2.45 1.59-1.5M3.41-87l.17-.69-.66-1.5-.95-1.36-1.07-.57-1.2.09-1.31.26-1.36.02-1.34-.35-1.27-.68-1.15-.82-1.02-.76-.9-.59-.81-.5-.86-.76-.81-1.23" filter="url(#a)"/><path d="m31.7-92.26-1.58.18-1.63-.18-1.29.07-1.2.16-1.24.04-1.29-.16-1.33-.31-1.34-.28-1.35-.07-1.36.27-1.4.59-1.41.73-1.4.59-1.34.23-1.25-.2-1.13-.58-1.04-.72-.99-.65-1-.39-1.06-.02-1.09.47-1.07 1.32-1.09 2.38-1.21 1.81-.94-.11-1.21-.49-1.37-.59-1.39-.54-1.31-.6-1.21-.82-1.16-1.16-1.15-1.44-1.18-1.47-1.27-1.28-1.4-1.05-1.56-1-1.7-1.19-1.79-1.58-1.8-1.94-1.74-2.06-1.57-1.79-1.37-1.19-1.15-.4-.99.29-1 .5h-1.31l-1.79.51" filter="url(#a)"/><path d="m29.14-103.06-.33 2.96-.88.97-1.28.28-1.57.46-1.72.85-1.74 1.09-1.68 1.1-1.56.92-1.46.67-1.39.41-1.35.23-1.33.19-1.3.24-1.23.36-1.16.54-1.09.74-1.09.97-1.12 1.04-1.1.82-1.02.46-.99.34-1.14.44" filter="url(#a)"/></g><g fill="none" stroke="#000"><circle cx="8.076" cy="21.198" r="1.678" filter="url(#a)"/><circle cx="9.812" cy="20.71" r="1.946" filter="url(#a)"/><circle cx="8.236" cy="20.37" r="2.292" filter="url(#a)"/><circle cx="8.66" cy="21.546" r="1.976" filter="url(#a)"/><circle cx="8.46" cy="19.01" r="1.474" filter="url(#a)"/><circle cx="9.304" cy="20.758" r="2.17" filter="url(#a)"/><circle cx="11.588" cy="21.074" r="1.796" filter="url(#a)"/><circle cx="10.348" cy="21.81" r="2.186" filter="url(#a)"/><circle cx="8.992" cy="22.67" r="1.18" filter="url(#a)"/><circle cx="8.888" cy="19.454" r="2.76" filter="url(#a)"/><circle cx="-9.956" cy="20.942" r="1.39" filter="url(#a)"/><circle cx="-10.368" cy="23.61" r="1.966" filter="url(#a)"/><circle cx="-11.172" cy="23.142" r="2.164" filter="url(#a)"/><circle cx="-9.344" cy="23.158" r="2.798" filter="url(#a)"/><circle cx="-10.636" cy="23.794" r="2.336" filter="url(#a)"/><circle cx="-11.044" cy="22.01" r="1.274" filter="url(#a)"/><circle cx="-10.86" cy="22.026" r="1.6" filter="url(#a)"/><circle cx="-9.972" cy="21.81" r="1.15" filter="url(#a)"/><circle cx="-10.548" cy="21.858" r="2.434" filter="url(#a)"/><circle cx="-11.916" cy="23.586" r="1.174" filter="url(#a)"/></g><path fill="#CC7866" stroke="#000" stroke-linejoin="round" stroke-width="3" d="m-17.05 35.11.43.53.43.54.44.55.44.54.45.56.45.55.46.56.46.56.46.56.46.56.47.57.47.56.48.56.48.56.48.56.48.56.48.56.49.55.48.55.49.55.49.54.49.54.5.53.49.52.49.52.5.51.49.5.5.5.49.48.49.48.5.47.49.45.49.45.49.43.49.43.49.41.48.39.49.39.48.37.48.35.48.34.48.33.47.31.47.29.46.28.47.26.46.24.45.22.46.2.45.18.44.17.44.14.44.12.43.1.42.08.42.05.42.03.41.01.4-.02.4-.04.4-.07.38-.09.38-.12.38-.15.36-.17.36-.2.36-.23.34-.26.34-.29.33-.32.32-.35.32-.38.3-.41.3-.45.29-.48.28-.51.27-.54.27-.58.25-.61.24-.65.24-.68.22-.72.22-.76.2-.79.19-.83.19-.87.17-.91.16-.95.15-.99.14-1.03.13-1.07.11-1.11.11-1.15.09-1.2.08-1.23.07-1.29.05-1.32.05-1.37.02-1.42.02-1.46-.02 1.46-.02 1.42-.05 1.37-.05 1.32-.07 1.29-.08 1.23-.09 1.2-.11 1.15-.11 1.11-.13 1.07-.14 1.03-.15.99-.16.95-.17.91-.19.87-.19.83-.2.79-.22.76-.22.72-.24.68-.24.65-.25.61-.27.58-.27.54-.28.51-.29.48-.3.45-.3.41-.32.38-.32.35-.33.32-.34.29-.34.26-.36.23-.36.2-.36.17-.38.15-.38.12-.38.09-.4.07-.4.04-.4.02-.41-.01-.42-.03-.42-.05-.42-.08-.43-.1-.44-.12-.44-.14-.44-.17-.45-.18-.46-.2-.45-.22-.46-.24-.47-.26-.46-.28-.47-.29-.47-.31-.48-.33-.48-.34-.48-.35-.48-.37-.49-.39-.48-.39-.49-.41-.49-.43-.49-.43-.49-.45-.49-.45-.5-.47-.49-.48-.49-.48-.5-.5-.49-.5-.5-.51-.49-.52-.49-.52-.5-.53-.49-.54-.49-.54-.49-.55-.48-.55-.49-.55-.48-.56-.48-.56-.48-.56-.48-.56-.48-.56-.47-.56-.47-.57-.46-.56-.46-.56-.46-.56-.46-.56-.45-.55-.45-.56-.44-.54-.44-.55-.43-.54" filter="url(#a)"/></svg>