<svg xmlns="http://www.w3.org/2000/svg" width="500" height="500" viewBox="-100 -100 200 200"><defs><clipPath id="c"><path d="m31.45 11.83-.12-.42-.15-.44-.18-.45-.2-.47-.23-.48-.26-.49-.29-.49-.32-.51-.35-.52-.38-.52-.4-.52-.44-.53-.47-.53-.49-.53-.52-.53-.45-.63-.49-.63-.54-.63-.59-.64-.64-.62-.69-.63-.73-.61-.78-.6-.82-.59-.86-.57-.91-.55-.94-.53-.98-.51-1.01-.49-1.05-.46-1.08-.43-1.11-.4-1.13-.37-1.15-.34-1.18-.3-1.2-.27-1.21-.24-1.22-.2-1.24-.17-1.25-.13-1.25-.09-1.26-.06-1.26-.02-1.25.02-1.26.05-1.25.08-1.24.12-1.24.15-1.23.18-1.21.22-1.2.24-1.18.27-1.17.3-1.14.32-1.13.34-1.11.37-1.09.38-1.06.4-1.04.42-1.02.42-.99.44-.97.45-.95.46-.92.45-.9.46-.87.47-.86.47-.83.47-.81.48-.79.48-.77.49-.75.48-.73.49-.71.48-.68.48-.66.48-.65.48-.62.47-.6.46 1.47 1.58.44-.07.46-.08.47-.08.49-.08.52-.09.53-.09.55-.09.57-.1.59-.09.61-.1.62-.1.65-.09.66-.09.68-.09.7-.08.72-.09.74-.08.76-.08.79-.08.8-.06.82-.06.84-.05.86-.04.87-.03.89-.01h.91l.92.02.94.03.95.05.97.06.97.09.99.1.99.12 1.01.13 1.01.16 1.01.17 1.02.19 1.03.2 1.03.23 1.03.23 1.03.26 1.03.26 1.02.28 1.03.29 1.02.31 1.01.31 1.01.31 1 .33.99.33.98.33.97.33.95.33.95.32.93.33.91.31.9.31.88.29.87.29.84.26.83.26.81.23.79.22.76.19.75.18.69.2.67.19.65.18.64.17.63.16.61.14.59.13.57.11.56.11.54.08.51.07.5.06.48.04.46.02.43.01"/></clipPath><clipPath id="b"><path d="m-37.29 16.47.19-.52.22-.54.25-.56.28-.59.31-.6.33-.62.37-.63.4-.65.43-.66.46-.67.5-.69.52-.69.56-.69.58-.71.62-.7.52-.8.58-.8.63-.82.69-.83.74-.83.79-.83.84-.83.9-.82.94-.82.98-.8 1.03-.78 1.08-.76 1.1-.74 1.15-.72 1.17-.68 1.21-.65 1.23-.62 1.26-.58 1.28-.54 1.29-.49 1.31-.46 1.32-.4 1.33-.37 1.34-.31 1.34-.27 1.34-.21 1.33-.17 1.33-.12 1.33-.07 1.31-.01 1.3.03 1.29.08 1.27.12 1.25.18 1.23.21 1.21.26 1.19.31 1.16.34 1.14.38 1.11.41 1.09.44 1.05.48 1.03.5 1 .53.97.55.95.56.92.58.88.59.87.6.83.6.82.61.79.63.76.63.74.64.72.65.69.65.68.65.64.66.63.66.61.65.58.66.56.65.54.64.53.64.82 3.26-.31-.07-.34-.09-.35-.09-.37-.1-.39-.1-.41-.11-.43-.11-.45-.11-.46-.12-.49-.11-.51-.12-.52-.11-.55-.11-.57-.11-.59-.1-.61-.11-.64-.1-.66-.1-.68-.09-.71-.08-.73-.07-.76-.06-.78-.05-.81-.03-.84-.01h-.86l-.88.02-.91.05-.94.06-.96.09-.98.1-1 .13-1.02.16-1.05.17-1.06.2-1.09.23-1.1.24-1.11.27-1.13.29-1.14.31-1.15.32-1.16.35-1.17.36-1.18.38-1.18.39-1.18.41-1.18.41-1.18.42-1.18.43-1.17.43-1.16.44-1.15.43-1.15.43-1.13.43-1.11.42-1.1.41-1.07.39-1.06.38-1.03.37-1.01.34-.98.32-.96.31-.93.27-.9.25-.84.29-.82.28-.81.27-.79.25-.77.24-.75.23-.73.21-.7.2-.68.18-.66.17-.64.15-.61.13-.58.12-.56.1-.53.09"/></clipPath><filter id="a"><feTurbulence baseFrequency=".05" numOctaves="3" result="noise" type="noise"/><feDisplacementMap in="SourceGraphic" in2="noise" scale="2"/></filter></defs><rect width="100%" height="100%" x="-100" y="-100" fill="#A6DAF2"/><path fill="#DF5D20" stroke="#000" stroke-linejoin="round" stroke-width="1.667" d="m82.98 1.76-.37 1.38.25.21-.03-.08.07.42-.13 1.18-.35 4.64-.01-.58-.05 2.27-.6 2.68-.18 1.6.33-1.39-.36 2.96-.16.83-.73 1.97-.06.61-.01.33-.59 2.48-.19-.11-1.18 4.56.03-.06-.3 2.07-.37 1.16-.86 1.92-.53 2.03.56-1.99-1.33 3.37-.45.82-.96 2.02.39-.11-1.82 3.17-.42.68-.18.34-.08.89-1.14 1.77-.74 1.33-.76 1.43.25-.43-1.16 1.88-2.21 3.69.93-1.71-1.01 1.86-1.5 1.95-.69.92.42-.5-1.81 2.06-1.45 2.08-.01.32-.3.3-2.1 2.16-.55.48-1.37 1.71-.2-.28-.6.81-.79 1.17-2.03 1.46-1.51 1.4-1.42 1.28.62-.46-.89.75-.99 1.24-.48-.18-1.72 1.29-2.93 2.13-.51.65-.64.51-.26-.09-2.63 1.64-.1.35-1.95.71 1.12-.48-3.77 2.08-.42.36-1.08.12.41.17-3.74 1.49-.68.17-1.64 1.17-.88-.15-.64.64.07-.1-2.74.84-1.55.29-.96.49-.85.21-1.33.62-1.61.22-2.11.66-.24-.02-1.49.29-1.62.02-1.59.47-1.2.07.82-.19-1.84.53.03-.37-3.29.39-.02-.05-4.83.2 1.19.24-2.28-.22-.8.09-1.15.01-2.98-.22-.4-.17-1.22-.15-2.26-.17.02.14.06-.01-.54-.17-4.41-.76.26.29-2.44-.54 1.26.07-3.31-.48-1.17-.56-1.42-.46-1.64-.39.01-.07-2.82-.96-.41-.11-1.87-.45-1-.56-.5-.1-2.8-1.37 1.28.63-2.69-.99-1.39-.61-1.38-.9.02-.24-2.84-1.43 1.7 1.06-1.4-.92-1.18-.91-1.11-.65-2.57-1.77.08.42.16-.19-3.01-1.7-1.47-1.29-.56-.44-1.69-1.07 1.45.95-3.17-3.01-.04.33-1.85-1.68-2.02-1.88-.36-.5-.98-1.05.33.32-1.18-1.12-2.08-2.33-.02.3-.92-1.66-.66-.49-.72-1.35-1.26-1.44.11.22-1.85-2.17-.07-.39-.66-.95-.61-.71-1.8-2.66-1.85-3.45.94 1.72-.16-.78-1.63-1.98-.45-1.66-.89-1.64-.52-.99-1.01-1.08-.14-.86-.79-1.61-.07-.93-1.41-3.32.81 2.76-1.36-3.71-.08-.52-1.16-2.69.5.65-.67-1.39-.65-2.31-.62-1.96.16-.69-.45-.65.07-.46-.58-3.14-.42-1.95-.22-.95.3.71-.98-4.37-.08-.16-.17-.95-.12-1.97-.07-.09-.14-2.1-.15-3.68.18.78-.33-1.58.26.33-.21-5.4v-.2l.03-1.57-.12.66.03-2.58.54-3.97-.18.4.14-1.84.1.1.27-3.1.29-.23.25-1.03v-1.68l.31-.14.87-4.63-.24.5.24-.51.38-2.31.57-2.06.51-1.42.32-1.7-.19.83 1.13-3.06-.08.36.05-.91.56-1.09 1.06-2.49.8-2.16-.07-.52 1.74-3.45.09-.15.69-1.59.32-.85.97-1.54.52-.93.43-.61.32-.88 1.02-1.28.34-1.08.06.16 2.52-3.89-1.12 1.61 2.25-3.19.26-.42 1.76-2.32.73-.89.41-.49 1.89-2.27-.91.91 1.12-.72.06-.69 1.89-1.56 1.38-1.95 2.18-1.84-1.42 1.41.95-.93 1.26-1.27 2.01-2.05.02.25 1.4-1.16 2.04-1.5.69-.47 2.7-2.09.57-.31-2.07 1.24 3.54-2.32 1.45-1.21-.04.4 2.16-1.42.47-.46 1.74-.8.04-.01 1.67-.77.53-.48.18.11 4.07-2.22-.23.34 1.79-.65-.59.06 3.03-1 1.39-.3 1.24-.46.38-.24 1.91-.8 2.62-.88.55.1-.83.28 2.86-.96 2.54-.46.97-.16.91-.2-.58.36 1.83-.32 2.33-.34 2.03.02-.92-.07 1.91.02 2.06-.3-.92-.15 3.45-.11 1.38.39.76-.23.1.07 2.82-.11 1.4.5-.61-.13 3.66.15-.84-.03 4.82.85.99.01-1.11.01 1.45.21.79.01 1.98.48 1.9.27-1.7-.11 2.67.52 1.9.68.72.18.84-.15 2.96 1.55-.11-.09.36-.08 2.63 1.06 1.2.31 2.76 1.25-1.52-.29 3.39 1.29.16.28 1.84.82.9.5 1.2.7.83.35.61.13.58.67 1.1.79 1.58.81 1.94 1.51-.52-.21.76.26 2.02 1.85.21-.23 2.62 2.44 1.54 1.22-.28-.21 3.08 2.93-.27-.15 1.83 1.69-.98-1.19.51.82 2.15 2.01.72.66 1.35 1.7.85 1.04.98.81.06.69 1.34 1.69 1.3 1.53.1.35.58.39 1.73 2.53 1.09 1.96.2.76-.41-1.55 1.66 3.14.92 1.25.95 1.62.36 1.37.02.15 1.74 2.72-.63-.52 1.05 1.76.07.39 1.36 2.73.45 1.08.34.89.42 1.5.12.91.64 1.89.4.48.86 2.63.11.89-.01-.45.99 3.28.32 1.03.39 1.98.1 1.24-.03-.85.17 1.51.07.71.64 3.96.16 2.36.33.91.26 1.13-.16-.4-.12.76.33 3.65-.11-.55.26 2.18-.04 2.52.3 3.1-.37 1.38" filter="url(#a)"/><path fill="#fff" d="m-37.29 16.47.19-.52.22-.54.25-.56.28-.59.31-.6.33-.62.37-.63.4-.65.43-.66.46-.67.5-.69.52-.69.56-.69.58-.71.62-.7.52-.8.58-.8.63-.82.69-.83.74-.83.79-.83.84-.83.9-.82.94-.82.98-.8 1.03-.78 1.08-.76 1.1-.74 1.15-.72 1.17-.68 1.21-.65 1.23-.62 1.26-.58 1.28-.54 1.29-.49 1.31-.46 1.32-.4 1.33-.37 1.34-.31 1.34-.27 1.34-.21 1.33-.17 1.33-.12 1.33-.07 1.31-.01 1.3.03 1.29.08 1.27.12 1.25.18 1.23.21 1.21.26 1.19.31 1.16.34 1.14.38 1.11.41 1.09.44 1.05.48 1.03.5 1 .53.97.55.95.56.92.58.88.59.87.6.83.6.82.61.79.63.76.63.74.64.72.65.69.65.68.65.64.66.63.66.61.65.58.66.56.65.54.64.53.64.82 3.26-.31-.07-.34-.09-.35-.09-.37-.1-.39-.1-.41-.11-.43-.11-.45-.11-.46-.12-.49-.11-.51-.12-.52-.11-.55-.11-.57-.11-.59-.1-.61-.11-.64-.1-.66-.1-.68-.09-.71-.08-.73-.07-.76-.06-.78-.05-.81-.03-.84-.01h-.86l-.88.02-.91.05-.94.06-.96.09-.98.1-1 .13-1.02.16-1.05.17-1.06.2-1.09.23-1.1.24-1.11.27-1.13.29-1.14.31-1.15.32-1.16.35-1.17.36-1.18.38-1.18.39-1.18.41-1.18.41-1.18.42-1.18.43-1.17.43-1.16.44-1.15.43-1.15.43-1.13.43-1.11.42-1.1.41-1.07.39-1.06.38-1.03.37-1.01.34-.98.32-.96.31-.93.27-.9.25-.84.29-.82.28-.81.27-.79.25-.77.24-.75.23-.73.21-.7.2-.68.18-.66.17-.64.15-.61.13-.58.12-.56.1-.53.09" filter="url(#a)" transform="translate(36.72 -27.73)"/><path fill="#fff" d="m31.45 11.83-.12-.42-.15-.44-.18-.45-.2-.47-.23-.48-.26-.49-.29-.49-.32-.51-.35-.52-.38-.52-.4-.52-.44-.53-.47-.53-.49-.53-.52-.53-.45-.63-.49-.63-.54-.63-.59-.64-.64-.62-.69-.63-.73-.61-.78-.6-.82-.59-.86-.57-.91-.55-.94-.53-.98-.51-1.01-.49-1.05-.46-1.08-.43-1.11-.4-1.13-.37-1.15-.34-1.18-.3-1.2-.27-1.21-.24-1.22-.2-1.24-.17-1.25-.13-1.25-.09-1.26-.06-1.26-.02-1.25.02-1.26.05-1.25.08-1.24.12-1.24.15-1.23.18-1.21.22-1.2.24-1.18.27-1.17.3-1.14.32-1.13.34-1.11.37-1.09.38-1.06.4-1.04.42-1.02.42-.99.44-.97.45-.95.46-.92.45-.9.46-.87.47-.86.47-.83.47-.81.48-.79.48-.77.49-.75.48-.73.49-.71.48-.68.48-.66.48-.65.48-.62.47-.6.46 1.47 1.58.44-.07.46-.08.47-.08.49-.08.52-.09.53-.09.55-.09.57-.1.59-.09.61-.1.62-.1.65-.09.66-.09.68-.09.7-.08.72-.09.74-.08.76-.08.79-.08.8-.06.82-.06.84-.05.86-.04.87-.03.89-.01h.91l.92.02.94.03.95.05.97.06.97.09.99.1.99.12 1.01.13 1.01.16 1.01.17 1.02.19 1.03.2 1.03.23 1.03.23 1.03.26 1.03.26 1.02.28 1.03.29 1.02.31 1.01.31 1.01.31 1 .33.99.33.98.33.97.33.95.33.95.32.93.33.91.31.9.31.88.29.87.29.84.26.83.26.81.23.79.22.76.19.75.18.69.2.67.19.65.18.64.17.63.16.61.14.59.13.57.11.56.11.54.08.51.07.5.06.48.04.46.02.43.01" filter="url(#a)" transform="translate(-55.02 -28.01)"/><g fill="none" stroke="#000" transform="translate(36.72 -27.73)"><path stroke-linejoin="round" stroke-width="1.667" d="m-37.93 20.17-.02-.23v-.26l.01-.3.03-.33.05-.36.07-.39.09-.41.11-.45.14-.47.16-.5.19-.52.22-.54.25-.56.28-.59.31-.6.33-.62.37-.63.4-.65.43-.66.46-.67.5-.69.52-.69.56-.69.58-.71.62-.7.52-.8.58-.8.63-.82.69-.83.74-.83.79-.83.84-.83.9-.82.94-.82.98-.8 1.03-.78 1.08-.76 1.1-.74 1.15-.72 1.17-.68 1.21-.65 1.23-.62 1.26-.58 1.28-.54 1.29-.49 1.31-.46 1.32-.4 1.33-.37 1.34-.31 1.34-.27 1.34-.21 1.33-.17 1.33-.12 1.33-.07 1.31-.01 1.3.03 1.29.08 1.27.12 1.25.18 1.23.21 1.21.26 1.19.31 1.16.34 1.14.38 1.11.41 1.09.44 1.05.48 1.03.5 1 .53.97.55.95.56.92.58.88.59.87.6.83.6.82.61.79.63.76.63.74.64.72.65.69.65.68.65.64.66.63.66.61.65.58.66.56.65.54.64.53.64.5.64.48.62.46.62.45.61.42.6.41.58.39.58.38.57.36.55.34.55" filter="url(#a)"/><path stroke-linejoin="round" stroke-width="2.222" d="m-36.56 21.93.23.06.26.05.3.03.33.02.35.01.39-.01.42-.02.44-.04.48-.05.5-.07.53-.09.56-.1.58-.12.61-.13.64-.15.66-.17.68-.18.7-.2.73-.21.75-.23.77-.24.79-.25.81-.27.82-.28.84-.29.9-.25.93-.27.96-.31.98-.32 1.01-.34 1.03-.37 1.06-.38 1.07-.39 1.1-.41 1.11-.42 1.13-.43 1.15-.43 1.15-.43 1.16-.44 1.17-.43 1.18-.43 1.18-.42 1.18-.41 1.18-.41 1.18-.39 1.18-.38 1.17-.36 1.16-.35 1.15-.32 1.14-.31 1.13-.29 1.11-.27 1.1-.24 1.09-.23 1.06-.2 1.05-.17 1.02-.16 1-.13.98-.1.96-.09.94-.06.91-.05.88-.02h.86l.84.01.81.03.78.05.76.06.73.07.71.08.68.09.66.1.64.1.61.11.59.1.57.11.55.11.52.11.51.12.49.11.46.12.45.11.43.11.41.11.39.1.37.1.35.09.34.09.31.07.3.07.29.07.26.05.25.04.24.03.22.03.21.01h.19l.17-.01.17-.02" filter="url(#a)"/><circle cx="-16.899" cy="8.587" r="4.052" clip-path="url(#b)" filter="url(#a)"/><circle cx="-19.389" cy="5.007" r="4.96" clip-path="url(#b)" filter="url(#a)"/><circle cx="-16.714" cy="7.552" r="4.83" clip-path="url(#b)" filter="url(#a)"/><circle cx="-18.269" cy="7.482" r="4.566" clip-path="url(#b)" filter="url(#a)"/><circle cx="-17.514" cy="8.997" r="3.65" clip-path="url(#b)" filter="url(#a)"/><circle cx="-18.169" cy="6.667" r="4.342" clip-path="url(#b)" filter="url(#a)"/><circle cx="-19.489" cy="5.487" r="4.2" clip-path="url(#b)" filter="url(#a)"/><circle cx="-16.679" cy="5.287" r="3.436" clip-path="url(#b)" filter="url(#a)"/><circle cx="-14.949" cy="5.657" r="4.272" clip-path="url(#b)" filter="url(#a)"/><circle cx="-15.579" cy="5.547" r="4.178" clip-path="url(#b)" filter="url(#a)"/></g><g fill="none" stroke="#000" transform="translate(-55.02 -28.01)"><path stroke-linejoin="round" stroke-width="2.222" d="m31.4 14.87.09-.18.08-.22.06-.24.04-.28.02-.29v-.32l-.02-.35-.05-.36-.07-.39-.1-.41-.12-.42-.15-.44-.18-.45-.2-.47-.23-.48-.26-.49-.29-.49-.32-.51-.35-.52-.38-.52-.4-.52-.44-.53-.47-.53-.49-.53-.52-.53-.45-.63-.49-.63-.54-.63-.59-.64-.64-.62-.69-.63-.73-.61-.78-.6-.82-.59-.86-.57-.91-.55-.94-.53-.98-.51-1.01-.49-1.05-.46-1.08-.43-1.11-.4-1.13-.37-1.15-.34-1.18-.3-1.2-.27-1.21-.24-1.22-.2-1.24-.17-1.25-.13-1.25-.09-1.26-.06-1.26-.02-1.25.02-1.26.05-1.25.08-1.24.12-1.24.15-1.23.18-1.21.22-1.2.24-1.18.27-1.17.3-1.14.32-1.13.34-1.11.37-1.09.38-1.06.4-1.04.42-1.02.42-.99.44-.97.45-.95.46-.92.45-.9.46-.87.47-.86.47-.83.47-.81.48-.79.48-.77.49-.75.48-.73.49-.71.48-.68.48-.66.48-.65.48-.62.47-.6.46-.58.46-.56.46-.54.45-.52.44-.51.43-.48.42-.47.42-.44.4-.43.4-.42.39" filter="url(#a)"/><path stroke-linejoin="round" stroke-width="2.222" d="m31.44 15.08-.18.15-.21.14-.24.12-.27.11-.29.09-.32.07-.34.06-.37.04-.39.03-.41.01-.43-.01-.46-.02-.48-.04-.5-.06-.51-.07-.54-.08-.56-.11-.57-.11-.59-.13-.61-.14-.63-.16-.64-.17-.65-.18-.67-.19-.69-.2-.75-.18-.76-.19-.79-.22-.81-.23-.83-.26-.84-.26-.87-.29-.88-.29-.9-.31-.91-.31-.93-.33-.95-.32-.95-.33-.97-.33-.98-.33-.99-.33-1-.33-1.01-.31-1.01-.31-1.02-.31-1.03-.29-1.02-.28-1.03-.26-1.03-.26-1.03-.23-1.03-.23-1.03-.2-1.02-.19-1.01-.17-1.01-.16-1.01-.13-.99-.12-.99-.1-.97-.09-.97-.06-.95-.05-.94-.03-.92-.02h-.91l-.89.01-.87.03-.86.04-.84.05-.82.06-.8.06-.79.08-.76.08-.74.08-.72.09-.7.08-.68.09-.66.09-.65.09-.62.1-.61.1-.59.09-.57.1-.55.09-.53.09-.52.09-.49.08-.47.08-.46.08-.44.07-.41.06-.4.06-.38.05-.36.05-.34.04-.32.02-.3.03-.29.01-.27.01-.25-.01" filter="url(#a)"/><circle cx="-23.589" cy="-1.82" r="4.864" clip-path="url(#c)" filter="url(#a)"/><circle cx="-24.419" cy="-2.24" r="4.232" clip-path="url(#c)" filter="url(#a)"/><circle cx="-23.944" cy="1.405" r="3.406" clip-path="url(#c)" filter="url(#a)"/><circle cx="-21.974" cy="-2.49" r="3.37" clip-path="url(#c)" filter="url(#a)"/><circle cx="-20.999" cy="-2.765" r="3.838" clip-path="url(#c)" filter="url(#a)"/><circle cx="-21.114" cy="-.735" r="3.418" clip-path="url(#c)" filter="url(#a)"/><circle cx="-24.284" cy="-1.585" r="3.778" clip-path="url(#c)" filter="url(#a)"/><circle cx="-21.149" cy="-.115" r="4.848" clip-path="url(#c)" filter="url(#a)"/><circle cx="-22.349" cy="-1.46" r="4.226" clip-path="url(#c)" filter="url(#a)"/><circle cx="-19.714" cy="1.63" r="3.528" clip-path="url(#c)" filter="url(#a)"/></g><g fill="none" stroke="#138638" stroke-linejoin="round" stroke-width="2"><path d="m-63.04-58.33 49.11-8.07 24.71 5.38 12.45 3.1 7.21-1.54-.05-5.27-8.69-6.4-14.79-4.76-15.8-1.65-11.33.97-2.96 1.81 5.94 1 11.53.04 14.12 1.25 23.34 8.42L77-33.11" filter="url(#a)"/><path d="m12.89-88.65 8.02 3.42 10.55 6.35 3.09 5.09-3.99 2.15-7.17-.6-7.07-2.27-4.67-2.68-.68-1.92 3.74-.37 6.84 1.44 7.13 2.85 4.3 3.34-.47 2.74-4.57 1.37-4.77.14.59-.07 6.95-.41.01-5.73L-.6-90.11" filter="url(#a)"/><path d="m-.6-90.11 23.09 6.89 2.55.88-3.49-.24-4.73-.34-3.79.08-1.71.85.3 1.76.74 2.53-1.04 2.89-4.3 2.71-7.22 2.08-7.94 1.29-5.89.72-2.34.6.28.71.28.5-1.03-.36.85-1.38 10.12-1.32 24.3 1.16 30.84 5.71 14.43 5.23" filter="url(#a)"/><path d="M45.73-74.98 23.9-81.45l-13.15 2.82-7.51 4.66-2.7 2.44 2.46.26 7.49.02 10.38 1.33 9.72 2.84 5.93 3.62.96 3.43-2.91 2.57-4.07 1.53-2.42.71.66.23 2.91-.1 2.16-.66-2.26-1.53-8.81-2.18-13.47-1.61-10.6.66 5.52 3.88 33.48 7.79L77-33.11" filter="url(#a)"/><path d="m-54.29-67.83 62.43-2.53 18.3.07-1.28-.8-5.98-.15-6.82-.57-7.16-1.9-6.23-2.54-3.35-1.78.45-.02 2.77 1.87 1.64 2.95-2.52 2.37-5.15.01 1.97-1.8 24.48 3.35L72.2-43.66" filter="url(#a)"/><path d="m-34.58-81.78 12.92.53 2.94 3.02 8.79 2.41 11.17 3.1 10.35 3.33 7.25 2.09 2.76.05-1.36-1.47-3.66-1.73-4-.99-3.18.09-1.63 1.07 1.2 1.89 5.65 2.05 9.26.48 5.23-3.03-14.62-5.56-55.64-3.79" filter="url(#a)"/><path d="m-30.56-83.55 47.38 12.6.66-.9-7.01-.25-7.32.11-6.45-.95-5.06-2.03-4.29-2.17-4.69-1.33-5.36-.08-4.76 1-1.99 1.69 2.92 2.2 9.05 2.73 14.69 3.13 16.96 2.69 12.54.89.5-1.69-12.94-2.66-9.3.44 50.19 1.2" filter="url(#a)"/><path d="m77.76-30.31-29.3-22.65-16.93-8.97-6.28-4.28-5.77-2.86-6.85-1.76-6.33-.87-5.36-.52-4.92-.57-4.32-.64-2.43-.51.43-.23 2.41-.08 1.73-.23-1.39-.36-4.07.05-2.22 1.05 6.21 1.47 16.81-.29 14.4-4.39L.78-89.72" filter="url(#a)"/><path d="m-21.41-86.94 11.08-.76 9.58 1.58 6.29 1.91.36 2.37-3.1 3.36-1.95 4.24 1.44 4.19 3.27 2.76 2.31.18 1.03-2.48 2.35-3.85 5.4-3.45 5.61-2.51-.05-2.85-8.17-3.99L-4.05-90" filter="url(#a)"/><path d="m-64.8-56.01 27.6-13.6-2.47.01 1.81.54 10.86.17 14.62-.02 12.33-.32 7.81-.44 4.84-.22 4.17.03 3.95-.15 2.14-.81-1.36-1.54-4.46-1.76-4.6-1.06-1.21.56 2.74 2.59 1.9 3.92-7.43 3.09-21.67-.29-28.33-1.66-23.24 10.96" filter="url(#a)"/><path d="m62.36-58.85-26.92-16.2-8.39-3.31 4.47 3.49 7.69 5.19 5.58 4.3 1.45 2.27-2.45.03-4.44-1.68-4.16-2.32-2.59-1.91-1.35-.95-1.64-.16-3.46-.06-5.8-.71-7.18-1.58-6.46-1.85-3.15-.92 2.41 1.15 9 3.33 13.92 4.05 13.37 2.05 5.37-2.48-7.03-7.21-23.61-13.6" filter="url(#a)"/><path d="M36.99-80.44 25.6-71.7l-12.98.41v-3l4.41-2.22 2.52-.13-1.74.94-5.54.35-6.95-.99L-.32-78l-3.29-.99-1.89.63-1.55 2.62.2 5.03 4.7 7.82 2.74 6.64-52.06-14.17" filter="url(#a)"/><path d="m54.89-67.08-60-7.58-20.11-1.87 1.96-2.05 11.29-2.02 11.45-.72 6.02.8-.82 1.65-5.06 1.72-4.61 1.19-.78.31 2.76-.48 3.33-.34 2.62 1.36 5.89 4.27 14.68 6.36 15.36 2.31-23.86-26.24" filter="url(#a)"/><path d="M39.09-79.24 8.43-62.47l13.61 4.16 6.9-2.15.67-2.06 1.13-.71 3.33-.55 4.26-1.05 3.98-1.07 3.27-.39 2.22.34.47.35-1.93-.49-4.13-1.55-5-1.99-3.93-1.33-1.57.17.43 1.67.82 2.31.13 1.85.76.83 4.24.1 6.53-.72-3.16-5.01L8.07-89.5" filter="url(#a)"/><path d="M72.2-43.66 57.61-61.41 45.68-71.89l-10.14-5.7-8.64-1.56-8.34 1.41-8.1 2.6-5.42 2.47.6 2.32 8.15 3.26 14.37 5.5 17.08 7.78 15 7.48 8.04 2.56.05-4.45 1.62.17m-89.02-39.39-8.18 9.8 8.57-2.53 1.17-1.87-3.86.52-2.9 1.32.79.64 3.48-.32 3.47-.68 1.4-.32-1.18.3-3.08.7-3.94.71-3.84.45-2.77.12-.42-.11 3.54-.04 8.72.91 12.23 3.52 2.71 7.26-56.64 5.27" filter="url(#a)"/><path d="m68.29-51.19-3.11 1.02-12.4-10.27-11.27-7.24-6.16-2.58-1.47.65.54 2.44-.01 3.19-1.5 2.92-2.67 1.54-4.13-.92-7.42-4.29-11.72-7.46-13.05-7.79-13.07-2.04-30.92 10.44" filter="url(#a)"/><path d="m-23.32-86.14 42.99 12.82-1.99.4-5.49-2.41 2.45-2.05 7.84-.54 8.85 1.1 7.7 2.61 6.37 4.12 5.2 5.43 3.25 5.88-.7 4.71-7.01 1.87-14.12-1.71L13.3-58.5l-16.95-5.59-7.11-4.5 7.3-1.9 15.4 1.29-1.23 3.09-65-1.72" filter="url(#a)"/><path d="m26.17-85.08 19.62 14.52-5.37 4.43-21.34.87-24.64-.63-17.97-1.47-7.35-2.16 2.1-2.58 7.82-2.41 9.59-1.59 8.75-.64 6.94-.06 5.31-.01 4.3-.07 3.7.43 2.72 1.68.4 2.91-3.29 2.61-6.3-.48-6.05-5.58-5.15-8.94-5.15-5.3" filter="url(#a)"/><path d="M12.89-88.65 1.49-72.3l11.76 11.91-5.28 5.05-13.1.14-7.16-1.72 3.16-1.7 10.62-1.05 13.15-.23 11.43.68 6.49 1.3-.23.89-6.1-.86-7.69-3.07-3.76-3.77 1.2-1.94-1.72-.28-11.73-5.06 14.66-15.76" filter="url(#a)"/><path d="M71.82-45.18 49.31-66.67l-5.44-5.03-8.93-1.94L20.9-75.1 7.94-76.2l-6.42-.81 1.14-.56 5.87-.13 6.48.38 3.74.75-.66.8-5.05.74-8.19.83-9.18 1.07-7.21 1.09-1.93.79 4.41.6 3.91.7-14.91 1.28-44.74 12.66" filter="url(#a)"/><path d="m36.99-80.44-48.89 5.73-9.56-.33 3.11-1.78 6.32-2.71 4.43-2.73 1.56-2.05.01-1.11.11-.11 1.46.81 3.71 1.6 6.51 2.19 8.93 2.6 9.79 2.74 8.2 2.51 4.26 1.85-.76.95-4.75.33-5.34.42-.91.87 7 .16 9.44-3.52-6.63-9.52" filter="url(#a)"/><path d="m29.16-84.1-10.28.91 6.94 3.78-.26 2-7.99.19-10.85-.67-10.13-.74-7.63-.4h-4.25l-.45.28 3.33.41 6.46.35 8.19.02 7.84-.59 5.39-1.26 1.41-1.66-3.08-1.47-7.31-.57-10.8.84-12.08 2.29-6.91 2.78 12.27.72 52.14-1.2" filter="url(#a)"/><path d="m62.3-59.54-31.02-4.75-29.61-4.64-9.09-2.6 5.06-.26 8.39.37 3.92-.33-2.77-.99-7.08-.8-7.03-.02-3.27.72 2.12 1.06 7.03 1.27 10.24 1.8 11.14 2.69 9.23 3.01 4.07 1.55-3.04-2.09-7.76-6.28-5.96-8.28-3.09-6.9-16.91-4.84" filter="url(#a)"/><path d="m74.36-39.7-48.3-27.32-23.54-5.35-12.69-1.7-2.28-2.06 3.97-1.51 6.19.15 6.71 1.99 6.57 3.1 5.06 2.95 1.71 1.5-2.63-.66-6.06-2.59-6.95-3.48-4.95-3.03-.97-1.59 3.44.07 6.75 1.19 8.14 1.34 8.16.93 8.9 1.35 11.72 4.46 14.87 11.15 17.61 22.23" filter="url(#a)"/><path d="m56.72-65.39-34.53-12.8-.71 2.08L30-70.22l9.04 5.15 6.61 2.97 2.28.49-3.17-1.46-8.83-2.54-13.67-2.83-16.25-2.59-14.85-2.06-8.62-1.55 1.08-1.32 10.39-1.17 13.59.08 2.54 1.9-44.72-6.63" filter="url(#a)"/><path d="m-48.03-73.08 46.54 3.11 6.2-.41-1.26-2.6-2.39-3.39-.64-2.45 1.52-.8 2.56.5 2.55.97 2.03.81.91.54-1.26.62-4.49 1.15-7.9 1.77-9.9 1.85-9.02.92-4.64-.74 2.37-1.74 9.43.04 12.91 5.16 4.31 8.28-55.3-9.13" filter="url(#a)"/><path d="m.78-89.72-3.44-.06-2.32.14-2.19.19-2.28.25-2.41.33-2.49.45-2.57.56-2.61.68-2.62.78-2.62.85-2.57.92-2.51.95-2.43.99-2.35 1.01-2.31 1.06-2.28 1.14-2.28 1.23-2.3 1.33-2.3 1.46-2.31 1.58-2.34 1.69-2.35 1.8-2.31 1.83-2.19 1.78-2.17 1.82-2.93 2.48" filter="url(#a)"/><path d="m-5.19-89.55-1.85.12-2.41.2-2.49.32-2.57.46-2.67.59-2.74.7-2.76.81-2.74.87-2.67.94-2.58.97-2.49.99-2.41 1.04-2.34 1.09-2.29 1.16-2.26 1.27-2.25 1.37-2.28 1.48-2.33 1.6-2.38 1.69-2.39 1.76-2.35 1.81-2.22 1.82-2.06 1.81-1.91 1.78-1.78 1.73-1.69 1.67-1.71 1.73-2.07 2.18" filter="url(#a)"/><path d="m-6.18-89.5-3.32.24-2.58.31-2.71.48-3 .61-3.28.74-3.43.82-3.42.9-3.29.95-3.04.99-2.77 1.02-2.53 1.07-2.42 1.12-2.44 1.22-2.57 1.31-2.74 1.41-2.87 1.52-2.95 1.62-2.93 1.69-2.89 1.75-2.85 1.79-2.88 1.81-2.95 1.82-3.03 1.83-3.09 1.85-3.1 1.89-3.04 1.97-2.95 2.07-2.83 2.15-2.73 2.24-2.7 2.3-2.75 2.35-2.85 2.42-2.86 2.58-2.7 2.78-2.74 2.99-4.32 3.23" filter="url(#a)"/><path d="m-6.18-89.5-3.47.23-3.57.31-4.08.46-4.06.6-3.86.72-3.88.81-4.11.89-4.22.94-3.97.97-3.39.99-2.78 1.03-2.43 1.08-2.56 1.16-3.18 1.25-4.14 1.37-5.25 1.48-6.22 1.59-6.79 1.69-6.87 1.77-6.45 1.81-5.67 1.82-4.77 1.82-4.03 1.79-3.8 1.71-4.22 1.53-2.9 1.35" filter="url(#a)"/><path d="m-6.18-89.5-3.58.23-3.23.31-3.25.47-3.15.61-3.06.73-3.12.82-3.39.89-3.81.94-4.24.98-4.5 1.01-4.5 1.04-4.27 1.11-3.92 1.18-3.6 1.28-3.36 1.39-3.19 1.5-3.03 1.61-2.87 1.69-2.72 1.76-2.66 1.8-2.75 1.8-3.04 1.81-3.42 1.78-3.83 1.78-4.23 1.79-4.67 1.86-5.31 2.02-6.18 2.27-6.9 2.54-6.61 2.58" filter="url(#a)"/><path d="m-12.37-88.86-1.44.12-2.99.45-3.79.63-3.78.74-3.36.79-3.03.85-2.98.92-3.2.99-3.54 1.08-3.89 1.14-4.17 1.2-4.39 1.25-4.58 1.32-4.82 1.39-5.15 1.48-5.55 1.57-5.91 1.63-6.24 1.69-6.54 1.73-6.77 1.77-6.57 1.78-5.42 1.7-3.65 1.53-5.46 1.89" filter="url(#a)"/><path d="m-13.67-88.86-3.86.93-3.31.75-3.43.85-3.39.94-3.34.98-3.43 1-3.65 1.02-3.83 1.05-3.87 1.12-3.75 1.21-3.49 1.31-3.26 1.43-3.15 1.53-3.29 1.63-3.65 1.71-4.17 1.76-4.7 1.8-5.04 1.81-5.13 1.82-4.92 1.82-4.51 1.86-4.05 1.9-3.66 1.97-3.41 2.07-3.3 2.15-3.29 2.24-3.32 2.31-3.36 2.36-3.46 2.44-3.68 2.56-4.05 2.7-4.51 2.73-4.61 2.48-3.08 1.51" filter="url(#a)"/><path d="m-16.21-88.4-3.34.72-4.03.79-3.14.84-2.41.88-2.4.94-2.86 1.03-3.33 1.11-3.51 1.19-3.44 1.25-3.26 1.31-3.15 1.38-3.18 1.45-3.31 1.54-3.46 1.6-3.62 1.67-3.76 1.73-3.92 1.79-4.08 1.85-4.25 1.92-4.41 1.99-4.55 2.08-4.69 2.15-4.79 2.18-4.84 2.19-4.75 2.17-4.5 2.13-4.12 2.14-3.8 2.2-3.8 2.35-4.39 2.55-5.48 2.74-6.46 2.83-6.49 2.72-5.13 2.43-2.84 2.22-.72 2.64" filter="url(#a)"/><path d="m-19.07-87.44-2.25.25-3.95.82-4.37.95-4.3 1-3.9 1-3.14 1-2.27 1.03-1.74 1.09-1.79 1.18-2.32 1.28-3 1.41-3.58 1.52-3.94 1.62-4.13 1.71-4.27 1.76-4.4 1.8-4.5 1.8-4.42 1.8-4.15 1.78-3.8 1.78-3.57 1.81-3.57 1.88-3.68 2.04-3.69 2.22-3.71 2.36-3.87 2.3-1.56 1.82" filter="url(#a)"/><path d="m-19.07-87.44-2.39.25-4.27.81-4.16.96-3.44.99-3.16 1-3.69 1-4.67 1.02-5.34 1.09-5.29 1.17-4.55 1.29-3.53 1.4-2.73 1.51-2.47 1.62-2.78 1.7-3.5 1.77-4.36 1.8-5.1 1.8-5.51 1.8-5.39 1.77-4.78 1.76-3.96 1.78-3.44 1.85-3.77 2.02-5.04 2.26-6.88 2.54-9.92 2.56" filter="url(#a)"/><path d="m-18.24-87.72-2.88.82-2.79.86-2.83.87-2.9.94-3.04 1.03-3.19 1.12-3.26 1.2-3.22 1.25-3.07 1.32-2.9 1.38-2.75 1.47-2.69 1.54-2.72 1.61-2.87 1.68-3.09 1.74-3.34 1.79-3.56 1.86-3.65 1.92-3.59 2.01-3.37 2.08-3.04 2.14-2.68 2.18-2.37 2.19-2.23 2.17-2.28 2.15-2.53 2.18-2.89 2.24-3.31 2.38-3.62 2.53-3.72 2.67-3.44 2.73-2.78 2.68-1.95 2.57-1.43 2.49-1.66 2.62-2.59 2.98-3.81 3.58" filter="url(#a)"/><path d="m-18.24-87.72-3.03.82-2.79.85-3.02.87-3.15.92-3.15 1.03-3.17 1.11-3.26 1.19-3.36 1.24-3.48 1.3-3.53 1.37-3.52 1.44-3.46 1.52-3.4 1.6-3.37 1.67-3.42 1.72-3.56 1.77-3.7 1.82-3.77 1.9-3.74 1.97-3.62 2.07-3.49 2.17-3.34 2.22-3.13 2.23-2.85 2.15-2.59 2.06-2.57 1.98-2.97 2-3.73 2.17-4.49 2.55-4.7 3.18-3.34 4.08" filter="url(#a)"/><path d="m-18.79-87.82-3.81 1.33-3.49 1.08-3.75 1.03-4.38 1-5.01 1.01-5.27 1.03-5.15 1.09-4.85 1.19-4.66 1.3-4.78 1.43-5.19 1.53-5.66 1.64-5.87 1.71-5.56 1.77-4.67 1.8-3.43 1.81-2.29 1.8-1.68 1.8-1.94 1.82-3.09 1.86-4.89 1.94-6.82 2.05-8.26 2.17-8.75 2.24-8.29 2.27-7.39 2.27-6.78 2.31-6.14 2.55-3.25 3.07m145.1-49.9-3.61 1.34-2.99 1.08-2.74 1.03-2.54 1.02-2.43 1.01-2.43 1.04-2.5 1.11-2.57 1.2-2.6 1.33-2.62 1.44-2.6 1.55-2.59 1.64-2.58 1.72-2.54 1.77-2.51 1.81-2.47 1.81-2.47 1.82-2.49 1.83-2.53 1.86-2.57 1.92-2.59 1.98-2.56 2.08-2.5 2.16-2.4 2.24-2.26 2.32-2.07 2.38-1.86 2.45-1.71 2.54-1.74 2.58-1.93 2.57-2.16 2.42-2.13 2.22-1.65 2.17-1.04 2.62" filter="url(#a)"/><path d="m-23.32-86.14-2.45.84-2.8.98-2.72 1-2.68 1.01-2.63 1.02-2.6 1.1-2.64 1.21-2.84 1.32-3.1 1.45-3.36 1.56-3.47 1.66-3.42 1.73-3.24 1.77-3.02 1.81-2.84 1.81-2.72 1.83-2.62 1.83-2.46 1.87-2.21 1.91-1.88 2-1.59 2.07-1.44 2.17-1.5 2.25-1.78 2.32-2.23 2.38-2.73 2.46-3.15 2.52-3.36 2.56-3.33 2.54-3.16 2.45-3.12 2.35-3.43 2.42-4 2.84-3.68 3.71" filter="url(#a)"/><path d="m-23.32-86.14-2.12.84-2.1.97-1.55 1-.87 1.01-.31 1.02v1.1l.03 1.19-.11 1.33-.38 1.44-.71 1.55-1.01 1.65-1.2 1.73-1.19 1.78-.88 1.8-.28 1.81.5 1.82 1.31 1.82 1.93 1.85 2.22 1.9 2.09 1.98 1.57 2.07.79 2.16-.03 2.24-.62 2.31-.72 2.37-.21 2.45.81 2.54 1.88 2.63 2.51 2.62 2.55 2.41 2.65 2.02 2.12 1.85m95.71 10.31.18-1.53-.24-2.43-.04-2.54.17-2.49.2-2.49.08-2.52-.03-2.53-.03-2.5.1-2.41.33-2.33.54-2.26.64-2.22.57-2.2.31-2.21-.05-2.22-.49-2.21-.94-2.19-1.34-2.14-1.55-2.08-1.51-2.01-1.22-1.93-.95-1.84-.98-1.77-1.37-1.76-1.64-1.82-1.96-1.99" filter="url(#a)"/><path d="m81.06-18.57.68-1.55.79-2.44.57-2.55.38-2.51.4-2.5.46-2.53.3-2.54-.13-2.5-.68-2.42-1.11-2.34-1.25-2.27-1.15-2.24-.91-2.22-.66-2.22-.45-2.22-.31-2.2-.15-2.18.05-2.13.3-2.07.52-2.01.59-1.93.39-1.86-.1-1.81-.69-1.76-1.1-1.71-1.15-1.64-1.06-1.53-1.45-1.35-2.34-1.14-2.31-1" filter="url(#a)"/><path d="m81.06-18.57.32-1.54 1.34-2.43 2.07-2.54 1.31-2.5v-2.49l-.91-2.52-1.17-2.53-.92-2.5-.55-2.42-.31-2.33-.29-2.26-.39-2.23-.49-2.21-.43-2.21-.16-2.22.29-2.21.8-2.18 1.25-2.14 1.48-2.08 1.43-2.01 1.07-1.93.46-1.85-.29-1.78-1.07-1.77-1.89-1.77-2.59-1.75-1.38-1.52" filter="url(#a)"/><path d="m81.06-18.57.36-1.51.08-2.41.13-2.53.58-2.47 1-2.47 1.06-2.5.65-2.52-.02-2.49-.66-2.42-1.07-2.32-1.18-2.23-1.09-2.18-.97-2.18-.92-2.2-.96-2.22-1.03-2.22-1.08-2.19-1.12-2.15-1.1-2.11-.95-2.08-.68-1.91-1.17-1.2m-97.25-18.06-2.62.83-3.99.99-4.61 1.16-4.27 1.23-3.75 1.24-3.47 1.28-3.62 1.33-4.12 1.42-4.83 1.51-5.45 1.6-5.77 1.66-5.66 1.7-5.18 1.74-4.43 1.78-3.7 1.82-3.32 1.9-3.68 2.03-4.77 2.2-5.91 2.37-5.92 2.42-4.27 2.23-2.62 1.87-5.94 1.79" filter="url(#a)"/><path d="m-28.77-84.2-2.4.82-2.75 1.23-2.44 1.26-2.2 1.25-2.1 1.27-2.14 1.33-2.23 1.43-2.35 1.52-2.42 1.61-2.44 1.66-2.38 1.71-2.29 1.75-2.15 1.78-2.04 1.84-1.99 1.91-2.02 2.04-2.14 2.2-2.26 2.33-2.27 2.34-2.1 2.19-1.79 1.92-1.46 1.71-1.19 1.6" filter="url(#a)"/><path d="m-35.11-81.3-2.48.93-2.58 1.24-3.28 1.42-4.05 1.52-4.23 1.61-3.74 1.71-3 1.77-2.47 1.82-2.3 1.83-2.4 1.82-2.66 1.82-2.95 1.83-3.23 1.86-3.49 1.92-3.67 2.01-3.74 2.09-3.7 2.18-3.55 2.26-3.37 2.33-3.28 2.39-3.33 2.46-3.59 2.5-3.98 2.52-4.36 2.51-4.51 2.47-4.31 2.45-3.85 2.46-3.56 2.52-4.02 2.61-5.27 2.69-6.02 2.87-2.6 2.98m229.57-6.18-.69-1.24-1.03-2.23-1.12-2.58-1.27-2.63-1.45-2.53-1.77-2.44-2.25-2.35-2.79-2.34-3.14-2.35-3.21-2.39-2.97-2.4-2.59-2.38-2.22-2.34-1.98-2.26-1.93-2.19-2.01-2.15-2.24-2.1-2.56-2.04-2.91-1.9-3.19-1.69-3.24-1.46-2.89-1.48-2.96-2.1" filter="url(#a)"/><path d="m-41.15-78.24-3.18 2.2-2.17 1.53-2.2 1.68-2.26 1.84-2.26 1.87-2.22 1.85-2.1 1.83-1.95 1.81-1.77 1.82-1.62 1.86-1.53 1.92-1.53 2.01-1.56 2.11-1.6 2.2-1.61 2.28-1.58 2.34-1.51 2.4-1.43 2.45-1.35 2.5-1.27 2.51-1.21 2.5-1.14 2.49-1.07 2.49-.99 2.5-.92 2.55-.86 2.64-.82 2.72-.8 2.79-.8 2.83-.73 2.78-.57 2.71-.39 2.97m47-72.98-10.71 2.2-1.53 1.51-1.2 1.68-3.2 1.83-4.82 1.87-5.32 1.85-4.88 1.82-3.95 1.8-2.9 1.81-2.06 1.84-1.67 1.91-1.78 1.99-2.25 2.1-2.76 2.19-3.06 2.26-3.1 2.33-2.96 2.4-2.85 2.45-2.91 2.49-3.25 2.52-3.86 2.51-4.63 2.46-5.26 2.44-5.45 2.45-5.12 2.52-4.59 2.6-4.2 2.68-3.89 2.86-3.6 2.97" filter="url(#a)"/><path d="m-44.07-75.95-3.15 2.11-2.92 1.84-2.47 1.75-2.15 1.75-2.05 1.79-2.16 1.85-2.4 1.92-2.64 2.02-2.81 2.13-2.81 2.2-2.65 2.23-2.32 2.2-1.96 2.17-1.62 2.16-1.39 2.19-1.3 2.28-1.31 2.4-1.4 2.53-1.48 2.62-1.5 2.66-1.47 2.65-1.39 2.63-1.28 2.6-1.18 2.59-1.11 2.58-1.11 2.53-1.14 2.47-1.23 2.44-1.24 2.53-1.06 2.84-.75 3.14-.59 2.38" filter="url(#a)"/><path d="m-50.07-71.58-.87 1.44 1.4 1.72 3.33 1.78 3.54 1.85 1.99 1.92.09 2.02-.85 2.15-.64 2.23.1 2.25.58 2.22.5 2.16v2.15l-.45 2.19-.57 2.29-.29 2.41.23 2.54.72 2.62 1.05 2.65 1.21 2.66 1.31 2.62 1.43 2.6 1.61 2.59 1.82 2.56 2.07 2.54 2.4 2.52 2.95 2.54 3.7 2.64 4.31 2.86 4.13 3.11 2.78 3.27 1.37 3.19 4.02 2.37m-51.37-71.07-2.25 2.68-1.44 1.91-1.21 1.75-1.18 1.85-1.22 2.02-1.27 2.18-1.24 2.27-1.15 2.33-1 2.37-.86 2.43-.77 2.47-.74 2.51-.73 2.51-.71 2.51-.62 2.5-.48 2.51-.33 2.53-.18 2.58-.09 2.65-.03 2.69v2.73l.02 2.72.09 2.71.24 2.66.43 2.62.58 2.64.55 2.71.35 2.87.24 3.07.62 3.26 1.55 2.89m9.29-74.12-3.64 2.8-5.41 2.86-3.91 2.61-1.87 2.27-.97 2.03-1.25 1.95-2.2 2.03-3.31 2.2-4.2 2.42-4.72 2.59-4.85 2.68-4.78 2.7-4.75 2.63-4.99 2.57-5.56 2.55-6.22 2.56-6.57 2.57-6.31 2.51-5.4 2.4-4.23 2.3-3.04 2.41-1.77 2.99-.66 4.67" filter="url(#a)"/><path d="m-62.31-59.22-3.88 3.11-1.67 2.72-1.34 2.25-1.47 2-1.55 1.97-1.49 2.08-1.37 2.29-1.23 2.48-1.12 2.63-1.03 2.69-.96 2.7-.89 2.67-.85 2.63-.83 2.6-.84 2.59-.89 2.58-.92 2.6-.96 2.63-.94 2.68-.84 2.76-.7 2.83-.52 2.89-.32 2.92-.18 2.89-.08 2.85-.06 2.8-.05 2.76-.03 2.73.01 2.7.11 2.69.2 2.65.27 2.65.37 2.67.51 2.77.69 2.96.73 3.48" filter="url(#a)"/><path d="m-65.06-55.59-1.54 2.1-2.01 2.44-2.29 2.35-2.41 2.3-2.28 2.37-1.91 2.46-1.46 2.54-1.08 2.53-.89 2.49-.92 2.44-1.09 2.44-1.32 2.48-1.46 2.54-1.49 2.63-1.42 2.69-1.33 2.74-1.31 2.73-1.33 2.69-1.35 2.61-1.31 2.51-1.25 2.49-1.15 2.73-.68 3.79M80.43-22.45l-.32-3.09.78-2.36 1.28-2.41 1.04-2.53.32-2.58-.53-2.52-1.2-2.44-1.57-2.33-1.62-2.27-1.34-2.23-.83-2.22-.2-2.23.38-2.22.72-2.2.73-2.17.37-2.11-.23-2.06-.93-2-1.5-1.92-1.88-1.86-2.02-1.79-2.01-1.73-1.94-1.66L66-74.95l-2.03-1.48-2.3-1.38-2.68-1.29-3.09-1.23-3.3-1.19-3.18-1.14-2.73-1.07-2.25-.92-2.26-.79-4.02-.95" filter="url(#a)"/><path d="m-70.88-46.43-4.56 2.45-9.1 2.68-6.34 2.74-1.95 2.64.32 2.5.36 2.43-.76 2.43-2.09 2.5-3.1 2.59-3.65 2.66-3.9 2.71-4.04 2.73-4.14 2.71-4.19 2.69-4.1 2.66-3.9 2.65-3.65 2.69-3.35 2.73-2.98 2.8-2.45 2.83-1.83 2.8-1.4 2.75-1.41 2.69-1.8 2.7-2.04 2.76-1.73 2.66-1.28 2" filter="url(#a)"/><path d="m-73.47-41.37-2.1 3.82-4.21 3.33-6.13 2.78-5.61 2.5-3.46 2.44-1.68 2.5-1.24 2.55-1.86 2.55-2.58 2.54-2.63 2.54-1.94 2.61-1.02 2.73-.51 2.84-.87 2.93-1.95 2.95-3.21 2.89-3.9 2.81-3.55 2.73-2.33 2.7-1.06 2.69-.79 2.7-1.93 2.66-3.45 2.58-2.89 2.41 1.52 2.3M79.02-27.2l2.41-2.9-.84-2.78-.95-2.71-.52-2.6-.42-2.44-.67-2.31-1.04-2.24-1.22-2.21-1.03-2.23-.5-2.22.2-2.23.75-2.2.98-2.17.78-2.11.25-2.05-.41-1.99-1.06-1.91-1.61-1.85-2.04-1.78-2.42-1.71-2.69-1.64-2.88-1.55-2.91-1.46-2.8-1.38-2.62-1.3-2.42-1.22-2.31-1.17-2.3-1.09-2.4-1.03-2.58-.95-2.81-.87-3.08-.79-3.34-.73-3.51-.63-3.4-.52-2.64-.35-.92-.13" filter="url(#a)"/><path d="m77.76-30.31 15.94-2.64 2.35-2.68-2.15-2.59-2.62-2.41-2.35-2.26-1.99-2.17-1.46-2.16-.86-2.18-.45-2.2-.18-2.22.06-2.2.38-2.16.62-2.12.58-2.05.22-1.98-.23-1.91-.52-1.84-.58-1.78-.66-1.74-.95-1.72-1.43-1.66-1.69-1.54-1.08-1.35 1.04-1.02M76.24-35.5l-1.5-3.13-1.19-2.45-1.09-2.19-1.12-2.14-1.19-2.16-1.28-2.21-1.36-2.24-1.43-2.24-1.5-2.22-1.55-2.17-1.63-2.11-1.72-2.04-1.81-1.97-1.91-1.91-2-1.84-2.05-1.76-2.1-1.7-2.11-1.62-2.12-1.54-2.12-1.45-2.14-1.37-2.17-1.28-2.22-1.22-2.25-1.15-2.3-1.08-2.32-1.01-2.34-.93-2.34-.86-2.34-.78-2.33-.7-2.31-.61-2.28-.52-2.27-.44-2.37-.38-2.66-.34-3.22-.31-3.88-.31" filter="url(#a)"/><path d="m75.79-36.58-.47-2.52-.47-2.31-1-2.47-1.19-2.51-1.09-2.43-.93-2.32-.84-2.22-.82-2.16-.82-2.1-.76-2.03-.74-1.97-.79-1.89-1-1.84-1.32-1.82L61.87-69l-1.96-1.81-2.11-1.77-2.11-1.66-1.96-1.53-1.77-1.38-1.62-1.25-1.63-1.14-1.83-1.09-2.17-1.08-2.49-1.12-2.9-1.16-3.66-1.09" filter="url(#a)"/><path d="m73.94-40.94-.97-2.87-1.47-2.82-1.33-2.53-1.01-2.3-.76-2.19-.67-2.15-.78-2.09-1.02-2.04-1.32-1.96L63-63.78l-1.81-1.85-1.9-1.83-1.87-1.81-1.78-1.78-1.65-1.71-1.58-1.61-1.56-1.5-1.62-1.38-1.76-1.27-1.93-1.2-2.1-1.14-2.29-1.1-2.47-1.08-2.66-1.03-2.86-.98-2.99-.88-3.01-.78-2.91-.67-2.77-.55-2.78-.49-3.19-.44-3.98-.45-4.21-.31" filter="url(#a)"/><path d="m73.94-40.94-1.57-2.88-1.42-2.81-1.25-2.54-1.15-2.3-1.13-2.2-1.19-2.15-1.28-2.09-1.34-2.04-1.32-1.96-1.29-1.9-1.33-1.86-1.43-1.83-1.61-1.81-1.75-1.77-1.83-1.7-1.83-1.61-1.78-1.49-1.77-1.38-1.83-1.28-2.02-1.2-2.28-1.14-2.56-1.11-2.82-1.06-2.97-1.03-3.03-.95-2.97-.87-2.88-.78-2.76-.66-2.67-.57-2.65-.5-2.77-.45-2.95-.4-3.02-.35-2.77-.25-2.81-.09" filter="url(#a)"/><path d="m72.18-43.81-.97-2.96-.04-2.53 2-2.21 4.14-2.11 5.44-2.1 5.1-2.08 3.25-2.03.71-1.94-1.58-1.85-2.95-1.79-3.29-1.79-2.9-1.82-2.26-1.83-1.78-1.79-1.61-1.68-1.67-1.52-1.69-1.36-1.42-1.21-.74-1.11-.05-1.02-.2-1.01-1.14-.99m1.42 34.49.62-1.92-1.08-2.28-1.38-2.31-1.06-2.24-.87-2.15-.98-2.09-1.1-2.02-1.01-1.95-.7-1.88-.34-1.8-.12-1.75-.15-1.69-.47-1.61-.98-1.53-1.58-1.43-2.15-1.35-2.54-1.26-2.75-1.2-2.75-1.15-2.61-1.08-2.46-1.02-2.37-.93-2.45-.86-2.71-.79-3.07-.72-3.47-.66-3.88-.54-3.95-.37" filter="url(#a)"/><path d="m68.7-49.64 7.84-2.63-1.77-2.43-3.02-2.26-2.16-2.17-1.67-2.09-1.69-2.02-1.77-1.96-1.57-1.87-1.09-1.81-.53-1.74-.12-1.68.02-1.6-.19-1.51-.64-1.43-1.23-1.34-1.84-1.26-2.4-1.19-2.84-1.12-3.12-1.06-3.26-.98-3.27-.91-3.21-.84-3.14-.75-3.13-.67-3.2-.59-3.39-.51-3.71-.44-4.1-.37-4.5-.3-4.83-.25-5.04-.17-5.04-.09h-4.85l-4.52.09-4.57.17-6.75.24" filter="url(#a)"/><path d="m68.5-50.4-.82-3.26-1.1-2.38-1.99-2.17-2.2-2.08-2.04-1.95-1.82-1.85-1.73-1.8-1.75-1.8-1.86-1.81-1.97-1.79L49.19-73l-2.01-1.6-1.97-1.47-1.91-1.35-1.91-1.26-1.98-1.18-2.11-1.13-2.29-1.09-2.45-1.05-2.57-1.01-2.61-.94-2.59-.85-2.53-.76-2.47-.66-2.45-.56-2.5-.5-2.6-.43-2.69-.39-2.71-.31-2.63-.25-2.54-.14-2.57-.04-2.7.12" filter="url(#a)"/><path d="m59.12-63.09.99-1.75.37-1.34-.82-1.67-1.47-1.9-1.78-1.92-1.89-1.77-1.96-1.59-2.07-1.42-2.2-1.3-2.31-1.2-2.39-1.15-2.48-1.11-2.61-1.07-2.76-1.03-2.9-.98-3-.9-3.01-.81-2.96-.73-2.86-.63-2.76-.55-2.73-.48-2.75-.4-2.84-.33-2.97-.25-3.12-.18-3.26-.09H-2.8l-3.46.07-3.53.16-3.56.22-3.6.29-3.66.37-3.74.47-3.83.59-3.92.71-4.11.81-4.72.81" filter="url(#a)"/><path d="m59.12-63.09-1.64-1.73-.9-1.33-1.18-1.63-1.34-1.89-1.12-1.92-.75-1.78-.53-1.59-.59-1.42-.89-1.29-1.33-1.19-1.8-1.14-2.25-1.1-2.66-1.07-2.96-1.06-3.16-1-3.2-.94-3.11-.85-2.93-.74-2.77-.65-2.71-.55-2.8-.48-3.01-.43-3.2-.39-3.27-.32-3.22-.25-3.3-.16-3.51-.12" filter="url(#a)"/><path d="m55.16-66.93-2.77-2.75-2.43-2.36-1.85-1.83-1.22-1.51-.56-1.32.01-1.22.23-1.16-.1-1.11-.93-1.09-1.94-1.07-2.84-1.04-3.39-.98-3.54-.9-3.45-.82-3.23-.71-3.08-.63-3.01-.54-3.07-.46-3.18-.4-3.32-.33-3.45-.26-3.56-.18-3.69-.1h-3.83l-4.02.08-4.19.15-4.32.22-4.36.27-4.37.34-4.51.43-4.91.57-5.33.7" filter="url(#a)"/><path d="m52.36-69.65-1.24-2.73-1.67-1.74-.95-1.38-.81-1.27-.94-1.19-1.12-1.13-1.34-1.09-1.73-1.08-2.24-1.07-2.74-1.05-3.08-.99-3.21-.92-3.16-.82-3.02-.72-2.86-.62-2.76-.54-2.77-.47-2.87-.41-3.01-.36-3.1-.29-3.14-.21-3.16-.12-3.26-.01-3.47.08-3.57.14-2.91.12" filter="url(#a)"/><path d="M39.92-78.89 38.15-80l-2-1.21-1.58-1.17L33-83.43l-1.98-.93-2.47-.84-2.75-.75-2.77-.69-2.64-.61-2.47-.53-2.39-.46-2.43-.38-2.57-.33-2.77-.26-2.96-.2-3.06-.13-3.09-.05-3.02.02-2.96.09-2.93.16-3.03.22-3.27.31-3.63.42-4.02.52-4.4.65-5.53 1.06" filter="url(#a)"/><path d="m39.09-79.24-1.48-1.11-1.72-1.1-2.26-1.11-2.55-1.1-2.66-1.02-2.68-.9-2.64-.79-2.55-.67-2.47-.57-2.42-.5-2.44-.44-2.48-.38-2.51-.33-2.51-.25-2.52-.18-2.53-.09-2.6.01-2.68.09-2.74.16-2.73.22-2.61.24-2.49.27-3.01.39" filter="url(#a)"/><path d="m39.09-79.24-.69-1.13-2.06-1.11-2.82-1.13-3.04-1.1-2.93-1.01-2.73-.9-2.52-.78-2.38-.66-2.31-.57-2.34-.5-2.39-.42-2.47-.37-2.54-.29-2.58-.22-2.6-.14-2.62-.05-2.64.03-2.66.11-2.69.18-2.71.27-2.75.33-2.78.43-2.84.51-2.89.59-2.93.69-2.94.77-2.99.84-3.1.91-3.28 1.02-3.46 1.12-3.45 1.2-3.15 1.27-2.99 1.51" filter="url(#a)"/><path d="m37.89-79.94-.1-1.31-.79-1.22-2.49-1.06-2.87-.92-2.54-.82-2.14-.75-1.89-.68-1.84-.6-2-.52-2.33-.44-2.74-.38-3.19-.31-3.55-.25-3.82-.18-3.97-.11-4.05-.04-4.11.04-4.16.11-4.23.19-4.33.28-4.51.36-4.78.47-5.16.58-5.62.69-6.14.8-6.68.9-7.1.97-7.06 1.03-6.14 1.04-4.42.77" filter="url(#a)"/><path d="m30.36-83.79 1.53-.93-2.59-.7-2.74-.71-2.12-.68-1.78-.6-1.88-.51-2.28-.43-2.79-.36-3.26-.3-3.59-.25-3.77-.19-3.84-.11-3.84-.04-3.8.03-3.77.1-3.8.17-3.92.24-4.15.33-4.54.43-5.1.54-5.86.67-6.79.8-7.25.85" filter="url(#a)"/><path d="m26.17-85.08-2.36-1.01-1.61-.68-1.32-.57-1.72-.49-2.34-.45-2.77-.4-2.94-.36-2.94-.28-2.89-.21-2.88-.12-2.93-.04-2.98.05-3.03.13-3.05.2-3.05.28-3.09.35-3.18.43-3.35.52-3.62.61-3.93.7-4.28.77-4.64.85-5.01.93-5.34 1.01-5.58 1.11-5.57 1.2-5.29 1.23-4.94 1.23-3.93 1.06" filter="url(#a)"/><path d="m17.19-87.77-1.26-.25-1.73-.35-2.27-.39-2.57-.36-2.57-.3-2.42-.21-2.27-.11-2.16-.03-2.11.07-2.05.13-1.97.21-1.86.26-1.75.34-1.64.42-1.56.51-1.51.61-1.46.69-1.4.76-1.28.81-1.08.88-.75 1-.4 1.21-.55 1.34" filter="url(#a)"/><path d="m17.19-87.77-.91-.25-1.67-.36-2.15-.38-2.42-.36-2.54-.3-2.63-.2-2.8-.12-3.05-.02-3.35.07-3.62.14-3.79.21-3.85.28-3.85.35-3.91.43-4.06.52-4.29.62-4.48.69-4.54.77-4.5.84-4.55.92-4.96 1.01-5.81 1.12-6.79 1.2-7.16 1.26-7.28 1.49" filter="url(#a)"/><path d="m18.89-87.66-2.66-.54-1.36-.35-1.66-.31-2.44-.28-3.06-.22-3.39-.16-3.52-.07-3.56.01-3.53.08-3.45.16-3.35.24-3.28.33-3.33.43-3.51.53-3.86.63-4.25.73-4.61.82-4.86.88-4.96.94-5 .97-5.08 1.01-5.29 1.06-5.63 1.12-6.06 1.21-6.48 1.31-6.79 1.43-6.97 1.56-7 1.72-6.81 1.91-6.54 2.03-7.81 2.06" filter="url(#a)"/><path d="m16.99-87.93-2.23-.43-2.47-.41-2.71-.39-2.65-.3-2.53-.2-2.49-.1-2.51-.01-2.56.08-2.59.15-2.6.22-2.64.28-2.73.36-2.86.45-3.04.53-3.2.62-3.32.71-3.35.79-3.31.85-3.21.94-3.12 1.02-3.09 1.1-3.11 1.18-3.22 1.21-3.35 1.19-3.28 1.11-2.59 1.03" filter="url(#a)"/><path d="m16.99-87.93-2.27-.43-2.5-.42-2.71-.38-2.63-.3-2.49-.2-2.43-.1H-.48l-2.5.08-2.54.16-2.57.22-2.6.3-2.6.37-2.61.46-2.6.54-2.61.64-2.62.72-2.66.79-2.72.88-2.8.95-2.85 1.03-2.86 1.1-2.78 1.17-2.65 1.22-2.53 1.26-2.52 1.33-2.7 1.44-3 1.57-3.11 1.61-2.4 1.25" filter="url(#a)"/><path d="m8.07-89.5-1.93-.17-2-.14-2.27-.07-2.54.02-2.73.11-2.84.17-2.83.23-2.78.29-2.75.37-2.78.45-2.9.54-3.06.63-3.22.72-3.37.79-3.53.86-3.74.93-4 1.02-4.3 1.11-4.46 1.17-4.23 1.2-3.61 1.19-3.07 1.11-3.82 1.02" filter="url(#a)"/></g><g fill="none" stroke="#000"><circle cx="8.96" cy="31.796" r="2.076" filter="url(#a)"/><circle cx="12.068" cy="34.056" r="1.208" filter="url(#a)"/><circle cx="12.56" cy="34.436" r="2.634" filter="url(#a)"/><circle cx="11.132" cy="33.7" r="2.85" filter="url(#a)"/><circle cx="11.32" cy="33.804" r="1.382" filter="url(#a)"/><circle cx="9.236" cy="31.648" r="1.168" filter="url(#a)"/><circle cx="9.532" cy="34.368" r="1.666" filter="url(#a)"/><circle cx="12.084" cy="33.112" r="1.656" filter="url(#a)"/><circle cx="10.996" cy="31.848" r="2.602" filter="url(#a)"/><circle cx="9.88" cy="32.864" r="1.912" filter="url(#a)"/><circle cx="-11.834" cy="36.082" r="1.136" filter="url(#a)"/><circle cx="-11.266" cy="35.666" r="2.614" filter="url(#a)"/><circle cx="-10.814" cy="33.686" r="2.788" filter="url(#a)"/><circle cx="-12.31" cy="36.842" r="2.054" filter="url(#a)"/><circle cx="-10.418" cy="34.606" r="2.366" filter="url(#a)"/><circle cx="-12.414" cy="35.418" r="2.202" filter="url(#a)"/><circle cx="-11.286" cy="33.938" r="2.254" filter="url(#a)"/><circle cx="-13.274" cy="36.314" r="2.116" filter="url(#a)"/><circle cx="-12.186" cy="36.81" r="1.034" filter="url(#a)"/><circle cx="-12.146" cy="33.406" r="2.748" filter="url(#a)"/></g><path fill="#CC8766" stroke="#000" stroke-linejoin="round" stroke-width="3" d="m-35.62 63.09.6-.76.61-.75.61-.75.62-.73.63-.72.63-.71.63-.7.64-.69.65-.68.65-.66.65-.66.66-.65.66-.63.67-.62.68-.61.68-.6.68-.58.69-.57.69-.56.69-.55.7-.53.71-.52.71-.51.71-.5.72-.48.72-.46.72-.46.73-.44.73-.42.74-.41.73-.4.75-.38.74-.37.75-.35.75-.34.76-.32.76-.3.76-.3.76-.27.77-.26.77-.24.77-.23.78-.21.78-.19.78-.18.78-.16.78-.14.79-.13.79-.11.79-.09.8-.07.79-.05.8-.04.8-.02h.81l.8.02.8.03.81.06.81.07.81.09.81.12.82.13.81.15.82.17.81.19.82.21.82.23.82.25.82.28.82.29.82.31.82.34.83.35.82.38.82.4.83.42.82.44.83.47.82.48.83.51.82.53.83.56.82.57.83.6.82.63.83.64.82.67.82.69.83.72.82.74.82.77.82.78.82.82.82.83.82.87.82.88.81.92.82.93.81.97.81.98-.81-.98-.81-.97-.82-.93-.81-.92-.82-.88-.82-.87-.82-.83-.82-.82-.82-.78-.82-.77-.82-.74-.83-.72-.82-.69-.82-.67-.83-.64-.82-.63-.83-.6-.82-.57-.83-.56-.82-.53-.83-.51-.82-.48-.83-.47-.82-.44-.83-.42-.82-.4-.82-.38-.83-.35-.82-.34-.82-.31-.82-.29-.82-.28-.82-.25-.82-.23-.82-.21-.81-.19-.82-.17-.81-.15-.82-.13-.81-.12-.81-.09-.81-.07-.81-.06-.8-.03-.8-.02h-.81l-.8.02-.8.04-.79.05-.8.07-.79.09-.79.11-.79.13-.78.14-.78.16-.78.18-.78.19-.78.21-.77.23-.77.24-.77.26-.76.27-.76.3-.76.3-.76.32-.75.34-.75.35-.74.37-.75.38-.73.4-.74.41-.73.42-.73.44-.72.46-.72.46-.72.48-.71.5-.71.51-.71.52-.7.53-.69.55-.69.56-.69.57-.68.58-.68.6-.68.61-.67.62-.66.63-.66.65-.65.66-.65.66-.65.68-.64.69-.63.7-.63.71-.63.72-.62.73-.61.75-.61.75" filter="url(#a)"/></svg>