
  <svg viewBox="-100 -100 200 200" xmlns="http://www.w3.org/2000/svg" width="500" height="500" id="face-svg">
    <defs>
      <clipPath id="leftEyeClipPath">
        <polyline points="26.26,-1.5 26.28,-1.7 26.27,-1.9 26.22,-2.11 26.15,-2.31 26.03,-2.51 25.88,-2.71 25.69,-2.91 25.47,-3.1 25.21,-3.28 24.92,-3.46 24.59,-3.64 24.23,-3.81 23.83,-3.97 23.39,-4.12 22.92,-4.27 22.57,-4.52 22.16,-4.76 21.69,-4.98 21.16,-5.18 20.57,-5.36 19.93,-5.52 19.23,-5.66 18.48,-5.78 17.68,-5.88 16.83,-5.96 15.94,-6.03 15,-6.07 14.03,-6.09 13.02,-6.1 11.97,-6.09 10.9,-6.06 9.79,-6.01 8.67,-5.95 7.52,-5.88 6.36,-5.79 5.18,-5.69 4,-5.57 2.81,-5.45 1.61,-5.31 0.41,-5.16 -0.78,-5.01 -1.97,-4.84 -3.15,-4.67 -4.32,-4.5 -5.48,-4.31 -6.62,-4.12 -7.74,-3.93 -8.84,-3.74 -9.92,-3.54 -10.97,-3.34 -12,-3.13 -13,-2.93 -13.97,-2.73 -14.91,-2.52 -15.82,-2.32 -16.7,-2.12 -17.54,-1.92 -18.35,-1.72 -19.13,-1.52 -19.87,-1.33 -20.59,-1.14 -21.27,-0.95 -21.91,-0.76 -22.53,-0.57 -23.12,-0.39 -23.68,-0.21 -24.2,-0.03 -24.7,0.15 -25.17,0.32 -25.61,0.49 -26.02,0.66 -26.4,0.83 -26.76,1 -27.08,1.16 -27.38,1.33 -27.65,1.49 -27.9,1.65 -28.12,1.8 -28.31,1.96 -26.57,3.28 -26.21,3.39 -25.83,3.51 -25.44,3.62 -25.02,3.73 -24.59,3.84 -24.13,3.94 -23.66,4.05 -23.17,4.15 -22.67,4.25 -22.14,4.34 -21.6,4.43 -21.04,4.52 -20.47,4.61 -19.88,4.69 -19.27,4.77 -18.64,4.85 -17.99,4.92 -17.33,4.99 -16.65,5.06 -15.95,5.12 -15.23,5.18 -14.49,5.23 -13.75,5.28 -12.98,5.32 -12.21,5.35 -11.42,5.38 -10.61,5.41 -9.8,5.42 -8.98,5.43 -8.14,5.44 -7.3,5.43 -6.46,5.42 -5.6,5.41 -4.74,5.38 -3.88,5.35 -3.02,5.31 -2.15,5.27 -1.28,5.22 -0.41,5.16 0.46,5.1 1.32,5.03 2.18,4.96 3.04,4.88 3.89,4.79 4.74,4.7 5.58,4.61 6.41,4.51 7.23,4.41 8.04,4.3 8.84,4.19 9.63,4.08 10.41,3.97 11.18,3.85 11.93,3.73 12.67,3.61 13.4,3.49 14.11,3.37 14.81,3.25 15.49,3.13 16.15,3 16.8,2.88 17.44,2.76 18.05,2.63 18.66,2.51 19.22,2.37 19.76,2.22 20.3,2.07 20.83,1.92 21.35,1.76 21.85,1.6 22.34,1.43 22.82,1.25 23.29,1.07 23.74,0.88 24.19,0.68 24.62,0.47 25.03,0.26 25.44,0.03 25.82,-0.2" />
      </clipPath>
      <clipPath id="rightEyeClipPath">
        <polyline points="-26.9,-1.59 -27.05,-1.81 -27.16,-2.03 -27.22,-2.25 -27.23,-2.47 -27.2,-2.69 -27.13,-2.91 -27.01,-3.12 -26.84,-3.33 -26.63,-3.53 -26.38,-3.73 -26.08,-3.91 -25.74,-4.09 -25.36,-4.26 -24.94,-4.43 -24.47,-4.58 -24.13,-4.86 -23.71,-5.11 -23.23,-5.35 -22.69,-5.56 -22.08,-5.75 -21.41,-5.92 -20.67,-6.07 -19.88,-6.19 -19.04,-6.29 -18.14,-6.37 -17.2,-6.43 -16.21,-6.46 -15.18,-6.47 -14.11,-6.46 -13.01,-6.44 -11.87,-6.39 -10.72,-6.33 -9.53,-6.24 -8.33,-6.15 -7.12,-6.03 -5.89,-5.91 -4.65,-5.76 -3.42,-5.61 -2.18,-5.45 -0.94,-5.27 0.29,-5.09 1.5,-4.89 2.71,-4.69 3.9,-4.48 5.07,-4.27 6.22,-4.05 7.34,-3.83 8.44,-3.61 9.51,-3.38 10.55,-3.15 11.55,-2.92 12.53,-2.69 13.47,-2.46 14.37,-2.23 15.24,-2.01 16.07,-1.78 16.86,-1.56 17.61,-1.33 18.33,-1.11 19.01,-0.9 19.65,-0.68 20.25,-0.47 20.83,-0.26 21.36,-0.06 21.87,0.14 22.34,0.34 22.77,0.54 23.18,0.74 23.55,0.93 23.89,1.12 24.2,1.31 24.48,1.49 24.73,1.68 24.94,1.86 25.13,2.04 25.29,2.22 25.41,2.39 25.51,2.57 25.59,2.74 25.25,3.42 24.92,3.53 24.58,3.64 24.21,3.75 23.84,3.86 23.44,3.97 23.03,4.07 22.6,4.17 22.16,4.27 21.7,4.37 21.22,4.46 20.73,4.55 20.22,4.64 19.7,4.72 19.16,4.8 18.6,4.88 18.03,4.96 17.44,5.03 16.83,5.1 16.2,5.16 15.56,5.22 14.9,5.28 14.23,5.33 13.54,5.37 12.83,5.41 12.12,5.45 11.38,5.48 10.64,5.5 9.88,5.52 9.11,5.53 8.33,5.53 7.54,5.53 6.74,5.52 5.93,5.5 5.12,5.48 4.29,5.45 3.46,5.42 2.63,5.37 1.79,5.33 0.94,5.27 0.1,5.21 -0.75,5.14 -1.61,5.07 -2.46,4.99 -3.31,4.91 -4.16,4.82 -5.01,4.72 -5.85,4.62 -6.7,4.52 -7.54,4.41 -8.37,4.3 -9.2,4.18 -10.02,4.06 -10.84,3.94 -11.65,3.82 -12.45,3.69 -13.24,3.55 -14.03,3.42 -14.8,3.28 -15.57,3.14 -16.32,3 -17.06,2.85 -17.79,2.7 -18.51,2.55 -19.22,2.4 -19.85,2.22 -20.48,2.04 -21.1,1.85 -21.71,1.66 -22.3,1.45 -22.89,1.23 -23.47,1.01 -24.04,0.77 -24.59,0.52 -25.13,0.26 -25.66,-0.01 -26.18,-0.3 -26.69,-0.6 -27.18,-0.91 -27.65,-1.25" />
      </clipPath>
      <filter id="fuzzy">
        <feTurbulence id="turbulence" baseFrequency="0.05" numOctaves="3" type="noise" result="noise" />
        <feDisplacementMap in="SourceGraphic" in2="noise" scale="2" />
      </filter>
      <linearGradient id="rainbowGradient" x1="0%" y1="0%" x2="100%" y2="0%">
        <stop offset="0%" style="stop-color: rgb(185, 55, 55); stop-opacity: 1" />
        <stop offset="50%" style="stop-color: rgb(230, 230, 250); stop-opacity: 1" />
        <stop offset="100%" style="stop-color: rgb(80, 68, 68); stop-opacity: 1" />
      </linearGradient>
    </defs>
    <rect x="-100" y="-100" width="100%" height="100%" fill="rgb(211, 211, 211)" />
    <polyline id="faceContour" points="71.57,1.36 71.39,1.27 71.32,2.79 71.49,5.18 71.44,6.18 71.48,5.08 71.13,9.3 70.98,8.66 70.95,10.18 70.94,12.74 70.53,15.15 70.67,14.12 70.11,18.92 70.03,18.85 69.77,19.58 69.21,23.26 68.76,25.46 68.48,26.92 68.43,26.93 68.13,29.31 68.08,29.13 67.13,32.68 66.94,32.82 66.84,33.37 65.82,36.61 65.91,36.96 65.86,37.64 65.43,38.87 64.61,40.93 64.56,41.26 63.4,43.88 63.36,43.94 61.9,48.23 61.65,48.32 61.69,48.43 61.1,49.29 60.21,51.58 60.34,51.51 59.39,53.27 57.87,56.48 57.93,56.02 56.38,58.86 55.8,59.8 55.67,60.05 54.98,61.12 54.19,62.29 53.43,63.76 53.42,63.63 51.66,66.51 50.57,67.62 50.26,68.16 49.82,68.65 49.32,69.16 49.2,69.59 48.07,71.11 47.2,71.87 44.53,74.85 43.67,75.54 44.17,75.14 43.62,76.01 41.83,78.02 40.52,78.9 39.37,80.09 40.56,79.23 38.2,80.8 36.98,82.07 37.47,81.3 35.89,82.88 33.69,84.69 34.42,84.05 31.94,85.85 31.81,85.94 30.09,87.12 29.43,87.4 26.54,88.88 27.79,88.38 25.1,89.48 26.97,89.01 25.02,89.82 22.8,90.99 20.9,91.6 18.78,92.56 21.3,91.56 18.84,92.52 17.56,92.76 16.58,93.16 15.4,93.64 14.56,93.71 14.65,93.67 13.65,94 12.68,94.52 10.59,94.69 8.94,94.89 7.26,95.54 6.19,95.48 5.39,95.43 3.03,95.55 3.72,95.64 3.18,95.91 2.11,95.64 -0.42,95.88 -0.56,96.04 -1.91,95.82 -3.11,95.83 -3.76,95.88 -5.09,95.35 -6,95.43 -7.32,95.27 -9.16,95.05 -9.48,94.81 -12.65,94.48 -12.16,94.48 -13.9,94.16 -15.67,93.41 -15.21,93.88 -17.81,92.88 -19.29,92.19 -18.58,92.3 -19.84,91.94 -22.16,91.07 -22.8,90.66 -23.93,90.56 -24.59,90.01 -25.51,89.37 -27.95,88.27 -26.59,88.76 -29.34,87.18 -27.89,88.38 -29.25,87.08 -31.26,86.11 -32.1,85.41 -32.95,85.29 -34.22,84.08 -35.25,83.27 -37.25,81.81 -36.75,82.29 -37.76,81.02 -40.45,79.17 -40.25,78.91 -40.08,79 -42.41,77.13 -43.21,76.48 -43.37,76 -44.25,75.19 -46.33,72.8 -46.19,73.36 -47.75,71.46 -48.52,70.25 -48.65,69.99 -49.86,68.76 -50.04,68.46 -50.08,68.1 -51.68,66.03 -53.43,63.51 -52.89,64.59 -54.59,61.83 -55.39,60.37 -56.2,59.15 -57.41,56.68 -57.31,57.76 -56.85,58.13 -58.72,54.82 -59.9,52.08 -59.32,53.14 -60.7,50.54 -59.75,52.01 -61.86,47.35 -62.03,47.67 -62.52,46.59 -62.96,44.88 -63.78,43.21 -64.28,42.11 -64.35,41.22 -64.93,39.3 -65.81,36.71 -65.33,38.39 -66.35,35.46 -66.86,33.74 -66.99,33.2 -67.17,32.68 -67.98,30.33 -68.29,27.58 -68.61,25.96 -68.88,26.02 -68.98,25.22 -69.45,22.01 -69.8,19.1 -70.05,17.8 -70.28,16.74 -70.38,16.12 -70.52,14.73 -70.39,15.42 -70.68,12.26 -70.86,10.83 -71.22,8.4 -71.16,8.59 -71.19,4.08 -71.26,5.07 -71.41,2.25 -71.55,1.52 -71.28,-1.46 -71.55,-3.51 -71.35,-4.04 -71.38,-6.1 -71.28,-4.75 -70.99,-7.58 -71.12,-9.28 -71.08,-9.33 -70.87,-12.44 -70.72,-13.82 -70.79,-13.73 -70.25,-16.51 -70,-17.87 -69.81,-19.48 -69.86,-19.86 -69.59,-22.49 -69.34,-21.95 -69,-24.31 -68.18,-28.07 -68.42,-28.01 -67.64,-30.78 -66.93,-32.87 -67.1,-32.98 -66.82,-33.6 -66.29,-35.62 -65.92,-37.1 -65.69,-37.59 -65.62,-37.57 -64.15,-42.04 -64.58,-40.17 -63.38,-44.07 -63.75,-43.45 -63.07,-45.52 -62.83,-45.88 -61.73,-47.75 -61.19,-49.38 -60.07,-51.96 -59.37,-53.04 -59.77,-52.58 -59.25,-53.31 -57.57,-56.06 -57.21,-57.08 -56.62,-58.53 -56.37,-58.75 -54.77,-61.9 -54.34,-62 -54.17,-62.66 -52.18,-64.96 -51.99,-65.62 -50.17,-67.87 -51.59,-66.32 -48.99,-69.31 -49.8,-69.06 -48.28,-70.58 -46.52,-72.61 -45.82,-73.68 -46.01,-73.21 -44.38,-74.9 -42.6,-76.87 -41.32,-77.88 -42.18,-77.42 -40.97,-78.33 -39.64,-79.57 -40.24,-79.34 -38.38,-80.92 -36.25,-82.44 -35.72,-82.87 -34.85,-83.59 -36.31,-82.66 -32.68,-85.12 -31.92,-85.76 -30.29,-86.65 -31.33,-86.14 -29.76,-87.2 -28.4,-87.7 -28.61,-87.55 -25.74,-89.33 -23.83,-90.03 -24.54,-90.08 -22.78,-90.86 -23.25,-90.73 -21.69,-91.49 -19.5,-92.19 -20.15,-91.92 -18.38,-92.56 -16.87,-92.84 -15.21,-93.48 -14.29,-93.96 -12.18,-94.29 -13.7,-94.22 -12.74,-94.04 -11.03,-94.62 -6.75,-95.56 -7.23,-95.26 -5.57,-95.58 -4.92,-95.49 -5.16,-95.49 -3.2,-95.73 -2.04,-95.7 -1.73,-95.85 0.32,-95.56 0.22,-95.88 1.62,-95.58 2.9,-95.55 4.82,-95.59 7.26,-95.47 7.09,-95.07 7.87,-95.21 8.66,-94.87 10.63,-94.69 12.33,-94.53 12.54,-94.32 13.96,-93.87 15.25,-93.39 16.2,-93.24 16.52,-93.09 19.27,-92.14 18.33,-92.29 19.65,-92.03 20.94,-91.48 21.21,-91.49 23.1,-90.37 23.62,-90.27 24.76,-89.83 27.68,-88.45 28.11,-88.23 27.37,-88.66 29.79,-87.19 31.39,-85.89 31.26,-85.8 32.13,-85.41 34.07,-84.01 33.71,-84.25 36.4,-82.57 36.38,-82.56 37.43,-81.5 38.44,-80.66 38.25,-80.99 40.58,-78.93 40.51,-78.97 40.86,-78.76 41.91,-77.44 43.67,-75.71 45.16,-74.18 46.29,-73.04 45.41,-73.86 46.62,-72.4 49.03,-69.65 48.47,-70.65 49.51,-68.67 50.41,-67.72 51.13,-66.66 51.43,-66.52 53.25,-63.8 53.02,-64.12 53.95,-62.62 55.25,-60.84 55.9,-59.7 56.94,-57.72 56.67,-58.47 57.67,-56.47 58.28,-55.5 58.9,-54.03 59.88,-52.75 61.31,-49.33 60.67,-50.79 61.52,-48.84 62.02,-47.38 62.21,-47.03 62.42,-46.48 64.05,-42.51 63.3,-44.37 64.74,-40.36 64.77,-40.42 65.98,-37.02 66.32,-35.83 66.43,-35.61 66.91,-33.4 67.25,-31.89 67.15,-31.98 67.62,-30.7 67.54,-30.4 68.65,-26.86 69.21,-24.52 69.41,-23.48 69.21,-22.96 69.92,-20.18 69.79,-19.89 69.9,-19.29 70.36,-16.06 70.68,-15.04 70.59,-15.15 70.96,-11.17 71,-9.11 71.14,-9.11 71.18,-7.5 71.15,-4.88 71.17,-5.39 71.21,-4.6 71.51,-0.53 71.57,1.36 71.39,1.27" fill="rgb(220, 20, 60)" stroke="black" stroke-width="1.6666666666666665" stroke-linejoin="round" filter="url(#fuzzy)" />
    <g transform="translate(29.639999999999997 -31.47)">
      <polyline id="rightCountour" points="-26.9,-1.59 -27.05,-1.81 -27.16,-2.03 -27.22,-2.25 -27.23,-2.47 -27.2,-2.69 -27.13,-2.91 -27.01,-3.12 -26.84,-3.33 -26.63,-3.53 -26.38,-3.73 -26.08,-3.91 -25.74,-4.09 -25.36,-4.26 -24.94,-4.43 -24.47,-4.58 -24.13,-4.86 -23.71,-5.11 -23.23,-5.35 -22.69,-5.56 -22.08,-5.75 -21.41,-5.92 -20.67,-6.07 -19.88,-6.19 -19.04,-6.29 -18.14,-6.37 -17.2,-6.43 -16.21,-6.46 -15.18,-6.47 -14.11,-6.46 -13.01,-6.44 -11.87,-6.39 -10.72,-6.33 -9.53,-6.24 -8.33,-6.15 -7.12,-6.03 -5.89,-5.91 -4.65,-5.76 -3.42,-5.61 -2.18,-5.45 -0.94,-5.27 0.29,-5.09 1.5,-4.89 2.71,-4.69 3.9,-4.48 5.07,-4.27 6.22,-4.05 7.34,-3.83 8.44,-3.61 9.51,-3.38 10.55,-3.15 11.55,-2.92 12.53,-2.69 13.47,-2.46 14.37,-2.23 15.24,-2.01 16.07,-1.78 16.86,-1.56 17.61,-1.33 18.33,-1.11 19.01,-0.9 19.65,-0.68 20.25,-0.47 20.83,-0.26 21.36,-0.06 21.87,0.14 22.34,0.34 22.77,0.54 23.18,0.74 23.55,0.93 23.89,1.12 24.2,1.31 24.48,1.49 24.73,1.68 24.94,1.86 25.13,2.04 25.29,2.22 25.41,2.39 25.51,2.57 25.59,2.74 25.25,3.42 24.92,3.53 24.58,3.64 24.21,3.75 23.84,3.86 23.44,3.97 23.03,4.07 22.6,4.17 22.16,4.27 21.7,4.37 21.22,4.46 20.73,4.55 20.22,4.64 19.7,4.72 19.16,4.8 18.6,4.88 18.03,4.96 17.44,5.03 16.83,5.1 16.2,5.16 15.56,5.22 14.9,5.28 14.23,5.33 13.54,5.37 12.83,5.41 12.12,5.45 11.38,5.48 10.64,5.5 9.88,5.52 9.11,5.53 8.33,5.53 7.54,5.53 6.74,5.52 5.93,5.5 5.12,5.48 4.29,5.45 3.46,5.42 2.63,5.37 1.79,5.33 0.94,5.27 0.1,5.21 -0.75,5.14 -1.61,5.07 -2.46,4.99 -3.31,4.91 -4.16,4.82 -5.01,4.72 -5.85,4.62 -6.7,4.52 -7.54,4.41 -8.37,4.3 -9.2,4.18 -10.02,4.06 -10.84,3.94 -11.65,3.82 -12.45,3.69 -13.24,3.55 -14.03,3.42 -14.8,3.28 -15.57,3.14 -16.32,3 -17.06,2.85 -17.79,2.7 -18.51,2.55 -19.22,2.4 -19.85,2.22 -20.48,2.04 -21.1,1.85 -21.71,1.66 -22.3,1.45 -22.89,1.23 -23.47,1.01 -24.04,0.77 -24.59,0.52 -25.13,0.26 -25.66,-0.01 -26.18,-0.3 -26.69,-0.6 -27.18,-0.91 -27.65,-1.25" fill="white" stroke="white" stroke-width="0" stroke-linejoin="round" filter="url(#fuzzy)" />
    </g>
    <g transform="translate(-30.769999999999996 -28.689999999999998)">
      <polyline id="leftCountour" points="26.26,-1.5 26.28,-1.7 26.27,-1.9 26.22,-2.11 26.15,-2.31 26.03,-2.51 25.88,-2.71 25.69,-2.91 25.47,-3.1 25.21,-3.28 24.92,-3.46 24.59,-3.64 24.23,-3.81 23.83,-3.97 23.39,-4.12 22.92,-4.27 22.57,-4.52 22.16,-4.76 21.69,-4.98 21.16,-5.18 20.57,-5.36 19.93,-5.52 19.23,-5.66 18.48,-5.78 17.68,-5.88 16.83,-5.96 15.94,-6.03 15,-6.07 14.03,-6.09 13.02,-6.1 11.97,-6.09 10.9,-6.06 9.79,-6.01 8.67,-5.95 7.52,-5.88 6.36,-5.79 5.18,-5.69 4,-5.57 2.81,-5.45 1.61,-5.31 0.41,-5.16 -0.78,-5.01 -1.97,-4.84 -3.15,-4.67 -4.32,-4.5 -5.48,-4.31 -6.62,-4.12 -7.74,-3.93 -8.84,-3.74 -9.92,-3.54 -10.97,-3.34 -12,-3.13 -13,-2.93 -13.97,-2.73 -14.91,-2.52 -15.82,-2.32 -16.7,-2.12 -17.54,-1.92 -18.35,-1.72 -19.13,-1.52 -19.87,-1.33 -20.59,-1.14 -21.27,-0.95 -21.91,-0.76 -22.53,-0.57 -23.12,-0.39 -23.68,-0.21 -24.2,-0.03 -24.7,0.15 -25.17,0.32 -25.61,0.49 -26.02,0.66 -26.4,0.83 -26.76,1 -27.08,1.16 -27.38,1.33 -27.65,1.49 -27.9,1.65 -28.12,1.8 -28.31,1.96 -26.57,3.28 -26.21,3.39 -25.83,3.51 -25.44,3.62 -25.02,3.73 -24.59,3.84 -24.13,3.94 -23.66,4.05 -23.17,4.15 -22.67,4.25 -22.14,4.34 -21.6,4.43 -21.04,4.52 -20.47,4.61 -19.88,4.69 -19.27,4.77 -18.64,4.85 -17.99,4.92 -17.33,4.99 -16.65,5.06 -15.95,5.12 -15.23,5.18 -14.49,5.23 -13.75,5.28 -12.98,5.32 -12.21,5.35 -11.42,5.38 -10.61,5.41 -9.8,5.42 -8.98,5.43 -8.14,5.44 -7.3,5.43 -6.46,5.42 -5.6,5.41 -4.74,5.38 -3.88,5.35 -3.02,5.31 -2.15,5.27 -1.28,5.22 -0.41,5.16 0.46,5.1 1.32,5.03 2.18,4.96 3.04,4.88 3.89,4.79 4.74,4.7 5.58,4.61 6.41,4.51 7.23,4.41 8.04,4.3 8.84,4.19 9.63,4.08 10.41,3.97 11.18,3.85 11.93,3.73 12.67,3.61 13.4,3.49 14.11,3.37 14.81,3.25 15.49,3.13 16.15,3 16.8,2.88 17.44,2.76 18.05,2.63 18.66,2.51 19.22,2.37 19.76,2.22 20.3,2.07 20.83,1.92 21.35,1.76 21.85,1.6 22.34,1.43 22.82,1.25 23.29,1.07 23.74,0.88 24.19,0.68 24.62,0.47 25.03,0.26 25.44,0.03 25.82,-0.2" fill="white" stroke="white" stroke-width="0" stroke-linejoin="round" filter="url(#fuzzy)" />
    </g>
    <g transform="translate(29.639999999999997 -31.47)">
      <polyline id="rightUpper" points="-23.08,0.17 -23.63,0.06 -24.16,-0.07 -24.64,-0.22 -25.09,-0.38 -25.49,-0.56 -25.86,-0.75 -26.19,-0.95 -26.47,-1.16 -26.71,-1.37 -26.9,-1.59 -27.05,-1.81 -27.16,-2.03 -27.22,-2.25 -27.23,-2.47 -27.2,-2.69 -27.13,-2.91 -27.01,-3.12 -26.84,-3.33 -26.63,-3.53 -26.38,-3.73 -26.08,-3.91 -25.74,-4.09 -25.36,-4.26 -24.94,-4.43 -24.47,-4.58 -24.13,-4.86 -23.71,-5.11 -23.23,-5.35 -22.69,-5.56 -22.08,-5.75 -21.41,-5.92 -20.67,-6.07 -19.88,-6.19 -19.04,-6.29 -18.14,-6.37 -17.2,-6.43 -16.21,-6.46 -15.18,-6.47 -14.11,-6.46 -13.01,-6.44 -11.87,-6.39 -10.72,-6.33 -9.53,-6.24 -8.33,-6.15 -7.12,-6.03 -5.89,-5.91 -4.65,-5.76 -3.42,-5.61 -2.18,-5.45 -0.94,-5.27 0.29,-5.09 1.5,-4.89 2.71,-4.69 3.9,-4.48 5.07,-4.27 6.22,-4.05 7.34,-3.83 8.44,-3.61 9.51,-3.38 10.55,-3.15 11.55,-2.92 12.53,-2.69 13.47,-2.46 14.37,-2.23 15.24,-2.01 16.07,-1.78 16.86,-1.56 17.61,-1.33 18.33,-1.11 19.01,-0.9 19.65,-0.68 20.25,-0.47 20.83,-0.26 21.36,-0.06 21.87,0.14 22.34,0.34 22.77,0.54 23.18,0.74 23.55,0.93 23.89,1.12 24.2,1.31 24.48,1.49 24.73,1.68 24.94,1.86 25.13,2.04 25.29,2.22 25.41,2.39 25.51,2.57 25.59,2.74 25.63,2.91 25.65,3.08 25.65,3.25 25.62,3.41 25.56,3.58 25.49,3.74 25.39,3.9 25.26,4.07 25.12,4.23 24.96,4.39" fill="none" stroke="black" stroke-width="1.6666666666666665" stroke-linejoin="round" filter="url(#fuzzy)" />
      <polyline id="rightLower" points="-31.46,-5.69 -31.17,-5.14 -30.86,-4.61 -30.52,-4.11 -30.16,-3.64 -29.79,-3.19 -29.4,-2.76 -28.98,-2.35 -28.56,-1.96 -28.11,-1.6 -27.65,-1.25 -27.18,-0.91 -26.69,-0.6 -26.18,-0.3 -25.66,-0.01 -25.13,0.26 -24.59,0.52 -24.04,0.77 -23.47,1.01 -22.89,1.23 -22.3,1.45 -21.71,1.66 -21.1,1.85 -20.48,2.04 -19.85,2.22 -19.22,2.4 -18.51,2.55 -17.79,2.7 -17.06,2.85 -16.32,3 -15.57,3.14 -14.8,3.28 -14.03,3.42 -13.24,3.55 -12.45,3.69 -11.65,3.82 -10.84,3.94 -10.02,4.06 -9.2,4.18 -8.37,4.3 -7.54,4.41 -6.7,4.52 -5.85,4.62 -5.01,4.72 -4.16,4.82 -3.31,4.91 -2.46,4.99 -1.61,5.07 -0.75,5.14 0.1,5.21 0.94,5.27 1.79,5.33 2.63,5.37 3.46,5.42 4.29,5.45 5.12,5.48 5.93,5.5 6.74,5.52 7.54,5.53 8.33,5.53 9.11,5.53 9.88,5.52 10.64,5.5 11.38,5.48 12.12,5.45 12.83,5.41 13.54,5.37 14.23,5.33 14.9,5.28 15.56,5.22 16.2,5.16 16.83,5.1 17.44,5.03 18.03,4.96 18.6,4.88 19.16,4.8 19.7,4.72 20.22,4.64 20.73,4.55 21.22,4.46 21.7,4.37 22.16,4.27 22.6,4.17 23.03,4.07 23.44,3.97 23.84,3.86 24.21,3.75 24.58,3.64 24.92,3.53 25.25,3.42 25.56,3.3 25.85,3.18 26.13,3.07 26.39,2.95 26.64,2.83 26.87,2.71 27.08,2.59 27.28,2.47 27.46,2.35 27.62,2.22" fill="none" stroke="black" stroke-width="2.2222222222222223" stroke-linejoin="round" filter="url(#fuzzy)" />
      <circle r="4.66" cx="13.0495940885339" cy="3.265883472800172" stroke="black" fill="none" stroke-width="1.0" filter="url(#fuzzy)" clip-path="url(#rightEyeClipPath)" /><circle r="3.942" cx="14.619594088533901" cy="2.1258834728001723" stroke="black" fill="none" stroke-width="1.0" filter="url(#fuzzy)" clip-path="url(#rightEyeClipPath)" /><circle r="3.326" cx="13.8895940885339" cy="2.7858834728001725" stroke="black" fill="none" stroke-width="1.0" filter="url(#fuzzy)" clip-path="url(#rightEyeClipPath)" /><circle r="4.428" cx="12.5245940885339" cy="5.2458834728001715" stroke="black" fill="none" stroke-width="1.0" filter="url(#fuzzy)" clip-path="url(#rightEyeClipPath)" /><circle r="3.628" cx="15.549594088533901" cy="1.885883472800172" stroke="black" fill="none" stroke-width="1.0" filter="url(#fuzzy)" clip-path="url(#rightEyeClipPath)" /><circle r="3.048" cx="14.489594088533899" cy="4.9108834728001725" stroke="black" fill="none" stroke-width="1.0" filter="url(#fuzzy)" clip-path="url(#rightEyeClipPath)" /><circle r="4.574" cx="15.1245940885339" cy="4.970883472800172" stroke="black" fill="none" stroke-width="1.0" filter="url(#fuzzy)" clip-path="url(#rightEyeClipPath)" /><circle r="4.66" cx="15.9095940885339" cy="5.975883472800172" stroke="black" fill="none" stroke-width="1.0" filter="url(#fuzzy)" clip-path="url(#rightEyeClipPath)" /><circle r="3.15" cx="13.7645940885339" cy="2.265883472800172" stroke="black" fill="none" stroke-width="1.0" filter="url(#fuzzy)" clip-path="url(#rightEyeClipPath)" /><circle r="4.6" cx="16.1295940885339" cy="5.2908834728001715" stroke="black" fill="none" stroke-width="1.0" filter="url(#fuzzy)" clip-path="url(#rightEyeClipPath)" />
      </g>
    <g transform="translate(-30.769999999999996 -28.689999999999998)">
      <polyline id="leftUpper" points="24.42,0.1 24.71,-0.01 24.99,-0.12 25.24,-0.26 25.47,-0.41 25.67,-0.57 25.85,-0.74 26,-0.92 26.11,-1.11 26.2,-1.3 26.26,-1.5 26.28,-1.7 26.27,-1.9 26.22,-2.11 26.15,-2.31 26.03,-2.51 25.88,-2.71 25.69,-2.91 25.47,-3.1 25.21,-3.28 24.92,-3.46 24.59,-3.64 24.23,-3.81 23.83,-3.97 23.39,-4.12 22.92,-4.27 22.57,-4.52 22.16,-4.76 21.69,-4.98 21.16,-5.18 20.57,-5.36 19.93,-5.52 19.23,-5.66 18.48,-5.78 17.68,-5.88 16.83,-5.96 15.94,-6.03 15,-6.07 14.03,-6.09 13.02,-6.1 11.97,-6.09 10.9,-6.06 9.79,-6.01 8.67,-5.95 7.52,-5.88 6.36,-5.79 5.18,-5.69 4,-5.57 2.81,-5.45 1.61,-5.31 0.41,-5.16 -0.78,-5.01 -1.97,-4.84 -3.15,-4.67 -4.32,-4.5 -5.48,-4.31 -6.62,-4.12 -7.74,-3.93 -8.84,-3.74 -9.92,-3.54 -10.97,-3.34 -12,-3.13 -13,-2.93 -13.97,-2.73 -14.91,-2.52 -15.82,-2.32 -16.7,-2.12 -17.54,-1.92 -18.35,-1.72 -19.13,-1.52 -19.87,-1.33 -20.59,-1.14 -21.27,-0.95 -21.91,-0.76 -22.53,-0.57 -23.12,-0.39 -23.68,-0.21 -24.2,-0.03 -24.7,0.15 -25.17,0.32 -25.61,0.49 -26.02,0.66 -26.4,0.83 -26.76,1 -27.08,1.16 -27.38,1.33 -27.65,1.49 -27.9,1.65 -28.12,1.8 -28.31,1.96 -28.48,2.11 -28.62,2.26 -28.74,2.41 -28.83,2.56 -28.91,2.71 -28.96,2.85 -28.99,3 -28.99,3.14 -28.98,3.28 -28.95,3.42" fill="none" stroke="black" stroke-width="2.2222222222222223" stroke-linejoin="round" filter="url(#fuzzy)" />
      <polyline id="leftLower" points="28.9,-3.25 28.66,-2.87 28.41,-2.51 28.14,-2.17 27.85,-1.85 27.55,-1.54 27.24,-1.25 26.9,-0.97 26.56,-0.7 26.2,-0.44 25.82,-0.2 25.44,0.03 25.03,0.26 24.62,0.47 24.19,0.68 23.74,0.88 23.29,1.07 22.82,1.25 22.34,1.43 21.85,1.6 21.35,1.76 20.83,1.92 20.3,2.07 19.76,2.22 19.22,2.37 18.66,2.51 18.05,2.63 17.44,2.76 16.8,2.88 16.15,3 15.49,3.13 14.81,3.25 14.11,3.37 13.4,3.49 12.67,3.61 11.93,3.73 11.18,3.85 10.41,3.97 9.63,4.08 8.84,4.19 8.04,4.3 7.23,4.41 6.41,4.51 5.58,4.61 4.74,4.7 3.89,4.79 3.04,4.88 2.18,4.96 1.32,5.03 0.46,5.1 -0.41,5.16 -1.28,5.22 -2.15,5.27 -3.02,5.31 -3.88,5.35 -4.74,5.38 -5.6,5.41 -6.46,5.42 -7.3,5.43 -8.14,5.44 -8.98,5.43 -9.8,5.42 -10.61,5.41 -11.42,5.38 -12.21,5.35 -12.98,5.32 -13.75,5.28 -14.49,5.23 -15.23,5.18 -15.95,5.12 -16.65,5.06 -17.33,4.99 -17.99,4.92 -18.64,4.85 -19.27,4.77 -19.88,4.69 -20.47,4.61 -21.04,4.52 -21.6,4.43 -22.14,4.34 -22.67,4.25 -23.17,4.15 -23.66,4.05 -24.13,3.94 -24.59,3.84 -25.02,3.73 -25.44,3.62 -25.83,3.51 -26.21,3.39 -26.57,3.28 -26.91,3.16 -27.24,3.05 -27.54,2.93 -27.82,2.81 -28.09,2.69 -28.34,2.57 -28.57,2.45 -28.78,2.33 -28.98,2.21 -29.16,2.09" fill="none" stroke="black" stroke-width="2.2222222222222223" stroke-linejoin="round" filter="url(#fuzzy)" />
      <circle r="3.074" cx="9.688976473405921" cy="-2.5897318731549923" stroke="black" fill="none" stroke-width="1.0" filter="url(#fuzzy)" clip-path="url(#leftEyeClipPath)" /><circle r="3.428" cx="11.873976473405921" cy="0.6652681268450076" stroke="black" fill="none" stroke-width="1.0" filter="url(#fuzzy)" clip-path="url(#leftEyeClipPath)" /><circle r="3.544" cx="13.513976473405922" cy="-2.659731873154992" stroke="black" fill="none" stroke-width="1.0" filter="url(#fuzzy)" clip-path="url(#leftEyeClipPath)" /><circle r="4.918" cx="9.933976473405922" cy="-1.4697318731549922" stroke="black" fill="none" stroke-width="1.0" filter="url(#fuzzy)" clip-path="url(#leftEyeClipPath)" /><circle r="3.166" cx="9.533976473405922" cy="1.8052681268450081" stroke="black" fill="none" stroke-width="1.0" filter="url(#fuzzy)" clip-path="url(#leftEyeClipPath)" /><circle r="3.412" cx="12.548976473405922" cy="0.5002681268450075" stroke="black" fill="none" stroke-width="1.0" filter="url(#fuzzy)" clip-path="url(#leftEyeClipPath)" /><circle r="3.348" cx="11.548976473405922" cy="1.1202681268450077" stroke="black" fill="none" stroke-width="1.0" filter="url(#fuzzy)" clip-path="url(#leftEyeClipPath)" /><circle r="4.274" cx="13.138976473405922" cy="-1.1797318731549922" stroke="black" fill="none" stroke-width="1.0" filter="url(#fuzzy)" clip-path="url(#leftEyeClipPath)" /><circle r="3.596" cx="12.273976473405922" cy="-0.07473187315499263" stroke="black" fill="none" stroke-width="1.0" filter="url(#fuzzy)" clip-path="url(#leftEyeClipPath)" /><circle r="3.438" cx="12.153976473405923" cy="-1.8947318731549923" stroke="black" fill="none" stroke-width="1.0" filter="url(#fuzzy)" clip-path="url(#leftEyeClipPath)" />
    </g>
    <g id="hairs">
      <polyline points="7.09,-95.07 7.9,-95.06 8.91,-94.92 9.94,-94.75 10.82,-94.55 11.46,-94.34 11.85,-94.11 11.98,-93.9 11.83,-93.7 11.34,-93.53 10.45,-93.37 9.12,-93.23 7.36,-93.11 5.19,-93 2.67,-92.92 -0.24,-92.85 -3.64,-92.79 -7.72,-92.69 -12.6,-92.57" fill="none" stroke="rgb(44, 34, 43)" stroke-width="2" stroke-linejoin="round" filter="url(#fuzzy)" /><polyline points="0.22,-95.88 1.58,-95.68 3.11,-95.57 4.61,-95.48 5.89,-95.37 6.87,-95.25 7.58,-95.15 8.04,-95.06 8.21,-94.99 8.02,-94.95 7.41,-94.93 6.35,-94.95 4.8,-95.02 2.73,-95.17 0.08,-95.41" fill="none" stroke="rgb(44, 34, 43)" stroke-width="2" stroke-linejoin="round" filter="url(#fuzzy)" /><polyline points="-4.92,-95.49 -4.5,-95.55 -3.53,-95.63 -2.54,-95.68 -1.63,-95.69 -0.81,-95.67 -0.05,-95.62 0.64,-95.54 1.25,-95.43 1.71,-95.28 1.97,-95.1 1.96,-94.88 1.66,-94.62 1.06,-94.31 0.18,-93.97 -1,-93.58 -2.5,-93.15 -4.31,-92.67 -6.46,-92.16 -8.96,-91.61 -11.85,-91 -15.23,-90.29 -19.25,-89.43 -23.89,-88.43" fill="none" stroke="rgb(44, 34, 43)" stroke-width="2" stroke-linejoin="round" filter="url(#fuzzy)" /><polyline points="1.62,-95.58 2.99,-95.55 4.33,-95.47 5.28,-95.32 5.81,-95.12 6.02,-94.88 5.98,-94.59 5.71,-94.25 5.13,-93.86 4.2,-93.39 2.83,-92.85 0.98,-92.23 -1.38,-91.52 -4.29,-90.75 -7.73,-89.92 -11.67,-89.07 -16.09,-88.21 -20.98,-87.32 -26.47,-86.32" fill="none" stroke="rgb(44, 34, 43)" stroke-width="2" stroke-linejoin="round" filter="url(#fuzzy)" /><polyline points="49.03,-69.65 48.84,-69.76 48.85,-69.12 48.65,-68.41 48.1,-67.77 47.13,-67.22 45.74,-66.76 43.89,-66.4 41.57,-66.14 38.74,-66 35.36,-66 31.4,-66.18 26.85,-66.52 21.72,-67.03 15.98,-67.67 9.61,-68.42 2.58,-69.28 -5.12,-70.33 -13.47,-71.63 -22.44,-73.23 -31.9,-75.19" fill="none" stroke="rgb(44, 34, 43)" stroke-width="2" stroke-linejoin="round" filter="url(#fuzzy)" /><polyline points="19.65,-92.03 20.68,-91.6 21.71,-91.14 22.83,-90.62 24.02,-90.07 25.19,-89.54 26.24,-89.05 27.11,-88.6 27.78,-88.22 28.22,-87.9 28.44,-87.67 28.42,-87.55 28.16,-87.56 27.64,-87.7 26.85,-88 25.76,-88.45 24.3,-89.09 22.42,-89.93 20.08,-91 17.29,-92.3" fill="none" stroke="rgb(44, 34, 43)" stroke-width="2" stroke-linejoin="round" filter="url(#fuzzy)" /><polyline points="28.11,-88.23 28.21,-88.09 28.81,-87.48 29.12,-86.91 28.95,-86.5 28.3,-86.24 27.16,-86.09 25.49,-86.04 23.27,-86.11 20.46,-86.32 17.01,-86.68 12.82,-87.18 7.84,-87.8 1.98,-88.54 -4.72,-89.45 -12.11,-90.61" fill="none" stroke="rgb(44, 34, 43)" stroke-width="2" stroke-linejoin="round" filter="url(#fuzzy)" /><polyline points="-3.2,-95.73 -2.24,-95.73 -1.28,-95.73 -0.29,-95.71 0.71,-95.68 1.73,-95.64 2.73,-95.59 3.62,-95.52 4.28,-95.45 4.66,-95.36 4.74,-95.27 4.53,-95.18 4.04,-95.1 3.23,-95.01 2.01,-94.91 0.25,-94.8 -2.2,-94.64 -5.48,-94.42 -9.49,-94.2" fill="none" stroke="rgb(44, 34, 43)" stroke-width="2" stroke-linejoin="round" filter="url(#fuzzy)" /><polyline points="-5.16,-95.49 -3.6,-95.64 -2.44,-95.7 -1.47,-95.71 -0.57,-95.7 0.3,-95.67 1.14,-95.62 1.91,-95.54 2.53,-95.43 2.9,-95.3 2.98,-95.13 2.77,-94.93 2.28,-94.71 1.52,-94.45 0.44,-94.16 -1.03,-93.81 -2.92,-93.43 -5.26,-93.01 -8.02,-92.57 -11.21,-92.12 -14.87,-91.64 -18.92,-91.14" fill="none" stroke="rgb(44, 34, 43)" stroke-width="2" stroke-linejoin="round" filter="url(#fuzzy)" /><polyline points="40.51,-78.97 41.08,-78.4 41.96,-77.41 42.83,-76.4 43.45,-75.57 43.76,-74.99 43.79,-74.59 43.57,-74.35 43.1,-74.24 42.35,-74.29 41.3,-74.51 39.93,-74.93 38.22,-75.55 36.16,-76.38 33.72,-77.44 30.85,-78.72 27.52,-80.25 23.7,-82.04 19.41,-84.12 14.67,-86.52 9.5,-89.27 3.86,-92.36" fill="none" stroke="rgb(44, 34, 43)" stroke-width="2" stroke-linejoin="round" filter="url(#fuzzy)" /><polyline points="7.26,-95.47 7.29,-95.19 7.54,-94.93 7.8,-94.57 7.86,-94.1 7.54,-93.48 6.76,-92.71 5.47,-91.8 3.68,-90.75 1.36,-89.56 -1.52,-88.23 -5.01,-86.73 -9.17,-85.03 -14.02,-83.12 -19.55,-80.97 -25.75,-78.6 -32.73,-75.91 -40.69,-72.73" fill="none" stroke="rgb(44, 34, 43)" stroke-width="2" stroke-linejoin="round" filter="url(#fuzzy)" /><polyline points="45.41,-73.86 46.56,-72.34 47.12,-71.15 47.01,-70.27 46.37,-69.54 45.27,-68.88 43.71,-68.29 41.67,-67.75 39.12,-67.27 36.05,-66.84 32.45,-66.48 28.3,-66.22 23.55,-66.06 18.16,-66.02 12.1,-66.08 5.35,-66.23 -2.08,-66.43 -10.18,-66.69 -18.99,-66.98 -28.57,-67.33 -38.8,-67.93" fill="none" stroke="rgb(44, 34, 43)" stroke-width="2" stroke-linejoin="round" filter="url(#fuzzy)" /><polyline points="7.09,-95.07 8.04,-94.98 9.45,-94.62 11.16,-94.09 12.99,-93.42 14.88,-92.63 16.8,-91.75 18.76,-90.81 20.73,-89.83 22.69,-88.83 24.61,-87.85 26.46,-86.9 28.21,-86.01 29.86,-85.2 31.4,-84.46 32.84,-83.77 34.19,-83.13 35.38,-82.55 36.36,-82.06 37.08,-81.68" fill="none" stroke="rgb(44, 34, 43)" stroke-width="2" stroke-linejoin="round" filter="url(#fuzzy)" /><polyline points="-18.38,-92.56 -16.86,-92.92 -15.31,-93.34 -13.86,-93.69 -12.49,-93.95 -11.07,-94.17 -9.49,-94.39 -7.77,-94.62 -6.01,-94.85 -4.36,-95.05 -2.91,-95.21 -1.69,-95.33 -0.7,-95.43 0.05,-95.51 0.55,-95.57 0.77,-95.63 0.71,-95.67 0.39,-95.69 -0.17,-95.71 -1.03,-95.73" fill="none" stroke="rgb(44, 34, 43)" stroke-width="2" stroke-linejoin="round" filter="url(#fuzzy)" /><polyline points="-36.31,-82.66 -33.75,-84.41 -32.27,-85.43 -31.3,-86.07 -30.55,-86.54 -29.83,-86.96 -29.11,-87.35 -28.43,-87.7 -27.87,-87.97 -27.52,-88.11 -27.43,-88.08 -27.64,-87.85 -28.16,-87.4 -28.97,-86.71 -30.06,-85.81 -31.43,-84.7 -33.07,-83.41 -35,-81.93 -37.33,-80.21 -40.31,-78.03" fill="none" stroke="rgb(44, 34, 43)" stroke-width="2" stroke-linejoin="round" filter="url(#fuzzy)" /><polyline points="-14.29,-93.96 -12.99,-94.02 -11.71,-93.76 -9.59,-93.36 -6.66,-92.84 -3.23,-92.15 0.43,-91.27 4.19,-90.18 8.05,-88.93 12.05,-87.55 16.22,-86.09 20.57,-84.56 25.05,-82.96 29.6,-81.29 34.08,-79.67 38.24,-78.33" fill="none" stroke="rgb(44, 34, 43)" stroke-width="2" stroke-linejoin="round" filter="url(#fuzzy)" /><polyline points="58.9,-54.03 59.68,-52.56 59.89,-51.48 59.54,-50.92 58.77,-50.67 57.61,-50.63 56.08,-50.77 54.15,-51.1 51.8,-51.63 48.99,-52.36 45.69,-53.35 41.87,-54.61 37.51,-56.21 32.6,-58.19 27.12,-60.58 21.07,-63.38 14.45,-66.61 7.24,-70.21 -0.64,-74.13 -9.32,-78.27 -18.81,-82.62" fill="none" stroke="rgb(44, 34, 43)" stroke-width="2" stroke-linejoin="round" filter="url(#fuzzy)" /><polyline points="55.25,-60.84 55.88,-59.69 56.37,-58.78 56.75,-58.03 57.07,-57.32 57.33,-56.62 57.5,-56 57.52,-55.55 57.33,-55.34 56.91,-55.42 56.25,-55.79 55.35,-56.46 54.22,-57.39 52.86,-58.59 51.26,-60.08 49.4,-61.87 47.25,-63.99 44.8,-66.48 42,-69.37 38.78,-72.72 35.1,-76.58 30.95,-80.95 26.4,-85.84" fill="none" stroke="rgb(44, 34, 43)" stroke-width="2" stroke-linejoin="round" filter="url(#fuzzy)" /><polyline points="-21.69,-91.49 -20.34,-91.91 -19.42,-92.18 -18.42,-92.48 -17.38,-92.8 -16.46,-93.08 -15.77,-93.26 -15.36,-93.33 -15.21,-93.26 -15.25,-93.08 -15.49,-92.79 -15.98,-92.38 -16.8,-91.84 -18.07,-91.14 -19.84,-90.25 -22.16,-89.11 -25.03,-87.73 -28.36,-86.15 -31.91,-84.54" fill="none" stroke="rgb(44, 34, 43)" stroke-width="2" stroke-linejoin="round" filter="url(#fuzzy)" /><polyline points="-1.73,-95.85 -0.4,-95.72 0.45,-95.67 1.27,-95.58 2.07,-95.45 2.68,-95.27 2.99,-95.04 2.93,-94.76 2.49,-94.42 1.71,-94.02 0.59,-93.54 -0.93,-92.99 -2.92,-92.33 -5.46,-91.56 -8.56,-90.7 -12.21,-89.77 -16.36,-88.81 -20.95,-87.85 -25.99,-86.9" fill="none" stroke="rgb(44, 34, 43)" stroke-width="2" stroke-linejoin="round" filter="url(#fuzzy)" /><polyline points="-21.69,-91.49 -20.33,-91.91 -19.39,-92.19 -18.34,-92.51 -17.24,-92.85 -16.22,-93.16 -15.39,-93.4 -14.75,-93.56 -14.27,-93.62 -13.91,-93.6 -13.66,-93.49 -13.59,-93.3 -13.77,-93.01 -14.26,-92.6 -15.1,-92.05 -16.29,-91.37 -17.84,-90.53 -19.73,-89.55 -21.94,-88.42 -24.48,-87.16 -27.4,-85.76 -30.85,-84.1 -35.08,-82.01" fill="none" stroke="rgb(44, 34, 43)" stroke-width="2" stroke-linejoin="round" filter="url(#fuzzy)" /><polyline points="36.38,-82.56 37.31,-81.68 38.12,-80.98 38.9,-80.33 39.65,-79.68 40.37,-79.02 41.08,-78.33 41.75,-77.62 42.35,-76.96 42.82,-76.4 43.09,-75.99 43.15,-75.77 42.97,-75.73 42.57,-75.88 41.94,-76.23 41.04,-76.81 39.86,-77.62 38.39,-78.68 36.6,-80 34.43,-81.59 31.82,-83.5 28.77,-85.72 25.32,-88.3" fill="none" stroke="rgb(44, 34, 43)" stroke-width="2" stroke-linejoin="round" filter="url(#fuzzy)" /><polyline points="23.1,-90.37 24.01,-90 25.57,-89.17 27.31,-88.13 29.03,-86.98 30.75,-85.72 32.5,-84.37 34.27,-82.98 35.98,-81.63 37.59,-80.37 39.08,-79.24 40.42,-78.22 41.58,-77.37 42.37,-76.79 42.54,-76.75" fill="none" stroke="rgb(44, 34, 43)" stroke-width="2" stroke-linejoin="round" filter="url(#fuzzy)" /><polyline points="37.43,-81.5 38.21,-80.87 39.07,-80.14 40.03,-79.28 40.99,-78.38 41.95,-77.42 42.91,-76.45 43.81,-75.52 44.54,-74.77 44.98,-74.31 45.05,-74.22 44.72,-74.55 44,-75.28 42.97,-76.37 41.76,-77.65" fill="none" stroke="rgb(44, 34, 43)" stroke-width="2" stroke-linejoin="round" filter="url(#fuzzy)" /><polyline points="40.86,-78.76 42.03,-77.42 43.2,-76.15 44.08,-75.18 44.63,-74.51 44.9,-74.04 44.97,-73.7 44.82,-73.5 44.43,-73.48 43.75,-73.66 42.78,-74.06 41.5,-74.7 39.9,-75.58 37.96,-76.74 35.65,-78.17 32.92,-79.92 29.73,-82.01 26.05,-84.48 21.85,-87.39 17.16,-90.78" fill="none" stroke="rgb(44, 34, 43)" stroke-width="2" stroke-linejoin="round" filter="url(#fuzzy)" /><polyline points="23.62,-90.27 25.13,-89.6 26.65,-88.84 27.92,-88.11 29.11,-87.35 30.31,-86.51 31.51,-85.66 32.65,-84.84 33.72,-84.1 34.7,-83.42 35.58,-82.83 36.32,-82.33 36.88,-81.94 37.23,-81.7 37.33,-81.63 37.17,-81.74 36.7,-82.07 35.9,-82.64 34.72,-83.46 33.15,-84.54" fill="none" stroke="rgb(44, 34, 43)" stroke-width="2" stroke-linejoin="round" filter="url(#fuzzy)" /><polyline points="-29.76,-87.2 -28.72,-87.62 -27.55,-88.21 -26.26,-88.9 -25.09,-89.55 -24.11,-90.1 -23.29,-90.54 -22.55,-90.91 -21.87,-91.2 -21.27,-91.42 -20.77,-91.56 -20.42,-91.6 -20.27,-91.53 -20.38,-91.36 -20.77,-91.05 -21.48,-90.61 -22.49,-90.03 -23.81,-89.28 -25.46,-88.32 -27.53,-87.14 -30.02,-85.76 -32.75,-84.34" fill="none" stroke="rgb(44, 34, 43)" stroke-width="2" stroke-linejoin="round" filter="url(#fuzzy)" /><polyline points="-5.16,-95.49 -3.47,-95.58 -1.9,-95.48 -0.24,-95.25 1.6,-94.92 3.63,-94.51 5.86,-94.04 8.24,-93.52 10.68,-92.98 13.07,-92.41 15.33,-91.85 17.43,-91.32 19.37,-90.85 21.15,-90.44 22.75,-90.09 24.15,-89.76 25.09,-89.53" fill="none" stroke="rgb(44, 34, 43)" stroke-width="2" stroke-linejoin="round" filter="url(#fuzzy)" /><polyline points="48.47,-70.65 49.26,-69.21 49.65,-68.38 49.67,-67.92 49.31,-67.74 48.55,-67.83 47.34,-68.2 45.65,-68.89 43.42,-69.94 40.62,-71.41 37.19,-73.35 33.08,-75.79 28.24,-78.75 22.55,-82.18 15.97,-86.12 8.51,-90.64" fill="none" stroke="rgb(44, 34, 43)" stroke-width="2" stroke-linejoin="round" filter="url(#fuzzy)" /><polyline points="-29.76,-87.2 -28.73,-87.61 -27.62,-88.17 -26.42,-88.83 -25.38,-89.41 -24.56,-89.87 -23.91,-90.21 -23.38,-90.45 -22.94,-90.59 -22.6,-90.63 -22.38,-90.56 -22.31,-90.39 -22.44,-90.08 -22.82,-89.63 -23.51,-89.01 -24.54,-88.19 -25.89,-87.18 -27.51,-86 -29.37,-84.67 -31.5,-83.17 -34.02,-81.44 -37.18,-79.31 -41.18,-76.57" fill="none" stroke="rgb(44, 34, 43)" stroke-width="2" stroke-linejoin="round" filter="url(#fuzzy)" /><polyline points="18.33,-92.29 19.46,-91.99 20.34,-91.65 21.04,-91.28 21.62,-90.89 22.06,-90.51 22.3,-90.14 22.23,-89.81 21.8,-89.5 20.98,-89.23 19.8,-89 18.25,-88.8 16.32,-88.66 13.96,-88.59 11.12,-88.57 7.78,-88.62 3.92,-88.74 -0.47,-88.94 -5.4,-89.23 -10.91,-89.61 -16.91,-90.09" fill="none" stroke="rgb(44, 34, 43)" stroke-width="2" stroke-linejoin="round" filter="url(#fuzzy)" /><polyline points="-31.33,-86.14 -29.85,-86.94 -28.29,-87.54 -26.46,-88.16 -24.42,-88.82 -22.29,-89.44 -20.14,-89.99 -17.94,-90.48 -15.67,-90.92 -13.29,-91.33 -10.8,-91.72 -8.25,-92.09 -5.67,-92.46 -3.12,-92.83 -0.68,-93.19 1.6,-93.55 3.65,-93.88 5.44,-94.17 6.97,-94.43 8.14,-94.66" fill="none" stroke="rgb(44, 34, 43)" stroke-width="2" stroke-linejoin="round" filter="url(#fuzzy)" /><polyline points="59.88,-52.75 60.65,-50.89 60.93,-50.13 61.08,-49.59 61.14,-49.2 61.08,-49 60.86,-49.04 60.46,-49.39 59.83,-50.1 58.92,-51.25 57.72,-52.89 56.18,-55.11 54.24,-58.01 51.81,-61.73 48.76,-66.39 45.05,-72.08" fill="none" stroke="rgb(44, 34, 43)" stroke-width="2" stroke-linejoin="round" filter="url(#fuzzy)" /><polyline points="21.21,-91.49 22.6,-90.72 23.67,-90.2 24.63,-89.7 25.39,-89.23 25.89,-88.8 26.12,-88.38 26.1,-87.97 25.83,-87.58 25.29,-87.22 24.49,-86.92 23.4,-86.68 22.01,-86.49 20.27,-86.36 18.16,-86.28 15.63,-86.26 12.68,-86.32 9.31,-86.44 5.53,-86.64 1.36,-86.9 -3.2,-87.23 -8.1,-87.63 -13.34,-88.1 -19.03,-88.68" fill="none" stroke="rgb(44, 34, 43)" stroke-width="2" stroke-linejoin="round" filter="url(#fuzzy)" /><polyline points="55.9,-59.7 56.39,-58.58 56.36,-57.96 56.03,-57.37 55.39,-56.79 54.37,-56.3 52.91,-56 50.95,-55.96 48.47,-56.22 45.44,-56.77 41.86,-57.55 37.73,-58.56 33.05,-59.76 27.83,-61.18 22.07,-62.84 15.74,-64.76 8.8,-66.93 1.16,-69.36 -7.23,-72.08 -16.32,-75.16 -25.81,-78.77" fill="none" stroke="rgb(44, 34, 43)" stroke-width="2" stroke-linejoin="round" filter="url(#fuzzy)" /><polyline points="-34.85,-83.59 -34.72,-83.7 -33.33,-84.61 -31.84,-85.55 -30.51,-86.34 -29.28,-87.04 -28.05,-87.71 -26.76,-88.38 -25.44,-89.07 -24.18,-89.73 -23.1,-90.32 -22.27,-90.79 -21.72,-91.14 -21.41,-91.36 -21.34,-91.45 -21.49,-91.41 -21.89,-91.23 -22.51,-90.92 -23.27,-90.49" fill="none" stroke="rgb(44, 34, 43)" stroke-width="2" stroke-linejoin="round" filter="url(#fuzzy)" /><polyline points="58.28,-55.5 58.98,-54.08 59.72,-52.66 60.28,-51.5 60.63,-50.69 60.81,-50.17 60.84,-49.91 60.71,-49.92 60.41,-50.23 59.91,-50.88 59.18,-51.94 58.19,-53.47 56.9,-55.52 55.28,-58.21 53.31,-61.61 51.08,-65.67" fill="none" stroke="rgb(44, 34, 43)" stroke-width="2" stroke-linejoin="round" filter="url(#fuzzy)" /><polyline points="-15.21,-93.48 -0.68,-87.77 10.18,-75.59 18.08,-67.45 19.97,-66.17 19.08,-68.96 17.92,-72.66 16.29,-75.81 13.6,-78.37 10.48,-80.69 8.52,-82.92 8.85,-84.8 11.51,-85.81 15.73,-85.35 20.73,-83.07 25.89,-79.15 30.45,-74.58 32.76,-71.28 30.34,-71.58 22.8,-75.74 20.79,-76.36 58.28,-55.5" fill="none" stroke="rgb(44, 34, 43)" stroke-width="2" stroke-linejoin="round" filter="url(#fuzzy)" /><polyline points="38.25,-80.99 -2.52,-85.89 -12.14,-87.88 -9.83,-85.81 -5.28,-81.86 -4.18,-78.58 -7.17,-77.2 -11.48,-77.67 -14.23,-79.34 -14.45,-81.55 -12.89,-83.86 -10.85,-85.97 -9.08,-87.57 -7.17,-88.28 -3.6,-87.82 3.25,-86.14 13.1,-83.37 22.55,-79.04 31.28,-69.11 66.43,-35.61" fill="none" stroke="rgb(44, 34, 43)" stroke-width="2" stroke-linejoin="round" filter="url(#fuzzy)" /><polyline points="16.52,-93.09 -9.43,-85.25 0.49,-81.98 15.75,-80.38 25.42,-80.14 28.59,-80.09 26.83,-79.42 21.75,-78.46 15.12,-78.16 9.04,-79.17 5.47,-81.19 5.57,-83.19 9.3,-83.95 15.45,-82.68 21.98,-79.43 26.34,-75.16 26.25,-71.65 21.21,-70.91 14.55,-73.83 12.47,-79.04 13.4,-84.15 -12.74,-94.04" fill="none" stroke="rgb(44, 34, 43)" stroke-width="2" stroke-linejoin="round" filter="url(#fuzzy)" /><polyline points="51.43,-66.52 14.1,-81.85 2.52,-81.99 0.82,-78.1 1.98,-75.08 4.96,-73.9 10.16,-73.73 17.01,-73.78 23.5,-74.02 27.29,-74.81 26.88,-76.38 22.37,-78.59 15.33,-81.05 8.23,-83.32 3.42,-84.98 2.28,-85.57 4.55,-84.62 8.28,-82.04 10.37,-78.59 8.15,-76.31 2.12,-77.82 -1.8,-83.99 2.46,-91.37 0.22,-95.88" fill="none" stroke="rgb(44, 34, 43)" stroke-width="2" stroke-linejoin="round" filter="url(#fuzzy)" /><polyline points="-16.87,-92.84 27.51,-73.37 36.77,-69.66 29.89,-74.14 18.99,-79.45 8.71,-82.36 0.7,-82.3 -4.22,-79.95 -6.95,-76.64 -10.34,-73.96 -16.63,-73.22 -23.96,-74.97 -26.17,-79.09 -17.16,-84.49 4.47,-87.92 36.4,-82.57" fill="none" stroke="rgb(44, 34, 43)" stroke-width="2" stroke-linejoin="round" filter="url(#fuzzy)" /><polyline points="0.22,-95.88 18.08,-68.06 8.74,-70.91 2.46,-76.42 0.59,-77.91 0.88,-76.42 0.65,-74.35 -1.46,-73.14 -4.59,-72.97 -6.67,-73.36 -6.17,-73.89 -2.99,-74.5 1.92,-75.34 7.21,-76.46 11.6,-77.72 13.92,-78.95 13.22,-79.99 9.13,-80.41 2.81,-79.12 -2.68,-75.13 -8.18,-70.13 -50.17,-67.87" fill="none" stroke="rgb(44, 34, 43)" stroke-width="2" stroke-linejoin="round" filter="url(#fuzzy)" /><polyline points="28.11,-88.23 -3.05,-85.57 -10.58,-85.9 -16.87,-84.26 -19.96,-81.69 -16.89,-79.91 -7.93,-78.75 4.9,-76.68 18.64,-72.85 29.32,-68.46 32.59,-66.49 26.38,-69.67 13.82,-78.08 2.85,-88.09 -0.73,-94.45 -3.2,-95.73" fill="none" stroke="rgb(44, 34, 43)" stroke-width="2" stroke-linejoin="round" filter="url(#fuzzy)" /><polyline points="-46.01,-73.21 -25.12,-78.58 -3.39,-81.14 5.46,-81.34 6.75,-79.61 5.78,-76.55 4.54,-73.56 3.94,-71.94 4.85,-72.2 7.47,-74.16 10.89,-77.2 13.9,-80.31 16.58,-81.93 20.62,-80.33 27.38,-74.91 34.12,-68.13 31.55,-65.75 6.51,-71.42 -48.99,-69.31" fill="none" stroke="rgb(44, 34, 43)" stroke-width="2" stroke-linejoin="round" filter="url(#fuzzy)" /><polyline points="58.9,-54.03 30.62,-72.11 13.85,-79.66 16.21,-78.67 27.36,-73.21 37.83,-68.15 43.35,-66.34 43.91,-67.83 41.43,-70.93 37.9,-73.78 34.54,-75.37 31.87,-75.61 29.93,-75.07 28.29,-74.58 26.02,-74.95 22.14,-76.7 16.79,-79.69 11.48,-82.91 6.3,-85.33 -5.59,-87.32 -31.92,-85.76" fill="none" stroke="rgb(44, 34, 43)" stroke-width="2" stroke-linejoin="round" filter="url(#fuzzy)" /><polyline points="1.62,-95.58 33.3,-76.36 46.86,-65.45 47.55,-61.24 37.86,-61.25 22.14,-64.34 6.85,-69.62 -2.99,-75.82 -6.45,-81.35 -6.2,-84.84 -5.81,-85.76 -7.06,-84.63 -8.7,-82.59 -6.99,-80.52 2.26,-78.48 20.12,-75.82 40.9,-71.27 55.9,-59.7" fill="none" stroke="rgb(44, 34, 43)" stroke-width="2" stroke-linejoin="round" filter="url(#fuzzy)" /><polyline points="-19.5,-92.19 -1.26,-75.54 26.6,-61.25 42.47,-56.17 48.01,-56.03 47.17,-58.09 43.17,-61.16 38.43,-64.37 34.07,-67.27 29.81,-70.08 24.92,-73.23 19.37,-76.85 14.08,-80.45 10.32,-83.24 8.75,-84.58 8.99,-84.27 10.08,-82.49 11.08,-79.62 11.41,-76.17 10.44,-72.99 7.29,-71.4 1.28,-72.97 -6.27,-78.43 -7.27,-86.16 19.65,-92.03" fill="none" stroke="rgb(44, 34, 43)" stroke-width="2" stroke-linejoin="round" filter="url(#fuzzy)" /><polyline points="7.09,-95.07 30.7,-77.99 27.39,-77.37 18.66,-79.07 9.47,-79.91 1.14,-79.64 -3.72,-78.33 -2.56,-76.05 4.82,-73.17 15.61,-70.66 25.42,-69.85 30.84,-71.61 31.51,-75.37 29.6,-79.03 26.18,-80.7 17.21,-81.21 -5.05,-83.63 -36.31,-82.66" fill="none" stroke="rgb(44, 34, 43)" stroke-width="2" stroke-linejoin="round" filter="url(#fuzzy)" /><polyline points="40.58,-78.93 6.49,-88.22 -4.98,-90.03 -2.98,-87.61 8.15,-82.55 22.43,-76.5 34.8,-71.25 42.98,-67.84 47.08,-66.2 48.1,-65.44 46.82,-64.71 43.35,-63.77 37.8,-62.93 31.01,-62.7 24.51,-63.5 19.15,-65.81 13.99,-70.29 8.94,-77.16 9.24,-85.68 7.26,-95.47" fill="none" stroke="rgb(44, 34, 43)" stroke-width="2" stroke-linejoin="round" filter="url(#fuzzy)" /><polyline points="-12.74,-94.04 16.29,-86.9 23.62,-84.6 22.86,-84.31 24.31,-81.3 29.72,-75.35 35.95,-69.38 39.62,-66.32 39.63,-67.01 37.05,-70.12 33.54,-73.49 29.86,-75.53 25.55,-75.92 19.75,-75.25 12.57,-74.3 5.7,-73.48 1.63,-72.84 1.55,-72.66 3.52,-73.74 2.94,-76.9 -3.61,-81.6 -13,-85.45 -13.47,-86.93 16.2,-93.24" fill="none" stroke="rgb(44, 34, 43)" stroke-width="2" stroke-linejoin="round" filter="url(#fuzzy)" /><polyline points="-30.29,-86.65 22.33,-72.76 45.24,-61.37 54.13,-54.71 56.04,-52.27 53.16,-53.55 45.68,-57.96 33.88,-64.22 19.45,-70.79 6.11,-76.68 -1.48,-81.52 -0.33,-85.16 8.33,-86.96 20.35,-85.08 35.44,-75.06 62.02,-47.38" fill="none" stroke="rgb(44, 34, 43)" stroke-width="2" stroke-linejoin="round" filter="url(#fuzzy)" /><polyline points="16.2,-93.24 -21.05,-73.61 -15.94,-68.83 -4.64,-69.17 1.45,-70.06 3.72,-70.61 4.95,-72.32 6.38,-76.04 8.09,-80.6 8.96,-83.74 6.62,-84.03 -1.17,-82.05 -13.72,-80.11 -25.13,-80.75 -28.77,-84.2 -36.31,-82.66" fill="none" stroke="rgb(44, 34, 43)" stroke-width="2" stroke-linejoin="round" filter="url(#fuzzy)" /><polyline points="53.95,-62.62 48.77,-68.99 42.13,-74.45 32.13,-78.87 19.86,-81.89 8.95,-83.58 2.34,-84.49 0.25,-85.08 0.69,-85.52 1.27,-85.7 0.67,-85.29 -1.28,-83.83 -4.4,-81.02 -8.78,-77.13 -14.58,-73.3 -21.02,-71.06 -25.85,-71.45 -26.45,-73.92 -23.02,-76.18 -21.79,-75.57 -33.01,-71.58 -48.99,-69.31" fill="none" stroke="rgb(44, 34, 43)" stroke-width="2" stroke-linejoin="round" filter="url(#fuzzy)" /><polyline points="-19.5,-92.19 31.21,-64.03 41.1,-63.37 34.86,-72.21 25.54,-80.46 18.96,-84.98 16.4,-86.05 16.6,-84.87 17.92,-82.25 19.82,-78.33 22.76,-73.13 27.08,-67.06 31.72,-61.25 34.08,-57.29 31.37,-56.59 22.59,-59.88 9.86,-66.68 -1.89,-75.17 -7.02,-82.69 -1.24,-86.97 16.49,-87 37.43,-81.5" fill="none" stroke="rgb(44, 34, 43)" stroke-width="2" stroke-linejoin="round" filter="url(#fuzzy)" /><polyline points="40.86,-78.76 36.97,-77.03 33.68,-74.85 24.46,-77.54 15.32,-79.8 9.85,-79.09 8.21,-76.23 8.79,-73.3 9.54,-71.91 8.7,-72.54 5.56,-74.67 0.87,-77.33 -3.42,-79.62 -5.07,-80.89 -2.66,-80.75 3.61,-79.06 11.88,-76.04 19.26,-72.46 22.95,-69.66 21.48,-69.16 15.43,-72.03 7.6,-77.81 3.63,-83.16 13.89,-80.23 56.94,-57.72" fill="none" stroke="rgb(44, 34, 43)" stroke-width="2" stroke-linejoin="round" filter="url(#fuzzy)" /><polyline points="-31.92,-85.76 -15.87,-88.52 5.4,-85.83 21.61,-80.57 30.45,-76.07 34.27,-72.9 35.79,-70.83 36.17,-69.99 35.47,-70.5 33.54,-72.01 30.21,-73.82 25.26,-75.3 18.61,-76.11 10.79,-76.19 3.03,-75.76 -3.43,-75.37 -8.2,-75.74 -11.8,-77.42 -14.68,-80.24 -16.19,-83.47 -14.57,-86.59 -5.64,-90.03 18.33,-92.29" fill="none" stroke="rgb(44, 34, 43)" stroke-width="2" stroke-linejoin="round" filter="url(#fuzzy)" /><polyline points="7.26,-95.47 35.05,-67.47 33.26,-58.15 26.29,-58.54 21.77,-62.53 19.32,-66.32 17.03,-68.19 13.52,-68.2 8.85,-67.37 4.35,-66.85 1.53,-67.5 1.04,-69.66 2.37,-72.94 4.27,-76.42 5.42,-79.12 5.04,-80.42 3.54,-80.32 2.87,-79.06 6.02,-76.81 14.78,-73.82 26.32,-71.64 31.65,-74.03 20.68,-84.26 -5.57,-95.58" fill="none" stroke="rgb(44, 34, 43)" stroke-width="2" stroke-linejoin="round" filter="url(#fuzzy)" /><polyline points="64.05,-42.51 58.11,-47.69 40.6,-63.41 22.38,-76.92 8.1,-84.12 -2.35,-85.62 -9.62,-83.96 -13.44,-81.77 -13.67,-80.71 -11.18,-81.1 -7.36,-82.38 -2.96,-83.68 2.36,-84.3 9.08,-83.75 16.37,-81.93 20.94,-79.48 17.6,-77.97 1.87,-78.85 -23.66,-80.6 -39.64,-79.57" fill="none" stroke="rgb(44, 34, 43)" stroke-width="2" stroke-linejoin="round" filter="url(#fuzzy)" /><polyline points="62.02,-47.38 24.86,-75.98 6.36,-83.16 1.32,-83.69 6.98,-80.91 16.96,-75.62 24.96,-69.75 27.85,-65.64 26.12,-64.45 22.4,-65.74 19.18,-68.23 17.41,-70.82 16.44,-73.05 15.07,-74.82 12.77,-76.04 10.05,-76.42 8.06,-75.73 7.98,-74.06 10.54,-71.94 15.66,-70.21 21.9,-69.66 26.73,-70.56 29.55,-71.73 34.07,-72.38 27.68,-88.45" fill="none" stroke="rgb(44, 34, 43)" stroke-width="2" stroke-linejoin="round" filter="url(#fuzzy)" /><polyline points="-38.38,-80.92 8.58,-77.52 11.35,-77.79 6.77,-79.1 6.78,-80.34 8.27,-81.49 6.98,-82.54 3.23,-82.92 0.35,-81.84 0.98,-79.15 5.15,-75.61 10.92,-72.53 16.06,-70.99 19.03,-71.32 19.13,-73.27 19.4,-76.28 46.62,-72.4" fill="none" stroke="rgb(44, 34, 43)" stroke-width="2" stroke-linejoin="round" filter="url(#fuzzy)" /><polyline points="67.15,-31.98 51.06,-58.59 39.23,-67.41 27.21,-71.6 19.62,-72.94 15.95,-71.86 12.5,-69.14 6.68,-65.97 -1.03,-63.68 -7.43,-62.93 -8.66,-63.39 -3.63,-64.35 3.38,-65.87 4.96,-69.36 -0.6,-76.48 -1.72,-87.08 7.09,-95.07" fill="none" stroke="rgb(44, 34, 43)" stroke-width="2" stroke-linejoin="round" filter="url(#fuzzy)" /><polyline points="-56.37,-58.75 -45.38,-70.5 -31.27,-80.59 -19.65,-86.4 -12.4,-88.17 -7.42,-87.31 -2.02,-85.07 4.28,-82.17 9.64,-79.18 11.86,-76.82 10.39,-75.66 6.88,-75.59 4.15,-75.85 4.38,-75.58 7.64,-74.76 11.54,-74.31 12.43,-75.34 7.46,-77.67 -3.61,-79.19 -17.57,-77.17 -26.79,-71.46 -15.45,-67.35 46.29,-73.04" fill="none" stroke="rgb(44, 34, 43)" stroke-width="2" stroke-linejoin="round" filter="url(#fuzzy)" /><polyline points="-21.69,-91.49 19.59,-77.85 30.43,-76.94 32.45,-77.37 29.48,-78.45 24.2,-80.26 19.13,-82.33 14.88,-84.02 10.31,-84.99 4.21,-85.32 -3.23,-85.36 -10.37,-85.48 -15.28,-85.8 -17,-86 -16.13,-85.44 -14.38,-83.46 -13.25,-79.88 -12.46,-75.21 -9.27,-70.54 -0.7,-66.32 15.18,-59.04 66.91,-33.4" fill="none" stroke="rgb(44, 34, 43)" stroke-width="2" stroke-linejoin="round" filter="url(#fuzzy)" /><polyline points="-7.23,-95.26 18.54,-83.26 22.91,-73.43 9.73,-70.21 -5.78,-71.35 -14.66,-74.51 -15.96,-77.67 -12.61,-79.64 -7.95,-80.34 -4.07,-80.34 -1.35,-80.23 1.11,-80.15 4.12,-79.93 7,-79.41 7.49,-78.97 3.67,-79.49 -3.25,-81.74 -8.3,-85.5 -6.27,-88.89 4.83,-88.77 36.4,-82.57" fill="none" stroke="rgb(44, 34, 43)" stroke-width="2" stroke-linejoin="round" filter="url(#fuzzy)" /><polyline points="-54.17,-62.66 -17.76,-74.22 3.42,-77.89 7.18,-80.99 4.04,-82.02 1.65,-80.9 2.6,-78.96 5.95,-77.49 9.4,-77.01 10.93,-77.31 9.74,-77.81 6.44,-77.99 2.51,-77.62 -0.66,-76.82 -2.48,-76.02 -3.15,-75.65 -3.19,-76.06 -2.84,-77.3 -1.78,-79.09 0.85,-80.64 6.29,-80.73 16.07,-78.39 32.07,-74.27 45.16,-74.18" fill="none" stroke="rgb(44, 34, 43)" stroke-width="2" stroke-linejoin="round" filter="url(#fuzzy)" /><polyline points="55.9,-59.7 25.57,-72.74 3.3,-80.37 -4.03,-85.34 -3.88,-86.73 -1.23,-84.88 1.96,-81.41 4.81,-78.26 6.46,-76.73 6.2,-77.16 4.08,-78.95 1.24,-81.04 -0.43,-82.36 0.81,-82.18 5.52,-80.26 12.36,-77.04 18.16,-73.71 18.92,-71.92 12.01,-73.07 -1.13,-77.42 -14.76,-83.32 -24.87,-86.66 -36.25,-82.44" fill="none" stroke="rgb(44, 34, 43)" stroke-width="2" stroke-linejoin="round" filter="url(#fuzzy)" /><polyline points="7.26,-95.47 17.37,-86.21 19.21,-80.03 13.05,-79.07 7.63,-78.76 4.83,-77.86 2.96,-77.42 0.54,-78.43 -2.77,-80.74 -6.61,-83.24 -10.2,-84.63 -12.33,-84.1 -11.55,-81.56 -6.78,-77.75 1.59,-74.01 10.94,-71.93 16.91,-72.72 15.71,-76.43 7.03,-81.38 -4.12,-84.45 -8.12,-81.87 8.11,-68.45 67.25,-31.89" fill="none" stroke="rgb(44, 34, 43)" stroke-width="2" stroke-linejoin="round" filter="url(#fuzzy)" /><polyline points="-51.99,-65.62 -2.22,-78.86 17.71,-81.63 22.12,-81.51 22.12,-79.04 22.46,-75.51 22.96,-72.56 21.79,-70.86 18.36,-69.98 13.87,-69.15 9.83,-68.13 6.1,-67.48 0.72,-68.25 -7.39,-70.7 -12.52,-72.27 3.17,-65.94 65.98,-37.02" fill="none" stroke="rgb(44, 34, 43)" stroke-width="2" stroke-linejoin="round" filter="url(#fuzzy)" /><polyline points="40.51,-78.97 15.29,-77.67 23.81,-72.68 27.97,-72.77 24.82,-76.49 19.54,-80.09 15.56,-81.85 13.23,-82.08 11.8,-81.71 11.15,-81.07 11.97,-79.66 14.68,-76.95 18.43,-73.33 20.85,-70.42 19.1,-69.93 11.94,-71.62 1.98,-72.85 -2.1,-73.09 34.07,-84.01" fill="none" stroke="rgb(44, 34, 43)" stroke-width="2" stroke-linejoin="round" filter="url(#fuzzy)" /><polyline points="-31.33,-86.14 -10.83,-90.81 -2.39,-89.5 3.97,-86.09 6.02,-83.94 5.29,-83.18 6.54,-81.82 12.92,-77.91 23.67,-71.21 34.92,-63.46 42.06,-57.75 41.95,-57.01 34.43,-62.3 22.63,-71.79 12.33,-81.02 9.93,-84.81 19.92,-79.55 41.89,-64.84 62.42,-46.48" fill="none" stroke="rgb(44, 34, 43)" stroke-width="2" stroke-linejoin="round" filter="url(#fuzzy)" /><polyline points="12.54,-94.32 -5.9,-80.59 1.95,-77.78 11.54,-77.73 19.22,-77.62 22.82,-76.99 21.22,-76.34 15.36,-76.09 7.75,-76.13 0.86,-75.99 -3.9,-75.39 -6.26,-74.53 -6.54,-73.99 -5.44,-74.31 -3.95,-75.76 -3.12,-78.3 -3.43,-81.59 -4.37,-84.91 -4.89,-87.03 -4.42,-86.51 -2.98,-82.69 0.3,-77.35 5.12,-76.79 -16.87,-92.84" fill="none" stroke="rgb(44, 34, 43)" stroke-width="2" stroke-linejoin="round" filter="url(#fuzzy)" /><polyline points="16.52,-93.09 24.82,-85.59 13.1,-86.94 0.82,-89 -5.97,-90.12 -7.03,-90.12 -3.59,-89.05 2.45,-87.1 8.63,-84.57 12.77,-81.84 13.97,-79.2 12.83,-76.83 10.79,-74.88 9.03,-73.67 7.76,-73.55 6.56,-74.71 5.31,-76.85 5.03,-79.17 7.64,-80.67 14.43,-80.38 24.89,-76.97 37.88,-68.15 53.1,-53.38 61.52,-48.84" fill="none" stroke="rgb(44, 34, 43)" stroke-width="2" stroke-linejoin="round" filter="url(#fuzzy)" /><polyline points="64.77,-40.42 6.73,-68.56 -7.93,-81.59 -15.63,-84.73 -21.67,-83.66 -23.52,-81.79 -19.88,-79.88 -11.98,-77.12 -1.92,-72.81 8.53,-67.7 17.51,-63.77 22.62,-62.61 22.18,-64.15 16.94,-68.11 10.74,-77.14 27.68,-88.45" fill="none" stroke="rgb(44, 34, 43)" stroke-width="2" stroke-linejoin="round" filter="url(#fuzzy)" /><polyline points="-4.92,-95.49 -3.28,-95.67 -1.4,-95.73 0.99,-95.68 3.93,-95.53 7.29,-95.3 10.76,-94.98 14.07,-94.58 17.09,-94.1 19.89,-93.55 22.61,-92.91 25.34,-92.2 28.14,-91.41 31.01,-90.53 33.98,-89.56 37.13,-88.51 40.6,-87.37 44.49,-86.18 48.9,-84.92 53.79,-83.63 59,-82.28 64.29,-80.88 69.33,-79.38 73.93,-77.77 78.04,-76.04 81.92,-74.18 86.02,-72.22 90.85,-70.21 96.6,-68.16 102.87,-66.12 108.71,-64.09 113.39,-62.07 117.64,-60.11 123.04,-58.47" fill="none" stroke="rgb(44, 34, 43)" stroke-width="2" stroke-linejoin="round" filter="url(#fuzzy)" /><polyline points="-22.78,-90.86 -22.17,-91.44 -20.23,-92.08 -18.05,-92.76 -15.98,-93.4 -13.97,-93.97 -11.87,-94.45 -9.64,-94.84 -7.28,-95.15 -4.86,-95.37 -2.38,-95.49 0.15,-95.52 2.76,-95.46 5.42,-95.31 8.11,-95.07 10.79,-94.74 13.46,-94.34 16.13,-93.86 18.84,-93.31 21.69,-92.69 24.76,-92 28.09,-91.23 31.63,-90.39 35.31,-89.45 39.41,-88.23" fill="none" stroke="rgb(44, 34, 43)" stroke-width="2" stroke-linejoin="round" filter="url(#fuzzy)" /><polyline points="-23.83,-90.03 -23,-90.75 -21.82,-91.41 -20.22,-92.07 -18.37,-92.74 -16.33,-93.37 -14.09,-93.93 -11.7,-94.41 -9.26,-94.81 -6.82,-95.11 -4.4,-95.33 -1.96,-95.45 0.55,-95.48 3.15,-95.41 5.84,-95.25 8.6,-95 11.39,-94.67 14.21,-94.26 17.05,-93.76 19.94,-93.2 22.89,-92.56 25.93,-91.85 29.1,-91.05 32.53,-90.17 36.28,-89.2 40.33,-88.12 44.43,-86.92 48.53,-85.58 53.84,-84.01" fill="none" stroke="rgb(44, 34, 43)" stroke-width="2" stroke-linejoin="round" filter="url(#fuzzy)" /><polyline points="-40.97,-78.33 -39.43,-79.84 -37.32,-81.61 -35.33,-83.21 -33.57,-84.6 -31.96,-85.82 -30.37,-86.94 -28.76,-88 -27.17,-89.01 -25.66,-89.97 -24.28,-90.85 -22.96,-91.67 -21.58,-92.41 -19.99,-93.08 -18.04,-93.68 -15.7,-94.21 -13,-94.67 -10.07,-95.04 -7.04,-95.33 -4.03,-95.52 -1.03,-95.62 2.08,-95.62 5.4,-95.53 8.91,-95.35 12.37,-95.09 16.02,-94.69" fill="none" stroke="rgb(44, 34, 43)" stroke-width="2" stroke-linejoin="round" filter="url(#fuzzy)" /><polyline points="69.92,-20.18 81.51,-18.26 82.54,-15.35 81.07,-12.3 79.69,-9.34 78.82,-6.46 78.51,-3.61 78.74,-0.78 79.39,2.04 80.24,4.85 81.13,7.66 82,10.49 82.81,13.36 83.51,16.26 83.96,19.18 84.09,22.08 84.04,24.94 84.11,27.77 84.57,30.55 85.49,33.3 86.59,36.01 87.51,38.69 88.07,41.46 88.58,44.53 90.08,48.23" fill="none" stroke="rgb(44, 34, 43)" stroke-width="2" stroke-linejoin="round" filter="url(#fuzzy)" /><polyline points="-42.18,-77.42 -40.13,-79.24 -38.4,-80.76 -36.8,-82.13 -35.22,-83.44 -33.57,-84.74 -31.84,-86.01 -30.03,-87.23 -28.15,-88.37 -26.18,-89.43 -24.12,-90.4 -21.95,-91.29 -19.69,-92.1 -17.38,-92.82 -15.04,-93.47 -12.7,-94.03 -10.4,-94.51 -8.14,-94.9 -5.92,-95.18 -3.73,-95.37 -1.52,-95.46 0.76,-95.47 3.12,-95.41 5.57,-95.27 8.11,-95.05 10.73,-94.76 13.39,-94.39 15.8,-93.87" fill="none" stroke="rgb(44, 34, 43)" stroke-width="2" stroke-linejoin="round" filter="url(#fuzzy)" /><polyline points="-46.01,-73.21 -50.66,-75.83 -49.94,-77.62 -46.38,-79.19 -42.64,-80.65 -39.59,-82.05 -37.17,-83.4 -35.09,-84.71 -33.12,-85.98 -31.17,-87.19 -29.21,-88.33 -27.24,-89.39 -25.25,-90.36 -23.22,-91.25 -21.12,-92.06 -18.93,-92.78 -16.64,-93.41 -14.24,-93.96 -11.75,-94.42 -9.18,-94.78 -6.5,-95.04 -3.71,-95.22 -0.8,-95.3 2.23,-95.29 5.39,-95.19 8.66,-95.02 12.05,-94.76 15.56,-94.42 19.2,-94 22.96,-93.5 26.84,-92.93 30.83,-92.31 34.92,-91.61 39.15,-90.83 43.58,-89.93 48.21,-88.91 52.93,-87.73 58.11,-85.89" fill="none" stroke="rgb(44, 34, 43)" stroke-width="2" stroke-linejoin="round" filter="url(#fuzzy)" /><polyline points="-46.52,-72.61 -49.82,-73.99 -52.35,-75.79 -51.73,-77.5 -49.34,-79.08 -46.55,-80.56 -43.87,-81.97 -41.33,-83.32 -38.9,-84.64 -36.62,-85.91 -34.54,-87.12 -32.7,-88.26 -31.06,-89.33 -29.48,-90.31 -27.8,-91.21 -25.86,-92.02 -23.56,-92.75 -20.89,-93.4 -17.92,-93.96 -14.73,-94.43 -11.46,-94.81 -8.16,-95.09 -4.89,-95.27 -1.61,-95.36 1.69,-95.37 5.06,-95.29 8.49,-95.13 12.02,-94.89 15.7,-94.56 19.58,-94.14 23.71,-93.64 27.93,-93.06 31.85,-92.47 35.03,-91.95 37.93,-91.49" fill="none" stroke="rgb(44, 34, 43)" stroke-width="2" stroke-linejoin="round" filter="url(#fuzzy)" /><polyline points="-50.17,-67.87 -52.12,-69.33 -52.45,-71.07 -52.73,-72.94 -53.66,-74.77 -54.65,-76.51 -54.87,-78.15 -53.88,-79.74 -51.68,-81.27 -48.58,-82.74 -45.02,-84.12 -41.44,-85.41 -38.2,-86.61 -35.46,-87.73 -33.25,-88.77 -31.43,-89.75 -29.8,-90.67 -28.15,-91.51 -26.3,-92.28 -24.13,-92.98 -21.59,-93.61 -18.69,-94.17 -15.51,-94.65 -12.17,-95.06 -8.8,-95.38 -5.51,-95.61 -2.26,-95.74 1.23,-95.74 5.57,-95.55" fill="none" stroke="rgb(44, 34, 43)" stroke-width="2" stroke-linejoin="round" filter="url(#fuzzy)" /><polyline points="-54.77,-61.9 -58.48,-63.23 -56.95,-65.02 -55.75,-67 -55.06,-69.1 -54.11,-71.22 -52.57,-73.26 -50.6,-75.18 -48.59,-76.97 -46.88,-78.63 -45.62,-80.18 -44.8,-81.65 -44.17,-83.04 -43.44,-84.38 -42.33,-85.66 -40.7,-86.89 -38.56,-88.05 -36.03,-89.14 -33.27,-90.14 -30.39,-91.07 -27.47,-91.91 -24.51,-92.67 -21.5,-93.35 -18.43,-93.94 -15.31,-94.45 -12.18,-94.87 -9.05,-95.18 -5.89,-95.39 -2.6,-95.5 0.94,-95.52 4.8,-95.47 8.93,-95.34 13.15,-95.13 17.14,-94.87" fill="none" stroke="rgb(44, 34, 43)" stroke-width="2" stroke-linejoin="round" filter="url(#fuzzy)" /><polyline points="-56.62,-58.53 -57.27,-61.07 -61.12,-63.04 -63.51,-64.97 -63.2,-66.97 -60.97,-69.05 -57.89,-71.13 -54.81,-73.16 -52.13,-75.08 -49.95,-76.87 -48.21,-78.54 -46.77,-80.1 -45.52,-81.58 -44.35,-82.98 -43.17,-84.32 -41.87,-85.61 -40.41,-86.84 -38.75,-88.01 -36.87,-89.1 -34.74,-90.12 -32.33,-91.05 -29.63,-91.9 -26.66,-92.67 -23.48,-93.35 -20.16,-93.96 -16.8,-94.48 -13.44,-94.91 -10.11,-95.24 -6.75,-95.45 -3.25,-95.55 0.5,-95.58 4.63,-95.58 9.73,-95.59" fill="none" stroke="rgb(44, 34, 43)" stroke-width="2" stroke-linejoin="round" filter="url(#fuzzy)" /><polyline points="-64.58,-40.17 -64.6,-43.14 -64.41,-46.02 -63.85,-48.78 -62.92,-51.39 -61.75,-53.88 -60.45,-56.34 -59.09,-58.8 -57.71,-61.24 -56.34,-63.63 -54.98,-65.93 -53.63,-68.12 -52.23,-70.2 -50.73,-72.16 -49.09,-74.04 -47.32,-75.83 -45.45,-77.54 -43.54,-79.18 -41.64,-80.76 -39.78,-82.27 -37.96,-83.7 -36.17,-85.04 -34.4,-86.28 -32.6,-87.45 -30.73,-88.54 -28.79,-89.57 -26.75,-90.52 -24.64,-91.4 -22.46,-92.2 -20.21,-92.95 -17.98,-93.63 -15.92,-94.21 -13.66,-94.62" fill="none" stroke="rgb(44, 34, 43)" stroke-width="2" stroke-linejoin="round" filter="url(#fuzzy)" /><polyline points="67.62,-30.7 75.73,-27.22 75.24,-24.12 74.16,-21.27 74.71,-18.46 76.93,-15.6 80.08,-12.69 83.29,-9.79 85.95,-6.9 87.95,-4.05 89.54,-1.21 91.02,1.61 92.47,4.42 93.75,7.22 94.62,10.03 94.96,12.89 94.9,15.79 94.84,18.73 95.28,21.65 96.71,24.52 99.33,27.32 102.69,30.12 105.29,33.15 104.66,36.61" fill="none" stroke="rgb(44, 34, 43)" stroke-width="2" stroke-linejoin="round" filter="url(#fuzzy)" /><polyline points="65.98,-37.02 66.69,-35.03 67.53,-32.57 68.24,-29.91 68.82,-27.12 69.33,-24.26 69.78,-21.39 70.22,-18.49 70.62,-15.58 70.99,-12.65 71.3,-9.72 71.54,-6.8 71.72,-3.9 71.84,-1.01 71.89,1.86 71.89,4.73 71.82,7.61 71.68,10.49 71.48,13.4 71.19,16.32 70.84,19.24 70.4,22.15 69.87,25.04 69.27,27.9 68.58,30.73 67.83,33.52 67.01,36.29 66.15,39.02 65.26,41.7 64.35,44.33 63.42,46.86 62.48,49.3 61.48,51.67 60.37,54.05 59.12,56.55 57.74,59.1 56.51,61.12" fill="none" stroke="rgb(44, 34, 43)" stroke-width="2" stroke-linejoin="round" filter="url(#fuzzy)" /><polyline points="51.43,-66.52 53.42,-63.92 55.36,-61.23 57.04,-58.67 58.45,-56.18 59.67,-53.72 60.83,-51.25 62,-48.76 63.15,-46.23 64.27,-43.67 65.31,-41.08 66.24,-38.47 67.08,-35.84 67.83,-33.19 68.53,-30.5 69.18,-27.77 69.82,-24.99 70.43,-22.16 71.03,-19.3 71.59,-16.41 72.12,-13.5 72.58,-10.59 72.97,-7.67 73.28,-4.76 73.51,-1.87 73.65,1.01 73.7,3.88 73.68,6.74 73.6,9.62 73.45,12.52 73.25,15.46 72.97,18.42 72.61,21.39 72.16,24.31 71.64,27.17 71.08,30.03 70.44,33.1 69.52,36.61" fill="none" stroke="rgb(44, 34, 43)" stroke-width="2" stroke-linejoin="round" filter="url(#fuzzy)" /><polyline points="34.07,-84.01 36.66,-82.76 38.86,-81.62 41.2,-80.33 43.86,-78.79 46.67,-77.04 49.37,-75.14 51.84,-73.15 54.1,-71.12 56.22,-69.07 58.27,-67.01 60.29,-64.94 62.34,-62.85 64.46,-60.72 66.67,-58.55 68.98,-56.34 71.35,-54.06 73.71,-51.74 76.02,-49.35 78.26,-46.89 80.46,-44.35 82.64,-41.73 84.8,-39.03 86.94,-36.29 89.02,-33.54 91.04,-30.77 93.03,-27.98 94.98,-25.14 96.86,-22.26 98.58,-19.35 100.14,-16.4 101.82,-13.36 104.12,-10.17 106.92,-7.5" fill="none" stroke="rgb(44, 34, 43)" stroke-width="2" stroke-linejoin="round" filter="url(#fuzzy)" /><polyline points="18.33,-92.29 20.24,-91.44 22.06,-90.52 23.95,-89.5 25.64,-88.37 26.99,-87.15 28.1,-85.88 29.11,-84.57 30.13,-83.25 31.15,-81.9 32.12,-80.47 32.97,-78.94 33.64,-77.28 34.08,-75.49 34.29,-73.61 34.29,-71.64 34.12,-69.64 33.86,-67.61 33.51,-65.56 33.05,-63.51 32.46,-61.42 31.71,-59.3 30.86,-57.11 29.96,-54.86 28.97,-52.57 27.74,-50.29 26.12,-48.06 24.07,-45.88 21.42,-43.54 16.47,-40.42" fill="none" stroke="rgb(44, 34, 43)" stroke-width="2" stroke-linejoin="round" filter="url(#fuzzy)" /><polyline points="7.87,-95.21 10.32,-94.72 12.54,-94.18 14.62,-93.59 16.63,-92.93 18.65,-92.21 20.75,-91.4 22.91,-90.5 25.11,-89.51 27.31,-88.42 29.49,-87.25 31.6,-86.03 33.63,-84.75 35.56,-83.44 37.4,-82.09 39.2,-80.67 41.01,-79.15 42.86,-77.52 44.78,-75.77 46.74,-73.9 48.7,-71.95 50.6,-69.95 52.43,-67.92 54.18,-65.89 55.89,-63.85 57.57,-61.8 59.23,-59.71 60.88,-57.56 62.51,-55.29 64.1,-52.95 65.3,-50.79" fill="none" stroke="rgb(44, 34, 43)" stroke-width="2" stroke-linejoin="round" filter="url(#fuzzy)" /><polyline points="2.9,-95.55 6.06,-95.39 8.39,-95.08 10.59,-94.65 12.73,-94.14 14.83,-93.56 16.9,-92.91 19.01,-92.18 21.2,-91.37 23.5,-90.47 25.95,-89.48 28.51,-88.4 31.13,-87.24 33.71,-86.02 36.19,-84.75 38.51,-83.43 40.69,-82.06 42.77,-80.62 44.83,-79.08 46.96,-77.44 49.18,-75.69 51.49,-73.83 53.86,-71.89 56.19,-69.89 58.44,-67.86 60.57,-65.81 62.59,-63.75 64.51,-61.67 66.34,-59.55 68.14,-57.36 69.98,-55.09 71.93,-52.74 73.92,-50.36 75.65,-48.1 76.32,-46.48" fill="none" stroke="rgb(44, 34, 43)" stroke-width="2" stroke-linejoin="round" filter="url(#fuzzy)" />
    </g>
    
        <g id="lineNose">
        <path d="M -11.14,26.599999999999998 Q 10.46, 48.989999999999995 -0.33999999999999986, -5.58" fill="none" stroke="black" stroke-width="3" stroke-linejoin="round" filter="url(#fuzzy)"></path>
        </g>
      
    <g id="mouth">
      <polyline points="22.96,64.35 22.97,64.94 22.85,65.11 22.87,65.97 22.83,66.84 22.9,66.43 22.37,68.02 22.31,68.45 22.24,68.2 22.38,68.08 21.6,69.64 21.72,69.38 21.24,70.23 21.35,70.24 20.68,71.07 20.36,71.61 20.58,71.24 20.65,71.25 18.95,72.97 18.85,73.11 19.47,72.61 18.09,73.87 18.63,73.4 17.94,74.02 16.67,74.96 16.91,74.65 15.35,75.77 15.57,75.57 15.34,75.7 14.27,76.42 13.05,77.02 14.03,76.46 11.97,77.5 11.39,77.76 10.63,78.03 10.57,78.04 10.96,77.89 9.55,78.44 7.57,79.02 6.3,79.38 7.38,79.09 5.55,79.55 4.55,79.76 4.87,79.68 5.02,79.67 3.13,80.02 3.56,79.95 0.66,80.33 0.56,80.34 -0.21,80.4 -1.12,80.46 -1.01,80.46 -1.75,80.49 -3.99,80.52 -4.61,80.52 -4.9,80.51 -6.08,80.45 -4.74,80.49 -5.65,80.47 -7.07,80.36 -9.02,80.14 -8.52,80.2 -10.51,79.86 -9,80.12 -11.41,79.72 -12.6,79.47 -12.24,79.5 -14.23,78.96 -13.31,79.27 -14.33,78.95 -14.15,79 -16.35,78.21 -16.27,78.19 -17.67,77.71 -17.93,77.52 -17.48,77.77 -17.45,77.75 -18.09,77.39 -20.5,76.03 -20.59,76.02 -20.41,76.1 -21.5,75.23 -20.77,75.87 -22.25,74.64 -22.96,74.04 -22.8,74.14 -23.13,73.89 -23.84,73.14 -23.36,73.61 -23.69,73.23 -24.49,71.93 -24.29,72.43 -25.07,71.25 -24.6,71.88 -25.46,70.12 -25.61,69.55 -25.43,70.08 -25.75,69.24 -25.71,69.22 -25.89,67.94 -25.88,67.92 -26,67.62 -26.02,67.75 -25.74,66.02 -25.81,66 -25.64,65.13 -25.71,65.12 -25.47,64.53 -25.3,64.36 -25.49,64.5 -24.94,63.62 -24.95,63.2 -24.43,62.36 -24.34,62.46 -24.24,62.18 -23.22,60.71 -23.81,61.73 -23.5,61.06 -23.11,60.65 -21.98,59.6 -21.15,58.85 -20.88,58.6 -21.12,58.82 -19.65,57.75 -19.66,57.74 -20.6,58.31 -18.26,56.84 -19.43,57.48 -18.68,57.12 -16.46,55.89 -16.02,55.6 -16.81,56.05 -14.69,55.04 -14.12,54.85 -15.08,55.19 -13.73,54.67 -12.08,54.12 -13.26,54.49 -10.32,53.57 -11.53,53.95 -8.66,53.16 -10.44,53.61 -8.66,53.15 -6.52,52.76 -5.78,52.64 -6.73,52.79 -5.91,52.65 -4.09,52.42 -3.58,52.36 -4.02,52.41 -2.25,52.26 -1.78,52.23 -0.14,52.17 -0.68,52.19 1.01,52.18 1.19,52.17 1.73,52.18 2.03,52.19 4.98,52.43 5.11,52.43 6.29,52.59 5.96,52.52 7.7,52.83 7.5,52.8 6.99,52.67 9.92,53.28 9.35,53.13 9.95,53.3 10.41,53.42 12.3,54.01 12.55,54.09 13.67,54.56 13.1,54.25 14.73,54.99 14.3,54.74 14.44,54.84 15.9,55.55 15.73,55.47 16.98,56.15 17.05,56.27 18.59,57.21 17.26,56.4 19.04,57.57 19.33,57.94 19.89,58.54 19.57,58.2 20.69,59.42 20.69,59.44 20.38,59.09 20.84,59.6 20.94,59.74 21.87,60.9 22.15,61.86 22,61.48 22.47,62.72 22.37,62.05 22.49,62.34 22.86,63.88 22.81,63.19 22.65,63.51" fill="rgb(215,127,140)" stroke="black" stroke-width="3" stroke-linejoin="round" filter="url(#fuzzy)" />
    </g>
  </svg>
  