
  <svg viewBox="-100 -100 200 200" xmlns="http://www.w3.org/2000/svg" width="500" height="500" id="face-svg">
    <defs>
      <clipPath id="leftEyeClipPath">
        <polyline points="42.93,-9.73 42.69,-10.01 42.4,-10.29 42.06,-10.55 41.67,-10.81 41.22,-11.04 40.73,-11.27 40.18,-11.49 39.59,-11.69 38.96,-11.88 38.28,-12.07 37.56,-12.24 36.79,-12.4 35.99,-12.56 35.15,-12.7 34.27,-12.83 33.4,-12.99 32.46,-13.13 31.47,-13.27 30.42,-13.39 29.32,-13.51 28.17,-13.62 26.97,-13.71 25.73,-13.8 24.44,-13.88 23.13,-13.95 21.78,-14.01 20.4,-14.06 19,-14.1 17.57,-14.14 16.14,-14.17 14.69,-14.19 13.23,-14.2 11.77,-14.2 10.31,-14.2 8.85,-14.19 7.4,-14.18 5.96,-14.15 4.53,-14.12 3.12,-14.09 1.73,-14.04 0.36,-14 -0.98,-13.94 -2.3,-13.88 -3.58,-13.81 -4.84,-13.74 -6.05,-13.66 -7.24,-13.58 -8.39,-13.49 -9.5,-13.4 -10.57,-13.3 -11.6,-13.19 -12.59,-13.08 -13.55,-12.97 -14.46,-12.85 -15.33,-12.72 -16.16,-12.59 -16.96,-12.46 -17.71,-12.31 -18.43,-12.17 -19.12,-12.02 -19.76,-11.87 -20.38,-11.71 -20.96,-11.54 -21.52,-11.37 -22.05,-11.2 -22.55,-11.02 -23.03,-10.84 -23.47,-10.65 -23.9,-10.46 -24.29,-10.26 -24.67,-10.06 -25.01,-9.85 -25.34,-9.63 -25.65,-9.41 -25.93,-9.19 -26.19,-8.95 -26.44,-8.72 -26.67,-8.48 -26.88,-8.23 -26.67,-1.12 -26.38,-0.6 -26.09,-0.08 -25.79,0.44 -25.47,0.97 -25.14,1.5 -24.79,2.03 -24.44,2.56 -24.06,3.09 -23.68,3.62 -23.27,4.15 -22.85,4.67 -22.41,5.19 -21.96,5.71 -21.49,6.22 -21,6.73 -20.49,7.23 -19.96,7.74 -19.41,8.23 -18.84,8.72 -18.24,9.2 -17.62,9.67 -16.98,10.12 -16.31,10.56 -15.61,10.98 -14.88,11.37 -14.13,11.75 -13.35,12.11 -12.54,12.44 -11.7,12.74 -10.83,13.02 -9.93,13.26 -9,13.48 -8.04,13.66 -7.06,13.81 -6.04,13.93 -5,14.01 -3.94,14.06 -2.85,14.07 -1.73,14.04 -0.59,13.98 0.57,13.88 1.76,13.75 2.96,13.57 4.18,13.36 5.42,13.12 6.67,12.84 7.94,12.52 9.21,12.17 10.5,11.79 11.79,11.38 13.08,10.93 14.38,10.46 15.68,9.96 16.97,9.43 18.26,8.88 19.54,8.3 20.81,7.71 22.07,7.1 23.31,6.47 24.53,5.83 25.74,5.18 26.92,4.52 28.07,3.86 29.2,3.19 30.19,2.65 31.17,2.1 32.12,1.54 33.05,0.99 33.96,0.43 34.85,-0.12 35.7,-0.67 36.53,-1.23 37.32,-1.77 38.09,-2.31 38.82,-2.85 39.51,-3.37 40.16,-3.89 40.78,-4.4 41.35,-4.89" />
      </clipPath>
      <clipPath id="rightEyeClipPath">
        <polyline points="-44.57,-12.56 -44.23,-12.75 -43.84,-12.93 -43.41,-13.09 -42.94,-13.26 -42.42,-13.41 -41.87,-13.56 -41.27,-13.7 -40.63,-13.83 -39.95,-13.96 -39.23,-14.08 -38.47,-14.19 -37.68,-14.29 -36.84,-14.4 -35.97,-14.49 -35.07,-14.58 -34.22,-14.68 -33.31,-14.78 -32.34,-14.88 -31.31,-14.96 -30.22,-15.04 -29.07,-15.11 -27.87,-15.18 -26.62,-15.24 -25.32,-15.29 -23.99,-15.33 -22.61,-15.37 -21.21,-15.4 -19.77,-15.43 -18.31,-15.45 -16.82,-15.46 -15.32,-15.46 -13.81,-15.46 -12.29,-15.46 -10.77,-15.44 -9.24,-15.42 -7.72,-15.4 -6.21,-15.37 -4.7,-15.33 -3.22,-15.28 -1.75,-15.23 -0.3,-15.18 1.13,-15.11 2.52,-15.04 3.89,-14.97 5.22,-14.88 6.53,-14.79 7.79,-14.7 9.02,-14.6 10.21,-14.49 11.36,-14.37 12.46,-14.25 13.53,-14.12 14.55,-13.98 15.53,-13.84 16.47,-13.69 17.36,-13.53 18.22,-13.37 19.03,-13.2 19.8,-13.02 20.54,-12.83 21.24,-12.64 21.9,-12.44 22.53,-12.23 23.12,-12.02 23.69,-11.8 24.23,-11.57 24.74,-11.33 25.22,-11.08 25.67,-10.83 26.09,-10.57 26.49,-10.3 26.86,-10.02 27.21,-9.73 27.53,-9.44 27.83,-9.14 28.11,-8.82 28.37,-8.5 28.6,-8.17 28.82,-7.83 28.48,-1.7 28.19,-1.14 27.88,-0.58 27.56,-0.02 27.22,0.55 26.87,1.12 26.5,1.69 26.12,2.27 25.72,2.85 25.31,3.42 24.87,4 24.42,4.57 23.95,5.14 23.46,5.71 22.95,6.27 22.42,6.82 21.87,7.38 21.3,7.94 20.7,8.49 20.08,9.03 19.44,9.56 18.77,10.08 18.07,10.59 17.34,11.08 16.59,11.55 15.8,12 14.99,12.43 14.15,12.84 13.27,13.22 12.37,13.57 11.43,13.89 10.47,14.18 9.47,14.44 8.45,14.66 7.4,14.85 6.32,15.01 5.21,15.12 4.08,15.2 2.93,15.23 1.75,15.23 0.55,15.19 -0.68,15.11 -1.92,14.98 -3.17,14.82 -4.44,14.61 -5.73,14.37 -7.02,14.08 -8.33,13.75 -9.64,13.39 -10.95,12.99 -12.27,12.55 -13.58,12.08 -14.9,11.57 -16.2,11.03 -17.5,10.47 -18.79,9.87 -20.07,9.24 -21.32,8.6 -22.57,7.93 -23.78,7.24 -24.98,6.53 -26.15,5.81 -27.29,5.07 -28.41,4.33 -29.49,3.58 -30.48,2.99 -31.45,2.39 -32.41,1.78 -33.34,1.17 -34.25,0.56 -35.13,-0.04 -35.99,-0.65 -36.83,-1.26 -37.64,-1.86 -38.41,-2.45 -39.16,-3.03 -39.88,-3.61 -40.56,-4.17 -41.21,-4.72 -41.83,-5.26" />
      </clipPath>
      <filter id="fuzzy">
        <feTurbulence id="turbulence" baseFrequency="0.05" numOctaves="3" type="noise" result="noise" />
        <feDisplacementMap in="SourceGraphic" in2="noise" scale="2" />
      </filter>
      <linearGradient id="rainbowGradient" x1="0%" y1="0%" x2="100%" y2="0%">
        <stop offset="0%" style="stop-color: rgb(145, 85, 61); stop-opacity: 1" />
        <stop offset="30.1%" style="stop-color: rgb(154, 205, 50); stop-opacity: 1" />
        <stop offset="100%" style="stop-color: rgb(167, 133, 106); stop-opacity: 1" />
      </linearGradient>
    </defs>
    <rect x="-100" y="-100" width="100%" height="100%" fill="rgb(255, 255, 240)" />
    <polyline id="faceContour" points="84.51,0.89 84.59,1.29 84.76,3.28 84.68,5.12 84.65,6.18 84.64,6.08 84.33,7.82 84.17,9.07 84.18,10.88 84.17,10.27 83.56,13.98 83.42,12.94 83.11,15.99 82.87,16.59 82.65,17.5 82.67,17.34 82.54,19.52 81.04,23.6 81.28,23.54 80.62,25.18 80.85,24.92 80.67,26.02 79.89,27.9 78.94,30.22 78.22,31.53 78.21,31.78 77.6,33.4 76.84,34.5 76.96,33.9 75.6,37.42 75.55,37.4 74.59,39.14 73.86,40.13 73.45,41.17 73.1,42.28 71.58,44.25 71.43,44.26 69.35,47.04 70.8,45.19 69.24,47.53 68.22,49.16 68.05,49.48 67.58,49.67 65.34,52.56 65.24,52.88 63.67,54.66 64.68,53.37 62.81,55.62 62.94,55.46 61.73,56.45 59.26,58.73 58.12,60.13 56.94,60.86 55.92,62.47 55.58,62.13 54.77,62.82 52.46,64.84 52.55,64.87 50.07,66.68 49.59,67.26 50.63,66.54 48.18,67.86 48.36,68.02 45.71,69.69 44.98,69.92 45.21,69.91 42.46,71.59 41.54,71.92 40.71,72.47 38.77,73.62 39.7,73.19 37,74.47 36.87,74.5 36.1,75.01 33.92,75.72 31.05,76.89 31.9,76.78 31,77.06 31.02,76.79 26.46,78.38 26.01,78.68 24.94,78.81 22.56,79.6 21.1,79.85 21.65,80.04 20.74,80.31 19.99,80.39 17.62,80.92 17.06,80.83 14.55,81.29 10.66,81.85 10.61,81.72 10.59,82.09 11.14,81.88 8.04,82.32 6.08,82.59 6.14,82.38 4.72,82.54 2.2,82.55 2.35,82.72 0.87,82.73 -1.45,82.7 -3.33,82.45 -6.07,82.54 -5.55,82.51 -4.94,82.65 -7.02,82.29 -9.55,82.16 -10.58,81.85 -12.51,81.65 -13.19,81.89 -15.48,81.22 -14.61,81.49 -14.92,81.16 -19.68,80.34 -19.71,80.15 -20.08,80.37 -23.27,79.31 -23.17,79.27 -24.13,79.26 -26.53,78.23 -27.68,77.92 -29.69,77.43 -31.81,76.53 -31.33,76.89 -33.06,76.17 -34.14,75.25 -35.19,74.95 -37.37,74.26 -36.64,74.11 -38.74,73.56 -40.55,72.31 -40.79,72.13 -42.68,71.49 -44.78,69.85 -44.99,70.23 -44.35,70.33 -47.01,68.66 -47.39,68.72 -48.5,67.56 -48.12,67.82 -50.13,66.24 -50.33,66.57 -52.99,64.67 -52.39,65.15 -55.56,62.07 -56.62,61.35 -57.52,60.77 -57.3,60.72 -60.12,58.09 -59.1,59.39 -59.98,57.89 -61.57,56.51 -63.32,54.99 -62.4,55.7 -63.86,53.77 -64.85,52.4 -66.09,51.49 -67.01,50.7 -67.46,49.41 -68.67,48 -69.94,46.98 -70.11,45.9 -70.91,45.25 -71.61,44.2 -73.01,41.92 -72.09,43.1 -73.86,40.21 -73.71,40.32 -74.93,38.13 -75.57,36.9 -76.99,34.28 -76.74,35.06 -76.79,34.88 -77.11,33.82 -78.49,30.84 -78.36,30.82 -79.67,27.43 -79.26,29.83 -79.8,27.49 -80.4,25.21 -81.36,23.72 -80.7,24.4 -81.39,21.62 -81.82,20.05 -82.09,19.57 -82.69,18.16 -82.91,16.76 -82.83,16.35 -83.05,15.92 -83.67,11.66 -83.81,11.78 -84.11,11.01 -83.83,9.82 -84.38,7.7 -84.35,6.53 -84.58,3.3 -84.64,4.01 -84.33,2.97 -84.64,-0.03 -84.44,-2.09 -84.49,-3.46 -84.78,-0.91 -84.46,-5.73 -84.57,-4.62 -84.58,-5.98 -83.95,-9.05 -83.88,-9.62 -84.09,-10.44 -83.77,-10.69 -83.62,-12.6 -83.66,-12.9 -83.14,-15.95 -82.96,-15.93 -82.39,-18.65 -82.03,-19.49 -82.53,-18.84 -81.53,-23.06 -81.09,-24.32 -80.72,-24.7 -80.54,-24.87 -79.98,-27.48 -79.97,-26.71 -79.07,-29.41 -78.09,-32.04 -78.09,-31.61 -77.49,-33.76 -76.47,-35.66 -76.42,-35.52 -76.49,-35.39 -75.81,-36.78 -74.2,-39.27 -74.39,-39.29 -72.76,-42.01 -73.73,-41.18 -71.91,-43.43 -71.17,-44.03 -71.75,-43.78 -69.95,-46.34 -68.95,-48.12 -68.7,-48.78 -68,-49.14 -67.09,-50.55 -64.91,-53.01 -64.14,-53.79 -64.77,-53.3 -63.6,-54.81 -63.33,-55.19 -62.26,-56.08 -61.23,-57.03 -60.52,-57.84 -58.44,-59.2 -57.66,-60.81 -58.11,-60.13 -57.07,-61.29 -56.14,-61.8 -53.58,-64.24 -53.04,-64.08 -51.87,-65.37 -50.36,-66.22 -50.52,-66.48 -47.21,-68.44 -47.62,-68.39 -46.41,-69.36 -45,-70.16 -43.34,-70.97 -43.3,-71.07 -40.6,-72.21 -39.58,-72.83 -39.97,-72.87 -39.76,-72.77 -36.86,-74.46 -35.66,-75.07 -36,-74.76 -33.19,-76.16 -33.35,-76.14 -31.77,-76.61 -30.55,-77.14 -28.69,-77.97 -26.77,-78.19 -25.55,-78.45 -26.57,-78.49 -22.66,-79.61 -20.28,-80.38 -19.92,-80.46 -19.63,-80.2 -18.12,-80.66 -16.25,-81.25 -15.19,-81.16 -13.86,-81.75 -14.75,-81.53 -13.48,-81.77 -10.74,-82.2 -9.23,-81.95 -8.63,-82 -6.79,-82.38 -3.91,-82.34 -3.77,-82.45 -2.21,-82.74 -1.64,-82.62 1.64,-82.58 -0.04,-82.75 1.95,-82.74 4.54,-82.55 7.06,-82.44 6.77,-82.53 7.2,-82.24 8.33,-82.41 9.67,-81.89 11.17,-81.79 12.2,-81.61 15.27,-81.49 17.64,-80.7 16.73,-81.06 17.7,-80.79 19.12,-80.57 20.6,-79.96 22.5,-79.76 25.16,-78.92 24.25,-79.12 27.69,-77.94 27.68,-77.94 27.19,-78.22 29.07,-77.62 30.04,-77.47 30.82,-77.07 33.35,-75.8 34.83,-75.17 36.35,-74.47 38.04,-74.27 39.53,-73.12 39.82,-72.98 40.23,-72.95 42,-71.59 43.02,-71.23 44,-70.74 45.46,-69.45 47.08,-68.58 49.21,-67.31 49.41,-67.65 48.99,-67.13 50.07,-66.41 54.09,-63.77 53.74,-63.9 53.25,-64 54.74,-62.65 54.35,-63.26 56.72,-61.13 58.33,-60.41 58.35,-60.08 59.41,-59.28 60.48,-57.66 62.03,-56.35 63,-54.77 64.31,-53.5 64.76,-53.16 65.48,-52.05 65.1,-52.8 66.35,-51.25 67.45,-49.53 68.19,-49.21 68.9,-48.04 69.97,-46.1 71.41,-44.55 72.13,-43.23 72.17,-42.94 72.56,-42.69 73.36,-41.08 73.53,-40.63 75.4,-37.88 75.12,-37.52 76.13,-35.71 76.74,-34.29 77.65,-32.79 77.57,-33.28 77.94,-32.13 78.9,-30.22 78.71,-29.83 79.31,-29.19 80.36,-26.28 80.86,-23.86 80.4,-25.51 81.17,-22.76 81.34,-22.51 82.28,-19.32 82.52,-17.93 82.86,-17.48 82.58,-18.96 82.95,-16.22 83.33,-14.25 83.52,-12.82 83.79,-12.78 83.98,-9 84.19,-7.82 84.41,-8.16 84.45,-7.78 84.79,-3.95 84.66,-5.73 84.63,-3.2 84.56,-1.89 84.51,0.89 84.59,1.29" fill="rgb(233, 150, 122)" stroke="black" stroke-width="1.6666666666666665" stroke-linejoin="round" filter="url(#fuzzy)" />
    <g transform="translate(36.83 -25.14)">
      <polyline id="rightCountour" points="-44.57,-12.56 -44.23,-12.75 -43.84,-12.93 -43.41,-13.09 -42.94,-13.26 -42.42,-13.41 -41.87,-13.56 -41.27,-13.7 -40.63,-13.83 -39.95,-13.96 -39.23,-14.08 -38.47,-14.19 -37.68,-14.29 -36.84,-14.4 -35.97,-14.49 -35.07,-14.58 -34.22,-14.68 -33.31,-14.78 -32.34,-14.88 -31.31,-14.96 -30.22,-15.04 -29.07,-15.11 -27.87,-15.18 -26.62,-15.24 -25.32,-15.29 -23.99,-15.33 -22.61,-15.37 -21.21,-15.4 -19.77,-15.43 -18.31,-15.45 -16.82,-15.46 -15.32,-15.46 -13.81,-15.46 -12.29,-15.46 -10.77,-15.44 -9.24,-15.42 -7.72,-15.4 -6.21,-15.37 -4.7,-15.33 -3.22,-15.28 -1.75,-15.23 -0.3,-15.18 1.13,-15.11 2.52,-15.04 3.89,-14.97 5.22,-14.88 6.53,-14.79 7.79,-14.7 9.02,-14.6 10.21,-14.49 11.36,-14.37 12.46,-14.25 13.53,-14.12 14.55,-13.98 15.53,-13.84 16.47,-13.69 17.36,-13.53 18.22,-13.37 19.03,-13.2 19.8,-13.02 20.54,-12.83 21.24,-12.64 21.9,-12.44 22.53,-12.23 23.12,-12.02 23.69,-11.8 24.23,-11.57 24.74,-11.33 25.22,-11.08 25.67,-10.83 26.09,-10.57 26.49,-10.3 26.86,-10.02 27.21,-9.73 27.53,-9.44 27.83,-9.14 28.11,-8.82 28.37,-8.5 28.6,-8.17 28.82,-7.83 28.48,-1.7 28.19,-1.14 27.88,-0.58 27.56,-0.02 27.22,0.55 26.87,1.12 26.5,1.69 26.12,2.27 25.72,2.85 25.31,3.42 24.87,4 24.42,4.57 23.95,5.14 23.46,5.71 22.95,6.27 22.42,6.82 21.87,7.38 21.3,7.94 20.7,8.49 20.08,9.03 19.44,9.56 18.77,10.08 18.07,10.59 17.34,11.08 16.59,11.55 15.8,12 14.99,12.43 14.15,12.84 13.27,13.22 12.37,13.57 11.43,13.89 10.47,14.18 9.47,14.44 8.45,14.66 7.4,14.85 6.32,15.01 5.21,15.12 4.08,15.2 2.93,15.23 1.75,15.23 0.55,15.19 -0.68,15.11 -1.92,14.98 -3.17,14.82 -4.44,14.61 -5.73,14.37 -7.02,14.08 -8.33,13.75 -9.64,13.39 -10.95,12.99 -12.27,12.55 -13.58,12.08 -14.9,11.57 -16.2,11.03 -17.5,10.47 -18.79,9.87 -20.07,9.24 -21.32,8.6 -22.57,7.93 -23.78,7.24 -24.98,6.53 -26.15,5.81 -27.29,5.07 -28.41,4.33 -29.49,3.58 -30.48,2.99 -31.45,2.39 -32.41,1.78 -33.34,1.17 -34.25,0.56 -35.13,-0.04 -35.99,-0.65 -36.83,-1.26 -37.64,-1.86 -38.41,-2.45 -39.16,-3.03 -39.88,-3.61 -40.56,-4.17 -41.21,-4.72 -41.83,-5.26" fill="white" stroke="white" stroke-width="0" stroke-linejoin="round" filter="url(#fuzzy)" />
    </g>
    <g transform="translate(-40.910000000000004 -22.2)">
      <polyline id="leftCountour" points="42.93,-9.73 42.69,-10.01 42.4,-10.29 42.06,-10.55 41.67,-10.81 41.22,-11.04 40.73,-11.27 40.18,-11.49 39.59,-11.69 38.96,-11.88 38.28,-12.07 37.56,-12.24 36.79,-12.4 35.99,-12.56 35.15,-12.7 34.27,-12.83 33.4,-12.99 32.46,-13.13 31.47,-13.27 30.42,-13.39 29.32,-13.51 28.17,-13.62 26.97,-13.71 25.73,-13.8 24.44,-13.88 23.13,-13.95 21.78,-14.01 20.4,-14.06 19,-14.1 17.57,-14.14 16.14,-14.17 14.69,-14.19 13.23,-14.2 11.77,-14.2 10.31,-14.2 8.85,-14.19 7.4,-14.18 5.96,-14.15 4.53,-14.12 3.12,-14.09 1.73,-14.04 0.36,-14 -0.98,-13.94 -2.3,-13.88 -3.58,-13.81 -4.84,-13.74 -6.05,-13.66 -7.24,-13.58 -8.39,-13.49 -9.5,-13.4 -10.57,-13.3 -11.6,-13.19 -12.59,-13.08 -13.55,-12.97 -14.46,-12.85 -15.33,-12.72 -16.16,-12.59 -16.96,-12.46 -17.71,-12.31 -18.43,-12.17 -19.12,-12.02 -19.76,-11.87 -20.38,-11.71 -20.96,-11.54 -21.52,-11.37 -22.05,-11.2 -22.55,-11.02 -23.03,-10.84 -23.47,-10.65 -23.9,-10.46 -24.29,-10.26 -24.67,-10.06 -25.01,-9.85 -25.34,-9.63 -25.65,-9.41 -25.93,-9.19 -26.19,-8.95 -26.44,-8.72 -26.67,-8.48 -26.88,-8.23 -26.67,-1.12 -26.38,-0.6 -26.09,-0.08 -25.79,0.44 -25.47,0.97 -25.14,1.5 -24.79,2.03 -24.44,2.56 -24.06,3.09 -23.68,3.62 -23.27,4.15 -22.85,4.67 -22.41,5.19 -21.96,5.71 -21.49,6.22 -21,6.73 -20.49,7.23 -19.96,7.74 -19.41,8.23 -18.84,8.72 -18.24,9.2 -17.62,9.67 -16.98,10.12 -16.31,10.56 -15.61,10.98 -14.88,11.37 -14.13,11.75 -13.35,12.11 -12.54,12.44 -11.7,12.74 -10.83,13.02 -9.93,13.26 -9,13.48 -8.04,13.66 -7.06,13.81 -6.04,13.93 -5,14.01 -3.94,14.06 -2.85,14.07 -1.73,14.04 -0.59,13.98 0.57,13.88 1.76,13.75 2.96,13.57 4.18,13.36 5.42,13.12 6.67,12.84 7.94,12.52 9.21,12.17 10.5,11.79 11.79,11.38 13.08,10.93 14.38,10.46 15.68,9.96 16.97,9.43 18.26,8.88 19.54,8.3 20.81,7.71 22.07,7.1 23.31,6.47 24.53,5.83 25.74,5.18 26.92,4.52 28.07,3.86 29.2,3.19 30.19,2.65 31.17,2.1 32.12,1.54 33.05,0.99 33.96,0.43 34.85,-0.12 35.7,-0.67 36.53,-1.23 37.32,-1.77 38.09,-2.31 38.82,-2.85 39.51,-3.37 40.16,-3.89 40.78,-4.4 41.35,-4.89" fill="white" stroke="white" stroke-width="0" stroke-linejoin="round" filter="url(#fuzzy)" />
    </g>
    <g transform="translate(36.83 -25.14)">
      <polyline id="rightUpper" points="-45.79,-10.25 -45.84,-10.52 -45.85,-10.78 -45.83,-11.04 -45.77,-11.28 -45.67,-11.52 -45.53,-11.74 -45.35,-11.96 -45.14,-12.17 -44.87,-12.37 -44.57,-12.56 -44.23,-12.75 -43.84,-12.93 -43.41,-13.09 -42.94,-13.26 -42.42,-13.41 -41.87,-13.56 -41.27,-13.7 -40.63,-13.83 -39.95,-13.96 -39.23,-14.08 -38.47,-14.19 -37.68,-14.29 -36.84,-14.4 -35.97,-14.49 -35.07,-14.58 -34.22,-14.68 -33.31,-14.78 -32.34,-14.88 -31.31,-14.96 -30.22,-15.04 -29.07,-15.11 -27.87,-15.18 -26.62,-15.24 -25.32,-15.29 -23.99,-15.33 -22.61,-15.37 -21.21,-15.4 -19.77,-15.43 -18.31,-15.45 -16.82,-15.46 -15.32,-15.46 -13.81,-15.46 -12.29,-15.46 -10.77,-15.44 -9.24,-15.42 -7.72,-15.4 -6.21,-15.37 -4.7,-15.33 -3.22,-15.28 -1.75,-15.23 -0.3,-15.18 1.13,-15.11 2.52,-15.04 3.89,-14.97 5.22,-14.88 6.53,-14.79 7.79,-14.7 9.02,-14.6 10.21,-14.49 11.36,-14.37 12.46,-14.25 13.53,-14.12 14.55,-13.98 15.53,-13.84 16.47,-13.69 17.36,-13.53 18.22,-13.37 19.03,-13.2 19.8,-13.02 20.54,-12.83 21.24,-12.64 21.9,-12.44 22.53,-12.23 23.12,-12.02 23.69,-11.8 24.23,-11.57 24.74,-11.33 25.22,-11.08 25.67,-10.83 26.09,-10.57 26.49,-10.3 26.86,-10.02 27.21,-9.73 27.53,-9.44 27.83,-9.14 28.11,-8.82 28.37,-8.5 28.6,-8.17 28.82,-7.83 29.02,-7.49 29.2,-7.13 29.36,-6.77 29.51,-6.4 29.65,-6.02 29.77,-5.63 29.87,-5.24 29.96,-4.84 30.05,-4.43 30.11,-4.01" fill="none" stroke="black" stroke-width="1.6666666666666665" stroke-linejoin="round" filter="url(#fuzzy)" />
      <polyline id="rightLower" points="-45.8,-9.33 -45.6,-9.06 -45.35,-8.75 -45.06,-8.41 -44.72,-8.04 -44.34,-7.64 -43.92,-7.21 -43.45,-6.75 -42.95,-6.27 -42.41,-5.78 -41.83,-5.26 -41.21,-4.72 -40.56,-4.17 -39.88,-3.61 -39.16,-3.03 -38.41,-2.45 -37.64,-1.86 -36.83,-1.26 -35.99,-0.65 -35.13,-0.04 -34.25,0.56 -33.34,1.17 -32.41,1.78 -31.45,2.39 -30.48,2.99 -29.49,3.58 -28.41,4.33 -27.29,5.07 -26.15,5.81 -24.98,6.53 -23.78,7.24 -22.57,7.93 -21.32,8.6 -20.07,9.24 -18.79,9.87 -17.5,10.47 -16.2,11.03 -14.9,11.57 -13.58,12.08 -12.27,12.55 -10.95,12.99 -9.64,13.39 -8.33,13.75 -7.02,14.08 -5.73,14.37 -4.44,14.61 -3.17,14.82 -1.92,14.98 -0.68,15.11 0.55,15.19 1.75,15.23 2.93,15.23 4.08,15.2 5.21,15.12 6.32,15.01 7.4,14.85 8.45,14.66 9.47,14.44 10.47,14.18 11.43,13.89 12.37,13.57 13.27,13.22 14.15,12.84 14.99,12.43 15.8,12 16.59,11.55 17.34,11.08 18.07,10.59 18.77,10.08 19.44,9.56 20.08,9.03 20.7,8.49 21.3,7.94 21.87,7.38 22.42,6.82 22.95,6.27 23.46,5.71 23.95,5.14 24.42,4.57 24.87,4 25.31,3.42 25.72,2.85 26.12,2.27 26.5,1.69 26.87,1.12 27.22,0.55 27.56,-0.02 27.88,-0.58 28.19,-1.14 28.48,-1.7 28.77,-2.24 29.04,-2.78 29.3,-3.32 29.55,-3.84 29.78,-4.36 30.01,-4.87 30.23,-5.37 30.44,-5.86 30.64,-6.34 30.83,-6.82" fill="none" stroke="black" stroke-width="2.2222222222222223" stroke-linejoin="round" filter="url(#fuzzy)" />
      <circle r="4.03" cx="-33.04552870265745" cy="-10.769161831124457" stroke="black" fill="none" stroke-width="1.0" filter="url(#fuzzy)" clip-path="url(#rightEyeClipPath)" /><circle r="4.63" cx="-31.150528702657454" cy="-9.374161831124457" stroke="black" fill="none" stroke-width="1.0" filter="url(#fuzzy)" clip-path="url(#rightEyeClipPath)" /><circle r="4.448" cx="-34.49552870265745" cy="-7.629161831124456" stroke="black" fill="none" stroke-width="1.0" filter="url(#fuzzy)" clip-path="url(#rightEyeClipPath)" /><circle r="4.132" cx="-30.280528702657453" cy="-9.129161831124456" stroke="black" fill="none" stroke-width="1.0" filter="url(#fuzzy)" clip-path="url(#rightEyeClipPath)" /><circle r="3.422" cx="-32.555528702657455" cy="-8.699161831124457" stroke="black" fill="none" stroke-width="1.0" filter="url(#fuzzy)" clip-path="url(#rightEyeClipPath)" /><circle r="4.5440000000000005" cx="-31.20052870265745" cy="-10.709161831124456" stroke="black" fill="none" stroke-width="1.0" filter="url(#fuzzy)" clip-path="url(#rightEyeClipPath)" /><circle r="4.8740000000000006" cx="-30.89552870265745" cy="-10.284161831124457" stroke="black" fill="none" stroke-width="1.0" filter="url(#fuzzy)" clip-path="url(#rightEyeClipPath)" /><circle r="4.596" cx="-33.790528702657454" cy="-6.6991618311244565" stroke="black" fill="none" stroke-width="1.0" filter="url(#fuzzy)" clip-path="url(#rightEyeClipPath)" /><circle r="3.55" cx="-34.00052870265745" cy="-10.124161831124457" stroke="black" fill="none" stroke-width="1.0" filter="url(#fuzzy)" clip-path="url(#rightEyeClipPath)" /><circle r="3.354" cx="-33.82552870265745" cy="-7.559161831124456" stroke="black" fill="none" stroke-width="1.0" filter="url(#fuzzy)" clip-path="url(#rightEyeClipPath)" />
      </g>
    <g transform="translate(-40.910000000000004 -22.2)">
      <polyline id="leftUpper" points="42.17,-6.02 42.51,-6.46 42.79,-6.89 43.01,-7.3 43.17,-7.69 43.27,-8.07 43.32,-8.43 43.3,-8.77 43.24,-9.1 43.11,-9.42 42.93,-9.73 42.69,-10.01 42.4,-10.29 42.06,-10.55 41.67,-10.81 41.22,-11.04 40.73,-11.27 40.18,-11.49 39.59,-11.69 38.96,-11.88 38.28,-12.07 37.56,-12.24 36.79,-12.4 35.99,-12.56 35.15,-12.7 34.27,-12.83 33.4,-12.99 32.46,-13.13 31.47,-13.27 30.42,-13.39 29.32,-13.51 28.17,-13.62 26.97,-13.71 25.73,-13.8 24.44,-13.88 23.13,-13.95 21.78,-14.01 20.4,-14.06 19,-14.1 17.57,-14.14 16.14,-14.17 14.69,-14.19 13.23,-14.2 11.77,-14.2 10.31,-14.2 8.85,-14.19 7.4,-14.18 5.96,-14.15 4.53,-14.12 3.12,-14.09 1.73,-14.04 0.36,-14 -0.98,-13.94 -2.3,-13.88 -3.58,-13.81 -4.84,-13.74 -6.05,-13.66 -7.24,-13.58 -8.39,-13.49 -9.5,-13.4 -10.57,-13.3 -11.6,-13.19 -12.59,-13.08 -13.55,-12.97 -14.46,-12.85 -15.33,-12.72 -16.16,-12.59 -16.96,-12.46 -17.71,-12.31 -18.43,-12.17 -19.12,-12.02 -19.76,-11.87 -20.38,-11.71 -20.96,-11.54 -21.52,-11.37 -22.05,-11.2 -22.55,-11.02 -23.03,-10.84 -23.47,-10.65 -23.9,-10.46 -24.29,-10.26 -24.67,-10.06 -25.01,-9.85 -25.34,-9.63 -25.65,-9.41 -25.93,-9.19 -26.19,-8.95 -26.44,-8.72 -26.67,-8.48 -26.88,-8.23 -27.07,-7.98 -27.25,-7.72 -27.41,-7.45 -27.56,-7.19 -27.69,-6.91 -27.81,-6.63 -27.92,-6.35 -28.02,-6.06 -28.11,-5.77 -28.18,-5.47" fill="none" stroke="black" stroke-width="2.2222222222222223" stroke-linejoin="round" filter="url(#fuzzy)" />
      <polyline id="leftLower" points="44.31,-8.78 44.27,-8.5 44.17,-8.19 44.01,-7.86 43.79,-7.49 43.51,-7.11 43.18,-6.7 42.79,-6.28 42.36,-5.83 41.88,-5.37 41.35,-4.89 40.78,-4.4 40.16,-3.89 39.51,-3.37 38.82,-2.85 38.09,-2.31 37.32,-1.77 36.53,-1.23 35.7,-0.67 34.85,-0.12 33.96,0.43 33.05,0.99 32.12,1.54 31.17,2.1 30.19,2.65 29.2,3.19 28.07,3.86 26.92,4.52 25.74,5.18 24.53,5.83 23.31,6.47 22.07,7.1 20.81,7.71 19.54,8.3 18.26,8.88 16.97,9.43 15.68,9.96 14.38,10.46 13.08,10.93 11.79,11.38 10.5,11.79 9.21,12.17 7.94,12.52 6.67,12.84 5.42,13.12 4.18,13.36 2.96,13.57 1.76,13.75 0.57,13.88 -0.59,13.98 -1.73,14.04 -2.85,14.07 -3.94,14.06 -5,14.01 -6.04,13.93 -7.06,13.81 -8.04,13.66 -9,13.48 -9.93,13.26 -10.83,13.02 -11.7,12.74 -12.54,12.44 -13.35,12.11 -14.13,11.75 -14.88,11.37 -15.61,10.98 -16.31,10.56 -16.98,10.12 -17.62,9.67 -18.24,9.2 -18.84,8.72 -19.41,8.23 -19.96,7.74 -20.49,7.23 -21,6.73 -21.49,6.22 -21.96,5.71 -22.41,5.19 -22.85,4.67 -23.27,4.15 -23.68,3.62 -24.06,3.09 -24.44,2.56 -24.79,2.03 -25.14,1.5 -25.47,0.97 -25.79,0.44 -26.09,-0.08 -26.38,-0.6 -26.67,-1.12 -26.94,-1.63 -27.2,-2.13 -27.45,-2.63 -27.68,-3.13 -27.92,-3.61 -28.14,-4.09 -28.35,-4.56 -28.55,-5.03 -28.75,-5.48 -28.94,-5.93" fill="none" stroke="black" stroke-width="2.2222222222222223" stroke-linejoin="round" filter="url(#fuzzy)" />
      <circle r="4.318" cx="34.543025047081116" cy="-0.9707557220030019" stroke="black" fill="none" stroke-width="1.0" filter="url(#fuzzy)" clip-path="url(#leftEyeClipPath)" /><circle r="4.518" cx="34.98302504708112" cy="-4.655755722003002" stroke="black" fill="none" stroke-width="1.0" filter="url(#fuzzy)" clip-path="url(#leftEyeClipPath)" /><circle r="3.776" cx="35.64802504708112" cy="-2.7807557220030015" stroke="black" fill="none" stroke-width="1.0" filter="url(#fuzzy)" clip-path="url(#leftEyeClipPath)" /><circle r="3.112" cx="35.63302504708112" cy="-2.2107557220030016" stroke="black" fill="none" stroke-width="1.0" filter="url(#fuzzy)" clip-path="url(#leftEyeClipPath)" /><circle r="4.404" cx="33.12802504708112" cy="-4.420755722003002" stroke="black" fill="none" stroke-width="1.0" filter="url(#fuzzy)" clip-path="url(#leftEyeClipPath)" /><circle r="3.602" cx="32.24802504708112" cy="-2.3957557220030017" stroke="black" fill="none" stroke-width="1.0" filter="url(#fuzzy)" clip-path="url(#leftEyeClipPath)" /><circle r="4.538" cx="33.17802504708112" cy="-0.6757557220030019" stroke="black" fill="none" stroke-width="1.0" filter="url(#fuzzy)" clip-path="url(#leftEyeClipPath)" /><circle r="4.754" cx="33.903025047081115" cy="-1.1407557220030018" stroke="black" fill="none" stroke-width="1.0" filter="url(#fuzzy)" clip-path="url(#leftEyeClipPath)" /><circle r="3.992" cx="34.32302504708112" cy="-4.775755722003002" stroke="black" fill="none" stroke-width="1.0" filter="url(#fuzzy)" clip-path="url(#leftEyeClipPath)" /><circle r="4.4399999999999995" cx="31.98302504708112" cy="-0.9157557220030013" stroke="black" fill="none" stroke-width="1.0" filter="url(#fuzzy)" clip-path="url(#leftEyeClipPath)" />
    </g>
    <g id="hairs">
      <polyline points="-1.64,-82.62 -4.45,-82.46 -7.09,-82.27 -10.17,-82.04 -13.94,-81.76 -18.19,-81.41 -22.47,-80.95 -26.4,-80.39 -29.81,-79.73 -32.78,-78.98 -35.53,-78.17 -38.34,-77.3 -41.44,-76.39 -45,-75.44 -49.06,-74.46 -53.64,-73.42 -58.69,-72.33 -64.19,-71.15 -70.13,-69.86 -76.52,-68.45 -83.32,-66.93 -90.4,-65.3 -97.45,-63.6 -104.11,-61.88 -110.15,-60.16 -115.74,-58.48 -121.38,-56.83 -127.31,-55.19 -133.24,-53.57 -139.19,-51.8 -147.91,-49.14" fill="none" stroke="url(#rainbowGradient)" stroke-width="2" stroke-linejoin="round" filter="url(#fuzzy)" /><polyline points="-3.77,-82.45 -6.61,-82.28 -9.44,-82.06 -12.18,-81.79 -14.82,-81.46 -17.46,-81.02 -20.24,-80.47 -23.31,-79.82 -26.81,-79.08 -30.8,-78.28 -35.2,-77.42 -39.85,-76.52 -44.48,-75.59 -48.86,-74.64 -52.79,-73.66 -56.21,-72.63 -59.15,-71.54 -61.83,-70.35 -64.67,-69.04 -68.17,-67.55 -72.88,-65.85 -79.14,-63.91 -87.2,-61.8" fill="none" stroke="url(#rainbowGradient)" stroke-width="2" stroke-linejoin="round" filter="url(#fuzzy)" /><polyline points="-3.91,-82.34 -8.24,-82.12 -12.29,-81.89 -16.13,-81.55 -19.56,-81.14 -22.62,-80.66 -25.63,-80.08 -28.83,-79.42 -32.3,-78.67 -35.91,-77.84 -39.48,-76.94 -42.92,-75.97 -46.3,-74.94 -49.78,-73.85 -53.52,-72.7 -57.62,-71.49 -62.12,-70.22 -66.98,-68.88 -72.15,-67.47 -77.47,-66 -82.78,-64.46 -87.85,-62.86 -92.57,-61.21 -96.93,-59.52 -101.09,-57.8 -105.3,-56.05 -109.81,-54.27 -114.75,-52.41 -120.15,-50.44 -125.94,-48.34 -131.91,-46.12 -137.7,-43.76 -144.12,-41.18" fill="none" stroke="url(#rainbowGradient)" stroke-width="2" stroke-linejoin="round" filter="url(#fuzzy)" /><polyline points="-3.91,-82.34 -7.72,-82.13 -11,-81.9 -14.47,-81.57 -18.51,-81.17 -23.12,-80.7 -28,-80.15 -32.71,-79.51 -36.95,-78.78 -40.64,-77.97 -44,-77.1 -47.31,-76.16 -50.86,-75.16 -54.88,-74.1 -59.51,-72.99 -64.82,-71.82 -70.8,-70.6 -77.35,-69.3 -84.24,-67.94 -91.08,-66.51 -97.39,-65.04 -102.66,-63.5 -106.71,-61.94 -109.55,-60.81" fill="none" stroke="url(#rainbowGradient)" stroke-width="2" stroke-linejoin="round" filter="url(#fuzzy)" /><polyline points="-8.63,-82 -11,-81.93 -13.3,-81.59 -15.41,-81.18 -17.46,-80.7 -19.47,-80.14 -21.35,-79.49 -22.94,-78.75 -24.2,-77.93 -25.2,-77.04 -26.09,-76.09 -27.02,-75.08 -28.08,-74.01 -29.28,-72.89 -30.52,-71.72 -31.66,-70.48 -32.53,-69.17 -33,-67.79 -33,-66.36 -32.61,-64.86 -32,-63.29 -31.41,-61.64 -31.01,-59.89 -30.67,-58 -30.21,-56.08" fill="none" stroke="url(#rainbowGradient)" stroke-width="2" stroke-linejoin="round" filter="url(#fuzzy)" /><polyline points="-8.63,-82 -10.05,-81.92 -11.5,-81.59 -13.05,-81.18 -15.02,-80.7 -17.29,-80.13 -19.52,-79.48 -21.54,-78.73 -23.31,-77.91 -24.91,-77.03 -26.42,-76.07 -27.88,-75.06 -29.24,-73.98 -30.38,-72.86 -31.21,-71.67 -31.75,-70.43 -32.14,-69.12 -32.58,-67.74 -33.17,-66.29 -33.8,-64.78 -34.19,-63.21 -34.02,-61.55 -33.25,-59.81 -32.2,-58.02 -31.33,-56.26 -30.89,-54.81" fill="none" stroke="url(#rainbowGradient)" stroke-width="2" stroke-linejoin="round" filter="url(#fuzzy)" /><polyline points="-10.74,-82.2 -13.91,-81.65 -16.2,-81.18 -18.33,-80.68 -20.55,-80.11 -22.95,-79.43 -25.5,-78.66 -28.14,-77.82 -30.82,-76.9 -33.47,-75.92 -36.06,-74.88 -38.57,-73.78 -41.02,-72.62 -43.44,-71.4 -45.88,-70.11 -48.34,-68.76 -50.84,-67.34 -53.36,-65.86 -55.87,-64.31 -58.32,-62.71 -60.68,-61.05 -62.91,-59.35 -65.02,-57.62 -67.03,-55.85 -68.99,-54.03 -70.95,-52.13 -72.94,-50.14 -74.92,-48.04 -76.83,-45.85 -78.59,-43.6 -80.18,-41.34 -81.66,-39.15 -83.2,-37.13 -84.65,-35.52" fill="none" stroke="url(#rainbowGradient)" stroke-width="2" stroke-linejoin="round" filter="url(#fuzzy)" /><polyline points="-10.74,-82.2 -13.82,-81.65 -16.26,-81.18 -18.59,-80.69 -20.99,-80.12 -23.56,-79.44 -26.26,-78.68 -29.02,-77.84 -31.77,-76.93 -34.47,-75.96 -37.1,-74.92 -39.71,-73.83 -42.34,-72.68 -45.06,-71.47 -47.92,-70.19 -50.96,-68.85 -54.19,-67.44 -57.59,-65.97 -61.09,-64.43 -64.61,-62.83 -68.02,-61.18 -71.2,-59.49 -74.07,-57.77 -76.61,-56.03 -78.87,-54.25 -81,-52.39 -83.19,-50.43 -85.67,-48.33 -88.58,-46.11 -92.04,-43.75 -96.09,-41.18" fill="none" stroke="url(#rainbowGradient)" stroke-width="2" stroke-linejoin="round" filter="url(#fuzzy)" /><polyline points="-13.48,-81.77 -14.59,-81.56 -16.66,-81.09 -19.25,-80.48 -22.22,-79.78 -25.6,-79 -29.47,-78.15 -33.88,-77.27 -38.76,-76.35 -43.94,-75.4 -49.27,-74.42 -54.6,-73.4 -59.82,-72.32 -64.79,-71.15 -69.34,-69.87 -73.35,-68.47 -76.85,-66.94 -80,-65.29 -83.08,-63.58 -86.36,-61.85 -90.12,-60.15 -94.67,-58.48 -100.28,-56.84 -106.64,-55.24 -111.79,-53.82 -112.72,-53.01" fill="none" stroke="url(#rainbowGradient)" stroke-width="2" stroke-linejoin="round" filter="url(#fuzzy)" /><polyline points="83.33,-14.25 83.24,-12.02 83.14,-9.58 83.2,-7.22 83.2,-4.76 83.06,-2.15 82.82,0.5 82.54,3.1 82.26,5.61 81.97,8.06 81.65,10.51 81.27,12.98 80.81,15.51 80.28,18.07 79.67,20.66 78.98,23.24 78.2,25.78 77.31,28.28 76.29,30.72 75.12,33.12 73.82,35.48 72.4,37.79 70.91,40.05 69.37,42.26 67.81,44.41 66.22,46.5 64.61,48.52 62.95,50.49 61.24,52.41 59.47,54.29 57.65,56.15 55.78,58.01 53.88,59.86 51.96,61.67 50.02,63.43 48,65.11 45.85,66.71 43.89,67.86" fill="none" stroke="url(#rainbowGradient)" stroke-width="2" stroke-linejoin="round" filter="url(#fuzzy)" /><polyline points="-14.75,-81.53 -16.04,-81.14 -18.34,-80.69 -21.54,-80.12 -25.4,-79.43 -29.32,-78.65 -32.77,-77.79 -35.62,-76.86 -38.09,-75.87 -40.53,-74.82 -43.27,-73.71 -46.56,-72.54 -50.51,-71.3 -55.1,-70 -60.13,-68.63 -65.29,-67.2 -70.25,-65.7 -74.77,-64.14 -78.73,-62.53 -82.23,-60.86 -85.43,-59.15 -88.55,-57.39 -91.72,-55.59 -95,-53.73 -98.37,-51.79 -101.76,-49.78 -105.11,-47.7 -108.39,-45.56 -111.68,-43.39 -115.13,-41.23 -118.97,-39.1 -123.36,-37.02 -128.21,-34.93 -133.13,-32.74 -137.62,-30.37 -141.62,-27.84 -145.93,-25.55 -151.18,-24.32" fill="none" stroke="url(#rainbowGradient)" stroke-width="2" stroke-linejoin="round" filter="url(#fuzzy)" /><polyline points="-14.75,-81.53 -16.44,-81.14 -19.41,-80.69 -22.86,-80.13 -26.33,-79.44 -29.75,-78.66 -33.34,-77.81 -37.34,-76.88 -41.74,-75.9 -46.32,-74.85 -50.75,-73.74 -54.78,-72.58 -58.33,-71.35 -61.47,-70.06 -64.41,-68.7 -67.34,-67.27 -70.46,-65.78 -73.85,-64.23 -77.53,-62.62 -81.53,-60.96 -85.89,-59.26 -90.7,-57.51 -96.07,-55.73 -102.07,-53.89 -108.61,-51.97 -115.41,-49.97 -122.07,-47.88 -128.14,-45.71 -133.33,-43.51 -137.7,-41.31 -141.57,-39.19 -145.35,-37.2 -149.18,-35.38 -152.95,-33.7 -158.71,-32.04" fill="none" stroke="url(#rainbowGradient)" stroke-width="2" stroke-linejoin="round" filter="url(#fuzzy)" /><polyline points="-14.75,-81.53 -13.07,-81.15 -13.67,-80.71 -15.94,-80.16 -18.41,-79.5 -20.47,-78.74 -22.14,-77.9 -23.52,-77 -24.55,-76.05 -25.11,-75.03 -25.13,-73.95 -24.73,-72.82 -24.1,-71.64 -23.4,-70.4 -22.68,-69.08 -21.87,-67.7 -20.84,-66.26 -19.43,-64.75 -17.52,-63.18 -15.26,-61.53 -13.09,-59.79 -11.44,-58 -9.46,-56.26 -4.57,-54.81" fill="none" stroke="url(#rainbowGradient)" stroke-width="2" stroke-linejoin="round" filter="url(#fuzzy)" /><polyline points="-14.75,-81.53 -17.98,-81.14 -21.99,-80.7 -25.57,-80.14 -28.78,-79.47 -32.03,-78.69 -35.24,-77.85 -38.17,-76.94 -40.83,-75.96 -43.61,-74.93 -46.95,-73.84 -51.09,-72.69 -55.99,-71.48 -61.4,-70.21 -67.05,-68.87 -72.79,-67.47 -78.6,-65.99 -84.44,-64.46 -90.27,-62.86 -95.99,-61.21 -101.62,-59.52 -107.36,-57.81 -113.47,-56.08 -120.1,-54.32 -127.13,-52.49 -134.02,-50.54 -139.97,-48.45 -144.76,-46.26 -152.18,-44.03" fill="none" stroke="url(#rainbowGradient)" stroke-width="2" stroke-linejoin="round" filter="url(#fuzzy)" /><polyline points="-19.63,-80.2 -22.25,-79.8 -25.53,-78.98 -28.4,-78.09 -30.99,-77.17 -33.47,-76.24 -36.01,-75.28 -38.87,-74.29 -42.28,-73.25 -46.29,-72.15 -50.74,-70.95 -55.28,-69.63 -59.51,-68.19 -63.16,-66.63 -66.21,-64.99 -68.93,-63.29 -71.71,-61.58 -74.9,-59.88 -78.65,-58.19 -82.75,-56.51 -86.83,-54.81 -90.56,-53.05 -93.89,-51.19 -97.09,-49.19 -100.51,-47.09 -104.14,-45.04 -107.13,-43.31 -108.24,-42.01" fill="none" stroke="url(#rainbowGradient)" stroke-width="2" stroke-linejoin="round" filter="url(#fuzzy)" /><polyline points="-22.66,-79.61 -25.36,-78.66 -27.35,-77.79 -28.25,-76.88 -28.82,-75.9 -29.92,-74.84 -31.78,-73.72 -34.06,-72.56 -36.27,-71.33 -37.95,-70.05 -38.87,-68.69 -38.98,-67.26 -38.48,-65.77 -37.71,-64.22 -37.05,-62.61 -36.78,-60.95 -36.96,-59.25 -37.41,-57.53 -37.76,-55.76 -37.63,-53.95 -36.79,-52.06 -35.14,-50.07 -32.77,-47.98 -29.73,-45.79 -25.99,-43.55 -21.55,-41.3 -16.69,-39.12 -11.92,-37.12 -5.57,-35.52" fill="none" stroke="url(#rainbowGradient)" stroke-width="2" stroke-linejoin="round" filter="url(#fuzzy)" /><polyline points="82.95,-16.22 83.96,-13.04 85.35,-10.24 86.45,-7.7 87.48,-5.22 89.04,-2.74 91.44,-0.23 94.49,2.29 97.78,4.78 100.95,7.24 103.98,9.65 107.08,12.01 110.45,14.32 114.09,16.6 117.72,18.88 121,21.21 123.89,23.6 126.83,26.05 130.35,28.51 134.36,30.85 137.69,32.97 138.64,34.91 135.3,37.4" fill="none" stroke="url(#rainbowGradient)" stroke-width="2" stroke-linejoin="round" filter="url(#fuzzy)" /><polyline points="-25.55,-78.45 -30,-77.75 -32.34,-76.86 -34.34,-75.87 -36.57,-74.8 -39.04,-73.67 -41.62,-72.49 -44.15,-71.25 -46.55,-69.95 -48.85,-68.58 -51.17,-67.13 -53.6,-65.63 -56.19,-64.06 -58.89,-62.43 -61.61,-60.76 -64.23,-59.05 -66.71,-57.3 -69.04,-55.5 -71.26,-53.64 -73.43,-51.71 -75.58,-49.7 -77.69,-47.62 -79.76,-45.47 -81.79,-43.3 -83.83,-41.15 -85.91,-39.04 -88.08,-36.96 -90.32,-34.89 -92.56,-32.71 -94.71,-30.34 -96.7,-27.81 -98.55,-25.54 -100.62,-24.32" fill="none" stroke="url(#rainbowGradient)" stroke-width="2" stroke-linejoin="round" filter="url(#fuzzy)" /><polyline points="-28.69,-77.97 -35.16,-76.9 -39.62,-75.9 -41.74,-74.82 -43.99,-73.69 -47.54,-72.52 -52.21,-71.3 -57.2,-70.01 -61.77,-68.65 -65.59,-67.22 -68.77,-65.73 -71.73,-64.17 -74.94,-62.56 -78.79,-60.9 -83.59,-59.2 -89.5,-57.48 -96.59,-55.72 -104.67,-53.91 -113.28,-52.02 -121.7,-50.04 -129.25,-47.95 -135.54,-45.76 -140.6,-43.52 -144.57,-41.28 -147.63,-39.11 -150.75,-37.11 -157.21,-35.52" fill="none" stroke="url(#rainbowGradient)" stroke-width="2" stroke-linejoin="round" filter="url(#fuzzy)" /><polyline points="-30.55,-77.14 -33.15,-76.12 -35.52,-75.14 -37.96,-74.17 -40.67,-73.15 -43.61,-72.06 -46.6,-70.84 -49.48,-69.49 -52.27,-68.01 -55.06,-66.41 -57.97,-64.73 -61.01,-63.02 -64.14,-61.3 -67.29,-59.59 -70.35,-57.89 -73.22,-56.18 -75.83,-54.43 -78.16,-52.63 -80.27,-50.75 -82.21,-48.79 -84.06,-46.79 -85.9,-44.77 -87.78,-42.74 -89.8,-40.69 -92.05,-38.59 -94.59,-36.42 -97.38,-34.2 -100.25,-31.85 -103.2,-29.41" fill="none" stroke="url(#rainbowGradient)" stroke-width="2" stroke-linejoin="round" filter="url(#fuzzy)" /><polyline points="-31.77,-76.61 -34.7,-75.89 -37.73,-74.82 -40.26,-73.67 -43.03,-72.5 -46.32,-71.29 -49.85,-70.01 -53.24,-68.65 -56.32,-67.22 -59.21,-65.73 -62.14,-64.18 -65.31,-62.57 -68.79,-60.91 -72.59,-59.22 -76.7,-57.5 -81.1,-55.75 -85.67,-53.96 -90.16,-52.09 -94.26,-50.12 -97.76,-48.02 -100.77,-45.83 -103.67,-43.58 -107,-41.3 -111.28,-39.05 -117.3,-36.78" fill="none" stroke="url(#rainbowGradient)" stroke-width="2" stroke-linejoin="round" filter="url(#fuzzy)" /><polyline points="-33.35,-76.14 -35.82,-75.07 -37.86,-74.13 -39.8,-73.13 -41.77,-72.02 -43.93,-70.8 -46.41,-69.43 -49.23,-67.92 -52.3,-66.3 -55.49,-64.61 -58.63,-62.88 -61.59,-61.15 -64.33,-59.43 -66.88,-57.71 -69.36,-55.98 -71.88,-54.2 -74.54,-52.37 -77.36,-50.47 -80.27,-48.52 -83.23,-46.52 -86.17,-44.48 -89.07,-42.42 -91.9,-40.32 -94.59,-38.19 -97.11,-36.01 -99.46,-33.79 -101.8,-31.53 -104.4,-29.25 -107.44,-26.94 -110.9,-24.58 -114.6,-22.06 -118.34,-19.23 -121.28,-15.93" fill="none" stroke="url(#rainbowGradient)" stroke-width="2" stroke-linejoin="round" filter="url(#fuzzy)" /><polyline points="-36,-74.76 -37.36,-74.11 -39.01,-73.15 -40.53,-72.07 -41.77,-70.87 -42.62,-69.52 -43.03,-68.02 -43.15,-66.4 -43.22,-64.69 -43.46,-62.96 -43.94,-61.24 -44.54,-59.54 -45.07,-57.86 -45.43,-56.16 -45.7,-54.44 -46.01,-52.64 -46.45,-50.77 -46.88,-48.81 -47.01,-46.81 -46.47,-44.79 -45.04,-42.78 -42.63,-40.75 -39.4,-38.66 -35.76,-36.52 -32.45,-34.39 -30.75,-31.61" fill="none" stroke="url(#rainbowGradient)" stroke-width="2" stroke-linejoin="round" filter="url(#fuzzy)" /><polyline points="-36,-74.76 -38.45,-74.1 -40.21,-73.13 -42.02,-72.03 -44.22,-70.8 -47,-69.43 -50.34,-67.9 -54.08,-66.26 -57.88,-64.55 -61.47,-62.81 -64.71,-61.08 -67.67,-59.35 -70.55,-57.63 -73.59,-55.89 -76.93,-54.11 -80.6,-52.28 -84.47,-50.37 -88.35,-48.41 -92.13,-46.41 -95.79,-44.37 -99.45,-42.3 -103.29,-40.19 -107.39,-38.05 -111.67,-35.87 -115.96,-33.64 -120.12,-31.38 -124.21,-29.07 -128.47,-26.71 -133.14,-24.27 -138.2,-21.69 -143.23,-18.93 -147.64,-16.02 -151.05,-13.16 -153.71,-10.69" fill="none" stroke="url(#rainbowGradient)" stroke-width="2" stroke-linejoin="round" filter="url(#fuzzy)" /><polyline points="-35.66,-75.07 -39.01,-73.5 -42.32,-72.37 -45.16,-71.19 -47.43,-69.89 -49.42,-68.5 -51.38,-67.03 -53.43,-65.5 -55.58,-63.91 -57.84,-62.27 -60.21,-60.59 -62.71,-58.86 -65.35,-57.1 -68.13,-55.3 -71,-53.43 -73.88,-51.49 -76.69,-49.47 -79.38,-47.38 -81.99,-45.24 -84.57,-43.08 -87.2,-40.93 -89.85,-38.81 -92.36,-36.69 -94.54,-34.55 -96.27,-32.33 -97.59,-30 -98.69,-27.57 -99.89,-25.09 -101.51,-22.64 -103.65,-20.28 -106.06,-18.1 -108.62,-15.95" fill="none" stroke="url(#rainbowGradient)" stroke-width="2" stroke-linejoin="round" filter="url(#fuzzy)" /><polyline points="-36.86,-74.46 -41.47,-73.19 -43.99,-72.05 -46.1,-70.83 -48.53,-69.46 -51.26,-67.93 -53.98,-66.27 -56.51,-64.54 -58.93,-62.79 -61.48,-61.05 -64.42,-59.33 -67.86,-57.62 -71.69,-55.89 -75.64,-54.12 -79.37,-52.29 -82.61,-50.39 -85.27,-48.43 -87.46,-46.42 -89.46,-44.39 -91.58,-42.32 -94.07,-40.22 -96.97,-38.09 -100.11,-35.91 -103.16,-33.69 -105.81,-31.43 -107.88,-29.14 -109.47,-26.81 -110.91,-24.4 -112.57,-21.84 -114.67,-19.04 -117.26,-15.98 -119.41,-12.9" fill="none" stroke="url(#rainbowGradient)" stroke-width="2" stroke-linejoin="round" filter="url(#fuzzy)" /><polyline points="82.58,-18.96 91.85,-15.26 90.92,-12.34 90.51,-9.77 93.2,-7.3 97.88,-4.79 102.36,-2.2 105.27,0.42 106.62,3.01 107.18,5.52 107.68,7.99 108.34,10.44 109.03,12.92 109.55,15.44 109.84,18.01 110,20.59 110.24,23.17 110.73,25.71 111.64,28.21 113,30.66 114.75,33.06 116.69,35.42 118.5,37.73 119.84,40 120.53,42.21 120.6,44.36 120.36,46.45 120.24,48.48 120.6,50.45 121.47,52.37 122.52,54.25 123.13,56.1 122.75,57.96 121.14,59.83 118.63,61.66 115.91,63.41 113.29,65.16 108.11,67.26" fill="none" stroke="url(#rainbowGradient)" stroke-width="2" stroke-linejoin="round" filter="url(#fuzzy)" /><polyline points="-39.97,-72.87 -41.45,-72.02 -43.88,-70.86 -46.92,-69.51 -50.58,-67.98 -55.07,-66.31 -60.57,-64.56 -66.96,-62.8 -73.76,-61.07 -80.28,-59.37 -85.97,-57.68 -90.59,-55.98 -94.28,-54.24 -97.48,-52.43 -100.76,-50.54 -104.66,-48.59 -109.6,-46.59 -115.72,-44.56 -122.84,-42.52 -130.48,-40.46 -137.93,-38.35 -144.39,-36.19 -149.27,-33.97 -152.82,-31.71 -156.58,-29.42 -162.96,-27.13 -172.45,-24.7" fill="none" stroke="url(#rainbowGradient)" stroke-width="2" stroke-linejoin="round" filter="url(#fuzzy)" /><polyline points="-39.58,-72.83 -44.82,-71.33 -47.66,-69.92 -50.67,-68.45 -54,-66.95 -57.08,-65.4 -59.62,-63.8 -61.85,-62.14 -64.21,-60.44 -67.02,-58.69 -70.26,-56.92 -73.64,-55.09 -76.78,-53.2 -79.41,-51.24 -81.48,-49.2 -83.14,-47.1 -84.62,-44.96 -86.12,-42.81 -87.74,-40.65 -89.5,-38.49 -91.37,-36.33 -93.38,-34.12 -95.54,-31.86 -97.87,-29.54 -100.36,-27.16 -102.97,-24.74 -105.67,-22.31 -108.48,-19.9 -111.45,-17.49 -114.55,-15.08 -117.63,-12.65 -120.44,-10.15 -122.72,-7.56 -124.44,-4.92 -126.19,-2.64 -128.7,-2.09" fill="none" stroke="url(#rainbowGradient)" stroke-width="2" stroke-linejoin="round" filter="url(#fuzzy)" /><polyline points="-40.6,-72.21 -44.09,-70.91 -46.62,-69.5 -49.31,-67.92 -52.5,-66.19 -56.14,-64.4 -60.01,-62.61 -63.9,-60.86 -67.58,-59.14 -70.82,-57.42 -73.5,-55.67 -75.65,-53.88 -77.51,-52.03 -79.45,-50.11 -81.91,-48.13 -85.17,-46.1 -89.28,-44.05 -94.04,-41.95 -99.06,-39.83 -103.88,-37.66 -108.16,-35.46 -111.73,-33.2 -114.6,-30.9 -116.94,-28.54 -118.96,-26.12 -120.89,-23.64 -122.87,-21.09 -124.97,-18.52 -127.22,-15.95 -129.6,-13.46 -132.1,-11.09 -134.63,-8.85 -137.11,-6.69 -139.56,-4.51 -142.36,-2.15 -145.99,0.57 -149.77,3.63 -151.03,6.53" fill="none" stroke="url(#rainbowGradient)" stroke-width="2" stroke-linejoin="round" filter="url(#fuzzy)" /><polyline points="-40.6,-72.21 -42.2,-70.93 -43.57,-69.54 -45.19,-67.99 -46.98,-66.28 -48.66,-64.5 -49.96,-62.73 -50.76,-60.99 -51.09,-59.3 -51.08,-57.61 -50.89,-55.91 -50.68,-54.17 -50.5,-52.36 -50.28,-50.46 -49.8,-48.51 -48.82,-46.5 -47.16,-44.48 -44.8,-42.43 -41.98,-40.36 -39.14,-38.25 -36.86,-36.09 -35.51,-33.87 -35.03,-31.62 -34.83,-29.36 -34.08,-27.11 -32.22,-24.95 -30.25,-23.06" fill="none" stroke="url(#rainbowGradient)" stroke-width="2" stroke-linejoin="round" filter="url(#fuzzy)" /><polyline points="-40.6,-72.21 -43.6,-70.92 -47.14,-69.52 -51.55,-67.96 -55.91,-66.24 -59.26,-64.46 -61.41,-62.68 -62.83,-60.93 -64.12,-59.22 -65.68,-57.53 -67.7,-55.81 -70.21,-54.04 -73.26,-52.21 -76.82,-50.3 -80.82,-48.34 -85.09,-46.33 -89.38,-44.29 -93.5,-42.22 -97.43,-40.12 -101.27,-37.99 -105.14,-35.81 -108.99,-33.58 -112.53,-31.32 -115.39,-29.02 -117.46,-26.67 -119.12,-24.24 -121.3,-21.66 -124.91,-18.91 -130.15,-16.01 -135.5,-13.15 -136.57,-10.69" fill="none" stroke="url(#rainbowGradient)" stroke-width="2" stroke-linejoin="round" filter="url(#fuzzy)" /><polyline points="-43.3,-71.07 -45.55,-69.91 -49.61,-68.46 -55.08,-66.97 -60.39,-65.44 -64.25,-63.86 -66.43,-62.22 -67.58,-60.53 -68.69,-58.81 -70.51,-57.06 -73.4,-55.27 -77.34,-53.43 -82.1,-51.5 -87.32,-49.49 -92.64,-47.39 -97.71,-45.24 -102.25,-43.08 -106.15,-40.93 -109.46,-38.84 -112.36,-36.77 -114.98,-34.69 -117.38,-32.51 -119.69,-30.16 -122.19,-27.69 -124.98,-25.19 -127.76,-22.61 -132.46,-18.84" fill="none" stroke="url(#rainbowGradient)" stroke-width="2" stroke-linejoin="round" filter="url(#fuzzy)" /><polyline points="-45,-70.16 -47.81,-68.49 -50.29,-66.94 -53.01,-65.43 -55.94,-63.87 -58.82,-62.24 -61.44,-60.55 -63.81,-58.83 -65.99,-57.1 -68.11,-55.35 -70.24,-53.53 -72.42,-51.63 -74.61,-49.63 -76.79,-47.54 -78.98,-45.38 -81.26,-43.19 -83.71,-41.04 -86.27,-38.97 -88.77,-37 -91.06,-35.11 -93.24,-33.11 -95.81,-30.6 -99.07,-26.71" fill="none" stroke="url(#rainbowGradient)" stroke-width="2" stroke-linejoin="round" filter="url(#fuzzy)" /><polyline points="-47.62,-68.39 -58.2,-66.79 -68.3,-65.32 -72.04,-63.75 -72.34,-62.09 -72.18,-60.36 -72.86,-58.61 -74.49,-56.84 -76.8,-55.03 -79.62,-53.16 -83,-51.2 -87.11,-49.16 -92.04,-47.04 -97.62,-44.89 -103.44,-42.73 -108.92,-40.58 -113.55,-38.44 -117.07,-36.29 -119.58,-34.11 -121.46,-31.86 -123.24,-29.53 -125.34,-27.15 -127.96,-24.73 -131.03,-22.31 -134.41,-19.9 -138,-17.51 -141.81,-15.13 -145.84,-12.72 -149.94,-10.24 -153.75,-7.57 -156.92,-4.49 -157.53,-0.91" fill="none" stroke="url(#rainbowGradient)" stroke-width="2" stroke-linejoin="round" filter="url(#fuzzy)" /><polyline points="-47.21,-68.44 -50.47,-66.33 -54.54,-64.31 -58.72,-62.45 -62.09,-60.72 -64.45,-59.05 -66.19,-57.4 -67.77,-55.71 -69.49,-53.96 -71.39,-52.13 -73.4,-50.22 -75.4,-48.24 -77.28,-46.22 -79.05,-44.19 -80.79,-42.13 -82.68,-40.04 -84.84,-37.91 -87.29,-35.73 -89.88,-33.51 -92.35,-31.26 -94.48,-28.97 -96.23,-26.62 -97.8,-24.2 -99.49,-21.63 -101.47,-18.88 -103.66,-15.98 -106,-13.14 -108.63,-10.69" fill="none" stroke="url(#rainbowGradient)" stroke-width="2" stroke-linejoin="round" filter="url(#fuzzy)" /><polyline points="82.86,-17.48 87.4,-15.55 88.3,-12.97 88.56,-10.34 89.11,-7.78 90.45,-5.26 92.63,-2.74 95.19,-0.22 97.59,2.31 99.61,4.81 101.34,7.28 103.03,9.7 104.75,12.08 106.29,14.42 107.36,16.73 107.75,19.06 107.51,21.41 106.99,23.8 106.6,26.22 106.65,28.62 107.23,30.96 108.19,33.22 109.29,35.44 110.24,37.69 110.76,40 110.24,42.24 107.69,44.26" fill="none" stroke="url(#rainbowGradient)" stroke-width="2" stroke-linejoin="round" filter="url(#fuzzy)" /><polyline points="82.86,-17.48 83.88,-15.55 87.14,-12.95 91.41,-10.31 94.74,-7.75 96.6,-5.22 97.46,-2.7 97.84,-0.17 98.01,2.36 98.1,4.87 98.24,7.34 98.56,9.77 99.13,12.15 99.9,14.5 100.73,16.83 101.47,19.17 102.04,21.53 102.5,23.92 103.09,26.33 104.04,28.71 105.42,31.06 106.95,33.34 108.06,35.58 108.24,37.8 107.51,40.01 106.67,42.14 106.6,44.17 106.95,46.26 106.49,49.16" fill="none" stroke="url(#rainbowGradient)" stroke-width="2" stroke-linejoin="round" filter="url(#fuzzy)" /><polyline points="-50.52,-66.48 -52.5,-65.29 -56.77,-63.79 -62.52,-62.13 -68.36,-60.4 -73.86,-58.66 -78.86,-56.92 -83.27,-55.16 -87.26,-53.33 -91.31,-51.41 -95.92,-49.39 -101.15,-47.28 -106.54,-45.12 -111.41,-42.96 -115.28,-40.82 -118.28,-38.74 -121.14,-36.7 -124.89,-34.63 -130.15,-32.46 -136.68,-30.12 -143.53,-27.65 -149.68,-25.16 -154.95,-22.6 -161.03,-18.84" fill="none" stroke="url(#rainbowGradient)" stroke-width="2" stroke-linejoin="round" filter="url(#fuzzy)" /><polyline points="-50.52,-66.48 -52.51,-65.27 -54.65,-63.74 -56.6,-62.04 -58.44,-60.29 -60.26,-58.52 -62.1,-56.74 -64.03,-54.93 -66.05,-53.05 -68.15,-51.07 -70.27,-49.01 -72.3,-46.89 -74.19,-44.73 -75.93,-42.56 -77.54,-40.39 -79.09,-38.23 -80.64,-36.06 -82.23,-33.84 -83.82,-31.58 -85.39,-29.25 -86.9,-26.87 -88.35,-24.46 -89.78,-22.03 -91.25,-19.61 -92.76,-17.19 -94.26,-14.76 -95.65,-12.31 -96.85,-9.83 -97.86,-7.34 -98.75,-4.86 -99.7,-2.44 -100.79,-0.08 -101.99,2.29 -103.05,4.81 -103.72,7.71 -103.96,11.01" fill="none" stroke="url(#rainbowGradient)" stroke-width="2" stroke-linejoin="round" filter="url(#fuzzy)" /><polyline points="-50.36,-66.22 -66.37,-64.19 -66.79,-62.33 -65.28,-60.65 -65.59,-59.03 -67.9,-57.41 -71.37,-55.76 -75.09,-54.04 -78.46,-52.23 -81.3,-50.33 -83.86,-48.36 -86.49,-46.35 -89.49,-44.33 -92.96,-42.31 -96.89,-40.25 -101.3,-38.15 -106.37,-36 -112.35,-33.8 -119.42,-31.56 -127.35,-29.31 -135.39,-27.08 -142.13,-24.94 -144.69,-23.06" fill="none" stroke="url(#rainbowGradient)" stroke-width="2" stroke-linejoin="round" filter="url(#fuzzy)" /><polyline points="-51.87,-65.37 -52.75,-63.86 -54.66,-62.11 -56.71,-60.34 -58.45,-58.59 -59.69,-56.86 -60.5,-55.11 -61.09,-53.3 -61.72,-51.38 -62.55,-49.35 -63.54,-47.24 -64.53,-45.08 -65.31,-42.91 -65.74,-40.78 -65.87,-38.7 -65.88,-36.67 -66.04,-34.61 -66.53,-32.44 -67.22,-30.1 -67.75,-27.63 -67.7,-25.15 -66.99,-22.59 -66.02,-18.84" fill="none" stroke="url(#rainbowGradient)" stroke-width="2" stroke-linejoin="round" filter="url(#fuzzy)" /><polyline points="-51.87,-65.37 -54.06,-63.86 -56.9,-62.1 -60.12,-60.33 -63.5,-58.58 -66.7,-56.84 -69.45,-55.09 -71.69,-53.26 -73.67,-51.34 -75.77,-49.31 -78.25,-47.19 -81.16,-45.03 -84.29,-42.87 -87.41,-40.73 -90.37,-38.65 -93.22,-36.59 -96.08,-34.5 -99.04,-32.31 -102.05,-29.99 -104.96,-27.54 -107.58,-25.06 -109.84,-22.6 -111.91,-20.2 -114.64,-18.65" fill="none" stroke="url(#rainbowGradient)" stroke-width="2" stroke-linejoin="round" filter="url(#fuzzy)" /><polyline points="-53.58,-64.24 -50.35,-62.03 -46.46,-60.21 -46.74,-58.44 -50.11,-56.68 -54.3,-54.91 -57.75,-53.06 -59.82,-51.09 -60.42,-49.02 -59.72,-46.89 -57.91,-44.71 -55.19,-42.54 -51.85,-40.39 -48.4,-38.25 -45.47,-36.1 -43.59,-33.92 -42.84,-31.67 -42.84,-29.34 -42.84,-26.96 -42.12,-24.54 -40.3,-22.13 -37.38,-19.72 -33.61,-17.32 -29.3,-14.92 -24.75,-12.48 -20.33,-10 -16.52,-7.46 -13.67,-4.91 -11.68,-2.49 -9.88,-0.24 -7.37,2.97" fill="none" stroke="url(#rainbowGradient)" stroke-width="2" stroke-linejoin="round" filter="url(#fuzzy)" /><polyline points="-57.07,-61.29 -58.5,-60.09 -61.22,-58.36 -64.71,-56.61 -68.17,-54.85 -70.97,-53 -72.97,-51.03 -74.44,-48.94 -75.78,-46.79 -77.35,-44.6 -79.37,-42.42 -81.93,-40.26 -84.99,-38.12 -88.47,-35.96 -92.18,-33.76 -95.88,-31.49 -99.32,-29.16 -102.33,-26.78 -104.87,-24.37 -107,-21.95 -108.89,-19.53 -110.61,-17.12 -112.17,-14.69 -113.49,-12.25 -114.56,-9.78 -115.52,-7.29 -116.63,-4.82 -118.11,-2.41 -119.98,-0.05 -122.03,2.3 -123.95,4.83 -125.44,7.72 -127.07,11.01" fill="none" stroke="url(#rainbowGradient)" stroke-width="2" stroke-linejoin="round" filter="url(#fuzzy)" /><polyline points="-58.11,-60.13 -59,-58.86 -60.33,-57.24 -61.55,-55.56 -62.7,-53.83 -63.97,-52.01 -65.42,-50.08 -66.89,-48.07 -68.21,-46.04 -69.32,-44 -70.25,-41.96 -71.12,-39.89 -72.01,-37.77 -72.95,-35.6 -73.88,-33.39 -74.72,-31.14 -75.41,-28.87 -75.96,-26.54 -76.38,-24.12 -76.64,-21.57 -76.69,-18.83 -76.51,-15.94 -76.18,-13.12 -75.89,-10.69" fill="none" stroke="url(#rainbowGradient)" stroke-width="2" stroke-linejoin="round" filter="url(#fuzzy)" /><polyline points="-57.66,-60.81 -60.26,-58.39 -62.27,-56.53 -64.01,-54.8 -65.72,-52.97 -67.5,-50.98 -69.3,-48.88 -71.08,-46.7 -72.75,-44.5 -74.31,-42.31 -75.77,-40.15 -77.2,-38 -78.7,-35.83 -80.34,-33.62 -82.12,-31.35 -83.98,-29.01 -85.8,-26.63 -87.47,-24.21 -88.93,-21.79 -90.16,-19.36 -91.24,-16.94 -92.23,-14.51 -93.17,-12.06 -94.08,-9.59 -94.92,-7.12 -95.7,-4.66 -96.45,-2.22 -97.21,0.2 -97.98,2.64 -98.68,5.14 -99.18,7.72 -99.41,10.36 -99.43,13.02 -99.46,15.73 -99.62,18.16" fill="none" stroke="url(#rainbowGradient)" stroke-width="2" stroke-linejoin="round" filter="url(#fuzzy)" /><polyline points="82.52,-17.93 84.52,-17.23 88.03,-15.02 90.81,-12.51 92.6,-10.03 93.77,-7.6 94.73,-5.12 95.8,-2.57 97.21,0.02 98.99,2.59 101.03,5.07 103.23,7.47 105.57,9.82 108.14,12.21 111.1,14.68 114.53,17.24 118.3,19.86 121.98,22.49 124.98,25.04 126.73,27.5 127.02,29.89 126.06,32.29 124.42,34.75 123.66,37.42" fill="none" stroke="url(#rainbowGradient)" stroke-width="2" stroke-linejoin="round" filter="url(#fuzzy)" /><polyline points="-60.52,-57.84 -64.67,-56.31 -71.01,-54.79 -76.75,-53.06 -80.77,-51.1 -83.62,-49 -86.13,-46.82 -88.93,-44.62 -92.3,-42.44 -96.1,-40.31 -99.81,-38.21 -102.85,-36.12 -104.99,-33.98 -106.62,-31.75 -108.62,-29.43 -111.95,-27.04 -117.14,-24.62 -124.07,-22.21 -132.09,-19.83 -140.41,-17.48 -148.57,-15.13 -156.75,-12.78 -165.61,-10.42 -175.4,-7.93 -186.03,-4.62" fill="none" stroke="url(#rainbowGradient)" stroke-width="2" stroke-linejoin="round" filter="url(#fuzzy)" /><polyline points="-61.23,-57.03 -62.88,-55.32 -64.1,-53.67 -65.43,-51.85 -66.93,-49.86 -68.44,-47.78 -69.85,-45.7 -71.12,-43.63 -72.26,-41.55 -73.3,-39.43 -74.28,-37.27 -75.2,-35.05 -76.1,-32.79 -76.97,-30.48 -77.81,-28.12 -78.62,-25.69 -79.36,-23.2 -80.02,-20.66 -80.6,-18.11 -81.09,-15.59 -81.49,-13.14 -81.8,-10.77 -82.02,-8.49 -82.15,-6.22 -82.17,-3.89 -82.09,-1.44 -81.92,1.19 -81.67,3.98 -81.38,6.84 -81.05,9.69 -80.68,12.44 -80.24,14.99 -79.76,16.76" fill="none" stroke="url(#rainbowGradient)" stroke-width="2" stroke-linejoin="round" filter="url(#fuzzy)" /><polyline points="-61.23,-57.03 -63.34,-55.32 -65.6,-53.66 -67.99,-51.85 -70.73,-49.85 -73.88,-47.77 -77.14,-45.69 -80.17,-43.61 -82.98,-41.53 -85.83,-39.41 -88.97,-37.24 -92.44,-35.03 -95.92,-32.76 -98.99,-30.45 -101.35,-28.08 -102.98,-25.64 -104.16,-23.15 -105.31,-20.62 -106.79,-18.07 -108.79,-15.56 -111.33,-13.11 -114.3,-10.74 -117.55,-8.43 -120.92,-6.14 -124.17,-3.79 -127.04,-1.32 -129.22,1.3 -130.52,4.06 -130.95,6.89 -130.95,9.7 -131.37,12.41 -133.15,14.95 -136.4,17.26 -139.75,19.57" fill="none" stroke="url(#rainbowGradient)" stroke-width="2" stroke-linejoin="round" filter="url(#fuzzy)" /><polyline points="-64.77,-53.3 -65.82,-52.02 -67.99,-49.92 -70.93,-47.72 -74.33,-45.6 -77.94,-43.56 -81.65,-41.52 -85.16,-39.44 -88.1,-37.3 -90.24,-35.1 -91.66,-32.85 -92.71,-30.56 -93.79,-28.23 -95.15,-25.82 -96.86,-23.34 -98.85,-20.79 -101.06,-18.21 -103.42,-15.65 -105.92,-13.18 -108.59,-10.86 -111.36,-8.67 -114.08,-6.57 -116.5,-4.43 -118.36,-2.08 -119.47,0.63 -119.67,3.67 -119.17,6.53" fill="none" stroke="url(#rainbowGradient)" stroke-width="2" stroke-linejoin="round" filter="url(#fuzzy)" /><polyline points="-64.91,-53.01 -67.34,-50.03 -69.28,-47.64 -70.86,-45.5 -72.19,-43.49 -73.41,-41.49 -74.63,-39.42 -75.83,-37.28 -77.01,-35.08 -78.13,-32.84 -79.17,-30.56 -80.15,-28.24 -81.06,-25.84 -81.91,-23.37 -82.69,-20.82 -83.43,-18.22 -84.12,-15.65 -84.75,-13.17 -85.29,-10.86 -85.73,-8.71 -86.08,-6.67 -86.38,-4.62 -86.63,-2.35 -86.82,0.46 -86.95,4.01" fill="none" stroke="url(#rainbowGradient)" stroke-width="2" stroke-linejoin="round" filter="url(#fuzzy)" /><polyline points="-67.09,-50.55 -67.57,-48.64 -66.45,-46.48 -63.47,-44.25 -59.75,-42.04 -57.04,-39.92 -56.22,-37.87 -56.91,-35.83 -58.05,-33.71 -58.64,-31.48 -58.01,-29.14 -55.84,-26.73 -52.1,-24.32 -47.13,-21.92 -41.69,-19.55 -36.69,-17.2 -32.86,-14.84 -30.45,-12.45 -29.21,-9.99 -28.48,-7.43 -27.2,-4.82 -24.23,-2.6 -21.99,-2.09" fill="none" stroke="url(#rainbowGradient)" stroke-width="2" stroke-linejoin="round" filter="url(#fuzzy)" /><polyline points="-67.09,-50.55 -73.58,-48.62 -78.44,-46.44 -79.72,-44.18 -79.93,-41.96 -80.62,-39.82 -82.14,-37.74 -84.34,-35.66 -87.01,-33.49 -89.96,-31.23 -92.95,-28.87 -95.72,-26.46 -98.07,-24.04 -99.95,-21.62 -101.47,-19.22 -102.86,-16.81 -104.41,-14.4 -106.38,-11.96 -108.86,-9.51 -111.78,-7.04 -114.89,-4.59 -117.87,-2.18 -120.59,0.21 -123.09,2.61 -125.56,5.1 -127.96,7.68 -129.9,10.3 -130.79,12.95 -130.78,16.35" fill="none" stroke="url(#rainbowGradient)" stroke-width="2" stroke-linejoin="round" filter="url(#fuzzy)" /><polyline points="82.28,-19.32 90.02,-17.55 91.89,-15.4 94.34,-12.93 96.24,-10.37 96.93,-7.82 97.22,-5.28 98.29,-2.75 100.76,-0.21 104.33,2.32 108.14,4.83 111.2,7.3 112.92,9.74 113.33,12.13 112.94,14.49 112.5,16.83 112.6,19.18 113.51,21.55 115.16,23.94 117.22,26.34 119.35,28.73 121.24,31.07 122.71,33.37 123.71,35.62 124.26,37.84 124.48,40.03 124.49,42.17 124.28,44.23 123.63,46.25 122.54,48.25 121.68,49.67" fill="none" stroke="url(#rainbowGradient)" stroke-width="2" stroke-linejoin="round" filter="url(#fuzzy)" /><polyline points="-68.95,-48.12 -71.1,-45.16 -72.65,-43.21 -74.49,-41.28 -77.08,-39.2 -80.45,-37 -84.46,-34.76 -88.79,-32.47 -92.9,-30.15 -96.23,-27.77 -98.51,-25.33 -99.83,-22.82 -100.63,-20.27 -101.39,-17.72 -102.47,-15.21 -104.04,-12.77 -106.1,-10.4 -108.6,-8.08 -111.5,-5.76 -114.73,-3.37 -118.22,-0.88 -121.8,1.74 -125.31,4.44 -128.62,7.18 -131.67,9.9 -134.45,12.53 -137,15.04 -139.31,17.42 -141.29,19.72 -142.9,21.98 -144.33,24.24 -145.97,26.33 -149.44,27.43" fill="none" stroke="url(#rainbowGradient)" stroke-width="2" stroke-linejoin="round" filter="url(#fuzzy)" /><polyline points="-68.95,-48.12 -79.16,-45.15 -85.59,-43.2 -86.87,-41.25 -87.43,-39.16 -88.78,-36.95 -90.6,-34.69 -92.39,-32.4 -94.07,-30.06 -95.79,-27.67 -97.68,-25.21 -99.68,-22.69 -101.57,-20.14 -103.09,-17.59 -104.14,-15.09 -104.86,-12.64 -105.54,-10.25 -106.55,-7.89 -108.14,-5.52 -110.36,-3.08 -113.03,-0.57 -115.86,2.04 -118.51,4.7 -120.72,7.39 -122.36,10.06 -123.46,12.65 -124.24,15.17 -125.03,17.59 -126.19,19.93 -127.96,22.22 -130.33,24.48 -132.96,26.73 -135.35,28.99 -137.03,31.24 -137.8,33.47 -137.78,35.66 -137.55,37.9 -139.03,40.21" fill="none" stroke="url(#rainbowGradient)" stroke-width="2" stroke-linejoin="round" filter="url(#fuzzy)" /><polyline points="-69.95,-46.34 -73.43,-43.99 -74.84,-41.68 -75.93,-39.54 -77.04,-37.49 -78.3,-35.42 -79.73,-33.24 -81.34,-30.94 -83.09,-28.54 -84.94,-26.1 -86.89,-23.65 -88.95,-21.21 -91.07,-18.77 -93.17,-16.34 -95.11,-13.9 -96.79,-11.44 -98.15,-8.97 -99.27,-6.51 -100.32,-4.04 -101.49,-1.57 -102.91,0.91 -104.61,3.4 -106.49,5.93 -108.38,8.48 -110.15,11.06 -111.75,13.66 -113.22,16.26 -114.58,18.85 -115.79,21.42 -116.7,23.97 -117.21,26.47 -117.33,28.9 -117.24,31.21 -117.08,33.42 -116.71,35.57 -115.84,37.81 -114.54,40.33 -114.28,43.1" fill="none" stroke="url(#rainbowGradient)" stroke-width="2" stroke-linejoin="round" filter="url(#fuzzy)" /><polyline points="-71.17,-44.03 -73.14,-41.57 -74.5,-39.44 -75.64,-37.46 -76.64,-35.47 -77.56,-33.35 -78.46,-31.06 -79.34,-28.66 -80.19,-26.21 -81.01,-23.77 -81.79,-21.35 -82.52,-18.94 -83.2,-16.54 -83.82,-14.13 -84.36,-11.69 -84.8,-9.24 -85.15,-6.78 -85.4,-4.33 -85.59,-1.91 -85.72,0.51 -85.81,2.95 -85.86,5.44 -85.84,8 -85.71,10.59 -85.43,13.19 -85.02,15.78 -84.48,18.34 -83.8,21.01 -82.91,24.4" fill="none" stroke="url(#rainbowGradient)" stroke-width="2" stroke-linejoin="round" filter="url(#fuzzy)" /><polyline points="-76.49,-35.39 -77.68,-34.36 -80.29,-32.22 -82.71,-29.9 -84.69,-27.55 -86.28,-25.13 -87.47,-22.6 -88.31,-20 -89.07,-17.39 -89.99,-14.86 -91.17,-12.43 -92.55,-10.12 -94.01,-7.87 -95.43,-5.6 -96.77,-3.24 -97.97,-0.75 -98.97,1.87 -99.77,4.59 -100.47,7.33 -101.24,10.04 -102.19,12.65 -103.33,15.14 -104.52,17.5 -105.67,19.78 -106.74,22.02 -107.71,24.27 -108.26,26.34 -108.53,27.43" fill="none" stroke="url(#rainbowGradient)" stroke-width="2" stroke-linejoin="round" filter="url(#fuzzy)" /><polyline points="-76.47,-35.66 -78.4,-32.38 -81.09,-29.8 -86.23,-27.42 -93.35,-24.98 -100.15,-22.43 -104.76,-19.79 -106.86,-17.16 -107.25,-14.62 -106.99,-12.19 -106.81,-9.85 -107.02,-7.55 -107.73,-5.22 -108.98,-2.81 -110.84,-0.28 -113.4,2.34 -116.62,5.02 -120.31,7.71 -124.09,10.37 -127.5,12.94 -130.12,15.43 -131.83,17.84 -132.82,20.18 -133.49,22.46 -134.25,24.72 -135.27,26.97 -136.43,29.21 -137.48,31.44 -138.35,33.67 -139.32,35.87 -140.87,38.08 -143.43,40.3 -147.3,42.58 -152.64,44.89 -157.99,46.98" fill="none" stroke="url(#rainbowGradient)" stroke-width="2" stroke-linejoin="round" filter="url(#fuzzy)" /><polyline points="-77.49,-33.76 -80.25,-31.2 -85.89,-28.31 -92.53,-25.69 -98.6,-23.25 -102.88,-20.87 -104.7,-18.51 -104.24,-16.13 -102.37,-13.72 -100.13,-11.29 -98.36,-8.83 -97.53,-6.36 -97.79,-3.92 -99.1,-1.49 -101.32,0.94 -104.22,3.39 -107.5,5.89 -110.81,8.43 -113.91,11 -116.73,13.59 -119.4,16.17 -122.06,18.74 -124.67,21.31 -126.97,23.88 -128.66,26.44 -129.57,28.95 -129.44,31.35 -128.34,33.82" fill="none" stroke="url(#rainbowGradient)" stroke-width="2" stroke-linejoin="round" filter="url(#fuzzy)" /><polyline points="-77.49,-33.76 -77.28,-31.17 -77.64,-28.26 -77.75,-25.63 -78.08,-23.16 -78.74,-20.76 -79.54,-18.37 -80.27,-15.96 -80.81,-13.53 -81.08,-11.07 -81.05,-8.59 -80.72,-6.11 -80.09,-3.64 -79.25,-1.18 -78.29,1.3 -77.33,3.79 -76.4,6.32 -75.52,8.88 -74.63,11.46 -73.67,14.05 -72.59,16.64 -71.39,19.21 -70.1,21.76 -68.78,24.27 -67.48,26.73 -66.23,29.13 -65.01,31.45 -63.76,33.72 -62.38,35.93 -60.81,38.12 -59.08,40.28 -57.27,42.39 -55.49,44.42 -53.71,46.4 -51.8,48.39 -49.62,50.46 -47.47,52.4" fill="none" stroke="url(#rainbowGradient)" stroke-width="2" stroke-linejoin="round" filter="url(#fuzzy)" /><polyline points="-78.09,-31.61 -78.55,-29.54 -78.94,-27.4 -79.26,-25.09 -79.46,-22.58 -79.34,-19.95 -78.61,-17.29 -76.87,-14.73 -73.83,-12.33 -69.38,-10.07 -63.86,-7.9 -58,-5.71 -52.7,-3.42 -48.64,-0.96 -45.95,1.68 -44.11,4.43 -42.13,7.23 -39.1,9.97 -34.68,12.6 -29.21,15.07 -23.18,17.37 -16.11,19.53 -7.62,21.62" fill="none" stroke="url(#rainbowGradient)" stroke-width="2" stroke-linejoin="round" filter="url(#fuzzy)" /><polyline points="-78.09,-31.61 -79.27,-29.53 -80.69,-27.36 -82.06,-25.03 -83.4,-22.5 -84.83,-19.85 -86.41,-17.2 -88.2,-14.64 -90.26,-12.23 -92.71,-9.94 -95.7,-7.72 -99.31,-5.47 -103.49,-3.12 -108.04,-0.62 -112.67,2.01 -117.1,4.73 -121.16,7.47 -124.69,10.16 -127.53,12.76 -129.51,15.23 -130.6,17.59 -130.99,19.87 -131.23,22.1 -132.01,24.3 -133.96,26.42 -136.68,28.43 -137.3,30.84" fill="none" stroke="url(#rainbowGradient)" stroke-width="2" stroke-linejoin="round" filter="url(#fuzzy)" /><polyline points="-78.09,-31.61 -79.31,-29.5 -80.42,-27.31 -81.32,-24.94 -82.12,-22.38 -82.95,-19.72 -83.89,-17.06 -84.99,-14.5 -86.22,-12.07 -87.47,-9.75 -88.59,-7.46 -89.47,-5.13 -90.11,-2.71 -90.58,-0.18 -91.01,2.45 -91.48,5.13 -92.03,7.82 -92.61,10.47 -93.15,13.04 -93.55,15.53 -93.75,17.94 -93.68,20.27 -93.34,22.57 -92.74,24.83 -91.93,27.08 -91.02,29.32 -90.15,31.55 -89.44,33.78 -88.9,36 -88.47,38.22 -88.01,40.45 -87.41,42.7 -86.63,44.96 -85.61,47.2 -84.18,49.39 -83.01,51.49" fill="none" stroke="url(#rainbowGradient)" stroke-width="2" stroke-linejoin="round" filter="url(#fuzzy)" /><polyline points="81.17,-22.76 91.75,-19.99 99.67,-17.71 100.98,-15.39 100.59,-12.93 101.42,-10.4 103.62,-7.86 105.92,-5.31 107.1,-2.77 106.75,-0.23 105.33,2.31 103.66,4.82 102.44,7.3 102,9.74 102.27,12.14 103.02,14.51 104.04,16.87 105.2,19.23 106.48,21.61 107.85,24 109.21,26.4 110.39,28.78 111.23,31.13 111.73,33.43 112.13,35.69 112.88,37.91 114.41,40.09 116.89,42.23 119.92,44.32 122.6,46.36 123.83,48.37 123.14,50.34 121.41,52.15 120.96,53.37" fill="none" stroke="url(#rainbowGradient)" stroke-width="2" stroke-linejoin="round" filter="url(#fuzzy)" /><polyline points="81.17,-22.76 82.57,-19.98 83.45,-17.71 83.82,-15.38 84.09,-12.92 84.41,-10.39 84.8,-7.84 85.2,-5.3 85.52,-2.75 85.72,-0.21 85.78,2.33 85.73,4.84 85.61,7.32 85.46,9.76 85.28,12.17 85.08,14.54 84.81,16.91 84.45,19.27 84,21.65 83.44,24.04 82.82,26.44 82.14,28.82 81.45,31.16 80.74,33.47 80.01,35.73 79.25,37.95 78.42,40.13 77.49,42.26 76.4,44.35 75.12,46.39 73.68,48.39 72.18,50.32 70.76,52.13 69.5,53.78 68.25,55.46" fill="none" stroke="url(#rainbowGradient)" stroke-width="2" stroke-linejoin="round" filter="url(#fuzzy)" /><polyline points="80.4,-25.51 83.54,-22.46 84.83,-19.83 85.96,-17.41 87.42,-14.98 89.03,-12.52 90.37,-10.04 91.2,-7.54 91.54,-5.01 91.64,-2.44 91.75,0.14 92.04,2.7 92.52,5.21 93.13,7.68 93.76,10.14 94.41,12.62 95.09,15.14 95.86,17.69 96.73,20.27 97.65,22.85 98.51,25.4 99.18,27.9 99.62,30.36 99.84,32.77 99.94,35.13 100.04,37.46 100.2,39.75 100.37,41.99 100.36,44.16 99.98,46.25 99.09,48.27 97.89,50.28 96.92,52.3 96.78,54.23 96.69,55.62" fill="none" stroke="url(#rainbowGradient)" stroke-width="2" stroke-linejoin="round" filter="url(#fuzzy)" /><polyline points="80.4,-25.51 81.44,-22.48 82.75,-19.87 84.49,-17.47 86.56,-15.06 88.54,-12.62 90.04,-10.16 90.86,-7.69 91.1,-5.18 91,-2.62 90.82,-0.04 90.69,2.51 90.66,5 90.68,7.44 90.68,9.85 90.66,12.27 90.66,14.76 90.75,17.32 90.98,19.93 91.3,22.54 91.64,25.1 91.93,27.59 92.18,30.02 92.37,32.42 92.41,34.79 92.1,37.08 91.48,39.22 90.82,41.17" fill="none" stroke="url(#rainbowGradient)" stroke-width="2" stroke-linejoin="round" filter="url(#fuzzy)" /><polyline points="80.86,-23.86 83.23,-22.13 87.97,-19.97 90.55,-17.74 90.54,-15.4 89.48,-12.95 88.69,-10.44 88.84,-7.9 90.1,-5.36 92.34,-2.81 95.21,-0.26 98.21,2.27 100.78,4.78 102.55,7.27 103.44,9.71 103.72,12.12 103.82,14.5 104.19,16.87 105.05,19.24 106.37,21.62 107.91,24.01 109.34,26.41 110.4,28.79 110.96,31.14 111.08,33.44 110.94,35.7 110.75,37.93 110.72,40.11 110.89,42.25 111.11,44.34 111.07,46.38 110.4,48.38 109.03,50.31 107.36,52.13 106.06,53.77 105.47,55.46" fill="none" stroke="url(#rainbowGradient)" stroke-width="2" stroke-linejoin="round" filter="url(#fuzzy)" /><polyline points="80.86,-23.86 84.17,-22.14 87.83,-19.98 91.85,-17.75 94.8,-15.41 96.33,-12.97 96.72,-10.47 96.38,-7.93 95.76,-5.39 95.28,-2.85 95.25,-0.31 95.75,2.22 96.65,4.74 97.71,7.22 98.73,9.66 99.63,12.06 100.45,14.44 101.29,16.8 102.2,19.16 103.1,21.53 103.82,23.93 104.17,26.33 104.07,28.71 103.62,31.06 103.07,33.37 102.7,35.63 102.62,37.85 102.72,40.04 102.72,42.18 102.41,44.27 101.79,46.31 100.95,48.35 99.86,50.43 98.6,52.88" fill="none" stroke="url(#rainbowGradient)" stroke-width="2" stroke-linejoin="round" filter="url(#fuzzy)" /><polyline points="80.36,-26.28 86.22,-24.75 88.03,-22.43 89.42,-20.03 91.24,-17.65 93.82,-15.26 97.24,-12.83 101.21,-10.4 105.24,-7.96 108.97,-5.48 112.34,-2.95 115.4,-0.37 118.05,2.19 120.04,4.68 121.35,7.07 122.51,9.39 124.44,11.72 127.82,14.14 132.33,16.72 136.85,19.47 140.7,22.26 144.86,24.66 153.12,26.02" fill="none" stroke="url(#rainbowGradient)" stroke-width="2" stroke-linejoin="round" filter="url(#fuzzy)" /><polyline points="79.31,-29.19 80.65,-25.3 81.59,-22.57 82.28,-20.18 82.86,-17.87 83.37,-15.52 83.82,-13.09 84.21,-10.61 84.52,-8.09 84.74,-5.57 84.9,-3.04 85.01,-0.51 85.06,2.02 85.05,4.53 84.96,7.01 84.79,9.44 84.51,11.84 84.14,14.2 83.68,16.53 83.14,18.87 82.54,21.23 81.86,23.63 81.11,26.06 80.28,28.48 79.4,30.84 78.48,33.1 77.52,35.3 76.51,37.58 75.44,39.99 74.49,42.28" fill="none" stroke="url(#rainbowGradient)" stroke-width="2" stroke-linejoin="round" filter="url(#fuzzy)" /><polyline points="78.71,-29.83 79.51,-27.12 79.87,-24.79 79.87,-22.4 79.39,-19.98 78.11,-17.56 75.86,-15.12 72.87,-12.66 69.74,-10.18 67.09,-7.68 65.29,-5.14 64.33,-2.58 63.85,-0.01 63.38,2.54 62.54,5.05 61.18,7.53 59.37,9.99 57.37,12.47 55.45,14.98 53.82,17.54 52.52,20.12 51.47,22.71 50.45,25.26 49.22,27.77 47.67,30.23 45.81,32.64 43.81,35.01 41.84,37.35 39.92,39.65 37.9,41.91 35.54,44.1 32.69,46.16 29.52,48.09 26.53,50.05 23.82,52.56" fill="none" stroke="url(#rainbowGradient)" stroke-width="2" stroke-linejoin="round" filter="url(#fuzzy)" /><polyline points="78.9,-30.22 79.78,-28.08 80.95,-25.32 81.99,-22.7 82.98,-20.25 84.07,-17.87 85.27,-15.47 86.53,-13.02 87.76,-10.52 88.84,-8 89.68,-5.46 90.23,-2.91 90.52,-0.37 90.62,2.17 90.61,4.68 90.55,7.17 90.49,9.62 90.48,12.03 90.57,14.42 90.85,16.8 91.34,19.18 92.07,21.56 92.97,23.96 93.89,26.35 94.63,28.73 94.98,31.09 94.84,33.4 94.27,35.67 93.49,37.89 92.78,40.08 92.32,42.23 92.11,44.32 91.97,46.37 91.72,48.37 91.29,50.3 90.63,52.12 89.52,53.77 87.45,55.46" fill="none" stroke="url(#rainbowGradient)" stroke-width="2" stroke-linejoin="round" filter="url(#fuzzy)" /><polyline points="78.9,-30.22 79.29,-28.09 78.64,-25.34 77.43,-22.74 76.51,-20.3 75.93,-17.94 75.28,-15.55 74.24,-13.12 72.73,-10.64 70.89,-8.13 68.99,-5.6 67.38,-3.06 66.36,-0.53 66.02,2 66.24,4.51 66.64,6.99 66.81,9.44 66.41,11.84 65.35,14.2 63.79,16.55 62.05,18.9 60.41,21.27 59.01,23.67 57.69,26.09 56.17,28.5 54.13,30.86 51.44,33.15 48.19,35.39 44.66,37.65 41.29,39.97 38.42,42.23 36.28,44.26" fill="none" stroke="url(#rainbowGradient)" stroke-width="2" stroke-linejoin="round" filter="url(#fuzzy)" /><polyline points="78.9,-30.22 79.64,-28.08 80.66,-25.33 81.68,-22.71 82.59,-20.27 83.36,-17.89 83.99,-15.49 84.46,-13.05 84.81,-10.56 85.07,-8.04 85.28,-5.5 85.46,-2.96 85.63,-0.41 85.77,2.12 85.86,4.63 85.91,7.12 85.91,9.56 85.85,11.98 85.71,14.36 85.48,16.73 85.12,19.1 84.64,21.48 84.04,23.87 83.36,26.27 82.61,28.66 81.82,31.02 80.98,33.33 80.08,35.59 79.15,37.82 78.2,40.02 77.23,42.16 76.21,44.25 75.07,46.3 73.75,48.35 72.2,50.43 70.15,52.88" fill="none" stroke="url(#rainbowGradient)" stroke-width="2" stroke-linejoin="round" filter="url(#fuzzy)" /><polyline points="78.9,-30.22 83.14,-28.09 83.51,-25.34 83.72,-22.74 84.28,-20.3 85.03,-17.94 85.93,-15.55 87.1,-13.12 88.58,-10.64 90.25,-8.13 91.84,-5.6 93.05,-3.06 93.73,-0.53 93.9,2 93.75,4.51 93.52,6.99 93.41,9.44 93.52,11.84 93.83,14.2 94.25,16.55 94.7,18.9 95.15,21.27 95.58,23.67 96,26.09 96.4,28.5 96.77,30.86 97.06,33.15 97.21,35.39 97.14,37.65 96.98,39.97 96.83,42.23 96.11,44.26" fill="none" stroke="url(#rainbowGradient)" stroke-width="2" stroke-linejoin="round" filter="url(#fuzzy)" /><polyline points="77.57,-33.28 78.92,-30.69 79.92,-28.09 80.79,-25.42 81.59,-22.85 82.32,-20.4 82.98,-18 83.58,-15.59 84.12,-13.15 84.61,-10.66 85.01,-8.15 85.34,-5.62 85.58,-3.08 85.74,-0.55 85.82,1.98 85.83,4.5 85.8,6.98 85.71,9.43 85.58,11.84 85.39,14.21 85.13,16.57 84.77,18.93 84.3,21.3 83.71,23.7 83.01,26.12 82.2,28.52 81.34,30.88 80.43,33.18 79.51,35.44 78.58,37.69 77.62,39.93 76.65,42.06 75.66,43.9 74.69,45.19" fill="none" stroke="url(#rainbowGradient)" stroke-width="2" stroke-linejoin="round" filter="url(#fuzzy)" /><polyline points="77.65,-32.79 78.49,-31.54 80.67,-29.55 83.52,-27.32 85.83,-25 87.16,-22.64 87.85,-20.26 88.39,-17.86 89.19,-15.44 90.32,-13.01 91.64,-10.56 92.9,-8.09 93.88,-5.59 94.51,-3.05 94.91,-0.48 95.25,2.08 95.71,4.58 96.34,7 97.13,9.37 98,11.75 98.92,14.21 99.82,16.79 100.61,19.49 101.09,22.22 101.07,24.79 100.39,27.18 99,30.22" fill="none" stroke="url(#rainbowGradient)" stroke-width="2" stroke-linejoin="round" filter="url(#fuzzy)" /><polyline points="75.4,-37.88 71.4,-35.68 66.36,-33.62 64.8,-31.6 66.89,-29.48 70.32,-27.26 73.34,-24.96 75.3,-22.59 76.24,-20.2 76.44,-17.77 76.05,-15.33 75.03,-12.87 73.22,-10.38 70.49,-7.87 66.89,-5.34 62.68,-2.78 58.27,-0.23 54.04,2.32 50.29,4.84 47.13,7.33 44.55,9.81 42.47,12.3 40.84,14.82 39.61,17.38 38.7,19.97 37.92,22.55 37.02,25.12 35.76,27.64 33.99,30.1 31.73,32.53 29.11,34.91 26.23,37.25 23.05,39.57 19.54,41.86 15.96,44.08 12.91,46.13 10.56,47.87 8.23,49.48" fill="none" stroke="url(#rainbowGradient)" stroke-width="2" stroke-linejoin="round" filter="url(#fuzzy)" /><polyline points="72.56,-42.69 80.07,-40.36 83.76,-37.82 87.5,-35.39 90.6,-33.03 92.84,-30.66 94.42,-28.22 95.52,-25.74 96.25,-23.26 96.72,-20.8 97.07,-18.37 97.44,-15.94 97.97,-13.49 98.8,-11.02 100.04,-8.53 101.74,-6.01 103.82,-3.48 106.13,-0.95 108.44,1.59 110.57,4.1 112.44,6.6 114.14,9.05 115.87,11.46 117.87,13.82 120.27,16.14 123.01,18.45 125.87,20.8 128.54,23.22 130.69,25.75 131.87,28.38 131.57,31.07 131.49,33.4" fill="none" stroke="url(#rainbowGradient)" stroke-width="2" stroke-linejoin="round" filter="url(#fuzzy)" /><polyline points="69.97,-46.1 71.68,-43.99 73.35,-42.19 75.19,-40.18 77.04,-37.97 78.7,-35.69 80.16,-33.38 81.47,-31.03 82.72,-28.63 83.96,-26.19 85.23,-23.74 86.57,-21.32 88.05,-18.93 89.73,-16.56 91.59,-14.17 93.56,-11.74 95.51,-9.27 97.31,-6.79 98.86,-4.31 100.09,-1.79 100.95,0.81 101.63,3.48 103.42,6.18" fill="none" stroke="url(#rainbowGradient)" stroke-width="2" stroke-linejoin="round" filter="url(#fuzzy)" /><polyline points="68.9,-48.04 70.82,-45.25 72.26,-42.97 73.58,-40.72 74.83,-38.46 75.97,-36.22 77.01,-34.04 77.95,-31.87 78.83,-29.69 79.65,-27.46 80.42,-25.18 81.14,-22.85 81.81,-20.48 82.42,-18.07 82.96,-15.64 83.43,-13.19 83.83,-10.72 84.15,-8.22 84.39,-5.69 84.56,-3.14 84.65,-0.58 84.66,1.97 84.61,4.49 84.48,6.96 84.26,9.41 83.96,11.87 83.57,14.38 83.09,16.95 82.54,19.58 81.92,22.23 81.24,24.82 80.48,27.34 79.62,29.78 78.63,32.21 77.51,34.72 76.34,37.42" fill="none" stroke="url(#rainbowGradient)" stroke-width="2" stroke-linejoin="round" filter="url(#fuzzy)" /><polyline points="66.35,-51.25 68.95,-48.99 72.23,-46.64 75.54,-44.46 78.62,-42.38 81.85,-40.27 85.62,-38.07 89.92,-35.81 94.52,-33.51 99.17,-31.15 103.87,-28.75 108.65,-26.31 113.49,-23.86 118.28,-21.43 122.94,-19.03 127.7,-16.64 133.04,-14.24 139.32,-11.8 146.33,-9.33 153.17,-6.84 159.01,-4.35 164.19,-1.82 170.09,0.79 176.42,3.47 178.59,6.18" fill="none" stroke="url(#rainbowGradient)" stroke-width="2" stroke-linejoin="round" filter="url(#fuzzy)" /><polyline points="64.31,-53.5 61.24,-52.21 60.7,-50.69 59.3,-48.82 57.87,-46.77 56.96,-44.68 56.38,-42.59 55.85,-40.46 55.3,-38.27 54.92,-36.03 54.94,-33.74 55.42,-31.4 56.11,-29.01 56.53,-26.58 56.05,-24.13 54.2,-21.7 50.87,-19.31 46.32,-16.95 41.15,-14.57 36.07,-12.12 31.55,-9.62 27.73,-7.14 24.69,-4.83 24.77,-3.2" fill="none" stroke="url(#rainbowGradient)" stroke-width="2" stroke-linejoin="round" filter="url(#fuzzy)" /><polyline points="62.03,-56.35 60.7,-54.11 58.99,-52.4 58.18,-50.68 57.63,-48.79 57.44,-46.77 57.78,-44.7 58.39,-42.59 58.8,-40.45 58.64,-38.25 57.81,-36 56.47,-33.7 54.96,-31.34 53.63,-28.94 52.66,-26.51 52.06,-24.06 51.73,-21.62 51.58,-19.21 51.59,-16.82 51.7,-14.41 51.7,-11.96 51.19,-9.48 49.77,-6.99 47.33,-4.5 44.16,-1.99 40.71,0.65 37.26,3.28" fill="none" stroke="url(#rainbowGradient)" stroke-width="2" stroke-linejoin="round" filter="url(#fuzzy)" /><polyline points="60.48,-57.66 64.08,-55.38 66.56,-53.62 69.59,-51.87 73.54,-49.95 77.95,-47.87 82.04,-45.7 85.19,-43.49 87.23,-41.26 88.45,-39.04 89.38,-36.84 90.46,-34.67 91.91,-32.51 93.67,-30.36 95.59,-28.18 97.67,-25.95 100.08,-23.67 103.07,-21.34 106.66,-18.98 110.57,-16.58 114.24,-14.14 117.14,-11.7 119.06,-9.34 120.33,-7.12 121.93,-4.88 125.07,-1.89" fill="none" stroke="url(#rainbowGradient)" stroke-width="2" stroke-linejoin="round" filter="url(#fuzzy)" /><polyline points="58.35,-60.08 60.61,-57.71 63.04,-55.6 65.8,-53.73 68.93,-51.87 72.29,-49.9 75.83,-47.82 79.66,-45.66 83.83,-43.45 88.24,-41.22 92.62,-38.99 96.78,-36.78 100.65,-34.58 104.33,-32.41 107.9,-30.22 111.34,-28.01 114.58,-25.76 117.5,-23.46 120.04,-21.11 122.12,-18.73 123.69,-16.33 124.68,-13.9 125.13,-11.46 125.34,-9.02 125.88,-6.54 127.45,-3.99 130.42,-1.31 134.39,1.46 138.03,4.18 140.19,6.63 143.03,9.07" fill="none" stroke="url(#rainbowGradient)" stroke-width="2" stroke-linejoin="round" filter="url(#fuzzy)" /><polyline points="56.72,-61.13 67.55,-59.63 68.22,-57.66 68.7,-55.69 70.44,-53.79 72.73,-51.88 74.84,-49.9 76.6,-47.81 78.23,-45.66 80.07,-43.45 82.28,-41.22 84.87,-38.99 87.71,-36.78 90.68,-34.57 93.71,-32.38 96.8,-30.18 99.94,-27.96 103.09,-25.69 106.11,-23.39 108.81,-21.04 111.06,-18.65 112.82,-16.24 114.22,-13.81 115.55,-11.36 117.1,-8.89 119,-6.38 121.12,-3.81 123.2,-1.18 125.11,1.48 127.03,4.08 129.2,6.5 131.44,8.68 133.39,10.72 135.95,12.94" fill="none" stroke="url(#rainbowGradient)" stroke-width="2" stroke-linejoin="round" filter="url(#fuzzy)" /><polyline points="54.35,-63.26 58.02,-60.97 62.14,-58.87 66,-56.77 69.27,-54.76 72.32,-52.85 75.61,-50.97 79.32,-49.06 83.27,-47.09 87.06,-45.06 90.31,-42.99 92.85,-40.88 94.77,-38.72 96.46,-36.51 98.37,-34.25 100.89,-31.94 104.24,-29.57 108.5,-27.11 113.57,-24.59 118.97,-22.09 123.55,-19.74 126.19,-17.72 129.06,-16.22" fill="none" stroke="url(#rainbowGradient)" stroke-width="2" stroke-linejoin="round" filter="url(#fuzzy)" /><polyline points="54.74,-62.65 56.93,-61.22 58.97,-59.56 61.03,-57.69 63,-55.79 64.88,-53.91 66.77,-52 68.76,-50.03 70.85,-47.96 72.96,-45.83 75.01,-43.64 76.89,-41.42 78.57,-39.2 80.05,-37 81.38,-34.81 82.62,-32.64 83.86,-30.47 85.18,-28.28 86.62,-26.04 88.17,-23.75 89.77,-21.42 91.31,-19.05 92.68,-16.64 93.81,-14.2 94.71,-11.75 95.42,-9.37 95.95,-7.14 96.32,-4.89 96.87,-1.89" fill="none" stroke="url(#rainbowGradient)" stroke-width="2" stroke-linejoin="round" filter="url(#fuzzy)" /><polyline points="54.09,-63.77 54.5,-63.49 56.07,-62.36 58.27,-60.7 60.49,-58.79 62.49,-56.79 64.27,-54.8 65.89,-52.83 67.44,-50.88 68.96,-48.9 70.47,-46.89 71.99,-44.82 73.51,-42.71 75.03,-40.55 76.54,-38.33 78.01,-36.07 79.43,-33.75 80.78,-31.39 82.04,-28.98 83.21,-26.54 84.26,-24.09 85.21,-21.64 86.05,-19.2 86.83,-16.76 87.57,-14.31 88.31,-11.84 89.08,-9.35 89.89,-6.83 90.69,-4.3 91.42,-1.74 91.97,0.83 92.25,3.39 92.28,5.89 92.22,8.29 92.54,10.88" fill="none" stroke="url(#rainbowGradient)" stroke-width="2" stroke-linejoin="round" filter="url(#fuzzy)" /><polyline points="54.09,-63.77 54.87,-63.51 57.22,-62.39 59.52,-60.76 61.4,-58.87 63.09,-56.88 64.84,-54.9 66.76,-52.96 68.88,-51.04 71.23,-49.09 73.82,-47.1 76.6,-45.06 79.5,-42.98 82.43,-40.85 85.31,-38.67 88.11,-36.44 90.81,-34.16 93.41,-31.83 95.91,-29.44 98.27,-26.99 100.38,-24.51 102.1,-22.06 103.35,-19.68 104.32,-17.39 105.56,-15.05 107.57,-12.36 110.5,-9" fill="none" stroke="url(#rainbowGradient)" stroke-width="2" stroke-linejoin="round" filter="url(#fuzzy)" /><polyline points="50.07,-66.41 53.55,-64.38 56.15,-62.76 58.55,-61.17 60.73,-59.48 62.8,-57.68 64.92,-55.82 67.18,-53.93 69.48,-51.99 71.66,-49.98 73.59,-47.91 75.21,-45.77 76.54,-43.58 77.67,-41.37 78.7,-39.15 79.71,-36.93 80.78,-34.72 81.99,-32.52 83.36,-30.31 84.94,-28.08 86.71,-25.82 88.66,-23.51 90.72,-21.16 92.81,-18.78 94.84,-16.36 96.71,-13.93 98.39,-11.48 99.86,-9.01 101.14,-6.51 102.27,-3.94 103.26,-1.28 104.11,1.43 104.82,4.08 105.35,6.51 105.56,8.62 105.23,10.27" fill="none" stroke="url(#rainbowGradient)" stroke-width="2" stroke-linejoin="round" filter="url(#fuzzy)" /><polyline points="48.99,-67.13 62.97,-64.99 67.45,-63.69 67.33,-62.32 67.34,-60.68 69.04,-58.83 72.1,-56.88 75.69,-54.91 79.23,-52.96 82.47,-51.01 85.39,-49.05 88.04,-47.04 90.49,-44.99 92.88,-42.9 95.35,-40.75 98.03,-38.56 101,-36.31 104.24,-34.01 107.63,-31.66 111.09,-29.26 114.69,-26.82 118.7,-24.36 123.55,-21.92 129.51,-19.5 136.44,-17.1 143.59,-14.69 149.91,-12.22 154.68,-9.7 158.25,-7.2 161.9,-4.85 166.67,-3.2" fill="none" stroke="url(#rainbowGradient)" stroke-width="2" stroke-linejoin="round" filter="url(#fuzzy)" /><polyline points="49.41,-67.65 51.76,-66.12 54.58,-64.46 57.54,-62.85 61.59,-61.23 66.92,-59.53 72.83,-57.75 78.24,-55.91 82.37,-54.03 85,-52.11 86.43,-50.12 87.24,-48.06 88.12,-45.93 89.64,-43.76 92.13,-41.55 95.58,-39.33 99.64,-37.12 103.81,-34.93 107.63,-32.75 110.89,-30.56 113.69,-28.36 116.31,-26.11 119.04,-23.82 122.05,-21.48 125.37,-19.11 128.93,-16.69 132.64,-14.24 136.43,-11.78 140.22,-9.4 143.93,-7.16 147.41,-4.9 149.86,-1.89" fill="none" stroke="url(#rainbowGradient)" stroke-width="2" stroke-linejoin="round" filter="url(#fuzzy)" /><polyline points="49.21,-67.31 51.25,-66.35 54.9,-65.04 57.59,-63.74 59.23,-62.31 60.62,-60.68 62.35,-58.87 64.64,-56.96 67.46,-55.01 70.67,-53.07 74.13,-51.13 77.72,-49.17 81.29,-47.18 84.66,-45.14 87.69,-43.05 90.32,-40.92 92.6,-38.74 94.7,-36.51 96.73,-34.22 98.73,-31.89 100.64,-29.49 102.43,-27.04 104.24,-24.55 106.44,-22.09 109.42,-19.71 113.3,-17.41 117.54,-15.06 120.79,-12.36 121.8,-9" fill="none" stroke="url(#rainbowGradient)" stroke-width="2" stroke-linejoin="round" filter="url(#fuzzy)" /><polyline points="49.21,-67.31 51.17,-66.36 53.52,-65.04 55.16,-63.75 56.65,-62.34 58.35,-60.71 60.33,-58.91 62.53,-57 64.84,-55.06 67.12,-53.12 69.31,-51.19 71.36,-49.24 73.29,-47.25 75.11,-45.23 76.82,-43.15 78.4,-41.03 79.9,-38.86 81.39,-36.64 83.01,-34.37 84.88,-32.05 86.98,-29.66 89.16,-27.19 91.12,-24.66 92.62,-22.15 93.7,-19.78 94.62,-17.73 95.16,-16.22" fill="none" stroke="url(#rainbowGradient)" stroke-width="2" stroke-linejoin="round" filter="url(#fuzzy)" /><polyline points="49.21,-67.31 48.58,-66.35 46.48,-65.03 46.12,-63.72 47.91,-62.29 50.52,-60.64 52.81,-58.82 54.32,-56.91 55.11,-54.96 55.44,-53.01 55.58,-51.06 55.71,-49.08 55.9,-47.08 56.09,-45.03 56.16,-42.93 55.92,-40.78 55.17,-38.59 53.73,-36.34 51.52,-34.04 48.6,-31.69 45.23,-29.29 41.88,-26.85 39.08,-24.39 37.23,-21.94 36.28,-19.52 35.68,-17.12 34.56,-14.7 32.35,-12.23 29.46,-9.71 27.12,-7.21 25.7,-4.86 21.79,-3.2" fill="none" stroke="url(#rainbowGradient)" stroke-width="2" stroke-linejoin="round" filter="url(#fuzzy)" /><polyline points="47.08,-68.58 49.58,-67.5 52.55,-66.08 56.73,-64.54 61.36,-62.97 65.5,-61.37 68.77,-59.7 71.45,-57.95 74.2,-56.15 77.74,-54.31 82.52,-52.43 88.56,-50.48 95.53,-48.47 102.9,-46.38 110.16,-44.22 117.03,-42.02 123.35,-39.79 128.98,-37.57 133.75,-35.39 137.79,-33.28 141.99,-31.22 148.07,-29.14 156.9,-27.04 162.09,-25.51" fill="none" stroke="url(#rainbowGradient)" stroke-width="2" stroke-linejoin="round" filter="url(#fuzzy)" /><polyline points="47.08,-68.58 49.57,-67.49 53.53,-66.06 58.22,-64.5 63.01,-62.92 68.41,-61.3 74.94,-59.6 82.23,-57.84 89.24,-56.02 94.89,-54.15 98.57,-52.24 100.34,-50.27 100.83,-48.22 100.97,-46.11 101.67,-43.94 103.61,-41.74 107.12,-39.53 112.1,-37.32 118.22,-35.13 125.05,-32.97 132.25,-30.82 139.57,-28.65 146.68,-26.42 153.08,-24.14 158.49,-21.81 163.36,-19.48 168.81,-17.19 175.54,-14.88 184.97,-12.78" fill="none" stroke="url(#rainbowGradient)" stroke-width="2" stroke-linejoin="round" filter="url(#fuzzy)" /><polyline points="44,-70.74 46.7,-69.03 49.29,-67.57 52.71,-66.08 57.37,-64.54 62.81,-62.96 68.29,-61.34 73.42,-59.65 78.2,-57.89 82.62,-56.08 86.51,-54.22 89.69,-52.31 92.21,-50.34 94.5,-48.3 97.19,-46.19 100.78,-44.02 105.39,-41.82 110.77,-39.61 116.43,-37.4 121.94,-35.21 127.18,-33.05 132.33,-30.91 137.74,-28.75 143.61,-26.53 149.76,-24.23 155.85,-21.88 162.13,-19.55 169.85,-17.31 180.1,-14.25" fill="none" stroke="url(#rainbowGradient)" stroke-width="2" stroke-linejoin="round" filter="url(#fuzzy)" /><polyline points="42,-71.59 44.27,-70.43 46.66,-69.04 48.89,-67.61 50.97,-66.12 52.97,-64.58 54.93,-63.01 56.86,-61.38 58.75,-59.69 60.61,-57.94 62.45,-56.13 64.29,-54.28 66.14,-52.37 68.01,-50.41 69.87,-48.37 71.7,-46.27 73.45,-44.11 75.09,-41.9 76.6,-39.68 77.96,-37.47 79.2,-35.29 80.34,-33.13 81.45,-31 82.54,-28.85 83.64,-26.64 84.73,-24.32 85.78,-21.92 86.69,-19.7 87.23,-18.96" fill="none" stroke="url(#rainbowGradient)" stroke-width="2" stroke-linejoin="round" filter="url(#fuzzy)" /><polyline points="39.82,-72.98 43,-71.72 45.86,-70.41 48.01,-69.02 49.94,-67.58 51.96,-66.08 54.17,-64.53 56.59,-62.94 59.19,-61.29 61.9,-59.58 64.65,-57.81 67.43,-55.98 70.27,-54.1 73.26,-52.16 76.46,-50.16 79.93,-48.1 83.67,-45.98 87.62,-43.82 91.64,-41.62 95.53,-39.4 99.08,-37.19 102.13,-34.98 104.62,-32.77 106.71,-30.56 108.69,-28.34 110.94,-26.08 113.74,-23.77 117.16,-21.43 120.96,-19.04 124.64,-16.62 127.63,-14.18 129.6,-11.73 130.68,-9.3 131.49,-6.87 132.89,-4.35 135.46,-1.57 139.05,1.59 143.05,5.12" fill="none" stroke="url(#rainbowGradient)" stroke-width="2" stroke-linejoin="round" filter="url(#fuzzy)" /><polyline points="39.53,-73.12 42.46,-72.42 47.75,-71.12 51.84,-69.64 54.74,-68.15 58.21,-66.71 63.39,-65.31 70.04,-63.89 76.96,-62.4 82.91,-60.79 87.22,-59.05 89.93,-57.21 91.56,-55.31 92.86,-53.39 94.57,-51.46 97.38,-49.51 101.74,-47.53 107.74,-45.51 114.98,-43.44 122.63,-41.33 129.67,-39.17 135.24,-36.96 138.94,-34.7 141.06,-32.43 142.66,-30.09 145.32,-27.59 150.08,-24.9 156.02,-22.76" fill="none" stroke="url(#rainbowGradient)" stroke-width="2" stroke-linejoin="round" filter="url(#fuzzy)" /><polyline points="33.35,-75.8 37.28,-74.59 39.98,-73.51 43.04,-72.38 46.48,-71.1 49.85,-69.71 52.83,-68.28 55.43,-66.86 57.77,-65.46 60.03,-64.04 62.39,-62.56 64.95,-60.96 67.77,-59.25 70.79,-57.42 73.94,-55.54 77.14,-53.63 80.39,-51.72 83.8,-49.79 87.51,-47.82 91.56,-45.82 95.77,-43.79 99.82,-41.72 103.5,-39.57 107.01,-37.28 110.67,-34.96 113.61,-33.28" fill="none" stroke="url(#rainbowGradient)" stroke-width="2" stroke-linejoin="round" filter="url(#fuzzy)" /><polyline points="30.04,-77.47 34.18,-75.98 39.69,-74.71 44.73,-73.54 48.79,-72.33 51.99,-71.02 54.6,-69.64 56.9,-68.22 59.06,-66.79 61.12,-65.35 63.05,-63.87 64.95,-62.33 66.98,-60.69 69.4,-58.95 72.4,-57.13 76.02,-55.24 80.14,-53.32 84.48,-51.37 88.73,-49.39 92.6,-47.38 95.94,-45.33 98.77,-43.23 101.29,-41.09 103.81,-38.91 106.67,-36.67 110.05,-34.37 113.92,-32.02 117.95,-29.62 121.64,-27.16 124.57,-24.67 126.65,-22.19 128.3,-19.78 130.22,-17.46 133.06,-15.09 136.72,-12.38 139.81,-9" fill="none" stroke="url(#rainbowGradient)" stroke-width="2" stroke-linejoin="round" filter="url(#fuzzy)" /><polyline points="27.19,-78.22 30.72,-77.22 33.57,-76.01 36.6,-74.81 40.21,-73.64 44.49,-72.44 49.13,-71.16 53.62,-69.8 57.51,-68.41 60.56,-67 62.88,-65.6 64.81,-64.19 66.78,-62.72 69.18,-61.15 72.21,-59.45 75.91,-57.64 80.18,-55.75 84.92,-53.85 90.03,-51.96 95.38,-50.06 100.68,-48.09 105.43,-46.05 109.17,-44.05 111.77,-42.3 113.25,-40.63" fill="none" stroke="url(#rainbowGradient)" stroke-width="2" stroke-linejoin="round" filter="url(#fuzzy)" /><polyline points="27.69,-77.94 28.54,-77.78 30.96,-77 33.84,-75.94 36.79,-74.79 39.81,-73.6 42.95,-72.37 46.18,-71.07 49.4,-69.71 52.49,-68.31 55.32,-66.89 57.79,-65.46 59.91,-63.98 61.74,-62.45 63.47,-60.82 65.3,-59.1 67.35,-57.29 69.69,-55.42 72.25,-53.5 74.88,-51.56 77.46,-49.59 79.9,-47.6 82.21,-45.56 84.49,-43.48 86.8,-41.36 89.23,-39.18 91.78,-36.96 94.41,-34.69 97.08,-32.38 99.73,-30 102.3,-27.49 104.79,-24.85 107.15,-22.16 108.59,-19.32" fill="none" stroke="url(#rainbowGradient)" stroke-width="2" stroke-linejoin="round" filter="url(#fuzzy)" /><polyline points="24.25,-79.12 27.66,-78.23 30.65,-77.46 33.71,-76.55 36.78,-75.5 39.79,-74.35 42.77,-73.15 45.7,-71.91 48.55,-70.61 51.29,-69.26 53.9,-67.86 56.46,-66.41 59.08,-64.91 61.91,-63.36 65.05,-61.76 68.5,-60.09 72.18,-58.37 75.85,-56.6 79.26,-54.77 82.25,-52.9 84.83,-50.98 87.22,-48.97 89.72,-46.89 92.49,-44.73 95.48,-42.52 98.5,-40.25 101.6,-37.89 105.16,-35.42 109.9,-32.79" fill="none" stroke="url(#rainbowGradient)" stroke-width="2" stroke-linejoin="round" filter="url(#fuzzy)" /><polyline points="17.64,-80.7 13.66,-81.37 10.76,-81.8 8.34,-82.09 5.99,-82.3 3.54,-82.41 0.95,-82.44 -1.78,-82.38 -4.59,-82.25 -7.41,-82.05 -10.21,-81.78 -12.94,-81.45 -15.62,-81.05 -18.27,-80.58 -20.93,-80.03 -23.63,-79.39 -26.38,-78.68 -29.18,-77.88 -32.01,-77.01 -34.84,-76.07 -37.67,-75.06 -40.47,-73.99 -43.26,-72.86 -46.06,-71.66 -48.91,-70.4 -51.84,-69.08 -54.84,-67.68 -57.9,-66.22 -61,-64.69 -64.1,-63.1 -67.2,-61.45 -70.28,-59.74 -73.28,-58.02 -76.09,-56.3 -78.63,-54.59 -81.06,-52.8 -83.82,-50.81 -86.5,-48.78" fill="none" stroke="url(#rainbowGradient)" stroke-width="2" stroke-linejoin="round" filter="url(#fuzzy)" /><polyline points="15.27,-81.49 11.97,-81.84 9.31,-82.16 6.73,-82.36 4.07,-82.47 1.3,-82.5 -1.56,-82.46 -4.55,-82.36 -7.66,-82.2 -10.88,-81.98 -14.2,-81.69 -17.59,-81.33 -21.03,-80.89 -24.47,-80.35 -27.88,-79.73 -31.3,-79.02 -34.78,-78.24 -38.42,-77.4 -42.29,-76.51 -46.45,-75.57 -50.86,-74.6 -55.44,-73.58 -60.11,-72.5 -64.77,-71.34 -69.38,-70.08 -73.94,-68.7 -78.45,-67.18 -82.9,-65.54 -87.24,-63.8 -91.5,-62.04 -95.95,-60.32 -101.17,-58.67 -107.56,-56.99 -113.16,-55.19" fill="none" stroke="url(#rainbowGradient)" stroke-width="2" stroke-linejoin="round" filter="url(#fuzzy)" /><polyline points="15.27,-81.49 12.23,-81.84 9.7,-82.16 7.08,-82.36 4.35,-82.47 1.6,-82.5 -1.12,-82.46 -3.83,-82.35 -6.54,-82.19 -9.32,-81.96 -12.23,-81.67 -15.32,-81.31 -18.62,-80.85 -22.11,-80.31 -25.71,-79.68 -29.32,-78.97 -32.84,-78.19 -36.2,-77.34 -39.41,-76.44 -42.51,-75.5 -45.59,-74.52 -48.74,-73.48 -52.03,-72.37 -55.55,-71.19 -59.3,-69.9 -63.23,-68.5 -67.2,-66.99 -71.03,-65.37 -74.56,-63.67 -77.77,-61.95 -80.85,-60.22 -84.17,-58.53 -88.03,-56.86 -92.46,-55.22 -97.12,-53.58 -101.53,-51.81 -105.65,-49.14" fill="none" stroke="url(#rainbowGradient)" stroke-width="2" stroke-linejoin="round" filter="url(#fuzzy)" /><polyline points="12.2,-81.61 9.98,-81.89 8.02,-82.15 5.91,-82.34 3.52,-82.45 0.85,-82.47 -2.07,-82.4 -5.18,-82.27 -8.34,-82.06 -11.43,-81.79 -14.36,-81.46 -17.14,-81.06 -19.87,-80.58 -22.68,-80.02 -25.72,-79.38 -29.08,-78.66 -32.81,-77.86 -36.89,-76.99 -41.25,-76.04 -45.76,-75.03 -50.27,-73.96 -54.65,-72.82 -58.79,-71.62 -62.67,-70.36 -66.29,-69.03 -69.72,-67.63 -73.04,-66.17 -76.35,-64.63 -79.76,-63.04 -83.41,-61.39 -87.41,-59.69 -91.86,-57.97 -96.79,-56.24 -102.17,-54.49 -107.82,-52.67 -113.39,-50.7 -118.17,-48.58 -121.59,-46.34" fill="none" stroke="url(#rainbowGradient)" stroke-width="2" stroke-linejoin="round" filter="url(#fuzzy)" /><polyline points="12.2,-81.61 9.9,-81.89 7.82,-82.15 5.67,-82.34 3.34,-82.45 0.82,-82.47 -1.85,-82.41 -4.63,-82.28 -7.43,-82.07 -10.18,-81.81 -12.86,-81.48 -15.48,-81.09 -18.09,-80.62 -20.74,-80.07 -23.47,-79.44 -26.28,-78.73 -29.14,-77.94 -32.03,-77.08 -34.93,-76.14 -37.81,-75.14 -40.69,-74.08 -43.58,-72.95 -46.51,-71.77 -49.48,-70.52 -52.52,-69.21 -55.61,-67.83 -58.75,-66.38 -61.88,-64.86 -64.99,-63.28 -68.07,-61.61 -71.15,-59.86 -74.18,-58.05 -76.94,-56.28 -78.83,-54.81" fill="none" stroke="url(#rainbowGradient)" stroke-width="2" stroke-linejoin="round" filter="url(#fuzzy)" /><polyline points="11.17,-81.79 8.83,-82.21 6.55,-82.42 4.03,-82.52 1.4,-82.54 -1.29,-82.49 -4.06,-82.38 -7,-82.22 -10.18,-82.01 -13.57,-81.73 -17.09,-81.38 -20.66,-80.95 -24.21,-80.43 -27.74,-79.81 -31.27,-79.1 -34.88,-78.33 -38.6,-77.48 -42.47,-76.6 -46.54,-75.67 -50.83,-74.71 -55.34,-73.72 -60,-72.69 -64.76,-71.59 -69.63,-70.4 -74.85,-69.08 -80.68,-67.59 -87.06,-65.89 -93.07,-63.93 -97.35,-61.8" fill="none" stroke="url(#rainbowGradient)" stroke-width="2" stroke-linejoin="round" filter="url(#fuzzy)" /><polyline points="9.67,-81.89 7.75,-82.18 5.7,-82.38 3.36,-82.49 0.82,-82.5 -1.86,-82.43 -4.64,-82.29 -7.45,-82.08 -10.24,-81.8 -12.97,-81.47 -15.62,-81.06 -18.2,-80.58 -20.74,-80.02 -23.27,-79.37 -25.8,-78.65 -28.37,-77.85 -30.98,-76.97 -33.64,-76.02 -36.34,-75 -39.08,-73.92 -41.83,-72.78 -44.55,-71.58 -47.2,-70.31 -49.76,-68.98 -52.22,-67.58 -54.62,-66.11 -57,-64.58 -59.42,-62.98 -61.87,-61.33 -64.33,-59.64 -66.73,-57.91 -69.01,-56.17 -71.19,-54.4 -73.36,-52.55 -75.65,-50.59 -78.09,-48.48 -80.45,-46.28 -82.36,-44.03" fill="none" stroke="url(#rainbowGradient)" stroke-width="2" stroke-linejoin="round" filter="url(#fuzzy)" /><polyline points="9.67,-81.89 7.82,-82.18 5.84,-82.38 3.51,-82.49 0.98,-82.51 -1.7,-82.44 -4.48,-82.31 -7.31,-82.1 -10.12,-81.84 -12.83,-81.52 -15.44,-81.13 -17.99,-80.68 -20.54,-80.14 -23.18,-79.52 -25.95,-78.82 -28.87,-78.04 -31.92,-77.18 -35.05,-76.25 -38.22,-75.26 -41.38,-74.21 -44.47,-73.11 -47.49,-71.95 -50.44,-70.72 -53.37,-69.43 -56.28,-68.06 -59.19,-66.63 -62.12,-65.16 -65.35,-63.53 -69.08,-61.29" fill="none" stroke="url(#rainbowGradient)" stroke-width="2" stroke-linejoin="round" filter="url(#fuzzy)" /><polyline points="8.33,-82.41 6.43,-82.5 3.95,-82.56 1.37,-82.57 -1.13,-82.51 -3.54,-82.4 -5.89,-82.23 -8.17,-82.01 -10.42,-81.73 -12.65,-81.37 -14.88,-80.93 -17.12,-80.4 -19.35,-79.77 -21.54,-79.06 -23.68,-78.27 -25.76,-77.43 -27.8,-76.53 -29.8,-75.6 -31.74,-74.64 -33.59,-73.63 -35.29,-72.58 -36.82,-71.45 -38.22,-70.22 -39.58,-68.86 -41,-67.34 -42.51,-65.67 -44.02,-63.86 -45.35,-62.04 -46.38,-60.4 -47.08,-59.2" fill="none" stroke="url(#rainbowGradient)" stroke-width="2" stroke-linejoin="round" filter="url(#fuzzy)" /><polyline points="7.2,-82.24 5.89,-82.43 3.44,-82.54 0.7,-82.55 -2.18,-82.48 -5.18,-82.34 -8.31,-82.14 -11.55,-81.88 -14.88,-81.57 -18.24,-81.2 -21.61,-80.76 -25.04,-80.24 -28.59,-79.64 -32.35,-78.96 -36.29,-78.2 -40.3,-77.36 -44.26,-76.46 -48.18,-75.48 -52.22,-74.44 -56.59,-73.35 -61.4,-72.27 -66.65,-71.19 -72.57,-70.16" fill="none" stroke="url(#rainbowGradient)" stroke-width="2" stroke-linejoin="round" filter="url(#fuzzy)" /><polyline points="7.06,-82.44 3.46,-82.59 0.81,-82.59 -1.86,-82.49 -4.67,-82.33 -7.5,-82.11 -10.24,-81.83 -12.84,-81.49 -15.33,-81.09 -17.78,-80.6 -20.26,-80.04 -22.78,-79.39 -25.34,-78.66 -27.92,-77.85 -30.48,-76.96 -33.01,-76.01 -35.49,-74.99 -37.93,-73.91 -40.33,-72.77 -42.71,-71.56 -45.05,-70.3 -47.38,-68.96 -49.67,-67.56 -51.93,-66.09 -54.15,-64.56 -56.33,-62.96 -58.49,-61.31 -60.61,-59.62 -62.68,-57.9 -64.68,-56.16 -66.61,-54.38 -68.48,-52.54 -70.33,-50.58 -72.15,-48.48 -73.82,-46.28 -75.38,-44.03" fill="none" stroke="url(#rainbowGradient)" stroke-width="2" stroke-linejoin="round" filter="url(#fuzzy)" />
    </g>
    
        <g id="pointNose">
          <g id="rightNose"><circle r="2.02" cx="15.3" cy="21.78" stroke="black" fill="none" stroke-width="1.0" filter="url(#fuzzy)" /><circle r="1.704" cx="14.620000000000001" cy="19.172" stroke="black" fill="none" stroke-width="1.0" filter="url(#fuzzy)" /><circle r="2.866" cx="14.256" cy="18.964" stroke="black" fill="none" stroke-width="1.0" filter="url(#fuzzy)" /><circle r="2.2279999999999998" cx="14.732" cy="20.14" stroke="black" fill="none" stroke-width="1.0" filter="url(#fuzzy)" /><circle r="2.822" cx="15.943999999999999" cy="19.644" stroke="black" fill="none" stroke-width="1.0" filter="url(#fuzzy)" /><circle r="1.8399999999999999" cx="14.271999999999998" cy="19.376" stroke="black" fill="none" stroke-width="1.0" filter="url(#fuzzy)" /><circle r="1.026" cx="12.56" cy="20.392" stroke="black" fill="none" stroke-width="1.0" filter="url(#fuzzy)" /><circle r="1.468" cx="13.624" cy="19.508" stroke="black" fill="none" stroke-width="1.0" filter="url(#fuzzy)" /><circle r="2.948" cx="14.572" cy="20.768" stroke="black" fill="none" stroke-width="1.0" filter="url(#fuzzy)" /><circle r="1.034" cx="13.86" cy="20.248" stroke="black" fill="none" stroke-width="1.0" filter="url(#fuzzy)" /></g>
          <g id="leftNose"><circle r="1.558" cx="-9.708" cy="16.686000000000003" stroke="black" fill="none" stroke-width="1.0" filter="url(#fuzzy)" /><circle r="1.624" cx="-12.248" cy="16.778000000000002" stroke="black" fill="none" stroke-width="1.0" filter="url(#fuzzy)" /><circle r="2.318" cx="-9.744" cy="15.118000000000002" stroke="black" fill="none" stroke-width="1.0" filter="url(#fuzzy)" /><circle r="2.924" cx="-9.248" cy="17.374000000000002" stroke="black" fill="none" stroke-width="1.0" filter="url(#fuzzy)" /><circle r="1.752" cx="-10.472" cy="17.834000000000003" stroke="black" fill="none" stroke-width="1.0" filter="url(#fuzzy)" /><circle r="2.372" cx="-9.764" cy="18.178" stroke="black" fill="none" stroke-width="1.0" filter="url(#fuzzy)" /><circle r="2.246" cx="-12.192" cy="17.482000000000003" stroke="black" fill="none" stroke-width="1.0" filter="url(#fuzzy)" /><circle r="1.062" cx="-9.236" cy="14.930000000000003" stroke="black" fill="none" stroke-width="1.0" filter="url(#fuzzy)" /><circle r="1.92" cx="-10.208" cy="18.406000000000002" stroke="black" fill="none" stroke-width="1.0" filter="url(#fuzzy)" /><circle r="1.314" cx="-10.148" cy="15.074000000000002" stroke="black" fill="none" stroke-width="1.0" filter="url(#fuzzy)" /></g>
        </g>
      
    <g id="mouth">
      <polyline points="46.67,42.02 46.63,43.09 46.57,44.16 46.72,43.87 46.58,44.79 46.8,44.21 45.85,46.19 45.61,46.66 45.69,46.53 45.52,46.85 45.16,47.17 44.98,47.63 45.07,47.65 44.55,48.11 43.91,48.86 42.47,49.89 42.7,49.9 40.54,51.31 41.15,50.92 40.91,51.21 39.21,52.28 39.42,52.05 38.73,52.46 36.2,53.72 36.38,53.73 34.49,54.46 35.36,54.12 33.49,54.83 34,54.63 31.16,55.71 30.24,56.02 32.01,55.43 28.48,56.53 26.87,56.99 26.51,57.01 24.68,57.51 23.41,57.76 25.82,57.21 20.89,58.26 20.77,58.27 20.59,58.29 18.88,58.59 17.66,58.77 15.01,59.11 14.95,59.11 13.53,59.27 12.32,59.38 12.74,59.33 10.47,59.51 12.15,59.39 6.63,59.69 8.37,59.63 5.23,59.72 6.98,59.68 3.11,59.71 4.94,59.72 1.77,59.7 -0.39,59.64 -2.3,59.53 -2.57,59.5 -2.86,59.46 -6.39,59.16 -7.06,59.06 -6.95,59.05 -7.12,59.04 -8.83,58.79 -9.99,58.63 -11.07,58.44 -10.39,58.55 -11.36,58.36 -13.96,57.89 -13.6,57.95 -16.86,57.07 -15.64,57.48 -16.51,57.13 -19.14,56.41 -18.63,56.59 -20.84,55.69 -21.01,55.56 -22.64,54.92 -22.18,55.24 -23.71,54.31 -23.76,54.3 -24.57,53.81 -24.94,53.81 -24.67,53.78 -26.46,52.79 -26.91,52.25 -26.66,52.49 -27.62,51.83 -27.8,51.53 -28.8,50.42 -28.58,50.68 -29.32,49.68 -29.4,49.52 -29.8,49.08 -29.77,48.61 -29.78,48.59 -30.45,47.11 -30.33,47.09 -30.54,45.88 -30.33,45.85 -30.57,45.69 -30.24,45.06 -30.07,44.14 -29.93,44.26 -30.25,44.7 -29.99,43.63 -29.53,43.15 -28.84,41.94 -28.87,41.78 -28.14,40.89 -27.49,40.42 -27.82,40.69 -26.24,39.38 -26.69,39.65 -25.3,38.65 -26.52,39.47 -26.22,39.17 -25.47,38.6 -22.59,36.85 -22.59,36.83 -22.37,36.69 -20.49,35.91 -21.14,36.14 -20.98,36.01 -18.83,35.14 -16.68,34.24 -17.63,34.66 -17.57,34.54 -14.73,33.57 -13.67,33.25 -14.76,33.63 -10.65,32.4 -13.23,33.12 -11.02,32.54 -9.1,32.03 -8.91,32.01 -4.95,31.19 -6.9,31.54 -5.44,31.25 -5.27,31.23 -4.27,31.08 0.7,30.33 -1.65,30.66 0.81,30.32 1.76,30.22 2.97,30.1 5.32,29.91 7.15,29.79 7.7,29.77 8.38,29.74 9.87,29.69 9.24,29.7 11.99,29.65 13.91,29.66 13.61,29.66 16.82,29.74 16.57,29.75 17.24,29.76 20.62,30 20.85,30.04 21.66,30.12 22.38,30.14 22.11,30.17 26.65,30.73 28.07,30.97 27.29,30.87 30.15,31.47 29.23,31.19 32.13,31.95 32.2,31.96 33.81,32.38 33.03,32.14 34.91,32.66 36.05,33.16 35.59,32.87 35.76,32.98 38.39,34 39.56,34.56 38.73,34.13 40.18,34.81 40.35,35.07 40.49,34.96 42.53,36.3 41.6,35.7 42.22,35.95 44.02,37.65 44.64,38.06 44.99,38.35 45.19,38.65 45.28,38.81 45.12,38.84 46.25,40.26 45.57,39.29 46.14,39.86 46.39,40.76 46.67,41.8 46.74,42.12 46.76,42.59" fill="rgb(215,127,140)" stroke="black" stroke-width="3" stroke-linejoin="round" filter="url(#fuzzy)" />
    </g>
  </svg>
  