
  <svg viewBox="-100 -100 200 200" xmlns="http://www.w3.org/2000/svg" width="500" height="500" id="face-svg">
    <defs>
      <clipPath id="leftEyeClipPath">
        <polyline points="32.37,-8.69 32.07,-9.05 31.72,-9.4 31.34,-9.74 30.92,-10.08 30.46,-10.4 29.96,-10.72 29.43,-11.03 28.87,-11.33 28.28,-11.62 27.66,-11.91 27.01,-12.18 26.33,-12.44 25.64,-12.69 24.91,-12.93 24.17,-13.15 23.32,-13.47 22.45,-13.78 21.55,-14.06 20.62,-14.32 19.67,-14.57 18.7,-14.8 17.72,-15.01 16.72,-15.19 15.7,-15.36 14.67,-15.51 13.63,-15.63 12.59,-15.74 11.54,-15.83 10.48,-15.9 9.42,-15.94 8.36,-15.97 7.31,-15.98 6.25,-15.97 5.2,-15.94 4.16,-15.89 3.13,-15.83 2.1,-15.75 1.09,-15.65 0.09,-15.53 -0.9,-15.4 -1.87,-15.25 -2.82,-15.08 -3.76,-14.9 -4.68,-14.71 -5.57,-14.5 -6.45,-14.27 -7.31,-14.04 -8.14,-13.79 -8.95,-13.52 -9.73,-13.25 -10.49,-12.96 -11.23,-12.66 -11.94,-12.35 -12.63,-12.03 -13.29,-11.69 -13.92,-11.35 -14.53,-11 -15.12,-10.63 -15.67,-10.26 -16.21,-9.88 -16.72,-9.49 -17.2,-9.09 -17.66,-8.68 -18.1,-8.26 -18.51,-7.84 -18.9,-7.41 -19.27,-6.97 -19.62,-6.51 -19.95,-6.05 -20.25,-5.58 -20.54,-5.1 -20.8,-4.6 -21.05,-4.1 -21.27,-3.59 -21.47,-3.07 -21.66,-2.54 -21.82,-2 -21.96,-1.45 -22.09,-0.89 -22.22,2.31 -21.95,2.85 -21.67,3.39 -21.37,3.93 -21.05,4.46 -20.72,5 -20.37,5.54 -20,6.07 -19.62,6.59 -19.22,7.12 -18.81,7.63 -18.37,8.14 -17.93,8.64 -17.46,9.13 -16.98,9.61 -16.48,10.08 -15.97,10.54 -15.43,11 -14.88,11.45 -14.3,11.88 -13.71,12.3 -13.1,12.71 -12.47,13.09 -11.82,13.46 -11.15,13.8 -10.46,14.12 -9.76,14.42 -9.04,14.68 -8.3,14.92 -7.54,15.13 -6.76,15.31 -5.97,15.45 -5.16,15.56 -4.34,15.64 -3.5,15.69 -2.65,15.7 -1.78,15.68 -0.9,15.62 -0.01,15.52 0.9,15.4 1.81,15.23 2.74,15.04 3.67,14.81 4.61,14.54 5.56,14.25 6.52,13.92 7.48,13.57 8.45,13.18 9.41,12.77 10.39,12.34 11.36,11.88 12.33,11.4 13.3,10.89 14.26,10.38 15.23,9.84 16.18,9.29 17.13,8.73 18.07,8.16 19.01,7.59 19.93,7.01 20.83,6.42 21.73,5.84 22.6,5.26 23.46,4.68 24.3,4.1 25.01,3.58 25.7,3.06 26.37,2.54 27.02,2.02 27.65,1.49 28.26,0.97 28.84,0.45 29.4,-0.07 29.92,-0.58 30.42,-1.09 30.89,-1.6 31.32,-2.1 31.72,-2.6 32.08,-3.09 32.4,-3.58" />
      </clipPath>
      <clipPath id="rightEyeClipPath">
        <polyline points="-32.04,-9.52 -31.71,-9.72 -31.35,-9.92 -30.96,-10.11 -30.55,-10.31 -30.11,-10.5 -29.64,-10.69 -29.15,-10.88 -28.63,-11.07 -28.08,-11.25 -27.51,-11.42 -26.92,-11.59 -26.31,-11.76 -25.68,-11.92 -25.02,-12.08 -24.34,-12.23 -23.64,-12.44 -22.9,-12.65 -22.13,-12.84 -21.33,-13.03 -20.51,-13.2 -19.65,-13.36 -18.77,-13.51 -17.86,-13.64 -16.93,-13.76 -15.98,-13.87 -15.01,-13.97 -14.02,-14.05 -13.01,-14.12 -11.99,-14.17 -10.96,-14.21 -9.92,-14.23 -8.87,-14.24 -7.81,-14.23 -6.74,-14.21 -5.68,-14.17 -4.61,-14.12 -3.55,-14.05 -2.48,-13.96 -1.42,-13.86 -0.37,-13.74 0.67,-13.61 1.71,-13.46 2.73,-13.3 3.74,-13.12 4.73,-12.92 5.71,-12.7 6.67,-12.47 7.61,-12.22 8.53,-11.96 9.43,-11.68 10.3,-11.38 11.16,-11.07 11.98,-10.74 12.79,-10.39 13.57,-10.03 14.32,-9.65 15.04,-9.25 15.74,-8.84 16.42,-8.41 17.06,-7.96 17.68,-7.5 18.27,-7.03 18.83,-6.53 19.37,-6.03 19.88,-5.51 20.36,-4.97 20.82,-4.42 21.26,-3.84 21.67,-3.25 22.05,-2.65 22.42,-2.02 22.75,-1.38 23.06,-0.72 23.35,-0.04 23.61,0.66 23.85,1.37 24.07,2.1 24.26,2.85 24.43,3.62 25.96,2.47 25.75,3.03 25.52,3.58 25.27,4.13 25,4.68 24.7,5.23 24.38,5.77 24.04,6.3 23.68,6.83 23.29,7.35 22.87,7.86 22.44,8.35 21.98,8.84 21.5,9.32 20.99,9.77 20.46,10.22 19.91,10.66 19.33,11.09 18.72,11.51 18.09,11.9 17.43,12.28 16.74,12.64 16.03,12.98 15.29,13.28 14.52,13.57 13.73,13.82 12.91,14.04 12.07,14.23 11.2,14.39 10.31,14.51 9.4,14.6 8.47,14.65 7.52,14.67 6.54,14.65 5.55,14.59 4.54,14.49 3.52,14.36 2.48,14.19 1.43,13.99 0.37,13.74 -0.7,13.47 -1.77,13.16 -2.85,12.82 -3.94,12.45 -5.02,12.05 -6.11,11.62 -7.19,11.17 -8.27,10.7 -9.34,10.2 -10.41,9.69 -11.46,9.16 -12.5,8.62 -13.53,8.07 -14.54,7.51 -15.53,6.94 -16.5,6.38 -17.45,5.81 -18.38,5.25 -19.28,4.69 -20.15,4.14 -21,3.6 -21.81,3.08 -22.6,2.57 -23.35,2.09 -24.07,1.62 -24.76,1.15 -25.43,0.68 -26.08,0.22 -26.71,-0.23 -27.31,-0.68 -27.89,-1.11 -28.45,-1.54 -28.98,-1.95 -29.49,-2.36 -29.97,-2.75 -30.42,-3.13 -30.85,-3.51 -31.25,-3.87 -31.61,-4.21 -31.95,-4.55" />
      </clipPath>
      <filter id="fuzzy">
        <feTurbulence id="turbulence" baseFrequency="0.05" numOctaves="3" type="noise" result="noise" />
        <feDisplacementMap in="SourceGraphic" in2="noise" scale="2" />
      </filter>
      <linearGradient id="rainbowGradient" x1="0%" y1="0%" x2="100%" y2="0%">
        <stop offset="0%" style="stop-color: rgb(80, 68, 68); stop-opacity: 1" />
        <stop offset="42.2%" style="stop-color: rgb(255, 165, 0); stop-opacity: 1" />
        <stop offset="100%" style="stop-color: rgb(135, 206, 235); stop-opacity: 1" />
      </linearGradient>
    </defs>
    <rect x="-100" y="-100" width="100%" height="100%" fill="rgb(240, 248, 255)" />
    <polyline id="faceContour" points="77.48,0.2 77.49,1.32 77.67,1.84 77.76,4.16 77.47,5.72 77.45,7.4 77.2,8.37 77.42,10.15 76.9,13.4 77.16,12.36 77.02,13.39 76.5,16.04 76.32,17.72 75.85,19.46 75.69,21.19 75.43,21.39 74.86,24.5 74.81,24.6 74.41,27.9 74.04,29.15 73.95,28.84 73.44,29.93 72.53,33.57 73.12,31.86 71.97,36.2 71.25,36.78 71.9,35.99 70.19,40.6 70.66,39.45 69.53,41.82 69.2,42.65 67.98,45.28 67.66,47.02 66.89,47.41 66.24,49.55 65.5,50.46 65.42,50.72 64.42,52.76 64.29,53.28 63.51,54.32 62.35,56.48 61.8,57.22 61.57,58.14 59.96,59.84 59.44,60.35 59.5,61.02 57.48,63.76 57.63,63.5 56.71,64.98 55.95,65.62 55.36,66.49 53.71,68.49 53.32,68.34 53.37,68.54 52.35,69.49 51.31,70.83 48.06,74.15 49.25,73.03 49.02,73.37 45.76,76.58 45.24,76.53 44,77.96 43.42,78.31 43.76,78.1 41.47,79.9 40.94,80.34 38.72,81.88 38.67,81.98 36.28,83.7 35.86,83.5 35.69,84.2 34.77,84.31 33.58,85.39 32.05,86.03 29.1,87.42 28.79,88.08 28.55,87.63 26.9,88.72 26.73,88.63 24.94,89.44 24.95,89.51 22.54,90.59 20.55,91.24 20.49,91.19 18.35,91.75 17.28,92.06 16.69,92.44 16.06,92.24 15.77,92.68 11.63,93.41 13.49,93.03 11.06,93.71 10.83,93.78 8.27,94.07 8.16,93.86 7.35,94.29 6.05,94.35 3.67,94.28 2.74,94.66 0.41,94.64 0.65,94.41 -0.72,94.36 -2.16,94.4 -4.07,94.26 -6.18,94.12 -5.63,94.11 -8.84,93.79 -10.59,93.56 -8.31,94.15 -10.41,93.74 -12.14,93.48 -13.27,92.92 -13.62,93.01 -15.55,92.45 -16.22,92.48 -19.45,91.6 -19.81,91.24 -20.67,91.12 -21.86,90.78 -22.96,90.27 -23.32,90.29 -24.46,89.71 -26.59,88.59 -25.76,89.48 -28,88.13 -30.88,86.76 -30.26,87.26 -32.79,85.98 -32.23,85.7 -34.1,85.08 -35.23,84.29 -36.07,84.01 -36.12,83.59 -37.59,82.71 -40.1,80.98 -40.02,80.91 -41.37,79.88 -43.04,78.76 -43.47,78.11 -44.08,77.74 -45.1,76.65 -47.05,75.2 -48.95,73.37 -47.98,74.37 -48.86,73.18 -50.46,71.84 -50.14,72.22 -52.82,69.25 -53.57,68.51 -53.99,67.9 -54.55,67.43 -55.73,65.74 -57.72,63.28 -57.82,63.14 -59.13,61.09 -59.83,60.41 -60.05,59.8 -60.98,58.65 -61.31,58.14 -61.92,57.11 -63.55,54.27 -63.66,53.67 -63.94,53.82 -65.24,51.31 -65.35,50.55 -65.41,50.6 -66.96,47.85 -67.42,46.66 -68.34,44.65 -68.49,44.37 -69.47,42.79 -68.67,43.88 -69.57,41.45 -70.42,39.25 -71.52,37.17 -70.78,38.11 -72.15,34.62 -72.77,33.69 -73.23,31.66 -73.46,30.92 -74.01,27.86 -73.7,29.4 -74.32,27.54 -75.1,23.22 -75.14,23.21 -75.6,22.15 -75.94,20.63 -76,18.87 -76.21,16.51 -76.04,18.54 -76.64,16.13 -76.57,14.24 -76.97,12.16 -76.79,13.04 -77.35,8.39 -77.55,7.85 -77.55,6.22 -77.7,5.59 -77.69,1.36 -77.44,0.41 -77.79,-1.24 -77.54,-1.45 -77.62,-0.53 -77.5,-4.3 -77.38,-5.79 -77.49,-5.88 -77.32,-9.76 -77.01,-11.13 -77.01,-12.82 -76.95,-13.68 -76.4,-15.49 -76.15,-17.49 -76.08,-18.78 -76,-19.36 -75.76,-21.25 -75.57,-20.7 -75.39,-23.04 -74.73,-26.45 -74.83,-25.91 -74.32,-27.38 -74.15,-29 -73.23,-31.18 -73.85,-29.55 -72.7,-32.25 -72.03,-35.53 -71.56,-37.03 -71.52,-36.33 -70.84,-38.82 -69.36,-42.23 -70.02,-40.18 -69.29,-42.93 -68.54,-44.25 -68.37,-45.33 -67.81,-46 -66.07,-49.66 -66.24,-48.86 -65.89,-50.42 -64.39,-52.59 -64.18,-53.17 -62.99,-55.15 -63.73,-54 -62.16,-56.7 -61.13,-58.22 -60.78,-58.92 -58.91,-61.6 -58.52,-62.39 -58,-63.12 -57.62,-63.17 -55.78,-65.53 -55.72,-65.55 -55.27,-66.58 -54.59,-67.17 -53.91,-67.75 -52.09,-70.17 -50.98,-71.21 -49.92,-72.29 -49.33,-72.82 -48.21,-73.81 -48.75,-73.72 -46,-76.06 -44.7,-77.35 -44.28,-77.38 -44.42,-77.62 -42.51,-79.14 -41.43,-80.04 -39.49,-81.54 -39.86,-81.02 -37.95,-82.85 -37.69,-82.61 -34.9,-84.2 -35.99,-83.87 -33.61,-85.22 -33.68,-85.31 -30.87,-86.64 -31.14,-86.37 -29.94,-87.28 -28.42,-88.09 -28.17,-88.36 -27.17,-88.62 -25.79,-88.93 -24.5,-89.91 -21.53,-90.96 -22.9,-90.43 -19.85,-91.41 -18.94,-91.51 -17.83,-92.11 -15.67,-92.39 -15.15,-92.46 -13.97,-92.81 -13.1,-93.3 -11.76,-93.35 -11.08,-93.35 -11.18,-93.54 -8.74,-93.98 -7.23,-94.13 -7.14,-94.25 -5.66,-94.46 -3.02,-94.68 -1.84,-94.4 -0.97,-94.67 0.52,-94.61 1.68,-94.29 2.67,-94.53 3.84,-94.3 6.25,-94.33 5.55,-94.41 6.63,-94.15 7.38,-94.36 11.09,-93.58 11.73,-93.26 10.07,-93.67 13.16,-93.23 13.75,-93.08 15.82,-92.74 16.17,-92.67 18.45,-91.61 17.69,-92.15 19.37,-91.6 21.92,-90.98 23.1,-90.35 24.3,-89.58 25.28,-89.49 26.84,-88.83 27.54,-88.41 27.1,-88.51 30.52,-86.85 31.29,-86.82 31.43,-86.13 33.15,-85.53 33.19,-85.49 35.39,-84.2 37.31,-82.75 35.88,-83.88 38.37,-82.16 38.67,-81.92 41.74,-80.06 40.55,-80.68 41.54,-79.77 43.48,-78.49 44.73,-77.44 46.67,-75.73 46.72,-75.86 47.24,-75.18 47.76,-74.47 49.14,-73.69 49.68,-72.45 52.19,-70.09 52.81,-69.49 54.42,-67.82 53.09,-69.01 54.81,-67.34 54.88,-67.37 57.86,-63.31 57.61,-63.53 57.33,-63.87 58.99,-61.5 60.52,-59.06 60.22,-59.91 61.29,-58.05 62.46,-56.56 62.26,-56.12 63.79,-53.72 64.56,-52.4 64.96,-51.3 65.67,-50.5 65.88,-50.16 66.93,-48.23 67.16,-47.82 67.99,-45.67 69.34,-43.17 69.05,-43.02 69.25,-43.51 70.78,-39.01 70.75,-39.38 71.77,-36.65 71.93,-35.44 72.19,-34.59 71.95,-35.74 73,-31.7 73.73,-29.48 74.37,-27.75 74.37,-27.74 74.5,-26.01 74.45,-26.34 75.13,-25.06 75.11,-23.57 75.67,-22.1 75.87,-19.45 76.04,-18.05 76.6,-15.68 76.88,-12.84 76.64,-14.17 77.23,-10.27 77.2,-10.83 77.17,-9.74 77.56,-7.23 77.49,-5.67 77.62,-2.01 77.76,-4.41 77.57,-2.98 77.48,0.2 77.49,1.32" fill="rgb(107, 142, 35)" stroke="black" stroke-width="1.6666666666666665" stroke-linejoin="round" filter="url(#fuzzy)" />
    <g transform="translate(31.169999999999998 -21.89)">
      <polyline id="rightCountour" points="-32.04,-9.52 -31.71,-9.72 -31.35,-9.92 -30.96,-10.11 -30.55,-10.31 -30.11,-10.5 -29.64,-10.69 -29.15,-10.88 -28.63,-11.07 -28.08,-11.25 -27.51,-11.42 -26.92,-11.59 -26.31,-11.76 -25.68,-11.92 -25.02,-12.08 -24.34,-12.23 -23.64,-12.44 -22.9,-12.65 -22.13,-12.84 -21.33,-13.03 -20.51,-13.2 -19.65,-13.36 -18.77,-13.51 -17.86,-13.64 -16.93,-13.76 -15.98,-13.87 -15.01,-13.97 -14.02,-14.05 -13.01,-14.12 -11.99,-14.17 -10.96,-14.21 -9.92,-14.23 -8.87,-14.24 -7.81,-14.23 -6.74,-14.21 -5.68,-14.17 -4.61,-14.12 -3.55,-14.05 -2.48,-13.96 -1.42,-13.86 -0.37,-13.74 0.67,-13.61 1.71,-13.46 2.73,-13.3 3.74,-13.12 4.73,-12.92 5.71,-12.7 6.67,-12.47 7.61,-12.22 8.53,-11.96 9.43,-11.68 10.3,-11.38 11.16,-11.07 11.98,-10.74 12.79,-10.39 13.57,-10.03 14.32,-9.65 15.04,-9.25 15.74,-8.84 16.42,-8.41 17.06,-7.96 17.68,-7.5 18.27,-7.03 18.83,-6.53 19.37,-6.03 19.88,-5.51 20.36,-4.97 20.82,-4.42 21.26,-3.84 21.67,-3.25 22.05,-2.65 22.42,-2.02 22.75,-1.38 23.06,-0.72 23.35,-0.04 23.61,0.66 23.85,1.37 24.07,2.1 24.26,2.85 24.43,3.62 25.96,2.47 25.75,3.03 25.52,3.58 25.27,4.13 25,4.68 24.7,5.23 24.38,5.77 24.04,6.3 23.68,6.83 23.29,7.35 22.87,7.86 22.44,8.35 21.98,8.84 21.5,9.32 20.99,9.77 20.46,10.22 19.91,10.66 19.33,11.09 18.72,11.51 18.09,11.9 17.43,12.28 16.74,12.64 16.03,12.98 15.29,13.28 14.52,13.57 13.73,13.82 12.91,14.04 12.07,14.23 11.2,14.39 10.31,14.51 9.4,14.6 8.47,14.65 7.52,14.67 6.54,14.65 5.55,14.59 4.54,14.49 3.52,14.36 2.48,14.19 1.43,13.99 0.37,13.74 -0.7,13.47 -1.77,13.16 -2.85,12.82 -3.94,12.45 -5.02,12.05 -6.11,11.62 -7.19,11.17 -8.27,10.7 -9.34,10.2 -10.41,9.69 -11.46,9.16 -12.5,8.62 -13.53,8.07 -14.54,7.51 -15.53,6.94 -16.5,6.38 -17.45,5.81 -18.38,5.25 -19.28,4.69 -20.15,4.14 -21,3.6 -21.81,3.08 -22.6,2.57 -23.35,2.09 -24.07,1.62 -24.76,1.15 -25.43,0.68 -26.08,0.22 -26.71,-0.23 -27.31,-0.68 -27.89,-1.11 -28.45,-1.54 -28.98,-1.95 -29.49,-2.36 -29.97,-2.75 -30.42,-3.13 -30.85,-3.51 -31.25,-3.87 -31.61,-4.21 -31.95,-4.55" fill="white" stroke="white" stroke-width="0" stroke-linejoin="round" filter="url(#fuzzy)" />
    </g>
    <g transform="translate(-43 -28.19)">
      <polyline id="leftCountour" points="32.37,-8.69 32.07,-9.05 31.72,-9.4 31.34,-9.74 30.92,-10.08 30.46,-10.4 29.96,-10.72 29.43,-11.03 28.87,-11.33 28.28,-11.62 27.66,-11.91 27.01,-12.18 26.33,-12.44 25.64,-12.69 24.91,-12.93 24.17,-13.15 23.32,-13.47 22.45,-13.78 21.55,-14.06 20.62,-14.32 19.67,-14.57 18.7,-14.8 17.72,-15.01 16.72,-15.19 15.7,-15.36 14.67,-15.51 13.63,-15.63 12.59,-15.74 11.54,-15.83 10.48,-15.9 9.42,-15.94 8.36,-15.97 7.31,-15.98 6.25,-15.97 5.2,-15.94 4.16,-15.89 3.13,-15.83 2.1,-15.75 1.09,-15.65 0.09,-15.53 -0.9,-15.4 -1.87,-15.25 -2.82,-15.08 -3.76,-14.9 -4.68,-14.71 -5.57,-14.5 -6.45,-14.27 -7.31,-14.04 -8.14,-13.79 -8.95,-13.52 -9.73,-13.25 -10.49,-12.96 -11.23,-12.66 -11.94,-12.35 -12.63,-12.03 -13.29,-11.69 -13.92,-11.35 -14.53,-11 -15.12,-10.63 -15.67,-10.26 -16.21,-9.88 -16.72,-9.49 -17.2,-9.09 -17.66,-8.68 -18.1,-8.26 -18.51,-7.84 -18.9,-7.41 -19.27,-6.97 -19.62,-6.51 -19.95,-6.05 -20.25,-5.58 -20.54,-5.1 -20.8,-4.6 -21.05,-4.1 -21.27,-3.59 -21.47,-3.07 -21.66,-2.54 -21.82,-2 -21.96,-1.45 -22.09,-0.89 -22.22,2.31 -21.95,2.85 -21.67,3.39 -21.37,3.93 -21.05,4.46 -20.72,5 -20.37,5.54 -20,6.07 -19.62,6.59 -19.22,7.12 -18.81,7.63 -18.37,8.14 -17.93,8.64 -17.46,9.13 -16.98,9.61 -16.48,10.08 -15.97,10.54 -15.43,11 -14.88,11.45 -14.3,11.88 -13.71,12.3 -13.1,12.71 -12.47,13.09 -11.82,13.46 -11.15,13.8 -10.46,14.12 -9.76,14.42 -9.04,14.68 -8.3,14.92 -7.54,15.13 -6.76,15.31 -5.97,15.45 -5.16,15.56 -4.34,15.64 -3.5,15.69 -2.65,15.7 -1.78,15.68 -0.9,15.62 -0.01,15.52 0.9,15.4 1.81,15.23 2.74,15.04 3.67,14.81 4.61,14.54 5.56,14.25 6.52,13.92 7.48,13.57 8.45,13.18 9.41,12.77 10.39,12.34 11.36,11.88 12.33,11.4 13.3,10.89 14.26,10.38 15.23,9.84 16.18,9.29 17.13,8.73 18.07,8.16 19.01,7.59 19.93,7.01 20.83,6.42 21.73,5.84 22.6,5.26 23.46,4.68 24.3,4.1 25.01,3.58 25.7,3.06 26.37,2.54 27.02,2.02 27.65,1.49 28.26,0.97 28.84,0.45 29.4,-0.07 29.92,-0.58 30.42,-1.09 30.89,-1.6 31.32,-2.1 31.72,-2.6 32.08,-3.09 32.4,-3.58" fill="white" stroke="white" stroke-width="0" stroke-linejoin="round" filter="url(#fuzzy)" />
    </g>
    <g transform="translate(31.169999999999998 -21.89)">
      <polyline id="rightUpper" points="-33.64,-7.67 -33.63,-7.83 -33.58,-8 -33.5,-8.18 -33.39,-8.36 -33.24,-8.55 -33.06,-8.74 -32.85,-8.93 -32.61,-9.13 -32.34,-9.32 -32.04,-9.52 -31.71,-9.72 -31.35,-9.92 -30.96,-10.11 -30.55,-10.31 -30.11,-10.5 -29.64,-10.69 -29.15,-10.88 -28.63,-11.07 -28.08,-11.25 -27.51,-11.42 -26.92,-11.59 -26.31,-11.76 -25.68,-11.92 -25.02,-12.08 -24.34,-12.23 -23.64,-12.44 -22.9,-12.65 -22.13,-12.84 -21.33,-13.03 -20.51,-13.2 -19.65,-13.36 -18.77,-13.51 -17.86,-13.64 -16.93,-13.76 -15.98,-13.87 -15.01,-13.97 -14.02,-14.05 -13.01,-14.12 -11.99,-14.17 -10.96,-14.21 -9.92,-14.23 -8.87,-14.24 -7.81,-14.23 -6.74,-14.21 -5.68,-14.17 -4.61,-14.12 -3.55,-14.05 -2.48,-13.96 -1.42,-13.86 -0.37,-13.74 0.67,-13.61 1.71,-13.46 2.73,-13.3 3.74,-13.12 4.73,-12.92 5.71,-12.7 6.67,-12.47 7.61,-12.22 8.53,-11.96 9.43,-11.68 10.3,-11.38 11.16,-11.07 11.98,-10.74 12.79,-10.39 13.57,-10.03 14.32,-9.65 15.04,-9.25 15.74,-8.84 16.42,-8.41 17.06,-7.96 17.68,-7.5 18.27,-7.03 18.83,-6.53 19.37,-6.03 19.88,-5.51 20.36,-4.97 20.82,-4.42 21.26,-3.84 21.67,-3.25 22.05,-2.65 22.42,-2.02 22.75,-1.38 23.06,-0.72 23.35,-0.04 23.61,0.66 23.85,1.37 24.07,2.1 24.26,2.85 24.43,3.62 24.57,4.4 24.69,5.2 24.79,6.02 24.87,6.85 24.93,7.7 24.96,8.57 24.98,9.45 24.97,10.34 24.94,11.26 24.9,12.18" fill="none" stroke="black" stroke-width="1.6666666666666665" stroke-linejoin="round" filter="url(#fuzzy)" />
      <polyline id="rightLower" points="-33.62,-7.26 -33.6,-7.04 -33.55,-6.8 -33.46,-6.56 -33.34,-6.31 -33.19,-6.04 -33,-5.77 -32.79,-5.48 -32.54,-5.18 -32.26,-4.87 -31.95,-4.55 -31.61,-4.21 -31.25,-3.87 -30.85,-3.51 -30.42,-3.13 -29.97,-2.75 -29.49,-2.36 -28.98,-1.95 -28.45,-1.54 -27.89,-1.11 -27.31,-0.68 -26.71,-0.23 -26.08,0.22 -25.43,0.68 -24.76,1.15 -24.07,1.62 -23.35,2.09 -22.6,2.57 -21.81,3.08 -21,3.6 -20.15,4.14 -19.28,4.69 -18.38,5.25 -17.45,5.81 -16.5,6.38 -15.53,6.94 -14.54,7.51 -13.53,8.07 -12.5,8.62 -11.46,9.16 -10.41,9.69 -9.34,10.2 -8.27,10.7 -7.19,11.17 -6.11,11.62 -5.02,12.05 -3.94,12.45 -2.85,12.82 -1.77,13.16 -0.7,13.47 0.37,13.74 1.43,13.99 2.48,14.19 3.52,14.36 4.54,14.49 5.55,14.59 6.54,14.65 7.52,14.67 8.47,14.65 9.4,14.6 10.31,14.51 11.2,14.39 12.07,14.23 12.91,14.04 13.73,13.82 14.52,13.57 15.29,13.28 16.03,12.98 16.74,12.64 17.43,12.28 18.09,11.9 18.72,11.51 19.33,11.09 19.91,10.66 20.46,10.22 20.99,9.77 21.5,9.32 21.98,8.84 22.44,8.35 22.87,7.86 23.29,7.35 23.68,6.83 24.04,6.3 24.38,5.77 24.7,5.23 25,4.68 25.27,4.13 25.52,3.58 25.75,3.03 25.96,2.47 26.14,1.92 26.31,1.36 26.45,0.81 26.58,0.26 26.68,-0.29 26.77,-0.84 26.83,-1.38 26.88,-1.92 26.91,-2.46 26.92,-2.99" fill="none" stroke="black" stroke-width="2.2222222222222223" stroke-linejoin="round" filter="url(#fuzzy)" />
      <circle r="3.068" cx="15.506793404868752" cy="11.921040869396329" stroke="black" fill="none" stroke-width="1.0" filter="url(#fuzzy)" clip-path="url(#rightEyeClipPath)" /><circle r="3.276" cx="15.451793404868749" cy="8.08604086939633" stroke="black" fill="none" stroke-width="1.0" filter="url(#fuzzy)" clip-path="url(#rightEyeClipPath)" /><circle r="4.698" cx="11.40179340486875" cy="7.75604086939633" stroke="black" fill="none" stroke-width="1.0" filter="url(#fuzzy)" clip-path="url(#rightEyeClipPath)" /><circle r="4.138" cx="14.71679340486875" cy="11.63104086939633" stroke="black" fill="none" stroke-width="1.0" filter="url(#fuzzy)" clip-path="url(#rightEyeClipPath)" /><circle r="3.002" cx="12.556793404868749" cy="8.60604086939633" stroke="black" fill="none" stroke-width="1.0" filter="url(#fuzzy)" clip-path="url(#rightEyeClipPath)" /><circle r="4.366" cx="12.19679340486875" cy="11.96104086939633" stroke="black" fill="none" stroke-width="1.0" filter="url(#fuzzy)" clip-path="url(#rightEyeClipPath)" /><circle r="4.164" cx="12.896793404868749" cy="7.82604086939633" stroke="black" fill="none" stroke-width="1.0" filter="url(#fuzzy)" clip-path="url(#rightEyeClipPath)" /><circle r="4.346" cx="16.28679340486875" cy="9.241040869396329" stroke="black" fill="none" stroke-width="1.0" filter="url(#fuzzy)" clip-path="url(#rightEyeClipPath)" /><circle r="3.292" cx="15.431793404868749" cy="12.10104086939633" stroke="black" fill="none" stroke-width="1.0" filter="url(#fuzzy)" clip-path="url(#rightEyeClipPath)" /><circle r="3.046" cx="13.67679340486875" cy="11.14104086939633" stroke="black" fill="none" stroke-width="1.0" filter="url(#fuzzy)" clip-path="url(#rightEyeClipPath)" />
      </g>
    <g transform="translate(-43 -28.19)">
      <polyline id="leftUpper" points="32.57,-4.97 32.81,-5.35 32.99,-5.72 33.1,-6.1 33.16,-6.47 33.16,-6.85 33.1,-7.23 32.99,-7.6 32.83,-7.97 32.62,-8.33 32.37,-8.69 32.07,-9.05 31.72,-9.4 31.34,-9.74 30.92,-10.08 30.46,-10.4 29.96,-10.72 29.43,-11.03 28.87,-11.33 28.28,-11.62 27.66,-11.91 27.01,-12.18 26.33,-12.44 25.64,-12.69 24.91,-12.93 24.17,-13.15 23.32,-13.47 22.45,-13.78 21.55,-14.06 20.62,-14.32 19.67,-14.57 18.7,-14.8 17.72,-15.01 16.72,-15.19 15.7,-15.36 14.67,-15.51 13.63,-15.63 12.59,-15.74 11.54,-15.83 10.48,-15.9 9.42,-15.94 8.36,-15.97 7.31,-15.98 6.25,-15.97 5.2,-15.94 4.16,-15.89 3.13,-15.83 2.1,-15.75 1.09,-15.65 0.09,-15.53 -0.9,-15.4 -1.87,-15.25 -2.82,-15.08 -3.76,-14.9 -4.68,-14.71 -5.57,-14.5 -6.45,-14.27 -7.31,-14.04 -8.14,-13.79 -8.95,-13.52 -9.73,-13.25 -10.49,-12.96 -11.23,-12.66 -11.94,-12.35 -12.63,-12.03 -13.29,-11.69 -13.92,-11.35 -14.53,-11 -15.12,-10.63 -15.67,-10.26 -16.21,-9.88 -16.72,-9.49 -17.2,-9.09 -17.66,-8.68 -18.1,-8.26 -18.51,-7.84 -18.9,-7.41 -19.27,-6.97 -19.62,-6.51 -19.95,-6.05 -20.25,-5.58 -20.54,-5.1 -20.8,-4.6 -21.05,-4.1 -21.27,-3.59 -21.47,-3.07 -21.66,-2.54 -21.82,-2 -21.96,-1.45 -22.09,-0.89 -22.19,-0.32 -22.28,0.26 -22.35,0.84 -22.4,1.44 -22.44,2.04 -22.45,2.66 -22.45,3.28 -22.44,3.91 -22.41,4.54 -22.36,5.19" fill="none" stroke="black" stroke-width="2.2222222222222223" stroke-linejoin="round" filter="url(#fuzzy)" />
      <polyline id="leftLower" points="32.94,-8 33.14,-7.6 33.27,-7.19 33.35,-6.76 33.37,-6.33 33.33,-5.9 33.24,-5.45 33.1,-4.99 32.91,-4.53 32.68,-4.06 32.4,-3.58 32.08,-3.09 31.72,-2.6 31.32,-2.1 30.89,-1.6 30.42,-1.09 29.92,-0.58 29.4,-0.07 28.84,0.45 28.26,0.97 27.65,1.49 27.02,2.02 26.37,2.54 25.7,3.06 25.01,3.58 24.3,4.1 23.46,4.68 22.6,5.26 21.73,5.84 20.83,6.42 19.93,7.01 19.01,7.59 18.07,8.16 17.13,8.73 16.18,9.29 15.23,9.84 14.26,10.38 13.3,10.89 12.33,11.4 11.36,11.88 10.39,12.34 9.41,12.77 8.45,13.18 7.48,13.57 6.52,13.92 5.56,14.25 4.61,14.54 3.67,14.81 2.74,15.04 1.81,15.23 0.9,15.4 -0.01,15.52 -0.9,15.62 -1.78,15.68 -2.65,15.7 -3.5,15.69 -4.34,15.64 -5.16,15.56 -5.97,15.45 -6.76,15.31 -7.54,15.13 -8.3,14.92 -9.04,14.68 -9.76,14.42 -10.46,14.12 -11.15,13.8 -11.82,13.46 -12.47,13.09 -13.1,12.71 -13.71,12.3 -14.3,11.88 -14.88,11.45 -15.43,11 -15.97,10.54 -16.48,10.08 -16.98,9.61 -17.46,9.13 -17.93,8.64 -18.37,8.14 -18.81,7.63 -19.22,7.12 -19.62,6.59 -20,6.07 -20.37,5.54 -20.72,5 -21.05,4.46 -21.37,3.93 -21.67,3.39 -21.95,2.85 -22.22,2.31 -22.48,1.77 -22.71,1.23 -22.93,0.7 -23.14,0.17 -23.33,-0.36 -23.51,-0.88 -23.67,-1.4 -23.82,-1.92 -23.95,-2.43 -24.07,-2.93" fill="none" stroke="black" stroke-width="2.2222222222222223" stroke-linejoin="round" filter="url(#fuzzy)" />
      <circle r="3.126" cx="-6.174629315805996" cy="-4.5948662749786795" stroke="black" fill="none" stroke-width="1.0" filter="url(#fuzzy)" clip-path="url(#leftEyeClipPath)" /><circle r="3.226" cx="-3.2446293158059962" cy="-3.5098662749786795" stroke="black" fill="none" stroke-width="1.0" filter="url(#fuzzy)" clip-path="url(#leftEyeClipPath)" /><circle r="3.738" cx="-2.5996293158059967" cy="-6.544866274978681" stroke="black" fill="none" stroke-width="1.0" filter="url(#fuzzy)" clip-path="url(#leftEyeClipPath)" /><circle r="4.534" cx="-6.919629315805996" cy="-5.27986627497868" stroke="black" fill="none" stroke-width="1.0" filter="url(#fuzzy)" clip-path="url(#leftEyeClipPath)" /><circle r="4.444" cx="-7.3146293158059965" cy="-7.40486627497868" stroke="black" fill="none" stroke-width="1.0" filter="url(#fuzzy)" clip-path="url(#leftEyeClipPath)" /><circle r="3.2359999999999998" cx="-4.799629315805996" cy="-6.03486627497868" stroke="black" fill="none" stroke-width="1.0" filter="url(#fuzzy)" clip-path="url(#leftEyeClipPath)" /><circle r="4.368" cx="-7.184629315805996" cy="-7.04486627497868" stroke="black" fill="none" stroke-width="1.0" filter="url(#fuzzy)" clip-path="url(#leftEyeClipPath)" /><circle r="3.016" cx="-2.3696293158059962" cy="-6.49486627497868" stroke="black" fill="none" stroke-width="1.0" filter="url(#fuzzy)" clip-path="url(#leftEyeClipPath)" /><circle r="3.218" cx="-3.454629315805996" cy="-7.31486627497868" stroke="black" fill="none" stroke-width="1.0" filter="url(#fuzzy)" clip-path="url(#leftEyeClipPath)" /><circle r="3.836" cx="-5.259629315805997" cy="-6.17486627497868" stroke="black" fill="none" stroke-width="1.0" filter="url(#fuzzy)" clip-path="url(#leftEyeClipPath)" />
    </g>
    <g id="hairs">
      <polyline points="19.37,-91.6 -6.9,-77.49 1.4,-78.36 9.38,-80.45 14.59,-79.71 19.05,-76.45 22.92,-72.65 25.08,-70.35 24.49,-70.55 20.17,-72.76 10.81,-75.33 -4.13,-76.26 -22.35,-74.41 -37.67,-70.44 -41.09,-66.83 -20.91,-66.92 46.67,-75.73" fill="none" stroke="url(#rainbowGradient)" stroke-width="2" stroke-linejoin="round" filter="url(#fuzzy)" /><polyline points="-61.13,-58.22 15.72,-59.14 33.23,-67.79 27.44,-76.69 17.91,-81.47 13.66,-81.35 15.77,-78.21 20.66,-74.58 24.26,-71.93 24.8,-70.39 22.48,-69.82 17.27,-70.65 7.97,-73.4 -4.48,-76.98 -11.42,-77.62 5.28,-68.9 70.75,-39.38" fill="none" stroke="url(#rainbowGradient)" stroke-width="2" stroke-linejoin="round" filter="url(#fuzzy)" /><polyline points="47.24,-75.18 20.17,-66.61 36.03,-54.99 46.88,-52.33 46.08,-56.55 38.8,-63.04 31.56,-68.54 27.56,-72.04 25.81,-74.2 23.28,-76.17 18.02,-78.42 11.01,-80.43 5.79,-81.09 6.32,-79.46 14.34,-75.45 27.8,-70.22 41.24,-66.07 48.83,-65.41 49.27,-68.01 50.17,-66.55 69.34,-43.17" fill="none" stroke="url(#rainbowGradient)" stroke-width="2" stroke-linejoin="round" filter="url(#fuzzy)" /><polyline points="40.55,-80.68 -6.81,-75.87 -4.51,-80.92 4.99,-83.12 7.88,-82.54 3.8,-81.51 -2.32,-81.45 -6.09,-82.51 -6.11,-84.19 -3.58,-85.94 -0.61,-87.47 1.3,-88.69 1.86,-89.57 1.56,-89.97 0.95,-89.71 0.21,-88.62 -0.6,-86.68 -0.94,-84.05 0.24,-81.02 3.8,-77.87 9.6,-74.83 17.04,-72.56 25.59,-73.05 29.8,-79.8 13.16,-93.23" fill="none" stroke="url(#rainbowGradient)" stroke-width="2" stroke-linejoin="round" filter="url(#fuzzy)" /><polyline points="-37.95,-82.85 -23.16,-82.64 4.76,-78.83 25.49,-73.77 32.63,-70.96 28.69,-70.73 19.36,-71.72 10.17,-72.59 4.96,-72.99 4.92,-73.56 8.04,-75.39 10.5,-79.08 9.75,-84.1 6.31,-88.97 1.69,-92.25 -5.34,-93.36 -17.83,-92.11" fill="none" stroke="url(#rainbowGradient)" stroke-width="2" stroke-linejoin="round" filter="url(#fuzzy)" /><polyline points="54.88,-67.37 26.05,-80.8 28.23,-79.35 31.98,-74.02 30.46,-69.01 25.85,-66.24 21.89,-66.19 19.66,-67.97 17.02,-70.33 10.97,-72.57 1.07,-74.78 -8.97,-77.24 -12.81,-79.78 -5.72,-81.59 11.71,-81.04 34.37,-74.03 67.16,-47.82" fill="none" stroke="url(#rainbowGradient)" stroke-width="2" stroke-linejoin="round" filter="url(#fuzzy)" /><polyline points="-15.67,-92.39 14.91,-75.47 11.85,-77.74 9.96,-79.92 12.3,-80.03 15.84,-79.96 18.25,-80.67 19.11,-81.85 19.3,-82.68 19.97,-82.5 21.7,-81 24.08,-78.41 25.99,-75.42 26.35,-72.95 24.95,-71.61 22.73,-71.36 20.87,-71.46 19.09,-71.15 14.56,-70.24 3.85,-69.28 -11.63,-68.9 -19.99,-68.7 0.06,-65.21 69.05,-43.02" fill="none" stroke="url(#rainbowGradient)" stroke-width="2" stroke-linejoin="round" filter="url(#fuzzy)" /><polyline points="-18.94,-91.51 16.15,-85.48 30.69,-80.3 36.71,-74.79 35.31,-71.39 30.05,-70.81 24.89,-72.32 21.01,-74.77 17.1,-77.2 11.71,-78.96 5.13,-79.78 -0.8,-79.68 -4.13,-78.85 -4.29,-77.54 -2.37,-76.03 0.1,-74.52 2.58,-73.35 5.58,-73.12 8.68,-74.65 9.02,-78.16 5.51,-81.26 10.76,-77.36 61.29,-58.05" fill="none" stroke="url(#rainbowGradient)" stroke-width="2" stroke-linejoin="round" filter="url(#fuzzy)" /><polyline points="-22.9,-90.43 -14.55,-84.92 -14.13,-80.02 -11.17,-79.3 -8,-78.75 -5.02,-76.76 -2.99,-74.23 -3.79,-72.46 -8.23,-71.98 -14.12,-72.59 -17.04,-73.81 -13.29,-75.11 -2.91,-75.85 9.43,-75.45 16.51,-74.1 13.07,-73.63 1.75,-77.28 -2.52,-86.35 15.82,-92.74" fill="none" stroke="url(#rainbowGradient)" stroke-width="2" stroke-linejoin="round" filter="url(#fuzzy)" /><polyline points="73.73,-29.48 16.08,-66.31 -1.57,-74.23 5.26,-71.92 16.29,-68.03 22.31,-66.59 24.09,-68.09 24.96,-71.3 25.87,-75.02 25.12,-78.85 20.92,-82.82 13.78,-86.55 6.74,-89 2.98,-89.24 5.37,-87.69 33.15,-85.53" fill="none" stroke="url(#rainbowGradient)" stroke-width="2" stroke-linejoin="round" filter="url(#fuzzy)" /><polyline points="-28.17,-88.36 -15.91,-75.25 4.88,-73.45 14.83,-76.62 17.72,-78.92 16.77,-79.34 14.19,-78.91 11.6,-78.79 9.66,-79.64 8.35,-81.38 7.77,-83.2 8.06,-84.15 8.83,-83.75 9,-82.37 7.59,-81 4.12,-80.59 -4.31,-80.74 -42.51,-79.14" fill="none" stroke="url(#rainbowGradient)" stroke-width="2" stroke-linejoin="round" filter="url(#fuzzy)" /><polyline points="54.81,-67.34 31.04,-81.85 22.85,-81.51 18.64,-75.04 14.43,-70.12 10.3,-69.96 7.56,-73.51 6.6,-78 6.78,-81 7.64,-81.33 9.86,-79.2 14.79,-76.01 22.52,-73.74 30.76,-73.63 36.8,-74.75 41.21,-73.98 45.65,-71.15 35.88,-83.88" fill="none" stroke="url(#rainbowGradient)" stroke-width="2" stroke-linejoin="round" filter="url(#fuzzy)" /><polyline points="41.54,-79.77 42.97,-64.22 21.15,-73.01 2.79,-80.75 -6.09,-84.82 -8.75,-86.31 -10.33,-85.94 -13.2,-84.35 -16.11,-82.44 -16.53,-80.79 -13.74,-79.28 -10.13,-77.38 -9.2,-75.03 -11.17,-72.98 -9.82,-71.83 3.8,-71.07 26.44,-71.7 18.45,-91.61" fill="none" stroke="url(#rainbowGradient)" stroke-width="2" stroke-linejoin="round" filter="url(#fuzzy)" /><polyline points="-30.87,-86.64 -1.01,-82.12 -3.58,-84.56 -6.03,-87.63 -4.6,-88.85 0.54,-87.79 8.22,-85.07 15.87,-81.79 20.7,-78.91 21.23,-76.89 17.67,-75.7 11.21,-75.18 3.1,-75.23 -5.3,-75.85 -12.08,-76.87 -14.82,-77.83 -11.85,-78 -4.31,-76.66 2.65,-73.75 1.6,-71.03 -11.18,-72.27 -28.06,-79.17 -41.43,-80.04" fill="none" stroke="url(#rainbowGradient)" stroke-width="2" stroke-linejoin="round" filter="url(#fuzzy)" /><polyline points="66.93,-48.23 38.82,-74.68 27.48,-83.69 16.42,-86.56 4.18,-86.4 -5.2,-84.63 -8.05,-82.55 -3.97,-80.93 4.26,-79.69 12.91,-78.26 19.61,-76.09 24.16,-73.23 27.59,-70.43 30.47,-68.8 32.23,-68.96 31.86,-70.28 29.12,-70.95 24.51,-69.53 18.47,-67.27 12.82,-69.01 14.73,-78.91 18.45,-91.61" fill="none" stroke="url(#rainbowGradient)" stroke-width="2" stroke-linejoin="round" filter="url(#fuzzy)" /><polyline points="24.3,-89.58 3.85,-91.11 -9,-89.24 -13.28,-87.23 -12.66,-85.02 -10.31,-82.1 -7.83,-79.11 -5.62,-77.08 -3.26,-76.25 -0.06,-75.77 4.34,-74.51 9.73,-71.96 15.55,-68.75 21.06,-66.22 25.22,-65.53 26.52,-66.79 23.29,-68.85 14.34,-70.08 -0.38,-69.76 -18.88,-68.96 -35.28,-69.87 -38,-74.95 -11.18,-93.54" fill="none" stroke="url(#rainbowGradient)" stroke-width="2" stroke-linejoin="round" filter="url(#fuzzy)" /><polyline points="71.77,-36.65 60.53,-44.43 34.28,-53.59 12.36,-64.98 5.04,-74.11 9.91,-78.01 19.88,-76.85 28.69,-72.71 33.25,-67.9 33.6,-64.03 30.98,-62.01 25.17,-62.46 13.63,-65.61 -5.33,-70.56 -26.33,-75.03 -34.76,-78.92 -13.1,-93.3" fill="none" stroke="url(#rainbowGradient)" stroke-width="2" stroke-linejoin="round" filter="url(#fuzzy)" /><polyline points="-55.27,-66.58 -4.04,-78.85 16.05,-78.25 19.84,-77.81 15.53,-80.13 8.91,-83.29 3.14,-85.74 -0.35,-86.99 -0.99,-86.92 1.31,-85.56 6.01,-83.29 11.83,-80.9 16.94,-79.41 19.66,-79.43 19.33,-80.86 16.81,-82.96 14.05,-84.81 13.02,-85.88 14.71,-86.15 18.7,-85.73 23.71,-84.36 28.22,-81.1 29.44,-74.94 16.83,-68.08 -46,-76.06" fill="none" stroke="url(#rainbowGradient)" stroke-width="2" stroke-linejoin="round" filter="url(#fuzzy)" /><polyline points="13.16,-93.23 18.62,-85.25 15.04,-73.08 8.82,-65.74 3.53,-65.83 0.3,-70.9 0.04,-77.06 2.74,-81.66 7.22,-83.99 11.75,-84.59 15.06,-84.3 16.8,-83.69 17.39,-82.94 17.45,-82.06 17.35,-81.09 17.1,-80.15 16.74,-79.44 16.96,-79 19.35,-78.51 25.32,-77.23 33.47,-74.4 36.94,-70.17 21.79,-67.82 -41.43,-80.04" fill="none" stroke="url(#rainbowGradient)" stroke-width="2" stroke-linejoin="round" filter="url(#fuzzy)" /><polyline points="67.16,-47.82 50.71,-65.54 40.79,-74.3 36.42,-77.08 33.52,-77.43 30.28,-76.86 24.67,-76.26 15.08,-76.04 2.31,-75.91 -10.26,-75.32 -18.77,-74.33 -21.67,-73.93 -20.79,-75.35 -19.67,-78.95 -20.52,-83.65 -23.03,-87.23 -25.66,-88.37 -21.53,-90.96" fill="none" stroke="url(#rainbowGradient)" stroke-width="2" stroke-linejoin="round" filter="url(#fuzzy)" /><polyline points="-28.42,-88.09 -13.62,-78.55 15.78,-73.19 33.8,-69.92 38.48,-67.25 32.17,-65.66 18.69,-66.05 3.08,-68.17 -9.72,-70.62 -16.21,-71.99 -15.11,-71.85 -7.55,-70.81 3.29,-69.97 13.38,-70.24 19.51,-71.97 20.54,-74.84 16.92,-78.06 9.25,-81.07 -1.18,-84.54 -6.35,-89.6 10.07,-93.67" fill="none" stroke="url(#rainbowGradient)" stroke-width="2" stroke-linejoin="round" filter="url(#fuzzy)" /><polyline points="6.63,-94.15 23.22,-83.54 29.32,-76.87 21.02,-76.62 10.34,-76.74 6.95,-74.82 12.36,-71.84 21.85,-69.9 29.58,-70.38 32.11,-73.16 29.05,-76.91 21.47,-79.98 10.64,-81.31 -1.56,-80.86 -11.42,-79.56 -14.63,-78.98 -12.43,-79.9 -19.91,-78.85 -58.52,-62.39" fill="none" stroke="url(#rainbowGradient)" stroke-width="2" stroke-linejoin="round" filter="url(#fuzzy)" /><polyline points="-5.66,-94.46 20.64,-81.29 17.66,-82.98 14.47,-83.13 13.26,-80.87 10.09,-78.53 3.73,-77.28 -3.28,-76.91 -7.54,-76.74 -7.42,-76.42 -3.71,-75.94 1.21,-75.5 4.83,-75.19 5.39,-74.89 2.3,-74.46 -3.74,-73.91 -10.69,-73.51 -15.89,-73.72 -17.59,-74.87 -16.61,-76.63 -15.81,-77.93 -15.87,-77.64 -9.73,-76.18 15.43,-75.33 54.42,-67.82" fill="none" stroke="url(#rainbowGradient)" stroke-width="2" stroke-linejoin="round" filter="url(#fuzzy)" /><polyline points="67.16,-47.82 27.62,-66.51 5.26,-67.87 -4.13,-68 -6.11,-70.14 -3.16,-73.27 1.52,-76.09 5.55,-78.12 8.51,-79.29 10.69,-79.58 11.22,-78.97 8.13,-77.73 0.32,-76.46 -10.39,-75.97 -19.38,-76.89 -21.96,-79.18 -17.14,-81.82 -9.39,-82.83 -9.25,-80.26 -48.21,-73.81" fill="none" stroke="url(#rainbowGradient)" stroke-width="2" stroke-linejoin="round" filter="url(#fuzzy)" /><polyline points="41.54,-79.77 37.39,-70.75 16.01,-70.98 2.12,-70.81 -3.42,-71.54 -4.6,-73.7 -4.32,-76.57 -3.68,-79.3 -2.52,-81.29 -0.3,-82.06 3.21,-81.37 7.77,-79.46 12.61,-77.13 16.64,-75.34 18.74,-74.61 18.22,-74.54 15.18,-74.11 10.13,-72.69 3.48,-71.06 -3.25,-71.13 -3.16,-73.54 17.65,-74.01 60.52,-59.06" fill="none" stroke="url(#rainbowGradient)" stroke-width="2" stroke-linejoin="round" filter="url(#fuzzy)" /><polyline points="70.75,-39.38 64.54,-47.86 51.51,-60.54 32.98,-68.34 11.54,-71.91 -7.18,-73.39 -18.75,-73.98 -22.01,-73.96 -18.31,-73.34 -9.98,-72.2 0.51,-70.72 10.52,-69.32 17.3,-68.64 18.83,-69.21 15.13,-70.79 8.52,-72.31 1.89,-72.72 -3.49,-72.46 -8.42,-73.7 -12.34,-79 7.38,-94.36" fill="none" stroke="url(#rainbowGradient)" stroke-width="2" stroke-linejoin="round" filter="url(#fuzzy)" /><polyline points="-31.14,-86.37 -14.66,-86.49 -2.04,-85.86 0.68,-84.24 1.03,-81.48 -0.01,-78.23 -5.65,-75.14 -16.69,-72.32 -29.41,-69.66 -38.06,-67.57 -38.56,-67.23 -31.16,-69.7 -21.28,-74.38 -15.97,-78.39 -11.16,-79.45 31.43,-86.13" fill="none" stroke="url(#rainbowGradient)" stroke-width="2" stroke-linejoin="round" filter="url(#fuzzy)" /><polyline points="-30.87,-86.64 -10.94,-88.35 0.32,-85.3 10.62,-81.52 13.49,-79.36 9.2,-79.37 3,-80.72 -0.6,-82.2 -0.38,-82.99 2.47,-82.83 6.25,-81.78 9.86,-79.93 12.95,-77.54 15.73,-75.3 18.54,-74.4 21.35,-75.82 22.83,-79.36 18.88,-83.69 2.2,-87.63 -29.94,-87.28" fill="none" stroke="url(#rainbowGradient)" stroke-width="2" stroke-linejoin="round" filter="url(#fuzzy)" /><polyline points="49.14,-73.69 16.49,-82.45 11.9,-78.93 13.23,-76.96 12.1,-78.24 10.86,-79.86 12.87,-79.75 18.14,-77.71 23.69,-74.95 25.86,-73.13 22.53,-73.33 14.14,-75.41 3.29,-78.24 -6.61,-80.43 -12.57,-81.23 -12.75,-80.69 -6.66,-79.39 4.09,-78.07 14.39,-77.88 16.02,-80.53 6.39,-86.87 13.16,-93.23" fill="none" stroke="url(#rainbowGradient)" stroke-width="2" stroke-linejoin="round" filter="url(#fuzzy)" /><polyline points="-44.7,-77.35 11.44,-77.81 30.42,-78.79 37.52,-77.01 38.81,-73.69 35.6,-70.84 29.76,-69.41 23.7,-69.15 18.97,-69.29 15.8,-69.29 13.71,-69.12 12.24,-69.15 11.02,-69.9 9.47,-71.63 6.91,-74.22 3.13,-77.17 -1,-79.89 -3.85,-81.92 -4.37,-83.04 -2.79,-83.13 0.55,-82.03 7.78,-78.93 24.69,-68.99 72.19,-34.59" fill="none" stroke="url(#rainbowGradient)" stroke-width="2" stroke-linejoin="round" filter="url(#fuzzy)" /><polyline points="19.37,-91.6 -11.3,-81.49 -5.09,-70.75 7.71,-63.71 13.61,-59.91 13.62,-58.21 11.97,-58.37 11.44,-60.49 13.08,-64.23 16.77,-68.8 21.45,-73.2 25.47,-76.72 27.25,-79.04 26.18,-80.24 23.06,-80.62 19.61,-80.49 16.79,-79.78 12.65,-78 2.02,-75.2 -16.62,-75.54 -13.1,-93.3" fill="none" stroke="url(#rainbowGradient)" stroke-width="2" stroke-linejoin="round" filter="url(#fuzzy)" /><polyline points="64.56,-52.4 56.44,-57.71 39.25,-71.18 26.57,-80.58 18.36,-84.78 11.37,-85.56 4.99,-84.74 0.98,-83.12 1.28,-80.64 6.43,-77.13 15.11,-73.19 24.51,-70.32 31.44,-69.96 33.54,-72.41 30.04,-76.45 21.39,-80.25 9.23,-82.08 -1.01,-79.41 6.57,-67.16 70.75,-39.38" fill="none" stroke="url(#rainbowGradient)" stroke-width="2" stroke-linejoin="round" filter="url(#fuzzy)" /><polyline points="54.42,-67.82 18.48,-82.33 9.15,-85.52 12.47,-86.56 16.53,-87.3 17.1,-87.33 14.33,-86.28 10.07,-84.55 6.3,-83 4.34,-82.02 5.05,-80.84 9.3,-77.93 17.23,-72.63 25.31,-67.48 24.19,-68.63 5.4,-80.78 -11.18,-93.54" fill="none" stroke="url(#rainbowGradient)" stroke-width="2" stroke-linejoin="round" filter="url(#fuzzy)" /><polyline points="-31.14,-86.37 19.76,-69.58 24.39,-72.77 18.15,-73.73 10.59,-72.15 6.49,-70.98 7.66,-71.64 12.42,-74.07 17.71,-77.47 21.51,-80.74 23.85,-82.85 26.01,-83.15 29.27,-81.53 33.86,-78.35 38.54,-74.24 40.52,-69.95 35.55,-66.51 19,-66.03 -7.31,-73.09 -7.14,-94.25" fill="none" stroke="url(#rainbowGradient)" stroke-width="2" stroke-linejoin="round" filter="url(#fuzzy)" /><polyline points="-42.51,-79.14 -0.44,-82.9 10.96,-79.21 5.68,-75.43 -6.56,-74.13 -16.31,-74.52 -19.5,-75.61 -17.71,-76.93 -14.7,-78.07 -12.64,-78.38 -10.56,-77.22 -5.62,-74.54 4.03,-71.32 16.79,-69.25 27.69,-69.92 31.27,-73.79 25.84,-79.64 15.38,-84.88 4.18,-87.17 -25.79,-88.93" fill="none" stroke="url(#rainbowGradient)" stroke-width="2" stroke-linejoin="round" filter="url(#fuzzy)" /><polyline points="40.55,-80.68 30.96,-65.78 22.61,-61.12 26.48,-63.12 31.05,-67.61 30.64,-71.36 25.16,-73.47 17.47,-74.53 11.46,-75.14 10.16,-75.38 14.13,-75.1 20.98,-74.41 26.74,-73.64 28.16,-72.75 24.5,-71.13 17.72,-68.35 10.9,-65.73 5.52,-67.24 0.09,-77.67 11.09,-93.58" fill="none" stroke="url(#rainbowGradient)" stroke-width="2" stroke-linejoin="round" filter="url(#fuzzy)" /><polyline points="58.99,-61.5 6.69,-69.8 10.2,-72.72 17.13,-70.66 15.65,-67.67 9.89,-65.3 5.49,-63.43 5.13,-61.92 8.77,-61.23 14.74,-62.03 20.44,-64.71 23.23,-69 22.05,-73.94 18.76,-78.17 16.95,-80.32 17.37,-80.02 12.53,-78.63 -11.39,-77.5 -54.59,-67.17" fill="none" stroke="url(#rainbowGradient)" stroke-width="2" stroke-linejoin="round" filter="url(#fuzzy)" /><polyline points="-8.74,-93.98 18.22,-85.67 15.76,-83.16 10.9,-79.63 11.69,-75.24 15.29,-72.2 18.93,-71.21 22.41,-71.43 25.93,-71.99 28.44,-72.89 28.34,-74.65 25.14,-77.42 20.36,-80.56 16.93,-82.89 17.75,-83.38 23.53,-81.91 30.85,-79.74 31.79,-79.17 16.1,-81.71 -30.87,-86.64" fill="none" stroke="url(#rainbowGradient)" stroke-width="2" stroke-linejoin="round" filter="url(#fuzzy)" /><polyline points="-29.94,-87.28 -19.99,-90.27 -15.37,-88.77 -9.11,-85.39 -4.49,-82.1 -4.75,-80.32 -8.33,-80.45 -11.11,-81.86 -9.91,-83.43 -4.27,-84.26 4.06,-83.97 12.58,-82.74 19.55,-81.05 24.59,-79.41 28.21,-78.01 30.99,-76.48 33.57,-73.6 38.24,-67.57 48.98,-59.28 53.09,-69.01" fill="none" stroke="url(#rainbowGradient)" stroke-width="2" stroke-linejoin="round" filter="url(#fuzzy)" /><polyline points="46.72,-75.86 37.28,-74.1 15.53,-79.41 -2.67,-81.38 -15.48,-80.71 -23.13,-79.33 -25.73,-78.15 -23.82,-77.1 -18.99,-75.92 -13.52,-74.77 -9.12,-74.27 -6.07,-75.01 -3.5,-77.05 -0.51,-79.93 2.71,-82.84 4.87,-84.97 4.75,-85.44 3.06,-83.3 3.47,-77.85 11.75,-69.47 31.41,-60.5 55.43,-54.27 64.96,-51.3" fill="none" stroke="url(#rainbowGradient)" stroke-width="2" stroke-linejoin="round" filter="url(#fuzzy)" /><polyline points="-11.18,-93.54 -8.02,-93.99 -5.29,-94.25 -2.66,-94.37 -0.12,-94.4 2.31,-94.34 4.61,-94.21 6.82,-94.01 8.98,-93.74 11.14,-93.4 13.37,-92.97 15.68,-92.45 18.08,-91.83 20.52,-91.1 22.97,-90.28 25.38,-89.4 27.73,-88.45 30.01,-87.44 32.22,-86.39 34.36,-85.28 36.45,-84.11 38.53,-82.86 40.69,-81.47 43.01,-79.91 45.48,-78.16 47.84,-76.39 49.35,-75.18" fill="none" stroke="url(#rainbowGradient)" stroke-width="2" stroke-linejoin="round" filter="url(#fuzzy)" /><polyline points="-30.87,-86.64 -33.25,-85.39 -35.57,-84.16 -38.1,-82.8 -40.81,-81.3 -43.53,-79.69 -46.18,-78 -48.79,-76.26 -51.54,-74.47 -54.54,-72.61 -57.78,-70.69 -61.1,-68.72 -64.28,-66.73 -67.16,-64.72 -69.74,-62.7 -72.2,-60.65 -74.81,-58.54 -77.82,-56.34 -81.46,-54.02 -85.78,-51.54 -90.46,-48.92 -94.31,-46.34 -95.62,-44.25" fill="none" stroke="url(#rainbowGradient)" stroke-width="2" stroke-linejoin="round" filter="url(#fuzzy)" /><polyline points="-33.68,-85.31 -37.32,-83.96 -43.44,-82.61 -49.79,-81.22 -55.27,-79.76 -59.46,-78.2 -62.24,-76.55 -63.94,-74.81 -65.23,-73.02 -66.75,-71.18 -68.84,-69.33 -71.48,-67.44 -74.4,-65.49 -77.29,-63.47 -79.99,-61.35 -82.52,-59.12 -85.11,-56.83 -88.1,-54.51 -91.75,-52.17 -96.08,-49.82 -100.87,-47.43 -105.66,-44.96 -110.03,-42.38 -113.85,-39.67 -117.45,-36.84 -121.36,-33.93 -125.69,-31.06 -129.83,-28.33 -133.54,-25.74 -139.94,-23.04" fill="none" stroke="url(#rainbowGradient)" stroke-width="2" stroke-linejoin="round" filter="url(#fuzzy)" /><polyline points="-34.9,-84.2 -37.74,-82.83 -40.41,-81.25 -43.17,-79.55 -45.98,-77.81 -48.92,-76.04 -52.18,-74.21 -55.82,-72.32 -59.79,-70.37 -63.96,-68.37 -68.21,-66.35 -72.47,-64.31 -76.72,-62.24 -81,-60.12 -85.39,-57.92 -90.07,-55.63 -95.19,-53.25 -100.83,-50.78 -106.88,-48.24 -112.94,-45.67 -118.48,-43.12 -123.1,-40.59 -126.87,-38.08 -130.45,-35.55 -134.81,-33 -140.57,-30.48 -146.99,-28.13 -149.9,-26.45" fill="none" stroke="url(#rainbowGradient)" stroke-width="2" stroke-linejoin="round" filter="url(#fuzzy)" /><polyline points="-44.28,-77.38 -46.12,-75.83 -48.11,-74.04 -50.11,-72.11 -52.08,-70.09 -54.01,-68.03 -55.89,-65.98 -57.7,-63.91 -59.42,-61.82 -61.04,-59.66 -62.59,-57.42 -64.08,-55.09 -65.54,-52.67 -66.95,-50.17 -68.31,-47.63 -69.61,-45.06 -70.83,-42.5 -71.97,-39.94 -73.04,-37.37 -74.03,-34.79 -74.96,-32.19 -75.84,-29.56 -76.66,-26.89 -77.44,-24.19 -78.17,-21.47 -78.87,-18.71 -79.53,-15.89 -80.14,-12.98 -80.67,-9.99 -81.07,-6.99 -81.35,-4.16 -81.55,-1.68 -81.73,0.41" fill="none" stroke="url(#rainbowGradient)" stroke-width="2" stroke-linejoin="round" filter="url(#fuzzy)" /><polyline points="75.67,-22.1 75.49,-18.06 72.9,-14.53 68.99,-11.62 65.94,-9.03 64.31,-6.48 63.65,-3.85 63.56,-1.11 63.86,1.73 64.36,4.63 64.67,7.57 64.35,10.52 63.02,13.47 60.61,16.42 57.36,19.37 53.78,22.29 50.44,25.15 47.77,27.93 45.83,30.6 44.31,33.16 42.75,35.67 40.81,38.18 38.45,40.79 35.87,43.54 33.1,46.32 29.87,48.92 25.74,51.14 21.36,53.28" fill="none" stroke="url(#rainbowGradient)" stroke-width="2" stroke-linejoin="round" filter="url(#fuzzy)" /><polyline points="-44.7,-77.35 -47.7,-74.68 -50.76,-72.68 -54.77,-70.78 -59.12,-68.9 -63.34,-67.02 -67.26,-65.08 -70.73,-63.04 -73.62,-60.86 -75.94,-58.58 -77.9,-56.24 -79.75,-53.87 -81.69,-51.49 -83.86,-49.08 -86.37,-46.61 -89.32,-44.06 -92.76,-41.43 -96.63,-38.73 -100.76,-35.98 -104.86,-33.23 -108.7,-30.5 -112.18,-27.82 -115.33,-25.18 -118.3,-22.57 -121.24,-19.95 -124.29,-17.26 -127.55,-14.48 -131.06,-11.57 -134.83,-8.59 -138.76,-5.61 -142.68,-2.74 -146.49,-0.02 -150.31,2.68 -154.19,5.61 -155.58,8.39" fill="none" stroke="url(#rainbowGradient)" stroke-width="2" stroke-linejoin="round" filter="url(#fuzzy)" /><polyline points="-44.7,-77.35 -48.11,-74.7 -50.91,-72.72 -53.18,-70.84 -55.16,-68.98 -57.31,-67.13 -60.05,-65.24 -63.68,-63.24 -68.36,-61.09 -74.14,-58.83 -80.96,-56.5 -88.58,-54.16 -96.47,-51.82 -103.91,-49.48 -110.15,-47.09 -114.82,-44.62 -118.22,-42.03 -121.31,-39.32 -125.35,-36.52 -131.22,-33.69 -138.76,-30.89 -146.73,-28.21 -153.58,-25.67 -158.9,-23.28 -163.88,-21.02 -168.87,-18.78" fill="none" stroke="url(#rainbowGradient)" stroke-width="2" stroke-linejoin="round" filter="url(#fuzzy)" /><polyline points="-46,-76.06 -48.17,-74.07 -50.52,-72.12 -52.89,-70.07 -55.03,-68 -56.89,-65.94 -58.57,-63.9 -60.23,-61.82 -62.03,-59.68 -64.06,-57.45 -66.34,-55.13 -68.79,-52.71 -71.28,-50.21 -73.69,-47.66 -75.94,-45.1 -78.05,-42.54 -80.06,-39.99 -82.04,-37.44 -84.01,-34.88 -85.94,-32.29 -87.72,-29.67 -89.25,-27.01 -90.48,-24.32 -91.46,-21.62 -92.31,-18.9 -93.19,-16.13 -94.24,-13.21 -95.58,-10.09 -97.32,-6.85 -98.81,-4.3" fill="none" stroke="url(#rainbowGradient)" stroke-width="2" stroke-linejoin="round" filter="url(#fuzzy)" /><polyline points="-50.98,-71.21 -53.43,-68.66 -55.08,-66.85 -56.81,-65.11 -59.22,-63.19 -62.6,-61.02 -66.77,-58.69 -71.23,-56.31 -75.45,-53.96 -79.17,-51.65 -82.42,-49.33 -85.34,-46.97 -88.05,-44.51 -90.6,-41.92 -93.05,-39.22 -95.58,-36.42 -98.38,-33.59 -101.47,-30.8 -104.58,-28.14 -107.31,-25.63 -109.68,-23.25 -112.7,-21 -119.09,-18.78" fill="none" stroke="url(#rainbowGradient)" stroke-width="2" stroke-linejoin="round" filter="url(#fuzzy)" /><polyline points="-53.91,-67.75 -54.67,-66.54 -55.89,-65 -57.01,-63.06 -57.8,-60.82 -58.37,-58.42 -58.89,-55.99 -59.47,-53.6 -60.19,-51.22 -61.07,-48.83 -62.09,-46.38 -63.15,-43.83 -64.11,-41.18 -64.81,-38.46 -65.17,-35.7 -65.15,-32.94 -64.8,-30.21 -64.23,-27.54 -63.59,-24.9 -63.01,-22.28 -62.64,-19.64 -62.55,-16.93 -62.74,-14.14 -63.08,-11.26 -63.32,-8.33 -63.19,-5.4 -62.49,-2.51 -61.24,0.33 -59.65,3.17 -58.07,6.09 -56.79,9.13 -55.95,12.19 -55.42,14.95 -54.62,16.51" fill="none" stroke="url(#rainbowGradient)" stroke-width="2" stroke-linejoin="round" filter="url(#fuzzy)" /><polyline points="-55.78,-65.53 -58.24,-63.33 -60.04,-60.93 -61.96,-58.35 -63.82,-55.83 -65.38,-53.43 -66.66,-51.1 -67.8,-48.74 -68.97,-46.31 -70.22,-43.76 -71.54,-41.11 -72.88,-38.37 -74.21,-35.6 -75.47,-32.83 -76.65,-30.1 -77.71,-27.44 -78.68,-24.82 -79.57,-22.21 -80.44,-19.58 -81.32,-16.88 -82.26,-14.09 -83.22,-11.21 -84.17,-8.28 -85.04,-5.35 -85.76,-2.47 -86.35,0.36 -86.87,3.2 -87.38,6.12 -87.85,9.15 -88.1,12.2 -88.05,14.95 -88.13,16.51" fill="none" stroke="url(#rainbowGradient)" stroke-width="2" stroke-linejoin="round" filter="url(#fuzzy)" /><polyline points="-64.18,-53.17 -66.46,-50.91 -69.83,-48.63 -73.38,-46.15 -76.15,-43.54 -78.05,-40.81 -79.41,-37.99 -80.49,-35.14 -81.47,-32.34 -82.47,-29.61 -83.62,-26.96 -84.97,-24.36 -86.47,-21.76 -88.02,-19.12 -89.5,-16.4 -90.92,-13.6 -92.43,-10.72 -94.24,-7.81 -96.51,-4.9 -99.2,-2.01 -102.1,0.87 -104.92,3.75 -107.38,6.64 -109.37,9.55 -110.86,12.44 -111.83,15.31 -112.29,18.13 -112.36,20.92 -112.48,23.68 -113.03,26.36 -113.58,28.84 -112.15,31.66" fill="none" stroke="url(#rainbowGradient)" stroke-width="2" stroke-linejoin="round" filter="url(#fuzzy)" /><polyline points="-66.07,-49.66 -67.79,-46.19 -68.94,-43.44 -69.97,-40.69 -71,-37.82 -71.99,-34.91 -72.89,-32.07 -73.68,-29.33 -74.36,-26.69 -74.94,-24.1 -75.43,-21.5 -75.87,-18.85 -76.25,-16.12 -76.58,-13.3 -76.86,-10.41 -77.08,-7.5 -77.24,-4.58 -77.33,-1.67 -77.34,1.22 -77.28,4.11 -77.14,7 -76.93,9.89 -76.64,12.78 -76.29,15.63 -75.87,18.45 -75.39,21.24 -74.84,23.99 -74.23,26.72 -73.55,29.45 -72.8,32.19 -71.96,34.97 -71.05,37.76 -70.11,40.45 -69.23,42.79 -68.34,44.65" fill="none" stroke="url(#rainbowGradient)" stroke-width="2" stroke-linejoin="round" filter="url(#fuzzy)" /><polyline points="-69.29,-42.93 -71.04,-40.85 -74.57,-37.81 -77.54,-34.74 -79.84,-31.83 -82,-29.11 -84.16,-26.51 -86.04,-23.97 -87.34,-21.41 -87.93,-18.77 -87.87,-16.04 -87.38,-13.22 -86.7,-10.32 -86.09,-7.4 -85.71,-4.48 -85.65,-1.58 -85.92,1.31 -86.49,4.19 -87.27,7.08 -88.21,9.97 -89.29,12.84 -90.55,15.7 -92.08,18.51 -94.02,21.29 -96.41,24.04 -99.16,26.76 -101.93,29.48 -104.15,32.21 -105.26,34.99 -104.95,37.78 -103.55,40.46 -102.11,42.79 -101.78,44.65" fill="none" stroke="url(#rainbowGradient)" stroke-width="2" stroke-linejoin="round" filter="url(#fuzzy)" /><polyline points="-69.36,-42.23 -75.96,-37.89 -81.61,-34.61 -84.65,-31.67 -87.13,-28.97 -90.37,-26.42 -94.57,-23.91 -99.01,-21.38 -102.78,-18.76 -105.34,-16.04 -106.65,-13.21 -107.05,-10.31 -107.01,-7.38 -106.92,-4.46 -107.05,-1.57 -107.55,1.31 -108.43,4.18 -109.63,7.06 -111.08,9.95 -112.77,12.83 -114.77,15.68 -117.13,18.49 -119.77,21.26 -122.49,24 -124.96,26.71 -126.92,29.41 -128.33,32.13 -129.61,34.93 -131.38,37.81 -134.09,40.63 -139.56,42.79" fill="none" stroke="url(#rainbowGradient)" stroke-width="2" stroke-linejoin="round" filter="url(#fuzzy)" /><polyline points="-70.84,-38.82 -84.55,-36.34 -82.59,-33.54 -80.05,-30.82 -79.44,-28.12 -80.13,-25.39 -81.24,-22.64 -82.39,-19.85 -83.59,-17.02 -85.02,-14.14 -86.84,-11.22 -89.09,-8.26 -91.7,-5.27 -94.42,-2.27 -96.95,0.75 -99,3.77 -100.38,6.77 -101.05,9.73 -101.14,12.63 -100.86,15.44 -100.45,18.2 -100.12,20.92 -100.05,23.65 -100.33,26.41 -100.96,29.21 -101.81,32.02 -102.66,34.82 -103.26,37.56 -103.39,40.21 -102.94,42.75 -101.98,45.19 -100.66,47.53 -99.27,49.81 -98.15,52.07 -97.7,54.31 -98.18,56.54 -99.23,58.62 -98.83,60.41" fill="none" stroke="url(#rainbowGradient)" stroke-width="2" stroke-linejoin="round" filter="url(#fuzzy)" /><polyline points="-71.52,-36.33 -80.27,-34.22 -86.62,-31.42 -88.68,-28.77 -89.91,-26.25 -91.06,-23.77 -91.94,-21.24 -92.58,-18.61 -93.3,-15.87 -94.37,-13.02 -95.92,-10.1 -97.98,-7.15 -100.45,-4.22 -103.12,-1.32 -105.63,1.57 -107.64,4.46 -108.89,7.35 -109.36,10.23 -109.27,13.11 -109.01,15.96 -109.06,18.77 -109.77,21.56 -111.32,24.32 -113.58,27.05 -116.2,29.79 -118.78,32.51 -121.04,35.23 -122.96,37.92 -124.79,40.55 -126.73,43.1 -128.57,45.61 -129.61,48.12 -129.19,50.62 -128.07,52.91 -130.07,54.27" fill="none" stroke="url(#rainbowGradient)" stroke-width="2" stroke-linejoin="round" filter="url(#fuzzy)" /><polyline points="74.5,-26.01 77.37,-24.28 80.21,-21.42 81.76,-18.15 82.26,-14.95 82.38,-12 82.79,-9.23 83.86,-6.54 85.56,-3.83 87.51,-1.06 89.25,1.79 90.42,4.69 90.93,7.64 90.97,10.6 90.81,13.57 90.73,16.53 90.86,19.48 91.18,22.39 91.57,25.24 91.87,28.02 92.01,30.72 92,33.36 91.92,35.95 91.84,38.54 91.77,41.16 91.7,43.8 91.56,46.43 91.25,49 90.68,51.49 89.7,53.89 88.27,56.23 86.49,58.55 84.73,60.87 83.48,63.16 83.07,64.98" fill="none" stroke="url(#rainbowGradient)" stroke-width="2" stroke-linejoin="round" filter="url(#fuzzy)" /><polyline points="74.5,-26.01 76.08,-24.28 78.32,-21.41 80.58,-18.13 83.09,-14.93 85.57,-11.97 87.46,-9.19 88.56,-6.49 89.09,-3.77 89.46,-0.99 89.94,1.87 90.61,4.78 91.35,7.73 92.01,10.69 92.47,13.67 92.71,16.63 92.78,19.58 92.76,22.49 92.73,25.34 92.74,28.12 92.82,30.83 92.97,33.48 93.2,36.09 93.51,38.7 93.87,41.32 94.19,43.93 94.39,46.54 94.34,49.09 93.98,51.58 93.33,54 92.49,56.34 91.59,58.63 90.69,60.84 89.81,62.94 89,64.87 88.4,66.61 87.93,68.16 86.66,69.49" fill="none" stroke="url(#rainbowGradient)" stroke-width="2" stroke-linejoin="round" filter="url(#fuzzy)" /><polyline points="71.95,-35.74 75.09,-31.25 80.31,-28.36 84.11,-25.79 86.19,-23.09 87.99,-20.24 90.38,-17.31 93.36,-14.34 96.62,-11.38 100.01,-8.46 103.47,-5.58 106.77,-2.77 109.59,0.01 111.67,2.77 113.06,5.53 114.15,8.31 115.41,11.12 117.2,13.94 119.58,16.79 122.33,19.64 125.04,22.47 127.43,25.26 129.59,27.93 131.77,30.46 133.66,33.1 136.46,36.78" fill="none" stroke="url(#rainbowGradient)" stroke-width="2" stroke-linejoin="round" filter="url(#fuzzy)" /><polyline points="71.77,-36.65 72.48,-34.32 73.66,-31.68 75.28,-29.1 77.26,-26.61 79.38,-24.04 81.37,-21.29 83.09,-18.39 84.52,-15.46 85.67,-12.58 86.6,-9.78 87.42,-7.03 88.27,-4.29 89.31,-1.53 90.7,1.3 92.56,4.17 94.93,7.09 97.7,10.04 100.56,13 103.11,15.96 104.98,18.93 105.93,21.88 105.92,24.78 105.14,27.6 103.99,30.3 102.97,32.86 102.59,35.28 103.09,37.64 104.26,40.18 105.46,43.23 106.16,47.02" fill="none" stroke="url(#rainbowGradient)" stroke-width="2" stroke-linejoin="round" filter="url(#fuzzy)" /><polyline points="69.25,-43.51 77.69,-39.86 77.77,-36.85 77.19,-34.07 77.17,-31.35 77.61,-28.67 78.34,-25.96 79.26,-23.2 80.36,-20.35 81.68,-17.44 83.27,-14.49 85.09,-11.54 87.09,-8.61 89.14,-5.72 91.13,-2.87 93.01,-0.06 94.78,2.73 96.49,5.52 98.14,8.33 99.71,11.15 101.14,13.99 102.42,16.84 103.57,19.7 104.64,22.53 105.6,25.33 106.28,28.09 106.51,30.84 106.37,33.68 106.22,36.7 106.24,39.71 105.54,41.82" fill="none" stroke="url(#rainbowGradient)" stroke-width="2" stroke-linejoin="round" filter="url(#fuzzy)" /><polyline points="57.33,-63.87 60.49,-60.4 63.47,-57.95 65.46,-55.63 66.65,-53.26 67.56,-50.84 68.5,-48.36 69.56,-45.8 70.76,-43.18 72.08,-40.53 73.5,-37.87 75.04,-35.22 76.68,-32.61 78.4,-30.01 80.18,-27.4 81.94,-24.74 83.62,-22.01 85.11,-19.21 86.33,-16.36 87.2,-13.51 87.76,-10.7 88.13,-7.94 88.5,-5.22 89.04,-2.47 89.85,0.33 90.86,3.21 91.84,6.15 92.55,9.11 92.79,12.02 92.61,14.87 92.43,17.84 92.99,21.19" fill="none" stroke="url(#rainbowGradient)" stroke-width="2" stroke-linejoin="round" filter="url(#fuzzy)" /><polyline points="57.86,-63.31 61.57,-62.35 71.55,-60.29 80.94,-58.05 87.31,-55.76 91.27,-53.42 94.22,-51.03 97.25,-48.57 100.62,-46.05 103.95,-43.46 106.68,-40.82 108.57,-38.18 109.76,-35.55 110.65,-32.95 111.79,-30.4 113.69,-27.86 116.79,-25.28 121.31,-22.6 127.19,-19.78 134.05,-16.84 141.32,-13.89 148.37,-11.07 154.56,-8.47 159.44,-5.97 163.2,-3.29 165.61,0.2" fill="none" stroke="url(#rainbowGradient)" stroke-width="2" stroke-linejoin="round" filter="url(#fuzzy)" /><polyline points="47.76,-74.47 50.09,-72.4 53.1,-70.47 57.54,-68.59 62.96,-66.58 68.19,-64.41 72.48,-62.14 75.77,-59.8 78.44,-57.44 80.93,-55.09 83.56,-52.74 86.39,-50.41 89.33,-48.06 92.21,-45.66 94.8,-43.21 96.94,-40.7 98.68,-38.12 100.29,-35.5 102.22,-32.84 104.94,-30.18 108.72,-27.51 113.53,-24.81 119.04,-22.03 124.74,-19.17 129.89,-16.27 133.46,-13.4 134.81,-10.48 137.68,-7.23" fill="none" stroke="url(#rainbowGradient)" stroke-width="2" stroke-linejoin="round" filter="url(#fuzzy)" /><polyline points="44.73,-77.44 46.46,-75.9 48.25,-74.21 50.27,-72.4 52.55,-70.52 55.15,-68.58 58.01,-66.52 60.88,-64.35 63.51,-62.09 65.8,-59.76 67.85,-57.41 69.85,-55.04 71.97,-52.68 74.32,-50.3 76.89,-47.91 79.54,-45.47 82.06,-42.99 84.22,-40.45 85.86,-37.86 86.95,-35.22 87.6,-32.55 88.06,-29.85 88.62,-27.12 89.49,-24.35 90.73,-21.53 92.24,-18.64 93.83,-15.71 95.35,-12.74 96.82,-9.76 98.4,-6.82 100.26,-3.95 102.35,-1.16 104.32,1.59 105.78,4.42 106.78,7.33 107.28,10.15" fill="none" stroke="url(#rainbowGradient)" stroke-width="2" stroke-linejoin="round" filter="url(#fuzzy)" /><polyline points="38.67,-81.92 41.75,-80.39 46.35,-78.58 51.27,-76.76 56.63,-74.93 62.52,-73.05 68.18,-71.09 72.72,-69.1 75.95,-67.09 78.51,-65.07 81.32,-63.01 84.98,-60.91 89.47,-58.75 94.3,-56.52 98.85,-54.23 102.84,-51.89 106.55,-49.48 110.68,-47 116.01,-44.44 122.76,-41.81 130.26,-39.14 137.31,-36.47 143.16,-33.8 148.24,-31.07 153.6,-28.32 160.6,-26.01" fill="none" stroke="url(#rainbowGradient)" stroke-width="2" stroke-linejoin="round" filter="url(#fuzzy)" /><polyline points="38.37,-82.16 40.75,-80.57 42.58,-79.16 44.39,-77.63 46.25,-75.99 48.2,-74.27 50.3,-72.46 52.57,-70.59 54.96,-68.63 57.4,-66.57 59.86,-64.42 62.29,-62.18 64.7,-59.89 67.06,-57.55 69.33,-55.19 71.45,-52.83 73.39,-50.45 75.17,-48.04 76.87,-45.61 78.6,-43.12 80.5,-40.58 82.65,-37.99 85.06,-35.36 87.66,-32.69 90.26,-29.99 92.65,-27.26 94.64,-24.49 96.13,-21.66 97.14,-18.78 97.83,-15.84 98.38,-12.86 99.01,-9.86 99.85,-6.9 100.92,-4.03 102.15,-1.27 103.4,1.45 104.55,4.33 105.62,7.4" fill="none" stroke="url(#rainbowGradient)" stroke-width="2" stroke-linejoin="round" filter="url(#fuzzy)" /><polyline points="35.88,-83.88 38.55,-82.14 41.48,-80.41 44.46,-78.61 47.45,-76.79 50.44,-74.95 53.3,-73.05 55.91,-71.09 58.27,-69.1 60.45,-67.08 62.54,-65.05 64.55,-62.98 66.46,-60.86 68.25,-58.69 69.93,-56.45 71.54,-54.15 73.14,-51.78 74.79,-49.36 76.56,-46.86 78.45,-44.29 80.46,-41.67 82.51,-39.01 84.49,-36.34 86.29,-33.69 87.91,-31.09 89.52,-28.61 91.29,-26.37 93.04,-24.38 94.67,-22.1" fill="none" stroke="url(#rainbowGradient)" stroke-width="2" stroke-linejoin="round" filter="url(#fuzzy)" /><polyline points="37.31,-82.75 39.04,-81.79 41.68,-80.56 45.43,-79.19 50.04,-77.7 54.96,-76.1 59.76,-74.41 64.31,-72.64 68.6,-70.8 72.67,-68.89 76.46,-66.88 79.81,-64.76 82.58,-62.56 84.75,-60.28 86.55,-57.96 88.41,-55.62 90.87,-53.29 94.35,-50.96 99.05,-48.63 104.79,-46.26 111.14,-43.85 117.52,-41.36 123.45,-38.79 128.64,-36.13 132.97,-33.39 136.37,-30.62 139.09,-28.1 141.63,-26.34" fill="none" stroke="url(#rainbowGradient)" stroke-width="2" stroke-linejoin="round" filter="url(#fuzzy)" /><polyline points="17.69,-92.15 21.3,-91 24.78,-89.95 28.41,-88.98 31.85,-87.98 34.78,-86.91 37.23,-85.78 39.48,-84.56 41.91,-83.25 44.83,-81.84 48.3,-80.31 52.18,-78.67 56.16,-76.94 59.94,-75.13 63.34,-73.25 66.34,-71.32 69.1,-69.34 71.83,-67.32 74.79,-65.27 78.13,-63.18 81.91,-61.04 86.05,-58.85 90.36,-56.6 94.63,-54.29 98.68,-51.92 102.41,-49.48 105.84,-46.97 109.05,-44.39 112.16,-41.77 115.28,-39.1 118.54,-36.42 122.04,-33.77 125.92,-31.17 130.18,-28.68 134.61,-26.31 138.7,-24.02 141.43,-21.45 140.86,-18.05" fill="none" stroke="url(#rainbowGradient)" stroke-width="2" stroke-linejoin="round" filter="url(#fuzzy)" /><polyline points="16.17,-92.67 22.81,-91.94 26.36,-90.98 28.46,-90 30.2,-89.03 32.34,-88.03 35.27,-86.97 38.97,-85.85 43.06,-84.66 47.03,-83.37 50.51,-81.99 53.48,-80.49 56.2,-78.88 59.02,-77.17 62.29,-75.38 66.11,-73.52 70.37,-71.61 74.75,-69.65 78.94,-67.65 82.76,-65.63 86.32,-63.58 89.93,-61.48 93.89,-59.34 98.3,-57.12 102.95,-54.85 107.51,-52.52 111.91,-50.16 116.64,-47.74 122.35,-45.22 128.62,-42.41 134.27,-39.01" fill="none" stroke="url(#rainbowGradient)" stroke-width="2" stroke-linejoin="round" filter="url(#fuzzy)" /><polyline points="10.07,-93.67 13.23,-93.14 15.97,-92.55 18.88,-91.82 22.26,-90.97 26.11,-90.06 30.24,-89.1 34.42,-88.1 38.5,-87.05 42.46,-85.95 46.32,-84.77 50.15,-83.51 54.02,-82.15 57.95,-80.68 61.88,-79.1 65.68,-77.42 69.27,-75.65 72.67,-73.81 76.08,-71.9 79.72,-69.95 83.77,-67.97 88.24,-65.97 93.06,-63.96 98.11,-61.92 103.27,-59.82 108.42,-57.66 113.46,-55.35 118.83,-52.4" fill="none" stroke="url(#rainbowGradient)" stroke-width="2" stroke-linejoin="round" filter="url(#fuzzy)" /><polyline points="6.63,-94.15 9.5,-93.76 11.55,-93.44 13.79,-93.01 16.23,-92.44 18.76,-91.73 21.24,-90.91 23.63,-90.02 25.94,-89.07 28.2,-88.06 30.46,-86.99 32.71,-85.86 34.98,-84.66 37.24,-83.37 39.5,-81.98 41.73,-80.49 43.95,-78.89 46.15,-77.2 48.32,-75.42 50.45,-73.57 52.54,-71.65 54.56,-69.69 56.5,-67.7 58.34,-65.66 60.09,-63.6 61.75,-61.49 63.37,-59.33 64.98,-57.11 66.62,-54.83 68.32,-52.49 70.07,-50.1 71.82,-47.64 73.47,-45.06 74.96,-42.31 76.3,-39.38 77.7,-36.65" fill="none" stroke="url(#rainbowGradient)" stroke-width="2" stroke-linejoin="round" filter="url(#fuzzy)" /><polyline points="2.67,-94.53 5.33,-94.32 7.52,-94.06 9.78,-93.77 12.25,-93.41 14.92,-92.97 17.76,-92.42 20.69,-91.75 23.61,-90.97 26.47,-90.11 29.24,-89.18 31.97,-88.2 34.72,-87.16 37.55,-86.07 40.47,-84.91 43.46,-83.67 46.47,-82.33 49.51,-80.88 52.6,-79.32 55.82,-77.66 59.24,-75.91 62.87,-74.08 66.62,-72.17 70.31,-70.2 73.75,-68.21 76.85,-66.24 79.74,-64.31 82.61,-62.22 86.48,-59.06" fill="none" stroke="url(#rainbowGradient)" stroke-width="2" stroke-linejoin="round" filter="url(#fuzzy)" /><polyline points="1.68,-94.29 3.71,-94.31 5.84,-94.21 8.22,-93.95 10.81,-93.57 13.52,-93.11 16.27,-92.57 18.99,-91.96 21.64,-91.26 24.18,-90.48 26.64,-89.61 29.08,-88.66 31.61,-87.63 34.35,-86.53 37.33,-85.37 40.49,-84.14 43.65,-82.85 46.64,-81.53 49.41,-80.17 52.11,-78.77 54.87,-77.31 57.66,-75.79 60.41,-74.2 63.76,-72.45" fill="none" stroke="url(#rainbowGradient)" stroke-width="2" stroke-linejoin="round" filter="url(#fuzzy)" />
    </g>
    
        <g id="pointNose">
          <g id="rightNose"><circle r="2.4059999999999997" cx="8.76" cy="17.631999999999998" stroke="black" fill="none" stroke-width="1.0" filter="url(#fuzzy)" /><circle r="2.402" cx="11.735999999999999" cy="17.22" stroke="black" fill="none" stroke-width="1.0" filter="url(#fuzzy)" /><circle r="1.858" cx="9.696" cy="17.131999999999998" stroke="black" fill="none" stroke-width="1.0" filter="url(#fuzzy)" /><circle r="2.758" cx="10.248" cy="17.576" stroke="black" fill="none" stroke-width="1.0" filter="url(#fuzzy)" /><circle r="2.192" cx="10.788" cy="19.296" stroke="black" fill="none" stroke-width="1.0" filter="url(#fuzzy)" /><circle r="1.124" cx="10.008" cy="18.508" stroke="black" fill="none" stroke-width="1.0" filter="url(#fuzzy)" /><circle r="2.2439999999999998" cx="11.963999999999999" cy="16.684" stroke="black" fill="none" stroke-width="1.0" filter="url(#fuzzy)" /><circle r="2.854" cx="10.748" cy="19.928" stroke="black" fill="none" stroke-width="1.0" filter="url(#fuzzy)" /><circle r="1.804" cx="8.44" cy="18.956" stroke="black" fill="none" stroke-width="1.0" filter="url(#fuzzy)" /><circle r="1.058" cx="10.084" cy="16.535999999999998" stroke="black" fill="none" stroke-width="1.0" filter="url(#fuzzy)" /></g>
          <g id="leftNose"><circle r="1.804" cx="-10.206" cy="14.119999999999997" stroke="black" fill="none" stroke-width="1.0" filter="url(#fuzzy)" /><circle r="1.6059999999999999" cx="-8.106" cy="12.291999999999998" stroke="black" fill="none" stroke-width="1.0" filter="url(#fuzzy)" /><circle r="2.534" cx="-7.510000000000001" cy="12.879999999999999" stroke="black" fill="none" stroke-width="1.0" filter="url(#fuzzy)" /><circle r="2.77" cx="-9.838000000000001" cy="14.715999999999998" stroke="black" fill="none" stroke-width="1.0" filter="url(#fuzzy)" /><circle r="2.2560000000000002" cx="-8.366" cy="15.744" stroke="black" fill="none" stroke-width="1.0" filter="url(#fuzzy)" /><circle r="2.81" cx="-8.054" cy="15.712" stroke="black" fill="none" stroke-width="1.0" filter="url(#fuzzy)" /><circle r="2.5300000000000002" cx="-11.194" cy="12.715999999999998" stroke="black" fill="none" stroke-width="1.0" filter="url(#fuzzy)" /><circle r="2.178" cx="-10.982000000000001" cy="14.287999999999997" stroke="black" fill="none" stroke-width="1.0" filter="url(#fuzzy)" /><circle r="2.598" cx="-7.7940000000000005" cy="13.223999999999998" stroke="black" fill="none" stroke-width="1.0" filter="url(#fuzzy)" /><circle r="1.338" cx="-9.714" cy="13.047999999999998" stroke="black" fill="none" stroke-width="1.0" filter="url(#fuzzy)" /></g>
        </g>
      
    <g id="mouth">
      <polyline points="34.32,60.96 34.34,60.81 34.11,62.43 33.8,63.3 33.44,63.81 33.4,64.01 33.01,64.68 33.06,65.06 33.07,64.74 32.15,66.19 31.79,66.84 31.08,67.59 31.67,66.87 30.14,68.64 30.91,67.8 30.57,68.43 29.7,69.27 29.43,69.41 29.31,69.57 27.2,71.04 27.48,70.82 26.52,71.54 25.71,71.97 26.5,71.57 24.39,72.57 23.67,72.96 24.7,72.4 24.27,72.61 22.97,73.25 23.61,73.02 22.7,73.36 20.2,74.13 19.84,74.18 19.95,74.21 19.77,74.29 18.2,74.58 18.77,74.51 17.03,74.81 16.65,74.84 13.81,75.14 14.48,75.09 14.56,75.11 14.03,75.15 13.25,75.18 11.62,75.18 9.85,75.12 10.42,75.13 10.29,75.14 9.07,75.07 7.66,74.91 5.69,74.61 4.28,74.33 5.63,74.6 3.26,74.09 3.81,74.21 1.28,73.52 2.81,73.95 1.6,73.6 0.77,73.34 -0.47,72.9 -0.32,72.97 -3.07,71.81 -3.01,71.81 -3.96,71.27 -3.79,71.44 -5.38,70.52 -4.13,71.21 -4.65,70.95 -7.19,69.32 -5.9,70.2 -7.54,69.03 -8.36,68.44 -9.23,67.7 -9.76,67.24 -9.27,67.66 -10.97,66.11 -10.3,66.72 -11.79,65.12 -11.5,65.42 -12.56,64.38 -13.18,63.52 -12.91,63.69 -13.3,63.31 -14.08,61.91 -14.14,61.56 -13.95,62.21 -14.9,60.08 -14.83,60.4 -14.64,60.57 -15.11,59.3 -15.54,58.17 -15.16,59.07 -15.37,58.5 -15.66,57.9 -15.82,56.8 -15.95,55.68 -15.91,56.02 -15.93,53.84 -15.95,54.71 -15.69,52.92 -15.78,53.06 -15.58,51.8 -15.55,51.96 -15.2,50.91 -15.32,51.23 -15.07,50.7 -14.63,49.15 -14.74,49.81 -14.38,48.79 -13.78,47.99 -14.22,48.59 -13.88,48.1 -13.33,47.13 -12.92,46.5 -12.27,45.92 -12.36,46.05 -12,45.6 -11.19,44.75 -10.9,44.46 -9.03,43.25 -9.56,43.43 -8.7,42.97 -7.85,42.53 -7.73,42.4 -6.15,41.59 -5.24,41.23 -6.64,41.72 -4.56,40.95 -4.33,40.85 -3.21,40.36 -2.74,40.32 -2.69,40.21 -1.13,39.87 -1.06,39.86 -1.3,39.91 1.03,39.42 0.2,39.59 1.82,39.3 2.59,39.2 3.34,39.12 3.93,39.09 5.28,39.04 6.67,39 5.44,39 6.13,39.02 8.29,39.05 9.2,39.12 10.12,39.2 11.03,39.31 11.55,39.38 12.32,39.51 13.65,39.75 13.4,39.7 13.3,39.68 14.79,40 15.32,40.14 17.85,40.87 17.38,40.72 17.14,40.65 19.82,41.59 19.15,41.33 20.21,41.79 20.4,41.89 21.07,42.13 23.6,43.45 23.41,43.35 22.84,43.02 23.84,43.53 25.24,44.41 26.74,45.49 26.47,45.35 27.02,45.67 26.54,45.28 28.28,46.72 28.95,47.34 29.07,47.51 28.84,47.36 30.42,48.97 30.91,49.63 30.18,48.69 31.65,50.38 31.79,50.72 31.79,50.59 32.53,51.8 32.87,52.35 33.37,53.6 33.26,53.44 33.83,54.89 33.58,53.86 33.5,54.21 34.2,55.88 34.36,56.98 34.18,56.8 34.52,57.76 34.43,57.42 34.27,57.42 34.49,58.01 34.37,59.99 34.37,60.74 34.58,59.72" fill="rgb(215,127,140)" stroke="black" stroke-width="3" stroke-linejoin="round" filter="url(#fuzzy)" />
    </g>
  </svg>
  