
  <svg viewBox="-100 -100 200 200" xmlns="http://www.w3.org/2000/svg" width="500" height="500" id="face-svg">
    <defs>
      <clipPath id="leftEyeClipPath">
        <polyline points="33.6,-1.34 33.2,-1.79 32.75,-2.24 32.27,-2.68 31.75,-3.11 31.19,-3.53 30.6,-3.95 29.97,-4.35 29.3,-4.75 28.6,-5.14 27.87,-5.51 27.1,-5.88 26.29,-6.23 25.46,-6.57 24.6,-6.9 23.7,-7.21 22.84,-7.65 21.92,-8.06 20.95,-8.45 19.92,-8.82 18.85,-9.17 17.73,-9.49 16.56,-9.79 15.36,-10.07 14.12,-10.32 12.84,-10.55 11.54,-10.76 10.21,-10.94 8.86,-11.1 7.49,-11.23 6.1,-11.34 4.71,-11.42 3.3,-11.49 1.9,-11.53 0.49,-11.55 -0.91,-11.55 -2.3,-11.53 -3.68,-11.49 -5.04,-11.43 -6.39,-11.35 -7.71,-11.26 -9.02,-11.15 -10.29,-11.02 -11.54,-10.88 -12.75,-10.73 -13.94,-10.56 -15.08,-10.39 -16.19,-10.2 -17.26,-10.01 -18.29,-9.8 -19.29,-9.59 -20.24,-9.37 -21.14,-9.14 -22.01,-8.92 -22.83,-8.68 -23.61,-8.45 -24.35,-8.21 -25.05,-7.97 -25.71,-7.73 -26.33,-7.48 -26.91,-7.24 -27.45,-7.01 -27.96,-6.77 -28.44,-6.54 -28.88,-6.3 -29.3,-6.08 -29.68,-5.85 -30.04,-5.63 -30.37,-5.41 -30.66,-5.19 -30.93,-4.98 -31.18,-4.77 -31.39,-4.57 -31.58,-4.36 -31.75,-4.17 -31.89,-3.97 -32.01,-3.78 -32.11,-3.6 -32.18,-3.42 -32.24,-3.24 -25.54,-0.28 -24.9,-0.15 -24.24,-0.01 -23.57,0.13 -22.89,0.28 -22.2,0.44 -21.49,0.61 -20.77,0.78 -20.04,0.96 -19.29,1.14 -18.53,1.34 -17.77,1.55 -16.99,1.76 -16.2,1.99 -15.4,2.22 -14.58,2.46 -13.76,2.72 -12.91,2.98 -12.06,3.25 -11.19,3.54 -10.31,3.84 -9.42,4.14 -8.51,4.47 -7.6,4.8 -6.68,5.15 -5.74,5.5 -4.8,5.87 -3.86,6.25 -2.91,6.64 -1.95,7.04 -0.99,7.45 -0.02,7.87 0.95,8.29 1.92,8.71 2.89,9.14 3.86,9.57 4.83,10 5.79,10.42 6.76,10.84 7.71,11.26 8.67,11.66 9.62,12.05 10.56,12.43 11.49,12.79 12.42,13.14 13.33,13.46 14.24,13.75 15.13,14.03 16.02,14.27 16.89,14.48 17.75,14.65 18.59,14.79 19.42,14.9 20.24,14.96 21.04,14.98 21.82,14.95 22.59,14.88 23.34,14.76 24.07,14.59 24.79,14.38 25.48,14.11 26.16,13.79 26.82,13.43 27.46,13.01 28.08,12.55 28.64,12.33 29.19,12.08 29.72,11.81 30.24,11.52 30.74,11.21 31.23,10.87 31.69,10.52 32.14,10.14 32.57,9.75 32.98,9.34 33.37,8.92 33.73,8.49 34.08,8.04 34.41,7.58 34.71,7.12" />
      </clipPath>
      <clipPath id="rightEyeClipPath">
        <polyline points="-38.44,-2.19 -38.09,-2.69 -37.71,-3.19 -37.28,-3.68 -36.82,-4.16 -36.31,-4.64 -35.77,-5.11 -35.18,-5.57 -34.56,-6.01 -33.9,-6.45 -33.21,-6.88 -32.48,-7.29 -31.71,-7.69 -30.9,-8.07 -30.07,-8.44 -29.2,-8.79 -28.38,-9.3 -27.51,-9.79 -26.58,-10.25 -25.58,-10.68 -24.54,-11.08 -23.44,-11.45 -22.29,-11.79 -21.1,-12.1 -19.86,-12.38 -18.58,-12.63 -17.27,-12.85 -15.93,-13.03 -14.56,-13.19 -13.17,-13.32 -11.77,-13.41 -10.34,-13.48 -8.91,-13.52 -7.47,-13.54 -6.03,-13.52 -4.59,-13.48 -3.15,-13.42 -1.73,-13.34 -0.31,-13.23 1.08,-13.1 2.46,-12.95 3.81,-12.78 5.14,-12.6 6.44,-12.39 7.71,-12.18 8.94,-11.95 10.15,-11.71 11.31,-11.45 12.44,-11.19 13.52,-10.92 14.57,-10.64 15.57,-10.35 16.53,-10.06 17.45,-9.76 18.33,-9.47 19.16,-9.16 19.95,-8.86 20.7,-8.56 21.41,-8.26 22.08,-7.96 22.71,-7.66 23.3,-7.36 23.86,-7.07 24.38,-6.78 24.88,-6.5 25.34,-6.22 25.78,-5.94 26.18,-5.67 26.55,-5.4 26.9,-5.14 27.22,-4.88 27.51,-4.63 27.77,-4.38 28.01,-4.14 28.23,-3.9 28.42,-3.67 28.59,-3.44 28.74,-3.22 28.87,-3 28.98,-2.79 26.04,0.52 25.57,0.71 25.1,0.9 24.62,1.09 24.12,1.29 23.61,1.49 23.09,1.71 22.56,1.92 22.01,2.15 21.45,2.38 20.88,2.62 20.29,2.86 19.7,3.12 19.08,3.38 18.46,3.65 17.82,3.93 17.17,4.22 16.5,4.51 15.81,4.82 15.1,5.13 14.38,5.45 13.64,5.79 12.89,6.13 12.11,6.49 11.32,6.85 10.51,7.22 9.69,7.61 8.85,8 7.98,8.4 7.11,8.81 6.22,9.22 5.31,9.63 4.38,10.05 3.44,10.48 2.49,10.9 1.53,11.32 0.55,11.74 -0.44,12.15 -1.45,12.55 -2.46,12.95 -3.48,13.33 -4.51,13.7 -5.54,14.06 -6.58,14.4 -7.63,14.71 -8.68,15.01 -9.73,15.27 -10.78,15.52 -11.84,15.73 -12.89,15.91 -13.93,16.05 -14.98,16.16 -16.01,16.23 -17.04,16.25 -18.07,16.24 -19.08,16.18 -20.08,16.08 -21.06,15.93 -22.03,15.73 -22.99,15.49 -23.93,15.19 -24.85,14.85 -25.75,14.46 -26.63,14.02 -27.49,13.53 -28.26,13.28 -29.02,13.01 -29.76,12.71 -30.48,12.4 -31.19,12.06 -31.88,11.7 -32.55,11.32 -33.2,10.92 -33.83,10.5 -34.44,10.07 -35.02,9.62 -35.58,9.16 -36.11,8.69 -36.62,8.21 -37.1,7.72" />
      </clipPath>
      <filter id="fuzzy">
        <feTurbulence id="turbulence" baseFrequency="0.05" numOctaves="3" type="noise" result="noise" />
        <feDisplacementMap in="SourceGraphic" in2="noise" scale="2" />
      </filter>
      <linearGradient id="rainbowGradient" x1="0%" y1="0%" x2="100%" y2="0%">
        <stop offset="0%" style="stop-color: rgb(128, 128, 128); stop-opacity: 1" />
        <stop offset="50%" style="stop-color: rgb(0, 0, 0); stop-opacity: 1" />
        <stop offset="100%" style="stop-color: rgb(255, 127, 80); stop-opacity: 1" />
      </linearGradient>
    </defs>
    <rect x="-100" y="-100" width="100%" height="100%" fill="rgb(245, 222, 179)" />
    <polyline id="faceContour" points="77.51,1.99 77.6,2.31 77.42,4.93 77.6,3.81 77.38,5.63 77.25,7.5 77.24,10.13 77.35,9.05 77.46,9.76 77.04,12.63 76.64,14.81 76.82,13.97 76.18,17.69 76.14,17.84 75.8,20 75.51,20.84 75.26,22.93 75.25,22.57 75.13,23.15 73.71,28.13 73.83,28.17 73.45,29.29 73.97,28.92 72.55,32.76 72.82,32.43 71.26,36.48 71.05,36.68 70.67,38.16 70.21,39.32 69.45,41.46 69.29,41.83 68.06,43.88 68.17,44.23 67.96,44.36 68.1,44.24 67.27,45.65 65.38,49.2 64.98,50.4 64.25,51.99 63.92,52.41 62.05,55.21 62.23,54.59 61.38,56.33 60.65,57.38 60.63,57.65 60.26,57.94 58.21,60.28 58.39,60.42 56.82,62.42 56.22,63.43 55.07,64.49 54.19,65.9 54.05,66.3 51.89,67.87 52.8,67.11 50.33,69.61 49.64,70.45 48.61,71.41 47.31,72.57 47.5,72.57 45.88,73.6 44.25,75.33 43.31,75.89 43.4,75.98 42.67,76.62 39.87,78.41 38.61,79.39 39.36,78.93 38.78,79.3 36.69,80.74 35.03,81.77 32.56,82.84 34.59,82.13 33.56,82.62 31.3,83.92 29.52,84.57 28.31,85.23 27.12,85.89 26,86.17 25.73,86.54 24.76,86.82 24.23,87 21.25,88.18 21.53,87.76 19.6,88.6 17.31,89.18 16.56,89.37 14.25,90.02 14.94,89.81 11.77,90.51 12.37,90.36 11.23,90.71 9.92,90.84 9.32,90.78 6.14,91.41 6.07,91.16 3.37,91.37 4.29,91.62 1.34,91.47 0.8,91.43 -0.08,91.54 -1.66,91.68 -4.32,91.45 -5.09,91.46 -5.15,91.3 -7.91,91.29 -8.08,90.91 -6.99,91.16 -10.72,90.66 -10.65,90.46 -13.28,90.01 -12.92,90.17 -14.07,89.79 -15.79,89.9 -18.59,89.16 -17.5,89.28 -20.93,87.99 -20.22,88.52 -21.58,88.04 -21.84,88.06 -24.96,86.75 -25.71,86.33 -27.48,85.79 -29.56,84.59 -27.32,85.72 -30.52,84.07 -31.57,83.64 -31.96,83.22 -32.99,82.87 -35.05,81.89 -35.36,81.61 -35.82,81.22 -36.94,80.33 -37.58,80.14 -39.28,78.78 -40.6,78.2 -42.99,76.21 -43.31,76.04 -43.29,75.79 -45.36,74.21 -45.64,74.13 -45.47,74.14 -47,73.07 -48.26,71.59 -50.1,69.47 -50.36,69.55 -52.24,67.69 -51.71,68.14 -52.51,67.52 -53.42,65.95 -54.84,65.19 -54.66,64.86 -56.98,61.83 -58.1,60.65 -58.29,60.11 -58.79,60.25 -59.67,58.53 -60.35,57.45 -61.14,56.29 -61.58,55.85 -62.47,54.34 -64.46,51.5 -64.42,51.04 -65.15,49.37 -65.27,49.82 -65.55,48.92 -67.13,46.01 -67.1,45.92 -67.21,45.66 -68.64,43.37 -69.13,41.54 -69.96,40.52 -70.57,38.48 -70.34,38.48 -71.53,36.36 -71.66,35.62 -72.22,33.98 -73.31,31.25 -72.94,31.52 -73.18,31.14 -73.59,28.53 -74.29,26.88 -73.96,27.36 -74.37,25.97 -75.14,22.96 -75.59,21.59 -76.14,18.95 -76.08,19.01 -76.2,17 -76.57,15.38 -76.68,15.09 -77.11,12.97 -77.18,11.41 -76.91,12.23 -77.4,7.71 -77.58,6.53 -77.65,4.74 -77.56,4.98 -77.6,2.11 -77.5,-0.15 -77.51,-0.17 -77.57,-1.85 -77.89,-1.33 -77.45,-3.45 -77.52,-5.11 -77.62,-7.16 -77.59,-8.4 -76.99,-10.41 -76.87,-12.4 -76.85,-13.68 -76.87,-14.28 -76.66,-15.76 -76.54,-16.15 -76.14,-19.6 -75.99,-19.08 -75.68,-20.72 -75.24,-22.76 -75.17,-22.85 -74.86,-23.94 -74.73,-25.68 -73.83,-28.66 -73.87,-29.36 -72.76,-31.92 -72.68,-32.61 -72.73,-31.85 -72.03,-34.65 -71.47,-35.39 -71.38,-36.23 -70.31,-39.49 -70.14,-39.71 -69.89,-40.23 -67.91,-44.45 -68.51,-42.94 -67.52,-45.95 -67.28,-45.93 -66.53,-47.58 -65.36,-49.27 -64.66,-51.15 -65.07,-50.42 -63.51,-52.7 -62.54,-53.7 -62.62,-54.17 -60.5,-57.08 -59.56,-58.84 -60.05,-58.55 -59.48,-58.68 -57.72,-61.24 -57.83,-61.72 -55.53,-64.25 -55.83,-64.24 -55.42,-64.69 -53.66,-66.04 -53.42,-66.63 -53.07,-66.64 -50.65,-69.2 -50.59,-69.51 -48.81,-71.09 -47.54,-72.17 -48.49,-71.96 -47.18,-72.75 -46.46,-73.44 -44.89,-74.73 -44.33,-75.59 -44.54,-75.18 -40.77,-78.19 -39.82,-78.67 -39.55,-79.04 -38.79,-79.57 -37.58,-80.16 -37.07,-80.69 -35.41,-81.52 -34.77,-82.1 -32.97,-82.87 -31.8,-83.4 -31.59,-83.71 -28.75,-85.07 -29.33,-84.88 -27.01,-85.74 -26.13,-86.37 -26.82,-85.87 -24.75,-87.16 -23.54,-87.26 -22.07,-87.64 -21.33,-88.3 -21.01,-88.45 -17.03,-89.22 -18.11,-89.01 -17.27,-89.16 -13.16,-90.13 -13.33,-90.2 -11.11,-90.72 -10.23,-90.66 -9.93,-90.85 -9.16,-90.8 -6.66,-91.13 -6.14,-91.33 -4.53,-91.4 -3.04,-91.6 -1.43,-91.45 0.09,-91.62 -0.54,-91.63 1.8,-91.52 2.61,-91.72 3.6,-91.5 5.79,-91.23 4.95,-91.4 6.68,-91.25 8.29,-91.03 9.13,-90.95 12.45,-90.26 13.12,-90.2 14.6,-89.9 15.17,-89.88 14.77,-90.06 16.19,-89.64 18.24,-89.15 19.6,-88.42 20.61,-88.13 21.73,-87.87 22.79,-87.46 24.87,-86.99 24.32,-86.98 27.45,-85.77 26.45,-86.16 30.35,-84.33 31.01,-84.11 32.3,-83.5 30.88,-83.88 31.88,-83.57 33.6,-82.83 36.32,-81.02 37.66,-80.38 35.79,-81.36 38.9,-79.3 40.43,-78.43 41.62,-77.27 43.02,-76.1 42.25,-76.82 44.03,-75.31 45.29,-74.6 45.67,-74.3 45.75,-73.78 46.27,-73.45 49.27,-70.82 50.26,-69.73 49.89,-70.05 51.01,-69.01 51.96,-67.68 53.54,-66.6 53.51,-66.65 54.7,-65.1 55.96,-63.46 56.87,-62.11 57.57,-61.5 58.78,-60.13 58.79,-59.46 60.55,-57.2 59.86,-58.46 60.43,-57.11 61.78,-55.23 63.59,-52.79 64.01,-51.91 64.35,-51.08 64.62,-50.73 66.38,-47.83 66.03,-48.32 67.41,-45.7 67.88,-44.49 67.54,-45.35 68.43,-42.99 69.62,-41.2 69.93,-40.39 69.82,-39.95 71.04,-37.47 70.81,-37.62 71.48,-35.57 72.22,-33.68 72.78,-32.48 72.74,-32.96 73.38,-29.26 73.81,-28.72 73.77,-28.45 73.97,-27.19 74.77,-24.22 75.47,-21.34 75.4,-21.4 76.12,-19.25 76.53,-16.75 76.39,-17.24 76.78,-14.95 76.72,-12.95 76.97,-12.82 77.14,-12.38 77.2,-10.77 77.21,-9.92 77.48,-5.05 77.43,-5.21 77.71,-6.54 77.6,-3.85 77.51,-0.53 77.51,1.99 77.6,2.31" fill="rgb(255, 160, 122)" stroke="black" stroke-width="1.6666666666666665" stroke-linejoin="round" filter="url(#fuzzy)" />
    <g transform="translate(39.2 -27.060000000000002)">
      <polyline id="rightCountour" points="-38.44,-2.19 -38.09,-2.69 -37.71,-3.19 -37.28,-3.68 -36.82,-4.16 -36.31,-4.64 -35.77,-5.11 -35.18,-5.57 -34.56,-6.01 -33.9,-6.45 -33.21,-6.88 -32.48,-7.29 -31.71,-7.69 -30.9,-8.07 -30.07,-8.44 -29.2,-8.79 -28.38,-9.3 -27.51,-9.79 -26.58,-10.25 -25.58,-10.68 -24.54,-11.08 -23.44,-11.45 -22.29,-11.79 -21.1,-12.1 -19.86,-12.38 -18.58,-12.63 -17.27,-12.85 -15.93,-13.03 -14.56,-13.19 -13.17,-13.32 -11.77,-13.41 -10.34,-13.48 -8.91,-13.52 -7.47,-13.54 -6.03,-13.52 -4.59,-13.48 -3.15,-13.42 -1.73,-13.34 -0.31,-13.23 1.08,-13.1 2.46,-12.95 3.81,-12.78 5.14,-12.6 6.44,-12.39 7.71,-12.18 8.94,-11.95 10.15,-11.71 11.31,-11.45 12.44,-11.19 13.52,-10.92 14.57,-10.64 15.57,-10.35 16.53,-10.06 17.45,-9.76 18.33,-9.47 19.16,-9.16 19.95,-8.86 20.7,-8.56 21.41,-8.26 22.08,-7.96 22.71,-7.66 23.3,-7.36 23.86,-7.07 24.38,-6.78 24.88,-6.5 25.34,-6.22 25.78,-5.94 26.18,-5.67 26.55,-5.4 26.9,-5.14 27.22,-4.88 27.51,-4.63 27.77,-4.38 28.01,-4.14 28.23,-3.9 28.42,-3.67 28.59,-3.44 28.74,-3.22 28.87,-3 28.98,-2.79 26.04,0.52 25.57,0.71 25.1,0.9 24.62,1.09 24.12,1.29 23.61,1.49 23.09,1.71 22.56,1.92 22.01,2.15 21.45,2.38 20.88,2.62 20.29,2.86 19.7,3.12 19.08,3.38 18.46,3.65 17.82,3.93 17.17,4.22 16.5,4.51 15.81,4.82 15.1,5.13 14.38,5.45 13.64,5.79 12.89,6.13 12.11,6.49 11.32,6.85 10.51,7.22 9.69,7.61 8.85,8 7.98,8.4 7.11,8.81 6.22,9.22 5.31,9.63 4.38,10.05 3.44,10.48 2.49,10.9 1.53,11.32 0.55,11.74 -0.44,12.15 -1.45,12.55 -2.46,12.95 -3.48,13.33 -4.51,13.7 -5.54,14.06 -6.58,14.4 -7.63,14.71 -8.68,15.01 -9.73,15.27 -10.78,15.52 -11.84,15.73 -12.89,15.91 -13.93,16.05 -14.98,16.16 -16.01,16.23 -17.04,16.25 -18.07,16.24 -19.08,16.18 -20.08,16.08 -21.06,15.93 -22.03,15.73 -22.99,15.49 -23.93,15.19 -24.85,14.85 -25.75,14.46 -26.63,14.02 -27.49,13.53 -28.26,13.28 -29.02,13.01 -29.76,12.71 -30.48,12.4 -31.19,12.06 -31.88,11.7 -32.55,11.32 -33.2,10.92 -33.83,10.5 -34.44,10.07 -35.02,9.62 -35.58,9.16 -36.11,8.69 -36.62,8.21 -37.1,7.72" fill="white" stroke="white" stroke-width="0" stroke-linejoin="round" filter="url(#fuzzy)" />
    </g>
    <g transform="translate(-43.730000000000004 -27.75)">
      <polyline id="leftCountour" points="33.6,-1.34 33.2,-1.79 32.75,-2.24 32.27,-2.68 31.75,-3.11 31.19,-3.53 30.6,-3.95 29.97,-4.35 29.3,-4.75 28.6,-5.14 27.87,-5.51 27.1,-5.88 26.29,-6.23 25.46,-6.57 24.6,-6.9 23.7,-7.21 22.84,-7.65 21.92,-8.06 20.95,-8.45 19.92,-8.82 18.85,-9.17 17.73,-9.49 16.56,-9.79 15.36,-10.07 14.12,-10.32 12.84,-10.55 11.54,-10.76 10.21,-10.94 8.86,-11.1 7.49,-11.23 6.1,-11.34 4.71,-11.42 3.3,-11.49 1.9,-11.53 0.49,-11.55 -0.91,-11.55 -2.3,-11.53 -3.68,-11.49 -5.04,-11.43 -6.39,-11.35 -7.71,-11.26 -9.02,-11.15 -10.29,-11.02 -11.54,-10.88 -12.75,-10.73 -13.94,-10.56 -15.08,-10.39 -16.19,-10.2 -17.26,-10.01 -18.29,-9.8 -19.29,-9.59 -20.24,-9.37 -21.14,-9.14 -22.01,-8.92 -22.83,-8.68 -23.61,-8.45 -24.35,-8.21 -25.05,-7.97 -25.71,-7.73 -26.33,-7.48 -26.91,-7.24 -27.45,-7.01 -27.96,-6.77 -28.44,-6.54 -28.88,-6.3 -29.3,-6.08 -29.68,-5.85 -30.04,-5.63 -30.37,-5.41 -30.66,-5.19 -30.93,-4.98 -31.18,-4.77 -31.39,-4.57 -31.58,-4.36 -31.75,-4.17 -31.89,-3.97 -32.01,-3.78 -32.11,-3.6 -32.18,-3.42 -32.24,-3.24 -25.54,-0.28 -24.9,-0.15 -24.24,-0.01 -23.57,0.13 -22.89,0.28 -22.2,0.44 -21.49,0.61 -20.77,0.78 -20.04,0.96 -19.29,1.14 -18.53,1.34 -17.77,1.55 -16.99,1.76 -16.2,1.99 -15.4,2.22 -14.58,2.46 -13.76,2.72 -12.91,2.98 -12.06,3.25 -11.19,3.54 -10.31,3.84 -9.42,4.14 -8.51,4.47 -7.6,4.8 -6.68,5.15 -5.74,5.5 -4.8,5.87 -3.86,6.25 -2.91,6.64 -1.95,7.04 -0.99,7.45 -0.02,7.87 0.95,8.29 1.92,8.71 2.89,9.14 3.86,9.57 4.83,10 5.79,10.42 6.76,10.84 7.71,11.26 8.67,11.66 9.62,12.05 10.56,12.43 11.49,12.79 12.42,13.14 13.33,13.46 14.24,13.75 15.13,14.03 16.02,14.27 16.89,14.48 17.75,14.65 18.59,14.79 19.42,14.9 20.24,14.96 21.04,14.98 21.82,14.95 22.59,14.88 23.34,14.76 24.07,14.59 24.79,14.38 25.48,14.11 26.16,13.79 26.82,13.43 27.46,13.01 28.08,12.55 28.64,12.33 29.19,12.08 29.72,11.81 30.24,11.52 30.74,11.21 31.23,10.87 31.69,10.52 32.14,10.14 32.57,9.75 32.98,9.34 33.37,8.92 33.73,8.49 34.08,8.04 34.41,7.58 34.71,7.12" fill="white" stroke="white" stroke-width="0" stroke-linejoin="round" filter="url(#fuzzy)" />
    </g>
    <g transform="translate(39.2 -27.060000000000002)">
      <polyline id="rightUpper" points="-39.82,2.64 -39.84,2.19 -39.82,1.74 -39.78,1.27 -39.7,0.79 -39.58,0.3 -39.43,-0.19 -39.24,-0.69 -39.01,-1.19 -38.74,-1.69 -38.44,-2.19 -38.09,-2.69 -37.71,-3.19 -37.28,-3.68 -36.82,-4.16 -36.31,-4.64 -35.77,-5.11 -35.18,-5.57 -34.56,-6.01 -33.9,-6.45 -33.21,-6.88 -32.48,-7.29 -31.71,-7.69 -30.9,-8.07 -30.07,-8.44 -29.2,-8.79 -28.38,-9.3 -27.51,-9.79 -26.58,-10.25 -25.58,-10.68 -24.54,-11.08 -23.44,-11.45 -22.29,-11.79 -21.1,-12.1 -19.86,-12.38 -18.58,-12.63 -17.27,-12.85 -15.93,-13.03 -14.56,-13.19 -13.17,-13.32 -11.77,-13.41 -10.34,-13.48 -8.91,-13.52 -7.47,-13.54 -6.03,-13.52 -4.59,-13.48 -3.15,-13.42 -1.73,-13.34 -0.31,-13.23 1.08,-13.1 2.46,-12.95 3.81,-12.78 5.14,-12.6 6.44,-12.39 7.71,-12.18 8.94,-11.95 10.15,-11.71 11.31,-11.45 12.44,-11.19 13.52,-10.92 14.57,-10.64 15.57,-10.35 16.53,-10.06 17.45,-9.76 18.33,-9.47 19.16,-9.16 19.95,-8.86 20.7,-8.56 21.41,-8.26 22.08,-7.96 22.71,-7.66 23.3,-7.36 23.86,-7.07 24.38,-6.78 24.88,-6.5 25.34,-6.22 25.78,-5.94 26.18,-5.67 26.55,-5.4 26.9,-5.14 27.22,-4.88 27.51,-4.63 27.77,-4.38 28.01,-4.14 28.23,-3.9 28.42,-3.67 28.59,-3.44 28.74,-3.22 28.87,-3 28.98,-2.79 29.07,-2.59 29.14,-2.39 29.2,-2.2 29.24,-2.01 29.26,-1.83 29.27,-1.66 29.27,-1.49 29.25,-1.33 29.22,-1.17 29.18,-1.02" fill="none" stroke="black" stroke-width="1.6666666666666665" stroke-linejoin="round" filter="url(#fuzzy)" />
      <polyline id="rightLower" points="-40.15,3.07 -40.01,3.47 -39.82,3.89 -39.6,4.34 -39.34,4.8 -39.05,5.27 -38.72,5.75 -38.36,6.24 -37.97,6.74 -37.55,7.23 -37.1,7.72 -36.62,8.21 -36.11,8.69 -35.58,9.16 -35.02,9.62 -34.44,10.07 -33.83,10.5 -33.2,10.92 -32.55,11.32 -31.88,11.7 -31.19,12.06 -30.48,12.4 -29.76,12.71 -29.02,13.01 -28.26,13.28 -27.49,13.53 -26.63,14.02 -25.75,14.46 -24.85,14.85 -23.93,15.19 -22.99,15.49 -22.03,15.73 -21.06,15.93 -20.08,16.08 -19.08,16.18 -18.07,16.24 -17.04,16.25 -16.01,16.23 -14.98,16.16 -13.93,16.05 -12.89,15.91 -11.84,15.73 -10.78,15.52 -9.73,15.27 -8.68,15.01 -7.63,14.71 -6.58,14.4 -5.54,14.06 -4.51,13.7 -3.48,13.33 -2.46,12.95 -1.45,12.55 -0.44,12.15 0.55,11.74 1.53,11.32 2.49,10.9 3.44,10.48 4.38,10.05 5.31,9.63 6.22,9.22 7.11,8.81 7.98,8.4 8.85,8 9.69,7.61 10.51,7.22 11.32,6.85 12.11,6.49 12.89,6.13 13.64,5.79 14.38,5.45 15.1,5.13 15.81,4.82 16.5,4.51 17.17,4.22 17.82,3.93 18.46,3.65 19.08,3.38 19.7,3.12 20.29,2.86 20.88,2.62 21.45,2.38 22.01,2.15 22.56,1.92 23.09,1.71 23.61,1.49 24.12,1.29 24.62,1.09 25.1,0.9 25.57,0.71 26.04,0.52 26.49,0.34 26.93,0.17 27.36,-0.01 27.77,-0.18 28.18,-0.34 28.58,-0.51 28.97,-0.67 29.35,-0.83 29.72,-0.98 30.08,-1.14" fill="none" stroke="black" stroke-width="2.2222222222222223" stroke-linejoin="round" filter="url(#fuzzy)" />
      <circle r="4.478" cx="-19.866509953273663" cy="5.145489803251651" stroke="black" fill="none" stroke-width="1.0" filter="url(#fuzzy)" clip-path="url(#rightEyeClipPath)" /><circle r="4.114" cx="-18.981509953273665" cy="7.160489803251652" stroke="black" fill="none" stroke-width="1.0" filter="url(#fuzzy)" clip-path="url(#rightEyeClipPath)" /><circle r="4.97" cx="-18.731509953273665" cy="7.935489803251652" stroke="black" fill="none" stroke-width="1.0" filter="url(#fuzzy)" clip-path="url(#rightEyeClipPath)" /><circle r="4.432" cx="-18.186509953273664" cy="5.085489803251652" stroke="black" fill="none" stroke-width="1.0" filter="url(#fuzzy)" clip-path="url(#rightEyeClipPath)" /><circle r="4.7379999999999995" cx="-20.676509953273666" cy="5.255489803251652" stroke="black" fill="none" stroke-width="1.0" filter="url(#fuzzy)" clip-path="url(#rightEyeClipPath)" /><circle r="3.338" cx="-17.331509953273667" cy="8.39048980325165" stroke="black" fill="none" stroke-width="1.0" filter="url(#fuzzy)" clip-path="url(#rightEyeClipPath)" /><circle r="3.75" cx="-20.506509953273664" cy="5.830489803251652" stroke="black" fill="none" stroke-width="1.0" filter="url(#fuzzy)" clip-path="url(#rightEyeClipPath)" /><circle r="4.848" cx="-20.646509953273664" cy="6.9804898032516505" stroke="black" fill="none" stroke-width="1.0" filter="url(#fuzzy)" clip-path="url(#rightEyeClipPath)" /><circle r="4.61" cx="-17.401509953273663" cy="5.7204898032516525" stroke="black" fill="none" stroke-width="1.0" filter="url(#fuzzy)" clip-path="url(#rightEyeClipPath)" /><circle r="4.53" cx="-18.891509953273665" cy="6.5554898032516515" stroke="black" fill="none" stroke-width="1.0" filter="url(#fuzzy)" clip-path="url(#rightEyeClipPath)" />
      </g>
    <g transform="translate(-43.730000000000004 -27.75)">
      <polyline id="leftUpper" points="35.63,3.21 35.59,2.77 35.51,2.32 35.4,1.87 35.25,1.41 35.07,0.95 34.85,0.49 34.6,0.03 34.3,-0.43 33.97,-0.89 33.6,-1.34 33.2,-1.79 32.75,-2.24 32.27,-2.68 31.75,-3.11 31.19,-3.53 30.6,-3.95 29.97,-4.35 29.3,-4.75 28.6,-5.14 27.87,-5.51 27.1,-5.88 26.29,-6.23 25.46,-6.57 24.6,-6.9 23.7,-7.21 22.84,-7.65 21.92,-8.06 20.95,-8.45 19.92,-8.82 18.85,-9.17 17.73,-9.49 16.56,-9.79 15.36,-10.07 14.12,-10.32 12.84,-10.55 11.54,-10.76 10.21,-10.94 8.86,-11.1 7.49,-11.23 6.1,-11.34 4.71,-11.42 3.3,-11.49 1.9,-11.53 0.49,-11.55 -0.91,-11.55 -2.3,-11.53 -3.68,-11.49 -5.04,-11.43 -6.39,-11.35 -7.71,-11.26 -9.02,-11.15 -10.29,-11.02 -11.54,-10.88 -12.75,-10.73 -13.94,-10.56 -15.08,-10.39 -16.19,-10.2 -17.26,-10.01 -18.29,-9.8 -19.29,-9.59 -20.24,-9.37 -21.14,-9.14 -22.01,-8.92 -22.83,-8.68 -23.61,-8.45 -24.35,-8.21 -25.05,-7.97 -25.71,-7.73 -26.33,-7.48 -26.91,-7.24 -27.45,-7.01 -27.96,-6.77 -28.44,-6.54 -28.88,-6.3 -29.3,-6.08 -29.68,-5.85 -30.04,-5.63 -30.37,-5.41 -30.66,-5.19 -30.93,-4.98 -31.18,-4.77 -31.39,-4.57 -31.58,-4.36 -31.75,-4.17 -31.89,-3.97 -32.01,-3.78 -32.11,-3.6 -32.18,-3.42 -32.24,-3.24 -32.27,-3.07 -32.29,-2.91 -32.29,-2.75 -32.28,-2.6 -32.24,-2.45 -32.2,-2.3 -32.13,-2.16 -32.06,-2.03 -31.97,-1.9 -31.86,-1.77" fill="none" stroke="black" stroke-width="2.2222222222222223" stroke-linejoin="round" filter="url(#fuzzy)" />
      <polyline id="leftLower" points="36.32,2.73 36.29,3.1 36.22,3.5 36.13,3.91 36.01,4.35 35.86,4.79 35.68,5.25 35.47,5.71 35.24,6.18 34.99,6.65 34.71,7.12 34.41,7.58 34.08,8.04 33.73,8.49 33.37,8.92 32.98,9.34 32.57,9.75 32.14,10.14 31.69,10.52 31.23,10.87 30.74,11.21 30.24,11.52 29.72,11.81 29.19,12.08 28.64,12.33 28.08,12.55 27.46,13.01 26.82,13.43 26.16,13.79 25.48,14.11 24.79,14.38 24.07,14.59 23.34,14.76 22.59,14.88 21.82,14.95 21.04,14.98 20.24,14.96 19.42,14.9 18.59,14.79 17.75,14.65 16.89,14.48 16.02,14.27 15.13,14.03 14.24,13.75 13.33,13.46 12.42,13.14 11.49,12.79 10.56,12.43 9.62,12.05 8.67,11.66 7.71,11.26 6.76,10.84 5.79,10.42 4.83,10 3.86,9.57 2.89,9.14 1.92,8.71 0.95,8.29 -0.02,7.87 -0.99,7.45 -1.95,7.04 -2.91,6.64 -3.86,6.25 -4.8,5.87 -5.74,5.5 -6.68,5.15 -7.6,4.8 -8.51,4.47 -9.42,4.14 -10.31,3.84 -11.19,3.54 -12.06,3.25 -12.91,2.98 -13.76,2.72 -14.58,2.46 -15.4,2.22 -16.2,1.99 -16.99,1.76 -17.77,1.55 -18.53,1.34 -19.29,1.14 -20.04,0.96 -20.77,0.78 -21.49,0.61 -22.2,0.44 -22.89,0.28 -23.57,0.13 -24.24,-0.01 -24.9,-0.15 -25.54,-0.28 -26.17,-0.41 -26.79,-0.53 -27.39,-0.65 -27.98,-0.76 -28.56,-0.87 -29.12,-0.98 -29.67,-1.09 -30.21,-1.19 -30.73,-1.29 -31.25,-1.38" fill="none" stroke="black" stroke-width="2.2222222222222223" stroke-linejoin="round" filter="url(#fuzzy)" />
      <circle r="4.672" cx="-13.970706194617005" cy="1.0032122302365925" stroke="black" fill="none" stroke-width="1.0" filter="url(#fuzzy)" clip-path="url(#leftEyeClipPath)" /><circle r="4.484" cx="-14.405706194617004" cy="2.038212230236592" stroke="black" fill="none" stroke-width="1.0" filter="url(#fuzzy)" clip-path="url(#leftEyeClipPath)" /><circle r="4.45" cx="-16.160706194617006" cy="1.1282122302365925" stroke="black" fill="none" stroke-width="1.0" filter="url(#fuzzy)" clip-path="url(#leftEyeClipPath)" /><circle r="4.1899999999999995" cx="-13.710706194617003" cy="2.1932122302365924" stroke="black" fill="none" stroke-width="1.0" filter="url(#fuzzy)" clip-path="url(#leftEyeClipPath)" /><circle r="4.506" cx="-13.745706194617004" cy="-0.9967877697634075" stroke="black" fill="none" stroke-width="1.0" filter="url(#fuzzy)" clip-path="url(#leftEyeClipPath)" /><circle r="4.96" cx="-13.175706194617003" cy="0.8532122302365925" stroke="black" fill="none" stroke-width="1.0" filter="url(#fuzzy)" clip-path="url(#leftEyeClipPath)" /><circle r="3.16" cx="-16.000706194617003" cy="0.7982122302365924" stroke="black" fill="none" stroke-width="1.0" filter="url(#fuzzy)" clip-path="url(#leftEyeClipPath)" /><circle r="3.844" cx="-14.180706194617006" cy="0.6732122302365919" stroke="black" fill="none" stroke-width="1.0" filter="url(#fuzzy)" clip-path="url(#leftEyeClipPath)" /><circle r="4.686" cx="-13.150706194617005" cy="-1.6367877697634075" stroke="black" fill="none" stroke-width="1.0" filter="url(#fuzzy)" clip-path="url(#leftEyeClipPath)" /><circle r="4.212" cx="-13.255706194617005" cy="-2.4017877697634074" stroke="black" fill="none" stroke-width="1.0" filter="url(#fuzzy)" clip-path="url(#leftEyeClipPath)" />
    </g>
    <g id="hairs">
      <polyline points="6.68,-91.25 8.16,-91.04 9.8,-90.76 11.43,-90.47 12.84,-90.22 13.98,-90.01 14.91,-89.84 15.72,-89.67 16.46,-89.48 17.15,-89.27 17.71,-89.07 18.07,-88.91 18.13,-88.81 17.83,-88.79 17.16,-88.85 16.11,-88.98 14.71,-89.18 13,-89.44 10.93,-89.79 8.41,-90.26 5.33,-90.88" fill="none" stroke="rgb(44, 34, 43)" stroke-width="2" stroke-linejoin="round" filter="url(#fuzzy)" /><polyline points="-17.03,-89.22 -17.17,-89.2 -16.03,-89.46 -14.46,-89.81 -12.9,-90.15 -11.51,-90.43 -10.28,-90.64 -9.17,-90.81 -8.15,-90.96 -7.21,-91.07 -6.39,-91.17 -5.7,-91.22 -5.22,-91.24 -4.98,-91.22 -5.03,-91.15 -5.42,-91.02 -6.17,-90.82 -7.31,-90.56 -8.83,-90.24 -10.74,-89.87 -13.06,-89.45 -15.8,-88.98 -18.87,-88.4" fill="none" stroke="rgb(44, 34, 43)" stroke-width="2" stroke-linejoin="round" filter="url(#fuzzy)" /><polyline points="26.45,-86.16 29.11,-84.93 30.43,-84.31 31.12,-83.96 31.62,-83.67 32.15,-83.34 32.71,-82.97 33.19,-82.61 33.48,-82.3 33.52,-82.07 33.3,-81.92 32.8,-81.88 31.96,-81.98 30.73,-82.25 29.02,-82.72 26.79,-83.41 24.03,-84.31 20.77,-85.4 17.09,-86.66 13.11,-88.06 8.83,-89.61" fill="none" stroke="rgb(44, 34, 43)" stroke-width="2" stroke-linejoin="round" filter="url(#fuzzy)" /><polyline points="13.12,-90.2 14.22,-90 15,-89.86 15.88,-89.65 17,-89.33 18.26,-88.93 19.54,-88.52 20.75,-88.13 21.85,-87.77 22.81,-87.46 23.64,-87.17 24.31,-86.91 24.8,-86.69 25.09,-86.53 25.12,-86.44 24.86,-86.45 24.3,-86.56 23.45,-86.76 22.35,-87.04 20.97,-87.38 19.22,-87.82 16.92,-88.42 13.98,-89.22 10.51,-90.18" fill="none" stroke="rgb(44, 34, 43)" stroke-width="2" stroke-linejoin="round" filter="url(#fuzzy)" /><polyline points="69.62,-41.2 69.74,-40.5 69.66,-39.78 69.36,-39.11 68.8,-38.56 67.92,-38.19 66.71,-38.03 65.11,-38.12 63.1,-38.46 60.67,-39.04 57.81,-39.86 54.52,-40.91 50.81,-42.18 46.66,-43.69 42.06,-45.48 36.98,-47.59 31.42,-50.07 25.35,-52.94 18.78,-56.22 11.72,-59.88 4.13,-63.93 -4.02,-68.34 -12.77,-73.07 -22.15,-78.05" fill="none" stroke="rgb(44, 34, 43)" stroke-width="2" stroke-linejoin="round" filter="url(#fuzzy)" /><polyline points="2.61,-91.72 3.8,-91.51 4.98,-91.33 6.19,-91.16 7.59,-90.94 9.17,-90.68 10.85,-90.38 12.48,-90.08 13.97,-89.8 15.25,-89.56 16.32,-89.35 17.24,-89.16 18.01,-88.98 18.65,-88.81 19.12,-88.67 19.37,-88.6 19.36,-88.6 19.09,-88.67 18.57,-88.8 17.8,-88.97 16.73,-89.2 15.18,-89.54 12.88,-90.06" fill="none" stroke="rgb(44, 34, 43)" stroke-width="2" stroke-linejoin="round" filter="url(#fuzzy)" /><polyline points="54.7,-65.1 55.57,-63.75 55.85,-62.76 55.6,-62.03 54.81,-61.49 53.46,-61.14 51.55,-60.96 49.09,-60.91 46.09,-60.95 42.53,-61.07 38.36,-61.32 33.53,-61.75 27.98,-62.42 21.72,-63.33 14.74,-64.48 7.03,-65.87 -1.44,-67.47 -10.78,-69.24 -21.16,-71.11 -32.61,-73.02" fill="none" stroke="rgb(44, 34, 43)" stroke-width="2" stroke-linejoin="round" filter="url(#fuzzy)" /><polyline points="14.6,-89.9 14.74,-89.83 14.57,-89.52 14.23,-88.92 13.53,-88.07 12.25,-87.03 10.25,-85.8 7.46,-84.38 3.84,-82.75 -0.61,-80.91 -5.93,-78.85 -12.11,-76.56 -19.19,-74.05 -27.21,-71.3 -36.28,-68.24 -46.55,-64.8" fill="none" stroke="rgb(44, 34, 43)" stroke-width="2" stroke-linejoin="round" filter="url(#fuzzy)" /><polyline points="-29.33,-84.88 -27.66,-85.56 -26.65,-86.02 -25.76,-86.42 -24.81,-86.82 -23.82,-87.2 -22.88,-87.53 -22.05,-87.81 -21.36,-88 -20.83,-88.09 -20.52,-88.09 -20.45,-87.97 -20.69,-87.72 -21.3,-87.33 -22.35,-86.78 -23.89,-86.04 -25.93,-85.11 -28.45,-83.98 -31.4,-82.67 -34.8,-81.2" fill="none" stroke="rgb(44, 34, 43)" stroke-width="2" stroke-linejoin="round" filter="url(#fuzzy)" /><polyline points="-44.89,-74.73 -44.16,-75.38 -42.63,-76.22 -40.59,-77.18 -38.38,-78.07 -36.08,-78.84 -33.66,-79.51 -31.07,-80.16 -28.28,-80.8 -25.29,-81.44 -22.13,-82.09 -18.82,-82.72 -15.42,-83.33 -11.99,-83.94 -8.58,-84.53 -5.22,-85.11 -1.95,-85.68 1.25,-86.21 4.37,-86.71 7.42,-87.18 10.39,-87.62 13.23,-88.06 15.89,-88.53" fill="none" stroke="rgb(44, 34, 43)" stroke-width="2" stroke-linejoin="round" filter="url(#fuzzy)" /><polyline points="51.01,-69.01 51.96,-67.92 52.71,-67.13 53.26,-66.41 53.64,-65.7 53.86,-65.03 53.86,-64.49 53.61,-64.13 53.05,-63.97 52.17,-64.02 50.96,-64.27 49.43,-64.69 47.6,-65.27 45.47,-66.01 43.01,-66.93 40.2,-68.09 36.98,-69.51 33.34,-71.21 29.26,-73.2 24.74,-75.47 19.75,-78.03 14.23,-80.9 8.09,-84.09 1.29,-87.58" fill="none" stroke="rgb(44, 34, 43)" stroke-width="2" stroke-linejoin="round" filter="url(#fuzzy)" /><polyline points="12.45,-90.26 13.19,-90.15 13.76,-90.03 14.04,-89.9 14.15,-89.71 14.13,-89.44 13.94,-89.1 13.46,-88.71 12.59,-88.3 11.28,-87.89 9.48,-87.48 7.19,-87.06 4.4,-86.62 1.08,-86.15 -2.81,-85.65 -7.34,-85.11 -12.6,-84.54 -18.67,-83.97 -25.51,-83.41" fill="none" stroke="rgb(44, 34, 43)" stroke-width="2" stroke-linejoin="round" filter="url(#fuzzy)" /><polyline points="68.43,-42.99 69.2,-41.69 69.53,-40.84 69.64,-40.19 69.61,-39.68 69.43,-39.34 69.08,-39.23 68.51,-39.39 67.69,-39.89 66.58,-40.75 65.17,-41.98 63.45,-43.6 61.42,-45.6 59.06,-47.99 56.37,-50.8 53.38,-54.04 50.09,-57.79 46.49,-62.09 42.42,-67.04 37.71,-72.72 32.37,-79.12" fill="none" stroke="rgb(44, 34, 43)" stroke-width="2" stroke-linejoin="round" filter="url(#fuzzy)" /><polyline points="19.6,-88.42 20.66,-88.11 21.9,-87.71 23.26,-87.23 24.66,-86.69 26.09,-86.1 27.52,-85.47 28.9,-84.85 30.15,-84.28 31.19,-83.8 31.98,-83.43 32.53,-83.17 32.89,-83 33.11,-82.88 33.18,-82.83 33.03,-82.89 32.49,-83.13 31.45,-83.62 29.84,-84.38 27.66,-85.43" fill="none" stroke="rgb(44, 34, 43)" stroke-width="2" stroke-linejoin="round" filter="url(#fuzzy)" /><polyline points="49.27,-70.82 49.69,-70.18 49.63,-69.78 49.29,-69.34 48.62,-68.91 47.49,-68.55 45.86,-68.28 43.67,-68.1 40.91,-68.04 37.53,-68.15 33.48,-68.44 28.72,-68.95 23.2,-69.67 16.89,-70.61 9.8,-71.75 1.92,-73.05 -6.74,-74.48 -16.22,-76.07 -26.54,-77.92" fill="none" stroke="rgb(44, 34, 43)" stroke-width="2" stroke-linejoin="round" filter="url(#fuzzy)" /><polyline points="66.03,-48.32 66.84,-46.48 66.9,-45.58 66.52,-44.99 65.81,-44.52 64.73,-44.17 63.24,-44.02 61.29,-44.06 58.89,-44.32 56.05,-44.79 52.73,-45.46 48.94,-46.37 44.62,-47.52 39.77,-48.92 34.35,-50.59 28.36,-52.51 21.79,-54.67 14.64,-57.08 6.92,-59.74 -1.37,-62.69 -10.22,-66.02 -19.63,-69.76 -29.55,-73.96" fill="none" stroke="rgb(44, 34, 43)" stroke-width="2" stroke-linejoin="round" filter="url(#fuzzy)" /><polyline points="3.6,-91.5 5.06,-91.29 6.38,-91.02 8.15,-90.61 10.35,-90.05 12.82,-89.41 15.36,-88.73 17.81,-88.06 20.07,-87.42 22.09,-86.84 23.88,-86.32 25.48,-85.86 26.97,-85.41 28.47,-84.92 30,-84.4" fill="none" stroke="rgb(44, 34, 43)" stroke-width="2" stroke-linejoin="round" filter="url(#fuzzy)" /><polyline points="-13.33,-90.2 -11.77,-90.49 -10.95,-90.55 -10.44,-90.49 -10.1,-90.33 -9.92,-90.06 -9.99,-89.65 -10.38,-89.08 -11.15,-88.34 -12.37,-87.41 -14.06,-86.29 -16.26,-84.97 -18.97,-83.43 -22.23,-81.61 -26.09,-79.5 -30.61,-77.07 -35.78,-74.38 -41.55,-71.46 -47.95,-68.32" fill="none" stroke="rgb(44, 34, 43)" stroke-width="2" stroke-linejoin="round" filter="url(#fuzzy)" /><polyline points="30.88,-83.88 32.16,-83.34 33.83,-82.46 35.41,-81.53 36.78,-80.67 38.02,-79.83 39.22,-79 40.36,-78.18 41.38,-77.43 42.21,-76.8 42.83,-76.34 43.21,-76.04 43.34,-75.93 43.21,-76 42.78,-76.28 42.08,-76.75 41.11,-77.41 39.81,-78.3 37.98,-79.56 35.31,-81.37" fill="none" stroke="rgb(44, 34, 43)" stroke-width="2" stroke-linejoin="round" filter="url(#fuzzy)" /><polyline points="-39.55,-79.04 -38.33,-79.44 -36.25,-79.66 -33.36,-79.72 -29.72,-79.62 -25.38,-79.36 -20.41,-78.92 -14.84,-78.28 -8.75,-77.46 -2.17,-76.48 4.82,-75.35 12.16,-74.12 19.79,-72.8 27.67,-71.46 35.84,-70.11 44.37,-68.65" fill="none" stroke="rgb(44, 34, 43)" stroke-width="2" stroke-linejoin="round" filter="url(#fuzzy)" /><polyline points="-39.82,-78.67 -39.21,-79.1 -38.04,-79.67 -36.45,-80.34 -34.53,-81.08 -32.32,-81.88 -29.89,-82.71 -27.31,-83.55 -24.66,-84.39 -22.01,-85.23 -19.39,-86.06 -16.83,-86.86 -14.35,-87.61 -11.94,-88.32 -9.63,-88.99 -7.44,-89.62 -5.41,-90.21 -3.61,-90.75 -1.98,-91.22" fill="none" stroke="rgb(44, 34, 43)" stroke-width="2" stroke-linejoin="round" filter="url(#fuzzy)" /><polyline points="4.95,-91.4 6.63,-91.19 8.43,-90.83 10.41,-90.36 12.44,-89.81 14.39,-89.24 16.24,-88.64 18,-88.03 19.76,-87.39 21.57,-86.7 23.43,-85.97 25.31,-85.22 27.16,-84.47 28.91,-83.76 30.51,-83.12 31.93,-82.56 33.12,-82.12 34.05,-81.81 34.71,-81.64 35.16,-81.56 35.4,-81.56 35.15,-81.8" fill="none" stroke="rgb(44, 34, 43)" stroke-width="2" stroke-linejoin="round" filter="url(#fuzzy)" /><polyline points="20.61,-88.13 21.68,-87.84 22.72,-87.51 23.64,-87.18 24.44,-86.82 25.12,-86.44 25.63,-86.07 25.89,-85.75 25.82,-85.5 25.38,-85.35 24.59,-85.26 23.48,-85.22 22.07,-85.2 20.32,-85.22 18.2,-85.28 15.67,-85.43 12.71,-85.65 9.29,-85.97 5.32,-86.39 0.66,-86.91 -4.84,-87.52 -11.26,-88.18" fill="none" stroke="rgb(44, 34, 43)" stroke-width="2" stroke-linejoin="round" filter="url(#fuzzy)" /><polyline points="5.79,-91.23 5.75,-91.27 6.5,-91.15 7.44,-90.91 8.31,-90.6 8.92,-90.25 9.13,-89.87 8.89,-89.47 8.23,-89.02 7.19,-88.5 5.82,-87.88 4.12,-87.17 2.08,-86.36 -0.37,-85.49 -3.28,-84.53 -6.7,-83.5 -10.7,-82.34 -15.3,-81.04 -20.51,-79.58 -26.29,-78 -32.61,-76.32 -39.55,-74.55" fill="none" stroke="rgb(44, 34, 43)" stroke-width="2" stroke-linejoin="round" filter="url(#fuzzy)" />
    </g>
    
        <g id="lineNose">
        <path d="M -9.85,22.040000000000003 Q 9.75, 39.900000000000006 -0.04999999999999982, -4.884" fill="none" stroke="black" stroke-width="3" stroke-linejoin="round" filter="url(#fuzzy)"></path>
        </g>
      
    <g id="mouth">
      <polyline points="-25.89,44.95 -25.69,47.18 -25.48,49.34 -25.27,51.41 -25.04,53.41 -24.8,55.33 -24.56,57.17 -24.3,58.94 -24.03,60.64 -23.76,62.26 -23.47,63.8 -23.18,65.28 -22.88,66.69 -22.57,68.03 -22.25,69.3 -21.92,70.5 -21.58,71.64 -21.23,72.71 -20.87,73.72 -20.51,74.66 -20.14,75.54 -19.75,76.37 -19.36,77.13 -18.96,77.83 -18.56,78.48 -18.14,79.07 -17.72,79.6 -17.29,80.08 -16.85,80.51 -16.4,80.88 -15.94,81.2 -15.48,81.47 -15.01,81.69 -14.53,81.86 -14.05,81.99 -13.55,82.07 -13.05,82.1 -12.54,82.09 -12.03,82.04 -11.5,81.94 -10.97,81.8 -10.44,81.62 -9.89,81.41 -9.34,81.15 -8.78,80.86 -8.22,80.53 -7.65,80.17 -7.07,79.77 -6.48,79.34 -5.89,78.88 -5.29,78.38 -4.69,77.86 -4.08,77.31 -3.46,76.73 -2.84,76.12 -2.21,75.49 -1.58,74.83 -0.94,74.15 -0.29,73.44 0.36,72.72 1.02,71.97 1.68,71.21 2.35,70.42 3.02,69.62 3.7,68.8 4.39,67.97 5.08,67.12 5.78,66.26 6.48,65.38 7.18,64.5 7.89,63.6 8.61,62.7 9.33,61.78 10.05,60.86 10.78,59.94 11.52,59 12.26,58.07 13,57.13 13.75,56.19 14.5,55.25 15.26,54.3 16.02,53.36 16.78,52.42 17.55,51.49 18.33,50.55 19.1,49.63 19.88,48.71 20.67,47.79 21.45,46.89 22.25,45.99 23.04,45.1 23.84,44.23 24.64,43.37 25.45,42.52 26.26,41.69 27.07,40.87 27.88,40.06 28.7,39.28 29.52,38.51 30.34,37.77 30.34,37.77 29.78,38.34 29.22,38.94 28.66,39.54 28.09,40.16 27.53,40.8 26.97,41.44 26.41,42.09 25.84,42.76 25.28,43.43 24.72,44.11 24.16,44.8 23.6,45.5 23.03,46.2 22.47,46.91 21.91,47.63 21.35,48.34 20.78,49.06 20.22,49.79 19.66,50.51 19.1,51.23 18.53,51.96 17.97,52.68 17.41,53.41 16.85,54.13 16.29,54.84 15.72,55.56 15.16,56.26 14.6,56.97 14.04,57.66 13.47,58.35 12.91,59.04 12.35,59.71 11.79,60.37 11.22,61.03 10.66,61.67 10.1,62.3 9.54,62.92 8.97,63.53 8.41,64.12 7.85,64.7 7.29,65.26 6.73,65.81 6.16,66.34 5.6,66.85 5.04,67.34 4.48,67.81 3.91,68.27 3.35,68.7 2.79,69.11 2.23,69.5 1.66,69.86 1.1,70.2 0.54,70.52 -0.02,70.81 -0.58,71.07 -1.15,71.31 -1.71,71.52 -2.27,71.7 -2.83,71.85 -3.4,71.97 -3.96,72.06 -4.52,72.12 -5.08,72.15 -5.65,72.14 -6.21,72.1 -6.77,72.02 -7.33,71.91 -7.9,71.76 -8.46,71.58 -9.02,71.36 -9.58,71.1 -10.14,70.79 -10.71,70.45 -11.27,70.07 -11.83,69.65 -12.39,69.18 -12.96,68.67 -13.52,68.12 -14.08,67.52 -14.64,66.87 -15.21,66.18 -15.77,65.44 -16.33,64.66 -16.89,63.82 -17.45,62.94 -18.02,62.01 -18.58,61.02 -19.14,59.98 -19.7,58.89 -20.27,57.75 -20.83,56.55 -21.39,55.3 -21.95,53.99 -22.52,52.63 -23.08,51.21 -23.64,49.73 -24.2,48.19 -24.77,46.59 -25.33,44.93" fill="rgb(215,127,140)" stroke="black" stroke-width="3" stroke-linejoin="round" filter="url(#fuzzy)" />
    </g>
  </svg>
  