
  <svg viewBox="-100 -100 200 200" xmlns="http://www.w3.org/2000/svg" width="500" height="500" id="face-svg">
    <defs>
      <clipPath id="leftEyeClipPath">
        <polyline points="33.76,-8.48 33.4,-8.66 33.01,-8.82 32.58,-8.98 32.11,-9.12 31.61,-9.26 31.07,-9.39 30.5,-9.51 29.9,-9.62 29.27,-9.73 28.61,-9.83 27.93,-9.92 27.22,-10.01 26.49,-10.08 25.74,-10.16 24.96,-10.23 24.09,-10.29 23.19,-10.35 22.26,-10.41 21.31,-10.46 20.34,-10.51 19.34,-10.55 18.33,-10.59 17.3,-10.63 16.25,-10.66 15.19,-10.69 14.13,-10.71 13.05,-10.73 11.97,-10.75 10.88,-10.76 9.79,-10.77 8.7,-10.78 7.62,-10.79 6.53,-10.79 5.46,-10.79 4.38,-10.79 3.32,-10.79 2.27,-10.78 1.23,-10.77 0.2,-10.76 -0.81,-10.75 -1.8,-10.73 -2.78,-10.71 -3.74,-10.69 -4.68,-10.66 -5.6,-10.64 -6.5,-10.61 -7.37,-10.57 -8.22,-10.54 -9.05,-10.5 -9.85,-10.46 -10.63,-10.42 -11.39,-10.37 -12.12,-10.32 -12.82,-10.27 -13.5,-10.21 -14.15,-10.15 -14.78,-10.09 -15.38,-10.02 -15.96,-9.95 -16.51,-9.88 -17.04,-9.8 -17.55,-9.72 -18.03,-9.64 -18.49,-9.55 -18.93,-9.46 -19.35,-9.37 -19.75,-9.27 -20.13,-9.17 -20.5,-9.06 -20.84,-8.95 -21.16,-8.84 -21.46,-8.72 -21.75,-8.6 -22.01,-8.47 -22.26,-8.34 -22.49,-8.2 -22.71,-8.06 -22.91,-7.92 -23.09,-7.77 -20.6,-2.88 -20.29,-2.51 -19.96,-2.13 -19.62,-1.75 -19.27,-1.36 -18.9,-0.96 -18.52,-0.57 -18.13,-0.16 -17.73,0.24 -17.31,0.65 -16.89,1.06 -16.45,1.47 -16,1.88 -15.54,2.3 -15.06,2.71 -14.58,3.12 -14.08,3.54 -13.57,3.96 -13.04,4.38 -12.5,4.79 -11.94,5.21 -11.38,5.62 -10.8,6.02 -10.21,6.42 -9.6,6.81 -8.99,7.19 -8.36,7.56 -7.72,7.92 -7.07,8.26 -6.41,8.59 -5.74,8.9 -5.05,9.2 -4.36,9.47 -3.65,9.72 -2.94,9.96 -2.21,10.16 -1.47,10.35 -0.72,10.51 0.04,10.64 0.81,10.75 1.59,10.82 2.38,10.87 3.18,10.89 3.99,10.88 4.81,10.83 5.64,10.76 6.49,10.65 7.34,10.51 8.2,10.34 9.07,10.14 9.95,9.9 10.84,9.63 11.74,9.34 12.65,9.01 13.57,8.65 14.49,8.26 15.42,7.84 16.36,7.39 17.3,6.92 18.24,6.42 19.19,5.9 20.14,5.36 21.1,4.8 22.05,4.21 23,3.62 23.75,3.19 24.49,2.75 25.23,2.3 25.95,1.84 26.66,1.38 27.36,0.92 28.04,0.45 28.71,-0.02 29.36,-0.49 29.98,-0.96 30.59,-1.42 31.16,-1.88 31.71,-2.34 32.23,-2.78 32.72,-3.22" />
      </clipPath>
      <clipPath id="rightEyeClipPath">
        <polyline points="-36.34,-10.2 -35.88,-10.37 -35.37,-10.54 -34.82,-10.7 -34.23,-10.84 -33.6,-10.98 -32.94,-11.11 -32.24,-11.23 -31.51,-11.35 -30.76,-11.45 -29.98,-11.55 -29.18,-11.64 -28.35,-11.73 -27.51,-11.81 -26.65,-11.88 -25.77,-11.95 -24.7,-12.02 -23.62,-12.08 -22.52,-12.14 -21.41,-12.19 -20.3,-12.24 -19.17,-12.28 -18.05,-12.32 -16.92,-12.36 -15.79,-12.39 -14.67,-12.42 -13.55,-12.44 -12.44,-12.46 -11.33,-12.48 -10.24,-12.49 -9.16,-12.5 -8.09,-12.5 -7.03,-12.51 -5.99,-12.51 -4.97,-12.5 -3.97,-12.49 -2.98,-12.48 -2.02,-12.47 -1.08,-12.45 -0.16,-12.42 0.74,-12.4 1.61,-12.36 2.46,-12.33 3.29,-12.29 4.09,-12.25 4.87,-12.2 5.62,-12.14 6.34,-12.09 7.04,-12.02 7.72,-11.96 8.36,-11.88 8.99,-11.8 9.58,-11.72 10.16,-11.63 10.7,-11.53 11.23,-11.43 11.73,-11.32 12.2,-11.21 12.65,-11.09 13.08,-10.96 13.49,-10.83 13.88,-10.69 14.24,-10.54 14.59,-10.39 14.91,-10.23 15.22,-10.06 15.51,-9.89 15.79,-9.71 16.04,-9.52 16.28,-9.32 16.51,-9.12 16.71,-8.91 16.9,-8.69 17.08,-8.46 17.24,-8.23 17.38,-7.98 17.51,-7.73 17.63,-7.47 17.73,-7.21 17.82,-6.93 17.45,-2.47 17.17,-2.01 16.89,-1.55 16.6,-1.08 16.3,-0.61 16,-0.13 15.68,0.35 15.35,0.83 15.02,1.31 14.68,1.8 14.33,2.28 13.97,2.77 13.6,3.25 13.22,3.73 12.83,4.21 12.44,4.69 12.03,5.17 11.61,5.64 11.18,6.12 10.74,6.59 10.29,7.05 9.83,7.5 9.36,7.95 8.87,8.38 8.37,8.8 7.86,9.2 7.34,9.59 6.8,9.96 6.26,10.3 5.69,10.63 5.12,10.93 4.53,11.21 3.93,11.46 3.31,11.69 2.67,11.88 2.02,12.05 1.36,12.18 0.68,12.29 -0.02,12.36 -0.74,12.4 -1.47,12.4 -2.23,12.37 -3,12.3 -3.79,12.2 -4.6,12.07 -5.42,11.9 -6.27,11.69 -7.14,11.45 -8.03,11.17 -8.93,10.87 -9.86,10.52 -10.8,10.15 -11.77,9.75 -12.75,9.31 -13.75,8.85 -14.77,8.36 -15.81,7.84 -16.86,7.3 -17.92,6.73 -19,6.15 -20.09,5.55 -21.19,4.93 -22.29,4.3 -23.41,3.65 -24.52,3 -25.37,2.49 -26.22,1.98 -27.06,1.47 -27.89,0.95 -28.7,0.43 -29.51,-0.1 -30.29,-0.62 -31.06,-1.14 -31.8,-1.66 -32.52,-2.17 -33.21,-2.68 -33.87,-3.18 -34.5,-3.67 -35.1,-4.15 -35.65,-4.61" />
      </clipPath>
      <filter id="fuzzy">
        <feTurbulence id="turbulence" baseFrequency="0.05" numOctaves="3" type="noise" result="noise" />
        <feDisplacementMap in="SourceGraphic" in2="noise" scale="2" />
      </filter>
      <linearGradient id="rainbowGradient" x1="0%" y1="0%" x2="100%" y2="0%">
        <stop offset="0%" style="stop-color: rgb(233, 236, 239); stop-opacity: 1" />
        <stop offset="50%" style="stop-color: rgb(0, 191, 255); stop-opacity: 1" />
        <stop offset="100%" style="stop-color: rgb(135, 206, 235); stop-opacity: 1" />
      </linearGradient>
    </defs>
    <rect x="-100" y="-100" width="100%" height="100%" fill="rgb(250, 250, 210)" />
    <polyline id="faceContour" points="76.96,1.48 76.95,-0.36 76.94,2.95 77,3 76.91,6.77 76.76,6.27 76.53,8.03 76.53,11.11 76.72,8.98 76.12,13.64 76.35,12.93 76.01,14.65 75.54,18.81 75.04,20.22 75.54,19.04 75.25,19.5 74.78,20.76 74.2,23.73 74.51,22.76 73.03,28.39 73.98,25.79 73.35,28.76 72.49,31.48 72.08,32.43 71.9,33.44 71.26,34.76 70.63,37.01 70.61,36.42 70.31,37.11 68.67,40.93 69.14,40.46 68.04,42.54 67.56,43.56 66.51,45.58 67,45.15 65.49,48.15 64.29,49.82 64.11,49.97 63.38,52.01 63.3,51.78 62.49,53.35 61.61,54.91 60.39,56.63 60.04,57.2 59.48,58.27 58.66,59.53 57.94,59.62 56.02,62.17 56.73,61.52 54.44,63.87 55.38,63.63 54.05,65.31 52.03,66.97 51.25,67.9 50.51,68.44 50.54,68.88 49.9,69.67 49.39,69.73 48.32,70.85 46.81,72.62 45.69,73.68 43.78,75.07 44.27,74.89 41.98,76.26 40.67,77.43 39.87,77.95 38.77,78.56 37.61,79.39 37.82,79.36 35.52,80.67 34.9,80.83 34.94,81.25 32.62,82.65 32.41,82.61 28.88,84.43 28.17,84.82 29.14,84.38 27.92,84.99 27.17,85.28 24.49,86.28 22.95,86.66 21.45,87.29 20.66,87.87 20.22,87.81 19.6,88.02 18.38,88.5 17.45,88.6 16.01,89.12 13.63,89.83 12.02,90.09 13.23,89.89 10.54,90.07 10.35,90.13 7.91,90.69 6.79,90.53 6.13,90.84 3.92,91.07 5.1,90.86 2.26,91.01 1.09,91.02 -1.15,91.21 -1.87,91.1 -3.87,90.83 -4.41,90.96 -3.92,90.96 -5.12,91 -8.26,90.7 -8.78,90.3 -10.28,90.33 -9.54,90.61 -12.86,89.9 -12.02,89.96 -14.43,89.48 -13.84,89.86 -16.33,89.25 -15.6,89.18 -19.53,87.97 -19.49,88.15 -21.48,87.36 -21.84,87.13 -24.18,86.82 -23.85,86.59 -25.87,85.55 -27.36,85.26 -28.03,84.79 -29.73,84.35 -30.06,83.83 -30.89,83.58 -32.85,82.23 -33.53,81.92 -35.36,80.64 -34.87,81.13 -36.92,79.79 -37.8,79.7 -38.46,79.12 -38.49,78.86 -41.45,76.78 -42.21,76.33 -44.37,74.24 -44.93,74.17 -43.81,74.82 -46.44,72.74 -47.42,71.52 -48.57,70.96 -48.61,70.61 -50.41,69.27 -49.87,69.4 -52.34,66.65 -53.7,65.5 -53.14,65.78 -53.59,65.18 -55.22,63.68 -56.64,61.55 -57.75,60.51 -57.88,60.29 -58.16,59.8 -60.09,56.7 -60.24,56.55 -60.19,56.66 -62.26,53.59 -61.93,53.79 -63.18,51.83 -63.1,52.14 -64.23,49.97 -64.95,48.68 -65.41,47.87 -67.02,45 -67.79,43.64 -67.23,44.56 -68.13,42.29 -69.26,40.54 -69.63,38.82 -70.34,37.91 -70.64,36.47 -71.31,34.74 -70.72,35.89 -71.9,32.83 -72.17,32.85 -72.36,31.01 -73.26,27.78 -73.15,28.21 -73.39,27.06 -74.34,25.04 -74.21,23.88 -74.69,22.28 -74.8,21.77 -75.73,17.05 -75.36,20.06 -75.81,16.6 -75.65,15.72 -76.11,13.92 -75.75,15.31 -76.45,12.96 -76.66,9.97 -76.74,8.88 -77.1,5.58 -76.72,7.24 -76.73,4.51 -76.79,2.86 -77.07,2.23 -76.86,-0.82 -76.78,-1.62 -77.17,-2.62 -76.94,-3.34 -76.64,-7.16 -76.9,-5.33 -76.73,-9.05 -76.72,-10.08 -76.42,-11.27 -76.53,-11.67 -76.21,-14.05 -75.55,-15.62 -75.89,-14.58 -75.53,-17.77 -75.51,-19.16 -74.58,-21.44 -74.78,-21.39 -74.46,-22.17 -74.57,-23.76 -73.61,-26.3 -73.43,-27.32 -72.65,-29.5 -71.89,-32 -72.22,-31.62 -71.22,-33.85 -70.95,-34.99 -70.15,-36.81 -70.37,-37.68 -69.25,-39.31 -69.16,-39.39 -68.24,-41.91 -67.5,-43.67 -66.67,-45.53 -66.36,-45.97 -66.2,-47.12 -65.23,-47.55 -64.56,-49.56 -63.85,-51.27 -64.64,-49.6 -63.49,-51.67 -62.14,-53.51 -62.14,-53.55 -61.98,-54.35 -59.62,-57.42 -59.72,-57.69 -58.82,-58.71 -57.5,-60.48 -56.73,-61.26 -57.25,-61.05 -53.95,-65.09 -53.37,-65.88 -53.94,-64.72 -54.13,-64.99 -52.37,-66.78 -51.94,-67.46 -49.82,-69.25 -48.9,-69.97 -47.98,-70.81 -47.48,-71.42 -45.82,-73.14 -44.07,-74.55 -44.62,-74.25 -42.94,-75.22 -42.7,-75.54 -41.15,-76.66 -40.96,-77.13 -39.61,-78.24 -38.03,-78.87 -36.96,-79.98 -35.21,-80.94 -34.65,-81.06 -34.93,-81.34 -31.95,-82.8 -30.36,-83.66 -30.68,-83.22 -29.33,-84.17 -28.54,-84.46 -26,-85.46 -26.18,-85.77 -26.88,-85.17 -23.91,-86.35 -21.88,-87.19 -22.35,-86.93 -20.63,-87.54 -19.99,-87.56 -16.4,-88.8 -16.41,-88.92 -16.58,-89.07 -14.4,-89.22 -12.55,-89.73 -11.67,-89.84 -10.49,-90.08 -9.83,-90.26 -8.82,-90.32 -8.34,-90.65 -3.94,-90.83 -4.77,-91.02 -2.38,-91.1 -3.41,-91.09 -0.6,-90.76 1.22,-90.89 1.42,-90.92 2.69,-91.07 1.11,-90.97 4.68,-90.94 4.51,-91.03 6.32,-90.5 8.86,-90.64 10.56,-90.17 12.77,-89.79 11.72,-89.85 12.05,-90.03 14.39,-89.37 15.7,-89.12 17.09,-88.84 17.34,-88.9 17.27,-88.68 19.01,-88.13 20.56,-87.55 22.6,-86.9 23.33,-86.46 25.93,-85.88 24.82,-86.12 26.53,-85.61 28.66,-84.2 30.03,-83.7 30.58,-83.59 32.62,-82.57 34.01,-81.61 34.02,-81.41 36.15,-80.24 36.74,-79.82 37.27,-79.63 38.37,-78.59 38.66,-78.99 38.64,-78.92 39.62,-77.79 42.08,-76.48 43.21,-75.28 44.24,-73.98 45.44,-73.72 45.14,-73.46 45.63,-73.4 46.98,-72.33 49.53,-70.04 49.74,-69.61 50.95,-68.3 53.04,-66.04 52.21,-66.38 54.49,-63.83 53.56,-65.46 55.94,-62.18 56.28,-62.48 56.81,-61.76 57.57,-60.77 59.13,-58.43 57.94,-59.9 60.17,-56.7 60.82,-55.93 61.95,-54.41 61.74,-54.17 62.47,-52.98 63.2,-51.82 64.86,-49.01 65.28,-48.42 65.83,-47.62 66.1,-46.53 67.32,-44 67.38,-43.39 67.11,-44.51 68.56,-40.73 69.41,-38.99 69.89,-38.45 69.94,-38.23 70.44,-36.83 71.13,-34.89 71.03,-34.93 71.72,-31.95 72.64,-30.49 72.83,-30.02 73.26,-27.42 74,-26.27 74.55,-22.91 74.54,-22.44 74.14,-24.68 75.12,-21 75.35,-19.45 75.35,-18.54 75.75,-16.34 75.34,-17.48 76.07,-13.86 76.18,-13.52 76.73,-9.91 76.29,-10.57 76.33,-9.89 76.7,-7.54 76.77,-5.46 76.86,-5.08 77.18,-2.33 76.99,-3.15 76.96,1.48 76.95,-0.36" fill="rgb(255, 192, 203)" stroke="black" stroke-width="1.6666666666666665" stroke-linejoin="round" filter="url(#fuzzy)" />
    <g transform="translate(48.230000000000004 -27.450000000000003)">
      <polyline id="rightCountour" points="-36.34,-10.2 -35.88,-10.37 -35.37,-10.54 -34.82,-10.7 -34.23,-10.84 -33.6,-10.98 -32.94,-11.11 -32.24,-11.23 -31.51,-11.35 -30.76,-11.45 -29.98,-11.55 -29.18,-11.64 -28.35,-11.73 -27.51,-11.81 -26.65,-11.88 -25.77,-11.95 -24.7,-12.02 -23.62,-12.08 -22.52,-12.14 -21.41,-12.19 -20.3,-12.24 -19.17,-12.28 -18.05,-12.32 -16.92,-12.36 -15.79,-12.39 -14.67,-12.42 -13.55,-12.44 -12.44,-12.46 -11.33,-12.48 -10.24,-12.49 -9.16,-12.5 -8.09,-12.5 -7.03,-12.51 -5.99,-12.51 -4.97,-12.5 -3.97,-12.49 -2.98,-12.48 -2.02,-12.47 -1.08,-12.45 -0.16,-12.42 0.74,-12.4 1.61,-12.36 2.46,-12.33 3.29,-12.29 4.09,-12.25 4.87,-12.2 5.62,-12.14 6.34,-12.09 7.04,-12.02 7.72,-11.96 8.36,-11.88 8.99,-11.8 9.58,-11.72 10.16,-11.63 10.7,-11.53 11.23,-11.43 11.73,-11.32 12.2,-11.21 12.65,-11.09 13.08,-10.96 13.49,-10.83 13.88,-10.69 14.24,-10.54 14.59,-10.39 14.91,-10.23 15.22,-10.06 15.51,-9.89 15.79,-9.71 16.04,-9.52 16.28,-9.32 16.51,-9.12 16.71,-8.91 16.9,-8.69 17.08,-8.46 17.24,-8.23 17.38,-7.98 17.51,-7.73 17.63,-7.47 17.73,-7.21 17.82,-6.93 17.45,-2.47 17.17,-2.01 16.89,-1.55 16.6,-1.08 16.3,-0.61 16,-0.13 15.68,0.35 15.35,0.83 15.02,1.31 14.68,1.8 14.33,2.28 13.97,2.77 13.6,3.25 13.22,3.73 12.83,4.21 12.44,4.69 12.03,5.17 11.61,5.64 11.18,6.12 10.74,6.59 10.29,7.05 9.83,7.5 9.36,7.95 8.87,8.38 8.37,8.8 7.86,9.2 7.34,9.59 6.8,9.96 6.26,10.3 5.69,10.63 5.12,10.93 4.53,11.21 3.93,11.46 3.31,11.69 2.67,11.88 2.02,12.05 1.36,12.18 0.68,12.29 -0.02,12.36 -0.74,12.4 -1.47,12.4 -2.23,12.37 -3,12.3 -3.79,12.2 -4.6,12.07 -5.42,11.9 -6.27,11.69 -7.14,11.45 -8.03,11.17 -8.93,10.87 -9.86,10.52 -10.8,10.15 -11.77,9.75 -12.75,9.31 -13.75,8.85 -14.77,8.36 -15.81,7.84 -16.86,7.3 -17.92,6.73 -19,6.15 -20.09,5.55 -21.19,4.93 -22.29,4.3 -23.41,3.65 -24.52,3 -25.37,2.49 -26.22,1.98 -27.06,1.47 -27.89,0.95 -28.7,0.43 -29.51,-0.1 -30.29,-0.62 -31.06,-1.14 -31.8,-1.66 -32.52,-2.17 -33.21,-2.68 -33.87,-3.18 -34.5,-3.67 -35.1,-4.15 -35.65,-4.61" fill="white" stroke="white" stroke-width="0" stroke-linejoin="round" filter="url(#fuzzy)" />
    </g>
    <g transform="translate(-44.330000000000005 -27.55)">
      <polyline id="leftCountour" points="33.76,-8.48 33.4,-8.66 33.01,-8.82 32.58,-8.98 32.11,-9.12 31.61,-9.26 31.07,-9.39 30.5,-9.51 29.9,-9.62 29.27,-9.73 28.61,-9.83 27.93,-9.92 27.22,-10.01 26.49,-10.08 25.74,-10.16 24.96,-10.23 24.09,-10.29 23.19,-10.35 22.26,-10.41 21.31,-10.46 20.34,-10.51 19.34,-10.55 18.33,-10.59 17.3,-10.63 16.25,-10.66 15.19,-10.69 14.13,-10.71 13.05,-10.73 11.97,-10.75 10.88,-10.76 9.79,-10.77 8.7,-10.78 7.62,-10.79 6.53,-10.79 5.46,-10.79 4.38,-10.79 3.32,-10.79 2.27,-10.78 1.23,-10.77 0.2,-10.76 -0.81,-10.75 -1.8,-10.73 -2.78,-10.71 -3.74,-10.69 -4.68,-10.66 -5.6,-10.64 -6.5,-10.61 -7.37,-10.57 -8.22,-10.54 -9.05,-10.5 -9.85,-10.46 -10.63,-10.42 -11.39,-10.37 -12.12,-10.32 -12.82,-10.27 -13.5,-10.21 -14.15,-10.15 -14.78,-10.09 -15.38,-10.02 -15.96,-9.95 -16.51,-9.88 -17.04,-9.8 -17.55,-9.72 -18.03,-9.64 -18.49,-9.55 -18.93,-9.46 -19.35,-9.37 -19.75,-9.27 -20.13,-9.17 -20.5,-9.06 -20.84,-8.95 -21.16,-8.84 -21.46,-8.72 -21.75,-8.6 -22.01,-8.47 -22.26,-8.34 -22.49,-8.2 -22.71,-8.06 -22.91,-7.92 -23.09,-7.77 -20.6,-2.88 -20.29,-2.51 -19.96,-2.13 -19.62,-1.75 -19.27,-1.36 -18.9,-0.96 -18.52,-0.57 -18.13,-0.16 -17.73,0.24 -17.31,0.65 -16.89,1.06 -16.45,1.47 -16,1.88 -15.54,2.3 -15.06,2.71 -14.58,3.12 -14.08,3.54 -13.57,3.96 -13.04,4.38 -12.5,4.79 -11.94,5.21 -11.38,5.62 -10.8,6.02 -10.21,6.42 -9.6,6.81 -8.99,7.19 -8.36,7.56 -7.72,7.92 -7.07,8.26 -6.41,8.59 -5.74,8.9 -5.05,9.2 -4.36,9.47 -3.65,9.72 -2.94,9.96 -2.21,10.16 -1.47,10.35 -0.72,10.51 0.04,10.64 0.81,10.75 1.59,10.82 2.38,10.87 3.18,10.89 3.99,10.88 4.81,10.83 5.64,10.76 6.49,10.65 7.34,10.51 8.2,10.34 9.07,10.14 9.95,9.9 10.84,9.63 11.74,9.34 12.65,9.01 13.57,8.65 14.49,8.26 15.42,7.84 16.36,7.39 17.3,6.92 18.24,6.42 19.19,5.9 20.14,5.36 21.1,4.8 22.05,4.21 23,3.62 23.75,3.19 24.49,2.75 25.23,2.3 25.95,1.84 26.66,1.38 27.36,0.92 28.04,0.45 28.71,-0.02 29.36,-0.49 29.98,-0.96 30.59,-1.42 31.16,-1.88 31.71,-2.34 32.23,-2.78 32.72,-3.22" fill="white" stroke="white" stroke-width="0" stroke-linejoin="round" filter="url(#fuzzy)" />
    </g>
    <g transform="translate(48.230000000000004 -27.450000000000003)">
      <polyline id="rightUpper" points="-37.73,-7.78 -37.91,-8.08 -38,-8.37 -38.02,-8.64 -37.97,-8.9 -37.85,-9.15 -37.66,-9.38 -37.41,-9.6 -37.11,-9.81 -36.75,-10.01 -36.34,-10.2 -35.88,-10.37 -35.37,-10.54 -34.82,-10.7 -34.23,-10.84 -33.6,-10.98 -32.94,-11.11 -32.24,-11.23 -31.51,-11.35 -30.76,-11.45 -29.98,-11.55 -29.18,-11.64 -28.35,-11.73 -27.51,-11.81 -26.65,-11.88 -25.77,-11.95 -24.7,-12.02 -23.62,-12.08 -22.52,-12.14 -21.41,-12.19 -20.3,-12.24 -19.17,-12.28 -18.05,-12.32 -16.92,-12.36 -15.79,-12.39 -14.67,-12.42 -13.55,-12.44 -12.44,-12.46 -11.33,-12.48 -10.24,-12.49 -9.16,-12.5 -8.09,-12.5 -7.03,-12.51 -5.99,-12.51 -4.97,-12.5 -3.97,-12.49 -2.98,-12.48 -2.02,-12.47 -1.08,-12.45 -0.16,-12.42 0.74,-12.4 1.61,-12.36 2.46,-12.33 3.29,-12.29 4.09,-12.25 4.87,-12.2 5.62,-12.14 6.34,-12.09 7.04,-12.02 7.72,-11.96 8.36,-11.88 8.99,-11.8 9.58,-11.72 10.16,-11.63 10.7,-11.53 11.23,-11.43 11.73,-11.32 12.2,-11.21 12.65,-11.09 13.08,-10.96 13.49,-10.83 13.88,-10.69 14.24,-10.54 14.59,-10.39 14.91,-10.23 15.22,-10.06 15.51,-9.89 15.79,-9.71 16.04,-9.52 16.28,-9.32 16.51,-9.12 16.71,-8.91 16.9,-8.69 17.08,-8.46 17.24,-8.23 17.38,-7.98 17.51,-7.73 17.63,-7.47 17.73,-7.21 17.82,-6.93 17.89,-6.65 17.95,-6.36 18,-6.06 18.03,-5.75 18.05,-5.44 18.06,-5.12 18.06,-4.79 18.05,-4.45 18.02,-4.11 17.99,-3.76" fill="none" stroke="black" stroke-width="1.6666666666666665" stroke-linejoin="round" filter="url(#fuzzy)" />
      <polyline id="rightLower" points="-38.14,-8.12 -38.2,-7.9 -38.19,-7.64 -38.09,-7.35 -37.92,-7.03 -37.69,-6.68 -37.39,-6.31 -37.03,-5.91 -36.62,-5.5 -36.16,-5.07 -35.65,-4.61 -35.1,-4.15 -34.5,-3.67 -33.87,-3.18 -33.21,-2.68 -32.52,-2.17 -31.8,-1.66 -31.06,-1.14 -30.29,-0.62 -29.51,-0.1 -28.7,0.43 -27.89,0.95 -27.06,1.47 -26.22,1.98 -25.37,2.49 -24.52,3 -23.41,3.65 -22.29,4.3 -21.19,4.93 -20.09,5.55 -19,6.15 -17.92,6.73 -16.86,7.3 -15.81,7.84 -14.77,8.36 -13.75,8.85 -12.75,9.31 -11.77,9.75 -10.8,10.15 -9.86,10.52 -8.93,10.87 -8.03,11.17 -7.14,11.45 -6.27,11.69 -5.42,11.9 -4.6,12.07 -3.79,12.2 -3,12.3 -2.23,12.37 -1.47,12.4 -0.74,12.4 -0.02,12.36 0.68,12.29 1.36,12.18 2.02,12.05 2.67,11.88 3.31,11.69 3.93,11.46 4.53,11.21 5.12,10.93 5.69,10.63 6.26,10.3 6.8,9.96 7.34,9.59 7.86,9.2 8.37,8.8 8.87,8.38 9.36,7.95 9.83,7.5 10.29,7.05 10.74,6.59 11.18,6.12 11.61,5.64 12.03,5.17 12.44,4.69 12.83,4.21 13.22,3.73 13.6,3.25 13.97,2.77 14.33,2.28 14.68,1.8 15.02,1.31 15.35,0.83 15.68,0.35 16,-0.13 16.3,-0.61 16.6,-1.08 16.89,-1.55 17.17,-2.01 17.45,-2.47 17.71,-2.92 17.96,-3.37 18.21,-3.81 18.45,-4.24 18.67,-4.66 18.89,-5.08 19.1,-5.49 19.3,-5.89 19.5,-6.28 19.68,-6.67" fill="none" stroke="black" stroke-width="2.2222222222222223" stroke-linejoin="round" filter="url(#fuzzy)" />
      <circle r="3.932" cx="-4.0935941551526644" cy="-4.151889589322719" stroke="black" fill="none" stroke-width="1.0" filter="url(#fuzzy)" clip-path="url(#rightEyeClipPath)" /><circle r="4.3740000000000006" cx="-3.698594155152664" cy="-0.6518895893227192" stroke="black" fill="none" stroke-width="1.0" filter="url(#fuzzy)" clip-path="url(#rightEyeClipPath)" /><circle r="4.274" cx="-5.0485941551526645" cy="-0.8968895893227202" stroke="black" fill="none" stroke-width="1.0" filter="url(#fuzzy)" clip-path="url(#rightEyeClipPath)" /><circle r="3.62" cx="-3.4685941551526644" cy="-3.0968895893227195" stroke="black" fill="none" stroke-width="1.0" filter="url(#fuzzy)" clip-path="url(#rightEyeClipPath)" /><circle r="4.574" cx="-4.793594155152665" cy="-4.4718895893227195" stroke="black" fill="none" stroke-width="1.0" filter="url(#fuzzy)" clip-path="url(#rightEyeClipPath)" /><circle r="4.548" cx="-3.568594155152665" cy="-1.7018895893227195" stroke="black" fill="none" stroke-width="1.0" filter="url(#fuzzy)" clip-path="url(#rightEyeClipPath)" /><circle r="3.076" cx="-7.7185941551526644" cy="-1.7718895893227193" stroke="black" fill="none" stroke-width="1.0" filter="url(#fuzzy)" clip-path="url(#rightEyeClipPath)" /><circle r="4.688" cx="-6.393594155152664" cy="-2.0868895893227197" stroke="black" fill="none" stroke-width="1.0" filter="url(#fuzzy)" clip-path="url(#rightEyeClipPath)" /><circle r="3.122" cx="-4.288594155152665" cy="-2.8718895893227194" stroke="black" fill="none" stroke-width="1.0" filter="url(#fuzzy)" clip-path="url(#rightEyeClipPath)" /><circle r="3.992" cx="-3.5035941551526646" cy="-1.1518895893227192" stroke="black" fill="none" stroke-width="1.0" filter="url(#fuzzy)" clip-path="url(#rightEyeClipPath)" />
      </g>
    <g transform="translate(-44.330000000000005 -27.55)">
      <polyline id="leftUpper" points="34.67,-6.05 34.82,-6.36 34.91,-6.65 34.94,-6.92 34.92,-7.18 34.85,-7.43 34.73,-7.67 34.55,-7.89 34.33,-8.1 34.07,-8.29 33.76,-8.48 33.4,-8.66 33.01,-8.82 32.58,-8.98 32.11,-9.12 31.61,-9.26 31.07,-9.39 30.5,-9.51 29.9,-9.62 29.27,-9.73 28.61,-9.83 27.93,-9.92 27.22,-10.01 26.49,-10.08 25.74,-10.16 24.96,-10.23 24.09,-10.29 23.19,-10.35 22.26,-10.41 21.31,-10.46 20.34,-10.51 19.34,-10.55 18.33,-10.59 17.3,-10.63 16.25,-10.66 15.19,-10.69 14.13,-10.71 13.05,-10.73 11.97,-10.75 10.88,-10.76 9.79,-10.77 8.7,-10.78 7.62,-10.79 6.53,-10.79 5.46,-10.79 4.38,-10.79 3.32,-10.79 2.27,-10.78 1.23,-10.77 0.2,-10.76 -0.81,-10.75 -1.8,-10.73 -2.78,-10.71 -3.74,-10.69 -4.68,-10.66 -5.6,-10.64 -6.5,-10.61 -7.37,-10.57 -8.22,-10.54 -9.05,-10.5 -9.85,-10.46 -10.63,-10.42 -11.39,-10.37 -12.12,-10.32 -12.82,-10.27 -13.5,-10.21 -14.15,-10.15 -14.78,-10.09 -15.38,-10.02 -15.96,-9.95 -16.51,-9.88 -17.04,-9.8 -17.55,-9.72 -18.03,-9.64 -18.49,-9.55 -18.93,-9.46 -19.35,-9.37 -19.75,-9.27 -20.13,-9.17 -20.5,-9.06 -20.84,-8.95 -21.16,-8.84 -21.46,-8.72 -21.75,-8.6 -22.01,-8.47 -22.26,-8.34 -22.49,-8.2 -22.71,-8.06 -22.91,-7.92 -23.09,-7.77 -23.25,-7.62 -23.4,-7.47 -23.53,-7.31 -23.65,-7.14 -23.75,-6.97 -23.84,-6.8 -23.92,-6.63 -23.98,-6.45 -24.02,-6.26 -24.06,-6.08" fill="none" stroke="black" stroke-width="2.2222222222222223" stroke-linejoin="round" filter="url(#fuzzy)" />
      <polyline id="leftLower" points="35.22,-6.53 35.22,-6.32 35.15,-6.08 35.02,-5.8 34.83,-5.5 34.59,-5.17 34.3,-4.81 33.97,-4.44 33.59,-4.05 33.18,-3.64 32.72,-3.22 32.23,-2.78 31.71,-2.34 31.16,-1.88 30.59,-1.42 29.98,-0.96 29.36,-0.49 28.71,-0.02 28.04,0.45 27.36,0.92 26.66,1.38 25.95,1.84 25.23,2.3 24.49,2.75 23.75,3.19 23,3.62 22.05,4.21 21.1,4.8 20.14,5.36 19.19,5.9 18.24,6.42 17.3,6.92 16.36,7.39 15.42,7.84 14.49,8.26 13.57,8.65 12.65,9.01 11.74,9.34 10.84,9.63 9.95,9.9 9.07,10.14 8.2,10.34 7.34,10.51 6.49,10.65 5.64,10.76 4.81,10.83 3.99,10.88 3.18,10.89 2.38,10.87 1.59,10.82 0.81,10.75 0.04,10.64 -0.72,10.51 -1.47,10.35 -2.21,10.16 -2.94,9.96 -3.65,9.72 -4.36,9.47 -5.05,9.2 -5.74,8.9 -6.41,8.59 -7.07,8.26 -7.72,7.92 -8.36,7.56 -8.99,7.19 -9.6,6.81 -10.21,6.42 -10.8,6.02 -11.38,5.62 -11.94,5.21 -12.5,4.79 -13.04,4.38 -13.57,3.96 -14.08,3.54 -14.58,3.12 -15.06,2.71 -15.54,2.3 -16,1.88 -16.45,1.47 -16.89,1.06 -17.31,0.65 -17.73,0.24 -18.13,-0.16 -18.52,-0.57 -18.9,-0.96 -19.27,-1.36 -19.62,-1.75 -19.96,-2.13 -20.29,-2.51 -20.6,-2.88 -20.9,-3.25 -21.19,-3.61 -21.47,-3.96 -21.73,-4.31 -21.98,-4.65 -22.22,-4.99 -22.44,-5.31 -22.65,-5.63 -22.85,-5.95 -23.04,-6.25" fill="none" stroke="black" stroke-width="2.2222222222222223" stroke-linejoin="round" filter="url(#fuzzy)" />
      <circle r="4.616" cx="-14.424181139423744" cy="-3.9845158235879232" stroke="black" fill="none" stroke-width="1.0" filter="url(#fuzzy)" clip-path="url(#leftEyeClipPath)" /><circle r="3.768" cx="-12.629181139423743" cy="-4.494515823587923" stroke="black" fill="none" stroke-width="1.0" filter="url(#fuzzy)" clip-path="url(#leftEyeClipPath)" /><circle r="3.992" cx="-14.964181139423744" cy="-7.749515823587923" stroke="black" fill="none" stroke-width="1.0" filter="url(#fuzzy)" clip-path="url(#leftEyeClipPath)" /><circle r="3.17" cx="-12.849181139423743" cy="-4.929515823587923" stroke="black" fill="none" stroke-width="1.0" filter="url(#fuzzy)" clip-path="url(#leftEyeClipPath)" /><circle r="4.838" cx="-15.154181139423743" cy="-5.629515823587923" stroke="black" fill="none" stroke-width="1.0" filter="url(#fuzzy)" clip-path="url(#leftEyeClipPath)" /><circle r="3.988" cx="-14.579181139423744" cy="-8.004515823587923" stroke="black" fill="none" stroke-width="1.0" filter="url(#fuzzy)" clip-path="url(#leftEyeClipPath)" /><circle r="3.808" cx="-15.494181139423743" cy="-5.499515823587922" stroke="black" fill="none" stroke-width="1.0" filter="url(#fuzzy)" clip-path="url(#leftEyeClipPath)" /><circle r="3.378" cx="-12.444181139423744" cy="-3.9395158235879224" stroke="black" fill="none" stroke-width="1.0" filter="url(#fuzzy)" clip-path="url(#leftEyeClipPath)" /><circle r="4.5" cx="-15.399181139423744" cy="-3.3545158235879233" stroke="black" fill="none" stroke-width="1.0" filter="url(#fuzzy)" clip-path="url(#leftEyeClipPath)" /><circle r="3.658" cx="-15.694181139423744" cy="-3.9695158235879227" stroke="black" fill="none" stroke-width="1.0" filter="url(#fuzzy)" clip-path="url(#leftEyeClipPath)" />
    </g>
    <g id="hairs">
      <polyline points="10.56,-90.17 11.6,-89.92 11.75,-89.71 11.78,-89.39 11.7,-88.93 11.35,-88.35 10.56,-87.67 9.32,-86.85 7.63,-85.88 5.51,-84.72 2.96,-83.38 -0.1,-81.87 -3.76,-80.21 -8.04,-78.41 -12.97,-76.48 -18.49,-74.45 -24.58,-72.33 -31.34,-70.05 -39,-67.4 -47.7,-64.22" fill="none" stroke="rgb(0, 0, 0)" stroke-width="2" stroke-linejoin="round" filter="url(#fuzzy)" /><polyline points="-31.95,-82.8 -30.91,-83.3 -30.12,-83.66 -29.23,-84.09 -28.29,-84.54 -27.4,-84.95 -26.62,-85.29 -25.94,-85.56 -25.36,-85.75 -24.93,-85.87 -24.69,-85.87 -24.71,-85.75 -25.01,-85.49 -25.65,-85.07 -26.67,-84.45 -28.15,-83.61 -30.09,-82.52 -32.49,-81.17 -35.34,-79.59 -38.65,-77.75" fill="none" stroke="rgb(0, 0, 0)" stroke-width="2" stroke-linejoin="round" filter="url(#fuzzy)" /><polyline points="4.68,-90.94 5.24,-90.87 6.67,-90.67 8.3,-90.46 9.74,-90.26 10.87,-90.09 11.69,-89.94 12.3,-89.8 12.73,-89.68 13,-89.57 13.07,-89.48 12.91,-89.39 12.53,-89.31 11.9,-89.25 11,-89.2 9.75,-89.2 8.09,-89.27 5.95,-89.42 3.27,-89.63 -0.09,-89.86 -4.26,-90.08" fill="none" stroke="rgb(0, 0, 0)" stroke-width="2" stroke-linejoin="round" filter="url(#fuzzy)" /><polyline points="4.51,-91.03 6.35,-90.68 7.99,-90.41 9.13,-90.13 9.71,-89.82 9.84,-89.48 9.68,-89.08 9.26,-88.61 8.56,-88.06 7.54,-87.42 6.17,-86.69 4.46,-85.85 2.42,-84.9 0.04,-83.85 -2.72,-82.71 -5.93,-81.47 -9.66,-80.12 -13.95,-78.65 -18.81,-77.02 -24.24,-75.25 -30.28,-73.33 -37.01,-71.27 -44.48,-69.03" fill="none" stroke="rgb(0, 0, 0)" stroke-width="2" stroke-linejoin="round" filter="url(#fuzzy)" /><polyline points="54.49,-63.83 54.15,-64.16 53.76,-63.7 52.62,-63.35 50.58,-63.22 47.61,-63.27 43.68,-63.5 38.76,-63.93 32.84,-64.56 25.87,-65.44 17.75,-66.6 8.4,-68.04 -2.23,-69.75 -14.11,-71.68 -27.17,-73.9" fill="none" stroke="rgb(0, 0, 0)" stroke-width="2" stroke-linejoin="round" filter="url(#fuzzy)" /><polyline points="-12.55,-89.73 -11.52,-89.8 -10.21,-89.77 -8.61,-89.62 -6.66,-89.36 -4.39,-89 -1.91,-88.52 0.68,-87.93 3.36,-87.23 6.11,-86.44 8.91,-85.57 11.75,-84.64 14.61,-83.66 17.49,-82.65 20.39,-81.61 23.34,-80.55 26.34,-79.48 29.35,-78.44 32.31,-77.47 35.11,-76.6 37.62,-75.87 39.78,-75.29 41.6,-74.83 43.26,-74.36" fill="none" stroke="rgb(0, 0, 0)" stroke-width="2" stroke-linejoin="round" filter="url(#fuzzy)" /><polyline points="46.98,-72.33 48.56,-70.78 49.23,-69.84 49.37,-69.19 49,-68.84 48.06,-68.87 46.54,-69.3 44.37,-70.11 41.5,-71.3 37.89,-72.86 33.51,-74.82 28.38,-77.16 22.55,-79.92 16.08,-83.12 8.98,-86.76" fill="none" stroke="rgb(0, 0, 0)" stroke-width="2" stroke-linejoin="round" filter="url(#fuzzy)" /><polyline points="61.95,-54.41 61.94,-53.95 62.1,-53.23 62.17,-52.48 61.94,-51.95 61.31,-51.76 60.22,-51.93 58.67,-52.47 56.64,-53.37 54.09,-54.64 51.02,-56.28 47.41,-58.3 43.26,-60.73 38.58,-63.61 33.38,-66.97 27.66,-70.79 21.38,-75.06 14.35,-79.8 6.24,-85.08" fill="none" stroke="rgb(0, 0, 0)" stroke-width="2" stroke-linejoin="round" filter="url(#fuzzy)" /><polyline points="25.93,-85.88 25.79,-85.82 26.65,-85.35 27.72,-84.78 28.68,-84.26 29.39,-83.81 29.81,-83.43 29.89,-83.14 29.6,-82.95 28.93,-82.89 27.89,-82.97 26.46,-83.19 24.65,-83.55 22.43,-84.02 19.8,-84.6 16.73,-85.26 13.23,-86.01 9.26,-86.89 4.7,-87.95 -0.78,-89.2" fill="none" stroke="rgb(0, 0, 0)" stroke-width="2" stroke-linejoin="round" filter="url(#fuzzy)" /><polyline points="60.17,-56.7 60.69,-55.87 60.81,-55.1 60.54,-54.42 59.98,-53.76 59.1,-53.14 57.83,-52.63 56.12,-52.29 53.91,-52.15 51.19,-52.23 47.95,-52.5 44.19,-52.95 39.92,-53.58 35.13,-54.38 29.79,-55.36 23.87,-56.55 17.34,-57.94 10.2,-59.53 2.47,-61.3 -5.84,-63.28 -14.7,-65.48 -24.13,-67.98 -34.06,-70.92" fill="none" stroke="rgb(0, 0, 0)" stroke-width="2" stroke-linejoin="round" filter="url(#fuzzy)" /><polyline points="-30.68,-83.22 -29.53,-83.92 -28.52,-84.42 -27.81,-84.72 -27.43,-84.83 -27.29,-84.75 -27.35,-84.52 -27.69,-84.11 -28.4,-83.47 -29.57,-82.57 -31.25,-81.34 -33.54,-79.74 -36.54,-77.71 -40.28,-75.25 -44.7,-72.42" fill="none" stroke="rgb(0, 0, 0)" stroke-width="2" stroke-linejoin="round" filter="url(#fuzzy)" /><polyline points="-16.41,-88.92 -15.82,-89.09 -14.52,-89.32 -13.16,-89.57 -11.97,-89.8 -10.98,-89.98 -10.17,-90.13 -9.51,-90.23 -9.02,-90.28 -8.79,-90.26 -8.92,-90.15 -9.48,-89.94 -10.54,-89.6 -12.12,-89.13 -14.21,-88.58 -16.78,-87.98 -19.86,-87.32" fill="none" stroke="rgb(0, 0, 0)" stroke-width="2" stroke-linejoin="round" filter="url(#fuzzy)" /><polyline points="6.32,-90.5 8.53,-90.42 10.37,-90.12 11.84,-89.8 13.15,-89.46 14.49,-89.1 15.9,-88.72 17.33,-88.34 18.67,-87.97 19.87,-87.63 20.92,-87.32 21.84,-87.04 22.63,-86.8 23.22,-86.62 23.52,-86.54 23.39,-86.59 22.74,-86.82 21.51,-87.23 19.71,-87.84" fill="none" stroke="rgb(0, 0, 0)" stroke-width="2" stroke-linejoin="round" filter="url(#fuzzy)" /><polyline points="22.6,-86.9 23.66,-86.48 24.75,-86.12 25.76,-85.72 26.81,-85.26 27.87,-84.75 28.83,-84.28 29.6,-83.86 30.11,-83.54 30.29,-83.33 30.13,-83.26 29.61,-83.35 28.74,-83.61 27.5,-84.04 25.85,-84.64 23.74,-85.42 21.15,-86.37 18.2,-87.44 15.23,-88.57" fill="none" stroke="rgb(0, 0, 0)" stroke-width="2" stroke-linejoin="round" filter="url(#fuzzy)" /><polyline points="-39.61,-78.24 -38.12,-79.01 -36.54,-79.91 -34.9,-80.78 -33.21,-81.63 -31.43,-82.49 -29.56,-83.36 -27.69,-84.2 -25.91,-84.98 -24.27,-85.69 -22.84,-86.33 -21.63,-86.88 -20.67,-87.32 -19.98,-87.63 -19.65,-87.76 -19.9,-87.68" fill="none" stroke="rgb(0, 0, 0)" stroke-width="2" stroke-linejoin="round" filter="url(#fuzzy)" /><polyline points="-0.6,-90.76 0.52,-90.83 0.87,-90.81 0.77,-90.69 0.4,-90.44 -0.19,-90.06 -1.08,-89.53 -2.38,-88.83 -4.24,-87.97 -6.83,-86.95 -10.3,-85.76 -14.75,-84.39 -20.17,-82.79 -26.47,-80.93 -33.52,-78.84" fill="none" stroke="rgb(0, 0, 0)" stroke-width="2" stroke-linejoin="round" filter="url(#fuzzy)" /><polyline points="-16.58,-89.07 -14.59,-89.28 -12.81,-89.5 -11.17,-89.65 -9.53,-89.75 -7.81,-89.82 -5.96,-89.87 -3.99,-89.9 -1.98,-89.9 0.01,-89.89 1.93,-89.84 3.75,-89.77 5.45,-89.69 6.98,-89.62 8.34,-89.57 9.49,-89.55 10.49,-89.55 11.39,-89.56 12.19,-89.56 12.85,-89.56 13.21,-89.58 13.09,-89.66 12.46,-89.81" fill="none" stroke="rgb(0, 0, 0)" stroke-width="2" stroke-linejoin="round" filter="url(#fuzzy)" /><polyline points="17.27,-88.68 18.79,-88.15 20.05,-87.63 20.96,-87.16 21.44,-86.75 21.47,-86.38 21.09,-86.02 20.31,-85.63 19.14,-85.21 17.53,-84.79 15.41,-84.38 12.73,-84 9.46,-83.66 5.57,-83.38 1.03,-83.14 -4.2,-82.96 -10.13,-82.83 -16.69,-82.79 -23.85,-82.86" fill="none" stroke="rgb(0, 0, 0)" stroke-width="2" stroke-linejoin="round" filter="url(#fuzzy)" /><polyline points="28.66,-84.2 29.87,-83.73 31.19,-83.07 32.63,-82.24 34.07,-81.34 35.45,-80.44 36.74,-79.6 37.89,-78.86 38.89,-78.22 39.75,-77.68 40.49,-77.21 41.14,-76.77 41.71,-76.37 42.13,-76.06 42.26,-75.97 42,-76.18 41.32,-76.71 40.34,-77.47 39.32,-78.2" fill="none" stroke="rgb(0, 0, 0)" stroke-width="2" stroke-linejoin="round" filter="url(#fuzzy)" /><polyline points="6.32,-90.5 8.57,-90.37 10.47,-89.94 12.07,-89.4 13.59,-88.75 15.24,-88.01 17.06,-87.16 19.01,-86.21 21.05,-85.19 23.14,-84.1 25.3,-82.94 27.53,-81.73 29.83,-80.49 32.15,-79.23 34.44,-77.98 36.65,-76.75 38.74,-75.56 40.71,-74.41 42.56,-73.32 44.27,-72.33 45.8,-71.47 47.09,-70.84 48.06,-70.47 48.75,-70.31" fill="none" stroke="rgb(0, 0, 0)" stroke-width="2" stroke-linejoin="round" filter="url(#fuzzy)" /><polyline points="44.24,-73.98 44.98,-73.71 45.54,-73.33 46.31,-72.71 47.27,-71.88 48.27,-70.94 49.18,-70.02 49.9,-69.21 50.38,-68.59 50.59,-68.21 50.52,-68.11 50.18,-68.28 49.57,-68.71 48.72,-69.37 47.63,-70.23 46.27,-71.3 44.58,-72.64 42.52,-74.3 40.01,-76.35 37.06,-78.82" fill="none" stroke="rgb(0, 0, 0)" stroke-width="2" stroke-linejoin="round" filter="url(#fuzzy)" /><polyline points="43.21,-75.28 44.18,-74.33 44.99,-73.68 45.82,-72.99 46.82,-72.1 47.99,-71.02 49.25,-69.8 50.48,-68.55 51.6,-67.36 52.56,-66.31 53.35,-65.43 53.95,-64.74 54.37,-64.26 54.61,-64 54.65,-63.96 54.47,-64.18 54,-64.7 53.22,-65.57 52.06,-66.83 50.47,-68.52 48.32,-70.72" fill="none" stroke="rgb(0, 0, 0)" stroke-width="2" stroke-linejoin="round" filter="url(#fuzzy)" /><polyline points="12.77,-89.79 12.37,-89.83 12.93,-89.72 13.9,-89.52 14.86,-89.3 15.59,-89.12 16.07,-88.95 16.35,-88.78 16.47,-88.6 16.44,-88.43 16.2,-88.3 15.64,-88.22 14.68,-88.22 13.25,-88.31 11.31,-88.48 8.88,-88.73 5.97,-89.07 2.49,-89.51 -1.89,-90.04" fill="none" stroke="rgb(0, 0, 0)" stroke-width="2" stroke-linejoin="round" filter="url(#fuzzy)" /><polyline points="-0.6,-90.76 0.66,-90.86 1.42,-90.92 2.06,-90.95 2.77,-90.94 3.63,-90.89 4.6,-90.8 5.56,-90.67 6.41,-90.52 7.02,-90.35 7.32,-90.18 7.3,-90.01 6.98,-89.83 6.37,-89.65 5.48,-89.46 4.27,-89.25 2.72,-89.02 0.83,-88.76 -1.41,-88.46 -4.02,-88.11 -7.06,-87.73 -10.54,-87.36 -14.44,-87.05 -18.75,-86.8" fill="none" stroke="rgb(0, 0, 0)" stroke-width="2" stroke-linejoin="round" filter="url(#fuzzy)" /><polyline points="67.32,-44 67.15,-43.79 66.75,-43.48 66.01,-43.1 64.72,-43.06 62.74,-43.54 60.05,-44.52 56.66,-45.95 52.55,-47.78 47.72,-50.02 42.11,-52.69 35.72,-55.86 28.5,-59.57 20.42,-63.82 11.38,-68.63 1.24,-74.02 -10.02,-80.12" fill="none" stroke="rgb(0, 0, 0)" stroke-width="2" stroke-linejoin="round" filter="url(#fuzzy)" /><polyline points="34.02,-81.41 35.59,-80.52 36.66,-79.86 37.55,-79.29 38.38,-78.76 39.2,-78.21 40.08,-77.6 41.02,-76.91 41.97,-76.18 42.84,-75.5 43.52,-74.96 43.94,-74.62 44.07,-74.51 43.94,-74.61 43.59,-74.86 43.05,-75.22 42.32,-75.7 41.32,-76.36 39.98,-77.29 38.23,-78.6" fill="none" stroke="rgb(0, 0, 0)" stroke-width="2" stroke-linejoin="round" filter="url(#fuzzy)" /><polyline points="-35.21,-80.94 -34.4,-81.07 -32.6,-81.28 -29.96,-81.37 -26.79,-81.23 -23.19,-80.85 -19.16,-80.26 -14.71,-79.5 -9.85,-78.59 -4.59,-77.52 1.03,-76.31 7.02,-75.01 13.33,-73.62 19.92,-72.13 26.74,-70.55 33.79,-68.87 41.01,-67.06 48.39,-64.95" fill="none" stroke="rgb(0, 0, 0)" stroke-width="2" stroke-linejoin="round" filter="url(#fuzzy)" /><polyline points="-31.95,-82.8 -30.74,-83.27 -29.42,-83.53 -27.64,-83.8 -25.45,-84.07 -22.96,-84.28 -20.23,-84.44 -17.25,-84.56 -14.02,-84.66 -10.57,-84.73 -6.93,-84.76 -3.11,-84.74 0.82,-84.67 4.81,-84.55 8.79,-84.41 12.69,-84.27 16.5,-84.13 20.17,-84.03 23.63,-83.99 26.82,-83.95" fill="none" stroke="rgb(0, 0, 0)" stroke-width="2" stroke-linejoin="round" filter="url(#fuzzy)" /><polyline points="20.56,-87.55 22.11,-87.02 23.2,-86.62 23.92,-86.33 24.36,-86.06 24.59,-85.79 24.6,-85.52 24.3,-85.3 23.57,-85.17 22.34,-85.16 20.55,-85.27 18.16,-85.52 15.12,-85.91 11.33,-86.44 6.77,-87.12 1.51,-87.95 -4.28,-88.95" fill="none" stroke="rgb(0, 0, 0)" stroke-width="2" stroke-linejoin="round" filter="url(#fuzzy)" /><polyline points="10.56,-90.17 11.84,-89.9 12.7,-89.66 13.9,-89.32 15.47,-88.87 17.17,-88.36 18.83,-87.87 20.34,-87.39 21.71,-86.94 22.95,-86.52 24.02,-86.17 24.8,-85.95 25.21,-85.88 25.23,-85.96 24.81,-86.12" fill="none" stroke="rgb(0, 0, 0)" stroke-width="2" stroke-linejoin="round" filter="url(#fuzzy)" /><polyline points="-29.33,-84.17 -28,-84.59 -26.25,-85.01 -24.29,-85.33 -21.93,-85.61 -19.15,-85.91 -16.03,-86.23 -12.69,-86.54 -9.19,-86.84 -5.57,-87.13 -1.92,-87.4 1.66,-87.65 5.05,-87.89 8.23,-88.15 11.22,-88.43 14.13,-88.71" fill="none" stroke="rgb(0, 0, 0)" stroke-width="2" stroke-linejoin="round" filter="url(#fuzzy)" /><polyline points="54.49,-63.83 54.46,-64.1 54.96,-63.51 55.31,-62.95 55.4,-62.54 55.22,-62.25 54.78,-62.09 54.07,-62.07 53.07,-62.23 51.74,-62.6 50.05,-63.22 47.97,-64.1 45.46,-65.25 42.47,-66.69 38.96,-68.43 34.9,-70.52 30.29,-72.97 25.19,-75.8 19.68,-79 13.85,-82.6 7.7,-86.59" fill="none" stroke="rgb(0, 0, 0)" stroke-width="2" stroke-linejoin="round" filter="url(#fuzzy)" /><polyline points="26.53,-85.61 28.22,-84.59 29.44,-83.95 30.41,-83.41 31.16,-82.89 31.68,-82.4 31.93,-81.98 31.88,-81.65 31.5,-81.42 30.8,-81.28 29.78,-81.22 28.47,-81.21 26.88,-81.22 25.03,-81.23 22.88,-81.25 20.36,-81.32 17.42,-81.48 14,-81.76 10.09,-82.16 5.68,-82.63 0.77,-83.16 -4.62,-83.76 -10.43,-84.5 -16.7,-85.43" fill="none" stroke="rgb(0, 0, 0)" stroke-width="2" stroke-linejoin="round" filter="url(#fuzzy)" /><polyline points="60.82,-55.93 61.52,-54.85 61.96,-53.99 62.44,-53.07 62.95,-52.13 63.37,-51.3 63.6,-50.7 63.61,-50.38 63.35,-50.36 62.84,-50.66 62.09,-51.26 61.11,-52.15 59.9,-53.35 58.43,-54.92 56.62,-56.94 54.4,-59.48 51.71,-62.58 48.61,-66.18 45.25,-70.17 41.82,-74.36" fill="none" stroke="rgb(0, 0, 0)" stroke-width="2" stroke-linejoin="round" filter="url(#fuzzy)" /><polyline points="60.82,-55.93 61.47,-54.88 61.79,-54.13 62.06,-53.38 62.25,-52.67 62.26,-52.12 61.99,-51.82 61.4,-51.83 60.47,-52.15 59.21,-52.79 57.61,-53.73 55.66,-55 53.35,-56.6 50.63,-58.57 47.49,-60.96 43.91,-63.78 39.94,-67.03 35.58,-70.67 30.81,-74.69 25.46,-79.16 19.32,-84.21" fill="none" stroke="rgb(0, 0, 0)" stroke-width="2" stroke-linejoin="round" filter="url(#fuzzy)" /><polyline points="56.81,-61.76 57.6,-60.65 58.22,-59.69 58.72,-58.87 59.15,-58.14 59.43,-57.59 59.48,-57.28 59.27,-57.26 58.82,-57.49 58.12,-58 57.13,-58.85 55.76,-60.14 53.9,-61.97 51.51,-64.41 48.61,-67.42 45.34,-70.94 41.9,-74.78" fill="none" stroke="rgb(0, 0, 0)" stroke-width="2" stroke-linejoin="round" filter="url(#fuzzy)" /><polyline points="38.37,-78.59 35.46,-77.55 32.27,-72.26 23.69,-69.87 17,-70.91 14.29,-73.84 13.61,-76.88 13.36,-78.87 13.47,-79.6 14.36,-79.53 15.89,-79.34 17.33,-79.37 17.98,-79.49 17.51,-79.25 15.85,-78.26 12.79,-76.49 7.93,-74.45 0.92,-72.97 -7.66,-72.85 -15.41,-74.36 -18.47,-77.41 -15.08,-81.97 -10.7,-87.31 -10.49,-90.08" fill="none" stroke="rgb(0, 0, 0)" stroke-width="2" stroke-linejoin="round" filter="url(#fuzzy)" /><polyline points="53.04,-66.04 48.79,-66.1 34.53,-73.62 20.5,-79.48 11.88,-82.79 9.93,-83.47 12.04,-81.51 14.19,-77.37 13.55,-72.1 9.57,-67.05 3.78,-63.26 -1.09,-61.06 -2.28,-60.2 1.7,-60.39 10.67,-61.76 22.65,-64.64 28.34,-70.44 -3.94,-90.83" fill="none" stroke="rgb(0, 0, 0)" stroke-width="2" stroke-linejoin="round" filter="url(#fuzzy)" /><polyline points="12.05,-90.03 28.66,-79.8 20.23,-79.98 9.01,-82.98 2.49,-85.62 -1.07,-86.81 -4.66,-86.4 -8.81,-84.58 -11.66,-81.8 -10.91,-78.78 -5.74,-76.22 2.78,-74.41 12.57,-73.12 21.71,-71.95 28.71,-71.1 32.09,-71.41 30.68,-72.97 24.69,-73.23 10.2,-69.3 -47.48,-71.42" fill="none" stroke="rgb(0, 0, 0)" stroke-width="2" stroke-linejoin="round" filter="url(#fuzzy)" /><polyline points="-62.14,-53.55 -22.02,-71.89 8.36,-76.95 25.47,-76.73 34.55,-73.81 39.43,-70.14 41.83,-67.29 42.64,-65.85 42.66,-65.51 42.51,-65.72 42.31,-66.21 41.71,-67.18 40.22,-68.92 37.77,-71.34 34.94,-73.8 32.76,-75.32 31.92,-75.32 31.97,-74.24 31.3,-73.49 28.58,-74.27 25.44,-75.74 27,-74.85 33.8,-72.07 19.01,-88.13" fill="none" stroke="rgb(0, 0, 0)" stroke-width="2" stroke-linejoin="round" filter="url(#fuzzy)" /><polyline points="-35.21,-80.94 4.66,-75.93 -2.45,-75.72 -10.36,-74.45 -4.85,-72.21 10.15,-69.52 25.31,-67.44 33.65,-67.11 32.64,-68.95 23.39,-72.47 9.52,-76.46 -3.33,-79.21 -8.65,-78.88 -3.78,-74.29 -0.97,-66.86 -51.94,-67.46" fill="none" stroke="rgb(0, 0, 0)" stroke-width="2" stroke-linejoin="round" filter="url(#fuzzy)" /><polyline points="-16.41,-88.92 -37.08,-75.32 -33.15,-70.53 -16.38,-67.12 -1.55,-64.8 3.21,-64.6 0.18,-66.36 -3.44,-68.7 -2.47,-70.32 3.09,-71.16 9.31,-72.41 11.28,-75.11 5.51,-78.33 -9.11,-79.35 -28.43,-77.71 -30.36,-83.66" fill="none" stroke="rgb(0, 0, 0)" stroke-width="2" stroke-linejoin="round" filter="url(#fuzzy)" /><polyline points="-2.38,-91.1 -15.45,-83.1 1.64,-78.43 22.98,-70.3 35.6,-63.2 34.83,-61.07 23.54,-63.8 9.5,-68.96 0.57,-74.22 0.32,-78.36 6.58,-80.79 13.64,-80.93 15.45,-78.59 6.59,-75.18 -17.22,-74.57 -40.96,-77.13" fill="none" stroke="rgb(0, 0, 0)" stroke-width="2" stroke-linejoin="round" filter="url(#fuzzy)" /><polyline points="69.94,-38.23 4.93,-59.51 -4.53,-71.03 -9.78,-74.59 -19.56,-74.82 -28.79,-74.67 -32.33,-75.42 -28.29,-77.06 -17.6,-78.8 -3.09,-79.7 11.11,-79.24 20.57,-77.44 21.56,-74.79 10.95,-72.72 -13.93,-74.45 -39.61,-78.24" fill="none" stroke="rgb(0, 0, 0)" stroke-width="2" stroke-linejoin="round" filter="url(#fuzzy)" /><polyline points="20.56,-87.55 -0.58,-85.11 4.7,-80.78 10.14,-76.21 8.66,-73.12 0.72,-71.7 -10.24,-71.2 -19.96,-70.67 -25.41,-69.43 -25.88,-67.34 -22.45,-64.77 -16.46,-62.38 -8.37,-60.81 1.88,-60.45 13.23,-61.63 22.32,-64.73 25.14,-69.99 20.65,-76.7 12.08,-82.99 2.58,-87.72 -2.38,-91.1" fill="none" stroke="rgb(0, 0, 0)" stroke-width="2" stroke-linejoin="round" filter="url(#fuzzy)" /><polyline points="-44.62,-74.25 6.49,-71.27 25.37,-66.81 35.44,-63.08 35.41,-63.13 25.95,-66.1 11.62,-70.05 -2.7,-73.47 -14.22,-75.43 -22,-75.44 -25.67,-73.6 -24.62,-70.64 -18.43,-67.74 -7.57,-65.89 6.48,-65.47 21.59,-65.93 35.04,-65.94 43.3,-64.33 41.19,-64.39 10.56,-90.17" fill="none" stroke="rgb(0, 0, 0)" stroke-width="2" stroke-linejoin="round" filter="url(#fuzzy)" /><polyline points="-53.94,-64.72 -6.07,-67.36 -4.63,-69.34 -3.17,-69.83 0.99,-70.88 4.46,-72.56 7.25,-73.78 10.92,-73.5 16.11,-71.62 21.87,-69.11 26.34,-67.4 27.85,-67.43 25.76,-69.03 20.62,-71.1 13.79,-72.46 6.97,-72.55 1.99,-71.56 0.63,-70.15 3.72,-69.16 9.66,-69.58 13.64,-72.32 9.66,-77.21 -3.03,-83.23 -3.41,-91.09" fill="none" stroke="rgb(0, 0, 0)" stroke-width="2" stroke-linejoin="round" filter="url(#fuzzy)" /><polyline points="32.62,-82.57 9.28,-85.95 5.41,-83.4 11.86,-77.4 14.55,-71.06 9.58,-66.97 1.89,-65.54 -2.01,-65.16 0.74,-63.77 8.52,-60.38 17.65,-55.59 25.5,-50.88 31.9,-47.61 37.29,-46.65 38.6,-49.08 28.46,-56.91 6.74,-72.01 12.05,-90.03" fill="none" stroke="rgb(0, 0, 0)" stroke-width="2" stroke-linejoin="round" filter="url(#fuzzy)" /><polyline points="24.82,-86.12 -24.47,-70.41 -28.23,-69.42 -16.46,-70.68 -3.9,-71.8 5.64,-72.21 12.63,-71.63 17.55,-70.43 20.02,-69.46 19.69,-69.54 17.09,-70.86 13.6,-72.96 10.79,-74.99 9.45,-76.14 9.3,-76.03 9.27,-74.93 8.36,-73.68 6.42,-73.17 4.41,-73.73 4.31,-74.48 8.58,-73.47 19.32,-69.15 35.64,-63.3 48.46,-63.43 42.08,-76.48" fill="none" stroke="rgb(0, 0, 0)" stroke-width="2" stroke-linejoin="round" filter="url(#fuzzy)" /><polyline points="34.01,-81.61 23.07,-79.69 30.38,-75.9 34.38,-75.76 35.54,-76.14 36.87,-74.78 39.41,-71.63 42.25,-68.23 43.5,-66.53 41.73,-67.64 36.93,-71.08 30.44,-75.05 23.72,-77.62 17.08,-77.93 10.23,-76.71 5.56,-75.16 11.32,-72.3 36.53,-61.85 71.72,-31.95" fill="none" stroke="rgb(0, 0, 0)" stroke-width="2" stroke-linejoin="round" filter="url(#fuzzy)" /><polyline points="53.56,-65.46 12.98,-80.67 -2.39,-83.66 -14.78,-80.52 -26.04,-75.99 -32.2,-72.63 -31.35,-71.27 -25.53,-71.73 -18.72,-73.13 -13.46,-74.16 -8.97,-73.86 -3.19,-72.77 2.81,-73.39 4.18,-78.57 0.71,-87.08 1.11,-90.97" fill="none" stroke="rgb(0, 0, 0)" stroke-width="2" stroke-linejoin="round" filter="url(#fuzzy)" /><polyline points="-57.25,-61.05 -11.94,-71.81 20.03,-70.15 30.08,-69.65 23.8,-72.05 10.28,-75.65 -3.2,-78.69 -13.06,-80.22 -18.69,-80.04 -20.66,-78.5 -19.62,-76.29 -15.87,-74.01 -9.56,-71.92 -0.95,-70 9.17,-68.27 18.98,-67.11 25.56,-67.22 25.97,-69.06 19.29,-72.33 8.56,-75.99 0.5,-79.25 0.81,-82.52 4.1,-86.31 -14.4,-89.22" fill="none" stroke="rgb(0, 0, 0)" stroke-width="2" stroke-linejoin="round" filter="url(#fuzzy)" /><polyline points="-31.95,-82.8 -25.13,-79.91 -9.68,-72.85 -1.95,-67.83 -0.96,-67.85 -0.6,-70.87 2.52,-74.08 8.75,-75.86 16.93,-75.73 24.92,-74.08 29.54,-72.2 27.64,-71.92 19.26,-73.83 9.54,-75.62 0.51,-74.25 -42.7,-75.54" fill="none" stroke="rgb(0, 0, 0)" stroke-width="2" stroke-linejoin="round" filter="url(#fuzzy)" /><polyline points="-9.83,-90.26 -8.28,-66.92 16.84,-60.92 28.8,-64.95 27.74,-70.69 21.34,-74.33 15.72,-75.33 12.95,-74.7 12.55,-73.74 14.26,-73.06 18.78,-72.3 25.97,-70.67 32.74,-67.46 33.86,-62.31 26.3,-55.61 19.64,-48.77 70.44,-36.83" fill="none" stroke="rgb(0, 0, 0)" stroke-width="2" stroke-linejoin="round" filter="url(#fuzzy)" /><polyline points="69.41,-38.99 27.47,-58.04 14.07,-62.22 4.64,-68.83 1.66,-75.66 3.76,-80.36 7.01,-82.76 9.15,-83.27 10.15,-81.79 10.82,-77.92 12.53,-71.79 17.25,-65.01 25.24,-61.01 30.99,-64 27.86,-74.69 38.66,-78.99" fill="none" stroke="rgb(0, 0, 0)" stroke-width="2" stroke-linejoin="round" filter="url(#fuzzy)" /><polyline points="38.64,-78.92 50.19,-62.91 42.26,-65.14 32,-68.08 21.94,-67.27 11.01,-64.73 1.29,-63.15 -4.15,-63.61 -4.8,-65.67 -3.18,-68.13 -3.17,-69.78 -7.85,-70.14 -16.42,-69.82 -19.78,-69.04 0.85,-63.38 69.94,-38.23" fill="none" stroke="rgb(0, 0, 0)" stroke-width="2" stroke-linejoin="round" filter="url(#fuzzy)" /><polyline points="-20.63,-87.54 -24.67,-83 -18.92,-79.08 -9.7,-77.23 -4.96,-77.11 -4.61,-78.66 -5.41,-81.11 -4.82,-83.21 -2.04,-84.02 2.1,-83.31 5.67,-81.58 6.71,-79.59 4.51,-77.89 0.58,-76.62 -1.86,-75.81 -0.02,-75.75 5.61,-76.99 10.58,-79.85 10.69,-83.81 8.27,-87.57 1.11,-90.97" fill="none" stroke="rgb(0, 0, 0)" stroke-width="2" stroke-linejoin="round" filter="url(#fuzzy)" /><polyline points="63.2,-51.82 35.82,-55.99 0.37,-64.67 -19.36,-71.85 -27.03,-76.1 -27.98,-76.85 -23.94,-74.4 -15.09,-70.01 -2.8,-65.56 9.59,-62.69 18.13,-62.11 20.2,-63.5 15.95,-65.89 8.36,-68.22 1.85,-69.83 -0.26,-70.71 1.59,-71.48 3.04,-72.54 -0.12,-72.64 -10.37,-68.87 -58.82,-58.71" fill="none" stroke="rgb(0, 0, 0)" stroke-width="2" stroke-linejoin="round" filter="url(#fuzzy)" /><polyline points="71.13,-34.89 26.8,-69.34 3.34,-79.09 -4.23,-81.11 -1.03,-80.59 6.22,-77.96 13.14,-73.72 17.91,-69.56 19.45,-67.37 17.42,-67.76 14.11,-69.58 14.55,-70.97 22.01,-71.45 31.75,-73.04 34.06,-77.96 37.27,-79.63" fill="none" stroke="rgb(0, 0, 0)" stroke-width="2" stroke-linejoin="round" filter="url(#fuzzy)" /><polyline points="12.05,-90.03 25.96,-80.79 22.7,-82.03 18.82,-82.78 15.68,-80.94 13.77,-76.57 12.08,-71 7.94,-66.14 -0.33,-63.47 -11.33,-63.41 -21.24,-65.44 -26.25,-68.6 -24.4,-71.89 -15.88,-74.51 -2.67,-75.87 10.99,-75.65 17.56,-73.97 7.29,-71.32 -24.96,-66.91 -62.14,-53.55" fill="none" stroke="rgb(0, 0, 0)" stroke-width="2" stroke-linejoin="round" filter="url(#fuzzy)" /><polyline points="69.89,-38.45 14.3,-55.18 23.06,-57.38 37.06,-56.22 40,-58.73 31.91,-64.44 17.17,-70.58 0.55,-75.27 -13.83,-77.93 -23.36,-78.83 -26.95,-78.8 -24.31,-79.06 -15.51,-80.05 -1.25,-78.93 20.5,-66.83 73.26,-27.42" fill="none" stroke="rgb(0, 0, 0)" stroke-width="2" stroke-linejoin="round" filter="url(#fuzzy)" /><polyline points="62.47,-52.98 20.49,-70.43 4.07,-71.35 -1.32,-72.13 -4.26,-75.37 -6.31,-78.98 -7.24,-80.89 -6.26,-80.48 -2.41,-78.4 4.38,-75.87 12.49,-73.97 18.92,-73.23 20.77,-73.66 17.16,-75.02 10.25,-76.97 4.54,-79.11 4.1,-80.95 8.72,-82.03 11.42,-82.55 0.33,-83.85 -30.68,-83.22" fill="none" stroke="rgb(0, 0, 0)" stroke-width="2" stroke-linejoin="round" filter="url(#fuzzy)" /><polyline points="49.53,-70.04 21.57,-71.93 19.59,-72.24 12.48,-76.38 1.71,-79.74 -7.83,-80.31 -13.64,-78.85 -15.49,-76.95 -14.22,-75.72 -11,-75.36 -7.07,-75.61 -3.76,-76.19 -1.96,-76.91 -1.63,-77.58 -1.67,-77.81 -0.72,-77.17 1.7,-75.57 4.93,-73.45 8.3,-71.47 12.34,-70.08 17.43,-69.71 18.84,-72.11 5.89,-80.38 -14.4,-89.22" fill="none" stroke="rgb(0, 0, 0)" stroke-width="2" stroke-linejoin="round" filter="url(#fuzzy)" /><polyline points="55.94,-62.18 42.4,-62.35 31.23,-67.54 32.16,-68.21 33.19,-66.4 27.22,-64.64 15.57,-63.67 3.98,-63.22 -2.53,-63.04 -2.55,-63.12 1.77,-63.59 6.68,-64.42 9.03,-65.46 7.71,-66.52 4.01,-67.49 0.81,-68.31 0.93,-68.75 5.34,-68.21 12.32,-65.78 19.15,-61.02 25.46,-55.07 32.89,-51.68 33.03,-58.41 -10.49,-90.08" fill="none" stroke="rgb(0, 0, 0)" stroke-width="2" stroke-linejoin="round" filter="url(#fuzzy)" /><polyline points="-11.67,-89.84 5.57,-75.23 29.07,-61.93 36.64,-58.81 35.21,-60.32 33.57,-62.02 34.13,-63.32 35.08,-65.26 34.43,-68.34 31.82,-72.14 28.09,-75.88 24.23,-79.02 20.88,-81.25 18.52,-82.3 17.96,-81.85 20.18,-79.82 24.54,-77.05 25.15,-75.98 9.33,-79.56 -31.95,-82.8" fill="none" stroke="rgb(0, 0, 0)" stroke-width="2" stroke-linejoin="round" filter="url(#fuzzy)" /><polyline points="28.49,-105.57 26.64,-104.01 24.62,-103.11 22.9,-102.92 21.57,-103.27 20.48,-103.7 19.4,-103.79 18.22,-103.39 16.92,-102.52 15.57,-101.33 14.22,-99.97 12.87,-98.55 11.46,-97.13 9.95,-95.75 8.35,-94.44 6.72,-93.31 5.19,-92.43 3.87,-91.86 2.83,-91.54 2.1,-91.31 1.6,-91.09 1.22,-90.89 -0.6,-90.76 0.67,-91.4 1.43,-91.8 2.1,-91.79 2.89,-91.68 3.92,-91.67 5.19,-91.88 6.65,-92.36 8.2,-93.14 9.73,-94.15 11.18,-95.2 12.48,-96.06 13.67,-96.57 14.79,-96.73 15.9,-96.69 17.02,-96.7 18.18,-96.94 19.4,-97.44 20.73,-98.04 22.2,-98.57 23.83,-98.94 25.59,-99.24 27.35,-99.6 28.77,-99.99 29.02,-100.68" fill="none" stroke="rgb(0, 0, 0)" stroke-width="2" stroke-linejoin="round" filter="url(#fuzzy)" /><polyline points="-34.58,-109.56 -31.55,-110.62 -29.19,-109.72 -27.29,-108.56 -25.54,-107.69 -23.85,-107.19 -22.2,-106.78 -20.58,-106.08 -18.95,-104.83 -17.28,-103.04 -15.6,-100.94 -13.96,-98.81 -12.43,-96.84 -10.99,-95.16 -9.61,-93.89 -8.25,-93.12 -6.88,-92.89 -5.54,-93.09 -4.32,-93.45 -3.29,-93.41 -2.3,-92.39 -0.6,-90.76 -2.38,-91.1 -3.97,-90.93 -5.35,-90.52 -6.77,-90 -8.08,-89.58 -9.24,-89.27 -10.31,-88.99 -11.36,-88.66 -12.43,-88.25 -13.51,-87.76 -14.59,-87.22 -15.66,-86.62 -16.73,-86 -17.83,-85.37 -18.95,-84.8 -20.09,-84.3 -21.23,-83.88 -22.36,-83.48 -23.44,-83.03 -24.41,-82.55 -25.17,-82.07 -25.85,-81.53 -27.24,-80.61 15.52,-118.99 14.94,-114.7 13.23,-112.72 11.15,-111.53 9.05,-110.12 7.12,-108.4 5.47,-106.77 4.11,-105.65 3.02,-105.21 2.08,-105.23 1.14,-105.1 0.06,-104.08 -1.17,-101.76 -2.4,-98.35 -3.43,-94.44 -4.77,-91.02" fill="none" stroke="rgb(0, 0, 0)" stroke-width="2" stroke-linejoin="round" filter="url(#fuzzy)" /><polyline points="-27.68,-75.08 -26.7,-76.08 -25.89,-77.36 -25.17,-78.48 -24.45,-79.22 -23.62,-79.72 -22.7,-80.22 -21.74,-80.9 -20.79,-81.78 -19.82,-82.79 -18.83,-83.77 -17.79,-84.61 -16.73,-85.28 -15.66,-85.85 -14.59,-86.43 -13.53,-87.15 -12.48,-87.99 -11.48,-88.85 -10.55,-89.55 -9.7,-90.02 -8.94,-90.35 -8.34,-90.65" fill="none" stroke="rgb(0, 0, 0)" stroke-width="2" stroke-linejoin="round" filter="url(#fuzzy)" /><polyline points="-8.34,-90.65 -9.07,-91.54 -9.88,-91.49 -10.83,-91.52 -11.95,-91.81 -13.28,-92.57 -14.8,-94.03 -16.48,-96.14 -18.25,-98.54 -20.01,-100.62 -21.66,-101.9 -23.16,-102.24 -24.52,-101.81 -25.78,-100.97 -27.02,-100.15 -28.31,-99.68 -29.72,-99.78 -31.27,-100.51 -32.99,-101.78 -34.82,-103.33 -36.71,-104.88 -38.59,-106.32 -40.58,-107.62 -43.01,-108.47 -46.48,-108.25" fill="none" stroke="rgb(0, 0, 0)" stroke-width="2" stroke-linejoin="round" filter="url(#fuzzy)" /><polyline points="-9.83,-90.26 -8.82,-90.55 -7.48,-91.51 -6.08,-92.92 -4.81,-94.19 -3.67,-94.93 -2.56,-95.15 -1.43,-95.02 -0.33,-94.77 0.69,-94.59 1.6,-94.64 2.44,-94.98 3.34,-95.54 4.4,-96.2 5.7,-96.82 7.34,-97.37 9.62,-98.41 -11.67,-89.84 -13.06,-91.14 -15.09,-94.75 -17.06,-98.64 -18.64,-100.83 -19.91,-101 -21.15,-100.21 -22.57,-99.74 -24.24,-100.31 -26.15,-101.89 -28.22,-104.09 -30.36,-106.42 -32.34,-108.58 -34.01,-110.52 -35.67,-112.35 -38.2,-113.05" fill="none" stroke="rgb(0, 0, 0)" stroke-width="2" stroke-linejoin="round" filter="url(#fuzzy)" /><polyline points="-11.67,-89.84 -12.86,-90.09 -14.18,-89.75 -15.37,-89.39 -16.46,-89.11 -17.58,-88.86 -18.78,-88.59 -20.02,-88.28 -21.23,-87.94 -22.41,-87.59 -23.56,-87.23 -24.69,-86.9 -25.73,-86.61 -26.65,-86.38 -27.56,-86.16 -28.68,-85.9 -29.87,-85.7" fill="none" stroke="rgb(0, 0, 0)" stroke-width="2" stroke-linejoin="round" filter="url(#fuzzy)" /><polyline points="-12.55,-89.73 -14.33,-89.91 -15.83,-90.92 -17.11,-91.83 -18.32,-92.01 -19.52,-91.53 -20.71,-90.77 -21.9,-90.1 -23.13,-89.72 -24.41,-89.67 -25.71,-89.88 -27.01,-90.26 -28.27,-90.67 -29.49,-90.97 -30.68,-91.07 -31.83,-90.97 -32.94,-90.78 -34.16,-90.61 -35.79,-90.25 -38.32,-89.23 -14.4,-89.22 -13.4,-92.87 -12.59,-95.88 -11.85,-98.65 -11,-100.71 -9.93,-102.14 -8.65,-103.13 -7.24,-103.64 -5.82,-103.71 -4.47,-103.62 -3.2,-103.84 -1.91,-104.75 -0.53,-106.54 0.88,-109.32 2.15,-112.79 3.4,-115.14" fill="none" stroke="rgb(0, 0, 0)" stroke-width="2" stroke-linejoin="round" filter="url(#fuzzy)" /><polyline points="-16.58,-89.07 -14.75,-89.71 -13.38,-91.02 -12.3,-92.47 -11.33,-93.63 -10.31,-94.46 -9.19,-95.19 -7.96,-95.99 -6.68,-96.84 -5.39,-97.65 -4.13,-98.43 -2.89,-99.31 -1.66,-100.53 -0.44,-102.21 0.7,-104.32 1.71,-106.6 2.61,-108.78 3.55,-110.64 4.75,-112.06 5.59,-112.62" fill="none" stroke="rgb(0, 0, 0)" stroke-width="2" stroke-linejoin="round" filter="url(#fuzzy)" /><polyline points="-19.99,-87.56 -17.75,-88.48 -16.65,-89.07 -15.7,-89.59 -14.64,-90.14 -13.51,-90.75 -12.39,-91.38 -11.29,-91.97 -10.19,-92.52 -9.04,-93.07 -7.83,-93.67 -6.58,-94.32 -5.33,-94.97 -4.1,-95.56 -2.89,-96.05 -1.71,-96.49 -0.56,-96.98 0.52,-97.59 1.5,-98.32 2.39,-99.05 3.29,-99.65 4.33,-100.06 5.55,-100.38 7.06,-101.17" fill="none" stroke="rgb(0, 0, 0)" stroke-width="2" stroke-linejoin="round" filter="url(#fuzzy)" /><polyline points="-19.99,-87.56 -17.89,-89.24 -16.95,-90.7 -16.14,-92.04 -15.15,-93.11 -14.01,-93.69 -12.82,-93.84 -11.64,-93.83 -10.47,-93.89 -9.3,-94.21 -8.08,-94.82 -6.81,-95.66 -5.54,-96.56 -4.31,-97.31 -3.11,-97.71 -1.9,-97.72 -0.61,-97.56 0.69,-97.71 1.85,-98.58 2.96,-100.19" fill="none" stroke="rgb(0, 0, 0)" stroke-width="2" stroke-linejoin="round" filter="url(#fuzzy)" /><polyline points="-23.91,-86.35 -25.53,-85.48 -26.17,-84.88 -26.74,-84.1 -27.39,-83.03 -28.07,-81.81 -28.81,-80.62 -29.63,-79.61 -30.56,-78.81 -31.54,-78.13 -32.48,-77.38 -33.32,-76.41 -34.03,-75.15 -34.66,-73.65 -35.25,-72.08 -35.84,-70.57 -36.41,-69.18 -36.9,-67.85 -37.26,-66.49 -37.5,-65.11 -37.65,-63.77 -37.78,-62.51 -38.56,-61.55" fill="none" stroke="rgb(0, 0, 0)" stroke-width="2" stroke-linejoin="round" filter="url(#fuzzy)" /><polyline points="1.46,-93.56 0.68,-93.33 -0.62,-93.17 -1.9,-93.03 -3.07,-92.9 -4.24,-92.76 -5.47,-92.58 -6.73,-92.32 -7.98,-91.99 -9.17,-91.62 -10.31,-91.22 -11.42,-90.83 -12.54,-90.49 -13.69,-90.22 -14.85,-89.99 -16.01,-89.75 -17.17,-89.44 -18.35,-89.02 -19.55,-88.48 -20.73,-87.9 -21.76,-87.37 -22.64,-86.92 -23.91,-86.35" fill="none" stroke="rgb(0, 0, 0)" stroke-width="2" stroke-linejoin="round" filter="url(#fuzzy)" /><polyline points="-3.07,-82.11 -3.05,-82.46 -3.85,-83.07 -5.03,-83.78 -6.33,-84.35 -7.58,-84.71 -8.73,-84.94 -9.81,-85.11 -10.88,-85.24 -11.97,-85.31 -13.09,-85.3 -14.21,-85.24 -15.36,-85.2 -16.54,-85.23 -17.78,-85.34 -19.07,-85.52 -20.37,-85.7 -21.65,-85.85 -22.96,-85.93 -24.36,-85.86 -25.73,-85.67 -26.18,-85.77" fill="none" stroke="rgb(0, 0, 0)" stroke-width="2" stroke-linejoin="round" filter="url(#fuzzy)" /><polyline points="-26,-85.46 -26.1,-85.7 -25.62,-86.27 -24.68,-87.07 -23.6,-87.86 -22.49,-88.52 -21.35,-89 -20.14,-89.37 -18.9,-89.7 -17.7,-90.05 -16.58,-90.44 -15.49,-90.87 -14.33,-91.4 -13.1,-92.05 -11.94,-92.76 -10.86,-93.25" fill="none" stroke="rgb(0, 0, 0)" stroke-width="2" stroke-linejoin="round" filter="url(#fuzzy)" /><polyline points="-4.17,-96.15 -7.21,-95.24 -8.84,-94.7 -9.97,-94.3 -10.98,-93.86 -12.01,-93.3 -13.09,-92.63 -14.22,-91.98 -15.37,-91.44 -16.53,-91.01 -17.71,-90.64 -18.9,-90.24 -20.11,-89.75 -21.29,-89.17 -22.42,-88.5 -23.53,-87.77 -24.6,-87.06 -25.6,-86.48 -26.41,-86.07 -27.17,-85.67 -28.54,-84.46" fill="none" stroke="rgb(0, 0, 0)" stroke-width="2" stroke-linejoin="round" filter="url(#fuzzy)" /><polyline points="-19.41,-105.19 -19.89,-101.81 -21.27,-99.59 -22.58,-97.97 -23.68,-96.55 -24.63,-95.08 -25.5,-93.44 -26.24,-91.64 -26.88,-89.81 -27.48,-88.15 -28.15,-86.82 -28.97,-85.9 -29.91,-85.39 -30.91,-85.1 -31.9,-84.62 -33.02,-83.31 -34.93,-81.34" fill="none" stroke="rgb(0, 0, 0)" stroke-width="2" stroke-linejoin="round" filter="url(#fuzzy)" /><polyline points="75.35,-18.54 75.63,-17.21 75.88,-16.08 76.14,-14.72 76.38,-13.28 76.59,-11.9 76.77,-10.59 76.93,-9.3 77.07,-7.98 77.2,-6.63 77.31,-5.25 77.43,-3.86 77.53,-2.49 77.62,-1.12 77.69,0.24 77.75,1.62 77.77,3.01 77.77,4.43 77.75,5.85 77.71,7.25 77.7,8.61 77.71,9.92 77.72,11.22 77.7,12.54 77.74,13.17" fill="none" stroke="rgb(0, 0, 0)" stroke-width="2" stroke-linejoin="round" filter="url(#fuzzy)" /><polyline points="-55.52,-66.98 -55.13,-67.06 -54.88,-66.97 -54.37,-67.23 -53.56,-67.83 -52.55,-68.65 -51.45,-69.56 -50.34,-70.5 -49.24,-71.42 -48.16,-72.28 -47.08,-73.08 -46.01,-73.81 -45,-74.44 -44.05,-75 -43.17,-75.52 -42.31,-76.07 -41.46,-76.68 -40.62,-77.38 -39.61,-78.24 -40.96,-77.13 -41.49,-76.51 -42.25,-75.8 -43.03,-75.12 -43.83,-74.45 -44.66,-73.7 -45.53,-72.82 -46.44,-71.85 -47.37,-70.82 -48.31,-69.76 -49.27,-68.71 -50.22,-67.69 -51.12,-66.72 -51.91,-65.81 -52.59,-64.99 -53.18,-64.23 -53.8,-63.43 -54.52,-62.49 -55.33,-61.38 -56.12,-60.2 -56.81,-59.03 -57.72,-57.62" fill="none" stroke="rgb(0, 0, 0)" stroke-width="2" stroke-linejoin="round" filter="url(#fuzzy)" /><polyline points="-27.29,-119.57 -27.92,-117.41 -28.36,-113.87 -29.07,-110.96 -30,-108.66 -30.96,-106.76 -31.92,-105.25 -32.91,-104.12 -33.94,-103.21 -34.92,-102.18 -35.76,-100.72 -36.44,-98.75 -37,-96.42 -37.53,-93.96 -38.1,-91.64 -38.75,-89.57 -39.53,-87.82 -40.46,-86.36 -41.53,-85.18 -42.64,-84.14 -43.53,-82.86 -43.81,-80.74 -43.33,-77.56 -42.94,-75.22" fill="none" stroke="rgb(0, 0, 0)" stroke-width="2" stroke-linejoin="round" filter="url(#fuzzy)" /><polyline points="87.24,-51.83 85.84,-49 84.94,-47.14 84.14,-45.44 83.39,-43.64 82.77,-41.74 82.25,-39.78 81.79,-37.76 81.35,-35.69 81.01,-33.62 80.89,-31.64 81.06,-29.79 81.35,-28.14 81.41,-26.71 80.86,-25.41 79.43,-23.97 77.16,-21.88 75.35,-19.45" fill="none" stroke="rgb(0, 0, 0)" stroke-width="2" stroke-linejoin="round" filter="url(#fuzzy)" /><polyline points="-44.07,-74.55 -44.51,-75.6 -44.65,-77.55 -44.67,-79.8 -44.6,-82.19 -44.47,-84.8 -44.27,-87.55 -43.92,-90.19 -43.32,-92.4 -42.45,-94.05 -41.39,-95.3 -40.28,-96.46 -39.23,-97.83 -38.31,-99.49 -37.5,-101.35 -36.72,-103.24 -35.92,-105.01 -35.08,-106.63 -34.23,-108.19 -33.36,-109.82 -32.43,-111.59 -31.38,-113.48 -30.24,-115.35 -29.21,-117.04 -28.06,-119.07 -58.54,-56.55 -57.76,-57.78 -57,-58.99 -56.24,-60.14 -55.46,-61.32 -54.71,-62.48 -54.04,-63.49 -53.47,-64.31 -52.9,-65.01 -52.25,-65.74 -51.48,-66.61 -50.6,-67.63 -49.68,-68.75 -48.78,-69.83 -47.91,-70.82 -47.01,-71.82 -45.82,-73.14 -47.48,-71.42 -47.76,-70.25 -48.41,-69.1 -49.29,-67.95 -50.11,-66.7 -50.66,-65.31 -50.95,-63.89 -51.14,-62.57 -51.39,-61.38 -51.74,-60.22 -52.09,-58.93 -52.33,-57.42 -52.43,-55.7 -52.45,-53.91 -52.5,-52.16 -52.65,-50.55 -52.92,-49.08 -53.27,-47.75 -53.61,-46.49 -53.82,-45.21 -53.75,-43.79 -53.3,-42.39 -52.13,-41.86 -48.9,-69.97 -50.08,-69.03 -51.31,-67.95 -52.31,-66.96 -53.08,-66.14 -53.72,-65.46 -54.39,-64.77 -55.13,-63.98 -55.97,-63.07 -56.87,-62.07 -57.77,-61.01 -58.67,-59.93 -59.56,-58.83 -60.43,-57.72 -61.28,-56.58 -62.1,-55.47 -62.89,-54.39 -63.63,-53.38 -64.3,-52.47 -64.89,-51.63 -65.4,-50.81 -65.9,-49.9 -66.54,-48.83 -67.36,-47.95" fill="none" stroke="rgb(0, 0, 0)" stroke-width="2" stroke-linejoin="round" filter="url(#fuzzy)" /><polyline points="-51.94,-67.46 -52.72,-66.7 -53.56,-66.17 -54.27,-65.86 -55.11,-65.55 -56.26,-65.2 -57.69,-64.82 -59.21,-64.37 -60.59,-63.75 -61.73,-62.85 -62.64,-61.71 -63.42,-60.42 -64.22,-59.14 -65.14,-58.01 -66.22,-57.1 -67.43,-56.42 -68.77,-55.95 -70.21,-55.65 -71.78,-55.47 -73.47,-55.33 -75.22,-55.1 -76.86,-54.77 -78.37,-54.49 -80.36,-54.89 -51.94,-67.46 -51.92,-65.71 -52.55,-64.94 -52.86,-64.22 -52.98,-63.2 -53.23,-61.94 -53.67,-60.6 -54.21,-59.24 -54.68,-57.83 -54.99,-56.3 -55.12,-54.64 -55.14,-52.87 -55.12,-51.08 -55.09,-49.35 -55,-47.68 -54.75,-45.98 -54.26,-44.2 -53.64,-42.67 -53.18,-42.7 -52.37,-66.78 -53.99,-66.39 -55.96,-67.85 -58.08,-69.44 -59.69,-69.73 -60.65,-68.73 -61.41,-67.24 -62.51,-66.08 -64.32,-65.69 -66.92,-66.06 -70.15,-66.93 -73.68,-67.95 -77.09,-68.81 -80.03,-69.39 -82.46,-69.64 -84.57,-68.83" fill="none" stroke="rgb(0, 0, 0)" stroke-width="2" stroke-linejoin="round" filter="url(#fuzzy)" /><polyline points="-54.13,-64.99 -53.98,-65.03 -54.26,-64.82 -54.98,-64.03 -55.89,-62.94 -56.81,-61.77 -57.68,-60.61 -58.51,-59.47 -59.33,-58.32 -60.12,-57.16 -60.91,-55.99 -61.66,-54.85 -62.38,-53.76 -63.07,-52.76 -63.7,-51.84 -64.28,-50.99 -64.82,-50.15 -65.35,-49.27 -65.9,-48.32 -66.45,-47.37 -66.91,-46.53 -67.28,-45.96" fill="none" stroke="rgb(0, 0, 0)" stroke-width="2" stroke-linejoin="round" filter="url(#fuzzy)" /><polyline points="75.12,-21 75.83,-19.81 76.51,-18.74 77.16,-17.68 78.19,-16.58 79.72,-15.43 81.51,-14.24 83.24,-13.05 84.73,-11.84 86.01,-10.59 87.16,-9.26 88.21,-7.84 89.07,-6.35 89.65,-4.82 89.93,-3.28 90.02,-1.73 90.22,-0.21 90.9,1.25 92.22,2.67 94.51,3.68" fill="none" stroke="rgb(0, 0, 0)" stroke-width="2" stroke-linejoin="round" filter="url(#fuzzy)" /><polyline points="-41.45,-107.4 -43.43,-105.12 -43.85,-102.36 -44.48,-100.34 -45.49,-98.88 -46.59,-97.44 -47.53,-95.71 -48.26,-93.72 -48.85,-91.71 -49.39,-89.83 -49.91,-88.09 -50.34,-86.3 -50.64,-84.32 -50.85,-82.13 -51.11,-79.91 -51.58,-77.91 -52.31,-76.27 -53.24,-74.92 -54.22,-73.65 -55.22,-72.44 -56.44,-71.69 -58.17,-72.02 -59.99,-73.26 -59.85,-72.85 -53.95,-65.09 -56.73,-61.26 -55.89,-61.78 -54.61,-62.91 -53.84,-63.91 -53.34,-64.7 -52.81,-65.41 -52.08,-66.14 -51.15,-66.89 -50.05,-67.63 -48.84,-68.3 -47.58,-68.89 -46.32,-69.42 -45.1,-69.91 -43.95,-70.41 -42.91,-70.93 -41.96,-71.45 -41.07,-71.98 -40.2,-72.49 -39.28,-72.98 -38.25,-73.39 -37.01,-73.64 -35.55,-73.69 -34.06,-73.69 -59.62,-57.42 -59.31,-57.92 -58.56,-58.76 -57.65,-59.68 -56.65,-60.58 -55.55,-61.38 -54.4,-62.02 -53.31,-62.52 -52.33,-62.95 -51.41,-63.37 -50.46,-63.82 -49.41,-64.31 -48.24,-64.81 -46.99,-65.3 -45.72,-65.79 -44.5,-66.31 -43.36,-66.92 -42.34,-67.6 -41.42,-68.27 -40.55,-68.78 -39.66,-69.09 -38.65,-69.28 -37.11,-69.14" fill="none" stroke="rgb(0, 0, 0)" stroke-width="2" stroke-linejoin="round" filter="url(#fuzzy)" /><polyline points="-57.32,-84.58 -57.19,-81.87 -57.43,-79.33 -57.68,-76.81 -57.88,-74.55 -58,-72.66 -58.06,-71.08 -58.22,-69.71 -58.62,-68.45 -59.26,-67.24 -60.03,-65.99 -60.74,-64.64 -61.28,-63.15 -61.64,-61.52 -61.84,-59.71 -61.88,-57.59 -61.9,-55.25 -62.14,-53.55 -63.49,-51.67 -65.95,-52.1 -66.07,-51.39 -66.53,-50.62 -67.99,-50.29 -70.14,-50.34 -72.36,-50.36 -74.21,-49.98 -75.66,-49.15 -76.91,-48.03 -78.21,-46.86 -79.67,-45.79 -81.31,-44.85 -83.1,-44 -84.93,-43.17 -86.57,-42.21 -87.81,-41.02 -88.63,-39.57 -89.43,-37.98 -90.76,-36.42 -92.85,-34.99 -95.56,-34.15 -63.49,-51.67 -63.91,-50.52 -63.9,-49.73 -63.88,-48.65 -63.82,-47.32 -63.65,-45.83 -63.35,-44.22 -63.01,-42.53 -62.71,-40.8 -62.54,-39.11 -62.54,-37.53 -62.7,-36.1 -63.01,-34.79 -63.37,-33.58 -63.74,-32.39 -64.06,-31.18 -64.29,-29.92 -64.41,-28.58 -64.38,-27.14 -64.16,-25.55 -63.77,-23.83 -63.32,-22.06 -62.94,-20.37 -62.65,-18.89 -62.52,-17.88" fill="none" stroke="rgb(0, 0, 0)" stroke-width="2" stroke-linejoin="round" filter="url(#fuzzy)" /><polyline points="-99.12,-44.12 -94.68,-42.71 -93.18,-43.74 -92.42,-45.34 -91.21,-46.64 -89.28,-47.47 -86.8,-47.95 -84.01,-48.27 -81.14,-48.55 -78.43,-48.92 -76.18,-49.5 -74.66,-50.38 -73.77,-51.49 -72.95,-52.49 -71.5,-52.98 -69.12,-52.7 -66.32,-51.57 -64.64,-49.6" fill="none" stroke="rgb(0, 0, 0)" stroke-width="2" stroke-linejoin="round" filter="url(#fuzzy)" /><polyline points="-68.49,-27.81 -68.69,-29.62 -68.95,-31 -69.01,-32.37 -68.91,-33.76 -68.7,-35.1 -68.44,-36.42 -68.15,-37.72 -67.8,-39.06 -67.39,-40.44 -66.88,-41.83 -66.34,-43.16 -65.82,-44.42 -65.39,-45.59 -65.03,-46.74 -64.68,-48 -64.32,-49.53 -63.85,-51.27 -63.85,-51.27 -64.25,-49.49 -64.32,-47.75 -64.36,-46.28 -64.67,-45.09 -65.23,-44.01 -65.86,-42.86 -66.43,-41.56 -66.91,-40.17 -67.31,-38.78 -67.68,-37.47 -68.06,-36.21 -68.43,-34.96 -68.74,-33.67 -68.91,-32.32 -68.89,-30.97 -68.67,-29.61 -68.5,-27.81 -59.58,-73.55 -60.42,-71.37 -61.49,-69.2 -62.1,-67.24 -62.51,-65.46 -62.92,-63.79 -63.41,-62.21 -64,-60.71 -64.7,-59.33 -65.46,-58.08 -66.15,-56.89 -66.66,-55.68 -66.92,-54.41 -67,-53.09 -67.04,-51.8 -67.19,-50.57 -67.49,-49.42 -67.8,-48.28 -67.85,-47.02 -67.53,-45.47 -67.5,-43.67" fill="none" stroke="rgb(0, 0, 0)" stroke-width="2" stroke-linejoin="round" filter="url(#fuzzy)" /><polyline points="-68.24,-41.91 -68.01,-43.82 -68.17,-45.64 -68.74,-47.52 -69.7,-49.63 -70.8,-51.87 -71.75,-54.01 -72.32,-55.83 -72.46,-57.32 -72.23,-58.59 -71.77,-59.8 -71.19,-61.07 -70.63,-62.51 -70.26,-64.31 -70.33,-66.64 -70.89,-69.51 -71.73,-72.63 -72.41,-75.45 -72.79,-77.44 -74.04,-78.95 -69.25,-39.31 -69.04,-40.22 -68.73,-41.89 -68.27,-43.53 -67.69,-44.89 -67.09,-46.05 -66.54,-47.12 -66.06,-48.18 -65.66,-49.23 -65.31,-50.28 -64.97,-51.33 -64.61,-52.4 -64.19,-53.5 -63.68,-54.64 -63.08,-55.83 -62.42,-57.08 -61.73,-58.39 -61.07,-59.75 -60.44,-61.1 -59.83,-62.41 -59.21,-63.7 -58.41,-65.31 -56.55,-68.23" fill="none" stroke="rgb(0, 0, 0)" stroke-width="2" stroke-linejoin="round" filter="url(#fuzzy)" /><polyline points="-70.15,-36.81 -71.42,-38.56 -70.88,-39.64 -70.46,-41.03 -70.57,-42.93 -71.16,-45.2 -72.2,-47.73 -73.67,-50.48 -75.49,-53.41 -77.38,-56.37 -78.97,-59.09 -79.88,-61.27 -79.95,-62.78 -79.35,-63.81 -78.58,-64.84 -78.25,-66.38 -78.74,-68.78 -79.86,-72.31 -80.39,-77.43 -70.95,-34.99 -70.55,-36.53 -70.59,-38.02 -70.95,-39.73 -71.49,-41.72 -72.08,-43.88 -72.77,-46.2 -73.74,-48.7 -75.07,-51.39 -76.61,-54.16 -78.02,-56.79 -78.99,-59.05 -79.37,-60.86 -79.25,-62.29 -78.89,-63.6 -78.52,-65.01 -78.23,-66.66 -77.99,-68.52 -77.77,-70.65 -77.86,-73.28 -78.95,-76.75 -81.54,-81.4" fill="none" stroke="rgb(0, 0, 0)" stroke-width="2" stroke-linejoin="round" filter="url(#fuzzy)" /><polyline points="-71.89,-32 -72.75,-29.9 -73.81,-28.2 -74.74,-26.66 -75.32,-25.17 -75.61,-23.77 -75.8,-22.49 -76.06,-21.28 -76.44,-20.06 -76.9,-18.78 -77.35,-17.47 -77.73,-16.21 -78.08,-15.02 -78.46,-13.82 -78.85,-12.56 -79.04,-11.65" fill="none" stroke="rgb(0, 0, 0)" stroke-width="2" stroke-linejoin="round" filter="url(#fuzzy)" /><polyline points="74.55,-22.91 74.06,-25.5 73.69,-27.5 73.55,-29.31 73.66,-31.12 73.96,-32.98 74.29,-34.79 74.44,-36.44 74.3,-37.86 73.9,-39.09 73.38,-40.26 72.9,-41.49 72.56,-42.86 72.37,-44.36 72.29,-45.93 72.25,-47.5 72.22,-49.05 72.14,-50.61 71.99,-52.18 71.76,-53.8 71.39,-55.56 70.84,-57.59 70.53,-59.82 74,-26.27 75.1,-28.32 75.04,-30.04 75.16,-31.81 75.16,-33.5 74.77,-34.98 74.13,-36.25 73.53,-37.45 73.15,-38.69 73.03,-40.06 73.1,-41.58 73.32,-43.28 73.68,-45.14 74.2,-47.11 74.81,-49.11 75.36,-51.08 75.74,-52.98 76.08,-54.89 76.84,-56.92 78.19,-59.08" fill="none" stroke="rgb(0, 0, 0)" stroke-width="2" stroke-linejoin="round" filter="url(#fuzzy)" /><polyline points="72.83,-30.02 74.61,-28.31 77.11,-27.16 79.06,-26.21 80.63,-25.44 81.94,-24.65 82.74,-23.63 82.83,-22.33 82.34,-20.8 81.73,-19.19 81.45,-17.62 81.81,-16.15 82.82,-14.78 84.25,-13.5 85.78,-12.25 87.11,-10.97 88.1,-9.61 88.79,-8.14 89.4,-6.59 90.16,-5.01 91.17,-3.43 92.36,-1.85 93.59,-0.3 94.95,1.27 96.13,3.69" fill="none" stroke="rgb(0, 0, 0)" stroke-width="2" stroke-linejoin="round" filter="url(#fuzzy)" /><polyline points="72.83,-30.02 73.87,-31.54 75.87,-34.13 77.61,-36.7 78.52,-38.77 78.63,-40.34 78.19,-41.58 77.55,-42.72 77.08,-44.06 77.05,-45.75 77.48,-47.76 78.15,-49.91 78.75,-52 79.19,-54 79.6,-56.08 80.23,-58.45 81.14,-61.2 82.06,-64.23 82.63,-67.3 82.57,-69.99 81.66,-71.64" fill="none" stroke="rgb(0, 0, 0)" stroke-width="2" stroke-linejoin="round" filter="url(#fuzzy)" /><polyline points="72.64,-30.49 71.9,-32.12 71.34,-33.68 70.85,-34.97 70.39,-36.11 69.94,-37.14 69.47,-38.14 68.96,-39.19 68.38,-40.33 67.79,-41.51 67.22,-42.66 66.7,-43.73 66.21,-44.79 65.7,-45.93 65.19,-47.08 64.7,-47.99" fill="none" stroke="rgb(0, 0, 0)" stroke-width="2" stroke-linejoin="round" filter="url(#fuzzy)" /><polyline points="71.13,-34.89 71.33,-34.1 71.85,-32.67 72.46,-31.2 73.08,-29.74 73.68,-28.26 74.21,-26.8 74.66,-25.46 75.04,-24.27 75.38,-23.18 75.72,-22.1 76.08,-20.96 76.46,-19.75 76.81,-18.54 77.12,-17.38 77.45,-16.21 77.9,-14.93 78.28,-13.9" fill="none" stroke="rgb(0, 0, 0)" stroke-width="2" stroke-linejoin="round" filter="url(#fuzzy)" /><polyline points="70.44,-36.83 71.14,-38.42 72.14,-40.03 72.18,-41.42 71.67,-42.76 71.33,-44.27 71.49,-46.04 72.11,-48.09 73.01,-50.35 73.92,-52.71 74.64,-55.05 75.05,-57.3 75.21,-59.49 75.31,-61.72 75.55,-64.08 75.95,-66.55 76.31,-69 76.4,-71.25 76.17,-73.31 75.87,-75.31 75.88,-77.54 76.35,-80.36 78.08,-84.88" fill="none" stroke="rgb(0, 0, 0)" stroke-width="2" stroke-linejoin="round" filter="url(#fuzzy)" /><polyline points="90.19,-6.42 88.52,-8.5 87.3,-10.12 86.65,-11.45 86.2,-12.77 85.64,-14.16 84.96,-15.6 84.31,-17.04 83.76,-18.44 83.27,-19.8 82.7,-21.09 81.99,-22.29 81.14,-23.41 80.28,-24.49 79.48,-25.6 78.7,-26.78 77.83,-28.04 76.77,-29.35 75.58,-30.67 74.53,-32.06 73.82,-33.56 73.25,-35.01 72.08,-35.98 70.44,-36.83" fill="none" stroke="rgb(0, 0, 0)" stroke-width="2" stroke-linejoin="round" filter="url(#fuzzy)" /><polyline points="69.41,-38.99 70.15,-41.92 69.88,-43.79 69.62,-45.17 69.4,-46.45 69.26,-47.87 69.27,-49.53 69.44,-51.45 69.75,-53.59 70.09,-55.82 70.3,-57.97 70.28,-59.9 70,-61.59 69.59,-63.2 69.26,-64.93 69.16,-66.91 69.31,-69.14 69.56,-71.42 69.65,-73.48 69.35,-75.08 68.56,-76.25 67.5,-77.63 66.44,-81.21" fill="none" stroke="rgb(0, 0, 0)" stroke-width="2" stroke-linejoin="round" filter="url(#fuzzy)" /><polyline points="67.11,-44.51 67.48,-44.36 67.81,-45.47 68.17,-47.18 68.43,-49.01 68.42,-50.75 68.19,-52.43 67.95,-54.19 67.88,-56.12 68,-58.16 68.16,-60.21 68.23,-62.19 68.17,-64.09 68.05,-65.97 67.9,-67.83 67.72,-69.63 67.44,-71.31 67.07,-72.89 66.72,-74.54 66.59,-76.48 66.76,-78.8 67.16,-81.34 67.53,-83.63 67.89,-84.54" fill="none" stroke="rgb(0, 0, 0)" stroke-width="2" stroke-linejoin="round" filter="url(#fuzzy)" /><polyline points="67.38,-43.39 74.11,-47.27 74.86,-45.67 75.41,-43.93 76.11,-42.63 76.63,-41.43 76.88,-40.12 77.05,-38.68 77.41,-37.19 78.14,-35.75 79.35,-34.42 80.97,-33.19 82.82,-32.02 84.7,-30.88 86.42,-29.76 87.84,-28.64 88.98,-27.52 89.95,-26.35 90.94,-25.13 92.07,-23.87 93.29,-22.6 94.5,-21.36 95.82,-20.09 97.62,-18.73 100.39,-17.82" fill="none" stroke="rgb(0, 0, 0)" stroke-width="2" stroke-linejoin="round" filter="url(#fuzzy)" /><polyline points="67.32,-44 67.38,-43.62 67.68,-42.8 68.18,-41.54 68.73,-40.21 69.22,-39.01 69.64,-37.93 70.01,-36.87 70.35,-35.74 70.71,-34.51 71.09,-33.17 71.49,-31.76 71.92,-30.34 72.35,-28.9 72.81,-27.42 73.38,-26.05" fill="none" stroke="rgb(0, 0, 0)" stroke-width="2" stroke-linejoin="round" filter="url(#fuzzy)" /><polyline points="68.46,-74.42 68.38,-72.02 67.97,-69.59 67.36,-67.11 66.85,-64.63 66.59,-62.37 66.53,-60.39 66.51,-58.57 66.45,-56.75 66.49,-54.91 66.88,-53.25 67.71,-51.94 68.65,-50.86 68.99,-49.48 68.22,-47.16 67.32,-44 67.32,-44 68.32,-47.21 68.19,-48.9 68.16,-50.53 68.02,-52.21 67.63,-53.84 67.2,-55.44 66.99,-57.15 67.04,-59 67.16,-60.91 67.15,-62.82 67.11,-64.81 67.36,-67.06 68.05,-69.65 68.62,-72.26 67.94,-73.85" fill="none" stroke="rgb(0, 0, 0)" stroke-width="2" stroke-linejoin="round" filter="url(#fuzzy)" /><polyline points="66.1,-46.53 67.15,-45.02 68.23,-44.46 69.38,-43.87 70.48,-42.97 71.44,-41.89 72.34,-40.87 73.33,-40.01 74.52,-39.29 75.88,-38.6 77.24,-37.77 78.49,-36.73 79.66,-35.49 80.86,-34.22 81.95,-32.9 82.52,-30.88" fill="none" stroke="rgb(0, 0, 0)" stroke-width="2" stroke-linejoin="round" filter="url(#fuzzy)" /><polyline points="99.56,-23.1 98,-22.56 95.46,-23.17 93.62,-24.36 92.28,-25.66 91.11,-26.86 89.95,-27.96 88.78,-29.08 87.57,-30.33 86.32,-31.68 84.93,-33.04 83.31,-34.29 81.42,-35.37 79.38,-36.28 77.36,-37.08 75.56,-37.84 74.04,-38.62 72.8,-39.44 71.79,-40.37 71.03,-41.5 70.58,-42.89 70.43,-44.41 70.12,-45.6 68.6,-45.92 66.1,-46.53" fill="none" stroke="rgb(0, 0, 0)" stroke-width="2" stroke-linejoin="round" filter="url(#fuzzy)" /><polyline points="65.83,-47.62 66.15,-46.2 66.56,-44.86 66.77,-43.64 66.9,-42.34 67.06,-40.95 67.27,-39.55 67.46,-38.22 67.58,-36.96 67.65,-35.73 67.74,-34.48 67.91,-33.2 68.17,-31.86 68.47,-30.47 68.72,-29.03 68.85,-27.54 69,-26.01 69.6,-24.71" fill="none" stroke="rgb(0, 0, 0)" stroke-width="2" stroke-linejoin="round" filter="url(#fuzzy)" /><polyline points="65.28,-48.42 65.9,-47.56 66.59,-46.47 67.39,-45.46 68.43,-44.65 69.74,-43.95 71.28,-43.29 72.86,-42.63 74.35,-41.93 75.67,-41.17 76.83,-40.29 77.88,-39.3 78.91,-38.17 79.94,-36.93 81.03,-35.59 82.17,-34.17 83.35,-32.7 84.49,-31.19 85.42,-29.7 85.99,-28.3 86.26,-27.09 86.7,-26.05 88.05,-24.84 90.28,-23.3 61.74,-54.17 62.53,-53.01 63.56,-51.75 64.7,-50.59 65.77,-49.55 66.7,-48.56 67.52,-47.58 68.25,-46.6 68.93,-45.61 69.59,-44.57 70.29,-43.45 71.12,-42.29 72.06,-41.22 72.99,-40.41 73.7,-39.76 74.13,-38.76 70.4,-34.62 70.24,-35.15 69.92,-36.17 69.59,-37.21 69.24,-38.27 68.82,-39.4 68.35,-40.62 67.87,-41.87 67.4,-43.08 66.94,-44.25 66.48,-45.39 65.98,-46.54 65.44,-47.71 64.81,-48.93 64.11,-50.21 63.34,-51.55 62.6,-52.83 62.06,-53.86 61.95,-54.41" fill="none" stroke="rgb(0, 0, 0)" stroke-width="2" stroke-linejoin="round" filter="url(#fuzzy)" /><polyline points="58.15,-37.44 59.37,-39.4 59.72,-41.18 59.69,-42.67 59.57,-44.08 59.48,-45.62 59.45,-47.29 59.42,-48.97 59.35,-50.55 59.23,-52 59.07,-53.45 58.91,-55 58.74,-56.63 58.55,-58.15 58.29,-59.36 57.57,-60.77" fill="none" stroke="rgb(0, 0, 0)" stroke-width="2" stroke-linejoin="round" filter="url(#fuzzy)" /><polyline points="35.17,-71.84 36.77,-71.65 38.42,-71.17 39.95,-70.83 41.25,-70.6 42.25,-70.31 43.02,-69.83 43.71,-69.12 44.51,-68.25 45.54,-67.39 46.85,-66.7 48.38,-66.23 49.93,-65.87 51.33,-65.47 52.47,-65.01 53.34,-64.73 53.56,-65.46 53.04,-66.04 52.9,-65.51 53.38,-64.61 54.03,-63.72 54.72,-62.8 55.37,-61.84 55.97,-60.83 56.57,-59.82 57.21,-58.82 57.91,-57.83 58.66,-56.83 59.41,-55.82 60.11,-54.75 60.75,-53.62 61.33,-52.43 61.89,-51.16 62.47,-49.84 63.06,-48.51 63.62,-47.2 64.08,-45.89 64.43,-44.48 64.67,-42.94 64.77,-41.71 41.84,-85.7 41.81,-85.21 42.11,-84.27 42.8,-82.95 43.69,-81.39 44.62,-79.85 45.48,-78.52 46.18,-77.38 46.72,-76.28 47.21,-75.13 47.8,-73.89 48.6,-72.56 49.56,-71.17 50.54,-69.68 51.59,-68.05 53.04,-66.04 46.98,-72.33 49.12,-71.25 50.56,-70.37 52.03,-69.74 53.44,-69.21 54.64,-68.61 55.6,-67.87 56.42,-67.02 57.23,-66.18 58.21,-65.5 59.45,-65.1 60.99,-65 62.71,-65.07 64.47,-65.11 66.18,-64.92 67.9,-64.42 69.7,-63.7 71.47,-62.78" fill="none" stroke="rgb(0, 0, 0)" stroke-width="2" stroke-linejoin="round" filter="url(#fuzzy)" /><polyline points="45.63,-73.4 45.06,-73.15 43.98,-72.45 42.67,-72.11 41.46,-72.5 40.39,-73.38 39.43,-74.37 38.56,-75.21 37.76,-75.83 37,-76.26 36.24,-76.6 35.45,-76.94 34.61,-77.31 33.69,-77.74 32.69,-78.18 31.59,-78.58 30.38,-78.87 29.07,-79.02 27.67,-79.04 26.24,-78.97 24.87,-78.89 23.69,-78.81 22.69,-78.64 21.09,-78.17 42.08,-76.48 42.9,-75.01 43.64,-73.93 44.4,-73.34 45.14,-72.8 45.91,-72.04 46.74,-71 47.63,-69.77 48.56,-68.49 49.49,-67.24 50.36,-66.05 51.15,-64.91 51.85,-63.8 52.48,-62.71 53.07,-61.65 53.65,-60.62 54.22,-59.62 54.8,-58.63 55.37,-57.64 55.94,-56.61 56.48,-55.47 57,-54.18 57.44,-52.76 57.7,-51.41 57.51,-50.46" fill="none" stroke="rgb(0, 0, 0)" stroke-width="2" stroke-linejoin="round" filter="url(#fuzzy)" /><polyline points="39.62,-77.79 41.4,-76.38 42.7,-75.28 43.6,-74.29 44.26,-73.38 44.88,-72.52 45.61,-71.67 46.5,-70.77 47.5,-69.76 48.49,-68.62 49.39,-67.35 50.16,-66.03 50.83,-64.71 51.44,-63.49 52.04,-62.39 52.64,-61.37 53.19,-60.34 53.63,-59.21 53.97,-57.99 54.28,-56.77 54.52,-55.83 53.98,-55.81" fill="none" stroke="rgb(0, 0, 0)" stroke-width="2" stroke-linejoin="round" filter="url(#fuzzy)" /><polyline points="37.27,-79.63 37.79,-78.55 38.01,-77.6 38.56,-76.92 39.51,-76.31 40.64,-75.6 41.71,-74.7 42.57,-73.62 43.16,-72.42 43.58,-71.17 43.98,-69.91 44.54,-68.69 45.33,-67.52 46.29,-66.35 47.25,-65.1 48.09,-63.73 48.67,-62.37 48.32,-61.44" fill="none" stroke="rgb(0, 0, 0)" stroke-width="2" stroke-linejoin="round" filter="url(#fuzzy)" /><polyline points="36.74,-79.82 35.74,-80.21 34.59,-80.69 33.3,-80.81 31.88,-80.68 30.41,-80.56 28.96,-80.49 27.5,-80.3 26.02,-79.84 24.53,-79.11 23.06,-78.29 21.65,-77.59 20.32,-77.12 19.04,-76.87 17.83,-76.78 16.72,-76.8 15.76,-76.96 14.91,-77.19 14.09,-77.31 13.12,-77.11 11.94,-76.56 10.65,-75.74 9.74,-74.71 15.65,-110.06 14.93,-108.46 15.27,-106.01 16.2,-103.96 17.24,-102.22 18.16,-100.56 19,-99.01 19.89,-97.66 20.89,-96.51 22.03,-95.5 23.26,-94.6 24.53,-93.82 25.81,-93.2 27.04,-92.62 28.19,-91.82 29.2,-90.52 30.09,-88.7 30.94,-86.65 31.83,-84.8 32.81,-83.38 33.8,-82.26 34.75,-81.24 36.15,-80.24 15.39,-115.02 17.79,-114.42 19.28,-112.74 20.11,-110.08 20.73,-107.4 21.51,-105.39 22.58,-104.1 23.87,-103.16 25.15,-102.02 26.25,-100.3 27.1,-97.98 27.8,-95.34 28.51,-92.83 29.36,-90.78 30.41,-89.27 31.55,-88.07 32.64,-86.83 33.56,-85.29 34.33,-83.59 35.1,-82.07 36.15,-80.24 34.02,-81.41 35.53,-80.56 36.49,-80 37.22,-79.56 37.86,-79.18 38.5,-78.78 39.23,-78.29 40.1,-77.65 41.12,-76.87 42.2,-76.02 43.24,-75.18 44.16,-74.44 44.96,-73.81 45.71,-73.22 46.56,-72.54 47.64,-71.63 48.9,-70.5 49.74,-69.61" fill="none" stroke="rgb(0, 0, 0)" stroke-width="2" stroke-linejoin="round" filter="url(#fuzzy)" /><polyline points="34.01,-81.61 35.06,-82.24 36.47,-82.68 37.63,-82.75 38.71,-82.94 39.89,-83.49 41.23,-84.35 42.79,-85.32 44.62,-86.27 46.7,-87.16 48.89,-87.93 50.91,-88.44 52.51,-88.5 53.6,-88.1 54.47,-87.54 55.79,-87.34 58.3,-87.76 62.13,-87.86 32.62,-82.57 33.87,-82.4 35.03,-82.34 36.12,-82.09 37.11,-81.82 38.04,-81.67 38.97,-81.67 39.96,-81.76 41.05,-81.8 42.28,-81.7 43.64,-81.48 45.12,-81.25 46.62,-81.09 48.07,-81.04 49.42,-81.04 50.72,-81 52.06,-80.79 53.53,-80.26 55.08,-79.44 56.72,-78.75 58.87,-78.92 26.53,-85.61 28.4,-84.98 29.77,-84.29 31.01,-83.67 32.22,-83.07 33.41,-82.53 34.57,-82.12 35.73,-81.9 36.88,-81.89 37.99,-82 39.05,-82.13 40.06,-82.14 41.07,-81.96 42.12,-81.58 43.26,-81.04 44.47,-80.42 45.68,-79.78 46.8,-79.2 47.8,-78.67 48.74,-78.16 49.76,-77.58 51.07,-76.84 52.67,-75.97 54.03,-75.61 25.93,-85.88 24.13,-86.92 22.87,-88.64 21.76,-90.72 20.74,-92.68 19.78,-94.06 18.86,-94.67 17.89,-94.74 16.87,-94.76 15.83,-95.15 14.82,-95.96 13.95,-96.99 13.24,-98.12 12.59,-99.56 11.66,-101.68 10.19,-104.23 23.33,-86.46 25.71,-89.13 27.11,-90.4 28.12,-89.5 29.21,-88.15 30.51,-87.25 31.96,-86.85 33.46,-86.76 35,-86.89 36.63,-87.33 38.4,-88.26 40.37,-89.75 42.46,-91.67 44.56,-93.72 46.56,-95.5 48.41,-96.75 50.17,-97.37 51.92,-97.49 53.68,-97.25 55.35,-96.75 56.73,-96.04 57.8,-95.35 58.82,-95.11 60.41,-95.83 63.05,-97.08 17.34,-88.9 17.88,-88.68 19.13,-88.46 20.68,-88.49 22.29,-88.75 23.8,-88.97 25.15,-88.96 26.4,-88.7 27.64,-88.27 28.92,-87.8 30.27,-87.38 31.69,-87.08 33.15,-86.91 34.61,-86.82 36.02,-86.77 37.33,-86.66 38.51,-86.45 39.54,-86.17 40.44,-85.91 41.28,-85.76 42.08,-85.71 42.93,-85.51 44.05,-84.81 46.14,-83.86 52.84,-107.97 51.04,-105.65 48.85,-103.39 46.47,-101.02 44.32,-99.44 42.55,-98.93 41.03,-99.16 39.55,-99.56 37.92,-99.7 36.1,-99.36 34.14,-98.59 32.15,-97.59 30.26,-96.64 28.53,-95.91 26.93,-95.33 25.28,-94.55 23.43,-93.2 21.39,-91.38 19.44,-89.8 17.96,-89.06 17.34,-88.9" fill="none" stroke="rgb(0, 0, 0)" stroke-width="2" stroke-linejoin="round" filter="url(#fuzzy)" /><polyline points="17.09,-88.84 17.46,-89.25 18.28,-89.71 19.5,-89.88 20.93,-89.89 22.41,-89.8 23.81,-89.63 25.09,-89.33 26.31,-88.94 27.53,-88.52 28.81,-88.12 30.17,-87.74 31.57,-87.41 33.01,-87.16 34.5,-87.07 36.03,-87.2 37.55,-87.44 38.97,-87.58 40.13,-87.49 40.89,-87.36 -4.91,-93.66 -3.41,-93.27 -2.31,-93.05 -1.13,-92.9 0.01,-92.76 0.99,-92.63 1.85,-92.49 2.72,-92.32 3.69,-92.1 4.83,-91.85 6.15,-91.61 7.6,-91.38 9.05,-91.12 10.37,-90.81 11.45,-90.46 12.31,-90.11 13.16,-89.79 14.31,-89.46 15.7,-89.12" fill="none" stroke="rgb(0, 0, 0)" stroke-width="2" stroke-linejoin="round" filter="url(#fuzzy)" /><polyline points="-3.83,-88.24 -3.8,-88.48 -3.11,-88.58 -2.17,-88.71 -1.11,-88.91 -0.06,-89.19 0.9,-89.49 1.76,-89.79 2.61,-90.02 3.57,-90.16 4.68,-90.19 5.98,-90.12 7.41,-89.98 8.89,-89.8 10.24,-89.61 11.32,-89.47 12.1,-89.45 12.86,-89.54 14.39,-89.37" fill="none" stroke="rgb(0, 0, 0)" stroke-width="2" stroke-linejoin="round" filter="url(#fuzzy)" /><polyline points="8.86,-90.64 10.48,-90.86 11.65,-91.6 12.56,-92.39 13.5,-92.92 14.55,-93.16 15.64,-93.18 16.7,-93.06 17.73,-92.88 18.78,-92.71 19.96,-92.67 21.31,-92.81 22.81,-93.11 24.37,-93.5 25.89,-93.88 27.36,-94.22 28.8,-94.49 30.32,-94.62 31.95,-94.61 33.61,-94.76 34.98,-95.61" fill="none" stroke="rgb(0, 0, 0)" stroke-width="2" stroke-linejoin="round" filter="url(#fuzzy)" /><polyline points="4.51,-91.03 6.57,-92.33 8.55,-93.2 10.15,-93.12 11.41,-93.09 12.54,-93.55 13.68,-94.41 14.9,-95.42 16.17,-96.43 17.44,-97.38 18.71,-98.26 20.01,-99.02 21.38,-99.62 22.87,-100.08 24.48,-100.43 26.14,-100.75 27.74,-100.98 29.2,-101 30.55,-100.78 32.12,-100.64 34.31,-101.3 37.17,-103.6" fill="none" stroke="rgb(0, 0, 0)" stroke-width="2" stroke-linejoin="round" filter="url(#fuzzy)" /><polyline points="4.51,-91.03 3.81,-90.77 2.87,-90.75 2.11,-90.73 1.35,-90.65 0.47,-90.51 -0.54,-90.34 -1.63,-90.17 -2.75,-89.96 -3.89,-89.7 -5.07,-89.38 -6.27,-89.03 -7.47,-88.68 -8.63,-88.38 -9.75,-88.12 -10.82,-87.86 -11.9,-87.54 -12.99,-87.12 -14.08,-86.63 -15.09,-86.11 -15.99,-85.55 -16.99,-84.76 -19,-83.22 4.68,-90.94 2.77,-91.44 2.05,-92.03 1.39,-92.79 0.51,-93.71 -0.56,-94.58 -1.72,-95.33 -2.92,-96.02 -4.17,-96.77 -5.5,-97.62 -6.93,-98.56 -8.39,-99.56 -9.83,-100.56 -11.18,-101.51 -12.47,-102.33 -13.8,-103.06 -15.35,-103.83 -17.25,-104.63 -19.43,-104.41" fill="none" stroke="rgb(0, 0, 0)" stroke-width="2" stroke-linejoin="round" filter="url(#fuzzy)" /><polyline points="-10.49,-90.08 -12.86,-89.66 -15.27,-89.13 -17.71,-88.48 -20.32,-87.74 -23.09,-86.93 -25.94,-86.08 -28.8,-85.19 -31.7,-84.24 -34.69,-83.19 -37.81,-82.04 -41.02,-80.79 -44.19,-79.44 -47.15,-78.03 -49.82,-76.57 -52.19,-75.06 -54.33,-73.51 -56.37,-71.91 -58.4,-70.25 -60.55,-68.55 -62.91,-66.82 -65.57,-65.06 -68.54,-63.23 -71.73,-61.24 -74.77,-59.13 -76.87,-57.42" fill="none" stroke="rgb(0, 0, 0)" stroke-width="2" stroke-linejoin="round" filter="url(#fuzzy)" /><polyline points="75.34,-17.48 76.07,-14.01 76.82,-11 77.78,-8.26 78.82,-5.65 79.86,-3 80.97,-0.23 82.15,2.68 83.24,5.67 84.02,8.66 84.35,11.59 84.25,14.43 83.91,17.18 83.54,19.88 83.33,22.55 83.37,25.19 83.65,27.81 84.12,30.4 84.69,32.97 85.21,35.53 85.5,38.09 85.37,40.64 84.74,43.17 83.78,45.61 82.86,47.93 82.19,50.13 81.63,52.33 81.26,54.91" fill="none" stroke="rgb(0, 0, 0)" stroke-width="2" stroke-linejoin="round" filter="url(#fuzzy)" /><polyline points="-16.41,-88.92 -19.49,-87.86 -22.12,-87.07 -24.71,-86.31 -27.4,-85.49 -30.04,-84.58 -32.47,-83.58 -34.64,-82.5 -36.63,-81.33 -38.59,-80.07 -40.64,-78.73 -42.87,-77.32 -45.34,-75.82 -48.05,-74.24 -50.99,-72.57 -54.1,-70.82 -57.3,-69.02 -60.48,-67.19 -63.59,-65.34 -66.58,-63.44 -69.48,-61.46 -72.36,-59.36 -75.27,-57.16 -78.17,-54.88 -80.99,-52.53 -84.87,-49.6" fill="none" stroke="rgb(0, 0, 0)" stroke-width="2" stroke-linejoin="round" filter="url(#fuzzy)" /><polyline points="-19.99,-87.56 -23.86,-86.95 -25.48,-86.27 -27.17,-85.45 -29.38,-84.51 -31.99,-83.48 -34.73,-82.37 -37.37,-81.16 -39.85,-79.86 -42.18,-78.48 -44.47,-77.02 -46.8,-75.47 -49.2,-73.84 -51.69,-72.14 -54.24,-70.36 -56.84,-68.53 -59.51,-66.65 -62.28,-64.72 -65.17,-62.74 -68.16,-60.71 -71.18,-58.64 -74.14,-56.54 -76.92,-54.43 -79.45,-52.33 -81.7,-50.23 -83.72,-48.1 -85.65,-45.92 -87.67,-43.65 -89.9,-41.25 -92.4,-38.73 -95.08,-36.09 -97.76,-33.31 -100.31,-30.39 -102.66,-27.35 -104.85,-24.29 -106.97,-21.5 -108.75,-19.16" fill="none" stroke="rgb(0, 0, 0)" stroke-width="2" stroke-linejoin="round" filter="url(#fuzzy)" /><polyline points="-29.33,-84.17 -31.58,-83.2 -34.74,-81.91 -37.63,-80.52 -40.34,-79.06 -43.27,-77.57 -46.64,-76.06 -50.53,-74.53 -54.99,-72.94 -60.12,-71.3 -65.99,-69.61 -72.51,-67.85 -79.24,-66.04 -85.54,-64.16 -90.74,-62.2 -94.57,-60.16 -97.3,-58.05 -99.74,-55.91 -102.93,-53.77 -107.7,-51.63 -114.27,-49.47 -122.18,-47.25 -130.45,-44.92 -138.23,-42.46 -145.39,-39.89 -152.38,-37.26 -158.36,-34.59 -160.03,-31.62" fill="none" stroke="rgb(0, 0, 0)" stroke-width="2" stroke-linejoin="round" filter="url(#fuzzy)" /><polyline points="75.35,-18.54 92.62,-16.62 110.57,-13.92 119.22,-11.11 119.82,-8.4 115.9,-5.74 110.62,-3.06 105.93,-0.27 102.6,2.63 100.72,5.6 100.14,8.58 100.69,11.5 102.17,14.35 104.35,17.11 106.94,19.82 109.67,22.49 112.34,25.14 114.86,27.76 117.2,30.36 119.34,32.93 121.26,35.5 122.89,38.06 124.14,40.62 124.79,43.15 124.65,45.6 123.96,47.92 123.59,50.13 124.35,52.32 126.18,54.91" fill="none" stroke="rgb(0, 0, 0)" stroke-width="2" stroke-linejoin="round" filter="url(#fuzzy)" /><polyline points="75.35,-18.54 76.01,-16.61 77.73,-13.9 80.2,-11.08 82.71,-8.36 84.52,-5.69 85.32,-2.99 85.31,-0.19 84.95,2.72 84.7,5.69 84.78,8.67 85.18,11.6 85.74,14.45 86.27,17.23 86.62,19.95 86.74,22.63 86.63,25.28 86.34,27.91 85.88,30.52 85.26,33.1 84.48,35.67 83.63,38.23 82.85,40.77 82.31,43.27 82.07,45.71 82.04,48.07 81.97,50.38 81.57,52.66 80.63,54.97 79.17,57.33 77.47,59.71 75.76,62.17" fill="none" stroke="rgb(0, 0, 0)" stroke-width="2" stroke-linejoin="round" filter="url(#fuzzy)" /><polyline points="-42.7,-75.54 -44.54,-74.25 -46.48,-72.73 -48.64,-71.03 -50.88,-69.24 -53.06,-67.43 -55.16,-65.59 -57.28,-63.67 -59.44,-61.66 -61.6,-59.57 -63.69,-57.42 -65.63,-55.25 -67.37,-53.06 -68.95,-50.85 -70.42,-48.6 -71.85,-46.28 -73.33,-43.87 -74.87,-41.38 -76.48,-38.82 -78.15,-36.19 -79.85,-33.52 -81.54,-30.82 -83.18,-28.1 -84.68,-25.39 -85.98,-22.67 -87.03,-19.97 -87.84,-17.25 -88.56,-14.5 -89.33,-11.7 -90.25,-8.89 -91.25,-6.11 -92.15,-3.43 -92.89,-0.84 -94.2,2.23" fill="none" stroke="rgb(0, 0, 0)" stroke-width="2" stroke-linejoin="round" filter="url(#fuzzy)" /><polyline points="-57.5,-60.48 -58.68,-57.79 -58.21,-55.36 -57.58,-53.19 -56.95,-51.18 -56.22,-49.21 -55.62,-47.17 -55.35,-44.99 -55.34,-42.65 -55.3,-40.17 -54.97,-37.56 -54.25,-34.85 -53.21,-32.05 -51.95,-29.18 -50.49,-26.29 -48.65,-23.44 -46.16,-20.66 -42.89,-18.01 -39.04,-15.47 -35.15,-13.04 -31.84,-10.64 -29.43,-8.19 -27.68,-5.62 -26.06,-2.86 -24.16,0.11 -21.49,3.39 -16.36,7.24" fill="none" stroke="rgb(0, 0, 0)" stroke-width="2" stroke-linejoin="round" filter="url(#fuzzy)" /><polyline points="-67.5,-43.67 -69.53,-40.34 -72.74,-37.64 -77.41,-35.03 -82.36,-32.36 -86.07,-29.65 -87.93,-26.93 -88.35,-24.23 -88.28,-21.56 -88.63,-18.88 -90.02,-16.19 -92.82,-13.47 -97.08,-10.74 -102.63,-8.01 -109.07,-5.32 -115.81,-2.69 -122.12,-0.09 -127.38,2.52 -131.37,5.18 -134.41,7.98 -137.13,10.91 -139.83,13.91 -141.9,16.82 -142.12,19.51 -140.08,21.77" fill="none" stroke="rgb(0, 0, 0)" stroke-width="2" stroke-linejoin="round" filter="url(#fuzzy)" /><polyline points="-72.22,-31.62 -73.1,-29.19 -74.4,-26.42 -75.48,-23.69 -76.33,-21.05 -77.24,-18.4 -78.44,-15.71 -80.07,-12.98 -82.21,-10.23 -84.85,-7.5 -87.86,-4.82 -90.99,-2.17 -93.96,0.45 -96.63,3.11 -99.08,5.82 -101.46,8.61 -103.9,11.44 -106.31,14.27 -108.49,17.03 -110.33,19.65 -111.93,22.14 -113.56,24.55 -115.39,26.98 -117.37,29.6 -119.42,32.63 -122.12,35.89" fill="none" stroke="rgb(0, 0, 0)" stroke-width="2" stroke-linejoin="round" filter="url(#fuzzy)" /><polyline points="66.1,-46.53 68.86,-43.7 69.99,-41.23 71.48,-38.92 73.82,-36.53 77.09,-33.98 81.16,-31.3 85.68,-28.56 90.1,-25.84 94.01,-23.14 97.2,-20.44 99.65,-17.75 101.4,-15.03 102.49,-12.31 103.09,-9.57 103.52,-6.82 104.18,-4.08 105.44,-1.36 107.44,1.31 110.08,3.91 113.19,6.46 116.74,8.99 120.97,11.55 126.19,14.13 132.38,16.69 138.64,19.12 143.22,21.44 144.6,23.89 143.39,26.99 143.58,31.48" fill="none" stroke="rgb(0, 0, 0)" stroke-width="2" stroke-linejoin="round" filter="url(#fuzzy)" /><polyline points="65.28,-48.42 66.13,-46.2 66.91,-43.73 67.58,-41.31 68.15,-38.93 68.47,-36.48 68.39,-33.91 67.89,-31.23 67.1,-28.5 66.25,-25.77 65.54,-23.05 65.06,-20.33 64.81,-17.61 64.72,-14.88 64.68,-12.13 64.54,-9.38 64.14,-6.63 63.3,-3.89 61.93,-1.17 59.98,1.5 57.53,4.13 54.7,6.73 51.6,9.3 48.35,11.87 45.01,14.43 41.71,17.01 38.6,19.59 35.87,22.21 33.64,24.91 31.93,27.68 30.71,30.51 29.91,33.28 29.31,35.9 28.41,38.34 26.42,40.72 22.89,43.11 18.26,45.15" fill="none" stroke="rgb(0, 0, 0)" stroke-width="2" stroke-linejoin="round" filter="url(#fuzzy)" /><polyline points="57.57,-60.77 57.9,-59.05 56.93,-56.69 54.96,-54.24 53.64,-51.75 53.7,-49.24 54.74,-46.74 55.88,-44.27 56.46,-41.82 56.21,-39.36 55.28,-36.87 54.11,-34.31 53.17,-31.69 52.77,-29.02 52.92,-26.33 53.32,-23.63 53.46,-20.92 52.88,-18.22 51.35,-15.5 48.96,-12.77 46.05,-10.03 43.06,-7.27 40.37,-4.5 38.19,-1.74 36.55,0.96 35.31,3.56 34.16,6.04 32.67,8.48 30.46,11.05 27.79,13.98 25.94,17.11 25.22,19.04" fill="none" stroke="rgb(0, 0, 0)" stroke-width="2" stroke-linejoin="round" filter="url(#fuzzy)" /><polyline points="39.62,-77.79 42.52,-75.76 44.74,-74.12 46.87,-72.46 49.08,-70.71 51.27,-68.9 53.3,-67.08 55.12,-65.24 56.74,-63.36 58.25,-61.42 59.77,-59.37 61.36,-57.22 63.03,-54.97 64.76,-52.62 66.46,-50.21 68.1,-47.77 69.64,-45.32 71.08,-42.9 72.5,-40.51 73.96,-38.12 75.49,-35.67 77.06,-33.05 78.56,-30.22 79.82,-27.33 80.71,-24.98 80.99,-24.68" fill="none" stroke="rgb(0, 0, 0)" stroke-width="2" stroke-linejoin="round" filter="url(#fuzzy)" /><polyline points="38.37,-78.59 45.94,-77.99 46.52,-76.53 47.05,-74.91 49.35,-73.21 53.72,-71.37 59.6,-69.39 65.91,-67.33 71.46,-65.28 75.37,-63.26 77.43,-61.26 78.03,-59.26 77.93,-57.23 77.96,-55.14 78.7,-52.99 80.37,-50.78 82.89,-48.52 85.99,-46.22 89.38,-43.88 92.87,-41.5 96.39,-39.05 99.99,-36.53 103.7,-33.95 107.49,-31.3 111.23,-28.61 114.79,-25.93 118.21,-23.33 121.72,-20.87 125.54,-18.54 129.31,-16.18 131.97,-13.53 134.66,-10.57" fill="none" stroke="rgb(0, 0, 0)" stroke-width="2" stroke-linejoin="round" filter="url(#fuzzy)" /><polyline points="25.93,-85.88 28.01,-85.14 30.47,-83.99 32.97,-82.77 35.51,-81.57 38.12,-80.39 40.8,-79.21 43.63,-77.97 46.74,-76.63 50.28,-75.18 54.41,-73.59 59.13,-71.85 64.25,-69.97 69.37,-67.99 74.07,-65.98 78.1,-63.99 81.56,-62.04 84.77,-60.13 88.07,-58.21 91.64,-56.22 95.53,-54.14 99.72,-51.93 104.11,-49.61 108.93,-47.62" fill="none" stroke="rgb(0, 0, 0)" stroke-width="2" stroke-linejoin="round" filter="url(#fuzzy)" /><polyline points="25.93,-85.88 27.72,-85.12 30.05,-83.95 32.43,-82.71 34.74,-81.49 36.95,-80.29 39.04,-79.07 41.06,-77.77 43.03,-76.38 45.02,-74.85 47.12,-73.19 49.34,-71.4 51.67,-69.51 54.04,-67.54 56.36,-65.54 58.55,-63.53 60.58,-61.52 62.49,-59.49 64.32,-57.43 66.1,-55.33 67.86,-53.18 69.58,-50.98 71.27,-48.72 72.89,-46.43 74.45,-44.08 75.99,-41.69 77.54,-39.24 79.15,-36.72 80.8,-34.13 82.45,-31.47 83.99,-28.76 85.33,-26.04 86.4,-23.41 87.2,-20.96 87.87,-18.72 88.75,-16.49 90.45,-13.52" fill="none" stroke="rgb(0, 0, 0)" stroke-width="2" stroke-linejoin="round" filter="url(#fuzzy)" /><polyline points="23.33,-86.46 23.73,-87.44 20.88,-88.2 17.92,-88.77 15.27,-89.24 12.8,-89.65 10.41,-90 8.04,-90.3 5.65,-90.53 3.21,-90.69 0.67,-90.76 -1.95,-90.75 -4.68,-90.65 -7.52,-90.45 -10.46,-90.17 -13.54,-89.79 -16.76,-89.32 -20.1,-88.78 -23.49,-88.17 -26.87,-87.49 -30.2,-86.77 -33.49,-85.99 -36.83,-85.16 -40.29,-84.27 -43.92,-83.3 -47.77,-82.27 -52.02,-81.14 -56.59,-79.98" fill="none" stroke="rgb(0, 0, 0)" stroke-width="2" stroke-linejoin="round" filter="url(#fuzzy)" /><polyline points="14.39,-89.37 13.54,-89.78 11.4,-90.13 8.69,-90.42 5.91,-90.65 3.16,-90.8 0.36,-90.86 -2.51,-90.83 -5.43,-90.72 -8.37,-90.51 -11.36,-90.21 -14.55,-89.82 -18.14,-89.35 -22.27,-88.8 -26.97,-88.17 -32.09,-87.5 -37.31,-86.78 -42.29,-86.02 -46.83,-85.2 -51,-84.31 -55.02,-83.36 -59.15,-82.35 -64.34,-81.06" fill="none" stroke="rgb(0, 0, 0)" stroke-width="2" stroke-linejoin="round" filter="url(#fuzzy)" /><polyline points="12.77,-89.79 10.93,-90.41 7.22,-90.72 4,-90.85 1.41,-90.87 -0.93,-90.83 -3.27,-90.72 -5.72,-90.54 -8.27,-90.28 -10.93,-89.94 -13.7,-89.51 -16.61,-89 -19.71,-88.41 -23.04,-87.74 -26.61,-86.99 -30.44,-86.18 -34.46,-85.3 -38.6,-84.35 -42.75,-83.31 -46.77,-82.18 -50.61,-80.96 -54.23,-79.64 -57.71,-78.25 -61.16,-76.8 -64.67,-75.3 -68.36,-73.76 -72.34,-72.15 -76.8,-70.48 -81.93,-68.75 -87.62,-67.03 -93.06,-65.39 -97.03,-63.75 -99.46,-61.26" fill="none" stroke="rgb(0, 0, 0)" stroke-width="2" stroke-linejoin="round" filter="url(#fuzzy)" /><polyline points="4.68,-90.94 2.7,-90.99 0.36,-90.98 -2.16,-90.92 -4.61,-90.76 -6.94,-90.51 -9.15,-90.16 -11.3,-89.72 -13.44,-89.2 -15.6,-88.6 -17.76,-87.94 -19.9,-87.23 -21.97,-86.46 -23.98,-85.64 -25.92,-84.75 -27.82,-83.79 -29.72,-82.75 -31.63,-81.62 -33.56,-80.41 -35.46,-79.12 -37.31,-77.75 -39.08,-76.3 -40.75,-74.77 -42.38,-73.12 -44,-71.35 -45.62,-69.47 -47.16,-67.63 -48.36,-66.15 -48.57,-65.88" fill="none" stroke="rgb(0, 0, 0)" stroke-width="2" stroke-linejoin="round" filter="url(#fuzzy)" />
    </g>
    
        <g id="pointNose">
          <g id="rightNose"><circle r="1.11" cx="12.406" cy="10.117999999999999" stroke="black" fill="none" stroke-width="1.0" filter="url(#fuzzy)" /><circle r="2.878" cx="13.454" cy="10.27" stroke="black" fill="none" stroke-width="1.0" filter="url(#fuzzy)" /><circle r="2.364" cx="11.386000000000001" cy="6.6019999999999985" stroke="black" fill="none" stroke-width="1.0" filter="url(#fuzzy)" /><circle r="2.404" cx="11.458" cy="7.6019999999999985" stroke="black" fill="none" stroke-width="1.0" filter="url(#fuzzy)" /><circle r="2.426" cx="11.286000000000001" cy="9.218" stroke="black" fill="none" stroke-width="1.0" filter="url(#fuzzy)" /><circle r="2.848" cx="13.334" cy="10.254" stroke="black" fill="none" stroke-width="1.0" filter="url(#fuzzy)" /><circle r="1.214" cx="10.67" cy="8.562" stroke="black" fill="none" stroke-width="1.0" filter="url(#fuzzy)" /><circle r="1.568" cx="11.506" cy="7.35" stroke="black" fill="none" stroke-width="1.0" filter="url(#fuzzy)" /><circle r="1.248" cx="10.742" cy="7.234" stroke="black" fill="none" stroke-width="1.0" filter="url(#fuzzy)" /><circle r="2.8600000000000003" cx="11.162" cy="6.677999999999999" stroke="black" fill="none" stroke-width="1.0" filter="url(#fuzzy)" /></g>
          <g id="leftNose"><circle r="2.512" cx="-11.443999999999999" cy="3.111999999999999" stroke="black" fill="none" stroke-width="1.0" filter="url(#fuzzy)" /><circle r="2.258" cx="-10.044" cy="3.5679999999999996" stroke="black" fill="none" stroke-width="1.0" filter="url(#fuzzy)" /><circle r="2.232" cx="-8.796" cy="2.9479999999999986" stroke="black" fill="none" stroke-width="1.0" filter="url(#fuzzy)" /><circle r="2.286" cx="-10.44" cy="4.295999999999999" stroke="black" fill="none" stroke-width="1.0" filter="url(#fuzzy)" /><circle r="1.248" cx="-9.24" cy="2.0759999999999987" stroke="black" fill="none" stroke-width="1.0" filter="url(#fuzzy)" /><circle r="2.8040000000000003" cx="-9.168" cy="4.504" stroke="black" fill="none" stroke-width="1.0" filter="url(#fuzzy)" /><circle r="1.448" cx="-9.044" cy="3.063999999999999" stroke="black" fill="none" stroke-width="1.0" filter="url(#fuzzy)" /><circle r="1.472" cx="-11.336" cy="5.2559999999999985" stroke="black" fill="none" stroke-width="1.0" filter="url(#fuzzy)" /><circle r="1.424" cx="-10.504" cy="4.8519999999999985" stroke="black" fill="none" stroke-width="1.0" filter="url(#fuzzy)" /><circle r="2.6020000000000003" cx="-11.516" cy="4.395999999999999" stroke="black" fill="none" stroke-width="1.0" filter="url(#fuzzy)" /></g>
        </g>
      
    <g id="mouth">
      <polyline points="-21.2,27.8 -20.96,29.13 -20.71,30.41 -20.45,31.66 -20.19,32.87 -19.91,34.05 -19.63,35.19 -19.35,36.29 -19.05,37.35 -18.75,38.38 -18.44,39.37 -18.13,40.33 -17.81,41.25 -17.48,42.14 -17.15,43 -16.81,43.83 -16.46,44.62 -16.11,45.38 -15.75,46.11 -15.39,46.8 -15.02,47.47 -14.64,48.1 -14.26,48.71 -13.88,49.29 -13.48,49.84 -13.09,50.36 -12.69,50.85 -12.28,51.31 -11.87,51.75 -11.45,52.16 -11.03,52.54 -10.61,52.9 -10.18,53.24 -9.74,53.55 -9.31,53.83 -8.86,54.09 -8.42,54.33 -7.97,54.54 -7.51,54.74 -7.06,54.91 -6.6,55.05 -6.13,55.18 -5.67,55.29 -5.2,55.37 -4.72,55.44 -4.25,55.49 -3.77,55.52 -3.29,55.53 -2.8,55.52 -2.32,55.49 -1.83,55.45 -1.34,55.39 -0.84,55.32 -0.35,55.23 0.15,55.12 0.65,55 1.15,54.87 1.65,54.72 2.16,54.56 2.66,54.38 3.17,54.19 3.68,54 4.18,53.78 4.69,53.56 5.2,53.33 5.71,53.09 6.23,52.83 6.74,52.57 7.25,52.3 7.76,52.02 8.28,51.73 8.79,51.44 9.3,51.14 9.81,50.83 10.32,50.52 10.84,50.2 11.35,49.87 11.86,49.54 12.37,49.21 12.87,48.87 13.38,48.53 13.89,48.18 14.39,47.84 14.9,47.49 15.4,47.14 15.9,46.79 16.4,46.43 16.9,46.08 17.39,45.73 17.89,45.38 18.38,45.03 18.87,44.68 19.35,44.33 19.84,43.99 20.32,43.65 20.8,43.31 21.28,42.98 21.75,42.65 22.22,42.32 22.69,42 23.15,41.69 22.69,42 22.22,42.32 21.75,42.65 21.28,42.98 20.8,43.31 20.32,43.65 19.84,43.99 19.35,44.33 18.87,44.68 18.38,45.03 17.89,45.38 17.39,45.73 16.9,46.08 16.4,46.43 15.9,46.79 15.4,47.14 14.9,47.49 14.39,47.84 13.89,48.18 13.38,48.53 12.87,48.87 12.37,49.21 11.86,49.54 11.35,49.87 10.84,50.2 10.32,50.52 9.81,50.83 9.3,51.14 8.79,51.44 8.28,51.73 7.76,52.02 7.25,52.3 6.74,52.57 6.23,52.83 5.71,53.09 5.2,53.33 4.69,53.56 4.18,53.78 3.68,54 3.17,54.19 2.66,54.38 2.16,54.56 1.65,54.72 1.15,54.87 0.65,55 0.15,55.12 -0.35,55.23 -0.84,55.32 -1.34,55.39 -1.83,55.45 -2.32,55.49 -2.8,55.52 -3.29,55.53 -3.77,55.52 -4.25,55.49 -4.72,55.44 -5.2,55.37 -5.67,55.29 -6.13,55.18 -6.6,55.05 -7.06,54.91 -7.51,54.74 -7.97,54.54 -8.42,54.33 -8.86,54.09 -9.31,53.83 -9.74,53.55 -10.18,53.24 -10.61,52.9 -11.03,52.54 -11.45,52.16 -11.87,51.75 -12.28,51.31 -12.69,50.85 -13.09,50.36 -13.48,49.84 -13.88,49.29 -14.26,48.71 -14.64,48.1 -15.02,47.47 -15.39,46.8 -15.75,46.11 -16.11,45.38 -16.46,44.62 -16.81,43.83 -17.15,43 -17.48,42.14 -17.81,41.25 -18.13,40.33 -18.44,39.37 -18.75,38.38 -19.05,37.35 -19.35,36.29 -19.63,35.19 -19.91,34.05 -20.19,32.87 -20.45,31.66 -20.71,30.41 -20.96,29.13" fill="rgb(215,127,140)" stroke="black" stroke-width="3" stroke-linejoin="round" filter="url(#fuzzy)" />
    </g>
  </svg>
  