
  <svg viewBox="-100 -100 200 200" xmlns="http://www.w3.org/2000/svg" width="500" height="500" id="face-svg">
    <defs>
      <clipPath id="leftEyeClipPath">
        <polyline points="32.53,-7.25 32.32,-7.93 32.08,-8.61 31.82,-9.28 31.53,-9.95 31.21,-10.6 30.86,-11.25 30.49,-11.88 30.09,-12.49 29.66,-13.09 29.21,-13.66 28.72,-14.21 28.22,-14.74 27.69,-15.24 27.13,-15.71 26.55,-16.16 25.99,-16.93 25.4,-17.64 24.76,-18.3 24.09,-18.9 23.38,-19.44 22.63,-19.92 21.84,-20.34 21.02,-20.69 20.17,-20.99 19.28,-21.23 18.36,-21.41 17.41,-21.53 16.44,-21.59 15.44,-21.61 14.42,-21.57 13.38,-21.48 12.32,-21.34 11.25,-21.16 10.15,-20.94 9.05,-20.67 7.94,-20.37 6.82,-20.04 5.69,-19.67 4.56,-19.27 3.43,-18.85 2.29,-18.4 1.16,-17.93 0.04,-17.44 -1.08,-16.94 -2.19,-16.42 -3.29,-15.89 -4.38,-15.36 -5.46,-14.81 -6.52,-14.26 -7.57,-13.71 -8.6,-13.16 -9.61,-12.61 -10.6,-12.06 -11.58,-11.52 -12.53,-10.98 -13.45,-10.45 -14.36,-9.93 -15.24,-9.41 -16.1,-8.9 -16.93,-8.41 -17.74,-7.92 -18.53,-7.45 -19.29,-6.99 -20.03,-6.53 -20.74,-6.09 -21.44,-5.65 -22.11,-5.23 -22.76,-4.82 -23.38,-4.41 -23.99,-4.02 -24.58,-3.64 -25.14,-3.26 -25.68,-2.9 -26.21,-2.54 -26.71,-2.2 -27.19,-1.87 -27.65,-1.54 -28.08,-1.22 -28.5,-0.91 -30.67,6.58 -30.17,6.82 -29.66,7.08 -29.14,7.34 -28.61,7.6 -28.06,7.88 -27.5,8.15 -26.94,8.44 -26.36,8.73 -25.77,9.03 -25.17,9.33 -24.56,9.64 -23.95,9.95 -23.32,10.27 -22.68,10.59 -22.03,10.92 -21.37,11.26 -20.7,11.6 -20.01,11.94 -19.31,12.29 -18.6,12.64 -17.88,13 -17.15,13.36 -16.41,13.72 -15.65,14.09 -14.89,14.45 -14.12,14.81 -13.34,15.17 -12.55,15.53 -11.76,15.88 -10.95,16.23 -10.14,16.56 -9.32,16.89 -8.5,17.22 -7.67,17.52 -6.83,17.82 -5.99,18.1 -5.14,18.37 -4.28,18.62 -3.43,18.85 -2.56,19.06 -1.7,19.24 -0.82,19.41 0.05,19.55 0.93,19.66 1.81,19.74 2.7,19.8 3.59,19.83 4.48,19.82 5.37,19.78 6.26,19.71 7.16,19.6 8.06,19.46 8.96,19.28 9.86,19.06 10.76,18.81 11.66,18.52 12.56,18.19 13.46,17.83 14.36,17.43 15.25,16.99 16.14,16.51 17.03,16 17.91,15.46 18.79,14.88 19.52,14.5 20.25,14.1 20.96,13.68 21.67,13.24 22.37,12.79 23.05,12.32 23.73,11.84 24.39,11.34 25.04,10.83 25.67,10.31 26.28,9.78 26.88,9.24 27.45,8.7 28.01,8.15 28.54,7.59" />
      </clipPath>
      <clipPath id="rightEyeClipPath">
        <polyline points="-29.21,-6.4 -29.1,-7.24 -28.96,-8.08 -28.79,-8.92 -28.6,-9.75 -28.39,-10.57 -28.15,-11.37 -27.88,-12.16 -27.6,-12.93 -27.29,-13.67 -26.95,-14.39 -26.59,-15.08 -26.21,-15.75 -25.81,-16.38 -25.38,-16.98 -24.93,-17.54 -24.5,-18.51 -24.03,-19.41 -23.53,-20.25 -23,-21.01 -22.44,-21.69 -21.84,-22.3 -21.21,-22.83 -20.55,-23.29 -19.86,-23.67 -19.13,-23.98 -18.38,-24.21 -17.6,-24.37 -16.79,-24.46 -15.96,-24.49 -15.1,-24.45 -14.22,-24.34 -13.31,-24.18 -12.38,-23.96 -11.44,-23.68 -10.47,-23.36 -9.49,-22.99 -8.5,-22.57 -7.49,-22.11 -6.47,-21.62 -5.44,-21.09 -4.41,-20.54 -3.36,-19.95 -2.31,-19.34 -1.26,-18.71 -0.21,-18.07 0.84,-17.41 1.89,-16.73 2.94,-16.05 3.98,-15.37 5.01,-14.68 6.04,-13.99 7.05,-13.3 8.06,-12.61 9.05,-11.93 10.03,-11.26 10.99,-10.59 11.94,-9.94 12.86,-9.29 13.78,-8.66 14.67,-8.04 15.54,-7.44 16.39,-6.84 17.22,-6.26 18.02,-5.7 18.81,-5.14 19.57,-4.6 20.32,-4.08 21.04,-3.56 21.75,-3.06 22.43,-2.57 23.1,-2.1 23.74,-1.63 24.37,-1.18 24.97,-0.75 25.55,-0.32 26.11,0.09 26.65,0.49 27.16,0.88 27.66,1.26 32.23,9.44 31.66,9.66 31.08,9.89 30.5,10.12 29.9,10.36 29.29,10.61 28.68,10.86 28.06,11.12 27.43,11.39 26.79,11.66 26.15,11.94 25.5,12.22 24.84,12.51 24.18,12.81 23.51,13.11 22.84,13.42 22.16,13.73 21.46,14.05 20.76,14.37 20.06,14.7 19.34,15.03 18.63,15.37 17.9,15.71 17.18,16.05 16.45,16.4 15.72,16.75 14.98,17.1 14.25,17.44 13.52,17.79 12.78,18.13 12.05,18.47 11.31,18.8 10.58,19.13 9.84,19.44 9.11,19.75 8.38,20.05 7.64,20.33 6.91,20.6 6.18,20.86 5.44,21.09 4.71,21.31 3.97,21.51 3.24,21.69 2.5,21.84 1.76,21.97 1.02,22.07 0.27,22.14 -0.48,22.19 -1.24,22.2 -2,22.18 -2.77,22.13 -3.54,22.05 -4.32,21.93 -5.11,21.77 -5.91,21.58 -6.72,21.35 -7.53,21.09 -8.36,20.78 -9.19,20.44 -10.03,20.06 -10.88,19.64 -11.74,19.19 -12.61,18.7 -13.49,18.17 -14.37,17.61 -15.06,17.24 -15.75,16.84 -16.44,16.43 -17.12,15.99 -17.8,15.54 -18.47,15.07 -19.14,14.58 -19.8,14.07 -20.44,13.55 -21.08,13.02 -21.71,12.47 -22.32,11.91 -22.91,11.34 -23.49,10.76 -24.05,10.17" />
      </clipPath>
      <filter id="fuzzy">
        <feTurbulence id="turbulence" baseFrequency="0.05" numOctaves="3" type="noise" result="noise" />
        <feDisplacementMap in="SourceGraphic" in2="noise" scale="2" />
      </filter>
      <linearGradient id="rainbowGradient" x1="0%" y1="0%" x2="100%" y2="0%">
        <stop offset="0%" style="stop-color: rgb(220, 208, 186); stop-opacity: 1" />
        <stop offset="50%" style="stop-color: rgb(255, 165, 0); stop-opacity: 1" />
        <stop offset="100%" style="stop-color: rgb(0, 0, 0); stop-opacity: 1" />
      </linearGradient>
    </defs>
    <rect x="-100" y="-100" width="100%" height="100%" fill="rgb(139, 0, 0)" />
    <polyline id="faceContour" points="76.86,1.23 76.81,1.11 76.93,2.79 76.92,3.97 76.58,6.28 76.87,6.55 76.74,6.47 76.31,9.39 76.4,8.23 76.21,10.5 75.93,14.07 75.65,13.7 75.38,16.26 75.09,16.62 75.3,17.26 75.24,16.5 74.64,19.81 74.15,20.82 74.21,21.04 74.15,21.36 72.9,25.11 72.68,26.32 71.85,28.03 71.64,29.15 71.67,29.45 71.67,29.08 69.88,33.68 70.21,32.88 70.03,33.3 69.23,34.9 69.01,35.08 67.77,37.4 66.89,39.59 67.75,37.83 66.52,39.84 64.81,43.25 65.41,41.78 64.66,43.28 64.48,43.6 63.31,45.12 62.76,46.28 62.06,47.01 60.2,49.34 59.67,50.3 59.11,50.8 57.6,52.88 58.31,52 55.77,54.83 55.89,54.93 54.72,55.89 53.86,57.01 53.77,57.02 53.38,57.63 52.37,58.19 50.74,59.83 49.42,61.1 47.5,62.62 46.76,63.35 45.8,63.88 46.26,63.65 46.34,63.29 43.59,65.4 43.22,65.87 42.51,66.53 41.91,66.83 40.71,67.84 40.24,67.95 37.05,69.68 37.9,69.12 37.12,69.99 34.95,70.93 33.54,71.64 31.87,72.55 33.03,72.08 31.42,72.6 27.93,74.24 28.51,74.25 27.63,74.25 25.65,75.19 24.52,75.56 24.42,75.32 23.31,75.8 20.85,76.55 21.51,76.42 19.37,77.29 18.74,77.37 15.23,78.24 15.14,77.99 12.88,78.59 12.92,78.36 11.38,78.61 11.59,78.84 9.67,78.87 8.56,79.32 7.71,79.15 4.98,79.49 4.37,79.55 4.49,79.36 2.57,79.62 0.32,79.47 -1.13,79.83 -0.69,79.7 -2.32,79.75 -5.12,79.36 -2.88,79.44 -5.65,79.33 -6.56,79.39 -9.77,78.84 -8.4,79.24 -11.96,78.59 -12.45,78.75 -12.28,78.49 -13.93,78.24 -16.64,77.66 -15.91,78.1 -17.05,77.69 -20.53,76.64 -21.24,76.58 -20.9,76.76 -22.78,76.01 -22.9,76.11 -26.26,75.05 -27.25,74.54 -26.36,75.02 -29.04,73.91 -29.01,73.73 -29.03,73.71 -31.42,72.67 -33.25,71.69 -33.15,71.91 -36.1,70.26 -35.57,70.54 -38.6,68.85 -38.29,69.37 -39.48,68.46 -41.99,67.01 -41.57,66.96 -43.04,65.89 -44.03,65.63 -44.43,65 -43.28,65.76 -47.15,63.09 -48.22,61.99 -46.98,63.14 -48.89,61.48 -49.7,60.92 -52.23,58.66 -52.53,57.97 -52.33,58.43 -52.65,58.23 -54.34,56.49 -53.73,56.87 -55.35,55.5 -56.19,54.5 -58.14,51.95 -58.65,51.8 -59.25,50.89 -59.91,49.86 -60.75,49.06 -62.41,46.7 -61.88,47.12 -63.07,45.92 -63.21,45.04 -64.18,43.52 -64.96,42.41 -66,41.05 -66.13,41.02 -67.37,38.76 -67.6,38.38 -67.47,38.8 -68.34,36.81 -69.28,34.74 -69.4,34.75 -69.93,33.16 -70.77,31.17 -71.75,29.03 -71.81,28.64 -71.61,29.8 -72.07,28 -72.8,25.58 -73.2,25.15 -73.59,23.31 -73.19,23.98 -74.21,20.93 -74.45,20.73 -74.62,18.82 -74.99,17.27 -75.25,15.98 -75.89,12.67 -75.9,13.77 -75.99,13.63 -76.02,12.24 -76.59,9.04 -76.39,8.46 -76.59,6.01 -76.79,7.37 -76.58,6.08 -76.72,3.78 -77.03,1.62 -76.86,0.42 -76.96,-0.75 -76.8,-2.03 -77.05,-1.82 -76.68,-4.47 -76.94,-5.2 -76.89,-6.16 -76.84,-6.98 -76.6,-7.53 -76.08,-11.83 -76.01,-11.09 -76.11,-12.47 -75.85,-13.62 -75.69,-14.69 -75.17,-16.42 -74.82,-18.25 -74.92,-18.7 -74.18,-20.52 -74.45,-20.14 -74.02,-22.17 -73.84,-21.87 -72.89,-24.88 -72.56,-26.96 -72.57,-27.06 -71.92,-28.76 -72.05,-27.78 -70.57,-31.51 -70.03,-32.68 -70.28,-32.63 -69.61,-33.75 -69.12,-35.38 -68.29,-36.4 -67.92,-37.63 -68.22,-37.37 -66,-40.68 -66.32,-40.52 -65.32,-42.02 -65.2,-42.17 -65.11,-42.73 -64.23,-44.01 -62.18,-47.24 -62.88,-46.08 -61.33,-47.7 -60.71,-49.08 -59.67,-50.5 -59.51,-50.85 -58.86,-51.06 -57.24,-53.19 -57.52,-52.92 -56.08,-54.41 -53.79,-56.68 -54.47,-56.09 -53.52,-57.21 -52.19,-58.56 -52.83,-57.69 -51.92,-58.87 -48.89,-61.28 -49.22,-61.27 -47.96,-62.36 -48.57,-61.94 -46.44,-63.8 -45.65,-64.14 -44.44,-64.93 -42.97,-66.18 -42.86,-66.36 -40.1,-67.86 -39.39,-68.66 -39.54,-68.47 -38.73,-68.96 -35.7,-70.76 -37.09,-69.84 -33.78,-71.45 -34.81,-71.31 -32.86,-72.18 -31.75,-72.63 -31.72,-72.6 -28.66,-73.72 -28.46,-74.16 -26.47,-74.99 -25.1,-75.55 -24.46,-75.34 -24.5,-75.62 -22.02,-76.25 -21.37,-76.61 -20.24,-76.87 -19.21,-77.24 -17.93,-77.57 -17.41,-77.52 -16.12,-77.77 -14.82,-78.25 -14.53,-78.18 -12.26,-78.54 -10.09,-78.85 -10.57,-78.73 -8.47,-79.01 -7.79,-79.15 -6.2,-79.32 -5.48,-79.36 -4,-79.73 -2.94,-79.75 -0.97,-79.52 1.36,-79.68 2.12,-79.46 2.28,-79.74 3.47,-79.57 5.51,-79.48 5.07,-79.33 7.06,-79.41 9.13,-79.14 9.44,-79.01 11.46,-78.68 13.7,-78.59 13.96,-78.45 15.65,-77.98 15.63,-78.02 15.18,-78.29 18.12,-77.29 19.44,-77.11 20.4,-76.86 21.01,-76.74 22.47,-76.16 24.49,-75.5 23.97,-75.49 25.57,-75.35 26.66,-74.84 29.09,-73.8 30.81,-72.81 30.99,-73.13 29.79,-73.29 31.65,-72.62 34.36,-71.43 34.58,-71.08 37.18,-69.72 38.11,-69.36 37.87,-69.44 38.29,-69.15 41.43,-66.99 40.16,-68.07 43.29,-65.97 43.65,-65.79 44.01,-65.3 45.4,-64.4 45.45,-64.52 47.47,-62.55 47.21,-62.74 50.11,-60.37 49.75,-60.95 49.77,-60.98 50.83,-60.07 54.19,-56.86 53.91,-56.82 54.07,-56.91 55.43,-55.38 56.22,-54.57 58.08,-52.32 59.22,-51.33 58.75,-51.57 58.39,-51.89 60.07,-49.66 60.95,-48.86 62.74,-46.19 61.23,-48.13 63.3,-45.25 63.25,-45.14 64.34,-43.52 65.22,-42 65.99,-40.85 66.8,-39.8 66.9,-39.36 67.46,-38.02 68.22,-36.88 67.98,-37.49 69.28,-34.8 70.23,-32.77 69.79,-33.6 70.64,-31.75 71.03,-31.24 71.58,-29.79 72.51,-27.19 72.94,-25.64 72.77,-25.51 73.09,-25.39 73.14,-24.71 73.75,-23.45 74.83,-18.71 74.76,-18.6 74.74,-18.22 75.43,-16.33 75.02,-16.86 75.41,-14.93 75.69,-14.15 75.92,-12.6 76.12,-12.05 76.18,-11.3 76.62,-8.24 76.46,-7.79 76.74,-7.88 76.73,-5.77 77.03,-3.88 76.8,-1.69 76.85,-1.55 76.86,1.23 76.81,1.11" fill="rgb(255, 235, 205)" stroke="black" stroke-width="1.6666666666666665" stroke-linejoin="round" filter="url(#fuzzy)" />
    <g transform="translate(46.7 -17.62)">
      <polyline id="rightCountour" points="-29.21,-6.4 -29.1,-7.24 -28.96,-8.08 -28.79,-8.92 -28.6,-9.75 -28.39,-10.57 -28.15,-11.37 -27.88,-12.16 -27.6,-12.93 -27.29,-13.67 -26.95,-14.39 -26.59,-15.08 -26.21,-15.75 -25.81,-16.38 -25.38,-16.98 -24.93,-17.54 -24.5,-18.51 -24.03,-19.41 -23.53,-20.25 -23,-21.01 -22.44,-21.69 -21.84,-22.3 -21.21,-22.83 -20.55,-23.29 -19.86,-23.67 -19.13,-23.98 -18.38,-24.21 -17.6,-24.37 -16.79,-24.46 -15.96,-24.49 -15.1,-24.45 -14.22,-24.34 -13.31,-24.18 -12.38,-23.96 -11.44,-23.68 -10.47,-23.36 -9.49,-22.99 -8.5,-22.57 -7.49,-22.11 -6.47,-21.62 -5.44,-21.09 -4.41,-20.54 -3.36,-19.95 -2.31,-19.34 -1.26,-18.71 -0.21,-18.07 0.84,-17.41 1.89,-16.73 2.94,-16.05 3.98,-15.37 5.01,-14.68 6.04,-13.99 7.05,-13.3 8.06,-12.61 9.05,-11.93 10.03,-11.26 10.99,-10.59 11.94,-9.94 12.86,-9.29 13.78,-8.66 14.67,-8.04 15.54,-7.44 16.39,-6.84 17.22,-6.26 18.02,-5.7 18.81,-5.14 19.57,-4.6 20.32,-4.08 21.04,-3.56 21.75,-3.06 22.43,-2.57 23.1,-2.1 23.74,-1.63 24.37,-1.18 24.97,-0.75 25.55,-0.32 26.11,0.09 26.65,0.49 27.16,0.88 27.66,1.26 32.23,9.44 31.66,9.66 31.08,9.89 30.5,10.12 29.9,10.36 29.29,10.61 28.68,10.86 28.06,11.12 27.43,11.39 26.79,11.66 26.15,11.94 25.5,12.22 24.84,12.51 24.18,12.81 23.51,13.11 22.84,13.42 22.16,13.73 21.46,14.05 20.76,14.37 20.06,14.7 19.34,15.03 18.63,15.37 17.9,15.71 17.18,16.05 16.45,16.4 15.72,16.75 14.98,17.1 14.25,17.44 13.52,17.79 12.78,18.13 12.05,18.47 11.31,18.8 10.58,19.13 9.84,19.44 9.11,19.75 8.38,20.05 7.64,20.33 6.91,20.6 6.18,20.86 5.44,21.09 4.71,21.31 3.97,21.51 3.24,21.69 2.5,21.84 1.76,21.97 1.02,22.07 0.27,22.14 -0.48,22.19 -1.24,22.2 -2,22.18 -2.77,22.13 -3.54,22.05 -4.32,21.93 -5.11,21.77 -5.91,21.58 -6.72,21.35 -7.53,21.09 -8.36,20.78 -9.19,20.44 -10.03,20.06 -10.88,19.64 -11.74,19.19 -12.61,18.7 -13.49,18.17 -14.37,17.61 -15.06,17.24 -15.75,16.84 -16.44,16.43 -17.12,15.99 -17.8,15.54 -18.47,15.07 -19.14,14.58 -19.8,14.07 -20.44,13.55 -21.08,13.02 -21.71,12.47 -22.32,11.91 -22.91,11.34 -23.49,10.76 -24.05,10.17" fill="white" stroke="white" stroke-width="0" stroke-linejoin="round" filter="url(#fuzzy)" />
    </g>
    <g transform="translate(-34.36 -21.400000000000002)">
      <polyline id="leftCountour" points="32.53,-7.25 32.32,-7.93 32.08,-8.61 31.82,-9.28 31.53,-9.95 31.21,-10.6 30.86,-11.25 30.49,-11.88 30.09,-12.49 29.66,-13.09 29.21,-13.66 28.72,-14.21 28.22,-14.74 27.69,-15.24 27.13,-15.71 26.55,-16.16 25.99,-16.93 25.4,-17.64 24.76,-18.3 24.09,-18.9 23.38,-19.44 22.63,-19.92 21.84,-20.34 21.02,-20.69 20.17,-20.99 19.28,-21.23 18.36,-21.41 17.41,-21.53 16.44,-21.59 15.44,-21.61 14.42,-21.57 13.38,-21.48 12.32,-21.34 11.25,-21.16 10.15,-20.94 9.05,-20.67 7.94,-20.37 6.82,-20.04 5.69,-19.67 4.56,-19.27 3.43,-18.85 2.29,-18.4 1.16,-17.93 0.04,-17.44 -1.08,-16.94 -2.19,-16.42 -3.29,-15.89 -4.38,-15.36 -5.46,-14.81 -6.52,-14.26 -7.57,-13.71 -8.6,-13.16 -9.61,-12.61 -10.6,-12.06 -11.58,-11.52 -12.53,-10.98 -13.45,-10.45 -14.36,-9.93 -15.24,-9.41 -16.1,-8.9 -16.93,-8.41 -17.74,-7.92 -18.53,-7.45 -19.29,-6.99 -20.03,-6.53 -20.74,-6.09 -21.44,-5.65 -22.11,-5.23 -22.76,-4.82 -23.38,-4.41 -23.99,-4.02 -24.58,-3.64 -25.14,-3.26 -25.68,-2.9 -26.21,-2.54 -26.71,-2.2 -27.19,-1.87 -27.65,-1.54 -28.08,-1.22 -28.5,-0.91 -30.67,6.58 -30.17,6.82 -29.66,7.08 -29.14,7.34 -28.61,7.6 -28.06,7.88 -27.5,8.15 -26.94,8.44 -26.36,8.73 -25.77,9.03 -25.17,9.33 -24.56,9.64 -23.95,9.95 -23.32,10.27 -22.68,10.59 -22.03,10.92 -21.37,11.26 -20.7,11.6 -20.01,11.94 -19.31,12.29 -18.6,12.64 -17.88,13 -17.15,13.36 -16.41,13.72 -15.65,14.09 -14.89,14.45 -14.12,14.81 -13.34,15.17 -12.55,15.53 -11.76,15.88 -10.95,16.23 -10.14,16.56 -9.32,16.89 -8.5,17.22 -7.67,17.52 -6.83,17.82 -5.99,18.1 -5.14,18.37 -4.28,18.62 -3.43,18.85 -2.56,19.06 -1.7,19.24 -0.82,19.41 0.05,19.55 0.93,19.66 1.81,19.74 2.7,19.8 3.59,19.83 4.48,19.82 5.37,19.78 6.26,19.71 7.16,19.6 8.06,19.46 8.96,19.28 9.86,19.06 10.76,18.81 11.66,18.52 12.56,18.19 13.46,17.83 14.36,17.43 15.25,16.99 16.14,16.51 17.03,16 17.91,15.46 18.79,14.88 19.52,14.5 20.25,14.1 20.96,13.68 21.67,13.24 22.37,12.79 23.05,12.32 23.73,11.84 24.39,11.34 25.04,10.83 25.67,10.31 26.28,9.78 26.88,9.24 27.45,8.7 28.01,8.15 28.54,7.59" fill="white" stroke="white" stroke-width="0" stroke-linejoin="round" filter="url(#fuzzy)" />
    </g>
    <g transform="translate(46.7 -17.62)">
      <polyline id="rightUpper" points="-29.01,0.89 -29.14,0.34 -29.25,-0.27 -29.33,-0.93 -29.39,-1.63 -29.42,-2.37 -29.43,-3.13 -29.41,-3.93 -29.37,-4.74 -29.31,-5.57 -29.21,-6.4 -29.1,-7.24 -28.96,-8.08 -28.79,-8.92 -28.6,-9.75 -28.39,-10.57 -28.15,-11.37 -27.88,-12.16 -27.6,-12.93 -27.29,-13.67 -26.95,-14.39 -26.59,-15.08 -26.21,-15.75 -25.81,-16.38 -25.38,-16.98 -24.93,-17.54 -24.5,-18.51 -24.03,-19.41 -23.53,-20.25 -23,-21.01 -22.44,-21.69 -21.84,-22.3 -21.21,-22.83 -20.55,-23.29 -19.86,-23.67 -19.13,-23.98 -18.38,-24.21 -17.6,-24.37 -16.79,-24.46 -15.96,-24.49 -15.1,-24.45 -14.22,-24.34 -13.31,-24.18 -12.38,-23.96 -11.44,-23.68 -10.47,-23.36 -9.49,-22.99 -8.5,-22.57 -7.49,-22.11 -6.47,-21.62 -5.44,-21.09 -4.41,-20.54 -3.36,-19.95 -2.31,-19.34 -1.26,-18.71 -0.21,-18.07 0.84,-17.41 1.89,-16.73 2.94,-16.05 3.98,-15.37 5.01,-14.68 6.04,-13.99 7.05,-13.3 8.06,-12.61 9.05,-11.93 10.03,-11.26 10.99,-10.59 11.94,-9.94 12.86,-9.29 13.78,-8.66 14.67,-8.04 15.54,-7.44 16.39,-6.84 17.22,-6.26 18.02,-5.7 18.81,-5.14 19.57,-4.6 20.32,-4.08 21.04,-3.56 21.75,-3.06 22.43,-2.57 23.1,-2.1 23.74,-1.63 24.37,-1.18 24.97,-0.75 25.55,-0.32 26.11,0.09 26.65,0.49 27.16,0.88 27.66,1.26 28.13,1.62 28.58,1.98 29.01,2.32 29.42,2.66 29.8,2.98 30.17,3.3 30.51,3.6 30.84,3.9 31.14,4.19 31.43,4.47" fill="none" stroke="black" stroke-width="1.6666666666666665" stroke-linejoin="round" filter="url(#fuzzy)" />
      <polyline id="rightLower" points="-28.03,4.22 -27.81,4.79 -27.53,5.37 -27.22,5.96 -26.86,6.55 -26.47,7.16 -26.04,7.76 -25.58,8.37 -25.1,8.97 -24.58,9.57 -24.05,10.17 -23.49,10.76 -22.91,11.34 -22.32,11.91 -21.71,12.47 -21.08,13.02 -20.44,13.55 -19.8,14.07 -19.14,14.58 -18.47,15.07 -17.8,15.54 -17.12,15.99 -16.44,16.43 -15.75,16.84 -15.06,17.24 -14.37,17.61 -13.49,18.17 -12.61,18.7 -11.74,19.19 -10.88,19.64 -10.03,20.06 -9.19,20.44 -8.36,20.78 -7.53,21.09 -6.72,21.35 -5.91,21.58 -5.11,21.77 -4.32,21.93 -3.54,22.05 -2.77,22.13 -2,22.18 -1.24,22.2 -0.48,22.19 0.27,22.14 1.02,22.07 1.76,21.97 2.5,21.84 3.24,21.69 3.97,21.51 4.71,21.31 5.44,21.09 6.18,20.86 6.91,20.6 7.64,20.33 8.38,20.05 9.11,19.75 9.84,19.44 10.58,19.13 11.31,18.8 12.05,18.47 12.78,18.13 13.52,17.79 14.25,17.44 14.98,17.1 15.72,16.75 16.45,16.4 17.18,16.05 17.9,15.71 18.63,15.37 19.34,15.03 20.06,14.7 20.76,14.37 21.46,14.05 22.16,13.73 22.84,13.42 23.51,13.11 24.18,12.81 24.84,12.51 25.5,12.22 26.15,11.94 26.79,11.66 27.43,11.39 28.06,11.12 28.68,10.86 29.29,10.61 29.9,10.36 30.5,10.12 31.08,9.89 31.66,9.66 32.23,9.44 32.78,9.22 33.33,9.01 33.87,8.81 34.39,8.61 34.9,8.42 35.41,8.24 35.9,8.06 36.38,7.88 36.85,7.72 37.31,7.55" fill="none" stroke="black" stroke-width="2.2222222222222223" stroke-linejoin="round" filter="url(#fuzzy)" />
      <circle r="3.148" cx="0.9427970249917648" cy="-0.8006574721098949" stroke="black" fill="none" stroke-width="1.0" filter="url(#fuzzy)" clip-path="url(#rightEyeClipPath)" /><circle r="3.8040000000000003" cx="-0.33720297500823504" cy="-0.6956574721098949" stroke="black" fill="none" stroke-width="1.0" filter="url(#fuzzy)" clip-path="url(#rightEyeClipPath)" /><circle r="4.518" cx="1.1327970249917652" cy="-3.755657472109895" stroke="black" fill="none" stroke-width="1.0" filter="url(#fuzzy)" clip-path="url(#rightEyeClipPath)" /><circle r="3.542" cx="-0.8672029750082351" cy="-0.8406574721098949" stroke="black" fill="none" stroke-width="1.0" filter="url(#fuzzy)" clip-path="url(#rightEyeClipPath)" /><circle r="4.98" cx="0.6277970249917653" cy="-2.0806574721098947" stroke="black" fill="none" stroke-width="1.0" filter="url(#fuzzy)" clip-path="url(#rightEyeClipPath)" /><circle r="4.998" cx="-1.632202975008235" cy="-0.6256574721098946" stroke="black" fill="none" stroke-width="1.0" filter="url(#fuzzy)" clip-path="url(#rightEyeClipPath)" /><circle r="3.5" cx="1.4377970249917649" cy="-0.275657472109895" stroke="black" fill="none" stroke-width="1.0" filter="url(#fuzzy)" clip-path="url(#rightEyeClipPath)" /><circle r="3.162" cx="1.602797024991765" cy="0.099342527890105" stroke="black" fill="none" stroke-width="1.0" filter="url(#fuzzy)" clip-path="url(#rightEyeClipPath)" /><circle r="4.6739999999999995" cx="-1.492202975008235" cy="-3.630657472109895" stroke="black" fill="none" stroke-width="1.0" filter="url(#fuzzy)" clip-path="url(#rightEyeClipPath)" /><circle r="3.08" cx="0.7227970249917655" cy="-3.650657472109895" stroke="black" fill="none" stroke-width="1.0" filter="url(#fuzzy)" clip-path="url(#rightEyeClipPath)" />
      </g>
    <g transform="translate(-34.36 -21.400000000000002)">
      <polyline id="leftUpper" points="33.13,-1.25 33.19,-1.72 33.22,-2.23 33.22,-2.78 33.2,-3.36 33.16,-3.96 33.09,-4.59 32.99,-5.24 32.86,-5.9 32.71,-6.57 32.53,-7.25 32.32,-7.93 32.08,-8.61 31.82,-9.28 31.53,-9.95 31.21,-10.6 30.86,-11.25 30.49,-11.88 30.09,-12.49 29.66,-13.09 29.21,-13.66 28.72,-14.21 28.22,-14.74 27.69,-15.24 27.13,-15.71 26.55,-16.16 25.99,-16.93 25.4,-17.64 24.76,-18.3 24.09,-18.9 23.38,-19.44 22.63,-19.92 21.84,-20.34 21.02,-20.69 20.17,-20.99 19.28,-21.23 18.36,-21.41 17.41,-21.53 16.44,-21.59 15.44,-21.61 14.42,-21.57 13.38,-21.48 12.32,-21.34 11.25,-21.16 10.15,-20.94 9.05,-20.67 7.94,-20.37 6.82,-20.04 5.69,-19.67 4.56,-19.27 3.43,-18.85 2.29,-18.4 1.16,-17.93 0.04,-17.44 -1.08,-16.94 -2.19,-16.42 -3.29,-15.89 -4.38,-15.36 -5.46,-14.81 -6.52,-14.26 -7.57,-13.71 -8.6,-13.16 -9.61,-12.61 -10.6,-12.06 -11.58,-11.52 -12.53,-10.98 -13.45,-10.45 -14.36,-9.93 -15.24,-9.41 -16.1,-8.9 -16.93,-8.41 -17.74,-7.92 -18.53,-7.45 -19.29,-6.99 -20.03,-6.53 -20.74,-6.09 -21.44,-5.65 -22.11,-5.23 -22.76,-4.82 -23.38,-4.41 -23.99,-4.02 -24.58,-3.64 -25.14,-3.26 -25.68,-2.9 -26.21,-2.54 -26.71,-2.2 -27.19,-1.87 -27.65,-1.54 -28.08,-1.22 -28.5,-0.91 -28.9,-0.61 -29.28,-0.32 -29.64,-0.04 -29.98,0.24 -30.3,0.51 -30.6,0.77 -30.89,1.02 -31.16,1.27 -31.41,1.51 -31.64,1.75" fill="none" stroke="black" stroke-width="2.2222222222222223" stroke-linejoin="round" filter="url(#fuzzy)" />
      <polyline id="leftLower" points="32.24,2.3 32.04,2.77 31.79,3.27 31.5,3.78 31.17,4.3 30.81,4.83 30.42,5.38 29.99,5.93 29.54,6.48 29.05,7.04 28.54,7.59 28.01,8.15 27.45,8.7 26.88,9.24 26.28,9.78 25.67,10.31 25.04,10.83 24.39,11.34 23.73,11.84 23.05,12.32 22.37,12.79 21.67,13.24 20.96,13.68 20.25,14.1 19.52,14.5 18.79,14.88 17.91,15.46 17.03,16 16.14,16.51 15.25,16.99 14.36,17.43 13.46,17.83 12.56,18.19 11.66,18.52 10.76,18.81 9.86,19.06 8.96,19.28 8.06,19.46 7.16,19.6 6.26,19.71 5.37,19.78 4.48,19.82 3.59,19.83 2.7,19.8 1.81,19.74 0.93,19.66 0.05,19.55 -0.82,19.41 -1.7,19.24 -2.56,19.06 -3.43,18.85 -4.28,18.62 -5.14,18.37 -5.99,18.1 -6.83,17.82 -7.67,17.52 -8.5,17.22 -9.32,16.89 -10.14,16.56 -10.95,16.23 -11.76,15.88 -12.55,15.53 -13.34,15.17 -14.12,14.81 -14.89,14.45 -15.65,14.09 -16.41,13.72 -17.15,13.36 -17.88,13 -18.6,12.64 -19.31,12.29 -20.01,11.94 -20.7,11.6 -21.37,11.26 -22.03,10.92 -22.68,10.59 -23.32,10.27 -23.95,9.95 -24.56,9.64 -25.17,9.33 -25.77,9.03 -26.36,8.73 -26.94,8.44 -27.5,8.15 -28.06,7.88 -28.61,7.6 -29.14,7.34 -29.66,7.08 -30.17,6.82 -30.67,6.58 -31.16,6.34 -31.64,6.1 -32.1,5.88 -32.56,5.65 -33,5.44 -33.43,5.23 -33.85,5.03 -34.26,4.83 -34.65,4.64 -35.04,4.46" fill="none" stroke="black" stroke-width="2.2222222222222223" stroke-linejoin="round" filter="url(#fuzzy)" />
      <circle r="4.954" cx="2.6308335498430093" cy="12.458146254881324" stroke="black" fill="none" stroke-width="1.0" filter="url(#fuzzy)" clip-path="url(#leftEyeClipPath)" /><circle r="4.056" cx="5.27083354984301" cy="13.228146254881324" stroke="black" fill="none" stroke-width="1.0" filter="url(#fuzzy)" clip-path="url(#leftEyeClipPath)" /><circle r="3.192" cx="4.810833549843009" cy="11.518146254881325" stroke="black" fill="none" stroke-width="1.0" filter="url(#fuzzy)" clip-path="url(#leftEyeClipPath)" /><circle r="3.294" cx="4.74083354984301" cy="12.323146254881324" stroke="black" fill="none" stroke-width="1.0" filter="url(#fuzzy)" clip-path="url(#leftEyeClipPath)" /><circle r="3.814" cx="4.94083354984301" cy="11.668146254881325" stroke="black" fill="none" stroke-width="1.0" filter="url(#fuzzy)" clip-path="url(#leftEyeClipPath)" /><circle r="3.808" cx="6.025833549843011" cy="14.578146254881325" stroke="black" fill="none" stroke-width="1.0" filter="url(#fuzzy)" clip-path="url(#leftEyeClipPath)" /><circle r="4.6080000000000005" cx="3.0458335498430094" cy="15.133146254881325" stroke="black" fill="none" stroke-width="1.0" filter="url(#fuzzy)" clip-path="url(#leftEyeClipPath)" /><circle r="3.902" cx="6.640833549843009" cy="13.203146254881325" stroke="black" fill="none" stroke-width="1.0" filter="url(#fuzzy)" clip-path="url(#leftEyeClipPath)" /><circle r="4.458" cx="5.40083354984301" cy="10.908146254881324" stroke="black" fill="none" stroke-width="1.0" filter="url(#fuzzy)" clip-path="url(#leftEyeClipPath)" /><circle r="4.112" cx="7.255833549843011" cy="14.783146254881324" stroke="black" fill="none" stroke-width="1.0" filter="url(#fuzzy)" clip-path="url(#leftEyeClipPath)" />
    </g>
    <g id="hairs">
      <polyline points="7.06,-79.41 8.48,-79.15 9.45,-78.86 10.17,-78.49 10.52,-78.05 10.41,-77.54 9.82,-76.92 8.81,-76.19 7.46,-75.33 5.76,-74.33 3.72,-73.2 1.25,-71.93 -1.68,-70.51 -5.14,-68.93 -9.15,-67.18 -13.71,-65.26 -18.81,-63.18 -24.46,-60.93 -30.66,-58.51 -37.49,-55.91 -45.07,-53.05 -53.51,-49.81" fill="none" stroke="rgb(44, 34, 43)" stroke-width="2" stroke-linejoin="round" filter="url(#fuzzy)" /><polyline points="47.47,-62.55 47.83,-62.14 48.2,-61.53 48.09,-61.02 47.6,-60.48 46.78,-59.84 45.56,-59.16 43.84,-58.51 41.59,-57.91 38.79,-57.36 35.42,-56.86 31.46,-56.43 26.86,-56.1 21.64,-55.87 15.79,-55.71 9.34,-55.6 2.26,-55.51 -5.48,-55.43 -13.92,-55.4 -23.03,-55.49 -32.76,-55.72 -43.17,-55.99" fill="none" stroke="rgb(44, 34, 43)" stroke-width="2" stroke-linejoin="round" filter="url(#fuzzy)" /><polyline points="59.22,-51.33 58.81,-51.51 58.59,-51.38 58.38,-51.09 57.86,-50.97 56.83,-51.21 55.2,-51.88 52.98,-52.96 50.18,-54.42 46.79,-56.28 42.79,-58.6 38.11,-61.45 32.62,-64.89 26.13,-68.96 18.45,-73.65" fill="none" stroke="rgb(44, 34, 43)" stroke-width="2" stroke-linejoin="round" filter="url(#fuzzy)" /><polyline points="13.96,-78.45 15.01,-78.17 15.63,-78.03 16.37,-77.84 17.23,-77.61 18.08,-77.36 18.78,-77.12 19.29,-76.9 19.57,-76.71 19.62,-76.53 19.41,-76.39 18.93,-76.27 18.13,-76.18 16.96,-76.12 15.38,-76.12 13.36,-76.19 10.91,-76.31 8.06,-76.48 4.82,-76.69 1.15,-76.95 -3.09,-77.3 -8.19,-77.72" fill="none" stroke="rgb(44, 34, 43)" stroke-width="2" stroke-linejoin="round" filter="url(#fuzzy)" /><polyline points="-2.94,-79.75 -1.02,-79.62 0.62,-79.57 1.98,-79.53 3.22,-79.47 4.44,-79.4 5.68,-79.3 6.94,-79.2 8.19,-79.08 9.4,-78.96 10.49,-78.84 11.39,-78.74 12,-78.66 12.25,-78.62 12.11,-78.62 11.59,-78.65 10.75,-78.72 9.61,-78.81 8.2,-78.94 6.42,-79.12 4.28,-79.33" fill="none" stroke="rgb(44, 34, 43)" stroke-width="2" stroke-linejoin="round" filter="url(#fuzzy)" /><polyline points="25.57,-75.35 26.73,-74.71 27.49,-73.99 27.41,-73.4 26.49,-72.9 24.95,-72.36 22.89,-71.69 20.31,-70.87 17.07,-69.94 13.03,-68.94 8.1,-67.91 2.27,-66.84 -4.43,-65.73 -11.97,-64.55 -20.41,-63.26 -29.93,-61.74 -40.78,-59.86" fill="none" stroke="rgb(44, 34, 43)" stroke-width="2" stroke-linejoin="round" filter="url(#fuzzy)" /><polyline points="20.4,-76.86 21.19,-76.6 22.04,-76.23 22.64,-75.88 22.97,-75.55 23.1,-75.2 22.98,-74.83 22.52,-74.45 21.64,-74.1 20.29,-73.79 18.51,-73.5 16.31,-73.19 13.71,-72.86 10.63,-72.5 6.99,-72.14 2.71,-71.8 -2.22,-71.51 -7.77,-71.25 -13.89,-71.03 -20.59,-70.81 -28.01,-70.53" fill="none" stroke="rgb(44, 34, 43)" stroke-width="2" stroke-linejoin="round" filter="url(#fuzzy)" /><polyline points="5.51,-79.48 6.04,-79.31 7.72,-78.98 9.89,-78.48 12.32,-77.85 14.91,-77.12 17.57,-76.34 20.2,-75.5 22.75,-74.65 25.21,-73.79 27.6,-72.95 29.92,-72.15 32.11,-71.42 34.08,-70.8 35.93,-70.21" fill="none" stroke="rgb(44, 34, 43)" stroke-width="2" stroke-linejoin="round" filter="url(#fuzzy)" /><polyline points="-33.78,-71.45 -33.64,-71.59 -32.23,-71.96 -30.17,-72.36 -27.64,-72.79 -24.73,-73.23 -21.57,-73.68 -18.22,-74.09 -14.73,-74.43 -11.13,-74.7 -7.41,-74.92 -3.63,-75.13 0.16,-75.36 3.9,-75.6 7.58,-75.82 11.22,-76 14.8,-76.15 18.13,-76.36" fill="none" stroke="rgb(44, 34, 43)" stroke-width="2" stroke-linejoin="round" filter="url(#fuzzy)" /><polyline points="38.29,-69.15 39.95,-67.97 40.46,-67.41 40.43,-66.97 39.85,-66.63 38.68,-66.42 36.92,-66.3 34.59,-66.27 31.64,-66.32 28.02,-66.49 23.68,-66.82 18.58,-67.32 12.69,-67.98 5.99,-68.75 -1.59,-69.59 -10.22,-70.52 -20.1,-71.59" fill="none" stroke="rgb(44, 34, 43)" stroke-width="2" stroke-linejoin="round" filter="url(#fuzzy)" /><polyline points="60.95,-48.86 61.42,-47.56 60.61,-47.07 59.02,-46.61 56.62,-46.15 53.33,-45.77 49.07,-45.57 43.78,-45.58 37.39,-45.85 29.88,-46.36 21.22,-47.06 11.4,-47.96 0.46,-49.05 -11.57,-50.36 -24.71,-51.92 -38.93,-53.88" fill="none" stroke="rgb(44, 34, 43)" stroke-width="2" stroke-linejoin="round" filter="url(#fuzzy)" /><polyline points="25.57,-75.35 26.85,-74.69 27.93,-73.97 28.38,-73.38 28.27,-72.85 27.83,-72.28 27.17,-71.6 26.28,-70.78 25.07,-69.87 23.43,-68.9 21.32,-67.9 18.72,-66.86 15.64,-65.76 12.08,-64.58 8.03,-63.31 3.46,-61.95 -1.66,-60.51 -7.32,-58.99 -13.54,-57.42 -20.3,-55.76 -27.62,-53.99 -35.52,-52.08 -44.03,-50.06 -53.08,-48.19" fill="none" stroke="rgb(44, 34, 43)" stroke-width="2" stroke-linejoin="round" filter="url(#fuzzy)" /><polyline points="29.09,-73.8 30.06,-73.27 30.27,-73.07 30.38,-72.83 30.56,-72.43 30.7,-71.92 30.61,-71.4 30.14,-70.91 29.23,-70.47 27.87,-70.07 26.08,-69.7 23.86,-69.33 21.21,-68.96 18.12,-68.63 14.56,-68.32 10.5,-68.05 5.91,-67.81 0.8,-67.6 -4.85,-67.4 -11.05,-67.22 -17.78,-67.1 -25.11,-67.05 -33.25,-66.94" fill="none" stroke="rgb(44, 34, 43)" stroke-width="2" stroke-linejoin="round" filter="url(#fuzzy)" /><polyline points="19.44,-77.11 20.39,-76.83 21.59,-76.38 22.97,-75.82 24.45,-75.2 26,-74.53 27.64,-73.81 29.32,-73.04 30.98,-72.27 32.55,-71.52 33.99,-70.8 35.33,-70.13 36.6,-69.49 37.8,-68.89 38.89,-68.35 39.81,-67.91 40.49,-67.59 40.88,-67.42 40.96,-67.42 40.71,-67.59 40.11,-67.97 39.09,-68.62" fill="none" stroke="rgb(44, 34, 43)" stroke-width="2" stroke-linejoin="round" filter="url(#fuzzy)" /><polyline points="5.51,-79.48 5.87,-79.39 7.01,-79.29 8.28,-79.16 9.45,-79.02 10.43,-78.88 11.13,-78.76 11.44,-78.67 11.33,-78.61 10.77,-78.58 9.77,-78.57 8.3,-78.59 6.34,-78.64 3.8,-78.71 0.65,-78.82 -3.15,-78.96" fill="none" stroke="rgb(44, 34, 43)" stroke-width="2" stroke-linejoin="round" filter="url(#fuzzy)" /><polyline points="66.8,-39.8 67,-39.19 67.26,-38.54 67.45,-38.04 67.5,-37.68 67.38,-37.51 67.04,-37.62 66.43,-38.05 65.53,-38.84 64.33,-40 62.8,-41.54 60.92,-43.53 58.64,-46.06 55.95,-49.2 52.79,-52.98 49.14,-57.38 45.07,-62.26" fill="none" stroke="rgb(44, 34, 43)" stroke-width="2" stroke-linejoin="round" filter="url(#fuzzy)" /><polyline points="66.8,-39.8 66.87,-39.23 66.73,-38.68 66.26,-38.31 65.4,-38.11 64.12,-38.09 62.36,-38.31 60.08,-38.82 57.27,-39.6 53.91,-40.65 49.98,-41.96 45.46,-43.59 40.33,-45.6 34.56,-48.04 28.15,-50.88 21.09,-54.06 13.38,-57.53 4.96,-61.31 -4.24,-65.47 -14.21,-70.15" fill="none" stroke="rgb(44, 34, 43)" stroke-width="2" stroke-linejoin="round" filter="url(#fuzzy)" /><polyline points="58.75,-51.57 59.02,-51.13 59.83,-50.07 60.63,-49 61.27,-48.11 61.74,-47.37 62.1,-46.74 62.37,-46.19 62.53,-45.75 62.55,-45.46 62.39,-45.36 62.03,-45.5 61.44,-45.91 60.62,-46.58 59.56,-47.5 58.28,-48.67 56.76,-50.11 54.96,-51.84 52.84,-53.9 50.37,-56.34 47.54,-59.16 44.4,-62.34 41.12,-65.8" fill="none" stroke="rgb(44, 34, 43)" stroke-width="2" stroke-linejoin="round" filter="url(#fuzzy)" /><polyline points="-6.2,-79.32 -5.28,-79.43 -4.05,-79.55 -2.7,-79.61 -1.4,-79.62 -0.31,-79.61 0.45,-79.58 0.88,-79.54 1,-79.47 0.81,-79.37 0.3,-79.25 -0.57,-79.1 -1.89,-78.92 -3.73,-78.71 -6.15,-78.47 -9.19,-78.2 -12.89,-77.88" fill="none" stroke="rgb(44, 34, 43)" stroke-width="2" stroke-linejoin="round" filter="url(#fuzzy)" /><polyline points="18.12,-77.29 19.32,-77.05 20.51,-76.69 21.83,-76.2 23.26,-75.63 24.75,-75 26.31,-74.33 27.92,-73.62 29.56,-72.88 31.15,-72.15 32.66,-71.43 34.05,-70.76 35.34,-70.12 36.55,-69.52 37.69,-68.95 38.73,-68.45 39.61,-68.03 40.27,-67.72 40.67,-67.55 40.78,-67.52 40.61,-67.65 40.16,-67.95 39.45,-68.41 38.63,-68.97" fill="none" stroke="rgb(44, 34, 43)" stroke-width="2" stroke-linejoin="round" filter="url(#fuzzy)" /><polyline points="56.22,-54.57 57.63,-52.94 58.37,-52.08 58.8,-51.52 59.2,-50.94 59.65,-50.29 60.07,-49.65 60.39,-49.11 60.56,-48.71 60.57,-48.47 60.42,-48.38 60.1,-48.47 59.58,-48.77 58.82,-49.34 57.8,-50.2 56.5,-51.38 54.91,-52.88 53,-54.7 50.76,-56.85 48.16,-59.34 45.13,-62.24 41.61,-65.66" fill="none" stroke="rgb(44, 34, 43)" stroke-width="2" stroke-linejoin="round" filter="url(#fuzzy)" /><polyline points="-31.72,-72.6 -29.44,-73.42 -27.52,-73.91 -25.51,-74.18 -23.34,-74.23 -20.99,-74.13 -18.41,-73.93 -15.59,-73.64 -12.54,-73.28 -9.3,-72.85 -5.88,-72.33 -2.32,-71.74 1.39,-71.09 5.22,-70.39 9.15,-69.66 13.16,-68.93 17.21,-68.2 21.28,-67.46 25.31,-66.73 29.27,-66.02 33.13,-65.34 36.95,-64.62 40.81,-63.76 44.54,-62.86" fill="none" stroke="rgb(44, 34, 43)" stroke-width="2" stroke-linejoin="round" filter="url(#fuzzy)" /><polyline points="34.58,-71.08 36.17,-70.17 36.45,-69.71 35.93,-69.38 34.85,-69.02 33.22,-68.64 30.93,-68.27 27.9,-67.95 24.06,-67.7 19.35,-67.54 13.77,-67.44 7.29,-67.4 -0.12,-67.4 -8.52,-67.43 -17.97,-67.54 -28.41,-67.85" fill="none" stroke="rgb(44, 34, 43)" stroke-width="2" stroke-linejoin="round" filter="url(#fuzzy)" /><polyline points="54.07,-56.91 55.03,-55.7 55.48,-54.77 55.29,-54.19 54.33,-54.08 52.62,-54.37 50.24,-54.93 47.26,-55.71 43.63,-56.71 39.27,-58.01 34.1,-59.67 28.08,-61.72 21.16,-64.12 13.29,-66.9 4.43,-70.08 -5.35,-73.71" fill="none" stroke="rgb(44, 34, 43)" stroke-width="2" stroke-linejoin="round" filter="url(#fuzzy)" /><polyline points="11.46,-78.68 13.22,-78.42 14.83,-77.84 16.55,-77.03 18.55,-76.01 20.91,-74.77 23.65,-73.34 26.66,-71.75 29.84,-70.06 33.1,-68.28 36.42,-66.43 39.78,-64.51 43.11,-62.59 46.28,-60.79 49.2,-59.22 51.84,-57.91" fill="none" stroke="rgb(44, 34, 43)" stroke-width="2" stroke-linejoin="round" filter="url(#fuzzy)" /><polyline points="-10.57,-78.73 -8.74,-78.87 -6.77,-78.8 -4.46,-78.57 -1.76,-78.21 1.32,-77.73 4.75,-77.12 8.43,-76.4 12.24,-75.59 16.05,-74.74 19.79,-73.88 23.45,-73.02 27.01,-72.18 30.5,-71.38 34.06,-70.53" fill="none" stroke="rgb(44, 34, 43)" stroke-width="2" stroke-linejoin="round" filter="url(#fuzzy)" /><polyline points="66.9,-39.36 67.11,-38.45 66.6,-38.13 65.39,-38.15 63.45,-38.5 60.69,-39.28 57.06,-40.57 52.51,-42.38 47.02,-44.65 40.56,-47.38 33.11,-50.64 24.62,-54.54 15.06,-59.17 4.41,-64.52 -7.35,-70.47" fill="none" stroke="rgb(44, 34, 43)" stroke-width="2" stroke-linejoin="round" filter="url(#fuzzy)" /><polyline points="-28.46,-74.16 -26.81,-74.81 -25.59,-75.22 -24.57,-75.53 -23.57,-75.83 -22.58,-76.14 -21.64,-76.43 -20.79,-76.68 -20.08,-76.88 -19.53,-77 -19.16,-77.05 -18.99,-77.02 -19.04,-76.9 -19.35,-76.68 -19.93,-76.35 -20.84,-75.92 -22.09,-75.37 -23.7,-74.72 -25.67,-73.94 -28.04,-73.04 -30.83,-72.01 -34.15,-70.81" fill="none" stroke="rgb(44, 34, 43)" stroke-width="2" stroke-linejoin="round" filter="url(#fuzzy)" /><polyline points="-31.75,-72.63 -30.61,-72.83 -28.27,-73.16 -25.34,-73.36 -21.93,-73.36 -18.1,-73.15 -13.87,-72.76 -9.24,-72.25 -4.21,-71.66 1.18,-71.01 6.89,-70.27 12.89,-69.41 19.09,-68.46 25.43,-67.5 31.87,-66.57 38.43,-65.67" fill="none" stroke="rgb(44, 34, 43)" stroke-width="2" stroke-linejoin="round" filter="url(#fuzzy)" /><polyline points="30.81,-72.81 30.72,-73 30.87,-72.89 31.39,-72.53 31.98,-72.06 32.35,-71.62 32.32,-71.27 31.84,-71.04 30.91,-70.91 29.56,-70.86 27.81,-70.89 25.63,-70.99 22.97,-71.18 19.77,-71.49 15.97,-71.91 11.58,-72.46 6.61,-73.12 1.08,-73.9 -5.02,-74.83 -11.71,-75.94" fill="none" stroke="rgb(44, 34, 43)" stroke-width="2" stroke-linejoin="round" filter="url(#fuzzy)" /><polyline points="25.57,-75.35 27.05,-74.65 28.74,-73.8 30.21,-73.01 31.52,-72.26 32.89,-71.44 34.44,-70.51 36.16,-69.47 37.96,-68.37 39.7,-67.29 41.32,-66.27 42.78,-65.34 44.1,-64.51 45.27,-63.76 46.3,-63.12 47.13,-62.63 47.74,-62.29 48.11,-62.09 48.28,-61.99 48.22,-62.01 47.82,-62.28" fill="none" stroke="rgb(44, 34, 43)" stroke-width="2" stroke-linejoin="round" filter="url(#fuzzy)" /><polyline points="43.29,-65.97 43.52,-65.74 43.57,-65.45 43.34,-65.18 42.73,-64.97 41.67,-64.86 40.07,-64.9 37.85,-65.15 34.95,-65.63 31.37,-66.3 27.07,-67.14 21.99,-68.17 16.02,-69.44 9.08,-71.03 1.2,-72.93 -7.57,-75.08" fill="none" stroke="rgb(44, 34, 43)" stroke-width="2" stroke-linejoin="round" filter="url(#fuzzy)" /><polyline points="-33.78,-71.45 -33.74,-71.63 -32.62,-72.12 -31.06,-72.71 -29.26,-73.36 -27.32,-74.06 -25.36,-74.76 -23.48,-75.42 -21.79,-76 -20.35,-76.48 -19.19,-76.86 -18.32,-77.17 -17.74,-77.39 -17.49,-77.51 -17.6,-77.53" fill="none" stroke="rgb(44, 34, 43)" stroke-width="2" stroke-linejoin="round" filter="url(#fuzzy)" /><polyline points="40.16,-68.07 42.28,-66.64 43.52,-65.74 44.53,-64.96 45.51,-64.18 46.52,-63.36 47.53,-62.53 48.47,-61.76 49.31,-61.1 49.98,-60.56 50.5,-60.15 50.86,-59.84 51.03,-59.65 50.95,-59.66 50.55,-59.93 49.8,-60.5 48.74,-61.37 47.36,-62.5 45.65,-63.95" fill="none" stroke="rgb(44, 34, 43)" stroke-width="2" stroke-linejoin="round" filter="url(#fuzzy)" /><polyline points="41.43,-66.99 41.45,-67.12 42.36,-66.56 43.25,-65.94 44.03,-65.37 44.71,-64.83 45.33,-64.31 45.87,-63.83 46.27,-63.42 46.51,-63.12 46.58,-62.93 46.46,-62.84 46.16,-62.83 45.66,-62.93 44.89,-63.17 43.82,-63.59 42.41,-64.2 40.67,-65.01 38.6,-66.03 36.15,-67.31 33.31,-68.86 30.08,-70.67 26.49,-72.69 22.57,-74.88" fill="none" stroke="rgb(44, 34, 43)" stroke-width="2" stroke-linejoin="round" filter="url(#fuzzy)" /><polyline points="41.43,-66.99 41.3,-67.14 41.77,-66.62 41.94,-66.06 41.68,-65.55 41.02,-65.07 39.99,-64.59 38.58,-64.12 36.73,-63.68 34.43,-63.3 31.63,-62.97 28.33,-62.66 24.52,-62.38 20.17,-62.1 15.23,-61.86 9.65,-61.66 3.42,-61.49 -3.5,-61.36 -11.11,-61.27 -19.45,-61.26 -28.56,-61.37 -38.29,-61.63" fill="none" stroke="rgb(44, 34, 43)" stroke-width="2" stroke-linejoin="round" filter="url(#fuzzy)" /><polyline points="5.07,-79.33 6.8,-79.29 8.1,-79.1 9.07,-78.85 9.77,-78.55 10.12,-78.2 10.07,-77.82 9.62,-77.37 8.82,-76.86 7.7,-76.27 6.26,-75.57 4.49,-74.77 2.34,-73.87 -0.24,-72.87 -3.27,-71.77 -6.77,-70.58 -10.73,-69.29 -15.17,-67.9 -20.1,-66.38 -25.6,-64.68 -31.74,-62.85 -38.48,-61 -45.68,-59.25" fill="none" stroke="rgb(44, 34, 43)" stroke-width="2" stroke-linejoin="round" filter="url(#fuzzy)" /><polyline points="3.47,-79.57 4.82,-79.48 5.92,-79.38 7.13,-79.27 8.38,-79.14 9.53,-79.01 10.47,-78.88 11.1,-78.78 11.35,-78.71 11.17,-78.67 10.58,-78.68 9.59,-78.71 8.2,-78.77 6.28,-78.87 3.61,-79.06 0.07,-79.36" fill="none" stroke="rgb(44, 34, 43)" stroke-width="2" stroke-linejoin="round" filter="url(#fuzzy)" /><polyline points="-10.57,-78.73 -8.98,-78.95 -7.78,-79.11 -6.73,-79.25 -5.74,-79.35 -4.78,-79.4 -3.91,-79.4 -3.19,-79.34 -2.69,-79.24 -2.49,-79.09 -2.6,-78.89 -3,-78.64 -3.7,-78.33 -4.69,-77.96 -6,-77.5 -7.66,-76.96 -9.71,-76.33 -12.18,-75.63 -15.09,-74.86 -18.47,-74.03 -22.34,-73.14 -26.7,-72.18 -31.44,-71.23" fill="none" stroke="rgb(44, 34, 43)" stroke-width="2" stroke-linejoin="round" filter="url(#fuzzy)" /><polyline points="49.75,-60.95 50.25,-60.53 51.37,-59.47 52.52,-58.36 53.42,-57.45 54.09,-56.74 54.6,-56.16 54.96,-55.71 55.08,-55.46 54.89,-55.5 54.35,-55.87 53.47,-56.56 52.3,-57.52 50.84,-58.74 48.99,-60.32 46.62,-62.36 43.8,-64.81" fill="none" stroke="rgb(44, 34, 43)" stroke-width="2" stroke-linejoin="round" filter="url(#fuzzy)" /><polyline points="-44.44,-64.93 -43.17,-65.89 -41.71,-66.76 -40.06,-67.62 -38.34,-68.44 -36.53,-69.23 -34.61,-70.01 -32.58,-70.8 -30.46,-71.6 -28.31,-72.38 -26.15,-73.15 -24.02,-73.91 -21.93,-74.65 -19.94,-75.36 -18.07,-76.05 -16.35,-76.69 -14.81,-77.26 -13.51,-77.72 -12.47,-78.08 -11.71,-78.34 -11.09,-78.57" fill="none" stroke="rgb(44, 34, 43)" stroke-width="2" stroke-linejoin="round" filter="url(#fuzzy)" /><polyline points="40.16,-68.07 42.28,-66.64 43.49,-65.77 44.46,-65.02 45.43,-64.25 46.43,-63.43 47.44,-62.59 48.42,-61.79 49.33,-61.05 50.14,-60.39 50.85,-59.8 51.46,-59.28 51.92,-58.85 52.23,-58.53 52.34,-58.35 52.23,-58.35 51.9,-58.55 51.3,-58.98 50.41,-59.68 49.24,-60.66 47.78,-61.89 46.02,-63.37 43.76,-65.24" fill="none" stroke="rgb(44, 34, 43)" stroke-width="2" stroke-linejoin="round" filter="url(#fuzzy)" /><polyline points="24.49,-75.5 24.72,-75.38 25.85,-74.99 27.36,-74.4 28.89,-73.74 30.24,-73.14 31.36,-72.63 32.35,-72.17 33.27,-71.74 34.12,-71.34 34.77,-71.02 35.08,-70.86 34.94,-70.92 34.38,-71.19 33.53,-71.58 32.55,-72.04 31.29,-72.65" fill="none" stroke="rgb(44, 34, 43)" stroke-width="2" stroke-linejoin="round" filter="url(#fuzzy)" /><polyline points="-0.97,-79.52 0.57,-79.54 1.21,-79.42 1.41,-79.18 1.31,-78.8 0.92,-78.28 0.21,-77.6 -0.85,-76.76 -2.33,-75.74 -4.28,-74.54 -6.75,-73.16 -9.81,-71.61 -13.53,-69.87 -17.95,-67.93 -23.1,-65.73 -28.97,-63.25 -35.52,-60.47 -42.73,-57.42 -50.71,-54.13" fill="none" stroke="rgb(44, 34, 43)" stroke-width="2" stroke-linejoin="round" filter="url(#fuzzy)" /><polyline points="-12.26,-78.54 -10.61,-78.63 -8.84,-78.48 -6.56,-78.2 -3.78,-77.79 -0.58,-77.25 2.97,-76.58 6.84,-75.82 10.96,-74.96 15.27,-74.01 19.68,-73 24.07,-71.94 28.35,-70.87 32.49,-69.83 36.59,-68.74" fill="none" stroke="rgb(44, 34, 43)" stroke-width="2" stroke-linejoin="round" filter="url(#fuzzy)" /><polyline points="49.77,-60.98 51.08,-59.64 51.95,-58.38 52.07,-57.51 51.62,-56.85 50.76,-56.25 49.47,-55.7 47.7,-55.24 45.36,-54.92 42.46,-54.75 39,-54.68 35,-54.68 30.45,-54.74 25.32,-54.86 19.56,-55.05 13.15,-55.32 6.09,-55.67 -1.62,-56.11 -9.98,-56.67 -18.95,-57.39 -28.49,-58.36 -38.55,-59.62" fill="none" stroke="rgb(44, 34, 43)" stroke-width="2" stroke-linejoin="round" filter="url(#fuzzy)" /><polyline points="-37.09,-69.84 -35.03,-70.9 -33.67,-71.59 -32.25,-72.21 -30.67,-72.84 -28.97,-73.5 -27.23,-74.18 -25.57,-74.84 -24.06,-75.43 -22.8,-75.92 -21.83,-76.28 -21.17,-76.53 -20.83,-76.67 -20.85,-76.7 -21.27,-76.56" fill="none" stroke="rgb(44, 34, 43)" stroke-width="2" stroke-linejoin="round" filter="url(#fuzzy)" /><polyline points="40.16,-68.07 42.19,-66.69 43.14,-65.97 43.66,-65.47 43.99,-65.03 44.16,-64.61 44.17,-64.23 43.96,-63.93 43.5,-63.73 42.77,-63.63 41.74,-63.62 40.4,-63.68 38.72,-63.83 36.65,-64.09 34.2,-64.47 31.33,-64.99 28.05,-65.67 24.32,-66.52 20.11,-67.57 15.38,-68.84 10.11,-70.31 4.29,-71.94 -2.05,-73.71 -8.82,-75.64" fill="none" stroke="rgb(44, 34, 43)" stroke-width="2" stroke-linejoin="round" filter="url(#fuzzy)" /><polyline points="20.4,-76.86 21.36,-76.54 22.7,-76 24.13,-75.38 25.64,-74.7 27.29,-73.93 29.04,-73.09 30.8,-72.22 32.49,-71.35 34.08,-70.52 35.6,-69.72 37.07,-68.93 38.51,-68.16 39.88,-67.43 41.11,-66.76 42.14,-66.2 42.92,-65.79 43.45,-65.53 43.76,-65.42 43.88,-65.42 43.82,-65.53 43.61,-65.74" fill="none" stroke="rgb(44, 34, 43)" stroke-width="2" stroke-linejoin="round" filter="url(#fuzzy)" /><polyline points="66.9,-39.36 67.32,-38.33 67.43,-37.68 67.28,-37.16 66.84,-36.76 66.07,-36.56 64.94,-36.61 63.42,-36.89 61.51,-37.39 59.17,-38.11 56.38,-39.11 53.11,-40.43 49.35,-42.11 45.11,-44.13 40.39,-46.43 35.18,-49.01 29.44,-51.87 23.14,-55.11 16.21,-58.78 8.66,-62.91 0.55,-67.44 -8.1,-72.32" fill="none" stroke="rgb(44, 34, 43)" stroke-width="2" stroke-linejoin="round" filter="url(#fuzzy)" /><polyline points="5.07,-79.33 6.93,-79.28 8.64,-79.1 10.27,-78.86 11.88,-78.61 13.37,-78.36 14.67,-78.13 15.76,-77.92 16.66,-77.73 17.41,-77.57 18,-77.43 18.41,-77.33 18.56,-77.29 18.42,-77.31 18,-77.4 17.25,-77.56 16.07,-77.83 14.27,-78.23" fill="none" stroke="rgb(44, 34, 43)" stroke-width="2" stroke-linejoin="round" filter="url(#fuzzy)" /><polyline points="31.65,-72.62 33.42,-71.69 34.34,-70.93 34.67,-70.26 34.42,-69.68 33.65,-69.11 32.43,-68.51 30.76,-67.85 28.62,-67.14 25.95,-66.4 22.71,-65.64 18.88,-64.87 14.45,-64.07 9.42,-63.24 3.76,-62.35 -2.55,-61.41 -9.56,-60.44 -17.26,-59.5 -25.61,-58.6 -34.57,-57.73 -44.06,-56.89" fill="none" stroke="rgb(44, 34, 43)" stroke-width="2" stroke-linejoin="round" filter="url(#fuzzy)" /><polyline points="-31.75,-72.63 -30.9,-72.93 -29.46,-73.54 -28.01,-74.18 -26.7,-74.73 -25.59,-75.15 -24.71,-75.46 -24.05,-75.68 -23.63,-75.81 -23.5,-75.83 -23.77,-75.7 -24.53,-75.37 -25.84,-74.82 -27.72,-74.06 -30.06,-73.18" fill="none" stroke="rgb(44, 34, 43)" stroke-width="2" stroke-linejoin="round" filter="url(#fuzzy)" /><polyline points="-31.72,-72.6 -29.42,-73.46 -27.4,-74.11 -25.25,-74.63 -22.93,-75.03 -20.46,-75.36 -17.8,-75.67 -14.95,-75.97 -11.95,-76.27 -8.86,-76.57 -5.75,-76.85 -2.67,-77.12 0.32,-77.37 3.21,-77.62 6.03,-77.85 8.88,-78.04 11.72,-78.19" fill="none" stroke="rgb(44, 34, 43)" stroke-width="2" stroke-linejoin="round" filter="url(#fuzzy)" /><polyline points="-31.72,-72.6 -29.43,-73.43 -27.49,-73.99 -25.45,-74.34 -23.24,-74.51 -20.86,-74.57 -18.26,-74.56 -15.43,-74.5 -12.39,-74.39 -9.18,-74.23 -5.84,-74.03 -2.39,-73.78 1.16,-73.5 4.8,-73.19 8.51,-72.86 12.25,-72.52 15.99,-72.18 19.66,-71.86 23.22,-71.54 26.69,-71.22 30.17,-70.85 33.75,-70.33" fill="none" stroke="rgb(44, 34, 43)" stroke-width="2" stroke-linejoin="round" filter="url(#fuzzy)" /><polyline points="15.18,-78.29 17.53,-77.51 19.36,-76.87 21.07,-76.16 22.85,-75.33 24.74,-74.38 26.75,-73.33 28.86,-72.2 31.06,-71 33.33,-69.74 35.62,-68.44 37.84,-67.15 39.93,-65.91 41.89,-64.76 43.73,-63.69 45.48,-62.69 47.12,-61.77 48.57,-60.98 49.59,-60.51 49.91,-60.59" fill="none" stroke="rgb(44, 34, 43)" stroke-width="2" stroke-linejoin="round" filter="url(#fuzzy)" /><polyline points="-17.93,-77.57 -17.09,-77.62 -15.82,-77.78 -14.28,-77.95 -12.53,-78.1 -10.64,-78.23 -8.69,-78.34 -6.73,-78.42 -4.78,-78.5 -2.86,-78.56 -0.96,-78.62 0.89,-78.67 2.69,-78.71 4.38,-78.74 5.95,-78.76 7.36,-78.77 8.56,-78.77 9.51,-78.77 10.16,-78.79 10.41,-78.83 10.2,-78.9 9.61,-79.01" fill="none" stroke="rgb(44, 34, 43)" stroke-width="2" stroke-linejoin="round" filter="url(#fuzzy)" /><polyline points="69.28,-34.8 27.25,-53.79 -2.47,-60.2 -7.92,-63.52 -0.42,-65.72 9.51,-67.18 17.4,-67.92 22.33,-67.89 24.08,-67.22 22.33,-66.19 17.1,-65.26 9.23,-64.93 0.56,-65.45 -6.64,-66.66 -10.44,-67.98 -9.98,-68.83 -5.74,-68.93 0.41,-68.23 5.44,-66.58 6.11,-63.57 -2.32,-59.39 -52.83,-57.69" fill="none" stroke="rgb(44, 34, 43)" stroke-width="2" stroke-linejoin="round" filter="url(#fuzzy)" /><polyline points="45.45,-64.52 43.14,-62.34 31.48,-63.93 26.74,-63.34 27.7,-61.2 28.35,-59.57 26.59,-59.67 23.77,-61.45 21.11,-64.19 18.05,-67 13.25,-69.19 6.75,-70.35 0.95,-70.28 -0.37,-69.1 5.14,-67.36 15.39,-66.09 22.93,-66.49 18.05,-68.98 -4.68,-71.81 -39.39,-68.66" fill="none" stroke="rgb(44, 34, 43)" stroke-width="2" stroke-linejoin="round" filter="url(#fuzzy)" /><polyline points="-24.46,-75.34 -14.11,-71.49 12.86,-61.14 33.97,-52.09 40.93,-49.93 36.46,-53.25 27.21,-58.03 18.6,-61.6 13.08,-63.69 10.87,-65.25 11.52,-66.79 14.83,-67.74 20.75,-66.9 29.81,-63.39 44.74,-56.65 60.07,-49.66" fill="none" stroke="rgb(44, 34, 43)" stroke-width="2" stroke-linejoin="round" filter="url(#fuzzy)" /><polyline points="15.65,-77.98 24.57,-71.41 40.37,-60.96 48.72,-55.06 48.29,-54.79 42.66,-57.26 36.48,-58.92 32.84,-57.96 32.02,-54.87 31.74,-51.57 29,-50.04 22.24,-51.13 12.47,-54.31 2.89,-58.2 -2.9,-61.59 -3.13,-64.11 0.56,-66.28 3.21,-68.82 -0.22,-71.92 -8.95,-74.91 -12.82,-77.06 1.36,-79.68" fill="none" stroke="rgb(44, 34, 43)" stroke-width="2" stroke-linejoin="round" filter="url(#fuzzy)" /><polyline points="22.47,-76.16 24.3,-52.87 5.84,-53.84 2.76,-58.76 7.54,-63.46 10.49,-67.58 9.2,-70.78 5.86,-72.45 3.58,-72.24 4.54,-70.16 9.43,-66.55 17.11,-62.06 24.54,-57.73 27.94,-54.79 25.6,-54.27 22.39,-56.48 31.01,-60.15 49.77,-60.98" fill="none" stroke="rgb(44, 34, 43)" stroke-width="2" stroke-linejoin="round" filter="url(#fuzzy)" /><polyline points="2.12,-79.46 -7.96,-66.16 8.07,-63.65 21.19,-64.26 27.66,-65.64 27.61,-67.56 23.24,-69.59 18.31,-70.82 16.28,-70.33 18.53,-67.72 23.58,-63.38 27.78,-58.61 26.85,-55.19 18.16,-54.58 2.82,-56.81 -13.19,-60.27 -20.15,-62.75 -8.56,-62.64 25.17,-56.72 70.23,-32.77" fill="none" stroke="rgb(44, 34, 43)" stroke-width="2" stroke-linejoin="round" filter="url(#fuzzy)" /><polyline points="37.18,-69.72 25.25,-68.54 30.69,-61.39 27.66,-59.68 20.52,-61.91 17.39,-63.46 19.97,-62.11 24.94,-58.33 28.82,-53.71 30.33,-49.62 29.65,-47.01 27.11,-46.58 23.02,-48.47 17.46,-51.85 9.62,-54.73 5.71,-54.83 55.43,-55.38" fill="none" stroke="rgb(44, 34, 43)" stroke-width="2" stroke-linejoin="round" filter="url(#fuzzy)" /><polyline points="7.06,-79.41 0.53,-73.84 17.63,-66.39 32.26,-61.42 39.76,-59.32 42.1,-58.46 41.36,-58.06 38.19,-58.47 32.36,-60.29 24.04,-63.59 14.59,-67.66 6.28,-71.45 1.15,-74.12 0.04,-75.38 2.49,-75.45 7.42,-74.57 13.21,-72.5 15.97,-68.22 3.41,-60.58 -59.67,-50.5" fill="none" stroke="rgb(44, 34, 43)" stroke-width="2" stroke-linejoin="round" filter="url(#fuzzy)" /><polyline points="67.46,-38.02 47.69,-55.52 34.37,-59.09 14.59,-59.89 -3.45,-59.06 -13.27,-57.51 -14.9,-56.55 -11.23,-56.77 -4.35,-57.66 5.08,-58.23 16.37,-57.93 27.75,-57.05 36.58,-56.54 40.52,-57.25 38.31,-59.43 29.99,-62.6 16.68,-65.76 0.7,-67.95 -14.33,-68.86 -24.13,-69.3 -26.54,-70.85 -24.73,-73.74 -20.24,-76.87" fill="none" stroke="rgb(44, 34, 43)" stroke-width="2" stroke-linejoin="round" filter="url(#fuzzy)" /><polyline points="11.46,-78.68 -25.91,-67.04 -35.71,-65.74 -37.37,-66.08 -35.56,-66.42 -32.36,-66.36 -29.42,-65.94 -28.05,-65.32 -28.71,-64.52 -30.51,-63.56 -31.12,-62.44 -27.56,-61.11 -17.7,-59.32 -2.19,-57.29 13.72,-56.74 21.29,-60.56 18.43,-68.31 37.87,-69.44" fill="none" stroke="rgb(44, 34, 43)" stroke-width="2" stroke-linejoin="round" filter="url(#fuzzy)" /><polyline points="61.23,-48.13 38.46,-61.55 37.12,-62.18 29.23,-62.05 13.19,-62.62 -4.37,-63.7 -17.66,-65.03 -24.26,-66.19 -24.15,-66.68 -18.33,-66.26 -8.27,-65.13 4.08,-63.82 16.53,-62.85 27.18,-62.43 34.94,-62.41 39.55,-62.49 41.21,-62.56 40.07,-62.82 35.98,-63.73 28.4,-65.77 16.64,-69.07 0.71,-72.67 -16.26,-74.64 -21.37,-76.61" fill="none" stroke="rgb(44, 34, 43)" stroke-width="2" stroke-linejoin="round" filter="url(#fuzzy)" /><polyline points="-39.39,-68.66 -20.48,-72.01 -8.98,-73.05 -4.6,-72.33 -1.09,-69.93 2.61,-66.6 5.41,-63.66 6.89,-62.26 7.46,-62.7 7.73,-64.33 8.05,-66.06 8.74,-66.92 10.35,-66.37 13.6,-64.42 18.75,-61.51 24.9,-58.44 29.98,-56.2 31.53,-55.51 28.03,-56.4 19.61,-58.24 7.73,-60.43 -5,-63.27 -12.51,-67.54 -2.96,-72.42 30.99,-73.13" fill="none" stroke="rgb(44, 34, 43)" stroke-width="2" stroke-linejoin="round" filter="url(#fuzzy)" /><polyline points="-6.2,-79.32 -6.07,-59.95 15.32,-50.26 22.38,-48.06 19.52,-49.3 14.72,-52.03 11.45,-55.67 9.63,-59.52 7.98,-62.52 5.47,-63.79 1.99,-63.26 -1.32,-61.7 -2.03,-60.17 2.99,-59.4 14.7,-59.51 28.2,-60.11 31.95,-62.21 3.47,-79.57" fill="none" stroke="rgb(44, 34, 43)" stroke-width="2" stroke-linejoin="round" filter="url(#fuzzy)" /><polyline points="37.87,-69.44 32.98,-68.31 15.17,-67.93 -0.33,-68.79 -8,-69.98 -11.28,-70.48 -13.83,-70.05 -15.9,-69.02 -15.47,-67.72 -10.68,-66.15 -1.36,-64.13 10.83,-61.59 22.96,-58.81 31.8,-56.38 34.74,-55.02 30.77,-55.3 21.25,-57.46 10.16,-61.22 3.05,-65.58 4.37,-69.02 13.83,-70.28 23.8,-69.63 19.52,-70.03 -19.21,-77.24" fill="none" stroke="rgb(44, 34, 43)" stroke-width="2" stroke-linejoin="round" filter="url(#fuzzy)" /><polyline points="72.51,-27.19 2.52,-50.77 -14.22,-58.99 -15.12,-62.93 -11.84,-64.62 -5.22,-64.66 3.22,-63.91 10.39,-63.38 14.38,-63.68 15.9,-64.67 17.16,-65.62 19.86,-65.87 24.02,-65.33 28.14,-64.5 30.39,-64.1 29.67,-64.59 26.18,-65.91 21.32,-67.66 17.37,-69.26 16.75,-70.15 20.92,-69.65 29.38,-66.72 40.81,-59.68 56.05,-46.57 71.03,-31.24" fill="none" stroke="rgb(44, 34, 43)" stroke-width="2" stroke-linejoin="round" filter="url(#fuzzy)" /><polyline points="2.12,-79.46 14.8,-75.98 17.69,-73 16.96,-69.18 15.47,-65.12 17.33,-61.74 22.89,-60.02 28.81,-60.58 31.51,-63.16 29.64,-66.65 24.25,-69.43 17.78,-70.08 12.69,-67.98 9.69,-63.99 5.45,-60.54 -7.76,-59.91 -33.97,-60.28 -53.52,-57.21" fill="none" stroke="rgb(44, 34, 43)" stroke-width="2" stroke-linejoin="round" filter="url(#fuzzy)" /><polyline points="-28.66,-73.72 -4.91,-65.65 -10.23,-60.62 -18.94,-57.95 -24.54,-56.45 -22.77,-55.94 -14.39,-56.11 -4.37,-56.53 2.1,-57.23 3.01,-58.64 -0.22,-61.13 -4.61,-64.47 -7.88,-67.89 -9.15,-70.49 -8.3,-71.81 -5.35,-71.89 -1.12,-71.05 1.44,-69.56 -2.17,-67.98 -13.21,-67.99 -22.51,-71.93 -16.12,-77.77" fill="none" stroke="rgb(44, 34, 43)" stroke-width="2" stroke-linejoin="round" filter="url(#fuzzy)" /><polyline points="29.09,-73.8 -13.62,-65.38 -9.74,-63.55 2.63,-64.45 8.61,-66.1 8.75,-67.18 8.44,-66.91 11.44,-65.19 17.71,-62.58 24.49,-60.15 28.55,-58.82 28.04,-58.99 23.45,-60.34 17.28,-62.08 12.88,-63.44 12.7,-64.2 16.68,-64.96 22.05,-66.69 24.93,-69.57 21.93,-72.55 8.65,-74.61 -24.5,-75.62" fill="none" stroke="rgb(44, 34, 43)" stroke-width="2" stroke-linejoin="round" filter="url(#fuzzy)" /><polyline points="-31.75,-72.63 10.92,-68.49 28.53,-63.42 37.87,-60.28 40.99,-60.39 39.93,-61.86 36.54,-62.98 31.58,-63.43 24.89,-63.81 16.4,-64.71 6.96,-66.12 -1.55,-67.43 -7.06,-67.8 -8.13,-66.73 -3.92,-64.35 5.66,-61.68 16.29,-61.2 12.48,-66.84 -24.46,-75.34" fill="none" stroke="rgb(44, 34, 43)" stroke-width="2" stroke-linejoin="round" filter="url(#fuzzy)" /><polyline points="58.08,-52.32 11.09,-61.41 1.47,-66.47 -4.63,-70.07 -10.04,-72.32 -12.45,-73.2 -10.01,-72.86 -3.1,-71.53 5.74,-69.57 13.75,-67.33 20.15,-64.87 26.53,-61.91 34.62,-58.37 43.1,-55.18 46.96,-54.65 41.23,-59.41 28.4,-68.93 30.81,-72.81" fill="none" stroke="rgb(44, 34, 43)" stroke-width="2" stroke-linejoin="round" filter="url(#fuzzy)" /><polyline points="13.96,-78.45 -14.66,-66.55 -1.87,-67.62 15.94,-67.94 28.04,-66.44 33.25,-64.35 33.74,-62.57 32.25,-61.5 30.64,-61.01 29.34,-60.67 27.7,-60.2 25.13,-59.71 21.75,-59.62 17.84,-60.42 13.07,-62.55 7.15,-66.42 1.48,-71.86 -3.87,-76.98 -14.82,-78.25" fill="none" stroke="rgb(44, 34, 43)" stroke-width="2" stroke-linejoin="round" filter="url(#fuzzy)" /><polyline points="-60.71,-49.08 -15.2,-67.06 4.65,-72.18 14.88,-71.86 20.82,-69.16 21.3,-66.41 15.84,-64.95 7.22,-64.68 -0.14,-64.63 -2.98,-63.95 -0.93,-62.61 3.91,-61.27 8.84,-60.71 12.36,-61.17 14.44,-62.17 15.25,-62.97 13.91,-63.35 9.18,-63.91 2.65,-65.47 2.29,-67.38 20.9,-65.59 59.22,-51.33" fill="none" stroke="rgb(44, 34, 43)" stroke-width="2" stroke-linejoin="round" filter="url(#fuzzy)" /><polyline points="37.87,-69.44 28.71,-71.2 15.22,-70.45 3.03,-69.95 -3.74,-70.12 -7.3,-70.87 -10.18,-71.89 -12.95,-72.9 -15.2,-73.71 -16.77,-74.17 -17.9,-74.16 -18.56,-73.64 -17.96,-72.7 -14.83,-71.59 -8.22,-70.43 1.7,-69.05 13.17,-67.03 22.62,-64.11 24.17,-60.95 9.95,-59.12 -23.57,-59.05 -53.79,-56.68" fill="none" stroke="rgb(44, 34, 43)" stroke-width="2" stroke-linejoin="round" filter="url(#fuzzy)" /><polyline points="54.07,-56.91 60.45,-47.5 62.3,-43.46 61.11,-42.59 55.46,-46.27 46.05,-53.15 35.2,-60.74 25.65,-67.08 19.55,-71.01 18.13,-71.94 21.61,-69.69 28.36,-64.85 33.03,-59.61 26.13,-58.54 0.29,-66.09 -28.46,-74.16" fill="none" stroke="rgb(44, 34, 43)" stroke-width="2" stroke-linejoin="round" filter="url(#fuzzy)" /><polyline points="71.03,-31.24 35.86,-55.54 23.18,-60.49 16.27,-63.03 12.25,-66.01 10.43,-68.65 11.25,-70.04 14.48,-70.11 18.6,-69.32 21.68,-68.14 22.5,-66.79 20.94,-65.5 17.57,-64.6 13.05,-64.41 7.94,-64.99 2.86,-65.95 -1.39,-66.69 -4.12,-66.55 -4.83,-64.92 -2.38,-61.61 0.76,-59.62 -35.7,-70.76" fill="none" stroke="rgb(44, 34, 43)" stroke-width="2" stroke-linejoin="round" filter="url(#fuzzy)" /><polyline points="-39.54,-68.47 -6.89,-67.1 20.53,-62.16 32.06,-60.15 32.84,-61.08 28.69,-63.76 23.1,-67 18.04,-69.96 14.93,-72.09 14.6,-73.01 16.85,-72.58 20.4,-70.98 23.37,-68.71 24.12,-66.43 22.11,-64.63 18.25,-63.4 14.41,-62.44 12.1,-61.5 11.14,-60.77 9.84,-60.84 7.56,-62.08 7.54,-64.04 14.28,-66.08 20.36,-69.22 -6.2,-79.32" fill="none" stroke="rgb(44, 34, 43)" stroke-width="2" stroke-linejoin="round" filter="url(#fuzzy)" /><polyline points="-61.33,-47.7 -37.18,-60.7 -15.91,-67.4 -8.31,-69.19 -7.01,-68.94 -5.2,-68.02 -1.5,-66.98 2,-66.31 2.72,-66.28 0.09,-66.46 -3.09,-65.71 -1.71,-62.95 7.43,-58.24 19.83,-53.81 20.89,-53.73 -6.05,-59.02 -57.24,-53.19" fill="none" stroke="rgb(44, 34, 43)" stroke-width="2" stroke-linejoin="round" filter="url(#fuzzy)" /><polyline points="-35.7,-70.76 11.98,-58.99 8.98,-62.02 4.55,-64.76 8.49,-65.93 15.74,-66.7 20.64,-67.69 21.22,-68.75 18.71,-69.5 15.73,-69.73 14.52,-69.38 15.68,-68.54 17.85,-67.41 18.53,-66.27 15.67,-65.34 9.26,-64.58 1.82,-63.64 -2.66,-62.19 -1.57,-60.38 3.09,-59.08 3.79,-59.59 -7.54,-62.42 -29.61,-64 -58.86,-51.06" fill="none" stroke="rgb(44, 34, 43)" stroke-width="2" stroke-linejoin="round" filter="url(#fuzzy)" /><polyline points="-25.1,-75.55 -25.39,-72.48 -32.87,-66.97 -30.96,-64.41 -20.01,-64.81 -6.49,-66.56 3.69,-67.92 8.24,-67.98 8.4,-66.76 7.07,-64.99 6.42,-63.66 6.41,-63.53 5.25,-64.8 1.27,-66.87 -5.4,-68.66 -12.42,-69.07 -16.41,-67.54 -14.51,-64.04 -6.5,-59.1 -0.77,-55.78 -42.86,-66.36" fill="none" stroke="rgb(44, 34, 43)" stroke-width="2" stroke-linejoin="round" filter="url(#fuzzy)" /><polyline points="1.36,-79.68 3.69,-78.57 9.19,-76.2 13.42,-74.01 12.17,-72.23 7.31,-70.59 2.41,-68.99 -0.59,-67.55 -1.6,-66.39 -1.25,-65.57 -0.2,-65.14 0.81,-65.21 1.04,-65.76 0.22,-66.56 -0.85,-67.14 -0.52,-67.17 2.46,-66.76 7.39,-66.55 11.31,-67.16 10.93,-68.61 5.64,-70.18 -1.89,-71.26 -8.43,-73.04 2.28,-79.74" fill="none" stroke="rgb(44, 34, 43)" stroke-width="2" stroke-linejoin="round" filter="url(#fuzzy)" /><polyline points="-49.22,-61.27 -20.83,-66.02 0.37,-65.13 6.86,-62.16 5.02,-59.76 1.73,-59.04 -0.4,-59.46 -2.52,-59.98 -5.84,-60.02 -8.93,-59.72 -8.74,-59.56 -3.69,-60.13 4.39,-61.88 11.2,-64.87 12.64,-68.58 6.7,-72.03 -5.6,-74.44 -19.1,-75.39 -28.66,-73.72" fill="none" stroke="rgb(44, 34, 43)" stroke-width="2" stroke-linejoin="round" filter="url(#fuzzy)" /><polyline points="-20.24,-76.87 26.05,-62.22 32.41,-62.81 31.47,-64.56 32.01,-64.62 32.22,-64.19 29.68,-64.07 24.39,-63.88 18.28,-62.95 13.57,-61.02 10.82,-58.55 7.82,-56.62 1.14,-56.5 -9.86,-58.71 -20.15,-61.87 -21.21,-62.38 -3.29,-55.92 64.34,-43.52" fill="none" stroke="rgb(44, 34, 43)" stroke-width="2" stroke-linejoin="round" filter="url(#fuzzy)" /><polyline points="1.36,-79.68 -1.98,-74.15 0.45,-65.82 5.95,-62.34 10.85,-63.23 14.31,-64.99 15.28,-65.09 12.82,-63.11 7.07,-60.38 -0.51,-58.82 -7.49,-59.77 -11.71,-63.06 -12.88,-67.09 -13.07,-69.64 -14.76,-69.03 -16.97,-65.09 -14.25,-59.73 -8.09,-57.38 -46.44,-63.8" fill="none" stroke="rgb(44, 34, 43)" stroke-width="2" stroke-linejoin="round" filter="url(#fuzzy)" /><polyline points="44.01,-65.3 42.13,-60.47 33.11,-57.69 22.97,-60.53 17.49,-64.54 16.56,-67.13 17.38,-68.08 17.42,-68.1 16.21,-67.66 15.47,-66.76 17.15,-65.34 21.33,-63.74 25.4,-62.72 25.48,-63.03 19.24,-64.87 7.87,-67.53 -4.37,-69.83 -14.35,-70.6 -27.52,-67.11 -59.51,-50.85" fill="none" stroke="rgb(44, 34, 43)" stroke-width="2" stroke-linejoin="round" filter="url(#fuzzy)" /><polyline points="-17.93,-77.57 29.21,-62.96 47.72,-53.92 51.94,-49.06 48.82,-48.37 42.92,-50.6 36.63,-54.22 31.17,-57.9 27.43,-60.6 25.43,-61.84 23.62,-61.95 19.22,-61.93 10.5,-62.78 -0.45,-64.97 -7.13,-68.44 -3.89,-72.89 3.79,-77.4 -2.94,-79.75" fill="none" stroke="rgb(44, 34, 43)" stroke-width="2" stroke-linejoin="round" filter="url(#fuzzy)" /><polyline points="67.46,-38.02 31.6,-63.21 23.43,-69.98 25.91,-69.86 29.14,-67.34 30.34,-64.16 29.91,-61.54 28.65,-60.4 26.54,-61.01 22.83,-62.91 17.07,-65.32 9.84,-67.53 2.62,-69.21 -3.33,-70.12 -7.16,-69.62 -6.32,-66.44 6.32,-59.13 38.24,-46.88 71.58,-29.79" fill="none" stroke="rgb(44, 34, 43)" stroke-width="2" stroke-linejoin="round" filter="url(#fuzzy)" /><polyline points="31.65,-72.62 33.56,-64.71 23.81,-67.48 19.26,-69.64 16.35,-71.06 12.89,-72.22 9.47,-72.56 6.96,-71.44 5.3,-68.92 3.99,-65.85 2.69,-63.36 1.42,-62.28 0.26,-62.79 -0.92,-64.51 -2.42,-66.85 -4.42,-69.13 -7.04,-70.69 -10.72,-70.96 -15.95,-69.66 -21.65,-67.27 -22.79,-65.14 -10.58,-64.27 21.12,-61.82 62.74,-46.19" fill="none" stroke="rgb(44, 34, 43)" stroke-width="2" stroke-linejoin="round" filter="url(#fuzzy)" /><polyline points="58.75,-51.57 32.07,-65.98 9.92,-69.05 -1.23,-66.81 -1.52,-63.45 4.6,-60.87 13.11,-59.3 20.92,-58.62 25.52,-58.89 25.37,-60.14 20.48,-61.98 12.49,-63.67 4.06,-64.51 -1.97,-64.27 -3.48,-63.28 0.01,-62.2 6.88,-61.56 13.91,-61.32 17.73,-60.81 16.27,-59.38 8.9,-57.19 -5.31,-55.43 -28.57,-56.29 -45.65,-64.14" fill="none" stroke="rgb(44, 34, 43)" stroke-width="2" stroke-linejoin="round" filter="url(#fuzzy)" /><polyline points="21.01,-76.74 13.31,-74.76 18.6,-72.01 21.86,-70.87 21.59,-70.92 19.47,-71.01 17.89,-70.14 18.06,-68.43 19.83,-66.83 23.06,-66 28.13,-65.47 34.75,-64.26 40.83,-61.88 43.25,-58.84 37.35,-58.56 2.28,-79.74" fill="none" stroke="rgb(44, 34, 43)" stroke-width="2" stroke-linejoin="round" filter="url(#fuzzy)" /><polyline points="75.92,-12.6 73.31,-11.44 73.58,-10.34 73.91,-9.19 73.62,-8.03 72.93,-6.84 72.31,-5.57 72.09,-4.24 72.25,-2.92 72.51,-1.64 72.57,-0.42 72.24,0.72 71.45,1.82 70.27,2.88 68.82,3.89 67.36,4.8 66.16,5.59 65.2,6.4 63.79,7.85" fill="none" stroke="rgb(44, 34, 43)" stroke-width="2" stroke-linejoin="round" filter="url(#fuzzy)" /><polyline points="1.36,-79.68 -0.67,-79.61 -2.32,-79.5 -3.71,-79.29 -4.94,-79.04 -6.09,-78.82 -7.21,-78.64 -8.32,-78.49 -9.44,-78.34 -10.58,-78.15 -11.73,-77.92 -12.9,-77.65 -14.04,-77.37 -15.14,-77.07 -16.18,-76.75 -17.18,-76.41 -18.13,-76.04 -19.08,-75.64 -20.04,-75.2 -21.04,-74.72 -22.1,-74.17 -23.15,-73.59 -23.76,-73.17 -24.03,-74.15 -22.29,-74.74 -21.1,-75.19 -20.09,-75.61 -19.13,-76 -18.18,-76.35 -17.22,-76.65 -16.22,-76.92 -15.17,-77.19 -14.07,-77.46 -12.92,-77.73 -11.75,-77.99 -10.59,-78.25 -9.47,-78.5 -8.36,-78.73 -7.27,-78.93 -6.17,-79.12 -5.04,-79.31 -3.87,-79.5 -2.56,-79.61 -0.97,-79.52" fill="none" stroke="rgb(44, 34, 43)" stroke-width="2" stroke-linejoin="round" filter="url(#fuzzy)" /><polyline points="-0.97,-79.52 0.68,-79.19 1.71,-79.22 2.58,-79.19 3.49,-79.01 4.45,-78.72 5.49,-78.38 6.61,-78.05 7.8,-77.74 9.05,-77.41 10.32,-76.99 11.54,-76.44 12.66,-75.74 13.57,-74.93 14.19,-74.08 14.41,-73.39 14.22,-73.33 -5.48,-79.36 -6.24,-77.91 -7.13,-76.22 -8.08,-75.08 -9.1,-74.67 -10.16,-74.58 -11.24,-74.32 -12.27,-73.68 -13.24,-72.76 -14.13,-71.81 -14.97,-71.03 -15.75,-70.31 -16.45,-69.43 -17.09,-68.27 -17.68,-66.89 -17.98,-64.46" fill="none" stroke="rgb(44, 34, 43)" stroke-width="2" stroke-linejoin="round" filter="url(#fuzzy)" /><polyline points="-6.2,-79.32 -5.29,-79.59 -4.1,-80.54 -2.73,-81.8 -1.31,-82.77 0.05,-83.28 1.3,-83.49 2.46,-83.59 3.57,-83.74 4.72,-84.08 5.97,-84.72 7.33,-85.72 8.82,-86.99 10.42,-88.41 12.1,-89.81 13.79,-91.14 15.43,-92.41 16.9,-93.61 18.13,-94.72 19.18,-95.79 20.41,-96.95 22.88,-97.63 -6.2,-79.32 -5.31,-79.75 -4.11,-79.97 -2.73,-80.23 -1.31,-80.48 0.04,-80.71 1.27,-80.94 2.39,-81.22 3.47,-81.55 4.57,-81.97 5.74,-82.46 7,-83.03 8.35,-83.62 9.78,-84.14 11.26,-84.51 12.73,-84.72 14.15,-84.94 15.45,-85.39 16.51,-86.22 17.15,-87.32 17.18,-88.59" fill="none" stroke="rgb(44, 34, 43)" stroke-width="2" stroke-linejoin="round" filter="url(#fuzzy)" /><polyline points="-7.79,-79.15 -6.67,-81.32 -5.58,-82.6 -4.34,-83.52 -2.96,-84.41 -1.51,-85.28 -0.1,-85.95 1.19,-86.26 2.34,-86.21 3.42,-86.01 4.51,-85.98 5.69,-86.44 7.01,-87.52 8.49,-89.14 10.08,-90.89 11.69,-92.28 13.65,-93.75" fill="none" stroke="rgb(44, 34, 43)" stroke-width="2" stroke-linejoin="round" filter="url(#fuzzy)" /><polyline points="17.5,-87.25 15.98,-87.16 14.49,-86.67 12.88,-86.18 11.28,-85.77 9.74,-85.36 8.29,-84.85 6.93,-84.24 5.67,-83.55 4.49,-82.88 3.36,-82.31 2.23,-81.91 1.05,-81.67 -0.2,-81.56 -1.54,-81.53 -2.92,-81.54 -4.28,-81.57 -5.55,-81.53 -6.74,-81.27 -7.86,-80.6 -9.03,-79.54 -10.57,-78.73 -10.57,-78.73 -9.01,-79.21 -7.84,-80.18 -6.78,-81.62 -5.68,-82.91 -4.46,-83.71 -3.11,-84.04 -1.69,-84.2 -0.28,-84.52 1.05,-85.21 2.28,-86.28 3.45,-87.59 4.6,-88.88 5.79,-89.92 7.05,-90.52 8.43,-90.64 9.87,-90.65 10.98,-91.88" fill="none" stroke="rgb(44, 34, 43)" stroke-width="2" stroke-linejoin="round" filter="url(#fuzzy)" /><polyline points="-10.09,-78.85 -12.08,-78.88 -13.76,-79.35 -15.15,-79.98 -16.37,-80.43 -17.49,-80.63 -18.59,-80.78 -19.78,-81.12 -21.07,-81.74 -22.48,-82.58 -23.94,-83.48 -25.41,-84.34 -26.88,-85.19 -28.4,-86.18 -30.04,-87.34 -31.79,-88.38 -33.44,-88.76 -34.69,-89.24" fill="none" stroke="rgb(44, 34, 43)" stroke-width="2" stroke-linejoin="round" filter="url(#fuzzy)" /><polyline points="-10.09,-78.85 -9.84,-79.01 -8.92,-79.25 -7.86,-79.63 -6.76,-80.13 -5.63,-80.69 -4.42,-81.27 -3.11,-81.82 -1.74,-82.37 -0.36,-82.99 0.94,-83.72 2.12,-84.57 3.21,-85.43 4.28,-86.24 5.35,-87.11 6.43,-88.16 7.9,-88.85 -10.09,-78.85 -12.07,-78.65 -13.64,-78.62 -14.96,-78.79 -16.2,-79.23 -17.44,-79.88 -18.68,-80.56 -19.89,-81.04 -21.05,-81.22 -22.19,-81.13 -23.32,-80.94 -24.49,-80.79 -25.69,-80.74 -26.94,-80.73 -28.21,-80.65 -29.5,-80.38 -30.8,-79.91 -32.11,-79.34 -33.45,-78.85 -34.79,-78.55 -36.13,-78.47 -37.41,-78.42 -38.7,-78.09 -40.77,-76.79 -14.82,-78.25 -13.97,-78.59 -12.7,-79.54 -11.51,-80.65 -10.41,-81.75 -9.36,-82.81 -8.27,-83.85 -7.14,-84.89 -5.92,-85.94 -4.61,-87.05 -3.2,-88.3 -1.75,-89.71 -0.29,-91.2 1.11,-92.65 2.47,-94.02 3.78,-95.37 5.1,-96.76 6.47,-98.11 7.92,-99.18 9.47,-99.81 11.17,-100.23 13.09,-101.05 15.4,-102.84 18.35,-105.27" fill="none" stroke="rgb(44, 34, 43)" stroke-width="2" stroke-linejoin="round" filter="url(#fuzzy)" /><polyline points="14.86,-85.24 12.71,-85.15 10.96,-84.94 9.43,-84.67 8,-84.34 6.69,-83.98 5.47,-83.67 4.32,-83.44 3.21,-83.29 2.07,-83.18 0.87,-83.07 -0.41,-82.93 -1.75,-82.74 -3.11,-82.51 -4.44,-82.23 -5.7,-81.87 -6.89,-81.42 -8.02,-80.9 -9.11,-80.34 -10.2,-79.79 -11.34,-79.27 -12.61,-78.79 -13.94,-78.39 -14.82,-78.25" fill="none" stroke="rgb(44, 34, 43)" stroke-width="2" stroke-linejoin="round" filter="url(#fuzzy)" /><polyline points="4.12,-94.48 3.06,-92.93 2.1,-92 0.85,-91.13 -0.63,-90.33 -2.18,-89.47 -3.65,-88.43 -5,-87.26 -6.24,-86.1 -7.4,-85.04 -8.5,-84.06 -9.55,-83 -10.58,-81.78 -11.64,-80.52 -12.8,-79.45 -14,-78.72 -15.09,-78.21 -16.12,-77.77 -17.41,-77.52 -18.68,-79.71 -19.91,-80.53 -21.09,-80.74 -22.22,-80.57 -23.27,-80.09 -24.27,-79.49 -25.29,-78.99 -26.41,-78.7 -27.7,-78.67 -29.19,-78.9 -30.89,-79.42 -32.78,-80.25 -34.79,-81.37 -36.82,-82.63 -38.71,-83.73 -40.3,-84.3 -41.56,-84.21 -42.6,-84 -42.9,-85.02 10.45,-90.6 8.36,-90.23 6.82,-89.73 5.56,-89.3 4.4,-88.88 3.26,-88.3 2.08,-87.59 0.8,-86.92 -0.59,-86.48 -2.02,-86.29 -3.46,-86.26 -4.84,-86.17 -6.14,-85.85 -7.35,-85.23 -8.5,-84.37 -9.61,-83.39 -10.73,-82.41 -11.87,-81.51 -13.04,-80.72 -14.21,-80 -15.34,-79.31 -16.36,-78.64 -17.26,-77.97 -17.93,-77.57" fill="none" stroke="rgb(44, 34, 43)" stroke-width="2" stroke-linejoin="round" filter="url(#fuzzy)" /><polyline points="-20.24,-76.87 -22.47,-80.73 -23.96,-81.52 -25.14,-81.34 -26.1,-80.69 -27.11,-80.08 -28.33,-79.79 -29.72,-79.7 -31.18,-79.62 -32.62,-79.43 -33.99,-79.19 -35.33,-78.99 -36.67,-78.92 -38.06,-79.04 -39.55,-79.33 -41.16,-79.78 -42.89,-80.32 -44.62,-80.86 -46.12,-81.26 -47.3,-81.63 -48.69,-82.39" fill="none" stroke="rgb(44, 34, 43)" stroke-width="2" stroke-linejoin="round" filter="url(#fuzzy)" /><polyline points="-22.02,-76.25 -23.76,-76.26 -24.76,-76.18 -25.74,-76.13 -26.85,-75.93 -28.06,-75.53 -29.32,-75.05 -30.62,-74.63 -31.93,-74.37 -33.2,-74.27 -34.42,-74.22 -35.56,-74.13 -36.65,-73.99 -37.77,-73.89 -39.04,-73.83 -41.04,-73.07" fill="none" stroke="rgb(44, 34, 43)" stroke-width="2" stroke-linejoin="round" filter="url(#fuzzy)" /><polyline points="-24.46,-75.34 -23.63,-75.09 -22.36,-74.93 -21.04,-74.48 -19.77,-73.87 -18.59,-73.4 -17.54,-73.28 -16.58,-73.51 -15.66,-73.95 -14.71,-74.38 -13.66,-74.58 -12.51,-74.41 -11.29,-73.8 -10.03,-72.77 -8.8,-71.47 -7.62,-70.17 -6.51,-69.2 -5.48,-68.67 -4.48,-68.11 -3.36,-66.88 -26.47,-74.99 -25.78,-76.39 -25.46,-78.21 -24.98,-79.88 -24.19,-81.03 -23.15,-81.57 -22.01,-81.75 -20.89,-81.97 -19.87,-82.55 -18.97,-83.62 -18.13,-85.11 -17.28,-86.84 -16.32,-88.56 -15.23,-90.07 -14,-91.24 -12.71,-92.04 -11.47,-92.64 -10.32,-93.59 -9.44,-95.91" fill="none" stroke="rgb(44, 34, 43)" stroke-width="2" stroke-linejoin="round" filter="url(#fuzzy)" /><polyline points="-28.46,-74.16 -26.83,-74.82 -25.67,-75.24 -24.71,-75.6 -23.78,-76.01 -22.81,-76.47 -21.81,-76.93 -20.79,-77.35 -19.77,-77.7 -18.75,-78 -17.73,-78.27 -16.69,-78.54 -15.61,-78.83 -14.49,-79.14 -13.33,-79.46 -12.14,-79.77 -10.96,-80.08 -9.8,-80.37 -8.67,-80.64 -7.55,-80.88 -6.42,-81.08 -5.28,-81.3 -4.14,-81.62 -3.02,-82.04" fill="none" stroke="rgb(44, 34, 43)" stroke-width="2" stroke-linejoin="round" filter="url(#fuzzy)" /><polyline points="-32.86,-72.18 -34.22,-71.95 -35.09,-71.49 -36.02,-71 -37.02,-70.53 -38.08,-70.11 -39.2,-69.79 -40.36,-69.51 -41.55,-69.18 -42.71,-68.69 -43.84,-68.02 -44.91,-67.2 -45.97,-66.36 -47.04,-65.59 -48.13,-64.96 -49.24,-64.48 -50.37,-64.1 -51.57,-63.72 -52.9,-63.26 -54.34,-62.7 -55.53,-62.23 -55.78,-62.58" fill="none" stroke="rgb(44, 34, 43)" stroke-width="2" stroke-linejoin="round" filter="url(#fuzzy)" /><polyline points="-32.86,-72.18 -32.01,-72.7 -30.98,-73.29 -29.77,-73.97 -28.55,-74.7 -27.41,-75.44 -26.36,-76.14 -25.38,-76.83 -24.43,-77.52 -23.49,-78.24 -22.55,-79.03 -21.62,-79.88 -20.7,-80.8 -19.79,-81.74 -18.86,-82.66 -17.89,-83.45 -16.84,-84.03 -15.66,-84.37 -14.39,-84.51 -13.06,-84.59 -11.75,-84.75 -10.52,-85.09 -9.36,-85.64 -8.18,-86.39 -6.81,-87.11" fill="none" stroke="rgb(44, 34, 43)" stroke-width="2" stroke-linejoin="round" filter="url(#fuzzy)" /><polyline points="-34.81,-71.31 -36.03,-73.29 -37.18,-73.28 -38.17,-72.69 -39.15,-72.05 -40.19,-71.58 -41.36,-71.3 -42.69,-71.18 -44.18,-71.14 -45.76,-71.07 -47.33,-70.89 -48.81,-70.53 -50.09,-69.93 -51.15,-69.11 -52,-68.26 -52.79,-67.69 -53.73,-67.74 -54.78,-68.66 -37.09,-69.84 -35.53,-71.69 -34.9,-73.18 -34.51,-74.99 -34.09,-76.94 -33.38,-78.53 -32.35,-79.68 -31.19,-80.71 -30.11,-82 -29.25,-83.7 -28.57,-85.74 -27.99,-87.99 -27.4,-90.28 -26.71,-92.43 -25.87,-94.21 -24.84,-95.4 -23.69,-96.04 -22.55,-96.62 -21.62,-97.84 -20.39,-98.35" fill="none" stroke="rgb(44, 34, 43)" stroke-width="2" stroke-linejoin="round" filter="url(#fuzzy)" /><polyline points="-64.78,-55.36 -64.08,-56.23 -62.85,-56.97 -61.46,-57.6 -60.08,-58.24 -58.82,-58.9 -57.7,-59.53 -56.7,-60.12 -55.75,-60.69 -54.8,-61.27 -53.79,-61.87 -52.71,-62.44 -51.6,-62.98 -50.47,-63.48 -49.38,-63.98 -48.3,-64.52 -47.23,-65.13 -46.11,-65.77 -44.94,-66.43 -43.71,-67.11 -42.47,-67.84 -41.25,-68.51 -40.11,-68.77 -39.54,-68.47" fill="none" stroke="rgb(44, 34, 43)" stroke-width="2" stroke-linejoin="round" filter="url(#fuzzy)" /><polyline points="-56.36,-59.39 -56.06,-58.94 -55.46,-59.3 -54.72,-59.8 -53.82,-60.28 -52.75,-60.81 -51.64,-61.41 -50.61,-62.08 -49.7,-62.79 -48.88,-63.52 -48.03,-64.26 -47.08,-64.97 -46.01,-65.66 -44.9,-66.39 -43.78,-67.21 -42.59,-68.07 -41.09,-68.69 -39.39,-68.66" fill="none" stroke="rgb(44, 34, 43)" stroke-width="2" stroke-linejoin="round" filter="url(#fuzzy)" /><polyline points="-40.1,-67.86 -41.97,-66.78 -43.19,-65.96 -44.28,-65.17 -45.33,-64.39 -46.33,-63.63 -47.25,-62.9 -48.11,-62.17 -48.95,-61.42 -49.79,-60.65 -50.64,-59.86 -51.47,-59.07 -52.27,-58.31 -53.03,-57.56 -53.77,-56.81 -54.53,-56.01 -55.33,-55.17 -56.16,-54.27 -57.02,-53.35 -57.85,-52.44 -58.63,-51.58 -59.34,-50.76 -60,-49.93 -60.66,-48.95 -61.33,-47.7" fill="none" stroke="rgb(44, 34, 43)" stroke-width="2" stroke-linejoin="round" filter="url(#fuzzy)" /><polyline points="-79.97,-64.65 -77.02,-64.31 -75.54,-64.63 -73.58,-64.58 -71.17,-64.26 -68.65,-63.96 -66.26,-63.77 -64,-63.6 -61.83,-63.3 -59.7,-62.81 -57.64,-62.26 -55.8,-61.91 -54.25,-61.95 -53,-62.42 -51.95,-63.12 -50.92,-63.71 -49.76,-63.92 -48.36,-63.78 -46.84,-63.74 -45.65,-64.14" fill="none" stroke="rgb(44, 34, 43)" stroke-width="2" stroke-linejoin="round" filter="url(#fuzzy)" /><polyline points="-46.44,-63.8 -45.54,-64.29 -44.49,-64.99 -43.38,-65.75 -42.26,-66.48 -41.17,-67.16 -40.14,-67.77 -39.15,-68.33 -38.19,-68.87 -37.23,-69.4 -36.27,-69.91 -35.31,-70.41 -34.34,-70.9 -33.36,-71.37 -32.34,-71.83 -31.26,-72.29 -30.1,-72.78 -28.88,-73.28 -27.62,-73.8 -26.4,-74.26 -25.32,-74.62 -24.55,-74.82 -24.27,-74.92 -51.92,-58.87 -50.11,-60.5 -49.38,-61.61 -49.07,-62.75 -48.79,-63.99 -48.35,-65.27 -47.72,-66.52 -46.93,-67.71 -46.04,-68.86 -45.1,-69.97 -44.15,-71.05 -43.27,-72.1 -42.49,-73.12 -41.77,-74.12 -40.97,-75.1 -40.2,-75.97 -40.59,-76.45" fill="none" stroke="rgb(44, 34, 43)" stroke-width="2" stroke-linejoin="round" filter="url(#fuzzy)" /><polyline points="-86.19,-47.21 -82.76,-48.86 -80.44,-49.37 -78.96,-49.88 -78.01,-50.66 -77.28,-51.73 -76.55,-52.96 -75.64,-54.15 -74.49,-55.19 -73.15,-56.03 -71.65,-56.68 -70.03,-57.15 -68.3,-57.45 -66.47,-57.58 -64.54,-57.61 -62.58,-57.63 -60.68,-57.73 -58.92,-57.96 -57.34,-58.25 -55.93,-58.52 -54.72,-58.75 -53.75,-58.85 -52.83,-57.69" fill="none" stroke="rgb(44, 34, 43)" stroke-width="2" stroke-linejoin="round" filter="url(#fuzzy)" /><polyline points="-35.44,-72.58 -35.47,-72.14 -36.3,-71.54 -37.25,-70.92 -38.21,-70.3 -39.13,-69.66 -40.05,-69.02 -40.99,-68.32 -41.98,-67.56 -43,-66.75 -44.04,-65.9 -45.05,-65.03 -46.03,-64.19 -46.94,-63.38 -47.77,-62.63 -48.52,-61.91 -49.3,-61.15 -50.25,-60.24 -51.54,-59.03 -52.83,-57.69 -52.19,-58.56 -53.9,-58.13 -55.35,-57.99 -56.37,-57.35 -57.2,-56.35 -58.03,-55.28 -58.88,-54.29 -59.71,-53.37 -60.46,-52.47 -61.16,-51.54 -61.88,-50.6 -62.71,-49.68 -63.69,-48.82 -64.81,-48.02 -66.03,-47.24 -67.26,-46.46 -68.42,-45.73 -69.45,-45.09 -70.3,-44.56 -70.91,-44.06 -71.33,-43.97" fill="none" stroke="rgb(44, 34, 43)" stroke-width="2" stroke-linejoin="round" filter="url(#fuzzy)" /><polyline points="85.77,-46.37 86.05,-45.92 85.75,-43.92 85.83,-42.16 85.99,-40.69 85.84,-39.15 85.37,-37.39 84.69,-35.43 83.88,-33.43 82.88,-31.49 81.59,-29.68 80.06,-27.98 78.46,-26.28 77.06,-24.46 76.04,-22.47 75.42,-20.45 75.04,-18.9 74.74,-18.22" fill="none" stroke="rgb(44, 34, 43)" stroke-width="2" stroke-linejoin="round" filter="url(#fuzzy)" /><polyline points="-54.47,-56.09 -53.9,-57.45 -53.97,-59.08 -54.2,-60.92 -54.26,-62.86 -54.09,-64.7 -53.78,-66.37 -53.43,-67.96 -53.11,-69.59 -52.74,-71.24 -52.19,-72.75 -51.34,-73.96 -50.16,-74.82 -48.82,-75.49 -47.52,-76.26 -46.48,-77.35 -45.76,-78.87 -45.31,-80.76 -44.96,-82.85 -44.53,-84.9 -43.97,-86.75 -43.51,-88.54 -43.97,-90.07 -53.79,-56.68 -54.91,-57.75 -55.07,-58.96 -54.86,-60.07 -54.35,-61.05 -53.64,-62.03 -52.9,-63.11 -52.26,-64.32 -51.78,-65.7 -51.46,-67.32 -51.29,-69.23 -51.22,-71.45 -51.16,-73.86 -51.02,-76.32 -50.71,-78.61 -50.17,-80.58 -49.41,-82.14 -48.52,-83.38 -47.6,-84.52 -46.73,-85.79 -45.95,-87.42 -45.28,-89.53 -43.77,-92.6 -46.3,-87.2 -45.01,-85.02 -45.49,-83.3 -46.45,-82.29 -47.58,-81.61 -48.75,-80.89 -49.9,-79.92 -50.91,-78.64 -51.71,-77.04 -52.3,-75.22 -52.72,-73.3 -53.01,-71.37 -53.18,-69.45 -53.25,-67.51 -53.26,-65.53 -53.28,-63.59 -53.38,-61.78 -53.55,-60.19 -53.8,-58.86 -54.1,-57.73 -54.5,-56.71 -55.12,-55.67 -56.13,-54.44 -57.52,-52.92" fill="none" stroke="rgb(44, 34, 43)" stroke-width="2" stroke-linejoin="round" filter="url(#fuzzy)" /><polyline points="-58.86,-51.06 -59.35,-50.7 -59.82,-49.95 -60.37,-48.95 -61.02,-47.88 -61.72,-46.83 -62.45,-45.78 -63.15,-44.72 -63.78,-43.68 -64.33,-42.67 -64.8,-41.7 -65.22,-40.74 -65.62,-39.74 -66.01,-38.67 -66.37,-37.54 -66.7,-36.41 -67.05,-35.29 -67.48,-34.17 -67.96,-32.97 -68.29,-31.7" fill="none" stroke="rgb(44, 34, 43)" stroke-width="2" stroke-linejoin="round" filter="url(#fuzzy)" /><polyline points="-59.67,-50.5 -59.44,-51.01 -59.08,-51.96 -58.77,-53.24 -58.56,-54.8 -58.49,-56.6 -58.66,-58.66 -59.16,-60.97 -59.96,-63.46 -60.85,-66.01 -61.5,-68.36 -61.62,-70.35 -61.11,-71.95 -60.23,-73.28 -59.47,-74.51 -59.56,-76.02 -61.48,-78.39" fill="none" stroke="rgb(44, 34, 43)" stroke-width="2" stroke-linejoin="round" filter="url(#fuzzy)" /><polyline points="-84.91,-39.42 -82.47,-39.94 -79.6,-40.18 -77.25,-40.53 -75.67,-41.18 -74.61,-42.09 -73.59,-42.99 -72.27,-43.6 -70.6,-43.89 -68.82,-44 -67.23,-44.22 -65.95,-44.78 -65,-45.73 -64.35,-46.9 -63.71,-47.82 -61.33,-47.7" fill="none" stroke="rgb(44, 34, 43)" stroke-width="2" stroke-linejoin="round" filter="url(#fuzzy)" /><polyline points="-62.88,-46.08 -61.63,-47.46 -60.63,-48.58 -59.78,-49.49 -58.99,-50.25 -58.13,-50.91 -57.13,-51.51 -56.03,-52.1 -54.93,-52.76 -53.94,-53.5 -53.1,-54.29 -52.38,-55.04 -51.7,-55.68 -50.98,-56.21 -50.13,-56.73 -49.07,-57.4 -47.82,-58.2 -47.09,-58.62 -62.18,-47.24 -63.16,-47.75 -62.65,-48.58 -61.95,-49.62 -61.35,-50.71 -60.89,-51.84 -60.53,-53.06 -60.23,-54.4 -59.92,-55.84 -59.56,-57.31 -59.12,-58.71 -58.66,-60.02 -58.27,-61.29 -58.05,-62.65 -58.01,-64.2 -58.04,-66.02 -57.92,-68 -57.4,-69.83 -56.58,-71.23 -56.21,-73.08 -64.23,-44.01 -63.14,-45.96 -62.59,-47.06 -62.19,-48.22 -61.93,-49.59 -61.87,-51.12 -61.94,-52.73 -61.97,-54.31 -61.79,-55.78 -61.41,-57.17 -60.96,-58.59 -60.61,-60.14 -60.43,-61.79 -60.39,-63.49 -60.43,-65.17 -60.5,-66.92 -60.61,-68.92 -60.66,-71.22 -60.47,-73.55 -59.93,-75.42 -58.79,-76.45" fill="none" stroke="rgb(44, 34, 43)" stroke-width="2" stroke-linejoin="round" filter="url(#fuzzy)" /><polyline points="-67.92,-37.63 -68.26,-36.41 -68.78,-35.26 -69.22,-34.14 -69.51,-33.03 -69.69,-31.86 -69.79,-30.62 -69.85,-29.34 -69.86,-28.06 -69.83,-26.78 -69.77,-25.48 -69.68,-24.16 -69.59,-22.83 -69.5,-21.54 -69.42,-20.34 -69.35,-19.26 -69.32,-18.25 -69.29,-17.24 -69.23,-16.14 -69.08,-14.89 -68.79,-13.52 -68.45,-12.29 -70.03,-32.68 -70.25,-33.19 -70.41,-34.35 -70.59,-35.77 -70.74,-37.23 -70.75,-38.62 -70.64,-39.96 -70.53,-41.33 -70.56,-42.76 -70.79,-44.28 -71.17,-45.92 -71.62,-47.67 -72.08,-49.56 -72.53,-51.57 -72.94,-53.67 -73.27,-55.76 -73.42,-57.73 -73.33,-59.51 -73.09,-61.11 -72.95,-62.73 -73.07,-64.78 -73.49,-68.29" fill="none" stroke="rgb(44, 34, 43)" stroke-width="2" stroke-linejoin="round" filter="url(#fuzzy)" /><polyline points="-72.57,-27.06 -73.8,-26.68 -75.14,-25.57 -76.01,-24.24 -76.86,-23.1 -78.02,-22.23 -79.57,-21.54 -81.4,-20.89 -83.35,-20.15 -85.22,-19.25 -86.79,-18.18 -87.91,-16.98 -88.62,-15.73 -89.2,-14.55 -89.99,-13.44 -91.06,-12.04 -93.17,-9.16" fill="none" stroke="rgb(44, 34, 43)" stroke-width="2" stroke-linejoin="round" filter="url(#fuzzy)" /><polyline points="-72.56,-26.96 -72.49,-27.47 -72.65,-28.48 -73.21,-29.98 -73.97,-31.74 -74.6,-33.44 -74.85,-34.92 -74.76,-36.21 -74.53,-37.45 -74.31,-38.74 -74.16,-40.09 -74.03,-41.48 -73.88,-42.88 -73.74,-44.26 -73.68,-45.64 -73.72,-47.01 -73.79,-48.42 -73.78,-49.95 -73.63,-51.72 -73.48,-53.56 -74.05,-54.26" fill="none" stroke="rgb(44, 34, 43)" stroke-width="2" stroke-linejoin="round" filter="url(#fuzzy)" /><polyline points="91.12,-9.36 89.59,-9.52 88.4,-10.46 87.51,-11.75 86.71,-13.02 85.82,-14.17 84.75,-15.19 83.56,-16.11 82.38,-16.98 81.34,-17.82 80.44,-18.69 79.57,-19.64 78.57,-20.71 77.34,-21.91 75.96,-23.18 74.63,-24.31 73.68,-25.14 73.23,-25.56 72.94,-25.64" fill="none" stroke="rgb(44, 34, 43)" stroke-width="2" stroke-linejoin="round" filter="url(#fuzzy)" /><polyline points="72.94,-25.64 72.5,-27.4 71.87,-29.09 71.28,-30.49 70.78,-31.66 70.32,-32.72 69.86,-33.76 69.38,-34.8 68.88,-35.83 68.38,-36.85 67.89,-37.83 67.38,-38.79 66.86,-39.76 66.3,-40.76 65.7,-41.81 65.07,-42.91 64.42,-44.03 63.77,-45.13 63.15,-46.18 62.54,-47.19 61.91,-48.19 61.18,-49.26 60.34,-50.44 59.54,-51.58 59.3,-52.05 72.94,-25.64 71.94,-27.14 71.03,-28.68 70.17,-29.93 69.2,-30.84 67.98,-31.46 66.61,-31.97 65.28,-32.52 64.18,-33.18 63.29,-33.91 62.52,-34.61 61.74,-35.23 60.93,-35.79 60.1,-36.37 59.18,-36.98 57.97,-37.57 56.13,-37.96 70.64,-31.75 71.6,-31.1 73.01,-30.07 74.67,-29.06 76.38,-28.31 77.98,-27.73 79.4,-27.12 80.57,-26.28 81.53,-25.13 82.39,-23.78 83.25,-22.39 84.17,-21.15 85.18,-20.1 86.32,-19.21 87.65,-18.38 89.12,-17.53 90.39,-16.53 91.34,-15.45 93.42,-14.79" fill="none" stroke="rgb(44, 34, 43)" stroke-width="2" stroke-linejoin="round" filter="url(#fuzzy)" /><polyline points="71.86,-63.86 71.89,-60.4 72.33,-58.16 73.03,-56.75 73.39,-55.42 73.14,-53.68 72.44,-51.54 71.69,-49.27 71.26,-47.2 71.31,-45.51 71.73,-44.19 72.18,-43.05 72.29,-41.83 71.88,-40.37 71.11,-38.7 70.38,-36.94 70.01,-35.23 69.98,-33.87 69.79,-33.6" fill="none" stroke="rgb(44, 34, 43)" stroke-width="2" stroke-linejoin="round" filter="url(#fuzzy)" /><polyline points="71.16,-10.56 71.45,-11.3 71.58,-12.17 71.68,-13.14 71.74,-14.13 71.76,-15.09 71.8,-16.04 71.87,-17.07 71.95,-18.22 71.98,-19.5 71.91,-20.83 71.75,-22.15 71.57,-23.38 71.44,-24.52 71.39,-25.65 71.39,-26.84 71.35,-28.13 71.19,-29.48 70.89,-30.78 70.51,-31.92 70.15,-32.83 69.82,-33.6 69.28,-34.8 67.46,-38.02 68.68,-37.61 70.83,-37.53 72.93,-37.16 74.55,-36.52 75.98,-35.81 77.49,-35.11 79.03,-34.33 80.34,-33.37 81.26,-32.22 81.8,-30.96 82.13,-29.71 82.51,-28.5 83.14,-27.32 84.09,-26.11 85.35,-24.83 86.84,-23.56 88.52,-22.4 90.36,-21.46 92.28,-20.72 94.22,-20.04 96.14,-19.23 97.29,-18.19 66.9,-39.36 67.84,-40.8 69.43,-43.18 70.04,-45.17 69.24,-46.33 67.72,-46.97 66.17,-47.51 64.98,-48.23 64.22,-49.24 63.85,-50.53 63.78,-52.06 63.93,-53.74 64.2,-55.5 64.48,-57.28 64.65,-59.06 64.64,-60.87 64.53,-62.74 64.44,-64.78 64.51,-67.05 64.73,-69.6 64.98,-72.4 65.19,-75.35 65.51,-78.18 66.12,-80.18 66.49,-80.11 101.23,-25.3 98.89,-29.39 97.98,-31.68 96.64,-32.73 94.68,-33.2 92.22,-33.53 89.42,-33.92 86.47,-34.39 83.65,-34.93 81.23,-35.55 79.28,-36.24 77.69,-36.96 76.2,-37.66 74.65,-38.3 73.03,-38.84 71.42,-39.3 69.9,-39.66 68.43,-39.97 67.05,-40.26 65.99,-40.85 65.99,-40.85 66.51,-39.96 66.87,-39.11 67.21,-38.22 67.53,-37.27 67.84,-36.23 68.17,-35.13 68.53,-34.02 68.93,-32.97 69.36,-31.95 69.8,-30.89 70.24,-29.71 70.64,-28.38 70.93,-26.99 71.05,-25.76 71.05,-24.98 71.22,-24.74 50.36,-59.52 52.41,-57.53 53.37,-56.61 54.12,-55.86 54.94,-55.02 55.84,-54.08 56.73,-53.14 57.54,-52.29 58.25,-51.53 58.9,-50.8 59.57,-50.02 60.27,-49.16 60.99,-48.26 61.68,-47.35 62.32,-46.47 62.96,-45.56 63.63,-44.55 64.39,-43.38 65.22,-42" fill="none" stroke="rgb(44, 34, 43)" stroke-width="2" stroke-linejoin="round" filter="url(#fuzzy)" /><polyline points="63.25,-45.14 63.35,-46.21 63,-47.26 62.61,-48.32 62.45,-49.72 62.52,-51.39 62.66,-53.04 62.69,-54.52 62.59,-55.91 62.4,-57.36 62.18,-58.94 61.9,-60.6 61.48,-62.17 60.81,-63.53 59.89,-64.66 58.82,-65.66 57.77,-66.68 56.88,-67.79 56.14,-68.93 55.39,-70 54.5,-71.02 53.61,-72.25 53.15,-74.02 53.51,-75.91 63.25,-45.14 64.07,-43.59 64.11,-41.83 63.55,-39.97 63.03,-38.34 62.94,-37.09 63.25,-36.15 63.69,-35.29 64,-34.34 64.02,-33.19 63.72,-31.87 63.18,-30.46 62.5,-29.02 61.79,-27.55 61.27,-26.08 61.16,-24.66 61.47,-23.34 61.62,-22.17 60.68,-21.27" fill="none" stroke="rgb(44, 34, 43)" stroke-width="2" stroke-linejoin="round" filter="url(#fuzzy)" /><polyline points="58.75,-51.57 58.38,-50.63 58.85,-49.27 59.7,-48.13 60.42,-47.12 60.81,-46.04 60.92,-44.79 60.83,-43.35 60.66,-41.78 60.47,-40.17 60.35,-38.65 60.33,-37.29 60.41,-36.13 60.5,-35.09 60.43,-34.06 60.05,-32.94 59.6,-31.7 60.27,-30.28 58.08,-52.32 56.67,-54.07 55.79,-55.44 55.39,-56.91 55.39,-58.76 55.65,-61.06 56.03,-63.63 56.39,-66.17 56.53,-68.37 56.32,-70.09 55.71,-71.33 54.77,-72.22 53.7,-72.99 52.67,-73.8 51.78,-74.79 51.04,-75.96 50.4,-77.34 49.82,-78.94 49.29,-80.83 48.84,-82.99 48.51,-85.38 48.53,-87.79 48.84,-88.9 55.43,-55.38 54.42,-56.26 53.61,-56.84 52.57,-57.53 51.33,-58.21 50.08,-58.77 48.94,-59.25 47.93,-59.77 47.02,-60.4 46.17,-61.11 45.32,-61.82 44.44,-62.46 43.52,-62.98 42.55,-63.43 41.54,-63.84 40.5,-64.27 39.43,-64.69 38.33,-65.06 37.25,-65.31 36.23,-65.44 35.25,-65.49 34.05,-65.54 31.96,-65.71" fill="none" stroke="rgb(44, 34, 43)" stroke-width="2" stroke-linejoin="round" filter="url(#fuzzy)" /><polyline points="73.62,-45.57 72.5,-46.7 71.11,-47.72 69.97,-48.75 68.95,-49.67 67.93,-50.43 66.84,-51.08 65.58,-51.63 64.12,-52.04 62.57,-52.3 61.12,-52.46 59.9,-52.67 58.9,-53.08 57.91,-53.79 56.75,-54.75 55.42,-55.79 54.07,-56.91 50.83,-60.07 53.06,-58.21 54.34,-57.56 55.7,-57.35 57.19,-57.08 58.57,-56.54 59.7,-55.78 60.65,-54.99 61.58,-54.28 62.65,-53.72 63.88,-53.25 65.21,-52.8 66.55,-52.28 67.85,-51.68 69.12,-51.02 70.45,-50.32 71.88,-49.6 73.38,-48.86 74.87,-48.08 76.24,-47.26 77.44,-46.42 78.51,-45.61 79.51,-44.89 80.31,-44.35 80.43,-44.36 49.77,-60.98 50.7,-62.23 50.69,-63.31 50.09,-64.4 49.48,-65.73 49.08,-67.34 48.86,-69.09 48.65,-70.78 48.34,-72.35 47.92,-73.9 47.52,-75.69 47.27,-77.94 47.23,-80.62 47.32,-83.38 47.42,-85.72 47.58,-87.56 47.17,-88.46" fill="none" stroke="rgb(44, 34, 43)" stroke-width="2" stroke-linejoin="round" filter="url(#fuzzy)" /><polyline points="49.75,-60.95 48.95,-60.79 47.67,-61.28 46.48,-61.9 45.31,-62.32 44.12,-62.53 42.95,-62.67 41.85,-62.89 40.8,-63.24 39.78,-63.68 38.76,-64.11 37.71,-64.46 36.62,-64.67 35.51,-64.8 34.36,-64.92 33.17,-65.12 31.91,-65.42 30.61,-65.8 29.37,-66.17 28.43,-66.4 27.99,-66.35 27.84,-65.77 50.11,-60.37 47.43,-57.48 47.16,-56.16 48.18,-55.51 49.44,-54.89 50.54,-54.18 51.5,-53.39 52.37,-52.53 53.17,-51.62 53.89,-50.68 54.5,-49.73 55,-48.8 55.4,-47.83 55.69,-46.76 55.84,-45.56 55.87,-44.24 55.82,-42.85 55.81,-41.51 55.95,-40.28 56.3,-39.15 56.73,-38.02 57.03,-36.79 57.02,-35.42 56.65,-34.05 56.19,-33.06" fill="none" stroke="rgb(44, 34, 43)" stroke-width="2" stroke-linejoin="round" filter="url(#fuzzy)" /><polyline points="47.21,-62.74 46.52,-62.68 45.66,-63.27 44.67,-63.65 43.51,-63.72 42.2,-63.61 40.86,-63.52 39.57,-63.58 38.42,-63.86 37.4,-64.3 36.44,-64.77 35.45,-65.14 34.34,-65.35 33.08,-65.4 31.73,-65.36 30.37,-65.31 29.13,-65.28 28.04,-65.28 27.08,-65.27 26.09,-65.21 24.89,-65.07 23.4,-64.77 21.78,-64.33 20.3,-63.94" fill="none" stroke="rgb(44, 34, 43)" stroke-width="2" stroke-linejoin="round" filter="url(#fuzzy)" /><polyline points="77.23,-47.8 75.74,-48.83 73.98,-49.7 72.34,-50.48 70.9,-51.18 69.61,-51.84 68.39,-52.51 67.19,-53.18 66.01,-53.85 64.89,-54.5 63.84,-55.14 62.82,-55.77 61.76,-56.4 60.58,-57 59.28,-57.59 57.96,-58.2 56.68,-58.88 55.51,-59.67 54.41,-60.55 53.36,-61.46 52.32,-62.23 51.25,-62.69 49.92,-62.69 48.31,-62.49 47.47,-62.55" fill="none" stroke="rgb(44, 34, 43)" stroke-width="2" stroke-linejoin="round" filter="url(#fuzzy)" /><polyline points="44.01,-65.3 45.29,-65 46.58,-64.86 48.05,-64.75 49.64,-64.76 51.23,-64.86 52.71,-64.86 54.01,-64.59 55.21,-64.01 56.43,-63.29 57.85,-62.69 59.61,-62.41 61.77,-62.51 64.21,-62.79 66.6,-62.96 68.51,-62.77 69.79,-62.31 70.78,-62.06 72.38,-62.36 75.43,-62.36" fill="none" stroke="rgb(44, 34, 43)" stroke-width="2" stroke-linejoin="round" filter="url(#fuzzy)" /><polyline points="34.36,-71.43 35.28,-71 36.77,-70.96 38.16,-71.16 39.4,-71.27 40.7,-71.35 42.29,-71.68 44.2,-72.36 46.25,-73.24 48.23,-74 49.95,-74.4 51.42,-74.39 52.74,-74.1 54.09,-73.73 55.58,-73.47 57.25,-73.42 59.05,-73.53 60.95,-73.69 62.95,-73.76 65.11,-73.72 67.46,-73.72 69.77,-73.92 71.88,-74.28 74.55,-74.48" fill="none" stroke="rgb(44, 34, 43)" stroke-width="2" stroke-linejoin="round" filter="url(#fuzzy)" /><polyline points="10.53,-91.32 11.42,-90.55 12.82,-89.52 14.18,-88.5 15.26,-87.38 16.11,-86.16 16.88,-85.03 17.73,-84.12 18.7,-83.41 19.78,-82.81 20.89,-82.2 22,-81.57 23.09,-80.98 24.19,-80.51 25.3,-80.2 26.46,-79.98 27.66,-79.61 28.89,-78.57 30.02,-76.31 30.81,-72.81" fill="none" stroke="rgb(44, 34, 43)" stroke-width="2" stroke-linejoin="round" filter="url(#fuzzy)" /><polyline points="26.66,-74.84 28.62,-74.09 29.92,-73.86 30.95,-74.23 32.09,-74.9 33.44,-75.44 34.94,-75.59 36.49,-75.46 38.1,-75.4 39.8,-75.75 41.62,-76.6 43.55,-77.76 45.53,-78.87 47.44,-79.59 49.13,-79.57 51.3,-78.19" fill="none" stroke="rgb(44, 34, 43)" stroke-width="2" stroke-linejoin="round" filter="url(#fuzzy)" /><polyline points="23.97,-75.49 23.88,-76.36 23.36,-78.42 22.61,-80.16 21.64,-81.15 20.53,-81.76 19.42,-82.46 18.43,-83.51 17.63,-84.98 16.97,-86.82 16.33,-88.87 15.54,-90.8 14.48,-92.32 13.14,-93.42 11.63,-94.41 10.07,-95.75 8.39,-97.5 6.3,-98.61 58.78,-83.39 56.9,-83.48 55.37,-83.58 53.32,-83.02 51.04,-82.2 48.96,-81.62 47.24,-81.47 45.78,-81.57 44.31,-81.53 42.61,-81.11 40.63,-80.28 38.5,-79.29 36.47,-78.42 34.72,-77.87 33.31,-77.64 32.12,-77.59 30.91,-77.53 29.5,-77.43 27.98,-77.56 26.68,-78.25 25.78,-78.88 24.49,-75.5 22.47,-76.16 21.32,-76.59 20.32,-76.94 19.24,-77.36 18.14,-77.84 17.1,-78.3 16.16,-78.72 15.26,-79.1 14.32,-79.46 13.27,-79.77 12.1,-80.04 10.83,-80.29 9.53,-80.56 8.23,-80.89 6.97,-81.28 5.79,-81.7 4.67,-82.12 3.59,-82.51 2.52,-82.89 1.4,-83.26 0.15,-83.62 -1.28,-83.96 -2.84,-84.19 -4.37,-84.24 -5.82,-84.29" fill="none" stroke="rgb(44, 34, 43)" stroke-width="2" stroke-linejoin="round" filter="url(#fuzzy)" /><polyline points="21.01,-76.74 22.41,-76.23 23.58,-75.93 24.66,-75.76 25.81,-75.55 27.07,-75.28 28.35,-75.01 29.57,-74.82 30.73,-74.76 31.88,-74.77 33.08,-74.75 34.38,-74.6 35.74,-74.31 37.13,-73.98 38.49,-73.72 39.8,-73.61 41.05,-73.58 42.28,-73.46 43.52,-73.15 44.84,-72.65 47.09,-71.77 21.01,-76.74 21.09,-80.12 20.55,-82.72 19.72,-84.91 18.75,-86.17 17.74,-86.43 16.69,-86.03 15.56,-85.46 14.34,-85.1 13.05,-85.24 11.72,-85.94 10.38,-87.06 9.05,-88.25 7.74,-89.25 6.46,-90.02 5.25,-90.86 4.1,-92.08 3.09,-93.66 2.55,-95.61" fill="none" stroke="rgb(44, 34, 43)" stroke-width="2" stroke-linejoin="round" filter="url(#fuzzy)" /><polyline points="19.44,-77.11 21.49,-81.17 23.49,-84.42 25,-85.38 26.27,-85.32 27.68,-85.52 29.39,-86.3 31.26,-87.28 33.07,-87.98 34.68,-88.29 36.09,-88.46 37.49,-88.83 39.05,-89.42 40.79,-89.8 42.55,-89.46 44.3,-88.48 46.37,-87.95 48.6,-88.45 19.44,-77.11 20.27,-76.76 21.03,-75.85 21.76,-74.54 22.52,-73.35 23.35,-72.43 24.25,-71.62 25.2,-70.76 26.15,-69.87 27.05,-69.07 27.84,-68.37 28.51,-67.7 29.14,-66.88 29.85,-65.85 30.7,-64.64 31.65,-63.3 32.53,-61.8 33.05,-60.16" fill="none" stroke="rgb(44, 34, 43)" stroke-width="2" stroke-linejoin="round" filter="url(#fuzzy)" /><polyline points="18.12,-77.29 16.63,-79.15 15.9,-79.46 15.3,-79.83 14.53,-80.34 13.53,-80.81 12.33,-81.15 11,-81.38 9.63,-81.6 8.3,-81.92 7.04,-82.42 5.86,-83.1 4.78,-83.89 3.77,-84.68 2.86,-85.38 2.12,-86.05 1.48,-86.45 18.12,-77.29 16.77,-79.83 16.81,-84.16 16.85,-88.14 16.35,-90.63 15.35,-92.01 14.04,-93.15 12.63,-94.56 11.2,-96.13 9.76,-97.43 8.32,-98.22 6.92,-98.65 5.59,-99.11 4.37,-99.79 3.25,-100.42 2.16,-100.77 0.84,-101.68 -1.27,-104.44" fill="none" stroke="rgb(44, 34, 43)" stroke-width="2" stroke-linejoin="round" filter="url(#fuzzy)" /><polyline points="15.18,-78.29 15.34,-78.12 14.96,-78.13 14.16,-78.24 13.08,-78.38 11.83,-78.48 10.49,-78.51 9.15,-78.44 7.84,-78.3 6.6,-78.13 5.44,-77.98 4.37,-77.87 3.37,-77.78 2.4,-77.66 1.39,-77.51 0.24,-77.35 -1.12,-77.21 -2.61,-77.1 -3.86,-76.92" fill="none" stroke="rgb(44, 34, 43)" stroke-width="2" stroke-linejoin="round" filter="url(#fuzzy)" /><polyline points="15.63,-78.02 16.16,-77.9 17.46,-77.49 18.75,-77.04 19.91,-76.62 20.99,-76.21 22.02,-75.77 23.02,-75.26 23.99,-74.65 24.97,-73.93 25.97,-73.14 26.97,-72.35 27.93,-71.6 28.79,-70.92 29.55,-70.28 30.32,-69.61 31.21,-68.87 32.32,-68.07 33.59,-67.2 34.86,-66.23 35.89,-65.32" fill="none" stroke="rgb(44, 34, 43)" stroke-width="2" stroke-linejoin="round" filter="url(#fuzzy)" /><polyline points="13.7,-78.59 11.79,-78.96 10.28,-79.68 8.95,-80.55 7.7,-81.4 6.52,-82.22 5.4,-83.19 4.35,-84.47 3.31,-86.03 2.23,-87.62 1.03,-88.95 -0.32,-89.95 -1.82,-90.78 -3.41,-91.73 -5,-92.98 -6.55,-94.47 -8.06,-96 -9.58,-97.39 -11.23,-98.59 -13.32,-99.27" fill="none" stroke="rgb(44, 34, 43)" stroke-width="2" stroke-linejoin="round" filter="url(#fuzzy)" /><polyline points="27.23,-67 28.02,-67.59 27.74,-68.13 26.85,-68.85 25.79,-69.76 24.79,-70.8 23.9,-71.87 23.07,-72.88 22.22,-73.75 21.3,-74.46 20.32,-75.03 19.27,-75.49 18.21,-75.93 17.19,-76.4 16.27,-76.92 15.45,-77.43 14.68,-77.86 13.83,-78.2 12.74,-78.46 11.28,-78.71 9.44,-79.01" fill="none" stroke="rgb(44, 34, 43)" stroke-width="2" stroke-linejoin="round" filter="url(#fuzzy)" /><polyline points="9.13,-79.14 10.02,-79.34 11.41,-79.46 12.8,-79.65 14.02,-79.99 15.08,-80.39 16.04,-80.69 17.03,-80.82 18.12,-80.84 19.33,-80.93 20.66,-81.19 22.04,-81.62 23.43,-82.1 24.76,-82.49 26.03,-82.72 27.24,-82.81 28.51,-82.7 30.03,-82.29 32.3,-81.96 5.07,-79.33 6.91,-79.82 8.68,-81.52 10.4,-83.56 12.02,-85 13.49,-85.68 14.78,-86.01 16,-86.58 17.26,-87.77 18.66,-89.5 20.21,-91.28 21.81,-92.52 23.33,-92.98 24.78,-93.02 26.34,-93.29 28.4,-94.41 31.56,-97.32 3.47,-79.57 2.61,-79.98 1.77,-80.54 0.64,-81.01 -0.72,-81.42 -2.17,-81.82 -3.59,-82.18 -4.92,-82.38 -6.16,-82.34 -7.34,-82.07 -8.49,-81.66 -9.64,-81.28 -10.84,-81.06 -12.1,-81.03 -13.4,-81.19 -14.71,-81.45 -15.99,-81.73 -17.21,-81.96 -18.37,-82.09 -19.48,-82.13 -20.59,-82.13 -21.71,-82.15 -22.84,-82.27 -23.88,-82.69" fill="none" stroke="rgb(44, 34, 43)" stroke-width="2" stroke-linejoin="round" filter="url(#fuzzy)" /><polyline points="2.28,-79.74 1.81,-79.68 0.73,-79.73 -0.67,-79.82 -2.13,-79.87 -3.51,-79.85 -4.8,-79.77 -6,-79.67 -7.16,-79.56 -8.29,-79.46 -9.43,-79.36 -10.6,-79.27 -11.79,-79.19 -13.01,-79.1 -14.23,-79.01 -15.4,-78.91 -16.52,-78.81 -17.57,-78.68 -18.59,-78.54 -19.61,-78.39 -20.68,-78.23 -21.76,-77.99" fill="none" stroke="rgb(44, 34, 43)" stroke-width="2" stroke-linejoin="round" filter="url(#fuzzy)" />
    </g>
    
        <g id="pointNose">
          <g id="rightNose"><circle r="2.654" cx="10.764000000000001" cy="5.33" stroke="black" fill="none" stroke-width="1.0" filter="url(#fuzzy)" /><circle r="2.798" cx="13.424" cy="6.962" stroke="black" fill="none" stroke-width="1.0" filter="url(#fuzzy)" /><circle r="1.278" cx="12.128" cy="4.954" stroke="black" fill="none" stroke-width="1.0" filter="url(#fuzzy)" /><circle r="1.8159999999999998" cx="12.048" cy="5.562" stroke="black" fill="none" stroke-width="1.0" filter="url(#fuzzy)" /><circle r="2.316" cx="13.812000000000001" cy="6.362" stroke="black" fill="none" stroke-width="1.0" filter="url(#fuzzy)" /><circle r="1.276" cx="13.052" cy="4.906" stroke="black" fill="none" stroke-width="1.0" filter="url(#fuzzy)" /><circle r="1.292" cx="10.700000000000001" cy="6.242000000000001" stroke="black" fill="none" stroke-width="1.0" filter="url(#fuzzy)" /><circle r="2.5060000000000002" cx="12.416" cy="6.058" stroke="black" fill="none" stroke-width="1.0" filter="url(#fuzzy)" /><circle r="1.3679999999999999" cx="12.280000000000001" cy="5.718" stroke="black" fill="none" stroke-width="1.0" filter="url(#fuzzy)" /><circle r="2.198" cx="11.508000000000001" cy="5.87" stroke="black" fill="none" stroke-width="1.0" filter="url(#fuzzy)" /></g>
          <g id="leftNose"><circle r="1.6800000000000002" cx="-13.091999999999999" cy="11.708" stroke="black" fill="none" stroke-width="1.0" filter="url(#fuzzy)" /><circle r="2.1719999999999997" cx="-13.427999999999999" cy="12.052" stroke="black" fill="none" stroke-width="1.0" filter="url(#fuzzy)" /><circle r="2.996" cx="-10.155999999999999" cy="10.204" stroke="black" fill="none" stroke-width="1.0" filter="url(#fuzzy)" /><circle r="1.512" cx="-13.636" cy="9.2" stroke="black" fill="none" stroke-width="1.0" filter="url(#fuzzy)" /><circle r="1.05" cx="-10.767999999999999" cy="11.628" stroke="black" fill="none" stroke-width="1.0" filter="url(#fuzzy)" /><circle r="2.45" cx="-10.251999999999999" cy="10.032" stroke="black" fill="none" stroke-width="1.0" filter="url(#fuzzy)" /><circle r="1.014" cx="-10.552" cy="9.252" stroke="black" fill="none" stroke-width="1.0" filter="url(#fuzzy)" /><circle r="1.9060000000000001" cx="-10.216" cy="10.024000000000001" stroke="black" fill="none" stroke-width="1.0" filter="url(#fuzzy)" /><circle r="1.9340000000000002" cx="-14.027999999999999" cy="9.548" stroke="black" fill="none" stroke-width="1.0" filter="url(#fuzzy)" /><circle r="2.278" cx="-13.203999999999999" cy="9.443999999999999" stroke="black" fill="none" stroke-width="1.0" filter="url(#fuzzy)" /></g>
        </g>
      
    <g id="mouth">
      <polyline points="-19.77,61.41 -19.45,60.89 -19.12,60.37 -18.79,59.85 -18.44,59.32 -18.09,58.79 -17.73,58.26 -17.37,57.73 -16.99,57.2 -16.61,56.66 -16.22,56.13 -15.83,55.6 -15.43,55.06 -15.02,54.53 -14.61,54 -14.19,53.47 -13.76,52.95 -13.33,52.43 -12.89,51.91 -12.45,51.39 -12.01,50.88 -11.56,50.38 -11.1,49.88 -10.64,49.38 -10.18,48.89 -9.72,48.41 -9.25,47.94 -8.77,47.47 -8.3,47.01 -7.82,46.56 -7.33,46.11 -6.85,45.68 -6.36,45.26 -5.87,44.84 -5.38,44.44 -4.89,44.05 -4.39,43.67 -3.9,43.3 -3.4,42.94 -2.91,42.6 -2.41,42.27 -1.91,41.95 -1.41,41.65 -0.91,41.36 -0.41,41.09 0.09,40.83 0.58,40.59 1.08,40.37 1.58,40.16 2.07,39.97 2.57,39.8 3.06,39.64 3.55,39.51 4.03,39.39 4.52,39.29 5,39.21 5.48,39.16 5.96,39.12 6.44,39.11 6.91,39.11 7.38,39.14 7.84,39.19 8.3,39.27 8.76,39.37 9.21,39.49 9.65,39.63 10.1,39.81 10.53,40 10.97,40.22 11.39,40.47 11.82,40.75 12.23,41.05 12.64,41.38 13.05,41.74 13.44,42.13 13.83,42.54 14.22,42.98 14.59,43.46 14.96,43.96 15.33,44.5 15.68,45.06 16.03,45.66 16.37,46.29 16.7,46.95 17.02,47.65 17.33,48.38 17.64,49.14 17.93,49.94 18.22,50.77 18.49,51.63 18.76,52.54 19.02,53.47 19.26,54.45 19.5,55.46 19.73,56.51 19.94,57.6 20.15,58.72 20.34,59.88 20.52,61.09 20.69,62.33 20.69,62.33 20.29,61.48 19.88,60.66 19.48,59.87 19.07,59.1 18.67,58.36 18.26,57.64 17.86,56.95 17.45,56.28 17.05,55.64 16.65,55.03 16.24,54.44 15.84,53.87 15.43,53.32 15.03,52.8 14.62,52.3 14.22,51.83 13.81,51.37 13.41,50.94 13,50.53 12.6,50.15 12.19,49.78 11.79,49.43 11.39,49.11 10.98,48.8 10.58,48.52 10.17,48.25 9.77,48 9.36,47.78 8.96,47.57 8.55,47.38 8.15,47.21 7.74,47.05 7.34,46.92 6.93,46.8 6.53,46.69 6.13,46.61 5.72,46.54 5.32,46.48 4.91,46.45 4.51,46.42 4.1,46.42 3.7,46.42 3.29,46.45 2.89,46.48 2.48,46.53 2.08,46.59 1.67,46.67 1.27,46.76 0.87,46.86 0.46,46.98 0.06,47.1 -0.35,47.24 -0.75,47.39 -1.16,47.55 -1.56,47.73 -1.97,47.91 -2.37,48.1 -2.78,48.3 -3.18,48.52 -3.59,48.74 -3.99,48.97 -4.39,49.21 -4.8,49.45 -5.2,49.71 -5.61,49.97 -6.01,50.24 -6.42,50.52 -6.82,50.81 -7.23,51.1 -7.63,51.4 -8.04,51.7 -8.44,52.01 -8.85,52.33 -9.25,52.65 -9.65,52.97 -10.06,53.3 -10.46,53.63 -10.87,53.97 -11.27,54.31 -11.68,54.66 -12.08,55 -12.49,55.35 -12.89,55.71 -13.3,56.06 -13.7,56.42 -14.11,56.77 -14.51,57.13 -14.91,57.49 -15.32,57.85 -15.72,58.21 -16.13,58.57 -16.53,58.93 -16.94,59.29 -17.34,59.65 -17.75,60 -18.15,60.36 -18.56,60.71 -18.96,61.06 -19.37,61.41" fill="rgb(215,127,140)" stroke="black" stroke-width="3" stroke-linejoin="round" filter="url(#fuzzy)" />
    </g>
  </svg>
  