
  <svg viewBox="-100 -100 200 200" xmlns="http://www.w3.org/2000/svg" width="500" height="500" id="face-svg">
    <defs>
      <clipPath id="leftEyeClipPath">
        <polyline points="33.19,2.21 32.99,1.98 32.77,1.75 32.51,1.52 32.22,1.28 31.89,1.03 31.53,0.79 31.14,0.53 30.71,0.28 30.24,0.02 29.74,-0.24 29.19,-0.5 28.61,-0.77 28,-1.04 27.34,-1.31 26.65,-1.58 26.13,-1.86 25.54,-2.14 24.88,-2.43 24.14,-2.73 23.34,-3.04 22.46,-3.34 21.52,-3.65 20.52,-3.97 19.45,-4.28 18.33,-4.59 17.15,-4.9 15.93,-5.2 14.66,-5.5 13.36,-5.79 12.02,-6.07 10.64,-6.35 9.24,-6.61 7.82,-6.86 6.39,-7.1 4.94,-7.32 3.48,-7.53 2.02,-7.73 0.56,-7.91 -0.9,-8.07 -2.34,-8.21 -3.78,-8.33 -5.19,-8.44 -6.59,-8.52 -7.96,-8.59 -9.3,-8.64 -10.62,-8.66 -11.9,-8.67 -13.15,-8.66 -14.36,-8.63 -15.53,-8.58 -16.66,-8.51 -17.75,-8.42 -18.8,-8.32 -19.8,-8.19 -20.76,-8.06 -21.68,-7.91 -22.55,-7.74 -23.38,-7.56 -24.16,-7.37 -24.91,-7.16 -25.61,-6.95 -26.27,-6.73 -26.9,-6.5 -27.48,-6.27 -28.04,-6.03 -28.56,-5.78 -29.05,-5.53 -29.5,-5.27 -29.92,-5 -30.3,-4.73 -30.66,-4.45 -30.98,-4.17 -31.27,-3.89 -31.53,-3.6 -31.77,-3.31 -31.97,-3.01 -32.15,-2.72 -32.31,-2.42 -32.43,-2.12 -31.5,0.58 -31,0.86 -30.49,1.14 -29.96,1.41 -29.42,1.68 -28.85,1.94 -28.27,2.21 -27.67,2.46 -27.05,2.72 -26.41,2.96 -25.76,3.21 -25.08,3.45 -24.38,3.69 -23.67,3.92 -22.93,4.14 -22.18,4.37 -21.4,4.59 -20.6,4.8 -19.78,5.01 -18.93,5.22 -18.06,5.43 -17.16,5.63 -16.25,5.82 -15.3,6.01 -14.34,6.2 -13.35,6.38 -12.34,6.55 -11.3,6.72 -10.25,6.88 -9.18,7.04 -8.08,7.19 -6.97,7.33 -5.85,7.47 -4.71,7.6 -3.55,7.72 -2.39,7.83 -1.21,7.94 -0.03,8.04 1.15,8.13 2.34,8.21 3.53,8.28 4.72,8.34 5.91,8.4 7.08,8.44 8.25,8.48 9.41,8.5 10.55,8.52 11.68,8.52 12.79,8.51 13.88,8.5 14.94,8.47 15.98,8.43 16.98,8.39 17.96,8.33 18.91,8.26 19.81,8.18 20.69,8.09 21.52,7.99 22.31,7.88 23.06,7.76 23.77,7.63 24.43,7.49 25.05,7.34 25.63,7.18 26.16,7.02 26.77,6.9 27.36,6.78 27.92,6.65 28.46,6.52 28.98,6.39 29.47,6.25 29.94,6.11 30.39,5.96 30.82,5.81 31.22,5.66 31.61,5.51 31.97,5.35 32.31,5.19 32.64,5.03 32.94,4.87" />
      </clipPath>
      <clipPath id="rightEyeClipPath">
        <polyline points="-34.99,2.18 -34.78,1.93 -34.55,1.66 -34.28,1.39 -33.98,1.11 -33.65,0.83 -33.29,0.54 -32.89,0.25 -32.45,-0.05 -31.98,-0.36 -31.46,-0.67 -30.92,-0.98 -30.33,-1.3 -29.71,-1.62 -29.05,-1.95 -28.35,-2.27 -27.83,-2.61 -27.24,-2.96 -26.57,-3.31 -25.83,-3.68 -25.02,-4.05 -24.14,-4.42 -23.2,-4.8 -22.18,-5.18 -21.11,-5.56 -19.99,-5.93 -18.81,-6.31 -17.58,-6.68 -16.3,-7.04 -14.99,-7.39 -13.64,-7.73 -12.25,-8.06 -10.85,-8.38 -9.42,-8.68 -7.97,-8.96 -6.51,-9.23 -5.04,-9.48 -3.57,-9.71 -2.1,-9.92 -0.63,-10.11 0.83,-10.27 2.27,-10.41 3.7,-10.53 5.11,-10.63 6.49,-10.7 7.85,-10.74 9.18,-10.77 10.48,-10.76 11.74,-10.74 12.97,-10.69 14.16,-10.61 15.3,-10.52 16.41,-10.4 17.47,-10.26 18.49,-10.09 19.47,-9.91 20.41,-9.71 21.29,-9.5 22.14,-9.26 22.94,-9.02 23.71,-8.75 24.43,-8.48 25.11,-8.19 25.75,-7.9 26.36,-7.6 26.94,-7.29 27.48,-6.97 27.99,-6.65 28.46,-6.32 28.9,-5.98 29.31,-5.63 29.69,-5.27 30.03,-4.91 30.35,-4.55 30.63,-4.18 30.89,-3.8 31.12,-3.43 31.33,-3.05 31.51,-2.67 31.66,-2.29 32.26,-0.54 31.84,-0.14 31.4,0.25 30.94,0.63 30.47,1.01 29.97,1.39 29.46,1.75 28.93,2.11 28.37,2.47 27.8,2.82 27.2,3.16 26.59,3.49 25.95,3.82 25.28,4.15 24.6,4.46 23.89,4.77 23.16,5.08 22.41,5.38 21.63,5.67 20.82,5.96 19.98,6.25 19.12,6.53 18.22,6.8 17.3,7.07 16.35,7.33 15.37,7.58 14.36,7.83 13.33,8.07 12.27,8.3 11.18,8.52 10.06,8.74 8.93,8.95 7.77,9.15 6.59,9.34 5.39,9.52 4.17,9.69 2.94,9.85 1.69,10 0.44,10.14 -0.83,10.27 -2.1,10.39 -3.37,10.5 -4.64,10.59 -5.91,10.67 -7.18,10.74 -8.44,10.8 -9.68,10.84 -10.91,10.87 -12.12,10.89 -13.31,10.89 -14.48,10.87 -15.62,10.85 -16.73,10.8 -17.81,10.75 -18.85,10.67 -19.85,10.59 -20.81,10.49 -21.73,10.37 -22.61,10.24 -23.43,10.09 -24.21,9.93 -24.94,9.76 -25.61,9.57 -26.24,9.37 -26.81,9.16 -27.48,9.02 -28.12,8.88 -28.73,8.73 -29.32,8.57 -29.88,8.41 -30.41,8.25 -30.92,8.08 -31.4,7.9 -31.85,7.72 -32.27,7.54 -32.67,7.35 -33.05,7.16 -33.4,6.97 -33.73,6.78 -34.04,6.59" />
      </clipPath>
      <filter id="fuzzy">
        <feTurbulence id="turbulence" baseFrequency="0.05" numOctaves="3" type="noise" result="noise" />
        <feDisplacementMap in="SourceGraphic" in2="noise" scale="2" />
      </filter>
      <linearGradient id="rainbowGradient" x1="0%" y1="0%" x2="100%" y2="0%">
        <stop offset="0%" style="stop-color: rgb(44, 34, 43); stop-opacity: 1" />
        <stop offset="50%" style="stop-color: rgb(0, 0, 0); stop-opacity: 1" />
        <stop offset="100%" style="stop-color: rgb(144, 238, 144); stop-opacity: 1" />
      </linearGradient>
    </defs>
    <rect x="-100" y="-100" width="100%" height="100%" fill="rgb(139, 0, 0)" />
    <polyline id="faceContour" points="74.18,0.01 74.09,1.06 74.19,1.85 74,4.97 73.95,7.15 73.96,6.48 73.7,9.55 73.42,9.6 73.6,10.24 73.52,12.36 72.97,13.14 73.21,14.18 72.65,17.45 72.56,16.47 72.53,17.1 72.16,19.53 71.93,20.24 71.55,22.17 71.12,23.67 71.41,22.13 70.61,25.48 70.51,25.1 69.56,29.28 69.23,29.72 68.77,30.47 68.78,31.54 68.3,32.06 67.13,34.82 67.5,33.95 66.55,35.88 65.96,37.55 65.33,38.98 65.08,39.23 65.04,39.93 63.36,42.91 62.85,43.49 62.93,43.96 61.93,45.06 60.5,47.61 61.26,46.78 59.52,48.95 60.2,48.01 58.07,51 58.23,51.08 55.8,54.57 55.84,54.33 56.16,54.14 54.22,55.79 54.67,56.08 53.03,57.56 52.2,58.38 50.86,59.67 50.09,60.98 49.63,61.05 48.18,62.82 49.05,62.07 47.4,63.07 47.07,63.77 45.1,65.28 45.86,64.71 44.15,66.14 41.73,68.09 42.74,67.42 40.17,69.41 38.89,70.18 39,70.34 38.01,70.94 35.78,72.25 35.23,72.34 36.53,71.73 34.13,73.45 33.94,73.31 32.67,74.14 30.66,74.9 27.85,76.66 27.76,76.55 28.18,76.21 26.53,77.09 24.32,77.85 24.04,78.02 22.42,78.45 22.12,78.49 19.24,79.8 18.28,79.74 19.66,79.51 15.79,80.5 15.87,80.62 15.81,80.64 13.36,81 12.59,81.22 10.66,81.52 11.49,81.59 8.73,82.05 9.6,81.72 7.31,82.02 6.19,82.25 4.56,82.31 2.63,82.36 2.11,82.4 1.81,82.6 -0.13,82.46 -1.76,82.25 -1.79,82.4 -3.13,82.35 -5.1,82.4 -4.32,82.24 -7.5,82.23 -8.08,82.04 -8.88,81.9 -10.23,81.62 -12.33,81.39 -13.19,81.05 -14.05,80.85 -15,80.72 -15.9,80.57 -17.3,79.98 -19.85,79.43 -19.1,79.67 -20.57,79.06 -22.02,78.69 -23.09,78.27 -23.77,78.22 -25.05,77.66 -27.37,76.53 -28.25,76.52 -27.74,76.37 -30.33,75.25 -29.13,75.77 -32.5,74.38 -33.66,73.44 -34.89,73.03 -35.48,72.2 -36.5,71.75 -37.58,71.18 -38.92,70.12 -37.14,71.32 -39.08,70.09 -41.41,68.75 -42.68,67.56 -42.83,67.4 -43.69,66.53 -44.48,65.93 -45.36,65.27 -45.93,64.52 -46.32,64.24 -48.05,62.87 -50.39,60.82 -49.23,61.42 -50.29,60.69 -51.26,59.48 -53.29,57.42 -52.55,57.76 -54.38,56.32 -55,55.7 -55.48,54.22 -56.7,53.45 -57.26,52.28 -57.67,52.06 -59.48,49.02 -59.98,48.6 -59.76,48.77 -60.56,47.54 -60.96,46.89 -61.93,45.43 -62.05,45.06 -63.44,42.46 -63.58,42.21 -64.17,41.46 -65.54,38.36 -65.26,39.6 -65.82,37.73 -66.54,36.4 -67,35.22 -67.58,33.62 -67.66,34.49 -68.03,32.36 -69.42,29.13 -68.73,31.05 -70.04,27.48 -70.21,27.01 -70.47,26.35 -70.59,25.77 -71.06,24 -71.27,23.06 -71.72,21.35 -72.26,19.27 -72.22,19.25 -72.71,17.45 -72.82,15.56 -72.98,15.07 -73.16,13.57 -73.38,11.81 -73.55,9.55 -73.66,9.11 -73.83,5.89 -73.76,7.63 -73.97,6.42 -74.08,3.39 -74,1.99 -74.03,2 -74.08,-0.96 -74.08,-2.93 -74.4,-1.53 -74.1,-3.56 -74.19,-4.21 -73.72,-8.23 -73.91,-6.72 -73.98,-6.9 -73.8,-9.37 -73.64,-12.12 -73.03,-14.03 -73.08,-14.72 -73.24,-14.46 -72.59,-16.92 -72,-19.4 -72.36,-18.95 -72.27,-19.39 -71.36,-22.6 -71.08,-24.35 -70.94,-24.07 -71.21,-23.86 -70.05,-27.68 -69.96,-27.23 -69.03,-30.51 -68.95,-30.55 -68.92,-30.69 -68.22,-32.91 -68.29,-32.71 -67.25,-34.43 -66.39,-37.07 -66.51,-36.56 -65.88,-37.83 -64.77,-40.14 -64.67,-40.65 -63.4,-42.39 -63.26,-42.68 -62.67,-43.81 -61.64,-45.98 -61.47,-46.16 -61.08,-47.1 -59.26,-49.43 -59.02,-49.78 -57.77,-51.46 -57.36,-52.62 -57.72,-51.78 -56.65,-52.96 -56.89,-53.31 -55.55,-54.6 -53.27,-57.46 -53.51,-56.84 -52.8,-58.01 -52.1,-59.12 -50.28,-60.48 -49.79,-61.56 -48.41,-62.3 -47.97,-62.61 -47.61,-63.28 -47.25,-63.9 -45.08,-65.75 -44.39,-65.96 -42.75,-67.13 -42.89,-67.36 -41.04,-68.8 -39.78,-69.57 -40.03,-69.36 -37.74,-70.89 -37.19,-71.43 -37.64,-71.12 -36.7,-71.66 -35.18,-72.56 -34.01,-73.24 -32.1,-74.59 -30.48,-75.34 -31.59,-74.93 -29.76,-75.76 -26.52,-77.1 -28.32,-76.32 -25.11,-77.8 -24.59,-77.82 -22.7,-78.59 -22.45,-78.54 -22.01,-78.85 -19.76,-79.7 -18.64,-79.98 -18.85,-79.65 -16.26,-80.52 -15.7,-80.64 -15.88,-80.76 -13.88,-80.94 -12.01,-81.32 -11.57,-81.28 -9.4,-81.68 -7.98,-82.11 -6.59,-82.28 -6.04,-82.32 -6.79,-82.3 -4.85,-82.24 -3.31,-82.45 -1.08,-82.57 -2.98,-82.44 1.45,-82.55 0.2,-82.57 2.72,-82.44 4.24,-82.35 6.53,-82.16 5.84,-82.31 6.31,-82.29 8.43,-81.83 9.83,-81.81 10.48,-81.73 11.34,-81.58 12.13,-81.48 13.36,-81.33 14.68,-80.76 17.67,-80.12 19.05,-79.64 18.51,-80.04 18.87,-79.72 21.1,-79.26 21.43,-78.71 21.64,-78.98 23.73,-78.17 24.91,-77.83 26.57,-77.09 25.83,-77.27 27.73,-76.52 30.31,-75.57 32.22,-74.57 32.22,-74.16 31.25,-74.97 34.65,-73.1 34.72,-72.87 34.01,-73.33 37.31,-71.46 37.73,-70.89 39.77,-69.6 39.2,-70.07 41.07,-68.37 41.6,-68.15 43.27,-67.21 43.01,-67.43 44.9,-66.07 45.77,-64.97 45.96,-65 45.94,-64.67 47.12,-63.47 49.61,-61.63 49.03,-62.04 49.55,-61.12 50.66,-59.73 53.29,-57.23 52.88,-58.13 53.32,-57.57 54.95,-55.54 56.43,-53.89 55.92,-54.21 58.03,-51.28 57.27,-52.59 57.97,-51.63 59.85,-48.92 60.34,-48.22 60.86,-47.38 61.08,-46.9 61.91,-45.74 63,-43.74 63.5,-42.83 63.29,-42.69 64.85,-40.07 65.53,-38.61 65.58,-38.71 66.27,-36.64 66.24,-37.17 67.04,-35.95 67.81,-33.38 67.95,-33.46 67.89,-32.61 68.65,-30.66 69.15,-29.64 69.29,-29.26 70.05,-27.3 70.47,-25.73 71.02,-23.91 71.05,-23.09 71.51,-21.57 71.74,-21.12 72.46,-17.61 72.38,-18.49 72.57,-18.11 72.55,-16.33 73.06,-14.22 73.15,-12.43 73.5,-9.36 73.73,-9.26 73.81,-10.04 73.89,-6.3 73.74,-6.51 74,-5.85 74.22,-3.21 74.23,-2.34 74.26,-0.85 74.18,0.01 74.09,1.06" fill="rgb(255, 235, 205)" stroke="black" stroke-width="1.6666666666666665" stroke-linejoin="round" filter="url(#fuzzy)" />
    <g transform="translate(38.35 -21.8)">
      <polyline id="rightCountour" points="-34.99,2.18 -34.78,1.93 -34.55,1.66 -34.28,1.39 -33.98,1.11 -33.65,0.83 -33.29,0.54 -32.89,0.25 -32.45,-0.05 -31.98,-0.36 -31.46,-0.67 -30.92,-0.98 -30.33,-1.3 -29.71,-1.62 -29.05,-1.95 -28.35,-2.27 -27.83,-2.61 -27.24,-2.96 -26.57,-3.31 -25.83,-3.68 -25.02,-4.05 -24.14,-4.42 -23.2,-4.8 -22.18,-5.18 -21.11,-5.56 -19.99,-5.93 -18.81,-6.31 -17.58,-6.68 -16.3,-7.04 -14.99,-7.39 -13.64,-7.73 -12.25,-8.06 -10.85,-8.38 -9.42,-8.68 -7.97,-8.96 -6.51,-9.23 -5.04,-9.48 -3.57,-9.71 -2.1,-9.92 -0.63,-10.11 0.83,-10.27 2.27,-10.41 3.7,-10.53 5.11,-10.63 6.49,-10.7 7.85,-10.74 9.18,-10.77 10.48,-10.76 11.74,-10.74 12.97,-10.69 14.16,-10.61 15.3,-10.52 16.41,-10.4 17.47,-10.26 18.49,-10.09 19.47,-9.91 20.41,-9.71 21.29,-9.5 22.14,-9.26 22.94,-9.02 23.71,-8.75 24.43,-8.48 25.11,-8.19 25.75,-7.9 26.36,-7.6 26.94,-7.29 27.48,-6.97 27.99,-6.65 28.46,-6.32 28.9,-5.98 29.31,-5.63 29.69,-5.27 30.03,-4.91 30.35,-4.55 30.63,-4.18 30.89,-3.8 31.12,-3.43 31.33,-3.05 31.51,-2.67 31.66,-2.29 32.26,-0.54 31.84,-0.14 31.4,0.25 30.94,0.63 30.47,1.01 29.97,1.39 29.46,1.75 28.93,2.11 28.37,2.47 27.8,2.82 27.2,3.16 26.59,3.49 25.95,3.82 25.28,4.15 24.6,4.46 23.89,4.77 23.16,5.08 22.41,5.38 21.63,5.67 20.82,5.96 19.98,6.25 19.12,6.53 18.22,6.8 17.3,7.07 16.35,7.33 15.37,7.58 14.36,7.83 13.33,8.07 12.27,8.3 11.18,8.52 10.06,8.74 8.93,8.95 7.77,9.15 6.59,9.34 5.39,9.52 4.17,9.69 2.94,9.85 1.69,10 0.44,10.14 -0.83,10.27 -2.1,10.39 -3.37,10.5 -4.64,10.59 -5.91,10.67 -7.18,10.74 -8.44,10.8 -9.68,10.84 -10.91,10.87 -12.12,10.89 -13.31,10.89 -14.48,10.87 -15.62,10.85 -16.73,10.8 -17.81,10.75 -18.85,10.67 -19.85,10.59 -20.81,10.49 -21.73,10.37 -22.61,10.24 -23.43,10.09 -24.21,9.93 -24.94,9.76 -25.61,9.57 -26.24,9.37 -26.81,9.16 -27.48,9.02 -28.12,8.88 -28.73,8.73 -29.32,8.57 -29.88,8.41 -30.41,8.25 -30.92,8.08 -31.4,7.9 -31.85,7.72 -32.27,7.54 -32.67,7.35 -33.05,7.16 -33.4,6.97 -33.73,6.78 -34.04,6.59" fill="white" stroke="white" stroke-width="0" stroke-linejoin="round" filter="url(#fuzzy)" />
    </g>
    <g transform="translate(-42.02 -22.12)">
      <polyline id="leftCountour" points="33.19,2.21 32.99,1.98 32.77,1.75 32.51,1.52 32.22,1.28 31.89,1.03 31.53,0.79 31.14,0.53 30.71,0.28 30.24,0.02 29.74,-0.24 29.19,-0.5 28.61,-0.77 28,-1.04 27.34,-1.31 26.65,-1.58 26.13,-1.86 25.54,-2.14 24.88,-2.43 24.14,-2.73 23.34,-3.04 22.46,-3.34 21.52,-3.65 20.52,-3.97 19.45,-4.28 18.33,-4.59 17.15,-4.9 15.93,-5.2 14.66,-5.5 13.36,-5.79 12.02,-6.07 10.64,-6.35 9.24,-6.61 7.82,-6.86 6.39,-7.1 4.94,-7.32 3.48,-7.53 2.02,-7.73 0.56,-7.91 -0.9,-8.07 -2.34,-8.21 -3.78,-8.33 -5.19,-8.44 -6.59,-8.52 -7.96,-8.59 -9.3,-8.64 -10.62,-8.66 -11.9,-8.67 -13.15,-8.66 -14.36,-8.63 -15.53,-8.58 -16.66,-8.51 -17.75,-8.42 -18.8,-8.32 -19.8,-8.19 -20.76,-8.06 -21.68,-7.91 -22.55,-7.74 -23.38,-7.56 -24.16,-7.37 -24.91,-7.16 -25.61,-6.95 -26.27,-6.73 -26.9,-6.5 -27.48,-6.27 -28.04,-6.03 -28.56,-5.78 -29.05,-5.53 -29.5,-5.27 -29.92,-5 -30.3,-4.73 -30.66,-4.45 -30.98,-4.17 -31.27,-3.89 -31.53,-3.6 -31.77,-3.31 -31.97,-3.01 -32.15,-2.72 -32.31,-2.42 -32.43,-2.12 -31.5,0.58 -31,0.86 -30.49,1.14 -29.96,1.41 -29.42,1.68 -28.85,1.94 -28.27,2.21 -27.67,2.46 -27.05,2.72 -26.41,2.96 -25.76,3.21 -25.08,3.45 -24.38,3.69 -23.67,3.92 -22.93,4.14 -22.18,4.37 -21.4,4.59 -20.6,4.8 -19.78,5.01 -18.93,5.22 -18.06,5.43 -17.16,5.63 -16.25,5.82 -15.3,6.01 -14.34,6.2 -13.35,6.38 -12.34,6.55 -11.3,6.72 -10.25,6.88 -9.18,7.04 -8.08,7.19 -6.97,7.33 -5.85,7.47 -4.71,7.6 -3.55,7.72 -2.39,7.83 -1.21,7.94 -0.03,8.04 1.15,8.13 2.34,8.21 3.53,8.28 4.72,8.34 5.91,8.4 7.08,8.44 8.25,8.48 9.41,8.5 10.55,8.52 11.68,8.52 12.79,8.51 13.88,8.5 14.94,8.47 15.98,8.43 16.98,8.39 17.96,8.33 18.91,8.26 19.81,8.18 20.69,8.09 21.52,7.99 22.31,7.88 23.06,7.76 23.77,7.63 24.43,7.49 25.05,7.34 25.63,7.18 26.16,7.02 26.77,6.9 27.36,6.78 27.92,6.65 28.46,6.52 28.98,6.39 29.47,6.25 29.94,6.11 30.39,5.96 30.82,5.81 31.22,5.66 31.61,5.51 31.97,5.35 32.31,5.19 32.64,5.03 32.94,4.87" fill="white" stroke="white" stroke-width="0" stroke-linejoin="round" filter="url(#fuzzy)" />
    </g>
    <g transform="translate(38.35 -21.8)">
      <polyline id="rightUpper" points="-35.98,4.37 -35.92,4.18 -35.86,3.99 -35.8,3.79 -35.74,3.58 -35.66,3.36 -35.56,3.14 -35.45,2.91 -35.32,2.68 -35.17,2.43 -34.99,2.18 -34.78,1.93 -34.55,1.66 -34.28,1.39 -33.98,1.11 -33.65,0.83 -33.29,0.54 -32.89,0.25 -32.45,-0.05 -31.98,-0.36 -31.46,-0.67 -30.92,-0.98 -30.33,-1.3 -29.71,-1.62 -29.05,-1.95 -28.35,-2.27 -27.83,-2.61 -27.24,-2.96 -26.57,-3.31 -25.83,-3.68 -25.02,-4.05 -24.14,-4.42 -23.2,-4.8 -22.18,-5.18 -21.11,-5.56 -19.99,-5.93 -18.81,-6.31 -17.58,-6.68 -16.3,-7.04 -14.99,-7.39 -13.64,-7.73 -12.25,-8.06 -10.85,-8.38 -9.42,-8.68 -7.97,-8.96 -6.51,-9.23 -5.04,-9.48 -3.57,-9.71 -2.1,-9.92 -0.63,-10.11 0.83,-10.27 2.27,-10.41 3.7,-10.53 5.11,-10.63 6.49,-10.7 7.85,-10.74 9.18,-10.77 10.48,-10.76 11.74,-10.74 12.97,-10.69 14.16,-10.61 15.3,-10.52 16.41,-10.4 17.47,-10.26 18.49,-10.09 19.47,-9.91 20.41,-9.71 21.29,-9.5 22.14,-9.26 22.94,-9.02 23.71,-8.75 24.43,-8.48 25.11,-8.19 25.75,-7.9 26.36,-7.6 26.94,-7.29 27.48,-6.97 27.99,-6.65 28.46,-6.32 28.9,-5.98 29.31,-5.63 29.69,-5.27 30.03,-4.91 30.35,-4.55 30.63,-4.18 30.89,-3.8 31.12,-3.43 31.33,-3.05 31.51,-2.67 31.66,-2.29 31.79,-1.9 31.9,-1.52 31.99,-1.14 32.06,-0.76 32.11,-0.38 32.13,0 32.14,0.38 32.14,0.76 32.11,1.13 32.07,1.5" fill="none" stroke="black" stroke-width="1.6666666666666665" stroke-linejoin="round" filter="url(#fuzzy)" />
      <polyline id="rightLower" points="-36.19,4.86 -36.02,5.01 -35.85,5.16 -35.67,5.32 -35.48,5.49 -35.28,5.66 -35.06,5.84 -34.83,6.02 -34.59,6.21 -34.32,6.4 -34.04,6.59 -33.73,6.78 -33.4,6.97 -33.05,7.16 -32.67,7.35 -32.27,7.54 -31.85,7.72 -31.4,7.9 -30.92,8.08 -30.41,8.25 -29.88,8.41 -29.32,8.57 -28.73,8.73 -28.12,8.88 -27.48,9.02 -26.81,9.16 -26.24,9.37 -25.61,9.57 -24.94,9.76 -24.21,9.93 -23.43,10.09 -22.61,10.24 -21.73,10.37 -20.81,10.49 -19.85,10.59 -18.85,10.67 -17.81,10.75 -16.73,10.8 -15.62,10.85 -14.48,10.87 -13.31,10.89 -12.12,10.89 -10.91,10.87 -9.68,10.84 -8.44,10.8 -7.18,10.74 -5.91,10.67 -4.64,10.59 -3.37,10.5 -2.1,10.39 -0.83,10.27 0.44,10.14 1.69,10 2.94,9.85 4.17,9.69 5.39,9.52 6.59,9.34 7.77,9.15 8.93,8.95 10.06,8.74 11.18,8.52 12.27,8.3 13.33,8.07 14.36,7.83 15.37,7.58 16.35,7.33 17.3,7.07 18.22,6.8 19.12,6.53 19.98,6.25 20.82,5.96 21.63,5.67 22.41,5.38 23.16,5.08 23.89,4.77 24.6,4.46 25.28,4.15 25.95,3.82 26.59,3.49 27.2,3.16 27.8,2.82 28.37,2.47 28.93,2.11 29.46,1.75 29.97,1.39 30.47,1.01 30.94,0.63 31.4,0.25 31.84,-0.14 32.26,-0.54 32.67,-0.95 33.06,-1.36 33.44,-1.77 33.8,-2.2 34.14,-2.62 34.48,-3.06 34.8,-3.5 35.1,-3.94 35.4,-4.39 35.68,-4.85" fill="none" stroke="black" stroke-width="2.2222222222222223" stroke-linejoin="round" filter="url(#fuzzy)" />
      <circle r="4.612" cx="-18.196066536758575" cy="1.5337726182818638" stroke="black" fill="none" stroke-width="1.0" filter="url(#fuzzy)" clip-path="url(#rightEyeClipPath)" /><circle r="4.3260000000000005" cx="-19.256066536758574" cy="2.978772618281864" stroke="black" fill="none" stroke-width="1.0" filter="url(#fuzzy)" clip-path="url(#rightEyeClipPath)" /><circle r="4.774" cx="-21.681066536758575" cy="1.5887726182818636" stroke="black" fill="none" stroke-width="1.0" filter="url(#fuzzy)" clip-path="url(#rightEyeClipPath)" /><circle r="4.934" cx="-19.546066536758577" cy="4.048772618281864" stroke="black" fill="none" stroke-width="1.0" filter="url(#fuzzy)" clip-path="url(#rightEyeClipPath)" /><circle r="4.682" cx="-18.991066536758577" cy="2.6287726182818645" stroke="black" fill="none" stroke-width="1.0" filter="url(#fuzzy)" clip-path="url(#rightEyeClipPath)" /><circle r="4.744" cx="-19.776066536758577" cy="1.4337726182818642" stroke="black" fill="none" stroke-width="1.0" filter="url(#fuzzy)" clip-path="url(#rightEyeClipPath)" /><circle r="4.596" cx="-17.671066536758577" cy="2.2587726182818635" stroke="black" fill="none" stroke-width="1.0" filter="url(#fuzzy)" clip-path="url(#rightEyeClipPath)" /><circle r="3.592" cx="-21.671066536758577" cy="1.2537726182818636" stroke="black" fill="none" stroke-width="1.0" filter="url(#fuzzy)" clip-path="url(#rightEyeClipPath)" /><circle r="3.446" cx="-19.901066536758577" cy="5.188772618281863" stroke="black" fill="none" stroke-width="1.0" filter="url(#fuzzy)" clip-path="url(#rightEyeClipPath)" /><circle r="3.724" cx="-20.331066536758577" cy="1.2037726182818638" stroke="black" fill="none" stroke-width="1.0" filter="url(#fuzzy)" clip-path="url(#rightEyeClipPath)" />
      </g>
    <g transform="translate(-42.02 -22.12)">
      <polyline id="leftUpper" points="34.04,4.28 34,4.09 33.96,3.89 33.92,3.69 33.86,3.49 33.8,3.29 33.72,3.08 33.62,2.87 33.5,2.65 33.36,2.44 33.19,2.21 32.99,1.98 32.77,1.75 32.51,1.52 32.22,1.28 31.89,1.03 31.53,0.79 31.14,0.53 30.71,0.28 30.24,0.02 29.74,-0.24 29.19,-0.5 28.61,-0.77 28,-1.04 27.34,-1.31 26.65,-1.58 26.13,-1.86 25.54,-2.14 24.88,-2.43 24.14,-2.73 23.34,-3.04 22.46,-3.34 21.52,-3.65 20.52,-3.97 19.45,-4.28 18.33,-4.59 17.15,-4.9 15.93,-5.2 14.66,-5.5 13.36,-5.79 12.02,-6.07 10.64,-6.35 9.24,-6.61 7.82,-6.86 6.39,-7.1 4.94,-7.32 3.48,-7.53 2.02,-7.73 0.56,-7.91 -0.9,-8.07 -2.34,-8.21 -3.78,-8.33 -5.19,-8.44 -6.59,-8.52 -7.96,-8.59 -9.3,-8.64 -10.62,-8.66 -11.9,-8.67 -13.15,-8.66 -14.36,-8.63 -15.53,-8.58 -16.66,-8.51 -17.75,-8.42 -18.8,-8.32 -19.8,-8.19 -20.76,-8.06 -21.68,-7.91 -22.55,-7.74 -23.38,-7.56 -24.16,-7.37 -24.91,-7.16 -25.61,-6.95 -26.27,-6.73 -26.9,-6.5 -27.48,-6.27 -28.04,-6.03 -28.56,-5.78 -29.05,-5.53 -29.5,-5.27 -29.92,-5 -30.3,-4.73 -30.66,-4.45 -30.98,-4.17 -31.27,-3.89 -31.53,-3.6 -31.77,-3.31 -31.97,-3.01 -32.15,-2.72 -32.31,-2.42 -32.43,-2.12 -32.54,-1.83 -32.62,-1.53 -32.68,-1.23 -32.72,-0.93 -32.74,-0.64 -32.73,-0.34 -32.71,-0.05 -32.68,0.24 -32.62,0.53 -32.55,0.82" fill="none" stroke="black" stroke-width="2.2222222222222223" stroke-linejoin="round" filter="url(#fuzzy)" />
      <polyline id="leftLower" points="35.31,3.3 35.1,3.44 34.9,3.59 34.69,3.74 34.47,3.9 34.25,4.06 34.01,4.22 33.77,4.38 33.51,4.54 33.23,4.7 32.94,4.87 32.64,5.03 32.31,5.19 31.97,5.35 31.61,5.51 31.22,5.66 30.82,5.81 30.39,5.96 29.94,6.11 29.47,6.25 28.98,6.39 28.46,6.52 27.92,6.65 27.36,6.78 26.77,6.9 26.16,7.02 25.63,7.18 25.05,7.34 24.43,7.49 23.77,7.63 23.06,7.76 22.31,7.88 21.52,7.99 20.69,8.09 19.81,8.18 18.91,8.26 17.96,8.33 16.98,8.39 15.98,8.43 14.94,8.47 13.88,8.5 12.79,8.51 11.68,8.52 10.55,8.52 9.41,8.5 8.25,8.48 7.08,8.44 5.91,8.4 4.72,8.34 3.53,8.28 2.34,8.21 1.15,8.13 -0.03,8.04 -1.21,7.94 -2.39,7.83 -3.55,7.72 -4.71,7.6 -5.85,7.47 -6.97,7.33 -8.08,7.19 -9.18,7.04 -10.25,6.88 -11.3,6.72 -12.34,6.55 -13.35,6.38 -14.34,6.2 -15.3,6.01 -16.25,5.82 -17.16,5.63 -18.06,5.43 -18.93,5.22 -19.78,5.01 -20.6,4.8 -21.4,4.59 -22.18,4.37 -22.93,4.14 -23.67,3.92 -24.38,3.69 -25.08,3.45 -25.76,3.21 -26.41,2.96 -27.05,2.72 -27.67,2.46 -28.27,2.21 -28.85,1.94 -29.42,1.68 -29.96,1.41 -30.49,1.14 -31,0.86 -31.5,0.58 -31.98,0.29 -32.44,0 -32.89,-0.29 -33.32,-0.59 -33.74,-0.89 -34.14,-1.19 -34.53,-1.5 -34.91,-1.81 -35.27,-2.12 -35.62,-2.44" fill="none" stroke="black" stroke-width="2.2222222222222223" stroke-linejoin="round" filter="url(#fuzzy)" />
      <circle r="3.438" cx="4.565661218036339" cy="-2.483487504615519" stroke="black" fill="none" stroke-width="1.0" filter="url(#fuzzy)" clip-path="url(#leftEyeClipPath)" /><circle r="4.596" cx="3.300661218036339" cy="-2.983487504615519" stroke="black" fill="none" stroke-width="1.0" filter="url(#fuzzy)" clip-path="url(#leftEyeClipPath)" /><circle r="4.704" cx="2.0406612180363393" cy="-1.6434875046155186" stroke="black" fill="none" stroke-width="1.0" filter="url(#fuzzy)" clip-path="url(#leftEyeClipPath)" /><circle r="3.408" cx="4.375661218036339" cy="-5.748487504615519" stroke="black" fill="none" stroke-width="1.0" filter="url(#fuzzy)" clip-path="url(#leftEyeClipPath)" /><circle r="4.29" cx="2.8256612180363394" cy="-4.498487504615519" stroke="black" fill="none" stroke-width="1.0" filter="url(#fuzzy)" clip-path="url(#leftEyeClipPath)" /><circle r="3.558" cx="4.1556612180363395" cy="-3.8884875046155187" stroke="black" fill="none" stroke-width="1.0" filter="url(#fuzzy)" clip-path="url(#leftEyeClipPath)" /><circle r="4.444" cx="1.2406612180363394" cy="-3.3984875046155185" stroke="black" fill="none" stroke-width="1.0" filter="url(#fuzzy)" clip-path="url(#leftEyeClipPath)" /><circle r="3.532" cx="4.81566121803634" cy="-1.3684875046155192" stroke="black" fill="none" stroke-width="1.0" filter="url(#fuzzy)" clip-path="url(#leftEyeClipPath)" /><circle r="3.984" cx="3.085661218036339" cy="-2.7134875046155185" stroke="black" fill="none" stroke-width="1.0" filter="url(#fuzzy)" clip-path="url(#leftEyeClipPath)" /><circle r="4.766" cx="2.5206612180363397" cy="-3.078487504615519" stroke="black" fill="none" stroke-width="1.0" filter="url(#fuzzy)" clip-path="url(#leftEyeClipPath)" />
    </g>
    <g id="hairs">
      
    </g>
    
        <g id="lineNose">
        <path d="M -11.33,25.869999999999997 Q 10.46, 28.905 -0.4349999999999996, -4.534000000000001" fill="none" stroke="black" stroke-width="3" stroke-linejoin="round" filter="url(#fuzzy)"></path>
        </g>
      
    <g id="mouth">
      <polyline points="-25.17,36.14 -24.98,35.72 -24.78,35.31 -24.57,34.92 -24.35,34.54 -24.12,34.18 -23.88,33.83 -23.63,33.49 -23.38,33.17 -23.11,32.86 -22.84,32.56 -22.55,32.28 -22.26,32.01 -21.96,31.75 -21.65,31.51 -21.33,31.28 -21.01,31.06 -20.67,30.86 -20.33,30.66 -19.98,30.48 -19.62,30.31 -19.25,30.15 -18.87,30 -18.49,29.87 -18.09,29.74 -17.69,29.63 -17.28,29.52 -16.87,29.43 -16.44,29.35 -16.01,29.27 -15.57,29.21 -15.12,29.16 -14.66,29.12 -14.2,29.08 -13.73,29.06 -13.25,29.04 -12.76,29.04 -12.27,29.04 -11.77,29.05 -11.26,29.07 -10.75,29.1 -10.22,29.13 -9.7,29.17 -9.16,29.23 -8.62,29.28 -8.07,29.35 -7.51,29.42 -6.94,29.5 -6.37,29.59 -5.8,29.68 -5.21,29.78 -4.62,29.89 -4.03,30 -3.42,30.12 -2.81,30.25 -2.2,30.38 -1.57,30.51 -0.95,30.65 -0.31,30.8 0.33,30.95 0.98,31.11 1.63,31.27 2.29,31.43 2.95,31.6 3.62,31.77 4.3,31.95 4.98,32.13 5.67,32.31 6.36,32.5 7.06,32.69 7.76,32.88 8.47,33.08 9.19,33.28 9.91,33.48 10.63,33.68 11.36,33.89 12.1,34.09 12.84,34.3 13.58,34.51 14.33,34.72 15.09,34.94 15.85,35.15 16.61,35.37 17.38,35.58 18.15,35.8 18.93,36.02 19.72,36.23 20.5,36.45 21.29,36.67 22.09,36.88 22.89,37.1 23.7,37.32 24.5,37.53 25.32,37.74 26.13,37.96 26.96,38.17 27.78,38.38 28.61,38.58 29.44,38.79 30.28,38.99 30.28,38.99 29.72,38.89 29.17,38.79 28.61,38.68 28.06,38.58 27.51,38.47 26.95,38.37 26.4,38.26 25.84,38.16 25.29,38.05 24.73,37.94 24.18,37.83 23.62,37.73 23.07,37.62 22.52,37.51 21.96,37.4 21.41,37.3 20.85,37.19 20.3,37.08 19.74,36.98 19.19,36.87 18.63,36.76 18.08,36.66 17.53,36.55 16.97,36.45 16.42,36.35 15.86,36.25 15.31,36.15 14.75,36.05 14.2,35.95 13.64,35.85 13.09,35.75 12.54,35.66 11.98,35.56 11.43,35.47 10.87,35.38 10.32,35.29 9.76,35.2 9.21,35.12 8.65,35.04 8.1,34.95 7.55,34.87 6.99,34.8 6.44,34.72 5.88,34.65 5.33,34.58 4.77,34.51 4.22,34.44 3.66,34.38 3.11,34.32 2.55,34.26 2,34.2 1.45,34.15 0.89,34.1 0.34,34.05 -0.22,34.01 -0.77,33.97 -1.33,33.93 -1.88,33.89 -2.44,33.86 -2.99,33.83 -3.54,33.81 -4.1,33.79 -4.65,33.77 -5.21,33.76 -5.76,33.75 -6.32,33.74 -6.87,33.74 -7.43,33.74 -7.98,33.74 -8.53,33.75 -9.09,33.77 -9.64,33.79 -10.2,33.81 -10.75,33.84 -11.31,33.87 -11.86,33.9 -12.42,33.94 -12.97,33.99 -13.52,34.04 -14.08,34.1 -14.63,34.16 -15.19,34.22 -15.74,34.29 -16.3,34.37 -16.85,34.45 -17.41,34.53 -17.96,34.62 -18.51,34.72 -19.07,34.82 -19.62,34.93 -20.18,35.04 -20.73,35.16 -21.29,35.29 -21.84,35.42 -22.4,35.55 -22.95,35.7 -23.5,35.85 -24.06,36 -24.61,36.16" fill="rgb(215,127,140)" stroke="black" stroke-width="3" stroke-linejoin="round" filter="url(#fuzzy)" />
    </g>
  </svg>
  