
  <svg viewBox="-100 -100 200 200" xmlns="http://www.w3.org/2000/svg" width="500" height="500" id="face-svg">
    <defs>
      <clipPath id="leftEyeClipPath">
        <polyline points="36.13,-5.3 35.8,-5.43 35.43,-5.57 35.02,-5.7 34.57,-5.83 34.09,-5.96 33.58,-6.09 33.02,-6.22 32.44,-6.34 31.82,-6.47 31.16,-6.6 30.47,-6.72 29.75,-6.84 29,-6.96 28.21,-7.08 27.4,-7.2 26.63,-7.34 25.8,-7.47 24.92,-7.61 23.99,-7.74 23.01,-7.87 21.98,-8 20.9,-8.12 19.79,-8.24 18.63,-8.35 17.44,-8.46 16.22,-8.56 14.97,-8.66 13.69,-8.75 12.39,-8.83 11.07,-8.91 9.74,-8.98 8.4,-9.04 7.04,-9.1 5.69,-9.15 4.33,-9.19 2.97,-9.23 1.63,-9.26 0.28,-9.28 -1.04,-9.29 -2.36,-9.29 -3.66,-9.29 -4.93,-9.28 -6.19,-9.26 -7.42,-9.24 -8.62,-9.2 -9.8,-9.17 -10.94,-9.12 -12.06,-9.06 -13.14,-9 -14.18,-8.94 -15.2,-8.86 -16.17,-8.79 -17.11,-8.7 -18.02,-8.61 -18.88,-8.52 -19.71,-8.42 -20.51,-8.31 -21.27,-8.21 -21.99,-8.09 -22.69,-7.98 -23.34,-7.86 -23.97,-7.74 -24.57,-7.62 -25.14,-7.49 -25.68,-7.37 -26.2,-7.24 -26.69,-7.11 -27.15,-6.98 -27.59,-6.84 -28,-6.71 -28.39,-6.57 -28.76,-6.43 -29.1,-6.29 -29.43,-6.15 -29.73,-6.01 -30.01,-5.86 -30.27,-5.72 -30.51,-5.57 -30.73,-5.43 -26.11,1.64 -25.63,1.94 -25.13,2.23 -24.62,2.53 -24.1,2.83 -23.57,3.13 -23.02,3.43 -22.46,3.73 -21.89,4.03 -21.3,4.33 -20.71,4.62 -20.1,4.91 -19.47,5.19 -18.84,5.47 -18.19,5.75 -17.53,6.02 -16.86,6.29 -16.17,6.56 -15.46,6.82 -14.74,7.08 -14,7.32 -13.25,7.56 -12.49,7.79 -11.71,8.01 -10.91,8.21 -10.11,8.41 -9.29,8.59 -8.45,8.75 -7.61,8.9 -6.75,9.03 -5.88,9.14 -5,9.24 -4.11,9.31 -3.21,9.37 -2.3,9.41 -1.38,9.43 -0.46,9.42 0.47,9.4 1.41,9.36 2.36,9.29 3.31,9.21 4.26,9.11 5.22,8.98 6.18,8.84 7.14,8.68 8.11,8.5 9.07,8.3 10.04,8.08 11,7.85 11.96,7.6 12.92,7.34 13.87,7.06 14.82,6.77 15.76,6.48 16.7,6.17 17.63,5.85 18.55,5.52 19.46,5.19 20.36,4.86 21.25,4.52 22.13,4.17 22.99,3.83 23.84,3.49 24.68,3.15 25.5,2.82 26.22,2.52 26.93,2.23 27.62,1.94 28.3,1.65 28.97,1.36 29.62,1.07 30.25,0.78 30.87,0.5 31.47,0.22 32.05,-0.05 32.61,-0.31 33.14,-0.58 33.66,-0.83 34.15,-1.08 34.62,-1.32" />
      </clipPath>
      <clipPath id="rightEyeClipPath">
        <polyline points="-35,-4.6 -34.63,-4.71 -34.23,-4.81 -33.78,-4.92 -33.31,-5.03 -32.8,-5.13 -32.26,-5.24 -31.68,-5.34 -31.07,-5.44 -30.42,-5.55 -29.75,-5.65 -29.04,-5.75 -28.3,-5.85 -27.53,-5.94 -26.73,-6.04 -25.9,-6.13 -25.11,-6.25 -24.26,-6.36 -23.37,-6.47 -22.42,-6.57 -21.43,-6.68 -20.39,-6.78 -19.31,-6.88 -18.19,-6.97 -17.03,-7.06 -15.83,-7.15 -14.61,-7.23 -13.35,-7.31 -12.07,-7.39 -10.78,-7.46 -9.46,-7.52 -8.13,-7.58 -6.79,-7.63 -5.44,-7.68 -4.09,-7.72 -2.74,-7.76 -1.4,-7.79 -0.05,-7.81 1.28,-7.83 2.6,-7.84 3.9,-7.85 5.19,-7.85 6.46,-7.84 7.7,-7.83 8.92,-7.81 10.12,-7.78 11.28,-7.75 12.42,-7.72 13.52,-7.68 14.59,-7.63 15.63,-7.58 16.63,-7.52 17.59,-7.46 18.52,-7.4 19.42,-7.33 20.27,-7.25 21.1,-7.18 21.88,-7.1 22.63,-7.01 23.35,-6.93 24.03,-6.84 24.68,-6.74 25.3,-6.65 25.89,-6.56 26.45,-6.46 26.99,-6.37 27.5,-6.27 27.98,-6.17 28.44,-6.07 28.87,-5.96 29.28,-5.86 29.66,-5.76 30.02,-5.65 30.36,-5.54 30.67,-5.44 30.97,-5.33 31.24,-5.22 31.49,-5.11 31.73,-5.01 31.95,-4.9 25.4,0.56 24.84,0.8 24.27,1.04 23.68,1.28 23.09,1.52 22.48,1.76 21.86,2.01 21.23,2.25 20.59,2.5 19.93,2.74 19.27,2.99 18.6,3.23 17.91,3.47 17.22,3.71 16.52,3.95 15.81,4.18 15.08,4.42 14.34,4.65 13.59,4.88 12.83,5.11 12.06,5.34 11.27,5.56 10.48,5.77 9.68,5.98 8.87,6.18 8.05,6.38 7.22,6.56 6.39,6.74 5.55,6.9 4.71,7.06 3.86,7.2 3.01,7.33 2.15,7.44 1.29,7.55 0.43,7.63 -0.43,7.71 -1.3,7.77 -2.17,7.81 -3.04,7.84 -3.9,7.85 -4.77,7.84 -5.64,7.82 -6.51,7.78 -7.37,7.72 -8.24,7.65 -9.1,7.56 -9.96,7.45 -10.82,7.33 -11.68,7.19 -12.54,7.04 -13.39,6.87 -14.24,6.68 -15.08,6.48 -15.93,6.27 -16.76,6.04 -17.6,5.8 -18.43,5.55 -19.26,5.28 -20.08,5.01 -20.89,4.73 -21.7,4.44 -22.51,4.14 -23.3,3.83 -24.09,3.52 -24.88,3.21 -25.54,2.96 -26.19,2.72 -26.83,2.47 -27.46,2.21 -28.08,1.96 -28.69,1.7 -29.29,1.45 -29.88,1.2 -30.44,0.94 -31,0.69 -31.54,0.44 -32.06,0.2 -32.56,-0.04 -33.04,-0.28 -33.5,-0.51" />
      </clipPath>
      <filter id="fuzzy">
        <feTurbulence id="turbulence" baseFrequency="0.05" numOctaves="3" type="noise" result="noise" />
        <feDisplacementMap in="SourceGraphic" in2="noise" scale="2" />
      </filter>
      <linearGradient id="rainbowGradient" x1="0%" y1="0%" x2="100%" y2="0%">
        <stop offset="0%" style="stop-color: rgb(165, 42, 42); stop-opacity: 1" />
        <stop offset="50%" style="stop-color: rgb(255, 127, 80); stop-opacity: 1" />
        <stop offset="100%" style="stop-color: rgb(123, 104, 238); stop-opacity: 1" />
      </linearGradient>
    </defs>
    <rect x="-100" y="-100" width="100%" height="100%" fill="rgb(255, 240, 245)" />
    <polyline id="faceContour" points="76.86,2.54 77.27,0.68 77.06,4.27 77,5.33 77.08,5.17 76.87,7.38 76.71,7.44 76.35,10.63 76.38,12.97 76.51,11.8 76.25,12.35 75.99,14.8 75.79,16.8 75.67,16.9 75.27,19.03 74.87,21.7 74.69,21.77 74.45,21.98 74.24,23.88 73.37,26.35 73.83,25.65 72.72,29.76 72.54,30.06 71.71,32.41 71.85,31.76 71.5,33 71.39,33.36 69.73,37.39 69.37,38.61 69.36,38.45 67.73,41.7 69.18,39.27 66.75,43.8 67.27,42.77 67.12,42.89 65.84,45.85 65.33,46.9 64.85,47.5 63.72,49.8 63.34,49.9 62.49,51.41 62.77,51.38 61.27,53.77 60.19,54.98 59.97,55.55 57.87,57.93 58.31,57.37 57.25,58.5 56.57,59.7 54.32,62.46 54.86,61.5 53.18,63.6 53.26,63.68 50.69,66.39 51.97,64.98 49.95,66.68 50.13,66.7 48.09,68.58 46.15,70.58 45.83,70.38 44.91,71.46 45.16,71.14 43.57,72.53 42.81,72.96 40.1,75.21 39.62,75.45 40.03,75.25 38.52,76.18 37.91,76.62 36.1,77.48 35.39,78.24 33.09,79.39 34.19,78.94 30.23,80.75 31.87,79.97 28.36,81.42 28.73,81.45 25.89,82.97 24.42,83.42 23.5,83.82 22.84,83.81 23.11,84.05 21.24,84.5 20.52,84.74 19.98,84.98 18.52,85.17 17.6,85.33 16.2,85.64 14.07,86.36 12.23,86.93 11.75,87.08 9.71,87.06 10.3,86.88 8.6,87.52 6.54,87.63 6.13,87.72 6.67,87.68 2.78,87.57 2.2,87.66 0.58,87.71 -1.61,87.78 -0.82,87.87 -2.03,87.81 -4.23,87.79 -5.39,87.43 -7.29,87.4 -6.56,87.71 -8,87.42 -10.63,86.79 -11.74,86.73 -11.19,86.95 -12.52,86.49 -14.63,86.16 -15.9,86.12 -17.79,85.45 -18.61,85.09 -19.99,85.03 -20.23,84.93 -20.79,84.64 -22.7,83.84 -23.8,83.35 -24.14,83.75 -26.15,82.63 -26.9,82.49 -29.52,81.04 -29.61,81.19 -29.77,81.08 -31.52,80.1 -32.01,79.69 -32.74,79.36 -34.36,78.62 -35.21,78.13 -37,77.2 -39.33,75.51 -39.41,75.2 -39.59,75.55 -42.81,73.01 -42.67,73.08 -43.89,72.21 -43.94,71.96 -45.57,70.92 -46.09,70.59 -46.24,70.59 -48.37,68.26 -48.97,68.03 -51.23,65.87 -51.21,65.32 -52.47,64.52 -52.3,64.65 -54.05,62.91 -55.09,61.42 -56.39,59.71 -56.22,60.41 -56.8,59.3 -56.69,59.31 -58.94,56.91 -58.88,56.8 -60.23,54.84 -61.51,53.11 -62.61,51.16 -62.67,51.52 -62.34,51.97 -64.63,48.29 -65.16,46.7 -65.86,45.83 -65.54,46.15 -67.13,43.62 -67.55,42.62 -67.93,41.72 -68.59,40.14 -68.56,40.41 -69.08,39.48 -69.78,37.32 -70.03,37.62 -71.23,34.34 -71.2,33.59 -71.82,31.7 -72.21,30.86 -72.59,29.13 -73.66,26.62 -73.76,26.1 -73.84,25.2 -74.16,23.59 -74.15,24.59 -74.72,21.08 -75.18,20.52 -75,19.85 -75.5,18.31 -75.97,16.26 -76.13,14.85 -76.34,12.75 -76.34,11.82 -76.32,12.14 -76.7,9.85 -76.51,9.99 -76.79,6.37 -77.04,4.38 -76.93,2.85 -77.11,4 -77.01,1.77 -77.21,-0.54 -77.04,-1.31 -77.32,-1.57 -77.01,-2.64 -76.88,-5.46 -76.58,-8.92 -77.13,-5.96 -76.49,-10.12 -76.4,-12.45 -76.3,-13.16 -76.07,-14.47 -75.87,-15.91 -75.51,-16.66 -75.24,-19.53 -75.63,-17.01 -75.26,-18.69 -74.54,-22.95 -74.09,-24.75 -73.84,-25.72 -73.94,-24.33 -73.39,-26.76 -73.14,-28.53 -72.68,-28.91 -72.69,-29.33 -71.93,-31.49 -71.01,-34.23 -70.96,-34.68 -70.19,-36.86 -70.03,-37.16 -69.57,-37.89 -68.91,-39.65 -68.57,-40.49 -67.74,-41.98 -66.7,-43.96 -66.34,-44.99 -65.59,-46.02 -65.38,-46.67 -63.97,-49.55 -63.17,-50.29 -63.95,-49.03 -62.49,-51.35 -61.6,-52.63 -60.37,-54.73 -61.2,-52.92 -59.67,-55.54 -59.33,-56.21 -57.56,-58.29 -57.53,-58.38 -55.71,-60.67 -55.3,-61.32 -53.98,-62.76 -53.64,-63 -52.22,-64.73 -51.73,-65.43 -50.32,-66.39 -48.57,-68.36 -49.12,-67.86 -47.37,-69.22 -46.42,-70.27 -46.71,-69.81 -43.58,-72.25 -44.49,-71.85 -43.67,-72.41 -40.6,-74.72 -41.83,-73.98 -40.92,-74.36 -38.48,-75.81 -38.69,-76.29 -35.97,-77.41 -36.17,-77.57 -35.19,-78.18 -32.94,-79.43 -33.87,-78.59 -32.27,-80.01 -29.32,-81.42 -28.68,-81.24 -28.9,-81.18 -26.69,-82.41 -25.03,-83.15 -22.81,-83.66 -24.43,-83.15 -21.41,-84.46 -22.12,-84.34 -20.99,-84.37 -20.09,-84.78 -18.27,-85.29 -17.13,-85.49 -15.99,-85.99 -16.05,-85.9 -12.7,-86.61 -13.77,-86.56 -11.95,-86.68 -10.69,-86.96 -6.94,-87.22 -6.17,-87.36 -5.32,-87.37 -4,-87.63 -3.52,-87.67 -3.64,-87.93 -0.2,-87.95 1.35,-87.82 1.16,-87.95 2.52,-87.93 3.83,-87.87 5.5,-87.54 6.35,-87.3 6.52,-87.66 8.05,-87.46 9.02,-87.22 11.73,-86.57 11.75,-86.9 13.47,-86.43 14.47,-86.35 15.75,-86.03 16.86,-85.72 18.95,-85.13 19.45,-84.82 21.21,-84.34 22.39,-83.86 21.42,-84.5 24.64,-83.05 26.79,-82.25 26.44,-82.42 28.41,-81.56 28.61,-81.7 28.94,-81.09 31.1,-80.34 33.38,-79.14 33.19,-79.08 32.2,-79.63 36.35,-77.27 36.42,-77.28 37.81,-76.46 38.72,-75.58 38.72,-75.97 39.25,-75.42 41.55,-73.72 42.83,-72.71 44.94,-71.42 44.49,-71.67 45.2,-71.31 46.76,-69.57 47.21,-69.14 47.89,-68.62 48.95,-67.86 50.12,-66.55 50.39,-66.49 51.38,-65.17 52.62,-64.55 53.2,-63.42 53.84,-62.8 54.71,-61.48 54.99,-61.82 57.29,-58.63 57.99,-57.63 59.35,-56.05 58.53,-57.3 59.14,-56.24 60.77,-53.87 62.44,-51.24 61.37,-53.3 63.2,-50.14 64.2,-48.74 63.98,-48.96 64.6,-47.61 65.35,-46.35 66.03,-45.17 66.52,-43.88 67.44,-42.61 68.09,-41.62 68.98,-39.01 68.79,-39.43 69.12,-38.85 70.57,-35.31 71.39,-33 71.89,-32.02 71.67,-32.01 72.55,-29.48 72.58,-29.39 72.76,-28.52 73.19,-27.36 73.39,-26.23 73.99,-24.7 74.42,-23 74.79,-20.39 75.38,-18.97 75.47,-18.75 75.56,-18 75.51,-18.75 75.92,-15.68 76.02,-13.48 76.49,-12.39 76.23,-12.45 76.85,-9.23 76.88,-7.88 76.88,-5.64 77.18,-4.29 76.98,-4.08 77.08,-1.56 76.95,-1.18 76.86,2.54 77.27,0.68" fill="rgb(165, 42, 42)" stroke="black" stroke-width="1.6666666666666665" stroke-linejoin="round" filter="url(#fuzzy)" />
    <g transform="translate(42.12 -27.65)">
      <polyline id="rightCountour" points="-35,-4.6 -34.63,-4.71 -34.23,-4.81 -33.78,-4.92 -33.31,-5.03 -32.8,-5.13 -32.26,-5.24 -31.68,-5.34 -31.07,-5.44 -30.42,-5.55 -29.75,-5.65 -29.04,-5.75 -28.3,-5.85 -27.53,-5.94 -26.73,-6.04 -25.9,-6.13 -25.11,-6.25 -24.26,-6.36 -23.37,-6.47 -22.42,-6.57 -21.43,-6.68 -20.39,-6.78 -19.31,-6.88 -18.19,-6.97 -17.03,-7.06 -15.83,-7.15 -14.61,-7.23 -13.35,-7.31 -12.07,-7.39 -10.78,-7.46 -9.46,-7.52 -8.13,-7.58 -6.79,-7.63 -5.44,-7.68 -4.09,-7.72 -2.74,-7.76 -1.4,-7.79 -0.05,-7.81 1.28,-7.83 2.6,-7.84 3.9,-7.85 5.19,-7.85 6.46,-7.84 7.7,-7.83 8.92,-7.81 10.12,-7.78 11.28,-7.75 12.42,-7.72 13.52,-7.68 14.59,-7.63 15.63,-7.58 16.63,-7.52 17.59,-7.46 18.52,-7.4 19.42,-7.33 20.27,-7.25 21.1,-7.18 21.88,-7.1 22.63,-7.01 23.35,-6.93 24.03,-6.84 24.68,-6.74 25.3,-6.65 25.89,-6.56 26.45,-6.46 26.99,-6.37 27.5,-6.27 27.98,-6.17 28.44,-6.07 28.87,-5.96 29.28,-5.86 29.66,-5.76 30.02,-5.65 30.36,-5.54 30.67,-5.44 30.97,-5.33 31.24,-5.22 31.49,-5.11 31.73,-5.01 31.95,-4.9 25.4,0.56 24.84,0.8 24.27,1.04 23.68,1.28 23.09,1.52 22.48,1.76 21.86,2.01 21.23,2.25 20.59,2.5 19.93,2.74 19.27,2.99 18.6,3.23 17.91,3.47 17.22,3.71 16.52,3.95 15.81,4.18 15.08,4.42 14.34,4.65 13.59,4.88 12.83,5.11 12.06,5.34 11.27,5.56 10.48,5.77 9.68,5.98 8.87,6.18 8.05,6.38 7.22,6.56 6.39,6.74 5.55,6.9 4.71,7.06 3.86,7.2 3.01,7.33 2.15,7.44 1.29,7.55 0.43,7.63 -0.43,7.71 -1.3,7.77 -2.17,7.81 -3.04,7.84 -3.9,7.85 -4.77,7.84 -5.64,7.82 -6.51,7.78 -7.37,7.72 -8.24,7.65 -9.1,7.56 -9.96,7.45 -10.82,7.33 -11.68,7.19 -12.54,7.04 -13.39,6.87 -14.24,6.68 -15.08,6.48 -15.93,6.27 -16.76,6.04 -17.6,5.8 -18.43,5.55 -19.26,5.28 -20.08,5.01 -20.89,4.73 -21.7,4.44 -22.51,4.14 -23.3,3.83 -24.09,3.52 -24.88,3.21 -25.54,2.96 -26.19,2.72 -26.83,2.47 -27.46,2.21 -28.08,1.96 -28.69,1.7 -29.29,1.45 -29.88,1.2 -30.44,0.94 -31,0.69 -31.54,0.44 -32.06,0.2 -32.56,-0.04 -33.04,-0.28 -33.5,-0.51" fill="white" stroke="white" stroke-width="0" stroke-linejoin="round" filter="url(#fuzzy)" />
    </g>
    <g transform="translate(-45.56 -27.009999999999998)">
      <polyline id="leftCountour" points="36.13,-5.3 35.8,-5.43 35.43,-5.57 35.02,-5.7 34.57,-5.83 34.09,-5.96 33.58,-6.09 33.02,-6.22 32.44,-6.34 31.82,-6.47 31.16,-6.6 30.47,-6.72 29.75,-6.84 29,-6.96 28.21,-7.08 27.4,-7.2 26.63,-7.34 25.8,-7.47 24.92,-7.61 23.99,-7.74 23.01,-7.87 21.98,-8 20.9,-8.12 19.79,-8.24 18.63,-8.35 17.44,-8.46 16.22,-8.56 14.97,-8.66 13.69,-8.75 12.39,-8.83 11.07,-8.91 9.74,-8.98 8.4,-9.04 7.04,-9.1 5.69,-9.15 4.33,-9.19 2.97,-9.23 1.63,-9.26 0.28,-9.28 -1.04,-9.29 -2.36,-9.29 -3.66,-9.29 -4.93,-9.28 -6.19,-9.26 -7.42,-9.24 -8.62,-9.2 -9.8,-9.17 -10.94,-9.12 -12.06,-9.06 -13.14,-9 -14.18,-8.94 -15.2,-8.86 -16.17,-8.79 -17.11,-8.7 -18.02,-8.61 -18.88,-8.52 -19.71,-8.42 -20.51,-8.31 -21.27,-8.21 -21.99,-8.09 -22.69,-7.98 -23.34,-7.86 -23.97,-7.74 -24.57,-7.62 -25.14,-7.49 -25.68,-7.37 -26.2,-7.24 -26.69,-7.11 -27.15,-6.98 -27.59,-6.84 -28,-6.71 -28.39,-6.57 -28.76,-6.43 -29.1,-6.29 -29.43,-6.15 -29.73,-6.01 -30.01,-5.86 -30.27,-5.72 -30.51,-5.57 -30.73,-5.43 -26.11,1.64 -25.63,1.94 -25.13,2.23 -24.62,2.53 -24.1,2.83 -23.57,3.13 -23.02,3.43 -22.46,3.73 -21.89,4.03 -21.3,4.33 -20.71,4.62 -20.1,4.91 -19.47,5.19 -18.84,5.47 -18.19,5.75 -17.53,6.02 -16.86,6.29 -16.17,6.56 -15.46,6.82 -14.74,7.08 -14,7.32 -13.25,7.56 -12.49,7.79 -11.71,8.01 -10.91,8.21 -10.11,8.41 -9.29,8.59 -8.45,8.75 -7.61,8.9 -6.75,9.03 -5.88,9.14 -5,9.24 -4.11,9.31 -3.21,9.37 -2.3,9.41 -1.38,9.43 -0.46,9.42 0.47,9.4 1.41,9.36 2.36,9.29 3.31,9.21 4.26,9.11 5.22,8.98 6.18,8.84 7.14,8.68 8.11,8.5 9.07,8.3 10.04,8.08 11,7.85 11.96,7.6 12.92,7.34 13.87,7.06 14.82,6.77 15.76,6.48 16.7,6.17 17.63,5.85 18.55,5.52 19.46,5.19 20.36,4.86 21.25,4.52 22.13,4.17 22.99,3.83 23.84,3.49 24.68,3.15 25.5,2.82 26.22,2.52 26.93,2.23 27.62,1.94 28.3,1.65 28.97,1.36 29.62,1.07 30.25,0.78 30.87,0.5 31.47,0.22 32.05,-0.05 32.61,-0.31 33.14,-0.58 33.66,-0.83 34.15,-1.08 34.62,-1.32" fill="white" stroke="white" stroke-width="0" stroke-linejoin="round" filter="url(#fuzzy)" />
    </g>
    <g transform="translate(42.12 -27.65)">
      <polyline id="rightUpper" points="-36.88,-3.56 -36.83,-3.66 -36.75,-3.76 -36.65,-3.86 -36.51,-3.97 -36.34,-4.07 -36.14,-4.18 -35.91,-4.28 -35.64,-4.39 -35.34,-4.49 -35,-4.6 -34.63,-4.71 -34.23,-4.81 -33.78,-4.92 -33.31,-5.03 -32.8,-5.13 -32.26,-5.24 -31.68,-5.34 -31.07,-5.44 -30.42,-5.55 -29.75,-5.65 -29.04,-5.75 -28.3,-5.85 -27.53,-5.94 -26.73,-6.04 -25.9,-6.13 -25.11,-6.25 -24.26,-6.36 -23.37,-6.47 -22.42,-6.57 -21.43,-6.68 -20.39,-6.78 -19.31,-6.88 -18.19,-6.97 -17.03,-7.06 -15.83,-7.15 -14.61,-7.23 -13.35,-7.31 -12.07,-7.39 -10.78,-7.46 -9.46,-7.52 -8.13,-7.58 -6.79,-7.63 -5.44,-7.68 -4.09,-7.72 -2.74,-7.76 -1.4,-7.79 -0.05,-7.81 1.28,-7.83 2.6,-7.84 3.9,-7.85 5.19,-7.85 6.46,-7.84 7.7,-7.83 8.92,-7.81 10.12,-7.78 11.28,-7.75 12.42,-7.72 13.52,-7.68 14.59,-7.63 15.63,-7.58 16.63,-7.52 17.59,-7.46 18.52,-7.4 19.42,-7.33 20.27,-7.25 21.1,-7.18 21.88,-7.1 22.63,-7.01 23.35,-6.93 24.03,-6.84 24.68,-6.74 25.3,-6.65 25.89,-6.56 26.45,-6.46 26.99,-6.37 27.5,-6.27 27.98,-6.17 28.44,-6.07 28.87,-5.96 29.28,-5.86 29.66,-5.76 30.02,-5.65 30.36,-5.54 30.67,-5.44 30.97,-5.33 31.24,-5.22 31.49,-5.11 31.73,-5.01 31.95,-4.9 32.15,-4.79 32.33,-4.68 32.5,-4.57 32.65,-4.46 32.79,-4.36 32.91,-4.25 33.02,-4.14 33.12,-4.04 33.2,-3.93 33.28,-3.82" fill="none" stroke="black" stroke-width="1.6666666666666665" stroke-linejoin="round" filter="url(#fuzzy)" />
      <polyline id="rightLower" points="-36.6,-2.29 -36.44,-2.17 -36.24,-2.03 -36,-1.88 -35.73,-1.71 -35.43,-1.54 -35.1,-1.35 -34.74,-1.15 -34.35,-0.94 -33.94,-0.73 -33.5,-0.51 -33.04,-0.28 -32.56,-0.04 -32.06,0.2 -31.54,0.44 -31,0.69 -30.44,0.94 -29.88,1.2 -29.29,1.45 -28.69,1.7 -28.08,1.96 -27.46,2.21 -26.83,2.47 -26.19,2.72 -25.54,2.96 -24.88,3.21 -24.09,3.52 -23.3,3.83 -22.51,4.14 -21.7,4.44 -20.89,4.73 -20.08,5.01 -19.26,5.28 -18.43,5.55 -17.6,5.8 -16.76,6.04 -15.93,6.27 -15.08,6.48 -14.24,6.68 -13.39,6.87 -12.54,7.04 -11.68,7.19 -10.82,7.33 -9.96,7.45 -9.1,7.56 -8.24,7.65 -7.37,7.72 -6.51,7.78 -5.64,7.82 -4.77,7.84 -3.9,7.85 -3.04,7.84 -2.17,7.81 -1.3,7.77 -0.43,7.71 0.43,7.63 1.29,7.55 2.15,7.44 3.01,7.33 3.86,7.2 4.71,7.06 5.55,6.9 6.39,6.74 7.22,6.56 8.05,6.38 8.87,6.18 9.68,5.98 10.48,5.77 11.27,5.56 12.06,5.34 12.83,5.11 13.59,4.88 14.34,4.65 15.08,4.42 15.81,4.18 16.52,3.95 17.22,3.71 17.91,3.47 18.6,3.23 19.27,2.99 19.93,2.74 20.59,2.5 21.23,2.25 21.86,2.01 22.48,1.76 23.09,1.52 23.68,1.28 24.27,1.04 24.84,0.8 25.4,0.56 25.95,0.32 26.48,0.09 27,-0.14 27.51,-0.37 28.01,-0.59 28.5,-0.81 28.97,-1.03 29.43,-1.25 29.88,-1.46 30.32,-1.67" fill="none" stroke="black" stroke-width="2.2222222222222223" stroke-linejoin="round" filter="url(#fuzzy)" />
      <circle r="3.488" cx="-5.880037915224931" cy="4.3856054767090615" stroke="black" fill="none" stroke-width="1.0" filter="url(#fuzzy)" clip-path="url(#rightEyeClipPath)" /><circle r="4.226" cx="-5.875037915224931" cy="2.1406054767090614" stroke="black" fill="none" stroke-width="1.0" filter="url(#fuzzy)" clip-path="url(#rightEyeClipPath)" /><circle r="3.098" cx="-7.720037915224932" cy="3.7956054767090617" stroke="black" fill="none" stroke-width="1.0" filter="url(#fuzzy)" clip-path="url(#rightEyeClipPath)" /><circle r="3.19" cx="-6.480037915224932" cy="5.155605476709061" stroke="black" fill="none" stroke-width="1.0" filter="url(#fuzzy)" clip-path="url(#rightEyeClipPath)" /><circle r="3.908" cx="-5.665037915224932" cy="5.440605476709061" stroke="black" fill="none" stroke-width="1.0" filter="url(#fuzzy)" clip-path="url(#rightEyeClipPath)" /><circle r="4.1080000000000005" cx="-8.805037915224931" cy="3.150605476709062" stroke="black" fill="none" stroke-width="1.0" filter="url(#fuzzy)" clip-path="url(#rightEyeClipPath)" /><circle r="3.626" cx="-4.9450379152249315" cy="5.045605476709062" stroke="black" fill="none" stroke-width="1.0" filter="url(#fuzzy)" clip-path="url(#rightEyeClipPath)" /><circle r="3.04" cx="-4.910037915224931" cy="3.075605476709061" stroke="black" fill="none" stroke-width="1.0" filter="url(#fuzzy)" clip-path="url(#rightEyeClipPath)" /><circle r="4.994" cx="-5.875037915224931" cy="3.455605476709062" stroke="black" fill="none" stroke-width="1.0" filter="url(#fuzzy)" clip-path="url(#rightEyeClipPath)" /><circle r="3.466" cx="-8.355037915224932" cy="4.670605476709062" stroke="black" fill="none" stroke-width="1.0" filter="url(#fuzzy)" clip-path="url(#rightEyeClipPath)" />
      </g>
    <g transform="translate(-45.56 -27.009999999999998)">
      <polyline id="leftUpper" points="37.56,-4.03 37.57,-4.15 37.54,-4.27 37.48,-4.4 37.39,-4.52 37.27,-4.65 37.12,-4.78 36.92,-4.91 36.7,-5.04 36.43,-5.17 36.13,-5.3 35.8,-5.43 35.43,-5.57 35.02,-5.7 34.57,-5.83 34.09,-5.96 33.58,-6.09 33.02,-6.22 32.44,-6.34 31.82,-6.47 31.16,-6.6 30.47,-6.72 29.75,-6.84 29,-6.96 28.21,-7.08 27.4,-7.2 26.63,-7.34 25.8,-7.47 24.92,-7.61 23.99,-7.74 23.01,-7.87 21.98,-8 20.9,-8.12 19.79,-8.24 18.63,-8.35 17.44,-8.46 16.22,-8.56 14.97,-8.66 13.69,-8.75 12.39,-8.83 11.07,-8.91 9.74,-8.98 8.4,-9.04 7.04,-9.1 5.69,-9.15 4.33,-9.19 2.97,-9.23 1.63,-9.26 0.28,-9.28 -1.04,-9.29 -2.36,-9.29 -3.66,-9.29 -4.93,-9.28 -6.19,-9.26 -7.42,-9.24 -8.62,-9.2 -9.8,-9.17 -10.94,-9.12 -12.06,-9.06 -13.14,-9 -14.18,-8.94 -15.2,-8.86 -16.17,-8.79 -17.11,-8.7 -18.02,-8.61 -18.88,-8.52 -19.71,-8.42 -20.51,-8.31 -21.27,-8.21 -21.99,-8.09 -22.69,-7.98 -23.34,-7.86 -23.97,-7.74 -24.57,-7.62 -25.14,-7.49 -25.68,-7.37 -26.2,-7.24 -26.69,-7.11 -27.15,-6.98 -27.59,-6.84 -28,-6.71 -28.39,-6.57 -28.76,-6.43 -29.1,-6.29 -29.43,-6.15 -29.73,-6.01 -30.01,-5.86 -30.27,-5.72 -30.51,-5.57 -30.73,-5.43 -30.94,-5.28 -31.13,-5.13 -31.3,-4.99 -31.46,-4.84 -31.6,-4.69 -31.73,-4.55 -31.85,-4.4 -31.95,-4.25 -32.04,-4.11 -32.12,-3.96" fill="none" stroke="black" stroke-width="2.2222222222222223" stroke-linejoin="round" filter="url(#fuzzy)" />
      <polyline id="leftLower" points="37.65,-3.2 37.5,-3.06 37.31,-2.91 37.09,-2.75 36.83,-2.58 36.54,-2.39 36.21,-2.2 35.86,-1.99 35.47,-1.78 35.06,-1.55 34.62,-1.32 34.15,-1.08 33.66,-0.83 33.14,-0.58 32.61,-0.31 32.05,-0.05 31.47,0.22 30.87,0.5 30.25,0.78 29.62,1.07 28.97,1.36 28.3,1.65 27.62,1.94 26.93,2.23 26.22,2.52 25.5,2.82 24.68,3.15 23.84,3.49 22.99,3.83 22.13,4.17 21.25,4.52 20.36,4.86 19.46,5.19 18.55,5.52 17.63,5.85 16.7,6.17 15.76,6.48 14.82,6.77 13.87,7.06 12.92,7.34 11.96,7.6 11,7.85 10.04,8.08 9.07,8.3 8.11,8.5 7.14,8.68 6.18,8.84 5.22,8.98 4.26,9.11 3.31,9.21 2.36,9.29 1.41,9.36 0.47,9.4 -0.46,9.42 -1.38,9.43 -2.3,9.41 -3.21,9.37 -4.11,9.31 -5,9.24 -5.88,9.14 -6.75,9.03 -7.61,8.9 -8.45,8.75 -9.29,8.59 -10.11,8.41 -10.91,8.21 -11.71,8.01 -12.49,7.79 -13.25,7.56 -14,7.32 -14.74,7.08 -15.46,6.82 -16.17,6.56 -16.86,6.29 -17.53,6.02 -18.19,5.75 -18.84,5.47 -19.47,5.19 -20.1,4.91 -20.71,4.62 -21.3,4.33 -21.89,4.03 -22.46,3.73 -23.02,3.43 -23.57,3.13 -24.1,2.83 -24.62,2.53 -25.13,2.23 -25.63,1.94 -26.11,1.64 -26.58,1.34 -27.04,1.05 -27.48,0.76 -27.92,0.47 -28.34,0.19 -28.75,-0.1 -29.15,-0.37 -29.53,-0.65 -29.91,-0.92 -30.27,-1.19" fill="none" stroke="black" stroke-width="2.2222222222222223" stroke-linejoin="round" filter="url(#fuzzy)" />
      <circle r="3.5460000000000003" cx="4.816972718622898" cy="5.111131708610911" stroke="black" fill="none" stroke-width="1.0" filter="url(#fuzzy)" clip-path="url(#leftEyeClipPath)" /><circle r="4.438" cx="2.3669727186228977" cy="3.9561317086109105" stroke="black" fill="none" stroke-width="1.0" filter="url(#fuzzy)" clip-path="url(#leftEyeClipPath)" /><circle r="3.822" cx="5.4169727186228975" cy="6.056131708610909" stroke="black" fill="none" stroke-width="1.0" filter="url(#fuzzy)" clip-path="url(#leftEyeClipPath)" /><circle r="3.826" cx="3.511972718622898" cy="2.60613170861091" stroke="black" fill="none" stroke-width="1.0" filter="url(#fuzzy)" clip-path="url(#leftEyeClipPath)" /><circle r="3.814" cx="5.5869727186228975" cy="5.181131708610911" stroke="black" fill="none" stroke-width="1.0" filter="url(#fuzzy)" clip-path="url(#leftEyeClipPath)" /><circle r="3.4699999999999998" cx="4.026972718622898" cy="5.76613170861091" stroke="black" fill="none" stroke-width="1.0" filter="url(#fuzzy)" clip-path="url(#leftEyeClipPath)" /><circle r="3.5220000000000002" cx="2.9119727186228976" cy="2.88613170861091" stroke="black" fill="none" stroke-width="1.0" filter="url(#fuzzy)" clip-path="url(#leftEyeClipPath)" /><circle r="4.5" cx="6.566972718622898" cy="2.40113170861091" stroke="black" fill="none" stroke-width="1.0" filter="url(#fuzzy)" clip-path="url(#leftEyeClipPath)" /><circle r="3.636" cx="6.116972718622897" cy="1.7011317086109106" stroke="black" fill="none" stroke-width="1.0" filter="url(#fuzzy)" clip-path="url(#leftEyeClipPath)" /><circle r="3.518" cx="3.8669727186228986" cy="2.4061317086109106" stroke="black" fill="none" stroke-width="1.0" filter="url(#fuzzy)" clip-path="url(#leftEyeClipPath)" />
    </g>
    <g id="hairs">
      <polyline points="66.03,-45.17 66.52,-44.06 66.86,-43.16 66.92,-42.51 66.65,-42.15 66.07,-42.06 65.18,-42.2 63.96,-42.62 62.34,-43.43 60.28,-44.72 57.74,-46.56 54.7,-48.95 51.15,-51.89 47.07,-55.34 42.46,-59.29 37.3,-63.73 31.6,-68.65 25.36,-74.09 18.62,-80.08" fill="none" stroke="rgb(44, 34, 43)" stroke-width="2" stroke-linejoin="round" filter="url(#fuzzy)" /><polyline points="15.75,-86.03 16.87,-85.64 17.7,-85.17 18.07,-84.67 17.95,-84.13 17.39,-83.54 16.41,-82.85 15,-82.07 13.08,-81.19 10.57,-80.23 7.42,-79.2 3.63,-78.07 -0.8,-76.84 -5.88,-75.49 -11.65,-74.03 -18.16,-72.47 -25.46,-70.77 -33.58,-68.87 -42.55,-66.79" fill="none" stroke="rgb(44, 34, 43)" stroke-width="2" stroke-linejoin="round" filter="url(#fuzzy)" /><polyline points="62.44,-51.24 62.1,-51.72 62.11,-51.04 61.77,-50.37 60.94,-49.92 59.63,-49.66 57.85,-49.55 55.59,-49.58 52.81,-49.77 49.48,-50.16 45.56,-50.76 41.02,-51.58 35.86,-52.62 30.08,-53.87 23.67,-55.34 16.62,-57.08 8.86,-59.14 0.35,-61.55 -8.96,-64.26 -19.11,-67.22 -30.11,-70.4" fill="none" stroke="rgb(44, 34, 43)" stroke-width="2" stroke-linejoin="round" filter="url(#fuzzy)" /><polyline points="63.98,-48.96 64.4,-47.84 64.43,-47.03 64,-46.52 63.08,-46.3 61.65,-46.39 59.65,-46.83 57.03,-47.62 53.76,-48.76 49.81,-50.24 45.16,-52.07 39.79,-54.33 33.68,-57.11 26.82,-60.44 19.17,-64.34 10.73,-68.76 1.47,-73.68 -8.72,-79.04" fill="none" stroke="rgb(44, 34, 43)" stroke-width="2" stroke-linejoin="round" filter="url(#fuzzy)" /><polyline points="-0.2,-87.95 0.91,-87.88 1.94,-87.81 3.21,-87.67 4.66,-87.48 6.17,-87.26 7.68,-87.03 9.18,-86.8 10.69,-86.55 12.16,-86.31 13.55,-86.07 14.81,-85.86 15.89,-85.68 16.76,-85.53 17.41,-85.42 17.78,-85.36 17.82,-85.38 17.49,-85.47 16.76,-85.67 15.59,-85.95 13.96,-86.35" fill="none" stroke="rgb(44, 34, 43)" stroke-width="2" stroke-linejoin="round" filter="url(#fuzzy)" /><polyline points="-38.48,-75.81 -37.7,-76.38 -36.03,-76.94 -33.94,-77.42 -31.48,-77.82 -28.63,-78.19 -25.4,-78.53 -21.82,-78.85 -17.95,-79.16 -13.86,-79.44 -9.58,-79.67 -5.14,-79.85 -0.57,-79.98 4.04,-80.07 8.6,-80.14 13.1,-80.2 17.6,-80.23 22.23,-80.18 26.99,-80.09" fill="none" stroke="rgb(44, 34, 43)" stroke-width="2" stroke-linejoin="round" filter="url(#fuzzy)" /><polyline points="-17.13,-85.49 -16.22,-85.83 -15.26,-86.07 -14.27,-86.29 -13.31,-86.45 -12.34,-86.57 -11.42,-86.64 -10.65,-86.66 -10.18,-86.61 -10.12,-86.48 -10.49,-86.26 -11.3,-85.93 -12.51,-85.48 -14.13,-84.89 -16.22,-84.17 -18.85,-83.3 -22.07,-82.24 -25.81,-81.04 -29.98,-79.78" fill="none" stroke="rgb(44, 34, 43)" stroke-width="2" stroke-linejoin="round" filter="url(#fuzzy)" /><polyline points="57.99,-57.63 58.71,-56.83 59.16,-56.26 59.78,-55.34 60.53,-54.23 61.28,-53.12 61.93,-52.12 62.48,-51.26 62.9,-50.54 63.21,-49.97 63.39,-49.54 63.44,-49.28 63.35,-49.19 63.11,-49.31 62.71,-49.65 62.13,-50.23 61.35,-51.07 60.36,-52.19 59.15,-53.59 57.71,-55.3 56.02,-57.35 54.05,-59.82 51.79,-62.72 49.32,-66" fill="none" stroke="rgb(44, 34, 43)" stroke-width="2" stroke-linejoin="round" filter="url(#fuzzy)" /><polyline points="14.47,-86.35 15.81,-85.96 17.42,-85.4 19.21,-84.72 21.06,-83.97 22.94,-83.19 24.82,-82.38 26.73,-81.54 28.61,-80.71 30.36,-79.93 31.89,-79.26 33.17,-78.71 34.21,-78.25 35.08,-77.86 35.74,-77.56 36.14,-77.4" fill="none" stroke="rgb(44, 34, 43)" stroke-width="2" stroke-linejoin="round" filter="url(#fuzzy)" /><polyline points="57.29,-58.63 57.72,-57.75 57.4,-57.25 56.4,-56.89 54.83,-56.46 52.68,-56 49.84,-55.63 46.24,-55.45 41.83,-55.46 36.58,-55.67 30.47,-56.08 23.49,-56.66 15.63,-57.41 6.89,-58.33 -2.75,-59.43 -13.32,-60.72 -24.89,-62.19 -37.62,-63.74" fill="none" stroke="rgb(44, 34, 43)" stroke-width="2" stroke-linejoin="round" filter="url(#fuzzy)" /><polyline points="-41.83,-73.98 -40.5,-74.64 -38.82,-75.48 -37.02,-76.29 -35.11,-77.04 -33.07,-77.73 -30.89,-78.38 -28.56,-79.04 -26.08,-79.7 -23.48,-80.36 -20.77,-81.03 -18.01,-81.69 -15.24,-82.32 -12.5,-82.94 -9.84,-83.53 -7.3,-84.1 -4.92,-84.63 -2.69,-85.11 -0.62,-85.55 1.29,-85.96 3.02,-86.36 4.49,-86.79 5.67,-87.24" fill="none" stroke="rgb(44, 34, 43)" stroke-width="2" stroke-linejoin="round" filter="url(#fuzzy)" /><polyline points="46.76,-69.57 47.22,-69.13 47.69,-68.63 48.04,-68.1 48.19,-67.61 48.1,-67.19 47.74,-66.84 47.09,-66.58 46.13,-66.39 44.84,-66.28 43.2,-66.26 41.22,-66.33 38.87,-66.52 36.11,-66.86 32.91,-67.39 29.24,-68.09 25.11,-68.97 20.52,-70 15.46,-71.21 9.95,-72.61 3.99,-74.24 -2.43,-76.1 -9.3,-78.2 -16.66,-80.58" fill="none" stroke="rgb(44, 34, 43)" stroke-width="2" stroke-linejoin="round" filter="url(#fuzzy)" /><polyline points="-11.95,-86.68 -10.14,-86.93 -8.18,-87.13 -6.58,-87.29 -5.31,-87.43 -4.21,-87.56 -3.21,-87.67 -2.26,-87.75 -1.38,-87.8 -0.65,-87.82 -0.11,-87.79 0.18,-87.73 0.17,-87.63 -0.19,-87.51 -0.95,-87.36 -2.13,-87.19 -3.69,-87 -5.58,-86.77 -7.81,-86.52 -10.47,-86.22 -13.58,-85.91" fill="none" stroke="rgb(44, 34, 43)" stroke-width="2" stroke-linejoin="round" filter="url(#fuzzy)" /><polyline points="-35.19,-78.18 -33.9,-78.85 -33.09,-79.26 -32.21,-79.7 -31.39,-80.06 -30.77,-80.24 -30.43,-80.24 -30.37,-80.06 -30.66,-79.66 -31.35,-79.01 -32.52,-78.07 -34.19,-76.8 -36.38,-75.18 -39.08,-73.19 -42.26,-70.83 -45.93,-68.1 -50.19,-65" fill="none" stroke="rgb(44, 34, 43)" stroke-width="2" stroke-linejoin="round" filter="url(#fuzzy)" /><polyline points="38.72,-75.97 39.54,-75.2 40.4,-74.34 40.78,-73.72 40.48,-73.43 39.46,-73.44 37.76,-73.67 35.41,-74.11 32.41,-74.74 28.74,-75.61 24.29,-76.73 18.94,-78.12 12.52,-79.78 4.9,-81.72 -3.89,-83.96" fill="none" stroke="rgb(44, 34, 43)" stroke-width="2" stroke-linejoin="round" filter="url(#fuzzy)" /><polyline points="-40.6,-74.72 -40.72,-74.46 -39.32,-74.85 -37.08,-75.54 -34.33,-76.3 -31.22,-77.05 -27.82,-77.77 -24.15,-78.45 -20.22,-79.13 -16.03,-79.81 -11.62,-80.48 -7.06,-81.16 -2.46,-81.83 2.08,-82.5 6.59,-83.16 11.14,-83.75 15.61,-84.27" fill="none" stroke="rgb(44, 34, 43)" stroke-width="2" stroke-linejoin="round" filter="url(#fuzzy)" /><polyline points="36.42,-77.28 37.56,-76.53 38.47,-75.9 39.41,-75.23 40.54,-74.4 41.82,-73.46 43.09,-72.51 44.25,-71.65 45.22,-70.9 46.01,-70.27 46.62,-69.76 47.07,-69.37 47.35,-69.13 47.44,-69.04 47.31,-69.14 46.91,-69.45 46.18,-70 45,-70.89 43.28,-72.22 41.04,-74" fill="none" stroke="rgb(44, 34, 43)" stroke-width="2" stroke-linejoin="round" filter="url(#fuzzy)" /><polyline points="-40.6,-74.72 -40.9,-74.49 -40.04,-74.93 -38.7,-75.69 -37.2,-76.53 -35.66,-77.36 -34.13,-78.16 -32.63,-78.92 -31.15,-79.66 -29.69,-80.38 -28.26,-81.08 -26.88,-81.74 -25.58,-82.34 -24.41,-82.88 -23.41,-83.33 -22.61,-83.7 -22.06,-83.97 -21.77,-84.14 -21.73,-84.21 -21.9,-84.18 -22.25,-84.05 -22.77,-83.82 -23.5,-83.55" fill="none" stroke="rgb(44, 34, 43)" stroke-width="2" stroke-linejoin="round" filter="url(#fuzzy)" /><polyline points="-13.77,-86.56 -11.88,-86.63 -9.52,-86.53 -6.95,-86.25 -4.35,-85.77 -1.74,-85.12 0.97,-84.32 3.87,-83.37 7,-82.29 10.34,-81.09 13.84,-79.79 17.43,-78.4 21.09,-76.94 24.8,-75.41 28.54,-73.83 32.29,-72.22 35.97,-70.64 39.56,-69.16 43.06,-67.77 46.49,-66.38 49.88,-64.94" fill="none" stroke="rgb(44, 34, 43)" stroke-width="2" stroke-linejoin="round" filter="url(#fuzzy)" /><polyline points="26.79,-82.25 27.22,-82.02 28.39,-81.33 29.91,-80.36 31.74,-79.14 33.8,-77.74 35.98,-76.23 38.16,-74.67 40.32,-73.12 42.43,-71.62 44.45,-70.2 46.31,-68.9 47.98,-67.73 49.42,-66.74 50.6,-65.92" fill="none" stroke="rgb(44, 34, 43)" stroke-width="2" stroke-linejoin="round" filter="url(#fuzzy)" /><polyline points="-28.9,-81.18 -27,-82.15 -25.57,-82.75 -24.63,-83.09 -24.04,-83.27 -23.68,-83.34 -23.49,-83.3 -23.43,-83.14 -23.53,-82.87 -23.8,-82.47 -24.32,-81.92 -25.13,-81.21 -26.26,-80.31 -27.76,-79.19 -29.63,-77.83 -31.88,-76.2 -34.56,-74.3 -37.69,-72.11 -41.34,-69.64 -45.6,-66.9 -50.44,-63.89" fill="none" stroke="rgb(44, 34, 43)" stroke-width="2" stroke-linejoin="round" filter="url(#fuzzy)" /><polyline points="-12.7,-86.61 -12.68,-86.61 -11.32,-86.66 -9.34,-86.72 -7.18,-86.75 -5.07,-86.74 -3.05,-86.68 -1.1,-86.58 0.87,-86.46 2.86,-86.31 4.88,-86.13 6.9,-85.94 8.86,-85.72 10.74,-85.5 12.5,-85.28 14.14,-85.06 15.64,-84.87 16.98,-84.69 18.14,-84.56 19.07,-84.47 19.73,-84.45 20.12,-84.48 20.3,-84.52 20.22,-84.59" fill="none" stroke="rgb(44, 34, 43)" stroke-width="2" stroke-linejoin="round" filter="url(#fuzzy)" /><polyline points="61.37,-53.3 62.51,-51.03 62.59,-49.8 61.89,-49.02 60.62,-48.38 58.81,-47.78 56.45,-47.24 53.51,-46.76 49.94,-46.38 45.71,-46.1 40.79,-45.92 35.19,-45.84 28.89,-45.83 21.88,-45.9 14.12,-46.08 5.58,-46.4 -3.76,-46.92 -13.89,-47.63 -24.77,-48.56 -36.32,-49.77 -48.49,-51.33" fill="none" stroke="rgb(44, 34, 43)" stroke-width="2" stroke-linejoin="round" filter="url(#fuzzy)" /><polyline points="63.98,-48.96 64.55,-47.76 65.03,-46.72 65.37,-45.83 65.54,-45.09 65.53,-44.52 65.31,-44.14 64.85,-43.94 64.16,-43.93 63.22,-44.11 62.02,-44.5 60.52,-45.18 58.7,-46.19 56.53,-47.59 54,-49.4 51.08,-51.59 47.8,-54.14 44.14,-57.02 40.11,-60.21 35.7,-63.71 30.88,-67.56 25.59,-71.82 19.77,-76.57 13.4,-81.88" fill="none" stroke="rgb(44, 34, 43)" stroke-width="2" stroke-linejoin="round" filter="url(#fuzzy)" /><polyline points="-59.67,-55.54 -6.32,-71 15.13,-73.83 16.86,-74.7 14.13,-74.7 13.73,-74.06 15.18,-73.58 16.05,-73.85 14.93,-74.82 11.54,-76.03 6.33,-77.05 0.63,-77.61 -3.04,-77.44 -1.76,-76.13 5.78,-73.26 17.36,-69.02 26.75,-65 26.05,-64.19 11.95,-68.65 -3.51,-75.9 21.21,-84.34" fill="none" stroke="rgb(44, 34, 43)" stroke-width="2" stroke-linejoin="round" filter="url(#fuzzy)" /><polyline points="15.75,-86.03 26.62,-69.04 22.32,-69.6 23.92,-72.48 27.65,-74.07 30.39,-74 30.86,-73.24 28.27,-73.02 22.65,-73.84 15.37,-75.18 8.89,-75.96 5.56,-75.42 6.67,-73.51 11.98,-70.7 19.68,-67.47 26.78,-64.21 30.19,-61.48 29.15,-60.17 24.92,-62.73 -6.17,-87.36" fill="none" stroke="rgb(44, 34, 43)" stroke-width="2" stroke-linejoin="round" filter="url(#fuzzy)" /><polyline points="41.55,-73.72 41.5,-73.5 40.84,-73.03 37.96,-72.49 31.09,-71.98 21.13,-71.31 12,-70.16 8.21,-68.16 11.79,-65.15 21.19,-61.48 32.5,-58.11 41.56,-56.26 45.71,-56.84 44.41,-59.9 39.09,-64.58 32.3,-69.43 26.82,-72.95 24.78,-74.21 26.84,-72.95 31.43,-69.67 33.67,-65.82 24.42,-64.03 -7.11,-65.33 -60.37,-54.73" fill="none" stroke="rgb(44, 34, 43)" stroke-width="2" stroke-linejoin="round" filter="url(#fuzzy)" /><polyline points="-0.2,-87.95 -9.02,-84.07 -7.68,-82.12 -10.03,-78.56 -10.76,-74.12 -7.09,-69.96 -1.37,-66.76 2.86,-65.06 3.79,-65.25 1.64,-67.19 -2.42,-70.06 -7.16,-72.77 -11.37,-74.6 -13.69,-75.5 -12.68,-75.88 -7.39,-76.12 1.88,-76.22 13.31,-75.89 23.91,-74.91 30.64,-73.47 31.92,-71.72 28.44,-69.25 18.78,-67.23 -26.69,-82.41" fill="none" stroke="rgb(44, 34, 43)" stroke-width="2" stroke-linejoin="round" filter="url(#fuzzy)" /><polyline points="71.67,-32.01 54.3,-52.38 46.45,-58.91 40.87,-64.34 38.15,-67.21 35.93,-67.52 30.78,-67.48 21.57,-69.12 10.64,-72.7 2.3,-76.81 0.07,-79.49 4.88,-79.38 14.89,-76.09 26.98,-69.77 39.59,-60.17 55.08,-47.4 66.52,-43.88" fill="none" stroke="rgb(44, 34, 43)" stroke-width="2" stroke-linejoin="round" filter="url(#fuzzy)" /><polyline points="9.02,-87.22 -31.62,-69.36 -37.76,-67.53 -30.3,-69.65 -18.2,-71.22 -6.63,-71.34 0.84,-70.38 3.02,-69.19 1.32,-68.41 -1.73,-68.14 -4.1,-68.01 -4.92,-67.72 -4.02,-67.46 -1.39,-67.85 3.14,-68.97 10.62,-69.13 24.18,-64.29 47.89,-50.19 72.55,-29.48" fill="none" stroke="rgb(44, 34, 43)" stroke-width="2" stroke-linejoin="round" filter="url(#fuzzy)" /><polyline points="33.19,-79.08 1.18,-73.41 3.96,-73.56 4.49,-71.85 0.74,-67.3 -1.06,-62.24 1.89,-59.19 6.67,-59.2 8.68,-61.66 6.27,-64.96 1.87,-67.58 -0.74,-68.63 -0.23,-67.96 0.77,-66.18 -2.15,-64.93 -10.15,-66.63 -17.13,-72.73 -14.49,-81.31 -15.99,-85.99" fill="none" stroke="rgb(44, 34, 43)" stroke-width="2" stroke-linejoin="round" filter="url(#fuzzy)" /><polyline points="51.38,-65.17 16.55,-69.87 22.42,-70.15 25.94,-71.24 22.82,-71.84 18.34,-70.43 16.17,-67.64 16.08,-65.19 15.52,-64.44 12.14,-65.6 5.69,-67.99 -1.47,-70.58 -5.68,-72.45 -4.23,-73.09 2.81,-72.39 12.69,-70.59 22.34,-68.02 32.02,-64 48.02,-53.74 73.19,-27.36" fill="none" stroke="rgb(44, 34, 43)" stroke-width="2" stroke-linejoin="round" filter="url(#fuzzy)" /><polyline points="44.49,-71.67 11.25,-65.68 8.27,-62.24 7.55,-61.7 11.11,-61.93 17.82,-62.94 24.31,-64.45 28.33,-65.68 29.41,-66.3 28.21,-66.65 25.95,-67.35 23.84,-68.7 22.33,-70.45 20.67,-71.92 17.33,-72.33 11.13,-71.06 2.71,-68.02 -4.87,-63.71 -7.43,-59.21 -2.89,-55.69 5.53,-53.99 8.16,-56.68 -32.94,-79.43" fill="none" stroke="rgb(44, 34, 43)" stroke-width="2" stroke-linejoin="round" filter="url(#fuzzy)" /><polyline points="-50.32,-66.39 -26.4,-66.28 4.39,-68.92 18.81,-71.29 18.71,-72.72 12,-73.57 5.27,-74.41 1.17,-75.53 -0.67,-76.93 -1.59,-78.49 -2.57,-80.01 -3.83,-81.25 -5,-81.9 -5.13,-81.54 -3.14,-79.8 1.5,-76.57 7.94,-72.23 13.92,-67.82 17.45,-64.6 19.42,-63.15 24.39,-62.57 35.91,-61.58 48.67,-61.11 59.35,-56.05" fill="none" stroke="rgb(44, 34, 43)" stroke-width="2" stroke-linejoin="round" filter="url(#fuzzy)" /><polyline points="69.12,-38.85 -2.43,-59.1 -28.95,-63.04 -33.37,-65 -32.35,-66.98 -31.72,-69.09 -30.97,-71.13 -28.58,-72.38 -23.83,-72.02 -16.41,-70.06 -6.96,-67.82 1.23,-67.5 2.95,-70.7 -2.38,-76.91 -3.85,-83.63 6.35,-87.3" fill="none" stroke="rgb(44, 34, 43)" stroke-width="2" stroke-linejoin="round" filter="url(#fuzzy)" /><polyline points="-38.69,-76.29 21.45,-62.74 33.62,-65.85 33.22,-69.61 29.03,-71.4 21.14,-72 9.65,-72.17 -3.44,-72.04 -15.03,-71.51 -22.09,-70.61 -22.84,-69.53 -17.6,-68.55 -8.94,-68 -0.51,-68.39 5.18,-70.27 8.51,-73.54 12.49,-76.75 20.21,-77.64 29.66,-76.53 21.21,-84.34" fill="none" stroke="rgb(44, 34, 43)" stroke-width="2" stroke-linejoin="round" filter="url(#fuzzy)" /><polyline points="14.47,-86.35 21.85,-60.26 3.09,-62.49 -1.9,-69.59 4.62,-75.13 14.67,-77.65 24.16,-77.25 31.92,-74.66 37.62,-70.92 41.24,-66.97 43.56,-63.29 46.38,-59.62 51.15,-55.51 55.74,-52.73 51.88,-58.35 28.61,-81.7" fill="none" stroke="rgb(44, 34, 43)" stroke-width="2" stroke-linejoin="round" filter="url(#fuzzy)" /><polyline points="15.75,-86.03 39.28,-69.54 40.22,-62.53 28.07,-63.58 16.3,-68.25 10.75,-73.08 10.78,-76.19 13.41,-76.99 15.39,-75.79 14.18,-73.46 9.64,-70.92 5.71,-68.49 9.11,-65.38 23.7,-60.19 43.29,-53.88 50.2,-55.17 24.64,-83.05" fill="none" stroke="rgb(44, 34, 43)" stroke-width="2" stroke-linejoin="round" filter="url(#fuzzy)" /><polyline points="42.83,-72.71 27.73,-69.13 11.46,-70.74 10.81,-70.81 15.3,-69.82 17.23,-69.31 15.44,-69.48 11.73,-69.8 8.09,-69.86 5.55,-69.51 4.07,-68.75 3.09,-67.79 2.37,-67.02 2.52,-66.91 4.6,-67.64 9.14,-68.92 15.42,-70.01 21.52,-70.24 25.15,-69.5 24.68,-68.38 19.84,-67.86 12.18,-68.94 5.93,-72.27 11.57,-76.08 46.76,-69.57" fill="none" stroke="rgb(44, 34, 43)" stroke-width="2" stroke-linejoin="round" filter="url(#fuzzy)" /><polyline points="-10.69,-86.96 24.5,-65.32 21.97,-70.89 15.82,-76.64 10.19,-78.43 3.5,-77.89 -3.48,-76.83 -8.09,-76.01 -8.72,-75.5 -6.42,-75.1 -4.11,-74.79 -4.39,-74.84 -7.54,-75.6 -11.12,-77.25 -11.66,-79.42 -7.83,-80.88 -0.95,-78.98 13.57,-68.93 67.44,-42.61" fill="none" stroke="rgb(44, 34, 43)" stroke-width="2" stroke-linejoin="round" filter="url(#fuzzy)" /><polyline points="-21.41,-84.46 -37.53,-71.08 -31.32,-69.84 -20.76,-70.85 -9.04,-71.55 3.43,-71.55 14.78,-71.06 23.14,-70.49 28,-70.01 30.08,-69.47 30.45,-68.71 30.05,-67.8 29.62,-67.05 29.83,-66.8 31.06,-67.08 33.16,-67.55 35.3,-67.65 36.11,-66.98 33.87,-65.6 26.93,-64.31 14.49,-64.66 -1.8,-68.2 -17.04,-74.47 -27.69,-78.11 -46.71,-69.81" fill="none" stroke="rgb(44, 34, 43)" stroke-width="2" stroke-linejoin="round" filter="url(#fuzzy)" /><polyline points="36.42,-77.28 28.96,-68.61 12.28,-72.03 7.63,-74.93 10.37,-75.34 14.48,-74.51 17.63,-73.28 20.11,-71.67 22.81,-69.47 26.31,-66.69 30.48,-63.65 34.31,-60.96 36.17,-59.27 34.91,-58.85 31.09,-59.3 27.29,-59.64 26.31,-58.97 28.33,-57.52 30.41,-56.87 31.97,-58.08 41.24,-59.24 53.2,-63.42" fill="none" stroke="rgb(44, 34, 43)" stroke-width="2" stroke-linejoin="round" filter="url(#fuzzy)" /><polyline points="18.95,-85.13 5.92,-81.32 17.15,-78.49 26.52,-76.84 29.52,-76.56 28.4,-76.97 26.49,-77.09 25.21,-76.65 23.81,-76.25 20.83,-76.61 15.63,-77.88 9,-79.54 2.48,-80.72 -2.46,-80.78 -4.86,-79.5 -3.99,-76.98 1.03,-73.35 10.56,-68.59 22.38,-63.01 29.5,-58.23 21.53,-58.24 -4.03,-68.26 -11.95,-86.68" fill="none" stroke="rgb(44, 34, 43)" stroke-width="2" stroke-linejoin="round" filter="url(#fuzzy)" /><polyline points="42.83,-72.71 16.74,-76.12 10.19,-72.88 14.47,-70.64 16.76,-70.89 14,-72.41 7.76,-73.93 0.41,-75.25 -5.94,-76.77 -9.73,-78.7 -10.35,-80.78 -8.16,-82.4 -3.95,-83.01 1.57,-82.22 7.92,-79.98 14.32,-76.67 18.9,-73.26 18.72,-71.11 11.94,-71.13 1.58,-72.69 -7.41,-74.02 -40.92,-74.36" fill="none" stroke="rgb(44, 34, 43)" stroke-width="2" stroke-linejoin="round" filter="url(#fuzzy)" /><polyline points="42.83,-72.71 44.27,-68.16 28.38,-72.68 9.83,-77.35 -3.21,-79.01 -7.64,-77.36 -3.97,-73.46 4.39,-69.02 12.97,-65.86 18.66,-65.09 20.95,-66.58 21.23,-69.13 20.93,-71.24 19.95,-72 16.47,-71.46 8.58,-70.33 -2.96,-69.33 -12.64,-68.61 -11.37,-67.56 7.83,-64.55 40.35,-58.16 57.29,-58.63" fill="none" stroke="rgb(44, 34, 43)" stroke-width="2" stroke-linejoin="round" filter="url(#fuzzy)" /><polyline points="-18.27,-85.29 -22.81,-78.36 -4.5,-74.4 10.24,-71.66 11.83,-70.12 4.48,-69.01 -3.19,-67.75 -5.34,-66.42 -1.63,-65.63 4.13,-66.08 7.32,-68.11 5.61,-71.31 0.01,-74.77 -6.1,-77.58 -9.2,-79.29 -7.61,-80.08 -2.53,-80.52 2.3,-81.27 2.3,-82.71 -4.84,-84.38 -16.26,-84.71 -25.03,-83.15" fill="none" stroke="rgb(44, 34, 43)" stroke-width="2" stroke-linejoin="round" filter="url(#fuzzy)" /><polyline points="-40.92,-74.36 -7.38,-76.6 22.11,-71.69 38.35,-67.16 42.49,-65.13 37.85,-66.03 29.26,-69.08 21.8,-72.66 18.33,-75.17 18.14,-75.81 18.26,-74.82 16.52,-73.04 13.69,-71.22 12.52,-70.09 13.41,-71.08 11.52,-76.12 1.95,-83.88 -12.7,-86.61" fill="none" stroke="rgb(44, 34, 43)" stroke-width="2" stroke-linejoin="round" filter="url(#fuzzy)" /><polyline points="-48.57,-68.36 -14.58,-78 -3.14,-76.97 -0.54,-73.29 -0.11,-70.1 0.58,-68.54 0.41,-69.01 -1.81,-71.07 -5.44,-73.7 -8.51,-75.85 -9.07,-76.85 -6.28,-76.57 -0.87,-75.27 4.94,-73.54 8.29,-72.08 7.1,-71.39 1.4,-71.43 -6.29,-71.53 -12.09,-70.99 -13.42,-69.93 -13.43,-69.38 -25.32,-68.68 -57.53,-58.38" fill="none" stroke="rgb(44, 34, 43)" stroke-width="2" stroke-linejoin="round" filter="url(#fuzzy)" /><polyline points="13.47,-86.43 5.45,-78.16 2.3,-70.98 3.16,-69.67 0.9,-70.95 -2.74,-72.09 -4.35,-72.25 -2.93,-71.45 0.55,-70.08 4.78,-68.77 8.91,-68.22 12.57,-68.73 16,-69.9 19.93,-70.85 25.06,-70.77 31.21,-69.46 36.63,-67.4 38.51,-65.46 34.7,-64.95 29.06,-67.17 54.99,-61.82" fill="none" stroke="rgb(44, 34, 43)" stroke-width="2" stroke-linejoin="round" filter="url(#fuzzy)" /><polyline points="-38.48,-75.81 -25.23,-79.58 -17.56,-80.04 -12.07,-79.71 -4.55,-79.28 3.67,-78.45 9.02,-77.03 9.73,-74.9 7.94,-71.89 8.18,-68.11 13.07,-64.38 19.78,-62.35 20.61,-63.62 9.11,-68.26 -12.1,-73.89 -28.67,-78.09 -25.03,-83.15" fill="none" stroke="rgb(44, 34, 43)" stroke-width="2" stroke-linejoin="round" filter="url(#fuzzy)" /><polyline points="-57.56,-58.29 -36.75,-68.84 -18.95,-70.93 -1.74,-69.36 15.01,-67.49 27.13,-66.43 32.09,-66.1 30.96,-65.82 27.05,-64.77 23.8,-62.58 23.05,-59.56 24.45,-56.55 25.96,-54.37 25.14,-53.49 20.65,-53.9 13.18,-55.31 5.39,-57.35 0.84,-59.58 2.08,-61.41 7.85,-62.37 11.13,-62.92 8.38,-65.35 42.83,-72.71" fill="none" stroke="rgb(44, 34, 43)" stroke-width="2" stroke-linejoin="round" filter="url(#fuzzy)" /><polyline points="47.89,-68.62 39.16,-50.9 26.38,-50.36 24.73,-53.82 26.56,-57.4 28.87,-59.63 31.94,-60.46 34.94,-60.49 34.93,-60.37 28.91,-60.44 16.96,-60.75 3.31,-61.21 -5.91,-61.77 -7.08,-62.95 -1.01,-66.31 11.14,-74.27 16.86,-85.72" fill="none" stroke="rgb(44, 34, 43)" stroke-width="2" stroke-linejoin="round" filter="url(#fuzzy)" /><polyline points="37.81,-76.46 34.21,-74.88 25.82,-72.8 14.88,-72.94 7.22,-73.54 5.5,-73.69 8.65,-73.56 13.09,-73.82 15.6,-74.89 15.39,-76.44 13.33,-77.51 9.96,-77.42 4.89,-76.72 -1.3,-77.14 -6.3,-79.86 -12.27,-82.35 -36.17,-77.57" fill="none" stroke="rgb(44, 34, 43)" stroke-width="2" stroke-linejoin="round" filter="url(#fuzzy)" /><polyline points="-46.42,-70.27 -30.61,-74.73 -13.38,-73.08 -3.58,-72.46 -0.75,-73.17 1.02,-73.7 4.23,-73.7 7.15,-73.87 7.28,-74.89 4.09,-76.75 -0.79,-78.89 -4.94,-80.69 -6.68,-81.76 -5.78,-82.02 -3.38,-81.56 -1.15,-80.57 0.15,-79.39 1.83,-78.49 6.12,-77.91 10.93,-76.55 1.78,-72 -53.64,-63" fill="none" stroke="rgb(44, 34, 43)" stroke-width="2" stroke-linejoin="round" filter="url(#fuzzy)" /><polyline points="-15.99,-85.99 19.02,-77.17 35.39,-70.06 39.46,-66.95 37.5,-65.9 30.87,-66.52 19.89,-68.62 6.28,-71.28 -7.19,-73.45 -17.94,-74.58 -24.27,-74.84 -25.55,-74.81 -22.14,-75.06 -15.43,-75.82 -7.54,-76.87 -0.59,-77.56 4.24,-77.06 7.15,-74.86 8.85,-71.23 8.44,-67.47 2.01,-65.6 -13.94,-67.48 -31.64,-73.26 -28.9,-81.18" fill="none" stroke="rgb(44, 34, 43)" stroke-width="2" stroke-linejoin="round" filter="url(#fuzzy)" /><polyline points="3.83,-87.87 3.65,-85.39 1.29,-78.19 1.43,-71.88 3.08,-69.76 4.29,-70.6 5.13,-71.69 6.96,-71.4 10.66,-69.64 15.18,-67.2 17.6,-65.09 15.36,-64.25 9.11,-65.15 2.93,-67.47 0.23,-69.84 0.21,-69.65 7.25,-62.65 65.35,-46.35" fill="none" stroke="rgb(44, 34, 43)" stroke-width="2" stroke-linejoin="round" filter="url(#fuzzy)" /><polyline points="-53.98,-62.76 -25.49,-73.05 -2.6,-77.85 9.6,-79.23 14.56,-77.9 14.28,-74.86 10.66,-71.23 6.46,-67.93 4.55,-65.52 6.65,-64.1 12.88,-63.41 21.92,-63.12 31.47,-63.26 39.08,-64.12 43.07,-65.82 42.85,-68.12 37.79,-70.79 25.22,-74.07 -0.15,-77.52 -40.92,-74.36" fill="none" stroke="rgb(44, 34, 43)" stroke-width="2" stroke-linejoin="round" filter="url(#fuzzy)" /><polyline points="-26.69,-82.41 1.44,-67.18 -7.59,-68.61 -12.7,-74.36 -12.56,-79.21 -11.3,-82.09 -10.54,-83.28 -9.68,-83.24 -7.84,-82.32 -5.05,-80.78 -2.14,-78.94 0.06,-77.21 1.29,-75.87 1.95,-75.01 2.98,-74.45 5.6,-73.91 10.75,-73.13 18.14,-72.04 25.47,-70.76 28.82,-69.66 24.81,-69.4 13,-70.29 -6.06,-69.9 -55.3,-61.32" fill="none" stroke="rgb(44, 34, 43)" stroke-width="2" stroke-linejoin="round" filter="url(#fuzzy)" /><polyline points="47.21,-69.14 46.78,-60.61 33.38,-69.08 20.91,-75.45 10.16,-77.19 2.53,-75.68 -1.22,-73.23 -1.84,-71.94 -0.33,-72.85 2.67,-75.4 5.91,-78.17 7.29,-80.07 6.07,-80.79 4.31,-80.08 -0.71,-77.25 -40.6,-74.72" fill="none" stroke="rgb(44, 34, 43)" stroke-width="2" stroke-linejoin="round" filter="url(#fuzzy)" /><polyline points="15.75,-86.03 25.1,-62.45 4.66,-64.31 -4.54,-65.73 -0.77,-63.61 6.44,-60.69 10.8,-59.05 12.09,-58.84 12.82,-59.26 14.98,-59.65 18.95,-59.77 23.39,-59.61 25.37,-59.51 21.65,-60.5 11.47,-63.83 -2.92,-69.32 -21.84,-73.82 -44.49,-71.85" fill="none" stroke="rgb(44, 34, 43)" stroke-width="2" stroke-linejoin="round" filter="url(#fuzzy)" /><polyline points="5.5,-87.54 29.09,-74.35 19.81,-75.62 4.56,-77.88 -4.41,-77.84 -5.35,-75.75 -1.41,-73.04 4.15,-70.88 10.06,-69.49 16.49,-68.32 23.53,-66.79 30.26,-64.83 34.96,-62.84 35.86,-61.38 31.75,-60.76 22.56,-60.8 9.36,-61.01 -5.9,-61.37 -20.39,-63.19 -28.67,-68.8 -22.56,-78.92 -3.64,-87.93" fill="none" stroke="rgb(44, 34, 43)" stroke-width="2" stroke-linejoin="round" filter="url(#fuzzy)" /><polyline points="42.83,-72.71 20.38,-67.83 -2.4,-64.84 -6.09,-64.31 -0.65,-64.8 6.59,-64.9 13.69,-64.22 19.37,-63.21 21.35,-62.42 18.03,-62.13 10.6,-62.22 2.95,-62.38 -0.72,-62.27 1.38,-61.74 8.07,-60.9 17.8,-59.79 31.1,-57.65 48.19,-52.92 62.69,-46.45 64.2,-48.74" fill="none" stroke="rgb(44, 34, 43)" stroke-width="2" stroke-linejoin="round" filter="url(#fuzzy)" /><polyline points="62.44,-51.24 42.12,-58.6 23.82,-68.7 18.13,-73.77 16.95,-73.95 15.49,-71.68 13.57,-69.38 12.85,-68.29 14.67,-68.41 18.72,-69.12 22.89,-69.95 24.26,-70.82 20.89,-71.75 13.37,-72.46 5.27,-72.25 1.94,-70.32 7.89,-66.13 23.55,-59.65 43.5,-52.08 58.39,-46.67 60.78,-49.02 47.21,-69.14" fill="none" stroke="rgb(44, 34, 43)" stroke-width="2" stroke-linejoin="round" filter="url(#fuzzy)" /><polyline points="44.49,-71.67 18.69,-76.05 21.86,-74.22 23.03,-70.85 18.73,-67.31 12.52,-64.6 9.1,-62.79 10.84,-61.39 16.11,-60.46 20.77,-60.76 21.48,-62.92 18.18,-66.49 13.92,-69.86 12.25,-71.28 14.31,-69.99 17.96,-66.74 20.22,-63.15 21.11,-60.64 22.56,-60.03 14.44,-62.64 -44.49,-71.85" fill="none" stroke="rgb(44, 34, 43)" stroke-width="2" stroke-linejoin="round" filter="url(#fuzzy)" /><polyline points="44.49,-71.67 30.37,-74.94 23.88,-74.3 21.59,-72.59 16.09,-71.83 9.05,-72.04 4.64,-72.82 4.27,-73.71 6.4,-74.18 8.79,-73.71 10.32,-72.29 11.01,-70.52 10.9,-69.13 9.18,-68.42 4.88,-68.2 -1.97,-69.06 -10.11,-73.94 1.16,-87.95" fill="none" stroke="rgb(44, 34, 43)" stroke-width="2" stroke-linejoin="round" filter="url(#fuzzy)" /><polyline points="-59.33,-56.21 10.46,-58.97 36.45,-55.95 35.02,-58.97 24.3,-64.61 17.05,-69.26 17.55,-71.17 23.86,-69.77 31.33,-65.93 34.95,-62.04 31.33,-60.89 21.43,-63.36 12.93,-67.11 17.28,-68.2 36.04,-66.29 38.72,-75.97" fill="none" stroke="rgb(44, 34, 43)" stroke-width="2" stroke-linejoin="round" filter="url(#fuzzy)" /><polyline points="-0.2,-87.95 -2.37,-88.22 -3.46,-88.37 -4.35,-88.46 -5.39,-88.95 -6.72,-90.1 -8.31,-91.68 -10.01,-93.2 -11.69,-94.26 -13.23,-94.81 -14.66,-95.09 -16.02,-95.44 -17.38,-95.97 -18.74,-96.56 -20.09,-96.98 -21.43,-97.07 -22.7,-96.87 -23.83,-96.67 -24.69,-97 -24.88,-98.15 -3.64,-87.93 -1.1,-88.18 0.43,-88.66 1.57,-89.31 2.65,-89.92 3.75,-90.36 4.85,-90.57 5.95,-90.66 7.06,-90.73 8.22,-90.85 9.44,-91.02 10.72,-91.21 12.03,-91.38 13.34,-91.51 14.66,-91.62 16.01,-91.74 17.4,-91.92 18.85,-92.16 20.33,-92.48 21.79,-92.87 23.12,-93.28 24.01,-93.62 23.77,-93.76" fill="none" stroke="rgb(44, 34, 43)" stroke-width="2" stroke-linejoin="round" filter="url(#fuzzy)" /><polyline points="-3.52,-87.67 -2.68,-88.55 -1.17,-89.34 0.22,-90.08 1.44,-91.3 2.64,-93.25 3.88,-95.67 5.12,-97.93 6.32,-99.43 7.46,-100.12 8.66,-100.48 10.02,-101.18 11.62,-102.61 13.4,-104.81 15.23,-107.8 17.27,-110.76 -6.94,-87.22 -9.89,-88.44 -11.71,-88.58 -13.04,-88.62 -14.26,-88.94 -15.49,-89.5 -16.75,-90.08 -18.03,-90.6 -19.38,-91.2 -20.8,-92.11 -22.3,-93.46 -23.85,-95.16 -25.39,-96.93 -26.9,-98.46 -28.4,-99.63 -29.99,-100.54 -31.75,-101.43 -33.66,-102.4 -35.61,-103.32 -37.5,-103.96 -39.49,-104.23 -41.97,-104.26 -44.52,-103.3 -6.94,-87.22 -9.85,-88.08 -11.71,-88.49 -13.16,-89.15 -14.48,-90.03 -15.76,-90.86 -17.02,-91.42 -18.25,-91.68 -19.46,-91.74 -20.64,-91.69 -21.77,-91.64 -22.88,-91.67 -23.99,-91.89 -25.18,-92.37 -26.52,-93.12 -28.08,-94.15 -29.86,-95.38 -31.79,-96.69 -33.73,-97.87 -35.58,-98.66 -37.43,-98.87 -39.68,-98.61 -42.55,-98.73" fill="none" stroke="rgb(44, 34, 43)" stroke-width="2" stroke-linejoin="round" filter="url(#fuzzy)" /><polyline points="-13.77,-86.56 -12.16,-87.51 -10.32,-88.05 -8.59,-88.85 -7.13,-89.84 -5.91,-90.74 -4.82,-91.36 -3.73,-91.68 -2.59,-91.84 -1.39,-92.03 -0.15,-92.39 1.11,-93.02 2.35,-93.93 3.58,-95.04 4.81,-96.21 6.02,-97.27 7.22,-98.11 8.46,-98.72 9.79,-99.21 11.24,-99.76 12.79,-100.54 14.39,-101.72 16.02,-103.37 17.65,-105.31 -22.81,-83.66 -23.1,-83.66 -22.48,-84 -21.72,-84.37 -20.88,-84.77 -19.92,-85.19 -18.89,-85.6 -17.81,-85.97 -16.72,-86.29 -15.61,-86.58 -14.48,-86.85 -13.29,-87.11 -12.01,-87.38 -10.65,-87.66 -9.24,-87.92 -7.84,-88.16 -6.52,-88.38 -5.31,-88.57 -4.19,-88.73 -3.09,-88.87 -1.92,-88.99 -0.65,-89.12 0.59,-89.27 1.59,-89.44 2.57,-89.65" fill="none" stroke="rgb(44, 34, 43)" stroke-width="2" stroke-linejoin="round" filter="url(#fuzzy)" /><polyline points="-25.03,-83.15 -24.49,-85.58 -24.32,-87.5 -23.66,-87.94 -22.78,-87.83 -21.83,-87.81 -20.83,-88.06 -19.81,-88.62 -18.8,-89.49 -17.85,-90.73 -16.98,-92.41 -16.2,-94.56 -15.48,-97.07 -14.78,-99.55 -13.87,-101.4 -12.63,-102.71" fill="none" stroke="rgb(44, 34, 43)" stroke-width="2" stroke-linejoin="round" filter="url(#fuzzy)" /><polyline points="-32.27,-80.01 -33.23,-79.35 -34.06,-79.25 -35.12,-79.3 -36.31,-79.33 -37.54,-79.24 -38.75,-78.97 -39.94,-78.54 -41.07,-78.04 -42.16,-77.59 -43.27,-77.26 -44.46,-77.12 -45.82,-77.18 -47.29,-77.42 -48.86,-77.55 -51.22,-76.56" fill="none" stroke="rgb(44, 34, 43)" stroke-width="2" stroke-linejoin="round" filter="url(#fuzzy)" /><polyline points="-6.62,-83.18 -9.27,-83.01 -10.97,-83.03 -12.23,-83.14 -13.34,-83.28 -14.42,-83.39 -15.5,-83.46 -16.59,-83.46 -17.68,-83.41 -18.75,-83.32 -19.77,-83.21 -20.73,-83.09 -21.63,-82.95 -22.51,-82.75 -23.41,-82.47 -24.39,-82.11 -25.46,-81.68 -26.61,-81.24 -27.79,-80.83 -28.98,-80.45 -30.31,-80.07 -32,-79.55 -33.87,-78.59 -40.6,-74.72 -41.61,-75.62 -41.73,-77.41 -41.2,-79.03 -40.33,-80.24 -39.35,-81.24 -38.53,-82.51 -37.99,-84.32 -37.63,-86.55 -37.21,-88.78 -36.54,-90.68 -35.63,-92.27 -34.65,-93.97 -33.81,-96.27 -33.21,-99.44 -32.75,-103.33 -32.32,-107.41 -31.92,-111.14 -31.4,-114.09 -29.51,-116.43 -48.39,-49.1 -47.77,-51.05 -47.29,-52.44 -47.19,-54.07 -47.17,-55.75 -46.93,-57.24 -46.51,-58.62 -46.14,-60.12 -45.94,-61.84 -45.89,-63.67 -45.78,-65.35 -45.41,-66.6 -44.64,-67.29 -43.55,-67.54 -42.54,-67.84 -42.43,-69.18 -43.67,-72.41" fill="none" stroke="rgb(44, 34, 43)" stroke-width="2" stroke-linejoin="round" filter="url(#fuzzy)" /><polyline points="75.47,-18.75 74.99,-19.34 74.31,-20.56 73.69,-22.07 73.14,-23.58 72.63,-24.95 72.16,-26.15 71.75,-27.21 71.41,-28.17 71.09,-29.09 70.75,-30 70.3,-30.91 69.68,-31.88 68.88,-33.08 67.89,-34.83 66.67,-37.47" fill="none" stroke="rgb(44, 34, 43)" stroke-width="2" stroke-linejoin="round" filter="url(#fuzzy)" /><polyline points="-26.13,-95.82 -28.03,-94.15 -29.55,-92.46 -30.81,-91.11 -31.91,-89.91 -32.93,-88.65 -33.91,-87.32 -34.83,-85.98 -35.69,-84.65 -36.47,-83.33 -37.22,-82.02 -38,-80.78 -38.84,-79.64 -39.75,-78.63 -40.67,-77.71 -41.54,-76.8 -42.34,-75.86 -43.09,-74.9 -43.83,-73.95 -44.59,-73 -45.34,-72.01 -46.08,-70.91 -46.42,-70.27 -46.42,-70.27 -47.35,-69.15 -48.21,-68.22 -49.05,-67.33 -49.92,-66.36 -50.77,-65.28 -51.54,-64.1 -52.21,-62.83 -52.83,-61.51 -53.45,-60.19 -54.13,-58.91 -54.85,-57.67 -55.58,-56.46 -56.27,-55.24 -56.87,-54.03 -57.41,-52.85 -57.94,-51.74 -58.48,-50.72 -59.03,-49.73 -59.51,-48.72 -59.86,-47.67 -60.13,-46.6 -60.49,-45.51 -61.08,-44.29 -61.4,-43.08" fill="none" stroke="rgb(44, 34, 43)" stroke-width="2" stroke-linejoin="round" filter="url(#fuzzy)" /><polyline points="-49.12,-67.86 -49.96,-68.43 -52.29,-69.34 -54.46,-69.74 -56.09,-69.43 -57.42,-68.78 -58.73,-68.09 -60.09,-67.41 -61.43,-66.65 -62.69,-65.74 -63.9,-64.73 -65.14,-63.74 -66.45,-62.89 -67.85,-62.22 -69.32,-61.68 -70.87,-61.24 -72.57,-60.93 -74.52,-60.8 -76.72,-60.88 -78.99,-60.99 -81.01,-60.75 -82.64,-59.93 -84.3,-59 -86.47,-58.64" fill="none" stroke="rgb(44, 34, 43)" stroke-width="2" stroke-linejoin="round" filter="url(#fuzzy)" /><polyline points="-55.71,-60.67 -56.92,-63.6 -57.32,-65.9 -56.34,-66.72 -54.95,-67.16 -53.65,-67.79 -52.58,-68.7 -51.74,-69.82 -51.09,-71.14 -50.6,-72.59 -50.19,-74.13 -49.78,-75.7 -49.35,-77.28 -48.92,-78.9 -48.53,-80.65 -48.24,-82.59 -48.07,-84.72 -47.94,-86.89 -47.63,-88.91 -47.07,-90.82 -47.14,-92.95" fill="none" stroke="rgb(44, 34, 43)" stroke-width="2" stroke-linejoin="round" filter="url(#fuzzy)" /><polyline points="-33.82,-75.16 -34.68,-74.94 -35.61,-74.58 -36.71,-74.14 -37.87,-73.69 -38.99,-73.28 -40.05,-72.89 -41.07,-72.48 -42.05,-72.02 -43,-71.48 -43.92,-70.86 -44.82,-70.19 -45.69,-69.48 -46.57,-68.76 -47.45,-68.02 -48.36,-67.27 -49.29,-66.48 -50.23,-65.62 -51.16,-64.68 -52.08,-63.7 -53.01,-62.76 -54,-61.91 -55.05,-61.08 -56.16,-60.04 -57.53,-58.38" fill="none" stroke="rgb(44, 34, 43)" stroke-width="2" stroke-linejoin="round" filter="url(#fuzzy)" /><polyline points="-59.67,-55.54 -58.06,-55.58 -56.98,-56.47 -55.65,-57.09 -53.92,-57.21 -51.98,-57.01 -50.13,-56.82 -48.62,-56.96 -47.51,-57.52 -46.69,-58.43 -45.95,-59.43 -45.12,-60.24 -44.05,-60.63 -42.74,-60.53 -41.25,-60.02 -39.74,-59.13 -38.68,-57.81" fill="none" stroke="rgb(44, 34, 43)" stroke-width="2" stroke-linejoin="round" filter="url(#fuzzy)" /><polyline points="-49.91,-72.93 -50.9,-71.82 -51.46,-70.68 -52.16,-69.47 -52.95,-68.21 -53.71,-66.92 -54.41,-65.62 -55.07,-64.34 -55.75,-63.07 -56.48,-61.83 -57.27,-60.6 -58.09,-59.36 -58.88,-58.07 -59.58,-56.71 -60.16,-55.35 -60.53,-54.36 -60.37,-54.73" fill="none" stroke="rgb(44, 34, 43)" stroke-width="2" stroke-linejoin="round" filter="url(#fuzzy)" /><polyline points="-63.97,-49.55 -61.25,-48.04 -61.06,-48.66 -60.63,-49.57 -59.67,-50.24 -58.48,-50.7 -57.31,-51.13 -56.2,-51.64 -55.11,-52.23 -53.95,-52.84 -52.68,-53.37 -51.27,-53.75 -49.79,-54.01 -48.37,-54.29 -47.14,-54.71 -46.11,-55.3 -45.12,-55.91 -43.9,-56.28 -42.38,-56.26 -40.89,-56.03 -40.42,-55.85 -64.62,-75.13 -65.06,-72.82 -65.13,-70.36 -65.06,-67.82 -65.21,-65.58 -65.76,-63.85 -66.49,-62.49 -67.08,-61.2 -67.25,-59.69 -67.03,-57.88 -66.59,-55.91 -66.18,-53.99 -65.95,-52.3 -65.91,-50.81 -65.97,-49.36 -66.06,-47.84 -66.18,-46.33 -66.39,-45.02 -66.7,-43.96" fill="none" stroke="rgb(44, 34, 43)" stroke-width="2" stroke-linejoin="round" filter="url(#fuzzy)" /><polyline points="-68.91,-39.65 -68.68,-40.87 -68.38,-42.42 -67.98,-43.95 -67.45,-45.31 -66.79,-46.51 -66.08,-47.62 -65.42,-48.71 -64.85,-49.8 -64.37,-50.91 -63.92,-52.04 -63.45,-53.15 -62.91,-54.22 -62.29,-55.26 -61.6,-56.29 -60.85,-57.36 -60.06,-58.5 -59.24,-59.72 -58.43,-60.99 -57.63,-62.3 -56.86,-63.6 -56.14,-64.87 -55.41,-66.08 -54.68,-67.29 -54.15,-68.49" fill="none" stroke="rgb(44, 34, 43)" stroke-width="2" stroke-linejoin="round" filter="url(#fuzzy)" /><polyline points="-70.03,-37.16 -69.48,-38.06 -68.9,-39.19 -68.27,-40.39 -67.58,-41.6 -66.78,-42.77 -65.88,-43.8 -64.86,-44.69 -63.74,-45.46 -62.58,-46.13 -61.49,-46.72 -60.49,-47.23 -59.47,-47.69 -58.28,-48.23 -56.94,-49.11 -55.9,-50.68" fill="none" stroke="rgb(44, 34, 43)" stroke-width="2" stroke-linejoin="round" filter="url(#fuzzy)" /><polyline points="73.19,-27.36 72.23,-25.7 72.84,-24.32 73.5,-22.85 73.83,-21.37 73.86,-20.05 73.73,-18.93 73.56,-17.94 73.44,-16.95 73.37,-15.84 73.33,-14.58 73.29,-13.24 73.26,-11.87 73.22,-10.46 73.15,-8.91 72.99,-7.19 72.6,-5.32 66.59,-4.88 67.35,-6.66 68.41,-8.37 69.08,-9.9 69.53,-11.3 69.91,-12.67 70.29,-14.01 70.72,-15.29 71.22,-16.47 71.77,-17.56 72.32,-18.66 72.7,-19.85 72.8,-21.19 72.59,-22.65 72.28,-24.17 72.23,-25.71 72.59,-27.22 72.76,-28.52" fill="none" stroke="rgb(44, 34, 43)" stroke-width="2" stroke-linejoin="round" filter="url(#fuzzy)" /><polyline points="98.6,-15.97 97.88,-17.72 97.71,-19.86 96.81,-21.45 94.87,-22.32 92.07,-22.72 88.89,-23.05 85.83,-23.59 83.18,-24.42 80.97,-25.46 79.11,-26.57 77.42,-27.56 75.82,-28.36 74.33,-28.98 73.14,-29.56 72.39,-30.4 71.67,-32.01" fill="none" stroke="rgb(44, 34, 43)" stroke-width="2" stroke-linejoin="round" filter="url(#fuzzy)" /><polyline points="54.06,-60.77 55.74,-58.55 56.93,-57.33 57.77,-56.57 58.44,-55.89 59.11,-55.07 59.85,-54.09 60.63,-53.03 61.43,-51.99 62.21,-50.99 62.95,-50.04 63.63,-49.12 64.23,-48.24 64.79,-47.31 65.38,-46.28 66.03,-45.17" fill="none" stroke="rgb(44, 34, 43)" stroke-width="2" stroke-linejoin="round" filter="url(#fuzzy)" /><polyline points="47.12,-92.44 47.98,-90.68 49.44,-89.03 50.29,-86.7 50.62,-84.12 50.79,-81.78 51.07,-79.88 51.59,-78.45 52.36,-77.42 53.33,-76.67 54.36,-76.02 55.29,-75.25 55.99,-74.18 56.42,-72.76 56.66,-71.09 56.85,-69.35 57.11,-67.68 57.49,-66.12 57.92,-64.54 58.29,-62.78 58.53,-60.8 58.65,-58.86 58.77,-57.43 58.89,-56.76 59.14,-56.24 59.35,-56.05 59.06,-58.38 58.06,-60.04 57.43,-61.95 57.28,-64.06 57.25,-66.05 57.07,-67.72 56.68,-69.13 56.19,-70.47 55.75,-71.9 55.43,-73.52 55.22,-75.3 55.02,-77.11 54.74,-78.82 54.31,-80.34 53.8,-81.75 53.32,-83.18 53.01,-84.83 52.9,-86.97 52.97,-90.1 53.21,-94.4" fill="none" stroke="rgb(44, 34, 43)" stroke-width="2" stroke-linejoin="round" filter="url(#fuzzy)" /><polyline points="52.4,-92.97 52.98,-90.05 53.68,-88.18 54.34,-86.91 55.06,-85.9 55.58,-84.55 55.67,-82.54 55.4,-80 55.04,-77.36 54.86,-75 54.92,-73.04 55.13,-71.31 55.26,-69.55 55.18,-67.57 54.92,-65.46 54.69,-63.53 54.73,-62.19 54.99,-61.82" fill="none" stroke="rgb(44, 34, 43)" stroke-width="2" stroke-linejoin="round" filter="url(#fuzzy)" /><polyline points="50.12,-66.55 51.28,-66.98 52.61,-66.95 53.64,-66.38 54.77,-65.89 56.31,-65.81 58.31,-66.11 60.63,-66.53 63.08,-66.91 65.58,-67.26 68.07,-67.68 70.54,-68.2 72.94,-68.63 75.18,-68.68 77.15,-68.21 78.8,-67.48 80.48,-67 83.3,-66.09" fill="none" stroke="rgb(44, 34, 43)" stroke-width="2" stroke-linejoin="round" filter="url(#fuzzy)" /><polyline points="48.95,-67.86 52.15,-74.42 51.87,-75.88 50.78,-76.29 49.91,-77.11 49.24,-78.26 48.44,-79.37 47.37,-80.2 46.04,-80.76 44.64,-81.18 43.33,-81.66 42.21,-82.36 41.28,-83.32 40.45,-84.49 39.63,-85.78 38.81,-87.12 37.98,-88.53 37.21,-90.12 36.52,-92 35.9,-94.2 35.34,-96.61 34.83,-98.98 34.35,-101.08 33.86,-102.73 33.63,-103.25" fill="none" stroke="rgb(44, 34, 43)" stroke-width="2" stroke-linejoin="round" filter="url(#fuzzy)" /><polyline points="47.21,-69.14 48.29,-69 49.33,-68.52 50.35,-68 51.37,-67.5 52.48,-67.09 53.8,-66.88 55.41,-66.97 57.29,-67.32 59.36,-67.74 61.53,-68.05 63.72,-68.1 65.88,-67.94 67.91,-67.78 69.66,-67.92 71.07,-68.48 72.38,-68.83 45.2,-71.31 46,-69.59 46.05,-67.7 46.1,-65.98 46.59,-64.87 47.49,-64.31 48.51,-63.92 49.39,-63.36 50.04,-62.49 50.48,-61.35 50.83,-60.09 51.22,-58.82 51.7,-57.54 52.22,-56.12 52.66,-54.47 52.84,-52.69 52.62,-51.17 51.79,-50.7 36.53,-104.88 37.39,-105.83 38.19,-104.49 38.87,-101.9 39.28,-98.81 39.45,-95.65 39.61,-92.65 39.93,-89.99 40.49,-87.85 41.24,-86.28 42.07,-85.16 42.83,-84.15 43.45,-82.84 43.92,-80.93 44.26,-78.35 44.5,-75.37 44.62,-72.74 44.49,-71.67" fill="none" stroke="rgb(44, 34, 43)" stroke-width="2" stroke-linejoin="round" filter="url(#fuzzy)" /><polyline points="20.25,-90.96 20.99,-90 21.97,-89.29 22.97,-88.66 24.05,-87.99 25.21,-87.27 26.36,-86.51 27.44,-85.73 28.44,-84.94 29.38,-84.13 30.3,-83.3 31.22,-82.46 32.16,-81.62 33.1,-80.81 34.06,-80.02 35.06,-79.31 36.11,-78.71 37.19,-78.22 38.23,-77.79 39.18,-77.32 40.03,-76.64 40.9,-75.65 41.96,-74.34 43.29,-72.86 44.94,-71.42 68.38,-76.84 67.3,-77.96 65.62,-78.09 63.89,-78.13 62.23,-78.21 60.39,-77.95 58.2,-77.12 55.8,-75.94 53.52,-74.86 51.64,-74.29 50.21,-74.27 49.01,-74.48 47.73,-74.42 46.22,-73.88 44.57,-73.18 42.99,-73.05 41.55,-73.72" fill="none" stroke="rgb(44, 34, 43)" stroke-width="2" stroke-linejoin="round" filter="url(#fuzzy)" /><polyline points="39.25,-75.42 40.95,-73.73 42.27,-72.47 43.23,-71.44 43.98,-70.56 44.66,-69.76 45.38,-69.01 46.14,-68.29 46.93,-67.59 47.72,-66.88 48.49,-66.15 49.26,-65.37 50,-64.56 50.7,-63.69 51.33,-62.74 51.87,-61.71 52.34,-60.62 52.78,-59.46 53.35,-58.06 54.55,-55.83" fill="none" stroke="rgb(44, 34, 43)" stroke-width="2" stroke-linejoin="round" filter="url(#fuzzy)" /><polyline points="27.3,-107.66 29.99,-104.7 31.17,-101.13 31.86,-98.34 32.52,-96.46 33.32,-95.19 34.29,-94.23 35.34,-93.31 36.31,-92.2 37.03,-90.64 37.44,-88.49 37.68,-85.86 37.99,-83.2 38.51,-81.03 39.05,-79.33 39.12,-77.45 38.72,-75.97 38.72,-75.97 38.23,-75.65 37.27,-75.69 36.2,-76.12 35.1,-76.75 34.01,-77.32 32.93,-77.7 31.82,-77.88 30.65,-77.9 29.43,-77.77 28.19,-77.5 26.95,-77.1 25.72,-76.66 24.5,-76.35 23.29,-76.31 22.08,-76.48 20.91,-76.57 19.79,-76.28 18.66,-75.64 17.15,-74.79" fill="none" stroke="rgb(44, 34, 43)" stroke-width="2" stroke-linejoin="round" filter="url(#fuzzy)" /><polyline points="37.81,-76.46 37.19,-78.28 36.36,-79.85 35.3,-80.8 34.34,-81.62 33.44,-82.48 32.52,-83.36 31.58,-84.23 30.62,-85.06 29.65,-85.82 28.63,-86.47 27.52,-86.99 26.33,-87.43 25.1,-87.88 23.91,-88.47 22.79,-89.3 21.73,-90.37 20.69,-91.59 19.6,-92.84 18.45,-94.02 17.24,-95.14 16.05,-96.29 14.93,-97.49 13.93,-98.5 13.48,-99.41 36.42,-77.28 37.52,-76.57 38.3,-76.02 39.05,-75.45 39.96,-74.73 41.01,-73.89 42.11,-73.01 43.14,-72.17 44.07,-71.36 44.9,-70.58 45.67,-69.81 46.42,-69.03 47.16,-68.24 47.9,-67.43 48.62,-66.6 49.35,-65.76 50.08,-64.91 50.84,-64.07 51.6,-63.23 52.33,-62.37 53.01,-61.45 53.66,-60.3 1.46,-110.47 3.03,-108.67 4.53,-107.37 5.85,-106.12 7.07,-105.2 8.26,-104.55 9.52,-103.99 10.85,-103.42 12.21,-102.79 13.55,-101.98 14.81,-100.81 15.97,-99.23 17.08,-97.37 18.17,-95.49 19.28,-93.85 20.41,-92.52 21.5,-91.38 22.52,-90.21 23.49,-88.93 24.5,-87.61 25.59,-86.38 26.66,-85.16 27.52,-83.75 28.13,-82.28 28.61,-81.7" fill="none" stroke="rgb(44, 34, 43)" stroke-width="2" stroke-linejoin="round" filter="url(#fuzzy)" /><polyline points="18.95,-85.13 19.83,-85.09 20.88,-84.94 22.01,-85.07 23.39,-85.63 25.08,-86.74 27.02,-88.4 29.04,-90.44 30.99,-92.46 32.79,-94.08 34.47,-95.17 36.18,-95.97 38.01,-96.87 39.85,-97.93 41.48,-98.69 42.89,-98.56 44.58,-97.93 46.96,-99.65 15.75,-86.03 14.54,-85.96 13.41,-86.12 12.26,-86.26 11.06,-86.41 9.85,-86.56 8.66,-86.68 7.55,-86.72 6.5,-86.69 5.47,-86.6 4.44,-86.49 3.4,-86.36 2.34,-86.21 1.26,-86.03 0.11,-85.83 -1.13,-85.6 -2.39,-85.3 -3.37,-84.87 -3.85,-84.46 11.73,-86.57 12.34,-87.29 13.37,-87.24 14.6,-87.35 16.03,-88.04 17.68,-89.41 19.44,-91.23 21.19,-93.03 22.82,-94.38 24.29,-95.04 25.64,-95.07 26.98,-94.74 28.37,-94.45 29.87,-94.53 31.49,-95.16 33.26,-96.35 35.18,-97.88 37.21,-99.38 39.23,-100.49 40.98,-101.24 42.09,-102.28 42.42,-104.92" fill="none" stroke="rgb(44, 34, 43)" stroke-width="2" stroke-linejoin="round" filter="url(#fuzzy)" /><polyline points="9.02,-87.22 10.61,-85.28 11.53,-83.36 12.46,-82.15 13.51,-81.66 14.6,-81.32 15.64,-80.64 16.57,-79.48 17.41,-78.05 18.23,-76.72 19.09,-75.79 20.05,-75.28 21.11,-74.99 22.19,-74.55 23.16,-73.73 23.87,-72.52 24.34,-71.15 24.52,-70.03" fill="none" stroke="rgb(44, 34, 43)" stroke-width="2" stroke-linejoin="round" filter="url(#fuzzy)" /><polyline points="2.52,-87.93 3.82,-87.96 4.99,-88.23 6.01,-88.45 7.01,-88.54 8.09,-88.54 9.27,-88.53 10.51,-88.55 11.77,-88.57 13.03,-88.6 14.28,-88.65 15.56,-88.73 16.88,-88.8 18.22,-88.86 19.58,-88.89 20.88,-88.86 22.01,-88.77 22.75,-88.7 22.61,-89.16" fill="none" stroke="rgb(44, 34, 43)" stroke-width="2" stroke-linejoin="round" filter="url(#fuzzy)" />
    </g>
    
        <g id="lineNose">
        <path d="M -11.88,2.54 Q 12.76, 10.17 0.4399999999999995, -4.876" fill="none" stroke="black" stroke-width="3" stroke-linejoin="round" filter="url(#fuzzy)"></path>
        </g>
      
    <g id="mouth">
      <polyline points="-32.05,27.31 -31.68,27.57 -31.3,27.87 -30.9,28.2 -30.48,28.56 -30.04,28.96 -29.59,29.39 -29.13,29.85 -28.64,30.33 -28.14,30.85 -27.63,31.39 -27.1,31.96 -26.56,32.55 -26.01,33.17 -25.44,33.81 -24.86,34.47 -24.27,35.14 -23.66,35.84 -23.04,36.55 -22.42,37.28 -21.78,38.03 -21.13,38.79 -20.47,39.56 -19.8,40.34 -19.12,41.13 -18.44,41.93 -17.74,42.73 -17.04,43.55 -16.33,44.37 -15.61,45.19 -14.89,46.02 -14.16,46.84 -13.42,47.67 -12.68,48.5 -11.93,49.32 -11.18,50.14 -10.42,50.96 -9.66,51.77 -8.89,52.58 -8.13,53.37 -7.35,54.16 -6.58,54.94 -5.81,55.7 -5.03,56.45 -4.25,57.19 -3.47,57.92 -2.69,58.62 -1.91,59.31 -1.13,59.98 -0.35,60.63 0.43,61.26 1.2,61.87 1.98,62.45 2.75,63.01 3.52,63.54 4.29,64.05 5.05,64.52 5.81,64.97 6.56,65.39 7.31,65.77 8.06,66.12 8.8,66.44 9.53,66.72 10.26,66.97 10.98,67.17 11.7,67.34 12.4,67.47 13.1,67.56 13.79,67.6 14.47,67.6 15.15,67.55 15.81,67.46 16.46,67.32 17.11,67.13 17.74,66.89 18.36,66.6 18.97,66.26 19.57,65.86 20.16,65.41 20.73,64.91 21.29,64.34 21.84,63.72 22.38,63.04 22.9,62.3 23.4,61.5 23.89,60.63 24.37,59.7 24.83,58.7 25.27,57.64 25.7,56.51 26.11,55.31 26.5,54.04 26.88,52.69 27.23,51.28 27.57,49.79 27.89,48.23 28.19,46.59 28.47,44.87 28.73,43.07 28.97,41.2 28.97,41.2 28.36,41.78 27.75,42.34 27.14,42.87 26.53,43.37 25.92,43.85 25.31,44.29 24.7,44.71 24.09,45.11 23.48,45.48 22.87,45.82 22.26,46.14 21.65,46.43 21.04,46.7 20.43,46.95 19.82,47.17 19.21,47.37 18.6,47.55 17.99,47.71 17.38,47.84 16.77,47.96 16.16,48.05 15.55,48.12 14.94,48.18 14.33,48.21 13.72,48.23 13.11,48.22 12.5,48.2 11.89,48.16 11.27,48.11 10.66,48.03 10.05,47.95 9.44,47.84 8.83,47.72 8.22,47.59 7.61,47.44 7,47.27 6.39,47.1 5.78,46.91 5.17,46.7 4.56,46.49 3.95,46.26 3.34,46.02 2.73,45.77 2.12,45.51 1.51,45.24 0.9,44.96 0.29,44.67 -0.32,44.37 -0.93,44.07 -1.54,43.75 -2.15,43.43 -2.76,43.1 -3.37,42.76 -3.98,42.42 -4.59,42.07 -5.2,41.71 -5.81,41.35 -6.42,40.99 -7.03,40.62 -7.64,40.25 -8.25,39.87 -8.86,39.49 -9.47,39.11 -10.08,38.73 -10.69,38.34 -11.3,37.96 -11.91,37.57 -12.52,37.19 -13.13,36.8 -13.74,36.41 -14.35,36.03 -14.96,35.64 -15.57,35.26 -16.18,34.88 -16.79,34.51 -17.4,34.13 -18.02,33.76 -18.63,33.4 -19.24,33.03 -19.85,32.68 -20.46,32.33 -21.07,31.98 -21.68,31.64 -22.29,31.31 -22.9,30.98 -23.51,30.66 -24.12,30.35 -24.73,30.05 -25.34,29.76 -25.95,29.47 -26.56,29.2 -27.17,28.93 -27.78,28.68 -28.39,28.44 -29,28.2 -29.61,27.98 -30.22,27.78 -30.83,27.58 -31.44,27.4" fill="rgb(215,127,140)" stroke="black" stroke-width="3" stroke-linejoin="round" filter="url(#fuzzy)" />
    </g>
  </svg>
  