
  <svg viewBox="-100 -100 200 200" xmlns="http://www.w3.org/2000/svg" width="500" height="500" id="face-svg">
    <defs>
      <clipPath id="leftEyeClipPath">
        <polyline points="36.35,9.03 35.93,8.57 35.48,8.09 34.99,7.6 34.47,7.1 33.91,6.59 33.32,6.08 32.7,5.56 32.05,5.05 31.36,4.53 30.64,4.01 29.89,3.5 29.11,3 28.3,2.49 27.46,2 26.59,1.51 25.76,0.85 24.87,0.2 23.93,-0.43 22.94,-1.04 21.9,-1.63 20.83,-2.19 19.71,-2.73 18.55,-3.24 17.36,-3.72 16.14,-4.17 14.89,-4.59 13.61,-4.98 12.32,-5.33 11,-5.65 9.68,-5.93 8.34,-6.18 7,-6.39 5.65,-6.57 4.31,-6.71 2.97,-6.82 1.64,-6.89 0.32,-6.93 -0.99,-6.93 -2.28,-6.9 -3.55,-6.84 -4.8,-6.74 -6.03,-6.62 -7.22,-6.46 -8.39,-6.28 -9.53,-6.07 -10.63,-5.83 -11.7,-5.57 -12.73,-5.29 -13.73,-4.98 -14.69,-4.66 -15.61,-4.31 -16.49,-3.95 -17.33,-3.58 -18.13,-3.19 -18.89,-2.79 -19.61,-2.38 -20.29,-1.96 -20.94,-1.54 -21.54,-1.11 -22.12,-0.68 -22.65,-0.24 -23.16,0.19 -23.63,0.62 -24.07,1.05 -24.49,1.48 -24.88,1.9 -25.24,2.32 -25.57,2.73 -25.87,3.15 -26.15,3.56 -26.4,3.96 -26.63,4.36 -26.84,4.75 -27.02,5.14 -27.18,5.52 -27.31,5.89 -27.43,6.25 -27.52,6.61 -27.6,6.95 -23.86,6.43 -23.35,6.52 -22.83,6.59 -22.3,6.66 -21.75,6.72 -21.2,6.77 -20.64,6.81 -20.07,6.84 -19.49,6.86 -18.89,6.88 -18.29,6.88 -17.68,6.88 -17.06,6.88 -16.43,6.87 -15.8,6.85 -15.15,6.83 -14.49,6.8 -13.81,6.77 -13.13,6.74 -12.43,6.7 -11.72,6.66 -11,6.62 -10.27,6.58 -9.53,6.54 -8.77,6.5 -8.01,6.47 -7.24,6.44 -6.45,6.42 -5.66,6.4 -4.86,6.39 -4.05,6.39 -3.24,6.4 -2.41,6.42 -1.58,6.44 -0.74,6.48 0.11,6.53 0.96,6.59 1.82,6.66 2.69,6.74 3.55,6.84 4.43,6.94 5.31,7.06 6.19,7.19 7.07,7.33 7.96,7.49 8.85,7.65 9.75,7.83 10.64,8.02 11.54,8.21 12.43,8.42 13.33,8.63 14.22,8.85 15.12,9.07 16.01,9.31 16.9,9.54 17.79,9.78 18.67,10.02 19.55,10.27 20.43,10.51 21.3,10.75 22.16,10.99 23.02,11.23 23.87,11.46 24.71,11.69 25.54,11.91 26.24,12.1 26.94,12.29 27.63,12.47 28.31,12.65 28.98,12.83 29.63,13 30.27,13.16 30.9,13.32 31.51,13.47 32.11,13.61 32.68,13.74 33.24,13.86 33.78,13.97 34.3,14.07 34.79,14.17" />
      </clipPath>
      <clipPath id="rightEyeClipPath">
        <polyline points="-37.7,8.33 -37.24,7.85 -36.75,7.36 -36.22,6.87 -35.66,6.36 -35.06,5.86 -34.43,5.35 -33.76,4.85 -33.06,4.34 -32.34,3.85 -31.58,3.36 -30.79,2.88 -29.98,2.41 -29.13,1.95 -28.27,1.51 -27.37,1.08 -26.46,0.41 -25.51,-0.22 -24.51,-0.82 -23.48,-1.39 -22.4,-1.92 -21.29,-2.41 -20.14,-2.87 -18.97,-3.29 -17.76,-3.67 -16.54,-4.01 -15.29,-4.31 -14.02,-4.56 -12.74,-4.78 -11.45,-4.96 -10.16,-5.1 -8.85,-5.2 -7.55,-5.26 -6.25,-5.29 -4.95,-5.28 -3.67,-5.23 -2.39,-5.15 -1.13,-5.04 0.12,-4.9 1.34,-4.73 2.55,-4.53 3.73,-4.31 4.88,-4.07 6.01,-3.8 7.1,-3.51 8.17,-3.21 9.2,-2.88 10.19,-2.55 11.15,-2.19 12.08,-1.83 12.97,-1.46 13.81,-1.08 14.63,-0.7 15.4,-0.31 16.14,0.08 16.83,0.47 17.49,0.86 18.12,1.25 18.71,1.63 19.26,2.01 19.78,2.39 20.26,2.76 20.72,3.12 21.14,3.47 21.54,3.81 21.91,4.14 22.26,4.46 22.58,4.77 22.87,5.07 23.14,5.36 23.38,5.65 23.6,5.92 23.8,6.17 23.97,6.42 24.12,6.66 24.25,6.88 24.36,7.09 24.45,7.28 24.52,7.47 24.58,7.64 22.5,8.89 22.09,8.72 21.68,8.55 21.26,8.38 20.82,8.2 20.38,8.02 19.92,7.83 19.46,7.64 18.98,7.46 18.49,7.27 17.99,7.08 17.48,6.89 16.95,6.7 16.42,6.51 15.87,6.33 15.31,6.14 14.74,5.96 14.15,5.78 13.55,5.6 12.93,5.43 12.3,5.26 11.65,5.1 10.99,4.94 10.31,4.8 9.62,4.67 8.91,4.55 8.19,4.44 7.45,4.34 6.69,4.27 5.92,4.2 5.14,4.15 4.34,4.12 3.52,4.11 2.7,4.12 1.85,4.14 1,4.18 0.13,4.24 -0.75,4.32 -1.64,4.42 -2.55,4.53 -3.46,4.67 -4.39,4.82 -5.33,4.99 -6.27,5.18 -7.22,5.38 -8.18,5.6 -9.15,5.83 -10.12,6.08 -11.1,6.33 -12.08,6.6 -13.07,6.88 -14.06,7.17 -15.04,7.46 -16.03,7.76 -17.02,8.06 -18.01,8.37 -18.99,8.68 -19.96,8.98 -20.93,9.29 -21.9,9.59 -22.85,9.88 -23.8,10.16 -24.73,10.44 -25.66,10.71 -26.56,10.96 -27.35,11.2 -28.12,11.42 -28.88,11.64 -29.62,11.86 -30.35,12.06 -31.07,12.26 -31.77,12.44 -32.45,12.62 -33.12,12.78 -33.76,12.93 -34.38,13.07 -34.98,13.19 -35.56,13.3 -36.11,13.4 -36.63,13.48" />
      </clipPath>
      <filter id="fuzzy">
        <feTurbulence id="turbulence" baseFrequency="0.05" numOctaves="3" type="noise" result="noise" />
        <feDisplacementMap in="SourceGraphic" in2="noise" scale="2" />
      </filter>
      <linearGradient id="rainbowGradient" x1="0%" y1="0%" x2="100%" y2="0%">
        <stop offset="0%" style="stop-color: rgb(44, 34, 43); stop-opacity: 1" />
        <stop offset="50%" style="stop-color: rgb(64, 224, 208); stop-opacity: 1" />
        <stop offset="100%" style="stop-color: rgb(135, 206, 235); stop-opacity: 1" />
      </linearGradient>
    </defs>
    <rect x="-100" y="-100" width="100%" height="100%" fill="rgb(230, 230, 250)" />
    <polyline id="faceContour" points="75.83,-0.74 75.83,0.56 75.89,1.34 75.81,3.55 75.57,5.27 75.6,5.63 75.51,5.81 75.34,9.62 75.02,11.06 74.95,12.52 74.95,12.3 75.05,13.29 74.81,14.58 74.35,17.05 73.88,19.28 73.63,20.4 73.21,22.26 73.49,21.35 72.6,24.75 72.71,24.07 72.06,26.4 71.97,26.82 71.53,28.55 70.39,31.7 70.45,32.56 70.11,33.37 69.81,33.36 68.85,35.93 68.43,37.37 68.68,37.36 67.65,39.62 66.99,40.37 66.36,42.14 66.02,42.91 65.7,43.29 65.27,44.41 64.07,46.23 63.2,48.15 62.72,48.8 61.35,50.8 60.92,52.04 60.96,52.23 59.23,54.16 58.7,55.3 57.53,56.86 57.92,55.83 56.64,57.61 55.85,58.92 54.36,60.47 54.64,60.4 53.58,61.75 53.44,61.64 52.44,63.18 51.12,64.16 49.43,65.83 50.29,65.08 49.13,66.36 48.15,67.36 46.63,68.46 44.85,70.15 44.28,70.71 43.45,71.18 42.85,71.95 41.98,72.37 38.9,74.96 40.56,73.64 38.88,75 38.68,74.75 36.3,76.31 35.63,76.87 34.36,77.71 32.92,78.3 30.93,79.72 30.12,79.85 29.42,80.53 27.92,81.24 27.55,81.33 25.64,82.05 24.97,82.18 25.6,81.91 24.48,82.34 22.41,83.16 21.96,83.28 19.14,84.25 17.62,84.96 17.69,84.98 15.93,85.17 14.87,85.62 15.53,85.26 12.98,85.9 12.66,85.88 11.39,86.18 8.39,86.65 7.32,86.95 7.13,86.94 5.31,87.03 5.51,86.81 2.78,87.02 3.6,87.28 0.71,87.08 -1.47,87.07 0,87.32 -1.3,87.34 -4.33,86.99 -4.03,87.19 -5.23,87.11 -7.55,86.77 -9.46,86.43 -7.55,86.65 -9.83,86.3 -12.55,85.82 -12.72,86.15 -13.92,85.79 -15.52,85.26 -15.99,85.07 -18.82,84.51 -17.72,84.56 -19.17,84.18 -22.26,83.49 -22.26,83.16 -23.03,83.08 -24.46,82.53 -25.55,82.14 -27.46,81.25 -26.25,81.65 -29.85,80.21 -29.17,80.66 -30.68,79.76 -32.21,78.75 -32.39,78.95 -35.25,77.28 -35.7,76.7 -38.07,75.66 -37.15,75.94 -39.52,74.4 -39.52,74.58 -41.47,73.13 -42.39,72.44 -41.77,72.78 -43.81,71.27 -44.4,70.7 -47.07,68.48 -46.72,68.47 -48.24,67.29 -47.98,67.22 -48.54,66.87 -49.12,66.66 -51.13,64.4 -52.13,63.14 -52.38,62.88 -52.92,62.79 -53.72,61.76 -56.08,58.91 -56.36,58.21 -57.36,56.93 -56.9,57.79 -58.02,56.3 -59.8,53.99 -59.92,53.29 -60.58,52.68 -61.53,50.94 -61.08,51.93 -62.15,50.32 -62.89,48.79 -63.78,46.97 -64.43,45.9 -65.35,43.98 -65.47,43.89 -66.25,42.48 -66.76,41.6 -67.26,40.24 -68.11,38.79 -68.25,38.51 -69.14,36.12 -69.79,34.84 -70,33.35 -70.28,33.46 -71.39,29.64 -71.41,29.08 -71.03,30.45 -71.85,27.75 -72.58,25.23 -72.48,26.2 -73.23,22.59 -73.42,21.8 -73.49,21.17 -73.52,20.69 -74.22,18.86 -74.23,17.91 -74.89,14.18 -74.88,14.75 -74.96,13.38 -75.31,10.15 -75.33,9.81 -75.68,8.14 -75.43,8.12 -75.9,3.87 -75.88,2.67 -75.72,2.2 -76.03,1.54 -75.85,-0.42 -75.97,-0.06 -75.69,-2.39 -75.56,-5.26 -75.47,-7.35 -75.64,-5.77 -75.71,-7.3 -75.36,-9.68 -75.34,-9.76 -75.02,-13.91 -74.99,-13.1 -74.75,-15.54 -74.18,-17.65 -74.27,-17.62 -74.31,-18.19 -73.94,-19.55 -73.11,-22.35 -73.1,-23.72 -73.49,-21.97 -72.49,-25.76 -71.93,-27.15 -72.12,-27.45 -71.26,-29.36 -71.25,-29.91 -70.52,-32.4 -69.47,-34.99 -69.88,-33.54 -69.3,-34.9 -68.53,-37.7 -67.59,-39.55 -67.26,-39.97 -66.8,-40.85 -65.77,-42.92 -65.71,-43.35 -65.54,-43.78 -63.96,-46.67 -63.65,-47.15 -63.36,-47.99 -61.72,-50.2 -61.2,-51.32 -60.92,-51.75 -60.67,-52.23 -60.73,-52.29 -59.27,-54.57 -59.26,-54.29 -58.01,-55.98 -56.55,-58.26 -55.99,-58.43 -55.65,-59.32 -53.55,-62 -53.27,-61.64 -52.77,-62.5 -52.48,-62.67 -50.05,-65.14 -50.15,-65.33 -48.36,-66.88 -48.34,-66.98 -47.65,-67.64 -46.75,-68.56 -44.49,-70.21 -44.12,-71.01 -43.61,-71.36 -43.92,-70.85 -41.72,-72.9 -39.87,-74.08 -39.86,-73.93 -37.83,-75.2 -36.19,-76.6 -35,-77.31 -34.61,-77.6 -35.01,-77.51 -32.83,-78.69 -31.14,-79.19 -30.74,-79.91 -29.77,-80.07 -28.25,-80.71 -27.88,-80.87 -26.43,-81.75 -23.79,-82.44 -25.84,-82.01 -22.72,-83.03 -22.09,-83.23 -21.62,-83.51 -20.78,-83.9 -17.87,-84.66 -18.42,-84.66 -15.73,-85.15 -15.23,-85.36 -14.6,-85.45 -13.83,-85.68 -9.52,-86.26 -9.41,-86.25 -10.26,-86.41 -9.12,-86.57 -8.19,-86.39 -5.52,-86.8 -5.39,-86.77 -4.59,-86.76 -3.89,-86.76 0.02,-87.2 0.47,-87.24 1.15,-86.98 3.15,-86.81 3.48,-87.01 4.22,-86.96 5.61,-86.88 7.72,-86.76 7.7,-86.72 9.89,-86.42 11.09,-86.01 11.64,-85.81 12.13,-85.76 14.01,-85.69 13.85,-85.47 16.15,-85.12 17.41,-84.6 17.7,-84.63 19.68,-83.87 20.2,-83.89 22.4,-83.09 24.06,-82.73 22.9,-82.92 25.13,-82.18 25.92,-81.86 26.68,-81.58 27.28,-81.2 29.04,-80.6 32,-78.87 32.3,-78.86 34.01,-77.69 35.22,-76.83 36.13,-76.38 35.75,-76.83 38.22,-75.12 39.16,-74.38 40.87,-73.13 42.01,-72.33 41.62,-72.71 42.76,-71.72 44.54,-70.43 43.82,-70.76 44.98,-70.03 45.97,-69.12 47.17,-68.12 47.65,-67.52 49.31,-66.25 49.82,-65.78 51.12,-64.04 52.71,-62.77 52.9,-62.27 52.61,-62.6 54.26,-60.75 54.59,-60.23 56.37,-57.99 57.93,-56.35 58,-56.15 58.45,-55.48 59.14,-54.64 59.72,-53.22 60.6,-52.14 60.52,-52.17 62.57,-48.74 63.18,-47.79 63.47,-47.41 64.01,-46.67 64.27,-45.97 64.71,-45.17 65.1,-44.04 66.15,-42.21 66.05,-42.06 67.31,-40.38 67.32,-39.89 68.1,-37.95 69.56,-34.05 69.67,-33.88 70.01,-33.22 70.67,-31.48 70.39,-32.06 71.65,-27.82 71.94,-27.82 71.73,-28.55 72.19,-25.79 73.04,-23.49 73.03,-23.81 73.27,-21.19 73.27,-21.34 73.77,-18.89 73.96,-18.03 73.93,-18.56 74.62,-14.73 74.92,-14.09 74.84,-12.26 75.16,-9.65 75.3,-9.64 75.28,-7.35 75.39,-5.73 75.56,-6.38 75.86,-3.05 75.76,-2.27 75.57,-2.66 75.83,-0.74 75.83,0.56" fill="rgb(255, 203, 164)" stroke="black" stroke-width="1.6666666666666665" stroke-linejoin="round" filter="url(#fuzzy)" />
    <g transform="translate(38.010000000000005 -28.24)">
      <polyline id="rightCountour" points="-37.7,8.33 -37.24,7.85 -36.75,7.36 -36.22,6.87 -35.66,6.36 -35.06,5.86 -34.43,5.35 -33.76,4.85 -33.06,4.34 -32.34,3.85 -31.58,3.36 -30.79,2.88 -29.98,2.41 -29.13,1.95 -28.27,1.51 -27.37,1.08 -26.46,0.41 -25.51,-0.22 -24.51,-0.82 -23.48,-1.39 -22.4,-1.92 -21.29,-2.41 -20.14,-2.87 -18.97,-3.29 -17.76,-3.67 -16.54,-4.01 -15.29,-4.31 -14.02,-4.56 -12.74,-4.78 -11.45,-4.96 -10.16,-5.1 -8.85,-5.2 -7.55,-5.26 -6.25,-5.29 -4.95,-5.28 -3.67,-5.23 -2.39,-5.15 -1.13,-5.04 0.12,-4.9 1.34,-4.73 2.55,-4.53 3.73,-4.31 4.88,-4.07 6.01,-3.8 7.1,-3.51 8.17,-3.21 9.2,-2.88 10.19,-2.55 11.15,-2.19 12.08,-1.83 12.97,-1.46 13.81,-1.08 14.63,-0.7 15.4,-0.31 16.14,0.08 16.83,0.47 17.49,0.86 18.12,1.25 18.71,1.63 19.26,2.01 19.78,2.39 20.26,2.76 20.72,3.12 21.14,3.47 21.54,3.81 21.91,4.14 22.26,4.46 22.58,4.77 22.87,5.07 23.14,5.36 23.38,5.65 23.6,5.92 23.8,6.17 23.97,6.42 24.12,6.66 24.25,6.88 24.36,7.09 24.45,7.28 24.52,7.47 24.58,7.64 22.5,8.89 22.09,8.72 21.68,8.55 21.26,8.38 20.82,8.2 20.38,8.02 19.92,7.83 19.46,7.64 18.98,7.46 18.49,7.27 17.99,7.08 17.48,6.89 16.95,6.7 16.42,6.51 15.87,6.33 15.31,6.14 14.74,5.96 14.15,5.78 13.55,5.6 12.93,5.43 12.3,5.26 11.65,5.1 10.99,4.94 10.31,4.8 9.62,4.67 8.91,4.55 8.19,4.44 7.45,4.34 6.69,4.27 5.92,4.2 5.14,4.15 4.34,4.12 3.52,4.11 2.7,4.12 1.85,4.14 1,4.18 0.13,4.24 -0.75,4.32 -1.64,4.42 -2.55,4.53 -3.46,4.67 -4.39,4.82 -5.33,4.99 -6.27,5.18 -7.22,5.38 -8.18,5.6 -9.15,5.83 -10.12,6.08 -11.1,6.33 -12.08,6.6 -13.07,6.88 -14.06,7.17 -15.04,7.46 -16.03,7.76 -17.02,8.06 -18.01,8.37 -18.99,8.68 -19.96,8.98 -20.93,9.29 -21.9,9.59 -22.85,9.88 -23.8,10.16 -24.73,10.44 -25.66,10.71 -26.56,10.96 -27.35,11.2 -28.12,11.42 -28.88,11.64 -29.62,11.86 -30.35,12.06 -31.07,12.26 -31.77,12.44 -32.45,12.62 -33.12,12.78 -33.76,12.93 -34.38,13.07 -34.98,13.19 -35.56,13.3 -36.11,13.4 -36.63,13.48" fill="white" stroke="white" stroke-width="0" stroke-linejoin="round" filter="url(#fuzzy)" />
    </g>
    <g transform="translate(-51.46 -24.889999999999997)">
      <polyline id="leftCountour" points="36.35,9.03 35.93,8.57 35.48,8.09 34.99,7.6 34.47,7.1 33.91,6.59 33.32,6.08 32.7,5.56 32.05,5.05 31.36,4.53 30.64,4.01 29.89,3.5 29.11,3 28.3,2.49 27.46,2 26.59,1.51 25.76,0.85 24.87,0.2 23.93,-0.43 22.94,-1.04 21.9,-1.63 20.83,-2.19 19.71,-2.73 18.55,-3.24 17.36,-3.72 16.14,-4.17 14.89,-4.59 13.61,-4.98 12.32,-5.33 11,-5.65 9.68,-5.93 8.34,-6.18 7,-6.39 5.65,-6.57 4.31,-6.71 2.97,-6.82 1.64,-6.89 0.32,-6.93 -0.99,-6.93 -2.28,-6.9 -3.55,-6.84 -4.8,-6.74 -6.03,-6.62 -7.22,-6.46 -8.39,-6.28 -9.53,-6.07 -10.63,-5.83 -11.7,-5.57 -12.73,-5.29 -13.73,-4.98 -14.69,-4.66 -15.61,-4.31 -16.49,-3.95 -17.33,-3.58 -18.13,-3.19 -18.89,-2.79 -19.61,-2.38 -20.29,-1.96 -20.94,-1.54 -21.54,-1.11 -22.12,-0.68 -22.65,-0.24 -23.16,0.19 -23.63,0.62 -24.07,1.05 -24.49,1.48 -24.88,1.9 -25.24,2.32 -25.57,2.73 -25.87,3.15 -26.15,3.56 -26.4,3.96 -26.63,4.36 -26.84,4.75 -27.02,5.14 -27.18,5.52 -27.31,5.89 -27.43,6.25 -27.52,6.61 -27.6,6.95 -23.86,6.43 -23.35,6.52 -22.83,6.59 -22.3,6.66 -21.75,6.72 -21.2,6.77 -20.64,6.81 -20.07,6.84 -19.49,6.86 -18.89,6.88 -18.29,6.88 -17.68,6.88 -17.06,6.88 -16.43,6.87 -15.8,6.85 -15.15,6.83 -14.49,6.8 -13.81,6.77 -13.13,6.74 -12.43,6.7 -11.72,6.66 -11,6.62 -10.27,6.58 -9.53,6.54 -8.77,6.5 -8.01,6.47 -7.24,6.44 -6.45,6.42 -5.66,6.4 -4.86,6.39 -4.05,6.39 -3.24,6.4 -2.41,6.42 -1.58,6.44 -0.74,6.48 0.11,6.53 0.96,6.59 1.82,6.66 2.69,6.74 3.55,6.84 4.43,6.94 5.31,7.06 6.19,7.19 7.07,7.33 7.96,7.49 8.85,7.65 9.75,7.83 10.64,8.02 11.54,8.21 12.43,8.42 13.33,8.63 14.22,8.85 15.12,9.07 16.01,9.31 16.9,9.54 17.79,9.78 18.67,10.02 19.55,10.27 20.43,10.51 21.3,10.75 22.16,10.99 23.02,11.23 23.87,11.46 24.71,11.69 25.54,11.91 26.24,12.1 26.94,12.29 27.63,12.47 28.31,12.65 28.98,12.83 29.63,13 30.27,13.16 30.9,13.32 31.51,13.47 32.11,13.61 32.68,13.74 33.24,13.86 33.78,13.97 34.3,14.07 34.79,14.17" fill="white" stroke="white" stroke-width="0" stroke-linejoin="round" filter="url(#fuzzy)" />
    </g>
    <g transform="translate(38.010000000000005 -28.24)">
      <polyline id="rightUpper" points="-40.18,11.9 -40.1,11.7 -39.99,11.45 -39.84,11.16 -39.65,10.84 -39.42,10.48 -39.15,10.1 -38.84,9.68 -38.5,9.25 -38.12,8.8 -37.7,8.33 -37.24,7.85 -36.75,7.36 -36.22,6.87 -35.66,6.36 -35.06,5.86 -34.43,5.35 -33.76,4.85 -33.06,4.34 -32.34,3.85 -31.58,3.36 -30.79,2.88 -29.98,2.41 -29.13,1.95 -28.27,1.51 -27.37,1.08 -26.46,0.41 -25.51,-0.22 -24.51,-0.82 -23.48,-1.39 -22.4,-1.92 -21.29,-2.41 -20.14,-2.87 -18.97,-3.29 -17.76,-3.67 -16.54,-4.01 -15.29,-4.31 -14.02,-4.56 -12.74,-4.78 -11.45,-4.96 -10.16,-5.1 -8.85,-5.2 -7.55,-5.26 -6.25,-5.29 -4.95,-5.28 -3.67,-5.23 -2.39,-5.15 -1.13,-5.04 0.12,-4.9 1.34,-4.73 2.55,-4.53 3.73,-4.31 4.88,-4.07 6.01,-3.8 7.1,-3.51 8.17,-3.21 9.2,-2.88 10.19,-2.55 11.15,-2.19 12.08,-1.83 12.97,-1.46 13.81,-1.08 14.63,-0.7 15.4,-0.31 16.14,0.08 16.83,0.47 17.49,0.86 18.12,1.25 18.71,1.63 19.26,2.01 19.78,2.39 20.26,2.76 20.72,3.12 21.14,3.47 21.54,3.81 21.91,4.14 22.26,4.46 22.58,4.77 22.87,5.07 23.14,5.36 23.38,5.65 23.6,5.92 23.8,6.17 23.97,6.42 24.12,6.66 24.25,6.88 24.36,7.09 24.45,7.28 24.52,7.47 24.58,7.64 24.61,7.8 24.63,7.94 24.64,8.07 24.63,8.19 24.6,8.3 24.57,8.39 24.51,8.47 24.45,8.53 24.37,8.59 24.28,8.63" fill="none" stroke="black" stroke-width="1.6666666666666665" stroke-linejoin="round" filter="url(#fuzzy)" />
      <polyline id="rightLower" points="-40,13.29 -39.84,13.4 -39.64,13.49 -39.39,13.55 -39.1,13.6 -38.78,13.63 -38.42,13.63 -38.02,13.62 -37.59,13.59 -37.12,13.54 -36.63,13.48 -36.11,13.4 -35.56,13.3 -34.98,13.19 -34.38,13.07 -33.76,12.93 -33.12,12.78 -32.45,12.62 -31.77,12.44 -31.07,12.26 -30.35,12.06 -29.62,11.86 -28.88,11.64 -28.12,11.42 -27.35,11.2 -26.56,10.96 -25.66,10.71 -24.73,10.44 -23.8,10.16 -22.85,9.88 -21.9,9.59 -20.93,9.29 -19.96,8.98 -18.99,8.68 -18.01,8.37 -17.02,8.06 -16.03,7.76 -15.04,7.46 -14.06,7.17 -13.07,6.88 -12.08,6.6 -11.1,6.33 -10.12,6.08 -9.15,5.83 -8.18,5.6 -7.22,5.38 -6.27,5.18 -5.33,4.99 -4.39,4.82 -3.46,4.67 -2.55,4.53 -1.64,4.42 -0.75,4.32 0.13,4.24 1,4.18 1.85,4.14 2.7,4.12 3.52,4.11 4.34,4.12 5.14,4.15 5.92,4.2 6.69,4.27 7.45,4.34 8.19,4.44 8.91,4.55 9.62,4.67 10.31,4.8 10.99,4.94 11.65,5.1 12.3,5.26 12.93,5.43 13.55,5.6 14.15,5.78 14.74,5.96 15.31,6.14 15.87,6.33 16.42,6.51 16.95,6.7 17.48,6.89 17.99,7.08 18.49,7.27 18.98,7.46 19.46,7.64 19.92,7.83 20.38,8.02 20.82,8.2 21.26,8.38 21.68,8.55 22.09,8.72 22.5,8.89 22.89,9.05 23.27,9.2 23.64,9.35 24,9.49 24.36,9.63 24.7,9.75 25.03,9.88 25.36,9.99 25.67,10.1 25.98,10.2" fill="none" stroke="black" stroke-width="2.2222222222222223" stroke-linejoin="round" filter="url(#fuzzy)" />
      <circle r="3.214" cx="5.442036528840211" cy="6.322636304708066" stroke="black" fill="none" stroke-width="1.0" filter="url(#fuzzy)" clip-path="url(#rightEyeClipPath)" /><circle r="4.318" cx="7.4920365288402095" cy="8.317636304708067" stroke="black" fill="none" stroke-width="1.0" filter="url(#fuzzy)" clip-path="url(#rightEyeClipPath)" /><circle r="4.018" cx="7.04203652884021" cy="8.252636304708066" stroke="black" fill="none" stroke-width="1.0" filter="url(#fuzzy)" clip-path="url(#rightEyeClipPath)" /><circle r="4.6579999999999995" cx="5.892036528840212" cy="8.857636304708066" stroke="black" fill="none" stroke-width="1.0" filter="url(#fuzzy)" clip-path="url(#rightEyeClipPath)" /><circle r="3.158" cx="6.7320365288402115" cy="7.147636304708067" stroke="black" fill="none" stroke-width="1.0" filter="url(#fuzzy)" clip-path="url(#rightEyeClipPath)" /><circle r="3.268" cx="6.392036528840212" cy="9.497636304708067" stroke="black" fill="none" stroke-width="1.0" filter="url(#fuzzy)" clip-path="url(#rightEyeClipPath)" /><circle r="3.314" cx="3.632036528840211" cy="7.977636304708067" stroke="black" fill="none" stroke-width="1.0" filter="url(#fuzzy)" clip-path="url(#rightEyeClipPath)" /><circle r="3.92" cx="2.6670365288402103" cy="6.222636304708066" stroke="black" fill="none" stroke-width="1.0" filter="url(#fuzzy)" clip-path="url(#rightEyeClipPath)" /><circle r="4.43" cx="5.642036528840212" cy="8.102636304708067" stroke="black" fill="none" stroke-width="1.0" filter="url(#fuzzy)" clip-path="url(#rightEyeClipPath)" /><circle r="4.284" cx="6.3620365288402105" cy="7.587636304708067" stroke="black" fill="none" stroke-width="1.0" filter="url(#fuzzy)" clip-path="url(#rightEyeClipPath)" />
      </g>
    <g transform="translate(-51.46 -24.889999999999997)">
      <polyline id="leftUpper" points="38.67,12.45 38.58,12.25 38.46,12.01 38.31,11.73 38.13,11.42 37.92,11.09 37.67,10.72 37.39,10.33 37.08,9.92 36.73,9.48 36.35,9.03 35.93,8.57 35.48,8.09 34.99,7.6 34.47,7.1 33.91,6.59 33.32,6.08 32.7,5.56 32.05,5.05 31.36,4.53 30.64,4.01 29.89,3.5 29.11,3 28.3,2.49 27.46,2 26.59,1.51 25.76,0.85 24.87,0.2 23.93,-0.43 22.94,-1.04 21.9,-1.63 20.83,-2.19 19.71,-2.73 18.55,-3.24 17.36,-3.72 16.14,-4.17 14.89,-4.59 13.61,-4.98 12.32,-5.33 11,-5.65 9.68,-5.93 8.34,-6.18 7,-6.39 5.65,-6.57 4.31,-6.71 2.97,-6.82 1.64,-6.89 0.32,-6.93 -0.99,-6.93 -2.28,-6.9 -3.55,-6.84 -4.8,-6.74 -6.03,-6.62 -7.22,-6.46 -8.39,-6.28 -9.53,-6.07 -10.63,-5.83 -11.7,-5.57 -12.73,-5.29 -13.73,-4.98 -14.69,-4.66 -15.61,-4.31 -16.49,-3.95 -17.33,-3.58 -18.13,-3.19 -18.89,-2.79 -19.61,-2.38 -20.29,-1.96 -20.94,-1.54 -21.54,-1.11 -22.12,-0.68 -22.65,-0.24 -23.16,0.19 -23.63,0.62 -24.07,1.05 -24.49,1.48 -24.88,1.9 -25.24,2.32 -25.57,2.73 -25.87,3.15 -26.15,3.56 -26.4,3.96 -26.63,4.36 -26.84,4.75 -27.02,5.14 -27.18,5.52 -27.31,5.89 -27.43,6.25 -27.52,6.61 -27.6,6.95 -27.66,7.29 -27.7,7.61 -27.73,7.93 -27.73,8.23 -27.73,8.53 -27.71,8.81 -27.67,9.09 -27.62,9.35 -27.56,9.6 -27.49,9.85" fill="none" stroke="black" stroke-width="2.2222222222222223" stroke-linejoin="round" filter="url(#fuzzy)" />
      <polyline id="leftLower" points="38.16,14.33 37.97,14.38 37.75,14.42 37.49,14.43 37.2,14.44 36.87,14.43 36.51,14.4 36.12,14.36 35.7,14.31 35.26,14.24 34.79,14.17 34.3,14.07 33.78,13.97 33.24,13.86 32.68,13.74 32.11,13.61 31.51,13.47 30.9,13.32 30.27,13.16 29.63,13 28.98,12.83 28.31,12.65 27.63,12.47 26.94,12.29 26.24,12.1 25.54,11.91 24.71,11.69 23.87,11.46 23.02,11.23 22.16,10.99 21.3,10.75 20.43,10.51 19.55,10.27 18.67,10.02 17.79,9.78 16.9,9.54 16.01,9.31 15.12,9.07 14.22,8.85 13.33,8.63 12.43,8.42 11.54,8.21 10.64,8.02 9.75,7.83 8.85,7.65 7.96,7.49 7.07,7.33 6.19,7.19 5.31,7.06 4.43,6.94 3.55,6.84 2.69,6.74 1.82,6.66 0.96,6.59 0.11,6.53 -0.74,6.48 -1.58,6.44 -2.41,6.42 -3.24,6.4 -4.05,6.39 -4.86,6.39 -5.66,6.4 -6.45,6.42 -7.24,6.44 -8.01,6.47 -8.77,6.5 -9.53,6.54 -10.27,6.58 -11,6.62 -11.72,6.66 -12.43,6.7 -13.13,6.74 -13.81,6.77 -14.49,6.8 -15.15,6.83 -15.8,6.85 -16.43,6.87 -17.06,6.88 -17.68,6.88 -18.29,6.88 -18.89,6.88 -19.49,6.86 -20.07,6.84 -20.64,6.81 -21.2,6.77 -21.75,6.72 -22.3,6.66 -22.83,6.59 -23.35,6.52 -23.86,6.43 -24.36,6.33 -24.86,6.21 -25.34,6.09 -25.81,5.96 -26.27,5.81 -26.72,5.65 -27.16,5.48 -27.6,5.3 -28.02,5.1 -28.43,4.9" fill="none" stroke="black" stroke-width="2.2222222222222223" stroke-linejoin="round" filter="url(#fuzzy)" />
      <circle r="3.924" cx="6.3873379862323745" cy="8.68187100100491" stroke="black" fill="none" stroke-width="1.0" filter="url(#fuzzy)" clip-path="url(#leftEyeClipPath)" /><circle r="4.3260000000000005" cx="8.492337986232375" cy="8.266871001004908" stroke="black" fill="none" stroke-width="1.0" filter="url(#fuzzy)" clip-path="url(#leftEyeClipPath)" /><circle r="4.4399999999999995" cx="9.977337986232374" cy="8.911871001004908" stroke="black" fill="none" stroke-width="1.0" filter="url(#fuzzy)" clip-path="url(#leftEyeClipPath)" /><circle r="3.77" cx="10.852337986232374" cy="6.621871001004909" stroke="black" fill="none" stroke-width="1.0" filter="url(#fuzzy)" clip-path="url(#leftEyeClipPath)" /><circle r="3.32" cx="9.232337986232375" cy="7.49187100100491" stroke="black" fill="none" stroke-width="1.0" filter="url(#fuzzy)" clip-path="url(#leftEyeClipPath)" /><circle r="4.702" cx="8.717337986232375" cy="8.401871001004908" stroke="black" fill="none" stroke-width="1.0" filter="url(#fuzzy)" clip-path="url(#leftEyeClipPath)" /><circle r="4.912" cx="11.247337986232374" cy="7.3368710010049085" stroke="black" fill="none" stroke-width="1.0" filter="url(#fuzzy)" clip-path="url(#leftEyeClipPath)" /><circle r="3.86" cx="6.807337986232374" cy="7.566871001004909" stroke="black" fill="none" stroke-width="1.0" filter="url(#fuzzy)" clip-path="url(#leftEyeClipPath)" /><circle r="3.742" cx="8.457337986232375" cy="5.091871001004908" stroke="black" fill="none" stroke-width="1.0" filter="url(#fuzzy)" clip-path="url(#leftEyeClipPath)" /><circle r="3.44" cx="7.457337986232375" cy="7.431871001004909" stroke="black" fill="none" stroke-width="1.0" filter="url(#fuzzy)" clip-path="url(#leftEyeClipPath)" />
    </g>
    <g id="hairs">
      <polyline points="74.92,-14.09 75.33,-12.34 75.76,-10.78 76.15,-9.4 76.51,-8.12 76.88,-6.9 77.34,-5.72 78.01,-4.58 78.96,-3.49 80.22,-2.42 81.73,-1.33 83.38,-0.15 84.97,1.16 86.33,2.6 87.47,4.1 88.69,5.5 90.64,6.57 93.74,7.21" fill="none" stroke="rgb(0, 0, 0)" stroke-width="2" stroke-linejoin="round" filter="url(#fuzzy)" /><polyline points="0.47,-87.24 -0.87,-87.93 -2.68,-90.08 -4.21,-92.07 -5.49,-93.2 -6.64,-93.56 -7.74,-93.48 -8.8,-93.3 -9.81,-93.24 -10.86,-93.44 -12.04,-94.01 -13.43,-95.04 -15,-96.49 -16.65,-98.19 -18.3,-99.83 -19.91,-101.19 -21.53,-102.2 -23.28,-103.03 -25.3,-104.07 -27.62,-106.68 -3.89,-86.76 -1.26,-87.03 0.22,-87.07 1.36,-87.03 2.39,-86.98 3.42,-86.94 4.47,-86.89 5.56,-86.81 6.69,-86.71 7.82,-86.57 8.94,-86.41 10.02,-86.23 11.05,-86.04 12.06,-85.85 13.06,-85.65 14.07,-85.44 15.13,-85.2 16.22,-84.93 17.34,-84.63 18.49,-84.31 19.68,-83.96 20.92,-83.6 22.13,-83.23 23.05,-82.95 22.9,-82.92" fill="none" stroke="rgb(0, 0, 0)" stroke-width="2" stroke-linejoin="round" filter="url(#fuzzy)" /><polyline points="14.12,-104.12 13,-102.98 11.65,-103.08 10.18,-102.46 8.67,-101.07 7.2,-99.38 5.83,-97.77 4.55,-96.39 3.34,-95.31 2.15,-94.51 0.91,-93.87 -0.41,-93.22 -1.79,-92.37 -3.16,-91.29 -4.43,-90.04 -5.55,-88.77 -6.64,-87.59 -7.88,-86.78 -9.12,-86.57" fill="none" stroke="rgb(0, 0, 0)" stroke-width="2" stroke-linejoin="round" filter="url(#fuzzy)" /><polyline points="-14.6,-85.45 -13,-85.14 -11.31,-84.72 -10.18,-84.55 -9.37,-84.47 -8.57,-84.35 -7.66,-84.13 -6.64,-83.82 -5.56,-83.48 -4.41,-83.22 -3.21,-83.1 -1.96,-83.09 -0.71,-83.05 0.48,-82.8 1.56,-82.26 2.53,-81.44 3.42,-80.42 4.32,-79.34 5.42,-78.4 6.93,-77.88" fill="none" stroke="rgb(0, 0, 0)" stroke-width="2" stroke-linejoin="round" filter="url(#fuzzy)" /><polyline points="-15.23,-85.36 -16.3,-85.52 -17.52,-85.16 -18.73,-84.72 -19.91,-84.34 -21.03,-84 -22.09,-83.68 -23.11,-83.35 -24.1,-83.02 -25.11,-82.69 -26.13,-82.36 -27.19,-82.04 -28.27,-81.71 -29.36,-81.38 -30.45,-81.03 -31.54,-80.65 -32.61,-80.24 -33.66,-79.8 -34.66,-79.35 -35.61,-78.89 -36.59,-78.38 -37.68,-77.76 -38.96,-77.03 -40.27,-76.38 -41.01,-76.21 9.21,-103.78 8.46,-103.41 7.04,-101.94 5.64,-100.62 4.37,-99.72 3.15,-99.13 1.91,-98.64 0.59,-98.1 -0.81,-97.44 -2.24,-96.65 -3.64,-95.81 -4.97,-94.99 -6.2,-94.21 -7.34,-93.44 -8.37,-92.57 -9.27,-91.53 -10.1,-90.33 -10.97,-89.18 -12.02,-88.36 -13.3,-88 -14.57,-87.72 -15.38,-86.68 -15.73,-85.15 -18.42,-84.66 -18.87,-84.47 -20.02,-84.12 -21.15,-83.82 -22.22,-83.6 -23.28,-83.48 -24.36,-83.47 -25.49,-83.55 -26.7,-83.71 -27.96,-83.91 -29.27,-84.16 -30.63,-84.45 -32.04,-84.77 -33.48,-85.13 -34.92,-85.47 -36.32,-85.71 -37.61,-85.74 -38.78,-85.48 -39.89,-84.92 -41.05,-84.19 -42.39,-83.47 -43.94,-82.93 -45.7,-82.59 -47.73,-82.16 -50.17,-80.94" fill="none" stroke="rgb(0, 0, 0)" stroke-width="2" stroke-linejoin="round" filter="url(#fuzzy)" /><polyline points="-20.78,-83.9 -21.5,-83.56 -22.28,-83.23 -23.17,-82.88 -24.1,-82.51 -25.05,-82.13 -26.03,-81.71 -27.04,-81.28 -28.07,-80.83 -29.09,-80.37 -30.11,-79.9 -31.14,-79.41 -32.15,-78.9 -33.14,-78.38 -34.07,-77.86 -34.95,-77.32 -35.85,-76.73 -36.86,-76.02 -38.05,-75.19 -39.24,-74.4 -39.87,-74.08" fill="none" stroke="rgb(0, 0, 0)" stroke-width="2" stroke-linejoin="round" filter="url(#fuzzy)" /><polyline points="-21.62,-83.51 -20.46,-84.33 -19.27,-85.63 -18.26,-87.23 -17.27,-88.52 -16.2,-89.5 -15.08,-90.57 -13.96,-91.98 -12.9,-93.61 -11.91,-95.2 -10.97,-96.58 -10.04,-97.83 -9.08,-99.11 -8.04,-100.52 -6.91,-101.98 -5.67,-103.4 -4.29,-104.71 -2.75,-105.94 -1.1,-107.17 0.55,-108.5 2.09,-110 3.51,-111.84 4.59,-114.95 -22.09,-83.23 -21.4,-83.62 -20.35,-84.27 -19.21,-85.12 -18.12,-86.12 -17.08,-87.19 -16.03,-88.2 -14.92,-89.02 -13.76,-89.59 -12.59,-89.96 -11.47,-90.19 -10.42,-90.35 -9.42,-90.5 -8.41,-90.63 -7.35,-90.77 -6.23,-90.98 -5.02,-91.36 -3.73,-91.97 -2.36,-92.81 -0.94,-93.7 0.46,-94.43 1.75,-94.87 2.91,-95.16 3.88,-95.6 4.67,-96.27" fill="none" stroke="rgb(0, 0, 0)" stroke-width="2" stroke-linejoin="round" filter="url(#fuzzy)" /><polyline points="73.93,-18.56 73.8,-18.59 73.55,-19.35 73.19,-20.37 72.6,-21.39 71.71,-22.35 70.59,-23.25 69.43,-24.14 68.41,-25.05 67.61,-26 67.01,-26.98 66.5,-27.98 65.95,-28.94 65.2,-29.78 64.14,-30.48 62.76,-31.12 61.21,-31.88 59.68,-32.88 58.33,-33.93 57.35,-34.41" fill="none" stroke="rgb(0, 0, 0)" stroke-width="2" stroke-linejoin="round" filter="url(#fuzzy)" /><polyline points="-22.72,-83.03 -24.14,-81.81 -24.57,-80.28 -25.1,-78.75 -25.91,-77.75 -26.92,-77.29 -27.97,-77.08 -28.96,-76.77 -29.85,-76.16 -30.61,-75.18 -31.22,-73.9 -31.67,-72.51 -32.02,-71.2 -32.4,-70.08 -33.03,-69.02 -33.94,-67.45 -5.08,-113.22 -5.81,-110.65 -6.61,-107.81 -7.66,-105.82 -8.82,-104.57 -9.9,-103.46 -10.82,-102.1 -11.67,-100.38 -12.57,-98.45 -13.56,-96.5 -14.64,-94.66 -15.72,-92.98 -16.78,-91.45 -17.82,-90.11 -18.9,-89 -20.03,-88.18 -21.19,-87.6 -22.32,-87.19 -23.41,-86.83 -24.6,-86.04 -25.84,-82.01 -5.02,-79.06 -6.87,-79.52 -8.02,-80.13 -8.83,-80.76 -9.6,-81.2 -10.53,-81.44 -11.64,-81.56 -12.85,-81.71 -14.09,-81.96 -15.31,-82.31 -16.52,-82.67 -17.74,-82.91 -18.93,-82.92 -20.06,-82.68 -21.1,-82.28 -22.15,-81.97 -23.53,-82.05 -25.84,-82.01 -23.79,-82.44 -25.82,-81.74 -27.19,-81.1 -28.25,-80.47 -29.2,-79.83 -30.14,-79.21 -31.11,-78.61 -32.08,-78.02 -33.01,-77.42 -33.88,-76.77 -34.72,-76.07 -35.6,-75.31 -36.58,-74.51 -37.65,-73.66 -38.78,-72.78 -39.91,-71.86 -40.99,-70.9 -41.94,-70.02 -42.58,-69.42 -42.94,-69.11 -27.88,-80.87 -26.35,-81.34 -25.12,-81.4 -24.13,-81.5 -23.19,-81.71 -22.2,-81.89 -21.14,-82 -20.02,-82.04 -18.85,-82 -17.65,-81.86 -16.43,-81.55 -15.2,-81.02 -13.93,-80.25 -12.62,-79.3 -11.32,-78.23 -10.1,-77.12 -9.06,-75.96 -8.2,-74.63 -7.34,-73.1 -6.21,-71.89 -4.61,-72.56 -29.77,-80.07 -28.55,-80.44 -27.43,-80.74 -26.35,-81.13 -25.33,-81.55 -24.37,-81.91 -23.39,-82.2 -22.38,-82.41 -21.32,-82.58 -20.21,-82.7 -19.05,-82.79 -17.88,-82.87 -16.7,-82.97 -15.54,-83.11 -14.37,-83.31 -13.19,-83.55 -12.04,-83.81 -10.96,-84.03 -9.99,-84.16 -9.14,-84.18 -8.27,-84.11 -7.23,-84 -6.01,-83.84 -5.19,-83.43" fill="none" stroke="rgb(0, 0, 0)" stroke-width="2" stroke-linejoin="round" filter="url(#fuzzy)" /><polyline points="73.96,-18.03 74.28,-19.34 74.61,-20.79 74.94,-22.19 75.29,-23.6 75.49,-25.01 75.43,-26.36 75.13,-27.61 74.76,-28.81 74.53,-30.06 74.52,-31.4 74.68,-32.83 74.86,-34.28 74.9,-35.7 74.78,-37.2 74.64,-39.01 74.68,-41.27 74.97,-43.67 74.95,-44.97" fill="none" stroke="rgb(0, 0, 0)" stroke-width="2" stroke-linejoin="round" filter="url(#fuzzy)" /><polyline points="-18.26,-113.14 -18.86,-111.02 -19.6,-109.17 -20.6,-107.67 -21.69,-106.02 -22.71,-103.9 -23.59,-101.4 -24.38,-98.82 -25.09,-96.37 -25.76,-94.15 -26.42,-92.16 -27.11,-90.38 -27.82,-88.74 -28.54,-87.14 -29.24,-85.52 -29.97,-84.02 -30.88,-83.07 -32.2,-83.16 -34.02,-84.31 -35.83,-84.76 -35.01,-77.51 -34.61,-77.6 -34.23,-77.88 -33.16,-78.47 -32.02,-79.08 -30.97,-79.64 -29.98,-80.18 -29.02,-80.71 -28.04,-81.25 -27.05,-81.78 -26.07,-82.26 -25.11,-82.67 -24.18,-83.05 -23.27,-83.45 -22.4,-83.85 -21.66,-84.23 -20.97,-84.63" fill="none" stroke="rgb(0, 0, 0)" stroke-width="2" stroke-linejoin="round" filter="url(#fuzzy)" /><polyline points="-34.61,-77.6 -35.34,-77.3 -36.67,-77.02 -38.46,-77.15 -40.61,-77.82 -42.98,-78.92 -45.46,-80.27 -47.9,-81.69 -50.19,-83.02 -52.31,-84.16 -54.35,-85.02 -56.41,-85.64 -58.55,-86.13 -60.67,-86.58 -62.42,-86.76 -63.7,-86.28 -66.12,-86.12 -43.92,-70.85 -41.97,-72.27 -40.47,-73.19 -39.15,-73.93 -37.85,-74.53 -36.59,-75 -35.41,-75.33 -34.29,-75.54 -33.17,-75.6 -32.01,-75.53 -30.79,-75.38 -29.58,-75.27 -28.42,-75.31 -27.35,-75.57 -26.38,-76.05 -25.47,-76.66 -24.58,-77.25 -23.67,-77.71 -22.73,-77.93 -21.73,-77.89 -20.66,-77.65 -19.53,-77.27 -18.31,-76.87 -17.13,-76.62 -16.69,-76.71" fill="none" stroke="rgb(0, 0, 0)" stroke-width="2" stroke-linejoin="round" filter="url(#fuzzy)" /><polyline points="-44.12,-71.01 -45.37,-74.03 -45.28,-75.78 -44.67,-77.49 -43.62,-78.73 -42.27,-79.49 -40.82,-79.99 -39.44,-80.44 -38.22,-81 -37.23,-81.86 -36.47,-83.12 -35.86,-84.76 -35.3,-86.6 -34.69,-88.39 -33.96,-89.94 -33.09,-91.21 -32.13,-92.31 -31.15,-93.43 -30.22,-94.74 -29.42,-96.37 -28.75,-98.42 -28.19,-100.92 -27.7,-103.66 -27.27,-105.35" fill="none" stroke="rgb(0, 0, 0)" stroke-width="2" stroke-linejoin="round" filter="url(#fuzzy)" /><polyline points="-36.25,-105.15 -36.7,-103.56 -37.51,-102.11 -38.07,-99.79 -38.62,-97.34 -39.27,-95.18 -39.95,-93.32 -40.61,-91.64 -41.28,-90.06 -41.98,-88.42 -42.64,-86.55 -43.22,-84.36 -43.74,-81.98 -44.34,-79.79 -45.15,-78.19 -46.19,-77.33 -47.26,-76.89 -48.03,-76.13 -48.27,-74.27 -47.94,-70.94 -47.65,-67.64 -50.15,-65.33 -51.76,-65.85 -53.58,-65.9 -54.62,-65.25 -55.33,-64.34 -56.14,-63.47 -57.3,-62.8 -58.85,-62.37 -60.68,-62.14 -62.59,-61.92 -64.36,-61.58 -65.8,-61 -66.83,-60.21 -67.52,-59.35 -68.11,-58.65 -68.88,-58.3 -70,-58.25 -71.47,-58.13" fill="none" stroke="rgb(0, 0, 0)" stroke-width="2" stroke-linejoin="round" filter="url(#fuzzy)" /><polyline points="-52.48,-62.67 -50.67,-64.1 -49.41,-64.8 -48.23,-65.14 -47.14,-65.46 -46.12,-65.92 -45.14,-66.51 -44.18,-67.13 -43.23,-67.69 -42.25,-68.16 -41.2,-68.52 -40.04,-68.78 -38.75,-68.97 -37.35,-69.09 -35.89,-69.1 -34.39,-68.97 -32.92,-68.65 -31.54,-68.19 -30.29,-67.71 -29.15,-67.43 -28.06,-67.45 -26.95,-67.68 -25.92,-67.39" fill="none" stroke="rgb(0, 0, 0)" stroke-width="2" stroke-linejoin="round" filter="url(#fuzzy)" /><polyline points="-52.48,-62.67 -51.23,-60.45 -52.03,-60.22 -53.18,-59.95 -54.19,-59.22 -54.98,-58.12 -55.59,-56.78 -56.04,-55.32 -56.32,-53.79 -56.44,-52.26 -56.4,-50.77 -56.22,-49.34 -55.95,-47.97 -55.67,-46.6 -55.42,-45.2 -55.24,-43.74 -55.15,-42.22 -55.11,-40.68 -55.05,-39.08 -54.92,-37.4 -54.15,-35.73 -52.77,-62.5 -53.83,-62.45 -55.06,-62.1 -56.25,-61.36 -57.42,-60.47 -58.75,-59.68 -60.24,-59.07 -61.77,-58.58 -63.25,-58.17 -64.7,-57.86 -66.25,-57.74 -68.06,-57.83 -70.24,-58.15 -72.8,-58.59 -75.58,-59.01 -78.35,-59.22 -80.79,-59.04 -82.73,-58.42 -84.18,-57.42 -85.41,-56.3 -86.74,-55.28 -88.3,-54.44 -90.03,-53.82 -92.33,-54.03" fill="none" stroke="rgb(0, 0, 0)" stroke-width="2" stroke-linejoin="round" filter="url(#fuzzy)" /><polyline points="73.27,-21.34 73.69,-19.59 74.06,-18.42 74.53,-17.21 75.19,-15.85 75.97,-14.39 76.75,-12.9 77.4,-11.44 77.89,-10.02 78.27,-8.65 78.63,-7.34 79.05,-6.09 79.54,-4.9 80.09,-3.74 80.69,-2.62 81.27,-1.48 81.79,-0.29 82.23,0.99 82.57,2.38 82.9,3.8 83.28,5.11 83.63,6.04 84.11,6.47" fill="none" stroke="rgb(0, 0, 0)" stroke-width="2" stroke-linejoin="round" filter="url(#fuzzy)" /><polyline points="-31.03,-68.72 -31.51,-69.78 -32.4,-70.2 -33.6,-70.2 -34.95,-70 -36.33,-69.68 -37.64,-69.28 -38.87,-68.83 -40.02,-68.39 -41.09,-67.99 -42.12,-67.59 -43.11,-67.15 -44.08,-66.61 -45,-65.99 -45.9,-65.3 -46.8,-64.62 -47.76,-63.99 -48.79,-63.39 -49.9,-62.83 -51.02,-62.3 -52.06,-61.8 -52.99,-61.32 -54.02,-60.73 -55.65,-59.32 -55.99,-58.43 -55.16,-59.52 -54.18,-60.59 -53.31,-61.39 -52.49,-62.1 -51.65,-62.84 -50.75,-63.64 -49.81,-64.42 -48.88,-65.13 -47.94,-65.75 -46.98,-66.29 -45.94,-66.79 -44.82,-67.3 -43.74,-67.83 -42.86,-68.31 -42.38,-68.55 -42.31,-68.26 -58.01,-55.98 -59,-54.95 -60.02,-54.41 -61.28,-54.21 -63.12,-54.61 -65.68,-55.58 -68.65,-56.73 -71.53,-57.54 -73.87,-57.67 -75.52,-57.06 -76.55,-55.88 -77.21,-54.4 -77.85,-52.93 -78.84,-51.76 -80.43,-51.04 -82.58,-50.7 -85.01,-50.54 -87.68,-50.43 -90.89,-50.01" fill="none" stroke="rgb(0, 0, 0)" stroke-width="2" stroke-linejoin="round" filter="url(#fuzzy)" /><polyline points="-41.83,-83.13 -42.95,-81.36 -43.68,-79.64 -44.47,-78.06 -45.23,-76.67 -45.93,-75.5 -46.63,-74.46 -47.4,-73.5 -48.2,-72.53 -49.01,-71.52 -49.78,-70.47 -50.52,-69.4 -51.27,-68.34 -52.05,-67.31 -52.87,-66.3 -53.67,-65.3 -54.38,-64.25 -54.98,-63.09 -55.48,-61.79 -55.97,-60.38 -56.55,-58.97 -57.32,-57.62 -58.29,-56.15 -59.26,-54.29" fill="none" stroke="rgb(0, 0, 0)" stroke-width="2" stroke-linejoin="round" filter="url(#fuzzy)" /><polyline points="-60.67,-52.23 -60.81,-53.23 -60.75,-54.74 -61.09,-56.89 -61.86,-59.68 -62.83,-62.81 -63.59,-65.78 -63.81,-68.19 -63.47,-69.97 -62.89,-71.43 -62.5,-73.03 -62.53,-75.17 -62.97,-78.04 -63.69,-81.61 -64.6,-85.7 -65.19,-90.17" fill="none" stroke="rgb(0, 0, 0)" stroke-width="2" stroke-linejoin="round" filter="url(#fuzzy)" /><polyline points="73.27,-21.19 73.97,-23.23 73.58,-24.52 73.15,-25.81 72.92,-27.1 72.83,-28.36 72.82,-29.63 72.87,-30.97 72.98,-32.37 73.12,-33.83 73.23,-35.36 73.26,-37.01 73.23,-38.8 73.18,-40.72 73.2,-42.68 73.27,-44.53 73.28,-46.19 73.18,-47.69 72.92,-49.19 72.5,-50.61" fill="none" stroke="rgb(0, 0, 0)" stroke-width="2" stroke-linejoin="round" filter="url(#fuzzy)" /><polyline points="-61.62,-23.45 -61.55,-24.94 -61.67,-26.43 -62.04,-28.04 -62.66,-29.68 -63.3,-31.27 -63.65,-32.76 -63.62,-34.14 -63.3,-35.43 -62.9,-36.67 -62.61,-37.95 -62.51,-39.29 -62.59,-40.74 -62.74,-42.27 -62.85,-43.82 -62.8,-45.35 -62.52,-46.8 -62.07,-48.21 -61.59,-49.63 -61.22,-50.96 -60.92,-51.75" fill="none" stroke="rgb(0, 0, 0)" stroke-width="2" stroke-linejoin="round" filter="url(#fuzzy)" /><polyline points="-61.72,-50.2 -61.29,-51.02 -60.96,-51.64 -60.62,-52.25 -60.16,-52.97 -59.56,-53.82 -58.84,-54.78 -58.03,-55.83 -57.17,-56.92 -56.29,-58 -55.4,-59.04 -54.53,-60.02 -53.67,-60.94 -52.82,-61.8 -51.96,-62.64 -51.09,-63.49 -50.2,-64.35 -49.33,-65.19 -48.49,-65.97 -47.7,-66.69 -46.85,-67.41 -45.76,-68.29 -44.09,-69.57 -63.96,-46.67 -64.26,-44.21 -64.41,-42.75 -64.65,-41.56 -65.02,-40.44 -65.4,-39.24 -65.71,-37.93 -65.97,-36.53 -66.2,-35.13 -66.4,-33.75 -66.53,-32.4 -66.56,-31.02 -66.47,-29.58 -66.31,-28.12 -66.17,-26.68 -66.11,-25.3 -66.13,-24 -66.22,-22.77 -66.28,-21.6 -66.25,-20.46 -66.08,-19.21 -65.94,-17.69 -66.13,-16.19" fill="none" stroke="rgb(0, 0, 0)" stroke-width="2" stroke-linejoin="round" filter="url(#fuzzy)" /><polyline points="-65.71,-43.35 -66.51,-42.82 -67.16,-41.75 -67.72,-40.59 -68.28,-39.34 -68.86,-38.02 -69.44,-36.71 -70.01,-35.46 -70.57,-34.25 -71.1,-33.03 -71.59,-31.77 -72.05,-30.46 -72.52,-29.16 -73.02,-27.88 -73.57,-26.64 -74.13,-25.44 -74.62,-24.31 -74.99,-23.29 -75.33,-22.12 -75.94,-20.07 -65.71,-43.35 -65.44,-44.55 -65.41,-46.42 -65.4,-48.23 -65.19,-49.83 -64.83,-51.22 -64.47,-52.48 -64.22,-53.65 -64.08,-54.79 -63.94,-55.94 -63.71,-57.12 -63.34,-58.39 -62.92,-59.85 -62.56,-61.57 -62.28,-63.47 -61.95,-65.36 -61.42,-67.14 -60.83,-68.92 -61.09,-70.69" fill="none" stroke="rgb(0, 0, 0)" stroke-width="2" stroke-linejoin="round" filter="url(#fuzzy)" /><polyline points="-98.85,-30.22 -97.45,-30.7 -94.59,-30.78 -91.63,-31.33 -89.12,-32.18 -87.06,-33.15 -85.19,-34.12 -83.31,-35.07 -81.48,-36.01 -79.85,-36.97 -78.47,-37.95 -77.13,-38.88 -75.42,-39.63 -73.15,-40.16 -70.71,-40.57 -68.76,-41.11 -67.38,-41.86 -65.77,-42.92" fill="none" stroke="rgb(0, 0, 0)" stroke-width="2" stroke-linejoin="round" filter="url(#fuzzy)" /><polyline points="73.03,-23.81 74.57,-22.44 74.63,-21.14 74.63,-19.91 74.86,-18.72 75.34,-17.49 76.01,-16.16 76.83,-14.75 77.75,-13.3 78.74,-11.86 79.78,-10.46 80.85,-9.11 81.99,-7.82 83.21,-6.57 84.57,-5.35 86.05,-4.19 87.59,-3.1 89.08,-2.04 90.34,-0.83 91.4,0.67" fill="none" stroke="rgb(0, 0, 0)" stroke-width="2" stroke-linejoin="round" filter="url(#fuzzy)" /><polyline points="73.03,-23.81 72.73,-24.31 72.19,-25.51 71.48,-26.61 70.49,-27.41 69.18,-28.04 67.68,-28.61 66.18,-29.19 64.75,-29.76 63.36,-30.35 61.95,-31.01 60.56,-31.82 59.26,-32.78 58.12,-33.79 57.03,-34.59 55.62,-34.86 54.11,-34.52" fill="none" stroke="rgb(0, 0, 0)" stroke-width="2" stroke-linejoin="round" filter="url(#fuzzy)" /><polyline points="-69.88,-33.54 -69.41,-35.28 -68.87,-37.13 -68.37,-38.73 -67.9,-40.09 -67.47,-41.31 -67.03,-42.48 -66.58,-43.64 -66.09,-44.82 -65.56,-46.04 -65,-47.3 -64.44,-48.59 -63.89,-49.86 -63.37,-51.04 -62.9,-52.08 -62.49,-52.95 -62.15,-53.75 -61.84,-54.62 -61.48,-55.58 -61.35,-56.2 -101.26,-7.05 -99.8,-8.34 -97.08,-8.89 -95.05,-9.88 -93.79,-11.31 -92.9,-12.96 -91.96,-14.61 -90.76,-16.14 -89.33,-17.52 -87.84,-18.77 -86.51,-19.96 -85.46,-21.16 -84.7,-22.41 -84.11,-23.69 -83.49,-24.94 -82.58,-26.08 -81.19,-27.06 -79.36,-27.91 -77.41,-28.74 -75.88,-29.76 -75.25,-31.17 -75.42,-32.96 -75.26,-34.62 -72.95,-35 -69.88,-33.54" fill="none" stroke="rgb(0, 0, 0)" stroke-width="2" stroke-linejoin="round" filter="url(#fuzzy)" /><polyline points="-70.52,-32.4 -70.04,-33.85 -69.95,-34.82 -70.15,-36.27 -70.57,-38.15 -70.89,-40.03 -70.82,-41.62 -70.31,-42.87 -69.57,-43.93 -68.87,-45.03 -68.37,-46.31 -68.12,-47.82 -68.07,-49.54 -68.14,-51.38 -68.28,-53.28 -68.49,-55.16 -68.8,-56.96 -69.2,-58.64 -69.6,-60.2 -69.8,-61.64 -69.62,-62.93 -69.53,-63.7 -93.09,-8.98 -90.3,-10.79 -88.24,-12.38 -86.6,-13.93 -85.21,-15.38 -83.82,-16.66 -82.33,-17.76 -80.85,-18.74 -79.58,-19.73 -78.68,-20.81 -78.18,-22.02 -77.97,-23.3 -77.81,-24.58 -77.36,-25.78 -76.35,-26.83 -74.76,-27.68 -72.98,-28.39 -71.68,-29.14 -71.25,-29.91" fill="none" stroke="rgb(0, 0, 0)" stroke-width="2" stroke-linejoin="round" filter="url(#fuzzy)" /><polyline points="-71.25,-29.91 -70.59,-32.04 -70.2,-33.49 -70.07,-34.75 -70.18,-36.23 -70.49,-38.01 -70.87,-39.9 -71.1,-41.68 -71.1,-43.25 -70.97,-44.73 -70.89,-46.25 -70.95,-47.92 -71.09,-49.73 -71.22,-51.61 -71.3,-53.57 -71.46,-55.67 -71.82,-57.91 -72.28,-60.03 -72.64,-61.65 -73.19,-63" fill="none" stroke="rgb(0, 0, 0)" stroke-width="2" stroke-linejoin="round" filter="url(#fuzzy)" /><polyline points="71.73,-28.55 72.56,-26.39 73.61,-24.94 75.18,-24 77.34,-23.35 79.63,-22.75 81.42,-21.98 82.36,-20.95 82.58,-19.63 82.59,-18.1 83.02,-16.49 84.31,-14.91 86.52,-13.47 89.12,-12.14 90.85,-10.8 90.28,-8.81" fill="none" stroke="rgb(0, 0, 0)" stroke-width="2" stroke-linejoin="round" filter="url(#fuzzy)" /><polyline points="101.83,0.75 98.71,-0.9 97.26,-2.26 96.19,-3.46 94.98,-4.7 93.56,-6.02 92.11,-7.39 90.78,-8.81 89.63,-10.29 88.6,-11.82 87.55,-13.38 86.36,-14.92 84.99,-16.39 83.56,-17.79 82.32,-19.15 81.54,-20.51 81.27,-21.9 81.24,-23.26 80.88,-24.5 79.7,-25.5 77.73,-26.36 75.71,-27.32 74.37,-28.37 71.94,-27.82 55.1,-49.1 55.83,-48.35 56.85,-47.57 57.94,-46.66 58.95,-45.84 59.81,-45.14 60.56,-44.52 61.24,-43.9 61.9,-43.22 62.55,-42.47 63.19,-41.62 63.86,-40.7 64.61,-39.71 65.49,-38.67 66.5,-37.53 67.54,-36.29 68.47,-35 69.23,-33.79 69.84,-32.82 70.31,-32.15 70.39,-32.06" fill="none" stroke="rgb(0, 0, 0)" stroke-width="2" stroke-linejoin="round" filter="url(#fuzzy)" /><polyline points="65.29,-63.21 65.28,-61.86 65.2,-60.18 65.33,-58.57 65.67,-57.03 66.09,-55.49 66.48,-53.92 66.77,-52.39 66.99,-50.96 67.19,-49.69 67.45,-48.55 67.79,-47.49 68.16,-46.43 68.47,-45.27 68.65,-43.96 68.7,-42.47 68.74,-40.84 68.95,-39.13 69.45,-37.46 70.29,-35.95 71.29,-34.74 71.91,-33.64 70.67,-31.48" fill="none" stroke="rgb(0, 0, 0)" stroke-width="2" stroke-linejoin="round" filter="url(#fuzzy)" /><polyline points="68.1,-37.95 68.59,-35.19 67.78,-33.23 66.8,-31.57 66.29,-30.17 66.1,-28.89 65.83,-27.59 65.33,-26.21 64.73,-24.81 64.28,-23.46 64.16,-22.22 64.37,-21.09 64.82,-20.08 65.35,-19.12 65.8,-18.17 66.05,-17.18 65.98,-16.09 65.53,-14.84 64.75,-13.37 63.67,-11.79 62.15,-10.18" fill="none" stroke="rgb(0, 0, 0)" stroke-width="2" stroke-linejoin="round" filter="url(#fuzzy)" /><polyline points="84.76,-21.29 84.36,-21.24 83.6,-22 83.09,-23.14 82.54,-24.35 81.72,-25.5 80.58,-26.56 79.2,-27.54 77.7,-28.43 76.23,-29.26 74.88,-30.1 73.75,-31 72.87,-31.98 72.19,-33.04 71.59,-34.16 70.92,-35.36 70.06,-36.66 69.04,-38.08 67.99,-39.52 67.06,-40.8 66.05,-42.06 65.1,-44.04 65.91,-42.81 66.69,-41.93 67.56,-40.98 68.47,-39.81 69.34,-38.44 70.13,-36.99 70.83,-35.62 71.52,-34.39 72.28,-33.31 73.12,-32.32 74,-31.35 74.83,-30.37 75.57,-29.36 76.31,-28.3 77.13,-27.17 78.08,-25.98 78.99,-24.78 79.55,-23.01" fill="none" stroke="rgb(0, 0, 0)" stroke-width="2" stroke-linejoin="round" filter="url(#fuzzy)" /><polyline points="65.1,-44.04 68.3,-47.51 67.69,-48.17 66.24,-48.21 64.93,-48.45 63.91,-49.1 63.11,-50.12 62.55,-51.44 62.23,-52.98 62.16,-54.68 62.23,-56.44 62.27,-58.13 62.13,-59.68 61.74,-61.08 61.14,-62.43 60.47,-63.86 59.9,-65.43 59.53,-67.16 59.34,-68.95 59.2,-70.71 58.94,-72.38 58.47,-74.04 57.84,-75.82 57.18,-77.72 56.61,-80.2 64.01,-46.67 64.26,-47.87 64.24,-49.15 63.62,-50.4 62.9,-51.74 62.37,-53.18 62.05,-54.64 61.85,-56.07 61.67,-57.44 61.43,-58.73 61.02,-59.98 60.41,-61.26 59.61,-62.63 58.73,-64.11 57.97,-65.64 57.63,-67.19 58.08,-68.37" fill="none" stroke="rgb(0, 0, 0)" stroke-width="2" stroke-linejoin="round" filter="url(#fuzzy)" /><polyline points="63.47,-47.41 63.94,-46.73 64.43,-46.02 64.97,-45.2 65.54,-44.26 66.1,-43.25 66.67,-42.15 67.27,-40.97 67.9,-39.67 68.56,-38.28 69.23,-36.86 69.89,-35.48 70.49,-34.19 71.02,-32.99 71.5,-31.83 71.93,-30.69 72.35,-29.57 72.76,-28.52 73.17,-27.44 73.65,-26 74.35,-23.91" fill="none" stroke="rgb(0, 0, 0)" stroke-width="2" stroke-linejoin="round" filter="url(#fuzzy)" /><polyline points="60.52,-52.17 62.34,-50.05 63.94,-49.28 65.55,-49.13 67.12,-49.15 68.51,-49.02 69.77,-48.67 71.13,-48.23 72.73,-47.83 74.46,-47.41 76.06,-46.77 77.47,-45.79 78.99,-44.58 81.07,-43.44 83.96,-42.68 87.4,-42.43 90.62,-42.32 91.47,-40.74 58,-56.15 57.54,-56.9 56.76,-58.38 56.07,-60.08 55.59,-61.76 55.31,-63.35 55.11,-64.83 54.83,-66.2 54.33,-67.45 53.59,-68.61 52.73,-69.77 51.88,-70.99 51.09,-72.28 50.34,-73.57 49.53,-74.77 48.65,-75.94 47.98,-77.47 56.37,-57.99 57.4,-56.85 57.99,-56.08 58.5,-55.3 59.02,-54.41 59.59,-53.41 60.22,-52.32 60.89,-51.18 61.56,-50.02 62.21,-48.91 62.81,-47.88 63.33,-46.92 63.81,-46.01 64.26,-45.1 64.72,-44.16 65.19,-43.17 65.69,-42.12 66.21,-41 66.76,-39.76 67.34,-38.33 67.94,-36.71 68.54,-35.03 69.04,-33.67 69.38,-32.92" fill="none" stroke="rgb(0, 0, 0)" stroke-width="2" stroke-linejoin="round" filter="url(#fuzzy)" /><polyline points="73.59,-46.95 71.93,-48.05 70.78,-48.86 69.71,-49.4 68.61,-49.78 67.49,-50.18 66.35,-50.7 65.19,-51.41 64.06,-52.27 63.02,-53.23 62.12,-54.22 61.33,-55.18 60.65,-56.09 60.1,-56.99 59.61,-57.96 58.91,-58.93 57.33,-59.66 54.59,-60.23 52.71,-62.77 52.87,-62.41 53.28,-61.86 53.98,-60.99 54.87,-59.91 55.82,-58.76 56.73,-57.65 57.52,-56.64 58.21,-55.73 58.82,-54.85 59.41,-53.94 60.02,-52.96 60.69,-51.87 61.44,-50.65 62.25,-49.31 63.01,-48.09 63.47,-47.41" fill="none" stroke="rgb(0, 0, 0)" stroke-width="2" stroke-linejoin="round" filter="url(#fuzzy)" /><polyline points="49.31,-66.25 50.2,-65.63 51.53,-65.06 52.69,-64.5 53.62,-63.93 54.6,-63.44 55.88,-63.08 57.51,-62.83 59.31,-62.59 61,-62.22 62.38,-61.66 63.45,-60.97 64.45,-60.31 65.65,-59.83 67.16,-59.58 68.98,-59.43 71.25,-59.19 74.99,-58.42 60.27,-53.71 59.63,-54.78 59.04,-55.61 58.44,-56.4 57.7,-57.29 56.83,-58.32 55.88,-59.41 54.94,-60.48 54.08,-61.43 53.3,-62.26 52.57,-63.05 51.81,-63.88 50.97,-64.8 50.03,-65.77 49.03,-66.7 48.01,-67.52 47.17,-68.12" fill="none" stroke="rgb(0, 0, 0)" stroke-width="2" stroke-linejoin="round" filter="url(#fuzzy)" /><polyline points="45.97,-69.12 45.22,-70.04 44.63,-70.72 44.16,-71.52 43.88,-72.77 43.88,-74.64 44.11,-77.12 44.36,-79.9 44.29,-82.48 43.73,-84.44 42.76,-85.72 41.69,-86.68 40.89,-87.92 40.48,-90 40.23,-93.11 39.59,-96.65" fill="none" stroke="rgb(0, 0, 0)" stroke-width="2" stroke-linejoin="round" filter="url(#fuzzy)" /><polyline points="45.97,-69.12 45.4,-70.32 45.13,-71.56 45.18,-73.22 45.21,-74.99 45.04,-76.57 44.67,-77.97 44.13,-79.35 43.42,-80.76 42.55,-82.13 41.57,-83.37 40.65,-84.56 39.98,-85.97 39.5,-87.8 38.96,-90.14 38.46,-93.9" fill="none" stroke="rgb(0, 0, 0)" stroke-width="2" stroke-linejoin="round" filter="url(#fuzzy)" /><polyline points="44.98,-70.03 46.2,-69.52 47.53,-69.19 48.87,-68.82 50.25,-68.4 51.67,-67.96 53.09,-67.56 54.48,-67.22 55.86,-66.95 57.33,-66.77 58.99,-66.68 60.88,-66.65 63.03,-66.71 65.43,-66.93 68,-67.36 70.55,-67.88 72.76,-68.17 74.38,-67.92 75.58,-67.17 76.98,-66.42 79.15,-65.85 81.15,-63.22 43.82,-70.76 44.79,-69.88 45.72,-68.97 46.59,-67.99 47.4,-66.93 48.17,-65.79 48.88,-64.57 49.52,-63.31 50.07,-62.07 50.54,-60.87 50.94,-59.66 51.27,-58.34 51.51,-56.83 51.65,-55.11 51.71,-53.29 51.71,-51.54 51.68,-49.98 51.61,-48.59 51.45,-47.16 51.19,-45.54 51.54,-44.34 43.82,-70.76 42.91,-69.49 41.31,-68.52 40.09,-68.28 38.95,-68.2 37.7,-68.09 36.37,-68.08 35.12,-68.29 33.97,-68.66 32.9,-69.01 31.83,-69.29 30.74,-69.56 29.62,-69.94 28.46,-70.43 27.21,-70.88 25.87,-71.12 24.5,-71.05 23.21,-70.73 22.05,-70.28 20.78,-69.66 18.9,-68.45 18.84,-68.23 20.55,-68.87 21.99,-70.05 23.37,-71.16 24.79,-71.88 26.26,-72.19 27.69,-72.12 28.96,-71.68 30.03,-70.96 30.98,-70.16 31.93,-69.51 33,-69.15 34.21,-69.03 35.48,-68.95 36.68,-68.7 37.71,-68.24 38.62,-67.74 39.6,-67.51 40.89,-67.84 42.54,-68.92 43.82,-70.76" fill="none" stroke="rgb(0, 0, 0)" stroke-width="2" stroke-linejoin="round" filter="url(#fuzzy)" /><polyline points="43.82,-70.76 44.84,-69.94 45.72,-68.94 46.51,-67.83 47.22,-66.63 47.93,-65.39 48.68,-64.19 49.47,-63.12 50.28,-62.19 51.06,-61.32 51.79,-60.42 52.49,-59.45 53.22,-58.4 54.01,-57.32 54.83,-56.27 55.63,-55.28 56.33,-54.32 56.89,-53.35 57.32,-52.31 57.66,-51.16 58,-49.86 58.4,-48.37 58.93,-46.62 59.57,-45.06 44.54,-70.43 48.34,-76.64 48.64,-75.61 49.13,-74.17 50.41,-73.68 52.19,-73.79 54.18,-74.08 56.34,-74.46 58.69,-75.03 61.13,-75.78 63.36,-76.45 65.06,-76.61 66.15,-75.97 66.99,-74.68 68.49,-73.5 71.62,-73.35 76.38,-74.29" fill="none" stroke="rgb(0, 0, 0)" stroke-width="2" stroke-linejoin="round" filter="url(#fuzzy)" /><polyline points="42.76,-71.72 41.9,-72.06 40.93,-71.95 39.78,-72.07 38.55,-72.46 37.32,-72.95 36.15,-73.45 35.03,-73.91 33.91,-74.29 32.7,-74.53 31.36,-74.63 29.92,-74.63 28.43,-74.61 27,-74.65 25.71,-74.83 24.58,-75.16 23.61,-75.57 22.73,-75.96 21.85,-76.22 20.9,-76.29 19.82,-76.14 18.6,-75.79 17.3,-75.29 16.08,-74.74 15.33,-74.53" fill="none" stroke="rgb(0, 0, 0)" stroke-width="2" stroke-linejoin="round" filter="url(#fuzzy)" /><polyline points="58.2,-64.22 57.29,-64.7 56.37,-65.23 55.38,-65.5 54.36,-65.83 53.3,-66.4 52.22,-67.15 51.11,-67.95 49.98,-68.7 48.84,-69.36 47.73,-69.96 46.7,-70.55 45.78,-71.08 44.97,-71.41 44.1,-71.46 42.76,-71.72" fill="none" stroke="rgb(0, 0, 0)" stroke-width="2" stroke-linejoin="round" filter="url(#fuzzy)" /><polyline points="39.16,-74.38 37.09,-73.51 36.14,-74.57 35.4,-75.52 34.52,-76.17 33.45,-76.7 32.22,-77.24 30.88,-77.74 29.47,-78.1 28.05,-78.27 26.68,-78.24 25.4,-78.11 24.24,-77.97 23.17,-77.87 22.14,-77.78 21.09,-77.68 19.99,-77.56 18.83,-77.42 17.67,-77.36 16.54,-77.44 15.46,-77.66 14.38,-77.91 13.31,-78 12.7,-77.65" fill="none" stroke="rgb(0, 0, 0)" stroke-width="2" stroke-linejoin="round" filter="url(#fuzzy)" /><polyline points="39.16,-74.38 38.35,-75.95 37.59,-77.44 36.94,-78.62 36.22,-79.61 35.33,-80.56 34.27,-81.51 33.01,-82.41 31.61,-83.16 30.16,-83.75 28.82,-84.31 27.71,-85.01 26.82,-85.95 26.08,-87.08 25.53,-88.18 25.96,-89.28" fill="none" stroke="rgb(0, 0, 0)" stroke-width="2" stroke-linejoin="round" filter="url(#fuzzy)" /><polyline points="23.49,-112.33 24.81,-108.86 25.81,-105.68 26.9,-103.6 27.85,-101.98 28.43,-99.8 28.63,-96.71 28.73,-93.19 29.04,-90.11 29.83,-88.13 31.16,-87.3 32.82,-87.07 34.41,-86.58 35.63,-85.27 36.5,-83.37 37.08,-81.21 36.13,-76.38 35.22,-76.83 34.47,-78.81 33.8,-81.18 32.78,-82.92 31.36,-83.77 29.86,-84.2 28.54,-84.68 27.48,-85.38 26.6,-86.26 25.81,-87.28 25.05,-88.42 24.25,-89.7 23.38,-91.13 22.42,-92.63 21.4,-94.12 20.37,-95.6 19.35,-97.24 18.19,-99.23 16.37,-101.02" fill="none" stroke="rgb(0, 0, 0)" stroke-width="2" stroke-linejoin="round" filter="url(#fuzzy)" /><polyline points="32.3,-78.86 33.78,-78 34.9,-77.36 35.93,-76.95 37.05,-76.62 38.28,-76.26 39.57,-75.87 40.84,-75.48 42.01,-75.11 43.04,-74.69 43.93,-74.18 44.71,-73.57 45.45,-72.89 46.24,-72.21 47.12,-71.57 48.11,-70.96 49.2,-70.35 50.36,-69.71 51.56,-69.02 52.8,-68.31 54.03,-67.63 55.18,-67.05 56.15,-66.62 57.07,-66.29 58.52,-65.52" fill="none" stroke="rgb(0, 0, 0)" stroke-width="2" stroke-linejoin="round" filter="url(#fuzzy)" /><polyline points="32.3,-78.86 32.31,-82.11 31.27,-84.31 29.7,-84.66 28.23,-84.48 27.09,-84.71 26.27,-85.64 25.67,-87.2 25.16,-89.14 24.58,-91.16 23.81,-92.99 22.85,-94.48 21.74,-95.67 20.62,-96.78 19.53,-98.17 18.32,-99.99 16.49,-101.74" fill="none" stroke="rgb(0, 0, 0)" stroke-width="2" stroke-linejoin="round" filter="url(#fuzzy)" /><polyline points="11.05,-78.16 12.34,-78.65 13.36,-78.72 14.43,-78.63 15.56,-78.7 16.76,-79.01 18.01,-79.49 19.3,-79.99 20.57,-80.44 21.78,-80.83 22.91,-81.17 23.96,-81.41 24.95,-81.49 25.92,-81.4 26.92,-81.16 28.09,-80.75 29.67,-80.07 32,-78.87 29.04,-80.6 27.98,-81.82 27.16,-82.61 26.36,-83.22 25.58,-83.96 24.89,-85.05 24.22,-86.43 23.48,-87.89 22.6,-89.22 21.58,-90.31 20.46,-91.17 19.3,-91.93 18.15,-92.73 17.03,-93.62 15.95,-94.6 14.94,-95.63 14.05,-96.82 13.36,-98.37 13.03,-101.05 29.04,-80.6 27.92,-81.67 27.41,-83.46 27.12,-85.85 26.8,-88.2 26.29,-89.98 25.54,-91.19 24.63,-92.18 23.61,-93.21 22.53,-94.28 21.4,-95.31 20.24,-96.36 19.13,-97.71 18.11,-99.64 17.18,-102.01 16.26,-104.15 15.23,-105.21 14.28,-105.26" fill="none" stroke="rgb(0, 0, 0)" stroke-width="2" stroke-linejoin="round" filter="url(#fuzzy)" /><polyline points="25.13,-82.18 23.95,-82.84 23.37,-83.79 22.57,-84.72 21.51,-85.35 20.31,-85.73 19.12,-86.07 17.99,-86.54 16.91,-87.21 15.87,-88.03 14.88,-88.94 13.96,-89.82 13.09,-90.53 12.27,-90.97 11.45,-91.15 10.46,-91.36 2.67,-73.7 3.19,-75.65 4.02,-76.91 5.05,-77.68 6.16,-78.26 7.28,-78.79 8.38,-79.27 9.43,-79.73 10.44,-80.22 11.44,-80.76 12.45,-81.34 13.5,-81.82 14.58,-82.09 15.66,-82.09 16.73,-81.89 17.84,-81.73 19.1,-82.04 20.6,-82.86 22.4,-83.09 20.2,-83.89 22.3,-84.69 24.02,-86.5 25.68,-88.87 27.26,-90.81 28.64,-91.74 29.9,-91.75 31.25,-91.41 32.9,-91.3 34.94,-91.78 37.27,-92.83 39.66,-94.14 41.84,-95.26 43.64,-95.88 45.16,-96.08 46.77,-96.29 48.76,-96.53 50.68,-96.26" fill="none" stroke="rgb(0, 0, 0)" stroke-width="2" stroke-linejoin="round" filter="url(#fuzzy)" /><polyline points="30.74,-66.04 30.97,-66.64 30.8,-67.97 30.34,-69.54 29.64,-71.09 28.72,-72.42 27.63,-73.49 26.53,-74.41 25.53,-75.32 24.68,-76.3 23.96,-77.34 23.3,-78.37 22.65,-79.39 21.93,-80.41 21.09,-81.41 20.11,-82.4 19.07,-83.38 18.09,-84.24 17.41,-84.6" fill="none" stroke="rgb(0, 0, 0)" stroke-width="2" stroke-linejoin="round" filter="url(#fuzzy)" /><polyline points="0.43,-79.19 1.28,-79.52 2.25,-80.09 3.19,-80.85 4.15,-81.59 5.19,-82.18 6.29,-82.58 7.4,-82.77 8.49,-82.79 9.54,-82.73 10.52,-82.69 11.46,-82.85 12.4,-83.3 13.41,-84.01 14.54,-84.73 16.15,-85.12 13.85,-85.47 13.44,-85.62 12.6,-85.64 11.68,-85.6 10.7,-85.58 9.64,-85.65 8.53,-85.8 7.39,-85.97 6.26,-86.11 5.15,-86.15 4.06,-86.11 2.98,-85.99 1.87,-85.87 0.71,-85.77 -0.51,-85.71 -1.78,-85.69 -3.05,-85.65 -4.29,-85.56 -5.46,-85.4 -6.58,-85.18 -7.62,-84.91 -8.53,-84.61 -9.13,-84.28 -9.3,-83.96 -9.25,-83.86 13.85,-85.47 15.77,-85.79 17.21,-86.19 18.45,-86.25 19.64,-86.06 20.85,-85.8 22.08,-85.67 23.34,-85.89 24.67,-86.58 26.13,-87.75 27.71,-89.23 29.39,-90.71 31.12,-91.83 32.89,-92.41 34.74,-92.53 36.68,-92.52 38.66,-92.56 40.48,-92.46 41.98,-91.92 43.39,-91.75 24.72,-68.6 24.03,-70.29 23.46,-71.4 22.98,-72.64 22.55,-74.12 22.13,-75.7 21.62,-77.17 20.94,-78.35 20.07,-79.14 19.04,-79.54 17.91,-79.66 16.77,-79.74 15.68,-80.07 14.7,-80.87 13.83,-82.13 13.04,-83.54 12.3,-84.72 11.62,-85.5 11.09,-86.01 9.89,-86.42 10.84,-86.15 11.67,-86.13 12.56,-86.17 13.54,-86.12 14.59,-85.96 15.7,-85.76 16.87,-85.6 18.07,-85.48 19.29,-85.36 20.49,-85.2 21.64,-84.96 22.74,-84.66 23.78,-84.35 24.8,-84.07 25.85,-83.87 26.97,-83.73 28.21,-83.6 29.58,-83.38 31.05,-83.02 32.58,-82.48 34.06,-81.8 35.44,-81.07 36.7,-80.4 37.91,-80.17" fill="none" stroke="rgb(0, 0, 0)" stroke-width="2" stroke-linejoin="round" filter="url(#fuzzy)" /><polyline points="33.68,-100.25 32.22,-98.57 30.86,-97.65 29.63,-97.42 28.53,-97.66 27.41,-97.92 26.11,-97.78 24.59,-97.08 22.93,-95.94 21.23,-94.62 19.58,-93.34 18.03,-92.15 16.56,-91.01 15.18,-89.89 13.89,-88.86 12.71,-88.05 11.62,-87.57 10.56,-87.41 9.47,-87.45 8.32,-87.47 7.13,-87.24 5.61,-86.88 3.48,-87.01 2.74,-87.02 1.67,-87.22 0.46,-87.63 -0.89,-88.14 -2.29,-88.58 -3.63,-88.83 -4.88,-88.95 -6.05,-89.08 -7.18,-89.3 -8.25,-89.61 -9.2,-89.93 -10.04,-90.19 -10.89,-90.38 -12.09,-90.58 -13.88,-90.84 -15.59,-91.24" fill="none" stroke="rgb(0, 0, 0)" stroke-width="2" stroke-linejoin="round" filter="url(#fuzzy)" /><polyline points="3.48,-87.01 2.76,-88.21 1.65,-88.18 0.39,-88.15 -1.01,-88.57 -2.46,-89.45 -3.87,-90.51 -5.2,-91.47 -6.44,-92.24 -7.63,-92.91 -8.78,-93.6 -9.89,-94.31 -11.01,-94.98 -12.17,-95.48 -13.42,-95.78 -14.75,-95.92 -16.14,-96.02 -17.56,-96.2 -19.01,-96.56 -20.55,-97.16 -22.24,-98.09 -24.08,-99.41 -25.84,-100.81 -26.78,-100.88" fill="none" stroke="rgb(0, 0, 0)" stroke-width="2" stroke-linejoin="round" filter="url(#fuzzy)" /><polyline points="0.47,-87.24 2.88,-86.99 5.64,-86.82 8.57,-86.6 11.24,-86.31 13.62,-85.94 15.98,-85.51 18.59,-85.01 21.54,-84.43 24.71,-83.78 27.9,-83.04 30.98,-82.21 34.06,-81.29 37.39,-80.26 41.25,-79.14 45.81,-77.92 50.95,-76.63 56.34,-75.3 61.54,-73.94 66.23,-72.57 70.32,-71.18 74.07,-69.75 77.92,-68.26 82.28,-66.68 87.29,-65 92.77,-63.22 98.42,-61.33 104.13,-59.31 110.14,-57.21 116.79,-55.17 124.09,-53.22" fill="none" stroke="rgb(0, 0, 0)" stroke-width="2" stroke-linejoin="round" filter="url(#fuzzy)" /><polyline points="-5.39,-86.77 -3.16,-86.86 -0.47,-86.92 2.09,-86.89 4.48,-86.77 6.75,-86.57 8.95,-86.3 11.09,-85.96 13.2,-85.56 15.3,-85.08 17.42,-84.53 19.56,-83.91 21.72,-83.21 23.88,-82.43 26.05,-81.55 28.23,-80.58 30.44,-79.49 32.67,-78.29 34.9,-76.99 37.09,-75.63 39.18,-74.24 41.11,-72.88 42.79,-71.62 44.26,-70.46 45.97,-69.12" fill="none" stroke="rgb(0, 0, 0)" stroke-width="2" stroke-linejoin="round" filter="url(#fuzzy)" /><polyline points="-5.39,-86.77 -3.12,-86.86 -0.46,-86.92 2,-86.88 4.24,-86.75 6.33,-86.54 8.32,-86.26 10.29,-85.9 12.24,-85.47 14.2,-84.97 16.12,-84.39 17.99,-83.73 19.8,-82.99 21.58,-82.15 23.34,-81.22 25.1,-80.19 26.85,-79.07 28.53,-77.85 30.1,-76.58 31.49,-75.25 32.67,-73.89 33.64,-72.5 34.46,-71.08 35.19,-69.63 35.92,-68.1 36.72,-66.5 37.57,-64.8 38.44,-63 39.23,-61.11 39.85,-59.15 40.26,-57.14 40.45,-55.11 40.39,-53.05 40.15,-50.9 40.04,-48.6 40.21,-46.67" fill="none" stroke="rgb(0, 0, 0)" stroke-width="2" stroke-linejoin="round" filter="url(#fuzzy)" /><polyline points="-5.52,-86.8 -4.04,-86.87 -1.57,-86.95 0.88,-86.96 3.27,-86.87 5.71,-86.71 8.23,-86.46 10.79,-86.13 13.33,-85.73 15.83,-85.26 18.35,-84.73 20.96,-84.14 23.73,-83.48 26.75,-82.75 30.09,-81.91 33.81,-80.95 37.89,-79.86 42.23,-78.66 46.74,-77.38 51.29,-76.06 55.8,-74.73 60.17,-73.42 64.13,-72.13 67.4,-70.91 70.1,-70.03" fill="none" stroke="rgb(0, 0, 0)" stroke-width="2" stroke-linejoin="round" filter="url(#fuzzy)" /><polyline points="-9.41,-86.25 -8.19,-86.51 -6.12,-86.7 -3.8,-86.82 -1.43,-86.89 0.91,-86.88 3.22,-86.8 5.53,-86.63 7.86,-86.37 10.25,-86.04 12.73,-85.62 15.31,-85.14 17.98,-84.59 20.69,-83.96 23.42,-83.26 26.13,-82.46 28.81,-81.56 31.47,-80.56 34.12,-79.46 36.79,-78.27 39.51,-77.02 42.3,-75.72 45.16,-74.39 48.08,-73.03 50.99,-71.64 53.84,-70.19 56.57,-68.69 59.13,-67.1 61.53,-65.42 63.83,-63.66 66.08,-61.82 68.39,-59.92 70.81,-57.97 73.38,-55.96 76.12,-53.87 78.99,-51.64 81.8,-49.32 84.82,-47.41" fill="none" stroke="rgb(0, 0, 0)" stroke-width="2" stroke-linejoin="round" filter="url(#fuzzy)" /><polyline points="-13.83,-85.68 -10.73,-86.13 -8.44,-86.44 -6.18,-86.65 -3.83,-86.79 -1.41,-86.86 1.08,-86.87 3.68,-86.79 6.44,-86.63 9.37,-86.39 12.42,-86.07 15.53,-85.67 18.66,-85.2 21.79,-84.67 24.95,-84.06 28.23,-83.39 31.72,-82.62 35.53,-81.76 39.65,-80.78 44.03,-79.69 48.54,-78.51 53.07,-77.25 57.65,-75.94 62.39,-74.62 67.46,-73.3 72.87,-71.96 78.42,-70.61 83.82,-69.19 88.95,-67.65 94.06,-65.95 99.49,-64.1 105.93,-62.27" fill="none" stroke="rgb(0, 0, 0)" stroke-width="2" stroke-linejoin="round" filter="url(#fuzzy)" /><polyline points="-14.6,-85.45 -11.5,-86 -9.75,-86.28 -8.01,-86.48 -5.88,-86.63 -3.31,-86.74 -0.4,-86.79 2.7,-86.77 5.9,-86.67 9.15,-86.49 12.42,-86.23 15.7,-85.9 18.99,-85.5 22.3,-85.02 25.68,-84.47 29.2,-83.85 32.95,-83.14 37.03,-82.34 41.51,-81.45 46.42,-80.46 51.69,-79.36 57.16,-78.17 62.61,-76.89 67.82,-75.55 72.64,-74.19 77.03,-72.83 81.04,-71.49 84.81,-70.15 88.6,-68.73 92.8,-67.14 97.83,-65.23 105.15,-62.77" fill="none" stroke="rgb(0, 0, 0)" stroke-width="2" stroke-linejoin="round" filter="url(#fuzzy)" /><polyline points="-18.42,-84.66 -15.79,-85.22 -13.36,-85.68 -11.06,-86.06 -8.82,-86.36 -6.52,-86.58 -4.14,-86.73 -1.7,-86.81 0.75,-86.81 3.19,-86.74 5.63,-86.58 8.13,-86.34 10.76,-86.03 13.57,-85.63 16.6,-85.17 19.81,-84.63 23.16,-84.03 26.59,-83.34 30.07,-82.57 33.61,-81.69 37.27,-80.71 41.09,-79.62 45.08,-78.45 49.18,-77.2 53.28,-75.9 57.24,-74.58 60.96,-73.24 64.46,-71.88 67.85,-70.49 71.37,-69.03 75.25,-67.47 79.66,-65.8 84.54,-64.03 89.41,-62.2 93.66,-60.27 98.04,-57.99" fill="none" stroke="rgb(0, 0, 0)" stroke-width="2" stroke-linejoin="round" filter="url(#fuzzy)" /><polyline points="-18.42,-84.66 -15.66,-85.22 -13.18,-85.67 -10.8,-86.05 -8.5,-86.35 -6.24,-86.58 -4,-86.74 -1.79,-86.82 0.37,-86.84 2.45,-86.77 4.45,-86.63 6.38,-86.41 8.27,-86.11 10.14,-85.74 12,-85.29 13.88,-84.78 15.76,-84.2 17.63,-83.57 19.45,-82.85 21.2,-82.04 22.87,-81.1 24.48,-80.03 26.02,-78.83 27.46,-77.53 28.7,-76.19 29.73,-74.85 30.59,-73.58 31.02,-72.71" fill="none" stroke="rgb(0, 0, 0)" stroke-width="2" stroke-linejoin="round" filter="url(#fuzzy)" /><polyline points="-17.87,-84.66 -15.91,-85.1 -13.84,-85.53 -11.81,-85.9 -9.83,-86.19 -7.78,-86.41 -5.59,-86.58 -3.26,-86.69 -0.84,-86.75 1.61,-86.73 4.02,-86.63 6.38,-86.46 8.68,-86.22 10.93,-85.9 13.15,-85.5 15.36,-85.03 17.58,-84.49 19.82,-83.87 22.09,-83.17 24.36,-82.38 26.65,-81.5 28.95,-80.51 31.27,-79.42 33.59,-78.23 35.9,-76.95 38.17,-75.61 40.37,-74.24 42.46,-72.88 44.41,-71.56 46.24,-70.25 48.08,-68.9 50.07,-67.41 52.29,-65.78" fill="none" stroke="rgb(0, 0, 0)" stroke-width="2" stroke-linejoin="round" filter="url(#fuzzy)" /><polyline points="-17.87,-84.66 -15.06,-85.1 -12.29,-85.53 -10.07,-85.9 -8.15,-86.19 -6.29,-86.41 -4.35,-86.58 -2.32,-86.69 -0.25,-86.74 1.83,-86.71 3.88,-86.61 5.87,-86.43 7.76,-86.18 9.53,-85.85 11.16,-85.44 12.66,-84.96 14.03,-84.4 15.27,-83.76 16.41,-83.04 17.43,-82.23 18.34,-81.32 19.17,-80.32 19.96,-79.21 20.76,-78.02 21.59,-76.75 22.45,-75.43 23.3,-74.08 24.08,-72.71 24.74,-71.31 25.27,-69.89 25.64,-68.4 25.83,-66.82 25.72,-65.15 25.21,-63.37 24.35,-61.48 23.42,-59.42 22.53,-57.2 20.32,-55.48" fill="none" stroke="rgb(0, 0, 0)" stroke-width="2" stroke-linejoin="round" filter="url(#fuzzy)" /><polyline points="-17.87,-84.66 -16.06,-85.1 -14.1,-85.52 -12.22,-85.89 -10.39,-86.18 -8.42,-86.41 -6.19,-86.58 -3.68,-86.71 -1.01,-86.78 1.75,-86.78 4.52,-86.71 7.31,-86.57 10.11,-86.35 12.92,-86.06 15.69,-85.7 18.41,-85.27 21.11,-84.78 23.92,-84.2 26.98,-83.54 30.27,-82.84 33.54,-82.13 36.59,-81.41 40.05,-80.6" fill="none" stroke="rgb(0, 0, 0)" stroke-width="2" stroke-linejoin="round" filter="url(#fuzzy)" /><polyline points="73.93,-18.56 74.68,-14.43 75.29,-11.05 75.82,-8.26 76.18,-5.75 76.32,-3.32 76.3,-0.9 76.19,1.56 76.04,4.08 75.87,6.67 75.7,9.32 75.52,12.03 75.33,14.76 75.11,17.48 74.85,20.18 74.52,22.83 74.1,25.42 73.59,27.96 72.98,30.46 72.25,32.93 71.42,35.37 70.49,37.79 69.46,40.18 68.34,42.57 67.11,44.94 65.8,47.31 64.41,49.65 62.99,51.95 61.58,54.17 60.21,56.28 58.92,58.27 57.66,60.15 56.36,61.93 54.96,63.64 53.41,65.3 51.72,66.94 49.9,68.68 47.76,70.71" fill="none" stroke="rgb(0, 0, 0)" stroke-width="2" stroke-linejoin="round" filter="url(#fuzzy)" /><polyline points="-27.88,-80.87 -27.57,-82.05 -25.21,-82.88 -22.63,-83.59 -20.23,-84.24 -18.08,-84.81 -16.12,-85.31 -14.23,-85.72 -12.29,-86.05 -10.14,-86.31 -7.69,-86.51 -4.92,-86.66 -1.86,-86.74 1.39,-86.76 4.74,-86.71 8.12,-86.58 11.52,-86.38 14.93,-86.11 18.45,-85.77 22.19,-85.36 26.3,-84.88 30.8,-84.31 35.57,-83.63 40.52,-82.87 45.57,-82.18" fill="none" stroke="rgb(0, 0, 0)" stroke-width="2" stroke-linejoin="round" filter="url(#fuzzy)" /><polyline points="-32.83,-78.69 -31.01,-79.74 -29.52,-80.63 -28.28,-81.43 -26.78,-82.2 -24.86,-82.94 -22.69,-83.64 -20.43,-84.29 -18.14,-84.86 -15.79,-85.36 -13.35,-85.78 -10.79,-86.13 -8.11,-86.39 -5.35,-86.58 -2.55,-86.69 0.26,-86.72 3.03,-86.68 5.78,-86.56 8.51,-86.36 11.26,-86.08 14.07,-85.72 16.97,-85.29 19.97,-84.79 23.04,-84.22 26.13,-83.59 29.21,-82.87 32.29,-82.06 35.44,-81.13 38.76,-80.06 42.32,-78.87 46.09,-77.57 49.97,-76.22 53.81,-74.87 57.32,-73.59 59.48,-72.71" fill="none" stroke="rgb(0, 0, 0)" stroke-width="2" stroke-linejoin="round" filter="url(#fuzzy)" /><polyline points="-32.83,-78.69 -30.69,-79.73 -28.46,-80.61 -26.24,-81.4 -24.05,-82.16 -21.9,-82.89 -19.72,-83.6 -17.48,-84.25 -15.18,-84.84 -12.86,-85.35 -10.56,-85.79 -8.31,-86.15 -6.16,-86.43 -4.11,-86.64 -2.19,-86.78 -0.41,-86.85 1.24,-86.85 2.77,-86.78 4.2,-86.62 5.52,-86.38 6.75,-86.06 7.85,-85.69 8.82,-85.24 9.72,-84.6" fill="none" stroke="rgb(0, 0, 0)" stroke-width="2" stroke-linejoin="round" filter="url(#fuzzy)" /><polyline points="-35.01,-77.51 -32.87,-78.87 -30.63,-79.95 -28.48,-80.94 -26.32,-81.86 -24.11,-82.69 -21.87,-83.44 -19.63,-84.11 -17.39,-84.7 -15.15,-85.2 -12.91,-85.62 -10.67,-85.97 -8.41,-86.24 -6.07,-86.45 -3.65,-86.59 -1.14,-86.67 1.46,-86.68 4.11,-86.62 6.76,-86.48 9.39,-86.27 11.96,-85.98 14.49,-85.62 17,-85.19 19.56,-84.68 22.2,-84.1 24.93,-83.44 27.7,-82.71 30.46,-81.91 33.22,-80.99 36.12,-79.93 39.26,-78.71 42.36,-77.48 44.13,-76.83" fill="none" stroke="rgb(0, 0, 0)" stroke-width="2" stroke-linejoin="round" filter="url(#fuzzy)" /><polyline points="-35.01,-77.51 -32.26,-78.87 -30.45,-79.96 -28.66,-80.95 -26.65,-81.86 -24.43,-82.7 -22.07,-83.45 -19.66,-84.11 -17.27,-84.7 -14.95,-85.2 -12.7,-85.62 -10.48,-85.97 -8.23,-86.24 -5.88,-86.44 -3.4,-86.58 -0.79,-86.65 1.91,-86.66 4.65,-86.59 7.38,-86.45 10.06,-86.23 12.7,-85.94 15.33,-85.57 17.97,-85.13 20.7,-84.62 23.52,-84.03 26.46,-83.36 29.52,-82.61 32.7,-81.77 36.02,-80.83 39.48,-79.77 43.04,-78.58 46.65,-77.28 50.32,-75.88 54.34,-74.27 59.26,-72.33" fill="none" stroke="rgb(0, 0, 0)" stroke-width="2" stroke-linejoin="round" filter="url(#fuzzy)" /><polyline points="-35,-77.31 -33.83,-77.94 -31.36,-78.92 -28.11,-79.93 -24.62,-80.9 -21.48,-81.81 -18.91,-82.65 -16.86,-83.4 -15.1,-84.07 -13.44,-84.66 -11.77,-85.17 -10.06,-85.59 -8.33,-85.94 -6.59,-86.22 -4.85,-86.42 -3.11,-86.56 -1.39,-86.63 0.32,-86.64 2,-86.57 3.62,-86.43 5.15,-86.21 6.56,-85.92 7.81,-85.55 8.86,-85.11 9.7,-84.59 10.33,-83.99 10.79,-83.32 11.13,-82.57 11.41,-81.72 11.67,-80.77 11.91,-79.7 12.04,-78.51 11.93,-77.21 11.35,-75.81 10.15,-74.32 8.53,-72.81 7.93,-71.72" fill="none" stroke="rgb(0, 0, 0)" stroke-width="2" stroke-linejoin="round" filter="url(#fuzzy)" /><polyline points="-36.19,-76.6 -34.61,-77.59 -32.88,-78.6 -31.03,-79.57 -29.16,-80.46 -27.29,-81.29 -25.39,-82.07 -23.41,-82.81 -21.32,-83.52 -19.12,-84.17 -16.84,-84.77 -14.52,-85.3 -12.18,-85.75 -9.84,-86.12 -7.52,-86.42 -5.2,-86.64 -2.87,-86.8 -0.55,-86.88 1.74,-86.9 4,-86.84 6.26,-86.7 8.57,-86.45 10.85,-86.1 12.59,-85.76" fill="none" stroke="rgb(0, 0, 0)" stroke-width="2" stroke-linejoin="round" filter="url(#fuzzy)" /><polyline points="-37.83,-75.2 -36.46,-76.7 -36.56,-77.81 -36.52,-78.85 -35.36,-79.86 -33.16,-80.82 -30.41,-81.73 -27.51,-82.57 -24.64,-83.33 -21.86,-84.01 -19.19,-84.62 -16.64,-85.14 -14.19,-85.58 -11.8,-85.94 -9.41,-86.23 -6.93,-86.45 -4.3,-86.61 -1.45,-86.71 1.62,-86.74 4.89,-86.71 8.27,-86.59 11.71,-86.41 15.11,-86.14 18.43,-85.81 21.7,-85.42 25.08,-84.96 28.9,-84.4 33.66,-83.68 39.78,-82.73" fill="none" stroke="rgb(0, 0, 0)" stroke-width="2" stroke-linejoin="round" filter="url(#fuzzy)" /><polyline points="-39.87,-74.08 -37.79,-75.35 -35.81,-76.6 -33.78,-77.73 -31.56,-78.79 -29.21,-79.8 -26.82,-80.77 -24.49,-81.68 -22.25,-82.52 -20.09,-83.29 -17.99,-83.98 -15.94,-84.58 -13.91,-85.11 -11.9,-85.56 -9.9,-85.92 -7.89,-86.22 -5.86,-86.45 -3.78,-86.61 -1.65,-86.72 0.48,-86.76 2.59,-86.73 4.62,-86.62 6.53,-86.44 8.31,-86.17 9.97,-85.85 11.55,-85.47 13.12,-85.03 14.69,-84.52 16.39,-83.89" fill="none" stroke="rgb(0, 0, 0)" stroke-width="2" stroke-linejoin="round" filter="url(#fuzzy)" /><polyline points="-43.92,-70.85 -41.68,-73.31 -39.94,-75.05 -37.94,-76.45 -35.85,-77.65 -33.77,-78.75 -31.73,-79.78 -29.72,-80.75 -27.72,-81.66 -25.69,-82.5 -23.62,-83.27 -21.49,-83.95 -19.28,-84.56 -17,-85.08 -14.64,-85.52 -12.2,-85.89 -9.69,-86.18 -7.09,-86.4 -4.39,-86.56 -1.61,-86.65 1.25,-86.67 4.15,-86.62 7.06,-86.5 9.97,-86.3 12.86,-86.03 15.76,-85.68 18.71,-85.26 21.76,-84.76 24.93,-84.19 28.2,-83.54 31.51,-82.83 34.8,-82.08 38.06,-81.25 41.57,-80.25 46.46,-78.86" fill="none" stroke="rgb(0, 0, 0)" stroke-width="2" stroke-linejoin="round" filter="url(#fuzzy)" /><polyline points="-43.61,-71.36 -42.87,-72.78 -41.59,-74.27 -39.37,-75.74 -36.95,-77.08 -34.78,-78.27 -33.03,-79.33 -31.71,-80.27 -30.74,-81.14 -29.96,-81.95 -29.14,-82.71 -28.02,-83.43 -26.41,-84.09 -24.2,-84.7 -21.42,-85.24 -18.23,-85.7 -14.83,-86.09 -11.34,-86.4 -7.81,-86.64 -4.18,-86.8 -0.42,-86.9 3.47,-86.93 7.48,-86.88 11.69,-86.76 16.52,-86.5 23.11,-86.01" fill="none" stroke="rgb(0, 0, 0)" stroke-width="2" stroke-linejoin="round" filter="url(#fuzzy)" /><polyline points="-43.61,-71.36 -45.98,-72.77 -44.79,-74.25 -42.49,-75.72 -40.51,-77.06 -39.29,-78.25 -38.58,-79.3 -37.87,-80.25 -36.77,-81.12 -35.08,-81.92 -32.85,-82.68 -30.27,-83.4 -27.59,-84.08 -24.93,-84.69 -22.31,-85.24 -19.64,-85.72 -16.75,-86.12 -13.52,-86.44 -9.83,-86.68 -5.68,-86.86 -1.28,-86.97 2.98,-87.01 7.05,-87.01" fill="none" stroke="rgb(0, 0, 0)" stroke-width="2" stroke-linejoin="round" filter="url(#fuzzy)" /><polyline points="73.77,-18.89 77.79,-17.24 79.19,-14.33 81.68,-11.34 85.3,-8.6 88.7,-6.07 91.13,-3.66 92.92,-1.27 94.81,1.14 97.12,3.6 99.64,6.12 101.99,8.7 104.06,11.36 106.08,14.08 108.3,16.82 110.64,19.56 112.69,22.21 113.99,24.76 114.48,27.22 114.66,29.62 115.21,32.04 116.31,34.52 117.13,37.11 117.22,39.62" fill="none" stroke="rgb(0, 0, 0)" stroke-width="2" stroke-linejoin="round" filter="url(#fuzzy)" /><polyline points="-44.12,-71.01 -41.78,-71.84 -38.99,-73.4 -36.86,-74.94 -34.98,-76.32 -32.99,-77.55 -30.8,-78.67 -28.44,-79.71 -25.98,-80.69 -23.5,-81.61 -21.06,-82.45 -18.71,-83.22 -16.49,-83.92 -14.4,-84.53 -12.44,-85.06 -10.57,-85.51 -8.76,-85.88 -6.97,-86.18 -5.18,-86.41 -3.37,-86.58 -1.56,-86.68 0.24,-86.71 2.01,-86.68 3.71,-86.56 5.31,-86.38 6.79,-86.11 8.15,-85.78 9.38,-85.38 10.48,-84.9 11.5,-84.33 12.45,-83.65 13.26,-82.88 13.52,-82.18" fill="none" stroke="rgb(0, 0, 0)" stroke-width="2" stroke-linejoin="round" filter="url(#fuzzy)" /><polyline points="-50.05,-65.14 -48.39,-66.63 -46.34,-68.11 -43.76,-69.63 -40.89,-71.15 -37.97,-72.64 -35.18,-74.1 -32.64,-75.5 -30.36,-76.81 -28.29,-78.02 -26.31,-79.11 -24.35,-80.11 -22.36,-81.02 -20.33,-81.86 -18.3,-82.64 -16.3,-83.36 -14.36,-84.02 -12.51,-84.63 -10.72,-85.16 -8.99,-85.62 -7.3,-86 -5.62,-86.31 -3.94,-86.54 -2.29,-86.7 -0.68,-86.78 0.86,-86.78 2.3,-86.7 3.65,-86.55 4.91,-86.31 6.09,-85.99 7.15,-85.59 8.06,-85.1 8.83,-84.52 9.52,-83.83 10.46,-83.09" fill="none" stroke="rgb(0, 0, 0)" stroke-width="2" stroke-linejoin="round" filter="url(#fuzzy)" /><polyline points="-52.48,-62.67 -56.13,-64.9 -55.61,-66.74 -53.27,-68.43 -50.97,-70.04 -49.41,-71.6 -48.52,-73.13 -47.93,-74.59 -47.33,-75.96 -46.51,-77.23 -45.39,-78.39 -43.91,-79.48 -42.05,-80.48 -39.81,-81.42 -37.22,-82.29 -34.36,-83.09 -31.3,-83.81 -28.13,-84.45 -24.89,-85.02 -21.64,-85.5 -18.38,-85.9 -15.08,-86.22 -11.65,-86.47 -7.94,-86.66 -3.8,-86.81 0.78,-86.89 5.59,-86.91 10.42,-86.87 16.28,-86.76" fill="none" stroke="rgb(0, 0, 0)" stroke-width="2" stroke-linejoin="round" filter="url(#fuzzy)" /><polyline points="-60.67,-52.23 -59.77,-54.29 -58.8,-56.35 -58.42,-58.48 -59.19,-60.56 -60.63,-62.51 -61.81,-64.34 -62.04,-66.07 -61.15,-67.71 -59.39,-69.3 -57.26,-70.84 -55.2,-72.35 -53.41,-73.8 -51.85,-75.19 -50.32,-76.5 -48.61,-77.72 -46.58,-78.85 -44.21,-79.89 -41.53,-80.83 -38.64,-81.7 -35.63,-82.5 -32.58,-83.25 -29.52,-83.93 -26.47,-84.55 -23.4,-85.1 -20.24,-85.58 -16.9,-85.98 -13.33,-86.31 -9.48,-86.56 -5.37,-86.73 -1.08,-86.83 3.31,-86.85 7.76,-86.8 12.24,-86.66 16.77,-86.42 21.21,-86.11 25.24,-85.77 29.12,-85.47" fill="none" stroke="rgb(0, 0, 0)" stroke-width="2" stroke-linejoin="round" filter="url(#fuzzy)" /><polyline points="-61.72,-50.2 -61.93,-51.51 -63.21,-53.02 -66.46,-54.89 -70.77,-56.9 -73.79,-58.89 -74.08,-60.81 -71.88,-62.65 -68.44,-64.44 -64.95,-66.19 -62.04,-67.88 -59.73,-69.53 -57.82,-71.13 -56.11,-72.67 -54.58,-74.15 -53.24,-75.55 -52.03,-76.86 -50.78,-78.08 -49.31,-79.2 -47.53,-80.25 -45.5,-81.23 -43.34,-82.14 -41.04,-82.98 -38.38,-83.75 -35.02,-84.44 -30.85,-85.06 -26.29,-85.6 -22.45,-86.08 -21.73,-86.41" fill="none" stroke="rgb(0, 0, 0)" stroke-width="2" stroke-linejoin="round" filter="url(#fuzzy)" /><polyline points="-63.96,-46.67 -65.27,-43.83 -65.72,-41.36 -65.73,-38.94 -65.96,-36.48 -66.6,-33.97 -67.41,-31.43 -68.1,-28.91 -68.57,-26.42 -68.86,-23.95 -69.09,-21.5 -69.28,-19.04 -69.42,-16.56 -69.44,-14.03 -69.3,-11.42 -68.99,-8.75 -68.49,-6.05 -67.76,-3.36 -66.81,-0.7 -65.7,1.94 -64.63,4.63 -63.73,7.44 -63,10.34 -62.55,13.38" fill="none" stroke="rgb(0, 0, 0)" stroke-width="2" stroke-linejoin="round" filter="url(#fuzzy)" /><polyline points="-65.54,-43.78 -66.2,-42.26 -67.25,-40 -68.34,-37.47 -69.37,-34.88 -70.32,-32.28 -71.2,-29.7 -72.01,-27.12 -72.77,-24.56 -73.46,-22.02 -74.08,-19.49 -74.61,-16.94 -75.06,-14.39 -75.44,-11.85 -75.74,-9.31 -75.98,-6.77 -76.15,-4.24 -76.25,-1.68 -76.28,0.92 -76.24,3.6 -76.11,6.36 -75.9,9.18 -75.61,12.06 -75.25,14.93 -74.84,17.75 -74.37,20.48 -73.86,23.09 -73.31,25.61 -72.71,28.06 -72.07,30.5 -71.35,32.99 -70.53,35.54 -69.57,38.06 -68.57,40.24" fill="none" stroke="rgb(0, 0, 0)" stroke-width="2" stroke-linejoin="round" filter="url(#fuzzy)" /><polyline points="-65.77,-42.92 -67.43,-40.18 -69.31,-37.47 -71.58,-34.82 -74.94,-32.22 -80.05,-29.64 -86.73,-27.07 -93.72,-24.51 -99.44,-21.98 -102.77,-19.45 -103.57,-16.92 -102.55,-14.37 -100.88,-11.82 -99.74,-9.29 -100.06,-6.77 -102.34,-4.24 -106.65,-1.7 -112.57,0.9 -119.32,3.56 -125.88,6.32 -131.35,9.15 -135.2,12.03 -137.38,14.92 -138.25,17.75 -138.29,20.47 -138,23.08 -137.91,25.57 -138.61,27.99 -140.55,30.42 -143.49,32.91 -146.18,35.53 -143.73,38.51" fill="none" stroke="rgb(0, 0, 0)" stroke-width="2" stroke-linejoin="round" filter="url(#fuzzy)" /><polyline points="-67.59,-39.55 -67.8,-36.24 -68.28,-33.59 -68.57,-30.95 -68.86,-28.37 -69.09,-25.84 -69.03,-23.34 -68.63,-20.84 -68.09,-18.33 -67.65,-15.77 -67.4,-13.16 -67.23,-10.5 -66.88,-7.79 -66.14,-5.07 -64.93,-2.35 -63.35,0.38 -61.59,3.1 -59.85,5.8 -58.22,8.5 -56.7,11.18 -55.22,13.83 -53.73,16.46 -52.24,19.06 -50.82,21.62 -49.55,24.17 -48.51,26.69 -47.7,29.2 -47.08,31.7 -46.55,34.2 -45.93,36.7 -45.05,39.2 -43.74,41.68 -41.92,44.12 -39.73,46.5 -37.42,48.8 -35.23,50.95 -33.14,52.94 -30.7,54.96 -27.45,57.79" fill="none" stroke="rgb(0, 0, 0)" stroke-width="2" stroke-linejoin="round" filter="url(#fuzzy)" /><polyline points="-68.53,-37.7 -68.1,-34.56 -64.81,-32.03 -60.36,-29.5 -57.29,-26.92 -56.11,-24.37 -56.24,-21.85 -57.07,-19.35 -58.15,-16.83 -59.16,-14.29 -59.83,-11.74 -60.01,-9.21 -59.73,-6.7 -59.03,-4.2 -57.96,-1.68 -56.46,0.9 -54.36,3.56 -51.46,6.3 -47.68,9.14 -43.16,12.03 -38.31,14.93 -33.65,17.77 -29.56,20.49 -26.12,23.08 -23.25,25.54 -20.92,27.92 -18.81,30.3 -15.78,32.75 -11.55,34.84" fill="none" stroke="rgb(0, 0, 0)" stroke-width="2" stroke-linejoin="round" filter="url(#fuzzy)" /><polyline points="-69.3,-34.9 -70.03,-33.46 -71.56,-30.9 -73.52,-28.31 -75.37,-25.8 -76.72,-23.33 -77.52,-20.85 -77.97,-18.36 -78.3,-15.83 -78.64,-13.23 -79.03,-10.58 -79.42,-7.88 -79.72,-5.17 -79.9,-2.45 -79.97,0.26 -79.98,2.97 -80.05,5.67 -80.24,8.36 -80.54,11.03 -80.9,13.68 -81.2,16.3 -81.34,18.88 -81.27,21.44 -81.02,23.97 -80.69,26.47 -80.39,28.95 -80.17,31.42 -80.01,33.91 -79.83,36.43 -79.51,38.97 -78.96,41.47 -78.23,43.81 -77.85,45.9" fill="none" stroke="rgb(0, 0, 0)" stroke-width="2" stroke-linejoin="round" filter="url(#fuzzy)" /><polyline points="-69.88,-33.54 -72.47,-31.85 -74.42,-29.48 -74.99,-26.9 -75.16,-24.33 -75.51,-21.85 -76.12,-19.39 -76.91,-16.89 -77.82,-14.36 -78.86,-11.82 -80.1,-9.31 -81.52,-6.83 -83.06,-4.37 -84.54,-1.89 -85.81,0.63 -86.76,3.23 -87.37,5.95 -87.74,8.79 -88.08,11.74 -88.6,14.74 -89.38,17.64 -90.28,20.34 -91.05,22.94 -90.37,26.2" fill="none" stroke="rgb(0, 0, 0)" stroke-width="2" stroke-linejoin="round" filter="url(#fuzzy)" /><polyline points="-70.52,-32.4 -77.82,-29.58 -80.18,-26.79 -82.64,-24.15 -85.53,-21.66 -88.05,-19.21 -89.39,-16.71 -89.37,-14.16 -88.49,-11.6 -87.63,-9.08 -87.58,-6.58 -88.71,-4.1 -90.91,-1.59 -93.7,0.98 -96.49,3.63 -98.8,6.37 -100.51,9.21 -101.85,12.1 -103.32,15 -105.39,17.83 -108.22,20.54 -111.56,23.12 -114.85,25.57 -117.59,27.94 -119.63,30.31 -121.33,32.76 -124.61,34.84" fill="none" stroke="rgb(0, 0, 0)" stroke-width="2" stroke-linejoin="round" filter="url(#fuzzy)" /><polyline points="-72.12,-27.45 -72.42,-25.55 -72.16,-23.18 -71.49,-20.68 -70.92,-18.2 -70.54,-15.7 -70.14,-13.12 -69.44,-10.46 -68.28,-7.75 -66.66,-5.02 -64.66,-2.3 -62.41,0.39 -60.03,3.08 -57.64,5.77 -55.33,8.45 -53.11,11.11 -50.92,13.75 -48.64,16.36 -46.23,18.93 -43.72,21.47 -41.27,23.99 -39.07,26.48 -37.12,28.94 -35.27,31.39 -33.18,33.86 -30.7,36.39 -28.01,38.97 -24.93,41.52 -19.21,43.89" fill="none" stroke="rgb(0, 0, 0)" stroke-width="2" stroke-linejoin="round" filter="url(#fuzzy)" /><polyline points="71.73,-28.55 72.65,-24.61 73.27,-21.82 73.94,-19.37 74.76,-16.85 75.58,-14.18 76.22,-11.46 76.6,-8.79 76.72,-6.2 76.68,-3.68 76.56,-1.18 76.43,1.32 76.31,3.85 76.21,6.43 76.15,9.07 76.1,11.75 76.07,14.47 76.04,17.18 75.95,19.88 75.77,22.53 75.45,25.13 74.96,27.68 74.29,30.19 73.45,32.66 72.5,35.11 71.49,37.53 70.46,39.93 69.43,42.31 68.37,44.68 67.26,47.07 66.07,49.45 64.8,51.82 63.46,54.1 62.08,56.25 60.67,58.23 59.27,60.06 57.97,61.73 56.92,63.18" fill="none" stroke="rgb(0, 0, 0)" stroke-width="2" stroke-linejoin="round" filter="url(#fuzzy)" /><polyline points="71.94,-27.82 73.13,-25.81 75.87,-23.56 78.67,-21.03 80.18,-18.32 80.54,-15.54 80.62,-12.77 81.25,-10.06 82.89,-7.43 85.49,-4.88 88.64,-2.37 91.77,0.13 94.45,2.65 96.49,5.21 97.97,7.78 99.05,10.36 99.83,12.93 100.28,15.48 100.3,18.03 99.84,20.58 98.96,23.16 97.87,25.76 96.81,28.38 96,30.97 95.57,33.51 95.58,35.96 95.99,38.34 96.61,40.68 97.09,43.05 97.09,45.48 96.47,47.97 95.33,50.37 94.88,52.23" fill="none" stroke="rgb(0, 0, 0)" stroke-width="2" stroke-linejoin="round" filter="url(#fuzzy)" /><polyline points="71.65,-27.82 75.18,-26.82 82.46,-24.46 91.04,-22 98.19,-19.56 102.21,-17.04 102.8,-14.42 100.75,-11.74 97.57,-9.1 94.76,-6.53 93.4,-4.03 93.88,-1.58 96,0.86 99.3,3.34 103.24,5.87 107.37,8.46 111.36,11.12 115.03,13.84 118.44,16.59 121.77,19.35 125.14,22.03 128.33,24.6 130.88,27.06 132.72,29.45 134.78,31.87 138.12,34.35 140.75,37.37" fill="none" stroke="rgb(0, 0, 0)" stroke-width="2" stroke-linejoin="round" filter="url(#fuzzy)" /><polyline points="70.01,-33.22 71.72,-31.26 73.93,-28.76 76.48,-26.28 79.8,-23.8 84.04,-21.24 88.99,-18.59 94.03,-15.87 98.36,-13.15 101.43,-10.46 103.22,-7.84 104.22,-5.29 105.22,-2.81 106.92,-0.35 109.66,2.14 113.3,4.68 117.33,7.25 121.11,9.83 124.09,12.39 125.97,14.91 126.87,17.38 127.32,19.81 128.01,22.23 129.11,24.78 130.15,27.76 132.2,31.7" fill="none" stroke="rgb(0, 0, 0)" stroke-width="2" stroke-linejoin="round" filter="url(#fuzzy)" /><polyline points="69.56,-34.05 74.8,-32.9 79.86,-30.98 84.29,-28.68 89.34,-26.25 94.54,-23.75 98.91,-21.16 101.71,-18.5 102.64,-15.78 101.86,-13.05 99.95,-10.36 97.75,-7.73 96.05,-5.16 95.33,-2.63 95.68,-0.11 96.93,2.41 98.84,4.97 101.25,7.54 104.15,10.11 107.53,12.68 111.21,15.23 114.79,17.77 117.69,20.32 119.45,22.89 119.99,25.51 119.79,28.16 119.74,30.8 120.61,33.36 122.59,35.8 125.19,38.12 127.87,40.39 130.18,42.59 129.29,44.41" fill="none" stroke="rgb(0, 0, 0)" stroke-width="2" stroke-linejoin="round" filter="url(#fuzzy)" /><polyline points="68.1,-37.95 69.57,-34.56 70.87,-31.8 71.89,-29.36 72.69,-27.01 73.36,-24.66 73.99,-22.27 74.65,-19.83 75.35,-17.31 76.09,-14.72 76.84,-12.09 77.58,-9.47 78.27,-6.9 78.85,-4.4 79.32,-1.94 79.68,0.5 79.99,2.95 80.29,5.45 80.62,8.01 80.97,10.65 81.29,13.37 81.46,16.2 81.38,19.1 81.09,21.95 80.68,24.47 80.61,26.4" fill="none" stroke="rgb(0, 0, 0)" stroke-width="2" stroke-linejoin="round" filter="url(#fuzzy)" /><polyline points="66.15,-42.21 76.41,-40.14 84.18,-37.55 85.97,-34.82 85.89,-32.18 86.71,-29.67 89.61,-27.25 94.56,-24.86 100.68,-22.46 106.6,-20.01 111.18,-17.5 113.93,-14.92 115.21,-12.3 115.91,-9.68 117,-7.11 119.12,-4.6 122.28,-2.15 125.9,0.28 129.17,2.72 131.65,5.21 133.79,7.75 136.83,10.36 141.55,13.04 146.96,15.89 151.22,19.04 157.86,22.26" fill="none" stroke="rgb(0, 0, 0)" stroke-width="2" stroke-linejoin="round" filter="url(#fuzzy)" /><polyline points="65.1,-44.04 67.18,-41.8 70.72,-39.04 74.38,-36.29 76.85,-33.71 78.01,-31.25 78.54,-28.82 79.14,-26.36 80.18,-23.84 81.71,-21.25 83.66,-18.6 85.96,-15.91 88.69,-13.21 91.96,-10.53 95.82,-7.89 100.17,-5.3 104.64,-2.74 108.73,-0.2 111.94,2.34 114.01,4.9 115.02,7.47 115.4,10.05 115.68,12.63 116.29,15.19 117.3,17.75 118.48,20.31 119.41,22.9 119.77,25.51 119.48,28.15 118.86,30.78 118.4,33.34 118.64,35.8 119.76,38.16 121.36,40.46 122.45,42.77 122.24,45.19 121.32,48.15" fill="none" stroke="rgb(0, 0, 0)" stroke-width="2" stroke-linejoin="round" filter="url(#fuzzy)" /><polyline points="64.71,-45.17 66.04,-42.6 67.37,-40.12 68.89,-37.49 70.61,-34.8 72.49,-32.16 74.49,-29.62 76.47,-27.15 78.29,-24.7 79.78,-22.23 80.87,-19.73 81.56,-17.18 81.96,-14.58 82.29,-11.97 82.78,-9.35 83.65,-6.77 84.99,-4.22 86.74,-1.69 88.74,0.83 90.73,3.37 92.44,5.95 93.65,8.57 94.26,11.24 94.28,13.95 93.88,16.68 93.25,19.39 92.61,22.07 92.07,24.68 91.67,27.23 91.35,29.74 91.05,32.22 90.76,34.69 90.55,37.14 90.49,39.52 90.62,41.81 90.63,44.03 89.77,46.31 88.14,48.8" fill="none" stroke="rgb(0, 0, 0)" stroke-width="2" stroke-linejoin="round" filter="url(#fuzzy)" /><polyline points="63.18,-47.79 63.93,-46.45 64.8,-44.64 65.72,-42.48 66.63,-40.09 67.44,-37.54 68.09,-34.94 68.58,-32.35 68.95,-29.82 69.3,-27.33 69.69,-24.86 70.13,-22.39 70.61,-19.88 71.06,-17.33 71.43,-14.74 71.7,-12.14 71.86,-9.53 71.92,-6.95 71.89,-4.4 71.78,-1.87 71.58,0.64 71.31,3.17 70.97,5.74 70.58,8.36 70.14,11.03 69.65,13.75 69.07,16.49 68.36,19.23 67.51,21.92 66.52,24.53 65.45,27.06 64.34,29.54 63.2,32.02 62.04,34.54 60.85,37.1 59.66,39.67 58.58,42.14" fill="none" stroke="rgb(0, 0, 0)" stroke-width="2" stroke-linejoin="round" filter="url(#fuzzy)" /><polyline points="60.52,-52.17 63.68,-48.98 67.86,-46.78 71.54,-44.7 74.43,-42.5 76.79,-40.13 78.91,-37.62 81.01,-35.05 83.26,-32.48 85.73,-29.96 88.41,-27.47 91.09,-25 93.57,-22.54 95.71,-20.04 97.62,-17.5 99.61,-14.92 101.98,-12.31 104.85,-9.71 108.03,-7.13 111.15,-4.58 113.82,-2.08 115.85,0.42 117.32,2.92 118.5,5.46 119.72,8.06 121.22,10.72 123.06,13.46 125.19,16.25 127.33,19.07 129.11,21.81 130.33,24.4 131.3,26.83 132.67,29.33 133.52,32.56" fill="none" stroke="rgb(0, 0, 0)" stroke-width="2" stroke-linejoin="round" filter="url(#fuzzy)" /><polyline points="59.72,-53.22 65.47,-51.34 67.33,-49.06 68.48,-46.89 69.55,-44.76 70.71,-42.52 72.12,-40.15 73.95,-37.67 76.16,-35.12 78.51,-32.57 80.7,-30.04 82.57,-27.55 84.15,-25.08 85.61,-22.61 87.17,-20.12 88.94,-17.58 90.95,-15 93.14,-12.39 95.38,-9.78 97.56,-7.2 99.61,-4.66 101.57,-2.15 103.57,0.33 105.83,2.83 108.46,5.36 111.35,7.96 114.05,10.62 116.01,13.36 116.96,16.18 117.2,19.03 117.59,21.81 118.9,24.36 121.25,26.55 124.94,28.55" fill="none" stroke="rgb(0, 0, 0)" stroke-width="2" stroke-linejoin="round" filter="url(#fuzzy)" /><polyline points="54.59,-60.23 64.04,-57.41 71.86,-55.37 77.1,-53.43 79.98,-51.4 81.2,-49.32 81.4,-47.21 81.2,-45.05 81.22,-42.83 82.06,-40.5 84.27,-38.07 88.34,-35.57 94.5,-33.05 102.5,-30.54 111.49,-28.07 120.21,-25.63 127.37,-23.22 132.19,-20.78 134.76,-18.29 135.95,-15.72 137.05,-13.06 139.21,-10.36 143.07,-7.72 148.84,-5.22 156.53,-2.85 165.73,-0.65 172.9,1.34" fill="none" stroke="rgb(0, 0, 0)" stroke-width="2" stroke-linejoin="round" filter="url(#fuzzy)" /><polyline points="54.26,-60.75 60.75,-58.4 71.6,-56.35 78.83,-54.28 81.82,-52.18 83.39,-50.09 85.59,-48.05 88.79,-45.99 92.29,-43.87 95.26,-41.64 97.39,-39.3 98.9,-36.88 100.37,-34.42 102.29,-31.95 104.84,-29.48 107.77,-27 110.63,-24.48 113.1,-21.91 115.19,-19.3 117.3,-16.63 120,-13.94 123.69,-11.25 128.35,-8.6 133.57,-6.01 138.78,-3.48 143.6,-0.98 147.92,1.53 151.65,4.08 154.51,6.7 156.27,9.33 157.28,11.93 158.55,14.5 160.53,17.24 165.41,20.4" fill="none" stroke="rgb(0, 0, 0)" stroke-width="2" stroke-linejoin="round" filter="url(#fuzzy)" /><polyline points="52.71,-62.77 58.04,-61.77 58.96,-59.83 59.85,-57.7 61.18,-55.61 62.83,-53.55 64.75,-51.48 66.97,-49.39 69.63,-47.26 73.06,-45.08 77.53,-42.83 83.12,-40.49 89.49,-38.07 95.97,-35.58 101.82,-33.06 106.56,-30.56 110.05,-28.07 112.53,-25.61 114.34,-23.16 115.78,-20.7 117.07,-18.18 118.38,-15.6 119.89,-12.96 121.9,-10.3 124.73,-7.68 128.58,-5.15 133.13,-2.71 137.41,-0.33 140.3,2.03 142.28,4.3 146.35,5.81" fill="none" stroke="rgb(0, 0, 0)" stroke-width="2" stroke-linejoin="round" filter="url(#fuzzy)" /><polyline points="47.65,-67.52 50.96,-65.61 55.79,-63.73 61.93,-61.83 67.87,-59.84 72.36,-57.79 75.37,-55.73 77.54,-53.66 79.44,-51.58 81.36,-49.48 83.38,-47.34 85.6,-45.15 88.24,-42.89 91.53,-40.55 95.61,-38.14 100.43,-35.66 105.73,-33.15 111.05,-30.64 115.82,-28.15 119.49,-25.68 121.8,-23.23 122.95,-20.75 123.62,-18.23 124.69,-15.65 126.88,-13.01 130.46,-10.34 135.28,-7.72 141.04,-5.18 147.44,-2.73 153.97,-0.35 159.7,2.02 163.92,4.29 167.69,5.81" fill="none" stroke="rgb(0, 0, 0)" stroke-width="2" stroke-linejoin="round" filter="url(#fuzzy)" /><polyline points="44.98,-70.03 47.77,-68.17 50.49,-66.29 53.18,-64.41 56.32,-62.52 59.9,-60.6 63.46,-58.64 66.42,-56.64 68.49,-54.6 69.73,-52.55 70.5,-50.5 71.23,-48.45 72.25,-46.37 73.7,-44.25 75.6,-42.04 77.95,-39.74 80.74,-37.36 83.96,-34.92 87.51,-32.48 91.15,-30.03 94.6,-27.58 97.57,-25.1 100.02,-22.58 102.2,-19.99 104.57,-17.31 107.59,-14.55 111.3,-11.75 115.11,-8.94 117.94,-6.23 118.96,-3.9 118.68,-2.66" fill="none" stroke="rgb(0, 0, 0)" stroke-width="2" stroke-linejoin="round" filter="url(#fuzzy)" /><polyline points="44.98,-70.03 49.87,-68.18 54.1,-66.3 57.63,-64.42 60.14,-62.53 61.86,-60.61 63.35,-58.65 65.12,-56.65 67.53,-54.62 70.71,-52.57 74.58,-50.52 78.86,-48.47 83.1,-46.41 86.88,-44.29 90.01,-42.09 92.57,-39.79 94.92,-37.41 97.49,-34.98 100.57,-32.53 104.15,-30.09 107.92,-27.65 111.41,-25.18 114.33,-22.67 116.78,-20.09 119.19,-17.41 122.03,-14.65 125.28,-11.82 128.33,-8.93 130.83,-5.94 134.47,-3.05" fill="none" stroke="rgb(0, 0, 0)" stroke-width="2" stroke-linejoin="round" filter="url(#fuzzy)" /><polyline points="43.82,-70.76 46.64,-69.16 51.24,-67.47 56.52,-65.68 60.77,-63.85 63.23,-61.95 64.29,-59.98 64.83,-57.97 65.67,-55.93 67.25,-53.87 69.68,-51.81 72.82,-49.72 76.4,-47.6 80.07,-45.44 83.54,-43.22 86.6,-40.9 89.22,-38.5 91.52,-36.02 93.71,-33.5 95.93,-30.99 98.21,-28.51 100.47,-26.07 102.68,-23.67 105,-21.29 107.87,-18.89 111.83,-16.34 117.1,-13.45 122.75,-10.23 124.92,-7.35" fill="none" stroke="rgb(0, 0, 0)" stroke-width="2" stroke-linejoin="round" filter="url(#fuzzy)" /><polyline points="39.16,-74.38 42.38,-72.85 45.29,-71.68 50.15,-70.45 56.24,-69.05 62,-67.49 66.29,-65.8 68.92,-64.01 70.48,-62.15 71.91,-60.21 73.94,-58.23 76.89,-56.21 80.67,-54.17 84.96,-52.11 89.41,-50.04 93.74,-47.95 97.81,-45.82 101.63,-43.64 105.49,-41.37 109.78,-38.98 114.8,-36.47 120.38,-33.89 125.79,-31.34 130.15,-28.9 133.27,-26.5 135.88,-23.9 135.94,-21.19" fill="none" stroke="rgb(0, 0, 0)" stroke-width="2" stroke-linejoin="round" filter="url(#fuzzy)" /><polyline points="34.01,-77.69 39.1,-76.4 44.14,-75.06 48.28,-73.73 51.55,-72.4 53.64,-71.03 54.74,-69.59 55.57,-68.04 56.82,-66.38 58.87,-64.63 61.7,-62.81 65.17,-60.92 69.13,-58.99 73.5,-57.01 78.17,-55 82.9,-52.96 87.35,-50.92 91.27,-48.88 94.62,-46.82 97.73,-44.73 101.17,-42.55 105.45,-40.26 110.68,-37.88 116.49,-35.42 122.24,-32.96 127.47,-30.53 132.28,-28.13 136.99,-25.75 141.42,-23.38 144.9,-20.91 148.99,-18.03" fill="none" stroke="rgb(0, 0, 0)" stroke-width="2" stroke-linejoin="round" filter="url(#fuzzy)" /><polyline points="25.13,-82.18 27.22,-81.42 30.18,-80.31 33.2,-79.02 35.95,-77.67 38.42,-76.29 40.61,-74.91 42.57,-73.54 44.39,-72.19 46.24,-70.82 48.23,-69.4 50.46,-67.9 52.96,-66.3 55.75,-64.6 58.79,-62.8 61.98,-60.91 65.15,-58.96 68.1,-56.96 70.78,-54.97 73.33,-52.95 76.01,-50.83 78.9,-48.55 81.33,-46.67" fill="none" stroke="rgb(0, 0, 0)" stroke-width="2" stroke-linejoin="round" filter="url(#fuzzy)" /><polyline points="7.7,-86.72 11.06,-86.18 13.53,-85.73 15.55,-85.22 17.58,-84.65 19.82,-84.01 22.37,-83.32 25.3,-82.54 28.62,-81.64 32.25,-80.61 36.04,-79.47 39.76,-78.24 43.24,-76.95 46.37,-75.64 49.14,-74.31 51.57,-72.97 53.77,-71.6 55.89,-70.19 58.05,-68.71 60.39,-67.14 63.02,-65.47 65.96,-63.71 69.18,-61.87 72.57,-59.99 75.96,-58.08 79.3,-56.16 82.58,-54.26 85.31,-52.14" fill="none" stroke="rgb(0, 0, 0)" stroke-width="2" stroke-linejoin="round" filter="url(#fuzzy)" /><polyline points="7.7,-86.72 11.45,-86.18 14.03,-85.73 16.52,-85.23 19.27,-84.66 22.28,-84.03 25.46,-83.35 28.91,-82.58 32.84,-81.7 37.37,-80.68 42.41,-79.55 47.76,-78.32 53.26,-77.03 58.92,-75.72 64.8,-74.4 70.8,-73.08 76.54,-71.75 81.48,-70.37 85.41,-68.93 88.73,-67.38 92.48,-65.72 97.77,-63.96 105.2,-62.15 114.51,-60.25 123.64,-57.99" fill="none" stroke="rgb(0, 0, 0)" stroke-width="2" stroke-linejoin="round" filter="url(#fuzzy)" />
    </g>
    
        <g id="pointNose">
          <g id="rightNose"><circle r="1.94" cx="10.358" cy="12.398000000000001" stroke="black" fill="none" stroke-width="1.0" filter="url(#fuzzy)" /><circle r="2.06" cx="11.202" cy="14.526" stroke="black" fill="none" stroke-width="1.0" filter="url(#fuzzy)" /><circle r="2.342" cx="11.446000000000002" cy="14.762" stroke="black" fill="none" stroke-width="1.0" filter="url(#fuzzy)" /><circle r="2.652" cx="9.946" cy="13.822000000000001" stroke="black" fill="none" stroke-width="1.0" filter="url(#fuzzy)" /><circle r="1.056" cx="11.55" cy="14.898" stroke="black" fill="none" stroke-width="1.0" filter="url(#fuzzy)" /><circle r="1.04" cx="10.794" cy="13.702000000000002" stroke="black" fill="none" stroke-width="1.0" filter="url(#fuzzy)" /><circle r="2.326" cx="11.198" cy="12.930000000000001" stroke="black" fill="none" stroke-width="1.0" filter="url(#fuzzy)" /><circle r="2.924" cx="8.322000000000001" cy="14.178" stroke="black" fill="none" stroke-width="1.0" filter="url(#fuzzy)" /><circle r="1.464" cx="9.418000000000001" cy="11.286000000000001" stroke="black" fill="none" stroke-width="1.0" filter="url(#fuzzy)" /><circle r="2.2359999999999998" cx="11.046" cy="11.994000000000002" stroke="black" fill="none" stroke-width="1.0" filter="url(#fuzzy)" /></g>
          <g id="leftNose"><circle r="2.832" cx="-11.549999999999999" cy="20.142000000000003" stroke="black" fill="none" stroke-width="1.0" filter="url(#fuzzy)" /><circle r="1.16" cx="-10.018" cy="17.110000000000003" stroke="black" fill="none" stroke-width="1.0" filter="url(#fuzzy)" /><circle r="2.636" cx="-11.53" cy="17.434000000000005" stroke="black" fill="none" stroke-width="1.0" filter="url(#fuzzy)" /><circle r="1.588" cx="-10.538" cy="19.386000000000003" stroke="black" fill="none" stroke-width="1.0" filter="url(#fuzzy)" /><circle r="1.994" cx="-11.693999999999999" cy="16.674000000000003" stroke="black" fill="none" stroke-width="1.0" filter="url(#fuzzy)" /><circle r="2.566" cx="-10.266" cy="18.086000000000002" stroke="black" fill="none" stroke-width="1.0" filter="url(#fuzzy)" /><circle r="2.448" cx="-9.39" cy="16.938000000000002" stroke="black" fill="none" stroke-width="1.0" filter="url(#fuzzy)" /><circle r="1.3559999999999999" cx="-10.106" cy="20.206000000000003" stroke="black" fill="none" stroke-width="1.0" filter="url(#fuzzy)" /><circle r="1.012" cx="-11.17" cy="17.542" stroke="black" fill="none" stroke-width="1.0" filter="url(#fuzzy)" /><circle r="1.316" cx="-11.602" cy="20.246000000000002" stroke="black" fill="none" stroke-width="1.0" filter="url(#fuzzy)" /></g>
        </g>
      
    <g id="mouth">
      <polyline points="-46.74,37.3 -45.98,39.43 -45.21,41.49 -44.45,43.49 -43.68,45.41 -42.91,47.28 -42.14,49.07 -41.37,50.8 -40.59,52.47 -39.81,54.07 -39.03,55.61 -38.24,57.1 -37.45,58.52 -36.66,59.88 -35.87,61.18 -35.07,62.42 -34.27,63.61 -33.47,64.74 -32.66,65.82 -31.85,66.84 -31.04,67.81 -30.22,68.73 -29.4,69.59 -28.58,70.4 -27.75,71.17 -26.91,71.88 -26.08,72.55 -25.24,73.16 -24.39,73.74 -23.54,74.26 -22.68,74.74 -21.83,75.18 -20.96,75.57 -20.09,75.93 -19.22,76.24 -18.34,76.51 -17.45,76.74 -16.57,76.93 -15.67,77.08 -14.77,77.2 -13.87,77.27 -12.95,77.32 -12.04,77.33 -11.12,77.3 -10.19,77.25 -9.25,77.16 -8.31,77.04 -7.37,76.89 -6.41,76.71 -5.45,76.5 -4.49,76.26 -3.52,76 -2.54,75.71 -1.55,75.39 -0.56,75.06 0.44,74.69 1.44,74.31 2.46,73.9 3.48,73.48 4.51,73.03 5.54,72.56 6.58,72.08 7.63,71.57 8.69,71.06 9.76,70.52 10.83,69.97 11.91,69.41 13,68.83 14.1,68.24 15.21,67.64 16.32,67.03 17.44,66.41 18.57,65.78 19.71,65.15 20.86,64.5 22.02,63.85 23.18,63.2 24.36,62.53 25.54,61.87 26.74,61.2 27.94,60.53 29.15,59.86 30.37,59.19 31.61,58.52 32.85,57.86 34.1,57.19 35.36,56.53 36.63,55.87 37.91,55.21 39.2,54.57 40.5,53.92 41.81,53.29 43.13,52.66 44.46,52.05 45.81,51.44 47.16,50.85 48.52,50.26 49.9,49.69 51.28,49.13 52.68,48.59 52.68,48.59 51.69,48.65 50.69,48.72 49.7,48.79 48.7,48.87 47.71,48.95 46.72,49.03 45.72,49.11 44.73,49.2 43.73,49.29 42.74,49.38 41.75,49.47 40.75,49.57 39.76,49.66 38.76,49.76 37.77,49.85 36.77,49.95 35.78,50.05 34.79,50.15 33.79,50.25 32.8,50.35 31.8,50.44 30.81,50.54 29.81,50.64 28.82,50.73 27.83,50.82 26.83,50.92 25.84,51.01 24.84,51.09 23.85,51.18 22.86,51.26 21.86,51.34 20.87,51.42 19.87,51.49 18.88,51.56 17.88,51.63 16.89,51.69 15.9,51.75 14.9,51.8 13.91,51.85 12.91,51.89 11.92,51.93 10.92,51.96 9.93,51.99 8.94,52.01 7.94,52.03 6.95,52.04 5.95,52.04 4.96,52.03 3.97,52.02 2.97,52 1.98,51.98 0.98,51.94 -0.01,51.9 -1.01,51.85 -2,51.79 -2.99,51.73 -3.99,51.65 -4.98,51.57 -5.98,51.47 -6.97,51.37 -7.97,51.25 -8.96,51.13 -9.95,51 -10.95,50.85 -11.94,50.7 -12.94,50.53 -13.93,50.35 -14.93,50.16 -15.92,49.96 -16.91,49.75 -17.91,49.53 -18.9,49.29 -19.9,49.04 -20.89,48.78 -21.88,48.5 -22.88,48.22 -23.87,47.91 -24.87,47.6 -25.86,47.27 -26.86,46.92 -27.85,46.57 -28.84,46.19 -29.84,45.8 -30.83,45.4 -31.83,44.98 -32.82,44.55 -33.82,44.1 -34.81,43.63 -35.8,43.15 -36.8,42.65 -37.79,42.14 -38.79,41.6 -39.78,41.05 -40.77,40.49 -41.77,39.9 -42.76,39.3 -43.76,38.68 -44.75,38.04 -45.75,37.38" fill="rgb(215,127,140)" stroke="black" stroke-width="3" stroke-linejoin="round" filter="url(#fuzzy)" />
    </g>
  </svg>
  