
  <svg viewBox="-100 -100 200 200" xmlns="http://www.w3.org/2000/svg" width="500" height="500" id="face-svg">
    <defs>
      <clipPath id="leftEyeClipPath">
        <polyline points="32.5,-1.3 32.06,-1.6 31.6,-1.91 31.11,-2.22 30.59,-2.53 30.05,-2.85 29.48,-3.17 28.9,-3.49 28.29,-3.81 27.65,-4.14 27,-4.46 26.33,-4.79 25.63,-5.11 24.92,-5.44 24.2,-5.76 23.45,-6.09 22.65,-6.44 21.83,-6.8 20.98,-7.16 20.1,-7.52 19.2,-7.89 18.28,-8.25 17.34,-8.61 16.38,-8.96 15.41,-9.31 14.42,-9.66 13.42,-9.99 12.41,-10.32 11.39,-10.64 10.37,-10.94 9.34,-11.24 8.31,-11.52 7.28,-11.78 6.25,-12.03 5.22,-12.26 4.2,-12.48 3.19,-12.68 2.18,-12.86 1.19,-13.02 0.21,-13.17 -0.76,-13.29 -1.71,-13.4 -2.65,-13.48 -3.56,-13.55 -4.46,-13.6 -5.34,-13.63 -6.2,-13.64 -7.03,-13.63 -7.85,-13.6 -8.63,-13.56 -9.4,-13.5 -10.14,-13.42 -10.85,-13.33 -11.54,-13.23 -12.21,-13.11 -12.85,-12.98 -13.46,-12.83 -14.05,-12.68 -14.61,-12.52 -15.15,-12.36 -15.66,-12.18 -16.15,-12 -16.61,-11.82 -17.06,-11.63 -17.48,-11.45 -17.88,-11.26 -18.26,-11.08 -18.62,-10.89 -18.96,-10.7 -19.28,-10.51 -19.59,-10.32 -19.87,-10.14 -20.13,-9.95 -20.38,-9.76 -20.6,-9.58 -20.81,-9.41 -21.01,-9.23 -21.18,-9.06 -21.34,-8.9 -21.48,-8.74 -19.77,-6.81 -19.47,-6.57 -19.16,-6.32 -18.84,-6.06 -18.5,-5.8 -18.15,-5.52 -17.8,-5.24 -17.43,-4.95 -17.04,-4.64 -16.65,-4.33 -16.24,-4 -15.83,-3.65 -15.4,-3.29 -14.96,-2.92 -14.51,-2.53 -14.05,-2.12 -13.58,-1.7 -13.09,-1.27 -12.59,-0.81 -12.07,-0.34 -11.54,0.16 -11,0.67 -10.45,1.21 -9.88,1.78 -9.3,2.36 -8.71,2.97 -8.11,3.61 -7.49,4.26 -6.86,4.94 -6.23,5.64 -5.58,6.36 -4.91,7.09 -4.24,7.84 -3.56,8.6 -2.86,9.38 -2.16,10.16 -1.45,10.94 -0.72,11.73 0.01,12.51 0.76,13.29 1.51,14.06 2.27,14.82 3.04,15.55 3.82,16.27 4.61,16.95 5.41,17.61 6.21,18.23 7.02,18.81 7.84,19.34 8.67,19.83 9.5,20.26 10.34,20.63 11.18,20.94 12.03,21.18 12.88,21.35 13.73,21.45 14.59,21.47 15.45,21.42 16.32,21.28 17.18,21.05 18.04,20.74 18.91,20.35 19.77,19.87 20.62,19.31 21.48,18.66 22.18,18.43 22.89,18.17 23.58,17.87 24.26,17.54 24.94,17.17 25.61,16.77 26.26,16.33 26.91,15.87 27.54,15.38 28.15,14.87 28.75,14.34 29.33,13.79 29.89,13.23 30.44,12.66 30.96,12.09" />
      </clipPath>
      <clipPath id="rightEyeClipPath">
        <polyline points="-30.71,-3.78 -30.15,-4.18 -29.57,-4.58 -28.96,-4.98 -28.33,-5.39 -27.67,-5.8 -26.99,-6.22 -26.29,-6.64 -25.57,-7.06 -24.83,-7.49 -24.07,-7.91 -23.3,-8.34 -22.51,-8.77 -21.71,-9.2 -20.9,-9.64 -20.08,-10.07 -19.13,-10.53 -18.17,-11 -17.2,-11.47 -16.21,-11.95 -15.21,-12.43 -14.2,-12.91 -13.18,-13.39 -12.16,-13.87 -11.14,-14.34 -10.11,-14.81 -9.08,-15.27 -8.06,-15.71 -7.03,-16.15 -6.02,-16.57 -5.01,-16.97 -4,-17.36 -3.01,-17.73 -2.03,-18.08 -1.06,-18.4 -0.11,-18.71 0.83,-18.99 1.75,-19.25 2.66,-19.48 3.54,-19.69 4.4,-19.87 5.25,-20.02 6.07,-20.15 6.86,-20.25 7.64,-20.33 8.39,-20.38 9.11,-20.4 9.81,-20.4 10.48,-20.37 11.13,-20.32 11.75,-20.24 12.34,-20.14 12.91,-20.02 13.44,-19.88 13.95,-19.72 14.44,-19.55 14.9,-19.35 15.33,-19.15 15.73,-18.92 16.11,-18.69 16.46,-18.45 16.79,-18.2 17.09,-17.94 17.38,-17.68 17.63,-17.42 17.87,-17.15 18.09,-16.89 18.28,-16.62 18.45,-16.35 18.6,-16.07 18.73,-15.8 18.84,-15.52 18.93,-15.25 19,-14.98 19.05,-14.71 19.08,-14.44 19.09,-14.18 19.09,-13.92 19.06,-13.67 19.02,-13.42 18.17,-6.71 17.76,-6.36 17.34,-6 16.9,-5.63 16.46,-5.25 16.01,-4.86 15.55,-4.45 15.07,-4.03 14.59,-3.59 14.1,-3.14 13.6,-2.67 13.09,-2.18 12.57,-1.67 12.05,-1.14 11.52,-0.59 10.97,-0.02 10.42,0.56 9.85,1.17 9.28,1.8 8.69,2.45 8.1,3.13 7.5,3.83 6.88,4.56 6.26,5.31 5.64,6.1 5.01,6.91 4.37,7.74 3.72,8.6 3.07,9.48 2.41,10.37 1.75,11.29 1.08,12.23 0.41,13.17 -0.27,14.13 -0.95,15.09 -1.63,16.06 -2.32,17.03 -3.01,17.98 -3.7,18.93 -4.4,19.87 -5.11,20.78 -5.81,21.68 -6.52,22.54 -7.24,23.36 -7.96,24.15 -8.68,24.89 -9.4,25.58 -10.13,26.21 -10.87,26.78 -11.6,27.29 -12.35,27.72 -13.09,28.07 -13.84,28.34 -14.6,28.53 -15.36,28.62 -16.12,28.62 -16.89,28.52 -17.66,28.31 -18.43,28.01 -19.21,27.6 -19.99,27.08 -20.77,26.46 -21.56,25.73 -22.34,24.89 -23.13,23.96 -23.76,23.56 -24.38,23.12 -25,22.64 -25.62,22.11 -26.23,21.54 -26.82,20.93 -27.41,20.28 -27.99,19.6 -28.56,18.89 -29.11,18.15 -29.65,17.39 -30.17,16.61 -30.68,15.82 -31.16,15.02 -31.63,14.21" />
      </clipPath>
      <filter id="fuzzy">
        <feTurbulence id="turbulence" baseFrequency="0.05" numOctaves="3" type="noise" result="noise" />
        <feDisplacementMap in="SourceGraphic" in2="noise" scale="2" />
      </filter>
      <linearGradient id="rainbowGradient" x1="0%" y1="0%" x2="100%" y2="0%">
        <stop offset="0%" style="stop-color: rgb(0, 0, 0); stop-opacity: 1" />
        <stop offset="50%" style="stop-color: rgb(154, 205, 50); stop-opacity: 1" />
        <stop offset="100%" style="stop-color: rgb(80, 68, 68); stop-opacity: 1" />
      </linearGradient>
    </defs>
    <rect x="-100" y="-100" width="100%" height="100%" fill="rgb(255, 255, 240)" />
    <polyline id="faceContour" points="69.94,1.19 69.88,1.13 70.04,1.29 70.02,4.96 70.14,4.15 69.8,8.76 69.47,8.5 69.49,9.12 69.62,10.91 69.3,12.79 68.98,13.94 69.26,13.44 68.97,15.94 68.51,18.7 68.31,18.78 67.91,21.28 67.43,23.13 67.6,22.46 67.06,25.68 66.94,25.53 66.45,27.37 66.16,28.57 65.8,29.75 65.34,30.43 65.18,31.61 64.34,35.16 63.74,36.43 64.48,34.38 62.89,37.3 62.76,38.89 62.42,39.25 62.29,40.69 60.86,42.32 61.03,42.25 60.78,43.91 59.26,46.86 59.02,46.25 58.56,47.81 57.8,49.41 57.81,49.81 56.04,52.81 56.45,51.65 55.83,52.6 53.44,55.95 53.44,56.18 53.1,57.38 53.68,55.97 52.53,58.65 51.06,59.58 50.14,61.31 49.1,61.95 48.3,63.31 47.84,63.12 47.58,64.66 45.92,65.57 45.66,66.63 44.46,68.08 44.73,67.35 43.38,67.94 41.35,70.56 40.81,70.36 41.62,70.28 39.46,71.8 38.7,72.66 38.55,73.16 37.73,73.65 36.59,74.29 34.06,76.14 33.04,76.5 32.2,77.08 33.57,76.83 29.64,79.12 28.32,79.91 26.91,80.57 27.35,80.34 27.5,80.49 25.26,80.89 25.91,80.96 22.68,82.67 22.27,82.59 21.11,83.41 18.98,83.84 19.53,84.07 19.75,83.62 18.06,84.17 18.03,84.45 14.68,85.06 14.15,85.31 13.58,85.76 11.07,86.37 11.86,86.06 10.96,86.28 9.67,86.42 6.63,87.05 6.6,86.8 5.4,86.92 2.85,87.34 4.94,87.27 3.16,87.3 1.83,87.31 -0.63,87.49 -1.25,87.25 -2.36,87.18 -4.85,87.06 -3.25,87.08 -4.22,87.27 -4.71,87.27 -8.08,86.61 -7.96,86.95 -9.3,86.5 -10.7,86.01 -11.62,86.23 -14.85,85.5 -14.19,85.66 -15.07,85 -15.98,85.3 -16.78,84.63 -19.4,83.74 -19.33,84.21 -20.89,83.11 -20.17,83.22 -23.33,82.1 -22.86,82.47 -26.06,81.08 -27.31,80.55 -25.51,81.21 -26.37,81.02 -28.88,79.69 -30.89,78.2 -30.31,78.58 -32.49,77.51 -33.12,76.79 -35.14,75.76 -33.24,76.5 -35.79,75.34 -37.31,74.47 -37.55,73.58 -37.04,74.19 -40.5,71.27 -39.75,71.47 -39.71,71.94 -42.46,69.48 -42.32,69.55 -44.37,67.71 -44.01,67.55 -45.31,66.68 -45.99,65.32 -46.26,64.9 -48.93,62.76 -48.18,63.43 -49.86,60.88 -50.29,60.98 -51.13,59.64 -50.4,60.36 -51.97,58.15 -53.04,56.88 -53.03,56.47 -55.58,52.63 -55.7,53.36 -56.47,51.46 -57.7,49.31 -57.24,50.79 -57.84,48.89 -57.91,49.51 -59.52,46.43 -59.68,46.24 -60.08,44.53 -59.92,44.54 -61.39,42.27 -62.64,38.72 -62.45,38.9 -62.79,38.32 -63.02,37.44 -63.85,35.36 -63.58,35.98 -64.5,32.79 -65.44,31.7 -65.67,31.4 -65.7,29.94 -65.98,29.2 -66.82,26.77 -66.91,26.36 -66.9,24.85 -67.21,23.08 -67.95,21.73 -68.33,19.92 -68.28,19.49 -68.5,18.11 -68.77,16.02 -68.84,15.45 -69.2,13.68 -69.02,14 -69.39,11.62 -69.78,10.12 -69.61,8.48 -69.85,6.11 -69.95,6.35 -70.06,5.34 -69.83,3.82 -69.93,2.54 -70.13,-1.6 -69.83,-1.4 -69.89,-2.92 -69.63,-5.94 -69.74,-5.63 -69.78,-7.28 -69.75,-7.38 -69.64,-9.55 -69.28,-11.79 -69.45,-11.06 -69.19,-13.25 -69.14,-14.37 -68.71,-17.75 -68.55,-18.08 -68.43,-18.16 -68.46,-19.93 -68.04,-19.82 -67.86,-22.34 -67.49,-23.96 -66.99,-25.7 -66.37,-27.16 -65.63,-29.39 -65.69,-30.58 -65.07,-32.48 -65.41,-30.48 -65,-33.18 -64.62,-33.88 -63.16,-37.07 -62.94,-38.09 -63.39,-38.01 -62.65,-38.9 -62.01,-40.09 -61.06,-42.4 -61.06,-43.62 -60.15,-45.37 -59.69,-44.86 -59.43,-45.9 -58.38,-47.69 -58.46,-48.72 -58.04,-48.73 -56.82,-51.56 -55.9,-52.23 -55.18,-53.88 -54.06,-55.69 -53.44,-56.15 -53.23,-57.21 -53.05,-57.77 -51.89,-58.63 -50.82,-59.49 -50.84,-60.58 -49.72,-61.56 -48.98,-62.25 -47.61,-64.27 -47.02,-64.42 -46.14,-65.95 -45.74,-65.98 -45.76,-66.41 -44.02,-68.29 -42.84,-69.48 -43.31,-68.97 -40.57,-71.56 -41.18,-71.07 -39.04,-72.33 -38.74,-72.92 -37.52,-73.34 -35.36,-75.35 -34.93,-76.04 -35.48,-75.45 -32.75,-77.37 -32.65,-77.16 -31.74,-77.94 -30.73,-78.69 -29.93,-78.8 -27.87,-80.05 -29.47,-79.46 -27.02,-80.75 -26.75,-80.77 -25.39,-81.43 -24.13,-82.31 -22.05,-82.92 -21.83,-83.21 -20.66,-83.29 -20.86,-83.71 -18.04,-84.67 -17.58,-84.69 -17.65,-84.74 -16.13,-85.1 -15.46,-85.09 -13.92,-85.59 -11.22,-86.51 -10.62,-86.14 -11.2,-86.38 -9.47,-86.5 -8.07,-86.73 -5.32,-87.1 -6.4,-87.21 -4.24,-87.33 -3.82,-87.57 -3.17,-87.46 -2.38,-87.23 0.99,-87.63 0.95,-87.57 2.47,-87.31 3.62,-87.16 3.82,-87.14 6.18,-87.11 5.99,-87.29 8.81,-86.81 10.51,-86.63 9.79,-86.64 11.87,-86.12 13.31,-86.21 12.7,-86.18 15.26,-85.29 15.57,-85.32 17.79,-84.78 17.94,-84.51 19.42,-84.07 18.93,-84.38 20.25,-83.6 21.15,-83.62 23.14,-82.47 23.13,-82.61 25.88,-81.3 26,-80.73 25.14,-81.59 26.61,-80.58 28.23,-79.86 29.98,-79.39 31.04,-78.44 31.06,-78.3 31.55,-77.76 33.97,-76.6 33.66,-77 35.29,-75.13 37.91,-73.77 38.12,-72.95 38.68,-72.43 39.19,-72.18 39.78,-71.77 41.29,-70.73 40.6,-71.12 42.26,-69.28 44.71,-67.32 44.53,-67.16 45.45,-66.74 46.5,-64.99 47.94,-63.8 48.39,-63.04 48.55,-63.37 49.42,-61.75 50.45,-60.96 51.75,-58.81 52.32,-58.06 52.46,-57.89 53.13,-57.04 54.15,-55.4 53.57,-56.22 54.89,-54.48 55.75,-53.06 56.73,-51.54 56.98,-50.86 58.17,-48.27 58.47,-47.79 59.17,-47.32 60.09,-45.27 60.87,-43.97 60.44,-43.58 61.08,-43.09 62.15,-40.83 62.18,-39.98 63.44,-37.42 63.93,-36.04 63.6,-36.69 64.11,-33.97 64.95,-33.74 64.98,-32.66 65.07,-31.25 65.23,-32.33 66.02,-28.31 66.47,-26.39 66.58,-27.18 67.82,-22.57 67.54,-23.26 67.62,-22.1 68.27,-19.9 68.22,-19.77 68.42,-18.06 68.97,-15.98 68.88,-16.34 69.11,-13.64 69.03,-13.24 69.71,-9.11 69.28,-10.58 69.8,-7.88 70.01,-6.65 69.95,-5.03 70.05,-3.88 70,-2.18 70.05,-0.46 69.94,1.19 69.88,1.13" fill="rgb(107, 142, 35)" stroke="black" stroke-width="1.6666666666666665" stroke-linejoin="round" filter="url(#fuzzy)" />
    <g transform="translate(33.19 -24.08)">
      <polyline id="rightCountour" points="-30.71,-3.78 -30.15,-4.18 -29.57,-4.58 -28.96,-4.98 -28.33,-5.39 -27.67,-5.8 -26.99,-6.22 -26.29,-6.64 -25.57,-7.06 -24.83,-7.49 -24.07,-7.91 -23.3,-8.34 -22.51,-8.77 -21.71,-9.2 -20.9,-9.64 -20.08,-10.07 -19.13,-10.53 -18.17,-11 -17.2,-11.47 -16.21,-11.95 -15.21,-12.43 -14.2,-12.91 -13.18,-13.39 -12.16,-13.87 -11.14,-14.34 -10.11,-14.81 -9.08,-15.27 -8.06,-15.71 -7.03,-16.15 -6.02,-16.57 -5.01,-16.97 -4,-17.36 -3.01,-17.73 -2.03,-18.08 -1.06,-18.4 -0.11,-18.71 0.83,-18.99 1.75,-19.25 2.66,-19.48 3.54,-19.69 4.4,-19.87 5.25,-20.02 6.07,-20.15 6.86,-20.25 7.64,-20.33 8.39,-20.38 9.11,-20.4 9.81,-20.4 10.48,-20.37 11.13,-20.32 11.75,-20.24 12.34,-20.14 12.91,-20.02 13.44,-19.88 13.95,-19.72 14.44,-19.55 14.9,-19.35 15.33,-19.15 15.73,-18.92 16.11,-18.69 16.46,-18.45 16.79,-18.2 17.09,-17.94 17.38,-17.68 17.63,-17.42 17.87,-17.15 18.09,-16.89 18.28,-16.62 18.45,-16.35 18.6,-16.07 18.73,-15.8 18.84,-15.52 18.93,-15.25 19,-14.98 19.05,-14.71 19.08,-14.44 19.09,-14.18 19.09,-13.92 19.06,-13.67 19.02,-13.42 18.17,-6.71 17.76,-6.36 17.34,-6 16.9,-5.63 16.46,-5.25 16.01,-4.86 15.55,-4.45 15.07,-4.03 14.59,-3.59 14.1,-3.14 13.6,-2.67 13.09,-2.18 12.57,-1.67 12.05,-1.14 11.52,-0.59 10.97,-0.02 10.42,0.56 9.85,1.17 9.28,1.8 8.69,2.45 8.1,3.13 7.5,3.83 6.88,4.56 6.26,5.31 5.64,6.1 5.01,6.91 4.37,7.74 3.72,8.6 3.07,9.48 2.41,10.37 1.75,11.29 1.08,12.23 0.41,13.17 -0.27,14.13 -0.95,15.09 -1.63,16.06 -2.32,17.03 -3.01,17.98 -3.7,18.93 -4.4,19.87 -5.11,20.78 -5.81,21.68 -6.52,22.54 -7.24,23.36 -7.96,24.15 -8.68,24.89 -9.4,25.58 -10.13,26.21 -10.87,26.78 -11.6,27.29 -12.35,27.72 -13.09,28.07 -13.84,28.34 -14.6,28.53 -15.36,28.62 -16.12,28.62 -16.89,28.52 -17.66,28.31 -18.43,28.01 -19.21,27.6 -19.99,27.08 -20.77,26.46 -21.56,25.73 -22.34,24.89 -23.13,23.96 -23.76,23.56 -24.38,23.12 -25,22.64 -25.62,22.11 -26.23,21.54 -26.82,20.93 -27.41,20.28 -27.99,19.6 -28.56,18.89 -29.11,18.15 -29.65,17.39 -30.17,16.61 -30.68,15.82 -31.16,15.02 -31.63,14.21" fill="white" stroke="white" stroke-width="0" stroke-linejoin="round" filter="url(#fuzzy)" />
    </g>
    <g transform="translate(-40.769999999999996 -21.31)">
      <polyline id="leftCountour" points="32.5,-1.3 32.06,-1.6 31.6,-1.91 31.11,-2.22 30.59,-2.53 30.05,-2.85 29.48,-3.17 28.9,-3.49 28.29,-3.81 27.65,-4.14 27,-4.46 26.33,-4.79 25.63,-5.11 24.92,-5.44 24.2,-5.76 23.45,-6.09 22.65,-6.44 21.83,-6.8 20.98,-7.16 20.1,-7.52 19.2,-7.89 18.28,-8.25 17.34,-8.61 16.38,-8.96 15.41,-9.31 14.42,-9.66 13.42,-9.99 12.41,-10.32 11.39,-10.64 10.37,-10.94 9.34,-11.24 8.31,-11.52 7.28,-11.78 6.25,-12.03 5.22,-12.26 4.2,-12.48 3.19,-12.68 2.18,-12.86 1.19,-13.02 0.21,-13.17 -0.76,-13.29 -1.71,-13.4 -2.65,-13.48 -3.56,-13.55 -4.46,-13.6 -5.34,-13.63 -6.2,-13.64 -7.03,-13.63 -7.85,-13.6 -8.63,-13.56 -9.4,-13.5 -10.14,-13.42 -10.85,-13.33 -11.54,-13.23 -12.21,-13.11 -12.85,-12.98 -13.46,-12.83 -14.05,-12.68 -14.61,-12.52 -15.15,-12.36 -15.66,-12.18 -16.15,-12 -16.61,-11.82 -17.06,-11.63 -17.48,-11.45 -17.88,-11.26 -18.26,-11.08 -18.62,-10.89 -18.96,-10.7 -19.28,-10.51 -19.59,-10.32 -19.87,-10.14 -20.13,-9.95 -20.38,-9.76 -20.6,-9.58 -20.81,-9.41 -21.01,-9.23 -21.18,-9.06 -21.34,-8.9 -21.48,-8.74 -19.77,-6.81 -19.47,-6.57 -19.16,-6.32 -18.84,-6.06 -18.5,-5.8 -18.15,-5.52 -17.8,-5.24 -17.43,-4.95 -17.04,-4.64 -16.65,-4.33 -16.24,-4 -15.83,-3.65 -15.4,-3.29 -14.96,-2.92 -14.51,-2.53 -14.05,-2.12 -13.58,-1.7 -13.09,-1.27 -12.59,-0.81 -12.07,-0.34 -11.54,0.16 -11,0.67 -10.45,1.21 -9.88,1.78 -9.3,2.36 -8.71,2.97 -8.11,3.61 -7.49,4.26 -6.86,4.94 -6.23,5.64 -5.58,6.36 -4.91,7.09 -4.24,7.84 -3.56,8.6 -2.86,9.38 -2.16,10.16 -1.45,10.94 -0.72,11.73 0.01,12.51 0.76,13.29 1.51,14.06 2.27,14.82 3.04,15.55 3.82,16.27 4.61,16.95 5.41,17.61 6.21,18.23 7.02,18.81 7.84,19.34 8.67,19.83 9.5,20.26 10.34,20.63 11.18,20.94 12.03,21.18 12.88,21.35 13.73,21.45 14.59,21.47 15.45,21.42 16.32,21.28 17.18,21.05 18.04,20.74 18.91,20.35 19.77,19.87 20.62,19.31 21.48,18.66 22.18,18.43 22.89,18.17 23.58,17.87 24.26,17.54 24.94,17.17 25.61,16.77 26.26,16.33 26.91,15.87 27.54,15.38 28.15,14.87 28.75,14.34 29.33,13.79 29.89,13.23 30.44,12.66 30.96,12.09" fill="white" stroke="white" stroke-width="0" stroke-linejoin="round" filter="url(#fuzzy)" />
    </g>
    <g transform="translate(33.19 -24.08)">
      <polyline id="rightUpper" points="-34.35,-0.16 -34.17,-0.49 -33.94,-0.84 -33.67,-1.18 -33.35,-1.54 -33,-1.9 -32.61,-2.26 -32.19,-2.63 -31.73,-3.01 -31.23,-3.39 -30.71,-3.78 -30.15,-4.18 -29.57,-4.58 -28.96,-4.98 -28.33,-5.39 -27.67,-5.8 -26.99,-6.22 -26.29,-6.64 -25.57,-7.06 -24.83,-7.49 -24.07,-7.91 -23.3,-8.34 -22.51,-8.77 -21.71,-9.2 -20.9,-9.64 -20.08,-10.07 -19.13,-10.53 -18.17,-11 -17.2,-11.47 -16.21,-11.95 -15.21,-12.43 -14.2,-12.91 -13.18,-13.39 -12.16,-13.87 -11.14,-14.34 -10.11,-14.81 -9.08,-15.27 -8.06,-15.71 -7.03,-16.15 -6.02,-16.57 -5.01,-16.97 -4,-17.36 -3.01,-17.73 -2.03,-18.08 -1.06,-18.4 -0.11,-18.71 0.83,-18.99 1.75,-19.25 2.66,-19.48 3.54,-19.69 4.4,-19.87 5.25,-20.02 6.07,-20.15 6.86,-20.25 7.64,-20.33 8.39,-20.38 9.11,-20.4 9.81,-20.4 10.48,-20.37 11.13,-20.32 11.75,-20.24 12.34,-20.14 12.91,-20.02 13.44,-19.88 13.95,-19.72 14.44,-19.55 14.9,-19.35 15.33,-19.15 15.73,-18.92 16.11,-18.69 16.46,-18.45 16.79,-18.2 17.09,-17.94 17.38,-17.68 17.63,-17.42 17.87,-17.15 18.09,-16.89 18.28,-16.62 18.45,-16.35 18.6,-16.07 18.73,-15.8 18.84,-15.52 18.93,-15.25 19,-14.98 19.05,-14.71 19.08,-14.44 19.09,-14.18 19.09,-13.92 19.06,-13.67 19.02,-13.42 18.95,-13.19 18.87,-12.95 18.78,-12.73 18.66,-12.51 18.53,-12.31 18.39,-12.11 18.23,-11.92 18.05,-11.74 17.86,-11.57 17.66,-11.41" fill="none" stroke="black" stroke-width="1.6666666666666665" stroke-linejoin="round" filter="url(#fuzzy)" />
      <polyline id="rightLower" points="-34.72,7.51 -34.57,7.95 -34.38,8.47 -34.15,9.05 -33.89,9.68 -33.58,10.37 -33.25,11.09 -32.88,11.84 -32.49,12.62 -32.07,13.41 -31.63,14.21 -31.16,15.02 -30.68,15.82 -30.17,16.61 -29.65,17.39 -29.11,18.15 -28.56,18.89 -27.99,19.6 -27.41,20.28 -26.82,20.93 -26.23,21.54 -25.62,22.11 -25,22.64 -24.38,23.12 -23.76,23.56 -23.13,23.96 -22.34,24.89 -21.56,25.73 -20.77,26.46 -19.99,27.08 -19.21,27.6 -18.43,28.01 -17.66,28.31 -16.89,28.52 -16.12,28.62 -15.36,28.62 -14.6,28.53 -13.84,28.34 -13.09,28.07 -12.35,27.72 -11.6,27.29 -10.87,26.78 -10.13,26.21 -9.4,25.58 -8.68,24.89 -7.96,24.15 -7.24,23.36 -6.52,22.54 -5.81,21.68 -5.11,20.78 -4.4,19.87 -3.7,18.93 -3.01,17.98 -2.32,17.03 -1.63,16.06 -0.95,15.09 -0.27,14.13 0.41,13.17 1.08,12.23 1.75,11.29 2.41,10.37 3.07,9.48 3.72,8.6 4.37,7.74 5.01,6.91 5.64,6.1 6.26,5.31 6.88,4.56 7.5,3.83 8.1,3.13 8.69,2.45 9.28,1.8 9.85,1.17 10.42,0.56 10.97,-0.02 11.52,-0.59 12.05,-1.14 12.57,-1.67 13.09,-2.18 13.6,-2.67 14.1,-3.14 14.59,-3.59 15.07,-4.03 15.55,-4.45 16.01,-4.86 16.46,-5.25 16.9,-5.63 17.34,-6 17.76,-6.36 18.17,-6.71 18.56,-7.05 18.95,-7.38 19.33,-7.71 19.69,-8.03 20.05,-8.34 20.39,-8.65 20.72,-8.95 21.05,-9.25 21.36,-9.54 21.66,-9.84" fill="none" stroke="black" stroke-width="2.2222222222222223" stroke-linejoin="round" filter="url(#fuzzy)" />
      <circle r="3.512" cx="-11.638097015927904" cy="-0.04479787666666901" stroke="black" fill="none" stroke-width="1.0" filter="url(#fuzzy)" clip-path="url(#rightEyeClipPath)" /><circle r="4.486" cx="-10.733097015927903" cy="-2.564797876666669" stroke="black" fill="none" stroke-width="1.0" filter="url(#fuzzy)" clip-path="url(#rightEyeClipPath)" /><circle r="4.052" cx="-8.073097015927903" cy="-0.39479787666666866" stroke="black" fill="none" stroke-width="1.0" filter="url(#fuzzy)" clip-path="url(#rightEyeClipPath)" /><circle r="4.166" cx="-11.308097015927904" cy="-2.429797876666669" stroke="black" fill="none" stroke-width="1.0" filter="url(#fuzzy)" clip-path="url(#rightEyeClipPath)" /><circle r="3.7" cx="-8.258097015927904" cy="-1.9697978766666688" stroke="black" fill="none" stroke-width="1.0" filter="url(#fuzzy)" clip-path="url(#rightEyeClipPath)" /><circle r="3.298" cx="-8.758097015927904" cy="-0.9847978766666685" stroke="black" fill="none" stroke-width="1.0" filter="url(#fuzzy)" clip-path="url(#rightEyeClipPath)" /><circle r="3.9939999999999998" cx="-9.538097015927903" cy="-1.4897978766666693" stroke="black" fill="none" stroke-width="1.0" filter="url(#fuzzy)" clip-path="url(#rightEyeClipPath)" /><circle r="4.24" cx="-10.808097015927904" cy="-2.759797876666669" stroke="black" fill="none" stroke-width="1.0" filter="url(#fuzzy)" clip-path="url(#rightEyeClipPath)" /><circle r="4.086" cx="-8.318097015927904" cy="-0.504797876666669" stroke="black" fill="none" stroke-width="1.0" filter="url(#fuzzy)" clip-path="url(#rightEyeClipPath)" /><circle r="3.13" cx="-10.138097015927904" cy="0.00020212333333091692" stroke="black" fill="none" stroke-width="1.0" filter="url(#fuzzy)" clip-path="url(#rightEyeClipPath)" />
      </g>
    <g transform="translate(-40.769999999999996 -21.31)">
      <polyline id="leftUpper" points="35.19,1.5 35.07,1.24 34.91,0.97 34.72,0.71 34.5,0.43 34.24,0.16 33.95,-0.13 33.63,-0.41 33.28,-0.7 32.9,-1 32.5,-1.3 32.06,-1.6 31.6,-1.91 31.11,-2.22 30.59,-2.53 30.05,-2.85 29.48,-3.17 28.9,-3.49 28.29,-3.81 27.65,-4.14 27,-4.46 26.33,-4.79 25.63,-5.11 24.92,-5.44 24.2,-5.76 23.45,-6.09 22.65,-6.44 21.83,-6.8 20.98,-7.16 20.1,-7.52 19.2,-7.89 18.28,-8.25 17.34,-8.61 16.38,-8.96 15.41,-9.31 14.42,-9.66 13.42,-9.99 12.41,-10.32 11.39,-10.64 10.37,-10.94 9.34,-11.24 8.31,-11.52 7.28,-11.78 6.25,-12.03 5.22,-12.26 4.2,-12.48 3.19,-12.68 2.18,-12.86 1.19,-13.02 0.21,-13.17 -0.76,-13.29 -1.71,-13.4 -2.65,-13.48 -3.56,-13.55 -4.46,-13.6 -5.34,-13.63 -6.2,-13.64 -7.03,-13.63 -7.85,-13.6 -8.63,-13.56 -9.4,-13.5 -10.14,-13.42 -10.85,-13.33 -11.54,-13.23 -12.21,-13.11 -12.85,-12.98 -13.46,-12.83 -14.05,-12.68 -14.61,-12.52 -15.15,-12.36 -15.66,-12.18 -16.15,-12 -16.61,-11.82 -17.06,-11.63 -17.48,-11.45 -17.88,-11.26 -18.26,-11.08 -18.62,-10.89 -18.96,-10.7 -19.28,-10.51 -19.59,-10.32 -19.87,-10.14 -20.13,-9.95 -20.38,-9.76 -20.6,-9.58 -20.81,-9.41 -21.01,-9.23 -21.18,-9.06 -21.34,-8.9 -21.48,-8.74 -21.61,-8.58 -21.72,-8.43 -21.82,-8.29 -21.9,-8.16 -21.97,-8.03 -22.02,-7.91 -22.07,-7.8 -22.09,-7.69 -22.11,-7.59 -22.11,-7.5" fill="none" stroke="black" stroke-width="2.2222222222222223" stroke-linejoin="round" filter="url(#fuzzy)" />
      <polyline id="leftLower" points="34.52,7.21 34.33,7.53 34.09,7.91 33.82,8.33 33.51,8.8 33.16,9.3 32.78,9.83 32.36,10.37 31.92,10.94 31.45,11.51 30.96,12.09 30.44,12.66 29.89,13.23 29.33,13.79 28.75,14.34 28.15,14.87 27.54,15.38 26.91,15.87 26.26,16.33 25.61,16.77 24.94,17.17 24.26,17.54 23.58,17.87 22.89,18.17 22.18,18.43 21.48,18.66 20.62,19.31 19.77,19.87 18.91,20.35 18.04,20.74 17.18,21.05 16.32,21.28 15.45,21.42 14.59,21.47 13.73,21.45 12.88,21.35 12.03,21.18 11.18,20.94 10.34,20.63 9.5,20.26 8.67,19.83 7.84,19.34 7.02,18.81 6.21,18.23 5.41,17.61 4.61,16.95 3.82,16.27 3.04,15.55 2.27,14.82 1.51,14.06 0.76,13.29 0.01,12.51 -0.72,11.73 -1.45,10.94 -2.16,10.16 -2.86,9.38 -3.56,8.6 -4.24,7.84 -4.91,7.09 -5.58,6.36 -6.23,5.64 -6.86,4.94 -7.49,4.26 -8.11,3.61 -8.71,2.97 -9.3,2.36 -9.88,1.78 -10.45,1.21 -11,0.67 -11.54,0.16 -12.07,-0.34 -12.59,-0.81 -13.09,-1.27 -13.58,-1.7 -14.05,-2.12 -14.51,-2.53 -14.96,-2.92 -15.4,-3.29 -15.83,-3.65 -16.24,-4 -16.65,-4.33 -17.04,-4.64 -17.43,-4.95 -17.8,-5.24 -18.15,-5.52 -18.5,-5.8 -18.84,-6.06 -19.16,-6.32 -19.47,-6.57 -19.77,-6.81 -20.06,-7.05 -20.33,-7.29 -20.6,-7.52 -20.85,-7.75 -21.09,-7.98 -21.32,-8.2 -21.54,-8.43 -21.75,-8.65 -21.94,-8.88 -22.13,-9.1" fill="none" stroke="black" stroke-width="2.2222222222222223" stroke-linejoin="round" filter="url(#fuzzy)" />
      <circle r="3.266" cx="-8.486669245978634" cy="-2.6735571944900025" stroke="black" fill="none" stroke-width="1.0" filter="url(#fuzzy)" clip-path="url(#leftEyeClipPath)" /><circle r="4.9239999999999995" cx="-10.656669245978634" cy="-3.023557194490002" stroke="black" fill="none" stroke-width="1.0" filter="url(#fuzzy)" clip-path="url(#leftEyeClipPath)" /><circle r="4.414" cx="-6.936669245978633" cy="-2.7535571944900026" stroke="black" fill="none" stroke-width="1.0" filter="url(#fuzzy)" clip-path="url(#leftEyeClipPath)" /><circle r="4.882" cx="-8.961669245978634" cy="-2.398557194490002" stroke="black" fill="none" stroke-width="1.0" filter="url(#fuzzy)" clip-path="url(#leftEyeClipPath)" /><circle r="3.888" cx="-10.666669245978634" cy="-2.2485571944900022" stroke="black" fill="none" stroke-width="1.0" filter="url(#fuzzy)" clip-path="url(#leftEyeClipPath)" /><circle r="3.83" cx="-11.391669245978633" cy="-3.443557194490002" stroke="black" fill="none" stroke-width="1.0" filter="url(#fuzzy)" clip-path="url(#leftEyeClipPath)" /><circle r="4.22" cx="-9.266669245978633" cy="0.2014428055099975" stroke="black" fill="none" stroke-width="1.0" filter="url(#fuzzy)" clip-path="url(#leftEyeClipPath)" /><circle r="4.91" cx="-10.501669245978633" cy="0.3764428055099973" stroke="black" fill="none" stroke-width="1.0" filter="url(#fuzzy)" clip-path="url(#leftEyeClipPath)" /><circle r="3.156" cx="-8.236669245978632" cy="-0.04855719449000251" stroke="black" fill="none" stroke-width="1.0" filter="url(#fuzzy)" clip-path="url(#leftEyeClipPath)" /><circle r="4.128" cx="-10.376669245978633" cy="0.29144280550999735" stroke="black" fill="none" stroke-width="1.0" filter="url(#fuzzy)" clip-path="url(#leftEyeClipPath)" />
    </g>
    <g id="hairs">
      <polyline points="41.29,-70.73 41.3,-70.44 41.88,-69.61 42.27,-68.85 42.22,-68.34 41.7,-68.04 40.72,-67.95 39.28,-68.07 37.33,-68.42 34.85,-68.99 31.82,-69.75 28.21,-70.71 24.01,-71.9 19.18,-73.38 13.68,-75.17 7.41,-77.25 0.26,-79.56 -7.72,-82.13" fill="none" stroke="rgb(220, 208, 186)" stroke-width="2" stroke-linejoin="round" filter="url(#fuzzy)" /><polyline points="-17.65,-84.74 -16.44,-84.99 -15.34,-85.22 -14.29,-85.44 -13.48,-85.57 -13,-85.56 -12.83,-85.43 -12.92,-85.17 -13.29,-84.79 -13.98,-84.27 -15.09,-83.58 -16.65,-82.7 -18.7,-81.58 -21.25,-80.21 -24.31,-78.61 -27.88,-76.8 -32.05,-74.77 -36.97,-72.38" fill="none" stroke="rgb(220, 208, 186)" stroke-width="2" stroke-linejoin="round" filter="url(#fuzzy)" /><polyline points="53.13,-57.04 53.73,-56.07 54.22,-55.33 54.83,-54.4 55.49,-53.34 56.11,-52.28 56.63,-51.33 57.04,-50.54 57.31,-49.97 57.42,-49.67 57.34,-49.64 57.04,-49.91 56.53,-50.48 55.81,-51.35 54.87,-52.51 53.69,-54.02 52.22,-55.96 50.42,-58.4 48.3,-61.34 45.77,-64.82" fill="none" stroke="rgb(220, 208, 186)" stroke-width="2" stroke-linejoin="round" filter="url(#fuzzy)" /><polyline points="-35.48,-75.45 -33.47,-76.62 -31.82,-77.18 -29.97,-77.56 -27.79,-77.85 -25.32,-78.07 -22.57,-78.24 -19.57,-78.35 -16.3,-78.45 -12.75,-78.52 -8.95,-78.57 -4.94,-78.57 -0.77,-78.49 3.49,-78.34 7.8,-78.15 12.09,-77.97 16.31,-77.86 20.4,-77.84 24.35,-77.84 28.22,-77.76" fill="none" stroke="rgb(220, 208, 186)" stroke-width="2" stroke-linejoin="round" filter="url(#fuzzy)" /><polyline points="-26.75,-80.77 -25.32,-81.43 -23.68,-82.02 -21.98,-82.46 -20.26,-82.8 -18.45,-83.08 -16.53,-83.33 -14.49,-83.53 -12.35,-83.7 -10.13,-83.84 -7.83,-83.96 -5.46,-84.07 -3.04,-84.17 -0.61,-84.26 1.76,-84.34 4.05,-84.41 6.21,-84.48 8.22,-84.57 10.09,-84.67 11.82,-84.76 13.42,-84.8 14.94,-84.79 16.36,-84.76" fill="none" stroke="rgb(220, 208, 186)" stroke-width="2" stroke-linejoin="round" filter="url(#fuzzy)" /><polyline points="8.81,-86.81 9.81,-86.66 10.47,-86.5 11.11,-86.31 11.66,-86.09 12.08,-85.82 12.35,-85.53 12.41,-85.2 12.21,-84.87 11.7,-84.53 10.87,-84.18 9.72,-83.8 8.26,-83.38 6.48,-82.9 4.37,-82.38 1.9,-81.82 -0.96,-81.24 -4.24,-80.67 -7.95,-80.11 -12.08,-79.53 -16.65,-78.9 -21.66,-78.24 -27.09,-77.64" fill="none" stroke="rgb(220, 208, 186)" stroke-width="2" stroke-linejoin="round" filter="url(#fuzzy)" /><polyline points="52.32,-58.06 52.54,-57.71 52.74,-57.22 52.74,-56.82 52.54,-56.5 52.12,-56.24 51.46,-56.06 50.5,-56.01 49.2,-56.17 47.5,-56.59 45.39,-57.31 42.84,-58.35 39.81,-59.7 36.3,-61.37 32.31,-63.35 27.86,-65.64 22.96,-68.22 17.56,-71.1 11.56,-74.29 4.81,-77.88 -2.8,-81.92" fill="none" stroke="rgb(220, 208, 186)" stroke-width="2" stroke-linejoin="round" filter="url(#fuzzy)" /><polyline points="-27.02,-80.75 -26.19,-80.97 -24.51,-81.42 -22.32,-81.9 -19.84,-82.31 -17.17,-82.63 -14.33,-82.9 -11.29,-83.12 -8.06,-83.31 -4.69,-83.46 -1.25,-83.58 2.21,-83.71 5.65,-83.87 9.05,-84.06 12.39,-84.24 15.73,-84.31" fill="none" stroke="rgb(220, 208, 186)" stroke-width="2" stroke-linejoin="round" filter="url(#fuzzy)" /><polyline points="-16.13,-85.1 -15.15,-85.27 -13.79,-85.62 -12.53,-85.94 -11.58,-86.14 -10.88,-86.27 -10.34,-86.34 -9.98,-86.36 -9.87,-86.33 -10.11,-86.22 -10.77,-85.99 -11.86,-85.63 -13.38,-85.15 -15.33,-84.53 -17.83,-83.78 -21.15,-82.79" fill="none" stroke="rgb(220, 208, 186)" stroke-width="2" stroke-linejoin="round" filter="url(#fuzzy)" /><polyline points="3.82,-87.14 5.4,-87.12 6.53,-87 7.47,-86.78 8.12,-86.51 8.47,-86.19 8.54,-85.82 8.34,-85.38 7.87,-84.88 7.14,-84.29 6.09,-83.64 4.7,-82.91 2.91,-82.1 0.7,-81.21 -1.94,-80.22 -4.98,-79.12 -8.44,-77.92 -12.31,-76.6 -16.62,-75.16 -21.43,-73.61 -26.79,-71.92 -32.74,-70.07 -39.2,-68" fill="none" stroke="rgb(220, 208, 186)" stroke-width="2" stroke-linejoin="round" filter="url(#fuzzy)" /><polyline points="23.14,-82.47 23.67,-82.19 24.16,-81.64 24.15,-81.12 23.76,-80.59 23.14,-79.96 22.25,-79.21 20.99,-78.35 19.27,-77.41 17.06,-76.38 14.37,-75.26 11.2,-74.04 7.53,-72.7 3.34,-71.25 -1.44,-69.68 -6.88,-68.03 -13,-66.33 -19.8,-64.6 -27.24,-62.81 -35.33,-60.97 -44.08,-59.08" fill="none" stroke="rgb(220, 208, 186)" stroke-width="2" stroke-linejoin="round" filter="url(#fuzzy)" /><polyline points="25.14,-81.59 26.53,-80.74 27.74,-80.07 28.6,-79.51 29.06,-79.01 29.21,-78.56 29.12,-78.11 28.84,-77.65 28.36,-77.18 27.61,-76.7 26.53,-76.27 25.08,-75.92 23.2,-75.67 20.9,-75.51 18.17,-75.43 15.04,-75.38 11.52,-75.34 7.62,-75.31 3.33,-75.33 -1.37,-75.43 -6.53,-75.63 -12.2,-75.93 -18.44,-76.3 -25.27,-76.72" fill="none" stroke="rgb(220, 208, 186)" stroke-width="2" stroke-linejoin="round" filter="url(#fuzzy)" /><polyline points="60.09,-45.27 60.48,-44.37 60.63,-43.78 60.77,-43.22 60.83,-42.71 60.72,-42.39 60.36,-42.41 59.69,-42.89 58.72,-43.86 57.44,-45.31 55.87,-47.23 53.97,-49.63 51.74,-52.54 49.09,-56.02 45.94,-60.14 42.21,-65.03 38,-70.71" fill="none" stroke="rgb(220, 208, 186)" stroke-width="2" stroke-linejoin="round" filter="url(#fuzzy)" /><polyline points="-29.47,-79.46 -27.62,-80.33 -26,-80.95 -24.19,-81.57 -22.19,-82.19 -20.08,-82.79 -17.93,-83.33 -15.77,-83.84 -13.61,-84.33 -11.48,-84.8 -9.44,-85.24 -7.52,-85.64 -5.74,-86 -4.07,-86.34 -2.52,-86.68 -1.17,-87.02 -0.09,-87.36" fill="none" stroke="rgb(220, 208, 186)" stroke-width="2" stroke-linejoin="round" filter="url(#fuzzy)" /><polyline points="50.45,-60.96 51.04,-59.51 50.55,-58.83 49.16,-58.54 46.91,-58.47 43.81,-58.55 39.83,-58.77 34.96,-59.09 29.14,-59.5 22.27,-60.05 14.29,-60.81 5.17,-61.85 -5.13,-63.21 -16.65,-64.87 -29.37,-66.8" fill="none" stroke="rgb(220, 208, 186)" stroke-width="2" stroke-linejoin="round" filter="url(#fuzzy)" /><polyline points="-29.47,-79.46 -27.53,-80.25 -25.62,-80.63 -23.33,-80.86 -20.63,-80.97 -17.62,-80.93 -14.33,-80.73 -10.8,-80.39 -7.02,-79.96 -3.02,-79.45 1.17,-78.88 5.51,-78.25 9.98,-77.6 14.58,-76.95 19.32,-76.28 24.15,-75.54 29,-74.67 33.79,-73.64" fill="none" stroke="rgb(220, 208, 186)" stroke-width="2" stroke-linejoin="round" filter="url(#fuzzy)" /><polyline points="41.29,-70.73 41.31,-70.44 41.91,-69.58 42.33,-68.79 42.35,-68.22 41.94,-67.85 41.1,-67.67 39.81,-67.67 38.03,-67.87 35.76,-68.26 32.99,-68.83 29.7,-69.57 25.86,-70.51 21.4,-71.68 16.25,-73.12 10.42,-74.82 3.98,-76.82 -2.97,-79.11 -10.3,-81.72" fill="none" stroke="rgb(220, 208, 186)" stroke-width="2" stroke-linejoin="round" filter="url(#fuzzy)" /><polyline points="28.23,-79.86 29.66,-79.24 30.78,-78.48 31.87,-77.62 33.1,-76.65 34.49,-75.55 36.01,-74.32 37.57,-73.02 39.07,-71.72 40.45,-70.52 41.64,-69.49 42.65,-68.63 43.5,-67.92 44.21,-67.32 44.8,-66.84 45.2,-66.5 45.37,-66.4 45.23,-66.61 44.89,-67.01" fill="none" stroke="rgb(220, 208, 186)" stroke-width="2" stroke-linejoin="round" filter="url(#fuzzy)" /><polyline points="44.53,-67.16 45.43,-66.4 46.24,-65.46 46.84,-64.69 47.18,-64.12 47.32,-63.68 47.29,-63.3 47.08,-63 46.64,-62.83 45.93,-62.83 44.93,-63.04 43.62,-63.45 41.99,-64.04 40.07,-64.79 37.85,-65.68 35.31,-66.73 32.44,-67.95 29.19,-69.38 25.51,-71.07 21.37,-73.03 16.77,-75.29 11.74,-77.85 6.33,-80.7 0.45,-83.82" fill="none" stroke="rgb(220, 208, 186)" stroke-width="2" stroke-linejoin="round" filter="url(#fuzzy)" /><polyline points="-11.2,-86.38 -9.68,-86.52 -8.4,-86.67 -7.55,-86.76 -7.14,-86.74 -7.12,-86.6 -7.41,-86.33 -7.99,-85.93 -8.88,-85.39 -10.16,-84.7 -11.94,-83.85 -14.31,-82.83 -17.33,-81.64 -21.01,-80.27 -25.33,-78.75 -30.14,-77.14" fill="none" stroke="rgb(220, 208, 186)" stroke-width="2" stroke-linejoin="round" filter="url(#fuzzy)" /><polyline points="60.09,-45.27 60.52,-44.32 60.79,-43.56 61.12,-42.72 61.48,-41.85 61.75,-41.07 61.88,-40.54 61.82,-40.36 61.55,-40.57 61.09,-41.18 60.43,-42.19 59.55,-43.63 58.41,-45.54 56.98,-47.96 55.23,-50.95 53.14,-54.55 50.79,-58.73" fill="none" stroke="rgb(220, 208, 186)" stroke-width="2" stroke-linejoin="round" filter="url(#fuzzy)" /><polyline points="33.66,-77 35.23,-75.47 36.26,-74.4 36.62,-73.71 36.43,-73.29 35.82,-73.04 34.85,-72.88 33.56,-72.74 31.93,-72.61 29.94,-72.51 27.53,-72.47 24.62,-72.52 21.18,-72.71 17.14,-73.04 12.47,-73.52 7.13,-74.14 1.09,-74.9 -5.59,-75.8 -12.85,-76.83 -20.54,-78.1" fill="none" stroke="rgb(220, 208, 186)" stroke-width="2" stroke-linejoin="round" filter="url(#fuzzy)" /><polyline points="-10.62,-86.14 -10.29,-86.3 -8.88,-86.37 -7.01,-86.38 -5,-86.32 -2.97,-86.19 -0.9,-86 1.25,-85.75 3.5,-85.45 5.84,-85.12 8.24,-84.76 10.61,-84.38 12.88,-84 14.96,-83.65 16.86,-83.33 18.6,-83.03 20.27,-82.72 21.9,-82.4 23.19,-82.23" fill="none" stroke="rgb(220, 208, 186)" stroke-width="2" stroke-linejoin="round" filter="url(#fuzzy)" /><polyline points="49.42,-61.75 50.45,-60.63 51.38,-59.36 52.16,-58.25 52.84,-57.25 53.48,-56.31 54.1,-55.38 54.7,-54.46 55.29,-53.56 55.82,-52.71 56.27,-51.99 56.58,-51.45 56.73,-51.15 56.71,-51.13 56.51,-51.4 56.13,-51.95 55.55,-52.81 54.76,-54 53.73,-55.6 52.39,-57.75" fill="none" stroke="rgb(220, 208, 186)" stroke-width="2" stroke-linejoin="round" filter="url(#fuzzy)" /><polyline points="26,-80.73 25.83,-81 26.28,-80.73 26.71,-80.36 26.76,-80.05 26.26,-79.86 25.19,-79.79 23.56,-79.83 21.38,-79.96 18.59,-80.19 15.16,-80.54 11.03,-81.05 6.1,-81.79 0.15,-82.78 -7.06,-83.92" fill="none" stroke="rgb(220, 208, 186)" stroke-width="2" stroke-linejoin="round" filter="url(#fuzzy)" /><polyline points="-31.74,-77.94 -30.65,-78.53 -29.34,-79.08 -27.91,-79.63 -26.31,-80.2 -24.5,-80.81 -22.45,-81.46 -20.24,-82.14 -17.96,-82.83 -15.69,-83.49 -13.52,-84.11 -11.47,-84.68 -9.54,-85.21 -7.75,-85.7 -6.13,-86.16 -4.79,-86.57 -3.84,-86.9 -3.4,-87.15" fill="none" stroke="rgb(220, 208, 186)" stroke-width="2" stroke-linejoin="round" filter="url(#fuzzy)" /><polyline points="-29.47,-79.46 -27.54,-80.27 -25.68,-80.7 -23.46,-81.02 -20.88,-81.25 -18.01,-81.36 -14.93,-81.35 -11.65,-81.26 -8.15,-81.08 -4.43,-80.82 -0.52,-80.47 3.55,-80.05 7.76,-79.58 12.06,-79.14 16.35,-78.79 20.53,-78.54 24.53,-78.32 28.33,-78" fill="none" stroke="rgb(220, 208, 186)" stroke-width="2" stroke-linejoin="round" filter="url(#fuzzy)" /><polyline points="11.87,-86.12 12.94,-85.98 14.19,-85.39 15.87,-84.48 17.84,-83.36 19.95,-82.08 22.13,-80.67 24.37,-79.17 26.69,-77.59 29.1,-75.92 31.62,-74.18 34.21,-72.37 36.84,-70.5 39.42,-68.61 41.92,-66.74 44.31,-64.91 46.61,-63.18 48.77,-61.69" fill="none" stroke="rgb(220, 208, 186)" stroke-width="2" stroke-linejoin="round" filter="url(#fuzzy)" /><polyline points="29.98,-79.39 30.71,-78.71 31.32,-78.2 32.05,-77.69 32.85,-77.15 33.62,-76.59 34.25,-76.06 34.65,-75.65 34.74,-75.42 34.47,-75.45 33.81,-75.75 32.75,-76.31 31.28,-77.1 29.42,-78.11 27.2,-79.3 24.65,-80.7 21.71,-82.39" fill="none" stroke="rgb(220, 208, 186)" stroke-width="2" stroke-linejoin="round" filter="url(#fuzzy)" /><polyline points="38.68,-72.43 39.07,-72.16 39.22,-71.85 39.04,-71.53 38.52,-71.19 37.63,-70.87 36.26,-70.65 34.32,-70.59 31.75,-70.74 28.53,-71.1 24.64,-71.71 20.05,-72.55 14.71,-73.62 8.63,-74.89 1.81,-76.36 -5.75,-78.07 -14.23,-80.07" fill="none" stroke="rgb(220, 208, 186)" stroke-width="2" stroke-linejoin="round" filter="url(#fuzzy)" /><polyline points="-11.22,-86.51 -10.75,-86.32 -9.87,-86.29 -8.46,-86.3 -6.72,-86.29 -4.87,-86.25 -2.99,-86.15 -1.09,-85.99 0.84,-85.8 2.83,-85.58 4.87,-85.33 6.94,-85.06 8.98,-84.77 10.94,-84.48 12.79,-84.2 14.5,-83.94 16.07,-83.7 17.52,-83.48 18.85,-83.27 20.04,-83.08 20.97,-82.96 21.54,-82.97 21.67,-83.13" fill="none" stroke="rgb(220, 208, 186)" stroke-width="2" stroke-linejoin="round" filter="url(#fuzzy)" /><polyline points="60.09,-45.27 60.33,-44.36 60.05,-43.71 59.46,-43.03 58.52,-42.29 57.15,-41.61 55.27,-41.1 52.84,-40.82 49.87,-40.79 46.34,-40.99 42.26,-41.39 37.64,-41.94 32.47,-42.63 26.76,-43.43 20.51,-44.36 13.69,-45.42 6.27,-46.65 -1.79,-48.08 -10.54,-49.73 -19.94,-51.61 -29.96,-53.71 -40.54,-56.05" fill="none" stroke="rgb(220, 208, 186)" stroke-width="2" stroke-linejoin="round" filter="url(#fuzzy)" /><polyline points="3.62,-87.16 4.46,-87.07 5.91,-86.81 7.63,-86.38 9.51,-85.78 11.44,-85.05 13.4,-84.23 15.4,-83.32 17.45,-82.33 19.57,-81.26 21.75,-80.12 23.96,-78.93 26.15,-77.72 28.29,-76.53 30.35,-75.38 32.32,-74.27 34.22,-73.2 36.08,-72.16 37.86,-71.14 39.51,-70.21 40.95,-69.42 42.15,-68.8 43.26,-68.2" fill="none" stroke="rgb(220, 208, 186)" stroke-width="2" stroke-linejoin="round" filter="url(#fuzzy)" /><polyline points="-8.07,-86.73 -6.39,-86.98 -5.29,-87.12 -4.13,-87.19 -2.81,-87.2 -1.34,-87.17 0.27,-87.11 1.92,-87.02 3.53,-86.93 4.99,-86.84 6.29,-86.75 7.4,-86.69 8.33,-86.65 9.06,-86.63 9.55,-86.63 9.71,-86.64 9.46,-86.7 8.67,-86.83 7.38,-87.01" fill="none" stroke="rgb(220, 208, 186)" stroke-width="2" stroke-linejoin="round" filter="url(#fuzzy)" /><polyline points="31.06,-78.3 31.98,-77.67 33.12,-76.98 34.25,-76.21 35.34,-75.37 36.31,-74.58 37.09,-73.92 37.65,-73.42 38.02,-73.06 38.24,-72.81 38.33,-72.62 38.3,-72.47 38.15,-72.39 37.83,-72.41 37.3,-72.56 36.5,-72.89 35.39,-73.42 33.97,-74.16 32.25,-75.12 30.25,-76.27 27.98,-77.63 25.39,-79.17 22.41,-80.96 18.93,-83.03" fill="none" stroke="rgb(220, 208, 186)" stroke-width="2" stroke-linejoin="round" filter="url(#fuzzy)" /><polyline points="-11.2,-86.38 -9.64,-86.53 -8.27,-86.7 -7.27,-86.83 -6.61,-86.88 -6.2,-86.84 -5.98,-86.71 -5.9,-86.48 -5.99,-86.15 -6.31,-85.72 -6.92,-85.18 -7.87,-84.53 -9.21,-83.76 -10.94,-82.87 -13.08,-81.83 -15.66,-80.62 -18.73,-79.24 -22.34,-77.68 -26.52,-75.98 -31.25,-74.13 -36.63,-72.02" fill="none" stroke="rgb(220, 208, 186)" stroke-width="2" stroke-linejoin="round" filter="url(#fuzzy)" /><polyline points="62.15,-40.83 62.39,-39.69 62.54,-38.61 62.33,-37.99 61.74,-37.76 60.81,-37.87 59.53,-38.28 57.9,-38.97 55.89,-39.93 53.49,-41.13 50.7,-42.59 47.49,-44.35 43.84,-46.48 39.75,-49.04 35.16,-52.05 30.05,-55.52 24.38,-59.45 18.11,-63.82 11.28,-68.65 4.03,-73.97 -3.44,-79.88" fill="none" stroke="rgb(220, 208, 186)" stroke-width="2" stroke-linejoin="round" filter="url(#fuzzy)" /><polyline points="25.14,-81.59 26.67,-80.65 28.33,-79.71 29.93,-78.72 31.42,-77.68 32.88,-76.56 34.38,-75.37 35.95,-74.1 37.58,-72.77 39.18,-71.44 40.68,-70.18 42,-69.08 43.09,-68.16 43.97,-67.44 44.64,-66.9 45.08,-66.57 45.22,-66.54 45.01,-66.82" fill="none" stroke="rgb(220, 208, 186)" stroke-width="2" stroke-linejoin="round" filter="url(#fuzzy)" /><polyline points="-31.74,-77.94 -30.49,-78.39 -28.66,-78.54 -26.37,-78.46 -23.58,-78.17 -20.21,-77.72 -16.27,-77.14 -11.79,-76.44 -6.87,-75.59 -1.58,-74.57 4.03,-73.36 9.93,-71.96 16.11,-70.39 22.56,-68.68 29.21,-66.89 35.96,-65.11 42.7,-63.45" fill="none" stroke="rgb(220, 208, 186)" stroke-width="2" stroke-linejoin="round" filter="url(#fuzzy)" /><polyline points="-6.4,-87.21 -4.92,-87.33 -4.01,-87.38 -3.21,-87.35 -2.4,-87.28 -1.68,-87.16 -1.18,-86.98 -0.93,-86.72 -0.96,-86.41 -1.24,-86.03 -1.77,-85.59 -2.58,-85.08 -3.7,-84.48 -5.19,-83.79 -7.09,-83.01 -9.43,-82.12 -12.21,-81.14 -15.43,-80.04 -19.11,-78.79 -23.3,-77.36 -28.09,-75.74 -33.46,-74" fill="none" stroke="rgb(220, 208, 186)" stroke-width="2" stroke-linejoin="round" filter="url(#fuzzy)" /><polyline points="10.51,-86.63 10.74,-86.47 11.82,-86.15 13.12,-85.75 14.52,-85.24 16.02,-84.65 17.58,-84.01 19.12,-83.35 20.62,-82.69 22.06,-82.04 23.45,-81.4 24.81,-80.75 26.16,-80.11 27.48,-79.46 28.73,-78.83 29.85,-78.26 30.81,-77.78 31.57,-77.43 32.1,-77.24 32.41,-77.2 32.48,-77.3 32.29,-77.5 31.86,-77.79 31.32,-78.15" fill="none" stroke="rgb(220, 208, 186)" stroke-width="2" stroke-linejoin="round" filter="url(#fuzzy)" /><polyline points="59.17,-47.32 59.92,-45.68 60.41,-44.52 60.8,-43.55 61.21,-42.57 61.62,-41.55 61.99,-40.59 62.27,-39.79 62.41,-39.24 62.41,-38.97 62.26,-38.98 61.98,-39.27 61.56,-39.81 61.02,-40.58 60.34,-41.59 59.52,-42.86 58.52,-44.48 57.29,-46.54 55.81,-49.12 54.05,-52.22 52.11,-55.75 50.07,-59.58" fill="none" stroke="rgb(220, 208, 186)" stroke-width="2" stroke-linejoin="round" filter="url(#fuzzy)" /><polyline points="25.14,-81.59 26.5,-80.76 27.64,-80.14 28.36,-79.65 28.62,-79.28 28.46,-79 27.97,-78.78 27.16,-78.61 26.01,-78.47 24.45,-78.4 22.37,-78.43 19.72,-78.62 16.45,-79.03 12.53,-79.64 7.94,-80.41 2.61,-81.3 -3.45,-82.29 -10.17,-83.43" fill="none" stroke="rgb(220, 208, 186)" stroke-width="2" stroke-linejoin="round" filter="url(#fuzzy)" /><polyline points="8.81,-86.81 9.92,-86.63 10.91,-86.38 12.11,-86.05 13.43,-85.68 14.81,-85.25 16.23,-84.79 17.63,-84.32 18.97,-83.87 20.18,-83.44 21.23,-83.07 22.11,-82.75 22.85,-82.47 23.47,-82.23 23.96,-82.03 24.27,-81.91 24.3,-81.92 23.92,-82.12 23.06,-82.53 21.78,-83.1" fill="none" stroke="rgb(220, 208, 186)" stroke-width="2" stroke-linejoin="round" filter="url(#fuzzy)" /><polyline points="39.19,-72.18 39.92,-71.66 40.67,-71.04 41.47,-70.28 42.35,-69.42 43.21,-68.57 43.96,-67.8 44.56,-67.16 44.97,-66.68 45.17,-66.37 45.14,-66.25 44.89,-66.3 44.41,-66.53 43.71,-66.93 42.76,-67.53 41.51,-68.38 39.92,-69.51 37.96,-70.95 35.69,-72.65 33.2,-74.59 30.55,-76.74 27.51,-79.27" fill="none" stroke="rgb(220, 208, 186)" stroke-width="2" stroke-linejoin="round" filter="url(#fuzzy)" /><polyline points="-5.32,-87.1 -5.39,-87.21 -4.62,-87.31 -3.64,-87.38 -2.54,-87.41 -1.35,-87.42 -0.15,-87.41 0.96,-87.38 1.93,-87.34 2.73,-87.29 3.37,-87.24 3.82,-87.19 4.1,-87.13 4.16,-87.05 3.97,-86.97 3.5,-86.86 2.7,-86.74 1.53,-86.61 -0.02,-86.46 -1.92,-86.31 -4.11,-86.18 -6.59,-86.09 -9.6,-85.99" fill="none" stroke="rgb(220, 208, 186)" stroke-width="2" stroke-linejoin="round" filter="url(#fuzzy)" /><polyline points="44.71,-67.32 44.9,-67 45.5,-66.33 46.18,-65.56 46.74,-64.89 47.12,-64.38 47.32,-64 47.36,-63.73 47.21,-63.58 46.84,-63.59 46.2,-63.83 45.27,-64.33 44.06,-65.09 42.56,-66.1 40.76,-67.37 38.62,-68.9 36.11,-70.69 33.21,-72.78 29.94,-75.17 26.36,-77.89 22.48,-80.96" fill="none" stroke="rgb(220, 208, 186)" stroke-width="2" stroke-linejoin="round" filter="url(#fuzzy)" /><polyline points="-32.75,-77.37 -32.11,-77.48 -30.62,-77.92 -28.52,-78.45 -25.97,-78.99 -23.07,-79.51 -19.82,-80.02 -16.23,-80.53 -12.32,-81.08 -8.17,-81.67 -3.88,-82.27 0.47,-82.87 4.83,-83.39 9.23,-83.82 13.69,-84.15" fill="none" stroke="rgb(220, 208, 186)" stroke-width="2" stroke-linejoin="round" filter="url(#fuzzy)" /><polyline points="-27.87,-80.05 -28.23,-80.01 -27.56,-80.39 -26.66,-80.84 -25.73,-81.28 -24.88,-81.65 -24.19,-81.91 -23.73,-82.02 -23.5,-81.99 -23.52,-81.8 -23.8,-81.45 -24.34,-80.93 -25.15,-80.22 -26.24,-79.32 -27.61,-78.21 -29.29,-76.88 -31.32,-75.31 -33.76,-73.5 -36.61,-71.47 -39.85,-69.23 -43.5,-66.78" fill="none" stroke="rgb(220, 208, 186)" stroke-width="2" stroke-linejoin="round" filter="url(#fuzzy)" /><polyline points="29.98,-79.39 30.77,-78.66 31.55,-77.99 32.58,-77.2 33.82,-76.28 35.18,-75.25 36.57,-74.15 37.89,-73.06 39.08,-72.06 40.09,-71.21 40.93,-70.51 41.6,-69.96 42.11,-69.54 42.47,-69.25 42.65,-69.11 42.62,-69.16 42.34,-69.43 41.8,-69.91 41.02,-70.57 39.97,-71.41" fill="none" stroke="rgb(220, 208, 186)" stroke-width="2" stroke-linejoin="round" filter="url(#fuzzy)" /><polyline points="48.55,-63.37 49.47,-61.97 50.45,-60.62 51.36,-59.36 52.15,-58.25 52.83,-57.26 53.45,-56.36 54.03,-55.51 54.57,-54.7 55.08,-53.92 55.54,-53.2 55.91,-52.58 56.17,-52.11 56.29,-51.83 56.27,-51.78 56.08,-51.99 55.7,-52.5 55.09,-53.36 54.2,-54.63 53.02,-56.35 51.57,-58.47 49.95,-60.84" fill="none" stroke="rgb(220, 208, 186)" stroke-width="2" stroke-linejoin="round" filter="url(#fuzzy)" /><polyline points="-32.75,-77.37 -32.43,-77.45 -31.9,-77.76 -31.39,-78.02 -31.05,-78.13 -30.99,-78.02 -31.22,-77.69 -31.72,-77.11 -32.51,-76.26 -33.64,-75.1 -35.2,-73.55 -37.31,-71.56 -40.02,-69.06 -43.35,-66.07 -47.27,-62.58" fill="none" stroke="rgb(220, 208, 186)" stroke-width="2" stroke-linejoin="round" filter="url(#fuzzy)" /><polyline points="64.98,-32.66 21.08,-61.56 -0.3,-71.45 -4.29,-76.09 0.49,-77.37 8.08,-76.34 13.9,-74.59 15.67,-73.23 14.33,-72.26 12.7,-70.83 12.82,-68.16 14.19,-64.31 14.24,-60.31 10.83,-57.51 4.36,-56.64 -2.6,-57.5 -8.2,-59.41 -13.76,-61.95 -22.54,-64.41 -35.53,-65.3 -41.18,-71.07" fill="none" stroke="rgb(220, 208, 186)" stroke-width="2" stroke-linejoin="round" filter="url(#fuzzy)" /><polyline points="44.71,-67.32 36.49,-68.12 13.16,-70.2 -6.29,-68.74 -12.73,-66.25 -8.01,-65.21 0.64,-66.15 6.86,-68.13 8.59,-69.72 7.64,-69.89 7.12,-68.55 8.86,-66.49 12.29,-64.84 15.45,-64.35 17.12,-64.82 18.33,-65.14 21.77,-63.95 29.15,-60.75 38.54,-57.14 44.47,-56.69 42.18,-62.51 34.4,-72.15 39.19,-72.18" fill="none" stroke="rgb(220, 208, 186)" stroke-width="2" stroke-linejoin="round" filter="url(#fuzzy)" /><polyline points="65.23,-32.33 33.89,-60.83 28.84,-63.82 21.59,-63.1 13.38,-63.52 8.75,-65.17 7.87,-67.95 8.87,-71.37 10.98,-74.19 14.82,-75.04 20.84,-73.42 27.84,-70.27 32.87,-67.51 33.18,-66.7 28.57,-67.07 21.25,-64.55 6.66,-55.72 -55.18,-53.88" fill="none" stroke="rgb(220, 208, 186)" stroke-width="2" stroke-linejoin="round" filter="url(#fuzzy)" /><polyline points="2.47,-87.31 -4.18,-77.93 -2.31,-72.11 -4.17,-68.27 -4.96,-66.57 -3.44,-67.44 -0.14,-69.86 4.23,-72.02 8.85,-72.69 12.93,-71.74 16.32,-69.84 19.4,-67.94 22.33,-66.89 24.45,-67.18 24.48,-68.82 21.4,-71.23 15.26,-73.31 7.65,-73.7 2.44,-71.15 5.94,-65.5 19.04,-62.29 6.18,-87.11" fill="none" stroke="rgb(220, 208, 186)" stroke-width="2" stroke-linejoin="round" filter="url(#fuzzy)" /><polyline points="-54.06,-55.69 -16.6,-63.86 16.8,-60.93 32.05,-57.62 31.22,-57.24 21,-60.17 8.09,-64.88 -3.2,-69.18 -11.05,-71.35 -14.99,-70.93 -15.01,-68.77 -11.52,-66.45 -5.4,-65.35 2.14,-65.82 9.58,-67.2 14.47,-68.48 13.21,-69.24 3.12,-70.01 -12.71,-72.12 -23.02,-77.36 -24.13,-82.31" fill="none" stroke="rgb(220, 208, 186)" stroke-width="2" stroke-linejoin="round" filter="url(#fuzzy)" /><polyline points="-4.24,-87.33 -7.31,-64.5 14.44,-58.81 29.92,-59.15 37.01,-59.33 35.75,-59.48 26.57,-60.75 12.26,-63 -2.44,-65.31 -12.93,-66.93 -16.53,-67.67 -12.83,-67.84 -3.61,-68.13 6.67,-69.61 11.32,-73.24 6,-78.78 -2.06,-83.86 9.79,-86.64" fill="none" stroke="rgb(220, 208, 186)" stroke-width="2" stroke-linejoin="round" filter="url(#fuzzy)" /><polyline points="44.53,-67.16 -5.02,-66.4 -8.82,-64.01 -0.53,-66.13 6.07,-70.55 9.24,-73.77 10.27,-74.16 10,-72.14 8.64,-69.09 6.57,-66.29 4.89,-64.43 5.15,-63.61 8.46,-63.68 14.6,-64.33 22.09,-65.2 29.01,-65.95 33.8,-66.67 35.39,-67.98 32.87,-70.61 26.37,-74.22 21.7,-75.92 44.53,-67.16" fill="none" stroke="rgb(220, 208, 186)" stroke-width="2" stroke-linejoin="round" filter="url(#fuzzy)" /><polyline points="49.42,-61.75 41.92,-66.57 37.35,-68.82 35.73,-67.34 31.3,-65.97 24.8,-65.79 20.61,-65.81 21.18,-65.07 25.09,-63.57 28.77,-61.95 29.41,-60.82 26.44,-60.4 21.09,-60.63 14.85,-61.32 8.14,-62.38 0.79,-63.9 -5.82,-66.36 -7.37,-70.17 -3.47,-74.81 -26.75,-80.77" fill="none" stroke="rgb(220, 208, 186)" stroke-width="2" stroke-linejoin="round" filter="url(#fuzzy)" /><polyline points="23.13,-82.61 10.75,-73.71 -9.66,-70.26 -14.98,-71.39 -9.9,-73.04 -2.16,-72.44 4.73,-69.48 10.74,-65.75 16.67,-63.15 22.15,-62.86 25.56,-65.11 25.54,-69.36 22.7,-74.48 19.66,-78.91 19.2,-80.98 22.88,-79.01 33.57,-69.66 60.44,-43.58" fill="none" stroke="rgb(220, 208, 186)" stroke-width="2" stroke-linejoin="round" filter="url(#fuzzy)" /><polyline points="20.25,-83.6 26.1,-79.21 24.12,-79.14 21.69,-77.96 17.04,-76.36 11.4,-75.02 8.15,-73.66 9.12,-71.78 13.09,-69.45 16.98,-67.61 18.21,-67.3 16.6,-68.56 14.31,-69.94 14.17,-69.27 17.6,-64.95 22.16,-56.89 13.37,-48.59 -53.23,-57.21" fill="none" stroke="rgb(220, 208, 186)" stroke-width="2" stroke-linejoin="round" filter="url(#fuzzy)" /><polyline points="41.29,-70.73 -14.89,-64.71 -22.3,-63.71 -11.19,-63.66 -1.19,-64.23 2.04,-65.58 0.95,-67.09 -1.13,-68.03 -3.16,-68.14 -5.57,-67.64 -8.38,-66.9 -10.4,-66.26 -10.16,-66.05 -7.18,-66.48 -2.65,-67.57 1.35,-68.95 3.26,-69.98 3.02,-70.1 2.05,-69.12 2.56,-67.34 6.56,-65.23 14.16,-63.11 20.55,-60.9 12.57,-58.96 -42.84,-69.48" fill="none" stroke="rgb(220, 208, 186)" stroke-width="2" stroke-linejoin="round" filter="url(#fuzzy)" /><polyline points="44.71,-67.32 28.08,-53.98 -3.36,-57.78 -18.72,-63.35 -17,-67.14 -5.59,-68.92 7.53,-69.43 17.05,-69.92 21.07,-71.47 20.59,-74.15 18.45,-76.69 18.05,-77.31 21.75,-75.07 29.17,-70.89 36.73,-66.79 42.54,-61.29 63.44,-37.42" fill="none" stroke="rgb(220, 208, 186)" stroke-width="2" stroke-linejoin="round" filter="url(#fuzzy)" /><polyline points="-16.13,-85.1 -0.99,-77.87 5.01,-72.1 5.11,-71.75 8.51,-72.97 15.65,-73.22 23.14,-71.93 27.89,-69.94 28.54,-68.65 25.89,-68.85 22.71,-69.9 21.77,-70.4 22.44,-69.73 18.74,-68.95 3.26,-69.43 -21.6,-71.3 -27.02,-80.75" fill="none" stroke="rgb(220, 208, 186)" stroke-width="2" stroke-linejoin="round" filter="url(#fuzzy)" /><polyline points="21.15,-83.62 4.25,-77.11 19.06,-69.31 32.03,-62.97 35.77,-60.6 32.24,-61.63 25.33,-64.2 18.27,-66.54 13.08,-67.45 10.92,-66.55 12.07,-64.36 15.68,-62.12 19.74,-61.28 21.9,-62.81 21.01,-66.5 17.92,-71 14.71,-74.59 12.48,-76.46 9.81,-77.32 4.24,-78.69 -2.59,-81.3 -0.95,-84.07 17.94,-84.51" fill="none" stroke="rgb(220, 208, 186)" stroke-width="2" stroke-linejoin="round" filter="url(#fuzzy)" /><polyline points="22.49,-97.34 21,-96.8 19.58,-95.91 18.1,-94.96 16.69,-94.34 15.42,-94.23 14.29,-94.54 13.22,-94.93 12.12,-95.01 10.93,-94.58 9.63,-93.72 8.26,-92.7 6.9,-91.88 5.6,-91.5 4.41,-91.7 3.29,-92.43 2.2,-93.44 1.05,-94.11 -0.26,-93.41 -1.81,-90.54 -3.17,-87.46" fill="none" stroke="rgb(220, 208, 186)" stroke-width="2" stroke-linejoin="round" filter="url(#fuzzy)" /><polyline points="-3.17,-87.46 -3.84,-87.86 -4.63,-87.69 -5.53,-87.43 -6.55,-87.2 -7.65,-87.01 -8.78,-86.86 -9.88,-86.71 -10.97,-86.55 -12.06,-86.37 -13.19,-86.18 -14.33,-85.99 -15.44,-85.81 -16.52,-85.65 -17.53,-85.5 -18.51,-85.32 -19.46,-85.09 -20.4,-84.79 -21.35,-84.44 -22.32,-84.04 -23.36,-83.62 -24.51,-83.17 -25.72,-82.7 -26.82,-82.3 -27.5,-82.17 -3.82,-87.57 -4.59,-87.77 -5.52,-87.86 -6.52,-87.75 -7.63,-87.58 -8.79,-87.47 -9.9,-87.51 -10.99,-87.69 -12.1,-87.93 -13.29,-88.12 -14.55,-88.21 -15.79,-88.24 -16.93,-88.3 -17.92,-88.45 -18.85,-88.68 -20.02,-88.86 -22.07,-88.55 -5.32,-87.1 -7.45,-86.73 -8.92,-86.21 -9.93,-85.39 -10.71,-84.28 -11.5,-82.92 -12.34,-81.37 -13.21,-79.68 -14,-77.95 -14.67,-76.29 -15.24,-74.76 -15.78,-73.4 -16.35,-72.09 -16.92,-70.65 -17.3,-68.84 -17.76,-67.7 -5.32,-87.1 -5.43,-87.22 -4.77,-87.38 -3.91,-87.51 -2.93,-87.6 -1.82,-87.67 -0.63,-87.72 0.57,-87.77 1.72,-87.82 2.82,-87.88 3.9,-87.96 5,-88.06 6.18,-88.15 7.42,-88.2 8.68,-88.18 9.83,-88.1 10.79,-87.99 12.08,-87.69" fill="none" stroke="rgb(220, 208, 186)" stroke-width="2" stroke-linejoin="round" filter="url(#fuzzy)" /><polyline points="-5.32,-87.1 -5.5,-88.36 -4.9,-89.94 -4.07,-90.81 -3.08,-91.23 -1.92,-91.78 -0.66,-92.69 0.61,-93.71 1.82,-94.49 2.98,-94.92 4.12,-95.27 5.33,-96.01 6.71,-97.5 8.35,-99.76 10.35,-102.1 12.44,-102.58 -10.62,-86.14 -11.83,-86.61 -13.36,-86.34 -14.78,-86.15 -16.01,-86.21 -17.1,-86.47 -18.13,-86.79 -19.14,-87 -20.15,-87.03 -21.15,-86.91 -22.18,-86.75 -23.28,-86.67 -24.49,-86.66 -25.8,-86.69 -27.19,-86.76 -28.6,-86.98 -29.98,-87.43 -31.06,-88.01 -30.86,-88.65" fill="none" stroke="rgb(220, 208, 186)" stroke-width="2" stroke-linejoin="round" filter="url(#fuzzy)" /><polyline points="-10.62,-86.14 -10.44,-86.44 -9.47,-87.06 -8.28,-88.17 -7.17,-89.65 -6.18,-91.15 -5.25,-92.37 -4.3,-93.32 -3.25,-94.24 -2.1,-95.36 -0.85,-96.7 0.45,-98.03 1.73,-99.03 2.96,-99.6 4.16,-99.92 5.38,-100.4 6.69,-101.31 8.24,-102.74 10.68,-105.23 -15.46,-85.09 -14.18,-88.48 -13.03,-91.05 -12,-91.82 -11.04,-92.27 -10.03,-93.04 -8.95,-94.17 -7.87,-95.53 -6.81,-96.99 -5.79,-98.51 -4.77,-100.07 -3.69,-101.62 -2.49,-103.01 -1.16,-104.08 0.26,-104.84 1.68,-105.54 3.06,-106.69 4.41,-108.88 5.93,-112.27 8.18,-115.26 -36.54,-67.69 -36.1,-68.6 -35.24,-69.6 -34.4,-70.65 -33.63,-71.6 -32.91,-72.46 -32.2,-73.3 -31.48,-74.09 -30.73,-74.8 -29.95,-75.42 -29.16,-75.97 -28.39,-76.52 -27.62,-77.1 -26.83,-77.71 -25.99,-78.32 -25.07,-78.94 -24.09,-79.57 -23.1,-80.25 -22.14,-80.97 -21.25,-81.7 -20.38,-82.41 -19.49,-83.06 -18.57,-83.6 -17.79,-84.01 -17.65,-84.74" fill="none" stroke="rgb(220, 208, 186)" stroke-width="2" stroke-linejoin="round" filter="url(#fuzzy)" /><polyline points="-17.65,-84.74 -16.75,-86.96 -15.81,-89.11 -14.58,-90.23 -13.31,-90.71 -12.13,-90.93 -11.04,-91.31 -9.97,-92.13 -8.91,-93.45 -7.86,-95.18 -6.84,-97.19 -5.86,-99.35 -4.86,-101.6 -3.8,-103.89 -2.59,-106.2 -1.23,-108.45 0.25,-110.48 1.75,-112.03 3.13,-113 4.33,-114.07 5.15,-117.45 -18.04,-84.67 -19.83,-83.9 -20.75,-83.2 -21.54,-82.48 -22.41,-81.74 -23.37,-80.95 -24.33,-80.08 -25.24,-79.18 -26.09,-78.34 -26.89,-77.61 -27.65,-76.97 -28.39,-76.35 -29.12,-75.7 -29.84,-74.97 -30.53,-74.16 -31.19,-73.24 -31.8,-72.2 -32.36,-71.04 -32.92,-69.8 -33.52,-68.55 -34.22,-67.36 -35.01,-66.3 -35.8,-65.38 -36.42,-64.61 -36.43,-64.26" fill="none" stroke="rgb(220, 208, 186)" stroke-width="2" stroke-linejoin="round" filter="url(#fuzzy)" /><polyline points="-6.94,-94.62 -7.05,-94.37 -8.25,-93.82 -9.56,-93.33 -10.69,-92.73 -11.68,-91.96 -12.68,-91.04 -13.73,-90.06 -14.83,-89.1 -15.89,-88.24 -16.89,-87.52 -17.82,-86.97 -18.72,-86.53 -19.63,-86.12 -20.52,-85.62 -21.35,-85 -22.13,-84.44 -23.03,-83.98 -24.13,-82.31 -25.39,-81.43 -26.27,-89.73 -24.87,-89.61 -23.41,-88.59 -22.33,-88.71 -21.62,-90.48 -21.2,-93.56 -20.87,-97.1 -20.44,-100.31 -19.76,-102.87 -18.84,-104.97 -17.73,-106.97 -16.56,-109.03 -15.4,-110.99 -14.27,-112.58 -13.08,-113.73 -11.74,-114.67 -10.17,-115.45 -8.68,-115.79 -8.55,-116.53" fill="none" stroke="rgb(220, 208, 186)" stroke-width="2" stroke-linejoin="round" filter="url(#fuzzy)" /><polyline points="-7.33,-78.84 -8.62,-79.79 -9.6,-80.48 -10.48,-80.99 -11.47,-81.22 -12.57,-81.22 -13.71,-81.15 -14.83,-81.15 -15.89,-81.32 -16.92,-81.6 -17.92,-81.89 -18.91,-82.07 -19.88,-82.09 -20.85,-81.98 -21.85,-81.78 -22.92,-81.55 -24.07,-81.26 -25.25,-80.89 -26.4,-80.37 -27.58,-79.77 -29.47,-79.46" fill="none" stroke="rgb(220, 208, 186)" stroke-width="2" stroke-linejoin="round" filter="url(#fuzzy)" /><polyline points="-31.74,-77.94 -30.75,-78.42 -29.73,-78.6 -28.78,-78.65 -27.86,-78.68 -26.9,-78.73 -25.85,-78.78 -24.71,-78.79 -23.52,-78.71 -22.33,-78.59 -21.18,-78.45 -20.11,-78.34 -19.1,-78.29 -18.14,-78.28 -17.21,-78.25 -16.27,-78.12 -15.28,-77.82 -14.21,-77.36 -13.07,-76.82 -11.89,-76.31 -10.77,-75.82 -9.77,-75.2 -8.88,-74.26 -7.92,-73.19 -6.77,-72.82 -35.48,-75.45 -34.6,-78.85 -33.64,-79.75 -32.64,-80.08 -31.72,-80.55 -30.93,-81.29 -30.22,-82.17 -29.5,-82.99 -28.68,-83.65 -27.73,-84.17 -26.68,-84.65 -25.59,-85.23 -24.54,-85.97 -23.57,-86.91 -22.69,-87.98 -21.85,-89.1 -21.01,-90.12 -20.15,-90.93 -19.27,-91.52 -18.42,-92.03 -17.57,-92.71 -16.65,-93.82 -15.58,-95.79 -20.53,-108.36 -21.4,-106.09 -22.05,-104.44 -22.86,-103.03 -23.8,-101.7 -24.81,-100.61 -25.9,-99.81 -27.09,-99.2 -28.31,-98.57 -29.47,-97.69 -30.48,-96.44 -31.29,-94.81 -31.91,-92.92 -32.4,-90.94 -32.84,-88.99 -33.24,-87.06 -33.59,-85.06 -33.9,-82.94 -34.2,-80.82 -34.57,-78.94 -35.06,-77.49 -35.61,-76.37 -36.28,-75.21 -37.52,-73.34" fill="none" stroke="rgb(220, 208, 186)" stroke-width="2" stroke-linejoin="round" filter="url(#fuzzy)" /><polyline points="-38.74,-72.92 -37.45,-73.78 -36.4,-74.93 -35.59,-75.92 -34.8,-76.68 -33.95,-77.25 -33.05,-77.75 -32.15,-78.25 -31.28,-78.78 -30.46,-79.37 -29.67,-79.98 -28.9,-80.61 -28.11,-81.25 -27.25,-81.92 -26.31,-82.61 -25.28,-83.28 -24.19,-83.88 -23.12,-84.39 -22.14,-84.84 -21.28,-85.34 -20.33,-86.06 -18.58,-87.19" fill="none" stroke="rgb(220, 208, 186)" stroke-width="2" stroke-linejoin="round" filter="url(#fuzzy)" /><polyline points="-38.74,-72.92 -41.65,-76.23 -44.52,-78.73 -47.29,-80.9 -49.13,-81.44 -49.9,-80.24 -50.06,-78.05 -50.1,-75.77 -50.37,-73.94 -51.01,-72.72 -52,-72.02 -53.31,-71.67 -54.87,-71.54 -56.61,-71.55 -58.47,-71.64 -60.37,-71.78 -62.28,-71.95 -64.19,-72.17 -66.16,-72.51 -68.25,-73.12 -70.35,-73.86 -72.1,-74.27 -39.04,-72.33 -40.46,-71.6 -41.4,-70.87 -42.31,-70.07 -43.2,-69.26 -44.07,-68.45 -44.89,-67.65 -45.66,-66.88 -46.4,-66.13 -47.14,-65.36 -47.91,-64.56 -48.73,-63.7 -49.58,-62.82 -50.44,-61.95 -51.28,-61.11 -52.09,-60.29 -52.84,-59.48 -53.51,-58.7 -54.06,-57.97 -54.5,-57.27" fill="none" stroke="rgb(220, 208, 186)" stroke-width="2" stroke-linejoin="round" filter="url(#fuzzy)" /><polyline points="-41.18,-71.07 -41.61,-71 -42.54,-70.33 -43.42,-69.49 -44.24,-68.58 -45.01,-67.71 -45.77,-66.92 -46.54,-66.21 -47.33,-65.51 -48.17,-64.78 -49.04,-63.99 -49.92,-63.15 -50.79,-62.29 -51.65,-61.46 -52.5,-60.7 -53.35,-60.01 -54.17,-59.4 -54.89,-58.83 -55.48,-58.26 -56.1,-57.79" fill="none" stroke="rgb(220, 208, 186)" stroke-width="2" stroke-linejoin="round" filter="url(#fuzzy)" /><polyline points="-43.31,-68.97 -42.97,-72.97 -41.82,-73.62 -40.57,-73.87 -39.4,-74.37 -38.35,-75.18 -37.45,-76.25 -36.71,-77.49 -36.07,-78.81 -35.47,-80.16 -34.88,-81.52 -34.3,-82.92 -33.74,-84.41 -33.24,-86.04 -32.79,-87.74 -32.38,-89.41 -31.89,-90.82 -31.18,-91.81 -30.18,-92.37 -29.11,-93.37 -47.02,-64.42 -46.16,-65.16 -45.25,-65.32 -44.23,-65.5 -43.15,-65.83 -42.11,-66.32 -41.07,-66.81 -39.97,-67.15 -38.76,-67.3 -37.49,-67.35 -36.24,-67.48 -35.07,-67.8 -33.99,-68.24 -32.96,-68.63 -31.93,-68.82 -30.89,-68.81 -29.81,-68.68 -28.71,-68.34 -27.51,-67.57" fill="none" stroke="rgb(220, 208, 186)" stroke-width="2" stroke-linejoin="round" filter="url(#fuzzy)" /><polyline points="-47.61,-64.27 -48.75,-62.79 -49.73,-61.81 -50.62,-61.01 -51.47,-60.28 -52.24,-59.54 -52.92,-58.74 -53.52,-57.87 -54.1,-56.93 -54.74,-55.92 -55.48,-54.86 -56.29,-53.75 -57.15,-52.6 -58,-51.45 -58.79,-50.32 -59.5,-49.25 -60.14,-48.24 -60.73,-47.31 -61.3,-46.46 -61.86,-45.64 -62.38,-44.71 -62.73,-43.56" fill="none" stroke="rgb(220, 208, 186)" stroke-width="2" stroke-linejoin="round" filter="url(#fuzzy)" /><polyline points="-65.6,-40.73 -64.63,-42.01 -63.78,-43.42 -63.05,-44.65 -62.41,-45.7 -61.86,-46.68 -61.37,-47.67 -60.89,-48.71 -60.34,-49.79 -59.68,-50.89 -58.89,-52.01 -57.99,-53.12 -57.01,-54.19 -56.02,-55.19 -55.1,-56.11 -54.29,-56.95 -53.58,-57.72 -52.88,-58.42 -52.08,-59.07 -51.27,-59.74 -50.84,-60.58 -53.05,-57.77 -53.55,-57.4 -54.23,-56.83 -54.98,-55.95 -55.86,-54.9 -56.83,-53.78 -57.84,-52.67 -58.82,-51.62 -59.73,-50.62 -60.55,-49.68 -61.3,-48.77 -62.02,-47.9 -62.74,-47.03 -63.51,-46.13 -64.34,-45.15 -65.18,-44.07 -65.98,-42.94 -66.7,-41.89 -67.29,-41.08 -67.7,-40.54 -68.04,-39.93 -68.79,-47.76 -67.52,-48.34 -66.19,-48.76 -64.9,-49.06 -63.67,-49.42 -62.47,-49.89 -61.37,-50.51 -60.41,-51.39 -59.65,-52.57 -59.02,-54 -58.38,-55.47 -57.55,-56.73 -56.63,-57.74 -55.97,-58.73 -55.55,-59.57 -53.05,-57.77 -55.9,-52.23 -57.11,-51.37 -58.12,-50.31 -58.78,-49.23 -59.26,-48.16 -59.7,-47.14 -60.22,-46.2 -60.88,-45.33 -61.67,-44.47 -62.55,-43.57 -63.4,-42.58 -64.15,-41.54 -64.74,-40.49 -65.22,-39.44 -65.67,-38.34 -66.23,-37.1 -66.98,-35.63 -67.79,-33.96 -68.55,-31.94" fill="none" stroke="rgb(220, 208, 186)" stroke-width="2" stroke-linejoin="round" filter="url(#fuzzy)" /><polyline points="67.62,-22.1 67.19,-22.83 66.66,-23.84 65.96,-25.07 65.03,-26.31 63.98,-27.46 62.98,-28.51 62.16,-29.49 61.5,-30.39 60.95,-31.23 60.43,-32.05 59.87,-32.85 59.2,-33.63 58.3,-34.34 57.06,-34.93 55.47,-35.38 53.66,-35.68 51.93,-35.89 50.66,-36.15 49.96,-36.55 48.64,-36.64" fill="none" stroke="rgb(220, 208, 186)" stroke-width="2" stroke-linejoin="round" filter="url(#fuzzy)" /><polyline points="-49.59,-85.58 -49.39,-84.29 -50.24,-83.07 -51.18,-81.91 -51.77,-80.32 -51.99,-78.29 -51.98,-76.08 -51.96,-73.97 -52.1,-72.1 -52.47,-70.49 -53,-69.06 -53.59,-67.7 -54.17,-66.36 -54.73,-65.06 -55.33,-63.89 -56.01,-62.91 -56.72,-62.06 -57.36,-61.18 -57.77,-60.03 -57.8,-58.34 -57.39,-55.98 -56.79,-53.32 -56.82,-51.56 -52.03,-74.38 -52.62,-72.72 -53.13,-71.11 -53.46,-69.22 -53.63,-67.24 -53.78,-65.38 -54.04,-63.79 -54.43,-62.49 -54.9,-61.39 -55.32,-60.33 -55.58,-59.15 -55.66,-57.73 -55.67,-56.06 -55.76,-54.26 -56.12,-52.61 -56.82,-51.56 -59.69,-44.86 -60.08,-44.53 -60.42,-43.36 -60.85,-41.98 -61.37,-40.67 -61.87,-39.48 -62.28,-38.35 -62.61,-37.21 -62.89,-36 -63.13,-34.73 -63.32,-33.44 -63.45,-32.19 -63.49,-30.98 -63.44,-29.74 -63.32,-28.43 -63.18,-26.98 -63.08,-25.42 -63.06,-23.78 -63.1,-22.15 -63.18,-20.6 -63.27,-19.2 -63.36,-18.02 -63.35,-16.81" fill="none" stroke="rgb(220, 208, 186)" stroke-width="2" stroke-linejoin="round" filter="url(#fuzzy)" /><polyline points="-52.23,-75.33 -52.46,-74.34 -52.78,-72.8 -53.43,-71.4 -54.26,-70.16 -55.07,-68.94 -55.68,-67.61 -56.04,-66.1 -56.19,-64.47 -56.29,-62.86 -56.5,-61.4 -56.9,-60.15 -57.52,-59.04 -58.25,-57.92 -58.92,-56.62 -59.37,-55.02 -59.52,-53.13 -59.43,-51.13 -59.26,-49.24 -59.2,-47.58 -59.38,-46.12 -59.69,-44.86 -59.69,-44.86 -59.64,-46.28 -59.1,-47.41 -58.55,-48.48 -58,-49.65 -57.42,-50.95 -56.78,-52.33 -56.12,-53.71 -55.49,-55.02 -54.94,-56.25 -54.51,-57.41 -54.19,-58.52 -53.85,-59.59 -53.37,-60.6 -52.82,-61.58 -52.76,-62.87" fill="none" stroke="rgb(220, 208, 186)" stroke-width="2" stroke-linejoin="round" filter="url(#fuzzy)" /><polyline points="-61.06,-42.4 -64.07,-42.04 -64.9,-40.95 -65.32,-39.93 -66.1,-39.1 -67.53,-38.44 -69.53,-37.92 -71.84,-37.53 -74.1,-37.21 -76.07,-36.82 -77.66,-36.22 -79.01,-35.33 -80.44,-34.2 -82.26,-32.95 -84.45,-31.66 -86.57,-30.24 -88.05,-28.58 -88.98,-26.91 -90.7,-26.41 -47.87,-69.05 -48.28,-68.38 -48.96,-67.47 -49.7,-66.36 -50.43,-65.16 -51.15,-63.97 -51.83,-62.83 -52.44,-61.73 -52.99,-60.65 -53.5,-59.57 -53.99,-58.5 -54.53,-57.43 -55.15,-56.36 -55.85,-55.26 -56.58,-54.08 -57.29,-52.82 -57.91,-51.49 -58.42,-50.14 -58.85,-48.82 -59.25,-47.59 -59.66,-46.5 -60.1,-45.51 -60.56,-44.55 -60.98,-43.43 -61.39,-41.98 -62.01,-40.09 -62.94,-38.09 -63.14,-36.46 -63.3,-34.53 -63.14,-32.78 -62.64,-31.28 -62.07,-29.96 -61.75,-28.76 -61.82,-27.59 -62.19,-26.37 -62.62,-25.02 -62.83,-23.52 -62.67,-21.88 -62.08,-20.17 -61.06,-18.5 -59.88,-17.02 -59.51,-15.79" fill="none" stroke="rgb(220, 208, 186)" stroke-width="2" stroke-linejoin="round" filter="url(#fuzzy)" /><polyline points="-65.07,-32.48 -66.1,-31.11 -66.96,-29.74 -67.47,-28.15 -67.82,-26.47 -68.15,-24.82 -68.49,-23.27 -68.85,-21.88 -69.22,-20.66 -69.62,-19.58 -70.09,-18.56 -70.66,-17.5 -71.33,-16.34 -72.05,-15.07 -72.76,-13.77 -73.43,-12.53 -74.16,-11.35 -75.05,-9.96 -75.77,-8.02 -61.86,-10.53 -61.83,-10.69 -62.45,-11.85 -62.83,-13.27 -62.86,-14.58 -62.7,-15.7 -62.58,-16.68 -62.62,-17.66 -62.85,-18.78 -63.24,-20.11 -63.75,-21.68 -64.36,-23.46 -65.03,-25.39 -65.55,-27.33 -65.72,-29.14 -65.69,-30.58" fill="none" stroke="rgb(220, 208, 186)" stroke-width="2" stroke-linejoin="round" filter="url(#fuzzy)" /><polyline points="71.9,5.09 71.71,2.67 71.55,1.47 71.44,0.47 71.42,-0.67 71.43,-1.96 71.4,-3.34 71.31,-4.75 71.13,-6.16 70.91,-7.56 70.68,-8.95 70.47,-10.35 70.27,-11.76 70.1,-13.17 69.92,-14.57 69.73,-15.92 69.5,-17.21 69.21,-18.44 68.84,-19.63 68.42,-20.75 68,-21.79 67.74,-22.57 67.82,-22.57" fill="none" stroke="rgb(220, 208, 186)" stroke-width="2" stroke-linejoin="round" filter="url(#fuzzy)" /><polyline points="75.65,-72 74.66,-68.44 74.09,-65.48 74.23,-63.26 74.53,-61.35 74.55,-59.36 74.23,-57.22 73.76,-55.05 73.36,-52.95 73.12,-50.98 73.01,-49.06 72.94,-47.15 72.79,-45.24 72.54,-43.35 72.2,-41.53 71.81,-39.82 71.33,-38.19 70.66,-36.56 69.72,-34.83 68.59,-32.97 67.53,-31.01 66.86,-29.07 66.71,-27.25 67.02,-25.46 67.82,-22.57" fill="none" stroke="rgb(220, 208, 186)" stroke-width="2" stroke-linejoin="round" filter="url(#fuzzy)" /><polyline points="66.47,-26.39 66.98,-25.82 68.04,-24.63 69.61,-23.72 71.39,-22.96 72.98,-22.15 74.07,-21.16 74.57,-19.96 74.65,-18.59 74.65,-17.12 74.87,-15.63 75.45,-14.16 76.34,-12.73 77.38,-11.32 78.45,-9.9 79.58,-8.45 80.9,-6.96 82.57,-5.43 84.59,-3.86 86.74,-2.27 88.62,-0.74 89.8,0.55 90.28,1.37 91.12,1.67" fill="none" stroke="rgb(220, 208, 186)" stroke-width="2" stroke-linejoin="round" filter="url(#fuzzy)" /><polyline points="63.4,-51.82 63.49,-50.35 63.69,-48.73 63.85,-47.29 63.96,-45.95 64.07,-44.57 64.22,-43.1 64.47,-41.58 64.81,-40.11 65.19,-38.76 65.53,-37.53 65.72,-36.33 65.72,-35.13 65.58,-33.94 65.43,-32.83 65.41,-31.83 65.56,-30.69 66.02,-28.31 65.23,-32.33 66.64,-32.84 66.5,-33.47 66.49,-34.52 66.87,-35.95 67.55,-37.68 68.51,-39.71 69.64,-42 70.72,-44.38 71.49,-46.63 71.84,-48.61 71.84,-50.35 71.69,-51.99 71.58,-53.68 71.61,-55.54 71.75,-57.58 71.93,-59.74 72.01,-61.95 71.9,-64.1 71.58,-66.19 71.14,-68.21 70.72,-70.15 70.43,-71.91 70.64,-73.75 71.85,-77.14 65.32,-66.82 63.72,-65.17 63.36,-63.1 63.65,-61.2 64.02,-59.34 64.12,-57.34 63.99,-55.23 63.81,-53.19 63.68,-51.3 63.52,-49.5 63.21,-47.71 62.72,-45.92 62.2,-44.21 61.9,-42.63 61.98,-41.17 62.18,-39.98 48.21,-54.79 48.71,-54.34 49.53,-54.23 50.41,-54.06 51.27,-53.77 52.07,-53.28 52.82,-52.54 53.58,-51.62 54.4,-50.63 55.32,-49.66 56.28,-48.73 57.21,-47.82 58.05,-46.89 58.77,-45.9 59.35,-44.87 59.85,-43.9 60.39,-43.06 61.15,-42.26 62.15,-40.83" fill="none" stroke="rgb(220, 208, 186)" stroke-width="2" stroke-linejoin="round" filter="url(#fuzzy)" /><polyline points="60.87,-43.97 59.94,-45.18 58.88,-46.14 57.95,-47.05 57.16,-48.04 56.35,-49.05 55.42,-50.01 54.39,-50.86 53.35,-51.6 52.35,-52.24 51.4,-52.73 50.49,-53.08 49.56,-53.32 48.65,-53.54 47.79,-53.91 46.98,-54.57 46.13,-55.53 45.07,-56.32 60.87,-43.97 60.16,-45.35 59.51,-46.66 58.95,-47.87 58.4,-49.1 57.85,-50.4 57.28,-51.74 56.69,-53.08 56.08,-54.32 55.47,-55.4 54.87,-56.34 54.34,-57.18 53.89,-58.03 53.51,-58.94 53.13,-59.96 52.61,-61.12 51.81,-62.38 50.76,-63.43 60.09,-45.27 60.57,-47.76 62.41,-50.9 63.21,-53.22 62.58,-54.51 61.32,-55.39 60.23,-56.45 59.76,-58.03 60.04,-60.19 60.95,-62.84 62.21,-65.73 63.41,-68.54 64.27,-71.07 64.69,-73.35 64.84,-75.73 65.06,-78.7 65.51,-82.28 64.94,-84.77 58.47,-47.79 58.98,-49.68 60.98,-53.5 63.28,-57.71 64.8,-61.22 65.35,-63.76 65.24,-65.52 64.79,-66.77 64.21,-67.78 63.65,-68.77 63.16,-69.91 62.75,-71.31 62.36,-73.02 62.04,-75.11 61.99,-77.63 62.46,-80.43 63.61,-82.86 58.17,-48.27 58.62,-47.73 59.23,-46.86 59.83,-45.82 60.35,-44.78 60.84,-43.74 61.32,-42.66 61.85,-41.5 62.41,-40.26 62.97,-39 63.5,-37.79 63.97,-36.65 64.39,-35.6 64.76,-34.61 65.1,-33.67 65.4,-32.8 65.69,-31.97 66.03,-30.91 66.64,-28.58 58.17,-48.27 58.85,-51.59 59.35,-54.12 58.81,-55.6 58.05,-56.79 57.59,-58.08 57.46,-59.52 57.48,-61.02 57.48,-62.49 57.37,-63.96 57.22,-65.57 57.11,-67.42 57.06,-69.44 57.01,-71.47 56.87,-73.32 56.67,-75.06 56.49,-77.04 56.46,-79.59 56.62,-82.76 57.09,-86.11" fill="none" stroke="rgb(220, 208, 186)" stroke-width="2" stroke-linejoin="round" filter="url(#fuzzy)" /><polyline points="58.84,-28.26 58.75,-29.35 58.54,-30.29 58.41,-31.31 58.42,-32.45 58.52,-33.71 58.59,-35.09 58.56,-36.51 58.44,-37.93 58.27,-39.32 58.16,-40.68 58.13,-42.05 58.15,-43.44 58.11,-44.82 57.93,-46.16 57.58,-47.44 57.12,-48.71 56.67,-50.09 56.28,-51.57 55.75,-53.06 55.75,-53.06 55.01,-54.44 54.67,-55.71 54.52,-56.86 54.32,-57.91 54.04,-58.96 53.74,-60.16 53.48,-61.6 53.27,-63.23 53.07,-64.93 52.81,-66.58 52.48,-68.11 52.07,-69.56 51.59,-70.99 51.05,-72.46 50.41,-73.92 49.64,-75.32 48.72,-76.67 47.74,-78.07 46.96,-79.65 46.59,-81.37 46.11,-83.19" fill="none" stroke="rgb(220, 208, 186)" stroke-width="2" stroke-linejoin="round" filter="url(#fuzzy)" /><polyline points="68.07,-34.22 67.35,-34.92 66.66,-35.77 65.99,-36.67 65.32,-37.63 64.62,-38.69 63.89,-39.86 63.17,-41.06 62.5,-42.23 61.88,-43.35 61.32,-44.43 60.79,-45.5 60.24,-46.58 59.64,-47.66 58.97,-48.76 58.26,-49.88 57.51,-51.06 56.76,-52.32 55.96,-53.64 55.01,-55 53.57,-56.22" fill="none" stroke="rgb(220, 208, 186)" stroke-width="2" stroke-linejoin="round" filter="url(#fuzzy)" /><polyline points="50.45,-60.96 51.7,-59.72 53.22,-59.74 54.67,-59.99 55.68,-59.81 56.32,-59.14 56.92,-58.28 57.88,-57.56 59.36,-57.12 61.28,-56.95 63.42,-56.86 65.5,-56.69 67.41,-56.34 69.2,-55.88 71.06,-55.45 73.05,-55.16 74.89,-54.94 75.9,-54.49 75.64,-53.36 48.39,-63.04 48.73,-62.7 49.37,-61.71 50.08,-60.51 50.76,-59.34 51.4,-58.32 51.97,-57.44 52.49,-56.62 52.99,-55.81 53.5,-54.94 54.04,-53.96 54.6,-52.86 55.15,-51.64 55.67,-50.31 56.13,-48.93 56.52,-47.54 56.86,-46.17 57.18,-44.82 57.49,-43.5 57.74,-42.3 57.54,-41.48 44.71,-67.32 44.94,-67.02 45.67,-66.39 46.54,-65.55 47.37,-64.66 48.12,-63.82 48.86,-63 49.63,-62.17 50.43,-61.31 51.22,-60.41 51.98,-59.53 52.67,-58.7 53.31,-57.95 53.92,-57.25 54.55,-56.56 55.21,-55.8 55.94,-54.89 56.72,-53.8 57.5,-52.67 58.11,-51.87 42.26,-69.28 41.29,-70.39 40.67,-70.94 40.01,-71.34 39.32,-71.71 38.61,-72.16 37.83,-72.74 36.94,-73.44 35.92,-74.23 34.83,-75.02 33.73,-75.76 32.68,-76.39 31.72,-76.91 30.82,-77.34 29.92,-77.71 28.89,-78.08 27.61,-78.52 26.1,-79.03 67.57,-55.23 66.98,-56.39 65.85,-57.64 64.62,-58.78 63.33,-59.75 62.1,-60.6 61.02,-61.38 60.12,-62.14 59.3,-62.85 58.47,-63.51 57.52,-64.09 56.41,-64.57 55.14,-64.96 53.78,-65.27 52.42,-65.57 51.16,-65.93 50.02,-66.4 48.96,-66.96 47.9,-67.59 46.82,-68.24 45.75,-68.99 44.71,-70.02 43.41,-71.37 40.6,-71.12 41.29,-70.73 40.74,-72.55 39.89,-72.97 39.16,-73.47 38.48,-74.38 37.72,-75.57 36.82,-76.78 35.82,-77.89 34.82,-78.91 33.89,-79.96 33.07,-81.1 32.32,-82.34 31.57,-83.62 30.78,-84.89 29.99,-86.14 29.25,-87.46 28.62,-88.91 28.08,-90.55 27.51,-92.29 26.79,-93.97 25.83,-95.42 24.66,-96.56 23.4,-97.53 22.12,-98.63 21.52,-101.35 22.41,-100.2 22.99,-99.11 23.66,-97.6 24.43,-95.77 25.23,-93.85 26.01,-91.99 26.7,-90.23 27.31,-88.6 27.9,-87.07 28.55,-85.68 29.3,-84.46 30.18,-83.48 31.15,-82.72 32.12,-82.06 33.03,-81.3 33.84,-80.27 34.59,-78.9 35.37,-77.32 36.25,-75.76 37.22,-74.44 38.12,-73.44 38.77,-72.72 39.19,-72.18 37.91,-73.77 36.36,-76.07 34.92,-76.93 33.75,-77.48 32.79,-78.11 31.99,-78.9 31.26,-79.89 30.54,-81.09 29.81,-82.48 29.09,-83.99 28.46,-85.51 27.94,-86.95 27.47,-88.27 26.87,-89.46 26,-90.47 24.86,-91.33 23.5,-92.91" fill="none" stroke="rgb(220, 208, 186)" stroke-width="2" stroke-linejoin="round" filter="url(#fuzzy)" /><polyline points="37.91,-73.77 38.26,-73.16 38.76,-72.7 39.38,-72.31 40.11,-71.9 40.93,-71.41 41.86,-70.82 42.89,-70.16 43.99,-69.46 45.12,-68.75 46.24,-68.07 47.34,-67.41 48.41,-66.79 49.47,-66.2 50.52,-65.63 51.59,-65.07 52.66,-64.45 53.7,-63.74 54.64,-62.94 55.45,-62.11 56.15,-61.31 56.79,-60.59 57.39,-59.98 57.93,-59.38 58.84,-58.4" fill="none" stroke="rgb(220, 208, 186)" stroke-width="2" stroke-linejoin="round" filter="url(#fuzzy)" /><polyline points="44.76,-58.31 44.12,-59.13 43.42,-60.32 42.84,-61.65 42.3,-62.98 41.73,-64.34 41.18,-65.82 40.69,-67.37 40.27,-68.85 39.86,-70.1 39.39,-71 38.84,-71.61 38.23,-72.08 37.59,-72.67 36.8,-73.67 35.29,-75.13" fill="none" stroke="rgb(220, 208, 186)" stroke-width="2" stroke-linejoin="round" filter="url(#fuzzy)" /><polyline points="11.32,-73.33 11.7,-73.88 12.77,-74.66 13.94,-75.39 15.03,-75.97 15.99,-76.37 16.85,-76.7 17.72,-77.15 18.7,-77.8 19.81,-78.57 20.99,-79.21 22.12,-79.36 23.07,-78.91 23.8,-78.18 24.45,-78.02 25.31,-79.32 26.61,-80.58" fill="none" stroke="rgb(220, 208, 186)" stroke-width="2" stroke-linejoin="round" filter="url(#fuzzy)" /><polyline points="25.88,-81.3 24.16,-82.66 22.9,-83.23 21.81,-83.79 20.91,-84.59 20.18,-85.59 19.5,-86.57 18.76,-87.33 17.9,-87.88 16.93,-88.32 15.9,-88.78 14.87,-89.32 13.85,-89.91 12.83,-90.48 11.8,-91.03 10.73,-91.59 9.6,-92.21 8.41,-92.86 7.16,-93.45 5.9,-93.9 4.7,-94.24 3.57,-94.66 2.42,-95.41 1.05,-96.88" fill="none" stroke="rgb(220, 208, 186)" stroke-width="2" stroke-linejoin="round" filter="url(#fuzzy)" /><polyline points="23.14,-82.47 22.28,-85.95 21.06,-85.91 20.05,-85.58 19.22,-85.63 18.44,-86.09 17.62,-86.9 16.76,-88.06 15.89,-89.56 15.03,-91.41 14.21,-93.54 13.39,-95.86 12.53,-98.25 11.59,-100.62 10.52,-102.89 9.32,-105.06 8.04,-107.05 6.72,-108.72 5.41,-109.91 4.13,-110.66 2.91,-111.4 1.82,-112.78 1.29,-114.21 20.25,-83.6 21.27,-83.08 22.39,-82.46 23.38,-81.68 24.15,-80.73 24.76,-79.71 25.33,-78.7 25.98,-77.75 26.73,-76.85 27.53,-75.96 28.33,-75.06 29.08,-74.13 29.8,-73.19 30.53,-72.25 31.33,-71.28 32.19,-70.22 33.04,-68.98 33.77,-67.52 34.22,-65.94 34.33,-64.39 34.21,-63 18.93,-84.38 20.71,-86.11 22.47,-87.81 23.81,-87.85 24.81,-86.95 25.61,-85.81 26.37,-84.88 27.26,-84.41 28.42,-84.56 29.91,-85.35 31.67,-86.68 33.59,-88.32 35.57,-90.01 37.57,-91.57 39.61,-92.94 41.78,-94.18 44.09,-95.34 46.43,-96.34 48.56,-96.92 50.23,-96.92 51.42,-96.43 52.46,-95.92 53.99,-96.05 57.31,-98.16" fill="none" stroke="rgb(220, 208, 186)" stroke-width="2" stroke-linejoin="round" filter="url(#fuzzy)" /><polyline points="19.42,-84.07 19.43,-83.68 20.03,-82.79 20.91,-81.9 21.87,-81.06 22.79,-80.27 23.64,-79.59 24.43,-79.02 25.17,-78.48 25.93,-77.85 26.7,-77.07 27.48,-76.15 28.25,-75.17 28.97,-74.18 29.64,-73.17 30.27,-72.08 30.89,-70.8 31.58,-69.35 32.47,-67.89 33.59,-66.68 34.37,-65.78" fill="none" stroke="rgb(220, 208, 186)" stroke-width="2" stroke-linejoin="round" filter="url(#fuzzy)" /><polyline points="17.79,-84.78 16.16,-85.15 14.92,-85.44 13.84,-85.7 12.84,-85.92 11.85,-86.11 10.84,-86.27 9.78,-86.43 8.65,-86.57 7.48,-86.67 6.31,-86.75 5.15,-86.79 4.03,-86.83 2.92,-86.87 1.81,-86.9 0.66,-86.92 -0.53,-86.92 -1.71,-86.88 -2.83,-86.81 -3.83,-86.7 -4.69,-86.56 -5.37,-86.41 -5.28,-86.3" fill="none" stroke="rgb(220, 208, 186)" stroke-width="2" stroke-linejoin="round" filter="url(#fuzzy)" /><polyline points="-12.26,-75.35 -10.71,-76.27 -9.98,-77.5 -9.3,-78.41 -8.45,-78.96 -7.47,-79.29 -6.46,-79.55 -5.5,-79.87 -4.58,-80.36 -3.68,-81.06 -2.74,-81.91 -1.73,-82.81 -0.67,-83.64 0.43,-84.35 1.54,-84.92 2.64,-85.38 3.74,-85.72 4.85,-85.94 6,-86.02 7.18,-85.91 8.37,-85.6 9.49,-85.17 10.55,-84.82 11.74,-84.98 13.31,-86.21 8.81,-86.81 6.97,-87.59 5.78,-88.6 4.72,-89.72 3.7,-90.82 2.64,-91.81 1.5,-92.65 0.27,-93.45 -1,-94.36 -2.27,-95.45 -3.49,-96.58 -4.63,-97.51 -5.74,-98.09 -6.87,-98.35 -8.09,-98.48 -9.38,-98.69 -10.7,-99.12 -11.93,-99.88 -13.09,-101.13 -14.53,-103.02 -17.15,-105.42 3.62,-87.16 4.24,-85.1 5.35,-85.29 6.55,-85.38 7.74,-85.03 8.85,-84.55 9.89,-84.18 10.87,-83.92 11.79,-83.59 12.67,-83.03 13.53,-82.19 14.39,-81.11 15.22,-79.87 15.96,-78.46 16.51,-76.84 16.8,-75.24 16.75,-74.7" fill="none" stroke="rgb(220, 208, 186)" stroke-width="2" stroke-linejoin="round" filter="url(#fuzzy)" /><polyline points="3.62,-87.16 4.32,-86.88 5.4,-86.14 6.58,-85.39 7.75,-84.69 8.84,-83.93 9.81,-83.11 10.69,-82.24 11.53,-81.34 12.35,-80.41 13.17,-79.4 13.98,-78.34 14.77,-77.23 15.49,-76.14 16.13,-75.17 16.68,-74.41 17.16,-73.76 17.65,-72.96 18.32,-72.4" fill="none" stroke="rgb(220, 208, 186)" stroke-width="2" stroke-linejoin="round" filter="url(#fuzzy)" /><polyline points="3.62,-87.16 4.35,-87.23 5.52,-87.57 6.86,-88.27 8.25,-89.29 9.61,-90.53 10.92,-91.78 12.15,-92.85 13.34,-93.61 14.51,-94 15.67,-94.1 16.85,-94.05 18.05,-94.04 19.24,-94.22 20.37,-94.64 21.47,-95.32 22.59,-96.24 23.91,-97.36 25.62,-98.58 27.98,-99.71 24.9,-111.02 24.03,-107.58 22.94,-106.66 21.7,-106.57 20.28,-106.2 18.72,-105.05 17.08,-103.06 15.45,-100.49 13.87,-97.77 12.37,-95.41 10.97,-93.78 9.63,-93.03 8.32,-93 7.04,-93.37 5.8,-93.83 4.64,-94.12 3.54,-93.71 2.37,-91.53 0.95,-87.57" fill="none" stroke="rgb(220, 208, 186)" stroke-width="2" stroke-linejoin="round" filter="url(#fuzzy)" />
    </g>
    
        <g id="lineNose">
        <path d="M -9.28,21.439999999999998 Q 11.23, 25.424999999999997 0.9750000000000005, -4.636" fill="none" stroke="black" stroke-width="3" stroke-linejoin="round" filter="url(#fuzzy)"></path>
        </g>
      
    <g id="mouth">
      <polyline points="-69.2,36.42 -68.56,38.16 -67.87,39.85 -67.13,41.5 -66.34,43.11 -65.51,44.68 -64.63,46.21 -63.71,47.69 -62.75,49.13 -61.75,50.53 -60.71,51.89 -59.63,53.21 -58.51,54.48 -57.35,55.72 -56.16,56.92 -54.93,58.08 -53.67,59.19 -52.37,60.27 -51.05,61.31 -49.69,62.31 -48.3,63.27 -46.89,64.2 -45.45,65.08 -43.98,65.93 -42.49,66.74 -40.97,67.51 -39.43,68.25 -37.87,68.95 -36.28,69.61 -34.68,70.24 -33.06,70.83 -31.42,71.38 -29.76,71.9 -28.09,72.38 -26.4,72.83 -24.7,73.24 -22.99,73.62 -21.26,73.97 -19.53,74.28 -17.78,74.56 -16.03,74.8 -14.27,75.01 -12.51,75.19 -10.74,75.33 -8.96,75.45 -7.18,75.52 -5.41,75.57 -3.63,75.59 -1.85,75.57 -0.07,75.53 1.71,75.45 3.48,75.34 5.25,75.2 7.01,75.03 8.76,74.84 10.51,74.61 12.25,74.35 13.98,74.06 15.7,73.75 17.4,73.4 19.09,73.03 20.77,72.63 22.44,72.2 24.08,71.74 25.71,71.26 27.32,70.74 28.91,70.21 30.48,69.64 32.03,69.05 33.56,68.43 35.06,67.79 36.54,67.12 37.99,66.42 39.42,65.7 40.82,64.96 42.18,64.19 43.52,63.39 44.83,62.58 46.1,61.73 47.34,60.87 48.55,59.98 49.72,59.07 50.85,58.13 51.95,57.17 53.01,56.19 54.03,55.19 55.01,54.17 55.94,53.12 56.83,52.06 57.68,50.97 58.49,49.86 59.24,48.73 59.95,47.58 60.62,46.41 61.23,45.22 61.79,44.01 62.3,42.78 62.76,41.54 63.17,40.27 63.52,38.98 63.81,37.68 63.52,38.98 63.17,40.27 62.76,41.54 62.3,42.78 61.79,44.01 61.23,45.22 60.62,46.41 59.95,47.58 59.24,48.73 58.49,49.86 57.68,50.97 56.83,52.06 55.94,53.12 55.01,54.17 54.03,55.19 53.01,56.19 51.95,57.17 50.85,58.13 49.72,59.07 48.55,59.98 47.34,60.87 46.1,61.73 44.83,62.58 43.52,63.39 42.18,64.19 40.82,64.96 39.42,65.7 37.99,66.42 36.54,67.12 35.06,67.79 33.56,68.43 32.03,69.05 30.48,69.64 28.91,70.21 27.32,70.74 25.71,71.26 24.08,71.74 22.44,72.2 20.77,72.63 19.09,73.03 17.4,73.4 15.7,73.75 13.98,74.06 12.25,74.35 10.51,74.61 8.76,74.84 7.01,75.03 5.25,75.2 3.48,75.34 1.71,75.45 -0.07,75.53 -1.85,75.57 -3.63,75.59 -5.41,75.57 -7.18,75.52 -8.96,75.45 -10.74,75.33 -12.51,75.19 -14.27,75.01 -16.03,74.8 -17.78,74.56 -19.53,74.28 -21.26,73.97 -22.99,73.62 -24.7,73.24 -26.4,72.83 -28.09,72.38 -29.76,71.9 -31.42,71.38 -33.06,70.83 -34.68,70.24 -36.28,69.61 -37.87,68.95 -39.43,68.25 -40.97,67.51 -42.49,66.74 -43.98,65.93 -45.45,65.08 -46.89,64.2 -48.3,63.27 -49.69,62.31 -51.05,61.31 -52.37,60.27 -53.67,59.19 -54.93,58.08 -56.16,56.92 -57.35,55.72 -58.51,54.48 -59.63,53.21 -60.71,51.89 -61.75,50.53 -62.75,49.13 -63.71,47.69 -64.63,46.21 -65.51,44.68 -66.34,43.11 -67.13,41.5 -67.87,39.85 -68.56,38.16" fill="rgb(215,127,140)" stroke="black" stroke-width="3" stroke-linejoin="round" filter="url(#fuzzy)" />
    </g>
  </svg>
  