
  <svg viewBox="-100 -100 200 200" xmlns="http://www.w3.org/2000/svg" width="500" height="500" id="face-svg">
    <defs>
      <clipPath id="leftEyeClipPath">
        <polyline points="29.44,3.88 29.46,3.59 29.45,3.29 29.4,2.96 29.31,2.62 29.19,2.27 29.04,1.91 28.85,1.55 28.62,1.17 28.35,0.8 28.04,0.42 27.7,0.04 27.32,-0.33 26.9,-0.7 26.45,-1.06 25.96,-1.42 25.61,-1.98 25.2,-2.53 24.72,-3.05 24.18,-3.55 23.58,-4.02 22.91,-4.47 22.19,-4.88 21.4,-5.27 20.56,-5.62 19.67,-5.94 18.73,-6.23 17.75,-6.48 16.72,-6.7 15.65,-6.88 14.54,-7.03 13.4,-7.14 12.24,-7.23 11.05,-7.27 9.84,-7.29 8.61,-7.27 7.37,-7.22 6.11,-7.14 4.86,-7.03 3.6,-6.89 2.34,-6.73 1.09,-6.53 -0.16,-6.32 -1.39,-6.07 -2.61,-5.81 -3.81,-5.52 -5,-5.21 -6.16,-4.89 -7.29,-4.55 -8.4,-4.19 -9.48,-3.82 -10.53,-3.43 -11.54,-3.03 -12.52,-2.63 -13.47,-2.21 -14.38,-1.79 -15.25,-1.36 -16.09,-0.92 -16.89,-0.49 -17.65,-0.05 -18.38,0.4 -19.06,0.84 -19.72,1.28 -20.33,1.72 -20.91,2.15 -21.46,2.58 -21.98,3.01 -22.46,3.44 -22.91,3.86 -23.33,4.29 -23.71,4.71 -24.06,5.13 -24.38,5.54 -24.67,5.95 -24.93,6.35 -25.16,6.75 -25.35,7.15 -25.52,7.54 -25.66,7.92 -25.78,8.3 -28.65,13.33 -28.18,13.32 -27.7,13.3 -27.21,13.28 -26.7,13.25 -26.19,13.21 -25.66,13.16 -25.12,13.1 -24.57,13.04 -24.01,12.97 -23.43,12.89 -22.85,12.8 -22.25,12.7 -21.65,12.59 -21.03,12.47 -20.41,12.34 -19.77,12.21 -19.11,12.07 -18.45,11.91 -17.77,11.75 -17.08,11.58 -16.38,11.39 -15.66,11.2 -14.94,10.99 -14.2,10.78 -13.46,10.55 -12.71,10.32 -11.95,10.07 -11.18,9.82 -10.4,9.56 -9.62,9.29 -8.83,9.02 -8.03,8.74 -7.23,8.45 -6.42,8.16 -5.61,7.88 -4.8,7.59 -3.98,7.3 -3.16,7.01 -2.34,6.73 -1.52,6.45 -0.69,6.18 0.14,5.91 0.96,5.66 1.79,5.42 2.61,5.19 3.44,4.98 4.26,4.78 5.08,4.6 5.9,4.44 6.72,4.3 7.53,4.19 8.34,4.1 9.15,4.03 9.95,3.99 10.74,3.97 11.54,3.98 12.32,4.02 13.1,4.09 13.88,4.19 14.64,4.31 15.41,4.47 16.16,4.65 16.9,4.86 17.64,5.09 18.28,5.14 18.92,5.2 19.55,5.26 20.17,5.33 20.78,5.4 21.38,5.48 21.97,5.55 22.56,5.63 23.13,5.7 23.69,5.77 24.24,5.83 24.78,5.89 25.3,5.94 25.81,5.97 26.31,5.99" />
      </clipPath>
      <clipPath id="rightEyeClipPath">
        <polyline points="-29.92,4.89 -30,4.85 -30.04,4.78 -30.04,4.68 -30,4.56 -29.92,4.42 -29.8,4.26 -29.64,4.08 -29.44,3.89 -29.2,3.68 -28.92,3.47 -28.6,3.24 -28.24,3 -27.84,2.76 -27.4,2.51 -26.92,2.25 -26.58,1.87 -26.17,1.49 -25.7,1.11 -25.16,0.74 -24.55,0.38 -23.88,0.02 -23.15,-0.33 -22.37,-0.66 -21.52,-0.98 -20.63,-1.28 -19.68,-1.57 -18.69,-1.83 -17.65,-2.08 -16.58,-2.31 -15.47,-2.51 -14.32,-2.7 -13.15,-2.86 -11.96,-3 -10.74,-3.11 -9.51,-3.2 -8.27,-3.26 -7.01,-3.3 -5.75,-3.32 -4.5,-3.31 -3.24,-3.27 -1.99,-3.22 -0.75,-3.13 0.48,-3.03 1.7,-2.9 2.89,-2.75 4.07,-2.58 5.22,-2.39 6.34,-2.18 7.44,-1.95 8.5,-1.71 9.54,-1.44 10.54,-1.16 11.5,-0.87 12.43,-0.56 13.32,-0.24 14.17,0.09 14.99,0.44 15.76,0.79 16.5,1.15 17.2,1.51 17.86,1.88 18.48,2.26 19.06,2.63 19.62,3.01 20.13,3.39 20.62,3.78 21.06,4.16 21.48,4.55 21.86,4.94 22.21,5.33 22.52,5.72 22.8,6.11 23.05,6.5 23.27,6.89 23.45,7.28 23.61,7.67 23.73,8.06 23.83,8.44 23.89,8.83 27.74,13.07 27.31,13.04 26.87,13 26.42,12.96 25.95,12.9 25.47,12.84 24.99,12.76 24.49,12.67 23.98,12.57 23.46,12.45 22.93,12.33 22.39,12.19 21.85,12.04 21.29,11.87 20.72,11.69 20.14,11.5 19.55,11.3 18.95,11.08 18.33,10.85 17.7,10.61 17.06,10.35 16.41,10.07 15.75,9.79 15.08,9.48 14.4,9.16 13.71,8.83 13.01,8.48 12.3,8.13 11.59,7.76 10.86,7.37 10.13,6.98 9.39,6.58 8.64,6.17 7.89,5.76 7.13,5.34 6.36,4.93 5.59,4.51 4.81,4.09 4.03,3.68 3.24,3.27 2.45,2.88 1.65,2.49 0.85,2.12 0.04,1.76 -0.77,1.42 -1.58,1.1 -2.39,0.81 -3.21,0.54 -4.03,0.29 -4.86,0.08 -5.68,-0.1 -6.51,-0.24 -7.34,-0.35 -8.17,-0.42 -9,-0.45 -9.83,-0.44 -10.67,-0.39 -11.5,-0.3 -12.33,-0.15 -13.16,0.03 -13.99,0.26 -14.82,0.54 -15.65,0.85 -16.47,1.21 -17.28,1.62 -17.98,1.76 -18.67,1.91 -19.35,2.08 -20.03,2.26 -20.7,2.46 -21.36,2.66 -22.02,2.88 -22.66,3.09 -23.3,3.32 -23.93,3.54 -24.54,3.77 -25.14,3.99 -25.73,4.21 -26.3,4.41 -26.86,4.61" />
      </clipPath>
      <filter id="fuzzy">
        <feTurbulence id="turbulence" baseFrequency="0.05" numOctaves="3" type="noise" result="noise" />
        <feDisplacementMap in="SourceGraphic" in2="noise" scale="2" />
      </filter>
      <linearGradient id="rainbowGradient" x1="0%" y1="0%" x2="100%" y2="0%">
        <stop offset="0%" style="stop-color: rgb(145, 85, 61); stop-opacity: 1" />
        <stop offset="22%" style="stop-color: rgb(144, 238, 144); stop-opacity: 1" />
        <stop offset="100%" style="stop-color: rgb(255, 99, 71); stop-opacity: 1" />
      </linearGradient>
    </defs>
    <rect x="-100" y="-100" width="100%" height="100%" fill="rgb(85, 107, 47)" />
    <polyline id="faceContour" points="71.79,1.78 71.55,0.84 71.65,3.87 71.52,5.18 71.68,4.31 71.21,7.92 71.25,8.07 71.2,10.24 71.07,9.98 70.88,12.24 70.72,13.89 70.85,14.13 70.28,15.69 70.53,15.65 69.8,18.81 69.98,17.68 68.85,22.99 69.74,20.08 68.38,25.78 68.01,25.79 68.45,25.42 68.33,25.07 67.46,28.4 66.51,30.89 66.75,30.63 65.96,32.44 66.31,31.4 65.52,33.88 64.65,35.72 63.87,38.11 64.15,37.88 63.63,37.97 62.98,40.08 62.66,40.73 62.02,42.13 61.47,42.83 60.36,45.4 60.39,45.19 58.55,48.39 58.7,47.96 58.5,48.38 56.55,51.93 56.29,52.11 55.46,53.34 55.32,53.34 54.82,53.76 54.38,54.72 53.17,56.64 51.76,57.73 51.28,58.38 50.84,59.4 49.67,60.68 49.48,60.81 49.58,60.64 48.84,61.73 45.97,64.18 45.52,64.91 44.61,65.83 43.27,66.81 42.97,67.25 42.38,67.66 41.64,68.11 40.31,69.4 38.82,70.84 39.2,70.38 35.48,73.02 36.05,72.69 35.63,72.87 34.14,73.99 33.83,73.93 31.43,75.28 30.99,75.64 30.78,75.69 29.11,76.85 29.44,76.56 28.81,76.97 27.46,77.7 24.81,78.76 24.73,78.75 22.85,79.8 21.67,80.18 21.33,80.03 18.8,81.08 18.49,81.2 17.66,81.56 15,82.17 16.5,81.72 13.58,82.24 14.02,82.16 12.23,82.72 12.48,82.51 11.98,82.73 8.06,83.56 8.78,83.5 5.87,83.88 7.04,83.61 4.37,83.66 4.15,83.71 1.04,84.15 0.47,83.97 -1.35,84.11 0.31,84.16 -2.75,83.95 -3.39,84.03 -4.25,84 -5.8,83.52 -6.6,83.54 -8.49,83.54 -9.66,83.14 -10.71,83.24 -10.37,83.06 -11.27,83.07 -13.35,82.64 -14.4,82.51 -15.93,81.81 -15.43,82 -17.62,81.57 -19.16,80.97 -19.9,80.93 -20.73,80.31 -22.87,79.64 -22.09,80.07 -24.46,78.9 -25.01,78.64 -25.69,78.25 -26.63,78.24 -26.79,78.1 -30.91,75.86 -30.14,76.23 -32.61,74.94 -33.31,74.12 -33.04,74.45 -35.4,73.38 -36.41,72.35 -37.82,71.34 -38,71.25 -37.7,71.38 -38.47,71.05 -38.74,70.62 -39.59,69.72 -42.03,68.24 -42.68,67.48 -45.05,65.26 -43.76,66.7 -45.02,65.49 -47.73,62.69 -46.74,63.47 -49.2,61.18 -48.99,61.39 -50.25,59.92 -50.55,59.63 -51.95,57.82 -53.01,56.7 -53.46,55.97 -52.99,56.59 -54.43,54.33 -55.28,53.34 -56.69,51.33 -57.43,50.34 -56.9,51.01 -57.78,49.63 -59.21,47.59 -58.52,48.61 -60.17,45.63 -60.37,45.82 -60.43,45.3 -61.99,42.35 -62.33,41.83 -62.39,41.24 -63.8,38.74 -63.47,39.28 -64.26,37.27 -65.25,35.22 -65.17,35.42 -66.05,32.91 -66.3,32.62 -67.06,29.66 -66.76,31.42 -67.45,28.95 -67.82,27.33 -67.88,27.12 -68.41,25.34 -68.88,23.87 -69.07,21.88 -69.17,21.59 -69.69,20.44 -70.02,18.2 -70.15,16.79 -70.17,16.67 -70.57,14.27 -70.83,12.95 -71.02,11.47 -71.34,8.61 -71.26,11.4 -71.55,7.99 -71.47,8.25 -71.73,5.39 -71.44,5.66 -71.59,2.96 -71.84,0.28 -71.58,-1.33 -71.55,-1.58 -71.66,-3.29 -71.67,-3.26 -71.6,-3.9 -71.24,-8.57 -71.61,-7.11 -71.3,-8.28 -71.29,-9.7 -71.06,-11.66 -70.64,-14.62 -70.42,-15.82 -70.76,-14.04 -69.98,-18.32 -70.1,-17.28 -69.44,-20.68 -69.6,-20.84 -69.29,-22.43 -69.05,-23.59 -68.61,-24.73 -68.19,-25.98 -67.93,-26.58 -67.7,-27.3 -67.01,-29.6 -66.51,-31.31 -65.84,-32.95 -65.68,-34 -65.25,-35.5 -65.09,-35.05 -64.64,-36.07 -64.07,-37.51 -63.52,-39.51 -62.87,-40.92 -62.59,-40.82 -61.67,-42.77 -61.32,-43.93 -60.52,-45.19 -60.44,-45.62 -59.7,-46.81 -58.73,-48.5 -57.78,-49.78 -56.76,-51.65 -55.61,-53.33 -56.59,-52.04 -56.19,-52.21 -54.67,-54.3 -54.88,-54.07 -52.86,-56.85 -52.68,-57.4 -51.98,-57.88 -50.53,-59.51 -49.24,-61.2 -49.37,-61.16 -48.92,-61.34 -48.28,-62.11 -46.66,-64 -45.42,-65.04 -45.62,-64.71 -45.18,-65.54 -43.25,-66.88 -41.61,-68.45 -40.74,-69.2 -39.92,-69.94 -40.5,-69.55 -38.7,-70.96 -38.42,-71.14 -36.92,-72.3 -34.66,-73.87 -34.69,-73.78 -32.8,-74.89 -31.95,-75.37 -31.56,-75.68 -30.39,-76.26 -30.44,-76.17 -29.73,-76.69 -26.97,-77.9 -26.8,-78.11 -26.24,-78.36 -25.27,-78.84 -24.5,-79.22 -21.93,-80.32 -22.53,-80.01 -19.09,-81 -17.41,-81.45 -18.82,-81.15 -17.09,-81.86 -15.55,-82.17 -13.35,-82.69 -14.18,-82.61 -11.43,-82.95 -10.26,-83.47 -9.63,-83.29 -10.31,-83.31 -5.6,-83.93 -5.06,-83.81 -6.71,-83.75 -4.23,-84.14 -3.35,-83.87 -1.03,-84.2 -1.49,-84.02 0.16,-84.05 1.78,-84.01 2.48,-84.02 4.28,-84.12 5.61,-83.84 5.86,-83.73 6.19,-83.98 7.36,-83.53 8.12,-83.69 10.71,-82.98 11.61,-83.12 11.5,-82.98 12.75,-82.93 14.59,-82.18 16.29,-81.95 17.53,-81.44 19.71,-80.73 19.45,-80.7 18.61,-81.26 22.19,-79.92 21.34,-80.16 23.39,-79.79 24.27,-78.95 25.07,-78.75 25.78,-78.67 28.91,-76.94 29.15,-77.01 31.08,-75.77 31.03,-75.8 31.09,-75.93 32.24,-75.07 34.26,-74.08 35.14,-73.17 36.12,-72.52 36.14,-72.41 36.81,-72.19 36.77,-72.34 39.81,-69.96 39.74,-69.71 41.06,-69.09 41.3,-68.87 44.2,-66.08 44.55,-65.79 44.79,-65.61 45.41,-64.98 46.81,-63.72 47.28,-63.4 47.73,-62.42 48.26,-62.08 50.73,-59.09 50.1,-60.06 52.15,-57.81 52.84,-56.98 53.08,-56.24 53.99,-55.11 53.52,-55.85 54.81,-54.39 55.97,-52.18 56.46,-51.66 56.81,-51.38 56.88,-51.05 58.59,-48.69 59.71,-46.58 59.81,-46.5 61.54,-43.08 60.8,-44.22 61.92,-41.99 61.91,-42.02 62.98,-40.42 63.35,-39.12 63.39,-39.06 64.13,-37.95 65.35,-35.27 65.34,-34.29 65.68,-33.35 66.42,-32.17 66.38,-31.56 67.66,-28.05 67.48,-29.03 68.3,-26.09 68.03,-26.55 68.2,-25.63 68.58,-24.43 69.11,-23.22 69.55,-20.6 69.75,-19.78 69.69,-19.04 69.95,-17.77 70.39,-16.72 70.75,-14.81 70.84,-11.51 70.84,-13.74 70.94,-11.62 71.37,-9.3 71.4,-6.4 71.62,-5.66 71.51,-4.55 71.47,-3.74 71.83,-1.94 71.73,-1.49 71.79,1.78 71.55,0.84" fill="rgb(255, 192, 203)" stroke="black" stroke-width="1.6666666666666665" stroke-linejoin="round" filter="url(#fuzzy)" />
    <g transform="translate(41.23 -26.11)">
      <polyline id="rightCountour" points="-29.92,4.89 -30,4.85 -30.04,4.78 -30.04,4.68 -30,4.56 -29.92,4.42 -29.8,4.26 -29.64,4.08 -29.44,3.89 -29.2,3.68 -28.92,3.47 -28.6,3.24 -28.24,3 -27.84,2.76 -27.4,2.51 -26.92,2.25 -26.58,1.87 -26.17,1.49 -25.7,1.11 -25.16,0.74 -24.55,0.38 -23.88,0.02 -23.15,-0.33 -22.37,-0.66 -21.52,-0.98 -20.63,-1.28 -19.68,-1.57 -18.69,-1.83 -17.65,-2.08 -16.58,-2.31 -15.47,-2.51 -14.32,-2.7 -13.15,-2.86 -11.96,-3 -10.74,-3.11 -9.51,-3.2 -8.27,-3.26 -7.01,-3.3 -5.75,-3.32 -4.5,-3.31 -3.24,-3.27 -1.99,-3.22 -0.75,-3.13 0.48,-3.03 1.7,-2.9 2.89,-2.75 4.07,-2.58 5.22,-2.39 6.34,-2.18 7.44,-1.95 8.5,-1.71 9.54,-1.44 10.54,-1.16 11.5,-0.87 12.43,-0.56 13.32,-0.24 14.17,0.09 14.99,0.44 15.76,0.79 16.5,1.15 17.2,1.51 17.86,1.88 18.48,2.26 19.06,2.63 19.62,3.01 20.13,3.39 20.62,3.78 21.06,4.16 21.48,4.55 21.86,4.94 22.21,5.33 22.52,5.72 22.8,6.11 23.05,6.5 23.27,6.89 23.45,7.28 23.61,7.67 23.73,8.06 23.83,8.44 23.89,8.83 27.74,13.07 27.31,13.04 26.87,13 26.42,12.96 25.95,12.9 25.47,12.84 24.99,12.76 24.49,12.67 23.98,12.57 23.46,12.45 22.93,12.33 22.39,12.19 21.85,12.04 21.29,11.87 20.72,11.69 20.14,11.5 19.55,11.3 18.95,11.08 18.33,10.85 17.7,10.61 17.06,10.35 16.41,10.07 15.75,9.79 15.08,9.48 14.4,9.16 13.71,8.83 13.01,8.48 12.3,8.13 11.59,7.76 10.86,7.37 10.13,6.98 9.39,6.58 8.64,6.17 7.89,5.76 7.13,5.34 6.36,4.93 5.59,4.51 4.81,4.09 4.03,3.68 3.24,3.27 2.45,2.88 1.65,2.49 0.85,2.12 0.04,1.76 -0.77,1.42 -1.58,1.1 -2.39,0.81 -3.21,0.54 -4.03,0.29 -4.86,0.08 -5.68,-0.1 -6.51,-0.24 -7.34,-0.35 -8.17,-0.42 -9,-0.45 -9.83,-0.44 -10.67,-0.39 -11.5,-0.3 -12.33,-0.15 -13.16,0.03 -13.99,0.26 -14.82,0.54 -15.65,0.85 -16.47,1.21 -17.28,1.62 -17.98,1.76 -18.67,1.91 -19.35,2.08 -20.03,2.26 -20.7,2.46 -21.36,2.66 -22.02,2.88 -22.66,3.09 -23.3,3.32 -23.93,3.54 -24.54,3.77 -25.14,3.99 -25.73,4.21 -26.3,4.41 -26.86,4.61" fill="white" stroke="white" stroke-width="0" stroke-linejoin="round" filter="url(#fuzzy)" />
    </g>
    <g transform="translate(-47.91 -21.98)">
      <polyline id="leftCountour" points="29.44,3.88 29.46,3.59 29.45,3.29 29.4,2.96 29.31,2.62 29.19,2.27 29.04,1.91 28.85,1.55 28.62,1.17 28.35,0.8 28.04,0.42 27.7,0.04 27.32,-0.33 26.9,-0.7 26.45,-1.06 25.96,-1.42 25.61,-1.98 25.2,-2.53 24.72,-3.05 24.18,-3.55 23.58,-4.02 22.91,-4.47 22.19,-4.88 21.4,-5.27 20.56,-5.62 19.67,-5.94 18.73,-6.23 17.75,-6.48 16.72,-6.7 15.65,-6.88 14.54,-7.03 13.4,-7.14 12.24,-7.23 11.05,-7.27 9.84,-7.29 8.61,-7.27 7.37,-7.22 6.11,-7.14 4.86,-7.03 3.6,-6.89 2.34,-6.73 1.09,-6.53 -0.16,-6.32 -1.39,-6.07 -2.61,-5.81 -3.81,-5.52 -5,-5.21 -6.16,-4.89 -7.29,-4.55 -8.4,-4.19 -9.48,-3.82 -10.53,-3.43 -11.54,-3.03 -12.52,-2.63 -13.47,-2.21 -14.38,-1.79 -15.25,-1.36 -16.09,-0.92 -16.89,-0.49 -17.65,-0.05 -18.38,0.4 -19.06,0.84 -19.72,1.28 -20.33,1.72 -20.91,2.15 -21.46,2.58 -21.98,3.01 -22.46,3.44 -22.91,3.86 -23.33,4.29 -23.71,4.71 -24.06,5.13 -24.38,5.54 -24.67,5.95 -24.93,6.35 -25.16,6.75 -25.35,7.15 -25.52,7.54 -25.66,7.92 -25.78,8.3 -28.65,13.33 -28.18,13.32 -27.7,13.3 -27.21,13.28 -26.7,13.25 -26.19,13.21 -25.66,13.16 -25.12,13.1 -24.57,13.04 -24.01,12.97 -23.43,12.89 -22.85,12.8 -22.25,12.7 -21.65,12.59 -21.03,12.47 -20.41,12.34 -19.77,12.21 -19.11,12.07 -18.45,11.91 -17.77,11.75 -17.08,11.58 -16.38,11.39 -15.66,11.2 -14.94,10.99 -14.2,10.78 -13.46,10.55 -12.71,10.32 -11.95,10.07 -11.18,9.82 -10.4,9.56 -9.62,9.29 -8.83,9.02 -8.03,8.74 -7.23,8.45 -6.42,8.16 -5.61,7.88 -4.8,7.59 -3.98,7.3 -3.16,7.01 -2.34,6.73 -1.52,6.45 -0.69,6.18 0.14,5.91 0.96,5.66 1.79,5.42 2.61,5.19 3.44,4.98 4.26,4.78 5.08,4.6 5.9,4.44 6.72,4.3 7.53,4.19 8.34,4.1 9.15,4.03 9.95,3.99 10.74,3.97 11.54,3.98 12.32,4.02 13.1,4.09 13.88,4.19 14.64,4.31 15.41,4.47 16.16,4.65 16.9,4.86 17.64,5.09 18.28,5.14 18.92,5.2 19.55,5.26 20.17,5.33 20.78,5.4 21.38,5.48 21.97,5.55 22.56,5.63 23.13,5.7 23.69,5.77 24.24,5.83 24.78,5.89 25.3,5.94 25.81,5.97 26.31,5.99" fill="white" stroke="white" stroke-width="0" stroke-linejoin="round" filter="url(#fuzzy)" />
    </g>
    <g transform="translate(41.23 -26.11)">
      <polyline id="rightUpper" points="-27.31,3.23 -27.7,3.6 -28.06,3.93 -28.4,4.2 -28.71,4.42 -29,4.6 -29.25,4.73 -29.47,4.83 -29.65,4.88 -29.81,4.9 -29.92,4.89 -30,4.85 -30.04,4.78 -30.04,4.68 -30,4.56 -29.92,4.42 -29.8,4.26 -29.64,4.08 -29.44,3.89 -29.2,3.68 -28.92,3.47 -28.6,3.24 -28.24,3 -27.84,2.76 -27.4,2.51 -26.92,2.25 -26.58,1.87 -26.17,1.49 -25.7,1.11 -25.16,0.74 -24.55,0.38 -23.88,0.02 -23.15,-0.33 -22.37,-0.66 -21.52,-0.98 -20.63,-1.28 -19.68,-1.57 -18.69,-1.83 -17.65,-2.08 -16.58,-2.31 -15.47,-2.51 -14.32,-2.7 -13.15,-2.86 -11.96,-3 -10.74,-3.11 -9.51,-3.2 -8.27,-3.26 -7.01,-3.3 -5.75,-3.32 -4.5,-3.31 -3.24,-3.27 -1.99,-3.22 -0.75,-3.13 0.48,-3.03 1.7,-2.9 2.89,-2.75 4.07,-2.58 5.22,-2.39 6.34,-2.18 7.44,-1.95 8.5,-1.71 9.54,-1.44 10.54,-1.16 11.5,-0.87 12.43,-0.56 13.32,-0.24 14.17,0.09 14.99,0.44 15.76,0.79 16.5,1.15 17.2,1.51 17.86,1.88 18.48,2.26 19.06,2.63 19.62,3.01 20.13,3.39 20.62,3.78 21.06,4.16 21.48,4.55 21.86,4.94 22.21,5.33 22.52,5.72 22.8,6.11 23.05,6.5 23.27,6.89 23.45,7.28 23.61,7.67 23.73,8.06 23.83,8.44 23.89,8.83 23.93,9.2 23.94,9.58 23.93,9.95 23.88,10.32 23.81,10.69 23.72,11.05 23.6,11.4 23.46,11.75 23.3,12.1 23.12,12.45" fill="none" stroke="black" stroke-width="1.6666666666666665" stroke-linejoin="round" filter="url(#fuzzy)" />
      <polyline id="rightLower" points="-31.29,5.06 -30.96,5.21 -30.61,5.3 -30.22,5.34 -29.81,5.33 -29.37,5.28 -28.91,5.2 -28.43,5.09 -27.93,4.95 -27.4,4.79 -26.86,4.61 -26.3,4.41 -25.73,4.21 -25.14,3.99 -24.54,3.77 -23.93,3.54 -23.3,3.32 -22.66,3.09 -22.02,2.88 -21.36,2.66 -20.7,2.46 -20.03,2.26 -19.35,2.08 -18.67,1.91 -17.98,1.76 -17.28,1.62 -16.47,1.21 -15.65,0.85 -14.82,0.54 -13.99,0.26 -13.16,0.03 -12.33,-0.15 -11.5,-0.3 -10.67,-0.39 -9.83,-0.44 -9,-0.45 -8.17,-0.42 -7.34,-0.35 -6.51,-0.24 -5.68,-0.1 -4.86,0.08 -4.03,0.29 -3.21,0.54 -2.39,0.81 -1.58,1.1 -0.77,1.42 0.04,1.76 0.85,2.12 1.65,2.49 2.45,2.88 3.24,3.27 4.03,3.68 4.81,4.09 5.59,4.51 6.36,4.93 7.13,5.34 7.89,5.76 8.64,6.17 9.39,6.58 10.13,6.98 10.86,7.37 11.59,7.76 12.3,8.13 13.01,8.48 13.71,8.83 14.4,9.16 15.08,9.48 15.75,9.79 16.41,10.07 17.06,10.35 17.7,10.61 18.33,10.85 18.95,11.08 19.55,11.3 20.14,11.5 20.72,11.69 21.29,11.87 21.85,12.04 22.39,12.19 22.93,12.33 23.46,12.45 23.98,12.57 24.49,12.67 24.99,12.76 25.47,12.84 25.95,12.9 26.42,12.96 26.87,13 27.31,13.04 27.74,13.07 28.17,13.08 28.57,13.09 28.97,13.09 29.36,13.08 29.73,13.07 30.1,13.05 30.45,13.02 30.8,12.98 31.13,12.94 31.45,12.89" fill="none" stroke="black" stroke-width="2.2222222222222223" stroke-linejoin="round" filter="url(#fuzzy)" />
      <circle r="3.594" cx="19.01718912086144" cy="6.49380366913039" stroke="black" fill="none" stroke-width="1.0" filter="url(#fuzzy)" clip-path="url(#rightEyeClipPath)" /><circle r="4.316" cx="20.307189120861437" cy="7.248803669130391" stroke="black" fill="none" stroke-width="1.0" filter="url(#fuzzy)" clip-path="url(#rightEyeClipPath)" /><circle r="4.052" cx="20.17218912086144" cy="9.91380366913039" stroke="black" fill="none" stroke-width="1.0" filter="url(#fuzzy)" clip-path="url(#rightEyeClipPath)" /><circle r="4.09" cx="19.40218912086144" cy="9.25880366913039" stroke="black" fill="none" stroke-width="1.0" filter="url(#fuzzy)" clip-path="url(#rightEyeClipPath)" /><circle r="3.758" cx="20.58218912086144" cy="10.81880366913039" stroke="black" fill="none" stroke-width="1.0" filter="url(#fuzzy)" clip-path="url(#rightEyeClipPath)" /><circle r="3.4779999999999998" cx="20.057189120861437" cy="7.088803669130391" stroke="black" fill="none" stroke-width="1.0" filter="url(#fuzzy)" clip-path="url(#rightEyeClipPath)" /><circle r="3.614" cx="20.607189120861438" cy="9.41380366913039" stroke="black" fill="none" stroke-width="1.0" filter="url(#fuzzy)" clip-path="url(#rightEyeClipPath)" /><circle r="3.726" cx="19.15218912086144" cy="10.45380366913039" stroke="black" fill="none" stroke-width="1.0" filter="url(#fuzzy)" clip-path="url(#rightEyeClipPath)" /><circle r="3.036" cx="19.252189120861438" cy="10.31380366913039" stroke="black" fill="none" stroke-width="1.0" filter="url(#fuzzy)" clip-path="url(#rightEyeClipPath)" /><circle r="4.87" cx="18.98718912086144" cy="8.60880366913039" stroke="black" fill="none" stroke-width="1.0" filter="url(#fuzzy)" clip-path="url(#rightEyeClipPath)" />
      </g>
    <g transform="translate(-47.91 -21.98)">
      <polyline id="leftUpper" points="27.74,4.96 28.01,5.05 28.26,5.09 28.49,5.08 28.7,5.01 28.89,4.91 29.06,4.77 29.2,4.59 29.31,4.38 29.39,4.14 29.44,3.88 29.46,3.59 29.45,3.29 29.4,2.96 29.31,2.62 29.19,2.27 29.04,1.91 28.85,1.55 28.62,1.17 28.35,0.8 28.04,0.42 27.7,0.04 27.32,-0.33 26.9,-0.7 26.45,-1.06 25.96,-1.42 25.61,-1.98 25.2,-2.53 24.72,-3.05 24.18,-3.55 23.58,-4.02 22.91,-4.47 22.19,-4.88 21.4,-5.27 20.56,-5.62 19.67,-5.94 18.73,-6.23 17.75,-6.48 16.72,-6.7 15.65,-6.88 14.54,-7.03 13.4,-7.14 12.24,-7.23 11.05,-7.27 9.84,-7.29 8.61,-7.27 7.37,-7.22 6.11,-7.14 4.86,-7.03 3.6,-6.89 2.34,-6.73 1.09,-6.53 -0.16,-6.32 -1.39,-6.07 -2.61,-5.81 -3.81,-5.52 -5,-5.21 -6.16,-4.89 -7.29,-4.55 -8.4,-4.19 -9.48,-3.82 -10.53,-3.43 -11.54,-3.03 -12.52,-2.63 -13.47,-2.21 -14.38,-1.79 -15.25,-1.36 -16.09,-0.92 -16.89,-0.49 -17.65,-0.05 -18.38,0.4 -19.06,0.84 -19.72,1.28 -20.33,1.72 -20.91,2.15 -21.46,2.58 -21.98,3.01 -22.46,3.44 -22.91,3.86 -23.33,4.29 -23.71,4.71 -24.06,5.13 -24.38,5.54 -24.67,5.95 -24.93,6.35 -25.16,6.75 -25.35,7.15 -25.52,7.54 -25.66,7.92 -25.78,8.3 -25.86,8.67 -25.92,9.04 -25.95,9.4 -25.96,9.75 -25.94,10.1 -25.9,10.44 -25.84,10.78 -25.75,11.11 -25.64,11.43 -25.51,11.75" fill="none" stroke="black" stroke-width="2.2222222222222223" stroke-linejoin="round" filter="url(#fuzzy)" />
      <polyline id="leftLower" points="30.22,4.69 29.93,5 29.61,5.25 29.27,5.46 28.91,5.63 28.52,5.76 28.11,5.86 27.69,5.93 27.25,5.97 26.78,5.99 26.31,5.99 25.81,5.97 25.3,5.94 24.78,5.89 24.24,5.83 23.69,5.77 23.13,5.7 22.56,5.63 21.97,5.55 21.38,5.48 20.78,5.4 20.17,5.33 19.55,5.26 18.92,5.2 18.28,5.14 17.64,5.09 16.9,4.86 16.16,4.65 15.41,4.47 14.64,4.31 13.88,4.19 13.1,4.09 12.32,4.02 11.54,3.98 10.74,3.97 9.95,3.99 9.15,4.03 8.34,4.1 7.53,4.19 6.72,4.3 5.9,4.44 5.08,4.6 4.26,4.78 3.44,4.98 2.61,5.19 1.79,5.42 0.96,5.66 0.14,5.91 -0.69,6.18 -1.52,6.45 -2.34,6.73 -3.16,7.01 -3.98,7.3 -4.8,7.59 -5.61,7.88 -6.42,8.16 -7.23,8.45 -8.03,8.74 -8.83,9.02 -9.62,9.29 -10.4,9.56 -11.18,9.82 -11.95,10.07 -12.71,10.32 -13.46,10.55 -14.2,10.78 -14.94,10.99 -15.66,11.2 -16.38,11.39 -17.08,11.58 -17.77,11.75 -18.45,11.91 -19.11,12.07 -19.77,12.21 -20.41,12.34 -21.03,12.47 -21.65,12.59 -22.25,12.7 -22.85,12.8 -23.43,12.89 -24.01,12.97 -24.57,13.04 -25.12,13.1 -25.66,13.16 -26.19,13.21 -26.7,13.25 -27.21,13.28 -27.7,13.3 -28.18,13.32 -28.65,13.33 -29.11,13.34 -29.55,13.34 -29.99,13.33 -30.41,13.32 -30.82,13.3 -31.21,13.28 -31.6,13.26 -31.97,13.22 -32.33,13.19 -32.68,13.15" fill="none" stroke="black" stroke-width="2.2222222222222223" stroke-linejoin="round" filter="url(#fuzzy)" />
      <circle r="4.246" cx="7.095505651199687" cy="2.3686676408376446" stroke="black" fill="none" stroke-width="1.0" filter="url(#fuzzy)" clip-path="url(#leftEyeClipPath)" /><circle r="4.774" cx="5.935505651199687" cy="0.6036676408376445" stroke="black" fill="none" stroke-width="1.0" filter="url(#fuzzy)" clip-path="url(#leftEyeClipPath)" /><circle r="4.48" cx="5.230505651199687" cy="2.188667640837645" stroke="black" fill="none" stroke-width="1.0" filter="url(#fuzzy)" clip-path="url(#leftEyeClipPath)" /><circle r="4.556" cx="5.1705056511996865" cy="3.808667640837644" stroke="black" fill="none" stroke-width="1.0" filter="url(#fuzzy)" clip-path="url(#leftEyeClipPath)" /><circle r="4.366" cx="7.550505651199687" cy="2.3336676408376444" stroke="black" fill="none" stroke-width="1.0" filter="url(#fuzzy)" clip-path="url(#leftEyeClipPath)" /><circle r="4.6240000000000006" cx="7.380505651199687" cy="3.773667640837644" stroke="black" fill="none" stroke-width="1.0" filter="url(#fuzzy)" clip-path="url(#leftEyeClipPath)" /><circle r="3.2" cx="9.010505651199686" cy="1.2836676408376446" stroke="black" fill="none" stroke-width="1.0" filter="url(#fuzzy)" clip-path="url(#leftEyeClipPath)" /><circle r="3.992" cx="7.2105056511996874" cy="4.0386676408376445" stroke="black" fill="none" stroke-width="1.0" filter="url(#fuzzy)" clip-path="url(#leftEyeClipPath)" /><circle r="3.508" cx="6.005505651199687" cy="0.8336676408376444" stroke="black" fill="none" stroke-width="1.0" filter="url(#fuzzy)" clip-path="url(#leftEyeClipPath)" /><circle r="3.268" cx="9.300505651199686" cy="3.768667640837645" stroke="black" fill="none" stroke-width="1.0" filter="url(#fuzzy)" clip-path="url(#leftEyeClipPath)" />
    </g>
    <g id="hairs">
      <polyline points="58.59,-48.69 59.43,-47.12 60.1,-45.83 60.66,-44.69 61.13,-43.72 61.53,-42.9 61.87,-42.2 62.15,-41.6 62.36,-41.1 62.48,-40.71 62.52,-40.45 62.43,-40.34 62.22,-40.44 61.85,-40.77 61.33,-41.37 60.63,-42.28 59.73,-43.54 58.58,-45.19 57.16,-47.29 55.45,-49.85 53.48,-52.86 51.33,-56.25 49.1,-59.91" fill="none" stroke="url(#rainbowGradient)" stroke-width="2" stroke-linejoin="round" filter="url(#fuzzy)" /><polyline points="44.79,-65.61 45.54,-64.88 46.29,-64.16 46.9,-63.48 47.43,-62.82 47.9,-62.19 48.28,-61.63 48.5,-61.19 48.5,-60.93 48.25,-60.87 47.69,-61.05 46.82,-61.45 45.67,-62.08 44.22,-62.91 42.49,-63.95 40.47,-65.2 38.13,-66.7 35.48,-68.43 32.54,-70.4 29.31,-72.62 25.67,-75.19 21.38,-78.26" fill="none" stroke="url(#rainbowGradient)" stroke-width="2" stroke-linejoin="round" filter="url(#fuzzy)" /><polyline points="23.39,-79.79 24.2,-79.2 25.08,-78.76 26.05,-78.31 26.91,-77.86 27.47,-77.51 27.63,-77.29 27.4,-77.21 26.81,-77.25 25.88,-77.38 24.6,-77.61 22.92,-77.97 20.78,-78.52 18.15,-79.27 14.97,-80.22 11.19,-81.34 6.75,-82.58" fill="none" stroke="url(#rainbowGradient)" stroke-width="2" stroke-linejoin="round" filter="url(#fuzzy)" /><polyline points="48.26,-62.08 49.64,-60.35 50.11,-59.5 50.11,-58.87 49.64,-58.43 48.67,-58.21 47.22,-58.18 45.32,-58.31 42.97,-58.56 40.14,-58.94 36.77,-59.48 32.84,-60.17 28.33,-61.01 23.24,-62 17.57,-63.17 11.28,-64.57 4.3,-66.26 -3.45,-68.24 -11.98,-70.51 -21.12,-73.11" fill="none" stroke="url(#rainbowGradient)" stroke-width="2" stroke-linejoin="round" filter="url(#fuzzy)" /><polyline points="55.97,-52.18 56.32,-51.8 56.58,-51.39 56.84,-50.81 57.04,-50.16 57.03,-49.62 56.73,-49.37 56.05,-49.48 54.98,-50.01 53.52,-50.93 51.69,-52.23 49.48,-53.9 46.9,-55.92 43.92,-58.3 40.54,-61.04 36.76,-64.16 32.59,-67.71 27.92,-71.79 22.52,-76.52" fill="none" stroke="url(#rainbowGradient)" stroke-width="2" stroke-linejoin="round" filter="url(#fuzzy)" /><polyline points="7.36,-83.53 8.7,-83.35 10.53,-82.85 12.46,-82.18 14.54,-81.36 16.88,-80.38 19.48,-79.25 22.25,-78.02 25.04,-76.74 27.73,-75.45 30.28,-74.21 32.64,-73.05 34.82,-72.04 36.74,-71.22 38.39,-70.5" fill="none" stroke="url(#rainbowGradient)" stroke-width="2" stroke-linejoin="round" filter="url(#fuzzy)" /><polyline points="47.28,-63.4 47.84,-62.52 48.67,-61.54 49.54,-60.57 50.29,-59.74 50.85,-59.09 51.16,-58.67 51.19,-58.52 50.93,-58.67 50.37,-59.12 49.51,-59.88 48.3,-60.96 46.71,-62.43 44.65,-64.37 42.12,-66.78 39.25,-69.5" fill="none" stroke="url(#rainbowGradient)" stroke-width="2" stroke-linejoin="round" filter="url(#fuzzy)" /><polyline points="62.98,-40.42 63.23,-39.57 63.46,-38.95 63.64,-38.33 63.67,-37.86 63.46,-37.72 62.99,-37.98 62.24,-38.67 61.21,-39.8 59.86,-41.44 58.12,-43.66 55.93,-46.56 53.26,-50.17 50.12,-54.46 46.54,-59.4 42.36,-65.13" fill="none" stroke="url(#rainbowGradient)" stroke-width="2" stroke-linejoin="round" filter="url(#fuzzy)" /><polyline points="41.06,-69.09 41.83,-68.31 42.63,-67.38 42.91,-66.81 42.71,-66.56 42.1,-66.53 41.1,-66.65 39.7,-66.94 37.84,-67.38 35.49,-68.02 32.61,-68.87 29.14,-69.99 25.04,-71.42 20.22,-73.19 14.62,-75.31 8.24,-77.8 1.33,-80.64" fill="none" stroke="url(#rainbowGradient)" stroke-width="2" stroke-linejoin="round" filter="url(#fuzzy)" /><polyline points="22.19,-79.92 22.11,-79.91 22.52,-79.59 22.82,-79.14 22.88,-78.61 22.66,-78.02 22.06,-77.38 20.97,-76.73 19.31,-76.07 17.08,-75.39 14.29,-74.68 10.99,-73.91 7.19,-73.09 2.86,-72.24 -2.08,-71.36 -7.7,-70.43 -14.04,-69.4 -21.13,-68.21 -28.87,-66.88 -37.06,-65.67" fill="none" stroke="url(#rainbowGradient)" stroke-width="2" stroke-linejoin="round" filter="url(#fuzzy)" /><polyline points="-13.35,-82.69 -13.11,-82.75 -12.11,-82.93 -11.13,-83.08 -10.28,-83.18 -9.53,-83.22 -8.93,-83.2 -8.52,-83.12 -8.3,-82.97 -8.29,-82.75 -8.46,-82.45 -8.86,-82.06 -9.5,-81.56 -10.43,-80.95 -11.67,-80.22 -13.25,-79.36 -15.19,-78.38 -17.48,-77.29 -20.14,-76.09 -23.18,-74.77 -26.64,-73.27 -30.58,-71.51 -35.12,-69.45 -40.24,-67.11" fill="none" stroke="url(#rainbowGradient)" stroke-width="2" stroke-linejoin="round" filter="url(#fuzzy)" /><polyline points="36.77,-72.34 38.79,-70.69 40.06,-69.62 41.24,-68.6 42.46,-67.5 43.67,-66.37 44.81,-65.28 45.85,-64.27 46.8,-63.32 47.68,-62.43 48.5,-61.58 49.25,-60.78 49.94,-60.04 50.52,-59.42 50.94,-58.97 51.16,-58.74 51.12,-58.78 50.79,-59.12 50.2,-59.77 49.38,-60.69 48.4,-61.81 47.2,-63.14" fill="none" stroke="url(#rainbowGradient)" stroke-width="2" stroke-linejoin="round" filter="url(#fuzzy)" /><polyline points="-17.09,-81.86 -15.53,-82.18 -14.09,-82.46 -12.67,-82.71 -11.2,-82.93 -9.72,-83.12 -8.24,-83.3 -6.79,-83.45 -5.4,-83.59 -4.11,-83.72 -2.96,-83.82 -1.98,-83.9 -1.17,-83.96 -0.58,-84 -0.25,-84.03 -0.2,-84.04 -0.46,-84.04 -1.06,-84.04 -2.15,-84.01 -3.92,-83.95" fill="none" stroke="url(#rainbowGradient)" stroke-width="2" stroke-linejoin="round" filter="url(#fuzzy)" /><polyline points="59.71,-46.58 60.02,-45.83 60.14,-44.99 59.86,-44.5 59.2,-44.32 58.19,-44.39 56.8,-44.7 55.01,-45.24 52.79,-46.02 50.12,-47.04 46.99,-48.33 43.33,-49.94 39.13,-51.9 34.35,-54.23 28.99,-56.95 23.04,-60.05 16.45,-63.57 9.21,-67.53 1.27,-71.93 -7.44,-76.73" fill="none" stroke="url(#rainbowGradient)" stroke-width="2" stroke-linejoin="round" filter="url(#fuzzy)" /><polyline points="-13.35,-82.69 -13,-82.73 -11.65,-82.86 -10.1,-82.94 -8.45,-82.97 -6.67,-82.94 -4.81,-82.86 -2.9,-82.75 -0.95,-82.59 1.02,-82.41 3.02,-82.2 5.04,-81.99 7.06,-81.76 9.05,-81.54 10.97,-81.31 12.78,-81.1 14.43,-80.91 15.85,-80.77 17.03,-80.68 17.99,-80.62 18.79,-80.58 19.43,-80.55 19.89,-80.56 19.94,-80.67" fill="none" stroke="url(#rainbowGradient)" stroke-width="2" stroke-linejoin="round" filter="url(#fuzzy)" /><polyline points="-25.27,-78.84 -24.04,-79.34 -22.42,-79.82 -20.63,-80.23 -18.76,-80.59 -16.89,-80.9 -15.01,-81.19 -13.09,-81.45 -11.09,-81.69 -9.04,-81.91 -6.97,-82.11 -4.91,-82.27 -2.9,-82.4 -0.96,-82.51 0.85,-82.62 2.5,-82.73 3.92,-82.86 5.11,-82.99 6.1,-83.12 6.93,-83.23 7.57,-83.31 7.9,-83.4 7.73,-83.51" fill="none" stroke="url(#rainbowGradient)" stroke-width="2" stroke-linejoin="round" filter="url(#fuzzy)" /><polyline points="31.08,-75.77 31.01,-75.73 31.03,-75.4 31.03,-74.79 30.76,-74.04 30.03,-73.25 28.77,-72.48 26.98,-71.7 24.72,-70.87 22.01,-69.94 18.86,-68.9 15.21,-67.76 11.04,-66.52 6.28,-65.2 0.88,-63.8 -5.21,-62.32 -12.02,-60.76 -19.55,-59.13 -27.78,-57.38 -36.72,-55.54 -46.36,-53.66" fill="none" stroke="url(#rainbowGradient)" stroke-width="2" stroke-linejoin="round" filter="url(#fuzzy)" /><polyline points="44.79,-65.61 45.44,-64.9 45.89,-64.21 46.01,-63.59 45.85,-62.99 45.43,-62.4 44.7,-61.86 43.61,-61.4 42.1,-61.07 40.16,-60.89 37.74,-60.86 34.87,-60.97 31.55,-61.2 27.79,-61.54 23.58,-61.97 18.92,-62.53 13.78,-63.2 8.12,-63.97 1.9,-64.82 -4.93,-65.74 -12.45,-66.74 -20.69,-67.85 -29.59,-69.17" fill="none" stroke="url(#rainbowGradient)" stroke-width="2" stroke-linejoin="round" filter="url(#fuzzy)" /><polyline points="-17.09,-81.86 -15.51,-82.17 -14,-82.4 -12.46,-82.56 -10.82,-82.68 -9.09,-82.75 -7.28,-82.79 -5.4,-82.79 -3.49,-82.76 -1.6,-82.72 0.26,-82.66 2.06,-82.6 3.81,-82.53 5.51,-82.46 7.14,-82.39 8.68,-82.32 10.12,-82.25 11.43,-82.18 12.58,-82.1 13.55,-82.04 14.24,-82.02 14.58,-82.06 14.46,-82.21 13.86,-82.47" fill="none" stroke="url(#rainbowGradient)" stroke-width="2" stroke-linejoin="round" filter="url(#fuzzy)" /><polyline points="-1.49,-84.02 0.02,-84.03 1.37,-84.03 2.58,-84.01 3.62,-83.97 4.47,-83.92 5.13,-83.85 5.65,-83.77 6.06,-83.67 6.35,-83.56 6.49,-83.44 6.43,-83.31 6.13,-83.17 5.55,-83.01 4.67,-82.83 3.46,-82.65 1.86,-82.47 -0.2,-82.3 -2.77,-82.16 -5.87,-82.02 -9.52,-81.84 -13.82,-81.58" fill="none" stroke="url(#rainbowGradient)" stroke-width="2" stroke-linejoin="round" filter="url(#fuzzy)" /><polyline points="22.19,-79.92 22.22,-79.93 22.96,-79.66 23.78,-79.31 24.54,-78.95 25.18,-78.6 25.6,-78.31 25.7,-78.11 25.38,-78.04 24.6,-78.13 23.38,-78.36 21.79,-78.7 19.83,-79.15 17.46,-79.73 14.54,-80.51 10.92,-81.51 6.57,-82.7" fill="none" stroke="url(#rainbowGradient)" stroke-width="2" stroke-linejoin="round" filter="url(#fuzzy)" /><polyline points="36.81,-72.19 37.51,-71.7 38.56,-70.86 39.4,-70.15 40.01,-69.59 40.4,-69.14 40.52,-68.83 40.29,-68.73 39.68,-68.89 38.67,-69.29 37.28,-69.93 35.51,-70.79 33.34,-71.89 30.7,-73.25 27.45,-74.96 23.45,-77.1 18.57,-79.72" fill="none" stroke="url(#rainbowGradient)" stroke-width="2" stroke-linejoin="round" filter="url(#fuzzy)" /><polyline points="67.48,-29.03 29.92,-55.88 1.43,-67.37 -7.21,-71.41 -0.8,-70.55 11.78,-66.59 22.24,-61.91 26.07,-58.95 23.4,-59.09 17.12,-62.03 9.86,-66.13 2.5,-69.23 -4.64,-69.73 -9.72,-67.36 -10.16,-63.69 -8.09,-62.18 -12.53,-67.69 -10.31,-83.31" fill="none" stroke="url(#rainbowGradient)" stroke-width="2" stroke-linejoin="round" filter="url(#fuzzy)" /><polyline points="-3.35,-83.87 21.31,-69.9 15.06,-68.62 11.32,-66.31 13.96,-61.87 17.16,-57.8 18.16,-55.89 18.15,-56.06 18.5,-57.28 18.42,-58.76 15.96,-60.37 10.54,-62.29 4.26,-64.49 0.8,-66.57 2.89,-67.96 10.17,-68.42 19.32,-68.13 26.7,-67.29 31.14,-65.4 32.47,-62.1 21.76,-61.26 -31.95,-75.37" fill="none" stroke="url(#rainbowGradient)" stroke-width="2" stroke-linejoin="round" filter="url(#fuzzy)" /><polyline points="21.34,-80.16 35.42,-64.88 25.63,-61.4 14.82,-62.59 9.76,-63.9 9.03,-63.75 11.38,-62.14 16.13,-59.71 21.56,-57.3 25.14,-55.71 25.09,-55.51 21.45,-56.87 15.89,-59.57 10.62,-63.06 7.29,-66.66 6.57,-69.71 8.39,-71.6 12.22,-71.83 17.2,-70.27 22.25,-67.41 26.62,-64.51 30.83,-62.9 36.79,-62.79 44.3,-63.11 46.81,-63.72" fill="none" stroke="url(#rainbowGradient)" stroke-width="2" stroke-linejoin="round" filter="url(#fuzzy)" /><polyline points="-15.55,-82.17 -6.38,-75.86 -1.94,-70.23 9.39,-66.38 18.9,-63.68 22.2,-62.79 19.69,-63.88 13.05,-66.2 3.88,-68.67 -5.85,-70.37 -13.48,-70.79 -16.23,-69.88 -12.16,-68.08 -1.29,-66.21 13.67,-65.13 27.98,-65.28 37.29,-66.38 40.47,-67.77 38.59,-70.03 29.15,-77.01" fill="none" stroke="url(#rainbowGradient)" stroke-width="2" stroke-linejoin="round" filter="url(#fuzzy)" /><polyline points="-38.7,-70.96 -41.25,-65.75 -30.6,-70.12 -19.16,-72.47 -9.01,-72.02 0.34,-71.04 8.28,-71.11 13.57,-72.3 15.82,-73.63 15.69,-74.01 14.11,-72.93 11.75,-70.63 9.38,-67.94 8.54,-65.62 11.25,-63.82 18.59,-62.04 29.36,-59.72 40.16,-57.28 47.25,-56.29 50.16,-56.23 60.8,-44.22" fill="none" stroke="url(#rainbowGradient)" stroke-width="2" stroke-linejoin="round" filter="url(#fuzzy)" /><polyline points="24.27,-78.95 34.75,-64.38 15.99,-64.47 -6.09,-67.07 -21.07,-69.52 -27.92,-71.57 -28.64,-73.32 -25.47,-74.57 -20.09,-75.03 -13.54,-74.56 -6.25,-73.35 1.45,-71.94 8.87,-70.98 14.64,-70.93 17.59,-71.44 17.98,-70.62 16.29,-65.41 4.89,-55.07 -56.59,-52.04" fill="none" stroke="url(#rainbowGradient)" stroke-width="2" stroke-linejoin="round" filter="url(#fuzzy)" /><polyline points="1.78,-84.01 29.01,-72.5 39.17,-67.76 42.64,-63.91 41.47,-59.22 35.94,-54.27 27.44,-50.51 18.53,-48.99 11.8,-49.65 8.6,-51.57 8.43,-53.57 9.4,-54.94 9.48,-55.63 7.92,-56.03 5.78,-56.43 5.23,-56.76 7.7,-56.76 12.16,-56.38 14.99,-56.13 12.36,-56.96 3.16,-60.09 -10.71,-67.85 -10.31,-83.31" fill="none" stroke="url(#rainbowGradient)" stroke-width="2" stroke-linejoin="round" filter="url(#fuzzy)" /><polyline points="-21.93,-80.32 13.28,-68.25 20.14,-64.93 19.94,-65.41 17.62,-67.51 16.69,-68.63 17.73,-67.8 19.24,-65.5 19.93,-62.76 19.89,-60.43 20.17,-59.05 21.73,-58.85 24.63,-59.72 28.11,-61.28 31.07,-62.99 32.67,-64.27 32.5,-64.68 30.44,-64.12 26.39,-62.91 20.37,-61.67 12.98,-61.08 6.04,-61.63 2.89,-64.07 6.11,-70.72 -3.35,-83.87" fill="none" stroke="url(#rainbowGradient)" stroke-width="2" stroke-linejoin="round" filter="url(#fuzzy)" /><polyline points="-19.09,-81 -2.47,-74.54 -5.57,-71.44 -1.55,-70.06 7.52,-69.6 17.16,-69.5 24.96,-69.47 29.71,-69.49 30.97,-69.64 29.13,-69.82 25.28,-69.76 20.85,-69.28 17.08,-68.45 14.89,-67.57 14.8,-66.75 16.8,-65.84 19.71,-64.77 20.94,-64.26 17.77,-65.84 10.28,-70.47 2.46,-76.86 -3.17,-81.8 -11.43,-82.95" fill="none" stroke="url(#rainbowGradient)" stroke-width="2" stroke-linejoin="round" filter="url(#fuzzy)" /><polyline points="50.1,-60.06 10.3,-62.59 15.51,-65.53 18.61,-68.82 12.6,-71.75 1.54,-73.26 -10.23,-73.04 -20.32,-71.71 -27.58,-70.24 -31.35,-69.24 -31.07,-68.62 -26.27,-67.74 -16.72,-65.77 -2.81,-62.28 13.76,-57.59 29.87,-52.97 41.73,-50.33 46.51,-51.45 44.13,-56.49 38.28,-62.77 36.13,-65.05 44.62,-59.22 55.97,-52.18" fill="none" stroke="url(#rainbowGradient)" stroke-width="2" stroke-linejoin="round" filter="url(#fuzzy)" /><polyline points="-6.71,-83.75 17.68,-77.98 32.51,-70.34 39.32,-62.99 36.6,-59.48 26,-61.01 12.58,-65.88 1.33,-71.25 -5.48,-75.05 -7.93,-76.73 -6.77,-76.95 -2.73,-76.8 2.45,-77.07 5.92,-77.84 7.64,-78.2 16.6,-75.52 46.81,-63.72" fill="none" stroke="url(#rainbowGradient)" stroke-width="2" stroke-linejoin="round" filter="url(#fuzzy)" /><polyline points="61.92,-41.99 37.45,-62.72 18.27,-67.89 3.59,-68.87 -3.52,-69.02 -4.81,-69.17 -3.02,-69.06 -0.44,-68.34 1.19,-67.09 1.26,-65.64 0.83,-64.22 1.93,-62.78 6.07,-61.33 12.96,-60.27 20.64,-60.4 26.66,-62.36 29.66,-65.74 30.83,-68.4 34.48,-66.75 45.17,-59.15 53.52,-55.85" fill="none" stroke="url(#rainbowGradient)" stroke-width="2" stroke-linejoin="round" filter="url(#fuzzy)" /><polyline points="50.1,-60.06 10.86,-70.7 5.17,-69.1 2.79,-67.04 -4.11,-67.3 -11.36,-68.89 -14.29,-70.64 -11.63,-71.86 -4.95,-72.27 2.91,-72.03 9.23,-71.74 12.39,-72.15 12.31,-73.66 10.16,-75.92 7.77,-77.99 7.05,-78.73 9.62,-77.2 16.6,-72.69 28.52,-64.53 44.95,-54.08 53.52,-55.85" fill="none" stroke="url(#rainbowGradient)" stroke-width="2" stroke-linejoin="round" filter="url(#fuzzy)" /><polyline points="12.75,-82.93 -4.45,-70.92 -2.87,-69.1 -6.04,-71.27 -11.1,-72.31 -13.42,-70.94 -10.44,-68.47 -2.77,-66.76 6.4,-66.88 13.29,-68.64 15.6,-71.06 13.38,-73.13 8.75,-74.33 4.76,-74.73 3.64,-74.5 5.03,-73.7 6.2,-72.53 6.09,-72.13 8.69,-75.1 2.48,-84.02" fill="none" stroke="url(#rainbowGradient)" stroke-width="2" stroke-linejoin="round" filter="url(#fuzzy)" /><polyline points="-3.35,-83.87 8.33,-79.61 15.98,-74.61 17.59,-70.32 19.57,-66.39 22.61,-63.33 24.39,-61.62 23.43,-61.3 20.08,-62.07 15.66,-63.37 11.38,-64.55 7.68,-65.17 4.1,-65.32 -0.31,-65.53 -6.08,-66.23 -12.18,-67.37 -15.49,-68.41 -11.62,-68.85 2.39,-68.32 24.13,-66.28 43.66,-62.55 50.73,-59.09" fill="none" stroke="url(#rainbowGradient)" stroke-width="2" stroke-linejoin="round" filter="url(#fuzzy)" /><polyline points="-31.56,-75.68 -33.18,-68.99 -24.36,-71.61 -15.1,-72.38 -5.77,-70.52 0.02,-68.04 -0.63,-66.68 -6.89,-66.75 -15.14,-67.5 -21.34,-68.07 -22.62,-68.06 -17.88,-67.48 -7.92,-66.56 4.63,-65.61 15.7,-65.1 21.02,-65.69 17.97,-67.99 7.54,-72.11 -4.58,-77.14 -10.4,-81.25 -14.18,-82.61" fill="none" stroke="url(#rainbowGradient)" stroke-width="2" stroke-linejoin="round" filter="url(#fuzzy)" /><polyline points="-52.68,-57.4 -35.18,-66.44 -27.15,-69.93 -30.52,-68.98 -36.33,-66.65 -38.7,-64.25 -34.67,-61.83 -23.35,-59.39 -6.72,-57.68 10.01,-58.12 20.68,-61.72 22.36,-67.63 18.28,-72.94 16.77,-74.68 24.58,-73.46 28.91,-76.94" fill="none" stroke="url(#rainbowGradient)" stroke-width="2" stroke-linejoin="round" filter="url(#fuzzy)" /><polyline points="-13.35,-82.69 -12.71,-82.1 -15.95,-79.29 -16.64,-75.96 -13.18,-73.86 -7.72,-73.11 -2.8,-72.78 1.02,-72.2 4.58,-71.7 8.32,-72.07 11.93,-73.48 15.02,-74.88 17.02,-74.51 15.55,-71.42 5.44,-67.18 -16.06,-67.14 -24.5,-79.22" fill="none" stroke="url(#rainbowGradient)" stroke-width="2" stroke-linejoin="round" filter="url(#fuzzy)" /><polyline points="-45.18,-65.54 -5.65,-67.72 9.46,-64.17 18.37,-63.23 18.57,-65.87 12.18,-69.4 5.03,-71.75 1.61,-72.38 2.36,-71.55 4.8,-69.92 6.52,-68.51 7.24,-68.4 7.8,-69.77 6.48,-71.12 -2.65,-70.35 -22.69,-68.72 -30.39,-76.26" fill="none" stroke="url(#rainbowGradient)" stroke-width="2" stroke-linejoin="round" filter="url(#fuzzy)" /><polyline points="-38.42,-71.14 10.6,-69.73 28.48,-64.98 28.54,-63.08 23.07,-63.12 18.83,-63.06 16.49,-62.56 13.44,-62.73 7.79,-64.65 0.74,-68.25 -4.27,-72.09 -4.72,-73.9 -0.21,-71.69 10.93,-64.7 34.83,-53.76 63.35,-39.12" fill="none" stroke="url(#rainbowGradient)" stroke-width="2" stroke-linejoin="round" filter="url(#fuzzy)" /><polyline points="36.77,-72.34 24.89,-76.57 18.07,-74.29 19.26,-68.66 22.79,-63.95 23,-61.97 18.96,-62.37 13.39,-64.19 9.76,-66.66 10.09,-69.14 14.3,-70.89 20.87,-71.09 27.83,-69.25 33.03,-65.7 33.63,-61.96 26.13,-60.2 8.61,-61.83 -14.57,-66.13 -29.21,-71.72 -18.82,-81.15" fill="none" stroke="url(#rainbowGradient)" stroke-width="2" stroke-linejoin="round" filter="url(#fuzzy)" /><polyline points="36.12,-72.52 31.15,-70.14 38.67,-61.08 36.66,-59.18 24.6,-63.37 8.93,-68.72 -4.31,-72.1 -11.74,-72.84 -12.6,-71.31 -8,-67.97 0.53,-63.35 12.34,-58.34 27.09,-54.26 41.66,-52.68 49.99,-54 59.71,-46.58" fill="none" stroke="url(#rainbowGradient)" stroke-width="2" stroke-linejoin="round" filter="url(#fuzzy)" /><polyline points="61.92,-41.99 8.71,-64.74 -3.24,-74.19 -5.77,-76.29 -4.08,-75 1.47,-72.55 7.98,-70.12 11.72,-68.52 11.31,-68.23 8.52,-69.23 6.72,-70.74 8.49,-71.48 13.71,-70.45 18.9,-67.74 18.25,-64.68 7.36,-62.87 -9.79,-62.83 -12.61,-64.49 36.81,-72.19" fill="none" stroke="url(#rainbowGradient)" stroke-width="2" stroke-linejoin="round" filter="url(#fuzzy)" /><polyline points="11.61,-83.12 13.06,-70.86 -0.19,-65.16 -2.72,-62.24 -0.77,-63.37 -0.54,-67.62 -2.71,-72.35 -5.81,-75.46 -8.37,-76.27 -9.02,-75.23 -6.86,-73.21 -3.01,-71.2 -1.41,-70.3 -6.31,-71.28 -17.11,-73.43 -25.56,-75.12 -15.55,-82.17" fill="none" stroke="url(#rainbowGradient)" stroke-width="2" stroke-linejoin="round" filter="url(#fuzzy)" /><polyline points="-26.8,-78.11 -10.36,-81.11 4.94,-79.64 17.15,-76.38 23.95,-74.27 25.27,-74.03 23.22,-74.6 20.63,-74.61 19.5,-73.39 20.34,-71.26 22.31,-69.11 24.11,-67.78 24.64,-67.51 23.19,-67.98 19.39,-68.69 13.59,-69.19 7.94,-68.93 6.78,-66.76 15.11,-60.98 34.51,-50.44 57.63,-37.05 67.48,-29.03" fill="none" stroke="url(#rainbowGradient)" stroke-width="2" stroke-linejoin="round" filter="url(#fuzzy)" /><polyline points="59.81,-46.5 -1.4,-56.99 -13.77,-64.95 -16.04,-67.24 -19.33,-66.93 -23.95,-66.72 -26.57,-67.77 -24.99,-69.84 -19.63,-71.68 -12.16,-71.98 -3.56,-70.15 6.32,-66.91 17.22,-64.11 27.03,-63.72 32.95,-66.28 35.36,-69.41 39.57,-68.15 52.84,-56.98" fill="none" stroke="url(#rainbowGradient)" stroke-width="2" stroke-linejoin="round" filter="url(#fuzzy)" /><polyline points="29.15,-77.01 -5.72,-74.39 -11.36,-71.34 -8.96,-70.34 -8.77,-69.14 -9.2,-67.08 -7.33,-64.87 -3.12,-63.08 2.53,-61.67 9.36,-60.52 16.42,-59.99 20.51,-60.62 19.23,-62.01 17.66,-62.72 27.44,-63.31 35.14,-73.17" fill="none" stroke="url(#rainbowGradient)" stroke-width="2" stroke-linejoin="round" filter="url(#fuzzy)" /><polyline points="-45.42,-65.04 -8.06,-73.36 -6.38,-74.75 -8.79,-71.31 -7.33,-67.83 -2.77,-66.68 3.28,-67.09 10.03,-67.29 16.59,-66.32 21.42,-64.51 22.83,-62.86 20.01,-62.26 13.91,-62.94 7.44,-64.3 4.34,-65.07 6.67,-64.11 12.26,-61.59 14.96,-59.9 9.52,-62.26 -3.58,-68.09 -40.5,-69.55" fill="none" stroke="url(#rainbowGradient)" stroke-width="2" stroke-linejoin="round" filter="url(#fuzzy)" /><polyline points="48.26,-62.08 16.36,-75.42 11.1,-77.77 10.73,-76.04 6.47,-74.17 -0.48,-73.28 -6.6,-73.01 -10.33,-72.79 -12.3,-72.31 -13.45,-71.55 -13.52,-70.71 -11.04,-70.1 -4.8,-70.01 4.43,-70.55 13.5,-71.59 18.61,-72.85 18.4,-73.72 16.31,-73.06 19.38,-69.56 29.36,-65.57 19.45,-80.7" fill="none" stroke="url(#rainbowGradient)" stroke-width="2" stroke-linejoin="round" filter="url(#fuzzy)" /><polyline points="-56.59,-52.04 -39.05,-66.6 -31.01,-70.61 -23.01,-72.01 -11.43,-73.55 0.84,-75.07 9.96,-76.19 14.44,-76.65 15.42,-76.25 15.28,-74.93 15.86,-73.04 17.51,-71.13 19.42,-69.44 20.48,-67.68 19.53,-65.68 14.95,-64.75 6.16,-67.83 -2.67,-75.85 -17.09,-81.86" fill="none" stroke="url(#rainbowGradient)" stroke-width="2" stroke-linejoin="round" filter="url(#fuzzy)" /><polyline points="-26.8,-78.11 -32.03,-73.8 -23.52,-76.16 -11.79,-79.15 -2.76,-80.86 1.06,-80.95 0.02,-79.31 -3.2,-75.87 -5.13,-71.11 -3.89,-66.33 -0.83,-63.27 0.31,-62.97 -3.16,-64.93 -8.31,-67.5 -1,-68.67 47.28,-63.4" fill="none" stroke="url(#rainbowGradient)" stroke-width="2" stroke-linejoin="round" filter="url(#fuzzy)" /><polyline points="-26.97,-77.9 -15.35,-68.28 -6.47,-64.79 -12.86,-64.83 -22.46,-65.23 -26.17,-65.42 -21.52,-65.43 -10.89,-65.16 1.09,-64.71 10.25,-64.46 14.61,-64.66 14.61,-65.17 12.01,-65.6 8.41,-65.65 4.6,-65.31 1.38,-64.56 0.77,-63.38 5.68,-62.13 16.47,-62.21 27.32,-65.31 31.9,-69.6 47.73,-62.42" fill="none" stroke="url(#rainbowGradient)" stroke-width="2" stroke-linejoin="round" filter="url(#fuzzy)" /><polyline points="-1.03,-84.2 35.52,-62.08 42.52,-57.44 34.66,-60.79 21.8,-66.7 11.36,-70.95 6.78,-71.96 7.54,-70.64 10.92,-68.83 14.45,-67.9 17.21,-68.23 19.09,-69.57 19.07,-71.64 15.01,-74.12 5.75,-76.01 -6.06,-75.63 -11.39,-73.67 17.53,-81.44" fill="none" stroke="url(#rainbowGradient)" stroke-width="2" stroke-linejoin="round" filter="url(#fuzzy)" /><polyline points="55.97,-52.18 28.36,-62.33 31.05,-62.27 32.64,-62.33 30.18,-61.63 25.81,-60.19 21.51,-58.99 17.93,-58.77 14.56,-59.63 10.66,-61.3 6.23,-63.36 2.32,-65.41 0.23,-67.22 0.58,-68.64 2.97,-69.54 6.59,-69.68 10.86,-68.65 15.32,-66.24 18.78,-63.06 19.63,-60.89 18.08,-62.1 18.23,-67.46 23.92,-73.79 36.81,-72.19" fill="none" stroke="url(#rainbowGradient)" stroke-width="2" stroke-linejoin="round" filter="url(#fuzzy)" /><polyline points="-5.06,-83.81 -22.49,-75.24 -33.71,-66.24 -32.06,-61.09 -22.41,-59.1 -10.39,-59.56 1.01,-61.61 10.32,-64.14 16.25,-66.22 17.63,-67.46 14.15,-67.97 6.87,-68.03 -2.15,-67.87 -10.66,-67.66 -16.93,-67.66 -19.8,-68.22 -18.5,-69.65 -12.94,-71.93 -4.63,-74.59 3.03,-76.9 6.62,-78.4 7.23,-79.14 13.48,-78.98 31.09,-75.93" fill="none" stroke="url(#rainbowGradient)" stroke-width="2" stroke-linejoin="round" filter="url(#fuzzy)" /><polyline points="-56.76,-51.65 -7.12,-64.98 3.7,-70.56 2.56,-72.92 -3.77,-74.12 -11.31,-74.63 -17.61,-74.65 -21.69,-74.29 -23.59,-73.52 -23.93,-72.27 -23.49,-70.75 -22.64,-69.51 -20.92,-69.19 -17.1,-70.06 -10.28,-71.43 -0.76,-71.79 9.74,-70.21 17.47,-68.43 11.83,-71.21 -26.8,-78.11" fill="none" stroke="url(#rainbowGradient)" stroke-width="2" stroke-linejoin="round" filter="url(#fuzzy)" />
    </g>
    
        <g id="pointNose">
          <g id="rightNose"><circle r="1.712" cx="10.478000000000002" cy="17.358" stroke="black" fill="none" stroke-width="1.0" filter="url(#fuzzy)" /><circle r="2.476" cx="9.222000000000001" cy="14.986" stroke="black" fill="none" stroke-width="1.0" filter="url(#fuzzy)" /><circle r="2.072" cx="9.270000000000001" cy="16.486" stroke="black" fill="none" stroke-width="1.0" filter="url(#fuzzy)" /><circle r="1.11" cx="7.006" cy="15.982" stroke="black" fill="none" stroke-width="1.0" filter="url(#fuzzy)" /><circle r="2.026" cx="7.502000000000001" cy="15.578" stroke="black" fill="none" stroke-width="1.0" filter="url(#fuzzy)" /><circle r="1.724" cx="9.634" cy="15.57" stroke="black" fill="none" stroke-width="1.0" filter="url(#fuzzy)" /><circle r="2.814" cx="8.110000000000001" cy="18.605999999999998" stroke="black" fill="none" stroke-width="1.0" filter="url(#fuzzy)" /><circle r="2.99" cx="6.822000000000001" cy="15.55" stroke="black" fill="none" stroke-width="1.0" filter="url(#fuzzy)" /><circle r="1.434" cx="7.602" cy="17.598" stroke="black" fill="none" stroke-width="1.0" filter="url(#fuzzy)" /><circle r="1.596" cx="7.870000000000001" cy="17.97" stroke="black" fill="none" stroke-width="1.0" filter="url(#fuzzy)" /></g>
          <g id="leftNose"><circle r="1.564" cx="-7.214" cy="18.68" stroke="black" fill="none" stroke-width="1.0" filter="url(#fuzzy)" /><circle r="2.802" cx="-8.254000000000001" cy="17.372" stroke="black" fill="none" stroke-width="1.0" filter="url(#fuzzy)" /><circle r="2.502" cx="-10.262" cy="17.68" stroke="black" fill="none" stroke-width="1.0" filter="url(#fuzzy)" /><circle r="1.354" cx="-8.038" cy="19.508" stroke="black" fill="none" stroke-width="1.0" filter="url(#fuzzy)" /><circle r="2.38" cx="-6.978000000000001" cy="19.064" stroke="black" fill="none" stroke-width="1.0" filter="url(#fuzzy)" /><circle r="2.226" cx="-8.198" cy="20.124" stroke="black" fill="none" stroke-width="1.0" filter="url(#fuzzy)" /><circle r="1.284" cx="-10.042" cy="20.776" stroke="black" fill="none" stroke-width="1.0" filter="url(#fuzzy)" /><circle r="2.034" cx="-9.09" cy="20.396" stroke="black" fill="none" stroke-width="1.0" filter="url(#fuzzy)" /><circle r="2.24" cx="-8.498000000000001" cy="18.384" stroke="black" fill="none" stroke-width="1.0" filter="url(#fuzzy)" /><circle r="1.184" cx="-8.322000000000001" cy="18.448" stroke="black" fill="none" stroke-width="1.0" filter="url(#fuzzy)" /></g>
        </g>
      
    <g id="mouth">
      <polyline points="-48.75,42.7 -48.17,44.69 -47.55,46.61 -46.89,48.46 -46.2,50.25 -45.48,51.96 -44.71,53.61 -43.92,55.19 -43.09,56.71 -42.23,58.17 -41.34,59.56 -40.42,60.89 -39.47,62.16 -38.5,63.36 -37.49,64.51 -36.46,65.6 -35.41,66.63 -34.33,67.6 -33.22,68.52 -32.09,69.38 -30.95,70.19 -29.78,70.95 -28.58,71.65 -27.37,72.3 -26.15,72.9 -24.9,73.44 -23.64,73.94 -22.36,74.39 -21.06,74.8 -19.76,75.15 -18.43,75.46 -17.1,75.73 -15.76,75.95 -14.4,76.13 -13.04,76.27 -11.66,76.36 -10.28,76.41 -8.89,76.43 -7.49,76.4 -6.09,76.34 -4.69,76.24 -3.28,76.11 -1.87,75.93 -0.45,75.73 0.96,75.49 2.37,75.22 3.79,74.91 5.2,74.58 6.61,74.21 8.02,73.82 9.42,73.39 10.81,72.94 12.2,72.46 13.59,71.96 14.96,71.43 16.33,70.88 17.69,70.3 19.03,69.7 20.37,69.08 21.69,68.44 23,67.78 24.3,67.1 25.58,66.41 26.85,65.69 28.1,64.96 29.33,64.21 30.54,63.45 31.74,62.68 32.91,61.89 34.06,61.09 35.19,60.28 36.3,59.46 37.39,58.63 38.45,57.79 39.48,56.94 40.49,56.09 41.47,55.23 42.43,54.36 43.35,53.49 44.25,52.62 45.11,51.75 45.94,50.87 46.74,49.99 47.51,49.12 48.24,48.24 48.94,47.37 49.6,46.5 50.23,45.63 50.82,44.77 51.36,43.91 51.87,43.06 52.34,42.21 52.77,41.37 53.16,40.55 53.5,39.73 53.8,38.92 54.06,38.12 54.26,37.34 54.43,36.57 54.54,35.81 54.61,35.07 54.54,35.81 54.43,36.57 54.26,37.34 54.06,38.12 53.8,38.92 53.5,39.73 53.16,40.55 52.77,41.37 52.34,42.21 51.87,43.06 51.36,43.91 50.82,44.77 50.23,45.63 49.6,46.5 48.94,47.37 48.24,48.24 47.51,49.12 46.74,49.99 45.94,50.87 45.11,51.75 44.25,52.62 43.35,53.49 42.43,54.36 41.47,55.23 40.49,56.09 39.48,56.94 38.45,57.79 37.39,58.63 36.3,59.46 35.19,60.28 34.06,61.09 32.91,61.89 31.74,62.68 30.54,63.45 29.33,64.21 28.1,64.96 26.85,65.69 25.58,66.41 24.3,67.1 23,67.78 21.69,68.44 20.37,69.08 19.03,69.7 17.69,70.3 16.33,70.88 14.96,71.43 13.59,71.96 12.2,72.46 10.81,72.94 9.42,73.39 8.02,73.82 6.61,74.21 5.2,74.58 3.79,74.91 2.37,75.22 0.96,75.49 -0.45,75.73 -1.87,75.93 -3.28,76.11 -4.69,76.24 -6.09,76.34 -7.49,76.4 -8.89,76.43 -10.28,76.41 -11.66,76.36 -13.04,76.27 -14.4,76.13 -15.76,75.95 -17.1,75.73 -18.43,75.46 -19.76,75.15 -21.06,74.8 -22.36,74.39 -23.64,73.94 -24.9,73.44 -26.15,72.9 -27.37,72.3 -28.58,71.65 -29.78,70.95 -30.95,70.19 -32.09,69.38 -33.22,68.52 -34.33,67.6 -35.41,66.63 -36.46,65.6 -37.49,64.51 -38.5,63.36 -39.47,62.16 -40.42,60.89 -41.34,59.56 -42.23,58.17 -43.09,56.71 -43.92,55.19 -44.71,53.61 -45.48,51.96 -46.2,50.25 -46.89,48.46 -47.55,46.61 -48.17,44.69" fill="rgb(215,127,140)" stroke="black" stroke-width="3" stroke-linejoin="round" filter="url(#fuzzy)" />
    </g>
  </svg>
  