
  <svg viewBox="-100 -100 200 200" xmlns="http://www.w3.org/2000/svg" width="500" height="500" id="face-svg">
    <defs>
      <clipPath id="leftEyeClipPath">
        <polyline points="24.99,-0.68 24.81,-0.83 24.59,-0.97 24.35,-1.12 24.08,-1.26 23.78,-1.4 23.45,-1.54 23.1,-1.68 22.73,-1.82 22.32,-1.95 21.9,-2.09 21.45,-2.22 20.99,-2.34 20.5,-2.47 19.99,-2.59 19.47,-2.7 18.91,-2.86 18.32,-3.01 17.7,-3.15 17.06,-3.29 16.4,-3.42 15.71,-3.54 15,-3.66 14.28,-3.77 13.53,-3.88 12.77,-3.97 12,-4.06 11.21,-4.14 10.41,-4.22 9.61,-4.28 8.8,-4.34 7.98,-4.39 7.16,-4.43 6.34,-4.46 5.52,-4.49 4.7,-4.5 3.88,-4.51 3.07,-4.51 2.27,-4.51 1.47,-4.49 0.68,-4.47 -0.09,-4.44 -0.86,-4.41 -1.61,-4.36 -2.35,-4.31 -3.07,-4.26 -3.78,-4.2 -4.47,-4.13 -5.14,-4.06 -5.8,-3.98 -6.43,-3.89 -7.05,-3.8 -7.65,-3.71 -8.23,-3.62 -8.79,-3.51 -9.33,-3.41 -9.85,-3.3 -10.35,-3.19 -10.83,-3.08 -11.29,-2.96 -11.74,-2.85 -12.16,-2.73 -12.57,-2.61 -12.96,-2.48 -13.33,-2.36 -13.69,-2.24 -14.03,-2.12 -14.36,-1.99 -14.68,-1.86 -14.98,-1.74 -15.26,-1.61 -15.53,-1.48 -15.79,-1.35 -16.03,-1.22 -16.27,-1.09 -16.48,-0.96 -16.69,-0.83 -16.88,-0.69 -17.07,-0.56 -17.24,-0.43 -17.23,0.95 -17.07,1.08 -16.9,1.21 -16.72,1.34 -16.53,1.47 -16.33,1.6 -16.12,1.72 -15.89,1.85 -15.66,1.97 -15.41,2.09 -15.14,2.21 -14.87,2.33 -14.58,2.45 -14.28,2.56 -13.96,2.68 -13.63,2.79 -13.29,2.9 -12.93,3.01 -12.56,3.11 -12.17,3.22 -11.76,3.32 -11.33,3.42 -10.89,3.51 -10.43,3.61 -9.96,3.7 -9.46,3.78 -8.95,3.87 -8.41,3.94 -7.86,4.02 -7.29,4.09 -6.71,4.15 -6.1,4.21 -5.48,4.26 -4.84,4.31 -4.18,4.35 -3.51,4.39 -2.83,4.42 -2.13,4.44 -1.41,4.46 -0.68,4.47 0.06,4.48 0.81,4.47 1.57,4.47 2.34,4.45 3.12,4.43 3.9,4.4 4.69,4.37 5.48,4.33 6.27,4.28 7.07,4.23 7.87,4.17 8.66,4.1 9.45,4.03 10.24,3.95 11.01,3.86 11.79,3.77 12.55,3.68 13.3,3.58 14.03,3.47 14.76,3.36 15.46,3.25 16.15,3.13 16.83,3.01 17.48,2.88 18.11,2.75 18.67,2.64 19.22,2.53 19.76,2.42 20.28,2.31 20.78,2.19 21.26,2.07 21.73,1.94 22.17,1.82 22.59,1.69 22.99,1.56 23.36,1.43 23.71,1.29 24.04,1.15 24.33,1.02 24.6,0.88" />
      </clipPath>
      <clipPath id="rightEyeClipPath">
        <polyline points="-25.6,-0.36 -25.53,-0.45 -25.43,-0.54 -25.3,-0.63 -25.13,-0.72 -24.94,-0.81 -24.72,-0.89 -24.46,-0.98 -24.18,-1.06 -23.87,-1.15 -23.54,-1.23 -23.18,-1.31 -22.79,-1.39 -22.38,-1.46 -21.94,-1.54 -21.48,-1.61 -21.03,-1.71 -20.55,-1.8 -20.03,-1.89 -19.48,-1.97 -18.89,-2.06 -18.27,-2.14 -17.62,-2.21 -16.95,-2.28 -16.24,-2.35 -15.52,-2.41 -14.77,-2.47 -14,-2.53 -13.21,-2.58 -12.4,-2.62 -11.58,-2.66 -10.75,-2.7 -9.91,-2.73 -9.06,-2.75 -8.21,-2.77 -7.35,-2.79 -6.49,-2.8 -5.63,-2.81 -4.77,-2.81 -3.92,-2.81 -3.07,-2.8 -2.23,-2.79 -1.39,-2.77 -0.57,-2.75 0.24,-2.72 1.03,-2.69 1.82,-2.66 2.58,-2.62 3.34,-2.58 4.07,-2.53 4.78,-2.48 5.48,-2.43 6.15,-2.37 6.81,-2.32 7.45,-2.26 8.06,-2.19 8.66,-2.13 9.23,-2.06 9.78,-1.99 10.31,-1.92 10.82,-1.84 11.31,-1.77 11.79,-1.69 12.24,-1.62 12.67,-1.54 13.09,-1.46 13.49,-1.38 13.88,-1.3 14.24,-1.22 14.6,-1.14 14.93,-1.06 15.25,-0.97 15.56,-0.89 15.84,-0.81 16.12,-0.72 16.38,-0.64 16.63,-0.55 16.86,-0.47 17.08,-0.38 17.28,-0.29 18.7,0.86 18.54,0.93 18.37,0.99 18.19,1.06 18,1.12 17.8,1.19 17.6,1.25 17.38,1.32 17.15,1.38 16.91,1.45 16.65,1.51 16.39,1.57 16.12,1.63 15.83,1.7 15.53,1.76 15.22,1.82 14.9,1.88 14.56,1.94 14.21,2 13.85,2.06 13.47,2.11 13.07,2.17 12.66,2.22 12.23,2.28 11.79,2.33 11.33,2.38 10.85,2.43 10.35,2.47 9.84,2.51 9.31,2.56 8.76,2.59 8.19,2.63 7.61,2.66 7.01,2.69 6.39,2.72 5.76,2.74 5.11,2.76 4.44,2.78 3.76,2.79 3.07,2.8 2.36,2.8 1.64,2.8 0.9,2.8 0.16,2.8 -0.6,2.78 -1.37,2.77 -2.14,2.75 -2.92,2.73 -3.71,2.7 -4.51,2.67 -5.31,2.64 -6.11,2.6 -6.91,2.55 -7.72,2.51 -8.52,2.46 -9.33,2.4 -10.12,2.35 -10.92,2.28 -11.7,2.22 -12.48,2.15 -13.25,2.08 -14.01,2.01 -14.76,1.93 -15.49,1.85 -16.21,1.77 -16.84,1.71 -17.45,1.64 -18.06,1.57 -18.65,1.5 -19.23,1.43 -19.79,1.36 -20.34,1.28 -20.88,1.2 -21.39,1.13 -21.89,1.05 -22.36,0.97 -22.82,0.88 -23.25,0.8 -23.66,0.72 -24.05,0.63" />
      </clipPath>
      <filter id="fuzzy">
        <feTurbulence id="turbulence" baseFrequency="0.05" numOctaves="3" type="noise" result="noise" />
        <feDisplacementMap in="SourceGraphic" in2="noise" scale="2" />
      </filter>
      <linearGradient id="rainbowGradient" x1="0%" y1="0%" x2="100%" y2="0%">
        <stop offset="0%" style="stop-color: rgb(128, 128, 128); stop-opacity: 1" />
        <stop offset="50%" style="stop-color: rgb(128, 128, 128); stop-opacity: 1" />
        <stop offset="100%" style="stop-color: rgb(144, 238, 144); stop-opacity: 1" />
      </linearGradient>
    </defs>
    <rect x="-100" y="-100" width="100%" height="100%" fill="rgb(139, 0, 0)" />
    <polyline id="faceContour" points="55.57,-1.04 55.62,0.77 55.61,1.11 55.78,2.46 55.77,3.09 55.45,6.95 55.34,7.77 55.37,8.5 55.23,8.84 55.25,9.33 55.02,11.59 54.85,11.74 54.95,12.36 54.67,13.81 54.32,15.58 54.35,16.01 54.15,16.9 53.82,18.73 53.55,20.23 53.01,22.59 52.88,22.18 52.9,22.01 52.29,24.56 52.28,25.12 52.04,25.48 51.49,27.44 51.19,28.8 50.58,30.27 50.81,29.4 49.99,32.14 49.3,33.31 49.61,32.99 49.23,33.5 48.99,34.58 48.3,36.05 47.77,37.11 46.84,39.38 46.19,40.19 46.17,40.22 45.59,41.15 44.7,43.03 44.63,43.2 44.03,44.24 42.71,46.36 42.71,46.19 42.87,45.94 40.99,48.74 41.28,48.52 41.28,48.21 40.91,48.89 38.88,51.38 39.49,51.2 38.14,52.71 36.98,53.89 36.37,54.6 37,53.79 36.7,54.56 35.38,55.49 34.7,56.4 33.07,58.12 32.78,58.43 32,59 31.15,59.7 30.51,60.35 29.92,60.87 28.65,62.01 29.43,61.5 27.04,62.88 27.57,62.71 26.92,62.93 25.4,64 25,64.35 23.29,65.67 22.86,65.74 22.02,66.4 21.61,66.43 21.09,66.62 19.84,67.36 19.05,67.61 17.98,68.38 16.61,68.74 17.8,68.36 14.52,69.69 13.61,69.94 13.12,70.07 13.61,70.1 13,70.21 12.03,70.44 11.68,70.63 10.5,70.72 9.36,71.29 7.06,71.68 6.85,71.47 5.99,71.72 3.87,72.05 4.2,71.83 3.4,72.1 2.38,72.01 0.95,72.16 0.99,72.12 -0.6,72.16 -0.07,71.96 -1.47,72.2 -2.96,72.09 -3.54,71.79 -4.77,71.95 -5.39,71.71 -6,71.71 -7.25,71.39 -7.99,71.44 -7,71.61 -9.92,71.07 -10.49,70.69 -10.74,70.72 -13.51,69.9 -12.93,70.13 -13.65,70.06 -15.28,69.27 -14.59,69.44 -16.28,68.79 -18.08,68.17 -18.26,68.09 -17.9,68.41 -19.11,67.63 -18.98,67.69 -21,66.63 -21.33,66.57 -23.77,65.12 -23.32,65.44 -24.8,64.61 -25.66,63.74 -26.08,63.64 -27,63.03 -28.41,62.27 -28.66,62.04 -28.99,61.32 -30.89,59.97 -31.35,59.81 -31.62,59.25 -31.52,59.52 -32.69,58.31 -32.62,58.46 -34.42,56.63 -35.55,55.41 -35.37,55.65 -35.03,56.02 -37.16,53.59 -36.64,54.27 -38.44,52.16 -39.79,50.68 -39.81,50.36 -39.91,50.25 -40.1,49.97 -41.42,48.24 -41.99,47.36 -42.48,46.75 -42.6,46.41 -42.73,46.14 -43.48,45.24 -43.9,44.61 -45.08,41.99 -46.05,40.46 -46.06,40.43 -47.17,37.93 -47.06,38.33 -47.9,36.55 -48.33,35.71 -47.56,37.25 -49.34,33.63 -49.79,32.11 -50.16,31.17 -49.9,31.7 -50.15,31.01 -50.41,30.31 -51.23,28.48 -51.56,27.23 -51.53,27.17 -51.75,26.67 -52.23,24.57 -52.28,24.22 -52.69,22.47 -52.82,22.67 -53.32,21.21 -53.62,18.75 -53.8,19.2 -54.12,16.43 -54.2,15.77 -54.8,13.22 -54.73,13.46 -54.93,12.58 -55.11,10.42 -54.97,10.65 -55.25,8.03 -55.34,7.77 -55.22,7.53 -55.28,7.02 -55.64,4.24 -55.57,4.67 -55.71,2.85 -55.57,1.43 -55.55,0.31 -55.56,-2.1 -55.75,-2.27 -55.58,-1.98 -55.62,-4.48 -55.55,-6.18 -55.19,-7.67 -55.24,-8.25 -55.13,-9.19 -54.86,-11.29 -55.16,-9.72 -54.93,-11.59 -54.63,-13.8 -54.44,-15.24 -54.48,-15.28 -53.79,-17.97 -54.08,-17.58 -53.42,-20.63 -53.23,-21.46 -53.07,-21.13 -53.12,-21.71 -52.19,-24.82 -52.26,-24.81 -52.28,-24.45 -51.75,-26.08 -51.07,-28.31 -51.42,-27.51 -51.17,-28.16 -50,-32.12 -50.4,-30.5 -48.98,-33.88 -48.52,-34.89 -48.74,-34.86 -48.85,-34.41 -47.27,-37.8 -47.64,-37.49 -46.95,-38.73 -46.17,-40.19 -46.41,-39.75 -46.13,-40.08 -44.44,-43.43 -44.51,-43.05 -43.91,-44.26 -42.85,-45.72 -42.66,-46.25 -42.4,-46.86 -42.59,-46.69 -40.73,-48.82 -40.12,-49.64 -39.65,-50.57 -40.25,-49.56 -38.23,-52.45 -38.46,-51.9 -37.62,-53.09 -36.58,-54.21 -37.04,-53.78 -35.56,-55.25 -35.22,-55.7 -34.16,-56.93 -33.57,-57.22 -33.22,-57.83 -31.85,-59 -31.85,-59 -31.12,-59.61 -29.59,-60.86 -29.23,-61.41 -28.67,-61.7 -27.16,-62.98 -26.45,-63.12 -27.26,-62.78 -25.69,-63.68 -23.94,-64.86 -23.73,-65.1 -22.83,-65.69 -22.69,-65.74 -20.88,-66.97 -20.16,-67.09 -19.78,-67.2 -17.72,-68.1 -18.7,-67.91 -17.26,-68.67 -16.38,-68.71 -15.1,-69.52 -14.95,-69.34 -13.6,-69.74 -13,-70.02 -13.44,-70 -12.65,-70.28 -11.43,-70.33 -8.98,-71.08 -9.48,-71.15 -8.6,-71.03 -5.79,-71.68 -5.8,-71.64 -4.09,-71.81 -5.29,-71.69 -3.31,-71.8 -1.94,-72.09 -2.04,-71.88 -1.43,-71.95 -0.22,-72.04 0.81,-71.94 0.85,-71.87 3.12,-72.06 3.43,-71.85 4.35,-71.8 4.74,-71.73 6.33,-71.39 7.34,-71.37 6.78,-71.4 8.33,-71.2 8.65,-71.13 9.9,-70.84 9.68,-70.87 12.14,-70.2 12.74,-69.97 14.52,-69.53 13.4,-69.84 16.01,-69.07 16.96,-68.69 16.9,-68.5 18.72,-68.09 19.51,-67.47 19.13,-67.48 20.62,-66.86 21.7,-66.56 22.71,-65.75 23.05,-65.72 23.96,-64.87 23.8,-65.12 25.16,-64.42 25.92,-63.7 26.96,-63.05 26.69,-63.31 27.68,-62.7 28,-62.16 29.4,-61.05 30.16,-60.53 31.4,-59.7 31.82,-59.07 31.82,-58.99 33.56,-57.61 34.35,-56.67 34.3,-56.89 36.08,-54.87 35.96,-54.86 36.49,-54.48 37.81,-52.73 37.82,-52.88 38.8,-51.51 39.68,-50.32 39.97,-50.15 39.82,-50.23 40.55,-49.2 41.64,-47.97 42.12,-47.03 42.49,-46.28 43.04,-45.59 44.4,-43.21 44.79,-43.08 45.34,-42.08 46.11,-40.3 46.34,-39.72 46.42,-39.37 47.31,-38.11 47.99,-36.39 47.98,-36.45 47.77,-36.94 49.12,-33.86 49.48,-32.83 49.5,-32.8 49.51,-33.13 50.45,-30.35 50.79,-29.22 50.72,-30.06 51,-28.45 52.04,-25.72 52.13,-25.84 52.39,-24.72 52.7,-23.6 53.31,-21.01 53.03,-21.71 53.61,-19.73 53.92,-18.2 54,-17.23 54.25,-16.8 54.52,-15.41 54.54,-13.72 54.82,-12.81 55.07,-11.53 55.08,-10.66 54.85,-11.63 55.46,-7.03 55.3,-7.12 55.52,-7.6 55.43,-4.93 55.59,-3.18 55.66,-4.07 55.75,-1.17 55.69,-2.39 55.57,-1.04 55.62,0.77" fill="rgb(255, 203, 164)" stroke="black" stroke-width="1.6666666666666665" stroke-linejoin="round" filter="url(#fuzzy)" />
    <g transform="translate(29.75 -22.169999999999998)">
      <polyline id="rightCountour" points="-25.6,-0.36 -25.53,-0.45 -25.43,-0.54 -25.3,-0.63 -25.13,-0.72 -24.94,-0.81 -24.72,-0.89 -24.46,-0.98 -24.18,-1.06 -23.87,-1.15 -23.54,-1.23 -23.18,-1.31 -22.79,-1.39 -22.38,-1.46 -21.94,-1.54 -21.48,-1.61 -21.03,-1.71 -20.55,-1.8 -20.03,-1.89 -19.48,-1.97 -18.89,-2.06 -18.27,-2.14 -17.62,-2.21 -16.95,-2.28 -16.24,-2.35 -15.52,-2.41 -14.77,-2.47 -14,-2.53 -13.21,-2.58 -12.4,-2.62 -11.58,-2.66 -10.75,-2.7 -9.91,-2.73 -9.06,-2.75 -8.21,-2.77 -7.35,-2.79 -6.49,-2.8 -5.63,-2.81 -4.77,-2.81 -3.92,-2.81 -3.07,-2.8 -2.23,-2.79 -1.39,-2.77 -0.57,-2.75 0.24,-2.72 1.03,-2.69 1.82,-2.66 2.58,-2.62 3.34,-2.58 4.07,-2.53 4.78,-2.48 5.48,-2.43 6.15,-2.37 6.81,-2.32 7.45,-2.26 8.06,-2.19 8.66,-2.13 9.23,-2.06 9.78,-1.99 10.31,-1.92 10.82,-1.84 11.31,-1.77 11.79,-1.69 12.24,-1.62 12.67,-1.54 13.09,-1.46 13.49,-1.38 13.88,-1.3 14.24,-1.22 14.6,-1.14 14.93,-1.06 15.25,-0.97 15.56,-0.89 15.84,-0.81 16.12,-0.72 16.38,-0.64 16.63,-0.55 16.86,-0.47 17.08,-0.38 17.28,-0.29 18.7,0.86 18.54,0.93 18.37,0.99 18.19,1.06 18,1.12 17.8,1.19 17.6,1.25 17.38,1.32 17.15,1.38 16.91,1.45 16.65,1.51 16.39,1.57 16.12,1.63 15.83,1.7 15.53,1.76 15.22,1.82 14.9,1.88 14.56,1.94 14.21,2 13.85,2.06 13.47,2.11 13.07,2.17 12.66,2.22 12.23,2.28 11.79,2.33 11.33,2.38 10.85,2.43 10.35,2.47 9.84,2.51 9.31,2.56 8.76,2.59 8.19,2.63 7.61,2.66 7.01,2.69 6.39,2.72 5.76,2.74 5.11,2.76 4.44,2.78 3.76,2.79 3.07,2.8 2.36,2.8 1.64,2.8 0.9,2.8 0.16,2.8 -0.6,2.78 -1.37,2.77 -2.14,2.75 -2.92,2.73 -3.71,2.7 -4.51,2.67 -5.31,2.64 -6.11,2.6 -6.91,2.55 -7.72,2.51 -8.52,2.46 -9.33,2.4 -10.12,2.35 -10.92,2.28 -11.7,2.22 -12.48,2.15 -13.25,2.08 -14.01,2.01 -14.76,1.93 -15.49,1.85 -16.21,1.77 -16.84,1.71 -17.45,1.64 -18.06,1.57 -18.65,1.5 -19.23,1.43 -19.79,1.36 -20.34,1.28 -20.88,1.2 -21.39,1.13 -21.89,1.05 -22.36,0.97 -22.82,0.88 -23.25,0.8 -23.66,0.72 -24.05,0.63" fill="white" stroke="white" stroke-width="0" stroke-linejoin="round" filter="url(#fuzzy)" />
    </g>
    <g transform="translate(-37.62 -24.169999999999998)">
      <polyline id="leftCountour" points="24.99,-0.68 24.81,-0.83 24.59,-0.97 24.35,-1.12 24.08,-1.26 23.78,-1.4 23.45,-1.54 23.1,-1.68 22.73,-1.82 22.32,-1.95 21.9,-2.09 21.45,-2.22 20.99,-2.34 20.5,-2.47 19.99,-2.59 19.47,-2.7 18.91,-2.86 18.32,-3.01 17.7,-3.15 17.06,-3.29 16.4,-3.42 15.71,-3.54 15,-3.66 14.28,-3.77 13.53,-3.88 12.77,-3.97 12,-4.06 11.21,-4.14 10.41,-4.22 9.61,-4.28 8.8,-4.34 7.98,-4.39 7.16,-4.43 6.34,-4.46 5.52,-4.49 4.7,-4.5 3.88,-4.51 3.07,-4.51 2.27,-4.51 1.47,-4.49 0.68,-4.47 -0.09,-4.44 -0.86,-4.41 -1.61,-4.36 -2.35,-4.31 -3.07,-4.26 -3.78,-4.2 -4.47,-4.13 -5.14,-4.06 -5.8,-3.98 -6.43,-3.89 -7.05,-3.8 -7.65,-3.71 -8.23,-3.62 -8.79,-3.51 -9.33,-3.41 -9.85,-3.3 -10.35,-3.19 -10.83,-3.08 -11.29,-2.96 -11.74,-2.85 -12.16,-2.73 -12.57,-2.61 -12.96,-2.48 -13.33,-2.36 -13.69,-2.24 -14.03,-2.12 -14.36,-1.99 -14.68,-1.86 -14.98,-1.74 -15.26,-1.61 -15.53,-1.48 -15.79,-1.35 -16.03,-1.22 -16.27,-1.09 -16.48,-0.96 -16.69,-0.83 -16.88,-0.69 -17.07,-0.56 -17.24,-0.43 -17.23,0.95 -17.07,1.08 -16.9,1.21 -16.72,1.34 -16.53,1.47 -16.33,1.6 -16.12,1.72 -15.89,1.85 -15.66,1.97 -15.41,2.09 -15.14,2.21 -14.87,2.33 -14.58,2.45 -14.28,2.56 -13.96,2.68 -13.63,2.79 -13.29,2.9 -12.93,3.01 -12.56,3.11 -12.17,3.22 -11.76,3.32 -11.33,3.42 -10.89,3.51 -10.43,3.61 -9.96,3.7 -9.46,3.78 -8.95,3.87 -8.41,3.94 -7.86,4.02 -7.29,4.09 -6.71,4.15 -6.1,4.21 -5.48,4.26 -4.84,4.31 -4.18,4.35 -3.51,4.39 -2.83,4.42 -2.13,4.44 -1.41,4.46 -0.68,4.47 0.06,4.48 0.81,4.47 1.57,4.47 2.34,4.45 3.12,4.43 3.9,4.4 4.69,4.37 5.48,4.33 6.27,4.28 7.07,4.23 7.87,4.17 8.66,4.1 9.45,4.03 10.24,3.95 11.01,3.86 11.79,3.77 12.55,3.68 13.3,3.58 14.03,3.47 14.76,3.36 15.46,3.25 16.15,3.13 16.83,3.01 17.48,2.88 18.11,2.75 18.67,2.64 19.22,2.53 19.76,2.42 20.28,2.31 20.78,2.19 21.26,2.07 21.73,1.94 22.17,1.82 22.59,1.69 22.99,1.56 23.36,1.43 23.71,1.29 24.04,1.15 24.33,1.02 24.6,0.88" fill="white" stroke="white" stroke-width="0" stroke-linejoin="round" filter="url(#fuzzy)" />
    </g>
    <g transform="translate(29.75 -22.169999999999998)">
      <polyline id="rightUpper" points="-24.46,0.5 -24.73,0.42 -24.96,0.33 -25.16,0.25 -25.33,0.17 -25.46,0.08 -25.55,-0.01 -25.61,-0.1 -25.64,-0.18 -25.64,-0.27 -25.6,-0.36 -25.53,-0.45 -25.43,-0.54 -25.3,-0.63 -25.13,-0.72 -24.94,-0.81 -24.72,-0.89 -24.46,-0.98 -24.18,-1.06 -23.87,-1.15 -23.54,-1.23 -23.18,-1.31 -22.79,-1.39 -22.38,-1.46 -21.94,-1.54 -21.48,-1.61 -21.03,-1.71 -20.55,-1.8 -20.03,-1.89 -19.48,-1.97 -18.89,-2.06 -18.27,-2.14 -17.62,-2.21 -16.95,-2.28 -16.24,-2.35 -15.52,-2.41 -14.77,-2.47 -14,-2.53 -13.21,-2.58 -12.4,-2.62 -11.58,-2.66 -10.75,-2.7 -9.91,-2.73 -9.06,-2.75 -8.21,-2.77 -7.35,-2.79 -6.49,-2.8 -5.63,-2.81 -4.77,-2.81 -3.92,-2.81 -3.07,-2.8 -2.23,-2.79 -1.39,-2.77 -0.57,-2.75 0.24,-2.72 1.03,-2.69 1.82,-2.66 2.58,-2.62 3.34,-2.58 4.07,-2.53 4.78,-2.48 5.48,-2.43 6.15,-2.37 6.81,-2.32 7.45,-2.26 8.06,-2.19 8.66,-2.13 9.23,-2.06 9.78,-1.99 10.31,-1.92 10.82,-1.84 11.31,-1.77 11.79,-1.69 12.24,-1.62 12.67,-1.54 13.09,-1.46 13.49,-1.38 13.88,-1.3 14.24,-1.22 14.6,-1.14 14.93,-1.06 15.25,-0.97 15.56,-0.89 15.84,-0.81 16.12,-0.72 16.38,-0.64 16.63,-0.55 16.86,-0.47 17.08,-0.38 17.28,-0.29 17.48,-0.21 17.66,-0.12 17.83,-0.03 17.99,0.05 18.13,0.14 18.27,0.22 18.39,0.31 18.51,0.4 18.61,0.48 18.71,0.57" fill="none" stroke="black" stroke-width="1.6666666666666665" stroke-linejoin="round" filter="url(#fuzzy)" />
      <polyline id="rightLower" points="-26.25,-0.24 -26.19,-0.15 -26.08,-0.06 -25.94,0.02 -25.77,0.11 -25.56,0.2 -25.31,0.29 -25.04,0.37 -24.74,0.46 -24.41,0.55 -24.05,0.63 -23.66,0.72 -23.25,0.8 -22.82,0.88 -22.36,0.97 -21.89,1.05 -21.39,1.13 -20.88,1.2 -20.34,1.28 -19.79,1.36 -19.23,1.43 -18.65,1.5 -18.06,1.57 -17.45,1.64 -16.84,1.71 -16.21,1.77 -15.49,1.85 -14.76,1.93 -14.01,2.01 -13.25,2.08 -12.48,2.15 -11.7,2.22 -10.92,2.28 -10.12,2.35 -9.33,2.4 -8.52,2.46 -7.72,2.51 -6.91,2.55 -6.11,2.6 -5.31,2.64 -4.51,2.67 -3.71,2.7 -2.92,2.73 -2.14,2.75 -1.37,2.77 -0.6,2.78 0.16,2.8 0.9,2.8 1.64,2.8 2.36,2.8 3.07,2.8 3.76,2.79 4.44,2.78 5.11,2.76 5.76,2.74 6.39,2.72 7.01,2.69 7.61,2.66 8.19,2.63 8.76,2.59 9.31,2.56 9.84,2.51 10.35,2.47 10.85,2.43 11.33,2.38 11.79,2.33 12.23,2.28 12.66,2.22 13.07,2.17 13.47,2.11 13.85,2.06 14.21,2 14.56,1.94 14.9,1.88 15.22,1.82 15.53,1.76 15.83,1.7 16.12,1.63 16.39,1.57 16.65,1.51 16.91,1.45 17.15,1.38 17.38,1.32 17.6,1.25 17.8,1.19 18,1.12 18.19,1.06 18.37,0.99 18.54,0.93 18.7,0.86 18.85,0.8 19,0.73 19.13,0.67 19.26,0.61 19.38,0.54 19.49,0.48 19.6,0.41 19.69,0.35 19.78,0.29 19.87,0.23" fill="none" stroke="black" stroke-width="2.2222222222222223" stroke-linejoin="round" filter="url(#fuzzy)" />
      <circle r="4.34" cx="-21.96211510722786" cy="1.232307136427441" stroke="black" fill="none" stroke-width="1.0" filter="url(#fuzzy)" clip-path="url(#rightEyeClipPath)" /><circle r="3.544" cx="-22.26211510722786" cy="-0.17769286357255876" stroke="black" fill="none" stroke-width="1.0" filter="url(#fuzzy)" clip-path="url(#rightEyeClipPath)" /><circle r="3.338" cx="-23.76211510722786" cy="-2.152692863572559" stroke="black" fill="none" stroke-width="1.0" filter="url(#fuzzy)" clip-path="url(#rightEyeClipPath)" /><circle r="3.844" cx="-26.02711510722786" cy="2.427307136427441" stroke="black" fill="none" stroke-width="1.0" filter="url(#fuzzy)" clip-path="url(#rightEyeClipPath)" /><circle r="3.198" cx="-26.272115107227858" cy="0.8623071364274413" stroke="black" fill="none" stroke-width="1.0" filter="url(#fuzzy)" clip-path="url(#rightEyeClipPath)" /><circle r="3.596" cx="-25.647115107227858" cy="-2.317692863572559" stroke="black" fill="none" stroke-width="1.0" filter="url(#fuzzy)" clip-path="url(#rightEyeClipPath)" /><circle r="3.16" cx="-21.777115107227857" cy="0.502307136427441" stroke="black" fill="none" stroke-width="1.0" filter="url(#fuzzy)" clip-path="url(#rightEyeClipPath)" /><circle r="4.062" cx="-22.24211510722786" cy="1.9723071364274407" stroke="black" fill="none" stroke-width="1.0" filter="url(#fuzzy)" clip-path="url(#rightEyeClipPath)" /><circle r="3.174" cx="-22.612115107227858" cy="2.042307136427441" stroke="black" fill="none" stroke-width="1.0" filter="url(#fuzzy)" clip-path="url(#rightEyeClipPath)" /><circle r="3.164" cx="-25.78211510722786" cy="-0.822692863572559" stroke="black" fill="none" stroke-width="1.0" filter="url(#fuzzy)" clip-path="url(#rightEyeClipPath)" />
      </g>
    <g transform="translate(-37.62 -24.169999999999998)">
      <polyline id="leftUpper" points="24.94,0.71 25.11,0.58 25.24,0.45 25.33,0.31 25.39,0.18 25.41,0.04 25.39,-0.11 25.34,-0.25 25.26,-0.39 25.14,-0.54 24.99,-0.68 24.81,-0.83 24.59,-0.97 24.35,-1.12 24.08,-1.26 23.78,-1.4 23.45,-1.54 23.1,-1.68 22.73,-1.82 22.32,-1.95 21.9,-2.09 21.45,-2.22 20.99,-2.34 20.5,-2.47 19.99,-2.59 19.47,-2.7 18.91,-2.86 18.32,-3.01 17.7,-3.15 17.06,-3.29 16.4,-3.42 15.71,-3.54 15,-3.66 14.28,-3.77 13.53,-3.88 12.77,-3.97 12,-4.06 11.21,-4.14 10.41,-4.22 9.61,-4.28 8.8,-4.34 7.98,-4.39 7.16,-4.43 6.34,-4.46 5.52,-4.49 4.7,-4.5 3.88,-4.51 3.07,-4.51 2.27,-4.51 1.47,-4.49 0.68,-4.47 -0.09,-4.44 -0.86,-4.41 -1.61,-4.36 -2.35,-4.31 -3.07,-4.26 -3.78,-4.2 -4.47,-4.13 -5.14,-4.06 -5.8,-3.98 -6.43,-3.89 -7.05,-3.8 -7.65,-3.71 -8.23,-3.62 -8.79,-3.51 -9.33,-3.41 -9.85,-3.3 -10.35,-3.19 -10.83,-3.08 -11.29,-2.96 -11.74,-2.85 -12.16,-2.73 -12.57,-2.61 -12.96,-2.48 -13.33,-2.36 -13.69,-2.24 -14.03,-2.12 -14.36,-1.99 -14.68,-1.86 -14.98,-1.74 -15.26,-1.61 -15.53,-1.48 -15.79,-1.35 -16.03,-1.22 -16.27,-1.09 -16.48,-0.96 -16.69,-0.83 -16.88,-0.69 -17.07,-0.56 -17.24,-0.43 -17.4,-0.3 -17.54,-0.17 -17.68,-0.04 -17.81,0.1 -17.93,0.23 -18.04,0.36 -18.14,0.49 -18.23,0.62 -18.31,0.75 -18.39,0.87" fill="none" stroke="black" stroke-width="2.2222222222222223" stroke-linejoin="round" filter="url(#fuzzy)" />
      <polyline id="leftLower" points="25.49,-0.59 25.57,-0.44 25.6,-0.29 25.6,-0.14 25.56,0.01 25.48,0.16 25.37,0.3 25.23,0.45 25.05,0.59 24.84,0.74 24.6,0.88 24.33,1.02 24.04,1.15 23.71,1.29 23.36,1.43 22.99,1.56 22.59,1.69 22.17,1.82 21.73,1.94 21.26,2.07 20.78,2.19 20.28,2.31 19.76,2.42 19.22,2.53 18.67,2.64 18.11,2.75 17.48,2.88 16.83,3.01 16.15,3.13 15.46,3.25 14.76,3.36 14.03,3.47 13.3,3.58 12.55,3.68 11.79,3.77 11.01,3.86 10.24,3.95 9.45,4.03 8.66,4.1 7.87,4.17 7.07,4.23 6.27,4.28 5.48,4.33 4.69,4.37 3.9,4.4 3.12,4.43 2.34,4.45 1.57,4.47 0.81,4.47 0.06,4.48 -0.68,4.47 -1.41,4.46 -2.13,4.44 -2.83,4.42 -3.51,4.39 -4.18,4.35 -4.84,4.31 -5.48,4.26 -6.1,4.21 -6.71,4.15 -7.29,4.09 -7.86,4.02 -8.41,3.94 -8.95,3.87 -9.46,3.78 -9.96,3.7 -10.43,3.61 -10.89,3.51 -11.33,3.42 -11.76,3.32 -12.17,3.22 -12.56,3.11 -12.93,3.01 -13.29,2.9 -13.63,2.79 -13.96,2.68 -14.28,2.56 -14.58,2.45 -14.87,2.33 -15.14,2.21 -15.41,2.09 -15.66,1.97 -15.89,1.85 -16.12,1.72 -16.33,1.6 -16.53,1.47 -16.72,1.34 -16.9,1.21 -17.07,1.08 -17.23,0.95 -17.37,0.82 -17.51,0.69 -17.64,0.56 -17.75,0.43 -17.86,0.29 -17.96,0.16 -18.05,0.03 -18.13,-0.11 -18.21,-0.24 -18.28,-0.37" fill="none" stroke="black" stroke-width="2.2222222222222223" stroke-linejoin="round" filter="url(#fuzzy)" />
      <circle r="3.068" cx="0.692471677873626" cy="1.6293766773167313" stroke="black" fill="none" stroke-width="1.0" filter="url(#fuzzy)" clip-path="url(#leftEyeClipPath)" /><circle r="4.786" cx="-1.8175283221263738" cy="1.764376677316731" stroke="black" fill="none" stroke-width="1.0" filter="url(#fuzzy)" clip-path="url(#leftEyeClipPath)" /><circle r="3.7279999999999998" cx="-3.272528322126374" cy="3.059376677316731" stroke="black" fill="none" stroke-width="1.0" filter="url(#fuzzy)" clip-path="url(#leftEyeClipPath)" /><circle r="3.88" cx="-2.337528322126374" cy="2.979376677316731" stroke="black" fill="none" stroke-width="1.0" filter="url(#fuzzy)" clip-path="url(#leftEyeClipPath)" /><circle r="4.934" cx="-2.9075283221263737" cy="-0.9756233226832691" stroke="black" fill="none" stroke-width="1.0" filter="url(#fuzzy)" clip-path="url(#leftEyeClipPath)" /><circle r="3.84" cx="0.7224716778736262" cy="0.45937667731673093" stroke="black" fill="none" stroke-width="1.0" filter="url(#fuzzy)" clip-path="url(#leftEyeClipPath)" /><circle r="3.076" cx="-3.1625283221263736" cy="-0.9856233226832691" stroke="black" fill="none" stroke-width="1.0" filter="url(#fuzzy)" clip-path="url(#leftEyeClipPath)" /><circle r="4.1579999999999995" cx="-0.027528322126373794" cy="1.854376677316731" stroke="black" fill="none" stroke-width="1.0" filter="url(#fuzzy)" clip-path="url(#leftEyeClipPath)" /><circle r="3.172" cx="-0.2775283221263738" cy="-0.7406233226832692" stroke="black" fill="none" stroke-width="1.0" filter="url(#fuzzy)" clip-path="url(#leftEyeClipPath)" /><circle r="3.066" cx="1.227471677873626" cy="-0.07562332268326921" stroke="black" fill="none" stroke-width="1.0" filter="url(#fuzzy)" clip-path="url(#leftEyeClipPath)" />
    </g>
    <g id="hairs">
      <polyline points="55.08,-10.66 59.72,-8.17 61.54,-6.19 60.91,-4.23 60.01,-2.31 59.6,-0.37 59.58,1.64 59.67,3.76 59.7,5.95 59.65,8.14 59.56,10.33 59.49,12.49 59.48,14.63 59.55,16.76 59.71,18.88 59.95,20.98 60.24,23.06 60.53,25.11 60.76,27.14 60.85,29.16 60.77,31.16 60.48,33.16 59.98,35.16 59.26,37.14 58.34,39.1 57.24,41.02 55.98,42.88 54.64,44.67 53.33,46.38 52.13,48.03 51.14,49.62 50.36,51.15 49.74,52.61 49.17,54.01 48.48,55.36 47.51,56.74 46.29,58.25 45.37,59.7" fill="none" stroke="rgb(44, 34, 43)" stroke-width="2" stroke-linejoin="round" filter="url(#fuzzy)" /><polyline points="-0.22,-72.04 -2.03,-71.92 -3.52,-71.81 -5.15,-71.63 -6.98,-71.36 -8.94,-71.01 -10.95,-70.6 -12.99,-70.16 -15.09,-69.67 -17.29,-69.13 -19.61,-68.5 -22,-67.8 -24.39,-67 -26.72,-66.13 -28.93,-65.2 -31.03,-64.21 -33.05,-63.17 -35.02,-62.09 -36.98,-60.95 -38.94,-59.77 -40.94,-58.53 -42.97,-57.24 -45.08,-55.89 -47.3,-54.49 -49.64,-53.03 -52.06,-51.55 -54.48,-50.04 -56.85,-48.54 -59.2,-47.02 -61.6,-45.49 -64.14,-43.9 -66.81,-42.23 -69.48,-40.51 -71.98,-38.79 -74.28,-37.07 -76.82,-34.86" fill="none" stroke="rgb(44, 34, 43)" stroke-width="2" stroke-linejoin="round" filter="url(#fuzzy)" /><polyline points="-3.31,-71.8 -5.23,-71.72 -7.46,-71.45 -9.46,-71.05 -11.18,-70.61 -12.77,-70.16 -14.41,-69.68 -16.29,-69.14 -18.5,-68.52 -21.02,-67.8 -23.7,-67 -26.34,-66.11 -28.8,-65.17 -31.03,-64.18 -33.08,-63.13 -35.08,-62.05 -37.12,-60.91 -39.25,-59.72 -41.45,-58.48 -43.69,-57.18 -45.91,-55.83 -48.09,-54.43 -50.28,-52.97 -52.58,-51.49 -55.09,-49.98 -57.87,-48.47 -60.87,-46.96 -63.95,-45.41 -66.9,-43.82 -69.57,-42.16 -71.94,-40.46 -74.13,-38.74 -76.29,-37.04 -78.51,-35.33 -81.03,-33.88" fill="none" stroke="rgb(44, 34, 43)" stroke-width="2" stroke-linejoin="round" filter="url(#fuzzy)" /><polyline points="-4.09,-71.81 -6.63,-71.53 -9.23,-71.08 -11.96,-70.61 -14.87,-70.15 -17.88,-69.68 -20.8,-69.14 -23.48,-68.52 -25.79,-67.8 -27.77,-66.98 -29.54,-66.09 -31.31,-65.14 -33.28,-64.14 -35.56,-63.09 -38.21,-62 -41.14,-60.85 -44.24,-59.66 -47.36,-58.41 -50.4,-57.11 -53.31,-55.76 -56.1,-54.35 -58.82,-52.89 -61.52,-51.41 -64.19,-49.9 -66.76,-48.39 -69.12,-46.86 -71.19,-45.3 -72.97,-43.7 -74.62,-42.05 -76.39,-40.36 -78.54,-38.64 -81.2,-36.92 -84.4,-35.16 -88.13,-33.27 -92.17,-30.97 -95.61,-27.51" fill="none" stroke="rgb(44, 34, 43)" stroke-width="2" stroke-linejoin="round" filter="url(#fuzzy)" /><polyline points="-4.09,-71.81 -6.29,-71.53 -8.76,-71.08 -10.98,-70.61 -13,-70.16 -15.07,-69.7 -17.35,-69.18 -19.84,-68.57 -22.46,-67.86 -25.12,-67.06 -27.81,-66.18 -30.6,-65.24 -33.58,-64.25 -36.86,-63.22 -40.43,-62.15 -44.24,-61.03 -48.15,-59.86 -51.99,-58.64 -55.61,-57.36 -58.93,-56.03 -61.99,-54.63 -64.85,-53.17 -67.59,-51.66 -70.22,-50.15 -72.7,-48.66 -75.19,-47.22 -78.24,-45.84 -82.68,-44.53 -88.46,-43.43" fill="none" stroke="rgb(44, 34, 43)" stroke-width="2" stroke-linejoin="round" filter="url(#fuzzy)" /><polyline points="-5.8,-71.64 -7.94,-71.21 -9.8,-70.82 -11.67,-70.38 -13.53,-69.88 -15.38,-69.31 -17.19,-68.7 -18.95,-68.03 -20.67,-67.31 -22.38,-66.51 -24.1,-65.65 -25.83,-64.71 -27.55,-63.7 -29.26,-62.62 -30.94,-61.48 -32.59,-60.29 -34.26,-59.05 -35.98,-57.77 -37.8,-56.47 -39.74,-55.15 -41.8,-53.8 -43.95,-52.42 -46.12,-50.99 -48.24,-49.48 -50.28,-47.89 -52.22,-46.21 -54.07,-44.45 -55.86,-42.63 -57.65,-40.78 -59.44,-38.91 -61.22,-37.02 -62.97,-35.09 -64.71,-33.07 -66.45,-31 -68,-29.13 -68.38,-28.31" fill="none" stroke="rgb(44, 34, 43)" stroke-width="2" stroke-linejoin="round" filter="url(#fuzzy)" /><polyline points="-8.6,-71.03 -10.17,-70.83 -11.81,-70.4 -13.49,-69.89 -15.27,-69.33 -17.11,-68.71 -18.9,-68.05 -20.61,-67.33 -22.28,-66.54 -23.97,-65.68 -25.72,-64.74 -27.54,-63.74 -29.36,-62.66 -31.16,-61.53 -32.87,-60.34 -34.5,-59.1 -36.05,-57.83 -37.54,-56.53 -39.02,-55.21 -40.54,-53.88 -42.15,-52.53 -43.89,-51.13 -45.76,-49.65 -47.74,-48.07 -49.75,-46.38 -51.7,-44.61 -53.52,-42.78 -55.16,-40.93 -56.59,-39.08 -57.82,-37.25 -58.8,-35.57 -59.39,-34.89" fill="none" stroke="rgb(44, 34, 43)" stroke-width="2" stroke-linejoin="round" filter="url(#fuzzy)" /><polyline points="-9.48,-71.15 -11.26,-70.53 -12.76,-70.1 -14.18,-69.69 -15.7,-69.2 -17.42,-68.59 -19.39,-67.86 -21.57,-67.04 -23.85,-66.14 -26.14,-65.19 -28.35,-64.19 -30.49,-63.15 -32.58,-62.07 -34.67,-60.94 -36.77,-59.76 -38.91,-58.53 -41.07,-57.25 -43.26,-55.91 -45.48,-54.5 -47.7,-53.05 -49.9,-51.55 -52.07,-50.05 -54.23,-48.56 -56.49,-47.09 -58.94,-45.6 -61.6,-44.04 -64.38,-42.31 -67.24,-40.38 -69.45,-38.73" fill="none" stroke="rgb(44, 34, 43)" stroke-width="2" stroke-linejoin="round" filter="url(#fuzzy)" /><polyline points="-9.48,-71.15 -11.36,-70.53 -12.98,-70.1 -14.53,-69.68 -16.21,-69.19 -18.07,-68.57 -20.06,-67.84 -22.09,-67.01 -24.13,-66.11 -26.17,-65.15 -28.26,-64.15 -30.45,-63.1 -32.74,-62.01 -35.1,-60.87 -37.48,-59.68 -39.83,-58.44 -42.12,-57.15 -44.37,-55.79 -46.56,-54.38 -48.68,-52.93 -50.68,-51.44 -52.57,-49.94 -54.41,-48.44 -56.37,-46.92 -58.57,-45.38 -61.01,-43.79 -63.47,-42.14 -65.63,-40.44 -67.42,-38.72 -69.16,-37.03 -71.51,-35.33 -75.13,-33.88" fill="none" stroke="rgb(44, 34, 43)" stroke-width="2" stroke-linejoin="round" filter="url(#fuzzy)" /><polyline points="-9.48,-71.15 -11.51,-70.53 -13.32,-70.09 -15.51,-69.67 -18.63,-69.17 -22.38,-68.55 -26.04,-67.82 -28.97,-66.98 -31,-66.07 -32.37,-65.11 -33.54,-64.1 -34.91,-63.04 -36.6,-61.94 -38.53,-60.8 -40.52,-59.6 -42.43,-58.34 -44.26,-57.04 -46.12,-55.67 -48.16,-54.26 -50.52,-52.8 -53.22,-51.32 -56.21,-49.81 -59.4,-48.29 -62.68,-46.75 -65.97,-45.18 -69.24,-43.58 -72.52,-41.93 -75.85,-40.24 -79.38,-38.51 -83.31,-36.73 -87.88,-34.89 -93.21,-32.91 -99.1,-30.75 -104.81,-28.47 -109.21,-26.33 -111.34,-24.81" fill="none" stroke="rgb(44, 34, 43)" stroke-width="2" stroke-linejoin="round" filter="url(#fuzzy)" /><polyline points="-11.43,-70.33 -13.16,-70.03 -14.84,-69.68 -17.18,-69.21 -20.1,-68.59 -23.09,-67.84 -25.81,-67 -28.21,-66.08 -30.37,-65.11 -32.39,-64.1 -34.24,-63.05 -35.91,-61.95 -37.39,-60.8 -38.78,-59.6 -40.24,-58.35 -41.92,-57.05 -43.94,-55.69 -46.32,-54.27 -48.97,-52.82 -51.76,-51.33 -54.54,-49.82 -57.19,-48.31 -59.61,-46.78 -61.84,-45.22 -64.03,-43.61 -66.47,-41.97 -69.45,-40.28 -73.13,-38.56 -77.37,-36.81 -81.69,-35 -85.43,-33.04 -88.18,-30.82 -90.29,-28.29 -93.48,-26.08" fill="none" stroke="rgb(44, 34, 43)" stroke-width="2" stroke-linejoin="round" filter="url(#fuzzy)" /><polyline points="-12.65,-70.28 -13.83,-69.89 -15.57,-69.33 -17.4,-68.71 -19.26,-68.04 -21.22,-67.33 -23.46,-66.55 -26.12,-65.68 -29.15,-64.74 -32.37,-63.72 -35.54,-62.64 -38.56,-61.51 -41.46,-60.31 -44.43,-59.07 -47.67,-57.79 -51.27,-56.49 -55.13,-55.17 -58.98,-53.85 -62.5,-52.5 -65.52,-51.1 -68.16,-49.62 -70.8,-48.05 -73.92,-46.36 -77.77,-44.59 -82.19,-42.76 -86.67,-40.91 -90.7,-39.07 -94.19,-37.24 -96.99,-35.56 -97.99,-34.89" fill="none" stroke="rgb(44, 34, 43)" stroke-width="2" stroke-linejoin="round" filter="url(#fuzzy)" /><polyline points="-13.6,-69.74 -15.24,-69.33 -17.16,-68.69 -19.43,-67.9 -21.82,-67.02 -24.07,-66.08 -26.22,-65.09 -28.54,-64.08 -31.34,-63.03 -34.7,-61.94 -38.46,-60.79 -42.29,-59.6 -45.81,-58.35 -48.8,-57.04 -51.22,-55.68 -53.19,-54.27 -54.91,-52.81 -56.57,-51.32 -58.27,-49.82 -60.1,-48.31 -62.12,-46.79 -64.39,-45.24 -66.97,-43.64 -69.86,-42 -73.01,-40.31 -76.37,-38.6 -79.9,-36.89 -83.58,-35.13 -87.42,-33.25 -91.76,-30.96 -97.35,-27.51" fill="none" stroke="rgb(44, 34, 43)" stroke-width="2" stroke-linejoin="round" filter="url(#fuzzy)" /><polyline points="-16.38,-68.71 -17.59,-68 -18.83,-67.33 -19.93,-66.58 -20.87,-65.71 -21.8,-64.74 -22.78,-63.7 -23.76,-62.62 -24.66,-61.48 -25.42,-60.28 -26.03,-59.04 -26.52,-57.75 -26.92,-56.44 -27.25,-55.13 -27.45,-53.82 -27.44,-52.49 -27.07,-51.12 -26.29,-49.65 -25.16,-48.08 -23.94,-46.4 -22.94,-44.62 -22.32,-42.78 -21.93,-40.94 -21.39,-39.09 -20.69,-37.05 -20.69,-34.41" fill="none" stroke="rgb(44, 34, 43)" stroke-width="2" stroke-linejoin="round" filter="url(#fuzzy)" /><polyline points="54.82,-12.81 61.85,-10.51 61.86,-8.35 60.86,-6.3 60.4,-4.33 61.09,-2.39 63.02,-0.44 65.68,1.58 68.31,3.68 70.31,5.85 71.51,8.03 72.13,10.21 72.52,12.36 72.9,14.5 73.34,16.63 73.79,18.74 74.22,20.85 74.65,22.92 75.14,24.97 75.81,27 76.76,29.01 78.1,31.01 79.89,33 82.06,35 84.32,37 86.18,38.98 87.12,40.92 86.87,42.79 85.66,44.59 84.1,46.3 82.85,47.93 82.13,49.52 81.69,51.15 81.46,52.85 81.82,54.6" fill="none" stroke="rgb(44, 34, 43)" stroke-width="2" stroke-linejoin="round" filter="url(#fuzzy)" /><polyline points="54.82,-12.81 55.22,-10.51 56.04,-8.35 57.17,-6.31 58.13,-4.33 58.63,-2.4 58.79,-0.46 58.91,1.56 59.15,3.66 59.52,5.83 59.9,8.01 60.18,10.19 60.28,12.34 60.18,14.48 59.91,16.6 59.51,18.72 59.02,20.82 58.52,22.89 58.1,24.94 57.79,26.97 57.61,28.97 57.49,30.97 57.35,32.96 57.07,34.96 56.6,36.96 55.94,38.95 55.15,40.89 54.33,42.78 53.57,44.58 52.89,46.29 52.19,47.89 51.28,49.44 50.04,51.07 48.7,52.71" fill="none" stroke="rgb(44, 34, 43)" stroke-width="2" stroke-linejoin="round" filter="url(#fuzzy)" /><polyline points="-17.26,-68.67 -19.32,-67.94 -21.81,-67.01 -23.74,-66.02 -25.42,-65.02 -27.2,-63.99 -29.17,-62.93 -31.28,-61.82 -33.43,-60.66 -35.56,-59.44 -37.65,-58.17 -39.74,-56.84 -41.93,-55.46 -44.37,-54.03 -47.2,-52.56 -50.48,-51.06 -54.16,-49.54 -58.03,-48.01 -61.84,-46.45 -65.32,-44.86 -68.3,-43.23 -70.75,-41.56 -72.73,-39.84 -74.38,-38.07 -75.83,-36.23 -77.22,-34.32 -78.72,-32.34 -80.46,-30.29 -82.61,-28.21 -85.22,-26.11 -88.24,-24.01 -91.54,-21.92 -94.96,-19.79 -98.33,-17.59 -101.34,-15.31 -103.47,-12.97 -104.36,-10.71 -105.03,-9.19" fill="none" stroke="rgb(44, 34, 43)" stroke-width="2" stroke-linejoin="round" filter="url(#fuzzy)" /><polyline points="-17.72,-68.1 -20.25,-67.07 -22.62,-66.04 -24.79,-65.05 -26.77,-64.05 -28.6,-63.02 -30.33,-61.94 -32.02,-60.81 -33.72,-59.62 -35.45,-58.39 -37.27,-57.1 -39.2,-55.76 -41.28,-54.35 -43.49,-52.89 -45.78,-51.39 -48.1,-49.9 -50.35,-48.42 -52.46,-46.95 -54.4,-45.45 -56.2,-43.89 -58.01,-42.22 -60.02,-40.48 -62.24,-38.9 -64.53,-37.8" fill="none" stroke="rgb(44, 34, 43)" stroke-width="2" stroke-linejoin="round" filter="url(#fuzzy)" /><polyline points="-19.78,-67.2 -23.8,-66.64 -25.34,-65.72 -27.22,-64.68 -29.39,-63.6 -31.44,-62.49 -33.28,-61.33 -35.03,-60.1 -36.81,-58.83 -38.69,-57.53 -40.72,-56.2 -42.96,-54.87 -45.49,-53.51 -48.31,-52.12 -51.3,-50.67 -54.26,-49.14 -57.03,-47.52 -59.58,-45.82 -62.04,-44.06 -64.59,-42.24 -67.39,-40.38 -70.5,-38.5 -73.89,-36.59 -77.49,-34.66 -81.29,-32.73 -85.34,-30.8 -89.73,-28.9 -94.44,-27.05 -99.31,-25.26 -103.89,-23.48 -107.55,-21.69 -110.1,-19.81 -112.84,-17.71 -118.87,-15.24" fill="none" stroke="rgb(44, 34, 43)" stroke-width="2" stroke-linejoin="round" filter="url(#fuzzy)" /><polyline points="-20.88,-66.97 -22.67,-65.82 -24.49,-64.69 -26.2,-63.6 -27.76,-62.5 -29.24,-61.35 -30.69,-60.13 -32.12,-58.86 -33.53,-57.55 -34.89,-56.23 -36.17,-54.91 -37.39,-53.57 -38.56,-52.21 -39.71,-50.78 -40.87,-49.27 -42.04,-47.67 -43.23,-45.97 -44.41,-44.21 -45.57,-42.39 -46.7,-40.54 -47.76,-38.68 -48.78,-36.78 -49.75,-34.86 -50.7,-32.89 -51.62,-30.91 -52.48,-28.98 -53.22,-27.18 -53.79,-25.59 -54.06,-24.82" fill="none" stroke="rgb(44, 34, 43)" stroke-width="2" stroke-linejoin="round" filter="url(#fuzzy)" /><polyline points="-22.69,-65.74 -23.66,-64.91 -24.4,-63.94 -24.4,-62.91 -24.16,-61.81 -24.2,-60.64 -24.71,-59.42 -25.64,-58.15 -26.85,-56.82 -28.16,-55.43 -29.4,-53.99 -30.39,-52.52 -31.07,-51.01 -31.44,-49.49 -31.54,-47.96 -31.43,-46.41 -31.12,-44.83 -30.56,-43.21 -29.72,-41.55 -28.63,-39.83 -27.37,-38.07 -26.06,-36.24 -24.87,-34.33 -23.91,-32.35 -23.26,-30.3 -22.94,-28.21 -22.79,-26.11 -22.57,-24.03 -21.99,-21.97 -20.95,-19.86 -19.71,-17.67 -18.59,-15.36 -17.01,-12.87 -12.83,-9.72" fill="none" stroke="rgb(44, 34, 43)" stroke-width="2" stroke-linejoin="round" filter="url(#fuzzy)" /><polyline points="-25.69,-63.68 -29.34,-62.89 -30.59,-61.84 -31.96,-60.67 -34.6,-59.45 -38.61,-58.2 -43.25,-56.9 -47.49,-55.54 -50.67,-54.11 -52.81,-52.63 -54.42,-51.13 -56.09,-49.63 -58.22,-48.14 -60.97,-46.64 -64.32,-45.11 -68.21,-43.53 -72.49,-41.89 -76.86,-40.21 -81,-38.51 -84.78,-36.82 -88.52,-35.08 -93.06,-33.22 -99.61,-30.93 -108.31,-27.51" fill="none" stroke="rgb(44, 34, 43)" stroke-width="2" stroke-linejoin="round" filter="url(#fuzzy)" /><polyline points="-27.26,-62.78 -28.02,-62.36 -30.03,-61.3 -32.5,-60.05 -34.93,-58.72 -37.19,-57.37 -39.21,-56.02 -40.95,-54.68 -42.45,-53.33 -43.83,-51.94 -45.27,-50.48 -46.86,-48.92 -48.62,-47.28 -50.49,-45.55 -52.38,-43.76 -54.22,-41.93 -56.01,-40.06 -57.81,-38.16 -59.74,-36.25 -61.92,-34.33 -64.36,-32.41 -67,-30.5 -69.67,-28.6 -72.19,-26.72 -74.44,-24.85 -76.36,-22.95 -77.97,-21 -79.38,-18.97 -80.7,-16.85 -82.06,-14.66 -83.56,-12.42 -85.2,-10.15 -86.81,-7.85 -88.11,-5.53 -88.97,-3.25 -90,-1.1 -93.21,1.43" fill="none" stroke="rgb(44, 34, 43)" stroke-width="2" stroke-linejoin="round" filter="url(#fuzzy)" /><polyline points="-27.16,-62.98 -29.56,-61.47 -32.36,-60.07 -34.88,-58.71 -37.24,-57.35 -39.59,-55.99 -41.8,-54.65 -43.67,-53.31 -45.05,-51.94 -46.04,-50.48 -46.82,-48.94 -47.61,-47.29 -48.59,-45.56 -49.8,-43.76 -51.19,-41.93 -52.68,-40.06 -54.18,-38.17 -55.62,-36.26 -57.02,-34.34 -58.42,-32.41 -59.89,-30.5 -61.45,-28.61 -63.09,-26.74 -64.76,-24.88 -66.4,-22.99 -67.95,-21.05 -69.36,-19.03 -70.64,-16.91 -71.79,-14.72 -72.86,-12.47 -73.9,-10.21 -74.96,-7.91 -76.09,-5.54 -77.35,-3.29 -78.74,-2.1" fill="none" stroke="rgb(44, 34, 43)" stroke-width="2" stroke-linejoin="round" filter="url(#fuzzy)" /><polyline points="54.52,-15.41 54.84,-12.97 55.33,-10.64 56.2,-8.46 57.67,-6.39 59.6,-4.39 61.53,-2.43 62.95,-0.45 63.67,1.58 63.76,3.69 63.48,5.85 63.11,8.02 62.8,10.2 62.6,12.36 62.5,14.5 62.44,16.64 62.37,18.76 62.27,20.86 62.14,22.94 61.98,25 61.85,27.03 61.77,29.05 61.78,31.05 61.88,33.05 62.02,35.05 62.15,37.05 62.21,39.01 62.17,40.94 62,42.81 61.72,44.61 61.33,46.33 60.8,47.98 60.08,49.57 59.16,51.12 58.15,52.6 57.28,53.94 56.58,55.09 54.54,56.4" fill="none" stroke="rgb(44, 34, 43)" stroke-width="2" stroke-linejoin="round" filter="url(#fuzzy)" /><polyline points="54.52,-15.41 64.57,-13 75.31,-10.7 80.87,-8.55 82.94,-6.5 83.44,-4.53 83.45,-2.61 83.44,-0.69 83.54,1.29 83.9,3.36 84.63,5.51 85.82,7.68 87.36,9.83 89.09,11.96 90.83,14.06 92.48,16.17 93.94,18.28 95.13,20.39 95.97,22.47 96.53,24.5 97.08,26.48 98.17,28.44 100.43,30.42 104.03,32.32 106.55,33.5" fill="none" stroke="rgb(44, 34, 43)" stroke-width="2" stroke-linejoin="round" filter="url(#fuzzy)" /><polyline points="-33.22,-57.83 -34.75,-56.74 -37.27,-55.39 -39.98,-53.88 -42.09,-52.31 -43.49,-50.76 -44.54,-49.24 -45.63,-47.75 -46.97,-46.24 -48.62,-44.69 -50.49,-43.08 -52.48,-41.42 -54.53,-39.71 -56.64,-37.96 -58.87,-36.15 -61.28,-34.26 -63.81,-32.28 -66.38,-30.22 -68.91,-28.12 -71.45,-26.04 -74.12,-24 -76.9,-21.98 -79.48,-19.92 -81.58,-17.75 -83.62,-15.58 -87.1,-13.8" fill="none" stroke="rgb(44, 34, 43)" stroke-width="2" stroke-linejoin="round" filter="url(#fuzzy)" /><polyline points="-33.57,-57.22 -40.47,-55.73 -41.96,-54.4 -43.71,-53.19 -45.99,-51.93 -48.07,-50.53 -49.56,-48.98 -50.53,-47.32 -51.3,-45.56 -52.21,-43.75 -53.51,-41.91 -55.33,-40.05 -57.64,-38.17 -60.29,-36.27 -62.99,-34.36 -65.39,-32.43 -67.17,-30.52 -68.29,-28.65 -68.98,-26.82 -69.8,-25.02 -71.32,-23.22 -73.83,-21.36 -77.07,-19.38 -80.3,-17.22 -82.66,-14.88 -84.15,-12.62 -87.23,-11.29" fill="none" stroke="rgb(44, 34, 43)" stroke-width="2" stroke-linejoin="round" filter="url(#fuzzy)" /><polyline points="-34.16,-56.93 -37.75,-55.41 -42.38,-53.82 -45.89,-52.19 -47.75,-50.6 -48.38,-49.07 -48.54,-47.56 -48.84,-46.02 -49.58,-44.43 -50.8,-42.79 -52.33,-41.09 -53.94,-39.33 -55.46,-37.52 -56.82,-35.65 -58.1,-33.71 -59.46,-31.7 -61.14,-29.65 -63.35,-27.56 -66.17,-25.45 -69.51,-23.33 -73.09,-21.2 -76.5,-19.06 -79.34,-16.9 -81.36,-14.73 -82.51,-12.57 -82.99,-10.41 -83.12,-8.25 -83.26,-6.09 -83.66,-3.9 -84.42,-1.69 -85.53,0.51 -86.93,2.69 -88.6,4.8 -90.53,6.86 -92.66,8.9 -94.8,11.02 -96.92,13.36 -100.08,15.77" fill="none" stroke="rgb(44, 34, 43)" stroke-width="2" stroke-linejoin="round" filter="url(#fuzzy)" /><polyline points="-38.46,-51.9 -44.39,-50.24 -46.58,-48.89 -46.75,-47.5 -46.83,-46.04 -47.55,-44.49 -48.82,-42.86 -50.26,-41.17 -51.55,-39.44 -52.64,-37.67 -53.7,-35.84 -54.95,-33.93 -56.57,-31.94 -58.55,-29.88 -60.74,-27.79 -62.91,-25.71 -64.88,-23.63 -66.6,-21.56 -68.11,-19.45 -69.54,-17.28 -70.96,-15.08 -72.37,-12.89 -73.78,-10.8 -75.37,-8.86 -77.67,-6.95 -81.53,-4.48" fill="none" stroke="rgb(44, 34, 43)" stroke-width="2" stroke-linejoin="round" filter="url(#fuzzy)" /><polyline points="54.25,-16.8 50.39,-14.25 49.18,-12.2 48.4,-10.2 48.36,-8.14 48.9,-6.07 49.4,-3.99 49.35,-1.86 48.55,0.32 47.11,2.54 45.28,4.75 43.39,6.93 41.73,9.08 40.45,11.21 39.49,13.33 38.67,15.47 37.7,17.62 36.29,19.76 34.26,21.9 31.61,24.01 28.5,26.08 25.2,28.11 22.02,30.1 19.21,32.05 16.89,33.98 15.1,35.9 13.76,37.83 12.7,39.75 11.61,41.65 10.19,43.47 8.31,45.15 6.33,46.69 4.77,48.08 3.69,49.47 3.04,51.2" fill="none" stroke="rgb(44, 34, 43)" stroke-width="2" stroke-linejoin="round" filter="url(#fuzzy)" /><polyline points="-40.12,-49.64 -41.82,-47.54 -42.97,-46 -44.02,-44.46 -45.05,-42.81 -46.04,-41.1 -46.99,-39.37 -47.89,-37.62 -48.77,-35.81 -49.61,-33.91 -50.44,-31.91 -51.23,-29.85 -51.99,-27.75 -52.7,-25.68 -53.36,-23.63 -54,-21.58 -54.62,-19.49 -55.23,-17.32 -55.79,-15.1 -56.27,-12.88 -56.64,-10.8 -56.91,-9.05 -57.18,-7.67" fill="none" stroke="rgb(44, 34, 43)" stroke-width="2" stroke-linejoin="round" filter="url(#fuzzy)" /><polyline points="-42.4,-46.86 -43.72,-45.26 -45.04,-43.28 -46.31,-41.36 -47.57,-39.49 -48.79,-37.62 -49.96,-35.72 -51.08,-33.78 -52.19,-31.84 -53.36,-29.93 -54.63,-28.06 -56.01,-26.21 -57.45,-24.35 -58.87,-22.46 -60.2,-20.5 -61.39,-18.45 -62.49,-16.33 -63.55,-14.14 -64.68,-11.9 -65.92,-9.64 -67.22,-7.35 -68.44,-5.04 -69.36,-2.71 -69.85,-0.37 -70.01,1.98 -70.14,4.28 -70.61,6.48 -71.55,8.54 -72.68,10.55 -73.69,12.58" fill="none" stroke="rgb(44, 34, 43)" stroke-width="2" stroke-linejoin="round" filter="url(#fuzzy)" /><polyline points="-42.85,-45.72 -44.35,-43.28 -45.67,-41.28 -46.91,-39.46 -48.05,-37.64 -49.05,-35.76 -49.91,-33.83 -50.69,-31.89 -51.43,-29.98 -52.16,-28.13 -52.91,-26.31 -53.68,-24.51 -54.47,-22.67 -55.29,-20.75 -56.14,-18.73 -57,-16.62 -57.85,-14.43 -58.62,-12.21 -59.28,-9.97 -59.83,-7.71 -60.28,-5.42 -60.68,-3.18 -61.01,-1.06 -61.2,1.43" fill="none" stroke="rgb(44, 34, 43)" stroke-width="2" stroke-linejoin="round" filter="url(#fuzzy)" /><polyline points="-44.51,-43.05 -45.83,-40.99 -47.62,-39.31 -50.01,-37.52 -52.85,-35.61 -56.22,-33.66 -60.06,-31.7 -63.99,-29.78 -67.51,-27.91 -70.28,-26.07 -72.21,-24.22 -73.36,-22.33 -73.9,-20.36 -74.04,-18.31 -74.11,-16.17 -74.51,-13.98 -75.64,-11.74 -77.74,-9.47 -80.72,-7.18 -84.14,-4.87 -87.35,-2.55 -89.8,-0.22 -91.32,2.09 -92.21,4.35 -93.04,6.52 -94.2,8.56 -95.52,10.47 -96.62,12.27 -98.24,14.08 -102.64,16.43" fill="none" stroke="rgb(44, 34, 43)" stroke-width="2" stroke-linejoin="round" filter="url(#fuzzy)" /><polyline points="-46.17,-40.19 -47.72,-37.68 -49.23,-35.53 -50.97,-33.5 -52.76,-31.49 -54.26,-29.55 -55.43,-27.67 -56.49,-25.83 -57.62,-23.98 -58.9,-22.07 -60.29,-20.07 -61.69,-17.98 -63.02,-15.82 -64.19,-13.6 -65.16,-11.34 -65.88,-9.05 -66.33,-6.75 -66.57,-4.43 -66.68,-2.12 -66.82,0.18 -67.11,2.44 -67.61,4.65 -68.3,6.81 -69.03,8.92 -69.66,11.01 -70.08,13.11 -70.25,15.26 -70.27,17.46 -70.28,19.71 -70.41,21.96 -70.77,24.13 -71.38,26.17 -72.16,28.08 -72.95,29.89 -73.48,31.68 -73.37,33.77 -72.51,37.25" fill="none" stroke="rgb(44, 34, 43)" stroke-width="2" stroke-linejoin="round" filter="url(#fuzzy)" /><polyline points="-46.95,-38.73 -47.64,-37.31 -48.53,-35.5 -49.53,-33.52 -50.73,-31.4 -52.16,-29.21 -53.72,-27.06 -55.29,-24.97 -56.82,-22.89 -58.37,-20.81 -60.06,-18.69 -61.95,-16.54 -63.99,-14.38 -65.98,-12.23 -67.69,-10.1 -68.94,-7.98 -69.75,-5.84 -70.3,-3.68 -70.93,-1.49 -71.9,0.7 -73.33,2.85 -75.12,4.94 -77,6.96 -78.61,8.96 -79.68,11.07 -80.13,13.39 -79.94,15.77" fill="none" stroke="rgb(44, 34, 43)" stroke-width="2" stroke-linejoin="round" filter="url(#fuzzy)" /><polyline points="-47.64,-37.49 -48.54,-35.33 -49.34,-33.43 -50.14,-31.43 -50.89,-29.48 -51.58,-27.62 -52.28,-25.81 -53.05,-23.98 -53.93,-22.08 -54.92,-20.09 -55.94,-18.01 -56.9,-15.84 -57.69,-13.62 -58.3,-11.36 -58.73,-9.08 -59.03,-6.78 -59.27,-4.46 -59.48,-2.15 -59.69,0.15 -59.88,2.42 -60.03,4.63 -60.14,6.78 -60.2,8.87 -60.18,10.93 -60.1,13.01 -59.97,15.14 -59.79,17.35 -59.58,19.64 -59.34,21.94 -59.09,24.15 -58.87,26.2 -58.67,28.1 -58.36,29.97 -58.14,31.7" fill="none" stroke="rgb(44, 34, 43)" stroke-width="2" stroke-linejoin="round" filter="url(#fuzzy)" /><polyline points="-47.64,-37.49 -48.41,-35.33 -49.01,-33.44 -49.58,-31.44 -49.96,-29.5 -50.11,-27.64 -50.12,-25.83 -50.11,-24.01 -50.17,-22.12 -50.32,-20.14 -50.55,-18.06 -50.79,-15.9 -50.99,-13.68 -51.11,-11.43 -51.15,-9.15 -51.12,-6.85 -51.02,-4.54 -50.86,-2.22 -50.6,0.08 -50.21,2.35 -49.67,4.57 -48.95,6.71 -48.1,8.79 -47.18,10.82 -46.27,12.85 -45.43,14.96 -44.62,17.19 -43.8,19.55 -42.97,21.96 -42.28,24.21 -41.79,26.08 -41.04,27.23" fill="none" stroke="rgb(44, 34, 43)" stroke-width="2" stroke-linejoin="round" filter="url(#fuzzy)" /><polyline points="-48.85,-34.41 -51.36,-33.44 -56.71,-31.42 -62.07,-29.43 -65.98,-27.59 -69.08,-25.82 -72.42,-24.04 -76.24,-22.18 -80.08,-20.22 -83.2,-18.15 -85.06,-16 -85.5,-13.78 -84.76,-11.54 -83.35,-9.27 -82.01,-6.99 -81.49,-4.69 -82.35,-2.37 -84.71,-0.06 -88.15,2.24 -91.86,4.47 -95.11,6.61 -97.68,8.64 -100,10.56 -102.62,12.42 -105.44,14.32 -107.55,16.42 -107.76,18.75" fill="none" stroke="rgb(44, 34, 43)" stroke-width="2" stroke-linejoin="round" filter="url(#fuzzy)" /><polyline points="-48.85,-34.41 -50.25,-33.42 -52.33,-31.38 -55.18,-29.37 -57.89,-27.51 -59.61,-25.71 -60.34,-23.89 -60.61,-21.99 -60.95,-19.99 -61.69,-17.89 -62.96,-15.71 -64.85,-13.47 -67.39,-11.2 -70.52,-8.9 -74.1,-6.59 -77.8,-4.28 -81.25,-1.97 -84.09,0.33 -86.13,2.59 -87.47,4.8 -88.43,6.96 -89.46,9.08 -90.92,11.18 -92.89,13.3 -95.15,15.45 -97.25,17.64 -98.78,19.85 -99.57,22.05 -99.82,24.18 -99.95,26.23 -100.39,28.17 -101.28,30.04 -102.41,31.86 -103.38,33.65 -103.9,35.38 -104.01,36.98 -103.83,38.49 -104.37,40.46" fill="none" stroke="rgb(44, 34, 43)" stroke-width="2" stroke-linejoin="round" filter="url(#fuzzy)" /><polyline points="-48.52,-34.89 -50,-31.49 -51.16,-29.24 -52.93,-27.4 -55.68,-25.65 -59.19,-23.86 -63.06,-21.97 -66.87,-19.96 -70.14,-17.85 -72.53,-15.66 -73.96,-13.42 -74.69,-11.14 -75.19,-8.84 -75.99,-6.53 -77.51,-4.21 -79.91,-1.9 -83.06,0.39 -86.59,2.65 -89.95,4.86 -92.67,7.02 -94.43,9.14 -95.25,11.25 -95.42,13.36 -95.36,15.51 -95.49,17.7 -96.03,19.9 -96.98,22.09 -98.22,24.22 -99.56,26.26 -100.86,28.21 -102,30.08 -102.79,31.9 -102.97,33.69 -102.36,35.43 -101.2,37.15 -100.28,38.97 -100.34,41.26 -100.1,44.61" fill="none" stroke="rgb(44, 34, 43)" stroke-width="2" stroke-linejoin="round" filter="url(#fuzzy)" /><polyline points="-48.52,-34.89 -50.64,-31.5 -52.57,-29.26 -54.62,-27.43 -57.01,-25.68 -59.63,-23.9 -62.39,-22.03 -65.28,-20.04 -68.26,-17.94 -71.22,-15.76 -73.95,-13.52 -76.33,-11.25 -78.33,-8.97 -80.07,-6.66 -81.77,-4.35 -83.62,-2.04 -85.69,0.26 -87.88,2.52 -90.02,4.73 -91.95,6.87 -93.64,8.96 -95.19,11.03 -96.7,13.11 -98.15,15.24 -99.37,17.45 -100.17,19.72 -100.48,21.98 -100.58,24.17 -101.16,26.2 -102.9,28.08 -105.8,29.8 -108.89,31.27 -111.8,32.11" fill="none" stroke="rgb(44, 34, 43)" stroke-width="2" stroke-linejoin="round" filter="url(#fuzzy)" /><polyline points="-48.98,-33.88 -49.24,-31.48 -47.96,-28.91 -46.34,-26.65 -45.4,-24.58 -45.2,-22.54 -45.42,-20.45 -45.77,-18.31 -46.04,-16.13 -46.12,-13.94 -45.98,-11.77 -45.63,-9.62 -45.12,-7.47 -44.49,-5.3 -43.77,-3.13 -42.95,-0.95 -42,1.23 -40.94,3.39 -39.8,5.55 -38.6,7.72 -37.39,9.91 -36.14,12.13 -34.82,14.38 -33.38,16.63 -31.77,18.85 -30.01,21.01 -28.23,23.07 -26.64,25.05 -25.46,26.93 -24.75,28.73 -24.26,30.45 -23.51,32.15 -22.08,33.94 -20.13,35.97 -17.78,38.33" fill="none" stroke="rgb(44, 34, 43)" stroke-width="2" stroke-linejoin="round" filter="url(#fuzzy)" /><polyline points="-50,-32.12 -55.26,-28.73 -57.79,-26.45 -58.75,-24.46 -58.6,-22.48 -58.32,-20.4 -58.55,-18.25 -59.32,-16.05 -60.31,-13.86 -61.16,-11.69 -61.68,-9.53 -61.88,-7.38 -61.88,-5.22 -61.83,-3.04 -61.85,-0.86 -62.02,1.32 -62.42,3.49 -63.03,5.65 -63.83,7.82 -64.72,10.02 -65.59,12.24 -66.34,14.48 -66.91,16.72 -67.27,18.93 -67.43,21.07 -67.4,23.13 -67.24,25.1 -67.02,26.99 -66.81,28.8 -66.64,30.58 -66.47,32.35 -66.29,34.2 -66.15,36.16 -66.16,38.23 -66.26,40.25 -65.53,41.99" fill="none" stroke="rgb(44, 34, 43)" stroke-width="2" stroke-linejoin="round" filter="url(#fuzzy)" /><polyline points="-51.42,-27.51 -51.86,-26.05 -52.58,-24.35 -53.42,-22.45 -54.19,-20.39 -54.78,-18.22 -55.19,-16.01 -55.5,-13.8 -55.75,-11.63 -55.98,-9.48 -56.21,-7.34 -56.44,-5.18 -56.68,-3 -56.88,-0.82 -57.01,1.36 -57.05,3.53 -57,5.69 -56.88,7.85 -56.72,10.05 -56.54,12.27 -56.36,14.51 -56.19,16.75 -56,18.95 -55.77,21.09 -55.49,23.15 -55.13,25.12 -54.7,27 -54.23,28.81 -53.73,30.59 -53.2,32.36 -52.58,34.2 -51.79,36.17 -50.84,38.23 -49.87,40.25 -49.12,41.99" fill="none" stroke="rgb(44, 34, 43)" stroke-width="2" stroke-linejoin="round" filter="url(#fuzzy)" /><polyline points="-51.75,-26.08 -52.59,-24.42 -55.48,-22.49 -60.93,-20.42 -67.09,-18.23 -72.01,-16 -74.83,-13.79 -75.65,-11.63 -75.05,-9.5 -73.81,-7.38 -72.74,-5.23 -72.47,-3.06 -73.37,-0.88 -75.38,1.29 -78.13,3.44 -81.06,5.58 -83.67,7.72 -85.75,9.89 -87.4,12.1 -88.94,14.36 -90.59,16.63 -92.34,18.87 -93.99,21.02 -95.4,23.08 -96.64,25.05 -98.08,26.93 -99.96,28.71 -102.16,30.34 -104.48,31.84 -106.89,33.63" fill="none" stroke="rgb(44, 34, 43)" stroke-width="2" stroke-linejoin="round" filter="url(#fuzzy)" /><polyline points="-52.19,-24.82 -60.66,-22.16 -63.77,-20.07 -63.82,-17.89 -64.29,-15.62 -66.23,-13.34 -69.02,-11.08 -71.6,-8.82 -73.31,-6.55 -74.18,-4.25 -74.67,-1.95 -75.28,0.35 -76.29,2.62 -77.7,4.81 -79.34,6.92 -81.01,8.94 -82.56,10.9 -83.88,12.88 -85.12,14.94 -86.72,17.17 -89.26,19.58 -92.72,22.07 -95.71,24.45 -96.1,26.67" fill="none" stroke="rgb(44, 34, 43)" stroke-width="2" stroke-linejoin="round" filter="url(#fuzzy)" /><polyline points="53.03,-21.71 54.32,-18.91 55.79,-16.59 57.15,-14.45 58.58,-12.4 60.06,-10.35 61.37,-8.3 62.31,-6.25 62.85,-4.17 63.07,-2.05 63.05,0.12 62.88,2.31 62.66,4.52 62.54,6.69 62.65,8.83 63.01,10.95 63.59,13.06 64.22,15.19 64.78,17.33 65.19,19.48 65.45,21.63 65.67,23.75 65.96,25.84 66.4,27.88 66.93,29.87 67.4,31.77 67.5,33.61 66.94,35.48 65.7,37.49 64.47,39.57 64.51,41.15" fill="none" stroke="rgb(44, 34, 43)" stroke-width="2" stroke-linejoin="round" filter="url(#fuzzy)" /><polyline points="53.03,-21.71 56.41,-18.92 58.97,-16.61 61.93,-14.48 64.24,-12.43 65.33,-10.39 65.33,-8.35 64.7,-6.3 63.86,-4.24 63.13,-2.13 62.75,0.03 62.83,2.22 63.39,4.42 64.32,6.6 65.42,8.73 66.5,10.82 67.47,12.92 68.36,15.04 69.26,17.18 70.2,19.34 71.1,21.48 71.8,23.6 72.17,25.71 72.26,27.81 72.22,29.84 72.23,31.67 72.37,33.19 71.9,34.58" fill="none" stroke="rgb(44, 34, 43)" stroke-width="2" stroke-linejoin="round" filter="url(#fuzzy)" /><polyline points="52.13,-25.84 53.88,-23.7 56.01,-21.44 57.82,-19.15 59.68,-16.91 61.87,-14.76 64.35,-12.68 66.82,-10.63 68.86,-8.59 70.21,-6.55 70.91,-4.5 71.38,-2.41 72.23,-0.27 73.91,1.93 76.49,4.13 79.61,6.31 82.71,8.42 85.33,10.47 87.41,12.52 89.26,14.63 91.36,16.83 93.87,19.07 96.38,21.18 97.8,23.01 96.92,25.12" fill="none" stroke="rgb(44, 34, 43)" stroke-width="2" stroke-linejoin="round" filter="url(#fuzzy)" /><polyline points="51,-28.45 55.31,-26.07 58.14,-23.78 58.77,-21.48 59.39,-19.19 60.92,-16.95 63.02,-14.79 64.9,-12.68 65.98,-10.6 66.18,-8.54 65.8,-6.48 65.34,-4.4 65.21,-2.29 65.68,-0.13 66.85,2.06 68.65,4.26 70.92,6.43 73.45,8.57 75.96,10.68 78.23,12.78 80.09,14.9 81.56,17.06 82.84,19.22 84.2,21.37 85.91,23.49 88,25.62 90.22,27.77 91.92,29.89 92.21,31.75 90.87,32.99" fill="none" stroke="rgb(44, 34, 43)" stroke-width="2" stroke-linejoin="round" filter="url(#fuzzy)" /><polyline points="49.51,-33.13 51.9,-30.26 54.73,-28.11 57,-26 58.93,-23.83 60.81,-21.59 62.53,-19.34 63.83,-17.12 64.6,-14.95 64.97,-12.83 65.18,-10.74 65.55,-8.67 66.3,-6.6 67.62,-4.51 69.63,-2.39 72.34,-0.24 75.65,1.95 79.29,4.15 82.86,6.32 85.91,8.46 88.05,10.57 89.09,12.68 89.15,14.8 88.69,16.96 88.37,19.14 88.83,21.29 90.4,23.4 93.01,25.53 96.39,27.75 99.78,30.05 100.8,32.14" fill="none" stroke="rgb(44, 34, 43)" stroke-width="2" stroke-linejoin="round" filter="url(#fuzzy)" /><polyline points="49.5,-32.8 50.71,-30.85 52.62,-28.87 54.87,-26.68 56.68,-24.41 57.74,-22.16 58.27,-19.95 58.73,-17.76 59.59,-15.57 61.21,-13.4 63.71,-11.24 66.94,-9.11 70.48,-7.03 73.8,-4.98 76.46,-2.95 78.28,-0.92 79.39,1.13 80.11,3.22 80.78,5.34 81.54,7.49 82.32,9.65 82.92,11.81 83.13,13.96 82.91,16.09 82.45,18.22 82.04,20.34 82,22.44 82.51,24.5 83.62,26.52 85.18,28.52 86.93,30.5 88.53,32.47 89.64,34.48 90.2,36.55 90.59,38.65 90.8,40.22" fill="none" stroke="rgb(44, 34, 43)" stroke-width="2" stroke-linejoin="round" filter="url(#fuzzy)" /><polyline points="49.5,-32.8 54.4,-30.86 57.12,-28.91 59.88,-26.73 63.14,-24.48 66.16,-22.24 68.14,-20.04 69.01,-17.87 69.34,-15.7 69.84,-13.54 70.83,-11.39 72.19,-9.26 73.6,-7.19 74.91,-5.15 76.25,-3.16 77.96,-1.18 80.25,0.84 83.04,2.9 85.88,5.03 88.24,7.2 89.74,9.36 90.39,11.49 90.53,13.6 90.61,15.72 90.94,17.88 91.64,20.07 92.94,22.2 95.64,24.12 101.7,25.48" fill="none" stroke="rgb(44, 34, 43)" stroke-width="2" stroke-linejoin="round" filter="url(#fuzzy)" /><polyline points="49.48,-32.83 46.25,-31.95 44.92,-30.16 44.13,-28.18 44.06,-26.12 44.57,-23.97 45.25,-21.77 45.75,-19.55 45.88,-17.35 45.62,-15.19 45.03,-13.08 44.17,-11 43.06,-8.95 41.69,-6.91 40.03,-4.87 38.17,-2.8 36.29,-0.66 34.64,1.55 33.33,3.8 32.19,6.03 30.82,8.13 28.99,10.08 27.23,11.97 26.35,13.94 25.21,16.01" fill="none" stroke="rgb(44, 34, 43)" stroke-width="2" stroke-linejoin="round" filter="url(#fuzzy)" /><polyline points="49.12,-33.86 54.37,-32.49 54.71,-30.81 55.74,-28.88 58.22,-26.76 61.56,-24.56 64.94,-22.34 67.8,-20.15 70.07,-17.97 72.1,-15.81 74.35,-13.65 77.07,-11.5 80.05,-9.37 82.88,-7.3 85.14,-5.27 86.73,-3.28 87.91,-1.31 89.2,0.69 91.06,2.75 93.74,4.89 97.21,7.07 101.2,9.24 105.4,11.36 109.46,13.43 112.94,15.52 115.1,17.69 115.44,19.99 117.45,22.18" fill="none" stroke="rgb(44, 34, 43)" stroke-width="2" stroke-linejoin="round" filter="url(#fuzzy)" /><polyline points="47.77,-36.94 49.53,-34.14 50.6,-32.11 51.67,-30.14 52.99,-28.12 54.52,-26.02 56.02,-23.85 57.27,-21.63 58.2,-19.4 58.88,-17.19 59.55,-15.01 60.46,-12.87 61.82,-10.75 63.78,-8.66 66.36,-6.56 69.48,-4.45 72.96,-2.32 76.58,-0.15 80.1,2.03 83.34,4.22 86.18,6.4 88.62,8.56 90.71,10.7 92.54,12.83 94.16,14.97 95.59,17.13 96.85,19.29 98.03,21.44 99.35,23.58 101.02,25.69 103.04,27.76 104.97,29.76 106.11,31.66 105.99,33.47 105,35.32 104.45,37.48 105.32,40.19" fill="none" stroke="rgb(44, 34, 43)" stroke-width="2" stroke-linejoin="round" filter="url(#fuzzy)" /><polyline points="47.77,-36.94 49.07,-34.17 50.06,-32.18 51.01,-30.25 51.92,-28.26 52.7,-26.2 53.35,-24.07 53.93,-21.89 54.5,-19.68 55.07,-17.48 55.64,-15.32 56.17,-13.21 56.66,-11.14 57.08,-9.09 57.41,-7.06 57.64,-5.03 57.76,-2.98 57.8,-0.87 57.83,1.36 57.92,3.69 58.08,5.99 58.3,8.08 58.49,9.86 58.53,11.74" fill="none" stroke="rgb(44, 34, 43)" stroke-width="2" stroke-linejoin="round" filter="url(#fuzzy)" /><polyline points="47.77,-36.94 53.94,-34.15 55.58,-32.14 55.23,-30.18 54.75,-28.17 54.79,-26.08 55.33,-23.93 56.14,-21.72 57.12,-19.5 58.27,-17.29 59.65,-15.12 61.21,-12.99 62.78,-10.89 64.12,-8.81 65.07,-6.74 65.6,-4.66 65.87,-2.54 66.13,-0.39 66.62,1.8 67.49,4.01 68.78,6.19 70.38,8.32 72.15,10.42 73.93,12.51 75.6,14.64 77.09,16.82 78.41,19.03 79.55,21.16 80.44,23.17 80.73,25.18 79.76,27.44" fill="none" stroke="rgb(44, 34, 43)" stroke-width="2" stroke-linejoin="round" filter="url(#fuzzy)" /><polyline points="47.99,-36.39 49.45,-35.66 51.95,-34 54.45,-32.15 56.62,-30.22 58.36,-28.21 59.64,-26.13 60.52,-23.98 61.19,-21.79 61.89,-19.57 62.82,-17.37 64,-15.2 65.35,-13.07 66.71,-10.97 67.94,-8.89 69.03,-6.81 70.03,-4.73 71.07,-2.62 72.32,-0.46 73.87,1.73 75.69,3.94 77.56,6.12 79.2,8.26 80.32,10.34 80.76,12.42 80.64,14.55 80.29,16.76 80.23,19 81.02,21.14 83.04,23 85.9,25.12" fill="none" stroke="rgb(44, 34, 43)" stroke-width="2" stroke-linejoin="round" filter="url(#fuzzy)" /><polyline points="47.31,-38.11 48.29,-36.29 50.17,-34.45 52.24,-32.65 53.74,-30.79 54.72,-28.81 55.66,-26.71 57.02,-24.54 58.97,-22.34 61.33,-20.14 63.7,-17.94 65.66,-15.75 66.96,-13.58 67.61,-11.42 67.85,-9.29 68,-7.2 68.31,-5.14 68.9,-3.11 69.71,-1.07 70.6,0.98 71.4,3.07 72.03,5.19 72.5,7.35 72.93,9.51 73.48,11.66 74.25,13.81 75.25,15.95 76.37,18.09 77.4,20.22 78.15,22.32 78.55,24.39 78.63,26.41 78.42,28.4 77.91,30.37 77.17,32.29 76.78,34.1 77.35,36.05" fill="none" stroke="rgb(44, 34, 43)" stroke-width="2" stroke-linejoin="round" filter="url(#fuzzy)" /><polyline points="47.31,-38.11 48.26,-36.3 49.3,-34.45 50.39,-32.65 51.7,-30.8 53.33,-28.83 55.21,-26.73 57.23,-24.57 59.33,-22.37 61.55,-20.17 63.95,-17.98 66.52,-15.79 69.08,-13.62 71.29,-11.46 72.78,-9.34 73.36,-7.25 73.11,-5.19 72.38,-3.17 71.66,-1.14 71.39,0.9 71.87,2.99 73.2,5.11 75.29,7.26 77.89,9.43 80.68,11.58 83.25,13.72 85.26,15.86 86.5,18.01 86.96,20.15 86.83,22.26 86.48,24.31 86.39,26.31 86.87,28.31 87.48,30.44 86.5,33.31" fill="none" stroke="rgb(44, 34, 43)" stroke-width="2" stroke-linejoin="round" filter="url(#fuzzy)" /><polyline points="44.79,-43.08 46.69,-40.91 48.65,-39.15 51.8,-37.51 56.1,-35.87 60.82,-34.16 65.47,-32.37 69.95,-30.5 74.33,-28.54 78.42,-26.51 81.74,-24.41 83.76,-22.26 84.37,-20.06 84.05,-17.87 83.74,-15.71 84.36,-13.59 86.39,-11.5 89.72,-9.45 93.75,-7.42 97.74,-5.43 101.19,-3.5 104.04,-1.57 106.57,0.49 109.55,2.46" fill="none" stroke="rgb(44, 34, 43)" stroke-width="2" stroke-linejoin="round" filter="url(#fuzzy)" /><polyline points="44.79,-43.08 46.03,-40.88 47.03,-39.1 48.31,-37.42 50.17,-35.74 52.56,-33.99 55.09,-32.15 57.38,-30.23 59.22,-28.22 60.59,-26.15 61.58,-24.01 62.29,-21.83 62.77,-19.63 63.08,-17.43 63.32,-15.26 63.58,-13.11 63.98,-10.98 64.59,-8.88 65.43,-6.77 66.42,-4.66 67.47,-2.53 68.49,-0.36 69.42,1.82 70.24,4.01 70.99,6.2 71.69,8.35 72.37,10.49 73,12.62 73.57,14.76 74.07,16.93 74.54,19.1 74.97,21.27 75.31,23.41 75.41,25.55 75.08,27.72 74.45,29.85 74.21,31.73 74.78,32.99" fill="none" stroke="rgb(44, 34, 43)" stroke-width="2" stroke-linejoin="round" filter="url(#fuzzy)" /><polyline points="42.12,-47.03 43.6,-45.27 45.54,-43.21 47.77,-41.21 50.15,-39.35 52.37,-37.58 54.11,-35.84 55.3,-34.06 56.15,-32.22 57.03,-30.3 58.25,-28.31 59.98,-26.25 62.15,-24.13 64.57,-21.96 67,-19.77 69.27,-17.58 71.31,-15.4 73.14,-13.26 74.85,-11.13 76.51,-9.03 78.11,-6.93 79.61,-4.82 80.93,-2.69 82.03,-0.53 82.89,1.66 83.58,3.86 84.19,6.05 84.83,8.2 85.6,10.32 86.57,12.43 87.79,14.57 89.22,16.76 90.71,18.97 91.85,21.12 92.29,23.15 92.31,25.17 92.97,27.44" fill="none" stroke="rgb(44, 34, 43)" stroke-width="2" stroke-linejoin="round" filter="url(#fuzzy)" /><polyline points="39.97,-50.15 41.54,-48.86 43.38,-47.17 44.98,-45.29 46.62,-43.34 48.45,-41.42 50.32,-39.57 51.93,-37.78 53.12,-36.01 53.95,-34.23 54.59,-32.4 55.23,-30.5 55.98,-28.53 56.86,-26.49 57.85,-24.39 58.93,-22.23 60.11,-20.05 61.41,-17.86 62.84,-15.69 64.37,-13.54 65.92,-11.43 67.41,-9.34 68.8,-7.28 70.11,-5.22 71.4,-3.14 72.7,-0.99 73.98,1.25 75.13,3.58 76.1,5.9 76.8,8.03 77.14,9.84 77.56,11.74" fill="none" stroke="rgb(44, 34, 43)" stroke-width="2" stroke-linejoin="round" filter="url(#fuzzy)" /><polyline points="39.68,-50.32 43.43,-49.51 44.62,-47.92 47.08,-46.05 51.38,-44.1 56.42,-42.18 61.04,-40.3 64.73,-38.46 67.65,-36.63 70.24,-34.79 72.84,-32.93 75.62,-31.01 78.56,-29.03 81.51,-26.99 84.23,-24.88 86.44,-22.73 87.93,-20.56 88.57,-18.38 88.43,-16.19 87.77,-14.02 87.05,-11.85 86.74,-9.72 87.2,-7.62 88.58,-5.55 90.74,-3.52 93.36,-1.51 96.1,0.52 98.71,2.6 101.14,4.74 103.46,6.92 105.66,9.11 107.59,11.25 109.16,13.35 110.73,15.46 113.23,17.65 117.18,19.96 120.05,22.18" fill="none" stroke="rgb(44, 34, 43)" stroke-width="2" stroke-linejoin="round" filter="url(#fuzzy)" /><polyline points="38.8,-51.51 41.11,-50.24 43.21,-48.81 45.02,-47.15 47.11,-45.33 49.3,-43.43 51.14,-41.53 52.37,-39.69 53.16,-37.9 53.83,-36.13 54.72,-34.35 55.96,-32.54 57.53,-30.66 59.29,-28.71 61.12,-26.69 62.92,-24.59 64.62,-22.44 66.16,-20.25 67.5,-18.05 68.64,-15.88 69.66,-13.73 70.71,-11.63 71.9,-9.55 73.21,-7.5 74.53,-5.5 75.74,-3.55 76.94,-1.6 78.64,0.47 81.77,2.46" fill="none" stroke="rgb(44, 34, 43)" stroke-width="2" stroke-linejoin="round" filter="url(#fuzzy)" /><polyline points="38.8,-51.51 35.94,-50.23 37.58,-48.79 39.5,-47.11 41.06,-45.28 42.32,-43.37 43.3,-41.46 44,-39.61 44.42,-37.81 44.58,-36.02 44.52,-34.22 44.29,-32.38 43.99,-30.47 43.74,-28.5 43.63,-26.45 43.65,-24.35 43.74,-22.19 43.81,-20.01 43.77,-17.82 43.62,-15.65 43.39,-13.5 43.12,-11.38 42.8,-9.28 42.35,-7.2 41.68,-5.12 40.73,-3.01 39.57,-0.85 38.38,1.37 37.43,3.63 36.9,5.87 36.77,8.01 36.74,10.01 36.33,11.93 35.18,13.92 33.98,16.01" fill="none" stroke="rgb(44, 34, 43)" stroke-width="2" stroke-linejoin="round" filter="url(#fuzzy)" /><polyline points="37.82,-52.88 39.27,-51.05 40.46,-49.55 41.8,-47.88 43.45,-46.04 45.48,-44.15 47.84,-42.24 50.27,-40.37 52.48,-38.52 54.31,-36.68 55.79,-34.84 57.11,-32.97 58.43,-31.06 59.82,-29.08 61.22,-27.04 62.53,-24.94 63.68,-22.79 64.67,-20.62 65.56,-18.44 66.44,-16.25 67.35,-14.08 68.29,-11.91 69.24,-9.77 70.2,-7.67 71.2,-5.61 72.35,-3.58 73.72,-1.58 75.33,0.45 77.06,2.52 78.7,4.67 79.96,6.87 80.68,9.07 80.94,11.2 80.96,13.27 80.92,15.34 80.91,17.55 81.55,20.23" fill="none" stroke="rgb(44, 34, 43)" stroke-width="2" stroke-linejoin="round" filter="url(#fuzzy)" /><polyline points="34.3,-56.89 38.48,-54.99 41.23,-53.31 43.34,-51.82 44.94,-50.39 46.45,-48.9 48.3,-47.29 50.7,-45.56 53.57,-43.74 56.56,-41.9 59.25,-40.08 61.3,-38.3 62.62,-36.56 63.41,-34.82 63.99,-33.06 64.75,-31.25 66,-29.36 67.88,-27.4 70.27,-25.36 72.78,-23.23 74.96,-20.99 76.95,-18.7 80,-16.8" fill="none" stroke="rgb(44, 34, 43)" stroke-width="2" stroke-linejoin="round" filter="url(#fuzzy)" /><polyline points="34.35,-56.67 43.59,-55.29 46.11,-54.05 47.63,-52.69 48.98,-51.22 50.24,-49.66 51.63,-47.99 53.4,-46.22 55.75,-44.39 58.78,-42.54 62.39,-40.68 66.16,-38.85 69.53,-37.02 72.05,-35.21 73.6,-33.37 74.52,-31.5 75.44,-29.57 77.03,-27.56 79.71,-25.48 83.47,-23.34 87.91,-21.17 92.44,-19 96.59,-16.83 100.3,-14.65 103.99,-12.46 108,-10.27 111.9,-8.16 114.63,-6.09 116.67,-3.18" fill="none" stroke="rgb(44, 34, 43)" stroke-width="2" stroke-linejoin="round" filter="url(#fuzzy)" /><polyline points="31.82,-58.99 34.09,-57.03 36.53,-55.51 39.82,-54.14 43.65,-52.74 47.46,-51.27 51.09,-49.72 54.61,-48.06 58.14,-46.31 61.74,-44.5 65.37,-42.65 68.91,-40.81 72.23,-38.98 75.21,-37.16 77.9,-35.35 80.5,-33.54 83.35,-31.69 86.76,-29.78 90.8,-27.79 95.1,-25.71 99.05,-23.55 102.15,-21.38 104.55,-19.22 107.09,-17.1 110.85,-14.98 115.96,-12.82 119.32,-10.66" fill="none" stroke="rgb(44, 34, 43)" stroke-width="2" stroke-linejoin="round" filter="url(#fuzzy)" /><polyline points="29.4,-61.05 31.36,-59.84 34.41,-58.52 37.81,-57.1 40.54,-55.68 42.61,-54.27 44.48,-52.85 46.42,-51.38 48.37,-49.83 50.17,-48.19 51.75,-46.46 53.22,-44.66 54.88,-42.83 57.11,-40.99 60.24,-39.16 64.36,-37.35 69.28,-35.55 74.56,-33.76 79.66,-31.95 84.2,-30.08 87.99,-28.1 90.98,-26 93.15,-23.79 94.59,-21.55 96.37,-19.39 101.81,-17.23" fill="none" stroke="rgb(44, 34, 43)" stroke-width="2" stroke-linejoin="round" filter="url(#fuzzy)" /><polyline points="26.69,-63.31 28.26,-62.05 30.03,-60.66 31.8,-59.28 33.58,-57.89 35.41,-56.45 37.24,-54.98 39.02,-53.49 40.76,-51.98 42.49,-50.44 44.28,-48.85 46.16,-47.19 48.11,-45.46 50.05,-43.67 51.91,-41.86 53.64,-40.04 55.25,-38.23 56.77,-36.41 58.29,-34.59 59.89,-32.74 61.66,-30.84 63.62,-28.89 65.72,-26.86 67.84,-24.77 69.81,-22.63 71.49,-20.44 72.83,-18.24 73.9,-16.05 74.93,-13.88 76.14,-11.75 77.65,-9.66 79.36,-7.59 80.96,-5.57 82.05,-3.6 82.55,-1.63 82.98,0.45 83.91,2.46" fill="none" stroke="rgb(44, 34, 43)" stroke-width="2" stroke-linejoin="round" filter="url(#fuzzy)" /><polyline points="26.96,-63.05 28.7,-62.3 30.58,-61.17 32.1,-59.89 33.45,-58.54 34.73,-57.14 35.97,-55.73 37.18,-54.31 38.43,-52.86 39.76,-51.36 41.21,-49.79 42.77,-48.14 44.4,-46.41 46.08,-44.62 47.74,-42.8 49.38,-40.96 50.97,-39.12 52.5,-37.29 53.96,-35.47 55.32,-33.64 56.55,-31.78 57.62,-29.86 58.53,-27.86 59.33,-25.77 60.13,-23.62 61.03,-21.43 62.07,-19.27 63.16,-17.13 64.14,-15 64.97,-12.83 65.97,-10.66" fill="none" stroke="rgb(44, 34, 43)" stroke-width="2" stroke-linejoin="round" filter="url(#fuzzy)" /><polyline points="23.8,-65.12 26.37,-64.03 29.78,-63.06 33.44,-61.96 36.75,-60.73 39.53,-59.43 41.77,-58.08 43.59,-56.69 45.2,-55.25 46.88,-53.79 48.76,-52.32 50.83,-50.84 52.95,-49.32 54.99,-47.73 56.96,-46.04 58.98,-44.26 61.22,-42.42 63.77,-40.57 66.58,-38.78 69.6,-37.07 72.81,-35.4 76.3,-33.72 80.4,-31.87 86.39,-29.22" fill="none" stroke="rgb(44, 34, 43)" stroke-width="2" stroke-linejoin="round" filter="url(#fuzzy)" /><polyline points="23.96,-64.87 25.57,-64.19 27.59,-63.3 29.71,-62.28 31.65,-61.14 33.33,-59.9 34.86,-58.59 36.46,-57.22 38.37,-55.82 40.75,-54.4 43.58,-52.95 46.66,-51.45 49.66,-49.88 52.32,-48.24 54.49,-46.52 56.22,-44.74 57.68,-42.92 59.15,-41.08 60.88,-39.24 63.04,-37.42 65.71,-35.6 68.78,-33.78 71.98,-31.94 74.97,-30.04 77.46,-28.05 79.39,-25.95 80.98,-23.77 82.6,-21.55 84.7,-19.39 87.72,-17.33 92.28,-15.41" fill="none" stroke="rgb(44, 34, 43)" stroke-width="2" stroke-linejoin="round" filter="url(#fuzzy)" /><polyline points="22.71,-65.75 21.75,-66.68 21.94,-67.47 21.46,-68.19 20.04,-68.84 18.07,-69.43 15.85,-69.95 13.55,-70.42 11.25,-70.81 9.01,-71.13 6.82,-71.38 4.68,-71.56 2.54,-71.69 0.35,-71.75 -1.95,-71.75 -4.42,-71.69 -7.11,-71.56 -10.03,-71.36 -13.13,-71.1 -16.31,-70.77 -19.44,-70.39 -22.49,-69.97 -25.5,-69.52 -28.69,-69.01 -32.33,-68.42 -36.67,-67.7 -41.76,-66.86 -47.29,-65.92 -52.41,-65.1" fill="none" stroke="rgb(44, 34, 43)" stroke-width="2" stroke-linejoin="round" filter="url(#fuzzy)" /><polyline points="21.7,-66.56 19.83,-67.35 18.35,-68.06 16.8,-68.74 15.21,-69.37 13.63,-69.92 12.11,-70.39 10.61,-70.78 9.09,-71.1 7.48,-71.34 5.75,-71.53 3.88,-71.66 1.91,-71.72 -0.14,-71.73 -2.24,-71.67 -4.39,-71.54 -6.59,-71.35 -8.85,-71.09 -11.19,-70.76 -13.62,-70.38 -16.11,-69.93 -18.65,-69.43 -21.21,-68.87 -23.77,-68.25 -26.33,-67.58 -28.9,-66.84 -31.53,-66.04 -34.26,-65.16 -37.14,-64.21 -40.21,-63.19 -43.51,-62.1 -46.98,-60.96 -50.47,-59.75 -53.76,-58.45 -56.8,-57.05 -60.08,-55.51 -64.56,-53.78" fill="none" stroke="rgb(44, 34, 43)" stroke-width="2" stroke-linejoin="round" filter="url(#fuzzy)" /><polyline points="21.7,-66.56 19.97,-67.34 18.67,-68.04 17.12,-68.71 15.31,-69.33 13.4,-69.89 11.55,-70.38 9.82,-70.77 8.21,-71.1 6.67,-71.35 5.12,-71.55 3.53,-71.7 1.84,-71.8 0.07,-71.84 -1.77,-71.81 -3.67,-71.72 -5.62,-71.57 -7.62,-71.35 -9.68,-71.07 -11.83,-70.73 -14.01,-70.34 -16.06,-69.88 -17.92,-69.34" fill="none" stroke="rgb(44, 34, 43)" stroke-width="2" stroke-linejoin="round" filter="url(#fuzzy)" /><polyline points="19.51,-67.47 17.52,-68.3 15.9,-68.94 14.26,-69.51 12.54,-70.03 10.8,-70.49 9.06,-70.87 7.34,-71.18 5.61,-71.42 3.89,-71.6 2.19,-71.71 0.5,-71.76 -1.17,-71.76 -2.88,-71.69 -4.64,-71.56 -6.5,-71.35 -8.43,-71.08 -10.38,-70.74 -12.29,-70.36 -14.09,-69.94 -15.79,-69.48 -17.46,-68.96 -19.2,-68.35 -21.13,-67.62 -23.28,-66.78 -25.59,-65.85 -27.93,-64.84 -30.26,-63.68" fill="none" stroke="rgb(44, 34, 43)" stroke-width="2" stroke-linejoin="round" filter="url(#fuzzy)" /><polyline points="16.01,-69.07 15.29,-69.57 14.04,-70.1 12.23,-70.57 10.19,-70.95 8.11,-71.25 6.07,-71.48 4.07,-71.64 2.09,-71.74 0.1,-71.79 -1.98,-71.78 -4.25,-71.72 -6.81,-71.58 -9.71,-71.38 -12.92,-71.1 -16.32,-70.76 -19.74,-70.38 -23.01,-69.96 -26.06,-69.51 -29.01,-69 -32.18,-68.41 -35.97,-67.69 -40.7,-66.85 -45.98,-65.91 -48.93,-65.1" fill="none" stroke="rgb(44, 34, 43)" stroke-width="2" stroke-linejoin="round" filter="url(#fuzzy)" /><polyline points="14.52,-69.53 12.33,-70.14 10.41,-70.63 8.66,-71.01 6.96,-71.29 5.25,-71.51 3.55,-71.66 1.89,-71.75 0.26,-71.78 -1.35,-71.75 -2.97,-71.65 -4.63,-71.49 -6.34,-71.26 -8.07,-70.96 -9.8,-70.61 -11.49,-70.2 -13.13,-69.74 -14.72,-69.21 -16.29,-68.61 -17.86,-67.94 -19.45,-67.19 -21.05,-66.35 -22.66,-65.45 -24.27,-64.49 -25.85,-63.48 -27.4,-62.42 -28.92,-61.32 -30.42,-60.16 -31.89,-58.96 -33.31,-57.72 -34.67,-56.43 -36.01,-55.06 -37.39,-53.53 -38.92,-51.72 -40.63,-49.56" fill="none" stroke="rgb(44, 34, 43)" stroke-width="2" stroke-linejoin="round" filter="url(#fuzzy)" /><polyline points="12.74,-69.97 10.9,-70.62 9.17,-71 7.62,-71.26 6.15,-71.47 4.62,-71.64 2.98,-71.76 1.2,-71.83 -0.7,-71.84 -2.73,-71.79 -4.88,-71.67 -7.18,-71.48 -9.62,-71.23 -12.16,-70.92 -14.76,-70.55 -17.33,-70.12 -19.86,-69.64 -22.39,-69.09 -25,-68.5 -27.71,-67.89 -30.43,-67.27 -33.26,-66.61 -37.29,-65.69" fill="none" stroke="rgb(44, 34, 43)" stroke-width="2" stroke-linejoin="round" filter="url(#fuzzy)" /><polyline points="12.14,-70.2 10.29,-70.71 8.68,-71.06 7.1,-71.33 5.44,-71.54 3.68,-71.68 1.87,-71.77 0.04,-71.81 -1.8,-71.78 -3.7,-71.7 -5.75,-71.54 -8.01,-71.32 -10.5,-71.03 -13.21,-70.68 -16.1,-70.28 -19.15,-69.84 -22.37,-69.34 -25.77,-68.78 -29.33,-68.13 -32.98,-67.39 -36.64,-66.56 -40.2,-65.66 -43.59,-64.71 -46.76,-63.73 -49.73,-62.72 -52.71,-61.66 -56.37,-60.48 -61.9,-59" fill="none" stroke="rgb(44, 34, 43)" stroke-width="2" stroke-linejoin="round" filter="url(#fuzzy)" /><polyline points="12.14,-70.2 10.44,-70.71 8.92,-71.07 7.24,-71.34 5.44,-71.54 3.61,-71.68 1.8,-71.77 0.03,-71.79 -1.72,-71.76 -3.5,-71.66 -5.35,-71.5 -7.29,-71.26 -9.29,-70.96 -11.34,-70.6 -13.42,-70.18 -15.52,-69.71 -17.63,-69.18 -19.78,-68.57 -21.97,-67.89 -24.19,-67.13 -26.43,-66.29 -28.66,-65.39 -30.89,-64.42 -33.11,-63.41 -35.33,-62.35 -37.57,-61.23 -39.81,-60.07 -42.07,-58.86 -44.36,-57.6 -46.74,-56.29 -49.25,-54.89 -51.88,-53.4 -54.51,-51.84 -56.95,-50.27 -58.99,-48.73 -61.16,-46.69" fill="none" stroke="rgb(44, 34, 43)" stroke-width="2" stroke-linejoin="round" filter="url(#fuzzy)" /><polyline points="9.68,-70.87 8.61,-71.11 7.45,-71.31 6.17,-71.49 4.7,-71.66 3.06,-71.78 1.29,-71.85 -0.56,-71.85 -2.45,-71.79 -4.37,-71.66 -6.33,-71.46 -8.34,-71.2 -10.41,-70.88 -12.56,-70.5 -14.75,-70.07 -16.96,-69.57 -19.14,-69.02 -21.27,-68.43 -23.36,-67.8 -25.44,-67.13 -27.59,-66.39 -29.91,-65.51 -32.6,-64.38 -36.54,-62.78" fill="none" stroke="rgb(44, 34, 43)" stroke-width="2" stroke-linejoin="round" filter="url(#fuzzy)" /><polyline points="9.68,-70.87 8.54,-71.11 7.29,-71.31 5.94,-71.5 4.46,-71.66 2.85,-71.78 1.17,-71.83 -0.56,-71.83 -2.31,-71.75 -4.06,-71.6 -5.82,-71.39 -7.57,-71.12 -9.31,-70.78 -11.05,-70.38 -12.77,-69.92 -14.46,-69.41 -16.15,-68.84 -17.82,-68.21 -19.5,-67.53 -21.18,-66.79 -22.89,-65.97 -24.61,-65.09 -26.33,-64.13 -28.04,-63.11 -29.73,-62.02 -31.39,-60.87 -33.04,-59.65 -34.69,-58.36 -36.36,-56.98 -38.03,-55.55 -39.62,-54.14 -40.79,-53.09" fill="none" stroke="rgb(44, 34, 43)" stroke-width="2" stroke-linejoin="round" filter="url(#fuzzy)" /><polyline points="6.78,-71.4 5.7,-71.51 4.06,-71.69 2.4,-71.83 0.86,-71.89 -0.55,-71.88 -1.85,-71.81 -3.06,-71.67 -4.18,-71.46 -5.24,-71.2 -6.27,-70.87 -7.32,-70.48 -8.39,-70.04 -9.44,-69.54 -10.42,-68.98 -11.24,-68.39 -11.81,-67.75 -12.09,-67.06 -12.04,-66.3 -11.71,-65.43 -11.15,-64.43 -10.49,-63.45 -10.12,-62.98" fill="none" stroke="rgb(44, 34, 43)" stroke-width="2" stroke-linejoin="round" filter="url(#fuzzy)" /><polyline points="4.74,-71.73 3.16,-71.82 1.46,-71.87 -0.18,-71.88 -1.85,-71.84 -3.65,-71.73 -5.61,-71.56 -7.72,-71.3 -9.9,-70.98 -12.11,-70.59 -14.31,-70.16 -16.5,-69.68 -18.68,-69.14 -20.87,-68.52 -23.07,-67.82 -25.28,-67.04 -27.52,-66.19 -29.8,-65.27 -32.13,-64.29 -34.51,-63.27 -36.91,-62.19 -39.26,-61.06 -41.49,-59.89 -43.55,-58.66 -45.45,-57.38 -47.31,-56.04 -49.32,-54.64 -51.67,-53.18 -54.44,-51.68 -57.58,-50.17 -60.86,-48.67 -63.95,-47.2 -66.55,-45.74 -68.64,-44.22 -70.92,-42.43 -74.8,-39.75" fill="none" stroke="rgb(44, 34, 43)" stroke-width="2" stroke-linejoin="round" filter="url(#fuzzy)" /><polyline points="4.35,-71.8 2.82,-71.94 1.02,-71.96 -0.85,-71.92 -2.84,-71.82 -4.97,-71.65 -7.23,-71.42 -9.54,-71.12 -11.83,-70.76 -14.06,-70.33 -16.19,-69.85 -18.21,-69.32 -20.18,-68.72 -22.21,-68.07 -24.44,-67.36 -27,-66.59 -29.92,-65.74 -33.15,-64.83 -36.48,-63.84 -39.67,-62.79 -42.46,-61.68 -44.75,-60.5 -46.58,-59.28 -48.15,-58.01 -49.71,-56.71 -51.52,-55.4 -53.75,-54.08 -56.46,-52.74 -59.68,-51.37 -63.37,-49.92 -67.39,-48.36 -71.45,-46.67 -75.23,-44.84 -78.78,-42.91 -82.83,-41.09 -88.04,-40.19" fill="none" stroke="rgb(44, 34, 43)" stroke-width="2" stroke-linejoin="round" filter="url(#fuzzy)" /><polyline points="4.35,-71.8 2.82,-71.94 1.02,-71.96 -0.81,-71.92 -2.64,-71.82 -4.49,-71.66 -6.41,-71.43 -8.38,-71.13 -10.39,-70.77 -12.41,-70.35 -14.41,-69.87 -16.37,-69.34 -18.31,-68.75 -20.2,-68.11 -22.08,-67.41 -23.96,-66.64 -25.9,-65.81 -27.91,-64.9 -30.04,-63.93 -32.3,-62.88 -34.71,-61.77 -37.29,-60.61 -39.99,-59.38 -42.72,-58.11 -45.33,-56.8 -47.63,-55.49 -49.5,-54.19 -51.03,-52.9 -52.53,-51.59 -54.48,-50.19 -57.12,-48.66 -59.98,-47.08 -61.84,-45.72" fill="none" stroke="rgb(44, 34, 43)" stroke-width="2" stroke-linejoin="round" filter="url(#fuzzy)" />
    </g>
    
        <g id="lineNose">
        <path d="M -6.83,5.25 Q 8.94, 14.370000000000001 1.0549999999999997, -4.4799999999999995" fill="none" stroke="black" stroke-width="3" stroke-linejoin="round" filter="url(#fuzzy)"></path>
        </g>
      
    <g id="mouth">
      <polyline points="-15.94,45.35 -15.59,45.24 -15.24,45.12 -14.89,44.99 -14.53,44.83 -14.18,44.67 -13.82,44.48 -13.46,44.28 -13.1,44.07 -12.74,43.85 -12.38,43.61 -12.02,43.36 -11.66,43.09 -11.3,42.82 -10.93,42.54 -10.57,42.25 -10.21,41.95 -9.84,41.64 -9.47,41.32 -9.11,40.99 -8.74,40.66 -8.37,40.33 -8.01,39.99 -7.64,39.64 -7.27,39.29 -6.91,38.93 -6.54,38.58 -6.17,38.22 -5.8,37.86 -5.44,37.5 -5.07,37.14 -4.7,36.78 -4.34,36.42 -3.97,36.06 -3.61,35.71 -3.24,35.35 -2.88,35 -2.51,34.66 -2.15,34.32 -1.79,33.98 -1.43,33.66 -1.07,33.33 -0.71,33.02 -0.35,32.71 0.01,32.41 0.37,32.12 0.72,31.84 1.08,31.58 1.43,31.32 1.78,31.07 2.13,30.84 2.48,30.62 2.83,30.41 3.18,30.21 3.52,30.03 3.86,29.87 4.2,29.72 4.54,29.59 4.88,29.48 5.22,29.38 5.55,29.31 5.88,29.25 6.21,29.21 6.54,29.19 6.87,29.19 7.19,29.22 7.51,29.26 7.83,29.33 8.15,29.43 8.46,29.54 8.77,29.68 9.08,29.85 9.39,30.05 9.69,30.26 9.99,30.51 10.29,30.79 10.58,31.09 10.88,31.42 11.17,31.78 11.45,32.18 11.74,32.6 12.02,33.05 12.29,33.54 12.57,34.06 12.84,34.61 13.1,35.2 13.37,35.82 13.63,36.48 13.88,37.17 14.14,37.9 14.39,38.67 14.63,39.47 14.88,40.32 15.11,41.2 15.35,42.12 15.58,43.08 15.8,44.09 16.03,45.13 16.25,46.22 16.46,47.35 16.67,48.52 16.46,47.35 16.25,46.22 16.03,45.13 15.8,44.09 15.58,43.08 15.35,42.12 15.11,41.2 14.88,40.32 14.63,39.47 14.39,38.67 14.14,37.9 13.88,37.17 13.63,36.48 13.37,35.82 13.1,35.2 12.84,34.61 12.57,34.06 12.29,33.54 12.02,33.05 11.74,32.6 11.45,32.18 11.17,31.78 10.88,31.42 10.58,31.09 10.29,30.79 9.99,30.51 9.69,30.26 9.39,30.05 9.08,29.85 8.77,29.68 8.46,29.54 8.15,29.43 7.83,29.33 7.51,29.26 7.19,29.22 6.87,29.19 6.54,29.19 6.21,29.21 5.88,29.25 5.55,29.31 5.22,29.38 4.88,29.48 4.54,29.59 4.2,29.72 3.86,29.87 3.52,30.03 3.18,30.21 2.83,30.41 2.48,30.62 2.13,30.84 1.78,31.07 1.43,31.32 1.08,31.58 0.72,31.84 0.37,32.12 0.01,32.41 -0.35,32.71 -0.71,33.02 -1.07,33.33 -1.43,33.66 -1.79,33.98 -2.15,34.32 -2.51,34.66 -2.88,35 -3.24,35.35 -3.61,35.71 -3.97,36.06 -4.34,36.42 -4.7,36.78 -5.07,37.14 -5.44,37.5 -5.8,37.86 -6.17,38.22 -6.54,38.58 -6.91,38.93 -7.27,39.29 -7.64,39.64 -8.01,39.99 -8.37,40.33 -8.74,40.66 -9.11,40.99 -9.47,41.32 -9.84,41.64 -10.21,41.95 -10.57,42.25 -10.93,42.54 -11.3,42.82 -11.66,43.09 -12.02,43.36 -12.38,43.61 -12.74,43.85 -13.1,44.07 -13.46,44.28 -13.82,44.48 -14.18,44.67 -14.53,44.83 -14.89,44.99 -15.24,45.12 -15.59,45.24" fill="rgb(215,127,140)" stroke="black" stroke-width="3" stroke-linejoin="round" filter="url(#fuzzy)" />
    </g>
  </svg>
  