
  <svg viewBox="-100 -100 200 200" xmlns="http://www.w3.org/2000/svg" width="500" height="500" id="face-svg">
    <defs>
      <clipPath id="leftEyeClipPath">
        <polyline points="27.53,-9.48 27.41,-9.86 27.24,-10.21 27.03,-10.56 26.79,-10.88 26.51,-11.19 26.19,-11.49 25.84,-11.77 25.45,-12.04 25.04,-12.29 24.59,-12.53 24.12,-12.76 23.61,-12.97 23.08,-13.17 22.53,-13.36 21.95,-13.54 21.31,-13.75 20.65,-13.95 19.95,-14.13 19.22,-14.3 18.46,-14.45 17.67,-14.6 16.86,-14.73 16.02,-14.84 15.16,-14.94 14.28,-15.03 13.38,-15.11 12.46,-15.18 11.53,-15.23 10.58,-15.27 9.62,-15.3 8.64,-15.32 7.66,-15.33 6.67,-15.33 5.68,-15.31 4.68,-15.29 3.68,-15.26 2.68,-15.21 1.68,-15.16 0.69,-15.09 -0.3,-15.02 -1.29,-14.94 -2.26,-14.85 -3.23,-14.75 -4.19,-14.64 -5.13,-14.52 -6.06,-14.39 -6.98,-14.26 -7.88,-14.11 -8.76,-13.96 -9.63,-13.8 -10.48,-13.63 -11.3,-13.45 -12.11,-13.26 -12.9,-13.07 -13.66,-12.86 -14.4,-12.65 -15.12,-12.43 -15.82,-12.2 -16.49,-11.97 -17.14,-11.72 -17.76,-11.47 -18.36,-11.21 -18.94,-10.94 -19.49,-10.67 -20.02,-10.38 -20.53,-10.09 -21.02,-9.79 -21.48,-9.48 -21.93,-9.16 -22.35,-8.83 -22.75,-8.5 -23.13,-8.15 -23.49,-7.79 -23.83,-7.43 -24.14,-7.05 -24.44,-6.67 -24.71,-6.27 -24.97,-5.87 -25.2,-5.45 -28.16,0.47 -27.66,1.02 -27.15,1.57 -26.63,2.12 -26.1,2.68 -25.55,3.24 -24.99,3.79 -24.42,4.35 -23.83,4.91 -23.24,5.46 -22.63,6.01 -22,6.55 -21.37,7.09 -20.72,7.62 -20.06,8.14 -19.39,8.65 -18.71,9.17 -18.01,9.67 -17.29,10.17 -16.56,10.66 -15.82,11.13 -15.06,11.59 -14.29,12.03 -13.5,12.45 -12.71,12.85 -11.9,13.22 -11.08,13.56 -10.25,13.88 -9.41,14.17 -8.56,14.43 -7.71,14.65 -6.84,14.84 -5.97,15 -5.08,15.12 -4.2,15.2 -3.31,15.24 -2.41,15.24 -1.51,15.21 -0.6,15.14 0.3,15.02 1.21,14.87 2.12,14.68 3.03,14.45 3.94,14.18 4.84,13.87 5.75,13.53 6.65,13.15 7.54,12.74 8.43,12.29 9.31,11.82 10.19,11.32 11.06,10.78 11.92,10.23 12.77,9.65 13.61,9.05 14.44,8.43 15.25,7.79 16.06,7.14 16.84,6.48 17.62,5.81 18.37,5.13 19.11,4.45 19.83,3.77 20.53,3.09 21.21,2.42 21.79,1.83 22.36,1.25 22.9,0.66 23.43,0.07 23.93,-0.52 24.42,-1.11 24.87,-1.69 25.31,-2.27 25.71,-2.84 26.09,-3.41 26.44,-3.97 26.76,-4.52 27.05,-5.06 27.31,-5.59 27.53,-6.11" />
      </clipPath>
      <clipPath id="rightEyeClipPath">
        <polyline points="-29.02,-8.64 -28.88,-9.17 -28.7,-9.68 -28.47,-10.17 -28.21,-10.62 -27.9,-11.06 -27.56,-11.47 -27.18,-11.86 -26.76,-12.23 -26.31,-12.58 -25.83,-12.91 -25.32,-13.22 -24.79,-13.51 -24.22,-13.79 -23.63,-14.04 -23.01,-14.28 -22.32,-14.55 -21.59,-14.8 -20.83,-15.03 -20.04,-15.25 -19.23,-15.45 -18.39,-15.63 -17.53,-15.79 -16.65,-15.94 -15.75,-16.08 -14.83,-16.2 -13.9,-16.31 -12.95,-16.4 -11.99,-16.48 -11.02,-16.54 -10.04,-16.59 -9.05,-16.63 -8.06,-16.65 -7.07,-16.67 -6.07,-16.67 -5.07,-16.66 -4.08,-16.63 -3.08,-16.6 -2.1,-16.55 -1.11,-16.49 -0.14,-16.43 0.83,-16.35 1.78,-16.26 2.72,-16.16 3.66,-16.04 4.57,-15.92 5.47,-15.79 6.36,-15.65 7.23,-15.49 8.08,-15.33 8.91,-15.16 9.72,-14.97 10.51,-14.78 11.28,-14.58 12.03,-14.36 12.76,-14.14 13.47,-13.9 14.15,-13.66 14.81,-13.4 15.45,-13.14 16.07,-12.87 16.66,-12.58 17.23,-12.29 17.78,-11.99 18.31,-11.67 18.81,-11.35 19.3,-11.02 19.76,-10.68 20.21,-10.32 20.63,-9.96 21.04,-9.58 21.42,-9.19 21.79,-8.79 22.14,-8.38 22.47,-7.96 22.77,-7.53 23.06,-7.08 23.33,-6.63 23.58,-6.16 23.81,-5.68 27.44,-0.6 27.03,-0.03 26.6,0.55 26.16,1.13 25.71,1.71 25.24,2.3 24.76,2.89 24.27,3.48 23.76,4.08 23.24,4.67 22.7,5.26 22.15,5.85 21.58,6.43 21,7.01 20.41,7.58 19.8,8.15 19.17,8.72 18.53,9.28 17.87,9.84 17.19,10.39 16.49,10.93 15.78,11.46 15.04,11.97 14.29,12.46 13.52,12.94 12.74,13.39 11.93,13.82 11.11,14.22 10.28,14.59 9.42,14.94 8.55,15.25 7.67,15.53 6.77,15.78 5.86,15.99 4.93,16.16 3.99,16.29 3.04,16.39 2.08,16.44 1.12,16.45 0.14,16.43 -0.85,16.36 -1.83,16.24 -2.83,16.09 -3.83,15.89 -4.83,15.65 -5.83,15.37 -6.83,15.05 -7.82,14.69 -8.82,14.29 -9.8,13.85 -10.78,13.38 -11.76,12.87 -12.72,12.32 -13.67,11.75 -14.6,11.14 -15.52,10.5 -16.43,9.84 -17.31,9.15 -18.18,8.45 -19.02,7.72 -19.84,6.97 -20.63,6.22 -21.4,5.45 -22.13,4.67 -22.84,3.88 -23.46,3.24 -24.06,2.6 -24.63,1.94 -25.18,1.28 -25.7,0.62 -26.19,-0.04 -26.65,-0.7 -27.07,-1.37 -27.47,-2.03 -27.82,-2.68 -28.14,-3.34 -28.42,-3.98 -28.66,-4.62 -28.86,-5.24 -29.01,-5.86" />
      </clipPath>
      <filter id="fuzzy">
        <feTurbulence id="turbulence" baseFrequency="0.05" numOctaves="3" type="noise" result="noise" />
        <feDisplacementMap in="SourceGraphic" in2="noise" scale="2" />
      </filter>
      <linearGradient id="rainbowGradient" x1="0%" y1="0%" x2="100%" y2="0%">
        <stop offset="0%" style="stop-color: rgb(220, 208, 186); stop-opacity: 1" />
        <stop offset="50%" style="stop-color: rgb(255, 127, 80); stop-opacity: 1" />
        <stop offset="100%" style="stop-color: rgb(50, 205, 50); stop-opacity: 1" />
      </linearGradient>
    </defs>
    <rect x="-100" y="-100" width="100%" height="100%" fill="rgb(255, 253, 208)" />
    <polyline id="faceContour" points="76.89,-0.62 76.89,0.43 77.08,1.32 77.01,3.51 76.76,4.27 76.49,7.83 76.8,6.28 76.45,9.54 76.33,9.65 76.29,11.97 76.16,13.26 75.74,15.33 75.87,15 75.24,18.22 74.84,19.41 74.52,20.82 74.64,20.64 74.33,22.09 73.74,23.96 73.64,25.14 73.3,25.45 72.51,28.72 72.52,28.66 72.32,28.96 71.46,31.65 71.01,32.91 70.14,35.6 69.83,35.98 68.7,38.35 69.37,37.5 68.53,38.64 67.95,40.04 67.76,40.63 66.86,42.37 66.35,43.36 66.07,43.69 64.41,46.6 63.53,48.21 63.82,47.19 63.77,48.22 61.92,50.83 62.21,49.78 61.41,51.18 59.14,54.36 59.57,53.89 58.61,55.25 57.28,57.17 56.75,57.88 57.41,56.86 54.07,60.58 54.16,60.51 52.57,62.39 53.05,62.02 52.51,62.44 49.9,64.99 49.32,65.38 50.32,64.68 47.04,67.61 47.13,67.48 46.51,68.32 45.54,69.03 43.11,70.45 42.52,71.06 42.16,71.55 41.32,72 41.48,71.95 39.59,73.29 38.76,73.89 37.14,75 35.73,75.73 33.79,76.67 32.93,77.2 32.2,77.82 31.32,78.14 31.02,78.07 29.79,78.71 29.75,78.92 26.4,80.1 26.64,80.21 24.1,81.11 22.96,81.47 22.33,81.85 20.13,82.41 19.94,82.48 19.26,82.55 19.53,82.59 16.78,83.3 15.64,83.8 13.67,84.13 12.42,84.25 10.92,84.37 10.38,84.58 9.64,84.61 9.4,84.87 7.35,85.05 5.61,85.05 4.32,85.34 3.46,85.26 2.49,85.36 1.12,85.49 0.24,85.47 -2.03,85.47 -1.27,85.55 -4.39,85.4 -6.3,85.08 -5.23,85.31 -7.08,85.12 -7.7,85 -8.22,85.03 -9.2,84.72 -11.3,84.43 -12.04,84.17 -13.56,83.9 -16.01,83.64 -17.08,83.25 -18.22,82.94 -18.54,82.86 -19.94,82.33 -21.59,81.85 -23.24,81.59 -22.81,81.65 -24.15,81 -25.65,80.58 -26.9,80.1 -27.05,80.1 -30.23,78.68 -31.17,77.95 -30.29,78.57 -31.93,77.71 -34.21,76.39 -35.09,75.98 -37.14,74.83 -37.32,74.85 -38.65,73.8 -37.06,74.78 -41.03,72.31 -41.76,71.59 -42.54,71.33 -43.01,70.76 -44.44,70.01 -45.53,69.07 -45.48,68.83 -46.87,67.55 -47.17,67.64 -49.46,65.41 -49.91,65.06 -51.26,63.86 -50.64,64.27 -53.45,61.26 -53.03,61.73 -53.15,61.74 -56.51,58.05 -56.96,57.56 -57.42,57 -56.4,58.22 -58.14,56.15 -58.86,54.91 -59.61,53.58 -60.25,53.15 -62.88,49.38 -61.63,50.84 -61.92,50.91 -63.65,47.53 -63.84,47.48 -64.91,45.63 -65.85,44.34 -66.46,43.45 -66.72,42.12 -66.84,42.47 -67.63,40.8 -67.96,40.04 -68.65,38.36 -68.98,37.33 -70.75,33.39 -70.78,34.05 -71,33.4 -71.86,30.33 -71.72,30.72 -72.61,28.33 -72.67,27.87 -73.48,25.51 -72.87,27.35 -73.98,22.97 -73.88,24.63 -74.91,20.51 -74.83,20.6 -75.05,18.36 -75.31,18.05 -75.48,17.65 -75.95,14.02 -76.18,12.64 -76.28,12.03 -76.59,10.01 -76.5,8.4 -76.8,7.14 -76.47,7.57 -76.73,4.63 -76.87,2.8 -77.03,0.77 -76.98,3.18 -77,0.34 -77.07,-0.11 -76.91,-0.99 -76.95,-3.78 -76.75,-6.15 -76.89,-6.4 -76.54,-7.57 -76.52,-10.27 -76.48,-9.79 -76.27,-12.14 -76.32,-12.67 -75.95,-14.73 -75.49,-16.77 -75.01,-18.98 -75.01,-20.06 -75,-19.24 -74.86,-19.99 -74.52,-21.42 -73.71,-24.17 -73.64,-24.48 -73.27,-27.04 -72.95,-27.33 -72.58,-29.07 -72.3,-29.76 -70.98,-32.45 -70.83,-33.08 -70.74,-33.9 -70.49,-34.93 -69.23,-37.32 -68.85,-38.21 -68.2,-39.77 -68.51,-39.09 -67.5,-40.72 -67.19,-42.11 -67.02,-42.28 -65.91,-44.29 -64.7,-46.78 -64.63,-46.64 -64.26,-47.14 -63.29,-48.48 -61.73,-50.79 -60.96,-52.49 -60.65,-52.68 -59.7,-54.36 -58.45,-55.85 -58.05,-56.06 -56.74,-57.83 -55.95,-58.82 -56.13,-58.75 -55.32,-59.05 -53.56,-61.21 -53.6,-61.46 -52.85,-62.38 -51.11,-63.83 -51.27,-64.04 -49.69,-65.16 -50.07,-64.74 -48.9,-66.21 -46.52,-68.21 -46.95,-67.91 -44.36,-69.77 -44.98,-69.53 -44,-70.35 -42.67,-71.27 -40.22,-72.9 -40.52,-72.77 -39.1,-73.66 -40.26,-73.14 -37.78,-74.54 -35.95,-75.54 -34.46,-76.65 -34.59,-76.38 -32.88,-77.03 -33.27,-77.09 -28.61,-79.22 -27.7,-79.81 -28.76,-79.13 -26.49,-80.33 -24.67,-80.93 -24.97,-80.74 -24.93,-80.8 -24.32,-80.9 -23.17,-81.48 -19.99,-82.51 -19.59,-82.69 -17.41,-83.35 -18.34,-83.09 -14.58,-83.85 -14.04,-84.01 -13.79,-84.07 -11.71,-84.64 -11.59,-84.42 -9.88,-84.77 -10.34,-84.57 -7.94,-85.16 -5.96,-85.26 -3.25,-85.32 -4.54,-85.15 -0.64,-85.45 -0.49,-85.33 0.93,-85.44 1.77,-85.56 2.21,-85.33 3.09,-85.24 3.06,-85.53 4.79,-85.23 9.46,-84.85 9.08,-84.82 9.1,-84.94 11.99,-84.62 10.95,-84.58 11.78,-84.61 13.92,-84.11 14.2,-84.18 16.1,-83.41 19.28,-82.52 18.94,-83.04 20.6,-82.53 20.78,-82.48 22.36,-81.8 24.44,-81.15 26.65,-80.18 24.57,-80.98 27.53,-79.86 26.9,-79.99 29.32,-78.82 30.17,-78.54 30.78,-78.32 33.07,-77.3 33.68,-76.9 33.74,-76.74 35.1,-76.04 36.6,-75.31 38.59,-73.93 39.67,-73.33 39.13,-73.64 41.23,-72.27 41.64,-71.75 43.37,-70.8 44.24,-69.91 45.86,-68.5 45.83,-68.67 47.89,-66.78 47.76,-66.88 48.67,-66.13 50.34,-64.76 50.6,-64.29 52.67,-62.24 52.23,-62.48 53.86,-60.85 54.28,-60.66 55.9,-58.7 55.82,-58.74 57.94,-56.35 58.24,-56.09 59.26,-54.7 59.85,-53.59 60.18,-53.3 60.79,-52.44 61.29,-51.62 62.39,-49.91 63.27,-48.66 63.84,-47.56 64.16,-46.65 65.97,-44.05 66.71,-42.73 66.81,-42.47 66.37,-43.54 67.92,-40.54 67.63,-40.43 68.76,-38.17 69.07,-38.15 70.01,-35.52 70.34,-34.85 70.28,-34.28 71.67,-31.05 71.21,-32.02 71.85,-31.14 72.21,-29.6 72.85,-28.12 73.65,-24.75 73.6,-25.83 73.71,-25.1 74.02,-23.69 74.49,-21.92 74.84,-19.03 74.71,-20.94 75.18,-18.64 75.35,-18.35 75.88,-14.28 75.58,-15.63 76.4,-11.78 76.6,-8.97 76.39,-9.83 76.58,-8.92 76.55,-6.04 76.96,-4.84 76.97,-2.6 76.93,-2.55 76.73,-2.11 76.89,-0.62 76.89,0.43" fill="rgb(255, 99, 71)" stroke="black" stroke-width="1.6666666666666665" stroke-linejoin="round" filter="url(#fuzzy)" />
    <g transform="translate(40.65 -26.63)">
      <polyline id="rightCountour" points="-29.02,-8.64 -28.88,-9.17 -28.7,-9.68 -28.47,-10.17 -28.21,-10.62 -27.9,-11.06 -27.56,-11.47 -27.18,-11.86 -26.76,-12.23 -26.31,-12.58 -25.83,-12.91 -25.32,-13.22 -24.79,-13.51 -24.22,-13.79 -23.63,-14.04 -23.01,-14.28 -22.32,-14.55 -21.59,-14.8 -20.83,-15.03 -20.04,-15.25 -19.23,-15.45 -18.39,-15.63 -17.53,-15.79 -16.65,-15.94 -15.75,-16.08 -14.83,-16.2 -13.9,-16.31 -12.95,-16.4 -11.99,-16.48 -11.02,-16.54 -10.04,-16.59 -9.05,-16.63 -8.06,-16.65 -7.07,-16.67 -6.07,-16.67 -5.07,-16.66 -4.08,-16.63 -3.08,-16.6 -2.1,-16.55 -1.11,-16.49 -0.14,-16.43 0.83,-16.35 1.78,-16.26 2.72,-16.16 3.66,-16.04 4.57,-15.92 5.47,-15.79 6.36,-15.65 7.23,-15.49 8.08,-15.33 8.91,-15.16 9.72,-14.97 10.51,-14.78 11.28,-14.58 12.03,-14.36 12.76,-14.14 13.47,-13.9 14.15,-13.66 14.81,-13.4 15.45,-13.14 16.07,-12.87 16.66,-12.58 17.23,-12.29 17.78,-11.99 18.31,-11.67 18.81,-11.35 19.3,-11.02 19.76,-10.68 20.21,-10.32 20.63,-9.96 21.04,-9.58 21.42,-9.19 21.79,-8.79 22.14,-8.38 22.47,-7.96 22.77,-7.53 23.06,-7.08 23.33,-6.63 23.58,-6.16 23.81,-5.68 27.44,-0.6 27.03,-0.03 26.6,0.55 26.16,1.13 25.71,1.71 25.24,2.3 24.76,2.89 24.27,3.48 23.76,4.08 23.24,4.67 22.7,5.26 22.15,5.85 21.58,6.43 21,7.01 20.41,7.58 19.8,8.15 19.17,8.72 18.53,9.28 17.87,9.84 17.19,10.39 16.49,10.93 15.78,11.46 15.04,11.97 14.29,12.46 13.52,12.94 12.74,13.39 11.93,13.82 11.11,14.22 10.28,14.59 9.42,14.94 8.55,15.25 7.67,15.53 6.77,15.78 5.86,15.99 4.93,16.16 3.99,16.29 3.04,16.39 2.08,16.44 1.12,16.45 0.14,16.43 -0.85,16.36 -1.83,16.24 -2.83,16.09 -3.83,15.89 -4.83,15.65 -5.83,15.37 -6.83,15.05 -7.82,14.69 -8.82,14.29 -9.8,13.85 -10.78,13.38 -11.76,12.87 -12.72,12.32 -13.67,11.75 -14.6,11.14 -15.52,10.5 -16.43,9.84 -17.31,9.15 -18.18,8.45 -19.02,7.72 -19.84,6.97 -20.63,6.22 -21.4,5.45 -22.13,4.67 -22.84,3.88 -23.46,3.24 -24.06,2.6 -24.63,1.94 -25.18,1.28 -25.7,0.62 -26.19,-0.04 -26.65,-0.7 -27.07,-1.37 -27.47,-2.03 -27.82,-2.68 -28.14,-3.34 -28.42,-3.98 -28.66,-4.62 -28.86,-5.24 -29.01,-5.86" fill="white" stroke="white" stroke-width="0" stroke-linejoin="round" filter="url(#fuzzy)" />
    </g>
    <g transform="translate(-52.9 -28.47)">
      <polyline id="leftCountour" points="27.53,-9.48 27.41,-9.86 27.24,-10.21 27.03,-10.56 26.79,-10.88 26.51,-11.19 26.19,-11.49 25.84,-11.77 25.45,-12.04 25.04,-12.29 24.59,-12.53 24.12,-12.76 23.61,-12.97 23.08,-13.17 22.53,-13.36 21.95,-13.54 21.31,-13.75 20.65,-13.95 19.95,-14.13 19.22,-14.3 18.46,-14.45 17.67,-14.6 16.86,-14.73 16.02,-14.84 15.16,-14.94 14.28,-15.03 13.38,-15.11 12.46,-15.18 11.53,-15.23 10.58,-15.27 9.62,-15.3 8.64,-15.32 7.66,-15.33 6.67,-15.33 5.68,-15.31 4.68,-15.29 3.68,-15.26 2.68,-15.21 1.68,-15.16 0.69,-15.09 -0.3,-15.02 -1.29,-14.94 -2.26,-14.85 -3.23,-14.75 -4.19,-14.64 -5.13,-14.52 -6.06,-14.39 -6.98,-14.26 -7.88,-14.11 -8.76,-13.96 -9.63,-13.8 -10.48,-13.63 -11.3,-13.45 -12.11,-13.26 -12.9,-13.07 -13.66,-12.86 -14.4,-12.65 -15.12,-12.43 -15.82,-12.2 -16.49,-11.97 -17.14,-11.72 -17.76,-11.47 -18.36,-11.21 -18.94,-10.94 -19.49,-10.67 -20.02,-10.38 -20.53,-10.09 -21.02,-9.79 -21.48,-9.48 -21.93,-9.16 -22.35,-8.83 -22.75,-8.5 -23.13,-8.15 -23.49,-7.79 -23.83,-7.43 -24.14,-7.05 -24.44,-6.67 -24.71,-6.27 -24.97,-5.87 -25.2,-5.45 -28.16,0.47 -27.66,1.02 -27.15,1.57 -26.63,2.12 -26.1,2.68 -25.55,3.24 -24.99,3.79 -24.42,4.35 -23.83,4.91 -23.24,5.46 -22.63,6.01 -22,6.55 -21.37,7.09 -20.72,7.62 -20.06,8.14 -19.39,8.65 -18.71,9.17 -18.01,9.67 -17.29,10.17 -16.56,10.66 -15.82,11.13 -15.06,11.59 -14.29,12.03 -13.5,12.45 -12.71,12.85 -11.9,13.22 -11.08,13.56 -10.25,13.88 -9.41,14.17 -8.56,14.43 -7.71,14.65 -6.84,14.84 -5.97,15 -5.08,15.12 -4.2,15.2 -3.31,15.24 -2.41,15.24 -1.51,15.21 -0.6,15.14 0.3,15.02 1.21,14.87 2.12,14.68 3.03,14.45 3.94,14.18 4.84,13.87 5.75,13.53 6.65,13.15 7.54,12.74 8.43,12.29 9.31,11.82 10.19,11.32 11.06,10.78 11.92,10.23 12.77,9.65 13.61,9.05 14.44,8.43 15.25,7.79 16.06,7.14 16.84,6.48 17.62,5.81 18.37,5.13 19.11,4.45 19.83,3.77 20.53,3.09 21.21,2.42 21.79,1.83 22.36,1.25 22.9,0.66 23.43,0.07 23.93,-0.52 24.42,-1.11 24.87,-1.69 25.31,-2.27 25.71,-2.84 26.09,-3.41 26.44,-3.97 26.76,-4.52 27.05,-5.06 27.31,-5.59 27.53,-6.11" fill="white" stroke="white" stroke-width="0" stroke-linejoin="round" filter="url(#fuzzy)" />
    </g>
    <g transform="translate(40.65 -26.63)">
      <polyline id="rightUpper" points="-27.52,-1.68 -27.93,-2.52 -28.28,-3.33 -28.57,-4.1 -28.8,-4.84 -28.97,-5.55 -29.08,-6.22 -29.14,-6.87 -29.15,-7.49 -29.11,-8.08 -29.02,-8.64 -28.88,-9.17 -28.7,-9.68 -28.47,-10.17 -28.21,-10.62 -27.9,-11.06 -27.56,-11.47 -27.18,-11.86 -26.76,-12.23 -26.31,-12.58 -25.83,-12.91 -25.32,-13.22 -24.79,-13.51 -24.22,-13.79 -23.63,-14.04 -23.01,-14.28 -22.32,-14.55 -21.59,-14.8 -20.83,-15.03 -20.04,-15.25 -19.23,-15.45 -18.39,-15.63 -17.53,-15.79 -16.65,-15.94 -15.75,-16.08 -14.83,-16.2 -13.9,-16.31 -12.95,-16.4 -11.99,-16.48 -11.02,-16.54 -10.04,-16.59 -9.05,-16.63 -8.06,-16.65 -7.07,-16.67 -6.07,-16.67 -5.07,-16.66 -4.08,-16.63 -3.08,-16.6 -2.1,-16.55 -1.11,-16.49 -0.14,-16.43 0.83,-16.35 1.78,-16.26 2.72,-16.16 3.66,-16.04 4.57,-15.92 5.47,-15.79 6.36,-15.65 7.23,-15.49 8.08,-15.33 8.91,-15.16 9.72,-14.97 10.51,-14.78 11.28,-14.58 12.03,-14.36 12.76,-14.14 13.47,-13.9 14.15,-13.66 14.81,-13.4 15.45,-13.14 16.07,-12.87 16.66,-12.58 17.23,-12.29 17.78,-11.99 18.31,-11.67 18.81,-11.35 19.3,-11.02 19.76,-10.68 20.21,-10.32 20.63,-9.96 21.04,-9.58 21.42,-9.19 21.79,-8.79 22.14,-8.38 22.47,-7.96 22.77,-7.53 23.06,-7.08 23.33,-6.63 23.58,-6.16 23.81,-5.68 24.03,-5.19 24.22,-4.69 24.4,-4.18 24.56,-3.66 24.71,-3.13 24.83,-2.59 24.94,-2.03 25.03,-1.47 25.11,-0.9 25.18,-0.32" fill="none" stroke="black" stroke-width="1.6666666666666665" stroke-linejoin="round" filter="url(#fuzzy)" />
      <polyline id="rightLower" points="-27.68,-11.03 -28.08,-10.62 -28.41,-10.18 -28.68,-9.71 -28.89,-9.22 -29.04,-8.71 -29.14,-8.18 -29.18,-7.62 -29.17,-7.05 -29.12,-6.46 -29.01,-5.86 -28.86,-5.24 -28.66,-4.62 -28.42,-3.98 -28.14,-3.34 -27.82,-2.68 -27.47,-2.03 -27.07,-1.37 -26.65,-0.7 -26.19,-0.04 -25.7,0.62 -25.18,1.28 -24.63,1.94 -24.06,2.6 -23.46,3.24 -22.84,3.88 -22.13,4.67 -21.4,5.45 -20.63,6.22 -19.84,6.97 -19.02,7.72 -18.18,8.45 -17.31,9.15 -16.43,9.84 -15.52,10.5 -14.6,11.14 -13.67,11.75 -12.72,12.32 -11.76,12.87 -10.78,13.38 -9.8,13.85 -8.82,14.29 -7.82,14.69 -6.83,15.05 -5.83,15.37 -4.83,15.65 -3.83,15.89 -2.83,16.09 -1.83,16.24 -0.85,16.36 0.14,16.43 1.12,16.45 2.08,16.44 3.04,16.39 3.99,16.29 4.93,16.16 5.86,15.99 6.77,15.78 7.67,15.53 8.55,15.25 9.42,14.94 10.28,14.59 11.11,14.22 11.93,13.82 12.74,13.39 13.52,12.94 14.29,12.46 15.04,11.97 15.78,11.46 16.49,10.93 17.19,10.39 17.87,9.84 18.53,9.28 19.17,8.72 19.8,8.15 20.41,7.58 21,7.01 21.58,6.43 22.15,5.85 22.7,5.26 23.24,4.67 23.76,4.08 24.27,3.48 24.76,2.89 25.24,2.3 25.71,1.71 26.16,1.13 26.6,0.55 27.03,-0.03 27.44,-0.6 27.85,-1.16 28.23,-1.72 28.61,-2.27 28.97,-2.81 29.32,-3.34 29.66,-3.87 29.99,-4.39 30.31,-4.89 30.62,-5.39 30.91,-5.88" fill="none" stroke="black" stroke-width="2.2222222222222223" stroke-linejoin="round" filter="url(#fuzzy)" />
      <circle r="3.352" cx="14.081470682633682" cy="-5.174693822002932" stroke="black" fill="none" stroke-width="1.0" filter="url(#fuzzy)" clip-path="url(#rightEyeClipPath)" /><circle r="3.682" cx="16.261470682633682" cy="-8.324693822002931" stroke="black" fill="none" stroke-width="1.0" filter="url(#fuzzy)" clip-path="url(#rightEyeClipPath)" /><circle r="4.218" cx="17.581470682633682" cy="-8.199693822002931" stroke="black" fill="none" stroke-width="1.0" filter="url(#fuzzy)" clip-path="url(#rightEyeClipPath)" /><circle r="3.642" cx="18.32147068263368" cy="-6.6046938220029325" stroke="black" fill="none" stroke-width="1.0" filter="url(#fuzzy)" clip-path="url(#rightEyeClipPath)" /><circle r="3.282" cx="15.331470682633682" cy="-6.824693822002932" stroke="black" fill="none" stroke-width="1.0" filter="url(#fuzzy)" clip-path="url(#rightEyeClipPath)" /><circle r="3.7640000000000002" cx="18.566470682633682" cy="-8.699693822002931" stroke="black" fill="none" stroke-width="1.0" filter="url(#fuzzy)" clip-path="url(#rightEyeClipPath)" /><circle r="4.748" cx="18.39147068263368" cy="-9.269693822002932" stroke="black" fill="none" stroke-width="1.0" filter="url(#fuzzy)" clip-path="url(#rightEyeClipPath)" /><circle r="4.98" cx="17.64147068263368" cy="-7.614693822002932" stroke="black" fill="none" stroke-width="1.0" filter="url(#fuzzy)" clip-path="url(#rightEyeClipPath)" /><circle r="3.146" cx="16.066470682633682" cy="-5.924693822002932" stroke="black" fill="none" stroke-width="1.0" filter="url(#fuzzy)" clip-path="url(#rightEyeClipPath)" /><circle r="3.794" cx="17.726470682633682" cy="-4.989693822002932" stroke="black" fill="none" stroke-width="1.0" filter="url(#fuzzy)" clip-path="url(#rightEyeClipPath)" />
      </g>
    <g transform="translate(-52.9 -28.47)">
      <polyline id="leftUpper" points="26.25,-4.75 26.61,-5.31 26.91,-5.85 27.16,-6.37 27.36,-6.87 27.5,-7.35 27.6,-7.81 27.65,-8.25 27.66,-8.68 27.62,-9.09 27.53,-9.48 27.41,-9.86 27.24,-10.21 27.03,-10.56 26.79,-10.88 26.51,-11.19 26.19,-11.49 25.84,-11.77 25.45,-12.04 25.04,-12.29 24.59,-12.53 24.12,-12.76 23.61,-12.97 23.08,-13.17 22.53,-13.36 21.95,-13.54 21.31,-13.75 20.65,-13.95 19.95,-14.13 19.22,-14.3 18.46,-14.45 17.67,-14.6 16.86,-14.73 16.02,-14.84 15.16,-14.94 14.28,-15.03 13.38,-15.11 12.46,-15.18 11.53,-15.23 10.58,-15.27 9.62,-15.3 8.64,-15.32 7.66,-15.33 6.67,-15.33 5.68,-15.31 4.68,-15.29 3.68,-15.26 2.68,-15.21 1.68,-15.16 0.69,-15.09 -0.3,-15.02 -1.29,-14.94 -2.26,-14.85 -3.23,-14.75 -4.19,-14.64 -5.13,-14.52 -6.06,-14.39 -6.98,-14.26 -7.88,-14.11 -8.76,-13.96 -9.63,-13.8 -10.48,-13.63 -11.3,-13.45 -12.11,-13.26 -12.9,-13.07 -13.66,-12.86 -14.4,-12.65 -15.12,-12.43 -15.82,-12.2 -16.49,-11.97 -17.14,-11.72 -17.76,-11.47 -18.36,-11.21 -18.94,-10.94 -19.49,-10.67 -20.02,-10.38 -20.53,-10.09 -21.02,-9.79 -21.48,-9.48 -21.93,-9.16 -22.35,-8.83 -22.75,-8.5 -23.13,-8.15 -23.49,-7.79 -23.83,-7.43 -24.14,-7.05 -24.44,-6.67 -24.71,-6.27 -24.97,-5.87 -25.2,-5.45 -25.41,-5.03 -25.6,-4.6 -25.77,-4.16 -25.92,-3.71 -26.06,-3.25 -26.17,-2.78 -26.27,-2.31 -26.34,-1.82 -26.4,-1.33 -26.45,-0.83" fill="none" stroke="black" stroke-width="2.2222222222222223" stroke-linejoin="round" filter="url(#fuzzy)" />
      <polyline id="leftLower" points="27.41,-10.43 27.64,-10.08 27.82,-9.71 27.94,-9.32 28.02,-8.91 28.04,-8.49 28.02,-8.04 27.96,-7.58 27.86,-7.1 27.71,-6.61 27.53,-6.11 27.31,-5.59 27.05,-5.06 26.76,-4.52 26.44,-3.97 26.09,-3.41 25.71,-2.84 25.31,-2.27 24.87,-1.69 24.42,-1.11 23.93,-0.52 23.43,0.07 22.9,0.66 22.36,1.25 21.79,1.83 21.21,2.42 20.53,3.09 19.83,3.77 19.11,4.45 18.37,5.13 17.62,5.81 16.84,6.48 16.06,7.14 15.25,7.79 14.44,8.43 13.61,9.05 12.77,9.65 11.92,10.23 11.06,10.78 10.19,11.32 9.31,11.82 8.43,12.29 7.54,12.74 6.65,13.15 5.75,13.53 4.84,13.87 3.94,14.18 3.03,14.45 2.12,14.68 1.21,14.87 0.3,15.02 -0.6,15.14 -1.51,15.21 -2.41,15.24 -3.31,15.24 -4.2,15.2 -5.08,15.12 -5.97,15 -6.84,14.84 -7.71,14.65 -8.56,14.43 -9.41,14.17 -10.25,13.88 -11.08,13.56 -11.9,13.22 -12.71,12.85 -13.5,12.45 -14.29,12.03 -15.06,11.59 -15.82,11.13 -16.56,10.66 -17.29,10.17 -18.01,9.67 -18.71,9.17 -19.39,8.65 -20.06,8.14 -20.72,7.62 -21.37,7.09 -22,6.55 -22.63,6.01 -23.24,5.46 -23.83,4.91 -24.42,4.35 -24.99,3.79 -25.55,3.24 -26.1,2.68 -26.63,2.12 -27.15,1.57 -27.66,1.02 -28.16,0.47 -28.64,-0.07 -29.11,-0.61 -29.56,-1.14 -30.01,-1.66 -30.44,-2.18 -30.86,-2.69 -31.26,-3.19 -31.66,-3.69 -32.04,-4.17 -32.41,-4.65" fill="none" stroke="black" stroke-width="2.2222222222222223" stroke-linejoin="round" filter="url(#fuzzy)" />
      <circle r="3.872" cx="-3.3390223308749967" cy="-10.773482972640378" stroke="black" fill="none" stroke-width="1.0" filter="url(#fuzzy)" clip-path="url(#leftEyeClipPath)" /><circle r="3.63" cx="-3.114022330874997" cy="-7.368482972640379" stroke="black" fill="none" stroke-width="1.0" filter="url(#fuzzy)" clip-path="url(#leftEyeClipPath)" /><circle r="4.186" cx="-1.2290223308749972" cy="-7.983482972640379" stroke="black" fill="none" stroke-width="1.0" filter="url(#fuzzy)" clip-path="url(#leftEyeClipPath)" /><circle r="4.096" cx="-3.3140223308749968" cy="-6.308482972640379" stroke="black" fill="none" stroke-width="1.0" filter="url(#fuzzy)" clip-path="url(#leftEyeClipPath)" /><circle r="3.9379999999999997" cx="-3.139022330874997" cy="-8.10848297264038" stroke="black" fill="none" stroke-width="1.0" filter="url(#fuzzy)" clip-path="url(#leftEyeClipPath)" /><circle r="3.604" cx="-2.2640223308749965" cy="-10.26848297264038" stroke="black" fill="none" stroke-width="1.0" filter="url(#fuzzy)" clip-path="url(#leftEyeClipPath)" /><circle r="3.61" cx="-1.7240223308749965" cy="-6.6884829726403785" stroke="black" fill="none" stroke-width="1.0" filter="url(#fuzzy)" clip-path="url(#leftEyeClipPath)" /><circle r="4.426" cx="-3.184022330874997" cy="-6.653482972640379" stroke="black" fill="none" stroke-width="1.0" filter="url(#fuzzy)" clip-path="url(#leftEyeClipPath)" /><circle r="4.426" cx="-2.2190223308749966" cy="-7.573482972640379" stroke="black" fill="none" stroke-width="1.0" filter="url(#fuzzy)" clip-path="url(#leftEyeClipPath)" /><circle r="4.9239999999999995" cx="-5.374022330874997" cy="-9.568482972640378" stroke="black" fill="none" stroke-width="1.0" filter="url(#fuzzy)" clip-path="url(#leftEyeClipPath)" />
    </g>
    <g id="hairs">
      <polyline points="-34.59,-76.38 -33.12,-76.96 -31.17,-77.71 -28.83,-78.51 -26.41,-79.23 -23.99,-79.83 -21.55,-80.37 -19.1,-80.86 -16.62,-81.33 -14.09,-81.8 -11.43,-82.27 -8.62,-82.77 -5.72,-83.28 -2.9,-83.77 -0.35,-84.21 1.62,-84.61 2.72,-85.04" fill="none" stroke="rgb(44, 34, 43)" stroke-width="2" stroke-linejoin="round" filter="url(#fuzzy)" /><polyline points="47.76,-66.88 48.8,-66.01 49.87,-65.02 50.85,-64.04 51.72,-63.14 52.48,-62.35 53.13,-61.65 53.67,-61.06 54.07,-60.58 54.31,-60.24 54.34,-60.08 54.11,-60.15 53.58,-60.51 52.71,-61.18 51.49,-62.18 49.94,-63.49 48.09,-65.1 45.95,-66.97 43.5,-69.15 40.54,-71.81" fill="none" stroke="rgb(44, 34, 43)" stroke-width="2" stroke-linejoin="round" filter="url(#fuzzy)" /><polyline points="-34.59,-76.38 -33.1,-76.94 -31.09,-77.64 -28.65,-78.36 -26.09,-78.97 -23.47,-79.45 -20.76,-79.84 -17.93,-80.16 -14.99,-80.44 -11.89,-80.7 -8.62,-80.98 -5.17,-81.31 -1.64,-81.68 1.86,-82.07 5.26,-82.43 8.54,-82.71 11.69,-82.9 14.5,-83.03" fill="none" stroke="rgb(44, 34, 43)" stroke-width="2" stroke-linejoin="round" filter="url(#fuzzy)" /><polyline points="-40.26,-73.14 -38.08,-74.36 -36.19,-75.39 -34.55,-76.23 -32.98,-76.97 -31.35,-77.7 -29.65,-78.47 -27.99,-79.23 -26.5,-79.92 -25.31,-80.47 -24.47,-80.86 -24.01,-81.07 -23.95,-81.11 -24.19,-81.03 -24.52,-80.92 -24.69,-80.87" fill="none" stroke="rgb(44, 34, 43)" stroke-width="2" stroke-linejoin="round" filter="url(#fuzzy)" /><polyline points="1.77,-85.56 2.38,-85.38 3.35,-85.26 4.79,-85.09 6.6,-84.88 8.51,-84.63 10.3,-84.38 11.88,-84.14 13.27,-83.92 14.48,-83.71 15.55,-83.52 16.47,-83.36 17.25,-83.21 17.83,-83.1 18.07,-83.04 17.8,-83.11 16.86,-83.36 15.35,-83.78" fill="none" stroke="rgb(44, 34, 43)" stroke-width="2" stroke-linejoin="round" filter="url(#fuzzy)" /><polyline points="59.26,-54.7 59.77,-53.84 60.29,-53.08 60.88,-52.21 61.51,-51.25 62.16,-50.24 62.75,-49.28 63.27,-48.42 63.66,-47.73 63.9,-47.3 63.92,-47.18 63.7,-47.42 63.21,-48.03 62.45,-48.98 61.43,-50.27 60.14,-51.92 58.57,-53.96 56.69,-56.43 54.59,-59.29" fill="none" stroke="rgb(44, 34, 43)" stroke-width="2" stroke-linejoin="round" filter="url(#fuzzy)" /><polyline points="24.57,-80.98 26.4,-80.25 27.5,-79.75 28.39,-79.32 29.12,-78.98 29.59,-78.72 29.73,-78.57 29.45,-78.56 28.7,-78.69 27.5,-78.97 25.86,-79.41 23.73,-80.02 21.06,-80.86 17.72,-81.96 13.63,-83.31" fill="none" stroke="rgb(44, 34, 43)" stroke-width="2" stroke-linejoin="round" filter="url(#fuzzy)" /><polyline points="13.92,-84.11 14.64,-83.89 15.66,-83.4 16.36,-82.9 16.51,-82.41 16.17,-81.86 15.38,-81.19 14.15,-80.4 12.45,-79.5 10.21,-78.51 7.37,-77.42 3.95,-76.22 -0.05,-74.9 -4.6,-73.47 -9.72,-71.92 -15.46,-70.27 -21.87,-68.49 -29.01,-66.56 -36.9,-64.46 -45.55,-62.1" fill="none" stroke="rgb(44, 34, 43)" stroke-width="2" stroke-linejoin="round" filter="url(#fuzzy)" /><polyline points="-9.88,-84.77 -9.43,-84.79 -8.08,-84.96 -6.64,-85.08 -5.41,-85.13 -4.49,-85.12 -3.9,-85.06 -3.66,-84.95 -3.81,-84.77 -4.35,-84.52 -5.23,-84.22 -6.4,-83.85 -7.84,-83.43 -9.58,-82.93 -11.74,-82.33 -14.46,-81.63 -17.9,-80.79 -22.24,-79.72 -27.54,-78.34" fill="none" stroke="rgb(44, 34, 43)" stroke-width="2" stroke-linejoin="round" filter="url(#fuzzy)" /><polyline points="55.9,-58.7 56.31,-58.17 56.87,-57.34 57.13,-56.68 57.01,-56.26 56.52,-56.1 55.68,-56.15 54.51,-56.4 52.98,-56.82 51.05,-57.43 48.69,-58.25 45.86,-59.32 42.56,-60.7 38.77,-62.43 34.49,-64.55 29.67,-67.09 24.24,-70.03 18.14,-73.31 11.32,-76.9 3.86,-80.85" fill="none" stroke="rgb(44, 34, 43)" stroke-width="2" stroke-linejoin="round" filter="url(#fuzzy)" />
    </g>
    
        <g id="lineNose">
        <path d="M -8.64,1.56 Q 9.71, 6.51 0.5350000000000001, -5.414000000000001" fill="none" stroke="black" stroke-width="3" stroke-linejoin="round" filter="url(#fuzzy)"></path>
        </g>
      
    <g id="mouth">
      <polyline points="29.56,61.63 29.51,61.53 29.74,61.77 29.61,62.39 29.37,63.25 29.24,63.16 28.82,64.15 29.19,63.78 28.95,64.28 28.52,64.57 28.34,65.05 28.37,64.84 27.79,65.8 28.01,65.58 26.66,66.9 25.94,67.5 26.33,67.27 24.96,68.12 25.79,67.55 25.42,67.91 23.36,69.25 24.27,68.62 23.09,69.39 22.12,69.93 22.52,69.73 21.1,70.47 20.73,70.59 20.8,70.51 19.52,71.11 17.26,72.03 17.56,71.95 15.75,72.5 15.45,72.6 14.59,72.91 13.74,73.16 12.75,73.4 12.95,73.39 12.44,73.49 9.63,74.16 9.77,74.12 7.74,74.53 7.92,74.52 6.21,74.8 7.78,74.54 4.97,75 6.28,74.81 3.2,75.24 1.49,75.43 2.69,75.3 2.34,75.34 -1.18,75.65 -0.35,75.59 -2.76,75.74 -2.96,75.75 -3.91,75.79 -4.52,75.8 -7.41,75.82 -5.44,75.81 -8.94,75.78 -7.88,75.79 -9.47,75.74 -9.99,75.7 -12.32,75.58 -12.72,75.51 -13.78,75.43 -13.56,75.46 -14.35,75.36 -14.8,75.27 -16.74,74.99 -17.8,74.8 -18.89,74.59 -19.24,74.53 -18.46,74.68 -21.29,74.05 -22.44,73.71 -21.39,73.96 -22.28,73.68 -22.19,73.74 -24.2,73.09 -23.91,73.15 -25.99,72.24 -24.65,72.9 -27.08,71.69 -27.29,71.59 -27.72,71.4 -28.48,70.91 -28.84,70.48 -28.24,70.86 -28.69,70.66 -29.26,70.03 -29.34,70.13 -29.99,69.49 -30.54,68.82 -30.36,69.02 -30.96,68 -30.74,68.44 -31.11,68.1 -31.13,67.61 -31.1,67.59 -31.53,66.54 -31.54,65.93 -31.51,65.31 -31.74,65.79 -31.64,64.82 -31.53,65.38 -31.42,64.17 -31.42,64.16 -31.1,63.76 -31.22,63.87 -30.52,62.3 -30.7,62.87 -29.55,61.41 -29.87,61.75 -29.34,61.14 -29.16,60.9 -28.52,60.3 -28.14,59.94 -28.17,60.03 -27.01,59.21 -27.51,59.54 -26.64,58.96 -26.81,58.96 -25.01,57.86 -24.81,57.83 -24.75,57.72 -23.47,57.09 -22.1,56.47 -22.14,56.47 -21.12,56.07 -20.2,55.69 -19.98,55.66 -19.14,55.31 -19.09,55.29 -16.27,54.39 -15.67,54.22 -15.94,54.34 -16.03,54.34 -12.89,53.54 -12,53.34 -12.5,53.46 -10.01,52.93 -10.65,53.04 -9.72,52.87 -8.32,52.64 -8.79,52.73 -8.38,52.64 -4.9,52.16 -4.82,52.15 -2.21,51.89 -2.59,51.92 -1.55,51.84 -1.75,51.85 0.45,51.72 0.34,51.72 1.67,51.66 2.13,51.65 3.21,51.62 3.82,51.62 4.42,51.62 4.94,51.61 7.89,51.7 6.94,51.67 10.03,51.83 9.69,51.82 9.73,51.83 12.63,52.11 13.56,52.22 12.86,52.11 14.51,52.34 14.11,52.32 14.93,52.45 17.96,53 17.24,52.84 18.46,53.13 20.41,53.73 20.15,53.59 20.49,53.74 20.6,53.75 22.25,54.34 22.96,54.58 22.78,54.52 25.02,55.53 23.74,55.05 23.99,55.14 26.42,56.41 25.32,55.77 26.1,56.25 27.33,57.15 27.47,57.38 27.88,57.59 28.36,58.14 28.73,58.7 28.3,58.29 28.62,58.74 29.24,59.53 28.92,59.22 29.43,60.14 29.57,60.5 29.24,59.95 29.62,61.25" fill="rgb(215,127,140)" stroke="black" stroke-width="3" stroke-linejoin="round" filter="url(#fuzzy)" />
    </g>
  </svg>
  