
  <svg viewBox="-100 -100 200 200" xmlns="http://www.w3.org/2000/svg" width="500" height="500" id="face-svg">
    <defs>
      <clipPath id="leftEyeClipPath">
        <polyline points="34.26,-12.84 34,-13.23 33.71,-13.62 33.38,-14 33.02,-14.38 32.62,-14.75 32.19,-15.12 31.72,-15.49 31.22,-15.84 30.68,-16.19 30.11,-16.53 29.5,-16.87 28.85,-17.19 28.17,-17.5 27.46,-17.81 26.71,-18.1 26.08,-18.5 25.39,-18.89 24.63,-19.26 23.81,-19.61 22.92,-19.94 21.98,-20.25 20.98,-20.54 19.93,-20.81 18.83,-21.05 17.69,-21.28 16.5,-21.48 15.27,-21.65 14.01,-21.8 12.72,-21.93 11.4,-22.04 10.06,-22.12 8.7,-22.17 7.33,-22.2 5.95,-22.21 4.57,-22.19 3.18,-22.15 1.8,-22.08 0.43,-21.99 -0.93,-21.88 -2.28,-21.74 -3.61,-21.58 -4.92,-21.39 -6.21,-21.19 -7.47,-20.96 -8.69,-20.7 -9.89,-20.43 -11.05,-20.13 -12.17,-19.81 -13.26,-19.47 -14.31,-19.11 -15.31,-18.73 -16.27,-18.33 -17.19,-17.91 -18.06,-17.47 -18.89,-17.01 -19.68,-16.54 -20.42,-16.05 -21.12,-15.54 -21.78,-15.01 -22.39,-14.47 -22.96,-13.91 -23.5,-13.34 -24,-12.75 -24.46,-12.15 -24.89,-11.53 -25.29,-10.9 -25.65,-10.26 -25.98,-9.6 -26.27,-8.92 -26.53,-8.22 -26.76,-7.51 -26.96,-6.78 -27.13,-6.04 -27.26,-5.28 -27.37,-4.51 -27.46,-3.72 -27.51,-2.91 -27.54,-2.09 -27.55,-1.26 -27.77,2.04 -27.3,2.77 -26.81,3.51 -26.31,4.24 -25.8,4.98 -25.27,5.71 -24.73,6.45 -24.17,7.18 -23.6,7.91 -23.01,8.63 -22.41,9.35 -21.8,10.05 -21.16,10.75 -20.52,11.44 -19.86,12.12 -19.18,12.79 -18.48,13.46 -17.77,14.11 -17.03,14.76 -16.28,15.39 -15.51,16.01 -14.72,16.61 -13.91,17.18 -13.08,17.74 -12.24,18.26 -11.37,18.76 -10.49,19.23 -9.59,19.66 -8.67,20.06 -7.74,20.43 -6.79,20.75 -5.83,21.04 -4.85,21.28 -3.86,21.48 -2.86,21.64 -1.85,21.75 -0.82,21.82 0.21,21.84 1.24,21.81 2.28,21.74 3.33,21.62 4.38,21.46 5.43,21.25 6.47,20.99 7.52,20.69 8.56,20.34 9.59,19.95 10.62,19.52 11.64,19.05 12.65,18.54 13.64,17.99 14.62,17.41 15.58,16.79 16.53,16.15 17.45,15.47 18.36,14.77 19.24,14.05 20.1,13.3 20.93,12.54 21.74,11.77 22.52,10.98 23.27,10.18 23.99,9.38 24.68,8.57 25.34,7.77 25.99,7.09 26.62,6.41 27.24,5.72 27.83,5.03 28.41,4.35 28.97,3.66 29.51,2.98 30.02,2.3 30.52,1.63 31,0.96 31.45,0.3 31.88,-0.35 32.3,-0.98 32.69,-1.61 33.05,-2.22" />
      </clipPath>
      <clipPath id="rightEyeClipPath">
        <polyline points="-32.51,-11.04 -32.26,-11.53 -31.97,-12.01 -31.65,-12.49 -31.29,-12.96 -30.89,-13.42 -30.46,-13.87 -29.99,-14.3 -29.48,-14.73 -28.94,-15.15 -28.36,-15.55 -27.74,-15.94 -27.09,-16.32 -26.4,-16.68 -25.67,-17.02 -24.91,-17.35 -24.27,-17.83 -23.56,-18.28 -22.78,-18.7 -21.94,-19.1 -21.04,-19.47 -20.07,-19.8 -19.05,-20.11 -17.98,-20.4 -16.86,-20.65 -15.69,-20.87 -14.48,-21.06 -13.23,-21.22 -11.94,-21.35 -10.63,-21.45 -9.29,-21.52 -7.93,-21.56 -6.55,-21.58 -5.16,-21.56 -3.76,-21.52 -2.36,-21.46 -0.96,-21.36 0.44,-21.25 1.83,-21.1 3.2,-20.94 4.56,-20.75 5.89,-20.54 7.21,-20.3 8.49,-20.05 9.75,-19.78 10.98,-19.48 12.16,-19.17 13.32,-18.84 14.43,-18.5 15.5,-18.13 16.52,-17.76 17.51,-17.37 18.44,-16.96 19.33,-16.54 20.18,-16.11 20.97,-15.66 21.72,-15.21 22.43,-14.74 23.08,-14.26 23.69,-13.77 24.26,-13.28 24.78,-12.77 25.26,-12.26 25.7,-11.74 26.1,-11.21 26.47,-10.67 26.8,-10.12 27.1,-9.57 27.35,-9 27.57,-8.43 27.76,-7.84 27.91,-7.25 28.02,-6.64 28.1,-6.03 28.15,-5.41 28.17,-4.78 28.16,-4.13 28.12,-3.48 28.05,-2.83 27.95,-2.16 27.5,1.81 26.91,2.45 26.31,3.1 25.69,3.75 25.06,4.41 24.41,5.06 23.76,5.72 23.09,6.37 22.41,7.02 21.71,7.67 21.01,8.31 20.29,8.95 19.56,9.58 18.82,10.21 18.06,10.83 17.3,11.45 16.51,12.06 15.72,12.66 14.9,13.26 14.08,13.85 13.24,14.43 12.38,15 11.51,15.55 10.63,16.08 9.74,16.59 8.84,17.09 7.92,17.55 7,18 6.06,18.41 5.12,18.8 4.17,19.15 3.22,19.47 2.25,19.76 1.29,20.02 0.32,20.24 -0.66,20.42 -1.63,20.56 -2.61,20.66 -3.58,20.73 -4.56,20.75 -5.53,20.73 -6.49,20.67 -7.46,20.57 -8.41,20.42 -9.36,20.23 -10.3,20.01 -11.23,19.74 -12.15,19.43 -13.05,19.08 -13.95,18.69 -14.83,18.26 -15.69,17.8 -16.54,17.29 -17.37,16.76 -18.18,16.19 -18.98,15.59 -19.75,14.96 -20.51,14.31 -21.24,13.62 -21.95,12.92 -22.64,12.19 -23.31,11.45 -23.95,10.69 -24.57,9.92 -25.17,9.13 -25.74,8.5 -26.3,7.86 -26.84,7.21 -27.36,6.56 -27.87,5.9 -28.37,5.23 -28.84,4.56 -29.3,3.89 -29.74,3.21 -30.17,2.54 -30.57,1.87 -30.96,1.2 -31.33,0.54 -31.68,-0.12 -32.01,-0.77" />
      </clipPath>
      <filter id="fuzzy">
        <feTurbulence id="turbulence" baseFrequency="0.05" numOctaves="3" type="noise" result="noise" />
        <feDisplacementMap in="SourceGraphic" in2="noise" scale="2" />
      </filter>
      <linearGradient id="rainbowGradient" x1="0%" y1="0%" x2="100%" y2="0%">
        <stop offset="0%" style="stop-color: rgb(128, 128, 128); stop-opacity: 1" />
        <stop offset="50%" style="stop-color: rgb(123, 104, 238); stop-opacity: 1" />
        <stop offset="100%" style="stop-color: rgb(173, 216, 230); stop-opacity: 1" />
      </linearGradient>
    </defs>
    <rect x="-100" y="-100" width="100%" height="100%" fill="rgb(245, 245, 220)" />
    <polyline id="faceContour" points="73.21,-0.61 73.04,0.46 73.02,1.51 73.17,2.45 72.99,6.37 72.63,7.23 73,6.54 72.49,9.27 72.26,11.24 72.3,11.53 72.19,13.37 72.07,12.88 71.44,18.05 71.76,17.29 71.26,19.69 71.35,18.41 70.37,22.56 70.19,23.77 69.97,24.34 69.85,25.13 70.07,24.81 68.78,28.61 68.57,29.05 68.3,30.55 67.82,31.93 67.65,32.47 66.99,33.49 66.36,35.57 65.53,37.35 65.12,38.92 64.55,40.16 64.35,40.24 64.18,40.37 63.09,42.69 62.67,43.36 62.54,44.42 62.59,44.34 61.21,46.42 60.76,47.27 58.77,50.16 59.35,49.21 58.5,50.89 57.43,52.57 57.05,53.48 56.37,54.52 55.66,55.64 54.24,57.12 52.67,58.95 52.51,59.24 51.78,60.08 51.61,60.53 50.23,61.74 49.29,63.12 48.87,63.14 48.18,64.48 47.54,64.77 47.3,65.25 45.75,66.54 43.73,68.06 44.92,67.44 42.35,69.33 41.71,70.1 41.96,70.12 39.97,71.08 39.01,72.57 38.81,72.36 37.31,73.13 36.85,73.92 35.11,75.09 35.23,75.08 33.32,75.97 32.55,76.7 29.65,77.91 29.95,77.84 28.58,78.39 27.92,79 25.45,79.96 25.4,79.8 24.91,80.16 23.68,80.72 22.97,80.95 22.16,81.22 19.12,82.44 19.43,82.47 18.18,82.58 17.12,83.09 17.05,83.01 15.35,83.54 14.38,83.81 13.57,83.82 10.61,84.63 10.54,84.31 9.22,84.61 6.39,85.1 6.57,84.94 5.44,85.16 5.43,85.15 5.03,85.31 2.34,85.55 1.07,85.29 0.22,85.35 -0.33,85.17 -2.66,85.31 -4.72,85.44 -5.46,85.23 -6.47,85.28 -7.04,84.83 -7.62,85.05 -9.03,84.62 -9.81,84.81 -11.49,84.45 -12.32,84.22 -15.2,83.67 -14.49,83.51 -15.8,83.29 -17.89,82.88 -18.24,82.86 -18.5,82.48 -21.21,81.59 -22.15,81.19 -23.94,80.8 -24.51,80.56 -25.22,79.88 -25.36,80.07 -26.54,79.52 -28.78,78.78 -28.82,78.8 -29.11,78.55 -29.64,78 -32.22,76.71 -31.08,77.4 -32.79,76.52 -35.24,74.66 -35.79,74.26 -37.35,73.73 -37.12,73.39 -40.53,70.92 -39.13,72.03 -42.08,70.17 -40.95,70.61 -41.94,69.97 -45.13,67.1 -44.07,68.47 -44.99,66.95 -46.14,66.03 -47.85,64.59 -47.75,64.82 -48.17,64 -50.12,62.13 -49.94,62.11 -51.34,60.7 -52.47,59.02 -53.93,57.52 -53.7,57.64 -55.9,55.18 -56.67,53.67 -56.25,54.51 -57.84,52.16 -57.32,52.9 -58.14,51.89 -58.72,50.69 -60.35,47.87 -61.27,46.15 -61.01,46.89 -61.7,45.16 -62.48,44.27 -62.66,43.97 -63.33,42.48 -63.44,42.03 -64.03,41.42 -64.63,39.56 -65.31,37.98 -66.66,35.18 -66.29,35.8 -67.13,34.1 -67.87,31.89 -68.08,30.72 -67.91,31.03 -68.29,30.26 -69.41,25.92 -69.54,25.53 -69.47,26.65 -70.58,21.85 -70.32,23.17 -70.78,21.73 -71.09,19.22 -70.79,20.46 -71.53,17.96 -71.71,16.38 -71.89,16.19 -71.86,14.89 -72.22,11.44 -72.4,11.5 -72.5,10.42 -72.56,9.09 -72.84,6.9 -72.98,5.39 -72.93,4.69 -72.93,1.19 -72.93,1.6 -73.07,-0.36 -72.87,-2.12 -72.99,-2.73 -72.89,-5.28 -73.01,-5.1 -73.01,-4.66 -72.75,-8.27 -72.51,-9.41 -72.18,-12.73 -72.29,-12.7 -72.51,-11.68 -72.21,-13.04 -71.64,-16.81 -71.71,-16.72 -71.36,-18.4 -71.15,-19.73 -70.63,-22.18 -70.55,-22.79 -70.01,-24.22 -70.01,-24.32 -69.33,-26.61 -69.3,-27.13 -68.65,-29.8 -68.41,-30.02 -68.23,-30.62 -67.18,-33.56 -67.13,-33.45 -66.53,-34.7 -66.13,-35.74 -65.62,-37.91 -65.5,-37.61 -64.63,-39.73 -63.9,-41 -64.23,-40.31 -62.69,-43.56 -62.15,-44.57 -61.82,-45.35 -59.97,-48.66 -60.11,-48.82 -59.37,-49.68 -59.63,-49.46 -59.41,-49.9 -57.41,-53.13 -57.35,-53.34 -55.46,-55.53 -56.13,-54.9 -54.14,-57.43 -54.36,-57.1 -52.34,-59.77 -52.54,-59.23 -51.94,-59.97 -51.09,-60.91 -50.43,-61.91 -48.49,-63.65 -48.17,-64.28 -47.63,-64.43 -45.9,-66.41 -45.08,-67.18 -43.77,-68.38 -42.49,-69.04 -42.97,-69.37 -43.29,-69.06 -41.77,-69.98 -40.15,-71.58 -37.42,-73.35 -37.16,-73.27 -37.95,-72.89 -36.09,-74.14 -33.99,-75.47 -33.78,-75.46 -33.12,-75.88 -32.94,-76.33 -30.67,-77.71 -28.68,-78.65 -28.82,-78.44 -28.93,-78.27 -28.39,-78.93 -24.84,-80.55 -24.08,-80.58 -22.31,-81.4 -22.43,-81.25 -21.78,-81.69 -20.99,-81.54 -18.82,-82.45 -18.46,-82.42 -16.64,-82.96 -16.36,-83.18 -15.16,-83.78 -14.86,-83.72 -11.95,-84.32 -11.42,-84.6 -10.96,-84.27 -10.41,-84.49 -8.55,-84.95 -7.13,-84.79 -5.99,-85.16 -4.4,-85.39 -2.44,-85.46 -3.34,-85.17 -1.69,-85.29 0.65,-85.61 1.61,-85.57 1.93,-85.21 3.65,-85.49 5.42,-85.22 5.52,-85.01 6.45,-85.05 6.99,-85.12 10.01,-84.7 10.19,-84.56 12.53,-84.33 11.42,-84.55 14.28,-83.79 13.97,-83.69 15.79,-83.28 18.01,-82.73 17.99,-82.64 18.98,-82.45 21.23,-81.83 20.55,-82.15 22.35,-81.25 23.63,-80.93 24.32,-80.54 25.52,-80.32 26.38,-79.84 28.15,-78.42 28.83,-78.77 30.87,-77.76 30.01,-78.07 33.3,-75.82 33.28,-76.23 35.59,-74.98 34.71,-75.31 35.05,-75.16 36.78,-73.65 38.03,-72.61 39.84,-71.73 39.91,-71.76 40.58,-71.05 41.26,-70.16 43.19,-68.84 43.31,-68.79 45.45,-67.14 45.3,-66.66 46.95,-65.66 46.41,-66.01 49.1,-63.39 50.58,-61.67 50.7,-61.96 49.61,-62.59 52.66,-58.99 53.12,-58.8 54.16,-57.3 53.49,-58.01 53.66,-57.65 55.85,-55.37 56.35,-54.18 57.79,-52.52 56.88,-53.41 57.66,-52.79 59.54,-49.57 60.92,-47.48 60.05,-48.62 60.69,-46.91 62.17,-44.68 61.92,-45.28 63.31,-42.65 63.62,-41.91 63.33,-42.4 65.02,-39.34 64.47,-40.03 64.92,-38.46 65.79,-37.01 66.59,-35.62 67.11,-33.83 67.78,-31.84 67.88,-30.68 68.03,-30.49 68.16,-29.81 68.84,-28.95 69.97,-25.32 69.28,-27.26 69.9,-25.45 70.51,-23.22 71.1,-19.77 70.71,-22.02 71.25,-18.2 71.4,-18.05 71.6,-16.37 71.7,-15.56 72.36,-12.58 72.36,-10.87 72.32,-12.17 72.66,-8.03 72.63,-8.89 72.91,-6.45 73.01,-4.2 72.78,-5.93 72.98,-2 73.21,-1.05 73.21,-0.61 73.04,0.46" fill="rgb(255, 114, 86)" stroke="black" stroke-width="1.6666666666666665" stroke-linejoin="round" filter="url(#fuzzy)" />
    <g transform="translate(31.35 -26.88)">
      <polyline id="rightCountour" points="-32.51,-11.04 -32.26,-11.53 -31.97,-12.01 -31.65,-12.49 -31.29,-12.96 -30.89,-13.42 -30.46,-13.87 -29.99,-14.3 -29.48,-14.73 -28.94,-15.15 -28.36,-15.55 -27.74,-15.94 -27.09,-16.32 -26.4,-16.68 -25.67,-17.02 -24.91,-17.35 -24.27,-17.83 -23.56,-18.28 -22.78,-18.7 -21.94,-19.1 -21.04,-19.47 -20.07,-19.8 -19.05,-20.11 -17.98,-20.4 -16.86,-20.65 -15.69,-20.87 -14.48,-21.06 -13.23,-21.22 -11.94,-21.35 -10.63,-21.45 -9.29,-21.52 -7.93,-21.56 -6.55,-21.58 -5.16,-21.56 -3.76,-21.52 -2.36,-21.46 -0.96,-21.36 0.44,-21.25 1.83,-21.1 3.2,-20.94 4.56,-20.75 5.89,-20.54 7.21,-20.3 8.49,-20.05 9.75,-19.78 10.98,-19.48 12.16,-19.17 13.32,-18.84 14.43,-18.5 15.5,-18.13 16.52,-17.76 17.51,-17.37 18.44,-16.96 19.33,-16.54 20.18,-16.11 20.97,-15.66 21.72,-15.21 22.43,-14.74 23.08,-14.26 23.69,-13.77 24.26,-13.28 24.78,-12.77 25.26,-12.26 25.7,-11.74 26.1,-11.21 26.47,-10.67 26.8,-10.12 27.1,-9.57 27.35,-9 27.57,-8.43 27.76,-7.84 27.91,-7.25 28.02,-6.64 28.1,-6.03 28.15,-5.41 28.17,-4.78 28.16,-4.13 28.12,-3.48 28.05,-2.83 27.95,-2.16 27.5,1.81 26.91,2.45 26.31,3.1 25.69,3.75 25.06,4.41 24.41,5.06 23.76,5.72 23.09,6.37 22.41,7.02 21.71,7.67 21.01,8.31 20.29,8.95 19.56,9.58 18.82,10.21 18.06,10.83 17.3,11.45 16.51,12.06 15.72,12.66 14.9,13.26 14.08,13.85 13.24,14.43 12.38,15 11.51,15.55 10.63,16.08 9.74,16.59 8.84,17.09 7.92,17.55 7,18 6.06,18.41 5.12,18.8 4.17,19.15 3.22,19.47 2.25,19.76 1.29,20.02 0.32,20.24 -0.66,20.42 -1.63,20.56 -2.61,20.66 -3.58,20.73 -4.56,20.75 -5.53,20.73 -6.49,20.67 -7.46,20.57 -8.41,20.42 -9.36,20.23 -10.3,20.01 -11.23,19.74 -12.15,19.43 -13.05,19.08 -13.95,18.69 -14.83,18.26 -15.69,17.8 -16.54,17.29 -17.37,16.76 -18.18,16.19 -18.98,15.59 -19.75,14.96 -20.51,14.31 -21.24,13.62 -21.95,12.92 -22.64,12.19 -23.31,11.45 -23.95,10.69 -24.57,9.92 -25.17,9.13 -25.74,8.5 -26.3,7.86 -26.84,7.21 -27.36,6.56 -27.87,5.9 -28.37,5.23 -28.84,4.56 -29.3,3.89 -29.74,3.21 -30.17,2.54 -30.57,1.87 -30.96,1.2 -31.33,0.54 -31.68,-0.12 -32.01,-0.77" fill="white" stroke="white" stroke-width="0" stroke-linejoin="round" filter="url(#fuzzy)" />
    </g>
    <g transform="translate(-37.230000000000004 -26.02)">
      <polyline id="leftCountour" points="34.26,-12.84 34,-13.23 33.71,-13.62 33.38,-14 33.02,-14.38 32.62,-14.75 32.19,-15.12 31.72,-15.49 31.22,-15.84 30.68,-16.19 30.11,-16.53 29.5,-16.87 28.85,-17.19 28.17,-17.5 27.46,-17.81 26.71,-18.1 26.08,-18.5 25.39,-18.89 24.63,-19.26 23.81,-19.61 22.92,-19.94 21.98,-20.25 20.98,-20.54 19.93,-20.81 18.83,-21.05 17.69,-21.28 16.5,-21.48 15.27,-21.65 14.01,-21.8 12.72,-21.93 11.4,-22.04 10.06,-22.12 8.7,-22.17 7.33,-22.2 5.95,-22.21 4.57,-22.19 3.18,-22.15 1.8,-22.08 0.43,-21.99 -0.93,-21.88 -2.28,-21.74 -3.61,-21.58 -4.92,-21.39 -6.21,-21.19 -7.47,-20.96 -8.69,-20.7 -9.89,-20.43 -11.05,-20.13 -12.17,-19.81 -13.26,-19.47 -14.31,-19.11 -15.31,-18.73 -16.27,-18.33 -17.19,-17.91 -18.06,-17.47 -18.89,-17.01 -19.68,-16.54 -20.42,-16.05 -21.12,-15.54 -21.78,-15.01 -22.39,-14.47 -22.96,-13.91 -23.5,-13.34 -24,-12.75 -24.46,-12.15 -24.89,-11.53 -25.29,-10.9 -25.65,-10.26 -25.98,-9.6 -26.27,-8.92 -26.53,-8.22 -26.76,-7.51 -26.96,-6.78 -27.13,-6.04 -27.26,-5.28 -27.37,-4.51 -27.46,-3.72 -27.51,-2.91 -27.54,-2.09 -27.55,-1.26 -27.77,2.04 -27.3,2.77 -26.81,3.51 -26.31,4.24 -25.8,4.98 -25.27,5.71 -24.73,6.45 -24.17,7.18 -23.6,7.91 -23.01,8.63 -22.41,9.35 -21.8,10.05 -21.16,10.75 -20.52,11.44 -19.86,12.12 -19.18,12.79 -18.48,13.46 -17.77,14.11 -17.03,14.76 -16.28,15.39 -15.51,16.01 -14.72,16.61 -13.91,17.18 -13.08,17.74 -12.24,18.26 -11.37,18.76 -10.49,19.23 -9.59,19.66 -8.67,20.06 -7.74,20.43 -6.79,20.75 -5.83,21.04 -4.85,21.28 -3.86,21.48 -2.86,21.64 -1.85,21.75 -0.82,21.82 0.21,21.84 1.24,21.81 2.28,21.74 3.33,21.62 4.38,21.46 5.43,21.25 6.47,20.99 7.52,20.69 8.56,20.34 9.59,19.95 10.62,19.52 11.64,19.05 12.65,18.54 13.64,17.99 14.62,17.41 15.58,16.79 16.53,16.15 17.45,15.47 18.36,14.77 19.24,14.05 20.1,13.3 20.93,12.54 21.74,11.77 22.52,10.98 23.27,10.18 23.99,9.38 24.68,8.57 25.34,7.77 25.99,7.09 26.62,6.41 27.24,5.72 27.83,5.03 28.41,4.35 28.97,3.66 29.51,2.98 30.02,2.3 30.52,1.63 31,0.96 31.45,0.3 31.88,-0.35 32.3,-0.98 32.69,-1.61 33.05,-2.22" fill="white" stroke="white" stroke-width="0" stroke-linejoin="round" filter="url(#fuzzy)" />
    </g>
    <g transform="translate(31.35 -26.88)">
      <polyline id="rightUpper" points="-33.44,-6.17 -33.45,-6.63 -33.44,-7.1 -33.42,-7.58 -33.37,-8.07 -33.3,-8.56 -33.2,-9.06 -33.07,-9.56 -32.92,-10.05 -32.73,-10.55 -32.51,-11.04 -32.26,-11.53 -31.97,-12.01 -31.65,-12.49 -31.29,-12.96 -30.89,-13.42 -30.46,-13.87 -29.99,-14.3 -29.48,-14.73 -28.94,-15.15 -28.36,-15.55 -27.74,-15.94 -27.09,-16.32 -26.4,-16.68 -25.67,-17.02 -24.91,-17.35 -24.27,-17.83 -23.56,-18.28 -22.78,-18.7 -21.94,-19.1 -21.04,-19.47 -20.07,-19.8 -19.05,-20.11 -17.98,-20.4 -16.86,-20.65 -15.69,-20.87 -14.48,-21.06 -13.23,-21.22 -11.94,-21.35 -10.63,-21.45 -9.29,-21.52 -7.93,-21.56 -6.55,-21.58 -5.16,-21.56 -3.76,-21.52 -2.36,-21.46 -0.96,-21.36 0.44,-21.25 1.83,-21.1 3.2,-20.94 4.56,-20.75 5.89,-20.54 7.21,-20.3 8.49,-20.05 9.75,-19.78 10.98,-19.48 12.16,-19.17 13.32,-18.84 14.43,-18.5 15.5,-18.13 16.52,-17.76 17.51,-17.37 18.44,-16.96 19.33,-16.54 20.18,-16.11 20.97,-15.66 21.72,-15.21 22.43,-14.74 23.08,-14.26 23.69,-13.77 24.26,-13.28 24.78,-12.77 25.26,-12.26 25.7,-11.74 26.1,-11.21 26.47,-10.67 26.8,-10.12 27.1,-9.57 27.35,-9 27.57,-8.43 27.76,-7.84 27.91,-7.25 28.02,-6.64 28.1,-6.03 28.15,-5.41 28.17,-4.78 28.16,-4.13 28.12,-3.48 28.05,-2.83 27.95,-2.16 27.83,-1.48 27.68,-0.8 27.5,-0.1 27.3,0.6 27.08,1.31 26.84,2.03 26.57,2.75 26.29,3.49 25.98,4.23 25.66,4.98" fill="none" stroke="black" stroke-width="1.6666666666666665" stroke-linejoin="round" filter="url(#fuzzy)" />
      <polyline id="rightLower" points="-34.23,-6.47 -34.1,-5.99 -33.95,-5.49 -33.78,-4.96 -33.59,-4.41 -33.37,-3.84 -33.14,-3.26 -32.89,-2.66 -32.61,-2.04 -32.32,-1.41 -32.01,-0.77 -31.68,-0.12 -31.33,0.54 -30.96,1.2 -30.57,1.87 -30.17,2.54 -29.74,3.21 -29.3,3.89 -28.84,4.56 -28.37,5.23 -27.87,5.9 -27.36,6.56 -26.84,7.21 -26.3,7.86 -25.74,8.5 -25.17,9.13 -24.57,9.92 -23.95,10.69 -23.31,11.45 -22.64,12.19 -21.95,12.92 -21.24,13.62 -20.51,14.31 -19.75,14.96 -18.98,15.59 -18.18,16.19 -17.37,16.76 -16.54,17.29 -15.69,17.8 -14.83,18.26 -13.95,18.69 -13.05,19.08 -12.15,19.43 -11.23,19.74 -10.3,20.01 -9.36,20.23 -8.41,20.42 -7.46,20.57 -6.49,20.67 -5.53,20.73 -4.56,20.75 -3.58,20.73 -2.61,20.66 -1.63,20.56 -0.66,20.42 0.32,20.24 1.29,20.02 2.25,19.76 3.22,19.47 4.17,19.15 5.12,18.8 6.06,18.41 7,18 7.92,17.55 8.84,17.09 9.74,16.59 10.63,16.08 11.51,15.55 12.38,15 13.24,14.43 14.08,13.85 14.9,13.26 15.72,12.66 16.51,12.06 17.3,11.45 18.06,10.83 18.82,10.21 19.56,9.58 20.29,8.95 21.01,8.31 21.71,7.67 22.41,7.02 23.09,6.37 23.76,5.72 24.41,5.06 25.06,4.41 25.69,3.75 26.31,3.1 26.91,2.45 27.5,1.81 28.08,1.16 28.65,0.52 29.21,-0.11 29.75,-0.74 30.28,-1.37 30.8,-1.99 31.31,-2.6 31.8,-3.21 32.29,-3.81 32.76,-4.41" fill="none" stroke="black" stroke-width="2.2222222222222223" stroke-linejoin="round" filter="url(#fuzzy)" />
      <circle r="4.4719999999999995" cx="15.888698428367501" cy="-0.5392436377346925" stroke="black" fill="none" stroke-width="1.0" filter="url(#fuzzy)" clip-path="url(#rightEyeClipPath)" /><circle r="3.39" cx="17.7836984283675" cy="-1.7942436377346924" stroke="black" fill="none" stroke-width="1.0" filter="url(#fuzzy)" clip-path="url(#rightEyeClipPath)" /><circle r="3.7359999999999998" cx="15.863698428367499" cy="-1.9842436377346928" stroke="black" fill="none" stroke-width="1.0" filter="url(#fuzzy)" clip-path="url(#rightEyeClipPath)" /><circle r="3.286" cx="15.243698428367498" cy="-4.609243637734693" stroke="black" fill="none" stroke-width="1.0" filter="url(#fuzzy)" clip-path="url(#rightEyeClipPath)" /><circle r="4.632" cx="17.1786984283675" cy="-1.1992436377346927" stroke="black" fill="none" stroke-width="1.0" filter="url(#fuzzy)" clip-path="url(#rightEyeClipPath)" /><circle r="4.968" cx="16.5286984283675" cy="-2.5292436377346927" stroke="black" fill="none" stroke-width="1.0" filter="url(#fuzzy)" clip-path="url(#rightEyeClipPath)" /><circle r="3.7279999999999998" cx="15.1586984283675" cy="-1.1442436377346925" stroke="black" fill="none" stroke-width="1.0" filter="url(#fuzzy)" clip-path="url(#rightEyeClipPath)" /><circle r="4.8740000000000006" cx="18.208698428367498" cy="-3.7292436377346925" stroke="black" fill="none" stroke-width="1.0" filter="url(#fuzzy)" clip-path="url(#rightEyeClipPath)" /><circle r="4.436" cx="14.298698428367501" cy="-1.6042436377346925" stroke="black" fill="none" stroke-width="1.0" filter="url(#fuzzy)" clip-path="url(#rightEyeClipPath)" /><circle r="3.418" cx="18.3686984283675" cy="-1.3142436377346929" stroke="black" fill="none" stroke-width="1.0" filter="url(#fuzzy)" clip-path="url(#rightEyeClipPath)" />
      </g>
    <g transform="translate(-37.230000000000004 -26.02)">
      <polyline id="leftUpper" points="35.4,-9.11 35.38,-9.45 35.34,-9.81 35.29,-10.17 35.22,-10.54 35.12,-10.92 35.01,-11.3 34.86,-11.68 34.69,-12.07 34.49,-12.46 34.26,-12.84 34,-13.23 33.71,-13.62 33.38,-14 33.02,-14.38 32.62,-14.75 32.19,-15.12 31.72,-15.49 31.22,-15.84 30.68,-16.19 30.11,-16.53 29.5,-16.87 28.85,-17.19 28.17,-17.5 27.46,-17.81 26.71,-18.1 26.08,-18.5 25.39,-18.89 24.63,-19.26 23.81,-19.61 22.92,-19.94 21.98,-20.25 20.98,-20.54 19.93,-20.81 18.83,-21.05 17.69,-21.28 16.5,-21.48 15.27,-21.65 14.01,-21.8 12.72,-21.93 11.4,-22.04 10.06,-22.12 8.7,-22.17 7.33,-22.2 5.95,-22.21 4.57,-22.19 3.18,-22.15 1.8,-22.08 0.43,-21.99 -0.93,-21.88 -2.28,-21.74 -3.61,-21.58 -4.92,-21.39 -6.21,-21.19 -7.47,-20.96 -8.69,-20.7 -9.89,-20.43 -11.05,-20.13 -12.17,-19.81 -13.26,-19.47 -14.31,-19.11 -15.31,-18.73 -16.27,-18.33 -17.19,-17.91 -18.06,-17.47 -18.89,-17.01 -19.68,-16.54 -20.42,-16.05 -21.12,-15.54 -21.78,-15.01 -22.39,-14.47 -22.96,-13.91 -23.5,-13.34 -24,-12.75 -24.46,-12.15 -24.89,-11.53 -25.29,-10.9 -25.65,-10.26 -25.98,-9.6 -26.27,-8.92 -26.53,-8.22 -26.76,-7.51 -26.96,-6.78 -27.13,-6.04 -27.26,-5.28 -27.37,-4.51 -27.46,-3.72 -27.51,-2.91 -27.54,-2.09 -27.55,-1.26 -27.53,-0.41 -27.48,0.46 -27.42,1.34 -27.33,2.23 -27.22,3.14 -27.1,4.06 -26.95,4.99 -26.79,5.94 -26.6,6.89 -26.4,7.86" fill="none" stroke="black" stroke-width="2.2222222222222223" stroke-linejoin="round" filter="url(#fuzzy)" />
      <polyline id="leftLower" points="35.53,-7.2 35.38,-6.81 35.21,-6.4 35.01,-5.96 34.8,-5.49 34.56,-5 34.3,-4.48 34.02,-3.94 33.72,-3.39 33.4,-2.81 33.05,-2.22 32.69,-1.61 32.3,-0.98 31.88,-0.35 31.45,0.3 31,0.96 30.52,1.63 30.02,2.3 29.51,2.98 28.97,3.66 28.41,4.35 27.83,5.03 27.24,5.72 26.62,6.41 25.99,7.09 25.34,7.77 24.68,8.57 23.99,9.38 23.27,10.18 22.52,10.98 21.74,11.77 20.93,12.54 20.1,13.3 19.24,14.05 18.36,14.77 17.45,15.47 16.53,16.15 15.58,16.79 14.62,17.41 13.64,17.99 12.65,18.54 11.64,19.05 10.62,19.52 9.59,19.95 8.56,20.34 7.52,20.69 6.47,20.99 5.43,21.25 4.38,21.46 3.33,21.62 2.28,21.74 1.24,21.81 0.21,21.84 -0.82,21.82 -1.85,21.75 -2.86,21.64 -3.86,21.48 -4.85,21.28 -5.83,21.04 -6.79,20.75 -7.74,20.43 -8.67,20.06 -9.59,19.66 -10.49,19.23 -11.37,18.76 -12.24,18.26 -13.08,17.74 -13.91,17.18 -14.72,16.61 -15.51,16.01 -16.28,15.39 -17.03,14.76 -17.77,14.11 -18.48,13.46 -19.18,12.79 -19.86,12.12 -20.52,11.44 -21.16,10.75 -21.8,10.05 -22.41,9.35 -23.01,8.63 -23.6,7.91 -24.17,7.18 -24.73,6.45 -25.27,5.71 -25.8,4.98 -26.31,4.24 -26.81,3.51 -27.3,2.77 -27.77,2.04 -28.23,1.31 -28.67,0.59 -29.11,-0.13 -29.53,-0.85 -29.94,-1.56 -30.33,-2.26 -30.72,-2.96 -31.09,-3.65 -31.45,-4.34 -31.81,-5.01" fill="none" stroke="black" stroke-width="2.2222222222222223" stroke-linejoin="round" filter="url(#fuzzy)" />
      <circle r="4.634" cx="-1.228314060095613" cy="-4.31322984449793" stroke="black" fill="none" stroke-width="1.0" filter="url(#fuzzy)" clip-path="url(#leftEyeClipPath)" /><circle r="3.958" cx="-0.29831406009561334" cy="-4.35322984449793" stroke="black" fill="none" stroke-width="1.0" filter="url(#fuzzy)" clip-path="url(#leftEyeClipPath)" /><circle r="3.016" cx="0.20168593990438666" cy="-4.178229844497929" stroke="black" fill="none" stroke-width="1.0" filter="url(#fuzzy)" clip-path="url(#leftEyeClipPath)" /><circle r="3.7279999999999998" cx="-0.22331406009561316" cy="-1.8382298444979304" stroke="black" fill="none" stroke-width="1.0" filter="url(#fuzzy)" clip-path="url(#leftEyeClipPath)" /><circle r="3.476" cx="-1.5383140600956136" cy="-3.2532298444979304" stroke="black" fill="none" stroke-width="1.0" filter="url(#fuzzy)" clip-path="url(#leftEyeClipPath)" /><circle r="3.39" cx="-1.7183140600956137" cy="-2.7582298444979294" stroke="black" fill="none" stroke-width="1.0" filter="url(#fuzzy)" clip-path="url(#leftEyeClipPath)" /><circle r="3.29" cx="-1.5383140600956136" cy="-6.24822984449793" stroke="black" fill="none" stroke-width="1.0" filter="url(#fuzzy)" clip-path="url(#leftEyeClipPath)" /><circle r="4.766" cx="0.12668593990438648" cy="-2.0882298444979295" stroke="black" fill="none" stroke-width="1.0" filter="url(#fuzzy)" clip-path="url(#leftEyeClipPath)" /><circle r="3.086" cx="-4.523314060095613" cy="-3.60822984449793" stroke="black" fill="none" stroke-width="1.0" filter="url(#fuzzy)" clip-path="url(#leftEyeClipPath)" /><circle r="4.9239999999999995" cx="-2.9583140600956135" cy="-1.8832298444979303" stroke="black" fill="none" stroke-width="1.0" filter="url(#fuzzy)" clip-path="url(#leftEyeClipPath)" />
    </g>
    <g id="hairs">
      <polyline points="-15.16,-83.78 27.44,-61.16 25.73,-63.77 12.46,-68.24 2.08,-70.87 -2.71,-72.03 -4.48,-72.39 -5.92,-72.59 -7.82,-73.17 -9.35,-74.29 -9.23,-75.62 -6.8,-76.61 -2.55,-76.89 1.99,-76.65 4.74,-76.5 4.14,-76.9 0.36,-77.55 -3.84,-77.2 -3.06,-74.23 8.78,-67.87 31.87,-61.28 39.84,-71.73" fill="none" stroke="rgb(167, 133, 106)" stroke-width="2" stroke-linejoin="round" filter="url(#fuzzy)" /><polyline points="-48.49,-63.65 -7.28,-69.18 -0.38,-73.62 1.87,-75.97 1.29,-75.35 -1.31,-72.35 -2.76,-68.6 -0.59,-65.77 4.85,-64.7 11.36,-65.06 16.69,-65.92 19.48,-66.92 19.33,-68.84 17.19,-72.54 16.01,-77.18 30.87,-77.76" fill="none" stroke="rgb(167, 133, 106)" stroke-width="2" stroke-linejoin="round" filter="url(#fuzzy)" /><polyline points="-55.46,-55.53 -13.33,-66.16 -3.62,-68.71 -0.86,-71.1 -0.48,-73.75 1.07,-75.19 6.04,-74.37 14,-71.24 22.62,-66.7 29.58,-62.07 34.09,-58.51 36.7,-56.7 38.05,-56.76 37.74,-58.48 34.45,-61.34 27.4,-64.67 17.71,-68.02 8.9,-71.68 5.87,-76.24 11.9,-80.11 30.87,-77.76" fill="none" stroke="rgb(167, 133, 106)" stroke-width="2" stroke-linejoin="round" filter="url(#fuzzy)" /><polyline points="59.54,-49.57 46.75,-61.96 30.44,-69.8 11.74,-72.91 -4.98,-73.4 -14.86,-73.09 -16.22,-72.95 -10.88,-72.91 -2.21,-72.37 6.79,-70.83 14.36,-68.25 19.73,-65.08 22.54,-61.97 22.69,-59.55 20.95,-58.47 19.3,-59.61 19.94,-63.79 23.31,-70.15 29.85,-73.16 50.7,-61.96" fill="none" stroke="rgb(167, 133, 106)" stroke-width="2" stroke-linejoin="round" filter="url(#fuzzy)" /><polyline points="53.66,-57.65 46.84,-52.27 35.72,-57.99 27.18,-63.99 18.1,-69.29 10.16,-73.06 5.44,-75.09 3.26,-75.99 1.37,-76.57 -1.63,-77.22 -5.17,-77.74 -7.5,-77.7 -7.32,-76.83 -4.76,-75.23 -1.31,-73.27 1.85,-71.36 6.3,-69.81 16.79,-68.84 33.09,-68.85 33.3,-75.82" fill="none" stroke="rgb(167, 133, 106)" stroke-width="2" stroke-linejoin="round" filter="url(#fuzzy)" /><polyline points="-2.44,-85.46 -2.53,-82.25 -0.1,-75.59 3.71,-70.37 6.42,-68.71 6.33,-69.19 4.44,-69.49 2.43,-68.45 1.35,-66.29 1.8,-63.92 4.35,-62.19 9.22,-61.53 15.67,-62.05 21.95,-63.68 26.25,-66.07 27.73,-68.5 26.62,-69.99 23.25,-69.65 16.84,-67.4 5.55,-64.91 -10.44,-65.94 -23.15,-73.72 -22.43,-81.25" fill="none" stroke="rgb(167, 133, 106)" stroke-width="2" stroke-linejoin="round" filter="url(#fuzzy)" /><polyline points="-47.63,-64.43 -46.24,-64.89 -39.47,-67.2 -28.94,-67.29 -17.05,-66.33 -6.8,-65.63 0.59,-65.3 5.37,-64.89 7.97,-64.22 8.26,-63.48 5.78,-63.06 0.6,-63.21 -5.89,-63.94 -10.95,-65.06 -11.75,-66.2 -7.05,-66.92 1.66,-66.79 10.66,-65.71 15.87,-64.24 15.13,-63.71 9.18,-65.67 1.69,-70.68 2.52,-76.24 35.05,-75.16" fill="none" stroke="rgb(167, 133, 106)" stroke-width="2" stroke-linejoin="round" filter="url(#fuzzy)" /><polyline points="43.31,-68.79 51.18,-55.69 49.27,-57.67 46.36,-58.79 41.09,-59.51 34.02,-61.75 27.47,-65.49 22.94,-69.59 20.14,-72.84 17.71,-74.5 14.37,-74.3 9.78,-72.38 4.85,-69.35 1.29,-66.35 0.41,-64.8 2.02,-65.78 4.13,-69.39 4.12,-74.42 0.55,-78.94 -5.4,-81.52 -9.28,-82.02 -3.05,-81.28 26.38,-79.84" fill="none" stroke="rgb(167, 133, 106)" stroke-width="2" stroke-linejoin="round" filter="url(#fuzzy)" /><polyline points="-21.78,-81.69 -31.44,-76.13 -31.53,-75.06 -25.46,-75.44 -14.99,-75.65 -2.91,-75.17 7.41,-74.17 13.8,-73.13 16.04,-72.47 15.32,-72.3 13.22,-72.38 11.12,-72.31 9.9,-71.77 9.89,-70.71 11.01,-69.4 12.85,-68.33 14.94,-67.86 16.76,-67.99 17.9,-68.15 18.3,-67.39 18.31,-64.77 17.85,-60.02 14.72,-54.92 9.83,-55.05 46.95,-65.66" fill="none" stroke="rgb(167, 133, 106)" stroke-width="2" stroke-linejoin="round" filter="url(#fuzzy)" /><polyline points="64.92,-38.46 28.34,-62.32 11.45,-70.74 12.26,-72.69 19.48,-70.8 24.31,-67.82 22.46,-66.29 14.69,-67.24 5.33,-70.05 -0.75,-73.31 -0.82,-75.69 4.91,-76.44 14.15,-75.5 24.03,-73.42 32.05,-71.24 36.65,-69.98 37.02,-70.47 30.69,-74.34 10.19,-84.56" fill="none" stroke="rgb(167, 133, 106)" stroke-width="2" stroke-linejoin="round" filter="url(#fuzzy)" /><polyline points="-15.16,-83.78 0.96,-67.98 22.4,-56.29 26.03,-56.39 18.69,-60.99 9.32,-64.48 2.04,-65.9 -2.74,-66.54 -5.88,-67.53 -8.11,-68.93 -9.75,-70.09 -10.94,-70.42 -11.99,-69.84 -13.45,-68.84 -16.03,-68.05 -20.16,-67.94 -25.56,-68.6 -31.14,-69.76 -35.5,-70.94 -37.92,-71.66 -39.03,-71.49 -41.2,-69.36 -51.94,-59.97" fill="none" stroke="rgb(167, 133, 106)" stroke-width="2" stroke-linejoin="round" filter="url(#fuzzy)" /><polyline points="25.52,-80.32 1.46,-79.65 7.44,-75.4 20.91,-70.69 32.5,-66.77 40.47,-63.52 45.29,-60.72 47.39,-58.66 46.67,-57.98 42.94,-59.24 36.43,-62.44 28.24,-66.89 20.35,-71.49 15.2,-75.07 14.65,-76.67 18.97,-75.73 26.15,-72.14 32.13,-66.34 31.58,-59.78 19.45,-56.1 -2,-62.35 6.99,-85.12" fill="none" stroke="rgb(167, 133, 106)" stroke-width="2" stroke-linejoin="round" filter="url(#fuzzy)" /><polyline points="-8.55,-84.95 13.56,-80.71 13.17,-79.21 5.33,-76.99 1.59,-73.4 4.33,-70.19 9.28,-68.91 11.12,-69.5 7.55,-70.68 0.36,-71.32 -6.01,-71.31 -7.21,-71.39 -1.71,-72.3 8.3,-74 18.52,-75.67 25.49,-76.19 27.37,-75.27 18.91,-74.97 -18.46,-82.42" fill="none" stroke="rgb(167, 133, 106)" stroke-width="2" stroke-linejoin="round" filter="url(#fuzzy)" /><polyline points="23.63,-80.93 38.7,-65.78 33.05,-63.95 25.54,-67.23 22.51,-69.79 21.25,-70.33 17.95,-69.7 11.24,-69.02 2.33,-69 -6.14,-69.85 -11.67,-71.28 -12.88,-72.75 -9.94,-73.75 -4.4,-74.13 1.31,-74.14 4.66,-74.21 3.87,-74.61 -1.11,-75.33 -8.16,-76.12 -13.23,-76.68 -12.39,-76.84 -9.01,-76.56 -33.99,-75.47" fill="none" stroke="rgb(167, 133, 106)" stroke-width="2" stroke-linejoin="round" filter="url(#fuzzy)" /><polyline points="-51.09,-60.91 -32.4,-62.14 -7.57,-67.83 8.46,-69.09 19.6,-66.73 26.65,-64.47 27.99,-64.53 23.71,-66.66 16.73,-69.23 11.11,-70.64 9.38,-70.14 11.01,-68.11 12.94,-65.85 12.22,-64.63 8.96,-64.76 6.9,-65.04 9.46,-63.67 14.29,-60.07 19.05,-55.11 63.33,-42.4" fill="none" stroke="rgb(167, 133, 106)" stroke-width="2" stroke-linejoin="round" filter="url(#fuzzy)" /><polyline points="63.62,-41.91 18.45,-64.94 14.36,-72.89 16.2,-75.28 17.84,-76.04 18.57,-76.36 18.19,-76.15 17.27,-75.1 16.86,-73.36 17.55,-71.67 18.89,-70.92 19.78,-71.55 19.41,-73.28 17.87,-75.32 16.05,-76.85 15.1,-77.42 15.75,-77.09 17.63,-76.31 18.77,-75.72 16.46,-75.92 11.91,-77.47 28.15,-78.42" fill="none" stroke="rgb(167, 133, 106)" stroke-width="2" stroke-linejoin="round" filter="url(#fuzzy)" /><polyline points="61.92,-45.28 26.76,-68.01 1.53,-72.81 -10.54,-72.53 -11.34,-72.1 -7.47,-72.08 -3.93,-72.14 -2.04,-72.16 -0.69,-72.15 1.45,-72.09 4.63,-71.93 7.93,-71.69 10.14,-71.47 11.02,-71.35 11.59,-71.36 13.35,-71.43 17.07,-71.48 22.35,-71.26 28.36,-70.35 34.64,-68.33 40.58,-65.59 43.92,-64.3 41.85,-67.67 39.91,-71.76" fill="none" stroke="rgb(167, 133, 106)" stroke-width="2" stroke-linejoin="round" filter="url(#fuzzy)" /><polyline points="54.16,-57.3 43.78,-63.05 28.41,-65.67 16.55,-67.64 8.88,-69.94 3.95,-72.22 0.92,-73.83 -1.25,-74.35 -3.97,-73.79 -7.92,-72.51 -12.1,-71.01 -14.2,-69.75 -12.01,-69.09 -5.13,-69.21 4.46,-70.17 13.2,-71.87 17.9,-74 17.61,-76.05 13.75,-77.26 7.65,-76.81 -3.46,-73.8 -26.84,-67.06 -57.35,-53.34" fill="none" stroke="rgb(167, 133, 106)" stroke-width="2" stroke-linejoin="round" filter="url(#fuzzy)" /><polyline points="-11.42,-84.6 12.61,-70.09 5.89,-72.76 -0.15,-76.14 -3.95,-76.72 -6.75,-75.35 -7.63,-73.45 -5.52,-71.85 -0.99,-70.89 4.33,-70.7 9.21,-71.11 13.56,-71.66 17.83,-71.69 21.89,-70.79 24.72,-69.01 25.24,-66.99 23.59,-65.73 21.51,-66.49 21.59,-69.78 28.68,-71.94 50.7,-61.96" fill="none" stroke="rgb(167, 133, 106)" stroke-width="2" stroke-linejoin="round" filter="url(#fuzzy)" /><polyline points="54.16,-57.3 46.97,-64.31 43.05,-66.05 35.83,-67.37 23.1,-69.54 7.75,-71.56 -6.25,-72.73 -16.3,-73.28 -21.77,-73.77 -23.43,-74.46 -22.46,-75.2 -19.54,-75.55 -14.54,-75.08 -7.11,-73.54 2.26,-71 11.56,-67.98 17.76,-65.42 18.52,-64.2 14.39,-64.25 9.57,-64.3 9.47,-63.29 14.37,-63.57 11.6,-71.26 -18.46,-82.42" fill="none" stroke="rgb(167, 133, 106)" stroke-width="2" stroke-linejoin="round" filter="url(#fuzzy)" /><polyline points="-4.4,-85.39 -18.16,-81.34 -22.89,-78.62 -23.21,-75.94 -22.58,-73.19 -24,-70.54 -26.98,-68.57 -28.33,-67.8 -25.15,-68.33 -17.13,-69.86 -7.01,-71.88 0.77,-73.87 2.49,-75.27 -2.47,-75.44 -10.28,-73.74 -13.05,-69.73 -1.22,-63.45 30.28,-55.36 62.17,-44.68" fill="none" stroke="rgb(167, 133, 106)" stroke-width="2" stroke-linejoin="round" filter="url(#fuzzy)" /><polyline points="25.52,-80.32 5.26,-80.51 2.85,-74.71 1.39,-69.87 0.3,-68.14 2.01,-67.42 6.43,-65.41 12.24,-61.81 17.89,-58.18 21.43,-56.61 20.87,-58.21 15.67,-62.5 8.09,-67.74 2.59,-71.82 3.37,-73.12 11.65,-70.75 24.4,-64.57 34.02,-56.39 24.84,-53.84 -36.09,-74.14" fill="none" stroke="rgb(167, 133, 106)" stroke-width="2" stroke-linejoin="round" filter="url(#fuzzy)" /><polyline points="-8.55,-84.95 15.09,-73.45 27.71,-66.25 29.52,-66.28 26.76,-68.14 22.94,-69.63 19.62,-70.19 16.84,-69.76 13.98,-68.54 11.06,-66.8 9.23,-64.61 10,-61.88 13.78,-58.71 19.25,-55.62 23.96,-53.4 25.83,-52.65 24.12,-53.36 19.26,-55.07 11.95,-57.33 2.62,-60.1 -8.25,-63.59 -19.59,-67.49 -30.02,-70.32 -39.59,-69.1 -52.34,-59.77" fill="none" stroke="rgb(167, 133, 106)" stroke-width="2" stroke-linejoin="round" filter="url(#fuzzy)" /><polyline points="-22.43,-81.25 18.23,-66.38 9.77,-63.27 -8.48,-62.58 -18.87,-62.55 -20.75,-63.5 -19.6,-65.75 -19.58,-68.88 -21.39,-72.02 -23.63,-74.49 -24.87,-76 -24.7,-76.52 -23.25,-75.98 -19.72,-74.66 -11.81,-73.85 1.39,-75.64 12.38,-80.5 5.42,-85.22" fill="none" stroke="rgb(167, 133, 106)" stroke-width="2" stroke-linejoin="round" filter="url(#fuzzy)" /><polyline points="20.55,-82.15 0.06,-78.55 8.22,-75.89 14.16,-74.71 13.1,-75.35 9.32,-76.75 6.37,-77.87 5.02,-78.28 4.55,-78 4.17,-77.22 3.63,-76.17 3.23,-75.09 3.52,-74.11 5.04,-73.22 8,-72.28 12.03,-71.2 15.95,-70.27 17.95,-70.12 16.54,-71.16 12.51,-72.3 9.35,-70.84 4.82,-66.24 -40.15,-71.58" fill="none" stroke="rgb(167, 133, 106)" stroke-width="2" stroke-linejoin="round" filter="url(#fuzzy)" /><polyline points="63.33,-42.4 -10.38,-50.35 -22.4,-58.09 -11.65,-62.64 2.27,-63.62 12.56,-62.26 18.35,-60.29 21.08,-59.14 22.69,-59.41 24.25,-60.84 25.29,-62.85 24.28,-64.98 19.79,-67.06 11.55,-68.98 0.94,-70.53 -9.22,-71.49 -15.18,-71.95 -13.71,-72.31 -4.57,-72.96 7.03,-74.08 14.35,-75.79 35.59,-74.98" fill="none" stroke="rgb(167, 133, 106)" stroke-width="2" stroke-linejoin="round" filter="url(#fuzzy)" /><polyline points="-48.17,-64.28 -27.12,-72.56 -8.39,-77.74 -0.23,-79.27 1.25,-77.99 1.75,-75.48 4.2,-73.22 8.03,-72 11.37,-71.81 13.36,-72.14 14.8,-72.31 17.2,-71.78 21.37,-70.42 26.81,-68.53 31.98,-66.69 35.08,-65.59 34.71,-65.79 30.38,-67.45 22.8,-69.96 13.74,-72 5.17,-72.29 -2.07,-70.84 -7.03,-69.29 0.22,-68.32 50.7,-61.96" fill="none" stroke="rgb(167, 133, 106)" stroke-width="2" stroke-linejoin="round" filter="url(#fuzzy)" /><polyline points="53.66,-57.65 58.79,-48.66 53.03,-52.01 42.42,-59.89 34.33,-66.31 31.97,-68.68 33.83,-67.61 36.01,-65.24 34.87,-63.42 28.93,-62.8 19.29,-62.95 8.8,-63.08 0.25,-62.76 -5.33,-62.23 -8.99,-62.2 -12.53,-63.26 -16.57,-65.56 -20.02,-68.69 -21.57,-71.81 -21.09,-73.53 -16.81,-71.69 2.42,-62.99 64.47,-40.03" fill="none" stroke="rgb(167, 133, 106)" stroke-width="2" stroke-linejoin="round" filter="url(#fuzzy)" /><polyline points="-56.13,-54.9 -25.54,-54.42 1.83,-57.51 7.53,-64.01 3.86,-68.76 1.62,-70.14 3.37,-69.43 6.65,-68.58 8.85,-68.62 9.83,-69.27 11.74,-69.43 16.94,-68.01 25.88,-64.73 36.38,-60.54 44.94,-57.28 49.23,-56.36 49.81,-57.2 49.62,-56.99 52.51,-51.26 69.97,-25.32" fill="none" stroke="rgb(167, 133, 106)" stroke-width="2" stroke-linejoin="round" filter="url(#fuzzy)" /><polyline points="-1.69,-85.29 -16.93,-81.19 -19.99,-79.2 -14.88,-79.1 -7.64,-79.34 -0.65,-79.13 5.44,-78.58 9.93,-77.95 12.24,-77.15 12.76,-75.63 13.04,-72.91 14.9,-69.05 19.25,-64.87 25.44,-61.58 31.6,-60.14 35.89,-60.75 37.77,-62.68 38.23,-64.69 38.85,-65.78 40.42,-65.61 42.68,-64.27 44.86,-61.99 43.12,-62.19 20.55,-82.15" fill="none" stroke="rgb(167, 133, 106)" stroke-width="2" stroke-linejoin="round" filter="url(#fuzzy)" /><polyline points="-45.9,-66.41 -14.55,-74.55 5.56,-72.34 7.88,-70.7 -0.14,-72.1 -9.36,-74.85 -15.08,-77.1 -16.91,-78 -16.33,-77.53 -14.29,-76.27 -10.49,-75.14 -4.36,-74.87 3.5,-75.5 11.48,-76.16 19.34,-75.46 29.32,-72.43 41.63,-67.63 49.1,-63.39" fill="none" stroke="rgb(167, 133, 106)" stroke-width="2" stroke-linejoin="round" filter="url(#fuzzy)" /><polyline points="33.3,-75.82 11.61,-79.55 14.08,-76.88 16.08,-74.59 11.05,-74.51 3.34,-75.34 -1.9,-75.92 -3.68,-76.07 -4.52,-75.99 -7.22,-75.68 -12.01,-74.95 -15.96,-73.97 -14.99,-73.5 -7.14,-74.42 4.75,-76.87 14.24,-79.87 18.76,-81.49 28.83,-78.77" fill="none" stroke="rgb(167, 133, 106)" stroke-width="2" stroke-linejoin="round" filter="url(#fuzzy)" /><polyline points="63.33,-42.4 1.64,-59.65 -10.09,-66.69 -6.39,-66.04 1.09,-62.96 7.56,-60.66 10.47,-60.33 8.73,-61.77 2.92,-64.1 -4.95,-66.28 -12.15,-67.61 -16.07,-67.94 -15.15,-67.51 -9.67,-66.63 -1.85,-65.34 5.05,-63.49 8.48,-61.1 8.04,-58.89 5.37,-58.34 2.37,-60.87 -0.66,-66.66 -3.61,-74.6 11.42,-84.55" fill="none" stroke="rgb(167, 133, 106)" stroke-width="2" stroke-linejoin="round" filter="url(#fuzzy)" /><polyline points="36.78,-73.65 4.3,-79.46 -11.12,-80.38 -15.12,-80.48 -13.86,-80.19 -11.36,-79.21 -10.08,-77.31 -11.5,-74.47 -15.6,-70.95 -20.29,-67.04 -21.83,-62.95 -16.64,-58.7 -3.95,-54.43 12.25,-50.63 23.86,-48.55 23.28,-49.98 10.12,-55.82 -9.05,-62.27 -54.14,-57.43" fill="none" stroke="rgb(167, 133, 106)" stroke-width="2" stroke-linejoin="round" filter="url(#fuzzy)" /><polyline points="46.41,-66.01 29.57,-75.52 21.19,-76.76 18.91,-73.52 19.38,-69.46 20.26,-66.34 20.45,-64.65 20.09,-64.41 19.97,-65.22 20.42,-66.26 20.62,-66.71 19.09,-66.19 14.82,-64.97 8.32,-63.63 1.75,-62.54 -2,-61.76 -1.08,-61.74 2.94,-64 4.11,-70.21 -4.02,-78.09 -28.68,-78.65" fill="none" stroke="rgb(167, 133, 106)" stroke-width="2" stroke-linejoin="round" filter="url(#fuzzy)" /><polyline points="67.78,-31.84 20.03,-63.9 -2.74,-72.2 -5.41,-73.81 1.93,-74.8 10.19,-76.4 15.11,-78.3 16.49,-79.94 15.82,-80.82 14.72,-80.53 14.18,-78.82 14.46,-75.75 15.35,-71.92 16.83,-68.44 19.64,-66.44 24.66,-66.42 30.87,-68.21 34.09,-71.63 31.41,-76.24 30.87,-77.76" fill="none" stroke="rgb(167, 133, 106)" stroke-width="2" stroke-linejoin="round" filter="url(#fuzzy)" /><polyline points="-57.41,-53.13 2.51,-62.33 7.38,-69.02 -2.51,-69.1 -8.38,-65.82 -5.72,-62.03 2.5,-58.82 12.37,-56.43 21.79,-55 30.02,-54.71 36.5,-55.48 40.48,-57.1 41.09,-59.4 37.63,-62.46 29.94,-66.46 18.96,-71.12 7.26,-75.43 -1.15,-77.82 -1.93,-76.88 7.69,-72.55 25,-68.65 23.63,-80.93" fill="none" stroke="rgb(167, 133, 106)" stroke-width="2" stroke-linejoin="round" filter="url(#fuzzy)" /><polyline points="20.55,-82.15 -14.68,-75.26 -24.43,-69.25 -20.82,-63.35 -12.36,-58.07 -2.82,-55.59 6.7,-56.45 15.39,-59.32 21.8,-62.55 24.56,-65.3 23.41,-67.49 19.47,-69.32 14.49,-70.68 9.92,-70.96 6.66,-69.18 6.14,-64.62 12.83,-57.88 34.56,-51.49 60.69,-46.91" fill="none" stroke="rgb(167, 133, 106)" stroke-width="2" stroke-linejoin="round" filter="url(#fuzzy)" /><polyline points="-45.9,-66.41 -2.1,-75.05 15.19,-75.76 27.34,-70.37 34.41,-64.28 33.77,-61.54 26.79,-62.9 18.17,-66.7 12.39,-70.79 11.11,-73.75 12.98,-75.21 15.29,-75.39 15.93,-74.59 14.13,-72.97 9.92,-70.88 3.24,-69.2 -5.86,-69.1 -15.76,-71.14 -23.42,-74.29 -29.74,-75.38 -41.77,-69.98" fill="none" stroke="rgb(167, 133, 106)" stroke-width="2" stroke-linejoin="round" filter="url(#fuzzy)" /><polyline points="43.31,-68.79 30.91,-74.02 31.67,-71.57 30.98,-67.95 28.37,-64.91 25.82,-63.13 23.95,-62.57 21.94,-62.81 18.86,-63.55 14.81,-64.6 10.84,-65.78 8.18,-66.88 7.39,-67.79 8.04,-68.57 9.09,-69.42 9.46,-70.43 8.56,-71.44 6.65,-72.03 4.96,-71.74 5.35,-70.53 9.12,-69.1 15.27,-69.03 19.61,-71.96 17.61,-77.79 11.39,-83.1 13.97,-83.69" fill="none" stroke="rgb(167, 133, 106)" stroke-width="2" stroke-linejoin="round" filter="url(#fuzzy)" /><polyline points="6.99,-85.12 24.67,-76.91 26.93,-74.42 28.28,-70.85 31.53,-66.74 34.94,-64.38 36.02,-64.9 34.07,-67.7 30.12,-71.32 25.67,-74.52 21.45,-76.69 17.1,-77.79 11.47,-78.07 3.57,-78.04 -5.76,-78.32 -12.07,-79.21 -6.67,-80.02 24.32,-80.54" fill="none" stroke="rgb(167, 133, 106)" stroke-width="2" stroke-linejoin="round" filter="url(#fuzzy)" /><polyline points="39.91,-71.76 16,-70.48 -8.54,-69.71 -21.14,-70.37 -22.92,-70.76 -15.45,-70.06 -1.62,-68.07 13.99,-65.07 26.74,-61.84 33.49,-59.29 33.3,-58.04 27.24,-58.26 17.78,-59.75 7.98,-62.2 0.35,-65.36 -4.21,-68.96 -6.24,-72.41 -5.29,-74.78 2.18,-75.53 16.82,-76.07 14.28,-83.79" fill="none" stroke="rgb(167, 133, 106)" stroke-width="2" stroke-linejoin="round" filter="url(#fuzzy)" /><polyline points="0.65,-85.61 -2.38,-85.34 -4.92,-85.13 -7.55,-84.87 -10.23,-84.55 -12.87,-84.15 -15.45,-83.68 -18.02,-83.12 -20.64,-82.5 -23.38,-81.83 -26.23,-81.1 -29.14,-80.31 -32.03,-79.46 -34.81,-78.54 -37.49,-77.54 -40.12,-76.48 -42.77,-75.34 -45.5,-74.14 -48.33,-72.86 -51.25,-71.53 -54.21,-70.12 -57.19,-68.64 -60.23,-67.09 -63.41,-65.47 -66.83,-63.79 -70.5,-62.09 -74.31,-60.41 -78.05,-58.72 -81.69,-56.95 -85.42,-54.95 -89.42,-52.53 -93.84,-49.46" fill="none" stroke="rgb(167, 133, 106)" stroke-width="2" stroke-linejoin="round" filter="url(#fuzzy)" /><polyline points="71.7,-15.56 71.85,-18.25 73.22,-20.96 74.63,-23.5 75.24,-25.86 74.97,-28.08 74.09,-30.23 72.87,-32.38 71.56,-34.56 70.4,-36.77 69.59,-38.98 69.17,-41.18 69.04,-43.36 68.94,-45.51 68.6,-47.64 67.84,-49.75 66.61,-51.83 65.07,-53.88 63.42,-55.89 61.88,-57.84 60.51,-59.74 59.21,-61.59 57.84,-63.4 56.44,-65.22 55.28,-67 54.32,-68.79" fill="none" stroke="rgb(167, 133, 106)" stroke-width="2" stroke-linejoin="round" filter="url(#fuzzy)" /><polyline points="-18.46,-82.42 -20.67,-81.72 -22.8,-81.04 -25.13,-80.25 -27.69,-79.36 -30.51,-78.4 -33.46,-77.36 -36.33,-76.26 -38.92,-75.07 -41.22,-73.82 -43.4,-72.5 -45.68,-71.12 -48.19,-69.67 -50.92,-68.16 -53.75,-66.57 -56.56,-64.93 -59.28,-63.24 -61.97,-61.51 -64.71,-59.73 -67.66,-57.88 -70.89,-55.95 -74.43,-53.93 -78.26,-51.81 -82.26,-49.6 -86.27,-47.33 -90.05,-45 -93.43,-42.64 -96.31,-40.25 -98.76,-37.86 -101.02,-35.52 -103.48,-33.27 -106.55,-31.13 -110.15,-29.06 -112.49,-26.61" fill="none" stroke="rgb(167, 133, 106)" stroke-width="2" stroke-linejoin="round" filter="url(#fuzzy)" /><polyline points="-21.78,-81.69 -23.21,-81.14 -25.32,-80.2 -27.71,-79.13 -30.42,-78.01 -33.62,-76.85 -37.31,-75.66 -41.26,-74.42 -45.11,-73.12 -48.56,-71.76 -51.46,-70.34 -53.84,-68.85 -55.9,-67.28 -57.94,-65.64 -60.26,-63.91 -63.09,-62.12 -66.47,-60.26 -70.25,-58.36 -74.19,-56.44 -78.06,-54.51 -81.73,-52.61 -85.26,-50.72 -88.78,-48.77 -92.38,-46.62 -96.01,-44.12 -99.66,-41.46 -104.33,-39.73" fill="none" stroke="rgb(167, 133, 106)" stroke-width="2" stroke-linejoin="round" filter="url(#fuzzy)" /><polyline points="71.6,-16.37 70.24,-18.32 69.72,-20.78 69.01,-23.38 67.8,-25.94 66.13,-28.45 64.17,-30.93 62.08,-33.41 59.94,-35.83 57.77,-38.18 55.62,-40.44 53.52,-42.62 51.47,-44.75 49.45,-46.87 47.39,-48.97 45.21,-51.04 42.89,-53.04 40.42,-54.96 37.82,-56.79 35.16,-58.57 32.47,-60.32 29.75,-62.09 27.02,-63.87 24.32,-65.65 21.86,-67.38 19.88,-69.05 18.38,-70.63 16.8,-72.09 14.95,-73.65" fill="none" stroke="rgb(167, 133, 106)" stroke-width="2" stroke-linejoin="round" filter="url(#fuzzy)" /><polyline points="-24.84,-80.55 -27.67,-79.03 -29.77,-77.9 -31.77,-76.74 -33.73,-75.53 -35.66,-74.26 -37.56,-72.93 -39.44,-71.54 -41.27,-70.07 -43.07,-68.54 -44.84,-66.92 -46.59,-65.23 -48.32,-63.46 -50.02,-61.63 -51.69,-59.75 -53.29,-57.84 -54.82,-55.89 -56.26,-53.92 -57.63,-51.91 -58.93,-49.86 -60.17,-47.76 -61.36,-45.59 -62.52,-43.38 -63.63,-41.12 -64.69,-38.82 -65.69,-36.5 -66.64,-34.15 -67.53,-31.75 -68.36,-29.3 -69.14,-26.8 -69.86,-24.27 -70.51,-21.71 -71.08,-19.13 -71.58,-16.55 -71.99,-14 -72.33,-11.44 -72.63,-8.56 -73.01,-4.66" fill="none" stroke="rgb(167, 133, 106)" stroke-width="2" stroke-linejoin="round" filter="url(#fuzzy)" /><polyline points="-37.16,-73.27 -47.71,-71.55 -48.84,-69.99 -50.43,-68.49 -53.61,-66.92 -57.11,-65.23 -60.3,-63.45 -63.53,-61.6 -67.43,-59.7 -72.28,-57.78 -77.95,-55.85 -84.16,-53.92 -90.58,-51.97 -96.79,-49.98 -102.33,-47.92 -106.86,-45.77 -110.45,-43.54 -113.59,-41.28 -116.88,-39.03 -120.64,-36.79 -124.99,-34.52 -130.28,-32.17 -137.34,-29.68 -146.22,-27.13 -154.16,-24.7 -157.2,-22.79" fill="none" stroke="rgb(167, 133, 106)" stroke-width="2" stroke-linejoin="round" filter="url(#fuzzy)" /><polyline points="-59.37,-49.68 -70.01,-47.7 -78.33,-44.93 -83.8,-42.3 -85.32,-39.93 -84.29,-37.69 -82.64,-35.44 -81.52,-33.11 -81.28,-30.69 -81.95,-28.22 -83.52,-25.7 -85.98,-23.17 -89.25,-20.63 -93.12,-18.09 -97.34,-15.56 -101.69,-13.05 -105.97,-10.55 -110.02,-8.07 -113.66,-5.57 -116.79,-3.04 -119.47,-0.46 -122.03,2.17 -124.91,4.85 -128.34,7.53 -131.98,10.19 -134.89,12.81 -136.3,15.36 -137.18,17.63 -139.88,19.22" fill="none" stroke="rgb(167, 133, 106)" stroke-width="2" stroke-linejoin="round" filter="url(#fuzzy)" /><polyline points="-60.11,-48.82 -61.59,-45.96 -63.39,-43.47 -66.63,-41.02 -71.27,-38.61 -75.97,-36.26 -79.36,-33.99 -81.06,-31.76 -81.68,-29.52 -82.25,-27.23 -83.55,-24.88 -85.85,-22.45 -88.97,-19.96 -92.47,-17.43 -95.87,-14.89 -98.84,-12.34 -101.23,-9.79 -103.07,-7.24 -104.57,-4.66 -106.03,-2.06 -107.69,0.6 -109.64,3.33 -111.77,6.14 -113.82,9 -115.54,11.84 -116.75,14.59 -117.33,17.23 -117.58,19.75 -118.99,21.73" fill="none" stroke="rgb(167, 133, 106)" stroke-width="2" stroke-linejoin="round" filter="url(#fuzzy)" /><polyline points="-64.63,-39.73 -65.97,-37.66 -68.19,-35.37 -71.76,-32.98 -76.51,-30.48 -81.67,-27.95 -86.34,-25.41 -89.87,-22.88 -92.21,-20.35 -93.8,-17.81 -95.25,-15.29 -97.05,-12.79 -99.39,-10.31 -102.23,-7.84 -105.43,-5.36 -108.86,-2.84 -112.44,-0.26 -116.17,2.36 -120.09,5.03 -124.3,7.69 -128.91,10.32 -134.04,12.91 -139.48,15.43 -144.25,17.83 -146.13,20.2 -142.72,23.17" fill="none" stroke="rgb(167, 133, 106)" stroke-width="2" stroke-linejoin="round" filter="url(#fuzzy)" /><polyline points="-65.62,-37.91 -66.48,-35.33 -67.42,-32.94 -68.49,-30.44 -69.77,-27.89 -71.25,-25.35 -72.76,-22.83 -74.17,-20.31 -75.41,-17.78 -76.52,-15.26 -77.53,-12.77 -78.42,-10.3 -79.11,-7.85 -79.56,-5.38 -79.8,-2.88 -79.95,-0.31 -80.12,2.31 -80.43,4.98 -80.99,7.64 -81.84,10.27 -82.82,12.87 -83.54,15.4 -83.7,17.65 -84.16,19.22" fill="none" stroke="rgb(167, 133, 106)" stroke-width="2" stroke-linejoin="round" filter="url(#fuzzy)" /><polyline points="-66.13,-35.74 -67.54,-33.47 -68.61,-31.31 -69.47,-29.15 -70.43,-26.87 -71.68,-24.47 -73.25,-21.98 -75.07,-19.43 -76.92,-16.86 -78.64,-14.29 -80.14,-11.73 -81.42,-9.15 -82.53,-6.57 -83.55,-3.95 -84.55,-1.3 -85.59,1.4 -86.66,4.13 -87.77,6.88 -88.9,9.62 -90.01,12.3 -91.04,14.89 -91.93,17.37 -92.57,19.77 -92.91,22.12 -92.92,24.46 -92.6,26.84 -91.94,29.25 -90.95,31.7 -89.75,34.17 -88.6,36.67 -87.91,39.18 -87.98,41.6 -88.77,43.68 -89.05,45.16" fill="none" stroke="rgb(167, 133, 106)" stroke-width="2" stroke-linejoin="round" filter="url(#fuzzy)" /><polyline points="-66.53,-34.7 -66.64,-32.84 -67.36,-30.29 -67.91,-27.67 -68.22,-25.09 -68.35,-22.54 -68.32,-19.98 -68.22,-17.43 -68.1,-14.88 -67.99,-12.36 -67.84,-9.85 -67.57,-7.34 -67.08,-4.81 -66.35,-2.24 -65.45,0.36 -64.45,3 -63.45,5.65 -62.49,8.29 -61.58,10.91 -60.7,13.5 -59.84,16.05 -59,18.56 -58.17,21.03 -57.33,23.48 -56.44,25.91 -55.49,28.34 -54.44,30.79 -53.22,33.28 -51.77,35.78 -50.09,38.24 -48.34,40.56 -46.76,42.68 -45.56,44.66 -44.84,46.89" fill="none" stroke="rgb(167, 133, 106)" stroke-width="2" stroke-linejoin="round" filter="url(#fuzzy)" /><polyline points="65.02,-39.34 66.65,-41.92 67.76,-44.3 66.59,-46.47 64.52,-48.57 62.53,-50.66 60.85,-52.72 59.35,-54.74 57.91,-56.71 56.53,-58.63 55.27,-60.5 54.17,-62.31 53.16,-64.08 52.14,-65.79 51.01,-67.43 49.79,-69 48.54,-70.48 47.4,-71.86 46.42,-73.14 45.52,-74.34 44.48,-75.47 42.98,-76.58 40.84,-77.7 38.17,-78.85 35.42,-80 32.98,-81.09 30.22,-82.15" fill="none" stroke="rgb(167, 133, 106)" stroke-width="2" stroke-linejoin="round" filter="url(#fuzzy)" /><polyline points="60.05,-48.62 57.19,-50.29 55.6,-52.36 54.05,-54.31 52.56,-56.08 51.08,-57.76 49.43,-59.46 47.52,-61.19 45.37,-62.95 43.07,-64.71 40.7,-66.43 38.3,-68.09 35.94,-69.7 33.67,-71.23 31.56,-72.7 29.63,-74.1 27.84,-75.41 26.14,-76.64 24.43,-77.76 22.68,-78.78 20.87,-79.71 19.03,-80.54 17.18,-81.29 15.36,-81.98 13.62,-82.63 11.96,-83.22 10.35,-83.76 8.73,-84.24 6.99,-84.66 5.17,-84.99 3.73,-85.22" fill="none" stroke="rgb(167, 133, 106)" stroke-width="2" stroke-linejoin="round" filter="url(#fuzzy)" /><polyline points="53.66,-57.65 54.04,-58.11 53.58,-59.56 52.86,-61.36 51.62,-63.22 49.92,-65.03 48.06,-66.77 46.24,-68.43 44.49,-70.02 42.72,-71.54 40.83,-72.99 38.82,-74.36 36.72,-75.64 34.59,-76.83 32.49,-77.92 30.44,-78.91 28.41,-79.81 26.37,-80.62 24.27,-81.36 22.1,-82.04 19.86,-82.65 17.57,-83.21 15.23,-83.7 12.8,-84.12 10.28,-84.48 7.65,-84.76 4.91,-84.96 2.08,-85.08 -0.83,-85.11 -3.78,-85.07 -6.78,-84.95 -9.8,-84.75 -12.85,-84.48 -15.91,-84.13 -18.99,-83.67 -22.04,-83.1 -25.03,-82.42" fill="none" stroke="rgb(167, 133, 106)" stroke-width="2" stroke-linejoin="round" filter="url(#fuzzy)" /><polyline points="54.16,-57.3 54.46,-59.26 53.95,-61.32 52.13,-63.27 49.87,-65.11 47.57,-66.84 45.34,-68.5 43.21,-70.09 41.16,-71.6 39.15,-73.05 37.17,-74.41 35.18,-75.69 33.19,-76.88 31.18,-77.96 29.16,-78.95 27.12,-79.84 25.07,-80.65 23.01,-81.38 20.93,-82.05 18.82,-82.67 16.66,-83.22 14.43,-83.7 12.11,-84.13 9.68,-84.47 7.14,-84.75 4.49,-84.94 1.77,-85.06 -1.02,-85.09 -3.86,-85.04 -6.74,-84.92 -9.64,-84.71 -12.58,-84.43 -15.53,-84.07 -18.51,-83.6 -21.5,-83.03 -24.47,-82.34 -27.39,-81.54" fill="none" stroke="rgb(167, 133, 106)" stroke-width="2" stroke-linejoin="round" filter="url(#fuzzy)" /><polyline points="53.12,-58.8 55.56,-61.28 56.72,-63.07 54.42,-64.84 51.08,-66.56 48.02,-68.19 45.5,-69.71 43.4,-71.12 41.61,-72.44 40.04,-73.68 38.6,-74.86 37.18,-75.99 35.65,-77.09 33.92,-78.15 31.94,-79.17 29.74,-80.11 27.37,-80.98 24.87,-81.76 22.28,-82.46 19.62,-83.07 16.9,-83.6 14.15,-84.06 11.39,-84.43 8.62,-84.73 5.82,-84.95 2.97,-85.09 0.03,-85.15 -3.06,-85.13 -6.3,-85.04 -9.67,-84.87 -13.15,-84.62 -16.69,-84.31 -20.27,-83.93 -23.91,-83.47 -27.59,-82.95 -31.26,-82.38 -34.65,-81.82 -36.75,-81.4" fill="none" stroke="rgb(167, 133, 106)" stroke-width="2" stroke-linejoin="round" filter="url(#fuzzy)" /><polyline points="46.41,-66.01 45.62,-67.07 45.45,-68.48 45.02,-69.92 44.01,-71.29 42.51,-72.58 40.76,-73.78 38.99,-74.92 37.34,-76.02 35.82,-77.1 34.31,-78.17 32.68,-79.2 30.8,-80.17 28.61,-81.05 26.11,-81.83 23.34,-82.52 20.41,-83.14 17.44,-83.68 14.54,-84.15 11.75,-84.55 9.08,-84.87 6.48,-85.11 3.85,-85.27 1.12,-85.36 -1.79,-85.38 -4.95,-85.32 -8.96,-85.16" fill="none" stroke="rgb(167, 133, 106)" stroke-width="2" stroke-linejoin="round" filter="url(#fuzzy)" /><polyline points="38.03,-72.61 37.05,-74.25 37.32,-75.25 36.62,-76.23 34.72,-77.31 32.17,-78.4 29.47,-79.46 26.85,-80.42 24.33,-81.26 21.9,-82.01 19.53,-82.66 17.21,-83.24 14.94,-83.75 12.67,-84.19 10.38,-84.56 8.01,-84.84 5.54,-85.05 2.96,-85.19 0.27,-85.24 -2.56,-85.22 -5.5,-85.13 -8.55,-84.96 -11.65,-84.72 -14.77,-84.42 -17.96,-84.07 -21.43,-83.62 -25.09,-82.96" fill="none" stroke="rgb(167, 133, 106)" stroke-width="2" stroke-linejoin="round" filter="url(#fuzzy)" /><polyline points="33.28,-76.23 30.81,-77.63 28.85,-78.66 27.07,-79.53 25.43,-80.3 23.9,-81.01 22.38,-81.68 20.74,-82.31 18.91,-82.89 16.87,-83.42 14.64,-83.89 12.26,-84.29 9.74,-84.61 7.12,-84.86 4.42,-85.04 1.68,-85.13 -1.09,-85.15 -3.88,-85.09 -6.68,-84.95 -9.51,-84.75 -12.38,-84.47 -15.3,-84.12 -18.26,-83.66 -21.13,-83.09 -23.7,-82.42" fill="none" stroke="rgb(167, 133, 106)" stroke-width="2" stroke-linejoin="round" filter="url(#fuzzy)" /><polyline points="20.55,-82.15 19.94,-82.49 18.15,-82.98 16.28,-83.53 14.38,-84.02 12.29,-84.43 9.94,-84.74 7.36,-84.96 4.62,-85.11 1.74,-85.18 -1.21,-85.17 -4.19,-85.09 -7.14,-84.93 -10.05,-84.69 -12.93,-84.39 -15.86,-84.02 -18.95,-83.59 -22.31,-83.08 -26.02,-82.5 -30.11,-81.85 -34.51,-81.11 -39.1,-80.29 -43.74,-79.38 -48.32,-78.39 -52.82,-77.32 -57.27,-76.18 -61.77,-74.99 -66.39,-73.73 -71.14,-72.41 -75.94,-71.04 -80.61,-69.61 -85.08,-68.12 -89.47,-66.54 -94.23,-64.85 -100.16,-63.06 -108.88,-60.91" fill="none" stroke="rgb(167, 133, 106)" stroke-width="2" stroke-linejoin="round" filter="url(#fuzzy)" /><polyline points="17.99,-82.64 16.63,-83.21 14.81,-83.72 12.67,-84.15 10.32,-84.51 7.87,-84.79 5.38,-84.98 2.89,-85.09 0.4,-85.13 -2.07,-85.08 -4.52,-84.95 -6.96,-84.74 -9.38,-84.46 -11.81,-84.1 -14.26,-83.66 -16.74,-83.15 -19.24,-82.57 -21.77,-81.93 -24.31,-81.23 -26.83,-80.46 -29.33,-79.64 -31.8,-78.75 -34.28,-77.78 -36.79,-76.75 -39.39,-75.64 -42.1,-74.46 -44.92,-73.21 -47.76,-71.9 -50.49,-70.54 -53.02,-69.13 -55.34,-67.65 -57.71,-66 -60.53,-64.09 -63.77,-61.91" fill="none" stroke="rgb(167, 133, 106)" stroke-width="2" stroke-linejoin="round" filter="url(#fuzzy)" /><polyline points="15.79,-83.28 14.31,-83.77 12.54,-84.2 10.48,-84.56 8.18,-84.83 5.7,-85.01 3.06,-85.12 0.26,-85.14 -2.68,-85.08 -5.71,-84.95 -8.75,-84.73 -11.69,-84.43 -14.5,-84.06 -17.19,-83.61 -19.88,-83.09 -22.73,-82.5 -25.91,-81.84 -29.51,-81.13 -33.56,-80.35 -37.96,-79.5 -42.58,-78.59 -47.23,-77.61 -51.72,-76.56 -55.93,-75.43 -59.8,-74.24 -63.34,-72.97 -66.67,-71.64 -69.97,-70.24 -73.46,-68.77 -77.29,-67.21 -81.45,-65.59 -85.74,-63.9 -89.8,-62.19 -93.34,-60.52 -96.5,-58.88 -100.04,-57.19 -104.94,-55.3 -110.95,-53.13" fill="none" stroke="rgb(167, 133, 106)" stroke-width="2" stroke-linejoin="round" filter="url(#fuzzy)" /><polyline points="5.52,-85.01 3.73,-85.31 1.52,-85.39 -0.84,-85.36 -3.36,-85.24 -6.11,-85.05 -9.13,-84.79 -12.33,-84.46 -15.54,-84.07 -18.65,-83.62 -21.71,-83.11 -24.9,-82.52 -28.45,-81.87 -32.49,-81.13 -36.96,-80.3 -41.56,-79.38 -45.91,-78.38 -49.73,-77.3 -52.96,-76.16 -55.85,-74.97 -58.86,-73.72 -62.44,-72.41 -66.74,-71.05 -71.44,-69.64 -75.99,-68.17 -80.4,-66.61 -85.58,-64.96 -91.46,-63.65" fill="none" stroke="rgb(167, 133, 106)" stroke-width="2" stroke-linejoin="round" filter="url(#fuzzy)" />
    </g>
    
        <g id="pointNose">
          <g id="rightNose"><circle r="1.976" cx="6.888" cy="23.348000000000003" stroke="black" fill="none" stroke-width="1.0" filter="url(#fuzzy)" /><circle r="1.528" cx="7.172000000000001" cy="19.928" stroke="black" fill="none" stroke-width="1.0" filter="url(#fuzzy)" /><circle r="2.544" cx="7.532" cy="23.704" stroke="black" fill="none" stroke-width="1.0" filter="url(#fuzzy)" /><circle r="1.1320000000000001" cx="6.619999999999999" cy="20.612000000000002" stroke="black" fill="none" stroke-width="1.0" filter="url(#fuzzy)" /><circle r="1.9300000000000002" cx="6.76" cy="22.896" stroke="black" fill="none" stroke-width="1.0" filter="url(#fuzzy)" /><circle r="1.436" cx="6.984" cy="21.016000000000002" stroke="black" fill="none" stroke-width="1.0" filter="url(#fuzzy)" /><circle r="2.1020000000000003" cx="10.032" cy="22.220000000000002" stroke="black" fill="none" stroke-width="1.0" filter="url(#fuzzy)" /><circle r="1.278" cx="8.056" cy="21.604000000000003" stroke="black" fill="none" stroke-width="1.0" filter="url(#fuzzy)" /><circle r="1.012" cx="9.048" cy="20.304000000000002" stroke="black" fill="none" stroke-width="1.0" filter="url(#fuzzy)" /><circle r="2.3520000000000003" cx="7.404" cy="23.548000000000002" stroke="black" fill="none" stroke-width="1.0" filter="url(#fuzzy)" /></g>
          <g id="leftNose"><circle r="2.6559999999999997" cx="-8.93" cy="29.868000000000002" stroke="black" fill="none" stroke-width="1.0" filter="url(#fuzzy)" /><circle r="1.6400000000000001" cx="-10.33" cy="29.516000000000002" stroke="black" fill="none" stroke-width="1.0" filter="url(#fuzzy)" /><circle r="1.71" cx="-9.838000000000001" cy="28.604000000000003" stroke="black" fill="none" stroke-width="1.0" filter="url(#fuzzy)" /><circle r="1.946" cx="-9.026" cy="31.86" stroke="black" fill="none" stroke-width="1.0" filter="url(#fuzzy)" /><circle r="2.7800000000000002" cx="-10.054" cy="32.160000000000004" stroke="black" fill="none" stroke-width="1.0" filter="url(#fuzzy)" /><circle r="1.1400000000000001" cx="-10.262" cy="31.728" stroke="black" fill="none" stroke-width="1.0" filter="url(#fuzzy)" /><circle r="1.88" cx="-7.901999999999999" cy="28.864" stroke="black" fill="none" stroke-width="1.0" filter="url(#fuzzy)" /><circle r="2.508" cx="-9.161999999999999" cy="29.668" stroke="black" fill="none" stroke-width="1.0" filter="url(#fuzzy)" /><circle r="1.31" cx="-10.154" cy="28.728" stroke="black" fill="none" stroke-width="1.0" filter="url(#fuzzy)" /><circle r="1.24" cx="-10.486" cy="32.036" stroke="black" fill="none" stroke-width="1.0" filter="url(#fuzzy)" /></g>
        </g>
      
    <g id="mouth">
      <polyline points="31.97,47.41 32.02,46.34 31.92,46.76 31.54,48.41 31.63,48.56 31.84,48.18 31.74,48.61 31.31,49.15 30.67,50.61 30.81,49.97 29.66,51.51 29.61,51.66 29.17,52.16 29.96,51.45 29.24,51.95 28.18,52.92 27.31,53.61 26.59,54.18 27.72,53.43 26.86,53.88 25.74,54.53 25.01,55.06 24.7,55.17 22.93,55.93 23.86,55.58 22.22,56.21 21.63,56.39 21.39,56.58 19.96,57.06 20.24,56.91 18.86,57.36 16.95,57.83 17.57,57.64 15.8,58.07 16.67,57.92 16.21,57.98 13.39,58.55 14.05,58.41 12.29,58.68 11.31,58.83 10.53,58.9 10.14,58.93 8.61,59.09 6.56,59.19 5.75,59.23 4.66,59.25 6.63,59.2 3.18,59.25 4.26,59.24 2.32,59.23 1.06,59.19 0.39,59.16 -1.73,59 -0.8,59.08 -1.97,58.99 -2.06,58.97 -4.01,58.77 -6.42,58.43 -7.51,58.23 -8.07,58.12 -7.47,58.26 -10.33,57.67 -9.56,57.8 -11.84,57.26 -12.65,57.03 -13.13,56.94 -14.26,56.54 -14.68,56.44 -14.56,56.5 -16.47,55.8 -17.44,55.42 -16.26,55.87 -17.6,55.3 -18.91,54.78 -17.89,55.17 -20.34,54.02 -21.22,53.57 -20.84,53.77 -21.81,53.2 -22.3,52.84 -22.47,52.82 -22.85,52.46 -24.26,51.47 -25.01,50.82 -24.28,51.55 -25.88,50.01 -25.23,50.64 -25.77,49.98 -26.41,49.18 -26.12,49.68 -26.72,49 -27.07,48.18 -27.36,47.63 -27.26,47.88 -28.03,46.49 -28.15,46.33 -28.29,45.76 -28.2,45.61 -28.26,45.72 -28.37,44.88 -28.24,44.04 -28.35,43.47 -28.26,44.14 -28.11,42.89 -27.93,42.2 -27.72,41.92 -27.28,41.12 -27.2,40.7 -27.57,41.33 -27.22,40.93 -27.01,40.39 -26.6,40 -26.07,39.23 -25.31,38.74 -25.88,39.2 -25.4,38.83 -24.56,37.98 -23.87,37.52 -23.92,37.62 -22.42,36.62 -22.58,36.71 -21.11,35.88 -21.6,36.17 -19.99,35.38 -18.5,34.74 -19.25,34.99 -19.47,35.06 -18.08,34.63 -16.61,34.05 -15.14,33.61 -15.52,33.74 -14.36,33.46 -14.12,33.39 -11.59,32.79 -11.11,32.74 -13.12,33.11 -10.43,32.57 -9.55,32.44 -7.37,32.18 -6.47,32.08 -5.52,32 -6.89,32.13 -6.34,32.07 -2.72,31.83 -4.51,31.92 -1,31.8 -3.04,31.83 0.99,31.8 0.23,31.79 0.64,31.8 3.69,31.9 4.31,31.94 4.68,31.97 6.58,32.13 7.17,32.2 8.38,32.35 6.68,32.14 8.74,32.4 10.37,32.62 11.48,32.83 13.13,33.17 13.92,33.36 15.17,33.64 14.92,33.58 16.69,34.02 14.92,33.6 15.89,33.82 18.85,34.7 19.18,34.79 20.36,35.25 21.1,35.54 21.57,35.74 21.37,35.66 21.67,35.77 23.1,36.38 23.73,36.71 23.29,36.51 26.04,37.95 26.04,37.97 26.4,38.21 26.6,38.46 27.82,39.32 27.62,39.21 28.31,39.6 28.83,40.12 28.78,40.01 30.05,41.57 29.29,40.55 30.8,42.41 30.37,41.89 30.95,42.58 31.15,42.87 31.25,43.56 31.07,43.04 31.5,44 31.8,44.98 31.86,45.68 32.01,45.44 32,46 31.98,46.84" fill="rgb(215,127,140)" stroke="black" stroke-width="3" stroke-linejoin="round" filter="url(#fuzzy)" />
    </g>
  </svg>
  