
  <svg viewBox="-100 -100 200 200" xmlns="http://www.w3.org/2000/svg" width="500" height="500" id="face-svg">
    <defs>
      <clipPath id="leftEyeClipPath">
        <polyline points="30.57,4.17 30.11,3.67 29.63,3.16 29.12,2.65 28.6,2.12 28.05,1.6 27.48,1.07 26.89,0.54 26.29,0.02 25.67,-0.5 25.03,-1.01 24.38,-1.52 23.71,-2.01 23.04,-2.49 22.35,-2.96 21.64,-3.41 20.84,-4.11 20.03,-4.78 19.2,-5.42 18.35,-6.02 17.5,-6.58 16.63,-7.1 15.76,-7.59 14.88,-8.03 13.99,-8.43 13.09,-8.78 12.19,-9.1 11.29,-9.36 10.39,-9.59 9.48,-9.77 8.57,-9.91 7.67,-10.01 6.77,-10.07 5.87,-10.08 4.97,-10.06 4.08,-10 3.2,-9.9 2.33,-9.76 1.46,-9.59 0.6,-9.39 -0.24,-9.15 -1.08,-8.89 -1.9,-8.59 -2.71,-8.27 -3.5,-7.93 -4.28,-7.56 -5.05,-7.17 -5.8,-6.75 -6.53,-6.32 -7.24,-5.87 -7.93,-5.41 -8.61,-4.93 -9.27,-4.44 -9.9,-3.94 -10.52,-3.43 -11.11,-2.91 -11.69,-2.38 -12.24,-1.85 -12.77,-1.32 -13.29,-0.78 -13.77,-0.24 -14.24,0.29 -14.69,0.83 -15.11,1.37 -15.51,1.91 -15.89,2.44 -16.26,2.97 -16.6,3.5 -16.92,4.04 -17.22,4.56 -17.5,5.09 -17.76,5.62 -18.01,6.14 -18.23,6.66 -18.43,7.18 -18.61,7.7 -18.78,8.21 -18.92,8.72 -19.04,9.23 -19.14,9.73 -22.44,14.97 -22.05,15.06 -21.64,15.15 -21.23,15.22 -20.8,15.29 -20.37,15.34 -19.92,15.39 -19.46,15.42 -19,15.45 -18.52,15.46 -18.04,15.46 -17.54,15.45 -17.03,15.43 -16.52,15.39 -16,15.34 -15.46,15.27 -14.92,15.2 -14.36,15.11 -13.79,15 -13.21,14.88 -12.62,14.75 -12.02,14.6 -11.41,14.43 -10.79,14.24 -10.16,14.04 -9.52,13.81 -8.87,13.57 -8.22,13.31 -7.55,13.04 -6.88,12.74 -6.2,12.44 -5.51,12.11 -4.82,11.78 -4.11,11.43 -3.4,11.07 -2.69,10.7 -1.96,10.32 -1.23,9.93 -0.5,9.54 0.24,9.15 0.99,8.76 1.75,8.38 2.51,7.99 3.27,7.62 4.04,7.25 4.82,6.9 5.61,6.56 6.39,6.23 7.19,5.93 7.99,5.65 8.79,5.4 9.6,5.17 10.42,4.97 11.24,4.8 12.06,4.67 12.89,4.58 13.72,4.52 14.56,4.5 15.39,4.53 16.23,4.59 17.07,4.7 17.91,4.85 18.76,5.05 19.6,5.28 20.43,5.57 21.12,5.63 21.8,5.7 22.47,5.8 23.14,5.91 23.8,6.04 24.44,6.18 25.08,6.34 25.71,6.51 26.32,6.69 26.92,6.88 27.51,7.08 28.07,7.28 28.62,7.49 29.15,7.7 29.66,7.91" />
      </clipPath>
      <clipPath id="rightEyeClipPath">
        <polyline points="-33.01,6.02 -32.68,5.58 -32.33,5.13 -31.95,4.67 -31.55,4.21 -31.13,3.74 -30.69,3.27 -30.23,2.8 -29.74,2.34 -29.24,1.88 -28.72,1.43 -28.19,0.98 -27.63,0.55 -27.06,0.13 -26.48,-0.28 -25.88,-0.67 -25.22,-1.31 -24.54,-1.92 -23.84,-2.49 -23.12,-3.03 -22.38,-3.52 -21.63,-3.98 -20.86,-4.4 -20.07,-4.77 -19.26,-5.1 -18.44,-5.39 -17.61,-5.64 -16.77,-5.84 -15.91,-6 -15.05,-6.12 -14.18,-6.2 -13.3,-6.24 -12.41,-6.24 -11.52,-6.2 -10.63,-6.13 -9.73,-6.02 -8.83,-5.88 -7.93,-5.7 -7.04,-5.5 -6.14,-5.26 -5.25,-5 -4.36,-4.71 -3.48,-4.4 -2.6,-4.07 -1.73,-3.71 -0.87,-3.34 -0.02,-2.95 0.82,-2.55 1.65,-2.13 2.47,-1.7 3.27,-1.26 4.06,-0.81 4.84,-0.36 5.6,0.1 6.35,0.57 7.07,1.04 7.78,1.51 8.48,1.98 9.15,2.45 9.81,2.91 10.45,3.38 11.07,3.84 11.67,4.3 12.26,4.76 12.82,5.2 13.37,5.65 13.89,6.09 14.4,6.52 14.9,6.95 15.38,7.38 15.84,7.8 16.28,8.21 16.71,8.63 17.11,9.03 17.51,9.43 17.88,9.82 18.24,10.21 18.58,10.59 18.9,10.97 19.21,11.34 22.13,15.87 21.82,15.88 21.52,15.87 21.2,15.85 20.87,15.82 20.54,15.78 20.2,15.73 19.85,15.66 19.5,15.58 19.14,15.48 18.78,15.37 18.41,15.25 18.03,15.1 17.65,14.95 17.26,14.77 16.87,14.58 16.47,14.37 16.06,14.15 15.64,13.91 15.21,13.66 14.78,13.38 14.34,13.09 13.9,12.77 13.45,12.44 12.99,12.08 12.53,11.71 12.06,11.31 11.59,10.9 11.1,10.47 10.61,10.02 10.12,9.56 9.61,9.08 9.1,8.59 8.58,8.09 8.05,7.58 7.51,7.07 6.96,6.55 6.4,6.03 5.83,5.51 5.25,5 4.65,4.49 4.04,3.99 3.41,3.51 2.77,3.04 2.11,2.59 1.43,2.16 0.73,1.76 0.02,1.39 -0.72,1.05 -1.47,0.74 -2.25,0.48 -3.05,0.25 -3.87,0.07 -4.71,-0.06 -5.58,-0.14 -6.47,-0.18 -7.38,-0.15 -8.32,-0.08 -9.28,0.06 -10.26,0.25 -11.26,0.5 -12.28,0.81 -13.32,1.18 -14.38,1.61 -15.46,2.09 -16.27,2.26 -17.09,2.46 -17.91,2.68 -18.73,2.93 -19.54,3.19 -20.36,3.48 -21.17,3.78 -21.98,4.1 -22.78,4.44 -23.57,4.78 -24.34,5.14 -25.1,5.5 -25.85,5.87 -26.57,6.24 -27.28,6.6" />
      </clipPath>
      <filter id="fuzzy">
        <feTurbulence id="turbulence" baseFrequency="0.05" numOctaves="3" type="noise" result="noise" />
        <feDisplacementMap in="SourceGraphic" in2="noise" scale="2" />
      </filter>
      <linearGradient id="rainbowGradient" x1="0%" y1="0%" x2="100%" y2="0%">
        <stop offset="0%" style="stop-color: rgb(233, 236, 239); stop-opacity: 1" />
        <stop offset="10.6%" style="stop-color: rgb(255, 127, 80); stop-opacity: 1" />
        <stop offset="100%" style="stop-color: rgb(148, 0, 211); stop-opacity: 1" />
      </linearGradient>
    </defs>
    <rect x="-100" y="-100" width="100%" height="100%" fill="rgb(25, 25, 112)" />
    <polyline id="faceContour" points="71.36,0.32 71.51,1.31 71.44,1.61 71.38,5.04 71.45,5.16 71.38,6.37 71.17,8.71 70.86,8.64 70.93,8.82 70.82,9.3 70.7,11.85 70.48,13.34 70.35,13.43 69.9,15.27 69.47,16.58 69.34,17.64 68.89,18.54 68.59,19.94 68.66,20.01 68.27,22.24 68.1,22.33 67.3,25.23 67.39,25.09 66.73,26.05 66.14,27.58 66.7,26.54 65.47,29.48 65.02,30.67 64.52,31.11 63.59,32.73 63.38,34.17 62.8,35.03 63.23,34.38 62.32,36.18 61.51,37.55 61.38,38 60.55,38.52 59.99,40.22 59.5,40.71 58.68,41.34 58.42,42.34 56.49,44.44 55.98,45.64 55.09,46.11 54.82,47.02 54.36,47.42 54.04,47.98 52.31,49.9 51.46,50.74 52.18,50.2 50.27,51.67 50.06,52.16 48.69,53.65 47.86,54.19 47.43,54.61 46.27,55.7 46.69,55.75 45.18,56.69 43.17,58.2 43.65,57.82 42.43,58.73 41.46,59.73 40.4,60.02 40.36,60.32 39.04,61.29 36.93,62.55 35.84,62.93 34.41,64.11 33.26,64.44 32.07,65.38 33.13,64.98 32.06,65.32 29.18,66.84 27.92,67.3 30.1,66.41 26.22,67.98 26.59,67.83 24.34,68.95 24.5,68.8 22.75,69.26 23.03,69.19 21.24,70.11 20.68,69.79 17.98,70.94 17.63,70.81 16.53,71.1 17.29,70.86 15.34,71.31 14.79,71.4 13.39,71.8 10.97,72.31 9.34,72.61 9.32,72.37 7.47,72.76 5.75,72.77 6.02,72.75 4.01,72.85 2.78,73.15 4.04,72.87 0.04,73.31 -0.5,73.17 -1.19,73.04 -3.11,72.97 -3.73,73.09 -4.49,72.81 -6.57,72.92 -5.72,73.03 -9.17,72.66 -10.06,72.44 -11.63,72.36 -11.51,72.17 -11.97,71.99 -14.08,71.78 -15.32,71.5 -16.82,71.06 -16.19,71.39 -16.43,71.3 -18.65,70.38 -20.16,70.23 -20.07,70.2 -22.31,69.5 -23.63,68.91 -24.32,68.92 -24.5,68.73 -25.02,68.61 -28.35,67.44 -28.13,67.33 -28.67,66.97 -30.07,66.34 -30.37,66.06 -32.84,64.72 -33.37,64.83 -33.33,64.8 -36.87,62.65 -36.59,62.6 -37,62.42 -38.87,61.54 -40.15,60.64 -39.47,61.02 -41.92,59.74 -41.06,59.98 -43.34,58.3 -44.05,57.18 -44.95,56.79 -44.66,57.21 -47.29,55 -47.4,54.75 -47.72,54.73 -48.74,53.8 -48.69,53.54 -51.49,50.87 -51.42,50.94 -52.21,50.13 -53.07,48.81 -53.41,48.73 -54.21,48 -54.86,46.95 -55.23,46.13 -55.6,45.8 -56.91,43.97 -58.32,42.82 -58.35,42.11 -58.79,41.81 -60.14,39.14 -60.04,39.54 -60.95,38.18 -61.91,37.28 -61.69,36.91 -62.69,35.1 -62.86,35.31 -63.85,33.03 -64.71,31.51 -63.94,32.58 -65.05,29.65 -66.18,27.58 -65.36,29.76 -66.48,27.21 -66.3,27.29 -67.26,25.36 -68.24,22.38 -67.81,23.81 -68.52,21.9 -68.89,19.21 -69.24,19.3 -69.15,18.26 -69.94,16.36 -69.52,16.92 -69.88,15.15 -70.12,13.98 -70.17,12.98 -70.41,12.96 -70.86,9.92 -70.85,10.25 -70.8,8.22 -71.21,4.83 -71.04,6.34 -71.55,5.2 -71.56,4.37 -71.46,2.35 -71.68,1.99 -71.69,-0.45 -71.58,-1.59 -71.47,-3.87 -71.3,-3.08 -71.36,-3.48 -71.52,-4.8 -71.23,-8.28 -71.03,-7.13 -71.07,-8.43 -70.96,-10.06 -70.37,-12.4 -70.24,-13.22 -70.61,-12.57 -69.93,-15.04 -69.81,-17.1 -69.52,-16.36 -69.24,-18.16 -68.86,-19.42 -68.39,-20.73 -68.82,-19.35 -67.79,-23.05 -67.31,-24.49 -67.28,-25.4 -66.92,-25.33 -66.16,-27.42 -66.97,-26.44 -65.84,-28.89 -65.38,-30.17 -64.59,-31.83 -64.17,-32.32 -63.87,-33.18 -63.28,-34.34 -62.72,-35 -62.08,-36.83 -61.23,-37.48 -61.27,-38.2 -60.4,-39.52 -59.94,-39.75 -59.51,-40.75 -58.44,-41.91 -57.65,-43.84 -57.42,-43.96 -56.07,-45.29 -55.3,-46.1 -54.83,-47.17 -54.55,-47.74 -54.04,-48.28 -53.54,-48.85 -52.02,-50.49 -51.88,-50.62 -50.65,-52.28 -50.24,-52.55 -48.59,-53.86 -46.97,-55.4 -46.96,-55.1 -46.65,-55.35 -46.28,-56.32 -43.43,-58.29 -43.6,-58.44 -42.17,-59.25 -41.44,-59.65 -41.11,-59.77 -40.6,-60.56 -38.43,-61.53 -38.57,-62.03 -36.52,-63.1 -36.51,-62.75 -35.3,-63.96 -35.3,-63.75 -33.42,-64.95 -32.14,-65.15 -32.57,-65.13 -29.57,-66.89 -30.95,-66.11 -28.97,-66.96 -26.48,-68.11 -26.51,-68.01 -26.43,-68.12 -24.36,-68.96 -24.3,-68.97 -21.19,-70.05 -20.51,-70.12 -20.26,-70.13 -18.01,-71 -17.2,-70.99 -15.87,-71.66 -16.93,-71.33 -14.58,-71.89 -13.45,-71.9 -12.1,-72.18 -10.58,-72.52 -11.31,-72.38 -8.49,-72.67 -7.53,-72.97 -7.46,-72.69 -5.42,-73.01 -4.89,-73.1 -3.54,-73.11 -3.87,-73.16 -0.54,-73.33 0.61,-73.33 2.09,-73.11 2.44,-73.21 3.73,-73.13 6.25,-72.94 6.25,-72.93 6.62,-72.89 9.49,-72.69 8.65,-72.79 10.57,-72.59 10.71,-72.51 11.22,-72.3 14.34,-71.78 13.36,-71.79 16.26,-71.48 17.14,-70.97 17.94,-70.98 18.39,-70.82 20.83,-69.92 21.09,-69.83 21.67,-69.71 23.34,-69.05 23.83,-69.18 26.96,-67.9 27.36,-67.73 26.84,-67.77 28.53,-67.25 30.06,-66.5 31.51,-65.65 30.36,-66.42 32.28,-65.42 33.73,-64.52 34.04,-64.29 34.7,-64.06 34.99,-63.75 37.02,-62.7 38,-61.74 38.34,-62.22 41.32,-60.11 40.9,-60.31 42.5,-58.79 43.12,-58.38 42.85,-58.94 44.69,-57.03 45.7,-56.23 46.35,-55.59 47.78,-54.67 47.84,-54.3 48.66,-53.49 50.4,-51.66 49.28,-52.82 51.48,-51.26 52.56,-49.59 52.57,-49.71 53.63,-48.43 54.1,-48.22 54.63,-47.38 55.98,-45.77 56.76,-45.05 57.09,-44.31 58.18,-42.77 57.58,-43.54 59.26,-40.8 59.59,-40.41 60.34,-39.63 61,-38.02 61.93,-36.25 61.93,-36.79 62.7,-34.88 62.22,-35.82 63.09,-34.1 64.37,-32.32 64.79,-31.21 65.66,-29.64 66.24,-28.25 65.62,-28.68 66.97,-26.38 67.09,-24.85 67.31,-24.59 67.29,-25.55 68.01,-22.85 68.63,-20.93 69.25,-19.01 68.94,-19.23 69.41,-17.86 69.25,-17.74 69.77,-16.86 70.16,-15.07 70.08,-13.29 70.42,-12.05 70.62,-12.34 70.8,-8.94 71.18,-8.65 71.06,-6.82 71.45,-6.11 71.32,-7.12 71.5,-5.11 71.69,-2.71 71.31,-2.32 71.41,-1.18 71.36,0.32 71.51,1.31" fill="rgb(205, 92, 92)" stroke="black" stroke-width="1.6666666666666665" stroke-linejoin="round" filter="url(#fuzzy)" />
    <g transform="translate(47.57000000000001 -20.75)">
      <polyline id="rightCountour" points="-33.01,6.02 -32.68,5.58 -32.33,5.13 -31.95,4.67 -31.55,4.21 -31.13,3.74 -30.69,3.27 -30.23,2.8 -29.74,2.34 -29.24,1.88 -28.72,1.43 -28.19,0.98 -27.63,0.55 -27.06,0.13 -26.48,-0.28 -25.88,-0.67 -25.22,-1.31 -24.54,-1.92 -23.84,-2.49 -23.12,-3.03 -22.38,-3.52 -21.63,-3.98 -20.86,-4.4 -20.07,-4.77 -19.26,-5.1 -18.44,-5.39 -17.61,-5.64 -16.77,-5.84 -15.91,-6 -15.05,-6.12 -14.18,-6.2 -13.3,-6.24 -12.41,-6.24 -11.52,-6.2 -10.63,-6.13 -9.73,-6.02 -8.83,-5.88 -7.93,-5.7 -7.04,-5.5 -6.14,-5.26 -5.25,-5 -4.36,-4.71 -3.48,-4.4 -2.6,-4.07 -1.73,-3.71 -0.87,-3.34 -0.02,-2.95 0.82,-2.55 1.65,-2.13 2.47,-1.7 3.27,-1.26 4.06,-0.81 4.84,-0.36 5.6,0.1 6.35,0.57 7.07,1.04 7.78,1.51 8.48,1.98 9.15,2.45 9.81,2.91 10.45,3.38 11.07,3.84 11.67,4.3 12.26,4.76 12.82,5.2 13.37,5.65 13.89,6.09 14.4,6.52 14.9,6.95 15.38,7.38 15.84,7.8 16.28,8.21 16.71,8.63 17.11,9.03 17.51,9.43 17.88,9.82 18.24,10.21 18.58,10.59 18.9,10.97 19.21,11.34 22.13,15.87 21.82,15.88 21.52,15.87 21.2,15.85 20.87,15.82 20.54,15.78 20.2,15.73 19.85,15.66 19.5,15.58 19.14,15.48 18.78,15.37 18.41,15.25 18.03,15.1 17.65,14.95 17.26,14.77 16.87,14.58 16.47,14.37 16.06,14.15 15.64,13.91 15.21,13.66 14.78,13.38 14.34,13.09 13.9,12.77 13.45,12.44 12.99,12.08 12.53,11.71 12.06,11.31 11.59,10.9 11.1,10.47 10.61,10.02 10.12,9.56 9.61,9.08 9.1,8.59 8.58,8.09 8.05,7.58 7.51,7.07 6.96,6.55 6.4,6.03 5.83,5.51 5.25,5 4.65,4.49 4.04,3.99 3.41,3.51 2.77,3.04 2.11,2.59 1.43,2.16 0.73,1.76 0.02,1.39 -0.72,1.05 -1.47,0.74 -2.25,0.48 -3.05,0.25 -3.87,0.07 -4.71,-0.06 -5.58,-0.14 -6.47,-0.18 -7.38,-0.15 -8.32,-0.08 -9.28,0.06 -10.26,0.25 -11.26,0.5 -12.28,0.81 -13.32,1.18 -14.38,1.61 -15.46,2.09 -16.27,2.26 -17.09,2.46 -17.91,2.68 -18.73,2.93 -19.54,3.19 -20.36,3.48 -21.17,3.78 -21.98,4.1 -22.78,4.44 -23.57,4.78 -24.34,5.14 -25.1,5.5 -25.85,5.87 -26.57,6.24 -27.28,6.6" fill="white" stroke="white" stroke-width="0" stroke-linejoin="round" filter="url(#fuzzy)" />
    </g>
    <g transform="translate(-45.550000000000004 -18.68)">
      <polyline id="leftCountour" points="30.57,4.17 30.11,3.67 29.63,3.16 29.12,2.65 28.6,2.12 28.05,1.6 27.48,1.07 26.89,0.54 26.29,0.02 25.67,-0.5 25.03,-1.01 24.38,-1.52 23.71,-2.01 23.04,-2.49 22.35,-2.96 21.64,-3.41 20.84,-4.11 20.03,-4.78 19.2,-5.42 18.35,-6.02 17.5,-6.58 16.63,-7.1 15.76,-7.59 14.88,-8.03 13.99,-8.43 13.09,-8.78 12.19,-9.1 11.29,-9.36 10.39,-9.59 9.48,-9.77 8.57,-9.91 7.67,-10.01 6.77,-10.07 5.87,-10.08 4.97,-10.06 4.08,-10 3.2,-9.9 2.33,-9.76 1.46,-9.59 0.6,-9.39 -0.24,-9.15 -1.08,-8.89 -1.9,-8.59 -2.71,-8.27 -3.5,-7.93 -4.28,-7.56 -5.05,-7.17 -5.8,-6.75 -6.53,-6.32 -7.24,-5.87 -7.93,-5.41 -8.61,-4.93 -9.27,-4.44 -9.9,-3.94 -10.52,-3.43 -11.11,-2.91 -11.69,-2.38 -12.24,-1.85 -12.77,-1.32 -13.29,-0.78 -13.77,-0.24 -14.24,0.29 -14.69,0.83 -15.11,1.37 -15.51,1.91 -15.89,2.44 -16.26,2.97 -16.6,3.5 -16.92,4.04 -17.22,4.56 -17.5,5.09 -17.76,5.62 -18.01,6.14 -18.23,6.66 -18.43,7.18 -18.61,7.7 -18.78,8.21 -18.92,8.72 -19.04,9.23 -19.14,9.73 -22.44,14.97 -22.05,15.06 -21.64,15.15 -21.23,15.22 -20.8,15.29 -20.37,15.34 -19.92,15.39 -19.46,15.42 -19,15.45 -18.52,15.46 -18.04,15.46 -17.54,15.45 -17.03,15.43 -16.52,15.39 -16,15.34 -15.46,15.27 -14.92,15.2 -14.36,15.11 -13.79,15 -13.21,14.88 -12.62,14.75 -12.02,14.6 -11.41,14.43 -10.79,14.24 -10.16,14.04 -9.52,13.81 -8.87,13.57 -8.22,13.31 -7.55,13.04 -6.88,12.74 -6.2,12.44 -5.51,12.11 -4.82,11.78 -4.11,11.43 -3.4,11.07 -2.69,10.7 -1.96,10.32 -1.23,9.93 -0.5,9.54 0.24,9.15 0.99,8.76 1.75,8.38 2.51,7.99 3.27,7.62 4.04,7.25 4.82,6.9 5.61,6.56 6.39,6.23 7.19,5.93 7.99,5.65 8.79,5.4 9.6,5.17 10.42,4.97 11.24,4.8 12.06,4.67 12.89,4.58 13.72,4.52 14.56,4.5 15.39,4.53 16.23,4.59 17.07,4.7 17.91,4.85 18.76,5.05 19.6,5.28 20.43,5.57 21.12,5.63 21.8,5.7 22.47,5.8 23.14,5.91 23.8,6.04 24.44,6.18 25.08,6.34 25.71,6.51 26.32,6.69 26.92,6.88 27.51,7.08 28.07,7.28 28.62,7.49 29.15,7.7 29.66,7.91" fill="white" stroke="white" stroke-width="0" stroke-linejoin="round" filter="url(#fuzzy)" />
    </g>
    <g transform="translate(47.57000000000001 -20.75)">
      <polyline id="rightUpper" points="-34.78,9.02 -34.74,8.89 -34.66,8.71 -34.56,8.49 -34.42,8.23 -34.26,7.93 -34.06,7.6 -33.84,7.24 -33.59,6.85 -33.31,6.45 -33.01,6.02 -32.68,5.58 -32.33,5.13 -31.95,4.67 -31.55,4.21 -31.13,3.74 -30.69,3.27 -30.23,2.8 -29.74,2.34 -29.24,1.88 -28.72,1.43 -28.19,0.98 -27.63,0.55 -27.06,0.13 -26.48,-0.28 -25.88,-0.67 -25.22,-1.31 -24.54,-1.92 -23.84,-2.49 -23.12,-3.03 -22.38,-3.52 -21.63,-3.98 -20.86,-4.4 -20.07,-4.77 -19.26,-5.1 -18.44,-5.39 -17.61,-5.64 -16.77,-5.84 -15.91,-6 -15.05,-6.12 -14.18,-6.2 -13.3,-6.24 -12.41,-6.24 -11.52,-6.2 -10.63,-6.13 -9.73,-6.02 -8.83,-5.88 -7.93,-5.7 -7.04,-5.5 -6.14,-5.26 -5.25,-5 -4.36,-4.71 -3.48,-4.4 -2.6,-4.07 -1.73,-3.71 -0.87,-3.34 -0.02,-2.95 0.82,-2.55 1.65,-2.13 2.47,-1.7 3.27,-1.26 4.06,-0.81 4.84,-0.36 5.6,0.1 6.35,0.57 7.07,1.04 7.78,1.51 8.48,1.98 9.15,2.45 9.81,2.91 10.45,3.38 11.07,3.84 11.67,4.3 12.26,4.76 12.82,5.2 13.37,5.65 13.89,6.09 14.4,6.52 14.9,6.95 15.38,7.38 15.84,7.8 16.28,8.21 16.71,8.63 17.11,9.03 17.51,9.43 17.88,9.82 18.24,10.21 18.58,10.59 18.9,10.97 19.21,11.34 19.5,11.71 19.77,12.06 20.02,12.42 20.26,12.76 20.49,13.1 20.7,13.44 20.89,13.77 21.06,14.09 21.23,14.41 21.37,14.72" fill="none" stroke="black" stroke-width="1.6666666666666665" stroke-linejoin="round" filter="url(#fuzzy)" />
      <polyline id="rightLower" points="-32.34,9.24 -32.05,9.13 -31.7,8.97 -31.3,8.77 -30.84,8.54 -30.34,8.27 -29.8,7.97 -29.22,7.65 -28.6,7.31 -27.95,6.96 -27.28,6.6 -26.57,6.24 -25.85,5.87 -25.1,5.5 -24.34,5.14 -23.57,4.78 -22.78,4.44 -21.98,4.1 -21.17,3.78 -20.36,3.48 -19.54,3.19 -18.73,2.93 -17.91,2.68 -17.09,2.46 -16.27,2.26 -15.46,2.09 -14.38,1.61 -13.32,1.18 -12.28,0.81 -11.26,0.5 -10.26,0.25 -9.28,0.06 -8.32,-0.08 -7.38,-0.15 -6.47,-0.18 -5.58,-0.14 -4.71,-0.06 -3.87,0.07 -3.05,0.25 -2.25,0.48 -1.47,0.74 -0.72,1.05 0.02,1.39 0.73,1.76 1.43,2.16 2.11,2.59 2.77,3.04 3.41,3.51 4.04,3.99 4.65,4.49 5.25,5 5.83,5.51 6.4,6.03 6.96,6.55 7.51,7.07 8.05,7.58 8.58,8.09 9.1,8.59 9.61,9.08 10.12,9.56 10.61,10.02 11.1,10.47 11.59,10.9 12.06,11.31 12.53,11.71 12.99,12.08 13.45,12.44 13.9,12.77 14.34,13.09 14.78,13.38 15.21,13.66 15.64,13.91 16.06,14.15 16.47,14.37 16.87,14.58 17.26,14.77 17.65,14.95 18.03,15.1 18.41,15.25 18.78,15.37 19.14,15.48 19.5,15.58 19.85,15.66 20.2,15.73 20.54,15.78 20.87,15.82 21.2,15.85 21.52,15.87 21.82,15.88 22.13,15.87 22.42,15.86 22.71,15.84 22.98,15.81 23.25,15.77 23.51,15.72 23.77,15.67 24.01,15.61 24.25,15.55 24.48,15.47 24.69,15.4" fill="none" stroke="black" stroke-width="2.2222222222222223" stroke-linejoin="round" filter="url(#fuzzy)" />
      <circle r="4.6080000000000005" cx="3.9548047706445537" cy="1.5825335622776926" stroke="black" fill="none" stroke-width="1.0" filter="url(#fuzzy)" clip-path="url(#rightEyeClipPath)" /><circle r="4.466" cx="3.2948047706445536" cy="5.362533562277692" stroke="black" fill="none" stroke-width="1.0" filter="url(#fuzzy)" clip-path="url(#rightEyeClipPath)" /><circle r="4.322" cx="6.514804770644554" cy="2.152533562277693" stroke="black" fill="none" stroke-width="1.0" filter="url(#fuzzy)" clip-path="url(#rightEyeClipPath)" /><circle r="4.6579999999999995" cx="7.639804770644552" cy="3.4225335622776925" stroke="black" fill="none" stroke-width="1.0" filter="url(#fuzzy)" clip-path="url(#rightEyeClipPath)" /><circle r="3.984" cx="6.609804770644555" cy="1.5425335622776926" stroke="black" fill="none" stroke-width="1.0" filter="url(#fuzzy)" clip-path="url(#rightEyeClipPath)" /><circle r="4.438" cx="7.099804770644553" cy="2.3825335622776924" stroke="black" fill="none" stroke-width="1.0" filter="url(#fuzzy)" clip-path="url(#rightEyeClipPath)" /><circle r="3.862" cx="6.074804770644555" cy="5.0875335622776925" stroke="black" fill="none" stroke-width="1.0" filter="url(#fuzzy)" clip-path="url(#rightEyeClipPath)" /><circle r="4.7219999999999995" cx="3.4648047706445535" cy="2.6275335622776925" stroke="black" fill="none" stroke-width="1.0" filter="url(#fuzzy)" clip-path="url(#rightEyeClipPath)" /><circle r="3.594" cx="4.619804770644554" cy="2.482533562277693" stroke="black" fill="none" stroke-width="1.0" filter="url(#fuzzy)" clip-path="url(#rightEyeClipPath)" /><circle r="3.846" cx="5.439804770644554" cy="4.702533562277692" stroke="black" fill="none" stroke-width="1.0" filter="url(#fuzzy)" clip-path="url(#rightEyeClipPath)" />
      </g>
    <g transform="translate(-45.550000000000004 -18.68)">
      <polyline id="leftUpper" points="33.53,7.74 33.39,7.55 33.21,7.31 32.99,7.03 32.74,6.71 32.46,6.36 32.14,5.97 31.79,5.55 31.41,5.11 31,4.65 30.57,4.17 30.11,3.67 29.63,3.16 29.12,2.65 28.6,2.12 28.05,1.6 27.48,1.07 26.89,0.54 26.29,0.02 25.67,-0.5 25.03,-1.01 24.38,-1.52 23.71,-2.01 23.04,-2.49 22.35,-2.96 21.64,-3.41 20.84,-4.11 20.03,-4.78 19.2,-5.42 18.35,-6.02 17.5,-6.58 16.63,-7.1 15.76,-7.59 14.88,-8.03 13.99,-8.43 13.09,-8.78 12.19,-9.1 11.29,-9.36 10.39,-9.59 9.48,-9.77 8.57,-9.91 7.67,-10.01 6.77,-10.07 5.87,-10.08 4.97,-10.06 4.08,-10 3.2,-9.9 2.33,-9.76 1.46,-9.59 0.6,-9.39 -0.24,-9.15 -1.08,-8.89 -1.9,-8.59 -2.71,-8.27 -3.5,-7.93 -4.28,-7.56 -5.05,-7.17 -5.8,-6.75 -6.53,-6.32 -7.24,-5.87 -7.93,-5.41 -8.61,-4.93 -9.27,-4.44 -9.9,-3.94 -10.52,-3.43 -11.11,-2.91 -11.69,-2.38 -12.24,-1.85 -12.77,-1.32 -13.29,-0.78 -13.77,-0.24 -14.24,0.29 -14.69,0.83 -15.11,1.37 -15.51,1.91 -15.89,2.44 -16.26,2.97 -16.6,3.5 -16.92,4.04 -17.22,4.56 -17.5,5.09 -17.76,5.62 -18.01,6.14 -18.23,6.66 -18.43,7.18 -18.61,7.7 -18.78,8.21 -18.92,8.72 -19.04,9.23 -19.14,9.73 -19.23,10.23 -19.29,10.72 -19.34,11.21 -19.37,11.7 -19.38,12.18 -19.37,12.66 -19.34,13.13 -19.3,13.6 -19.24,14.07 -19.16,14.53" fill="none" stroke="black" stroke-width="2.2222222222222223" stroke-linejoin="round" filter="url(#fuzzy)" />
      <polyline id="leftLower" points="33.12,9.33 32.94,9.3 32.72,9.23 32.45,9.13 32.15,9 31.81,8.85 31.44,8.69 31.03,8.51 30.6,8.32 30.14,8.11 29.66,7.91 29.15,7.7 28.62,7.49 28.07,7.28 27.51,7.08 26.92,6.88 26.32,6.69 25.71,6.51 25.08,6.34 24.44,6.18 23.8,6.04 23.14,5.91 22.47,5.8 21.8,5.7 21.12,5.63 20.43,5.57 19.6,5.28 18.76,5.05 17.91,4.85 17.07,4.7 16.23,4.59 15.39,4.53 14.56,4.5 13.72,4.52 12.89,4.58 12.06,4.67 11.24,4.8 10.42,4.97 9.6,5.17 8.79,5.4 7.99,5.65 7.19,5.93 6.39,6.23 5.61,6.56 4.82,6.9 4.04,7.25 3.27,7.62 2.51,7.99 1.75,8.38 0.99,8.76 0.24,9.15 -0.5,9.54 -1.23,9.93 -1.96,10.32 -2.69,10.7 -3.4,11.07 -4.11,11.43 -4.82,11.78 -5.51,12.11 -6.2,12.44 -6.88,12.74 -7.55,13.04 -8.22,13.31 -8.87,13.57 -9.52,13.81 -10.16,14.04 -10.79,14.24 -11.41,14.43 -12.02,14.6 -12.62,14.75 -13.21,14.88 -13.79,15 -14.36,15.11 -14.92,15.2 -15.46,15.27 -16,15.34 -16.52,15.39 -17.03,15.43 -17.54,15.45 -18.04,15.46 -18.52,15.46 -19,15.45 -19.46,15.42 -19.92,15.39 -20.37,15.34 -20.8,15.29 -21.23,15.22 -21.64,15.15 -22.05,15.06 -22.44,14.97 -22.82,14.88 -23.19,14.77 -23.55,14.66 -23.9,14.55 -24.24,14.43 -24.56,14.3 -24.88,14.17 -25.19,14.04 -25.48,13.9 -25.77,13.76" fill="none" stroke="black" stroke-width="2.2222222222222223" stroke-linejoin="round" filter="url(#fuzzy)" />
      <circle r="4.948" cx="10.232881844177989" cy="6.466274156163575" stroke="black" fill="none" stroke-width="1.0" filter="url(#fuzzy)" clip-path="url(#leftEyeClipPath)" /><circle r="4.928" cx="8.48788184417799" cy="5.991274156163575" stroke="black" fill="none" stroke-width="1.0" filter="url(#fuzzy)" clip-path="url(#leftEyeClipPath)" /><circle r="4.884" cx="9.36288184417799" cy="3.7662741561635755" stroke="black" fill="none" stroke-width="1.0" filter="url(#fuzzy)" clip-path="url(#leftEyeClipPath)" /><circle r="3.144" cx="7.26288184417799" cy="6.346274156163574" stroke="black" fill="none" stroke-width="1.0" filter="url(#fuzzy)" clip-path="url(#leftEyeClipPath)" /><circle r="4.414" cx="9.02788184417799" cy="2.8112741561635755" stroke="black" fill="none" stroke-width="1.0" filter="url(#fuzzy)" clip-path="url(#leftEyeClipPath)" /><circle r="4.85" cx="9.63788184417799" cy="2.8162741561635753" stroke="black" fill="none" stroke-width="1.0" filter="url(#fuzzy)" clip-path="url(#leftEyeClipPath)" /><circle r="3.3" cx="8.947881844177989" cy="6.751274156163575" stroke="black" fill="none" stroke-width="1.0" filter="url(#fuzzy)" clip-path="url(#leftEyeClipPath)" /><circle r="4.07" cx="9.10288184417799" cy="3.9262741561635757" stroke="black" fill="none" stroke-width="1.0" filter="url(#fuzzy)" clip-path="url(#leftEyeClipPath)" /><circle r="3.516" cx="8.49288184417799" cy="4.211274156163576" stroke="black" fill="none" stroke-width="1.0" filter="url(#fuzzy)" clip-path="url(#leftEyeClipPath)" /><circle r="4.86" cx="11.142881844177989" cy="5.126274156163575" stroke="black" fill="none" stroke-width="1.0" filter="url(#fuzzy)" clip-path="url(#leftEyeClipPath)" />
    </g>
    <g id="hairs">
      <polyline points="-21.19,-70.05 -20.51,-70.16 -19.53,-70.42 -18.39,-70.75 -17.32,-71.07 -16.42,-71.33 -15.69,-71.53 -15.08,-71.67 -14.63,-71.74 -14.42,-71.75 -14.56,-71.66 -15.15,-71.46 -16.24,-71.14 -17.89,-70.7 -20.33,-70.07" fill="none" stroke="url(#rainbowGradient)" stroke-width="2" stroke-linejoin="round" filter="url(#fuzzy)" /><polyline points="61.93,-36.25 61.99,-36.27 61.91,-36.1 61.66,-36 61.23,-35.99 60.55,-36.16 59.51,-36.64 58,-37.56 55.98,-38.98 53.43,-40.92 50.31,-43.41 46.6,-46.47 42.28,-50.12 37.39,-54.35 31.96,-59.11 25.84,-64.47" fill="none" stroke="url(#rainbowGradient)" stroke-width="2" stroke-linejoin="round" filter="url(#fuzzy)" /><polyline points="-26.48,-68.11 -26.04,-68.06 -24.55,-68.09 -22.17,-68.12 -19.1,-68.08 -15.49,-67.92 -11.5,-67.64 -7.18,-67.23 -2.6,-66.73 2.2,-66.16 7.18,-65.51 12.35,-64.8 17.73,-64.02 23.34,-63.17 29.12,-62.26 35.01,-61.34" fill="none" stroke="url(#rainbowGradient)" stroke-width="2" stroke-linejoin="round" filter="url(#fuzzy)" /><polyline points="43.12,-58.38 43.47,-58.2 44.33,-57.45 45.18,-56.68 45.87,-56.05 46.37,-55.55 46.66,-55.19 46.75,-54.97 46.65,-54.89 46.34,-54.98 45.79,-55.23 44.97,-55.67 43.84,-56.33 42.36,-57.23 40.5,-58.39 38.25,-59.82 35.64,-61.52 32.66,-63.52 29.02,-65.95" fill="none" stroke="url(#rainbowGradient)" stroke-width="2" stroke-linejoin="round" filter="url(#fuzzy)" /><polyline points="32.28,-65.42 33.38,-64.71 34.28,-64.1 35.29,-63.39 36.51,-62.53 37.9,-61.54 39.4,-60.46 40.94,-59.34 42.44,-58.2 43.86,-57.09 45.17,-56.03 46.37,-55.04 47.45,-54.14 48.42,-53.33 49.27,-52.62 49.99,-52.04 50.52,-51.6 50.85,-51.35 50.92,-51.34 50.69,-51.59 50.24,-51.95" fill="none" stroke="url(#rainbowGradient)" stroke-width="2" stroke-linejoin="round" filter="url(#fuzzy)" /><polyline points="-38.57,-62.03 -37.15,-62.71 -36.13,-63.22 -35.11,-63.76 -33.99,-64.34 -32.8,-64.94 -31.61,-65.52 -30.47,-66.08 -29.43,-66.6 -28.51,-67.06 -27.74,-67.45 -27.13,-67.74 -26.74,-67.93 -26.6,-68 -26.74,-67.93 -27.18,-67.72 -27.95,-67.35 -29.07,-66.79 -30.61,-65.99" fill="none" stroke="url(#rainbowGradient)" stroke-width="2" stroke-linejoin="round" filter="url(#fuzzy)" /><polyline points="59.59,-40.41 59.86,-39.55 59.21,-38.77 57.57,-38.38 54.92,-38.42 51.26,-38.79 46.63,-39.38 41.02,-40.13 34.39,-41.05 26.68,-42.22 17.82,-43.74 7.76,-45.68 -3.53,-48.03 -16.11,-50.72 -30.13,-53.6" fill="none" stroke="url(#rainbowGradient)" stroke-width="2" stroke-linejoin="round" filter="url(#fuzzy)" /><polyline points="-30.95,-66.11 -28.91,-66.91 -26.93,-67.51 -24.99,-67.92 -22.84,-68.27 -20.35,-68.62 -17.55,-68.97 -14.52,-69.32 -11.38,-69.65 -8.19,-69.96 -5.01,-70.23 -1.87,-70.49 1.2,-70.72 4.17,-70.93 7.06,-71.13 9.81,-71.32 12.15,-71.53" fill="none" stroke="url(#rainbowGradient)" stroke-width="2" stroke-linejoin="round" filter="url(#fuzzy)" /><polyline points="43.12,-58.38 43.52,-58.15 44.52,-57.25 45.62,-56.24 46.68,-55.27 47.67,-54.34 48.61,-53.44 49.49,-52.59 50.31,-51.79 51.08,-51.05 51.77,-50.4 52.35,-49.83 52.8,-49.39 53.1,-49.08 53.24,-48.92 53.2,-48.93 52.97,-49.12 52.51,-49.52 51.83,-50.15 50.91,-51.06 49.74,-52.27 48.31,-53.74" fill="none" stroke="url(#rainbowGradient)" stroke-width="2" stroke-linejoin="round" filter="url(#fuzzy)" /><polyline points="10.57,-72.59 10.95,-72.46 11.76,-72.25 12.65,-72.03 13.41,-71.82 13.92,-71.64 14.12,-71.48 13.98,-71.33 13.46,-71.21 12.56,-71.11 11.24,-71.05 9.45,-71.03 7.18,-71.06 4.38,-71.13 1.01,-71.25 -3.01,-71.42 -7.79,-71.66" fill="none" stroke="url(#rainbowGradient)" stroke-width="2" stroke-linejoin="round" filter="url(#fuzzy)" /><polyline points="-3.54,-73.11 -2.92,-73.17 -1.66,-73.2 -0.63,-73.16 -0.02,-73.06 0.18,-72.9 -0.05,-72.69 -0.74,-72.42 -1.98,-72.08 -3.82,-71.67 -6.29,-71.17 -9.4,-70.57 -13.12,-69.9 -17.43,-69.16 -22.49,-68.28" fill="none" stroke="url(#rainbowGradient)" stroke-width="2" stroke-linejoin="round" filter="url(#fuzzy)" /><polyline points="-18.01,-71 -17.05,-71.1 -15.88,-71.18 -14.34,-71.16 -12.37,-71.08 -10.05,-70.93 -7.51,-70.74 -4.8,-70.48 -1.96,-70.17 0.99,-69.82 4.02,-69.42 7.09,-69.02 10.14,-68.6 13.17,-68.19 16.14,-67.78 19.08,-67.38 21.99,-66.96 24.87,-66.52 27.66,-66.04 30.23,-65.6" fill="none" stroke="url(#rainbowGradient)" stroke-width="2" stroke-linejoin="round" filter="url(#fuzzy)" /><polyline points="10.57,-72.59 11.06,-72.42 12.21,-72.1 13.67,-71.72 15.25,-71.3 16.84,-70.87 18.41,-70.42 19.92,-69.96 21.35,-69.5 22.7,-69.06 23.94,-68.66 25.06,-68.3 26.02,-67.99 26.8,-67.75 27.33,-67.6 27.55,-67.56 27.44,-67.63 27.05,-67.82 26.16,-68.21" fill="none" stroke="url(#rainbowGradient)" stroke-width="2" stroke-linejoin="round" filter="url(#fuzzy)" /><polyline points="-40.6,-60.56 -39.07,-61.39 -37.88,-62.13 -36.72,-62.81 -35.58,-63.45 -34.47,-64.06 -33.38,-64.66 -32.33,-65.21 -31.39,-65.71 -30.6,-66.12 -30.05,-66.43 -29.77,-66.59 -29.77,-66.6 -30.07,-66.43 -30.74,-66.06 -31.84,-65.51" fill="none" stroke="url(#rainbowGradient)" stroke-width="2" stroke-linejoin="round" filter="url(#fuzzy)" /><polyline points="60.34,-39.63 61,-38.19 61.55,-37.15 61.97,-36.36 62.35,-35.67 62.74,-34.94 63.15,-34.17 63.56,-33.39 63.9,-32.67 64.13,-32.1 64.23,-31.72 64.17,-31.55 63.97,-31.63 63.62,-31.95 63.12,-32.51 62.47,-33.3 61.67,-34.32 60.71,-35.58 59.55,-37.13 58.18,-39.05 56.57,-41.35 54.74,-44.01 52.73,-46.99 50.46,-50.38" fill="none" stroke="url(#rainbowGradient)" stroke-width="2" stroke-linejoin="round" filter="url(#fuzzy)" /><polyline points="56.76,-45.05 57.23,-44.21 57.75,-43.35 58.3,-42.46 58.88,-41.54 59.44,-40.65 59.94,-39.84 60.32,-39.19 60.55,-38.75 60.61,-38.56 60.49,-38.63 60.21,-38.93 59.76,-39.45 59.15,-40.19 58.33,-41.2 57.25,-42.57 55.83,-44.41 54.02,-46.75 51.95,-49.42" fill="none" stroke="url(#rainbowGradient)" stroke-width="2" stroke-linejoin="round" filter="url(#fuzzy)" /><polyline points="-26.43,-68.12 -24.93,-68.71 -23.69,-69.12 -22.59,-69.44 -21.68,-69.66 -21,-69.77 -20.55,-69.77 -20.35,-69.65 -20.39,-69.4 -20.65,-69.01 -21.12,-68.47 -21.83,-67.79 -22.8,-66.94 -24.08,-65.9 -25.68,-64.68 -27.63,-63.26 -29.93,-61.64 -32.59,-59.82 -35.61,-57.82 -38.99,-55.63 -42.76,-53.21 -46.98,-50.51 -51.78,-47.47" fill="none" stroke="url(#rainbowGradient)" stroke-width="2" stroke-linejoin="round" filter="url(#fuzzy)" /><polyline points="38,-61.74 38.88,-61.54 39.85,-60.92 40.49,-60.35 40.77,-59.94 40.76,-59.67 40.49,-59.51 39.97,-59.44 39.17,-59.49 38.04,-59.68 36.53,-60.05 34.61,-60.61 32.24,-61.38 29.39,-62.36 26.05,-63.56 22.16,-64.98 17.69,-66.64 12.62,-68.56 6.97,-70.76" fill="none" stroke="url(#rainbowGradient)" stroke-width="2" stroke-linejoin="round" filter="url(#fuzzy)" /><polyline points="26.96,-67.9 27.32,-67.68 28.1,-67.23 29.36,-66.53 30.84,-65.7 32.36,-64.81 33.87,-63.9 35.38,-62.97 36.85,-62.05 38.26,-61.16 39.57,-60.35 40.74,-59.63 41.73,-59.04 42.47,-58.65 42.87,-58.52 42.96,-58.59" fill="none" stroke="url(#rainbowGradient)" stroke-width="2" stroke-linejoin="round" filter="url(#fuzzy)" /><polyline points="54.1,-48.22 54.48,-47.33 54.28,-46.54 53.27,-46.01 51.41,-45.73 48.69,-45.65 45.14,-45.76 40.76,-46.03 35.52,-46.48 29.37,-47.14 22.24,-48.03 14.09,-49.18 4.86,-50.59 -5.44,-52.29 -16.74,-54.3 -28.96,-56.62" fill="none" stroke="url(#rainbowGradient)" stroke-width="2" stroke-linejoin="round" filter="url(#fuzzy)" /><polyline points="34.99,-63.75 36.2,-62.88 36.36,-62.19 35.68,-61.53 34.16,-60.84 31.72,-60.15 28.3,-59.5 23.89,-58.87 18.49,-58.21 12.08,-57.5 4.66,-56.72 -3.8,-55.96 -13.35,-55.26 -24.12,-54.61 -36.34,-53.77" fill="none" stroke="url(#rainbowGradient)" stroke-width="2" stroke-linejoin="round" filter="url(#fuzzy)" /><polyline points="32.28,-65.42 5.8,-54.37 15.3,-53.42 22.58,-56.98 26.58,-60.15 29.41,-61.53 30.76,-61.57 29.18,-61.14 23.88,-60.86 15.69,-60.93 6.93,-61.23 0.38,-61.45 -1.89,-61.37 0.61,-60.95 6.78,-60.31 14.6,-59.61 22.14,-58.97 28.09,-58.44 31.65,-58.11 31.73,-58.28 26.46,-59.33 14.17,-61.25 -3.12,-63.02 -13.42,-64 14.34,-71.78" fill="none" stroke="url(#rainbowGradient)" stroke-width="2" stroke-linejoin="round" filter="url(#fuzzy)" /><polyline points="-52.02,-50.49 -14.58,-64.9 -0.48,-69.56 7.48,-69.76 12.14,-68.64 12.75,-67.98 10.17,-68.07 6.71,-68.27 4.44,-67.83 4.06,-66.36 5.04,-63.78 6.89,-60.4 10.36,-57.49 15.86,-57.74 15.7,-63.92 -7.46,-72.69" fill="none" stroke="url(#rainbowGradient)" stroke-width="2" stroke-linejoin="round" filter="url(#fuzzy)" /><polyline points="41.32,-60.11 3.67,-61.92 2.87,-57.5 13.97,-55.23 21.35,-55.11 20.57,-55.82 13,-57.09 2.85,-58.91 -5.04,-60.9 -7.37,-62.33 -3.92,-62.6 2.28,-61.68 6.38,-60.18 4.16,-59.04 -5.18,-58.83 -17.86,-59.27 -26.94,-59.32 -24.98,-57.62 -2.47,-52.21 61.93,-36.25" fill="none" stroke="url(#rainbowGradient)" stroke-width="2" stroke-linejoin="round" filter="url(#fuzzy)" /><polyline points="17.94,-70.98 8.21,-65.9 8.14,-57.69 11.81,-52.44 11.11,-51.42 8.13,-53.21 6.31,-55.89 6.16,-58.31 6.56,-60.22 6.86,-61.82 7.13,-63.4 7.61,-65 8.4,-66.38 9.67,-66.93 11.41,-65.94 12.9,-62.95 12.72,-58.28 9.71,-53.25 0.57,-49.96 -48.59,-53.86" fill="none" stroke="url(#rainbowGradient)" stroke-width="2" stroke-linejoin="round" filter="url(#fuzzy)" /><polyline points="-53.54,-48.85 -14.01,-63.7 -0.46,-68 0.34,-68.34 -1.22,-67.26 -0.15,-65.64 3.97,-63.95 9.44,-62.6 14.66,-61.73 18.96,-61.12 22.12,-60.45 23.89,-59.65 23.93,-58.95 22.25,-58.75 19.52,-59.15 16.68,-59.79 14.34,-60.03 12.42,-59.58 10.55,-58.89 8.51,-59.02 5.6,-60.86 -0.97,-63.98 -13.63,-66.98 -15.87,-71.66" fill="none" stroke="url(#rainbowGradient)" stroke-width="2" stroke-linejoin="round" filter="url(#fuzzy)" /><polyline points="20.83,-69.92 33.87,-62 31.11,-62.2 24.83,-63.43 21.22,-63.79 21.62,-63.13 24.33,-61.99 27.16,-60.98 28.71,-60.41 28.46,-60.33 26.34,-60.71 22.41,-61.41 17.02,-62.21 11.07,-62.78 6.02,-62.86 3.37,-62.41 3.72,-61.71 6.07,-61.25 8.26,-61.47 8.31,-62.39 5.82,-63.48 1.56,-63.81 -4.72,-62.71 -12.85,-62.26 2.44,-73.21" fill="none" stroke="url(#rainbowGradient)" stroke-width="2" stroke-linejoin="round" filter="url(#fuzzy)" /><polyline points="55.98,-45.77 57.39,-35.4 45.21,-39.98 35.89,-47.59 33.54,-52.57 33.83,-54.55 31.98,-55 26.05,-55.32 17.3,-56.24 8.81,-57.7 3.3,-59.02 1.49,-59.41 2.59,-58.43 6.31,-56.11 12.4,-52.41 10.04,-48.16 -46.65,-55.35" fill="none" stroke="url(#rainbowGradient)" stroke-width="2" stroke-linejoin="round" filter="url(#fuzzy)" /><polyline points="-3.87,-73.16 -2.1,-66.86 16.59,-62.01 29.49,-58.4 31.77,-56.66 24.26,-56.5 11.18,-56.9 -1.96,-57.1 -10.63,-56.98 -12.65,-56.67 -8.31,-56.29 0.24,-55.82 9.79,-55.31 16.88,-55.02 18.85,-55.31 14.84,-56.41 6.52,-58.11 -2.31,-59.74 -7.05,-60.48 -4.2,-59.67 6.87,-57.14 22.74,-53.54 37.98,-49.46 64.37,-32.32" fill="none" stroke="url(#rainbowGradient)" stroke-width="2" stroke-linejoin="round" filter="url(#fuzzy)" /><polyline points="13.36,-71.79 0.13,-71.88 -0.01,-69.66 7.78,-66.74 16.04,-64.87 21.55,-64.26 23.97,-64.31 23.69,-64.51 21.11,-64.52 16.99,-64.05 12.49,-62.97 8.82,-61.38 6.55,-59.7 5.55,-58.26 5.69,-56.86 7.89,-54.66 13.83,-50.84 23.29,-45.81 30.57,-42.15 25.27,-44.46 4.36,-56.72 2.09,-73.11" fill="none" stroke="url(#rainbowGradient)" stroke-width="2" stroke-linejoin="round" filter="url(#fuzzy)" /><polyline points="-54.04,-48.28 -5.51,-61.89 6.19,-68.04 5.7,-70.36 3.5,-70.53 3.71,-69.34 7.04,-67.24 11.49,-64.73 13.38,-62.6 9.57,-61.5 -0.46,-61.38 -14.33,-61.13 -28.49,-59.35 -40.11,-55.81 -46.88,-52.7 -45.27,-54.42 -29.57,-66.89" fill="none" stroke="url(#rainbowGradient)" stroke-width="2" stroke-linejoin="round" filter="url(#fuzzy)" /><polyline points="-48.59,-53.86 17.86,-47.61 35.87,-50.02 36.78,-51.38 32.66,-50.55 27.29,-48.77 20.51,-47.77 12.17,-48.87 4.18,-52.26 -0.51,-56.96 -0.39,-61.53 3.37,-64.91 7.82,-66.89 10.6,-67.91 11.63,-68.5 13.01,-68.83 16.58,-68.92 20.1,-69.33 20.83,-69.92" fill="none" stroke="url(#rainbowGradient)" stroke-width="2" stroke-linejoin="round" filter="url(#fuzzy)" /><polyline points="-29.57,-66.89 -15.75,-68.02 -17.96,-66.11 -14.07,-63.57 -2.1,-60.67 13.32,-57.52 27.25,-54.54 36.69,-52.55 40.77,-52.32 40.25,-53.93 36.71,-56.75 31.84,-59.73 26.92,-61.94 22.75,-62.83 19.81,-62.27 18.18,-60.66 16.98,-58.91 14.03,-58.2 6.76,-59.21 -4.62,-61.63 -10.37,-64.79 18.39,-70.82" fill="none" stroke="url(#rainbowGradient)" stroke-width="2" stroke-linejoin="round" filter="url(#fuzzy)" /><polyline points="59.26,-40.8 2.67,-55.17 -20.45,-58.02 -20.15,-60.2 -8.26,-61.27 6.22,-60.14 17.62,-57.39 23.64,-54.31 24.75,-51.76 22.62,-50.03 18.49,-49.23 12.9,-49.5 6.66,-50.99 1.39,-53.61 -1.35,-56.99 -0.97,-60.34 3.15,-61.98 14.21,-59.09 37.49,-48.23 66.97,-26.38" fill="none" stroke="url(#rainbowGradient)" stroke-width="2" stroke-linejoin="round" filter="url(#fuzzy)" /><polyline points="-56.07,-45.29 -18.25,-55.65 11.49,-57.56 22.79,-58.66 22.44,-59.24 17.52,-58.63 10.88,-57.21 3.02,-56.05 -4.94,-55.75 -10.64,-56.04 -11.9,-56.23 -8.55,-55.99 -2.96,-55.62 1.7,-55.6 4.58,-55.95 9.15,-55.71 20.72,-53.24 39.28,-47.62 54.26,-42.27 50.4,-51.66" fill="none" stroke="url(#rainbowGradient)" stroke-width="2" stroke-linejoin="round" filter="url(#fuzzy)" /><polyline points="34.04,-64.29 5.45,-59.83 1.49,-58.12 -6.76,-57.25 -13.72,-57.02 -14.42,-57.45 -9.04,-57.67 0.33,-56.72 11.49,-54.59 21.92,-52.22 28.83,-50.96 30.18,-51.76 26.16,-54.6 19.61,-58.34 14.96,-61.08 15.73,-60.97 21.84,-57.56 28.07,-53.14 25.66,-52.83 11.87,-61.01 17.14,-70.97" fill="none" stroke="url(#rainbowGradient)" stroke-width="2" stroke-linejoin="round" filter="url(#fuzzy)" /><polyline points="18.39,-70.82 33.23,-52.22 19.13,-54.69 8.31,-58.92 5.25,-60.88 4.62,-60.56 2.62,-58.97 -0.13,-57.03 -1.15,-55.29 0.43,-54.04 2.79,-53.4 3.12,-53.4 0.31,-53.99 -3.81,-55.08 -6.05,-56.63 -4.87,-58.48 -2.27,-60.4 -1.88,-62.21 -4.04,-64.06 -2.76,-66.39 7.09,-69.31 8.65,-72.79" fill="none" stroke="url(#rainbowGradient)" stroke-width="2" stroke-linejoin="round" filter="url(#fuzzy)" /><polyline points="57.58,-43.54 56.02,-43.43 48.81,-48.77 40.64,-52.77 31.87,-55.11 23.51,-56.1 17.12,-55.86 13.21,-54.76 10.94,-53.51 9.07,-52.86 7.01,-53.31 5.01,-54.84 3.52,-56.94 2.44,-58.86 1.12,-60.01 -0.9,-60.25 -2.88,-59.84 -3.17,-59.21 -1.02,-58.63 1.2,-58.19 -2.09,-58.44 -16.28,-61.12 -29.57,-66.89" fill="none" stroke="url(#rainbowGradient)" stroke-width="2" stroke-linejoin="round" filter="url(#fuzzy)" /><polyline points="-36.52,-63.1 8.13,-62.55 21.29,-61.64 20.99,-61.27 18.95,-59.96 18.31,-58.17 17.87,-56.8 15.48,-56.14 10.5,-55.76 5.19,-54.78 3.62,-52.52 8.43,-49.28 17.48,-46.71 24.27,-46.94 23.54,-50.58 18.54,-55.49 18.77,-59.95 6.62,-72.89" fill="none" stroke="url(#rainbowGradient)" stroke-width="2" stroke-linejoin="round" filter="url(#fuzzy)" /><polyline points="49.28,-52.82 37.19,-59.51 26.45,-61.8 18.16,-62.62 14.19,-61.78 12.75,-60.21 11.18,-59.06 7.86,-58.63 2.62,-58.61 -3.3,-58.75 -7.57,-59.14 -7.69,-59.93 -2.38,-61.05 7.34,-62.11 18.41,-62.78 27.26,-63.04 31.5,-63.29 30.24,-64.08 22.64,-65.67 5.32,-67.55 -28.97,-66.96" fill="none" stroke="url(#rainbowGradient)" stroke-width="2" stroke-linejoin="round" filter="url(#fuzzy)" /><polyline points="-0.54,-73.33 -3.19,-73.15 -5.6,-72.98 -8.02,-72.76 -10.56,-72.49 -13.33,-72.16 -16.39,-71.76 -19.72,-71.28 -23.21,-70.7 -26.68,-70.04 -29.95,-69.3 -32.9,-68.5 -35.52,-67.67 -37.85,-66.8 -40.02,-65.91 -42.19,-65 -44.55,-64.04 -47.22,-63.02 -50.26,-61.95 -53.66,-60.8 -57.36,-59.58 -61.29,-58.28 -65.4,-56.89 -69.66,-55.42 -74.05,-53.86 -78.56,-52.24 -83.15,-50.59 -87.76,-48.93 -92.24,-47.26 -96.41,-45.56 -100.23,-43.75 -103.76,-41.8 -106.44,-39.75" fill="none" stroke="url(#rainbowGradient)" stroke-width="2" stroke-linejoin="round" filter="url(#fuzzy)" /><polyline points="-3.87,-73.16 -5.36,-73.01 -7.37,-72.81 -9.58,-72.57 -11.82,-72.26 -14.01,-71.87 -16.12,-71.42 -18.18,-70.91 -20.23,-70.35 -22.31,-69.71 -24.46,-69.02 -26.7,-68.25 -29.07,-67.42 -31.59,-66.52 -34.29,-65.56 -37.17,-64.56 -40.18,-63.51 -43.22,-62.43 -46.18,-61.32 -48.97,-60.16 -51.55,-58.94 -54.01,-57.65 -56.48,-56.31 -59.06,-54.91 -61.78,-53.47 -64.57,-51.94 -67.57,-50.24 -71.41,-48.28" fill="none" stroke="url(#rainbowGradient)" stroke-width="2" stroke-linejoin="round" filter="url(#fuzzy)" /><polyline points="-4.89,-73.1 -7.2,-72.81 -9.13,-72.58 -11.28,-72.27 -13.57,-71.88 -15.82,-71.42 -17.95,-70.9 -20,-70.32 -22.02,-69.68 -24.07,-68.98 -26.15,-68.2 -28.28,-67.36 -30.43,-66.45 -32.6,-65.48 -34.76,-64.47 -36.92,-63.41 -39.05,-62.32 -41.17,-61.19 -43.27,-60.01 -45.37,-58.78 -47.46,-57.48 -49.56,-56.12 -51.64,-54.71 -53.7,-53.23 -55.7,-51.7 -57.61,-50.11 -59.36,-48.5 -60.94,-46.89 -62.45,-45.33 -63.91,-43.84" fill="none" stroke="url(#rainbowGradient)" stroke-width="2" stroke-linejoin="round" filter="url(#fuzzy)" /><polyline points="-20.51,-70.12 -24.38,-69.15 -26.65,-68.33 -28.77,-67.48 -31.32,-66.6 -34.39,-65.71 -37.86,-64.8 -41.46,-63.84 -44.95,-62.82 -48.18,-61.72 -51.13,-60.54 -53.9,-59.28 -56.58,-57.94 -59.24,-56.52 -61.88,-55.02 -64.45,-53.46 -66.98,-51.84 -69.55,-50.18 -72.36,-48.5 -75.51,-46.8 -78.98,-45.06 -82.51,-43.3 -85.82,-41.51 -88.79,-39.7 -91.6,-37.87 -94.75,-36.01 -98.8,-34.05 -104.1,-31.92 -110.28,-29.5 -115.27,-26.44" fill="none" stroke="url(#rainbowGradient)" stroke-width="2" stroke-linejoin="round" filter="url(#fuzzy)" /><polyline points="-20.51,-70.12 -23.46,-69.15 -25.61,-68.32 -27.46,-67.47 -28.99,-66.58 -30.05,-65.69 -30.67,-64.77 -31.05,-63.81 -31.42,-62.77 -32.03,-61.66 -32.95,-60.47 -34.12,-59.19 -35.34,-57.84 -36.35,-56.41 -37,-54.9 -37.32,-53.33 -37.48,-51.7 -37.73,-50.04 -38.24,-48.35 -39,-46.63 -39.86,-44.89 -40.56,-43.11 -40.9,-41.3 -40.81,-39.47 -40.39,-37.59 -39.87,-35.65 -39.46,-33.65 -39.23,-31.57 -38.99,-29.43 -38.29,-27.27 -36.69,-25.12 -34.24,-22.95 -31.83,-20.76 -30.46,-19.42" fill="none" stroke="url(#rainbowGradient)" stroke-width="2" stroke-linejoin="round" filter="url(#fuzzy)" /><polyline points="-21.19,-70.05 -23.7,-69.05 -25.11,-68.14 -26.08,-67.26 -27.31,-66.32 -28.87,-65.31 -30.52,-64.25 -31.99,-63.17 -33.21,-62.07 -34.18,-60.93 -35.03,-59.73 -35.87,-58.48 -36.82,-57.16 -37.93,-55.78 -39.17,-54.34 -40.42,-52.85 -41.49,-51.31 -42.18,-49.72 -42.36,-48.08 -42,-46.39 -41.18,-44.65 -40.04,-42.85 -38.8,-40.98 -37.73,-39.06 -37.19,-37.11 -37.25,-35.11 -37.03,-33.18" fill="none" stroke="url(#rainbowGradient)" stroke-width="2" stroke-linejoin="round" filter="url(#fuzzy)" /><polyline points="-26.51,-68.01 -29.48,-67.18 -33.16,-66.29 -37.14,-65.24 -40.16,-64.14 -42.29,-63.03 -44.35,-61.9 -46.98,-60.73 -50.38,-59.51 -54.29,-58.22 -58.29,-56.86 -61.97,-55.44 -65.11,-53.96 -67.71,-52.43 -69.93,-50.85 -71.99,-49.21 -74.1,-47.52 -76.41,-45.79 -79,-44 -81.92,-42.16 -85.16,-40.29 -88.69,-38.39 -92.46,-36.47 -96.44,-34.53 -100.68,-32.57 -105.26,-30.6 -110.18,-28.6 -115.33,-26.57 -120.39,-24.51 -124.94,-22.39 -128.61,-20.24 -131.22,-18.04 -132.84,-15.81 -133.76,-13.59 -134.38,-11.38 -135.33,-9.18 -137.72,-6.83 -142.52,-3.48" fill="none" stroke="url(#rainbowGradient)" stroke-width="2" stroke-linejoin="round" filter="url(#fuzzy)" /><polyline points="-30.95,-66.11 -32.57,-65.36 -34.54,-64.66 -37.19,-63.8 -40.76,-62.78 -45.3,-61.64 -50.61,-60.42 -56.26,-59.13 -61.72,-57.77 -66.51,-56.32 -70.34,-54.79 -73.07,-53.2 -74.78,-51.56 -75.82,-49.89 -76.76,-48.19 -78.21,-46.47 -80.67,-44.72 -84.28,-42.95 -88.86,-41.14 -93.93,-39.29 -98.96,-37.4 -103.54,-35.46 -107.56,-33.46 -111.17,-31.38 -114.69,-29.26 -118.37,-27.11 -122.26,-24.97 -126.21,-22.83 -129.95,-20.71 -133.27,-18.65 -136.27,-16.71 -140.57,-15.04" fill="none" stroke="url(#rainbowGradient)" stroke-width="2" stroke-linejoin="round" filter="url(#fuzzy)" /><polyline points="-30.95,-66.11 -33.04,-65.37 -34.49,-64.67 -36.45,-63.83 -39.09,-62.81 -42.26,-61.68 -45.88,-60.48 -49.93,-59.2 -54.43,-57.86 -59.38,-56.43 -64.74,-54.91 -70.43,-53.33 -76.22,-51.7 -81.84,-50.04 -87.06,-48.36 -91.82,-46.66 -96.18,-44.93 -100.31,-43.17 -104.4,-41.38 -108.65,-39.57 -113.31,-37.74 -118.51,-35.86 -124.16,-33.88 -129.95,-31.76 -135.65,-29.48 -141.38,-27.14 -147.42,-25.33" fill="none" stroke="url(#rainbowGradient)" stroke-width="2" stroke-linejoin="round" filter="url(#fuzzy)" /><polyline points="70.16,-15.07 73.62,-12.26 81.18,-9.85 86.09,-7.77 87.07,-5.73 86.49,-3.61 86.46,-1.38 87.48,0.9 88.83,3.15 89.61,5.36 89.49,7.53 88.91,9.68 88.74,11.85 89.76,14.05 92.33,16.26 96.22,18.45 100.78,20.59 105.27,22.66 109.13,24.65 112.19,26.6 114.47,28.58 115.9,30.62 116.38,32.68 116.53,34.65 118.52,36.38 123.83,38" fill="none" stroke="url(#rainbowGradient)" stroke-width="2" stroke-linejoin="round" filter="url(#fuzzy)" /><polyline points="-33.42,-64.95 -35.88,-63.97 -37.37,-62.85 -38.92,-61.64 -40.67,-60.39 -42.57,-59.1 -44.57,-57.73 -46.67,-56.28 -48.87,-54.74 -51.19,-53.13 -53.61,-51.48 -56.06,-49.8 -58.51,-48.11 -60.9,-46.39 -63.24,-44.64 -65.54,-42.86 -67.84,-41.05 -70.14,-39.2 -72.39,-37.31 -74.5,-35.37 -76.39,-33.36 -77.99,-31.29 -79.35,-29.17 -80.56,-27.03 -81.8,-24.89 -83.28,-22.76 -85.17,-20.67 -87.46,-18.64 -89.93,-16.71 -92.12,-14.92 -93.44,-13.22" fill="none" stroke="url(#rainbowGradient)" stroke-width="2" stroke-linejoin="round" filter="url(#fuzzy)" /><polyline points="-33.42,-64.95 -35.72,-63.97 -39.08,-62.84 -42.57,-61.62 -45.48,-60.37 -47.7,-59.06 -49.5,-57.69 -51.25,-56.23 -53.22,-54.68 -55.59,-53.06 -58.45,-51.41 -61.81,-49.72 -65.66,-48.02 -69.86,-46.28 -74.19,-44.52 -78.35,-42.73 -82.02,-40.91 -84.96,-39.04 -87.11,-37.13 -88.61,-35.17 -89.77,-33.15 -90.95,-31.08 -92.51,-28.97 -94.73,-26.84 -97.78,-24.71 -101.66,-22.6 -106.17,-20.51 -110.9,-18.44 -115.22,-16.38 -118.61,-14.28 -121.06,-12.09 -123.29,-9.75 -126.21,-7.33 -129.56,-5.01 -132.73,-3.08" fill="none" stroke="url(#rainbowGradient)" stroke-width="2" stroke-linejoin="round" filter="url(#fuzzy)" /><polyline points="-35.3,-63.96 -36.86,-62.9 -39.09,-61.63 -41.94,-60.37 -45.41,-59.09 -49.6,-57.74 -54.58,-56.3 -60.33,-54.75 -66.53,-53.14 -72.64,-51.49 -77.98,-49.82 -82.06,-48.13 -84.71,-46.42 -86.26,-44.68 -87.44,-42.91 -89.1,-41.1 -91.94,-39.27 -96.22,-37.4 -101.65,-35.47 -107.55,-33.47 -113.2,-31.4 -118.22,-29.27 -122.81,-27.13 -127.39,-24.99 -131.9,-22.85 -135.66,-20.71 -139.19,-18.63 -146.39,-16.36" fill="none" stroke="url(#rainbowGradient)" stroke-width="2" stroke-linejoin="round" filter="url(#fuzzy)" /><polyline points="-38.57,-62.03 -40.87,-60.78 -44.03,-59.56 -47.6,-58.25 -51.98,-56.87 -57.41,-55.45 -63.36,-53.99 -68.98,-52.48 -73.75,-50.92 -77.7,-49.32 -81.19,-47.66 -84.61,-45.96 -88.28,-44.21 -92.46,-42.4 -97.39,-40.54 -103.19,-38.65 -109.79,-36.75 -116.78,-34.85 -123.61,-32.95 -129.94,-31.04 -135.79,-29.13 -141.23,-27.24 -144.04,-25.4" fill="none" stroke="url(#rainbowGradient)" stroke-width="2" stroke-linejoin="round" filter="url(#fuzzy)" /><polyline points="-46.65,-55.35 -49.51,-54.49 -53.61,-52.84 -57.79,-51.08 -61.55,-49.38 -64.78,-47.69 -67.39,-45.97 -69.33,-44.21 -70.59,-42.4 -71.36,-40.57 -72.01,-38.69 -72.92,-36.77 -74.43,-34.79 -76.74,-32.75 -79.9,-30.67 -83.79,-28.55 -88.14,-26.43 -92.58,-24.31 -96.7,-22.2 -100.27,-20.1 -103.28,-18.01 -105.97,-15.9 -108.7,-13.75 -111.77,-11.57 -115.28,-9.34 -119.09,-7.08 -122.92,-4.83 -126.44,-2.58 -129.36,-0.33 -131.45,1.92 -132.69,4.15 -133.64,6.27 -135.59,8.19 -138.67,9.92" fill="none" stroke="url(#rainbowGradient)" stroke-width="2" stroke-linejoin="round" filter="url(#fuzzy)" /><polyline points="-50.24,-52.55 -53.36,-50.78 -57.67,-49.17 -60.5,-47.56 -62.08,-45.87 -63.76,-44.1 -66.26,-42.28 -69.44,-40.42 -72.81,-38.53 -76.07,-36.6 -79.25,-34.61 -82.49,-32.56 -85.89,-30.46 -89.35,-28.33 -92.67,-26.2 -95.61,-24.07 -98.07,-21.96 -100.05,-19.84 -101.62,-17.73 -102.88,-15.59 -103.91,-13.43 -104.85,-11.24 -105.88,-9.01 -107.23,-6.77 -109.14,-4.52 -111.69,-2.27 -114.74,-0.03 -117.93,2.19 -120.81,4.38 -123.04,6.55 -124.64,8.69 -125.92,10.81 -127.39,12.92 -129.48,15.03 -132.36,17.15 -135.85,19.24 -138.82,21.18 -139.01,22.38" fill="none" stroke="url(#rainbowGradient)" stroke-width="2" stroke-linejoin="round" filter="url(#fuzzy)" /><polyline points="-50.24,-52.55 -52.23,-50.8 -55.75,-49.21 -60.21,-47.64 -63.86,-45.98 -66.06,-44.23 -67.46,-42.43 -69.17,-40.6 -72,-38.76 -76.1,-36.87 -80.93,-34.92 -85.64,-32.9 -89.54,-30.82 -92.41,-28.71 -94.56,-26.58 -96.59,-24.47 -98.94,-22.38 -101.65,-20.32 -104.5,-18.28 -107.2,-16.25 -109.71,-14.18 -112.25,-12 -115.09,-9.68 -118.56,-7.28 -122.94,-4.99 -126.08,-3.08" fill="none" stroke="url(#rainbowGradient)" stroke-width="2" stroke-linejoin="round" filter="url(#fuzzy)" /><polyline points="69.25,-17.74 71.25,-15.09 73.49,-12.46 75.44,-10.09 76.81,-7.95 77.84,-5.86 79,-3.73 80.61,-1.51 82.74,0.74 85.13,2.99 87.42,5.19 89.39,7.35 91.1,9.49 92.77,11.65 94.59,13.84 96.61,16.06 98.71,18.27 100.78,20.44 102.74,22.51 104.44,24.45 105.7,26.28 106.65,28.16 107.66,30.37 107.14,32.73" fill="none" stroke="url(#rainbowGradient)" stroke-width="2" stroke-linejoin="round" filter="url(#fuzzy)" /><polyline points="-51.88,-50.62 -53.26,-49.09 -54.45,-47.58 -55.67,-45.93 -56.94,-44.16 -58.2,-42.34 -59.43,-40.5 -60.61,-38.64 -61.73,-36.75 -62.8,-34.78 -63.81,-32.75 -64.76,-30.66 -65.64,-28.54 -66.45,-26.42 -67.19,-24.3 -67.85,-22.21 -68.46,-20.14 -69.01,-18.07 -69.5,-16 -69.96,-13.89 -70.36,-11.71 -70.72,-9.46 -71.01,-7.2 -71.24,-4.97 -71.41,-2.79 -71.53,-0.57 -71.59,1.85 -71.56,4.37" fill="none" stroke="url(#rainbowGradient)" stroke-width="2" stroke-linejoin="round" filter="url(#fuzzy)" /><polyline points="-54.83,-47.17 -60.43,-45.41 -64.21,-43.54 -67.72,-41.61 -69.97,-39.68 -70.78,-37.76 -70.91,-35.84 -71.44,-33.93 -73.03,-32.02 -75.77,-30.09 -79.18,-28.13 -82.59,-26.13 -85.48,-24.09 -87.65,-21.99 -89.28,-19.86 -90.74,-17.69 -92.42,-15.5 -94.49,-13.32 -96.85,-11.15 -99.15,-9.01 -101.05,-6.88 -102.69,-4.88 -105.75,-3.87" fill="none" stroke="url(#rainbowGradient)" stroke-width="2" stroke-linejoin="round" filter="url(#fuzzy)" /><polyline points="-54.83,-47.17 -56.09,-45.37 -57.44,-43.46 -58.72,-41.5 -59.9,-39.53 -60.97,-37.58 -61.95,-35.63 -62.84,-33.68 -63.65,-31.72 -64.4,-29.73 -65.09,-27.72 -65.74,-25.66 -66.36,-23.57 -66.92,-21.43 -67.44,-19.26 -67.88,-17.07 -68.25,-14.88 -68.55,-12.68 -68.77,-10.48 -68.93,-8.29 -69.04,-6.09 -69.09,-3.88 -69.1,-1.64 -69.07,0.63 -68.98,2.93 -68.83,5.27 -68.6,7.62 -68.28,9.96 -67.89,12.26 -67.43,14.49 -66.93,16.64 -66.38,18.75 -65.78,20.87 -65.1,23.01 -64.36,25.05 -63.65,26.69 -63.05,27.58" fill="none" stroke="url(#rainbowGradient)" stroke-width="2" stroke-linejoin="round" filter="url(#fuzzy)" /><polyline points="-56.07,-45.29 -57.9,-43.49 -59.43,-41.49 -60.91,-39.53 -62.53,-37.59 -64.49,-35.67 -67.03,-33.74 -70.3,-31.8 -74.26,-29.85 -78.67,-27.86 -83.12,-25.83 -87.2,-23.76 -90.59,-21.64 -93.22,-19.49 -95.22,-17.31 -96.89,-15.13 -98.55,-12.94 -100.38,-10.77 -102.39,-8.61 -104.36,-6.45 -106.02,-4.29 -107.16,-2.11 -107.8,0.11 -108.25,2.36 -109.08,4.65 -110.75,7.07 -113.05,9.89 -114.84,12.96" fill="none" stroke="url(#rainbowGradient)" stroke-width="2" stroke-linejoin="round" filter="url(#fuzzy)" /><polyline points="-59.51,-40.75 -58.06,-39.26 -56.47,-37.41 -54.3,-35.48 -52.96,-33.55 -52.79,-31.6 -53.27,-29.64 -53.67,-27.63 -53.46,-25.58 -52.48,-23.49 -50.9,-21.35 -49.17,-19.18 -47.75,-16.99 -46.92,-14.79 -46.71,-12.6 -46.89,-10.41 -47.07,-8.23 -46.94,-6.04 -46.32,-3.84 -45.26,-1.62 -43.96,0.64 -42.65,2.94 -41.4,5.28 -40.1,7.64 -38.56,9.99 -36.63,12.29 -34.31,14.5 -31.79,16.62 -29.28,18.7 -26.87,20.84 -24.38,23.09 -21.58,25.31 -18.61,27.21" fill="none" stroke="url(#rainbowGradient)" stroke-width="2" stroke-linejoin="round" filter="url(#fuzzy)" /><polyline points="-62.72,-35 -63.83,-33.28 -64.98,-31.44 -66.02,-29.49 -67.05,-27.49 -68.23,-25.44 -69.58,-23.34 -70.96,-21.19 -72.2,-19 -73.23,-16.8 -74.09,-14.6 -74.89,-12.41 -75.73,-10.22 -76.62,-8.04 -77.53,-5.86 -78.37,-3.66 -79.04,-1.43 -79.51,0.83 -79.81,3.13 -80,5.46 -80.13,7.8 -80.25,10.13 -80.39,12.41 -80.54,14.62 -80.71,16.77 -80.83,18.87 -80.77,20.97 -80.42,23.07 -79.79,25.12 -79.14,27.08 -78.69,29.19 -78.34,32.58" fill="none" stroke="url(#rainbowGradient)" stroke-width="2" stroke-linejoin="round" filter="url(#fuzzy)" /><polyline points="68.94,-19.23 71.66,-17.39 76.79,-15.03 84.31,-12.58 91.67,-10.26 97.19,-8.08 100.33,-5.96 101.37,-3.81 101.22,-1.6 100.93,0.65 101.24,2.89 102.29,5.09 103.76,7.25 105.28,9.39 106.78,11.55 108.66,13.74 111.45,15.96 115.25,18.19 119.46,20.38 123.02,22.47 125.54,24.38 128.2,26.1 132.16,27.87 133.12,30.67" fill="none" stroke="url(#rainbowGradient)" stroke-width="2" stroke-linejoin="round" filter="url(#fuzzy)" /><polyline points="-66.97,-26.44 -67.19,-25.15 -67.76,-23.27 -68.47,-21.17 -69.24,-19.09 -69.99,-17.03 -70.7,-14.94 -71.36,-12.77 -71.96,-10.55 -72.52,-8.29 -73.01,-6.02 -73.42,-3.77 -73.76,-1.53 -74.04,0.69 -74.31,2.89 -74.59,5.07 -74.88,7.22 -75.19,9.36 -75.5,11.49 -75.79,13.62 -76.04,15.76 -76.2,17.92 -76.22,20.1 -76.03,22.29 -75.6,24.48 -74.95,26.63 -74.15,28.74 -73.32,30.78 -72.56,32.76 -71.9,34.68 -71.35,36.53 -70.91,38.3 -70.49,40.05 -69.79,41.96 -68.3,43.97" fill="none" stroke="url(#rainbowGradient)" stroke-width="2" stroke-linejoin="round" filter="url(#fuzzy)" /><polyline points="-67.28,-25.4 -71.97,-23.13 -71.9,-20.9 -71.82,-18.67 -72.52,-16.44 -73.64,-14.22 -74.62,-12.02 -75.23,-9.85 -75.56,-7.68 -75.85,-5.5 -76.35,-3.3 -77.16,-1.07 -78.25,1.2 -79.48,3.51 -80.65,5.84 -81.62,8.17 -82.27,10.48 -82.61,12.74 -82.67,14.94 -82.52,17.09 -82.2,19.21 -81.75,21.3 -81.14,23.37 -80.43,25.43 -79.69,27.47 -79.09,29.5 -78.81,31.51 -78.89,33.51 -79.15,35.51 -79.21,37.52 -78.75,39.63 -77.94,41.81" fill="none" stroke="url(#rainbowGradient)" stroke-width="2" stroke-linejoin="round" filter="url(#fuzzy)" /><polyline points="69.25,-19.01 69.72,-17.77 71.05,-16.08 73.77,-14.04 77.29,-11.85 80.25,-9.6 81.71,-7.37 81.77,-5.15 81.16,-2.94 80.72,-0.7 81.02,1.56 82.21,3.83 84.04,6.08 86.07,8.29 87.87,10.45 89.28,12.58 90.53,14.69 92.05,16.79 94.2,18.89 96.9,21 99.5,23.14 101.15,25.31 101.33,27.47 100.53,29.57 100.51,31.68 103.95,34.17" fill="none" stroke="url(#rainbowGradient)" stroke-width="2" stroke-linejoin="round" filter="url(#fuzzy)" /><polyline points="67.29,-25.55 74.69,-22.1 75.57,-19.67 76.44,-17.43 78.89,-15.14 82.98,-12.82 88.31,-10.55 94.28,-8.35 100.23,-6.2 105.5,-4.04 109.62,-1.84 112.41,0.4 114.06,2.64 114.99,4.84 115.88,6.99 117.45,9.11 120.15,11.25 123.84,13.44 127.6,15.68 130.44,17.95 132.48,20.23 135.34,22.6 138.39,25.23" fill="none" stroke="url(#rainbowGradient)" stroke-width="2" stroke-linejoin="round" filter="url(#fuzzy)" /><polyline points="64.37,-32.32 63.36,-34.87 63.23,-36.7 63.13,-38.46 62.73,-40.28 62.14,-42.1 61.62,-43.87 61.34,-45.57 61.27,-47.19 61.25,-48.76 61.09,-50.27 60.67,-51.75 60.01,-53.22 59.2,-54.69 58.34,-56.16 57.46,-57.62 56.47,-59.05 55.24,-60.43 53.68,-61.73 51.85,-62.91 49.92,-63.99 48.04,-65 46.09,-65.94 43.82,-66.82 41.41,-67.77" fill="none" stroke="url(#rainbowGradient)" stroke-width="2" stroke-linejoin="round" filter="url(#fuzzy)" /><polyline points="59.59,-40.41 58.15,-42.72 57.05,-44.42 56.09,-46.03 55.25,-47.63 54.35,-49.18 53.25,-50.69 51.91,-52.18 50.39,-53.66 48.78,-55.14 47.13,-56.6 45.42,-58.04 43.64,-59.42 41.78,-60.74 39.86,-61.97 37.92,-63.11 35.98,-64.17 34.06,-65.15 32.16,-66.06 30.23,-66.91 28.26,-67.72 26.22,-68.48 24.09,-69.2 21.89,-69.87 19.66,-70.5 17.42,-71.07 15.22,-71.56 13.07,-71.99 10.94,-72.33 8.76,-72.61 6.49,-72.82 4.07,-72.97 1.5,-73.06 -1.18,-73.09 -3.94,-73.06 -6.76,-72.96 -9.78,-72.77 -13.59,-72.38" fill="none" stroke="url(#rainbowGradient)" stroke-width="2" stroke-linejoin="round" filter="url(#fuzzy)" /><polyline points="59.59,-40.41 58.21,-42.7 57.39,-44.39 56.69,-46 55.99,-47.58 55.35,-49.13 54.8,-50.63 54.22,-52.1 53.41,-53.57 52.2,-55.04 50.56,-56.5 48.62,-57.95 46.54,-59.34 44.49,-60.67 42.59,-61.91 40.87,-63.06 39.32,-64.12 37.85,-65.1 36.36,-66.01 34.75,-66.85 32.92,-67.65 30.88,-68.42 28.67,-69.16 26.32,-69.87 23.85,-70.54 21.25,-71.15 18.59,-71.7 16.13,-72.16 14.26,-72.5 13,-72.69" fill="none" stroke="url(#rainbowGradient)" stroke-width="2" stroke-linejoin="round" filter="url(#fuzzy)" /><polyline points="51.48,-51.26 50.48,-52.29 49.27,-53.79 48.8,-55.32 48.64,-56.83 48.14,-58.29 47.01,-59.7 45.34,-61.01 43.31,-62.23 41.1,-63.34 38.82,-64.36 36.57,-65.3 34.4,-66.18 32.31,-67 30.25,-67.79 28.21,-68.54 26.15,-69.25 24.11,-69.94 22.1,-70.57 20.12,-71.15 18.14,-71.65 16.1,-72.08 13.89,-72.42 11.4,-72.69 8.58,-72.89 5.54,-73.05 2.47,-73.18 -0.78,-73.33" fill="none" stroke="url(#rainbowGradient)" stroke-width="2" stroke-linejoin="round" filter="url(#fuzzy)" /><polyline points="50.4,-51.66 48.43,-53.77 47.6,-55.42 47.71,-56.93 47.94,-58.41 47.45,-59.82 45.91,-61.14 43.58,-62.35 40.94,-63.45 38.41,-64.46 36.21,-65.39 34.33,-66.27 32.66,-67.09 31.01,-67.87 29.24,-68.62 27.28,-69.32 25.12,-69.98 22.79,-70.58 20.35,-71.12 17.86,-71.6 15.32,-72 12.71,-72.32 10.01,-72.58 7.17,-72.77 4.15,-72.9 0.96,-72.97 -2.42,-72.98 -5.94,-72.92 -9.57,-72.8 -13.25,-72.62 -16.91,-72.39 -20.51,-72.11 -24.1,-71.79 -27.86,-71.39 -32.08,-70.86 -36.72,-70.12" fill="none" stroke="url(#rainbowGradient)" stroke-width="2" stroke-linejoin="round" filter="url(#fuzzy)" /><polyline points="45.7,-56.23 44.28,-58.01 43.72,-59.18 42.56,-60.36 40.79,-61.58 38.78,-62.76 36.76,-63.85 34.78,-64.86 32.81,-65.79 30.83,-66.68 28.82,-67.52 26.79,-68.31 24.75,-69.05 22.69,-69.74 20.59,-70.36 18.44,-70.92 16.23,-71.42 13.96,-71.86 11.65,-72.23 9.3,-72.52 6.9,-72.75 4.42,-72.91 1.84,-73 -0.81,-73.03 -3.46,-72.99 -6.04,-72.89 -8.52,-72.74 -10.99,-72.53 -13.67,-72.25 -16.87,-71.86 -20.68,-71.33" fill="none" stroke="url(#rainbowGradient)" stroke-width="2" stroke-linejoin="round" filter="url(#fuzzy)" /><polyline points="42.5,-58.79 41.09,-60.17 39.13,-61.6 37.16,-62.88 35.48,-63.98 34.1,-64.95 32.98,-65.85 32.05,-66.71 31.21,-67.55 30.26,-68.34 29.05,-69.09 27.48,-69.77 25.6,-70.39 23.51,-70.95 21.26,-71.46 18.85,-71.9 16.19,-72.28 13.24,-72.58 10.01,-72.81 6.52,-72.98 2.74,-73.09 -1.43,-73.14 -5.94,-73.1 -10.51,-72.97 -15.05,-72.69" fill="none" stroke="url(#rainbowGradient)" stroke-width="2" stroke-linejoin="round" filter="url(#fuzzy)" /><polyline points="40.9,-60.31 39.19,-61.73 38.91,-62.79 39.29,-63.76 39.28,-64.7 38.36,-65.59 36.71,-66.43 34.71,-67.22 32.67,-67.98 30.71,-68.71 28.84,-69.41 26.98,-70.07 25.06,-70.68 23.01,-71.22 20.76,-71.69 18.26,-72.08 15.47,-72.4 12.38,-72.65 9,-72.84 5.39,-72.96 1.6,-73.04 -2.31,-73.05 -6.35,-73 -10.53,-72.88 -14.85,-72.7 -19.22,-72.45 -23.5,-72.16 -27.86,-71.89" fill="none" stroke="url(#rainbowGradient)" stroke-width="2" stroke-linejoin="round" filter="url(#fuzzy)" /><polyline points="27.36,-67.73 26.07,-68.81 25.37,-69.52 24.23,-70.13 22.53,-70.69 20.24,-71.21 17.56,-71.68 14.72,-72.07 11.88,-72.38 9.07,-72.63 6.25,-72.8 3.35,-72.9 0.38,-72.94 -2.65,-72.92 -5.71,-72.83 -8.77,-72.67 -11.83,-72.45 -14.9,-72.17 -18,-71.83 -21.19,-71.42 -24.56,-70.95 -28.17,-70.41 -32.06,-69.81 -36.2,-69.14 -40.53,-68.41 -44.95,-67.6 -49.36,-66.73 -53.73,-65.79 -58.09,-64.8 -62.47,-63.76 -66.93,-62.69 -71.52,-61.6 -76.38,-60.47 -81.72,-59.27 -87.78,-57.96 -94.67,-56.51 -100.91,-55.1" fill="none" stroke="url(#rainbowGradient)" stroke-width="2" stroke-linejoin="round" filter="url(#fuzzy)" /><polyline points="26.96,-67.9 23.18,-68.88 20.48,-69.69 18.13,-70.38 15.97,-70.97 13.97,-71.47 12.1,-71.9 10.29,-72.24 8.48,-72.52 6.61,-72.73 4.66,-72.88 2.65,-72.99 0.61,-73.03 -1.43,-73.02 -3.44,-72.95 -5.39,-72.81 -7.25,-72.62 -8.98,-72.38 -10.53,-72.1 -11.86,-71.77 -13.03,-71.38 -14.23,-70.85 -15.8,-70.12" fill="none" stroke="url(#rainbowGradient)" stroke-width="2" stroke-linejoin="round" filter="url(#fuzzy)" /><polyline points="23.34,-69.05 25.21,-69.81 22.18,-70.47 18.75,-71.04 15.95,-71.53 13.8,-71.95 11.96,-72.28 10.09,-72.54 7.98,-72.74 5.53,-72.88 2.77,-72.97 -0.25,-73 -3.47,-72.96 -6.81,-72.87 -10.17,-72.72 -13.47,-72.51 -16.7,-72.24 -19.9,-71.9 -23.21,-71.49 -26.77,-70.99 -30.71,-70.4 -35.1,-69.72 -39.96,-68.96 -45.37,-68.14 -51.39,-67.26 -57.84,-66.33 -63.8,-65.45 -68.56,-64.95" fill="none" stroke="url(#rainbowGradient)" stroke-width="2" stroke-linejoin="round" filter="url(#fuzzy)" /><polyline points="16.26,-71.48 14.02,-71.88 11.82,-72.27 9.9,-72.57 7.93,-72.78 5.74,-72.92 3.32,-73 0.77,-73.02 -1.8,-72.98 -4.35,-72.87 -6.87,-72.69 -9.42,-72.45 -12.03,-72.15 -14.73,-71.79 -17.54,-71.36 -20.42,-70.87 -23.35,-70.31 -26.28,-69.69 -29.17,-69 -31.99,-68.24 -34.76,-67.41 -37.52,-66.53 -40.37,-65.58 -43.38,-64.58 -46.6,-63.53 -49.99,-62.44 -53.44,-61.31 -56.79,-60.14 -59.91,-58.9 -62.79,-57.61 -65.54,-56.25 -68.39,-54.84 -71.53,-53.36 -74.98,-51.82 -78.46,-50.21 -81.67,-48.56 -84.82,-46.94 -88.96,-45.29" fill="none" stroke="url(#rainbowGradient)" stroke-width="2" stroke-linejoin="round" filter="url(#fuzzy)" /><polyline points="6.25,-72.94 3.08,-73.13 0.24,-73.17 -2.4,-73.1 -4.82,-72.96 -7.11,-72.77 -9.39,-72.52 -11.78,-72.2 -14.29,-71.83 -16.87,-71.38 -19.46,-70.88 -21.99,-70.31 -24.37,-69.68 -26.61,-68.98 -28.71,-68.21 -30.74,-67.37 -32.81,-66.48 -34.99,-65.52 -37.37,-64.51 -39.94,-63.46 -42.68,-62.37 -45.52,-61.24 -48.4,-60.05 -51.26,-58.82 -54.11,-57.52 -56.96,-56.16 -59.88,-54.75 -62.91,-53.27 -66.04,-51.73 -69.11,-50.14 -71.89,-48.52 -74.19,-46.91 -76.31,-45.34 -79.48,-43.84" fill="none" stroke="url(#rainbowGradient)" stroke-width="2" stroke-linejoin="round" filter="url(#fuzzy)" /><polyline points="2.44,-73.21 -0.03,-73.23 -2.63,-73.14 -4.99,-72.98 -7.36,-72.78 -9.96,-72.53 -12.82,-72.21 -15.83,-71.82 -18.85,-71.37 -21.84,-70.86 -24.8,-70.29 -27.78,-69.65 -30.78,-68.94 -33.78,-68.16 -36.8,-67.32 -39.87,-66.41 -43.05,-65.45 -46.39,-64.43 -49.91,-63.38 -53.61,-62.28 -57.55,-61.13 -61.79,-59.94 -66.42,-58.69 -71.46,-57.38 -76.85,-56.01 -82.41,-54.58 -87.91,-53.1 -93.15,-51.56 -98.01,-49.97 -102.44,-48.33 -106.48,-46.65 -110.29,-44.91 -114.19,-43.09 -118.49,-41.2 -123.26,-39.32 -128.48,-37.48" fill="none" stroke="url(#rainbowGradient)" stroke-width="2" stroke-linejoin="round" filter="url(#fuzzy)" />
    </g>
    
        <g id="lineNose">
        <path d="M -8.09,13.44 Q 10, 25.665 0.9550000000000001, -3.794" fill="none" stroke="black" stroke-width="3" stroke-linejoin="round" filter="url(#fuzzy)"></path>
        </g>
      
    <g id="mouth">
      <polyline points="-29.06,26.2 -28.61,27.48 -28.15,28.72 -27.68,29.92 -27.19,31.07 -26.68,32.19 -26.17,33.26 -25.63,34.29 -25.09,35.28 -24.54,36.23 -23.97,37.14 -23.39,38.01 -22.8,38.85 -22.19,39.65 -21.58,40.41 -20.96,41.14 -20.32,41.83 -19.68,42.49 -19.03,43.11 -18.37,43.7 -17.7,44.26 -17.02,44.78 -16.33,45.28 -15.64,45.74 -14.94,46.17 -14.23,46.58 -13.51,46.95 -12.79,47.3 -12.06,47.61 -11.33,47.9 -10.59,48.17 -9.85,48.41 -9.1,48.62 -8.35,48.81 -7.59,48.97 -6.83,49.11 -6.07,49.23 -5.3,49.33 -4.53,49.4 -3.76,49.45 -2.99,49.49 -2.22,49.5 -1.44,49.49 -0.67,49.47 0.11,49.42 0.89,49.36 1.66,49.29 2.44,49.19 3.21,49.09 3.99,48.96 4.76,48.82 5.53,48.67 6.3,48.51 7.06,48.33 7.82,48.14 8.58,47.94 9.34,47.73 10.09,47.51 10.83,47.28 11.58,47.04 12.31,46.79 13.05,46.54 13.77,46.28 14.49,46.01 15.21,45.74 15.91,45.46 16.61,45.18 17.31,44.89 17.99,44.6 18.67,44.31 19.34,44.01 19.99,43.71 20.65,43.42 21.29,43.12 21.92,42.82 22.54,42.53 23.15,42.23 23.75,41.94 24.34,41.65 24.91,41.37 25.48,41.09 26.03,40.81 26.57,40.54 27.1,40.27 27.61,40.02 28.11,39.76 28.6,39.52 29.07,39.28 29.53,39.06 29.97,38.84 30.4,38.64 30.81,38.44 31.21,38.26 31.59,38.08 31.95,37.92 32.3,37.78 32.63,37.65 32.94,37.53 33.23,37.43 33.5,37.34 33.5,37.34 32.88,37.33 32.25,37.34 31.63,37.35 31,37.36 30.38,37.39 29.75,37.42 29.12,37.46 28.5,37.5 27.87,37.56 27.25,37.61 26.62,37.67 26,37.74 25.37,37.81 24.75,37.89 24.12,37.97 23.49,38.06 22.87,38.15 22.24,38.24 21.62,38.33 20.99,38.43 20.37,38.53 19.74,38.63 19.11,38.73 18.49,38.83 17.86,38.94 17.24,39.04 16.61,39.15 15.99,39.25 15.36,39.36 14.73,39.46 14.11,39.56 13.48,39.67 12.86,39.76 12.23,39.86 11.61,39.96 10.98,40.05 10.36,40.14 9.73,40.23 9.1,40.31 8.48,40.39 7.85,40.46 7.23,40.53 6.6,40.6 5.98,40.66 5.35,40.71 4.72,40.76 4.1,40.8 3.47,40.83 2.85,40.86 2.22,40.88 1.6,40.89 0.97,40.9 0.35,40.9 -0.28,40.89 -0.91,40.87 -1.53,40.84 -2.16,40.8 -2.78,40.75 -3.41,40.69 -4.03,40.62 -4.66,40.54 -5.29,40.45 -5.91,40.34 -6.54,40.23 -7.16,40.1 -7.79,39.96 -8.41,39.81 -9.04,39.65 -9.67,39.47 -10.29,39.27 -10.92,39.07 -11.54,38.85 -12.17,38.61 -12.79,38.36 -13.42,38.09 -14.04,37.81 -14.67,37.51 -15.3,37.2 -15.92,36.87 -16.55,36.52 -17.17,36.16 -17.8,35.77 -18.42,35.37 -19.05,34.95 -19.68,34.52 -20.3,34.06 -20.93,33.58 -21.55,33.09 -22.18,32.57 -22.8,32.04 -23.43,31.48 -24.05,30.9 -24.68,30.31 -25.31,29.69 -25.93,29.04 -26.56,28.38 -27.18,27.69 -27.81,26.98 -28.43,26.25" fill="rgb(215,127,140)" stroke="black" stroke-width="3" stroke-linejoin="round" filter="url(#fuzzy)" />
    </g>
  </svg>
  