
  <svg viewBox="-100 -100 200 200" xmlns="http://www.w3.org/2000/svg" width="500" height="500" id="face-svg">
    <defs>
      <clipPath id="leftEyeClipPath">
        <polyline points="36.78,8.32 36.63,8.03 36.43,7.72 36.2,7.4 35.94,7.08 35.63,6.74 35.29,6.39 34.9,6.04 34.48,5.68 34.02,5.31 33.52,4.94 32.98,4.57 32.4,4.19 31.78,3.81 31.13,3.42 30.44,3.04 29.88,2.59 29.24,2.14 28.54,1.69 27.77,1.24 26.94,0.78 26.05,0.33 25.1,-0.12 24.09,-0.56 23.03,-0.99 21.93,-1.42 20.77,-1.83 19.58,-2.23 18.34,-2.62 17.08,-2.98 15.78,-3.34 14.46,-3.67 13.12,-3.98 11.76,-4.27 10.39,-4.54 9.02,-4.78 7.63,-5 6.25,-5.2 4.87,-5.37 3.49,-5.51 2.13,-5.63 0.78,-5.72 -0.56,-5.79 -1.87,-5.83 -3.17,-5.84 -4.43,-5.83 -5.67,-5.79 -6.88,-5.73 -8.06,-5.64 -9.21,-5.53 -10.32,-5.39 -11.4,-5.24 -12.44,-5.06 -13.44,-4.86 -14.4,-4.65 -15.33,-4.41 -16.22,-4.16 -17.07,-3.9 -17.88,-3.62 -18.66,-3.33 -19.4,-3.04 -20.11,-2.73 -20.79,-2.41 -21.43,-2.1 -22.05,-1.77 -22.64,-1.45 -23.2,-1.12 -23.73,-0.79 -24.24,-0.45 -24.72,-0.11 -25.17,0.23 -25.6,0.57 -26.01,0.92 -26.39,1.26 -26.75,1.61 -27.09,1.95 -27.41,2.29 -27.71,2.63 -27.99,2.97 -28.26,3.3 -28.1,6.94 -27.84,6.83 -27.57,6.72 -27.29,6.62 -26.99,6.51 -26.68,6.4 -26.35,6.29 -26,6.18 -25.63,6.07 -25.25,5.96 -24.84,5.86 -24.42,5.76 -23.98,5.66 -23.51,5.56 -23.02,5.47 -22.52,5.38 -21.99,5.29 -21.44,5.21 -20.86,5.13 -20.26,5.05 -19.63,4.98 -18.97,4.92 -18.28,4.87 -17.57,4.82 -16.82,4.79 -16.04,4.76 -15.24,4.74 -14.4,4.74 -13.53,4.75 -12.63,4.77 -11.7,4.8 -10.74,4.84 -9.75,4.9 -8.73,4.96 -7.69,5.05 -6.62,5.14 -5.53,5.24 -4.42,5.36 -3.28,5.49 -2.13,5.63 -0.96,5.78 0.23,5.94 1.43,6.11 2.64,6.29 3.86,6.48 5.08,6.67 6.3,6.86 7.53,7.07 8.75,7.27 9.96,7.48 11.17,7.69 12.37,7.9 13.55,8.1 14.71,8.31 15.86,8.51 16.98,8.7 18.07,8.89 19.14,9.07 20.18,9.24 21.18,9.4 22.15,9.54 23.08,9.68 23.97,9.8 24.82,9.9 25.63,9.99 26.45,10.09 27.24,10.19 28.02,10.28 28.77,10.36 29.49,10.42 30.19,10.48 30.87,10.52 31.52,10.55 32.14,10.57 32.74,10.58 33.31,10.57 33.85,10.55 34.37,10.51 34.86,10.47 35.32,10.4" />
      </clipPath>
      <clipPath id="rightEyeClipPath">
        <polyline points="-36.02,9.6 -35.97,9.29 -35.88,8.97 -35.75,8.64 -35.57,8.3 -35.34,7.95 -35.07,7.59 -34.76,7.23 -34.4,6.85 -34,6.47 -33.55,6.09 -33.06,5.7 -32.53,5.31 -31.95,4.92 -31.34,4.52 -30.69,4.13 -30.15,3.67 -29.55,3.2 -28.87,2.73 -28.13,2.26 -27.31,1.79 -26.44,1.33 -25.5,0.87 -24.51,0.42 -23.46,-0.02 -22.36,-0.46 -21.21,-0.87 -20.02,-1.28 -18.79,-1.67 -17.52,-2.04 -16.23,-2.39 -14.91,-2.72 -13.56,-3.03 -12.2,-3.32 -10.83,-3.58 -9.45,-3.82 -8.06,-4.04 -6.67,-4.23 -5.29,-4.39 -3.91,-4.53 -2.54,-4.64 -1.19,-4.73 0.15,-4.78 1.46,-4.81 2.76,-4.82 4.02,-4.8 5.26,-4.75 6.47,-4.68 7.65,-4.58 8.8,-4.46 9.91,-4.32 10.98,-4.16 12.02,-3.97 13.01,-3.77 13.97,-3.55 14.89,-3.31 15.77,-3.06 16.62,-2.79 17.42,-2.51 18.19,-2.22 18.93,-1.92 19.63,-1.62 20.29,-1.3 20.93,-0.99 21.53,-0.67 22.11,-0.35 22.66,-0.03 23.18,0.29 23.68,0.62 24.15,0.95 24.59,1.28 25.01,1.61 25.4,1.94 25.77,2.27 26.12,2.6 26.45,2.93 26.75,3.25 27.04,3.57 27.31,3.88 27.56,4.19 27.28,7.54 27.04,7.34 26.79,7.14 26.52,6.94 26.24,6.74 25.94,6.54 25.62,6.35 25.29,6.15 24.95,5.96 24.58,5.77 24.2,5.59 23.8,5.41 23.38,5.23 22.94,5.06 22.48,4.9 22,4.74 21.5,4.59 20.97,4.45 20.43,4.31 19.86,4.17 19.26,4.05 18.63,3.94 17.98,3.84 17.3,3.75 16.6,3.68 15.86,3.63 15.09,3.58 14.29,3.56 13.46,3.55 12.61,3.56 11.72,3.59 10.8,3.63 9.86,3.7 8.89,3.78 7.89,3.88 6.87,4 5.82,4.13 4.75,4.29 3.66,4.46 2.54,4.64 1.41,4.84 0.27,5.06 -0.89,5.28 -2.07,5.52 -3.25,5.77 -4.44,6.03 -5.64,6.3 -6.84,6.57 -8.03,6.85 -9.23,7.13 -10.42,7.41 -11.61,7.69 -12.78,7.97 -13.94,8.24 -15.08,8.51 -16.21,8.77 -17.32,9.02 -18.4,9.26 -19.45,9.48 -20.48,9.69 -21.48,9.88 -22.44,10.05 -23.37,10.2 -24.26,10.33 -25.12,10.44 -25.96,10.57 -26.78,10.69 -27.58,10.79 -28.36,10.88 -29.11,10.95 -29.85,11.01 -30.56,11.05 -31.24,11.07 -31.9,11.07 -32.54,11.06 -33.14,11.02 -33.73,10.97 -34.28,10.89 -34.81,10.79 -35.31,10.67" />
      </clipPath>
      <filter id="fuzzy">
        <feTurbulence id="turbulence" baseFrequency="0.05" numOctaves="3" type="noise" result="noise" />
        <feDisplacementMap in="SourceGraphic" in2="noise" scale="2" />
      </filter>
      <linearGradient id="rainbowGradient" x1="0%" y1="0%" x2="100%" y2="0%">
        <stop offset="0%" style="stop-color: rgb(167, 133, 106); stop-opacity: 1" />
        <stop offset="50%" style="stop-color: rgb(154, 205, 50); stop-opacity: 1" />
        <stop offset="100%" style="stop-color: rgb(255, 127, 80); stop-opacity: 1" />
      </linearGradient>
    </defs>
    <rect x="-100" y="-100" width="100%" height="100%" fill="rgb(255, 240, 245)" />
    <polyline id="faceContour" points="71.86,1.8 71.98,3 71.95,2.09 71.96,3.46 71.79,5.72 71.67,7.06 71.61,8.72 71.48,9.66 71.25,11.47 71.21,11.66 71.17,13.76 70.75,16.06 71.08,14.7 70.57,18.51 70.62,17.85 70.01,20.75 70.02,21.93 69.29,24.81 68.83,27.39 68.63,27.22 68.79,27.4 67.93,30.16 67.41,31.69 67.47,32.34 66.22,35.4 66.51,34.99 66.49,34.95 66.05,36.19 64.92,39 64.55,40.05 63.99,42.1 63.43,43.18 62.36,45.66 62.06,46.68 61.57,46.72 61.6,47.38 59.92,50.56 59.79,51.04 59.39,51.63 58.98,52.29 58.56,52.92 57.38,54.89 57.34,55.55 56.49,56.47 55.83,57.4 55.32,58.34 54.21,60.32 52.97,62 52.05,63.44 50.78,64.44 50.41,65.33 50.59,65.28 48.06,67.99 47.77,68.42 47.96,67.84 46.58,69.69 47.38,69.13 44.8,71.76 43.92,72.4 42.12,74.11 43.05,73.57 41.49,74.69 41.04,75.29 39.6,76.49 38.14,77.4 37.11,78.69 35.98,79.12 35.87,79.05 35.35,79.58 34.21,80.61 32.26,81.87 32.7,81.69 30.47,82.6 29.12,83.34 27.77,84.18 28.06,83.95 25.48,85.52 26.45,85.24 24.82,85.83 23.59,86.33 22.08,86.95 20.68,87.45 20.94,87.59 20.53,87.53 17.58,88.77 17.84,88.59 14.49,89.4 13.65,89.84 14.32,89.79 13.03,89.87 9.19,90.94 10.24,90.53 9.17,90.87 7.99,90.98 5.37,91.11 4.87,91.44 2.94,91.43 3.51,91.33 1.51,91.39 0.74,91.33 0.37,91.3 -0.77,91.46 -1.93,91.6 -3.02,91.6 -4.01,91.34 -5.88,90.97 -7.13,90.95 -8.73,90.71 -8.64,90.86 -11.16,90.43 -11.77,90.22 -13.82,89.61 -12.29,90.3 -15.56,89.28 -16.78,89.17 -15.66,89.33 -19.01,88.37 -18.91,88.16 -21.4,87.31 -22.05,87.13 -22.39,86.95 -22.42,86.94 -23.4,86.47 -24.04,86.28 -26.69,84.68 -27.91,84.51 -28.07,84.41 -29.81,83.08 -29.23,83.34 -31.25,82.41 -33.36,81.2 -34.6,80.03 -34.27,80.43 -35.96,79.23 -36.42,79.12 -38.61,77.31 -38.04,77.78 -39.51,76.27 -39.4,76.38 -39.97,76.04 -41.83,74.33 -44.14,72.3 -42.95,73.39 -44.71,71.85 -45.68,70.65 -47.42,69.14 -46.42,69.72 -47.53,68.62 -49.28,66.43 -50.76,65.09 -51.69,63.69 -51.56,64.14 -53.14,61.47 -52.74,62.21 -53.58,61.1 -55.68,57.82 -55.11,58.91 -56.5,56.28 -57.24,55.55 -57.79,54.29 -57.61,54.51 -58.98,52.35 -60.25,50.02 -60.7,49.13 -60.72,49.26 -62.2,46.29 -61.95,46.17 -62.43,45.52 -63.14,43.76 -63.4,43.07 -64.53,40.28 -64.83,39.72 -65.56,37.17 -65.05,38.94 -66.15,35.61 -66.51,35.34 -66.96,33.58 -67.05,33.75 -67.88,29.98 -67.64,31.09 -67.83,30.11 -68.82,26.91 -68.92,25.54 -69.5,23.21 -69.67,22.64 -70.15,20.87 -70.33,19.87 -70.56,16.67 -70.74,16.25 -70.81,16.01 -70.78,15.18 -71.44,12.1 -71.43,10.27 -71.63,8.26 -71.45,10.48 -71.89,6.86 -71.72,4.72 -71.76,3.53 -72.04,1.23 -71.91,1.07 -71.88,-0.43 -71.82,-1.92 -71.88,-2.27 -71.76,-2.9 -71.85,-6.37 -71.58,-8.19 -71.62,-9.76 -71.67,-9.16 -71.39,-11.59 -71.2,-12.29 -70.87,-14.19 -71.11,-14.53 -70.63,-17.21 -70.67,-16.61 -70.34,-19.08 -69.68,-22.05 -69.93,-22.5 -69.67,-22.92 -69.4,-23.71 -68.73,-27.34 -67.96,-29.69 -67.77,-30.84 -68.21,-28.91 -67.32,-31.89 -66.53,-34.85 -66.17,-36.21 -66.4,-34.87 -65.41,-38.41 -65.12,-38.47 -64.49,-40.11 -63.85,-42.52 -63.56,-43.09 -62.86,-44.15 -62.61,-44.89 -61.05,-48.57 -62.36,-45.44 -60.61,-48.75 -60.94,-48.76 -59.09,-52.24 -58.51,-53.33 -57.79,-54.36 -57.22,-55.01 -56.03,-57.23 -57.24,-55.23 -55.1,-58.98 -54.1,-60.36 -53.87,-60.72 -52.9,-62 -51.54,-63.5 -52.14,-62.99 -51.52,-63.57 -49.47,-66.13 -48.63,-67.32 -48.6,-67.38 -47.79,-68.29 -46.85,-69.15 -45.45,-71.01 -43.86,-72.63 -43.41,-72.78 -42.49,-74.06 -42.36,-74.21 -40.95,-75.24 -39.95,-76.08 -40.08,-76.06 -38.55,-77.09 -38.23,-77.66 -36.45,-78.82 -36.77,-78.34 -34.49,-80.54 -33.96,-80.6 -31.97,-81.7 -32.06,-82.09 -30.78,-82.71 -31,-82.82 -29.98,-83.3 -26.82,-85.01 -26.64,-84.97 -26.44,-85.04 -25.4,-85.49 -24.67,-86.01 -21.38,-87.45 -19.95,-87.79 -19.68,-87.91 -18.54,-88.52 -18.93,-88.12 -15.48,-89.38 -15.38,-89.58 -16.09,-89.09 -12.47,-90.03 -13.06,-89.99 -11.68,-90.49 -10.66,-90.66 -9.83,-90.44 -9.05,-90.96 -6.26,-91.16 -6.04,-91.12 -3.96,-91.23 -3.79,-91.44 -3.71,-91.46 -1.43,-91.3 0.66,-91.49 0.68,-91.62 3.23,-91.25 5.1,-91.29 3.11,-91.19 6.51,-91.11 7.08,-91.17 8.88,-90.87 8.47,-90.57 10.71,-90.21 12.31,-90.14 13.78,-89.8 12.3,-90.24 14.62,-89.52 16.31,-88.9 17.64,-88.81 16.98,-89.06 20.79,-87.71 21.16,-87.26 20.94,-87.6 21.26,-87.6 23.07,-86.81 24.45,-86.12 25.26,-85.51 26.76,-85.05 27.23,-84.6 27.88,-84.31 29.59,-83.23 30.7,-82.95 32.34,-81.77 33.19,-80.98 33.1,-81.16 35.51,-79.29 36.88,-78.31 36.43,-78.71 36.61,-78.8 37.98,-77.54 39.78,-76.33 39.83,-76.32 42.34,-74.23 42.12,-73.77 44.2,-72.22 44.81,-71.77 46.07,-70.26 46.3,-70.09 47.95,-68.11 46.46,-69.95 48.71,-67.59 48.97,-66.92 50.59,-64.92 51.69,-63.53 51.44,-63.81 51.33,-64.43 52.89,-62.01 53.51,-60.76 54.56,-59.55 56.26,-57.31 56.05,-57.53 56.24,-56.79 57.65,-54.32 58.09,-53.97 58.65,-52.9 59.51,-51.29 60.19,-49.68 60.39,-49.42 61.39,-47.28 61.91,-46.67 62.62,-45.06 63.39,-42.73 63.5,-42.91 64.26,-40.96 64.39,-40.95 65.16,-38.72 65,-38.92 65.93,-36.96 66.39,-35.69 67.05,-33.03 67.68,-31.32 67.79,-30.41 67.96,-29.91 68.59,-28.05 68.48,-28.65 69.15,-25.53 68.94,-26.4 70.24,-20.64 70.14,-20.51 70.65,-18.17 70.63,-17.8 70.66,-16.17 70.96,-14.55 70.89,-15.26 71.39,-12.11 71.55,-10.29 71.25,-12 71.56,-8.08 71.55,-7.46 71.74,-6.94 71.9,-3.42 72.06,-2.34 71.83,-0.25 71.86,1.8 71.98,3" fill="rgb(165, 42, 42)" stroke="black" stroke-width="1.6666666666666665" stroke-linejoin="round" filter="url(#fuzzy)" />
    <g transform="translate(35.370000000000005 -25.080000000000002)">
      <polyline id="rightCountour" points="-36.02,9.6 -35.97,9.29 -35.88,8.97 -35.75,8.64 -35.57,8.3 -35.34,7.95 -35.07,7.59 -34.76,7.23 -34.4,6.85 -34,6.47 -33.55,6.09 -33.06,5.7 -32.53,5.31 -31.95,4.92 -31.34,4.52 -30.69,4.13 -30.15,3.67 -29.55,3.2 -28.87,2.73 -28.13,2.26 -27.31,1.79 -26.44,1.33 -25.5,0.87 -24.51,0.42 -23.46,-0.02 -22.36,-0.46 -21.21,-0.87 -20.02,-1.28 -18.79,-1.67 -17.52,-2.04 -16.23,-2.39 -14.91,-2.72 -13.56,-3.03 -12.2,-3.32 -10.83,-3.58 -9.45,-3.82 -8.06,-4.04 -6.67,-4.23 -5.29,-4.39 -3.91,-4.53 -2.54,-4.64 -1.19,-4.73 0.15,-4.78 1.46,-4.81 2.76,-4.82 4.02,-4.8 5.26,-4.75 6.47,-4.68 7.65,-4.58 8.8,-4.46 9.91,-4.32 10.98,-4.16 12.02,-3.97 13.01,-3.77 13.97,-3.55 14.89,-3.31 15.77,-3.06 16.62,-2.79 17.42,-2.51 18.19,-2.22 18.93,-1.92 19.63,-1.62 20.29,-1.3 20.93,-0.99 21.53,-0.67 22.11,-0.35 22.66,-0.03 23.18,0.29 23.68,0.62 24.15,0.95 24.59,1.28 25.01,1.61 25.4,1.94 25.77,2.27 26.12,2.6 26.45,2.93 26.75,3.25 27.04,3.57 27.31,3.88 27.56,4.19 27.28,7.54 27.04,7.34 26.79,7.14 26.52,6.94 26.24,6.74 25.94,6.54 25.62,6.35 25.29,6.15 24.95,5.96 24.58,5.77 24.2,5.59 23.8,5.41 23.38,5.23 22.94,5.06 22.48,4.9 22,4.74 21.5,4.59 20.97,4.45 20.43,4.31 19.86,4.17 19.26,4.05 18.63,3.94 17.98,3.84 17.3,3.75 16.6,3.68 15.86,3.63 15.09,3.58 14.29,3.56 13.46,3.55 12.61,3.56 11.72,3.59 10.8,3.63 9.86,3.7 8.89,3.78 7.89,3.88 6.87,4 5.82,4.13 4.75,4.29 3.66,4.46 2.54,4.64 1.41,4.84 0.27,5.06 -0.89,5.28 -2.07,5.52 -3.25,5.77 -4.44,6.03 -5.64,6.3 -6.84,6.57 -8.03,6.85 -9.23,7.13 -10.42,7.41 -11.61,7.69 -12.78,7.97 -13.94,8.24 -15.08,8.51 -16.21,8.77 -17.32,9.02 -18.4,9.26 -19.45,9.48 -20.48,9.69 -21.48,9.88 -22.44,10.05 -23.37,10.2 -24.26,10.33 -25.12,10.44 -25.96,10.57 -26.78,10.69 -27.58,10.79 -28.36,10.88 -29.11,10.95 -29.85,11.01 -30.56,11.05 -31.24,11.07 -31.9,11.07 -32.54,11.06 -33.14,11.02 -33.73,10.97 -34.28,10.89 -34.81,10.79 -35.31,10.67" fill="white" stroke="white" stroke-width="0" stroke-linejoin="round" filter="url(#fuzzy)" />
    </g>
    <g transform="translate(-31.980000000000004 -21.86)">
      <polyline id="leftCountour" points="36.78,8.32 36.63,8.03 36.43,7.72 36.2,7.4 35.94,7.08 35.63,6.74 35.29,6.39 34.9,6.04 34.48,5.68 34.02,5.31 33.52,4.94 32.98,4.57 32.4,4.19 31.78,3.81 31.13,3.42 30.44,3.04 29.88,2.59 29.24,2.14 28.54,1.69 27.77,1.24 26.94,0.78 26.05,0.33 25.1,-0.12 24.09,-0.56 23.03,-0.99 21.93,-1.42 20.77,-1.83 19.58,-2.23 18.34,-2.62 17.08,-2.98 15.78,-3.34 14.46,-3.67 13.12,-3.98 11.76,-4.27 10.39,-4.54 9.02,-4.78 7.63,-5 6.25,-5.2 4.87,-5.37 3.49,-5.51 2.13,-5.63 0.78,-5.72 -0.56,-5.79 -1.87,-5.83 -3.17,-5.84 -4.43,-5.83 -5.67,-5.79 -6.88,-5.73 -8.06,-5.64 -9.21,-5.53 -10.32,-5.39 -11.4,-5.24 -12.44,-5.06 -13.44,-4.86 -14.4,-4.65 -15.33,-4.41 -16.22,-4.16 -17.07,-3.9 -17.88,-3.62 -18.66,-3.33 -19.4,-3.04 -20.11,-2.73 -20.79,-2.41 -21.43,-2.1 -22.05,-1.77 -22.64,-1.45 -23.2,-1.12 -23.73,-0.79 -24.24,-0.45 -24.72,-0.11 -25.17,0.23 -25.6,0.57 -26.01,0.92 -26.39,1.26 -26.75,1.61 -27.09,1.95 -27.41,2.29 -27.71,2.63 -27.99,2.97 -28.26,3.3 -28.1,6.94 -27.84,6.83 -27.57,6.72 -27.29,6.62 -26.99,6.51 -26.68,6.4 -26.35,6.29 -26,6.18 -25.63,6.07 -25.25,5.96 -24.84,5.86 -24.42,5.76 -23.98,5.66 -23.51,5.56 -23.02,5.47 -22.52,5.38 -21.99,5.29 -21.44,5.21 -20.86,5.13 -20.26,5.05 -19.63,4.98 -18.97,4.92 -18.28,4.87 -17.57,4.82 -16.82,4.79 -16.04,4.76 -15.24,4.74 -14.4,4.74 -13.53,4.75 -12.63,4.77 -11.7,4.8 -10.74,4.84 -9.75,4.9 -8.73,4.96 -7.69,5.05 -6.62,5.14 -5.53,5.24 -4.42,5.36 -3.28,5.49 -2.13,5.63 -0.96,5.78 0.23,5.94 1.43,6.11 2.64,6.29 3.86,6.48 5.08,6.67 6.3,6.86 7.53,7.07 8.75,7.27 9.96,7.48 11.17,7.69 12.37,7.9 13.55,8.1 14.71,8.31 15.86,8.51 16.98,8.7 18.07,8.89 19.14,9.07 20.18,9.24 21.18,9.4 22.15,9.54 23.08,9.68 23.97,9.8 24.82,9.9 25.63,9.99 26.45,10.09 27.24,10.19 28.02,10.28 28.77,10.36 29.49,10.42 30.19,10.48 30.87,10.52 31.52,10.55 32.14,10.57 32.74,10.58 33.31,10.57 33.85,10.55 34.37,10.51 34.86,10.47 35.32,10.4" fill="white" stroke="white" stroke-width="0" stroke-linejoin="round" filter="url(#fuzzy)" />
    </g>
    <g transform="translate(35.370000000000005 -25.080000000000002)">
      <polyline id="rightUpper" points="-34.29,11.76 -34.62,11.63 -34.92,11.48 -35.19,11.31 -35.43,11.12 -35.63,10.91 -35.78,10.68 -35.91,10.43 -35.99,10.17 -36.02,9.89 -36.02,9.6 -35.97,9.29 -35.88,8.97 -35.75,8.64 -35.57,8.3 -35.34,7.95 -35.07,7.59 -34.76,7.23 -34.4,6.85 -34,6.47 -33.55,6.09 -33.06,5.7 -32.53,5.31 -31.95,4.92 -31.34,4.52 -30.69,4.13 -30.15,3.67 -29.55,3.2 -28.87,2.73 -28.13,2.26 -27.31,1.79 -26.44,1.33 -25.5,0.87 -24.51,0.42 -23.46,-0.02 -22.36,-0.46 -21.21,-0.87 -20.02,-1.28 -18.79,-1.67 -17.52,-2.04 -16.23,-2.39 -14.91,-2.72 -13.56,-3.03 -12.2,-3.32 -10.83,-3.58 -9.45,-3.82 -8.06,-4.04 -6.67,-4.23 -5.29,-4.39 -3.91,-4.53 -2.54,-4.64 -1.19,-4.73 0.15,-4.78 1.46,-4.81 2.76,-4.82 4.02,-4.8 5.26,-4.75 6.47,-4.68 7.65,-4.58 8.8,-4.46 9.91,-4.32 10.98,-4.16 12.02,-3.97 13.01,-3.77 13.97,-3.55 14.89,-3.31 15.77,-3.06 16.62,-2.79 17.42,-2.51 18.19,-2.22 18.93,-1.92 19.63,-1.62 20.29,-1.3 20.93,-0.99 21.53,-0.67 22.11,-0.35 22.66,-0.03 23.18,0.29 23.68,0.62 24.15,0.95 24.59,1.28 25.01,1.61 25.4,1.94 25.77,2.27 26.12,2.6 26.45,2.93 26.75,3.25 27.04,3.57 27.31,3.88 27.56,4.19 27.79,4.49 28.01,4.79 28.21,5.08 28.4,5.37 28.57,5.64 28.73,5.91 28.87,6.18 29.01,6.43 29.13,6.68 29.24,6.92" fill="none" stroke="black" stroke-width="1.6666666666666665" stroke-linejoin="round" filter="url(#fuzzy)" />
      <polyline id="rightLower" points="-38.77,8.23 -38.55,8.58 -38.3,8.9 -38.02,9.21 -37.72,9.49 -37.39,9.74 -37.03,9.97 -36.64,10.18 -36.23,10.37 -35.78,10.53 -35.31,10.67 -34.81,10.79 -34.28,10.89 -33.73,10.97 -33.14,11.02 -32.54,11.06 -31.9,11.07 -31.24,11.07 -30.56,11.05 -29.85,11.01 -29.11,10.95 -28.36,10.88 -27.58,10.79 -26.78,10.69 -25.96,10.57 -25.12,10.44 -24.26,10.33 -23.37,10.2 -22.44,10.05 -21.48,9.88 -20.48,9.69 -19.45,9.48 -18.4,9.26 -17.32,9.02 -16.21,8.77 -15.08,8.51 -13.94,8.24 -12.78,7.97 -11.61,7.69 -10.42,7.41 -9.23,7.13 -8.03,6.85 -6.84,6.57 -5.64,6.3 -4.44,6.03 -3.25,5.77 -2.07,5.52 -0.89,5.28 0.27,5.06 1.41,4.84 2.54,4.64 3.66,4.46 4.75,4.29 5.82,4.13 6.87,4 7.89,3.88 8.89,3.78 9.86,3.7 10.8,3.63 11.72,3.59 12.61,3.56 13.46,3.55 14.29,3.56 15.09,3.58 15.86,3.63 16.6,3.68 17.3,3.75 17.98,3.84 18.63,3.94 19.26,4.05 19.86,4.17 20.43,4.31 20.97,4.45 21.5,4.59 22,4.74 22.48,4.9 22.94,5.06 23.38,5.23 23.8,5.41 24.2,5.59 24.58,5.77 24.95,5.96 25.29,6.15 25.62,6.35 25.94,6.54 26.24,6.74 26.52,6.94 26.79,7.14 27.04,7.34 27.28,7.54 27.51,7.74 27.73,7.93 27.94,8.13 28.13,8.32 28.31,8.51 28.49,8.69 28.65,8.88 28.81,9.06 28.95,9.23 29.09,9.4" fill="none" stroke="black" stroke-width="2.2222222222222223" stroke-linejoin="round" filter="url(#fuzzy)" />
      <circle r="3.4699999999999998" cx="-21.539277296941126" cy="4.65891949904986" stroke="black" fill="none" stroke-width="1.0" filter="url(#fuzzy)" clip-path="url(#rightEyeClipPath)" /><circle r="3.2800000000000002" cx="-21.884277296941125" cy="4.703919499049861" stroke="black" fill="none" stroke-width="1.0" filter="url(#fuzzy)" clip-path="url(#rightEyeClipPath)" /><circle r="3.4699999999999998" cx="-21.894277296941127" cy="4.0189194990498605" stroke="black" fill="none" stroke-width="1.0" filter="url(#fuzzy)" clip-path="url(#rightEyeClipPath)" /><circle r="4.682" cx="-17.744277296941124" cy="4.31391949904986" stroke="black" fill="none" stroke-width="1.0" filter="url(#fuzzy)" clip-path="url(#rightEyeClipPath)" /><circle r="4.986" cx="-19.994277296941124" cy="5.61391949904986" stroke="black" fill="none" stroke-width="1.0" filter="url(#fuzzy)" clip-path="url(#rightEyeClipPath)" /><circle r="4.322" cx="-18.584277296941124" cy="3.8439194990498606" stroke="black" fill="none" stroke-width="1.0" filter="url(#fuzzy)" clip-path="url(#rightEyeClipPath)" /><circle r="3.626" cx="-18.234277296941126" cy="5.343919499049861" stroke="black" fill="none" stroke-width="1.0" filter="url(#fuzzy)" clip-path="url(#rightEyeClipPath)" /><circle r="4.402" cx="-21.829277296941125" cy="4.453919499049861" stroke="black" fill="none" stroke-width="1.0" filter="url(#fuzzy)" clip-path="url(#rightEyeClipPath)" /><circle r="4.596" cx="-19.309277296941126" cy="7.72391949904986" stroke="black" fill="none" stroke-width="1.0" filter="url(#fuzzy)" clip-path="url(#rightEyeClipPath)" /><circle r="3.048" cx="-20.254277296941126" cy="5.868919499049861" stroke="black" fill="none" stroke-width="1.0" filter="url(#fuzzy)" clip-path="url(#rightEyeClipPath)" />
      </g>
    <g transform="translate(-31.980000000000004 -21.86)">
      <polyline id="leftUpper" points="36.58,10.4 36.72,10.28 36.83,10.13 36.93,9.97 37,9.78 37.04,9.58 37.05,9.36 37.03,9.12 36.98,8.87 36.9,8.6 36.78,8.32 36.63,8.03 36.43,7.72 36.2,7.4 35.94,7.08 35.63,6.74 35.29,6.39 34.9,6.04 34.48,5.68 34.02,5.31 33.52,4.94 32.98,4.57 32.4,4.19 31.78,3.81 31.13,3.42 30.44,3.04 29.88,2.59 29.24,2.14 28.54,1.69 27.77,1.24 26.94,0.78 26.05,0.33 25.1,-0.12 24.09,-0.56 23.03,-0.99 21.93,-1.42 20.77,-1.83 19.58,-2.23 18.34,-2.62 17.08,-2.98 15.78,-3.34 14.46,-3.67 13.12,-3.98 11.76,-4.27 10.39,-4.54 9.02,-4.78 7.63,-5 6.25,-5.2 4.87,-5.37 3.49,-5.51 2.13,-5.63 0.78,-5.72 -0.56,-5.79 -1.87,-5.83 -3.17,-5.84 -4.43,-5.83 -5.67,-5.79 -6.88,-5.73 -8.06,-5.64 -9.21,-5.53 -10.32,-5.39 -11.4,-5.24 -12.44,-5.06 -13.44,-4.86 -14.4,-4.65 -15.33,-4.41 -16.22,-4.16 -17.07,-3.9 -17.88,-3.62 -18.66,-3.33 -19.4,-3.04 -20.11,-2.73 -20.79,-2.41 -21.43,-2.1 -22.05,-1.77 -22.64,-1.45 -23.2,-1.12 -23.73,-0.79 -24.24,-0.45 -24.72,-0.11 -25.17,0.23 -25.6,0.57 -26.01,0.92 -26.39,1.26 -26.75,1.61 -27.09,1.95 -27.41,2.29 -27.71,2.63 -27.99,2.97 -28.26,3.3 -28.5,3.63 -28.73,3.95 -28.95,4.27 -29.15,4.59 -29.33,4.89 -29.5,5.19 -29.66,5.49 -29.81,5.78 -29.95,6.06 -30.07,6.34" fill="none" stroke="black" stroke-width="2.2222222222222223" stroke-linejoin="round" filter="url(#fuzzy)" />
      <polyline id="leftLower" points="38.45,8.92 38.25,9.14 38.03,9.34 37.78,9.53 37.51,9.7 37.21,9.86 36.88,10 36.53,10.12 36.16,10.23 35.75,10.32 35.32,10.4 34.86,10.47 34.37,10.51 33.85,10.55 33.31,10.57 32.74,10.58 32.14,10.57 31.52,10.55 30.87,10.52 30.19,10.48 29.49,10.42 28.77,10.36 28.02,10.28 27.24,10.19 26.45,10.09 25.63,9.99 24.82,9.9 23.97,9.8 23.08,9.68 22.15,9.54 21.18,9.4 20.18,9.24 19.14,9.07 18.07,8.89 16.98,8.7 15.86,8.51 14.71,8.31 13.55,8.1 12.37,7.9 11.17,7.69 9.96,7.48 8.75,7.27 7.53,7.07 6.3,6.86 5.08,6.67 3.86,6.48 2.64,6.29 1.43,6.11 0.23,5.94 -0.96,5.78 -2.13,5.63 -3.28,5.49 -4.42,5.36 -5.53,5.24 -6.62,5.14 -7.69,5.05 -8.73,4.96 -9.75,4.9 -10.74,4.84 -11.7,4.8 -12.63,4.77 -13.53,4.75 -14.4,4.74 -15.24,4.74 -16.04,4.76 -16.82,4.79 -17.57,4.82 -18.28,4.87 -18.97,4.92 -19.63,4.98 -20.26,5.05 -20.86,5.13 -21.44,5.21 -21.99,5.29 -22.52,5.38 -23.02,5.47 -23.51,5.56 -23.98,5.66 -24.42,5.76 -24.84,5.86 -25.25,5.96 -25.63,6.07 -26,6.18 -26.35,6.29 -26.68,6.4 -26.99,6.51 -27.29,6.62 -27.57,6.72 -27.84,6.83 -28.1,6.94 -28.34,7.04 -28.57,7.14 -28.78,7.24 -28.99,7.34 -29.18,7.43 -29.36,7.53 -29.53,7.61 -29.7,7.7 -29.85,7.78 -29.99,7.86" fill="none" stroke="black" stroke-width="2.2222222222222223" stroke-linejoin="round" filter="url(#fuzzy)" />
      <circle r="3.142" cx="20.350045415368502" cy="6.09580536527854" stroke="black" fill="none" stroke-width="1.0" filter="url(#fuzzy)" clip-path="url(#leftEyeClipPath)" /><circle r="3.618" cx="20.705045415368502" cy="3.5808053652785405" stroke="black" fill="none" stroke-width="1.0" filter="url(#fuzzy)" clip-path="url(#leftEyeClipPath)" /><circle r="4.336" cx="23.225045415368502" cy="5.715805365278541" stroke="black" fill="none" stroke-width="1.0" filter="url(#fuzzy)" clip-path="url(#leftEyeClipPath)" /><circle r="3.7119999999999997" cx="23.600045415368502" cy="6.260805365278541" stroke="black" fill="none" stroke-width="1.0" filter="url(#fuzzy)" clip-path="url(#leftEyeClipPath)" /><circle r="4.704" cx="21.010045415368502" cy="2.940805365278541" stroke="black" fill="none" stroke-width="1.0" filter="url(#fuzzy)" clip-path="url(#leftEyeClipPath)" /><circle r="4.602" cx="21.790045415368503" cy="3.0358053652785397" stroke="black" fill="none" stroke-width="1.0" filter="url(#fuzzy)" clip-path="url(#leftEyeClipPath)" /><circle r="4.944" cx="24.685045415368503" cy="2.22580536527854" stroke="black" fill="none" stroke-width="1.0" filter="url(#fuzzy)" clip-path="url(#leftEyeClipPath)" /><circle r="3.48" cx="23.860045415368504" cy="4.200805365278541" stroke="black" fill="none" stroke-width="1.0" filter="url(#fuzzy)" clip-path="url(#leftEyeClipPath)" /><circle r="4.202" cx="23.005045415368503" cy="3.90080536527854" stroke="black" fill="none" stroke-width="1.0" filter="url(#fuzzy)" clip-path="url(#leftEyeClipPath)" /><circle r="4.02" cx="22.390045415368505" cy="5.430805365278539" stroke="black" fill="none" stroke-width="1.0" filter="url(#fuzzy)" clip-path="url(#leftEyeClipPath)" />
    </g>
    <g id="hairs">
      <polyline points="-29.98,-83.3 -27.78,-84.37 -26.3,-84.88 -24.75,-85.28 -22.83,-85.75 -20.52,-86.3 -17.97,-86.87 -15.36,-87.41 -12.78,-87.89 -10.28,-88.31 -7.84,-88.7 -5.44,-89.06 -3.1,-89.39 -0.85,-89.69 1.24,-89.96 3.09,-90.23 4.69,-90.52 6.11,-90.83" fill="none" stroke="rgb(220, 208, 186)" stroke-width="2" stroke-linejoin="round" filter="url(#fuzzy)" /><polyline points="36.43,-78.71 37.06,-78.3 38.22,-77.36 39.55,-76.2 40.93,-74.94 42.31,-73.61 43.66,-72.26 44.94,-70.96 46.12,-69.76 47.14,-68.7 48,-67.8 48.7,-67.07 49.25,-66.48 49.7,-66 50.04,-65.62 50.21,-65.42 50.11,-65.56 49.65,-66.14 48.88,-67.11 48.04,-68.09" fill="none" stroke="rgb(220, 208, 186)" stroke-width="2" stroke-linejoin="round" filter="url(#fuzzy)" /><polyline points="-31.97,-81.7 -31.31,-81.95 -29.54,-81.93 -26.8,-81.67 -23.14,-81.22 -18.72,-80.54 -13.69,-79.58 -8.12,-78.38 -1.97,-76.97 4.76,-75.4 12.01,-73.67 19.63,-71.78 27.43,-69.78 35.32,-67.75 43.31,-65.84" fill="none" stroke="rgb(220, 208, 186)" stroke-width="2" stroke-linejoin="round" filter="url(#fuzzy)" /><polyline points="64.26,-40.96 64.36,-40.61 64.19,-40.28 63.66,-40.28 62.74,-40.63 61.37,-41.39 59.5,-42.7 57.07,-44.71 54.01,-47.52 50.29,-51.17 45.86,-55.65 40.69,-60.91 34.76,-66.93 28.04,-73.75 20.74,-81.4" fill="none" stroke="rgb(220, 208, 186)" stroke-width="2" stroke-linejoin="round" filter="url(#fuzzy)" /><polyline points="39.83,-76.32 41.45,-74.81 42.42,-73.78 43.15,-72.95 43.65,-72.27 43.88,-71.76 43.83,-71.42 43.53,-71.21 42.99,-71.1 42.22,-71.07 41.22,-71.13 39.93,-71.32 38.32,-71.67 36.34,-72.2 34,-72.9 31.31,-73.74 28.29,-74.72 24.91,-75.87 21.13,-77.21 16.87,-78.79 12.09,-80.61 6.78,-82.66 1.01,-84.97 -5.12,-87.58" fill="none" stroke="rgb(220, 208, 186)" stroke-width="2" stroke-linejoin="round" filter="url(#fuzzy)" /><polyline points="-19.95,-87.79 -19.38,-88.01 -18.38,-88.32 -17.05,-88.68 -15.55,-89.06 -14.02,-89.42 -12.57,-89.76 -11.21,-90.07 -10,-90.35 -8.95,-90.6 -8.1,-90.79 -7.49,-90.92 -7.24,-90.99 -7.49,-90.98 -8.42,-90.84" fill="none" stroke="rgb(220, 208, 186)" stroke-width="2" stroke-linejoin="round" filter="url(#fuzzy)" /><polyline points="63.5,-42.91 63.87,-41.7 63.74,-41.14 63.18,-40.92 62.21,-40.96 60.81,-41.26 58.93,-41.86 56.5,-42.85 53.49,-44.36 49.88,-46.45 45.65,-49.13 40.79,-52.37 35.26,-56.12 29.02,-60.35 22.08,-65.04 14.44,-70.26 6.1,-76.13 -3.01,-82.74" fill="none" stroke="rgb(220, 208, 186)" stroke-width="2" stroke-linejoin="round" filter="url(#fuzzy)" /><polyline points="14.62,-89.52 16.11,-89.02 17.49,-88.52 19,-87.83 20.61,-86.99 22.24,-86.07 23.87,-85.09 25.57,-84.05 27.34,-82.93 29.19,-81.75 31.07,-80.54 32.94,-79.31 34.77,-78.08 36.52,-76.9 38.17,-75.81 39.69,-74.81 41.05,-73.93 42.26,-73.13 43.33,-72.39 44.21,-71.79 44.79,-71.48" fill="none" stroke="rgb(220, 208, 186)" stroke-width="2" stroke-linejoin="round" filter="url(#fuzzy)" /><polyline points="58.09,-53.97 58.43,-52.87 58.26,-51.82 57.48,-50.98 56.1,-50.33 54.11,-49.86 51.49,-49.55 48.19,-49.42 44.19,-49.53 39.45,-49.86 33.95,-50.42 27.66,-51.18 20.59,-52.09 12.72,-53.14 4.09,-54.35 -5.32,-55.73 -15.56,-57.28 -26.76,-58.95 -39.03,-60.73" fill="none" stroke="rgb(220, 208, 186)" stroke-width="2" stroke-linejoin="round" filter="url(#fuzzy)" /><polyline points="-1.43,-91.3 0.19,-91.35 1.79,-91.13 3.53,-90.71 5.36,-90.16 7.29,-89.5 9.35,-88.73 11.55,-87.88 13.86,-86.94 16.25,-85.92 18.68,-84.85 21.13,-83.74 23.56,-82.62 25.95,-81.5 28.29,-80.4 30.6,-79.32 32.86,-78.23 35.06,-77.14 37.14,-76.09 39,-75.16 40.53,-74.42 41.65,-73.92" fill="none" stroke="rgb(220, 208, 186)" stroke-width="2" stroke-linejoin="round" filter="url(#fuzzy)" /><polyline points="8.47,-90.57 10.24,-90.29 11.27,-90.06 11.69,-89.8 11.75,-89.45 11.56,-88.99 11.11,-88.43 10.33,-87.77 9.15,-87.02 7.49,-86.2 5.34,-85.3 2.67,-84.33 -0.5,-83.27 -4.14,-82.11 -8.28,-80.81 -12.96,-79.4 -18.22,-77.87 -24.14,-76.2 -30.81,-74.31 -38.34,-72.03" fill="none" stroke="rgb(220, 208, 186)" stroke-width="2" stroke-linejoin="round" filter="url(#fuzzy)" /><polyline points="33.1,-81.16 34.96,-79.73 36.1,-78.87 36.96,-78.21 37.87,-77.48 38.93,-76.61 40.11,-75.6 41.34,-74.53 42.55,-73.43 43.69,-72.37 44.73,-71.38 45.62,-70.52 46.34,-69.83 46.87,-69.31 47.22,-68.97 47.41,-68.78 47.46,-68.72 47.35,-68.81 47.02,-69.11 46.4,-69.71 45.43,-70.68 44.09,-72.04 42.38,-73.82" fill="none" stroke="rgb(220, 208, 186)" stroke-width="2" stroke-linejoin="round" filter="url(#fuzzy)" /><polyline points="-10.66,-90.66 -9.56,-90.54 -7.79,-90.33 -5.59,-89.9 -3.14,-89.23 -0.51,-88.35 2.34,-87.27 5.46,-86.02 8.85,-84.63 12.48,-83.09 16.28,-81.44 20.16,-79.69 24.08,-77.87 27.98,-76.01 31.85,-74.18 35.68,-72.38 39.47,-70.61 43.28,-68.72 47.28,-66.43" fill="none" stroke="rgb(220, 208, 186)" stroke-width="2" stroke-linejoin="round" filter="url(#fuzzy)" /><polyline points="44.81,-71.77 45.42,-70.72 45.1,-70.04 43.99,-69.56 42.14,-69.12 39.62,-68.64 36.37,-68.11 32.3,-67.64 27.31,-67.3 21.34,-67.12 14.39,-67 6.45,-66.86 -2.52,-66.62 -12.54,-66.36 -23.64,-66.24 -35.74,-66.49" fill="none" stroke="rgb(220, 208, 186)" stroke-width="2" stroke-linejoin="round" filter="url(#fuzzy)" /><polyline points="36.61,-78.8 37.78,-77.71 38.48,-76.81 38.72,-75.98 38.51,-75.17 37.83,-74.4 36.66,-73.72 34.94,-73.14 32.64,-72.68 29.72,-72.33 26.19,-72.07 22.06,-71.86 17.36,-71.68 12.09,-71.52 6.21,-71.43 -0.33,-71.45 -7.56,-71.62 -15.5,-71.91 -24.13,-72.24 -33.39,-72.56" fill="none" stroke="rgb(220, 208, 186)" stroke-width="2" stroke-linejoin="round" filter="url(#fuzzy)" /><polyline points="36.88,-78.31 36.76,-78.48 37.24,-78.17 38.06,-77.56 39,-76.81 39.92,-76.03 40.73,-75.29 41.39,-74.63 41.86,-74.09 42.1,-73.72 42.09,-73.53 41.82,-73.53 41.29,-73.72 40.51,-74.08 39.48,-74.6 38.2,-75.28 36.66,-76.14 34.83,-77.23 32.7,-78.56 30.22,-80.15 27.34,-82 24.01,-84.11 20.34,-86.42" fill="none" stroke="rgb(220, 208, 186)" stroke-width="2" stroke-linejoin="round" filter="url(#fuzzy)" /><polyline points="42.34,-74.23 42.73,-73.54 43.51,-72.74 44.17,-72.02 44.59,-71.48 44.72,-71.12 44.59,-70.92 44.22,-70.86 43.63,-70.89 42.81,-71.04 41.7,-71.36 40.25,-71.9 38.44,-72.68 36.25,-73.7 33.66,-74.93 30.68,-76.38 27.27,-78.07 23.38,-80.05 18.98,-82.37 14.14,-85.02 9.03,-87.97" fill="none" stroke="rgb(220, 208, 186)" stroke-width="2" stroke-linejoin="round" filter="url(#fuzzy)" /><polyline points="61.39,-47.28 61.79,-46.49 61.91,-45.65 61.65,-45.14 60.97,-45.08 59.86,-45.46 58.31,-46.23 56.31,-47.38 53.84,-48.88 50.89,-50.73 47.42,-52.98 43.4,-55.69 38.77,-58.94 33.47,-62.82 27.43,-67.35 20.62,-72.5 13.02,-78.22 4.71,-84.52" fill="none" stroke="rgb(220, 208, 186)" stroke-width="2" stroke-linejoin="round" filter="url(#fuzzy)" /><polyline points="6.51,-91.11 7.26,-91.04 8.04,-90.82 8.76,-90.56 9.37,-90.28 9.76,-89.99 9.89,-89.68 9.76,-89.33 9.4,-88.91 8.78,-88.43 7.89,-87.89 6.68,-87.29 5.11,-86.65 3.13,-85.95 0.71,-85.19 -2.14,-84.36 -5.41,-83.43 -9.11,-82.41 -13.25,-81.3 -17.84,-80.14 -22.92,-78.94 -28.46,-77.74 -34.42,-76.54" fill="none" stroke="rgb(220, 208, 186)" stroke-width="2" stroke-linejoin="round" filter="url(#fuzzy)" /><polyline points="-32.06,-82.09 -31.09,-82.57 -29.97,-83.07 -28.44,-83.67 -26.69,-84.29 -24.86,-84.87 -22.96,-85.42 -20.93,-85.99 -18.79,-86.58 -16.58,-87.17 -14.37,-87.73 -12.25,-88.24 -10.25,-88.7 -8.38,-89.12 -6.66,-89.51 -5.08,-89.88 -3.65,-90.21 -2.39,-90.5 -1.3,-90.76 -0.42,-91 0.15,-91.21 0.34,-91.39" fill="none" stroke="rgb(220, 208, 186)" stroke-width="2" stroke-linejoin="round" filter="url(#fuzzy)" /><polyline points="47.95,-68.11 47.65,-68.55 48.4,-67.65 49.41,-66.36 50.41,-65.08 51.28,-63.94 52.03,-62.97 52.7,-62.07 53.34,-61.21 53.92,-60.42 54.37,-59.78 54.63,-59.41 54.63,-59.38 54.39,-59.68 53.95,-60.25 53.33,-61.06 52.48,-62.19 51.15,-63.98" fill="none" stroke="rgb(220, 208, 186)" stroke-width="2" stroke-linejoin="round" filter="url(#fuzzy)" /><polyline points="-9.05,-90.96 -7.13,-91.08 -5.95,-91.14 -5.1,-91.18 -4.42,-91.19 -3.82,-91.15 -3.31,-91.04 -2.96,-90.86 -2.83,-90.61 -3.02,-90.28 -3.55,-89.87 -4.44,-89.39 -5.7,-88.81 -7.33,-88.13 -9.34,-87.35 -11.73,-86.47 -14.55,-85.49 -17.86,-84.39 -21.77,-83.14 -26.34,-81.69 -31.43,-80.09" fill="none" stroke="rgb(220, 208, 186)" stroke-width="2" stroke-linejoin="round" filter="url(#fuzzy)" /><polyline points="48.71,-67.59 49.32,-66.61 50.11,-65.55 50.67,-64.81 51.02,-64.34 51.24,-63.97 51.38,-63.62 51.42,-63.32 51.3,-63.17 50.94,-63.25 50.3,-63.63 49.34,-64.33 48.05,-65.38 46.4,-66.81 44.36,-68.63 41.89,-70.88 38.94,-73.59 35.46,-76.8 31.48,-80.5" fill="none" stroke="rgb(220, 208, 186)" stroke-width="2" stroke-linejoin="round" filter="url(#fuzzy)" /><polyline points="42.12,-73.77 43.43,-72.6 43.78,-71.7 43.43,-70.93 42.41,-70.29 40.78,-69.72 38.58,-69.16 35.83,-68.55 32.48,-67.88 28.48,-67.19 23.76,-66.54 18.28,-65.94 12.07,-65.38 5.14,-64.8 -2.51,-64.17 -10.95,-63.49 -20.2,-62.86 -30.25,-62.44 -41.05,-62.32" fill="none" stroke="rgb(220, 208, 186)" stroke-width="2" stroke-linejoin="round" filter="url(#fuzzy)" /><polyline points="42.12,-73.77 43.45,-72.69 43.9,-72.03 43.68,-71.66 42.8,-71.61 41.29,-71.85 39.19,-72.34 36.5,-73.02 33.16,-73.89 29.06,-75.04 24.12,-76.56 18.29,-78.51 11.6,-80.87 4.13,-83.54 -4.03,-86.52" fill="none" stroke="rgb(220, 208, 186)" stroke-width="2" stroke-linejoin="round" filter="url(#fuzzy)" /><polyline points="37.98,-77.54 39.04,-76.71 39.38,-76.05 39.18,-75.45 38.37,-74.98 36.89,-74.73 34.66,-74.72 31.63,-74.97 27.75,-75.5 22.99,-76.31 17.35,-77.34 10.75,-78.54 3.09,-79.83 -5.71,-81.23 -15.61,-82.88" fill="none" stroke="rgb(220, 208, 186)" stroke-width="2" stroke-linejoin="round" filter="url(#fuzzy)" /><polyline points="46.07,-70.26 46.58,-69.72 47.18,-69.05 47.84,-68.3 48.62,-67.37 49.45,-66.35 50.23,-65.39 50.86,-64.59 51.35,-63.99 51.69,-63.54 51.9,-63.24 51.95,-63.11 51.81,-63.23 51.41,-63.67 50.74,-64.44 49.82,-65.53 48.6,-66.98 47.01,-68.97" fill="none" stroke="rgb(220, 208, 186)" stroke-width="2" stroke-linejoin="round" filter="url(#fuzzy)" /><polyline points="46.46,-69.95 47.98,-68.23 48.9,-67.03 49.47,-66.2 49.65,-65.8 49.46,-65.8 48.94,-66.09 48.15,-66.58 47.03,-67.32 45.49,-68.41 43.44,-69.97 40.82,-72.06 37.63,-74.7 33.87,-77.87 29.49,-81.63" fill="none" stroke="rgb(220, 208, 186)" stroke-width="2" stroke-linejoin="round" filter="url(#fuzzy)" /><polyline points="20.79,-87.71 21.15,-87.4 21.85,-86.99 23.09,-86.28 24.76,-85.28 26.68,-84.11 28.69,-82.85 30.7,-81.57 32.68,-80.28 34.64,-78.98 36.52,-77.73 38.25,-76.58 39.71,-75.63 40.78,-74.93 41.48,-74.53" fill="none" stroke="rgb(220, 208, 186)" stroke-width="2" stroke-linejoin="round" filter="url(#fuzzy)" /><polyline points="33.19,-80.98 33.81,-80.57 34.87,-79.81 35.72,-79.21 36.33,-78.79 36.82,-78.43 37.26,-78.08 37.62,-77.74 37.85,-77.44 37.86,-77.25 37.59,-77.23 36.99,-77.41 36.01,-77.85 34.63,-78.56 32.86,-79.55 30.72,-80.81 28.15,-82.36 25.03,-84.24 21.28,-86.48" fill="none" stroke="rgb(220, 208, 186)" stroke-width="2" stroke-linejoin="round" filter="url(#fuzzy)" /><polyline points="21.26,-87.6 22.87,-86.84 24.35,-86.05 25.78,-85.25 27.17,-84.44 28.55,-83.63 29.94,-82.81 31.29,-82 32.57,-81.24 33.68,-80.55 34.6,-79.98 35.28,-79.52 35.75,-79.2 35.97,-79.04 35.85,-79.12 35.25,-79.55 34.18,-80.32" fill="none" stroke="rgb(220, 208, 186)" stroke-width="2" stroke-linejoin="round" filter="url(#fuzzy)" /><polyline points="12.3,-90.24 14.22,-89.64 15.62,-89.23 16.65,-88.94 17.42,-88.69 17.92,-88.46 18.09,-88.29 17.9,-88.19 17.37,-88.15 16.49,-88.14 15.24,-88.16 13.56,-88.24 11.4,-88.41 8.75,-88.68 5.56,-89.07 1.73,-89.57 -2.94,-90.21" fill="none" stroke="rgb(220, 208, 186)" stroke-width="2" stroke-linejoin="round" filter="url(#fuzzy)" /><polyline points="56.05,-57.53 56.47,-56.47 56.89,-55.39 57.07,-54.53 56.97,-53.85 56.58,-53.33 55.92,-52.97 54.95,-52.78 53.68,-52.79 52.06,-52.99 50.09,-53.41 47.73,-54.09 44.98,-55.03 41.83,-56.25 38.28,-57.73 34.32,-59.46 29.95,-61.42 25.16,-63.6 19.94,-66.01 14.25,-68.69 8.08,-71.68 1.45,-75.04 -5.6,-78.82 -13.12,-82.97" fill="none" stroke="rgb(220, 208, 186)" stroke-width="2" stroke-linejoin="round" filter="url(#fuzzy)" /><polyline points="-25.4,-85.49 -24.01,-86.2 -22.29,-86.93 -20.86,-87.49 -19.75,-87.91 -18.82,-88.25 -18,-88.53 -17.28,-88.76 -16.7,-88.92 -16.31,-89 -16.13,-88.99 -16.19,-88.88 -16.49,-88.67 -17.03,-88.35 -17.84,-87.91 -18.96,-87.35 -20.41,-86.64 -22.22,-85.78 -24.39,-84.81 -26.93,-83.69 -29.99,-82.35" fill="none" stroke="rgb(220, 208, 186)" stroke-width="2" stroke-linejoin="round" filter="url(#fuzzy)" /><polyline points="29.59,-83.23 30.61,-82.76 31.33,-82.21 31.62,-81.75 31.54,-81.42 31,-81.25 29.92,-81.3 28.22,-81.57 25.93,-82.04 23.09,-82.66 19.69,-83.41 15.64,-84.34 10.78,-85.48 4.94,-86.89 -2.01,-88.57" fill="none" stroke="rgb(220, 208, 186)" stroke-width="2" stroke-linejoin="round" filter="url(#fuzzy)" /><polyline points="-38.55,-77.09 -37.73,-77.76 -36.36,-78.5 -34.63,-79.33 -32.57,-80.24 -30.3,-81.17 -27.89,-82.09 -25.4,-82.98 -22.82,-83.84 -20.15,-84.7 -17.4,-85.57 -14.62,-86.44 -11.88,-87.28 -9.25,-88.08 -6.73,-88.84 -4.28,-89.57 -1.91,-90.27 0.01,-90.94" fill="none" stroke="rgb(220, 208, 186)" stroke-width="2" stroke-linejoin="round" filter="url(#fuzzy)" /><polyline points="-16.09,-89.09 -13.81,-89.71 -12.49,-90.06 -11.32,-90.32 -10.12,-90.53 -8.88,-90.72 -7.67,-90.88 -6.56,-91.03 -5.64,-91.14 -4.99,-91.22 -4.68,-91.25 -4.73,-91.23 -5.18,-91.16 -6.08,-91.03 -7.44,-90.86 -9.28,-90.68" fill="none" stroke="rgb(220, 208, 186)" stroke-width="2" stroke-linejoin="round" filter="url(#fuzzy)" /><polyline points="60.39,-49.42 61.07,-47.89 61.33,-46.86 61.23,-46.1 60.73,-45.65 59.84,-45.55 58.54,-45.79 56.85,-46.32 54.76,-47.12 52.25,-48.15 49.3,-49.43 45.89,-50.98 41.99,-52.85 37.56,-55.11 32.61,-57.81 27.13,-60.98 21.09,-64.59 14.5,-68.61 7.36,-73.03 -0.32,-77.82 -8.74,-82.92" fill="none" stroke="rgb(220, 208, 186)" stroke-width="2" stroke-linejoin="round" filter="url(#fuzzy)" /><polyline points="48.71,-67.59 49.04,-66.66 48.99,-65.69 48.17,-65.06 46.55,-64.71 44.24,-64.44 41.29,-64.15 37.68,-63.85 33.32,-63.63 28.13,-63.58 22.06,-63.73 15.08,-64.08 7.18,-64.58 -1.66,-65.2 -11.51,-65.9 -22.49,-66.6 -34.62,-67.3" fill="none" stroke="rgb(220, 208, 186)" stroke-width="2" stroke-linejoin="round" filter="url(#fuzzy)" /><polyline points="3.23,-91.25 4.36,-91.08 5.66,-90.55 7.62,-89.72 10.07,-88.59 12.83,-87.19 15.84,-85.57 19.08,-83.78 22.47,-81.85 25.97,-79.82 29.51,-77.72 33.08,-75.6 36.66,-73.5 40.24,-71.42 43.83,-69.25 47.6,-66.69" fill="none" stroke="rgb(220, 208, 186)" stroke-width="2" stroke-linejoin="round" filter="url(#fuzzy)" /><polyline points="13.78,-89.8 13.61,-89.83 14.7,-89.47 16.09,-89.04 17.5,-88.58 18.86,-88.11 20.14,-87.65 21.3,-87.22 22.34,-86.81 23.28,-86.43 24.15,-86.07 24.94,-85.73 25.61,-85.43 26.12,-85.19 26.44,-85.03 26.54,-84.96 26.42,-84.99 26.07,-85.11 25.48,-85.34 24.64,-85.67 23.48,-86.14 21.86,-86.84 19.66,-87.82" fill="none" stroke="rgb(220, 208, 186)" stroke-width="2" stroke-linejoin="round" filter="url(#fuzzy)" /><polyline points="48.71,-67.59 49.07,-66.67 49.1,-65.75 48.41,-65.22 46.98,-65 44.91,-64.91 42.25,-64.83 38.97,-64.79 34.99,-64.87 30.21,-65.15 24.55,-65.66 17.99,-66.38 10.52,-67.33 2.18,-68.49 -7.07,-69.88 -17.24,-71.52 -28.3,-73.49" fill="none" stroke="rgb(220, 208, 186)" stroke-width="2" stroke-linejoin="round" filter="url(#fuzzy)" /><polyline points="48.71,-67.59 49.33,-66.6 50.18,-65.47 50.86,-64.61 51.34,-64.02 51.69,-63.54 51.98,-63.12 52.18,-62.77 52.22,-62.62 51.99,-62.78 51.42,-63.37 50.45,-64.44 49.02,-66.04 47.11,-68.2 44.73,-70.99" fill="none" stroke="rgb(220, 208, 186)" stroke-width="2" stroke-linejoin="round" filter="url(#fuzzy)" /><polyline points="-31.97,-81.7 -31.7,-82.12 -31.11,-82.56 -30.36,-83.03 -29.5,-83.52 -28.69,-83.93 -28.08,-84.21 -27.74,-84.32 -27.68,-84.25 -27.9,-84 -28.47,-83.52 -29.52,-82.75 -31.15,-81.66 -33.44,-80.21 -36.38,-78.36" fill="none" stroke="rgb(220, 208, 186)" stroke-width="2" stroke-linejoin="round" filter="url(#fuzzy)" /><polyline points="20.94,-87.6 -6.12,-83.47 -7.27,-83.02 -9.6,-81.6 -13.57,-80.11 -13.96,-79.54 -8.94,-79.93 -1.05,-80.66 5.23,-80.9 6.2,-80.14 0.87,-78.61 -8.22,-77.1 -16.01,-76.43 -18.62,-76.71 -18.43,-77.14 -23.32,-77.96 -21.38,-87.45" fill="none" stroke="rgb(220, 208, 186)" stroke-width="2" stroke-linejoin="round" filter="url(#fuzzy)" /><polyline points="-1.43,-91.3 4.51,-80.5 -4.14,-75.78 -3.65,-73.69 2.19,-72.75 9.33,-71.95 16.66,-70.5 23.66,-68.35 29.05,-66.31 31.21,-65.39 29.25,-66.19 23.78,-68.58 16.65,-72 10.06,-75.73 5.5,-79.1 3.35,-81.41 3.14,-81.9 4.17,-80.08 5.95,-76.32 8.17,-72.64 10.22,-72.86 10.02,-80.45 16.31,-88.9" fill="none" stroke="rgb(220, 208, 186)" stroke-width="2" stroke-linejoin="round" filter="url(#fuzzy)" /><polyline points="33.1,-81.16 17.95,-76.11 10.08,-67.07 11.55,-63.15 15.51,-64.46 17.43,-68.32 15.45,-72.68 10.8,-76.55 6.73,-79.52 6.07,-81.33 9.18,-81.94 13.84,-81.6 16.76,-80.81 15.83,-79.79 11.8,-78.04 8.12,-74.67 8.26,-69.97 10.25,-67.47 0.07,-72.2 -42.49,-74.06" fill="none" stroke="rgb(220, 208, 186)" stroke-width="2" stroke-linejoin="round" filter="url(#fuzzy)" /><polyline points="-48.6,-67.38 9.19,-65.4 17.28,-66.97 16.79,-67.34 16.5,-68.01 14.65,-69.78 10.9,-71.9 6.83,-73.54 3.64,-74.88 1.54,-76.72 0.18,-79.41 -0.64,-82.17 -0.4,-83.39 2.2,-81.2 6.72,-73.96 2.55,-62.55 -53.87,-60.72" fill="none" stroke="rgb(220, 208, 186)" stroke-width="2" stroke-linejoin="round" filter="url(#fuzzy)" /><polyline points="10.71,-90.21 -28.46,-73.59 -39.63,-68.36 -35.01,-68.46 -23.74,-69.42 -13.29,-70.1 -7.09,-70.97 -4.47,-72.31 -3.08,-73.66 -1.37,-74.45 0.58,-74.59 1.68,-74.41 1.15,-74.22 -0.6,-74.01 -2.29,-73.51 -3.08,-72.53 -3.65,-71.18 -5.66,-69.88 -8.98,-69.34 -9.33,-70.3 -0.69,-72.06 19.04,-68.61 63.39,-42.73" fill="none" stroke="rgb(220, 208, 186)" stroke-width="2" stroke-linejoin="round" filter="url(#fuzzy)" /><polyline points="27.88,-84.31 41.96,-70.25 46.03,-64.79 42.54,-66.65 36.46,-70.01 31,-71.58 26.79,-70.98 23.25,-69.46 20.26,-68.28 18.52,-67.95 18.65,-68.38 20.23,-69.36 21.97,-70.77 22.45,-72.46 20.98,-74.02 17.69,-74.89 13.1,-74.74 7.73,-73.81 2.64,-72.6 0.44,-71.16 4.9,-68.47 17.2,-62.83 29.21,-54.08 17.77,-47.91 -56.03,-57.23" fill="none" stroke="rgb(220, 208, 186)" stroke-width="2" stroke-linejoin="round" filter="url(#fuzzy)" /><polyline points="-53.87,-60.72 8.55,-57.48 16.83,-65.92 19.55,-69.54 25.18,-68.51 27.89,-66.19 22.62,-65.03 10.27,-65.82 -3.42,-68.18 -11.95,-71.16 -12.36,-73.82 -7.25,-75.51 -2.87,-76.27 -3.61,-76.97 -6.11,-78.95 -2.02,-83.73 -6.04,-91.12" fill="none" stroke="rgb(220, 208, 186)" stroke-width="2" stroke-linejoin="round" filter="url(#fuzzy)" /><polyline points="-18.54,-88.52 -0.6,-83.6 -4.87,-83.26 -2.09,-83.11 8.66,-80.84 20.93,-76.61 28.79,-72.3 29.78,-70.05 25.46,-70.79 19.9,-73.8 16.46,-77.2 14.81,-78.94 10.36,-77.83 -2.51,-73.82 -24.61,-67.98 -46.38,-62.82 -51.52,-63.57" fill="none" stroke="rgb(220, 208, 186)" stroke-width="2" stroke-linejoin="round" filter="url(#fuzzy)" /><polyline points="44.2,-72.22 3.85,-76.42 -4.93,-70.59 -8.86,-67.03 -14.38,-68.06 -18.27,-71.86 -18,-76.1 -13.7,-79.06 -6.87,-80.01 0.69,-78.98 7.36,-76.54 12.11,-73.46 14.86,-70.55 16.5,-68.5 18.39,-67.61 21.54,-67.77 25.91,-68.46 30.32,-69.2 32.85,-69.95 31.87,-71.24 27.31,-73.47 21.41,-75.63 16.19,-74.71 3.12,-67.86 -56.03,-57.23" fill="none" stroke="rgb(220, 208, 186)" stroke-width="2" stroke-linejoin="round" filter="url(#fuzzy)" /><polyline points="46.3,-70.09 17.66,-81.66 -3.06,-81.53 -14.96,-78.83 -14.86,-76.7 -5.47,-75.55 6.78,-75.55 16.1,-76.88 20.19,-79.12 19.9,-81.29 17.16,-82.43 13.5,-82.04 10.85,-79.71 12.79,-75.15 18.73,-71.84 -3.71,-91.46" fill="none" stroke="rgb(220, 208, 186)" stroke-width="2" stroke-linejoin="round" filter="url(#fuzzy)" /><polyline points="54.56,-59.55 31.06,-77.46 23.82,-81.48 19.83,-81.69 16.8,-81.46 13.47,-81.27 8.99,-80.8 4.45,-79.68 2.09,-77.91 2.71,-76.05 4.48,-75.09 4.09,-75.73 -0.56,-77.73 -8.8,-79.76 -17.54,-80.14 -22.14,-78.33 -15.85,-75.52 10.08,-71.79 57.65,-54.32" fill="none" stroke="rgb(220, 208, 186)" stroke-width="2" stroke-linejoin="round" filter="url(#fuzzy)" /><polyline points="25.26,-85.51 -0.41,-81.68 3.18,-77.42 6.35,-74.51 7.5,-74.63 9.1,-76.7 10.43,-79.17 10.15,-80.91 9.03,-81.34 9.35,-80.34 12.41,-78.4 17.1,-76.4 20.84,-75.17 21.76,-74.83 18.82,-74.48 7.12,-73.04 -40.95,-75.24" fill="none" stroke="rgb(220, 208, 186)" stroke-width="2" stroke-linejoin="round" filter="url(#fuzzy)" /><polyline points="23.07,-86.81 20.79,-66.69 -1.67,-66.35 -18.03,-69.19 -26.9,-71.54 -30.43,-73.36 -30.95,-74.55 -30.1,-74.86 -28.84,-74.47 -27.81,-73.83 -27.45,-73.38 -27.71,-73.23 -27.82,-73.32 -26.63,-73.59 -23.4,-74.16 -18.48,-75.28 -13.39,-77.11 -9.92,-79.53 -8.65,-82.14 -7.99,-84.33 -4.82,-85.36 3.34,-84.47 15.46,-81.53 22.92,-79.45 0.66,-91.49" fill="none" stroke="rgb(220, 208, 186)" stroke-width="2" stroke-linejoin="round" filter="url(#fuzzy)" /><polyline points="-31.97,-81.7 -1.67,-62.55 -13.71,-60.01 -17.82,-61.22 -11.52,-63.01 -3.08,-65.02 2.17,-67.08 3.62,-68.84 2.88,-70.06 1.44,-70.76 -0.04,-71.15 -1.45,-71.58 -2.68,-72.32 -3.62,-73.44 -4.33,-74.77 -5.05,-76.04 -5.69,-77.08 -5.32,-77.75 -2.39,-77.89 4.27,-77.09 14.98,-74.77 29.58,-70.64 45.36,-65.7 51.33,-64.43" fill="none" stroke="rgb(220, 208, 186)" stroke-width="2" stroke-linejoin="round" filter="url(#fuzzy)" /><polyline points="-57.22,-55.01 5.23,-52.34 18.73,-61.85 22.29,-68.25 24.15,-69.89 26.38,-68.48 28.08,-66.76 27.92,-66.48 26.18,-67.66 24.19,-69.41 22.65,-71.14 20.96,-72.62 18.24,-73.44 13.8,-73.08 5.81,-72.3 -9.09,-73.29 -29.98,-75.26 -46.85,-69.15" fill="none" stroke="rgb(220, 208, 186)" stroke-width="2" stroke-linejoin="round" filter="url(#fuzzy)" /><polyline points="-40.08,-76.06 -0.77,-64.58 -4.78,-65.2 -7.89,-66.48 -6.41,-67.7 -1.68,-68.67 4.87,-68.77 10.39,-68.1 11.68,-67.73 7.74,-68.79 0.56,-71.56 -6.42,-75.17 -10.66,-78.03 -11.72,-78.63 -10.79,-76.29 -9.83,-71.76 -11.4,-67.5 -16.85,-67.16 -16.9,-73.45 20.94,-87.6" fill="none" stroke="rgb(220, 208, 186)" stroke-width="2" stroke-linejoin="round" filter="url(#fuzzy)" /><polyline points="33.1,-81.16 -3.98,-83.49 -9.98,-86.21 -7.46,-87.58 -5.89,-87.25 -7.19,-85.73 -9.85,-84.05 -11.86,-82.93 -12.25,-82.35 -11.34,-81.68 -10.19,-80.27 -9.81,-77.92 -10.62,-75.02 -12.16,-72.35 -13.15,-70.64 -12,-70.24 -7.6,-71 0.03,-72.34 9.59,-73.47 18.61,-73.53 22.33,-71.64 8.62,-67.98 -51.54,-63.5" fill="none" stroke="rgb(220, 208, 186)" stroke-width="2" stroke-linejoin="round" filter="url(#fuzzy)" /><polyline points="-26.44,-85.04 -27.48,-78.67 -13.54,-72.31 9.04,-67.83 28.45,-64.13 39.25,-62.56 41.72,-64.15 39.29,-67.97 35.71,-72.12 32.69,-75.5 29.29,-78.42 23.38,-81.65 14,-85.12 2.3,-87.61 -10.57,-87.39 -32.06,-82.09" fill="none" stroke="rgb(220, 208, 186)" stroke-width="2" stroke-linejoin="round" filter="url(#fuzzy)" /><polyline points="-29.98,-83.3 -10.57,-86.08 0.76,-82.21 3.4,-79.19 1.25,-78.75 -0.27,-78.99 2.29,-77.82 9.34,-74.48 18.7,-69.56 27,-64.27 31.34,-59.77 30.36,-56.82 24.41,-55.82 15.09,-56.88 4.55,-59.78 -5.14,-63.93 -12.4,-68.38 -16.45,-72.08 -17.56,-74.32 -16.67,-75.12 -14.42,-75.29 -10.11,-75.96 -3.02,-77.59 6.5,-79 37.98,-77.54" fill="none" stroke="rgb(220, 208, 186)" stroke-width="2" stroke-linejoin="round" filter="url(#fuzzy)" /><polyline points="14.62,-89.52 19.15,-84.08 24.37,-77.81 21.72,-73.05 13.87,-69 4.67,-66.41 -2.98,-65.82 -6.68,-66.6 -4.68,-67.39 2.9,-67.4 12.86,-67.11 19.9,-67.72 20.46,-69.84 18.25,-71.94 27.86,-67.45 65.16,-38.72" fill="none" stroke="rgb(220, 208, 186)" stroke-width="2" stroke-linejoin="round" filter="url(#fuzzy)" /><polyline points="62.62,-45.06 36.57,-70.04 23.81,-76.52 18.21,-76.38 17.52,-74.24 18.99,-71.98 20.16,-70.6 19.6,-70.53 17.01,-71.75 12.84,-73.85 7.9,-76.36 3.06,-78.81 -0.89,-80.75 -3.33,-81.8 -3.91,-81.85 -2.57,-81.17 0.19,-80.36 3.12,-80 4.13,-80.25 1.06,-80.72 -6.78,-80.86 -16.97,-80.66 -23.66,-80.94 -19.6,-83.07 6.51,-91.11" fill="none" stroke="rgb(220, 208, 186)" stroke-width="2" stroke-linejoin="round" filter="url(#fuzzy)" /><polyline points="67.79,-30.41 16.47,-62.64 12.94,-68.74 18.47,-67.3 20.98,-66.35 18.15,-67.77 11.69,-71.03 4.93,-74.84 0.57,-78.03 -0.54,-79.87 0.98,-80.02 4.34,-78.49 9.32,-75.54 16.09,-71.61 24.39,-67.32 33.04,-63.37 40.19,-60.52 44.06,-59.48 43.8,-60.76 39.88,-64.5 34.06,-70.1 28.85,-75.67 26.8,-77.64 32.42,-69.98 65.16,-38.72" fill="none" stroke="rgb(220, 208, 186)" stroke-width="2" stroke-linejoin="round" filter="url(#fuzzy)" /><polyline points="47.95,-68.11 20.51,-78.82 6.77,-82.14 5.98,-81.63 7.29,-79.71 5.65,-78.5 1.84,-78.52 -1.28,-78.8 -1.39,-78.13 2.28,-76.07 8.74,-73.24 15.7,-70.85 20.59,-69.95 21.71,-70.9 18.97,-73.18 13.76,-75.68 8.18,-77.28 4.2,-77.43 3.23,-76.44 5.92,-75.34 11.43,-75.23 16.72,-76.14 16.82,-75.69 2.95,-69.65 -55.1,-58.98" fill="none" stroke="rgb(220, 208, 186)" stroke-width="2" stroke-linejoin="round" filter="url(#fuzzy)" /><polyline points="-29.98,-83.3 2.27,-66.1 -3.78,-67.02 -6.47,-69.09 -2.49,-68.97 4.48,-68.05 11.52,-67.31 16.55,-67.05 17.84,-67.7 14.95,-69.63 9.55,-72.42 4.99,-74.69 4.72,-74.97 10.53,-72.8 21.31,-69.15 32.3,-66.19 36.66,-66.56 33.86,-70.85 50.59,-64.92" fill="none" stroke="rgb(220, 208, 186)" stroke-width="2" stroke-linejoin="round" filter="url(#fuzzy)" /><polyline points="-49.47,-66.13 -4.17,-79.49 10.55,-84.57 15.96,-85.51 20.14,-83.37 22.96,-79.53 21.99,-75.86 16.36,-73.73 7.65,-73.49 -1.36,-74.62 -8.4,-76.21 -12.64,-77.55 -14.42,-78.34 -14.54,-78.62 -13.81,-78.57 -12.77,-78.36 -11.58,-78.21 -9.86,-78.39 -6.86,-79.04 -2.18,-79.88 3.44,-80.33 8.36,-80.17 10.19,-80.4 1.94,-82.36 -32.06,-82.09" fill="none" stroke="rgb(220, 208, 186)" stroke-width="2" stroke-linejoin="round" filter="url(#fuzzy)" /><polyline points="52.89,-62.01 16.85,-69.87 15.78,-70.29 12.58,-69.13 9.68,-67.29 11.87,-65.5 17.87,-64.78 23.58,-65.72 25.88,-68.18 23.83,-71.48 18.09,-74.88 10.11,-77.82 1.62,-80.08 -5.67,-81.67 -10.4,-82.73 -12.01,-83.43 -10.92,-83.85 -8.33,-83.88 -5.51,-83.19 -2.95,-81.46 -0.45,-78.97 1.88,-77.17 4,-77.9 12.48,-79.46 46.46,-69.95" fill="none" stroke="rgb(220, 208, 186)" stroke-width="2" stroke-linejoin="round" filter="url(#fuzzy)" /><polyline points="-36.45,-78.82 -38.5,-75.09 -33.16,-73.81 -21.93,-73.7 -11.49,-72.88 -4.97,-71.93 -1.5,-71.12 1.31,-69.79 5.33,-67.46 11.3,-64.39 18.91,-61.4 27.23,-59.17 35.05,-57.9 41.13,-57.49 44.36,-58.03 43.96,-59.96 39.8,-63.71 32.87,-69.04 25.48,-74.75 20.61,-79.18 20.33,-81.28 24.21,-81.11 30.18,-78.76 39.43,-71.49 59.51,-51.29" fill="none" stroke="rgb(220, 208, 186)" stroke-width="2" stroke-linejoin="round" filter="url(#fuzzy)" /><polyline points="42.12,-73.77 17.4,-79.65 -4.84,-79.51 -10.74,-78.77 -4.05,-77.97 5.94,-76.3 12.61,-74.12 14.85,-72.37 15.47,-71.46 17.44,-71.12 21,-71.18 23.75,-72.1 23.13,-74.43 18.95,-77.8 13.52,-80.73 9.72,-81.62 10.65,-79.72 24.05,-72.8 60.19,-49.68" fill="none" stroke="rgb(220, 208, 186)" stroke-width="2" stroke-linejoin="round" filter="url(#fuzzy)" /><polyline points="-26.44,-85.04 -31.68,-74.73 -14.54,-74.84 -0.64,-76.81 3.77,-78.75 2.67,-79.81 0.57,-79.94 -0.41,-79.68 0.07,-79.54 1.48,-79.52 2.91,-79.3 3.52,-78.8 2.74,-78.44 -0.12,-78.75 -6.34,-79.54 -16.38,-79.57 -26.36,-78.01 -25.19,-77.9 7.08,-91.17" fill="none" stroke="rgb(220, 208, 186)" stroke-width="2" stroke-linejoin="round" filter="url(#fuzzy)" /><polyline points="-13.06,-89.99 8.46,-78.82 -1.17,-79.22 -7.1,-79.22 -2.67,-77.21 7.44,-74.78 16.02,-73.65 19.01,-74.32 17.14,-76.08 13.56,-77.9 10.25,-79.3 6.5,-80.52 0.46,-81.63 -8.5,-81.54 -20.27,-78.15 -36.01,-71.32 -45.45,-71.01" fill="none" stroke="rgb(220, 208, 186)" stroke-width="2" stroke-linejoin="round" filter="url(#fuzzy)" /><polyline points="20.94,-87.6 11.21,-84.31 17.05,-80.45 19.38,-78.57 14.9,-78.04 4.64,-77.76 -7.66,-77.09 -17.45,-76.41 -21.53,-76.44 -19.33,-77.21 -12.43,-77.69 -2.87,-76.59 7.91,-73.92 17.96,-72.07 23.48,-74.26 24.79,-78.36 46.46,-69.95" fill="none" stroke="rgb(220, 208, 186)" stroke-width="2" stroke-linejoin="round" filter="url(#fuzzy)" /><polyline points="42.34,-74.23 19.34,-83.01 2.09,-82.32 -7.78,-79.46 -8.26,-77.4 -3.54,-76.3 1.7,-75.6 5.22,-75.06 6.73,-74.83 6.9,-75.08 7.15,-75.56 9.34,-75.37 14.54,-73.31 21.34,-69.03 24.79,-64.26 17.76,-62.66 -3.87,-66.3 -33.38,-69.55 -54.1,-60.36" fill="none" stroke="rgb(220, 208, 186)" stroke-width="2" stroke-linejoin="round" filter="url(#fuzzy)" /><polyline points="-38.23,-77.66 -5.9,-77.4 7.35,-72.59 15.83,-70.44 15.03,-72.05 6.86,-75.59 -2.45,-79.31 -7.77,-82.3 -7.48,-84.07 -2.98,-84.21 3.03,-82.51 8.08,-79.31 10.93,-75.75 11.28,-73.29 8.61,-72.86 0.92,-74.13 -13.74,-75.41 -32.55,-73.21 -56.03,-57.23" fill="none" stroke="rgb(220, 208, 186)" stroke-width="2" stroke-linejoin="round" filter="url(#fuzzy)" /><polyline points="64.39,-40.95 54.55,-48.56 37.54,-65.02 26.72,-75.26 22.87,-78.92 22.95,-78.66 24.04,-76.51 24.19,-73.5 21.99,-70.23 16.36,-67.41 7.37,-65.79 -2.41,-65.57 -8.19,-66.16 -5.74,-66.67 4.73,-66.92 16.85,-68.14 21.62,-72.25 13.58,-79.01 -19.68,-87.91" fill="none" stroke="rgb(220, 208, 186)" stroke-width="2" stroke-linejoin="round" filter="url(#fuzzy)" /><polyline points="-11.68,-90.49 -19.34,-74.26 -11.46,-75.58 -12.78,-78.52 -18.52,-79.35 -22.47,-78.8 -22.54,-78.14 -19.39,-78.03 -14.55,-78.58 -9.84,-79.49 -7.15,-80.26 -7.47,-80.33 -9.66,-79.55 -10.66,-78.4 -8.08,-77.83 -3.33,-78.77 -1.45,-81.58 -5.93,-85.2 -25.4,-85.49" fill="none" stroke="rgb(220, 208, 186)" stroke-width="2" stroke-linejoin="round" filter="url(#fuzzy)" /><polyline points="36.43,-78.71 5.67,-77.14 9.24,-79.62 14.03,-82.22 18.09,-82.67 22.63,-81.2 26.09,-79.38 26.18,-78.5 22.23,-78.79 15.87,-79.6 10.23,-80.22 8.42,-80.42 11.43,-80.55 16.31,-81.04 19.7,-81.48 39.78,-76.33" fill="none" stroke="rgb(220, 208, 186)" stroke-width="2" stroke-linejoin="round" filter="url(#fuzzy)" /><polyline points="-52.9,-62 11.64,-63.16 23.73,-69.48 17.42,-75.32 9.14,-78.4 5.41,-78.77 6.68,-77.02 9.94,-73.95 11.6,-70.68 9.67,-68.37 4.59,-67.68 -1.26,-68.57 -5.15,-70.42 -5.72,-72.37 -3.94,-73.66 -2.57,-73.77 -4.56,-72.46 -11.88,-70.21 -25.19,-68.6 -40.11,-69.59 -42.49,-74.06" fill="none" stroke="rgb(220, 208, 186)" stroke-width="2" stroke-linejoin="round" filter="url(#fuzzy)" /><polyline points="50.59,-64.92 48.78,-56.12 24.16,-58.94 0.45,-60.7 -8.23,-60.02 -1.98,-58.78 11.71,-58.37 24.83,-59.09 32.44,-60.79 33.47,-63.28 29.97,-66.08 25.64,-68.43 23.68,-69.69 24.79,-70.14 26.59,-71.05 25.22,-73.76 18.35,-78.07 7.4,-81.54 -2.33,-80.91 -0.36,-75.38 44.81,-71.77" fill="none" stroke="rgb(220, 208, 186)" stroke-width="2" stroke-linejoin="round" filter="url(#fuzzy)" /><polyline points="0.68,-91.62 35.75,-68.6 44.54,-66.19 44.89,-68.21 40.74,-70.85 31.83,-73.11 18.17,-74.35 2.11,-74.56 -11.9,-74.55 -19.23,-75.18 -17.28,-75.94 -6.08,-74.58 12.25,-69.12 32.51,-61.97 42.19,-63.5 23.07,-86.81" fill="none" stroke="rgb(220, 208, 186)" stroke-width="2" stroke-linejoin="round" filter="url(#fuzzy)" /><polyline points="57.65,-54.32 48.15,-63.43 45.29,-62.03 36.79,-60.68 25.52,-60.05 18.52,-59.19 18.74,-57.71 23.15,-56.44 26.24,-56.82 24.31,-59.62 17.32,-64.46 7.81,-70.03 -1.34,-74.99 -8.62,-78.55 -14.1,-80.55 -18.88,-81 -24.53,-79.49 -32.31,-75.43 -41.29,-69.84 -45.74,-68.04 -36.45,-78.82" fill="none" stroke="rgb(220, 208, 186)" stroke-width="2" stroke-linejoin="round" filter="url(#fuzzy)" /><polyline points="70.89,-15.26 70.92,-15.35 70.86,-16.25 70.79,-17.43 70.67,-18.79 70.48,-20.33 70.24,-22.01 69.99,-23.72 69.76,-25.37 69.56,-26.89 69.38,-28.25 69.19,-29.51 68.97,-30.74 68.7,-32.01 68.36,-33.37 67.95,-34.8 67.48,-36.26 67,-37.68 66.55,-39.01 66.17,-40.24 65.86,-41.38 65.59,-42.47 65.37,-43.47 65.24,-43.98 24.82,-102.36 23.32,-102.41 21.59,-102.63 19.98,-102.09 18.42,-101 16.94,-99.84 15.59,-98.95 14.36,-98.42 13.2,-98.13 12.03,-97.86 10.81,-97.4 9.56,-96.7 8.3,-95.78 7.06,-94.76 5.87,-93.79 4.72,-93.01 3.6,-92.45 2.45,-92.09 1.2,-91.84 -0.16,-91.63 -1.74,-91.46 -3.71,-91.46 -3.79,-91.44 -4.47,-91.31 -5.59,-91.2 -6.83,-91.08 -8.08,-90.96 -9.26,-90.84 -10.36,-90.74 -11.39,-90.65 -12.38,-90.55 -13.37,-90.43 -14.35,-90.3 -15.33,-90.16 -16.33,-90.01 -17.33,-89.86 -18.35,-89.7 -19.39,-89.51 -20.49,-89.25 -21.69,-88.91 -23,-88.47 -24.36,-87.99 -25.63,-87.55 -26.63,-87.29 -27.27,-87.28 -27.54,-87.3 -30.85,-97.8 -30.38,-97.22 -29.39,-96.25 -28.07,-95.72 -26.53,-95.64 -24.97,-95.9 -23.52,-96.33 -22.22,-96.71 -21.02,-96.87 -19.84,-96.7 -18.63,-96.21 -17.41,-95.46 -16.19,-94.6 -15,-93.81 -13.87,-93.25 -12.8,-92.98 -11.78,-92.89 -10.74,-92.76 -9.61,-92.37 -8.32,-91.74 -6.95,-91.26 -6.04,-91.12 -9.83,-90.44 -10.65,-90.2 -11.45,-89.29 -12.24,-88.27 -13.09,-87.47 -13.96,-86.86 -14.8,-86.18 -15.57,-85.23 -16.29,-83.96 -16.98,-82.54 -17.71,-81.19 -18.57,-80.1 -19.57,-79.34 -20.68,-78.82 -21.8,-78.36 -22.79,-77.74 -23.58,-76.82 -24.22,-75.61 -24.87,-74.27 -25.64,-72.95 -26.29,-71.69 -26.22,-70.45 -9.83,-90.44 -8.85,-93.33 -7.44,-93.56 -6.16,-93.44 -5.05,-93.93 -4.03,-95.31 -2.97,-97.39 -1.79,-99.79 -0.49,-102.03 0.87,-103.71 2.23,-104.65 3.55,-104.98 4.83,-105.18 6.13,-105.81 7.49,-107.18 8.93,-109.19 10.4,-111.39 11.96,-113.43 13.81,-115.42 16.06,-117.6" fill="none" stroke="rgb(220, 208, 186)" stroke-width="2" stroke-linejoin="round" filter="url(#fuzzy)" /><polyline points="70.96,-14.55 70.83,-16.03 70.85,-17.38 70.99,-18.82 71.36,-20.56 71.96,-22.59 72.66,-24.73 73.26,-26.76 73.57,-28.51 73.54,-29.93 73.23,-31.12 72.84,-32.26 72.59,-33.55 72.59,-35.15 72.84,-37.09 73.15,-39.23 73.34,-41.31 73.54,-43.06 74.74,-44.42" fill="none" stroke="rgb(220, 208, 186)" stroke-width="2" stroke-linejoin="round" filter="url(#fuzzy)" /><polyline points="4.01,-117.5 4.68,-114.11 3.66,-111.45 2.14,-109.46 0.55,-107.87 -0.94,-106.14 -2.27,-103.92 -3.42,-101.28 -4.44,-98.65 -5.43,-96.52 -6.5,-95.08 -7.67,-94.13 -8.86,-93.26 -9.93,-92.18 -10.82,-91.05 -11.68,-90.49" fill="none" stroke="rgb(220, 208, 186)" stroke-width="2" stroke-linejoin="round" filter="url(#fuzzy)" /><polyline points="-15.48,-89.38 -15.3,-89.17 -14.62,-88.86 -13.61,-88.25 -12.52,-87.41 -11.44,-86.66 -10.4,-86.22 -9.35,-86.07 -8.28,-86.04 -7.19,-85.89 -6.1,-85.5 -5.03,-84.87 -3.98,-84.12 -2.93,-83.38 -1.86,-82.74 -0.76,-82.23 0.36,-81.79 1.46,-81.32 2.5,-80.8 3.46,-80.25 4.36,-79.77 5.33,-79.39 6.42,-78.96 7.67,-78.55" fill="none" stroke="rgb(220, 208, 186)" stroke-width="2" stroke-linejoin="round" filter="url(#fuzzy)" /><polyline points="-50.03,-94.93 -47.79,-94.37 -45.59,-93.07 -43.69,-92.23 -42.11,-92.09 -40.73,-92.47 -39.42,-92.9 -38.09,-93.06 -36.73,-92.88 -35.38,-92.55 -34.05,-92.25 -32.72,-91.99 -31.34,-91.63 -29.9,-91.07 -28.45,-90.42 -27.05,-89.93 -25.67,-89.83 -24.24,-90.02 -22.66,-90.09 -21.05,-89.72 -19.67,-88.95 -18.54,-88.52 -19.95,-87.79 -21.77,-87.4 -23.6,-86.98 -25.1,-86.89 -26.33,-86.94 -27.42,-86.89 -28.47,-86.64 -29.52,-86.22 -30.53,-85.72 -31.51,-85.23 -32.45,-84.79 -33.41,-84.36 -34.44,-83.95 -35.55,-83.56 -36.75,-83.2 -37.95,-82.86 -39.1,-82.47 -40.19,-82.04 -41.28,-81.72 -42.4,-81.73 -43.09,-82.06" fill="none" stroke="rgb(220, 208, 186)" stroke-width="2" stroke-linejoin="round" filter="url(#fuzzy)" /><polyline points="-25.4,-85.49 -24,-86.09 -22.26,-86.47 -20.78,-86.6 -19.58,-86.5 -18.49,-86.15 -17.4,-85.57 -16.29,-84.84 -15.19,-84.12 -14.12,-83.5 -13.1,-82.99 -12.12,-82.6 -11.16,-82.32 -10.21,-82.19 -9.25,-82.19 -8.25,-82.22 -7.2,-82.14 -6.12,-81.8 -5.06,-81.14 -4.1,-80.19 -3.29,-79.07 -2.5,-77.87 -1.2,-76.26" fill="none" stroke="rgb(220, 208, 186)" stroke-width="2" stroke-linejoin="round" filter="url(#fuzzy)" /><polyline points="-26.44,-85.04 -25.25,-85.03 -23.78,-85.26 -22.17,-85.35 -20.7,-85.26 -19.48,-85.2 -18.46,-85.28 -17.52,-85.41 -16.57,-85.4 -15.56,-85.06 -14.51,-84.34 -13.45,-83.43 -12.4,-82.62 -11.43,-82.13 -10.53,-81.86 -9.64,-82 -26.64,-84.97 -28.18,-86.23 -30.21,-87.39 -31.83,-88.06 -33.03,-88.31 -34.04,-88.25 -35.06,-88.05 -36.19,-87.81 -37.4,-87.48 -38.55,-86.93 -39.58,-86.13 -40.53,-85.23 -41.51,-84.53 -42.66,-84.32 -44.04,-84.79 -45.59,-85.83 -47.16,-86.64 -26.64,-84.97 -26.18,-85.22 -25.25,-85.72 -23.98,-86.35 -22.6,-87 -21.31,-87.59 -20.17,-88.11 -19.16,-88.57 -18.21,-89 -17.27,-89.4 -16.32,-89.79 -15.38,-90.18 -14.44,-90.57 -13.51,-90.94 -12.58,-91.28 -11.64,-91.57 -10.7,-91.81 -9.67,-92.07 -8.39,-92.43 -6.37,-92.86 -29.98,-83.3 -28.42,-85.93 -28.06,-88.59 -27.5,-89.95 -26.45,-90.3 -25.07,-90.31 -23.62,-90.48 -22.29,-91.01 -21.16,-91.87 -20.18,-92.91 -19.26,-93.91 -18.33,-94.71 -17.36,-95.29 -16.36,-95.79 -15.38,-96.5 -14.45,-97.68 -13.61,-99.45 -12.81,-101.71 -11.97,-104.08 -10.97,-106 -9.69,-107.05 -8.18,-107.38 -7.17,-108.07" fill="none" stroke="rgb(220, 208, 186)" stroke-width="2" stroke-linejoin="round" filter="url(#fuzzy)" /><polyline points="-33.96,-80.6 -34.92,-80.23 -36.03,-79.64 -37.23,-79.46 -38.74,-80.01 -40.57,-81.29 -42.53,-82.85 -44.33,-84.12 -45.77,-84.69 -46.87,-84.56 -47.81,-84.03 -48.81,-83.47 -50.05,-83.11 -51.66,-82.97 -53.69,-82.98 -55.91,-82.89 -57.55,-82.25" fill="none" stroke="rgb(220, 208, 186)" stroke-width="2" stroke-linejoin="round" filter="url(#fuzzy)" /><polyline points="-34.49,-80.54 -34.14,-82.11 -33.55,-83.47 -32.74,-84.02 -31.98,-84.67 -31.42,-86.18 -31.08,-88.76 -30.91,-92.06 -30.73,-95.44 -30.34,-98.27 -29.59,-100.25 -28.48,-101.46 -27.11,-102.24 -25.68,-102.97 -24.35,-103.87 -23.19,-105.04 -22.2,-106.57 -21.33,-108.63 -20.58,-111.36 -19.97,-114.6 -19.18,-117.96 -16.93,-122.27 -36.45,-78.82 -36.33,-79.81 -35.57,-81.2 -34.56,-82.14 -33.59,-82.86 -32.77,-83.65 -32.04,-84.56 -31.31,-85.58 -30.52,-86.66 -29.71,-87.86 -28.91,-89.26 -28.14,-90.95 -27.39,-92.9 -26.57,-94.99 -25.63,-96.98 -24.57,-98.58 -23.4,-99.62 -22.19,-100.13 -21,-100.37 -19.87,-100.73 -18.85,-101.57 -17.99,-102.96 -17.05,-104.68 -14.77,-106.67 -61.78,-63.1 -61.21,-62.11 -60,-62.94 -58.76,-63.98 -57.64,-64.88 -56.63,-65.67 -55.7,-66.4 -54.82,-67.14 -53.95,-67.96 -53.1,-68.89 -52.26,-69.89 -51.41,-70.9 -50.48,-71.85 -49.42,-72.65 -48.23,-73.35 -47,-74.01 -45.85,-74.74 -44.85,-75.53 -43.95,-76.25 -42.99,-76.69 -41.91,-76.8 -40.84,-76.83 -39.94,-77.09 -38.55,-77.09 -38.55,-77.09 -39.45,-80.88 -38.91,-82.29 -38.15,-83.53 -37.25,-84.64 -36.21,-85.42 -35.07,-85.8 -33.93,-85.88 -32.82,-85.89 -31.77,-86.07 -30.79,-86.6 -29.89,-87.55 -29.1,-88.85 -28.42,-90.36 -27.76,-91.92 -26.92,-93.41 -25.67,-94.83 -23.97,-96.44 -22.34,-98.34" fill="none" stroke="rgb(220, 208, 186)" stroke-width="2" stroke-linejoin="round" filter="url(#fuzzy)" /><polyline points="70.65,-18.17 70.77,-17.48 71.28,-16.53 72.36,-15.62 73.85,-14.72 75.33,-13.76 76.41,-12.71 76.97,-11.54 77.17,-10.27 77.32,-8.88 77.75,-7.37 78.66,-5.73 80.06,-3.96 81.64,-2.07 82.84,-0.07 83.92,2.1 70.65,-18.17 74.39,-21.25 73.46,-23.07 72.42,-24.9 72.34,-26.83 73.21,-28.82 74.56,-30.81 75.93,-32.75 77.05,-34.65 77.97,-36.64 78.87,-38.86 79.86,-41.31 80.81,-43.81 81.41,-46.07 81.41,-47.88 80.81,-49.21 79.95,-50.29 79.4,-51.51 79.69,-53.28 81.15,-55.96 83.75,-60.26" fill="none" stroke="rgb(220, 208, 186)" stroke-width="2" stroke-linejoin="round" filter="url(#fuzzy)" /><polyline points="-42.49,-74.06 -42.94,-76.21 -42.95,-78.3 -42.44,-79.46 -41.79,-80.39 -41.17,-81.51 -40.64,-82.96 -40.13,-84.62 -39.54,-86.28 -38.82,-87.77 -37.95,-88.98 -37,-89.91 -36.01,-90.62 -35.03,-91.23 -34.07,-91.92 -33.15,-92.85 -32.27,-94.1 -31.46,-95.62 -30.74,-97.24 -30.06,-98.81 -29.25,-100.31 -27.95,-102.01 -25.39,-103.85 -43.86,-72.63 -43.05,-72.6 -42.08,-72.63 -41.18,-72.9 -40.41,-73.46 -39.68,-74.08 -38.89,-74.59 -38.01,-74.97 -37.06,-75.29 -36.04,-75.59 -34.98,-75.86 -33.86,-76.08 -32.71,-76.21 -31.57,-76.29 -30.51,-76.4 -29.55,-76.61 -28.67,-76.93 -27.76,-77.27 -26.73,-77.52 -25.61,-77.6 -24.56,-77.51 -23.76,-77.35 -23.05,-77.58 -43.86,-72.63 -45.18,-71.02 -46.22,-69.54 -46.93,-68.2 -47.46,-66.94 -47.96,-65.74 -48.53,-64.58 -49.19,-63.5 -49.82,-62.49 -50.34,-61.49 -50.71,-60.41 -51.01,-59.22 -51.36,-57.96 -51.94,-56.64 -52.88,-55.04 -54.35,-52.44 -46.85,-69.15 -47.35,-73.58 -45.97,-74.32 -44.73,-74.72 -43.89,-75.46 -43.25,-76.42 -42.69,-77.48 -42.14,-78.59 -41.6,-79.76 -41.07,-81.03 -40.52,-82.41 -39.95,-83.88 -39.33,-85.42 -38.66,-87.01 -37.96,-88.63 -37.27,-90.23 -36.58,-91.74 -35.85,-93.02 -35.01,-93.99 -34.01,-94.72 -32.88,-95.45 -31.8,-96.46 -30.99,-97.86 -30.5,-99.35 -29.87,-100.55" fill="none" stroke="rgb(220, 208, 186)" stroke-width="2" stroke-linejoin="round" filter="url(#fuzzy)" /><polyline points="-48.6,-67.38 -48.56,-66.32 -49.09,-64.89 -49.89,-63.73 -50.51,-62.66 -50.84,-61.44 -51.01,-60.05 -51.18,-58.57 -51.47,-57.13 -51.88,-55.77 -52.35,-54.52 -52.85,-53.37 -53.3,-52.26 -53.66,-51.07 -53.87,-49.69 -53.89,-48.02 -53.72,-46.09 -53.48,-44.09 -53.31,-42.34 -53.31,-41.13 -53.43,-40.33 -53.35,-38.25" fill="none" stroke="rgb(220, 208, 186)" stroke-width="2" stroke-linejoin="round" filter="url(#fuzzy)" /><polyline points="-48.63,-67.32 -49.14,-68.82 -49.16,-70.59 -48.54,-72.11 -47.85,-73.84 -47.35,-75.81 -47.02,-77.87 -46.86,-80.01 -46.91,-82.41 -47.21,-85.23 -47.65,-88.33 -48.01,-91.28 -48.02,-93.69 -47.63,-95.49 -47,-97.02 -46.39,-98.75 -45.9,-101.18 -44.73,-104.45" fill="none" stroke="rgb(220, 208, 186)" stroke-width="2" stroke-linejoin="round" filter="url(#fuzzy)" /><polyline points="-51.54,-63.5 -52.83,-62.4 -53.94,-61.54 -54.91,-60.59 -55.76,-59.48 -56.52,-58.37 -57.25,-57.36 -58.01,-56.45 -58.83,-55.56 -59.71,-54.58 -60.6,-53.46 -61.45,-52.23 -62.22,-50.97 -62.9,-49.78 -63.49,-48.72 -64.06,-47.76 -64.67,-46.81 -65.36,-45.85 -66.15,-45.05 -66.87,-44.53" fill="none" stroke="rgb(220, 208, 186)" stroke-width="2" stroke-linejoin="round" filter="url(#fuzzy)" /><polyline points="-52.9,-62 -54.54,-61.96 -55.86,-61.48 -57.33,-60.94 -59.01,-60.68 -60.71,-60.58 -62.31,-60.38 -63.79,-59.96 -65.2,-59.28 -66.58,-58.41 -67.92,-57.44 -69.18,-56.44 -70.3,-55.44 -71.19,-54.39 -71.83,-53.23 -72.25,-51.91 -72.61,-50.48 -73.07,-49.03 -73.84,-47.68 -75.02,-46.51 -76.64,-45.54 -78.53,-44.74 -80.21,-44.06 -81.19,-44.43" fill="none" stroke="rgb(220, 208, 186)" stroke-width="2" stroke-linejoin="round" filter="url(#fuzzy)" /><polyline points="-52.9,-62 -53.38,-60.67 -53.75,-59.19 -54.4,-57.85 -55.18,-56.78 -55.95,-55.86 -56.64,-54.95 -57.26,-53.9 -57.82,-52.68 -58.32,-51.29 -58.76,-49.82 -59.12,-48.34 -59.4,-46.94 -59.64,-45.64 -59.87,-44.42 -60.14,-43.25 -60.48,-42.1 -60.88,-40.93 -61.31,-39.71 -61.69,-38.37 -61.99,-36.93 -62.28,-35.33 -62.93,-33.05 -43.68,-88.73 -43.9,-87.13 -44.71,-86.46 -45.49,-85.77 -46.08,-84.69 -46.47,-83.17 -46.73,-81.37 -47,-79.48 -47.41,-77.65 -47.98,-75.95 -48.66,-74.39 -49.39,-72.96 -50.13,-71.65 -50.88,-70.44 -51.6,-69.26 -52.24,-68.01 -52.72,-66.64 -53.03,-65.19 -53.21,-63.76 -53.42,-62.39 -53.77,-61.16 -54.1,-60.36" fill="none" stroke="rgb(220, 208, 186)" stroke-width="2" stroke-linejoin="round" filter="url(#fuzzy)" /><polyline points="-58.51,-53.33 -59.26,-55.6 -59.56,-57.36 -59,-58.28 -58.24,-59.14 -57.7,-60.47 -57.51,-62.33 -57.69,-64.61 -58.19,-67.16 -58.89,-69.86 -59.59,-72.54 -60.05,-75.04 -60.08,-77.22 -59.75,-79.16 -59.47,-81.17 -59.74,-83.74 -60.43,-86.77 -59.75,-88.19 -60.94,-48.76 -61.68,-48.56 -63.69,-49 -65.41,-49.19 -66.53,-48.68 -67.47,-47.81 -68.51,-46.88 -69.62,-45.92 -70.55,-44.82 -71.15,-43.49 -71.52,-42.02 -71.91,-40.56 -72.6,-39.24 -73.78,-38.15 -75.5,-37.29 -77.58,-36.6 -79.72,-35.96 -81.62,-35.16 -83.19,-34.01 -84.64,-32.45 -86.22,-30.71 -87.82,-29.28 -88.36,-28.43 -60.61,-48.75 -63.74,-48.84 -63.88,-47.91 -63.98,-46.72 -64.49,-45.6 -65.32,-44.59 -66.36,-43.64 -67.56,-42.72 -68.92,-41.86 -70.47,-41.1 -72.12,-40.39 -73.73,-39.64 -75.11,-38.74 -76.19,-37.63 -77.07,-36.37 -77.95,-35.06 -79.1,-33.78 -80.63,-32.55 -82.45,-31.33 -84.3,-30.1 -85.94,-28.85 -87.32,-27.62 -88.64,-26.21 -89.91,-24.19 -91.39,-21.48 -65.5,-90.68 -64.7,-85.93 -64.86,-82.76 -64.5,-79.91 -63.57,-76.88 -62.44,-73.69 -61.49,-70.6 -60.93,-67.83 -60.79,-65.48 -60.98,-63.57 -61.34,-62.01 -61.65,-60.59 -61.74,-59.05 -61.5,-57.13 -60.99,-54.75 -60.57,-52.18 -60.56,-49.91 -60.61,-48.75 -61.05,-48.57 -60.44,-46.71 -59.21,-46.78 -58.04,-47.65 -57.04,-48.84 -56.29,-50.16 -55.76,-51.5 -55.31,-52.72 -54.75,-53.74 -53.98,-54.55 -53.01,-55.2 -51.9,-55.75 -50.71,-56.19 -49.48,-56.51 -48.24,-56.69 -47.04,-56.8 -45.89,-56.97 -44.77,-57.25 -43.6,-57.56 -42.36,-57.68 -41.09,-57.38 -39.53,-56.49" fill="none" stroke="rgb(220, 208, 186)" stroke-width="2" stroke-linejoin="round" filter="url(#fuzzy)" /><polyline points="-75.49,-30.03 -74.15,-31.5 -73.24,-32.22 -72.38,-32.91 -71.52,-33.91 -70.78,-35.17 -70.27,-36.53 -69.87,-37.85 -69.36,-39.07 -68.57,-40.13 -67.48,-41.08 -66.27,-41.99 -65.19,-42.93 -64.36,-43.98 -63.74,-45.16 -62.91,-46.59 -61.05,-48.57" fill="none" stroke="rgb(220, 208, 186)" stroke-width="2" stroke-linejoin="round" filter="url(#fuzzy)" /><polyline points="-63.56,-43.09 -64.11,-42.16 -65.01,-40.97 -66.27,-40 -67.93,-39.34 -69.83,-38.88 -71.74,-38.42 -73.45,-37.77 -74.9,-36.87 -76.21,-35.86 -77.7,-34.93 -79.69,-34.17 -82.2,-33.42 -84.77,-32.34 -86.55,-30.74 -87.3,-29.09 -89.18,-28.69 -63.56,-43.09 -64.41,-42.33 -66.22,-41.69 -68.39,-41.27 -70.01,-40.62 -70.78,-39.56 -71.07,-38.22 -71.43,-36.83 -72.24,-35.59 -73.58,-34.62 -75.28,-33.86 -77.01,-33.12 -78.48,-32.05 -79.54,-30.47 -80.32,-28.58 -81.31,-27.09 -82.96,-26.69" fill="none" stroke="rgb(220, 208, 186)" stroke-width="2" stroke-linejoin="round" filter="url(#fuzzy)" /><polyline points="68.94,-26.4 69.03,-22.39 68.75,-20.13 68.84,-18.6 69.07,-17.36 69.21,-16.21 69.2,-15.04 69.08,-13.86 68.93,-12.66 68.78,-11.44 68.63,-10.21 68.47,-8.93 68.24,-7.6 67.94,-6.19 67.55,-4.7 67.11,-3.19 66.67,-1.7 66.32,-0.3 66.12,0.93 66.06,2 66.07,2.98 65.96,3.99 65.63,5.18 65.13,6.51 64.61,7.87 68.94,-26.4 69.59,-26.88 70.17,-28.12 70.57,-29.36 70.81,-30.55 70.92,-31.79 70.97,-33.2 71.09,-34.87 71.34,-36.8 71.74,-38.88 72.23,-40.95 72.68,-42.85 72.93,-44.47 72.91,-45.86 72.9,-47.33 73.46,-49.65" fill="none" stroke="rgb(220, 208, 186)" stroke-width="2" stroke-linejoin="round" filter="url(#fuzzy)" /><polyline points="-89.4,-15.43 -88.03,-16.99 -86.27,-18.16 -85.03,-19.43 -84.09,-20.85 -83.26,-22.35 -82.45,-23.86 -81.62,-25.32 -80.7,-26.72 -79.68,-28.11 -78.59,-29.51 -77.47,-30.86 -76.28,-32.07 -74.87,-33.06 -73.12,-33.82 -71.05,-34.44 -68.98,-35.07 -67.34,-35.8 -66.31,-36.66 -65.64,-37.68 -65.12,-38.47" fill="none" stroke="rgb(220, 208, 186)" stroke-width="2" stroke-linejoin="round" filter="url(#fuzzy)" /><polyline points="-59.2,-57.12 -58.76,-57.79 -58.93,-57.06 -59.34,-55.89 -59.89,-54.55 -60.51,-53.09 -61.13,-51.58 -61.68,-50.14 -62.12,-48.84 -62.48,-47.66 -62.8,-46.56 -63.14,-45.45 -63.54,-44.32 -63.95,-43.13 -64.3,-41.79 -64.63,-40.17 -65.12,-38.47 -66.17,-36.21 -66.01,-36.27 -65.5,-37.36 -64.96,-38.66 -64.44,-40.01 -63.94,-41.32 -63.45,-42.57 -62.96,-43.75 -62.48,-44.85 -61.98,-45.91 -61.46,-46.96 -60.9,-48.05 -60.28,-49.22 -59.6,-50.45 -58.89,-51.7 -58.16,-52.92 -57.47,-54.05 -56.81,-55.09 -56.17,-56.08 -55.5,-57.11 -54.75,-58.22 -53.94,-59.38 -53.18,-60.43 -52.41,-61.43" fill="none" stroke="rgb(220, 208, 186)" stroke-width="2" stroke-linejoin="round" filter="url(#fuzzy)" /><polyline points="76.45,3.68 76.35,2.88 76.01,2.22 75.72,1.16 75.46,-0.27 75.15,-1.92 74.77,-3.63 74.36,-5.3 73.95,-6.88 73.58,-8.35 73.24,-9.72 72.93,-11 72.63,-12.23 72.35,-13.43 72.08,-14.61 71.81,-15.78 71.55,-16.98 71.27,-18.25 71,-19.66 70.78,-21.26 70.62,-23.08 70.44,-24.99 70.07,-26.7 69.29,-27.85 68.59,-28.05" fill="none" stroke="rgb(220, 208, 186)" stroke-width="2" stroke-linejoin="round" filter="url(#fuzzy)" /><polyline points="67.96,-29.91 69.35,-31.34 70.64,-33.32 71.52,-35.57 72.16,-37.86 72.23,-39.75 71.55,-41.06 70.39,-41.93 69.21,-42.71 68.41,-43.69 68.15,-45.05 68.39,-46.82 68.98,-48.93 69.73,-51.26 70.44,-53.65 70.97,-55.97 71.27,-58.16 71.38,-60.24 71.43,-62.32 71.56,-64.55 71.82,-66.95 72.05,-69.44 71.99,-71.84 71.37,-73.26 67.79,-30.41 65.17,-30.49 64.95,-32.16 64.93,-34.02 64.73,-35.66 64.27,-36.94 63.49,-37.85 62.32,-38.38 60.82,-38.64 59.17,-38.79 57.59,-39.03 56.26,-39.47 55.17,-40.14 54.23,-40.92 53.31,-41.69 52.35,-42.37 51.4,-43.01 50.41,-43.67 49.05,-44.24" fill="none" stroke="rgb(220, 208, 186)" stroke-width="2" stroke-linejoin="round" filter="url(#fuzzy)" /><polyline points="65.93,-36.96 67.49,-35.93 69.13,-34.71 71.06,-33.86 72.93,-33.24 74.54,-32.63 75.79,-31.86 76.54,-30.77 76.79,-29.3 76.71,-27.5 76.62,-25.56 76.82,-23.66 77.42,-21.97 78.42,-20.53 79.73,-19.3 81.27,-18.22 82.9,-17.18 84.42,-16.1 85.66,-14.92 86.62,-13.67 87.59,-12.35 88.81,-10.82 89.92,-9.38" fill="none" stroke="rgb(220, 208, 186)" stroke-width="2" stroke-linejoin="round" filter="url(#fuzzy)" /><polyline points="65.93,-36.96 66.36,-38.89 66.98,-40.5 67.4,-41.97 67.62,-43.4 67.96,-45.01 68.65,-47.01 69.64,-49.38 70.7,-51.94 71.58,-54.48 72.18,-56.85 72.49,-59.03 72.58,-61.06 72.41,-62.97 71.84,-64.65 71.18,-66.13" fill="none" stroke="rgb(220, 208, 186)" stroke-width="2" stroke-linejoin="round" filter="url(#fuzzy)" /><polyline points="65.93,-36.96 66.69,-35.5 68.78,-34.5 71.85,-34.19 74.59,-33.98 76.33,-33.44 77.3,-32.53 77.97,-31.36 78.63,-29.98 79.26,-28.4 79.76,-26.64 80.13,-24.77 80.54,-22.97 81.25,-21.36 82.42,-20.01 84.07,-18.88 85.92,-17.84 87.6,-16.75 88.8,-15.53 89.54,-14.27 90.11,-12.96 90.27,-10.19 98.24,-10.25 96.64,-11.77 94.22,-13.26 92.01,-14.5 90.63,-15.81 89.96,-17.23 89.56,-18.66 89.05,-20.04 88.18,-21.37 86.8,-22.65 84.9,-23.9 82.61,-25.15 80.19,-26.41 77.92,-27.63 75.92,-28.76 74.14,-29.7 72.46,-30.43 70.87,-31.04 69.43,-31.69 68.22,-32.57 67.25,-33.81 66.5,-35.42 65.93,-36.96 65.16,-38.72 64.49,-40.18 64,-41.21 63.48,-42.18 62.89,-43.2 62.26,-44.32 61.63,-45.51 61.01,-46.71 60.38,-47.9 59.74,-49.06 59.1,-50.19 58.44,-51.31 57.78,-52.41 57.11,-53.49 56.45,-54.53 55.78,-55.52 55.09,-56.44 54.31,-57.34 53.39,-58.29 52.37,-59.34 51.52,-60.4" fill="none" stroke="rgb(220, 208, 186)" stroke-width="2" stroke-linejoin="round" filter="url(#fuzzy)" /><polyline points="65.16,-38.72 65.88,-38.54 67.75,-38.05 69.45,-37.11 70.32,-35.71 70.54,-34.11 70.61,-32.61 70.91,-31.36 71.6,-30.33 72.65,-29.4 73.9,-28.38 75.22,-27.16 76.53,-25.73 77.86,-24.17 79.26,-22.65 80.8,-21.31 82.53,-20.18 84.42,-19.27 86.17,-18.63 87.83,-18.9" fill="none" stroke="rgb(220, 208, 186)" stroke-width="2" stroke-linejoin="round" filter="url(#fuzzy)" /><polyline points="62.48,-16.07 63.44,-18.09 63.82,-20.05 63.99,-22 64.23,-23.78 64.56,-25.33 64.88,-26.67 65.1,-27.87 65.19,-29.03 65.15,-30.24 64.95,-31.56 64.56,-32.96 64.04,-34.39 63.56,-35.82 63.35,-37.22 63.57,-38.69 64.39,-40.95" fill="none" stroke="rgb(220, 208, 186)" stroke-width="2" stroke-linejoin="round" filter="url(#fuzzy)" /><polyline points="64.26,-40.96 63.12,-41.91 62.21,-42.74 61.39,-43.77 60.68,-44.93 59.98,-46.07 59.19,-47.09 58.3,-47.98 57.34,-48.8 56.41,-49.63 55.55,-50.49 54.75,-51.39 53.99,-52.26 53.18,-53.04 52.27,-53.68 51.2,-54.22 49.96,-54.74 48.55,-55.28 47.03,-55.92 45.63,-57.27" fill="none" stroke="rgb(220, 208, 186)" stroke-width="2" stroke-linejoin="round" filter="url(#fuzzy)" /><polyline points="70.92,-20.84 70.09,-24.43 69.65,-26.25 69.29,-27.51 68.95,-28.55 68.6,-29.53 68.23,-30.56 67.82,-31.71 67.38,-33.01 66.89,-34.42 66.38,-35.86 65.88,-37.24 65.42,-38.5 64.99,-39.62 64.57,-40.63 64.14,-41.56 63.7,-42.37 63.39,-42.73 61.91,-46.67 62.59,-45.09 63.18,-43.78 63.68,-42.69 64.12,-41.68 64.55,-40.67 64.99,-39.62 65.45,-38.48 65.93,-37.23 66.41,-35.87 66.89,-34.45 67.34,-33.06 67.76,-31.75 68.15,-30.55 68.51,-29.44 68.87,-28.35 69.23,-27.17 69.61,-25.78 70.02,-24.09 70.46,-22.16 70.88,-20.22 71.3,-18.34" fill="none" stroke="rgb(220, 208, 186)" stroke-width="2" stroke-linejoin="round" filter="url(#fuzzy)" /><polyline points="58.65,-52.9 60.24,-55.83 59.33,-56.63 58.43,-57.53 57.99,-58.88 57.84,-60.6 57.7,-62.45 57.43,-64.24 57.03,-65.86 56.57,-67.29 56.1,-68.6 55.65,-69.87 55.22,-71.23 54.85,-72.78 54.59,-74.56 54.45,-76.51 54.43,-78.51 54.43,-80.44 54.31,-82.2 53.93,-83.79 53.26,-85.33 52.41,-87.17 51.06,-89.43 84.86,-34.71 82.39,-35.56 80.98,-36.46 80.08,-37.73 79.11,-39.2 77.94,-40.64 76.63,-41.93 75.29,-43.04 73.94,-43.94 72.55,-44.67 71.12,-45.28 69.72,-45.89 68.47,-46.64 67.46,-47.6 66.64,-48.74 65.88,-49.94 64.99,-51.02 63.85,-51.88 62.47,-52.5 60.99,-53.02 59.6,-53.6 58.42,-54.33 57.44,-55.28 56.6,-56.45 56.05,-57.53" fill="none" stroke="rgb(220, 208, 186)" stroke-width="2" stroke-linejoin="round" filter="url(#fuzzy)" /><polyline points="56.05,-57.53 56.68,-56.57 57.75,-55.67 58.77,-54.81 59.64,-53.86 60.5,-52.89 61.49,-52.01 62.68,-51.27 64.12,-50.67 65.79,-50.18 67.66,-49.76 69.6,-49.37 71.44,-48.96 72.98,-48.47 74.11,-47.9 75.23,-47.84" fill="none" stroke="rgb(220, 208, 186)" stroke-width="2" stroke-linejoin="round" filter="url(#fuzzy)" /><polyline points="56.26,-57.31 54.49,-58.7 53.07,-59.74 52.06,-60.78 51.16,-61.49 50.11,-61.71 48.83,-61.59 47.47,-61.45 46.22,-61.57 45.21,-62.03 44.44,-62.75 43.79,-63.52 43.09,-64.14 42.21,-64.49 41.09,-64.59 39.81,-64.56 38.45,-64.56 37.15,-64.75 35.96,-65.17 34.87,-65.72 33.77,-66.16 32.62,-66.29 31.51,-66.07 30.76,-65.64 30.49,-64.75 54.56,-59.55 56.17,-58.72 57.15,-58.25 57.72,-57.31 58.33,-56.23 59.17,-55.26 60.2,-54.42 61.26,-53.59 62.25,-52.69 63.15,-51.68 64.03,-50.62 64.95,-49.56 65.92,-48.51 66.86,-47.47 67.73,-46.43 68.51,-45.44 69.26,-44.52 70.02,-43.68 70.74,-42.91 71.36,-42.72" fill="none" stroke="rgb(220, 208, 186)" stroke-width="2" stroke-linejoin="round" filter="url(#fuzzy)" /><polyline points="51.33,-64.43 51.52,-64.3 51.92,-65.58 52.5,-68.08 52.9,-70.81 52.93,-73.05 52.67,-74.74 52.35,-76.19 52.14,-77.77 52.09,-79.76 52.21,-82.28 52.47,-85.38 52.82,-88.96 53.15,-92.79 53.25,-96.45 52.95,-99.56 52.31,-102.13 51.14,-104.39" fill="none" stroke="rgb(220, 208, 186)" stroke-width="2" stroke-linejoin="round" filter="url(#fuzzy)" /><polyline points="51.33,-64.43 52.39,-62.34 53.26,-60.71 54.04,-59.28 54.64,-57.95 55.05,-56.62 55.36,-55.3 55.73,-54.03 56.21,-52.84 56.74,-51.67 57.18,-50.43 57.42,-49.03 57.44,-47.46 57.33,-45.78 57.26,-44.13 57.37,-42.58 57.63,-41.14 57.71,-39.72 57.2,-38.66 51.44,-63.81 51.33,-64.29 51.11,-66.02 50.94,-68.2 50.66,-70.09 50.27,-71.54 49.85,-72.74 49.48,-74.01 49.18,-75.54 48.92,-77.38 48.67,-79.5 48.38,-81.81 48.02,-84.21 47.53,-86.55 46.92,-88.79 46.31,-91.09 45.92,-93.73 45.98,-96.7 46.36,-99.03 46.46,-98.65 56.74,-38.25 56.74,-40.43 56.81,-42.28 56.81,-43.91 56.69,-45.38 56.45,-46.74 56.11,-48.03 55.69,-49.26 55.24,-50.48 54.83,-51.73 54.49,-53.04 54.19,-54.37 53.84,-55.69 53.35,-56.95 52.7,-58.17 51.98,-59.39 51.3,-60.57 50.69,-61.5 50.13,-61.96 49.73,-62.28 50.59,-64.92 48.97,-66.92 50.42,-65.58 51.46,-65.02 52.17,-64.6 52.76,-63.92 53.4,-62.95 54.18,-61.86 55.1,-60.82 56.14,-59.92 57.21,-59.13 58.27,-58.38 59.27,-57.59 60.24,-56.74 61.2,-55.83 62.19,-54.91 63.18,-53.97 64.12,-52.97 64.98,-51.88 65.8,-50.71 66.69,-49.5 67.77,-48.37 69.03,-47.5 70.15,-47.41 48.97,-66.92 45.78,-64.24 45.52,-65.52 45.66,-67.03 45.32,-67.89 44.42,-68.18 43.16,-68.15 41.7,-68 40.15,-67.81 38.58,-67.62 37.07,-67.52 35.71,-67.62 34.52,-67.91 33.5,-68.23 32.62,-68.38 31.9,-68.23 31.22,-67.75 30.01,-67.01 27.62,-83.52 29.1,-82.79 30.38,-82.12 31.51,-81.45 32.55,-80.79 33.53,-80.14 34.47,-79.51 35.34,-78.93 36.17,-78.38 36.99,-77.83 37.84,-77.23 38.77,-76.54 39.75,-75.75 40.79,-74.88 41.84,-73.96 42.88,-73.02 43.9,-72.11 44.86,-71.24 45.73,-70.45 46.47,-69.76 47.04,-69.21 47.55,-68.74 48.71,-67.59 48.71,-67.59 49.34,-71.4 50.16,-73.83 50.45,-75.65 49.93,-76.67 48.9,-77.32 47.88,-78.28 47.18,-80 46.79,-82.4 46.52,-85.1 46.18,-87.74 45.7,-90.17 45.2,-92.41 44.83,-94.35 44.78,-95.64 45.59,-96.8 37.87,-106.53 39.18,-105.49 39.84,-102.82 40.29,-100.05 40.76,-97.53 41.34,-95.47 42.04,-93.97 42.76,-92.8 43.39,-91.54 43.91,-89.92 44.44,-88.03 45.13,-86.18 46.05,-84.62 47.11,-83.3 48.03,-81.86 48.55,-79.9 48.56,-77.28 48.2,-74.33 47.8,-71.73 47.39,-70 46.46,-69.95" fill="none" stroke="rgb(220, 208, 186)" stroke-width="2" stroke-linejoin="round" filter="url(#fuzzy)" /><polyline points="47.95,-68.11 47.66,-68.67 48.52,-68.2 49.86,-67.71 51.41,-67.53 53.05,-67.7 54.74,-68.1 56.48,-68.53 58.31,-68.84 60.21,-68.95 62.16,-68.9 64.15,-68.8 66.18,-68.74 68.23,-68.75 70.26,-68.71 72.21,-68.53 74.04,-68.13 75.66,-67.4 77.01,-66.18 78.55,-64.84 46.3,-70.09 45.15,-69.62 44.27,-70.34 43.25,-71.11 42.02,-71.62 40.67,-71.98 39.37,-72.41 38.22,-73.03 37.23,-73.75 36.33,-74.35 35.44,-74.64 34.48,-74.59 33.4,-74.31 32.19,-73.93 30.88,-73.5 29.58,-73.05 28.38,-72.84 27.25,-73.63 42.34,-74.23 43.51,-74.68 46.04,-76.32 47.97,-76.96 48.92,-76.24 49.31,-74.85 49.62,-73.44 50.13,-72.31 50.98,-71.54 52.16,-71.11 53.58,-70.95 55.09,-70.94 56.52,-70.91 57.81,-70.68 58.98,-70.18 60.21,-69.5 61.68,-68.87 63.51,-68.52 65.67,-68.57 68.07,-68.99 70.78,-69.65 73.9,-70.46 76.59,-71.16 18.58,-78.39 18.95,-78.88 19.4,-79.41 20.11,-79.62 21.03,-79.62 22.09,-79.57 23.18,-79.52 24.23,-79.4 25.25,-79.16 26.28,-78.84 27.36,-78.56 28.55,-78.42 29.82,-78.44 31.11,-78.52 32.34,-78.51 33.45,-78.3 34.44,-77.94 35.34,-77.6 36.22,-77.43 37.16,-77.37 38.2,-77.15 39.23,-76.66 39.83,-76.32" fill="none" stroke="rgb(220, 208, 186)" stroke-width="2" stroke-linejoin="round" filter="url(#fuzzy)" /><polyline points="16.46,-89.7 17.35,-89.48 18.34,-89.16 19.42,-88.77 20.37,-88.4 21.18,-88.05 21.96,-87.67 22.81,-87.24 23.77,-86.76 24.78,-86.26 25.78,-85.76 26.75,-85.26 27.69,-84.74 28.67,-84.15 29.74,-83.46 30.96,-82.69 32.34,-81.77" fill="none" stroke="rgb(220, 208, 186)" stroke-width="2" stroke-linejoin="round" filter="url(#fuzzy)" /><polyline points="30.7,-82.95 32.01,-82.16 33.08,-81.76 34.15,-81.39 35.28,-81.11 36.45,-81.12 37.66,-81.45 38.92,-81.91 40.24,-82.25 41.56,-82.26 42.85,-81.88 44.09,-81.16 45.34,-80.32 46.67,-79.59 48.12,-79.09 49.63,-78.81 51.06,-78.72 52.31,-79.18" fill="none" stroke="rgb(220, 208, 186)" stroke-width="2" stroke-linejoin="round" filter="url(#fuzzy)" /><polyline points="27.23,-84.6 29.27,-87.51 30.47,-86.84 31.64,-85.91 32.99,-85.57 34.62,-86.07 36.51,-87.27 38.51,-88.83 40.4,-90.32 42.02,-91.34 43.3,-91.65 44.37,-91.27 45.44,-90.51 46.78,-89.86 48.55,-89.71 50.7,-90.11 53.06,-90.78 55.4,-91.38 57.01,-91.3 26.76,-85.05 25.69,-86.12 24.72,-87.25 23.71,-88.1 22.8,-88.81 22.04,-89.49 21.3,-90.13 20.48,-90.74 19.53,-91.35 18.48,-92.06 17.41,-92.96 16.37,-94.07 15.4,-95.26 14.56,-96.32 13.83,-97.14 13.03,-97.99 11.83,-99.62 24.45,-86.12 23.17,-86.95 22.14,-87.38 21.35,-87.64 20.58,-87.9 19.69,-88.26 18.68,-88.7 17.61,-89.18 16.52,-89.66 15.44,-90.11 14.4,-90.51 13.39,-90.88 12.38,-91.28 11.35,-91.74 10.3,-92.29 9.22,-92.88 8.13,-93.48 7.04,-94.01 5.95,-94.42 4.9,-94.7 3.85,-94.9 2.72,-95.11 1.47,-95.39 0.69,-95.65" fill="none" stroke="rgb(220, 208, 186)" stroke-width="2" stroke-linejoin="round" filter="url(#fuzzy)" /><polyline points="24.45,-86.12 23.93,-90.04 23.89,-94.57 23.59,-96.84 22.85,-97.2 21.72,-96.58 20.38,-95.78 19,-95.24 17.69,-95.19 16.52,-95.7 15.51,-96.8 14.65,-98.5 13.86,-100.74 13.04,-103.38 12.08,-106.05 11.01,-108.19 9.94,-109.54 8.68,-111.84 6.21,-111.22 5.64,-108.73 6.66,-106.63 7.97,-105.52 9.24,-104.79 10.43,-103.89 11.55,-102.62 12.56,-100.99 13.46,-99.1 14.3,-97.17 15.15,-95.4 16.07,-93.94 17.08,-92.79 18.16,-91.88 19.23,-91.11 20.21,-90.35 20.98,-89.52 21.46,-88.54 21.93,-87.56 23.07,-86.81 21.26,-87.6 20.74,-86.27 19.96,-84.77 18.91,-83.87 17.73,-83.44 16.55,-83.23 15.4,-83.07 14.3,-82.97 13.31,-83.07 12.43,-83.43 11.61,-83.91 10.7,-84.12 9.62,-83.77 8.47,-82.73 7.38,-80.98 6.07,-78.24 21.16,-87.26 21.39,-88.08 22.09,-88.17 23.21,-88.31 24.64,-88.91 26.26,-90.09 27.97,-91.66 29.69,-93.29 31.4,-94.71 33.13,-95.8 34.93,-96.7 36.9,-97.76 39.05,-99.31 41.35,-101.42 43.86,-103.72 47.69,-106.49 -3.09,-74.56 -2.54,-76.53 -1.41,-77.17 -0.21,-77.59 0.95,-78.19 2.05,-79.1 3.08,-80.24 4.09,-81.43 5.09,-82.48 6.12,-83.34 7.18,-84.09 8.3,-84.9 9.46,-85.82 10.61,-86.79 11.72,-87.61 12.75,-88.15 13.75,-88.38 14.81,-88.44 15.95,-88.53 16.89,-88.76 16.98,-89.06 45.48,-79.73 43.59,-81.16 42.15,-81.82 40.96,-82.42 39.96,-82.94 39.05,-83.33 38.1,-83.6 37.06,-83.83 35.93,-84.07 34.74,-84.35 33.51,-84.65 32.27,-84.97 31.03,-85.3 29.81,-85.62 28.63,-85.92 27.49,-86.19 26.36,-86.45 25.25,-86.74 24.16,-87.1 23.14,-87.52 22.23,-87.92 21.45,-88.16 20.67,-88.19 19.48,-88.27 16.98,-89.06" fill="none" stroke="rgb(220, 208, 186)" stroke-width="2" stroke-linejoin="round" filter="url(#fuzzy)" /><polyline points="17.64,-88.81 16.39,-89.87 15.19,-91.11 14.22,-92.21 13.36,-93.14 12.43,-93.77 11.39,-94.15 10.26,-94.44 9.11,-94.8 7.97,-95.3 6.86,-95.94 5.76,-96.68 4.65,-97.51 3.51,-98.39 2.3,-99.27 0.99,-100.03 -0.4,-100.58 -1.8,-100.89 -3.09,-101.03 -4.18,-101.15 -5.2,-101.45 -6.8,-102.52 -10.61,-97.63 -9.3,-97.82 -7.75,-97.38 -6.4,-96.88 -5.23,-96.48 -4.16,-96.2 -3.05,-96.01 -1.86,-95.82 -0.6,-95.53 0.69,-95.07 1.94,-94.44 3.12,-93.72 4.22,-93.03 5.29,-92.49 6.36,-92.17 7.44,-92.02 8.52,-91.91 9.6,-91.55 10.82,-90.82 12.31,-90.14" fill="none" stroke="rgb(220, 208, 186)" stroke-width="2" stroke-linejoin="round" filter="url(#fuzzy)" /><polyline points="-3.96,-91.23 -3.67,-91.36 -2.88,-91.4 -1.71,-91.42 -0.4,-91.42 0.9,-91.41 2.13,-91.37 3.25,-91.31 4.3,-91.24 5.32,-91.16 6.36,-91.06 7.42,-90.93 8.46,-90.75 9.53,-90.52 10.79,-90.29 12.31,-90.14" fill="none" stroke="rgb(220, 208, 186)" stroke-width="2" stroke-linejoin="round" filter="url(#fuzzy)" /><polyline points="8.88,-90.87 7.41,-91.08 6.13,-91.21 5.01,-91.41 3.97,-91.76 2.89,-92.23 1.71,-92.67 0.46,-92.98 -0.8,-93.09 -2.01,-93.05 -3.16,-92.93 -4.26,-92.84 -5.37,-92.83 -6.52,-92.94 -7.72,-93.14 -8.94,-93.38 -10.12,-93.57 -11.22,-93.64 -12.23,-93.58 -13.22,-93.46 -14.45,-93.44 -16.87,-93.43" fill="none" stroke="rgb(220, 208, 186)" stroke-width="2" stroke-linejoin="round" filter="url(#fuzzy)" /><polyline points="8.88,-90.87 9.82,-95.99 10.98,-95.5 12.09,-94.38 13.1,-93.62 14.14,-93.51 15.36,-94.17 16.78,-95.48 18.33,-97.07 19.9,-98.64 21.43,-100.04 22.9,-101.3 24.29,-102.45 25.63,-103.43 26.97,-104.16 28.4,-104.7 30.01,-105.35 31.84,-106.59 33.88,-108.74 35.84,-111.26 36.81,-111.3" fill="none" stroke="rgb(220, 208, 186)" stroke-width="2" stroke-linejoin="round" filter="url(#fuzzy)" /><polyline points="35.56,-86.78 34.35,-87.39 33.01,-88.13 31.72,-88.85 30.5,-89.38 29.32,-89.7 28.15,-89.91 26.99,-90.07 25.82,-90.19 24.67,-90.26 23.56,-90.29 22.51,-90.33 21.5,-90.43 20.49,-90.57 19.43,-90.71 18.3,-90.81 17.13,-90.86 15.95,-90.91 14.83,-90.98 13.78,-91.03 12.77,-90.98 11.7,-90.82 10.5,-90.65 9.32,-90.66 8.88,-90.87 8.88,-90.87 9.51,-92.7 10.64,-92.19 11.79,-91.72 12.87,-91.71 13.95,-92.05 15.1,-92.51 16.31,-92.93 17.55,-93.19 18.76,-93.26 19.9,-93.13 20.96,-92.89 21.97,-92.65 22.99,-92.49 24.06,-92.43 25.22,-92.45 26.47,-92.56 27.78,-92.78 29.14,-93.12 30.54,-93.58 32.05,-94.12 33.75,-94.72 35.65,-95.26 37.62,-95.11 7.08,-91.17 8.52,-93.6 9.75,-95.32 11.02,-96.1 12.23,-96.3 13.31,-96.19 14.33,-96.04 15.43,-96.1 16.7,-96.57 18.18,-97.61 19.86,-99.32 21.72,-101.73 23.64,-104.69 25.37,-107.66 26.75,-110.04 28.14,-112.11 30.95,-116.47" fill="none" stroke="rgb(220, 208, 186)" stroke-width="2" stroke-linejoin="round" filter="url(#fuzzy)" /><polyline points="-10.82,-74.55 -10.01,-76.19 -9.32,-78.03 -8.57,-79.87 -7.71,-81.66 -6.76,-83.23 -5.79,-84.34 -4.83,-84.91 -3.89,-85.09 -2.93,-85.09 -1.9,-85.12 -0.78,-85.21 0.41,-85.37 1.61,-85.7 2.76,-86.5 3.77,-88.09 4.68,-90.13 6.51,-91.11 3.11,-91.19 3.76,-92.68 2.95,-95.4 1.69,-98.3 0.31,-100.03 -1.06,-100.51 -2.36,-100.31 -3.59,-100.05 -4.8,-100.17 -6.07,-100.92 -7.44,-102.35 -8.91,-104.25 -10.43,-106.28 -11.9,-108.07 -13.28,-109.34 -14.59,-110.08 -15.9,-110.65 -17.31,-111.68 -18.77,-113.48 -19.81,-115.22 -20.12,-116.17 3.23,-91.25 1.46,-91.66 0.07,-92.65 -1.29,-94.15 -2.55,-95.44 -3.68,-96.12 -4.77,-96.3 -5.9,-96.34 -7.1,-96.46 -8.34,-96.68 -9.57,-96.87 -10.75,-96.9 -11.86,-96.8 -12.95,-96.69 -14.05,-96.76 -15.21,-97.2 -16.46,-98.11 -17.82,-99.46 -19.29,-101.15 -20.81,-102.94 -22.24,-104.51 -23.34,-105.44 -24.06,-105.88 0.68,-91.62 -0.01,-90.77 -1.26,-90.69 -2.47,-90.74 -3.52,-90.74 -4.52,-90.64 -5.56,-90.42 -6.64,-90.12 -7.75,-89.74 -8.84,-89.31 -9.88,-88.83 -10.86,-88.32 -11.79,-87.79 -12.68,-87.24 -13.55,-86.64 -14.39,-85.93 -15.2,-85.09 -15.99,-84.12 -16.75,-83.11 -17.5,-82.19 -18.25,-81.44 -19.13,-80.74 -20.37,-79.77 -22.46,-78.32" fill="none" stroke="rgb(220, 208, 186)" stroke-width="2" stroke-linejoin="round" filter="url(#fuzzy)" />
    </g>
    
        <g id="pointNose">
          <g id="rightNose"><circle r="2.128" cx="11.040000000000001" cy="25.738" stroke="black" fill="none" stroke-width="1.0" filter="url(#fuzzy)" /><circle r="1.822" cx="9.804" cy="25.378" stroke="black" fill="none" stroke-width="1.0" filter="url(#fuzzy)" /><circle r="2.218" cx="10.132000000000001" cy="25.262" stroke="black" fill="none" stroke-width="1.0" filter="url(#fuzzy)" /><circle r="1.67" cx="8.344000000000001" cy="24.05" stroke="black" fill="none" stroke-width="1.0" filter="url(#fuzzy)" /><circle r="1.1" cx="7.144" cy="24.202" stroke="black" fill="none" stroke-width="1.0" filter="url(#fuzzy)" /><circle r="2.468" cx="9.952" cy="23.858" stroke="black" fill="none" stroke-width="1.0" filter="url(#fuzzy)" /><circle r="1.908" cx="10.16" cy="24.59" stroke="black" fill="none" stroke-width="1.0" filter="url(#fuzzy)" /><circle r="2.85" cx="7.984" cy="27.666" stroke="black" fill="none" stroke-width="1.0" filter="url(#fuzzy)" /><circle r="2.284" cx="10.948" cy="26.158" stroke="black" fill="none" stroke-width="1.0" filter="url(#fuzzy)" /><circle r="1.266" cx="10.512" cy="27.198" stroke="black" fill="none" stroke-width="1.0" filter="url(#fuzzy)" /></g>
          <g id="leftNose"><circle r="2.976" cx="-11.202" cy="30.128" stroke="black" fill="none" stroke-width="1.0" filter="url(#fuzzy)" /><circle r="1.6019999999999999" cx="-9.962" cy="31.232" stroke="black" fill="none" stroke-width="1.0" filter="url(#fuzzy)" /><circle r="1.048" cx="-11.05" cy="30.704" stroke="black" fill="none" stroke-width="1.0" filter="url(#fuzzy)" /><circle r="2.374" cx="-10.326" cy="32.72" stroke="black" fill="none" stroke-width="1.0" filter="url(#fuzzy)" /><circle r="2.434" cx="-10.658" cy="33.224000000000004" stroke="black" fill="none" stroke-width="1.0" filter="url(#fuzzy)" /><circle r="2.746" cx="-10.225999999999999" cy="29.916" stroke="black" fill="none" stroke-width="1.0" filter="url(#fuzzy)" /><circle r="1.2" cx="-10.962" cy="31.864000000000004" stroke="black" fill="none" stroke-width="1.0" filter="url(#fuzzy)" /><circle r="2.08" cx="-11.338000000000001" cy="30.204" stroke="black" fill="none" stroke-width="1.0" filter="url(#fuzzy)" /><circle r="2.1719999999999997" cx="-12.406" cy="31.036" stroke="black" fill="none" stroke-width="1.0" filter="url(#fuzzy)" /><circle r="1.06" cx="-13.022" cy="30.060000000000002" stroke="black" fill="none" stroke-width="1.0" filter="url(#fuzzy)" /></g>
        </g>
      
    <g id="mouth">
      <polyline points="33.38,53.61 33.3,52.82 33.35,54.06 33.13,54.33 33.28,54.23 32.87,55.3 32.89,55.58 32.78,55.6 32.44,56.52 32.16,57.17 32.46,56.56 32.26,57.08 31.59,58.21 31.09,58.69 30.89,58.94 31.14,58.6 31.13,58.74 30.15,59.89 29.15,60.75 29.88,60.14 28.6,61.29 29.25,60.81 28.72,61.12 27.67,61.99 28.18,61.53 27.28,62.19 25.94,62.96 25.52,63.12 24.95,63.43 25.01,63.44 23.93,63.85 23.81,63.93 24.4,63.68 23.15,64.12 23.06,64.2 21.16,64.71 21.93,64.53 21.01,64.77 20.9,64.82 20.24,64.94 19.04,65.14 17.89,65.33 18.75,65.21 17.88,65.31 16.49,65.44 16.59,65.43 15.29,65.48 15.5,65.46 13.39,65.43 13.67,65.44 12.64,65.37 12.49,65.35 12.67,65.38 11.35,65.23 11.48,65.25 11.17,65.2 10.8,65.14 8.7,64.72 8.75,64.72 8.04,64.57 8.34,64.62 6.27,64 5.91,63.87 5.81,63.86 5.71,63.79 5.74,63.78 3.81,62.97 4.49,63.27 3.01,62.54 2.24,62.1 1.53,61.71 2.02,61.98 0.64,61.01 1.04,61.39 0.62,60.98 0.63,61.06 -0.65,60.01 -0.17,60.42 -1.33,59.31 -0.94,59.74 -1.83,58.81 -1.62,59.14 -2.42,58.07 -3.12,57.19 -2.62,57.79 -3.42,56.53 -3.14,57.26 -3.53,56.61 -3.51,56.47 -4.24,54.89 -4.32,55 -4.71,53.91 -4.63,53.9 -4.6,53.88 -4.56,53.86 -4.94,52.35 -4.97,51.93 -5.06,51.36 -5.02,51.08 -5.01,51.6 -5.07,51.17 -4.82,49.68 -4.84,49.38 -4.93,49.9 -4.77,49.49 -4.51,48.27 -4.3,47.87 -4.55,48.1 -3.99,46.93 -3.94,47.05 -4.09,47.02 -3.89,46.88 -3.27,45.63 -3.13,45.62 -3.3,45.72 -2.1,44.19 -1.78,43.84 -1.78,43.83 -1.85,44.04 -1.68,43.69 -0.28,42.55 -0.91,43.14 0.21,42.13 1.02,41.67 1.05,41.56 0.48,42 2.24,40.96 2.76,40.63 2.59,40.78 3.67,40.25 3.93,40.1 4.12,40.1 3.81,40.23 4.46,39.95 6.35,39.32 5.74,39.46 6.45,39.25 7.77,38.94 7.55,39.02 9.34,38.66 8.04,38.88 10.51,38.51 9.86,38.6 9.87,38.6 11.24,38.45 11.21,38.45 11.79,38.41 12.38,38.38 13.18,38.36 13.49,38.37 15.63,38.46 16.17,38.51 15.79,38.47 15.69,38.46 17.95,38.76 18.03,38.76 19.08,38.95 18.62,38.87 18.89,38.92 19.68,39.09 21.57,39.6 21.45,39.6 22.83,40.05 22.93,40.12 23.34,40.26 23.93,40.49 23.84,40.49 24.27,40.66 24.35,40.74 25.05,41.07 25.9,41.5 27.13,42.24 26.84,42.07 27.08,42.18 27.2,42.37 28.88,43.61 28.78,43.52 29.27,43.86 29.14,43.87 30.22,44.9 30.11,44.69 30.29,45.05 30.94,45.66 30.99,45.91 31.53,46.55 32.15,47.46 32.24,47.85 32.3,47.75 32.27,47.77 32.55,48.3 32.67,48.71 32.61,48.73 33.19,50.22 33.03,49.96 33.33,51.06 33.27,51.48 33.2,50.83 33.37,52.07 33.36,51.54 33.31,52.91" fill="rgb(215,127,140)" stroke="black" stroke-width="3" stroke-linejoin="round" filter="url(#fuzzy)" />
    </g>
  </svg>
  