
  <svg viewBox="-100 -100 200 200" xmlns="http://www.w3.org/2000/svg" width="500" height="500" id="face-svg">
    <defs>
      <clipPath id="leftEyeClipPath">
        <polyline points="39.33,-15.42 38.85,-15.71 38.33,-15.98 37.77,-16.23 37.16,-16.47 36.52,-16.7 35.84,-16.91 35.13,-17.1 34.38,-17.29 33.61,-17.46 32.8,-17.62 31.97,-17.76 31.11,-17.9 30.22,-18.03 29.32,-18.15 28.39,-18.25 27.35,-18.35 26.28,-18.45 25.18,-18.53 24.05,-18.61 22.9,-18.68 21.73,-18.75 20.53,-18.81 19.32,-18.86 18.1,-18.91 16.86,-18.95 15.62,-18.99 14.37,-19.02 13.12,-19.05 11.86,-19.07 10.61,-19.09 9.36,-19.1 8.12,-19.1 6.88,-19.11 5.66,-19.1 4.45,-19.09 3.26,-19.07 2.08,-19.05 0.92,-19.02 -0.21,-18.99 -1.33,-18.94 -2.42,-18.89 -3.48,-18.83 -4.52,-18.77 -5.53,-18.69 -6.51,-18.61 -7.46,-18.51 -8.37,-18.41 -9.26,-18.3 -10.11,-18.18 -10.93,-18.04 -11.72,-17.9 -12.47,-17.74 -13.19,-17.57 -13.87,-17.39 -14.52,-17.2 -15.14,-17 -15.73,-16.78 -16.28,-16.55 -16.8,-16.3 -17.29,-16.05 -17.76,-15.78 -18.19,-15.49 -18.59,-15.19 -18.97,-14.88 -19.32,-14.55 -19.65,-14.21 -19.95,-13.86 -20.22,-13.49 -20.47,-13.1 -20.7,-12.7 -20.91,-12.28 -21.09,-11.84 -21.24,-11.39 -21.38,-10.93 -21.49,-10.44 -21.59,-9.94 -21.66,-9.42 -21.71,-8.89 -21.74,-8.34 -23.32,-6.15 -22.96,-5.51 -22.58,-4.86 -22.2,-4.19 -21.8,-3.51 -21.4,-2.83 -20.97,-2.13 -20.54,-1.43 -20.1,-0.72 -19.64,0 -19.17,0.72 -18.69,1.45 -18.19,2.18 -17.68,2.92 -17.16,3.65 -16.63,4.39 -16.08,5.14 -15.51,5.89 -14.93,6.65 -14.33,7.4 -13.71,8.16 -13.08,8.91 -12.43,9.65 -11.76,10.39 -11.08,11.11 -10.38,11.82 -9.65,12.52 -8.92,13.19 -8.16,13.85 -7.39,14.48 -6.59,15.08 -5.78,15.66 -4.95,16.2 -4.11,16.72 -3.24,17.19 -2.36,17.63 -1.46,18.02 -0.55,18.38 0.38,18.68 1.33,18.94 2.29,19.15 3.27,19.31 4.26,19.42 5.27,19.47 6.29,19.46 7.32,19.4 8.36,19.28 9.41,19.1 10.48,18.85 11.55,18.55 12.63,18.19 13.72,17.77 14.81,17.28 15.91,16.74 17.01,16.14 18.12,15.47 19.22,14.75 20.32,13.98 21.43,13.15 22.52,12.27 23.61,11.34 24.7,10.36 25.77,9.35 26.83,8.29 27.88,7.19 28.75,6.43 29.62,5.64 30.46,4.84 31.29,4.02 32.11,3.19 32.9,2.35 33.67,1.5 34.42,0.65 35.15,-0.21 35.85,-1.06 36.52,-1.91 37.16,-2.76 37.77,-3.59 38.34,-4.41 38.87,-5.22" />
      </clipPath>
      <clipPath id="rightEyeClipPath">
        <polyline points="-37.92,-11.57 -37.53,-11.73 -37.1,-11.89 -36.62,-12.03 -36.12,-12.17 -35.57,-12.3 -34.99,-12.42 -34.38,-12.53 -33.73,-12.64 -33.05,-12.74 -32.34,-12.83 -31.59,-12.91 -30.82,-12.99 -30.02,-13.07 -29.2,-13.13 -28.35,-13.2 -27.46,-13.25 -26.53,-13.31 -25.56,-13.36 -24.55,-13.4 -23.51,-13.44 -22.43,-13.48 -21.32,-13.51 -20.18,-13.54 -19.02,-13.57 -17.83,-13.59 -16.62,-13.61 -15.4,-13.63 -14.16,-13.64 -12.9,-13.65 -11.64,-13.65 -10.37,-13.65 -9.1,-13.64 -7.83,-13.63 -6.56,-13.61 -5.29,-13.59 -4.04,-13.56 -2.79,-13.52 -1.56,-13.48 -0.34,-13.43 0.86,-13.37 2.04,-13.3 3.2,-13.23 4.34,-13.14 5.45,-13.04 6.53,-12.94 7.58,-12.82 8.61,-12.69 9.6,-12.54 10.56,-12.39 11.48,-12.22 12.37,-12.04 13.23,-11.84 14.05,-11.63 14.83,-11.4 15.58,-11.16 16.3,-10.9 16.97,-10.63 17.62,-10.34 18.22,-10.03 18.8,-9.71 19.34,-9.37 19.84,-9.01 20.32,-8.63 20.76,-8.24 21.18,-7.83 21.57,-7.4 21.93,-6.96 22.26,-6.49 22.56,-6 22.83,-5.5 23.08,-4.97 23.3,-4.42 23.49,-3.86 23.66,-3.27 23.8,-2.66 23.92,-2.03 24.01,-1.38 24.08,-0.71 24.13,-0.02 27.42,-2.29 27.03,-1.77 26.63,-1.24 26.21,-0.71 25.78,-0.17 25.34,0.37 24.88,0.91 24.4,1.45 23.91,2 23.4,2.54 22.88,3.08 22.34,3.62 21.78,4.16 21.2,4.69 20.61,5.21 20,5.74 19.38,6.26 18.73,6.78 18.06,7.29 17.37,7.8 16.66,8.29 15.93,8.78 15.18,9.25 14.4,9.7 13.6,10.14 12.78,10.55 11.94,10.95 11.08,11.32 10.19,11.66 9.28,11.98 8.35,12.27 7.4,12.53 6.43,12.76 5.44,12.95 4.43,13.11 3.4,13.24 2.36,13.32 1.3,13.38 0.23,13.39 -0.86,13.37 -1.96,13.31 -3.08,13.21 -4.2,13.07 -5.33,12.9 -6.46,12.68 -7.61,12.43 -8.75,12.14 -9.9,11.82 -11.05,11.46 -12.19,11.07 -13.33,10.64 -14.47,10.18 -15.6,9.69 -16.72,9.17 -17.83,8.63 -18.93,8.06 -20.01,7.46 -21.07,6.85 -22.12,6.22 -23.15,5.57 -24.15,4.91 -25.13,4.24 -26.09,3.56 -27.01,2.87 -27.91,2.18 -28.73,1.62 -29.52,1.06 -30.3,0.5 -31.06,-0.06 -31.79,-0.63 -32.5,-1.19 -33.18,-1.75 -33.84,-2.3 -34.47,-2.85 -35.07,-3.39 -35.64,-3.92 -36.18,-4.45 -36.69,-4.96 -37.16,-5.45 -37.6,-5.93" />
      </clipPath>
      <filter id="fuzzy">
        <feTurbulence id="turbulence" baseFrequency="0.05" numOctaves="3" type="noise" result="noise" />
        <feDisplacementMap in="SourceGraphic" in2="noise" scale="2" />
      </filter>
      <linearGradient id="rainbowGradient" x1="0%" y1="0%" x2="100%" y2="0%">
        <stop offset="0%" style="stop-color: rgb(185, 55, 55); stop-opacity: 1" />
        <stop offset="50%" style="stop-color: rgb(167, 133, 106); stop-opacity: 1" />
        <stop offset="100%" style="stop-color: rgb(144, 238, 144); stop-opacity: 1" />
      </linearGradient>
    </defs>
    <rect x="-100" y="-100" width="100%" height="100%" fill="rgb(105, 105, 105)" />
    <polyline id="faceContour" points="81.63,0.86 81.92,1.45 81.48,4.76 81.3,6.71 81.35,5.71 81.49,6.62 81.31,8.06 81.21,8.63 81.15,11.64 80.9,12.55 80.74,15.41 80.56,15.75 80.07,18.34 80.26,17.38 79.59,21.32 79.82,20.51 79.02,22.84 78.86,23.43 78.81,24.82 77.63,28.64 77.25,29.97 77.55,29.96 76.45,33.53 76.84,32.03 76.28,33.68 75.88,35.22 75.12,36.21 74.93,36.71 74.4,39.25 73.82,40.57 71.98,44.16 72.44,42.95 71.09,46.24 71.48,46.04 70.75,46.74 70.22,47.12 68.94,50.08 68.35,51.5 67.2,52.89 66.77,53.93 65.1,56.62 64.76,56.82 63.99,58.1 63.84,58.66 63.88,58.59 61.66,61.54 60.13,63.52 60.45,63.05 60.46,63.04 59.86,63.94 57.84,66.27 56.52,67.24 56.99,67.03 53.72,70.85 55.47,69 51.75,72.1 52.72,71.24 51.14,73.28 49.74,74.34 49.59,74.31 49.48,74.29 46.7,76.9 46.71,76.51 46.06,77.18 43.35,79.15 41.69,80.32 41.28,80.86 41.28,80.62 41,80.93 38.31,82.64 35.19,84.43 35.22,84.21 34.74,84.58 32.68,85.46 32.48,85.56 32.9,85.86 29.42,87.44 29.28,87.34 28.11,87.82 27.49,87.94 25.28,89.08 24.64,89.06 23.16,89.82 23.23,89.61 21.5,90.19 18.59,90.95 18.64,90.88 15.81,91.84 13.41,92.04 13.53,92.08 14.18,92.05 11.02,92.65 10.99,92.51 10.82,92.59 6.68,93.28 5.82,93.35 4.98,93.11 5.2,93.45 2.03,93.43 -0.51,93.57 -1.84,93.38 -0.84,93.29 -2.76,93.21 -4.27,93.4 -4.49,93.22 -6.25,93.13 -8.54,92.96 -10.44,92.56 -10.27,92.55 -10.53,92.78 -12.48,92.52 -13.98,92 -14.13,91.93 -15.89,91.87 -16.2,91.78 -17.39,91.38 -21.41,90.01 -20.76,90.28 -23.58,89.31 -22.49,89.77 -24.29,89.25 -24.87,89.26 -27.29,88.34 -30.36,86.99 -31.81,86.18 -33.25,85.44 -31.99,86.06 -32.42,85.63 -33.97,85.16 -34.51,84.87 -38.28,82.98 -38.9,82.22 -38.44,82.76 -39.5,82.01 -40.2,81.25 -41.36,80.64 -42.35,80.05 -46.39,76.85 -46.16,77.2 -48.3,75.55 -49.71,74.3 -48.64,75.24 -49.1,74.58 -50.76,73.07 -53.12,71.2 -51.97,72 -54.49,69.93 -54.35,69.47 -55.01,69.13 -57.05,66.64 -56.53,67.44 -59.21,64.58 -60.01,63.36 -60.86,62.68 -61.71,61.2 -62.15,60.97 -63.13,59.47 -63.39,58.9 -64.82,57.43 -66.2,55.21 -65.77,55.2 -68.14,52.37 -67.38,53.42 -68.83,50.63 -69.27,50.24 -69.05,50.25 -70.92,46.8 -71.45,45.51 -71.26,46.49 -72.45,43.75 -72.72,43.11 -74,40.16 -74.18,39.61 -74.1,39.76 -75.43,36.44 -75.9,34.72 -76.43,34.07 -76.58,33.39 -76.86,31.51 -76.97,30.7 -77.61,30.28 -78.18,26.67 -78.05,27.18 -78.83,24.77 -78.98,24.12 -79.83,21.51 -79.95,19.6 -80.09,18.34 -80.43,16.58 -80.74,15.37 -80.5,16.58 -81.22,12.77 -81.09,11.32 -81.01,10.97 -81.18,9.88 -81.55,9.24 -81.78,5.9 -81.91,3.18 -81.57,3 -81.93,3.23 -81.72,-0.74 -81.98,-2.31 -81.6,-2.08 -81.83,-4.84 -81.49,-3.84 -81.51,-6.59 -81.2,-9.49 -81.49,-10.29 -81.31,-11.49 -80.93,-13.66 -80.68,-14.94 -80.63,-16.08 -80.45,-15.68 -79.58,-20.61 -79.79,-21.46 -79.52,-21.28 -79.01,-25.07 -79.09,-24.58 -78.82,-26.1 -78.46,-27.48 -77.67,-29.1 -77.74,-29.74 -76.92,-32.34 -76.62,-33.43 -76.17,-34.63 -75.6,-35.01 -75.04,-37.46 -75.3,-36.86 -74.12,-39.65 -73.1,-42.4 -73.18,-41.65 -72.9,-42.93 -71.79,-44.41 -71.47,-45.33 -69.77,-48.54 -70.34,-47.45 -69.41,-49.83 -68.01,-52.2 -67.75,-52.39 -68.07,-51.86 -65.26,-56.34 -65.58,-55.72 -64.96,-57.06 -63.17,-59.23 -61.94,-61.41 -62.74,-60.28 -61.81,-61.62 -59.63,-63.93 -60.16,-63.49 -58.38,-65.58 -56.94,-67.14 -57.75,-65.94 -56.09,-68.41 -55.38,-68.64 -53.7,-70.26 -53.01,-71 -52.22,-71.88 -51.4,-72.62 -50.21,-73.79 -50.27,-73.66 -47.97,-75.54 -47.13,-76.45 -45.39,-77.9 -44.97,-78.2 -45.21,-77.64 -42.16,-79.95 -43.22,-79.57 -39.6,-81.79 -38.67,-82.13 -37.66,-82.6 -38.29,-82.55 -35.93,-83.96 -33.61,-84.9 -33.55,-85.42 -32.84,-85.33 -32.56,-85.59 -29.42,-87.15 -29.32,-87.53 -28.59,-87.44 -26.84,-88.2 -25.39,-88.64 -22.52,-89.8 -23.07,-89.5 -22.05,-90.1 -20.29,-90.28 -17.79,-91.45 -18.04,-91.26 -16.33,-91.44 -14.62,-91.79 -13.91,-92.02 -12.54,-92.44 -10.34,-92.61 -10.61,-92.69 -10.27,-92.89 -5.61,-93.1 -5.38,-93.36 -7.18,-92.96 -2.65,-93.31 -2.39,-93.49 -2.05,-93.23 -0.19,-93.47 1.36,-93.39 2.6,-93.26 4.77,-93.27 5.59,-93.36 7.26,-92.93 7.89,-92.81 9.94,-92.79 10.89,-92.79 10.68,-92.69 12.93,-92.31 14.15,-91.74 15.68,-91.47 16.54,-91.61 18.43,-91.13 17.94,-91.26 20.95,-90.42 20.57,-90.27 21.61,-90.22 24.45,-89.13 27.27,-88.08 24.94,-88.75 28.19,-87.77 28.23,-87.72 30.58,-86.62 30.32,-86.67 32.03,-85.65 34.38,-84.99 34.66,-84.75 37.04,-83.17 37.57,-82.79 39.66,-81.49 38.47,-82.34 39.63,-81.65 41.18,-81.02 43.09,-79.21 43.62,-78.98 45.46,-77.68 46.45,-76.59 46.75,-76.69 48.45,-75.21 49.98,-73.94 50.27,-73.63 50.66,-73.04 50.64,-73.45 52.7,-71.44 53.79,-70.36 53.92,-70.21 56.15,-67.79 57.01,-66.86 57.61,-66.61 58.48,-65.24 59.33,-64.12 58.96,-64.55 60.75,-62.29 62.54,-59.9 63.31,-58.99 62.73,-59.94 65.25,-56.23 64.77,-57.38 66.84,-53.65 66.92,-53.2 68.24,-51.38 68.35,-51.32 68.09,-51.46 68.98,-50.2 70.32,-47.65 71.27,-45.3 70.91,-46.31 72.55,-43.25 72.74,-42.65 74.22,-38.95 73.66,-40.16 74.46,-38.78 75.5,-36.24 75.6,-34.95 75.36,-35.71 76.32,-33.33 76.45,-32.71 77.15,-30.03 77.77,-28 78.67,-26.14 78.23,-27.14 78.59,-26.15 79.39,-21.75 78.99,-23.64 79.79,-20.09 80.1,-19.28 80.01,-17.62 80.31,-17.16 80.78,-14.38 80.65,-14.19 81.36,-10.73 81.37,-10.81 81.02,-9.99 81.52,-9.65 81.38,-6.65 81.39,-4.74 81.51,-2.95 81.7,-2.47 81.63,0.86 81.92,1.45" fill="rgb(255, 203, 164)" stroke="black" stroke-width="1.6666666666666665" stroke-linejoin="round" filter="url(#fuzzy)" />
    <g transform="translate(32.43 -32.36)">
      <polyline id="rightCountour" points="-37.92,-11.57 -37.53,-11.73 -37.1,-11.89 -36.62,-12.03 -36.12,-12.17 -35.57,-12.3 -34.99,-12.42 -34.38,-12.53 -33.73,-12.64 -33.05,-12.74 -32.34,-12.83 -31.59,-12.91 -30.82,-12.99 -30.02,-13.07 -29.2,-13.13 -28.35,-13.2 -27.46,-13.25 -26.53,-13.31 -25.56,-13.36 -24.55,-13.4 -23.51,-13.44 -22.43,-13.48 -21.32,-13.51 -20.18,-13.54 -19.02,-13.57 -17.83,-13.59 -16.62,-13.61 -15.4,-13.63 -14.16,-13.64 -12.9,-13.65 -11.64,-13.65 -10.37,-13.65 -9.1,-13.64 -7.83,-13.63 -6.56,-13.61 -5.29,-13.59 -4.04,-13.56 -2.79,-13.52 -1.56,-13.48 -0.34,-13.43 0.86,-13.37 2.04,-13.3 3.2,-13.23 4.34,-13.14 5.45,-13.04 6.53,-12.94 7.58,-12.82 8.61,-12.69 9.6,-12.54 10.56,-12.39 11.48,-12.22 12.37,-12.04 13.23,-11.84 14.05,-11.63 14.83,-11.4 15.58,-11.16 16.3,-10.9 16.97,-10.63 17.62,-10.34 18.22,-10.03 18.8,-9.71 19.34,-9.37 19.84,-9.01 20.32,-8.63 20.76,-8.24 21.18,-7.83 21.57,-7.4 21.93,-6.96 22.26,-6.49 22.56,-6 22.83,-5.5 23.08,-4.97 23.3,-4.42 23.49,-3.86 23.66,-3.27 23.8,-2.66 23.92,-2.03 24.01,-1.38 24.08,-0.71 24.13,-0.02 27.42,-2.29 27.03,-1.77 26.63,-1.24 26.21,-0.71 25.78,-0.17 25.34,0.37 24.88,0.91 24.4,1.45 23.91,2 23.4,2.54 22.88,3.08 22.34,3.62 21.78,4.16 21.2,4.69 20.61,5.21 20,5.74 19.38,6.26 18.73,6.78 18.06,7.29 17.37,7.8 16.66,8.29 15.93,8.78 15.18,9.25 14.4,9.7 13.6,10.14 12.78,10.55 11.94,10.95 11.08,11.32 10.19,11.66 9.28,11.98 8.35,12.27 7.4,12.53 6.43,12.76 5.44,12.95 4.43,13.11 3.4,13.24 2.36,13.32 1.3,13.38 0.23,13.39 -0.86,13.37 -1.96,13.31 -3.08,13.21 -4.2,13.07 -5.33,12.9 -6.46,12.68 -7.61,12.43 -8.75,12.14 -9.9,11.82 -11.05,11.46 -12.19,11.07 -13.33,10.64 -14.47,10.18 -15.6,9.69 -16.72,9.17 -17.83,8.63 -18.93,8.06 -20.01,7.46 -21.07,6.85 -22.12,6.22 -23.15,5.57 -24.15,4.91 -25.13,4.24 -26.09,3.56 -27.01,2.87 -27.91,2.18 -28.73,1.62 -29.52,1.06 -30.3,0.5 -31.06,-0.06 -31.79,-0.63 -32.5,-1.19 -33.18,-1.75 -33.84,-2.3 -34.47,-2.85 -35.07,-3.39 -35.64,-3.92 -36.18,-4.45 -36.69,-4.96 -37.16,-5.45 -37.6,-5.93" fill="white" stroke="white" stroke-width="0" stroke-linejoin="round" filter="url(#fuzzy)" />
    </g>
    <g transform="translate(-39.61 -30.86)">
      <polyline id="leftCountour" points="39.33,-15.42 38.85,-15.71 38.33,-15.98 37.77,-16.23 37.16,-16.47 36.52,-16.7 35.84,-16.91 35.13,-17.1 34.38,-17.29 33.61,-17.46 32.8,-17.62 31.97,-17.76 31.11,-17.9 30.22,-18.03 29.32,-18.15 28.39,-18.25 27.35,-18.35 26.28,-18.45 25.18,-18.53 24.05,-18.61 22.9,-18.68 21.73,-18.75 20.53,-18.81 19.32,-18.86 18.1,-18.91 16.86,-18.95 15.62,-18.99 14.37,-19.02 13.12,-19.05 11.86,-19.07 10.61,-19.09 9.36,-19.1 8.12,-19.1 6.88,-19.11 5.66,-19.1 4.45,-19.09 3.26,-19.07 2.08,-19.05 0.92,-19.02 -0.21,-18.99 -1.33,-18.94 -2.42,-18.89 -3.48,-18.83 -4.52,-18.77 -5.53,-18.69 -6.51,-18.61 -7.46,-18.51 -8.37,-18.41 -9.26,-18.3 -10.11,-18.18 -10.93,-18.04 -11.72,-17.9 -12.47,-17.74 -13.19,-17.57 -13.87,-17.39 -14.52,-17.2 -15.14,-17 -15.73,-16.78 -16.28,-16.55 -16.8,-16.3 -17.29,-16.05 -17.76,-15.78 -18.19,-15.49 -18.59,-15.19 -18.97,-14.88 -19.32,-14.55 -19.65,-14.21 -19.95,-13.86 -20.22,-13.49 -20.47,-13.1 -20.7,-12.7 -20.91,-12.28 -21.09,-11.84 -21.24,-11.39 -21.38,-10.93 -21.49,-10.44 -21.59,-9.94 -21.66,-9.42 -21.71,-8.89 -21.74,-8.34 -23.32,-6.15 -22.96,-5.51 -22.58,-4.86 -22.2,-4.19 -21.8,-3.51 -21.4,-2.83 -20.97,-2.13 -20.54,-1.43 -20.1,-0.72 -19.64,0 -19.17,0.72 -18.69,1.45 -18.19,2.18 -17.68,2.92 -17.16,3.65 -16.63,4.39 -16.08,5.14 -15.51,5.89 -14.93,6.65 -14.33,7.4 -13.71,8.16 -13.08,8.91 -12.43,9.65 -11.76,10.39 -11.08,11.11 -10.38,11.82 -9.65,12.52 -8.92,13.19 -8.16,13.85 -7.39,14.48 -6.59,15.08 -5.78,15.66 -4.95,16.2 -4.11,16.72 -3.24,17.19 -2.36,17.63 -1.46,18.02 -0.55,18.38 0.38,18.68 1.33,18.94 2.29,19.15 3.27,19.31 4.26,19.42 5.27,19.47 6.29,19.46 7.32,19.4 8.36,19.28 9.41,19.1 10.48,18.85 11.55,18.55 12.63,18.19 13.72,17.77 14.81,17.28 15.91,16.74 17.01,16.14 18.12,15.47 19.22,14.75 20.32,13.98 21.43,13.15 22.52,12.27 23.61,11.34 24.7,10.36 25.77,9.35 26.83,8.29 27.88,7.19 28.75,6.43 29.62,5.64 30.46,4.84 31.29,4.02 32.11,3.19 32.9,2.35 33.67,1.5 34.42,0.65 35.15,-0.21 35.85,-1.06 36.52,-1.91 37.16,-2.76 37.77,-3.59 38.34,-4.41 38.87,-5.22" fill="white" stroke="white" stroke-width="0" stroke-linejoin="round" filter="url(#fuzzy)" />
    </g>
    <g transform="translate(32.43 -32.36)">
      <polyline id="rightUpper" points="-39.51,-9.24 -39.55,-9.54 -39.55,-9.82 -39.5,-10.08 -39.4,-10.33 -39.26,-10.57 -39.08,-10.79 -38.85,-11 -38.58,-11.2 -38.27,-11.39 -37.92,-11.57 -37.53,-11.73 -37.1,-11.89 -36.62,-12.03 -36.12,-12.17 -35.57,-12.3 -34.99,-12.42 -34.38,-12.53 -33.73,-12.64 -33.05,-12.74 -32.34,-12.83 -31.59,-12.91 -30.82,-12.99 -30.02,-13.07 -29.2,-13.13 -28.35,-13.2 -27.46,-13.25 -26.53,-13.31 -25.56,-13.36 -24.55,-13.4 -23.51,-13.44 -22.43,-13.48 -21.32,-13.51 -20.18,-13.54 -19.02,-13.57 -17.83,-13.59 -16.62,-13.61 -15.4,-13.63 -14.16,-13.64 -12.9,-13.65 -11.64,-13.65 -10.37,-13.65 -9.1,-13.64 -7.83,-13.63 -6.56,-13.61 -5.29,-13.59 -4.04,-13.56 -2.79,-13.52 -1.56,-13.48 -0.34,-13.43 0.86,-13.37 2.04,-13.3 3.2,-13.23 4.34,-13.14 5.45,-13.04 6.53,-12.94 7.58,-12.82 8.61,-12.69 9.6,-12.54 10.56,-12.39 11.48,-12.22 12.37,-12.04 13.23,-11.84 14.05,-11.63 14.83,-11.4 15.58,-11.16 16.3,-10.9 16.97,-10.63 17.62,-10.34 18.22,-10.03 18.8,-9.71 19.34,-9.37 19.84,-9.01 20.32,-8.63 20.76,-8.24 21.18,-7.83 21.57,-7.4 21.93,-6.96 22.26,-6.49 22.56,-6 22.83,-5.5 23.08,-4.97 23.3,-4.42 23.49,-3.86 23.66,-3.27 23.8,-2.66 23.92,-2.03 24.01,-1.38 24.08,-0.71 24.13,-0.02 24.15,0.69 24.15,1.42 24.13,2.17 24.09,2.94 24.03,3.73 23.95,4.54 23.86,5.37 23.74,6.22 23.6,7.08 23.45,7.96" fill="none" stroke="black" stroke-width="1.6666666666666665" stroke-linejoin="round" filter="url(#fuzzy)" />
      <polyline id="rightLower" points="-39.8,-9.48 -39.78,-9.25 -39.71,-8.99 -39.59,-8.7 -39.43,-8.38 -39.23,-8.03 -38.98,-7.66 -38.7,-7.26 -38.37,-6.84 -38,-6.39 -37.6,-5.93 -37.16,-5.45 -36.69,-4.96 -36.18,-4.45 -35.64,-3.92 -35.07,-3.39 -34.47,-2.85 -33.84,-2.3 -33.18,-1.75 -32.5,-1.19 -31.79,-0.63 -31.06,-0.06 -30.3,0.5 -29.52,1.06 -28.73,1.62 -27.91,2.18 -27.01,2.87 -26.09,3.56 -25.13,4.24 -24.15,4.91 -23.15,5.57 -22.12,6.22 -21.07,6.85 -20.01,7.46 -18.93,8.06 -17.83,8.63 -16.72,9.17 -15.6,9.69 -14.47,10.18 -13.33,10.64 -12.19,11.07 -11.05,11.46 -9.9,11.82 -8.75,12.14 -7.61,12.43 -6.46,12.68 -5.33,12.9 -4.2,13.07 -3.08,13.21 -1.96,13.31 -0.86,13.37 0.23,13.39 1.3,13.38 2.36,13.32 3.4,13.24 4.43,13.11 5.44,12.95 6.43,12.76 7.4,12.53 8.35,12.27 9.28,11.98 10.19,11.66 11.08,11.32 11.94,10.95 12.78,10.55 13.6,10.14 14.4,9.7 15.18,9.25 15.93,8.78 16.66,8.29 17.37,7.8 18.06,7.29 18.73,6.78 19.38,6.26 20,5.74 20.61,5.21 21.2,4.69 21.78,4.16 22.34,3.62 22.88,3.08 23.4,2.54 23.91,2 24.4,1.45 24.88,0.91 25.34,0.37 25.78,-0.17 26.21,-0.71 26.63,-1.24 27.03,-1.77 27.42,-2.29 27.79,-2.81 28.15,-3.32 28.5,-3.82 28.84,-4.32 29.16,-4.81 29.47,-5.29 29.77,-5.76 30.06,-6.23 30.33,-6.68 30.6,-7.13" fill="none" stroke="black" stroke-width="2.2222222222222223" stroke-linejoin="round" filter="url(#fuzzy)" />
      <circle r="3.298" cx="-35.84610928752321" cy="-6.241582703205857" stroke="black" fill="none" stroke-width="1.0" filter="url(#fuzzy)" clip-path="url(#rightEyeClipPath)" /><circle r="3.086" cx="-37.83610928752321" cy="-7.436582703205857" stroke="black" fill="none" stroke-width="1.0" filter="url(#fuzzy)" clip-path="url(#rightEyeClipPath)" /><circle r="3.292" cx="-37.58110928752321" cy="-7.306582703205857" stroke="black" fill="none" stroke-width="1.0" filter="url(#fuzzy)" clip-path="url(#rightEyeClipPath)" /><circle r="3.262" cx="-36.03110928752321" cy="-6.166582703205857" stroke="black" fill="none" stroke-width="1.0" filter="url(#fuzzy)" clip-path="url(#rightEyeClipPath)" /><circle r="3.182" cx="-36.17610928752321" cy="-8.381582703205858" stroke="black" fill="none" stroke-width="1.0" filter="url(#fuzzy)" clip-path="url(#rightEyeClipPath)" /><circle r="3.676" cx="-36.96110928752321" cy="-8.256582703205858" stroke="black" fill="none" stroke-width="1.0" filter="url(#fuzzy)" clip-path="url(#rightEyeClipPath)" /><circle r="3.216" cx="-37.36110928752321" cy="-7.881582703205856" stroke="black" fill="none" stroke-width="1.0" filter="url(#fuzzy)" clip-path="url(#rightEyeClipPath)" /><circle r="4.382" cx="-35.71110928752321" cy="-6.066582703205857" stroke="black" fill="none" stroke-width="1.0" filter="url(#fuzzy)" clip-path="url(#rightEyeClipPath)" /><circle r="3.8" cx="-37.82110928752321" cy="-9.896582703205857" stroke="black" fill="none" stroke-width="1.0" filter="url(#fuzzy)" clip-path="url(#rightEyeClipPath)" /><circle r="3.194" cx="-36.90610928752321" cy="-6.646582703205857" stroke="black" fill="none" stroke-width="1.0" filter="url(#fuzzy)" clip-path="url(#rightEyeClipPath)" />
      </g>
    <g transform="translate(-39.61 -30.86)">
      <polyline id="leftUpper" points="41.34,-11.37 41.39,-11.88 41.39,-12.37 41.32,-12.83 41.2,-13.27 41.02,-13.68 40.78,-14.07 40.49,-14.44 40.16,-14.78 39.77,-15.11 39.33,-15.42 38.85,-15.71 38.33,-15.98 37.77,-16.23 37.16,-16.47 36.52,-16.7 35.84,-16.91 35.13,-17.1 34.38,-17.29 33.61,-17.46 32.8,-17.62 31.97,-17.76 31.11,-17.9 30.22,-18.03 29.32,-18.15 28.39,-18.25 27.35,-18.35 26.28,-18.45 25.18,-18.53 24.05,-18.61 22.9,-18.68 21.73,-18.75 20.53,-18.81 19.32,-18.86 18.1,-18.91 16.86,-18.95 15.62,-18.99 14.37,-19.02 13.12,-19.05 11.86,-19.07 10.61,-19.09 9.36,-19.1 8.12,-19.1 6.88,-19.11 5.66,-19.1 4.45,-19.09 3.26,-19.07 2.08,-19.05 0.92,-19.02 -0.21,-18.99 -1.33,-18.94 -2.42,-18.89 -3.48,-18.83 -4.52,-18.77 -5.53,-18.69 -6.51,-18.61 -7.46,-18.51 -8.37,-18.41 -9.26,-18.3 -10.11,-18.18 -10.93,-18.04 -11.72,-17.9 -12.47,-17.74 -13.19,-17.57 -13.87,-17.39 -14.52,-17.2 -15.14,-17 -15.73,-16.78 -16.28,-16.55 -16.8,-16.3 -17.29,-16.05 -17.76,-15.78 -18.19,-15.49 -18.59,-15.19 -18.97,-14.88 -19.32,-14.55 -19.65,-14.21 -19.95,-13.86 -20.22,-13.49 -20.47,-13.1 -20.7,-12.7 -20.91,-12.28 -21.09,-11.84 -21.24,-11.39 -21.38,-10.93 -21.49,-10.44 -21.59,-9.94 -21.66,-9.42 -21.71,-8.89 -21.74,-8.34 -21.75,-7.78 -21.74,-7.19 -21.72,-6.6 -21.68,-5.98 -21.62,-5.35 -21.54,-4.71 -21.45,-4.05 -21.34,-3.38 -21.22,-2.69 -21.08,-1.99" fill="none" stroke="black" stroke-width="2.2222222222222223" stroke-linejoin="round" filter="url(#fuzzy)" />
      <polyline id="leftLower" points="41.61,-11.35 41.59,-10.96 41.51,-10.51 41.36,-10 41.16,-9.44 40.9,-8.83 40.59,-8.17 40.23,-7.48 39.82,-6.76 39.37,-6 38.87,-5.22 38.34,-4.41 37.77,-3.59 37.16,-2.76 36.52,-1.91 35.85,-1.06 35.15,-0.21 34.42,0.65 33.67,1.5 32.9,2.35 32.11,3.19 31.29,4.02 30.46,4.84 29.62,5.64 28.75,6.43 27.88,7.19 26.83,8.29 25.77,9.35 24.7,10.36 23.61,11.34 22.52,12.27 21.43,13.15 20.32,13.98 19.22,14.75 18.12,15.47 17.01,16.14 15.91,16.74 14.81,17.28 13.72,17.77 12.63,18.19 11.55,18.55 10.48,18.85 9.41,19.1 8.36,19.28 7.32,19.4 6.29,19.46 5.27,19.47 4.26,19.42 3.27,19.31 2.29,19.15 1.33,18.94 0.38,18.68 -0.55,18.38 -1.46,18.02 -2.36,17.63 -3.24,17.19 -4.11,16.72 -4.95,16.2 -5.78,15.66 -6.59,15.08 -7.39,14.48 -8.16,13.85 -8.92,13.19 -9.65,12.52 -10.38,11.82 -11.08,11.11 -11.76,10.39 -12.43,9.65 -13.08,8.91 -13.71,8.16 -14.33,7.4 -14.93,6.65 -15.51,5.89 -16.08,5.14 -16.63,4.39 -17.16,3.65 -17.68,2.92 -18.19,2.18 -18.69,1.45 -19.17,0.72 -19.64,0 -20.1,-0.72 -20.54,-1.43 -20.97,-2.13 -21.4,-2.83 -21.8,-3.51 -22.2,-4.19 -22.58,-4.86 -22.96,-5.51 -23.32,-6.15 -23.67,-6.79 -24.01,-7.41 -24.34,-8.01 -24.66,-8.61 -24.96,-9.19 -25.26,-9.76 -25.55,-10.32 -25.82,-10.86 -26.09,-11.39 -26.35,-11.91" fill="none" stroke="black" stroke-width="2.2222222222222223" stroke-linejoin="round" filter="url(#fuzzy)" />
      <circle r="3.872" cx="6.714884457127168" cy="-6.759063689303792" stroke="black" fill="none" stroke-width="1.0" filter="url(#fuzzy)" clip-path="url(#leftEyeClipPath)" /><circle r="4.272" cx="8.739884457127168" cy="-6.584063689303792" stroke="black" fill="none" stroke-width="1.0" filter="url(#fuzzy)" clip-path="url(#leftEyeClipPath)" /><circle r="4.9239999999999995" cx="7.454884457127168" cy="-2.799063689303792" stroke="black" fill="none" stroke-width="1.0" filter="url(#fuzzy)" clip-path="url(#leftEyeClipPath)" /><circle r="4.2780000000000005" cx="5.404884457127167" cy="-5.874063689303792" stroke="black" fill="none" stroke-width="1.0" filter="url(#fuzzy)" clip-path="url(#leftEyeClipPath)" /><circle r="3.09" cx="6.6448844571271675" cy="-3.089063689303792" stroke="black" fill="none" stroke-width="1.0" filter="url(#fuzzy)" clip-path="url(#leftEyeClipPath)" /><circle r="4.75" cx="5.669884457127168" cy="-2.6890636893037927" stroke="black" fill="none" stroke-width="1.0" filter="url(#fuzzy)" clip-path="url(#leftEyeClipPath)" /><circle r="3.572" cx="7.079884457127168" cy="-6.214063689303792" stroke="black" fill="none" stroke-width="1.0" filter="url(#fuzzy)" clip-path="url(#leftEyeClipPath)" /><circle r="3.458" cx="5.984884457127167" cy="-6.5740636893037925" stroke="black" fill="none" stroke-width="1.0" filter="url(#fuzzy)" clip-path="url(#leftEyeClipPath)" /><circle r="4.198" cx="6.819884457127168" cy="-3.0240636893037918" stroke="black" fill="none" stroke-width="1.0" filter="url(#fuzzy)" clip-path="url(#leftEyeClipPath)" /><circle r="4.112" cx="8.034884457127168" cy="-5.7390636893037925" stroke="black" fill="none" stroke-width="1.0" filter="url(#fuzzy)" clip-path="url(#leftEyeClipPath)" />
    </g>
    <g id="hairs">
      <polyline points="66.84,-53.65 66.75,-53.07 65.83,-52.7 63.86,-52.69 60.87,-52.86 56.87,-53.11 51.82,-53.48 45.63,-54.09 38.23,-55.06 29.59,-56.4 19.62,-58.11 8.26,-60.19 -4.56,-62.65 -18.81,-65.54 -34.38,-68.89" fill="none" stroke="rgb(165, 42, 42)" stroke-width="2" stroke-linejoin="round" filter="url(#fuzzy)" /><polyline points="-13.91,-92.02 -12.24,-92.17 -10.22,-91.91 -7.76,-91.34 -4.75,-90.49 -1.25,-89.36 2.63,-87.97 6.84,-86.35 11.34,-84.55 16.11,-82.62 21.14,-80.57 26.38,-78.4 31.79,-76.12 37.32,-73.77 42.84,-71.44 48.21,-69.24 53.52,-67.05" fill="none" stroke="rgb(165, 42, 42)" stroke-width="2" stroke-linejoin="round" filter="url(#fuzzy)" /><polyline points="4.77,-93.27 5.62,-93.18 6.31,-92.92 6.67,-92.58 6.59,-92.16 6.06,-91.61 5.07,-90.91 3.62,-90.05 1.67,-89.01 -0.86,-87.81 -4.03,-86.44 -7.89,-84.9 -12.44,-83.16 -17.7,-81.23 -23.69,-79.09 -30.44,-76.7 -38.02,-74.05 -46.55,-71.17" fill="none" stroke="rgb(165, 42, 42)" stroke-width="2" stroke-linejoin="round" filter="url(#fuzzy)" /><polyline points="64.77,-57.38 66.09,-54.89 66.69,-53.63 66.85,-53.02 66.71,-52.77 66.33,-52.68 65.75,-52.68 64.94,-52.79 63.84,-53.1 62.39,-53.7 60.55,-54.62 58.31,-55.91 55.64,-57.6 52.53,-59.7 48.95,-62.23 44.87,-65.2 40.26,-68.63 35.09,-72.55 29.4,-76.95 23.25,-81.81 16.78,-87.08" fill="none" stroke="rgb(165, 42, 42)" stroke-width="2" stroke-linejoin="round" filter="url(#fuzzy)" /><polyline points="53.92,-70.21 55.21,-68.55 55.22,-67.73 54.21,-67.36 52.27,-67.25 49.43,-67.35 45.7,-67.61 41.06,-68.06 35.44,-68.74 28.73,-69.75 20.88,-71.12 11.88,-72.87 1.7,-74.95 -9.82,-77.33 -23.03,-79.9" fill="none" stroke="rgb(165, 42, 42)" stroke-width="2" stroke-linejoin="round" filter="url(#fuzzy)" /><polyline points="56.15,-67.79 56.66,-67.08 56.61,-66.44 56.01,-65.8 54.87,-65.15 53.22,-64.47 51.04,-63.79 48.25,-63.16 44.77,-62.63 40.57,-62.2 35.62,-61.86 29.93,-61.62 23.46,-61.49 16.19,-61.5 8.07,-61.68 -0.94,-62.01 -10.82,-62.47 -21.52,-63 -32.95,-63.66 -45.09,-64.58" fill="none" stroke="rgb(165, 42, 42)" stroke-width="2" stroke-linejoin="round" filter="url(#fuzzy)" /><polyline points="2.6,-93.26 4.32,-93.25 5.73,-93.16 7.05,-93.02 8.31,-92.87 9.49,-92.74 10.56,-92.6 11.53,-92.45 12.4,-92.29 13.13,-92.13 13.68,-92 13.99,-91.91 14,-91.85 13.68,-91.83 13.01,-91.84 11.95,-91.87 10.49,-91.94 8.6,-92.06 6.25,-92.24 3.46,-92.52 0.42,-92.9" fill="none" stroke="rgb(165, 42, 42)" stroke-width="2" stroke-linejoin="round" filter="url(#fuzzy)" /><polyline points="38.47,-82.34 39.59,-81.66 40.56,-80.88 41.18,-80.13 41.38,-79.47 41.12,-78.95 40.4,-78.55 39.19,-78.28 37.46,-78.15 35.19,-78.16 32.33,-78.3 28.88,-78.58 24.85,-78.96 20.25,-79.43 15.03,-79.96 9.14,-80.58 2.51,-81.33 -4.84,-82.27 -12.93,-83.43 -21.9,-84.67" fill="none" stroke="rgb(165, 42, 42)" stroke-width="2" stroke-linejoin="round" filter="url(#fuzzy)" /><polyline points="-39.6,-81.79 -38.43,-82.08 -36.65,-82.35 -34.08,-82.67 -30.72,-82.99 -26.74,-83.23 -22.28,-83.36 -17.39,-83.37 -12.1,-83.33 -6.4,-83.25 -0.38,-83.14 5.92,-83 12.41,-82.86 19,-82.76 25.59,-82.69 32.04,-82.58" fill="none" stroke="rgb(165, 42, 42)" stroke-width="2" stroke-linejoin="round" filter="url(#fuzzy)" /><polyline points="-33.61,-84.9 -33.33,-85.24 -32.69,-85.57 -31.79,-86 -30.81,-86.46 -29.86,-86.88 -28.99,-87.21 -28.21,-87.45 -27.58,-87.59 -27.14,-87.62 -26.91,-87.52 -26.93,-87.28 -27.21,-86.89 -27.76,-86.31 -28.61,-85.55 -29.78,-84.6 -31.29,-83.45 -33.13,-82.11 -35.36,-80.56 -38,-78.77 -41.08,-76.74 -44.63,-74.42 -48.6,-71.85 -52.86,-69.17" fill="none" stroke="rgb(165, 42, 42)" stroke-width="2" stroke-linejoin="round" filter="url(#fuzzy)" /><polyline points="-33.55,-85.42 -32.56,-85.44 -30.77,-85.62 -28.37,-85.73 -25.52,-85.64 -22.23,-85.34 -18.49,-84.86 -14.36,-84.22 -9.91,-83.45 -5.21,-82.56 -0.27,-81.56 4.9,-80.45 10.26,-79.23 15.79,-77.93 21.43,-76.57 27.16,-75.18 32.97,-73.73 38.9,-72.21 44.92,-70.58 50.95,-68.85" fill="none" stroke="rgb(165, 42, 42)" stroke-width="2" stroke-linejoin="round" filter="url(#fuzzy)" /><polyline points="-12.54,-92.44 -10.93,-92.46 -9.29,-92.25 -7.07,-91.83 -4.39,-91.18 -1.42,-90.32 1.79,-89.29 5.25,-88.1 8.95,-86.79 12.88,-85.36 17.01,-83.83 21.3,-82.21 25.68,-80.55 30.11,-78.85 34.56,-77.12 39,-75.34 43.42,-73.49 47.8,-71.6 52.07,-69.68" fill="none" stroke="rgb(165, 42, 42)" stroke-width="2" stroke-linejoin="round" filter="url(#fuzzy)" /><polyline points="70.91,-46.31 71.94,-44.09 72.3,-42.62 72.18,-41.65 71.65,-41.07 70.74,-40.76 69.44,-40.69 67.75,-40.85 65.67,-41.23 63.18,-41.8 60.28,-42.58 56.96,-43.58 53.18,-44.85 48.91,-46.44 44.12,-48.36 38.81,-50.6 32.96,-53.14 26.55,-55.96 19.58,-59.09 12.07,-62.54 4,-66.33 -4.64,-70.44 -13.85,-74.89 -23.56,-79.79" fill="none" stroke="rgb(165, 42, 42)" stroke-width="2" stroke-linejoin="round" filter="url(#fuzzy)" /><polyline points="30.32,-86.67 31.78,-85.82 32.59,-85.07 32.71,-84.27 32.13,-83.45 30.8,-82.63 28.72,-81.84 25.9,-81.03 22.39,-80.13 18.22,-79.09 13.36,-77.94 7.73,-76.68 1.25,-75.35 -6.15,-73.97 -14.53,-72.51 -23.9,-70.97 -34.26,-69.34 -45.46,-67.81" fill="none" stroke="rgb(165, 42, 42)" stroke-width="2" stroke-linejoin="round" filter="url(#fuzzy)" /><polyline points="57.61,-66.61 58.18,-65.58 58.29,-64.97 58.08,-64.5 57.53,-64.13 56.52,-64 54.92,-64.2 52.67,-64.77 49.77,-65.67 46.2,-66.9 41.92,-68.5 36.89,-70.52 31.05,-73.04 24.36,-76.09 16.74,-79.6 8.18,-83.52 -1.06,-87.79" fill="none" stroke="rgb(165, 42, 42)" stroke-width="2" stroke-linejoin="round" filter="url(#fuzzy)" /><polyline points="-47.13,-76.45 1.91,-64.02 -4.9,-69.07 -11.68,-72.64 -8.96,-72.34 -1.17,-70.44 4.54,-69.11 3.56,-68.82 -4.21,-68.92 -15.2,-68.65 -24.59,-67.79 -28.78,-66.7 -27.02,-66.04 -21.61,-66.36 -16.7,-67.72 -16.09,-69.59 -20.87,-71.1 -28.32,-71.55 -33.12,-70.93 -30.45,-69.9 -19.91,-69.4 -8.28,-70.98 -6.12,-78.16 4.77,-93.27" fill="none" stroke="rgb(165, 42, 42)" stroke-width="2" stroke-linejoin="round" filter="url(#fuzzy)" /><polyline points="10.68,-92.69 36.33,-75.27 45.24,-63.2 41.53,-58.74 34.66,-56.52 26.22,-55.44 15.17,-56.76 3.93,-60.56 -2.66,-65.16 -2.32,-68.74 2.72,-70.67 9.44,-70.88 19.47,-68.35 37.81,-61.6 60.72,-52.55 68.35,-51.32" fill="none" stroke="rgb(165, 42, 42)" stroke-width="2" stroke-linejoin="round" filter="url(#fuzzy)" /><polyline points="53.79,-70.36 -8.69,-69.98 -18.61,-76.54 -17.45,-80.47 -13.64,-83.04 -8.41,-85.52 -2.95,-87.8 1.49,-89.39 4.29,-90.05 5.57,-89.88 5.7,-89.18 4.9,-88.41 3.07,-87.94 0.11,-87.95 -3.77,-88.19 -8.18,-88.04 -12.76,-86.7 -16.65,-83.5 -16.46,-78.04 -4.18,-70.26 29.89,-59 76.45,-32.71" fill="none" stroke="rgb(165, 42, 42)" stroke-width="2" stroke-linejoin="round" filter="url(#fuzzy)" /><polyline points="52.7,-71.44 15.36,-77.94 4.03,-75.8 -5.66,-72.5 -15.54,-69.87 -23.94,-68.43 -29.48,-68.17 -31.93,-68.78 -31.71,-70.05 -29.24,-71.9 -24.62,-74.13 -17.55,-76.18 -7.52,-77.04 5.63,-75.6 21.16,-71.31 36.92,-64.88 49.56,-58.43 55.05,-54.91 49.35,-56.76 28.98,-64.84 -6.03,-77.18 -35.93,-83.96" fill="none" stroke="rgb(165, 42, 42)" stroke-width="2" stroke-linejoin="round" filter="url(#fuzzy)" /><polyline points="-64.96,-57.06 -22.66,-79.04 -10.26,-85.11 -8.6,-84.83 -4.99,-81.89 2.01,-78.09 9.51,-74.68 15.67,-72.41 20.23,-71.19 22.98,-70.37 23.26,-69.27 20.88,-67.67 16.75,-66.18 11.34,-66.14 3.24,-68.44 -1.07,-71.34 46.45,-76.59" fill="none" stroke="rgb(165, 42, 42)" stroke-width="2" stroke-linejoin="round" filter="url(#fuzzy)" /><polyline points="68.24,-51.38 40.75,-62.92 4.49,-70.97 -14.78,-74.83 -16.34,-76.58 -8.96,-76.91 -0.12,-76.38 6.99,-75.82 11.01,-75.88 9.91,-76.79 1.95,-78.37 -11.14,-80 -22.71,-80.83 -23.33,-80.25 -2.19,-77.48 57.01,-66.86" fill="none" stroke="rgb(165, 42, 42)" stroke-width="2" stroke-linejoin="round" filter="url(#fuzzy)" /><polyline points="-29.42,-87.15 15.36,-69.22 6.52,-73.36 -5.95,-79.36 -8.92,-83.42 -3.33,-84.8 5.97,-83.91 13.91,-81.86 16.99,-79.93 14.65,-78.78 9.29,-78.28 4.78,-77.85 4.24,-77.07 8.23,-76.09 14.58,-75.5 19.9,-75.75 21.97,-76.5 20.89,-76.69 16.77,-75.52 5.01,-73.84 -21.65,-74.47 -43.22,-79.57" fill="none" stroke="rgb(165, 42, 42)" stroke-width="2" stroke-linejoin="round" filter="url(#fuzzy)" /><polyline points="76.45,-32.71 33.44,-66.65 4.83,-79.71 -7.01,-83.53 -6.19,-83.42 1.67,-82.21 10.68,-81.17 16.92,-80.33 19.65,-79.17 20.63,-77.47 22.2,-75.68 25.16,-74.55 27.77,-74.29 26.85,-74.27 20.89,-73.98 13.38,-74.64 10.99,-79.59 -5.61,-93.1" fill="none" stroke="rgb(165, 42, 42)" stroke-width="2" stroke-linejoin="round" filter="url(#fuzzy)" /><polyline points="-5.38,-93.36 -14.35,-85.34 -0.4,-84.52 12.79,-83.17 18.8,-81.62 16.7,-81.29 9.34,-81.89 1.17,-81.89 -3.75,-80.16 -3.07,-76.91 2.89,-73.58 11.01,-71.89 16.83,-72.78 17.81,-75.81 16,-79.44 17.07,-81.94 24.53,-82.36 35.27,-80.26 53.92,-70.21" fill="none" stroke="rgb(165, 42, 42)" stroke-width="2" stroke-linejoin="round" filter="url(#fuzzy)" /><polyline points="37.04,-83.17 29.33,-59.58 0.85,-64.08 -10.26,-72.19 -6.49,-77.29 2.69,-79.31 11.31,-79.57 17.65,-78.97 21.73,-78.01 23.46,-77.15 22.48,-76.87 18.64,-77.28 12.34,-78.13 4.49,-79.01 -3.49,-79.75 -9.63,-80.49 -11.5,-81.32 -7.18,-81.92 3.35,-81.59 17.04,-80.01 27.71,-78.35 28.5,-79.55 19.84,-85.13 28.23,-87.72" fill="none" stroke="rgb(165, 42, 42)" stroke-width="2" stroke-linejoin="round" filter="url(#fuzzy)" /><polyline points="-61.94,-61.41 16.55,-59.22 30.79,-66.15 22.9,-72.49 12.65,-75.27 5.73,-75.9 2.52,-75.96 2.11,-75.59 3.32,-74.48 5.17,-72.95 7.24,-71.73 9.25,-70.59 9.23,-67.98 0.35,-63.58 -27.54,-62.26 -56.94,-67.14" fill="none" stroke="rgb(165, 42, 42)" stroke-width="2" stroke-linejoin="round" filter="url(#fuzzy)" /><polyline points="-32.84,-85.33 17.95,-69.43 24.83,-73.43 22.68,-75.63 18.19,-74 13.48,-71.38 9.79,-70.28 8.31,-71.38 9.85,-73.86 14.25,-76.36 20.28,-77.57 26.26,-76.77 30.52,-74.15 31.42,-70.99 27.49,-69.18 18.35,-70.31 6.64,-74.28 0.31,-77.42 14.09,-70.46 74.22,-38.95" fill="none" stroke="rgb(165, 42, 42)" stroke-width="2" stroke-linejoin="round" filter="url(#fuzzy)" /><polyline points="62.73,-59.94 34.1,-64.65 14.62,-68.75 15.63,-71.64 23.11,-73.61 28.53,-75.08 30.7,-75.71 31.36,-75.02 31.41,-73.32 29.74,-71.68 24.39,-71.2 14.63,-72.15 2.26,-73.92 -9.04,-75.53 -16.07,-76.38 -18.53,-76.39 -19.33,-76.09 -20.9,-76.83 -19.41,-80.56 -5.09,-87.27 20.57,-90.27" fill="none" stroke="rgb(165, 42, 42)" stroke-width="2" stroke-linejoin="round" filter="url(#fuzzy)" /><polyline points="-55.38,-68.64 -12.32,-73.98 -6.9,-74.8 2.78,-72.62 14.95,-69.31 23,-66.33 25.13,-64.88 22.82,-65.77 18.07,-68.97 12.33,-73.48 6.54,-77.87 1.19,-81.02 -3.51,-82.61 -7.19,-83.06 -8.94,-83.11 -7.6,-83.26 -3.07,-83.45 2.3,-83.39 3.9,-83.07 -2.43,-82.83 -15.12,-82.58 -21,-82.69 9.94,-92.79" fill="none" stroke="rgb(165, 42, 42)" stroke-width="2" stroke-linejoin="round" filter="url(#fuzzy)" /><polyline points="-37.66,-82.6 -20.87,-86.65 -0.24,-87.57 16.69,-85.51 28.93,-81.86 35.73,-78.61 36.37,-77.33 31.5,-78.27 23.5,-80.54 15.25,-82.78 8.76,-83.94 4.34,-83.73 1.05,-82.59 -2.01,-81.4 -4.58,-80.83 -5.09,-80.97 -1.55,-81.09 6.88,-80.05 18.92,-76.99 30.95,-72.35 37.81,-68.53 34.63,-69.28 20.99,-76.86 8.19,-86.98 24.45,-89.13" fill="none" stroke="rgb(165, 42, 42)" stroke-width="2" stroke-linejoin="round" filter="url(#fuzzy)" /><polyline points="-0.19,-93.47 2.51,-93.33 5.18,-93.15 7.76,-92.9 10.28,-92.57 12.74,-92.15 15.16,-91.66 17.58,-91.09 19.99,-90.44 22.4,-89.7 24.81,-88.88 27.19,-88 29.53,-87.05 31.84,-86.06 34.13,-85.01 36.42,-83.9 38.73,-82.7 41.06,-81.41 43.41,-79.98 45.77,-78.43 48.09,-76.83 50.25,-75.31 52.07,-74.09 53.16,-73.45" fill="none" stroke="rgb(165, 42, 42)" stroke-width="2" stroke-linejoin="round" filter="url(#fuzzy)" /><polyline points="-0.19,-93.47 2.69,-93.33 5.45,-93.15 8.07,-92.9 10.73,-92.56 13.53,-92.14 16.51,-91.64 19.69,-91.07 23.1,-90.41 26.79,-89.66 30.76,-88.84 34.94,-87.95 39.22,-86.99 43.5,-85.99 47.73,-84.92 51.99,-83.79 56.44,-82.58 61.29,-81.26 66.67,-79.84 72.59,-78.33 78.86,-76.77 85.18,-75.24 91.38,-73.73 97.65,-72.14 104.57,-70.2 113.08,-67.79" fill="none" stroke="rgb(165, 42, 42)" stroke-width="2" stroke-linejoin="round" filter="url(#fuzzy)" /><polyline points="-5.38,-93.36 -3.22,-93.32 -1.05,-93.29 1.4,-93.22 3.95,-93.1 6.45,-92.91 8.85,-92.65 11.2,-92.32 13.51,-91.9 15.83,-91.41 18.18,-90.83 20.58,-90.15 23.05,-89.38 25.59,-88.5 28.18,-87.53 30.81,-86.45 33.44,-85.28 36.03,-84.04 38.55,-82.74 41,-81.39 43.35,-80 45.6,-78.56 47.76,-77.07 49.84,-75.54 51.87,-73.96 53.89,-72.33 55.95,-70.63 58.06,-68.85 60.25,-67 62.49,-65.08 64.74,-63.09 66.94,-61.06 69.02,-58.95 71.01,-56.54 73.54,-53.2" fill="none" stroke="rgb(165, 42, 42)" stroke-width="2" stroke-linejoin="round" filter="url(#fuzzy)" /><polyline points="-10.27,-92.89 -6.42,-93.17 -3.63,-93.25 -1.04,-93.26 1.69,-93.2 4.61,-93.08 7.66,-92.89 10.84,-92.63 14.13,-92.29 17.49,-91.88 20.92,-91.38 24.39,-90.8 27.94,-90.12 31.63,-89.34 35.57,-88.46 39.85,-87.48 44.54,-86.4 49.62,-85.24 54.97,-84 60.42,-82.7 65.73,-81.34 70.76,-79.95 75.36,-78.5 79.5,-77.01 83.14,-75.47 86.33,-73.88 89.21,-72.23 92.01,-70.52 95.11,-68.73 98.92,-66.87 103.82,-64.94 110.06,-62.93 117.72,-60.84 126.6,-58.65 135.99,-56.34 144.47,-53.94 150.45,-51.73 155.53,-50.2" fill="none" stroke="rgb(165, 42, 42)" stroke-width="2" stroke-linejoin="round" filter="url(#fuzzy)" /><polyline points="80.31,-17.16 82.78,-14.31 84.49,-11.55 84.81,-8.71 84.94,-5.7 85.34,-2.62 85.93,0.42 86.55,3.32 87.15,6.07 87.72,8.72 88.25,11.34 88.76,13.99 89.28,16.68 89.87,19.44 90.61,22.24 91.49,25.03 92.37,27.77 93,30.42 93.1,32.97 92.55,35.48 91.46,38 90.28,40.57 89.53,43.12 89.57,45.46 90.55,47.12" fill="none" stroke="rgb(165, 42, 42)" stroke-width="2" stroke-linejoin="round" filter="url(#fuzzy)" /><polyline points="-12.54,-92.44 -10.76,-92.69 -8.75,-92.91 -6.32,-93.08 -3.54,-93.19 -0.52,-93.23 2.75,-93.19 6.33,-93.07 10.24,-92.86 14.42,-92.56 18.76,-92.19 23.15,-91.74 27.51,-91.21 31.85,-90.61 36.18,-89.91 40.47,-89.13 44.65,-88.27 48.77,-87.35 53.09,-86.39 57.97,-85.38 63.54,-84.3 69.54,-83.18 76.12,-82.34" fill="none" stroke="rgb(165, 42, 42)" stroke-width="2" stroke-linejoin="round" filter="url(#fuzzy)" /><polyline points="-20.29,-90.28 -17.96,-91.08 -15.86,-91.68 -13.81,-92.16 -11.51,-92.52 -8.94,-92.79 -6.16,-92.98 -3.22,-93.1 -0.13,-93.14 3.09,-93.09 6.38,-92.96 9.7,-92.74 13.01,-92.44 16.33,-92.06 19.66,-91.59 23.04,-91.03 26.48,-90.39 29.99,-89.67 33.56,-88.88 37.21,-88.01 40.97,-87.07 44.88,-86.07 48.97,-85 53.28,-83.87 57.86,-82.65 62.8,-81.33 68.17,-79.91 73.94,-78.41 79.93,-76.85 85.88,-75.3 91.65,-73.77 97.4,-72.17 103.38,-70.22 109.09,-67.79" fill="none" stroke="rgb(165, 42, 42)" stroke-width="2" stroke-linejoin="round" filter="url(#fuzzy)" /><polyline points="-23.07,-89.5 -20.5,-90.28 -18.01,-91 -15.66,-91.61 -13.41,-92.09 -11.15,-92.47 -8.77,-92.75 -6.19,-92.95 -3.38,-93.08 -0.35,-93.12 2.88,-93.09 6.25,-92.97 9.72,-92.77 13.28,-92.48 16.94,-92.11 20.8,-91.65 24.96,-91.11 29.5,-90.49 34.42,-89.78 39.57,-89 44.76,-88.14 49.77,-87.21 54.48,-86.23 58.98,-85.19 63.54,-84.1 68.63,-82.93 74.7,-81.67 81.91,-80.25 89.81,-78.63 97.31,-76.84 104.63,-75.21" fill="none" stroke="rgb(165, 42, 42)" stroke-width="2" stroke-linejoin="round" filter="url(#fuzzy)" /><polyline points="-23.07,-89.5 -21.11,-90.27 -19.33,-90.99 -17.35,-91.59 -15.12,-92.08 -12.64,-92.46 -10,-92.75 -7.24,-92.96 -4.35,-93.1 -1.28,-93.17 2.03,-93.15 5.57,-93.06 9.35,-92.88 13.35,-92.62 17.54,-92.28 21.89,-91.87 26.39,-91.37 31.02,-90.81 35.85,-90.15 40.94,-89.37 46.39,-88.49 52.31,-87.56 59.92,-86.62" fill="none" stroke="rgb(165, 42, 42)" stroke-width="2" stroke-linejoin="round" filter="url(#fuzzy)" /><polyline points="80.01,-17.62 85.26,-14.58 85.94,-11.89 87.55,-9.26 90.63,-6.47 94.37,-3.52 97.76,-0.56 99.99,2.34 100.83,5.15 100.67,7.93 100.26,10.7 100.25,13.49 100.98,16.26 102.47,19.01 104.52,21.72 106.78,24.41 108.88,27.1 110.45,29.76 111.37,32.35 111.91,34.88 112.68,37.47 114.15,40.33 116.26,43.48 120.1,46.24" fill="none" stroke="rgb(165, 42, 42)" stroke-width="2" stroke-linejoin="round" filter="url(#fuzzy)" /><polyline points="-25.39,-88.64 -21.82,-89.46 -19,-90.24 -16.46,-90.95 -14.07,-91.55 -11.8,-92.04 -9.61,-92.42 -7.44,-92.71 -5.23,-92.92 -2.97,-93.04 -0.65,-93.08 1.7,-93.04 4.04,-92.92 6.34,-92.7 8.56,-92.41 10.67,-92.02 12.67,-91.56 14.56,-91.01 16.35,-90.37 18.05,-89.65 19.71,-88.86 21.31,-87.99 22.88,-87.05 24.39,-86.05 25.79,-84.98 27.07,-83.83 28.2,-82.61 29.2,-81.29 30.11,-79.87 30.95,-78.37 31.71,-76.83 32.39,-75.26 33.01,-73.68 33.72,-72.03 34.62,-70.2 35.51,-68.23 35.7,-66.61" fill="none" stroke="rgb(165, 42, 42)" stroke-width="2" stroke-linejoin="round" filter="url(#fuzzy)" /><polyline points="-25.39,-88.64 -23.07,-89.45 -20.73,-90.24 -18.39,-90.95 -16.02,-91.55 -13.63,-92.04 -11.21,-92.42 -8.73,-92.71 -6.18,-92.92 -3.54,-93.04 -0.82,-93.09 1.95,-93.05 4.76,-92.92 7.61,-92.71 10.53,-92.42 13.56,-92.04 16.76,-91.57 20.15,-91.03 23.69,-90.39 27.31,-89.68 30.91,-88.88 34.35,-88.02 37.59,-87.08 40.61,-86.08 43.47,-85.02 46.3,-83.88 49.19,-82.66 52.22,-81.35 55.39,-79.93 58.64,-78.42 61.87,-76.87 65.05,-75.31 68.21,-73.78 71.46,-72.17 74.81,-70.22 78.43,-67.79" fill="none" stroke="rgb(165, 42, 42)" stroke-width="2" stroke-linejoin="round" filter="url(#fuzzy)" /><polyline points="-25.39,-88.64 -23.06,-89.45 -20.58,-90.23 -18.08,-90.94 -15.59,-91.54 -13.12,-92.03 -10.68,-92.42 -8.26,-92.71 -5.83,-92.93 -3.36,-93.06 -0.85,-93.11 1.7,-93.08 4.27,-92.96 6.83,-92.77 9.38,-92.48 11.91,-92.12 14.42,-91.67 16.91,-91.14 19.39,-90.52 21.86,-89.82 24.3,-89.04 26.71,-88.18 29.06,-87.26 31.35,-86.28 33.59,-85.25 35.81,-84.17 38.03,-83.02 40.28,-81.79 42.61,-80.4 45.11,-78.7 47.82,-76.59" fill="none" stroke="rgb(165, 42, 42)" stroke-width="2" stroke-linejoin="round" filter="url(#fuzzy)" /><polyline points="-26.84,-88.2 -23.85,-89.37 -21.46,-90.19 -19.05,-90.86 -16.62,-91.41 -14.2,-91.88 -11.79,-92.28 -9.37,-92.61 -6.92,-92.86 -4.44,-93.02 -1.93,-93.1 0.6,-93.11 3.13,-93.04 5.64,-92.9 8.12,-92.69 10.55,-92.42 12.96,-92.07 15.37,-91.65 17.8,-91.15 20.25,-90.56 22.72,-89.89 25.21,-89.13 27.72,-88.29 30.34,-87.33 33.21,-86.2 36.42,-84.82 39.73,-83.17" fill="none" stroke="rgb(165, 42, 42)" stroke-width="2" stroke-linejoin="round" filter="url(#fuzzy)" /><polyline points="-26.84,-88.2 -24.29,-89.37 -22.43,-90.19 -20.61,-90.86 -18.83,-91.41 -16.84,-91.88 -14.44,-92.28 -11.62,-92.61 -8.5,-92.86 -5.21,-93.02 -1.83,-93.1 1.66,-93.11 5.26,-93.04 8.99,-92.9 12.86,-92.69 16.87,-92.42 21.06,-92.07 25.44,-91.65 30.05,-91.15 34.93,-90.56 40.14,-89.89 45.73,-89.13 51.84,-88.29 58.64,-87.33 66.12,-86.2 73.5,-84.82 78.55,-83.17" fill="none" stroke="rgb(165, 42, 42)" stroke-width="2" stroke-linejoin="round" filter="url(#fuzzy)" /><polyline points="-28.59,-87.44 -27.01,-88.47 -25.79,-89.35 -23.91,-90.15 -21.43,-90.86 -18.6,-91.47 -15.71,-91.97 -12.91,-92.38 -10.19,-92.69 -7.44,-92.92 -4.49,-93.07 -1.24,-93.14 2.37,-93.13 6.27,-93.04 10.4,-92.87 14.66,-92.62 19.05,-92.28 23.61,-91.87 28.46,-91.38 33.67,-90.81 39.21,-90.15 45.03,-89.38 51.1,-88.49 57.28,-87.57 63.2,-86.62" fill="none" stroke="rgb(165, 42, 42)" stroke-width="2" stroke-linejoin="round" filter="url(#fuzzy)" /><polyline points="-33.55,-85.42 -31.57,-86.09 -28.94,-87.13 -26.26,-88.18 -23.64,-89.13 -21.09,-89.95 -18.58,-90.66 -16.12,-91.25 -13.71,-91.76 -11.34,-92.18 -9,-92.52 -6.66,-92.78 -4.34,-92.96 -2.01,-93.06 0.32,-93.07 2.61,-93.01 4.87,-92.88 7.06,-92.68 9.18,-92.41 11.25,-92.07 13.28,-91.65 15.3,-91.15 17.33,-90.57 19.36,-89.9 21.38,-89.14 23.37,-88.3 25.4,-87.34 27.59,-86.2 30.07,-84.82 32.61,-83.17" fill="none" stroke="rgb(165, 42, 42)" stroke-width="2" stroke-linejoin="round" filter="url(#fuzzy)" /><polyline points="-33.61,-84.9 -32.63,-85.66 -31.38,-86.6 -30.69,-87.52 -30.12,-88.39 -29.06,-89.21 -27.35,-89.99 -25.07,-90.7 -22.38,-91.32 -19.37,-91.85 -16.1,-92.28 -12.66,-92.62 -9.12,-92.87 -5.5,-93.04 -1.73,-93.14 2.29,-93.15 6.64,-93.09 11.3,-92.94 16.17,-92.71 21.09,-92.39 26,-91.99 31.06,-91.52 36.52,-91.03 42.16,-90.56 46.57,-90.22" fill="none" stroke="rgb(165, 42, 42)" stroke-width="2" stroke-linejoin="round" filter="url(#fuzzy)" /><polyline points="80.1,-19.28 80.52,-16.95 81.75,-14.33 83.83,-11.59 86.38,-8.73 89.36,-5.74 93.05,-2.69 97.53,0.32 102.48,3.23 107.27,6 111.33,8.68 114.33,11.33 116.35,13.99 117.84,16.7 119.36,19.46 121.31,22.25 123.59,25.04 125.73,27.78 127.27,30.44 128.29,33.02 129.53,35.55 131.72,38.08 134.76,40.63 137.48,43.18 138.77,45.69 138.63,48.24 138.17,51.5" fill="none" stroke="rgb(165, 42, 42)" stroke-width="2" stroke-linejoin="round" filter="url(#fuzzy)" /><polyline points="80.1,-19.28 89.07,-16.93 88.13,-14.28 86.94,-11.52 88.04,-8.62 91.56,-5.61 96.4,-2.54 101.1,0.47 104.6,3.38 106.47,6.18 106.87,8.9 106.33,11.59 105.51,14.29 104.96,17.03 104.99,19.8 105.63,22.58 106.79,25.35 108.35,28.08 110.3,30.76 112.68,33.39 115.46,35.98 118.33,38.56 120.7,41.14 121.91,43.73 121.52,46.33 119.61,48.94 116.78,51.55 113.94,54.1 111.92,56.57 111.18,58.89 111.73,61 112.86,62.92 112.92,64.79 111.59,67.24" fill="none" stroke="rgb(165, 42, 42)" stroke-width="2" stroke-linejoin="round" filter="url(#fuzzy)" /><polyline points="-38.29,-82.55 -40.16,-81.5 -43.28,-80.02 -46.69,-78.56 -50.1,-77.12 -53.56,-75.61 -57.08,-74.01 -60.48,-72.33 -63.6,-70.57 -66.42,-68.74 -69.08,-66.85 -71.74,-64.89 -74.52,-62.87 -77.43,-60.78 -80.46,-58.61 -83.53,-56.35 -86.55,-54.01 -89.42,-51.58 -92.07,-49.11 -94.52,-46.59 -96.86,-44.07 -99.3,-41.56 -102.09,-39.08 -105.46,-36.61 -109.47,-34.12 -113.85,-31.61 -117.93,-29.09 -121.06,-26.63 -123.71,-24.25 -127.44,-21.46" fill="none" stroke="rgb(165, 42, 42)" stroke-width="2" stroke-linejoin="round" filter="url(#fuzzy)" /><polyline points="-37.66,-82.6 -39.8,-81.47 -42.28,-79.94 -44.98,-78.23 -47.97,-76.43 -51.48,-74.62 -55.63,-72.81 -60.13,-71 -64.36,-69.18 -67.72,-67.32 -69.97,-65.41 -71.36,-63.42 -72.49,-61.32 -74,-59.11 -76.35,-56.8 -79.67,-54.43 -83.78,-52.01 -88.29,-49.59 -92.74,-47.15 -96.82,-44.71 -100.45,-42.25 -103.81,-39.76 -107.18,-37.24 -110.76,-34.7 -114.48,-32.14 -118.03,-29.55 -120.97,-26.97 -123.09,-24.4 -124.54,-21.89 -125.96,-19.37 -129.97,-16.08" fill="none" stroke="rgb(165, 42, 42)" stroke-width="2" stroke-linejoin="round" filter="url(#fuzzy)" /><polyline points="-37.66,-82.6 -39.78,-81.47 -42.17,-79.94 -44.57,-78.23 -46.85,-76.43 -48.99,-74.62 -51,-72.81 -52.92,-71 -54.76,-69.18 -56.55,-67.32 -58.31,-65.41 -60.05,-63.42 -61.78,-61.32 -63.49,-59.11 -65.17,-56.8 -66.81,-54.43 -68.4,-52.01 -69.94,-49.59 -71.41,-47.15 -72.81,-44.71 -74.13,-42.25 -75.36,-39.76 -76.48,-37.24 -77.53,-34.7 -78.51,-32.14 -79.42,-29.55 -80.24,-26.97 -80.95,-24.4 -81.53,-21.89 -82.1,-19.37 -82.93,-16.08" fill="none" stroke="rgb(165, 42, 42)" stroke-width="2" stroke-linejoin="round" filter="url(#fuzzy)" /><polyline points="-45.21,-77.64 -47.08,-77.05 -49.47,-75.61 -51.58,-73.94 -53.73,-72.19 -56.1,-70.4 -58.69,-68.54 -61.45,-66.62 -64.35,-64.64 -67.3,-62.58 -70.19,-60.46 -72.9,-58.26 -75.42,-55.97 -77.82,-53.59 -80.23,-51.15 -82.78,-48.67 -85.59,-46.15 -88.72,-43.63 -92.27,-41.11 -96.28,-38.6 -100.7,-36.08 -105.38,-33.54 -109.99,-30.96 -114.2,-28.32 -117.73,-25.61 -120.51,-22.8 -122.69,-19.92 -124.55,-16.98 -126.31,-14.02 -128.11,-11.05 -130.08,-8.05 -132.58,-5.08 -135.72,-2.47 -138.5,-0.74" fill="none" stroke="rgb(165, 42, 42)" stroke-width="2" stroke-linejoin="round" filter="url(#fuzzy)" /><polyline points="-45.39,-77.9 -48.81,-75.81 -55.59,-73.93 -63.12,-72.14 -68.26,-70.34 -70.87,-68.48 -72.41,-66.55 -74.06,-64.55 -76.17,-62.49 -78.6,-60.35 -81.23,-58.13 -84.14,-55.83 -87.55,-53.44 -91.53,-50.99 -95.91,-48.5 -100.32,-45.98 -104.36,-43.45 -107.85,-40.92 -110.88,-38.4 -113.82,-35.86 -117.06,-33.29 -120.82,-30.69 -124.99,-28.02 -129.26,-25.28 -133.24,-22.47 -136.73,-19.6 -139.84,-16.68 -142.95,-13.73 -146.52,-10.79 -150.75,-7.88 -155.32,-5.01 -159.4,-2.2 -162.05,0.57 -163.14,3.38 -163.87,6.28 -166.29,9.13 -171.3,11.32" fill="none" stroke="rgb(165, 42, 42)" stroke-width="2" stroke-linejoin="round" filter="url(#fuzzy)" /><polyline points="79.79,-20.09 81.08,-17.44 87.2,-14.66 96.06,-11.95 102.55,-9.21 104.62,-6.37 103.28,-3.43 100.5,-0.47 97.79,2.44 95.99,5.3 95.43,8.12 96.16,10.93 98.09,13.74 101.05,16.53 104.82,19.3 109.24,22.05 114.18,24.77 119.55,27.47 125.18,30.14 130.74,32.8 135.72,35.44 139.58,38.06 142,40.68 143.02,43.27 143.05,45.82 142.68,48.32 142.33,50.81 142.04,53.28 141.51,55.67 140.36,57.9 137.97,60.14 132.33,63.52" fill="none" stroke="rgb(165, 42, 42)" stroke-width="2" stroke-linejoin="round" filter="url(#fuzzy)" /><polyline points="79.79,-20.09 85.07,-17.44 92.98,-14.66 98.12,-11.95 101.38,-9.21 104.55,-6.37 108.27,-3.43 112.29,-0.47 116.13,2.44 119.44,5.3 122.08,8.12 124.04,10.93 125.51,13.74 126.79,16.53 128.28,19.3 130.32,22.05 133.04,24.77 136.31,27.47 139.73,30.14 142.85,32.8 145.35,35.44 147.05,38.06 147.91,40.68 147.9,43.27 147.01,45.82 145.37,48.32 143.38,50.81 141.63,53.28 140.46,55.67 139.53,57.9 138.07,60.14 135.83,63.52" fill="none" stroke="rgb(165, 42, 42)" stroke-width="2" stroke-linejoin="round" filter="url(#fuzzy)" /><polyline points="-52.22,-71.88 -56.68,-70.26 -61.07,-68.5 -68.69,-66.57 -77.55,-64.57 -84.5,-62.53 -88.5,-60.45 -90.86,-58.28 -93.52,-56.01 -97.54,-53.64 -102.66,-51.2 -107.96,-48.71 -112.74,-46.2 -117.1,-43.69 -121.74,-41.2 -127.43,-38.73 -134.27,-36.27 -141.42,-33.8 -147.36,-31.29 -150.77,-28.74 -151.58,-26.12 -151.53,-23.34 -153.8,-20.3 -161.4,-17.11 -174.27,-14.94" fill="none" stroke="rgb(165, 42, 42)" stroke-width="2" stroke-linejoin="round" filter="url(#fuzzy)" /><polyline points="-53.01,-71 -69.48,-68.79 -69.28,-66.9 -68.44,-65.11 -69.78,-63.18 -72.62,-61.05 -76.32,-58.76 -80.61,-56.37 -85.16,-53.94 -89.47,-51.49 -93.03,-49.06 -95.63,-46.62 -97.34,-44.18 -98.46,-41.72 -99.36,-39.23 -100.41,-36.71 -102,-34.17 -104.47,-31.61 -108,-29.04 -112.51,-26.46 -117.66,-23.86 -122.98,-21.23 -128.15,-18.54 -133.23,-15.77 -138.5,-12.91 -143.77,-10.01 -147.99,-7.2 -150.37,-4.65 -154.16,-2.31" fill="none" stroke="rgb(165, 42, 42)" stroke-width="2" stroke-linejoin="round" filter="url(#fuzzy)" /><polyline points="-62.74,-60.28 -64.61,-58.48 -66.34,-56 -68.63,-53.5 -71.77,-51.05 -75.61,-48.64 -79.72,-46.24 -83.6,-43.82 -86.91,-41.38 -89.57,-38.89 -91.77,-36.37 -93.84,-33.83 -95.99,-31.28 -98.2,-28.71 -100.21,-26.14 -101.78,-23.54 -102.89,-20.9 -103.84,-18.21 -105.1,-15.45 -107.02,-12.62 -109.59,-9.75 -112.41,-6.89 -114.87,-4.04 -116.61,-1.16 -118.34,1.62 -122.14,3.18" fill="none" stroke="rgb(165, 42, 42)" stroke-width="2" stroke-linejoin="round" filter="url(#fuzzy)" /><polyline points="-62.74,-60.28 -63.82,-58.44 -65.44,-55.94 -67.11,-53.41 -68.78,-50.93 -70.47,-48.49 -72.16,-46.05 -73.79,-43.6 -75.36,-41.11 -76.84,-38.59 -78.23,-36.04 -79.5,-33.46 -80.66,-30.87 -81.72,-28.26 -82.68,-25.63 -83.54,-22.97 -84.27,-20.26 -84.87,-17.51 -85.34,-14.71 -85.71,-11.86 -86.01,-8.99 -86.27,-6.08 -86.5,-3.17 -86.68,-0.26 -86.8,2.63 -86.85,5.49 -86.83,8.29 -86.75,11.04 -86.64,13.74 -86.48,16.43 -86.28,19.14 -86.03,21.91 -85.73,24.72 -85.38,27.54 -84.95,30.32 -84.46,32.87 -83.86,34.72" fill="none" stroke="rgb(165, 42, 42)" stroke-width="2" stroke-linejoin="round" filter="url(#fuzzy)" /><polyline points="-62.74,-60.28 -67.89,-58.48 -69.12,-56 -70.04,-53.5 -71.7,-51.05 -74.36,-48.64 -77.67,-46.24 -81.03,-43.82 -83.94,-41.38 -86.15,-38.89 -87.67,-36.37 -88.69,-33.83 -89.45,-31.28 -90.19,-28.71 -91.04,-26.14 -92.05,-23.54 -93.15,-20.9 -94.28,-18.21 -95.45,-15.45 -96.8,-12.62 -98.48,-9.75 -100.54,-6.89 -102.81,-4.04 -105.02,-1.16 -107.37,1.62 -111.25,3.18" fill="none" stroke="rgb(165, 42, 42)" stroke-width="2" stroke-linejoin="round" filter="url(#fuzzy)" /><polyline points="-61.94,-61.41 -64.11,-58.21 -65.77,-55.66 -67.41,-53.17 -69.09,-50.66 -70.73,-48.13 -72.25,-45.6 -73.61,-43.09 -74.81,-40.62 -75.88,-38.17 -76.88,-35.71 -77.85,-33.23 -78.82,-30.7 -79.79,-28.1 -80.77,-25.42 -81.75,-22.64 -82.69,-19.76 -83.59,-16.85 -84.42,-13.94 -85.14,-11.02 -85.72,-7.97 -86.17,-4.76 -86.42,-2.08" fill="none" stroke="rgb(165, 42, 42)" stroke-width="2" stroke-linejoin="round" filter="url(#fuzzy)" /><polyline points="-63.17,-59.23 -65.81,-56.04 -70.69,-53.39 -79.55,-50.97 -90.19,-48.59 -99.2,-46.21 -105.05,-43.81 -108.23,-41.39 -110.02,-38.91 -111.36,-36.41 -112.91,-33.88 -115.28,-31.34 -119.17,-28.79 -125.03,-26.23 -132.68,-23.66 -141.22,-21.06 -149.34,-18.4 -156.02,-15.64 -160.9,-12.8 -164.14,-9.92 -165.98,-7.14 -167.4,-4.62 -172.48,-2.31" fill="none" stroke="rgb(165, 42, 42)" stroke-width="2" stroke-linejoin="round" filter="url(#fuzzy)" /><polyline points="-63.17,-59.23 -65.76,-56 -68.09,-53.31 -71.16,-50.85 -74.96,-48.42 -78.75,-45.99 -81.82,-43.55 -83.9,-41.06 -85.16,-38.54 -85.99,-35.99 -86.72,-33.42 -87.53,-30.83 -88.36,-28.22 -89.12,-25.59 -89.73,-22.93 -90.22,-20.23 -90.75,-17.47 -91.5,-14.67 -92.62,-11.83 -94.11,-8.95 -95.89,-6.05 -97.78,-3.14 -99.62,-0.23 -101.29,2.67 -102.77,5.52 -104.1,8.32 -105.35,11.06 -106.53,13.76 -107.55,16.44 -108.22,19.15 -108.44,21.92 -108.39,24.73 -108.52,27.55 -109.16,30.33 -109.8,32.87 -110.34,34.72" fill="none" stroke="rgb(165, 42, 42)" stroke-width="2" stroke-linejoin="round" filter="url(#fuzzy)" /><polyline points="-64.96,-57.06 -66.61,-55.39 -70.61,-52.97 -75.91,-50.42 -80.8,-47.85 -84.4,-45.28 -86.72,-42.74 -88.17,-40.23 -89.18,-37.73 -90.05,-35.21 -90.89,-32.66 -91.77,-30.05 -92.69,-27.36 -93.71,-24.6 -94.88,-21.77 -96.19,-18.89 -97.55,-15.97 -98.79,-13.05 -99.76,-10.13 -100.42,-7.24 -100.83,-4.38 -101.19,-1.54 -101.76,1.29 -102.7,4.11 -104.06,6.95 -105.66,9.78 -107.24,12.59 -108.54,15.38 -109.45,18.17 -110.1,21.03 -110.61,24 -110.88,26.98 -110.93,29.66 -112.81,31.51" fill="none" stroke="rgb(165, 42, 42)" stroke-width="2" stroke-linejoin="round" filter="url(#fuzzy)" /><polyline points="-65.58,-55.72 -67.43,-53.02 -69,-50.76 -70.46,-48.4 -71.73,-46 -72.85,-43.58 -73.88,-41.12 -74.88,-38.62 -75.87,-36.08 -76.86,-33.52 -77.83,-30.95 -78.78,-28.37 -79.64,-25.77 -80.41,-23.14 -81.05,-20.47 -81.59,-17.75 -82.05,-14.97 -82.43,-12.14 -82.78,-9.27 -83.09,-6.39 -83.38,-3.48 -83.63,-0.56 -83.82,2.37 -83.92,5.28 -83.94,8.1 -83.88,10.77 -83.77,13.24 -83.6,15.66 -83.25,18.34" fill="none" stroke="rgb(165, 42, 42)" stroke-width="2" stroke-linejoin="round" filter="url(#fuzzy)" /><polyline points="79.39,-21.75 86.45,-19.81 91.49,-17.38 92.12,-14.76 91.97,-12.1 93.03,-9.37 95.15,-6.55 97.27,-3.64 98.62,-0.71 99.04,2.18 98.85,5.02 98.45,7.83 98.11,10.62 97.95,13.42 98.01,16.2 98.36,18.96 99.03,21.69 99.97,24.4 101.01,27.1 102,29.76 102.91,32.38 103.82,34.97 104.72,37.59 105.33,40.34 105.4,43.13 105.88,45.51 109.4,46.74" fill="none" stroke="rgb(165, 42, 42)" stroke-width="2" stroke-linejoin="round" filter="url(#fuzzy)" /><polyline points="-68.07,-51.86 -68.84,-50.68 -70.51,-48.32 -72.62,-45.87 -74.68,-43.43 -76.42,-40.96 -77.88,-38.43 -79.22,-35.87 -80.62,-33.29 -82.25,-30.7 -84.26,-28.1 -86.79,-25.47 -89.84,-22.81 -93.18,-20.11 -96.47,-17.36 -99.32,-14.55 -101.49,-11.71 -102.94,-8.83 -103.81,-5.93 -104.3,-3.02 -104.58,-0.11 -104.74,2.78 -104.91,5.62 -105.25,8.42 -105.96,11.16 -107.16,13.86 -108.83,16.55 -110.79,19.26 -112.78,22.02 -114.58,24.82 -116.16,27.63 -117.68,30.41 -119.23,33.16 -120.26,36 -119.62,39.76" fill="none" stroke="rgb(165, 42, 42)" stroke-width="2" stroke-linejoin="round" filter="url(#fuzzy)" /><polyline points="-68.07,-51.86 -69.89,-50.7 -72.03,-48.36 -74.13,-45.93 -76.37,-43.51 -79.47,-41.06 -84.11,-38.56 -90.39,-36.02 -97.69,-33.46 -105,-30.89 -111.39,-28.31 -116.35,-25.71 -119.85,-23.09 -122.2,-20.43 -123.79,-17.71 -124.87,-14.93 -125.56,-12.1 -125.99,-9.24 -126.46,-6.35 -127.42,-3.45 -129.36,-0.53 -132.44,2.39 -136.42,5.3 -140.68,8.12 -144.69,10.78 -148.23,13.25 -150.7,15.67 -150.37,18.34" fill="none" stroke="rgb(165, 42, 42)" stroke-width="2" stroke-linejoin="round" filter="url(#fuzzy)" /><polyline points="-67.75,-52.39 -71.04,-50.11 -74.52,-47.68 -81.92,-45.1 -91.83,-42.53 -101.07,-40.03 -107.65,-37.54 -111.39,-35.04 -113.25,-32.48 -114.45,-29.86 -115.91,-27.16 -118.08,-24.39 -120.93,-21.54 -124.14,-18.64 -127.22,-15.72 -129.8,-12.79 -131.71,-9.88 -133.05,-6.99 -134.08,-4.12 -135.05,-1.27 -136.05,1.56 -137.07,4.4 -138,7.23 -138.78,10.06 -139.47,12.88 -140.27,15.7 -141.5,18.52 -143.44,21.34 -146.24,24.15 -149.69,26.91 -153.24,29.56 -156.23,32.08 -158.49,34.53 -160.52,37.07 -161.84,39.9 -158.56,43.11" fill="none" stroke="rgb(165, 42, 42)" stroke-width="2" stroke-linejoin="round" filter="url(#fuzzy)" /><polyline points="-68.01,-52.2 -70.17,-48.5 -71.98,-45.79 -74.06,-43.37 -77.07,-40.92 -80.92,-38.4 -84.87,-35.83 -88.14,-33.25 -90.36,-30.66 -91.55,-28.07 -92.08,-25.45 -92.4,-22.8 -92.95,-20.1 -94.05,-17.36 -95.86,-14.56 -98.38,-11.71 -101.43,-8.83 -104.76,-5.93 -108.09,-3.03 -111.24,-0.12 -114.11,2.77 -116.61,5.61 -118.64,8.41 -120.02,11.13 -120.63,13.82 -120.56,16.49 -120.21,19.2 -120.14,21.95 -120.75,24.76 -122.08,27.58 -123.87,30.34 -125.44,32.88 -125.43,34.72" fill="none" stroke="rgb(165, 42, 42)" stroke-width="2" stroke-linejoin="round" filter="url(#fuzzy)" /><polyline points="-68.01,-52.2 -66.73,-48.52 -65.41,-45.84 -65.5,-43.45 -65.97,-41.04 -66.05,-38.54 -65.52,-36 -64.51,-33.45 -63.34,-30.89 -62.29,-28.33 -61.57,-25.75 -61.25,-23.15 -61.24,-20.5 -61.36,-17.8 -61.41,-15.03 -61.18,-12.21 -60.5,-9.35 -59.29,-6.49 -57.59,-3.6 -55.64,-0.69 -53.64,2.26 -51.57,5.23 -49.07,8.15 -45.88,10.79 -41.7,12.77" fill="none" stroke="rgb(165, 42, 42)" stroke-width="2" stroke-linejoin="round" filter="url(#fuzzy)" /><polyline points="-71.47,-45.33 -72.95,-43.26 -74.68,-40.9 -76.57,-38.3 -78.52,-35.68 -80.62,-33.09 -82.78,-30.5 -84.88,-27.91 -86.85,-25.29 -88.69,-22.64 -90.41,-19.95 -92.02,-17.19 -93.56,-14.39 -95.08,-11.53 -96.63,-8.65 -98.17,-5.75 -99.58,-2.84 -100.77,0.06 -101.77,2.94 -102.81,5.78 -104.23,8.57 -106.33,11.3 -109.14,14 -112.26,16.69 -115.02,19.4 -116.82,22.15 -117.51,24.93 -117.63,27.72 -118.08,30.5 -119.47,33.23 -121.37,35.92 -122.47,38.49 -123.29,40.16" fill="none" stroke="rgb(165, 42, 42)" stroke-width="2" stroke-linejoin="round" filter="url(#fuzzy)" /><polyline points="-74.12,-39.65 -90.57,-37.34 -89.34,-34.84 -88.65,-32.26 -90.83,-29.63 -93.68,-26.93 -95.38,-24.14 -95.74,-21.26 -95.59,-18.32 -95.86,-15.37 -96.98,-12.43 -98.88,-9.52 -101.2,-6.64 -103.51,-3.79 -105.48,-0.96 -106.96,1.87 -108.01,4.69 -108.84,7.51 -109.77,10.33 -111,13.15 -112.57,15.96 -114.29,18.76 -115.89,21.57 -117.24,24.35 -118.55,27.07 -120.24,29.72 -122.7,32.29 -125.87,34.83 -129.08,37.44 -131.34,40.17 -132.02,42.95 -131.47,45.44 -132.33,46.8" fill="none" stroke="rgb(165, 42, 42)" stroke-width="2" stroke-linejoin="round" filter="url(#fuzzy)" /><polyline points="-75.3,-36.86 -76.72,-34.99 -81.1,-32.76 -86.96,-30.26 -92.53,-27.67 -97.66,-25.05 -102.52,-22.4 -106.89,-19.7 -110.29,-16.94 -112.45,-14.11 -113.45,-11.24 -113.55,-8.35 -113.1,-5.44 -112.43,-2.53 -111.83,0.37 -111.53,3.25 -111.65,6.08 -112.17,8.86 -112.91,11.6 -113.63,14.32 -114.15,17.02 -114.41,19.74 -114.53,22.49 -114.69,25.25 -114.99,28.01 -115.37,30.76 -115.7,33.46 -115.95,36.11 -116.2,38.71 -116.56,41.27 -116.89,43.83 -116.99,46.45 -117.52,49.01 -119.93,50.63" fill="none" stroke="rgb(165, 42, 42)" stroke-width="2" stroke-linejoin="round" filter="url(#fuzzy)" /><polyline points="-75.3,-36.86 -75.33,-35 -75.64,-32.77 -76.08,-30.28 -76.55,-27.69 -76.71,-25.07 -76.22,-22.43 -74.98,-19.75 -73.21,-16.99 -71.31,-14.17 -69.7,-11.3 -68.7,-8.41 -68.41,-5.51 -68.71,-2.6 -69.35,0.3 -70.02,3.17 -70.45,6 -70.46,8.78 -70.03,11.51 -69.22,14.21 -68.15,16.9 -66.91,19.62 -65.57,22.36 -64.13,25.13 -62.6,27.9 -60.99,30.65 -59.31,33.36 -57.65,36.01 -56.13,38.58 -54.68,41.04 -52.9,43.39 -50.89,45.51" fill="none" stroke="rgb(165, 42, 42)" stroke-width="2" stroke-linejoin="round" filter="url(#fuzzy)" /><polyline points="-75.04,-37.46 -79.5,-34.85 -84.62,-32.25 -88.37,-29.64 -90.51,-26.98 -91.49,-24.22 -92.09,-21.36 -92.97,-18.43 -94.41,-15.48 -96.31,-12.56 -98.31,-9.66 -100,-6.81 -101.13,-3.99 -101.68,-1.19 -101.85,1.59 -101.96,4.39 -102.32,7.21 -103.13,10.01 -104.46,12.79 -106.21,15.54 -108.1,18.3 -109.75,21.14 -110.93,24.09 -111.87,27.05 -113.42,29.68 -115.92,31.51" fill="none" stroke="rgb(165, 42, 42)" stroke-width="2" stroke-linejoin="round" filter="url(#fuzzy)" /><polyline points="-77.74,-29.74 -78.6,-27.33 -79.14,-24.76 -79.58,-22.17 -80.02,-19.51 -80.46,-16.74 -80.86,-13.88 -81.21,-10.98 -81.49,-8.06 -81.71,-5.14 -81.85,-2.23 -81.9,0.68 -81.86,3.55 -81.74,6.38 -81.52,9.16 -81.22,11.9 -80.85,14.62 -80.39,17.33 -79.87,20.05 -79.28,22.8 -78.63,25.55 -77.92,28.3 -77.16,31.02 -76.35,33.71 -75.49,36.36 -74.55,38.96 -73.55,41.51 -72.48,44.02 -71.36,46.46 -70.2,48.83 -68.99,51.12 -67.68,53.41 -66.15,55.85 -64.36,58.5 -62.76,60.97" fill="none" stroke="rgb(165, 42, 42)" stroke-width="2" stroke-linejoin="round" filter="url(#fuzzy)" /><polyline points="77.77,-28 81.16,-25.93 83.53,-23.11 83.6,-20.31 82.92,-17.59 82.47,-14.89 82.58,-12.18 83.23,-9.41 84.29,-6.57 85.57,-3.68 86.86,-0.77 87.93,2.13 88.63,4.99 88.9,7.83 88.78,10.65 88.39,13.46 87.9,16.25 87.41,19.03 87,21.78 86.7,24.5 86.47,27.2 86.29,29.88 86.09,32.54 85.84,35.18 85.55,37.81 85.26,40.45 85.02,43.07 84.81,45.59 84.5,48.03 83.86,50.52 82.63,53.32 80.92,56.62" fill="none" stroke="rgb(165, 42, 42)" stroke-width="2" stroke-linejoin="round" filter="url(#fuzzy)" /><polyline points="77.15,-30.03 78.4,-27.34 79.36,-25.23 80.12,-22.86 80.68,-20.23 81.07,-17.49 81.38,-14.69 81.66,-11.84 81.93,-8.93 82.2,-5.96 82.43,-2.97 82.6,-0.01 82.67,2.89 82.62,5.71 82.45,8.45 82.17,11.16 81.79,13.86 81.33,16.59 80.82,19.36 80.28,22.15 79.7,24.93 79.11,27.68 78.49,30.36 77.84,32.97 77.13,35.53 76.35,38.09 75.48,40.65 74.51,43.22 73.43,45.79 72.21,48.4 70.83,51.17 69.25,53.93" fill="none" stroke="rgb(165, 42, 42)" stroke-width="2" stroke-linejoin="round" filter="url(#fuzzy)" /><polyline points="76.32,-33.33 81.14,-30.24 91.18,-27.69 97.85,-25.35 99.93,-22.91 100.01,-20.32 100.19,-17.61 101.13,-14.84 102.58,-12.01 104.06,-9.12 105.32,-6.16 106.44,-3.18 107.75,-0.22 109.69,2.68 112.62,5.49 116.64,8.22 121.51,10.9 126.66,13.58 131.3,16.29 134.78,19.06 136.86,21.87 137.85,24.7 138.46,27.48 139.46,30.15 141.19,32.69 143.29,35.17 144.9,37.68 146.02,40.34 149.32,42.95" fill="none" stroke="rgb(165, 42, 42)" stroke-width="2" stroke-linejoin="round" filter="url(#fuzzy)" /><polyline points="76.32,-33.33 79.75,-30.25 82,-27.7 82.35,-25.38 82.44,-22.95 83.26,-20.36 85.06,-17.66 87.58,-14.9 90.34,-12.08 92.83,-9.2 94.86,-6.25 96.57,-3.27 98.36,-0.3 100.7,2.6 103.88,5.41 107.95,8.12 112.75,10.78 118.03,13.43 123.61,16.12 129.42,18.88 135.32,21.71 140.95,24.59 145.84,27.41 149.76,30.08 152.87,32.54 155.31,34.8 159.7,36.71" fill="none" stroke="rgb(165, 42, 42)" stroke-width="2" stroke-linejoin="round" filter="url(#fuzzy)" /><polyline points="75.6,-34.95 76.23,-32.85 76.86,-30.33 77.37,-27.89 77.73,-25.52 77.99,-23.08 78.17,-20.52 78.22,-17.85 78.1,-15.12 77.75,-12.33 77.11,-9.47 76.19,-6.54 75.07,-3.56 73.89,-0.57 72.86,2.35 72.11,5.14 71.64,7.82 71.26,10.42 70.67,13.01 69.64,15.62 68.24,18.31 66.74,21.15 65.25,24.42 63.73,28.64" fill="none" stroke="rgb(165, 42, 42)" stroke-width="2" stroke-linejoin="round" filter="url(#fuzzy)" /><polyline points="74.46,-38.78 79.83,-35.7 86.79,-33.02 92.61,-30.45 95.74,-27.99 96.03,-25.56 95,-23.08 94.54,-20.5 95.81,-17.83 98.89,-15.09 103.1,-12.29 107.6,-9.41 111.73,-6.47 115.18,-3.5 117.9,-0.52 120.08,2.39 121.96,5.2 123.77,7.91 125.61,10.55 127.51,13.19 129.54,15.86 131.91,18.61 134.68,21.48 137.57,24.45 140.27,27.4 143.66,29.99 148.6,32.03" fill="none" stroke="rgb(165, 42, 42)" stroke-width="2" stroke-linejoin="round" filter="url(#fuzzy)" /><polyline points="73.66,-40.16 75.49,-37.3 80.05,-34.89 86.73,-32.27 92.24,-29.45 94.95,-26.57 95.66,-23.71 96.24,-20.91 98.28,-18.15 102.41,-15.43 108.36,-12.71 115.17,-9.96 121.67,-7.15 126.85,-4.29 130.17,-1.4 131.62,1.49 131.62,4.33 130.84,7.15 130.01,9.95 129.78,12.77 130.69,15.58 133.04,18.35 136.79,21.02 141.29,23.67 145.27,26.51 147.58,29.85 150.91,33.53" fill="none" stroke="rgb(165, 42, 42)" stroke-width="2" stroke-linejoin="round" filter="url(#fuzzy)" /><polyline points="72.55,-43.25 82.09,-40.21 81.25,-37.89 80.12,-35.53 80.38,-33.07 81.56,-30.6 83.15,-28.13 84.94,-25.65 86.86,-23.13 88.79,-20.53 90.54,-17.86 91.98,-15.11 93.06,-12.29 93.9,-9.41 94.7,-6.47 95.72,-3.5 97.2,-0.54 99.25,2.37 101.86,5.19 104.78,7.94 107.65,10.63 109.98,13.31 111.4,16.02 111.79,18.79 111.38,21.63 110.67,24.51 110.23,27.35 110.48,30.04 111.51,32.51 113.35,34.79 116.66,36.71" fill="none" stroke="rgb(165, 42, 42)" stroke-width="2" stroke-linejoin="round" filter="url(#fuzzy)" /><polyline points="72.55,-43.25 76.4,-40.21 79.28,-37.9 84.03,-35.55 90.5,-33.1 97.13,-30.63 102.18,-28.16 104.69,-25.7 104.86,-23.18 103.85,-20.6 103.09,-17.93 103.76,-15.2 106.33,-12.39 110.59,-9.51 115.89,-6.58 121.55,-3.6 127.03,-0.63 131.96,2.28 136.08,5.1 139.09,7.83 140.8,10.49 141.37,13.14 141.52,15.82 142.38,18.58 144.88,21.45 149.06,24.42 154.1,27.38 159.08,29.99 164.32,32.03" fill="none" stroke="rgb(165, 42, 42)" stroke-width="2" stroke-linejoin="round" filter="url(#fuzzy)" /><polyline points="70.32,-47.65 72.84,-45.66 76.51,-43.06 80.26,-40.38 84.16,-37.76 87.92,-35.13 90.91,-32.44 92.76,-29.67 93.52,-26.85 93.62,-24.03 93.6,-21.23 93.92,-18.46 94.81,-15.72 96.26,-12.99 98.1,-10.23 100.14,-7.42 102.31,-4.56 104.7,-1.66 107.53,1.23 110.98,4.08 115.01,6.89 119.27,9.69 123.22,12.54 126.48,15.41 129.27,18.22 132.49,20.77 136.65,22.94 138.78,24.82" fill="none" stroke="rgb(165, 42, 42)" stroke-width="2" stroke-linejoin="round" filter="url(#fuzzy)" /><polyline points="68.35,-51.32 69.66,-49.17 71.61,-46.26 74.37,-43.41 78.03,-40.75 82.38,-38.23 87.01,-35.75 91.62,-33.29 96.24,-30.82 101.08,-28.35 106.36,-25.86 112.01,-23.32 117.71,-20.73 123.04,-18.06 127.67,-15.33 131.52,-12.52 134.76,-9.64 137.69,-6.71 140.55,-3.74 143.39,-0.77 146.04,2.15 148.22,4.98 149.74,7.73 150.63,10.41 151.18,13.07 151.89,15.76 153.39,18.53 156.1,21.41 159.88,24.39 163.69,27.36 166.45,29.98 169.26,32.03" fill="none" stroke="rgb(165, 42, 42)" stroke-width="2" stroke-linejoin="round" filter="url(#fuzzy)" /><polyline points="60.75,-62.29 63.11,-59.3 66.07,-56.7 70.58,-54.43 75.78,-52.35 80.16,-50.28 83.08,-48.1 84.89,-45.77 86.21,-43.32 87.34,-40.77 88.28,-38.16 88.97,-35.5 89.48,-32.78 90.07,-30.03 91,-27.23 92.45,-24.42 94.4,-21.62 96.75,-18.83 99.38,-16.07 102.23,-13.3 105.35,-10.52 108.76,-7.7 112.42,-4.83 116.11,-1.92 119.58,0.98 122.68,3.85 125.45,6.67 128,9.49 130.3,12.37 132.12,15.32 133.38,18.23 134.66,20.86 136.79,22.84" fill="none" stroke="rgb(165, 42, 42)" stroke-width="2" stroke-linejoin="round" filter="url(#fuzzy)" /><polyline points="58.96,-64.55 62.52,-61.41 65.8,-59.17 69.38,-56.87 74.14,-54.42 80.5,-51.89 87.87,-49.29 94.92,-46.65 100.39,-44.01 103.87,-41.41 106.01,-38.85 108.01,-36.34 110.98,-33.86 115.42,-31.4 121.13,-28.94 127.49,-26.48 133.91,-23.98 140.07,-21.43 145.91,-18.81 151.44,-16.12 156.51,-13.38 160.89,-10.56 164.47,-7.66 167.5,-4.61 170.47,-1.38 173.95,1.95 178.81,5.04 185.81,6.62" fill="none" stroke="rgb(165, 42, 42)" stroke-width="2" stroke-linejoin="round" filter="url(#fuzzy)" /><polyline points="58.96,-64.55 66.57,-61.41 71.61,-59.17 76.79,-56.87 82.38,-54.42 87.59,-51.89 92.3,-49.29 96.81,-46.65 101.26,-44.01 105.49,-41.41 109.4,-38.85 113.19,-36.34 117.37,-33.86 122.33,-31.4 128.03,-28.94 133.83,-26.48 138.77,-23.98 142,-21.43 143.33,-18.81 143.45,-16.12 143.75,-13.38 145.79,-10.56 150.47,-7.66 157.28,-4.61 164.18,-1.38 168.76,1.95 171.14,5.04 178.4,6.62" fill="none" stroke="rgb(165, 42, 42)" stroke-width="2" stroke-linejoin="round" filter="url(#fuzzy)" /><polyline points="58.96,-64.55 66.15,-61.42 68.8,-59.18 70.9,-56.89 72.63,-54.46 74.16,-51.93 75.83,-49.34 77.87,-46.71 80.36,-44.07 83.25,-41.47 86.43,-38.92 89.68,-36.42 92.71,-33.95 95.31,-31.5 97.54,-29.05 99.64,-26.61 102,-24.13 104.8,-21.6 107.98,-18.99 111.18,-16.31 113.98,-13.59 116.18,-10.84 117.92,-8.01 119.82,-5.05 122.49,-1.93 124.95,1.45" fill="none" stroke="rgb(165, 42, 42)" stroke-width="2" stroke-linejoin="round" filter="url(#fuzzy)" /><polyline points="58.48,-65.24 60.24,-63.59 64.23,-61.41 68.84,-59.18 72.81,-56.85 76.34,-54.4 80.24,-51.86 84.96,-49.26 90.3,-46.62 95.66,-43.98 100.32,-41.37 103.78,-38.8 105.89,-36.27 106.93,-33.77 107.43,-31.29 108.02,-28.81 109.26,-26.31 111.44,-23.77 114.53,-21.19 118.17,-18.54 121.81,-15.83 124.94,-13.04 127.37,-10.18 129.3,-7.24 131.3,-4.24 133.98,-1.2 137.64,1.79 142.08,4.65 146.69,7.35 150.86,9.94 154.37,12.58 157.07,15.24 159.18,17.38" fill="none" stroke="rgb(165, 42, 42)" stroke-width="2" stroke-linejoin="round" filter="url(#fuzzy)" /><polyline points="56.15,-67.79 59.86,-66.25 63.64,-64.23 66.94,-61.95 70.16,-59.55 73.13,-57.19 75.55,-54.93 77.38,-52.77 78.85,-50.64 80.3,-48.46 81.93,-46.18 83.76,-43.78 85.7,-41.29 87.73,-38.74 89.94,-36.13 92.5,-33.46 95.48,-30.73 98.78,-27.95 102.15,-25.13 105.38,-22.31 108.37,-19.52 111.18,-16.78 113.78,-14.12 115.98,-11.58 117.51,-9.22 118.31,-6.65" fill="none" stroke="rgb(165, 42, 42)" stroke-width="2" stroke-linejoin="round" filter="url(#fuzzy)" /><polyline points="53.92,-70.21 67.78,-67.6 80.32,-65.57 85.04,-63.6 86.18,-61.54 87.62,-59.37 90.33,-57.09 93.67,-54.7 96.94,-52.22 100.01,-49.67 103.05,-47.06 106.25,-44.45 109.6,-41.85 113.04,-39.3 116.65,-36.79 120.73,-34.32 125.66,-31.87 131.51,-29.44 137.73,-27.03 143.33,-24.61 147.52,-22.11 150.73,-19.48 154.83,-16.72 162.26,-13.87 174.57,-10.81" fill="none" stroke="rgb(165, 42, 42)" stroke-width="2" stroke-linejoin="round" filter="url(#fuzzy)" /><polyline points="52.7,-71.44 54.09,-69.69 55.89,-67.64 57.6,-65.62 59.21,-63.59 60.72,-61.49 62.1,-59.3 63.3,-57 64.33,-54.59 65.22,-52.09 66.02,-49.53 66.75,-46.92 67.41,-44.3 67.98,-41.7 68.47,-39.13 68.9,-36.6 69.32,-34.1 69.78,-31.62 70.29,-29.15 70.8,-26.68 71.22,-24.17 71.45,-21.62 71.38,-19 71.02,-16.31 70.52,-13.57 70.06,-10.76 69.81,-7.87 69.72,-4.83 69.5,-1.53 68.72,2.19 67.61,6.71" fill="none" stroke="rgb(165, 42, 42)" stroke-width="2" stroke-linejoin="round" filter="url(#fuzzy)" /><polyline points="50.64,-73.45 53.56,-70.74 55.9,-68.48 57.91,-66.37 60.02,-64.21 62.47,-61.94 65.24,-59.61 68.09,-57.29 70.71,-55.03 72.91,-52.82 74.66,-50.63 76.07,-48.39 77.3,-46.07 78.46,-43.66 79.6,-41.16 80.74,-38.59 81.91,-35.96 83.16,-33.26 84.55,-30.52 86.17,-27.73 88.05,-24.92 90.15,-22.11 92.34,-19.33 94.45,-16.58 96.29,-13.86 97.8,-11.14 99.05,-8.37 100.23,-5.47 101.48,-2.38 102.76,0.83 103.86,3.8 104.08,5.71" fill="none" stroke="rgb(165, 42, 42)" stroke-width="2" stroke-linejoin="round" filter="url(#fuzzy)" /><polyline points="50.64,-73.45 53.42,-70.74 55.9,-68.49 58.36,-66.39 60.91,-64.23 63.5,-61.97 65.98,-59.64 68.18,-57.32 70.04,-55.07 71.61,-52.87 72.96,-50.68 74.23,-48.46 75.53,-46.15 76.96,-43.75 78.59,-41.26 80.4,-38.7 82.3,-36.07 84.18,-33.39 85.92,-30.65 87.45,-27.86 88.83,-25.05 90.17,-22.23 91.59,-19.44 93.11,-16.7 94.63,-14.02 95.95,-11.37 96.91,-8.71 97.57,-5.89 98.18,-2.71 99.4,0.86" fill="none" stroke="rgb(165, 42, 42)" stroke-width="2" stroke-linejoin="round" filter="url(#fuzzy)" /><polyline points="50.27,-73.63 51.83,-72.54 54.51,-70.63 57.93,-68.57 61.57,-66.48 65.11,-64.33 68.53,-62.08 71.89,-59.78 75.25,-57.48 78.67,-55.23 82.12,-53.04 85.47,-50.87 88.57,-48.67 91.34,-46.39 93.93,-44.01 96.67,-41.54 99.95,-38.99 104.05,-36.39 108.98,-33.74 114.5,-31.01 120.19,-28.22 125.52,-25.37 130.04,-22.53 133.53,-19.73 136.29,-16.95 139.63,-14.03 144.95,-10.73" fill="none" stroke="rgb(165, 42, 42)" stroke-width="2" stroke-linejoin="round" filter="url(#fuzzy)" /><polyline points="49.98,-73.94 51.21,-72.83 53.46,-71.36 56.24,-69.61 58.97,-67.72 61.33,-65.75 63.25,-63.73 64.87,-61.63 66.38,-59.45 68.01,-57.17 69.93,-54.79 72.15,-52.31 74.57,-49.77 77.05,-47.18 79.47,-44.56 81.77,-41.96 84,-39.4 86.26,-36.87 88.61,-34.38 91.06,-31.91 93.55,-29.46 96.04,-27.01 98.52,-24.56 101.08,-22.03 103.81,-19.41 106.66,-16.7 109.37,-13.99 111.71,-11.47 115.25,-9.65" fill="none" stroke="rgb(165, 42, 42)" stroke-width="2" stroke-linejoin="round" filter="url(#fuzzy)" /><polyline points="48.45,-75.21 49.97,-73.93 51.62,-72.43 53.51,-70.61 55.47,-68.64 57.37,-66.58 59.2,-64.44 60.97,-62.21 62.7,-59.92 64.37,-57.64 65.94,-55.39 67.4,-53.21 68.77,-51.06 70.08,-48.89 71.37,-46.63 72.65,-44.27 73.93,-41.81 75.18,-39.27 76.34,-36.7 77.39,-34.09 78.36,-31.39 79.3,-28.57 80.27,-25.61 81.25,-22.6 81.94,-20.09" fill="none" stroke="rgb(165, 42, 42)" stroke-width="2" stroke-linejoin="round" filter="url(#fuzzy)" /><polyline points="46.75,-76.69 50.68,-74.6 52.79,-72.99 55.41,-71.37 58.47,-69.62 61.35,-67.75 63.81,-65.8 66.04,-63.78 68.32,-61.69 70.77,-59.51 73.43,-57.24 76.3,-54.86 79.47,-52.4 83.09,-49.86 87.31,-47.27 92.17,-44.66 97.49,-42.06 102.89,-39.49 107.92,-36.96 112.29,-34.46 115.96,-31.99 119.17,-29.55 122.2,-27.12 125.13,-24.68 127.79,-22.17 130.26,-19.53 133.23,-16.76 137.26,-13.89 139.94,-10.81" fill="none" stroke="rgb(165, 42, 42)" stroke-width="2" stroke-linejoin="round" filter="url(#fuzzy)" /><polyline points="46.45,-76.59 49.16,-75.25 51.2,-73.89 53.28,-72.31 55.65,-70.49 58.43,-68.52 61.62,-66.44 65.14,-64.27 68.92,-62.03 72.89,-59.74 76.96,-57.45 80.93,-55.19 84.56,-52.96 87.7,-50.72 90.31,-48.45 92.57,-46.12 94.72,-43.7 96.99,-41.21 99.49,-38.64 102.22,-36 105.07,-33.3 107.92,-30.56 110.67,-27.77 113.28,-24.96 115.71,-22.15 117.92,-19.35 119.88,-16.59 121.65,-13.84 123.38,-11.09 125.32,-8.29 127.66,-5.38 130.25,-2.35 132.64,0.71 134.56,3.59 136.41,5.99 139.8,8.06" fill="none" stroke="rgb(165, 42, 42)" stroke-width="2" stroke-linejoin="round" filter="url(#fuzzy)" /><polyline points="38.47,-82.34 44.35,-80.79 49.04,-79.01 52.41,-77.27 55.59,-75.62 59.25,-73.99 63.16,-72.29 66.62,-70.49 69.11,-68.55 70.64,-66.51 71.69,-64.37 72.86,-62.16 74.59,-59.9 77.08,-57.63 80.33,-55.38 84.25,-53.13 88.73,-50.89 93.68,-48.61 99.05,-46.28 104.69,-43.87 110.4,-41.38 115.84,-38.82 120.66,-36.19 124.58,-33.5 127.54,-30.75 129.81,-27.96 131.89,-25.14 134.42,-22.32 137.85,-19.52 142.36,-16.76 147.83,-14.03 153.94,-11.33 160.21,-8.58 166.01,-5.68 170.63,-2.49 173.9,1.03 177.37,4.76" fill="none" stroke="rgb(165, 42, 42)" stroke-width="2" stroke-linejoin="round" filter="url(#fuzzy)" /><polyline points="32.03,-85.65 34.57,-84.53 36.94,-83.3 39.35,-82 42.08,-80.57 45.29,-79.02 48.92,-77.42 52.64,-75.79 56.06,-74.14 58.9,-72.42 61.12,-70.62 62.91,-68.71 64.59,-66.7 66.47,-64.59 68.77,-62.41 71.51,-60.17 74.57,-57.91 77.73,-55.67 80.77,-53.44 83.57,-51.22 86.12,-48.97 88.52,-46.67 90.9,-44.29 93.36,-41.82 95.93,-39.28 98.66,-36.67 101.59,-34.01 104.75,-31.27 108.08,-28.45 111.42,-25.57 114.6,-22.69 117.56,-19.91 120.23,-17.24 121.74,-14.38" fill="none" stroke="rgb(165, 42, 42)" stroke-width="2" stroke-linejoin="round" filter="url(#fuzzy)" /><polyline points="30.32,-86.67 34.67,-85.06 39.64,-83.57 44.57,-82.24 48.34,-80.94 50.91,-79.58 52.98,-78.14 55.35,-76.64 58.48,-75.1 62.57,-73.51 67.64,-71.88 73.62,-70.17 80.36,-68.39 87.63,-66.53 95.08,-64.6 102.19,-62.61 108.49,-60.53 113.79,-58.36 118.52,-56.09 123.41,-53.73 129.06,-51.34 136.11,-48.82 148.42,-45.3" fill="none" stroke="rgb(165, 42, 42)" stroke-width="2" stroke-linejoin="round" filter="url(#fuzzy)" /><polyline points="17.94,-91.26 20.62,-90.32 23.1,-89.44 25.45,-88.56 27.85,-87.56 30.34,-86.42 32.84,-85.17 35.25,-83.87 37.53,-82.54 39.68,-81.19 41.73,-79.8 43.69,-78.37 45.59,-76.89 47.4,-75.37 49.15,-73.79 50.84,-72.17 52.5,-70.49 54.12,-68.72 55.73,-66.88 57.32,-64.96 58.88,-63 60.41,-60.99 61.89,-58.9 63.36,-56.51 65.06,-53.2" fill="none" stroke="rgb(165, 42, 42)" stroke-width="2" stroke-linejoin="round" filter="url(#fuzzy)" /><polyline points="17.94,-91.26 21.73,-90.31 24.79,-89.42 27.53,-88.52 30.44,-87.49 33.89,-86.33 37.98,-85.07 42.63,-83.75 47.68,-82.4 52.98,-81.02 58.36,-79.6 63.56,-78.14 68.33,-76.63 72.49,-75.07 76.06,-73.45 79.23,-71.78 82.29,-70.03 85.54,-68.21 89.17,-66.32 93.19,-64.35 97.51,-62.3 102.03,-60.16 106.69,-57.92 111.51,-55.6 116.58,-53.17 121.99,-50.65 127.7,-48.04 133.53,-45.38 139.22,-42.72 144.44,-40.13 148.89,-37.65 152.48,-35.24 155.92,-32.8 161.24,-30.03" fill="none" stroke="rgb(165, 42, 42)" stroke-width="2" stroke-linejoin="round" filter="url(#fuzzy)" /><polyline points="17.94,-91.26 21.42,-90.32 24.49,-89.45 26.85,-88.57 29.13,-87.58 31.71,-86.45 34.71,-85.21 38.12,-83.91 41.81,-82.58 45.56,-81.24 49.14,-79.87 52.34,-78.45 55.12,-76.98 57.5,-75.46 59.62,-73.91 61.7,-72.31 63.92,-70.64 66.42,-68.89 69.29,-67.05 72.56,-65.14 76.28,-63.14 80.17,-61.14 82.87,-59.94" fill="none" stroke="rgb(165, 42, 42)" stroke-width="2" stroke-linejoin="round" filter="url(#fuzzy)" /><polyline points="16.54,-91.61 18.54,-91.06 21.08,-90.29 23.78,-89.45 26.69,-88.55 29.77,-87.54 32.83,-86.41 35.68,-85.17 38.26,-83.88 40.67,-82.55 43.12,-81.19 45.78,-79.8 48.71,-78.36 51.82,-76.88 54.97,-75.35 57.99,-73.77 60.81,-72.14 63.42,-70.44 65.86,-68.67 68.21,-66.82 70.55,-64.89 73.02,-62.91 75.71,-60.86 78.63,-58.7 81.62,-56.35 84.46,-53.73 87.73,-51.32" fill="none" stroke="rgb(165, 42, 42)" stroke-width="2" stroke-linejoin="round" filter="url(#fuzzy)" /><polyline points="14.15,-91.74 17.37,-91.48 20.35,-90.95 23,-90.24 25.45,-89.43 27.85,-88.52 30.26,-87.51 32.74,-86.38 35.32,-85.15 38.04,-83.86 40.91,-82.53 43.91,-81.17 46.97,-79.77 50.03,-78.32 53.03,-76.83 56.01,-75.29 59.07,-73.7 62.34,-72.05 65.91,-70.34 69.82,-68.55 74,-66.69 78.29,-64.76 82.47,-62.75 86.38,-60.66 89.96,-58.47 93.31,-56.18 96.59,-53.81 99.92,-51.4 103.35,-48.85 106.85,-45.3" fill="none" stroke="rgb(165, 42, 42)" stroke-width="2" stroke-linejoin="round" filter="url(#fuzzy)" /><polyline points="9.94,-92.79 14.08,-92.47 16.72,-92.01 19.61,-91.51 22.69,-90.91 25.86,-90.23 29.19,-89.44 32.72,-88.55 36.37,-87.55 39.99,-86.45 43.48,-85.25 46.88,-83.98 50.3,-82.67 53.92,-81.32 57.82,-79.93 62.01,-78.5 66.42,-77.02 70.99,-75.5 75.79,-73.93 80.9,-72.31 86.39,-70.63 92.24,-68.86 98.5,-67.02 105.49,-65.1 113.75,-63.13 123.41,-61.17 133.42,-59.31 142.09,-57.38" fill="none" stroke="rgb(165, 42, 42)" stroke-width="2" stroke-linejoin="round" filter="url(#fuzzy)" /><polyline points="5.59,-93.36 7.99,-92.96 10.49,-92.59 13,-92.15 15.49,-91.62 17.98,-91.01 20.48,-90.32 22.96,-89.55 25.42,-88.69 27.81,-87.76 30.13,-86.78 32.4,-85.73 34.63,-84.61 36.85,-83.42 39.06,-82.14 41.27,-80.78 43.47,-79.34 45.64,-77.82 47.78,-76.25 49.89,-74.62 51.99,-72.93 54.09,-71.17 56.19,-69.32 58.29,-67.36 60.39,-65.3 62.47,-63.13 64.49,-60.88 66.45,-58.58 68.3,-56.29 70.02,-54.07 71.59,-51.98 73.06,-49.97 74.49,-47.89 75.99,-45.56 77.8,-42.65" fill="none" stroke="rgb(165, 42, 42)" stroke-width="2" stroke-linejoin="round" filter="url(#fuzzy)" /><polyline points="4.77,-93.27 7.17,-93 9.44,-92.73 11.81,-92.38 14.3,-91.96 16.86,-91.45 19.41,-90.84 21.98,-90.15 24.61,-89.35 27.39,-88.45 30.31,-87.44 33.36,-86.33 36.45,-85.13 39.5,-83.87 42.45,-82.55 45.26,-81.18 47.95,-79.77 50.52,-78.31 53.04,-76.81 55.52,-75.26 58.01,-73.65 60.51,-71.98 63.01,-70.25 65.44,-68.45 67.77,-66.57 69.98,-64.61 72.1,-62.58 74.2,-60.46 76.35,-58.25 78.56,-55.93 80.84,-53.52 83.17,-51 85.66,-48.37 88.45,-45.61 91.55,-42.79 94.55,-40.21 96.51,-38.78" fill="none" stroke="rgb(165, 42, 42)" stroke-width="2" stroke-linejoin="round" filter="url(#fuzzy)" /><polyline points="4.77,-93.27 7.21,-93 9.89,-92.73 12.88,-92.39 15.91,-91.97 18.82,-91.47 21.66,-90.88 24.49,-90.19 27.34,-89.41 30.24,-88.52 33.22,-87.53 36.3,-86.43 39.48,-85.25 42.7,-83.99 45.94,-82.68 49.2,-81.33 52.5,-79.93 55.87,-78.5 59.29,-77.02 62.77,-75.49 66.36,-73.91 70.21,-72.28 74.55,-70.58 79.54,-68.81 85.19,-66.96 91.24,-65.04 97.3,-63.06 103.11,-61.04 108.83,-58.93 114.96,-56.53 121.59,-53.2" fill="none" stroke="rgb(165, 42, 42)" stroke-width="2" stroke-linejoin="round" filter="url(#fuzzy)" /><polyline points="2.6,-93.26 5.39,-93.17 8.47,-92.92 12.04,-92.57 15.83,-92.13 19.55,-91.61 22.94,-91.01 25.88,-90.32 28.44,-89.55 30.78,-88.71 33.04,-87.79 35.31,-86.81 37.6,-85.77 39.92,-84.66 42.3,-83.47 44.8,-82.2 47.51,-80.85 50.44,-79.41 53.58,-77.91 56.86,-76.34 60.16,-74.72 63.39,-73.05 66.48,-71.3 69.43,-69.46 72.33,-67.52 75.36,-65.47 78.72,-63.3 82.54,-61.03 86.72,-58.67 90.96,-56.31 94.91,-54.08 98.47,-52.08 101.95,-50.23 105.59,-47.65" fill="none" stroke="rgb(165, 42, 42)" stroke-width="2" stroke-linejoin="round" filter="url(#fuzzy)" />
    </g>
    
        <g id="pointNose">
          <g id="rightNose"><circle r="2.9859999999999998" cx="11.464" cy="2.912" stroke="black" fill="none" stroke-width="1.0" filter="url(#fuzzy)" /><circle r="2.838" cx="12.004" cy="3.3760000000000003" stroke="black" fill="none" stroke-width="1.0" filter="url(#fuzzy)" /><circle r="2.766" cx="12.904" cy="2.6639999999999997" stroke="black" fill="none" stroke-width="1.0" filter="url(#fuzzy)" /><circle r="2.8200000000000003" cx="12.824" cy="4.876" stroke="black" fill="none" stroke-width="1.0" filter="url(#fuzzy)" /><circle r="2.072" cx="13.208" cy="3.1479999999999997" stroke="black" fill="none" stroke-width="1.0" filter="url(#fuzzy)" /><circle r="2.968" cx="12.328" cy="5.056" stroke="black" fill="none" stroke-width="1.0" filter="url(#fuzzy)" /><circle r="1.08" cx="14.332" cy="5.564" stroke="black" fill="none" stroke-width="1.0" filter="url(#fuzzy)" /><circle r="1.166" cx="11.764" cy="4.568" stroke="black" fill="none" stroke-width="1.0" filter="url(#fuzzy)" /><circle r="1.46" cx="13.652000000000001" cy="2.404" stroke="black" fill="none" stroke-width="1.0" filter="url(#fuzzy)" /><circle r="2.1479999999999997" cx="11.204" cy="2.08" stroke="black" fill="none" stroke-width="1.0" filter="url(#fuzzy)" /></g>
          <g id="leftNose"><circle r="1.482" cx="-11.854" cy="7.654" stroke="black" fill="none" stroke-width="1.0" filter="url(#fuzzy)" /><circle r="1.634" cx="-10.766" cy="7.998000000000001" stroke="black" fill="none" stroke-width="1.0" filter="url(#fuzzy)" /><circle r="2.134" cx="-11.518" cy="7.506" stroke="black" fill="none" stroke-width="1.0" filter="url(#fuzzy)" /><circle r="1.854" cx="-13.458" cy="4.942000000000001" stroke="black" fill="none" stroke-width="1.0" filter="url(#fuzzy)" /><circle r="1.418" cx="-10.642" cy="4.7700000000000005" stroke="black" fill="none" stroke-width="1.0" filter="url(#fuzzy)" /><circle r="2.716" cx="-10.338000000000001" cy="7.7620000000000005" stroke="black" fill="none" stroke-width="1.0" filter="url(#fuzzy)" /><circle r="1.32" cx="-10.306000000000001" cy="7.898" stroke="black" fill="none" stroke-width="1.0" filter="url(#fuzzy)" /><circle r="2.9699999999999998" cx="-10.142" cy="6.2780000000000005" stroke="black" fill="none" stroke-width="1.0" filter="url(#fuzzy)" /><circle r="2.366" cx="-11.986" cy="4.138000000000001" stroke="black" fill="none" stroke-width="1.0" filter="url(#fuzzy)" /><circle r="2.278" cx="-13.062" cy="5.254000000000001" stroke="black" fill="none" stroke-width="1.0" filter="url(#fuzzy)" /></g>
        </g>
      
    <g id="mouth">
      <polyline points="54.39,55.98 54.58,56.9 54.61,56.58 54.02,57.7 53.79,58.27 53.91,57.96 53.93,58.08 53.97,58.33 53.27,59.31 53.34,59.22 53,59.33 52.93,59.67 51.31,60.89 50.94,61.09 50.51,61.3 50.43,61.31 50.36,61.32 49.71,61.81 48.08,62.62 47.41,62.88 48.59,62.29 47.3,62.81 44.88,63.69 44.17,63.92 45.53,63.49 43.21,64.22 43.16,64.15 40.66,64.73 41.61,64.57 39.75,64.92 38.17,65.26 37.06,65.46 38.42,65.22 35.45,65.64 34.9,65.73 35.52,65.65 34.99,65.74 33.5,65.89 32.46,65.99 30.95,66.14 28.84,66.27 28.63,66.27 26.14,66.39 25.14,66.39 24.49,66.41 25.11,66.4 23.31,66.41 22.99,66.42 20.73,66.38 19.51,66.35 18.03,66.29 16.87,66.22 15.29,66.12 14.61,66.07 16.39,66.19 12.66,65.88 13,65.91 11.91,65.8 9.6,65.54 9.45,65.5 9.74,65.54 7.46,65.24 5.72,64.92 5.19,64.85 2.55,64.34 3.01,64.41 1.43,64.06 2.35,64.26 -0.6,63.53 -1.3,63.37 -1.64,63.28 -1.82,63.26 -1.85,63.25 -5.36,62.14 -4.91,62.31 -5.44,62.12 -6.5,61.66 -6.04,61.83 -6.49,61.72 -7.19,61.42 -7.62,61.14 -9.49,60.33 -10.64,59.7 -11.36,59.16 -10.45,59.77 -12.16,58.7 -12.21,58.58 -12.16,58.77 -13.77,57.44 -13.09,57.98 -13.7,57.31 -13.74,57.29 -14.63,56.37 -14.66,56.46 -14.98,55.66 -15.18,55.08 -15.08,55.29 -15.37,54.25 -15.61,54.22 -15.58,54.21 -15.53,53.63 -15.45,53.5 -15.15,52.37 -15.66,53.12 -15.12,52.12 -15,51.55 -15.15,51.86 -14.95,51.74 -14.35,50.64 -14.08,50.42 -13.71,50.31 -12.9,49.48 -13.43,49.97 -11.77,48.67 -12.38,49.04 -11.59,48.55 -10.28,47.9 -10.58,48.16 -9.2,47.44 -8.61,47.17 -9.2,47.51 -8.38,47.16 -8.5,47.14 -6.86,46.58 -6.37,46.41 -4.63,45.9 -5.28,46.11 -1.93,45.32 -2.11,45.3 -1.63,45.24 -0.29,44.95 0.86,44.74 -0.44,44.99 0.8,44.78 4.21,44.29 5.55,44.14 6.33,44.08 4.3,44.27 7.87,43.92 7.03,44 8.53,43.86 10.32,43.76 9.99,43.78 11.48,43.72 13.22,43.66 16.31,43.65 15.9,43.64 15.03,43.64 16.59,43.64 19.44,43.71 21.48,43.8 20.45,43.75 20.38,43.75 24.55,44.02 25.08,44.06 26.29,44.18 26.23,44.16 27.58,44.31 29.88,44.6 28.73,44.44 29.53,44.54 33.6,45.15 33.33,45.15 33.44,45.16 33.66,45.17 35.61,45.54 34.96,45.42 39.29,46.38 39.41,46.46 40.02,46.56 40.69,46.79 41.5,47.04 43.06,47.47 43.3,47.57 43.57,47.67 43.72,47.68 46.49,48.7 47.54,49.19 45.91,48.53 47.68,49.22 47.89,49.42 48.45,49.73 48.3,49.65 50.18,50.6 50.46,50.82 51.24,51.26 50.83,50.96 51.61,51.61 52.42,52.29 53.33,53.2 52.8,52.55 53.48,53.34 53.54,53.69 53.48,53.7 53.7,54.06 54.03,54.42 54.55,55.35 54.25,54.91 54.54,55.5 54.43,55.62" fill="rgb(215,127,140)" stroke="black" stroke-width="3" stroke-linejoin="round" filter="url(#fuzzy)" />
    </g>
  </svg>
  