
  <svg viewBox="-100 -100 200 200" xmlns="http://www.w3.org/2000/svg" width="500" height="500" id="face-svg">
    <defs>
      <clipPath id="leftEyeClipPath">
        <polyline points="37.22,-8.46 37.19,-8.74 37.12,-9.01 37,-9.27 36.84,-9.51 36.64,-9.74 36.4,-9.95 36.11,-10.16 35.78,-10.35 35.41,-10.53 35,-10.7 34.55,-10.86 34.05,-11 33.52,-11.14 32.94,-11.27 32.33,-11.39 31.83,-11.52 31.27,-11.64 30.64,-11.75 29.94,-11.86 29.18,-11.95 28.36,-12.03 27.47,-12.11 26.53,-12.18 25.53,-12.24 24.49,-12.29 23.39,-12.34 22.26,-12.38 21.08,-12.41 19.87,-12.44 18.63,-12.46 17.36,-12.47 16.07,-12.48 14.76,-12.48 13.43,-12.48 12.09,-12.47 10.75,-12.46 9.4,-12.44 8.05,-12.42 6.71,-12.39 5.38,-12.35 4.05,-12.32 2.74,-12.27 1.45,-12.23 0.17,-12.18 -1.08,-12.12 -2.3,-12.06 -3.5,-12 -4.67,-11.93 -5.81,-11.86 -6.91,-11.79 -7.98,-11.71 -9.02,-11.62 -10.02,-11.53 -10.98,-11.44 -11.91,-11.35 -12.8,-11.25 -13.65,-11.14 -14.47,-11.03 -15.25,-10.92 -15.99,-10.8 -16.7,-10.68 -17.38,-10.56 -18.02,-10.43 -18.64,-10.3 -19.23,-10.16 -19.79,-10.02 -20.32,-9.87 -20.82,-9.72 -21.29,-9.56 -21.74,-9.4 -22.17,-9.24 -22.56,-9.07 -22.94,-8.89 -23.28,-8.71 -23.61,-8.52 -23.91,-8.33 -24.19,-8.13 -24.45,-7.93 -24.7,-7.73 -25.58,-3.86 -25.35,-3.48 -25.1,-3.08 -24.85,-2.68 -24.58,-2.28 -24.3,-1.86 -24.02,-1.44 -23.72,-1.01 -23.41,-0.58 -23.08,-0.14 -22.75,0.3 -22.4,0.75 -22.03,1.2 -21.66,1.65 -21.27,2.11 -20.86,2.58 -20.44,3.04 -20.01,3.52 -19.55,3.99 -19.09,4.47 -18.6,4.95 -18.09,5.43 -17.57,5.9 -17.02,6.38 -16.45,6.85 -15.87,7.32 -15.26,7.77 -14.63,8.22 -13.98,8.66 -13.31,9.09 -12.61,9.51 -11.9,9.91 -11.16,10.29 -10.4,10.65 -9.61,11 -8.81,11.32 -7.98,11.62 -7.13,11.89 -6.26,12.14 -5.38,12.35 -4.47,12.54 -3.54,12.7 -2.59,12.82 -1.63,12.91 -0.65,12.97 0.35,12.99 1.36,12.97 2.38,12.91 3.42,12.81 4.47,12.68 5.53,12.5 6.6,12.28 7.68,12.02 8.76,11.72 9.85,11.38 10.94,11 12.03,10.57 13.12,10.11 14.21,9.61 15.3,9.07 16.38,8.49 17.45,7.88 18.52,7.23 19.57,6.56 20.61,5.85 21.51,5.38 22.41,4.88 23.29,4.38 24.16,3.86 25.02,3.33 25.87,2.8 26.7,2.25 27.51,1.7 28.31,1.14 29.09,0.58 29.85,0.02 30.59,-0.53 31.31,-1.09 32,-1.63 32.67,-2.17" />
      </clipPath>
      <clipPath id="rightEyeClipPath">
        <polyline points="-35.37,-7.67 -35.29,-8.12 -35.16,-8.55 -35,-8.96 -34.8,-9.34 -34.56,-9.7 -34.27,-10.03 -33.95,-10.35 -33.58,-10.65 -33.18,-10.92 -32.74,-11.18 -32.25,-11.43 -31.73,-11.65 -31.16,-11.86 -30.56,-12.06 -29.92,-12.24 -29.41,-12.42 -28.82,-12.59 -28.17,-12.75 -27.45,-12.89 -26.67,-13.02 -25.82,-13.14 -24.92,-13.25 -23.96,-13.34 -22.95,-13.43 -21.89,-13.51 -20.78,-13.58 -19.63,-13.63 -18.44,-13.69 -17.21,-13.73 -15.96,-13.76 -14.67,-13.79 -13.37,-13.81 -12.04,-13.83 -10.71,-13.84 -9.36,-13.84 -8,-13.84 -6.64,-13.83 -5.29,-13.82 -3.94,-13.8 -2.59,-13.77 -1.26,-13.75 0.06,-13.71 1.36,-13.68 2.64,-13.63 3.9,-13.59 5.13,-13.54 6.34,-13.48 7.51,-13.43 8.66,-13.36 9.77,-13.3 10.85,-13.23 11.89,-13.15 12.9,-13.07 13.87,-12.99 14.8,-12.9 15.7,-12.81 16.55,-12.72 17.38,-12.62 18.16,-12.52 18.92,-12.41 19.63,-12.3 20.32,-12.19 20.97,-12.07 21.6,-11.95 22.19,-11.82 22.76,-11.69 23.3,-11.56 23.81,-11.42 24.3,-11.27 24.76,-11.12 25.19,-10.97 25.6,-10.81 25.99,-10.65 26.35,-10.48 26.69,-10.3 27.01,-10.12 27.3,-9.94 27.58,-9.75 27.84,-9.56 27.95,-4.77 27.67,-4.34 27.38,-3.91 27.08,-3.46 26.76,-3.01 26.42,-2.54 26.07,-2.07 25.7,-1.59 25.32,-1.11 24.92,-0.61 24.5,-0.12 24.06,0.39 23.61,0.9 23.13,1.41 22.64,1.93 22.13,2.46 21.59,2.99 21.04,3.52 20.47,4.06 19.87,4.61 19.24,5.15 18.6,5.7 17.92,6.24 17.22,6.79 16.5,7.33 15.75,7.86 14.97,8.39 14.16,8.91 13.33,9.42 12.47,9.92 11.59,10.4 10.68,10.87 9.74,11.31 8.78,11.74 7.8,12.15 6.8,12.53 5.78,12.88 4.73,13.21 3.67,13.51 2.59,13.77 1.5,14.01 0.39,14.2 -0.73,14.36 -1.86,14.49 -2.99,14.57 -4.13,14.61 -5.28,14.6 -6.43,14.56 -7.57,14.46 -8.71,14.33 -9.85,14.14 -10.98,13.91 -12.1,13.63 -13.2,13.3 -14.3,12.92 -15.37,12.5 -16.42,12.02 -17.46,11.5 -18.47,10.94 -19.45,10.33 -20.4,9.67 -21.33,8.98 -22.23,8.24 -23.09,7.47 -23.92,6.66 -24.72,6.12 -25.51,5.57 -26.28,4.99 -27.02,4.41 -27.75,3.8 -28.46,3.19 -29.14,2.57 -29.81,1.94 -30.45,1.3 -31.06,0.66 -31.65,0.02 -32.22,-0.62 -32.76,-1.25 -33.28,-1.88 -33.77,-2.5" />
      </clipPath>
      <filter id="fuzzy">
        <feTurbulence id="turbulence" baseFrequency="0.05" numOctaves="3" type="noise" result="noise" />
        <feDisplacementMap in="SourceGraphic" in2="noise" scale="2" />
      </filter>
      <linearGradient id="rainbowGradient" x1="0%" y1="0%" x2="100%" y2="0%">
        <stop offset="0%" style="stop-color: rgb(185, 55, 55); stop-opacity: 1" />
        <stop offset="50%" style="stop-color: rgb(0, 191, 255); stop-opacity: 1" />
        <stop offset="100%" style="stop-color: rgb(255, 165, 0); stop-opacity: 1" />
      </linearGradient>
    </defs>
    <rect x="-100" y="-100" width="100%" height="100%" fill="rgb(72, 61, 139)" />
    <polyline id="faceContour" points="72.9,-0.45 73.05,1.49 73.03,4.38 72.61,4.75 72.54,4.8 72.7,5.91 72.38,8.46 72.66,9.28 72.41,11.06 72.17,12.3 71.71,12.77 71.8,14.53 71.27,16.91 71.07,17.38 71.31,16.64 71.35,17.25 71.05,19.17 70.15,20.95 69.97,22.37 70.06,22.37 68.93,25.52 69.13,25.78 68.4,28.61 67.74,29.59 67.47,30.44 66.98,31.44 66.5,33.61 66.29,33.35 66.15,34.47 65.58,35.96 64.63,37.75 63.92,38.84 63.67,39.85 63.13,40.68 62.85,41.02 61.25,43.95 62.07,42.71 59.99,45.74 61.38,43.75 59.49,47.01 59.79,46.59 58.58,48.56 57.8,49.31 56.93,50.92 55.75,52.37 55.42,52.73 53.48,55.29 52.88,55.6 53.41,54.85 52.86,55.97 51.98,57.14 51.89,56.79 50.75,58.38 49.05,60.33 48.99,60.35 47.59,61.07 45.92,63.11 45.31,63.41 44.65,64.11 42.68,65.75 41.37,66.91 41.53,66.83 40.55,67.19 39.19,68.36 39.03,68.5 36.94,69.84 37.51,69.6 36.41,70.22 36.09,70.78 35.34,71.01 34.11,71.62 33.46,71.8 30.27,74.06 30.32,73.49 30.23,74.15 27.04,75.23 25.88,75.98 25.03,75.76 25.09,76.15 22.67,77.25 21.37,77.48 21.56,77.63 20.06,78.18 20.29,77.98 17.68,78.74 17.56,78.6 16.48,78.94 16.79,79.04 14.12,79.56 14.13,79.48 9.76,80.56 11.32,80.23 9.38,80.42 9.02,80.7 6.53,80.7 5.51,80.81 5.05,81.04 3.06,81.19 3.44,80.94 0.61,81.1 -1.06,81.32 -2.64,81.13 -2.16,81.29 -2.96,81.09 -3.99,81.17 -4.77,81.04 -7.11,80.94 -7.96,80.43 -7.63,80.56 -10.31,80.23 -10.55,80.34 -12.47,80 -13.05,79.78 -15.63,79.47 -14.75,79.59 -16.29,79 -18.56,78.64 -19.48,78.02 -21.45,77.69 -21.46,77.58 -22.56,77.11 -23.81,76.61 -23.68,76.61 -26.54,75.85 -27.04,75.32 -26.99,75.4 -28.89,74.49 -30.34,73.98 -32.31,72.87 -31.99,72.85 -33.17,72.28 -35.04,71.12 -35.07,71.37 -36.88,69.69 -37.73,69.6 -38.34,69.34 -38.22,69.1 -40.96,66.97 -40.6,67.63 -41.59,66.76 -43.35,65.13 -43.45,65.03 -45.22,63.93 -45.47,63.52 -45.44,63.61 -47.94,61.24 -49.36,59.86 -48.43,61.09 -49.44,59.82 -50.77,57.89 -51.02,58.39 -51.68,57.46 -53.62,55.2 -54.86,53.75 -55.15,53.12 -54.92,53.89 -56.3,51.74 -56.95,51.42 -57.38,50.32 -59.02,47.71 -59.08,47.65 -60.01,46.13 -60.73,45.37 -60.5,45.26 -61.44,43.84 -62.9,41.2 -63.14,40.22 -64.09,39.31 -64.06,39.18 -63.94,39.15 -65.63,35.94 -66.01,35.09 -66.2,34.45 -66.93,33.36 -67.27,31.91 -67.98,30.11 -67.73,29.68 -68.1,29.09 -68.84,27.52 -69.29,25.05 -69.36,25.58 -69.83,23.42 -70.4,22.36 -70.22,21.17 -70.74,20.61 -70.96,18.93 -71.15,17.75 -71.41,16.11 -71.65,15.03 -71.92,14.37 -72.36,11.59 -72.08,11.39 -72.33,11.64 -72.48,9.05 -72.71,6.99 -72.66,7.01 -72.99,4.22 -73.02,4.57 -72.89,0.63 -73.04,2.03 -73.19,-1.4 -72.97,-3.47 -72.93,-3.53 -72.8,-2.4 -72.95,-5.84 -72.93,-6.15 -72.48,-8.08 -72.64,-8.72 -72.47,-9.98 -72.6,-10.7 -71.98,-12.66 -71.97,-13.69 -71.61,-14.94 -71.76,-15.3 -70.91,-18.61 -70.54,-20.08 -70.57,-20.45 -70.31,-21.61 -70.64,-21.14 -69.89,-24.22 -69.47,-25.49 -69.57,-24.54 -69.3,-26.09 -68.13,-29.96 -67.62,-30.24 -67.67,-30.6 -66.98,-31.96 -66.62,-33.39 -65.92,-34.34 -65.79,-35.29 -64.48,-38.03 -63.96,-39.44 -64.36,-38.11 -63.53,-40.79 -62.55,-41.73 -62.24,-42.36 -60.96,-44.1 -61.7,-43.45 -61.68,-44.09 -60.27,-45.95 -58.59,-48.62 -57.22,-50.12 -58.45,-49.06 -57.81,-50.04 -56.91,-51.42 -56.57,-51.48 -53.74,-55.02 -55.11,-53.62 -52.42,-56.52 -52.12,-56.59 -51.49,-57.6 -50.89,-58.46 -49.36,-59.52 -48.68,-60.43 -48.62,-60.49 -46.97,-62.25 -46.43,-62.58 -46.76,-62.58 -44.89,-64.11 -43.45,-65.52 -44.28,-64.93 -42.56,-66.46 -41.28,-67.27 -41.69,-66.67 -38.54,-68.76 -39.43,-68.65 -37.38,-69.81 -36.34,-70.6 -35.36,-71.14 -33.44,-71.93 -34.3,-71.69 -32.44,-73 -29.22,-74.35 -30.46,-73.9 -28.06,-74.95 -27.98,-75.32 -25.74,-75.89 -24.85,-76.38 -23.01,-76.92 -23.92,-76.96 -23.92,-77.01 -20.93,-78.11 -19.12,-78.4 -20.89,-78.08 -18.33,-78.92 -18.78,-78.45 -15.06,-79.68 -14.87,-79.46 -14.22,-79.7 -12.79,-80.18 -11.66,-80.39 -8.77,-80.95 -7.52,-80.73 -7.87,-80.74 -7.31,-81.06 -7.06,-80.96 -3.88,-81.16 -2.04,-81.43 -1.68,-81.44 -1.02,-81.3 1.91,-81.25 0.91,-81.17 3.2,-81.07 2.5,-81.12 4.86,-81.16 5.18,-81.13 7.15,-81.11 6.08,-81.13 10.33,-80.65 11.37,-80.53 10.87,-80.49 13.96,-80 13.71,-79.99 13.94,-79.67 16.84,-78.99 16.07,-79.34 17.08,-78.95 20.03,-78.17 20.77,-77.9 20.05,-78.11 24.21,-76.9 25.29,-76.3 24.03,-76.88 26.03,-75.88 26.68,-75.61 27.99,-75.39 29.93,-74.34 29.26,-74.38 32.02,-73.11 30.37,-73.77 32.59,-72.76 35.55,-71.25 36.8,-70.43 35.64,-70.76 36.22,-70.24 39.59,-68.11 40.43,-67.67 40.7,-67.74 41.6,-66.98 42.79,-65.82 44.02,-64.77 43.39,-65.45 43.84,-65.19 45.81,-63.11 46.02,-62.92 47.67,-61.7 48.61,-60.45 48.62,-60.72 50.8,-58.07 50.22,-58.81 52.05,-56.79 53.19,-55.44 53.33,-55.61 54.17,-54.5 55.1,-53.24 55.64,-52.85 56.88,-51.57 56.84,-50.89 57.57,-50.34 58.02,-49.01 58.65,-48.33 60.06,-45.91 60.35,-45.28 60.33,-45.2 61.63,-43.4 62.03,-42.88 62.3,-42.37 63.63,-40.18 63.97,-38.58 64.27,-38.67 64.71,-37.44 65.44,-35.35 66.17,-33.99 66.86,-33.13 66.32,-33.52 67.43,-31.08 67.58,-30.7 68.62,-28.26 68.99,-27.24 69.41,-25.52 69.24,-25.2 70.15,-22.13 70.57,-21.02 70.3,-21.05 70.72,-20.24 71.14,-18.82 71.2,-17.39 71.64,-16.15 71.62,-15.16 72.28,-12.56 72.22,-10.61 72.37,-11.05 72.31,-11.17 72.37,-8.94 72.72,-7.18 72.88,-6.33 72.95,-5.71 72.65,-4.4 72.83,-1.79 72.84,-1.13 72.9,-0.45 73.05,1.49" fill="rgb(233, 150, 122)" stroke="black" stroke-width="1.6666666666666665" stroke-linejoin="round" filter="url(#fuzzy)" />
    <g transform="translate(39.14 -20.81)">
      <polyline id="rightCountour" points="-35.37,-7.67 -35.29,-8.12 -35.16,-8.55 -35,-8.96 -34.8,-9.34 -34.56,-9.7 -34.27,-10.03 -33.95,-10.35 -33.58,-10.65 -33.18,-10.92 -32.74,-11.18 -32.25,-11.43 -31.73,-11.65 -31.16,-11.86 -30.56,-12.06 -29.92,-12.24 -29.41,-12.42 -28.82,-12.59 -28.17,-12.75 -27.45,-12.89 -26.67,-13.02 -25.82,-13.14 -24.92,-13.25 -23.96,-13.34 -22.95,-13.43 -21.89,-13.51 -20.78,-13.58 -19.63,-13.63 -18.44,-13.69 -17.21,-13.73 -15.96,-13.76 -14.67,-13.79 -13.37,-13.81 -12.04,-13.83 -10.71,-13.84 -9.36,-13.84 -8,-13.84 -6.64,-13.83 -5.29,-13.82 -3.94,-13.8 -2.59,-13.77 -1.26,-13.75 0.06,-13.71 1.36,-13.68 2.64,-13.63 3.9,-13.59 5.13,-13.54 6.34,-13.48 7.51,-13.43 8.66,-13.36 9.77,-13.3 10.85,-13.23 11.89,-13.15 12.9,-13.07 13.87,-12.99 14.8,-12.9 15.7,-12.81 16.55,-12.72 17.38,-12.62 18.16,-12.52 18.92,-12.41 19.63,-12.3 20.32,-12.19 20.97,-12.07 21.6,-11.95 22.19,-11.82 22.76,-11.69 23.3,-11.56 23.81,-11.42 24.3,-11.27 24.76,-11.12 25.19,-10.97 25.6,-10.81 25.99,-10.65 26.35,-10.48 26.69,-10.3 27.01,-10.12 27.3,-9.94 27.58,-9.75 27.84,-9.56 27.95,-4.77 27.67,-4.34 27.38,-3.91 27.08,-3.46 26.76,-3.01 26.42,-2.54 26.07,-2.07 25.7,-1.59 25.32,-1.11 24.92,-0.61 24.5,-0.12 24.06,0.39 23.61,0.9 23.13,1.41 22.64,1.93 22.13,2.46 21.59,2.99 21.04,3.52 20.47,4.06 19.87,4.61 19.24,5.15 18.6,5.7 17.92,6.24 17.22,6.79 16.5,7.33 15.75,7.86 14.97,8.39 14.16,8.91 13.33,9.42 12.47,9.92 11.59,10.4 10.68,10.87 9.74,11.31 8.78,11.74 7.8,12.15 6.8,12.53 5.78,12.88 4.73,13.21 3.67,13.51 2.59,13.77 1.5,14.01 0.39,14.2 -0.73,14.36 -1.86,14.49 -2.99,14.57 -4.13,14.61 -5.28,14.6 -6.43,14.56 -7.57,14.46 -8.71,14.33 -9.85,14.14 -10.98,13.91 -12.1,13.63 -13.2,13.3 -14.3,12.92 -15.37,12.5 -16.42,12.02 -17.46,11.5 -18.47,10.94 -19.45,10.33 -20.4,9.67 -21.33,8.98 -22.23,8.24 -23.09,7.47 -23.92,6.66 -24.72,6.12 -25.51,5.57 -26.28,4.99 -27.02,4.41 -27.75,3.8 -28.46,3.19 -29.14,2.57 -29.81,1.94 -30.45,1.3 -31.06,0.66 -31.65,0.02 -32.22,-0.62 -32.76,-1.25 -33.28,-1.88 -33.77,-2.5" fill="white" stroke="white" stroke-width="0" stroke-linejoin="round" filter="url(#fuzzy)" />
    </g>
    <g transform="translate(-38.64 -21.97)">
      <polyline id="leftCountour" points="37.22,-8.46 37.19,-8.74 37.12,-9.01 37,-9.27 36.84,-9.51 36.64,-9.74 36.4,-9.95 36.11,-10.16 35.78,-10.35 35.41,-10.53 35,-10.7 34.55,-10.86 34.05,-11 33.52,-11.14 32.94,-11.27 32.33,-11.39 31.83,-11.52 31.27,-11.64 30.64,-11.75 29.94,-11.86 29.18,-11.95 28.36,-12.03 27.47,-12.11 26.53,-12.18 25.53,-12.24 24.49,-12.29 23.39,-12.34 22.26,-12.38 21.08,-12.41 19.87,-12.44 18.63,-12.46 17.36,-12.47 16.07,-12.48 14.76,-12.48 13.43,-12.48 12.09,-12.47 10.75,-12.46 9.4,-12.44 8.05,-12.42 6.71,-12.39 5.38,-12.35 4.05,-12.32 2.74,-12.27 1.45,-12.23 0.17,-12.18 -1.08,-12.12 -2.3,-12.06 -3.5,-12 -4.67,-11.93 -5.81,-11.86 -6.91,-11.79 -7.98,-11.71 -9.02,-11.62 -10.02,-11.53 -10.98,-11.44 -11.91,-11.35 -12.8,-11.25 -13.65,-11.14 -14.47,-11.03 -15.25,-10.92 -15.99,-10.8 -16.7,-10.68 -17.38,-10.56 -18.02,-10.43 -18.64,-10.3 -19.23,-10.16 -19.79,-10.02 -20.32,-9.87 -20.82,-9.72 -21.29,-9.56 -21.74,-9.4 -22.17,-9.24 -22.56,-9.07 -22.94,-8.89 -23.28,-8.71 -23.61,-8.52 -23.91,-8.33 -24.19,-8.13 -24.45,-7.93 -24.7,-7.73 -25.58,-3.86 -25.35,-3.48 -25.1,-3.08 -24.85,-2.68 -24.58,-2.28 -24.3,-1.86 -24.02,-1.44 -23.72,-1.01 -23.41,-0.58 -23.08,-0.14 -22.75,0.3 -22.4,0.75 -22.03,1.2 -21.66,1.65 -21.27,2.11 -20.86,2.58 -20.44,3.04 -20.01,3.52 -19.55,3.99 -19.09,4.47 -18.6,4.95 -18.09,5.43 -17.57,5.9 -17.02,6.38 -16.45,6.85 -15.87,7.32 -15.26,7.77 -14.63,8.22 -13.98,8.66 -13.31,9.09 -12.61,9.51 -11.9,9.91 -11.16,10.29 -10.4,10.65 -9.61,11 -8.81,11.32 -7.98,11.62 -7.13,11.89 -6.26,12.14 -5.38,12.35 -4.47,12.54 -3.54,12.7 -2.59,12.82 -1.63,12.91 -0.65,12.97 0.35,12.99 1.36,12.97 2.38,12.91 3.42,12.81 4.47,12.68 5.53,12.5 6.6,12.28 7.68,12.02 8.76,11.72 9.85,11.38 10.94,11 12.03,10.57 13.12,10.11 14.21,9.61 15.3,9.07 16.38,8.49 17.45,7.88 18.52,7.23 19.57,6.56 20.61,5.85 21.51,5.38 22.41,4.88 23.29,4.38 24.16,3.86 25.02,3.33 25.87,2.8 26.7,2.25 27.51,1.7 28.31,1.14 29.09,0.58 29.85,0.02 30.59,-0.53 31.31,-1.09 32,-1.63 32.67,-2.17" fill="white" stroke="white" stroke-width="0" stroke-linejoin="round" filter="url(#fuzzy)" />
    </g>
    <g transform="translate(39.14 -20.81)">
      <polyline id="rightUpper" points="-34.32,-1.44 -34.56,-2.22 -34.77,-2.96 -34.96,-3.66 -35.11,-4.33 -35.24,-4.96 -35.34,-5.56 -35.4,-6.13 -35.43,-6.67 -35.42,-7.18 -35.37,-7.67 -35.29,-8.12 -35.16,-8.55 -35,-8.96 -34.8,-9.34 -34.56,-9.7 -34.27,-10.03 -33.95,-10.35 -33.58,-10.65 -33.18,-10.92 -32.74,-11.18 -32.25,-11.43 -31.73,-11.65 -31.16,-11.86 -30.56,-12.06 -29.92,-12.24 -29.41,-12.42 -28.82,-12.59 -28.17,-12.75 -27.45,-12.89 -26.67,-13.02 -25.82,-13.14 -24.92,-13.25 -23.96,-13.34 -22.95,-13.43 -21.89,-13.51 -20.78,-13.58 -19.63,-13.63 -18.44,-13.69 -17.21,-13.73 -15.96,-13.76 -14.67,-13.79 -13.37,-13.81 -12.04,-13.83 -10.71,-13.84 -9.36,-13.84 -8,-13.84 -6.64,-13.83 -5.29,-13.82 -3.94,-13.8 -2.59,-13.77 -1.26,-13.75 0.06,-13.71 1.36,-13.68 2.64,-13.63 3.9,-13.59 5.13,-13.54 6.34,-13.48 7.51,-13.43 8.66,-13.36 9.77,-13.3 10.85,-13.23 11.89,-13.15 12.9,-13.07 13.87,-12.99 14.8,-12.9 15.7,-12.81 16.55,-12.72 17.38,-12.62 18.16,-12.52 18.92,-12.41 19.63,-12.3 20.32,-12.19 20.97,-12.07 21.6,-11.95 22.19,-11.82 22.76,-11.69 23.3,-11.56 23.81,-11.42 24.3,-11.27 24.76,-11.12 25.19,-10.97 25.6,-10.81 25.99,-10.65 26.35,-10.48 26.69,-10.3 27.01,-10.12 27.3,-9.94 27.58,-9.75 27.84,-9.56 28.07,-9.36 28.3,-9.16 28.5,-8.95 28.69,-8.74 28.86,-8.52 29.01,-8.3 29.16,-8.07 29.29,-7.84 29.4,-7.6 29.5,-7.36" fill="none" stroke="black" stroke-width="1.6666666666666665" stroke-linejoin="round" filter="url(#fuzzy)" />
      <polyline id="rightLower" points="-37.23,-7.41 -37,-7.08 -36.75,-6.71 -36.47,-6.29 -36.17,-5.83 -35.83,-5.34 -35.47,-4.82 -35.09,-4.27 -34.68,-3.7 -34.24,-3.11 -33.77,-2.5 -33.28,-1.88 -32.76,-1.25 -32.22,-0.62 -31.65,0.02 -31.06,0.66 -30.45,1.3 -29.81,1.94 -29.14,2.57 -28.46,3.19 -27.75,3.8 -27.02,4.41 -26.28,4.99 -25.51,5.57 -24.72,6.12 -23.92,6.66 -23.09,7.47 -22.23,8.24 -21.33,8.98 -20.4,9.67 -19.45,10.33 -18.47,10.94 -17.46,11.5 -16.42,12.02 -15.37,12.5 -14.3,12.92 -13.2,13.3 -12.1,13.63 -10.98,13.91 -9.85,14.14 -8.71,14.33 -7.57,14.46 -6.43,14.56 -5.28,14.6 -4.13,14.61 -2.99,14.57 -1.86,14.49 -0.73,14.36 0.39,14.2 1.5,14.01 2.59,13.77 3.67,13.51 4.73,13.21 5.78,12.88 6.8,12.53 7.8,12.15 8.78,11.74 9.74,11.31 10.68,10.87 11.59,10.4 12.47,9.92 13.33,9.42 14.16,8.91 14.97,8.39 15.75,7.86 16.5,7.33 17.22,6.79 17.92,6.24 18.6,5.7 19.24,5.15 19.87,4.61 20.47,4.06 21.04,3.52 21.59,2.99 22.13,2.46 22.64,1.93 23.13,1.41 23.61,0.9 24.06,0.39 24.5,-0.12 24.92,-0.61 25.32,-1.11 25.7,-1.59 26.07,-2.07 26.42,-2.54 26.76,-3.01 27.08,-3.46 27.38,-3.91 27.67,-4.34 27.95,-4.77 28.21,-5.19 28.47,-5.61 28.71,-6.01 28.93,-6.4 29.15,-6.78 29.35,-7.16 29.55,-7.52 29.73,-7.88 29.91,-8.23 30.07,-8.56" fill="none" stroke="black" stroke-width="2.2222222222222223" stroke-linejoin="round" filter="url(#fuzzy)" />
      <circle r="3.558" cx="14.081868724032546" cy="3.8246314626304327" stroke="black" fill="none" stroke-width="1.0" filter="url(#fuzzy)" clip-path="url(#rightEyeClipPath)" /><circle r="4.856" cx="12.311868724032548" cy="3.6646314626304326" stroke="black" fill="none" stroke-width="1.0" filter="url(#fuzzy)" clip-path="url(#rightEyeClipPath)" /><circle r="3.336" cx="12.781868724032547" cy="1.0846314626304325" stroke="black" fill="none" stroke-width="1.0" filter="url(#fuzzy)" clip-path="url(#rightEyeClipPath)" /><circle r="3.586" cx="16.881868724032547" cy="2.684631462630433" stroke="black" fill="none" stroke-width="1.0" filter="url(#fuzzy)" clip-path="url(#rightEyeClipPath)" /><circle r="4.0440000000000005" cx="16.10186872403255" cy="4.414631462630433" stroke="black" fill="none" stroke-width="1.0" filter="url(#fuzzy)" clip-path="url(#rightEyeClipPath)" /><circle r="3.5460000000000003" cx="13.436868724032548" cy="1.0796314626304326" stroke="black" fill="none" stroke-width="1.0" filter="url(#fuzzy)" clip-path="url(#rightEyeClipPath)" /><circle r="4.214" cx="14.416868724032547" cy="2.5096314626304324" stroke="black" fill="none" stroke-width="1.0" filter="url(#fuzzy)" clip-path="url(#rightEyeClipPath)" /><circle r="3.176" cx="16.49686872403255" cy="4.354631462630432" stroke="black" fill="none" stroke-width="1.0" filter="url(#fuzzy)" clip-path="url(#rightEyeClipPath)" /><circle r="4.26" cx="12.356868724032548" cy="3.9596314626304325" stroke="black" fill="none" stroke-width="1.0" filter="url(#fuzzy)" clip-path="url(#rightEyeClipPath)" /><circle r="4.7620000000000005" cx="15.901868724032546" cy="0.4746314626304322" stroke="black" fill="none" stroke-width="1.0" filter="url(#fuzzy)" clip-path="url(#rightEyeClipPath)" />
      </g>
    <g transform="translate(-38.64 -21.97)">
      <polyline id="leftUpper" points="35.48,-4.66 35.8,-5.13 36.1,-5.57 36.36,-6 36.59,-6.4 36.79,-6.79 36.95,-7.16 37.08,-7.51 37.17,-7.84 37.21,-8.16 37.22,-8.46 37.19,-8.74 37.12,-9.01 37,-9.27 36.84,-9.51 36.64,-9.74 36.4,-9.95 36.11,-10.16 35.78,-10.35 35.41,-10.53 35,-10.7 34.55,-10.86 34.05,-11 33.52,-11.14 32.94,-11.27 32.33,-11.39 31.83,-11.52 31.27,-11.64 30.64,-11.75 29.94,-11.86 29.18,-11.95 28.36,-12.03 27.47,-12.11 26.53,-12.18 25.53,-12.24 24.49,-12.29 23.39,-12.34 22.26,-12.38 21.08,-12.41 19.87,-12.44 18.63,-12.46 17.36,-12.47 16.07,-12.48 14.76,-12.48 13.43,-12.48 12.09,-12.47 10.75,-12.46 9.4,-12.44 8.05,-12.42 6.71,-12.39 5.38,-12.35 4.05,-12.32 2.74,-12.27 1.45,-12.23 0.17,-12.18 -1.08,-12.12 -2.3,-12.06 -3.5,-12 -4.67,-11.93 -5.81,-11.86 -6.91,-11.79 -7.98,-11.71 -9.02,-11.62 -10.02,-11.53 -10.98,-11.44 -11.91,-11.35 -12.8,-11.25 -13.65,-11.14 -14.47,-11.03 -15.25,-10.92 -15.99,-10.8 -16.7,-10.68 -17.38,-10.56 -18.02,-10.43 -18.64,-10.3 -19.23,-10.16 -19.79,-10.02 -20.32,-9.87 -20.82,-9.72 -21.29,-9.56 -21.74,-9.4 -22.17,-9.24 -22.56,-9.07 -22.94,-8.89 -23.28,-8.71 -23.61,-8.52 -23.91,-8.33 -24.19,-8.13 -24.45,-7.93 -24.7,-7.73 -24.92,-7.52 -25.12,-7.3 -25.31,-7.08 -25.47,-6.85 -25.63,-6.62 -25.76,-6.38 -25.88,-6.14 -25.99,-5.9 -26.09,-5.65 -26.17,-5.39" fill="none" stroke="black" stroke-width="2.2222222222222223" stroke-linejoin="round" filter="url(#fuzzy)" />
      <polyline id="leftLower" points="37.54,-6.43 37.23,-6.15 36.87,-5.82 36.47,-5.46 36.03,-5.06 35.56,-4.64 35.04,-4.18 34.5,-3.71 33.92,-3.21 33.31,-2.7 32.67,-2.17 32,-1.63 31.31,-1.09 30.59,-0.53 29.85,0.02 29.09,0.58 28.31,1.14 27.51,1.7 26.7,2.25 25.87,2.8 25.02,3.33 24.16,3.86 23.29,4.38 22.41,4.88 21.51,5.38 20.61,5.85 19.57,6.56 18.52,7.23 17.45,7.88 16.38,8.49 15.3,9.07 14.21,9.61 13.12,10.11 12.03,10.57 10.94,11 9.85,11.38 8.76,11.72 7.68,12.02 6.6,12.28 5.53,12.5 4.47,12.68 3.42,12.81 2.38,12.91 1.36,12.97 0.35,12.99 -0.65,12.97 -1.63,12.91 -2.59,12.82 -3.54,12.7 -4.47,12.54 -5.38,12.35 -6.26,12.14 -7.13,11.89 -7.98,11.62 -8.81,11.32 -9.61,11 -10.4,10.65 -11.16,10.29 -11.9,9.91 -12.61,9.51 -13.31,9.09 -13.98,8.66 -14.63,8.22 -15.26,7.77 -15.87,7.32 -16.45,6.85 -17.02,6.38 -17.57,5.9 -18.09,5.43 -18.6,4.95 -19.09,4.47 -19.55,3.99 -20.01,3.52 -20.44,3.04 -20.86,2.58 -21.27,2.11 -21.66,1.65 -22.03,1.2 -22.4,0.75 -22.75,0.3 -23.08,-0.14 -23.41,-0.58 -23.72,-1.01 -24.02,-1.44 -24.3,-1.86 -24.58,-2.28 -24.85,-2.68 -25.1,-3.08 -25.35,-3.48 -25.58,-3.86 -25.8,-4.24 -26.02,-4.61 -26.22,-4.97 -26.42,-5.32 -26.61,-5.67 -26.79,-6.01 -26.96,-6.34 -27.12,-6.66 -27.27,-6.97 -27.42,-7.28" fill="none" stroke="black" stroke-width="2.2222222222222223" stroke-linejoin="round" filter="url(#fuzzy)" />
      <circle r="4.364" cx="0.4129594239934802" cy="-10.2007702115605" stroke="black" fill="none" stroke-width="1.0" filter="url(#fuzzy)" clip-path="url(#leftEyeClipPath)" /><circle r="4" cx="-2.1720405760065202" cy="-8.730770211560499" stroke="black" fill="none" stroke-width="1.0" filter="url(#fuzzy)" clip-path="url(#leftEyeClipPath)" /><circle r="4.252" cx="-3.1270405760065203" cy="-12.455770211560498" stroke="black" fill="none" stroke-width="1.0" filter="url(#fuzzy)" clip-path="url(#leftEyeClipPath)" /><circle r="4.026" cx="-2.46704057600652" cy="-8.935770211560499" stroke="black" fill="none" stroke-width="1.0" filter="url(#fuzzy)" clip-path="url(#leftEyeClipPath)" /><circle r="3.75" cx="-2.0520405760065206" cy="-9.040770211560499" stroke="black" fill="none" stroke-width="1.0" filter="url(#fuzzy)" clip-path="url(#leftEyeClipPath)" /><circle r="3.75" cx="-2.0020405760065203" cy="-8.905770211560498" stroke="black" fill="none" stroke-width="1.0" filter="url(#fuzzy)" clip-path="url(#leftEyeClipPath)" /><circle r="4.828" cx="-0.2920405760065199" cy="-9.280770211560498" stroke="black" fill="none" stroke-width="1.0" filter="url(#fuzzy)" clip-path="url(#leftEyeClipPath)" /><circle r="4.902" cx="0.08795942399347956" cy="-11.795770211560498" stroke="black" fill="none" stroke-width="1.0" filter="url(#fuzzy)" clip-path="url(#leftEyeClipPath)" /><circle r="4.72" cx="-1.7420405760065203" cy="-12.1457702115605" stroke="black" fill="none" stroke-width="1.0" filter="url(#fuzzy)" clip-path="url(#leftEyeClipPath)" /><circle r="3.308" cx="-2.65204057600652" cy="-12.460770211560499" stroke="black" fill="none" stroke-width="1.0" filter="url(#fuzzy)" clip-path="url(#leftEyeClipPath)" />
    </g>
    <g id="hairs">
      <polyline points="2.5,-81.12 4.1,-81.13 5.04,-81.1 5.69,-81.02 6.17,-80.86 6.4,-80.65 6.26,-80.4 5.62,-80.11 4.45,-79.79 2.74,-79.44 0.47,-79.06 -2.37,-78.63 -5.78,-78.16 -9.71,-77.67 -14.18,-77.15 -19.43,-76.56" fill="none" stroke="rgb(80, 68, 68)" stroke-width="2" stroke-linejoin="round" filter="url(#fuzzy)" /><polyline points="60.06,-45.91 60.2,-45.48 60.23,-45.15 60.09,-44.92 59.65,-44.87 58.84,-45.05 57.62,-45.53 55.93,-46.35 53.75,-47.57 51.08,-49.21 47.91,-51.31 44.2,-53.89 39.91,-57.02 35.01,-60.7 29.44,-64.92 23.13,-69.66 15.7,-74.99" fill="none" stroke="rgb(80, 68, 68)" stroke-width="2" stroke-linejoin="round" filter="url(#fuzzy)" /><polyline points="63.97,-38.58 64.22,-38.27 64.37,-37.52 64.33,-36.81 64,-36.41 63.35,-36.35 62.37,-36.57 61.07,-37.02 59.42,-37.7 57.4,-38.63 54.96,-39.87 52.07,-41.45 48.74,-43.43 44.97,-45.82 40.75,-48.66 36.08,-51.97 30.95,-55.74 25.35,-59.96 19.22,-64.61 12.51,-69.73 5.32,-75.34" fill="none" stroke="rgb(80, 68, 68)" stroke-width="2" stroke-linejoin="round" filter="url(#fuzzy)" /><polyline points="16.07,-79.34 17.64,-78.75 19.64,-77.87 21.75,-76.81 24.05,-75.55 26.53,-74.11 29.1,-72.54 31.71,-70.87 34.37,-69.11 37.09,-67.29 39.85,-65.42 42.57,-63.55 45.19,-61.72 47.67,-59.93 50.01,-58.2" fill="none" stroke="rgb(80, 68, 68)" stroke-width="2" stroke-linejoin="round" filter="url(#fuzzy)" /><polyline points="20.03,-78.17 20.54,-77.97 21.3,-77.67 22.09,-77.3 22.56,-76.96 22.66,-76.66 22.45,-76.38 21.95,-76.1 21.16,-75.82 20.02,-75.54 18.52,-75.29 16.63,-75.05 14.35,-74.82 11.68,-74.61 8.57,-74.41 4.97,-74.26 0.83,-74.16 -3.92,-74.1 -9.34,-74.07 -15.46,-74.06 -22.37,-74.06" fill="none" stroke="rgb(80, 68, 68)" stroke-width="2" stroke-linejoin="round" filter="url(#fuzzy)" /><polyline points="-38.54,-68.76 -38.33,-69.07 -36.95,-69.79 -35.06,-70.61 -32.93,-71.45 -30.61,-72.29 -28.12,-73.17 -25.5,-74.09 -22.78,-75.01 -20.03,-75.91 -17.29,-76.76 -14.58,-77.55 -11.92,-78.3 -9.36,-79 -6.99,-79.65 -4.92,-80.25 -3.25,-80.83" fill="none" stroke="rgb(80, 68, 68)" stroke-width="2" stroke-linejoin="round" filter="url(#fuzzy)" /><polyline points="-3.88,-81.16 -2.47,-81.3 -1.19,-81.27 0.24,-81.15 1.77,-80.99 3.31,-80.82 4.84,-80.66 6.33,-80.51 7.77,-80.39 9.13,-80.27 10.38,-80.17 11.49,-80.07 12.41,-79.99 13.08,-79.93 13.42,-79.92 13.39,-79.99 12.82,-80.15" fill="none" stroke="rgb(80, 68, 68)" stroke-width="2" stroke-linejoin="round" filter="url(#fuzzy)" /><polyline points="39.59,-68.11 40.22,-67.81 40.74,-67.49 41.2,-67.09 41.52,-66.73 41.6,-66.51 41.43,-66.43 41.02,-66.46 40.36,-66.59 39.42,-66.84 38.13,-67.26 36.44,-67.9 34.32,-68.79 31.74,-69.94 28.68,-71.39 25.13,-73.15 21.01,-75.26 16.24,-77.74" fill="none" stroke="rgb(80, 68, 68)" stroke-width="2" stroke-linejoin="round" filter="url(#fuzzy)" /><polyline points="60.06,-45.91 60.24,-45.43 60.36,-44.95 60.38,-44.47 60.19,-44.04 59.76,-43.71 59.03,-43.51 57.99,-43.49 56.63,-43.68 54.92,-44.1 52.85,-44.77 50.39,-45.71 47.51,-46.92 44.2,-48.41 40.46,-50.15 36.3,-52.14 31.74,-54.41 26.74,-56.97 21.24,-59.85 15.15,-63.07 8.4,-66.63 1.02,-70.52 -6.82,-74.79" fill="none" stroke="rgb(80, 68, 68)" stroke-width="2" stroke-linejoin="round" filter="url(#fuzzy)" /><polyline points="-20.89,-78.08 -18.99,-78.54 -17.14,-78.78 -15.06,-78.97 -12.86,-79.11 -10.51,-79.21 -7.98,-79.28 -5.29,-79.3 -2.54,-79.27 0.17,-79.2 2.8,-79.09 5.35,-78.96 7.9,-78.82 10.44,-78.69 12.86,-78.57 14.99,-78.48 16.74,-78.42 18.36,-78.33" fill="none" stroke="rgb(80, 68, 68)" stroke-width="2" stroke-linejoin="round" filter="url(#fuzzy)" /><polyline points="3.2,-81.07 3.49,-81.06 4.64,-80.95 6.07,-80.72 7.7,-80.39 9.5,-79.95 11.43,-79.45 13.39,-78.88 15.32,-78.28 17.2,-77.65 19.02,-77.01 20.81,-76.37 22.58,-75.71 24.33,-75.06 26.05,-74.41 27.72,-73.79 29.28,-73.22 30.67,-72.71 31.84,-72.29 32.73,-72 33.38,-71.82 33.84,-71.74 34.17,-71.74 34.05,-71.96" fill="none" stroke="rgb(80, 68, 68)" stroke-width="2" stroke-linejoin="round" filter="url(#fuzzy)" /><polyline points="46.02,-62.92 47.28,-61.85 48.11,-61.01 48.74,-60.27 49.24,-59.59 49.62,-59 49.82,-58.52 49.83,-58.19 49.6,-58.01 49.12,-58 48.38,-58.14 47.38,-58.45 46.09,-58.92 44.53,-59.57 42.66,-60.38 40.5,-61.38 38,-62.57 35.13,-63.98 31.85,-65.65 28.11,-67.59 23.94,-69.81 19.36,-72.28 14.41,-74.99 8.96,-77.92" fill="none" stroke="rgb(80, 68, 68)" stroke-width="2" stroke-linejoin="round" filter="url(#fuzzy)" /><polyline points="-27.98,-75.32 -26.09,-75.83 -24.39,-76.27 -22.74,-76.64 -20.97,-76.99 -18.96,-77.35 -16.69,-77.7 -14.26,-78.05 -11.75,-78.38 -9.16,-78.7 -6.51,-79 -3.83,-79.32 -1.21,-79.63 1.27,-79.93 3.52,-80.21 5.46,-80.49 6.7,-80.76" fill="none" stroke="rgb(80, 68, 68)" stroke-width="2" stroke-linejoin="round" filter="url(#fuzzy)" /><polyline points="62.03,-42.88 62.3,-42.11 62.17,-41.4 61.41,-41.18 60,-41.46 57.95,-42.2 55.25,-43.4 51.84,-45.14 47.67,-47.49 42.69,-50.44 36.87,-53.97 30.14,-58.05 22.43,-62.72 13.54,-68.03 3.43,-74.09" fill="none" stroke="rgb(80, 68, 68)" stroke-width="2" stroke-linejoin="round" filter="url(#fuzzy)" /><polyline points="60.06,-45.91 60.28,-45.42 60.55,-44.9 60.8,-44.36 60.95,-43.86 60.92,-43.46 60.7,-43.2 60.25,-43.13 59.55,-43.28 58.6,-43.68 57.39,-44.36 55.88,-45.33 54.07,-46.62 51.93,-48.24 49.45,-50.17 46.58,-52.43 43.31,-55.03 39.6,-58.02 35.44,-61.42 30.84,-65.26 25.87,-69.53 20.51,-74.25" fill="none" stroke="rgb(80, 68, 68)" stroke-width="2" stroke-linejoin="round" filter="url(#fuzzy)" /><polyline points="24.21,-76.9 24.78,-76.56 25.36,-76.25 26.29,-75.79 27.46,-75.25 28.68,-74.67 29.83,-74.1 30.86,-73.58 31.73,-73.13 32.45,-72.75 32.99,-72.47 33.27,-72.32 33.22,-72.33 32.81,-72.52 32.06,-72.91 30.92,-73.53 29.22,-74.44" fill="none" stroke="rgb(80, 68, 68)" stroke-width="2" stroke-linejoin="round" filter="url(#fuzzy)" /><polyline points="44.02,-64.77 43.74,-65.01 43.85,-64.61 43.94,-63.95 43.77,-63.27 43.23,-62.63 42.27,-62.06 40.87,-61.56 39,-61.13 36.66,-60.76 33.83,-60.48 30.48,-60.29 26.59,-60.19 22.13,-60.19 17.09,-60.27 11.45,-60.43 5.21,-60.68 -1.65,-61.02 -9.13,-61.46 -17.2,-62 -25.8,-62.65 -34.91,-63.42" fill="none" stroke="rgb(80, 68, 68)" stroke-width="2" stroke-linejoin="round" filter="url(#fuzzy)" /><polyline points="-19.12,-78.4 -19.39,-78.33 -18.13,-78.37 -16.14,-78.35 -13.75,-78.24 -11.1,-78.04 -8.23,-77.75 -5.15,-77.38 -1.87,-76.93 1.53,-76.4 4.97,-75.8 8.43,-75.14 11.91,-74.44 15.48,-73.71 19.15,-72.94 22.9,-72.12 26.64,-71.25 30.26,-70.39 33.7,-69.59 37,-68.78" fill="none" stroke="rgb(80, 68, 68)" stroke-width="2" stroke-linejoin="round" filter="url(#fuzzy)" /><polyline points="50.22,-58.81 51.66,-57.22 52.62,-56.17 53.32,-55.41 53.86,-54.8 54.26,-54.33 54.48,-54.03 54.47,-53.96 54.16,-54.17 53.54,-54.69 52.58,-55.55 51.3,-56.78 49.69,-58.39 47.79,-60.38 45.61,-62.75" fill="none" stroke="rgb(80, 68, 68)" stroke-width="2" stroke-linejoin="round" filter="url(#fuzzy)" /><polyline points="29.26,-74.38 30.7,-73.67 31.45,-73.21 32.22,-72.66 32.85,-72.09 33.15,-71.57 33.09,-71.12 32.73,-70.72 32.07,-70.38 31.08,-70.1 29.71,-69.91 27.92,-69.82 25.71,-69.82 23.06,-69.91 19.99,-70.08 16.52,-70.32 12.65,-70.6 8.38,-70.93 3.69,-71.34 -1.48,-71.84 -7.23,-72.45 -13.67,-73.15 -20.79,-73.97" fill="none" stroke="rgb(80, 68, 68)" stroke-width="2" stroke-linejoin="round" filter="url(#fuzzy)" /><polyline points="-41.28,-67.27 -40.73,-67.45 -39.59,-68.19 -38.36,-69.02 -37.09,-69.84 -35.79,-70.63 -34.5,-71.38 -33.23,-72.1 -31.99,-72.8 -30.79,-73.46 -29.66,-74.07 -28.63,-74.61 -27.73,-75.07 -26.99,-75.43 -26.45,-75.68 -26.15,-75.81 -26.13,-75.81 -26.4,-75.68 -26.94,-75.41 -27.75,-74.98 -28.86,-74.38 -30.28,-73.62 -31.96,-72.73 -33.95,-71.74" fill="none" stroke="rgb(80, 68, 68)" stroke-width="2" stroke-linejoin="round" filter="url(#fuzzy)" /><polyline points="53.19,-55.44 53.35,-55.29 53.33,-54.92 52.92,-54.65 51.98,-54.63 50.45,-54.89 48.26,-55.42 45.41,-56.23 41.9,-57.31 37.75,-58.7 32.91,-60.44 27.27,-62.59 20.71,-65.17 13.15,-68.16 4.59,-71.53 -4.81,-75.28" fill="none" stroke="rgb(80, 68, 68)" stroke-width="2" stroke-linejoin="round" filter="url(#fuzzy)" /><polyline points="56.88,-51.57 56.97,-50.99 57.11,-50.44 57.12,-49.93 56.91,-49.54 56.39,-49.4 55.49,-49.59 54.19,-50.12 52.48,-50.99 50.36,-52.18 47.8,-53.69 44.78,-55.54 41.24,-57.79 37.15,-60.46 32.45,-63.58 27.07,-67.17 20.89,-71.27 13.91,-75.93" fill="none" stroke="rgb(80, 68, 68)" stroke-width="2" stroke-linejoin="round" filter="url(#fuzzy)" /><polyline points="35.64,-70.76 36.83,-69.89 38.15,-69 39,-68.36 39.4,-67.9 39.44,-67.55 39.15,-67.29 38.55,-67.11 37.66,-67.02 36.5,-66.98 35.07,-66.98 33.34,-67.03 31.25,-67.15 28.75,-67.37 25.81,-67.69 22.41,-68.13 18.54,-68.71 14.18,-69.44 9.32,-70.34 3.99,-71.42 -1.78,-72.71 -8.05,-74.16 -15.17,-75.69" fill="none" stroke="rgb(80, 68, 68)" stroke-width="2" stroke-linejoin="round" filter="url(#fuzzy)" /><polyline points="47.67,-61.7 48.41,-60.8 49.18,-59.96 49.98,-59.06 50.76,-58.21 51.44,-57.46 51.97,-56.89 52.28,-56.53 52.36,-56.41 52.16,-56.57 51.66,-57.01 50.85,-57.76 49.73,-58.83 48.32,-60.18 46.63,-61.84 44.48,-63.99" fill="none" stroke="rgb(80, 68, 68)" stroke-width="2" stroke-linejoin="round" filter="url(#fuzzy)" /><polyline points="6.08,-81.13 8.9,-80.79 10.23,-80.56 10.87,-80.33 11.12,-80.09 11.04,-79.81 10.63,-79.51 9.88,-79.19 8.79,-78.84 7.34,-78.45 5.48,-78.03 3.16,-77.57 0.27,-77.07 -3.25,-76.53 -7.49,-75.95 -12.46,-75.34 -18.11,-74.71 -24.48,-74.04" fill="none" stroke="rgb(80, 68, 68)" stroke-width="2" stroke-linejoin="round" filter="url(#fuzzy)" /><polyline points="45.81,-63.11 46.42,-62.6 47.31,-61.8 48.16,-60.97 48.93,-60.17 49.62,-59.42 50.22,-58.74 50.72,-58.16 51.08,-57.71 51.26,-57.42 51.25,-57.31 51.01,-57.38 50.52,-57.66 49.77,-58.15 48.74,-58.86 47.44,-59.82 45.83,-61.02 43.87,-62.49 41.54,-64.27 38.87,-66.37 35.94,-68.77 32.84,-71.46" fill="none" stroke="rgb(80, 68, 68)" stroke-width="2" stroke-linejoin="round" filter="url(#fuzzy)" /><polyline points="5.18,-81.13 6.42,-81.09 7.57,-80.97 8.8,-80.8 9.86,-80.62 10.62,-80.46 11.08,-80.3 11.23,-80.15 11.06,-80.01 10.57,-79.89 9.74,-79.78 8.59,-79.7 7.1,-79.63 5.22,-79.6 2.85,-79.61 -0.19,-79.64 -4.08,-79.68 -8.84,-79.72" fill="none" stroke="rgb(80, 68, 68)" stroke-width="2" stroke-linejoin="round" filter="url(#fuzzy)" /><polyline points="58.65,-48.33 59.34,-46.76 59.06,-46.08 58.12,-45.8 56.58,-45.76 54.4,-45.92 51.55,-46.28 47.94,-46.88 43.54,-47.75 38.31,-48.92 32.23,-50.4 25.27,-52.2 17.4,-54.34 8.56,-56.83 -1.22,-59.7 -11.92,-62.97 -23.59,-66.6" fill="none" stroke="rgb(80, 68, 68)" stroke-width="2" stroke-linejoin="round" filter="url(#fuzzy)" /><polyline points="1.91,-81.25 2.04,-81.06 3.3,-80.67 5.13,-80.09 7.41,-79.32 10.06,-78.37 13.02,-77.24 16.26,-75.95 19.72,-74.53 23.27,-73.01 26.83,-71.45 30.34,-69.88 33.77,-68.32 37.14,-66.78 40.42,-65.3 43.49,-63.96" fill="none" stroke="rgb(80, 68, 68)" stroke-width="2" stroke-linejoin="round" filter="url(#fuzzy)" /><polyline points="-18.78,-78.45 -16.32,-79.19 -14.92,-79.54 -13.74,-79.82 -12.52,-80.09 -11.33,-80.33 -10.35,-80.5 -9.75,-80.57 -9.59,-80.56 -9.82,-80.47 -10.41,-80.3 -11.37,-80.05 -12.83,-79.71 -14.86,-79.28 -17.28,-78.77" fill="none" stroke="rgb(80, 68, 68)" stroke-width="2" stroke-linejoin="round" filter="url(#fuzzy)" /><polyline points="50.22,-58.81 51.52,-57.3 52.04,-56.47 52.01,-56.05 51.56,-55.86 50.7,-55.86 49.4,-56.06 47.61,-56.51 45.28,-57.19 42.4,-58.1 38.92,-59.25 34.86,-60.66 30.2,-62.36 24.95,-64.41 19.11,-66.85 12.59,-69.68 5.16,-72.88 -3.39,-76.38" fill="none" stroke="rgb(80, 68, 68)" stroke-width="2" stroke-linejoin="round" filter="url(#fuzzy)" /><polyline points="-34.3,-71.69 -32.23,-72.8 -30.25,-73.53 -28.33,-74.02 -26.24,-74.39 -23.91,-74.7 -21.36,-74.95 -18.67,-75.13 -15.88,-75.27 -13,-75.36 -10.02,-75.42 -6.93,-75.47 -3.74,-75.5 -0.5,-75.52 2.79,-75.54 6.07,-75.56 9.33,-75.6 12.55,-75.63 15.73,-75.64 18.85,-75.63 21.83,-75.64 24.51,-75.67" fill="none" stroke="rgb(80, 68, 68)" stroke-width="2" stroke-linejoin="round" filter="url(#fuzzy)" /><polyline points="0.91,-81.17 2.29,-81.11 3.09,-81.09 3.78,-81.03 4.37,-80.93 4.84,-80.76 5.17,-80.51 5.3,-80.18 5.16,-79.77 4.67,-79.3 3.81,-78.75 2.56,-78.14 0.94,-77.45 -1.06,-76.68 -3.43,-75.82 -6.18,-74.88 -9.34,-73.83 -12.94,-72.69 -17,-71.46 -21.56,-70.17 -26.62,-68.81 -32.19,-67.4 -38.19,-65.93" fill="none" stroke="rgb(80, 68, 68)" stroke-width="2" stroke-linejoin="round" filter="url(#fuzzy)" /><polyline points="29.26,-74.38 30.84,-73.59 32.01,-72.9 33.5,-71.98 35.13,-70.91 36.7,-69.8 38.2,-68.67 39.67,-67.54 41.13,-66.43 42.53,-65.37 43.8,-64.4 44.89,-63.56 45.78,-62.87 46.44,-62.35 46.89,-62.03 47.13,-61.88 47.16,-61.92 46.94,-62.15 46.42,-62.62" fill="none" stroke="rgb(80, 68, 68)" stroke-width="2" stroke-linejoin="round" filter="url(#fuzzy)" /><polyline points="-15.06,-79.68 -14.48,-79.57 -13.15,-79.53 -11.18,-79.44 -8.76,-79.24 -6.12,-78.88 -3.38,-78.37 -0.55,-77.75 2.43,-77.04 5.6,-76.27 8.96,-75.45 12.46,-74.59 16.01,-73.69 19.53,-72.77 22.97,-71.83 26.33,-70.91 29.6,-70.01 32.86,-69.08 36.2,-68.04 39.65,-66.83" fill="none" stroke="rgb(80, 68, 68)" stroke-width="2" stroke-linejoin="round" filter="url(#fuzzy)" /><polyline points="52.05,-56.79 52.72,-55.93 52.89,-55.36 52.75,-54.8 52.28,-54.26 51.42,-53.78 50.13,-53.38 48.4,-53.04 46.23,-52.76 43.61,-52.53 40.53,-52.37 36.98,-52.29 32.91,-52.33 28.33,-52.51 23.22,-52.81 17.58,-53.24 11.39,-53.77 4.65,-54.41 -2.66,-55.15 -10.57,-56 -19.07,-57.01 -28.14,-58.18 -37.84,-59.46" fill="none" stroke="rgb(80, 68, 68)" stroke-width="2" stroke-linejoin="round" filter="url(#fuzzy)" /><polyline points="47.67,-61.7 48.4,-60.82 49.11,-60.02 49.84,-59.2 50.54,-58.41 51.16,-57.71 51.65,-57.13 51.98,-56.69 52.13,-56.42 52.07,-56.3 51.79,-56.36 51.28,-56.61 50.51,-57.06 49.48,-57.71 48.16,-58.59 46.54,-59.7 44.63,-61.07 42.43,-62.73 39.92,-64.71 37.06,-67.03 33.75,-69.71 30,-72.68" fill="none" stroke="rgb(80, 68, 68)" stroke-width="2" stroke-linejoin="round" filter="url(#fuzzy)" /><polyline points="39.59,-68.11 40.17,-67.8 40.55,-67.47 40.79,-67.05 40.79,-66.64 40.48,-66.32 39.87,-66.06 39,-65.83 37.86,-65.61 36.43,-65.41 34.67,-65.27 32.53,-65.2 30,-65.23 27.04,-65.37 23.64,-65.62 19.79,-66 15.47,-66.52 10.64,-67.18 5.26,-67.98 -0.73,-68.9 -7.34,-69.92 -14.52,-71.07 -22.06,-72.43" fill="none" stroke="rgb(80, 68, 68)" stroke-width="2" stroke-linejoin="round" filter="url(#fuzzy)" /><polyline points="63.97,-38.58 64.31,-38.2 64.74,-37.27 65.16,-36.26 65.48,-35.47 65.67,-34.93 65.72,-34.61 65.65,-34.47 65.44,-34.52 65.06,-34.8 64.48,-35.37 63.66,-36.32 62.57,-37.71 61.2,-39.58 59.54,-42.01 57.58,-45.02 55.32,-48.59 52.74,-52.71 49.74,-57.42" fill="none" stroke="rgb(80, 68, 68)" stroke-width="2" stroke-linejoin="round" filter="url(#fuzzy)" /><polyline points="47.67,-61.7 48.26,-60.91 48.58,-60.35 48.63,-59.94 48.32,-59.73 47.6,-59.78 46.4,-60.15 44.66,-60.88 42.33,-61.97 39.39,-63.44 35.76,-65.29 31.35,-67.57 26.07,-70.29 19.9,-73.47 13.01,-77.09" fill="none" stroke="rgb(80, 68, 68)" stroke-width="2" stroke-linejoin="round" filter="url(#fuzzy)" /><polyline points="2.5,-81.12 4.17,-81.14 5.28,-81.11 6.27,-81.05 7.24,-80.93 8.15,-80.78 8.9,-80.6 9.4,-80.41 9.61,-80.2 9.53,-79.98 9.17,-79.74 8.54,-79.49 7.65,-79.23 6.49,-78.95 5.04,-78.66 3.27,-78.36 1.15,-78.06 -1.37,-77.75 -4.33,-77.44 -7.75,-77.14 -11.57,-76.85 -15.73,-76.57 -20.39,-76.28" fill="none" stroke="rgb(80, 68, 68)" stroke-width="2" stroke-linejoin="round" filter="url(#fuzzy)" /><polyline points="6.08,-81.13 8.81,-80.75 9.84,-80.39 10.01,-79.96 9.59,-79.4 8.65,-78.7 7.18,-77.86 5.19,-76.87 2.65,-75.72 -0.46,-74.4 -4.17,-72.9 -8.54,-71.21 -13.65,-69.33 -19.55,-67.25 -26.34,-64.96 -34.1,-62.44 -42.75,-59.67" fill="none" stroke="rgb(80, 68, 68)" stroke-width="2" stroke-linejoin="round" filter="url(#fuzzy)" /><polyline points="-1.68,-81.44 -0.71,-81.3 0.06,-81.09 0.36,-80.79 0.26,-80.41 -0.16,-79.91 -0.89,-79.28 -1.95,-78.49 -3.37,-77.52 -5.19,-76.36 -7.47,-74.98 -10.28,-73.38 -13.69,-71.56 -17.76,-69.51 -22.5,-67.22 -27.93,-64.66 -34.06,-61.8 -40.93,-58.61 -48.63,-55.02" fill="none" stroke="rgb(80, 68, 68)" stroke-width="2" stroke-linejoin="round" filter="url(#fuzzy)" /><polyline points="24.21,-76.9 24.73,-76.59 25.18,-76.36 25.89,-76.03 26.76,-75.66 27.6,-75.29 28.32,-74.94 28.84,-74.66 29.14,-74.44 29.21,-74.31 29.04,-74.27 28.54,-74.35 27.65,-74.57 26.31,-74.97 24.53,-75.55 22.36,-76.32 19.79,-77.31 16.86,-78.59" fill="none" stroke="rgb(80, 68, 68)" stroke-width="2" stroke-linejoin="round" filter="url(#fuzzy)" /><polyline points="40.43,-67.67 40.91,-67.44 41.63,-66.87 42.32,-66.27 42.83,-65.82 43.15,-65.51 43.32,-65.29 43.36,-65.15 43.19,-65.14 42.72,-65.33 41.86,-65.78 40.58,-66.53 38.9,-67.58 36.79,-68.97 34.18,-70.75 30.87,-72.97" fill="none" stroke="rgb(80, 68, 68)" stroke-width="2" stroke-linejoin="round" filter="url(#fuzzy)" /><polyline points="52.05,-56.79 52.85,-55.91 53.43,-55.3 53.97,-54.67 54.46,-54.07 54.83,-53.54 55.06,-53.12 55.1,-52.82 54.97,-52.65 54.65,-52.62 54.14,-52.76 53.41,-53.1 52.42,-53.7 51.15,-54.59 49.58,-55.77 47.71,-57.22 45.55,-58.95 43.09,-60.97 40.26,-63.32 37.01,-66.03 33.28,-69.14 29.05,-72.68" fill="none" stroke="rgb(80, 68, 68)" stroke-width="2" stroke-linejoin="round" filter="url(#fuzzy)" /><polyline points="52.05,-56.79 52.73,-56 52.96,-55.63 52.89,-55.43 52.48,-55.42 51.63,-55.69 50.29,-56.29 48.39,-57.23 45.94,-58.53 42.93,-60.2 39.34,-62.26 35.13,-64.79 30.24,-67.86 24.58,-71.52 18.11,-75.77" fill="none" stroke="rgb(80, 68, 68)" stroke-width="2" stroke-linejoin="round" filter="url(#fuzzy)" /><polyline points="16.07,-79.34 31.93,-65.8 27.19,-66.93 19.88,-69.29 14.43,-70.7 11.98,-70.86 11.6,-69.81 11.29,-67.93 9.18,-65.85 4.69,-64.3 -1.13,-63.8 -6.01,-64.38 -7.45,-65.45 -3.93,-66 4.17,-65.1 14.3,-62.48 22.32,-58.97 24.2,-56.41 18.37,-56.83 7.87,-61.08 0.46,-67.72 4.09,-73.3 17.51,-75.35 20.05,-78.11" fill="none" stroke="rgb(80, 68, 68)" stroke-width="2" stroke-linejoin="round" filter="url(#fuzzy)" /><polyline points="67.43,-31.08 26.03,-56.81 1.28,-63.65 -10.39,-64.75 -12.25,-64.2 -5.18,-62.8 7.42,-61.06 20.23,-60.12 29.28,-60.9 33.7,-63.14 35.04,-65.52 35.32,-66.63 35.41,-66.01 34.81,-64.53 32.35,-63.97 27.51,-65.8 21.75,-69.46 20.42,-71.45 43.84,-65.19" fill="none" stroke="rgb(80, 68, 68)" stroke-width="2" stroke-linejoin="round" filter="url(#fuzzy)" /><polyline points="-42.56,-66.46 3.17,-63.96 6.56,-69.71 3.06,-74.48 0.45,-76.92 1.2,-77.26 6.02,-75.68 13.86,-72.44 22.11,-68.18 27.43,-63.97 27.11,-60.99 20.2,-59.91 8.17,-60.62 -5.52,-62.4 -16.66,-64.43 -22.03,-66.12 -20.62,-67.17 -13.79,-67.35 -4.04,-66.66 7.26,-65.48 21.23,-63.98 39.46,-59.18 64.27,-38.67" fill="none" stroke="rgb(80, 68, 68)" stroke-width="2" stroke-linejoin="round" filter="url(#fuzzy)" /><polyline points="60.35,-45.28 6.32,-61.97 -0.64,-65.84 8.91,-65.59 21.23,-63.74 31.12,-61.64 36.18,-60.51 35.73,-61.11 30.61,-63.39 22.78,-66.57 14.46,-69.49 7.48,-71.17 3.08,-71.16 2.03,-69.85 4.48,-68.3 9.21,-67.79 13.15,-68.99 12.75,-71.24 8.34,-72.48 11.43,-69.24 53.19,-55.44" fill="none" stroke="rgb(80, 68, 68)" stroke-width="2" stroke-linejoin="round" filter="url(#fuzzy)" /><polyline points="-7.52,-80.73 34.77,-54.52 41.53,-51.38 41.19,-52.46 39.32,-54.56 33.81,-58.08 24.51,-62.36 14.34,-65.9 6.55,-67.54 2.26,-67.05 0.22,-64.95 -1.52,-62.24 -3.78,-59.88 -5.84,-58.56 -6.46,-58.59 -4.92,-59.8 -0.53,-61.4 8.53,-61.73 24.36,-59.03 42.69,-55.17 39.59,-68.11" fill="none" stroke="rgb(80, 68, 68)" stroke-width="2" stroke-linejoin="round" filter="url(#fuzzy)" /><polyline points="-23.01,-76.92 2.22,-75.69 23.19,-69.48 31.54,-65.09 27.82,-64.42 18.45,-66.06 10.1,-68.06 5.72,-69.46 4.41,-70.23 3.76,-70.56 1.98,-70.44 -0.88,-69.79 -2.29,-68.55 2.5,-66.41 15.64,-62.75 25.35,-60.45 -7.31,-81.06" fill="none" stroke="rgb(80, 68, 68)" stroke-width="2" stroke-linejoin="round" filter="url(#fuzzy)" /><polyline points="-34.3,-71.69 -15.53,-75.99 -7.95,-74.21 2.95,-69.75 13.32,-64.8 19.19,-60.67 20.56,-58.21 19.59,-57.85 18.34,-59.25 17.79,-61.35 18.03,-63.04 18.46,-63.95 17.79,-64.69 14.38,-66.1 8.22,-68.12 4.34,-69.78 14.79,-69.74 47.67,-61.7" fill="none" stroke="rgb(80, 68, 68)" stroke-width="2" stroke-linejoin="round" filter="url(#fuzzy)" /><polyline points="55.1,-53.24 18.78,-70.03 5.59,-74.52 4.39,-73.92 11.91,-70.5 22.54,-66 30.8,-62.02 33.98,-59.09 32.53,-56.73 29.16,-54.47 26.84,-52.61 26.19,-52.04 23.86,-53.54 14.64,-57.53 -1.48,-64.48 -12.13,-74.15 -1.68,-81.44" fill="none" stroke="rgb(80, 68, 68)" stroke-width="2" stroke-linejoin="round" filter="url(#fuzzy)" /><polyline points="-18.78,-78.45 -18.1,-74.5 -17.31,-66.7 -4.52,-60.92 10.34,-58.78 19.33,-59.62 21.34,-61.89 18.77,-64.3 14.1,-66.15 8.71,-67.2 3.2,-67.51 -1.92,-67.29 -5.97,-66.82 -8.46,-66.29 -9.54,-65.92 -10,-65.99 -10.41,-66.81 -10.3,-68.39 -8.67,-70.22 -5.43,-71.39 -0.61,-70.64 13.39,-64.56 62.3,-42.37" fill="none" stroke="rgb(80, 68, 68)" stroke-width="2" stroke-linejoin="round" filter="url(#fuzzy)" /><polyline points="57.57,-50.34 16.16,-63.81 -4.48,-65.02 -6.06,-65.27 -2.2,-67.09 0.82,-69.44 3.5,-70.59 7.82,-69.68 13.9,-67.03 19.74,-63.71 22.74,-60.83 21.5,-59.07 16.74,-58.53 10.85,-58.82 6.39,-59.37 4.3,-59.85 3.24,-60.45 0.55,-61.68 -5.51,-63.88 -13.96,-66.7 -21.21,-69.17 -22.9,-70.4 -14.58,-69.81 10.25,-64.69 61.63,-43.4" fill="none" stroke="rgb(80, 68, 68)" stroke-width="2" stroke-linejoin="round" filter="url(#fuzzy)" /><polyline points="-53.74,-55.02 -3.93,-60.72 1.11,-67.37 0.96,-69.28 1.47,-67.95 1.76,-66.68 1.97,-67.11 3.41,-68.71 6.6,-69.98 10.17,-69.86 11.61,-68.39 9.3,-66.39 4.54,-64.75 1.36,-63.66 3.28,-62.46 8.84,-60.31 8.12,-58.66 -35.36,-71.14" fill="none" stroke="rgb(80, 68, 68)" stroke-width="2" stroke-linejoin="round" filter="url(#fuzzy)" /><polyline points="-23.92,-76.96 -11.4,-76.79 -18.23,-73.25 -19.43,-70.36 -11.39,-68.71 -0.63,-67.93 6.11,-68.07 7.03,-69.25 4.8,-71.18 3.06,-73.19 3.39,-74.57 4.75,-74.87 5,-74.17 2.55,-73.1 -2.76,-72.55 -9.4,-72.97 -12.94,-74.38 4.86,-81.16" fill="none" stroke="rgb(80, 68, 68)" stroke-width="2" stroke-linejoin="round" filter="url(#fuzzy)" /><polyline points="24.03,-76.88 2.32,-62.39 16.96,-58.23 28.5,-57.64 35.09,-56.56 38.15,-55.13 37.21,-55.32 32.61,-58.13 26.54,-62.74 21.48,-67.48 18.51,-71.08 17.05,-73.12 15.93,-73.76 14.62,-73.11 13.6,-71.27 13.7,-69.1 14.36,-69.05 11.38,-74.35 7.15,-81.11" fill="none" stroke="rgb(80, 68, 68)" stroke-width="2" stroke-linejoin="round" filter="url(#fuzzy)" /><polyline points="-57.22,-50.12 4.59,-47.82 8.83,-57.22 6.03,-62.36 7.46,-63.14 12.91,-61.86 20.21,-60.27 27.34,-59.32 32.79,-59.27 35.78,-59.84 36.45,-60.5 35.67,-60.78 34.62,-60.56 34.08,-60.14 33.94,-60.12 33.12,-60.96 30.24,-62.78 24.46,-65.27 16.19,-67.99 7.19,-70.6 -0.18,-72.85 -4.17,-74.35 -3.71,-74.34 6.89,-71.25 48.61,-60.45" fill="none" stroke="rgb(80, 68, 68)" stroke-width="2" stroke-linejoin="round" filter="url(#fuzzy)" /><polyline points="60.33,-45.2 44.88,-60.13 34.11,-63.32 21.35,-64.21 11.8,-65.42 8.58,-66.19 9.24,-65.75 10.39,-64.21 11.82,-62.08 15.79,-59.72 23.32,-57.28 31.59,-54.86 35.53,-52.9 32.67,-52.41 28.52,-54.03 37.31,-54.5 60.35,-45.28" fill="none" stroke="rgb(80, 68, 68)" stroke-width="2" stroke-linejoin="round" filter="url(#fuzzy)" /><polyline points="-44.28,-64.93 -28.19,-65.61 -12.43,-66.82 -2.46,-68.12 5.59,-68.66 13.28,-67.7 20.11,-65.7 24.62,-63.72 25.73,-62.61 23.83,-62.51 20.8,-63.11 18.97,-63.89 19.78,-64.42 22.98,-64.5 26.96,-64.21 29.77,-63.85 30.19,-63.73 28.18,-64.04 24.55,-64.77 20.79,-65.39 19.15,-64.52 22.05,-60.37 27.68,-53.42 19.54,-50.68 -43.45,-65.52" fill="none" stroke="rgb(80, 68, 68)" stroke-width="2" stroke-linejoin="round" filter="url(#fuzzy)" /><polyline points="56.88,-51.57 18.42,-70.03 7.86,-76.21 1.46,-77.08 -4.75,-75.97 -8.33,-74.49 -7.5,-73.03 -2.71,-71.46 4.34,-69.68 11.93,-67.74 18.92,-65.83 24.58,-64.07 28.49,-62.49 30.43,-61.06 30.7,-59.74 30.18,-58.56 29.91,-57.77 30.23,-57.96 30.19,-59.82 28.16,-63.59 23.45,-68.37 16.99,-72.12 8.83,-72.39 -7.56,-66.54 -57.81,-50.04" fill="none" stroke="rgb(80, 68, 68)" stroke-width="2" stroke-linejoin="round" filter="url(#fuzzy)" /><polyline points="13.94,-79.67 26.54,-72.55 26.89,-69.56 20.43,-69.96 15.54,-69.95 13.97,-68.43 13.58,-65.96 11.63,-63.31 6.47,-60.92 -1.58,-58.95 -10.23,-57.51 -16.31,-56.76 -17.42,-56.91 -13.18,-58.02 -5.28,-59.87 3.57,-61.99 10.77,-63.9 14.33,-65.6 12.99,-67.58 7.13,-70.28 0.57,-73.18 0.25,-75 8.86,-76.07 5.18,-81.13" fill="none" stroke="rgb(80, 68, 68)" stroke-width="2" stroke-linejoin="round" filter="url(#fuzzy)" /><polyline points="56.84,-50.89 32.44,-61.95 35.65,-59.53 35.38,-58.65 31.08,-59.34 27.36,-59.64 25.15,-59.66 23.17,-60.3 20.72,-61.55 17.69,-62.48 13.06,-62.59 5.6,-62.67 -3.13,-64.23 -7.35,-67.82 -2.88,-71.77 0.34,-73.14 -32.44,-73" fill="none" stroke="rgb(80, 68, 68)" stroke-width="2" stroke-linejoin="round" filter="url(#fuzzy)" /><polyline points="-3.88,-81.16 -22.61,-74.2 -19.06,-71.64 -7.41,-69.71 2.84,-68.49 8.91,-67.25 12.47,-65.4 15.52,-63.4 18.49,-62.16 20.76,-62.01 21.73,-62.53 21.12,-63.08 18.99,-63.39 16.01,-63.42 14.13,-63.03 16.26,-61.82 24.22,-59.63 35.76,-57.22 44.26,-56.46 46.02,-58.16 57.57,-50.34" fill="none" stroke="rgb(80, 68, 68)" stroke-width="2" stroke-linejoin="round" filter="url(#fuzzy)" /><polyline points="66.32,-33.52 23.43,-62.05 7.18,-70.69 2.12,-72.85 3.97,-72.25 8.79,-70.07 14.4,-67.26 20.43,-64.56 26.76,-62.36 32.49,-60.85 36.31,-60.23 37.4,-60.5 35.9,-61.4 32.66,-62.45 28.43,-63.25 23.41,-63.81 17.69,-64.33 12.22,-64.63 8.72,-63.84 7.1,-61.57 7.36,-60.44 43.84,-65.19" fill="none" stroke="rgb(80, 68, 68)" stroke-width="2" stroke-linejoin="round" filter="url(#fuzzy)" /><polyline points="50.8,-58.07 37.64,-52.36 17.58,-58.04 8.94,-61.23 8.12,-62.3 9.71,-63.54 10.78,-65.53 10.7,-67.63 9.79,-69.1 8.44,-69.72 6.95,-69.71 5.4,-69.53 3.63,-69.59 1.4,-70.07 -1.26,-70.83 -3.71,-71.48 -4.93,-71.58 -4.31,-70.86 -2.62,-69.41 -2.34,-67.6 -6.08,-66.07 -12.61,-65.45 -12.77,-65.7 8.54,-63.14 61.63,-43.4" fill="none" stroke="rgb(80, 68, 68)" stroke-width="2" stroke-linejoin="round" filter="url(#fuzzy)" /><polyline points="20.77,-77.9 17.79,-67.22 -5.41,-66.7 -18.99,-68.56 -21.16,-70.51 -17.32,-71.49 -12.31,-71.23 -8.74,-70.22 -7.27,-69.08 -7.06,-68.04 -6.25,-66.91 -2.8,-65.32 3.55,-62.94 8.94,-59.8 5.15,-57.57 -14.94,-61.38 -33.44,-71.93" fill="none" stroke="rgb(80, 68, 68)" stroke-width="2" stroke-linejoin="round" filter="url(#fuzzy)" /><polyline points="53.19,-55.44 28.41,-54.96 5.93,-54.18 4.91,-52.15 12.84,-50.78 19.22,-50.84 20.7,-51.87 17.67,-53.25 11.76,-54.7 4.84,-56.18 -1.55,-57.81 -6.45,-59.81 -9.18,-62.27 -9.12,-64.95 -5.95,-67.33 -0.21,-68.77 6.9,-68.8 14.74,-67.31 23.71,-64.74 32.9,-62.61 38.92,-62.56 53.33,-55.61" fill="none" stroke="rgb(80, 68, 68)" stroke-width="2" stroke-linejoin="round" filter="url(#fuzzy)" /><polyline points="52.05,-56.79 13.83,-62.93 2.45,-64.11 -5.31,-67.01 -6.57,-70.34 -0.59,-72.15 9.8,-71.63 20.87,-69.14 29.77,-65.79 35.3,-62.68 38.11,-60.39 40.11,-58.67 42.93,-57.07 46.22,-55.83 47.33,-56.27 43.73,-59.85 37.63,-65.53 45.81,-63.11" fill="none" stroke="rgb(80, 68, 68)" stroke-width="2" stroke-linejoin="round" filter="url(#fuzzy)" /><polyline points="-1.02,-81.3 11.08,-78.25 15.44,-72.71 9.93,-69.24 0.81,-68.67 -5.44,-69.51 -6.71,-70.61 -4.41,-71.73 -1.05,-73.06 1.77,-74.5 4.14,-75.57 7.31,-75.53 12.28,-73.84 18.44,-70.53 23.03,-66.6 22.17,-63.85 14.01,-64.07 3.45,-67.85 2.37,-74.43 6.08,-81.13" fill="none" stroke="rgb(80, 68, 68)" stroke-width="2" stroke-linejoin="round" filter="url(#fuzzy)" /><polyline points="24.03,-76.88 -2.04,-77.3 -2.62,-74.54 5.83,-69.02 11.65,-64.48 10.98,-62.81 6.39,-63.2 2.2,-63.79 1,-63.34 2.86,-61.75 6.19,-59.84 9.21,-58.56 11.03,-58.48 11.95,-59.58 12.91,-61.46 14.49,-63.56 16.46,-65.21 18.07,-65.59 18.75,-64.04 18.62,-60.84 18.6,-57.94 20.13,-58.5 24.41,-63.93 45.81,-63.11" fill="none" stroke="rgb(80, 68, 68)" stroke-width="2" stroke-linejoin="round" filter="url(#fuzzy)" /><polyline points="-44.28,-64.93 -4.25,-71.78 19.77,-70.49 31.48,-67.08 34.58,-63.99 31.85,-62.53 26.39,-62.6 21.45,-63.25 19.05,-63.45 18.92,-62.71 18.75,-61.3 16.05,-59.87 10.11,-59.02 2.57,-59.04 -4.09,-60 -8.28,-61.87 -9.05,-64.12 -3.23,-65.08 18.09,-60.79 64.27,-38.67" fill="none" stroke="rgb(80, 68, 68)" stroke-width="2" stroke-linejoin="round" filter="url(#fuzzy)" /><polyline points="-32.44,-73 23.68,-55.31 26.8,-57.69 11.46,-61.69 -1.19,-62.66 -2.44,-61 6.35,-58.48 18.91,-56.87 29.08,-57.22 33.41,-59.53 31.39,-63.03 24.54,-66.77 15.61,-69.98 7.86,-72.13 4.01,-72.75 4.82,-71.35 8.28,-67.81 10.94,-63.27 11.81,-60.88 13.84,-65.14 -1.02,-81.3" fill="none" stroke="rgb(80, 68, 68)" stroke-width="2" stroke-linejoin="round" filter="url(#fuzzy)" /><polyline points="32.02,-73.11 -6.59,-67.81 -11.31,-70.28 -16.63,-70.5 -23.04,-68.68 -24.58,-66.97 -19.13,-66.4 -9.82,-66.75 -2.31,-67.21 -0.54,-67.12 -3.84,-66.23 -7.37,-64.84 -5.84,-63.67 1.49,-63.55 8.59,-64.94 6.51,-66.97 -10.27,-65.4 -57.22,-50.12" fill="none" stroke="rgb(80, 68, 68)" stroke-width="2" stroke-linejoin="round" filter="url(#fuzzy)" />
    </g>
    
        <g id="pointNose">
          <g id="rightNose"><circle r="1.75" cx="8.158" cy="8.690000000000001" stroke="black" fill="none" stroke-width="1.0" filter="url(#fuzzy)" /><circle r="1.23" cx="10.078" cy="6.686" stroke="black" fill="none" stroke-width="1.0" filter="url(#fuzzy)" /><circle r="1.226" cx="9.574" cy="6.502000000000001" stroke="black" fill="none" stroke-width="1.0" filter="url(#fuzzy)" /><circle r="2.976" cx="10.106" cy="6.33" stroke="black" fill="none" stroke-width="1.0" filter="url(#fuzzy)" /><circle r="2.356" cx="7.718" cy="7.554" stroke="black" fill="none" stroke-width="1.0" filter="url(#fuzzy)" /><circle r="1.812" cx="7.2620000000000005" cy="7.6739999999999995" stroke="black" fill="none" stroke-width="1.0" filter="url(#fuzzy)" /><circle r="1.504" cx="10.33" cy="8.43" stroke="black" fill="none" stroke-width="1.0" filter="url(#fuzzy)" /><circle r="2.41" cx="9.374" cy="8.582" stroke="black" fill="none" stroke-width="1.0" filter="url(#fuzzy)" /><circle r="1.73" cx="6.818" cy="8.906" stroke="black" fill="none" stroke-width="1.0" filter="url(#fuzzy)" /><circle r="2.588" cx="9.538" cy="8.322000000000001" stroke="black" fill="none" stroke-width="1.0" filter="url(#fuzzy)" /></g>
          <g id="leftNose"><circle r="2.456" cx="-13.172" cy="7.742000000000001" stroke="black" fill="none" stroke-width="1.0" filter="url(#fuzzy)" /><circle r="2.888" cx="-10.436" cy="7.57" stroke="black" fill="none" stroke-width="1.0" filter="url(#fuzzy)" /><circle r="2.948" cx="-10.624" cy="10.17" stroke="black" fill="none" stroke-width="1.0" filter="url(#fuzzy)" /><circle r="1.108" cx="-12.688" cy="10.242" stroke="black" fill="none" stroke-width="1.0" filter="url(#fuzzy)" /><circle r="2.678" cx="-12.844000000000001" cy="8.914" stroke="black" fill="none" stroke-width="1.0" filter="url(#fuzzy)" /><circle r="2.854" cx="-11.688" cy="9.370000000000001" stroke="black" fill="none" stroke-width="1.0" filter="url(#fuzzy)" /><circle r="1.45" cx="-11.128" cy="8.07" stroke="black" fill="none" stroke-width="1.0" filter="url(#fuzzy)" /><circle r="1.736" cx="-10.964" cy="9.33" stroke="black" fill="none" stroke-width="1.0" filter="url(#fuzzy)" /><circle r="1.28" cx="-12.196" cy="7.566000000000001" stroke="black" fill="none" stroke-width="1.0" filter="url(#fuzzy)" /><circle r="2.26" cx="-10.476" cy="10.642" stroke="black" fill="none" stroke-width="1.0" filter="url(#fuzzy)" /></g>
        </g>
      
    <g id="mouth">
      <polyline points="-16.15,39.25 -15.87,41 -15.57,42.71 -15.28,44.38 -14.97,46.01 -14.66,47.6 -14.34,49.15 -14.02,50.66 -13.69,52.14 -13.35,53.57 -13.01,54.97 -12.66,56.32 -12.31,57.64 -11.95,58.92 -11.59,60.16 -11.22,61.37 -10.85,62.53 -10.47,63.66 -10.09,64.75 -9.71,65.8 -9.32,66.81 -8.93,67.78 -8.54,68.72 -8.14,69.62 -7.74,70.48 -7.34,71.31 -6.93,72.09 -6.52,72.84 -6.11,73.56 -5.7,74.23 -5.29,74.87 -4.88,75.47 -4.46,76.04 -4.04,76.57 -3.63,77.06 -3.21,77.51 -2.79,77.93 -2.37,78.31 -1.95,78.66 -1.54,78.97 -1.12,79.25 -0.7,79.49 -0.29,79.69 0.13,79.86 0.54,79.99 0.96,80.08 1.37,80.14 1.78,80.17 2.18,80.16 2.59,80.11 2.99,80.03 3.39,79.92 3.79,79.77 4.18,79.58 4.57,79.36 4.96,79.11 5.34,78.82 5.72,78.5 6.1,78.14 6.47,77.75 6.84,77.32 7.2,76.86 7.56,76.37 7.91,75.84 8.26,75.28 8.6,74.69 8.93,74.06 9.26,73.4 9.59,72.7 9.91,71.97 10.22,71.21 10.52,70.42 10.82,69.59 11.11,68.73 11.39,67.83 11.67,66.91 11.94,65.95 12.2,64.96 12.45,63.93 12.69,62.88 12.93,61.79 13.16,60.67 13.37,59.52 13.58,58.33 13.78,57.12 13.97,55.87 14.15,54.59 14.32,53.28 14.48,51.94 14.63,50.56 14.77,49.16 14.9,47.72 15.02,46.26 15.12,44.76 15.22,43.23 15.3,41.67 15.37,40.08 15.43,38.46 15.48,36.8 15.52,35.12 15.52,35.12 15.2,36.46 14.88,37.77 14.57,39.06 14.25,40.33 13.93,41.57 13.62,42.79 13.3,43.98 12.98,45.15 12.67,46.29 12.35,47.41 12.03,48.5 11.72,49.57 11.4,50.62 11.08,51.64 10.77,52.63 10.45,53.6 10.13,54.54 9.82,55.46 9.5,56.36 9.18,57.22 8.87,58.07 8.55,58.88 8.23,59.68 7.92,60.44 7.6,61.18 7.28,61.9 6.97,62.58 6.65,63.25 6.33,63.88 6.02,64.49 5.7,65.08 5.38,65.64 5.07,66.17 4.75,66.67 4.43,67.15 4.12,67.6 3.8,68.03 3.48,68.43 3.17,68.8 2.85,69.14 2.53,69.46 2.22,69.75 1.9,70.02 1.58,70.25 1.27,70.46 0.95,70.64 0.63,70.8 0.32,70.93 0,71.03 -0.32,71.1 -0.63,71.14 -0.95,71.16 -1.27,71.15 -1.58,71.11 -1.9,71.04 -2.22,70.95 -2.53,70.82 -2.85,70.67 -3.17,70.49 -3.48,70.28 -3.8,70.05 -4.12,69.78 -4.43,69.49 -4.75,69.17 -5.07,68.81 -5.38,68.43 -5.7,68.03 -6.02,67.59 -6.33,67.12 -6.65,66.63 -6.97,66.1 -7.28,65.55 -7.6,64.96 -7.92,64.35 -8.23,63.71 -8.55,63.03 -8.87,62.33 -9.18,61.6 -9.5,60.84 -9.82,60.05 -10.13,59.23 -10.45,58.38 -10.77,57.49 -11.08,56.58 -11.4,55.64 -11.72,54.67 -12.03,53.67 -12.35,52.63 -12.67,51.57 -12.98,50.48 -13.3,49.35 -13.62,48.2 -13.93,47.01 -14.25,45.79 -14.57,44.55 -14.88,43.27 -15.2,41.96 -15.52,40.61 -15.83,39.24" fill="rgb(215,127,140)" stroke="black" stroke-width="3" stroke-linejoin="round" filter="url(#fuzzy)" />
    </g>
  </svg>
  