
  <svg viewBox="-100 -100 200 200" xmlns="http://www.w3.org/2000/svg" width="500" height="500" id="face-svg">
    <defs>
      <clipPath id="leftEyeClipPath">
        <polyline points="27.51,-1.87 27.37,-2.02 27.2,-2.17 26.99,-2.31 26.75,-2.46 26.48,-2.59 26.17,-2.73 25.83,-2.86 25.46,-2.99 25.06,-3.12 24.62,-3.24 24.16,-3.36 23.67,-3.48 23.14,-3.6 22.59,-3.72 22.01,-3.83 21.47,-3.94 20.89,-4.04 20.26,-4.15 19.59,-4.26 18.87,-4.37 18.11,-4.48 17.3,-4.59 16.46,-4.7 15.59,-4.81 14.67,-4.92 13.73,-5.03 12.76,-5.14 11.76,-5.25 10.74,-5.35 9.7,-5.45 8.65,-5.55 7.58,-5.65 6.49,-5.74 5.4,-5.82 4.3,-5.9 3.21,-5.98 2.11,-6.05 1.01,-6.11 -0.08,-6.17 -1.16,-6.22 -2.24,-6.26 -3.3,-6.3 -4.34,-6.33 -5.37,-6.35 -6.38,-6.37 -7.37,-6.38 -8.34,-6.38 -9.28,-6.37 -10.19,-6.35 -11.08,-6.33 -11.95,-6.3 -12.78,-6.26 -13.59,-6.21 -14.36,-6.16 -15.1,-6.1 -15.82,-6.03 -16.5,-5.96 -17.15,-5.88 -17.78,-5.79 -18.37,-5.7 -18.93,-5.6 -19.46,-5.5 -19.97,-5.39 -20.45,-5.28 -20.9,-5.16 -21.33,-5.04 -21.73,-4.92 -22.11,-4.79 -22.47,-4.66 -22.79,-4.52 -23.1,-4.38 -23.38,-4.23 -23.64,-4.09 -23.87,-3.93 -24.08,-3.78 -24.27,-3.62 -24.44,-3.46 -24.59,-3.29 -24.72,-3.12 -23.51,-0.97 -23.13,-0.74 -22.74,-0.51 -22.33,-0.28 -21.91,-0.05 -21.48,0.17 -21.03,0.4 -20.57,0.63 -20.09,0.86 -19.6,1.09 -19.1,1.32 -18.59,1.54 -18.06,1.76 -17.51,1.99 -16.96,2.21 -16.39,2.43 -15.81,2.64 -15.21,2.86 -14.59,3.08 -13.96,3.29 -13.32,3.5 -12.66,3.71 -11.98,3.91 -11.29,4.11 -10.59,4.3 -9.88,4.49 -9.15,4.67 -8.41,4.85 -7.66,5.02 -6.9,5.18 -6.12,5.33 -5.34,5.47 -4.55,5.6 -3.75,5.72 -2.95,5.84 -2.13,5.94 -1.32,6.03 -0.49,6.1 0.33,6.17 1.16,6.22 2,6.26 2.83,6.28 3.67,6.3 4.5,6.29 5.33,6.28 6.16,6.25 6.99,6.21 7.81,6.15 8.63,6.07 9.44,5.99 10.24,5.89 11.04,5.77 11.83,5.64 12.6,5.5 13.37,5.34 14.13,5.17 14.87,4.99 15.6,4.8 16.32,4.6 17.02,4.38 17.7,4.15 18.37,3.92 19.03,3.67 19.66,3.42 20.28,3.16 20.84,2.97 21.38,2.78 21.92,2.59 22.44,2.39 22.94,2.19 23.43,1.98 23.9,1.78 24.35,1.57 24.79,1.36 25.21,1.16 25.61,0.95 26,0.75 26.36,0.55 26.7,0.35 27.02,0.16" />
      </clipPath>
      <clipPath id="rightEyeClipPath">
        <polyline points="-29.32,-2.86 -29.26,-2.99 -29.16,-3.11 -29.02,-3.23 -28.84,-3.35 -28.62,-3.46 -28.37,-3.57 -28.08,-3.68 -27.75,-3.79 -27.38,-3.9 -26.98,-4 -26.55,-4.1 -26.08,-4.2 -25.57,-4.3 -25.03,-4.4 -24.47,-4.5 -23.95,-4.59 -23.38,-4.68 -22.77,-4.77 -22.1,-4.86 -21.38,-4.95 -20.61,-5.05 -19.8,-5.14 -18.95,-5.24 -18.06,-5.33 -17.13,-5.43 -16.17,-5.52 -15.17,-5.61 -14.15,-5.7 -13.11,-5.79 -12.04,-5.88 -10.95,-5.96 -9.85,-6.04 -8.74,-6.12 -7.62,-6.19 -6.49,-6.26 -5.35,-6.32 -4.22,-6.37 -3.09,-6.43 -1.97,-6.47 -0.86,-6.51 0.25,-6.54 1.34,-6.57 2.41,-6.59 3.47,-6.6 4.51,-6.6 5.52,-6.6 6.51,-6.59 7.48,-6.57 8.42,-6.54 9.33,-6.51 10.22,-6.46 11.07,-6.41 11.89,-6.35 12.68,-6.29 13.45,-6.21 14.18,-6.13 14.87,-6.05 15.54,-5.95 16.18,-5.85 16.78,-5.74 17.36,-5.63 17.91,-5.51 18.42,-5.38 18.92,-5.25 19.39,-5.11 19.83,-4.97 20.25,-4.83 20.64,-4.68 21.01,-4.52 21.35,-4.35 21.67,-4.19 21.97,-4.01 22.24,-3.83 22.5,-3.65 22.73,-3.46 22.94,-3.27 23.13,-3.07 23.3,-2.87 23.45,-2.66 22.72,-0.67 22.42,-0.38 22.1,-0.1 21.78,0.18 21.44,0.46 21.09,0.74 20.73,1.02 20.35,1.29 19.96,1.57 19.56,1.84 19.15,2.1 18.72,2.36 18.28,2.62 17.83,2.88 17.36,3.12 16.88,3.37 16.38,3.61 15.87,3.85 15.34,4.08 14.8,4.3 14.24,4.52 13.67,4.74 13.08,4.94 12.48,5.14 11.86,5.32 11.22,5.5 10.57,5.66 9.9,5.81 9.22,5.95 8.52,6.07 7.81,6.18 7.09,6.28 6.35,6.36 5.6,6.43 4.84,6.48 4.06,6.52 3.28,6.54 2.48,6.55 1.67,6.54 0.86,6.51 0.03,6.47 -0.8,6.41 -1.64,6.34 -2.49,6.25 -3.34,6.14 -4.2,6.03 -5.06,5.89 -5.92,5.75 -6.78,5.59 -7.65,5.42 -8.51,5.24 -9.38,5.04 -10.24,4.84 -11.1,4.63 -11.95,4.4 -12.8,4.18 -13.64,3.94 -14.47,3.7 -15.3,3.45 -16.11,3.2 -16.92,2.95 -17.71,2.7 -18.49,2.44 -19.26,2.19 -20.01,1.93 -20.66,1.72 -21.31,1.5 -21.94,1.29 -22.56,1.07 -23.17,0.86 -23.76,0.65 -24.34,0.44 -24.9,0.23 -25.44,0.03 -25.96,-0.18 -26.47,-0.37 -26.95,-0.57 -27.41,-0.76 -27.85,-0.94 -28.26,-1.11" />
      </clipPath>
      <filter id="fuzzy">
        <feTurbulence id="turbulence" baseFrequency="0.05" numOctaves="3" type="noise" result="noise" />
        <feDisplacementMap in="SourceGraphic" in2="noise" scale="2" />
      </filter>
      <linearGradient id="rainbowGradient" x1="0%" y1="0%" x2="100%" y2="0%">
        <stop offset="0%" style="stop-color: rgb(165, 42, 42); stop-opacity: 1" />
        <stop offset="50%" style="stop-color: rgb(255, 192, 203); stop-opacity: 1" />
        <stop offset="100%" style="stop-color: rgb(123, 104, 238); stop-opacity: 1" />
      </linearGradient>
    </defs>
    <rect x="-100" y="-100" width="100%" height="100%" fill="rgb(250, 235, 215)" />
    <polyline id="faceContour" points="66.38,0.86 66.24,1.42 66.08,4.19 66.26,5.15 66.22,7.04 66.01,7.38 65.86,10.27 65.89,10.07 65.87,11.83 65.51,13.9 65.42,14.67 65.37,16.89 65.51,15.82 64.9,19.1 65.05,18.92 64.25,22.48 63.52,26.03 63.52,25.52 63.49,26.58 63.85,25.91 63.04,29.51 62.21,32.42 61.95,33.18 61.92,32.92 61.69,33.71 61.41,35.04 61.01,36.91 60.6,37.73 59.69,40.92 59.78,40.11 59.16,41.9 57.83,45.2 58.39,44.79 57.56,46.12 56.44,49.21 56.89,47.82 56.38,49.13 55.46,51.08 55.31,51.17 54.67,53.48 53.46,55.39 52.95,56.58 52.8,57.01 51.75,58.36 50.71,59.86 50.34,60.55 48.87,63.05 49.24,62.96 48.92,63.11 47.54,65.47 48.24,64.28 47,66.36 45.31,68.29 44.73,69.05 44.17,69.45 42.65,71.62 42.16,71.99 40.73,73.6 41.2,73.33 39.42,74.84 38.29,76.35 37.68,77.05 37.82,76.96 37.56,76.88 36.9,78.16 33.99,80.08 33.17,80.55 31.88,82 32.04,82.13 30.33,82.86 30.31,83.3 28.2,84.83 26.91,85.31 27.91,84.85 26.69,85.59 25.09,86.59 24.84,86.82 23.71,87.26 21.87,88.32 21,88.49 19.89,89.22 20.14,88.97 18.99,89.71 18.66,89.79 17.81,89.95 15.55,91.02 15.77,90.99 14.41,91.42 13.35,91.71 11.24,92.25 10.1,92.26 10.43,92.61 8.7,92.53 7.62,92.82 6.46,92.88 3.8,93.49 2.1,93.44 2.24,93.66 2.07,93.31 1.66,93.53 0,93.58 -1.34,93.34 -0.81,93.65 -4.63,93.43 -4.3,93.45 -4.22,93.4 -6.25,92.92 -8.21,92.95 -7.37,93.05 -10.54,92.35 -11.29,92.17 -11.7,92.17 -11.37,91.97 -13.39,91.72 -15.18,91.08 -14.96,91.07 -17.19,90.64 -17.36,90.19 -18.55,90.08 -19.66,89.3 -21.05,88.5 -20.69,88.78 -23.9,87.32 -23.51,87.84 -24.78,86.96 -23.96,87.16 -24.81,86.57 -28.19,85 -27.8,84.69 -29.5,83.76 -30.34,82.74 -30.69,83.14 -32.12,81.78 -33.38,80.58 -33.39,80.71 -33.56,80.43 -35.84,78.86 -35.38,79.09 -38.35,76.09 -36.97,77.41 -38.3,76.02 -39.84,75.25 -40.62,73.99 -41.91,72.16 -42.79,71.51 -43.86,70.23 -44.75,68.66 -44.43,69.65 -46.17,67.58 -46.79,65.99 -46.54,67 -48.27,64.59 -48.19,64.47 -49.6,61.66 -49.37,61.72 -50.62,60.14 -51.31,59.07 -52.1,58.05 -52.22,57.31 -53.52,55 -54.5,53.56 -55.44,51.61 -55.22,51.63 -55.44,50.91 -55.67,51.41 -57.26,47.12 -56.44,48.45 -57.24,46.5 -58.69,43.17 -59.26,42.05 -59.13,42.48 -58.95,42.76 -59.92,39.67 -60.11,38.97 -60.73,37.4 -60.91,36.58 -61.39,35.69 -61.8,34.28 -62.83,30.46 -62.89,30.38 -62.98,29.43 -63.01,29.46 -63.6,25.73 -64.36,23.42 -64.18,23.06 -64.5,20.33 -64.65,20.58 -65.03,18.57 -65.03,17.25 -65.17,18.14 -65.41,15.36 -65.57,12.57 -65.98,9.32 -65.58,12.17 -66,7.25 -65.91,9.86 -66.19,6.66 -66.3,3.35 -66.16,3.42 -66.18,0.87 -66.27,-0.81 -66.07,-1.33 -66.33,-3.16 -66.16,-5.33 -66.09,-8.41 -66.25,-6.54 -66.03,-8.52 -65.97,-10.04 -65.85,-10.49 -65.73,-13 -65.39,-15.71 -64.97,-17.05 -64.86,-19.02 -64.97,-17.76 -64.64,-19.85 -64.23,-22.71 -64.56,-21.21 -63.71,-25.13 -63.52,-26.01 -63.29,-27.11 -62.91,-29.06 -62.48,-30.29 -62.22,-32.01 -61.59,-34.09 -61.49,-33.79 -60.95,-36.79 -60.65,-37.33 -60.65,-37.91 -60.4,-39.08 -59.88,-40.34 -59.47,-41.67 -58.58,-44 -57.87,-45.67 -57.78,-45.65 -56.93,-47.54 -57.31,-47.47 -56.36,-49.21 -55.49,-51.25 -54.57,-53.07 -53.86,-55.05 -53.55,-55.32 -52.63,-56.4 -51.82,-58.09 -51.92,-58.19 -50.77,-60.23 -50.67,-60.58 -49.44,-62.08 -48.77,-63.4 -47.87,-64.9 -47.51,-64.6 -46.84,-66.05 -46.83,-66.23 -45.69,-67.52 -44.78,-69.04 -43.43,-69.89 -42.9,-71.3 -42.6,-71.39 -41.49,-73.12 -40.63,-73.67 -39.31,-75.11 -38.65,-75.48 -36.64,-77.88 -35.98,-78.82 -36.89,-77.86 -35.42,-78.8 -34.27,-80.06 -33.97,-80.51 -33.88,-80.27 -32.54,-81.71 -31.31,-82.01 -30.93,-82.72 -29.14,-83.93 -28.77,-84.4 -28.39,-84.28 -26.55,-85.62 -25.17,-86.47 -25.38,-86.42 -23.05,-87.63 -21.78,-88.47 -22.06,-88.13 -21.41,-88.49 -18.29,-90.11 -17.9,-89.94 -16.13,-90.78 -17.14,-90.35 -16.64,-90.4 -13.91,-91.44 -13.9,-91.69 -13.39,-91.56 -11.31,-92 -11.19,-92.25 -7.87,-93.02 -7.65,-92.93 -6.73,-92.92 -5.26,-93.39 -5.33,-93.23 -4.59,-93.22 -2.71,-93.31 -3.14,-93.53 -2.16,-93.29 0.4,-93.5 2.56,-93.64 1.56,-93.6 2.17,-93.44 3.77,-93.37 4.82,-93.2 6.96,-92.92 8.72,-92.8 8.9,-93 9.63,-92.26 10.98,-92.24 12.28,-91.92 10.61,-92.52 14.74,-91.16 14.88,-91.17 17.09,-90.61 16.59,-90.61 16.44,-90.49 19.29,-89.31 18.93,-89.46 20.06,-89.29 22.3,-88.1 22.8,-88.04 24.19,-86.97 24.73,-86.69 23.81,-87.05 25.18,-86.61 27,-85.36 28.79,-84.31 29.39,-84.14 30.99,-82.8 30.74,-82.82 32.09,-81.84 33.5,-80.83 33.35,-80.64 35.06,-79.74 34.48,-79.89 36.12,-78.51 36.15,-78.61 37.9,-77.25 39.26,-75.57 40.37,-74.05 40,-74.35 41,-73.73 42.13,-72.3 43.58,-70.36 43.63,-70.71 45.63,-67.85 45.72,-67.68 45.03,-68.65 47.24,-66.04 47.22,-65.78 48.27,-63.86 48.57,-63.78 49.29,-62.23 51.06,-59.96 51.01,-59.91 51.94,-58.07 52.74,-56.58 53.02,-56.24 53.75,-54.07 53.44,-55.08 54.7,-53.39 55.54,-50.73 56.04,-49.62 56.74,-48.02 57.64,-45.6 57.04,-47.37 57.72,-45.46 59.1,-43.09 59.26,-42.38 59.48,-41.33 60.36,-38.1 60.61,-38.13 60.82,-37.98 61.27,-35.98 62.06,-33.31 62.17,-33.05 62.38,-31.32 62.67,-29.67 62.41,-30.6 63.56,-26.09 63.77,-25.72 64.02,-25.19 63.94,-23.67 64.92,-19.78 64.33,-22.16 64.48,-20.24 65.37,-15.45 65.27,-16.57 65.7,-12.63 65.74,-12.3 65.69,-10.62 65.76,-11.66 65.78,-9.18 65.82,-9.19 66.01,-7.53 66.27,-3.01 66.07,-1.48 66.27,-1.27 66.38,0.86 66.24,1.42" fill="rgb(220, 20, 60)" stroke="black" stroke-width="1.6666666666666665" stroke-linejoin="round" filter="url(#fuzzy)" />
    <g transform="translate(36.27 -27.38)">
      <polyline id="rightCountour" points="-29.32,-2.86 -29.26,-2.99 -29.16,-3.11 -29.02,-3.23 -28.84,-3.35 -28.62,-3.46 -28.37,-3.57 -28.08,-3.68 -27.75,-3.79 -27.38,-3.9 -26.98,-4 -26.55,-4.1 -26.08,-4.2 -25.57,-4.3 -25.03,-4.4 -24.47,-4.5 -23.95,-4.59 -23.38,-4.68 -22.77,-4.77 -22.1,-4.86 -21.38,-4.95 -20.61,-5.05 -19.8,-5.14 -18.95,-5.24 -18.06,-5.33 -17.13,-5.43 -16.17,-5.52 -15.17,-5.61 -14.15,-5.7 -13.11,-5.79 -12.04,-5.88 -10.95,-5.96 -9.85,-6.04 -8.74,-6.12 -7.62,-6.19 -6.49,-6.26 -5.35,-6.32 -4.22,-6.37 -3.09,-6.43 -1.97,-6.47 -0.86,-6.51 0.25,-6.54 1.34,-6.57 2.41,-6.59 3.47,-6.6 4.51,-6.6 5.52,-6.6 6.51,-6.59 7.48,-6.57 8.42,-6.54 9.33,-6.51 10.22,-6.46 11.07,-6.41 11.89,-6.35 12.68,-6.29 13.45,-6.21 14.18,-6.13 14.87,-6.05 15.54,-5.95 16.18,-5.85 16.78,-5.74 17.36,-5.63 17.91,-5.51 18.42,-5.38 18.92,-5.25 19.39,-5.11 19.83,-4.97 20.25,-4.83 20.64,-4.68 21.01,-4.52 21.35,-4.35 21.67,-4.19 21.97,-4.01 22.24,-3.83 22.5,-3.65 22.73,-3.46 22.94,-3.27 23.13,-3.07 23.3,-2.87 23.45,-2.66 22.72,-0.67 22.42,-0.38 22.1,-0.1 21.78,0.18 21.44,0.46 21.09,0.74 20.73,1.02 20.35,1.29 19.96,1.57 19.56,1.84 19.15,2.1 18.72,2.36 18.28,2.62 17.83,2.88 17.36,3.12 16.88,3.37 16.38,3.61 15.87,3.85 15.34,4.08 14.8,4.3 14.24,4.52 13.67,4.74 13.08,4.94 12.48,5.14 11.86,5.32 11.22,5.5 10.57,5.66 9.9,5.81 9.22,5.95 8.52,6.07 7.81,6.18 7.09,6.28 6.35,6.36 5.6,6.43 4.84,6.48 4.06,6.52 3.28,6.54 2.48,6.55 1.67,6.54 0.86,6.51 0.03,6.47 -0.8,6.41 -1.64,6.34 -2.49,6.25 -3.34,6.14 -4.2,6.03 -5.06,5.89 -5.92,5.75 -6.78,5.59 -7.65,5.42 -8.51,5.24 -9.38,5.04 -10.24,4.84 -11.1,4.63 -11.95,4.4 -12.8,4.18 -13.64,3.94 -14.47,3.7 -15.3,3.45 -16.11,3.2 -16.92,2.95 -17.71,2.7 -18.49,2.44 -19.26,2.19 -20.01,1.93 -20.66,1.72 -21.31,1.5 -21.94,1.29 -22.56,1.07 -23.17,0.86 -23.76,0.65 -24.34,0.44 -24.9,0.23 -25.44,0.03 -25.96,-0.18 -26.47,-0.37 -26.95,-0.57 -27.41,-0.76 -27.85,-0.94 -28.26,-1.11" fill="white" stroke="white" stroke-width="0" stroke-linejoin="round" filter="url(#fuzzy)" />
    </g>
    <g transform="translate(-40.05 -31.099999999999998)">
      <polyline id="leftCountour" points="27.51,-1.87 27.37,-2.02 27.2,-2.17 26.99,-2.31 26.75,-2.46 26.48,-2.59 26.17,-2.73 25.83,-2.86 25.46,-2.99 25.06,-3.12 24.62,-3.24 24.16,-3.36 23.67,-3.48 23.14,-3.6 22.59,-3.72 22.01,-3.83 21.47,-3.94 20.89,-4.04 20.26,-4.15 19.59,-4.26 18.87,-4.37 18.11,-4.48 17.3,-4.59 16.46,-4.7 15.59,-4.81 14.67,-4.92 13.73,-5.03 12.76,-5.14 11.76,-5.25 10.74,-5.35 9.7,-5.45 8.65,-5.55 7.58,-5.65 6.49,-5.74 5.4,-5.82 4.3,-5.9 3.21,-5.98 2.11,-6.05 1.01,-6.11 -0.08,-6.17 -1.16,-6.22 -2.24,-6.26 -3.3,-6.3 -4.34,-6.33 -5.37,-6.35 -6.38,-6.37 -7.37,-6.38 -8.34,-6.38 -9.28,-6.37 -10.19,-6.35 -11.08,-6.33 -11.95,-6.3 -12.78,-6.26 -13.59,-6.21 -14.36,-6.16 -15.1,-6.1 -15.82,-6.03 -16.5,-5.96 -17.15,-5.88 -17.78,-5.79 -18.37,-5.7 -18.93,-5.6 -19.46,-5.5 -19.97,-5.39 -20.45,-5.28 -20.9,-5.16 -21.33,-5.04 -21.73,-4.92 -22.11,-4.79 -22.47,-4.66 -22.79,-4.52 -23.1,-4.38 -23.38,-4.23 -23.64,-4.09 -23.87,-3.93 -24.08,-3.78 -24.27,-3.62 -24.44,-3.46 -24.59,-3.29 -24.72,-3.12 -23.51,-0.97 -23.13,-0.74 -22.74,-0.51 -22.33,-0.28 -21.91,-0.05 -21.48,0.17 -21.03,0.4 -20.57,0.63 -20.09,0.86 -19.6,1.09 -19.1,1.32 -18.59,1.54 -18.06,1.76 -17.51,1.99 -16.96,2.21 -16.39,2.43 -15.81,2.64 -15.21,2.86 -14.59,3.08 -13.96,3.29 -13.32,3.5 -12.66,3.71 -11.98,3.91 -11.29,4.11 -10.59,4.3 -9.88,4.49 -9.15,4.67 -8.41,4.85 -7.66,5.02 -6.9,5.18 -6.12,5.33 -5.34,5.47 -4.55,5.6 -3.75,5.72 -2.95,5.84 -2.13,5.94 -1.32,6.03 -0.49,6.1 0.33,6.17 1.16,6.22 2,6.26 2.83,6.28 3.67,6.3 4.5,6.29 5.33,6.28 6.16,6.25 6.99,6.21 7.81,6.15 8.63,6.07 9.44,5.99 10.24,5.89 11.04,5.77 11.83,5.64 12.6,5.5 13.37,5.34 14.13,5.17 14.87,4.99 15.6,4.8 16.32,4.6 17.02,4.38 17.7,4.15 18.37,3.92 19.03,3.67 19.66,3.42 20.28,3.16 20.84,2.97 21.38,2.78 21.92,2.59 22.44,2.39 22.94,2.19 23.43,1.98 23.9,1.78 24.35,1.57 24.79,1.36 25.21,1.16 25.61,0.95 26,0.75 26.36,0.55 26.7,0.35 27.02,0.16" fill="white" stroke="white" stroke-width="0" stroke-linejoin="round" filter="url(#fuzzy)" />
    </g>
    <g transform="translate(36.27 -27.38)">
      <polyline id="rightUpper" points="-27.78,-1.32 -28.11,-1.51 -28.39,-1.68 -28.65,-1.85 -28.86,-2.01 -29.03,-2.16 -29.17,-2.31 -29.26,-2.46 -29.32,-2.59 -29.34,-2.73 -29.32,-2.86 -29.26,-2.99 -29.16,-3.11 -29.02,-3.23 -28.84,-3.35 -28.62,-3.46 -28.37,-3.57 -28.08,-3.68 -27.75,-3.79 -27.38,-3.9 -26.98,-4 -26.55,-4.1 -26.08,-4.2 -25.57,-4.3 -25.03,-4.4 -24.47,-4.5 -23.95,-4.59 -23.38,-4.68 -22.77,-4.77 -22.1,-4.86 -21.38,-4.95 -20.61,-5.05 -19.8,-5.14 -18.95,-5.24 -18.06,-5.33 -17.13,-5.43 -16.17,-5.52 -15.17,-5.61 -14.15,-5.7 -13.11,-5.79 -12.04,-5.88 -10.95,-5.96 -9.85,-6.04 -8.74,-6.12 -7.62,-6.19 -6.49,-6.26 -5.35,-6.32 -4.22,-6.37 -3.09,-6.43 -1.97,-6.47 -0.86,-6.51 0.25,-6.54 1.34,-6.57 2.41,-6.59 3.47,-6.6 4.51,-6.6 5.52,-6.6 6.51,-6.59 7.48,-6.57 8.42,-6.54 9.33,-6.51 10.22,-6.46 11.07,-6.41 11.89,-6.35 12.68,-6.29 13.45,-6.21 14.18,-6.13 14.87,-6.05 15.54,-5.95 16.18,-5.85 16.78,-5.74 17.36,-5.63 17.91,-5.51 18.42,-5.38 18.92,-5.25 19.39,-5.11 19.83,-4.97 20.25,-4.83 20.64,-4.68 21.01,-4.52 21.35,-4.35 21.67,-4.19 21.97,-4.01 22.24,-3.83 22.5,-3.65 22.73,-3.46 22.94,-3.27 23.13,-3.07 23.3,-2.87 23.45,-2.66 23.58,-2.45 23.69,-2.24 23.79,-2.02 23.87,-1.8 23.93,-1.57 23.98,-1.35 24.01,-1.12 24.03,-0.88 24.03,-0.64 24.02,-0.41" fill="none" stroke="black" stroke-width="1.6666666666666665" stroke-linejoin="round" filter="url(#fuzzy)" />
      <polyline id="rightLower" points="-30.8,-2.45 -30.7,-2.36 -30.56,-2.26 -30.38,-2.15 -30.17,-2.02 -29.93,-1.89 -29.65,-1.75 -29.35,-1.6 -29.01,-1.45 -28.65,-1.29 -28.26,-1.11 -27.85,-0.94 -27.41,-0.76 -26.95,-0.57 -26.47,-0.37 -25.96,-0.18 -25.44,0.03 -24.9,0.23 -24.34,0.44 -23.76,0.65 -23.17,0.86 -22.56,1.07 -21.94,1.29 -21.31,1.5 -20.66,1.72 -20.01,1.93 -19.26,2.19 -18.49,2.44 -17.71,2.7 -16.92,2.95 -16.11,3.2 -15.3,3.45 -14.47,3.7 -13.64,3.94 -12.8,4.18 -11.95,4.4 -11.1,4.63 -10.24,4.84 -9.38,5.04 -8.51,5.24 -7.65,5.42 -6.78,5.59 -5.92,5.75 -5.06,5.89 -4.2,6.03 -3.34,6.14 -2.49,6.25 -1.64,6.34 -0.8,6.41 0.03,6.47 0.86,6.51 1.67,6.54 2.48,6.55 3.28,6.54 4.06,6.52 4.84,6.48 5.6,6.43 6.35,6.36 7.09,6.28 7.81,6.18 8.52,6.07 9.22,5.95 9.9,5.81 10.57,5.66 11.22,5.5 11.86,5.32 12.48,5.14 13.08,4.94 13.67,4.74 14.24,4.52 14.8,4.3 15.34,4.08 15.87,3.85 16.38,3.61 16.88,3.37 17.36,3.12 17.83,2.88 18.28,2.62 18.72,2.36 19.15,2.1 19.56,1.84 19.96,1.57 20.35,1.29 20.73,1.02 21.09,0.74 21.44,0.46 21.78,0.18 22.1,-0.1 22.42,-0.38 22.72,-0.67 23,-0.95 23.28,-1.24 23.55,-1.52 23.8,-1.8 24.04,-2.09 24.27,-2.37 24.49,-2.65 24.7,-2.93 24.89,-3.21 25.08,-3.49" fill="none" stroke="black" stroke-width="2.2222222222222223" stroke-linejoin="round" filter="url(#fuzzy)" />
      <circle r="4.916" cx="3.152648706378873" cy="-4.381675657596549" stroke="black" fill="none" stroke-width="1.0" filter="url(#fuzzy)" clip-path="url(#rightEyeClipPath)" /><circle r="4.426" cx="2.4626487063788733" cy="-0.8116756575965489" stroke="black" fill="none" stroke-width="1.0" filter="url(#fuzzy)" clip-path="url(#rightEyeClipPath)" /><circle r="4.458" cx="3.812648706378873" cy="-3.6216756575965485" stroke="black" fill="none" stroke-width="1.0" filter="url(#fuzzy)" clip-path="url(#rightEyeClipPath)" /><circle r="4.522" cx="2.0926487063788732" cy="-3.0116756575965486" stroke="black" fill="none" stroke-width="1.0" filter="url(#fuzzy)" clip-path="url(#rightEyeClipPath)" /><circle r="4.056" cx="2.3176487063788738" cy="-0.8966756575965489" stroke="black" fill="none" stroke-width="1.0" filter="url(#fuzzy)" clip-path="url(#rightEyeClipPath)" /><circle r="3.738" cx="1.9276487063788732" cy="-0.6266756575965484" stroke="black" fill="none" stroke-width="1.0" filter="url(#fuzzy)" clip-path="url(#rightEyeClipPath)" /><circle r="4.362" cx="4.367648706378873" cy="-0.17167565759654924" stroke="black" fill="none" stroke-width="1.0" filter="url(#fuzzy)" clip-path="url(#rightEyeClipPath)" /><circle r="4.2620000000000005" cx="3.7526487063788734" cy="-2.7866756575965486" stroke="black" fill="none" stroke-width="1.0" filter="url(#fuzzy)" clip-path="url(#rightEyeClipPath)" /><circle r="4.814" cx="2.5726487063788728" cy="-2.186675657596549" stroke="black" fill="none" stroke-width="1.0" filter="url(#fuzzy)" clip-path="url(#rightEyeClipPath)" /><circle r="3.306" cx="2.817648706378873" cy="-0.4516756575965486" stroke="black" fill="none" stroke-width="1.0" filter="url(#fuzzy)" clip-path="url(#rightEyeClipPath)" />
      </g>
    <g transform="translate(-40.05 -31.099999999999998)">
      <polyline id="leftUpper" points="27.12,0 27.3,-0.22 27.45,-0.43 27.57,-0.64 27.66,-0.83 27.71,-1.02 27.74,-1.2 27.73,-1.38 27.69,-1.55 27.62,-1.71 27.51,-1.87 27.37,-2.02 27.2,-2.17 26.99,-2.31 26.75,-2.46 26.48,-2.59 26.17,-2.73 25.83,-2.86 25.46,-2.99 25.06,-3.12 24.62,-3.24 24.16,-3.36 23.67,-3.48 23.14,-3.6 22.59,-3.72 22.01,-3.83 21.47,-3.94 20.89,-4.04 20.26,-4.15 19.59,-4.26 18.87,-4.37 18.11,-4.48 17.3,-4.59 16.46,-4.7 15.59,-4.81 14.67,-4.92 13.73,-5.03 12.76,-5.14 11.76,-5.25 10.74,-5.35 9.7,-5.45 8.65,-5.55 7.58,-5.65 6.49,-5.74 5.4,-5.82 4.3,-5.9 3.21,-5.98 2.11,-6.05 1.01,-6.11 -0.08,-6.17 -1.16,-6.22 -2.24,-6.26 -3.3,-6.3 -4.34,-6.33 -5.37,-6.35 -6.38,-6.37 -7.37,-6.38 -8.34,-6.38 -9.28,-6.37 -10.19,-6.35 -11.08,-6.33 -11.95,-6.3 -12.78,-6.26 -13.59,-6.21 -14.36,-6.16 -15.1,-6.1 -15.82,-6.03 -16.5,-5.96 -17.15,-5.88 -17.78,-5.79 -18.37,-5.7 -18.93,-5.6 -19.46,-5.5 -19.97,-5.39 -20.45,-5.28 -20.9,-5.16 -21.33,-5.04 -21.73,-4.92 -22.11,-4.79 -22.47,-4.66 -22.79,-4.52 -23.1,-4.38 -23.38,-4.23 -23.64,-4.09 -23.87,-3.93 -24.08,-3.78 -24.27,-3.62 -24.44,-3.46 -24.59,-3.29 -24.72,-3.12 -24.83,-2.95 -24.92,-2.78 -24.99,-2.6 -25.04,-2.43 -25.07,-2.25 -25.09,-2.07 -25.09,-1.89 -25.07,-1.7 -25.04,-1.52 -25,-1.33" fill="none" stroke="black" stroke-width="2.2222222222222223" stroke-linejoin="round" filter="url(#fuzzy)" />
      <polyline id="leftLower" points="28.85,-1.35 28.79,-1.25 28.7,-1.13 28.58,-1.01 28.44,-0.87 28.26,-0.71 28.06,-0.55 27.84,-0.39 27.59,-0.21 27.31,-0.03 27.02,0.16 26.7,0.35 26.36,0.55 26,0.75 25.61,0.95 25.21,1.16 24.79,1.36 24.35,1.57 23.9,1.78 23.43,1.98 22.94,2.19 22.44,2.39 21.92,2.59 21.38,2.78 20.84,2.97 20.28,3.16 19.66,3.42 19.03,3.67 18.37,3.92 17.7,4.15 17.02,4.38 16.32,4.6 15.6,4.8 14.87,4.99 14.13,5.17 13.37,5.34 12.6,5.5 11.83,5.64 11.04,5.77 10.24,5.89 9.44,5.99 8.63,6.07 7.81,6.15 6.99,6.21 6.16,6.25 5.33,6.28 4.5,6.29 3.67,6.3 2.83,6.28 2,6.26 1.16,6.22 0.33,6.17 -0.49,6.1 -1.32,6.03 -2.13,5.94 -2.95,5.84 -3.75,5.72 -4.55,5.6 -5.34,5.47 -6.12,5.33 -6.9,5.18 -7.66,5.02 -8.41,4.85 -9.15,4.67 -9.88,4.49 -10.59,4.3 -11.29,4.11 -11.98,3.91 -12.66,3.71 -13.32,3.5 -13.96,3.29 -14.59,3.08 -15.21,2.86 -15.81,2.64 -16.39,2.43 -16.96,2.21 -17.51,1.99 -18.06,1.76 -18.59,1.54 -19.1,1.32 -19.6,1.09 -20.09,0.86 -20.57,0.63 -21.03,0.4 -21.48,0.17 -21.91,-0.05 -22.33,-0.28 -22.74,-0.51 -23.13,-0.74 -23.51,-0.97 -23.88,-1.2 -24.23,-1.42 -24.57,-1.65 -24.89,-1.87 -25.21,-2.1 -25.51,-2.32 -25.79,-2.54 -26.07,-2.76 -26.33,-2.98 -26.58,-3.2" fill="none" stroke="black" stroke-width="2.2222222222222223" stroke-linejoin="round" filter="url(#fuzzy)" />
      <circle r="4.86" cx="21.00068395324481" cy="-3.0003144272608835" stroke="black" fill="none" stroke-width="1.0" filter="url(#fuzzy)" clip-path="url(#leftEyeClipPath)" /><circle r="3.322" cx="19.58568395324481" cy="-0.12531442726088304" stroke="black" fill="none" stroke-width="1.0" filter="url(#fuzzy)" clip-path="url(#leftEyeClipPath)" /><circle r="3.64" cx="22.03568395324481" cy="-1.5603144272608835" stroke="black" fill="none" stroke-width="1.0" filter="url(#fuzzy)" clip-path="url(#leftEyeClipPath)" /><circle r="4.038" cx="19.38568395324481" cy="-3.9103144272608836" stroke="black" fill="none" stroke-width="1.0" filter="url(#fuzzy)" clip-path="url(#leftEyeClipPath)" /><circle r="4.938" cx="19.39068395324481" cy="-2.255314427260884" stroke="black" fill="none" stroke-width="1.0" filter="url(#fuzzy)" clip-path="url(#leftEyeClipPath)" /><circle r="3.564" cx="21.53568395324481" cy="-0.11531442726088326" stroke="black" fill="none" stroke-width="1.0" filter="url(#fuzzy)" clip-path="url(#leftEyeClipPath)" /><circle r="3.9779999999999998" cx="18.450683953244813" cy="0.009685572739115855" stroke="black" fill="none" stroke-width="1.0" filter="url(#fuzzy)" clip-path="url(#leftEyeClipPath)" /><circle r="4.016" cx="21.59068395324481" cy="-4.295314427260884" stroke="black" fill="none" stroke-width="1.0" filter="url(#fuzzy)" clip-path="url(#leftEyeClipPath)" /><circle r="4.51" cx="19.76568395324481" cy="-1.8803144272608834" stroke="black" fill="none" stroke-width="1.0" filter="url(#fuzzy)" clip-path="url(#leftEyeClipPath)" /><circle r="4.29" cx="17.33568395324481" cy="-1.5753144272608837" stroke="black" fill="none" stroke-width="1.0" filter="url(#fuzzy)" clip-path="url(#leftEyeClipPath)" />
    </g>
    <g id="hairs">
      <polyline points="20.06,-89.29 21.65,-88.47 22.63,-87.93 23.22,-87.55 23.55,-87.28 23.76,-87.07 23.91,-86.86 23.98,-86.65 23.84,-86.49 23.35,-86.43 22.42,-86.52 21.01,-86.77 19.16,-87.19 16.89,-87.79 14.21,-88.57 10.99,-89.52 7.03,-90.63 2.21,-91.92" fill="none" stroke="rgb(0, 0, 0)" stroke-width="2" stroke-linejoin="round" filter="url(#fuzzy)" /><polyline points="-7.87,-93.02 -7.23,-92.86 -5.98,-92.55 -4.36,-92.02 -2.45,-91.27 -0.25,-90.32 2.25,-89.21 5.06,-87.93 8.15,-86.51 11.45,-84.93 14.9,-83.24 18.41,-81.44 21.98,-79.57 25.59,-77.67 29.26,-75.76 32.93,-73.86 36.56,-71.98 40.09,-70.09 43.57,-68.18" fill="none" stroke="rgb(0, 0, 0)" stroke-width="2" stroke-linejoin="round" filter="url(#fuzzy)" /><polyline points="33.5,-80.83 33.58,-80.52 33.48,-80.15 32.93,-79.77 31.91,-79.36 30.41,-78.88 28.35,-78.38 25.62,-77.9 22.14,-77.53 17.86,-77.29 12.78,-77.16 6.9,-77.12 0.2,-77.16 -7.32,-77.36 -15.69,-77.76 -24.95,-78.33" fill="none" stroke="rgb(0, 0, 0)" stroke-width="2" stroke-linejoin="round" filter="url(#fuzzy)" /><polyline points="24.73,-86.69 24.57,-86.73 25.2,-86.34 25.98,-85.79 26.54,-85.26 26.71,-84.83 26.45,-84.54 25.77,-84.38 24.7,-84.34 23.23,-84.45 21.33,-84.7 18.96,-85.11 16.09,-85.64 12.68,-86.3 8.66,-87.04 3.99,-87.86 -1.36,-88.8 -7.38,-89.99" fill="none" stroke="rgb(0, 0, 0)" stroke-width="2" stroke-linejoin="round" filter="url(#fuzzy)" /><polyline points="48.27,-63.86 48.76,-63.26 49.51,-62.12 50.28,-60.91 50.95,-59.79 51.49,-58.81 51.92,-57.98 52.23,-57.31 52.43,-56.8 52.54,-56.41 52.54,-56.16 52.41,-56.07 52.11,-56.2 51.63,-56.62 50.93,-57.38 50.01,-58.5 48.87,-59.97 47.47,-61.8 45.8,-64 43.84,-66.56 41.64,-69.49 39.24,-72.78 36.61,-76.47" fill="none" stroke="rgb(0, 0, 0)" stroke-width="2" stroke-linejoin="round" filter="url(#fuzzy)" /><polyline points="51.94,-58.07 52.46,-56.98 52.64,-56.22 52.58,-55.64 52.34,-55.11 51.92,-54.58 51.26,-54.11 50.3,-53.8 49,-53.72 47.33,-53.91 45.32,-54.36 42.95,-55.04 40.24,-55.92 37.17,-57 33.73,-58.32 29.9,-59.9 25.64,-61.76 20.92,-63.88 15.72,-66.24 10.04,-68.86 3.88,-71.75 -2.73,-74.95 -9.86,-78.44 -17.53,-82.21" fill="none" stroke="rgb(0, 0, 0)" stroke-width="2" stroke-linejoin="round" filter="url(#fuzzy)" /><polyline points="27,-85.36 28.26,-84.6 28.96,-84.04 29.25,-83.56 29.18,-83.16 28.75,-82.84 27.93,-82.63 26.68,-82.53 24.97,-82.54 22.81,-82.65 20.2,-82.83 17.14,-83.08 13.62,-83.4 9.57,-83.85 4.92,-84.47 -0.5,-85.28 -6.84,-86.19 -14.15,-87.08" fill="none" stroke="rgb(0, 0, 0)" stroke-width="2" stroke-linejoin="round" filter="url(#fuzzy)" /><polyline points="-28.39,-84.28 -26.77,-85.34 -25.29,-86.1 -23.72,-86.73 -22.01,-87.3 -20.18,-87.84 -18.24,-88.35 -16.19,-88.84 -14.07,-89.3 -11.94,-89.73 -9.83,-90.11 -7.79,-90.45 -5.8,-90.77 -3.88,-91.09 -2.03,-91.4 -0.25,-91.7 1.46,-91.98 3.07,-92.24 4.53,-92.49 5.78,-92.7 6.7,-92.85" fill="none" stroke="rgb(0, 0, 0)" stroke-width="2" stroke-linejoin="round" filter="url(#fuzzy)" /><polyline points="3.77,-93.37 4.98,-93.18 6.17,-93 6.94,-92.83 7.25,-92.62 7.16,-92.38 6.69,-92.11 5.89,-91.81 4.72,-91.46 3.12,-91.04 0.99,-90.54 -1.75,-89.99 -5.15,-89.39 -9.21,-88.74 -13.96,-87.99 -19.44,-87.13" fill="none" stroke="rgb(0, 0, 0)" stroke-width="2" stroke-linejoin="round" filter="url(#fuzzy)" /><polyline points="9.63,-92.26 10.76,-92.18 11.67,-92.03 12.68,-91.78 13.81,-91.45 14.93,-91.1 15.9,-90.77 16.71,-90.47 17.4,-90.19 18,-89.93 18.5,-89.71 18.87,-89.53 19.05,-89.41 18.98,-89.35 18.63,-89.39 17.99,-89.52 17.08,-89.75 15.93,-90.06 14.5,-90.45 12.69,-90.93 10.32,-91.55 7.26,-92.35" fill="none" stroke="rgb(0, 0, 0)" stroke-width="2" stroke-linejoin="round" filter="url(#fuzzy)" /><polyline points="-3.14,-93.53 -1.79,-93.58 -0.27,-93.95 0.94,-94.71 1.89,-95.62 2.78,-96.41 3.8,-96.99 4.99,-97.48 6.3,-98.07 7.63,-98.82 8.88,-99.68 10.02,-100.47 11.04,-101.06 11.95,-101.41 12.8,-101.73 13.93,-102.41 16.71,-103.35 8.58,-89.69 7.93,-89.71 6.72,-89.95 5.4,-90.27 4.19,-90.61 3.16,-90.9 2.26,-91.12 1.38,-91.33 0.43,-91.56 -0.61,-91.8 -1.67,-91.99 -2.66,-92.11 -3.54,-92.22 -4.34,-92.43 -5.07,-92.79 -5.76,-93.07 -6.73,-92.92 -13.39,-91.56 -11.86,-91.94 -10.52,-92.3 -9.22,-92.6 -8.06,-92.82 -7.07,-92.98 -6.2,-93.1 -5.41,-93.19 -4.65,-93.25 -3.88,-93.3 -3.05,-93.35 -2.1,-93.4 -0.96,-93.45 0.35,-93.51 1.49,-93.58 1.56,-93.6 -2.8,-96.59 -4.21,-96.49 -5.08,-96.17 -5.83,-95.76 -6.65,-95.32 -7.6,-94.92 -8.69,-94.58 -9.88,-94.28 -11.1,-94.01 -12.27,-93.73 -13.34,-93.36 -14.3,-92.83 -15.18,-92.14 -15.96,-91.42 -16.56,-90.84 -17,-90.47 -17.9,-89.94 -18.29,-90.11 -17.92,-91.4 -17.29,-91.45 -16.71,-91.57 -16.08,-92.21 -15.39,-93.43 -14.65,-95.18 -13.88,-97.34 -13.01,-99.68 -12.01,-101.9 -10.88,-103.75 -9.68,-105.22 -8.53,-106.48 -7.53,-107.87 -6.72,-109.52 -6.12,-111.27 -5.57,-113.06" fill="none" stroke="rgb(0, 0, 0)" stroke-width="2" stroke-linejoin="round" filter="url(#fuzzy)" /><polyline points="-32.65,-63.78 -32.29,-66.89 -32.06,-68.37 -31.91,-69.5 -31.71,-70.63 -31.44,-71.76 -31.09,-72.87 -30.69,-73.98 -30.22,-75.08 -29.66,-76.15 -29.03,-77.17 -28.33,-78.09 -27.58,-78.92 -26.81,-79.74 -26.04,-80.7 -25.33,-82.05 -24.71,-83.87 -24.07,-85.88 -23.09,-87.47 -21.78,-88.47 -25.38,-86.42 -23.63,-87.42 -22.56,-88.14 -21.67,-88.83 -20.72,-89.61 -19.73,-90.44 -18.77,-91.22 -17.9,-91.86 -17.08,-92.36 -16.27,-92.77 -15.43,-93.16 -14.52,-93.57 -13.54,-93.97 -12.47,-94.35 -11.32,-94.69 -10.11,-95.02 -8.92,-95.38 -7.8,-95.81 -6.81,-96.31 -5.95,-96.8 -5.17,-97.19 -4.26,-97.46 -2.84,-97.88" fill="none" stroke="rgb(0, 0, 0)" stroke-width="2" stroke-linejoin="round" filter="url(#fuzzy)" /><polyline points="64.48,-20.24 64.83,-21.26 64.98,-22.09 65.39,-23.46 65.95,-25.1 66.35,-26.75 66.51,-28.34 66.61,-29.95 66.87,-31.63 67.33,-33.42 67.91,-35.27 68.46,-37.15 68.92,-39.04 69.32,-40.94 69.68,-42.83 69.93,-44.65 69.91,-46.34 69.54,-47.92 69.07,-49.61 68.94,-51.76 69.24,-54.57 68.81,-57.14" fill="none" stroke="rgb(0, 0, 0)" stroke-width="2" stroke-linejoin="round" filter="url(#fuzzy)" /><polyline points="-33.88,-80.27 -34.02,-80 -34.37,-79.19 -34.75,-78.04 -35.12,-76.89 -35.6,-75.87 -36.2,-74.9 -36.86,-73.8 -37.51,-72.5 -38.13,-71.05 -38.72,-69.62 -39.34,-68.3 -39.99,-67.14 -40.64,-66.05 -41.23,-64.91 -41.72,-63.63 -42.09,-62.25 -42.4,-60.9 -42.71,-59.75 -43.02,-58.76 -43.22,-57.67 -43.27,-56.16 -43.58,-54.72" fill="none" stroke="rgb(0, 0, 0)" stroke-width="2" stroke-linejoin="round" filter="url(#fuzzy)" /><polyline points="-35.42,-78.8 -34.67,-79.82 -34.12,-80.43 -33.5,-80.97 -32.77,-81.59 -31.96,-82.32 -31.12,-83.1 -30.28,-83.89 -29.43,-84.64 -28.56,-85.33 -27.64,-86.01 -26.68,-86.72 -25.69,-87.46 -24.66,-88.21 -23.61,-88.91 -22.69,-89.46 -22.43,-89.62" fill="none" stroke="rgb(0, 0, 0)" stroke-width="2" stroke-linejoin="round" filter="url(#fuzzy)" /><polyline points="-38.65,-75.48 -37.25,-77.11 -36.49,-77.78 -35.85,-78.08 -35.18,-78.35 -34.46,-78.68 -33.72,-79.05 -32.93,-79.43 -32.07,-79.78 -31.15,-80.07 -30.16,-80.27 -29.11,-80.38 -28.04,-80.41 -26.95,-80.43 -25.86,-80.5 -24.8,-80.7 -23.77,-81.06 -22.79,-81.51 -21.82,-81.87 -20.84,-82 -19.79,-81.82 -18.59,-81.47 -17.19,-81.16 -16.17,-81.24" fill="none" stroke="rgb(0, 0, 0)" stroke-width="2" stroke-linejoin="round" filter="url(#fuzzy)" /><polyline points="-39.31,-75.11 -41.37,-75.7 -42.7,-75.4 -43.74,-74.84 -44.63,-74.09 -45.64,-73.45 -47.03,-73.25 -48.81,-73.59 -50.75,-74.23 -52.52,-74.79 -53.87,-74.91 -54.8,-74.49 -55.59,-73.74 -56.71,-73.08 -58.56,-72.92 -60.73,-72.61 -48.77,-63.4 -48.04,-64.31 -47.36,-64.78 -46.59,-65.15 -45.74,-65.58 -44.78,-66.08 -43.74,-66.57 -42.64,-67.02 -41.55,-67.43 -40.48,-67.84 -39.44,-68.3 -38.4,-68.83 -37.36,-69.43 -36.33,-70.06 -35.32,-70.64 -34.35,-71.07 -33.44,-71.23 -32.53,-71.06 -31.53,-70.73 -30.52,-70.57 -29.82,-70.67" fill="none" stroke="rgb(0, 0, 0)" stroke-width="2" stroke-linejoin="round" filter="url(#fuzzy)" /><polyline points="63.94,-23.67 63.24,-24.55 62.18,-25.26 61.47,-26.32 61.09,-27.6 60.8,-28.86 60.49,-30.04 60.11,-31.18 59.66,-32.32 59.15,-33.46 58.55,-34.54 57.89,-35.52 57.15,-36.41 56.31,-37.23 55.33,-38.02 54.21,-38.74 52.95,-39.44 51.2,-40.32" fill="none" stroke="rgb(0, 0, 0)" stroke-width="2" stroke-linejoin="round" filter="url(#fuzzy)" /><polyline points="-53.55,-55.32 -53.16,-53.72 -53.59,-52.17 -54.31,-50.67 -55.1,-49.31 -55.77,-48.1 -56.26,-46.97 -56.63,-45.87 -56.97,-44.74 -57.34,-43.52 -57.69,-42.15 -57.96,-40.65 -58.06,-39.1 -58.01,-37.63 -57.89,-36.4 -57.86,-35.61 -61.59,-34.09 -63.82,-33.09 -66.41,-32.47 -68.5,-31.68 -69.7,-30.52 -70.06,-29.02 -69.92,-27.31 -69.64,-25.58 -69.5,-23.97 -69.66,-22.53 -70.2,-21.26 -71.14,-20.11 -72.47,-18.97 -74.15,-17.76 -76.16,-16.42 -78.44,-14.99 -80.86,-13.56 -83.26,-12.23 -85.51,-11.09 -87.63,-10.2 -89.66,-9.41 -90.52,-7.29" fill="none" stroke="rgb(0, 0, 0)" stroke-width="2" stroke-linejoin="round" filter="url(#fuzzy)" /><polyline points="63.56,-26.09 62.84,-28.79 62.5,-30.14 62.23,-31.29 61.94,-32.51 61.62,-33.8 61.27,-35.11 60.89,-36.4 60.5,-37.66 60.08,-38.9 59.64,-40.15 59.16,-41.41 58.65,-42.65 58.13,-43.87 57.61,-45.03 57.1,-46.16 56.57,-47.3 56.03,-48.5 55.44,-49.79 54.81,-51.13 54.16,-52.44 53.55,-53.58 53.03,-54.52 52.59,-55.34 52.23,-56.03" fill="none" stroke="rgb(0, 0, 0)" stroke-width="2" stroke-linejoin="round" filter="url(#fuzzy)" /><polyline points="62.44,-66.99 62.43,-65.72 62.07,-63.86 61.98,-62.07 62.13,-60.22 62.28,-58.2 62.29,-56.06 62.15,-53.93 61.93,-51.91 61.7,-50.01 61.52,-48.21 61.42,-46.47 61.4,-44.76 61.47,-43.11 61.68,-41.58 62.07,-40.22 62.63,-39.01 63.25,-37.85 63.71,-36.57 63.84,-35.08 63.63,-33.44 63.36,-31.94 63.21,-30.91 62.41,-30.6 62.41,-30.6 63.17,-27.62 63.48,-25.97 63.57,-24.61 63.6,-23.26 63.61,-21.9 63.63,-20.51 63.66,-19.04 63.73,-17.51 63.82,-15.97 63.92,-14.49 64,-13.15 64.04,-11.96 64.04,-10.88 64,-9.81 63.94,-8.63 63.87,-7.24 63.78,-5.59 63.65,-3.78 63.47,-2.07 63.3,-0.66 63.31,0.82 62.38,-31.32 62.31,-30.09 62.62,-28.92 63,-27.55 63.27,-26.15 63.44,-24.78 63.56,-23.43 63.68,-22.09 63.83,-20.72 64,-19.3 64.17,-17.79 64.32,-16.25 64.42,-14.74 64.46,-13.35 64.45,-12.14 64.41,-11.1 64.37,-10.16 64.33,-9.18 64.32,-7.95 64.36,-6.11 64.38,-2.92" fill="none" stroke="rgb(0, 0, 0)" stroke-width="2" stroke-linejoin="round" filter="url(#fuzzy)" /><polyline points="59.26,-42.38 59.9,-41.12 60.62,-39.87 61.2,-38.8 61.73,-37.76 62.25,-36.62 62.75,-35.38 63.18,-34.1 63.57,-32.85 63.98,-31.64 64.47,-30.45 65.07,-29.24 65.71,-28 66.31,-26.75 66.79,-25.41 67.15,-23.61 67.61,-20.6" fill="none" stroke="rgb(0, 0, 0)" stroke-width="2" stroke-linejoin="round" filter="url(#fuzzy)" /><polyline points="59.1,-43.09 59.67,-42.42 61.08,-41.83 62.6,-41.23 63.86,-40.56 64.87,-39.73 65.67,-38.7 66.32,-37.48 66.98,-36.24 67.92,-35.15 69.28,-34.31 70.98,-33.59 72.7,-32.77 74.22,-31.74 75.69,-30.73 77.47,-30.06 79.42,-29.4" fill="none" stroke="rgb(0, 0, 0)" stroke-width="2" stroke-linejoin="round" filter="url(#fuzzy)" /><polyline points="53.75,-54.07 53.36,-55.86 53.3,-57.64 53.34,-59.61 53.41,-61.74 53.36,-63.82 53.01,-65.56 52.33,-66.84 51.41,-67.77 50.47,-68.6 49.7,-69.58 49.21,-70.89 49,-72.56 48.99,-74.58 49.06,-76.86 49.09,-79.3 49,-81.77 48.78,-84.14 48.5,-86.35 48.33,-88.57 48.4,-91.15 48.41,-94.13 47.29,-96.38 49.84,-36.34 50.54,-39.14 50.77,-40.67 50.92,-41.87 51.03,-43.23 51.1,-44.83 51.15,-46.61 51.21,-48.45 51.25,-50.19 51.23,-51.71 51.06,-52.98 50.75,-54.08 50.38,-55.2 50.07,-56.52 49.87,-58.06 49.71,-59.82 49.29,-62.23 45.03,-68.65 46.52,-66.89 47.39,-65.68 48.08,-64.57 48.78,-63.45 49.51,-62.3 50.27,-61.14 51.01,-59.99 51.71,-58.86 52.35,-57.78 52.94,-56.72 53.5,-55.68 54.06,-54.62 54.65,-53.49 55.27,-52.26 55.9,-50.97 56.53,-49.66 57.1,-48.43 57.61,-47.33 58.09,-46.31 58.62,-45.2 59.28,-43.89 59.77,-42.75" fill="none" stroke="rgb(0, 0, 0)" stroke-width="2" stroke-linejoin="round" filter="url(#fuzzy)" /><polyline points="45.03,-68.65 46.34,-69.82 45.83,-70.2 45.05,-71.12 44.45,-72.69 43.98,-74.51 43.47,-76.16 42.83,-77.46 42.07,-78.56 41.28,-79.69 40.52,-81.02 39.86,-82.57 39.33,-84.32 38.93,-86.21 38.66,-88.18 38.43,-90.11 38.09,-91.82 37.55,-93.21 36.83,-94.36 36.1,-95.58 35.52,-97.17 34.83,-99.71" fill="none" stroke="rgb(0, 0, 0)" stroke-width="2" stroke-linejoin="round" filter="url(#fuzzy)" /><polyline points="45.72,-67.68 47.57,-70.06 49.7,-71.16 51.03,-70.87 52.4,-70.55 54.16,-70.67 56.22,-71.01 58.35,-71.28 60.41,-71.38 62.4,-71.36 64.23,-71.21 65.74,-70.83 66.79,-70.14 67.66,-69.5 69.5,-69.95 73.9,-72.13" fill="none" stroke="rgb(0, 0, 0)" stroke-width="2" stroke-linejoin="round" filter="url(#fuzzy)" /><polyline points="38.14,-102.75 39.06,-100.3 39.69,-98.19 39.87,-95.79 39.9,-93.37 40.05,-91.23 40.42,-89.45 41.06,-87.97 41.93,-86.73 42.91,-85.63 43.87,-84.58 44.66,-83.42 45.24,-82 45.58,-80.13 45.69,-77.68 45.57,-74.7 45.3,-71.38 45.63,-67.85" fill="none" stroke="rgb(0, 0, 0)" stroke-width="2" stroke-linejoin="round" filter="url(#fuzzy)" /><polyline points="26.28,-92.12 26.09,-91.88 26.75,-90.63 27.78,-89.22 28.91,-88 30,-87.06 31.01,-86.31 31.93,-85.64 32.77,-84.94 33.52,-84.13 34.18,-83.25 34.79,-82.38 35.4,-81.61 36.04,-80.93 36.71,-80.15 37.39,-79.01 38.17,-77.38 39.26,-75.57 36.15,-78.61 34.9,-77.04 34.17,-77.22 33.49,-77.54 32.83,-78 32.16,-78.63 31.44,-79.28 30.63,-79.79 29.67,-80.05 28.56,-80 27.29,-79.66 25.9,-79.08 24.5,-78.4 23.23,-77.72 22.16,-77.09 21.26,-76.44 20.39,-75.69 19.42,-75 18.36,-74.95 17.1,-76.09" fill="none" stroke="rgb(0, 0, 0)" stroke-width="2" stroke-linejoin="round" filter="url(#fuzzy)" /><polyline points="34.48,-79.89 34.36,-79.94 33.66,-80.09 32.83,-80.41 31.99,-80.93 31.16,-81.56 30.3,-82.22 29.36,-82.85 28.32,-83.4 27.22,-83.83 26.1,-84.13 25.07,-84.32 24.15,-84.45 23.33,-84.61 22.54,-84.84 21.68,-85.15 20.7,-85.5 19.66,-85.83 18.61,-86.08 17.52,-86.22 15.71,-86.48" fill="none" stroke="rgb(0, 0, 0)" stroke-width="2" stroke-linejoin="round" filter="url(#fuzzy)" /><polyline points="28.79,-84.31 29.67,-84.14 30.76,-84.24 31.78,-84.19 32.69,-83.81 33.5,-83.21 34.22,-82.5 34.92,-81.78 35.62,-81.06 36.4,-80.35 37.27,-79.66 38.26,-79.01 39.32,-78.41 40.42,-77.87 41.52,-77.36 42.61,-76.85 43.71,-76.29 44.83,-75.67 45.96,-74.98 47.03,-74.25 47.96,-73.56 48.73,-73.03 49.54,-72.66 51.29,-71.7 22.8,-88.04 22.45,-90.97 21.68,-93.3 20.62,-93.92 19.64,-94.39 18.85,-95.45 18.21,-97.01 17.58,-98.78 16.85,-100.6 16,-102.41 15.08,-104.21 14.16,-106 13.28,-107.8 12.46,-109.64 11.65,-111.59 10.8,-113.65 9.78,-115.72 8.33,-117.64 6.22,-120.24" fill="none" stroke="rgb(0, 0, 0)" stroke-width="2" stroke-linejoin="round" filter="url(#fuzzy)" /><polyline points="3.48,-127.31 2.96,-124.8 3.56,-123.1 4.72,-120.44 6.11,-117.36 7.53,-114.56 8.86,-112.4 10.08,-110.87 11.17,-109.71 12.18,-108.68 13.17,-107.69 14.17,-106.69 15.2,-105.6 16.18,-104.25 17.06,-102.55 17.85,-100.75 18.61,-99.3 19.43,-98.42 20.2,-97.41 20.71,-95 21.12,-91.18 22.3,-88.1 20.06,-89.29 19.27,-89.43 18.5,-89.7 17.7,-90.05 16.95,-90.38 16.19,-90.7 15.31,-91.01 14.32,-91.32 13.27,-91.63 12.27,-91.9 11.36,-92.12 10.53,-92.32 9.74,-92.52 8.97,-92.71 8.15,-92.85 6.96,-92.92" fill="none" stroke="rgb(0, 0, 0)" stroke-width="2" stroke-linejoin="round" filter="url(#fuzzy)" /><polyline points="20.06,-89.29 21.75,-88.78 22.92,-88.58 23.8,-88.46 24.59,-88.57 25.52,-89.01 26.7,-89.63 28.09,-90.22 29.55,-90.59 30.97,-90.71 32.31,-90.72 33.61,-90.79 34.93,-91.07 36.29,-91.54 37.63,-92.01 38.75,-92.15 39.5,-91.88 39.85,-92.34 16.44,-90.49 18.25,-89.77 19.35,-89.4 20.43,-89.06 21.51,-88.7 22.51,-88.32 23.4,-87.95 24.21,-87.6 25.03,-87.23 25.93,-86.85 26.94,-86.43 28.03,-85.97 29.13,-85.48 30.2,-84.96 31.19,-84.4 32.12,-83.81 32.98,-83.22 33.79,-82.64 34.56,-82.09 35.29,-81.55 36.02,-81.01 36.8,-80.44 37.75,-79.8 38.94,-78.96 40.42,-77.82" fill="none" stroke="rgb(0, 0, 0)" stroke-width="2" stroke-linejoin="round" filter="url(#fuzzy)" />
    </g>
    
        <g id="pointNose">
          <g id="rightNose"><circle r="2.076" cx="10.334" cy="3.792" stroke="black" fill="none" stroke-width="1.0" filter="url(#fuzzy)" /><circle r="2.724" cx="9.818" cy="6.032" stroke="black" fill="none" stroke-width="1.0" filter="url(#fuzzy)" /><circle r="1.704" cx="9.974" cy="5.428" stroke="black" fill="none" stroke-width="1.0" filter="url(#fuzzy)" /><circle r="2.88" cx="10.177999999999999" cy="6.336" stroke="black" fill="none" stroke-width="1.0" filter="url(#fuzzy)" /><circle r="2.65" cx="7.885999999999999" cy="4.604" stroke="black" fill="none" stroke-width="1.0" filter="url(#fuzzy)" /><circle r="2.024" cx="7.6259999999999994" cy="7.559999999999999" stroke="black" fill="none" stroke-width="1.0" filter="url(#fuzzy)" /><circle r="1.33" cx="10.893999999999998" cy="3.9319999999999995" stroke="black" fill="none" stroke-width="1.0" filter="url(#fuzzy)" /><circle r="1.238" cx="11.318" cy="5.715999999999999" stroke="black" fill="none" stroke-width="1.0" filter="url(#fuzzy)" /><circle r="2.29" cx="9.854" cy="7.3759999999999994" stroke="black" fill="none" stroke-width="1.0" filter="url(#fuzzy)" /><circle r="1.318" cx="8.213999999999999" cy="4.596" stroke="black" fill="none" stroke-width="1.0" filter="url(#fuzzy)" /></g>
          <g id="leftNose"><circle r="1.464" cx="-10.878" cy="1.6339999999999995" stroke="black" fill="none" stroke-width="1.0" filter="url(#fuzzy)" /><circle r="2.134" cx="-10.046" cy="3.225999999999999" stroke="black" fill="none" stroke-width="1.0" filter="url(#fuzzy)" /><circle r="1.296" cx="-10.834" cy="4.2139999999999995" stroke="black" fill="none" stroke-width="1.0" filter="url(#fuzzy)" /><circle r="1.9180000000000001" cx="-10.818" cy="3.622" stroke="black" fill="none" stroke-width="1.0" filter="url(#fuzzy)" /><circle r="1.258" cx="-9.71" cy="1.7019999999999995" stroke="black" fill="none" stroke-width="1.0" filter="url(#fuzzy)" /><circle r="2.876" cx="-9.13" cy="2.869999999999999" stroke="black" fill="none" stroke-width="1.0" filter="url(#fuzzy)" /><circle r="2.316" cx="-11.906" cy="4.981999999999999" stroke="black" fill="none" stroke-width="1.0" filter="url(#fuzzy)" /><circle r="1.71" cx="-9.842" cy="4.757999999999999" stroke="black" fill="none" stroke-width="1.0" filter="url(#fuzzy)" /><circle r="1.85" cx="-8.906" cy="1.7219999999999995" stroke="black" fill="none" stroke-width="1.0" filter="url(#fuzzy)" /><circle r="1.224" cx="-8.766" cy="3.6179999999999994" stroke="black" fill="none" stroke-width="1.0" filter="url(#fuzzy)" /></g>
        </g>
      
    <g id="mouth">
      <polyline points="-26.01,47.21 -25.48,46.77 -24.94,46.34 -24.4,45.92 -23.86,45.52 -23.32,45.12 -22.77,44.74 -22.22,44.36 -21.66,44 -21.1,43.65 -20.54,43.31 -19.98,42.98 -19.41,42.66 -18.84,42.34 -18.27,42.04 -17.7,41.75 -17.12,41.47 -16.55,41.2 -15.97,40.94 -15.39,40.69 -14.81,40.45 -14.22,40.22 -13.64,40 -13.05,39.79 -12.47,39.59 -11.88,39.39 -11.29,39.21 -10.71,39.03 -10.12,38.87 -9.53,38.71 -8.95,38.56 -8.36,38.42 -7.77,38.29 -7.19,38.17 -6.6,38.05 -6.01,37.95 -5.43,37.85 -4.85,37.76 -4.27,37.68 -3.69,37.6 -3.11,37.54 -2.53,37.48 -1.96,37.43 -1.38,37.39 -0.81,37.35 -0.24,37.32 0.32,37.3 0.89,37.29 1.45,37.28 2,37.28 2.56,37.29 3.11,37.31 3.66,37.33 4.2,37.36 4.74,37.39 5.28,37.43 5.82,37.48 6.34,37.54 6.87,37.6 7.39,37.66 7.91,37.73 8.42,37.81 8.93,37.9 9.43,37.99 9.92,38.08 10.42,38.19 10.9,38.29 11.38,38.4 11.86,38.52 12.33,38.65 12.79,38.77 13.25,38.91 13.7,39.05 14.14,39.19 14.58,39.34 15.01,39.49 15.44,39.65 15.85,39.81 16.26,39.97 16.67,40.14 17.06,40.32 17.45,40.5 17.83,40.68 18.2,40.87 18.57,41.06 18.92,41.25 19.27,41.45 19.61,41.65 19.94,41.86 20.26,42.07 20.57,42.28 20.88,42.49 21.17,42.71 21.46,42.93 21.73,43.16 22,43.38 22.25,43.61 22.5,43.85 22.73,44.08 22.96,44.32 22.96,44.32 22.47,44.25 21.98,44.18 21.49,44.11 21,44.05 20.51,43.98 20.02,43.92 19.53,43.85 19.04,43.79 18.55,43.73 18.06,43.67 17.57,43.61 17.08,43.55 16.6,43.49 16.11,43.44 15.62,43.39 15.13,43.33 14.64,43.28 14.15,43.23 13.66,43.18 13.17,43.14 12.68,43.09 12.19,43.05 11.7,43.01 11.21,42.97 10.72,42.93 10.23,42.89 9.74,42.86 9.25,42.83 8.76,42.8 8.27,42.77 7.78,42.74 7.29,42.71 6.8,42.69 6.31,42.67 5.82,42.65 5.33,42.63 4.84,42.62 4.35,42.6 3.86,42.59 3.37,42.58 2.88,42.58 2.39,42.57 1.91,42.57 1.42,42.57 0.93,42.58 0.44,42.58 -0.05,42.59 -0.54,42.6 -1.03,42.61 -1.52,42.63 -2.01,42.65 -2.5,42.67 -2.99,42.69 -3.48,42.71 -3.97,42.74 -4.46,42.77 -4.95,42.81 -5.44,42.85 -5.93,42.88 -6.42,42.93 -6.91,42.97 -7.4,43.02 -7.89,43.07 -8.38,43.13 -8.87,43.18 -9.36,43.25 -9.85,43.31 -10.34,43.38 -10.83,43.45 -11.32,43.52 -11.81,43.6 -12.3,43.68 -12.78,43.76 -13.27,43.84 -13.76,43.93 -14.25,44.03 -14.74,44.12 -15.23,44.22 -15.72,44.33 -16.21,44.44 -16.7,44.55 -17.19,44.66 -17.68,44.78 -18.17,44.9 -18.66,45.03 -19.15,45.16 -19.64,45.29 -20.13,45.43 -20.62,45.57 -21.11,45.71 -21.6,45.86 -22.09,46.01 -22.58,46.17 -23.07,46.33 -23.56,46.49 -24.05,46.66 -24.54,46.83 -25.03,47.01 -25.52,47.19" fill="rgb(215,127,140)" stroke="black" stroke-width="3" stroke-linejoin="round" filter="url(#fuzzy)" />
    </g>
  </svg>
  