
  <svg viewBox="-100 -100 200 200" xmlns="http://www.w3.org/2000/svg" width="500" height="500" id="face-svg">
    <defs>
      <clipPath id="leftEyeClipPath">
        <polyline points="24.84,0.01 24.62,-0.16 24.36,-0.34 24.07,-0.52 23.74,-0.71 23.38,-0.9 22.99,-1.09 22.57,-1.28 22.13,-1.48 21.66,-1.68 21.16,-1.87 20.64,-2.07 20.09,-2.26 19.52,-2.46 18.94,-2.65 18.33,-2.84 17.66,-3.09 16.97,-3.33 16.25,-3.57 15.51,-3.81 14.74,-4.03 13.95,-4.25 13.14,-4.47 12.31,-4.67 11.46,-4.86 10.6,-5.04 9.73,-5.21 8.85,-5.37 7.97,-5.52 7.07,-5.66 6.18,-5.78 5.28,-5.89 4.38,-5.98 3.49,-6.07 2.6,-6.13 1.72,-6.19 0.84,-6.23 -0.02,-6.25 -0.87,-6.26 -1.71,-6.26 -2.54,-6.24 -3.34,-6.21 -4.13,-6.17 -4.91,-6.11 -5.66,-6.04 -6.39,-5.96 -7.1,-5.86 -7.78,-5.76 -8.45,-5.64 -9.08,-5.51 -9.7,-5.37 -10.29,-5.21 -10.85,-5.05 -11.39,-4.88 -11.9,-4.71 -12.39,-4.52 -12.85,-4.33 -13.28,-4.13 -13.69,-3.92 -14.08,-3.71 -14.44,-3.49 -14.78,-3.27 -15.09,-3.05 -15.39,-2.82 -15.66,-2.59 -15.91,-2.36 -16.15,-2.13 -16.36,-1.89 -16.55,-1.65 -16.72,-1.41 -16.88,-1.17 -17.01,-0.92 -17.13,-0.68 -17.23,-0.43 -17.31,-0.18 -17.37,0.07 -17.42,0.32 -17.45,0.58 -17.46,0.83 -17.45,1.08 -17.01,4.27 -16.66,4.4 -16.3,4.53 -15.94,4.66 -15.56,4.78 -15.18,4.91 -14.79,5.03 -14.39,5.15 -13.98,5.26 -13.57,5.37 -13.14,5.48 -12.71,5.59 -12.28,5.69 -11.83,5.78 -11.38,5.87 -10.92,5.96 -10.45,6.05 -9.96,6.13 -9.47,6.2 -8.97,6.27 -8.47,6.34 -7.95,6.4 -7.42,6.45 -6.89,6.5 -6.35,6.54 -5.8,6.58 -5.25,6.6 -4.68,6.62 -4.11,6.63 -3.54,6.63 -2.95,6.63 -2.37,6.62 -1.77,6.6 -1.17,6.57 -0.57,6.53 0.05,6.49 0.66,6.44 1.28,6.38 1.91,6.32 2.54,6.24 3.17,6.17 3.81,6.08 4.45,5.99 5.09,5.9 5.74,5.8 6.39,5.69 7.04,5.59 7.7,5.48 8.36,5.36 9.02,5.25 9.68,5.13 10.34,5.01 11.01,4.9 11.67,4.78 12.33,4.66 13,4.55 13.66,4.43 14.32,4.32 14.98,4.21 15.64,4.1 16.29,4 16.94,3.9 17.59,3.81 18.22,3.72 18.85,3.64 19.36,3.53 19.86,3.42 20.35,3.32 20.83,3.21 21.29,3.11 21.74,3 22.17,2.89 22.59,2.78 22.99,2.67 23.38,2.56 23.74,2.45 24.08,2.33 24.4,2.22 24.69,2.1 24.96,1.97" />
      </clipPath>
      <clipPath id="rightEyeClipPath">
        <polyline points="-21.69,-0.08 -21.4,-0.3 -21.07,-0.52 -20.72,-0.74 -20.34,-0.97 -19.93,-1.2 -19.5,-1.43 -19.04,-1.66 -18.56,-1.9 -18.05,-2.13 -17.52,-2.36 -16.97,-2.59 -16.4,-2.82 -15.81,-3.04 -15.2,-3.26 -14.58,-3.48 -13.9,-3.78 -13.2,-4.08 -12.47,-4.36 -11.72,-4.63 -10.95,-4.9 -10.15,-5.15 -9.34,-5.38 -8.5,-5.61 -7.66,-5.82 -6.8,-6.01 -5.93,-6.19 -5.05,-6.35 -4.16,-6.5 -3.27,-6.63 -2.37,-6.74 -1.48,-6.84 -0.58,-6.91 0.31,-6.98 1.2,-7.02 2.08,-7.05 2.96,-7.06 3.82,-7.06 4.67,-7.04 5.51,-7 6.34,-6.95 7.15,-6.89 7.94,-6.81 8.71,-6.71 9.47,-6.6 10.2,-6.48 10.91,-6.35 11.6,-6.2 12.27,-6.04 12.91,-5.87 13.53,-5.7 14.12,-5.51 14.69,-5.31 15.23,-5.11 15.74,-4.9 16.23,-4.68 16.7,-4.46 17.14,-4.23 17.55,-3.99 17.94,-3.76 18.31,-3.52 18.65,-3.27 18.97,-3.03 19.27,-2.78 19.54,-2.53 19.8,-2.29 20.03,-2.04 20.24,-1.79 20.44,-1.54 20.61,-1.29 20.77,-1.04 20.9,-0.79 21.02,-0.54 21.12,-0.28 21.2,-0.03 21.26,0.22 21.3,0.47 21.33,0.72 21.34,0.97 21.33,1.21 18.16,5.07 17.66,5.2 17.16,5.33 16.64,5.46 16.12,5.59 15.59,5.71 15.04,5.83 14.49,5.95 13.92,6.06 13.35,6.17 12.77,6.28 12.19,6.38 11.59,6.48 10.99,6.57 10.38,6.66 9.76,6.75 9.14,6.83 8.5,6.91 7.85,6.98 7.2,7.05 6.54,7.12 5.87,7.17 5.2,7.23 4.52,7.27 3.84,7.31 3.15,7.34 2.46,7.36 1.77,7.38 1.08,7.39 0.4,7.39 -0.29,7.38 -0.98,7.36 -1.66,7.34 -2.35,7.3 -3.02,7.26 -3.7,7.22 -4.37,7.16 -5.03,7.1 -5.69,7.03 -6.34,6.95 -6.98,6.87 -7.62,6.78 -8.25,6.69 -8.87,6.59 -9.48,6.48 -10.09,6.37 -10.68,6.26 -11.27,6.14 -11.84,6.02 -12.41,5.9 -12.96,5.78 -13.51,5.66 -14.05,5.53 -14.57,5.41 -15.09,5.28 -15.59,5.16 -16.09,5.04 -16.57,4.92 -17.05,4.81 -17.51,4.69 -17.96,4.58 -18.4,4.47 -18.83,4.37 -19.25,4.27 -19.66,4.17 -20,4.05 -20.33,3.93 -20.64,3.81 -20.94,3.69 -21.23,3.56 -21.5,3.43 -21.76,3.3 -22,3.17 -22.23,3.04 -22.43,2.9 -22.62,2.76 -22.79,2.61 -22.94,2.46 -23.06,2.3 -23.17,2.14" />
      </clipPath>
      <filter id="fuzzy">
        <feTurbulence id="turbulence" baseFrequency="0.05" numOctaves="3" type="noise" result="noise" />
        <feDisplacementMap in="SourceGraphic" in2="noise" scale="2" />
      </filter>
      <linearGradient id="rainbowGradient" x1="0%" y1="0%" x2="100%" y2="0%">
        <stop offset="0%" style="stop-color: rgb(165, 42, 42); stop-opacity: 1" />
        <stop offset="50%" style="stop-color: rgb(220, 208, 186); stop-opacity: 1" />
        <stop offset="100%" style="stop-color: rgb(255, 105, 180); stop-opacity: 1" />
      </linearGradient>
    </defs>
    <rect x="-100" y="-100" width="100%" height="100%" fill="rgb(176, 224, 230)" />
    <polyline id="faceContour" points="58.15,1.33 58.18,2.83 58.2,2.19 58.2,4.19 58.13,5.04 58.13,6.28 57.95,10.11 57.85,8.43 57.77,11.54 57.8,12.16 57.28,14.95 57.53,14.61 57.23,16.48 57.22,16.61 56.63,19.81 56.54,20.72 56.41,21.56 56.22,23.19 56.22,23.32 55.31,27.15 55.27,28.13 55.09,27.93 54.76,29.42 54.63,29.92 54.23,32.22 53.84,33.15 53.65,33.84 53.15,35.24 52.46,38.29 52.35,38.31 52.27,38.66 51.53,40.28 50.87,42.97 49.88,44.95 50.07,44.7 49.65,45.44 48.69,47.49 48.72,47.91 48.07,48.96 47.74,49.62 47.54,50.24 46.64,52.38 45.99,53.67 45.28,54.65 45.62,54.26 43.98,57.14 43.39,57.77 42.47,59.27 42.4,59.65 41.77,60.5 40.89,62.07 39.97,63.19 40.71,62.49 39.14,64.48 38.42,65.37 37.57,66.45 37.96,65.98 36.53,67.75 35,69.56 35.79,68.74 33.98,70.68 33.45,70.99 32.92,71.83 31.87,73.01 32.07,72.86 31,73.74 30.42,74.23 29.48,74.8 28.25,75.9 27.4,76.94 27.39,76.88 25.39,78.12 24.42,79 23.54,79.44 22.59,80.18 23.38,79.82 20.59,81.57 19.82,81.98 19.25,82.22 18.05,82.83 18.04,82.58 16.78,83.15 15.96,83.79 15.35,83.67 14.98,84.18 13.39,84.69 13.36,84.63 11.08,85.3 9.28,86.12 10.69,85.62 9.05,86.17 9.26,85.79 6.8,86.28 6.25,86.6 6.45,86.68 4.39,86.88 3.97,86.63 3.64,87.09 1.95,86.97 0.02,87.12 -1.15,87.16 -1.32,87.12 -1.94,87.13 -3.01,87.14 -3.63,86.84 -5.5,86.62 -6.57,86.57 -5.25,86.48 -5.48,86.45 -7.45,86.34 -9.63,85.81 -10.94,85.34 -10.69,85.69 -12.77,85.09 -12.82,84.69 -13.14,84.86 -14.67,84.03 -15.52,83.7 -16.13,83.79 -17.79,82.83 -17.49,82.84 -18.06,82.81 -19.4,81.95 -19.84,81.88 -22.01,80.75 -22.39,80.1 -22.51,80.06 -23.02,79.85 -24.54,78.94 -27.02,76.98 -26.42,77.43 -26.98,77 -27.86,76.62 -27.64,76.7 -29.79,74.57 -30.5,74.41 -32.8,71.93 -31.74,73.15 -32.68,71.88 -34.14,70.47 -33.61,71.25 -34.92,69.86 -35.21,69.44 -37.29,66.85 -36.8,67.38 -37.59,66.51 -37.5,66.6 -39.02,64.71 -39.95,63.37 -40.52,62.75 -40.71,62.57 -41.22,61.69 -42.61,59.49 -43.89,57.2 -43.04,58.75 -44.46,56.16 -45.07,55.38 -45.57,54.42 -46.21,53.42 -45.96,53.57 -47.09,50.97 -47.61,50.59 -49.21,46.7 -49.28,46.86 -49.52,45.65 -49.6,45.41 -50.35,44.09 -50.5,43.49 -51.36,41.13 -51.15,41.89 -52.18,39.18 -52.8,36.92 -52.65,37.54 -53.01,35.94 -53.26,35.02 -53.45,34.64 -54.03,32.81 -54.18,32.36 -54.71,30.32 -54.78,30.27 -55.66,26.64 -55.91,25.32 -55.56,26.52 -56.08,23.99 -56.05,23.44 -56.42,22.15 -56.67,19.92 -57.14,17.67 -57.11,16.71 -57.52,15.18 -57.83,12.5 -57.5,14.14 -57.91,9.3 -57.95,9.1 -57.97,8.79 -58.14,8.72 -58.16,5.09 -58.4,3.22 -58.38,3.64 -58.29,1.72 -58.26,-0.65 -58.41,-1.62 -58.31,-2.4 -58.06,-5.44 -58.19,-4.6 -58.07,-7.77 -58.18,-8.12 -57.95,-10.33 -57.78,-10.67 -57.66,-13.96 -57.64,-12.5 -57.57,-14.3 -57.25,-17.13 -57.22,-17.56 -57.02,-18.41 -56.68,-20.15 -56.59,-21.45 -56.09,-23.81 -56.48,-22.42 -55.38,-27.32 -55.09,-27.92 -55.29,-28.02 -55.26,-28.35 -54.27,-31.61 -53.6,-33.9 -53.88,-32.74 -53.21,-35.75 -53.51,-34.59 -52.62,-37.36 -52.51,-37.78 -52.17,-38.92 -51.84,-39.88 -51.49,-41.07 -51.09,-42.07 -49.97,-44.76 -49.63,-45.92 -48.61,-48.5 -48.19,-48.89 -48.08,-49.35 -47.64,-50.23 -47.06,-51.32 -46.73,-52.08 -45.7,-54.34 -45.45,-54.44 -45.14,-55.04 -43.96,-57.25 -43.46,-58.17 -42.46,-59.66 -43.14,-58.85 -41.37,-61.58 -41.19,-61.41 -40.54,-62.8 -39.59,-64.13 -39.56,-64.34 -38.08,-65.73 -38.24,-65.57 -36.5,-67.78 -36.12,-68.13 -35.28,-69.45 -35.93,-68.4 -35.06,-69.82 -32.76,-71.9 -33.06,-71.54 -32.46,-72.63 -30.68,-74.34 -31.05,-73.66 -29.33,-75.44 -29.08,-75.37 -27.24,-77.17 -27.13,-77.07 -27.28,-77.33 -25.79,-78.1 -25.34,-78.42 -24.73,-78.88 -22.52,-80.68 -22.24,-80.47 -21.37,-81.09 -20.56,-81.47 -20.6,-81.65 -18.78,-82.46 -19.17,-82.27 -17.27,-83.47 -17.62,-83.15 -14.01,-84.48 -16.26,-83.5 -12.86,-85.02 -12.44,-84.95 -11.38,-85.4 -10.75,-85.49 -9.11,-86.07 -9.55,-85.71 -7.86,-86.36 -7.54,-86.57 -7.69,-86.31 -5.94,-86.92 -5.48,-86.88 -3.02,-86.9 -1.94,-87.22 -0.63,-87.17 -0.41,-87.26 0.36,-86.93 0.71,-87.3 2.98,-87.1 3.39,-87.11 4.23,-86.97 4.45,-87.1 5.22,-86.86 6.56,-86.36 7.64,-86.45 9.37,-86 8.63,-86.27 10.78,-85.65 10.5,-85.56 11.35,-85.4 11.23,-85.32 13.49,-84.76 14.01,-84.68 16.61,-83.27 16.54,-83.48 16.48,-83.71 18.63,-82.5 18.91,-82.15 19.35,-82.25 19.86,-81.76 21.42,-81.31 22.88,-80.25 24.3,-79.09 24.2,-79.45 24.74,-79.04 25.04,-78.39 26.57,-77.65 27.92,-76.3 28.83,-75.75 28.33,-76.31 29.75,-74.76 30.29,-74.34 32.37,-72.49 32.89,-71.92 31.55,-73.02 33.34,-71.64 33.16,-71.68 34.99,-69.82 35.68,-68.8 37.35,-66.85 36.3,-68.35 37.19,-67.27 37.88,-66.2 38.76,-65.03 39.71,-64.03 41.41,-61.2 40.56,-62.48 42.15,-60.25 42.03,-60.53 43.02,-58.56 44.24,-56.58 44.19,-57.13 45.33,-54.8 46.21,-53.07 46.27,-53.13 46.5,-52.53 46.84,-51.91 47.41,-50.22 47.96,-49.47 48.78,-47.92 49.12,-47.28 49.45,-45.94 50.55,-43.07 50.82,-42.5 50.68,-43.16 51.38,-41.03 52.08,-39.12 52.93,-36.71 52.72,-36.85 52.42,-37.96 53.11,-35.98 53.69,-33.91 54.3,-31.91 54.92,-29.74 54.72,-29.95 55.28,-27.79 55.56,-26.33 55.41,-26.99 56.22,-23.21 56.21,-23.06 56.39,-21.91 56.53,-21.24 56.49,-20.9 57.08,-17.96 57.42,-15.8 57.34,-15.5 57.69,-11.84 57.64,-11.97 57.8,-12.18 58.07,-8.01 57.98,-7.09 57.92,-7.08 58.06,-6.77 58.18,-4.47 58.19,-2 58.16,-2.5 58.15,1.33 58.18,2.83" fill="rgb(178, 34, 34)" stroke="black" stroke-width="1.6666666666666665" stroke-linejoin="round" filter="url(#fuzzy)" />
    <g transform="translate(23.66 -28.89)">
      <polyline id="rightCountour" points="-21.69,-0.08 -21.4,-0.3 -21.07,-0.52 -20.72,-0.74 -20.34,-0.97 -19.93,-1.2 -19.5,-1.43 -19.04,-1.66 -18.56,-1.9 -18.05,-2.13 -17.52,-2.36 -16.97,-2.59 -16.4,-2.82 -15.81,-3.04 -15.2,-3.26 -14.58,-3.48 -13.9,-3.78 -13.2,-4.08 -12.47,-4.36 -11.72,-4.63 -10.95,-4.9 -10.15,-5.15 -9.34,-5.38 -8.5,-5.61 -7.66,-5.82 -6.8,-6.01 -5.93,-6.19 -5.05,-6.35 -4.16,-6.5 -3.27,-6.63 -2.37,-6.74 -1.48,-6.84 -0.58,-6.91 0.31,-6.98 1.2,-7.02 2.08,-7.05 2.96,-7.06 3.82,-7.06 4.67,-7.04 5.51,-7 6.34,-6.95 7.15,-6.89 7.94,-6.81 8.71,-6.71 9.47,-6.6 10.2,-6.48 10.91,-6.35 11.6,-6.2 12.27,-6.04 12.91,-5.87 13.53,-5.7 14.12,-5.51 14.69,-5.31 15.23,-5.11 15.74,-4.9 16.23,-4.68 16.7,-4.46 17.14,-4.23 17.55,-3.99 17.94,-3.76 18.31,-3.52 18.65,-3.27 18.97,-3.03 19.27,-2.78 19.54,-2.53 19.8,-2.29 20.03,-2.04 20.24,-1.79 20.44,-1.54 20.61,-1.29 20.77,-1.04 20.9,-0.79 21.02,-0.54 21.12,-0.28 21.2,-0.03 21.26,0.22 21.3,0.47 21.33,0.72 21.34,0.97 21.33,1.21 18.16,5.07 17.66,5.2 17.16,5.33 16.64,5.46 16.12,5.59 15.59,5.71 15.04,5.83 14.49,5.95 13.92,6.06 13.35,6.17 12.77,6.28 12.19,6.38 11.59,6.48 10.99,6.57 10.38,6.66 9.76,6.75 9.14,6.83 8.5,6.91 7.85,6.98 7.2,7.05 6.54,7.12 5.87,7.17 5.2,7.23 4.52,7.27 3.84,7.31 3.15,7.34 2.46,7.36 1.77,7.38 1.08,7.39 0.4,7.39 -0.29,7.38 -0.98,7.36 -1.66,7.34 -2.35,7.3 -3.02,7.26 -3.7,7.22 -4.37,7.16 -5.03,7.1 -5.69,7.03 -6.34,6.95 -6.98,6.87 -7.62,6.78 -8.25,6.69 -8.87,6.59 -9.48,6.48 -10.09,6.37 -10.68,6.26 -11.27,6.14 -11.84,6.02 -12.41,5.9 -12.96,5.78 -13.51,5.66 -14.05,5.53 -14.57,5.41 -15.09,5.28 -15.59,5.16 -16.09,5.04 -16.57,4.92 -17.05,4.81 -17.51,4.69 -17.96,4.58 -18.4,4.47 -18.83,4.37 -19.25,4.27 -19.66,4.17 -20,4.05 -20.33,3.93 -20.64,3.81 -20.94,3.69 -21.23,3.56 -21.5,3.43 -21.76,3.3 -22,3.17 -22.23,3.04 -22.43,2.9 -22.62,2.76 -22.79,2.61 -22.94,2.46 -23.06,2.3 -23.17,2.14" fill="white" stroke="white" stroke-width="0" stroke-linejoin="round" filter="url(#fuzzy)" />
    </g>
    <g transform="translate(-23.23 -25.08)">
      <polyline id="leftCountour" points="24.84,0.01 24.62,-0.16 24.36,-0.34 24.07,-0.52 23.74,-0.71 23.38,-0.9 22.99,-1.09 22.57,-1.28 22.13,-1.48 21.66,-1.68 21.16,-1.87 20.64,-2.07 20.09,-2.26 19.52,-2.46 18.94,-2.65 18.33,-2.84 17.66,-3.09 16.97,-3.33 16.25,-3.57 15.51,-3.81 14.74,-4.03 13.95,-4.25 13.14,-4.47 12.31,-4.67 11.46,-4.86 10.6,-5.04 9.73,-5.21 8.85,-5.37 7.97,-5.52 7.07,-5.66 6.18,-5.78 5.28,-5.89 4.38,-5.98 3.49,-6.07 2.6,-6.13 1.72,-6.19 0.84,-6.23 -0.02,-6.25 -0.87,-6.26 -1.71,-6.26 -2.54,-6.24 -3.34,-6.21 -4.13,-6.17 -4.91,-6.11 -5.66,-6.04 -6.39,-5.96 -7.1,-5.86 -7.78,-5.76 -8.45,-5.64 -9.08,-5.51 -9.7,-5.37 -10.29,-5.21 -10.85,-5.05 -11.39,-4.88 -11.9,-4.71 -12.39,-4.52 -12.85,-4.33 -13.28,-4.13 -13.69,-3.92 -14.08,-3.71 -14.44,-3.49 -14.78,-3.27 -15.09,-3.05 -15.39,-2.82 -15.66,-2.59 -15.91,-2.36 -16.15,-2.13 -16.36,-1.89 -16.55,-1.65 -16.72,-1.41 -16.88,-1.17 -17.01,-0.92 -17.13,-0.68 -17.23,-0.43 -17.31,-0.18 -17.37,0.07 -17.42,0.32 -17.45,0.58 -17.46,0.83 -17.45,1.08 -17.01,4.27 -16.66,4.4 -16.3,4.53 -15.94,4.66 -15.56,4.78 -15.18,4.91 -14.79,5.03 -14.39,5.15 -13.98,5.26 -13.57,5.37 -13.14,5.48 -12.71,5.59 -12.28,5.69 -11.83,5.78 -11.38,5.87 -10.92,5.96 -10.45,6.05 -9.96,6.13 -9.47,6.2 -8.97,6.27 -8.47,6.34 -7.95,6.4 -7.42,6.45 -6.89,6.5 -6.35,6.54 -5.8,6.58 -5.25,6.6 -4.68,6.62 -4.11,6.63 -3.54,6.63 -2.95,6.63 -2.37,6.62 -1.77,6.6 -1.17,6.57 -0.57,6.53 0.05,6.49 0.66,6.44 1.28,6.38 1.91,6.32 2.54,6.24 3.17,6.17 3.81,6.08 4.45,5.99 5.09,5.9 5.74,5.8 6.39,5.69 7.04,5.59 7.7,5.48 8.36,5.36 9.02,5.25 9.68,5.13 10.34,5.01 11.01,4.9 11.67,4.78 12.33,4.66 13,4.55 13.66,4.43 14.32,4.32 14.98,4.21 15.64,4.1 16.29,4 16.94,3.9 17.59,3.81 18.22,3.72 18.85,3.64 19.36,3.53 19.86,3.42 20.35,3.32 20.83,3.21 21.29,3.11 21.74,3 22.17,2.89 22.59,2.78 22.99,2.67 23.38,2.56 23.74,2.45 24.08,2.33 24.4,2.22 24.69,2.1 24.96,1.97" fill="white" stroke="white" stroke-width="0" stroke-linejoin="round" filter="url(#fuzzy)" />
    </g>
    <g transform="translate(23.66 -28.89)">
      <polyline id="rightUpper" points="-22.74,1.48 -22.81,1.39 -22.83,1.28 -22.81,1.15 -22.76,1.01 -22.66,0.86 -22.54,0.69 -22.38,0.51 -22.18,0.32 -21.95,0.12 -21.69,-0.08 -21.4,-0.3 -21.07,-0.52 -20.72,-0.74 -20.34,-0.97 -19.93,-1.2 -19.5,-1.43 -19.04,-1.66 -18.56,-1.9 -18.05,-2.13 -17.52,-2.36 -16.97,-2.59 -16.4,-2.82 -15.81,-3.04 -15.2,-3.26 -14.58,-3.48 -13.9,-3.78 -13.2,-4.08 -12.47,-4.36 -11.72,-4.63 -10.95,-4.9 -10.15,-5.15 -9.34,-5.38 -8.5,-5.61 -7.66,-5.82 -6.8,-6.01 -5.93,-6.19 -5.05,-6.35 -4.16,-6.5 -3.27,-6.63 -2.37,-6.74 -1.48,-6.84 -0.58,-6.91 0.31,-6.98 1.2,-7.02 2.08,-7.05 2.96,-7.06 3.82,-7.06 4.67,-7.04 5.51,-7 6.34,-6.95 7.15,-6.89 7.94,-6.81 8.71,-6.71 9.47,-6.6 10.2,-6.48 10.91,-6.35 11.6,-6.2 12.27,-6.04 12.91,-5.87 13.53,-5.7 14.12,-5.51 14.69,-5.31 15.23,-5.11 15.74,-4.9 16.23,-4.68 16.7,-4.46 17.14,-4.23 17.55,-3.99 17.94,-3.76 18.31,-3.52 18.65,-3.27 18.97,-3.03 19.27,-2.78 19.54,-2.53 19.8,-2.29 20.03,-2.04 20.24,-1.79 20.44,-1.54 20.61,-1.29 20.77,-1.04 20.9,-0.79 21.02,-0.54 21.12,-0.28 21.2,-0.03 21.26,0.22 21.3,0.47 21.33,0.72 21.34,0.97 21.33,1.21 21.31,1.46 21.27,1.7 21.21,1.94 21.15,2.18 21.06,2.42 20.97,2.65 20.86,2.89 20.73,3.12 20.6,3.35 20.45,3.57" fill="none" stroke="black" stroke-width="1.6666666666666665" stroke-linejoin="round" filter="url(#fuzzy)" />
      <polyline id="rightLower" points="-22.7,0.09 -22.89,0.34 -23.05,0.58 -23.17,0.81 -23.25,1.03 -23.31,1.24 -23.34,1.43 -23.33,1.62 -23.3,1.8 -23.25,1.98 -23.17,2.14 -23.06,2.3 -22.94,2.46 -22.79,2.61 -22.62,2.76 -22.43,2.9 -22.23,3.04 -22,3.17 -21.76,3.3 -21.5,3.43 -21.23,3.56 -20.94,3.69 -20.64,3.81 -20.33,3.93 -20,4.05 -19.66,4.17 -19.25,4.27 -18.83,4.37 -18.4,4.47 -17.96,4.58 -17.51,4.69 -17.05,4.81 -16.57,4.92 -16.09,5.04 -15.59,5.16 -15.09,5.28 -14.57,5.41 -14.05,5.53 -13.51,5.66 -12.96,5.78 -12.41,5.9 -11.84,6.02 -11.27,6.14 -10.68,6.26 -10.09,6.37 -9.48,6.48 -8.87,6.59 -8.25,6.69 -7.62,6.78 -6.98,6.87 -6.34,6.95 -5.69,7.03 -5.03,7.1 -4.37,7.16 -3.7,7.22 -3.02,7.26 -2.35,7.3 -1.66,7.34 -0.98,7.36 -0.29,7.38 0.4,7.39 1.08,7.39 1.77,7.38 2.46,7.36 3.15,7.34 3.84,7.31 4.52,7.27 5.2,7.23 5.87,7.17 6.54,7.12 7.2,7.05 7.85,6.98 8.5,6.91 9.14,6.83 9.76,6.75 10.38,6.66 10.99,6.57 11.59,6.48 12.19,6.38 12.77,6.28 13.35,6.17 13.92,6.06 14.49,5.95 15.04,5.83 15.59,5.71 16.12,5.59 16.64,5.46 17.16,5.33 17.66,5.2 18.16,5.07 18.64,4.94 19.11,4.8 19.57,4.66 20.02,4.53 20.46,4.39 20.88,4.25 21.3,4.11 21.7,3.96 22.1,3.82 22.48,3.68" fill="none" stroke="black" stroke-width="2.2222222222222223" stroke-linejoin="round" filter="url(#fuzzy)" />
      <circle r="4.4239999999999995" cx="1.9014912804428628" cy="0.036512847303776574" stroke="black" fill="none" stroke-width="1.0" filter="url(#fuzzy)" clip-path="url(#rightEyeClipPath)" /><circle r="3.942" cx="-0.34350871955713735" cy="4.181512847303777" stroke="black" fill="none" stroke-width="1.0" filter="url(#fuzzy)" clip-path="url(#rightEyeClipPath)" /><circle r="4.388" cx="3.561491280442862" cy="3.181512847303776" stroke="black" fill="none" stroke-width="1.0" filter="url(#fuzzy)" clip-path="url(#rightEyeClipPath)" /><circle r="3.24" cx="2.551491280442862" cy="1.811512847303776" stroke="black" fill="none" stroke-width="1.0" filter="url(#fuzzy)" clip-path="url(#rightEyeClipPath)" /><circle r="3.944" cx="1.5314912804428626" cy="-0.18348715269622362" stroke="black" fill="none" stroke-width="1.0" filter="url(#fuzzy)" clip-path="url(#rightEyeClipPath)" /><circle r="4.6899999999999995" cx="2.641491280442862" cy="1.2615128473037762" stroke="black" fill="none" stroke-width="1.0" filter="url(#fuzzy)" clip-path="url(#rightEyeClipPath)" /><circle r="3.824" cx="3.5764912804428626" cy="3.646512847303776" stroke="black" fill="none" stroke-width="1.0" filter="url(#fuzzy)" clip-path="url(#rightEyeClipPath)" /><circle r="4.872" cx="1.7914912804428624" cy="0.011512847303776219" stroke="black" fill="none" stroke-width="1.0" filter="url(#fuzzy)" clip-path="url(#rightEyeClipPath)" /><circle r="3.794" cx="-0.4835087195571375" cy="1.0315128473037767" stroke="black" fill="none" stroke-width="1.0" filter="url(#fuzzy)" clip-path="url(#rightEyeClipPath)" /><circle r="4.836" cx="2.726491280442863" cy="1.3265128473037766" stroke="black" fill="none" stroke-width="1.0" filter="url(#fuzzy)" clip-path="url(#rightEyeClipPath)" />
      </g>
    <g transform="translate(-23.23 -25.08)">
      <polyline id="leftUpper" points="24.88,1.27 25.07,1.2 25.22,1.11 25.32,1.01 25.38,0.9 25.39,0.77 25.37,0.64 25.29,0.49 25.18,0.34 25.03,0.18 24.84,0.01 24.62,-0.16 24.36,-0.34 24.07,-0.52 23.74,-0.71 23.38,-0.9 22.99,-1.09 22.57,-1.28 22.13,-1.48 21.66,-1.68 21.16,-1.87 20.64,-2.07 20.09,-2.26 19.52,-2.46 18.94,-2.65 18.33,-2.84 17.66,-3.09 16.97,-3.33 16.25,-3.57 15.51,-3.81 14.74,-4.03 13.95,-4.25 13.14,-4.47 12.31,-4.67 11.46,-4.86 10.6,-5.04 9.73,-5.21 8.85,-5.37 7.97,-5.52 7.07,-5.66 6.18,-5.78 5.28,-5.89 4.38,-5.98 3.49,-6.07 2.6,-6.13 1.72,-6.19 0.84,-6.23 -0.02,-6.25 -0.87,-6.26 -1.71,-6.26 -2.54,-6.24 -3.34,-6.21 -4.13,-6.17 -4.91,-6.11 -5.66,-6.04 -6.39,-5.96 -7.1,-5.86 -7.78,-5.76 -8.45,-5.64 -9.08,-5.51 -9.7,-5.37 -10.29,-5.21 -10.85,-5.05 -11.39,-4.88 -11.9,-4.71 -12.39,-4.52 -12.85,-4.33 -13.28,-4.13 -13.69,-3.92 -14.08,-3.71 -14.44,-3.49 -14.78,-3.27 -15.09,-3.05 -15.39,-2.82 -15.66,-2.59 -15.91,-2.36 -16.15,-2.13 -16.36,-1.89 -16.55,-1.65 -16.72,-1.41 -16.88,-1.17 -17.01,-0.92 -17.13,-0.68 -17.23,-0.43 -17.31,-0.18 -17.37,0.07 -17.42,0.32 -17.45,0.58 -17.46,0.83 -17.45,1.08 -17.44,1.33 -17.4,1.58 -17.35,1.84 -17.29,2.09 -17.21,2.34 -17.12,2.59 -17.02,2.83 -16.9,3.08 -16.78,3.33 -16.64,3.57" fill="none" stroke="black" stroke-width="2.2222222222222223" stroke-linejoin="round" filter="url(#fuzzy)" />
      <polyline id="leftLower" points="25.75,0.46 25.85,0.65 25.91,0.82 25.93,0.99 25.9,1.15 25.83,1.3 25.72,1.44 25.58,1.58 25.41,1.72 25.2,1.85 24.96,1.97 24.69,2.1 24.4,2.22 24.08,2.33 23.74,2.45 23.38,2.56 22.99,2.67 22.59,2.78 22.17,2.89 21.74,3 21.29,3.11 20.83,3.21 20.35,3.32 19.86,3.42 19.36,3.53 18.85,3.64 18.22,3.72 17.59,3.81 16.94,3.9 16.29,4 15.64,4.1 14.98,4.21 14.32,4.32 13.66,4.43 13,4.55 12.33,4.66 11.67,4.78 11.01,4.9 10.34,5.01 9.68,5.13 9.02,5.25 8.36,5.36 7.7,5.48 7.04,5.59 6.39,5.69 5.74,5.8 5.09,5.9 4.45,5.99 3.81,6.08 3.17,6.17 2.54,6.24 1.91,6.32 1.28,6.38 0.66,6.44 0.05,6.49 -0.57,6.53 -1.17,6.57 -1.77,6.6 -2.37,6.62 -2.95,6.63 -3.54,6.63 -4.11,6.63 -4.68,6.62 -5.25,6.6 -5.8,6.58 -6.35,6.54 -6.89,6.5 -7.42,6.45 -7.95,6.4 -8.47,6.34 -8.97,6.27 -9.47,6.2 -9.96,6.13 -10.45,6.05 -10.92,5.96 -11.38,5.87 -11.83,5.78 -12.28,5.69 -12.71,5.59 -13.14,5.48 -13.57,5.37 -13.98,5.26 -14.39,5.15 -14.79,5.03 -15.18,4.91 -15.56,4.78 -15.94,4.66 -16.3,4.53 -16.66,4.4 -17.01,4.27 -17.35,4.13 -17.68,3.99 -18,3.86 -18.31,3.72 -18.62,3.58 -18.91,3.44 -19.2,3.3 -19.48,3.15 -19.75,3.01 -20.01,2.87" fill="none" stroke="black" stroke-width="2.2222222222222223" stroke-linejoin="round" filter="url(#fuzzy)" />
      <circle r="4.388" cx="1.1655549087170831" cy="-2.6394344931891194" stroke="black" fill="none" stroke-width="1.0" filter="url(#fuzzy)" clip-path="url(#leftEyeClipPath)" /><circle r="3.314" cx="2.710554908717083" cy="-0.9844344931891191" stroke="black" fill="none" stroke-width="1.0" filter="url(#fuzzy)" clip-path="url(#leftEyeClipPath)" /><circle r="3.882" cx="1.065554908717083" cy="-5.274434493189119" stroke="black" fill="none" stroke-width="1.0" filter="url(#fuzzy)" clip-path="url(#leftEyeClipPath)" /><circle r="4.298" cx="5.180554908717083" cy="-5.574434493189119" stroke="black" fill="none" stroke-width="1.0" filter="url(#fuzzy)" clip-path="url(#leftEyeClipPath)" /><circle r="4.75" cx="2.010554908717083" cy="-3.029434493189119" stroke="black" fill="none" stroke-width="1.0" filter="url(#fuzzy)" clip-path="url(#leftEyeClipPath)" /><circle r="4.91" cx="2.210554908717083" cy="-3.214434493189119" stroke="black" fill="none" stroke-width="1.0" filter="url(#fuzzy)" clip-path="url(#leftEyeClipPath)" /><circle r="3.056" cx="4.575554908717082" cy="-4.454434493189119" stroke="black" fill="none" stroke-width="1.0" filter="url(#fuzzy)" clip-path="url(#leftEyeClipPath)" /><circle r="3.504" cx="5.405554908717082" cy="-3.434434493189119" stroke="black" fill="none" stroke-width="1.0" filter="url(#fuzzy)" clip-path="url(#leftEyeClipPath)" /><circle r="4.1419999999999995" cx="2.2755549087170825" cy="-5.729434493189119" stroke="black" fill="none" stroke-width="1.0" filter="url(#fuzzy)" clip-path="url(#leftEyeClipPath)" /><circle r="4.204" cx="5.060554908717083" cy="-3.939434493189119" stroke="black" fill="none" stroke-width="1.0" filter="url(#fuzzy)" clip-path="url(#leftEyeClipPath)" />
    </g>
    <g id="hairs">
      <polyline points="46.84,-51.91 47.24,-50.63 47.34,-49.7 47.09,-48.94 46.48,-48.3 45.47,-47.81 44.05,-47.52 42.2,-47.46 39.92,-47.62 37.2,-48 34.04,-48.6 30.41,-49.45 26.29,-50.58 21.68,-51.95 16.57,-53.49 10.94,-55.17 4.8,-57.02 -1.89,-59.1 -9.13,-61.47 -16.93,-64.16 -25.37,-67.09" fill="none" stroke="rgb(80, 68, 68)" stroke-width="2" stroke-linejoin="round" filter="url(#fuzzy)" /><polyline points="2.98,-87.1 3.49,-87.07 4.11,-87 4.82,-86.89 5.66,-86.73 6.56,-86.55 7.43,-86.38 8.2,-86.22 8.83,-86.07 9.29,-85.95 9.61,-85.83 9.81,-85.73 9.91,-85.63 9.89,-85.54 9.71,-85.46 9.31,-85.41 8.65,-85.41 7.69,-85.45 6.42,-85.56 4.81,-85.71 2.78,-85.91 0.23,-86.16 -2.81,-86.48" fill="none" stroke="rgb(80, 68, 68)" stroke-width="2" stroke-linejoin="round" filter="url(#fuzzy)" /><polyline points="29.75,-74.76 30.61,-74.03 31.45,-73.27 31.98,-72.77 32.31,-72.44 32.58,-72.14 32.84,-71.81 33.03,-71.51 33.07,-71.34 32.85,-71.37 32.33,-71.67 31.49,-72.22 30.35,-72.99 28.92,-73.96 27.21,-75.15 25.16,-76.65 22.66,-78.58 19.66,-80.95" fill="none" stroke="rgb(80, 68, 68)" stroke-width="2" stroke-linejoin="round" filter="url(#fuzzy)" /><polyline points="-11.38,-85.4 -10.53,-85.58 -9.56,-85.8 -8.58,-86.01 -7.59,-86.21 -6.59,-86.41 -5.57,-86.59 -4.53,-86.75 -3.53,-86.88 -2.63,-86.99 -1.97,-87.06 -1.69,-87.1 -1.94,-87.08 -2.83,-87.02 -4.31,-86.95" fill="none" stroke="rgb(80, 68, 68)" stroke-width="2" stroke-linejoin="round" filter="url(#fuzzy)" /><polyline points="27.92,-76.3 28.36,-75.99 28.51,-75.62 28.6,-75.04 28.49,-74.39 28.03,-73.79 27.17,-73.31 25.92,-72.91 24.32,-72.51 22.4,-72.08 20.13,-71.6 17.46,-71.13 14.32,-70.69 10.69,-70.3 6.58,-69.93 1.98,-69.56 -3.11,-69.15 -8.7,-68.7 -14.84,-68.3 -21.49,-68.08 -28.52,-68.14" fill="none" stroke="rgb(80, 68, 68)" stroke-width="2" stroke-linejoin="round" filter="url(#fuzzy)" /><polyline points="18.91,-82.15 19.23,-82.02 19.42,-81.54 19.35,-80.82 18.78,-79.96 17.57,-79.04 15.68,-78.08 13.14,-77.05 10,-75.9 6.26,-74.6 1.85,-73.16 -3.32,-71.6 -9.28,-69.95 -16.03,-68.17 -23.55,-66.21 -31.89,-63.98" fill="none" stroke="rgb(80, 68, 68)" stroke-width="2" stroke-linejoin="round" filter="url(#fuzzy)" /><polyline points="-0.41,-87.26 0.3,-87.13 1.14,-87.12 1.96,-87.11 2.59,-87.06 3,-86.98 3.24,-86.86 3.32,-86.7 3.25,-86.52 2.95,-86.31 2.36,-86.09 1.39,-85.85 0.01,-85.58 -1.81,-85.27 -4.08,-84.92 -6.77,-84.53 -9.88,-84.12 -13.49,-83.69" fill="none" stroke="rgb(80, 68, 68)" stroke-width="2" stroke-linejoin="round" filter="url(#fuzzy)" /><polyline points="-7.54,-86.57 -7.1,-86.55 -6.04,-86.69 -4.73,-86.83 -3.36,-86.93 -2.1,-87.01 -1,-87.06 -0.07,-87.1 0.71,-87.11 1.36,-87.11 1.86,-87.11 2.19,-87.09 2.3,-87.06 2.18,-87.01 1.8,-86.95 1.11,-86.88 0.03,-86.79 -1.46,-86.7 -3.36,-86.6 -5.52,-86.5" fill="none" stroke="rgb(80, 68, 68)" stroke-width="2" stroke-linejoin="round" filter="url(#fuzzy)" /><polyline points="-7.69,-86.31 -6.2,-86.63 -4.61,-86.66 -2.87,-86.55 -1.1,-86.33 0.64,-86.02 2.36,-85.63 4.11,-85.18 5.9,-84.7 7.74,-84.17 9.6,-83.61 11.46,-83 13.3,-82.37 15.09,-81.75 16.83,-81.16 18.49,-80.61 20.03,-80.11 21.42,-79.65 22.58,-79.29 23.44,-79.07 24.04,-79.03" fill="none" stroke="rgb(80, 68, 68)" stroke-width="2" stroke-linejoin="round" filter="url(#fuzzy)" /><polyline points="-7.69,-86.31 -6.1,-86.51 -4.18,-86.18 -1.88,-85.49 0.66,-84.51 3.36,-83.25 6.21,-81.74 9.26,-80 12.55,-78.06 16.07,-75.92 19.77,-73.6 23.59,-71.14 27.48,-68.58 31.41,-66 35.37,-63.43 39.34,-60.84" fill="none" stroke="rgb(80, 68, 68)" stroke-width="2" stroke-linejoin="round" filter="url(#fuzzy)" /><polyline points="7.64,-86.45 8.69,-86.19 9.36,-86.01 9.98,-85.82 10.56,-85.63 11.11,-85.44 11.66,-85.25 12.16,-85.05 12.54,-84.88 12.71,-84.74 12.58,-84.68 12.14,-84.7 11.38,-84.79 10.26,-84.97 8.75,-85.22 6.85,-85.55 4.6,-85.97 2.1,-86.51" fill="none" stroke="rgb(80, 68, 68)" stroke-width="2" stroke-linejoin="round" filter="url(#fuzzy)" /><polyline points="-5.94,-86.92 -4.87,-86.89 -3.25,-86.88 -1.6,-86.84 -0.06,-86.75 1.41,-86.62 2.87,-86.45 4.34,-86.26 5.81,-86.08 7.18,-85.89 8.39,-85.72 9.38,-85.58 10.09,-85.49 10.54,-85.46 10.74,-85.48 10.76,-85.51" fill="none" stroke="rgb(80, 68, 68)" stroke-width="2" stroke-linejoin="round" filter="url(#fuzzy)" /><polyline points="21.42,-81.31 22.7,-80.36 23.66,-79.67 24.4,-79.13 25.1,-78.6 25.84,-78.03 26.59,-77.44 27.3,-76.89 27.87,-76.43 28.28,-76.08 28.52,-75.85 28.59,-75.75 28.44,-75.81 28.03,-76.07 27.3,-76.58 26.21,-77.35 24.75,-78.34 22.98,-79.51 21.01,-80.8" fill="none" stroke="rgb(80, 68, 68)" stroke-width="2" stroke-linejoin="round" filter="url(#fuzzy)" /><polyline points="-7.86,-86.36 -7.53,-86.47 -6.87,-86.57 -5.85,-86.7 -4.62,-86.83 -3.35,-86.94 -2.19,-87.03 -1.22,-87.09 -0.46,-87.12 0.1,-87.13 0.46,-87.12 0.61,-87.1 0.47,-87.06 -0.01,-86.98 -0.83,-86.88 -1.94,-86.75 -3.28,-86.59 -4.83,-86.41 -6.73,-86.17" fill="none" stroke="rgb(80, 68, 68)" stroke-width="2" stroke-linejoin="round" filter="url(#fuzzy)" /><polyline points="-27.13,-77.07 -26.66,-77.45 -25.5,-77.96 -23.94,-78.54 -22.08,-79.17 -20.01,-79.81 -17.8,-80.4 -15.52,-80.93 -13.15,-81.41 -10.7,-81.85 -8.16,-82.29 -5.57,-82.73 -2.95,-83.17 -0.39,-83.62 2.05,-84.08 4.3,-84.54 6.41,-84.97 8.5,-85.32" fill="none" stroke="rgb(80, 68, 68)" stroke-width="2" stroke-linejoin="round" filter="url(#fuzzy)" /><polyline points="41.41,-61.2 41.18,-61.49 41.33,-61 41.41,-60.35 41.31,-59.69 40.97,-59.14 40.35,-58.75 39.39,-58.56 38.08,-58.6 36.39,-58.87 34.31,-59.35 31.87,-60.01 29.04,-60.82 25.84,-61.79 22.24,-62.92 18.23,-64.22 13.79,-65.74 8.92,-67.5 3.6,-69.55 -2.15,-71.91 -8.34,-74.55 -15,-77.41" fill="none" stroke="rgb(80, 68, 68)" stroke-width="2" stroke-linejoin="round" filter="url(#fuzzy)" /><polyline points="-7.86,-86.36 -7.57,-86.47 -7.01,-86.57 -6.19,-86.69 -5.23,-86.8 -4.32,-86.87 -3.61,-86.89 -3.21,-86.86 -3.16,-86.76 -3.47,-86.59 -4.13,-86.36 -5.17,-86.05 -6.65,-85.64 -8.62,-85.16 -11.11,-84.59 -14.14,-83.96" fill="none" stroke="rgb(80, 68, 68)" stroke-width="2" stroke-linejoin="round" filter="url(#fuzzy)" /><polyline points="0.71,-87.3 2.33,-87.16 3.39,-87.04 4.28,-86.91 5.19,-86.74 6.19,-86.53 7.24,-86.31 8.27,-86.09 9.2,-85.88 9.98,-85.71 10.59,-85.56 11.04,-85.44 11.37,-85.35 11.59,-85.28 11.72,-85.23 11.7,-85.22 11.44,-85.26 10.85,-85.39 9.84,-85.61 8.39,-85.95 6.55,-86.44" fill="none" stroke="rgb(80, 68, 68)" stroke-width="2" stroke-linejoin="round" filter="url(#fuzzy)" /><polyline points="46.5,-52.53 46.87,-51.7 47.25,-50.78 47.57,-49.97 47.78,-49.29 47.83,-48.75 47.72,-48.4 47.41,-48.31 46.9,-48.5 46.17,-48.99 45.23,-49.78 44.04,-50.9 42.58,-52.39 40.8,-54.3 38.71,-56.6 36.33,-59.26 33.69,-62.23 30.78,-65.56 27.55,-69.33 23.99,-73.63 20.25,-78.34" fill="none" stroke="rgb(80, 68, 68)" stroke-width="2" stroke-linejoin="round" filter="url(#fuzzy)" /><polyline points="37.35,-66.85 36.84,-67.48 36.74,-67.22 36.63,-66.63 36.3,-65.98 35.61,-65.41 34.48,-65.03 32.88,-64.85 30.8,-64.85 28.27,-65.02 25.28,-65.33 21.8,-65.8 17.79,-66.45 13.19,-67.29 7.95,-68.33 2.06,-69.6 -4.48,-71.1 -11.61,-72.83 -19.25,-74.79" fill="none" stroke="rgb(80, 68, 68)" stroke-width="2" stroke-linejoin="round" filter="url(#fuzzy)" /><polyline points="9.37,-86 9.35,-86.02 9.69,-85.84 9.86,-85.66 9.84,-85.47 9.66,-85.26 9.29,-85.02 8.62,-84.75 7.51,-84.49 5.84,-84.26 3.54,-84.04 0.62,-83.83 -2.93,-83.63 -7.14,-83.47 -12.07,-83.35" fill="none" stroke="rgb(80, 68, 68)" stroke-width="2" stroke-linejoin="round" filter="url(#fuzzy)" /><polyline points="28.83,-75.75 28.94,-75.65 29.67,-74.95 30.53,-74.13 31.3,-73.41 31.9,-72.84 32.36,-72.4 32.74,-72 33.07,-71.63 33.34,-71.3 33.47,-71.07 33.41,-71 33.13,-71.14 32.63,-71.47 31.94,-71.96 31.05,-72.61 29.89,-73.48 28.37,-74.64 26.41,-76.16 24.07,-78.01 21.51,-80.08" fill="none" stroke="rgb(80, 68, 68)" stroke-width="2" stroke-linejoin="round" filter="url(#fuzzy)" /><polyline points="19.35,-82.25 20.19,-81.73 21.36,-81.08 22.48,-80.41 23.41,-79.81 24.16,-79.29 24.82,-78.81 25.44,-78.34 26.01,-77.89 26.49,-77.48 26.85,-77.15 27.06,-76.9 27.11,-76.74 26.99,-76.68 26.69,-76.74 26.16,-76.95 25.41,-77.31 24.4,-77.82 23.14,-78.46 21.59,-79.24 19.75,-80.18 17.63,-81.3 15.32,-82.61 12.96,-84.09" fill="none" stroke="rgb(80, 68, 68)" stroke-width="2" stroke-linejoin="round" filter="url(#fuzzy)" /><polyline points="-5.94,-86.92 -4.97,-86.91 -3.72,-86.96 -2.66,-87 -1.92,-86.99 -1.43,-86.93 -1.14,-86.81 -1.02,-86.64 -1.07,-86.42 -1.34,-86.13 -1.85,-85.77 -2.61,-85.34 -3.64,-84.81 -4.97,-84.19 -6.61,-83.46 -8.63,-82.63 -11.03,-81.71 -13.81,-80.72 -16.93,-79.69 -20.38,-78.6 -24.27,-77.33" fill="none" stroke="rgb(80, 68, 68)" stroke-width="2" stroke-linejoin="round" filter="url(#fuzzy)" /><polyline points="-25.34,-78.42 -24.17,-79.07 -22.43,-79.61 -20.44,-79.86 -18.21,-79.88 -15.7,-79.75 -12.88,-79.53 -9.74,-79.24 -6.3,-78.88 -2.56,-78.43 1.43,-77.89 5.61,-77.29 9.9,-76.66 14.21,-76.07 18.54,-75.47 22.92,-74.76 27.49,-73.74" fill="none" stroke="rgb(80, 68, 68)" stroke-width="2" stroke-linejoin="round" filter="url(#fuzzy)" /><polyline points="-10.75,-85.49 -9.76,-85.78 -9.23,-85.87 -8.85,-85.89 -8.58,-85.81 -8.36,-85.61 -8.19,-85.3 -8.1,-84.84 -8.16,-84.24 -8.46,-83.48 -9.06,-82.54 -9.99,-81.42 -11.24,-80.1 -12.79,-78.6 -14.66,-76.88 -16.86,-74.95 -19.4,-72.77 -22.3,-70.34 -25.57,-67.65 -29.18,-64.7 -33.16,-61.49 -37.55,-58 -42.38,-54.23" fill="none" stroke="rgb(80, 68, 68)" stroke-width="2" stroke-linejoin="round" filter="url(#fuzzy)" /><polyline points="-27.13,-77.07 -26.54,-77.36 -25.03,-77.59 -22.89,-77.74 -20.2,-77.8 -17.07,-77.72 -13.57,-77.46 -9.76,-77.02 -5.66,-76.43 -1.29,-75.75 3.34,-75.02 8.21,-74.26 13.33,-73.44 18.71,-72.48 24.37,-71.26 30.2,-69.8" fill="none" stroke="rgb(80, 68, 68)" stroke-width="2" stroke-linejoin="round" filter="url(#fuzzy)" /><polyline points="50.82,-42.5 50.96,-42.24 51.37,-41.08 51.77,-39.86 52.04,-38.95 52.19,-38.34 52.26,-37.9 52.27,-37.5 52.23,-37.16 52.1,-36.95 51.85,-36.96 51.45,-37.27 50.89,-37.9 50.17,-38.87 49.31,-40.17 48.29,-41.8 47.09,-43.8 45.7,-46.19 44.09,-49 42.29,-52.17 40.36,-55.66 38.34,-59.43 36.22,-63.55 33.76,-68.31" fill="none" stroke="rgb(80, 68, 68)" stroke-width="2" stroke-linejoin="round" filter="url(#fuzzy)" /><polyline points="3.39,-87.11 4.09,-87.01 4.85,-86.86 5.81,-86.64 6.92,-86.37 8.07,-86.09 9.17,-85.81 10.19,-85.54 11.1,-85.27 11.95,-85.01 12.75,-84.76 13.53,-84.51 14.28,-84.26 14.94,-84.04 15.48,-83.86 15.81,-83.73 15.9,-83.69 15.73,-83.74 15.31,-83.86 14.68,-84.06 13.89,-84.32 12.98,-84.64 11.88,-85.03 10.54,-85.53" fill="none" stroke="rgb(80, 68, 68)" stroke-width="2" stroke-linejoin="round" filter="url(#fuzzy)" /><polyline points="-3.02,-86.9 -1.99,-87.09 -1.08,-87.15 -0.31,-87.15 0.4,-87.14 1.07,-87.13 1.64,-87.12 2,-87.09 2.06,-87.05 1.76,-86.98 1.07,-86.88 -0.02,-86.76 -1.5,-86.62 -3.35,-86.5 -5.49,-86.43" fill="none" stroke="rgb(80, 68, 68)" stroke-width="2" stroke-linejoin="round" filter="url(#fuzzy)" /><polyline points="42.03,-60.53 42.98,-58.77 43.83,-57.33 44.59,-56.02 45.28,-54.77 45.88,-53.65 46.37,-52.71 46.75,-51.95 47.05,-51.33 47.28,-50.85 47.44,-50.52 47.5,-50.39 47.42,-50.52 47.13,-51.02 46.59,-52.01 45.76,-53.56 44.62,-55.67" fill="none" stroke="rgb(80, 68, 68)" stroke-width="2" stroke-linejoin="round" filter="url(#fuzzy)" /><polyline points="4.23,-86.97 4.81,-86.83 6.01,-86.29 7.63,-85.49 9.51,-84.5 11.51,-83.34 13.61,-82.02 15.77,-80.58 18.01,-79.03 20.34,-77.42 22.78,-75.75 25.31,-74.05 27.9,-72.31 30.46,-70.57 32.92,-68.85 35.18,-67.27 37.16,-66" fill="none" stroke="rgb(80, 68, 68)" stroke-width="2" stroke-linejoin="round" filter="url(#fuzzy)" /><polyline points="26.57,-77.65 27.65,-76.66 28.41,-76.02 29.13,-75.39 29.93,-74.66 30.77,-73.88 31.53,-73.15 32.17,-72.55 32.69,-72.06 33.12,-71.63 33.49,-71.25 33.8,-70.9 33.98,-70.67 33.97,-70.62 33.72,-70.81 33.24,-71.22 32.54,-71.82 31.63,-72.61 30.43,-73.64 28.84,-75.03 26.82,-76.88" fill="none" stroke="rgb(80, 68, 68)" stroke-width="2" stroke-linejoin="round" filter="url(#fuzzy)" /><polyline points="4.23,-86.97 4.68,-86.96 5.48,-86.78 6.42,-86.58 7.33,-86.4 8.1,-86.24 8.68,-86.11 9.09,-85.98 9.34,-85.87 9.44,-85.76 9.42,-85.65 9.24,-85.55 8.87,-85.47 8.23,-85.41 7.23,-85.41 5.78,-85.46 3.84,-85.55 1.42,-85.69 -1.43,-85.87 -4.55,-86.12" fill="none" stroke="rgb(80, 68, 68)" stroke-width="2" stroke-linejoin="round" filter="url(#fuzzy)" /><polyline points="28.83,-75.75 28.77,-75.67 28.99,-75.01 29.01,-74.23 28.58,-73.52 27.61,-72.95 26.14,-72.44 24.24,-71.91 21.93,-71.28 19.2,-70.57 15.96,-69.83 12.18,-69.12 7.82,-68.47 2.89,-67.86 -2.61,-67.22 -8.72,-66.5 -15.46,-65.72 -22.89,-64.97 -31.02,-64.4" fill="none" stroke="rgb(80, 68, 68)" stroke-width="2" stroke-linejoin="round" filter="url(#fuzzy)" /><polyline points="-12.44,-84.95 -11.51,-85.29 -10.65,-85.55 -9.87,-85.77 -9.2,-85.95 -8.62,-86.11 -8.09,-86.23 -7.58,-86.32 -7.08,-86.35 -6.63,-86.33 -6.28,-86.26 -6.09,-86.11 -6.13,-85.9 -6.4,-85.61 -6.93,-85.25 -7.71,-84.82 -8.75,-84.29 -10.08,-83.67 -11.74,-82.92 -13.73,-82.06 -16.03,-81.08 -18.59,-80.04 -21.35,-78.97 -24.24,-77.97" fill="none" stroke="rgb(80, 68, 68)" stroke-width="2" stroke-linejoin="round" filter="url(#fuzzy)" /><polyline points="-29.08,-75.37 -27.76,-76.5 -26.74,-77.07 -25.55,-77.52 -24.04,-78.02 -22.24,-78.58 -20.2,-79.19 -18,-79.8 -15.73,-80.39 -13.41,-80.93 -11.06,-81.42 -8.67,-81.88 -6.25,-82.32 -3.81,-82.76 -1.4,-83.2 0.94,-83.65 3.12,-84.1 5.11,-84.56 6.95,-84.98 8.76,-85.33" fill="none" stroke="rgb(80, 68, 68)" stroke-width="2" stroke-linejoin="round" filter="url(#fuzzy)" /><polyline points="19.35,-82.25 20.23,-81.69 21.53,-80.88 22.89,-79.96 24.14,-79.04 25.26,-78.15 26.34,-77.28 27.41,-76.39 28.49,-75.5 29.54,-74.63 30.5,-73.83 31.31,-73.15 31.95,-72.62 32.38,-72.28 32.59,-72.13 32.61,-72.15 32.52,-72.25 32.49,-72.31" fill="none" stroke="rgb(80, 68, 68)" stroke-width="2" stroke-linejoin="round" filter="url(#fuzzy)" /><polyline points="24.2,-79.45 24.76,-78.94 25.58,-78.24 26.56,-77.44 27.52,-76.67 28.4,-75.96 29.21,-75.28 29.95,-74.63 30.64,-74.01 31.23,-73.46 31.7,-73.02 32.02,-72.71 32.22,-72.5 32.29,-72.38 32.23,-72.36 32.01,-72.48 31.57,-72.78 30.89,-73.31 29.98,-74.04 28.89,-74.95 27.64,-75.99 26.14,-77.25 24.16,-78.93" fill="none" stroke="rgb(80, 68, 68)" stroke-width="2" stroke-linejoin="round" filter="url(#fuzzy)" /><polyline points="50.82,-42.5 50.82,-42.36 50.83,-41.53 50.57,-40.82 49.9,-40.62 48.8,-40.92 47.29,-41.6 45.39,-42.49 43.11,-43.6 40.42,-44.99 37.29,-46.76 33.7,-49 29.62,-51.74 25.04,-54.96 19.94,-58.66 14.28,-62.82 8.02,-67.46 1.09,-72.57 -6.75,-78.06" fill="none" stroke="rgb(80, 68, 68)" stroke-width="2" stroke-linejoin="round" filter="url(#fuzzy)" /><polyline points="47.96,-49.47 48.52,-48.33 48.79,-47.45 48.87,-46.75 48.72,-46.38 48.3,-46.42 47.61,-46.86 46.64,-47.66 45.35,-48.88 43.68,-50.59 41.6,-52.87 39.12,-55.7 36.27,-58.99 33.06,-62.72 29.45,-66.96 25.4,-71.83 21.03,-77.34" fill="none" stroke="rgb(80, 68, 68)" stroke-width="2" stroke-linejoin="round" filter="url(#fuzzy)" /><polyline points="0.36,-86.93 -1.16,-87 -3.22,-86.9 -5.35,-86.66 -7.44,-86.29 -9.53,-85.82 -11.66,-85.26 -13.83,-84.64 -16.03,-83.96 -18.19,-83.25 -20.29,-82.51 -22.29,-81.73 -24.21,-80.89 -26.11,-79.98 -28.04,-78.99 -30.05,-77.91 -32.16,-76.75 -34.33,-75.49 -36.48,-74.15 -38.54,-72.74 -40.45,-71.26 -42.19,-69.71 -43.81,-68.1 -45.39,-66.42 -47,-64.67 -48.68,-62.85 -50.46,-60.97 -52.32,-59.06 -54.24,-57.14 -56.24,-55.2 -58.29,-53.26 -60.36,-51.26 -62.36,-49.17 -64.28,-46.89 -66.3,-44.33 -68.59,-41.5 -69.93,-38.92" fill="none" stroke="rgb(80, 68, 68)" stroke-width="2" stroke-linejoin="round" filter="url(#fuzzy)" /><polyline points="-0.63,-87.17 -3.11,-86.97 -5.52,-86.71 -7.66,-86.34 -9.66,-85.86 -11.74,-85.3 -14.09,-84.66 -16.76,-83.99 -19.66,-83.28 -22.64,-82.55 -25.57,-81.78 -28.42,-80.96 -31.2,-80.07 -33.94,-79.09 -36.71,-78.03 -39.55,-76.88 -42.49,-75.64 -45.59,-74.31 -48.9,-72.91 -52.42,-71.44 -56.06,-69.92 -59.66,-68.35 -62.99,-66.7 -65.93,-64.96 -68.56,-63.13 -71.18,-61.22 -74.17,-59.28 -77.58,-57.38 -81.12,-55.52 -84.96,-53.63 -91.32,-51.32" fill="none" stroke="rgb(80, 68, 68)" stroke-width="2" stroke-linejoin="round" filter="url(#fuzzy)" /><polyline points="-7.69,-86.31 -9.72,-86.21 -11.44,-85.9 -12.96,-85.44 -14.41,-84.87 -16.07,-84.19 -18.05,-83.39 -20.35,-82.5 -22.83,-81.53 -25.38,-80.49 -28,-79.4 -30.76,-78.24 -33.77,-77.03 -37.06,-75.76 -40.54,-74.42 -43.97,-73.03 -47.1,-71.58 -49.8,-70.08 -52.08,-68.54 -54.11,-66.98 -56.12,-65.39 -58.29,-63.77 -60.74,-62.09 -63.5,-60.32 -66.59,-58.44 -70.04,-56.43 -73.88,-54.34 -78.01,-52.23 -82.12,-50.11 -85.93,-47.91 -89.47,-45.36 -92.54,-42.07" fill="none" stroke="rgb(80, 68, 68)" stroke-width="2" stroke-linejoin="round" filter="url(#fuzzy)" /><polyline points="-7.54,-86.57 -6.93,-85.91 -9.13,-85.33 -11.7,-84.66 -13.87,-83.95 -15.37,-83.22 -16.19,-82.49 -16.5,-81.73 -16.58,-80.91 -16.66,-80.01 -16.85,-79.02 -17.12,-77.94 -17.41,-76.77 -17.64,-75.51 -17.83,-74.17 -18.08,-72.75 -18.44,-71.27 -18.93,-69.73 -19.44,-68.14 -19.82,-66.47 -19.94,-64.72 -19.76,-62.9 -19.35,-61.01 -18.84,-59.1 -18.28,-57.18 -17.61,-55.28 -16.69,-53.37 -15.44,-51.46 -13.77,-49.53 -11.18,-47.5 -6.58,-44.76" fill="none" stroke="rgb(80, 68, 68)" stroke-width="2" stroke-linejoin="round" filter="url(#fuzzy)" /><polyline points="-7.54,-86.57 -9.37,-85.92 -11.42,-85.33 -13.93,-84.67 -16.79,-83.96 -19.71,-83.24 -22.43,-82.51 -24.96,-81.76 -27.55,-80.94 -30.45,-80.05 -33.72,-79.08 -37.21,-78.01 -40.64,-76.86 -43.77,-75.61 -46.49,-74.27 -48.84,-72.86 -50.98,-71.39 -53.16,-69.87 -55.66,-68.3 -58.71,-66.66 -62.47,-64.93 -66.93,-63.09 -71.97,-61.18 -77.26,-59.25 -82.31,-57.36 -86.69,-55.5 -90.49,-53.62 -94.02,-51.32" fill="none" stroke="rgb(80, 68, 68)" stroke-width="2" stroke-linejoin="round" filter="url(#fuzzy)" /><polyline points="-9.55,-85.71 -14.37,-85.33 -16.27,-84.68 -17.96,-83.95 -19.87,-83.21 -22.04,-82.49 -24.43,-81.75 -27.03,-80.94 -29.86,-80.05 -32.98,-79.07 -36.45,-78 -40.33,-76.85 -44.63,-75.6 -49.26,-74.26 -53.96,-72.84 -58.45,-71.37 -62.51,-69.85 -66.16,-68.28 -69.67,-66.65 -73.33,-64.91 -77.3,-63.08 -81.49,-61.17 -85.71,-59.24 -90.01,-57.35 -94.9,-55.5 -100.69,-53.62 -105.5,-51.32" fill="none" stroke="rgb(80, 68, 68)" stroke-width="2" stroke-linejoin="round" filter="url(#fuzzy)" /><polyline points="-16.26,-83.5 -17.65,-83 -19.11,-82.37 -20.82,-81.68 -22.87,-80.88 -25.07,-79.97 -27.14,-78.95 -28.96,-77.83 -30.66,-76.63 -32.47,-75.34 -34.61,-73.96 -37.19,-72.51 -40.19,-71 -43.42,-69.43 -46.64,-67.8 -49.59,-66.1 -52.08,-64.33 -54.1,-62.5 -55.8,-60.62 -57.46,-58.71 -59.37,-56.77 -61.74,-54.81 -64.6,-52.8 -67.8,-50.74 -71.13,-48.58 -74.37,-46.32 -77.39,-44 -80.1,-41.65 -82.52,-39.35 -84.79,-37.11 -87.09,-34.86 -89.5,-32.41 -92.19,-29.76 -95.54,-27.92" fill="none" stroke="rgb(80, 68, 68)" stroke-width="2" stroke-linejoin="round" filter="url(#fuzzy)" /><polyline points="-19.17,-82.27 -20.58,-81.68 -22.37,-80.95 -24.34,-80.02 -26.22,-78.97 -27.95,-77.84 -29.63,-76.64 -31.36,-75.34 -33.17,-73.95 -35.05,-72.49 -36.99,-70.98 -39.03,-69.41 -41.2,-67.79 -43.51,-66.1 -45.93,-64.33 -48.36,-62.49 -50.73,-60.61 -52.96,-58.7 -55.04,-56.77 -56.99,-54.82 -58.83,-52.83 -60.61,-50.78 -62.39,-48.63 -64.23,-46.37 -66.21,-44.02 -68.33,-41.65 -70.5,-39.37 -72.72,-37.21 -75.25,-35.05 -78.55,-32.43 -82.21,-28.35" fill="none" stroke="rgb(80, 68, 68)" stroke-width="2" stroke-linejoin="round" filter="url(#fuzzy)" /><polyline points="-21.37,-81.09 -23.94,-80.19 -27.96,-78.99 -30.97,-77.83 -33.04,-76.65 -35.32,-75.37 -38.4,-73.98 -41.94,-72.5 -45.23,-70.98 -47.78,-69.44 -49.66,-67.84 -51.34,-66.16 -53.39,-64.4 -56.2,-62.56 -59.88,-60.68 -64.31,-58.77 -69.23,-56.86 -74.31,-54.95 -79.21,-53.01 -83.64,-51.02 -87.62,-48.92 -91.65,-46.65 -96.69,-44.17 -103.12,-41.58 -108.97,-39.18 -109.22,-37.36" fill="none" stroke="rgb(80, 68, 68)" stroke-width="2" stroke-linejoin="round" filter="url(#fuzzy)" /><polyline points="-22.52,-80.68 -24.9,-78.95 -26.65,-77.74 -28.22,-76.6 -29.86,-75.32 -31.54,-73.89 -33.22,-72.39 -34.85,-70.85 -36.46,-69.27 -38.07,-67.65 -39.68,-65.95 -41.29,-64.17 -42.91,-62.31 -44.51,-60.42 -46.07,-58.5 -47.56,-56.56 -48.94,-54.59 -50.21,-52.59 -51.39,-50.51 -52.55,-48.35 -53.77,-46.1 -55.08,-43.79 -56.5,-41.46 -57.98,-39.15 -59.44,-36.85 -60.77,-34.5 -61.92,-32 -62.96,-29.3 -64.08,-26.42 -65.5,-23.56 -66.72,-21.45" fill="none" stroke="rgb(80, 68, 68)" stroke-width="2" stroke-linejoin="round" filter="url(#fuzzy)" /><polyline points="-24.73,-78.88 -25.9,-78 -27.35,-76.84 -28.89,-75.54 -30.42,-74.17 -31.89,-72.75 -33.32,-71.27 -34.72,-69.74 -36.09,-68.18 -37.41,-66.6 -38.69,-65.02 -39.92,-63.4 -41.13,-61.72 -42.33,-59.94 -43.52,-58.04 -44.7,-56.03 -45.86,-53.94 -46.99,-51.8 -48.07,-49.61 -49.13,-47.32 -50.19,-44.9 -51.24,-42.37 -52.23,-39.82 -53.12,-37.32 -54.03,-34.59" fill="none" stroke="rgb(80, 68, 68)" stroke-width="2" stroke-linejoin="round" filter="url(#fuzzy)" /><polyline points="-27.13,-77.07 -28.98,-75.48 -30.66,-74.03 -32.37,-72.6 -34.32,-71.1 -36.56,-69.53 -38.98,-67.93 -41.55,-66.32 -44.36,-64.7 -47.54,-63.03 -51.17,-61.28 -55.14,-59.42 -59.21,-57.47 -63.09,-55.41 -66.54,-53.27 -69.39,-51.06 -71.58,-48.78 -73.11,-46.44 -74.06,-44.06 -74.58,-41.66 -74.94,-39.27 -75.48,-36.91 -76.55,-34.6 -78.47,-32.32 -81.38,-30.02 -85.24,-27.68 -89.75,-25.25 -94.41,-22.73 -98.69,-20.15 -102.22,-17.58 -104.98,-15.09 -107.17,-12.69 -109.02,-10.29 -110.93,-7.82 -114.24,-5.44" fill="none" stroke="rgb(80, 68, 68)" stroke-width="2" stroke-linejoin="round" filter="url(#fuzzy)" /><polyline points="-29.08,-75.37 -31.17,-73.93 -33.59,-72.58 -35.79,-71.09 -37.78,-69.51 -39.82,-67.9 -41.98,-66.29 -44.22,-64.68 -46.49,-63.02 -48.79,-61.28 -51.07,-59.43 -53.26,-57.48 -55.3,-55.42 -57.15,-53.28 -58.8,-51.07 -60.29,-48.79 -61.63,-46.45 -62.9,-44.06 -64.14,-41.66 -65.47,-39.27 -66.93,-36.92 -68.55,-34.62 -70.24,-32.35 -71.85,-30.07 -73.24,-27.75 -74.36,-25.33 -75.34,-22.79 -76.42,-20.19 -77.81,-17.6 -79.4,-15.13 -80.72,-12.78 -81.45,-10.37 -82.8,-7.77" fill="none" stroke="rgb(80, 68, 68)" stroke-width="2" stroke-linejoin="round" filter="url(#fuzzy)" /><polyline points="-29.08,-75.37 -32.7,-73.93 -35.57,-72.57 -37.12,-71.08 -38.09,-69.49 -39.04,-67.87 -40.29,-66.26 -41.99,-64.63 -44.1,-62.96 -46.49,-61.21 -49.04,-59.35 -51.71,-57.38 -54.53,-55.31 -57.55,-53.15 -60.75,-50.93 -64.04,-48.64 -67.27,-46.3 -70.29,-43.92 -73.01,-41.52 -75.45,-39.14 -77.74,-36.78 -80.04,-34.45 -82.45,-32.14 -84.96,-29.82 -87.46,-27.45 -89.81,-25.02 -91.99,-22.52 -94.13,-19.98 -96.5,-17.44 -99.31,-14.91 -102.55,-12.41 -105.97,-9.89 -109.18,-7.27 -111.95,-4.52 -114.41,-1.66 -116.93,1.11 -121.14,3.22" fill="none" stroke="rgb(80, 68, 68)" stroke-width="2" stroke-linejoin="round" filter="url(#fuzzy)" /><polyline points="-30.68,-74.34 -37.77,-72.1 -42.52,-70.49 -43.63,-69.05 -44.34,-67.52 -46.49,-65.83 -50.4,-64 -55.43,-62.1 -60.48,-60.17 -64.57,-58.24 -67.23,-56.31 -68.6,-54.35 -69.28,-52.35 -69.93,-50.27 -71.05,-48.1 -72.8,-45.85 -75.08,-43.54 -77.64,-41.21 -80.31,-38.89 -83.04,-36.56 -85.97,-34.18 -89.25,-31.67 -92.99,-29.03 -97.2,-26.29 -101.81,-23.58 -106.75,-21.06 -112.02,-18.84 -116.84,-17.13" fill="none" stroke="rgb(80, 68, 68)" stroke-width="2" stroke-linejoin="round" filter="url(#fuzzy)" /><polyline points="-30.68,-74.34 -28.8,-72.09 -27.44,-70.47 -28.26,-69 -29.58,-67.44 -30.46,-65.73 -30.85,-63.88 -31.02,-61.97 -31.22,-60.02 -31.56,-58.07 -32.07,-56.1 -32.78,-54.11 -33.73,-52.05 -34.91,-49.93 -36.25,-47.73 -37.61,-45.47 -38.77,-43.16 -39.57,-40.8 -39.85,-38.42 -39.55,-36 -38.65,-33.53 -37.25,-30.99 -35.49,-28.4 -33.53,-25.78 -31.56,-23.14 -29.71,-20.51 -28.09,-17.88 -26.7,-15.27 -25.43,-12.65 -24.08,-10.02 -22.4,-7.4 -20.34,-4.79 -18.13,-2.19 -16.28,0.41 -15.22,3.05 -14.86,5.76 -13.9,8.79" fill="none" stroke="rgb(80, 68, 68)" stroke-width="2" stroke-linejoin="round" filter="url(#fuzzy)" /><polyline points="-30.68,-74.34 -36.05,-72.09 -39.57,-70.48 -41.28,-69.02 -41.7,-67.47 -41.92,-65.77 -42.83,-63.93 -44.88,-62.02 -48.18,-60.08 -52.52,-58.13 -57.47,-56.18 -62.45,-54.2 -66.97,-52.16 -70.72,-50.06 -73.72,-47.87 -76.2,-45.61 -78.5,-43.3 -80.92,-40.96 -83.59,-38.6 -86.48,-36.21 -89.42,-33.75 -92.21,-31.23 -94.78,-28.63 -97.21,-25.99 -99.68,-23.35 -102.28,-20.72 -104.95,-18.13 -107.54,-15.54 -110.16,-12.92 -113.16,-10.27 -116.74,-7.59 -120.16,-4.89 -122.68,-2.4" fill="none" stroke="rgb(80, 68, 68)" stroke-width="2" stroke-linejoin="round" filter="url(#fuzzy)" /><polyline points="56.49,-20.9 57.31,-16.64 57.94,-13.55 58.48,-10.9 58.91,-8.32 59.21,-5.68 59.39,-2.98 59.46,-0.24 59.45,2.5 59.37,5.23 59.26,7.95 59.1,10.62 58.92,13.24 58.69,15.8 58.41,18.32 58.07,20.81 57.69,23.29 57.26,25.77 56.8,28.25 56.33,30.73 55.84,33.19 55.33,35.65 54.79,38.07 54.2,40.46 53.56,42.79 52.86,45.05 52.12,47.23 51.32,49.34 50.47,51.42 49.53,53.47 48.52,55.53 47.43,57.58 46.3,59.58 45.15,61.46 43.96,63.2 42.74,64.79 41.86,65.98" fill="none" stroke="rgb(80, 68, 68)" stroke-width="2" stroke-linejoin="round" filter="url(#fuzzy)" /><polyline points="56.49,-20.9 60.34,-16.67 60.98,-13.59 60.64,-10.98 60.26,-8.43 60.07,-5.81 60.07,-3.14 60.2,-0.43 60.37,2.29 60.51,5.01 60.57,7.72 60.55,10.38 60.46,12.98 60.33,15.52 60.22,18.01 60.11,20.46 60.01,22.91 59.88,25.37 59.7,27.83 59.44,30.29 59.09,32.75 58.63,35.2 58.07,37.65 57.46,40.11 56.87,42.56 56.31,44.94 55.66,47.15 54.86,48.96" fill="none" stroke="rgb(80, 68, 68)" stroke-width="2" stroke-linejoin="round" filter="url(#fuzzy)" /><polyline points="-35.93,-68.4 -39.46,-67.46 -42.78,-66 -44.69,-64.47 -46.28,-62.87 -48.12,-61.14 -50.36,-59.26 -52.88,-57.25 -55.42,-55.14 -57.78,-52.95 -59.85,-50.7 -61.64,-48.39 -63.18,-46.03 -64.51,-43.63 -65.71,-41.23 -66.86,-38.84 -68.08,-36.48 -69.43,-34.15 -70.98,-31.83 -72.7,-29.48 -74.62,-27.1 -76.73,-24.66 -79.05,-22.17 -81.53,-19.65 -84.07,-17.11 -86.51,-14.55 -88.63,-11.99 -90.35,-9.39 -91.74,-6.72 -93.13,-3.97 -94.94,-1.14 -97.55,1.75 -100.98,4.66 -104.78,7.55 -108.14,10.37 -110.42,13.04 -111.68,15.46 -112.1,17.67" fill="none" stroke="rgb(80, 68, 68)" stroke-width="2" stroke-linejoin="round" filter="url(#fuzzy)" /><polyline points="-35.28,-69.45 -36.89,-67.73 -38.38,-65.88 -39.86,-63.91 -41.33,-61.92 -42.74,-59.94 -44.04,-58.01 -45.23,-56.08 -46.34,-54.14 -47.4,-52.13 -48.41,-50.05 -49.4,-47.86 -50.36,-45.59 -51.31,-43.28 -52.26,-40.94 -53.18,-38.6 -54.09,-36.24 -54.95,-33.82 -55.75,-31.31 -56.49,-28.7 -57.17,-26.04 -57.8,-23.39 -58.39,-20.8 -58.95,-18.25 -59.45,-15.7 -59.91,-13.09 -60.39,-10.52 -60.96,-8.12" fill="none" stroke="rgb(80, 68, 68)" stroke-width="2" stroke-linejoin="round" filter="url(#fuzzy)" /><polyline points="-35.28,-69.45 -37.78,-67.71 -39.5,-65.83 -41.22,-63.85 -42.96,-61.84 -44.69,-59.85 -46.57,-57.89 -48.78,-55.93 -51.43,-53.95 -54.43,-51.9 -57.54,-49.77 -60.45,-47.56 -62.92,-45.28 -64.83,-42.94 -66.21,-40.58 -67.23,-38.19 -68.05,-35.75 -68.83,-33.27 -69.65,-30.73 -70.5,-28.14 -71.35,-25.51 -72.17,-22.88 -73.01,-20.24 -74,-17.61 -75.34,-14.99 -77.23,-12.37 -79.77,-9.75 -82.88,-7.14 -86.21,-4.53 -89.24,-1.94 -91.44,0.63 -92.55,3.17 -92.71,5.67 -92.49,8.15 -92.65,10.68 -93.65,13.43 -95.01,16.59 -95.86,19.92" fill="none" stroke="rgb(80, 68, 68)" stroke-width="2" stroke-linejoin="round" filter="url(#fuzzy)" /><polyline points="-35.28,-69.45 -41.55,-67.71 -44.46,-65.83 -46.21,-63.85 -46.98,-61.84 -47.24,-59.85 -47.47,-57.89 -47.96,-55.93 -48.87,-53.95 -50.19,-51.9 -51.85,-49.77 -53.68,-47.56 -55.52,-45.28 -57.28,-42.94 -58.97,-40.58 -60.73,-38.19 -62.65,-35.75 -64.8,-33.27 -67.08,-30.73 -69.31,-28.14 -71.25,-25.51 -72.75,-22.88 -73.74,-20.24 -74.32,-17.61 -74.66,-14.99 -75,-12.37 -75.52,-9.75 -76.31,-7.14 -77.34,-4.53 -78.46,-1.94 -79.52,0.63 -80.41,3.17 -81.15,5.67 -81.94,8.15 -83.01,10.68 -84.38,13.43 -85.35,16.59 -84.53,19.92" fill="none" stroke="rgb(80, 68, 68)" stroke-width="2" stroke-linejoin="round" filter="url(#fuzzy)" /><polyline points="-36.12,-68.13 -42.78,-66.08 -43.97,-64.46 -45.3,-62.9 -47.49,-61.21 -49.83,-59.34 -51.67,-57.33 -52.94,-55.21 -53.93,-53.03 -54.97,-50.8 -56.23,-48.51 -57.66,-46.16 -59.15,-43.76 -60.61,-41.35 -62.03,-38.96 -63.44,-36.62 -64.91,-34.32 -66.47,-32.04 -68.16,-29.76 -69.96,-27.41 -71.88,-24.99 -73.92,-22.48 -76.04,-19.94 -78.15,-17.39 -80.1,-14.9 -81.79,-12.44 -83.22,-9.96 -84.58,-7.37 -86.18,-4.59 -88.03,-1.55 -88.57,1.72" fill="none" stroke="rgb(80, 68, 68)" stroke-width="2" stroke-linejoin="round" filter="url(#fuzzy)" /><polyline points="-41.19,-61.41 -43.72,-59.39 -45.29,-57.6 -47.26,-55.75 -50.25,-53.84 -54.3,-51.83 -58.69,-49.7 -62.43,-47.47 -65.01,-45.15 -66.64,-42.79 -67.95,-40.41 -69.52,-38.03 -71.57,-35.62 -73.95,-33.14 -76.32,-30.6 -78.37,-28 -80.03,-25.37 -81.47,-22.73 -83.06,-20.1 -85.18,-17.49 -88.03,-14.88 -91.53,-12.27 -95.35,-9.66 -99.08,-7.05 -102.4,-4.45 -105.2,-1.86 -107.52,0.7 -109.49,3.23 -111.27,5.72 -113.17,8.19 -115.61,10.71 -118.88,13.45 -122.46,16.6 -124.55,19.92" fill="none" stroke="rgb(80, 68, 68)" stroke-width="2" stroke-linejoin="round" filter="url(#fuzzy)" /><polyline points="-41.37,-61.58 -42.95,-59.54 -44.38,-57.28 -45.65,-55 -46.84,-52.79 -48.09,-50.58 -49.48,-48.3 -50.93,-45.93 -52.31,-43.5 -53.51,-41.06 -54.47,-38.67 -55.25,-36.33 -55.95,-34.05 -56.67,-31.8 -57.49,-29.51 -58.43,-27.17 -59.47,-24.74 -60.53,-22.24 -61.53,-19.71 -62.4,-17.18 -63.12,-14.67 -63.74,-12.18 -64.34,-9.66 -65,-7.05 -65.71,-4.32 -66.38,-1.46 -66.84,1.48 -67.05,4.61 -67.3,8.72" fill="none" stroke="rgb(80, 68, 68)" stroke-width="2" stroke-linejoin="round" filter="url(#fuzzy)" /><polyline points="-43.14,-58.85 -44.46,-57.54 -46.75,-55.76 -49.92,-53.86 -53.57,-51.88 -56.94,-49.79 -59.53,-47.56 -61.33,-45.24 -62.6,-42.88 -63.56,-40.52 -64.31,-38.18 -64.86,-35.81 -65.22,-33.38 -65.51,-30.85 -65.93,-28.25 -66.71,-25.62 -68,-22.98 -69.88,-20.38 -72.38,-17.8 -75.45,-15.23 -79,-12.63 -82.78,-10.02 -86.34,-7.41 -89.11,-4.84 -90.92,-2.31 -92.25,0.31 -93.6,3.64" fill="none" stroke="rgb(80, 68, 68)" stroke-width="2" stroke-linejoin="round" filter="url(#fuzzy)" /><polyline points="-43.96,-57.25 -48.35,-54.75 -48.91,-52.57 -49.6,-50.46 -51.64,-48.24 -54.97,-45.87 -58.77,-43.41 -62.14,-40.94 -64.56,-38.54 -66.09,-36.22 -67.26,-33.97 -68.66,-31.75 -70.68,-29.49 -73.36,-27.17 -76.39,-24.74 -79.24,-22.24 -81.44,-19.7 -82.77,-17.17 -83.43,-14.68 -83.94,-12.23 -84.9,-9.74 -86.7,-7.15 -89.32,-4.43 -92.38,-1.59 -95.54,1.15 -98.71,3.22" fill="none" stroke="rgb(80, 68, 68)" stroke-width="2" stroke-linejoin="round" filter="url(#fuzzy)" /><polyline points="-45.14,-55.04 -45.93,-53.67 -46.91,-51.74 -47.93,-49.64 -48.98,-47.36 -50.04,-44.97 -51.04,-42.55 -51.94,-40.16 -52.74,-37.78 -53.45,-35.37 -54.12,-32.89 -54.75,-30.33 -55.36,-27.71 -55.94,-25.07 -56.47,-22.42 -56.95,-19.79 -57.36,-17.17 -57.72,-14.55 -58.02,-11.94 -58.26,-9.33 -58.45,-6.72 -58.59,-4.13 -58.68,-1.55 -58.71,1.02 -58.71,3.58 -58.65,6.15 -58.54,8.76 -58.37,11.44 -58.14,14.24 -57.83,17.13 -57.47,20.06 -57.07,22.89 -56.65,25.49 -56.21,27.87 -55.7,30.25 -55.03,32.81" fill="none" stroke="rgb(80, 68, 68)" stroke-width="2" stroke-linejoin="round" filter="url(#fuzzy)" /><polyline points="-45.45,-54.44 -47.37,-52.34 -50.25,-50.33 -52.53,-48.12 -54.06,-45.69 -55.16,-43.18 -56.03,-40.68 -56.7,-38.26 -57.22,-35.92 -57.64,-33.63 -58.07,-31.35 -58.61,-29.03 -59.37,-26.65 -60.4,-24.2 -61.77,-21.69 -63.44,-19.15 -65.32,-16.6 -67.21,-14.04 -68.89,-11.45 -70.16,-8.82 -70.94,-6.13 -71.29,-3.38 -71.43,-0.58 -71.61,2.27 -72.05,5.11 -72.9,7.95 -74.15,10.74 -75.73,13.48 -77.5,16.19 -79.24,18.86 -80.66,21.52 -81.4,24.18 -81.27,26.88 -80.53,29.62 -80.07,32.3 -80.89,34.64" fill="none" stroke="rgb(80, 68, 68)" stroke-width="2" stroke-linejoin="round" filter="url(#fuzzy)" /><polyline points="56.39,-21.91 62.18,-19.71 61.49,-16.68 60.98,-13.79 62.02,-11.11 64.17,-8.49 66.52,-5.85 68.4,-3.18 69.57,-0.47 70.07,2.25 70.14,4.97 70.02,7.68 69.9,10.35 69.84,12.96 69.81,15.5 69.81,18 69.87,20.47 70.08,22.93 70.53,25.39 71.23,27.86 72.06,30.33 72.77,32.79 73.16,35.25 73.17,37.7 72.91,40.15 72.65,42.56 72.57,44.89 72.59,47.02 72.45,48.84 72.44,50.24" fill="none" stroke="rgb(80, 68, 68)" stroke-width="2" stroke-linejoin="round" filter="url(#fuzzy)" /><polyline points="-47.06,-51.32 -51.11,-49.55 -53.71,-47.42 -54.4,-44.95 -54.87,-42.45 -55.83,-40.05 -57.27,-37.73 -59.02,-35.38 -60.96,-32.93 -62.99,-30.37 -65.07,-27.74 -67.12,-25.09 -69.07,-22.45 -70.81,-19.83 -72.22,-17.23 -73.19,-14.64 -73.71,-12.04 -73.89,-9.44 -73.98,-6.84 -74.22,-4.26 -74.72,-1.69 -75.44,0.86 -76.21,3.38 -76.92,5.87 -77.63,8.37 -78.59,10.94 -79.97,13.71 -81.59,16.78 -82.84,20.09 -83.6,23.44" fill="none" stroke="rgb(80, 68, 68)" stroke-width="2" stroke-linejoin="round" filter="url(#fuzzy)" /><polyline points="-51.09,-42.07 -53.99,-39.9 -55.35,-37.64 -55.64,-35.41 -56.05,-33.24 -57.27,-31.06 -59.43,-28.79 -62.34,-26.41 -65.65,-23.92 -68.95,-21.36 -71.84,-18.79 -73.96,-16.22 -75.11,-13.66 -75.33,-11.07 -74.89,-8.43 -74.22,-5.74 -73.72,-2.97 -73.64,-0.16 -73.96,2.67 -74.5,5.51 -75.04,8.32 -75.43,11.11 -75.71,13.85 -76.03,16.56 -76.58,19.23 -77.47,21.89 -78.72,24.51 -80.28,27.09 -82.05,29.6 -83.96,32 -85.78,34.27 -87.13,36.47 -87.5,38.71 -86.6,41.07 -84.74,43.42 -82.95,45.41" fill="none" stroke="rgb(80, 68, 68)" stroke-width="2" stroke-linejoin="round" filter="url(#fuzzy)" /><polyline points="-51.09,-42.07 -51.88,-39.91 -52.86,-37.65 -54.02,-35.43 -55.46,-33.27 -57.34,-31.11 -59.65,-28.86 -62.12,-26.48 -64.32,-24 -65.93,-21.45 -66.88,-18.89 -67.32,-16.33 -67.53,-13.78 -67.76,-11.22 -68.13,-8.6 -68.68,-5.92 -69.39,-3.17 -70.25,-0.36 -71.25,2.48 -72.4,5.33 -73.66,8.14 -74.97,10.92 -76.22,13.65 -77.29,16.35 -78.09,19.01 -78.57,21.66 -78.78,24.31 -78.8,26.97 -78.81,29.61 -78.98,32.14 -79.54,34.32 -80.4,35.94" fill="none" stroke="rgb(80, 68, 68)" stroke-width="2" stroke-linejoin="round" filter="url(#fuzzy)" /><polyline points="-51.49,-41.07 -53.11,-39.17 -54.93,-37.33 -56.65,-35.21 -58.09,-32.76 -59.11,-30.1 -59.84,-27.37 -60.51,-24.66 -61.28,-22 -62.16,-19.39 -63.09,-16.8 -64.01,-14.2 -64.86,-11.6 -65.69,-9 -66.55,-6.4 -67.47,-3.81 -68.43,-1.24 -69.29,1.31 -69.94,3.87 -70.32,6.44 -70.48,9.05 -70.56,11.74 -70.72,14.51 -71.05,17.36 -71.57,20.21 -72.19,22.98 -72.8,25.59 -73.25,28.05 -73.41,30.43 -73.28,32.8 -73.09,35.17 -73.35,37.54" fill="none" stroke="rgb(80, 68, 68)" stroke-width="2" stroke-linejoin="round" filter="url(#fuzzy)" /><polyline points="56.21,-23.06 54.6,-20.86 52.84,-18.2 49.7,-15.37 46.94,-12.57 45.83,-9.85 46.35,-7.23 47.73,-4.65 49.05,-2.07 49.66,0.5 49.26,3.07 47.88,5.64 45.79,8.21 43.39,10.81 41.04,13.44 38.98,16.1 37.24,18.77 35.71,21.41 34.17,23.99 32.38,26.52 30.19,28.98 27.59,31.41 24.74,33.85 21.89,36.31 19.27,38.79 17,41.25 15.07,43.64 13.44,45.9 12.09,48.05 10.77,50.16 8.68,52.37 4.85,54.65" fill="none" stroke="rgb(80, 68, 68)" stroke-width="2" stroke-linejoin="round" filter="url(#fuzzy)" /><polyline points="-53.51,-34.59 -54.1,-32.87 -55.04,-30.96 -56.22,-28.8 -58.05,-26.41 -61.01,-23.86 -64.93,-21.24 -68.9,-18.64 -71.88,-16.08 -73.36,-13.55 -73.5,-11 -72.99,-8.39 -72.63,-5.71 -73,-2.95 -74.38,-0.13 -76.73,2.71 -79.89,5.55 -83.63,8.36 -87.81,11.13 -92.31,13.86 -97,16.55 -101.67,19.21 -105.94,21.86 -109.34,24.49 -111.4,27.09 -111.88,29.62 -110.98,32.01 -109.5,34.19 -108.69,36.2 -109.55,38.4 -111.52,41.89" fill="none" stroke="rgb(80, 68, 68)" stroke-width="2" stroke-linejoin="round" filter="url(#fuzzy)" /><polyline points="-53.51,-34.59 -54.87,-32.89 -56.76,-31 -58.7,-28.86 -60.56,-26.51 -62.12,-23.98 -63.48,-21.37 -65,-18.78 -67.06,-16.25 -69.73,-13.76 -72.81,-11.25 -75.92,-8.69 -78.76,-6.04 -81.23,-3.3 -83.41,-0.49 -85.58,2.36 -87.95,5.21 -90.55,8.02 -93.08,10.78 -95.08,13.47 -96.35,16.12 -97.1,18.77 -97.69,21.37 -97.81,23.69 -97.76,25.32" fill="none" stroke="rgb(80, 68, 68)" stroke-width="2" stroke-linejoin="round" filter="url(#fuzzy)" /><polyline points="-53.21,-35.75 -54.04,-33.09 -55.8,-30.04 -58.39,-27.12 -61.19,-24.37 -63.57,-21.75 -65.2,-19.2 -66.07,-16.65 -66.37,-14.08 -66.47,-11.5 -66.7,-8.9 -67.3,-6.31 -68.31,-3.74 -69.58,-1.19 -70.9,1.34 -72.07,3.87 -73.03,6.39 -73.83,8.97 -74.61,11.63 -75.47,14.41 -76.46,17.3 -77.66,20.22 -79.21,23.02 -81.25,25.58 -83.54,27.92 -85.09,30.28 -85.02,32.81" fill="none" stroke="rgb(80, 68, 68)" stroke-width="2" stroke-linejoin="round" filter="url(#fuzzy)" /><polyline points="-53.88,-32.74 -54.49,-31.02 -55.39,-28.83 -56.46,-26.41 -57.64,-23.82 -58.94,-21.16 -60.38,-18.54 -62.03,-15.98 -63.87,-13.46 -65.8,-10.92 -67.61,-8.31 -69.13,-5.63 -70.33,-2.86 -71.39,-0.04 -72.55,2.81 -74.02,5.65 -75.87,8.46 -78.03,11.22 -80.4,13.95 -82.89,16.64 -85.38,19.3 -87.64,21.94 -89.32,24.56 -90.08,27.14 -89.88,29.65 -89.16,32.03 -88.75,34.26 -89.23,36.39 -90.25,38.61 -90.78,41.14 -92.62,43.49" fill="none" stroke="rgb(80, 68, 68)" stroke-width="2" stroke-linejoin="round" filter="url(#fuzzy)" /><polyline points="55.41,-26.99 56.45,-23.8 58.16,-21.03 60.03,-18.27 61.82,-15.47 63.49,-12.69 64.96,-9.99 66.13,-7.36 67.05,-4.76 67.87,-2.18 68.78,0.39 69.85,2.96 71,5.52 72.02,8.09 72.67,10.68 72.83,13.31 72.48,15.97 71.74,18.64 70.79,21.28 69.81,23.88 68.91,26.4 68.15,28.85 67.56,31.26 67.17,33.69 66.99,36.15 67.02,38.67 67.14,41.19 67.21,43.62 67.21,45.84 67.35,47.82 67.94,49.62" fill="none" stroke="rgb(80, 68, 68)" stroke-width="2" stroke-linejoin="round" filter="url(#fuzzy)" /><polyline points="55.56,-26.33 56.08,-23.88 56.51,-21.73 57,-19.3 57.61,-16.64 58.43,-13.93 59.44,-11.25 60.49,-8.58 61.39,-5.9 62.01,-3.2 62.37,-0.49 62.62,2.24 62.95,4.97 63.47,7.68 64.13,10.35 64.8,12.97 65.28,15.54 65.46,18.06 65.31,20.56 64.95,23.04 64.53,25.52 64.19,28 63.98,30.47 63.86,32.95 63.75,35.41 63.52,37.85 63.1,40.27 62.47,42.62 61.69,44.9 60.89,47.07 60.18,49.15 59.62,51.17 59.19,53.18 58.8,55.27 58.27,57.48 56.95,59.65" fill="none" stroke="rgb(80, 68, 68)" stroke-width="2" stroke-linejoin="round" filter="url(#fuzzy)" /><polyline points="53.11,-35.98 56.27,-32.62 62.24,-29.73 66.51,-27.04 68.56,-24.49 69.67,-21.99 70.67,-19.45 71.63,-16.84 72.45,-14.2 73.22,-11.55 74.19,-8.88 75.53,-6.21 77.15,-3.52 78.81,-0.82 80.32,1.9 81.75,4.62 83.43,7.33 85.77,10 89,12.63 93.01,15.2 97.34,17.71 101.31,20.2 104.29,22.67 105.97,25.14 106.45,27.62 106.28,30.09 106.22,32.56 106.8,35.03 107.97,37.5 108.95,39.99 108.83,42.49 107.71,44.98 106.35,47.49" fill="none" stroke="rgb(80, 68, 68)" stroke-width="2" stroke-linejoin="round" filter="url(#fuzzy)" /><polyline points="52.42,-37.96 53.49,-34.22 54.12,-31.15 54.25,-28.58 54.07,-26.18 53.75,-23.75 53.28,-21.21 52.57,-18.57 51.61,-15.87 50.5,-13.15 49.37,-10.47 48.23,-7.83 47,-5.22 45.5,-2.63 43.6,-0.06 41.32,2.5 38.81,5.06 36.34,7.61 34.14,10.18 32.36,12.8 31.02,15.46 30.04,18.17 29.3,20.89 28.67,23.55 27.94,26.06 26.86,28.41 25.27,30.65 22.95,32.96 20.06,35.24" fill="none" stroke="rgb(80, 68, 68)" stroke-width="2" stroke-linejoin="round" filter="url(#fuzzy)" /><polyline points="52.93,-36.71 56.29,-36.16 56.72,-33.87 56.62,-31.27 56.69,-28.76 57.15,-26.34 58.09,-23.9 59.5,-21.37 61.3,-18.75 63.37,-16.07 65.55,-13.37 67.66,-10.69 69.49,-8.06 70.86,-5.46 71.74,-2.88 72.21,-0.31 72.47,2.24 72.74,4.77 73.17,7.28 73.84,9.81 74.73,12.38 75.79,15.03 76.96,17.78 78.07,20.67 78.62,23.74 78.23,27.15" fill="none" stroke="rgb(80, 68, 68)" stroke-width="2" stroke-linejoin="round" filter="url(#fuzzy)" /><polyline points="51.38,-41.03 52.45,-38.28 53.32,-36.15 54.28,-33.76 55.38,-31.25 56.61,-28.75 57.9,-26.28 59.14,-23.77 60.21,-21.2 61.05,-18.56 61.65,-15.87 62.08,-13.17 62.46,-10.48 62.94,-7.82 63.61,-5.19 64.54,-2.58 65.67,0.01 66.89,2.6 68.05,5.17 69.02,7.76 69.74,10.37 70.2,13 70.46,15.67 70.59,18.35 70.64,21.01 70.59,23.62 70.4,26.16 70.04,28.61 69.51,31.02 68.93,33.43 68.42,35.91 68.1,38.48 67.95,41.15 67.92,43.75 67.89,45.44" fill="none" stroke="rgb(80, 68, 68)" stroke-width="2" stroke-linejoin="round" filter="url(#fuzzy)" /><polyline points="51.38,-41.03 53.55,-38.31 55.2,-36.24 56.65,-33.89 58.13,-31.41 60.04,-28.95 62.43,-26.53 64.89,-24.1 66.88,-21.59 68.13,-18.99 68.75,-16.33 69.16,-13.63 69.82,-10.96 71.03,-8.34 72.88,-5.77 75.29,-3.2 78.13,-0.63 81.25,1.92 84.45,4.42 87.45,6.86 89.95,9.33 91.61,11.98 92.71,14.61" fill="none" stroke="rgb(80, 68, 68)" stroke-width="2" stroke-linejoin="round" filter="url(#fuzzy)" /><polyline points="50.68,-43.16 61.71,-39.94 61.03,-37.46 60.01,-35.07 60.61,-32.58 62.22,-30.01 64.02,-27.44 65.59,-24.89 66.8,-22.36 67.65,-19.81 68.25,-17.23 68.82,-14.62 69.63,-11.99 70.98,-9.35 73.01,-6.7 75.62,-4.03 78.53,-1.35 81.37,1.36 83.94,4.08 86.41,6.81 89.2,9.53 92.68,12.18 96.68,14.74 100.32,17.19 102.48,19.55 102.96,21.9 103.67,24.51 107.71,28.13" fill="none" stroke="rgb(80, 68, 68)" stroke-width="2" stroke-linejoin="round" filter="url(#fuzzy)" /><polyline points="46.27,-53.13 47.21,-51.56 48.41,-49.47 50.14,-47.18 52.29,-44.85 54.43,-42.55 56.25,-40.26 57.78,-37.95 59.27,-35.59 60.89,-33.16 62.64,-30.68 64.32,-28.16 65.73,-25.65 66.78,-23.16 67.58,-20.65 68.36,-18.09 69.34,-15.49 70.6,-12.89 72.08,-10.31 73.66,-7.75 75.36,-5.05 77.06,-2.02 77.77,1.33" fill="none" stroke="rgb(80, 68, 68)" stroke-width="2" stroke-linejoin="round" filter="url(#fuzzy)" /><polyline points="46.21,-53.07 45.04,-51.94 40.55,-50.12 36.46,-47.99 34.62,-45.71 34.53,-43.39 35.29,-41.07 36.5,-38.74 38.06,-36.39 39.76,-34.01 41.25,-31.59 42.12,-29.14 42.1,-26.66 41.15,-24.14 39.5,-21.57 37.51,-18.95 35.54,-16.29 33.88,-13.61 32.62,-10.93 31.69,-8.27 30.89,-5.63 29.98,-3.01 28.81,-0.41 27.35,2.18 25.68,4.75 23.93,7.32 22.13,9.92 20.23,12.55 18.06,15.23 15.53,17.96 12.72,20.72 9.93,23.43 7.5,25.98 5.61,28.29 4.23,30.49 4.08,33.15" fill="none" stroke="rgb(80, 68, 68)" stroke-width="2" stroke-linejoin="round" filter="url(#fuzzy)" /><polyline points="42.03,-60.53 44.27,-57.47 46.48,-55.29 48.3,-53.38 49.64,-51.45 50.62,-49.39 51.44,-47.21 52.22,-44.95 53.03,-42.65 53.87,-40.33 54.76,-37.97 55.71,-35.58 56.72,-33.13 57.77,-30.63 58.82,-28.11 59.84,-25.58 60.82,-23.03 61.72,-20.48 62.57,-17.9 63.37,-15.29 64.14,-12.66 64.9,-10.03 65.63,-7.38 66.26,-4.71 66.77,-2.03 67.15,0.65 67.48,3.36 67.82,6.18 68.22,9.15 68.6,11.54" fill="none" stroke="rgb(80, 68, 68)" stroke-width="2" stroke-linejoin="round" filter="url(#fuzzy)" /><polyline points="40.56,-62.48 39.77,-60.1 39.4,-57.64 39.96,-55.46 40.52,-53.45 40.95,-51.45 41.46,-49.35 42.2,-47.17 43.1,-44.91 43.96,-42.61 44.58,-40.27 44.8,-37.9 44.58,-35.48 43.94,-33.02 42.98,-30.52 41.81,-27.99 40.54,-25.45 39.19,-22.88 37.75,-20.31 36.19,-17.71 34.54,-15.09 32.92,-12.45 31.52,-9.8 30.52,-7.13 30.03,-4.45 29.98,-1.74 30.15,0.98 30.22,3.73 29.85,6.49 28.83,9.26 27.16,11.97 25.13,14.58 23.19,17.07 21.55,19.45 20.83,21.56" fill="none" stroke="rgb(80, 68, 68)" stroke-width="2" stroke-linejoin="round" filter="url(#fuzzy)" /><polyline points="41.41,-61.2 43.23,-60.01 44.09,-58.38 44.97,-56.47 46.03,-54.45 47.24,-52.39 48.55,-50.29 49.89,-48.12 51.19,-45.9 52.38,-43.64 53.48,-41.34 54.53,-39.02 55.63,-36.67 56.82,-34.3 58.12,-31.89 59.45,-29.45 60.77,-26.98 61.99,-24.47 63.11,-21.91 64.1,-19.3 64.96,-16.65 65.67,-13.97 66.21,-11.28 66.6,-8.62 66.89,-5.97 67.17,-3.36 67.53,-0.75 67.98,1.83 68.46,4.39 68.87,6.92 69.15,9.45 69.37,12.02 69.68,14.65 69.98,17.4 69.61,20.72" fill="none" stroke="rgb(80, 68, 68)" stroke-width="2" stroke-linejoin="round" filter="url(#fuzzy)" /><polyline points="39.71,-64.03 42.24,-62.25 44.87,-60.03 46.87,-57.75 48.64,-55.61 50.32,-53.57 51.95,-51.54 53.57,-49.44 55.24,-47.27 56.9,-45.03 58.46,-42.74 59.93,-40.42 61.4,-38.06 63.09,-35.66 65.18,-33.21 67.74,-30.71 70.65,-28.19 73.73,-25.66 76.72,-23.11 79.45,-20.54 81.77,-17.96 83.61,-15.35 84.96,-12.72 85.93,-10.07 86.75,-7.42 87.73,-4.75 89.1,-2.06 90.88,0.63 92.83,3.34 94.57,6.17 95.46,9.14 94.84,11.54" fill="none" stroke="rgb(80, 68, 68)" stroke-width="2" stroke-linejoin="round" filter="url(#fuzzy)" /><polyline points="37.88,-66.2 39.48,-64.27 41.6,-62.28 45.14,-60.11 49.43,-57.92 53.09,-55.8 55.28,-53.77 56.13,-51.75 56.32,-49.69 56.48,-47.55 56.99,-45.33 57.97,-43.08 59.45,-40.79 61.45,-38.48 64,-36.12 67,-33.7 70.29,-31.22 73.69,-28.7 77.06,-26.18 80.46,-23.71 84,-21.25 87.7,-18.69 91.08,-15.93 93.33,-13.32 94.19,-12.18" fill="none" stroke="rgb(80, 68, 68)" stroke-width="2" stroke-linejoin="round" filter="url(#fuzzy)" /><polyline points="31.55,-73.02 39.99,-71.41 41.66,-69.7 42.66,-68.03 43.99,-66.31 45.67,-64.47 47.77,-62.5 50.39,-60.45 53.58,-58.36 57.26,-56.28 61.15,-54.24 64.86,-52.21 68.02,-50.16 70.36,-48.04 71.98,-45.85 73.33,-43.62 75.14,-41.36 77.93,-39.1 81.55,-36.83 85.18,-34.5 88.11,-32.03 91.22,-29.36 97.89,-26.33" fill="none" stroke="rgb(80, 68, 68)" stroke-width="2" stroke-linejoin="round" filter="url(#fuzzy)" /><polyline points="25.04,-78.39 27.3,-76.92 30.29,-75.68 34.89,-74.32 40.47,-72.87 45.89,-71.39 50.26,-69.86 53.21,-68.28 54.88,-66.62 55.77,-64.88 56.51,-63.07 57.65,-61.2 59.57,-59.3 62.32,-57.37 65.67,-55.42 69.21,-53.44 72.54,-51.43 75.51,-49.36 78.38,-47.21 81.56,-44.97 85.26,-42.64 89.04,-40.34 92.04,-38.4 94.01,-37.96" fill="none" stroke="rgb(80, 68, 68)" stroke-width="2" stroke-linejoin="round" filter="url(#fuzzy)" /><polyline points="18.91,-82.15 20.21,-83.14 17.92,-83.8 15.3,-84.42 13.09,-84.98 11.25,-85.48 9.54,-85.9 7.79,-86.26 5.93,-86.54 3.92,-86.74 1.78,-86.86 -0.5,-86.88 -2.89,-86.81 -5.37,-86.66 -7.93,-86.44 -10.56,-86.14 -13.24,-85.78 -15.97,-85.33 -18.76,-84.8 -21.65,-84.18 -24.71,-83.47 -27.97,-82.66 -31.47,-81.77 -35.22,-80.79 -39.22,-79.74 -43.43,-78.63 -47.78,-77.46 -52.15,-76.22 -56.41,-74.93 -60.43,-73.57 -64.07,-72.14 -67.32,-70.64 -70.34,-69.07 -73.57,-67.45 -77.69,-65.84 -83.29,-64.28 -90.14,-62.8" fill="none" stroke="rgb(80, 68, 68)" stroke-width="2" stroke-linejoin="round" filter="url(#fuzzy)" /><polyline points="18.63,-82.5 16.54,-83.46 14.53,-84.3 12.83,-84.96 11.38,-85.49 9.98,-85.91 8.52,-86.26 6.95,-86.52 5.23,-86.72 3.31,-86.84 1.13,-86.89 -1.35,-86.88 -4.12,-86.79 -7.13,-86.62 -10.28,-86.36 -13.49,-86.01 -16.71,-85.55 -20.02,-85 -23.56,-84.38 -27.41,-83.69 -31.43,-82.98 -35.35,-82.3 -38.99,-81.66 -42.13,-81.09" fill="none" stroke="rgb(80, 68, 68)" stroke-width="2" stroke-linejoin="round" filter="url(#fuzzy)" /><polyline points="16.48,-83.71 15.72,-83.86 14.18,-84.45 12.54,-85.02 10.92,-85.51 9.24,-85.93 7.49,-86.29 5.64,-86.57 3.71,-86.78 1.7,-86.9 -0.39,-86.92 -2.55,-86.85 -4.77,-86.71 -7.02,-86.49 -9.31,-86.2 -11.67,-85.84 -14.14,-85.41 -16.77,-84.9 -19.59,-84.29 -22.6,-83.59 -25.71,-82.79 -28.84,-81.9 -31.88,-80.93 -34.83,-79.9 -37.72,-78.8 -40.64,-77.64 -43.59,-76.42 -46.51,-75.15 -49.38,-73.83 -52.49,-72.47 -56.55,-70.88 -62.96,-68.4" fill="none" stroke="rgb(80, 68, 68)" stroke-width="2" stroke-linejoin="round" filter="url(#fuzzy)" /><polyline points="13.49,-84.76 12.41,-85.25 11.1,-85.64 9.38,-86.01 7.46,-86.35 5.49,-86.64 3.53,-86.85 1.55,-86.96 -0.48,-86.97 -2.57,-86.89 -4.69,-86.72 -6.82,-86.49 -8.95,-86.2 -11.06,-85.84 -13.16,-85.4 -15.27,-84.88 -17.42,-84.27 -19.63,-83.56 -21.92,-82.75 -24.27,-81.85 -26.63,-80.88 -28.95,-79.84 -31.2,-78.73 -33.44,-77.57 -35.75,-76.35 -38.23,-75.08 -40.92,-73.75 -43.84,-72.35 -46.99,-70.85 -50.13,-69.25 -51.74,-68.13" fill="none" stroke="rgb(80, 68, 68)" stroke-width="2" stroke-linejoin="round" filter="url(#fuzzy)" /><polyline points="11.35,-85.4 10.39,-85.68 8.81,-86.03 6.98,-86.38 5.12,-86.68 3.29,-86.88 1.48,-86.98 -0.3,-86.98 -2.03,-86.88 -3.66,-86.71 -5.16,-86.47 -6.54,-86.15 -7.85,-85.77 -9.17,-85.32 -10.54,-84.77 -11.97,-84.13 -13.45,-83.4 -14.92,-82.58 -16.34,-81.67 -17.66,-80.68 -18.86,-79.62 -19.94,-78.49 -20.9,-77.31 -21.7,-76.06 -22.32,-74.75 -22.76,-73.38 -23.04,-71.95 -23.25,-70.45 -23.48,-68.91 -23.83,-67.34 -24.24,-65.77 -24.54,-64.22 -24.53,-62.69 -24.17,-61.12 -23.76,-59.37 -23.41,-57.25" fill="none" stroke="rgb(80, 68, 68)" stroke-width="2" stroke-linejoin="round" filter="url(#fuzzy)" /><polyline points="6.56,-86.36 4.8,-86.83 3.14,-87.05 1.39,-87.13 -0.45,-87.1 -2.35,-86.99 -4.22,-86.8 -6.02,-86.55 -7.72,-86.25 -9.37,-85.89 -11.04,-85.47 -12.78,-84.96 -14.61,-84.35 -16.54,-83.65 -18.53,-82.84 -20.57,-81.95 -22.6,-80.97 -24.62,-79.94 -26.61,-78.85 -28.59,-77.72 -30.61,-76.5 -32.7,-75.19 -34.77,-73.83 -36.46,-72.63" fill="none" stroke="rgb(80, 68, 68)" stroke-width="2" stroke-linejoin="round" filter="url(#fuzzy)" /><polyline points="6.56,-86.36 5.64,-86.84 3.89,-87.05 1.81,-87.13 -0.36,-87.1 -2.54,-86.98 -4.7,-86.79 -6.83,-86.54 -8.95,-86.24 -11.12,-85.88 -13.37,-85.45 -15.74,-84.93 -18.28,-84.32 -21.07,-83.61 -24.14,-82.8 -27.45,-81.9 -30.89,-80.93 -34.33,-79.89 -37.7,-78.8 -41.06,-77.65 -44.48,-76.44 -48.03,-75.17 -51.71,-73.9 -55.43,-72.76 -58.33,-71.9" fill="none" stroke="rgb(80, 68, 68)" stroke-width="2" stroke-linejoin="round" filter="url(#fuzzy)" /><polyline points="4.23,-86.97 2.66,-87.02 0.85,-87.02 -1.07,-86.96 -3.07,-86.82 -5.09,-86.58 -7.12,-86.23 -9.16,-85.78 -11.23,-85.24 -13.31,-84.64 -15.38,-83.98 -17.4,-83.28 -19.32,-82.54 -21.15,-81.76 -22.89,-80.92 -24.61,-80.02 -26.33,-79.03 -28.11,-77.97 -29.94,-76.81 -31.83,-75.56 -33.76,-74.23 -35.69,-72.83 -37.61,-71.35 -39.54,-69.82 -41.49,-68.22 -43.49,-66.55 -45.55,-64.8 -47.67,-62.98 -49.79,-61.09 -51.83,-59.18 -53.69,-57.25 -55.28,-55.33 -56.61,-53.41 -57.84,-51.49 -59.25,-49.56 -61.09,-47.52 -63.03,-44.76" fill="none" stroke="rgb(80, 68, 68)" stroke-width="2" stroke-linejoin="round" filter="url(#fuzzy)" /><polyline points="2.98,-87.1 0.88,-87.03 -1.05,-86.99 -3.09,-86.87 -5.19,-86.64 -7.31,-86.31 -9.46,-85.87 -11.63,-85.33 -13.79,-84.73 -15.93,-84.08 -18.03,-83.39 -20.1,-82.68 -22.16,-81.94 -24.25,-81.15 -26.39,-80.3 -28.56,-79.38 -30.72,-78.37 -32.79,-77.28 -34.77,-76.09 -36.72,-74.78 -38.75,-73.34 -40.94,-71.82 -43.2,-70.35 -45.31,-69.07 -47.12,-67.78" fill="none" stroke="rgb(80, 68, 68)" stroke-width="2" stroke-linejoin="round" filter="url(#fuzzy)" /><polyline points="2.98,-87.1 0.87,-87.03 -1.09,-86.99 -3.18,-86.86 -5.31,-86.63 -7.4,-86.29 -9.43,-85.84 -11.39,-85.3 -13.32,-84.69 -15.2,-84.03 -17.02,-83.34 -18.79,-82.62 -20.52,-81.86 -22.23,-81.05 -23.97,-80.17 -25.73,-79.22 -27.52,-78.18 -29.33,-77.06 -31.13,-75.84 -32.92,-74.52 -34.69,-73.12 -36.39,-71.66 -38.02,-70.16 -39.58,-68.65 -41.17,-67.08 -42.92,-65.38 -44.95,-63.47 -47.29,-61.28 -49.72,-58.85" fill="none" stroke="rgb(80, 68, 68)" stroke-width="2" stroke-linejoin="round" filter="url(#fuzzy)" />
    </g>
    
        <g id="pointNose">
          <g id="rightNose"><circle r="1.218" cx="8.742" cy="12.706" stroke="black" fill="none" stroke-width="1.0" filter="url(#fuzzy)" /><circle r="2.378" cx="9.17" cy="13.766" stroke="black" fill="none" stroke-width="1.0" filter="url(#fuzzy)" /><circle r="1.592" cx="5.638000000000001" cy="15.622" stroke="black" fill="none" stroke-width="1.0" filter="url(#fuzzy)" /><circle r="2.1" cx="8.97" cy="16.206" stroke="black" fill="none" stroke-width="1.0" filter="url(#fuzzy)" /><circle r="2.534" cx="7.290000000000001" cy="12.994" stroke="black" fill="none" stroke-width="1.0" filter="url(#fuzzy)" /><circle r="2.864" cx="6.530000000000001" cy="16.07" stroke="black" fill="none" stroke-width="1.0" filter="url(#fuzzy)" /><circle r="1.6400000000000001" cx="7.386000000000001" cy="14.585999999999999" stroke="black" fill="none" stroke-width="1.0" filter="url(#fuzzy)" /><circle r="1.47" cx="7.422000000000001" cy="15.530000000000001" stroke="black" fill="none" stroke-width="1.0" filter="url(#fuzzy)" /><circle r="2.2199999999999998" cx="6.67" cy="15.925999999999998" stroke="black" fill="none" stroke-width="1.0" filter="url(#fuzzy)" /><circle r="1.782" cx="9.014" cy="14.902000000000001" stroke="black" fill="none" stroke-width="1.0" filter="url(#fuzzy)" /></g>
          <g id="leftNose"><circle r="1.592" cx="-7.492" cy="12.489999999999998" stroke="black" fill="none" stroke-width="1.0" filter="url(#fuzzy)" /><circle r="1.72" cx="-8.432" cy="13.509999999999998" stroke="black" fill="none" stroke-width="1.0" filter="url(#fuzzy)" /><circle r="2.66" cx="-7.6000000000000005" cy="13.174" stroke="black" fill="none" stroke-width="1.0" filter="url(#fuzzy)" /><circle r="1.5939999999999999" cx="-5.664" cy="13.046" stroke="black" fill="none" stroke-width="1.0" filter="url(#fuzzy)" /><circle r="1.096" cx="-6.616" cy="15.354" stroke="black" fill="none" stroke-width="1.0" filter="url(#fuzzy)" /><circle r="2.048" cx="-8.280000000000001" cy="12.77" stroke="black" fill="none" stroke-width="1.0" filter="url(#fuzzy)" /><circle r="2.716" cx="-5.7" cy="13.35" stroke="black" fill="none" stroke-width="1.0" filter="url(#fuzzy)" /><circle r="1.53" cx="-5.392" cy="12.562" stroke="black" fill="none" stroke-width="1.0" filter="url(#fuzzy)" /><circle r="2.226" cx="-6.34" cy="14.738" stroke="black" fill="none" stroke-width="1.0" filter="url(#fuzzy)" /><circle r="1.228" cx="-7.988" cy="14.026" stroke="black" fill="none" stroke-width="1.0" filter="url(#fuzzy)" /></g>
        </g>
      
    <g id="mouth">
      <polyline points="34.7,57.35 34.68,57.37 34.85,57.85 34.75,57.9 34.65,58.07 34.79,59.06 34.66,59.61 34.54,60.28 34.43,60.2 34.67,60.03 34.28,61.14 34.36,60.89 33.52,62.57 33.26,62.89 33.56,62.47 33.37,62.89 33.15,63.19 32.16,64.59 31.59,65.19 31.26,65.5 30.53,66.22 30.77,65.97 29.92,66.81 29.35,67.35 29.78,66.87 28.43,68.08 28.6,67.87 28.09,68.29 27.74,68.56 25.91,69.8 25.05,70.34 24.11,70.88 23.78,71.11 22.62,71.74 22.08,72.02 22.46,71.86 22.58,71.78 20.99,72.6 21.81,72.18 19.98,73.08 18.47,73.71 18.2,73.83 16.09,74.7 17.23,74.24 15.53,74.89 14.88,75.13 12.59,75.89 13.52,75.6 11.22,76.3 10.68,76.45 10,76.64 9.26,76.83 8.71,76.96 8,77.14 7.05,77.34 6.1,77.54 5.51,77.66 3.53,78 3.05,78.06 3.26,78.04 2.5,78.17 0.29,78.39 -0.88,78.51 -1.71,78.57 -0.31,78.49 -1.76,78.57 -2.09,78.59 -4.27,78.62 -4.2,78.66 -4.49,78.66 -7.43,78.57 -6.26,78.63 -8.55,78.44 -8.32,78.45 -9.84,78.24 -8.74,78.45 -9.83,78.21 -11.93,77.82 -10.65,78.13 -11.2,77.98 -13.16,77.6 -13.21,77.6 -14.24,77.23 -14.87,76.95 -14.92,76.95 -14.91,76.82 -15.62,76.55 -15.45,76.6 -16.7,76.11 -17.45,75.59 -17.72,75.41 -17.41,75.43 -18.01,74.96 -17.96,75.06 -18.53,74.7 -19.03,74.08 -19.07,73.7 -19.38,73.13 -19.79,72.34 -19.94,72.36 -19.93,72.34 -19.77,72.15 -20.08,71.46 -20.04,70.42 -20.19,70.19 -20,70.12 -19.95,69.22 -19.94,68.95 -19.72,68.75 -20.06,69.32 -19.82,68.5 -19.62,68.3 -18.84,66.65 -18.89,66.88 -18.74,66.59 -18.85,66.72 -18.18,65.72 -17.23,64.56 -17.45,64.72 -17.15,64.4 -17.09,64.37 -16.6,63.7 -16.27,63.4 -15.89,62.98 -14.33,61.69 -14.5,61.9 -13.75,61.24 -14.2,61.61 -12.16,60.11 -11.51,59.69 -12.09,59.99 -9.69,58.52 -9.1,58.22 -9,58.12 -8.76,57.98 -9.12,58.2 -7.62,57.36 -6.88,56.99 -6.74,56.94 -3.57,55.49 -3.84,55.63 -3.28,55.36 -2.15,54.92 -1.34,54.61 -1.32,54.6 -0.87,54.45 1.01,53.79 0.14,54.08 3.5,53.02 3.81,52.93 4.91,52.63 5.98,52.36 6.13,52.32 6.7,52.19 7.73,51.96 7.46,52.03 7.99,51.9 10.2,51.47 11.04,51.33 10.83,51.36 11.6,51.25 13.16,51.05 13.78,50.98 13.9,50.95 15.88,50.75 17.9,50.66 17.48,50.66 18.88,50.66 20.57,50.63 19.43,50.67 20.03,50.65 20.38,50.64 22.86,50.74 24.02,50.95 23.87,50.91 24.37,50.96 24.96,51.09 26.48,51.35 26.17,51.26 27.29,51.56 28.11,51.76 27.86,51.74 28.02,51.71 29.48,52.18 30.21,52.55 29.95,52.52 31.01,52.93 30.78,52.78 31.86,53.44 31.92,53.68 31.68,53.28 32.31,53.72 32.85,54.2 33.4,55.06 33.75,55.1 33.3,54.74 34.11,56.04 34.32,56.38 34.15,55.81 34.51,57.13" fill="rgb(215,127,140)" stroke="black" stroke-width="3" stroke-linejoin="round" filter="url(#fuzzy)" />
    </g>
  </svg>
  