
  <svg viewBox="-100 -100 200 200" xmlns="http://www.w3.org/2000/svg" width="500" height="500" id="face-svg">
    <defs>
      <clipPath id="leftEyeClipPath">
        <polyline points="29.08,-1.63 28.85,-1.7 28.61,-1.77 28.33,-1.85 28.03,-1.92 27.69,-2 27.33,-2.08 26.93,-2.16 26.5,-2.24 26.03,-2.32 25.53,-2.41 25,-2.49 24.43,-2.57 23.83,-2.66 23.19,-2.75 22.51,-2.83 22.01,-2.92 21.44,-3.01 20.79,-3.11 20.08,-3.2 19.3,-3.3 18.46,-3.4 17.55,-3.5 16.58,-3.6 15.55,-3.7 14.47,-3.8 13.33,-3.89 12.15,-3.99 10.92,-4.09 9.66,-4.18 8.36,-4.27 7.02,-4.36 5.66,-4.44 4.28,-4.52 2.88,-4.6 1.47,-4.67 0.04,-4.73 -1.38,-4.79 -2.81,-4.84 -4.24,-4.89 -5.66,-4.93 -7.06,-4.96 -8.45,-4.98 -9.82,-5 -11.17,-5.01 -12.5,-5.01 -13.79,-5.01 -15.05,-5 -16.28,-4.97 -17.48,-4.94 -18.63,-4.91 -19.74,-4.86 -20.81,-4.81 -21.84,-4.75 -22.82,-4.68 -23.75,-4.6 -24.64,-4.52 -25.48,-4.43 -26.28,-4.33 -27.03,-4.22 -27.73,-4.11 -28.39,-4 -29,-3.88 -29.57,-3.75 -30.09,-3.62 -30.58,-3.48 -31.03,-3.34 -31.43,-3.2 -31.8,-3.05 -32.13,-2.89 -32.41,-2.73 -32.66,-2.57 -32.86,-2.4 -33.03,-2.22 -33.17,-2.04 -33.26,-1.86 -33.32,-1.67 -33.34,-1.48 -33.33,-1.29 -33.29,-1.09 -34.02,0.08 -33.37,0.25 -32.7,0.43 -32,0.6 -31.29,0.77 -30.55,0.95 -29.79,1.12 -29.01,1.29 -28.21,1.46 -27.39,1.63 -26.55,1.79 -25.69,1.96 -24.8,2.12 -23.9,2.28 -22.98,2.44 -22.03,2.6 -21.07,2.75 -20.08,2.91 -19.06,3.06 -18.03,3.2 -16.97,3.35 -15.89,3.49 -14.79,3.63 -13.67,3.76 -12.53,3.89 -11.38,4.01 -10.21,4.13 -9.02,4.23 -7.83,4.34 -6.62,4.43 -5.4,4.52 -4.17,4.6 -2.94,4.67 -1.7,4.74 -0.47,4.79 0.77,4.84 2,4.87 3.23,4.9 4.45,4.92 5.66,4.93 6.85,4.93 8.03,4.92 9.2,4.9 10.34,4.87 11.46,4.83 12.56,4.78 13.63,4.72 14.67,4.66 15.68,4.58 16.65,4.5 17.59,4.4 18.49,4.3 19.35,4.2 20.17,4.08 20.95,3.96 21.68,3.83 22.37,3.7 23.01,3.56 23.6,3.41 24.15,3.26 24.65,3.11 25.09,2.95 25.5,2.79 25.85,2.63 26.15,2.47 26.58,2.34 26.98,2.21 27.35,2.08 27.7,1.95 28.03,1.81 28.33,1.68 28.61,1.55 28.86,1.42 29.09,1.29 29.3,1.16 29.49,1.03 29.67,0.9 29.82,0.78 29.96,0.66 30.08,0.54" />
      </clipPath>
      <clipPath id="rightEyeClipPath">
        <polyline points="-29.79,-1.09 -29.55,-1.16 -29.28,-1.23 -28.98,-1.31 -28.64,-1.39 -28.28,-1.47 -27.89,-1.55 -27.46,-1.64 -27,-1.72 -26.51,-1.81 -25.98,-1.9 -25.41,-2 -24.81,-2.09 -24.18,-2.19 -23.51,-2.29 -22.8,-2.39 -22.26,-2.48 -21.65,-2.59 -20.97,-2.69 -20.22,-2.8 -19.4,-2.91 -18.52,-3.03 -17.57,-3.15 -16.56,-3.27 -15.5,-3.38 -14.38,-3.5 -13.21,-3.62 -11.99,-3.74 -10.73,-3.86 -9.43,-3.97 -8.1,-4.08 -6.74,-4.19 -5.35,-4.29 -3.94,-4.39 -2.52,-4.48 -1.08,-4.57 0.36,-4.65 1.81,-4.72 3.25,-4.79 4.69,-4.85 6.12,-4.9 7.54,-4.94 8.93,-4.98 10.31,-5 11.66,-5.02 12.98,-5.02 14.28,-5.02 15.54,-5.01 16.76,-4.99 17.94,-4.95 19.09,-4.91 20.19,-4.86 21.24,-4.8 22.25,-4.73 23.22,-4.65 24.14,-4.56 25.01,-4.46 25.83,-4.36 26.6,-4.25 27.33,-4.13 28.01,-4 28.64,-3.86 29.23,-3.72 29.77,-3.58 30.28,-3.42 30.74,-3.27 31.17,-3.11 31.55,-2.94 31.89,-2.76 32.2,-2.58 32.46,-2.4 32.68,-2.21 32.87,-2.01 33.02,-1.81 33.13,-1.61 33.2,-1.4 33.24,-1.19 33.25,-0.97 33.22,-0.75 33.16,-0.52 33.43,0.99 32.77,1.16 32.08,1.34 31.38,1.51 30.66,1.68 29.91,1.84 29.15,2.01 28.36,2.17 27.56,2.33 26.73,2.49 25.89,2.65 25.03,2.8 24.14,2.95 23.24,3.09 22.32,3.24 21.38,3.38 20.42,3.51 19.43,3.64 18.42,3.77 17.39,3.9 16.34,4.02 15.27,4.14 14.17,4.25 13.06,4.35 11.93,4.45 10.79,4.54 9.63,4.62 8.45,4.69 7.26,4.76 6.06,4.82 4.85,4.87 3.64,4.91 2.41,4.94 1.19,4.96 -0.04,4.97 -1.26,4.98 -2.49,4.97 -3.71,4.96 -4.92,4.93 -6.12,4.9 -7.31,4.86 -8.49,4.81 -9.64,4.75 -10.78,4.68 -11.9,4.61 -13,4.52 -14.06,4.43 -15.1,4.34 -16.11,4.23 -17.09,4.12 -18.03,4.01 -18.94,3.89 -19.8,3.77 -20.63,3.64 -21.42,3.51 -22.16,3.38 -22.86,3.25 -23.51,3.11 -24.11,2.97 -24.67,2.84 -25.19,2.7 -25.65,2.57 -26.07,2.44 -26.44,2.31 -26.77,2.18 -27.2,2.07 -27.62,1.95 -28,1.84 -28.37,1.72 -28.71,1.61 -29.02,1.5 -29.31,1.39 -29.58,1.29 -29.83,1.18 -30.05,1.08 -30.26,0.98 -30.44,0.88 -30.61,0.79 -30.76,0.7 -30.9,0.61" />
      </clipPath>
      <filter id="fuzzy">
        <feTurbulence id="turbulence" baseFrequency="0.05" numOctaves="3" type="noise" result="noise" />
        <feDisplacementMap in="SourceGraphic" in2="noise" scale="2" />
      </filter>
      <linearGradient id="rainbowGradient" x1="0%" y1="0%" x2="100%" y2="0%">
        <stop offset="0%" style="stop-color: rgb(145, 85, 61); stop-opacity: 1" />
        <stop offset="50%" style="stop-color: rgb(185, 55, 55); stop-opacity: 1" />
        <stop offset="100%" style="stop-color: rgb(50, 205, 50); stop-opacity: 1" />
      </linearGradient>
    </defs>
    <rect x="-100" y="-100" width="100%" height="100%" fill="rgb(128, 0, 128)" />
    <polyline id="faceContour" points="77.87,2.04 77.77,0.51 77.68,2.82 77.94,5.45 77.81,4.62 77.74,8.48 77.7,8.5 77.62,9.97 77.58,10.6 77.19,13.27 76.63,15.18 76.5,16.69 76.43,16.42 76,18.31 76.11,19.61 75.62,21.61 75.55,23.44 75.47,22.56 74.93,25.1 73.88,28.04 74.3,28.02 73.94,28.84 73.24,30.83 73.37,30.56 72.07,33.32 71.18,36.65 71.73,36.07 71.07,37.38 70.45,38.85 69.63,41.35 69.37,41.36 69.3,42.2 67.15,46.07 67.82,44.54 67.27,46.12 66.27,47.93 65.21,49.84 65.29,49.48 64.64,50.29 63.88,52.29 62.51,54.64 63.1,53.35 61.68,55.23 59.83,57.87 60.25,58.19 58.78,59.68 59.25,59.14 57.09,61.59 56.26,62.72 56.69,62.26 56.2,63.13 53.76,65.44 54.41,65.85 51.38,68.2 52.46,66.97 49.94,69.76 48.79,71.01 49.39,70.33 48.88,71.25 46.02,73.7 45.18,74.22 45.18,74.53 44.3,74.74 42.67,76.35 41.22,77.49 40.6,77.48 39.6,78.11 39.33,78.71 38.88,79.13 35.61,80.49 35.48,80.91 33.05,82.54 32.01,83.04 33.3,82.38 30.98,83.43 31.03,83.86 28.32,84.75 27.25,85.41 26.57,85.56 24.35,86.32 24.17,86.9 22.44,87.21 22.01,87.17 19.74,88.37 18.86,88.32 17.41,88.85 16.58,89.02 16.33,88.91 14.02,89.6 15.75,89.14 12.92,89.74 10.4,90.1 9.59,90.37 8.31,90.54 6.98,90.53 7.11,90.47 4.26,90.82 3.02,90.81 2.71,91.07 1.3,91.04 -1.11,91.23 -0.4,90.97 -4.8,91.13 -3.77,90.83 -6.44,90.96 -6.33,91 -8.17,90.77 -7.45,90.46 -8.52,90.57 -12.23,90.13 -11.62,90.08 -12.52,90.02 -14,89.6 -14.41,89.38 -16.78,88.97 -17.65,88.47 -19.17,88.24 -21.55,87.45 -22,87.15 -21.62,87.6 -23.42,86.53 -25.45,85.98 -26.99,85.21 -27.58,85.23 -29.51,84.18 -30.36,84.07 -32.1,82.68 -33.31,82.35 -32.1,82.59 -34.87,81.75 -35.66,80.94 -38.19,79.51 -36.61,80.16 -39.19,78.88 -39.29,78.57 -40.68,77.42 -40.55,77.93 -43.12,75.76 -43.47,75.01 -45.11,74.25 -47.19,72.35 -47.34,72.42 -48.83,71 -49.16,70.45 -49.18,70.67 -49.43,70.17 -51.02,68.83 -51.84,67.99 -53.61,66.4 -54.44,64.88 -54.5,65.25 -55.23,63.93 -56.6,62.93 -57.63,60.41 -58.15,60.37 -59.03,58.76 -60.68,57.24 -60.18,57.37 -61.31,56.21 -62.47,53.72 -61.97,54.93 -62.95,53.28 -64.74,50.5 -66.17,48.44 -64.66,50.54 -66.93,46 -67.17,46.33 -67.96,44.12 -68.13,44.76 -68.76,42.59 -68.79,42.8 -69.33,40.96 -69.86,39.76 -71.03,37.72 -71.24,35.97 -72.18,33.44 -71.8,34.73 -72.88,32.59 -73.48,30.37 -73.18,31.13 -73.47,29.28 -74.81,25.68 -74.69,25.63 -74.82,23.86 -75.47,23.33 -75.25,22.28 -75.61,21 -76.3,18.5 -76.34,17.71 -76.62,15.8 -76.81,13.07 -76.81,14.38 -77.03,10.93 -77.29,12.46 -77.52,9.7 -77.55,5.62 -77.74,7.24 -77.65,2.87 -77.73,4.07 -77.95,1.81 -77.73,-0.72 -77.71,-0.88 -77.64,-4.43 -77.72,-4.5 -77.77,-5.1 -77.51,-8.02 -77.46,-7.81 -77.36,-8.27 -77.34,-10.91 -77.32,-11.92 -77.03,-13.55 -76.91,-14.06 -76.01,-19.35 -76.14,-19.29 -75.94,-19.83 -75.42,-22.09 -75.74,-21.27 -75.07,-23.45 -74.97,-24.35 -74.22,-26.65 -74.43,-27.63 -73.71,-28.58 -72.92,-31.66 -73.1,-30.74 -72.35,-33.15 -71.39,-36.32 -71.22,-36.51 -70.99,-36.95 -70.75,-37.62 -69.86,-40.07 -68.77,-41.9 -68.1,-43.59 -68.06,-44.44 -68.19,-44.5 -66.52,-47.19 -67.24,-46.19 -65.3,-49.57 -64.31,-51.57 -64.95,-50.2 -63.35,-52.72 -62.47,-53.67 -62.46,-54.35 -61.89,-56.03 -60.1,-57.78 -60.48,-57.88 -59.3,-58.52 -58.22,-60.74 -57.2,-61.8 -56.96,-61.94 -55.52,-63.64 -53.89,-65.56 -53.98,-65.81 -53.53,-66.24 -51.41,-68.71 -51.25,-68.82 -49.22,-70.64 -48.57,-71.14 -48.97,-70.77 -48.68,-70.91 -47.31,-72.22 -45.73,-73.6 -43.65,-75.67 -44.07,-75.48 -40.83,-77.69 -41.99,-76.64 -40.88,-77.24 -39.92,-78.47 -38.57,-78.69 -36.38,-80.64 -37.4,-79.97 -35.7,-80.95 -35.94,-80.93 -34.03,-81.88 -32.11,-83.05 -31.46,-83.81 -30.28,-83.89 -29.25,-84.39 -28.34,-84.83 -26.54,-85.96 -23.83,-86.76 -25.01,-86.16 -23.42,-86.74 -23.07,-87.19 -22.12,-87.19 -19.34,-88.42 -16.62,-88.81 -15.21,-89.29 -17.31,-89.03 -13.7,-89.37 -12.46,-90.07 -13.15,-89.58 -12.35,-90.2 -8.82,-90.27 -7.93,-90.62 -7.03,-90.81 -6.61,-90.97 -3.89,-90.97 -4.83,-91.06 -1.47,-91.18 -1.66,-91.01 0.74,-90.88 1,-90.96 1.52,-91.1 5.11,-91.09 3.92,-91.04 5.23,-90.74 6.48,-90.86 8.73,-90.5 10.28,-90.48 9.97,-90.15 12.45,-89.83 13.74,-89.86 14.21,-89.64 14.3,-89.7 17.01,-89.04 17.61,-88.63 19.42,-88.29 18.96,-88.57 22.25,-87.45 23.65,-86.86 24.66,-86.32 24.74,-85.96 26.98,-85.21 28.51,-85.11 27.47,-85.09 29.5,-84.74 29.32,-84.42 31.77,-83.28 33.3,-82.53 33.25,-82.37 35.98,-80.71 36.7,-80.4 38.21,-79.79 39.64,-78.66 38.06,-79.46 40.67,-78.03 42.9,-76.25 41.38,-76.93 43.9,-75.62 45.37,-74.5 45.64,-73.57 46.17,-73.04 48.57,-71.64 47.54,-72.46 48.69,-71.25 50.27,-69.51 52.39,-68.11 52.67,-67.47 52.87,-66.8 53.74,-66.09 55.67,-63.68 55.99,-63.31 56.66,-62.5 57.8,-60.85 58.42,-60.71 59.72,-59.39 59.42,-58.93 60.83,-56.73 62.47,-54.37 62.31,-54.5 63.58,-52.33 62.84,-53.33 63.6,-52.56 65.55,-49.81 65.63,-49.45 66.29,-48.41 67.08,-45.96 66.69,-47.2 67.96,-44.22 68.56,-42.91 70.27,-39.72 69.78,-39.74 70.4,-38.21 70.06,-39.62 71.66,-35.79 71.45,-35.92 72.65,-32.93 73.65,-30.57 73.75,-30.24 73.93,-29.24 74.08,-27.6 74.5,-25.73 74.98,-25.51 75.65,-22.94 75.07,-24.55 76.13,-20.05 75.61,-20.53 76.27,-17.84 76.28,-17.01 76.52,-16.07 76.62,-15.17 76.91,-13.57 77.06,-12.97 77.3,-9.73 77.9,-6.93 77.73,-5.68 77.92,-5.39 78.02,-4.94 78.08,-2.13 78.04,-2.82 77.87,2.04 77.77,0.51" fill="rgb(255, 99, 71)" stroke="black" stroke-width="1.6666666666666665" stroke-linejoin="round" filter="url(#fuzzy)" />
    <g transform="translate(31.659999999999997 -29.650000000000002)">
      <polyline id="rightCountour" points="-29.79,-1.09 -29.55,-1.16 -29.28,-1.23 -28.98,-1.31 -28.64,-1.39 -28.28,-1.47 -27.89,-1.55 -27.46,-1.64 -27,-1.72 -26.51,-1.81 -25.98,-1.9 -25.41,-2 -24.81,-2.09 -24.18,-2.19 -23.51,-2.29 -22.8,-2.39 -22.26,-2.48 -21.65,-2.59 -20.97,-2.69 -20.22,-2.8 -19.4,-2.91 -18.52,-3.03 -17.57,-3.15 -16.56,-3.27 -15.5,-3.38 -14.38,-3.5 -13.21,-3.62 -11.99,-3.74 -10.73,-3.86 -9.43,-3.97 -8.1,-4.08 -6.74,-4.19 -5.35,-4.29 -3.94,-4.39 -2.52,-4.48 -1.08,-4.57 0.36,-4.65 1.81,-4.72 3.25,-4.79 4.69,-4.85 6.12,-4.9 7.54,-4.94 8.93,-4.98 10.31,-5 11.66,-5.02 12.98,-5.02 14.28,-5.02 15.54,-5.01 16.76,-4.99 17.94,-4.95 19.09,-4.91 20.19,-4.86 21.24,-4.8 22.25,-4.73 23.22,-4.65 24.14,-4.56 25.01,-4.46 25.83,-4.36 26.6,-4.25 27.33,-4.13 28.01,-4 28.64,-3.86 29.23,-3.72 29.77,-3.58 30.28,-3.42 30.74,-3.27 31.17,-3.11 31.55,-2.94 31.89,-2.76 32.2,-2.58 32.46,-2.4 32.68,-2.21 32.87,-2.01 33.02,-1.81 33.13,-1.61 33.2,-1.4 33.24,-1.19 33.25,-0.97 33.22,-0.75 33.16,-0.52 33.43,0.99 32.77,1.16 32.08,1.34 31.38,1.51 30.66,1.68 29.91,1.84 29.15,2.01 28.36,2.17 27.56,2.33 26.73,2.49 25.89,2.65 25.03,2.8 24.14,2.95 23.24,3.09 22.32,3.24 21.38,3.38 20.42,3.51 19.43,3.64 18.42,3.77 17.39,3.9 16.34,4.02 15.27,4.14 14.17,4.25 13.06,4.35 11.93,4.45 10.79,4.54 9.63,4.62 8.45,4.69 7.26,4.76 6.06,4.82 4.85,4.87 3.64,4.91 2.41,4.94 1.19,4.96 -0.04,4.97 -1.26,4.98 -2.49,4.97 -3.71,4.96 -4.92,4.93 -6.12,4.9 -7.31,4.86 -8.49,4.81 -9.64,4.75 -10.78,4.68 -11.9,4.61 -13,4.52 -14.06,4.43 -15.1,4.34 -16.11,4.23 -17.09,4.12 -18.03,4.01 -18.94,3.89 -19.8,3.77 -20.63,3.64 -21.42,3.51 -22.16,3.38 -22.86,3.25 -23.51,3.11 -24.11,2.97 -24.67,2.84 -25.19,2.7 -25.65,2.57 -26.07,2.44 -26.44,2.31 -26.77,2.18 -27.2,2.07 -27.62,1.95 -28,1.84 -28.37,1.72 -28.71,1.61 -29.02,1.5 -29.31,1.39 -29.58,1.29 -29.83,1.18 -30.05,1.08 -30.26,0.98 -30.44,0.88 -30.61,0.79 -30.76,0.7 -30.9,0.61" fill="white" stroke="white" stroke-width="0" stroke-linejoin="round" filter="url(#fuzzy)" />
    </g>
    <g transform="translate(-53.53 -27.19)">
      <polyline id="leftCountour" points="29.08,-1.63 28.85,-1.7 28.61,-1.77 28.33,-1.85 28.03,-1.92 27.69,-2 27.33,-2.08 26.93,-2.16 26.5,-2.24 26.03,-2.32 25.53,-2.41 25,-2.49 24.43,-2.57 23.83,-2.66 23.19,-2.75 22.51,-2.83 22.01,-2.92 21.44,-3.01 20.79,-3.11 20.08,-3.2 19.3,-3.3 18.46,-3.4 17.55,-3.5 16.58,-3.6 15.55,-3.7 14.47,-3.8 13.33,-3.89 12.15,-3.99 10.92,-4.09 9.66,-4.18 8.36,-4.27 7.02,-4.36 5.66,-4.44 4.28,-4.52 2.88,-4.6 1.47,-4.67 0.04,-4.73 -1.38,-4.79 -2.81,-4.84 -4.24,-4.89 -5.66,-4.93 -7.06,-4.96 -8.45,-4.98 -9.82,-5 -11.17,-5.01 -12.5,-5.01 -13.79,-5.01 -15.05,-5 -16.28,-4.97 -17.48,-4.94 -18.63,-4.91 -19.74,-4.86 -20.81,-4.81 -21.84,-4.75 -22.82,-4.68 -23.75,-4.6 -24.64,-4.52 -25.48,-4.43 -26.28,-4.33 -27.03,-4.22 -27.73,-4.11 -28.39,-4 -29,-3.88 -29.57,-3.75 -30.09,-3.62 -30.58,-3.48 -31.03,-3.34 -31.43,-3.2 -31.8,-3.05 -32.13,-2.89 -32.41,-2.73 -32.66,-2.57 -32.86,-2.4 -33.03,-2.22 -33.17,-2.04 -33.26,-1.86 -33.32,-1.67 -33.34,-1.48 -33.33,-1.29 -33.29,-1.09 -34.02,0.08 -33.37,0.25 -32.7,0.43 -32,0.6 -31.29,0.77 -30.55,0.95 -29.79,1.12 -29.01,1.29 -28.21,1.46 -27.39,1.63 -26.55,1.79 -25.69,1.96 -24.8,2.12 -23.9,2.28 -22.98,2.44 -22.03,2.6 -21.07,2.75 -20.08,2.91 -19.06,3.06 -18.03,3.2 -16.97,3.35 -15.89,3.49 -14.79,3.63 -13.67,3.76 -12.53,3.89 -11.38,4.01 -10.21,4.13 -9.02,4.23 -7.83,4.34 -6.62,4.43 -5.4,4.52 -4.17,4.6 -2.94,4.67 -1.7,4.74 -0.47,4.79 0.77,4.84 2,4.87 3.23,4.9 4.45,4.92 5.66,4.93 6.85,4.93 8.03,4.92 9.2,4.9 10.34,4.87 11.46,4.83 12.56,4.78 13.63,4.72 14.67,4.66 15.68,4.58 16.65,4.5 17.59,4.4 18.49,4.3 19.35,4.2 20.17,4.08 20.95,3.96 21.68,3.83 22.37,3.7 23.01,3.56 23.6,3.41 24.15,3.26 24.65,3.11 25.09,2.95 25.5,2.79 25.85,2.63 26.15,2.47 26.58,2.34 26.98,2.21 27.35,2.08 27.7,1.95 28.03,1.81 28.33,1.68 28.61,1.55 28.86,1.42 29.09,1.29 29.3,1.16 29.49,1.03 29.67,0.9 29.82,0.78 29.96,0.66 30.08,0.54" fill="white" stroke="white" stroke-width="0" stroke-linejoin="round" filter="url(#fuzzy)" />
    </g>
    <g transform="translate(31.659999999999997 -29.650000000000002)">
      <polyline id="rightUpper" points="-31.27,-0.51 -31.16,-0.56 -31.05,-0.61 -30.94,-0.66 -30.82,-0.72 -30.69,-0.77 -30.54,-0.83 -30.39,-0.89 -30.21,-0.96 -30.01,-1.02 -29.79,-1.09 -29.55,-1.16 -29.28,-1.23 -28.98,-1.31 -28.64,-1.39 -28.28,-1.47 -27.89,-1.55 -27.46,-1.64 -27,-1.72 -26.51,-1.81 -25.98,-1.9 -25.41,-2 -24.81,-2.09 -24.18,-2.19 -23.51,-2.29 -22.8,-2.39 -22.26,-2.48 -21.65,-2.59 -20.97,-2.69 -20.22,-2.8 -19.4,-2.91 -18.52,-3.03 -17.57,-3.15 -16.56,-3.27 -15.5,-3.38 -14.38,-3.5 -13.21,-3.62 -11.99,-3.74 -10.73,-3.86 -9.43,-3.97 -8.1,-4.08 -6.74,-4.19 -5.35,-4.29 -3.94,-4.39 -2.52,-4.48 -1.08,-4.57 0.36,-4.65 1.81,-4.72 3.25,-4.79 4.69,-4.85 6.12,-4.9 7.54,-4.94 8.93,-4.98 10.31,-5 11.66,-5.02 12.98,-5.02 14.28,-5.02 15.54,-5.01 16.76,-4.99 17.94,-4.95 19.09,-4.91 20.19,-4.86 21.24,-4.8 22.25,-4.73 23.22,-4.65 24.14,-4.56 25.01,-4.46 25.83,-4.36 26.6,-4.25 27.33,-4.13 28.01,-4 28.64,-3.86 29.23,-3.72 29.77,-3.58 30.28,-3.42 30.74,-3.27 31.17,-3.11 31.55,-2.94 31.89,-2.76 32.2,-2.58 32.46,-2.4 32.68,-2.21 32.87,-2.01 33.02,-1.81 33.13,-1.61 33.2,-1.4 33.24,-1.19 33.25,-0.97 33.22,-0.75 33.16,-0.52 33.07,-0.29 32.94,-0.06 32.79,0.17 32.61,0.41 32.4,0.65 32.16,0.89 31.89,1.14 31.6,1.38 31.29,1.63 30.95,1.88" fill="none" stroke="black" stroke-width="1.6666666666666665" stroke-linejoin="round" filter="url(#fuzzy)" />
      <polyline id="rightLower" points="-31.75,-0.06 -31.67,-0.01 -31.6,0.04 -31.53,0.1 -31.46,0.16 -31.39,0.23 -31.31,0.3 -31.22,0.37 -31.13,0.45 -31.02,0.53 -30.9,0.61 -30.76,0.7 -30.61,0.79 -30.44,0.88 -30.26,0.98 -30.05,1.08 -29.83,1.18 -29.58,1.29 -29.31,1.39 -29.02,1.5 -28.71,1.61 -28.37,1.72 -28,1.84 -27.62,1.95 -27.2,2.07 -26.77,2.18 -26.44,2.31 -26.07,2.44 -25.65,2.57 -25.19,2.7 -24.67,2.84 -24.11,2.97 -23.51,3.11 -22.86,3.25 -22.16,3.38 -21.42,3.51 -20.63,3.64 -19.8,3.77 -18.94,3.89 -18.03,4.01 -17.09,4.12 -16.11,4.23 -15.1,4.34 -14.06,4.43 -13,4.52 -11.9,4.61 -10.78,4.68 -9.64,4.75 -8.49,4.81 -7.31,4.86 -6.12,4.9 -4.92,4.93 -3.71,4.96 -2.49,4.97 -1.26,4.98 -0.04,4.97 1.19,4.96 2.41,4.94 3.64,4.91 4.85,4.87 6.06,4.82 7.26,4.76 8.45,4.69 9.63,4.62 10.79,4.54 11.93,4.45 13.06,4.35 14.17,4.25 15.27,4.14 16.34,4.02 17.39,3.9 18.42,3.77 19.43,3.64 20.42,3.51 21.38,3.38 22.32,3.24 23.24,3.09 24.14,2.95 25.03,2.8 25.89,2.65 26.73,2.49 27.56,2.33 28.36,2.17 29.15,2.01 29.91,1.84 30.66,1.68 31.38,1.51 32.08,1.34 32.77,1.16 33.43,0.99 34.08,0.82 34.7,0.65 35.31,0.47 35.9,0.3 36.47,0.12 37.02,-0.05 37.55,-0.23 38.06,-0.4 38.56,-0.57 39.04,-0.75" fill="none" stroke="black" stroke-width="2.2222222222222223" stroke-linejoin="round" filter="url(#fuzzy)" />
      <circle r="4.872" cx="-13.83175544820546" cy="1.8717053488022932" stroke="black" fill="none" stroke-width="1.0" filter="url(#fuzzy)" clip-path="url(#rightEyeClipPath)" /><circle r="4.986" cx="-14.211755448205462" cy="0.9817053488022935" stroke="black" fill="none" stroke-width="1.0" filter="url(#fuzzy)" clip-path="url(#rightEyeClipPath)" /><circle r="4.696" cx="-17.84175544820546" cy="0.711705348802294" stroke="black" fill="none" stroke-width="1.0" filter="url(#fuzzy)" clip-path="url(#rightEyeClipPath)" /><circle r="3.152" cx="-16.67175544820546" cy="-1.278294651197706" stroke="black" fill="none" stroke-width="1.0" filter="url(#fuzzy)" clip-path="url(#rightEyeClipPath)" /><circle r="3.402" cx="-16.55675544820546" cy="-0.5882946511977061" stroke="black" fill="none" stroke-width="1.0" filter="url(#fuzzy)" clip-path="url(#rightEyeClipPath)" /><circle r="3.624" cx="-16.761755448205463" cy="-0.10329465119770642" stroke="black" fill="none" stroke-width="1.0" filter="url(#fuzzy)" clip-path="url(#rightEyeClipPath)" /><circle r="3.942" cx="-13.50675544820546" cy="-1.9182946511977061" stroke="black" fill="none" stroke-width="1.0" filter="url(#fuzzy)" clip-path="url(#rightEyeClipPath)" /><circle r="3.278" cx="-13.016755448205462" cy="-1.5232946511977061" stroke="black" fill="none" stroke-width="1.0" filter="url(#fuzzy)" clip-path="url(#rightEyeClipPath)" /><circle r="3.51" cx="-14.48675544820546" cy="-1.5232946511977061" stroke="black" fill="none" stroke-width="1.0" filter="url(#fuzzy)" clip-path="url(#rightEyeClipPath)" /><circle r="4.61" cx="-17.386755448205463" cy="0.36670534880229333" stroke="black" fill="none" stroke-width="1.0" filter="url(#fuzzy)" clip-path="url(#rightEyeClipPath)" />
      </g>
    <g transform="translate(-53.53 -27.19)">
      <polyline id="leftUpper" points="30.4,-0.97 30.3,-1.03 30.2,-1.09 30.1,-1.16 29.99,-1.22 29.87,-1.29 29.75,-1.35 29.61,-1.42 29.45,-1.49 29.27,-1.56 29.08,-1.63 28.85,-1.7 28.61,-1.77 28.33,-1.85 28.03,-1.92 27.69,-2 27.33,-2.08 26.93,-2.16 26.5,-2.24 26.03,-2.32 25.53,-2.41 25,-2.49 24.43,-2.57 23.83,-2.66 23.19,-2.75 22.51,-2.83 22.01,-2.92 21.44,-3.01 20.79,-3.11 20.08,-3.2 19.3,-3.3 18.46,-3.4 17.55,-3.5 16.58,-3.6 15.55,-3.7 14.47,-3.8 13.33,-3.89 12.15,-3.99 10.92,-4.09 9.66,-4.18 8.36,-4.27 7.02,-4.36 5.66,-4.44 4.28,-4.52 2.88,-4.6 1.47,-4.67 0.04,-4.73 -1.38,-4.79 -2.81,-4.84 -4.24,-4.89 -5.66,-4.93 -7.06,-4.96 -8.45,-4.98 -9.82,-5 -11.17,-5.01 -12.5,-5.01 -13.79,-5.01 -15.05,-5 -16.28,-4.97 -17.48,-4.94 -18.63,-4.91 -19.74,-4.86 -20.81,-4.81 -21.84,-4.75 -22.82,-4.68 -23.75,-4.6 -24.64,-4.52 -25.48,-4.43 -26.28,-4.33 -27.03,-4.22 -27.73,-4.11 -28.39,-4 -29,-3.88 -29.57,-3.75 -30.09,-3.62 -30.58,-3.48 -31.03,-3.34 -31.43,-3.2 -31.8,-3.05 -32.13,-2.89 -32.41,-2.73 -32.66,-2.57 -32.86,-2.4 -33.03,-2.22 -33.17,-2.04 -33.26,-1.86 -33.32,-1.67 -33.34,-1.48 -33.33,-1.29 -33.29,-1.09 -33.21,-0.89 -33.11,-0.68 -32.97,-0.48 -32.8,-0.27 -32.6,-0.05 -32.37,0.16 -32.12,0.38 -31.84,0.6 -31.53,0.82 -31.2,1.05" fill="none" stroke="black" stroke-width="2.2222222222222223" stroke-linejoin="round" filter="url(#fuzzy)" />
      <polyline id="leftLower" points="30.83,-0.38 30.76,-0.32 30.7,-0.25 30.64,-0.17 30.57,-0.08 30.51,0.01 30.44,0.1 30.36,0.21 30.28,0.31 30.19,0.42 30.08,0.54 29.96,0.66 29.82,0.78 29.67,0.9 29.49,1.03 29.3,1.16 29.09,1.29 28.86,1.42 28.61,1.55 28.33,1.68 28.03,1.81 27.7,1.95 27.35,2.08 26.98,2.21 26.58,2.34 26.15,2.47 25.85,2.63 25.5,2.79 25.09,2.95 24.65,3.11 24.15,3.26 23.6,3.41 23.01,3.56 22.37,3.7 21.68,3.83 20.95,3.96 20.17,4.08 19.35,4.2 18.49,4.3 17.59,4.4 16.65,4.5 15.68,4.58 14.67,4.66 13.63,4.72 12.56,4.78 11.46,4.83 10.34,4.87 9.2,4.9 8.03,4.92 6.85,4.93 5.66,4.93 4.45,4.92 3.23,4.9 2,4.87 0.77,4.84 -0.47,4.79 -1.7,4.74 -2.94,4.67 -4.17,4.6 -5.4,4.52 -6.62,4.43 -7.83,4.34 -9.02,4.23 -10.21,4.13 -11.38,4.01 -12.53,3.89 -13.67,3.76 -14.79,3.63 -15.89,3.49 -16.97,3.35 -18.03,3.2 -19.06,3.06 -20.08,2.91 -21.07,2.75 -22.03,2.6 -22.98,2.44 -23.9,2.28 -24.8,2.12 -25.69,1.96 -26.55,1.79 -27.39,1.63 -28.21,1.46 -29.01,1.29 -29.79,1.12 -30.55,0.95 -31.29,0.77 -32,0.6 -32.7,0.43 -33.37,0.25 -34.02,0.08 -34.66,-0.09 -35.27,-0.27 -35.86,-0.44 -36.43,-0.61 -36.99,-0.79 -37.52,-0.96 -38.04,-1.13 -38.53,-1.3 -39.01,-1.47 -39.47,-1.64" fill="none" stroke="black" stroke-width="2.2222222222222223" stroke-linejoin="round" filter="url(#fuzzy)" />
      <circle r="4.756" cx="25.133832351242464" cy="-3.4731025547131535" stroke="black" fill="none" stroke-width="1.0" filter="url(#fuzzy)" clip-path="url(#leftEyeClipPath)" /><circle r="4.64" cx="23.003832351242465" cy="-3.2581025547131537" stroke="black" fill="none" stroke-width="1.0" filter="url(#fuzzy)" clip-path="url(#leftEyeClipPath)" /><circle r="3.622" cx="21.393832351242466" cy="-0.1481025547131538" stroke="black" fill="none" stroke-width="1.0" filter="url(#fuzzy)" clip-path="url(#leftEyeClipPath)" /><circle r="3.726" cx="24.298832351242464" cy="1.1168974452868463" stroke="black" fill="none" stroke-width="1.0" filter="url(#fuzzy)" clip-path="url(#leftEyeClipPath)" /><circle r="3.326" cx="22.693832351242463" cy="-3.4781025547131534" stroke="black" fill="none" stroke-width="1.0" filter="url(#fuzzy)" clip-path="url(#leftEyeClipPath)" /><circle r="3.596" cx="23.253832351242465" cy="-0.703102554713154" stroke="black" fill="none" stroke-width="1.0" filter="url(#fuzzy)" clip-path="url(#leftEyeClipPath)" /><circle r="4.038" cx="24.403832351242464" cy="1.131897445286846" stroke="black" fill="none" stroke-width="1.0" filter="url(#fuzzy)" clip-path="url(#leftEyeClipPath)" /><circle r="4.022" cx="21.093832351242465" cy="0.6918974452868465" stroke="black" fill="none" stroke-width="1.0" filter="url(#fuzzy)" clip-path="url(#leftEyeClipPath)" /><circle r="4.946" cx="24.598832351242464" cy="0.7768974452868465" stroke="black" fill="none" stroke-width="1.0" filter="url(#fuzzy)" clip-path="url(#leftEyeClipPath)" /><circle r="4.716" cx="23.783832351242463" cy="-0.5781025547131535" stroke="black" fill="none" stroke-width="1.0" filter="url(#fuzzy)" clip-path="url(#leftEyeClipPath)" />
    </g>
    <g id="hairs">
      <polyline points="39.64,-78.66 39.41,-78.7 40.27,-78.07 41.16,-77.38 41.88,-76.77 42.43,-76.24 42.77,-75.79 42.87,-75.47 42.72,-75.29 42.29,-75.26 41.61,-75.35 40.66,-75.55 39.43,-75.87 37.87,-76.33 35.94,-76.98 33.58,-77.84 30.76,-78.92 27.45,-80.26 23.62,-81.85 19.26,-83.72 14.45,-85.88 9.51,-88.35" fill="none" stroke="rgb(220, 208, 186)" stroke-width="2" stroke-linejoin="round" filter="url(#fuzzy)" /><polyline points="62.84,-53.33 63.8,-52.15 64.71,-50.83 65.36,-49.73 65.8,-48.84 66.09,-48.11 66.27,-47.5 66.34,-47.03 66.26,-46.78 65.96,-46.86 65.41,-47.38 64.59,-48.35 63.49,-49.77 62.12,-51.59 60.43,-53.83 58.38,-56.56 55.96,-59.84 53.24,-63.65 50.2,-67.95" fill="none" stroke="rgb(220, 208, 186)" stroke-width="2" stroke-linejoin="round" filter="url(#fuzzy)" /><polyline points="59.42,-58.93 60.67,-57.01 61.54,-55.65 62.03,-54.83 62.24,-54.41 62.25,-54.27 62.1,-54.34 61.75,-54.63 61.13,-55.19 60.19,-56.09 58.88,-57.41 57.2,-59.17 55.12,-61.45 52.57,-64.3 49.47,-67.81 45.93,-71.96" fill="none" stroke="rgb(220, 208, 186)" stroke-width="2" stroke-linejoin="round" filter="url(#fuzzy)" /><polyline points="66.69,-47.2 67.52,-44.94 67.74,-43.41 67.28,-42.54 66.16,-42.31 64.44,-42.55 62.2,-43.12 59.43,-43.92 56.09,-44.95 52.12,-46.27 47.44,-47.99 41.97,-50.15 35.74,-52.79 28.78,-55.92 21.14,-59.55 12.82,-63.69 3.71,-68.3 -6.36,-73.3 -17.45,-78.6" fill="none" stroke="rgb(220, 208, 186)" stroke-width="2" stroke-linejoin="round" filter="url(#fuzzy)" /><polyline points="43.9,-75.62 44.79,-74.65 45.1,-73.88 45.04,-73.25 44.62,-72.7 43.84,-72.15 42.71,-71.56 41.19,-70.94 39.2,-70.33 36.7,-69.77 33.66,-69.27 30.06,-68.84 25.89,-68.48 21.13,-68.2 15.74,-67.96 9.68,-67.76 2.94,-67.6 -4.46,-67.5 -12.44,-67.52 -20.95,-67.75 -30.01,-68.2 -39.91,-68.73" fill="none" stroke="rgb(220, 208, 186)" stroke-width="2" stroke-linejoin="round" filter="url(#fuzzy)" /><polyline points="-30.28,-83.89 -29.27,-84.39 -28.12,-84.95 -26.99,-85.44 -26.09,-85.78 -25.46,-85.96 -25.01,-86.02 -24.65,-86.02 -24.38,-85.93 -24.26,-85.72 -24.43,-85.33 -24.97,-84.73 -25.95,-83.89 -27.35,-82.83 -29.12,-81.59 -31.23,-80.19 -33.69,-78.6 -36.57,-76.77 -40,-74.6 -44.1,-72 -48.87,-68.96" fill="none" stroke="rgb(220, 208, 186)" stroke-width="2" stroke-linejoin="round" filter="url(#fuzzy)" /><polyline points="26.98,-85.21 27.71,-85.12 27.93,-84.95 28.09,-84.64 28.18,-84.2 28.1,-83.68 27.74,-83.12 27.01,-82.55 25.85,-82.01 24.19,-81.51 21.98,-81.06 19.22,-80.65 15.89,-80.26 12.01,-79.87 7.58,-79.48 2.6,-79.11 -2.93,-78.78 -9.03,-78.51 -15.79,-78.26 -23.34,-78 -31.75,-77.68" fill="none" stroke="rgb(220, 208, 186)" stroke-width="2" stroke-linejoin="round" filter="url(#fuzzy)" /><polyline points="59.42,-58.93 60.69,-56.99 61.57,-55.59 62.1,-54.71 62.39,-54.15 62.55,-53.78 62.62,-53.5 62.58,-53.33 62.35,-53.3 61.9,-53.48 61.2,-53.9 60.24,-54.57 59.03,-55.52 57.55,-56.79 55.76,-58.42 53.63,-60.5 51.09,-63.07 48.11,-66.14 44.67,-69.7 40.78,-73.73 36.53,-78.23" fill="none" stroke="rgb(220, 208, 186)" stroke-width="2" stroke-linejoin="round" filter="url(#fuzzy)" /><polyline points="-23.83,-86.76 -23.97,-86.56 -22.97,-86.75 -21.28,-87.1 -19.06,-87.54 -16.53,-88 -13.91,-88.43 -11.36,-88.8 -8.93,-89.11 -6.6,-89.36 -4.36,-89.59 -2.2,-89.8 -0.15,-90 1.73,-90.2 3.35,-90.4 4.51,-90.59 5.07,-90.73" fill="none" stroke="rgb(220, 208, 186)" stroke-width="2" stroke-linejoin="round" filter="url(#fuzzy)" /><polyline points="52.87,-66.8 53.86,-65.76 54.72,-64.7 55.26,-63.88 55.54,-63.29 55.58,-62.89 55.36,-62.63 54.89,-62.49 54.13,-62.47 53.07,-62.63 51.67,-63.01 49.9,-63.69 47.73,-64.68 45.16,-65.98 42.16,-67.56 38.73,-69.41 34.84,-71.52 30.46,-73.93 25.61,-76.67 20.3,-79.75 14.49,-83.17 7.99,-86.9" fill="none" stroke="rgb(220, 208, 186)" stroke-width="2" stroke-linejoin="round" filter="url(#fuzzy)" /><polyline points="14.21,-89.64 15,-89.48 16.23,-89.15 17.39,-88.82 18.43,-88.51 19.36,-88.18 20.17,-87.84 20.79,-87.51 21.15,-87.22 21.21,-87 20.95,-86.86 20.36,-86.81 19.42,-86.82 18.16,-86.88 16.56,-86.97 14.64,-87.09 12.34,-87.24 9.64,-87.45 6.45,-87.73 2.68,-88.1 -1.84,-88.55 -7.26,-89.08" fill="none" stroke="rgb(220, 208, 186)" stroke-width="2" stroke-linejoin="round" filter="url(#fuzzy)" /><polyline points="-7.93,-90.62 -7.07,-90.78 -6.04,-90.89 -4.93,-90.96 -3.84,-91.01 -2.83,-91.02 -1.95,-91.01 -1.26,-90.98 -0.81,-90.94 -0.64,-90.87 -0.77,-90.77 -1.23,-90.63 -2.02,-90.45 -3.12,-90.23 -4.59,-89.98 -6.48,-89.69 -8.91,-89.35 -12.08,-88.91 -16.38,-88.27" fill="none" stroke="rgb(220, 208, 186)" stroke-width="2" stroke-linejoin="round" filter="url(#fuzzy)" /><polyline points="-1.66,-91.01 0.03,-90.95 1.31,-90.95 2.62,-90.94 3.92,-90.9 5.16,-90.82 6.36,-90.72 7.49,-90.61 8.49,-90.49 9.27,-90.4 9.73,-90.33 9.81,-90.31 9.48,-90.34 8.75,-90.41 7.62,-90.53 6.04,-90.66 3.78,-90.81" fill="none" stroke="rgb(220, 208, 186)" stroke-width="2" stroke-linejoin="round" filter="url(#fuzzy)" /><polyline points="-1.47,-91.18 -0.92,-91.04 0.18,-90.98 1.39,-90.96 2.64,-90.94 3.86,-90.9 5.04,-90.83 6.16,-90.74 7.22,-90.64 8.16,-90.54 8.93,-90.44 9.47,-90.36 9.73,-90.3 9.71,-90.27 9.38,-90.26 8.74,-90.26 7.77,-90.28 6.43,-90.31 4.67,-90.4 2.42,-90.57 -0.5,-90.81" fill="none" stroke="rgb(220, 208, 186)" stroke-width="2" stroke-linejoin="round" filter="url(#fuzzy)" /><polyline points="65.63,-49.45 66.23,-48.23 66.73,-47.07 67.24,-45.9 67.79,-44.65 68.32,-43.43 68.75,-42.37 69.05,-41.56 69.23,-41 69.29,-40.65 69.25,-40.47 69.09,-40.48 68.79,-40.72 68.31,-41.24 67.63,-42.11 66.71,-43.36 65.56,-45.02 64.17,-47.13 62.54,-49.69 60.68,-52.73 58.61,-56.2 56.33,-60.07 53.73,-64.41" fill="none" stroke="rgb(220, 208, 186)" stroke-width="2" stroke-linejoin="round" filter="url(#fuzzy)" /><polyline points="-13.7,-89.37 -12.7,-89.62 -11.22,-89.47 -8.83,-89.16 -5.74,-88.7 -2.22,-88.11 1.54,-87.38 5.53,-86.51 9.76,-85.49 14.2,-84.36 18.82,-83.13 23.51,-81.88 28.18,-80.65 32.72,-79.46 37.29,-78.18" fill="none" stroke="rgb(220, 208, 186)" stroke-width="2" stroke-linejoin="round" filter="url(#fuzzy)" /><polyline points="14.3,-89.7 16.36,-89.1 18.02,-88.52 19.69,-87.89 21.52,-87.15 23.48,-86.29 25.48,-85.37 27.42,-84.44 29.27,-83.53 31,-82.69 32.57,-81.95 33.97,-81.3 35.2,-80.74 36.25,-80.26 37.12,-79.87 37.75,-79.62 38.13,-79.5 38.4,-79.46" fill="none" stroke="rgb(220, 208, 186)" stroke-width="2" stroke-linejoin="round" filter="url(#fuzzy)" /><polyline points="50.27,-69.51 51.57,-68.5 52.02,-67.86 52.09,-67.39 51.91,-67.03 51.42,-66.85 50.54,-66.92 49.2,-67.31 47.36,-68.01 44.99,-69.05 42.02,-70.39 38.44,-72.06 34.2,-74.06 29.26,-76.47 23.65,-79.36 17.39,-82.79 10.35,-86.75" fill="none" stroke="rgb(220, 208, 186)" stroke-width="2" stroke-linejoin="round" filter="url(#fuzzy)" /><polyline points="-25.01,-86.16 -23.67,-86.62 -22.13,-86.96 -20.05,-87.27 -17.59,-87.52 -14.99,-87.69 -12.38,-87.74 -9.77,-87.7 -7.13,-87.59 -4.4,-87.43 -1.57,-87.25 1.36,-87.04 4.37,-86.81 7.39,-86.57 10.35,-86.32 13.18,-86.07 15.86,-85.85 18.36,-85.66 20.68,-85.51 22.79,-85.41 24.67,-85.34 26.33,-85.26" fill="none" stroke="rgb(220, 208, 186)" stroke-width="2" stroke-linejoin="round" filter="url(#fuzzy)" /><polyline points="19.42,-88.29 20.05,-88.14 21.5,-87.62 22.86,-87.07 23.94,-86.6 24.76,-86.25 25.31,-86.02 25.57,-85.9 25.54,-85.88 25.22,-85.94 24.61,-86.05 23.7,-86.22 22.41,-86.48 20.63,-86.89 18.3,-87.49 15.33,-88.33 11.54,-89.44" fill="none" stroke="rgb(220, 208, 186)" stroke-width="2" stroke-linejoin="round" filter="url(#fuzzy)" /><polyline points="42.9,-76.25 42.49,-76.34 42.8,-75.92 42.85,-75.47 42.34,-75.22 41.22,-75.24 39.48,-75.53 37.11,-76.06 34.08,-76.78 30.37,-77.71 25.89,-78.9 20.55,-80.42 14.26,-82.31 6.96,-84.55 -1.62,-87.12" fill="none" stroke="rgb(220, 208, 186)" stroke-width="2" stroke-linejoin="round" filter="url(#fuzzy)" /><polyline points="72.65,-32.93 52.44,-58.53 51.77,-60.08 50.29,-56.1 42.1,-53.84 30,-55.21 20.26,-58.79 16.78,-62.33 18.83,-64.7 22.74,-66.14 25.08,-67.56 24.7,-69.56 22.81,-71.92 21.64,-73.77 22.7,-74.2 25.82,-72.83 29.23,-70.21 30.47,-67.6 27.99,-66.37 22.81,-66.89 18.98,-68.04 21.55,-67.59 33.06,-63.07 52.44,-52.03 70.4,-38.21" fill="none" stroke="rgb(220, 208, 186)" stroke-width="2" stroke-linejoin="round" filter="url(#fuzzy)" /><polyline points="-32.11,-83.05 4.08,-82.03 16.3,-78.03 16.84,-75.43 10.4,-74.31 -0.21,-73.9 -10.34,-73.53 -15.61,-73.09 -14.34,-72.82 -7.95,-72.9 0.48,-73.16 8.23,-73.03 14.13,-71.89 18.63,-69.5 22.9,-66.3 27.72,-63.23 32.58,-61.21 35.49,-60.68 33.59,-61.46 24.59,-62.93 8.16,-64.88 -12.84,-68.57 -30.88,-75.35 -41.99,-76.64" fill="none" stroke="rgb(220, 208, 186)" stroke-width="2" stroke-linejoin="round" filter="url(#fuzzy)" /><polyline points="-7.93,-90.62 16.89,-72.28 7.91,-72 8.15,-72.13 18.68,-70.32 29.51,-67.89 34.12,-66.56 32.42,-67.15 28.02,-69.29 24.02,-71.77 20.65,-73.14 15.75,-72.66 7.3,-71.24 -2.2,-71.45 2.34,-73.43 52.87,-66.8" fill="none" stroke="rgb(220, 208, 186)" stroke-width="2" stroke-linejoin="round" filter="url(#fuzzy)" /><polyline points="-48.68,-70.91 -8.65,-80.95 4.68,-80.27 11.39,-77.38 15.23,-76.48 15.69,-77.42 13.91,-78.23 11.85,-77.54 10.67,-75.45 10.46,-73.22 10.73,-72.31 10.96,-73.47 10.76,-76.35 9.86,-79.7 8.47,-82.18 7.42,-83.04 7.69,-82.43 8.73,-80.98 7.49,-78.69 1.82,-73.88 3.49,-63.93 63.6,-52.56" fill="none" stroke="rgb(220, 208, 186)" stroke-width="2" stroke-linejoin="round" filter="url(#fuzzy)" /><polyline points="69.78,-39.74 36.75,-58.17 26.39,-54.68 22.72,-53.17 20.78,-57.04 16.4,-63.98 9.6,-70.83 3.45,-75.51 1.11,-77.33 3.74,-76.61 9.84,-74.38 16.2,-72.26 19.97,-71.94 20.93,-73.96 22.03,-76.58 27.22,-76.09 37.97,-69.5 50.78,-60.08 48.69,-71.25" fill="none" stroke="rgb(220, 208, 186)" stroke-width="2" stroke-linejoin="round" filter="url(#fuzzy)" /><polyline points="-29.25,-84.39 -2.65,-86.9 -4,-85.7 -11.7,-82.32 -13.74,-78.95 -8.98,-76.78 -1.63,-76 4.29,-76.33 7.15,-77.31 7.23,-78.4 5.42,-79.08 2.83,-78.88 0.82,-77.41 0.72,-74.04 3,-68.07 7.72,-60.64 13.32,-59.8 -15.21,-89.29" fill="none" stroke="rgb(220, 208, 186)" stroke-width="2" stroke-linejoin="round" filter="url(#fuzzy)" /><polyline points="-6.61,-90.97 -7.76,-86.01 7.56,-76.31 23.44,-69.5 30.76,-67.59 28.43,-69.19 19.59,-72.54 8.58,-76.14 -1.24,-78.72 -8.2,-79.51 -12.06,-78.58 -13.81,-76.93 -15.44,-75.93 -18.78,-76.49 -23.21,-78.29 -24.56,-79.92 -15.96,-80.76 22.25,-87.45" fill="none" stroke="rgb(220, 208, 186)" stroke-width="2" stroke-linejoin="round" filter="url(#fuzzy)" /><polyline points="14.3,-89.7 33.05,-77.38 29.4,-77.42 23.53,-78.77 18.67,-79.82 14.16,-80.72 9.63,-81.44 4.74,-81.8 -0.51,-81.82 -4.98,-81.72 -6.75,-81.77 -4.56,-82.13 0.91,-82.77 7.14,-83.5 11.49,-83.91 13.18,-83.34 13.77,-81.01 15.14,-76.9 15.97,-73.53 13.02,-76.6 29.32,-84.42" fill="none" stroke="rgb(220, 208, 186)" stroke-width="2" stroke-linejoin="round" filter="url(#fuzzy)" /><polyline points="17.01,-89.04 9.03,-87.34 5.99,-78.7 10.95,-69.9 17.79,-65.48 20.83,-64.97 20.37,-65.71 19.49,-65.7 19.66,-64.7 19.84,-63.76 18.53,-63.99 15.86,-65.61 13.59,-67.76 13.29,-69.16 14.47,-69.02 14.59,-67.75 11.13,-66.9 4.31,-68.13 -2.72,-71.53 -9.32,-74.87 -24.38,-75.34 -49.22,-70.64" fill="none" stroke="rgb(220, 208, 186)" stroke-width="2" stroke-linejoin="round" filter="url(#fuzzy)" /><polyline points="12.45,-89.83 -1.93,-83.66 1.72,-80.91 2.98,-77.38 3.35,-73.36 3.56,-70.93 3.21,-70.69 2.82,-71.66 3.6,-72.83 6.36,-73.98 10.71,-75.36 14.43,-77.05 12.78,-78.89 -0.18,-80.31 -25.29,-78.73 -51.41,-68.71" fill="none" stroke="rgb(220, 208, 186)" stroke-width="2" stroke-linejoin="round" filter="url(#fuzzy)" /><polyline points="67.96,-44.22 67.99,-40.67 58,-50.13 45.28,-60.69 36.95,-67.27 34.31,-69.81 34.86,-70.47 35.92,-70.97 35.79,-71.7 33.44,-72.01 28.97,-70.73 24.91,-66.84 26.26,-60.83 36.19,-56.72 46.07,-62.43 33.25,-82.37" fill="none" stroke="rgb(220, 208, 186)" stroke-width="2" stroke-linejoin="round" filter="url(#fuzzy)" /><polyline points="26.98,-85.21 15.19,-77.43 1,-72.4 -0.71,-69.79 -0.07,-70.23 -2.06,-72.86 -5.6,-76.02 -8.51,-78.5 -9.93,-79.65 -10.16,-79.19 -9.73,-77.15 -8.9,-74.01 -7.56,-70.69 -5.29,-68.16 -1.5,-66.95 4.25,-66.82 11.57,-67.02 18.55,-67.01 21.86,-67 18.14,-67.92 6.54,-70.41 -8.68,-73.71 -19.05,-76 -22.21,-76.14 -51.41,-68.71" fill="none" stroke="rgb(220, 208, 186)" stroke-width="2" stroke-linejoin="round" filter="url(#fuzzy)" /><polyline points="71.45,-35.92 0.48,-61.6 -15.41,-73.54 -10.46,-79.44 -1.41,-80.8 5.3,-79.73 8.74,-78.42 11.15,-77.61 15.4,-76.6 22.78,-74.47 32.17,-71.11 40.86,-67.42 45.91,-64.78 44.78,-64.26 35.34,-66.21 16.56,-70.12 -8.8,-74.93 -30.34,-79.15 -35.7,-80.95" fill="none" stroke="rgb(220, 208, 186)" stroke-width="2" stroke-linejoin="round" filter="url(#fuzzy)" /><polyline points="29.5,-84.74 30.22,-83.4 37.08,-77.28 40.69,-70.33 36.13,-65.93 24.9,-64.89 12.77,-65.76 5.09,-66.65 3.67,-66.71 6.65,-66.34 10.35,-66.57 11.83,-68.15 10.5,-71.01 7.84,-74.38 5.39,-77.46 2.57,-79.92 -3.34,-81.73 -14.38,-82.73 -27.33,-82.89 -30.28,-83.89" fill="none" stroke="rgb(220, 208, 186)" stroke-width="2" stroke-linejoin="round" filter="url(#fuzzy)" /><polyline points="-8.82,-90.27 16.64,-79.93 15.34,-73.23 2.88,-72.8 -6.25,-74.49 -9.44,-74.95 -9.39,-72.76 -8.69,-68.63 -8.18,-64.74 -6.91,-63.16 -3.58,-64.72 1.04,-68.71 3.54,-72.97 2.76,-73.34 10.23,-63.7 69.78,-39.74" fill="none" stroke="rgb(220, 208, 186)" stroke-width="2" stroke-linejoin="round" filter="url(#fuzzy)" /><polyline points="59.42,-58.93 58.01,-60.26 51.91,-63.09 39.49,-65.04 23.62,-65.99 10.04,-65.94 2.68,-65.01 2.27,-63.81 7.42,-63.13 15.87,-63.46 24.98,-64.78 31.76,-66.68 33.06,-68.81 26.66,-70.93 13.12,-72.86 -2,-74.47 -8.33,-76.44 0.22,-81.31 -4.83,-91.06" fill="none" stroke="rgb(220, 208, 186)" stroke-width="2" stroke-linejoin="round" filter="url(#fuzzy)" /><polyline points="70.27,-39.72 39.76,-60.9 26.42,-66.12 15.08,-71.68 8.63,-75.43 6.02,-75.78 4.29,-73.77 1.56,-71.6 -2.35,-70.84 -6.34,-71.6 -8.6,-72.79 -7.59,-73.2 -2.99,-72.48 4,-71.33 11.28,-70.88 16.7,-71.68 17.96,-73.23 12.15,-75.09 0.1,-79.37 9.97,-90.15" fill="none" stroke="rgb(220, 208, 186)" stroke-width="2" stroke-linejoin="round" filter="url(#fuzzy)" /><polyline points="70.06,-39.62 0.54,-64.2 -20.33,-70.61 -16.51,-70.65 -3.9,-67.79 7.46,-64.02 12.32,-61.67 9.85,-62.32 2.57,-65.73 -5.93,-70.25 -13,-74.09 -17.17,-76.39 -17.29,-77.3 -12.19,-77.39 -1.47,-76.89 12.69,-75.47 23.06,-72.45 13.66,-68.29 -48.57,-71.14" fill="none" stroke="rgb(220, 208, 186)" stroke-width="2" stroke-linejoin="round" filter="url(#fuzzy)" /><polyline points="-13.15,-89.58 -25.7,-84.69 -27.46,-83.61 -28.4,-82.66 -28.81,-81.79 -26.34,-81.28 -19.65,-80.8 -9.45,-79.9 1.83,-78.56 11.27,-77.22 17.02,-76.31 19.04,-75.81 18.59,-75.22 16.77,-74.2 13.49,-73.12 7.87,-72.72 0.16,-73.17 -6.49,-73.43 -7.33,-72.16 -6.52,-69.24 -51.25,-68.82" fill="none" stroke="rgb(220, 208, 186)" stroke-width="2" stroke-linejoin="round" filter="url(#fuzzy)" /><polyline points="-19.34,-88.42 17.27,-74.51 29.51,-60.63 17.59,-57.11 -1.94,-60.16 -17.47,-65.24 -25.84,-69.76 -28.47,-72.8 -27.88,-74.23 -25.95,-74.07 -23.3,-72.53 -19.76,-70.38 -15.7,-68.89 -13.03,-69.26 -14.27,-71.76 -19.6,-75.41 -24.69,-78.52 -22.01,-79.5 -2.54,-76.63 52.87,-66.8" fill="none" stroke="rgb(220, 208, 186)" stroke-width="2" stroke-linejoin="round" filter="url(#fuzzy)" /><polyline points="58.42,-60.71 28.72,-66.36 1.39,-71.31 -8.34,-73.83 -3.77,-71.77 8.22,-66.29 20.2,-60.4 27.42,-56.69 29.15,-56.12 27.53,-58.12 25.38,-61.44 24.52,-64.87 25.4,-67.65 27.45,-69.38 29.65,-70.02 30.97,-69.9 30.63,-69.71 28.45,-70.3 25.02,-72.26 21.8,-75.32 20.86,-77.84 23.45,-77.29 25.94,-72.08 12.02,-64.57 -56.96,-61.94" fill="none" stroke="rgb(220, 208, 186)" stroke-width="2" stroke-linejoin="round" filter="url(#fuzzy)" /><polyline points="33.3,-82.53 34.48,-77.35 26.97,-74.21 19.31,-73.69 14.56,-73.76 9.42,-74.5 2.23,-76.07 -5.14,-77.94 -9.65,-79.45 -9.48,-80.28 -4.97,-80.57 1.96,-80.69 9.18,-80.87 15.47,-81.05 20.82,-80.83 25.87,-79.75 31.01,-77.58 35.96,-74.44 39.77,-70.63 40.8,-66.48 36.13,-62.79 21.73,-62.07 -0.43,-69.58 9.97,-90.15" fill="none" stroke="rgb(220, 208, 186)" stroke-width="2" stroke-linejoin="round" filter="url(#fuzzy)" /><polyline points="19.42,-88.29 -1.5,-78.67 9.65,-77.4 19.71,-78.21 22.42,-79.86 18.32,-82.13 10.42,-84.47 2.1,-86.27 -4.33,-87.16 -7.87,-86.97 -8.19,-85.68 -4.86,-83.41 2.59,-80.31 13.96,-76.51 27.64,-72.05 40.74,-67.22 50.15,-63.19 53.54,-62.22 49.69,-66.67 38.33,-76.52 18.96,-88.57" fill="none" stroke="rgb(220, 208, 186)" stroke-width="2" stroke-linejoin="round" filter="url(#fuzzy)" /><polyline points="67.08,-45.96 27.69,-64.71 6.87,-66.82 12.93,-61.67 29.23,-56.09 41.9,-53.94 45.53,-55.64 40.57,-60.04 30.29,-65.89 18.83,-72.02 9.36,-77.07 3.29,-79.71 1.23,-79.52 4.65,-77.79 14.15,-77.62 23.09,-81.9 24.74,-85.96" fill="none" stroke="rgb(220, 208, 186)" stroke-width="2" stroke-linejoin="round" filter="url(#fuzzy)" /><polyline points="14.21,-89.64 35.14,-73.45 29.14,-75.21 18.72,-77.27 8.8,-78.16 0.15,-79.06 -7.04,-80.14 -12.54,-80.81 -15.95,-80.51 -17.07,-79.03 -16.09,-76.53 -13.39,-73.49 -9.45,-70.65 -4.98,-68.75 -0.92,-68.13 2.05,-68.5 4.37,-69.07 7.8,-69.16 14.14,-68.66 23.12,-68.18 31.09,-68.66 30.86,-71.02 11.41,-74.98 -43.65,-75.67" fill="none" stroke="rgb(220, 208, 186)" stroke-width="2" stroke-linejoin="round" filter="url(#fuzzy)" /><polyline points="24.74,-85.96 15.64,-80.11 4.46,-76.48 1.81,-74.77 5.45,-73.44 12.31,-72.35 19.08,-72.06 23.22,-72.59 23.51,-73.39 20.17,-74.04 14.9,-74.55 10.54,-75.16 9.56,-75.89 12.07,-76.6 15.06,-77.45 14.18,-78.91 8.23,-80.67 3.72,-79.48 16.42,-67.45 73.65,-30.57" fill="none" stroke="rgb(220, 208, 186)" stroke-width="2" stroke-linejoin="round" filter="url(#fuzzy)" /><polyline points="-44.07,-75.48 12.97,-74.8 32.74,-74.44 38.38,-73.99 40.26,-72.99 41.16,-72.07 41.15,-71.87 40.22,-72.45 38.78,-73.45 37.22,-74.45 35.63,-75.06 33.72,-75.11 30.77,-74.7 25.89,-74.22 18.81,-74.1 10.88,-74.43 5.16,-74.67 4.66,-73.87 9.61,-71.39 17.63,-67.97 26.49,-68.21 14.3,-89.7" fill="none" stroke="rgb(220, 208, 186)" stroke-width="2" stroke-linejoin="round" filter="url(#fuzzy)" /><polyline points="14.21,-89.64 16.59,-82.59 3.31,-82.68 -1.73,-82.12 1.27,-80.07 8.01,-77.73 15.88,-75.76 23.52,-74 29.5,-72.12 32.17,-70.26 30.53,-69.05 25.16,-69.09 18.45,-70.44 13.47,-72.47 12.18,-74.2 14.36,-74.71 18.17,-73.7 21.83,-71.79 24.27,-70.29 24.66,-69.46 28.05,-63.57 72.65,-32.93" fill="none" stroke="rgb(220, 208, 186)" stroke-width="2" stroke-linejoin="round" filter="url(#fuzzy)" /><polyline points="33.3,-82.53 32.18,-64.88 12.89,-69.08 3.13,-71.78 1.12,-70.38 0.82,-67.72 -0.76,-65.76 -2.43,-64.67 -0.83,-63.67 6.58,-61.98 19.29,-59.49 33.75,-56.89 45.19,-55.52 49.93,-56.69 46.32,-61.03 34.59,-68.2 16.63,-76.72 -3.35,-83.74 -19.93,-85.76 -35.94,-80.93" fill="none" stroke="rgb(220, 208, 186)" stroke-width="2" stroke-linejoin="round" filter="url(#fuzzy)" /><polyline points="-26.54,-85.96 -18.93,-78.5 7.56,-75.16 28.41,-70.82 40.31,-66.1 44,-63.26 41.5,-63.55 36.17,-66.28 31.67,-69.64 30.21,-72.03 31.84,-72.73 34.91,-72.02 37.14,-70.82 36.66,-70.27 32.71,-71.19 26,-73.59 18.48,-76.54 11.89,-78.89 5.9,-80.19 -2.38,-80.83 -14.95,-80.86 -25.9,-80.57 -12.46,-90.07" fill="none" stroke="rgb(220, 208, 186)" stroke-width="2" stroke-linejoin="round" filter="url(#fuzzy)" /><polyline points="-38.57,-78.69 -12.53,-86.14 -0.28,-86.41 6.78,-83.8 7.97,-81.46 4.13,-80.17 -1.13,-79.26 -4.27,-77.89 -3.55,-75.77 0.97,-73.03 8.12,-69.99 16.28,-66.88 24,-63.84 30.49,-61.07 35.67,-58.9 39.45,-57.85 40.58,-58.67 36.6,-62.14 25.45,-68.4 7.95,-75.89 -11.53,-81.17 -27.72,-81.75 -32.11,-83.05" fill="none" stroke="rgb(220, 208, 186)" stroke-width="2" stroke-linejoin="round" filter="url(#fuzzy)" /><polyline points="-53.53,-66.24 -7.92,-61.83 -10.64,-66.75 -16.19,-72.16 -21.39,-74.79 -26.11,-75.65 -28.4,-76.54 -27.02,-78.22 -22.61,-80.29 -16.84,-81.87 -11.04,-82.26 -5.43,-81.29 0.5,-79.3 6.67,-76.95 11.61,-74.72 13.17,-72.51 11.02,-69.75 8.13,-66.86 7.38,-67.47 4.79,-77.51 5.23,-90.74" fill="none" stroke="rgb(220, 208, 186)" stroke-width="2" stroke-linejoin="round" filter="url(#fuzzy)" /><polyline points="14.21,-89.64 -1.96,-69.68 3.76,-63.72 6.55,-65.74 10.8,-67.83 16.07,-67.86 18.83,-66.67 17.85,-65.52 14.9,-65.11 12.2,-65.71 10.31,-67.49 8.28,-70.41 5.44,-73.9 2.54,-76.81 1.32,-78.08 3.03,-77.82 5.72,-78.26 -0.34,-82.57 -25.01,-86.16" fill="none" stroke="rgb(220, 208, 186)" stroke-width="2" stroke-linejoin="round" filter="url(#fuzzy)" /><polyline points="8.73,-90.5 26.31,-65.71 15.91,-64.37 16.96,-62.21 25.68,-59.66 30.89,-60.12 28.17,-63.82 19.76,-68.34 9.74,-71.19 0.46,-71.72 -7.67,-71.26 -14.07,-71.74 -16.5,-73.92 -11.84,-76.54 0.49,-77.12 14.19,-74.18 10.52,-69.8 -48.68,-70.91" fill="none" stroke="rgb(220, 208, 186)" stroke-width="2" stroke-linejoin="round" filter="url(#fuzzy)" /><polyline points="41.38,-76.93 16.75,-83.91 9.08,-83.95 9.63,-82.85 13.95,-82.13 16.94,-81.61 16.35,-80.68 13.41,-79.01 10.86,-76.85 10.54,-74.9 12.51,-73.85 15.79,-73.86 19.5,-74.41 23.07,-74.71 25.39,-74.39 24.21,-73.92 17.25,-74.15 4.81,-75.24 -7.85,-75.83 -10.26,-73.77 11.62,-66.36 69.78,-39.74" fill="none" stroke="rgb(220, 208, 186)" stroke-width="2" stroke-linejoin="round" filter="url(#fuzzy)" /><polyline points="-48.68,-70.91 -16.67,-83.81 -4.29,-88.2 -1.61,-88.59 -4.77,-86.81 -9.34,-83.96 -11.25,-80.68 -8.72,-77.15 -2.72,-73.51 4.13,-70.15 9.32,-67.58 11.85,-65.99 12.75,-65.12 14.13,-64.6 17.59,-64.46 22.89,-65.24 27.9,-67.49 29.75,-71.04 26.29,-74.9 16.75,-77.83 2.02,-78.97 -13.42,-77.8 -16.07,-75.55 27.47,-85.09" fill="none" stroke="rgb(220, 208, 186)" stroke-width="2" stroke-linejoin="round" filter="url(#fuzzy)" /><polyline points="63.58,-52.33 39.66,-66.86 23.22,-74.57 21.92,-74.07 24.18,-70.94 22.63,-70.18 17.28,-72.83 10.52,-77.11 3.44,-80.82 -4.16,-82.66 -11.64,-82.21 -16.2,-79.48 -13.47,-74.81 0.3,-69.03 24.44,-63.52 50.12,-57.86 70.27,-39.72" fill="none" stroke="rgb(220, 208, 186)" stroke-width="2" stroke-linejoin="round" filter="url(#fuzzy)" /><polyline points="5.11,-91.09 15.28,-85.77 11.63,-81.87 5.01,-80.73 2.44,-80.59 3.08,-80.3 4.69,-79.54 5.76,-78.57 5.35,-77.85 3.26,-77.73 0.52,-78.35 -1.25,-79.58 -1.07,-81.08 0.76,-82.27 3.69,-82.52 7.92,-81.52 13.2,-79.44 15.15,-76.16 1.47,-69.76 -59.3,-58.52" fill="none" stroke="rgb(220, 208, 186)" stroke-width="2" stroke-linejoin="round" filter="url(#fuzzy)" /><polyline points="46.17,-73.04 31.47,-80.11 21.33,-81.15 12.97,-79.42 10.71,-75.18 14.92,-70.35 22.2,-67.19 28.68,-66.6 32.23,-67.95 32.46,-70.02 29.76,-71.9 24.79,-73.24 18.57,-73.94 12.49,-73.81 8.07,-72.57 6.36,-70.17 7.33,-67.14 9.62,-64.78 11.26,-64.69 12.46,-67.66 18.68,-71.67 37.06,-69.46 66.69,-47.2" fill="none" stroke="rgb(220, 208, 186)" stroke-width="2" stroke-linejoin="round" filter="url(#fuzzy)" /><polyline points="48.57,-71.64 43.4,-71.09 25.62,-71.57 7.78,-74.26 -1.01,-77.53 -2.49,-79.84 -0.89,-80.2 2.51,-78.49 8.53,-75.58 16.51,-72.92 22.65,-71.95 21.89,-73.51 11.94,-77.22 -4.33,-81.06 -20.58,-82.38 -30.79,-81.2 -25.01,-86.16" fill="none" stroke="rgb(220, 208, 186)" stroke-width="2" stroke-linejoin="round" filter="url(#fuzzy)" /><polyline points="-57.2,-61.8 -35.21,-77.27 -24.07,-83.48 -20.71,-83.95 -18.5,-82.42 -14.37,-81.54 -9.02,-82.07 -4.17,-83.38 -0.65,-84.45 1.98,-84.36 4.95,-82.6 9.31,-79.23 14.87,-75.05 19.66,-71.35 20.82,-69.29 17.05,-69 11.29,-69.46 10.13,-69.57 16.3,-70 15.03,-74.21 -29.25,-84.39" fill="none" stroke="rgb(220, 208, 186)" stroke-width="2" stroke-linejoin="round" filter="url(#fuzzy)" /><polyline points="-13.15,-89.58 8.74,-64.99 -6.31,-64.98 -8.98,-69.77 2.35,-72.24 17.62,-71.29 27.73,-68.67 27.82,-66.66 17.65,-66.4 1.14,-67.5 -15.22,-68.95 -24.86,-70.08 -23.55,-70.58 -10.8,-69.61 9.82,-65.86 29.63,-60.79 30.68,-63.74 -16.62,-88.81" fill="none" stroke="rgb(220, 208, 186)" stroke-width="2" stroke-linejoin="round" filter="url(#fuzzy)" /><polyline points="-13.15,-89.58 -11.93,-92.44 -10.4,-94.71 -9,-96.01 -7.79,-97.41 -6.67,-98.8 -5.53,-99.57 -4.32,-99.55 -3.07,-99.09 -1.79,-98.69 -0.51,-98.71 0.74,-99.19 1.98,-100.02 3.23,-101.08 4.52,-102.38 5.88,-104.02 7.37,-106.1 9,-108.59 10.72,-111.2 12.48,-113.55 14.23,-115.4 16.04,-117.09 17.85,-119.14 19.08,-120.35" fill="none" stroke="rgb(220, 208, 186)" stroke-width="2" stroke-linejoin="round" filter="url(#fuzzy)" /><polyline points="-13.7,-89.37 -15.55,-89.08 -16.36,-88.61 -17.41,-87.92 -18.74,-87.1 -20.09,-86.16 -21.26,-85.17 -22.22,-84.15 -23.04,-83.16 -23.83,-82.21 -24.69,-81.36 -25.65,-80.6 -26.66,-79.89 -27.63,-79.11 -28.53,-78.17 -29.36,-77.03 -30.16,-75.75 -30.95,-74.4 -31.65,-73.01 -32.15,-71.57 -32.63,-69.77" fill="none" stroke="rgb(220, 208, 186)" stroke-width="2" stroke-linejoin="round" filter="url(#fuzzy)" /><polyline points="-55.09,-80.69 -54.71,-79.92 -53.57,-79.61 -52,-79.79 -50.37,-80.37 -48.83,-81.09 -47.42,-81.72 -46.12,-82.18 -44.94,-82.53 -43.82,-82.84 -42.7,-83.12 -41.53,-83.35 -40.33,-83.5 -39.21,-83.69 -38.26,-84.08 -37.45,-84.75 -36.55,-85.43 -35.16,-85.54 -33.15,-84.62 -31.46,-83.81" fill="none" stroke="rgb(220, 208, 186)" stroke-width="2" stroke-linejoin="round" filter="url(#fuzzy)" /><polyline points="-59.3,-58.52 -60.74,-58.6 -62.07,-58.44 -63.26,-57.85 -64.31,-57.01 -65.2,-56.06 -65.97,-55.02 -66.66,-53.92 -67.37,-52.8 -68.26,-51.74 -69.46,-50.84 -71,-50.2 -72.81,-49.79 -74.67,-49.47 -76.28,-48.99 -77.48,-48.1 -78.35,-46.72 -79.29,-45.04 -80.72,-43.58 -82.11,-42.74" fill="none" stroke="rgb(220, 208, 186)" stroke-width="2" stroke-linejoin="round" filter="url(#fuzzy)" /><polyline points="-67.24,-46.19 -65.7,-48.64 -64.52,-49.83 -63.44,-50.52 -62.47,-51.23 -61.63,-52.08 -60.82,-52.98 -59.96,-53.85 -59.02,-54.64 -58.04,-55.37 -57.03,-56.09 -56.03,-56.85 -55.05,-57.67 -54.13,-58.57 -53.22,-59.51 -52.27,-60.39 -51.22,-61.05 -50.06,-61.45 -48.76,-61.8 -47.1,-62.95 -66.37,-89.13 -65,-85.35 -65.33,-83 -66.22,-81.56 -66.97,-80.03 -67.39,-78.07 -67.62,-75.84 -67.84,-73.63 -68.09,-71.54 -68.24,-69.47 -68.09,-67.25 -67.57,-64.77 -66.83,-62.15 -66.14,-59.64 -65.85,-57.52 -66.23,-56.04 -67.46,-55.36 -69.44,-55.35 -71.29,-55.2 -71.02,-52.8 -67.24,-46.19" fill="none" stroke="rgb(220, 208, 186)" stroke-width="2" stroke-linejoin="round" filter="url(#fuzzy)" /><polyline points="-51.69,-59.25 -52.9,-58.41 -53.9,-57.8 -55.05,-57.26 -56.29,-56.75 -57.46,-56.2 -58.51,-55.57 -59.42,-54.79 -60.22,-53.9 -60.94,-52.92 -61.62,-51.93 -62.29,-50.95 -62.96,-49.99 -63.65,-48.98 -64.35,-47.77 -65.11,-46.57 -66.52,-47.19" fill="none" stroke="rgb(220, 208, 186)" stroke-width="2" stroke-linejoin="round" filter="url(#fuzzy)" /><polyline points="-68.77,-41.9 -68.76,-43.48 -68.82,-44.72 -68.71,-45.91 -68.65,-47.34 -68.83,-49.14 -69.32,-51.29 -70.03,-53.65 -70.81,-56.07 -71.53,-58.46 -72.14,-60.82 -72.63,-63.14 -72.96,-65.38 -73.02,-67.42 -72.71,-69.16 -72.06,-70.62 -71.21,-71.98 -70.43,-73.51 -69.96,-75.47 -69.88,-77.99 -70.04,-80.96 -70.17,-83.91 -70.41,-85.84" fill="none" stroke="rgb(220, 208, 186)" stroke-width="2" stroke-linejoin="round" filter="url(#fuzzy)" /><polyline points="31.71,-69.46 33.18,-69.82 34.02,-69.6 35.07,-69.84 36.39,-70.31 37.73,-70.59 38.93,-70.52 40.08,-70.28 41.35,-70.16 42.81,-70.36 44.39,-70.81 45.88,-71.28 47.13,-71.52 48.1,-71.39 49.01,-70.77 50.27,-69.51" fill="none" stroke="rgb(220, 208, 186)" stroke-width="2" stroke-linejoin="round" filter="url(#fuzzy)" /><polyline points="46.17,-73.04 48.24,-73.35 50.69,-75.18 53.8,-77.38 56.67,-78.8 58.51,-78.72 59.32,-77.35 59.73,-75.5 60.5,-74.05 62.09,-73.54 64.53,-73.99 67.44,-75.01 70.3,-75.99 72.68,-76.43 74.41,-76.11 75.71,-75.17 77.01,-73.94 78.82,-72.83 81.23,-72.29 82.9,-72.5" fill="none" stroke="rgb(220, 208, 186)" stroke-width="2" stroke-linejoin="round" filter="url(#fuzzy)" />
    </g>
    
        <g id="pointNose">
          <g id="rightNose"><circle r="1.8719999999999999" cx="12.956" cy="13.069999999999999" stroke="black" fill="none" stroke-width="1.0" filter="url(#fuzzy)" /><circle r="1.06" cx="12.516" cy="11.498" stroke="black" fill="none" stroke-width="1.0" filter="url(#fuzzy)" /><circle r="2.776" cx="11.092" cy="10.306" stroke="black" fill="none" stroke-width="1.0" filter="url(#fuzzy)" /><circle r="1.222" cx="12.056000000000001" cy="10.946" stroke="black" fill="none" stroke-width="1.0" filter="url(#fuzzy)" /><circle r="1.416" cx="11.512" cy="10.434" stroke="black" fill="none" stroke-width="1.0" filter="url(#fuzzy)" /><circle r="2.5220000000000002" cx="11.98" cy="9.921999999999999" stroke="black" fill="none" stroke-width="1.0" filter="url(#fuzzy)" /><circle r="1.002" cx="10.252" cy="9.918" stroke="black" fill="none" stroke-width="1.0" filter="url(#fuzzy)" /><circle r="2.964" cx="13.384" cy="11.225999999999999" stroke="black" fill="none" stroke-width="1.0" filter="url(#fuzzy)" /><circle r="2.396" cx="10.200000000000001" cy="10.565999999999999" stroke="black" fill="none" stroke-width="1.0" filter="url(#fuzzy)" /><circle r="2.838" cx="13.328" cy="10.578" stroke="black" fill="none" stroke-width="1.0" filter="url(#fuzzy)" /></g>
          <g id="leftNose"><circle r="2.9699999999999998" cx="-12.52" cy="16.16" stroke="black" fill="none" stroke-width="1.0" filter="url(#fuzzy)" /><circle r="1.974" cx="-13.591999999999999" cy="16.272" stroke="black" fill="none" stroke-width="1.0" filter="url(#fuzzy)" /><circle r="2.158" cx="-13.644" cy="15.04" stroke="black" fill="none" stroke-width="1.0" filter="url(#fuzzy)" /><circle r="1.54" cx="-12.904" cy="16.131999999999998" stroke="black" fill="none" stroke-width="1.0" filter="url(#fuzzy)" /><circle r="1.272" cx="-12.604" cy="17.38" stroke="black" fill="none" stroke-width="1.0" filter="url(#fuzzy)" /><circle r="1.494" cx="-13.888" cy="15.747999999999998" stroke="black" fill="none" stroke-width="1.0" filter="url(#fuzzy)" /><circle r="1.052" cx="-14.511999999999999" cy="17.772" stroke="black" fill="none" stroke-width="1.0" filter="url(#fuzzy)" /><circle r="1.332" cx="-14.219999999999999" cy="14.855999999999998" stroke="black" fill="none" stroke-width="1.0" filter="url(#fuzzy)" /><circle r="2.534" cx="-11.927999999999999" cy="17.496" stroke="black" fill="none" stroke-width="1.0" filter="url(#fuzzy)" /><circle r="2.4" cx="-10.899999999999999" cy="14.111999999999998" stroke="black" fill="none" stroke-width="1.0" filter="url(#fuzzy)" /></g>
        </g>
      
    <g id="mouth">
      <polyline points="-47.14,66.83 -46.24,66.42 -45.34,66.01 -44.42,65.59 -43.49,65.17 -42.55,64.74 -41.61,64.31 -40.65,63.87 -39.69,63.42 -38.72,62.97 -37.74,62.52 -36.75,62.07 -35.75,61.61 -34.75,61.16 -33.74,60.7 -32.72,60.23 -31.7,59.77 -30.67,59.31 -29.64,58.85 -28.6,58.39 -27.55,57.93 -26.5,57.47 -25.45,57.01 -24.39,56.55 -23.33,56.1 -22.26,55.65 -21.2,55.21 -20.12,54.77 -19.05,54.33 -17.97,53.9 -16.9,53.48 -15.82,53.06 -14.74,52.64 -13.65,52.24 -12.57,51.84 -11.49,51.45 -10.4,51.06 -9.32,50.69 -8.24,50.32 -7.15,49.97 -6.07,49.62 -4.99,49.28 -3.91,48.96 -2.84,48.65 -1.76,48.34 -0.69,48.05 0.38,47.78 1.44,47.51 2.51,47.26 3.56,47.02 4.62,46.8 5.67,46.6 6.71,46.4 7.75,46.23 8.79,46.07 9.82,45.92 10.84,45.8 11.86,45.69 12.87,45.6 13.87,45.52 14.87,45.47 15.85,45.43 16.84,45.42 17.81,45.42 18.77,45.45 19.73,45.5 20.68,45.57 21.61,45.66 22.54,45.77 23.46,45.9 24.37,46.06 25.26,46.25 26.15,46.45 27.03,46.68 27.89,46.94 28.74,47.22 29.58,47.53 30.41,47.86 31.23,48.23 32.03,48.61 32.82,49.03 33.59,49.47 34.36,49.95 35.1,50.45 35.84,50.98 36.56,51.54 37.26,52.13 37.95,52.76 38.62,53.41 39.27,54.1 39.91,54.82 40.54,55.57 41.14,56.35 41.73,57.17 42.31,58.02 42.86,58.9 43.39,59.82 43.91,60.78 44.41,61.77 44.89,62.8 44.89,62.8 43.97,62.59 43.05,62.4 42.13,62.21 41.21,62.03 40.29,61.85 39.37,61.69 38.45,61.53 37.53,61.38 36.61,61.24 35.69,61.11 34.77,60.98 33.85,60.86 32.93,60.75 32.01,60.64 31.09,60.55 30.17,60.45 29.24,60.37 28.32,60.29 27.4,60.22 26.48,60.16 25.56,60.1 24.64,60.05 23.72,60 22.8,59.96 21.88,59.93 20.96,59.9 20.04,59.88 19.12,59.86 18.2,59.85 17.28,59.84 16.36,59.84 15.44,59.85 14.52,59.86 13.6,59.87 12.68,59.89 11.76,59.92 10.84,59.95 9.92,59.98 9,60.02 8.08,60.07 7.16,60.11 6.24,60.17 5.32,60.22 4.4,60.28 3.48,60.35 2.56,60.41 1.64,60.49 0.72,60.56 -0.2,60.64 -1.13,60.72 -2.05,60.81 -2.97,60.9 -3.89,60.99 -4.81,61.08 -5.73,61.18 -6.65,61.28 -7.57,61.38 -8.49,61.49 -9.41,61.6 -10.33,61.71 -11.25,61.82 -12.17,61.94 -13.09,62.05 -14.01,62.17 -14.93,62.29 -15.85,62.42 -16.77,62.54 -17.69,62.67 -18.61,62.79 -19.53,62.92 -20.45,63.05 -21.37,63.19 -22.29,63.32 -23.21,63.45 -24.13,63.58 -25.05,63.72 -25.97,63.86 -26.89,63.99 -27.81,64.13 -28.73,64.27 -29.65,64.4 -30.57,64.54 -31.49,64.68 -32.42,64.81 -33.34,64.95 -34.26,65.09 -35.18,65.22 -36.1,65.36 -37.02,65.5 -37.94,65.63 -38.86,65.76 -39.78,65.9 -40.7,66.03 -41.62,66.16 -42.54,66.29 -43.46,66.42 -44.38,66.55 -45.3,66.67 -46.22,66.8" fill="rgb(215,127,140)" stroke="black" stroke-width="3" stroke-linejoin="round" filter="url(#fuzzy)" />
    </g>
  </svg>
  