
  <svg viewBox="-100 -100 200 200" xmlns="http://www.w3.org/2000/svg" width="500" height="500" id="face-svg">
    <defs>
      <clipPath id="leftEyeClipPath">
        <polyline points="28.24,-3.07 28.02,-3.19 27.77,-3.3 27.49,-3.41 27.18,-3.52 26.84,-3.62 26.47,-3.72 26.07,-3.82 25.64,-3.91 25.18,-4.01 24.7,-4.09 24.19,-4.18 23.65,-4.27 23.09,-4.35 22.51,-4.43 21.91,-4.51 21.3,-4.58 20.66,-4.65 19.98,-4.72 19.26,-4.79 18.51,-4.86 17.73,-4.93 16.92,-5.01 16.08,-5.08 15.21,-5.15 14.32,-5.22 13.41,-5.29 12.47,-5.36 11.52,-5.43 10.56,-5.5 9.58,-5.57 8.59,-5.63 7.59,-5.69 6.59,-5.75 5.59,-5.81 4.58,-5.86 3.57,-5.91 2.57,-5.96 1.57,-6.01 0.58,-6.05 -0.4,-6.08 -1.37,-6.11 -2.32,-6.14 -3.27,-6.17 -4.19,-6.19 -5.1,-6.2 -5.99,-6.21 -6.87,-6.21 -7.72,-6.22 -8.55,-6.21 -9.35,-6.2 -10.14,-6.19 -10.89,-6.17 -11.63,-6.14 -12.34,-6.12 -13.03,-6.08 -13.69,-6.05 -14.33,-6 -14.94,-5.96 -15.53,-5.91 -16.09,-5.86 -16.63,-5.8 -17.15,-5.74 -17.65,-5.68 -18.13,-5.61 -18.59,-5.54 -19.03,-5.47 -19.45,-5.4 -19.85,-5.32 -20.23,-5.25 -20.6,-5.16 -20.95,-5.08 -21.28,-4.99 -21.59,-4.9 -21.89,-4.81 -22.17,-4.72 -22.44,-4.62 -22.69,-4.52 -22.92,-4.42 -23.14,-4.32 -21.39,-1.03 -21.12,-0.8 -20.83,-0.57 -20.54,-0.33 -20.23,-0.1 -19.91,0.14 -19.57,0.37 -19.22,0.61 -18.86,0.85 -18.48,1.08 -18.09,1.32 -17.68,1.55 -17.26,1.78 -16.82,2.01 -16.37,2.24 -15.91,2.46 -15.42,2.69 -14.92,2.91 -14.41,3.13 -13.87,3.35 -13.32,3.56 -12.75,3.78 -12.16,3.98 -11.55,4.18 -10.93,4.38 -10.28,4.56 -9.62,4.74 -8.94,4.91 -8.25,5.07 -7.54,5.22 -6.81,5.37 -6.06,5.5 -5.3,5.61 -4.52,5.72 -3.73,5.81 -2.93,5.9 -2.11,5.96 -1.29,6.02 -0.45,6.06 0.4,6.08 1.25,6.09 2.11,6.09 2.98,6.07 3.86,6.04 4.73,5.99 5.61,5.92 6.49,5.84 7.37,5.75 8.25,5.64 9.12,5.52 9.99,5.38 10.85,5.23 11.71,5.06 12.55,4.88 13.39,4.69 14.21,4.49 15.02,4.28 15.82,4.05 16.6,3.82 17.36,3.57 18.1,3.32 18.82,3.06 19.52,2.8 20.2,2.53 20.85,2.25 21.45,2.04 22.04,1.83 22.61,1.62 23.16,1.4 23.69,1.18 24.21,0.96 24.7,0.74 25.18,0.52 25.63,0.31 26.06,0.09 26.47,-0.12 26.85,-0.33 27.21,-0.54 27.55,-0.74 27.85,-0.94" />
      </clipPath>
      <clipPath id="rightEyeClipPath">
        <polyline points="-30.14,-2.97 -29.82,-3.05 -29.47,-3.13 -29.09,-3.2 -28.69,-3.28 -28.25,-3.35 -27.79,-3.42 -27.3,-3.49 -26.79,-3.55 -26.25,-3.62 -25.68,-3.69 -25.09,-3.75 -24.48,-3.82 -23.85,-3.88 -23.19,-3.94 -22.52,-4.01 -21.83,-4.06 -21.1,-4.12 -20.34,-4.18 -19.55,-4.24 -18.73,-4.3 -17.88,-4.36 -17,-4.42 -16.1,-4.49 -15.18,-4.55 -14.23,-4.62 -13.27,-4.68 -12.3,-4.74 -11.31,-4.81 -10.3,-4.87 -9.29,-4.93 -8.28,-5 -7.26,-5.05 -6.24,-5.11 -5.22,-5.17 -4.2,-5.22 -3.18,-5.27 -2.18,-5.32 -1.18,-5.37 -0.19,-5.41 0.78,-5.45 1.74,-5.48 2.69,-5.51 3.62,-5.54 4.53,-5.56 5.42,-5.58 6.28,-5.6 7.13,-5.61 7.96,-5.62 8.76,-5.62 9.53,-5.62 10.29,-5.62 11.01,-5.61 11.72,-5.6 12.39,-5.58 13.04,-5.56 13.67,-5.54 14.27,-5.51 14.85,-5.48 15.4,-5.45 15.93,-5.42 16.44,-5.38 16.93,-5.34 17.39,-5.3 17.84,-5.25 18.26,-5.21 18.67,-5.16 19.06,-5.11 19.44,-5.06 19.79,-5.01 20.13,-4.96 20.45,-4.9 20.76,-4.84 21.05,-4.78 21.32,-4.72 21.58,-4.66 21.83,-4.6 22.06,-4.54 22.28,-4.47 22.49,-4.41 19.78,-1.72 19.52,-1.51 19.24,-1.3 18.96,-1.09 18.66,-0.88 18.35,-0.67 18.02,-0.45 17.69,-0.24 17.34,-0.03 16.98,0.19 16.6,0.4 16.21,0.62 15.81,0.83 15.4,1.04 14.97,1.25 14.53,1.46 14.08,1.67 13.61,1.89 13.12,2.1 12.62,2.31 12.1,2.51 11.56,2.72 11.01,2.92 10.44,3.12 9.86,3.32 9.26,3.51 8.64,3.7 8,3.88 7.35,4.06 6.69,4.23 6,4.39 5.3,4.55 4.59,4.69 3.86,4.83 3.12,4.96 2.36,5.08 1.59,5.19 0.81,5.29 0.02,5.37 -0.78,5.45 -1.6,5.51 -2.42,5.56 -3.25,5.59 -4.09,5.61 -4.93,5.62 -5.78,5.62 -6.64,5.6 -7.5,5.56 -8.36,5.51 -9.22,5.45 -10.08,5.37 -10.94,5.27 -11.8,5.16 -12.65,5.04 -13.5,4.9 -14.34,4.74 -15.17,4.57 -16,4.39 -16.81,4.2 -17.61,3.99 -18.41,3.77 -19.18,3.53 -19.94,3.29 -20.69,3.04 -21.42,2.78 -22.06,2.6 -22.69,2.41 -23.31,2.22 -23.92,2.02 -24.51,1.83 -25.09,1.63 -25.65,1.42 -26.19,1.22 -26.71,1.01 -27.22,0.81 -27.7,0.6 -28.16,0.4 -28.6,0.2 -29.01,0 -29.4,-0.19" />
      </clipPath>
      <filter id="fuzzy">
        <feTurbulence id="turbulence" baseFrequency="0.05" numOctaves="3" type="noise" result="noise" />
        <feDisplacementMap in="SourceGraphic" in2="noise" scale="2" />
      </filter>
      <linearGradient id="rainbowGradient" x1="0%" y1="0%" x2="100%" y2="0%">
        <stop offset="0%" style="stop-color: rgb(220, 208, 186); stop-opacity: 1" />
        <stop offset="50%" style="stop-color: rgb(135, 206, 235); stop-opacity: 1" />
        <stop offset="100%" style="stop-color: rgb(145, 85, 61); stop-opacity: 1" />
      </linearGradient>
    </defs>
    <rect x="-100" y="-100" width="100%" height="100%" fill="rgb(0, 0, 139)" />
    <polyline id="faceContour" points="64.39,-1.02 64.46,1.37 64.51,3.19 64.22,4.38 64.36,5.41 64.33,5.05 64.46,5.71 63.84,10.35 64.02,10.84 63.67,11.14 63.54,15.06 63.6,13.68 63.32,15.17 62.82,18.82 63.16,16.88 62.24,21.15 62.56,20.38 62.29,21.73 62.01,22.08 61.38,25.26 60.89,26.96 60.68,27.35 60.2,28.76 59.95,30.67 59.72,30.64 59.27,32.48 58.49,34.17 58.44,35.04 58.74,34.14 57.46,37.08 56.91,38.52 57.48,37.58 55.76,41.15 55.19,42.09 54.76,43.57 54.15,44.6 53.67,45.66 53.86,45.29 53.07,46.82 53.39,45.89 52.25,48.29 50.88,50.3 50.36,51.03 50.3,51.42 49.38,52.79 48.77,54.11 48.7,54.01 47.93,54.74 47.19,55.78 46.51,57.07 45.88,57.99 45.04,58.97 42.99,61.16 43.77,60.43 42.23,62.33 41.93,62.73 40.84,63.62 39.16,65.33 40.06,64.76 38.9,65.86 37.17,67.18 36.53,67.77 36.05,67.96 34.08,69.89 34.89,69.15 32.52,71.01 34.26,69.77 32.66,70.91 31.37,72.01 30.28,72.66 28.88,73.46 27.9,74.01 27.88,74.19 26.04,75.38 25.35,75.77 24.73,76 22.76,77.06 23.33,76.68 23.45,76.68 22.01,77.41 20.71,77.83 18.9,78.78 19.4,78.32 17.22,79.21 16.39,79.69 15.46,79.93 14.46,80.36 13.89,80.25 12.02,80.99 11.36,81.17 11.49,81.01 8.36,81.7 7.88,81.79 7.23,81.67 7,81.79 5.57,82.16 2.2,82.18 3.24,82.24 2.61,82.15 0.05,82.43 -0.56,82.24 -0.75,82.36 -2.31,82.36 -3.14,82.18 -5.05,81.92 -5.84,82.14 -5.79,82.15 -5.99,81.82 -6.84,81.72 -7.81,81.56 -10.26,81.33 -10.34,81.14 -11.52,81.09 -12.51,80.7 -14.2,80.41 -14.89,80.04 -15.14,79.79 -18.19,79.12 -17.78,79.01 -19.46,78.56 -19.38,78.49 -20.56,78.1 -21.96,77.43 -23.14,76.68 -23.46,76.66 -25.02,75.74 -25.85,75.17 -26.8,75.01 -28.39,74.06 -28.78,73.61 -28.63,73.71 -29.89,73.01 -31.26,71.99 -32,71.52 -33.71,70.35 -33.37,70.55 -35.15,69 -35.13,68.99 -36.65,67.89 -36.59,67.93 -38.32,66.21 -38.76,66.04 -39.03,65.31 -41.04,63.51 -41.31,63.01 -41.63,62.75 -41.43,62.95 -44.05,60.1 -44.46,59.51 -44.6,59.58 -45.79,57.89 -47.12,56.36 -46.27,57.02 -46.96,56.27 -47.99,54.99 -49,53.48 -49.91,51.97 -50.01,52.15 -51.41,49.48 -50.84,50.57 -52.48,47.59 -52.55,47.42 -52.86,46.83 -54.6,43.83 -55.29,42.14 -54.97,42.74 -55.07,42.85 -56.52,39.91 -56.17,40.52 -56.45,39.51 -57.14,37.87 -58.01,35.94 -57.88,36.11 -58.75,33.54 -59.21,32.82 -59.38,31.59 -59.95,29.75 -60.48,28.31 -60.85,27.25 -61.11,26.33 -61.08,25.83 -61.37,25.03 -62.04,23.2 -62.48,20.34 -62.72,19.63 -62.94,18.65 -62.64,19.38 -63.4,15.98 -63.31,14.52 -63.48,13.94 -63.63,13.92 -63.93,10.58 -63.92,8.79 -63.91,10.98 -63.99,9.41 -64.24,7.88 -64.48,5.78 -64.55,3.51 -64.61,2.7 -64.5,1.77 -64.36,-2.02 -64.44,-1.06 -64.37,-3.91 -64.48,-2.23 -64.52,-4.39 -64.11,-6.93 -64.26,-8.28 -64.06,-8.45 -63.97,-10.34 -63.93,-9.7 -63.36,-14.6 -63.32,-15.39 -63.62,-15 -63.46,-15.08 -62.7,-19.21 -62.86,-19.03 -62.69,-18.54 -62.11,-22.33 -62.18,-22.43 -61.58,-24.02 -61.56,-24.84 -61.22,-26.53 -60.65,-28.29 -59.93,-30.58 -60.48,-28.91 -59.73,-31.5 -59.8,-31.43 -58.15,-35.12 -58.26,-35.15 -57.41,-37.31 -57.47,-37.32 -57.1,-38.35 -56.6,-39.8 -55.75,-41.13 -54.74,-44 -54.88,-43.63 -54.97,-43.4 -53.31,-46.23 -52.48,-47.72 -52.49,-47.62 -52.09,-48.55 -51.73,-49.6 -51.38,-49.64 -50.59,-51.13 -50.01,-52.01 -48.15,-55 -48.05,-54.86 -48.37,-54.8 -48.14,-55.16 -45.22,-58.94 -46.21,-57.74 -44.97,-59.19 -44.45,-59.7 -43.97,-60.37 -42.44,-62.09 -42.15,-62.39 -41.08,-63.51 -40.01,-64.45 -39.21,-65.72 -39.24,-65.61 -38.97,-65.66 -36.73,-67.86 -35.99,-68.49 -36.23,-68.38 -34.09,-70.24 -34.06,-69.84 -32.8,-70.79 -32.7,-71.25 -31.05,-72.15 -29.66,-73.14 -30.12,-73.21 -28.14,-74.2 -27.8,-74.54 -26.95,-74.87 -25.98,-75.48 -25.02,-75.9 -23.16,-76.81 -22.94,-77.05 -22.5,-77.44 -20.19,-78.15 -19.88,-78.35 -18.08,-79.12 -16.97,-79.69 -18.33,-79.11 -16.06,-79.98 -14.46,-80.36 -14.11,-80.36 -12.64,-81.04 -11.95,-81.07 -11.12,-81.11 -11.19,-81.11 -9.23,-81.68 -9.01,-81.64 -5.57,-82 -5.95,-82.24 -4.74,-82.2 -3.43,-82.42 -3.07,-82.49 -2.07,-82.34 -1.33,-82.31 0.74,-82.62 1.48,-82.31 2.9,-82.34 2.5,-82.25 3.82,-82.47 5.36,-82.23 5.75,-82.12 7.14,-81.8 8.36,-81.91 10.05,-81.59 9.62,-81.41 11.3,-81.35 12.85,-80.9 12.96,-80.83 14.67,-80.16 15.7,-80.13 15.42,-79.87 16.81,-79.74 18.67,-79.1 17.57,-79.23 21.91,-77.67 20.08,-78.32 22.94,-76.93 23.1,-76.87 22.68,-77.15 24.02,-76.32 25.77,-75.54 26.14,-75.53 27.49,-74.58 28.15,-74.11 28.76,-73.98 30.54,-72.57 30.68,-72.46 30.78,-72.49 32.72,-71.21 33.12,-70.69 33.4,-70.64 35.98,-68.56 37.54,-67.16 38.24,-66.39 37.63,-66.66 38.4,-66.43 39.87,-64.83 40.66,-64.13 40.44,-64.07 42.24,-62.59 43.23,-61.27 43.07,-61.27 44.14,-60.19 45.6,-58.29 46.59,-57.04 45.26,-58.83 47.14,-56.47 48.27,-54.49 49.31,-53.18 49.26,-53.47 48.66,-54.02 50.1,-52.04 51.39,-50.09 52.21,-48.68 52.51,-47.91 53.18,-47.02 52.88,-47.36 53.9,-45.18 54.09,-44.55 55.38,-41.98 55.8,-41.28 56.07,-40.7 56.53,-39.86 56.95,-39.18 57.4,-37.75 58.01,-35.57 58.18,-35.78 58.63,-34.66 58.77,-33.9 60.08,-30.49 59.99,-29.69 60.27,-29.48 61.11,-26.86 61.27,-26.04 61.08,-25.63 61.7,-24.73 62.2,-21.59 61.79,-23.59 62.75,-19.77 62.3,-20.4 62.91,-17.17 63.07,-15.91 63.15,-16.44 63.3,-16.48 63.91,-11.55 63.87,-11.99 63.9,-10.1 64.14,-9.69 63.81,-10.39 64.46,-5.07 64.32,-5.11 64.57,-2.41 64.27,-4.35 64.5,-2.31 64.39,-1.02 64.46,1.37" fill="rgb(255, 20, 147)" stroke="black" stroke-width="1.6666666666666665" stroke-linejoin="round" filter="url(#fuzzy)" />
    <g transform="translate(33.96 -24.52)">
      <polyline id="rightCountour" points="-30.14,-2.97 -29.82,-3.05 -29.47,-3.13 -29.09,-3.2 -28.69,-3.28 -28.25,-3.35 -27.79,-3.42 -27.3,-3.49 -26.79,-3.55 -26.25,-3.62 -25.68,-3.69 -25.09,-3.75 -24.48,-3.82 -23.85,-3.88 -23.19,-3.94 -22.52,-4.01 -21.83,-4.06 -21.1,-4.12 -20.34,-4.18 -19.55,-4.24 -18.73,-4.3 -17.88,-4.36 -17,-4.42 -16.1,-4.49 -15.18,-4.55 -14.23,-4.62 -13.27,-4.68 -12.3,-4.74 -11.31,-4.81 -10.3,-4.87 -9.29,-4.93 -8.28,-5 -7.26,-5.05 -6.24,-5.11 -5.22,-5.17 -4.2,-5.22 -3.18,-5.27 -2.18,-5.32 -1.18,-5.37 -0.19,-5.41 0.78,-5.45 1.74,-5.48 2.69,-5.51 3.62,-5.54 4.53,-5.56 5.42,-5.58 6.28,-5.6 7.13,-5.61 7.96,-5.62 8.76,-5.62 9.53,-5.62 10.29,-5.62 11.01,-5.61 11.72,-5.6 12.39,-5.58 13.04,-5.56 13.67,-5.54 14.27,-5.51 14.85,-5.48 15.4,-5.45 15.93,-5.42 16.44,-5.38 16.93,-5.34 17.39,-5.3 17.84,-5.25 18.26,-5.21 18.67,-5.16 19.06,-5.11 19.44,-5.06 19.79,-5.01 20.13,-4.96 20.45,-4.9 20.76,-4.84 21.05,-4.78 21.32,-4.72 21.58,-4.66 21.83,-4.6 22.06,-4.54 22.28,-4.47 22.49,-4.41 19.78,-1.72 19.52,-1.51 19.24,-1.3 18.96,-1.09 18.66,-0.88 18.35,-0.67 18.02,-0.45 17.69,-0.24 17.34,-0.03 16.98,0.19 16.6,0.4 16.21,0.62 15.81,0.83 15.4,1.04 14.97,1.25 14.53,1.46 14.08,1.67 13.61,1.89 13.12,2.1 12.62,2.31 12.1,2.51 11.56,2.72 11.01,2.92 10.44,3.12 9.86,3.32 9.26,3.51 8.64,3.7 8,3.88 7.35,4.06 6.69,4.23 6,4.39 5.3,4.55 4.59,4.69 3.86,4.83 3.12,4.96 2.36,5.08 1.59,5.19 0.81,5.29 0.02,5.37 -0.78,5.45 -1.6,5.51 -2.42,5.56 -3.25,5.59 -4.09,5.61 -4.93,5.62 -5.78,5.62 -6.64,5.6 -7.5,5.56 -8.36,5.51 -9.22,5.45 -10.08,5.37 -10.94,5.27 -11.8,5.16 -12.65,5.04 -13.5,4.9 -14.34,4.74 -15.17,4.57 -16,4.39 -16.81,4.2 -17.61,3.99 -18.41,3.77 -19.18,3.53 -19.94,3.29 -20.69,3.04 -21.42,2.78 -22.06,2.6 -22.69,2.41 -23.31,2.22 -23.92,2.02 -24.51,1.83 -25.09,1.63 -25.65,1.42 -26.19,1.22 -26.71,1.01 -27.22,0.81 -27.7,0.6 -28.16,0.4 -28.6,0.2 -29.01,0 -29.4,-0.19" fill="white" stroke="white" stroke-width="0" stroke-linejoin="round" filter="url(#fuzzy)" />
    </g>
    <g transform="translate(-35.52 -20.21)">
      <polyline id="leftCountour" points="28.24,-3.07 28.02,-3.19 27.77,-3.3 27.49,-3.41 27.18,-3.52 26.84,-3.62 26.47,-3.72 26.07,-3.82 25.64,-3.91 25.18,-4.01 24.7,-4.09 24.19,-4.18 23.65,-4.27 23.09,-4.35 22.51,-4.43 21.91,-4.51 21.3,-4.58 20.66,-4.65 19.98,-4.72 19.26,-4.79 18.51,-4.86 17.73,-4.93 16.92,-5.01 16.08,-5.08 15.21,-5.15 14.32,-5.22 13.41,-5.29 12.47,-5.36 11.52,-5.43 10.56,-5.5 9.58,-5.57 8.59,-5.63 7.59,-5.69 6.59,-5.75 5.59,-5.81 4.58,-5.86 3.57,-5.91 2.57,-5.96 1.57,-6.01 0.58,-6.05 -0.4,-6.08 -1.37,-6.11 -2.32,-6.14 -3.27,-6.17 -4.19,-6.19 -5.1,-6.2 -5.99,-6.21 -6.87,-6.21 -7.72,-6.22 -8.55,-6.21 -9.35,-6.2 -10.14,-6.19 -10.89,-6.17 -11.63,-6.14 -12.34,-6.12 -13.03,-6.08 -13.69,-6.05 -14.33,-6 -14.94,-5.96 -15.53,-5.91 -16.09,-5.86 -16.63,-5.8 -17.15,-5.74 -17.65,-5.68 -18.13,-5.61 -18.59,-5.54 -19.03,-5.47 -19.45,-5.4 -19.85,-5.32 -20.23,-5.25 -20.6,-5.16 -20.95,-5.08 -21.28,-4.99 -21.59,-4.9 -21.89,-4.81 -22.17,-4.72 -22.44,-4.62 -22.69,-4.52 -22.92,-4.42 -23.14,-4.32 -21.39,-1.03 -21.12,-0.8 -20.83,-0.57 -20.54,-0.33 -20.23,-0.1 -19.91,0.14 -19.57,0.37 -19.22,0.61 -18.86,0.85 -18.48,1.08 -18.09,1.32 -17.68,1.55 -17.26,1.78 -16.82,2.01 -16.37,2.24 -15.91,2.46 -15.42,2.69 -14.92,2.91 -14.41,3.13 -13.87,3.35 -13.32,3.56 -12.75,3.78 -12.16,3.98 -11.55,4.18 -10.93,4.38 -10.28,4.56 -9.62,4.74 -8.94,4.91 -8.25,5.07 -7.54,5.22 -6.81,5.37 -6.06,5.5 -5.3,5.61 -4.52,5.72 -3.73,5.81 -2.93,5.9 -2.11,5.96 -1.29,6.02 -0.45,6.06 0.4,6.08 1.25,6.09 2.11,6.09 2.98,6.07 3.86,6.04 4.73,5.99 5.61,5.92 6.49,5.84 7.37,5.75 8.25,5.64 9.12,5.52 9.99,5.38 10.85,5.23 11.71,5.06 12.55,4.88 13.39,4.69 14.21,4.49 15.02,4.28 15.82,4.05 16.6,3.82 17.36,3.57 18.1,3.32 18.82,3.06 19.52,2.8 20.2,2.53 20.85,2.25 21.45,2.04 22.04,1.83 22.61,1.62 23.16,1.4 23.69,1.18 24.21,0.96 24.7,0.74 25.18,0.52 25.63,0.31 26.06,0.09 26.47,-0.12 26.85,-0.33 27.21,-0.54 27.55,-0.74 27.85,-0.94" fill="white" stroke="white" stroke-width="0" stroke-linejoin="round" filter="url(#fuzzy)" />
    </g>
    <g transform="translate(33.96 -24.52)">
      <polyline id="rightUpper" points="-31.6,-2.02 -31.6,-2.13 -31.57,-2.24 -31.5,-2.34 -31.4,-2.44 -31.27,-2.54 -31.11,-2.63 -30.91,-2.72 -30.69,-2.81 -30.43,-2.89 -30.14,-2.97 -29.82,-3.05 -29.47,-3.13 -29.09,-3.2 -28.69,-3.28 -28.25,-3.35 -27.79,-3.42 -27.3,-3.49 -26.79,-3.55 -26.25,-3.62 -25.68,-3.69 -25.09,-3.75 -24.48,-3.82 -23.85,-3.88 -23.19,-3.94 -22.52,-4.01 -21.83,-4.06 -21.1,-4.12 -20.34,-4.18 -19.55,-4.24 -18.73,-4.3 -17.88,-4.36 -17,-4.42 -16.1,-4.49 -15.18,-4.55 -14.23,-4.62 -13.27,-4.68 -12.3,-4.74 -11.31,-4.81 -10.3,-4.87 -9.29,-4.93 -8.28,-5 -7.26,-5.05 -6.24,-5.11 -5.22,-5.17 -4.2,-5.22 -3.18,-5.27 -2.18,-5.32 -1.18,-5.37 -0.19,-5.41 0.78,-5.45 1.74,-5.48 2.69,-5.51 3.62,-5.54 4.53,-5.56 5.42,-5.58 6.28,-5.6 7.13,-5.61 7.96,-5.62 8.76,-5.62 9.53,-5.62 10.29,-5.62 11.01,-5.61 11.72,-5.6 12.39,-5.58 13.04,-5.56 13.67,-5.54 14.27,-5.51 14.85,-5.48 15.4,-5.45 15.93,-5.42 16.44,-5.38 16.93,-5.34 17.39,-5.3 17.84,-5.25 18.26,-5.21 18.67,-5.16 19.06,-5.11 19.44,-5.06 19.79,-5.01 20.13,-4.96 20.45,-4.9 20.76,-4.84 21.05,-4.78 21.32,-4.72 21.58,-4.66 21.83,-4.6 22.06,-4.54 22.28,-4.47 22.49,-4.41 22.69,-4.34 22.87,-4.28 23.04,-4.21 23.2,-4.14 23.35,-4.08 23.49,-4.01 23.62,-3.94 23.75,-3.87 23.86,-3.81 23.96,-3.74" fill="none" stroke="black" stroke-width="1.6666666666666665" stroke-linejoin="round" filter="url(#fuzzy)" />
      <polyline id="rightLower" points="-31.7,-1.67 -31.62,-1.58 -31.5,-1.47 -31.35,-1.35 -31.17,-1.21 -30.95,-1.06 -30.7,-0.9 -30.42,-0.74 -30.11,-0.56 -29.77,-0.38 -29.4,-0.19 -29.01,0 -28.6,0.2 -28.16,0.4 -27.7,0.6 -27.22,0.81 -26.71,1.01 -26.19,1.22 -25.65,1.42 -25.09,1.63 -24.51,1.83 -23.92,2.02 -23.31,2.22 -22.69,2.41 -22.06,2.6 -21.42,2.78 -20.69,3.04 -19.94,3.29 -19.18,3.53 -18.41,3.77 -17.61,3.99 -16.81,4.2 -16,4.39 -15.17,4.57 -14.34,4.74 -13.5,4.9 -12.65,5.04 -11.8,5.16 -10.94,5.27 -10.08,5.37 -9.22,5.45 -8.36,5.51 -7.5,5.56 -6.64,5.6 -5.78,5.62 -4.93,5.62 -4.09,5.61 -3.25,5.59 -2.42,5.56 -1.6,5.51 -0.78,5.45 0.02,5.37 0.81,5.29 1.59,5.19 2.36,5.08 3.12,4.96 3.86,4.83 4.59,4.69 5.3,4.55 6,4.39 6.69,4.23 7.35,4.06 8,3.88 8.64,3.7 9.26,3.51 9.86,3.32 10.44,3.12 11.01,2.92 11.56,2.72 12.1,2.51 12.62,2.31 13.12,2.1 13.61,1.89 14.08,1.67 14.53,1.46 14.97,1.25 15.4,1.04 15.81,0.83 16.21,0.62 16.6,0.4 16.98,0.19 17.34,-0.03 17.69,-0.24 18.02,-0.45 18.35,-0.67 18.66,-0.88 18.96,-1.09 19.24,-1.3 19.52,-1.51 19.78,-1.72 20.04,-1.93 20.28,-2.13 20.51,-2.34 20.73,-2.54 20.94,-2.74 21.14,-2.94 21.33,-3.14 21.51,-3.34 21.68,-3.53 21.84,-3.73" fill="none" stroke="black" stroke-width="2.2222222222222223" stroke-linejoin="round" filter="url(#fuzzy)" />
      <circle r="4.054" cx="-12.8370933030185" cy="-2.4982233923365085" stroke="black" fill="none" stroke-width="1.0" filter="url(#fuzzy)" clip-path="url(#rightEyeClipPath)" /><circle r="3.874" cx="-14.3520933030185" cy="-0.8982233923365086" stroke="black" fill="none" stroke-width="1.0" filter="url(#fuzzy)" clip-path="url(#rightEyeClipPath)" /><circle r="3.798" cx="-10.9620933030185" cy="0.9717766076634913" stroke="black" fill="none" stroke-width="1.0" filter="url(#fuzzy)" clip-path="url(#rightEyeClipPath)" /><circle r="3.278" cx="-10.6220933030185" cy="0.42677660766349135" stroke="black" fill="none" stroke-width="1.0" filter="url(#fuzzy)" clip-path="url(#rightEyeClipPath)" /><circle r="4.334" cx="-11.1870933030185" cy="-2.4582233923365084" stroke="black" fill="none" stroke-width="1.0" filter="url(#fuzzy)" clip-path="url(#rightEyeClipPath)" /><circle r="4.524" cx="-10.3920933030185" cy="-2.1232233923365085" stroke="black" fill="none" stroke-width="1.0" filter="url(#fuzzy)" clip-path="url(#rightEyeClipPath)" /><circle r="3.286" cx="-11.032093303018499" cy="0.2417766076634913" stroke="black" fill="none" stroke-width="1.0" filter="url(#fuzzy)" clip-path="url(#rightEyeClipPath)" /><circle r="3.2800000000000002" cx="-11.3270933030185" cy="1.4717766076634908" stroke="black" fill="none" stroke-width="1.0" filter="url(#fuzzy)" clip-path="url(#rightEyeClipPath)" /><circle r="4.764" cx="-12.2520933030185" cy="-1.8632233923365087" stroke="black" fill="none" stroke-width="1.0" filter="url(#fuzzy)" clip-path="url(#rightEyeClipPath)" /><circle r="3.142" cx="-10.3770933030185" cy="1.5467766076634906" stroke="black" fill="none" stroke-width="1.0" filter="url(#fuzzy)" clip-path="url(#rightEyeClipPath)" />
      </g>
    <g transform="translate(-35.52 -20.21)">
      <polyline id="leftUpper" points="28.61,-1.55 28.72,-1.74 28.8,-1.91 28.85,-2.08 28.86,-2.24 28.84,-2.4 28.79,-2.54 28.7,-2.68 28.58,-2.82 28.43,-2.95 28.24,-3.07 28.02,-3.19 27.77,-3.3 27.49,-3.41 27.18,-3.52 26.84,-3.62 26.47,-3.72 26.07,-3.82 25.64,-3.91 25.18,-4.01 24.7,-4.09 24.19,-4.18 23.65,-4.27 23.09,-4.35 22.51,-4.43 21.91,-4.51 21.3,-4.58 20.66,-4.65 19.98,-4.72 19.26,-4.79 18.51,-4.86 17.73,-4.93 16.92,-5.01 16.08,-5.08 15.21,-5.15 14.32,-5.22 13.41,-5.29 12.47,-5.36 11.52,-5.43 10.56,-5.5 9.58,-5.57 8.59,-5.63 7.59,-5.69 6.59,-5.75 5.59,-5.81 4.58,-5.86 3.57,-5.91 2.57,-5.96 1.57,-6.01 0.58,-6.05 -0.4,-6.08 -1.37,-6.11 -2.32,-6.14 -3.27,-6.17 -4.19,-6.19 -5.1,-6.2 -5.99,-6.21 -6.87,-6.21 -7.72,-6.22 -8.55,-6.21 -9.35,-6.2 -10.14,-6.19 -10.89,-6.17 -11.63,-6.14 -12.34,-6.12 -13.03,-6.08 -13.69,-6.05 -14.33,-6 -14.94,-5.96 -15.53,-5.91 -16.09,-5.86 -16.63,-5.8 -17.15,-5.74 -17.65,-5.68 -18.13,-5.61 -18.59,-5.54 -19.03,-5.47 -19.45,-5.4 -19.85,-5.32 -20.23,-5.25 -20.6,-5.16 -20.95,-5.08 -21.28,-4.99 -21.59,-4.9 -21.89,-4.81 -22.17,-4.72 -22.44,-4.62 -22.69,-4.52 -22.92,-4.42 -23.14,-4.32 -23.35,-4.22 -23.55,-4.11 -23.73,-4 -23.9,-3.9 -24.06,-3.79 -24.2,-3.68 -24.34,-3.57 -24.46,-3.45 -24.57,-3.34 -24.68,-3.22" fill="none" stroke="black" stroke-width="2.2222222222222223" stroke-linejoin="round" filter="url(#fuzzy)" />
      <polyline id="leftLower" points="29.29,-2.41 29.29,-2.32 29.26,-2.21 29.19,-2.09 29.1,-1.95 28.96,-1.8 28.8,-1.65 28.61,-1.48 28.39,-1.31 28.13,-1.12 27.85,-0.94 27.55,-0.74 27.21,-0.54 26.85,-0.33 26.47,-0.12 26.06,0.09 25.63,0.31 25.18,0.52 24.7,0.74 24.21,0.96 23.69,1.18 23.16,1.4 22.61,1.62 22.04,1.83 21.45,2.04 20.85,2.25 20.2,2.53 19.52,2.8 18.82,3.06 18.1,3.32 17.36,3.57 16.6,3.82 15.82,4.05 15.02,4.28 14.21,4.49 13.39,4.69 12.55,4.88 11.71,5.06 10.85,5.23 9.99,5.38 9.12,5.52 8.25,5.64 7.37,5.75 6.49,5.84 5.61,5.92 4.73,5.99 3.86,6.04 2.98,6.07 2.11,6.09 1.25,6.09 0.4,6.08 -0.45,6.06 -1.29,6.02 -2.11,5.96 -2.93,5.9 -3.73,5.81 -4.52,5.72 -5.3,5.61 -6.06,5.5 -6.81,5.37 -7.54,5.22 -8.25,5.07 -8.94,4.91 -9.62,4.74 -10.28,4.56 -10.93,4.38 -11.55,4.18 -12.16,3.98 -12.75,3.78 -13.32,3.56 -13.87,3.35 -14.41,3.13 -14.92,2.91 -15.42,2.69 -15.91,2.46 -16.37,2.24 -16.82,2.01 -17.26,1.78 -17.68,1.55 -18.09,1.32 -18.48,1.08 -18.86,0.85 -19.22,0.61 -19.57,0.37 -19.91,0.14 -20.23,-0.1 -20.54,-0.33 -20.83,-0.57 -21.12,-0.8 -21.39,-1.03 -21.64,-1.26 -21.88,-1.49 -22.12,-1.72 -22.34,-1.95 -22.54,-2.17 -22.74,-2.39 -22.93,-2.61 -23.1,-2.83 -23.26,-3.05 -23.42,-3.26" fill="none" stroke="black" stroke-width="2.2222222222222223" stroke-linejoin="round" filter="url(#fuzzy)" />
      <circle r="4.016" cx="22.32657046648977" cy="1.1082577898592234" stroke="black" fill="none" stroke-width="1.0" filter="url(#fuzzy)" clip-path="url(#leftEyeClipPath)" /><circle r="3.762" cx="24.65657046648977" cy="0.5932577898592237" stroke="black" fill="none" stroke-width="1.0" filter="url(#fuzzy)" clip-path="url(#leftEyeClipPath)" /><circle r="3.308" cx="20.42657046648977" cy="0.2432577898592232" stroke="black" fill="none" stroke-width="1.0" filter="url(#fuzzy)" clip-path="url(#leftEyeClipPath)" /><circle r="3.39" cx="21.976570466489772" cy="-1.1267422101407765" stroke="black" fill="none" stroke-width="1.0" filter="url(#fuzzy)" clip-path="url(#leftEyeClipPath)" /><circle r="4.89" cx="23.05657046648977" cy="-0.4467422101407763" stroke="black" fill="none" stroke-width="1.0" filter="url(#fuzzy)" clip-path="url(#leftEyeClipPath)" /><circle r="3.972" cx="21.421570466489772" cy="-0.4367422101407765" stroke="black" fill="none" stroke-width="1.0" filter="url(#fuzzy)" clip-path="url(#leftEyeClipPath)" /><circle r="4.372" cx="22.956570466489772" cy="-1.8217422101407765" stroke="black" fill="none" stroke-width="1.0" filter="url(#fuzzy)" clip-path="url(#leftEyeClipPath)" /><circle r="3.292" cx="21.56657046648977" cy="2.788257789859223" stroke="black" fill="none" stroke-width="1.0" filter="url(#fuzzy)" clip-path="url(#leftEyeClipPath)" /><circle r="4.928" cx="21.09157046648977" cy="1.463257789859223" stroke="black" fill="none" stroke-width="1.0" filter="url(#fuzzy)" clip-path="url(#leftEyeClipPath)" /><circle r="4.8580000000000005" cx="21.686570466489773" cy="0.9982577898592231" stroke="black" fill="none" stroke-width="1.0" filter="url(#fuzzy)" clip-path="url(#leftEyeClipPath)" />
    </g>
    <g id="hairs">
      <polyline points="60.27,-29.48 47.13,-46.74 29.46,-54.86 15.34,-58.87 8.67,-60.18 6.97,-60.54 7.89,-60.72 10.97,-60.51 16.18,-59.56 22.59,-57.99 28.09,-56.52 30.14,-56.12 26.9,-57.46 18.23,-60.37 6.02,-63.82 -6.32,-66.46 -15.2,-67.32 -18.19,-66.58 -15.23,-65.69 -10.64,-66.73 -15.92,-69.63 -38.97,-65.66" fill="none" stroke="rgb(167, 133, 106)" stroke-width="2" stroke-linejoin="round" filter="url(#fuzzy)" /><polyline points="-38.97,-65.66 -18.56,-67.92 -18.54,-63.52 -11.18,-61.05 -0.39,-61.39 7.33,-63.6 10.8,-66.17 12.21,-67.85 13.73,-68.3 15.92,-68.08 17.92,-68.1 18.42,-69.04 16.51,-70.94 12.26,-73.28 6.71,-75.29 1.55,-76.3 -1.59,-76.07 -2.08,-74.73 -1.16,-72.8 -2.15,-70.94 -8.82,-69.51 -21.92,-67.63 -35.75,-64.25 -36.73,-67.86" fill="none" stroke="rgb(167, 133, 106)" stroke-width="2" stroke-linejoin="round" filter="url(#fuzzy)" /><polyline points="-48.14,-55.16 0.21,-66.25 16.49,-65.28 18.82,-61.81 19.47,-59.38 21.9,-58.26 23.56,-58.52 21.63,-60.35 16.16,-63.43 9.47,-66.74 3.93,-69.2 0.25,-70.36 -2.65,-70.7 -5.82,-71.17 -8.54,-71.72 -13.53,-68.93 -48.14,-55.16" fill="none" stroke="rgb(167, 133, 106)" stroke-width="2" stroke-linejoin="round" filter="url(#fuzzy)" /><polyline points="3.82,-82.47 -14.05,-75.51 -8.84,-72.61 0.81,-69.83 8.29,-66.1 13.45,-62.32 16.97,-60.09 18.63,-60.32 17.9,-62.77 14.77,-66.29 9.82,-69.64 3.8,-71.93 -2.67,-72.82 -9.09,-72.35 -14.72,-70.75 -18.38,-68.44 -18.51,-65.89 -13.65,-63.43 -3.27,-60.89 11.47,-57.6 27.05,-53.66 36.7,-52.08 29.23,-59.6 -9.01,-81.64" fill="none" stroke="rgb(167, 133, 106)" stroke-width="2" stroke-linejoin="round" filter="url(#fuzzy)" /><polyline points="42.24,-62.59 20.36,-63.39 5.03,-63.86 2.44,-64.18 2.8,-63.09 0.84,-62.4 -2.9,-63.77 -5.57,-66.74 -5.35,-69.43 -2.38,-70.08 1.94,-68.2 5.71,-64.88 6.36,-61.97 1.11,-60.56 -7.98,-59.14 -3.19,-53.89 55.38,-41.98" fill="none" stroke="rgb(167, 133, 106)" stroke-width="2" stroke-linejoin="round" filter="url(#fuzzy)" /><polyline points="52.21,-48.68 42.35,-56.21 27.74,-64.76 16.63,-67.88 10.55,-66.83 7.65,-64.35 5.59,-62.71 3.14,-62.76 -0.05,-64.04 -3.98,-65.6 -8.2,-66.7 -11.59,-67.01 -12.66,-66.52 -10.27,-65.45 -4.5,-64.19 3.01,-63.23 9.4,-62.82 11.95,-62.63 9.15,-62 0.75,-61.05 -13,-61.59 -29.49,-63.85 -48.14,-55.16" fill="none" stroke="rgb(167, 133, 106)" stroke-width="2" stroke-linejoin="round" filter="url(#fuzzy)" /><polyline points="-11.95,-81.07 1.89,-75.74 9.37,-71.15 7.3,-69.63 5.08,-68.63 6.73,-66.37 10.82,-62.83 14.44,-59.18 15.93,-56.86 15.47,-56.64 14.41,-58.37 14.25,-61.1 15.8,-63.71 18.73,-65.49 21.71,-66.5 22.94,-67.4 21.12,-68.93 16.17,-71.37 9.49,-74.4 3.55,-77.39 0.75,-79.74 2.01,-81.12 6.78,-81.25 16.81,-79.74" fill="none" stroke="rgb(167, 133, 106)" stroke-width="2" stroke-linejoin="round" filter="url(#fuzzy)" /><polyline points="30.78,-72.49 34.45,-62.71 30.6,-64.1 30.05,-65.04 30.36,-64.78 28.52,-64.85 23.65,-66.45 17.16,-69.51 11.46,-72.85 8.44,-75.09 8.92,-75.2 12.75,-72.84 18.98,-68.38 25.65,-62.93 29.67,-58.14 27.8,-55.59 18.94,-55.88 6.73,-58.12 -0.64,-60.22 -0.89,-61.7 -32.7,-71.25" fill="none" stroke="rgb(167, 133, 106)" stroke-width="2" stroke-linejoin="round" filter="url(#fuzzy)" /><polyline points="10.05,-81.59 12.9,-77.66 15.36,-73.28 17.63,-70.55 15.73,-69.63 10.21,-69.52 3.61,-69.46 -1.91,-69.19 -5.37,-68.86 -6.73,-68.86 -6.33,-69.47 -4.43,-70.64 -1.06,-71.89 3.76,-72.47 9.74,-71.72 16.45,-69.34 23.46,-65.81 29.88,-62.69 33.41,-62.22 30.55,-65.53 17.36,-70.89 -18.08,-79.12" fill="none" stroke="rgb(167, 133, 106)" stroke-width="2" stroke-linejoin="round" filter="url(#fuzzy)" /><polyline points="47.14,-56.47 39.95,-62.89 36.74,-64.19 34.87,-64.77 33.02,-66.08 31.5,-67.51 30.46,-68.66 29.47,-69.62 27.98,-70.56 25.67,-71.36 22.6,-71.63 19.22,-70.96 16.2,-69.15 14.02,-66.39 12.46,-63.39 10.48,-61.22 6.88,-60.77 1.86,-62.13 -2,-64.1 -0.53,-64.57 8.45,-61.52 19.65,-54.44 13.72,-47.2 -48.14,-55.16" fill="none" stroke="rgb(167, 133, 106)" stroke-width="2" stroke-linejoin="round" filter="url(#fuzzy)" /><polyline points="-32.7,-71.25 4.84,-71.68 10.38,-73.68 4.26,-73.09 -3.79,-70.54 -7.13,-67.78 -3.96,-66.01 3.18,-65.37 10.19,-65.45 13.84,-66.02 12.84,-67.04 8.02,-68.34 1.82,-69.38 -2.59,-69.49 -2.65,-68.5 2.2,-66.84 10.2,-65.23 18.87,-63.98 27.63,-62.55 38.09,-58.34 56.53,-39.86" fill="none" stroke="rgb(167, 133, 106)" stroke-width="2" stroke-linejoin="round" filter="url(#fuzzy)" /><polyline points="-48.14,-55.16 -25.84,-69.09 -17.74,-70.46 -5.1,-68.64 8.64,-67.16 17.76,-67.15 20.92,-67.91 19.85,-68.03 16.45,-66.74 11.42,-64.52 4.62,-62.64 -3.88,-62.42 -12.78,-64.72 -18.77,-69.44 -16.73,-75.06 2.5,-82.25" fill="none" stroke="rgb(167, 133, 106)" stroke-width="2" stroke-linejoin="round" filter="url(#fuzzy)" /><polyline points="-11.19,-81.11 7.3,-66.21 1.38,-63.96 -4.51,-64 -7.65,-62.86 -8.63,-61.41 -8.76,-61.5 -8.55,-63.65 -7.64,-66.9 -5.65,-69.7 -2.62,-71.07 1.38,-70.87 6.71,-69.52 13.73,-67.59 21.64,-65.76 27.66,-64.82 28.58,-65.29 27.26,-65.37 49.26,-53.47" fill="none" stroke="rgb(167, 133, 106)" stroke-width="2" stroke-linejoin="round" filter="url(#fuzzy)" /><polyline points="48.66,-54.02 49.52,-46.08 37.16,-50.85 24.15,-59.71 18.25,-65.01 17.62,-65.39 17.39,-63.23 15.57,-61.48 13.96,-61.67 15.41,-63.36 20.75,-64.98 27.88,-65.29 33.28,-64.29 33.27,-63.33 23.74,-64.49 -0.38,-68.42 -39.21,-65.72" fill="none" stroke="rgb(167, 133, 106)" stroke-width="2" stroke-linejoin="round" filter="url(#fuzzy)" /><polyline points="60.27,-29.48 47.47,-41.53 23.5,-54.2 4.86,-63.88 -4.21,-70.6 -6.01,-74.3 -2.79,-75.06 3.71,-73.27 10.74,-69.77 14.71,-66.11 13.66,-64.32 9.74,-65.83 8.18,-69.94 11.28,-73.61 10.84,-74.69 -16.97,-79.69" fill="none" stroke="rgb(167, 133, 106)" stroke-width="2" stroke-linejoin="round" filter="url(#fuzzy)" /><polyline points="-34.06,-69.84 16.42,-60.03 25.89,-58.95 17.22,-60.95 3.92,-64.61 -6.5,-68.08 -12.38,-69.94 -15.01,-69.62 -15.68,-67.47 -14.53,-64.47 -11.08,-61.74 -5.11,-60.04 2.76,-59.51 11.06,-59.89 17.74,-60.89 20.61,-62.53 18.15,-65.03 10.26,-68.18 -1.29,-70.67 -12.38,-70.53 -13.15,-68.74 23.1,-76.87" fill="none" stroke="rgb(167, 133, 106)" stroke-width="2" stroke-linejoin="round" filter="url(#fuzzy)" /><polyline points="30.54,-72.57 33.7,-59.32 20.58,-61.6 11.96,-63.54 7.72,-64.77 5.5,-66.12 4.67,-67.61 4.91,-68.89 5.48,-69.63 5.79,-69.67 5.9,-69.03 6.39,-67.94 7.78,-66.81 10.08,-66.15 12.88,-66.41 15.61,-67.76 17.66,-69.99 18.24,-72.63 16.32,-75.21 10.91,-77.29 1.69,-78.2 -11.04,-76.77 -26.71,-71.58 -42.44,-62.09" fill="none" stroke="rgb(167, 133, 106)" stroke-width="2" stroke-linejoin="round" filter="url(#fuzzy)" /><polyline points="-3.07,-82.49 -5,-77.08 -2.7,-71.16 3.78,-68.58 10.01,-66.88 14.59,-64.52 17.21,-61.97 17.57,-60.4 15.32,-60.51 10.8,-62.15 5.46,-64.51 1.48,-66.48 0.79,-67.05 4.3,-65.58 11.94,-62.04 22.54,-57.2 33.33,-52.71 39.61,-50.81 35.99,-52.74 16.29,-56.72 -40.01,-64.45" fill="none" stroke="rgb(167, 133, 106)" stroke-width="2" stroke-linejoin="round" filter="url(#fuzzy)" /><polyline points="-31.05,-72.15 -6.69,-73.05 2.7,-71.61 11.59,-70.05 16.38,-68.45 15.58,-66.95 11.63,-65.87 7.94,-65.47 6.45,-65.91 7.17,-67.13 9.04,-68.91 10.9,-70.94 11.99,-72.96 12.04,-74.75 11.29,-76.16 10.47,-77.02 10.56,-77.16 12.53,-76.33 17,-74.08 24.02,-69.94 32.86,-63.88 41.64,-57.22 47.29,-53.13 46.54,-55.47 37.63,-66.66" fill="none" stroke="rgb(167, 133, 106)" stroke-width="2" stroke-linejoin="round" filter="url(#fuzzy)" /><polyline points="16.81,-79.74 18.42,-74.93 10,-76.51 2.78,-77.87 -3.32,-78.17 -8.27,-77.91 -11.65,-77.52 -13.25,-77.15 -13.05,-76.64 -11.07,-75.64 -7.31,-73.78 -1.99,-71.04 4,-67.87 9.01,-65.17 11.21,-63.73 9.61,-63.84 5.03,-64.88 0.06,-65.52 -1.89,-64.45 1.58,-62 8.5,-61.83 7.24,-69.46 -18.33,-79.11" fill="none" stroke="rgb(167, 133, 106)" stroke-width="2" stroke-linejoin="round" filter="url(#fuzzy)" /><polyline points="-44.45,-59.7 -43.05,-58.62 -31.75,-64.74 -17.77,-69.39 -5,-71 3.1,-70.67 4.7,-69.52 0.94,-68.03 -4.78,-66.35 -8.94,-64.75 -9.58,-63.65 -6.75,-63.32 -1.88,-63.74 3.36,-64.53 7.96,-65.07 12,-64.81 16.33,-63.43 21.65,-61.02 27.49,-58.03 31.69,-55.25 31.16,-53.72 23.98,-54.21 11.63,-56.25 -3.67,-57.34 -48.05,-54.86" fill="none" stroke="rgb(167, 133, 106)" stroke-width="2" stroke-linejoin="round" filter="url(#fuzzy)" /><polyline points="15.7,-80.13 -11.52,-74.8 -14.02,-68.2 -1.01,-61.93 13.26,-58.23 20.34,-58.31 19.19,-61.4 12.65,-65.5 4.07,-68.69 -3.99,-69.94 -9.76,-69.33 -12.01,-67.54 -10.44,-65.3 -5.94,-63.01 -0.34,-60.82 4.6,-59.07 7.96,-58.58 9.69,-60.35 10.13,-64.3 10.37,-67.85 16.03,-65.43 52.21,-48.68" fill="none" stroke="rgb(167, 133, 106)" stroke-width="2" stroke-linejoin="round" filter="url(#fuzzy)" /><polyline points="30.68,-72.46 5.19,-66.38 6.1,-63.85 0.29,-62.85 -8.23,-63 -11.92,-64.14 -9,-65.73 -2.25,-67.06 4.53,-67.78 8.78,-68.01 9.88,-68.13 8.87,-68.39 7.55,-68.8 7.49,-69.21 9.39,-69.48 13.05,-69.46 18,-68.87 23.9,-67.53 29.98,-65.74 33.98,-64.57 31.88,-65.29 17.59,-68.64 -23.16,-76.81" fill="none" stroke="rgb(167, 133, 106)" stroke-width="2" stroke-linejoin="round" filter="url(#fuzzy)" /><polyline points="23.1,-76.87 6.83,-73.77 9.14,-71.32 13.28,-70.59 16.19,-70.3 15.52,-69.69 10.89,-68.58 4.39,-67.15 -0.62,-65.71 -0.83,-64.39 5.46,-63.11 16.15,-62.07 24.3,-62.69 21.29,-67.36 5.65,-76.2 -5.57,-82" fill="none" stroke="rgb(167, 133, 106)" stroke-width="2" stroke-linejoin="round" filter="url(#fuzzy)" /><polyline points="-29.66,-73.14 10.29,-70.34 22.84,-68.41 23.75,-67.31 19.96,-67.17 15.75,-67.46 12.18,-68.12 8.22,-69.17 2.76,-70.26 -3.98,-70.83 -10.21,-70.66 -13.42,-69.99 -12,-69.2 -6.24,-68.16 1.6,-66.09 7.71,-62.47 6.66,-59.29 -4.5,-63.35 2.5,-82.25" fill="none" stroke="rgb(167, 133, 106)" stroke-width="2" stroke-linejoin="round" filter="url(#fuzzy)" /><polyline points="-19.88,-78.35 12.16,-57.78 20.4,-51.21 27.6,-49.51 30.43,-52.48 28.71,-57.6 25.09,-61.93 21.57,-64.42 18.93,-65.72 17.69,-66.55 18.37,-66.92 20.93,-66.42 24.33,-64.9 27.02,-62.58 27.92,-59.72 27.11,-56.74 26.95,-54.76 32.12,-56.12 30.78,-72.49" fill="none" stroke="rgb(167, 133, 106)" stroke-width="2" stroke-linejoin="round" filter="url(#fuzzy)" /><polyline points="-39.24,-65.61 -7.85,-65.07 5.85,-58.95 19.4,-54.94 27.1,-55.52 26.87,-59.52 20.94,-64.61 12.94,-69.13 6.08,-72.38 2.26,-74.24 1.74,-74.79 3.45,-74.19 5.89,-72.78 8.11,-70.98 10.13,-69.06 12.63,-66.92 15.92,-64.34 18.82,-61.8 18.88,-61.29 15.58,-65.51 15.86,-73.27 26.14,-75.53" fill="none" stroke="rgb(167, 133, 106)" stroke-width="2" stroke-linejoin="round" filter="url(#fuzzy)" /><polyline points="52.21,-48.68 29.32,-54.45 19.45,-54.46 23.41,-54.45 28.48,-56.36 29.89,-59.95 28.19,-64.12 24.97,-67.9 21.21,-70.7 17.4,-72.25 13.97,-72.68 11.44,-72.4 10.13,-71.89 9.89,-71.46 10.01,-71.12 9.54,-70.67 7.85,-70.08 5.09,-69.61 2.36,-69.73 1.45,-70.58 4.05,-71.36 11.01,-69.89 23.04,-63.1 41.38,-49.8 55.8,-41.28" fill="none" stroke="rgb(167, 133, 106)" stroke-width="2" stroke-linejoin="round" filter="url(#fuzzy)" /><polyline points="-34.09,-70.24 -5.64,-72.43 -1.92,-71.71 6.04,-68.42 18.02,-64.58 27.74,-61.53 31.41,-59.85 29.13,-59.6 23.9,-60.28 19.52,-61.06 18.05,-61.25 18.47,-60.98 17.71,-61.24 13.72,-63.12 7.94,-66.61 4.16,-70.1 3.13,-70.82 -4.18,-65.98 -48.14,-55.16" fill="none" stroke="rgb(167, 133, 106)" stroke-width="2" stroke-linejoin="round" filter="url(#fuzzy)" /><polyline points="-26.95,-74.87 0.72,-76.03 17.18,-71.08 23.27,-68.59 21.97,-69.77 17.98,-72.07 14.88,-73.33 14.03,-72.94 14.63,-71.48 14.74,-69.71 12.78,-67.95 8.72,-65.99 4.05,-63.73 0.42,-61.7 -1.91,-60.99 -4.4,-62.36 -8.43,-65.47 -12.78,-69.22 -12.26,-72.85 0.53,-75.05 33.12,-70.69" fill="none" stroke="rgb(167, 133, 106)" stroke-width="2" stroke-linejoin="round" filter="url(#fuzzy)" /><polyline points="30.78,-72.49 35.5,-59.62 24.57,-64.11 15.63,-67.87 8.56,-70.27 2.14,-72.39 -2.56,-73.85 -4.05,-73.87 -1.96,-72.17 2.97,-69.08 9.37,-65.1 15.59,-60.5 19.93,-55.35 22,-50.11 24.47,-46.3 31.72,-46.49 41.36,-53.4 38.4,-66.43" fill="none" stroke="rgb(167, 133, 106)" stroke-width="2" stroke-linejoin="round" filter="url(#fuzzy)" /><polyline points="-14.11,-80.36 -18.9,-71.88 -16.13,-69.14 -14.7,-68.99 -11.29,-69.46 -4.31,-69.01 5,-67.89 13.79,-67.41 19.47,-68.41 21.24,-70.49 20.03,-72.4 17.36,-72.99 14.21,-72.01 10.87,-70.3 7.68,-69.27 5.32,-69.6 4.74,-69.33 11.7,-62.47 56.53,-39.86" fill="none" stroke="rgb(167, 133, 106)" stroke-width="2" stroke-linejoin="round" filter="url(#fuzzy)" /><polyline points="-45.22,-58.94 -9.49,-72.76 1.28,-78.05 7.18,-78.36 13.41,-75.48 18.8,-71.28 21.01,-67.6 19.71,-65.39 16.52,-64.66 13.18,-65.02 10.17,-66.14 7.39,-67.75 5.69,-69.15 7.05,-69.29 12.61,-67.38 20.32,-63.6 26.01,-59.36 25.77,-58.8 0.74,-82.62" fill="none" stroke="rgb(167, 133, 106)" stroke-width="2" stroke-linejoin="round" filter="url(#fuzzy)" /><polyline points="38.24,-66.39 37.85,-57.2 20.72,-63.65 9.46,-66.78 8.15,-63.98 11.65,-57.98 14.62,-52.39 14.77,-49.56 12.1,-49.84 7.85,-51.96 3.87,-53.98 1.77,-54.55 1.89,-53.67 3.33,-52.56 5.94,-52.59 12.36,-54.14 26.68,-57.52 35.98,-68.56" fill="none" stroke="rgb(167, 133, 106)" stroke-width="2" stroke-linejoin="round" filter="url(#fuzzy)" /><polyline points="14.67,-80.16 -14.97,-72.64 -15.33,-68.17 -4,-65.06 6.29,-63.86 11.13,-64.17 10.78,-65.14 7.2,-66.33 2.74,-67.6 -0.59,-68.83 -1.73,-69.82 -0.9,-70.47 0.68,-70.8 1.41,-70.87 0.2,-70.7 -2.77,-70.21 -5.86,-69.24 -6.46,-67.57 -2.23,-64.97 7.62,-61.57 21.47,-58.48 34.59,-57.7 41.27,-59.58 48.27,-54.49" fill="none" stroke="rgb(167, 133, 106)" stroke-width="2" stroke-linejoin="round" filter="url(#fuzzy)" /><polyline points="5.75,-82.12 22,-74.87 32.83,-67.47 37.28,-61.99 35.07,-59.52 28.63,-59.62 21.83,-61.03 17.24,-62.7 15.03,-64.09 13.84,-64.95 12.28,-65.31 9.8,-65.48 6.95,-65.91 4.99,-66.94 5.2,-68.39 8.16,-69.63 13.13,-69.84 18.35,-68.63 22.01,-66.29 23.7,-63.58 25.36,-60.86 30.25,-57.42 38.85,-52.66 42.8,-51.79 24.02,-76.32" fill="none" stroke="rgb(167, 133, 106)" stroke-width="2" stroke-linejoin="round" filter="url(#fuzzy)" /><polyline points="15.42,-79.87 -18.95,-69.39 -22.84,-67.58 -17.96,-66.82 -15.5,-66.26 -17.08,-65.81 -19.16,-65.24 -18.49,-64.49 -14.43,-63.77 -8.35,-63.47 -1.92,-63.86 3.9,-64.9 8.92,-66.33 13.4,-67.85 17.73,-69.15 21.95,-69.83 25.83,-69.44 29.38,-68.7 23.1,-76.87" fill="none" stroke="rgb(167, 133, 106)" stroke-width="2" stroke-linejoin="round" filter="url(#fuzzy)" /><polyline points="60.08,-30.49 7.91,-52.9 -6.16,-61.12 -8.34,-62.66 -3.98,-62.04 1.49,-61.64 4.47,-62.52 4.53,-64.67 3.07,-67.44 1.83,-70.09 2.07,-72.12 4.05,-73.39 6.93,-73.9 8.89,-73.69 7.88,-72.76 2.73,-71.12 -5.9,-69.04 -15.25,-67.27 -21.24,-66.98 -20.54,-69.25 -13.02,-73.91 -2.79,-78.82 5.37,-81.05 15.42,-79.87" fill="none" stroke="rgb(167, 133, 106)" stroke-width="2" stroke-linejoin="round" filter="url(#fuzzy)" /><polyline points="-4.74,-82.2 -6.64,-81.95 -9.08,-81.63 -11.58,-81.23 -14.15,-80.77 -16.84,-80.22 -19.55,-79.59 -22.19,-78.89 -24.68,-78.12 -27.06,-77.28 -29.43,-76.37 -31.93,-75.4 -34.72,-74.37 -37.84,-73.28 -41.24,-72.11 -44.71,-70.88 -47.99,-69.6 -50.88,-68.29 -53.35,-66.94 -55.61,-65.51 -58.1,-63.96 -61.44,-62.25 -65.84,-60.37" fill="none" stroke="rgb(167, 133, 106)" stroke-width="2" stroke-linejoin="round" filter="url(#fuzzy)" /><polyline points="-16.06,-79.98 -17.58,-79.38 -19.62,-78.51 -21.72,-77.59 -23.83,-76.62 -25.98,-75.61 -28.2,-74.55 -30.51,-73.44 -32.92,-72.28 -35.41,-71.07 -37.91,-69.78 -40.34,-68.41 -42.64,-66.97 -44.75,-65.45 -46.68,-63.86 -48.47,-62.19 -50.18,-60.47 -51.87,-58.69 -53.59,-56.89 -55.37,-55.08 -57.19,-53.25 -59.03,-51.42 -60.83,-49.58 -62.54,-47.7 -64.13,-45.75 -65.64,-43.71 -67.13,-41.54 -68.69,-39.24 -70.37,-36.82 -72.12,-34.34 -73.85,-31.88 -75.44,-29.51 -76.99,-27.24 -78.73,-24.91 -80.3,-22.43" fill="none" stroke="rgb(167, 133, 106)" stroke-width="2" stroke-linejoin="round" filter="url(#fuzzy)" /><polyline points="-16.97,-79.69 -19.69,-78.56 -22.73,-77.59 -26.19,-76.63 -29.54,-75.63 -32.34,-74.58 -34.56,-73.48 -36.51,-72.34 -38.61,-71.14 -41.18,-69.87 -44.27,-68.53 -47.71,-67.1 -51.19,-65.61 -54.41,-64.03 -57.21,-62.38 -59.57,-60.66 -61.65,-58.89 -63.66,-57.09 -65.82,-55.27 -68.31,-53.47 -71.23,-51.67 -74.57,-49.89 -78.19,-48.1 -81.82,-46.29 -85.24,-44.38 -88.49,-42.31 -91.91,-39.95 -96.26,-37.32" fill="none" stroke="rgb(167, 133, 106)" stroke-width="2" stroke-linejoin="round" filter="url(#fuzzy)" /><polyline points="-18.08,-79.12 -20.69,-78.13 -23.33,-77.11 -25.7,-76.1 -27.99,-75.07 -30.46,-73.99 -33.14,-72.83 -35.8,-71.59 -38.26,-70.3 -40.55,-68.96 -42.84,-67.57 -45.3,-66.14 -47.95,-64.66 -50.68,-63.13 -53.29,-61.57 -55.66,-59.97 -57.78,-58.31 -59.78,-56.59 -61.86,-54.8 -64.26,-52.95 -67.15,-51.03 -70.59,-49.08 -74.44,-47.08 -78.41,-45.05 -82.05,-42.97 -84.96,-40.85 -87.09,-38.73 -88.88,-36.6 -91.18,-34.43 -94.32,-32.25 -95.83,-30.58" fill="none" stroke="rgb(167, 133, 106)" stroke-width="2" stroke-linejoin="round" filter="url(#fuzzy)" /><polyline points="-18.08,-79.12 -20.16,-78.15 -22.24,-77.14 -24.08,-76.14 -25.74,-75.13 -27.32,-74.07 -28.87,-72.94 -30.39,-71.72 -31.82,-70.45 -33.11,-69.14 -34.21,-67.78 -35.12,-66.38 -35.85,-64.92 -36.45,-63.42 -36.96,-61.89 -37.37,-60.35 -37.71,-58.77 -38.02,-57.13 -38.34,-55.39 -38.66,-53.5 -38.8,-51.51 -38.45,-49.5 -37.7,-47.62" fill="none" stroke="rgb(167, 133, 106)" stroke-width="2" stroke-linejoin="round" filter="url(#fuzzy)" /><polyline points="63.15,-16.44 65.85,-12.95 67.37,-10.71 67.16,-8.59 66.56,-6.28 66.33,-3.77 66.68,-1.15 67.53,1.51 68.61,4.17 69.67,6.81 70.49,9.41 71.02,11.96 71.31,14.46 71.52,16.94 71.75,19.41 72.03,21.9 72.31,24.4 72.56,26.89 72.76,29.35 72.96,31.78 73.22,34.18 73.53,36.55 73.8,38.87 73.95,41.13 73.93,43.29 73.74,45.33 73.42,47.25 72.96,49.09 72.29,50.87 71.53,52.62 71.01,54.32 70.87,56.04 69.56,57.99" fill="none" stroke="rgb(167, 133, 106)" stroke-width="2" stroke-linejoin="round" filter="url(#fuzzy)" /><polyline points="-26.95,-74.87 -30.32,-74.04 -32.12,-72.88 -33.62,-71.58 -35.2,-70.24 -37.02,-68.91 -39.11,-67.54 -41.43,-66.13 -43.9,-64.65 -46.44,-63.14 -48.98,-61.59 -51.47,-60.02 -53.89,-58.41 -56.3,-56.72 -58.79,-54.95 -61.4,-53.1 -64.05,-51.2 -66.57,-49.27 -68.78,-47.34 -70.75,-45.36 -72.86,-43.24 -75.52,-40.9 -77.71,-38.35" fill="none" stroke="rgb(167, 133, 106)" stroke-width="2" stroke-linejoin="round" filter="url(#fuzzy)" /><polyline points="-31.05,-72.15 -34.25,-70.99 -36.04,-69.74 -38.3,-68.3 -41.6,-66.79 -45.85,-65.24 -50.6,-63.61 -55.29,-61.91 -59.4,-60.14 -62.6,-58.33 -64.9,-56.5 -66.65,-54.67 -68.39,-52.85 -70.59,-51.01 -73.41,-49.16 -76.68,-47.25 -79.99,-45.26 -82.98,-43.17 -85.51,-40.98 -87.77,-38.68 -90.16,-36.3 -93.1,-33.89 -96.87,-31.46 -101.48,-29.06 -106.73,-26.68 -112.27,-24.34 -117.64,-22.05 -122.26,-19.82 -125.64,-17.65 -127.89,-15.5 -130.32,-13.23 -134.78,-10.74 -139.99,-8.28" fill="none" stroke="rgb(167, 133, 106)" stroke-width="2" stroke-linejoin="round" filter="url(#fuzzy)" /><polyline points="-41.08,-63.51 -43.48,-61.84 -45.77,-59.92 -48.84,-58 -52.35,-56.14 -55.77,-54.31 -58.82,-52.51 -61.44,-50.7 -63.8,-48.87 -66.1,-46.97 -68.53,-44.98 -71.08,-42.87 -73.6,-40.64 -75.83,-38.32 -77.59,-35.93 -78.8,-33.51 -79.58,-31.09 -80.19,-28.7 -80.95,-26.35 -82.08,-24.03 -83.66,-21.74 -85.59,-19.49 -87.73,-17.25 -89.96,-14.98 -92.26,-12.66 -94.63,-10.26 -96.98,-7.84 -99.15,-5.5 -101.05,-3.25 -103.01,-0.83 -105.84,2.7" fill="none" stroke="rgb(167, 133, 106)" stroke-width="2" stroke-linejoin="round" filter="url(#fuzzy)" /><polyline points="-41.08,-63.51 -42.85,-61.86 -44.81,-59.96 -46.74,-58.05 -48.83,-56.21 -51.34,-54.41 -54.47,-52.62 -58.08,-50.84 -61.73,-49.04 -64.98,-47.2 -67.71,-45.26 -70.22,-43.2 -73.01,-41.01 -76.49,-38.7 -80.79,-36.3 -85.69,-33.87 -90.76,-31.45 -95.46,-29.07 -99.48,-26.73 -103.06,-24.38 -107.02,-22.05 -111.79,-19.84 -116.22,-17.77 -119.35,-15" fill="none" stroke="rgb(167, 133, 106)" stroke-width="2" stroke-linejoin="round" filter="url(#fuzzy)" /><polyline points="-45.22,-58.94 -48.48,-56.1 -52.75,-54.01 -56.13,-51.99 -58.31,-50 -60.22,-48.01 -62.58,-45.99 -65.46,-43.93 -68.49,-41.81 -71.19,-39.66 -73.3,-37.47 -74.81,-35.23 -76,-32.92 -77.15,-30.55 -78.49,-28.11 -80.04,-25.62 -81.78,-23.09 -83.7,-20.54 -85.86,-17.99 -88.32,-15.43 -91.05,-12.89 -93.79,-10.36 -96.19,-7.85 -97.95,-5.37 -99.08,-2.9 -100.03,-0.43 -101.51,2.08 -103.86,4.76 -106.59,7.77 -110.02,10.98" fill="none" stroke="rgb(167, 133, 106)" stroke-width="2" stroke-linejoin="round" filter="url(#fuzzy)" /><polyline points="-51.38,-49.64 -52.64,-48.46 -54.25,-46.81 -55.74,-44.87 -56.94,-42.74 -57.89,-40.44 -58.78,-38.03 -59.77,-35.56 -60.93,-33.11 -62.22,-30.7 -63.56,-28.34 -64.87,-26.02 -66.05,-23.74 -67.07,-21.49 -67.92,-19.27 -68.69,-17.07 -69.5,-14.83 -70.48,-12.52 -71.66,-10.14 -72.94,-7.74 -74.14,-5.42 -75.17,-3.21 -76.08,-0.8 -76.58,2.7" fill="none" stroke="rgb(167, 133, 106)" stroke-width="2" stroke-linejoin="round" filter="url(#fuzzy)" /><polyline points="-54.97,-43.4 -55.8,-42.53 -58.15,-40.32 -61.4,-37.8 -64.78,-35.25 -67.56,-32.77 -69.41,-30.37 -70.5,-28.03 -71.3,-25.73 -72.38,-23.46 -74.1,-21.22 -76.45,-19.01 -79.07,-16.81 -81.46,-14.57 -83.22,-12.26 -84.27,-9.89 -84.89,-7.5 -85.52,-5.12 -86.55,-2.7 -88.19,-0.12 -90.45,2.8 -93.09,6.04 -94.44,9.41" fill="none" stroke="rgb(167, 133, 106)" stroke-width="2" stroke-linejoin="round" filter="url(#fuzzy)" /><polyline points="-54.97,-43.4 -55.44,-42.49 -56.52,-40.24 -57.97,-37.68 -59.88,-35.1 -62.12,-32.59 -64.35,-30.16 -66.25,-27.79 -67.65,-25.46 -68.55,-23.16 -69.08,-20.88 -69.45,-18.61 -69.84,-16.33 -70.36,-14.02 -71.02,-11.66 -71.76,-9.25 -72.48,-6.8 -73.12,-4.3 -73.64,-1.75 -74.04,0.83 -74.31,3.44 -74.42,6.04 -74.34,8.61 -74.09,11.14 -73.74,13.63 -73.4,16.09 -73.19,18.51 -73.17,20.91 -73.36,23.27 -73.65,25.6 -73.9,27.93 -73.94,30.37 -73.7,33.07 -72.95,36.11" fill="none" stroke="rgb(167, 133, 106)" stroke-width="2" stroke-linejoin="round" filter="url(#fuzzy)" /><polyline points="-60.48,-28.91 -63.82,-27.44 -66.95,-25.14 -68.4,-22.74 -69.18,-20.46 -69.79,-18.27 -70.37,-16.07 -71.04,-13.8 -71.95,-11.45 -73.12,-9.04 -74.4,-6.59 -75.46,-4.11 -76.06,-1.57 -76.11,1.01 -75.76,3.62 -75.3,6.22 -75.02,8.78 -75.06,11.28 -75.41,13.74 -75.96,16.17 -76.6,18.58 -77.32,20.95 -78.21,23.28 -79.33,25.56 -80.51,27.81 -81.22,30.13 -81.27,32.82" fill="none" stroke="rgb(167, 133, 106)" stroke-width="2" stroke-linejoin="round" filter="url(#fuzzy)" /><polyline points="-61.22,-26.53 -64.79,-24.24 -65.87,-21.83 -67.15,-19.27 -68.56,-16.69 -70.24,-14.14 -72.63,-11.61 -75.81,-9.1 -79.25,-6.6 -82.08,-4.12 -83.64,-1.64 -83.87,0.84 -83.27,3.3 -82.58,5.72 -82.47,8.09 -83.3,10.42 -85.09,12.71 -87.67,14.99 -90.88,17.31 -94.58,19.66 -98.66,22.06 -102.9,24.48 -106.82,26.89 -109.79,29.29 -111.34,31.66 -111.52,34.03 -110.84,36.35 -109.8,38.56 -108.58,40.57 -108.89,42.74" fill="none" stroke="rgb(167, 133, 106)" stroke-width="2" stroke-linejoin="round" filter="url(#fuzzy)" /><polyline points="62.2,-21.59 60.7,-19.68 60.27,-17.63 59.22,-15.46 57.56,-13.27 55.92,-11.09 54.56,-8.86 53.37,-6.54 52.2,-4.11 51.06,-1.57 50.06,1.04 49.24,3.66 48.52,6.29 47.76,8.88 46.75,11.42 45.32,13.9 43.31,16.33 40.64,18.75 37.39,21.22 33.8,23.75 30.29,26.31 27.12,28.8 24.21,31.15 21.21,33.34 17.98,35.52 15.41,38.52" fill="none" stroke="rgb(167, 133, 106)" stroke-width="2" stroke-linejoin="round" filter="url(#fuzzy)" /><polyline points="57.4,-37.75 58.75,-35.69 61.02,-33.19 63.26,-30.51 65.29,-27.86 67.14,-25.3 68.71,-22.84 69.83,-20.45 70.53,-18.12 70.98,-15.84 71.43,-13.58 72.11,-11.3 73.15,-8.99 74.61,-6.62 76.47,-4.17 78.61,-1.64 80.87,0.94 83,3.55 84.81,6.16 86.19,8.76 87.09,11.33 87.6,13.85 87.88,16.35 88.14,18.85 88.66,21.35 89.63,23.86 91.07,26.37 92.78,28.86 94.44,31.3 95.74,33.7 96.53,36.1 96.76,38.54 96.37,40.99 95.39,43.32 94.81,45.34 96.8,46.82" fill="none" stroke="rgb(167, 133, 106)" stroke-width="2" stroke-linejoin="round" filter="url(#fuzzy)" /><polyline points="54.09,-44.55 56.31,-41.97 59.68,-39.9 64.28,-37.86 69.32,-35.68 73.7,-33.32 76.75,-30.83 78.66,-28.3 80.09,-25.79 81.63,-23.34 83.43,-20.96 85.23,-18.64 86.76,-16.37 88.01,-14.13 89.28,-11.92 90.95,-9.69 93.24,-7.4 96.08,-5.02 99.27,-2.53 102.58,0.05 105.91,2.67 109.14,5.32 112.24,8.04 115.53,10.9 119.7,13.68 122.94,15.17" fill="none" stroke="rgb(167, 133, 106)" stroke-width="2" stroke-linejoin="round" filter="url(#fuzzy)" /><polyline points="50.1,-52.04 52.7,-49.34 56.21,-47.14 60,-45.04 64.33,-42.97 69.21,-40.9 73.95,-38.79 77.79,-36.62 80.37,-34.42 81.89,-32.19 82.83,-29.97 83.69,-27.76 84.74,-25.55 86.07,-23.31 87.71,-21.01 89.7,-18.62 92.09,-16.13 94.83,-13.56 97.76,-10.92 100.65,-8.26 103.43,-5.64 106.35,-3.09 109.87,-0.63 114.37,1.79 119.68,4.21 125.06,6.69 129.85,9.17 133.73,11.5 134.81,13.68" fill="none" stroke="rgb(167, 133, 106)" stroke-width="2" stroke-linejoin="round" filter="url(#fuzzy)" /><polyline points="47.14,-56.47 49.97,-54.32 53.31,-52.63 56.29,-50.79 58.98,-48.84 61.81,-46.84 64.92,-44.79 68.01,-42.7 70.6,-40.58 72.39,-38.42 73.49,-36.2 74.36,-33.89 75.61,-31.48 77.68,-29.01 80.7,-26.52 84.45,-24.06 88.53,-21.65 92.56,-19.31 96.28,-17.02 99.56,-14.78 102.43,-12.61 105.16,-10.58 108.23,-8.5 110.1,-5.11" fill="none" stroke="rgb(167, 133, 106)" stroke-width="2" stroke-linejoin="round" filter="url(#fuzzy)" /><polyline points="45.6,-58.29 48.16,-57.42 53.43,-55.55 57.32,-53.55 59.1,-51.52 59.56,-49.46 59.6,-47.37 59.83,-45.28 60.62,-43.18 62.11,-41.06 64.23,-38.92 66.68,-36.74 69.12,-34.54 71.26,-32.32 72.96,-30.1 74.28,-27.87 75.44,-25.63 76.71,-23.35 78.36,-21.02 80.54,-18.61 83.21,-16.12 86.21,-13.55 89.28,-10.93 92.13,-8.29 94.53,-5.67 96.33,-3.1 97.54,-0.6 98.26,1.87 98.68,4.34 98.99,6.85 99.39,9.43 100.03,12.11 100.99,15 101.96,18.18 102.92,21.15" fill="none" stroke="rgb(167, 133, 106)" stroke-width="2" stroke-linejoin="round" filter="url(#fuzzy)" /><polyline points="45.6,-58.29 46.25,-57.42 47.63,-55.55 49.1,-53.55 50.66,-51.52 52.32,-49.46 54.05,-47.37 55.73,-45.28 57.25,-43.18 58.53,-41.06 59.59,-38.92 60.46,-36.74 61.24,-34.54 61.98,-32.32 62.73,-30.1 63.5,-27.87 64.27,-25.63 65.02,-23.35 65.73,-21.02 66.4,-18.61 67.03,-16.12 67.64,-13.55 68.24,-10.93 68.86,-8.29 69.51,-5.67 70.19,-3.1 70.88,-0.6 71.55,1.87 72.11,4.34 72.49,6.85 72.66,9.43 72.64,12.11 72.57,15 72.59,18.18 72.69,21.15" fill="none" stroke="rgb(167, 133, 106)" stroke-width="2" stroke-linejoin="round" filter="url(#fuzzy)" /><polyline points="37.63,-66.66 37.62,-65.1 39.54,-63.5 41.43,-61.76 42.75,-59.95 43.49,-58.15 43.79,-56.37 43.91,-54.59 44.15,-52.79 44.65,-50.94 45.4,-49.02 46.24,-47.05 46.99,-45.01 47.55,-42.92 47.91,-40.79 48.17,-38.61 48.39,-36.36 48.63,-34.03 48.88,-31.63 49.08,-29.17 49.19,-26.68 49.2,-24.21 49.12,-21.78 48.98,-19.4 48.75,-17.09 48.37,-14.83 47.72,-12.64 46.78,-10.51 45.68,-8.4 44.7,-6.17 43.75,-4.35" fill="none" stroke="rgb(167, 133, 106)" stroke-width="2" stroke-linejoin="round" filter="url(#fuzzy)" /><polyline points="25.77,-75.54 23.83,-76.57 22.71,-77.24 21.46,-77.94 19.81,-78.66 17.84,-79.36 15.7,-80 13.53,-80.56 11.4,-81.04 9.33,-81.44 7.31,-81.76 5.32,-82 3.32,-82.16 1.29,-82.23 -0.81,-82.23 -2.99,-82.15 -5.24,-81.98 -7.51,-81.75 -9.78,-81.45 -11.99,-81.1 -14.13,-80.7 -16.25,-80.25 -18.4,-79.72 -20.68,-79.09 -23.12,-78.35 -25.55,-77.53 -27.24,-76.81" fill="none" stroke="rgb(167, 133, 106)" stroke-width="2" stroke-linejoin="round" filter="url(#fuzzy)" /><polyline points="24.02,-76.32 21.13,-77.11 18.08,-78.02 16.14,-78.82 14.8,-79.49 13.57,-80.05 12.22,-80.54 10.67,-80.96 8.97,-81.32 7.16,-81.6 5.31,-81.82 3.49,-81.98 1.73,-82.07 0.05,-82.09 -1.55,-82.05 -3.07,-81.93 -4.52,-81.74 -5.9,-81.47 -7.2,-81.12 -8.38,-80.69 -9.42,-80.19 -10.28,-79.61 -10.98,-78.95 -11.54,-78.21 -12.05,-77.4 -12.58,-76.52 -13.2,-75.57 -13.9,-74.55 -14.62,-73.46 -15.27,-72.3 -15.78,-71.06 -16.1,-69.78 -16.22,-68.47 -16.1,-67.12 -15.7,-65.7 -15.11,-64.15 -13.68,-62.39" fill="none" stroke="rgb(167, 133, 106)" stroke-width="2" stroke-linejoin="round" filter="url(#fuzzy)" /><polyline points="17.57,-79.23 16.79,-79.71 15.83,-80.19 14.4,-80.66 12.53,-81.07 10.4,-81.41 8.16,-81.69 5.9,-81.89 3.63,-82.04 1.31,-82.12 -1.15,-82.13 -3.78,-82.08 -6.6,-81.95 -9.54,-81.75 -12.5,-81.47 -15.4,-81.11 -18.21,-80.67 -21.01,-80.16 -23.94,-79.57 -27.17,-78.89 -30.83,-78.15 -34.93,-77.33 -39.36,-76.44 -43.97,-75.48 -48.6,-74.45 -53.2,-73.35 -57.8,-72.18 -62.43,-70.95 -67,-69.67 -71.25,-68.34 -74.9,-66.95 -77.95,-65.49 -80.89,-63.93 -84.64,-62.28 -89.8,-60.62 -94.68,-59.19" fill="none" stroke="rgb(167, 133, 106)" stroke-width="2" stroke-linejoin="round" filter="url(#fuzzy)" /><polyline points="11.3,-81.35 9.83,-81.58 7.99,-81.81 5.99,-82 3.9,-82.14 1.74,-82.22 -0.46,-82.23 -2.7,-82.19 -4.99,-82.07 -7.32,-81.88 -9.69,-81.61 -12.11,-81.27 -14.57,-80.85 -17.13,-80.36 -19.83,-79.8 -22.68,-79.16 -25.67,-78.44 -28.79,-77.65 -32.03,-76.78 -35.41,-75.85 -38.87,-74.94 -41.92,-74.05 -43.88,-73.14" fill="none" stroke="rgb(167, 133, 106)" stroke-width="2" stroke-linejoin="round" filter="url(#fuzzy)" /><polyline points="8.36,-81.91 6.26,-82.12 4.39,-82.28 2.53,-82.36 0.57,-82.37 -1.51,-82.31 -3.67,-82.16 -5.88,-81.94 -8.1,-81.65 -10.3,-81.3 -12.44,-80.9 -14.53,-80.43 -16.56,-79.9 -18.57,-79.28 -20.62,-78.58 -22.73,-77.8 -24.94,-76.94 -27.22,-76 -29.53,-75.01 -31.78,-73.97 -33.94,-72.88 -36.01,-71.74 -38.05,-70.53 -40.17,-69.25 -42.44,-67.88 -44.79,-66.45 -47.1,-65.02 -49.34,-63.57 -51.76,-62.09" fill="none" stroke="rgb(167, 133, 106)" stroke-width="2" stroke-linejoin="round" filter="url(#fuzzy)" /><polyline points="5.75,-82.12 4.12,-82.32 2.43,-82.4 0.5,-82.4 -1.6,-82.32 -3.8,-82.17 -6.03,-81.93 -8.26,-81.63 -10.48,-81.27 -12.68,-80.85 -14.85,-80.36 -17,-79.81 -19.13,-79.17 -21.24,-78.45 -23.34,-77.64 -25.41,-76.76 -27.45,-75.81 -29.46,-74.8 -31.46,-73.73 -33.46,-72.61 -35.52,-71.42 -37.68,-70.18 -39.96,-68.86 -42.38,-67.47 -44.89,-66 -47.43,-64.46 -49.95,-62.83 -52.36,-61.12 -54.61,-59.34 -56.68,-57.51 -58.59,-55.67 -60.51,-53.82 -62.61,-51.93 -64.74,-50.05 -66.54,-48.55" fill="none" stroke="rgb(167, 133, 106)" stroke-width="2" stroke-linejoin="round" filter="url(#fuzzy)" /><polyline points="1.48,-82.31 -0.86,-82.33 -2.76,-82.28 -4.56,-82.13 -6.43,-81.89 -8.41,-81.58 -10.45,-81.19 -12.54,-80.72 -14.67,-80.18 -16.83,-79.56 -19.01,-78.87 -21.17,-78.1 -23.27,-77.26 -25.29,-76.35 -27.24,-75.38 -29.14,-74.34 -31.04,-73.23 -33,-72.06 -35.02,-70.82 -37.07,-69.54 -39.1,-68.2 -41.07,-66.82 -43.01,-65.37 -44.93,-63.84 -46.8,-62.28 -48.55,-60.78 -50.02,-59.57 -50.96,-58.94" fill="none" stroke="rgb(167, 133, 106)" stroke-width="2" stroke-linejoin="round" filter="url(#fuzzy)" />
    </g>
    
        <g id="pointNose">
          <g id="rightNose"><circle r="1.69" cx="8.772" cy="15.208000000000002" stroke="black" fill="none" stroke-width="1.0" filter="url(#fuzzy)" /><circle r="2.388" cx="10.056000000000001" cy="16.884" stroke="black" fill="none" stroke-width="1.0" filter="url(#fuzzy)" /><circle r="1.1400000000000001" cx="6.460000000000001" cy="17.492" stroke="black" fill="none" stroke-width="1.0" filter="url(#fuzzy)" /><circle r="1.794" cx="7.328000000000001" cy="18.36" stroke="black" fill="none" stroke-width="1.0" filter="url(#fuzzy)" /><circle r="1.584" cx="7.428000000000001" cy="15.623999999999999" stroke="black" fill="none" stroke-width="1.0" filter="url(#fuzzy)" /><circle r="1.198" cx="6.896000000000001" cy="15.952000000000002" stroke="black" fill="none" stroke-width="1.0" filter="url(#fuzzy)" /><circle r="2.782" cx="7.856" cy="16.828" stroke="black" fill="none" stroke-width="1.0" filter="url(#fuzzy)" /><circle r="1.1179999999999999" cx="9.588000000000001" cy="16.852" stroke="black" fill="none" stroke-width="1.0" filter="url(#fuzzy)" /><circle r="2.8440000000000003" cx="9.72" cy="16.796" stroke="black" fill="none" stroke-width="1.0" filter="url(#fuzzy)" /><circle r="1.042" cx="7.156000000000001" cy="15.920000000000002" stroke="black" fill="none" stroke-width="1.0" filter="url(#fuzzy)" /></g>
          <g id="leftNose"><circle r="2.49" cx="-11.754" cy="24.092" stroke="black" fill="none" stroke-width="1.0" filter="url(#fuzzy)" /><circle r="1.212" cx="-8.71" cy="26.2" stroke="black" fill="none" stroke-width="1.0" filter="url(#fuzzy)" /><circle r="1.65" cx="-10.514" cy="23.516" stroke="black" fill="none" stroke-width="1.0" filter="url(#fuzzy)" /><circle r="2.806" cx="-11.59" cy="23.624" stroke="black" fill="none" stroke-width="1.0" filter="url(#fuzzy)" /><circle r="2.7199999999999998" cx="-8.43" cy="25.792" stroke="black" fill="none" stroke-width="1.0" filter="url(#fuzzy)" /><circle r="1.974" cx="-10.998000000000001" cy="23.924" stroke="black" fill="none" stroke-width="1.0" filter="url(#fuzzy)" /><circle r="2.0140000000000002" cx="-10.554" cy="23.576" stroke="black" fill="none" stroke-width="1.0" filter="url(#fuzzy)" /><circle r="1.99" cx="-11.774000000000001" cy="26.184" stroke="black" fill="none" stroke-width="1.0" filter="url(#fuzzy)" /><circle r="2.0860000000000003" cx="-9.366" cy="25.552" stroke="black" fill="none" stroke-width="1.0" filter="url(#fuzzy)" /><circle r="2.842" cx="-10.218" cy="24.504" stroke="black" fill="none" stroke-width="1.0" filter="url(#fuzzy)" /></g>
        </g>
      
    <g id="mouth">
      <polyline points="19.04,56.59 18.89,56.99 18.61,57.89 18.58,57.81 18.56,57.82 18.22,58.6 18.29,58.29 17.96,58.74 17.49,59.24 18.02,58.69 17.02,59.57 17.27,59.47 16.73,59.93 16.31,60.1 15.94,60.27 16.57,60.01 15.18,60.66 14.64,60.85 15.34,60.57 15.04,60.74 14.28,60.95 13.3,61.32 13.27,61.32 13.33,61.28 13.08,61.37 12.23,61.53 12.1,61.58 11.48,61.71 9.43,61.98 10.56,61.83 8.5,62.06 7.66,62.13 9.09,62.04 8.29,62.08 7.43,62.15 6.57,62.15 6.21,62.16 5.67,62.18 5.09,62.17 4.68,62.16 4.04,62.13 3.5,62.09 1.3,61.91 0.56,61.84 0.85,61.87 0.9,61.88 -0.18,61.74 -0.91,61.63 -2.56,61.36 -1.78,61.49 -3.19,61.24 -3.83,61.11 -5.27,60.78 -5.57,60.71 -5.39,60.75 -6.42,60.48 -5.58,60.71 -6.94,60.35 -7.62,60.16 -8.41,59.92 -8.86,59.76 -9.88,59.42 -9.54,59.54 -9.71,59.48 -10.82,59.07 -12.15,58.55 -12.08,58.56 -12.25,58.48 -13.11,58.14 -13.55,57.92 -13.57,57.91 -14.18,57.59 -15.69,56.83 -15.37,56.99 -17.11,55.96 -16.59,56.29 -17.21,55.86 -18.02,55.31 -17.7,55.5 -18.22,55.12 -18.85,54.58 -19.12,54.38 -19.57,53.85 -19.15,54.28 -19.51,53.92 -19.98,53.44 -20.11,53.33 -20.88,52.4 -20.64,52.75 -20.74,52.48 -21.05,52.17 -21.39,51.53 -21.36,51.52 -21.44,51 -21.58,50.71 -21.7,50.17 -21.6,49.92 -21.61,50.16 -21.79,49.61 -21.56,49.21 -21.71,49 -21.65,48.92 -21.55,48.84 -21.36,48.19 -21.35,48.35 -21.16,47.95 -21.07,47.79 -20.89,47.48 -20.63,47.18 -20.26,46.92 -20.24,46.83 -19.45,46.33 -19.38,46.26 -18.98,45.94 -18.7,45.83 -18.93,46 -18.68,45.89 -17.8,45.38 -17.78,45.37 -17.39,45.3 -16.3,44.88 -16.28,44.87 -16.66,45.06 -15.97,44.85 -15.61,44.71 -14.13,44.44 -14.32,44.46 -13.21,44.27 -13.6,44.35 -12.34,44.15 -11.19,44.08 -11.92,44.17 -11.81,44.14 -11.25,44.09 -9.45,44 -10.11,44.03 -8.45,44 -8.1,44.02 -6.7,44.07 -7.5,44.03 -5.85,44.09 -4.52,44.21 -4.15,44.24 -3.39,44.33 -4.29,44.22 -2.51,44.44 -1.39,44.6 -1.04,44.66 -0.4,44.77 -1.24,44.63 1.16,45.08 1.19,45.09 2.36,45.35 2.68,45.43 2.94,45.49 3.79,45.71 4.06,45.78 3.61,45.66 6.05,46.37 5.83,46.31 7.63,46.9 7.88,47.02 7.43,46.84 8.4,47.2 8.68,47.33 10.02,47.86 10.59,48.15 11.05,48.33 11.24,48.42 10.76,48.2 11.19,48.38 12.62,49.16 13.58,49.69 13.04,49.37 13.23,49.47 13.99,49.91 14.54,50.33 14.93,50.6 15.06,50.63 15.11,50.71 15.68,51.16 16.13,51.46 16.68,52 17.21,52.48 16.87,52.13 17.37,52.75 17.94,53.41 17.91,53.34 18.02,53.53 18.32,53.91 18.6,54.54 18.66,54.81 18.61,54.41 18.74,54.85 18.98,55.66 18.88,55.74 19,56.28 18.95,56.19 18.97,56.8 18.87,57.05" fill="rgb(215,127,140)" stroke="black" stroke-width="3" stroke-linejoin="round" filter="url(#fuzzy)" />
    </g>
  </svg>
  