
  <svg viewBox="-100 -100 200 200" xmlns="http://www.w3.org/2000/svg" width="500" height="500" id="face-svg">
    <defs>
      <clipPath id="leftEyeClipPath">
        <polyline points="23.22,5.93 23.03,5.62 22.8,5.3 22.55,4.98 22.26,4.66 21.95,4.33 21.6,3.99 21.23,3.66 20.82,3.31 20.39,2.97 19.94,2.62 19.45,2.27 18.95,1.91 18.42,1.55 17.86,1.19 17.29,0.83 16.7,0.47 16.08,0.1 15.42,-0.28 14.73,-0.67 14.01,-1.07 13.26,-1.48 12.48,-1.89 11.68,-2.31 10.85,-2.72 10.01,-3.14 9.14,-3.55 8.26,-3.96 7.36,-4.37 6.46,-4.76 5.54,-5.15 4.61,-5.52 3.68,-5.89 2.75,-6.23 1.81,-6.56 0.88,-6.88 -0.05,-7.17 -0.97,-7.45 -1.89,-7.7 -2.8,-7.93 -3.69,-8.14 -4.58,-8.32 -5.45,-8.48 -6.3,-8.62 -7.14,-8.73 -7.95,-8.82 -8.75,-8.88 -9.53,-8.91 -10.28,-8.92 -11.02,-8.91 -11.72,-8.87 -12.41,-8.81 -13.07,-8.72 -13.71,-8.61 -14.32,-8.48 -14.9,-8.34 -15.46,-8.17 -16,-7.98 -16.51,-7.78 -17,-7.57 -17.46,-7.34 -17.9,-7.1 -18.32,-6.85 -18.71,-6.59 -19.09,-6.32 -19.44,-6.06 -19.78,-5.78 -20.09,-5.5 -20.39,-5.21 -20.67,-4.91 -20.92,-4.61 -21.16,-4.31 -21.39,-4 -21.59,-3.68 -21.78,-3.37 -21.95,-3.06 -22.11,-2.74 -22.24,-2.42 -22.37,-2.11 -22.48,-1.8 -19.33,0.35 -18.94,0.61 -18.54,0.87 -18.14,1.12 -17.71,1.36 -17.28,1.6 -16.84,1.83 -16.38,2.06 -15.91,2.28 -15.44,2.5 -14.95,2.71 -14.45,2.92 -13.93,3.13 -13.41,3.33 -12.88,3.53 -12.34,3.72 -11.78,3.92 -11.21,4.11 -10.63,4.3 -10.03,4.48 -9.42,4.67 -8.8,4.85 -8.17,5.04 -7.53,5.22 -6.88,5.41 -6.22,5.59 -5.55,5.77 -4.87,5.96 -4.19,6.14 -3.49,6.33 -2.79,6.51 -2.09,6.69 -1.37,6.88 -0.66,7.06 0.06,7.25 0.79,7.43 1.51,7.61 2.24,7.79 2.97,7.97 3.69,8.14 4.42,8.31 5.14,8.48 5.87,8.64 6.59,8.8 7.3,8.95 8.01,9.09 8.71,9.23 9.41,9.36 10.1,9.48 10.78,9.59 11.46,9.69 12.12,9.77 12.77,9.85 13.41,9.91 14.04,9.96 14.66,9.99 15.26,10 15.85,10.01 16.42,9.99 16.98,9.96 17.52,9.91 18.05,9.84 18.56,9.75 19.05,9.65 19.52,9.53 19.94,9.48 20.34,9.42 20.73,9.36 21.1,9.28 21.46,9.19 21.8,9.1 22.12,8.99 22.42,8.88 22.7,8.76 22.96,8.63 23.19,8.49 23.41,8.34 23.6,8.19 23.77,8.03 23.91,7.86" />
      </clipPath>
      <clipPath id="rightEyeClipPath">
        <polyline points="-24.67,3.51 -24.61,3.17 -24.51,2.83 -24.37,2.5 -24.2,2.17 -23.99,1.85 -23.74,1.53 -23.46,1.22 -23.14,0.92 -22.79,0.61 -22.42,0.32 -22.01,0.02 -21.57,-0.26 -21.1,-0.55 -20.6,-0.82 -20.08,-1.09 -19.57,-1.39 -19.01,-1.68 -18.41,-1.97 -17.77,-2.26 -17.1,-2.54 -16.39,-2.82 -15.65,-3.1 -14.88,-3.36 -14.08,-3.62 -13.25,-3.87 -12.4,-4.12 -11.53,-4.35 -10.63,-4.58 -9.73,-4.79 -8.81,-4.99 -7.87,-5.18 -6.93,-5.36 -5.98,-5.53 -5.03,-5.68 -4.07,-5.82 -3.12,-5.95 -2.17,-6.06 -1.22,-6.16 -0.28,-6.24 0.65,-6.31 1.57,-6.37 2.48,-6.41 3.38,-6.43 4.25,-6.45 5.12,-6.44 5.96,-6.43 6.78,-6.4 7.58,-6.35 8.37,-6.3 9.12,-6.23 9.86,-6.15 10.57,-6.06 11.26,-5.95 11.92,-5.84 12.56,-5.72 13.17,-5.59 13.76,-5.45 14.32,-5.31 14.86,-5.15 15.38,-5 15.87,-4.84 16.35,-4.67 16.8,-4.5 17.23,-4.33 17.64,-4.16 18.03,-3.99 18.4,-3.81 18.76,-3.64 19.1,-3.46 19.41,-3.28 19.72,-3.1 20,-2.91 20.27,-2.73 20.52,-2.55 20.75,-2.37 20.97,-2.19 21.18,-2.01 21.37,-1.83 21.54,-1.65 19.81,0.45 19.51,0.56 19.2,0.67 18.87,0.78 18.54,0.88 18.2,0.99 17.84,1.1 17.48,1.21 17.1,1.33 16.71,1.44 16.31,1.56 15.9,1.67 15.48,1.79 15.05,1.92 14.6,2.04 14.15,2.17 13.68,2.3 13.2,2.43 12.7,2.57 12.19,2.71 11.67,2.85 11.13,3 10.58,3.15 10.01,3.31 9.43,3.47 8.84,3.64 8.24,3.81 7.62,3.99 6.99,4.17 6.35,4.35 5.69,4.54 5.03,4.73 4.35,4.93 3.66,5.12 2.97,5.32 2.26,5.52 1.54,5.72 0.82,5.92 0.09,6.12 -0.65,6.31 -1.4,6.51 -2.15,6.69 -2.9,6.88 -3.66,7.05 -4.42,7.22 -5.19,7.38 -5.95,7.53 -6.72,7.67 -7.48,7.8 -8.24,7.92 -9,8.02 -9.75,8.1 -10.5,8.17 -11.25,8.22 -11.98,8.25 -12.71,8.26 -13.43,8.25 -14.14,8.22 -14.84,8.17 -15.52,8.09 -16.2,7.99 -16.85,7.87 -17.49,7.72 -18.12,7.55 -18.72,7.36 -19.25,7.27 -19.77,7.16 -20.27,7.04 -20.76,6.91 -21.23,6.77 -21.68,6.62 -22.12,6.45 -22.53,6.27 -22.93,6.09 -23.3,5.89 -23.65,5.68 -23.97,5.46 -24.28,5.23 -24.55,4.99 -24.8,4.75" />
      </clipPath>
      <filter id="fuzzy">
        <feTurbulence id="turbulence" baseFrequency="0.05" numOctaves="3" type="noise" result="noise" />
        <feDisplacementMap in="SourceGraphic" in2="noise" scale="2" />
      </filter>
      <linearGradient id="rainbowGradient" x1="0%" y1="0%" x2="100%" y2="0%">
        <stop offset="0%" style="stop-color: rgb(185, 55, 55); stop-opacity: 1" />
        <stop offset="50%" style="stop-color: rgb(220, 20, 60); stop-opacity: 1" />
        <stop offset="100%" style="stop-color: rgb(255, 192, 203); stop-opacity: 1" />
      </linearGradient>
    </defs>
    <rect x="-100" y="-100" width="100%" height="100%" fill="rgb(255, 253, 208)" />
    <polyline id="faceContour" points="60.17,1.03 60.1,1.84 60.18,1.98 59.84,4.75 59.96,3.47 59.99,5.89 59.85,6.43 59.69,11.33 59.55,9.74 59.47,13.06 59.36,14.01 59.38,13.56 58.92,16.22 58.82,17.11 58.59,19.63 58.15,21.42 58.29,20.16 57.99,22.28 57.73,23.52 57.47,24.52 56.94,27.52 56.78,28.35 56.48,29.2 55.71,32.6 55.5,33.11 55.41,33.73 55.73,32.9 55.02,35.35 54.19,37.94 54.05,37.79 53.51,39.86 52.82,41.47 52.3,42.56 52.28,42.52 51.61,44.36 50.63,46.45 50.62,46.93 50.17,47.62 49.38,49.52 49.2,49.7 48.37,51.45 48.01,52.16 47.71,52.92 47.84,52.75 46.11,55.81 45.58,56.93 44.93,57.93 44.34,58.82 43.15,60.73 41.92,62.59 42.83,61.06 42.32,61.82 40.3,64.69 39.84,65.48 40.45,64.36 37.7,67.96 37.55,68.03 37.79,67.75 37.02,68.8 36.32,69.42 35.36,70.55 34.88,70.9 33.7,72.15 32.47,73.19 33.52,72.32 32.28,73.64 30.13,75.39 29.59,76.03 28.97,76.45 28.08,76.82 27.12,78.05 25.58,78.73 25.3,78.88 24.96,79.22 23.81,80.05 22.08,81.16 21.94,81.02 19.57,82.68 21.26,81.58 20,82.08 18.89,82.95 17.28,83.33 16.06,83.95 16.49,83.75 16.16,83.85 13.65,85.1 14.05,84.77 12.93,84.95 11.19,85.76 10.35,85.96 8.37,86.13 7.91,86.45 7.91,86.65 6.85,86.82 6.97,86.52 4.13,87.06 4.15,86.81 2.6,86.99 0.72,87.1 1.64,87.17 0.64,87.24 -0.69,86.99 -2.65,87.17 -3.33,87.13 -3.12,87.14 -5.98,86.8 -4.96,86.83 -7.75,86.36 -9.01,86.02 -8.81,86.4 -8.98,86.15 -10.26,85.67 -12.21,85.54 -12.44,85.37 -12.42,85.42 -13.55,85.1 -13.84,85.08 -16.33,83.83 -17.96,83.34 -17.97,83.26 -18.69,82.69 -19.4,82.57 -19.14,82.55 -21.17,81.31 -22.36,80.96 -22.97,80.76 -24.27,79.74 -26.3,78.18 -26.16,78.65 -25.64,78.93 -26.57,78.3 -27.93,77.4 -28.46,76.71 -29.24,76.29 -31.99,73.88 -31.49,74.33 -31.57,74.47 -33.85,72.05 -33.61,72.11 -34.84,70.94 -34.17,71.68 -35.54,70.16 -36.48,69.51 -37.4,68.25 -38.03,67.55 -38.29,67.14 -39.82,65.43 -40.76,64.32 -41.29,63.33 -40.88,63.67 -43.2,60.73 -42.23,62.13 -43.46,60.04 -45.31,57.41 -45.26,57.47 -45.64,56.64 -46,55.71 -47.31,53.9 -47.46,53.79 -47.47,53.34 -49.19,49.76 -49.84,48.53 -49.41,49.29 -49.6,48.77 -50.26,47.68 -50.72,46.67 -51.21,45.52 -52.39,42.79 -52.43,42.78 -52.69,41.52 -54.28,37.42 -53.83,38.62 -54.22,37.68 -55.25,34.54 -55.55,33.37 -55.66,32.81 -55.75,32.38 -55.89,32.41 -56.7,29.03 -56.83,27.82 -57.25,26.23 -57.71,24.39 -57.46,24.7 -57.55,24.9 -58.17,21.17 -58.47,20.67 -58.24,20.89 -58.94,16.95 -59.17,15.75 -58.9,17.42 -59.27,14.57 -59.58,10.54 -59.56,10.65 -59.48,10.96 -59.83,7.8 -60.02,6.35 -59.86,6.45 -60,3.84 -59.9,4.12 -60.09,2.83 -59.98,-1.22 -60.19,-2.24 -60.1,-1.44 -59.86,-5.01 -59.78,-6.65 -59.7,-7.72 -59.76,-8.14 -59.56,-9.97 -59.65,-11.66 -59.46,-11 -59.37,-13.47 -59.31,-14.51 -58.99,-17.26 -58.99,-17.09 -58.47,-19.48 -58.09,-21.53 -58.1,-21.91 -58.12,-22.5 -58.02,-22.52 -57.38,-25.18 -57.22,-26.58 -57.09,-26.77 -56.25,-30.19 -56.43,-30.25 -55.92,-32.46 -55.19,-34.57 -55.49,-34.15 -54.58,-36.34 -54.67,-36.5 -53.54,-39.77 -53.27,-40.48 -52.53,-42.25 -53,-40.88 -52.5,-42.7 -51.48,-45.45 -50.86,-46.31 -50.8,-46.35 -50.55,-47.38 -49.7,-49.02 -49.35,-49.95 -49.06,-50.83 -47.1,-54.32 -47.02,-54.24 -46.49,-55.35 -46.5,-55.24 -45.58,-57.26 -45.25,-57.48 -45.29,-57.31 -43.92,-59.7 -42.82,-61.15 -42.01,-62.41 -41.49,-63.19 -41.02,-63.54 -40.82,-64.14 -39.51,-65.9 -39.54,-65.66 -39.32,-65.88 -37.49,-68.43 -36.89,-68.93 -35.54,-70.56 -35.49,-70.48 -35.1,-70.71 -34.59,-71.59 -33.64,-72.42 -33.28,-72.79 -31.72,-74.43 -29.57,-76.17 -28.96,-76.36 -29.35,-76.32 -28.39,-76.79 -26.49,-78.56 -26.65,-78.21 -26.49,-78.37 -24.87,-79.62 -23.01,-80.61 -23.6,-80.34 -23.06,-80.91 -21.1,-81.75 -19.92,-82.24 -19.44,-82.58 -18.49,-82.94 -17.52,-83.49 -17.19,-83.41 -15.3,-84.28 -15.3,-84.61 -14.55,-84.86 -12.7,-85.28 -12.6,-85.48 -11.2,-85.95 -10.23,-85.89 -10.34,-86.01 -8.63,-86.3 -8.57,-86.34 -6.06,-86.77 -6.23,-86.94 -5.66,-86.96 -3.12,-87.04 -0.94,-87.33 -2.14,-87.13 -1.72,-87.4 -0.01,-87.44 0.84,-87.51 3.75,-86.99 1.99,-87.3 4.38,-87.16 4.63,-86.83 5.91,-86.7 6.36,-86.73 7.48,-86.61 7.84,-86.74 9.93,-86.23 10.9,-85.91 10.76,-86.12 12.14,-85.46 12.34,-85.62 15.17,-84.39 15.54,-84.5 15.49,-84.16 16.65,-83.76 19.11,-82.65 17.91,-83.5 20.1,-82.13 21.29,-81.72 21.2,-81.58 22.3,-80.9 23.73,-80.16 23.99,-79.82 25.65,-79 25.54,-78.85 26.18,-78.5 27.73,-77.38 28.29,-77.2 29.03,-76.78 30.65,-74.89 30.97,-74.8 31.97,-73.97 31.83,-73.82 33.04,-72.81 35.08,-70.86 34.51,-71.57 35.25,-70.53 35.5,-70.79 37.16,-68.55 37.51,-68.25 37.45,-68.21 38.68,-66.84 40.31,-64.65 40.27,-64.47 40.12,-64.84 42.56,-61.95 42.56,-61.7 42.7,-61.43 44.32,-58.82 44.11,-59.22 45.74,-56.63 45.19,-57.53 45.75,-56.88 46.82,-54.73 46.9,-54.61 48.14,-52.69 48.36,-52.21 50.11,-48.65 49.48,-49.61 49.86,-49.25 51.27,-45.69 51.73,-44.19 51.54,-45.08 52.06,-43.08 52.83,-41.51 52.69,-41.54 53.93,-38.89 53.62,-39.69 54.44,-36.88 54.61,-36.17 55.16,-34.16 55.62,-33.01 56.06,-31.34 56.53,-29.58 56.16,-30.81 56.99,-27.11 57.46,-25.03 57.35,-25.62 57.42,-25.41 57.75,-23.87 58.32,-21.23 58.31,-21.21 58.9,-18.33 58.95,-17.26 58.98,-15.96 59.39,-13.26 59.44,-13.43 59.32,-12.7 59.5,-12.86 59.6,-10.57 59.86,-9.24 59.93,-7.79 59.93,-4.67 60.03,-2.44 60.2,-1.13 59.96,0.56 60.17,1.03 60.1,1.84" fill="rgb(255, 239, 213)" stroke="black" stroke-width="1.6666666666666665" stroke-linejoin="round" filter="url(#fuzzy)" />
    <g transform="translate(23.89 -22.810000000000002)">
      <polyline id="rightCountour" points="-24.67,3.51 -24.61,3.17 -24.51,2.83 -24.37,2.5 -24.2,2.17 -23.99,1.85 -23.74,1.53 -23.46,1.22 -23.14,0.92 -22.79,0.61 -22.42,0.32 -22.01,0.02 -21.57,-0.26 -21.1,-0.55 -20.6,-0.82 -20.08,-1.09 -19.57,-1.39 -19.01,-1.68 -18.41,-1.97 -17.77,-2.26 -17.1,-2.54 -16.39,-2.82 -15.65,-3.1 -14.88,-3.36 -14.08,-3.62 -13.25,-3.87 -12.4,-4.12 -11.53,-4.35 -10.63,-4.58 -9.73,-4.79 -8.81,-4.99 -7.87,-5.18 -6.93,-5.36 -5.98,-5.53 -5.03,-5.68 -4.07,-5.82 -3.12,-5.95 -2.17,-6.06 -1.22,-6.16 -0.28,-6.24 0.65,-6.31 1.57,-6.37 2.48,-6.41 3.38,-6.43 4.25,-6.45 5.12,-6.44 5.96,-6.43 6.78,-6.4 7.58,-6.35 8.37,-6.3 9.12,-6.23 9.86,-6.15 10.57,-6.06 11.26,-5.95 11.92,-5.84 12.56,-5.72 13.17,-5.59 13.76,-5.45 14.32,-5.31 14.86,-5.15 15.38,-5 15.87,-4.84 16.35,-4.67 16.8,-4.5 17.23,-4.33 17.64,-4.16 18.03,-3.99 18.4,-3.81 18.76,-3.64 19.1,-3.46 19.41,-3.28 19.72,-3.1 20,-2.91 20.27,-2.73 20.52,-2.55 20.75,-2.37 20.97,-2.19 21.18,-2.01 21.37,-1.83 21.54,-1.65 19.81,0.45 19.51,0.56 19.2,0.67 18.87,0.78 18.54,0.88 18.2,0.99 17.84,1.1 17.48,1.21 17.1,1.33 16.71,1.44 16.31,1.56 15.9,1.67 15.48,1.79 15.05,1.92 14.6,2.04 14.15,2.17 13.68,2.3 13.2,2.43 12.7,2.57 12.19,2.71 11.67,2.85 11.13,3 10.58,3.15 10.01,3.31 9.43,3.47 8.84,3.64 8.24,3.81 7.62,3.99 6.99,4.17 6.35,4.35 5.69,4.54 5.03,4.73 4.35,4.93 3.66,5.12 2.97,5.32 2.26,5.52 1.54,5.72 0.82,5.92 0.09,6.12 -0.65,6.31 -1.4,6.51 -2.15,6.69 -2.9,6.88 -3.66,7.05 -4.42,7.22 -5.19,7.38 -5.95,7.53 -6.72,7.67 -7.48,7.8 -8.24,7.92 -9,8.02 -9.75,8.1 -10.5,8.17 -11.25,8.22 -11.98,8.25 -12.71,8.26 -13.43,8.25 -14.14,8.22 -14.84,8.17 -15.52,8.09 -16.2,7.99 -16.85,7.87 -17.49,7.72 -18.12,7.55 -18.72,7.36 -19.25,7.27 -19.77,7.16 -20.27,7.04 -20.76,6.91 -21.23,6.77 -21.68,6.62 -22.12,6.45 -22.53,6.27 -22.93,6.09 -23.3,5.89 -23.65,5.68 -23.97,5.46 -24.28,5.23 -24.55,4.99 -24.8,4.75" fill="white" stroke="white" stroke-width="0" stroke-linejoin="round" filter="url(#fuzzy)" />
    </g>
    <g transform="translate(-23.28 -25.580000000000002)">
      <polyline id="leftCountour" points="23.22,5.93 23.03,5.62 22.8,5.3 22.55,4.98 22.26,4.66 21.95,4.33 21.6,3.99 21.23,3.66 20.82,3.31 20.39,2.97 19.94,2.62 19.45,2.27 18.95,1.91 18.42,1.55 17.86,1.19 17.29,0.83 16.7,0.47 16.08,0.1 15.42,-0.28 14.73,-0.67 14.01,-1.07 13.26,-1.48 12.48,-1.89 11.68,-2.31 10.85,-2.72 10.01,-3.14 9.14,-3.55 8.26,-3.96 7.36,-4.37 6.46,-4.76 5.54,-5.15 4.61,-5.52 3.68,-5.89 2.75,-6.23 1.81,-6.56 0.88,-6.88 -0.05,-7.17 -0.97,-7.45 -1.89,-7.7 -2.8,-7.93 -3.69,-8.14 -4.58,-8.32 -5.45,-8.48 -6.3,-8.62 -7.14,-8.73 -7.95,-8.82 -8.75,-8.88 -9.53,-8.91 -10.28,-8.92 -11.02,-8.91 -11.72,-8.87 -12.41,-8.81 -13.07,-8.72 -13.71,-8.61 -14.32,-8.48 -14.9,-8.34 -15.46,-8.17 -16,-7.98 -16.51,-7.78 -17,-7.57 -17.46,-7.34 -17.9,-7.1 -18.32,-6.85 -18.71,-6.59 -19.09,-6.32 -19.44,-6.06 -19.78,-5.78 -20.09,-5.5 -20.39,-5.21 -20.67,-4.91 -20.92,-4.61 -21.16,-4.31 -21.39,-4 -21.59,-3.68 -21.78,-3.37 -21.95,-3.06 -22.11,-2.74 -22.24,-2.42 -22.37,-2.11 -22.48,-1.8 -19.33,0.35 -18.94,0.61 -18.54,0.87 -18.14,1.12 -17.71,1.36 -17.28,1.6 -16.84,1.83 -16.38,2.06 -15.91,2.28 -15.44,2.5 -14.95,2.71 -14.45,2.92 -13.93,3.13 -13.41,3.33 -12.88,3.53 -12.34,3.72 -11.78,3.92 -11.21,4.11 -10.63,4.3 -10.03,4.48 -9.42,4.67 -8.8,4.85 -8.17,5.04 -7.53,5.22 -6.88,5.41 -6.22,5.59 -5.55,5.77 -4.87,5.96 -4.19,6.14 -3.49,6.33 -2.79,6.51 -2.09,6.69 -1.37,6.88 -0.66,7.06 0.06,7.25 0.79,7.43 1.51,7.61 2.24,7.79 2.97,7.97 3.69,8.14 4.42,8.31 5.14,8.48 5.87,8.64 6.59,8.8 7.3,8.95 8.01,9.09 8.71,9.23 9.41,9.36 10.1,9.48 10.78,9.59 11.46,9.69 12.12,9.77 12.77,9.85 13.41,9.91 14.04,9.96 14.66,9.99 15.26,10 15.85,10.01 16.42,9.99 16.98,9.96 17.52,9.91 18.05,9.84 18.56,9.75 19.05,9.65 19.52,9.53 19.94,9.48 20.34,9.42 20.73,9.36 21.1,9.28 21.46,9.19 21.8,9.1 22.12,8.99 22.42,8.88 22.7,8.76 22.96,8.63 23.19,8.49 23.41,8.34 23.6,8.19 23.77,8.03 23.91,7.86" fill="white" stroke="white" stroke-width="0" stroke-linejoin="round" filter="url(#fuzzy)" />
    </g>
    <g transform="translate(23.89 -22.810000000000002)">
      <polyline id="rightUpper" points="-23.04,7.27 -23.4,6.86 -23.71,6.46 -23.98,6.07 -24.2,5.69 -24.39,5.31 -24.53,4.94 -24.62,4.57 -24.68,4.21 -24.7,3.86 -24.67,3.51 -24.61,3.17 -24.51,2.83 -24.37,2.5 -24.2,2.17 -23.99,1.85 -23.74,1.53 -23.46,1.22 -23.14,0.92 -22.79,0.61 -22.42,0.32 -22.01,0.02 -21.57,-0.26 -21.1,-0.55 -20.6,-0.82 -20.08,-1.09 -19.57,-1.39 -19.01,-1.68 -18.41,-1.97 -17.77,-2.26 -17.1,-2.54 -16.39,-2.82 -15.65,-3.1 -14.88,-3.36 -14.08,-3.62 -13.25,-3.87 -12.4,-4.12 -11.53,-4.35 -10.63,-4.58 -9.73,-4.79 -8.81,-4.99 -7.87,-5.18 -6.93,-5.36 -5.98,-5.53 -5.03,-5.68 -4.07,-5.82 -3.12,-5.95 -2.17,-6.06 -1.22,-6.16 -0.28,-6.24 0.65,-6.31 1.57,-6.37 2.48,-6.41 3.38,-6.43 4.25,-6.45 5.12,-6.44 5.96,-6.43 6.78,-6.4 7.58,-6.35 8.37,-6.3 9.12,-6.23 9.86,-6.15 10.57,-6.06 11.26,-5.95 11.92,-5.84 12.56,-5.72 13.17,-5.59 13.76,-5.45 14.32,-5.31 14.86,-5.15 15.38,-5 15.87,-4.84 16.35,-4.67 16.8,-4.5 17.23,-4.33 17.64,-4.16 18.03,-3.99 18.4,-3.81 18.76,-3.64 19.1,-3.46 19.41,-3.28 19.72,-3.1 20,-2.91 20.27,-2.73 20.52,-2.55 20.75,-2.37 20.97,-2.19 21.18,-2.01 21.37,-1.83 21.54,-1.65 21.71,-1.48 21.86,-1.31 21.99,-1.14 22.12,-0.98 22.23,-0.82 22.33,-0.66 22.42,-0.5 22.5,-0.35 22.57,-0.2 22.63,-0.05" fill="none" stroke="black" stroke-width="1.6666666666666665" stroke-linejoin="round" filter="url(#fuzzy)" />
      <polyline id="rightLower" points="-25.49,2.09 -25.59,2.35 -25.65,2.62 -25.66,2.89 -25.64,3.17 -25.58,3.44 -25.49,3.71 -25.37,3.97 -25.21,4.24 -25.02,4.49 -24.8,4.75 -24.55,4.99 -24.28,5.23 -23.97,5.46 -23.65,5.68 -23.3,5.89 -22.93,6.09 -22.53,6.27 -22.12,6.45 -21.68,6.62 -21.23,6.77 -20.76,6.91 -20.27,7.04 -19.77,7.16 -19.25,7.27 -18.72,7.36 -18.12,7.55 -17.49,7.72 -16.85,7.87 -16.2,7.99 -15.52,8.09 -14.84,8.17 -14.14,8.22 -13.43,8.25 -12.71,8.26 -11.98,8.25 -11.25,8.22 -10.5,8.17 -9.75,8.1 -9,8.02 -8.24,7.92 -7.48,7.8 -6.72,7.67 -5.95,7.53 -5.19,7.38 -4.42,7.22 -3.66,7.05 -2.9,6.88 -2.15,6.69 -1.4,6.51 -0.65,6.31 0.09,6.12 0.82,5.92 1.54,5.72 2.26,5.52 2.97,5.32 3.66,5.12 4.35,4.93 5.03,4.73 5.69,4.54 6.35,4.35 6.99,4.17 7.62,3.99 8.24,3.81 8.84,3.64 9.43,3.47 10.01,3.31 10.58,3.15 11.13,3 11.67,2.85 12.19,2.71 12.7,2.57 13.2,2.43 13.68,2.3 14.15,2.17 14.6,2.04 15.05,1.92 15.48,1.79 15.9,1.67 16.31,1.56 16.71,1.44 17.1,1.33 17.48,1.21 17.84,1.1 18.2,0.99 18.54,0.88 18.87,0.78 19.2,0.67 19.51,0.56 19.81,0.45 20.1,0.34 20.38,0.24 20.65,0.13 20.91,0.02 21.16,-0.09 21.4,-0.21 21.63,-0.32 21.85,-0.43 22.06,-0.55 22.26,-0.66" fill="none" stroke="black" stroke-width="2.2222222222222223" stroke-linejoin="round" filter="url(#fuzzy)" />
      <circle r="3.676" cx="19.842169742142858" cy="-3.809479621939035" stroke="black" fill="none" stroke-width="1.0" filter="url(#fuzzy)" clip-path="url(#rightEyeClipPath)" /><circle r="3.318" cx="16.35216974214286" cy="-2.419479621939035" stroke="black" fill="none" stroke-width="1.0" filter="url(#fuzzy)" clip-path="url(#rightEyeClipPath)" /><circle r="3.65" cx="17.987169742142857" cy="-3.2594796219390347" stroke="black" fill="none" stroke-width="1.0" filter="url(#fuzzy)" clip-path="url(#rightEyeClipPath)" /><circle r="3.294" cx="18.19216974214286" cy="-3.6744796219390348" stroke="black" fill="none" stroke-width="1.0" filter="url(#fuzzy)" clip-path="url(#rightEyeClipPath)" /><circle r="4.308" cx="17.572169742142858" cy="-0.8944796219390345" stroke="black" fill="none" stroke-width="1.0" filter="url(#fuzzy)" clip-path="url(#rightEyeClipPath)" /><circle r="4.936" cx="18.33716974214286" cy="-0.4794796219390345" stroke="black" fill="none" stroke-width="1.0" filter="url(#fuzzy)" clip-path="url(#rightEyeClipPath)" /><circle r="3.03" cx="17.022169742142857" cy="-4.264479621939035" stroke="black" fill="none" stroke-width="1.0" filter="url(#fuzzy)" clip-path="url(#rightEyeClipPath)" /><circle r="3.602" cx="19.47716974214286" cy="-4.979479621939035" stroke="black" fill="none" stroke-width="1.0" filter="url(#fuzzy)" clip-path="url(#rightEyeClipPath)" /><circle r="3.382" cx="19.972169742142857" cy="-2.2844796219390346" stroke="black" fill="none" stroke-width="1.0" filter="url(#fuzzy)" clip-path="url(#rightEyeClipPath)" /><circle r="4.462" cx="19.292169742142857" cy="-1.9244796219390348" stroke="black" fill="none" stroke-width="1.0" filter="url(#fuzzy)" clip-path="url(#rightEyeClipPath)" />
      </g>
    <g transform="translate(-23.28 -25.580000000000002)">
      <polyline id="leftUpper" points="23.17,8.9 23.34,8.6 23.47,8.31 23.57,8.02 23.63,7.73 23.65,7.43 23.63,7.14 23.58,6.84 23.49,6.54 23.37,6.24 23.22,5.93 23.03,5.62 22.8,5.3 22.55,4.98 22.26,4.66 21.95,4.33 21.6,3.99 21.23,3.66 20.82,3.31 20.39,2.97 19.94,2.62 19.45,2.27 18.95,1.91 18.42,1.55 17.86,1.19 17.29,0.83 16.7,0.47 16.08,0.1 15.42,-0.28 14.73,-0.67 14.01,-1.07 13.26,-1.48 12.48,-1.89 11.68,-2.31 10.85,-2.72 10.01,-3.14 9.14,-3.55 8.26,-3.96 7.36,-4.37 6.46,-4.76 5.54,-5.15 4.61,-5.52 3.68,-5.89 2.75,-6.23 1.81,-6.56 0.88,-6.88 -0.05,-7.17 -0.97,-7.45 -1.89,-7.7 -2.8,-7.93 -3.69,-8.14 -4.58,-8.32 -5.45,-8.48 -6.3,-8.62 -7.14,-8.73 -7.95,-8.82 -8.75,-8.88 -9.53,-8.91 -10.28,-8.92 -11.02,-8.91 -11.72,-8.87 -12.41,-8.81 -13.07,-8.72 -13.71,-8.61 -14.32,-8.48 -14.9,-8.34 -15.46,-8.17 -16,-7.98 -16.51,-7.78 -17,-7.57 -17.46,-7.34 -17.9,-7.1 -18.32,-6.85 -18.71,-6.59 -19.09,-6.32 -19.44,-6.06 -19.78,-5.78 -20.09,-5.5 -20.39,-5.21 -20.67,-4.91 -20.92,-4.61 -21.16,-4.31 -21.39,-4 -21.59,-3.68 -21.78,-3.37 -21.95,-3.06 -22.11,-2.74 -22.24,-2.42 -22.37,-2.11 -22.48,-1.8 -22.57,-1.48 -22.65,-1.18 -22.72,-0.87 -22.77,-0.57 -22.81,-0.27 -22.84,0.02 -22.85,0.31 -22.86,0.6 -22.85,0.88 -22.83,1.15" fill="none" stroke="black" stroke-width="2.2222222222222223" stroke-linejoin="round" filter="url(#fuzzy)" />
      <polyline id="leftLower" points="23.71,5.99 23.88,6.18 24.01,6.37 24.11,6.57 24.17,6.76 24.2,6.95 24.2,7.14 24.17,7.32 24.11,7.51 24.02,7.69 23.91,7.86 23.77,8.03 23.6,8.19 23.41,8.34 23.19,8.49 22.96,8.63 22.7,8.76 22.42,8.88 22.12,8.99 21.8,9.1 21.46,9.19 21.1,9.28 20.73,9.36 20.34,9.42 19.94,9.48 19.52,9.53 19.05,9.65 18.56,9.75 18.05,9.84 17.52,9.91 16.98,9.96 16.42,9.99 15.85,10.01 15.26,10 14.66,9.99 14.04,9.96 13.41,9.91 12.77,9.85 12.12,9.77 11.46,9.69 10.78,9.59 10.1,9.48 9.41,9.36 8.71,9.23 8.01,9.09 7.3,8.95 6.59,8.8 5.87,8.64 5.14,8.48 4.42,8.31 3.69,8.14 2.97,7.97 2.24,7.79 1.51,7.61 0.79,7.43 0.06,7.25 -0.66,7.06 -1.37,6.88 -2.09,6.69 -2.79,6.51 -3.49,6.33 -4.19,6.14 -4.87,5.96 -5.55,5.77 -6.22,5.59 -6.88,5.41 -7.53,5.22 -8.17,5.04 -8.8,4.85 -9.42,4.67 -10.03,4.48 -10.63,4.3 -11.21,4.11 -11.78,3.92 -12.34,3.72 -12.88,3.53 -13.41,3.33 -13.93,3.13 -14.45,2.92 -14.95,2.71 -15.44,2.5 -15.91,2.28 -16.38,2.06 -16.84,1.83 -17.28,1.6 -17.71,1.36 -18.14,1.12 -18.54,0.87 -18.94,0.61 -19.33,0.35 -19.7,0.09 -20.06,-0.19 -20.41,-0.47 -20.75,-0.75 -21.08,-1.04 -21.39,-1.34 -21.7,-1.65 -21.99,-1.96 -22.27,-2.28 -22.54,-2.6" fill="none" stroke="black" stroke-width="2.2222222222222223" stroke-linejoin="round" filter="url(#fuzzy)" />
      <circle r="4.638" cx="-4.596297367005244" cy="0.27980683538948403" stroke="black" fill="none" stroke-width="1.0" filter="url(#fuzzy)" clip-path="url(#leftEyeClipPath)" /><circle r="3.406" cx="-1.8062973670052442" cy="2.3148068353894837" stroke="black" fill="none" stroke-width="1.0" filter="url(#fuzzy)" clip-path="url(#leftEyeClipPath)" /><circle r="3.624" cx="-4.916297367005244" cy="5.0748068353894835" stroke="black" fill="none" stroke-width="1.0" filter="url(#fuzzy)" clip-path="url(#leftEyeClipPath)" /><circle r="4.498" cx="-2.351297367005244" cy="3.754806835389484" stroke="black" fill="none" stroke-width="1.0" filter="url(#fuzzy)" clip-path="url(#leftEyeClipPath)" /><circle r="4.064" cx="-4.926297367005244" cy="1.8798068353894841" stroke="black" fill="none" stroke-width="1.0" filter="url(#fuzzy)" clip-path="url(#leftEyeClipPath)" /><circle r="3.2359999999999998" cx="-1.4562973670052441" cy="3.6598068353894835" stroke="black" fill="none" stroke-width="1.0" filter="url(#fuzzy)" clip-path="url(#leftEyeClipPath)" /><circle r="4.002" cx="-3.1512973670052444" cy="4.499806835389483" stroke="black" fill="none" stroke-width="1.0" filter="url(#fuzzy)" clip-path="url(#leftEyeClipPath)" /><circle r="4.236" cx="-0.7162973670052439" cy="3.4948068353894843" stroke="black" fill="none" stroke-width="1.0" filter="url(#fuzzy)" clip-path="url(#leftEyeClipPath)" /><circle r="3.902" cx="-1.5762973670052438" cy="2.724806835389484" stroke="black" fill="none" stroke-width="1.0" filter="url(#fuzzy)" clip-path="url(#leftEyeClipPath)" /><circle r="3.414" cx="-1.1012973670052442" cy="1.6048068353894838" stroke="black" fill="none" stroke-width="1.0" filter="url(#fuzzy)" clip-path="url(#leftEyeClipPath)" />
    </g>
    <g id="hairs">
      <polyline points="25.54,-78.85 26.24,-78.33 26.77,-77.69 26.96,-76.99 26.79,-76.24 26.25,-75.44 25.31,-74.63 23.96,-73.81 22.19,-72.96 19.99,-72.08 17.35,-71.16 14.23,-70.21 10.65,-69.25 6.59,-68.26 2.05,-67.22 -2.98,-66.12 -8.53,-64.94 -14.65,-63.62 -21.41,-62.12 -28.87,-60.44 -36.96,-58.7" fill="none" stroke="rgb(185, 55, 55)" stroke-width="2" stroke-linejoin="round" filter="url(#fuzzy)" /><polyline points="48.36,-52.21 49.14,-50.27 48.99,-49.57 48.41,-49.07 47.41,-48.7 45.91,-48.59 43.87,-48.84 41.28,-49.43 38.14,-50.33 34.42,-51.52 30.1,-53.01 25.16,-54.79 19.6,-56.88 13.38,-59.28 6.49,-62.02 -1.08,-65.15 -9.3,-68.75 -18.21,-72.8" fill="none" stroke="rgb(185, 55, 55)" stroke-width="2" stroke-linejoin="round" filter="url(#fuzzy)" /><polyline points="-17.52,-83.49 -16.56,-83.52 -14.85,-83.45 -12.64,-83.11 -9.93,-82.48 -6.75,-81.59 -3.14,-80.46 0.83,-79.08 5.13,-77.47 9.76,-75.66 14.67,-73.68 19.84,-71.59 25.19,-69.46 30.69,-67.25 36.4,-64.83" fill="none" stroke="rgb(185, 55, 55)" stroke-width="2" stroke-linejoin="round" filter="url(#fuzzy)" /><polyline points="23.99,-79.82 25.04,-79.24 25.67,-78.82 26.26,-78.41 26.83,-77.98 27.31,-77.56 27.65,-77.18 27.79,-76.86 27.72,-76.64 27.41,-76.54 26.84,-76.55 26.02,-76.7 24.92,-76.99 23.51,-77.44 21.79,-78.06 19.74,-78.84 17.35,-79.79 14.61,-80.91 11.43,-82.23 7.73,-83.74 3.38,-85.45" fill="none" stroke="rgb(185, 55, 55)" stroke-width="2" stroke-linejoin="round" filter="url(#fuzzy)" /><polyline points="31.97,-73.97 32.29,-73.53 33.05,-72.78 33.75,-72.14 34.2,-71.71 34.43,-71.45 34.48,-71.33 34.32,-71.34 33.93,-71.53 33.28,-71.93 32.3,-72.6 30.95,-73.59 29.13,-74.99 26.81,-76.86 24.1,-79.13" fill="none" stroke="rgb(185, 55, 55)" stroke-width="2" stroke-linejoin="round" filter="url(#fuzzy)" /><polyline points="37.16,-68.55 37.26,-68.33 37.14,-67.98 36.74,-67.55 35.88,-67.28 34.46,-67.27 32.45,-67.53 29.81,-68.05 26.5,-68.81 22.47,-69.85 17.69,-71.18 12.14,-72.83 5.77,-74.83 -1.46,-77.2 -9.55,-79.96" fill="none" stroke="rgb(185, 55, 55)" stroke-width="2" stroke-linejoin="round" filter="url(#fuzzy)" /><polyline points="44.32,-58.82 44.43,-58.61 44.5,-58.26 44.25,-58.21 43.67,-58.38 42.77,-58.77 41.5,-59.42 39.8,-60.41 37.61,-61.8 34.86,-63.68 31.49,-66.1 27.47,-69.06 22.81,-72.56 17.52,-76.62 11.52,-81.38" fill="none" stroke="rgb(185, 55, 55)" stroke-width="2" stroke-linejoin="round" filter="url(#fuzzy)" /><polyline points="9.93,-86.23 10.56,-86.04 11.08,-85.86 11.66,-85.61 12.25,-85.29 12.73,-84.96 13.01,-84.63 13.07,-84.31 12.9,-83.99 12.49,-83.69 11.83,-83.38 10.88,-83.07 9.62,-82.75 8.05,-82.44 6.13,-82.13 3.86,-81.84 1.2,-81.56 -1.89,-81.31 -5.44,-81.05 -9.47,-80.79 -13.93,-80.53 -18.6,-80.38" fill="none" stroke="rgb(185, 55, 55)" stroke-width="2" stroke-linejoin="round" filter="url(#fuzzy)" /><polyline points="50.11,-48.65 49.86,-48.96 50.05,-48.32 50.27,-47.44 50.33,-46.76 50.18,-46.41 49.82,-46.34 49.27,-46.53 48.52,-46.98 47.54,-47.69 46.31,-48.69 44.82,-49.97 43.04,-51.57 40.96,-53.53 38.56,-55.89 35.82,-58.7 32.72,-61.98 29.24,-65.74 25.34,-69.99 20.94,-74.76 16.09,-80.12" fill="none" stroke="rgb(185, 55, 55)" stroke-width="2" stroke-linejoin="round" filter="url(#fuzzy)" /><polyline points="-23.6,-80.34 -22.56,-80.91 -21.02,-81.42 -19.36,-81.79 -17.59,-82.05 -15.71,-82.22 -13.68,-82.35 -11.52,-82.43 -9.23,-82.49 -6.82,-82.52 -4.33,-82.52 -1.79,-82.48 0.78,-82.42 3.35,-82.33 5.89,-82.21 8.41,-82.06 10.89,-81.9 13.33,-81.73 15.66,-81.59 17.79,-81.5 19.64,-81.49" fill="none" stroke="rgb(185, 55, 55)" stroke-width="2" stroke-linejoin="round" filter="url(#fuzzy)" /><polyline points="49.86,-49.25 50.79,-46.76 51.12,-45.57 51.15,-44.95 51.01,-44.57 50.7,-44.35 50.2,-44.34 49.5,-44.53 48.55,-44.95 47.35,-45.6 45.88,-46.52 44.13,-47.73 42.08,-49.28 39.71,-51.2 37,-53.51 33.93,-56.21 30.51,-59.32 26.74,-62.85 22.6,-66.84 18.08,-71.31 13.2,-76.21 8.13,-81.45" fill="none" stroke="rgb(185, 55, 55)" stroke-width="2" stroke-linejoin="round" filter="url(#fuzzy)" /><polyline points="-12.7,-85.28 -12.16,-85.52 -11.22,-85.73 -10.17,-85.89 -9.04,-86.05 -7.84,-86.21 -6.56,-86.39 -5.26,-86.55 -3.97,-86.7 -2.74,-86.83 -1.6,-86.94 -0.62,-87.03 0.16,-87.11 0.73,-87.18 1.09,-87.23 1.22,-87.28 1.05,-87.3 0.53,-87.31 -0.24,-87.29 -0.93,-87.25" fill="none" stroke="rgb(185, 55, 55)" stroke-width="2" stroke-linejoin="round" filter="url(#fuzzy)" /><polyline points="20.1,-82.13 20.98,-81.71 21.84,-81.12 22.89,-80.35 24.08,-79.46 25.32,-78.5 26.57,-77.51 27.82,-76.5 29.06,-75.49 30.28,-74.47 31.48,-73.48 32.6,-72.53 33.61,-71.66 34.47,-70.9 35.16,-70.31 35.68,-69.89 36.03,-69.64 36.2,-69.58 36.13,-69.76 35.74,-70.22" fill="none" stroke="rgb(185, 55, 55)" stroke-width="2" stroke-linejoin="round" filter="url(#fuzzy)" /><polyline points="-19.44,-82.58 -18.51,-82.96 -17.51,-83.35 -16.45,-83.77 -15.34,-84.2 -14.24,-84.62 -13.18,-85.02 -12.2,-85.36 -11.33,-85.64 -10.63,-85.85 -10.12,-85.99 -9.81,-86.07 -9.73,-86.09 -9.88,-86.06 -10.32,-85.96 -11.15,-85.75 -12.46,-85.39" fill="none" stroke="rgb(185, 55, 55)" stroke-width="2" stroke-linejoin="round" filter="url(#fuzzy)" /><polyline points="35.08,-70.86 34.94,-71.04 35.25,-70.72 35.74,-70.19 36.24,-69.61 36.64,-69.08 36.94,-68.63 37.09,-68.29 37.07,-68.09 36.87,-68.08 36.43,-68.27 35.75,-68.69 34.79,-69.36 33.51,-70.31 31.89,-71.56 29.93,-73.16 27.57,-75.13 24.78,-77.5 21.69,-80.19" fill="none" stroke="rgb(185, 55, 55)" stroke-width="2" stroke-linejoin="round" filter="url(#fuzzy)" /><polyline points="16.65,-83.76 18.04,-83.19 18.82,-82.85 19.55,-82.49 20.19,-82.12 20.68,-81.81 20.98,-81.55 21.08,-81.39 20.92,-81.32 20.48,-81.38 19.7,-81.56 18.56,-81.87 17.07,-82.31 15.21,-82.88 12.93,-83.62 10.15,-84.56 6.67,-85.78" fill="none" stroke="rgb(185, 55, 55)" stroke-width="2" stroke-linejoin="round" filter="url(#fuzzy)" /><polyline points="-29.57,-76.17 -29.15,-76.36 -28.59,-76.74 -27.77,-77.32 -26.82,-77.98 -25.84,-78.65 -24.85,-79.3 -23.88,-79.93 -22.94,-80.52 -22.08,-81.05 -21.32,-81.5 -20.67,-81.87 -20.19,-82.14 -19.91,-82.28 -19.88,-82.29 -20.13,-82.16 -20.65,-81.87 -21.42,-81.44 -22.48,-80.83 -24.09,-79.89" fill="none" stroke="rgb(185, 55, 55)" stroke-width="2" stroke-linejoin="round" filter="url(#fuzzy)" /><polyline points="50.11,-48.65 49.87,-48.97 50.07,-48.33 50.32,-47.46 50.42,-46.81 50.3,-46.5 49.98,-46.52 49.47,-46.84 48.74,-47.46 47.78,-48.4 46.55,-49.67 45.04,-51.3 43.25,-53.3 41.16,-55.73 38.74,-58.63 35.95,-62.09 32.75,-66.15 29.12,-70.83 25.18,-76.06" fill="none" stroke="rgb(185, 55, 55)" stroke-width="2" stroke-linejoin="round" filter="url(#fuzzy)" /><polyline points="40.31,-64.65 40.26,-64.45 40.31,-63.85 40.21,-63.04 39.76,-62.19 38.92,-61.39 37.65,-60.64 35.94,-59.97 33.8,-59.37 31.21,-58.84 28.19,-58.34 24.74,-57.86 20.86,-57.37 16.52,-56.89 11.69,-56.41 6.3,-55.94 0.35,-55.5 -6.18,-55.1 -13.26,-54.76 -20.84,-54.58 -28.93,-54.6 -37.54,-54.77" fill="none" stroke="rgb(185, 55, 55)" stroke-width="2" stroke-linejoin="round" filter="url(#fuzzy)" /><polyline points="7.84,-86.74 9.45,-86.32 10.61,-85.97 11.67,-85.61 12.81,-85.19 14.03,-84.73 15.23,-84.26 16.31,-83.84 17.2,-83.48 17.88,-83.21 18.31,-83.04 18.46,-83 18.25,-83.09 17.61,-83.35 16.56,-83.84" fill="none" stroke="rgb(185, 55, 55)" stroke-width="2" stroke-linejoin="round" filter="url(#fuzzy)" /><polyline points="-28.96,-76.36 -28.7,-76.54 -27.62,-76.97 -26.2,-77.4 -24.55,-77.74 -22.67,-78.02 -20.57,-78.24 -18.27,-78.42 -15.78,-78.55 -13.14,-78.62 -10.34,-78.65 -7.42,-78.63 -4.41,-78.57 -1.33,-78.45 1.8,-78.29 4.97,-78.08 8.16,-77.84 11.35,-77.6 14.51,-77.36 17.63,-77.11 20.74,-76.84 23.79,-76.56 26.67,-76.39" fill="none" stroke="rgb(185, 55, 55)" stroke-width="2" stroke-linejoin="round" filter="url(#fuzzy)" /><polyline points="42.56,-61.7 42.86,-60.96 42.96,-60.09 42.58,-59.49 41.68,-59.17 40.27,-59.08 38.36,-59.14 35.95,-59.31 33.05,-59.57 29.6,-59.97 25.56,-60.56 20.88,-61.37 15.55,-62.45 9.55,-63.8 2.89,-65.41 -4.45,-67.34 -12.48,-69.64 -21.39,-72.18" fill="none" stroke="rgb(185, 55, 55)" stroke-width="2" stroke-linejoin="round" filter="url(#fuzzy)" /><polyline points="-21.1,-81.75 -20,-82.13 -18.68,-82.41 -17.05,-82.62 -15.12,-82.78 -12.92,-82.89 -10.5,-82.98 -7.9,-83.04 -5.14,-83.05 -2.27,-83.01 0.7,-82.91 3.72,-82.77 6.75,-82.59 9.73,-82.4 12.63,-82.23 15.45,-82.11 18.25,-81.99" fill="none" stroke="rgb(185, 55, 55)" stroke-width="2" stroke-linejoin="round" filter="url(#fuzzy)" /><polyline points="19.11,-82.65 18.95,-82.83 19.6,-82.48 20.27,-82.08 20.76,-81.73 21.07,-81.45 21.16,-81.23 20.99,-81.11 20.54,-81.09 19.76,-81.2 18.65,-81.43 17.19,-81.79 15.33,-82.28 12.99,-82.91 10.08,-83.71 6.51,-84.7 2.34,-85.86" fill="none" stroke="rgb(185, 55, 55)" stroke-width="2" stroke-linejoin="round" filter="url(#fuzzy)" /><polyline points="50.11,-48.65 49.84,-49 49.98,-48.45 50.13,-47.71 50.08,-47.25 49.74,-47.22 49.14,-47.6 48.27,-48.34 47.13,-49.47 45.68,-51 43.91,-52.96 41.78,-55.37 39.25,-58.28 36.31,-61.76 32.92,-65.85 29.12,-70.6 24.92,-76.01" fill="none" stroke="rgb(185, 55, 55)" stroke-width="2" stroke-linejoin="round" filter="url(#fuzzy)" /><polyline points="10.76,-86.12 11.85,-85.67 12.88,-85.3 13.81,-84.94 14.51,-84.63 14.99,-84.37 15.27,-84.15 15.33,-83.99 15.15,-83.89 14.65,-83.86 13.8,-83.9 12.54,-84.03 10.88,-84.24 8.83,-84.55 6.42,-84.97 3.5,-85.5 -0.34,-86.17" fill="none" stroke="rgb(185, 55, 55)" stroke-width="2" stroke-linejoin="round" filter="url(#fuzzy)" /><polyline points="45.19,-57.53 45.49,-56.68 45.14,-55.85 44.07,-55.23 42.27,-54.8 39.66,-54.58 36.17,-54.62 31.76,-54.91 26.42,-55.46 20.17,-56.27 13.01,-57.41 4.93,-58.94 -4.1,-60.88 -14.13,-63.14 -25.27,-65.63" fill="none" stroke="rgb(185, 55, 55)" stroke-width="2" stroke-linejoin="round" filter="url(#fuzzy)" /><polyline points="-0.01,-87.44 1.21,-87.34 2.41,-87.16 3.49,-86.96 4.59,-86.71 5.76,-86.45 6.98,-86.16 8.22,-85.88 9.49,-85.58 10.75,-85.27 11.98,-84.95 13.15,-84.62 14.25,-84.3 15.26,-83.98 16.15,-83.7 16.92,-83.45 17.53,-83.26 17.95,-83.13 18.16,-83.08 18.15,-83.12 17.9,-83.24 17.4,-83.46 16.7,-83.77 15.94,-84.13" fill="none" stroke="rgb(185, 55, 55)" stroke-width="2" stroke-linejoin="round" filter="url(#fuzzy)" /><polyline points="-28.39,-76.79 -27.21,-77.84 -26.54,-78.35 -25.87,-78.81 -25.14,-79.29 -24.45,-79.73 -23.84,-80.09 -23.32,-80.34 -22.91,-80.48 -22.62,-80.5 -22.48,-80.39 -22.53,-80.14 -22.76,-79.75 -23.2,-79.2 -23.88,-78.47 -24.8,-77.53 -26,-76.37 -27.45,-74.97 -29.17,-73.38 -31.16,-71.58 -33.43,-69.58 -35.99,-67.38 -38.83,-65.01" fill="none" stroke="rgb(185, 55, 55)" stroke-width="2" stroke-linejoin="round" filter="url(#fuzzy)" /><polyline points="-19.44,-82.58 -18.58,-82.94 -17.81,-83.27 -17.11,-83.56 -16.51,-83.81 -16.05,-83.98 -15.74,-84.05 -15.6,-83.99 -15.68,-83.78 -16.01,-83.41 -16.65,-82.87 -17.62,-82.13 -18.97,-81.16 -20.72,-79.93 -22.91,-78.44 -25.5,-76.7 -28.48,-74.75 -31.79,-72.63" fill="none" stroke="rgb(185, 55, 55)" stroke-width="2" stroke-linejoin="round" filter="url(#fuzzy)" /><polyline points="12.14,-85.46 12.89,-85.24 13.69,-84.77 14.08,-84.28 14.1,-83.75 13.81,-83.15 13.2,-82.46 12.24,-81.69 10.91,-80.83 9.2,-79.89 7.07,-78.87 4.5,-77.76 1.47,-76.54 -2.08,-75.19 -6.15,-73.71 -10.76,-72.12 -15.88,-70.46 -21.5,-68.71 -27.63,-66.88 -34.3,-64.99" fill="none" stroke="rgb(185, 55, 55)" stroke-width="2" stroke-linejoin="round" filter="url(#fuzzy)" /><polyline points="48.14,-52.69 48.59,-51.65 48.92,-50.66 48.95,-50.01 48.76,-49.56 48.32,-49.31 47.61,-49.32 46.6,-49.67 45.26,-50.35 43.61,-51.35 41.62,-52.68 39.28,-54.33 36.57,-56.32 33.48,-58.65 30,-61.36 26.1,-64.48 21.76,-68.05 16.92,-72.12 11.44,-76.73 5.23,-81.87" fill="none" stroke="rgb(185, 55, 55)" stroke-width="2" stroke-linejoin="round" filter="url(#fuzzy)" /><polyline points="-2.14,-87.13 -1.19,-87.17 0.47,-86.84 2.48,-86.19 4.67,-85.3 7,-84.2 9.48,-82.92 12.15,-81.49 14.97,-79.95 17.92,-78.33 20.96,-76.67 24.07,-74.97 27.19,-73.23 30.27,-71.46 33.31,-69.65 36.25,-67.9" fill="none" stroke="rgb(185, 55, 55)" stroke-width="2" stroke-linejoin="round" filter="url(#fuzzy)" /><polyline points="21.29,-81.72 21.49,-81.43 21.89,-80.99 22.12,-80.56 22.03,-80.19 21.54,-79.89 20.65,-79.66 19.36,-79.46 17.66,-79.29 15.51,-79.15 12.87,-79.04 9.68,-79 5.9,-79.05 1.46,-79.2 -3.69,-79.43 -9.59,-79.69 -16.29,-79.95" fill="none" stroke="rgb(185, 55, 55)" stroke-width="2" stroke-linejoin="round" filter="url(#fuzzy)" /><polyline points="15.54,-84.5 15.84,-84.12 16.39,-83.66 16.74,-83.19 16.75,-82.7 16.41,-82.17 15.71,-81.59 14.63,-80.97 13.15,-80.3 11.24,-79.58 8.85,-78.81 5.94,-77.96 2.48,-77.03 -1.52,-76.01 -6.03,-74.93 -11.03,-73.81 -16.52,-72.7 -22.54,-71.62 -29.21,-70.5" fill="none" stroke="rgb(185, 55, 55)" stroke-width="2" stroke-linejoin="round" filter="url(#fuzzy)" /><polyline points="-28.39,-76.79 -26.92,-77.72 -25.38,-77.89 -23.26,-77.83 -20.52,-77.65 -17.28,-77.31 -13.58,-76.77 -9.45,-76.05 -4.89,-75.15 0.05,-74.07 5.32,-72.84 10.83,-71.48 16.56,-70.03 22.49,-68.53 28.6,-66.98 34.7,-65.51" fill="none" stroke="rgb(185, 55, 55)" stroke-width="2" stroke-linejoin="round" filter="url(#fuzzy)" /><polyline points="-10.23,-85.89 -9.66,-85.94 -8.29,-85.82 -6.46,-85.52 -4.28,-85.05 -1.81,-84.4 0.93,-83.6 3.87,-82.66 6.92,-81.61 10.04,-80.46 13.21,-79.24 16.48,-77.95 19.82,-76.62 23.17,-75.29 26.49,-73.95 29.75,-72.59 32.9,-71.33" fill="none" stroke="rgb(185, 55, 55)" stroke-width="2" stroke-linejoin="round" filter="url(#fuzzy)" /><polyline points="21.2,-81.58 22.24,-80.94 23.08,-80.39 23.68,-79.93 24.07,-79.52 24.27,-79.16 24.32,-78.81 24.2,-78.47 23.91,-78.13 23.4,-77.81 22.65,-77.53 21.61,-77.31 20.28,-77.14 18.65,-77.04 16.7,-77 14.43,-77.04 11.81,-77.16 8.84,-77.36 5.5,-77.63 1.78,-77.97 -2.34,-78.36 -6.91,-78.81 -12.01,-79.28 -17.65,-79.75" fill="none" stroke="rgb(185, 55, 55)" stroke-width="2" stroke-linejoin="round" filter="url(#fuzzy)" /><polyline points="-28.96,-76.36 -28.71,-76.58 -27.64,-77.18 -26.24,-77.86 -24.65,-78.54 -22.89,-79.24 -20.96,-79.97 -18.91,-80.71 -16.76,-81.44 -14.56,-82.16 -12.32,-82.87 -10.1,-83.54 -7.94,-84.18 -5.87,-84.78 -3.92,-85.33 -2.11,-85.86 -0.45,-86.38 1.21,-86.81" fill="none" stroke="rgb(185, 55, 55)" stroke-width="2" stroke-linejoin="round" filter="url(#fuzzy)" /><polyline points="23.73,-80.16 24.31,-79.72 25.04,-79.25 25.73,-78.79 26.41,-78.34 27.05,-77.89 27.61,-77.48 28.01,-77.13 28.21,-76.9 28.14,-76.82 27.79,-76.93 27.13,-77.25 26.16,-77.77 24.82,-78.53 23.06,-79.57 20.8,-80.94 18.14,-82.61" fill="none" stroke="rgb(185, 55, 55)" stroke-width="2" stroke-linejoin="round" filter="url(#fuzzy)" /><polyline points="49.48,-49.61 18.89,-60.74 16.95,-62.19 12.24,-64.95 4.71,-68.83 -2.63,-72.33 -8.28,-74 -10.5,-72.84 -7.11,-68.79 2.82,-63.01 16.99,-57.37 29.71,-53.74 34.5,-53.27 28.92,-55.65 22.22,-56.6 53.93,-38.89" fill="none" stroke="rgb(185, 55, 55)" stroke-width="2" stroke-linejoin="round" filter="url(#fuzzy)" /><polyline points="-29.57,-76.17 8.22,-73.19 15.08,-77.36 15.41,-80.36 13.8,-81.9 10.3,-82.71 5.48,-83.11 1,-83.12 -1.2,-82.59 0.05,-81.16 4.5,-78.49 10.3,-74.59 14.39,-70.18 13.69,-66.54 6.81,-64.87 -4.34,-65.48 -14.27,-67.83 -16.13,-71.34 -6.16,-75.86 11.3,-80.21 20.1,-82.13" fill="none" stroke="rgb(185, 55, 55)" stroke-width="2" stroke-linejoin="round" filter="url(#fuzzy)" /><polyline points="56.99,-27.11 38,-57.01 35.02,-62.56 31.41,-62.64 25.46,-62.39 20.11,-62.34 16.84,-62.53 14.74,-63.35 12.36,-64.89 9.35,-66.62 6.46,-67.8 4.62,-68.01 4.19,-67.43 5.02,-66.68 6.79,-66.49 9.34,-67.27 12.78,-68.71 17.33,-69.67 23.05,-68.69 29.15,-65.5 32.84,-62.63 29.12,-65.26 13.51,-76.35 -10.23,-85.89" fill="none" stroke="rgb(185, 55, 55)" stroke-width="2" stroke-linejoin="round" filter="url(#fuzzy)" /><polyline points="-26.49,-78.37 2.33,-69.75 -2.32,-70.94 -6.78,-69.43 -7.12,-66.15 -6.61,-64.55 -7.18,-65.66 -8.43,-68.22 -8.96,-70.61 -7.41,-72.15 -3.28,-73.19 2.35,-74.41 6.75,-76.2 7,-78.4 2.43,-80.44 -3.72,-81.63 -4.99,-81.05 6.34,-76.46 42.56,-61.95" fill="none" stroke="rgb(185, 55, 55)" stroke-width="2" stroke-linejoin="round" filter="url(#fuzzy)" /><polyline points="52.69,-41.54 27,-63.93 14.28,-72.37 13.89,-74.31 17.04,-73.76 19.3,-72.36 19.33,-71.05 16.99,-70.49 12.87,-70.67 7.98,-70.94 3.07,-70.93 -1.74,-71.24 -6.54,-72.93 -11.01,-76.17 -14.59,-79.6 -17.02,-81.66 -17.05,-83.04 -12.6,-85.48" fill="none" stroke="rgb(185, 55, 55)" stroke-width="2" stroke-linejoin="round" filter="url(#fuzzy)" /><polyline points="21.2,-81.58 0.21,-81.45 5.28,-75.81 19.23,-67.04 31.44,-58.95 38.15,-53.9 39.08,-52.64 35.05,-54.46 27.18,-57.72 16.89,-60.65 6.24,-62.2 -2.07,-62.4 -5.74,-62.23 -4.19,-63.02 0.79,-65.64 5.95,-69.85 8.71,-74.06 8.85,-76.13 8.28,-74.72 9.08,-70.8 9.45,-69.13 -15.3,-84.28" fill="none" stroke="rgb(185, 55, 55)" stroke-width="2" stroke-linejoin="round" filter="url(#fuzzy)" /><polyline points="-1.72,-87.4 17.11,-77.2 13.21,-77.57 9.33,-76.48 11.77,-73.51 18.2,-70.65 24.33,-69.08 27.53,-68.88 27.51,-69.47 25.58,-70.11 23.47,-70.22 22.49,-69.58 23.26,-68.23 25.87,-66.32 30.05,-63.83 35.05,-60.82 39.55,-57.84 41.72,-56.36 39.63,-58.43 31.47,-65.55 16.05,-77.24 -3.12,-87.04" fill="none" stroke="rgb(185, 55, 55)" stroke-width="2" stroke-linejoin="round" filter="url(#fuzzy)" /><polyline points="-45.58,-57.26 -0.65,-71.01 14.62,-75.78 18.82,-76.92 19.26,-76.29 17.79,-74.75 14.33,-73.15 9.17,-72.18 3.89,-71.96 0.55,-72.13 0.14,-72.3 1.91,-72.51 3.85,-73.09 4.24,-74.33 2.68,-76.05 0.09,-77.68 -2.21,-78.68 -3.46,-78.9 -3.78,-78.66 -4.56,-78.38 -9.36,-77.82 -21.37,-76.14 -29.35,-76.32" fill="none" stroke="rgb(185, 55, 55)" stroke-width="2" stroke-linejoin="round" filter="url(#fuzzy)" /><polyline points="51.27,-45.69 22.89,-71.94 11.36,-81.23 10.46,-82.33 15.95,-78.88 24.11,-72.64 32.05,-64.94 37.69,-57.43 39.73,-52.12 37.92,-50.57 33.43,-53.02 28.31,-58.13 23.98,-63.81 19.91,-68.36 14.28,-70.98 7.48,-71.4 5.98,-69.46 20.41,-65.72 45.19,-57.53" fill="none" stroke="rgb(185, 55, 55)" stroke-width="2" stroke-linejoin="round" filter="url(#fuzzy)" /><polyline points="46.9,-54.61 29.12,-71.21 26.6,-72.79 27.52,-71.82 27.65,-71.7 27.15,-71.65 26.28,-71.12 24.26,-70.69 20.34,-71.25 14.87,-73.09 9.23,-75.77 4.96,-78.45 2.88,-80.37 2.9,-81.08 4.43,-80.45 6.64,-78.66 8.5,-76.13 8.88,-73.34 7.4,-70.41 5.84,-66.89 8.24,-62.85 16.89,-61.4 25.13,-68.88 23.99,-79.82" fill="none" stroke="rgb(185, 55, 55)" stroke-width="2" stroke-linejoin="round" filter="url(#fuzzy)" /><polyline points="-26.49,-78.37 -15.72,-81.63 -10.42,-81.69 -3.34,-80.54 3.5,-77.65 8.46,-73.84 11.46,-70.26 13.46,-67.31 15.52,-64.73 18.24,-62.14 21.78,-59.31 25.94,-56.27 30.09,-53.37 33.22,-51.16 34.39,-50.28 33.21,-51.16 29.92,-53.92 24.83,-58.49 17.87,-64.66 9.06,-71.86 -0.13,-78.47 -7.35,-81.73 -15.21,-78.5 -40.82,-64.14" fill="none" stroke="rgb(185, 55, 55)" stroke-width="2" stroke-linejoin="round" filter="url(#fuzzy)" /><polyline points="56.06,-31.34 40.99,-44.27 21.82,-61.02 6.46,-70.89 -5.04,-75.1 -11.2,-75.84 -10.65,-74.68 -4.05,-72.67 5.66,-70.57 14.56,-68.88 19.72,-67.95 20.3,-68.2 17.42,-70.13 13.32,-73.83 10.68,-78.13 10.7,-80.75 7.75,-81.02 -17.19,-83.41" fill="none" stroke="rgb(185, 55, 55)" stroke-width="2" stroke-linejoin="round" filter="url(#fuzzy)" /><polyline points="33.04,-72.81 17.42,-69.31 9.34,-65.92 9.42,-67.35 8.73,-71.18 6.77,-74.36 6.48,-75.58 8.46,-75.33 10.33,-74.82 9.39,-74.81 5.31,-75.07 0.68,-74.75 -1.07,-73.27 0.69,-71.3 4.6,-71.07 31.83,-73.82" fill="none" stroke="rgb(185, 55, 55)" stroke-width="2" stroke-linejoin="round" filter="url(#fuzzy)" /><polyline points="7.84,-86.74 -9.9,-79.74 -3.26,-74.68 4.95,-71.33 6.63,-70.41 4.19,-71.43 1.4,-73.38 -0.23,-75.21 -0.76,-76.16 -0.27,-75.8 1.41,-74.26 4.17,-72.07 7.09,-69.97 8.85,-68.51 8.68,-67.82 7.21,-67.55 6.15,-67.09 7.16,-66.03 10.47,-64.37 14.57,-62.44 16.96,-60.78 15.33,-60.43 8.81,-63.02 -2.06,-68.48 -34.59,-71.59" fill="none" stroke="rgb(185, 55, 55)" stroke-width="2" stroke-linejoin="round" filter="url(#fuzzy)" /><polyline points="23.73,-80.16 12.35,-74.41 -2.88,-71.11 -5.84,-70.52 -2.14,-71.69 3,-72.66 8.22,-72.07 12.93,-69.93 15.62,-67.27 14.5,-65.49 9.09,-65.68 1.24,-68.14 -4.58,-72.06 -2.84,-75.33 9.53,-74.28 30.33,-62.62 56.53,-29.58" fill="none" stroke="rgb(185, 55, 55)" stroke-width="2" stroke-linejoin="round" filter="url(#fuzzy)" /><polyline points="59.44,-13.43 60.29,-14.31 60.14,-15.7 59.89,-17.2 59.64,-18.72 59.43,-20.24 59.28,-21.73 59.2,-23.15 59.18,-24.47 59.22,-25.7 59.32,-26.93 59.5,-28.27 59.78,-29.75 60.13,-31.35 60.49,-32.98 60.76,-34.62 60.93,-36.34 60.99,-38.21 60.68,-40.19 55.72,13.15 55.9,11.89 55.99,10.46 56.16,9 56.41,7.54 56.72,6.17 57.04,4.97 57.37,3.92 57.73,2.98 58.09,2.1 58.39,1.2 58.6,0.21 58.66,-0.94 58.61,-2.28 58.48,-3.81 58.34,-5.51 58.23,-7.26 58.22,-8.97 58.35,-10.52 58.64,-11.81 59.06,-12.77 59.44,-13.43" fill="none" stroke="rgb(185, 55, 55)" stroke-width="2" stroke-linejoin="round" filter="url(#fuzzy)" /><polyline points="-0.01,-87.44 -1.25,-92.62 -1.99,-98.9 -2.74,-101.41 -3.68,-100.42 -4.73,-97.71 -5.81,-94.96 -6.89,-93.17 -7.97,-92.61 -9.09,-93.18 -10.25,-94.62 -11.45,-96.65 -12.69,-98.97 -13.97,-101.28 -15.3,-103.36 -16.69,-105.28 -18.18,-107.43 -19.76,-110.12 -21.37,-112.57 -23.23,-112.73" fill="none" stroke="rgb(185, 55, 55)" stroke-width="2" stroke-linejoin="round" filter="url(#fuzzy)" /><polyline points="-0.01,-87.44 1.16,-87.56 2.23,-88.11 3.09,-88.67 3.91,-88.91 4.73,-88.87 5.58,-88.78 6.45,-88.78 7.36,-88.89 8.31,-89.06 9.28,-89.26 10.26,-89.45 11.23,-89.61 12.21,-89.67 13.19,-89.57 14.19,-89.29 15.17,-88.93 16.16,-88.59 17.14,-88.38 18.16,-88.35 19.19,-88.49 20.17,-88.63 21.62,-88.34" fill="none" stroke="rgb(185, 55, 55)" stroke-width="2" stroke-linejoin="round" filter="url(#fuzzy)" /><polyline points="17.71,-67.99 16.66,-68.41 15.93,-69.45 15.26,-70.22 14.6,-71.09 14,-72.37 13.44,-74.03 12.86,-75.79 12.23,-77.37 11.54,-78.64 10.8,-79.63 10.04,-80.48 9.26,-81.33 8.48,-82.24 7.7,-83.18 6.91,-84.07 6.12,-84.83 5.33,-85.43 4.54,-85.88 3.74,-86.24 2.93,-86.59 2.05,-86.93 1,-87.2 -0.26,-87.36 -1.72,-87.4 -1.72,-87.4 -1.86,-87.18 -2.28,-86.78 -3.18,-86.24 -4.26,-85.65 -5.32,-85.07 -6.3,-84.52 -7.21,-84.03 -8.07,-83.62 -8.89,-83.26 -9.64,-82.89 -10.35,-82.44 -11.04,-81.88 -11.77,-81.27 -12.55,-80.57 -13.61,-79.4 -0.94,-87.33 -1.43,-85.62 -1.01,-84.58 -0.16,-84.59 0.84,-84.89 1.8,-85.1 2.69,-85.11 3.51,-84.92 4.29,-84.55 5.05,-83.99 5.8,-83.24 6.53,-82.28 7.27,-81.12 8.01,-79.84 8.75,-78.58 9.43,-77.54 10.05,-76.86 10.62,-76.62 11.07,-76.78" fill="none" stroke="rgb(185, 55, 55)" stroke-width="2" stroke-linejoin="round" filter="url(#fuzzy)" /><polyline points="-3.12,-87.04 -2.01,-87.77 -1.56,-89.09 -0.94,-91.68 -0.06,-94.57 0.96,-96.57 2,-97.37 3.02,-97.49 4.02,-97.65 5.04,-98.28 6.08,-99.35 7.16,-100.71 8.31,-102.25 9.55,-104.07 10.89,-106.22 12.27,-108.51 13.58,-110.49 14.8,-111.78 16.01,-112.36 17.55,-112.46 20.36,-113.28" fill="none" stroke="rgb(185, 55, 55)" stroke-width="2" stroke-linejoin="round" filter="url(#fuzzy)" /><polyline points="15.76,-87.66 13.74,-88.2 12.55,-88.28 11.64,-88.31 10.78,-88.38 9.88,-88.48 8.94,-88.59 8,-88.71 7.09,-88.83 6.21,-88.91 5.35,-88.93 4.49,-88.87 3.61,-88.73 2.71,-88.54 1.77,-88.33 0.82,-88.12 -0.12,-87.91 -0.98,-87.69 -1.78,-87.48 -2.63,-87.3 -3.73,-87.17 -5.12,-87.08 -6.23,-86.94" fill="none" stroke="rgb(185, 55, 55)" stroke-width="2" stroke-linejoin="round" filter="url(#fuzzy)" /><polyline points="-6.23,-86.94 -6.91,-88.27 -8.03,-89.18 -9.08,-89.67 -10.1,-90.44 -11.16,-91.8 -12.27,-93.42 -13.38,-94.78 -14.45,-95.56 -15.47,-95.76 -16.47,-95.64 -17.49,-95.57 -18.6,-95.84 -19.83,-96.63 -21.17,-97.89 -22.57,-99.29 -23.95,-100.34 -25.27,-100.72 -26.58,-100.6 -27.93,-100.7 -29.15,-101.74 -29.57,-103.56 -6.06,-86.77 -7.83,-87.19 -8.96,-87.69 -9.88,-88.01 -10.78,-88.44 -11.73,-89.1 -12.76,-89.97 -13.84,-90.87 -14.91,-91.55 -15.94,-91.88 -16.93,-91.93 -17.93,-91.95 -18.98,-92.14 -20.08,-92.53 -21.22,-92.98 -22.37,-93.27 -23.53,-93.34 -24.74,-93.4 -26.02,-93.81 -27.4,-94.76 -28.91,-96.11 -30.77,-97.39 -33.13,-98.02 -23.53,-69.6 -22.44,-71.14 -21.67,-72.2 -21.09,-73.13 -20.5,-74.13 -19.86,-75.25 -19.19,-76.41 -18.52,-77.55 -17.86,-78.6 -17.18,-79.55 -16.49,-80.42 -15.77,-81.21 -15.04,-81.93 -14.27,-82.59 -13.48,-83.18 -12.68,-83.71 -11.88,-84.17 -11.09,-84.55 -10.32,-84.89 -9.56,-85.21 -8.73,-85.52 -7.69,-85.8 -6.06,-86.77 -6.06,-86.77 -5.84,-86.73 -4.94,-86.57 -3.8,-86.29 -2.76,-85.92 -1.91,-85.59 -1.14,-85.38 -0.33,-85.25 0.56,-85.11 1.49,-84.87 2.38,-84.48 3.18,-83.95 3.94,-83.27 4.68,-82.44 5.39,-81.63 5.95,-81.17 -8.57,-86.34 -6.98,-86.58 -5.98,-86.71 -4.95,-86.83 -3.86,-86.93 -2.86,-86.99 -1.99,-87.02 -1.17,-87.03 -0.32,-87.01 0.6,-86.97 1.54,-86.9 2.46,-86.81 3.32,-86.68 4.14,-86.51 4.94,-86.31 5.74,-86.11 6.53,-85.96 7.41,-85.78" fill="none" stroke="rgb(185, 55, 55)" stroke-width="2" stroke-linejoin="round" filter="url(#fuzzy)" /><polyline points="-11.2,-85.95 -10.75,-87.92 -10.05,-87.79 -9.21,-87.82 -8.33,-88.49 -7.42,-89.54 -6.47,-90.58 -5.44,-91.39 -4.37,-91.95 -3.34,-92.41 -2.4,-92.89 -1.55,-93.42 -0.68,-93.97 0.36,-94.54 1.56,-95.28 2.57,-96.29 2.21,-96.85 -12.6,-85.48 -13.2,-85.38 -14.12,-85.29 -15,-85.08 -15.85,-84.79 -16.7,-84.56 -17.59,-84.42 -18.51,-84.36 -19.47,-84.35 -20.49,-84.41 -21.58,-84.56 -22.69,-84.77 -23.79,-84.97 -24.85,-85.06 -25.86,-84.99 -26.84,-84.81 -27.8,-84.59 -28.71,-84.38 -29.61,-84.04 -30.69,-83.56 -32.14,-83.58 -12.7,-85.28 -14.19,-85.66 -15.13,-85.36 -16.02,-85.3 -17.01,-85.65 -18.07,-86.24 -19.15,-86.82 -20.21,-87.17 -21.26,-87.24 -22.3,-87.12 -23.33,-86.91 -24.35,-86.69 -25.35,-86.45 -26.33,-86.18 -27.3,-85.93 -28.3,-85.78 -29.34,-85.81 -30.43,-86.03 -31.54,-86.35 -32.61,-86.68 -33.63,-86.93 -34.8,-86.93 -36.9,-86.57" fill="none" stroke="rgb(185, 55, 55)" stroke-width="2" stroke-linejoin="round" filter="url(#fuzzy)" /><polyline points="-14.55,-84.86 -15.33,-85.51 -16.26,-86.32 -17.18,-86.51 -18.02,-86.13 -18.83,-85.53 -19.69,-84.99 -20.65,-84.7 -21.73,-84.76 -22.93,-85.21 -24.21,-85.95 -25.51,-86.81 -26.78,-87.54 -27.96,-87.97 -29.04,-88.05 -30.03,-87.88 -30.98,-87.64 -31.97,-87.54 -32.97,-87.79 -33.92,-88.65 -35.01,-90.17" fill="none" stroke="rgb(185, 55, 55)" stroke-width="2" stroke-linejoin="round" filter="url(#fuzzy)" /><polyline points="-15.3,-84.61 -14.32,-84.68 -13.26,-84.55 -12.29,-84.34 -11.4,-84.17 -10.57,-84.1 -9.75,-84.11 -8.92,-84.18 -8.05,-84.24 -7.13,-84.29 -6.16,-84.32 -5.16,-84.33 -4.15,-84.34 -3.18,-84.35 -2.29,-84.37 -1.48,-84.31 -0.67,-84.1 0.25,-83.66 1.28,-82.96 2.15,-82.1 1.86,-81.36" fill="none" stroke="rgb(185, 55, 55)" stroke-width="2" stroke-linejoin="round" filter="url(#fuzzy)" /><polyline points="-15.3,-84.61 -17.12,-91.48 -17.78,-90.01 -18.34,-87.84 -19.13,-86.89 -20.24,-87.28 -21.6,-88.5 -23.03,-89.83 -24.38,-90.73 -25.6,-91.18 -26.84,-91.62 -28.27,-92.6 -29.96,-94.29 -31.74,-96.32 -33.34,-98.17 -34.88,-99.68 -36.99,-100.07" fill="none" stroke="rgb(185, 55, 55)" stroke-width="2" stroke-linejoin="round" filter="url(#fuzzy)" /><polyline points="-1.98,-80.75 -1.96,-81.75 -2.98,-82.26 -4.18,-82.4 -5.25,-82.32 -6.2,-82.13 -7.1,-81.98 -7.99,-82.02 -8.87,-82.38 -9.74,-83 -10.61,-83.71 -11.47,-84.27 -12.35,-84.52 -13.28,-84.48 -14.28,-84.36 -15.3,-84.61 -17.19,-83.41 -17.68,-83.15 -18.4,-82.82 -19.22,-82.44 -20.11,-82.02 -21.02,-81.54 -21.9,-80.97 -22.72,-80.32 -23.47,-79.59 -24.2,-78.82 -24.92,-78.07 -25.64,-77.39 -26.36,-76.78 -27.07,-76.22 -27.77,-75.66 -28.47,-75.03 -29.2,-74.28 -30.02,-73.41 -30.99,-72.41 -32,-71.37 -32.87,-70.39 -33.6,-69.53 -17.19,-83.41 -16,-84.38 -15.2,-84.98 -14.44,-85.74 -13.66,-86.68 -12.89,-87.69 -12.13,-88.66 -11.38,-89.54 -10.62,-90.32 -9.81,-91.01 -8.95,-91.66 -8.04,-92.33 -7.06,-93.09 -6.01,-93.91 -4.81,-94.74 -3.47,-95.56 -2.31,-96.51 -2.4,-97.75 -17.19,-83.41 -17.87,-84.02 -18.68,-84 -19.76,-84.51 -21.01,-85.37 -22.26,-86.03 -23.4,-86.28 -24.44,-86.19 -25.44,-85.95 -26.41,-85.69 -27.37,-85.41 -28.32,-85.13 -29.28,-84.9 -30.28,-84.79 -31.35,-84.83 -32.54,-84.98 -33.85,-85.18 -35.28,-85.35 -36.77,-85.38 -38.21,-85.19 -39.45,-84.75 -40.5,-84.28 -41.49,-84.22 -42.55,-84.97 -43.4,-86.14 -17.19,-83.41 -15.8,-83.26 -14.76,-82.5 -13.81,-82.03 -12.93,-82.14 -12.12,-82.7 -11.35,-83.33 -10.59,-83.73 -9.78,-83.75 -8.92,-83.41 -8,-82.83 -7.04,-82.15 -6.04,-81.47 -5.04,-80.82 -4.04,-80.19 -3.09,-79.59 -2.22,-79.04 -1.43,-78.56 -0.66,-78.03 0.2,-77.22 1.16,-76.05 1.96,-74.74 1.67,-73.05 -17.52,-83.49 -19.02,-85.58 -20.45,-87.48 -21.67,-88.06 -22.84,-88.17 -23.97,-88.15 -25.02,-88 -26.04,-87.78 -27.1,-87.71 -28.27,-87.98 -29.54,-88.55 -30.81,-89.16 -31.96,-89.46 -32.95,-89.21 -33.83,-88.46 -34.73,-87.48 -35.83,-86.66 -37.23,-86.31 -38.87,-86.51 -40.62,-87.14 -42.32,-88.01 -43.91,-89.05 -45.45,-90.25 -47.1,-91.45 -49.59,-92.66" fill="none" stroke="rgb(185, 55, 55)" stroke-width="2" stroke-linejoin="round" filter="url(#fuzzy)" /><polyline points="58.98,-15.96 59.11,-17.28 59.29,-18.82 59.39,-20.42 59.57,-22.04 60.08,-23.72 61.18,-25.52 62.87,-27.51 64.92,-29.67 66.88,-31.95 68.37,-34.16 69.21,-36.18 69.63,-38.04 70.05,-39.99 70.79,-42.3 71.71,-44.98 73.24,-48.5" fill="none" stroke="rgb(185, 55, 55)" stroke-width="2" stroke-linejoin="round" filter="url(#fuzzy)" /><polyline points="-48.02,-89.74 -46.25,-89.84 -44.71,-88.77 -43.12,-87.45 -41.66,-86.7 -40.39,-86.82 -39.25,-87.63 -38.14,-88.68 -36.98,-89.51 -35.71,-89.82 -34.35,-89.56 -32.94,-88.9 -31.56,-88.12 -30.26,-87.48 -29.06,-87.1 -27.94,-86.95 -26.88,-86.95 -25.84,-87.07 -24.86,-87.35 -23.87,-87.74 -22.74,-87.7 -21.29,-86.38 -19.67,-83.99 -18.49,-82.94" fill="none" stroke="rgb(185, 55, 55)" stroke-width="2" stroke-linejoin="round" filter="url(#fuzzy)" /><polyline points="-46.36,-92.03 -45.42,-90.69 -44,-89.23 -42.24,-87.72 -40.42,-86.63 -38.69,-86.11 -37.07,-86.03 -35.58,-86.11 -34.2,-86.11 -32.9,-85.89 -31.62,-85.39 -30.31,-84.6 -28.97,-83.63 -27.64,-82.67 -26.39,-81.96 -25.27,-81.62 -24.28,-81.64 -23.36,-81.83 -22.41,-82.07 -21.36,-82.34 -20.28,-82.62 -19.44,-82.58" fill="none" stroke="rgb(185, 55, 55)" stroke-width="2" stroke-linejoin="round" filter="url(#fuzzy)" /><polyline points="-19.92,-82.24 -19.71,-84.33 -19.11,-85.54 -18.47,-86.94 -17.84,-88.61 -17.21,-90.41 -16.56,-92.28 -15.88,-94.16 -15.16,-95.87 -14.37,-97.15 -13.5,-97.84 -12.55,-97.97 -11.56,-97.76 -10.53,-97.55 -9.49,-97.62 -8.43,-98.2 -7.36,-99.39 -6.25,-101.17 -5.12,-103.34 -4,-105.53 -2.98,-107.34 -2.08,-108.5 -1.23,-109.07 -0.17,-109.5 1.06,-110.74" fill="none" stroke="rgb(185, 55, 55)" stroke-width="2" stroke-linejoin="round" filter="url(#fuzzy)" /><polyline points="-19.92,-82.24 -21.25,-82.04 -22.44,-81.89 -23.49,-82.09 -24.48,-82.33 -25.46,-82.35 -26.4,-82.2 -27.33,-82 -28.27,-81.91 -29.24,-81.95 -30.24,-82.07 -31.25,-82.11 -32.26,-81.9 -33.34,-81.38 -34.57,-80.64 -35.93,-80 -37.33,-79.88 -38.9,-80.51" fill="none" stroke="rgb(185, 55, 55)" stroke-width="2" stroke-linejoin="round" filter="url(#fuzzy)" /><polyline points="-9.99,-99.85 -11.06,-97.86 -11.75,-96.51 -12.41,-94.98 -13.09,-93.29 -13.81,-91.62 -14.57,-90.19 -15.37,-89.18 -16.22,-88.61 -17.11,-88.36 -17.99,-88.12 -18.77,-87.55 -19.39,-86.34 -19.85,-84.51 -20.3,-82.66 -21.1,-81.75" fill="none" stroke="rgb(185, 55, 55)" stroke-width="2" stroke-linejoin="round" filter="url(#fuzzy)" /><polyline points="-7.21,-100.58 -7.7,-98.86 -8.72,-97.54 -9.66,-96.1 -10.47,-94.6 -11.2,-93.2 -11.96,-92.11 -12.79,-91.42 -13.68,-91.02 -14.57,-90.62 -15.41,-89.94 -16.16,-88.89 -16.87,-87.68 -17.61,-86.67 -18.4,-86 -19.16,-85.4 -19.79,-84.31 -20.31,-82.74 -21.1,-81.75" fill="none" stroke="rgb(185, 55, 55)" stroke-width="2" stroke-linejoin="round" filter="url(#fuzzy)" /><polyline points="-23.01,-80.61 -23.17,-80.91 -22.63,-81.67 -21.74,-82.37 -20.78,-82.96 -19.88,-83.52 -19.03,-84.14 -18.25,-84.88 -17.5,-85.79 -16.77,-86.85 -16.04,-87.95 -15.27,-88.96 -14.46,-89.77 -13.61,-90.38 -12.75,-90.88 -11.89,-91.37 -11.06,-91.91 -10.22,-92.51 -9.34,-93.14 -8.41,-93.78 -7.48,-94.38 -6.71,-94.86 -6.21,-95.31 -26.65,-78.21 -27.09,-77.98 -27.95,-77.44 -28.89,-77.2 -30.05,-77.45 -31.55,-78.13 -33.27,-79.01 -35,-79.77 -36.52,-80.2 -37.78,-80.24 -38.81,-80.01 -39.74,-79.65 -40.69,-79.26 -41.7,-78.85 -42.76,-78.38 -43.83,-77.8 -44.86,-77.16 -45.85,-76.56 -46.8,-76.06 -47.7,-75.61 -48.56,-75.17 -49.5,-74.85 -50.74,-74.8 -51.89,-74.1 -26.65,-78.21 -27.21,-78.32 -28.16,-78.02 -28.98,-77.52 -29.77,-76.92 -30.67,-76.29 -31.69,-75.63 -32.73,-74.95 -33.7,-74.25 -34.57,-73.59 -35.38,-73.04 -36.18,-72.6 -37.04,-72.24 -37.96,-71.88 -38.93,-71.44 -39.91,-70.89 -40.85,-70.29 -41.72,-69.69 -42.5,-69.12 -43.23,-68.58 -43.94,-68.11 -44.66,-67.78 -45.33,-67.34" fill="none" stroke="rgb(185, 55, 55)" stroke-width="2" stroke-linejoin="round" filter="url(#fuzzy)" /><polyline points="-28.96,-76.36 -29.72,-78.84 -29.25,-79.99 -28.57,-80.93 -27.92,-81.84 -27.32,-82.98 -26.8,-84.51 -26.33,-86.36 -25.86,-88.27 -25.32,-90.04 -24.66,-91.68 -23.92,-93.33 -23.19,-95.13 -22.52,-97.04 -21.93,-98.99 -21.45,-101.06 -21.33,-103.5" fill="none" stroke="rgb(185, 55, 55)" stroke-width="2" stroke-linejoin="round" filter="url(#fuzzy)" /><polyline points="-29.57,-76.17 -31.98,-76.22 -33.09,-74.75 -33.82,-73.42 -34.48,-72.55 -35.15,-72.05 -35.87,-71.73 -36.63,-71.4 -37.48,-70.97 -38.43,-70.43 -39.43,-69.86 -40.42,-69.34 -41.33,-68.89 -42.15,-68.48 -42.95,-68.09 -43.75,-67.81 -44.37,-67.57" fill="none" stroke="rgb(185, 55, 55)" stroke-width="2" stroke-linejoin="round" filter="url(#fuzzy)" /><polyline points="-29.57,-76.17 -29.36,-76.76 -29.07,-77.43 -28.51,-78.12 -27.91,-79.03 -27.36,-80.18 -26.81,-81.4 -26.18,-82.52 -25.47,-83.45 -24.69,-84.23 -23.87,-84.99 -23.03,-85.77 -22.16,-86.59 -21.29,-87.38 -20.42,-88.11 -19.58,-88.79 -18.76,-89.48 -17.91,-90.18 -17.08,-91 -16.7,-92.33 -34.59,-71.59 -35.18,-71.29 -35.84,-71.27 -36.63,-71.13 -37.49,-70.63 -38.35,-69.83 -39.17,-68.92 -39.94,-68.09 -40.7,-67.44 -41.47,-66.97 -42.25,-66.59 -43.05,-66.24 -43.89,-65.82 -44.79,-65.23 -45.84,-64.4 -47.16,-63.28 -48.89,-61.86" fill="none" stroke="rgb(185, 55, 55)" stroke-width="2" stroke-linejoin="round" filter="url(#fuzzy)" /><polyline points="58.9,-18.33 58.75,-17.1 58.8,-15.77 58.89,-14.59 58.95,-13.61 58.94,-12.71 58.88,-11.71 58.8,-10.53 58.72,-9.13 58.64,-7.55 58.52,-5.87 58.34,-4.19 58.11,-2.61 57.85,-1.2 57.63,0 57.49,1.02 57.42,1.92 57.36,2.74 57.23,3.55 56.97,4.36 56.56,5.23 55.97,6.01" fill="none" stroke="rgb(185, 55, 55)" stroke-width="2" stroke-linejoin="round" filter="url(#fuzzy)" /><polyline points="-35.54,-70.56 -38.19,-76.28 -38.09,-77.27 -36.83,-76.51 -35.42,-76 -34.25,-76.46 -33.44,-77.96 -32.98,-80.28 -32.77,-83.04 -32.66,-85.84 -32.49,-88.34 -32.15,-90.32 -31.6,-91.78 -30.87,-92.85 -30.03,-93.73 -29.17,-94.66 -28.34,-95.75 -27.56,-97.12 -26.84,-98.94 -26.18,-101.43 -25.64,-104.63 -25.26,-108.18 -24.91,-111.76 -39.32,-65.88 -39.58,-65.74 -40.03,-65.42 -40.57,-64.87 -41.11,-64.18 -41.66,-63.4 -42.28,-62.55 -43,-61.63 -43.8,-60.67 -44.6,-59.71 -45.34,-58.82 -45.97,-58.02 -46.5,-57.28 -46.94,-56.56 -47.32,-55.91 -47.68,-55.45 -47.99,-55.35" fill="none" stroke="rgb(185, 55, 55)" stroke-width="2" stroke-linejoin="round" filter="url(#fuzzy)" /><polyline points="-61.78,-62.53 -60.21,-63.4 -57.6,-63.4 -55.68,-63.5 -54.47,-63.86 -53.51,-64.24 -52.42,-64.38 -51.09,-64.27 -49.61,-64.15 -48.2,-64.3 -47,-64.9 -46.07,-65.87 -45.3,-66.89 -44.46,-67.52 -43.31,-67.45 -41.81,-66.76 -40.33,-66.07 -39.54,-65.66" fill="none" stroke="rgb(185, 55, 55)" stroke-width="2" stroke-linejoin="round" filter="url(#fuzzy)" /><polyline points="-43.38,-34.89 -43.51,-34.79 -43.72,-36.09 -43.92,-37.69 -44.09,-39.19 -44.26,-40.62 -44.43,-42.08 -44.54,-43.59 -44.53,-45.1 -44.39,-46.59 -44.18,-48.03 -43.96,-49.41 -43.79,-50.75 -43.7,-52.09 -43.67,-53.45 -43.65,-54.85 -43.54,-56.24 -43.24,-57.55 -42.71,-58.72 -42,-59.76 -41.29,-60.72 -40.76,-61.76 -40.5,-63 -40.29,-64.41 -39.51,-65.9 -40.82,-64.14 -41.11,-63.6 -41.56,-62.94 -42.16,-62.05 -42.86,-60.98 -43.58,-59.85 -44.26,-58.77 -44.87,-57.78 -45.41,-56.89 -45.9,-56.03 -46.37,-55.16 -46.86,-54.22 -47.38,-53.17 -47.93,-52.02 -48.49,-50.79 -49.03,-49.56 -49.54,-48.37 -50.01,-47.26 -50.44,-46.2 -50.88,-45.13 -51.34,-43.96 -51.81,-42.69 -52.14,-41.66 -52.01,-41.83" fill="none" stroke="rgb(185, 55, 55)" stroke-width="2" stroke-linejoin="round" filter="url(#fuzzy)" /><polyline points="-19.83,-69.45 -21.42,-69.36 -22.6,-69.47 -23.44,-69.41 -24.17,-69.25 -24.93,-69.11 -25.74,-69 -26.61,-68.86 -27.56,-68.67 -28.61,-68.49 -29.74,-68.36 -30.89,-68.32 -31.97,-68.3 -32.93,-68.23 -33.76,-68.04 -34.52,-67.71 -35.25,-67.21 -35.95,-66.41 -36.56,-65.27 -37.07,-63.95 -37.71,-63.12 -38.97,-63.57 -40.82,-64.14 -40.82,-64.14 -40.18,-65.57 -40.32,-67.53 -40.69,-70.22 -40.79,-72.78 -40.5,-74.76 -40.1,-76.41 -39.88,-78.19 -39.87,-80.26 -39.89,-82.4 -39.69,-84.36 -39.16,-86.09 -38.34,-87.74 -37.41,-89.5 -36.58,-91.39 -36.09,-93.29 -36.04,-95.19 -35.9,-97.11" fill="none" stroke="rgb(185, 55, 55)" stroke-width="2" stroke-linejoin="round" filter="url(#fuzzy)" /><polyline points="-41.02,-63.54 -42.41,-64.38 -42.93,-63.34 -43.54,-61.99 -44.31,-60.78 -45.12,-59.79 -45.88,-58.97 -46.57,-58.27 -47.23,-57.64 -47.97,-57.07 -48.82,-56.51 -49.79,-55.91 -50.83,-55.18 -51.86,-54.31 -52.83,-53.35 -53.77,-52.45 -54.72,-51.71 -55.65,-51.13 -56.58,-50.57 -57.71,-49.79 -59.64,-48.51" fill="none" stroke="rgb(185, 55, 55)" stroke-width="2" stroke-linejoin="round" filter="url(#fuzzy)" /><polyline points="-41.02,-63.54 -41.72,-63.3 -42.85,-63.12 -43.89,-62.42 -44.68,-61.27 -45.3,-60.02 -45.86,-58.92 -46.44,-58.05 -47.13,-57.38 -47.95,-56.84 -48.93,-56.36 -50.02,-55.85 -51.12,-55.21 -52.11,-54.36 -52.89,-53.31 -53.48,-52.12 -53.98,-50.9 -54.53,-49.78 -55.23,-48.79 -56.09,-47.9 -57.05,-47.11 -58,-46.45 -58.94,-46.02 -60.03,-45.78 -61.52,-45.69" fill="none" stroke="rgb(185, 55, 55)" stroke-width="2" stroke-linejoin="round" filter="url(#fuzzy)" /><polyline points="58.31,-21.21 58.79,-22.2 58.59,-23.5 58.25,-24.59 58.03,-25.55 57.94,-26.6 57.94,-27.82 57.94,-29.16 57.91,-30.54 57.81,-31.92 57.64,-33.3 57.42,-34.73 57.19,-36.22 56.96,-37.75 56.75,-39.26 56.53,-40.67 56.23,-41.98 55.66,-43.89 58.31,-21.21 58.38,-22.07 58.5,-23.51 58.58,-24.77 58.51,-25.81 58.3,-26.82 58.02,-27.92 57.76,-29.14 57.56,-30.46 57.44,-31.86 57.37,-33.34 57.35,-34.91 57.37,-36.55 57.4,-38.23 57.43,-39.88 57.44,-41.48 57.45,-43.02 57.49,-44.57 57.59,-46.23 57.68,-48.13 57.55,-50.34" fill="none" stroke="rgb(185, 55, 55)" stroke-width="2" stroke-linejoin="round" filter="url(#fuzzy)" /><polyline points="-42.01,-62.41 -42.87,-61.09 -43.75,-59.73 -44.49,-58.57 -45.07,-57.62 -45.56,-56.78 -45.99,-55.97 -46.43,-55.11 -46.91,-54.17 -47.44,-53.12 -48,-51.96 -48.57,-50.73 -49.11,-49.49 -49.61,-48.31 -50.07,-47.2 -50.51,-46.14 -50.95,-45.08 -51.39,-43.94 -51.81,-42.78 -52.16,-41.75 -52.4,-41.04 -52.77,-40.1" fill="none" stroke="rgb(185, 55, 55)" stroke-width="2" stroke-linejoin="round" filter="url(#fuzzy)" /><polyline points="-45.25,-57.48 -45.38,-56.49 -45.54,-55.31 -45.78,-54.3 -46.13,-53.29 -46.55,-52.13 -46.97,-50.77 -47.31,-49.28 -47.55,-47.76 -47.73,-46.34 -47.89,-45.07 -48.07,-43.91 -48.28,-42.75 -48.48,-41.46 -48.59,-39.99 -48.38,-38.64 -47.8,-38.45" fill="none" stroke="rgb(185, 55, 55)" stroke-width="2" stroke-linejoin="round" filter="url(#fuzzy)" /><polyline points="-29.55,-69.32 -30.78,-68.6 -31.73,-68.3 -32.48,-67.95 -33.11,-67.55 -33.73,-67.12 -34.41,-66.64 -35.19,-66.12 -36.04,-65.57 -36.92,-65.03 -37.79,-64.51 -38.59,-64.01 -39.33,-63.5 -39.99,-62.9 -40.59,-62.18 -41.17,-61.31 -41.77,-60.3 -42.43,-59.23 -43.17,-58.2 -43.94,-57.3 -44.67,-56.57 -45.32,-55.96 -45.98,-55.48 -46.49,-55.35 -50.8,-46.35 -50.99,-48.04 -50.36,-49.18 -49.62,-50.34 -48.91,-51.61 -48.27,-52.88 -47.72,-54.07 -47.26,-55.16 -46.88,-56.2 -46.54,-57.26 -46.2,-58.38 -45.83,-59.6 -45.41,-60.92 -44.96,-62.29 -44.46,-63.63 -43.93,-64.86 -43.4,-65.96 -42.88,-66.94 -42.4,-67.92 -41.97,-68.98 -41.55,-70.17 -41.03,-71.47 -40.3,-72.87 -39.38,-74.37 -38.22,-75.87 -50.86,-46.31 -50.27,-46.33 -49.83,-47.12 -49.05,-47.9 -47.95,-48.55 -46.76,-49.18 -45.69,-49.87 -44.82,-50.63 -44.15,-51.39 -43.6,-52.15 -43.1,-52.9 -42.6,-53.68 -42.04,-54.48 -41.37,-55.26 -40.56,-55.95 -39.63,-56.48 -38.64,-56.84 -37.68,-57.11 -36.85,-57.38 -36.14,-57.73 -35.52,-58.09 -34.85,-58.36 -33.95,-58.57 -32.77,-59.82 -52.5,-42.7 -52.44,-45.33 -53.63,-48.07 -54.96,-50.66 -55.56,-52.65 -55.2,-53.93 -54.14,-54.72 -52.83,-55.37 -51.67,-56.18 -50.91,-57.32 -50.59,-58.8 -50.59,-60.5 -50.7,-62.26 -50.7,-63.93 -50.5,-65.48 -50.14,-67.02 -49.74,-68.72 -49.45,-70.65 -49.3,-72.71 -49.17,-74.65 -48.92,-76.23 -48.49,-77.41 -48.07,-78.49 -48.12,-79.91 -48.95,-82.01 -52.5,-42.7 -53.44,-42.31 -54.75,-42.58 -56.26,-42.56 -58.03,-42.27 -60,-41.89 -61.87,-41.42 -63.32,-40.72 -64.21,-39.66 -64.63,-38.26 -64.86,-36.65 -65.19,-34.99 -65.92,-33.49 -67.29,-32.27 -69.36,-31.36 -71.84,-30.6 -74.05,-29.73 -76.3,-29.54 -53,-40.88 -52.1,-42.45 -50.78,-43.41 -49.78,-44.17 -49.24,-45.04 -48.86,-45.99 -48.31,-46.85 -47.42,-47.52 -46.21,-47.99 -44.83,-48.34 -43.51,-48.63 -42.4,-48.93 -41.5,-49.19 -40.62,-49.31 -39.53,-49.19 -38.06,-48.35" fill="none" stroke="rgb(185, 55, 55)" stroke-width="2" stroke-linejoin="round" filter="url(#fuzzy)" /><polyline points="-53.54,-39.77 -53.95,-41.14 -53.91,-42.09 -54.13,-43.32 -54.34,-44.82 -54.25,-46.25 -53.83,-47.42 -53.25,-48.38 -52.68,-49.33 -52.24,-50.47 -51.92,-51.88 -51.65,-53.54 -51.38,-55.36 -51.12,-57.2 -51,-58.91 -51.22,-60.41 -51.84,-61.59 -53.54,-39.77 -54.62,-37.76 -55.58,-36.68 -56.37,-35.74 -56.99,-34.7 -57.55,-33.5 -58.19,-32.24 -59.03,-31 -60.1,-29.86 -61.32,-28.82 -62.61,-27.86 -63.81,-26.94 -64.84,-26.02 -65.65,-25.04 -66.28,-23.95 -66.85,-22.75 -67.54,-21.45 -68.54,-20.11 -69.98,-18.77 -71.96,-17.52 -74.39,-16.39 -76.98,-15.39 -79.06,-14.37 -80,-13 -80.14,-10.91 -38.1,-48.4 -38.95,-48.44 -40.04,-48.55 -41.08,-48.62 -42.14,-48.55 -43.21,-48.23 -44.23,-47.64 -45.11,-46.84 -45.79,-45.87 -46.27,-44.82 -46.64,-43.77 -47.1,-42.83 -47.85,-42.11 -48.95,-41.64 -50.23,-41.34 -51.39,-41.08 -52.24,-40.77 -52.87,-40.32 -53.54,-39.77 -54.67,-36.5 -55.31,-39.93 -56.28,-42.46 -56.49,-43.93 -56.36,-45.11 -56.31,-46.53 -56.42,-48.2 -56.54,-49.92 -56.58,-51.56 -56.58,-53.18 -56.58,-54.91 -56.6,-56.82 -56.6,-58.89 -56.57,-61.07 -56.59,-63.3 -56.73,-65.5 -57.03,-67.64 -57.49,-69.86 -58.16,-72.42 -58.61,-74.45" fill="none" stroke="rgb(185, 55, 55)" stroke-width="2" stroke-linejoin="round" filter="url(#fuzzy)" /><polyline points="-55.49,-34.15 -55.62,-33.81 -56.4,-32.82 -57.65,-31.84 -59.1,-30.9 -60.47,-29.92 -61.57,-28.83 -62.32,-27.65 -62.71,-26.43 -62.84,-25.2 -62.87,-24 -62.98,-22.83 -63.33,-21.65 -63.95,-20.43 -64.79,-19.15 -65.73,-17.8 -66.71,-16.38 -67.75,-14.97 -68.85,-13.82 -69.67,-13.62" fill="none" stroke="rgb(185, 55, 55)" stroke-width="2" stroke-linejoin="round" filter="url(#fuzzy)" /><polyline points="-55.49,-34.15 -55.5,-33.75 -55.79,-32.53 -56.12,-31.1 -56.43,-29.64 -56.73,-28.2 -57,-26.81 -57.24,-25.49 -57.45,-24.27 -57.63,-23.17 -57.79,-22.15 -57.93,-21.15 -58.07,-20.05 -58.23,-18.82 -58.42,-17.49 -58.6,-16.11 -58.75,-14.68 -58.81,-13.34" fill="none" stroke="rgb(185, 55, 55)" stroke-width="2" stroke-linejoin="round" filter="url(#fuzzy)" /><polyline points="-56.43,-30.25 -57.07,-29.59 -57.66,-28.27 -58.03,-26.88 -58.32,-25.56 -58.74,-24.42 -59.42,-23.47 -60.33,-22.64 -61.37,-21.79 -62.34,-20.82 -63.13,-19.68 -63.7,-18.37 -64.14,-16.97 -64.61,-15.57 -65.23,-14.23 -66.02,-12.99 -66.93,-11.82 -67.82,-10.66 -68.56,-9.45 -69.14,-8.12 -69.61,-6.63 -70.08,-5.02 -70.61,-3.45 -71.24,-2.28 -72.21,-1.47" fill="none" stroke="rgb(185, 55, 55)" stroke-width="2" stroke-linejoin="round" filter="url(#fuzzy)" /><polyline points="-56.43,-30.25 -57.49,-33.1 -59.7,-36.11 -60.72,-38.16 -60.48,-39.52 -59.87,-40.8 -59.53,-42.35 -59.64,-44.15 -60.12,-46.11 -60.86,-48.23 -61.78,-50.57 -62.86,-53.2 -64.03,-55.99 -65,-58.59 -65.44,-60.62 -65.31,-62.21 -65.4,-64.28 -67.38,-68.2 -56.25,-30.19 -56.65,-27.8 -56.82,-26.24 -57.05,-24.92 -57.32,-23.77 -57.56,-22.74 -57.76,-21.76 -57.96,-20.73 -58.16,-19.59 -58.35,-18.33 -58.53,-16.99 -58.68,-15.62 -58.8,-14.26 -58.89,-12.95 -58.95,-11.73 -58.98,-10.58 -58.97,-9.48 -58.91,-8.4 -58.83,-7.33 -58.75,-6.24 -58.79,-4.92" fill="none" stroke="rgb(185, 55, 55)" stroke-width="2" stroke-linejoin="round" filter="url(#fuzzy)" /><polyline points="-55.11,-54.35 -55.18,-52.38 -55.3,-51.05 -55.36,-49.73 -55.31,-48.17 -55.18,-46.48 -55.03,-44.84 -54.93,-43.34 -54.97,-41.95 -55.18,-40.62 -55.59,-39.34 -56.13,-38.11 -56.73,-36.94 -57.29,-35.79 -57.73,-34.59 -57.97,-33.22 -57.87,-31.56 -57.32,-29.49 -57.09,-26.77 -57.09,-26.77 -58.23,-29.97 -57.7,-31.45 -57.04,-32.69 -56.63,-33.98 -56.51,-35.41 -56.66,-37.04 -57,-38.88 -57.43,-40.82 -57.83,-42.71 -58.13,-44.46 -58.35,-46.12 -58.58,-47.83 -58.88,-49.69 -59.27,-51.7 -59.78,-53.8 -60.44,-55.98 -61.13,-58.23 -61.4,-60.31 -61.08,-61.83" fill="none" stroke="rgb(185, 55, 55)" stroke-width="2" stroke-linejoin="round" filter="url(#fuzzy)" /><polyline points="57.35,-25.62 57.43,-26.08 57.55,-27.66 57.7,-29.34 57.72,-30.84 57.6,-32.22 57.43,-33.63 57.32,-35.17 57.36,-36.85 57.5,-38.61 57.64,-40.32 57.65,-41.89 57.45,-43.25 57.05,-44.43 56.56,-45.53 56.14,-46.63 55.91,-47.83 55.87,-49.26 55.82,-51.3 55.43,-54.75" fill="none" stroke="rgb(185, 55, 55)" stroke-width="2" stroke-linejoin="round" filter="url(#fuzzy)" /><polyline points="56.16,-30.81 55.64,-27.5 55.83,-25.88 56.05,-24.92 56.17,-24 56.26,-22.9 56.4,-21.63 56.58,-20.27 56.71,-18.86 56.7,-17.43 56.54,-16.03 56.28,-14.72 56.01,-13.55 55.82,-12.54 55.72,-11.59 55.64,-10.6 55.52,-9.44 55.33,-8.02 55.07,-6.31 54.72,-4.32 54.12,-2.2 55.62,-33.01 53.3,-30.1 53.71,-29.05 54.66,-28.31 55.28,-27.32 55.34,-26.12 54.96,-24.84 54.42,-23.56 54.01,-22.28 53.83,-21 53.82,-19.68 53.8,-18.3 53.61,-16.83 53.29,-15.31 52.99,-13.84 52.62,-12.5 51.59,-11.66 55.62,-33.01 54.43,-33.78 52.68,-34.23 51.09,-34.68 49.95,-35.33 49.31,-36.22 48.97,-37.26 48.69,-38.29 48.3,-39.2 47.76,-39.96 47.09,-40.64 46.32,-41.31 45.46,-41.99 44.54,-42.6 43.64,-43.04 42.67,-43.35 40.71,-43.95" fill="none" stroke="rgb(185, 55, 55)" stroke-width="2" stroke-linejoin="round" filter="url(#fuzzy)" /><polyline points="40.81,-58.72 41.86,-57.13 42.54,-56.19 43.16,-55.52 43.78,-54.97 44.44,-54.38 45.13,-53.68 45.83,-52.82 46.52,-51.84 47.19,-50.78 47.84,-49.7 48.47,-48.61 49.07,-47.52 49.64,-46.43 50.2,-45.36 50.73,-44.31 51.25,-43.31 51.78,-42.36 52.31,-41.41 52.8,-40.44 53.19,-39.38 53.45,-38.18 53.71,-36.89 54.61,-36.17" fill="none" stroke="rgb(185, 55, 55)" stroke-width="2" stroke-linejoin="round" filter="url(#fuzzy)" /><polyline points="54.44,-36.88 54.56,-35.75 54.68,-34.26 54.9,-32.81 55.23,-31.52 55.61,-30.33 55.99,-29.16 56.33,-28.01 56.62,-26.88 56.83,-25.78 56.98,-24.69 57.08,-23.55 57.15,-22.3 57.2,-20.93 57.25,-19.47 57.31,-17.97 57.37,-16.49 57.43,-15.07 57.43,-13.81 57.3,-12.86 56.98,-12.2 61.57,-22.41 60.71,-24.39 60.16,-25.58 59.73,-26.42 59.36,-27.31 59,-28.39 58.61,-29.58 58.16,-30.78 57.65,-31.96 57.1,-33.15 56.56,-34.39 56.06,-35.68 55.6,-37 55.16,-38.29 54.71,-39.48 54.23,-40.59 53.74,-41.63 53.18,-42.66 52.41,-43.7 51.54,-45.08 49.86,-49.25 50.95,-46.8 51.57,-45.46 51.97,-44.48 52.36,-43.54 52.81,-42.58 53.32,-41.62 53.87,-40.65 54.46,-39.66 55.07,-38.61 55.68,-37.48 56.28,-36.26 56.85,-34.97 57.36,-33.65 57.8,-32.44 58.1,-31.61 58.13,-31.89" fill="none" stroke="rgb(185, 55, 55)" stroke-width="2" stroke-linejoin="round" filter="url(#fuzzy)" /><polyline points="31.02,-61.86 32.46,-61.36 33.3,-61.03 34.03,-60.6 34.76,-59.98 35.52,-59.33 36.41,-58.85 37.45,-58.63 38.63,-58.58 39.84,-58.57 40.99,-58.44 41.98,-58.11 42.81,-57.57 43.49,-56.9 44.11,-56.21 44.75,-55.57 45.47,-54.98 46.26,-54.35 47.08,-53.56 47.91,-52.51 48.82,-51.06 50.11,-48.65" fill="none" stroke="rgb(185, 55, 55)" stroke-width="2" stroke-linejoin="round" filter="url(#fuzzy)" /><polyline points="48.14,-52.69 47.28,-54.09 46.69,-55.21 46.19,-56.18 45.71,-57.03 45.22,-57.84 44.68,-58.68 44.09,-59.57 43.47,-60.51 42.81,-61.47 42.14,-62.42 41.46,-63.37 40.77,-64.31 40.08,-65.25 39.39,-66.2 38.71,-67.15 38.04,-68.07 37.39,-68.95 36.75,-69.78 36.13,-70.53 35.53,-71.2 34.96,-71.83 34.3,-72.5 33.36,-73.39 32.13,-74.52 46.82,-54.73 47.51,-54.44 49.14,-54.3 51.17,-54.38 52.99,-54.31 54.55,-54.04 56.19,-53.8 58.1,-53.73 60.08,-53.73 61.81,-53.55 63.09,-53.03 64.03,-52.19 64.84,-51.2 65.64,-50.16 66.51,-49.13 67.75,-48.27 70,-47.96 73.42,-48.63 45.75,-56.88 45.68,-57.56 45.83,-58.7 45.76,-60.03 45.41,-61.3 44.96,-62.6 44.61,-64.12 44.44,-65.94 44.39,-67.96 44.36,-70.01 44.26,-72 44.07,-73.94 43.86,-75.96 43.76,-78.14 43.83,-80.48 43.73,-82.75 42.31,-84.37 42.7,-61.43 42.8,-58.46 43.26,-57.18 43.32,-55.79 43.21,-54.31 43.3,-53.03 43.75,-52.04 44.51,-51.28 45.41,-50.57 46.24,-49.75 46.84,-48.71 47.2,-47.43 47.39,-46 47.56,-44.58 47.79,-43.26 48.11,-42.08 48.46,-41.01 48.74,-39.94 48.89,-38.79 48.92,-37.54 48.83,-36.24 48.7,-34.88 48.9,-33.13 42.56,-61.7 43.04,-60.89 43.71,-59.79 44.3,-58.77 44.78,-57.84 45.18,-56.94 45.53,-55.95 45.86,-54.84 46.23,-53.62 46.66,-52.34 47.15,-51.07 47.65,-49.82 48.11,-48.6 48.47,-47.32 48.77,-45.95 49.04,-44.54 49.29,-43.28 49.47,-42.32 49.64,-41.08 28.95,-66.97 29.18,-66.41 30.2,-66.32 31.39,-66.59 32.45,-66.92 33.31,-67.01 34.01,-66.73 34.62,-66.13 35.23,-65.42 35.99,-64.85 36.94,-64.53 38.05,-64.4 39.16,-64.28 40.14,-63.99 41.03,-63.38 41.94,-62.47 42.56,-61.7 45.31,-37.5 44.81,-38.34 44.62,-39.22 44.56,-40.55 44.66,-42.19 44.9,-43.98 45.15,-45.8 45.3,-47.57 45.26,-49.21 45.04,-50.66 44.67,-51.9 44.21,-52.94 43.69,-53.8 43.09,-54.5 42.44,-55.12 41.76,-55.77 41.13,-56.56 40.62,-57.62 40.29,-59.01 40.12,-60.71 40.08,-62.55 40.19,-64.1 40.31,-64.65 38.68,-66.84 44.49,-73.07 44.87,-71.79 45.02,-70.05 45.59,-68.79 46.25,-67.67 46.84,-66.48 47.47,-65.36 48.34,-64.6 49.56,-64.35 51.09,-64.51 52.74,-64.8 54.36,-64.92 55.87,-64.73 57.32,-64.27 58.8,-63.69 60.33,-63.1 61.88,-62.5 63.34,-61.79 64.67,-60.9 65.96,-59.93 67.4,-59.14 69.04,-58.69 70.75,-58.16 72.24,-56.76" fill="none" stroke="rgb(185, 55, 55)" stroke-width="2" stroke-linejoin="round" filter="url(#fuzzy)" /><polyline points="37.45,-68.21 39.69,-68.55 41.5,-68.81 42.71,-68.61 44.04,-68.62 45.51,-68.79 46.83,-68.68 47.82,-68.07 48.55,-67.1 49.28,-66.13 50.26,-65.55 51.64,-65.57 53.49,-66.17 55.69,-67.1 57.97,-67.93 59.96,-68.1 61.51,-67.35 63.34,-66.14 67.01,-65.06 26.22,-73.16 26.9,-73.08 27.79,-72.78 28.73,-72.45 29.65,-72.22 30.53,-72.05 31.42,-71.87 32.3,-71.6 33.14,-71.24 33.9,-70.81 34.55,-70.29 35.1,-69.65 35.67,-68.88 36.32,-68.19 37.02,-67.94 37.45,-68.21 37.51,-68.25 37.16,-69.56 36.9,-71.46 36.82,-73.36 36.69,-74.95 36.37,-76.28 35.95,-77.67 35.56,-79.3 35.21,-81.04 34.79,-82.66 34.23,-84.03 33.54,-85.31 32.85,-86.74 32.22,-88.48 31.68,-90.42 31.15,-92.21 30.68,-93.49 30.76,-94.75" fill="none" stroke="rgb(185, 55, 55)" stroke-width="2" stroke-linejoin="round" filter="url(#fuzzy)" /><polyline points="37.16,-68.55 36.16,-70.24 35.94,-71.9 36.09,-74 36.18,-76.19 35.99,-78.09 35.52,-79.54 34.86,-80.63 34.11,-81.56 33.36,-82.59 32.67,-83.91 32.07,-85.53 31.53,-87.34 30.99,-89.09 30.39,-90.59 29.7,-91.76 28.93,-92.75 28.14,-93.87 27.43,-95.42 26.84,-97.46 26.28,-99.66 25.57,-101.5 24.43,-103.02 22.62,-105.48" fill="none" stroke="rgb(185, 55, 55)" stroke-width="2" stroke-linejoin="round" filter="url(#fuzzy)" /><polyline points="25.24,-103.15 25.41,-99.44 25.92,-97.75 26.61,-96.36 27.26,-94.66 27.88,-92.9 28.51,-91.37 29.21,-90.18 29.96,-89.18 30.7,-88.13 31.36,-86.8 31.91,-85.12 32.35,-83.2 32.75,-81.24 33.15,-79.45 33.64,-77.95 34.27,-76.79 35.08,-76.05 36.1,-75.86 37.15,-76.15 37.56,-75.68 35.5,-70.79" fill="none" stroke="rgb(185, 55, 55)" stroke-width="2" stroke-linejoin="round" filter="url(#fuzzy)" /><polyline points="17.42,-75.35 17.41,-75.93 18.3,-76.28 19.29,-76.56 20.21,-76.6 21.06,-76.41 21.9,-76.12 22.74,-75.87 23.6,-75.69 24.45,-75.55 25.32,-75.4 26.21,-75.22 27.13,-74.99 28.06,-74.69 28.95,-74.28 29.77,-73.73 30.52,-73.05 31.24,-72.32 32.01,-71.67 32.85,-71.18 33.72,-70.86 34.47,-70.67 35.06,-70.64 35.5,-70.79 35.5,-70.79 36,-68.15 36.31,-66.63 36.87,-65.75 37.43,-64.71 37.85,-63.39 38.21,-62 38.63,-60.74 39.11,-59.6 39.59,-58.48 40.02,-57.32 40.42,-56.13 40.77,-54.97 41.04,-53.81 41.1,-52.56 40.91,-51.12 40.59,-49.52 40.51,-48.08 40.91,-47.64" fill="none" stroke="rgb(185, 55, 55)" stroke-width="2" stroke-linejoin="round" filter="url(#fuzzy)" /><polyline points="35.25,-70.53 34.87,-71.36 34.77,-73.06 34.71,-75.43 34.51,-77.58 34.11,-79.2 33.55,-80.44 32.86,-81.48 32.08,-82.41 31.23,-83.26 30.39,-84.15 29.63,-85.26 29.04,-86.8 28.64,-88.89 28.38,-91.44 28.13,-94.18 27.77,-96.78 27.25,-99 26.59,-100.8 25.75,-102.21 24.53,-103.49 22.89,-106.71 31.9,-107.77 31.05,-102.05 31.07,-98.66 31.47,-96.65 32.06,-95.2 32.64,-93.56 33.11,-91.48 33.51,-89.15 33.84,-86.73 34,-84.16 33.93,-81.31 33.7,-78.29 33.61,-75.53 33.9,-73.4 34.44,-71.96 34.51,-71.57 35.08,-70.86 35.08,-71.29 35.62,-71.33 36.35,-71 37.12,-70.47 37.97,-69.95 38.9,-69.51 39.88,-69.07 40.83,-68.53 41.75,-67.91 42.67,-67.25 43.63,-66.64 44.64,-66.08 45.69,-65.55 46.76,-65.03 47.87,-64.6 49.03,-64.31 50.16,-64.17 51.06,-63.92 51.72,-63.15 52.88,-61.82" fill="none" stroke="rgb(185, 55, 55)" stroke-width="2" stroke-linejoin="round" filter="url(#fuzzy)" /><polyline points="31.97,-73.97 32.2,-73.29 32.7,-71.87 33.16,-70.41 33.65,-69.41 34.27,-68.83 34.94,-68.37 35.55,-67.72 36.01,-66.72 36.31,-65.37 36.49,-63.74 36.62,-62 36.74,-60.27 36.85,-58.58 36.94,-56.91 36.99,-55.22 37.06,-53.58 37.18,-52.06 37.4,-50.67 37.68,-49.23 38.08,-47.14" fill="none" stroke="rgb(185, 55, 55)" stroke-width="2" stroke-linejoin="round" filter="url(#fuzzy)" /><polyline points="11.57,-91.24 11.89,-91.07 12.72,-90.75 13.74,-90.28 14.79,-89.73 15.76,-89.1 16.65,-88.37 17.5,-87.52 18.32,-86.61 19.14,-85.69 19.96,-84.83 20.79,-84.07 21.63,-83.41 22.48,-82.84 23.32,-82.28 24.13,-81.7 24.9,-81.04 25.62,-80.3 26.31,-79.52 27.02,-78.73 27.77,-77.94 28.58,-77.15 29.44,-76.3 30.32,-75.39 30.97,-74.8" fill="none" stroke="rgb(185, 55, 55)" stroke-width="2" stroke-linejoin="round" filter="url(#fuzzy)" /><polyline points="20.66,-112.24 21.62,-108.3 22.26,-104.22 22.84,-101.2 23.56,-99.17 24.35,-97.68 25.1,-96.23 25.78,-94.59 26.42,-92.85 27.05,-91.2 27.67,-89.73 28.23,-88.26 28.65,-86.51 28.92,-84.31 29.13,-81.83 29.5,-79.6 30.18,-78.11 31.03,-77.1 30.97,-74.8" fill="none" stroke="rgb(185, 55, 55)" stroke-width="2" stroke-linejoin="round" filter="url(#fuzzy)" /><polyline points="30.65,-74.89 31.28,-74.98 32.12,-75.06 33.13,-75.12 34.22,-75.11 35.23,-74.97 36.13,-74.68 36.96,-74.32 37.84,-74 38.81,-73.78 39.87,-73.61 40.98,-73.42 42.13,-73.18 43.29,-72.87 44.46,-72.53 45.66,-72.17 46.89,-71.82 48.12,-71.44 49.33,-70.98 50.52,-70.46 51.74,-69.96 53.07,-69.69 54.48,-69.79 55.73,-70.23 56.47,-70.22 30.65,-74.89 31.25,-74.94 31.92,-74.7 32.78,-74.48 33.89,-74.52 35.21,-75 36.7,-75.91 38.21,-76.95 39.58,-77.69 40.76,-77.9 41.83,-77.73 43.02,-77.55 44.48,-77.7 46.26,-78.27 48.18,-79.05 50.12,-79.83 52.13,-80.48 54.26,-80.81 55.83,-80.94 28.29,-77.2 28.55,-80.6 27.79,-81.47 26.87,-81.62 26.11,-82.23 25.53,-83.49 25.01,-85.17 24.49,-87 23.92,-88.76 23.27,-90.29 22.51,-91.44 21.63,-92.15 20.64,-92.53 19.6,-92.79 18.58,-93.19 17.6,-93.89 16.66,-94.97 15.75,-96.37 14.84,-98 13.98,-99.78 13.2,-101.61 12.41,-103.2 11.33,-104.18 9.49,-105.04" fill="none" stroke="rgb(185, 55, 55)" stroke-width="2" stroke-linejoin="round" filter="url(#fuzzy)" /><polyline points="28.29,-77.2 29.37,-76.9 30.78,-77.23 32.02,-77.57 33.01,-77.51 33.83,-77.01 34.57,-76.27 35.35,-75.6 36.25,-75.21 37.28,-75.18 38.46,-75.41 39.75,-75.76 41.12,-76.15 42.58,-76.53 44.11,-76.9 45.69,-77.21 47.23,-77.4 48.73,-77.42 50.24,-77.39 51.9,-77.47 53.79,-77.83 55.91,-78.26 58.15,-77.17" fill="none" stroke="rgb(185, 55, 55)" stroke-width="2" stroke-linejoin="round" filter="url(#fuzzy)" /><polyline points="12.02,-83.35 13.85,-82.74 14.81,-82.37 15.59,-82.04 16.4,-81.74 17.28,-81.46 18.17,-81.21 19.07,-80.98 19.96,-80.74 20.83,-80.48 21.69,-80.19 22.57,-79.89 23.46,-79.6 24.32,-79.33 25.09,-79.05 25.68,-78.74 26.18,-78.5 25.54,-78.85 26.41,-78.51 27.46,-78.24 28.6,-78.22 29.8,-78.37 30.94,-78.41 31.9,-78.13 32.71,-77.57 33.51,-77 34.47,-76.67 35.59,-76.66 36.73,-76.85 37.73,-77.04 38.63,-77.12 39.72,-77.08 41.44,-76.45 7.98,-108.92 9.19,-109.18 10.31,-108 11.39,-106.48 12.33,-104.64 13.15,-102.56 13.96,-100.53 14.85,-98.81 15.79,-97.48 16.74,-96.36 17.63,-95.16 18.41,-93.66 19.11,-91.84 19.73,-89.81 20.32,-87.75 20.9,-85.8 21.49,-84.07 22.12,-82.63 22.83,-81.53 23.66,-80.76 24.58,-80.12 25.65,-79" fill="none" stroke="rgb(185, 55, 55)" stroke-width="2" stroke-linejoin="round" filter="url(#fuzzy)" /><polyline points="7.61,-103.77 8.58,-102.17 9.61,-101 10.63,-99.61 11.52,-98.06 12.34,-96.51 13.14,-95.02 13.98,-93.58 14.84,-92.18 15.69,-90.83 16.51,-89.55 17.29,-88.3 18.05,-87.08 18.82,-85.92 19.63,-84.94 20.49,-84.23 21.28,-83.59 21.81,-82.46 22.3,-80.9 21.2,-81.58 20.93,-82.25 20.4,-84.14 19.88,-86.43 19.29,-88.38 18.57,-89.76 17.75,-90.7 16.87,-91.55 15.99,-92.72 15.16,-94.55 14.42,-97.14 13.77,-100.24 13.14,-103.25 12.39,-105.44 11.39,-106.48 10.19,-106.84 9.06,-108.06 8.25,-112.52" fill="none" stroke="rgb(185, 55, 55)" stroke-width="2" stroke-linejoin="round" filter="url(#fuzzy)" /><polyline points="50.46,-91.91 48.86,-89.68 47.23,-88.66 45.49,-87.82 43.8,-86.89 42.13,-85.8 40.47,-84.75 38.96,-84.09 37.7,-84.01 36.66,-84.4 35.68,-84.86 34.59,-85.03 33.31,-84.73 31.87,-84.07 30.4,-83.3 29.02,-82.65 27.82,-82.29 26.82,-82.33 26.03,-82.92 25.37,-83.94 24.54,-84.64 23.06,-83.57 21.2,-81.58 21.29,-81.72 21.63,-81.47 22.47,-81.28 23.51,-81.32 24.59,-81.54 25.62,-81.78 26.61,-81.91 27.55,-81.86 28.46,-81.57 29.34,-81.05 30.2,-80.36 31.07,-79.64 31.97,-79.05 32.94,-78.74 34.03,-78.72 35.23,-78.87 36.51,-79.01 37.72,-79.06 38.7,-79.16 39.52,-79.07 20.1,-82.13 18.9,-83.08 18.15,-83.78 17.33,-84.43 16.47,-85.02 15.6,-85.63 14.72,-86.33 13.83,-87.15 12.94,-88 12.07,-88.77 11.19,-89.41 10.3,-89.93 9.39,-90.4 8.46,-90.81 7.55,-91.13 6.65,-91.34 5.77,-91.46 4.9,-91.6 4.07,-91.88 3.31,-92.42 2.54,-93.28 0.9,-94.44 20.1,-82.13 18.8,-82.66 17.91,-82.61 16.91,-82.29 15.89,-81.91 14.91,-81.69 13.94,-81.6 12.97,-81.47 12,-81.15 11.03,-80.61 10.07,-79.88 9.12,-79.05 8.18,-78.15 7.26,-77.22 6.37,-76.33 5.52,-75.61 4.73,-75.16 3.99,-75.05 3.29,-75.2 2.62,-75.4 1.9,-75.3 1,-74.64 -0.01,-73.31" fill="none" stroke="rgb(185, 55, 55)" stroke-width="2" stroke-linejoin="round" filter="url(#fuzzy)" /><polyline points="17.91,-83.5 19.5,-82.24 20.51,-81.41 21.31,-80.74 22.08,-80.12 22.85,-79.48 23.6,-78.8 24.3,-78.08 24.98,-77.37 25.67,-76.68 26.39,-76 27.11,-75.25 27.81,-74.35 28.45,-73.27 29,-72.05 29.45,-70.76 29.82,-69.47 30.21,-68.13 30.83,-66.59 31.98,-64.58 -3.64,-101.58 -2.32,-100.9 -1.78,-99.97 -1.08,-99.19 -0.12,-98.62 0.97,-98.19 2.05,-97.82 3.07,-97.4 4.02,-96.84 4.92,-96.07 5.78,-95.1 6.64,-94.03 7.52,-93.01 8.43,-92.17 9.37,-91.59 10.32,-91.26 11.27,-91.05 12.21,-90.76 13.11,-90.13 13.97,-88.99 14.76,-87.43 15.5,-85.83 16.28,-84.65 17.36,-83.89 19.11,-82.65" fill="none" stroke="rgb(185, 55, 55)" stroke-width="2" stroke-linejoin="round" filter="url(#fuzzy)" /><polyline points="33.9,-92.51 32.38,-91.23 31.09,-91.02 30.15,-91.4 29.26,-91.77 28.27,-91.88 27.17,-91.81 26.04,-91.74 24.95,-91.84 23.94,-92.18 22.98,-92.63 21.97,-92.84 20.81,-92.29 19.42,-90.68 17.89,-88.36 16.54,-86.36 15.71,-85.47 15.17,-84.39 15.17,-84.39 13.28,-85.28 12.2,-85.88 11.39,-86.51 10.62,-87.14 9.79,-87.7 8.9,-88.17 7.99,-88.6 7.11,-89.02 6.25,-89.47 5.4,-89.9 4.56,-90.27 3.7,-90.55 2.79,-90.76 1.83,-90.99 0.83,-91.32 -0.15,-91.81 -1.05,-92.39 -1.82,-92.93 -2.62,-93.39 -3.91,-93.91 -6.16,-94.57" fill="none" stroke="rgb(185, 55, 55)" stroke-width="2" stroke-linejoin="round" filter="url(#fuzzy)" /><polyline points="15.17,-84.39 13.25,-85.1 12.13,-85.31 11.23,-85.14 10.35,-84.74 9.43,-84.36 8.5,-84.16 7.59,-84.12 6.72,-84.13 5.88,-84.1 5.06,-83.97 4.24,-83.75 3.41,-83.42 2.56,-83.03 1.68,-82.61 0.77,-82.22 -0.1,-81.85 -0.91,-81.44 -1.64,-80.89 -2.4,-80.17 -3.38,-79.38 -4.62,-78.67 -5.61,-78.27 -1.09,-100.93 -1.66,-99.47 -1.21,-98.54 -0.24,-97.57 0.88,-96.41 1.97,-95.23 2.95,-94.22 3.86,-93.46 4.72,-92.87 5.56,-92.31 6.4,-91.67 7.25,-90.95 8.12,-90.22 9.02,-89.48 9.89,-88.66 10.66,-87.63 11.31,-86.55 11.89,-85.79 12.34,-85.62 12.34,-85.62 11.78,-84.96 11.11,-84.82 10.36,-84.75 9.5,-84.64 8.58,-84.52 7.66,-84.4 6.78,-84.28 5.95,-84.17 5.14,-84.09 4.36,-83.98 3.58,-83.74 2.79,-83.27 1.94,-82.56 0.93,-81.78 -0.27,-81.27 -1.61,-81.5 -1.47,-74.43 -0.24,-76.24 0.87,-77.56 1.81,-78.53 2.63,-79.35 3.39,-80 4.15,-80.48 4.92,-80.84 5.7,-81.11 6.47,-81.15 7.26,-80.83 8.08,-80.23 8.94,-79.9 9.88,-80.72 10.9,-83.18 12.14,-85.46" fill="none" stroke="rgb(185, 55, 55)" stroke-width="2" stroke-linejoin="round" filter="url(#fuzzy)" /><polyline points="-1.28,-118.4 -1.9,-114.47 -1.4,-112.54 -0.31,-110.59 0.94,-108.36 2.14,-106.25 3.23,-104.59 4.21,-103.36 5.13,-102.27 6,-100.96 6.81,-99.13 7.57,-96.74 8.36,-94.19 9.25,-92.34 10.31,-92.18 11.45,-93.83 12.32,-94.61 12.14,-85.46 10.76,-86.12 11.9,-85.89 13.01,-85.5 14.1,-85.17 15.13,-85.05 16.14,-85.15 17.16,-85.36 18.19,-85.57 19.22,-85.67 20.22,-85.65 21.2,-85.52 22.17,-85.34 23.14,-85.16 24.12,-85 25.13,-84.94 26.16,-85.01 27.24,-85.26 28.36,-85.64 29.53,-86.04 30.73,-86.34 31.98,-86.48 33.36,-86.42 35.04,-85.6 9.93,-86.23 8.46,-86.54 7.5,-86.73 6.68,-86.92 5.89,-87.1 5.09,-87.25 4.28,-87.39 3.45,-87.54 2.58,-87.71 1.66,-87.89 0.7,-88.06 -0.23,-88.18 -1.08,-88.26 -1.85,-88.32 -2.69,-88.37 -3.81,-88.43 -5.23,-88.49 -6.35,-88.5" fill="none" stroke="rgb(185, 55, 55)" stroke-width="2" stroke-linejoin="round" filter="url(#fuzzy)" /><polyline points="7.48,-86.61 6.58,-86.76 5.78,-86.9 4.97,-87.13 4.15,-87.47 3.32,-87.95 2.44,-88.55 1.51,-89.17 0.55,-89.71 -0.38,-90.11 -1.29,-90.42 -2.19,-90.75 -3.16,-91.2 -4.23,-91.77 -5.37,-92.39 -6.52,-92.96 -7.64,-93.41 -8.77,-93.82 -9.97,-94.39 -11.41,-94.91 7.48,-86.61 6.58,-86.6 5.77,-86.45 4.96,-86.36 4.15,-86.35 3.33,-86.34 2.48,-86.24 1.57,-86.03 0.63,-85.73 -0.27,-85.4 -1.09,-85.07 -1.86,-84.76 -2.68,-84.42 -3.67,-84.04 -4.75,-83.67 -5.61,-83.34 -5.79,-82.88 -7.86,-79.22 -6.44,-79.95 -5.6,-81.12 -4.69,-82.1 -3.69,-82.9 -2.75,-83.64 -1.94,-84.34 -1.18,-84.96 -0.37,-85.45 0.53,-85.82 1.48,-86.06 2.4,-86.22 3.24,-86.37 4.05,-86.51 4.91,-86.61 5.91,-86.7" fill="none" stroke="rgb(185, 55, 55)" stroke-width="2" stroke-linejoin="round" filter="url(#fuzzy)" /><polyline points="-12.51,-104.97 -11.77,-102.6 -10.65,-101.04 -9.42,-99.65 -8.22,-98.8 -7.06,-98.67 -5.9,-98.88 -4.73,-98.9 -3.6,-98.46 -2.59,-97.65 -1.69,-96.52 -0.8,-94.83 0.23,-92.36 1.38,-89.56 2.31,-87.65 1.99,-87.3 3.75,-86.99 3.29,-87.31 3.89,-87.4 4.72,-87.56 5.59,-87.8 6.48,-88.05 7.39,-88.25 8.33,-88.4 9.3,-88.56 10.28,-88.77 11.28,-89.04 12.3,-89.34 13.34,-89.62 14.41,-89.82 15.47,-89.9 16.49,-89.83 17.49,-89.67 18.49,-89.48 19.51,-89.33 20.55,-89.18 21.61,-88.99 22.61,-88.87 23.19,-89.23 -11.51,-77.28 -11.19,-78.21 -10.6,-79.24 -10.01,-80.44 -9.4,-81.57 -8.71,-82.47 -7.92,-83.04 -7.05,-83.32 -6.11,-83.44 -5.13,-83.54 -4.11,-83.72 -3.13,-84.04 -2.28,-84.57 -1.59,-85.4 -0.94,-86.42 -0.11,-87.22 0.84,-87.51 24.35,-99.51 22.6,-99.3 21.3,-98.22 20,-97.24 18.71,-96.31 17.46,-95.48 16.24,-94.85 15.06,-94.43 13.92,-94.13 12.82,-93.81 11.76,-93.38 10.71,-92.78 9.64,-92.06 8.59,-91.27 7.56,-90.56 6.59,-90.06 5.68,-89.84 4.82,-89.76 3.99,-89.5 3.2,-88.75 2.41,-87.74 0.84,-87.51 14.9,-82.87 13.07,-83.82 12.01,-84.29 11.21,-84.66 10.44,-84.98 9.62,-85.24 8.74,-85.48 7.85,-85.71 6.99,-85.94 6.16,-86.15 5.36,-86.36 4.56,-86.58 3.79,-86.82 3.09,-87.04 2.37,-87.22 0.84,-87.51" fill="none" stroke="rgb(185, 55, 55)" stroke-width="2" stroke-linejoin="round" filter="url(#fuzzy)" />
    </g>
    
        <g id="pointNose">
          <g id="rightNose"><circle r="1.5" cx="6.462" cy="2.25" stroke="black" fill="none" stroke-width="1.0" filter="url(#fuzzy)" /><circle r="1.332" cx="8.07" cy="-0.706" stroke="black" fill="none" stroke-width="1.0" filter="url(#fuzzy)" /><circle r="1.774" cx="7.646000000000001" cy="-0.8460000000000001" stroke="black" fill="none" stroke-width="1.0" filter="url(#fuzzy)" /><circle r="2.068" cx="5.698" cy="-0.954" stroke="black" fill="none" stroke-width="1.0" filter="url(#fuzzy)" /><circle r="2.666" cx="8.218" cy="-0.46199999999999997" stroke="black" fill="none" stroke-width="1.0" filter="url(#fuzzy)" /><circle r="1.968" cx="7.754000000000001" cy="0.9580000000000002" stroke="black" fill="none" stroke-width="1.0" filter="url(#fuzzy)" /><circle r="1.1360000000000001" cx="5.7540000000000004" cy="-0.28600000000000003" stroke="black" fill="none" stroke-width="1.0" filter="url(#fuzzy)" /><circle r="2.174" cx="5.838" cy="1.8780000000000001" stroke="black" fill="none" stroke-width="1.0" filter="url(#fuzzy)" /><circle r="2.442" cx="5.466" cy="1.142" stroke="black" fill="none" stroke-width="1.0" filter="url(#fuzzy)" /><circle r="1.8719999999999999" cx="7.870000000000001" cy="2.0620000000000003" stroke="black" fill="none" stroke-width="1.0" filter="url(#fuzzy)" /></g>
          <g id="leftNose"><circle r="2.262" cx="-8.086" cy="-0.24400000000000022" stroke="black" fill="none" stroke-width="1.0" filter="url(#fuzzy)" /><circle r="1.238" cx="-8.094000000000001" cy="0.952" stroke="black" fill="none" stroke-width="1.0" filter="url(#fuzzy)" /><circle r="2.2640000000000002" cx="-8.238" cy="0.016000000000000014" stroke="black" fill="none" stroke-width="1.0" filter="url(#fuzzy)" /><circle r="2.016" cx="-7.082" cy="-2.84" stroke="black" fill="none" stroke-width="1.0" filter="url(#fuzzy)" /><circle r="1.464" cx="-5.538" cy="-2.888" stroke="black" fill="none" stroke-width="1.0" filter="url(#fuzzy)" /><circle r="2.3360000000000003" cx="-6.026" cy="-0.5800000000000001" stroke="black" fill="none" stroke-width="1.0" filter="url(#fuzzy)" /><circle r="2.1100000000000003" cx="-6.3260000000000005" cy="-1.1320000000000001" stroke="black" fill="none" stroke-width="1.0" filter="url(#fuzzy)" /><circle r="1.212" cx="-6.1419999999999995" cy="0.05600000000000005" stroke="black" fill="none" stroke-width="1.0" filter="url(#fuzzy)" /><circle r="1.216" cx="-8.166" cy="-0.9119999999999999" stroke="black" fill="none" stroke-width="1.0" filter="url(#fuzzy)" /><circle r="1.37" cx="-5.3740000000000006" cy="-0.6920000000000002" stroke="black" fill="none" stroke-width="1.0" filter="url(#fuzzy)" /></g>
        </g>
      
    <g id="mouth">
      <polyline points="-25.48,50.87 -24.71,50.09 -23.95,49.33 -23.19,48.6 -22.43,47.89 -21.67,47.22 -20.91,46.56 -20.15,45.94 -19.4,45.33 -18.64,44.76 -17.89,44.2 -17.14,43.68 -16.4,43.17 -15.65,42.69 -14.91,42.23 -14.17,41.8 -13.43,41.39 -12.7,41 -11.97,40.63 -11.24,40.29 -10.51,39.96 -9.79,39.66 -9.07,39.38 -8.35,39.12 -7.64,38.88 -6.93,38.66 -6.22,38.46 -5.52,38.29 -4.82,38.12 -4.12,37.98 -3.43,37.86 -2.75,37.76 -2.06,37.67 -1.38,37.6 -0.71,37.55 -0.04,37.52 0.63,37.51 1.29,37.51 1.94,37.52 2.6,37.56 3.24,37.61 3.88,37.67 4.52,37.75 5.15,37.85 5.78,37.96 6.4,38.08 7.01,38.22 7.62,38.37 8.22,38.54 8.82,38.72 9.41,38.91 10,39.12 10.58,39.33 11.15,39.56 11.72,39.81 12.28,40.06 12.83,40.32 13.38,40.6 13.92,40.88 14.45,41.18 14.98,41.49 15.49,41.8 16.01,42.13 16.51,42.47 17.01,42.81 17.5,43.16 17.98,43.52 18.46,43.89 18.92,44.27 19.38,44.65 19.83,45.05 20.28,45.44 20.71,45.85 21.14,46.26 21.56,46.68 21.97,47.1 22.37,47.53 22.76,47.96 23.14,48.4 23.52,48.85 23.88,49.3 24.24,49.75 24.59,50.2 24.93,50.66 25.25,51.12 25.57,51.59 25.88,52.06 26.18,52.53 26.47,53 26.75,53.47 27.03,53.95 27.29,54.43 27.54,54.9 27.78,55.38 28,55.86 28.22,56.34 28.43,56.82 28.63,57.29 28.82,57.77 28.99,58.24 28.99,58.24 28.45,58.16 27.9,58.07 27.36,57.99 26.81,57.9 26.27,57.82 25.72,57.73 25.18,57.64 24.64,57.56 24.09,57.47 23.55,57.39 23,57.3 22.46,57.22 21.91,57.13 21.37,57.04 20.82,56.96 20.28,56.87 19.73,56.79 19.19,56.7 18.64,56.62 18.1,56.53 17.55,56.45 17.01,56.36 16.46,56.28 15.92,56.19 15.38,56.11 14.83,56.03 14.29,55.94 13.74,55.86 13.2,55.77 12.65,55.69 12.11,55.61 11.56,55.53 11.02,55.44 10.47,55.36 9.93,55.28 9.38,55.2 8.84,55.11 8.29,55.03 7.75,54.95 7.2,54.87 6.66,54.79 6.12,54.71 5.57,54.63 5.03,54.55 4.48,54.47 3.94,54.39 3.39,54.32 2.85,54.24 2.3,54.16 1.76,54.08 1.21,54.01 0.67,53.93 0.12,53.85 -0.42,53.78 -0.97,53.7 -1.51,53.63 -2.06,53.55 -2.6,53.48 -3.14,53.41 -3.69,53.33 -4.23,53.26 -4.78,53.19 -5.32,53.12 -5.87,53.05 -6.41,52.97 -6.96,52.9 -7.5,52.84 -8.05,52.77 -8.59,52.7 -9.14,52.63 -9.68,52.56 -10.23,52.5 -10.77,52.43 -11.32,52.36 -11.86,52.3 -12.4,52.24 -12.95,52.17 -13.49,52.11 -14.04,52.05 -14.58,51.98 -15.13,51.92 -15.67,51.86 -16.22,51.8 -16.76,51.74 -17.31,51.68 -17.85,51.63 -18.4,51.57 -18.94,51.51 -19.49,51.46 -20.03,51.4 -20.58,51.35 -21.12,51.3 -21.67,51.24 -22.21,51.19 -22.75,51.14 -23.3,51.09 -23.84,51.04 -24.39,50.99 -24.93,50.94" fill="rgb(215,127,140)" stroke="black" stroke-width="3" stroke-linejoin="round" filter="url(#fuzzy)" />
    </g>
  </svg>
  