
  <svg viewBox="-100 -100 200 200" xmlns="http://www.w3.org/2000/svg" width="500" height="500" id="face-svg">
    <defs>
      <clipPath id="leftEyeClipPath">
        <polyline points="35.08,-1.1 34.62,-1.17 34.13,-1.23 33.6,-1.29 33.04,-1.36 32.44,-1.42 31.82,-1.48 31.16,-1.54 30.48,-1.61 29.77,-1.67 29.03,-1.73 28.28,-1.79 27.5,-1.85 26.7,-1.91 25.88,-1.97 25.05,-2.03 24.1,-2.09 23.13,-2.15 22.13,-2.21 21.11,-2.27 20.08,-2.33 19.03,-2.39 17.97,-2.45 16.89,-2.52 15.81,-2.58 14.72,-2.64 13.63,-2.71 12.53,-2.77 11.43,-2.83 10.34,-2.89 9.24,-2.94 8.16,-3 7.08,-3.06 6.01,-3.11 4.95,-3.16 3.91,-3.2 2.87,-3.25 1.86,-3.29 0.85,-3.33 -0.13,-3.36 -1.09,-3.39 -2.04,-3.42 -2.96,-3.44 -3.86,-3.46 -4.74,-3.48 -5.59,-3.49 -6.43,-3.5 -7.23,-3.51 -8.02,-3.51 -8.77,-3.51 -9.51,-3.5 -10.21,-3.49 -10.9,-3.48 -11.55,-3.46 -12.19,-3.45 -12.8,-3.42 -13.38,-3.4 -13.95,-3.37 -14.48,-3.34 -15,-3.31 -15.5,-3.27 -15.97,-3.23 -16.43,-3.19 -16.87,-3.15 -17.29,-3.11 -17.69,-3.07 -18.08,-3.03 -18.45,-2.98 -18.8,-2.94 -19.14,-2.89 -19.47,-2.84 -19.78,-2.79 -20.08,-2.74 -20.36,-2.69 -20.64,-2.64 -20.9,-2.59 -21.14,-2.54 -21.38,-2.49 -21.6,-2.43 -21.82,-2.38 -20.01,-0.06 -19.73,0.03 -19.45,0.12 -19.15,0.21 -18.84,0.3 -18.52,0.39 -18.19,0.49 -17.84,0.58 -17.49,0.67 -17.12,0.77 -16.74,0.87 -16.35,0.96 -15.95,1.06 -15.53,1.16 -15.11,1.26 -14.66,1.36 -14.21,1.46 -13.74,1.56 -13.25,1.66 -12.75,1.76 -12.23,1.86 -11.69,1.96 -11.14,2.06 -10.56,2.16 -9.97,2.26 -9.37,2.35 -8.74,2.45 -8.09,2.54 -7.43,2.63 -6.75,2.72 -6.05,2.81 -5.33,2.89 -4.59,2.97 -3.83,3.04 -3.05,3.11 -2.26,3.18 -1.45,3.24 -0.62,3.3 0.23,3.35 1.09,3.39 1.97,3.43 2.87,3.46 3.77,3.49 4.7,3.51 5.63,3.52 6.58,3.53 7.54,3.52 8.51,3.51 9.49,3.49 10.47,3.47 11.47,3.43 12.46,3.39 13.47,3.34 14.47,3.28 15.48,3.21 16.49,3.14 17.49,3.05 18.5,2.96 19.49,2.86 20.48,2.75 21.47,2.64 22.44,2.52 23.4,2.39 24.35,2.26 25.28,2.12 26.07,2.02 26.84,1.93 27.61,1.82 28.35,1.72 29.08,1.62 29.79,1.51 30.47,1.4 31.14,1.29 31.78,1.18 32.4,1.07 32.99,0.96 33.55,0.85 34.08,0.74 34.57,0.63 35.04,0.52" />
      </clipPath>
      <clipPath id="rightEyeClipPath">
        <polyline points="-36.79,-1.35 -36.33,-1.42 -35.84,-1.49 -35.32,-1.57 -34.76,-1.64 -34.17,-1.71 -33.55,-1.78 -32.9,-1.85 -32.22,-1.92 -31.51,-1.99 -30.78,-2.06 -30.02,-2.12 -29.24,-2.19 -28.44,-2.26 -27.62,-2.33 -26.78,-2.4 -25.85,-2.46 -24.89,-2.53 -23.91,-2.6 -22.9,-2.67 -21.86,-2.74 -20.81,-2.81 -19.74,-2.89 -18.65,-2.96 -17.54,-3.03 -16.43,-3.1 -15.31,-3.18 -14.18,-3.25 -13.04,-3.31 -11.91,-3.38 -10.77,-3.45 -9.64,-3.51 -8.51,-3.57 -7.39,-3.63 -6.27,-3.69 -5.17,-3.74 -4.08,-3.79 -3.01,-3.83 -1.95,-3.88 -0.9,-3.92 0.12,-3.95 1.12,-3.98 2.1,-4.01 3.06,-4.03 4,-4.05 4.91,-4.06 5.79,-4.07 6.65,-4.08 7.48,-4.08 8.29,-4.07 9.07,-4.06 9.82,-4.05 10.54,-4.04 11.24,-4.02 11.91,-4 12.55,-3.97 13.17,-3.94 13.76,-3.91 14.32,-3.87 14.86,-3.83 15.38,-3.79 15.88,-3.75 16.35,-3.71 16.8,-3.66 17.24,-3.61 17.65,-3.57 18.05,-3.52 18.43,-3.47 18.8,-3.42 19.15,-3.36 19.48,-3.31 19.79,-3.25 20.09,-3.2 20.38,-3.14 20.65,-3.08 20.91,-3.03 21.16,-2.97 21.39,-2.91 21.61,-2.85 21.82,-2.8 20.11,-0.23 19.85,-0.14 19.58,-0.05 19.3,0.05 19.01,0.14 18.7,0.24 18.39,0.34 18.07,0.44 17.73,0.54 17.39,0.65 17.03,0.75 16.66,0.86 16.28,0.97 15.89,1.08 15.49,1.19 15.07,1.31 14.64,1.42 14.19,1.54 13.73,1.65 13.25,1.77 12.76,1.89 12.25,2.01 11.72,2.13 11.18,2.26 10.62,2.38 10.04,2.5 9.44,2.62 8.82,2.74 8.18,2.86 7.52,2.97 6.85,3.09 6.15,3.2 5.44,3.31 4.7,3.41 3.94,3.52 3.17,3.61 2.38,3.71 1.56,3.79 0.73,3.87 -0.12,3.95 -0.99,4.02 -1.87,4.08 -2.77,4.13 -3.69,4.18 -4.63,4.22 -5.58,4.25 -6.54,4.27 -7.52,4.28 -8.5,4.28 -9.5,4.27 -10.51,4.25 -11.53,4.21 -12.56,4.17 -13.59,4.12 -14.63,4.05 -15.67,3.98 -16.71,3.89 -17.75,3.79 -18.8,3.68 -19.83,3.56 -20.87,3.43 -21.9,3.28 -22.92,3.13 -23.93,2.97 -24.92,2.8 -25.76,2.69 -26.59,2.58 -27.41,2.46 -28.21,2.34 -29,2.21 -29.77,2.09 -30.53,1.95 -31.26,1.82 -31.98,1.69 -32.67,1.55 -33.33,1.41 -33.97,1.28 -34.59,1.14 -35.17,1 -35.71,0.87" />
      </clipPath>
      <filter id="fuzzy">
        <feTurbulence id="turbulence" baseFrequency="0.05" numOctaves="3" type="noise" result="noise" />
        <feDisplacementMap in="SourceGraphic" in2="noise" scale="2" />
      </filter>
      <linearGradient id="rainbowGradient" x1="0%" y1="0%" x2="100%" y2="0%">
        <stop offset="0%" style="stop-color: rgb(185, 55, 55); stop-opacity: 1" />
        <stop offset="50%" style="stop-color: rgb(220, 208, 186); stop-opacity: 1" />
        <stop offset="100%" style="stop-color: rgb(220, 20, 60); stop-opacity: 1" />
      </linearGradient>
    </defs>
    <rect x="-100" y="-100" width="100%" height="100%" fill="rgb(255, 250, 240)" />
    <polyline id="faceContour" points="72.38,1.37 72.24,1.99 72.27,1.41 72.23,4.44 72.12,4.52 72.12,6.77 72.06,8.21 71.75,8.97 71.53,11.28 71.52,12.94 71.21,14.61 71.36,14.71 70.89,16.28 71.03,17.81 70.33,19.85 69.98,22.18 69.85,21.87 69.25,24.68 69.57,23.26 69.46,24.01 68.64,26.78 67.98,29.46 68.08,29.19 67.3,31.56 67.21,32.62 66.76,32.71 66.57,34.11 65.69,36.35 64.7,39.16 64.63,39 64.2,39.96 63.79,41.25 63.29,42.14 63.17,42.68 62.29,44.89 61.88,45.08 61.19,46.11 59.71,49.71 59.99,48.98 59.72,49.59 57.83,52.1 57.05,53.35 58.26,51.65 56.43,54.78 55.64,55.72 55.55,55.99 54.37,57.6 54.15,57.8 53.45,58.85 51.22,61.89 52.83,60.12 49.62,63.83 49.71,63.51 49.79,63.34 48.24,65 47.37,66.3 47.18,66.3 44.12,69.17 44.05,69.27 43.8,69.36 41.87,71.54 41.77,71.38 41.66,71.69 39.12,73.83 38.54,73.91 38.07,74.22 36.62,75.55 36.13,75.48 35.82,76.33 34,77.28 33.31,77.67 31.27,79.01 29.65,79.88 29.8,79.86 26.99,81.06 28.19,80.42 26.17,81.78 25.68,81.68 23.45,82.71 23.82,82.78 22.96,83.18 21.55,83.72 20.26,83.73 19.95,84.16 18,84.85 17.63,84.81 16.92,85.19 13.55,86.05 13.2,85.93 13.63,85.81 11.92,86.2 8.91,86.71 9.26,86.9 7.15,87.04 6.82,87.02 6.13,87.01 4.85,87.31 4.12,87.29 2.3,87.28 1.63,87.51 -1.44,87.4 -2.71,87.27 -2.6,87.6 -4.15,87.41 -4.65,87.28 -5.76,87.35 -6.37,87.21 -7.5,86.94 -8.69,86.8 -10.73,86.5 -11.5,86.47 -12.87,86.1 -14.2,85.99 -15.9,85.38 -16.2,85.29 -16.34,85.39 -17.12,85.03 -20.2,84.17 -19.51,84.46 -21.17,83.68 -22.45,83.16 -23.05,82.91 -23.84,82.83 -25,82.16 -27.83,80.59 -27.47,80.88 -28.51,80.58 -29.88,79.81 -30.82,78.96 -31.45,78.59 -33.01,77.84 -34.04,77.49 -34.02,77.11 -35.26,76.62 -37.75,74.68 -38.32,74.21 -39.5,73.19 -39.16,73.71 -41.31,71.78 -41.15,71.96 -42.73,70.66 -42.89,70.58 -44.72,69.06 -45.35,68.22 -45.48,68.1 -48.02,65.42 -46.85,66.58 -49.1,64.46 -49.11,64.37 -50.02,63.03 -51.17,61.88 -53.06,59.48 -51.97,60.87 -53.78,58.25 -54.26,57.68 -54.56,57.57 -55.68,55.54 -55.59,56.41 -56.44,54.88 -57.11,53.88 -57.97,52.48 -58.44,51.42 -59.92,48.84 -60.75,47.72 -61.28,46.45 -61.94,45.79 -62.52,44.27 -62.42,44.01 -64,40.55 -63.23,42.01 -64.89,38.69 -64.41,39.6 -65.44,37.53 -65.7,36.07 -66.28,35.02 -66.86,33.8 -67.37,31.69 -67.62,31.37 -68.41,28.69 -68.11,29.42 -68.65,27.21 -69.21,25.08 -69.65,23.99 -69.66,23.05 -70.34,21.47 -70.38,19.48 -70.63,18.58 -70.97,17.3 -71.34,14.41 -71.49,14.22 -71.33,14.69 -71.65,12.1 -71.68,11.43 -71.65,11.05 -72.11,8.52 -72.12,4.53 -72.18,6.36 -72.38,4.1 -72.5,2.45 -72.44,0.37 -72.46,0.92 -72.54,-1.36 -72.51,-3.57 -72.06,-5.06 -72.25,-4.86 -72.07,-7.83 -72.19,-6.46 -72,-9.14 -72.02,-10.4 -71.92,-10.63 -71.4,-14.16 -71.37,-14.65 -71.02,-15.66 -71.19,-16.9 -70.82,-18.3 -70.18,-20.95 -69.79,-22.27 -69.98,-22.29 -69.39,-25.76 -69.2,-26.32 -68.64,-27.36 -68.66,-27.12 -67.7,-30.64 -67.74,-30.5 -66.94,-32.97 -65.92,-35.53 -66.06,-35.98 -66.21,-35.44 -65.55,-36.99 -64.69,-39.11 -64.35,-40.01 -64.27,-40.37 -63.22,-42.17 -62.53,-43.95 -62.51,-44.55 -61.41,-45.93 -60.95,-46.76 -60.27,-48.18 -59.21,-50.74 -58.52,-51.28 -59.25,-50.27 -58.52,-51.66 -56.73,-54.21 -56.68,-54.45 -55.51,-56.33 -54.73,-57.09 -54.62,-57.17 -53.78,-58.52 -53.1,-59.24 -51.93,-61.02 -50.98,-62.16 -50,-63.07 -51.1,-61.97 -48.37,-64.98 -48.42,-64.99 -47.17,-66.49 -46.01,-67.73 -45.57,-68.46 -44.7,-69.2 -41.97,-71.22 -42.8,-70.76 -42.05,-71.41 -40.58,-72.54 -39.18,-73.54 -39.01,-73.77 -36.6,-75.62 -35.89,-76.39 -35.63,-76.16 -36.2,-75.89 -34.5,-76.99 -32.43,-78.18 -31.6,-78.82 -32.08,-78.53 -29.9,-79.73 -30.28,-79.83 -28.95,-80.04 -26.2,-81.84 -25.63,-82 -25.2,-82.3 -23.21,-82.86 -23.56,-82.9 -21.01,-83.65 -20.14,-83.96 -19.46,-84.34 -16.92,-85.35 -17.96,-84.91 -15.11,-85.7 -15.26,-85.6 -12.61,-86.11 -11.72,-86.32 -11.31,-86.53 -8.61,-86.93 -8.35,-86.79 -8.77,-86.79 -6.65,-87.02 -6.58,-87.36 -3.61,-87.48 -3.3,-87.35 -1.93,-87.68 -1.58,-87.67 0.91,-87.66 1.26,-87.39 3.01,-87.45 2.95,-87.58 5.97,-87.2 6.91,-86.96 7.82,-86.96 7.09,-87.18 8.22,-87.09 9.71,-86.66 11.88,-86.46 11.67,-86.39 12.17,-86.43 15.71,-85.59 15,-85.79 17.08,-84.98 18.68,-84.66 18.61,-84.33 20.36,-83.96 20.34,-84.17 22.6,-83.14 24.44,-82.53 25.07,-82.24 27.11,-81.23 25.16,-82.26 27.23,-81.2 29.62,-79.88 29.75,-79.59 30.99,-79.13 31.13,-79.13 32.82,-78.07 32.52,-78.16 35.64,-76.38 35.18,-76.5 36.79,-75.51 36.44,-75.55 39.84,-73.08 39.99,-73 41.38,-71.86 41.85,-71.45 42.72,-70.64 42.81,-70.54 43.49,-69.95 45.56,-68.13 45.37,-68.21 46.2,-67.3 47.66,-65.74 47.61,-65.58 49.51,-63.86 49.38,-64.27 52.16,-60.55 51.47,-61.44 53.03,-59.59 54.3,-58.06 54.13,-58.06 55.88,-55.55 55.37,-56.49 56.19,-55.12 58.13,-51.89 59.09,-50.67 58.69,-51.08 59.65,-49.44 60.02,-48.68 59.71,-49.15 61.46,-46.41 61.51,-46.13 62.06,-45.2 62.57,-43.37 62.86,-42.8 63.75,-40.99 64.64,-39.04 65.2,-37.76 65.89,-36.28 65.73,-36.6 66.72,-33.57 66.9,-33.51 67.02,-33.48 67.5,-31.42 68.86,-27.18 68.73,-27.81 68.38,-28.52 69.17,-25.86 69.69,-22.76 69.54,-23.51 70.31,-20.86 70.27,-21.4 70.85,-17.67 70.6,-18.63 71.18,-15.83 71.35,-14.79 71.46,-14.39 71.61,-11.61 71.79,-11.86 71.68,-10.56 71.95,-9.28 72.04,-5.36 72.04,-5.61 72.29,-2.33 72.26,-1.54 72.22,-1.77 72.38,1.37 72.24,1.99" fill="rgb(255, 20, 147)" stroke="black" stroke-width="1.6666666666666665" stroke-linejoin="round" filter="url(#fuzzy)" />
    <g transform="translate(42.12 -28.57)">
      <polyline id="rightCountour" points="-36.79,-1.35 -36.33,-1.42 -35.84,-1.49 -35.32,-1.57 -34.76,-1.64 -34.17,-1.71 -33.55,-1.78 -32.9,-1.85 -32.22,-1.92 -31.51,-1.99 -30.78,-2.06 -30.02,-2.12 -29.24,-2.19 -28.44,-2.26 -27.62,-2.33 -26.78,-2.4 -25.85,-2.46 -24.89,-2.53 -23.91,-2.6 -22.9,-2.67 -21.86,-2.74 -20.81,-2.81 -19.74,-2.89 -18.65,-2.96 -17.54,-3.03 -16.43,-3.1 -15.31,-3.18 -14.18,-3.25 -13.04,-3.31 -11.91,-3.38 -10.77,-3.45 -9.64,-3.51 -8.51,-3.57 -7.39,-3.63 -6.27,-3.69 -5.17,-3.74 -4.08,-3.79 -3.01,-3.83 -1.95,-3.88 -0.9,-3.92 0.12,-3.95 1.12,-3.98 2.1,-4.01 3.06,-4.03 4,-4.05 4.91,-4.06 5.79,-4.07 6.65,-4.08 7.48,-4.08 8.29,-4.07 9.07,-4.06 9.82,-4.05 10.54,-4.04 11.24,-4.02 11.91,-4 12.55,-3.97 13.17,-3.94 13.76,-3.91 14.32,-3.87 14.86,-3.83 15.38,-3.79 15.88,-3.75 16.35,-3.71 16.8,-3.66 17.24,-3.61 17.65,-3.57 18.05,-3.52 18.43,-3.47 18.8,-3.42 19.15,-3.36 19.48,-3.31 19.79,-3.25 20.09,-3.2 20.38,-3.14 20.65,-3.08 20.91,-3.03 21.16,-2.97 21.39,-2.91 21.61,-2.85 21.82,-2.8 20.11,-0.23 19.85,-0.14 19.58,-0.05 19.3,0.05 19.01,0.14 18.7,0.24 18.39,0.34 18.07,0.44 17.73,0.54 17.39,0.65 17.03,0.75 16.66,0.86 16.28,0.97 15.89,1.08 15.49,1.19 15.07,1.31 14.64,1.42 14.19,1.54 13.73,1.65 13.25,1.77 12.76,1.89 12.25,2.01 11.72,2.13 11.18,2.26 10.62,2.38 10.04,2.5 9.44,2.62 8.82,2.74 8.18,2.86 7.52,2.97 6.85,3.09 6.15,3.2 5.44,3.31 4.7,3.41 3.94,3.52 3.17,3.61 2.38,3.71 1.56,3.79 0.73,3.87 -0.12,3.95 -0.99,4.02 -1.87,4.08 -2.77,4.13 -3.69,4.18 -4.63,4.22 -5.58,4.25 -6.54,4.27 -7.52,4.28 -8.5,4.28 -9.5,4.27 -10.51,4.25 -11.53,4.21 -12.56,4.17 -13.59,4.12 -14.63,4.05 -15.67,3.98 -16.71,3.89 -17.75,3.79 -18.8,3.68 -19.83,3.56 -20.87,3.43 -21.9,3.28 -22.92,3.13 -23.93,2.97 -24.92,2.8 -25.76,2.69 -26.59,2.58 -27.41,2.46 -28.21,2.34 -29,2.21 -29.77,2.09 -30.53,1.95 -31.26,1.82 -31.98,1.69 -32.67,1.55 -33.33,1.41 -33.97,1.28 -34.59,1.14 -35.17,1 -35.71,0.87" fill="white" stroke="white" stroke-width="0" stroke-linejoin="round" filter="url(#fuzzy)" />
    </g>
    <g transform="translate(-37.93 -25.34)">
      <polyline id="leftCountour" points="35.08,-1.1 34.62,-1.17 34.13,-1.23 33.6,-1.29 33.04,-1.36 32.44,-1.42 31.82,-1.48 31.16,-1.54 30.48,-1.61 29.77,-1.67 29.03,-1.73 28.28,-1.79 27.5,-1.85 26.7,-1.91 25.88,-1.97 25.05,-2.03 24.1,-2.09 23.13,-2.15 22.13,-2.21 21.11,-2.27 20.08,-2.33 19.03,-2.39 17.97,-2.45 16.89,-2.52 15.81,-2.58 14.72,-2.64 13.63,-2.71 12.53,-2.77 11.43,-2.83 10.34,-2.89 9.24,-2.94 8.16,-3 7.08,-3.06 6.01,-3.11 4.95,-3.16 3.91,-3.2 2.87,-3.25 1.86,-3.29 0.85,-3.33 -0.13,-3.36 -1.09,-3.39 -2.04,-3.42 -2.96,-3.44 -3.86,-3.46 -4.74,-3.48 -5.59,-3.49 -6.43,-3.5 -7.23,-3.51 -8.02,-3.51 -8.77,-3.51 -9.51,-3.5 -10.21,-3.49 -10.9,-3.48 -11.55,-3.46 -12.19,-3.45 -12.8,-3.42 -13.38,-3.4 -13.95,-3.37 -14.48,-3.34 -15,-3.31 -15.5,-3.27 -15.97,-3.23 -16.43,-3.19 -16.87,-3.15 -17.29,-3.11 -17.69,-3.07 -18.08,-3.03 -18.45,-2.98 -18.8,-2.94 -19.14,-2.89 -19.47,-2.84 -19.78,-2.79 -20.08,-2.74 -20.36,-2.69 -20.64,-2.64 -20.9,-2.59 -21.14,-2.54 -21.38,-2.49 -21.6,-2.43 -21.82,-2.38 -20.01,-0.06 -19.73,0.03 -19.45,0.12 -19.15,0.21 -18.84,0.3 -18.52,0.39 -18.19,0.49 -17.84,0.58 -17.49,0.67 -17.12,0.77 -16.74,0.87 -16.35,0.96 -15.95,1.06 -15.53,1.16 -15.11,1.26 -14.66,1.36 -14.21,1.46 -13.74,1.56 -13.25,1.66 -12.75,1.76 -12.23,1.86 -11.69,1.96 -11.14,2.06 -10.56,2.16 -9.97,2.26 -9.37,2.35 -8.74,2.45 -8.09,2.54 -7.43,2.63 -6.75,2.72 -6.05,2.81 -5.33,2.89 -4.59,2.97 -3.83,3.04 -3.05,3.11 -2.26,3.18 -1.45,3.24 -0.62,3.3 0.23,3.35 1.09,3.39 1.97,3.43 2.87,3.46 3.77,3.49 4.7,3.51 5.63,3.52 6.58,3.53 7.54,3.52 8.51,3.51 9.49,3.49 10.47,3.47 11.47,3.43 12.46,3.39 13.47,3.34 14.47,3.28 15.48,3.21 16.49,3.14 17.49,3.05 18.5,2.96 19.49,2.86 20.48,2.75 21.47,2.64 22.44,2.52 23.4,2.39 24.35,2.26 25.28,2.12 26.07,2.02 26.84,1.93 27.61,1.82 28.35,1.72 29.08,1.62 29.79,1.51 30.47,1.4 31.14,1.29 31.78,1.18 32.4,1.07 32.99,0.96 33.55,0.85 34.08,0.74 34.57,0.63 35.04,0.52" fill="white" stroke="white" stroke-width="0" stroke-linejoin="round" filter="url(#fuzzy)" />
    </g>
    <g transform="translate(42.12 -28.57)">
      <polyline id="rightUpper" points="-38.97,-0.57 -38.96,-0.65 -38.91,-0.74 -38.8,-0.82 -38.65,-0.9 -38.44,-0.98 -38.2,-1.05 -37.91,-1.13 -37.57,-1.2 -37.2,-1.28 -36.79,-1.35 -36.33,-1.42 -35.84,-1.49 -35.32,-1.57 -34.76,-1.64 -34.17,-1.71 -33.55,-1.78 -32.9,-1.85 -32.22,-1.92 -31.51,-1.99 -30.78,-2.06 -30.02,-2.12 -29.24,-2.19 -28.44,-2.26 -27.62,-2.33 -26.78,-2.4 -25.85,-2.46 -24.89,-2.53 -23.91,-2.6 -22.9,-2.67 -21.86,-2.74 -20.81,-2.81 -19.74,-2.89 -18.65,-2.96 -17.54,-3.03 -16.43,-3.1 -15.31,-3.18 -14.18,-3.25 -13.04,-3.31 -11.91,-3.38 -10.77,-3.45 -9.64,-3.51 -8.51,-3.57 -7.39,-3.63 -6.27,-3.69 -5.17,-3.74 -4.08,-3.79 -3.01,-3.83 -1.95,-3.88 -0.9,-3.92 0.12,-3.95 1.12,-3.98 2.1,-4.01 3.06,-4.03 4,-4.05 4.91,-4.06 5.79,-4.07 6.65,-4.08 7.48,-4.08 8.29,-4.07 9.07,-4.06 9.82,-4.05 10.54,-4.04 11.24,-4.02 11.91,-4 12.55,-3.97 13.17,-3.94 13.76,-3.91 14.32,-3.87 14.86,-3.83 15.38,-3.79 15.88,-3.75 16.35,-3.71 16.8,-3.66 17.24,-3.61 17.65,-3.57 18.05,-3.52 18.43,-3.47 18.8,-3.42 19.15,-3.36 19.48,-3.31 19.79,-3.25 20.09,-3.2 20.38,-3.14 20.65,-3.08 20.91,-3.03 21.16,-2.97 21.39,-2.91 21.61,-2.85 21.82,-2.8 22.02,-2.74 22.21,-2.68 22.38,-2.62 22.55,-2.57 22.71,-2.51 22.86,-2.45 23,-2.4 23.14,-2.34 23.26,-2.29 23.38,-2.24" fill="none" stroke="black" stroke-width="1.6666666666666665" stroke-linejoin="round" filter="url(#fuzzy)" />
      <polyline id="rightLower" points="-38.93,-0.2 -38.83,-0.13 -38.68,-0.05 -38.47,0.04 -38.21,0.14 -37.9,0.25 -37.54,0.36 -37.15,0.48 -36.71,0.61 -36.23,0.74 -35.71,0.87 -35.17,1 -34.59,1.14 -33.97,1.28 -33.33,1.41 -32.67,1.55 -31.98,1.69 -31.26,1.82 -30.53,1.95 -29.77,2.09 -29,2.21 -28.21,2.34 -27.41,2.46 -26.59,2.58 -25.76,2.69 -24.92,2.8 -23.93,2.97 -22.92,3.13 -21.9,3.28 -20.87,3.43 -19.83,3.56 -18.8,3.68 -17.75,3.79 -16.71,3.89 -15.67,3.98 -14.63,4.05 -13.59,4.12 -12.56,4.17 -11.53,4.21 -10.51,4.25 -9.5,4.27 -8.5,4.28 -7.52,4.28 -6.54,4.27 -5.58,4.25 -4.63,4.22 -3.69,4.18 -2.77,4.13 -1.87,4.08 -0.99,4.02 -0.12,3.95 0.73,3.87 1.56,3.79 2.38,3.71 3.17,3.61 3.94,3.52 4.7,3.41 5.44,3.31 6.15,3.2 6.85,3.09 7.52,2.97 8.18,2.86 8.82,2.74 9.44,2.62 10.04,2.5 10.62,2.38 11.18,2.26 11.72,2.13 12.25,2.01 12.76,1.89 13.25,1.77 13.73,1.65 14.19,1.54 14.64,1.42 15.07,1.31 15.49,1.19 15.89,1.08 16.28,0.97 16.66,0.86 17.03,0.75 17.39,0.65 17.73,0.54 18.07,0.44 18.39,0.34 18.7,0.24 19.01,0.14 19.3,0.05 19.58,-0.05 19.85,-0.14 20.11,-0.23 20.37,-0.32 20.61,-0.41 20.85,-0.49 21.07,-0.58 21.29,-0.66 21.5,-0.74 21.7,-0.82 21.9,-0.89 22.09,-0.97 22.27,-1.04" fill="none" stroke="black" stroke-width="2.2222222222222223" stroke-linejoin="round" filter="url(#fuzzy)" />
      <circle r="4.742" cx="-6.350398851798035" cy="-2.6391377166330114" stroke="black" fill="none" stroke-width="1.0" filter="url(#fuzzy)" clip-path="url(#rightEyeClipPath)" /><circle r="4.468" cx="-5.240398851798035" cy="-1.5141377166330114" stroke="black" fill="none" stroke-width="1.0" filter="url(#fuzzy)" clip-path="url(#rightEyeClipPath)" /><circle r="4.662" cx="-3.2453988517980346" cy="-0.09913771663301141" stroke="black" fill="none" stroke-width="1.0" filter="url(#fuzzy)" clip-path="url(#rightEyeClipPath)" /><circle r="4.204" cx="-4.545398851798034" cy="-1.8291377166330114" stroke="black" fill="none" stroke-width="1.0" filter="url(#fuzzy)" clip-path="url(#rightEyeClipPath)" /><circle r="3.92" cx="-4.025398851798035" cy="-2.0941377166330115" stroke="black" fill="none" stroke-width="1.0" filter="url(#fuzzy)" clip-path="url(#rightEyeClipPath)" /><circle r="3.024" cx="-4.250398851798035" cy="-2.4791377166330113" stroke="black" fill="none" stroke-width="1.0" filter="url(#fuzzy)" clip-path="url(#rightEyeClipPath)" /><circle r="3.966" cx="-5.2903988517980345" cy="1.715862283366988" stroke="black" fill="none" stroke-width="1.0" filter="url(#fuzzy)" clip-path="url(#rightEyeClipPath)" /><circle r="3.07" cx="-4.295398851798035" cy="-2.8041377166330115" stroke="black" fill="none" stroke-width="1.0" filter="url(#fuzzy)" clip-path="url(#rightEyeClipPath)" /><circle r="3.466" cx="-5.035398851798035" cy="-0.9291377166330115" stroke="black" fill="none" stroke-width="1.0" filter="url(#fuzzy)" clip-path="url(#rightEyeClipPath)" /><circle r="3.13" cx="-5.195398851798035" cy="0.07586228336698841" stroke="black" fill="none" stroke-width="1.0" filter="url(#fuzzy)" clip-path="url(#rightEyeClipPath)" />
      </g>
    <g transform="translate(-37.93 -25.34)">
      <polyline id="leftUpper" points="37.13,-0.38 37.16,-0.46 37.13,-0.54 37.04,-0.61 36.91,-0.69 36.72,-0.76 36.48,-0.83 36.2,-0.9 35.87,-0.97 35.49,-1.03 35.08,-1.1 34.62,-1.17 34.13,-1.23 33.6,-1.29 33.04,-1.36 32.44,-1.42 31.82,-1.48 31.16,-1.54 30.48,-1.61 29.77,-1.67 29.03,-1.73 28.28,-1.79 27.5,-1.85 26.7,-1.91 25.88,-1.97 25.05,-2.03 24.1,-2.09 23.13,-2.15 22.13,-2.21 21.11,-2.27 20.08,-2.33 19.03,-2.39 17.97,-2.45 16.89,-2.52 15.81,-2.58 14.72,-2.64 13.63,-2.71 12.53,-2.77 11.43,-2.83 10.34,-2.89 9.24,-2.94 8.16,-3 7.08,-3.06 6.01,-3.11 4.95,-3.16 3.91,-3.2 2.87,-3.25 1.86,-3.29 0.85,-3.33 -0.13,-3.36 -1.09,-3.39 -2.04,-3.42 -2.96,-3.44 -3.86,-3.46 -4.74,-3.48 -5.59,-3.49 -6.43,-3.5 -7.23,-3.51 -8.02,-3.51 -8.77,-3.51 -9.51,-3.5 -10.21,-3.49 -10.9,-3.48 -11.55,-3.46 -12.19,-3.45 -12.8,-3.42 -13.38,-3.4 -13.95,-3.37 -14.48,-3.34 -15,-3.31 -15.5,-3.27 -15.97,-3.23 -16.43,-3.19 -16.87,-3.15 -17.29,-3.11 -17.69,-3.07 -18.08,-3.03 -18.45,-2.98 -18.8,-2.94 -19.14,-2.89 -19.47,-2.84 -19.78,-2.79 -20.08,-2.74 -20.36,-2.69 -20.64,-2.64 -20.9,-2.59 -21.14,-2.54 -21.38,-2.49 -21.6,-2.43 -21.82,-2.38 -22.02,-2.33 -22.21,-2.28 -22.4,-2.23 -22.57,-2.17 -22.73,-2.12 -22.89,-2.07 -23.04,-2.02 -23.18,-1.97 -23.31,-1.92 -23.44,-1.87" fill="none" stroke="black" stroke-width="2.2222222222222223" stroke-linejoin="round" filter="url(#fuzzy)" />
      <polyline id="leftLower" points="37.27,-0.33 37.28,-0.27 37.23,-0.21 37.12,-0.13 36.96,-0.06 36.75,0.03 36.5,0.12 36.19,0.22 35.85,0.31 35.46,0.42 35.04,0.52 34.57,0.63 34.08,0.74 33.55,0.85 32.99,0.96 32.4,1.07 31.78,1.18 31.14,1.29 30.47,1.4 29.79,1.51 29.08,1.62 28.35,1.72 27.61,1.82 26.84,1.93 26.07,2.02 25.28,2.12 24.35,2.26 23.4,2.39 22.44,2.52 21.47,2.64 20.48,2.75 19.49,2.86 18.5,2.96 17.49,3.05 16.49,3.14 15.48,3.21 14.47,3.28 13.47,3.34 12.46,3.39 11.47,3.43 10.47,3.47 9.49,3.49 8.51,3.51 7.54,3.52 6.58,3.53 5.63,3.52 4.7,3.51 3.77,3.49 2.87,3.46 1.97,3.43 1.09,3.39 0.23,3.35 -0.62,3.3 -1.45,3.24 -2.26,3.18 -3.05,3.11 -3.83,3.04 -4.59,2.97 -5.33,2.89 -6.05,2.81 -6.75,2.72 -7.43,2.63 -8.09,2.54 -8.74,2.45 -9.37,2.35 -9.97,2.26 -10.56,2.16 -11.14,2.06 -11.69,1.96 -12.23,1.86 -12.75,1.76 -13.25,1.66 -13.74,1.56 -14.21,1.46 -14.66,1.36 -15.11,1.26 -15.53,1.16 -15.95,1.06 -16.35,0.96 -16.74,0.87 -17.12,0.77 -17.49,0.67 -17.84,0.58 -18.19,0.49 -18.52,0.39 -18.84,0.3 -19.15,0.21 -19.45,0.12 -19.73,0.03 -20.01,-0.06 -20.28,-0.14 -20.54,-0.23 -20.79,-0.31 -21.03,-0.4 -21.26,-0.48 -21.48,-0.56 -21.69,-0.64 -21.89,-0.71 -22.09,-0.79 -22.28,-0.86" fill="none" stroke="black" stroke-width="2.2222222222222223" stroke-linejoin="round" filter="url(#fuzzy)" />
      <circle r="3.8" cx="19.34038321156252" cy="0.8094090735704826" stroke="black" fill="none" stroke-width="1.0" filter="url(#fuzzy)" clip-path="url(#leftEyeClipPath)" /><circle r="3.758" cx="17.88538321156252" cy="1.8094090735704826" stroke="black" fill="none" stroke-width="1.0" filter="url(#fuzzy)" clip-path="url(#leftEyeClipPath)" /><circle r="4.192" cx="15.54038321156252" cy="-0.1705909264295169" stroke="black" fill="none" stroke-width="1.0" filter="url(#fuzzy)" clip-path="url(#leftEyeClipPath)" /><circle r="4.72" cx="16.820383211562522" cy="0.47940907357048257" stroke="black" fill="none" stroke-width="1.0" filter="url(#fuzzy)" clip-path="url(#leftEyeClipPath)" /><circle r="4.784" cx="19.15038321156252" cy="-0.24559092642951708" stroke="black" fill="none" stroke-width="1.0" filter="url(#fuzzy)" clip-path="url(#leftEyeClipPath)" /><circle r="3.324" cx="16.61038321156252" cy="-0.09559092642951716" stroke="black" fill="none" stroke-width="1.0" filter="url(#fuzzy)" clip-path="url(#leftEyeClipPath)" /><circle r="4.572" cx="19.65038321156252" cy="2.5994090735704827" stroke="black" fill="none" stroke-width="1.0" filter="url(#fuzzy)" clip-path="url(#leftEyeClipPath)" /><circle r="3.314" cx="20.24538321156252" cy="2.004409073570483" stroke="black" fill="none" stroke-width="1.0" filter="url(#fuzzy)" clip-path="url(#leftEyeClipPath)" /><circle r="4.154" cx="16.44038321156252" cy="1.6594090735704832" stroke="black" fill="none" stroke-width="1.0" filter="url(#fuzzy)" clip-path="url(#leftEyeClipPath)" /><circle r="3.798" cx="20.24038321156252" cy="1.7844090735704832" stroke="black" fill="none" stroke-width="1.0" filter="url(#fuzzy)" clip-path="url(#leftEyeClipPath)" />
    </g>
    <g id="hairs">
      <polyline points="35.18,-76.5 43.06,-61.53 26.59,-60.82 12.31,-61.55 11.03,-60.59 18.64,-58.35 27.03,-55.96 30.94,-54.71 29.36,-55.51 24.05,-58.51 17.38,-63.02 11.17,-68.06 6.53,-72.9 3.74,-77.22 2.05,-80.82 0.1,-83.48 -1.97,-85 -0.5,-85.46 15.71,-85.59" fill="none" stroke="rgb(128, 128, 128)" stroke-width="2" stroke-linejoin="round" filter="url(#fuzzy)" /><polyline points="-40.58,-72.54 16.48,-59.01 34.78,-56.52 42.28,-54.41 41.88,-55.16 35.75,-59.44 27.58,-65.47 20.47,-71.12 15.92,-75.24 14.04,-77.81 14.1,-79.37 15.04,-80.43 16.03,-81.18 17.05,-81.44 18.97,-80.77 22.85,-78.74 28.35,-75.34 32.07,-71.65 26.76,-69.91 2.52,-71.13 -48.42,-64.99" fill="none" stroke="rgb(128, 128, 128)" stroke-width="2" stroke-linejoin="round" filter="url(#fuzzy)" /><polyline points="39.99,-73 26.97,-69.22 17.94,-68.06 18.43,-69.43 19.36,-71.56 16.95,-72.9 11.93,-73.01 7.18,-71.95 5.37,-69.93 6.86,-67.72 9.05,-66.67 8.55,-67.85 4.99,-70.85 2.27,-73.9 2.47,-75.25 -6.36,-73.31 -51.93,-61.02" fill="none" stroke="rgb(128, 128, 128)" stroke-width="2" stroke-linejoin="round" filter="url(#fuzzy)" /><polyline points="-23.21,-82.86 -26.85,-71.76 -2.9,-66.75 19.01,-63.52 26.55,-64.06 21.18,-67.55 11.07,-71.59 4.53,-74.32 5.68,-74.98 13.43,-73.56 23.29,-70.46 30.39,-66.72 32.35,-64.02 32.01,-63.52 37.43,-64.39 41.38,-71.86" fill="none" stroke="rgb(128, 128, 128)" stroke-width="2" stroke-linejoin="round" filter="url(#fuzzy)" /><polyline points="66.9,-33.51 17.65,-66.6 -2.98,-76.46 -12.14,-77.84 -11.73,-77.36 -3.88,-76.13 7.74,-73.65 19.25,-70.19 27.56,-66.96 31.06,-65.03 29.73,-64.63 24.69,-65.21 17.56,-66.03 9.96,-66.62 3.24,-66.93 -1.87,-67.09 -5.46,-67.27 -8.05,-67.59 -9.5,-68.23 -8.38,-69.81 -4.75,-73.53 -7.31,-79.34 -28.95,-80.04" fill="none" stroke="rgb(128, 128, 128)" stroke-width="2" stroke-linejoin="round" filter="url(#fuzzy)" /><polyline points="-35.89,-76.39 3.83,-79.05 14.19,-76.88 11.42,-71.88 5.32,-67.33 -0.09,-65.42 -2.74,-65.91 -1.41,-67.31 3.18,-68.63 8.18,-69.84 10.08,-71.03 6.52,-71.65 -2.5,-70.76 -13.85,-67.81 -21.08,-63.2 -17.63,-58.22 -9.69,-55.79 -51.1,-61.97" fill="none" stroke="rgb(128, 128, 128)" stroke-width="2" stroke-linejoin="round" filter="url(#fuzzy)" /><polyline points="-48.42,-64.99 -6.78,-70.68 -0.96,-75.55 -2.39,-78.17 -7.52,-78.43 -13.4,-76.95 -16.27,-74.5 -13.84,-71.84 -6.54,-69.58 2.9,-68.17 10.98,-67.92 15.19,-68.98 14.81,-71.21 10.66,-74.17 4.29,-77.16 -2.71,-79.46 -8.98,-80.5 -13.19,-79.95 -13.91,-77.57 -9.79,-73.33 -0.54,-68.23 11.08,-65.95 18.39,-72.25 29.75,-79.59" fill="none" stroke="rgb(128, 128, 128)" stroke-width="2" stroke-linejoin="round" filter="url(#fuzzy)" /><polyline points="-42.05,-71.41 5.08,-71.28 19.79,-70.17 18.97,-72.64 16.27,-74.38 14.76,-74.55 12.77,-74.29 9.43,-74.07 6.18,-73.3 5.12,-71.5 6.9,-69.18 10,-67.64 12,-67.91 11.8,-69.98 10.35,-72.88 9.14,-75.72 8.5,-78.25 9.34,-80.31 16.31,-81.34 24.44,-82.53" fill="none" stroke="rgb(128, 128, 128)" stroke-width="2" stroke-linejoin="round" filter="url(#fuzzy)" /><polyline points="-15.11,-85.7 8.66,-80.88 14.02,-72.35 10.14,-66.23 4.69,-64.83 1.76,-66.39 1.27,-68.74 2.18,-70.65 4.08,-71.95 6.77,-73.03 9.23,-74.41 9.89,-76.18 7.71,-77.79 3.48,-78.27 0.07,-76.72 1.5,-72.71 10.57,-66.53 25.15,-59.33 34.31,-53.42 17.34,-52.29 -54.73,-57.09" fill="none" stroke="rgb(128, 128, 128)" stroke-width="2" stroke-linejoin="round" filter="url(#fuzzy)" /><polyline points="22.6,-83.14 12.47,-78.02 2.67,-76.46 1.04,-77.91 2.52,-79.57 3.77,-80.34 3.75,-80.5 3.16,-80.61 3.35,-80.98 5,-81.59 7.54,-82.28 9.73,-82.89 10.48,-83.31 9.28,-83.44 5.94,-83.17 0.24,-82.25 -8.11,-80.34 -18.85,-77.28 -30.23,-73.58 -38.9,-70.57 -43.44,-68.22 -53.78,-58.52" fill="none" stroke="rgb(128, 128, 128)" stroke-width="2" stroke-linejoin="round" filter="url(#fuzzy)" /><polyline points="-11.72,-86.32 37.14,-55.73 52.46,-48.16 53.09,-50.14 46.51,-55.38 36.41,-60.93 25.75,-65.5 17.08,-68.81 11.87,-71.15 10.21,-72.82 10.98,-73.77 12.55,-73.61 13.55,-71.88 13.46,-68.56 12.96,-64.26 14.02,-60.08 19.37,-57.3 29.98,-57.64 38.25,-64.34 22.6,-83.14" fill="none" stroke="rgb(128, 128, 128)" stroke-width="2" stroke-linejoin="round" filter="url(#fuzzy)" /><polyline points="-11.31,-86.53 8.62,-75.54 14.48,-69.1 10.58,-72.15 7.46,-77.69 7.44,-81.85 8.35,-84.13 8.26,-85.19 7.39,-85.43 7.65,-84.62 11.24,-82.11 18.91,-77.38 28.69,-70.9 35.46,-65.13 33.19,-64.5 23.27,-71.73 36.79,-75.51" fill="none" stroke="rgb(128, 128, 128)" stroke-width="2" stroke-linejoin="round" filter="url(#fuzzy)" /><polyline points="17.08,-84.98 33.17,-70.96 36.03,-59.94 25.88,-58.67 15.56,-62.77 11.97,-67.32 14.16,-70.07 17.89,-71.13 19.62,-71.52 18.13,-71.93 14.18,-72.49 9.54,-73.11 6.06,-73.73 5.03,-74.36 6.7,-74.87 9.83,-75.05 11.95,-74.83 10.98,-74.5 7.51,-74.63 4.66,-76.07 4.41,-79.9 18.61,-84.33" fill="none" stroke="rgb(128, 128, 128)" stroke-width="2" stroke-linejoin="round" filter="url(#fuzzy)" /><polyline points="-17.96,-84.91 -13.71,-81.12 -14.06,-77.36 -7.37,-74.94 1.45,-71.79 7.54,-68.42 7.99,-66.45 2.66,-66.61 -5.56,-68.43 -12.62,-70.97 -16.09,-73.53 -16.4,-75.71 -15.34,-77.1 -13.43,-77.22 -9.37,-75.86 -2.74,-73.51 6.61,-71.05 45.56,-68.13" fill="none" stroke="rgb(128, 128, 128)" stroke-width="2" stroke-linejoin="round" filter="url(#fuzzy)" /><polyline points="35.18,-76.5 -3.3,-77.86 -14.27,-77.34 -13.58,-75.97 -6.62,-73.76 0.57,-70.57 3.07,-67.16 -0.26,-64.33 -6.62,-62.29 -11.54,-60.83 -11.52,-59.82 -5.61,-59.36 4.64,-59.58 16.27,-60.41 26.3,-61.65 32.67,-63.1 34.74,-64.51 33.16,-65.23 28.93,-64.1 21.79,-60.39 9.86,-55.27 -5.16,-51.78 -3.91,-50.36 62.57,-43.37" fill="none" stroke="rgb(128, 128, 128)" stroke-width="2" stroke-linejoin="round" filter="url(#fuzzy)" /><polyline points="63.75,-40.99 -8.73,-53.78 -23.56,-61.32 -12.29,-65.05 5.08,-66.18 18.66,-66.28 26.3,-66.13 29.76,-65.82 31.59,-65.36 33.5,-64.77 35.76,-64.12 37.45,-63.47 37.05,-62.99 33.43,-62.85 26.63,-63.13 18.26,-63.74 10.92,-64.48 6.7,-65.13 5.39,-65.68 3.91,-66.28 -1.9,-66.89 -13.59,-66.84 -26.55,-65.64 -27.16,-67.36 11.88,-86.46" fill="none" stroke="rgb(128, 128, 128)" stroke-width="2" stroke-linejoin="round" filter="url(#fuzzy)" /><polyline points="36.79,-75.51 45.04,-63.95 34.5,-66.08 18.38,-72.03 4.54,-76.29 -4.67,-78.17 -8.78,-78.65 -8.12,-78.5 -3.87,-78.02 1.95,-77.22 7.15,-76.15 10.01,-74.89 9.74,-73.65 6.47,-72.64 1.04,-72.04 -5.18,-71.89 -10.44,-72.07 -12.91,-72.42 -11.16,-72.93 -4.96,-73.82 3.98,-75.39 12.14,-77.79 16.16,-80.78 16.45,-83.35 18.95,-83.53 30.99,-79.13" fill="none" stroke="rgb(128, 128, 128)" stroke-width="2" stroke-linejoin="round" filter="url(#fuzzy)" /><polyline points="43.49,-69.95 23.68,-68.65 2.24,-69.99 -3.18,-72.21 -0.25,-74.46 4.59,-75.84 9.34,-75.9 13.21,-74.94 15.2,-73.66 14.93,-72.6 13.34,-71.81 12.06,-70.97 12.11,-69.79 13.36,-68.44 15.08,-67.49 16.72,-67.67 17.73,-69.24 16.25,-71.68 8.53,-73.81 -8.72,-74.31 -32.61,-71.27 -50.98,-62.16" fill="none" stroke="rgb(128, 128, 128)" stroke-width="2" stroke-linejoin="round" filter="url(#fuzzy)" /><polyline points="59.65,-49.44 37.36,-66.23 16.69,-74.55 6.62,-77.77 3.5,-78.87 3.04,-79.18 4.2,-79.08 6.99,-78.71 10.46,-78.31 12.8,-78.06 12.52,-77.83 9.43,-77.13 4.77,-75.39 0.69,-72.47 -0.56,-68.95 2.21,-66.05 8.25,-64.97 14.78,-65.93 18.4,-67.6 17.66,-67.61 14.78,-64.69 11.07,-62.89 -25.2,-82.3" fill="none" stroke="rgb(128, 128, 128)" stroke-width="2" stroke-linejoin="round" filter="url(#fuzzy)" /><polyline points="24.44,-82.53 24.87,-58.1 3.62,-60.94 -9.8,-66.45 -13.15,-69.26 -9.51,-70.22 -2.94,-70.58 3.91,-70.64 10.22,-70.15 16.01,-68.79 21.22,-66.46 25.52,-63.34 28.44,-59.96 29.39,-57.15 27.65,-55.79 22.93,-56.42 16.64,-58.6 11.93,-60.81 10.36,-61.65 5.69,-62.2 -14.51,-67.04 -36.2,-75.89" fill="none" stroke="rgb(128, 128, 128)" stroke-width="2" stroke-linejoin="round" filter="url(#fuzzy)" /><polyline points="32.82,-78.07 1.43,-78.9 0.18,-80.5 7.18,-78.98 17.01,-74.7 25.49,-69.93 30.15,-66.64 30.97,-65.58 29.13,-66.38 25.49,-68.06 20.24,-69.6 13.56,-70.37 6.39,-70.39 0.22,-70.14 -3.82,-70.16 -5.97,-70.49 -7.49,-70.48 -9.2,-69.12 -10.07,-65.84 -7.74,-61.23 -1.12,-57.31 9.09,-57.2 24.49,-63.68 35.64,-76.38" fill="none" stroke="rgb(128, 128, 128)" stroke-width="2" stroke-linejoin="round" filter="url(#fuzzy)" /><polyline points="-8.77,-86.79 -28.27,-75.03 -23.63,-69.9 -8.09,-66.11 7.71,-65.15 18.09,-66.24 23.68,-67.31 27.53,-67.49 31.22,-67.57 34.12,-68.76 35.24,-71.25 34.96,-73.87 34.91,-74.85 36.37,-73.04 38.21,-68.97 33.74,-67.51 1.26,-87.39" fill="none" stroke="rgb(128, 128, 128)" stroke-width="2" stroke-linejoin="round" filter="url(#fuzzy)" /><polyline points="-56.68,-54.45 -19.11,-70.9 -3.2,-75.59 1.7,-77.23 7.14,-76.32 15.06,-73 22.04,-68.85 24.14,-66.03 19.92,-65.86 11.35,-68.1 2.69,-71.37 -1.77,-74.06 0.48,-74.85 9.62,-72.73 23.96,-66.93 40.6,-57.58 55.5,-46.57 64.47,-37.46 66.72,-33.57" fill="none" stroke="rgb(128, 128, 128)" stroke-width="2" stroke-linejoin="round" filter="url(#fuzzy)" /><polyline points="-54.73,-57.09 -1.34,-69.77 18.61,-72.08 22.56,-71.9 20.74,-70.99 15.35,-70.81 7.11,-71.86 -1.72,-73.71 -8.17,-75.67 -10.13,-77.21 -7.25,-77.98 -0.9,-77.87 6.44,-76.96 12,-75.54 13.66,-74.04 10.86,-72.89 5.04,-72.33 -0.8,-72.35 -3.67,-72.73 -2.64,-73.31 0.11,-74.28 0.98,-76.02 -1.04,-78.2 -5.04,-79.15 -32.08,-78.53" fill="none" stroke="rgb(128, 128, 128)" stroke-width="2" stroke-linejoin="round" filter="url(#fuzzy)" /><polyline points="54.13,-58.06 31.44,-63.39 10.73,-66.07 7.27,-65.61 10.08,-65.21 10.49,-65.76 6.84,-66.59 0.55,-67.24 -6.78,-67.82 -13.82,-68.58 -19.14,-69.5 -21.32,-70.22 -19.47,-70.24 -13.77,-69.21 -5.38,-67.27 4.06,-65.12 13.01,-63.78 20.22,-63.92 24.44,-65.38 24.36,-67.3 19.12,-69.15 9.19,-71.42 -5.11,-73.74 -42.8,-70.76" fill="none" stroke="rgb(128, 128, 128)" stroke-width="2" stroke-linejoin="round" filter="url(#fuzzy)" /><polyline points="-25.2,-82.3 -21.57,-79.49 -9.31,-80.39 -3.21,-78.88 -3.07,-75.48 -6.01,-72.75 -8.37,-72.49 -7.2,-74.72 -1.96,-78.1 5.43,-81.03 11.98,-82.5 15.06,-82.33 12.46,-80.84 2.85,-78.67 -9.17,-77.99 5.97,-87.2" fill="none" stroke="rgb(128, 128, 128)" stroke-width="2" stroke-linejoin="round" filter="url(#fuzzy)" /><polyline points="-23.56,-82.9 2.76,-80.31 2.35,-76.21 -7.02,-74.59 -12.48,-74.02 -11.07,-73.26 -4.79,-72.42 3.07,-71.88 9.35,-71.48 11.75,-70.63 9.55,-68.9 4.43,-66.41 0.45,-63.84 1.93,-62.41 9.85,-63.35 19.71,-66.96 23.3,-71.89 11.23,-76.39 -30.28,-79.83" fill="none" stroke="rgb(128, 128, 128)" stroke-width="2" stroke-linejoin="round" filter="url(#fuzzy)" /><polyline points="68.86,-27.18 15.1,-58.81 0.88,-65.72 -3.31,-64.92 -4.87,-64.92 -4.62,-67.12 -1.87,-69.5 3.15,-69.87 9.13,-67.6 14.35,-63.76 17.34,-60.38 17.33,-59.29 14.46,-61.21 9.49,-65.49 3.34,-70.56 -3.16,-74.78 -9.08,-77.23 -12.78,-77.93 -11.73,-77.52 -4.77,-76.35 -1.03,-74.05 -39.18,-73.54" fill="none" stroke="rgb(128, 128, 128)" stroke-width="2" stroke-linejoin="round" filter="url(#fuzzy)" /><polyline points="-44.7,-69.2 -10.76,-79.51 6.81,-80.4 10.26,-78.2 7.13,-75.01 5.37,-71.24 8.92,-66.86 17.08,-62.21 25.84,-58.58 30.1,-57.8 26.37,-60.77 15.03,-66.26 0.52,-71.32 -10.54,-73.32 -11.99,-71.13 3.27,-62.81 62.57,-43.37" fill="none" stroke="rgb(128, 128, 128)" stroke-width="2" stroke-linejoin="round" filter="url(#fuzzy)" /><polyline points="68.73,-27.81 37.04,-54.81 29.53,-61.79 23.63,-67 17.37,-70.28 9.06,-71.66 -1.35,-71.91 -10.6,-71.22 -14.23,-69.31 -9.5,-66.15 2.78,-62.72 18.12,-60.99 29.65,-62.49 30.76,-65.72 15.06,-66.98 -40.58,-72.54" fill="none" stroke="rgb(128, 128, 128)" stroke-width="2" stroke-linejoin="round" filter="url(#fuzzy)" /><polyline points="18.68,-84.66 41,-67.25 43.36,-65.29 38.12,-69.57 33.99,-73.13 33.59,-73.68 35.46,-72.19 37.13,-70.64 37.38,-70.27 36.57,-70.99 35.44,-72.07 33.94,-72.97 31.86,-73.32 30.86,-72.25 32.35,-70.82 18.68,-84.66" fill="none" stroke="rgb(128, 128, 128)" stroke-width="2" stroke-linejoin="round" filter="url(#fuzzy)" /><polyline points="61.51,-46.13 38.21,-67.03 20.81,-77.16 12.48,-79.25 10.01,-76.52 8.23,-72.41 4.6,-69.49 0.62,-68.6 -0.62,-69.11 2.38,-69.97 8.43,-70.42 14.8,-70.37 19.17,-70.1 20.45,-69.96 18.19,-70.18 11.56,-70.79 0.28,-71.8 -12.69,-73.35 -19.94,-76.04 -17.22,-80.5 -25.2,-82.3" fill="none" stroke="rgb(128, 128, 128)" stroke-width="2" stroke-linejoin="round" filter="url(#fuzzy)" /><polyline points="18.68,-84.66 38.03,-67.69 32.81,-62.9 19.12,-62.16 7.79,-62.23 0.76,-63.21 -2.81,-64.6 -3.83,-65.02 -3.4,-63.64 -2.55,-61.03 -1.03,-58.79 2.32,-58.63 7.41,-61.45 11.4,-66.82 11.2,-72.86 9.29,-77.23 16.79,-78.22 41.38,-71.86" fill="none" stroke="rgb(128, 128, 128)" stroke-width="2" stroke-linejoin="round" filter="url(#fuzzy)" /><polyline points="49.38,-64.27 28.83,-69.28 23.47,-64.97 27.63,-60.53 29.07,-59.32 25.76,-60.59 21.14,-62.49 17.93,-63.89 16.16,-64.9 14.86,-66.11 13.96,-67.72 14.61,-69.22 17.79,-69.91 22.79,-69.8 26.95,-69.94 27.15,-71.82 22.39,-75.79 15.95,-80 15.12,-80.89 27.55,-74.86 54.13,-58.06" fill="none" stroke="rgb(128, 128, 128)" stroke-width="2" stroke-linejoin="round" filter="url(#fuzzy)" /><polyline points="36.79,-75.51 23.71,-75.29 7.41,-74.87 6.35,-72.8 13.93,-71.24 19.81,-71.13 19.73,-71.63 14.91,-71.44 7.78,-70.24 -0.96,-68.73 -11.43,-67.33 -21.57,-65.12 -25.65,-60.56 -18.22,-54.1 -7.74,-50.48 -51.93,-61.02" fill="none" stroke="rgb(128, 128, 128)" stroke-width="2" stroke-linejoin="round" filter="url(#fuzzy)" /><polyline points="41.85,-71.45 12.65,-62.96 22.57,-59.11 24.6,-61.89 16.25,-67.01 4.73,-71.25 -4.74,-73.49 -10.09,-73.96 -11.26,-73.39 -9.63,-72.32 -7.25,-70.95 -5.31,-69.4 -3.12,-68.12 0.72,-68.13 4.69,-71.29 1.38,-79.34 -11.31,-86.53" fill="none" stroke="rgb(128, 128, 128)" stroke-width="2" stroke-linejoin="round" filter="url(#fuzzy)" /><polyline points="-47.17,-66.49 3.1,-69.54 3.1,-73.11 -5,-73.81 -5.91,-73.18 -0.97,-72.95 4.17,-73.98 6.68,-75.84 7.19,-77.08 7.17,-76.38 6.82,-73.6 5.33,-70.04 2.87,-67.36 1.68,-66.54 2.48,-68.58 -0.37,-76.19 1.26,-87.39" fill="none" stroke="rgb(128, 128, 128)" stroke-width="2" stroke-linejoin="round" filter="url(#fuzzy)" /><polyline points="51.47,-61.44 39.75,-69.4 39.5,-67.92 37.86,-67.22 36.99,-66.6 38.41,-65.34 40.89,-64.2 43.03,-63.63 44.65,-63.04 46.32,-61.52 48.29,-58.93 49.81,-56.22 48.99,-55.19 43.21,-57.7 30.37,-64.71 11.48,-74.92 -6.44,-83.75 -15.11,-85.7" fill="none" stroke="rgb(128, 128, 128)" stroke-width="2" stroke-linejoin="round" filter="url(#fuzzy)" /><polyline points="11.67,-86.39 29.62,-68.32 15.15,-71.67 -3.37,-75.06 -15.18,-76.46 -17.81,-77.2 -13.04,-77.62 -3.98,-77.26 6.46,-75.81 15.9,-73.49 22.34,-70.85 24,-68.5 19.79,-66.98 10.2,-66.65 -1.76,-67.52 -10.75,-69.08 -11.01,-70.38 0.05,-70.63 17.92,-70.73 28.74,-74.55 15.71,-85.59" fill="none" stroke="rgb(128, 128, 128)" stroke-width="2" stroke-linejoin="round" filter="url(#fuzzy)" /><polyline points="-25.63,-82 -11.89,-85.46 -5.36,-86.57 -1.69,-86.47 -0.17,-85.48 -0.61,-83.74 -1.36,-81.47 -0.42,-79.02 2.6,-76.73 6.27,-74.97 8.87,-74.14 9.71,-74.59 9.27,-76.38 8.48,-78.92 8.62,-81.08 11.46,-81.79 17.76,-81.18 24.44,-80.74 31.13,-79.13" fill="none" stroke="rgb(128, 128, 128)" stroke-width="2" stroke-linejoin="round" filter="url(#fuzzy)" /><polyline points="0.91,-87.66 3.14,-87.45 5.3,-87.25 7.26,-87.04 9.17,-86.79 11.17,-86.45 13.27,-86 15.46,-85.45 17.68,-84.81 19.9,-84.08 22.1,-83.29 24.32,-82.43 26.56,-81.49 28.84,-80.47 31.16,-79.37 33.48,-78.19 35.79,-76.95 38.04,-75.65 40.23,-74.3 42.36,-72.92 44.44,-71.5 46.51,-70.01 48.59,-68.44 50.7,-66.76 52.85,-64.97 55.03,-63.1 57.19,-61.18 59.3,-59.23 61.32,-57.24 63.28,-55.14 65.19,-52.92 66.97,-50.75 68.84,-48.68" fill="none" stroke="rgb(128, 128, 128)" stroke-width="2" stroke-linejoin="round" filter="url(#fuzzy)" /><polyline points="-3.61,-87.48 -1.59,-87.58 0.76,-87.54 3.18,-87.41 5.54,-87.24 7.81,-87.03 10.05,-86.76 12.37,-86.42 14.84,-85.98 17.47,-85.45 20.22,-84.82 23.01,-84.11 25.81,-83.33 28.58,-82.48 31.32,-81.56 34.05,-80.55 36.81,-79.46 39.67,-78.3 42.65,-77.06 45.77,-75.77 48.96,-74.44 52.11,-73.07 55.13,-71.67 57.94,-70.22 60.52,-68.68 62.92,-67.02 65.23,-65.21 67.58,-63.28 70.02,-61.35 72.43,-59.56 74.67,-57.99 77.46,-56.49" fill="none" stroke="rgb(128, 128, 128)" stroke-width="2" stroke-linejoin="round" filter="url(#fuzzy)" /><polyline points="-15.11,-85.7 -12.97,-86.09 -10.97,-86.43 -8.93,-86.74 -6.75,-87 -4.36,-87.19 -1.74,-87.31 1.09,-87.33 4.07,-87.28 7.15,-87.15 10.25,-86.95 13.32,-86.69 16.29,-86.34 19.15,-85.91 21.95,-85.4 24.73,-84.79 27.59,-84.1 30.58,-83.34 33.77,-82.5 37.23,-81.58 41.01,-80.58 45.19,-79.5 49.77,-78.34 54.7,-77.11 59.84,-75.83 65.01,-74.49 70.12,-73.12 75.2,-71.72 80.36,-70.26 85.8,-68.72 91.64,-67.05 97.8,-65.24 103.91,-63.32 109.28,-61.38 113.31,-59.58 116.7,-57.99 121.49,-56.49" fill="none" stroke="rgb(128, 128, 128)" stroke-width="2" stroke-linejoin="round" filter="url(#fuzzy)" /><polyline points="-17.96,-84.91 -15.18,-85.57 -12.74,-86.12 -10.82,-86.54 -9.03,-86.85 -6.98,-87.07 -4.56,-87.21 -1.86,-87.28 0.98,-87.27 3.86,-87.18 6.73,-87.02 9.59,-86.78 12.48,-86.46 15.41,-86.06 18.44,-85.58 21.61,-85.02 24.97,-84.38 28.6,-83.68 32.51,-82.91 36.68,-82.08 40.97,-81.2 45.19,-80.26 49.11,-79.26 52.56,-78.18 55.59,-77.01 58.38,-75.73 61.25,-74.36 64.5,-72.91 68.23,-71.41 72.39,-69.9 76.87,-68.37 81.7,-66.83 87.08,-65.19 93.28,-63.33 100.13,-61.02 105.17,-58.06" fill="none" stroke="rgb(128, 128, 128)" stroke-width="2" stroke-linejoin="round" filter="url(#fuzzy)" /><polyline points="71.18,-15.83 71.1,-14.03 70.75,-11.62 68.97,-8.85 65.88,-5.96 62.54,-3.13 59.83,-0.42 58.05,2.23 57.03,4.87 56.48,7.54 56.08,10.23 55.58,12.9 54.77,15.54 53.54,18.13 51.9,20.68 49.98,23.22 47.94,25.76 45.92,28.3 44.01,30.85 42.21,33.38 40.52,35.87 38.94,38.3 37.51,40.66 36.28,42.93 35.23,45.14 34.28,47.29 33.28,49.39 32.02,51.44 30.34,53.46 28.18,55.44 25.65,57.38 23.06,59.3 20.75,61.21 18.95,63.13 17.58,65.07 16.2,67.08 14.24,69.23 11.47,71.54" fill="none" stroke="rgb(128, 128, 128)" stroke-width="2" stroke-linejoin="round" filter="url(#fuzzy)" /><polyline points="-23.56,-82.9 -20.21,-83.95 -17.38,-84.81 -15,-85.45 -12.88,-85.93 -10.83,-86.32 -8.77,-86.65 -6.67,-86.91 -4.52,-87.12 -2.36,-87.24 -0.2,-87.3 1.91,-87.27 3.95,-87.17 5.93,-87.01 7.85,-86.78 9.74,-86.47 11.64,-86.08 13.55,-85.61 15.48,-85.04 17.39,-84.39 19.27,-83.66 21.09,-82.88 22.86,-82.02 24.6,-81.08 26.31,-80.05 28,-78.93 29.65,-77.76 31.29,-76.57 32.72,-75.51" fill="none" stroke="rgb(128, 128, 128)" stroke-width="2" stroke-linejoin="round" filter="url(#fuzzy)" /><polyline points="-25.2,-82.3 -23.51,-83.04 -21.31,-83.91 -18.91,-84.7 -16.65,-85.35 -14.59,-85.86 -12.69,-86.27 -10.77,-86.61 -8.65,-86.89 -6.2,-87.11 -3.4,-87.26 -0.26,-87.33 3.13,-87.32 6.66,-87.24 10.21,-87.11 13.69,-86.91 17.12,-86.67 20.71,-86.34 24.85,-85.92 29.91,-85.36 35.97,-84.67 42.52,-83.91 48.44,-83.14" fill="none" stroke="rgb(128, 128, 128)" stroke-width="2" stroke-linejoin="round" filter="url(#fuzzy)" /><polyline points="-26.2,-81.84 -25.18,-82.37 -23.61,-83.08 -21.54,-83.88 -19.25,-84.64 -16.94,-85.28 -14.7,-85.81 -12.51,-86.23 -10.31,-86.58 -8.05,-86.87 -5.64,-87.1 -3.07,-87.25 -0.34,-87.33 2.5,-87.33 5.38,-87.26 8.22,-87.12 10.99,-86.94 13.75,-86.71 16.63,-86.4 19.88,-85.99 23.69,-85.44 28.02,-84.72 31.37,-83.96" fill="none" stroke="rgb(128, 128, 128)" stroke-width="2" stroke-linejoin="round" filter="url(#fuzzy)" /><polyline points="-31.6,-78.82 -27.13,-79.63 -22.73,-80.54 -20.09,-81.52 -18.57,-82.45 -17.49,-83.29 -16.37,-84.04 -14.98,-84.7 -13.27,-85.29 -11.34,-85.81 -9.32,-86.24 -7.32,-86.6 -5.42,-86.87 -3.63,-87.05 -1.93,-87.16 -0.33,-87.19 1.22,-87.14 2.72,-87.02 4.2,-86.82 5.65,-86.53 7.08,-86.17 8.45,-85.73 9.72,-85.21 10.84,-84.61 11.82,-83.93 12.69,-83.18 13.48,-82.37 14.17,-81.51 14.65,-80.63 14.82,-79.73 14.67,-78.79 14.44,-77.77 14.34,-76.65 13.43,-75.55" fill="none" stroke="rgb(128, 128, 128)" stroke-width="2" stroke-linejoin="round" filter="url(#fuzzy)" /><polyline points="-32.43,-78.18 -31.67,-78.87 -30.15,-79.94 -28.77,-81.03 -27.5,-82.02 -25.93,-82.92 -23.88,-83.74 -21.49,-84.49 -18.97,-85.13 -16.51,-85.68 -14.12,-86.14 -11.72,-86.51 -9.22,-86.81 -6.57,-87.04 -3.77,-87.2 -0.88,-87.28 2.01,-87.28 4.87,-87.21 7.67,-87.08 10.45,-86.89 13.29,-86.63 16.27,-86.3 19.51,-85.86 23.02,-85.3 26.77,-84.63 30.7,-83.87 34.86,-83.08 39.77,-82.24" fill="none" stroke="rgb(128, 128, 128)" stroke-width="2" stroke-linejoin="round" filter="url(#fuzzy)" /><polyline points="-35.63,-76.16 -33.9,-77.21 -31.83,-78.36 -29.52,-79.42 -26.98,-80.44 -24.37,-81.42 -21.87,-82.33 -19.57,-83.17 -17.43,-83.93 -15.4,-84.61 -13.43,-85.21 -11.51,-85.74 -9.63,-86.19 -7.78,-86.56 -5.96,-86.85 -4.13,-87.05 -2.32,-87.18 -0.5,-87.23 1.28,-87.2 3.02,-87.09 4.68,-86.91 6.25,-86.65 7.75,-86.31 9.18,-85.9 10.6,-85.4 12.06,-84.83 13.58,-84.17 15.11,-83.41 16.52,-82.54 17.63,-81.67 18.05,-81.2" fill="none" stroke="rgb(128, 128, 128)" stroke-width="2" stroke-linejoin="round" filter="url(#fuzzy)" /><polyline points="-42.05,-71.41 -39.65,-73.32 -38.31,-74.82 -37.45,-76.05 -36.3,-77.17 -34.64,-78.24 -32.6,-79.29 -30.39,-80.3 -28.13,-81.27 -25.86,-82.19 -23.62,-83.03 -21.4,-83.81 -19.18,-84.5 -16.95,-85.13 -14.72,-85.67 -12.47,-86.14 -10.19,-86.52 -7.85,-86.83 -5.43,-87.05 -2.89,-87.19 -0.23,-87.25 2.57,-87.24 5.48,-87.15 8.51,-86.99 11.68,-86.75 15,-86.43 18.46,-86.02 21.96,-85.53 25.27,-84.99 28.15,-84.49 30.54,-84.17" fill="none" stroke="rgb(128, 128, 128)" stroke-width="2" stroke-linejoin="round" filter="url(#fuzzy)" /><polyline points="-42.05,-71.41 -39.58,-73.32 -37.8,-74.82 -36.39,-76.04 -34.96,-77.16 -33.36,-78.23 -31.6,-79.27 -29.75,-80.28 -27.86,-81.25 -25.99,-82.17 -24.18,-83.02 -22.39,-83.8 -20.57,-84.5 -18.68,-85.12 -16.64,-85.68 -14.43,-86.15 -12.04,-86.55 -9.47,-86.86 -6.73,-87.09 -3.84,-87.24 -0.83,-87.31 2.26,-87.31 5.36,-87.23 8.44,-87.09 11.53,-86.88 14.89,-86.59 19,-86.2 24.71,-85.59" fill="none" stroke="rgb(128, 128, 128)" stroke-width="2" stroke-linejoin="round" filter="url(#fuzzy)" /><polyline points="-46.01,-67.73 -47.16,-69.19 -46.48,-70.71 -46.92,-72.22 -47.86,-73.66 -47.9,-74.99 -46.37,-76.22 -43.51,-77.39 -40.03,-78.51 -36.59,-79.6 -33.57,-80.65 -31.04,-81.65 -28.9,-82.58 -26.98,-83.44 -25.14,-84.22 -23.26,-84.91 -21.2,-85.5 -18.85,-86.01 -16.12,-86.42 -12.96,-86.76 -9.43,-87.03 -5.61,-87.23 -1.61,-87.35 2.5,-87.38 6.64,-87.32 10.73,-87.2 14.65,-87.04 18.53,-86.84 23.53,-86.46" fill="none" stroke="rgb(128, 128, 128)" stroke-width="2" stroke-linejoin="round" filter="url(#fuzzy)" /><polyline points="-47.17,-66.49 -48.32,-68.47 -49.77,-70.23 -48.97,-71.79 -46.37,-73.23 -43.07,-74.57 -39.92,-75.82 -37.35,-76.99 -35.42,-78.1 -34.01,-79.16 -32.88,-80.18 -31.82,-81.15 -30.61,-82.07 -29.09,-82.93 -27.2,-83.71 -24.95,-84.42 -22.41,-85.06 -19.69,-85.62 -16.87,-86.1 -13.98,-86.5 -10.99,-86.82 -7.86,-87.05 -4.53,-87.21 -1.01,-87.28 2.66,-87.28 6.43,-87.2 10.27,-87.05 14.25,-86.83 18.54,-86.53 23.39,-86.12 28.85,-85.59 34.23,-84.98" fill="none" stroke="rgb(128, 128, 128)" stroke-width="2" stroke-linejoin="round" filter="url(#fuzzy)" /><polyline points="-56.68,-54.45 -55.09,-56.69 -53.83,-58.71 -52.65,-60.69 -51.31,-62.62 -49.71,-64.5 -47.9,-66.32 -45.99,-68.07 -44.07,-69.74 -42.2,-71.32 -40.39,-72.8 -38.6,-74.19 -36.82,-75.49 -35.01,-76.71 -33.16,-77.86 -31.26,-78.96 -29.31,-80 -27.32,-80.98 -25.29,-81.92 -23.23,-82.78 -21.12,-83.58 -18.96,-84.31 -16.76,-84.97 -14.51,-85.54 -12.25,-86.04 -9.99,-86.46 -7.73,-86.79 -5.46,-87.04 -3.16,-87.2 -0.82,-87.29 1.57,-87.3 3.96,-87.23 6.31,-87.09 8.61,-86.88 10.95,-86.6 13.61,-86.2 17.18,-85.59" fill="none" stroke="rgb(128, 128, 128)" stroke-width="2" stroke-linejoin="round" filter="url(#fuzzy)" /><polyline points="-56.68,-54.45 -56.44,-56.66 -57.65,-58.65 -60.85,-60.61 -64.11,-62.52 -65.69,-64.38 -65.24,-66.18 -63.43,-67.92 -61.13,-69.59 -58.92,-71.18 -56.97,-72.67 -55.26,-74.06 -53.82,-75.36 -52.75,-76.58 -52.08,-77.72 -51.59,-78.81 -50.8,-79.85 -49.17,-80.87 -46.47,-81.84 -42.98,-82.75 -39.4,-83.59 -36.34,-84.33 -33.65,-85 -30.29,-85.65 -25.33,-86.32" fill="none" stroke="rgb(128, 128, 128)" stroke-width="2" stroke-linejoin="round" filter="url(#fuzzy)" /><polyline points="-56.73,-54.21 -57.82,-55.93 -60.81,-57.55 -63.35,-59.25 -63.77,-61.01 -61.96,-62.82 -58.97,-64.66 -55.97,-66.5 -53.67,-68.28 -52.27,-69.99 -51.6,-71.59 -51.37,-73.09 -51.25,-74.48 -50.98,-75.78 -50.38,-77.01 -49.39,-78.17 -48.04,-79.29 -46.38,-80.37 -44.38,-81.4 -41.97,-82.37 -39.08,-83.28 -35.7,-84.13 -32.01,-84.88 -28.27,-85.53 -24.72,-86.06 -21.34,-86.46 -17.92,-86.77 -14.69,-87.02" fill="none" stroke="rgb(128, 128, 128)" stroke-width="2" stroke-linejoin="round" filter="url(#fuzzy)" /><polyline points="-58.52,-51.66 -57.67,-54.23 -57.64,-56.5 -56.9,-58.6 -55.61,-60.61 -54.46,-62.55 -53.73,-64.43 -53.16,-66.25 -52.39,-68 -51.18,-69.67 -49.57,-71.26 -47.8,-72.75 -46.11,-74.14 -44.61,-75.45 -43.22,-76.67 -41.78,-77.83 -40.1,-78.93 -38.14,-79.97 -35.91,-80.96 -33.52,-81.9 -31.04,-82.77 -28.49,-83.57 -25.86,-84.3 -23.09,-84.95 -20.17,-85.53 -17.13,-86.03 -14.01,-86.45 -10.83,-86.78 -7.61,-87.03 -4.27,-87.2 -0.78,-87.29 2.92,-87.3 6.8,-87.23 10.79,-87.09 14.83,-86.88 18.98,-86.6 23.66,-86.2 29.84,-85.59" fill="none" stroke="rgb(128, 128, 128)" stroke-width="2" stroke-linejoin="round" filter="url(#fuzzy)" /><polyline points="-62.51,-44.55 -62.11,-46.94 -60.9,-49.2 -59.92,-51.27 -59.22,-53.26 -58.58,-55.18 -57.73,-57.04 -56.54,-58.85 -55.01,-60.64 -53.28,-62.45 -51.5,-64.27 -49.8,-66.09 -48.2,-67.88 -46.67,-69.61 -45.14,-71.25 -43.57,-72.79 -41.98,-74.22 -40.39,-75.54 -38.82,-76.75 -37.23,-77.9 -35.46,-79.04 -33.39,-80.21 -31.09,-81.41 -29.37,-82.3" fill="none" stroke="rgb(128, 128, 128)" stroke-width="2" stroke-linejoin="round" filter="url(#fuzzy)" /><polyline points="-62.51,-44.55 -63.31,-46.94 -64.02,-49.2 -64.95,-51.27 -66.17,-53.26 -67.43,-55.18 -68.35,-57.04 -68.74,-58.85 -68.74,-60.64 -68.76,-62.45 -69.09,-64.27 -69.66,-66.09 -70.07,-67.88 -69.8,-69.61 -68.6,-71.25 -66.65,-72.79 -64.57,-74.22 -63.01,-75.54 -62.3,-76.75 -62.16,-77.9 -61.71,-79.04 -60.06,-80.21 -57.05,-81.41 -54.11,-82.3" fill="none" stroke="rgb(128, 128, 128)" stroke-width="2" stroke-linejoin="round" filter="url(#fuzzy)" /><polyline points="-62.53,-43.95 -63.56,-45.98 -64.66,-48.09 -64.41,-50.14 -63.23,-52.14 -61.7,-54.14 -60.25,-56.15 -59.16,-58.15 -58.61,-60.13 -58.56,-62.06 -58.77,-63.95 -58.83,-65.77 -58.38,-67.54 -57.29,-69.24 -55.68,-70.85 -53.95,-72.38 -52.47,-73.81 -51.51,-75.15 -51.03,-76.39 -50.69,-77.54 -49.99,-78.64 -48.53,-79.69 -46.27,-80.74 -43.68,-81.79 -41.38,-82.8 -38.8,-83.65" fill="none" stroke="rgb(128, 128, 128)" stroke-width="2" stroke-linejoin="round" filter="url(#fuzzy)" /><polyline points="-64.27,-40.37 -63.14,-43.31 -62.57,-45.74 -61.73,-47.95 -60.51,-50.05 -59.13,-52.08 -57.84,-54.11 -56.74,-56.12 -55.81,-58.13 -54.95,-60.11 -54.02,-62.05 -52.93,-63.94 -51.68,-65.77 -50.31,-67.54 -48.86,-69.24 -47.34,-70.85 -45.74,-72.38 -43.99,-73.81 -42.11,-75.15 -40.12,-76.39 -38.1,-77.56 -36.1,-78.67 -34.12,-79.74 -32.11,-80.77 -30.02,-81.78 -27.85,-82.73 -25.74,-83.59 -23.83,-84.31 -22.23,-84.91" fill="none" stroke="rgb(128, 128, 128)" stroke-width="2" stroke-linejoin="round" filter="url(#fuzzy)" /><polyline points="-64.69,-39.11 -64.22,-41 -64.35,-43.34 -65.14,-45.67 -65.65,-47.89 -65.23,-50.01 -64.04,-52.08 -62.69,-54.13 -61.67,-56.16 -61.12,-58.18 -60.85,-60.16 -60.59,-62.1 -60.12,-64 -59.37,-65.83 -58.39,-67.59 -57.26,-69.29 -56.03,-70.89 -54.67,-72.41 -53.17,-73.84 -51.53,-75.18 -49.79,-76.43 -48.05,-77.62 -46.38,-78.74 -44.78,-79.8 -43.13,-80.82 -41.27,-81.78 -39.06,-82.68 -36.41,-83.52 -33.3,-84.28 -29.77,-84.97 -25.91,-85.6 -21.88,-86.14 -17.97,-86.6 -14.43,-86.95 -10.94,-87.21 -6.23,-87.35" fill="none" stroke="rgb(128, 128, 128)" stroke-width="2" stroke-linejoin="round" filter="url(#fuzzy)" /><polyline points="-64.69,-39.11 -66.6,-40.99 -66.15,-43.32 -66.96,-45.64 -68.65,-47.86 -69.78,-49.98 -69.54,-52.04 -68.08,-54.08 -66.05,-56.1 -64.12,-58.11 -62.66,-60.1 -61.71,-62.04 -61.03,-63.93 -60.28,-65.76 -59.16,-67.53 -57.56,-69.23 -55.59,-70.84 -53.48,-72.37 -51.53,-73.8 -49.96,-75.14 -48.82,-76.4 -47.97,-77.57 -47.13,-78.69 -45.97,-79.76 -44.25,-80.79 -41.93,-81.77 -39.15,-82.7 -36.17,-83.55 -33.18,-84.3 -30.13,-84.99 -26.48,-85.64 -21.67,-86.32" fill="none" stroke="rgb(128, 128, 128)" stroke-width="2" stroke-linejoin="round" filter="url(#fuzzy)" /><polyline points="-66.06,-35.98 -65.59,-37.57 -64.91,-39.71 -64.2,-41.99 -63.37,-44.29 -62.44,-46.57 -61.55,-48.77 -60.79,-50.9 -60.21,-52.95 -59.85,-54.92 -59.76,-56.83 -60.02,-58.7 -60.63,-60.54 -61.48,-62.37 -62.28,-64.2 -62.68,-66.02 -62.39,-67.8 -61.32,-69.53 -59.6,-71.17 -57.5,-72.72 -55.3,-74.16 -53.19,-75.5 -51.23,-76.76 -49.36,-77.95 -47.51,-79.09 -45.62,-80.2 -43.65,-81.27 -41.46,-82.26 -38.63,-83.19 -34.66,-84.16 -29.81,-85.35" fill="none" stroke="rgb(128, 128, 128)" stroke-width="2" stroke-linejoin="round" filter="url(#fuzzy)" /><polyline points="-67.74,-30.5 -66.62,-33.93 -66.12,-36.27 -65.7,-38.52 -65.11,-40.81 -64.29,-43.12 -63.27,-45.39 -62.11,-47.61 -60.87,-49.77 -59.59,-51.87 -58.31,-53.94 -57.03,-55.98 -55.78,-58 -54.6,-59.99 -53.48,-61.93 -52.42,-63.83 -51.38,-65.67 -50.28,-67.44 -49.05,-69.15 -47.64,-70.77 -46,-72.3 -44.17,-73.74 -42.22,-75.09 -40.21,-76.36 -38.22,-77.55 -36.24,-78.68 -34.24,-79.75 -32.18,-80.78 -30.02,-81.75 -27.77,-82.67 -25.46,-83.52 -23.1,-84.29 -20.62,-84.99 -17.91,-85.63 -14.98,-86.21 -12.36,-86.66 -11.3,-86.79" fill="none" stroke="rgb(128, 128, 128)" stroke-width="2" stroke-linejoin="round" filter="url(#fuzzy)" /><polyline points="-68.66,-27.12 -67.53,-30.55 -66.16,-33.51 -64.56,-36.01 -62.73,-38.35 -60.75,-40.65 -58.77,-42.95 -56.9,-45.22 -55.11,-47.43 -53.23,-49.57 -51.03,-51.67 -48.35,-53.73 -45.21,-55.77 -41.85,-57.78 -38.63,-59.76 -35.87,-61.71 -33.75,-63.62 -32.23,-65.47 -31.11,-67.26 -30.08,-68.99 -28.85,-70.64 -27.25,-72.2 -25.26,-73.67 -23,-75.03 -20.66,-76.29 -18.38,-77.46 -16.29,-78.55 -14.5,-79.58 -13.15,-80.6 -11.71,-82" fill="none" stroke="rgb(128, 128, 128)" stroke-width="2" stroke-linejoin="round" filter="url(#fuzzy)" /><polyline points="69.69,-22.76 70.67,-20.63 72.79,-18.4 75.86,-16.26 78.84,-14.07 80.93,-11.69 81.98,-9.11 82.39,-6.42 82.79,-3.7 83.77,-1.04 85.63,1.58 88.4,4.19 91.92,6.83 95.95,9.5 100.2,12.18 104.31,14.81 107.9,17.37 110.66,19.85 112.61,22.28 114.08,24.71 115.55,27.19 117.12,29.77 118.51,32.46 119.31,35.36 118.94,39.16" fill="none" stroke="rgb(128, 128, 128)" stroke-width="2" stroke-linejoin="round" filter="url(#fuzzy)" /><polyline points="69.17,-25.86 70.51,-23.58 72.72,-21.08 74.67,-18.34 76.32,-15.48 77.7,-12.6 78.7,-9.75 79.3,-6.96 79.59,-4.24 79.7,-1.59 79.73,1.01 79.74,3.6 79.77,6.19 79.88,8.82 80.12,11.47 80.5,14.14 81,16.81 81.57,19.45 82.14,22.06 82.59,24.62 82.82,27.13 82.75,29.61 82.35,32.05 81.66,34.47 80.82,36.87 79.99,39.25 79.3,41.6 78.8,43.93 78.45,46.23 78.14,48.48 77.74,50.66 77.16,52.77 76.38,54.81 75.39,56.84 74.23,58.94 73,61.05 72.03,62.82 71.66,63.34" fill="none" stroke="rgb(128, 128, 128)" stroke-width="2" stroke-linejoin="round" filter="url(#fuzzy)" /><polyline points="69.17,-25.86 72.9,-23.58 75.3,-21.09 75.68,-18.36 75.96,-15.51 77.19,-12.64 79.53,-9.79 82.57,-7 85.63,-4.29 88.18,-1.64 90.05,0.95 91.36,3.52 92.38,6.11 93.35,8.73 94.38,11.37 95.52,14.04 96.8,16.71 98.24,19.36 99.9,21.97 101.79,24.52 103.86,27.03 105.96,29.5 107.82,31.93 109.08,34.35 109.43,36.75 108.79,39.12 107.38,41.48 105.72,43.81 104.38,46.13 103.78,48.42 104.17,50.63 105.64,52.69 108.21,54.55 111.24,56.2 112.02,57.8" fill="none" stroke="rgb(128, 128, 128)" stroke-width="2" stroke-linejoin="round" filter="url(#fuzzy)" /><polyline points="68.38,-28.52 69.6,-24.16 70.94,-21.11 72.17,-18.59 73.06,-16.28 73.58,-13.96 73.85,-11.5 74.02,-8.91 74.19,-6.22 74.37,-3.51 74.54,-0.81 74.63,1.86 74.63,4.53 74.54,7.2 74.37,9.87 74.17,12.54 73.93,15.17 73.69,17.76 73.41,20.32 73.08,22.85 72.68,25.39 72.2,27.94 71.63,30.5 71.01,33.05 70.33,35.57 69.6,38.03 68.81,40.4 67.96,42.68 67.03,44.88 66.02,47.03 64.97,49.13 63.89,51.2 62.81,53.25 61.69,55.3 60.55,57.29 59.43,58.85" fill="none" stroke="rgb(128, 128, 128)" stroke-width="2" stroke-linejoin="round" filter="url(#fuzzy)" /><polyline points="68.38,-28.52 71.26,-24.21 73.83,-21.19 76.93,-18.7 80.28,-16.45 83.08,-14.2 84.76,-11.82 85.26,-9.27 84.97,-6.6 84.45,-3.91 84.13,-1.25 84.22,1.35 84.72,3.94 85.5,6.56 86.37,9.24 87.19,11.94 87.86,14.6 88.41,17.17 88.89,19.61 89.37,21.95 89.91,24.26 90.63,26.69 91.54,29.19" fill="none" stroke="rgb(128, 128, 128)" stroke-width="2" stroke-linejoin="round" filter="url(#fuzzy)" /><polyline points="68.73,-27.81 69.63,-25.8 70.46,-23.58 71.11,-21.13 71.84,-18.46 72.73,-15.68 73.72,-12.85 74.75,-10.03 75.83,-7.25 76.99,-4.55 78.27,-1.92 79.64,0.65 80.99,3.19 82.25,5.75 83.34,8.33 84.31,10.96 85.22,13.63 86.16,16.32 87.17,18.99 88.19,21.6 89.06,24.13 89.67,26.6 89.93,29.03 89.86,31.45 89.56,33.89 89.32,36.38 89.78,38.9 91.03,41.25" fill="none" stroke="rgb(128, 128, 128)" stroke-width="2" stroke-linejoin="round" filter="url(#fuzzy)" /><polyline points="67.02,-33.48 73.44,-29.46 80.43,-26.74 83.64,-24.09 84.28,-21.5 84.28,-19.05 84.8,-16.72 86.32,-14.4 88.92,-12 92.44,-9.47 96.49,-6.83 100.67,-4.16 104.76,-1.5 108.9,1.1 113.44,3.68 118.63,6.3 124.32,8.99 129.9,11.72 134.45,14.43 137.01,17.03 137.36,19.47 137.15,21.62 138.72,23.26" fill="none" stroke="rgb(128, 128, 128)" stroke-width="2" stroke-linejoin="round" filter="url(#fuzzy)" /><polyline points="66.72,-33.57 71.68,-31.94 75.76,-29.41 77.99,-26.78 80.17,-24.15 82.42,-21.57 84.22,-19.11 85.53,-16.73 86.87,-14.35 88.76,-11.91 91.36,-9.36 94.42,-6.73 97.59,-4.06 100.6,-1.4 103.38,1.24 105.85,3.87 107.85,6.52 109.32,9.2 110.43,11.89 111.66,14.55 113.53,17.13 116.1,19.61 118.86,22.01 121.12,24.4 122.95,26.9 125.81,29.61 131.12,32.62" fill="none" stroke="rgb(128, 128, 128)" stroke-width="2" stroke-linejoin="round" filter="url(#fuzzy)" /><polyline points="65.89,-36.28 68.61,-34.13 73.2,-31.9 76.83,-29.44 78.42,-26.87 78.95,-24.27 79.52,-21.72 80.52,-19.26 81.69,-16.86 82.61,-14.48 83.11,-12.04 83.32,-9.51 83.51,-6.88 83.93,-4.22 84.65,-1.56 85.63,1.07 86.75,3.68 87.96,6.32 89.24,9.01 90.57,11.74 91.88,14.43 93.04,17.03 93.98,19.48 94.81,21.78 95.9,24.04 97.74,26.78" fill="none" stroke="rgb(128, 128, 128)" stroke-width="2" stroke-linejoin="round" filter="url(#fuzzy)" /><polyline points="62.06,-45.2 64.77,-42.51 68.8,-39.67 72.12,-37.01 74.79,-34.51 77.43,-32.04 80.23,-29.54 83.09,-26.99 85.88,-24.44 88.56,-21.91 91.06,-19.42 93.29,-16.97 95.2,-14.52 96.9,-12.03 98.73,-9.47 101.11,-6.86 104.35,-4.2 108.51,-1.54 113.25,1.12 117.97,3.78 122.04,6.44 125.06,9.13 127.06,11.82 128.44,14.49 129.84,17.08 131.68,19.59 133.99,22.04 136.37,24.48 138.46,26.97 140.45,29.55 142.77,32.08 146.08,34.11" fill="none" stroke="rgb(128, 128, 128)" stroke-width="2" stroke-linejoin="round" filter="url(#fuzzy)" /><polyline points="59.71,-49.15 61.53,-46.35 63.06,-43.72 64.52,-41.22 66.3,-38.8 68.61,-36.42 71.41,-34.02 74.46,-31.6 77.49,-29.16 80.32,-26.7 82.97,-24.21 85.56,-21.66 88.17,-19.04 90.82,-16.35 93.45,-13.6 95.98,-10.82 98.4,-8.06 100.78,-5.34 103.24,-2.68 105.88,-0.09 108.71,2.46 111.57,4.99 114.23,7.54 116.58,10.14 118.58,12.83 120.08,15.64 120.52,18.62 119.68,21.77 119.57,24.68" fill="none" stroke="rgb(128, 128, 128)" stroke-width="2" stroke-linejoin="round" filter="url(#fuzzy)" /><polyline points="49.38,-64.27 56.64,-61.45 59.03,-58.83 61.74,-56.49 65.02,-54.33 67.7,-52.28 69.15,-50.27 69.61,-48.23 69.74,-46.12 70.16,-43.92 71.27,-41.63 73.24,-39.29 76.04,-36.91 79.45,-34.51 83.14,-32.09 86.81,-29.65 90.3,-27.18 93.66,-24.68 97.09,-22.14 100.82,-19.53 104.91,-16.84 109.19,-14.09 113.31,-11.3 116.94,-8.51 119.95,-5.75 122.45,-3.07 124.61,-0.47 126.42,2.05 127.84,4.53 129.44,7.03 132.24,9.68 134.6,12.94" fill="none" stroke="rgb(128, 128, 128)" stroke-width="2" stroke-linejoin="round" filter="url(#fuzzy)" /><polyline points="45.37,-68.21 48.35,-65.96 51.08,-63.8 53.44,-61.77 55.63,-59.84 57.71,-57.91 59.67,-55.89 61.57,-53.82 63.59,-51.72 65.89,-49.62 68.5,-47.5 71.25,-45.33 73.84,-43.08 76,-40.74 77.69,-38.33 79.14,-35.89 80.73,-33.44 82.77,-30.99 85.36,-28.49 88.42,-25.91 91.77,-23.24 95.21,-20.54 98.51,-17.98 101.98,-15.83" fill="none" stroke="rgb(128, 128, 128)" stroke-width="2" stroke-linejoin="round" filter="url(#fuzzy)" /><polyline points="41.85,-71.45 44,-70.19 46.15,-68.7 48.3,-67.16 50.65,-65.46 53.12,-63.55 55.62,-61.46 58.03,-59.27 60.2,-57.07 62,-54.91 63.43,-52.81 64.69,-50.75 66.06,-48.69 67.77,-46.59 69.9,-44.42 72.36,-42.18 74.94,-39.87 77.45,-37.52 79.81,-35.14 82.1,-32.74 84.46,-30.32 86.97,-27.9 89.5,-25.48 91.65,-23.05 93.07,-20.54 93.84,-17.82 95,-14.79 97.94,-11.61" fill="none" stroke="rgb(128, 128, 128)" stroke-width="2" stroke-linejoin="round" filter="url(#fuzzy)" /><polyline points="35.64,-76.38 37.99,-75.14 40.59,-73.66 42.73,-72.27 44.83,-70.92 47.19,-69.5 49.83,-67.91 52.65,-66.16 55.57,-64.3 58.49,-62.38 61.35,-60.44 64.07,-58.47 66.63,-56.47 69.16,-54.42 71.88,-52.34 75.04,-50.26 78.72,-48.21 82.7,-46.13 86.54,-43.97 89.84,-41.6 92.69,-38.99 96.04,-36.23 101.66,-33.57" fill="none" stroke="rgb(128, 128, 128)" stroke-width="2" stroke-linejoin="round" filter="url(#fuzzy)" /><polyline points="35.64,-76.38 35.88,-75.11 37.26,-73.62 38.84,-72.21 40.49,-70.82 42.15,-69.34 43.71,-67.7 45.04,-65.92 46.07,-64.03 46.83,-62.08 47.4,-60.1 47.88,-58.09 48.34,-56.04 48.8,-53.96 49.28,-51.85 49.84,-49.72 50.52,-47.54 51.38,-45.32 52.39,-43.04 53.46,-40.69 54.45,-38.28 55.17,-35.82 55.51,-33.33 55.45,-30.82 55.07,-28.28 54.53,-25.71 53.96,-23.14 53.47,-20.62 53.08,-18.19 52.72,-15.89 52.34,-13.67 51.93,-11.37 51.48,-8.77 50.93,-5.61" fill="none" stroke="rgb(128, 128, 128)" stroke-width="2" stroke-linejoin="round" filter="url(#fuzzy)" /><polyline points="25.16,-82.26 28.75,-80.48 31.61,-79.17 34.17,-77.92 36.42,-76.61 38.4,-75.25 40.28,-73.86 42.23,-72.46 44.3,-71.02 46.5,-69.51 48.75,-67.9 50.97,-66.17 53.08,-64.35 55.02,-62.45 56.79,-60.5 58.43,-58.51 60.04,-56.49 61.7,-54.43 63.46,-52.35 65.33,-50.25 67.29,-48.14 69.31,-46 71.43,-43.77 73.66,-41.42 76.03,-38.96 78.52,-36.47 81.05,-34.02 83.34,-31.38 85.19,-27.18" fill="none" stroke="rgb(128, 128, 128)" stroke-width="2" stroke-linejoin="round" filter="url(#fuzzy)" /><polyline points="20.36,-83.96 22.55,-83.19 24.6,-82.4 26.8,-81.47 29.26,-80.4 31.95,-79.24 34.81,-78.01 37.89,-76.72 41.3,-75.38 45.07,-74.01 49.1,-72.62 53.21,-71.19 57.23,-69.69 61.07,-68.1 64.81,-66.4 68.59,-64.59 72.61,-62.71 77.07,-60.78 82.13,-58.81 87.78,-56.79 93.78,-54.73 99.68,-52.64 105.01,-50.55 109.61,-48.5 113.78,-46.5 117.78,-44.45 121.63,-42.12 127.62,-39.04" fill="none" stroke="rgb(128, 128, 128)" stroke-width="2" stroke-linejoin="round" filter="url(#fuzzy)" /><polyline points="8.22,-87.09 10.84,-86.62 12.9,-86.15 14.9,-85.53 16.74,-84.82 18.42,-84.05 20.13,-83.23 21.99,-82.35 24.02,-81.4 26.11,-80.35 28.17,-79.22 30.12,-78.02 31.93,-76.75 33.59,-75.43 35.06,-74.06 36.31,-72.65 37.32,-71.19 38.11,-69.66 38.7,-68.04 39.17,-66.34 39.55,-64.54 39.85,-62.67 40.05,-60.73 40.15,-58.75 40.17,-56.72 40.18,-54.65 40.27,-52.56 40.44,-50.46 40.63,-48.34 40.7,-46.19 40.53,-43.97 40.09,-41.6 39.51,-39.09 38.95,-36.6 38.34,-34.49 36.85,-33.48" fill="none" stroke="rgb(128, 128, 128)" stroke-width="2" stroke-linejoin="round" filter="url(#fuzzy)" /><polyline points="8.22,-87.09 11.36,-86.63 13.93,-86.16 16.52,-85.56 19.22,-84.86 21.88,-84.1 24.4,-83.3 26.82,-82.44 29.23,-81.51 31.66,-80.49 34.07,-79.38 36.46,-78.2 38.85,-76.95 41.34,-75.64 44.04,-74.3 46.96,-72.93 50.04,-71.53 53.16,-70.08 56.23,-68.54 59.27,-66.87 62.43,-65.06 65.87,-63.17 69.56,-61.25 73.19,-59.39 76.4,-57.52 79.45,-55.29 84.46,-51.89" fill="none" stroke="rgb(128, 128, 128)" stroke-width="2" stroke-linejoin="round" filter="url(#fuzzy)" /><polyline points="7.09,-87.18 9.75,-86.72 12.73,-86.22 15.67,-85.67 18.36,-85.05 20.94,-84.37 23.58,-83.62 26.32,-82.8 29.04,-81.93 31.62,-81.03 34.01,-80.08 36.23,-79.06 38.38,-77.96 40.56,-76.76 42.85,-75.46 45.3,-74.06 47.95,-72.6 50.81,-71.1 53.85,-69.56 56.99,-67.98 60.12,-66.33 63.15,-64.56 66.05,-62.62 68.88,-60.5 71.77,-58.26 74.87,-55.99 78.31,-53.71 82.28,-51.4 86.7,-49.44" fill="none" stroke="rgb(128, 128, 128)" stroke-width="2" stroke-linejoin="round" filter="url(#fuzzy)" />
    </g>
    
        <g id="pointNose">
          <g id="rightNose"><circle r="1.748" cx="11.598" cy="6.776" stroke="black" fill="none" stroke-width="1.0" filter="url(#fuzzy)" /><circle r="1.108" cx="12.93" cy="4.488" stroke="black" fill="none" stroke-width="1.0" filter="url(#fuzzy)" /><circle r="1.44" cx="11.182" cy="7.996" stroke="black" fill="none" stroke-width="1.0" filter="url(#fuzzy)" /><circle r="1.296" cx="12.338000000000001" cy="7.516" stroke="black" fill="none" stroke-width="1.0" filter="url(#fuzzy)" /><circle r="1.74" cx="13.158000000000001" cy="6.268000000000001" stroke="black" fill="none" stroke-width="1.0" filter="url(#fuzzy)" /><circle r="1.88" cx="10.582" cy="5.428000000000001" stroke="black" fill="none" stroke-width="1.0" filter="url(#fuzzy)" /><circle r="2.568" cx="11.006" cy="5.976000000000001" stroke="black" fill="none" stroke-width="1.0" filter="url(#fuzzy)" /><circle r="2.116" cx="13.530000000000001" cy="6.356" stroke="black" fill="none" stroke-width="1.0" filter="url(#fuzzy)" /><circle r="2.0700000000000003" cx="9.766" cy="7.724" stroke="black" fill="none" stroke-width="1.0" filter="url(#fuzzy)" /><circle r="1.654" cx="10.354000000000001" cy="5.760000000000001" stroke="black" fill="none" stroke-width="1.0" filter="url(#fuzzy)" /></g>
          <g id="leftNose"><circle r="2.394" cx="-6.298000000000001" cy="8.096000000000002" stroke="black" fill="none" stroke-width="1.0" filter="url(#fuzzy)" /><circle r="1.596" cx="-6.870000000000001" cy="7.284000000000001" stroke="black" fill="none" stroke-width="1.0" filter="url(#fuzzy)" /><circle r="2.622" cx="-7.8100000000000005" cy="8.816" stroke="black" fill="none" stroke-width="1.0" filter="url(#fuzzy)" /><circle r="2.566" cx="-9.058" cy="9.092" stroke="black" fill="none" stroke-width="1.0" filter="url(#fuzzy)" /><circle r="1.062" cx="-6.742000000000001" cy="10.016000000000002" stroke="black" fill="none" stroke-width="1.0" filter="url(#fuzzy)" /><circle r="2.5060000000000002" cx="-8.838000000000001" cy="7.280000000000001" stroke="black" fill="none" stroke-width="1.0" filter="url(#fuzzy)" /><circle r="2.1020000000000003" cx="-6.434000000000001" cy="7.896000000000001" stroke="black" fill="none" stroke-width="1.0" filter="url(#fuzzy)" /><circle r="1.244" cx="-9.714" cy="9.756" stroke="black" fill="none" stroke-width="1.0" filter="url(#fuzzy)" /><circle r="1.456" cx="-8.538" cy="10.552000000000001" stroke="black" fill="none" stroke-width="1.0" filter="url(#fuzzy)" /><circle r="1.07" cx="-9.718" cy="9.496000000000002" stroke="black" fill="none" stroke-width="1.0" filter="url(#fuzzy)" /></g>
        </g>
      
    <g id="mouth">
      <polyline points="-66.62,27.2 -65.75,29.68 -64.86,32.07 -63.97,34.37 -63.06,36.57 -62.14,38.69 -61.2,40.72 -60.26,42.66 -59.3,44.52 -58.33,46.29 -57.35,47.99 -56.36,49.6 -55.35,51.13 -54.34,52.58 -53.31,53.95 -52.28,55.25 -51.23,56.48 -50.17,57.63 -49.1,58.71 -48.02,59.72 -46.94,60.66 -45.84,61.53 -44.73,62.34 -43.61,63.08 -42.48,63.76 -41.34,64.38 -40.2,64.94 -39.04,65.43 -37.87,65.87 -36.7,66.25 -35.51,66.58 -34.32,66.85 -33.12,67.08 -31.91,67.24 -30.69,67.36 -29.47,67.44 -28.23,67.46 -26.99,67.44 -25.74,67.37 -24.48,67.26 -23.22,67.11 -21.94,66.92 -20.66,66.69 -19.38,66.43 -18.08,66.12 -16.78,65.79 -15.47,65.41 -14.16,65.01 -12.84,64.58 -11.51,64.11 -10.18,63.62 -8.84,63.1 -7.49,62.56 -6.14,61.99 -4.78,61.4 -3.42,60.79 -2.05,60.16 -0.68,59.51 0.7,58.84 2.08,58.16 3.47,57.46 4.86,56.75 6.26,56.03 7.66,55.3 9.07,54.56 10.48,53.81 11.89,53.06 13.31,52.3 14.73,51.53 16.16,50.77 17.59,50 19.02,49.24 20.46,48.47 21.9,47.71 23.34,46.96 24.79,46.21 26.23,45.47 27.68,44.73 29.14,44.01 30.59,43.3 32.05,42.6 33.51,41.92 34.97,41.25 36.44,40.59 37.9,39.96 39.37,39.35 40.84,38.75 42.3,38.18 43.78,37.64 45.25,37.11 46.72,36.62 48.19,36.15 49.67,35.71 51.14,35.3 52.61,34.93 54.09,34.59 55.56,34.28 57.04,34.01 58.51,33.77 59.99,33.58 61.46,33.42 59.99,33.58 58.51,33.77 57.04,34.01 55.56,34.28 54.09,34.59 52.61,34.93 51.14,35.3 49.67,35.71 48.19,36.15 46.72,36.62 45.25,37.11 43.78,37.64 42.3,38.18 40.84,38.75 39.37,39.35 37.9,39.96 36.44,40.59 34.97,41.25 33.51,41.92 32.05,42.6 30.59,43.3 29.14,44.01 27.68,44.73 26.23,45.47 24.79,46.21 23.34,46.96 21.9,47.71 20.46,48.47 19.02,49.24 17.59,50 16.16,50.77 14.73,51.53 13.31,52.3 11.89,53.06 10.48,53.81 9.07,54.56 7.66,55.3 6.26,56.03 4.86,56.75 3.47,57.46 2.08,58.16 0.7,58.84 -0.68,59.51 -2.05,60.16 -3.42,60.79 -4.78,61.4 -6.14,61.99 -7.49,62.56 -8.84,63.1 -10.18,63.62 -11.51,64.11 -12.84,64.58 -14.16,65.01 -15.47,65.41 -16.78,65.79 -18.08,66.12 -19.38,66.43 -20.66,66.69 -21.94,66.92 -23.22,67.11 -24.48,67.26 -25.74,67.37 -26.99,67.44 -28.23,67.46 -29.47,67.44 -30.69,67.36 -31.91,67.24 -33.12,67.08 -34.32,66.85 -35.51,66.58 -36.7,66.25 -37.87,65.87 -39.04,65.43 -40.2,64.94 -41.34,64.38 -42.48,63.76 -43.61,63.08 -44.73,62.34 -45.84,61.53 -46.94,60.66 -48.02,59.72 -49.1,58.71 -50.17,57.63 -51.23,56.48 -52.28,55.25 -53.31,53.95 -54.34,52.58 -55.35,51.13 -56.36,49.6 -57.35,47.99 -58.33,46.29 -59.3,44.52 -60.26,42.66 -61.2,40.72 -62.14,38.69 -63.06,36.57 -63.97,34.37 -64.86,32.07 -65.75,29.68" fill="rgb(215,127,140)" stroke="black" stroke-width="3" stroke-linejoin="round" filter="url(#fuzzy)" />
    </g>
  </svg>
  