
  <svg viewBox="-100 -100 200 200" xmlns="http://www.w3.org/2000/svg" width="500" height="500" id="face-svg">
    <defs>
      <clipPath id="leftEyeClipPath">
        <polyline points="30.45,-13.21 30.25,-13.33 30.02,-13.44 29.77,-13.56 29.49,-13.67 29.19,-13.78 28.87,-13.89 28.52,-13.99 28.14,-14.1 27.74,-14.19 27.31,-14.29 26.86,-14.38 26.38,-14.47 25.87,-14.56 25.34,-14.64 24.79,-14.72 24.33,-14.83 23.82,-14.95 23.26,-15.05 22.65,-15.15 22,-15.23 21.3,-15.31 20.57,-15.39 19.79,-15.45 18.97,-15.5 18.12,-15.55 17.23,-15.59 16.32,-15.62 15.38,-15.64 14.41,-15.65 13.42,-15.66 12.42,-15.65 11.4,-15.64 10.37,-15.62 9.33,-15.59 8.28,-15.55 7.23,-15.5 6.19,-15.45 5.14,-15.39 4.1,-15.32 3.07,-15.24 2.05,-15.15 1.04,-15.06 0.05,-14.96 -0.93,-14.85 -1.88,-14.73 -2.82,-14.61 -3.73,-14.47 -4.62,-14.33 -5.48,-14.18 -6.32,-14.03 -7.13,-13.86 -7.91,-13.69 -8.67,-13.51 -9.39,-13.32 -10.09,-13.13 -10.76,-12.92 -11.4,-12.71 -12.01,-12.49 -12.59,-12.26 -13.15,-12.03 -13.68,-11.78 -14.18,-11.53 -14.66,-11.27 -15.12,-11.01 -15.56,-10.73 -15.98,-10.45 -16.37,-10.16 -16.75,-9.86 -17.11,-9.55 -17.44,-9.23 -17.76,-8.9 -18.06,-8.56 -18.34,-8.21 -18.61,-7.85 -18.85,-7.49 -19.09,-7.11 -19.3,-6.72 -19.51,-6.33 -19.7,-5.92 -20.08,-2.01 -19.91,-1.51 -19.74,-1.01 -19.56,-0.49 -19.37,0.03 -19.17,0.55 -18.96,1.08 -18.74,1.61 -18.51,2.14 -18.26,2.68 -18.01,3.22 -17.74,3.76 -17.45,4.3 -17.16,4.84 -16.84,5.38 -16.52,5.91 -16.18,6.45 -15.83,6.99 -15.46,7.53 -15.07,8.06 -14.66,8.59 -14.24,9.12 -13.8,9.63 -13.33,10.13 -12.85,10.62 -12.34,11.1 -11.82,11.56 -11.27,12 -10.7,12.42 -10.11,12.81 -9.5,13.19 -8.86,13.54 -8.21,13.86 -7.53,14.16 -6.84,14.42 -6.12,14.65 -5.38,14.85 -4.63,15.02 -3.86,15.15 -3.07,15.24 -2.26,15.3 -1.45,15.32 -0.61,15.3 0.23,15.24 1.09,15.14 1.95,15 2.82,14.82 3.7,14.6 4.59,14.34 5.47,14.05 6.36,13.71 7.25,13.33 8.14,12.92 9.02,12.47 9.89,11.98 10.76,11.46 11.62,10.9 12.47,10.32 13.3,9.7 14.12,9.06 14.93,8.39 15.71,7.7 16.48,6.99 17.23,6.26 17.95,5.51 18.62,4.95 19.29,4.38 19.94,3.81 20.57,3.23 21.19,2.64 21.8,2.05 22.39,1.46 22.96,0.87 23.52,0.28 24.06,-0.31 24.58,-0.89 25.08,-1.47 25.56,-2.03 26.02,-2.59 26.46,-3.13" />
      </clipPath>
      <clipPath id="rightEyeClipPath">
        <polyline points="-31.87,-13.84 -31.68,-14.02 -31.47,-14.2 -31.23,-14.37 -30.97,-14.54 -30.68,-14.7 -30.36,-14.86 -30.02,-15.02 -29.65,-15.17 -29.26,-15.31 -28.83,-15.45 -28.38,-15.58 -27.91,-15.71 -27.4,-15.82 -26.87,-15.94 -26.32,-16.04 -25.86,-16.21 -25.35,-16.37 -24.79,-16.51 -24.18,-16.64 -23.53,-16.76 -22.83,-16.87 -22.08,-16.96 -21.3,-17.04 -20.48,-17.1 -19.62,-17.16 -18.73,-17.2 -17.8,-17.22 -16.85,-17.24 -15.88,-17.24 -14.88,-17.23 -13.87,-17.2 -12.84,-17.17 -11.8,-17.12 -10.75,-17.07 -9.69,-17 -8.63,-16.92 -7.58,-16.83 -6.52,-16.73 -5.47,-16.62 -4.43,-16.5 -3.41,-16.38 -2.39,-16.24 -1.39,-16.1 -0.41,-15.94 0.55,-15.78 1.49,-15.61 2.41,-15.43 3.3,-15.24 4.17,-15.05 5.01,-14.85 5.82,-14.64 6.61,-14.42 7.36,-14.2 8.09,-13.96 8.79,-13.72 9.45,-13.48 10.09,-13.22 10.7,-12.96 11.28,-12.69 11.83,-12.42 12.36,-12.13 12.86,-11.84 13.34,-11.54 13.79,-11.24 14.23,-10.93 14.64,-10.61 15.03,-10.28 15.4,-9.94 15.75,-9.59 16.08,-9.23 16.39,-8.87 16.69,-8.49 16.96,-8.11 17.22,-7.71 17.46,-7.31 17.68,-6.9 17.89,-6.47 18.09,-6.04 18.27,-5.6 18.94,-3.01 18.8,-2.52 18.66,-2.03 18.51,-1.53 18.35,-1.02 18.19,-0.5 18.01,0.02 17.83,0.55 17.64,1.09 17.43,1.64 17.22,2.18 17,2.74 16.76,3.3 16.52,3.86 16.26,4.42 15.99,4.99 15.71,5.56 15.42,6.14 15.11,6.72 14.79,7.3 14.45,7.88 14.09,8.46 13.72,9.04 13.33,9.61 12.93,10.18 12.5,10.73 12.06,11.28 11.59,11.81 11.11,12.33 10.61,12.83 10.08,13.31 9.54,13.78 8.97,14.22 8.38,14.63 7.77,15.02 7.15,15.38 6.5,15.71 5.83,16.01 5.14,16.28 4.43,16.5 3.71,16.7 2.97,16.85 2.2,16.96 1.43,17.03 0.63,17.06 -0.18,17.04 -1,16.98 -1.83,16.87 -2.68,16.72 -3.54,16.51 -4.4,16.26 -5.28,15.97 -6.16,15.62 -7.04,15.22 -7.93,14.78 -8.82,14.29 -9.71,13.76 -10.61,13.18 -11.49,12.55 -12.38,11.88 -13.26,11.18 -14.13,10.43 -14.99,9.65 -15.84,8.83 -16.67,7.99 -17.41,7.4 -18.13,6.8 -18.85,6.18 -19.55,5.55 -20.25,4.91 -20.93,4.26 -21.6,3.61 -22.26,2.94 -22.9,2.28 -23.53,1.61 -24.14,0.94 -24.73,0.28 -25.31,-0.38 -25.86,-1.03 -26.39,-1.66" />
      </clipPath>
      <filter id="fuzzy">
        <feTurbulence id="turbulence" baseFrequency="0.05" numOctaves="3" type="noise" result="noise" />
        <feDisplacementMap in="SourceGraphic" in2="noise" scale="2" />
      </filter>
      <linearGradient id="rainbowGradient" x1="0%" y1="0%" x2="100%" y2="0%">
        <stop offset="0%" style="stop-color: rgb(167, 133, 106); stop-opacity: 1" />
        <stop offset="50%" style="stop-color: rgb(255, 192, 203); stop-opacity: 1" />
        <stop offset="100%" style="stop-color: rgb(123, 104, 238); stop-opacity: 1" />
      </linearGradient>
    </defs>
    <rect x="-100" y="-100" width="100%" height="100%" fill="rgb(245, 222, 179)" />
    <polyline id="faceContour" points="55.29,-0.2 55.18,2.7 55.28,1.03 55.14,5.39 55.17,3.57 55.15,6.29 54.71,9.62 54.84,9.45 54.74,10.58 54.75,10.76 54.42,13.25 54.42,14.13 54.4,14.82 54.47,14.49 53.96,16.81 53.61,20.11 53.58,20.19 53.33,21.5 53.02,22.84 52.95,23.21 52.65,23.98 52.27,25.91 51.66,28.94 51.58,29.66 51.12,31.32 50.94,31.66 50.48,33.96 50.22,33.85 50.33,34.28 49.38,36.82 49.16,37.32 49.01,37.61 48.52,39.58 47.46,41.86 47.32,42.42 46.6,44.38 46.08,45.36 45.78,45.66 45.14,47.35 45.71,45.79 44.54,48.33 44.94,47.91 43.29,50.89 42.55,52.26 42.98,51.71 42.09,53.6 41.88,53.5 40.38,55.92 40.12,56.11 38.55,58.75 39.88,56.77 38.35,58.9 37.9,59.82 36.45,61.9 36.45,61.82 35.4,62.87 35.22,62.98 34.48,63.82 33.09,65.68 32.64,66.25 33.08,65.67 32.94,66.18 30.01,68.72 30.24,68.57 28.86,69.81 28.48,70.29 28.24,70.41 27.61,70.83 26.73,71.82 26.21,71.91 23.85,74.16 23.95,73.88 24.14,73.8 22.17,75.14 21.89,75.51 20.16,76.64 20.42,76.15 19.82,76.71 18.31,77.61 18.58,77.11 16.15,78.52 15.34,78.77 15.99,78.6 14.58,78.99 14.44,79.18 14.04,79.59 11.47,80.07 12.01,79.99 9.69,80.94 9.2,80.76 7.95,81.22 8.22,81.19 8.16,81.19 5.39,81.73 4.29,81.71 3.77,81.82 4,81.83 3.21,81.7 2.01,82.19 0.81,81.87 0.6,81.92 -0.82,82.1 -2.18,81.96 -2.32,82.02 -2.37,82.15 -4.62,81.76 -4.6,81.57 -4.65,81.86 -6.55,81.52 -8.18,81.24 -8.11,81.06 -9.99,80.67 -9.73,80.64 -11.41,80.33 -11.98,80.08 -13.83,79.56 -12.52,79.86 -13.89,79.41 -16.17,78.28 -16.28,78.66 -16.43,78.16 -17.82,77.78 -19.58,76.87 -19.32,76.96 -20.14,76.42 -20.49,76.13 -21.44,75.73 -21.43,75.72 -23.78,73.89 -23.24,74.43 -25.01,72.86 -25.71,72.58 -26.85,71.83 -26.79,71.66 -28.7,69.83 -29.08,69.93 -30.38,68.28 -30.49,68.28 -31.16,68.01 -31.32,67.5 -33.35,65.37 -33.47,65.08 -33.68,65.01 -34.84,63.7 -35.2,63.16 -35.33,63.09 -35.65,62.68 -36.57,61.43 -37.92,59.51 -38.21,59.36 -39.61,57.18 -39.26,57.54 -39.44,57.4 -40.5,55.89 -41.54,53.97 -41.8,53.38 -41.65,53.76 -43.24,50.9 -43.84,49.81 -44.2,48.7 -44.94,48.06 -45.54,46.58 -45.86,45.68 -45.61,46.22 -46.28,44.52 -47.62,41.44 -47.28,42.37 -48.01,40.29 -48.27,39.9 -48.41,39.19 -49.34,36.92 -49,37.73 -49.71,35.61 -50.42,33.3 -50.73,32.74 -51.31,29.99 -51.31,30.04 -51.06,30.78 -52.16,26.57 -52.66,25.01 -52.74,23.87 -52.5,25.57 -53.28,21.7 -53.25,21.58 -53.62,18.69 -53.63,19.45 -54.09,17 -54.14,16.77 -54.4,13.67 -54.4,15 -54.45,13.78 -54.91,10.2 -54.65,10.81 -55.01,8.36 -54.9,8.7 -55.02,6.19 -55.09,4.85 -55.28,3.57 -55.09,4.28 -55.29,2.37 -55.35,-1.85 -55.32,-1.13 -55.09,-1.51 -55.01,-4.59 -55.02,-4.71 -55.01,-7.16 -54.92,-9.42 -54.67,-11.4 -54.56,-12.13 -54.51,-11.65 -54.44,-13.34 -54.6,-11.64 -54.17,-15.44 -54.2,-16.88 -53.66,-18.89 -53.66,-19.49 -53.76,-19.43 -53.25,-21.4 -53.25,-21.4 -52.8,-24.16 -52.39,-26.57 -52.21,-26.15 -52.17,-27.57 -51.44,-29.53 -51.14,-31.12 -50.94,-31.16 -50.76,-32.76 -50.55,-33.27 -50.7,-32.6 -50.1,-34.65 -49.38,-36.7 -48.68,-38.69 -48.75,-38.69 -48.14,-39.7 -47.77,-40.91 -47.11,-42.71 -46.08,-44.95 -45.63,-45.96 -45.9,-45.47 -45.3,-47.39 -45.31,-46.75 -44.73,-47.85 -43.37,-50.61 -42.95,-51.38 -43.16,-51.52 -42.65,-52.51 -41.09,-54.71 -40.96,-55.05 -40.16,-56.45 -38.95,-58.12 -39.68,-57.37 -38.33,-59.09 -38.48,-59.03 -37.27,-60.53 -36.63,-61.08 -35.82,-62.65 -35.45,-63.26 -34.56,-63.98 -34.6,-64.22 -33.48,-65.36 -31.97,-66.81 -32.03,-67.18 -29.82,-69.17 -30.54,-68.44 -29.02,-70.05 -28.71,-70.14 -27.51,-71.11 -27.23,-71.35 -26.35,-71.97 -26.11,-72.47 -23.56,-74.16 -25.05,-73.4 -23.81,-74.14 -23.06,-74.46 -22.89,-74.55 -21.12,-75.89 -20.24,-76.4 -20.63,-76.2 -18.67,-77.19 -17.54,-77.65 -17.54,-77.99 -16.24,-78.48 -15.05,-79.02 -15.32,-78.91 -13.4,-79.6 -11.68,-80.22 -11.88,-80.35 -11.36,-80.12 -10.04,-80.6 -9.73,-80.86 -9.01,-81.05 -8.13,-81.36 -7.56,-81.24 -6.73,-81.67 -4.93,-81.97 -4.6,-81.85 -3.2,-81.76 -3.31,-82.16 -1.7,-82.14 -0.05,-82.3 0.33,-82 0.72,-82.31 1.39,-82.09 2.49,-82 3.22,-82.12 4.94,-81.82 5.43,-81.75 5.34,-81.84 7.55,-81.56 7.9,-81.46 8.28,-81.06 9.66,-81.03 10.04,-80.85 11.23,-80.6 12.94,-79.79 12.13,-80.08 13.57,-79.43 14.51,-79.17 15.29,-79.01 15.85,-78.73 17.03,-77.9 19.13,-77.09 18.9,-76.96 19.74,-76.56 20.37,-76.22 22.73,-74.89 21.45,-75.74 22.61,-74.87 22.78,-74.74 24.82,-73.19 25.2,-73.32 26.06,-72.62 26.27,-72.09 27,-71.65 27.64,-71.07 30.13,-68.88 29.49,-69.1 31.21,-67.89 31.46,-67.24 31.01,-67.84 32.95,-66.08 32.51,-66.43 33.79,-64.99 33.78,-64.9 34.91,-63.54 36.37,-61.72 36.03,-62.26 37.69,-60.3 37.64,-60.22 38.33,-58.83 39.49,-57.47 38.64,-58.75 39.66,-57.23 40.76,-55.34 41.67,-53.43 42.04,-53.14 43.31,-51.19 43.05,-51.43 44.23,-49.26 43.87,-50.1 45.47,-46.57 45.11,-47 45.77,-46.27 46.21,-44.97 45.84,-46.15 46.8,-43.69 47.27,-42.54 48.09,-40.49 48.36,-40.31 49.4,-37.26 48.98,-37.65 49.77,-35.5 50.37,-34.03 50.32,-33.62 50.2,-34 50.89,-31.22 51.68,-29.46 51.63,-28.4 52.19,-27.14 52.01,-28.24 52.39,-25.8 52.38,-25.74 53.3,-22.27 53.07,-21.86 53.62,-20.06 53.33,-20.81 53.73,-19.26 54.05,-17.49 54.26,-15.86 54.37,-14.14 54.64,-11.11 54.53,-12.23 54.86,-10.65 55,-9.25 55.1,-6.59 55.07,-5.35 55.14,-7.36 55.15,-3.98 55.22,-3.19 55.17,-1.9 55.29,-0.2 55.18,2.7" fill="rgb(220, 20, 60)" stroke="black" stroke-width="1.6666666666666665" stroke-linejoin="round" filter="url(#fuzzy)" />
    <g transform="translate(26.79 -22.88)">
      <polyline id="rightCountour" points="-31.87,-13.84 -31.68,-14.02 -31.47,-14.2 -31.23,-14.37 -30.97,-14.54 -30.68,-14.7 -30.36,-14.86 -30.02,-15.02 -29.65,-15.17 -29.26,-15.31 -28.83,-15.45 -28.38,-15.58 -27.91,-15.71 -27.4,-15.82 -26.87,-15.94 -26.32,-16.04 -25.86,-16.21 -25.35,-16.37 -24.79,-16.51 -24.18,-16.64 -23.53,-16.76 -22.83,-16.87 -22.08,-16.96 -21.3,-17.04 -20.48,-17.1 -19.62,-17.16 -18.73,-17.2 -17.8,-17.22 -16.85,-17.24 -15.88,-17.24 -14.88,-17.23 -13.87,-17.2 -12.84,-17.17 -11.8,-17.12 -10.75,-17.07 -9.69,-17 -8.63,-16.92 -7.58,-16.83 -6.52,-16.73 -5.47,-16.62 -4.43,-16.5 -3.41,-16.38 -2.39,-16.24 -1.39,-16.1 -0.41,-15.94 0.55,-15.78 1.49,-15.61 2.41,-15.43 3.3,-15.24 4.17,-15.05 5.01,-14.85 5.82,-14.64 6.61,-14.42 7.36,-14.2 8.09,-13.96 8.79,-13.72 9.45,-13.48 10.09,-13.22 10.7,-12.96 11.28,-12.69 11.83,-12.42 12.36,-12.13 12.86,-11.84 13.34,-11.54 13.79,-11.24 14.23,-10.93 14.64,-10.61 15.03,-10.28 15.4,-9.94 15.75,-9.59 16.08,-9.23 16.39,-8.87 16.69,-8.49 16.96,-8.11 17.22,-7.71 17.46,-7.31 17.68,-6.9 17.89,-6.47 18.09,-6.04 18.27,-5.6 18.94,-3.01 18.8,-2.52 18.66,-2.03 18.51,-1.53 18.35,-1.02 18.19,-0.5 18.01,0.02 17.83,0.55 17.64,1.09 17.43,1.64 17.22,2.18 17,2.74 16.76,3.3 16.52,3.86 16.26,4.42 15.99,4.99 15.71,5.56 15.42,6.14 15.11,6.72 14.79,7.3 14.45,7.88 14.09,8.46 13.72,9.04 13.33,9.61 12.93,10.18 12.5,10.73 12.06,11.28 11.59,11.81 11.11,12.33 10.61,12.83 10.08,13.31 9.54,13.78 8.97,14.22 8.38,14.63 7.77,15.02 7.15,15.38 6.5,15.71 5.83,16.01 5.14,16.28 4.43,16.5 3.71,16.7 2.97,16.85 2.2,16.96 1.43,17.03 0.63,17.06 -0.18,17.04 -1,16.98 -1.83,16.87 -2.68,16.72 -3.54,16.51 -4.4,16.26 -5.28,15.97 -6.16,15.62 -7.04,15.22 -7.93,14.78 -8.82,14.29 -9.71,13.76 -10.61,13.18 -11.49,12.55 -12.38,11.88 -13.26,11.18 -14.13,10.43 -14.99,9.65 -15.84,8.83 -16.67,7.99 -17.41,7.4 -18.13,6.8 -18.85,6.18 -19.55,5.55 -20.25,4.91 -20.93,4.26 -21.6,3.61 -22.26,2.94 -22.9,2.28 -23.53,1.61 -24.14,0.94 -24.73,0.28 -25.31,-0.38 -25.86,-1.03 -26.39,-1.66" fill="white" stroke="white" stroke-width="0" stroke-linejoin="round" filter="url(#fuzzy)" />
    </g>
    <g transform="translate(-23.64 -23.689999999999998)">
      <polyline id="leftCountour" points="30.45,-13.21 30.25,-13.33 30.02,-13.44 29.77,-13.56 29.49,-13.67 29.19,-13.78 28.87,-13.89 28.52,-13.99 28.14,-14.1 27.74,-14.19 27.31,-14.29 26.86,-14.38 26.38,-14.47 25.87,-14.56 25.34,-14.64 24.79,-14.72 24.33,-14.83 23.82,-14.95 23.26,-15.05 22.65,-15.15 22,-15.23 21.3,-15.31 20.57,-15.39 19.79,-15.45 18.97,-15.5 18.12,-15.55 17.23,-15.59 16.32,-15.62 15.38,-15.64 14.41,-15.65 13.42,-15.66 12.42,-15.65 11.4,-15.64 10.37,-15.62 9.33,-15.59 8.28,-15.55 7.23,-15.5 6.19,-15.45 5.14,-15.39 4.1,-15.32 3.07,-15.24 2.05,-15.15 1.04,-15.06 0.05,-14.96 -0.93,-14.85 -1.88,-14.73 -2.82,-14.61 -3.73,-14.47 -4.62,-14.33 -5.48,-14.18 -6.32,-14.03 -7.13,-13.86 -7.91,-13.69 -8.67,-13.51 -9.39,-13.32 -10.09,-13.13 -10.76,-12.92 -11.4,-12.71 -12.01,-12.49 -12.59,-12.26 -13.15,-12.03 -13.68,-11.78 -14.18,-11.53 -14.66,-11.27 -15.12,-11.01 -15.56,-10.73 -15.98,-10.45 -16.37,-10.16 -16.75,-9.86 -17.11,-9.55 -17.44,-9.23 -17.76,-8.9 -18.06,-8.56 -18.34,-8.21 -18.61,-7.85 -18.85,-7.49 -19.09,-7.11 -19.3,-6.72 -19.51,-6.33 -19.7,-5.92 -20.08,-2.01 -19.91,-1.51 -19.74,-1.01 -19.56,-0.49 -19.37,0.03 -19.17,0.55 -18.96,1.08 -18.74,1.61 -18.51,2.14 -18.26,2.68 -18.01,3.22 -17.74,3.76 -17.45,4.3 -17.16,4.84 -16.84,5.38 -16.52,5.91 -16.18,6.45 -15.83,6.99 -15.46,7.53 -15.07,8.06 -14.66,8.59 -14.24,9.12 -13.8,9.63 -13.33,10.13 -12.85,10.62 -12.34,11.1 -11.82,11.56 -11.27,12 -10.7,12.42 -10.11,12.81 -9.5,13.19 -8.86,13.54 -8.21,13.86 -7.53,14.16 -6.84,14.42 -6.12,14.65 -5.38,14.85 -4.63,15.02 -3.86,15.15 -3.07,15.24 -2.26,15.3 -1.45,15.32 -0.61,15.3 0.23,15.24 1.09,15.14 1.95,15 2.82,14.82 3.7,14.6 4.59,14.34 5.47,14.05 6.36,13.71 7.25,13.33 8.14,12.92 9.02,12.47 9.89,11.98 10.76,11.46 11.62,10.9 12.47,10.32 13.3,9.7 14.12,9.06 14.93,8.39 15.71,7.7 16.48,6.99 17.23,6.26 17.95,5.51 18.62,4.95 19.29,4.38 19.94,3.81 20.57,3.23 21.19,2.64 21.8,2.05 22.39,1.46 22.96,0.87 23.52,0.28 24.06,-0.31 24.58,-0.89 25.08,-1.47 25.56,-2.03 26.02,-2.59 26.46,-3.13" fill="white" stroke="white" stroke-width="0" stroke-linejoin="round" filter="url(#fuzzy)" />
    </g>
    <g transform="translate(26.79 -22.88)">
      <polyline id="rightUpper" points="-32.69,-12.05 -32.67,-12.22 -32.64,-12.39 -32.61,-12.57 -32.55,-12.75 -32.49,-12.93 -32.4,-13.11 -32.3,-13.3 -32.18,-13.48 -32.04,-13.66 -31.87,-13.84 -31.68,-14.02 -31.47,-14.2 -31.23,-14.37 -30.97,-14.54 -30.68,-14.7 -30.36,-14.86 -30.02,-15.02 -29.65,-15.17 -29.26,-15.31 -28.83,-15.45 -28.38,-15.58 -27.91,-15.71 -27.4,-15.82 -26.87,-15.94 -26.32,-16.04 -25.86,-16.21 -25.35,-16.37 -24.79,-16.51 -24.18,-16.64 -23.53,-16.76 -22.83,-16.87 -22.08,-16.96 -21.3,-17.04 -20.48,-17.1 -19.62,-17.16 -18.73,-17.2 -17.8,-17.22 -16.85,-17.24 -15.88,-17.24 -14.88,-17.23 -13.87,-17.2 -12.84,-17.17 -11.8,-17.12 -10.75,-17.07 -9.69,-17 -8.63,-16.92 -7.58,-16.83 -6.52,-16.73 -5.47,-16.62 -4.43,-16.5 -3.41,-16.38 -2.39,-16.24 -1.39,-16.1 -0.41,-15.94 0.55,-15.78 1.49,-15.61 2.41,-15.43 3.3,-15.24 4.17,-15.05 5.01,-14.85 5.82,-14.64 6.61,-14.42 7.36,-14.2 8.09,-13.96 8.79,-13.72 9.45,-13.48 10.09,-13.22 10.7,-12.96 11.28,-12.69 11.83,-12.42 12.36,-12.13 12.86,-11.84 13.34,-11.54 13.79,-11.24 14.23,-10.93 14.64,-10.61 15.03,-10.28 15.4,-9.94 15.75,-9.59 16.08,-9.23 16.39,-8.87 16.69,-8.49 16.96,-8.11 17.22,-7.71 17.46,-7.31 17.68,-6.9 17.89,-6.47 18.09,-6.04 18.27,-5.6 18.43,-5.15 18.59,-4.69 18.73,-4.22 18.86,-3.74 18.98,-3.25 19.09,-2.75 19.19,-2.24 19.28,-1.73 19.36,-1.2 19.43,-0.67" fill="none" stroke="black" stroke-width="1.6666666666666665" stroke-linejoin="round" filter="url(#fuzzy)" />
      <polyline id="rightLower" points="-30.21,-6.62 -29.97,-6.3 -29.69,-5.92 -29.38,-5.5 -29.04,-5.04 -28.67,-4.55 -28.26,-4.02 -27.83,-3.47 -27.38,-2.89 -26.89,-2.28 -26.39,-1.66 -25.86,-1.03 -25.31,-0.38 -24.73,0.28 -24.14,0.94 -23.53,1.61 -22.9,2.28 -22.26,2.94 -21.6,3.61 -20.93,4.26 -20.25,4.91 -19.55,5.55 -18.85,6.18 -18.13,6.8 -17.41,7.4 -16.67,7.99 -15.84,8.83 -14.99,9.65 -14.13,10.43 -13.26,11.18 -12.38,11.88 -11.49,12.55 -10.61,13.18 -9.71,13.76 -8.82,14.29 -7.93,14.78 -7.04,15.22 -6.16,15.62 -5.28,15.97 -4.4,16.26 -3.54,16.51 -2.68,16.72 -1.83,16.87 -1,16.98 -0.18,17.04 0.63,17.06 1.43,17.03 2.2,16.96 2.97,16.85 3.71,16.7 4.43,16.5 5.14,16.28 5.83,16.01 6.5,15.71 7.15,15.38 7.77,15.02 8.38,14.63 8.97,14.22 9.54,13.78 10.08,13.31 10.61,12.83 11.11,12.33 11.59,11.81 12.06,11.28 12.5,10.73 12.93,10.18 13.33,9.61 13.72,9.04 14.09,8.46 14.45,7.88 14.79,7.3 15.11,6.72 15.42,6.14 15.71,5.56 15.99,4.99 16.26,4.42 16.52,3.86 16.76,3.3 17,2.74 17.22,2.18 17.43,1.64 17.64,1.09 17.83,0.55 18.01,0.02 18.19,-0.5 18.35,-1.02 18.51,-1.53 18.66,-2.03 18.8,-2.52 18.94,-3.01 19.07,-3.48 19.19,-3.95 19.31,-4.4 19.41,-4.85 19.52,-5.28 19.62,-5.71 19.71,-6.12 19.8,-6.53 19.88,-6.93 19.96,-7.31" fill="none" stroke="black" stroke-width="2.2222222222222223" stroke-linejoin="round" filter="url(#fuzzy)" />
      <circle r="4.284" cx="-9.971945073191929" cy="2.6358304477423804" stroke="black" fill="none" stroke-width="1.0" filter="url(#fuzzy)" clip-path="url(#rightEyeClipPath)" /><circle r="4.638" cx="-8.851945073191928" cy="0.28083044774238" stroke="black" fill="none" stroke-width="1.0" filter="url(#fuzzy)" clip-path="url(#rightEyeClipPath)" /><circle r="4.196" cx="-6.411945073191928" cy="0.10583044774238015" stroke="black" fill="none" stroke-width="1.0" filter="url(#fuzzy)" clip-path="url(#rightEyeClipPath)" /><circle r="3.108" cx="-7.741945073191928" cy="2.7108304477423806" stroke="black" fill="none" stroke-width="1.0" filter="url(#fuzzy)" clip-path="url(#rightEyeClipPath)" /><circle r="3.576" cx="-7.281945073191929" cy="-0.014169552257619955" stroke="black" fill="none" stroke-width="1.0" filter="url(#fuzzy)" clip-path="url(#rightEyeClipPath)" /><circle r="3" cx="-9.40694507319193" cy="2.2558304477423796" stroke="black" fill="none" stroke-width="1.0" filter="url(#fuzzy)" clip-path="url(#rightEyeClipPath)" /><circle r="3.228" cx="-7.306945073191929" cy="-0.30416955225762" stroke="black" fill="none" stroke-width="1.0" filter="url(#fuzzy)" clip-path="url(#rightEyeClipPath)" /><circle r="3.874" cx="-8.46694507319193" cy="2.4758304477423803" stroke="black" fill="none" stroke-width="1.0" filter="url(#fuzzy)" clip-path="url(#rightEyeClipPath)" /><circle r="3.308" cx="-7.206945073191929" cy="-1.26416955225762" stroke="black" fill="none" stroke-width="1.0" filter="url(#fuzzy)" clip-path="url(#rightEyeClipPath)" /><circle r="3.61" cx="-5.366945073191929" cy="2.5058304477423805" stroke="black" fill="none" stroke-width="1.0" filter="url(#fuzzy)" clip-path="url(#rightEyeClipPath)" />
      </g>
    <g transform="translate(-23.64 -23.689999999999998)">
      <polyline id="leftUpper" points="31.53,-12.09 31.48,-12.19 31.42,-12.3 31.35,-12.41 31.27,-12.52 31.18,-12.63 31.07,-12.75 30.94,-12.86 30.8,-12.98 30.64,-13.1 30.45,-13.21 30.25,-13.33 30.02,-13.44 29.77,-13.56 29.49,-13.67 29.19,-13.78 28.87,-13.89 28.52,-13.99 28.14,-14.1 27.74,-14.19 27.31,-14.29 26.86,-14.38 26.38,-14.47 25.87,-14.56 25.34,-14.64 24.79,-14.72 24.33,-14.83 23.82,-14.95 23.26,-15.05 22.65,-15.15 22,-15.23 21.3,-15.31 20.57,-15.39 19.79,-15.45 18.97,-15.5 18.12,-15.55 17.23,-15.59 16.32,-15.62 15.38,-15.64 14.41,-15.65 13.42,-15.66 12.42,-15.65 11.4,-15.64 10.37,-15.62 9.33,-15.59 8.28,-15.55 7.23,-15.5 6.19,-15.45 5.14,-15.39 4.1,-15.32 3.07,-15.24 2.05,-15.15 1.04,-15.06 0.05,-14.96 -0.93,-14.85 -1.88,-14.73 -2.82,-14.61 -3.73,-14.47 -4.62,-14.33 -5.48,-14.18 -6.32,-14.03 -7.13,-13.86 -7.91,-13.69 -8.67,-13.51 -9.39,-13.32 -10.09,-13.13 -10.76,-12.92 -11.4,-12.71 -12.01,-12.49 -12.59,-12.26 -13.15,-12.03 -13.68,-11.78 -14.18,-11.53 -14.66,-11.27 -15.12,-11.01 -15.56,-10.73 -15.98,-10.45 -16.37,-10.16 -16.75,-9.86 -17.11,-9.55 -17.44,-9.23 -17.76,-8.9 -18.06,-8.56 -18.34,-8.21 -18.61,-7.85 -18.85,-7.49 -19.09,-7.11 -19.3,-6.72 -19.51,-6.33 -19.7,-5.92 -19.87,-5.51 -20.03,-5.08 -20.19,-4.65 -20.33,-4.21 -20.45,-3.75 -20.57,-3.29 -20.68,-2.82 -20.78,-2.35 -20.87,-1.86 -20.96,-1.36" fill="none" stroke="black" stroke-width="2.2222222222222223" stroke-linejoin="round" filter="url(#fuzzy)" />
      <polyline id="leftLower" points="29.54,-7.24 29.34,-6.97 29.12,-6.67 28.87,-6.33 28.6,-5.95 28.3,-5.54 27.98,-5.11 27.64,-4.64 27.26,-4.16 26.87,-3.65 26.46,-3.13 26.02,-2.59 25.56,-2.03 25.08,-1.47 24.58,-0.89 24.06,-0.31 23.52,0.28 22.96,0.87 22.39,1.46 21.8,2.05 21.19,2.64 20.57,3.23 19.94,3.81 19.29,4.38 18.62,4.95 17.95,5.51 17.23,6.26 16.48,6.99 15.71,7.7 14.93,8.39 14.12,9.06 13.3,9.7 12.47,10.32 11.62,10.9 10.76,11.46 9.89,11.98 9.02,12.47 8.14,12.92 7.25,13.33 6.36,13.71 5.47,14.05 4.59,14.34 3.7,14.6 2.82,14.82 1.95,15 1.09,15.14 0.23,15.24 -0.61,15.3 -1.45,15.32 -2.26,15.3 -3.07,15.24 -3.86,15.15 -4.63,15.02 -5.38,14.85 -6.12,14.65 -6.84,14.42 -7.53,14.16 -8.21,13.86 -8.86,13.54 -9.5,13.19 -10.11,12.81 -10.7,12.42 -11.27,12 -11.82,11.56 -12.34,11.1 -12.85,10.62 -13.33,10.13 -13.8,9.63 -14.24,9.12 -14.66,8.59 -15.07,8.06 -15.46,7.53 -15.83,6.99 -16.18,6.45 -16.52,5.91 -16.84,5.38 -17.16,4.84 -17.45,4.3 -17.74,3.76 -18.01,3.22 -18.26,2.68 -18.51,2.14 -18.74,1.61 -18.96,1.08 -19.17,0.55 -19.37,0.03 -19.56,-0.49 -19.74,-1.01 -19.91,-1.51 -20.08,-2.01 -20.23,-2.5 -20.37,-2.99 -20.51,-3.46 -20.64,-3.93 -20.76,-4.39 -20.88,-4.84 -20.99,-5.28 -21.09,-5.72 -21.19,-6.14 -21.28,-6.56" fill="none" stroke="black" stroke-width="2.2222222222222223" stroke-linejoin="round" filter="url(#fuzzy)" />
      <circle r="3.936" cx="0.3732169790142956" cy="7.650141050900984" stroke="black" fill="none" stroke-width="1.0" filter="url(#fuzzy)" clip-path="url(#leftEyeClipPath)" /><circle r="4.97" cx="1.613216979014295" cy="5.695141050900984" stroke="black" fill="none" stroke-width="1.0" filter="url(#fuzzy)" clip-path="url(#leftEyeClipPath)" /><circle r="3.582" cx="1.733216979014296" cy="8.165141050900985" stroke="black" fill="none" stroke-width="1.0" filter="url(#fuzzy)" clip-path="url(#leftEyeClipPath)" /><circle r="3.014" cx="2.6182169790142957" cy="7.495141050900983" stroke="black" fill="none" stroke-width="1.0" filter="url(#fuzzy)" clip-path="url(#leftEyeClipPath)" /><circle r="4.7" cx="3.8732169790142956" cy="7.070141050900984" stroke="black" fill="none" stroke-width="1.0" filter="url(#fuzzy)" clip-path="url(#leftEyeClipPath)" /><circle r="4.3420000000000005" cx="1.4482169790142958" cy="6.710141050900983" stroke="black" fill="none" stroke-width="1.0" filter="url(#fuzzy)" clip-path="url(#leftEyeClipPath)" /><circle r="4.318" cx="3.6632169790142957" cy="8.185141050900985" stroke="black" fill="none" stroke-width="1.0" filter="url(#fuzzy)" clip-path="url(#leftEyeClipPath)" /><circle r="3.866" cx="2.818216979014295" cy="8.315141050900984" stroke="black" fill="none" stroke-width="1.0" filter="url(#fuzzy)" clip-path="url(#leftEyeClipPath)" /><circle r="4.872" cx="2.5932169790142954" cy="6.145141050900984" stroke="black" fill="none" stroke-width="1.0" filter="url(#fuzzy)" clip-path="url(#leftEyeClipPath)" /><circle r="4.088" cx="2.6232169790142947" cy="5.995141050900983" stroke="black" fill="none" stroke-width="1.0" filter="url(#fuzzy)" clip-path="url(#leftEyeClipPath)" />
    </g>
    <g id="hairs">
      <polyline points="8.28,-81.06 19.12,-66.26 12.38,-68.83 6.4,-71.33 1.27,-71.62 -2.94,-70.52 -5.03,-69 -5.16,-67.88 -5.13,-67.66 -6.57,-68.34 -9.46,-69.51 -12.33,-70.64 -13.61,-71.21 -12.91,-70.88 -11.18,-69.54 -9.55,-67.38 -7.23,-64.72 0.62,-61.66 20.57,-58.38 40.76,-55.34" fill="none" stroke="rgb(44, 34, 43)" stroke-width="2" stroke-linejoin="round" filter="url(#fuzzy)" /><polyline points="18.9,-76.96 27.51,-66.95 34.2,-58.63 34.63,-55.77 28.84,-56.49 19.09,-59.64 9.52,-63.88 3.76,-67.38 2.72,-68.82 4.39,-68.19 5.51,-66.79 4.1,-66.36 0.93,-67.97 -1.48,-71.3 -1.72,-74.88 -1.53,-77.04 -4.79,-77.05 -23.06,-74.46" fill="none" stroke="rgb(44, 34, 43)" stroke-width="2" stroke-linejoin="round" filter="url(#fuzzy)" /><polyline points="14.51,-79.17 0.45,-79.42 -3.25,-77.98 -5.83,-74.35 -6.78,-69.98 -4.84,-65.83 0.32,-62.19 7.39,-59.54 13.78,-58.62 17.22,-59.83 17.29,-62.68 15.61,-65.81 14.56,-67.77 15.58,-67.94 18.23,-66.81 20.85,-65.57 22.12,-65.08 22.02,-65.02 21.2,-64.77 21.22,-64.77 39.66,-57.23" fill="none" stroke="rgb(44, 34, 43)" stroke-width="2" stroke-linejoin="round" filter="url(#fuzzy)" /><polyline points="-3.31,-82.16 8.71,-75.02 2.87,-74.71 -0.29,-73.71 2.91,-71.74 9.49,-69.53 15.24,-67.34 17.36,-65.3 15.15,-63.74 9.69,-63.08 3.08,-63.43 -2.42,-64.44 -5.19,-65.53 -4.88,-66.38 -2.49,-67.19 0.17,-68.49 1.68,-70.61 1.91,-73.25 2.03,-75.44 3.1,-76.07 4.47,-74.26 4.49,-69.37 7.18,-61.22 43.31,-51.19" fill="none" stroke="rgb(44, 34, 43)" stroke-width="2" stroke-linejoin="round" filter="url(#fuzzy)" /><polyline points="45.47,-46.57 23.25,-65.96 10.86,-71.28 10.57,-68.7 14.94,-64.25 17.9,-61.3 18.95,-59.98 20.28,-59.3 22.72,-58.99 24.74,-59.74 24.5,-61.98 22.1,-65.25 19.56,-68.64 19.13,-71.32 23.19,-71.42 33.79,-64.99" fill="none" stroke="rgb(44, 34, 43)" stroke-width="2" stroke-linejoin="round" filter="url(#fuzzy)" /><polyline points="50.2,-34 13.66,-59.78 -2.98,-62.27 -2.86,-60.45 3.19,-61.38 8.66,-64.74 12.45,-67.92 15.9,-69.05 20.15,-67.72 25.36,-64.46 30.87,-60.08 35.91,-55.32 39.8,-50.97 42.12,-47.96 42.63,-47.12 41.49,-48.69 39.38,-51.91 37.39,-55.22 36.31,-57.28 35.8,-58.16 34.28,-59.4 29.04,-63.42 10.04,-80.85" fill="none" stroke="rgb(44, 34, 43)" stroke-width="2" stroke-linejoin="round" filter="url(#fuzzy)" /><polyline points="31.46,-67.24 14.44,-70.83 8.26,-65.79 10.18,-60.27 16.1,-56.43 22.78,-54.73 27.17,-55.58 27.64,-58.77 24.51,-63.16 19.3,-67.25 13.59,-69.99 8.4,-71.14 4.33,-71.08 1.74,-70.33 0.39,-69.4 -0.64,-68.86 -1.82,-69.38 -0.69,-70.67 9.15,-68.69 41.67,-53.43" fill="none" stroke="rgb(44, 34, 43)" stroke-width="2" stroke-linejoin="round" filter="url(#fuzzy)" /><polyline points="-31.97,-66.81 -9.23,-68.71 10.68,-66.36 21.58,-64.37 24.43,-63.98 20.33,-65.64 11.53,-68.42 1.31,-70.58 -7.13,-70.69 -11.25,-68.41 -9.31,-64.68 -1.02,-61.37 11.17,-60.41 21.9,-62.73 25.54,-67.47 19.6,-73.05 0.33,-82" fill="none" stroke="rgb(44, 34, 43)" stroke-width="2" stroke-linejoin="round" filter="url(#fuzzy)" /><polyline points="-20.24,-76.4 8.57,-72.96 12.28,-75.66 9.52,-78.22 5.61,-79.46 2.3,-79.41 0.88,-78.11 2.27,-75.61 6.41,-72.21 11.96,-68.73 16.54,-66.32 17.74,-65.82 14.67,-66.95 9.27,-68.45 5.78,-69.38 6.8,-70.46 5.3,-73.06 -20.63,-76.2" fill="none" stroke="rgb(44, 34, 43)" stroke-width="2" stroke-linejoin="round" filter="url(#fuzzy)" /><polyline points="48.98,-37.65 11.87,-55.49 12,-63.42 17.27,-64.85 21.98,-62.88 24.57,-61.04 24.25,-61.37 21.17,-63.96 16.2,-67.79 10.39,-71.67 4.57,-74.7 -0.62,-76.44 -4.62,-76.86 -6.84,-76.22 -6.87,-74.97 -4.88,-73.6 -1.82,-72.5 0.88,-71.83 2.24,-71.4 2.67,-70.84 3.89,-69.98 7.22,-69.27 10.99,-69.41 8.82,-70.6 -17.54,-77.65" fill="none" stroke="rgb(44, 34, 43)" stroke-width="2" stroke-linejoin="round" filter="url(#fuzzy)" /><polyline points="-4.93,-81.97 -20.11,-65.65 -8.18,-61.61 4.87,-58.6 9.62,-55.96 7.18,-54.42 2.01,-54.61 -1.64,-56.64 -1.55,-59.81 1.89,-62.9 6.34,-64.72 9.03,-64.86 8.27,-63.8 4.31,-62.52 -0.77,-61.62 -3.69,-60.71 -1.63,-58.78 5.43,-55.81 16,-51.98 50.2,-34" fill="none" stroke="rgb(44, 34, 43)" stroke-width="2" stroke-linejoin="round" filter="url(#fuzzy)" /><polyline points="-27.23,-71.35 22.25,-46.69 36.55,-43.79 35.14,-49.78 28.72,-57.59 23.51,-63.31 21.75,-65.6 22.8,-64.94 24.75,-62.73 25.89,-60.42 25.42,-59 23.45,-58.8 20.56,-59.65 17.35,-61.05 14.3,-62.34 11.94,-62.87 10.73,-62.26 10.29,-60.72 8.62,-59.18 2.75,-59 -8.02,-61.32 -18.52,-66.33 -20.76,-73.01 -20.63,-76.2" fill="none" stroke="rgb(44, 34, 43)" stroke-width="2" stroke-linejoin="round" filter="url(#fuzzy)" /><polyline points="46.21,-44.97 20.74,-63.64 13.06,-67.21 10.63,-67.15 12.96,-64.8 18.61,-61.13 24.46,-58.52 27.5,-59.09 26.6,-62.93 23.1,-67.99 19.77,-71.49 19.26,-71.42 22.78,-67.02 30.13,-58.26 40.37,-46.49 46.21,-44.97" fill="none" stroke="rgb(44, 34, 43)" stroke-width="2" stroke-linejoin="round" filter="url(#fuzzy)" /><polyline points="14.51,-79.17 24.28,-66.99 19.55,-64.41 19.61,-60.34 24.67,-55.79 29.15,-53.32 29.7,-53.5 26.57,-55.11 21.78,-56.68 17,-57.74 12.5,-58.96 7.88,-61.32 3.49,-65.09 1.15,-69.45 2.74,-72.98 7.54,-74.65 10.29,-74.49 1.43,-72.63 -31.97,-66.81" fill="none" stroke="rgb(44, 34, 43)" stroke-width="2" stroke-linejoin="round" filter="url(#fuzzy)" /><polyline points="5.43,-81.75 13.83,-71.14 19.16,-64.45 15.15,-65.15 7.29,-67.26 -0.2,-68.2 -5.39,-68.09 -7.85,-67.74 -7.88,-67.75 -6.08,-68.34 -3,-69.46 0.95,-70.77 5.39,-71.83 9.77,-72.34 13.24,-72.32 14.84,-71.98 13.89,-71.52 10.16,-70.97 3.73,-70.39 -5.41,-69.87 -16.88,-68.79 -28.98,-65.36 -35.82,-62.65" fill="none" stroke="rgb(44, 34, 43)" stroke-width="2" stroke-linejoin="round" filter="url(#fuzzy)" /><polyline points="-11.36,-80.12 11.19,-72.13 18.89,-66.45 14.77,-66.64 9.21,-68.81 7.74,-70.57 10.2,-71.39 14.13,-71.47 17.51,-70.96 19.68,-69.8 20.98,-67.9 22.01,-65.33 23.15,-62.47 24.42,-59.88 25.67,-58.05 26.7,-57.18 27.35,-57.06 27.31,-57.26 25.84,-57.37 21.77,-57.33 14.52,-57.14 6.78,-56.17 6.82,-53.3 23.26,-50.62 37.69,-60.3" fill="none" stroke="rgb(44, 34, 43)" stroke-width="2" stroke-linejoin="round" filter="url(#fuzzy)" /><polyline points="30.13,-68.88 6.4,-75.37 -3.28,-75.44 0.77,-72.19 10.35,-67.32 17.38,-63.55 18.49,-62.64 15.36,-64.13 11.73,-66.03 9.85,-66.38 9.09,-64.32 7.12,-60.59 2.21,-57.61 -3.89,-58.25 0.05,-61.26 40.76,-55.34" fill="none" stroke="rgb(44, 34, 43)" stroke-width="2" stroke-linejoin="round" filter="url(#fuzzy)" /><polyline points="-32.03,-67.18 5.09,-67.47 23.67,-61.18 26.11,-58.79 20.6,-59.88 16.13,-61.31 17.18,-61.06 22.74,-59.09 29.02,-56.56 32.41,-54.92 30.79,-55.46 23.79,-58.89 13.96,-64.11 8.82,-67.35 19.52,-63.08 46.8,-43.69" fill="none" stroke="rgb(44, 34, 43)" stroke-width="2" stroke-linejoin="round" filter="url(#fuzzy)" /><polyline points="30.13,-68.88 10.04,-72.4 13.4,-72.93 16.91,-73.45 16.52,-74.19 13.43,-74.76 9.49,-75.03 5.72,-75.14 2.36,-75.23 -0.49,-75.19 -2.43,-74.65 -2.91,-73.25 -1.79,-70.93 0.33,-68.2 2.21,-65.98 2.52,-65.26 0.55,-66.62 -3.19,-69.89 -7.12,-74.1 -9.4,-77.89 -9.25,-80.25 -7.75,-81.22 -8.13,-81.36" fill="none" stroke="rgb(44, 34, 43)" stroke-width="2" stroke-linejoin="round" filter="url(#fuzzy)" /><polyline points="-38.48,-59.03 -5.34,-67.44 4.21,-68.01 7.1,-67.76 7.4,-68.58 6.83,-69.87 6.28,-71.14 6.14,-72.32 6.13,-73.38 5.41,-74.2 3.2,-74.67 -0.47,-74.82 -4.59,-74.72 -7.71,-74.41 -8.69,-73.79 -7.46,-72.72 -5.07,-71.22 -3.16,-69.65 -2.57,-68.62 -2.39,-68.9 -1.54,-71.36 -3.87,-76.29 -13.4,-79.6" fill="none" stroke="rgb(44, 34, 43)" stroke-width="2" stroke-linejoin="round" filter="url(#fuzzy)" /><polyline points="8.28,-81.06 11.18,-73.84 7.56,-67.55 -0.55,-65.22 -4,-64.16 -0.56,-63.59 7.04,-63.49 15.18,-63.6 21.32,-63.59 24.35,-63.55 24.3,-63.83 22.07,-64.63 19.04,-65.69 16.44,-66.51 14.92,-66.82 14.54,-66.84 15.27,-66.95 17.35,-67.19 20.6,-67.27 23.42,-67.31 23.13,-68.24 17.29,-71.1 -4.93,-81.97" fill="none" stroke="rgb(44, 34, 43)" stroke-width="2" stroke-linejoin="round" filter="url(#fuzzy)" /><polyline points="0.33,-82 1.68,-82.03 3.41,-81.93 5.24,-81.71 7.05,-81.4 8.83,-81 10.59,-80.53 12.36,-79.99 14.19,-79.38 16.12,-78.72 18.19,-78 20.42,-77.23 22.79,-76.39 25.24,-75.49 27.72,-74.5 30.14,-73.43 32.5,-72.27 34.81,-71.03 37.11,-69.73 39.44,-68.37 41.85,-66.97 44.35,-65.53 46.95,-64.03 49.67,-62.47 52.5,-60.82 55.4,-59.07 58.31,-57.21 61.15,-55.27 63.87,-53.28 66.39,-51.31 68.67,-49.42 70.72,-47.67 72.65,-46.03 74.68,-44.36 77.06,-42.44 79.91,-40.15 82.56,-37.65" fill="none" stroke="rgb(44, 34, 43)" stroke-width="2" stroke-linejoin="round" filter="url(#fuzzy)" /><polyline points="0.33,-82 1.8,-82.03 3.53,-81.93 5.49,-81.72 7.59,-81.41 9.71,-81.01 11.77,-80.55 13.76,-80.01 15.7,-79.41 17.67,-78.75 19.69,-78.04 21.8,-77.27 23.97,-76.45 26.17,-75.56 28.34,-74.58 30.47,-73.53 32.61,-72.38 34.84,-71.14 37.28,-69.84 40,-68.49 42.98,-67.1 46.14,-65.68 49.33,-64.22 52.41,-62.7 55.26,-61.09 57.89,-59.36 60.4,-57.51 62.97,-55.51 65.75,-53.41 68.84,-51.25 72.39,-49.14 76.53,-47.32 79.52,-46.27" fill="none" stroke="rgb(44, 34, 43)" stroke-width="2" stroke-linejoin="round" filter="url(#fuzzy)" /><polyline points="-0.05,-82.3 1.24,-82.22 2.92,-82.06 4.67,-81.87 6.5,-81.64 8.39,-81.35 10.31,-80.97 12.27,-80.5 14.37,-79.94 16.68,-79.28 19.23,-78.53 21.92,-77.7 24.64,-76.82 27.25,-75.9 29.67,-74.96 31.9,-73.97 34,-72.94 36.04,-71.83 38.04,-70.65 40.01,-69.46 42,-68.33 44.24,-67.29 47.08,-66.23 50.64,-64.9" fill="none" stroke="rgb(44, 34, 43)" stroke-width="2" stroke-linejoin="round" filter="url(#fuzzy)" /><polyline points="-1.7,-82.14 0.04,-82.07 1.86,-82.02 3.95,-81.9 6.16,-81.68 8.3,-81.38 10.36,-80.99 12.44,-80.53 14.6,-80 16.88,-79.4 19.23,-78.75 21.61,-78.04 23.95,-77.27 26.25,-76.45 28.6,-75.56 31.14,-74.59 34.04,-73.53 37.41,-72.38 41.17,-71.15 45.12,-69.85 48.95,-68.5 52.36,-67.11 55.2,-65.7 57.48,-64.24 59.4,-62.71 61.24,-61.1 63.34,-59.37 66.05,-57.51 69.63,-55.52 74.13,-53.42 79.21,-51.25 84.16,-49.15 88.37,-47.32 92.63,-46.27" fill="none" stroke="rgb(44, 34, 43)" stroke-width="2" stroke-linejoin="round" filter="url(#fuzzy)" /><polyline points="-1.7,-82.14 -0.08,-82.07 1.33,-82.02 2.88,-81.9 4.54,-81.69 6.17,-81.4 7.67,-81.02 8.98,-80.56 10.12,-80.04 11.15,-79.45 12.12,-78.8 13.08,-78.1 14.04,-77.35 14.97,-76.55 15.88,-75.68 16.78,-74.73 17.72,-73.7 18.71,-72.57 19.69,-71.34 20.57,-70.04 21.24,-68.68 21.61,-67.31 21.71,-65.93 21.63,-64.54 21.47,-63.11 21.22,-61.57 20.75,-59.89 20.02,-58.24 19.12,-57.23" fill="none" stroke="rgb(44, 34, 43)" stroke-width="2" stroke-linejoin="round" filter="url(#fuzzy)" /><polyline points="-3.2,-81.76 -1.68,-81.97 0.14,-82.02 2.19,-81.99 4.3,-81.88 6.33,-81.69 8.19,-81.41 9.96,-81.05 11.78,-80.61 13.78,-80.1 16.07,-79.53 18.7,-78.91 21.67,-78.23 24.94,-77.5 28.48,-76.72 32.33,-75.9 36.61,-75.01 41.41,-74.03 46.7,-72.94 52.17,-71.73 57.46,-70.4 62.57,-68.94 68.05,-67.42 73.52,-66.08" fill="none" stroke="rgb(44, 34, 43)" stroke-width="2" stroke-linejoin="round" filter="url(#fuzzy)" /><polyline points="-4.6,-81.85 -2.98,-82.07 -0.98,-82.16 1.02,-82.13 3.09,-82.02 5.3,-81.85 7.61,-81.62 9.97,-81.33 12.34,-80.96 14.69,-80.5 17.04,-79.95 19.42,-79.3 21.88,-78.56 24.45,-77.75 27.17,-76.87 30.07,-75.96 33.2,-75.02 36.55,-74.04 40.1,-73.01 43.81,-71.9 47.59,-70.71 51.36,-69.48 55.01,-68.35 58.77,-67.43 64,-66.43" fill="none" stroke="rgb(44, 34, 43)" stroke-width="2" stroke-linejoin="round" filter="url(#fuzzy)" /><polyline points="-4.6,-81.85 -2.89,-82.07 -1.02,-82.16 0.75,-82.12 2.46,-82.01 4.17,-81.84 5.89,-81.61 7.58,-81.3 9.26,-80.92 10.94,-80.44 12.65,-79.88 14.42,-79.22 16.26,-78.47 18.17,-77.65 20.1,-76.77 22.03,-75.85 23.9,-74.89 25.7,-73.88 27.44,-72.83 29.15,-71.72 30.87,-70.56 32.59,-69.37 34.3,-68.16 35.96,-66.89 37.57,-65.51 39.19,-63.93 40.91,-62.14 42.66,-60.35 44.14,-58.83" fill="none" stroke="rgb(44, 34, 43)" stroke-width="2" stroke-linejoin="round" filter="url(#fuzzy)" /><polyline points="-4.93,-81.97 -3.4,-81.92 -1.75,-81.97 -0.02,-82 1.78,-81.96 3.63,-81.86 5.49,-81.66 7.35,-81.39 9.2,-81.03 11.05,-80.59 12.92,-80.09 14.83,-79.52 16.82,-78.89 18.9,-78.21 21.05,-77.48 23.2,-76.7 25.32,-75.87 27.39,-74.96 29.44,-73.97 31.53,-72.87 33.68,-71.66 35.89,-70.33 38.2,-68.91 40.64,-67.46 43.17,-66.12 45.52,-64.99" fill="none" stroke="rgb(44, 34, 43)" stroke-width="2" stroke-linejoin="round" filter="url(#fuzzy)" /><polyline points="-4.93,-81.97 -3.31,-81.92 -1.67,-81.97 0.03,-81.99 1.8,-81.95 3.65,-81.83 5.52,-81.62 7.37,-81.33 9.19,-80.95 10.98,-80.5 12.78,-79.97 14.66,-79.38 16.65,-78.73 18.78,-78.02 21.02,-77.25 23.33,-76.42 25.67,-75.52 28.03,-74.55 30.39,-73.48 32.75,-72.34 35.09,-71.11 37.39,-69.81 39.62,-68.46 41.79,-67.07 43.93,-65.64 46.12,-64.16 48.43,-62.61 50.92,-60.97 53.55,-59.23 56.21,-57.37 58.74,-55.4 60.99,-53.37 62.91,-51.33 64.63,-49.4 66.37,-47.71 68.33,-46.29 70.54,-44.9 73.25,-42.54" fill="none" stroke="rgb(44, 34, 43)" stroke-width="2" stroke-linejoin="round" filter="url(#fuzzy)" /><polyline points="-6.73,-81.67 -5.18,-81.87 -3.4,-82.03 -1.3,-82.11 0.83,-82.08 2.87,-81.98 4.86,-81.81 6.85,-81.57 8.89,-81.25 10.96,-80.86 13.05,-80.37 15.15,-79.79 17.27,-79.12 19.47,-78.37 21.78,-77.55 24.21,-76.66 26.77,-75.73 29.45,-74.75 32.26,-73.72 35.21,-72.65 38.33,-71.53 41.61,-70.35 45,-69.13 48.43,-67.85 51.85,-66.5 55.3,-65.08 58.86,-63.58 62.61,-62.01 66.52,-60.39 70.42,-58.73 74.13,-57.01 77.6,-55.21 81,-53.33 84.71,-51.42 89.19,-49.45 94.69,-47" fill="none" stroke="rgb(44, 34, 43)" stroke-width="2" stroke-linejoin="round" filter="url(#fuzzy)" /><polyline points="-8.13,-81.36 -6.76,-81.62 -5.11,-81.84 -3.24,-82 -1.31,-82.07 0.58,-82.06 2.47,-81.98 4.38,-81.83 6.33,-81.61 8.29,-81.32 10.23,-80.96 12.13,-80.51 14.01,-79.96 15.89,-79.33 17.83,-78.6 19.84,-77.79 21.95,-76.93 24.17,-76.02 26.48,-75.08 28.85,-74.11 31.3,-73.1 33.82,-71.98 36.37,-70.75 38.74,-69.45 40.52,-68.33 41.49,-67.84" fill="none" stroke="rgb(44, 34, 43)" stroke-width="2" stroke-linejoin="round" filter="url(#fuzzy)" /><polyline points="-9.01,-81.05 -7.47,-81.34 -5.58,-81.62 -3.7,-81.8 -1.84,-81.91 0.08,-81.94 2.14,-81.91 4.32,-81.8 6.59,-81.61 8.91,-81.34 11.28,-80.98 13.73,-80.55 16.31,-80.05 19.05,-79.48 21.98,-78.85 25.1,-78.16 28.39,-77.42 31.85,-76.62 35.5,-75.77 39.33,-74.84 43.31,-73.82 47.34,-72.7 51.24,-71.48 54.85,-70.17 58.05,-68.81 60.88,-67.42 63.61,-66.05 66.76,-64.72 70.96,-63.38 76.46,-61.94 81.56,-60.22" fill="none" stroke="rgb(44, 34, 43)" stroke-width="2" stroke-linejoin="round" filter="url(#fuzzy)" /><polyline points="-9.73,-80.86 -8.27,-81.27 -6.78,-81.57 -5.07,-81.8 -3.15,-81.96 -1.1,-82.04 1.02,-82.03 3.17,-81.95 5.32,-81.8 7.49,-81.58 9.71,-81.28 12.1,-80.91 14.78,-80.45 17.83,-79.9 21.24,-79.25 24.91,-78.52 28.65,-77.72 32.26,-76.85 35.57,-75.93 38.56,-74.98 41.33,-73.98 44.07,-72.94 46.99,-71.83 50.16,-70.66 53.48,-69.48 56.72,-68.31 59.76,-67.15 62.92,-65.87 67.15,-64.2 73.13,-61.72" fill="none" stroke="rgb(44, 34, 43)" stroke-width="2" stroke-linejoin="round" filter="url(#fuzzy)" /><polyline points="-11.36,-80.12 -9.83,-80.73 -8.33,-81.18 -6.77,-81.51 -5.1,-81.76 -3.32,-81.92 -1.46,-82.01 0.44,-82.01 2.35,-81.93 4.29,-81.79 6.27,-81.57 8.28,-81.28 10.3,-80.91 12.32,-80.46 14.36,-79.91 16.42,-79.28 18.54,-78.55 20.75,-77.75 23.05,-76.88 25.41,-75.97 27.78,-75.02 30.12,-74.03 32.43,-72.99 34.7,-71.88 36.9,-70.7 38.92,-69.51 40.68,-68.36 42.23,-67.31 44.07,-66.24 47.15,-64.9" fill="none" stroke="rgb(44, 34, 43)" stroke-width="2" stroke-linejoin="round" filter="url(#fuzzy)" /><polyline points="-11.36,-80.12 -10.12,-80.73 -8.78,-81.18 -7.29,-81.51 -5.59,-81.76 -3.73,-81.92 -1.79,-82.01 0.16,-82.01 2.1,-81.93 4.05,-81.79 6.05,-81.57 8.17,-81.28 10.46,-80.91 12.96,-80.46 15.65,-79.91 18.47,-79.28 21.33,-78.55 24.13,-77.75 26.86,-76.88 29.56,-75.97 32.38,-75.02 35.51,-74.03 39.04,-72.99 42.94,-71.88 46.93,-70.7 50.61,-69.51 53.67,-68.36 56.19,-67.31 59.04,-66.24 64.22,-64.9" fill="none" stroke="rgb(44, 34, 43)" stroke-width="2" stroke-linejoin="round" filter="url(#fuzzy)" /><polyline points="-11.36,-80.12 -10.03,-80.73 -8.56,-81.18 -6.93,-81.51 -5.18,-81.76 -3.35,-81.93 -1.49,-82.01 0.36,-82.02 2.19,-81.95 3.99,-81.81 5.77,-81.61 7.56,-81.33 9.37,-80.98 11.25,-80.54 13.21,-80.02 15.27,-79.4 17.42,-78.68 19.62,-77.88 21.81,-77.01 23.92,-76.1 25.91,-75.18 27.8,-74.25 29.65,-73.29 31.56,-72.23 33.73,-70.92 36.87,-68.88" fill="none" stroke="rgb(44, 34, 43)" stroke-width="2" stroke-linejoin="round" filter="url(#fuzzy)" /><polyline points="-11.88,-80.35 -10.57,-80.64 -9.06,-80.97 -7.4,-81.28 -5.67,-81.54 -3.92,-81.73 -2.15,-81.86 -0.37,-81.91 1.43,-81.9 3.26,-81.81 5.11,-81.65 6.99,-81.4 8.89,-81.07 10.82,-80.67 12.78,-80.19 14.77,-79.65 16.79,-79.04 18.81,-78.38 20.8,-77.67 22.73,-76.92 24.59,-76.14 26.44,-75.31 28.4,-74.38 30.52,-73.29 32.28,-72.09" fill="none" stroke="rgb(44, 34, 43)" stroke-width="2" stroke-linejoin="round" filter="url(#fuzzy)" /><polyline points="-15.32,-78.91 -13.14,-79.77 -11.64,-80.29 -10.31,-80.73 -8.88,-81.12 -7.26,-81.44 -5.48,-81.69 -3.6,-81.86 -1.67,-81.95 0.3,-81.96 2.32,-81.9 4.4,-81.76 6.59,-81.55 8.88,-81.26 11.27,-80.9 13.72,-80.45 16.21,-79.91 18.74,-79.28 21.34,-78.56 24.05,-77.76 26.88,-76.9 29.83,-75.99 32.81,-75.04 35.79,-74.05 38.74,-73 41.72,-71.89 44.76,-70.72 47.84,-69.52 50.87,-68.37 53.77,-67.32 56.94,-66.24 61.43,-64.9" fill="none" stroke="rgb(44, 34, 43)" stroke-width="2" stroke-linejoin="round" filter="url(#fuzzy)" /><polyline points="-15.05,-79.02 -17.58,-79.6 -17.69,-80.11 -16,-80.54 -13.46,-80.91 -10.66,-81.22 -7.91,-81.48 -5.32,-81.68 -2.92,-81.8 -0.67,-81.86 1.48,-81.84 3.6,-81.74 5.77,-81.57 8.08,-81.32 10.58,-80.98 13.31,-80.57 16.24,-80.09 19.29,-79.53 22.31,-78.92 25.22,-78.25 27.98,-77.52 30.69,-76.74 33.49,-75.9 36.5,-75 39.76,-74.01 43.23,-72.91 46.85,-71.7 50.71,-70.37 54.98,-68.94 59.77,-67.48 64.74,-66.13 68.72,-64.99" fill="none" stroke="rgb(44, 34, 43)" stroke-width="2" stroke-linejoin="round" filter="url(#fuzzy)" /><polyline points="-15.05,-79.02 -14.86,-79.59 -13.53,-80.1 -12.17,-80.53 -10.89,-80.9 -9.42,-81.22 -7.62,-81.48 -5.53,-81.68 -3.27,-81.82 -0.94,-81.89 1.41,-81.89 3.79,-81.82 6.19,-81.67 8.65,-81.44 11.23,-81.14 14.02,-80.75 17.13,-80.29 20.61,-79.76 24.44,-79.17 28.47,-78.5 32.43,-77.78 36.1,-77.02 39.73,-76.3 44.58,-75.74" fill="none" stroke="rgb(44, 34, 43)" stroke-width="2" stroke-linejoin="round" filter="url(#fuzzy)" /><polyline points="-16.24,-78.48 -14.74,-79.08 -13.03,-79.69 -11.52,-80.22 -10.12,-80.67 -8.71,-81.07 -7.18,-81.4 -5.49,-81.66 -3.67,-81.86 -1.79,-81.97 0.11,-82 2.01,-81.96 3.91,-81.86 5.83,-81.68 7.79,-81.44 9.79,-81.13 11.83,-80.74 13.93,-80.27 16.13,-79.7 18.55,-79.03 21.26,-78.23 24.14,-77.34 26.11,-76.56" fill="none" stroke="rgb(44, 34, 43)" stroke-width="2" stroke-linejoin="round" filter="url(#fuzzy)" /><polyline points="-16.24,-78.48 -14.83,-79.08 -13.18,-79.7 -11.63,-80.22 -10.1,-80.68 -8.53,-81.07 -6.87,-81.4 -5.14,-81.66 -3.34,-81.84 -1.49,-81.95 0.39,-81.97 2.32,-81.92 4.28,-81.8 6.27,-81.61 8.3,-81.35 10.34,-81.02 12.43,-80.6 14.63,-80.09 17,-79.48 19.6,-78.78 22.38,-77.98 25.22,-77.11 27.99,-76.19 30.61,-75.26 33.21,-74.34 35.96,-73.42 38.36,-72.62" fill="none" stroke="rgb(44, 34, 43)" stroke-width="2" stroke-linejoin="round" filter="url(#fuzzy)" /><polyline points="54.26,-15.86 54.84,-12.48 55.5,-10.13 56.33,-8.01 57.42,-5.86 58.58,-3.57 59.57,-1.12 60.25,1.44 60.6,4.07 60.67,6.7 60.5,9.27 60.13,11.76 59.63,14.2 59.11,16.61 58.68,19.04 58.36,21.49 58.17,23.98 58.06,26.47 58.01,28.93 58.02,31.34 58.1,33.68 58.2,35.98 58.23,38.25 58.08,40.51 57.68,42.74 57.08,44.9 56.41,46.93 55.79,48.79 55.27,50.51 54.81,52.16 54.3,53.92 53.06,56.11" fill="none" stroke="rgb(44, 34, 43)" stroke-width="2" stroke-linejoin="round" filter="url(#fuzzy)" /><polyline points="-17.54,-77.99 -17.72,-78.83 -15.75,-79.49 -13.8,-80.03 -12.02,-80.48 -10.24,-80.86 -8.4,-81.19 -6.51,-81.45 -4.58,-81.66 -2.58,-81.8 -0.49,-81.87 1.72,-81.87 4.05,-81.8 6.49,-81.65 9.03,-81.42 11.69,-81.11 14.54,-80.72 17.62,-80.26 20.95,-79.73 24.48,-79.13 28.12,-78.47 31.76,-77.75 35.27,-77.01 38.51,-76.27 41.62,-75.55 45.47,-74.74" fill="none" stroke="rgb(44, 34, 43)" stroke-width="2" stroke-linejoin="round" filter="url(#fuzzy)" /><polyline points="-17.54,-77.65 -16.62,-78.37 -15.26,-79.05 -13.6,-79.66 -11.97,-80.19 -10.44,-80.65 -8.93,-81.05 -7.35,-81.37 -5.63,-81.62 -3.78,-81.8 -1.81,-81.89 0.22,-81.91 2.31,-81.85 4.46,-81.71 6.69,-81.5 9.05,-81.21 11.55,-80.84 14.19,-80.38 16.95,-79.84 19.8,-79.2 22.71,-78.48 25.7,-77.69 28.78,-76.83 31.97,-75.92 35.3,-74.95 38.77,-73.95 42.37,-72.89 46.05,-71.78 49.76,-70.63 53.37,-69.43 56.81,-68.21 60.14,-66.94 63.6,-65.55 67.49,-63.96 71.83,-62.17 76.17,-60.37 79.49,-58.83" fill="none" stroke="rgb(44, 34, 43)" stroke-width="2" stroke-linejoin="round" filter="url(#fuzzy)" /><polyline points="-20.24,-76.4 -18.9,-77.18 -17.89,-77.98 -16.86,-78.72 -15.47,-79.37 -13.75,-79.93 -11.87,-80.41 -9.94,-80.8 -8.03,-81.14 -6.12,-81.4 -4.22,-81.6 -2.31,-81.73 -0.39,-81.8 1.58,-81.78 3.59,-81.69 5.67,-81.53 7.82,-81.28 10.07,-80.95 12.43,-80.54 14.91,-80.07 17.56,-79.52 20.39,-78.9 23.43,-78.23 26.68,-77.51 30.08,-76.72 33.58,-75.88 37.07,-74.96 40.47,-73.96 43.69,-72.86 46.71,-71.64 49.63,-70.32 52.69,-68.92 56.15,-67.5 59.95,-66.13 63.58,-64.84 67.48,-63.54" fill="none" stroke="rgb(44, 34, 43)" stroke-width="2" stroke-linejoin="round" filter="url(#fuzzy)" /><polyline points="-21.12,-75.89 -21.89,-76.51 -21.27,-77.35 -19.51,-78.16 -17.32,-78.89 -15.15,-79.52 -13.14,-80.08 -11.28,-80.56 -9.49,-80.97 -7.71,-81.32 -5.88,-81.59 -3.96,-81.8 -1.96,-81.92 0.14,-81.97 2.31,-81.94 4.56,-81.84 6.92,-81.67 9.37,-81.44 11.91,-81.13 14.46,-80.75 17.02,-80.28 19.7,-79.71 22.74,-79.04 26.32,-78.24 30.25,-77.35 33.53,-76.56" fill="none" stroke="rgb(44, 34, 43)" stroke-width="2" stroke-linejoin="round" filter="url(#fuzzy)" /><polyline points="-21.12,-75.89 -20.2,-76.52 -18.7,-77.37 -17.33,-78.18 -16.15,-78.9 -15.02,-79.54 -13.75,-80.09 -12.25,-80.57 -10.52,-80.98 -8.59,-81.31 -6.5,-81.58 -4.3,-81.77 -2.03,-81.88 0.27,-81.92 2.59,-81.87 4.91,-81.76 7.24,-81.57 9.58,-81.3 11.96,-80.96 14.42,-80.53 17.03,-80.02 19.86,-79.41 22.94,-78.7 26.25,-77.91 29.67,-77.05 33.05,-76.15 36.31,-75.22 39.51,-74.27 42.9,-73.31 46.83,-72.25 51.57,-70.93 57.16,-68.88" fill="none" stroke="rgb(44, 34, 43)" stroke-width="2" stroke-linejoin="round" filter="url(#fuzzy)" /><polyline points="54.05,-17.49 53.8,-14.63 52.06,-11.97 49.14,-9.3 46.06,-6.64 43.68,-4.01 42.25,-1.41 41.68,1.14 41.7,3.61 41.9,6.01 41.78,8.35 40.92,10.67 39.14,13 36.62,15.36 33.74,17.76 30.95,20.19 28.54,22.64 26.63,25.1 25.18,27.55 24.11,29.99 23.27,32.39 22.51,34.76 21.6,37.07 20.3,39.31 18.51,41.47 16.33,43.54 14.07,45.56 12.15,47.55 10.82,49.6 10,51.72 9.32,53.88 8.44,55.99 7.25,57.94 5.85,59.74 4.17,61.9" fill="none" stroke="rgb(44, 34, 43)" stroke-width="2" stroke-linejoin="round" filter="url(#fuzzy)" /><polyline points="-26.11,-72.47 -26.79,-73.42 -26.61,-74.43 -24.98,-75.4 -22.84,-76.32 -20.79,-77.19 -18.96,-78 -17.34,-78.73 -15.82,-79.39 -14.3,-79.96 -12.7,-80.46 -10.98,-80.89 -9.1,-81.26 -7.04,-81.55 -4.81,-81.77 -2.38,-81.91 0.23,-81.97 3.02,-81.96 5.97,-81.87 9.07,-81.72 12.26,-81.5 15.44,-81.21 18.57,-80.85 21.73,-80.4 25.2,-79.87 29.32,-79.27 33.65,-78.73" fill="none" stroke="rgb(44, 34, 43)" stroke-width="2" stroke-linejoin="round" filter="url(#fuzzy)" /><polyline points="-26.11,-72.47 -24.73,-73.42 -22.97,-74.42 -21.16,-75.39 -19.37,-76.31 -17.56,-77.18 -15.67,-77.99 -13.72,-78.72 -11.76,-79.38 -9.85,-79.96 -8.04,-80.46 -6.37,-80.9 -4.86,-81.26 -3.52,-81.56 -2.32,-81.79 -1.25,-81.93 -0.26,-82 0.65,-82 1.46,-81.92 2.13,-81.77 2.68,-81.57 3.16,-81.3 3.68,-80.95 4.26,-80.54 4.5,-80.08" fill="none" stroke="rgb(44, 34, 43)" stroke-width="2" stroke-linejoin="round" filter="url(#fuzzy)" /><polyline points="-26.11,-72.47 -25.17,-73.42 -23.88,-74.41 -22.58,-75.38 -21.33,-76.3 -20.08,-77.17 -18.78,-77.98 -17.37,-78.71 -15.83,-79.37 -14.18,-79.95 -12.45,-80.46 -10.64,-80.9 -8.75,-81.27 -6.77,-81.57 -4.7,-81.81 -2.54,-81.97 -0.32,-82.04 1.92,-82.04 4.18,-81.97 6.5,-81.83 8.91,-81.65 11.48,-81.39 14.08,-81.03" fill="none" stroke="rgb(44, 34, 43)" stroke-width="2" stroke-linejoin="round" filter="url(#fuzzy)" /><polyline points="-26.35,-71.97 -24.81,-73.4 -24.35,-74.26 -23.71,-75.09 -22.59,-75.98 -21.06,-76.87 -19.32,-77.71 -17.55,-78.48 -15.82,-79.16 -14.12,-79.75 -12.4,-80.25 -10.6,-80.68 -8.72,-81.04 -6.78,-81.33 -4.81,-81.55 -2.83,-81.7 -0.85,-81.79 1.14,-81.8 3.16,-81.74 5.21,-81.6 7.32,-81.38 9.47,-81.08 11.65,-80.7 13.86,-80.24 16.11,-79.71 18.39,-79.11 20.69,-78.45 22.98,-77.74 25.23,-76.99 27.41,-76.23 29.64,-75.43 32.26,-74.51 35.64,-73.32" fill="none" stroke="rgb(44, 34, 43)" stroke-width="2" stroke-linejoin="round" filter="url(#fuzzy)" /><polyline points="-27.51,-71.11 -26.12,-72.21 -24.94,-73.27 -24.14,-74.18 -23.52,-75.06 -22.81,-75.95 -21.77,-76.83 -20.32,-77.66 -18.52,-78.43 -16.54,-79.11 -14.53,-79.71 -12.57,-80.22 -10.67,-80.66 -8.81,-81.02 -6.93,-81.32 -5.02,-81.54 -3.05,-81.7 -1.03,-81.8 1.05,-81.82 3.17,-81.76 5.35,-81.63 7.59,-81.42 9.89,-81.13 12.25,-80.76 14.67,-80.31 17.13,-79.78 19.6,-79.19 22.07,-78.53 24.53,-77.8 26.94,-77.04 29.2,-76.31 31.2,-75.74" fill="none" stroke="rgb(44, 34, 43)" stroke-width="2" stroke-linejoin="round" filter="url(#fuzzy)" /><polyline points="53.73,-19.26 65.2,-15.85 68.42,-12.89 67.34,-10.42 65.81,-8.19 64.86,-5.98 64.34,-3.69 64.01,-1.27 63.89,1.27 64.12,3.88 64.93,6.49 66.5,9.06 68.87,11.55 71.93,13.97 75.32,16.35 78.54,18.75 81.05,21.19 82.49,23.69 82.79,26.21 82.17,28.7 81.04,31.11 79.82,33.42 78.9,35.64 78.52,37.87 78.7,40.19 79.21,42.65 79.74,45.13 79.69,47.35" fill="none" stroke="rgb(44, 34, 43)" stroke-width="2" stroke-linejoin="round" filter="url(#fuzzy)" /><polyline points="-31.97,-66.81 -31.98,-68.61 -31.39,-69.9 -29.88,-71.03 -28.47,-72.09 -27.52,-73.1 -26.81,-74.05 -25.98,-74.98 -24.83,-75.87 -23.35,-76.74 -21.64,-77.57 -19.82,-78.33 -17.94,-79.01 -16.01,-79.62 -14.03,-80.14 -11.97,-80.59 -9.85,-80.96 -7.67,-81.26 -5.44,-81.49 -3.17,-81.66 -0.88,-81.75 1.44,-81.77 3.81,-81.71 6.21,-81.58 8.65,-81.37 11.12,-81.07 13.61,-80.7 16.14,-80.24 18.76,-79.72 21.53,-79.12 24.48,-78.46 27.58,-77.75 30.74,-77 33.84,-76.23 36.99,-75.43 40.65,-74.52 45.35,-73.32" fill="none" stroke="rgb(44, 34, 43)" stroke-width="2" stroke-linejoin="round" filter="url(#fuzzy)" /><polyline points="-34.6,-64.22 -32.8,-66.52 -32.08,-68.31 -31.24,-69.72 -29.97,-70.93 -28.53,-72.02 -27.18,-73.04 -25.99,-74 -24.87,-74.93 -23.68,-75.83 -22.3,-76.7 -20.69,-77.52 -18.91,-78.29 -17.03,-78.98 -15.14,-79.59 -13.26,-80.12 -11.39,-80.58 -9.52,-80.96 -7.59,-81.26 -5.59,-81.5 -3.49,-81.68 -1.3,-81.78 0.98,-81.81 3.36,-81.77 5.84,-81.65 8.43,-81.45 11.11,-81.16 13.87,-80.79 16.7,-80.35 19.56,-79.83 22.43,-79.25 25.26,-78.58 28.12,-77.83 31.19,-77.01 34.22,-76.22" fill="none" stroke="rgb(44, 34, 43)" stroke-width="2" stroke-linejoin="round" filter="url(#fuzzy)" /><polyline points="-34.6,-64.22 -32.6,-66.52 -31,-68.31 -29.48,-69.72 -28.02,-70.92 -26.6,-72.01 -25.21,-73.03 -23.84,-73.99 -22.44,-74.92 -21,-75.82 -19.5,-76.69 -17.95,-77.52 -16.36,-78.28 -14.74,-78.98 -13.1,-79.59 -11.45,-80.13 -9.78,-80.58 -8.08,-80.96 -6.36,-81.27 -4.62,-81.51 -2.85,-81.69 -1.08,-81.79 0.7,-81.83 2.49,-81.79 4.29,-81.67 6.11,-81.48 7.93,-81.2 9.76,-80.83 11.59,-80.39 13.42,-79.88 15.23,-79.3 17.04,-78.64 18.89,-77.87 20.86,-76.96" fill="none" stroke="rgb(44, 34, 43)" stroke-width="2" stroke-linejoin="round" filter="url(#fuzzy)" /><polyline points="-34.56,-63.98 -34.16,-65.41 -33.78,-66.88 -32.87,-68.29 -31.39,-69.62 -29.71,-70.85 -28.12,-72 -26.71,-73.08 -25.45,-74.11 -24.3,-75.09 -23.16,-76.03 -21.99,-76.91 -20.74,-77.74 -19.37,-78.5 -17.87,-79.19 -16.22,-79.81 -14.43,-80.35 -12.49,-80.82 -10.41,-81.22 -8.16,-81.55 -5.79,-81.82 -3.31,-82.01 -0.78,-82.12 1.79,-82.12 4.53,-82.01 7.88,-81.82" fill="none" stroke="rgb(44, 34, 43)" stroke-width="2" stroke-linejoin="round" filter="url(#fuzzy)" /><polyline points="-35.82,-62.65 -34.77,-63.97 -33.9,-65.39 -32.99,-66.82 -32.13,-68.22 -31.53,-69.54 -31.23,-70.78 -31.01,-71.94 -30.57,-73.03 -29.7,-74.07 -28.36,-75.05 -26.66,-75.99 -24.74,-76.88 -22.73,-77.71 -20.73,-78.48 -18.82,-79.17 -17.01,-79.79 -15.27,-80.34 -13.5,-80.81 -11.56,-81.21 -9.33,-81.55 -6.79,-81.82 -3.98,-82.01 -1.03,-82.12 1.93,-82.12 4.99,-82.01 8.63,-81.82" fill="none" stroke="rgb(44, 34, 43)" stroke-width="2" stroke-linejoin="round" filter="url(#fuzzy)" /><polyline points="-35.82,-62.65 -37.87,-63.98 -38.48,-65.4 -39.78,-66.84 -40.28,-68.24 -39.26,-69.57 -37.19,-70.81 -34.82,-71.98 -32.68,-73.07 -30.87,-74.11 -29.28,-75.09 -27.67,-76.03 -25.89,-76.91 -23.87,-77.73 -21.65,-78.49 -19.32,-79.18 -17,-79.79 -14.73,-80.32 -12.52,-80.79 -10.34,-81.18 -8.09,-81.5 -5.71,-81.74 -3.15,-81.91 -0.39,-82 2.51,-82.01 5.52,-81.94 8.61,-81.8 11.85,-81.61 15.4,-81.34 19.45,-81 23.86,-80.6" fill="none" stroke="rgb(44, 34, 43)" stroke-width="2" stroke-linejoin="round" filter="url(#fuzzy)" /><polyline points="-35.82,-62.65 -35.1,-63.98 -35.05,-65.41 -34.7,-66.85 -33.73,-68.25 -32.33,-69.58 -30.8,-70.83 -29.29,-71.99 -27.81,-73.08 -26.33,-74.12 -24.83,-75.11 -23.29,-76.04 -21.72,-76.92 -20.11,-77.74 -18.49,-78.5 -16.82,-79.18 -15.11,-79.78 -13.31,-80.32 -11.4,-80.77 -9.39,-81.16 -7.26,-81.47 -5.04,-81.71 -2.73,-81.87 -0.38,-81.95 1.99,-81.96 4.36,-81.88 6.74,-81.74 9.14,-81.53 11.6,-81.26 14.11,-80.9 16.6,-80.46 19.1,-79.91 22.29,-79.17" fill="none" stroke="rgb(44, 34, 43)" stroke-width="2" stroke-linejoin="round" filter="url(#fuzzy)" /><polyline points="53.33,-20.81 54.82,-17.7 56.33,-14.85 57.2,-12.13 57.57,-9.45 57.73,-6.8 57.91,-4.18 58.22,-1.59 58.64,0.95 59.1,3.42 59.5,5.81 59.76,8.14 59.85,10.44 59.74,12.76 59.5,15.1 59.18,17.48 58.91,19.9 58.75,22.35 58.76,24.8 58.89,27.26 59.03,29.7 59.06,32.11 58.9,34.49 58.56,36.84 58.14,39.16 57.75,41.4 57.44,43.44 57.15,45.11 56.85,46.41 56.92,47.91" fill="none" stroke="rgb(44, 34, 43)" stroke-width="2" stroke-linejoin="round" filter="url(#fuzzy)" /><polyline points="53.33,-20.81 53.9,-17.68 54.34,-14.82 54.78,-12.08 55.23,-9.39 55.62,-6.72 55.9,-4.09 56.06,-1.49 56.09,1.06 56.03,3.54 55.94,5.94 55.85,8.29 55.78,10.62 55.72,12.96 55.67,15.33 55.56,17.73 55.38,20.16 55.09,22.61 54.69,25.06 54.21,27.52 53.65,29.95 53.06,32.36 52.46,34.73 51.86,37.04 51.25,39.28 50.64,41.45 50.01,43.53 49.32,45.54 48.51,47.54 47.55,49.59 46.39,51.71 45.08,53.87 43.71,55.98 42.41,57.94 41.29,59.73 40.06,61.9" fill="none" stroke="rgb(44, 34, 43)" stroke-width="2" stroke-linejoin="round" filter="url(#fuzzy)" /><polyline points="-39.68,-57.37 -40.68,-56.09 -41.98,-54.27 -43.22,-52.22 -44.37,-50.12 -45.57,-48.03 -46.98,-45.93 -48.69,-43.8 -50.67,-41.62 -52.75,-39.42 -54.69,-37.21 -56.35,-35.02 -57.68,-32.84 -58.73,-30.64 -59.61,-28.4 -60.46,-26.14 -61.36,-23.84 -62.31,-21.53 -63.29,-19.21 -64.21,-16.88 -65,-14.52 -65.62,-12.12 -66.07,-9.64 -66.41,-7.09 -66.7,-4.49 -66.98,-1.84 -67.29,0.8 -67.65,3.41 -68.09,5.95 -68.63,8.39 -69.24,10.72 -69.85,12.93 -70.36,15.05 -70.72,17.17 -71,19.36 -71.26,21.67 -71.6,24.07 -72.39,26.57" fill="none" stroke="rgb(44, 34, 43)" stroke-width="2" stroke-linejoin="round" filter="url(#fuzzy)" /><polyline points="-38.95,-58.12 -41.49,-55.41 -45.16,-53.13 -49.41,-51.07 -53.21,-49.11 -56.03,-47.15 -57.83,-45.11 -58.72,-42.98 -58.94,-40.77 -58.81,-38.53 -58.63,-36.28 -58.67,-34.03 -59.07,-31.78 -59.91,-29.51 -61.25,-27.22 -63.12,-24.89 -65.5,-22.53 -68.26,-20.15 -71.18,-17.77 -73.92,-15.39 -76.16,-13.02 -77.71,-10.64 -78.58,-8.22 -78.98,-5.76 -79.25,-3.26 -79.68,-0.73 -80.46,1.8 -81.61,4.3 -83,6.79 -84.45,9.28 -85.72,11.83 -86.59,14.41 -86.98,17.01 -87.06,19.57 -87.3,22.02 -88.28,24.15 -90.27,25.01" fill="none" stroke="rgb(44, 34, 43)" stroke-width="2" stroke-linejoin="round" filter="url(#fuzzy)" /><polyline points="-38.95,-58.12 -44.92,-55.41 -51.17,-53.13 -53.95,-51.07 -54.61,-49.11 -54.95,-47.15 -55.91,-45.11 -57.63,-42.98 -59.74,-40.77 -61.72,-38.53 -63.16,-36.28 -63.96,-34.03 -64.41,-31.78 -64.98,-29.51 -66.14,-27.22 -68.15,-24.89 -70.99,-22.53 -74.35,-20.15 -77.75,-17.77 -80.71,-15.39 -82.9,-13.02 -84.25,-10.64 -84.91,-8.22 -85.19,-5.76 -85.45,-3.26 -86,-0.73 -87.09,1.8 -88.81,4.3 -91.1,6.79 -93.63,9.28 -95.87,11.83 -97.28,14.41 -97.68,17.01 -97.43,19.57 -97.3,22.02 -98.35,24.15 -102.35,25.01" fill="none" stroke="rgb(44, 34, 43)" stroke-width="2" stroke-linejoin="round" filter="url(#fuzzy)" /><polyline points="-41.09,-54.71 -42.66,-52.18 -43.83,-49.99 -45.06,-47.9 -46.54,-45.84 -48.36,-43.73 -50.46,-41.55 -52.81,-39.33 -55.37,-37.11 -58.06,-34.92 -60.71,-32.75 -63.19,-30.56 -65.44,-28.34 -67.6,-26.07 -69.85,-23.77 -72.37,-21.46 -75.21,-19.14 -78.23,-16.82 -81.18,-14.47 -83.79,-12.07 -85.88,-9.59 -87.43,-7.05 -88.5,-4.44 -89.2,-1.8 -89.63,0.85 -89.88,3.45 -90.13,5.99 -90.64,8.43 -91.63,10.75 -93.13,12.95 -94.8,15.07 -96.14,17.18 -96.93,19.37 -97.71,21.68 -99.34,24.08 -100.83,26.57" fill="none" stroke="rgb(44, 34, 43)" stroke-width="2" stroke-linejoin="round" filter="url(#fuzzy)" /><polyline points="-42.95,-51.38 -44.58,-48.91 -45.51,-47.1 -46.5,-45.18 -47.75,-43.04 -49.25,-40.79 -51.02,-38.52 -53.15,-36.27 -55.73,-34.05 -58.69,-31.86 -61.82,-29.64 -64.77,-27.39 -67.31,-25.09 -69.32,-22.74 -70.88,-20.36 -72.08,-17.98 -72.96,-15.63 -73.52,-13.34 -73.81,-11.08 -74.09,-8.78 -74.78,-6.35 -76.27,-3.74 -78.54,-1.02 -81.01,1.61 -82.92,3.95 -84.99,6.19" fill="none" stroke="rgb(44, 34, 43)" stroke-width="2" stroke-linejoin="round" filter="url(#fuzzy)" /><polyline points="-43.37,-50.61 -48.54,-47.79 -52.33,-45.78 -54.12,-43.79 -55.59,-41.63 -57.04,-39.38 -58.14,-37.15 -58.84,-34.99 -59.37,-32.9 -60.09,-30.79 -61.21,-28.63 -62.63,-26.37 -64.08,-24.06 -65.35,-21.75 -66.41,-19.48 -67.5,-17.26 -68.9,-15.06 -70.81,-12.8 -73.28,-10.41 -76.33,-7.84 -79.91,-5.14 -83.77,-2.46 -87.21,0.25 -89.94,4.28" fill="none" stroke="rgb(44, 34, 43)" stroke-width="2" stroke-linejoin="round" filter="url(#fuzzy)" /><polyline points="-44.73,-47.85 -46.19,-46.93 -49.09,-45.17 -51.56,-42.99 -53.28,-40.68 -54.92,-38.37 -57.11,-36.11 -59.95,-33.89 -63.08,-31.68 -65.87,-29.46 -67.87,-27.19 -69.06,-24.87 -69.83,-22.51 -70.86,-20.13 -72.74,-17.75 -75.76,-15.4 -79.74,-13.07 -84.08,-10.74 -88.01,-8.37 -90.92,-5.92 -92.65,-3.4 -93.62,-0.83 -94.66,1.69 -96.53,4.13 -99.5,6.51 -103.14,8.91 -106.61,11.48 -109.27,14.29 -110.88,16.77" fill="none" stroke="rgb(44, 34, 43)" stroke-width="2" stroke-linejoin="round" filter="url(#fuzzy)" /><polyline points="-44.73,-47.85 -45.49,-46.94 -46.96,-45.2 -48.99,-43.04 -51.14,-40.74 -52.98,-38.44 -54.35,-36.19 -55.33,-33.98 -56.27,-31.79 -57.53,-29.59 -59.37,-27.35 -61.81,-25.05 -64.67,-22.7 -67.72,-20.31 -70.68,-17.93 -73.32,-15.59 -75.45,-13.3 -76.96,-11.05 -77.89,-8.76 -78.51,-6.33 -79.23,-3.72 -80.39,-1 -82.05,1.62 -84.24,3.96 -87.22,6.19" fill="none" stroke="rgb(44, 34, 43)" stroke-width="2" stroke-linejoin="round" filter="url(#fuzzy)" /><polyline points="53.62,-20.06 53.84,-18.35 54.07,-15.71 54.19,-13.04 54.23,-10.58 54.25,-8.28 54.27,-6.02 54.24,-3.7 54.12,-1.27 53.88,1.26 53.56,3.85 53.2,6.46 52.83,9.02 52.49,11.52 52.15,13.95 51.8,16.36 51.41,18.77 50.96,21.22 50.43,23.71 49.81,26.22 49.1,28.71 48.29,31.12 47.39,33.45 46.43,35.7 45.45,37.96 44.47,40.27 43.48,42.63 42.49,44.95 41.59,46.96 40.91,48.33" fill="none" stroke="rgb(44, 34, 43)" stroke-width="2" stroke-linejoin="round" filter="url(#fuzzy)" /><polyline points="-45.31,-46.75 -46.39,-45.49 -49.02,-43.69 -52.25,-41.49 -54.7,-39.18 -56.19,-36.91 -57.18,-34.73 -58.09,-32.6 -59.1,-30.45 -60.29,-28.24 -61.73,-25.96 -63.49,-23.65 -65.58,-21.33 -67.97,-19.02 -70.55,-16.71 -73.25,-14.38 -76,-11.99 -78.73,-9.52 -81.38,-6.97 -83.82,-4.35 -85.91,-1.71 -87.55,0.93 -88.7,3.53 -89.39,6.06 -89.74,8.49 -89.83,10.8 -89.75,12.99 -89.63,15.1 -89.78,17.2 -90.51,19.39 -91.93,21.69 -94.04,24.08 -97.52,26.57" fill="none" stroke="rgb(44, 34, 43)" stroke-width="2" stroke-linejoin="round" filter="url(#fuzzy)" /><polyline points="-45.31,-46.75 -46.08,-45.51 -47.13,-43.76 -48.96,-41.59 -51.7,-39.29 -55.07,-37.03 -58.52,-34.88 -61.55,-32.79 -63.94,-30.7 -65.78,-28.53 -67.35,-26.28 -68.98,-23.96 -70.97,-21.65 -73.66,-19.38 -77.26,-17.16 -81.8,-14.94 -86.85,-12.66 -91.64,-10.25 -95.32,-7.7 -97.46,-5.03 -98.27,-2.34 -98.28,0.31 -98.14,2.94 -101.13,4.85" fill="none" stroke="rgb(44, 34, 43)" stroke-width="2" stroke-linejoin="round" filter="url(#fuzzy)" /><polyline points="-45.63,-45.96 -46.31,-43.03 -46.72,-40.5 -47.27,-38.15 -47.98,-35.89 -48.75,-33.69 -49.46,-31.5 -50,-29.28 -50.33,-27.01 -50.5,-24.69 -50.58,-22.32 -50.64,-19.93 -50.7,-17.54 -50.78,-15.18 -50.87,-12.84 -50.96,-10.5 -51.03,-8.11 -51.03,-5.66 -50.9,-3.15 -50.61,-0.62 -50.19,1.9 -49.72,4.37 -49.28,6.82 -48.9,9.29 -48.53,11.82 -48.02,14.42 -47.28,17.03 -46.33,19.62 -45.36,22.31 -44.48,25.57" fill="none" stroke="rgb(44, 34, 43)" stroke-width="2" stroke-linejoin="round" filter="url(#fuzzy)" /><polyline points="-47.77,-40.91 -48.9,-38.75 -50.51,-36.54 -52.26,-34.46 -53.85,-32.5 -55.19,-30.48 -56.36,-28.33 -57.49,-26.04 -58.73,-23.7 -60.11,-21.38 -61.57,-19.11 -63.09,-16.89 -64.7,-14.66 -66.5,-12.36 -68.56,-9.94 -70.74,-7.39 -72.74,-4.76 -74.25,-2.09 -75.3,0.57 -76.33,3.21 -77.72,5.83 -79.04,8.42 -79.58,10.81" fill="none" stroke="rgb(44, 34, 43)" stroke-width="2" stroke-linejoin="round" filter="url(#fuzzy)" /><polyline points="-47.77,-40.91 -49.09,-38.71 -50.17,-36.47 -50.94,-34.36 -51.68,-32.34 -52.45,-30.26 -53.2,-28.05 -53.92,-25.74 -54.64,-23.39 -55.38,-21.04 -56.11,-18.72 -56.78,-16.41 -57.33,-14.06 -57.71,-11.65 -57.95,-9.16 -58.06,-6.6 -58.11,-3.99 -58.13,-1.35 -58.14,1.26 -58.15,3.83 -58.12,6.32 -58.05,8.73 -57.91,11.05 -57.73,13.31 -57.53,15.52 -57.33,17.76 -57.14,20.04 -56.91,22.43 -56.63,24.91 -56.27,27.48 -55.84,30.1 -55.38,32.69 -54.94,35.18 -54.48,37.56 -53.96,39.92 -53.37,42.37" fill="none" stroke="rgb(44, 34, 43)" stroke-width="2" stroke-linejoin="round" filter="url(#fuzzy)" /><polyline points="-48.75,-38.69 -50.71,-36.4 -52.13,-34.26 -52.67,-32.34 -53.04,-30.35 -53.58,-28.17 -54.3,-25.85 -55.11,-23.48 -55.97,-21.14 -56.88,-18.86 -57.79,-16.6 -58.63,-14.32 -59.32,-11.96 -59.84,-9.51 -60.25,-6.95 -60.67,-4.33 -61.21,-1.68 -61.87,0.97 -62.57,3.58 -63.21,6.12 -63.67,8.55 -63.94,10.84 -64.09,12.96 -64.18,14.96 -64.24,16.98 -64.35,19.16 -64.77,21.7" fill="none" stroke="rgb(44, 34, 43)" stroke-width="2" stroke-linejoin="round" filter="url(#fuzzy)" /><polyline points="-49.38,-36.7 -50.93,-34 -52.67,-32.2 -53.98,-30.29 -54.66,-28.09 -54.88,-25.72 -54.93,-23.32 -55.02,-20.96 -55.31,-18.66 -55.88,-16.39 -56.79,-14.08 -58.04,-11.7 -59.6,-9.21 -61.35,-6.65 -63.13,-4.02 -64.78,-1.38 -66.17,1.24 -67.25,3.82 -68.05,6.32 -68.65,8.72 -69.12,11.02 -69.51,13.23 -69.77,15.39 -69.86,17.55 -69.74,19.79 -69.49,22.14 -69.23,24.63 -69.1,27.27 -69.08,30.03 -68.89,32.84 -67.75,35.61" fill="none" stroke="rgb(44, 34, 43)" stroke-width="2" stroke-linejoin="round" filter="url(#fuzzy)" /><polyline points="-49.38,-36.7 -50.59,-33.99 -52.07,-32.19 -53.59,-30.26 -54.99,-28.06 -56.21,-25.69 -57.36,-23.28 -58.69,-20.91 -60.42,-18.61 -62.64,-16.32 -65.26,-13.99 -68.02,-11.59 -70.62,-9.1 -72.76,-6.53 -74.28,-3.91 -75.25,-1.27 -75.98,1.35 -76.89,3.91 -78.36,6.41 -80.53,8.81 -83.2,11.12 -85.91,13.36 -88.14,15.57 -89.52,17.79 -90,20.07 -89.87,22.45 -89.58,24.94 -89.61,27.51 -90.31,30.12 -91.76,32.71 -93.66,35.19 -95.29,37.56 -95.97,39.92 -97.05,42.37" fill="none" stroke="rgb(44, 34, 43)" stroke-width="2" stroke-linejoin="round" filter="url(#fuzzy)" /><polyline points="-50.1,-34.65 -54.98,-33.1 -56.07,-31.23 -57.49,-29.12 -59.05,-26.86 -59.99,-24.51 -60.16,-22.12 -59.95,-19.71 -59.89,-17.32 -60.34,-14.98 -61.39,-12.68 -62.93,-10.38 -64.7,-8.03 -66.37,-5.59 -67.74,-3.07 -68.76,-0.53 -69.64,1.98 -70.67,4.42 -72.13,6.83 -74.05,9.26 -76.24,11.78 -78.28,14.39 -79.73,16.98 -80.22,19.39 -79.55,21.58" fill="none" stroke="rgb(44, 34, 43)" stroke-width="2" stroke-linejoin="round" filter="url(#fuzzy)" /><polyline points="-50.76,-32.76 -52.13,-30.67 -53.48,-28.2 -54.59,-25.62 -55.83,-23.1 -57.35,-20.71 -59.08,-18.42 -61.03,-16.16 -63.33,-13.85 -66.09,-11.45 -69.22,-8.95 -72.38,-6.36 -75.08,-3.72 -76.92,-1.08 -77.81,1.54 -77.97,4.1 -77.82,6.58 -77.81,8.97 -78.2,11.29 -79.03,13.54 -80.14,15.77 -81.34,18.02 -82.51,20.33 -83.65,22.72 -84.84,25.19 -86.09,27.73 -87.36,30.29 -88.54,32.83 -89.51,35.3 -90.25,37.69 -90.82,39.98 -91.4,42.17 -92.17,44.2 -93.14,46.07 -92.61,48.06" fill="none" stroke="rgb(44, 34, 43)" stroke-width="2" stroke-linejoin="round" filter="url(#fuzzy)" /><polyline points="-50.94,-31.16 -51.67,-29.09 -52.45,-26.69 -53.22,-24.27 -54.14,-21.82 -55.3,-19.37 -56.65,-16.95 -58.03,-14.59 -59.28,-12.26 -60.31,-9.92 -61.11,-7.52 -61.77,-5.05 -62.34,-2.53 -62.89,0.01 -63.42,2.53 -63.94,5.03 -64.52,7.53 -65.22,10.03 -66.14,12.55 -67.28,15.07 -68.59,17.59 -69.93,20.07 -71.14,22.5 -72.08,24.88 -72.66,27.23 -72.84,29.56 -72.62,31.91 -72.06,34.25 -71.31,36.55 -70.61,38.69 -70.19,40.67 -70.1,42.82 -70.18,46.22" fill="none" stroke="rgb(44, 34, 43)" stroke-width="2" stroke-linejoin="round" filter="url(#fuzzy)" /><polyline points="-51.44,-29.53 -55.82,-26.7 -61.99,-24.24 -64.96,-21.84 -64.85,-19.4 -63.94,-16.97 -63.9,-14.63 -65.04,-12.36 -66.78,-10.09 -68.42,-7.74 -69.65,-5.28 -70.63,-2.75 -71.78,-0.21 -73.53,2.29 -76.01,4.74 -78.99,7.18 -81.88,9.64 -84.06,12.15 -85.2,14.7 -85.51,17.25 -85.74,19.76 -86.66,22.19 -88.56,24.54 -90.92,27.01 -92.2,30.78" fill="none" stroke="rgb(44, 34, 43)" stroke-width="2" stroke-linejoin="round" filter="url(#fuzzy)" /><polyline points="-52.17,-27.57 -53.51,-25.47 -54.56,-22.83 -55.27,-20.42 -55.72,-18.21 -56.18,-16.02 -56.84,-13.75 -57.73,-11.35 -58.69,-8.83 -59.52,-6.21 -60.07,-3.55 -60.31,-0.89 -60.3,1.73 -60.15,4.28 -59.98,6.76 -59.84,9.15 -59.76,11.46 -59.72,13.71 -59.68,15.96 -59.59,18.22 -59.44,20.55 -59.18,22.95 -58.84,25.41 -58.42,27.93 -57.97,30.46 -57.53,32.97 -57.1,35.42 -56.68,37.78 -56.28,40.05 -55.86,42.23 -55.43,44.31 -54.91,46.35 -54.12,48.41 -52.95,50.55 -51.64,52.67 -51.37,53.97" fill="none" stroke="rgb(44, 34, 43)" stroke-width="2" stroke-linejoin="round" filter="url(#fuzzy)" /><polyline points="-52.17,-27.57 -52.6,-25.47 -53.16,-22.83 -53.63,-20.43 -53.98,-18.22 -54.28,-16.03 -54.57,-13.76 -54.86,-11.37 -55.14,-8.85 -55.4,-6.23 -55.61,-3.58 -55.78,-0.92 -55.89,1.7 -55.96,4.26 -55.98,6.74 -55.95,9.12 -55.88,11.43 -55.75,13.68 -55.57,15.92 -55.33,18.18 -55.03,20.49 -54.65,22.89 -54.18,25.36 -53.63,27.88 -53,30.42 -52.31,32.94 -51.57,35.39 -50.81,37.76 -50.03,40.03 -49.23,42.2 -48.44,44.27 -47.64,46.27 -46.81,48.31 -45.78,50.65 -44.08,53.76" fill="none" stroke="rgb(44, 34, 43)" stroke-width="2" stroke-linejoin="round" filter="url(#fuzzy)" /><polyline points="53.3,-22.27 53.6,-20.38 54.08,-18.22 54.86,-15.72 55.79,-13.18 56.67,-10.75 57.37,-8.43 57.91,-6.15 58.32,-3.82 58.68,-1.41 59.03,1.11 59.41,3.69 59.84,6.29 60.3,8.86 60.72,11.35 61.05,13.77 61.27,16.16 61.42,18.55 61.59,20.99 61.87,23.49 62.26,26.04 62.68,28.57 62.98,31 62.99,33.28 62.67,35.41 62.18,37.54 61.75,39.85 61.83,42.42" fill="none" stroke="rgb(44, 34, 43)" stroke-width="2" stroke-linejoin="round" filter="url(#fuzzy)" /><polyline points="52.38,-25.74 61.84,-22.75 60.8,-20.21 59.82,-17.62 60.81,-14.97 62.98,-12.29 65.14,-9.62 66.69,-6.96 67.72,-4.34 68.72,-1.74 70.17,0.8 72.29,3.27 75.03,5.68 78.12,8.03 81.3,10.35 84.37,12.68 87.23,15.03 89.82,17.42 92.01,19.84 93.65,22.28 94.61,24.74 94.94,27.2 94.89,29.64 94.82,32.06 95.04,34.45 95.55,36.81 96.17,39.13 96.71,41.38 97.16,43.42 97.6,45.1 97.96,46.41 97.78,47.91" fill="none" stroke="rgb(44, 34, 43)" stroke-width="2" stroke-linejoin="round" filter="url(#fuzzy)" /><polyline points="52.19,-27.14 52.88,-25.23 53.85,-22.94 54.59,-20.63 55.11,-18.24 55.58,-15.78 56.07,-13.31 56.58,-10.89 57.13,-8.53 57.71,-6.19 58.36,-3.82 59.12,-1.38 60.01,1.14 61.02,3.71 62.1,6.29 63.13,8.85 63.95,11.36 64.46,13.82 64.62,16.24 64.49,18.67 64.2,21.13 63.9,23.63 63.7,26.14 63.62,28.63 63.6,31.05 63.56,33.39 63.42,35.66 63.1,37.92 62.61,40.24 62.03,42.61 61.55,44.93 61.47,46.95 62.17,48.33" fill="none" stroke="rgb(44, 34, 43)" stroke-width="2" stroke-linejoin="round" filter="url(#fuzzy)" /><polyline points="52.19,-27.14 53.18,-25.25 55.59,-22.98 58.43,-20.7 60.44,-18.34 61.08,-15.89 60.66,-13.43 59.89,-11.03 59.43,-8.7 59.62,-6.4 60.48,-4.07 61.78,-1.67 63.22,0.83 64.54,3.4 65.58,6.01 66.33,8.58 66.85,11.08 67.26,13.48 67.76,15.82 68.49,18.15 69.47,20.55 70.46,23.06 70.99,25.72 70.74,28.52 70.09,31.35 70.24,33.96" fill="none" stroke="rgb(44, 34, 43)" stroke-width="2" stroke-linejoin="round" filter="url(#fuzzy)" /><polyline points="49.4,-37.26 50.63,-35.46 51.78,-33.5 52.66,-31.49 53.75,-29.49 55.11,-27.42 56.51,-25.24 57.72,-22.93 58.67,-20.49 59.42,-17.96 60.1,-15.37 60.83,-12.73 61.72,-10.09 62.88,-7.44 64.31,-4.81 65.99,-2.22 67.79,0.33 69.57,2.83 71.2,5.25 72.61,7.63 73.82,9.97 74.87,12.3 75.86,14.65 76.87,17.04 77.97,19.46 79.22,21.91 80.6,24.38 82,26.86 83.3,29.34 84.41,31.77 85.29,34.13 85.73,36.4 85.24,38.75 85.13,41.86" fill="none" stroke="rgb(44, 34, 43)" stroke-width="2" stroke-linejoin="round" filter="url(#fuzzy)" /><polyline points="48.36,-40.31 49.94,-37.65 50.97,-35.18 52.31,-32.78 53.97,-30.38 55.73,-27.98 57.43,-25.61 59.04,-23.24 60.6,-20.87 62.15,-18.47 63.72,-16.05 65.3,-13.63 66.89,-11.22 68.55,-8.83 70.43,-6.44 72.71,-4.03 75.55,-1.58 78.96,0.93 82.77,3.49 86.68,6.05 90.35,8.61 93.46,11.12 95.89,13.6 97.63,16.05 98.79,18.49 99.49,20.96 99.79,23.46 99.75,25.99 99.45,28.49 99.03,30.93 98.62,33.27 98.2,35.53 97.69,37.79 97.23,40.13 97.27,42.6 98.16,45.1 99.26,47.35" fill="none" stroke="rgb(44, 34, 43)" stroke-width="2" stroke-linejoin="round" filter="url(#fuzzy)" /><polyline points="48.09,-40.49 51.7,-37.86 58.58,-35.69 63.68,-33.64 65.15,-31.64 64.23,-29.63 62.93,-27.58 62.65,-25.43 63.94,-23.16 66.57,-20.76 69.86,-18.26 73.11,-15.7 75.94,-13.09 78.39,-10.45 80.79,-7.82 83.44,-5.2 86.34,-2.59 89.13,-0.02 91.25,2.49 92.31,4.91 92.37,7.23 91.94,9.46 91.8,11.66 92.56,13.94 94.52,16.42 97.99,19.15 103.69,21.5" fill="none" stroke="rgb(44, 34, 43)" stroke-width="2" stroke-linejoin="round" filter="url(#fuzzy)" /><polyline points="47.27,-42.54 49.22,-40.21 53.82,-37.74 59.38,-35.32 63.7,-32.92 66.21,-30.53 67.25,-28.15 67.33,-25.79 66.87,-23.44 66.21,-21.09 65.69,-18.7 65.6,-16.29 66.12,-13.88 67.3,-11.49 69.05,-9.13 71.17,-6.78 73.44,-4.42 75.73,-2 78.01,0.49 80.34,3.06 82.75,5.68 85.2,8.27 87.56,10.79 89.64,13.21 91.33,15.53 92.68,17.85 93.88,20.21 95.38,22.65 97.61,25.31 99.52,28.94" fill="none" stroke="rgb(44, 34, 43)" stroke-width="2" stroke-linejoin="round" filter="url(#fuzzy)" /><polyline points="46.8,-43.69 49.64,-40.74 52.34,-38.18 54.4,-35.92 55.98,-33.81 57.72,-31.79 60.11,-29.78 63,-27.74 65.94,-25.61 68.63,-23.36 71.07,-21 73.48,-18.52 75.99,-15.97 78.56,-13.37 81.03,-10.75 83.38,-8.13 85.78,-5.51 88.46,-2.89 91.47,-0.28 94.43,2.3 96.64,4.76 97.66,7.01 97.87,9.05 96.69,10.76" fill="none" stroke="rgb(44, 34, 43)" stroke-width="2" stroke-linejoin="round" filter="url(#fuzzy)" /><polyline points="46.8,-43.69 52.09,-40.72 53.29,-38.14 54.27,-35.86 55.79,-33.74 57.63,-31.69 59.79,-29.66 62.54,-27.58 66.01,-25.41 69.9,-23.12 73.57,-20.72 76.38,-18.22 78.02,-15.65 78.67,-13.04 78.85,-10.41 79.21,-7.77 80.2,-5.14 81.92,-2.53 84.18,0.03 86.63,2.54 88.96,4.96 90.94,7.3 92.41,9.59 93.25,11.86 93.45,14.17 93.43,16.57 94.04,19.02 96.15,21.4 99.76,23.61 103.39,25.91" fill="none" stroke="rgb(44, 34, 43)" stroke-width="2" stroke-linejoin="round" filter="url(#fuzzy)" /><polyline points="46.21,-44.97 47.18,-43.11 48.2,-40.7 49.08,-38.3 49.82,-36.03 50.48,-33.9 51.11,-31.83 51.74,-29.79 52.36,-27.72 52.96,-25.57 53.54,-23.3 54.09,-20.93 54.6,-18.45 55.05,-15.89 55.45,-13.29 55.78,-10.66 56.06,-8.03 56.31,-5.4 56.53,-2.78 56.72,-0.19 56.9,2.35 57.05,4.79 57.16,7.1 57.2,9.28 57.12,11.36 56.98,13.28 57.01,14.49" fill="none" stroke="rgb(44, 34, 43)" stroke-width="2" stroke-linejoin="round" filter="url(#fuzzy)" /><polyline points="46.21,-44.97 50.49,-43.1 51.54,-40.68 52.31,-38.27 53.04,-36 53.81,-33.86 54.93,-31.78 56.59,-29.73 58.69,-27.64 60.89,-25.46 62.79,-23.18 64.18,-20.79 65.09,-18.3 65.71,-15.74 66.32,-13.13 67.16,-10.5 68.39,-7.86 70.05,-5.23 72.09,-2.62 74.33,-0.05 76.48,2.46 78.24,4.89 79.46,7.23 80.23,9.5 80.96,11.75 82.13,14.06 83.96,16.48 86.08,19.01 87.49,21.38 88.05,23.21" fill="none" stroke="rgb(44, 34, 43)" stroke-width="2" stroke-linejoin="round" filter="url(#fuzzy)" /><polyline points="45.11,-47 47.05,-45.13 48.73,-43.02 49.76,-40.7 50.74,-38.36 52.13,-36.11 54,-33.95 56.1,-31.86 58.11,-29.78 59.89,-27.68 61.48,-25.49 63.01,-23.21 64.55,-20.82 66.05,-18.34 67.41,-15.78 68.58,-13.17 69.63,-10.54 70.77,-7.9 72.24,-5.27 74.21,-2.66 76.63,-0.08 79.22,2.43 81.56,4.87 83.29,7.21 84.33,9.48 84.95,11.74 85.68,14.05 86.92,16.48 88.5,19 89.7,21.38 90.15,23.21" fill="none" stroke="rgb(44, 34, 43)" stroke-width="2" stroke-linejoin="round" filter="url(#fuzzy)" /><polyline points="43.87,-50.1 44.04,-47.5 43.85,-45.29 43.43,-43.07 42.78,-40.77 42.36,-38.47 42.52,-36.22 43.2,-34.06 43.9,-31.96 44.1,-29.88 43.5,-27.77 42.16,-25.59 40.38,-23.32 38.54,-20.94 36.91,-18.47 35.53,-15.92 34.28,-13.32 32.94,-10.69 31.41,-8.05 29.78,-5.41 28.33,-2.79 27.38,-0.2 27.09,2.33 27.25,4.78 27.27,7.1 26.43,9.32 24.2,11.49 20.88,13.71 17.97,16.24 17.83,20.11" fill="none" stroke="rgb(44, 34, 43)" stroke-width="2" stroke-linejoin="round" filter="url(#fuzzy)" /><polyline points="44.23,-49.26 45.38,-47.43 47.15,-46.15 50.41,-44.61 54.71,-42.67 59.19,-40.46 63.58,-38.11 68.15,-35.72 73.13,-33.31 78.27,-30.92 82.89,-28.54 86.29,-26.17 88.06,-23.82 88.27,-21.46 87.44,-19.08 86.33,-16.68 85.74,-14.27 86.19,-11.87 87.84,-9.52 90.42,-7.2 93.53,-4.89 96.83,-2.52 100.21,-0.05 103.69,2.56 107.16,5.31 110.36,8.1 113.02,10.74 115.08,13.01 118.06,14.82" fill="none" stroke="rgb(44, 34, 43)" stroke-width="2" stroke-linejoin="round" filter="url(#fuzzy)" /><polyline points="41.67,-53.43 47.23,-51.33 47.33,-49.44 47.1,-47.78 47.65,-46.18 48.83,-44.45 50.18,-42.49 51.35,-40.33 52.27,-38.04 53.06,-35.67 53.94,-33.27 55.08,-30.86 56.57,-28.47 58.42,-26.08 60.56,-23.69 62.87,-21.3 65.2,-18.9 67.43,-16.49 69.42,-14.08 71.09,-11.67 72.37,-9.28 73.27,-6.89 73.84,-4.48 74.16,-2.04 74.33,0.47 74.42,3.03 74.51,5.62 74.64,8.2 74.85,10.73 75.15,13.19 75.54,15.59 75.96,17.97 76.34,20.41 76.57,22.94 76.59,25.62 76.52,28.44 76.62,31.31 76.15,33.96" fill="none" stroke="rgb(44, 34, 43)" stroke-width="2" stroke-linejoin="round" filter="url(#fuzzy)" /><polyline points="39.66,-57.23 41.62,-54.11 43.04,-51.68 44.24,-49.68 45.34,-47.94 46.42,-46.27 47.54,-44.51 48.69,-42.57 49.8,-40.44 50.79,-38.18 51.64,-35.83 52.37,-33.45 53.03,-31.05 53.7,-28.67 54.45,-26.29 55.29,-23.92 56.22,-21.54 57.18,-19.15 58.12,-16.74 59.01,-14.33 59.8,-11.93 60.51,-9.56 61.15,-7.22 61.74,-4.87 62.3,-2.48 62.82,0.01 63.27,2.62 63.67,5.32 64.04,8.05 64.34,10.64 64.51,12.95 64.49,14.95 64.5,16.81" fill="none" stroke="rgb(44, 34, 43)" stroke-width="2" stroke-linejoin="round" filter="url(#fuzzy)" /><polyline points="37.64,-60.22 39.42,-58.14 40.93,-56.18 42.31,-54.07 43.75,-51.97 45.36,-50.02 47.12,-48.22 48.97,-46.49 50.76,-44.71 52.42,-42.8 53.88,-40.72 55.13,-38.5 56.2,-36.19 57.18,-33.83 58.15,-31.45 59.2,-29.08 60.38,-26.72 61.67,-24.38 63.01,-22.05 64.34,-19.69 65.62,-17.27 66.85,-14.79 68.05,-12.31 69.13,-9.96 69.85,-7.85 70.22,-5.9 71.57,-3.19" fill="none" stroke="rgb(44, 34, 43)" stroke-width="2" stroke-linejoin="round" filter="url(#fuzzy)" /><polyline points="37.64,-60.22 40.32,-58.14 42.4,-56.19 43.99,-54.08 45.92,-51.98 48.47,-50.03 51.39,-48.24 54.25,-46.51 56.81,-44.74 59.12,-42.84 61.33,-40.76 63.6,-38.55 65.95,-36.24 68.31,-33.88 70.54,-31.5 72.5,-29.13 74.16,-26.78 75.64,-24.45 77.11,-22.13 78.83,-19.78 81.02,-17.36 83.77,-14.85 86.94,-12.31 90.03,-9.92 92.59,-8 95.1,-7.36" fill="none" stroke="rgb(44, 34, 43)" stroke-width="2" stroke-linejoin="round" filter="url(#fuzzy)" /><polyline points="37.69,-60.3 38.38,-59.08 39.4,-57.58 40.6,-55.75 41.8,-53.8 42.97,-51.81 44.11,-49.8 45.27,-47.73 46.44,-45.61 47.61,-43.42 48.76,-41.2 49.85,-38.97 50.87,-36.75 51.81,-34.58 52.7,-32.45 53.53,-30.34 54.31,-28.23 55.03,-26.07 55.69,-23.83 56.29,-21.49 56.85,-19.04 57.39,-16.5 57.93,-13.89 58.45,-11.25 58.97,-8.6 59.47,-5.97 59.92,-3.35 60.28,-0.62 60.52,2.38 60.77,5.39" fill="none" stroke="rgb(44, 34, 43)" stroke-width="2" stroke-linejoin="round" filter="url(#fuzzy)" /><polyline points="36.03,-62.26 38.04,-60.2 39.44,-58.2 40.84,-56.15 42.31,-54.05 43.75,-51.99 45.12,-50.04 46.43,-48.19 47.72,-46.38 49.01,-44.52 50.32,-42.55 51.6,-40.44 52.82,-38.21 53.96,-35.9 55.01,-33.54 55.97,-31.15 56.84,-28.76 57.63,-26.38 58.36,-23.99 59.03,-21.6 59.7,-19.2 60.37,-16.79 61.09,-14.38 61.84,-11.98 62.62,-9.6 63.42,-7.23 64.2,-4.86 64.96,-2.44 65.71,0.06 66.42,2.66 67.09,5.33 67.68,8.01 68.23,10.58 68.74,12.96 69.12,15.16 69.15,17.4 68.77,20.19" fill="none" stroke="rgb(44, 34, 43)" stroke-width="2" stroke-linejoin="round" filter="url(#fuzzy)" /><polyline points="36.03,-62.26 38.04,-60.2 40.32,-58.2 42.7,-56.15 44.93,-54.05 46.77,-51.99 48.09,-50.04 49.03,-48.19 49.79,-46.38 50.55,-44.52 51.38,-42.55 52.27,-40.44 53.26,-38.21 54.4,-35.9 55.78,-33.54 57.45,-31.15 59.37,-28.76 61.45,-26.38 63.5,-23.99 65.37,-21.6 66.93,-19.2 68.15,-16.79 69.06,-14.38 69.75,-11.98 70.31,-9.6 70.83,-7.23 71.33,-4.86 71.84,-2.44 72.34,0.06 72.78,2.66 73.13,5.33 73.35,8.01 73.51,10.58 73.76,12.96 74.33,15.16 75.33,17.4 76.98,20.19" fill="none" stroke="rgb(44, 34, 43)" stroke-width="2" stroke-linejoin="round" filter="url(#fuzzy)" /><polyline points="36.37,-61.72 37.74,-60.39 38.64,-59.06 39.69,-57.49 40.89,-55.71 42.17,-53.79 43.52,-51.81 45,-49.79 46.69,-47.71 48.65,-45.58 50.83,-43.39 53.13,-41.17 55.38,-38.94 57.41,-36.73 59.11,-34.54 60.51,-32.4 61.71,-30.26 62.86,-28.12 64.05,-25.92 65.3,-23.66 66.55,-21.3 67.74,-18.84 68.84,-16.3 69.87,-13.7 70.9,-11.07 72.01,-8.41 73.24,-5.76 74.56,-3.11 75.9,-0.46 77.15,2.14 78.25,4.64 79.25,6.94 80.6,9.02 83.35,10.76" fill="none" stroke="rgb(44, 34, 43)" stroke-width="2" stroke-linejoin="round" filter="url(#fuzzy)" /><polyline points="33.78,-64.9 35.92,-62.43 37.59,-60.67 39.01,-59.11 40.31,-57.46 41.6,-55.67 42.97,-53.77 44.48,-51.8 46.16,-49.77 48.07,-47.69 50.28,-45.55 52.82,-43.36 55.62,-41.14 58.51,-38.92 61.3,-36.7 63.85,-34.52 66.12,-32.35 68.15,-30.2 70.06,-28.03 71.94,-25.81 73.88,-23.52 75.9,-21.14 77.96,-18.68 80.01,-16.15 81.98,-13.55 83.87,-10.92 85.75,-8.27 87.78,-5.62 90.13,-2.98 92.9,-0.37 95.99,2.18 99.07,4.65 101.69,7 103.45,9.25 104.17,11.44 103.98,13.68 103.39,16.22 103.58,20.11" fill="none" stroke="rgb(44, 34, 43)" stroke-width="2" stroke-linejoin="round" filter="url(#fuzzy)" /><polyline points="33.78,-64.9 47.03,-62.43 47.26,-60.67 45.84,-59.11 44.98,-57.46 45.15,-55.67 46.67,-53.77 49.69,-51.8 53.96,-49.77 58.88,-47.69 63.77,-45.55 68.19,-43.36 72,-41.14 75.21,-38.92 77.84,-36.7 79.81,-34.52 80.99,-32.35 81.36,-30.2 81.08,-28.03 80.49,-25.81 79.99,-23.52 79.89,-21.14 80.37,-18.68 81.52,-16.15 83.38,-13.55 86.02,-10.92 89.51,-8.27 93.84,-5.62 98.83,-2.98 104.11,-0.37 109.07,2.18 113.09,4.65 115.73,7 117.05,9.25 117.7,11.44 118.46,13.68 119.22,16.22 118.53,20.11" fill="none" stroke="rgb(44, 34, 43)" stroke-width="2" stroke-linejoin="round" filter="url(#fuzzy)" /><polyline points="33.79,-64.99 37.85,-63.57 39.48,-61.96 40.58,-60.17 41.83,-58.26 43.63,-56.26 46.11,-54.21 49.11,-52.2 52.32,-50.26 55.37,-48.41 58.01,-46.59 60.09,-44.73 61.6,-42.77 62.64,-40.69 63.42,-38.49 64.24,-36.2 65.42,-33.85 67.2,-31.47 69.64,-29.09 72.64,-26.72 75.89,-24.36 79.03,-21.99 81.73,-19.6 83.82,-17.18 85.33,-14.74 86.47,-12.3 87.58,-9.94 89,-7.67 90.81,-5.45 92.73,-3.15 94.52,-0.79 98.18,1.03" fill="none" stroke="rgb(44, 34, 43)" stroke-width="2" stroke-linejoin="round" filter="url(#fuzzy)" /><polyline points="33.79,-64.99 35.02,-63.57 37.01,-61.96 39.93,-60.17 43.25,-58.25 46.47,-56.24 49.49,-54.2 52.31,-52.19 54.89,-50.25 57.17,-48.39 59.14,-46.56 60.89,-44.7 62.51,-42.74 64.06,-40.65 65.58,-38.45 67.16,-36.16 68.98,-33.81 71.22,-31.43 73.96,-29.05 77.08,-26.68 80.34,-24.31 83.48,-21.93 86.4,-19.54 89.22,-17.12 92.2,-14.69 95.49,-12.27 98.99,-9.9 102.26,-7.61 104.83,-5.36 106.52,-3.09 107.75,-0.8 109.28,1.39 111.33,3.57" fill="none" stroke="rgb(44, 34, 43)" stroke-width="2" stroke-linejoin="round" filter="url(#fuzzy)" /><polyline points="32.95,-66.08 34.19,-64.9 36.48,-63.5 39.11,-61.91 41.4,-60.14 43.26,-58.24 44.92,-56.25 46.57,-54.23 48.18,-52.23 49.58,-50.29 50.7,-48.42 51.55,-46.56 52.3,-44.67 53.13,-42.69 54.15,-40.6 55.39,-38.4 56.83,-36.11 58.43,-33.76 60.16,-31.39 61.99,-29 63.9,-26.62 65.77,-24.24 67.47,-21.86 68.87,-19.46 69.92,-17.04 70.65,-14.62 71.2,-12.21 71.77,-9.83 72.53,-7.51 73.57,-5.2 74.88,-2.86 76.32,-0.42 77.68,2.19 78.75,5.09 79.49,8.23 79.64,10.58" fill="none" stroke="rgb(44, 34, 43)" stroke-width="2" stroke-linejoin="round" filter="url(#fuzzy)" /><polyline points="31.01,-67.84 32.56,-66.34 34.24,-64.55 35.92,-62.73 37.5,-61.02 38.97,-59.37 40.4,-57.71 41.83,-55.96 43.28,-54.12 44.76,-52.22 46.3,-50.25 47.97,-48.23 49.78,-46.15 51.68,-44.01 53.53,-41.81 55.18,-39.57 56.52,-37.33 57.62,-35.14 58.67,-33.02 59.91,-31.01 61.51,-29.08 63.34,-27.17 65.02,-24.96 65.87,-21.86" fill="none" stroke="rgb(44, 34, 43)" stroke-width="2" stroke-linejoin="round" filter="url(#fuzzy)" /><polyline points="31.01,-67.84 34.17,-66.34 36.98,-64.54 38.89,-62.72 41.01,-61 44.06,-59.36 47.94,-57.69 51.99,-55.93 55.42,-54.09 57.81,-52.18 59.25,-50.21 60.24,-48.18 61.35,-46.1 63.03,-43.95 65.45,-41.74 68.58,-39.51 72.19,-37.28 76.03,-35.09 79.9,-32.98 83.78,-30.95 87.95,-28.98 92.92,-26.99 99,-24.88 105.27,-22.61 108.3,-20.81" fill="none" stroke="rgb(44, 34, 43)" stroke-width="2" stroke-linejoin="round" filter="url(#fuzzy)" /><polyline points="31.01,-67.84 32.49,-66.31 34.09,-64.5 35.67,-62.66 37.1,-60.92 38.41,-59.24 39.65,-57.53 40.85,-55.74 42.01,-53.87 43.12,-51.92 44.19,-49.91 45.21,-47.84 46.19,-45.72 47.15,-43.54 48.08,-41.34 48.98,-39.11 49.85,-36.91 50.66,-34.72 51.41,-32.57 52.09,-30.43 52.71,-28.29 53.27,-26.1 53.79,-23.84 54.28,-21.49 54.75,-19.04 55.21,-16.5 55.67,-13.9 56.11,-11.25 56.53,-8.59 56.9,-5.94 57.18,-3.28 57.39,-0.58 57.56,2.15 57.73,4.68 57.82,6.29" fill="none" stroke="rgb(44, 34, 43)" stroke-width="2" stroke-linejoin="round" filter="url(#fuzzy)" /><polyline points="31.46,-67.24 37.68,-66.12 37.87,-64.9 37.8,-63.52 38.63,-61.96 40.14,-60.24 41.94,-58.39 43.86,-56.44 46,-54.44 48.46,-52.45 51.26,-50.52 54.28,-48.67 57.33,-46.88 60.22,-45.06 62.82,-43.16 65.03,-41.12 66.85,-38.94 68.41,-36.65 69.94,-34.3 71.77,-31.91 74.21,-29.52 77.41,-27.15 81.34,-24.83 85.71,-22.58 90.18,-20.45 94.3,-18.39 95.41,-15.86" fill="none" stroke="rgb(44, 34, 43)" stroke-width="2" stroke-linejoin="round" filter="url(#fuzzy)" /><polyline points="30.13,-68.88 32.17,-68.13 32.77,-67.26 33.62,-66.02 34.95,-64.5 36.65,-62.85 38.54,-61.19 40.41,-59.53 42.11,-57.84 43.6,-56.1 44.93,-54.27 46.22,-52.38 47.61,-50.43 49.16,-48.42 50.84,-46.36 52.56,-44.22 54.25,-42.01 55.87,-39.76 57.43,-37.49 58.97,-35.27 60.42,-33.12 61.64,-31.06 62.51,-29.24 63.58,-28.24" fill="none" stroke="rgb(44, 34, 43)" stroke-width="2" stroke-linejoin="round" filter="url(#fuzzy)" /><polyline points="27.64,-71.07 29.59,-69.27 31.85,-67.71 34.9,-66.32 38.51,-64.95 41.93,-63.51 44.53,-61.94 46.19,-60.23 47.26,-58.4 48.32,-56.48 49.81,-54.5 51.88,-52.54 54.34,-50.61 56.84,-48.74 59.1,-46.91 61.03,-45.06 62.78,-43.13 64.63,-41.09 66.81,-38.91 69.45,-36.63 72.5,-34.28 75.79,-31.9 79.09,-29.51 82.27,-27.14 85.27,-24.8 88.1,-22.52 90.65,-20.26 92.93,-17.89 95.68,-15.04 100.65,-11.11" fill="none" stroke="rgb(44, 34, 43)" stroke-width="2" stroke-linejoin="round" filter="url(#fuzzy)" /><polyline points="27.64,-71.07 29.2,-69.28 30.3,-67.74 31.13,-66.36 31.76,-65.01 32.15,-63.59 32.26,-62.05 32.13,-60.38 31.87,-58.57 31.56,-56.66 31.12,-54.68 30.39,-52.7 29.33,-50.77 28.14,-48.93 27.18,-47.18 26.79,-45.44 27,-43.62 27.52,-41.63 27.86,-39.45 27.62,-37.14 26.59,-34.77 24.82,-32.36 22.59,-29.77 20.9,-27.14" fill="none" stroke="rgb(44, 34, 43)" stroke-width="2" stroke-linejoin="round" filter="url(#fuzzy)" /><polyline points="26.27,-72.09 27.86,-70.8 29.84,-69.28 31.95,-67.8 33.85,-66.39 35.41,-64.98 36.71,-63.52 37.9,-61.94 39.08,-60.24 40.28,-58.42 41.49,-56.5 42.67,-54.54 43.81,-52.58 44.89,-50.66 45.91,-48.79 46.88,-46.95 47.85,-45.09 48.85,-43.15 49.91,-41.11 51.07,-38.93 52.34,-36.66 53.69,-34.31 55.08,-31.92 56.4,-29.53 57.58,-27.15 58.58,-24.82 59.46,-22.53 60.32,-20.26 61.2,-17.89 61.97,-15.04 62.59,-11.11" fill="none" stroke="rgb(44, 34, 43)" stroke-width="2" stroke-linejoin="round" filter="url(#fuzzy)" /><polyline points="26.27,-72.09 28.96,-70.8 31.51,-69.27 33,-67.78 33.97,-66.37 34.92,-64.96 36.09,-63.48 37.5,-61.89 39.07,-60.18 40.69,-58.35 42.3,-56.44 43.88,-54.48 45.42,-52.52 46.93,-50.59 48.43,-48.71 49.9,-46.84 51.34,-44.95 52.75,-42.99 54.14,-40.93 55.51,-38.75 56.87,-36.48 58.19,-34.13 59.44,-31.76 60.59,-29.37 61.63,-27 62.6,-24.64 63.56,-22.29 64.59,-19.91 65.73,-17.47 67.01,-14.95 68.43,-12.39 69.94,-9.97 71.34,-8.02 72.49,-7.36" fill="none" stroke="rgb(44, 34, 43)" stroke-width="2" stroke-linejoin="round" filter="url(#fuzzy)" /><polyline points="25.2,-73.32 26.47,-72.13 28.59,-70.79 31.42,-69.34 34.12,-67.9 36.1,-66.49 37.33,-65.09 38.18,-63.64 39.02,-62.09 40.16,-60.41 41.75,-58.62 43.89,-56.72 46.54,-54.76 49.57,-52.79 52.73,-50.86 55.71,-49.02 58.27,-47.24 60.42,-45.49 62.35,-43.65 64.4,-41.66 66.84,-39.48 69.66,-37.17 72.63,-34.79 75.38,-32.37 77.49,-29.78 78.29,-27.14" fill="none" stroke="rgb(44, 34, 43)" stroke-width="2" stroke-linejoin="round" filter="url(#fuzzy)" /><polyline points="22.78,-74.74 21.38,-73.43 23.16,-72.13 24.64,-70.74 25.43,-69.31 25.98,-67.87 26.71,-66.44 27.76,-64.99 29.04,-63.48 30.34,-61.87 31.52,-60.16 32.49,-58.34 33.3,-56.44 34.01,-54.51 34.66,-52.56 35.24,-50.63 35.69,-48.73 35.92,-46.84 35.91,-44.92 35.65,-42.93 35.19,-40.86 34.62,-38.68 34.05,-36.41 33.6,-34.08 33.31,-31.71 33.15,-29.33 33,-26.94 32.69,-24.57 32.08,-22.19 31.14,-19.79 29.91,-17.35 28.51,-14.88 27.03,-12.42 25.46,-10.04 23.73,-7.79 21.9,-5.6 20.39,-3.15 20.06,-0.2" fill="none" stroke="rgb(44, 34, 43)" stroke-width="2" stroke-linejoin="round" filter="url(#fuzzy)" /><polyline points="22.73,-74.89 23.24,-74.4 24.18,-73.5 25.02,-72.41 25.42,-71.21 25.1,-69.98 24.15,-68.73 23.07,-67.47 22.43,-66.12 22.54,-64.67 23.31,-63.13 24.3,-61.53 24.98,-59.9 24.88,-58.23 23.72,-56.5 21.53,-54.71 18.66,-52.84 15.76,-50.92 13.52,-48.95 12.27,-46.93 11.59,-44.86 10.41,-42.67 7.75,-40.19 3.67,-37.26" fill="none" stroke="rgb(44, 34, 43)" stroke-width="2" stroke-linejoin="round" filter="url(#fuzzy)" /><polyline points="22.73,-74.89 23.45,-74.39 25.06,-73.47 26.78,-72.36 28.38,-71.15 29.87,-69.9 31.3,-68.64 32.74,-67.33 34.21,-65.95 35.72,-64.47 37.23,-62.92 38.67,-61.29 40.02,-59.62 41.26,-57.9 42.41,-56.13 43.52,-54.29 44.65,-52.39 45.84,-50.42 47.13,-48.39 48.52,-46.3 50,-44.14 51.49,-41.94 52.93,-39.7 54.22,-37.46 55.32,-35.26 56.27,-33.12 57.13,-31.05 58.02,-29.05 58.92,-27.05 59.73,-24.92 60.38,-22.63 61.15,-20.81" fill="none" stroke="rgb(44, 34, 43)" stroke-width="2" stroke-linejoin="round" filter="url(#fuzzy)" /><polyline points="19.13,-77.09 22.79,-76.31 23.96,-75.39 25.34,-74.45 27.23,-73.45 29.2,-72.34 30.97,-71.17 32.58,-69.94 34.25,-68.68 36.19,-67.36 38.4,-65.97 40.76,-64.5 43.05,-62.95 45.11,-61.34 46.89,-59.67 48.46,-57.95 49.94,-56.17 51.46,-54.33 53.08,-52.43 54.86,-50.46 56.8,-48.43 58.95,-46.34 61.34,-44.19 63.97,-41.98 66.83,-39.74 69.8,-37.5 72.69,-35.29 75.27,-33.14 77.4,-31.08 79.09,-29.07 80.52,-27.06 81.95,-24.93 83.39,-22.64 84.29,-20.81" fill="none" stroke="rgb(44, 34, 43)" stroke-width="2" stroke-linejoin="round" filter="url(#fuzzy)" /><polyline points="19.13,-77.09 20.6,-76.32 22.94,-75.41 25.57,-74.48 28.63,-73.48 32.08,-72.39 35.44,-71.22 38.18,-70.01 40.06,-68.76 41.26,-67.47 42.13,-66.1 43.09,-64.65 44.43,-63.11 46.28,-61.52 48.66,-59.87 51.47,-58.18 54.52,-56.43 57.65,-54.62 60.72,-52.75 63.69,-50.81 66.55,-48.82 69.4,-46.76 72.43,-44.64 75.94,-42.41 80.2,-40.08 84.9,-37.72 88.68,-35.51 90.48,-33.62" fill="none" stroke="rgb(44, 34, 43)" stroke-width="2" stroke-linejoin="round" filter="url(#fuzzy)" /><polyline points="17.03,-77.9 18.76,-77.07 20.48,-76.31 22.48,-75.47 24.71,-74.5 26.99,-73.39 29.29,-72.17 31.61,-70.86 33.93,-69.49 36.19,-68.1 38.32,-66.68 40.24,-65.24 41.94,-63.74 43.48,-62.17 44.98,-60.5 46.59,-58.72 48.5,-56.85 50.83,-54.92 53.63,-52.96 56.83,-51.04 60.24,-49.17 63.63,-47.36 66.81,-45.57 69.75,-43.72 72.49,-41.72 75.03,-39.55 77.22,-37.23 78.83,-34.84 80.1,-32.4 82.07,-29.8 86.32,-27.14" fill="none" stroke="rgb(44, 34, 43)" stroke-width="2" stroke-linejoin="round" filter="url(#fuzzy)" /><polyline points="17.03,-77.9 20.07,-77.07 21.59,-76.3 23.52,-75.46 26.17,-74.48 29.17,-73.37 32.05,-72.14 34.51,-70.82 36.49,-69.45 38.06,-68.05 39.4,-66.63 40.68,-65.17 42.06,-63.66 43.64,-62.07 45.48,-60.39 47.57,-58.61 49.86,-56.74 52.32,-54.81 54.87,-52.87 57.41,-50.95 59.84,-49.07 62.05,-47.23 63.97,-45.37 65.66,-43.45 67.25,-41.43 68.9,-39.26 70.8,-36.98 73.02,-34.61 75.51,-32.2 78.1,-29.78 80.52,-27.36 82.63,-24.94 84.72,-22.48 87.02,-20.06" fill="none" stroke="rgb(44, 34, 43)" stroke-width="2" stroke-linejoin="round" filter="url(#fuzzy)" /><polyline points="15.85,-78.73 20.48,-77.46 22.06,-76.43 23.34,-75.48 24.71,-74.53 26.16,-73.54 27.67,-72.46 29.27,-71.31 30.99,-70.12 32.92,-68.89 35.14,-67.62 37.72,-66.29 40.67,-64.86 43.98,-63.34 47.6,-61.76 51.48,-60.14 55.47,-58.49 59.3,-56.79 62.66,-55 65.33,-53.14 67.53,-51.22 69.76,-49.25 72.27,-47.13 74.53,-44.97" fill="none" stroke="rgb(44, 34, 43)" stroke-width="2" stroke-linejoin="round" filter="url(#fuzzy)" /><polyline points="15.29,-79.01 18.09,-78.02 21.29,-77.17 23.89,-76.37 25.88,-75.52 27.73,-74.56 29.77,-73.48 32.04,-72.29 34.49,-71.01 37.07,-69.67 39.73,-68.29 42.44,-66.91 45.13,-65.51 47.74,-64.07 50.22,-62.57 52.63,-60.97 55.14,-59.25 58.01,-57.39 61.32,-55.4 64.89,-53.31 68.41,-51.16 71.9,-49.09 76,-47.29 81.67,-46.27" fill="none" stroke="rgb(44, 34, 43)" stroke-width="2" stroke-linejoin="round" filter="url(#fuzzy)" /><polyline points="15.29,-79.01 17.25,-78.01 19.17,-77.15 20.82,-76.33 22.34,-75.46 23.89,-74.48 25.56,-73.38 27.39,-72.17 29.29,-70.87 31.15,-69.51 32.89,-68.12 34.49,-66.71 36.01,-65.26 37.54,-63.76 39.15,-62.18 40.82,-60.51 42.54,-58.74 44.26,-56.87 45.93,-54.94 47.51,-52.99 48.97,-51.06 50.31,-49.19 51.54,-47.38 52.7,-45.59 53.89,-43.73 55.19,-41.73 56.66,-39.56 58.35,-37.24 60.19,-34.85 62.06,-32.41 63.79,-29.8 65.05,-27.14" fill="none" stroke="rgb(44, 34, 43)" stroke-width="2" stroke-linejoin="round" filter="url(#fuzzy)" /><polyline points="15.29,-79.01 17.2,-78.02 19.59,-77.17 22.72,-76.36 26.02,-75.51 28.83,-74.55 30.95,-73.47 32.75,-72.27 34.72,-70.99 37.23,-69.64 40.35,-68.27 43.91,-66.88 47.68,-65.47 51.44,-64.02 55.13,-62.51 58.75,-60.9 62.41,-59.16 66.24,-57.3 70.43,-55.32 75.23,-53.25 80.8,-51.17 86.86,-49.22 92.29,-47.59 95.62,-46.52 97.84,-46.15" fill="none" stroke="rgb(44, 34, 43)" stroke-width="2" stroke-linejoin="round" filter="url(#fuzzy)" /><polyline points="14.51,-79.17 16.3,-78.43 18.27,-77.46 20.12,-76.49 21.81,-75.53 23.44,-74.57 25.09,-73.57 26.85,-72.49 28.74,-71.36 30.78,-70.17 32.92,-68.95 35.12,-67.68 37.32,-66.35 39.49,-64.93 41.66,-63.41 43.92,-61.83 46.38,-60.22 49.1,-58.59 51.98,-56.89 54.72,-55.11 57.01,-53.24 58.78,-51.36 60.7,-49.42 64.29,-47" fill="none" stroke="rgb(44, 34, 43)" stroke-width="2" stroke-linejoin="round" filter="url(#fuzzy)" /><polyline points="12.13,-80.08 14.24,-79.27 16.24,-78.41 18.21,-77.47 20.2,-76.51 22.21,-75.55 24.24,-74.57 26.32,-73.55 28.48,-72.47 30.8,-71.33 33.29,-70.14 35.92,-68.91 38.56,-67.63 41.08,-66.28 43.4,-64.85 45.5,-63.33 47.47,-61.75 49.45,-60.13 51.6,-58.46 54.09,-56.74 56.99,-54.95 60.2,-53.08 63.43,-51.16 66.38,-49.18 69.07,-47.17 72.09,-45.24 75.48,-43.69" fill="none" stroke="rgb(44, 34, 43)" stroke-width="2" stroke-linejoin="round" filter="url(#fuzzy)" /><polyline points="12.13,-80.08 13.88,-79.27 15.61,-78.39 17.13,-77.45 18.54,-76.48 19.91,-75.51 21.23,-74.52 22.5,-73.49 23.78,-72.39 25.08,-71.24 26.43,-70.03 27.78,-68.78 29.08,-67.47 30.3,-66.09 31.43,-64.63 32.46,-63.1 33.41,-61.51 34.32,-59.86 35.2,-58.15 36.02,-56.39 36.78,-54.57 37.45,-52.68 38,-50.73 38.42,-48.72 38.72,-46.65 38.91,-44.5 38.98,-42.28 38.95,-40 38.81,-37.69 38.61,-35.43 38.44,-33.22 38.44,-30.95 38.26,-28.4" fill="none" stroke="rgb(44, 34, 43)" stroke-width="2" stroke-linejoin="round" filter="url(#fuzzy)" /><polyline points="12.94,-79.79 15.02,-79.37 16.55,-78.75 18.33,-78.01 20.11,-77.22 21.76,-76.4 23.36,-75.51 25.06,-74.54 26.94,-73.47 28.98,-72.29 31.18,-71.03 33.48,-69.69 35.87,-68.32 38.32,-66.93 40.79,-65.52 43.23,-64.07 45.61,-62.55 47.92,-60.93 50.25,-59.19 52.73,-57.33 55.48,-55.35 58.46,-53.28 61.44,-51.2 64.18,-49.25 66.53,-47.6 68.48,-46.52 71.06,-46.15" fill="none" stroke="rgb(44, 34, 43)" stroke-width="2" stroke-linejoin="round" filter="url(#fuzzy)" /><polyline points="10.04,-80.85 12.42,-80.05 14.81,-79.41 17.34,-78.74 19.86,-78 22.36,-77.22 24.99,-76.4 27.88,-75.51 30.99,-74.53 34.17,-73.45 37.26,-72.28 40.18,-71.02 42.98,-69.69 45.73,-68.32 48.49,-66.92 51.31,-65.5 54.22,-64.04 57.26,-62.5 60.46,-60.87 63.72,-59.13 66.91,-57.27 69.82,-55.3 72.4,-53.26 74.79,-51.23 77.26,-49.32 79.89,-47.65 82.54,-46.26 85.48,-44.89 89.95,-42.54" fill="none" stroke="rgb(44, 34, 43)" stroke-width="2" stroke-linejoin="round" filter="url(#fuzzy)" /><polyline points="5.34,-81.84 7.57,-81.45 9.33,-81.02 10.95,-80.52 12.6,-79.92 14.34,-79.21 16.17,-78.42 18.01,-77.55 19.8,-76.64 21.51,-75.7 23.16,-74.73 24.78,-73.71 26.41,-72.65 28.08,-71.53 29.79,-70.36 31.5,-69.16 33.22,-67.91 34.92,-66.6 36.63,-65.19 38.32,-63.67 39.95,-62.08 41.47,-60.49 42.89,-58.94 44.36,-57.32 46.16,-55.4 48.39,-53.14" fill="none" stroke="rgb(44, 34, 43)" stroke-width="2" stroke-linejoin="round" filter="url(#fuzzy)" /><polyline points="5.34,-81.84 7.56,-81.45 9.62,-81.02 11.65,-80.51 13.62,-79.91 15.57,-79.21 17.59,-78.41 19.69,-77.54 21.82,-76.63 23.9,-75.68 25.91,-74.71 27.88,-73.69 29.85,-72.62 31.81,-71.5 33.77,-70.33 35.73,-69.12 37.72,-67.86 39.79,-66.54 41.94,-65.12 44.13,-63.61 46.28,-62.03 48.34,-60.43 50.38,-58.82 52.59,-57.16 55.16,-55.31 58.08,-53.29 61.45,-51.43" fill="none" stroke="rgb(44, 34, 43)" stroke-width="2" stroke-linejoin="round" filter="url(#fuzzy)" /><polyline points="5.34,-81.84 7.53,-81.45 9.37,-81.02 11.11,-80.51 12.85,-79.91 14.61,-79.2 16.39,-78.4 18.14,-77.53 19.88,-76.61 21.59,-75.67 23.29,-74.69 25,-73.67 26.73,-72.59 28.46,-71.47 30.18,-70.3 31.86,-69.08 33.48,-67.81 35.04,-66.48 36.56,-65.06 38.09,-63.55 39.63,-61.98 41.2,-60.37 42.77,-58.74 44.35,-57.05 45.93,-55.24 47.48,-53.36 48.86,-51.57 50.02,-50.1" fill="none" stroke="rgb(44, 34, 43)" stroke-width="2" stroke-linejoin="round" filter="url(#fuzzy)" /><polyline points="3.22,-82.12 5.32,-81.8 7.3,-81.46 9.11,-81.06 10.81,-80.58 12.47,-80.03 14.14,-79.43 15.87,-78.76 17.69,-78.05 19.58,-77.29 21.5,-76.47 23.37,-75.59 25.17,-74.62 26.92,-73.57 28.68,-72.42 30.54,-71.19 32.53,-69.88 34.65,-68.52 36.81,-67.14 38.88,-65.74 40.75,-64.31 42.41,-62.82 43.95,-61.24 45.58,-59.54 47.47,-57.7 49.75,-55.71 52.39,-53.56 55.17,-51.31 57.16,-49.26" fill="none" stroke="rgb(44, 34, 43)" stroke-width="2" stroke-linejoin="round" filter="url(#fuzzy)" /><polyline points="1.39,-82.09 3.33,-81.99 5.37,-81.76 7.25,-81.44 9.05,-81.04 10.86,-80.56 12.7,-80.02 14.55,-79.42 16.4,-78.76 18.26,-78.04 20.17,-77.28 22.15,-76.46 24.2,-75.57 26.33,-74.6 28.57,-73.55 30.96,-72.4 33.52,-71.16 36.22,-69.86 38.94,-68.51 41.54,-67.12 43.85,-65.71 45.82,-64.27 47.53,-62.76 49.16,-61.16 50.95,-59.45 53.1,-57.6 55.66,-55.6 58.46,-53.46 61.21,-51.23 63.69,-48.96 65.27,-46.57" fill="none" stroke="rgb(44, 34, 43)" stroke-width="2" stroke-linejoin="round" filter="url(#fuzzy)" />
    </g>
    
        <g id="lineNose">
        <path d="M -9,30.69 Q 6.67, 43.47 -1.165, -4.162" fill="none" stroke="black" stroke-width="3" stroke-linejoin="round" filter="url(#fuzzy)"></path>
        </g>
      
    <g id="mouth">
      <polyline points="29.15,48.24 29.17,48.35 29.27,48.34 29.37,48.74 29.3,48.98 29.46,49.66 29.45,49.88 29.39,50.22 29.22,51.08 29.28,50.68 29.37,50.87 28.97,52.07 29.16,51.45 28.93,52.21 29.02,52 28.35,53.42 28.4,53.33 28.06,53.89 28,54.1 27.51,54.76 27.97,54.13 27.32,55.09 27.45,54.9 27.14,55.16 26.72,55.69 25.87,56.7 25.83,56.72 25.62,56.93 24.96,57.47 24.3,57.98 23.93,58.33 23.82,58.37 23.97,58.28 23.27,58.77 22.97,58.97 22.74,59.14 22.09,59.53 21.84,59.7 21.66,59.8 20.77,60.31 20.16,60.63 20.41,60.49 19.16,61.11 18.17,61.56 17.46,61.84 17.59,61.79 17.43,61.86 16.95,62.04 16.12,62.32 16.52,62.19 14.99,62.68 14.52,62.81 14.3,62.87 13.04,63.18 13.9,62.97 13.48,63.08 12.84,63.22 12.21,63.36 11.36,63.51 9.55,63.73 9.12,63.79 8.87,63.78 9.02,63.77 7.52,63.89 8.06,63.85 7.87,63.86 5.82,63.82 5.73,63.84 5.23,63.81 5.03,63.81 4.31,63.71 3.75,63.67 3.42,63.56 2.57,63.46 2.96,63.54 2.53,63.37 2.5,63.45 1.19,63.07 0.88,62.99 0.23,62.67 0.69,62.86 0.6,62.87 -0.86,62.18 -1.2,62 -1.19,61.98 -1.81,61.69 -2.02,61.46 -2.17,61.39 -2.14,61.46 -2.39,61.24 -2.56,60.98 -3.12,60.55 -3.17,60.45 -3.42,60.11 -3.46,60.11 -3.64,59.84 -4.15,58.96 -4.26,58.98 -4.13,59.13 -4.46,58.39 -4.47,58.28 -4.62,57.69 -4.62,57.67 -4.77,57.19 -4.81,56.98 -4.69,56.22 -4.81,56.75 -4.69,56.09 -4.71,55.28 -4.61,54.94 -4.54,54.91 -4.45,54.39 -4.64,54.91 -4.17,53.9 -4.25,53.91 -4.07,53.46 -3.53,52.48 -3.97,53.23 -3.06,51.8 -2.78,51.45 -2.91,51.48 -2.82,51.36 -2.73,51.24 -2.36,50.88 -1.76,50.16 -1.1,49.52 -1,49.41 -1.5,49.9 -1,49.46 -0.21,48.69 -0.52,48.97 -0.06,48.57 1.17,47.68 1.41,47.49 1.49,47.41 2.55,46.76 2.83,46.58 2.38,46.84 4.2,45.82 3.56,46.18 5.24,45.32 5.25,45.32 4.51,45.68 5.29,45.3 6.11,44.93 6.93,44.59 7.03,44.54 7.51,44.36 9.07,43.82 9.31,43.75 9.73,43.63 10.16,43.51 11.1,43.26 11.24,43.23 11.67,43.13 12.92,42.87 13.82,42.72 13.7,42.76 14.45,42.65 14.37,42.65 14.79,42.59 15.15,42.58 16.33,42.46 16.71,42.47 16.99,42.44 16.54,42.45 17.99,42.44 17.76,42.41 19.88,42.49 19.49,42.5 19.89,42.5 20.54,42.56 20.88,42.66 21.36,42.73 21.33,42.68 22.11,42.88 22.87,43.03 23.08,43.06 23.5,43.18 23.56,43.25 24.66,43.59 24.3,43.46 24.43,43.6 25.49,44.07 26.11,44.35 25.83,44.18 25.86,44.27 26.62,44.71 26.88,44.83 27.36,45.38 27.34,45.3 27.56,45.44 27.59,45.55 28.12,46 28.33,46.35 28.61,46.69 28.86,47.24 28.82,47.37 28.82,47.18 29.1,47.83" fill="rgb(215,127,140)" stroke="black" stroke-width="3" stroke-linejoin="round" filter="url(#fuzzy)" />
    </g>
  </svg>
  