
  <svg viewBox="-100 -100 200 200" xmlns="http://www.w3.org/2000/svg" width="500" height="500" id="face-svg">
    <defs>
      <clipPath id="leftEyeClipPath">
        <polyline points="31.87,4.45 31.6,4 31.3,3.55 30.97,3.09 30.61,2.64 30.21,2.18 29.78,1.73 29.32,1.28 28.82,0.85 28.29,0.42 27.72,0 27.12,-0.4 26.48,-0.78 25.81,-1.16 25.1,-1.51 24.36,-1.85 23.76,-2.44 23.09,-2.99 22.35,-3.5 21.55,-3.97 20.69,-4.39 19.76,-4.77 18.77,-5.11 17.73,-5.4 16.63,-5.64 15.48,-5.84 14.28,-5.99 13.04,-6.11 11.77,-6.17 10.45,-6.2 9.11,-6.19 7.74,-6.13 6.35,-6.04 4.94,-5.92 3.51,-5.76 2.08,-5.57 0.64,-5.35 -0.8,-5.1 -2.24,-4.82 -3.67,-4.53 -5.09,-4.21 -6.5,-3.87 -7.89,-3.51 -9.26,-3.13 -10.61,-2.75 -11.93,-2.35 -13.23,-1.94 -14.5,-1.52 -15.73,-1.1 -16.93,-0.67 -18.09,-0.24 -19.22,0.19 -20.31,0.62 -21.36,1.06 -22.37,1.48 -23.34,1.91 -24.27,2.33 -25.16,2.74 -26.01,3.15 -26.83,3.55 -27.61,3.94 -28.35,4.32 -29.05,4.7 -29.72,5.06 -30.37,5.42 -30.98,5.77 -31.56,6.11 -32.11,6.44 -32.64,6.76 -33.13,7.07 -33.6,7.38 -34.04,7.67 -34.45,7.96 -34.84,8.24 -35.21,8.51 -35.55,8.77 -35.87,9.02 -36.16,9.26 -36.44,9.5 -36.7,9.73 -29.47,10.96 -28.86,10.89 -28.22,10.81 -27.58,10.72 -26.91,10.63 -26.23,10.54 -25.54,10.43 -24.82,10.32 -24.1,10.21 -23.36,10.08 -22.6,9.96 -21.83,9.82 -21.04,9.68 -20.24,9.53 -19.43,9.38 -18.6,9.22 -17.75,9.05 -16.89,8.88 -16,8.7 -15.1,8.52 -14.19,8.32 -13.26,8.13 -12.31,7.92 -11.35,7.72 -10.38,7.5 -9.39,7.29 -8.39,7.07 -7.39,6.84 -6.37,6.61 -5.34,6.39 -4.31,6.16 -3.27,5.93 -2.23,5.7 -1.18,5.47 -0.13,5.25 0.92,5.03 1.96,4.81 3.01,4.6 4.05,4.4 5.09,4.21 6.12,4.02 7.14,3.85 8.15,3.69 9.15,3.54 10.14,3.4 11.11,3.29 12.07,3.18 13.01,3.1 13.93,3.04 14.83,2.99 15.71,2.97 16.57,2.96 17.41,2.98 18.22,3.03 19,3.09 19.76,3.18 20.49,3.3 21.2,3.44 21.87,3.61 22.52,3.8 23.14,4.01 23.73,4.25 24.28,4.52 24.81,4.8 25.31,5.11 25.83,5.28 26.32,5.45 26.8,5.63 27.26,5.82 27.71,6.02 28.13,6.23 28.54,6.44 28.93,6.65 29.3,6.87 29.65,7.09 29.99,7.32 30.3,7.54 30.6,7.76 30.88,7.98 31.15,8.19" />
      </clipPath>
      <clipPath id="rightEyeClipPath">
        <polyline points="-31.94,4.86 -31.66,4.55 -31.35,4.24 -31.01,3.93 -30.63,3.61 -30.23,3.3 -29.79,2.98 -29.31,2.67 -28.8,2.36 -28.26,2.06 -27.68,1.76 -27.07,1.47 -26.42,1.18 -25.74,0.91 -25.02,0.65 -24.27,0.39 -23.66,-0.02 -22.98,-0.41 -22.23,-0.78 -21.42,-1.12 -20.54,-1.43 -19.6,-1.72 -18.6,-1.99 -17.55,-2.22 -16.44,-2.43 -15.28,-2.61 -14.07,-2.76 -12.82,-2.88 -11.54,-2.98 -10.22,-3.05 -8.87,-3.09 -7.49,-3.11 -6.09,-3.1 -4.67,-3.07 -3.24,-3.02 -1.8,-2.94 -0.36,-2.84 1.09,-2.72 2.53,-2.59 3.96,-2.43 5.39,-2.26 6.8,-2.07 8.19,-1.87 9.56,-1.66 10.91,-1.43 12.24,-1.19 13.53,-0.94 14.79,-0.69 16.02,-0.43 17.22,-0.16 18.38,0.12 19.5,0.4 20.58,0.68 21.63,0.96 22.63,1.25 23.59,1.53 24.52,1.82 25.4,2.1 26.24,2.39 27.04,2.67 27.81,2.94 28.54,3.22 29.23,3.48 29.89,3.75 30.51,4.01 31.11,4.26 31.68,4.51 32.22,4.76 32.72,5 33.2,5.24 33.65,5.47 34.07,5.7 34.47,5.92 34.84,6.13 35.18,6.35 35.5,6.55 35.8,6.75 36.08,6.95 36.33,7.14 36.56,7.32 29.9,8.43 29.29,8.35 28.67,8.26 28.03,8.17 27.37,8.07 26.69,7.97 26,7.86 25.29,7.75 24.56,7.63 23.82,7.51 23.06,7.38 22.29,7.25 21.5,7.11 20.69,6.96 19.87,6.82 19.03,6.66 18.17,6.51 17.3,6.35 16.4,6.18 15.49,6.01 14.56,5.83 13.61,5.65 12.64,5.46 11.66,5.28 10.66,5.08 9.65,4.89 8.62,4.69 7.58,4.49 6.53,4.3 5.47,4.1 4.4,3.9 3.33,3.7 2.24,3.5 1.16,3.31 0.06,3.12 -1.03,2.94 -2.12,2.76 -3.22,2.58 -4.3,2.42 -5.39,2.26 -6.46,2.11 -7.53,1.97 -8.59,1.85 -9.64,1.74 -10.67,1.63 -11.69,1.55 -12.69,1.48 -13.67,1.42 -14.63,1.38 -15.57,1.36 -16.49,1.36 -17.38,1.38 -18.24,1.41 -19.08,1.47 -19.89,1.55 -20.66,1.65 -21.41,1.77 -22.12,1.91 -22.8,2.07 -23.45,2.25 -24.06,2.46 -24.64,2.68 -25.18,2.93 -25.69,3.19 -26.17,3.47 -26.68,3.63 -27.17,3.8 -27.65,3.98 -28.1,4.16 -28.53,4.35 -28.95,4.55 -29.34,4.75 -29.71,4.95 -30.06,5.16 -30.4,5.37 -30.71,5.59 -31.01,5.8 -31.28,6.01 -31.54,6.22 -31.78,6.43" />
      </clipPath>
      <filter id="fuzzy">
        <feTurbulence id="turbulence" baseFrequency="0.05" numOctaves="3" type="noise" result="noise" />
        <feDisplacementMap in="SourceGraphic" in2="noise" scale="2" />
      </filter>
      <linearGradient id="rainbowGradient" x1="0%" y1="0%" x2="100%" y2="0%">
        <stop offset="0%" style="stop-color: rgb(128, 128, 128); stop-opacity: 1" />
        <stop offset="50%" style="stop-color: rgb(123, 104, 238); stop-opacity: 1" />
        <stop offset="100%" style="stop-color: rgb(167, 133, 106); stop-opacity: 1" />
      </linearGradient>
    </defs>
    <rect x="-100" y="-100" width="100%" height="100%" fill="rgb(152, 251, 152)" />
    <polyline id="faceContour" points="74.44,0.38 74.57,2.76 74.5,2.17 74.67,3.96 74.22,7.08 74.25,7.26 74.17,9.23 74.03,10.48 73.85,10.24 73.73,12.34 73.36,14.26 73.55,14.72 73.48,14.1 73.21,15.5 72.68,18.83 72.64,18.36 72.35,20.34 71.45,23.25 71.32,24.7 71.31,24.61 71.03,24.97 70.81,25.78 69.79,29.18 69.23,31 69.3,30.24 68.61,32.87 68.31,32.93 67.68,34.21 67.99,33.85 66.48,37.85 66.23,37.72 66.67,37.32 65.57,39.57 64.24,42.28 63.92,42.8 63.79,42.74 62.62,44.7 62.76,44.72 61.74,46.23 61.55,46.54 59.8,49.5 60.12,48.8 58.56,51.17 58.35,51.58 57.49,52.92 56.88,53.51 55.84,54.73 56.2,54.62 53.67,57.27 53.55,57.65 51.98,59.51 50.99,60.57 51.84,59.57 50.16,61.53 50.37,61.06 47.28,63.81 46.94,64.41 47.4,63.97 45.9,65.44 44.33,66.5 42.79,67.97 41.62,68.38 41.75,68.5 40.96,69.11 39.54,70.1 39.04,70.46 38.64,70.84 37.27,71.92 36.12,72.35 35.45,72.59 34.69,73.38 33.87,73.63 32.03,74.81 31.77,75.03 29.01,76.16 28.84,76.12 27.14,77.09 26.13,77.49 25.15,78.09 23.29,78.37 23.24,78.74 22.57,78.63 20.99,79.43 18.96,79.87 17.49,80.47 15.89,80.94 16.75,80.84 13.63,81.44 14.24,81.25 12.04,81.66 11.53,81.74 11.18,81.87 10.08,81.77 7.38,82.23 8.08,82.37 6.7,82.43 3.92,82.79 4.41,82.77 1.03,82.58 2,82.69 -1.45,82.59 -2.43,82.49 -1.55,82.85 -3.81,82.64 -5.37,82.72 -4.94,82.71 -7.28,82.19 -8.85,82.27 -9.06,82.09 -11.48,81.89 -12.83,81.32 -12.5,81.62 -12.27,81.45 -16.11,80.67 -16.53,80.75 -17.79,80.27 -18.41,79.96 -20.69,79.55 -21.77,78.94 -20.52,79.68 -23.68,78.28 -23.98,78.48 -25.03,77.81 -25.58,77.71 -28.96,76.14 -27.86,76.97 -30.93,75.36 -29.4,76.2 -32.65,74.27 -33.8,73.89 -34.59,73.32 -34.67,73.44 -37.04,71.77 -38.15,70.99 -36.91,71.74 -39.45,70.43 -39.65,69.96 -41.1,69.07 -41.85,68.43 -42.69,68.15 -43.42,67.25 -44.98,66.24 -44.86,66.13 -46.09,65.15 -48.26,63.42 -49.35,62.05 -49.96,61.69 -50.93,60.73 -50.13,61.39 -51.32,60.15 -52.55,58.97 -53.99,57.02 -54.74,56.3 -54.46,56.54 -54.87,55.8 -58.03,52.15 -57.63,52.57 -58.85,50.79 -58.86,50.87 -59.36,50.25 -59.99,49.11 -60.24,48.69 -62.16,45.83 -62.13,46.06 -62.49,44.66 -63.92,42.72 -63.75,43.18 -64.65,41.03 -65.55,39.26 -65.63,39.2 -66.21,38.01 -66.25,38.24 -67.63,34.79 -67.86,34.17 -68.5,32.65 -68.19,33.07 -69,31.16 -70.08,28.9 -70.06,28.79 -70.08,28.42 -70.78,25.39 -71.65,22.94 -71.42,23.39 -72.17,21.2 -72.09,21.59 -72.77,18.88 -72.65,18.93 -73.02,16.42 -73.39,15.42 -73.3,14.37 -73.6,12.86 -73.94,11.64 -73.83,10.92 -73.95,10.11 -73.98,9.25 -74.38,7.27 -74.55,4.2 -74.43,5.07 -74.32,4.47 -74.64,0.95 -74.46,-0.4 -74.61,-2.68 -74.51,-0.81 -74.38,-5.54 -74.58,-4.63 -74.46,-6.79 -74.23,-7.1 -74.05,-8.62 -74.06,-9.92 -73.85,-10.48 -73.67,-13.73 -73.36,-14.92 -73.19,-16.73 -73.41,-15.49 -72.81,-18.24 -72.46,-19.29 -71.72,-22.44 -72.31,-20.44 -71.9,-22.81 -71.29,-24.58 -70.99,-25.18 -70.28,-28.2 -70.52,-26.88 -69.56,-30.54 -69.52,-30.66 -68.71,-32.66 -68.69,-32.21 -68.14,-33.31 -67.43,-35.44 -67.24,-35.77 -65.97,-39.12 -65.4,-39.95 -65.47,-39.28 -64.84,-41.26 -64.22,-42.31 -63.77,-42.59 -63.07,-44.4 -62.21,-45.89 -61.84,-46.58 -60.73,-48.06 -60.43,-48.5 -59.83,-49.42 -58.38,-51.58 -57.88,-52.07 -56.67,-54.16 -55.87,-54.81 -56.2,-54.47 -55.73,-55.11 -54.32,-56.74 -53.04,-58.12 -52.14,-59.34 -51.15,-59.98 -51.37,-60.34 -50.39,-60.95 -48.23,-63.29 -48.5,-63.02 -47.92,-63.38 -46.81,-64.18 -45.7,-65.39 -44.06,-66.93 -43.86,-67.27 -43.21,-67.65 -42.82,-67.75 -40.83,-69.47 -41.38,-69.18 -38.94,-70.33 -39.37,-70.42 -37.08,-71.94 -36.28,-72.14 -35.43,-73.09 -33.1,-74.27 -32.4,-74.76 -31.33,-75.09 -30.89,-75.15 -29.09,-76.5 -27.57,-77.13 -28.25,-76.89 -26.56,-77.59 -25.31,-78.15 -23.71,-78.46 -22.45,-78.96 -21.97,-79.17 -18.53,-80 -19.65,-79.75 -19.67,-79.82 -18.08,-80.52 -16.85,-80.79 -13.67,-81.27 -13.78,-81.5 -12.01,-81.57 -12.19,-81.8 -10.35,-81.94 -7.88,-82.24 -8.71,-82.41 -8.37,-82.08 -4.92,-82.81 -3.8,-82.74 -2.05,-82.81 -1.75,-82.77 -0.4,-82.98 0.29,-82.79 0.96,-82.85 2.33,-82.99 4.39,-82.75 5.5,-82.51 4.34,-82.52 7.28,-82.32 8.46,-82.46 8.46,-82.37 10.79,-81.94 13.46,-81.54 12.62,-81.85 13.13,-81.49 14.82,-81.23 16.35,-81.01 16.46,-80.88 18.31,-80.48 20.16,-79.57 20.55,-79.89 22.92,-78.99 24.05,-78.17 24.51,-78.52 24.09,-78.14 26.36,-77.34 27.58,-76.89 27.62,-77.04 28.98,-76.52 30.42,-75.55 31.82,-74.79 33.06,-74.39 32.95,-74.35 35.25,-73 36.62,-72.23 35.56,-72.81 38.09,-71.24 39.43,-70.35 40.33,-69.74 42.37,-68.19 42.56,-67.83 42.82,-67.85 42.83,-67.72 44.66,-66.57 45.62,-65.74 45.78,-65.56 47.09,-64.43 48.48,-63 49.71,-61.83 50.65,-60.63 50.05,-61.26 52.84,-58.51 51.53,-60.13 54.5,-56.69 54.3,-56.65 55.39,-55.73 55.68,-54.86 56.82,-53.69 58.54,-51.42 58.76,-51.16 59.4,-49.92 60.47,-48.46 60.34,-48.77 60.5,-48.69 62.7,-45.06 62.27,-45.98 62.58,-45.06 63.05,-44.03 64.56,-41.63 64.01,-42.67 65.92,-38.64 66.5,-37.53 66.47,-37.66 66.71,-36.96 66.93,-36.33 67.5,-35.43 68,-33.95 69.57,-30.28 69.07,-30.85 69.75,-29.41 69.98,-29.28 70.05,-28.26 70.68,-26.81 71.08,-24.54 71.39,-24.11 71.47,-23.69 72.46,-19.66 72.84,-18.72 72.83,-17.56 73.1,-17.18 73.18,-15.82 73.57,-14.47 73.72,-11.86 73.87,-12.55 74.26,-9.37 74.37,-8.06 74.35,-7.81 74.5,-5.61 74.47,-7.07 74.4,-3.78 74.66,-1.72 74.69,-1.88 74.44,0.38 74.57,2.76" fill="rgb(107, 142, 35)" stroke="black" stroke-width="1.6666666666666665" stroke-linejoin="round" filter="url(#fuzzy)" />
    <g transform="translate(30.599999999999998 -24.41)">
      <polyline id="rightCountour" points="-31.94,4.86 -31.66,4.55 -31.35,4.24 -31.01,3.93 -30.63,3.61 -30.23,3.3 -29.79,2.98 -29.31,2.67 -28.8,2.36 -28.26,2.06 -27.68,1.76 -27.07,1.47 -26.42,1.18 -25.74,0.91 -25.02,0.65 -24.27,0.39 -23.66,-0.02 -22.98,-0.41 -22.23,-0.78 -21.42,-1.12 -20.54,-1.43 -19.6,-1.72 -18.6,-1.99 -17.55,-2.22 -16.44,-2.43 -15.28,-2.61 -14.07,-2.76 -12.82,-2.88 -11.54,-2.98 -10.22,-3.05 -8.87,-3.09 -7.49,-3.11 -6.09,-3.1 -4.67,-3.07 -3.24,-3.02 -1.8,-2.94 -0.36,-2.84 1.09,-2.72 2.53,-2.59 3.96,-2.43 5.39,-2.26 6.8,-2.07 8.19,-1.87 9.56,-1.66 10.91,-1.43 12.24,-1.19 13.53,-0.94 14.79,-0.69 16.02,-0.43 17.22,-0.16 18.38,0.12 19.5,0.4 20.58,0.68 21.63,0.96 22.63,1.25 23.59,1.53 24.52,1.82 25.4,2.1 26.24,2.39 27.04,2.67 27.81,2.94 28.54,3.22 29.23,3.48 29.89,3.75 30.51,4.01 31.11,4.26 31.68,4.51 32.22,4.76 32.72,5 33.2,5.24 33.65,5.47 34.07,5.7 34.47,5.92 34.84,6.13 35.18,6.35 35.5,6.55 35.8,6.75 36.08,6.95 36.33,7.14 36.56,7.32 29.9,8.43 29.29,8.35 28.67,8.26 28.03,8.17 27.37,8.07 26.69,7.97 26,7.86 25.29,7.75 24.56,7.63 23.82,7.51 23.06,7.38 22.29,7.25 21.5,7.11 20.69,6.96 19.87,6.82 19.03,6.66 18.17,6.51 17.3,6.35 16.4,6.18 15.49,6.01 14.56,5.83 13.61,5.65 12.64,5.46 11.66,5.28 10.66,5.08 9.65,4.89 8.62,4.69 7.58,4.49 6.53,4.3 5.47,4.1 4.4,3.9 3.33,3.7 2.24,3.5 1.16,3.31 0.06,3.12 -1.03,2.94 -2.12,2.76 -3.22,2.58 -4.3,2.42 -5.39,2.26 -6.46,2.11 -7.53,1.97 -8.59,1.85 -9.64,1.74 -10.67,1.63 -11.69,1.55 -12.69,1.48 -13.67,1.42 -14.63,1.38 -15.57,1.36 -16.49,1.36 -17.38,1.38 -18.24,1.41 -19.08,1.47 -19.89,1.55 -20.66,1.65 -21.41,1.77 -22.12,1.91 -22.8,2.07 -23.45,2.25 -24.06,2.46 -24.64,2.68 -25.18,2.93 -25.69,3.19 -26.17,3.47 -26.68,3.63 -27.17,3.8 -27.65,3.98 -28.1,4.16 -28.53,4.35 -28.95,4.55 -29.34,4.75 -29.71,4.95 -30.06,5.16 -30.4,5.37 -30.71,5.59 -31.01,5.8 -31.28,6.01 -31.54,6.22 -31.78,6.43" fill="white" stroke="white" stroke-width="0" stroke-linejoin="round" filter="url(#fuzzy)" />
    </g>
    <g transform="translate(-28.86 -24.2)">
      <polyline id="leftCountour" points="31.87,4.45 31.6,4 31.3,3.55 30.97,3.09 30.61,2.64 30.21,2.18 29.78,1.73 29.32,1.28 28.82,0.85 28.29,0.42 27.72,0 27.12,-0.4 26.48,-0.78 25.81,-1.16 25.1,-1.51 24.36,-1.85 23.76,-2.44 23.09,-2.99 22.35,-3.5 21.55,-3.97 20.69,-4.39 19.76,-4.77 18.77,-5.11 17.73,-5.4 16.63,-5.64 15.48,-5.84 14.28,-5.99 13.04,-6.11 11.77,-6.17 10.45,-6.2 9.11,-6.19 7.74,-6.13 6.35,-6.04 4.94,-5.92 3.51,-5.76 2.08,-5.57 0.64,-5.35 -0.8,-5.1 -2.24,-4.82 -3.67,-4.53 -5.09,-4.21 -6.5,-3.87 -7.89,-3.51 -9.26,-3.13 -10.61,-2.75 -11.93,-2.35 -13.23,-1.94 -14.5,-1.52 -15.73,-1.1 -16.93,-0.67 -18.09,-0.24 -19.22,0.19 -20.31,0.62 -21.36,1.06 -22.37,1.48 -23.34,1.91 -24.27,2.33 -25.16,2.74 -26.01,3.15 -26.83,3.55 -27.61,3.94 -28.35,4.32 -29.05,4.7 -29.72,5.06 -30.37,5.42 -30.98,5.77 -31.56,6.11 -32.11,6.44 -32.64,6.76 -33.13,7.07 -33.6,7.38 -34.04,7.67 -34.45,7.96 -34.84,8.24 -35.21,8.51 -35.55,8.77 -35.87,9.02 -36.16,9.26 -36.44,9.5 -36.7,9.73 -29.47,10.96 -28.86,10.89 -28.22,10.81 -27.58,10.72 -26.91,10.63 -26.23,10.54 -25.54,10.43 -24.82,10.32 -24.1,10.21 -23.36,10.08 -22.6,9.96 -21.83,9.82 -21.04,9.68 -20.24,9.53 -19.43,9.38 -18.6,9.22 -17.75,9.05 -16.89,8.88 -16,8.7 -15.1,8.52 -14.19,8.32 -13.26,8.13 -12.31,7.92 -11.35,7.72 -10.38,7.5 -9.39,7.29 -8.39,7.07 -7.39,6.84 -6.37,6.61 -5.34,6.39 -4.31,6.16 -3.27,5.93 -2.23,5.7 -1.18,5.47 -0.13,5.25 0.92,5.03 1.96,4.81 3.01,4.6 4.05,4.4 5.09,4.21 6.12,4.02 7.14,3.85 8.15,3.69 9.15,3.54 10.14,3.4 11.11,3.29 12.07,3.18 13.01,3.1 13.93,3.04 14.83,2.99 15.71,2.97 16.57,2.96 17.41,2.98 18.22,3.03 19,3.09 19.76,3.18 20.49,3.3 21.2,3.44 21.87,3.61 22.52,3.8 23.14,4.01 23.73,4.25 24.28,4.52 24.81,4.8 25.31,5.11 25.83,5.28 26.32,5.45 26.8,5.63 27.26,5.82 27.71,6.02 28.13,6.23 28.54,6.44 28.93,6.65 29.3,6.87 29.65,7.09 29.99,7.32 30.3,7.54 30.6,7.76 30.88,7.98 31.15,8.19" fill="white" stroke="white" stroke-width="0" stroke-linejoin="round" filter="url(#fuzzy)" />
    </g>
    <g transform="translate(30.599999999999998 -24.41)">
      <polyline id="rightUpper" points="-33.56,7.15 -33.46,7.02 -33.35,6.86 -33.24,6.67 -33.11,6.46 -32.97,6.23 -32.81,5.98 -32.63,5.72 -32.42,5.44 -32.2,5.16 -31.94,4.86 -31.66,4.55 -31.35,4.24 -31.01,3.93 -30.63,3.61 -30.23,3.3 -29.79,2.98 -29.31,2.67 -28.8,2.36 -28.26,2.06 -27.68,1.76 -27.07,1.47 -26.42,1.18 -25.74,0.91 -25.02,0.65 -24.27,0.39 -23.66,-0.02 -22.98,-0.41 -22.23,-0.78 -21.42,-1.12 -20.54,-1.43 -19.6,-1.72 -18.6,-1.99 -17.55,-2.22 -16.44,-2.43 -15.28,-2.61 -14.07,-2.76 -12.82,-2.88 -11.54,-2.98 -10.22,-3.05 -8.87,-3.09 -7.49,-3.11 -6.09,-3.1 -4.67,-3.07 -3.24,-3.02 -1.8,-2.94 -0.36,-2.84 1.09,-2.72 2.53,-2.59 3.96,-2.43 5.39,-2.26 6.8,-2.07 8.19,-1.87 9.56,-1.66 10.91,-1.43 12.24,-1.19 13.53,-0.94 14.79,-0.69 16.02,-0.43 17.22,-0.16 18.38,0.12 19.5,0.4 20.58,0.68 21.63,0.96 22.63,1.25 23.59,1.53 24.52,1.82 25.4,2.1 26.24,2.39 27.04,2.67 27.81,2.94 28.54,3.22 29.23,3.48 29.89,3.75 30.51,4.01 31.11,4.26 31.68,4.51 32.22,4.76 32.72,5 33.2,5.24 33.65,5.47 34.07,5.7 34.47,5.92 34.84,6.13 35.18,6.35 35.5,6.55 35.8,6.75 36.08,6.95 36.33,7.14 36.56,7.32 36.78,7.5 36.97,7.67 37.15,7.84 37.3,8 37.45,8.16 37.57,8.31 37.69,8.46 37.78,8.6 37.87,8.74 37.94,8.87" fill="none" stroke="black" stroke-width="1.6666666666666665" stroke-linejoin="round" filter="url(#fuzzy)" />
      <polyline id="rightLower" points="-33.33,7.93 -33.23,7.85 -33.12,7.75 -33,7.63 -32.87,7.5 -32.73,7.35 -32.57,7.18 -32.39,7.01 -32.2,6.82 -32,6.63 -31.78,6.43 -31.54,6.22 -31.28,6.01 -31.01,5.8 -30.71,5.59 -30.4,5.37 -30.06,5.16 -29.71,4.95 -29.34,4.75 -28.95,4.55 -28.53,4.35 -28.1,4.16 -27.65,3.98 -27.17,3.8 -26.68,3.63 -26.17,3.47 -25.69,3.19 -25.18,2.93 -24.64,2.68 -24.06,2.46 -23.45,2.25 -22.8,2.07 -22.12,1.91 -21.41,1.77 -20.66,1.65 -19.89,1.55 -19.08,1.47 -18.24,1.41 -17.38,1.38 -16.49,1.36 -15.57,1.36 -14.63,1.38 -13.67,1.42 -12.69,1.48 -11.69,1.55 -10.67,1.63 -9.64,1.74 -8.59,1.85 -7.53,1.97 -6.46,2.11 -5.39,2.26 -4.3,2.42 -3.22,2.58 -2.12,2.76 -1.03,2.94 0.06,3.12 1.16,3.31 2.24,3.5 3.33,3.7 4.4,3.9 5.47,4.1 6.53,4.3 7.58,4.49 8.62,4.69 9.65,4.89 10.66,5.08 11.66,5.28 12.64,5.46 13.61,5.65 14.56,5.83 15.49,6.01 16.4,6.18 17.3,6.35 18.17,6.51 19.03,6.66 19.87,6.82 20.69,6.96 21.5,7.11 22.29,7.25 23.06,7.38 23.82,7.51 24.56,7.63 25.29,7.75 26,7.86 26.69,7.97 27.37,8.07 28.03,8.17 28.67,8.26 29.29,8.35 29.9,8.43 30.5,8.51 31.08,8.58 31.64,8.65 32.18,8.71 32.71,8.77 33.23,8.83 33.73,8.88 34.22,8.93 34.69,8.97 35.14,9.01" fill="none" stroke="black" stroke-width="2.2222222222222223" stroke-linejoin="round" filter="url(#fuzzy)" />
      <circle r="4.55" cx="-8.339952261102084" cy="3.2718938754921467" stroke="black" fill="none" stroke-width="1.0" filter="url(#fuzzy)" clip-path="url(#rightEyeClipPath)" /><circle r="3.162" cx="-9.049952261102085" cy="6.141893875492146" stroke="black" fill="none" stroke-width="1.0" filter="url(#fuzzy)" clip-path="url(#rightEyeClipPath)" /><circle r="4.018" cx="-10.494952261102085" cy="6.011893875492147" stroke="black" fill="none" stroke-width="1.0" filter="url(#fuzzy)" clip-path="url(#rightEyeClipPath)" /><circle r="4.25" cx="-9.154952261102085" cy="3.3218938754921465" stroke="black" fill="none" stroke-width="1.0" filter="url(#fuzzy)" clip-path="url(#rightEyeClipPath)" /><circle r="3.604" cx="-9.624952261102084" cy="4.776893875492146" stroke="black" fill="none" stroke-width="1.0" filter="url(#fuzzy)" clip-path="url(#rightEyeClipPath)" /><circle r="4.66" cx="-10.279952261102085" cy="1.2918938754921467" stroke="black" fill="none" stroke-width="1.0" filter="url(#fuzzy)" clip-path="url(#rightEyeClipPath)" /><circle r="3.364" cx="-10.484952261102086" cy="5.711893875492146" stroke="black" fill="none" stroke-width="1.0" filter="url(#fuzzy)" clip-path="url(#rightEyeClipPath)" /><circle r="3.626" cx="-10.364952261102085" cy="1.4868938754921466" stroke="black" fill="none" stroke-width="1.0" filter="url(#fuzzy)" clip-path="url(#rightEyeClipPath)" /><circle r="3.086" cx="-10.594952261102085" cy="5.5318938754921465" stroke="black" fill="none" stroke-width="1.0" filter="url(#fuzzy)" clip-path="url(#rightEyeClipPath)" /><circle r="3.224" cx="-9.534952261102084" cy="5.161893875492147" stroke="black" fill="none" stroke-width="1.0" filter="url(#fuzzy)" clip-path="url(#rightEyeClipPath)" />
      </g>
    <g transform="translate(-28.86 -24.2)">
      <polyline id="leftUpper" points="33.38,7.83 33.29,7.64 33.19,7.4 33.09,7.13 32.97,6.82 32.84,6.48 32.69,6.11 32.52,5.72 32.33,5.31 32.11,4.88 31.87,4.45 31.6,4 31.3,3.55 30.97,3.09 30.61,2.64 30.21,2.18 29.78,1.73 29.32,1.28 28.82,0.85 28.29,0.42 27.72,0 27.12,-0.4 26.48,-0.78 25.81,-1.16 25.1,-1.51 24.36,-1.85 23.76,-2.44 23.09,-2.99 22.35,-3.5 21.55,-3.97 20.69,-4.39 19.76,-4.77 18.77,-5.11 17.73,-5.4 16.63,-5.64 15.48,-5.84 14.28,-5.99 13.04,-6.11 11.77,-6.17 10.45,-6.2 9.11,-6.19 7.74,-6.13 6.35,-6.04 4.94,-5.92 3.51,-5.76 2.08,-5.57 0.64,-5.35 -0.8,-5.1 -2.24,-4.82 -3.67,-4.53 -5.09,-4.21 -6.5,-3.87 -7.89,-3.51 -9.26,-3.13 -10.61,-2.75 -11.93,-2.35 -13.23,-1.94 -14.5,-1.52 -15.73,-1.1 -16.93,-0.67 -18.09,-0.24 -19.22,0.19 -20.31,0.62 -21.36,1.06 -22.37,1.48 -23.34,1.91 -24.27,2.33 -25.16,2.74 -26.01,3.15 -26.83,3.55 -27.61,3.94 -28.35,4.32 -29.05,4.7 -29.72,5.06 -30.37,5.42 -30.98,5.77 -31.56,6.11 -32.11,6.44 -32.64,6.76 -33.13,7.07 -33.6,7.38 -34.04,7.67 -34.45,7.96 -34.84,8.24 -35.21,8.51 -35.55,8.77 -35.87,9.02 -36.16,9.26 -36.44,9.5 -36.7,9.73 -36.93,9.94 -37.15,10.15 -37.35,10.36 -37.53,10.55 -37.7,10.74 -37.85,10.92 -37.99,11.09 -38.12,11.26 -38.23,11.42 -38.32,11.57" fill="none" stroke="black" stroke-width="2.2222222222222223" stroke-linejoin="round" filter="url(#fuzzy)" />
      <polyline id="leftLower" points="32.91,9.63 32.8,9.57 32.67,9.49 32.54,9.39 32.38,9.26 32.22,9.12 32.03,8.96 31.84,8.78 31.62,8.59 31.39,8.4 31.15,8.19 30.88,7.98 30.6,7.76 30.3,7.54 29.99,7.32 29.65,7.09 29.3,6.87 28.93,6.65 28.54,6.44 28.13,6.23 27.71,6.02 27.26,5.82 26.8,5.63 26.32,5.45 25.83,5.28 25.31,5.11 24.81,4.8 24.28,4.52 23.73,4.25 23.14,4.01 22.52,3.8 21.87,3.61 21.2,3.44 20.49,3.3 19.76,3.18 19,3.09 18.22,3.03 17.41,2.98 16.57,2.96 15.71,2.97 14.83,2.99 13.93,3.04 13.01,3.1 12.07,3.18 11.11,3.29 10.14,3.4 9.15,3.54 8.15,3.69 7.14,3.85 6.12,4.02 5.09,4.21 4.05,4.4 3.01,4.6 1.96,4.81 0.92,5.03 -0.13,5.25 -1.18,5.47 -2.23,5.7 -3.27,5.93 -4.31,6.16 -5.34,6.39 -6.37,6.61 -7.39,6.84 -8.39,7.07 -9.39,7.29 -10.38,7.5 -11.35,7.72 -12.31,7.92 -13.26,8.13 -14.19,8.32 -15.1,8.52 -16,8.7 -16.89,8.88 -17.75,9.05 -18.6,9.22 -19.43,9.38 -20.24,9.53 -21.04,9.68 -21.83,9.82 -22.6,9.96 -23.36,10.08 -24.1,10.21 -24.82,10.32 -25.54,10.43 -26.23,10.54 -26.91,10.63 -27.58,10.72 -28.22,10.81 -28.86,10.89 -29.47,10.96 -30.08,11.03 -30.66,11.09 -31.23,11.15 -31.79,11.2 -32.33,11.25 -32.85,11.29 -33.36,11.32 -33.86,11.35 -34.34,11.38 -34.81,11.4" fill="none" stroke="black" stroke-width="2.2222222222222223" stroke-linejoin="round" filter="url(#fuzzy)" />
      <circle r="3.902" cx="21.36644495935932" cy="-0.18174679832323015" stroke="black" fill="none" stroke-width="1.0" filter="url(#fuzzy)" clip-path="url(#leftEyeClipPath)" /><circle r="4.114" cx="22.09644495935932" cy="-0.8867467983232302" stroke="black" fill="none" stroke-width="1.0" filter="url(#fuzzy)" clip-path="url(#leftEyeClipPath)" /><circle r="3.9459999999999997" cx="25.536444959359322" cy="-1.01174679832323" stroke="black" fill="none" stroke-width="1.0" filter="url(#fuzzy)" clip-path="url(#leftEyeClipPath)" /><circle r="3.526" cx="21.501444959359322" cy="-0.3717467983232301" stroke="black" fill="none" stroke-width="1.0" filter="url(#fuzzy)" clip-path="url(#leftEyeClipPath)" /><circle r="3.68" cx="25.14144495935932" cy="-1.7367467983232303" stroke="black" fill="none" stroke-width="1.0" filter="url(#fuzzy)" clip-path="url(#leftEyeClipPath)" /><circle r="4.468" cx="25.15144495935932" cy="2.4882532016767698" stroke="black" fill="none" stroke-width="1.0" filter="url(#fuzzy)" clip-path="url(#leftEyeClipPath)" /><circle r="3.862" cx="25.121444959359323" cy="-0.81174679832323" stroke="black" fill="none" stroke-width="1.0" filter="url(#fuzzy)" clip-path="url(#leftEyeClipPath)" /><circle r="3.232" cx="25.56144495935932" cy="0.3582532016767699" stroke="black" fill="none" stroke-width="1.0" filter="url(#fuzzy)" clip-path="url(#leftEyeClipPath)" /><circle r="3.782" cx="24.04644495935932" cy="-0.2217467983232302" stroke="black" fill="none" stroke-width="1.0" filter="url(#fuzzy)" clip-path="url(#leftEyeClipPath)" /><circle r="4.938" cx="22.51644495935932" cy="0.4082532016767697" stroke="black" fill="none" stroke-width="1.0" filter="url(#fuzzy)" clip-path="url(#leftEyeClipPath)" />
    </g>
    <g id="hairs">
      <polyline points="60.34,-48.77 60.94,-47.89 61.61,-46.8 62.06,-45.99 62.36,-45.32 62.6,-44.71 62.76,-44.15 62.8,-43.73 62.68,-43.51 62.34,-43.57 61.77,-43.94 60.98,-44.59 59.98,-45.5 58.79,-46.64 57.37,-48.03 55.66,-49.74 53.6,-51.88 51.15,-54.5 48.33,-57.58 45.19,-61.06 41.77,-64.88 37.89,-69.17" fill="none" stroke="rgb(220, 208, 186)" stroke-width="2" stroke-linejoin="round" filter="url(#fuzzy)" /><polyline points="22.92,-78.99 23.55,-78.5 23.59,-78.14 23.31,-77.67 22.74,-77.06 21.77,-76.35 20.35,-75.52 18.42,-74.57 15.96,-73.49 12.91,-72.28 9.23,-70.96 4.88,-69.52 -0.19,-67.96 -6,-66.25 -12.58,-64.37 -19.95,-62.32 -28.05,-60.15 -36.82,-58.02 -46.26,-56.07" fill="none" stroke="rgb(220, 208, 186)" stroke-width="2" stroke-linejoin="round" filter="url(#fuzzy)" /><polyline points="7.28,-82.32 8.29,-82.31 9.6,-82.07 11.17,-81.71 12.77,-81.31 14.32,-80.88 15.88,-80.4 17.49,-79.88 19.17,-79.32 20.9,-78.73 22.61,-78.14 24.26,-77.57 25.77,-77.04 27.11,-76.58 28.23,-76.19 29.13,-75.88 29.8,-75.65 30.23,-75.52 30.43,-75.5 30.33,-75.62 29.85,-75.91 28.95,-76.4" fill="none" stroke="rgb(220, 208, 186)" stroke-width="2" stroke-linejoin="round" filter="url(#fuzzy)" /><polyline points="-16.85,-80.79 -14.64,-81.13 -13.06,-81.31 -11.46,-81.4 -9.67,-81.45 -7.71,-81.47 -5.62,-81.47 -3.42,-81.44 -1.13,-81.39 1.24,-81.32 3.63,-81.24 5.94,-81.14 8.1,-81.03 10.05,-80.93 11.75,-80.85 13.17,-80.81 14.3,-80.82 15.13,-80.88 15.69,-80.97" fill="none" stroke="rgb(220, 208, 186)" stroke-width="2" stroke-linejoin="round" filter="url(#fuzzy)" /><polyline points="51.53,-60.13 53.43,-57.88 54.45,-56.62 55.26,-55.6 56.04,-54.6 56.78,-53.64 57.42,-52.79 57.88,-52.15 58.11,-51.8 58.09,-51.75 57.81,-52.02 57.29,-52.58 56.5,-53.44 55.44,-54.63 54.06,-56.21 52.3,-58.27 50.04,-60.93" fill="none" stroke="rgb(220, 208, 186)" stroke-width="2" stroke-linejoin="round" filter="url(#fuzzy)" /><polyline points="66.47,-37.66 66.57,-37.15 66.45,-36.8 66.09,-36.54 65.41,-36.5 64.3,-36.9 62.67,-37.9 60.5,-39.53 57.75,-41.77 54.39,-44.56 50.43,-47.88 45.83,-51.79 40.57,-56.32 34.64,-61.52 27.99,-67.42 20.58,-74.13" fill="none" stroke="rgb(220, 208, 186)" stroke-width="2" stroke-linejoin="round" filter="url(#fuzzy)" /><polyline points="65.92,-38.64 66,-38.08 65.34,-38.03 64.09,-38.2 62.28,-38.47 59.88,-38.86 56.8,-39.45 52.96,-40.39 48.28,-41.77 42.75,-43.65 36.36,-46 29.13,-48.75 21.04,-51.87 12.05,-55.36 2.14,-59.29 -8.72,-63.72 -20.46,-68.7" fill="none" stroke="rgb(220, 208, 186)" stroke-width="2" stroke-linejoin="round" filter="url(#fuzzy)" /><polyline points="56.82,-53.69 57.91,-52.18 58.39,-51.33 58.5,-50.81 58.32,-50.55 57.85,-50.51 57.09,-50.67 56.02,-51.02 54.61,-51.58 52.84,-52.37 50.72,-53.4 48.21,-54.67 45.26,-56.22 41.83,-58.1 37.85,-60.38 33.3,-63.1 28.22,-66.25 22.65,-69.82 16.64,-73.77 10.06,-78.14" fill="none" stroke="rgb(220, 208, 186)" stroke-width="2" stroke-linejoin="round" filter="url(#fuzzy)" /><polyline points="18.31,-80.48 19.66,-79.93 20.68,-79.55 21.43,-79.19 21.81,-78.85 21.81,-78.57 21.5,-78.31 20.88,-78.07 19.95,-77.83 18.68,-77.6 17.05,-77.37 15.04,-77.14 12.6,-76.94 9.65,-76.77 6.13,-76.65 1.97,-76.55 -2.87,-76.5 -8.38,-76.47 -14.51,-76.49 -21.08,-76.62" fill="none" stroke="rgb(220, 208, 186)" stroke-width="2" stroke-linejoin="round" filter="url(#fuzzy)" /><polyline points="59.4,-49.92 59.73,-49.19 59.13,-49.02 57.85,-48.99 55.84,-49.17 53,-49.67 49.26,-50.51 44.61,-51.67 39,-53.14 32.4,-54.95 24.75,-57.16 16.01,-59.86 6.17,-63.13 -4.8,-66.94 -17.04,-71.07" fill="none" stroke="rgb(220, 208, 186)" stroke-width="2" stroke-linejoin="round" filter="url(#fuzzy)" /><polyline points="52.84,-58.51 52.58,-58.67 52.81,-57.82 52.71,-56.93 52.18,-56.11 51.24,-55.3 49.87,-54.52 48.04,-53.78 45.69,-53.14 42.79,-52.62 39.35,-52.23 35.35,-51.93 30.81,-51.7 25.72,-51.52 20.07,-51.38 13.85,-51.26 7.03,-51.15 -0.39,-51.04 -8.42,-50.95 -17.04,-50.96 -26.22,-51.17 -35.97,-51.64 -46.44,-52.16" fill="none" stroke="rgb(220, 208, 186)" stroke-width="2" stroke-linejoin="round" filter="url(#fuzzy)" /><polyline points="38.09,-71.24 39.17,-70.48 39.94,-69.82 40.28,-69.37 40.09,-69.19 39.42,-69.25 38.34,-69.47 36.88,-69.81 35.01,-70.29 32.64,-70.92 29.72,-71.74 26.16,-72.78 21.92,-74.09 16.96,-75.74 11.27,-77.74 4.89,-80.08" fill="none" stroke="rgb(220, 208, 186)" stroke-width="2" stroke-linejoin="round" filter="url(#fuzzy)" /><polyline points="-42.82,-67.75 -41.21,-68.8 -39.31,-69.37 -36.75,-69.87 -33.53,-70.38 -29.7,-70.88 -25.31,-71.36 -20.42,-71.78 -15.11,-72.11 -9.46,-72.35 -3.57,-72.54 2.5,-72.71 8.7,-72.9 15.01,-73.09 21.5,-73.19 28.32,-73.11" fill="none" stroke="rgb(220, 208, 186)" stroke-width="2" stroke-linejoin="round" filter="url(#fuzzy)" /><polyline points="40.33,-69.74 41.57,-68.71 41.93,-68.25 41.91,-67.98 41.7,-67.73 41.31,-67.44 40.68,-67.14 39.75,-66.83 38.49,-66.55 36.84,-66.32 34.78,-66.2 32.27,-66.21 29.27,-66.37 25.75,-66.65 21.69,-67.06 17.08,-67.58 11.9,-68.22 6.17,-69 -0.11,-69.93 -6.95,-70.98 -14.42,-72.14 -22.64,-73.41" fill="none" stroke="rgb(220, 208, 186)" stroke-width="2" stroke-linejoin="round" filter="url(#fuzzy)" /><polyline points="-18.08,-80.52 -16.53,-80.81 -15.09,-81.08 -14.03,-81.25 -13.24,-81.35 -12.64,-81.38 -12.2,-81.33 -11.93,-81.2 -11.85,-80.97 -11.95,-80.65 -12.27,-80.22 -12.84,-79.68 -13.72,-79.03 -14.97,-78.24 -16.6,-77.33 -18.6,-76.27 -20.99,-75.04 -23.78,-73.63 -27.01,-72.02 -30.69,-70.23 -34.8,-68.31 -39.31,-66.31 -44.28,-64.09" fill="none" stroke="rgb(220, 208, 186)" stroke-width="2" stroke-linejoin="round" filter="url(#fuzzy)" /><polyline points="64.56,-41.63 64.71,-41.25 65.29,-39.99 65.74,-39 65.96,-38.45 66,-38.18 65.92,-38.08 65.73,-38.1 65.4,-38.29 64.87,-38.79 64.09,-39.7 63.02,-41.08 61.66,-42.93 60.01,-45.23 58.06,-47.99 55.75,-51.29 52.98,-55.28 49.65,-60.08" fill="none" stroke="rgb(220, 208, 186)" stroke-width="2" stroke-linejoin="round" filter="url(#fuzzy)" /><polyline points="-28.25,-76.89 -26.79,-77.48 -25.53,-77.92 -24.45,-78.24 -23.6,-78.44 -23.03,-78.52 -22.79,-78.45 -22.91,-78.24 -23.31,-77.88 -23.96,-77.38 -24.85,-76.71 -26.06,-75.86 -27.7,-74.77 -29.86,-73.39 -32.61,-71.7 -35.92,-69.71 -39.73,-67.54 -43.93,-65.33" fill="none" stroke="rgb(220, 208, 186)" stroke-width="2" stroke-linejoin="round" filter="url(#fuzzy)" /><polyline points="12.62,-81.85 13.44,-81.55 14.52,-81.3 15.53,-81.08 16.4,-80.85 17.08,-80.62 17.52,-80.42 17.62,-80.26 17.3,-80.19 16.49,-80.21 15.11,-80.36 13.16,-80.63 10.6,-81.02 7.45,-81.51 3.76,-82.14" fill="none" stroke="rgb(220, 208, 186)" stroke-width="2" stroke-linejoin="round" filter="url(#fuzzy)" /><polyline points="35.56,-72.81 37.53,-71.57 38.93,-70.64 39.96,-69.89 40.62,-69.37 40.91,-69.08 40.87,-69.02 40.54,-69.12 39.96,-69.36 39.1,-69.74 37.91,-70.28 36.36,-71.02 34.38,-72.01 31.86,-73.33 28.63,-75.09 24.57,-77.29" fill="none" stroke="rgb(220, 208, 186)" stroke-width="2" stroke-linejoin="round" filter="url(#fuzzy)" /><polyline points="-13.78,-81.5 -12.29,-81.47 -10.45,-81.24 -8.02,-80.78 -5.14,-80.08 -1.83,-79.16 1.91,-78.06 6.07,-76.82 10.55,-75.44 15.24,-73.93 20.04,-72.3 24.91,-70.58 29.85,-68.8 34.85,-66.98 39.92,-65.11 45.07,-63.14" fill="none" stroke="rgb(220, 208, 186)" stroke-width="2" stroke-linejoin="round" filter="url(#fuzzy)" /><polyline points="-10.35,-81.94 -8.95,-82.15 -8.2,-82.27 -7.28,-82.37 -6.23,-82.46 -5.28,-82.51 -4.57,-82.5 -4.17,-82.44 -4.08,-82.31 -4.29,-82.13 -4.8,-81.88 -5.64,-81.55 -6.84,-81.14 -8.44,-80.65 -10.45,-80.08 -12.86,-79.43 -15.7,-78.69 -19.03,-77.81 -22.9,-76.8 -27.32,-75.74" fill="none" stroke="rgb(220, 208, 186)" stroke-width="2" stroke-linejoin="round" filter="url(#fuzzy)" /><polyline points="47.09,-64.43 48.27,-63.2 49.08,-62.28 49.57,-61.62 49.83,-61.14 49.91,-60.75 49.79,-60.45 49.45,-60.25 48.85,-60.17 47.96,-60.24 46.76,-60.48 45.22,-60.89 43.3,-61.52 40.96,-62.4 38.17,-63.55 34.94,-65 31.28,-66.73 27.17,-68.74 22.59,-71.02 17.49,-73.56 11.87,-76.39 5.86,-79.51" fill="none" stroke="rgb(220, 208, 186)" stroke-width="2" stroke-linejoin="round" filter="url(#fuzzy)" /><polyline points="62.58,-45.06 63.18,-43.89 63.71,-42.79 64.07,-41.82 64.22,-41.03 64.11,-40.54 63.74,-40.37 63.12,-40.46 62.29,-40.73 61.23,-41.14 59.94,-41.72 58.37,-42.54 56.48,-43.65 54.25,-45.09 51.69,-46.85 48.81,-48.91 45.6,-51.25 42.08,-53.87 38.21,-56.79 33.94,-60.05 29.22,-63.68 24,-67.73 18.27,-72.22 11.92,-77.14" fill="none" stroke="rgb(220, 208, 186)" stroke-width="2" stroke-linejoin="round" filter="url(#fuzzy)" /><polyline points="62.7,-45.06 62.55,-45.32 62.76,-44.83 63.15,-44.03 63.57,-43.18 63.91,-42.42 64.09,-41.88 64.06,-41.68 63.78,-41.86 63.24,-42.41 62.48,-43.29 61.49,-44.46 60.28,-45.93 58.78,-47.8 56.91,-50.23 54.6,-53.32 51.83,-57.08 48.71,-61.33" fill="none" stroke="rgb(220, 208, 186)" stroke-width="2" stroke-linejoin="round" filter="url(#fuzzy)" /><polyline points="27.58,-76.89 27.83,-76.75 28.12,-76.22 28.08,-75.5 27.49,-74.7 26.28,-73.85 24.43,-72.94 21.93,-71.95 18.75,-70.86 14.89,-69.67 10.34,-68.36 5.05,-66.93 -1.03,-65.39 -8,-63.74 -15.94,-61.97 -24.87,-60.09 -34.68,-58.12 -45.12,-56.22" fill="none" stroke="rgb(220, 208, 186)" stroke-width="2" stroke-linejoin="round" filter="url(#fuzzy)" /><polyline points="-29.09,-76.5 -27.97,-76.86 -26.64,-77.1 -24.75,-77.37 -22.35,-77.64 -19.59,-77.89 -16.59,-78.1 -13.44,-78.26 -10.22,-78.38 -6.95,-78.46 -3.62,-78.53 -0.18,-78.61 3.36,-78.69 6.95,-78.74 10.48,-78.77 13.88,-78.76 17.15,-78.73 20.51,-78.62" fill="none" stroke="rgb(220, 208, 186)" stroke-width="2" stroke-linejoin="round" filter="url(#fuzzy)" /><polyline points="42.82,-67.85 43.23,-67.45 43.75,-66.86 44,-66.27 43.94,-65.69 43.58,-65.12 42.86,-64.59 41.73,-64.15 40.14,-63.83 38.07,-63.65 35.54,-63.57 32.53,-63.59 29.04,-63.7 25.05,-63.91 20.52,-64.21 15.44,-64.62 9.76,-65.14 3.45,-65.77 -3.54,-66.53 -11.26,-67.4 -19.72,-68.4 -28.97,-69.5" fill="none" stroke="rgb(220, 208, 186)" stroke-width="2" stroke-linejoin="round" filter="url(#fuzzy)" /><polyline points="42.56,-67.83 42.83,-67.74 43.34,-67.39 43.96,-66.9 44.54,-66.38 45.01,-65.87 45.34,-65.38 45.5,-64.97 45.41,-64.69 45.04,-64.59 44.36,-64.68 43.36,-64.95 42.03,-65.41 40.38,-66.04 38.39,-66.86 36.06,-67.89 33.36,-69.13 30.27,-70.6 26.71,-72.34 22.59,-74.39 17.89,-76.77 12.77,-79.45" fill="none" stroke="rgb(220, 208, 186)" stroke-width="2" stroke-linejoin="round" filter="url(#fuzzy)" /><polyline points="18.31,-80.48 19.57,-79.91 20.31,-79.47 20.6,-78.98 20.31,-78.47 19.44,-77.93 18.03,-77.33 16.12,-76.67 13.7,-75.94 10.73,-75.12 7.18,-74.21 3.01,-73.22 -1.81,-72.16 -7.35,-71.03 -13.64,-69.82 -20.77,-68.48 -28.84,-66.93 -37.93,-65.19" fill="none" stroke="rgb(220, 208, 186)" stroke-width="2" stroke-linejoin="round" filter="url(#fuzzy)" /><polyline points="51.53,-60.13 53.16,-58.03 53.41,-57.19 52.9,-56.86 51.82,-56.8 50.14,-56.97 47.76,-57.46 44.56,-58.34 40.49,-59.68 35.52,-61.48 29.69,-63.73 22.99,-66.39 15.34,-69.45 6.71,-72.95 -2.93,-76.97" fill="none" stroke="rgb(220, 208, 186)" stroke-width="2" stroke-linejoin="round" filter="url(#fuzzy)" /><polyline points="62.27,-45.98 62.47,-45.07 62.44,-44.14 62.02,-43.3 61.15,-42.59 59.75,-42.09 57.77,-41.89 55.18,-41.99 51.98,-42.33 48.21,-42.83 43.86,-43.46 38.93,-44.2 33.39,-45.13 27.21,-46.3 20.37,-47.77 12.87,-49.52 4.72,-51.53 -4.08,-53.76 -13.54,-56.21 -23.73,-58.83 -34.82,-61.52" fill="none" stroke="rgb(220, 208, 186)" stroke-width="2" stroke-linejoin="round" filter="url(#fuzzy)" /><polyline points="56.82,-53.69 58.01,-52.1 58.78,-51 59.4,-50.08 59.95,-49.28 60.45,-48.54 60.9,-47.85 61.29,-47.22 61.58,-46.69 61.76,-46.29 61.82,-46.01 61.77,-45.9 61.56,-45.97 61.18,-46.29 60.58,-46.91 59.73,-47.89 58.64,-49.22 57.31,-50.88 55.75,-52.86 53.92,-55.2 51.7,-58.02 48.98,-61.48" fill="none" stroke="rgb(220, 208, 186)" stroke-width="2" stroke-linejoin="round" filter="url(#fuzzy)" /><polyline points="-18.53,-80 -18.91,-79.86 -18.04,-79.88 -16.21,-79.94 -13.79,-79.96 -11.04,-79.88 -8.13,-79.71 -5.1,-79.43 -1.95,-79.07 1.34,-78.63 4.74,-78.14 8.24,-77.61 11.78,-77.08 15.32,-76.57 18.79,-76.11 22.12,-75.66 25.31,-75.2 28.35,-74.71 31.07,-74.32" fill="none" stroke="rgb(220, 208, 186)" stroke-width="2" stroke-linejoin="round" filter="url(#fuzzy)" /><polyline points="42.56,-67.83 42.89,-67.69 43.56,-67.22 44.46,-66.54 45.42,-65.76 46.37,-64.92 47.3,-64.08 48.14,-63.27 48.83,-62.58 49.34,-62.06 49.64,-61.73 49.73,-61.59 49.62,-61.62 49.31,-61.82 48.76,-62.2 47.98,-62.8 46.92,-63.66 45.49,-64.86 43.59,-66.49 41.12,-68.63" fill="none" stroke="rgb(220, 208, 186)" stroke-width="2" stroke-linejoin="round" filter="url(#fuzzy)" /><polyline points="16.35,-81.01 17.08,-80.73 18.51,-80.25 20.15,-79.68 21.8,-79.1 23.36,-78.52 24.73,-77.98 25.89,-77.52 26.82,-77.13 27.54,-76.85 28.02,-76.69 28.2,-76.65 28.07,-76.72 27.55,-76.9 26.41,-77.28" fill="none" stroke="rgb(220, 208, 186)" stroke-width="2" stroke-linejoin="round" filter="url(#fuzzy)" /><polyline points="24.09,-78.14 25.93,-77.44 27.41,-76.79 28.87,-76.02 30.48,-75.09 32.24,-74.02 34.06,-72.88 35.88,-71.72 37.63,-70.58 39.3,-69.49 40.86,-68.45 42.28,-67.48 43.55,-66.64 44.61,-65.97 45.34,-65.56 45.68,-65.46 45.66,-65.62" fill="none" stroke="rgb(220, 208, 186)" stroke-width="2" stroke-linejoin="round" filter="url(#fuzzy)" /><polyline points="42.82,-67.85 43.16,-67.44 43.49,-66.83 43.4,-66.2 42.86,-65.55 41.85,-64.87 40.34,-64.19 38.26,-63.56 35.57,-63.03 32.27,-62.6 28.34,-62.24 23.8,-61.95 18.63,-61.72 12.79,-61.54 6.25,-61.43 -1.03,-61.34 -9.09,-61.28 -17.94,-61.28 -27.54,-61.47 -37.74,-62.08" fill="none" stroke="rgb(220, 208, 186)" stroke-width="2" stroke-linejoin="round" filter="url(#fuzzy)" /><polyline points="42.82,-67.85 43.39,-67.37 44.42,-66.54 45.51,-65.6 46.64,-64.54 47.82,-63.38 49,-62.17 50.15,-60.97 51.23,-59.82 52.23,-58.76 53.15,-57.77 53.99,-56.86 54.72,-56.05 55.33,-55.38 55.78,-54.87 56.06,-54.55 56.15,-54.44 56.05,-54.55 55.73,-54.92 55.14,-55.6 54.26,-56.6 53.1,-57.9 51.72,-59.42" fill="none" stroke="rgb(220, 208, 186)" stroke-width="2" stroke-linejoin="round" filter="url(#fuzzy)" /><polyline points="-1.75,-82.77 -0.41,-82.71 1.27,-82.28 3.5,-81.57 6.22,-80.61 9.32,-79.43 12.69,-78.07 16.29,-76.57 20.14,-74.95 24.21,-73.24 28.44,-71.45 32.75,-69.61 37.04,-67.71 41.27,-65.75 45.48,-63.73" fill="none" stroke="rgb(220, 208, 186)" stroke-width="2" stroke-linejoin="round" filter="url(#fuzzy)" /><polyline points="16.35,-81.01 17.03,-80.77 18.26,-80.37 19.6,-79.96 20.85,-79.55 21.92,-79.18 22.75,-78.87 23.33,-78.62 23.7,-78.43 23.87,-78.31 23.85,-78.24 23.63,-78.22 23.17,-78.26 22.41,-78.38 21.3,-78.58 19.73,-78.91 17.68,-79.37 15.11,-79.95 12.03,-80.66 8.52,-81.52" fill="none" stroke="rgb(220, 208, 186)" stroke-width="2" stroke-linejoin="round" filter="url(#fuzzy)" /><polyline points="-39.37,-70.42 -37.58,-71.52 -36.09,-72.37 -34.56,-73.21 -33,-74.01 -31.45,-74.75 -29.94,-75.45 -28.47,-76.11 -27.06,-76.74 -25.69,-77.34 -24.37,-77.9 -23.11,-78.4 -21.93,-78.86 -20.87,-79.25 -19.99,-79.58 -19.35,-79.82 -18.97,-79.97 -18.87,-80.03 -18.97,-80.02 -19.22,-79.94 -19.69,-79.78 -20.54,-79.51 -21.9,-79.08" fill="none" stroke="rgb(220, 208, 186)" stroke-width="2" stroke-linejoin="round" filter="url(#fuzzy)" /><polyline points="0.96,-82.85 2.26,-82.85 3.18,-82.69 3.55,-82.47 3.53,-82.2 3.19,-81.89 2.52,-81.5 1.42,-81.01 -0.2,-80.39 -2.46,-79.67 -5.44,-78.82 -9.18,-77.82 -13.69,-76.65 -18.96,-75.27 -25.03,-73.71 -31.86,-71.99" fill="none" stroke="rgb(220, 208, 186)" stroke-width="2" stroke-linejoin="round" filter="url(#fuzzy)" /><polyline points="-0.4,-82.98 0.26,-82.87 1.03,-82.8 1.79,-82.67 2.37,-82.47 2.69,-82.2 2.76,-81.86 2.6,-81.45 2.21,-80.97 1.56,-80.4 0.6,-79.74 -0.73,-78.99 -2.45,-78.15 -4.58,-77.21 -7.1,-76.16 -10.01,-74.98 -13.35,-73.65 -17.14,-72.16 -21.4,-70.53 -26.15,-68.8 -31.41,-66.99 -37.27,-65.02 -43.94,-62.76" fill="none" stroke="rgb(220, 208, 186)" stroke-width="2" stroke-linejoin="round" filter="url(#fuzzy)" /><polyline points="13.13,-81.49 14.67,-81.22 16.09,-80.88 17.55,-80.44 19.13,-79.91 20.78,-79.33 22.39,-78.75 23.89,-78.2 25.23,-77.68 26.38,-77.22 27.36,-76.83 28.17,-76.51 28.79,-76.28 29.19,-76.15 29.33,-76.12 29.19,-76.21 28.74,-76.39 27.93,-76.7 26.52,-77.22" fill="none" stroke="rgb(220, 208, 186)" stroke-width="2" stroke-linejoin="round" filter="url(#fuzzy)" /><polyline points="-16.85,-80.79 -14.73,-81.16 -13.43,-81.41 -12.3,-81.61 -11.16,-81.79 -10,-81.97 -8.87,-82.13 -7.78,-82.28 -6.75,-82.41 -5.82,-82.5 -5.04,-82.57 -4.48,-82.6 -4.19,-82.59 -4.19,-82.54 -4.47,-82.45 -5.05,-82.31 -5.94,-82.13 -7.19,-81.89 -8.9,-81.58 -11.14,-81.2 -13.85,-80.73 -16.81,-80.21" fill="none" stroke="rgb(220, 208, 186)" stroke-width="2" stroke-linejoin="round" filter="url(#fuzzy)" /><polyline points="-3.8,-82.74 -2.53,-82.82 -1.59,-82.91 -0.69,-83.14 0.26,-83.63 1.29,-84.3 2.37,-84.96 3.46,-85.39 4.54,-85.51 5.6,-85.38 6.68,-85.09 7.8,-84.77 8.97,-84.47 10.17,-84.25 11.35,-84.14 12.49,-84.17 13.58,-84.34 14.65,-84.58 15.75,-84.84 16.91,-85.04 18.18,-85.14 19.65,-85.12 21.53,-84.96" fill="none" stroke="rgb(220, 208, 186)" stroke-width="2" stroke-linejoin="round" filter="url(#fuzzy)" /><polyline points="-41.84,-100.28 -40.06,-99.09 -38.08,-98.28 -36.05,-96.85 -34.07,-95.19 -32.22,-94.04 -30.61,-93.85 -29.22,-94.54 -27.97,-95.59 -26.76,-96.45 -25.51,-96.78 -24.21,-96.56 -22.86,-95.96 -21.43,-95.14 -19.89,-94.1 -18.23,-92.73 -16.49,-91.01 -14.79,-89.19 -13.23,-87.78 -11.87,-87.26 -10.71,-87.6 -9.7,-87.7 -8.9,-85.56 -8.37,-82.08" fill="none" stroke="rgb(220, 208, 186)" stroke-width="2" stroke-linejoin="round" filter="url(#fuzzy)" /><polyline points="-10.35,-81.94 -11.59,-81.88 -12.53,-81.91 -13.65,-82.18 -15.02,-82.8 -16.55,-83.7 -18.06,-84.67 -19.43,-85.48 -20.62,-85.99 -21.73,-86.17 -22.85,-86.14 -24.1,-86.1 -25.51,-86.24 -27.05,-86.61 -28.63,-87.13 -30.2,-87.71 -31.75,-88.33 -33.32,-89.04 -34.94,-89.75 -36.49,-90.22 -37.84,-90.24 -39.1,-90.28 -40.97,-91.94 -35.89,-87.31 -33.74,-87.22 -32.1,-86.57 -30.82,-86.22 -29.57,-86.11 -28.18,-85.9 -26.63,-85.41 -25.02,-84.76 -23.49,-84.18 -22.17,-83.8 -21.07,-83.58 -20.1,-83.32 -19.07,-82.86 -17.79,-82.2 -16.2,-81.58 -14.6,-81.34 -13.78,-81.5 -13.67,-81.27 -17.26,-86.48 -18.83,-86.15 -19.57,-84.45 -20.16,-83.06 -20.93,-82.29 -21.98,-82.09 -23.29,-82.28 -24.73,-82.65 -26.17,-82.97 -27.55,-83.13 -28.85,-83.13 -30.14,-83.14 -31.49,-83.3 -32.97,-83.71 -34.58,-84.33 -36.27,-84.98 -37.99,-85.47 -39.66,-85.62 -41.29,-85.42 -42.91,-85.04 -44.6,-84.78 -46.42,-84.82 -48.25,-84.89 -50.25,-84.01" fill="none" stroke="rgb(220, 208, 186)" stroke-width="2" stroke-linejoin="round" filter="url(#fuzzy)" /><polyline points="12.15,-73.62 10.11,-74.05 8.67,-74.77 7.54,-75.44 6.54,-76.01 5.59,-76.46 4.65,-76.76 3.71,-76.94 2.74,-77.07 1.77,-77.24 0.8,-77.5 -0.17,-77.88 -1.16,-78.37 -2.2,-78.87 -3.32,-79.32 -4.51,-79.67 -5.74,-79.95 -6.96,-80.24 -8.15,-80.6 -9.28,-80.97 -10.39,-81.24 -11.45,-81.33 -12.44,-81.32 -13.26,-81.33 -13.67,-81.27" fill="none" stroke="rgb(220, 208, 186)" stroke-width="2" stroke-linejoin="round" filter="url(#fuzzy)" /><polyline points="-22.45,-78.96 -23.37,-86.54 -22.42,-87.58 -21.47,-87.51 -20.51,-87.41 -19.42,-87.6 -18.19,-88.12 -16.91,-88.84 -15.66,-89.62 -14.48,-90.4 -13.36,-91.28 -12.3,-92.52 -11.33,-94.45 -10.43,-97.22 -9.52,-100.58 -8.35,-103.82 -6.72,-106.36 -4.74,-108.59 -2.78,-111.95" fill="none" stroke="rgb(220, 208, 186)" stroke-width="2" stroke-linejoin="round" filter="url(#fuzzy)" /><polyline points="-22.45,-78.96 -21.41,-79.34 -20.34,-79.71 -19.59,-80.01 -18.87,-80.36 -17.98,-80.79 -16.88,-81.25 -15.66,-81.68 -14.45,-82.04 -13.3,-82.36 -12.22,-82.66 -11.17,-82.99 -10.15,-83.35 -9.21,-83.73 -8.36,-84.1 -7.29,-84.47 -5.05,-85.09 -28.25,-76.89 -26.74,-77.48 -25.33,-77.83 -23.95,-77.96 -22.61,-77.97 -21.39,-77.93 -20.27,-77.82 -19.23,-77.57 -18.17,-77.19 -17.06,-76.75 -15.87,-76.33 -14.65,-76.01 -13.44,-75.82 -12.3,-75.73 -11.21,-75.73 -10.18,-75.79 -9.18,-75.9 -8.18,-75.98 -7.15,-75.96 -6.01,-75.73 -4.77,-75.27 -3.48,-74.68 -2.28,-74.16 -1.3,-73.94 -0.35,-74.14" fill="none" stroke="rgb(220, 208, 186)" stroke-width="2" stroke-linejoin="round" filter="url(#fuzzy)" /><polyline points="-11.45,-77.75 -12.76,-78.03 -14.04,-78.06 -15.42,-77.99 -16.72,-77.96 -17.82,-77.98 -18.78,-78.05 -19.68,-78.06 -20.64,-77.96 -21.69,-77.73 -22.82,-77.42 -24,-77.12 -25.2,-76.9 -26.36,-76.77 -27.44,-76.67 -28.44,-76.46 -29.46,-76.06 -30.52,-75.48 -31.33,-75.09" fill="none" stroke="rgb(220, 208, 186)" stroke-width="2" stroke-linejoin="round" filter="url(#fuzzy)" /><polyline points="-50.82,-61.46 -49.47,-62.89 -48.72,-63.56 -47.98,-64.14 -47.13,-64.8 -46.21,-65.54 -45.29,-66.29 -44.43,-66.98 -43.62,-67.6 -42.82,-68.17 -42.01,-68.72 -41.16,-69.28 -40.27,-69.85 -39.32,-70.45 -38.32,-71.09 -37.26,-71.78 -36.13,-72.51 -34.86,-73.32 -33.1,-74.27 -33.1,-74.27 -34.83,-73.25 -36.05,-72.37 -37.12,-71.53 -38.1,-70.7 -39,-69.89 -39.83,-69.11 -40.61,-68.37 -41.35,-67.65 -42.04,-66.94 -42.7,-66.2 -43.35,-65.38 -44.04,-64.49 -44.79,-63.55 -45.54,-62.63 -46.22,-61.78 -46.75,-61.01 -47.33,-60.18 -48.56,-58.73 -69.8,-67.65 -68.29,-68.21 -66.9,-69.46 -65.17,-70.26 -63.32,-70.61 -61.64,-70.87 -60.24,-71.3 -59.04,-71.89 -57.87,-72.45 -56.57,-72.79 -55.04,-72.82 -53.32,-72.61 -51.53,-72.31 -49.82,-72.11 -48.32,-72.09 -47.02,-72.21 -45.81,-72.3 -44.5,-72.16 -43.01,-71.73 -41.45,-71.23 -40.07,-71.08 -38.88,-71.46 -37.08,-71.94" fill="none" stroke="rgb(220, 208, 186)" stroke-width="2" stroke-linejoin="round" filter="url(#fuzzy)" /><polyline points="-40.83,-69.47 -40.57,-69.6 -39.72,-70.1 -38.71,-70.74 -37.63,-71.45 -36.5,-72.17 -35.34,-72.89 -34.18,-73.58 -33.06,-74.21 -31.98,-74.8 -30.95,-75.35 -29.95,-75.87 -28.98,-76.37 -28.02,-76.85 -27.04,-77.29 -26,-77.72 -24.88,-78.13 -23.67,-78.54 -22.39,-78.95 -20.89,-79.39 -18.53,-80 -47.92,-63.38 -47.25,-64.84 -46.7,-66.62 -46.66,-68.92 -46.8,-71.15 -46.79,-72.98 -46.55,-74.49 -46.16,-75.91 -45.7,-77.37 -45.17,-78.85 -44.52,-80.34 -43.8,-81.93 -43.12,-83.86 -42.55,-86.29 -42.03,-89.07 -41.39,-91.73 -40.56,-93.75 -39.76,-95.29" fill="none" stroke="rgb(220, 208, 186)" stroke-width="2" stroke-linejoin="round" filter="url(#fuzzy)" /><polyline points="-34.75,-67.42 -36.22,-66.59 -37.24,-66.12 -38.12,-65.63 -38.95,-65.12 -39.78,-64.66 -40.67,-64.32 -41.65,-64.09 -42.74,-63.91 -43.9,-63.71 -45.06,-63.44 -46.16,-63.07 -47.15,-62.59 -48.01,-61.98 -48.75,-61.21 -49.34,-60.26 -49.81,-59.17 -50.27,-58.14 -51.07,-57.42 -52.54,-57.16 -54.32,-56.74" fill="none" stroke="rgb(220, 208, 186)" stroke-width="2" stroke-linejoin="round" filter="url(#fuzzy)" /><polyline points="-55.87,-54.81 -56.45,-55.5 -56.87,-57.23 -56.87,-59.17 -56.35,-60.7 -55.41,-61.67 -54.28,-62.27 -53.21,-62.85 -52.37,-63.67 -51.82,-64.85 -51.57,-66.43 -51.57,-68.38 -51.73,-70.67 -51.95,-73.17 -52.11,-75.66 -52.09,-77.88 -51.85,-79.66 -51.44,-81.08 -50.99,-82.46 -50.74,-84.16 -51.6,-86.26" fill="none" stroke="rgb(220, 208, 186)" stroke-width="2" stroke-linejoin="round" filter="url(#fuzzy)" /><polyline points="-58.38,-51.58 -61.51,-51.6 -63.63,-51.57 -64.13,-50.43 -64.23,-48.95 -64.67,-47.66 -65.61,-46.68 -66.94,-46.01 -68.51,-45.54 -70.21,-45.19 -71.93,-44.87 -73.63,-44.47 -75.34,-43.94 -77.1,-43.25 -78.95,-42.46 -80.86,-41.65 -82.63,-40.86 -84.03,-40.08 -85.2,-39.35 -86.88,-38.93 -89.1,-39.12 -58.38,-51.58 -57.91,-52.62 -57.61,-53.98 -57.63,-55.39 -57.87,-56.98 -58.26,-58.93 -58.68,-61.18 -58.94,-63.43 -58.9,-65.38 -58.55,-66.98 -58.03,-68.34 -57.5,-69.69 -57.07,-71.17 -56.76,-72.8 -56.51,-74.56 -56.28,-76.44 -56.07,-78.55 -55.97,-81 -56.13,-83.81 -56.59,-86.73 -57.09,-89.18 -57.02,-90.23 -61.84,-46.58 -61.64,-48.21 -62.44,-50.47 -63.66,-53.28 -64.54,-56 -64.92,-58.3 -64.89,-60.11 -64.51,-61.44 -63.87,-62.45 -63.15,-63.44 -62.56,-64.71 -62.2,-66.4 -62.06,-68.4 -62.07,-70.55 -62.17,-72.77 -62.4,-75.18 -62.88,-78.02 -63.66,-81.26 -64.4,-83.99 -63.93,-84.56" fill="none" stroke="rgb(220, 208, 186)" stroke-width="2" stroke-linejoin="round" filter="url(#fuzzy)" /><polyline points="71.47,-23.69 73.05,-21.11 73.66,-19.51 73.84,-18.29 74.06,-17.19 74.46,-16.09 75.04,-14.92 75.72,-13.69 76.39,-12.43 76.99,-11.15 77.47,-9.9 77.82,-8.71 78.04,-7.6 78.13,-6.52 78.13,-5.35 78.1,-3.98 78.18,-2.6 78.61,-1.98" fill="none" stroke="rgb(220, 208, 186)" stroke-width="2" stroke-linejoin="round" filter="url(#fuzzy)" /><polyline points="-68.14,-33.31 -67.75,-35.04 -67.88,-36.93 -68.77,-39.18 -70.09,-41.47 -71.17,-43.45 -71.55,-44.98 -71.31,-46.2 -70.83,-47.39 -70.49,-48.79 -70.47,-50.49 -70.75,-52.44 -71.25,-54.56 -71.85,-56.77 -72.3,-58.93 -72.23,-60.85 -71.53,-62.48 -71.53,-64.35" fill="none" stroke="rgb(220, 208, 186)" stroke-width="2" stroke-linejoin="round" filter="url(#fuzzy)" /><polyline points="-64.13,-2.31 -64.5,-2.32 -65.41,-3.4 -66.19,-4.51 -66.8,-5.57 -67.31,-6.63 -67.75,-7.76 -68.16,-8.98 -68.55,-10.29 -68.91,-11.64 -69.18,-12.96 -69.33,-14.23 -69.38,-15.45 -69.38,-16.65 -69.41,-17.86 -69.49,-19.07 -69.56,-20.27 -69.51,-21.43 -69.23,-22.56 -68.86,-23.75 -68.72,-25.08 -69.09,-26.57 -69.68,-28.19 -69.56,-30.54 -69.56,-30.54 -70.47,-28.48 -71.53,-27.44 -72.4,-26.36 -72.98,-25.15 -73.42,-23.93 -73.85,-22.76 -74.3,-21.62 -74.8,-20.48 -75.37,-19.32 -76.08,-18.17 -76.93,-17.01 -77.9,-15.83 -78.87,-14.6 -79.71,-13.29 -80.32,-11.92 -80.7,-10.54 -80.95,-9.19 -81.24,-7.91 -81.67,-6.68 -82.31,-5.46 -83.12,-4.22 -83.99,-2.98 -84.64,-1.89 -85.06,-0.46" fill="none" stroke="rgb(220, 208, 186)" stroke-width="2" stroke-linejoin="round" filter="url(#fuzzy)" /><polyline points="82.43,-66.34 83.35,-62.85 82.41,-60.38 80.3,-57.42 77.89,-54.11 75.81,-50.87 74.28,-47.96 73.29,-45.48 72.79,-43.48 72.8,-42 73.35,-40.99 74.32,-40.26 75.32,-39.47 75.8,-38.26 75.36,-36.46 74.05,-34.23 72.45,-32.07 71.27,-30.44 70.7,-29.36 70.05,-28.26" fill="none" stroke="rgb(220, 208, 186)" stroke-width="2" stroke-linejoin="round" filter="url(#fuzzy)" /><polyline points="72.18,-68.21 71.7,-64.47 71.61,-62.24 72.02,-60.82 72.39,-59.58 72.46,-58.17 72.23,-56.52 71.79,-54.69 71.19,-52.75 70.55,-50.77 70.03,-48.83 69.77,-47 69.79,-45.31 70.02,-43.76 70.28,-42.31 70.41,-40.96 70.33,-39.66 70.07,-38.36 69.8,-37.01 69.75,-35.53 70.01,-33.87 70.18,-32.08 69.07,-30.85" fill="none" stroke="rgb(220, 208, 186)" stroke-width="2" stroke-linejoin="round" filter="url(#fuzzy)" /><polyline points="45.72,-55.97 47.45,-54.83 48.61,-54.28 49.67,-53.64 50.73,-53.02 51.82,-52.42 52.94,-51.79 54.03,-51.08 55,-50.27 55.83,-49.38 56.49,-48.44 57.03,-47.51 57.51,-46.59 57.97,-45.7 58.47,-44.85 59.09,-44.06 59.87,-43.36 60.84,-42.74 61.99,-42.13 63.21,-41.41 64.4,-40.46 65.43,-39.27 66.2,-38.11 66.47,-37.66" fill="none" stroke="rgb(220, 208, 186)" stroke-width="2" stroke-linejoin="round" filter="url(#fuzzy)" /><polyline points="58.4,-64.67 58.16,-64.67 58.67,-63.33 59.11,-61.78 59.49,-60.23 59.89,-58.68 60.33,-57.13 60.81,-55.62 61.32,-54.23 61.85,-53 62.36,-51.91 62.83,-50.88 63.19,-49.83 63.42,-48.69 63.52,-47.45 63.56,-46.15 63.64,-44.86 63.87,-43.59 64.31,-42.31 64.94,-40.91 65.72,-39.21 66.5,-37.53 66.5,-37.53 66.85,-37.54 67.38,-37.2 68.16,-36.6 69.47,-35.89 71.25,-35.19 73.19,-34.53 74.99,-33.89 76.61,-33.28 78.17,-32.7 79.82,-32.1 81.52,-31.41 83.13,-30.54 84.64,-29.47 86.23,-28.24 88.18,-26.88 90.51,-25.4 92.75,-23.93 93.52,-22.55" fill="none" stroke="rgb(220, 208, 186)" stroke-width="2" stroke-linejoin="round" filter="url(#fuzzy)" /><polyline points="64.01,-42.67 65.82,-40.18 66.47,-38.73 66.81,-37.84 67.2,-37.14 67.75,-36.4 68.42,-35.5 69.14,-34.42 69.82,-33.25 70.46,-32.13 71.08,-31.13 71.77,-30.28 72.53,-29.47 73.33,-28.59 74.06,-27.54 74.64,-26.42 75.07,-25.5 75.56,-25.05" fill="none" stroke="rgb(220, 208, 186)" stroke-width="2" stroke-linejoin="round" filter="url(#fuzzy)" /><polyline points="60.34,-48.77 62.53,-49.06 63.57,-48.09 63.96,-46.94 64.36,-45.87 65,-44.88 65.85,-43.89 66.81,-42.88 67.9,-41.95 69.17,-41.18 70.66,-40.63 72.3,-40.22 73.93,-39.78 75.37,-39.16 76.57,-38.28 77.55,-37.2 78.47,-36.06 79.49,-35.03 80.73,-34.18 82.27,-33.47 84.14,-32.81 86.31,-32.1 88.62,-31.38 90.66,-30.8 91.69,-30.4 56.82,-53.69 60.5,-59.2 59.48,-59.82 57.76,-59.8 56.39,-60.25 55.5,-61.27 54.94,-62.59 54.43,-63.91 53.83,-65.13 53.13,-66.3 52.43,-67.6 51.84,-69.13 51.41,-70.92 51.12,-72.85 50.9,-74.76 50.66,-76.49 50.36,-77.96 50.03,-79.28 49.73,-80.71 49.52,-82.6 49.32,-85.09 49.05,-88.01 48.85,-91.36" fill="none" stroke="rgb(220, 208, 186)" stroke-width="2" stroke-linejoin="round" filter="url(#fuzzy)" /><polyline points="54.5,-56.69 54.4,-56.1 54.76,-55.21 55.48,-54.28 56.32,-53.24 57.07,-52.08 57.62,-50.85 57.97,-49.61 58.15,-48.4 58.25,-47.24 58.35,-46.11 58.5,-45 58.7,-43.93 58.96,-42.97 59.3,-42.05 59.83,-40.92 60.82,-39.22 51.53,-60.13 53.72,-58.21 54.86,-57.16 55.61,-56.14 56.35,-55.05 57.19,-53.96 58.07,-52.91 58.9,-51.91 59.64,-50.96 60.3,-50.06 60.94,-49.2 61.58,-48.39 62.25,-47.6 62.94,-46.79 63.64,-45.95 64.35,-45.05 65.11,-44.07 65.94,-43.01 66.82,-41.89 67.69,-40.76 68.42,-39.72 68.94,-38.91 69.26,-38.31 69.56,-37.75" fill="none" stroke="rgb(220, 208, 186)" stroke-width="2" stroke-linejoin="round" filter="url(#fuzzy)" /><polyline points="52.84,-58.51 52.78,-62.15 51.68,-62.8 50.51,-63.33 49.51,-64.25 48.65,-65.42 47.87,-66.6 47.13,-67.69 46.41,-68.65 45.72,-69.49 45.03,-70.26 44.33,-71.01 43.59,-71.83 42.8,-72.78 41.95,-73.85 41.04,-74.96 40.07,-76.04 39.08,-77.02 38.1,-77.97 37.19,-78.99 36.36,-80.18 35.59,-81.52 34.76,-82.87 33.68,-84.13 32.4,-85.55" fill="none" stroke="rgb(220, 208, 186)" stroke-width="2" stroke-linejoin="round" filter="url(#fuzzy)" /><polyline points="44.52,-92.2 45.43,-91.49 45.62,-89.5 46.15,-87.33 46.95,-85.29 47.76,-83.4 48.41,-81.63 48.89,-80.01 49.31,-78.62 49.85,-77.52 50.57,-76.69 51.36,-75.85 51.96,-74.6 52.15,-72.63 51.97,-70 51.83,-67.32 52.25,-65.49 53.39,-64.87 54.43,-64.14 52.84,-58.51" fill="none" stroke="rgb(220, 208, 186)" stroke-width="2" stroke-linejoin="round" filter="url(#fuzzy)" /><polyline points="30.15,-74.88 31.35,-74.3 32.37,-73.85 33.37,-73.38 34.38,-72.86 35.39,-72.31 36.42,-71.71 37.49,-71.05 38.58,-70.35 39.64,-69.63 40.62,-68.92 41.5,-68.28 42.29,-67.69 43.04,-67.14 43.8,-66.6 44.61,-66.03 45.49,-65.4 46.44,-64.67 47.45,-63.83 48.47,-62.89 49.43,-61.95 50.08,-61.26 50.05,-61.26 50.05,-61.26 50.17,-61.36 49.84,-62.5 49.47,-64.25 49.12,-66.17 48.71,-67.91 48.16,-69.26 47.43,-70.19 46.61,-70.84 45.82,-71.42 45.1,-72.14 44.43,-73.06 43.73,-74.17 42.94,-75.41 42.09,-76.76 41.24,-78.2 40.48,-79.73 39.8,-81.31 39.1,-82.82 38.29,-84.14 37.52,-85.32 36.86,-86.62" fill="none" stroke="rgb(220, 208, 186)" stroke-width="2" stroke-linejoin="round" filter="url(#fuzzy)" /><polyline points="50.65,-60.63 52.82,-62.72 54.27,-62.67 55.53,-62.17 56.72,-61.51 57.87,-60.78 59.03,-60.05 60.25,-59.33 61.54,-58.57 62.83,-57.76 64.11,-56.95 65.45,-56.29 66.93,-55.94 68.47,-55.86 69.81,-55.67 71.08,-54.84 74.07,-53.23" fill="none" stroke="rgb(220, 208, 186)" stroke-width="2" stroke-linejoin="round" filter="url(#fuzzy)" /><polyline points="45.78,-65.56 45.47,-66.19 45.08,-67.45 44.77,-68.79 44.45,-69.92 43.97,-70.84 43.28,-71.68 42.41,-72.54 41.42,-73.46 40.42,-74.49 39.47,-75.66 38.65,-77.03 37.96,-78.62 37.36,-80.37 36.75,-82.15 36.05,-83.82 35.24,-85.32 34.3,-86.62 33.31,-87.76 32.3,-88.81 31.31,-89.84 30.42,-91.04 29.74,-92.65 29.52,-94.64 29.51,-95.91" fill="none" stroke="rgb(220, 208, 186)" stroke-width="2" stroke-linejoin="round" filter="url(#fuzzy)" /><polyline points="45.62,-65.74 48.73,-68.76 51.92,-70.85 53.25,-70.14 53.58,-68.19 54.03,-66.52 55.13,-65.75 56.9,-65.79 59.09,-66.26 61.34,-66.72 63.34,-66.85 65.02,-66.56 66.55,-65.98 68.3,-65.44 70.57,-65.22 73.24,-65.3 75.74,-65.29 77.35,-64.51 77.69,-62.25 42.82,-67.85 43.59,-67.78 44.67,-67.32 46.09,-67.22 47.76,-67.38 49.41,-67.39 50.78,-66.96 51.86,-66.15 52.81,-65.21 53.88,-64.44 55.23,-64 56.87,-63.86 58.66,-63.85 60.4,-63.73 61.93,-63.33 63.26,-62.63 64.55,-61.77 66.05,-61 67.94,-60.57 70.26,-60.59 72.79,-60.96 75.19,-61.42 77.25,-61.63 79.24,-61.19 81.99,-58.92 29.54,-94.62 29.35,-92.21 29.84,-89.74 30.59,-88.01 31.47,-86.86 32.47,-85.95 33.52,-85.02 34.48,-83.86 35.28,-82.38 35.94,-80.73 36.65,-79.25 37.52,-78.29 38.49,-77.74 39.25,-76.77 39.43,-74.06 39.43,-70.35" fill="none" stroke="rgb(220, 208, 186)" stroke-width="2" stroke-linejoin="round" filter="url(#fuzzy)" /><polyline points="30.42,-75.55 31.3,-74.27 31.96,-73.07 32.72,-72.16 33.63,-71.5 34.59,-70.96 35.51,-70.3 36.32,-69.32 37.04,-68.03 37.72,-66.62 38.4,-65.34 39.05,-64.36 39.59,-63.62 39.96,-62.88 40.19,-61.85 40.42,-60.36 40.62,-58.55 36.96,-63.91 36.35,-65.17 35.64,-66.64 34.93,-67.87 34.23,-68.9 33.51,-69.8 32.7,-70.58 31.82,-71.31 30.92,-72.06 30.03,-72.95 29.18,-73.97 28.36,-75.02 27.54,-75.92 26.66,-76.57 25.68,-77.06 24.75,-77.69 24.51,-78.52" fill="none" stroke="rgb(220, 208, 186)" stroke-width="2" stroke-linejoin="round" filter="url(#fuzzy)" /><polyline points="20.55,-79.89 19.75,-79.94 18.56,-80.27 17.36,-80.62 16.25,-80.91 15.22,-81.15 14.25,-81.36 13.34,-81.54 12.41,-81.71 11.39,-81.88 10.25,-82.05 9.04,-82.21 7.81,-82.34 6.6,-82.42 5.56,-82.48 5.5,-82.51 20.16,-79.57 20.94,-79.07 22.07,-78.51 22.97,-77.77 23.65,-76.92 24.23,-75.95 24.78,-74.82 25.34,-73.57 25.93,-72.3 26.6,-71.13 27.37,-70.12 28.25,-69.3 29.14,-68.59 29.95,-67.77 30.62,-66.58 31.26,-64.92 31.94,-63" fill="none" stroke="rgb(220, 208, 186)" stroke-width="2" stroke-linejoin="round" filter="url(#fuzzy)" /><polyline points="31.06,-70.09 30.84,-70.48 30.07,-71 29.12,-71.74 28.2,-72.61 27.36,-73.5 26.55,-74.28 25.74,-74.9 24.94,-75.41 24.18,-75.96 23.47,-76.63 22.73,-77.43 21.85,-78.27 20.81,-79.07 19.67,-79.78 18.31,-80.48" fill="none" stroke="rgb(220, 208, 186)" stroke-width="2" stroke-linejoin="round" filter="url(#fuzzy)" /><polyline points="16.46,-80.88 15.9,-80.94 14.89,-80.84 13.85,-80.51 12.88,-80.03 11.86,-79.46 10.74,-78.82 9.53,-78.13 8.3,-77.47 7.13,-76.98 6.07,-76.71 5.11,-76.49 4.2,-76.01 3.23,-75.04 2.14,-73.63 1.04,-72.2 0.25,-71.11 13.46,-81.54 11.16,-81.59 9.48,-81.43 8.16,-81.21 7,-80.95 5.94,-80.56 4.91,-79.96 3.89,-79.18 2.87,-78.28 1.87,-77.32 0.9,-76.34 -0.05,-75.39 -0.99,-74.55 -1.96,-73.86 -2.99,-73.38 -4.07,-73.04 -5.19,-72.78 -6.26,-72.51 -7.25,-72.14 -8.16,-71.69 -9.07,-71.24 -10,-70.94 -10.88,-70.72 -11.85,-70.08" fill="none" stroke="rgb(220, 208, 186)" stroke-width="2" stroke-linejoin="round" filter="url(#fuzzy)" /><polyline points="8.46,-82.37 7.83,-80.7 6.8,-80.04 5.75,-79.49 4.76,-79.15 3.78,-79.13 2.78,-79.32 1.79,-79.44 0.83,-79.25 -0.1,-78.66 -1.02,-77.74 -1.98,-76.66 -3.01,-75.58 -4.11,-74.63 -5.24,-73.84 -6.32,-73.16 -7.27,-72.46 -8.1,-71.56 -8.9,-70.29 -9.63,-68.58 -9.89,-67.15 5.5,-82.51 4.21,-82.91 2.85,-83.54 1.65,-84.27 0.6,-84.83 -0.37,-85.1 -1.37,-85.22 -2.48,-85.4 -3.74,-85.88 -5.14,-86.78 -6.6,-88.11 -8.05,-89.72 -9.44,-91.4 -10.78,-92.86 -12.1,-93.95 -13.4,-94.63 -14.58,-95.05 -15.58,-95.43 -16.17,-96.16" fill="none" stroke="rgb(220, 208, 186)" stroke-width="2" stroke-linejoin="round" filter="url(#fuzzy)" />
    </g>
    
        <g id="lineNose">
        <path d="M -8.31,0.31000000000000005 Q 10.58, 3.0300000000000002 1.1349999999999998, -4.2860000000000005" fill="none" stroke="black" stroke-width="3" stroke-linejoin="round" filter="url(#fuzzy)"></path>
        </g>
      
    <g id="mouth">
      <polyline points="40.2,56.61 39.7,58.11 39.97,57.86 39.3,58.59 39.12,58.78 39.34,58.52 39.35,58.66 38.9,59.22 37.7,59.88 38.55,59.49 37.48,60.17 37.51,59.98 36.49,60.65 36.07,60.64 35.72,60.97 34.76,61.09 34.55,61.25 33.38,61.49 33.86,61.46 32.49,61.71 32.24,61.65 31.61,61.74 31.1,61.86 30.69,61.83 30.59,61.81 29.88,61.95 29.09,61.96 26.23,62 26.4,61.99 26.42,62.01 25.12,61.96 24.04,61.89 23.55,61.8 22.34,61.73 21.39,61.6 19.79,61.36 21.14,61.59 18.99,61.27 19.55,61.36 18.01,61.1 15.04,60.53 16.13,60.74 13.08,60.07 14.26,60.35 13.87,60.28 11.63,59.73 9.4,59.11 9.38,59.11 9.82,59.24 7.09,58.42 5.37,57.85 4.54,57.56 6.97,58.38 3.18,57.07 2.44,56.79 3.7,57.26 2.26,56.72 1.27,56.34 0.81,56.14 -2.3,54.81 -1.76,55.05 -3.18,54.4 -4,54 -4.38,53.83 -6.42,52.77 -5.8,53.06 -6.55,52.66 -8.23,51.7 -7.8,51.95 -8.51,51.59 -8.78,51.43 -10.36,50.44 -10.48,50.32 -12.69,48.84 -13.17,48.43 -12.77,48.71 -13.36,48.26 -13.47,48.13 -14.33,47.49 -15.85,46.07 -14.95,46.9 -16.35,45.69 -16.36,45.67 -16.85,45.1 -16.85,45.09 -17.74,43.97 -18.1,43.63 -18.01,43.74 -18.56,42.59 -18.52,42.69 -18.94,41.77 -19.44,41.02 -19.48,40.54 -19.35,40.68 -19.49,40.85 -19.72,39.49 -19.6,39.63 -19.71,39.81 -19.67,39.57 -19.64,38.87 -19.31,38.25 -19,37.52 -18.9,36.95 -19.03,37.36 -18.6,36.78 -18.22,36.54 -18.59,36.63 -17.87,36.16 -17.5,35.69 -17.8,35.92 -17.2,35.64 -16.45,35.09 -16.17,34.95 -15.22,34.7 -14.94,34.56 -15.07,34.5 -12.95,34.04 -13.46,34.07 -12.31,33.83 -12.6,33.92 -12.53,33.93 -10.32,33.59 -9.99,33.6 -10.67,33.63 -9.58,33.53 -8.07,33.49 -6.03,33.51 -8.18,33.43 -5.37,33.48 -6.58,33.45 -4.47,33.53 -3.69,33.57 -1.67,33.77 -1.78,33.73 -0.48,33.91 -0.01,33.95 0.45,34.04 2.87,34.43 2.74,34.39 3.64,34.55 2.85,34.41 5.54,34.94 6.06,35.04 8.4,35.61 9.12,35.8 8.92,35.73 10.54,36.17 11.59,36.47 13.43,37.03 12.46,36.73 14.1,37.25 15.48,37.71 14.12,37.25 17.77,38.53 16.18,37.96 17.75,38.52 19.18,39.08 18.77,38.91 20.79,39.73 22.55,40.49 21.67,40.11 24.18,41.25 23.21,40.79 25.96,42.1 25.97,42.11 26.04,42.14 27.29,42.81 29.47,44.05 28.95,43.76 29.84,44.25 30.67,44.79 32.12,45.77 31.03,45.06 32.66,46.12 33.61,46.83 32.87,46.28 34.7,47.62 36.04,48.78 35.78,48.62 36.65,49.38 36.37,49.11 37.08,49.83 37.93,50.72 38.21,51.02 38.76,51.84 38.35,51.41 38.66,51.63 39.38,52.95 39.59,53.47 39.49,53.23 39.62,53.18 40.12,54.48 39.98,54.33 40.4,55.52 40.44,55.78 40.4,55.43 40.37,55.44 40.17,55.62 40.2,56.81 40,57.23" fill="rgb(215,127,140)" stroke="black" stroke-width="3" stroke-linejoin="round" filter="url(#fuzzy)" />
    </g>
  </svg>
  