
  <svg viewBox="-100 -100 200 200" xmlns="http://www.w3.org/2000/svg" width="500" height="500" id="face-svg">
    <defs>
      <clipPath id="leftEyeClipPath">
        <polyline points="32.72,-0.78 32.47,-0.95 32.19,-1.12 31.87,-1.29 31.52,-1.47 31.13,-1.65 30.72,-1.83 30.26,-2.01 29.77,-2.2 29.25,-2.38 28.69,-2.56 28.1,-2.73 27.48,-2.91 26.82,-3.08 26.13,-3.25 25.41,-3.42 24.79,-3.66 24.1,-3.89 23.35,-4.12 22.55,-4.33 21.69,-4.54 20.77,-4.73 19.81,-4.91 18.8,-5.08 17.75,-5.23 16.65,-5.38 15.52,-5.51 14.35,-5.62 13.15,-5.72 11.93,-5.81 10.68,-5.88 9.41,-5.94 8.13,-5.98 6.84,-6.02 5.54,-6.03 4.24,-6.03 2.94,-6.02 1.64,-6 0.35,-5.96 -0.93,-5.91 -2.2,-5.85 -3.44,-5.77 -4.67,-5.68 -5.88,-5.59 -7.06,-5.48 -8.22,-5.36 -9.34,-5.23 -10.44,-5.09 -11.5,-4.94 -12.52,-4.79 -13.51,-4.62 -14.47,-4.45 -15.38,-4.27 -16.26,-4.08 -17.1,-3.89 -17.9,-3.7 -18.66,-3.5 -19.38,-3.29 -20.06,-3.08 -20.71,-2.87 -21.32,-2.65 -21.9,-2.43 -22.44,-2.21 -22.95,-1.99 -23.43,-1.77 -23.88,-1.54 -24.31,-1.32 -24.7,-1.09 -25.07,-0.86 -25.41,-0.63 -25.72,-0.4 -26.01,-0.16 -26.26,0.07 -26.5,0.31 -26.71,0.55 -26.9,0.78 -27.06,1.02 -27.21,1.26 -27.33,1.5 -27.43,1.74 -26.26,4.68 -25.88,4.79 -25.48,4.9 -25.07,5.01 -24.65,5.11 -24.21,5.22 -23.75,5.32 -23.28,5.42 -22.79,5.52 -22.28,5.61 -21.76,5.7 -21.22,5.79 -20.66,5.87 -20.08,5.95 -19.49,6.02 -18.88,6.09 -18.24,6.16 -17.59,6.23 -16.91,6.28 -16.22,6.34 -15.5,6.39 -14.75,6.43 -13.99,6.46 -13.2,6.49 -12.39,6.51 -11.55,6.53 -10.69,6.53 -9.81,6.53 -8.91,6.52 -7.99,6.5 -7.04,6.47 -6.08,6.43 -5.1,6.39 -4.1,6.34 -3.08,6.27 -2.05,6.2 -1,6.13 0.05,6.04 1.12,5.95 2.2,5.85 3.28,5.74 4.36,5.63 5.45,5.51 6.54,5.39 7.63,5.26 8.72,5.13 9.79,4.99 10.86,4.86 11.92,4.72 12.97,4.58 14,4.44 15.01,4.3 16.01,4.16 16.98,4.03 17.93,3.89 18.85,3.76 19.74,3.64 20.6,3.51 21.43,3.4 22.23,3.28 22.99,3.18 23.72,3.08 24.4,2.99 25.05,2.9 25.66,2.82 26.3,2.71 26.91,2.6 27.51,2.48 28.08,2.37 28.62,2.26 29.15,2.15 29.64,2.04 30.12,1.93 30.57,1.82 31,1.7 31.4,1.59 31.77,1.47 32.13,1.35 32.45,1.23 32.75,1.11" />
      </clipPath>
      <clipPath id="rightEyeClipPath">
        <polyline points="-31.76,-0.85 -31.47,-1 -31.15,-1.17 -30.8,-1.33 -30.42,-1.5 -30,-1.66 -29.55,-1.83 -29.07,-2 -28.56,-2.17 -28.01,-2.33 -27.43,-2.49 -26.82,-2.66 -26.18,-2.81 -25.5,-2.97 -24.8,-3.12 -24.06,-3.26 -23.41,-3.48 -22.7,-3.7 -21.93,-3.9 -21.11,-4.09 -20.24,-4.27 -19.31,-4.44 -18.34,-4.59 -17.32,-4.74 -16.26,-4.87 -15.16,-4.99 -14.03,-5.09 -12.86,-5.18 -11.66,-5.26 -10.44,-5.33 -9.2,-5.38 -7.94,-5.42 -6.66,-5.44 -5.38,-5.46 -4.09,-5.46 -2.8,-5.45 -1.51,-5.42 -0.22,-5.39 1.06,-5.34 2.33,-5.28 3.58,-5.22 4.82,-5.14 6.03,-5.05 7.23,-4.95 8.39,-4.85 9.54,-4.74 10.65,-4.61 11.73,-4.49 12.78,-4.35 13.79,-4.21 14.77,-4.06 15.71,-3.91 16.62,-3.75 17.48,-3.59 18.31,-3.42 19.1,-3.25 19.85,-3.08 20.57,-2.91 21.24,-2.73 21.88,-2.55 22.49,-2.37 23.06,-2.19 23.6,-2.01 24.1,-1.83 24.58,-1.65 25.03,-1.47 25.45,-1.29 25.84,-1.11 26.21,-0.92 26.55,-0.74 26.86,-0.56 27.14,-0.38 27.4,-0.19 27.64,-0.01 27.85,0.17 28.04,0.35 28.21,0.53 28.36,0.71 28.48,0.89 28.59,1.07 26.17,4.03 25.74,4.13 25.3,4.22 24.84,4.32 24.37,4.41 23.88,4.5 23.37,4.59 22.85,4.68 22.32,4.76 21.76,4.84 21.19,4.92 20.6,5 20,5.07 19.37,5.14 18.73,5.21 18.07,5.28 17.39,5.34 16.69,5.4 15.97,5.45 15.23,5.5 14.47,5.55 13.69,5.59 12.88,5.63 12.06,5.66 11.21,5.68 10.34,5.7 9.45,5.71 8.54,5.72 7.61,5.71 6.67,5.7 5.7,5.69 4.72,5.66 3.72,5.63 2.71,5.59 1.69,5.55 0.65,5.49 -0.4,5.43 -1.45,5.37 -2.51,5.3 -3.58,5.22 -4.65,5.13 -5.72,5.04 -6.79,4.95 -7.86,4.85 -8.92,4.74 -9.97,4.63 -11.02,4.52 -12.05,4.41 -13.07,4.3 -14.08,4.18 -15.07,4.06 -16.03,3.94 -16.98,3.82 -17.9,3.71 -18.79,3.59 -19.66,3.48 -20.49,3.36 -21.3,3.26 -22.07,3.15 -22.81,3.05 -23.51,2.95 -24.17,2.86 -24.8,2.77 -25.39,2.69 -25.94,2.61 -26.52,2.51 -27.08,2.41 -27.62,2.31 -28.14,2.21 -28.63,2.11 -29.1,2 -29.55,1.9 -29.97,1.8 -30.37,1.7 -30.75,1.59 -31.1,1.48 -31.43,1.38 -31.73,1.27 -32.01,1.15 -32.26,1.04" />
      </clipPath>
      <filter id="fuzzy">
        <feTurbulence id="turbulence" baseFrequency="0.05" numOctaves="3" type="noise" result="noise" />
        <feDisplacementMap in="SourceGraphic" in2="noise" scale="2" />
      </filter>
      <linearGradient id="rainbowGradient" x1="0%" y1="0%" x2="100%" y2="0%">
        <stop offset="0%" style="stop-color: rgb(165, 42, 42); stop-opacity: 1" />
        <stop offset="50%" style="stop-color: rgb(148, 0, 211); stop-opacity: 1" />
        <stop offset="100%" style="stop-color: rgb(148, 0, 211); stop-opacity: 1" />
      </linearGradient>
    </defs>
    <rect x="-100" y="-100" width="100%" height="100%" fill="rgb(188, 143, 143)" />
    <polyline id="faceContour" points="69.48,-0.57 69.43,1.25 69.5,1.53 69.45,3.27 69.31,6.29 69.3,5.1 69.18,9.78 68.95,12.39 68.86,13.39 68.98,11.84 68.72,14.54 68.17,18.19 67.8,20.37 67.81,21.67 68.01,19.81 67.58,21.72 67.83,21.93 66.93,26.54 66.97,26.44 66.33,29 65.59,31.79 65.26,33.15 65.05,34.46 65.01,34.03 64.19,36.99 63.74,38.75 63.5,39.98 63.08,40.88 63.48,39.64 62.31,43.3 61.48,45.14 61.03,47.24 61.1,46.49 60.43,48.19 60.45,48.2 58.4,53.37 58.44,53.35 58.83,52.2 56.99,56 55.9,58.12 56.54,57.24 55.85,58.16 54.77,59.73 54.16,61.59 52.53,64.22 53.41,62.94 51.71,65.39 52.04,64.52 50.57,67.37 49.82,68.19 48.76,69.72 48.93,69.54 47.44,71.67 46.99,72.27 46.84,72.31 44.46,75.23 45.26,74.22 43.31,76.39 43.04,76.9 42.63,77.2 41.71,78.35 39.04,81.06 39.3,80.82 39.34,80.82 37.66,82.18 37.27,82.85 34.57,85.05 35.54,84.05 33.09,85.9 33.15,85.76 32.76,86.32 30.68,87.81 29.04,88.77 27.73,89.62 28.16,89.65 25.15,91.37 25.1,91.23 24.05,92.08 23.91,91.99 23.23,92.14 22.41,92.73 20.44,93.69 18.87,94.2 18.19,94.59 16.51,95.08 14.77,95.49 15.59,95.59 14.96,95.79 11.93,96.43 10.73,96.57 9.96,96.76 9.13,97.23 7.82,97.35 7.65,97.49 7.43,97.34 5.02,97.59 4.3,97.83 4.22,97.78 1.9,97.85 0.82,98.07 -0.16,97.83 -2.11,97.64 -3.24,97.62 -3.76,97.8 -3.72,97.92 -4.24,97.54 -5.95,97.5 -7.21,97.08 -8.25,97.07 -9.66,96.65 -12.04,96.63 -12.41,96.13 -14.41,95.59 -14.92,95.67 -15.02,95.62 -16.22,95.19 -18.08,94.55 -17.79,94.66 -18.87,94.26 -20.05,93.62 -20.42,93.35 -23.8,91.76 -23.1,92.08 -25.25,91.39 -25.69,90.82 -27.32,89.77 -27.33,90.01 -27.88,89.32 -30.35,88.08 -30.04,88.3 -30.56,87.68 -32.73,86.11 -34.54,84.89 -34.81,84.71 -35.58,84.04 -35.2,84.02 -36.8,82.98 -38.59,81.63 -38.96,81.03 -39.53,80.38 -40.08,79.69 -41.78,78.31 -43.49,76.48 -43.79,76.2 -42.99,76.9 -44.72,74.94 -45.71,73.61 -47.53,71.46 -48.23,70.12 -49.21,68.93 -48.7,70.07 -49,69.48 -50.94,66.51 -51.28,66.05 -52.01,64.53 -53.4,62.42 -53.32,62.66 -54.33,61.2 -55.25,59.18 -55.56,58.82 -56.8,55.74 -56.78,56.27 -57.4,55.3 -58.25,52.94 -58.26,53.35 -59.02,51.32 -58.99,51.83 -60.38,48.49 -60.71,47.38 -62.06,44.17 -61.77,44.44 -61.72,44.27 -63.47,39.71 -63.27,40.41 -63.71,39.03 -64.58,35.63 -64.54,35.65 -64.51,35.54 -65.03,34.15 -65.67,31.19 -66.09,29.34 -65.98,29.83 -66.34,29.28 -66.36,28.23 -67.45,22.9 -67.64,22.68 -67.66,21.63 -67.66,21.03 -68.51,16.76 -68.19,18.64 -68.52,15.24 -68.83,14.29 -68.7,12.38 -69.05,11.14 -68.96,9.13 -69,10.58 -69.38,4.56 -69.17,6.15 -69.26,4.92 -69.56,0.73 -69.4,-1.4 -69.45,-2.79 -69.46,-3.53 -69.39,-2.77 -69.2,-6.49 -69.04,-9.59 -69.18,-6.63 -69.08,-11.83 -68.85,-10.22 -68.73,-14 -68.36,-15.87 -68.78,-14.92 -68.3,-16.72 -68.24,-18.27 -67.89,-19.63 -67.15,-25.47 -67.49,-23.56 -66.59,-26.9 -66.53,-27.99 -66.34,-28.92 -65.65,-31.86 -65.76,-31.02 -65.11,-33.7 -64.92,-35.16 -64.51,-36.28 -63.66,-38.84 -63.01,-41.22 -63.77,-39.19 -62.73,-42.24 -62.32,-42.6 -62.56,-42.83 -60.63,-47.45 -61.24,-45.73 -59.99,-49.35 -59.88,-49.77 -59.62,-50.42 -58.58,-52.74 -57.51,-54.79 -56.83,-55.81 -57.16,-55.56 -55.97,-57.42 -54.91,-59.62 -54.8,-60.04 -54.18,-61.28 -53.21,-62.89 -53.41,-62.91 -52.21,-64.44 -52.15,-64.48 -50.65,-66.57 -50.24,-67.59 -48.93,-69.83 -48.47,-69.83 -46.98,-72.24 -47.22,-71.75 -45,-74.75 -45.44,-73.63 -44.1,-75.63 -42.17,-77.64 -43.38,-76.53 -40.43,-79.46 -40.92,-79.09 -39.85,-80.19 -40.27,-79.85 -37.21,-82.48 -38.34,-81.66 -35.24,-84.44 -36.39,-83.32 -35.34,-84.29 -34.24,-85.17 -33.18,-86.3 -31.55,-87.28 -30.51,-88.17 -30.6,-87.98 -27.13,-90.26 -27.13,-90.04 -26.17,-90.57 -26.57,-90.34 -23.88,-92.09 -23.45,-92.03 -21.91,-93.17 -20.89,-93.48 -20.27,-93.78 -19.78,-93.76 -18.17,-94.36 -17.6,-94.65 -16.14,-95.08 -14.46,-95.57 -13.78,-96.19 -13.11,-96.2 -10.5,-97.04 -11.75,-96.37 -10.16,-96.78 -7.63,-97.18 -8.8,-96.97 -8.41,-97.09 -5.94,-97.85 -4.48,-97.57 -3.57,-97.94 -0.42,-97.86 -1.57,-97.79 1.24,-97.71 2.28,-97.98 0.87,-98.02 2.44,-97.8 5.01,-97.72 7.22,-97.5 5.37,-97.62 7.77,-97.25 7.44,-97.49 10.78,-96.66 10.43,-97.05 12.73,-96.55 14.01,-95.87 14.3,-95.89 14.21,-96.06 16.1,-95.2 16.9,-94.82 18.01,-94.81 18.99,-94.27 19.59,-94.13 20.43,-93.49 22.99,-92.24 24.39,-91.56 23.9,-91.98 25.3,-91.49 26.45,-90.67 27.14,-90.37 27.87,-89.6 28.91,-89.13 29.47,-88.44 32.24,-87.03 33.75,-85.63 33.01,-86.32 34.11,-85.41 34.86,-84.74 36.51,-83.32 37.2,-82.93 37.87,-81.98 39.82,-80.58 39.87,-80.17 41.28,-79.14 42.74,-77.31 41.6,-78.16 43.73,-76.31 44.44,-75.17 45.61,-74.07 45.89,-73.56 46.26,-73.21 47.58,-71.54 47.04,-71.86 48.99,-69.24 49.81,-68.42 51.21,-66.19 51.99,-64.91 51.3,-66.06 53.16,-62.77 53.01,-63.75 55.01,-59.88 55.14,-59.05 55.12,-59.48 56.48,-57.37 56.79,-56.86 58.22,-54.03 58.76,-52.39 58.89,-52.25 58.26,-53.26 59.82,-49.36 60.09,-49.15 61.19,-46.36 60.89,-46.93 62.05,-44.37 61.95,-44.1 63.13,-41.21 63.47,-39.24 63.23,-40.37 63.52,-39.97 65,-34.75 64.45,-35.82 65.73,-31.29 66.29,-29.88 66.46,-29.37 66.66,-28.07 66.62,-26.95 67.4,-24.11 67.32,-23.71 67.34,-23.38 67.59,-21.77 67.94,-19.46 68.26,-18.42 68.5,-16.01 68.56,-17.11 68.8,-12.89 68.85,-11.33 68.99,-12.05 69.13,-9.48 69.36,-6.5 69.38,-4.58 69.52,-5.83 69.25,-4.28 69.33,0.07 69.48,-0.57 69.43,1.25" fill="rgb(255, 160, 122)" stroke="black" stroke-width="1.6666666666666665" stroke-linejoin="round" filter="url(#fuzzy)" />
    <g transform="translate(45.19 -31.7)">
      <polyline id="rightCountour" points="-31.76,-0.85 -31.47,-1 -31.15,-1.17 -30.8,-1.33 -30.42,-1.5 -30,-1.66 -29.55,-1.83 -29.07,-2 -28.56,-2.17 -28.01,-2.33 -27.43,-2.49 -26.82,-2.66 -26.18,-2.81 -25.5,-2.97 -24.8,-3.12 -24.06,-3.26 -23.41,-3.48 -22.7,-3.7 -21.93,-3.9 -21.11,-4.09 -20.24,-4.27 -19.31,-4.44 -18.34,-4.59 -17.32,-4.74 -16.26,-4.87 -15.16,-4.99 -14.03,-5.09 -12.86,-5.18 -11.66,-5.26 -10.44,-5.33 -9.2,-5.38 -7.94,-5.42 -6.66,-5.44 -5.38,-5.46 -4.09,-5.46 -2.8,-5.45 -1.51,-5.42 -0.22,-5.39 1.06,-5.34 2.33,-5.28 3.58,-5.22 4.82,-5.14 6.03,-5.05 7.23,-4.95 8.39,-4.85 9.54,-4.74 10.65,-4.61 11.73,-4.49 12.78,-4.35 13.79,-4.21 14.77,-4.06 15.71,-3.91 16.62,-3.75 17.48,-3.59 18.31,-3.42 19.1,-3.25 19.85,-3.08 20.57,-2.91 21.24,-2.73 21.88,-2.55 22.49,-2.37 23.06,-2.19 23.6,-2.01 24.1,-1.83 24.58,-1.65 25.03,-1.47 25.45,-1.29 25.84,-1.11 26.21,-0.92 26.55,-0.74 26.86,-0.56 27.14,-0.38 27.4,-0.19 27.64,-0.01 27.85,0.17 28.04,0.35 28.21,0.53 28.36,0.71 28.48,0.89 28.59,1.07 26.17,4.03 25.74,4.13 25.3,4.22 24.84,4.32 24.37,4.41 23.88,4.5 23.37,4.59 22.85,4.68 22.32,4.76 21.76,4.84 21.19,4.92 20.6,5 20,5.07 19.37,5.14 18.73,5.21 18.07,5.28 17.39,5.34 16.69,5.4 15.97,5.45 15.23,5.5 14.47,5.55 13.69,5.59 12.88,5.63 12.06,5.66 11.21,5.68 10.34,5.7 9.45,5.71 8.54,5.72 7.61,5.71 6.67,5.7 5.7,5.69 4.72,5.66 3.72,5.63 2.71,5.59 1.69,5.55 0.65,5.49 -0.4,5.43 -1.45,5.37 -2.51,5.3 -3.58,5.22 -4.65,5.13 -5.72,5.04 -6.79,4.95 -7.86,4.85 -8.92,4.74 -9.97,4.63 -11.02,4.52 -12.05,4.41 -13.07,4.3 -14.08,4.18 -15.07,4.06 -16.03,3.94 -16.98,3.82 -17.9,3.71 -18.79,3.59 -19.66,3.48 -20.49,3.36 -21.3,3.26 -22.07,3.15 -22.81,3.05 -23.51,2.95 -24.17,2.86 -24.8,2.77 -25.39,2.69 -25.94,2.61 -26.52,2.51 -27.08,2.41 -27.62,2.31 -28.14,2.21 -28.63,2.11 -29.1,2 -29.55,1.9 -29.97,1.8 -30.37,1.7 -30.75,1.59 -31.1,1.48 -31.43,1.38 -31.73,1.27 -32.01,1.15 -32.26,1.04" fill="white" stroke="white" stroke-width="0" stroke-linejoin="round" filter="url(#fuzzy)" />
    </g>
    <g transform="translate(-38.03 -29.659999999999997)">
      <polyline id="leftCountour" points="32.72,-0.78 32.47,-0.95 32.19,-1.12 31.87,-1.29 31.52,-1.47 31.13,-1.65 30.72,-1.83 30.26,-2.01 29.77,-2.2 29.25,-2.38 28.69,-2.56 28.1,-2.73 27.48,-2.91 26.82,-3.08 26.13,-3.25 25.41,-3.42 24.79,-3.66 24.1,-3.89 23.35,-4.12 22.55,-4.33 21.69,-4.54 20.77,-4.73 19.81,-4.91 18.8,-5.08 17.75,-5.23 16.65,-5.38 15.52,-5.51 14.35,-5.62 13.15,-5.72 11.93,-5.81 10.68,-5.88 9.41,-5.94 8.13,-5.98 6.84,-6.02 5.54,-6.03 4.24,-6.03 2.94,-6.02 1.64,-6 0.35,-5.96 -0.93,-5.91 -2.2,-5.85 -3.44,-5.77 -4.67,-5.68 -5.88,-5.59 -7.06,-5.48 -8.22,-5.36 -9.34,-5.23 -10.44,-5.09 -11.5,-4.94 -12.52,-4.79 -13.51,-4.62 -14.47,-4.45 -15.38,-4.27 -16.26,-4.08 -17.1,-3.89 -17.9,-3.7 -18.66,-3.5 -19.38,-3.29 -20.06,-3.08 -20.71,-2.87 -21.32,-2.65 -21.9,-2.43 -22.44,-2.21 -22.95,-1.99 -23.43,-1.77 -23.88,-1.54 -24.31,-1.32 -24.7,-1.09 -25.07,-0.86 -25.41,-0.63 -25.72,-0.4 -26.01,-0.16 -26.26,0.07 -26.5,0.31 -26.71,0.55 -26.9,0.78 -27.06,1.02 -27.21,1.26 -27.33,1.5 -27.43,1.74 -26.26,4.68 -25.88,4.79 -25.48,4.9 -25.07,5.01 -24.65,5.11 -24.21,5.22 -23.75,5.32 -23.28,5.42 -22.79,5.52 -22.28,5.61 -21.76,5.7 -21.22,5.79 -20.66,5.87 -20.08,5.95 -19.49,6.02 -18.88,6.09 -18.24,6.16 -17.59,6.23 -16.91,6.28 -16.22,6.34 -15.5,6.39 -14.75,6.43 -13.99,6.46 -13.2,6.49 -12.39,6.51 -11.55,6.53 -10.69,6.53 -9.81,6.53 -8.91,6.52 -7.99,6.5 -7.04,6.47 -6.08,6.43 -5.1,6.39 -4.1,6.34 -3.08,6.27 -2.05,6.2 -1,6.13 0.05,6.04 1.12,5.95 2.2,5.85 3.28,5.74 4.36,5.63 5.45,5.51 6.54,5.39 7.63,5.26 8.72,5.13 9.79,4.99 10.86,4.86 11.92,4.72 12.97,4.58 14,4.44 15.01,4.3 16.01,4.16 16.98,4.03 17.93,3.89 18.85,3.76 19.74,3.64 20.6,3.51 21.43,3.4 22.23,3.28 22.99,3.18 23.72,3.08 24.4,2.99 25.05,2.9 25.66,2.82 26.3,2.71 26.91,2.6 27.51,2.48 28.08,2.37 28.62,2.26 29.15,2.15 29.64,2.04 30.12,1.93 30.57,1.82 31,1.7 31.4,1.59 31.77,1.47 32.13,1.35 32.45,1.23 32.75,1.11" fill="white" stroke="white" stroke-width="0" stroke-linejoin="round" filter="url(#fuzzy)" />
    </g>
    <g transform="translate(45.19 -31.7)">
      <polyline id="rightUpper" points="-33.11,0.31 -33.08,0.25 -33.03,0.17 -32.96,0.07 -32.86,-0.03 -32.75,-0.15 -32.6,-0.27 -32.44,-0.4 -32.24,-0.55 -32.01,-0.69 -31.76,-0.85 -31.47,-1 -31.15,-1.17 -30.8,-1.33 -30.42,-1.5 -30,-1.66 -29.55,-1.83 -29.07,-2 -28.56,-2.17 -28.01,-2.33 -27.43,-2.49 -26.82,-2.66 -26.18,-2.81 -25.5,-2.97 -24.8,-3.12 -24.06,-3.26 -23.41,-3.48 -22.7,-3.7 -21.93,-3.9 -21.11,-4.09 -20.24,-4.27 -19.31,-4.44 -18.34,-4.59 -17.32,-4.74 -16.26,-4.87 -15.16,-4.99 -14.03,-5.09 -12.86,-5.18 -11.66,-5.26 -10.44,-5.33 -9.2,-5.38 -7.94,-5.42 -6.66,-5.44 -5.38,-5.46 -4.09,-5.46 -2.8,-5.45 -1.51,-5.42 -0.22,-5.39 1.06,-5.34 2.33,-5.28 3.58,-5.22 4.82,-5.14 6.03,-5.05 7.23,-4.95 8.39,-4.85 9.54,-4.74 10.65,-4.61 11.73,-4.49 12.78,-4.35 13.79,-4.21 14.77,-4.06 15.71,-3.91 16.62,-3.75 17.48,-3.59 18.31,-3.42 19.1,-3.25 19.85,-3.08 20.57,-2.91 21.24,-2.73 21.88,-2.55 22.49,-2.37 23.06,-2.19 23.6,-2.01 24.1,-1.83 24.58,-1.65 25.03,-1.47 25.45,-1.29 25.84,-1.11 26.21,-0.92 26.55,-0.74 26.86,-0.56 27.14,-0.38 27.4,-0.19 27.64,-0.01 27.85,0.17 28.04,0.35 28.21,0.53 28.36,0.71 28.48,0.89 28.59,1.07 28.68,1.25 28.75,1.43 28.8,1.61 28.84,1.78 28.86,1.96 28.87,2.13 28.86,2.3 28.84,2.48 28.81,2.65 28.76,2.82" fill="none" stroke="black" stroke-width="1.6666666666666665" stroke-linejoin="round" filter="url(#fuzzy)" />
      <polyline id="rightLower" points="-33.63,-0.4 -33.58,-0.22 -33.52,-0.06 -33.43,0.1 -33.33,0.25 -33.2,0.4 -33.06,0.54 -32.89,0.67 -32.71,0.8 -32.5,0.92 -32.26,1.04 -32.01,1.15 -31.73,1.27 -31.43,1.38 -31.1,1.48 -30.75,1.59 -30.37,1.7 -29.97,1.8 -29.55,1.9 -29.1,2 -28.63,2.11 -28.14,2.21 -27.62,2.31 -27.08,2.41 -26.52,2.51 -25.94,2.61 -25.39,2.69 -24.8,2.77 -24.17,2.86 -23.51,2.95 -22.81,3.05 -22.07,3.15 -21.3,3.26 -20.49,3.36 -19.66,3.48 -18.79,3.59 -17.9,3.71 -16.98,3.82 -16.03,3.94 -15.07,4.06 -14.08,4.18 -13.07,4.3 -12.05,4.41 -11.02,4.52 -9.97,4.63 -8.92,4.74 -7.86,4.85 -6.79,4.95 -5.72,5.04 -4.65,5.13 -3.58,5.22 -2.51,5.3 -1.45,5.37 -0.4,5.43 0.65,5.49 1.69,5.55 2.71,5.59 3.72,5.63 4.72,5.66 5.7,5.69 6.67,5.7 7.61,5.71 8.54,5.72 9.45,5.71 10.34,5.7 11.21,5.68 12.06,5.66 12.88,5.63 13.69,5.59 14.47,5.55 15.23,5.5 15.97,5.45 16.69,5.4 17.39,5.34 18.07,5.28 18.73,5.21 19.37,5.14 20,5.07 20.6,5 21.19,4.92 21.76,4.84 22.32,4.76 22.85,4.68 23.37,4.59 23.88,4.5 24.37,4.41 24.84,4.32 25.3,4.22 25.74,4.13 26.17,4.03 26.58,3.94 26.98,3.84 27.37,3.75 27.74,3.65 28.1,3.55 28.45,3.46 28.78,3.36 29.1,3.26 29.42,3.17 29.72,3.07" fill="none" stroke="black" stroke-width="2.2222222222222223" stroke-linejoin="round" filter="url(#fuzzy)" />
      <circle r="3.09" cx="-9.343107432081737" cy="-1.0797318571733652" stroke="black" fill="none" stroke-width="1.0" filter="url(#fuzzy)" clip-path="url(#rightEyeClipPath)" /><circle r="3.338" cx="-13.323107432081738" cy="1.5352681428266344" stroke="black" fill="none" stroke-width="1.0" filter="url(#fuzzy)" clip-path="url(#rightEyeClipPath)" /><circle r="3.81" cx="-10.068107432081739" cy="-1.5597318571733652" stroke="black" fill="none" stroke-width="1.0" filter="url(#fuzzy)" clip-path="url(#rightEyeClipPath)" /><circle r="4.6080000000000005" cx="-11.928107432081738" cy="1.9702681428266349" stroke="black" fill="none" stroke-width="1.0" filter="url(#fuzzy)" clip-path="url(#rightEyeClipPath)" /><circle r="4.822" cx="-10.04810743208174" cy="0.5302681428266349" stroke="black" fill="none" stroke-width="1.0" filter="url(#fuzzy)" clip-path="url(#rightEyeClipPath)" /><circle r="4.5" cx="-12.608107432081738" cy="-1.999731857173365" stroke="black" fill="none" stroke-width="1.0" filter="url(#fuzzy)" clip-path="url(#rightEyeClipPath)" /><circle r="3.202" cx="-12.078107432081739" cy="-1.8797318571733652" stroke="black" fill="none" stroke-width="1.0" filter="url(#fuzzy)" clip-path="url(#rightEyeClipPath)" /><circle r="3.448" cx="-9.943107432081739" cy="0.43526814282663473" stroke="black" fill="none" stroke-width="1.0" filter="url(#fuzzy)" clip-path="url(#rightEyeClipPath)" /><circle r="4.258" cx="-11.193107432081739" cy="1.6202681428266352" stroke="black" fill="none" stroke-width="1.0" filter="url(#fuzzy)" clip-path="url(#rightEyeClipPath)" /><circle r="4.534" cx="-10.343107432081737" cy="-0.639731857173365" stroke="black" fill="none" stroke-width="1.0" filter="url(#fuzzy)" clip-path="url(#rightEyeClipPath)" />
      </g>
    <g transform="translate(-38.03 -29.659999999999997)">
      <polyline id="leftUpper" points="33.64,0.37 33.65,0.31 33.65,0.24 33.63,0.15 33.58,0.05 33.51,-0.07 33.41,-0.19 33.28,-0.33 33.13,-0.47 32.94,-0.63 32.72,-0.78 32.47,-0.95 32.19,-1.12 31.87,-1.29 31.52,-1.47 31.13,-1.65 30.72,-1.83 30.26,-2.01 29.77,-2.2 29.25,-2.38 28.69,-2.56 28.1,-2.73 27.48,-2.91 26.82,-3.08 26.13,-3.25 25.41,-3.42 24.79,-3.66 24.1,-3.89 23.35,-4.12 22.55,-4.33 21.69,-4.54 20.77,-4.73 19.81,-4.91 18.8,-5.08 17.75,-5.23 16.65,-5.38 15.52,-5.51 14.35,-5.62 13.15,-5.72 11.93,-5.81 10.68,-5.88 9.41,-5.94 8.13,-5.98 6.84,-6.02 5.54,-6.03 4.24,-6.03 2.94,-6.02 1.64,-6 0.35,-5.96 -0.93,-5.91 -2.2,-5.85 -3.44,-5.77 -4.67,-5.68 -5.88,-5.59 -7.06,-5.48 -8.22,-5.36 -9.34,-5.23 -10.44,-5.09 -11.5,-4.94 -12.52,-4.79 -13.51,-4.62 -14.47,-4.45 -15.38,-4.27 -16.26,-4.08 -17.1,-3.89 -17.9,-3.7 -18.66,-3.5 -19.38,-3.29 -20.06,-3.08 -20.71,-2.87 -21.32,-2.65 -21.9,-2.43 -22.44,-2.21 -22.95,-1.99 -23.43,-1.77 -23.88,-1.54 -24.31,-1.32 -24.7,-1.09 -25.07,-0.86 -25.41,-0.63 -25.72,-0.4 -26.01,-0.16 -26.26,0.07 -26.5,0.31 -26.71,0.55 -26.9,0.78 -27.06,1.02 -27.21,1.26 -27.33,1.5 -27.43,1.74 -27.52,1.97 -27.58,2.21 -27.63,2.45 -27.66,2.69 -27.68,2.93 -27.68,3.17 -27.66,3.4 -27.63,3.64 -27.59,3.88 -27.54,4.12" fill="none" stroke="black" stroke-width="2.2222222222222223" stroke-linejoin="round" filter="url(#fuzzy)" />
      <polyline id="leftLower" points="34.5,-0.49 34.42,-0.29 34.32,-0.1 34.21,0.08 34.07,0.25 33.91,0.41 33.72,0.56 33.52,0.7 33.29,0.84 33.03,0.98 32.75,1.11 32.45,1.23 32.13,1.35 31.77,1.47 31.4,1.59 31,1.7 30.57,1.82 30.12,1.93 29.64,2.04 29.15,2.15 28.62,2.26 28.08,2.37 27.51,2.48 26.91,2.6 26.3,2.71 25.66,2.82 25.05,2.9 24.4,2.99 23.72,3.08 22.99,3.18 22.23,3.28 21.43,3.4 20.6,3.51 19.74,3.64 18.85,3.76 17.93,3.89 16.98,4.03 16.01,4.16 15.01,4.3 14,4.44 12.97,4.58 11.92,4.72 10.86,4.86 9.79,4.99 8.72,5.13 7.63,5.26 6.54,5.39 5.45,5.51 4.36,5.63 3.28,5.74 2.2,5.85 1.12,5.95 0.05,6.04 -1,6.13 -2.05,6.2 -3.08,6.27 -4.1,6.34 -5.1,6.39 -6.08,6.43 -7.04,6.47 -7.99,6.5 -8.91,6.52 -9.81,6.53 -10.69,6.53 -11.55,6.53 -12.39,6.51 -13.2,6.49 -13.99,6.46 -14.75,6.43 -15.5,6.39 -16.22,6.34 -16.91,6.28 -17.59,6.23 -18.24,6.16 -18.88,6.09 -19.49,6.02 -20.08,5.95 -20.66,5.87 -21.22,5.79 -21.76,5.7 -22.28,5.61 -22.79,5.52 -23.28,5.42 -23.75,5.32 -24.21,5.22 -24.65,5.11 -25.07,5.01 -25.48,4.9 -25.88,4.79 -26.26,4.68 -26.63,4.56 -26.98,4.45 -27.32,4.34 -27.65,4.22 -27.97,4.11 -28.27,3.99 -28.56,3.88 -28.84,3.76 -29.11,3.65 -29.37,3.53" fill="none" stroke="black" stroke-width="2.2222222222222223" stroke-linejoin="round" filter="url(#fuzzy)" />
      <circle r="3.79" cx="13.183123513501595" cy="1.8325598723380647" stroke="black" fill="none" stroke-width="1.0" filter="url(#fuzzy)" clip-path="url(#leftEyeClipPath)" /><circle r="3.416" cx="14.278123513501594" cy="-1.9124401276619358" stroke="black" fill="none" stroke-width="1.0" filter="url(#fuzzy)" clip-path="url(#leftEyeClipPath)" /><circle r="3.33" cx="14.468123513501595" cy="-0.20244012766193586" stroke="black" fill="none" stroke-width="1.0" filter="url(#fuzzy)" clip-path="url(#leftEyeClipPath)" /><circle r="4.056" cx="15.668123513501595" cy="0.5175598723380639" stroke="black" fill="none" stroke-width="1.0" filter="url(#fuzzy)" clip-path="url(#leftEyeClipPath)" /><circle r="3.348" cx="15.838123513501593" cy="-1.2174401276619355" stroke="black" fill="none" stroke-width="1.0" filter="url(#fuzzy)" clip-path="url(#leftEyeClipPath)" /><circle r="4.562" cx="16.013123513501593" cy="1.9375598723380634" stroke="black" fill="none" stroke-width="1.0" filter="url(#fuzzy)" clip-path="url(#leftEyeClipPath)" /><circle r="4.552" cx="16.773123513501595" cy="0.35255987233806474" stroke="black" fill="none" stroke-width="1.0" filter="url(#fuzzy)" clip-path="url(#leftEyeClipPath)" /><circle r="3.004" cx="15.968123513501595" cy="-1.1024401276619358" stroke="black" fill="none" stroke-width="1.0" filter="url(#fuzzy)" clip-path="url(#leftEyeClipPath)" /><circle r="3.766" cx="16.743123513501594" cy="1.612559872338064" stroke="black" fill="none" stroke-width="1.0" filter="url(#fuzzy)" clip-path="url(#leftEyeClipPath)" /><circle r="3.06" cx="13.163123513501596" cy="-0.8374401276619357" stroke="black" fill="none" stroke-width="1.0" filter="url(#fuzzy)" clip-path="url(#leftEyeClipPath)" />
    </g>
    <g id="hairs">
      <polyline points="36.51,-83.32 37.25,-82.73 38.15,-81.9 39.08,-81.03 39.92,-80.21 40.65,-79.45 41.25,-78.77 41.73,-78.19 42.09,-77.7 42.3,-77.33 42.34,-77.1 42.18,-77.04 41.82,-77.13 41.27,-77.36 40.54,-77.73 39.61,-78.24 38.46,-78.93 37.02,-79.86 35.23,-81.07 33.06,-82.63 30.49,-84.53 27.58,-86.73 24.39,-89.18 20.89,-91.87" fill="none" stroke="rgb(220, 208, 186)" stroke-width="2" stroke-linejoin="round" filter="url(#fuzzy)" /><polyline points="51.99,-64.91 51.85,-64.99 51.92,-64.44 51.7,-63.99 50.98,-63.89 49.68,-64.28 47.8,-65.17 45.35,-66.53 42.29,-68.34 38.53,-70.67 33.97,-73.6 28.59,-77.2 22.47,-81.47 15.69,-86.29 7.99,-91.66" fill="none" stroke="rgb(220, 208, 186)" stroke-width="2" stroke-linejoin="round" filter="url(#fuzzy)" /><polyline points="33.01,-86.32 33.77,-85.5 34.06,-84.68 33.84,-83.88 33.05,-83.09 31.64,-82.32 29.6,-81.57 26.88,-80.87 23.44,-80.2 19.23,-79.57 14.25,-78.98 8.49,-78.42 1.95,-77.9 -5.39,-77.44 -13.61,-77.03 -22.75,-76.67 -32.77,-76.33" fill="none" stroke="rgb(220, 208, 186)" stroke-width="2" stroke-linejoin="round" filter="url(#fuzzy)" /><polyline points="-8.41,-97.09 -6.31,-97.48 -4.41,-97.55 -2.53,-97.48 -0.66,-97.32 1.17,-97.11 2.93,-96.87 4.66,-96.61 6.37,-96.34 8.11,-96.05 9.84,-95.75 11.53,-95.45 13.11,-95.15 14.55,-94.86 15.84,-94.59 16.93,-94.38 17.76,-94.27 18.25,-94.27 18.42,-94.38 18.35,-94.55" fill="none" stroke="rgb(220, 208, 186)" stroke-width="2" stroke-linejoin="round" filter="url(#fuzzy)" /><polyline points="16.1,-95.2 16.81,-94.93 17.31,-94.71 17.5,-94.43 17.4,-94.09 16.95,-93.71 16.04,-93.33 14.55,-93.01 12.38,-92.78 9.51,-92.61 5.96,-92.48 1.71,-92.39 -3.24,-92.36 -8.98,-92.37 -15.63,-92.34" fill="none" stroke="rgb(220, 208, 186)" stroke-width="2" stroke-linejoin="round" filter="url(#fuzzy)" /><polyline points="18.01,-94.81 18.84,-94.39 19.71,-93.95 20.66,-93.45 21.54,-92.98 22.17,-92.65 22.46,-92.47 22.39,-92.41 21.95,-92.44 21.15,-92.57 19.96,-92.8 18.41,-93.15 16.46,-93.64 13.99,-94.3 10.7,-95.21 6.26,-96.45" fill="none" stroke="rgb(220, 208, 186)" stroke-width="2" stroke-linejoin="round" filter="url(#fuzzy)" /><polyline points="34.86,-84.74 35.93,-83.7 36.32,-82.92 36.23,-82.18 35.64,-81.48 34.49,-80.82 32.75,-80.23 30.37,-79.71 27.36,-79.24 23.73,-78.83 19.45,-78.48 14.5,-78.23 8.82,-78.06 2.37,-77.97 -4.87,-77.92 -12.87,-77.91 -21.56,-78.03 -30.82,-78.43" fill="none" stroke="rgb(220, 208, 186)" stroke-width="2" stroke-linejoin="round" filter="url(#fuzzy)" /><polyline points="14.21,-96.06 15.65,-95.43 16.65,-95.05 17.42,-94.75 18.04,-94.46 18.54,-94.13 18.9,-93.78 19.03,-93.47 18.85,-93.22 18.29,-93.06 17.34,-92.97 16.02,-92.92 14.34,-92.92 12.32,-92.96 9.95,-93.06 7.2,-93.23 3.99,-93.5 0.25,-93.89 -4.12,-94.42 -9.11,-95.02" fill="none" stroke="rgb(220, 208, 186)" stroke-width="2" stroke-linejoin="round" filter="url(#fuzzy)" /><polyline points="-16.14,-95.08 -14.68,-95.51 -13.13,-95.8 -11.36,-95.95 -9.38,-95.98 -7.24,-95.92 -4.94,-95.82 -2.52,-95.68 0,-95.54 2.62,-95.38 5.32,-95.22 8.01,-95.06 10.55,-94.93 12.8,-94.86 14.76,-94.84 16.52,-94.8" fill="none" stroke="rgb(220, 208, 186)" stroke-width="2" stroke-linejoin="round" filter="url(#fuzzy)" /><polyline points="-35.34,-84.29 -34.17,-85.22 -32.78,-86.19 -31.24,-87.13 -29.61,-88.02 -27.89,-88.87 -26.14,-89.68 -24.38,-90.44 -22.64,-91.17 -20.9,-91.88 -19.17,-92.58 -17.46,-93.26 -15.8,-93.9 -14.23,-94.49 -12.78,-95.02 -11.46,-95.48 -10.32,-95.9 -9.39,-96.27 -8.73,-96.6 -8.38,-96.85 -8.33,-97.02 -8.47,-97.07 -8.44,-97.07" fill="none" stroke="rgb(220, 208, 186)" stroke-width="2" stroke-linejoin="round" filter="url(#fuzzy)" /><polyline points="18.01,-94.81 18.92,-94.34 19.99,-93.77 21.31,-93.06 22.7,-92.32 24.03,-91.61 25.26,-90.96 26.4,-90.34 27.47,-89.73 28.48,-89.12 29.44,-88.52 30.33,-87.95 31.14,-87.43 31.81,-87 32.29,-86.69 32.51,-86.53 32.44,-86.56 32.08,-86.77 31.47,-87.16 30.62,-87.7 29.54,-88.42 28.15,-89.35 26.32,-90.54" fill="none" stroke="rgb(220, 208, 186)" stroke-width="2" stroke-linejoin="round" filter="url(#fuzzy)" /><polyline points="20.43,-93.49 22.39,-92.54 23.64,-91.98 24.61,-91.54 25.52,-91.09 26.41,-90.6 27.26,-90.1 28.03,-89.6 28.72,-89.14 29.3,-88.75 29.72,-88.45 29.88,-88.3 29.72,-88.32 29.23,-88.53 28.36,-88.93 27.1,-89.57 25.4,-90.48 23.29,-91.67 20.86,-93.09" fill="none" stroke="rgb(220, 208, 186)" stroke-width="2" stroke-linejoin="round" filter="url(#fuzzy)" /><polyline points="5.01,-97.72 6.05,-97.59 6.44,-97.49 6.9,-97.36 7.44,-97.19 7.91,-97 8.16,-96.77 8.09,-96.52 7.6,-96.26 6.68,-95.97 5.3,-95.65 3.49,-95.31 1.24,-94.94 -1.47,-94.56 -4.66,-94.19 -8.35,-93.82 -12.59,-93.41 -17.51,-92.87" fill="none" stroke="rgb(220, 208, 186)" stroke-width="2" stroke-linejoin="round" filter="url(#fuzzy)" /><polyline points="51.21,-66.19 51.66,-65.44 52.11,-64.7 52.73,-63.7 53.38,-62.6 53.96,-61.59 54.4,-60.8 54.67,-60.29 54.76,-60.06 54.64,-60.16 54.24,-60.67 53.49,-61.69 52.41,-63.26 51.03,-65.35 49.42,-67.85 47.6,-70.73" fill="none" stroke="rgb(220, 208, 186)" stroke-width="2" stroke-linejoin="round" filter="url(#fuzzy)" /><polyline points="-19.78,-93.76 -18.31,-94.15 -16.56,-94.29 -14.42,-94.26 -11.95,-94.09 -9.22,-93.76 -6.27,-93.26 -3.12,-92.6 0.24,-91.78 3.77,-90.85 7.46,-89.82 11.29,-88.75 15.24,-87.64 19.32,-86.52 23.5,-85.38 27.71,-84.21 31.83,-83.04 35.74,-81.89" fill="none" stroke="rgb(220, 208, 186)" stroke-width="2" stroke-linejoin="round" filter="url(#fuzzy)" /><polyline points="59.82,-49.36 60.24,-48.59 60.69,-47.54 61.06,-46.6 61.34,-45.81 61.5,-45.22 61.49,-44.96 61.29,-45.14 60.87,-45.81 60.22,-46.98 59.32,-48.64 58.16,-50.85 56.73,-53.69 55,-57.33 52.81,-62.07" fill="none" stroke="rgb(220, 208, 186)" stroke-width="2" stroke-linejoin="round" filter="url(#fuzzy)" /><polyline points="58.22,-54.03 58.5,-53.08 58.49,-52.75 58.41,-52.44 58.27,-52.12 57.98,-51.97 57.46,-52.13 56.64,-52.68 55.48,-53.66 53.95,-55.1 52.05,-57.02 49.77,-59.49 47.09,-62.51 44.02,-66.05 40.54,-70.09 36.64,-74.65 32.23,-79.87 27.03,-86.01" fill="none" stroke="rgb(220, 208, 186)" stroke-width="2" stroke-linejoin="round" filter="url(#fuzzy)" /><polyline points="-7.63,-97.18 -7.82,-96.97 -6.44,-96.67 -4.04,-96.14 -1.01,-95.33 2.4,-94.25 6.03,-92.96 9.81,-91.51 13.68,-89.94 17.66,-88.24 21.78,-86.42 26.09,-84.46 30.59,-82.38 35.13,-80.24 39.49,-78.18" fill="none" stroke="rgb(220, 208, 186)" stroke-width="2" stroke-linejoin="round" filter="url(#fuzzy)" /><polyline points="-34.24,-85.17 -32.87,-86.13 -31.01,-86.86 -28.75,-87.41 -26.1,-87.84 -23.1,-88.14 -19.83,-88.33 -16.31,-88.41 -12.53,-88.42 -8.49,-88.4 -4.24,-88.35 0.18,-88.26 4.68,-88.13 9.23,-87.94 13.82,-87.73 18.45,-87.49 23.17,-87.22 28.13,-86.74" fill="none" stroke="rgb(220, 208, 186)" stroke-width="2" stroke-linejoin="round" filter="url(#fuzzy)" /><polyline points="60.09,-49.15 60.71,-47.5 60.96,-46.68 61.05,-46.13 60.95,-45.85 60.59,-46 59.93,-46.69 58.96,-47.96 57.66,-49.76 56.04,-52.09 54.04,-55.02 51.59,-58.74 48.61,-63.4 45.07,-69.11 40.99,-75.85" fill="none" stroke="rgb(220, 208, 186)" stroke-width="2" stroke-linejoin="round" filter="url(#fuzzy)" /><polyline points="42.74,-77.31 42.55,-77.35 43.05,-76.71 43.5,-76.07 43.65,-75.63 43.48,-75.45 42.98,-75.47 42.2,-75.66 41.14,-76.02 39.77,-76.56 38.02,-77.35 35.79,-78.47 33,-79.99 29.62,-81.93 25.69,-84.27 21.29,-86.98 16.51,-90.06 11.33,-93.58" fill="none" stroke="rgb(220, 208, 186)" stroke-width="2" stroke-linejoin="round" filter="url(#fuzzy)" /><polyline points="58.22,-54.03 58.56,-53.01 58.72,-52.47 58.92,-51.83 59.18,-51.07 59.4,-50.38 59.51,-49.92 59.46,-49.77 59.2,-49.98 58.71,-50.6 57.94,-51.72 56.88,-53.38 55.54,-55.62 53.94,-58.37 52.1,-61.59 49.99,-65.32 47.52,-69.74" fill="none" stroke="rgb(220, 208, 186)" stroke-width="2" stroke-linejoin="round" filter="url(#fuzzy)" /><polyline points="33.75,-85.63 33.54,-85.78 33.82,-85.35 34.15,-84.7 34.34,-83.98 34.29,-83.27 33.95,-82.57 33.29,-81.91 32.27,-81.3 30.87,-80.72 29.07,-80.19 26.86,-79.69 24.25,-79.23 21.22,-78.81 17.78,-78.45 13.9,-78.14 9.58,-77.9 4.81,-77.7 -0.42,-77.5 -6.12,-77.31 -12.29,-77.16 -18.94,-77.12 -26.1,-77.23 -33.99,-77.32" fill="none" stroke="rgb(220, 208, 186)" stroke-width="2" stroke-linejoin="round" filter="url(#fuzzy)" /><polyline points="-36.39,-83.32 -35.38,-84.22 -34.34,-85.11 -33.33,-85.93 -32.4,-86.62 -31.59,-87.15 -30.94,-87.5 -30.5,-87.66 -30.31,-87.59 -30.4,-87.28 -30.78,-86.72 -31.44,-85.91 -32.41,-84.83 -33.72,-83.45 -35.43,-81.71 -37.58,-79.57 -40.18,-77.02 -43.25,-74.01 -46.78,-70.5" fill="none" stroke="rgb(220, 208, 186)" stroke-width="2" stroke-linejoin="round" filter="url(#fuzzy)" /><polyline points="1.24,-97.71 1.82,-97.76 2.69,-97.46 4.25,-96.9 6.23,-96.15 8.37,-95.23 10.6,-94.18 12.94,-93.01 15.42,-91.74 18.05,-90.37 20.76,-88.92 23.49,-87.43 26.15,-85.95 28.71,-84.5 31.17,-83.1 33.57,-81.73 35.95,-80.37 38.3,-79 40.58,-77.61 42.71,-76.27" fill="none" stroke="rgb(220, 208, 186)" stroke-width="2" stroke-linejoin="round" filter="url(#fuzzy)" /><polyline points="58.89,-52.25 58.81,-51.95 59.03,-50.82 59.07,-49.82 58.81,-49.15 58.24,-48.76 57.33,-48.62 56.09,-48.72 54.49,-49.1 52.52,-49.76 50.18,-50.69 47.49,-51.87 44.44,-53.29 41.03,-54.99 37.21,-57.02 32.95,-59.46 28.22,-62.33 22.99,-65.65 17.23,-69.37 10.93,-73.48 4.08,-77.97 -3.3,-82.88 -11.2,-88.18" fill="none" stroke="rgb(220, 208, 186)" stroke-width="2" stroke-linejoin="round" filter="url(#fuzzy)" /><polyline points="56.79,-56.86 57.57,-54.9 57.38,-54.2 56.45,-54.33 54.95,-54.9 52.93,-55.78 50.33,-57.06 47.03,-58.87 42.93,-61.27 37.99,-64.3 32.15,-67.93 25.42,-72.21 17.86,-77.21 9.55,-83.04 0.49,-89.66" fill="none" stroke="rgb(220, 208, 186)" stroke-width="2" stroke-linejoin="round" filter="url(#fuzzy)" /><polyline points="-27.13,-90.04 -26.35,-90.45 -25.29,-90.99 -23.91,-91.66 -22.39,-92.35 -20.83,-93 -19.32,-93.57 -17.85,-94.08 -16.45,-94.55 -15.12,-94.99 -13.91,-95.41 -12.83,-95.8 -11.93,-96.14 -11.22,-96.41 -10.71,-96.6 -10.46,-96.71 -10.5,-96.73 -10.82,-96.7 -11.44,-96.62" fill="none" stroke="rgb(220, 208, 186)" stroke-width="2" stroke-linejoin="round" filter="url(#fuzzy)" /><polyline points="-13.11,-96.2 -11.61,-96.59 -10.68,-96.7 -9.7,-96.82 -8.66,-96.96 -7.59,-97.12 -6.44,-97.28 -5.22,-97.44 -3.97,-97.58 -2.77,-97.68 -1.71,-97.76 -0.85,-97.8 -0.24,-97.82 0.1,-97.82 0.17,-97.8 -0.03,-97.74 -0.5,-97.66 -1.25,-97.53 -2.26,-97.38 -3.53,-97.22 -5.06,-97.04 -6.9,-96.87 -8.98,-96.77" fill="none" stroke="rgb(220, 208, 186)" stroke-width="2" stroke-linejoin="round" filter="url(#fuzzy)" /><polyline points="60.09,-49.15 60.63,-47.5 60.61,-46.68 60.25,-46.11 59.51,-45.75 58.35,-45.72 56.75,-46.07 54.71,-46.76 52.24,-47.75 49.33,-49.02 45.95,-50.6 42.07,-52.6 37.63,-55.09 32.59,-58.11 26.92,-61.66 20.61,-65.71 13.64,-70.25 6.03,-75.3 -2.21,-80.89 -11.03,-87.01" fill="none" stroke="rgb(220, 208, 186)" stroke-width="2" stroke-linejoin="round" filter="url(#fuzzy)" /><polyline points="27.87,-89.6 28.82,-89.04 29.88,-88.31 30.83,-87.6 31.45,-87.05 31.73,-86.64 31.73,-86.34 31.51,-86.09 31.06,-85.9 30.36,-85.78 29.37,-85.77 28.02,-85.88 26.26,-86.14 24.04,-86.57 21.32,-87.17 18.08,-87.93 14.37,-88.87 10.25,-89.98 5.74,-91.29 0.76,-92.84 -4.99,-94.57" fill="none" stroke="rgb(220, 208, 186)" stroke-width="2" stroke-linejoin="round" filter="url(#fuzzy)" /><polyline points="-26.57,-90.34 -24.55,-91.51 -22.91,-92.28 -21.28,-92.93 -19.65,-93.5 -17.98,-94.02 -16.27,-94.5 -14.5,-94.98 -12.76,-95.47 -11.12,-95.95 -9.71,-96.4 -8.66,-96.79 -8.05,-97.07 -7.95,-97.2 -8.35,-97.13" fill="none" stroke="rgb(220, 208, 186)" stroke-width="2" stroke-linejoin="round" filter="url(#fuzzy)" /><polyline points="34.11,-85.41 34.9,-84.59 35.46,-83.69 35.64,-82.8 35.44,-81.89 34.84,-80.97 33.8,-80.03 32.3,-79.09 30.31,-78.14 27.84,-77.17 24.88,-76.17 21.41,-75.15 17.41,-74.1 12.86,-73.01 7.74,-71.88 2.05,-70.66 -4.21,-69.34 -11.04,-67.92 -18.43,-66.47 -26.41,-65.08 -35,-63.83 -44.21,-62.7" fill="none" stroke="rgb(220, 208, 186)" stroke-width="2" stroke-linejoin="round" filter="url(#fuzzy)" /><polyline points="62.05,-44.37 62.3,-43.37 62.72,-42 63.07,-40.87 63.36,-39.88 63.64,-38.87 63.9,-37.82 64.11,-36.84 64.22,-36.07 64.21,-35.63 64.04,-35.56 63.71,-35.88 63.22,-36.6 62.56,-37.71 61.75,-39.22 60.77,-41.12 59.63,-43.44 58.28,-46.22 56.71,-49.5 54.89,-53.34 52.86,-57.72 50.67,-62.56 48.34,-67.84" fill="none" stroke="rgb(220, 208, 186)" stroke-width="2" stroke-linejoin="round" filter="url(#fuzzy)" /><polyline points="-20.27,-93.78 -19.33,-93.91 -17.81,-94.14 -15.9,-94.38 -13.69,-94.59 -11.28,-94.76 -8.74,-94.89 -6.1,-94.95 -3.4,-94.93 -0.65,-94.85 2.12,-94.72 4.89,-94.57 7.62,-94.41 10.25,-94.28 12.72,-94.23 14.94,-94.28 16.96,-94.37" fill="none" stroke="rgb(220, 208, 186)" stroke-width="2" stroke-linejoin="round" filter="url(#fuzzy)" /><polyline points="44.44,-75.17 45.29,-74.3 45.91,-73.57 46.48,-72.82 47.08,-72.01 47.7,-71.14 48.3,-70.28 48.82,-69.52 49.15,-68.98 49.25,-68.73 49.08,-68.81 48.67,-69.2 47.99,-69.91 47.02,-70.97 45.7,-72.48 43.96,-74.49 41.8,-77.04 39.29,-80.04" fill="none" stroke="rgb(220, 208, 186)" stroke-width="2" stroke-linejoin="round" filter="url(#fuzzy)" /><polyline points="2.28,-97.98 1.98,-97.94 2.9,-97.84 4.06,-97.72 5,-97.61 5.67,-97.5 6.15,-97.36 6.52,-97.2 6.77,-97.02 6.82,-96.82 6.61,-96.61 6.07,-96.39 5.17,-96.16 3.89,-95.91 2.22,-95.63 0.17,-95.32 -2.3,-94.98 -5.21,-94.62 -8.55,-94.27 -12.31,-93.93 -16.41,-93.66" fill="none" stroke="rgb(220, 208, 186)" stroke-width="2" stroke-linejoin="round" filter="url(#fuzzy)" /><polyline points="7.44,-97.49 9.7,-96.98 11.33,-96.57 12.9,-96.09 14.41,-95.55 15.86,-94.99 17.29,-94.4 18.7,-93.82 20.05,-93.28 21.29,-92.8 22.37,-92.39 23.28,-92.05 24.01,-91.79 24.48,-91.62 24.61,-91.6 24.41,-91.69" fill="none" stroke="rgb(220, 208, 186)" stroke-width="2" stroke-linejoin="round" filter="url(#fuzzy)" /><polyline points="-5.94,-97.85 -4.71,-97.71 -3.68,-97.6 -2.99,-97.37 -2.74,-96.99 -2.94,-96.48 -3.57,-95.8 -4.58,-94.94 -5.96,-93.87 -7.75,-92.56 -10.02,-91.01 -12.85,-89.21 -16.25,-87.13 -20.23,-84.78 -24.78,-82.13 -29.96,-79.15 -35.84,-75.82 -42.53,-72.08" fill="none" stroke="rgb(220, 208, 186)" stroke-width="2" stroke-linejoin="round" filter="url(#fuzzy)" /><polyline points="-7.63,-97.18 -8.13,-97.1 -7.7,-97.17 -6.87,-97.2 -6.04,-97.12 -5.42,-96.9 -5.12,-96.54 -5.2,-96.04 -5.67,-95.4 -6.52,-94.62 -7.71,-93.69 -9.22,-92.58 -11.08,-91.29 -13.34,-89.8 -16.04,-88.09 -19.23,-86.15 -22.89,-83.98 -27.02,-81.58 -31.65,-78.93 -36.82,-76.01 -42.6,-72.85" fill="none" stroke="rgb(220, 208, 186)" stroke-width="2" stroke-linejoin="round" filter="url(#fuzzy)" /><polyline points="-13.78,-96.19 -12.87,-96.32 -12.16,-96.35 -11.79,-96.21 -11.71,-95.92 -11.92,-95.49 -12.43,-94.89 -13.23,-94.11 -14.32,-93.1 -15.76,-91.82 -17.66,-90.24 -20.11,-88.34 -23.21,-86.1 -26.99,-83.52 -31.49,-80.58 -36.7,-77.26 -42.57,-73.56" fill="none" stroke="rgb(220, 208, 186)" stroke-width="2" stroke-linejoin="round" filter="url(#fuzzy)" /><polyline points="-26.57,-90.34 -24.51,-91.49 -22.76,-92.19 -20.95,-92.73 -19.03,-93.18 -16.98,-93.56 -14.78,-93.9 -12.43,-94.25 -9.94,-94.61 -7.38,-94.99 -4.8,-95.36 -2.26,-95.7 0.19,-96.02 2.46,-96.29 4.47,-96.53 6.15,-96.76 7.41,-97.01" fill="none" stroke="rgb(220, 208, 186)" stroke-width="2" stroke-linejoin="round" filter="url(#fuzzy)" /><polyline points="43.73,-76.31 44.5,-75.27 45.24,-74.37 45.89,-73.57 46.49,-72.8 47.08,-72 47.67,-71.18 48.23,-70.38 48.69,-69.69 48.98,-69.21 49.04,-69.01 48.85,-69.13 48.41,-69.55 47.72,-70.27 46.75,-71.34 45.43,-72.83 43.73,-74.81 41.63,-77.28 39.19,-80.18" fill="none" stroke="rgb(220, 208, 186)" stroke-width="2" stroke-linejoin="round" filter="url(#fuzzy)" /><polyline points="10.43,-97.05 12.3,-96.5 13.73,-95.93 15.02,-95.34 16.41,-94.66 17.97,-93.9 19.66,-93.06 21.41,-92.19 23.15,-91.31 24.85,-90.44 26.48,-89.59 27.98,-88.83 29.27,-88.18 30.31,-87.7 31.12,-87.34 31.78,-87.03 32.31,-86.78" fill="none" stroke="rgb(220, 208, 186)" stroke-width="2" stroke-linejoin="round" filter="url(#fuzzy)" /><polyline points="-21.91,-93.17 -21.14,-93.4 -20.61,-93.51 -20.2,-93.52 -19.93,-93.42 -19.86,-93.18 -20.1,-92.75 -20.71,-92.09 -21.76,-91.16 -23.31,-89.9 -25.43,-88.27 -28.15,-86.22 -31.51,-83.73 -35.53,-80.79 -40.19,-77.53" fill="none" stroke="rgb(220, 208, 186)" stroke-width="2" stroke-linejoin="round" filter="url(#fuzzy)" /><polyline points="14.21,-96.06 15.52,-95.43 16.19,-95.04 16.37,-94.72 16.12,-94.39 15.45,-93.99 14.34,-93.55 12.72,-93.11 10.47,-92.71 7.48,-92.36 3.72,-92.02 -0.86,-91.63 -6.27,-91.19 -12.5,-90.71 -19.43,-90.32" fill="none" stroke="rgb(220, 208, 186)" stroke-width="2" stroke-linejoin="round" filter="url(#fuzzy)" /><polyline points="-13.78,-96.19 -12.66,-96.32 -11.34,-96.38 -9.95,-96.3 -8.41,-96.16 -6.71,-95.96 -4.84,-95.73 -2.77,-95.46 -0.51,-95.15 1.91,-94.8 4.39,-94.41 6.86,-93.99 9.26,-93.55 11.55,-93.11 13.74,-92.66 15.83,-92.21 17.87,-91.77 19.82,-91.34 21.61,-90.95 23.14,-90.65 24.36,-90.48 25.36,-90.39 26.29,-90.33" fill="none" stroke="rgb(220, 208, 186)" stroke-width="2" stroke-linejoin="round" filter="url(#fuzzy)" /><polyline points="20.43,-93.49 22.5,-92.39 24.12,-91.36 25.7,-90.17 27.47,-88.71 29.43,-86.99 31.56,-85.04 33.82,-82.93 36.2,-80.68 38.66,-78.36 41.1,-76.08 43.41,-73.93 45.51,-71.95 47.45,-70.03 49.39,-68.03" fill="none" stroke="rgb(220, 208, 186)" stroke-width="2" stroke-linejoin="round" filter="url(#fuzzy)" /><polyline points="-18.17,-94.36 -11.52,-92.89 -0.77,-88.55 2.44,-84.85 0.29,-82.19 -1.7,-79.59 -0.73,-77.25 3.03,-76.1 7.96,-76.62 12.07,-78.39 13.35,-80.56 10.28,-82.36 2.67,-83.41 -7.8,-83.69 -17.98,-83.52 -24.54,-83.56 -25.07,-84.69 -17.5,-87.59 0.5,-91.53 26.45,-90.67" fill="none" stroke="rgb(220, 208, 186)" stroke-width="2" stroke-linejoin="round" filter="url(#fuzzy)" /><polyline points="5.37,-97.62 -4.48,-88.82 -14.4,-78.84 -12.01,-73.45 -3.54,-72.25 6.07,-73.18 14.34,-74.41 19.71,-75.17 21.44,-75.61 19.78,-76.05 15.75,-76.57 10.53,-76.91 5.13,-76.67 0.48,-75.53 -2.09,-73.35 -1.09,-70.32 4.05,-67.01 11.51,-64.46 17.11,-63.91 17.2,-65.95 13.09,-69.52 11.24,-71.74 9.54,-71.53 -34.24,-85.17" fill="none" stroke="rgb(220, 208, 186)" stroke-width="2" stroke-linejoin="round" filter="url(#fuzzy)" /><polyline points="-54.18,-61.28 5.57,-72.81 31.16,-70.67 38.05,-68.32 35.16,-68.59 28.01,-70.62 19.44,-73.57 11.46,-76.52 6.02,-78.14 4.31,-77.31 6.16,-74.14 10.5,-70.15 16.39,-67.18 23.21,-66.01 29.73,-65.92 33.59,-66.02 32.69,-66.77 25.02,-71.04 -10.16,-96.78" fill="none" stroke="rgb(220, 208, 186)" stroke-width="2" stroke-linejoin="round" filter="url(#fuzzy)" /><polyline points="62.05,-44.37 2.28,-67.84 -9.04,-75.12 -0.36,-75.82 10.12,-72.27 14.84,-67.93 14.31,-65.43 13.01,-65.25 14.87,-66.29 20.98,-66.99 29.86,-66.23 39.1,-63.76 46.74,-60.28 51.66,-57.03 53.35,-55.27 51.51,-55.62 45.54,-57.83 34.42,-61.16 17.51,-64.97 -3.01,-68.99 -18.04,-72.89 -9.59,-76.06 43.73,-76.31" fill="none" stroke="rgb(220, 208, 186)" stroke-width="2" stroke-linejoin="round" filter="url(#fuzzy)" /><polyline points="10.43,-97.05 4.14,-93.15 13.63,-86.3 16.39,-82.58 8.79,-82.32 -4.34,-82.73 -17.82,-81.83 -28.73,-79.51 -35.92,-76.89 -38.96,-75.31 -37.8,-75.55 -32.95,-77.52 -25.78,-80.34 -18.3,-82.81 -12.31,-84.09 -8.57,-84.34 -7.02,-84.54 -7.53,-84.89 -4.58,-84.1 33.01,-86.32" fill="none" stroke="rgb(220, 208, 186)" stroke-width="2" stroke-linejoin="round" filter="url(#fuzzy)" /><polyline points="-21.91,-93.17 16.81,-78.63 23.42,-76.85 20.22,-78.59 14.07,-81.06 8.82,-81.77 6.44,-80.14 7.52,-77.1 11.86,-73.54 18.79,-69.68 27.1,-65.58 34.9,-61.94 39.8,-60.09 39.7,-61.19 33.87,-65.53 23.58,-72.28 11.87,-80.03 2.41,-87.13 -2.15,-91.83 -0.22,-92.1 12.93,-84.99 53.01,-63.75" fill="none" stroke="rgb(220, 208, 186)" stroke-width="2" stroke-linejoin="round" filter="url(#fuzzy)" /><polyline points="7.22,-97.5 -0.15,-81.49 0.33,-73.09 -0.97,-74.2 3.13,-76.66 13.34,-75.61 25.94,-71.09 36.89,-65.66 43.97,-61.82 46.99,-60.61 46.96,-61.58 44.94,-63.8 41.42,-66.66 36.34,-70.09 29.8,-74.23 22.7,-78.86 16.58,-83.21 12.85,-86.34 11.8,-87.62 12.41,-87.22 13.37,-86.01 14.7,-85 18.04,-84.29 21.1,-84.4 -0.42,-97.86" fill="none" stroke="rgb(220, 208, 186)" stroke-width="2" stroke-linejoin="round" filter="url(#fuzzy)" /><polyline points="-40.27,-79.85 17.35,-64.12 20.12,-67.65 6.04,-76.14 -6.36,-83.24 -12.27,-87.64 -13,-89.68 -11.58,-89.87 -10.68,-88.67 -11.42,-86.57 -13.17,-84.16 -14.23,-82.04 -13.11,-80.62 -9.61,-80 -4.76,-79.92 0.04,-79.91 3.91,-79.51 6.46,-78.54 6.99,-77.41 4.34,-77.26 -1.46,-79.3 -6.58,-83.45 -3.2,-87.13 15.15,-86.1 44.44,-75.17" fill="none" stroke="rgb(220, 208, 186)" stroke-width="2" stroke-linejoin="round" filter="url(#fuzzy)" /><polyline points="-13.11,-96.2 -1.32,-88.28 4.48,-83.46 3.5,-83.59 3.71,-83.85 5.17,-82.69 4.29,-80.89 -0.66,-79.29 -8.13,-77.88 -14.96,-76.35 -18.69,-74.71 -18.59,-73.47 -15.13,-73.2 -8.81,-73.89 0.38,-74.69 12.09,-74.31 24.07,-72.18 31.72,-69.6 29.94,-69.85 17.73,-75.58 6.34,-83.67 33.01,-86.32" fill="none" stroke="rgb(220, 208, 186)" stroke-width="2" stroke-linejoin="round" filter="url(#fuzzy)" /><polyline points="-43.38,-76.53 15.8,-67.53 27.79,-72.48 27,-78.78 23.59,-83.17 19.18,-85.46 15.1,-85.69 13.39,-83.89 15.19,-80.48 19.48,-76.44 23.5,-73.12 24.38,-71.61 20.86,-72.13 14.01,-73.74 6.73,-74.96 2.17,-74.77 2.06,-73.39 5.81,-72.04 10.98,-71.68 14.72,-71.63 15.3,-69.59 13.22,-63.34 15.71,-52.39 65.73,-31.29" fill="none" stroke="rgb(220, 208, 186)" stroke-width="2" stroke-linejoin="round" filter="url(#fuzzy)" /><polyline points="22.99,-92.24 19.65,-88.67 4.07,-86.79 -9.26,-83.57 -19.57,-80.04 -27.6,-77.39 -33.35,-75.93 -36.71,-75.24 -37.71,-74.81 -36.43,-74.57 -33.13,-74.76 -28.42,-75.6 -23.05,-77.03 -17.62,-78.76 -12.41,-80.33 -7.58,-81.29 -3.57,-81.39 -1.29,-80.82 -1.88,-80.29 -5.9,-80.78 -12.41,-82.75 -19.2,-85.4 -25.34,-86.47 -33.23,-83.63 -39.85,-80.19" fill="none" stroke="rgb(220, 208, 186)" stroke-width="2" stroke-linejoin="round" filter="url(#fuzzy)" /><polyline points="-31.55,-87.28 -31.27,-78.57 -11.1,-70.18 10.37,-66.77 21.08,-68.04 21.9,-71.09 18.94,-73.53 17.05,-74.74 17.42,-75.49 18.29,-76.87 16.8,-79.26 11.06,-82.05 1.37,-84.26 -9.73,-85.5 -19.01,-85.91 -25.97,-84.52 -36.28,-77.47 -54.8,-60.04" fill="none" stroke="rgb(220, 208, 186)" stroke-width="2" stroke-linejoin="round" filter="url(#fuzzy)" /><polyline points="-36.39,-83.32 -33.61,-85.26 -30.85,-85.75 -27.84,-85.33 -25.77,-82.94 -22.55,-78.76 -15.65,-74.2 -5.32,-71.08 5.36,-70.56 12.76,-72.6 15.01,-76.03 12.66,-79.34 7.86,-81.3 2.96,-81.22 -0.16,-79.04 0.24,-75.42 5.91,-72.01 16.59,-71.33 26.13,-75.51 22.23,-84.1 -8.41,-97.09" fill="none" stroke="rgb(220, 208, 186)" stroke-width="2" stroke-linejoin="round" filter="url(#fuzzy)" /><polyline points="-50.24,-67.59 0.84,-77.75 19.12,-76.36 18.96,-75.18 15.94,-74.49 15.25,-73.72 14.68,-73.53 11.77,-74.57 7.51,-76.5 5.15,-78.29 7.13,-79.03 13.11,-78.44 20.29,-76.84 25.49,-74.9 27.12,-73.42 25.63,-73.41 22.21,-75.9 17.33,-81.03 12.05,-86.09 14.12,-84.36 49.81,-68.42" fill="none" stroke="rgb(220, 208, 186)" stroke-width="2" stroke-linejoin="round" filter="url(#fuzzy)" /><polyline points="61.95,-44.1 23.21,-73.36 8.57,-82.71 9.38,-85.29 14.07,-84.06 17.44,-80.4 18.86,-75.57 19.5,-70.69 20.1,-66.94 20.28,-65.46 19.27,-66.78 16.99,-70.42 14.34,-75.04 12.62,-79.12 12.69,-81.56 14.65,-82.02 17.9,-80.84 21.21,-78.84 22.84,-77.11 21.44,-76.53 18.39,-76.75 20.38,-75.06 35.11,-69.45 45.61,-74.07" fill="none" stroke="rgb(220, 208, 186)" stroke-width="2" stroke-linejoin="round" filter="url(#fuzzy)" /><polyline points="-47.22,-71.75 -7.59,-81.1 15.15,-75.81 21.01,-71.84 20.74,-72.23 21.7,-74.2 25.97,-74.22 32.37,-70.8 38.24,-65.38 40.93,-61.06 39.37,-60.41 34.62,-63.85 29,-69.65 24.12,-74.73 19.22,-74.93 6.03,-67.18 -53.41,-62.91" fill="none" stroke="rgb(220, 208, 186)" stroke-width="2" stroke-linejoin="round" filter="url(#fuzzy)" /><polyline points="65,-34.75 22.76,-61.04 21.29,-70.85 17.89,-77.9 10.25,-82.9 4.68,-85.64 4.39,-86.34 7.85,-85.45 12.03,-83.48 15.7,-80.83 19.8,-78.08 24.54,-76.44 26.84,-77.65 22.59,-82 16.19,-86.13 37.2,-82.93" fill="none" stroke="rgb(220, 208, 186)" stroke-width="2" stroke-linejoin="round" filter="url(#fuzzy)" /><polyline points="-34.24,-85.17 -0.15,-88.25 9.18,-88.47 4.64,-89.58 -3.28,-89.03 -7.83,-85.3 -5.65,-78.9 2.27,-72.04 11.37,-67.49 17.34,-66.73 20.08,-68.6 23.58,-70.27 30.43,-70.58 35.84,-72.59 28.77,-80.95 -1.57,-97.79" fill="none" stroke="rgb(220, 208, 186)" stroke-width="2" stroke-linejoin="round" filter="url(#fuzzy)" /><polyline points="41.28,-79.14 19.45,-83.8 5.53,-79.43 -4.85,-78.21 -8.68,-80.28 -8.45,-82.73 -7.22,-83.66 -5.92,-83.01 -3.85,-81.79 0.25,-80.83 7.25,-80.08 16.8,-78.89 26.61,-77.19 32.68,-76.37 30.74,-78.44 18.26,-83.12 -5.57,-84.28 -48.93,-69.83" fill="none" stroke="rgb(220, 208, 186)" stroke-width="2" stroke-linejoin="round" filter="url(#fuzzy)" /><polyline points="39.82,-80.58 23.47,-88.46 25.2,-83.52 27.7,-77.44 22.71,-76.27 12.2,-79.11 1.57,-83.06 -5.74,-86.49 -9.67,-89.11 -11.96,-90.97 -13.86,-91.9 -15.45,-91.53 -17.35,-89.17 -23.25,-83.3 -37.81,-73.12 -50.65,-66.57" fill="none" stroke="rgb(220, 208, 186)" stroke-width="2" stroke-linejoin="round" filter="url(#fuzzy)" /><polyline points="-20.89,-93.48 -37.63,-79.26 -43.27,-74.01 -43.57,-71.33 -37.71,-69.86 -25.97,-68.53 -11.43,-67.26 1.74,-66.91 10.74,-68.21 15.13,-71.01 16.02,-74.25 15.08,-76.58 14.58,-76.96 17.44,-75 25.91,-70.8 39.02,-64.4 52.09,-55.58 60.66,-45.13 65,-34.75" fill="none" stroke="rgb(220, 208, 186)" stroke-width="2" stroke-linejoin="round" filter="url(#fuzzy)" /><polyline points="-11.75,-96.37 22.03,-83.12 25.12,-82.45 19.41,-83.29 12.47,-82.82 5.27,-82.18 -0.91,-82.31 -3.67,-82.78 -1.65,-82.52 4.02,-80.71 10.33,-77.42 14.3,-73.44 14.63,-69.79 12.13,-67.1 8.59,-65.58 5.34,-65.39 2.92,-67.03 2.07,-70.9 4.82,-76.57 13.35,-82.51 25.83,-86.46 34.11,-85.41" fill="none" stroke="rgb(220, 208, 186)" stroke-width="2" stroke-linejoin="round" filter="url(#fuzzy)" /><polyline points="-40.43,-79.46 -16.15,-88.03 5.17,-88.33 17.75,-86.89 23.21,-84.69 24.43,-81.06 22.65,-76.78 18.32,-73.73 12.26,-73.03 6.09,-74.13 2.08,-75.29 2.53,-74.89 8.61,-72.51 19.08,-69.13 29.95,-66.74 35.98,-67.55 33.37,-72.95 21.85,-81.54 2.52,-87.11 -36.39,-83.32" fill="none" stroke="rgb(220, 208, 186)" stroke-width="2" stroke-linejoin="round" filter="url(#fuzzy)" /><polyline points="45.89,-73.56 42.45,-69.16 25.2,-67.27 10.61,-67.59 7.19,-68.77 11.27,-70.95 17.34,-73.84 23.02,-76.47 28.14,-77.91 32.48,-77.78 35.08,-76.04 34.61,-72.82 29.86,-68.85 20.33,-66 7.19,-66.71 -6.91,-71.99 -20.41,-80.13 -21.91,-93.17" fill="none" stroke="rgb(220, 208, 186)" stroke-width="2" stroke-linejoin="round" filter="url(#fuzzy)" /><polyline points="-50.24,-67.59 -16.44,-79.64 7.87,-80.56 20,-77.89 23.56,-74.33 22.49,-71.41 20.44,-69.73 19.2,-69.33 18.44,-70.12 16.72,-71.85 13.1,-73.97 8.02,-75.58 3.01,-75.78 -0.16,-74.24 -0.39,-71.59 2.41,-69.12 7.77,-67.98 15.17,-68.17 24.28,-68.35 34.64,-66.5 44.99,-61.59 53.22,-54.89 58.15,-48.3 65.73,-31.29" fill="none" stroke="rgb(220, 208, 186)" stroke-width="2" stroke-linejoin="round" filter="url(#fuzzy)" /><polyline points="-23.88,-92.09 -8.03,-84.72 17.79,-73.21 30.4,-65.75 28.42,-65.38 18.94,-69.66 9.06,-75.02 2.24,-79.08 -1.71,-81.03 -4.72,-81.15 -8.34,-80.07 -12.46,-78.28 -15.49,-75.93 -15.48,-72.98 -11.43,-69.62 -3.67,-66.37 6.71,-63.67 18.26,-61.55 27.83,-60.46 29.87,-62.97 24.74,-70.92 49.81,-68.42" fill="none" stroke="rgb(220, 208, 186)" stroke-width="2" stroke-linejoin="round" filter="url(#fuzzy)" /><polyline points="53.01,-63.75 16.92,-84.89 9.77,-90.21 13.57,-89.13 16.65,-87.48 15.52,-87.45 11.9,-88.58 8.55,-89.48 6.86,-89.16 6.59,-87.49 6.81,-84.94 6.76,-82.03 6.33,-78.88 6.04,-75.24 6.54,-70.96 8,-66.62 9.64,-63.6 10.17,-63.36 8.89,-66.39 6.28,-71.73 3.43,-77.8 0.75,-83.68 -2.27,-88.84 -8.76,-90.49 -36.39,-83.32" fill="none" stroke="rgb(220, 208, 186)" stroke-width="2" stroke-linejoin="round" filter="url(#fuzzy)" /><polyline points="-52.15,-64.48 11.17,-60.27 14.22,-64.06 1.18,-70.16 -8.28,-75.98 -11.56,-80.32 -11.03,-82.67 -8.49,-83.02 -4.66,-81.6 -0.06,-78.68 4.55,-74.88 8.39,-71.41 10.85,-69.77 11.49,-70.87 10.04,-74.46 7.17,-79.15 4.35,-82.69 -3.92,-81.2 -48.93,-69.83" fill="none" stroke="rgb(220, 208, 186)" stroke-width="2" stroke-linejoin="round" filter="url(#fuzzy)" /><polyline points="65,-34.75 41.19,-63.17 38.43,-69.06 38.22,-71.79 36.86,-73.46 33.45,-74.03 29.15,-73.29 25.87,-71.58 24.59,-69.85 24.64,-69.13 24.27,-69.79 21.76,-71.52 16.18,-73.67 7.71,-75.66 -2.43,-77.16 -12.25,-77.99 -19.42,-78.01 -22.17,-77.13 -20.02,-75.26 -14.06,-72.23 -6.13,-67.82 3.02,-62.12 15.94,-55.55 38.5,-48.81 60.89,-46.93" fill="none" stroke="rgb(220, 208, 186)" stroke-width="2" stroke-linejoin="round" filter="url(#fuzzy)" />
    </g>
    
        <g id="lineNose">
        <path d="M -7.75,25.08 Q 10.02, 39.36 1.1349999999999998, -5.666" fill="none" stroke="black" stroke-width="3" stroke-linejoin="round" filter="url(#fuzzy)"></path>
        </g>
      
    <g id="mouth">
      <polyline points="-24.65,30.28 -24.09,33.17 -23.54,35.98 -22.98,38.71 -22.43,41.38 -21.87,43.97 -21.32,46.48 -20.77,48.93 -20.22,51.3 -19.67,53.61 -19.12,55.84 -18.57,58 -18.02,60.09 -17.47,62.12 -16.93,64.08 -16.38,65.97 -15.84,67.79 -15.3,69.55 -14.76,71.24 -14.22,72.87 -13.68,74.44 -13.15,75.94 -12.61,77.38 -12.08,78.75 -11.55,80.07 -11.02,81.32 -10.49,82.51 -9.97,83.65 -9.44,84.72 -8.92,85.74 -8.4,86.7 -7.88,87.6 -7.37,88.45 -6.85,89.23 -6.34,89.97 -5.83,90.65 -5.33,91.27 -4.82,91.84 -4.32,92.36 -3.82,92.83 -3.32,93.24 -2.83,93.61 -2.34,93.92 -1.85,94.19 -1.36,94.4 -0.88,94.57 -0.4,94.69 0.08,94.76 0.55,94.78 1.03,94.76 1.5,94.7 1.96,94.58 2.43,94.43 2.89,94.23 3.34,93.99 3.79,93.7 4.24,93.38 4.69,93.01 5.13,92.6 5.57,92.16 6.01,91.67 6.44,91.15 6.87,90.59 7.3,89.99 7.72,89.35 8.14,88.68 8.55,87.97 8.96,87.23 9.37,86.45 9.77,85.64 10.17,84.8 10.56,83.92 10.95,83.01 11.34,82.08 11.72,81.11 12.09,80.11 12.47,79.08 12.83,78.03 13.2,76.94 13.56,75.83 13.91,74.69 14.26,73.53 14.61,72.34 14.95,71.12 15.28,69.88 15.62,68.62 15.94,67.33 16.26,66.03 16.58,64.7 16.89,63.35 17.2,61.97 17.5,60.58 17.79,59.17 18.09,57.74 18.37,56.3 18.65,54.83 18.93,53.35 19.2,51.85 19.46,50.34 19.72,48.81 19.97,47.27 19.72,48.81 19.46,50.34 19.2,51.85 18.93,53.35 18.65,54.83 18.37,56.3 18.09,57.74 17.79,59.17 17.5,60.58 17.2,61.97 16.89,63.35 16.58,64.7 16.26,66.03 15.94,67.33 15.62,68.62 15.28,69.88 14.95,71.12 14.61,72.34 14.26,73.53 13.91,74.69 13.56,75.83 13.2,76.94 12.83,78.03 12.47,79.08 12.09,80.11 11.72,81.11 11.34,82.08 10.95,83.01 10.56,83.92 10.17,84.8 9.77,85.64 9.37,86.45 8.96,87.23 8.55,87.97 8.14,88.68 7.72,89.35 7.3,89.99 6.87,90.59 6.44,91.15 6.01,91.67 5.57,92.16 5.13,92.6 4.69,93.01 4.24,93.38 3.79,93.7 3.34,93.99 2.89,94.23 2.43,94.43 1.96,94.58 1.5,94.7 1.03,94.76 0.55,94.78 0.08,94.76 -0.4,94.69 -0.88,94.57 -1.36,94.4 -1.85,94.19 -2.34,93.92 -2.83,93.61 -3.32,93.24 -3.82,92.83 -4.32,92.36 -4.82,91.84 -5.33,91.27 -5.83,90.65 -6.34,89.97 -6.85,89.23 -7.37,88.45 -7.88,87.6 -8.4,86.7 -8.92,85.74 -9.44,84.72 -9.97,83.65 -10.49,82.51 -11.02,81.32 -11.55,80.07 -12.08,78.75 -12.61,77.38 -13.15,75.94 -13.68,74.44 -14.22,72.87 -14.76,71.24 -15.3,69.55 -15.84,67.79 -16.38,65.97 -16.93,64.08 -17.47,62.12 -18.02,60.09 -18.57,58 -19.12,55.84 -19.67,53.61 -20.22,51.3 -20.77,48.93 -21.32,46.48 -21.87,43.97 -22.43,41.38 -22.98,38.71 -23.54,35.98 -24.09,33.17" fill="rgb(215,127,140)" stroke="black" stroke-width="3" stroke-linejoin="round" filter="url(#fuzzy)" />
    </g>
  </svg>
  