
  <svg viewBox="-100 -100 200 200" xmlns="http://www.w3.org/2000/svg" width="500" height="500" id="face-svg">
    <defs>
      <clipPath id="leftEyeClipPath">
        <polyline points="24.41,4.75 24.43,4.03 24.42,3.31 24.38,2.6 24.31,1.91 24.22,1.22 24.09,0.54 23.94,-0.12 23.76,-0.77 23.55,-1.41 23.31,-2.04 23.04,-2.65 22.74,-3.25 22.42,-3.84 22.07,-4.41 21.69,-4.96 21.39,-5.62 21.04,-6.27 20.65,-6.9 20.22,-7.51 19.74,-8.11 19.22,-8.68 18.65,-9.24 18.04,-9.77 17.39,-10.28 16.71,-10.76 15.99,-11.22 15.23,-11.65 14.44,-12.05 13.63,-12.43 12.78,-12.77 11.91,-13.09 11.01,-13.38 10.1,-13.63 9.17,-13.86 8.22,-14.06 7.25,-14.22 6.28,-14.35 5.3,-14.46 4.31,-14.53 3.32,-14.58 2.33,-14.59 1.33,-14.58 0.34,-14.54 -0.64,-14.47 -1.62,-14.37 -2.59,-14.25 -3.55,-14.11 -4.49,-13.94 -5.42,-13.74 -6.34,-13.53 -7.24,-13.3 -8.12,-13.05 -8.98,-12.78 -9.82,-12.5 -10.64,-12.2 -11.44,-11.89 -12.21,-11.56 -12.97,-11.23 -13.7,-10.89 -14.4,-10.55 -15.08,-10.19 -15.74,-9.84 -16.38,-9.48 -16.99,-9.13 -17.58,-8.77 -18.15,-8.42 -18.7,-8.06 -19.22,-7.7 -19.73,-7.34 -20.21,-6.99 -20.68,-6.63 -21.12,-6.28 -21.54,-5.93 -21.94,-5.58 -22.33,-5.24 -22.69,-4.9 -23.03,-4.57 -23.35,-4.24 -23.66,-3.92 -26.14,3.45 -25.82,3.56 -25.48,3.67 -25.12,3.79 -24.76,3.91 -24.38,4.04 -23.99,4.18 -23.58,4.33 -23.16,4.48 -22.73,4.65 -22.29,4.82 -21.83,5 -21.36,5.19 -20.88,5.39 -20.38,5.61 -19.87,5.83 -19.34,6.06 -18.8,6.3 -18.24,6.56 -17.67,6.82 -17.08,7.1 -16.48,7.4 -15.86,7.7 -15.22,8.02 -14.57,8.36 -13.91,8.71 -13.23,9.07 -12.53,9.45 -11.83,9.83 -11.1,10.23 -10.37,10.64 -9.63,11.06 -8.87,11.49 -8.1,11.93 -7.33,12.37 -6.54,12.81 -5.74,13.26 -4.94,13.7 -4.13,14.14 -3.32,14.58 -2.5,15.01 -1.68,15.43 -0.85,15.83 -0.03,16.22 0.8,16.6 1.63,16.95 2.45,17.28 3.27,17.58 4.09,17.86 4.9,18.1 5.71,18.31 6.51,18.48 7.3,18.61 8.08,18.7 8.85,18.75 9.61,18.75 10.35,18.69 11.09,18.59 11.8,18.44 12.51,18.23 13.19,17.97 13.86,17.66 14.51,17.29 15.15,16.86 15.76,16.38 16.34,16.15 16.9,15.88 17.45,15.58 17.99,15.26 18.52,14.91 19.03,14.53 19.53,14.12 20.02,13.69 20.49,13.23 20.94,12.75 21.38,12.24 21.81,11.72 22.22,11.17 22.61,10.61 22.99,10.03" />
      </clipPath>
      <clipPath id="rightEyeClipPath">
        <polyline points="-23.52,3.75 -23.61,2.97 -23.67,2.21 -23.7,1.46 -23.7,0.72 -23.67,0 -23.61,-0.7 -23.52,-1.39 -23.4,-2.05 -23.25,-2.7 -23.07,-3.33 -22.86,-3.94 -22.62,-4.52 -22.35,-5.09 -22.05,-5.64 -21.73,-6.16 -21.48,-6.84 -21.18,-7.49 -20.84,-8.12 -20.45,-8.71 -20.02,-9.27 -19.55,-9.79 -19.04,-10.29 -18.48,-10.75 -17.89,-11.17 -17.26,-11.56 -16.6,-11.92 -15.9,-12.24 -15.17,-12.53 -14.41,-12.78 -13.62,-13 -12.81,-13.18 -11.97,-13.33 -11.11,-13.45 -10.23,-13.54 -9.33,-13.6 -8.42,-13.62 -7.5,-13.62 -6.56,-13.59 -5.62,-13.53 -4.68,-13.45 -3.72,-13.34 -2.77,-13.2 -1.82,-13.05 -0.87,-12.87 0.07,-12.68 1.01,-12.46 1.94,-12.23 2.85,-11.99 3.76,-11.73 4.65,-11.46 5.53,-11.17 6.39,-10.88 7.23,-10.58 8.06,-10.27 8.86,-9.95 9.65,-9.63 10.41,-9.31 11.15,-8.99 11.87,-8.66 12.57,-8.34 13.24,-8.02 13.89,-7.7 14.51,-7.38 15.11,-7.07 15.69,-6.76 16.25,-6.46 16.78,-6.17 17.3,-5.88 17.79,-5.59 18.26,-5.31 18.71,-5.03 19.14,-4.76 19.54,-4.5 19.93,-4.25 20.29,-4 20.63,-3.76 20.95,-3.53 21.25,-3.3 21.52,-3.09 26.59,3.69 26.27,3.75 25.93,3.81 25.58,3.88 25.22,3.96 24.85,4.05 24.47,4.14 24.07,4.24 23.66,4.36 23.24,4.48 22.81,4.61 22.37,4.75 21.91,4.9 21.45,5.06 20.97,5.24 20.47,5.42 19.97,5.62 19.45,5.82 18.91,6.04 18.36,6.27 17.8,6.52 17.22,6.78 16.63,7.05 16.02,7.34 15.4,7.64 14.77,7.96 14.12,8.29 13.46,8.64 12.79,8.99 12.1,9.36 11.4,9.75 10.69,10.14 9.97,10.54 9.24,10.95 8.5,11.36 7.75,11.78 6.99,12.2 6.23,12.62 5.46,13.03 4.68,13.45 3.89,13.85 3.1,14.25 2.3,14.64 1.51,15.01 0.71,15.36 -0.09,15.7 -0.9,16.01 -1.7,16.29 -2.5,16.55 -3.3,16.78 -4.09,16.97 -4.89,17.13 -5.67,17.25 -6.45,17.33 -7.23,17.36 -8,17.35 -8.75,17.29 -9.5,17.17 -10.24,17.01 -10.97,16.8 -11.68,16.53 -12.39,16.2 -13.08,15.82 -13.75,15.39 -14.41,14.89 -15.01,14.63 -15.6,14.34 -16.17,14.01 -16.74,13.66 -17.3,13.27 -17.84,12.85 -18.37,12.41 -18.89,11.93 -19.4,11.42 -19.89,10.89 -20.36,10.33 -20.83,9.74 -21.27,9.13 -21.7,8.49 -22.11,7.83" />
      </clipPath>
      <filter id="fuzzy">
        <feTurbulence id="turbulence" baseFrequency="0.05" numOctaves="3" type="noise" result="noise" />
        <feDisplacementMap in="SourceGraphic" in2="noise" scale="2" />
      </filter>
      <linearGradient id="rainbowGradient" x1="0%" y1="0%" x2="100%" y2="0%">
        <stop offset="0%" style="stop-color: rgb(145, 85, 61); stop-opacity: 1" />
        <stop offset="50%" style="stop-color: rgb(255, 99, 71); stop-opacity: 1" />
        <stop offset="100%" style="stop-color: rgb(80, 68, 68); stop-opacity: 1" />
      </linearGradient>
    </defs>
    <rect x="-100" y="-100" width="100%" height="100%" fill="rgb(255, 240, 245)" />
    <polyline id="faceContour" points="61.79,1.08 62.01,0.4 61.79,3.01 62.07,2.99 61.64,5.65 61.98,4.69 61.76,5.98 61.66,8.99 61.54,8.9 61.32,10.83 61.21,12.23 60.99,13.08 61.08,13.87 60.76,14.63 60.82,15.28 60.28,17.33 60.42,17.54 59.45,21.26 59.68,21.61 59.58,21.57 59.01,23.43 58.74,25.2 58.35,26.49 57.72,27.45 57.43,28.94 56.92,30.89 56.99,30.98 56.16,32.88 56.6,31.91 55.64,33.78 55.15,34.87 54.73,36.17 53.96,38.12 54.16,37.64 52.86,41.05 52.45,41.04 52.19,42.13 51.52,43.27 52.11,42.66 50.2,45.77 50.76,44.59 49.89,46.27 48.54,48.13 48.15,49 48.41,48.58 47.72,50.2 46.5,51.48 46.08,52.08 45.14,53.25 43.49,55.25 43.37,55.78 42.99,55.95 42.17,56.73 41.97,57.48 41.76,57.56 40.25,59.02 38.85,60.72 37.99,61.32 37.47,61.86 36.59,62.85 37.75,61.88 36.63,62.82 34.86,64.54 33.84,65.24 32.21,66.61 31.09,67.54 31.92,66.96 30.93,67.54 30.76,67.67 27.93,69.28 28.68,69.16 26.92,70.21 25.59,70.72 26.24,70.47 24.69,71.28 24.02,71.83 21.37,73.03 22.11,72.83 21.07,73.09 19.97,73.87 18.1,74.37 17.44,74.72 17.77,74.81 15.85,75.17 15.71,75.22 15.56,75.32 12.94,76.03 12.28,76.32 13.25,76.29 9.51,76.97 9.57,76.94 8.49,77.09 9.38,76.94 6.85,77.43 5.31,77.66 4.54,77.64 3.48,77.63 2.76,77.92 0.76,77.87 2.67,77.86 0.01,77.89 -0.73,77.83 -1.01,77.66 -3.93,77.58 -2.97,77.84 -5.43,77.45 -6.11,77.42 -6.01,77.36 -8.57,77.04 -7.95,77.45 -11.19,76.56 -10.22,76.67 -11.49,76.51 -11.35,76.41 -13.43,76.03 -13.64,76.1 -14.72,75.55 -15.55,75.14 -17.66,74.82 -18.47,74.58 -18.46,74.29 -19.69,73.77 -22.01,72.75 -21.96,72.67 -21.48,72.96 -23.31,72.16 -23.9,72.08 -25.88,70.82 -25.83,70.79 -28.12,69.56 -27.99,69.22 -27.39,69.78 -30.31,67.83 -30.72,67.49 -30.94,67.38 -32.55,66.31 -33.66,65.33 -33.7,65.24 -35.25,64.02 -35.81,63.89 -37.19,62.2 -36.65,62.81 -36.89,62.64 -38.77,60.78 -40.09,59.35 -40.33,59.23 -41.65,57.63 -42.17,57.07 -43.33,55.86 -43.2,55.97 -43.36,55.62 -45.08,53.33 -45.01,53.45 -45.68,52.27 -46.57,51.93 -46.36,51.51 -48.21,48.92 -48.04,48.77 -48.4,48.23 -49.66,46.44 -50.2,45.86 -50.95,44.46 -51.89,42.74 -51.52,43.64 -52.94,40.8 -52.51,40.92 -53.76,39.11 -53.51,39.38 -54.93,36.11 -55.09,35.73 -54.73,36.31 -55.68,34.24 -56.6,31.64 -56.47,32.21 -56.5,32.16 -57.22,30.58 -57.34,30.35 -58.24,27.25 -58.84,25.05 -58.65,24.86 -59.06,23.86 -58.85,24.07 -59.49,21.6 -59.97,20.07 -60.04,18.52 -60.15,19.52 -60.51,17.99 -60.68,14.92 -60.72,14.29 -60.91,13.97 -61.15,11.7 -61.53,11.24 -61.3,10.24 -61.6,8.82 -61.87,6.77 -61.73,7.93 -61.76,5.89 -62.09,3.53 -62.1,3.24 -62.01,1.93 -61.96,-0.73 -61.86,-1.69 -61.92,-0.66 -61.76,-4.65 -61.88,-4.24 -61.62,-6.88 -61.64,-7.87 -61.65,-7.61 -61.44,-9.12 -61.46,-11.12 -61.4,-12.06 -61.31,-12.27 -61.05,-13.23 -60.71,-16.55 -60.42,-17.4 -60.35,-17.7 -60.09,-18.74 -60.12,-19.82 -59.55,-21.34 -59.17,-23.69 -58.79,-24.03 -58.56,-25.04 -57.86,-27.81 -58.33,-26.17 -57.65,-29.25 -56.92,-30.62 -56.78,-30.81 -56.96,-31.06 -56.27,-32.63 -55.86,-33.77 -55.12,-35.21 -54.9,-35.54 -54.14,-37.84 -54.52,-37.05 -53.94,-38.83 -52.51,-41.34 -52.86,-41.11 -51.43,-43.72 -50.81,-44.28 -50.18,-45.53 -50.39,-45.29 -48.65,-48.42 -49.3,-47.46 -48.37,-48.78 -47.53,-49.45 -47.31,-50.51 -45.95,-52.12 -46.65,-51.51 -45.46,-52.96 -44.89,-53.87 -43.7,-55.1 -43.12,-55.51 -42.04,-56.78 -42.27,-57.01 -40.91,-58.2 -39.64,-59.65 -39.39,-59.84 -38.58,-60.77 -38.02,-61.4 -37.25,-62.37 -35.32,-64.02 -35.93,-63.29 -35.92,-63.35 -34.69,-64.33 -33.16,-65.72 -31.7,-66.91 -30.69,-67.57 -30.66,-67.71 -30.37,-67.64 -28.62,-68.75 -28.66,-69.03 -27.46,-69.57 -25.92,-70.62 -26.52,-70.3 -24.4,-71.47 -22.7,-72.66 -23.41,-71.91 -21.03,-73.38 -22.79,-72.53 -19.65,-73.77 -18.38,-74.39 -17.4,-74.54 -17.48,-74.6 -15.94,-75.2 -15.19,-75.52 -14.75,-75.4 -14.73,-75.74 -12.25,-76.48 -11.11,-76.61 -11.34,-76.6 -9.11,-76.91 -7.87,-77.28 -6.73,-77.24 -5.38,-77.71 -6.01,-77.51 -5.89,-77.45 -3.32,-77.85 -3.28,-77.75 -0.09,-77.81 -0.41,-77.71 1.14,-78.01 1.96,-77.71 2.23,-77.98 2.26,-77.64 4.15,-77.65 4.07,-77.66 5.57,-77.64 6.61,-77.25 7.38,-77.34 8.69,-77.28 9.09,-76.75 11.93,-76.21 10.4,-76.73 11.87,-76.54 13.31,-76.03 13.87,-75.8 15.36,-75.59 14.99,-75.51 17.54,-74.57 18.13,-74.4 19.49,-73.67 19.47,-74.08 21.22,-73.23 22.9,-72.27 23.19,-72.01 23.35,-72.17 24.12,-71.64 24.85,-71.12 27.09,-70.24 27.84,-69.16 28.55,-68.99 29.49,-68.77 29.08,-68.69 31.43,-67.33 31.54,-66.92 32.46,-66.34 32.63,-66.14 34.17,-65.23 34.87,-64.14 36.25,-63.21 37.58,-61.79 37.03,-62.34 38.13,-61.34 38.68,-61.21 39.06,-60.46 39.53,-59.71 40.12,-59.28 41.41,-57.7 43.2,-55.79 42.55,-56.53 42.66,-56.39 44.55,-54.21 44.84,-53.35 45.99,-52.11 46.8,-50.73 46.35,-51.81 47.71,-49.63 48.28,-48.85 49.07,-47.38 50.17,-45.53 50.11,-46.14 51.29,-43.7 51.3,-43.36 51.64,-43.4 52.28,-41.46 52.65,-41.21 53.28,-39.18 53.15,-39.93 54.34,-37.92 54.85,-35.94 55.14,-35.49 55.69,-34.08 56.2,-32.39 56.41,-32.71 56.79,-31 57.1,-29.89 57.82,-28.52 57.86,-27.72 58.15,-26.9 58.72,-24.7 58.7,-24.85 58.82,-24.53 59.16,-22.37 59.34,-21.74 60.21,-18.22 60.33,-17.84 60.35,-17.28 60.56,-16.51 60.78,-14.37 61.15,-12.57 61.32,-11.75 61.35,-11.59 61.55,-10.7 61.47,-7.65 61.59,-9.24 61.73,-5.61 62.03,-3.75 61.95,-3.05 61.81,-3.03 61.77,-1.28 61.79,1.08 62.01,0.4" fill="rgb(255, 235, 205)" stroke="black" stroke-width="1.6666666666666665" stroke-linejoin="round" filter="url(#fuzzy)" />
    <g transform="translate(33.46 -23.24)">
      <polyline id="rightCountour" points="-23.52,3.75 -23.61,2.97 -23.67,2.21 -23.7,1.46 -23.7,0.72 -23.67,0 -23.61,-0.7 -23.52,-1.39 -23.4,-2.05 -23.25,-2.7 -23.07,-3.33 -22.86,-3.94 -22.62,-4.52 -22.35,-5.09 -22.05,-5.64 -21.73,-6.16 -21.48,-6.84 -21.18,-7.49 -20.84,-8.12 -20.45,-8.71 -20.02,-9.27 -19.55,-9.79 -19.04,-10.29 -18.48,-10.75 -17.89,-11.17 -17.26,-11.56 -16.6,-11.92 -15.9,-12.24 -15.17,-12.53 -14.41,-12.78 -13.62,-13 -12.81,-13.18 -11.97,-13.33 -11.11,-13.45 -10.23,-13.54 -9.33,-13.6 -8.42,-13.62 -7.5,-13.62 -6.56,-13.59 -5.62,-13.53 -4.68,-13.45 -3.72,-13.34 -2.77,-13.2 -1.82,-13.05 -0.87,-12.87 0.07,-12.68 1.01,-12.46 1.94,-12.23 2.85,-11.99 3.76,-11.73 4.65,-11.46 5.53,-11.17 6.39,-10.88 7.23,-10.58 8.06,-10.27 8.86,-9.95 9.65,-9.63 10.41,-9.31 11.15,-8.99 11.87,-8.66 12.57,-8.34 13.24,-8.02 13.89,-7.7 14.51,-7.38 15.11,-7.07 15.69,-6.76 16.25,-6.46 16.78,-6.17 17.3,-5.88 17.79,-5.59 18.26,-5.31 18.71,-5.03 19.14,-4.76 19.54,-4.5 19.93,-4.25 20.29,-4 20.63,-3.76 20.95,-3.53 21.25,-3.3 21.52,-3.09 26.59,3.69 26.27,3.75 25.93,3.81 25.58,3.88 25.22,3.96 24.85,4.05 24.47,4.14 24.07,4.24 23.66,4.36 23.24,4.48 22.81,4.61 22.37,4.75 21.91,4.9 21.45,5.06 20.97,5.24 20.47,5.42 19.97,5.62 19.45,5.82 18.91,6.04 18.36,6.27 17.8,6.52 17.22,6.78 16.63,7.05 16.02,7.34 15.4,7.64 14.77,7.96 14.12,8.29 13.46,8.64 12.79,8.99 12.1,9.36 11.4,9.75 10.69,10.14 9.97,10.54 9.24,10.95 8.5,11.36 7.75,11.78 6.99,12.2 6.23,12.62 5.46,13.03 4.68,13.45 3.89,13.85 3.1,14.25 2.3,14.64 1.51,15.01 0.71,15.36 -0.09,15.7 -0.9,16.01 -1.7,16.29 -2.5,16.55 -3.3,16.78 -4.09,16.97 -4.89,17.13 -5.67,17.25 -6.45,17.33 -7.23,17.36 -8,17.35 -8.75,17.29 -9.5,17.17 -10.24,17.01 -10.97,16.8 -11.68,16.53 -12.39,16.2 -13.08,15.82 -13.75,15.39 -14.41,14.89 -15.01,14.63 -15.6,14.34 -16.17,14.01 -16.74,13.66 -17.3,13.27 -17.84,12.85 -18.37,12.41 -18.89,11.93 -19.4,11.42 -19.89,10.89 -20.36,10.33 -20.83,9.74 -21.27,9.13 -21.7,8.49 -22.11,7.83" fill="white" stroke="white" stroke-width="0" stroke-linejoin="round" filter="url(#fuzzy)" />
    </g>
    <g transform="translate(-39.16 -18.13)">
      <polyline id="leftCountour" points="24.41,4.75 24.43,4.03 24.42,3.31 24.38,2.6 24.31,1.91 24.22,1.22 24.09,0.54 23.94,-0.12 23.76,-0.77 23.55,-1.41 23.31,-2.04 23.04,-2.65 22.74,-3.25 22.42,-3.84 22.07,-4.41 21.69,-4.96 21.39,-5.62 21.04,-6.27 20.65,-6.9 20.22,-7.51 19.74,-8.11 19.22,-8.68 18.65,-9.24 18.04,-9.77 17.39,-10.28 16.71,-10.76 15.99,-11.22 15.23,-11.65 14.44,-12.05 13.63,-12.43 12.78,-12.77 11.91,-13.09 11.01,-13.38 10.1,-13.63 9.17,-13.86 8.22,-14.06 7.25,-14.22 6.28,-14.35 5.3,-14.46 4.31,-14.53 3.32,-14.58 2.33,-14.59 1.33,-14.58 0.34,-14.54 -0.64,-14.47 -1.62,-14.37 -2.59,-14.25 -3.55,-14.11 -4.49,-13.94 -5.42,-13.74 -6.34,-13.53 -7.24,-13.3 -8.12,-13.05 -8.98,-12.78 -9.82,-12.5 -10.64,-12.2 -11.44,-11.89 -12.21,-11.56 -12.97,-11.23 -13.7,-10.89 -14.4,-10.55 -15.08,-10.19 -15.74,-9.84 -16.38,-9.48 -16.99,-9.13 -17.58,-8.77 -18.15,-8.42 -18.7,-8.06 -19.22,-7.7 -19.73,-7.34 -20.21,-6.99 -20.68,-6.63 -21.12,-6.28 -21.54,-5.93 -21.94,-5.58 -22.33,-5.24 -22.69,-4.9 -23.03,-4.57 -23.35,-4.24 -23.66,-3.92 -26.14,3.45 -25.82,3.56 -25.48,3.67 -25.12,3.79 -24.76,3.91 -24.38,4.04 -23.99,4.18 -23.58,4.33 -23.16,4.48 -22.73,4.65 -22.29,4.82 -21.83,5 -21.36,5.19 -20.88,5.39 -20.38,5.61 -19.87,5.83 -19.34,6.06 -18.8,6.3 -18.24,6.56 -17.67,6.82 -17.08,7.1 -16.48,7.4 -15.86,7.7 -15.22,8.02 -14.57,8.36 -13.91,8.71 -13.23,9.07 -12.53,9.45 -11.83,9.83 -11.1,10.23 -10.37,10.64 -9.63,11.06 -8.87,11.49 -8.1,11.93 -7.33,12.37 -6.54,12.81 -5.74,13.26 -4.94,13.7 -4.13,14.14 -3.32,14.58 -2.5,15.01 -1.68,15.43 -0.85,15.83 -0.03,16.22 0.8,16.6 1.63,16.95 2.45,17.28 3.27,17.58 4.09,17.86 4.9,18.1 5.71,18.31 6.51,18.48 7.3,18.61 8.08,18.7 8.85,18.75 9.61,18.75 10.35,18.69 11.09,18.59 11.8,18.44 12.51,18.23 13.19,17.97 13.86,17.66 14.51,17.29 15.15,16.86 15.76,16.38 16.34,16.15 16.9,15.88 17.45,15.58 17.99,15.26 18.52,14.91 19.03,14.53 19.53,14.12 20.02,13.69 20.49,13.23 20.94,12.75 21.38,12.24 21.81,11.72 22.22,11.17 22.61,10.61 22.99,10.03" fill="white" stroke="white" stroke-width="0" stroke-linejoin="round" filter="url(#fuzzy)" />
    </g>
    <g transform="translate(33.46 -23.24)">
      <polyline id="rightUpper" points="-21.06,12.13 -21.42,11.26 -21.76,10.4 -22.08,9.54 -22.37,8.68 -22.63,7.84 -22.87,7 -23.08,6.17 -23.26,5.35 -23.4,4.55 -23.52,3.75 -23.61,2.97 -23.67,2.21 -23.7,1.46 -23.7,0.72 -23.67,0 -23.61,-0.7 -23.52,-1.39 -23.4,-2.05 -23.25,-2.7 -23.07,-3.33 -22.86,-3.94 -22.62,-4.52 -22.35,-5.09 -22.05,-5.64 -21.73,-6.16 -21.48,-6.84 -21.18,-7.49 -20.84,-8.12 -20.45,-8.71 -20.02,-9.27 -19.55,-9.79 -19.04,-10.29 -18.48,-10.75 -17.89,-11.17 -17.26,-11.56 -16.6,-11.92 -15.9,-12.24 -15.17,-12.53 -14.41,-12.78 -13.62,-13 -12.81,-13.18 -11.97,-13.33 -11.11,-13.45 -10.23,-13.54 -9.33,-13.6 -8.42,-13.62 -7.5,-13.62 -6.56,-13.59 -5.62,-13.53 -4.68,-13.45 -3.72,-13.34 -2.77,-13.2 -1.82,-13.05 -0.87,-12.87 0.07,-12.68 1.01,-12.46 1.94,-12.23 2.85,-11.99 3.76,-11.73 4.65,-11.46 5.53,-11.17 6.39,-10.88 7.23,-10.58 8.06,-10.27 8.86,-9.95 9.65,-9.63 10.41,-9.31 11.15,-8.99 11.87,-8.66 12.57,-8.34 13.24,-8.02 13.89,-7.7 14.51,-7.38 15.11,-7.07 15.69,-6.76 16.25,-6.46 16.78,-6.17 17.3,-5.88 17.79,-5.59 18.26,-5.31 18.71,-5.03 19.14,-4.76 19.54,-4.5 19.93,-4.25 20.29,-4 20.63,-3.76 20.95,-3.53 21.25,-3.3 21.52,-3.09 21.78,-2.88 22.02,-2.69 22.23,-2.5 22.43,-2.32 22.61,-2.15 22.77,-1.99 22.91,-1.84 23.03,-1.7 23.14,-1.57 23.23,-1.44" fill="none" stroke="black" stroke-width="1.6666666666666665" stroke-linejoin="round" filter="url(#fuzzy)" />
      <polyline id="rightLower" points="-25.14,0.46 -24.94,1.23 -24.71,1.99 -24.46,2.76 -24.18,3.52 -23.89,4.27 -23.57,5.01 -23.24,5.74 -22.88,6.46 -22.5,7.16 -22.11,7.83 -21.7,8.49 -21.27,9.13 -20.83,9.74 -20.36,10.33 -19.89,10.89 -19.4,11.42 -18.89,11.93 -18.37,12.41 -17.84,12.85 -17.3,13.27 -16.74,13.66 -16.17,14.01 -15.6,14.34 -15.01,14.63 -14.41,14.89 -13.75,15.39 -13.08,15.82 -12.39,16.2 -11.68,16.53 -10.97,16.8 -10.24,17.01 -9.5,17.17 -8.75,17.29 -8,17.35 -7.23,17.36 -6.45,17.33 -5.67,17.25 -4.89,17.13 -4.09,16.97 -3.3,16.78 -2.5,16.55 -1.7,16.29 -0.9,16.01 -0.09,15.7 0.71,15.36 1.51,15.01 2.3,14.64 3.1,14.25 3.89,13.85 4.68,13.45 5.46,13.03 6.23,12.62 6.99,12.2 7.75,11.78 8.5,11.36 9.24,10.95 9.97,10.54 10.69,10.14 11.4,9.75 12.1,9.36 12.79,8.99 13.46,8.64 14.12,8.29 14.77,7.96 15.4,7.64 16.02,7.34 16.63,7.05 17.22,6.78 17.8,6.52 18.36,6.27 18.91,6.04 19.45,5.82 19.97,5.62 20.47,5.42 20.97,5.24 21.45,5.06 21.91,4.9 22.37,4.75 22.81,4.61 23.24,4.48 23.66,4.36 24.07,4.24 24.47,4.14 24.85,4.05 25.22,3.96 25.58,3.88 25.93,3.81 26.27,3.75 26.59,3.69 26.91,3.64 27.21,3.59 27.5,3.55 27.78,3.51 28.05,3.47 28.31,3.44 28.56,3.41 28.8,3.39 29.02,3.37 29.24,3.35" fill="none" stroke="black" stroke-width="2.2222222222222223" stroke-linejoin="round" filter="url(#fuzzy)" />
      <circle r="3.936" cx="-3.0219690030463413" cy="-0.7390634968897523" stroke="black" fill="none" stroke-width="1.0" filter="url(#fuzzy)" clip-path="url(#rightEyeClipPath)" /><circle r="4.202" cx="1.008030996953659" cy="-2.9440634968897523" stroke="black" fill="none" stroke-width="1.0" filter="url(#fuzzy)" clip-path="url(#rightEyeClipPath)" /><circle r="3.404" cx="-3.216969003046341" cy="-1.2740634968897524" stroke="black" fill="none" stroke-width="1.0" filter="url(#fuzzy)" clip-path="url(#rightEyeClipPath)" /><circle r="3.282" cx="-2.3519690030463414" cy="-3.964063496889753" stroke="black" fill="none" stroke-width="1.0" filter="url(#fuzzy)" clip-path="url(#rightEyeClipPath)" /><circle r="3.79" cx="-2.1719690030463408" cy="-1.0290634968897532" stroke="black" fill="none" stroke-width="1.0" filter="url(#fuzzy)" clip-path="url(#rightEyeClipPath)" /><circle r="4.098" cx="-1.3669690030463413" cy="-1.1490634968897524" stroke="black" fill="none" stroke-width="1.0" filter="url(#fuzzy)" clip-path="url(#rightEyeClipPath)" /><circle r="3.918" cx="-0.9169690030463411" cy="-2.1790634968897526" stroke="black" fill="none" stroke-width="1.0" filter="url(#fuzzy)" clip-path="url(#rightEyeClipPath)" /><circle r="3.18" cx="-0.5169690030463412" cy="-0.584063496889752" stroke="black" fill="none" stroke-width="1.0" filter="url(#fuzzy)" clip-path="url(#rightEyeClipPath)" /><circle r="3.016" cx="-1.6019690030463412" cy="-5.044063496889753" stroke="black" fill="none" stroke-width="1.0" filter="url(#fuzzy)" clip-path="url(#rightEyeClipPath)" /><circle r="4.788" cx="1.1180309969536593" cy="-0.5240634968897524" stroke="black" fill="none" stroke-width="1.0" filter="url(#fuzzy)" clip-path="url(#rightEyeClipPath)" />
      </g>
    <g transform="translate(-39.16 -18.13)">
      <polyline id="leftUpper" points="22.88,12.46 23.13,11.66 23.36,10.86 23.58,10.08 23.77,9.29 23.94,8.52 24.08,7.75 24.2,6.99 24.3,6.23 24.37,5.49 24.41,4.75 24.43,4.03 24.42,3.31 24.38,2.6 24.31,1.91 24.22,1.22 24.09,0.54 23.94,-0.12 23.76,-0.77 23.55,-1.41 23.31,-2.04 23.04,-2.65 22.74,-3.25 22.42,-3.84 22.07,-4.41 21.69,-4.96 21.39,-5.62 21.04,-6.27 20.65,-6.9 20.22,-7.51 19.74,-8.11 19.22,-8.68 18.65,-9.24 18.04,-9.77 17.39,-10.28 16.71,-10.76 15.99,-11.22 15.23,-11.65 14.44,-12.05 13.63,-12.43 12.78,-12.77 11.91,-13.09 11.01,-13.38 10.1,-13.63 9.17,-13.86 8.22,-14.06 7.25,-14.22 6.28,-14.35 5.3,-14.46 4.31,-14.53 3.32,-14.58 2.33,-14.59 1.33,-14.58 0.34,-14.54 -0.64,-14.47 -1.62,-14.37 -2.59,-14.25 -3.55,-14.11 -4.49,-13.94 -5.42,-13.74 -6.34,-13.53 -7.24,-13.3 -8.12,-13.05 -8.98,-12.78 -9.82,-12.5 -10.64,-12.2 -11.44,-11.89 -12.21,-11.56 -12.97,-11.23 -13.7,-10.89 -14.4,-10.55 -15.08,-10.19 -15.74,-9.84 -16.38,-9.48 -16.99,-9.13 -17.58,-8.77 -18.15,-8.42 -18.7,-8.06 -19.22,-7.7 -19.73,-7.34 -20.21,-6.99 -20.68,-6.63 -21.12,-6.28 -21.54,-5.93 -21.94,-5.58 -22.33,-5.24 -22.69,-4.9 -23.03,-4.57 -23.35,-4.24 -23.66,-3.92 -23.94,-3.61 -24.21,-3.3 -24.46,-3 -24.69,-2.71 -24.9,-2.43 -25.1,-2.15 -25.28,-1.88 -25.44,-1.62 -25.59,-1.37 -25.73,-1.13" fill="none" stroke="black" stroke-width="2.2222222222222223" stroke-linejoin="round" filter="url(#fuzzy)" />
      <polyline id="leftLower" points="25.75,3.85 25.56,4.46 25.35,5.07 25.12,5.7 24.87,6.33 24.6,6.96 24.32,7.58 24.01,8.21 23.69,8.83 23.35,9.43 22.99,10.03 22.61,10.61 22.22,11.17 21.81,11.72 21.38,12.24 20.94,12.75 20.49,13.23 20.02,13.69 19.53,14.12 19.03,14.53 18.52,14.91 17.99,15.26 17.45,15.58 16.9,15.88 16.34,16.15 15.76,16.38 15.15,16.86 14.51,17.29 13.86,17.66 13.19,17.97 12.51,18.23 11.8,18.44 11.09,18.59 10.35,18.69 9.61,18.75 8.85,18.75 8.08,18.7 7.3,18.61 6.51,18.48 5.71,18.31 4.9,18.1 4.09,17.86 3.27,17.58 2.45,17.28 1.63,16.95 0.8,16.6 -0.03,16.22 -0.85,15.83 -1.68,15.43 -2.5,15.01 -3.32,14.58 -4.13,14.14 -4.94,13.7 -5.74,13.26 -6.54,12.81 -7.33,12.37 -8.1,11.93 -8.87,11.49 -9.63,11.06 -10.37,10.64 -11.1,10.23 -11.83,9.83 -12.53,9.45 -13.23,9.07 -13.91,8.71 -14.57,8.36 -15.22,8.02 -15.86,7.7 -16.48,7.4 -17.08,7.1 -17.67,6.82 -18.24,6.56 -18.8,6.3 -19.34,6.06 -19.87,5.83 -20.38,5.61 -20.88,5.39 -21.36,5.19 -21.83,5 -22.29,4.82 -22.73,4.65 -23.16,4.48 -23.58,4.33 -23.99,4.18 -24.38,4.04 -24.76,3.91 -25.12,3.79 -25.48,3.67 -25.82,3.56 -26.14,3.45 -26.46,3.35 -26.76,3.25 -27.05,3.15 -27.33,3.06 -27.6,2.97 -27.86,2.88 -28.1,2.8 -28.33,2.72 -28.56,2.64 -28.77,2.56" fill="none" stroke="black" stroke-width="2.2222222222222223" stroke-linejoin="round" filter="url(#fuzzy)" />
      <circle r="4.76" cx="0.11149359267677994" cy="-5.9366486169716834" stroke="black" fill="none" stroke-width="1.0" filter="url(#fuzzy)" clip-path="url(#leftEyeClipPath)" /><circle r="4.446" cx="-1.29350640732322" cy="-3.341648616971683" stroke="black" fill="none" stroke-width="1.0" filter="url(#fuzzy)" clip-path="url(#leftEyeClipPath)" /><circle r="4.3740000000000006" cx="-0.7585064073232199" cy="-5.1866486169716834" stroke="black" fill="none" stroke-width="1.0" filter="url(#fuzzy)" clip-path="url(#leftEyeClipPath)" /><circle r="5" cx="-0.9785064073232197" cy="-5.841648616971684" stroke="black" fill="none" stroke-width="1.0" filter="url(#fuzzy)" clip-path="url(#leftEyeClipPath)" /><circle r="3.258" cx="-2.6185064073232196" cy="-5.396648616971683" stroke="black" fill="none" stroke-width="1.0" filter="url(#fuzzy)" clip-path="url(#leftEyeClipPath)" /><circle r="3.612" cx="0.42649359267677944" cy="-6.406648616971683" stroke="black" fill="none" stroke-width="1.0" filter="url(#fuzzy)" clip-path="url(#leftEyeClipPath)" /><circle r="3.7119999999999997" cx="-0.1135064073232197" cy="-6.2666486169716835" stroke="black" fill="none" stroke-width="1.0" filter="url(#fuzzy)" clip-path="url(#leftEyeClipPath)" /><circle r="3.934" cx="1.2064935926767797" cy="-1.9616486169716838" stroke="black" fill="none" stroke-width="1.0" filter="url(#fuzzy)" clip-path="url(#leftEyeClipPath)" /><circle r="4.85" cx="0.4614935926767796" cy="-5.661648616971683" stroke="black" fill="none" stroke-width="1.0" filter="url(#fuzzy)" clip-path="url(#leftEyeClipPath)" /><circle r="4.148" cx="-1.7085064073232197" cy="-5.771648616971683" stroke="black" fill="none" stroke-width="1.0" filter="url(#fuzzy)" clip-path="url(#leftEyeClipPath)" />
    </g>
    <g id="hairs">
      <polyline points="21.22,-73.23 22.32,-72.58 22.87,-72.25 23.25,-72 23.63,-71.7 23.99,-71.36 24.25,-71.03 24.31,-70.76 24.09,-70.58 23.56,-70.5 22.7,-70.5 21.52,-70.57 20,-70.7 18.14,-70.92 15.98,-71.22 13.49,-71.61 10.66,-72.09 7.36,-72.68 3.48,-73.4 -1.06,-74.28 -6.13,-75.33" fill="none" stroke="rgb(0, 0, 0)" stroke-width="2" stroke-linejoin="round" filter="url(#fuzzy)" /><polyline points="-6.01,-77.51 -5.24,-77.56 -3.94,-77.66 -2.58,-77.73 -1.32,-77.77 -0.28,-77.8 0.5,-77.81 0.97,-77.81 1.14,-77.8 0.98,-77.76 0.48,-77.72 -0.34,-77.66 -1.46,-77.6 -2.8,-77.54 -4.39,-77.47" fill="none" stroke="rgb(0, 0, 0)" stroke-width="2" stroke-linejoin="round" filter="url(#fuzzy)" /><polyline points="54.85,-35.94 55.19,-35.23 55.53,-34.35 55.79,-33.57 55.95,-32.94 56.02,-32.44 55.98,-32.09 55.83,-31.9 55.54,-31.93 55.11,-32.2 54.53,-32.71 53.8,-33.46 52.9,-34.46 51.82,-35.71 50.54,-37.26 49.04,-39.15 47.31,-41.43 45.35,-44.11 43.15,-47.22 40.71,-50.73 38.02,-54.67 35.07,-59.08 31.93,-63.91" fill="none" stroke="rgb(0, 0, 0)" stroke-width="2" stroke-linejoin="round" filter="url(#fuzzy)" /><polyline points="53.28,-39.18 53.47,-39.11 53.8,-38.35 53.96,-37.64 53.87,-37.25 53.52,-37.23 52.91,-37.61 52.01,-38.37 50.82,-39.53 49.32,-41.08 47.49,-43.06 45.28,-45.52 42.65,-48.52 39.54,-52.13 35.93,-56.36 31.89,-61.17 27.59,-66.44" fill="none" stroke="rgb(0, 0, 0)" stroke-width="2" stroke-linejoin="round" filter="url(#fuzzy)" /><polyline points="-21.03,-73.38 -21.21,-73.21 -20.07,-73.61 -18.77,-74.07 -17.6,-74.48 -16.55,-74.83 -15.58,-75.16 -14.65,-75.47 -13.74,-75.76 -12.83,-76.04 -11.95,-76.29 -11.13,-76.5 -10.43,-76.67 -9.89,-76.79 -9.56,-76.85 -9.46,-76.85 -9.62,-76.77 -10.02,-76.63 -10.62,-76.43 -11.4,-76.16 -12.38,-75.84 -13.59,-75.46 -15.12,-75.02 -17.08,-74.51" fill="none" stroke="rgb(0, 0, 0)" stroke-width="2" stroke-linejoin="round" filter="url(#fuzzy)" /><polyline points="50.17,-45.53 50.43,-45.28 50.87,-44.48 51.26,-43.71 51.6,-43.01 51.91,-42.37 52.16,-41.78 52.35,-41.28 52.47,-40.89 52.49,-40.62 52.39,-40.53 52.14,-40.65 51.73,-41.03 51.14,-41.69 50.36,-42.67 49.37,-43.98 48.17,-45.62 46.77,-47.59 45.2,-49.89 43.44,-52.5 41.5,-55.43 39.42,-58.62" fill="none" stroke="rgb(0, 0, 0)" stroke-width="2" stroke-linejoin="round" filter="url(#fuzzy)" /><polyline points="32.63,-66.14 33.84,-65.25 34.82,-64.37 35.59,-63.65 36.09,-63.15 36.32,-62.9 36.27,-62.84 35.97,-62.96 35.41,-63.23 34.63,-63.64 33.6,-64.21 32.26,-65.01 30.5,-66.13 28.2,-67.65 25.34,-69.57 22.04,-71.75" fill="none" stroke="rgb(0, 0, 0)" stroke-width="2" stroke-linejoin="round" filter="url(#fuzzy)" /><polyline points="-21.03,-73.38 -20.99,-73.07 -19.13,-73.06 -16.62,-72.89 -13.78,-72.43 -10.6,-71.7 -7.07,-70.75 -3.17,-69.62 1.1,-68.35 5.72,-66.96 10.68,-65.47 15.92,-63.85 21.4,-62.08 27.07,-60.16 32.85,-58.16 38.64,-56.19" fill="none" stroke="rgb(0, 0, 0)" stroke-width="2" stroke-linejoin="round" filter="url(#fuzzy)" /><polyline points="-31.7,-66.91 -30.81,-67.37 -29.69,-67.69 -28.11,-68.07 -26.09,-68.53 -23.7,-69.06 -21.01,-69.62 -18.06,-70.21 -14.88,-70.79 -11.51,-71.35 -8.02,-71.89 -4.47,-72.4 -0.93,-72.88 2.6,-73.34 6.15,-73.79 9.63,-74.25 12.78,-74.77" fill="none" stroke="rgb(0, 0, 0)" stroke-width="2" stroke-linejoin="round" filter="url(#fuzzy)" /><polyline points="31.54,-66.92 32.2,-66.46 32.71,-65.97 33.15,-65.4 33.4,-64.83 33.37,-64.36 33,-64.06 32.26,-63.92 31.15,-63.93 29.68,-64.04 27.85,-64.22 25.68,-64.46 23.14,-64.76 20.23,-65.15 16.91,-65.67 13.16,-66.35 8.97,-67.19 4.33,-68.18 -0.78,-69.31 -6.38,-70.62 -12.6,-72.14" fill="none" stroke="rgb(0, 0, 0)" stroke-width="2" stroke-linejoin="round" filter="url(#fuzzy)" /><polyline points="50.17,-45.53 50.31,-45.32 50.37,-44.65 50.13,-44.08 49.6,-43.61 48.78,-43.22 47.65,-42.9 46.2,-42.66 44.44,-42.49 42.34,-42.41 39.88,-42.43 37.03,-42.59 33.77,-42.9 30.09,-43.38 25.95,-44.01 21.37,-44.78 16.35,-45.71 10.9,-46.82 5.04,-48.12 -1.26,-49.61 -8.04,-51.26 -15.32,-53.04 -23.08,-54.96 -31.22,-57.1" fill="none" stroke="rgb(0, 0, 0)" stroke-width="2" stroke-linejoin="round" filter="url(#fuzzy)" /><polyline points="41.41,-57.7 42.18,-56.67 41.97,-56.22 41.35,-55.66 40.37,-54.93 38.93,-54.14 36.93,-53.41 34.33,-52.77 31.12,-52.18 27.3,-51.62 22.86,-51.05 17.77,-50.51 12.01,-50.02 5.54,-49.6 -1.65,-49.29 -9.54,-49.09 -18.12,-48.98 -27.41,-48.88 -37.47,-48.77" fill="none" stroke="rgb(0, 0, 0)" stroke-width="2" stroke-linejoin="round" filter="url(#fuzzy)" /><polyline points="53.15,-39.93 54.01,-38.2 54.5,-36.94 54.76,-36.08 54.85,-35.54 54.77,-35.3 54.51,-35.36 54.07,-35.7 53.44,-36.33 52.6,-37.29 51.54,-38.61 50.21,-40.34 48.58,-42.56 46.61,-45.31 44.26,-48.61 41.55,-52.43 38.52,-56.73 35.22,-61.5" fill="none" stroke="rgb(0, 0, 0)" stroke-width="2" stroke-linejoin="round" filter="url(#fuzzy)" /><polyline points="-14.73,-75.74 -12.68,-76.12 -10.84,-76.06 -8.76,-75.74 -6.31,-75.24 -3.56,-74.57 -0.61,-73.75 2.49,-72.77 5.76,-71.64 9.23,-70.39 12.94,-69.06 16.84,-67.68 20.86,-66.26 24.93,-64.77 29.02,-63.19 33.04,-61.56 36.8,-60.16" fill="none" stroke="rgb(0, 0, 0)" stroke-width="2" stroke-linejoin="round" filter="url(#fuzzy)" /><polyline points="-15.94,-75.2 -15.3,-75.41 -14.61,-75.62 -13.72,-75.89 -12.7,-76.18 -11.67,-76.44 -10.73,-76.65 -9.91,-76.8 -9.29,-76.91 -8.91,-76.94 -8.81,-76.91 -8.98,-76.81 -9.38,-76.63 -10,-76.39 -10.87,-76.06 -12.11,-75.64 -13.84,-75.1 -16.19,-74.42 -18.98,-73.67" fill="none" stroke="rgb(0, 0, 0)" stroke-width="2" stroke-linejoin="round" filter="url(#fuzzy)" /><polyline points="2.23,-77.98 2.71,-77.77 3.46,-77.68 4.18,-77.6 4.82,-77.5 5.35,-77.36 5.73,-77.2 5.92,-77 5.88,-76.78 5.58,-76.56 5.01,-76.31 4.17,-76.06 3.05,-75.77 1.62,-75.45 -0.17,-75.07 -2.34,-74.65 -4.94,-74.17 -7.95,-73.68 -11.35,-73.19 -15.12,-72.73 -19.34,-72.27" fill="none" stroke="rgb(0, 0, 0)" stroke-width="2" stroke-linejoin="round" filter="url(#fuzzy)" /><polyline points="49.07,-47.38 49.61,-46.32 49.5,-45.81 48.88,-45.54 47.72,-45.53 46.03,-45.79 43.81,-46.29 41.04,-47.04 37.7,-48.05 33.77,-49.34 29.2,-50.91 23.94,-52.78 17.92,-54.97 11.1,-57.53 3.52,-60.52 -4.74,-63.96 -13.6,-67.9" fill="none" stroke="rgb(0, 0, 0)" stroke-width="2" stroke-linejoin="round" filter="url(#fuzzy)" /><polyline points="27.09,-70.24 27.71,-69.54 28.12,-69.22 28.31,-69.02 28.29,-68.85 28.02,-68.73 27.45,-68.69 26.53,-68.76 25.25,-68.97 23.59,-69.31 21.49,-69.79 18.87,-70.46 15.6,-71.38 11.57,-72.57 6.72,-74.04 1.02,-75.72" fill="none" stroke="rgb(0, 0, 0)" stroke-width="2" stroke-linejoin="round" filter="url(#fuzzy)" /><polyline points="24.85,-71.12 26.39,-70.34 27.15,-69.79 27.42,-69.51 27.31,-69.39 26.88,-69.35 26.11,-69.4 24.97,-69.56 23.4,-69.87 21.37,-70.33 18.81,-70.96 15.65,-71.77 11.75,-72.8 6.97,-74.1 1.2,-75.71" fill="none" stroke="rgb(0, 0, 0)" stroke-width="2" stroke-linejoin="round" filter="url(#fuzzy)" /><polyline points="48.28,-48.85 49.02,-47.53 49.57,-46.57 49.91,-45.88 50.06,-45.41 50.04,-45.12 49.84,-45 49.48,-45.06 48.93,-45.29 48.17,-45.73 47.2,-46.38 45.99,-47.26 44.53,-48.39 42.81,-49.82 40.78,-51.59 38.42,-53.74 35.68,-56.29 32.56,-59.23 29.05,-62.56 25.14,-66.29 20.61,-70.55" fill="none" stroke="rgb(0, 0, 0)" stroke-width="2" stroke-linejoin="round" filter="url(#fuzzy)" /><polyline points="29.08,-68.69 30.61,-67.71 31.39,-67.11 31.91,-66.63 32.35,-66.16 32.71,-65.69 32.93,-65.25 32.95,-64.91 32.7,-64.7 32.18,-64.64 31.38,-64.73 30.32,-64.93 29.03,-65.23 27.5,-65.6 25.72,-66.06 23.62,-66.64 21.16,-67.36 18.27,-68.25 14.93,-69.31 11.19,-70.53 7.13,-71.91 2.87,-73.5 -1.58,-75.31" fill="none" stroke="rgb(0, 0, 0)" stroke-width="2" stroke-linejoin="round" filter="url(#fuzzy)" /><polyline points="17.54,-74.57 18.15,-74.29 18.61,-73.93 18.88,-73.51 18.89,-73 18.53,-72.44 17.75,-71.86 16.56,-71.22 14.97,-70.51 13.02,-69.72 10.67,-68.86 7.89,-67.96 4.6,-67.02 0.76,-66.04 -3.63,-64.98 -8.59,-63.82 -14.12,-62.57 -20.26,-61.21 -27.07,-59.72 -34.46,-58.15" fill="none" stroke="rgb(0, 0, 0)" stroke-width="2" stroke-linejoin="round" filter="url(#fuzzy)" /><polyline points="-3.28,-77.75 -1.31,-77.76 -0.38,-77.7 0.14,-77.59 0.39,-77.39 0.41,-77.09 0.25,-76.69 -0.06,-76.19 -0.54,-75.58 -1.21,-74.85 -2.09,-73.99 -3.24,-72.99 -4.67,-71.85 -6.43,-70.58 -8.53,-69.16 -10.99,-67.6 -13.8,-65.9 -16.95,-64.04 -20.45,-62.01 -24.31,-59.81 -28.57,-57.44 -33.24,-54.9 -38.31,-52.24 -43.86,-49.32" fill="none" stroke="rgb(0, 0, 0)" stroke-width="2" stroke-linejoin="round" filter="url(#fuzzy)" /><polyline points="44.55,-54.21 45.06,-53.29 45.69,-52.4 46.25,-51.65 46.74,-50.96 47.2,-50.26 47.61,-49.57 47.95,-48.95 48.16,-48.48 48.23,-48.18 48.13,-48.08 47.85,-48.21 47.38,-48.55 46.7,-49.13 45.83,-49.94 44.75,-50.99 43.47,-52.28 41.98,-53.81 40.27,-55.61 38.3,-57.72 36.06,-60.16 33.58,-62.91 30.87,-65.92" fill="none" stroke="rgb(0, 0, 0)" stroke-width="2" stroke-linejoin="round" filter="url(#fuzzy)" /><polyline points="-15.19,-75.52 -14.66,-75.58 -13.66,-75.83 -12.35,-76.12 -10.92,-76.36 -9.43,-76.56 -7.92,-76.73 -6.43,-76.88 -5.03,-77.01 -3.71,-77.12 -2.47,-77.2 -1.27,-77.26 -0.09,-77.32 1.05,-77.36 2.09,-77.4 2.98,-77.44 3.65,-77.48 4.07,-77.53 4.26,-77.57 4.24,-77.61 4.02,-77.64 3.64,-77.68 3.12,-77.72 2.54,-77.77" fill="none" stroke="rgb(0, 0, 0)" stroke-width="2" stroke-linejoin="round" filter="url(#fuzzy)" /><polyline points="-26.52,-70.3 -24.49,-71.16 -22.38,-71.46 -19.99,-71.35 -17.11,-70.98 -13.64,-70.44 -9.58,-69.76 -5.03,-68.91 -0.1,-67.9 5.11,-66.74 10.56,-65.49 16.25,-64.15 22.22,-62.69 28.52,-61.01 35.15,-59.14" fill="none" stroke="rgb(0, 0, 0)" stroke-width="2" stroke-linejoin="round" filter="url(#fuzzy)" /><polyline points="-14.73,-75.74 -12.76,-76.19 -11.2,-76.31 -9.58,-76.29 -7.75,-76.18 -5.79,-75.99 -3.76,-75.72 -1.71,-75.37 0.4,-74.96 2.62,-74.49 4.98,-73.97 7.47,-73.41 10.03,-72.8 12.58,-72.17 15.07,-71.52 17.43,-70.88 19.65,-70.29 21.74,-69.76 23.72,-69.29 25.63,-68.84 27.53,-68.36 29.44,-67.85" fill="none" stroke="rgb(0, 0, 0)" stroke-width="2" stroke-linejoin="round" filter="url(#fuzzy)" /><polyline points="38.13,-61.34 38.62,-61.01 39.11,-60.42 39.69,-59.72 40.33,-58.98 40.95,-58.27 41.46,-57.7 41.79,-57.3 41.95,-57.05 41.94,-56.96 41.71,-57.08 41.19,-57.49 40.33,-58.27 39.1,-59.44 37.54,-60.94 35.71,-62.73 33.65,-64.82" fill="none" stroke="rgb(0, 0, 0)" stroke-width="2" stroke-linejoin="round" filter="url(#fuzzy)" /><polyline points="31.54,-66.92 32.34,-66.34 33.31,-65.49 34.51,-64.35 35.85,-63.02 37.2,-61.62 38.5,-60.26 39.69,-58.97 40.79,-57.78 41.79,-56.69 42.69,-55.7 43.5,-54.82 44.2,-54.06 44.8,-53.41 45.24,-52.93 45.33,-52.82" fill="none" stroke="rgb(0, 0, 0)" stroke-width="2" stroke-linejoin="round" filter="url(#fuzzy)" /><polyline points="13.31,-76.03 13.92,-75.81 14.41,-75.54 14.72,-75.17 14.79,-74.74 14.54,-74.26 13.89,-73.76 12.81,-73.22 11.28,-72.64 9.24,-72.03 6.69,-71.39 3.59,-70.73 -0.03,-70.03 -4.16,-69.29 -8.87,-68.44 -14.29,-67.46 -20.59,-66.28 -27.84,-64.89" fill="none" stroke="rgb(0, 0, 0)" stroke-width="2" stroke-linejoin="round" filter="url(#fuzzy)" /><polyline points="-34.69,-64.33 -33.22,-65.57 -31.85,-66.56 -30.6,-67.32 -29.38,-67.98 -28.09,-68.62 -26.71,-69.3 -25.26,-70.03 -23.77,-70.78 -22.26,-71.54 -20.75,-72.29 -19.28,-73.01 -17.9,-73.66 -16.68,-74.24 -15.68,-74.73 -14.89,-75.14 -14.32,-75.46 -13.99,-75.7 -13.99,-75.79 -14.42,-75.67" fill="none" stroke="rgb(0, 0, 0)" stroke-width="2" stroke-linejoin="round" filter="url(#fuzzy)" /><polyline points="28.55,-68.99 29.22,-68.71 29.95,-68.21 30.8,-67.57 31.65,-66.92 32.49,-66.26 33.32,-65.59 34.12,-64.92 34.87,-64.28 35.5,-63.73 35.96,-63.31 36.25,-63.05 36.34,-62.93 36.27,-62.94 36.03,-63.06 35.64,-63.28 35.09,-63.61 34.35,-64.08 33.37,-64.75 32.06,-65.67 30.36,-66.89 28.27,-68.41 25.88,-70.17" fill="none" stroke="rgb(0, 0, 0)" stroke-width="2" stroke-linejoin="round" filter="url(#fuzzy)" /><polyline points="4.15,-77.65 4.57,-77.62 5.46,-77.53 6.44,-77.39 7.42,-77.24 8.34,-77.07 9.16,-76.91 9.87,-76.76 10.44,-76.63 10.9,-76.51 11.24,-76.39 11.46,-76.27 11.55,-76.15 11.49,-76.03 11.23,-75.93 10.73,-75.86 9.94,-75.81 8.82,-75.81 7.35,-75.84 5.55,-75.93 3.45,-76.08 1.13,-76.3 -1.41,-76.58 -4.33,-76.89" fill="none" stroke="rgb(0, 0, 0)" stroke-width="2" stroke-linejoin="round" filter="url(#fuzzy)" /><polyline points="55.14,-35.49 55.54,-34.28 55.66,-33.52 55.52,-33.06 55.14,-32.81 54.52,-32.77 53.63,-32.97 52.44,-33.47 50.93,-34.29 49.08,-35.43 46.9,-36.91 44.37,-38.68 41.49,-40.75 38.28,-43.14 34.71,-45.89 30.79,-49.05 26.48,-52.69 21.77,-56.78 16.61,-61.31 10.93,-66.28 4.54,-71.75" fill="none" stroke="rgb(0, 0, 0)" stroke-width="2" stroke-linejoin="round" filter="url(#fuzzy)" /><polyline points="42.55,-56.53 43.12,-55.83 43.96,-54.73 44.72,-53.7 45.34,-52.84 45.81,-52.16 46.18,-51.58 46.44,-51.08 46.6,-50.66 46.63,-50.35 46.51,-50.21 46.2,-50.26 45.7,-50.53 44.99,-51.02 44.06,-51.74 42.93,-52.68 41.56,-53.85 39.94,-55.26 38.06,-56.94 35.91,-58.88 33.52,-61.08 30.94,-63.54 28.18,-66.28 25.09,-69.41" fill="none" stroke="rgb(0, 0, 0)" stroke-width="2" stroke-linejoin="round" filter="url(#fuzzy)" /><polyline points="55.14,-35.49 55.58,-34.29 55.81,-33.54 55.87,-33.15 55.74,-33.03 55.43,-33.19 54.89,-33.73 54.08,-34.74 52.97,-36.26 51.56,-38.33 49.85,-40.96 47.83,-44.14 45.51,-47.85 42.89,-52.09 39.93,-57.02" fill="none" stroke="rgb(0, 0, 0)" stroke-width="2" stroke-linejoin="round" filter="url(#fuzzy)" /><polyline points="-0.41,-77.71 0.76,-77.83 1.45,-77.82 1.92,-77.75 2.31,-77.66 2.67,-77.54 2.97,-77.39 3.17,-77.19 3.23,-76.94 3.12,-76.65 2.81,-76.3 2.25,-75.91 1.42,-75.46 0.29,-74.97 -1.12,-74.41 -2.83,-73.79 -4.84,-73.09 -7.14,-72.33 -9.76,-71.52 -12.7,-70.66 -16,-69.76 -19.72,-68.79 -23.98,-67.66 -28.95,-66.21" fill="none" stroke="rgb(0, 0, 0)" stroke-width="2" stroke-linejoin="round" filter="url(#fuzzy)" /><polyline points="-26.52,-70.3 -24.8,-71.29 -23.66,-71.94 -22.87,-72.36 -22.2,-72.68 -21.57,-72.95 -20.98,-73.16 -20.51,-73.29 -20.26,-73.29 -20.28,-73.16 -20.59,-72.89 -21.2,-72.46 -22.1,-71.89 -23.33,-71.11 -24.95,-70.07 -27.07,-68.71 -29.73,-67 -32.81,-65.08" fill="none" stroke="rgb(0, 0, 0)" stroke-width="2" stroke-linejoin="round" filter="url(#fuzzy)" /><polyline points="13.87,-75.8 8.15,-75.11 2.08,-71.55 3.22,-66.07 6.6,-61.19 7.37,-58.63 4.99,-58.44 1.57,-59.55 -0.34,-60.81 0.93,-61.54 5.74,-61.52 13.15,-60.68 21.25,-59.01 27.86,-56.56 31.16,-53.7 30.28,-51.07 25.74,-49.33 19.56,-48.88 14.89,-49.88 15.03,-52.45 22.1,-55.87 35.08,-56.25 51.3,-43.36" fill="none" stroke="rgb(0, 0, 0)" stroke-width="2" stroke-linejoin="round" filter="url(#fuzzy)" /><polyline points="52.65,-41.21 11.73,-59.04 8.87,-59.08 19.42,-56.08 28.06,-54.88 30.68,-56.04 28.92,-58.55 26,-60.94 24.35,-62.1 24.59,-61.68 25.93,-60.17 26.98,-58.44 26.54,-57.29 24,-57.23 19.39,-58.44 13.49,-60.83 7.82,-64.05 4.2,-67.42 4.01,-69.99 7.47,-70.8 13.69,-69.17 21.23,-65.17 28.42,-59.81 34.91,-53.35 56.2,-32.39" fill="none" stroke="rgb(0, 0, 0)" stroke-width="2" stroke-linejoin="round" filter="url(#fuzzy)" /><polyline points="-0.41,-77.71 -2.29,-73.84 5.59,-64.95 11.45,-56.6 15.4,-51.51 18.62,-49.36 20.35,-49.35 19.38,-50.96 15.71,-53.71 10.63,-56.86 5.72,-59.65 1.87,-61.66 -0.61,-62.95 -1.46,-63.76 -0.14,-64.19 3.72,-64.12 9.39,-63.62 14.76,-63.25 17.27,-63.82 15.98,-65.35 13.09,-66.26 12.41,-64.39 12.15,-61.72 -15.94,-75.2" fill="none" stroke="rgb(0, 0, 0)" stroke-width="2" stroke-linejoin="round" filter="url(#fuzzy)" /><polyline points="-35.32,-64.02 13.08,-55.65 21.06,-54.25 21.45,-54.5 24.15,-54.83 27.25,-55.92 27.97,-58.03 25.69,-60.46 21.23,-62.34 15.45,-63.42 8.58,-64.19 1.23,-65.33 -3.68,-67.01 -1.11,-68.84 8.09,-70.98 -0.41,-77.71" fill="none" stroke="rgb(0, 0, 0)" stroke-width="2" stroke-linejoin="round" filter="url(#fuzzy)" /><polyline points="-30.37,-67.64 -1.86,-71.29 7.17,-68.87 6.63,-64.7 1.4,-61.68 -4.25,-60.36 -6.27,-59.8 -3.05,-59.25 4.25,-58.55 13.36,-57.61 21.97,-56.32 26.98,-55.38 23.97,-56.92 10.45,-62.68 -6.27,-70.44 -0.41,-77.71" fill="none" stroke="rgb(0, 0, 0)" stroke-width="2" stroke-linejoin="round" filter="url(#fuzzy)" /><polyline points="-12.25,-76.48 26.8,-54.06 28.73,-49.83 14.25,-53.33 -0.02,-58.48 -6.9,-63 -6.52,-65.8 -1.95,-66.29 3.8,-64.58 8.89,-61.54 12.53,-58.52 14.38,-56.81 14.11,-57.21 11.68,-59.77 8.11,-63.69 5.88,-67.5 7.98,-69.56 15.47,-69.05 25.11,-67.09 29.61,-67.09 24.12,-71.64" fill="none" stroke="rgb(0, 0, 0)" stroke-width="2" stroke-linejoin="round" filter="url(#fuzzy)" /><polyline points="-18.38,-74.39 0.62,-71.81 8.21,-65.15 7.61,-60.68 1.41,-59.32 -3.47,-59.03 -2.32,-58.09 4.6,-56.16 13.73,-53.91 21.34,-52.31 25.66,-51.99 27.03,-53.02 26.92,-55.02 26.72,-57.35 27.12,-59.38 27.99,-60.65 28.29,-61.17 26.08,-61.61 18.96,-63.25 5.71,-67.25 -10.97,-71.84 -27.46,-69.57" fill="none" stroke="rgb(0, 0, 0)" stroke-width="2" stroke-linejoin="round" filter="url(#fuzzy)" /><polyline points="-31.7,-66.91 5.85,-67.91 18.23,-67.63 19.31,-67.08 14.67,-65.82 7.57,-64.2 0.87,-62.87 -3.99,-62.38 -6.98,-62.93 -8.23,-64.29 -7.23,-65.9 -3.35,-67.16 3.18,-67.63 10.81,-67.27 17.1,-66.36 19.68,-65.39 16.94,-64.74 8.53,-64.41 -3.37,-63.59 -11.56,-59.77 -0.77,-48.4 58.72,-24.7" fill="none" stroke="rgb(0, 0, 0)" stroke-width="2" stroke-linejoin="round" filter="url(#fuzzy)" /><polyline points="-14.73,-75.74 -31.69,-60.64 -25.6,-61.39 -14.39,-65.76 -6.39,-68.01 -3.01,-67.11 -2.22,-64.17 -1.23,-60.58 1.49,-57.3 5.36,-54.93 8.52,-53.93 9.23,-54.54 6.92,-56.61 2.55,-59.58 -1.61,-62.76 -2.84,-65.61 0.4,-67.79 7.06,-68.68 13.64,-66.96 15.97,-60.98 6.87,-51.59 -45.46,-52.96" fill="none" stroke="rgb(0, 0, 0)" stroke-width="2" stroke-linejoin="round" filter="url(#fuzzy)" /><polyline points="-3.28,-77.75 18.45,-65.17 20.45,-57.76 17.34,-57.32 15.68,-59.91 14.98,-62.43 12.89,-63.76 8.11,-64.19 1.51,-64.48 -4.31,-65.12 -6.63,-66.07 -4.33,-66.94 1.66,-67.23 9.15,-66.66 15.91,-65.5 20.26,-64.79 21.2,-65.52 20.2,-66.25 26.04,-59.67 56.79,-31" fill="none" stroke="rgb(0, 0, 0)" stroke-width="2" stroke-linejoin="round" filter="url(#fuzzy)" /><polyline points="-47.31,-50.51 -35.61,-57.28 -18.79,-63.1 -7.86,-65.43 -3.33,-66.03 -2.69,-66.22 -3.47,-66.49 -4.3,-66.78 -5.02,-66.85 -5.87,-66.47 -6.72,-65.67 -7.04,-64.69 -6.52,-63.9 -5.51,-63.6 -4.91,-63.82 -5.53,-64.37 -7.51,-64.89 -9.98,-65.02 -11.13,-64.54 -8.93,-63.58 -2.9,-62.87 3.98,-63.71 6.34,-67.22 5.28,-71.93 23.35,-72.17" fill="none" stroke="rgb(0, 0, 0)" stroke-width="2" stroke-linejoin="round" filter="url(#fuzzy)" /><polyline points="-3.32,-77.85 -6.69,-76.06 -9.18,-72.21 -7.22,-67.25 0.63,-62.49 8.74,-59.36 11.59,-58.78 8.6,-60.52 3.32,-63.37 -0.04,-65.72 1.09,-66.18 7.11,-64.08 15.25,-60.32 17.1,-57.91 -0.98,-59.47 -44.89,-53.87" fill="none" stroke="rgb(0, 0, 0)" stroke-width="2" stroke-linejoin="round" filter="url(#fuzzy)" /><polyline points="-35.93,-63.29 -5.84,-70.76 3.21,-71.96 5.98,-69.35 4.33,-65.71 0.15,-62.61 -4.52,-60.73 -8.61,-60.32 -11.75,-61.26 -13.73,-63.1 -14.3,-65.13 -13.21,-66.6 -10.29,-67.04 -5.64,-66.46 0.12,-65.41 5.65,-64.85 9.2,-65.77 9.37,-68.51 6.32,-72.16 2.33,-74.78 -1.4,-75.11 -17.48,-74.6" fill="none" stroke="rgb(0, 0, 0)" stroke-width="2" stroke-linejoin="round" filter="url(#fuzzy)" /><polyline points="-28.66,-69.03 -18.52,-69.41 -10.2,-70.09 -9.49,-69.56 -11.22,-68.69 -12.36,-68.19 -11.92,-68.33 -9.97,-69.17 -7.62,-70.47 -6.38,-71.68 -7.22,-72.19 -9.9,-71.57 -13.22,-69.65 -15.89,-66.4 -16.79,-61.65 -13.5,-55.26 -0.16,-47.82 28.36,-41.81 50.17,-45.53" fill="none" stroke="rgb(0, 0, 0)" stroke-width="2" stroke-linejoin="round" filter="url(#fuzzy)" /><polyline points="4.15,-77.65 -14.4,-67.24 -9.32,-69.46 -6.41,-72.24 -8.03,-73.65 -10.98,-74.18 -12.69,-74.53 -12.4,-74.99 -10.55,-75.55 -7.99,-76 -5.6,-76.13 -4.01,-75.77 -3.48,-74.81 -3.66,-73.24 -3.61,-71.14 -2.1,-68.71 1.7,-66.26 7.52,-64.27 13.69,-63.29 17.73,-63.65 17.68,-65.05 13.64,-66.3 8.22,-66.14 2.52,-65.36 -26.52,-70.3" fill="none" stroke="rgb(0, 0, 0)" stroke-width="2" stroke-linejoin="round" filter="url(#fuzzy)" /><polyline points="46.35,-51.81 33.91,-50.86 19.6,-59.46 15.73,-65.56 17.1,-67.82 19.58,-67.35 21.19,-65.75 21.13,-64.34 19.28,-63.84 15.86,-64.3 11.29,-65.44 6.19,-66.89 1.63,-68.35 -1.05,-69.53 -1.01,-70.15 1.25,-69.99 3.59,-69.12 2.96,-68.14 -2.96,-67.83 -14.12,-67.63 -28.69,-64.25 -43.7,-55.1" fill="none" stroke="rgb(0, 0, 0)" stroke-width="2" stroke-linejoin="round" filter="url(#fuzzy)" /><polyline points="-22.79,-72.53 0.16,-63.11 -0.5,-61.47 4.32,-60.69 12.1,-59.09 17.17,-57.35 17.03,-56.43 12.55,-56.63 6.59,-57.5 2.02,-58.4 0.26,-59.11 1.21,-59.68 4.22,-59.88 8.63,-58.83 13.14,-55.81 15.07,-51.76 12.17,-49.65 3.67,-52.28 -35.32,-64.02" fill="none" stroke="rgb(0, 0, 0)" stroke-width="2" stroke-linejoin="round" filter="url(#fuzzy)" /><polyline points="-3.28,-77.75 11.96,-70.73 23.32,-65.25 26.26,-64.26 25.82,-64.4 25.64,-63.91 25.81,-62.99 24.71,-62.44 21.57,-62.68 17.47,-63.5 14.47,-64.47 13.91,-65.48 15.23,-66.9 15.87,-69.08 12.12,-71.71 -0.09,-73.42 -24.4,-71.47" fill="none" stroke="rgb(0, 0, 0)" stroke-width="2" stroke-linejoin="round" filter="url(#fuzzy)" /><polyline points="-3.32,-77.85 27.83,-57.86 35.65,-56.33 37.83,-56.52 35.95,-57.03 29.87,-58.04 21.33,-58.85 13.42,-58.68 8.61,-57.5 7.56,-55.93 9.31,-54.71 12.37,-54.17 15.61,-54.18 18.3,-54.43 19.61,-54.8 18.46,-55.51 14.01,-56.87 6.59,-58.98 -1.76,-61.67 -7.56,-64.57 -7.39,-67.26 -0.7,-69.06 6.97,-68.74 1.67,-65.05 -40.91,-58.2" fill="none" stroke="rgb(0, 0, 0)" stroke-width="2" stroke-linejoin="round" filter="url(#fuzzy)" /><polyline points="-14.73,-75.74 -11.45,-67.93 7.68,-62.87 20.11,-61.59 23.79,-63.56 21.67,-66.4 15.76,-68.28 7.3,-68.53 -1.75,-67.22 -8.61,-64.87 -11.04,-62.18 -8.98,-59.76 -4.97,-57.97 -2.45,-56.96 -3.09,-56.8 -5.57,-57.68 -7.55,-59.77 -7.94,-62.63 -0.89,-63.99 39.53,-59.71" fill="none" stroke="rgb(0, 0, 0)" stroke-width="2" stroke-linejoin="round" filter="url(#fuzzy)" /><polyline points="1.96,-77.71 -4.57,-70.47 -12.19,-62.6 -6.11,-58.39 6.33,-56.39 16.82,-54.63 21.97,-52.68 23.01,-51.15 23.22,-50.57 24.87,-50.93 27.49,-52.17 28.78,-54.48 26.93,-57.85 21.54,-61.84 12.37,-66.12 2.17,-70.81 13.87,-75.8" fill="none" stroke="rgb(0, 0, 0)" stroke-width="2" stroke-linejoin="round" filter="url(#fuzzy)" /><polyline points="57.82,-28.52 51.62,-41.38 49.27,-44.75 44.59,-48.47 36.16,-54.12 25.39,-60.08 14.34,-64.69 4.38,-67.2 -3.97,-67.56 -10.16,-66.08 -12.77,-63.02 -9.44,-58.38 1.4,-52.47 15.74,-47.5 15.94,-49.46 -33.16,-65.72" fill="none" stroke="rgb(0, 0, 0)" stroke-width="2" stroke-linejoin="round" filter="url(#fuzzy)" /><polyline points="40.12,-59.28 9.1,-67.63 1.17,-67.86 5.02,-65.6 10.79,-62.21 15.29,-59.13 18.58,-57.24 20.8,-56.41 21.25,-56.06 19.16,-55.78 14.49,-55.72 8.22,-56.29 1.97,-57.77 -2.78,-59.9 -5.48,-62.07 -6.68,-63.99 -6.79,-65.98 -3.6,-67.68 9.69,-65.11 48.28,-48.85" fill="none" stroke="rgb(0, 0, 0)" stroke-width="2" stroke-linejoin="round" filter="url(#fuzzy)" /><polyline points="-21.03,-73.38 -4.99,-67.22 8.38,-62.44 5.05,-61.53 -6,-62.21 -15.16,-63.24 -18.28,-64.17 -15.79,-64.54 -10.09,-63.94 -3.63,-62.54 1.89,-61.25 5.44,-61.15 6.76,-62.52 6.53,-64.26 6.01,-64.58 5.55,-62.68 3.57,-60.46 -0.83,-62.04 0.1,-68.85 24.12,-71.64" fill="none" stroke="rgb(0, 0, 0)" stroke-width="2" stroke-linejoin="round" filter="url(#fuzzy)" /><polyline points="-30.37,-67.64 5.82,-62.78 17.74,-60.53 27.15,-56.69 31.74,-54.08 29.89,-54.04 24.13,-55.72 18.15,-57.55 13.9,-58.49 10.92,-58.54 7.91,-58.41 4.51,-58.98 1.83,-60.64 1.28,-62.85 2.36,-64.55 1.89,-65.25 -2.1,-65.98 -0.65,-67.47 32.63,-66.14" fill="none" stroke="rgb(0, 0, 0)" stroke-width="2" stroke-linejoin="round" filter="url(#fuzzy)" /><polyline points="53.15,-39.93 1.4,-57.87 -10.36,-61.6 -4.76,-59.9 3.48,-58.54 8.72,-58.89 11.3,-59.7 13.39,-59.64 16.3,-58.39 19.6,-56.63 21.62,-55.62 21.17,-56.44 20.12,-58.93 23.72,-60.87 33.28,-60.55 32.46,-66.34" fill="none" stroke="rgb(0, 0, 0)" stroke-width="2" stroke-linejoin="round" filter="url(#fuzzy)" /><polyline points="38.68,-61.21 42.91,-50.18 28.05,-53.52 7.89,-57.13 -7.21,-59.8 -14.51,-62.68 -16.14,-65.85 -14.91,-68.69 -12.45,-70.69 -9.54,-71.74 -6.85,-71.94 -5.06,-71.44 -4.35,-70.37 -4.12,-68.87 -3.42,-67.06 -2.07,-65.09 -1.23,-63.16 -2.59,-61.67 -6.21,-61.19 -8.89,-62.27 -5.7,-65.11 4.31,-69.25 13.09,-73.62 13.31,-76.03" fill="none" stroke="rgb(0, 0, 0)" stroke-width="2" stroke-linejoin="round" filter="url(#fuzzy)" /><polyline points="37.03,-62.34 43.41,-49.46 32.35,-54.23 17.35,-59.29 4.02,-61.21 -7.27,-61.19 -16.79,-60.87 -24.12,-61.04 -29.02,-61.68 -31.82,-62.3 -33.02,-62.57 -32.42,-62.55 -28.99,-62.45 -21.43,-62.1 -9.5,-60.59 4.35,-56.71 13.39,-50.54 7.13,-45.14 -21.23,-45.28 -49.3,-47.46" fill="none" stroke="rgb(0, 0, 0)" stroke-width="2" stroke-linejoin="round" filter="url(#fuzzy)" /><polyline points="-26.52,-70.3 17.49,-59.57 28.09,-59.36 27.11,-61.39 23.21,-63.35 19.94,-63.88 18.77,-62.46 19.91,-59.4 22.25,-55.6 23.84,-52.33 23.1,-50.83 19.99,-51.89 16.15,-55.39 13.64,-60.19 13.21,-64.76 13.53,-68 12.1,-69.78 6.81,-70.58 -2.84,-70.88 -12.71,-71.54 -3.28,-77.75" fill="none" stroke="rgb(0, 0, 0)" stroke-width="2" stroke-linejoin="round" filter="url(#fuzzy)" /><polyline points="34.17,-65.23 16.95,-66.3 20.96,-62.08 22.87,-57.75 21.52,-55.08 19.89,-54.82 19.75,-56.33 20.97,-58.46 22.31,-60.46 22.21,-62.21 19.48,-63.85 13.89,-65.43 6.27,-66.78 -1.83,-67.65 -8.8,-67.86 -13.6,-67.31 -15.89,-65.94 -15.55,-63.78 -12.27,-61.2 -5.79,-59.05 3.02,-58.4 11.29,-59.71 14.42,-61.94 4.01,-62.51 -40.91,-58.2" fill="none" stroke="rgb(0, 0, 0)" stroke-width="2" stroke-linejoin="round" filter="url(#fuzzy)" /><polyline points="-11.34,-76.6 1.87,-67.39 2.65,-59.99 1.16,-58.03 -2.83,-59.35 -6.64,-60.82 -8.2,-61.07 -7.49,-60.46 -5.4,-59.84 -2.29,-59.65 2.1,-59.72 8.01,-59.76 15.11,-59.74 22.13,-60.03 25.31,-61.99 16.81,-68.35 -7.87,-77.28" fill="none" stroke="rgb(0, 0, 0)" stroke-width="2" stroke-linejoin="round" filter="url(#fuzzy)" /><polyline points="32.63,-66.14 30.16,-57.14 16.41,-61.87 12.69,-64.37 16.7,-63.45 21.89,-61.15 24.2,-59.27 22.76,-58.59 19.09,-58.71 15.69,-58.68 14.41,-57.81 15.43,-56.2 17.68,-54.67 20.17,-54.18 22.7,-55.25 25.57,-57.52 28.9,-59.6 33.26,-59.29 40.33,-55.05 46.35,-51.81" fill="none" stroke="rgb(0, 0, 0)" stroke-width="2" stroke-linejoin="round" filter="url(#fuzzy)" /><polyline points="-28.66,-69.03 13.34,-63.03 34.09,-54.73 41.46,-49.95 40.08,-49.25 33.39,-51.41 24.65,-54.35 16.46,-56.52 10.23,-57.67 6.3,-58.48 4.49,-59.56 4.42,-60.86 5.68,-61.78 7.58,-61.81 8.9,-60.95 7.79,-59.71 3.05,-58.46 -3.02,-56.71 -3.7,-53.77 1.91,-52.93 -26.52,-70.3" fill="none" stroke="rgb(0, 0, 0)" stroke-width="2" stroke-linejoin="round" filter="url(#fuzzy)" /><polyline points="39.06,-60.46 34.11,-55.3 21.2,-58.42 9.64,-60.49 0.82,-61.65 -4.73,-62.9 -7.74,-64.62 -8.84,-66.62 -7.95,-68.5 -4.75,-69.87 0.58,-70.41 7.26,-69.87 14.31,-68.11 20.81,-65.28 25.8,-61.88 28,-58.7 25.88,-56.72 18.46,-56.77 6.73,-59.24 -5.36,-63.66 -13.06,-68.36 -18.65,-69.79 -38.58,-60.77" fill="none" stroke="rgb(0, 0, 0)" stroke-width="2" stroke-linejoin="round" filter="url(#fuzzy)" />
    </g>
    
        <g id="lineNose">
        <path d="M -7.41,22.080000000000002 Q 9.64, 23.94 1.1150000000000002, -4.04" fill="none" stroke="black" stroke-width="3" stroke-linejoin="round" filter="url(#fuzzy)"></path>
        </g>
      
    <g id="mouth">
      <polyline points="-8.69,38.26 -8.65,38.16 -8.61,38.04 -8.56,37.92 -8.51,37.8 -8.45,37.66 -8.39,37.52 -8.32,37.37 -8.25,37.22 -8.17,37.06 -8.09,36.89 -8,36.72 -7.91,36.55 -7.82,36.37 -7.72,36.18 -7.61,36 -7.5,35.8 -7.39,35.61 -7.27,35.41 -7.15,35.21 -7.03,35.01 -6.9,34.8 -6.77,34.59 -6.63,34.39 -6.49,34.18 -6.34,33.97 -6.19,33.76 -6.04,33.55 -5.89,33.34 -5.73,33.13 -5.56,32.92 -5.4,32.71 -5.23,32.51 -5.06,32.3 -4.88,32.1 -4.7,31.9 -4.52,31.7 -4.33,31.51 -4.15,31.32 -3.96,31.14 -3.76,30.95 -3.57,30.78 -3.37,30.6 -3.16,30.44 -2.96,30.27 -2.75,30.12 -2.54,29.97 -2.33,29.82 -2.12,29.68 -1.9,29.55 -1.68,29.43 -1.46,29.32 -1.23,29.21 -1.01,29.11 -0.78,29.02 -0.55,28.94 -0.32,28.86 -0.09,28.8 0.15,28.75 0.38,28.71 0.62,28.67 0.86,28.65 1.1,28.64 1.35,28.64 1.59,28.66 1.83,28.68 2.08,28.72 2.33,28.77 2.58,28.83 2.83,28.91 3.08,29 3.33,29.11 3.58,29.22 3.84,29.36 4.09,29.51 4.35,29.67 4.6,29.85 4.86,30.05 5.12,30.26 5.38,30.49 5.63,30.74 5.89,31 6.15,31.28 6.41,31.58 6.67,31.9 6.93,32.23 7.19,32.59 7.45,32.96 7.71,33.35 7.97,33.77 8.22,34.2 8.48,34.65 8.74,35.13 9,35.62 9.26,36.14 9.51,36.68 9.77,37.24 10.03,37.82 10.28,38.43 10.53,39.06 10.79,39.71 10.53,39.06 10.28,38.43 10.03,37.82 9.77,37.24 9.51,36.68 9.26,36.14 9,35.62 8.74,35.13 8.48,34.65 8.22,34.2 7.97,33.77 7.71,33.35 7.45,32.96 7.19,32.59 6.93,32.23 6.67,31.9 6.41,31.58 6.15,31.28 5.89,31 5.63,30.74 5.38,30.49 5.12,30.26 4.86,30.05 4.6,29.85 4.35,29.67 4.09,29.51 3.84,29.36 3.58,29.22 3.33,29.11 3.08,29 2.83,28.91 2.58,28.83 2.33,28.77 2.08,28.72 1.83,28.68 1.59,28.66 1.35,28.64 1.1,28.64 0.86,28.65 0.62,28.67 0.38,28.71 0.15,28.75 -0.09,28.8 -0.32,28.86 -0.55,28.94 -0.78,29.02 -1.01,29.11 -1.23,29.21 -1.46,29.32 -1.68,29.43 -1.9,29.55 -2.12,29.68 -2.33,29.82 -2.54,29.97 -2.75,30.12 -2.96,30.27 -3.16,30.44 -3.37,30.6 -3.57,30.78 -3.76,30.95 -3.96,31.14 -4.15,31.32 -4.33,31.51 -4.52,31.7 -4.7,31.9 -4.88,32.1 -5.06,32.3 -5.23,32.51 -5.4,32.71 -5.56,32.92 -5.73,33.13 -5.89,33.34 -6.04,33.55 -6.19,33.76 -6.34,33.97 -6.49,34.18 -6.63,34.39 -6.77,34.59 -6.9,34.8 -7.03,35.01 -7.15,35.21 -7.27,35.41 -7.39,35.61 -7.5,35.8 -7.61,36 -7.72,36.18 -7.82,36.37 -7.91,36.55 -8,36.72 -8.09,36.89 -8.17,37.06 -8.25,37.22 -8.32,37.37 -8.39,37.52 -8.45,37.66 -8.51,37.8 -8.56,37.92 -8.61,38.04 -8.65,38.16" fill="rgb(215,127,140)" stroke="black" stroke-width="3" stroke-linejoin="round" filter="url(#fuzzy)" />
    </g>
  </svg>
  