
  <svg viewBox="-100 -100 200 200" xmlns="http://www.w3.org/2000/svg" width="500" height="500" id="face-svg">
    <defs>
      <clipPath id="leftEyeClipPath">
        <polyline points="27.85,2.53 27.85,2.39 27.82,2.24 27.74,2.08 27.64,1.93 27.49,1.77 27.31,1.6 27.08,1.44 26.82,1.27 26.52,1.1 26.19,0.94 25.81,0.77 25.4,0.6 24.95,0.43 24.46,0.26 23.94,0.1 23.55,-0.11 23.1,-0.31 22.58,-0.51 22,-0.71 21.36,-0.91 20.65,-1.1 19.89,-1.29 19.07,-1.47 18.2,-1.65 17.28,-1.82 16.32,-1.98 15.31,-2.13 14.26,-2.28 13.18,-2.42 12.07,-2.54 10.93,-2.66 9.77,-2.77 8.59,-2.87 7.39,-2.96 6.19,-3.04 4.98,-3.11 3.76,-3.16 2.55,-3.21 1.34,-3.24 0.14,-3.27 -1.05,-3.28 -2.23,-3.28 -3.39,-3.28 -4.53,-3.26 -5.64,-3.23 -6.73,-3.2 -7.8,-3.15 -8.83,-3.1 -9.83,-3.03 -10.8,-2.96 -11.73,-2.88 -12.63,-2.8 -13.49,-2.71 -14.32,-2.61 -15.11,-2.5 -15.86,-2.39 -16.57,-2.28 -17.24,-2.17 -17.88,-2.05 -18.48,-1.92 -19.05,-1.8 -19.58,-1.68 -20.08,-1.55 -20.55,-1.43 -20.99,-1.3 -21.4,-1.18 -21.78,-1.05 -22.13,-0.93 -22.45,-0.8 -22.74,-0.68 -23.01,-0.56 -23.25,-0.43 -23.46,-0.31 -23.64,-0.2 -23.8,-0.08 -23.94,0.04 -24.05,0.15 -24.14,0.26 -24.21,0.36 -24.58,2.93 -24.22,2.93 -23.85,2.94 -23.46,2.94 -23.07,2.93 -22.66,2.93 -22.24,2.93 -21.8,2.93 -21.36,2.93 -20.9,2.92 -20.42,2.92 -19.94,2.92 -19.43,2.92 -18.92,2.91 -18.39,2.91 -17.85,2.91 -17.29,2.91 -16.72,2.91 -16.13,2.9 -15.52,2.9 -14.9,2.9 -14.26,2.91 -13.6,2.91 -12.93,2.91 -12.24,2.92 -11.53,2.93 -10.81,2.94 -10.06,2.95 -9.31,2.96 -8.54,2.98 -7.75,3 -6.95,3.02 -6.14,3.04 -5.31,3.07 -4.47,3.1 -3.62,3.13 -2.76,3.16 -1.89,3.19 -1.02,3.23 -0.14,3.27 0.75,3.31 1.64,3.35 2.54,3.39 3.43,3.43 4.33,3.48 5.23,3.52 6.12,3.56 7.01,3.61 7.89,3.65 8.77,3.69 9.64,3.73 10.49,3.77 11.34,3.81 12.18,3.85 13,3.88 13.8,3.91 14.59,3.93 15.36,3.95 16.12,3.97 16.85,3.98 17.56,3.99 18.25,3.99 18.92,3.98 19.57,3.97 20.19,3.96 20.8,3.94 21.39,3.93 21.98,3.9 22.55,3.87 23.11,3.84 23.65,3.8 24.18,3.75 24.7,3.7 25.2,3.64 25.69,3.57 26.17,3.5 26.63,3.42 27.07,3.33 27.5,3.23 27.92,3.12" />
      </clipPath>
      <clipPath id="rightEyeClipPath">
        <polyline points="-29,1.82 -29.04,1.72 -29.04,1.62 -29,1.52 -28.92,1.41 -28.8,1.3 -28.64,1.19 -28.44,1.07 -28.2,0.95 -27.92,0.84 -27.6,0.72 -27.24,0.6 -26.84,0.48 -26.4,0.36 -25.93,0.24 -25.41,0.12 -25.03,-0.02 -24.58,-0.16 -24.06,-0.3 -23.48,-0.44 -22.84,-0.58 -22.13,-0.72 -21.38,-0.86 -20.56,-0.99 -19.7,-1.12 -18.78,-1.25 -17.82,-1.38 -16.82,-1.5 -15.78,-1.61 -14.71,-1.72 -13.61,-1.82 -12.48,-1.92 -11.33,-2.01 -10.16,-2.09 -8.98,-2.17 -7.79,-2.24 -6.58,-2.3 -5.38,-2.36 -4.18,-2.4 -2.98,-2.44 -1.78,-2.47 -0.6,-2.5 0.57,-2.51 1.72,-2.52 2.86,-2.52 3.97,-2.51 5.06,-2.5 6.12,-2.47 7.16,-2.44 8.17,-2.41 9.14,-2.36 10.08,-2.31 10.99,-2.26 11.87,-2.2 12.71,-2.13 13.52,-2.06 14.29,-1.98 15.03,-1.9 15.73,-1.82 16.4,-1.73 17.03,-1.64 17.63,-1.55 18.2,-1.46 18.74,-1.37 19.26,-1.27 19.75,-1.18 20.21,-1.08 20.64,-0.99 21.05,-0.89 21.43,-0.79 21.78,-0.69 22.12,-0.6 22.42,-0.5 22.71,-0.4 22.97,-0.3 23.21,-0.21 23.43,-0.11 23.62,-0.01 23.8,0.08 23.96,0.17 24.17,2.03 23.89,2.04 23.6,2.05 23.29,2.06 22.97,2.07 22.64,2.08 22.3,2.08 21.94,2.09 21.58,2.1 21.19,2.11 20.8,2.11 20.39,2.12 19.96,2.13 19.52,2.13 19.07,2.14 18.6,2.15 18.12,2.15 17.61,2.16 17.09,2.16 16.56,2.17 16,2.18 15.42,2.19 14.83,2.19 14.21,2.2 13.58,2.21 12.92,2.22 12.25,2.23 11.55,2.25 10.84,2.26 10.1,2.27 9.34,2.29 8.57,2.31 7.78,2.32 6.97,2.34 6.14,2.36 5.3,2.38 4.44,2.4 3.57,2.43 2.68,2.45 1.78,2.47 0.87,2.5 -0.05,2.52 -0.97,2.55 -1.91,2.57 -2.85,2.6 -3.79,2.63 -4.73,2.65 -5.68,2.68 -6.62,2.7 -7.57,2.72 -8.5,2.75 -9.43,2.77 -10.36,2.79 -11.27,2.81 -12.17,2.82 -13.06,2.84 -13.94,2.85 -14.8,2.86 -15.64,2.86 -16.46,2.86 -17.26,2.86 -18.04,2.86 -18.79,2.85 -19.53,2.84 -20.23,2.83 -20.92,2.81 -21.58,2.8 -22.24,2.78 -22.88,2.76 -23.51,2.73 -24.12,2.7 -24.71,2.67 -25.29,2.63 -25.86,2.59 -26.4,2.55 -26.93,2.5 -27.45,2.44 -27.94,2.38 -28.42,2.32 -28.88,2.25" />
      </clipPath>
      <filter id="fuzzy">
        <feTurbulence id="turbulence" baseFrequency="0.05" numOctaves="3" type="noise" result="noise" />
        <feDisplacementMap in="SourceGraphic" in2="noise" scale="2" />
      </filter>
      <linearGradient id="rainbowGradient" x1="0%" y1="0%" x2="100%" y2="0%">
        <stop offset="0%" style="stop-color: rgb(220, 208, 186); stop-opacity: 1" />
        <stop offset="50%" style="stop-color: rgb(220, 208, 186); stop-opacity: 1" />
        <stop offset="100%" style="stop-color: rgb(192, 192, 192); stop-opacity: 1" />
      </linearGradient>
    </defs>
    <rect x="-100" y="-100" width="100%" height="100%" fill="rgb(250, 250, 210)" />
    <polyline id="faceContour" points="61.55,0.57 61.54,0.61 61.37,4.43 61.45,2.53 61.44,5.74 61.22,7.04 61.42,6.56 60.97,10.55 60.93,11.31 61.1,9.95 60.69,12.94 60.87,12.49 60.29,16.17 60.47,15.56 60.39,16.85 59.96,18.15 59.97,18.73 59.6,21.33 58.97,23.34 59.13,22.84 58.85,24.33 58.06,27.26 58.15,26.69 57.26,30.09 57.27,30.61 56.34,33.56 56.47,32.8 56.27,33.39 55.33,36.55 55.93,34.96 55.07,37.4 53.74,40.63 53.92,39.75 53.5,41.13 52.87,42.11 52.56,42.81 52.11,44.18 51.65,45.13 50.03,48.3 49.87,48.62 50.55,47.22 49.86,48.49 49.05,50.14 48.92,50.42 47.09,53.23 47.68,52.33 45.96,54.76 45.58,55.62 44.88,56.35 44.55,57.3 42.8,59.28 43.08,59.16 42.4,60 41.08,61.41 39.78,62.93 39.37,63.42 39.01,63.67 39.51,63.64 37.41,65.72 37.12,66.18 36.74,66.36 35.39,67.64 34.72,67.96 32.71,69.9 33.08,69.41 31.45,70.99 30.31,71.8 30.44,71.88 29.76,72.19 29.4,72.75 27.35,73.94 25.94,74.94 26.15,74.72 25.19,75.28 24.61,75.72 24.1,76.07 23.3,76.63 21.33,77.57 20.53,78.01 19.6,78.47 18.95,78.56 17.32,79.32 18.24,78.98 15.31,79.98 15.05,80 14.77,80.14 14.48,80.21 11.91,81.31 12.61,81.03 10.65,81.35 9.91,81.53 9.27,81.72 6.93,82.26 5.84,82.43 6.53,82.32 3.58,82.51 3.91,82.57 2.1,82.64 1.49,82.74 1.28,82.64 -1.54,82.62 -1.42,82.54 -2.45,82.42 -3.22,82.4 -3.06,82.72 -4.71,82.29 -5.44,82.33 -7.68,82.15 -7.18,81.98 -8.24,81.73 -10.81,81.26 -9.98,81.64 -11.39,81.16 -11.77,81.15 -12.07,81.3 -13.57,80.65 -15.21,80.07 -15.07,80.21 -16.7,79.69 -17.41,79.42 -18.49,78.98 -19.33,78.34 -20.54,77.97 -21.44,77.8 -22.29,77.22 -22.96,76.8 -23.43,76.25 -24.34,75.9 -25.91,74.9 -26.95,74.2 -27.58,73.87 -28.64,73.2 -29.86,72.2 -30.25,71.92 -31.04,71.73 -31.62,70.99 -32.68,69.85 -33.85,69.24 -33.65,69.12 -35.44,67.57 -35.91,67.19 -37.26,65.78 -36.54,66.38 -37.44,65.41 -40.18,62.7 -40.02,62.78 -40.04,62.67 -41.72,61.04 -41.87,60.79 -43.46,58.77 -43.82,58.28 -45.32,56.04 -45.34,55.83 -45.82,55.26 -45.79,55.39 -47.15,52.98 -47,53.48 -47.64,52.57 -48.07,52.09 -50,48.65 -49.79,48.43 -50.71,46.84 -50.58,47.48 -51.02,46.5 -52.14,43.78 -51.92,44.51 -53.01,42.01 -53.59,41.09 -54.23,39.22 -54.69,38.43 -55.05,37.51 -55.12,37.06 -55.6,35.97 -55.96,34.63 -56.1,34.05 -57.36,30.23 -57.24,30.4 -57.8,29.01 -58.1,27.43 -58.62,25.83 -58.33,26.35 -58.49,26 -59.39,22.13 -59.88,20.36 -60.13,18.39 -60.28,17.44 -60.02,18.54 -60.09,18.11 -60.56,15.66 -60.45,15.56 -61,12.45 -60.84,11.99 -61.22,10.13 -61.36,9.15 -61.48,8.15 -61.4,6.42 -61.62,4.88 -61.6,2.79 -61.49,4.03 -61.66,2.49 -61.54,-1.63 -61.55,-3.15 -61.56,-4.34 -61.68,-2.29 -61.65,-4.01 -61.35,-6.76 -61.39,-7.6 -61.19,-9.4 -60.98,-11.53 -61.02,-11.4 -61.14,-11.18 -60.56,-15.39 -60.37,-16.81 -60.61,-15.66 -59.99,-19 -60.15,-18.39 -59.27,-22.68 -59.4,-22.45 -59.13,-23.3 -58.69,-25.14 -58.42,-26.21 -58.38,-27.12 -58.03,-27.91 -57.7,-28.88 -56.89,-31.96 -57.01,-31.21 -56.33,-33.46 -56.51,-33.04 -55.2,-36.76 -55.73,-35.04 -54.83,-37.36 -54.82,-38.15 -54.36,-39.14 -52.93,-42.11 -52.54,-43.21 -52.58,-43.08 -52.52,-43.42 -51.21,-46.55 -51.08,-46.33 -49.71,-48.7 -49.96,-48.4 -48.81,-50.14 -48.61,-50.79 -48.95,-50.32 -48.39,-51.43 -46.22,-54.5 -46.15,-54.63 -45.28,-56.33 -44.44,-57.28 -45,-56.64 -43.83,-58.29 -43.92,-58.3 -42.09,-60.32 -42.26,-60.04 -40.48,-62.11 -40.1,-62.66 -38.84,-64.18 -38.86,-64.09 -38.54,-64.36 -36.74,-66.2 -36.66,-66.47 -35.63,-67.61 -35.22,-67.72 -33.61,-69.25 -33.87,-69.07 -32.81,-70.14 -31.31,-71.03 -29.46,-72.6 -28.57,-73.04 -28.79,-72.93 -27.82,-73.83 -26.21,-74.81 -26.75,-74.57 -25.95,-75.03 -23.42,-76.34 -22.53,-77 -23.42,-76.49 -22.43,-76.84 -20.63,-77.75 -19.81,-78.42 -18.82,-78.86 -17.72,-79.26 -16.49,-79.75 -15.63,-80 -14.8,-80.18 -14.5,-80.42 -14.12,-80.59 -12.06,-81.25 -13.22,-80.97 -11.18,-81.24 -10.66,-81.22 -9.43,-81.85 -8.32,-82.01 -6.57,-82.22 -5.75,-82.41 -5.06,-82.56 -4.15,-82.37 -2.99,-82.64 -2.73,-82.78 -1.1,-82.47 1.17,-82.7 1.66,-82.73 1.82,-82.4 2.76,-82.36 3.58,-82.68 4.68,-82.26 6.76,-82.34 6.35,-82.04 8.29,-81.77 9.67,-81.74 9.27,-81.56 11.75,-81.16 11.21,-81.39 11.43,-81.09 14.31,-80.39 12.89,-80.78 16.47,-79.41 16.89,-79.69 16.58,-79.52 16.93,-79.26 18.27,-78.84 19.92,-78.31 20.26,-78.2 20.91,-77.86 22.09,-77.08 24.16,-76.01 23.24,-76.68 24.88,-75.65 25.34,-75.33 27.19,-74.12 28.52,-73.1 28.94,-73.09 29.8,-72.31 30.34,-71.94 32.1,-70.46 32.84,-69.78 33.45,-69.4 33.44,-69.27 33.92,-69.06 35.43,-67.52 36.89,-66.18 36.64,-66.47 38.89,-64.13 37.93,-65.01 39.44,-63.5 39.94,-62.85 41.19,-61.48 41.29,-61.45 43.21,-58.61 42.14,-60.19 44.15,-57.58 43.5,-58.22 45.16,-56.14 45.3,-55.79 46.18,-54.46 46.02,-54.77 47.74,-52.33 48.34,-51.15 48.82,-50.19 48.58,-50.45 49.45,-49.11 51.01,-46.67 51.6,-45.57 51.79,-44.66 51.5,-45.48 52.85,-42.7 53.27,-41.31 54.23,-39.2 53.88,-39.59 54.29,-38.82 54.77,-38.01 55.36,-36.18 56.38,-33.25 56.15,-33.7 57.1,-31.23 56.7,-31.9 57.13,-30.99 57.56,-29.41 57.87,-28.25 58.17,-27.21 57.99,-27.33 58.94,-24.38 59.3,-22.41 59.87,-19.82 59.6,-21 59.96,-18.66 60.28,-16.9 60.13,-17.42 60.17,-16.63 60.59,-14.79 60.85,-11.23 60.79,-12.89 60.81,-11.54 61.16,-9.98 61.18,-7.87 61.3,-7.35 61.48,-4.77 61.41,-4.35 61.52,-3.51 61.48,-1.85 61.55,0.57 61.54,0.61" fill="rgb(139, 69, 19)" stroke="black" stroke-width="1.6666666666666665" stroke-linejoin="round" filter="url(#fuzzy)" />
    <g transform="translate(25.41 -23.55)">
      <polyline id="rightCountour" points="-29,1.82 -29.04,1.72 -29.04,1.62 -29,1.52 -28.92,1.41 -28.8,1.3 -28.64,1.19 -28.44,1.07 -28.2,0.95 -27.92,0.84 -27.6,0.72 -27.24,0.6 -26.84,0.48 -26.4,0.36 -25.93,0.24 -25.41,0.12 -25.03,-0.02 -24.58,-0.16 -24.06,-0.3 -23.48,-0.44 -22.84,-0.58 -22.13,-0.72 -21.38,-0.86 -20.56,-0.99 -19.7,-1.12 -18.78,-1.25 -17.82,-1.38 -16.82,-1.5 -15.78,-1.61 -14.71,-1.72 -13.61,-1.82 -12.48,-1.92 -11.33,-2.01 -10.16,-2.09 -8.98,-2.17 -7.79,-2.24 -6.58,-2.3 -5.38,-2.36 -4.18,-2.4 -2.98,-2.44 -1.78,-2.47 -0.6,-2.5 0.57,-2.51 1.72,-2.52 2.86,-2.52 3.97,-2.51 5.06,-2.5 6.12,-2.47 7.16,-2.44 8.17,-2.41 9.14,-2.36 10.08,-2.31 10.99,-2.26 11.87,-2.2 12.71,-2.13 13.52,-2.06 14.29,-1.98 15.03,-1.9 15.73,-1.82 16.4,-1.73 17.03,-1.64 17.63,-1.55 18.2,-1.46 18.74,-1.37 19.26,-1.27 19.75,-1.18 20.21,-1.08 20.64,-0.99 21.05,-0.89 21.43,-0.79 21.78,-0.69 22.12,-0.6 22.42,-0.5 22.71,-0.4 22.97,-0.3 23.21,-0.21 23.43,-0.11 23.62,-0.01 23.8,0.08 23.96,0.17 24.17,2.03 23.89,2.04 23.6,2.05 23.29,2.06 22.97,2.07 22.64,2.08 22.3,2.08 21.94,2.09 21.58,2.1 21.19,2.11 20.8,2.11 20.39,2.12 19.96,2.13 19.52,2.13 19.07,2.14 18.6,2.15 18.12,2.15 17.61,2.16 17.09,2.16 16.56,2.17 16,2.18 15.42,2.19 14.83,2.19 14.21,2.2 13.58,2.21 12.92,2.22 12.25,2.23 11.55,2.25 10.84,2.26 10.1,2.27 9.34,2.29 8.57,2.31 7.78,2.32 6.97,2.34 6.14,2.36 5.3,2.38 4.44,2.4 3.57,2.43 2.68,2.45 1.78,2.47 0.87,2.5 -0.05,2.52 -0.97,2.55 -1.91,2.57 -2.85,2.6 -3.79,2.63 -4.73,2.65 -5.68,2.68 -6.62,2.7 -7.57,2.72 -8.5,2.75 -9.43,2.77 -10.36,2.79 -11.27,2.81 -12.17,2.82 -13.06,2.84 -13.94,2.85 -14.8,2.86 -15.64,2.86 -16.46,2.86 -17.26,2.86 -18.04,2.86 -18.79,2.85 -19.53,2.84 -20.23,2.83 -20.92,2.81 -21.58,2.8 -22.24,2.78 -22.88,2.76 -23.51,2.73 -24.12,2.7 -24.71,2.67 -25.29,2.63 -25.86,2.59 -26.4,2.55 -26.93,2.5 -27.45,2.44 -27.94,2.38 -28.42,2.32 -28.88,2.25" fill="white" stroke="white" stroke-width="0" stroke-linejoin="round" filter="url(#fuzzy)" />
    </g>
    <g transform="translate(-35.62 -23.43)">
      <polyline id="leftCountour" points="27.85,2.53 27.85,2.39 27.82,2.24 27.74,2.08 27.64,1.93 27.49,1.77 27.31,1.6 27.08,1.44 26.82,1.27 26.52,1.1 26.19,0.94 25.81,0.77 25.4,0.6 24.95,0.43 24.46,0.26 23.94,0.1 23.55,-0.11 23.1,-0.31 22.58,-0.51 22,-0.71 21.36,-0.91 20.65,-1.1 19.89,-1.29 19.07,-1.47 18.2,-1.65 17.28,-1.82 16.32,-1.98 15.31,-2.13 14.26,-2.28 13.18,-2.42 12.07,-2.54 10.93,-2.66 9.77,-2.77 8.59,-2.87 7.39,-2.96 6.19,-3.04 4.98,-3.11 3.76,-3.16 2.55,-3.21 1.34,-3.24 0.14,-3.27 -1.05,-3.28 -2.23,-3.28 -3.39,-3.28 -4.53,-3.26 -5.64,-3.23 -6.73,-3.2 -7.8,-3.15 -8.83,-3.1 -9.83,-3.03 -10.8,-2.96 -11.73,-2.88 -12.63,-2.8 -13.49,-2.71 -14.32,-2.61 -15.11,-2.5 -15.86,-2.39 -16.57,-2.28 -17.24,-2.17 -17.88,-2.05 -18.48,-1.92 -19.05,-1.8 -19.58,-1.68 -20.08,-1.55 -20.55,-1.43 -20.99,-1.3 -21.4,-1.18 -21.78,-1.05 -22.13,-0.93 -22.45,-0.8 -22.74,-0.68 -23.01,-0.56 -23.25,-0.43 -23.46,-0.31 -23.64,-0.2 -23.8,-0.08 -23.94,0.04 -24.05,0.15 -24.14,0.26 -24.21,0.36 -24.58,2.93 -24.22,2.93 -23.85,2.94 -23.46,2.94 -23.07,2.93 -22.66,2.93 -22.24,2.93 -21.8,2.93 -21.36,2.93 -20.9,2.92 -20.42,2.92 -19.94,2.92 -19.43,2.92 -18.92,2.91 -18.39,2.91 -17.85,2.91 -17.29,2.91 -16.72,2.91 -16.13,2.9 -15.52,2.9 -14.9,2.9 -14.26,2.91 -13.6,2.91 -12.93,2.91 -12.24,2.92 -11.53,2.93 -10.81,2.94 -10.06,2.95 -9.31,2.96 -8.54,2.98 -7.75,3 -6.95,3.02 -6.14,3.04 -5.31,3.07 -4.47,3.1 -3.62,3.13 -2.76,3.16 -1.89,3.19 -1.02,3.23 -0.14,3.27 0.75,3.31 1.64,3.35 2.54,3.39 3.43,3.43 4.33,3.48 5.23,3.52 6.12,3.56 7.01,3.61 7.89,3.65 8.77,3.69 9.64,3.73 10.49,3.77 11.34,3.81 12.18,3.85 13,3.88 13.8,3.91 14.59,3.93 15.36,3.95 16.12,3.97 16.85,3.98 17.56,3.99 18.25,3.99 18.92,3.98 19.57,3.97 20.19,3.96 20.8,3.94 21.39,3.93 21.98,3.9 22.55,3.87 23.11,3.84 23.65,3.8 24.18,3.75 24.7,3.7 25.2,3.64 25.69,3.57 26.17,3.5 26.63,3.42 27.07,3.33 27.5,3.23 27.92,3.12" fill="white" stroke="white" stroke-width="0" stroke-linejoin="round" filter="url(#fuzzy)" />
    </g>
    <g transform="translate(25.41 -23.55)">
      <polyline id="rightUpper" points="-26.71,2.59 -27.07,2.53 -27.41,2.47 -27.72,2.41 -28.01,2.34 -28.26,2.26 -28.48,2.18 -28.66,2.1 -28.81,2.01 -28.93,1.92 -29,1.82 -29.04,1.72 -29.04,1.62 -29,1.52 -28.92,1.41 -28.8,1.3 -28.64,1.19 -28.44,1.07 -28.2,0.95 -27.92,0.84 -27.6,0.72 -27.24,0.6 -26.84,0.48 -26.4,0.36 -25.93,0.24 -25.41,0.12 -25.03,-0.02 -24.58,-0.16 -24.06,-0.3 -23.48,-0.44 -22.84,-0.58 -22.13,-0.72 -21.38,-0.86 -20.56,-0.99 -19.7,-1.12 -18.78,-1.25 -17.82,-1.38 -16.82,-1.5 -15.78,-1.61 -14.71,-1.72 -13.61,-1.82 -12.48,-1.92 -11.33,-2.01 -10.16,-2.09 -8.98,-2.17 -7.79,-2.24 -6.58,-2.3 -5.38,-2.36 -4.18,-2.4 -2.98,-2.44 -1.78,-2.47 -0.6,-2.5 0.57,-2.51 1.72,-2.52 2.86,-2.52 3.97,-2.51 5.06,-2.5 6.12,-2.47 7.16,-2.44 8.17,-2.41 9.14,-2.36 10.08,-2.31 10.99,-2.26 11.87,-2.2 12.71,-2.13 13.52,-2.06 14.29,-1.98 15.03,-1.9 15.73,-1.82 16.4,-1.73 17.03,-1.64 17.63,-1.55 18.2,-1.46 18.74,-1.37 19.26,-1.27 19.75,-1.18 20.21,-1.08 20.64,-0.99 21.05,-0.89 21.43,-0.79 21.78,-0.69 22.12,-0.6 22.42,-0.5 22.71,-0.4 22.97,-0.3 23.21,-0.21 23.43,-0.11 23.62,-0.01 23.8,0.08 23.96,0.17 24.11,0.26 24.23,0.35 24.34,0.44 24.43,0.52 24.51,0.6 24.57,0.68 24.62,0.76 24.66,0.84 24.68,0.91 24.69,0.98" fill="none" stroke="black" stroke-width="1.6666666666666665" stroke-linejoin="round" filter="url(#fuzzy)" />
      <polyline id="rightLower" points="-32.46,1.22 -32.19,1.35 -31.89,1.47 -31.58,1.59 -31.25,1.7 -30.9,1.81 -30.53,1.91 -30.15,2 -29.74,2.09 -29.32,2.17 -28.88,2.25 -28.42,2.32 -27.94,2.38 -27.45,2.44 -26.93,2.5 -26.4,2.55 -25.86,2.59 -25.29,2.63 -24.71,2.67 -24.12,2.7 -23.51,2.73 -22.88,2.76 -22.24,2.78 -21.58,2.8 -20.92,2.81 -20.23,2.83 -19.53,2.84 -18.79,2.85 -18.04,2.86 -17.26,2.86 -16.46,2.86 -15.64,2.86 -14.8,2.86 -13.94,2.85 -13.06,2.84 -12.17,2.82 -11.27,2.81 -10.36,2.79 -9.43,2.77 -8.5,2.75 -7.57,2.72 -6.62,2.7 -5.68,2.68 -4.73,2.65 -3.79,2.63 -2.85,2.6 -1.91,2.57 -0.97,2.55 -0.05,2.52 0.87,2.5 1.78,2.47 2.68,2.45 3.57,2.43 4.44,2.4 5.3,2.38 6.14,2.36 6.97,2.34 7.78,2.32 8.57,2.31 9.34,2.29 10.1,2.27 10.84,2.26 11.55,2.25 12.25,2.23 12.92,2.22 13.58,2.21 14.21,2.2 14.83,2.19 15.42,2.19 16,2.18 16.56,2.17 17.09,2.16 17.61,2.16 18.12,2.15 18.6,2.15 19.07,2.14 19.52,2.13 19.96,2.13 20.39,2.12 20.8,2.11 21.19,2.11 21.58,2.1 21.94,2.09 22.3,2.08 22.64,2.08 22.97,2.07 23.29,2.06 23.6,2.05 23.89,2.04 24.17,2.03 24.45,2.01 24.71,2 24.96,1.99 25.2,1.97 25.43,1.96 25.66,1.94 25.87,1.93 26.08,1.91 26.27,1.89 26.46,1.87" fill="none" stroke="black" stroke-width="2.2222222222222223" stroke-linejoin="round" filter="url(#fuzzy)" />
      <circle r="4.5600000000000005" cx="-10.742926222895125" cy="2.524019654416149" stroke="black" fill="none" stroke-width="1.0" filter="url(#fuzzy)" clip-path="url(#rightEyeClipPath)" /><circle r="3.996" cx="-11.562926222895126" cy="3.4090196544161486" stroke="black" fill="none" stroke-width="1.0" filter="url(#fuzzy)" clip-path="url(#rightEyeClipPath)" /><circle r="3.032" cx="-8.172926222895125" cy="-0.43098034558385123" stroke="black" fill="none" stroke-width="1.0" filter="url(#fuzzy)" clip-path="url(#rightEyeClipPath)" /><circle r="4.742" cx="-10.782926222895126" cy="2.979019654416149" stroke="black" fill="none" stroke-width="1.0" filter="url(#fuzzy)" clip-path="url(#rightEyeClipPath)" /><circle r="3.89" cx="-11.212926222895126" cy="2.4590196544161484" stroke="black" fill="none" stroke-width="1.0" filter="url(#fuzzy)" clip-path="url(#rightEyeClipPath)" /><circle r="4.048" cx="-9.382926222895126" cy="3.884019654416149" stroke="black" fill="none" stroke-width="1.0" filter="url(#fuzzy)" clip-path="url(#rightEyeClipPath)" /><circle r="4.348" cx="-10.947926222895125" cy="3.649019654416149" stroke="black" fill="none" stroke-width="1.0" filter="url(#fuzzy)" clip-path="url(#rightEyeClipPath)" /><circle r="4.74" cx="-10.262926222895125" cy="-0.11598034558385084" stroke="black" fill="none" stroke-width="1.0" filter="url(#fuzzy)" clip-path="url(#rightEyeClipPath)" /><circle r="3.588" cx="-12.482926222895125" cy="-0.8459803455838513" stroke="black" fill="none" stroke-width="1.0" filter="url(#fuzzy)" clip-path="url(#rightEyeClipPath)" /><circle r="4.992" cx="-10.867926222895125" cy="2.354019654416149" stroke="black" fill="none" stroke-width="1.0" filter="url(#fuzzy)" clip-path="url(#rightEyeClipPath)" />
      </g>
    <g transform="translate(-35.62 -23.43)">
      <polyline id="leftUpper" points="26.17,3.65 26.45,3.57 26.71,3.49 26.95,3.39 27.16,3.29 27.35,3.18 27.51,3.06 27.64,2.94 27.75,2.81 27.81,2.67 27.85,2.53 27.85,2.39 27.82,2.24 27.74,2.08 27.64,1.93 27.49,1.77 27.31,1.6 27.08,1.44 26.82,1.27 26.52,1.1 26.19,0.94 25.81,0.77 25.4,0.6 24.95,0.43 24.46,0.26 23.94,0.1 23.55,-0.11 23.1,-0.31 22.58,-0.51 22,-0.71 21.36,-0.91 20.65,-1.1 19.89,-1.29 19.07,-1.47 18.2,-1.65 17.28,-1.82 16.32,-1.98 15.31,-2.13 14.26,-2.28 13.18,-2.42 12.07,-2.54 10.93,-2.66 9.77,-2.77 8.59,-2.87 7.39,-2.96 6.19,-3.04 4.98,-3.11 3.76,-3.16 2.55,-3.21 1.34,-3.24 0.14,-3.27 -1.05,-3.28 -2.23,-3.28 -3.39,-3.28 -4.53,-3.26 -5.64,-3.23 -6.73,-3.2 -7.8,-3.15 -8.83,-3.1 -9.83,-3.03 -10.8,-2.96 -11.73,-2.88 -12.63,-2.8 -13.49,-2.71 -14.32,-2.61 -15.11,-2.5 -15.86,-2.39 -16.57,-2.28 -17.24,-2.17 -17.88,-2.05 -18.48,-1.92 -19.05,-1.8 -19.58,-1.68 -20.08,-1.55 -20.55,-1.43 -20.99,-1.3 -21.4,-1.18 -21.78,-1.05 -22.13,-0.93 -22.45,-0.8 -22.74,-0.68 -23.01,-0.56 -23.25,-0.43 -23.46,-0.31 -23.64,-0.2 -23.8,-0.08 -23.94,0.04 -24.05,0.15 -24.14,0.26 -24.21,0.36 -24.26,0.47 -24.29,0.57 -24.29,0.67 -24.28,0.76 -24.25,0.85 -24.21,0.94 -24.15,1.02 -24.07,1.1 -23.97,1.18 -23.86,1.25" fill="none" stroke="black" stroke-width="2.2222222222222223" stroke-linejoin="round" filter="url(#fuzzy)" />
      <polyline id="leftLower" points="31.33,1.54 31.04,1.74 30.75,1.94 30.44,2.12 30.12,2.29 29.79,2.46 29.45,2.61 29.09,2.75 28.71,2.88 28.32,3.01 27.92,3.12 27.5,3.23 27.07,3.33 26.63,3.42 26.17,3.5 25.69,3.57 25.2,3.64 24.7,3.7 24.18,3.75 23.65,3.8 23.11,3.84 22.55,3.87 21.98,3.9 21.39,3.93 20.8,3.94 20.19,3.96 19.57,3.97 18.92,3.98 18.25,3.99 17.56,3.99 16.85,3.98 16.12,3.97 15.36,3.95 14.59,3.93 13.8,3.91 13,3.88 12.18,3.85 11.34,3.81 10.49,3.77 9.64,3.73 8.77,3.69 7.89,3.65 7.01,3.61 6.12,3.56 5.23,3.52 4.33,3.48 3.43,3.43 2.54,3.39 1.64,3.35 0.75,3.31 -0.14,3.27 -1.02,3.23 -1.89,3.19 -2.76,3.16 -3.62,3.13 -4.47,3.1 -5.31,3.07 -6.14,3.04 -6.95,3.02 -7.75,3 -8.54,2.98 -9.31,2.96 -10.06,2.95 -10.81,2.94 -11.53,2.93 -12.24,2.92 -12.93,2.91 -13.6,2.91 -14.26,2.91 -14.9,2.9 -15.52,2.9 -16.13,2.9 -16.72,2.91 -17.29,2.91 -17.85,2.91 -18.39,2.91 -18.92,2.91 -19.43,2.92 -19.94,2.92 -20.42,2.92 -20.9,2.92 -21.36,2.93 -21.8,2.93 -22.24,2.93 -22.66,2.93 -23.07,2.93 -23.46,2.94 -23.85,2.94 -24.22,2.93 -24.58,2.93 -24.93,2.93 -25.27,2.93 -25.6,2.92 -25.91,2.91 -26.22,2.91 -26.51,2.9 -26.8,2.89 -27.07,2.88 -27.34,2.87 -27.6,2.85" fill="none" stroke="black" stroke-width="2.2222222222222223" stroke-linejoin="round" filter="url(#fuzzy)" />
      <circle r="3.182" cx="18.027874224739527" cy="0.7827772010951781" stroke="black" fill="none" stroke-width="1.0" filter="url(#fuzzy)" clip-path="url(#leftEyeClipPath)" /><circle r="4.75" cx="16.01787422473953" cy="3.8027772010951786" stroke="black" fill="none" stroke-width="1.0" filter="url(#fuzzy)" clip-path="url(#leftEyeClipPath)" /><circle r="3.23" cx="17.277874224739527" cy="4.097777201095177" stroke="black" fill="none" stroke-width="1.0" filter="url(#fuzzy)" clip-path="url(#leftEyeClipPath)" /><circle r="4.598" cx="15.207874224739527" cy="2.447777201095178" stroke="black" fill="none" stroke-width="1.0" filter="url(#fuzzy)" clip-path="url(#leftEyeClipPath)" /><circle r="4.094" cx="16.23287422473953" cy="4.1027772010951775" stroke="black" fill="none" stroke-width="1.0" filter="url(#fuzzy)" clip-path="url(#leftEyeClipPath)" /><circle r="4.25" cx="16.007874224739528" cy="4.737777201095177" stroke="black" fill="none" stroke-width="1.0" filter="url(#fuzzy)" clip-path="url(#leftEyeClipPath)" /><circle r="3.616" cx="16.55287422473953" cy="1.9677772010951777" stroke="black" fill="none" stroke-width="1.0" filter="url(#fuzzy)" clip-path="url(#leftEyeClipPath)" /><circle r="3.502" cx="14.812874224739527" cy="4.027777201095178" stroke="black" fill="none" stroke-width="1.0" filter="url(#fuzzy)" clip-path="url(#leftEyeClipPath)" /><circle r="3.854" cx="14.08787422473953" cy="3.1827772010951776" stroke="black" fill="none" stroke-width="1.0" filter="url(#fuzzy)" clip-path="url(#leftEyeClipPath)" /><circle r="4.628" cx="14.08787422473953" cy="1.8427772010951777" stroke="black" fill="none" stroke-width="1.0" filter="url(#fuzzy)" clip-path="url(#leftEyeClipPath)" />
    </g>
    <g id="hairs">
      <polyline points="54.77,-38.01 55.25,-36.35 55.36,-35.34 55.04,-35.12 54.29,-35.59 53.14,-36.64 51.58,-38.2 49.61,-40.27 47.17,-42.87 44.25,-46.04 40.81,-49.82 36.85,-54.22 32.39,-59.31 27.49,-65.21 22.22,-71.98" fill="none" stroke="rgb(145, 85, 61)" stroke-width="2" stroke-linejoin="round" filter="url(#fuzzy)" /><polyline points="8.29,-81.77 9.12,-81.67 9.56,-81.47 9.76,-81.21 9.71,-80.88 9.44,-80.47 8.92,-79.97 8.12,-79.38 6.93,-78.71 5.27,-77.96 3.13,-77.12 0.5,-76.17 -2.57,-75.11 -6.1,-73.94 -10.09,-72.65 -14.62,-71.23 -19.72,-69.65 -25.45,-67.88 -31.91,-65.95" fill="none" stroke="rgb(145, 85, 61)" stroke-width="2" stroke-linejoin="round" filter="url(#fuzzy)" /><polyline points="-6.57,-82.22 -5.83,-82.36 -5.13,-82.43 -4.44,-82.46 -3.78,-82.47 -3.18,-82.43 -2.7,-82.35 -2.43,-82.21 -2.46,-82 -2.82,-81.74 -3.52,-81.39 -4.53,-80.96 -5.86,-80.45 -7.51,-79.87 -9.52,-79.21 -11.96,-78.46 -14.93,-77.59 -18.49,-76.58 -22.45,-75.54" fill="none" stroke="rgb(145, 85, 61)" stroke-width="2" stroke-linejoin="round" filter="url(#fuzzy)" /><polyline points="-16.49,-79.75 -15.7,-79.98 -14.99,-80.2 -14.31,-80.44 -13.63,-80.67 -12.94,-80.88 -12.26,-81.06 -11.58,-81.21 -10.91,-81.35 -10.29,-81.47 -9.77,-81.56 -9.41,-81.59 -9.26,-81.55 -9.36,-81.42 -9.74,-81.21 -10.41,-80.89 -11.39,-80.46 -12.68,-79.92 -14.31,-79.28 -16.26,-78.56 -18.45,-77.84 -20.76,-77.18" fill="none" stroke="rgb(145, 85, 61)" stroke-width="2" stroke-linejoin="round" filter="url(#fuzzy)" /><polyline points="9.67,-81.74 10.07,-81.5 10.98,-81.21 11.99,-80.85 13.14,-80.4 14.42,-79.88 15.78,-79.32 17.13,-78.75 18.43,-78.19 19.66,-77.64 20.81,-77.12 21.91,-76.62 22.93,-76.17 23.84,-75.77 24.6,-75.45 25.17,-75.21 25.49,-75.1 25.52,-75.14 25.25,-75.36 24.75,-75.7 24.22,-76.03" fill="none" stroke="rgb(145, 85, 61)" stroke-width="2" stroke-linejoin="round" filter="url(#fuzzy)" /><polyline points="27.19,-74.12 28.06,-73.42 28.43,-72.88 28.49,-72.29 28.28,-71.6 27.71,-70.89 26.73,-70.19 25.31,-69.52 23.47,-68.83 21.23,-68.1 18.58,-67.3 15.5,-66.44 11.94,-65.56 7.87,-64.65 3.24,-63.71 -1.97,-62.72 -7.74,-61.68 -14.1,-60.59 -21.02,-59.49 -28.48,-58.43 -36.41,-57.56" fill="none" stroke="rgb(145, 85, 61)" stroke-width="2" stroke-linejoin="round" filter="url(#fuzzy)" /><polyline points="45.16,-56.14 45.48,-55.57 45.98,-54.81 46.56,-53.93 47.15,-52.99 47.67,-52.12 48.12,-51.35 48.48,-50.67 48.76,-50.1 48.95,-49.64 49.01,-49.35 48.92,-49.24 48.67,-49.32 48.25,-49.62 47.66,-50.15 46.87,-50.95 45.87,-52.05 44.66,-53.45 43.26,-55.13 41.69,-57.04 39.94,-59.23 37.93,-61.78 35.56,-64.83 32.76,-68.43" fill="none" stroke="rgb(145, 85, 61)" stroke-width="2" stroke-linejoin="round" filter="url(#fuzzy)" /><polyline points="51.79,-44.66 51.86,-44.46 52.05,-43.5 51.97,-42.68 51.5,-42.27 50.65,-42.27 49.44,-42.55 47.89,-43.05 45.97,-43.77 43.66,-44.77 40.92,-46.13 37.7,-47.9 34,-50.07 29.79,-52.61 25.06,-55.49 19.81,-58.71 14.05,-62.28 7.82,-66.24 1.15,-70.62 -5.97,-75.43" fill="none" stroke="rgb(145, 85, 61)" stroke-width="2" stroke-linejoin="round" filter="url(#fuzzy)" /><polyline points="11.75,-81.16 11.71,-81.15 12.45,-80.83 13.58,-80.38 14.85,-79.87 16.13,-79.33 17.35,-78.8 18.51,-78.27 19.64,-77.74 20.77,-77.21 21.9,-76.67 23,-76.14 24.04,-75.62 24.97,-75.15 25.77,-74.75 26.39,-74.44 26.84,-74.22 27.1,-74.11 27.12,-74.12 26.87,-74.31 26.29,-74.69 25.45,-75.24 24.54,-75.81" fill="none" stroke="rgb(145, 85, 61)" stroke-width="2" stroke-linejoin="round" filter="url(#fuzzy)" /><polyline points="39.44,-63.5 39.91,-62.81 40.12,-62.19 39.91,-61.75 39.22,-61.55 38.01,-61.61 36.28,-61.91 34.01,-62.45 31.16,-63.21 27.7,-64.22 23.61,-65.51 18.89,-67.09 13.54,-68.97 7.51,-71.19 0.73,-73.79 -6.78,-76.8" fill="none" stroke="rgb(145, 85, 61)" stroke-width="2" stroke-linejoin="round" filter="url(#fuzzy)" /><polyline points="48.34,-51.15 48.51,-50.53 48.48,-49.9 48.3,-49.06 47.83,-48.2 46.96,-47.47 45.65,-46.89 43.91,-46.41 41.77,-46.02 39.21,-45.73 36.22,-45.57 32.78,-45.54 28.89,-45.64 24.55,-45.83 19.73,-46.09 14.42,-46.44 8.6,-46.93 2.25,-47.58 -4.6,-48.44 -11.92,-49.49 -19.67,-50.74 -27.87,-52.13 -36.63,-53.55" fill="none" stroke="rgb(145, 85, 61)" stroke-width="2" stroke-linejoin="round" filter="url(#fuzzy)" /><polyline points="24.88,-75.65 25.71,-75.09 26.75,-74.37 27.64,-73.75 28.33,-73.23 28.83,-72.79 29.18,-72.39 29.35,-72.07 29.32,-71.86 29.05,-71.76 28.55,-71.78 27.81,-71.88 26.84,-72.08 25.59,-72.38 24.03,-72.81 22.13,-73.4 19.88,-74.16 17.3,-75.09 14.39,-76.2 11.11,-77.49 7.29,-78.97 2.71,-80.68" fill="none" stroke="rgb(145, 85, 61)" stroke-width="2" stroke-linejoin="round" filter="url(#fuzzy)" /><polyline points="-29.46,-72.6 -28.74,-72.91 -27.84,-73.24 -26.6,-73.63 -25.08,-74.03 -23.31,-74.41 -21.31,-74.77 -19.14,-75.1 -16.83,-75.38 -14.41,-75.63 -11.88,-75.86 -9.25,-76.09 -6.53,-76.32 -3.77,-76.55 -1,-76.76 1.71,-76.96 4.35,-77.13 6.89,-77.29 9.35,-77.44 11.76,-77.55 14.08,-77.66 16.26,-77.8 18.25,-78.01" fill="none" stroke="rgb(145, 85, 61)" stroke-width="2" stroke-linejoin="round" filter="url(#fuzzy)" /><polyline points="11.75,-81.16 11.64,-81.19 12.17,-80.98 12.95,-80.71 13.73,-80.43 14.37,-80.18 14.81,-79.97 15.02,-79.8 15.04,-79.65 14.89,-79.51 14.56,-79.39 14.02,-79.27 13.24,-79.18 12.18,-79.1 10.8,-79.06 9.06,-79.06 6.93,-79.08 4.43,-79.14 1.56,-79.24 -1.67,-79.44 -5.26,-79.77 -9.24,-80.24" fill="none" stroke="rgb(145, 85, 61)" stroke-width="2" stroke-linejoin="round" filter="url(#fuzzy)" /><polyline points="53.88,-39.59 54.13,-38.84 54.09,-37.92 53.69,-36.99 52.84,-36.3 51.51,-35.97 49.69,-36 47.39,-36.33 44.63,-36.89 41.37,-37.63 37.62,-38.52 33.36,-39.55 28.58,-40.74 23.29,-42.1 17.47,-43.7 11.1,-45.58 4.15,-47.8 -3.4,-50.34 -11.55,-53.18 -20.28,-56.34 -29.46,-59.93" fill="none" stroke="rgb(145, 85, 61)" stroke-width="2" stroke-linejoin="round" filter="url(#fuzzy)" /><polyline points="-23.42,-76.34 -22.86,-76.64 -22.12,-76.76 -20.86,-76.98 -19.19,-77.29 -17.24,-77.6 -15.13,-77.86 -12.89,-78.05 -10.58,-78.16 -8.23,-78.2 -5.87,-78.21 -3.5,-78.18 -1.12,-78.15 1.26,-78.1 3.65,-78.06 6.02,-78.04 8.37,-78.03 10.69,-78.04 12.97,-78.03 15.13,-78.02 17.06,-78.05 18.7,-78.14" fill="none" stroke="rgb(145, 85, 61)" stroke-width="2" stroke-linejoin="round" filter="url(#fuzzy)" /><polyline points="-17.72,-79.26 -16.68,-79.64 -15.87,-79.91 -15.22,-80.13 -14.69,-80.31 -14.25,-80.44 -13.9,-80.52 -13.63,-80.52 -13.46,-80.46 -13.41,-80.33 -13.52,-80.12 -13.84,-79.8 -14.43,-79.37 -15.32,-78.8 -16.56,-78.09 -18.17,-77.21 -20.2,-76.14 -22.72,-74.84 -25.84,-73.23 -29.58,-71.29" fill="none" stroke="rgb(145, 85, 61)" stroke-width="2" stroke-linejoin="round" filter="url(#fuzzy)" /><polyline points="-20.63,-77.75 -19.64,-78.28 -18.27,-78.66 -16.62,-78.94 -14.79,-79.12 -12.84,-79.23 -10.81,-79.28 -8.68,-79.29 -6.45,-79.28 -4.14,-79.24 -1.75,-79.2 0.71,-79.16 3.24,-79.12 5.79,-79.08 8.32,-79.04 10.74,-79.02 13,-78.99 15.08,-78.95 16.94,-78.86" fill="none" stroke="rgb(145, 85, 61)" stroke-width="2" stroke-linejoin="round" filter="url(#fuzzy)" /><polyline points="9.27,-81.56 10.8,-81.29 11.74,-81 12.78,-80.57 14.03,-80.02 15.41,-79.4 16.81,-78.74 18.17,-78.08 19.5,-77.41 20.8,-76.74 22.1,-76.07 23.4,-75.39 24.66,-74.73 25.84,-74.11 26.92,-73.54 27.88,-73.03 28.7,-72.59 29.4,-72.21 29.96,-71.9 30.35,-71.7 30.46,-71.7 30.22,-71.96 29.68,-72.44" fill="none" stroke="rgb(145, 85, 61)" stroke-width="2" stroke-linejoin="round" filter="url(#fuzzy)" /><polyline points="33.45,-69.4 33.57,-69.16 33.88,-68.61 34.13,-67.9 34.11,-67.19 33.73,-66.57 32.96,-66.03 31.82,-65.55 30.32,-65.12 28.44,-64.72 26.17,-64.36 23.47,-64.03 20.29,-63.75 16.63,-63.53 12.47,-63.37 7.83,-63.26 2.72,-63.23 -2.86,-63.25 -8.95,-63.33 -15.57,-63.45 -22.76,-63.55 -30.58,-63.66" fill="none" stroke="rgb(145, 85, 61)" stroke-width="2" stroke-linejoin="round" filter="url(#fuzzy)" /><polyline points="11.43,-81.09 13.04,-80.67 13.9,-80.37 14.48,-80.11 14.69,-79.91 14.51,-79.76 14,-79.64 13.19,-79.52 12.02,-79.41 10.45,-79.31 8.41,-79.24 5.89,-79.22 2.85,-79.26 -0.74,-79.4 -4.93,-79.6 -9.67,-79.84" fill="none" stroke="rgb(145, 85, 61)" stroke-width="2" stroke-linejoin="round" filter="url(#fuzzy)" /><polyline points="19.92,-78.31 20.33,-78.09 20.88,-77.67 21.37,-77.17 21.67,-76.68 21.75,-76.19 21.61,-75.66 21.26,-75.09 20.69,-74.47 19.84,-73.85 18.67,-73.22 17.15,-72.59 15.26,-71.96 12.98,-71.31 10.28,-70.66 7.17,-70 3.66,-69.34 -0.24,-68.67 -4.51,-67.96 -9.18,-67.23 -14.28,-66.45 -19.86,-65.67 -25.93,-64.91 -32.35,-64.33" fill="none" stroke="rgb(145, 85, 61)" stroke-width="2" stroke-linejoin="round" filter="url(#fuzzy)" /><polyline points="-14.8,-80.18 -14.25,-80.39 -13.21,-80.56 -11.87,-80.68 -10.3,-80.74 -8.49,-80.77 -6.45,-80.79 -4.25,-80.82 -1.96,-80.84 0.34,-80.84 2.57,-80.81 4.69,-80.76 6.7,-80.67 8.61,-80.57 10.47,-80.45 12.2,-80.32 13.39,-80.28" fill="none" stroke="rgb(145, 85, 61)" stroke-width="2" stroke-linejoin="round" filter="url(#fuzzy)" /><polyline points="33.45,-69.4 33.57,-69.17 33.86,-68.64 34.09,-67.96 34.04,-67.3 33.6,-66.73 32.77,-66.26 31.55,-65.88 29.94,-65.57 27.93,-65.31 25.51,-65.1 22.65,-64.97 19.33,-64.93 15.52,-65 11.2,-65.16 6.35,-65.39 0.91,-65.66 -5.15,-65.95 -11.82,-66.3 -19.01,-66.76 -26.67,-67.33" fill="none" stroke="rgb(145, 85, 61)" stroke-width="2" stroke-linejoin="round" filter="url(#fuzzy)" /><polyline points="-32.81,-70.14 -31.37,-71.1 -30.2,-71.95 -29.38,-72.54 -28.82,-72.94 -28.42,-73.21 -28.16,-73.35 -28.04,-73.34 -28.08,-73.16 -28.34,-72.78 -28.89,-72.16 -29.75,-71.28 -30.95,-70.12 -32.51,-68.63 -34.48,-66.78 -36.94,-64.53 -39.96,-61.82" fill="none" stroke="rgb(145, 85, 61)" stroke-width="2" stroke-linejoin="round" filter="url(#fuzzy)" /><polyline points="35.43,-67.52 36.29,-66.62 36.62,-65.94 36.61,-65.3 36.26,-64.69 35.58,-64.07 34.56,-63.44 33.17,-62.82 31.39,-62.22 29.17,-61.68 26.51,-61.19 23.39,-60.75 19.83,-60.36 15.8,-60 11.3,-59.67 6.33,-59.37 0.85,-59.08 -5.17,-58.8 -11.77,-58.52 -18.99,-58.27 -26.83,-58.1 -35.22,-58.02" fill="none" stroke="rgb(145, 85, 61)" stroke-width="2" stroke-linejoin="round" filter="url(#fuzzy)" /><polyline points="-15.63,-80 -14.76,-80.05 -13.49,-79.89 -11.74,-79.49 -9.53,-78.86 -6.9,-77.99 -3.85,-76.93 -0.42,-75.73 3.35,-74.39 7.42,-72.91 11.7,-71.3 16.12,-69.56 20.63,-67.72 25.21,-65.8 29.86,-63.8 34.59,-61.72 39.27,-59.71" fill="none" stroke="rgb(145, 85, 61)" stroke-width="2" stroke-linejoin="round" filter="url(#fuzzy)" /><polyline points="-32.81,-70.14 -31.38,-71.1 -30.23,-71.92 -29.44,-72.47 -28.9,-72.84 -28.51,-73.07 -28.23,-73.18 -28.07,-73.15 -28.05,-72.94 -28.22,-72.55 -28.62,-71.95 -29.25,-71.14 -30.12,-70.1 -31.22,-68.85 -32.57,-67.34 -34.24,-65.5 -36.32,-63.25 -38.89,-60.5 -41.94,-57.27 -45.33,-53.8" fill="none" stroke="rgb(145, 85, 61)" stroke-width="2" stroke-linejoin="round" filter="url(#fuzzy)" /><polyline points="20.26,-78.2 20.94,-77.71 21.5,-77.08 21.66,-76.45 21.4,-75.79 20.79,-75.04 19.84,-74.16 18.53,-73.17 16.76,-72.1 14.5,-70.95 11.71,-69.72 8.38,-68.4 4.5,-67.01 0.07,-65.56 -4.93,-64.08 -10.49,-62.56 -16.59,-60.96 -23.27,-59.2 -30.62,-57.18 -38.84,-54.79" fill="none" stroke="rgb(145, 85, 61)" stroke-width="2" stroke-linejoin="round" filter="url(#fuzzy)" /><polyline points="-32.81,-70.14 -31.33,-71.13 -30.04,-72.05 -29.02,-72.77 -28.17,-73.38 -27.38,-73.94 -26.61,-74.47 -25.86,-74.96 -25.16,-75.4 -24.54,-75.76 -24.06,-76.03 -23.74,-76.2 -23.58,-76.25 -23.59,-76.19 -23.76,-76.02 -24.16,-75.69 -24.86,-75.16 -25.95,-74.38 -27.49,-73.3 -29.47,-71.95 -31.67,-70.48" fill="none" stroke="rgb(145, 85, 61)" stroke-width="2" stroke-linejoin="round" filter="url(#fuzzy)" /><polyline points="-11.18,-81.24 -10.32,-81.35 -8.92,-81.5 -7.2,-81.55 -5.28,-81.49 -3.27,-81.32 -1.19,-81.07 0.95,-80.77 3.17,-80.43 5.46,-80.07 7.76,-79.7 10.01,-79.33 12.12,-78.99 14.05,-78.68 15.83,-78.39 17.51,-78.11 19.07,-77.85 20.28,-77.71" fill="none" stroke="rgb(145, 85, 61)" stroke-width="2" stroke-linejoin="round" filter="url(#fuzzy)" /><polyline points="44.15,-57.58 44.04,-57.44 44.17,-56.73 44.07,-55.98 43.68,-55.24 42.98,-54.51 41.96,-53.8 40.58,-53.13 38.83,-52.52 36.7,-51.97 34.19,-51.46 31.28,-50.99 27.94,-50.58 24.16,-50.23 19.91,-49.95 15.21,-49.74 10.07,-49.61 4.49,-49.61 -1.54,-49.75 -8.02,-50 -14.99,-50.28 -22.51,-50.49 -30.67,-50.52 -39.56,-50.38" fill="none" stroke="rgb(145, 85, 61)" stroke-width="2" stroke-linejoin="round" filter="url(#fuzzy)" /><polyline points="39.94,-62.85 40.78,-61.89 41.26,-61.18 41.45,-60.71 41.34,-60.49 40.95,-60.51 40.26,-60.74 39.27,-61.22 37.93,-61.97 36.2,-63.02 34.02,-64.4 31.35,-66.15 28.14,-68.31 24.4,-70.92 20.16,-74.02 15.35,-77.54" fill="none" stroke="rgb(145, 85, 61)" stroke-width="2" stroke-linejoin="round" filter="url(#fuzzy)" /><polyline points="-35.22,-67.72 -34.11,-68.75 -33.13,-69.54 -31.9,-70.43 -30.47,-71.39 -28.99,-72.35 -27.58,-73.25 -26.25,-74.06 -24.99,-74.82 -23.79,-75.53 -22.64,-76.21 -21.53,-76.85 -20.49,-77.44 -19.55,-77.97 -18.73,-78.43 -18.03,-78.81 -17.47,-79.12 -17.08,-79.35 -16.93,-79.48 -17.13,-79.46 -17.75,-79.25" fill="none" stroke="rgb(145, 85, 61)" stroke-width="2" stroke-linejoin="round" filter="url(#fuzzy)" /><polyline points="-20.63,-77.75 -19.73,-78.32 -18.63,-78.81 -17.44,-79.26 -16.27,-79.67 -15.17,-80.03 -14.17,-80.35 -13.29,-80.64 -12.52,-80.89 -11.88,-81.09 -11.38,-81.24 -11.03,-81.33 -10.85,-81.38 -10.84,-81.38 -11.04,-81.34 -11.51,-81.22 -12.31,-80.98 -13.47,-80.63" fill="none" stroke="rgb(145, 85, 61)" stroke-width="2" stroke-linejoin="round" filter="url(#fuzzy)" /><polyline points="25.34,-75.33 26.76,-74.31 27.54,-73.55 27.86,-72.92 27.85,-72.28 27.56,-71.59 26.94,-70.89 25.97,-70.19 24.62,-69.51 22.91,-68.81 20.85,-68.08 18.44,-67.28 15.66,-66.44 12.47,-65.56 8.84,-64.66 4.73,-63.74 0.13,-62.77 -4.95,-61.75 -10.53,-60.7 -16.58,-59.64 -23.09,-58.64 -30.02,-57.76 -37.34,-57.06" fill="none" stroke="rgb(145, 85, 61)" stroke-width="2" stroke-linejoin="round" filter="url(#fuzzy)" /><polyline points="-26.75,-74.57 -25.6,-75.2 -24.44,-75.84 -23.67,-76.25 -23.16,-76.49 -22.75,-76.64 -22.4,-76.74 -22.15,-76.73 -22.08,-76.59 -22.25,-76.26 -22.71,-75.7 -23.5,-74.92 -24.63,-73.9 -26.11,-72.65 -27.95,-71.15 -30.18,-69.34 -32.83,-67.19 -35.92,-64.69 -39.49,-61.84" fill="none" stroke="rgb(145, 85, 61)" stroke-width="2" stroke-linejoin="round" filter="url(#fuzzy)" /><polyline points="-18.82,-78.86 -17.53,-79.12 -15.86,-79.12 -13.89,-78.85 -11.62,-78.36 -9.03,-77.67 -6.1,-76.81 -2.81,-75.78 0.8,-74.61 4.72,-73.32 8.93,-71.94 13.38,-70.46 18.04,-68.9 22.82,-67.26 27.67,-65.54 32.54,-63.71 37.53,-61.65" fill="none" stroke="rgb(145, 85, 61)" stroke-width="2" stroke-linejoin="round" filter="url(#fuzzy)" /><polyline points="16.89,-79.69 16.86,-79.5 17.26,-79.24 17.84,-78.97 18.36,-78.71 18.69,-78.48 18.79,-78.26 18.62,-78.08 18.13,-77.97 17.3,-77.91 16.12,-77.93 14.57,-78 12.65,-78.15 10.29,-78.4 7.4,-78.78 3.88,-79.29 -0.3,-79.91 -5.15,-80.57" fill="none" stroke="rgb(145, 85, 61)" stroke-width="2" stroke-linejoin="round" filter="url(#fuzzy)" /><polyline points="-5.75,-82.41 -4.94,-82.46 -3.92,-82.45 -2.73,-82.41 -1.38,-82.34 0.08,-82.24 1.54,-82.11 2.94,-81.96 4.29,-81.8 5.6,-81.63 6.87,-81.45 8.12,-81.28 9.3,-81.11 10.4,-80.94 11.38,-80.79 12.22,-80.65 12.91,-80.54 13.41,-80.46 13.72,-80.42 13.8,-80.43 13.62,-80.51 13.21,-80.65 12.6,-80.85 11.99,-81.07" fill="none" stroke="rgb(145, 85, 61)" stroke-width="2" stroke-linejoin="round" filter="url(#fuzzy)" /><polyline points="18.27,-78.84 19.36,-78.45 19.94,-78.1 20.31,-77.68 20.47,-77.22 20.37,-76.76 19.99,-76.29 19.32,-75.8 18.36,-75.28 17.08,-74.73 15.43,-74.17 13.36,-73.63 10.87,-73.1 7.92,-72.58 4.5,-72.07 0.54,-71.56 -4,-71.03 -9.17,-70.47 -14.9,-69.86 -21.08,-69.22 -27.7,-68.59" fill="none" stroke="rgb(145, 85, 61)" stroke-width="2" stroke-linejoin="round" filter="url(#fuzzy)" /><polyline points="35.43,-67.52 36.32,-66.67 36.76,-66.11 36.91,-65.71 36.75,-65.45 36.3,-65.33 35.54,-65.36 34.41,-65.55 32.88,-65.95 30.89,-66.61 28.42,-67.55 25.43,-68.77 21.87,-70.28 17.7,-72.08 12.9,-74.18 7.51,-76.59 1.54,-79.37" fill="none" stroke="rgb(145, 85, 61)" stroke-width="2" stroke-linejoin="round" filter="url(#fuzzy)" /><polyline points="16.47,-79.41 16.65,-79.52 16.79,-79.43 17.08,-79.22 17.43,-78.96 17.71,-78.68 17.82,-78.38 17.73,-78.07 17.4,-77.78 16.81,-77.49 15.97,-77.23 14.86,-76.98 13.46,-76.74 11.75,-76.52 9.67,-76.33 7.17,-76.18 4.2,-76.07 0.75,-75.98 -3.19,-75.9 -7.63,-75.85 -12.55,-75.89 -17.74,-76.19" fill="none" stroke="rgb(145, 85, 61)" stroke-width="2" stroke-linejoin="round" filter="url(#fuzzy)" /><polyline points="54.29,-38.82 54.75,-37.74 55.15,-36.46 55.37,-35.46 55.36,-34.89 55.13,-34.73 54.68,-34.93 54.03,-35.4 53.18,-36.12 52.12,-37.09 50.82,-38.33 49.28,-39.84 47.49,-41.68 45.43,-43.88 43.05,-46.53 40.35,-49.69 37.29,-53.4 33.86,-57.64 30.06,-62.39 25.84,-67.63 21.25,-73.35" fill="none" stroke="rgb(145, 85, 61)" stroke-width="2" stroke-linejoin="round" filter="url(#fuzzy)" /><polyline points="-26.75,-74.57 -25.59,-75.21 -24.44,-75.84 -23.66,-76.25 -23.1,-76.52 -22.61,-76.71 -22.15,-76.86 -21.77,-76.94 -21.51,-76.89 -21.45,-76.69 -21.62,-76.31 -22.05,-75.73 -22.76,-74.96 -23.78,-73.96 -25.09,-72.75 -26.7,-71.3 -28.59,-69.63 -30.74,-67.75 -33.14,-65.68 -35.79,-63.45 -38.73,-61.03 -42.1,-58.22" fill="none" stroke="rgb(145, 85, 61)" stroke-width="2" stroke-linejoin="round" filter="url(#fuzzy)" /><polyline points="4.68,-82.26 6.05,-82.21 7.09,-82.03 8.14,-81.83 9.16,-81.63 10.1,-81.44 10.96,-81.24 11.74,-81.05 12.46,-80.85 13.11,-80.66 13.66,-80.49 14.07,-80.35 14.29,-80.25 14.31,-80.21 14.09,-80.21 13.64,-80.27 12.94,-80.39 11.95,-80.57 10.64,-80.81 8.97,-81.12 6.93,-81.48 4.53,-81.91" fill="none" stroke="rgb(145, 85, 61)" stroke-width="2" stroke-linejoin="round" filter="url(#fuzzy)" /><polyline points="51.01,-46.67 51.28,-45.81 51.13,-45.19 50.74,-44.49 50.11,-43.68 49.16,-42.89 47.83,-42.25 46.1,-41.77 43.99,-41.39 41.49,-41.09 38.59,-40.83 35.27,-40.67 31.52,-40.63 27.31,-40.76 22.65,-41.06 17.55,-41.52 12.03,-42.1 6.05,-42.76 -0.39,-43.46 -7.34,-44.15 -14.81,-44.83 -22.8,-45.56 -31.2,-46.57 -39.87,-48.14" fill="none" stroke="rgb(145, 85, 61)" stroke-width="2" stroke-linejoin="round" filter="url(#fuzzy)" /><polyline points="9.67,-81.74 10.05,-81.52 10.9,-81.28 11.8,-81.02 12.78,-80.71 13.84,-80.36 14.92,-80 15.93,-79.67 16.79,-79.38 17.47,-79.14 17.99,-78.96 18.36,-78.83 18.58,-78.74 18.64,-78.71 18.49,-78.75 18.07,-78.88 17.27,-79.14 15.99,-79.58 14.22,-80.21" fill="none" stroke="rgb(145, 85, 61)" stroke-width="2" stroke-linejoin="round" filter="url(#fuzzy)" /><polyline points="27.19,-74.12 28.18,-73.43 28.93,-72.93 29.62,-72.41 30.29,-71.87 30.85,-71.37 31.24,-70.98 31.44,-70.71 31.46,-70.54 31.32,-70.46 31.02,-70.44 30.53,-70.53 29.8,-70.75 28.76,-71.15 27.39,-71.75 25.69,-72.55 23.67,-73.55 21.36,-74.73 18.73,-76.12 15.72,-77.75 12.29,-79.66" fill="none" stroke="rgb(145, 85, 61)" stroke-width="2" stroke-linejoin="round" filter="url(#fuzzy)" /><polyline points="-11.18,-81.24 -10.28,-81.3 -8.75,-81.28 -6.8,-81.07 -4.58,-80.65 -2.17,-80.04 0.4,-79.27 3.15,-78.36 6.09,-77.32 9.22,-76.18 12.51,-74.95 15.88,-73.64 19.28,-72.28 22.66,-70.89 25.97,-69.52 29.23,-68.2 32.4,-66.95 35.41,-65.82" fill="none" stroke="rgb(145, 85, 61)" stroke-width="2" stroke-linejoin="round" filter="url(#fuzzy)" /><polyline points="45.16,-56.14 45.48,-55.57 45.99,-54.79 46.6,-53.86 47.22,-52.9 47.76,-52.01 48.2,-51.26 48.53,-50.65 48.77,-50.19 48.89,-49.89 48.86,-49.83 48.63,-50.04 48.19,-50.54 47.53,-51.37 46.63,-52.55 45.46,-54.15 43.97,-56.24 42.2,-58.8 40.31,-61.63" fill="none" stroke="rgb(145, 85, 61)" stroke-width="2" stroke-linejoin="round" filter="url(#fuzzy)" /><polyline points="1.17,-82.7 1.76,-82.51 2.78,-82.03 4.3,-81.35 6.25,-80.46 8.53,-79.38 11.06,-78.11 13.76,-76.68 16.58,-75.12 19.49,-73.47 22.43,-71.75 25.38,-69.99 28.34,-68.19 31.32,-66.35 34.29,-64.51 37.23,-62.71 40.04,-61.05" fill="none" stroke="rgb(145, 85, 61)" stroke-width="2" stroke-linejoin="round" filter="url(#fuzzy)" /><polyline points="32.84,-69.78 -9.54,-67.56 -19.54,-69.3 -17.06,-69.05 -8.32,-68.4 1.28,-68.98 7.93,-70.77 10.46,-72.76 9.15,-73.91 4.51,-73.74 -2.51,-72.36 -9.37,-70.29 -11.71,-67.97 -4.74,-65.2 13.52,-60.91 37.31,-54.3 47.74,-52.33" fill="none" stroke="rgb(145, 85, 61)" stroke-width="2" stroke-linejoin="round" filter="url(#fuzzy)" /><polyline points="58.17,-27.21 46.64,-46.06 30.86,-54.45 12.05,-59.79 -1.59,-62.66 -7.42,-63.78 -7.5,-64.09 -4.81,-64.33 -1.29,-64.83 2.03,-65.6 4.39,-66.65 5.08,-68.21 3.94,-70.47 1.89,-73.23 0.51,-75.84 0.76,-77.45 1.2,-77.5 -2.22,-76.22 -11.84,-75.56 -12.06,-81.25" fill="none" stroke="rgb(145, 85, 61)" stroke-width="2" stroke-linejoin="round" filter="url(#fuzzy)" /><polyline points="14.31,-80.39 14.16,-64.29 7.11,-59.08 11.38,-56.2 18.44,-55.18 22.94,-56.6 24.86,-59.63 25.57,-62.98 25.75,-65.78 25.3,-67.72 23.88,-68.82 21.13,-69.28 16.95,-69.38 11.67,-69.35 6.02,-69.3 0.91,-69.23 -2.99,-69.22 -5.26,-69.56 -5.41,-70.56 -2.53,-72.06 4.33,-72.94 15.11,-71.44 27.47,-66.91 35.34,-63.41 25.34,-75.33" fill="none" stroke="rgb(145, 85, 61)" stroke-width="2" stroke-linejoin="round" filter="url(#fuzzy)" /><polyline points="47.74,-52.33 -7.74,-58.06 -20.56,-63.41 -18.24,-65.64 -12.03,-65.57 -6.3,-64.59 -2.24,-63.83 0.02,-64.11 0.25,-65.73 -1.74,-68.28 -5.6,-70.83 -10.35,-72.44 -14.6,-72.55 -17.02,-71.11 -16.68,-68.55 -13.36,-65.67 -7.98,-63.45 -2.61,-62.69 0.45,-63.29 0.49,-64 -1.21,-63.2 -5.05,-61.31 -18.32,-62.14 -38.54,-64.36" fill="none" stroke="rgb(145, 85, 61)" stroke-width="2" stroke-linejoin="round" filter="url(#fuzzy)" /><polyline points="29.8,-72.31 15.4,-77.73 15.79,-75.1 17.4,-68.04 17.14,-60.53 17.63,-55.1 21.06,-52.08 26.72,-50.66 31.6,-50.6 32.31,-52.79 27.29,-58.23 18.55,-66.24 11.44,-73.76 11.76,-76.58 22.43,-71.16 47.74,-52.33" fill="none" stroke="rgb(145, 85, 61)" stroke-width="2" stroke-linejoin="round" filter="url(#fuzzy)" /><polyline points="1.82,-82.4 26.82,-65.14 39.07,-53.81 39.89,-54.02 35.4,-59.51 29.96,-64.72 24.85,-67.61 19.81,-68.67 14.56,-69.24 9.51,-70.4 5.59,-72.53 3.57,-75.26 3.3,-77.88 3.65,-79.77 3.6,-80.58 3.87,-79.77 7.92,-75.57 21.83,-62.66 57.99,-27.33" fill="none" stroke="rgb(145, 85, 61)" stroke-width="2" stroke-linejoin="round" filter="url(#fuzzy)" /><polyline points="48.82,-50.19 27.78,-61.11 17.5,-60.64 10.44,-60.36 9.02,-60.72 10.91,-61.87 13,-63.52 14.15,-64.93 14.74,-65.5 15.44,-64.99 16.37,-63.55 16.98,-61.58 16.36,-59.66 13.87,-58.49 9.62,-58.75 4.58,-60.82 0.13,-64.5 -2.75,-68.89 -4.1,-72.45 -4.6,-73.58 -3.39,-71.23 4.67,-65.44 26.62,-57.02 51.01,-46.67" fill="none" stroke="rgb(145, 85, 61)" stroke-width="2" stroke-linejoin="round" filter="url(#fuzzy)" /><polyline points="48.82,-50.19 7.94,-62.09 5.1,-69.78 10.27,-72.83 16.29,-72.49 19.56,-70.73 18.15,-68.86 12.58,-67.31 5.18,-66.02 -1.92,-64.81 -8.22,-63.5 -14.02,-61.87 -18.37,-60.01 -18.87,-58.69 -15.83,-59.45 -14.2,-64.56 1.82,-82.4" fill="none" stroke="rgb(145, 85, 61)" stroke-width="2" stroke-linejoin="round" filter="url(#fuzzy)" /><polyline points="43.21,-58.61 -2.37,-61.16 -4.79,-68.33 -1.91,-73.06 -0.86,-75.24 1.5,-75.36 7.27,-73.9 14.79,-71.68 20.45,-69.82 21.56,-69.14 18.11,-69.55 12.68,-70.1 8.78,-69.75 8.54,-68.66 10.89,-69.09 11.71,-74.16 16.93,-79.26" fill="none" stroke="rgb(145, 85, 61)" stroke-width="2" stroke-linejoin="round" filter="url(#fuzzy)" /><polyline points="53.27,-41.31 30.93,-51.6 11.56,-60.51 5.17,-65.92 6.77,-68.06 11.48,-68.09 15.84,-67.14 17.63,-66.11 16.02,-65.67 11.72,-66.26 6.52,-68.01 2.33,-70.72 0.03,-73.89 -0.82,-76.92 -1.47,-79.23 -3.06,-80.43 -6.16,-80.34 -10.87,-78.9 -16.84,-76.16 -21.79,-72.84 -18.1,-71.87 11.75,-81.16" fill="none" stroke="rgb(145, 85, 61)" stroke-width="2" stroke-linejoin="round" filter="url(#fuzzy)" /><polyline points="-14.8,-80.18 9.32,-71.54 11.84,-66.09 4.45,-66.65 -2.13,-67.75 -3.88,-66.72 -1.74,-64.27 0.83,-62.41 1.01,-62.62 -1.26,-64.99 -3.77,-68.41 -4.12,-71.28 -1.4,-72.33 3.94,-70.98 11.4,-67.42 20.21,-62.39 26.03,-56.9 15.85,-53.29 -38.84,-64.18" fill="none" stroke="rgb(145, 85, 61)" stroke-width="2" stroke-linejoin="round" filter="url(#fuzzy)" /><polyline points="12.89,-80.78 28.96,-68.46 33.62,-63.04 34.78,-60.29 33.52,-59.09 29.92,-57.98 23.82,-56.44 15.39,-54.95 5.27,-54.3 -5.17,-54.98 -13.9,-57.04 -18.49,-60.21 -17.1,-64.04 -9.72,-67.84 1.11,-70.74 10.67,-71.82 13.37,-70.68 4.13,-67.86 -19.06,-64.65 -42.09,-60.32" fill="none" stroke="rgb(145, 85, 61)" stroke-width="2" stroke-linejoin="round" filter="url(#fuzzy)" /><polyline points="23.24,-76.68 16.69,-69.64 12.75,-64.04 2.82,-64.87 -7.06,-67.16 -12.56,-68.92 -12.64,-70.05 -8.33,-70.42 -1.34,-69.58 6.57,-67.27 13.6,-63.78 18,-59.94 18.63,-56.96 15.63,-55.94 10.7,-57.41 6.17,-60.81 3.64,-64.76 3.95,-67.67 9.79,-68.27 24.88,-66.16 35.43,-67.52" fill="none" stroke="rgb(145, 85, 61)" stroke-width="2" stroke-linejoin="round" filter="url(#fuzzy)" /><polyline points="-48.95,-50.32 -21.38,-67.38 -12.88,-71.35 -12.15,-72.59 -8.98,-73.58 -1.43,-73.76 7.84,-72.55 15.44,-69.95 19.34,-66.35 19.27,-62.3 16.24,-58.62 11.55,-56.43 6.23,-56.8 0.88,-60.12 -3.68,-65.63 -6.02,-71.66 -4.71,-76.52 -0.78,-79.55 1.19,-81.33 2.76,-82.36" fill="none" stroke="rgb(145, 85, 61)" stroke-width="2" stroke-linejoin="round" filter="url(#fuzzy)" /><polyline points="-31.31,-71.03 11.32,-64.88 17.01,-67.42 15.56,-68.24 13.84,-66.7 11.99,-65.16 10.17,-65.54 8.75,-68.09 7.69,-71.62 6.84,-74.42 6.14,-75.22 5.52,-73.66 4.7,-70.34 3.42,-66.45 2.05,-62.98 1.02,-60.22 -2.54,-58.58 -17,-61.04 -35.22,-67.72" fill="none" stroke="rgb(145, 85, 61)" stroke-width="2" stroke-linejoin="round" filter="url(#fuzzy)" /><polyline points="-31.31,-71.03 7.54,-68.77 17.52,-71.43 22.15,-71.51 24.87,-69.21 26.02,-65.67 25.98,-61.78 25.1,-58.32 23.71,-55.95 22.12,-55.1 20.67,-55.69 19.59,-57.08 18.97,-58.25 18.38,-58.3 16.74,-57.12 13.26,-55.59 9.6,-54.79 10.64,-55.22 19.31,-57.56 26.12,-65.36 11.43,-81.09" fill="none" stroke="rgb(145, 85, 61)" stroke-width="2" stroke-linejoin="round" filter="url(#fuzzy)" /><polyline points="-48.95,-50.32 16.81,-40.03 30.42,-41.15 22.01,-46.38 10.27,-52.27 2.02,-57.4 -2.98,-61.65 -6.35,-65.18 -8.53,-67.99 -8.97,-69.93 -7.21,-71.09 -3.49,-71.77 1.3,-72.33 6.17,-72.84 10.69,-73.02 14.92,-72.44 18.7,-70.71 21.34,-67.58 22.9,-63.03 23.39,-60.36 2.76,-82.36" fill="none" stroke="rgb(145, 85, 61)" stroke-width="2" stroke-linejoin="round" filter="url(#fuzzy)" /><polyline points="54.29,-38.82 47.57,-45.18 35.13,-52.93 24.54,-56.78 13.99,-58.6 2.06,-59.95 -9.12,-61.1 -16.19,-62.03 -17.23,-62.87 -12.78,-63.74 -5.36,-64.61 1.97,-65.24 7.06,-65.31 9.66,-64.54 11.22,-62.93 13.36,-61.01 16.19,-60.03 17.85,-61.33 16.64,-64.87 14.8,-67.76 19.72,-64.56 37.62,-50.65 57.87,-28.25" fill="none" stroke="rgb(145, 85, 61)" stroke-width="2" stroke-linejoin="round" filter="url(#fuzzy)" /><polyline points="36.64,-66.47 27.61,-70.16 28.99,-67.64 26.19,-66.68 19.13,-67.89 11.99,-70.19 8.11,-72.33 8.11,-73.59 10.31,-73.83 12.34,-73.27 12.71,-72.1 11.65,-70.44 10.43,-68.41 9.55,-66.37 7.3,-64.99 1.28,-65.1 -6.91,-67.31 -11.47,-71.78 -26.75,-74.57" fill="none" stroke="rgb(145, 85, 61)" stroke-width="2" stroke-linejoin="round" filter="url(#fuzzy)" /><polyline points="43.5,-58.22 26.1,-69.45 26.14,-66.33 30.27,-62.15 30.29,-62.7 25.88,-66.81 19.74,-71.6 14.03,-75.19 9.77,-77.13 7.39,-77.68 7.09,-77.29 8.5,-76.29 10.31,-74.9 10.56,-73.52 6.9,-73.2 -3.71,-75.85 -16.49,-79.75" fill="none" stroke="rgb(145, 85, 61)" stroke-width="2" stroke-linejoin="round" filter="url(#fuzzy)" /><polyline points="1.82,-82.4 7.09,-70.56 -7.42,-66.96 -12.57,-65.84 -7.59,-66.32 0.8,-68.11 7.58,-70.35 11.35,-71.88 12.95,-71.92 13.67,-70.44 14.09,-68.1 14.02,-65.97 12.98,-64.97 10.6,-65.3 6.67,-66.28 0.95,-66.79 -7.09,-66.34 -18.04,-65.79 -30.6,-65.43 -44.44,-57.28" fill="none" stroke="rgb(145, 85, 61)" stroke-width="2" stroke-linejoin="round" filter="url(#fuzzy)" /><polyline points="-5.06,-82.56 -13.61,-71.98 -4.36,-60.97 9.06,-57.88 16.55,-60.17 17.33,-63.31 13.81,-64.84 7.93,-64.74 0.98,-64.25 -5.81,-64.39 -10.98,-65.42 -13.22,-66.95 -11.8,-68.46 -6.81,-69.62 0.81,-70.34 9.54,-70.63 17.68,-70.38 23.9,-69.45 27.54,-67.82 28.44,-65.91 26.51,-64.65 21.7,-65.05 14.9,-67.11 10.82,-69.51 33.44,-69.27" fill="none" stroke="rgb(145, 85, 61)" stroke-width="2" stroke-linejoin="round" filter="url(#fuzzy)" /><polyline points="56.38,-33.25 11.36,-50.07 6.16,-60.5 6.48,-68.23 6.83,-73.02 6.3,-74.85 5.26,-74.54 4.61,-73.44 4.94,-72.75 5.86,-72.98 6.29,-73.86 5.32,-74.74 3.19,-74.99 1.45,-74.23 2.29,-72.35 6.99,-69.35 14.58,-65.43 21.39,-61.24 22.23,-58.26 13.33,-58.67 -3.12,-63.97 -13.94,-72.99 1.17,-82.7" fill="none" stroke="rgb(145, 85, 61)" stroke-width="2" stroke-linejoin="round" filter="url(#fuzzy)" /><polyline points="47.74,-52.33 23.85,-65.57 17.03,-68.76 14.72,-70.51 17.49,-70.05 22.95,-67.72 27.28,-65.24 28.26,-64.19 26.22,-65.04 23.19,-67.13 21.24,-69.31 21.25,-70.74 22.78,-71.24 24.81,-71 26.59,-70.09 27.28,-68.38 24.4,-66.22 12.62,-64.87 -13.26,-64.61 -44.44,-57.28" fill="none" stroke="rgb(145, 85, 61)" stroke-width="2" stroke-linejoin="round" filter="url(#fuzzy)" /><polyline points="-29.46,-72.6 -8.56,-77.27 5.5,-73.7 18.42,-66.63 25.19,-61.9 24.29,-61.73 18.69,-64.77 12.54,-68.62 8.25,-71.66 5.9,-73.34 4.56,-73.57 3.85,-72.43 4.48,-70.25 7.53,-67.81 13.21,-65.98 20.34,-64.91 27.46,-63.36 34.47,-59.06 42.81,-50.53 51.74,-40.38 54.29,-38.82" fill="none" stroke="rgb(145, 85, 61)" stroke-width="2" stroke-linejoin="round" filter="url(#fuzzy)" /><polyline points="53.27,-41.31 22.14,-62.92 20.04,-66.77 18.4,-65.25 12.16,-63.9 5.42,-64.03 2.79,-64.54 5.05,-64.02 9.23,-62.21 11.43,-60.06 9.54,-58.96 4.38,-59.75 -1.12,-62.26 -3.75,-65.51 -1.86,-68.15 3.7,-68.87 9.82,-66.71 12.96,-61.62 11.21,-54.79 1.85,-48.92 -46.15,-54.63" fill="none" stroke="rgb(145, 85, 61)" stroke-width="2" stroke-linejoin="round" filter="url(#fuzzy)" /><polyline points="41.29,-61.45 7.71,-73.53 -2.33,-75.02 3.5,-70.49 15.24,-64.01 24.63,-59.68 28.04,-59.26 26,-61.71 20.97,-64.79 15.08,-66.81 9.24,-67.42 3.55,-67.2 -1.69,-66.79 -5.41,-66.34 -6.06,-65.56 -2.68,-64.25 4.13,-62.81 11.85,-62.21 16.77,-63.25 15.88,-65.52 9.42,-67.16 -1.46,-66.28 -38.54,-64.36" fill="none" stroke="rgb(145, 85, 61)" stroke-width="2" stroke-linejoin="round" filter="url(#fuzzy)" /><polyline points="20.91,-77.86 21.33,-67.66 11.23,-70.54 5.63,-74.47 2.7,-76.14 1.2,-75.41 1.03,-73.35 2.03,-71.34 3.66,-70.36 5.4,-70.67 7,-71.8 8.6,-72.9 10.56,-73.2 13.14,-72.37 16.26,-70.57 19.27,-68.33 21.04,-66.34 20.5,-65.23 17.58,-65.55 14.26,-67.29 14.6,-69.1 22.63,-67.47 37.93,-58.69 51.6,-45.57" fill="none" stroke="rgb(145, 85, 61)" stroke-width="2" stroke-linejoin="round" filter="url(#fuzzy)" /><polyline points="-44.44,-57.28 8.09,-62.47 28.22,-62.03 31.85,-60.88 25.84,-61.12 16.57,-62.21 9.16,-63.05 5.1,-63.45 2.78,-63.94 0.48,-65.01 -1.47,-66.74 -1.11,-68.84 2.68,-70.94 8.45,-72.43 13.13,-72.36 15.36,-69.51 18.03,-63.56 24.4,-59.24 14.31,-80.39" fill="none" stroke="rgb(145, 85, 61)" stroke-width="2" stroke-linejoin="round" filter="url(#fuzzy)" /><polyline points="57.99,-27.33 20.37,-61.39 4.1,-71.4 1.15,-73.66 4.93,-74.41 9.87,-75.21 13.51,-75.9 15.67,-76 16.78,-75.4 17.07,-74.38 16.52,-73.45 15.15,-72.9 13.17,-72.65 11.02,-72.29 9.2,-71.4 8.18,-69.85 8.13,-67.89 8.74,-65.85 9.39,-63.84 9.8,-61.65 10.44,-59.46 11.72,-58.49 11.1,-59.68 -0.35,-59.48 -48.61,-50.79" fill="none" stroke="rgb(145, 85, 61)" stroke-width="2" stroke-linejoin="round" filter="url(#fuzzy)" /><polyline points="-26.21,-74.81 -21.26,-73.41 -10.7,-68.11 -2.15,-62.84 0.99,-59.7 -0.14,-59.45 -3.13,-61.57 -6.02,-64.8 -7.74,-67.87 -7.84,-69.96 -6.14,-70.67 -2.5,-69.91 3.14,-67.71 10.63,-64.33 19.29,-60.23 27.65,-56.21 33.61,-53.32 35.24,-52.35 31.86,-53.21 24.48,-54.74 15.22,-55.9 6.12,-57.67 -3.35,-62.03 -36.74,-66.2" fill="none" stroke="rgb(145, 85, 61)" stroke-width="2" stroke-linejoin="round" filter="url(#fuzzy)" /><polyline points="9.67,-81.74 20.88,-61.84 4.66,-62.95 -7.5,-65.95 -9.86,-67.85 -5.91,-69.06 -0.38,-69.99 4.34,-70.19 8.54,-68.88 13.53,-65.87 19.58,-62.02 25.3,-58.92 28.51,-58.16 27.31,-60.67 20.42,-66.36 7.22,-72.94 -11.75,-74.66 -38.86,-64.09" fill="none" stroke="rgb(145, 85, 61)" stroke-width="2" stroke-linejoin="round" filter="url(#fuzzy)" /><polyline points="11.21,-81.39 -11.75,-72.69 -7.9,-70.72 -1.07,-67.81 -0.13,-66.04 -5.02,-66.43 -10.98,-67.99 -13.16,-69.36 -9.47,-69.84 -1.2,-69.49 8.27,-69.05 15.67,-69.36 19.8,-70.77 21.77,-72.75 23.03,-74.43 23.09,-75.7 19.53,-77.57 9.27,-81.56" fill="none" stroke="rgb(145, 85, 61)" stroke-width="2" stroke-linejoin="round" filter="url(#fuzzy)" />
    </g>
    
        <g id="pointNose">
          <g id="rightNose"><circle r="1.58" cx="10.206000000000001" cy="7.443999999999999" stroke="black" fill="none" stroke-width="1.0" filter="url(#fuzzy)" /><circle r="2.56" cx="7.958" cy="8.312" stroke="black" fill="none" stroke-width="1.0" filter="url(#fuzzy)" /><circle r="1.8679999999999999" cx="9.378" cy="7.428000000000001" stroke="black" fill="none" stroke-width="1.0" filter="url(#fuzzy)" /><circle r="2.082" cx="6.906000000000001" cy="7.411999999999999" stroke="black" fill="none" stroke-width="1.0" filter="url(#fuzzy)" /><circle r="1.698" cx="6.582000000000001" cy="5.976" stroke="black" fill="none" stroke-width="1.0" filter="url(#fuzzy)" /><circle r="1.526" cx="7.558" cy="4.532" stroke="black" fill="none" stroke-width="1.0" filter="url(#fuzzy)" /><circle r="2.842" cx="7.3260000000000005" cy="6.151999999999999" stroke="black" fill="none" stroke-width="1.0" filter="url(#fuzzy)" /><circle r="1.228" cx="9.954" cy="7.5120000000000005" stroke="black" fill="none" stroke-width="1.0" filter="url(#fuzzy)" /><circle r="1.296" cx="6.506" cy="7.8759999999999994" stroke="black" fill="none" stroke-width="1.0" filter="url(#fuzzy)" /><circle r="1.366" cx="7.718" cy="6.4" stroke="black" fill="none" stroke-width="1.0" filter="url(#fuzzy)" /></g>
          <g id="leftNose"><circle r="1.294" cx="-9.213999999999999" cy="7.109999999999999" stroke="black" fill="none" stroke-width="1.0" filter="url(#fuzzy)" /><circle r="2.06" cx="-8.55" cy="6.074" stroke="black" fill="none" stroke-width="1.0" filter="url(#fuzzy)" /><circle r="2.556" cx="-9.053999999999998" cy="4.146" stroke="black" fill="none" stroke-width="1.0" filter="url(#fuzzy)" /><circle r="1.808" cx="-8.318" cy="7.798" stroke="black" fill="none" stroke-width="1.0" filter="url(#fuzzy)" /><circle r="1.604" cx="-6.933999999999999" cy="6.166" stroke="black" fill="none" stroke-width="1.0" filter="url(#fuzzy)" /><circle r="1.234" cx="-9.23" cy="7.853999999999999" stroke="black" fill="none" stroke-width="1.0" filter="url(#fuzzy)" /><circle r="2.974" cx="-6.789999999999999" cy="6.914" stroke="black" fill="none" stroke-width="1.0" filter="url(#fuzzy)" /><circle r="1.3639999999999999" cx="-8.11" cy="7.062000000000001" stroke="black" fill="none" stroke-width="1.0" filter="url(#fuzzy)" /><circle r="2.0220000000000002" cx="-6.534" cy="7.126000000000001" stroke="black" fill="none" stroke-width="1.0" filter="url(#fuzzy)" /><circle r="1.194" cx="-9.822" cy="5.066" stroke="black" fill="none" stroke-width="1.0" filter="url(#fuzzy)" /></g>
        </g>
      
    <g id="mouth">
      <polyline points="6.39,58.19 6.41,58.53 6.39,58.87 6.31,59.32 6.28,59.44 6.24,59.67 5.98,60.75 6.13,60.45 5.94,60.99 5.78,61.42 5.5,62.04 5.51,62.06 5.5,62.17 5,62.97 5.28,62.6 4.85,63.38 4.45,63.95 4.4,63.96 4.13,64.33 3.58,64.95 4.09,64.27 3.66,64.8 2.9,65.63 3.11,65.32 2.65,65.8 2.78,65.66 2.69,65.74 1.53,66.61 1.06,66.94 1.62,66.56 1.29,66.77 0.59,67.2 0.17,67.38 -0.61,67.75 0.03,67.51 -0.62,67.76 -1.64,68.16 -1.4,68.09 -2.3,68.35 -2.9,68.51 -2.56,68.42 -2.56,68.43 -3.54,68.64 -4.02,68.73 -3.87,68.69 -4.3,68.76 -5.51,68.86 -5.11,68.84 -5.47,68.85 -5.96,68.87 -7.06,68.84 -7.12,68.84 -7.26,68.83 -8.29,68.72 -7.75,68.78 -8.65,68.65 -8.31,68.71 -8.93,68.6 -9.33,68.52 -9.62,68.46 -9.88,68.39 -10.83,68.1 -11.51,67.83 -10.96,68.04 -11.96,67.67 -11.85,67.71 -12.98,67.17 -12.76,67.28 -13.4,66.91 -13.49,66.84 -13.96,66.51 -14.35,66.29 -14.39,66.28 -15.08,65.68 -15.17,65.59 -15.75,65.1 -15.38,65.49 -15.39,65.4 -16.54,64.21 -15.99,64.8 -16.88,63.73 -16.87,63.81 -17.1,63.42 -17.54,62.74 -17.49,62.82 -17.6,62.71 -17.95,62 -17.94,62.18 -18.36,61.15 -18.3,61.34 -18.28,61.23 -18.43,61 -18.57,60.36 -18.68,60.02 -18.72,59.79 -18.79,59.46 -18.86,58.8 -18.89,58.67 -18.91,58.44 -18.94,58.21 -18.89,57.33 -18.85,56.77 -18.84,56.54 -18.86,56.96 -18.81,56.83 -18.79,56.49 -18.55,55.42 -18.64,55.4 -18.52,55.39 -18.47,55.06 -18.2,54.32 -18.29,54.41 -18.19,54.19 -17.45,52.89 -17.71,53.27 -17.24,52.58 -17.29,52.57 -16.88,52 -16.47,51.46 -16.39,51.36 -16.39,51.35 -16.15,51.17 -15.85,50.83 -15.87,50.9 -14.84,49.96 -15.27,50.32 -14.74,49.87 -14.56,49.79 -13.84,49.31 -14.04,49.43 -13.54,49.1 -13.65,49.15 -13.11,48.85 -11.83,48.26 -12.59,48.55 -12.34,48.44 -11.56,48.15 -11.55,48.15 -10.98,47.93 -10.41,47.74 -9.51,47.52 -8.85,47.4 -9.52,47.51 -9.3,47.49 -8.74,47.37 -7.33,47.21 -8.03,47.28 -6.71,47.19 -6.01,47.19 -6.1,47.19 -5.32,47.23 -5.66,47.2 -4.97,47.25 -4.61,47.29 -3.98,47.38 -3.89,47.39 -3.87,47.39 -3.38,47.49 -3.14,47.54 -1.74,47.92 -2.55,47.67 -1.84,47.89 -1.65,47.97 -0.96,48.24 -1.28,48.11 0.01,48.66 0,48.66 0.08,48.67 1.05,49.21 1.19,49.28 1.26,49.36 1.58,49.56 1.94,49.78 2.53,50.23 2.17,50.02 2.68,50.4 3.08,50.73 3.48,51.15 3.96,51.68 3.8,51.43 4.33,52.06 4.58,52.44 4.76,52.64 4.71,52.65 5.04,53.14 4.99,53.06 5.46,54.06 5.49,53.98 5.81,54.81 5.86,55.03 6.05,55.57 6.13,55.79 6.15,56.13 6.24,56.36 6.21,56.37 6.31,57.14 6.42,57.48 6.39,56.96 6.43,57.73 6.44,58.29" fill="rgb(215,127,140)" stroke="black" stroke-width="3" stroke-linejoin="round" filter="url(#fuzzy)" />
    </g>
  </svg>
  