
  <svg viewBox="-100 -100 200 200" xmlns="http://www.w3.org/2000/svg" width="500" height="500" id="face-svg">
    <defs>
      <clipPath id="leftEyeClipPath">
        <polyline points="32.55,2.05 32.48,1.66 32.35,1.26 32.17,0.87 31.94,0.48 31.65,0.08 31.32,-0.31 30.93,-0.7 30.5,-1.08 30.02,-1.46 29.5,-1.84 28.93,-2.21 28.32,-2.58 27.67,-2.94 26.98,-3.29 26.25,-3.63 25.54,-4.08 24.77,-4.51 23.94,-4.94 23.05,-5.34 22.11,-5.74 21.12,-6.11 20.08,-6.48 19,-6.82 17.88,-7.14 16.71,-7.45 15.51,-7.73 14.29,-7.99 13.03,-8.24 11.75,-8.46 10.46,-8.65 9.15,-8.83 7.82,-8.98 6.49,-9.11 5.16,-9.22 3.83,-9.3 2.5,-9.37 1.17,-9.41 -0.14,-9.42 -1.44,-9.42 -2.73,-9.39 -3.99,-9.35 -5.23,-9.28 -6.45,-9.19 -7.64,-9.09 -8.81,-8.97 -9.94,-8.82 -11.04,-8.67 -12.1,-8.49 -13.13,-8.3 -14.12,-8.1 -15.08,-7.88 -15.99,-7.66 -16.87,-7.42 -17.71,-7.17 -18.51,-6.91 -19.26,-6.64 -19.98,-6.36 -20.67,-6.08 -21.31,-5.8 -21.92,-5.51 -22.49,-5.22 -23.03,-4.92 -23.53,-4.63 -24,-4.33 -24.45,-4.04 -24.86,-3.74 -25.25,-3.44 -25.6,-3.15 -25.93,-2.85 -26.23,-2.56 -26.5,-2.26 -26.74,-1.97 -26.96,-1.67 -27.16,-1.38 -27.32,-1.09 -27.47,-0.81 -27.59,-0.53 -27.69,-0.25 -27.77,0.03 -23.29,1.74 -22.74,2.01 -22.18,2.27 -21.62,2.53 -21.04,2.79 -20.46,3.04 -19.87,3.29 -19.27,3.53 -18.66,3.77 -18.05,4.01 -17.43,4.24 -16.8,4.47 -16.17,4.69 -15.53,4.91 -14.89,5.12 -14.24,5.33 -13.58,5.54 -12.91,5.74 -12.24,5.95 -11.55,6.14 -10.86,6.34 -10.17,6.53 -9.47,6.72 -8.77,6.91 -8.06,7.1 -7.35,7.28 -6.64,7.46 -5.93,7.63 -5.21,7.8 -4.49,7.97 -3.78,8.13 -3.06,8.29 -2.34,8.45 -1.62,8.6 -0.9,8.75 -0.17,8.89 0.55,9.02 1.27,9.15 2,9.28 2.73,9.39 3.46,9.5 4.19,9.6 4.92,9.7 5.66,9.78 6.4,9.86 7.15,9.92 7.9,9.98 8.66,10.02 9.43,10.06 10.2,10.08 10.97,10.09 11.76,10.09 12.55,10.07 13.35,10.04 14.16,9.99 14.98,9.93 15.81,9.86 16.65,9.77 17.5,9.66 18.35,9.54 19.22,9.4 20.09,9.24 20.97,9.07 21.85,8.89 22.74,8.68 23.42,8.54 24.1,8.38 24.77,8.22 25.43,8.04 26.08,7.85 26.73,7.65 27.36,7.44 27.98,7.21 28.59,6.98 29.18,6.73 29.75,6.47 30.3,6.2 30.83,5.92 31.33,5.63 31.81,5.32" />
      </clipPath>
      <clipPath id="rightEyeClipPath">
        <polyline points="-32.22,1.19 -32,0.81 -31.74,0.43 -31.44,0.05 -31.09,-0.32 -30.69,-0.7 -30.25,-1.08 -29.77,-1.45 -29.24,-1.82 -28.68,-2.18 -28.08,-2.54 -27.43,-2.89 -26.75,-3.23 -26.04,-3.57 -25.29,-3.9 -24.5,-4.22 -23.74,-4.65 -22.92,-5.07 -22.04,-5.47 -21.11,-5.86 -20.14,-6.23 -19.11,-6.58 -18.04,-6.91 -16.92,-7.22 -15.77,-7.52 -14.58,-7.79 -13.37,-8.04 -12.12,-8.27 -10.85,-8.48 -9.56,-8.66 -8.25,-8.82 -6.93,-8.96 -5.6,-9.08 -4.26,-9.17 -2.92,-9.24 -1.59,-9.29 -0.26,-9.32 1.06,-9.32 2.37,-9.31 3.67,-9.27 4.95,-9.22 6.2,-9.14 7.43,-9.05 8.64,-8.94 9.82,-8.81 10.97,-8.66 12.08,-8.5 13.16,-8.33 14.2,-8.14 15.21,-7.93 16.18,-7.72 17.11,-7.49 18,-7.26 18.84,-7.01 19.65,-6.76 20.41,-6.49 21.14,-6.23 21.82,-5.95 22.46,-5.68 23.06,-5.39 23.63,-5.11 24.15,-4.83 24.64,-4.54 25.1,-4.25 25.52,-3.97 25.91,-3.68 26.27,-3.4 26.6,-3.12 26.89,-2.84 27.15,-2.55 27.39,-2.27 27.59,-1.99 27.76,-1.71 27.91,-1.44 28.03,-1.17 28.12,-0.9 28.18,-0.63 28.22,-0.36 28.23,-0.1 28.22,0.15 24.21,1.43 23.6,1.7 22.98,1.96 22.34,2.23 21.7,2.48 21.04,2.74 20.38,2.98 19.7,3.23 19.02,3.47 18.33,3.71 17.63,3.94 16.92,4.17 16.2,4.39 15.48,4.61 14.76,4.83 14.02,5.05 13.27,5.26 12.52,5.46 11.75,5.67 10.98,5.87 10.2,6.07 9.41,6.27 8.62,6.47 7.83,6.66 7.03,6.85 6.23,7.03 5.42,7.22 4.62,7.4 3.81,7.57 3.01,7.75 2.2,7.92 1.4,8.08 0.6,8.24 -0.2,8.4 -1,8.55 -1.79,8.7 -2.59,8.84 -3.38,8.97 -4.16,9.1 -4.95,9.22 -5.73,9.33 -6.5,9.43 -7.28,9.53 -8.05,9.62 -8.82,9.69 -9.59,9.76 -10.35,9.82 -11.12,9.86 -11.88,9.9 -12.64,9.92 -13.4,9.93 -14.16,9.92 -14.92,9.9 -15.68,9.87 -16.44,9.82 -17.2,9.76 -17.96,9.68 -18.73,9.58 -19.49,9.47 -20.25,9.35 -21.02,9.2 -21.79,9.04 -22.55,8.87 -23.32,8.67 -24.08,8.46 -24.69,8.32 -25.28,8.17 -25.87,8.01 -26.45,7.83 -27.02,7.65 -27.58,7.45 -28.13,7.25 -28.66,7.03 -29.18,6.8 -29.68,6.57 -30.16,6.32 -30.63,6.07 -31.07,5.8 -31.49,5.52 -31.89,5.24" />
      </clipPath>
      <filter id="fuzzy">
        <feTurbulence id="turbulence" baseFrequency="0.05" numOctaves="3" type="noise" result="noise" />
        <feDisplacementMap in="SourceGraphic" in2="noise" scale="2" />
      </filter>
      <linearGradient id="rainbowGradient" x1="0%" y1="0%" x2="100%" y2="0%">
        <stop offset="0%" style="stop-color: rgb(233, 236, 239); stop-opacity: 1" />
        <stop offset="50%" style="stop-color: rgb(192, 192, 192); stop-opacity: 1" />
        <stop offset="100%" style="stop-color: rgb(173, 216, 230); stop-opacity: 1" />
      </linearGradient>
    </defs>
    <rect x="-100" y="-100" width="100%" height="100%" fill="rgb(211, 211, 211)" />
    <polyline id="faceContour" points="78.38,1.58 78.3,2.2 78.45,0.57 78.38,4.57 78.31,7.09 78.2,5.9 77.96,7.36 78.15,9.3 77.81,9.47 77.47,12.15 77.42,13.69 77.53,13.82 76.88,15.84 77.2,15.01 76.82,17.85 76.04,20.85 75.69,20.64 75.74,22.08 75.25,23.66 75.15,23.3 74.47,25.62 73.95,26.97 74.1,27.27 73.61,28.72 73.77,28.47 73.26,29.62 71.91,32.67 71.61,33.47 70.19,36.55 70.8,35.63 70.49,37.08 68.91,39.72 68.63,40.04 68.13,41.43 68.07,41.51 66.84,43.69 66.28,44.51 65.31,46.15 64.51,47.59 64.69,46.87 63.41,48.95 62.4,50.02 61.09,52.03 61.72,51.16 60.24,52.76 59.96,53.65 59.52,54.06 59.3,54.69 56.14,57.79 55.8,58.56 56.11,57.86 55.23,58.73 53.84,60.43 53.12,61.53 52.57,61.39 51.59,62.35 50.12,63.78 48.23,65.73 48.89,64.69 47.2,66.42 47.11,66.49 45.22,67.55 43.75,68.24 42.21,69.91 40.97,70.43 41.64,70.27 41.05,70.48 38.22,71.93 37.21,73.11 36.74,73.48 36.38,73.48 34.15,74.71 32.39,75.34 32.85,75.43 30.07,76.65 28.86,76.87 28.96,77.3 26.96,77.93 27.9,77.56 26.33,77.96 24,78.95 21.34,79.88 23.1,79.06 20.87,80.1 19.95,80.04 17.7,80.48 18.01,80.59 15.93,81.05 13.43,81.91 12.25,81.84 11.51,81.83 11.13,82.09 10.93,81.98 8.56,82.14 8.89,82.2 6.5,82.68 4.16,82.98 3.03,82.96 2.66,83.03 0.28,83.04 -0.05,82.66 -1.42,82.71 -0.95,82.68 -2.96,82.64 -3.9,82.84 -5.24,82.67 -8.57,82.21 -6.9,82.57 -10.35,82.33 -11.89,81.77 -13.5,81.79 -13.52,81.68 -15.46,81.4 -15.47,81.2 -15.26,81.48 -18.77,80.71 -19.44,80.33 -21.12,79.79 -22.35,79.58 -22.19,79.35 -23.7,78.93 -25.1,78.37 -26.14,78.17 -28.35,77.38 -28.68,77.35 -30.84,76.21 -31.55,75.68 -32.43,75.62 -33.13,75.31 -33.17,75.1 -34.92,74.23 -37.67,72.46 -36.4,73.28 -39.58,71.85 -41.38,70.39 -41.04,70.95 -41.59,70.33 -42.83,69.93 -44.42,68.21 -45.36,67.98 -46.37,66.94 -48.19,65.44 -48.86,65.19 -49.77,64.24 -50.67,63.14 -50.21,63.74 -51.48,62.37 -53.15,60.98 -54.41,60.02 -53.08,61.11 -54.42,59.42 -57.56,56.47 -58.08,55.94 -58.53,55.3 -58.6,55.49 -59.12,54.37 -59.77,53.95 -62.07,50.98 -61,51.91 -61.67,51.14 -63.21,48.94 -63.71,47.91 -65.46,45.72 -65.82,44.73 -66.77,43.64 -66.98,43.36 -66.94,43.12 -68.26,40.5 -68.56,40.08 -69.81,37.87 -70.1,37.15 -71.24,34.81 -71.16,35.04 -71.95,33.29 -72.18,33.06 -72.24,31.95 -72.59,32.14 -73.51,28.8 -73.59,29.5 -74.73,26.32 -75.09,24.11 -74.71,25.92 -75.79,21.96 -75.36,23.13 -76.3,20.21 -76.57,18.94 -76.43,18.92 -77.05,16.09 -77.21,14.16 -77.44,13.25 -77.39,14.09 -77.81,12.07 -78.08,9.61 -78.22,8.69 -78.43,6.62 -78.3,7.1 -78.49,5.99 -78.66,1.87 -78.26,2.12 -78.36,3.3 -78.33,-0.19 -78.61,-1.98 -78.55,-1.86 -78.43,-4.8 -78.41,-6.2 -77.91,-8 -78.14,-7.07 -78.2,-9.58 -78.09,-9.26 -77.88,-10.2 -77.42,-13.07 -77.24,-14.91 -77.13,-15.39 -77.2,-14.55 -76.42,-19.51 -76.35,-19.01 -75.83,-20.46 -76.12,-20.35 -75.97,-21.38 -74.88,-24.21 -74.96,-24.87 -74.38,-26.14 -73.46,-29.09 -73.42,-29.65 -73.4,-29.8 -72.1,-32.33 -72.14,-32.79 -71.71,-33.97 -70.83,-35.41 -69.9,-37.27 -69.64,-38.37 -69.42,-38.51 -68.6,-40.76 -68.91,-40.05 -67.43,-42.77 -66.84,-43.59 -66.32,-44.21 -64.87,-46.52 -65.36,-46.21 -64.01,-48.1 -63.69,-48.3 -63.1,-48.89 -60.74,-52.38 -62.05,-50.76 -60.65,-53.12 -59.95,-53.56 -59.94,-53.03 -57.8,-56.11 -57.21,-56.76 -56.22,-57.93 -53.98,-60.14 -54.58,-58.96 -55.02,-59.1 -52.63,-60.97 -51.44,-62.71 -50.8,-62.85 -49.33,-64.12 -49.84,-64.31 -47.64,-65.67 -46.22,-66.72 -45.76,-66.71 -45.44,-67.58 -45.25,-67.73 -43.47,-68.93 -42.92,-69.75 -41.69,-70.24 -39.99,-70.99 -39.68,-71.19 -37.22,-72.76 -35.88,-73.5 -34.61,-74.48 -33.7,-74.48 -32.14,-75.49 -32.75,-75.12 -30.68,-76.24 -30.28,-76.49 -28.73,-77.11 -28.15,-77.37 -27.13,-77.78 -24.78,-78.67 -25.82,-78.22 -23.27,-78.84 -20.14,-79.87 -21.13,-79.92 -18.09,-80.45 -17.99,-80.55 -17.93,-80.74 -14.72,-81.43 -14.56,-81.51 -12.66,-81.56 -12.58,-81.77 -10.64,-82.02 -9.57,-82.43 -8.03,-82.28 -8.17,-82.33 -5.85,-82.35 -6.4,-82.38 -3.62,-82.84 -1.34,-82.75 -2.4,-82.98 1.15,-82.93 -0.38,-82.93 1,-83.03 3.94,-82.88 6.24,-82.76 5.07,-82.56 7.64,-82.64 7.66,-82.27 9.27,-82.27 11.98,-81.71 13.16,-81.83 14.14,-81.42 15.91,-81.2 17.15,-80.97 16.31,-80.89 19.84,-79.99 19.08,-80.24 21.76,-79.68 21.25,-79.84 24.82,-78.68 24.59,-78.42 24.14,-78.71 26.59,-78.02 29.75,-76.5 27.06,-77.5 29.33,-77.03 31.88,-75.7 33.1,-75.07 33.36,-75.02 32.49,-75.25 35.95,-73.75 37.68,-72.86 37.69,-72.66 38.26,-72.53 40,-71.04 40.19,-70.73 42.25,-70.21 43.8,-68.81 42.92,-69.2 46.79,-66.5 46.17,-66.87 48.53,-65.14 47.68,-65.53 49.11,-64.53 49.04,-64.8 51.74,-62.37 51.22,-62.59 53.06,-60.98 53.07,-61.37 55.23,-58.7 54.22,-59.59 56.39,-57.67 57.51,-56.92 57.61,-56.08 58.62,-54.68 59.52,-53.63 60.33,-52.89 60.1,-53.04 60.53,-52.22 61.7,-51.07 64.11,-48.07 64.22,-47.34 64.76,-46.14 66.24,-44.88 66.73,-43.09 67.57,-42.04 67.53,-41.49 68.48,-40.79 68.8,-40.26 70.23,-36.85 69.64,-38.46 70.36,-36.43 71.63,-34 71.49,-33.86 71.67,-33.2 72.1,-31.94 72.32,-31.63 73.4,-29.14 73.3,-29.12 74.23,-26.59 74.83,-25.22 75.08,-24.9 75.13,-23.31 75.39,-22.69 75.89,-20.63 76.42,-19.11 76.53,-17.97 76.6,-18.65 76.7,-16.82 77.36,-13.85 77.78,-11.21 77.63,-11.45 77.94,-10.46 77.88,-8.86 78.21,-8.81 78.03,-6.51 78.16,-5.91 78.2,-4.07 78.52,-3.36 78.5,-0.71 78.38,1.58 78.3,2.2" fill="rgb(255, 222, 173)" stroke="black" stroke-width="1.6666666666666665" stroke-linejoin="round" filter="url(#fuzzy)" />
    <g transform="translate(42.21 -26.23)">
      <polyline id="rightCountour" points="-32.22,1.19 -32,0.81 -31.74,0.43 -31.44,0.05 -31.09,-0.32 -30.69,-0.7 -30.25,-1.08 -29.77,-1.45 -29.24,-1.82 -28.68,-2.18 -28.08,-2.54 -27.43,-2.89 -26.75,-3.23 -26.04,-3.57 -25.29,-3.9 -24.5,-4.22 -23.74,-4.65 -22.92,-5.07 -22.04,-5.47 -21.11,-5.86 -20.14,-6.23 -19.11,-6.58 -18.04,-6.91 -16.92,-7.22 -15.77,-7.52 -14.58,-7.79 -13.37,-8.04 -12.12,-8.27 -10.85,-8.48 -9.56,-8.66 -8.25,-8.82 -6.93,-8.96 -5.6,-9.08 -4.26,-9.17 -2.92,-9.24 -1.59,-9.29 -0.26,-9.32 1.06,-9.32 2.37,-9.31 3.67,-9.27 4.95,-9.22 6.2,-9.14 7.43,-9.05 8.64,-8.94 9.82,-8.81 10.97,-8.66 12.08,-8.5 13.16,-8.33 14.2,-8.14 15.21,-7.93 16.18,-7.72 17.11,-7.49 18,-7.26 18.84,-7.01 19.65,-6.76 20.41,-6.49 21.14,-6.23 21.82,-5.95 22.46,-5.68 23.06,-5.39 23.63,-5.11 24.15,-4.83 24.64,-4.54 25.1,-4.25 25.52,-3.97 25.91,-3.68 26.27,-3.4 26.6,-3.12 26.89,-2.84 27.15,-2.55 27.39,-2.27 27.59,-1.99 27.76,-1.71 27.91,-1.44 28.03,-1.17 28.12,-0.9 28.18,-0.63 28.22,-0.36 28.23,-0.1 28.22,0.15 24.21,1.43 23.6,1.7 22.98,1.96 22.34,2.23 21.7,2.48 21.04,2.74 20.38,2.98 19.7,3.23 19.02,3.47 18.33,3.71 17.63,3.94 16.92,4.17 16.2,4.39 15.48,4.61 14.76,4.83 14.02,5.05 13.27,5.26 12.52,5.46 11.75,5.67 10.98,5.87 10.2,6.07 9.41,6.27 8.62,6.47 7.83,6.66 7.03,6.85 6.23,7.03 5.42,7.22 4.62,7.4 3.81,7.57 3.01,7.75 2.2,7.92 1.4,8.08 0.6,8.24 -0.2,8.4 -1,8.55 -1.79,8.7 -2.59,8.84 -3.38,8.97 -4.16,9.1 -4.95,9.22 -5.73,9.33 -6.5,9.43 -7.28,9.53 -8.05,9.62 -8.82,9.69 -9.59,9.76 -10.35,9.82 -11.12,9.86 -11.88,9.9 -12.64,9.92 -13.4,9.93 -14.16,9.92 -14.92,9.9 -15.68,9.87 -16.44,9.82 -17.2,9.76 -17.96,9.68 -18.73,9.58 -19.49,9.47 -20.25,9.35 -21.02,9.2 -21.79,9.04 -22.55,8.87 -23.32,8.67 -24.08,8.46 -24.69,8.32 -25.28,8.17 -25.87,8.01 -26.45,7.83 -27.02,7.65 -27.58,7.45 -28.13,7.25 -28.66,7.03 -29.18,6.8 -29.68,6.57 -30.16,6.32 -30.63,6.07 -31.07,5.8 -31.49,5.52 -31.89,5.24" fill="white" stroke="white" stroke-width="0" stroke-linejoin="round" filter="url(#fuzzy)" />
    </g>
    <g transform="translate(-52.71 -25.78)">
      <polyline id="leftCountour" points="32.55,2.05 32.48,1.66 32.35,1.26 32.17,0.87 31.94,0.48 31.65,0.08 31.32,-0.31 30.93,-0.7 30.5,-1.08 30.02,-1.46 29.5,-1.84 28.93,-2.21 28.32,-2.58 27.67,-2.94 26.98,-3.29 26.25,-3.63 25.54,-4.08 24.77,-4.51 23.94,-4.94 23.05,-5.34 22.11,-5.74 21.12,-6.11 20.08,-6.48 19,-6.82 17.88,-7.14 16.71,-7.45 15.51,-7.73 14.29,-7.99 13.03,-8.24 11.75,-8.46 10.46,-8.65 9.15,-8.83 7.82,-8.98 6.49,-9.11 5.16,-9.22 3.83,-9.3 2.5,-9.37 1.17,-9.41 -0.14,-9.42 -1.44,-9.42 -2.73,-9.39 -3.99,-9.35 -5.23,-9.28 -6.45,-9.19 -7.64,-9.09 -8.81,-8.97 -9.94,-8.82 -11.04,-8.67 -12.1,-8.49 -13.13,-8.3 -14.12,-8.1 -15.08,-7.88 -15.99,-7.66 -16.87,-7.42 -17.71,-7.17 -18.51,-6.91 -19.26,-6.64 -19.98,-6.36 -20.67,-6.08 -21.31,-5.8 -21.92,-5.51 -22.49,-5.22 -23.03,-4.92 -23.53,-4.63 -24,-4.33 -24.45,-4.04 -24.86,-3.74 -25.25,-3.44 -25.6,-3.15 -25.93,-2.85 -26.23,-2.56 -26.5,-2.26 -26.74,-1.97 -26.96,-1.67 -27.16,-1.38 -27.32,-1.09 -27.47,-0.81 -27.59,-0.53 -27.69,-0.25 -27.77,0.03 -23.29,1.74 -22.74,2.01 -22.18,2.27 -21.62,2.53 -21.04,2.79 -20.46,3.04 -19.87,3.29 -19.27,3.53 -18.66,3.77 -18.05,4.01 -17.43,4.24 -16.8,4.47 -16.17,4.69 -15.53,4.91 -14.89,5.12 -14.24,5.33 -13.58,5.54 -12.91,5.74 -12.24,5.95 -11.55,6.14 -10.86,6.34 -10.17,6.53 -9.47,6.72 -8.77,6.91 -8.06,7.1 -7.35,7.28 -6.64,7.46 -5.93,7.63 -5.21,7.8 -4.49,7.97 -3.78,8.13 -3.06,8.29 -2.34,8.45 -1.62,8.6 -0.9,8.75 -0.17,8.89 0.55,9.02 1.27,9.15 2,9.28 2.73,9.39 3.46,9.5 4.19,9.6 4.92,9.7 5.66,9.78 6.4,9.86 7.15,9.92 7.9,9.98 8.66,10.02 9.43,10.06 10.2,10.08 10.97,10.09 11.76,10.09 12.55,10.07 13.35,10.04 14.16,9.99 14.98,9.93 15.81,9.86 16.65,9.77 17.5,9.66 18.35,9.54 19.22,9.4 20.09,9.24 20.97,9.07 21.85,8.89 22.74,8.68 23.42,8.54 24.1,8.38 24.77,8.22 25.43,8.04 26.08,7.85 26.73,7.65 27.36,7.44 27.98,7.21 28.59,6.98 29.18,6.73 29.75,6.47 30.3,6.2 30.83,5.92 31.33,5.63 31.81,5.32" fill="white" stroke="white" stroke-width="0" stroke-linejoin="round" filter="url(#fuzzy)" />
    </g>
    <g transform="translate(42.21 -26.23)">
      <polyline id="rightUpper" points="-31.74,4.59 -32,4.3 -32.22,3.99 -32.39,3.67 -32.51,3.34 -32.58,3 -32.6,2.65 -32.58,2.29 -32.51,1.93 -32.39,1.56 -32.22,1.19 -32,0.81 -31.74,0.43 -31.44,0.05 -31.09,-0.32 -30.69,-0.7 -30.25,-1.08 -29.77,-1.45 -29.24,-1.82 -28.68,-2.18 -28.08,-2.54 -27.43,-2.89 -26.75,-3.23 -26.04,-3.57 -25.29,-3.9 -24.5,-4.22 -23.74,-4.65 -22.92,-5.07 -22.04,-5.47 -21.11,-5.86 -20.14,-6.23 -19.11,-6.58 -18.04,-6.91 -16.92,-7.22 -15.77,-7.52 -14.58,-7.79 -13.37,-8.04 -12.12,-8.27 -10.85,-8.48 -9.56,-8.66 -8.25,-8.82 -6.93,-8.96 -5.6,-9.08 -4.26,-9.17 -2.92,-9.24 -1.59,-9.29 -0.26,-9.32 1.06,-9.32 2.37,-9.31 3.67,-9.27 4.95,-9.22 6.2,-9.14 7.43,-9.05 8.64,-8.94 9.82,-8.81 10.97,-8.66 12.08,-8.5 13.16,-8.33 14.2,-8.14 15.21,-7.93 16.18,-7.72 17.11,-7.49 18,-7.26 18.84,-7.01 19.65,-6.76 20.41,-6.49 21.14,-6.23 21.82,-5.95 22.46,-5.68 23.06,-5.39 23.63,-5.11 24.15,-4.83 24.64,-4.54 25.1,-4.25 25.52,-3.97 25.91,-3.68 26.27,-3.4 26.6,-3.12 26.89,-2.84 27.15,-2.55 27.39,-2.27 27.59,-1.99 27.76,-1.71 27.91,-1.44 28.03,-1.17 28.12,-0.9 28.18,-0.63 28.22,-0.36 28.23,-0.1 28.22,0.15 28.19,0.41 28.13,0.65 28.05,0.9 27.95,1.14 27.83,1.37 27.7,1.61 27.54,1.83 27.36,2.05 27.17,2.27 26.96,2.48" fill="none" stroke="black" stroke-width="1.6666666666666665" stroke-linejoin="round" filter="url(#fuzzy)" />
      <polyline id="rightLower" points="-34.03,2 -34,2.35 -33.93,2.69 -33.8,3.03 -33.64,3.37 -33.43,3.7 -33.19,4.02 -32.91,4.34 -32.6,4.65 -32.26,4.95 -31.89,5.24 -31.49,5.52 -31.07,5.8 -30.63,6.07 -30.16,6.32 -29.68,6.57 -29.18,6.8 -28.66,7.03 -28.13,7.25 -27.58,7.45 -27.02,7.65 -26.45,7.83 -25.87,8.01 -25.28,8.17 -24.69,8.32 -24.08,8.46 -23.32,8.67 -22.55,8.87 -21.79,9.04 -21.02,9.2 -20.25,9.35 -19.49,9.47 -18.73,9.58 -17.96,9.68 -17.2,9.76 -16.44,9.82 -15.68,9.87 -14.92,9.9 -14.16,9.92 -13.4,9.93 -12.64,9.92 -11.88,9.9 -11.12,9.86 -10.35,9.82 -9.59,9.76 -8.82,9.69 -8.05,9.62 -7.28,9.53 -6.5,9.43 -5.73,9.33 -4.95,9.22 -4.16,9.1 -3.38,8.97 -2.59,8.84 -1.79,8.7 -1,8.55 -0.2,8.4 0.6,8.24 1.4,8.08 2.2,7.92 3.01,7.75 3.81,7.57 4.62,7.4 5.42,7.22 6.23,7.03 7.03,6.85 7.83,6.66 8.62,6.47 9.41,6.27 10.2,6.07 10.98,5.87 11.75,5.67 12.52,5.46 13.27,5.26 14.02,5.05 14.76,4.83 15.48,4.61 16.2,4.39 16.92,4.17 17.63,3.94 18.33,3.71 19.02,3.47 19.7,3.23 20.38,2.98 21.04,2.74 21.7,2.48 22.34,2.23 22.98,1.96 23.6,1.7 24.21,1.43 24.81,1.15 25.4,0.87 25.98,0.59 26.54,0.3 27.09,0.01 27.63,-0.29 28.16,-0.59 28.68,-0.9 29.18,-1.21 29.67,-1.52" fill="none" stroke="black" stroke-width="2.2222222222222223" stroke-linejoin="round" filter="url(#fuzzy)" />
      <circle r="4.196" cx="-28.924951792984622" cy="2.947125127716986" stroke="black" fill="none" stroke-width="1.0" filter="url(#fuzzy)" clip-path="url(#rightEyeClipPath)" /><circle r="3.892" cx="-29.599951792984623" cy="1.4371251277169863" stroke="black" fill="none" stroke-width="1.0" filter="url(#fuzzy)" clip-path="url(#rightEyeClipPath)" /><circle r="3.8040000000000003" cx="-30.279951792984622" cy="6.152125127716985" stroke="black" fill="none" stroke-width="1.0" filter="url(#fuzzy)" clip-path="url(#rightEyeClipPath)" /><circle r="3.186" cx="-28.164951792984624" cy="5.382125127716987" stroke="black" fill="none" stroke-width="1.0" filter="url(#fuzzy)" clip-path="url(#rightEyeClipPath)" /><circle r="3.434" cx="-29.464951792984625" cy="3.077125127716986" stroke="black" fill="none" stroke-width="1.0" filter="url(#fuzzy)" clip-path="url(#rightEyeClipPath)" /><circle r="3.816" cx="-32.24495179298462" cy="4.9671251277169866" stroke="black" fill="none" stroke-width="1.0" filter="url(#fuzzy)" clip-path="url(#rightEyeClipPath)" /><circle r="3.078" cx="-30.349951792984623" cy="5.662125127716987" stroke="black" fill="none" stroke-width="1.0" filter="url(#fuzzy)" clip-path="url(#rightEyeClipPath)" /><circle r="4.982" cx="-28.259951792984623" cy="5.322125127716986" stroke="black" fill="none" stroke-width="1.0" filter="url(#fuzzy)" clip-path="url(#rightEyeClipPath)" /><circle r="3.208" cx="-30.664951792984624" cy="2.742125127716986" stroke="black" fill="none" stroke-width="1.0" filter="url(#fuzzy)" clip-path="url(#rightEyeClipPath)" /><circle r="3.382" cx="-30.779951792984622" cy="1.7621251277169865" stroke="black" fill="none" stroke-width="1.0" filter="url(#fuzzy)" clip-path="url(#rightEyeClipPath)" />
      </g>
    <g transform="translate(-52.71 -25.78)">
      <polyline id="leftUpper" points="30.12,5.61 30.63,5.3 31.08,4.97 31.47,4.64 31.8,4.29 32.07,3.93 32.28,3.57 32.44,3.2 32.53,2.82 32.57,2.43 32.55,2.05 32.48,1.66 32.35,1.26 32.17,0.87 31.94,0.48 31.65,0.08 31.32,-0.31 30.93,-0.7 30.5,-1.08 30.02,-1.46 29.5,-1.84 28.93,-2.21 28.32,-2.58 27.67,-2.94 26.98,-3.29 26.25,-3.63 25.54,-4.08 24.77,-4.51 23.94,-4.94 23.05,-5.34 22.11,-5.74 21.12,-6.11 20.08,-6.48 19,-6.82 17.88,-7.14 16.71,-7.45 15.51,-7.73 14.29,-7.99 13.03,-8.24 11.75,-8.46 10.46,-8.65 9.15,-8.83 7.82,-8.98 6.49,-9.11 5.16,-9.22 3.83,-9.3 2.5,-9.37 1.17,-9.41 -0.14,-9.42 -1.44,-9.42 -2.73,-9.39 -3.99,-9.35 -5.23,-9.28 -6.45,-9.19 -7.64,-9.09 -8.81,-8.97 -9.94,-8.82 -11.04,-8.67 -12.1,-8.49 -13.13,-8.3 -14.12,-8.1 -15.08,-7.88 -15.99,-7.66 -16.87,-7.42 -17.71,-7.17 -18.51,-6.91 -19.26,-6.64 -19.98,-6.36 -20.67,-6.08 -21.31,-5.8 -21.92,-5.51 -22.49,-5.22 -23.03,-4.92 -23.53,-4.63 -24,-4.33 -24.45,-4.04 -24.86,-3.74 -25.25,-3.44 -25.6,-3.15 -25.93,-2.85 -26.23,-2.56 -26.5,-2.26 -26.74,-1.97 -26.96,-1.67 -27.16,-1.38 -27.32,-1.09 -27.47,-0.81 -27.59,-0.53 -27.69,-0.25 -27.77,0.03 -27.82,0.3 -27.86,0.57 -27.88,0.83 -27.88,1.09 -27.86,1.34 -27.82,1.59 -27.77,1.84 -27.7,2.08 -27.61,2.31 -27.52,2.54" fill="none" stroke="black" stroke-width="2.2222222222222223" stroke-linejoin="round" filter="url(#fuzzy)" />
      <polyline id="leftLower" points="34.42,1.73 34.38,2.13 34.28,2.52 34.13,2.91 33.93,3.28 33.68,3.65 33.38,4 33.04,4.35 32.66,4.68 32.25,5.01 31.81,5.32 31.33,5.63 30.83,5.92 30.3,6.2 29.75,6.47 29.18,6.73 28.59,6.98 27.98,7.21 27.36,7.44 26.73,7.65 26.08,7.85 25.43,8.04 24.77,8.22 24.1,8.38 23.42,8.54 22.74,8.68 21.85,8.89 20.97,9.07 20.09,9.24 19.22,9.4 18.35,9.54 17.5,9.66 16.65,9.77 15.81,9.86 14.98,9.93 14.16,9.99 13.35,10.04 12.55,10.07 11.76,10.09 10.97,10.09 10.2,10.08 9.43,10.06 8.66,10.02 7.9,9.98 7.15,9.92 6.4,9.86 5.66,9.78 4.92,9.7 4.19,9.6 3.46,9.5 2.73,9.39 2,9.28 1.27,9.15 0.55,9.02 -0.17,8.89 -0.9,8.75 -1.62,8.6 -2.34,8.45 -3.06,8.29 -3.78,8.13 -4.49,7.97 -5.21,7.8 -5.93,7.63 -6.64,7.46 -7.35,7.28 -8.06,7.1 -8.77,6.91 -9.47,6.72 -10.17,6.53 -10.86,6.34 -11.55,6.14 -12.24,5.95 -12.91,5.74 -13.58,5.54 -14.24,5.33 -14.89,5.12 -15.53,4.91 -16.17,4.69 -16.8,4.47 -17.43,4.24 -18.05,4.01 -18.66,3.77 -19.27,3.53 -19.87,3.29 -20.46,3.04 -21.04,2.79 -21.62,2.53 -22.18,2.27 -22.74,2.01 -23.29,1.74 -23.82,1.46 -24.35,1.18 -24.86,0.9 -25.37,0.61 -25.86,0.31 -26.35,0.01 -26.82,-0.29 -27.28,-0.6 -27.74,-0.91 -28.18,-1.23" fill="none" stroke="black" stroke-width="2.2222222222222223" stroke-linejoin="round" filter="url(#fuzzy)" />
      <circle r="3.886" cx="-16.468945089701197" cy="-0.5571445142432352" stroke="black" fill="none" stroke-width="1.0" filter="url(#fuzzy)" clip-path="url(#leftEyeClipPath)" /><circle r="3.128" cx="-17.5789450897012" cy="-2.767144514243235" stroke="black" fill="none" stroke-width="1.0" filter="url(#fuzzy)" clip-path="url(#leftEyeClipPath)" /><circle r="4.332" cx="-16.988945089701197" cy="-2.352144514243235" stroke="black" fill="none" stroke-width="1.0" filter="url(#fuzzy)" clip-path="url(#leftEyeClipPath)" /><circle r="3.98" cx="-15.113945089701199" cy="0.04785548575676524" stroke="black" fill="none" stroke-width="1.0" filter="url(#fuzzy)" clip-path="url(#leftEyeClipPath)" /><circle r="4.43" cx="-15.683945089701197" cy="-2.1821445142432347" stroke="black" fill="none" stroke-width="1.0" filter="url(#fuzzy)" clip-path="url(#leftEyeClipPath)" /><circle r="3.916" cx="-18.538945089701198" cy="-1.252144514243235" stroke="black" fill="none" stroke-width="1.0" filter="url(#fuzzy)" clip-path="url(#leftEyeClipPath)" /><circle r="4.922" cx="-17.308945089701197" cy="1.8228554857567651" stroke="black" fill="none" stroke-width="1.0" filter="url(#fuzzy)" clip-path="url(#leftEyeClipPath)" /><circle r="3.446" cx="-18.663945089701198" cy="-1.942144514243235" stroke="black" fill="none" stroke-width="1.0" filter="url(#fuzzy)" clip-path="url(#leftEyeClipPath)" /><circle r="3.69" cx="-17.678945089701198" cy="0.06785548575676481" stroke="black" fill="none" stroke-width="1.0" filter="url(#fuzzy)" clip-path="url(#leftEyeClipPath)" /><circle r="3.968" cx="-16.848945089701196" cy="-0.712144514243235" stroke="black" fill="none" stroke-width="1.0" filter="url(#fuzzy)" clip-path="url(#leftEyeClipPath)" />
    </g>
    <g id="hairs">
      <polyline points="55.23,-58.7 55.2,-58.73 55.92,-58.05 56.63,-57.25 57.18,-56.52 57.54,-55.92 57.71,-55.49 57.71,-55.23 57.55,-55.09 57.24,-55.04 56.78,-55.07 56.12,-55.21 55.22,-55.53 54.01,-56.09 52.45,-56.95 50.53,-58.13 48.22,-59.65 45.54,-61.51 42.48,-63.71 39.06,-66.23 35.28,-69.08 31.07,-72.29 26.36,-75.91" fill="none" stroke="rgb(167, 133, 106)" stroke-width="2" stroke-linejoin="round" filter="url(#fuzzy)" /><polyline points="46.17,-66.87 47.44,-65.86 47.83,-65.42 47.97,-65.09 47.96,-64.77 47.72,-64.5 47.16,-64.32 46.22,-64.28 44.87,-64.4 43.1,-64.67 40.89,-65.12 38.21,-65.74 35.01,-66.54 31.25,-67.54 26.9,-68.78 21.97,-70.3 16.46,-72.11 10.35,-74.22 3.56,-76.57 -4,-79.09" fill="none" stroke="rgb(167, 133, 106)" stroke-width="2" stroke-linejoin="round" filter="url(#fuzzy)" /><polyline points="19.08,-80.24 20.87,-79.85 22.17,-79.47 23.28,-79.08 24.21,-78.73 24.99,-78.43 25.63,-78.17 26.08,-77.96 26.3,-77.83 26.23,-77.79 25.86,-77.83 25.08,-78 23.83,-78.3 22.04,-78.76 19.67,-79.36 16.58,-80.12 12.56,-81.11" fill="none" stroke="rgb(167, 133, 106)" stroke-width="2" stroke-linejoin="round" filter="url(#fuzzy)" /><polyline points="-33.7,-74.48 -32.72,-75.1 -31.96,-75.53 -31.13,-75.97 -30.26,-76.39 -29.43,-76.76 -28.69,-77.05 -28.07,-77.26 -27.6,-77.35 -27.33,-77.33 -27.29,-77.18 -27.55,-76.89 -28.15,-76.43 -29.16,-75.79 -30.57,-74.96 -32.38,-73.92 -34.53,-72.68 -37.03,-71.26 -39.92,-69.66 -43.35,-67.87" fill="none" stroke="rgb(167, 133, 106)" stroke-width="2" stroke-linejoin="round" filter="url(#fuzzy)" /><polyline points="43.8,-68.81 44.16,-68.41 45.18,-67.58 45.99,-66.89 46.47,-66.4 46.68,-66.06 46.69,-65.81 46.53,-65.62 46.16,-65.5 45.54,-65.46 44.62,-65.54 43.37,-65.75 41.77,-66.12 39.82,-66.64 37.5,-67.32 34.78,-68.18 31.62,-69.23 27.98,-70.49 23.86,-71.98 19.29,-73.71 14.32,-75.68 8.95,-77.85 3.13,-80.21" fill="none" stroke="rgb(167, 133, 106)" stroke-width="2" stroke-linejoin="round" filter="url(#fuzzy)" /><polyline points="5.07,-82.56 6.82,-82.51 8.11,-82.35 9.41,-82.16 10.68,-81.97 11.78,-81.77 12.62,-81.58 13.19,-81.38 13.48,-81.19 13.52,-81 13.32,-80.81 12.86,-80.64 12.12,-80.47 11.07,-80.31 9.66,-80.15 7.86,-80 5.66,-79.86 3.04,-79.74 -0.01,-79.62 -3.5,-79.53 -7.42,-79.45 -11.83,-79.37 -16.85,-79.22" fill="none" stroke="rgb(167, 133, 106)" stroke-width="2" stroke-linejoin="round" filter="url(#fuzzy)" /><polyline points="-23.27,-78.84 -21.43,-79.5 -20.47,-79.84 -19.82,-80 -19.44,-80.03 -19.36,-79.91 -19.61,-79.62 -20.29,-79.13 -21.47,-78.42 -23.21,-77.48 -25.54,-76.3 -28.47,-74.85 -32.02,-73.11 -36.16,-71.11 -40.87,-68.93" fill="none" stroke="rgb(167, 133, 106)" stroke-width="2" stroke-linejoin="round" filter="url(#fuzzy)" /><polyline points="-2.4,-82.98 -0.27,-82.89 1.24,-82.7 3.16,-82.38 5.48,-81.94 7.95,-81.41 10.46,-80.82 12.99,-80.19 15.57,-79.53 18.21,-78.86 20.85,-78.18 23.42,-77.53 25.82,-76.91 27.97,-76.35 29.76,-75.89 31.05,-75.58 31.94,-75.41" fill="none" stroke="rgb(167, 133, 106)" stroke-width="2" stroke-linejoin="round" filter="url(#fuzzy)" /><polyline points="67.57,-42.04 67.76,-41.52 68.08,-40.95 68.29,-40.38 68.28,-39.97 68.02,-39.79 67.49,-39.88 66.68,-40.28 65.56,-41.03 64.13,-42.16 62.36,-43.67 60.24,-45.55 57.76,-47.81 54.9,-50.47 51.63,-53.57 47.9,-57.2 43.59,-61.41 38.67,-66.23 33.57,-71.44" fill="none" stroke="rgb(167, 133, 106)" stroke-width="2" stroke-linejoin="round" filter="url(#fuzzy)" /><polyline points="31.88,-75.7 32.78,-75.23 33.58,-74.77 34.73,-74.12 36.19,-73.3 37.71,-72.42 39.13,-71.56 40.43,-70.74 41.61,-69.98 42.67,-69.29 43.56,-68.72 44.18,-68.34 44.43,-68.2 44.28,-68.34 43.67,-68.8 42.45,-69.6" fill="none" stroke="rgb(167, 133, 106)" stroke-width="2" stroke-linejoin="round" filter="url(#fuzzy)" /><polyline points="40.19,-70.73 41.87,-70.03 43.16,-69.19 44.34,-68.29 45.48,-67.41 46.48,-66.62 47.29,-65.99 47.89,-65.51 48.3,-65.18 48.49,-65 48.45,-65 48.11,-65.2 47.42,-65.66 46.33,-66.4 44.8,-67.45 42.82,-68.86 40.41,-70.66" fill="none" stroke="rgb(167, 133, 106)" stroke-width="2" stroke-linejoin="round" filter="url(#fuzzy)" /><polyline points="40,-71.04 40.72,-70.62 41.81,-70.03 42.84,-69.34 43.77,-68.64 44.55,-68 45.14,-67.46 45.5,-67.07 45.63,-66.8 45.56,-66.65 45.3,-66.59 44.84,-66.63 44.15,-66.76 43.2,-67.02 41.97,-67.43 40.42,-67.99 38.56,-68.73 36.37,-69.64 33.81,-70.75 30.86,-72.07 27.44,-73.6 23.48,-75.38 18.88,-77.44 13.56,-79.78" fill="none" stroke="rgb(167, 133, 106)" stroke-width="2" stroke-linejoin="round" filter="url(#fuzzy)" /><polyline points="6.24,-82.76 6.29,-82.59 7.5,-82.35 9.21,-82.01 11.21,-81.61 13.37,-81.18 15.51,-80.73 17.51,-80.29 19.27,-79.88 20.78,-79.51 22.04,-79.18 23.02,-78.92 23.68,-78.77 24,-78.73 24.26,-78.7" fill="none" stroke="rgb(167, 133, 106)" stroke-width="2" stroke-linejoin="round" filter="url(#fuzzy)" /><polyline points="54.22,-59.59 55.71,-58.21 56.3,-57.37 56.26,-56.81 55.73,-56.5 54.72,-56.49 53.21,-56.77 51.22,-57.27 48.77,-57.95 45.84,-58.78 42.34,-59.81 38.2,-61.11 33.34,-62.78 27.75,-64.85 21.43,-67.38 14.34,-70.37 6.41,-73.81 -2.5,-77.63" fill="none" stroke="rgb(167, 133, 106)" stroke-width="2" stroke-linejoin="round" filter="url(#fuzzy)" /><polyline points="70.23,-36.85 69.78,-37.3 69.14,-36.74 67.84,-36.17 65.75,-35.91 62.85,-35.97 59.16,-36.27 54.71,-36.77 49.46,-37.46 43.38,-38.37 36.41,-39.53 28.5,-40.97 19.62,-42.73 9.76,-44.78 -1.11,-47.09 -13.01,-49.61 -26.03,-52.3 -40.09,-55.25" fill="none" stroke="rgb(167, 133, 106)" stroke-width="2" stroke-linejoin="round" filter="url(#fuzzy)" /><polyline points="27.06,-77.5 29.15,-76.86 30.77,-76.18 31.8,-75.69 32.41,-75.36 32.79,-75.11 32.98,-74.92 32.9,-74.81 32.43,-74.84 31.52,-75.02 30.15,-75.38 28.27,-75.93 25.82,-76.68 22.67,-77.67 18.65,-78.92 13.65,-80.45" fill="none" stroke="rgb(167, 133, 106)" stroke-width="2" stroke-linejoin="round" filter="url(#fuzzy)" /><polyline points="-35.88,-73.5 -34.47,-74.12 -32.6,-74.45 -30.29,-74.65 -27.5,-74.78 -24.2,-74.85 -20.4,-74.85 -16.16,-74.78 -11.52,-74.63 -6.53,-74.42 -1.27,-74.17 4.23,-73.92 9.89,-73.67 15.68,-73.41 21.48,-73.13 27.22,-72.8 32.88,-72.49" fill="none" stroke="rgb(167, 133, 106)" stroke-width="2" stroke-linejoin="round" filter="url(#fuzzy)" /><polyline points="-43.47,-68.93 -42.67,-69.64 -41.54,-70.29 -40.28,-70.97 -38.96,-71.71 -37.68,-72.44 -36.55,-73.09 -35.65,-73.6 -35.04,-73.92 -34.73,-74.06 -34.72,-74.03 -34.99,-73.83 -35.52,-73.46 -36.31,-72.9 -37.38,-72.15 -38.74,-71.21 -40.46,-70.04 -42.69,-68.61 -45.7,-66.77" fill="none" stroke="rgb(167, 133, 106)" stroke-width="2" stroke-linejoin="round" filter="url(#fuzzy)" /><polyline points="-14.56,-81.51 -13.1,-81.6 -11.71,-81.73 -10.14,-81.85 -8.44,-81.92 -6.68,-81.94 -4.85,-81.92 -2.96,-81.89 -1,-81.86 0.98,-81.84 2.92,-81.82 4.76,-81.8 6.46,-81.76 8.01,-81.72 9.41,-81.67 10.65,-81.62 11.7,-81.59 12.47,-81.58 12.9,-81.6 12.95,-81.66 12.62,-81.73" fill="none" stroke="rgb(167, 133, 106)" stroke-width="2" stroke-linejoin="round" filter="url(#fuzzy)" /><polyline points="1,-83.03 3.3,-82.89 4.65,-82.76 5.44,-82.64 5.98,-82.5 6.37,-82.34 6.56,-82.17 6.46,-81.97 5.93,-81.77 4.86,-81.56 3.16,-81.34 0.79,-81.1 -2.23,-80.84 -5.89,-80.56 -10.2,-80.29 -15.16,-80.03" fill="none" stroke="rgb(167, 133, 106)" stroke-width="2" stroke-linejoin="round" filter="url(#fuzzy)" /><polyline points="24.14,-78.71 2.58,-65.23 6.19,-58.26 9.57,-58.93 11.88,-63.05 13.5,-67.14 14.2,-69.46 13.45,-69.78 10.94,-68.68 6.97,-66.95 2.56,-65.19 -0.91,-63.64 -2.24,-62.32 -0.97,-61.31 2.32,-60.84 6.27,-61.26 9.02,-62.68 8.7,-64.77 4.14,-66.83 -4.08,-68.15 -12.56,-68.5 -15.42,-68.31 -7.01,-67.37 16.03,-60.44 72.1,-31.94" fill="none" stroke="rgb(167, 133, 106)" stroke-width="2" stroke-linejoin="round" filter="url(#fuzzy)" /><polyline points="60.53,-52.22 18.32,-62.47 24.56,-62.54 32.06,-62.63 31.19,-64.83 23.96,-67.81 14.58,-70.58 6.8,-72.96 2.77,-74.96 2.74,-76.52 5.54,-77.49 9.62,-77.84 13.72,-77.7 17.02,-77.34 19.04,-76.99 19.61,-76.74 18.96,-76.43 17.81,-75.83 17.27,-74.8 19.44,-73.02 28.12,-68.94 46.71,-59.18 67.57,-42.04" fill="none" stroke="rgb(167, 133, 106)" stroke-width="2" stroke-linejoin="round" filter="url(#fuzzy)" /><polyline points="42.25,-70.21 25.33,-63.94 -0.53,-64.11 -17.25,-64.6 -24.92,-63.1 -24.31,-59.71 -17.77,-55.59 -9.3,-52.18 -2.04,-50.53 3.95,-50.73 11.59,-51.68 23.81,-51.7 39.32,-50.08 51.29,-48.57 55.85,-47.42 74.23,-26.59" fill="none" stroke="rgb(167, 133, 106)" stroke-width="2" stroke-linejoin="round" filter="url(#fuzzy)" /><polyline points="49.04,-64.8 30.01,-66.42 27.44,-64.82 18.38,-66.95 7.05,-69.17 0.17,-69.66 0.76,-68.33 7.48,-65.84 15.92,-63.16 20.99,-61.24 19.37,-60.61 11,-61.23 -0.98,-62.63 -11.91,-64.2 -17.7,-65.45 -16.4,-65.92 -8.31,-65.32 4.65,-63.88 19.2,-62.79 30.03,-63.98 30.45,-68.88 18.94,-76.73 13.16,-81.83" fill="none" stroke="rgb(167, 133, 106)" stroke-width="2" stroke-linejoin="round" filter="url(#fuzzy)" /><polyline points="21.25,-79.84 41.63,-58.66 27.29,-61 10.7,-64.74 5.63,-66.28 10.61,-66.44 18.16,-66.33 22.19,-66.42 21.08,-66.48 17.23,-65.91 14.73,-64.19 16.64,-61.27 23.22,-57.71 31.8,-54.4 38.28,-52.14 39.07,-51.31 32.7,-51.76 20.71,-53.25 8.17,-55.81 2.38,-59.83 6.76,-66.09 11.26,-75.35 3.94,-82.88" fill="none" stroke="rgb(167, 133, 106)" stroke-width="2" stroke-linejoin="round" filter="url(#fuzzy)" /><polyline points="57.61,-56.08 35.55,-67.87 28.3,-68.51 27.49,-65.06 22.31,-63.25 12.26,-64 1.81,-65.69 -5.22,-66.74 -7.46,-66.56 -5.58,-65.53 -1.53,-64.6 2.12,-64.75 3.03,-66.25 0.05,-68.14 -5.19,-68.8 -7.21,-68.22 -2.13,-70.69 -18.09,-80.45" fill="none" stroke="rgb(167, 133, 106)" stroke-width="2" stroke-linejoin="round" filter="url(#fuzzy)" /><polyline points="73.4,-29.14 46.12,-51.75 44.9,-56.11 44.47,-60.58 42.67,-64.94 40.68,-67.67 39.34,-68.34 38.82,-67.33 38.76,-65.49 38.72,-63.72 38.62,-62.39 38.5,-61.41 37.62,-60.76 34.02,-60.97 25.81,-62.58 13.47,-64.91 0.08,-66.51 -9.92,-69.02 9.27,-82.27" fill="none" stroke="rgb(167, 133, 106)" stroke-width="2" stroke-linejoin="round" filter="url(#fuzzy)" /><polyline points="64.22,-47.34 54.23,-47.3 36.82,-56.98 28.95,-59.59 24.25,-58.09 16.71,-57.15 6.81,-58.17 -2.1,-60.46 -7.2,-62.93 -6.88,-64.83 -0.4,-65.58 11.51,-64.8 25.88,-62.88 38.14,-61.25 44.3,-61.77 43.32,-65.01 36.86,-69.34 24.39,-73.31 -9.57,-82.43" fill="none" stroke="rgb(167, 133, 106)" stroke-width="2" stroke-linejoin="round" filter="url(#fuzzy)" /><polyline points="-52.63,-60.97 -13.8,-71.83 -6.73,-71.85 -14.25,-68.66 -17.29,-65.7 -9.56,-64.11 4.44,-63.67 16.49,-64.18 20.34,-65.89 14.41,-68.73 1.67,-71.6 -11.85,-72.87 -18.82,-72.03 -12.19,-70.78 11.02,-72.15 33.1,-75.07" fill="none" stroke="rgb(167, 133, 106)" stroke-width="2" stroke-linejoin="round" filter="url(#fuzzy)" /><polyline points="24.82,-78.68 2.16,-79.07 4.78,-77.9 9.18,-75.04 9.87,-71.23 8.64,-68.05 7.91,-66.97 9.14,-68.12 12.7,-70.38 17.56,-72.34 21.74,-73.4 23.4,-73.91 21.94,-74.59 18.42,-75.76 15.42,-76.72 17.65,-75.03 32.9,-65.25 70.23,-36.85" fill="none" stroke="rgb(167, 133, 106)" stroke-width="2" stroke-linejoin="round" filter="url(#fuzzy)" /><polyline points="71.49,-33.86 58.03,-48.28 40.94,-55.89 29.03,-59.07 24.98,-60.2 26.74,-60.98 30.87,-62.01 34.53,-62.99 36.62,-63.16 37.07,-62.29 34.82,-61.59 27.35,-63.29 14.13,-68.37 2.21,-74.35 7.11,-76.31 42.25,-70.21" fill="none" stroke="rgb(167, 133, 106)" stroke-width="2" stroke-linejoin="round" filter="url(#fuzzy)" /><polyline points="-18.09,-80.45 -15.59,-75.1 -10.94,-72.69 -11.27,-72.34 -12.59,-72.14 -12.64,-71.17 -9.73,-69.82 -3.52,-68.83 4.16,-68.59 10.17,-69 11.95,-69.83 8.94,-70.89 2.7,-72.1 -4.01,-73.35 -8.66,-74.43 -9.98,-75.1 -8.3,-75.14 -5.12,-74.32 -2.04,-72.27 0.21,-68.49 1.16,-62.95 -3.37,-57.71 -23.83,-58.13 -49.84,-64.31" fill="none" stroke="rgb(167, 133, 106)" stroke-width="2" stroke-linejoin="round" filter="url(#fuzzy)" /><polyline points="-45.76,-66.71 1.52,-70.06 20.85,-68.66 27.42,-68.69 29.18,-69.98 28.37,-71.69 26.91,-72.57 26.84,-71.64 28.58,-68.91 30.25,-65.45 29.1,-62.73 23.89,-61.56 16.14,-61.75 8.7,-62.49 3.04,-63.39 -1.06,-64.89 -0.63,-67.62 12.4,-71.99 24.59,-78.42" fill="none" stroke="rgb(167, 133, 106)" stroke-width="2" stroke-linejoin="round" filter="url(#fuzzy)" /><polyline points="-12.58,-81.77 -17.43,-67.63 -9.1,-63.34 -4.4,-62.74 -1.83,-62.92 -1.48,-63.6 -3.07,-65.03 -5.69,-67.05 -8.64,-69.19 -11.29,-70.89 -12.51,-71.63 -10.88,-70.89 -5.79,-68.45 1.33,-64.77 6.87,-61.27 7.31,-59.99 3.03,-62.24 0.88,-66.77 10.69,-69.36 34.55,-66.03 53.06,-60.98" fill="none" stroke="rgb(167, 133, 106)" stroke-width="2" stroke-linejoin="round" filter="url(#fuzzy)" /><polyline points="77.78,-11.21 75.76,-13.38 75.38,-15.39 75.43,-16.9 75.44,-18.05 75.24,-19.07 74.79,-20.08 74.16,-21.11 73.46,-22.12 72.77,-23.12 72.08,-24.08 71.31,-25.04 70.4,-26.02 69.38,-27 68.34,-27.97 67.27,-28.85 66.36,-29.4" fill="none" stroke="rgb(167, 133, 106)" stroke-width="2" stroke-linejoin="round" filter="url(#fuzzy)" /><polyline points="1.15,-82.93 0.75,-82.92 1.7,-82.69 3.05,-81.91 4.3,-80.55 5.37,-78.96 6.39,-77.65 7.47,-76.89 8.67,-76.64 9.95,-76.58 11.22,-76.44 12.43,-76.09 13.53,-75.55 14.49,-74.87 15.32,-73.98 16.05,-72.82 16.76,-71.47 17.6,-70.32 18.82,-68.91 1.15,-82.93 0.77,-83.28 1.79,-83.74 3.23,-84.12 4.63,-84.41 5.9,-84.6 7.11,-84.68 8.36,-84.63 9.69,-84.52 11.09,-84.43 12.53,-84.42 13.95,-84.49 15.3,-84.59 16.57,-84.67 17.78,-84.7 18.98,-84.73 20.21,-84.81 21.51,-84.99 22.9,-85.29 24.36,-85.71 25.74,-86.16 26.64,-86.44 26.52,-86.48 1.15,-82.93 0.77,-82.4 1.74,-82.13 3.1,-81.58 4.39,-80.75 5.53,-79.81 6.61,-78.94 7.73,-78.22 8.92,-77.66 10.16,-77.2 11.41,-76.82 12.63,-76.49 13.79,-76.21 14.87,-75.94 15.9,-75.64 16.87,-75.21 17.8,-74.62 18.7,-73.88 19.59,-73.02 20.44,-72.12 21.21,-71.18 21.9,-70.18 22.62,-69.09 23.8,-67.94 25.98,-66.79" fill="none" stroke="rgb(167, 133, 106)" stroke-width="2" stroke-linejoin="round" filter="url(#fuzzy)" /><polyline points="-1.34,-82.75 -1.19,-83.8 -0.33,-84.68 0.71,-85.26 1.97,-86.07 3.4,-87.38 4.89,-89.17 6.37,-91.18 7.85,-93.05 9.34,-94.44 10.86,-95.18 12.42,-95.35 14,-95.23 15.58,-95.13 17.13,-95.24 18.63,-95.54 20.1,-95.99 21.6,-96.6 23.2,-97.53 25.01,-98.95 27.04,-100.8 29.3,-102.78 31.61,-104.38 32.8,-104.63" fill="none" stroke="rgb(167, 133, 106)" stroke-width="2" stroke-linejoin="round" filter="url(#fuzzy)" /><polyline points="-8.17,-82.33 -6.65,-82.5 -5.41,-82.75 -4.1,-83.25 -2.85,-83.88 -1.69,-84.47 -0.58,-84.92 0.54,-85.27 1.74,-85.56 3.01,-85.81 4.3,-86.04 5.59,-86.21 6.86,-86.28 8.15,-86.25 9.51,-86.21 10.97,-86.29 12.51,-86.56 14.07,-86.97 15.53,-87.32 16.82,-87.4 17.92,-87.13 19.1,-86.74 21.48,-86.64" fill="none" stroke="rgb(167, 133, 106)" stroke-width="2" stroke-linejoin="round" filter="url(#fuzzy)" /><polyline points="-8.03,-82.28 -9.24,-81.13 -10.36,-80.12 -11.48,-79.69 -12.54,-79.4 -13.55,-78.82 -14.48,-77.85 -15.37,-76.63 -16.25,-75.46 -17.17,-74.55 -18.2,-73.99 -19.33,-73.7 -20.55,-73.5 -21.75,-73.19 -22.84,-72.65 -23.77,-71.84 -24.53,-70.75 -25.13,-69.42 -25.64,-67.91 -26.46,-66.86 14.94,-76.22 13.61,-76.74 12.41,-77.52 11.11,-78.31 9.79,-79.02 8.52,-79.58 7.34,-79.97 6.21,-80.24 5.07,-80.46 3.89,-80.72 2.69,-81.05 1.51,-81.43 0.39,-81.78 -0.68,-82.07 -1.77,-82.25 -2.91,-82.34 -4.14,-82.35 -5.4,-82.31 -6.56,-82.28 -7.54,-82.27 -8.03,-82.28 -9.57,-82.43 -8.74,-85.01 -7.91,-86.15 -6.85,-86.08 -5.61,-85.56 -4.31,-85.18 -3.03,-85.14 -1.82,-85.44 -0.65,-85.99 0.53,-86.69 1.77,-87.46 3.08,-88.24 4.43,-88.97 5.8,-89.67 7.17,-90.37 8.58,-91.1 10.09,-91.84 11.71,-92.59 13.43,-93.35 15.2,-94.2 16.95,-95.24 18.57,-96.51 19.86,-98.14 20.35,-100.91" fill="none" stroke="rgb(167, 133, 106)" stroke-width="2" stroke-linejoin="round" filter="url(#fuzzy)" /><polyline points="77.96,7.36 78.14,6.53 78.26,5.65 78.32,4.42 78.36,3.14 78.38,1.93 78.39,0.73 78.38,-0.55 78.35,-1.92 78.3,-3.32 78.24,-4.7 78.16,-6 78.09,-7.22 78.01,-8.35 77.93,-9.39 77.83,-10.34 77.73,-11.22 77.61,-12.19 77.36,-13.85" fill="none" stroke="rgb(167, 133, 106)" stroke-width="2" stroke-linejoin="round" filter="url(#fuzzy)" /><polyline points="-12.58,-81.77 -13.28,-82.45 -14.6,-83.9 -16.05,-85.07 -17.35,-85.35 -18.51,-85.03 -19.66,-84.68 -20.99,-84.76 -22.62,-85.53 -24.56,-86.97 -26.66,-88.8 -28.73,-90.59 -30.64,-92.01 -32.42,-93.1 -34.25,-94.29 -36.16,-95.65 -37.86,-95.66 -14.56,-81.51 -13.12,-80.89 -11.97,-80.49 -10.87,-80.55 -9.79,-80.6 -8.74,-80.37 -7.7,-79.86 -6.65,-79.27 -5.55,-78.8 -4.39,-78.49 -3.22,-78.27 -2.09,-77.97 -1.09,-77.52 -0.28,-77.07 0.28,-76.89 0.93,-77.04" fill="none" stroke="rgb(167, 133, 106)" stroke-width="2" stroke-linejoin="round" filter="url(#fuzzy)" /><polyline points="-14.72,-81.43 -14.12,-81.59 -13.25,-82.28 -12.34,-83.63 -11.39,-85.18 -10.4,-86.43 -9.37,-87.22 -8.29,-87.71 -7.15,-88.09 -5.96,-88.5 -4.72,-89.03 -3.47,-89.75 -2.21,-90.76 -0.96,-92.17 0.32,-93.97 1.68,-95.99 3.13,-97.99 4.67,-99.75 6.22,-101.22 7.72,-102.51 9.17,-103.66 10.72,-104.57 12.68,-105.32 15.67,-106.91 -0.35,-78.01 -0.23,-78.37 -1.07,-78.81 -2.15,-79.27 -3.35,-79.68 -4.58,-80.02 -5.75,-80.33 -6.84,-80.62 -7.87,-80.89 -8.9,-81.12 -9.97,-81.31 -11.07,-81.44 -12.17,-81.49 -13.19,-81.43 -14.11,-81.34 -14.72,-81.43" fill="none" stroke="rgb(167, 133, 106)" stroke-width="2" stroke-linejoin="round" filter="url(#fuzzy)" /><polyline points="5.57,-90.67 5.46,-90.09 4.05,-89.74 2.48,-89.36 1.11,-88.94 -0.08,-88.5 -1.21,-87.99 -2.36,-87.39 -3.55,-86.7 -4.75,-85.96 -5.92,-85.24 -7.05,-84.63 -8.15,-84.16 -9.23,-83.82 -10.31,-83.53 -11.41,-83.25 -12.51,-82.9 -13.62,-82.51 -14.75,-82.11 -15.92,-81.8 -17.09,-81.58 -18.18,-81.33 -19.26,-80.76 -21.13,-79.92" fill="none" stroke="rgb(167, 133, 106)" stroke-width="2" stroke-linejoin="round" filter="url(#fuzzy)" /><polyline points="76.7,-16.82 80.28,-14.89 81.24,-13.25 81.85,-12.07 82.28,-11.08 82.6,-10.07 83.06,-9.01 83.92,-7.89 85.26,-6.7 86.98,-5.4 88.91,-3.96 90.94,-2.34 93.08,-0.64 95.57,0.85 98.91,1.58 103.05,0.75" fill="none" stroke="rgb(167, 133, 106)" stroke-width="2" stroke-linejoin="round" filter="url(#fuzzy)" /><polyline points="-24.78,-78.67 -26.66,-78.34 -28.01,-78.21 -29.18,-78.14 -30.32,-78.12 -31.54,-78.32 -32.9,-78.89 -34.4,-79.79 -35.98,-80.77 -37.58,-81.49 -39.19,-81.78 -40.84,-81.69 -42.58,-81.39 -44.39,-81.1 -46.31,-81.21 -48.59,-81.86 -6.09,-78.39 -6.37,-79.02 -7.21,-79.47 -8.16,-79.81 -9.2,-80.05 -10.28,-80.19 -11.39,-80.24 -12.51,-80.22 -13.63,-80.14 -14.75,-79.99 -15.88,-79.81 -16.99,-79.61 -18.11,-79.44 -19.25,-79.29 -20.48,-79.14 -21.81,-78.94 -23.22,-78.69 -24.56,-78.44 -25.7,-78.22 -27.13,-77.78 -46.76,-64.45 -45.81,-65.24 -45.26,-65.89 -44.75,-66.53 -44.12,-67.18 -43.33,-67.89 -42.43,-68.62 -41.43,-69.37 -40.34,-70.14 -39.18,-70.92 -37.97,-71.72 -36.75,-72.5 -35.56,-73.23 -34.45,-73.87 -33.42,-74.41 -32.47,-74.87 -31.58,-75.31 -30.7,-75.79 -29.81,-76.36 -28.91,-76.95 -28.15,-77.37 -10.83,-83.44 -12.18,-83.1 -13.22,-82.92 -14.29,-82.69 -15.42,-82.37 -16.55,-81.97 -17.63,-81.53 -18.67,-81.06 -19.73,-80.57 -20.89,-80.08 -22.15,-79.59 -23.47,-79.14 -24.75,-78.72 -25.89,-78.33 -27.01,-77.88 -28.15,-77.37" fill="none" stroke="rgb(167, 133, 106)" stroke-width="2" stroke-linejoin="round" filter="url(#fuzzy)" /><polyline points="-28.73,-77.11 -28.16,-77.98 -27.32,-78.96 -26.4,-80.03 -25.4,-81.21 -24.29,-82.36 -23.1,-83.39 -21.91,-84.45 -20.84,-85.83 -19.9,-87.77 -19.09,-90.27 -18.3,-93.04 -17.45,-95.61 -16.46,-97.59 -15.33,-98.92 -14.1,-99.86 -12.85,-100.78 -11.63,-101.85 -10.47,-102.92 -9.34,-103.79 -8.18,-104.62 -6.89,-106 -4.69,-107.51 -46.72,-64.4 -45.87,-65.33 -45.34,-65.99 -44.8,-66.57 -44.12,-67.13 -43.28,-67.72 -42.33,-68.34 -41.3,-69.03 -40.22,-69.79 -39.1,-70.61 -37.93,-71.48 -36.74,-72.34 -35.56,-73.13 -34.44,-73.81 -33.43,-74.38 -32.55,-74.87 -31.75,-75.36 -30.94,-75.91 -30.28,-76.49 -39.68,-71.19 -38.1,-73.24 -37.06,-75.07 -36.09,-76.32 -35.11,-77.06 -34.13,-77.54 -33.21,-78.08 -32.39,-78.89 -31.67,-80.03 -30.98,-81.41 -30.27,-82.84 -29.45,-84.16 -28.49,-85.25 -27.36,-86.11 -26.1,-86.77 -24.75,-87.28 -23.36,-87.7 -22.01,-88.1 -20.73,-88.59 -19.55,-89.29 -18.41,-90.28 -17.26,-91.44 -16.1,-92.53 -15.07,-93.51 -14.58,-94.76 -22.85,-102.33 -23.78,-101.87 -24.82,-99.58 -26.02,-97.37 -27.33,-95.59 -28.57,-93.96 -29.61,-92.23 -30.46,-90.38 -31.21,-88.53 -31.9,-86.78 -32.54,-85.08 -33.09,-83.33 -33.53,-81.48 -33.92,-79.63 -34.38,-77.95 -34.99,-76.55 -35.8,-75.34 -36.8,-74.16 -37.96,-72.93 -39.21,-71.8 -39.99,-70.99 -19.6,-77.73 -22.12,-77.16 -23.76,-76.82 -24.97,-76.6 -26.06,-76.4 -27.1,-76.16 -28.11,-75.85 -29.09,-75.48 -30.04,-75.13 -30.99,-74.81 -31.92,-74.52 -32.86,-74.21 -33.84,-73.83 -34.93,-73.34 -36.17,-72.76 -37.6,-72.11 -39.05,-71.46 -39.99,-70.99 -30.92,-88.66 -31.43,-86.92 -32.28,-86.09 -33.33,-85.65 -34.29,-85.05 -35.02,-84 -35.51,-82.5 -35.91,-80.72 -36.36,-78.89 -37.04,-77.21 -37.98,-75.8 -39.13,-74.62 -40.26,-73.45 -41.15,-72.06 -41.89,-70.6 -42.92,-69.75 -49.33,-64.12 -51.18,-64.01 -52.31,-63.19 -53.22,-62.05 -54.07,-61.07 -54.94,-60.41 -55.94,-59.99 -57.17,-59.65 -58.67,-59.31 -60.39,-58.94 -62.15,-58.53 -63.75,-58.07 -65.02,-57.53 -65.98,-56.96 -66.69,-56.65 -66.63,-57.47" fill="none" stroke="rgb(167, 133, 106)" stroke-width="2" stroke-linejoin="round" filter="url(#fuzzy)" /><polyline points="-49.33,-64.12 -49.11,-64.81 -48.42,-66.03 -47.74,-67.2 -47.11,-68.14 -46.48,-68.94 -45.8,-69.73 -45.05,-70.58 -44.21,-71.48 -43.26,-72.39 -42.19,-73.27 -41,-74.09 -39.73,-74.88 -38.44,-75.65 -37.19,-76.42 -36.04,-77.17 -35.02,-77.9 -34.12,-78.63 -33.31,-79.4 -32.5,-80.23 -31.64,-81.04 -30.74,-81.79 -30.06,-82.61" fill="none" stroke="rgb(167, 133, 106)" stroke-width="2" stroke-linejoin="round" filter="url(#fuzzy)" /><polyline points="-50.8,-62.85 -51.64,-62.19 -52.67,-61.12 -53.54,-60.15 -54.25,-59.35 -54.93,-58.57 -55.71,-57.72 -56.57,-56.75 -57.46,-55.72 -58.32,-54.67 -59.1,-53.64 -59.78,-52.63 -60.38,-51.65 -60.95,-50.67 -61.52,-49.67 -62.11,-48.67 -62.71,-47.67 -63.32,-46.69 -63.91,-45.72 -64.49,-44.74 -65.1,-43.7 -65.77,-42.57 -66.54,-41.26 -67.62,-39.3 -41.97,-96.28 -40.98,-93.74 -41.23,-91.71 -41.8,-89.56 -42.53,-87.34 -43.34,-85.1 -44.12,-82.87 -44.79,-80.65 -45.34,-78.47 -45.77,-76.36 -46.15,-74.41 -46.53,-72.7 -46.96,-71.28 -47.52,-70.21 -48.31,-69.48 -49.43,-69.11 -50.85,-69.01 -52.29,-68.88 -53.06,-67.95 -52.44,-65.42 -51.44,-62.71" fill="none" stroke="rgb(167, 133, 106)" stroke-width="2" stroke-linejoin="round" filter="url(#fuzzy)" /><polyline points="-55.02,-59.1 -55.57,-63.53 -54.98,-65.62 -53.84,-66.48 -52.61,-66.99 -51.53,-67.66 -50.74,-68.71 -50.3,-70.21 -50.23,-72.12 -50.44,-74.36 -50.76,-76.81 -51.02,-79.32 -51.07,-81.77 -50.86,-84.08 -50.45,-86.35 -49.94,-88.76 -49.33,-91.44 -48.47,-94.33 -47.52,-97.35" fill="none" stroke="rgb(167, 133, 106)" stroke-width="2" stroke-linejoin="round" filter="url(#fuzzy)" /><polyline points="-43.28,-77.65 -43.81,-76.89 -44.57,-75.7 -45.36,-74.49 -46.17,-73.41 -46.99,-72.55 -47.79,-71.84 -48.53,-71.14 -49.21,-70.3 -49.8,-69.22 -50.32,-67.93 -50.8,-66.51 -51.27,-65.07 -51.82,-63.67 -52.5,-62.34 -53.3,-61.11 -54.04,-60.12 -54.35,-59.65 -53.98,-60.14" fill="none" stroke="rgb(167, 133, 106)" stroke-width="2" stroke-linejoin="round" filter="url(#fuzzy)" /><polyline points="-57.21,-56.76 -56.23,-58.09 -55.47,-59.09 -55,-59.88 -54.63,-60.87 -54.26,-62.19 -53.9,-63.78 -53.57,-65.5 -53.28,-67.26 -53.05,-69.11 -52.95,-71.16 -53.03,-73.49 -53.3,-75.98 -53.62,-78.29 -53.72,-80.07 -53.29,-81.3 -52.27,-82.9" fill="none" stroke="rgb(167, 133, 106)" stroke-width="2" stroke-linejoin="round" filter="url(#fuzzy)" /><polyline points="-59.94,-53.03 -60,-52.95 -60.17,-52.19 -60.51,-51.28 -61.05,-50.37 -61.67,-49.4 -62.28,-48.39 -62.82,-47.36 -63.3,-46.32 -63.72,-45.27 -64.09,-44.15 -64.43,-42.95 -64.77,-41.7 -65.1,-40.41 -65.32,-39.13 -65.36,-37.88 -65.61,-36.4 -63.28,-31.64 -63.35,-33.3 -63.59,-34.62 -63.81,-35.82 -63.77,-36.89 -63.4,-37.87 -62.86,-38.85 -62.35,-39.92 -62.1,-41.19 -62.14,-42.63 -62.35,-44.12 -62.46,-45.52 -62.3,-46.73 -61.8,-47.78 -61.13,-48.77 -60.6,-49.85 -60.63,-51.19 -60.65,-53.12 -96.05,-33.76 -93.94,-35.84 -92.24,-36.91 -90.34,-37.67 -88.35,-38.4 -86.46,-39.21 -84.76,-40.13 -83.2,-41.08 -81.66,-41.97 -80.08,-42.74 -78.48,-43.42 -76.97,-44.1 -75.61,-44.84 -74.37,-45.65 -73.16,-46.49 -71.87,-47.26 -70.48,-47.91 -69,-48.46 -67.58,-48.99 -66.41,-49.7 -65.68,-50.78 -65.37,-52.23 -64.95,-53.5 -63.35,-53.5 -60.65,-53.12 -60.65,-53.12 -61.62,-52.04 -62.47,-51.43 -63.43,-50.65 -64.51,-49.88 -65.77,-49.3 -67.3,-48.95 -69.03,-48.72 -70.77,-48.42 -72.37,-47.91 -73.77,-47.2 -75.07,-46.37 -76.34,-45.58 -77.59,-44.88 -78.73,-44.24 -79.5,-43.52 -79.41,-42.34" fill="none" stroke="rgb(167, 133, 106)" stroke-width="2" stroke-linejoin="round" filter="url(#fuzzy)" /><polyline points="-64.01,-48.1 -63.93,-48.92 -63.85,-50.43 -63.76,-51.98 -63.43,-53.19 -62.86,-54.13 -62.21,-55.09 -61.65,-56.31 -61.24,-57.84 -60.94,-59.59 -60.67,-61.34 -60.33,-62.91 -59.88,-64.22 -59.33,-65.39 -58.74,-66.6 -58.18,-68.05 -57.74,-69.78 -57.51,-71.75 -57.49,-73.83 -57.55,-76.02 -56.86,-78.37" fill="none" stroke="rgb(167, 133, 106)" stroke-width="2" stroke-linejoin="round" filter="url(#fuzzy)" /><polyline points="-64.01,-48.1 -65.71,-47.45 -67.01,-46.94 -67.82,-45.98 -68.46,-44.81 -69.09,-43.63 -69.78,-42.54 -70.56,-41.55 -71.47,-40.66 -72.53,-39.84 -73.75,-39.04 -75.12,-38.24 -76.59,-37.43 -78.12,-36.61 -79.69,-35.78 -81.28,-34.94 -82.86,-34.07 -84.31,-33.08 -85.53,-31.91 -86.57,-30.52 -87.63,-29.02 -88.99,-27.56 -90.64,-26.28 -92.14,-25.3 -93.25,-25.16" fill="none" stroke="rgb(167, 133, 106)" stroke-width="2" stroke-linejoin="round" filter="url(#fuzzy)" /><polyline points="-65.36,-46.21 -64.5,-47.61 -63.95,-48.76 -63.52,-50.03 -63.17,-51.33 -62.83,-52.51 -62.4,-53.58 -61.89,-54.61 -61.31,-55.73 -60.69,-57 -60.06,-58.41 -59.48,-59.92 -59.08,-61.47 -58.97,-63.03 -59.12,-64.63 -59.26,-66.37 -58.96,-68.44 -58.07,-70.78 -66.32,-44.21 -65.45,-45.73 -64.95,-46.74 -64.49,-47.75 -64.07,-48.9 -63.76,-50.21 -63.61,-51.66 -63.65,-53.25 -63.83,-54.99 -64.1,-56.89 -64.41,-58.99 -64.73,-61.25 -64.99,-63.58 -65.15,-65.85 -65.18,-67.93 -65.07,-69.81 -64.85,-71.56 -64.53,-73.28 -64.08,-75.01 -63.48,-76.7 -62.8,-78.35 -62.24,-80.12 -61.96,-82.37 -61.73,-85.2 -60.91,-87.93" fill="none" stroke="rgb(167, 133, 106)" stroke-width="2" stroke-linejoin="round" filter="url(#fuzzy)" /><polyline points="-58.2,-67.42 -59.31,-65.7 -59.63,-64.82 -60.04,-64.01 -60.55,-62.85 -61.04,-61.32 -61.47,-59.6 -61.86,-57.93 -62.24,-56.41 -62.6,-55.06 -62.98,-53.84 -63.4,-52.69 -63.9,-51.58 -64.53,-50.55 -65.28,-49.6 -66.1,-48.75 -66.88,-47.9 -67.41,-46.87 -67.58,-45.53 -67.53,-44.05 -67.43,-42.77" fill="none" stroke="rgb(167, 133, 106)" stroke-width="2" stroke-linejoin="round" filter="url(#fuzzy)" /><polyline points="-101.27,-27.33 -101.23,-27.74 -98.48,-28.37 -95.17,-29.23 -92.36,-30.3 -90.15,-31.49 -88.4,-32.72 -87,-33.93 -85.77,-35.06 -84.41,-36.03 -82.63,-36.75 -80.32,-37.23 -77.75,-37.62 -75.45,-38.16 -73.57,-38.81 -71.45,-38.96 -69.42,-38.51" fill="none" stroke="rgb(167, 133, 106)" stroke-width="2" stroke-linejoin="round" filter="url(#fuzzy)" /><polyline points="-69.64,-38.37 -70.14,-37.12 -70.86,-35.78 -71.55,-34.51 -72.18,-33.32 -72.83,-32.21 -73.51,-31.12 -74.2,-30.01 -74.86,-28.82 -75.47,-27.56 -76.05,-26.24 -76.59,-24.91 -77.12,-23.63 -77.61,-22.43 -78.07,-21.29 -78.48,-20.19 -78.84,-19.07 -79.16,-17.92 -79.48,-16.72 -79.79,-15.48 -80.12,-14.19 -80.48,-12.81 -80.87,-11.38 -81.29,-10.24 -81.69,-10.01" fill="none" stroke="rgb(167, 133, 106)" stroke-width="2" stroke-linejoin="round" filter="url(#fuzzy)" /><polyline points="-61.29,-15.26 -63.76,-16.77 -65.12,-17.9 -66.1,-19.21 -66.99,-20.73 -67.67,-22.29 -68,-23.79 -68.06,-25.19 -68.07,-26.53 -68.29,-27.89 -68.84,-29.36 -69.63,-30.94 -70.37,-32.55 -70.74,-34.1 -70.56,-35.62 -69.9,-37.27 -62.31,-54.58 -62.87,-53.1 -63.34,-52.15 -63.9,-51.05 -64.48,-49.9 -65.01,-48.79 -65.52,-47.74 -66.01,-46.68 -66.53,-45.61 -67.08,-44.49 -67.64,-43.34 -68.16,-42.17 -68.62,-41.03 -69.01,-39.96 -69.36,-39 -69.67,-38.14 -69.9,-37.27 -52.07,-55.93 -52.11,-56.27 -52.57,-56.09 -53.36,-55.37 -54.35,-54.42 -55.42,-53.47 -56.5,-52.62 -57.53,-51.87 -58.51,-51.2 -59.45,-50.56 -60.37,-49.9 -61.28,-49.2 -62.16,-48.44 -62.98,-47.62 -63.74,-46.74 -64.43,-45.81 -65.05,-44.81 -65.61,-43.72 -66.07,-42.54 -66.42,-41.28 -66.69,-40.02 -67.06,-38.92 -67.78,-38.15 -68.95,-37.76 -69.9,-37.27" fill="none" stroke="rgb(167, 133, 106)" stroke-width="2" stroke-linejoin="round" filter="url(#fuzzy)" /><polyline points="-72.14,-32.79 -72.78,-32 -74.1,-31.16 -75.87,-30.5 -77.88,-29.8 -79.81,-28.92 -81.39,-27.83 -82.58,-26.6 -83.47,-25.33 -84.15,-24.1 -84.68,-22.93 -85.15,-21.78 -85.73,-20.62 -86.62,-19.46 -87.95,-18.33 -89.72,-17.24 -91.85,-16.11 -94.26,-14.85 -97.01,-13.54 -100.35,-12.61 -104.89,-12.85 -102.6,-6.28 -100.64,-7.81 -98.42,-8.88 -95.97,-9.69 -93.84,-10.53 -92.14,-11.54 -90.71,-12.7 -89.33,-13.94 -87.86,-15.16 -86.28,-16.32 -84.71,-17.42 -83.3,-18.5 -82.18,-19.57 -81.4,-20.67 -80.95,-21.82 -80.74,-23.06 -80.68,-24.44 -80.67,-25.97 -80.6,-27.58 -80.25,-29.12 -79.19,-30.32 -77,-30.89 -74.05,-31.07 -72.1,-32.33" fill="none" stroke="rgb(167, 133, 106)" stroke-width="2" stroke-linejoin="round" filter="url(#fuzzy)" /><polyline points="-73.46,-29.09 -74.24,-26.87 -75.07,-25.33 -76.29,-24.12 -77.7,-23.11 -78.91,-22.19 -79.71,-21.24 -80.18,-20.2 -80.54,-19.08 -80.91,-17.88 -81.34,-16.66 -81.83,-15.4 -82.39,-14.13 -83.08,-12.87 -83.95,-11.67 -84.94,-10.56 -85.93,-9.55 -86.78,-8.57 -87.51,-7.51 -88.25,-6.26 -89.12,-4.75 -89.95,-3.14 -91.04,-2.29" fill="none" stroke="rgb(167, 133, 106)" stroke-width="2" stroke-linejoin="round" filter="url(#fuzzy)" /><polyline points="83.08,-6.93 82.43,-8.51 82.02,-9.58 81.73,-10.58 81.37,-11.63 80.82,-12.81 80.11,-14.15 79.36,-15.55 78.66,-16.9 78.04,-18.12 77.47,-19.23 76.93,-20.31 76.39,-21.42 75.89,-22.55 75.44,-23.65 75.07,-24.65 74.7,-25.56 74.23,-26.59 97.05,-7.34 94.28,-8.27 92.36,-9.43 90.96,-10.52 89.97,-11.59 89.09,-12.72 88.02,-13.95 86.7,-15.28 85.25,-16.63 83.83,-17.93 82.56,-19.12 81.49,-20.24 80.62,-21.35 80.01,-22.51 79.67,-23.75 79.51,-25.02 79.2,-26.2 78.2,-27.15 76.27,-27.89 74.16,-28.59 73.4,-29.14 72.1,-31.94 73.41,-33.71 74.24,-35.12 74.15,-36.3 74.11,-37.65 74.25,-39.14 74.24,-40.53 73.85,-41.71 73.19,-42.74 72.55,-43.82 72.21,-45.15 72.29,-46.86 72.74,-48.92 73.34,-51.24 73.86,-53.66 74.15,-56.06 74.21,-58.38 74.12,-60.57 73.96,-62.53 73.74,-64.18 73.49,-65.6 73.4,-67.16 73.72,-69.29 74.36,-71.91 74.84,-74.06" fill="none" stroke="rgb(167, 133, 106)" stroke-width="2" stroke-linejoin="round" filter="url(#fuzzy)" /><polyline points="82.71,-62.02 81.84,-60.06 80.49,-57.26 79.26,-54.39 78.39,-51.88 77.9,-49.83 77.72,-48.19 77.69,-46.75 77.55,-45.27 77.07,-43.6 76.29,-41.73 75.48,-39.83 74.76,-37.98 73.84,-36.09 72.48,-34.29 71.67,-33.2 71.63,-34 69.92,-35.54 69.14,-36.69 68.68,-37.71 68.18,-38.7 67.61,-39.64 66.99,-40.54 66.35,-41.45 65.67,-42.39 64.88,-43.37 63.97,-44.39 62.95,-45.44 61.87,-46.54 60.81,-47.69 59.81,-48.84 58.94,-49.86 58.19,-50.62 57.52,-51.1 56.77,-51.47 55.81,-52.06" fill="none" stroke="rgb(167, 133, 106)" stroke-width="2" stroke-linejoin="round" filter="url(#fuzzy)" /><polyline points="69.64,-38.46 70.63,-36.69 71.72,-35.45 72.9,-34.71 74.07,-34.14 75.02,-33.44 75.64,-32.49 76.02,-31.31 76.36,-30.02 76.77,-28.73 77.3,-27.49 77.94,-26.33 78.67,-25.22 79.52,-24.14 80.54,-23.09 81.78,-22.09 83.22,-21.2 84.74,-20.44 86.12,-19.62 87.23,-18.27 88.9,-15.92 67.57,-42.04 67.87,-41.5 68.5,-40.78 69.23,-39.9 69.98,-38.96 70.75,-38.04 71.56,-37.14 72.41,-36.26 73.26,-35.43 74.09,-34.66 74.91,-33.91 75.77,-33.11 76.68,-32.23 77.69,-31.23 78.85,-30.11 80.14,-28.82 81.16,-27.35 67.57,-42.04 68.08,-44.11 69.31,-46.87 69.77,-49.12 69.16,-50.67 67.91,-51.82 66.51,-52.86 65.34,-53.93 64.55,-55.08 64.19,-56.4 64.24,-57.98 64.6,-59.89 65.13,-62.07 65.65,-64.38 66.01,-66.67 66.19,-68.87 66.3,-71.05 66.41,-73.28 66.36,-75.39 65.99,-77.36 65.91,-80.55" fill="none" stroke="rgb(167, 133, 106)" stroke-width="2" stroke-linejoin="round" filter="url(#fuzzy)" /><polyline points="66.73,-43.09 66.07,-44.64 65.37,-46.06 64.68,-47.47 63.93,-48.94 63.17,-50.41 62.53,-51.8 62.05,-53.08 61.67,-54.23 61.32,-55.31 60.92,-56.39 60.45,-57.51 59.95,-58.71 59.43,-59.98 58.88,-61.24 58.24,-62.41 57.51,-63.44 56.71,-64.42 55.94,-65.56 55.06,-67.28 66.73,-43.09 67.36,-42.26 68.01,-41.59 69.1,-41.03 70.75,-40.65 72.68,-40.35 74.52,-39.94 76.06,-39.35 77.28,-38.59 78.26,-37.73 79.1,-36.81 79.87,-35.84 80.6,-34.8 81.31,-33.68 82.03,-32.48 82.83,-31.24 83.76,-30.03 84.94,-28.9 86.4,-27.88 88.13,-26.93 89.97,-25.95 91.67,-24.86 93.09,-23.74 94.36,-22.99 95.54,-23.26" fill="none" stroke="rgb(167, 133, 106)" stroke-width="2" stroke-linejoin="round" filter="url(#fuzzy)" /><polyline points="64.76,-46.14 65.8,-44.83 66.35,-43.49 66.69,-42.31 67.02,-41.29 67.4,-40.32 67.79,-39.31 68.08,-38.22 68.23,-37.04 68.26,-35.78 68.26,-34.51 68.31,-33.32 68.43,-32.29 68.5,-31.4 68.37,-30.53 68.05,-29.77 64.42,-28.54 64.51,-29.59 64.67,-30.54 64.78,-31.63 64.85,-32.86 65.03,-34.2 65.38,-35.64 65.75,-37.08 65.93,-38.39 65.76,-39.48 65.19,-40.32 64.39,-41.09 63.66,-42.04 63.36,-43.41 63.58,-45.19 64,-46.94 64.11,-48.07" fill="none" stroke="rgb(167, 133, 106)" stroke-width="2" stroke-linejoin="round" filter="url(#fuzzy)" /><polyline points="61.7,-51.07 63.3,-48.92 64.25,-47.5 65.09,-46.28 65.9,-45.12 66.66,-44.02 67.38,-43 68.07,-42.06 68.74,-41.14 69.38,-40.21 70,-39.24 70.58,-38.23 71.12,-37.19 71.62,-36.14 72.08,-35.11 72.5,-34.11 72.9,-33.14 73.31,-32.15 73.76,-31.09 74.28,-29.94 74.87,-28.66 75.54,-27.21 76.24,-25.69" fill="none" stroke="rgb(167, 133, 106)" stroke-width="2" stroke-linejoin="round" filter="url(#fuzzy)" /><polyline points="61.7,-51.07 63.03,-48.74 63.71,-47.12 64.38,-45.81 65.07,-44.58 65.69,-43.41 66.2,-42.3 66.63,-41.23 66.99,-40.16 67.29,-39.07 67.55,-37.95 67.8,-36.8 68.08,-35.66 68.4,-34.57 68.74,-33.53 69.01,-32.54 69.18,-31.57 69.25,-30.55 69.32,-29.45 69.4,-28.29 69.24,-27.51" fill="none" stroke="rgb(167, 133, 106)" stroke-width="2" stroke-linejoin="round" filter="url(#fuzzy)" /><polyline points="61.7,-51.07 64.01,-49.43 66.12,-48.81 67.9,-48.21 69.04,-47.24 69.62,-45.98 70.08,-44.72 70.77,-43.68 71.83,-42.89 73.15,-42.25 74.57,-41.64 76,-40.99 77.45,-40.32 78.92,-39.65 80.36,-38.98 81.66,-38.27 82.71,-37.43 83.51,-36.43 84.25,-35.29 85.21,-34.1 86.59,-32.95 88.36,-31.89 90.32,-30.95 92.12,-30.1 92.5,-28.7 61.7,-51.07 63.26,-48.93 64.12,-47.46 64.77,-46.16 65.34,-44.85 65.8,-43.58 66.17,-42.37 66.53,-41.27 66.92,-40.26 67.37,-39.28 67.83,-38.29 68.25,-37.25 68.61,-36.15 68.91,-34.96 69.18,-33.77 69.31,-32.78 69.27,-32.09" fill="none" stroke="rgb(167, 133, 106)" stroke-width="2" stroke-linejoin="round" filter="url(#fuzzy)" /><polyline points="60.33,-52.89 61.62,-53.74 63.18,-53.76 64.14,-52.56 64.97,-50.97 66.14,-49.63 67.8,-48.75 69.83,-48.26 72.01,-47.95 74.04,-47.65 75.7,-47.24 76.93,-46.62 77.95,-45.8 79.25,-44.99 81.38,-44.77 84.45,-46.64 59.52,-53.63 58.81,-54.8 58.35,-56.15 58.08,-57.66 57.92,-59.32 57.79,-61.01 57.66,-62.7 57.56,-64.45 57.6,-66.41 57.8,-68.65 58.16,-71.16 58.64,-73.89 59.27,-76.79 60.11,-79.85 61.12,-82.98 61.98,-85.88 62.14,-87.82 61.68,-87.66" fill="none" stroke="rgb(167, 133, 106)" stroke-width="2" stroke-linejoin="round" filter="url(#fuzzy)" /><polyline points="58.62,-54.68 59.95,-57.89 61.33,-60.98 60.86,-62.28 59.22,-62.4 57.46,-62.36 56.18,-62.83 55.6,-64.09 55.7,-66.19 56.38,-69.07 57.45,-72.5 58.65,-76.06 59.6,-79.17 59.94,-81.31 59.54,-82.42 59.05,-83.43 60.96,-86.64" fill="none" stroke="rgb(167, 133, 106)" stroke-width="2" stroke-linejoin="round" filter="url(#fuzzy)" /><polyline points="58.62,-54.68 59,-56.93 59.17,-58.91 59.77,-61.43 60.19,-63.76 60.03,-65.41 59.36,-66.48 58.49,-67.37 57.74,-68.49 57.39,-70.14 57.57,-72.51 58.23,-75.44 59.02,-78.38 59.44,-80.67 59.37,-82.25 59.69,-84.39 62.5,-88.83" fill="none" stroke="rgb(167, 133, 106)" stroke-width="2" stroke-linejoin="round" filter="url(#fuzzy)" /><polyline points="54.22,-59.59 54.32,-59.71 53.77,-60.6 53.23,-61.78 52.86,-63.2 52.58,-64.76 52.31,-66.31 51.98,-67.69 51.54,-68.87 50.98,-69.9 50.33,-70.96 49.67,-72.25 49.06,-73.85 48.5,-75.69 47.9,-77.53 47.14,-79.11 46.15,-80.34 45.05,-81.44 43.77,-82.97 59.56,-31.25 59.58,-33.75 59.96,-35.43 60.19,-36.71 60.36,-37.96 60.41,-39.28 60.3,-40.64 60.01,-42.03 59.61,-43.47 59.14,-44.92 58.61,-46.33 58.05,-47.62 57.5,-48.77 57.06,-49.84 56.73,-50.89 56.44,-51.94 56.03,-52.97 55.44,-53.94 54.84,-55.04 54.57,-56.56 54.76,-58.26 55.23,-58.7" fill="none" stroke="rgb(167, 133, 106)" stroke-width="2" stroke-linejoin="round" filter="url(#fuzzy)" /><polyline points="53.07,-61.37 54.17,-59.61 54.97,-58.7 55.76,-57.77 56.46,-56.72 57.08,-55.62 57.65,-54.57 58.2,-53.61 58.77,-52.72 59.37,-51.85 60.05,-50.91 60.81,-49.86 61.63,-48.69 62.47,-47.43 63.28,-46.13 64.01,-44.83 64.66,-43.56 65.2,-42.36 65.64,-41.26 66,-40.23 66.34,-39.18 66.78,-37.81 67.49,-35.42" fill="none" stroke="rgb(167, 133, 106)" stroke-width="2" stroke-linejoin="round" filter="url(#fuzzy)" /><polyline points="35.28,-92.65 37.15,-90.49 37.94,-88.52 38.5,-86.98 39.18,-85.58 40.01,-84.2 40.94,-82.89 41.89,-81.72 42.84,-80.63 43.76,-79.54 44.65,-78.37 45.52,-77.11 46.36,-75.74 47.14,-74.27 47.82,-72.71 48.37,-71.08 48.82,-69.48 49.23,-68.03 49.73,-66.87 50.47,-66.05 51.49,-65.54 52.68,-65.13 53.62,-64.42 53.69,-62.87 53.07,-61.37 33.76,-69.24 35.06,-69.11 36,-69.08 36.91,-68.87 37.88,-68.47 38.92,-67.96 40.06,-67.46 41.27,-66.98 42.53,-66.53 43.76,-66.05 44.89,-65.51 45.86,-64.91 46.67,-64.25 47.41,-63.59 48.17,-62.97 49.03,-62.36 49.94,-61.7 50.8,-60.96 51.63,-60.4 53.07,-61.37 53.06,-60.98 53.61,-60.64 54.74,-60.18 56.39,-60.16 58.2,-60.23 59.76,-60 60.99,-59.43 62.09,-58.78 63.27,-58.25 64.6,-57.89 66.1,-57.61 67.74,-57.29 69.57,-56.88 71.57,-56.38 73.7,-55.79 75.82,-55.13 77.77,-54.35 79.44,-53.45 80.81,-52.47 82.09,-51.56 83.62,-50.92 85.62,-50.51 87.69,-49.62 89.66,-47.05" fill="none" stroke="rgb(167, 133, 106)" stroke-width="2" stroke-linejoin="round" filter="url(#fuzzy)" /><polyline points="51.22,-62.59 52.84,-61.89 54.11,-61.41 55.18,-60.81 56.05,-60 56.85,-59.07 57.71,-58.16 58.7,-57.38 59.79,-56.77 60.94,-56.29 62.11,-55.9 63.28,-55.49 64.47,-54.96 65.69,-54.23 66.93,-53.24 68.17,-52.07 69.42,-50.84 70.68,-49.66 71.95,-48.52 73.12,-47.31 74.06,-46.08 29.31,-65.92 30.23,-66.83 31.86,-67.06 33.27,-66.93 34.44,-66.74 35.56,-66.62 36.74,-66.59 38,-66.55 39.32,-66.47 40.66,-66.29 42.02,-66.04 43.35,-65.71 44.6,-65.3 45.71,-64.84 46.68,-64.42 47.55,-64.1 48.49,-63.88 49.76,-63.57 51.74,-62.37" fill="none" stroke="rgb(167, 133, 106)" stroke-width="2" stroke-linejoin="round" filter="url(#fuzzy)" /><polyline points="49.04,-64.8 50.46,-62.91 51.03,-61.5 51.51,-60.3 52.14,-59.29 52.93,-58.45 53.82,-57.69 54.67,-56.87 55.38,-55.92 55.91,-54.82 56.27,-53.62 56.48,-52.35 56.56,-51.04 56.55,-49.66 56.51,-48.2 56.56,-46.67 56.8,-45.15 57.28,-43.73 57.94,-42.42 58.57,-41.16 58.98,-39.84 59.04,-38.42 58.8,-36.99 58.46,-35.75 58.31,-34.73 45.28,-101.81 44.28,-98.19 44.71,-94.52 45.07,-91.06 45.11,-87.81 45.11,-84.95 45.26,-82.52 45.5,-80.25 45.7,-77.88 45.82,-75.35 45.95,-72.83 46.27,-70.59 46.86,-68.81 47.55,-67.41 47.97,-66.18 47.68,-65.53 41.03,-93.04 40.57,-91.38 40.85,-89.7 41.57,-87.72 42.34,-85.75 43.07,-84 43.75,-82.48 44.41,-81.02 45.07,-79.49 45.67,-77.79 46.15,-75.87 46.5,-73.7 46.82,-71.44 47.3,-69.47 48.11,-68.16 48.83,-67.33 47.68,-65.53 48.53,-65.14 46.77,-66.03 45.25,-66.5 43.76,-66.91 42.41,-67.38 41.2,-67.94 40.07,-68.49 38.92,-68.86 37.67,-68.94 36.3,-68.69 34.82,-68.24 33.35,-67.78 31.97,-67.51 30.78,-67.53 29.74,-67.81 28.75,-68.16 27.68,-68.38 26.48,-68.25 25.2,-67.65 23.85,-66.7 22.26,-65.96 20.16,-65.73" fill="none" stroke="rgb(167, 133, 106)" stroke-width="2" stroke-linejoin="round" filter="url(#fuzzy)" /><polyline points="48.53,-65.14 46.87,-66.14 45.31,-66.5 43.71,-66.71 42.24,-66.96 40.85,-67.17 39.44,-67.17 37.98,-66.94 36.57,-66.69 35.32,-66.65 34.24,-66.94 33.24,-67.44 32.2,-67.88 31.09,-67.99 29.94,-67.66 28.76,-67.07 27.42,-66.76 25.6,-67.24" fill="none" stroke="rgb(167, 133, 106)" stroke-width="2" stroke-linejoin="round" filter="url(#fuzzy)" /><polyline points="46.17,-66.87 48.11,-66.6 49.79,-67.33 51.29,-67.84 52.4,-67.58 53.28,-66.78 54.23,-65.95 55.48,-65.45 57.11,-65.39 59.07,-65.67 61.23,-66.1 63.37,-66.43 65.31,-66.47 66.99,-66.15 68.54,-65.66 70.15,-65.23 71.84,-65.03 73.66,-65.35 76.29,-67.32 62.83,-58.61 61.37,-59.19 60.28,-59.9 59.29,-60.75 58.3,-61.56 57.24,-62.22 56.11,-62.74 54.94,-63.22 53.8,-63.74 52.74,-64.37 51.78,-65.07 50.9,-65.78 50.03,-66.34 49.1,-66.65 48.03,-66.78 46.82,-66.95 45.36,-67.57 42.92,-69.2" fill="none" stroke="rgb(167, 133, 106)" stroke-width="2" stroke-linejoin="round" filter="url(#fuzzy)" /><polyline points="42.92,-69.2 45.27,-67.45 46.29,-66.25 46.83,-65.17 47.31,-64.28 47.86,-63.52 48.47,-62.72 49.04,-61.73 49.49,-60.54 49.86,-59.24 50.18,-57.92 50.49,-56.63 50.77,-55.35 50.98,-53.99 51.16,-52.54 51.29,-51.08 51.07,-49.71" fill="none" stroke="rgb(167, 133, 106)" stroke-width="2" stroke-linejoin="round" filter="url(#fuzzy)" /><polyline points="42.25,-70.21 41.09,-71.19 40.03,-71.72 39.06,-72.26 38.15,-72.85 37.19,-73.48 36.18,-74.16 35.15,-74.87 34.19,-75.58 33.28,-76.3 32.34,-77 31.32,-77.67 30.26,-78.27 29.26,-78.77 28.29,-79.26 26.95,-79.97 24.83,-80.96" fill="none" stroke="rgb(167, 133, 106)" stroke-width="2" stroke-linejoin="round" filter="url(#fuzzy)" /><polyline points="37.68,-72.86 37.98,-72.65 38.84,-72.42 40.2,-72.48 42,-72.99 44.06,-73.76 46.14,-74.47 48.01,-74.77 49.53,-74.54 50.68,-73.83 51.59,-72.89 52.42,-71.94 53.29,-71.13 54.3,-70.49 55.51,-70.03 56.94,-69.77 58.62,-69.72 60.47,-69.84 62.33,-69.95 64.06,-69.86 65.65,-69.52 67.39,-69.18 69.43,-69.13 70.54,-68.67" fill="none" stroke="rgb(167, 133, 106)" stroke-width="2" stroke-linejoin="round" filter="url(#fuzzy)" /><polyline points="18.11,-104.29 19.72,-103.15 20.8,-102.03 21.6,-99.99 22.36,-97.53 23.18,-95.19 24.07,-93.15 24.99,-91.41 25.94,-89.95 26.93,-88.79 27.94,-87.87 28.96,-87.02 29.95,-86.09 30.93,-85.1 31.93,-84.11 32.93,-83.08 33.73,-81.66 34.06,-79.51 33.93,-76.92 34.1,-74.95 35.95,-73.75 33.1,-75.07 33.13,-74.63 33.39,-73.3 34.14,-71.96 35.11,-70.97 35.98,-70.06 36.62,-68.96 37.11,-67.61 37.6,-66.18 38.18,-64.84 38.9,-63.69 39.77,-62.73 40.77,-61.97 41.84,-61.36 42.82,-60.8 43.5,-60.11 43.72,-59.13 43.52,-57.91 42.93,-56.72 33.1,-75.07 33.62,-75.64 35.21,-76.98 37.02,-77.72 38.57,-77.72 39.97,-77.58 41.47,-77.72 43.16,-78.15 45,-78.71 46.92,-79.23 48.88,-79.64 50.84,-79.9 52.81,-80.05 54.83,-80.25 56.94,-80.71 59.18,-81.59 61.56,-82.89 64.16,-84.44 67.11,-85.69 70.62,-85.14" fill="none" stroke="rgb(167, 133, 106)" stroke-width="2" stroke-linejoin="round" filter="url(#fuzzy)" /><polyline points="29.33,-77.03 31.21,-76.05 32.34,-75.48 33.16,-75.06 34.04,-74.61 35.07,-74.09 36.16,-73.51 37.22,-72.93 38.19,-72.34 39.14,-71.75 40.11,-71.12 41.15,-70.48 42.21,-69.8 43.27,-69.08 44.48,-68.17 46.79,-66.5 24.14,-78.71 24.27,-78.8 23.63,-79.23 22.61,-79.79 21.49,-80.33 20.38,-80.79 19.29,-81.19 18.21,-81.56 17.13,-81.93 16.02,-82.28 14.84,-82.59 13.58,-82.87 12.25,-83.14 10.88,-83.44 9.54,-83.78 8.24,-84.17 7,-84.54 5.77,-84.86 4.51,-85.1 3.2,-85.26 1.88,-85.4 0.67,-85.53 -0.36,-85.67 -1.24,-85.79 -1.4,-85.9 58.13,-96.58 53.72,-92.94 50.87,-91.02 48.64,-89.86 46.89,-89.47 45.42,-89.69 43.94,-89.98 42.29,-89.9 40.58,-89.51 38.96,-89.14 37.45,-88.97 35.89,-88.72 34.16,-87.93 32.3,-86.45 30.34,-84.47 27.74,-81.88 24.14,-78.71 39.13,-65.02 37.85,-65.58 36.97,-66.27 36.27,-67.16 35.68,-68.23 35.08,-69.46 34.41,-70.7 33.65,-71.79 32.8,-72.62 31.88,-73.2 30.89,-73.66 29.85,-74.15 28.86,-74.8 27.98,-75.61 27.14,-76.53 26.15,-77.46 25.04,-78.24 24.59,-78.42 21.25,-79.84 23.43,-79.09 24.48,-78.75 25.43,-78.47 26.46,-78.15 27.53,-77.78 28.6,-77.38 29.68,-76.95 30.77,-76.49 31.84,-76 32.89,-75.52 33.95,-75.04 35.03,-74.54 36.12,-74.03 37.19,-73.48 38.23,-72.91 39.23,-72.32 40.25,-71.73 41.34,-71.13 42.46,-70.54 43.35,-70 43.32,-69.86 48.73,-86.54 46.69,-86.74 45.15,-86.52 43.49,-86.13 41.68,-85.67 39.81,-85.06 37.97,-84.2 36.14,-83.14 34.32,-82.03 32.56,-81.06 30.92,-80.34 29.46,-79.94 28.19,-79.9 27.08,-80.25 26.15,-80.96 25.34,-81.84 24.37,-82.26 22.87,-81.32 21.76,-79.68 51.11,-89.94 49.91,-89.87 48.63,-90.29 47.01,-89.99 44.97,-88.99 42.77,-87.83 40.75,-87.03 39.1,-86.87 37.77,-87.27 36.6,-87.96 35.4,-88.53 34.05,-88.63 32.48,-88.07 30.73,-86.87 28.88,-85.29 27.06,-83.66 25.37,-82.32 23.86,-81.43 22.48,-80.93 21.17,-80.65 19.89,-80.47 18.54,-80.48 16.31,-80.89" fill="none" stroke="rgb(167, 133, 106)" stroke-width="2" stroke-linejoin="round" filter="url(#fuzzy)" /><polyline points="34.43,-90.43 32.67,-88.93 31.6,-88.06 30.23,-87.47 28.74,-86.96 27.32,-86.48 25.95,-86.06 24.61,-85.72 23.26,-85.46 21.92,-85.27 20.62,-85.06 19.34,-84.73 18.08,-84.23 16.83,-83.57 15.56,-82.89 14.25,-82.33 12.88,-82.01 11.34,-81.98 9.27,-82.27 7.66,-82.27 9.53,-82.82 11.51,-84.09 13.28,-85.31 14.87,-86.32 16.33,-87.21 17.72,-88.07 19.09,-88.84 20.43,-89.4 21.75,-89.67 23.06,-89.69 24.37,-89.6 25.69,-89.51 26.99,-89.46 28.29,-89.45 29.66,-89.61 31.19,-90.17 32.84,-91.25 34.51,-92.54 36.35,-93.21 38.88,-92.32" fill="none" stroke="rgb(167, 133, 106)" stroke-width="2" stroke-linejoin="round" filter="url(#fuzzy)" /><polyline points="33.43,-75.8 31.88,-76.5 30.32,-77.12 29.11,-77.55 28.06,-77.89 27.02,-78.22 25.97,-78.54 24.91,-78.86 23.85,-79.17 22.78,-79.49 21.68,-79.8 20.58,-80.1 19.47,-80.39 18.38,-80.66 17.31,-80.91 16.23,-81.15 15.11,-81.38 13.9,-81.59 12.58,-81.79 11.12,-81.98 9.6,-82.18 8.25,-82.38 7.64,-82.64 -18.3,-69.23 -16.59,-69.55 -15.76,-70.59 -15.01,-71.79 -14.13,-72.8 -13.2,-73.67 -12.26,-74.54 -11.33,-75.4 -10.4,-76.14 -9.44,-76.67 -8.47,-76.98 -7.47,-77.18 -6.45,-77.37 -5.4,-77.66 -4.32,-78.04 -3.22,-78.51 -2.14,-79.04 -1.08,-79.61 -0.03,-80.18 1.07,-80.65 2.27,-80.87 3.58,-80.79 4.87,-80.7 6.03,-81.39 7.64,-82.64 -0.38,-82.93 1.24,-80.81 2.97,-79.31 4.42,-79.21 5.57,-79.25 6.6,-78.84 7.63,-78 8.71,-76.91 9.83,-75.69 10.94,-74.45 12.01,-73.34 13.04,-72.51 14.01,-71.93 14.91,-71.43 15.72,-70.75 16.47,-69.78 17.2,-68.64 17.93,-67.49 18.74,-66.07 20.15,-63.89" fill="none" stroke="rgb(167, 133, 106)" stroke-width="2" stroke-linejoin="round" filter="url(#fuzzy)" />
    </g>
    
        <g id="pointNose">
          <g id="rightNose"><circle r="1.87" cx="12.142" cy="31.566000000000003" stroke="black" fill="none" stroke-width="1.0" filter="url(#fuzzy)" /><circle r="2.466" cx="10.994" cy="30.513999999999996" stroke="black" fill="none" stroke-width="1.0" filter="url(#fuzzy)" /><circle r="2.806" cx="13.998000000000001" cy="32.05" stroke="black" fill="none" stroke-width="1.0" filter="url(#fuzzy)" /><circle r="2.17" cx="11.014000000000001" cy="32.949999999999996" stroke="black" fill="none" stroke-width="1.0" filter="url(#fuzzy)" /><circle r="2.568" cx="11.71" cy="31.137999999999998" stroke="black" fill="none" stroke-width="1.0" filter="url(#fuzzy)" /><circle r="2.49" cx="11.61" cy="29.566" stroke="black" fill="none" stroke-width="1.0" filter="url(#fuzzy)" /><circle r="1.354" cx="12.43" cy="32.83" stroke="black" fill="none" stroke-width="1.0" filter="url(#fuzzy)" /><circle r="2.588" cx="11.542" cy="31.973999999999997" stroke="black" fill="none" stroke-width="1.0" filter="url(#fuzzy)" /><circle r="2.716" cx="14.642" cy="31.018" stroke="black" fill="none" stroke-width="1.0" filter="url(#fuzzy)" /><circle r="2.2880000000000003" cx="14.374000000000002" cy="32.07" stroke="black" fill="none" stroke-width="1.0" filter="url(#fuzzy)" /></g>
          <g id="leftNose"><circle r="2.154" cx="-8.63" cy="33.442" stroke="black" fill="none" stroke-width="1.0" filter="url(#fuzzy)" /><circle r="2.6799999999999997" cx="-11.85" cy="36.542" stroke="black" fill="none" stroke-width="1.0" filter="url(#fuzzy)" /><circle r="1.716" cx="-11.734" cy="36.154" stroke="black" fill="none" stroke-width="1.0" filter="url(#fuzzy)" /><circle r="1.8199999999999998" cx="-10.634" cy="36.446" stroke="black" fill="none" stroke-width="1.0" filter="url(#fuzzy)" /><circle r="1.776" cx="-10.738" cy="36.662" stroke="black" fill="none" stroke-width="1.0" filter="url(#fuzzy)" /><circle r="1.078" cx="-9.450000000000001" cy="36.354" stroke="black" fill="none" stroke-width="1.0" filter="url(#fuzzy)" /><circle r="2.0860000000000003" cx="-12.014000000000001" cy="36.322" stroke="black" fill="none" stroke-width="1.0" filter="url(#fuzzy)" /><circle r="1.71" cx="-11.278" cy="32.99" stroke="black" fill="none" stroke-width="1.0" filter="url(#fuzzy)" /><circle r="2.666" cx="-9.718" cy="34.366" stroke="black" fill="none" stroke-width="1.0" filter="url(#fuzzy)" /><circle r="1.2" cx="-9.186" cy="33.058" stroke="black" fill="none" stroke-width="1.0" filter="url(#fuzzy)" /></g>
        </g>
      
    <g id="mouth">
      <polyline points="-42.63,65.72 -42.43,65.1 -42.19,64.49 -41.93,63.89 -41.62,63.29 -41.29,62.7 -40.93,62.11 -40.53,61.53 -40.11,60.95 -39.66,60.38 -39.17,59.81 -38.66,59.26 -38.13,58.7 -37.56,58.16 -36.98,57.63 -36.36,57.1 -35.72,56.58 -35.06,56.06 -34.37,55.56 -33.66,55.07 -32.93,54.58 -32.18,54.1 -31.4,53.64 -30.61,53.18 -29.79,52.73 -28.96,52.3 -28.1,51.87 -27.23,51.46 -26.35,51.05 -25.44,50.66 -24.52,50.28 -23.58,49.91 -22.63,49.56 -21.67,49.21 -20.69,48.88 -19.7,48.56 -18.69,48.26 -17.68,47.97 -16.65,47.69 -15.61,47.42 -14.57,47.18 -13.51,46.94 -12.45,46.72 -11.37,46.52 -10.29,46.33 -9.21,46.15 -8.11,46 -7.01,45.85 -5.91,45.73 -4.8,45.62 -3.69,45.53 -2.58,45.45 -1.46,45.4 -0.34,45.36 0.78,45.34 1.9,45.33 3.02,45.35 4.14,45.39 5.26,45.44 6.38,45.51 7.49,45.6 8.6,45.72 9.71,45.85 10.81,46 11.91,46.18 13,46.37 14.09,46.59 15.17,46.82 16.24,47.08 17.3,47.36 18.36,47.66 19.4,47.99 20.44,48.34 21.46,48.71 22.47,49.1 23.48,49.52 24.47,49.96 25.44,50.43 26.4,50.92 27.35,51.43 28.29,51.97 29.2,52.54 30.1,53.13 30.99,53.74 31.86,54.38 32.7,55.05 33.54,55.75 34.35,56.47 35.14,57.21 35.91,57.99 36.66,58.79 37.39,59.62 38.09,60.48 38.77,61.37 39.43,62.28 40.07,63.23 40.68,64.2 41.26,65.2 41.82,66.23 42.35,67.29 42.35,67.29 41.5,66.54 40.65,65.8 39.8,65.08 38.95,64.39 38.1,63.71 37.25,63.06 36.4,62.42 35.55,61.81 34.7,61.22 33.85,60.64 33,60.09 32.15,59.55 31.3,59.04 30.45,58.54 29.6,58.06 28.75,57.6 27.9,57.16 27.05,56.73 26.2,56.33 25.35,55.94 24.5,55.57 23.65,55.22 22.8,54.88 21.95,54.57 21.1,54.26 20.25,53.98 19.4,53.71 18.55,53.46 17.7,53.22 16.85,53 16,52.8 15.16,52.61 14.31,52.44 13.46,52.28 12.61,52.14 11.76,52.01 10.91,51.9 10.06,51.8 9.21,51.72 8.36,51.65 7.51,51.59 6.66,51.55 5.81,51.52 4.96,51.5 4.11,51.5 3.26,51.51 2.41,51.53 1.56,51.57 0.71,51.62 -0.14,51.68 -0.99,51.75 -1.84,51.83 -2.69,51.93 -3.54,52.04 -4.39,52.16 -5.24,52.29 -6.09,52.43 -6.94,52.58 -7.79,52.74 -8.64,52.91 -9.49,53.09 -10.34,53.29 -11.19,53.49 -12.04,53.7 -12.89,53.92 -13.74,54.15 -14.59,54.39 -15.44,54.64 -16.29,54.9 -17.14,55.16 -17.99,55.44 -18.84,55.72 -19.69,56.01 -20.54,56.31 -21.39,56.61 -22.24,56.93 -23.09,57.25 -23.94,57.57 -24.79,57.91 -25.64,58.25 -26.49,58.59 -27.34,58.95 -28.19,59.3 -29.04,59.67 -29.89,60.04 -30.74,60.42 -31.59,60.8 -32.44,61.18 -33.29,61.58 -34.14,61.97 -34.99,62.37 -35.84,62.78 -36.69,63.19 -37.53,63.6 -38.38,64.02 -39.23,64.44 -40.08,64.86 -40.93,65.29 -41.78,65.72" fill="rgb(215,127,140)" stroke="black" stroke-width="3" stroke-linejoin="round" filter="url(#fuzzy)" />
    </g>
  </svg>
  