
  <svg viewBox="-100 -100 200 200" xmlns="http://www.w3.org/2000/svg" width="500" height="500" id="face-svg">
    <defs>
      <clipPath id="leftEyeClipPath">
        <polyline points="45.59,-3.08 45.26,-3.09 44.9,-3.1 44.51,-3.11 44.08,-3.12 43.62,-3.13 43.12,-3.14 42.58,-3.15 42.01,-3.16 41.4,-3.17 40.76,-3.17 40.08,-3.18 39.36,-3.19 38.61,-3.19 37.82,-3.2 37,-3.2 36.3,-3.21 35.52,-3.22 34.68,-3.22 33.78,-3.23 32.81,-3.23 31.79,-3.23 30.7,-3.24 29.57,-3.24 28.38,-3.24 27.14,-3.25 25.86,-3.25 24.54,-3.25 23.18,-3.25 21.79,-3.25 20.37,-3.25 18.93,-3.25 17.48,-3.25 16,-3.25 14.52,-3.25 13.03,-3.25 11.53,-3.25 10.04,-3.25 8.56,-3.24 7.08,-3.24 5.61,-3.24 4.16,-3.23 2.73,-3.23 1.33,-3.22 -0.06,-3.22 -1.41,-3.21 -2.74,-3.2 -4.03,-3.19 -5.29,-3.19 -6.51,-3.18 -7.7,-3.17 -8.85,-3.16 -9.96,-3.14 -11.03,-3.13 -12.06,-3.12 -13.05,-3.11 -14,-3.09 -14.91,-3.08 -15.78,-3.06 -16.61,-3.04 -17.4,-3.03 -18.16,-3.01 -18.88,-2.99 -19.57,-2.97 -20.23,-2.95 -20.86,-2.93 -21.46,-2.9 -22.04,-2.88 -22.58,-2.86 -23.1,-2.83 -23.59,-2.8 -24.05,-2.78 -24.49,-2.75 -24.9,-2.72 -25.29,-2.69 -25.66,-2.66 -26,-2.62 -26.33,-2.59 -26.63,-2.56 -26.92,-2.52 -27.97,-1.44 -27.76,-1.35 -27.55,-1.25 -27.32,-1.15 -27.09,-1.05 -26.83,-0.95 -26.57,-0.84 -26.29,-0.73 -26,-0.62 -25.69,-0.51 -25.36,-0.39 -25.02,-0.27 -24.66,-0.15 -24.28,-0.03 -23.88,0.09 -23.47,0.22 -23.04,0.35 -22.58,0.48 -22.11,0.61 -21.61,0.74 -21.08,0.88 -20.54,1.01 -19.96,1.15 -19.36,1.29 -18.73,1.42 -18.07,1.56 -17.38,1.7 -16.66,1.84 -15.91,1.97 -15.13,2.11 -14.31,2.24 -13.47,2.37 -12.59,2.49 -11.68,2.62 -10.75,2.73 -9.78,2.85 -8.78,2.95 -7.75,3.05 -6.7,3.15 -5.61,3.24 -4.5,3.32 -3.37,3.39 -2.21,3.45 -1.03,3.5 0.17,3.55 1.39,3.58 2.62,3.6 3.88,3.62 5.14,3.62 6.42,3.6 7.7,3.58 9,3.54 10.29,3.49 11.59,3.43 12.89,3.35 14.18,3.26 15.47,3.16 16.76,3.04 18.03,2.91 19.29,2.77 20.53,2.61 21.76,2.44 22.96,2.26 24.15,2.07 25.3,1.87 26.34,1.75 27.37,1.61 28.38,1.48 29.37,1.34 30.35,1.19 31.3,1.04 32.24,0.89 33.15,0.74 34.04,0.58 34.9,0.42 35.74,0.26 36.55,0.11 37.33,-0.05 38.09,-0.21 38.8,-0.36" />
      </clipPath>
      <clipPath id="rightEyeClipPath">
        <polyline points="-48.5,-2.77 -48.2,-2.78 -47.87,-2.79 -47.5,-2.8 -47.09,-2.82 -46.65,-2.83 -46.18,-2.84 -45.66,-2.85 -45.11,-2.85 -44.52,-2.86 -43.89,-2.87 -43.22,-2.88 -42.52,-2.89 -41.79,-2.89 -41.01,-2.9 -40.2,-2.9 -39.51,-2.91 -38.75,-2.92 -37.93,-2.92 -37.03,-2.92 -36.08,-2.93 -35.06,-2.93 -33.98,-2.94 -32.85,-2.94 -31.66,-2.94 -30.43,-2.95 -29.15,-2.95 -27.83,-2.95 -26.47,-2.95 -25.08,-2.95 -23.67,-2.96 -22.23,-2.96 -20.76,-2.96 -19.29,-2.96 -17.8,-2.96 -16.3,-2.96 -14.81,-2.96 -13.31,-2.95 -11.82,-2.95 -10.34,-2.95 -8.87,-2.95 -7.41,-2.95 -5.98,-2.94 -4.56,-2.94 -3.17,-2.94 -1.81,-2.93 -0.48,-2.93 0.81,-2.92 2.08,-2.92 3.31,-2.91 4.5,-2.91 5.65,-2.9 6.76,-2.89 7.84,-2.88 8.87,-2.87 9.86,-2.87 10.81,-2.86 11.72,-2.85 12.59,-2.84 13.43,-2.82 14.22,-2.81 14.98,-2.8 15.7,-2.79 16.39,-2.77 17.05,-2.76 17.68,-2.75 18.29,-2.73 18.86,-2.72 19.4,-2.7 19.92,-2.68 20.41,-2.67 20.87,-2.65 21.3,-2.63 21.72,-2.61 22.11,-2.59 22.47,-2.57 22.82,-2.55 23.14,-2.52 23.44,-2.5 23.73,-2.48 25.5,-1.58 25.36,-1.5 25.22,-1.42 25.06,-1.34 24.9,-1.25 24.73,-1.16 24.54,-1.07 24.35,-0.97 24.15,-0.88 23.94,-0.78 23.72,-0.68 23.48,-0.57 23.24,-0.46 22.98,-0.35 22.7,-0.24 22.42,-0.13 22.12,-0.01 21.8,0.11 21.47,0.23 21.12,0.36 20.75,0.49 20.36,0.62 19.95,0.75 19.52,0.88 19.07,1.02 18.59,1.16 18.08,1.29 17.55,1.43 16.99,1.57 16.41,1.71 15.79,1.84 15.15,1.98 14.47,2.11 13.77,2.25 13.03,2.37 12.26,2.5 11.46,2.62 10.63,2.73 9.76,2.84 8.87,2.95 7.93,3.05 6.97,3.14 5.98,3.22 4.95,3.29 3.89,3.36 2.8,3.41 1.68,3.46 0.54,3.49 -0.64,3.51 -1.84,3.52 -3.07,3.52 -4.33,3.51 -5.61,3.48 -6.9,3.44 -8.22,3.38 -9.56,3.31 -10.91,3.23 -12.28,3.13 -13.66,3.01 -15.05,2.89 -16.45,2.74 -17.85,2.59 -19.25,2.42 -20.66,2.24 -22.05,2.04 -23.21,1.93 -24.37,1.81 -25.52,1.68 -26.66,1.55 -27.79,1.42 -28.91,1.28 -30.01,1.13 -31.1,0.99 -32.17,0.84 -33.22,0.68 -34.25,0.53 -35.26,0.38 -36.23,0.22 -37.18,0.07 -38.09,-0.08" />
      </clipPath>
      <filter id="fuzzy">
        <feTurbulence id="turbulence" baseFrequency="0.05" numOctaves="3" type="noise" result="noise" />
        <feDisplacementMap in="SourceGraphic" in2="noise" scale="2" />
      </filter>
      <linearGradient id="rainbowGradient" x1="0%" y1="0%" x2="100%" y2="0%">
        <stop offset="0%" style="stop-color: rgb(233, 236, 239); stop-opacity: 1" />
        <stop offset="50%" style="stop-color: rgb(255, 20, 147); stop-opacity: 1" />
        <stop offset="100%" style="stop-color: rgb(154, 205, 50); stop-opacity: 1" />
      </linearGradient>
    </defs>
    <rect x="-100" y="-100" width="100%" height="100%" fill="rgb(188, 143, 143)" />
    <polyline id="faceContour" points="79.27,0.74 79.12,1.24 79.02,5.17 79.37,4.78 79.23,7.07 79.12,7.67 78.78,9.23 78.84,11.27 78.58,12.12 78.72,12 78.35,13.98 78.5,14.65 77.7,17.99 77.52,19.12 77.79,18.83 77.28,22.1 77.18,22.2 76.05,26.65 75.79,26.71 75.66,28.66 75.08,30.26 74.77,31.95 75.06,31 73.77,34.71 73.83,35.65 73.42,35.59 73.42,36.11 72.3,39.64 71.31,41.13 70.91,42.13 71.4,41.16 70.29,44.36 69.74,45.97 69.31,46.73 68.25,48.61 66.81,50.65 66.24,51.89 66.41,51.98 65.2,54.54 65.19,53.93 63.66,56.63 64.21,55.24 62.21,59.07 60.99,60.77 60.32,61.85 59.07,63.26 59.29,62.58 58.61,64.04 57.42,65.65 56.44,66.41 55.48,67.62 54.02,69.51 53.63,70.03 52.94,70.58 53.13,70.58 50.31,72.91 50.08,73.61 49.54,73.99 48.36,75.44 46.65,76.82 47.31,76.34 45.54,77.82 45.15,78.22 41.71,80.41 42.7,80.1 42.02,80.53 40.72,81.29 39.98,82.11 39.27,82.37 37.25,83.92 35.84,84.61 34.11,85.94 35.13,85.22 32.02,86.55 30.33,87.59 30.1,87.85 29.3,88.05 27.15,89.47 26.53,89.3 24.75,90.04 25.31,89.92 24.65,90.01 22.28,90.87 20.43,91.83 20.4,91.71 19.46,91.77 18,92.36 14.83,93.19 15.87,93.27 13.64,93.58 11.44,94.01 11.53,93.91 9.22,94.14 9.77,94.2 5.63,94.53 8.1,94.26 7,94.79 3.78,94.99 1.74,95.07 1.36,94.98 -0.09,94.89 -1.62,95.11 -3.18,94.68 -5.33,94.62 -5.06,94.49 -6.59,94.77 -7.63,94.33 -8.3,94.38 -8.07,94.39 -11.16,94.03 -13.31,93.37 -14.41,93.36 -13.09,93.77 -15.39,92.99 -16.35,93.17 -17.85,92.34 -19.16,92.2 -19.85,91.83 -21.62,91.5 -23.68,90.41 -24.53,90.18 -24.87,90.21 -28.18,88.88 -28.57,88.63 -28.83,88.39 -28.54,88.56 -32.46,86.5 -34.38,85.71 -32.07,86.75 -36.18,84.61 -37.31,83.56 -38.07,83.33 -37.58,83.73 -39.24,82.4 -40.12,81.72 -41.5,80.85 -43.57,79.38 -43.49,79.81 -44.97,78.09 -45.32,77.52 -46.43,76.75 -46.95,76.33 -47.7,75.73 -49.38,74.36 -49.9,73.25 -51.53,72.24 -51.88,71.67 -52.79,70.66 -54.7,68.62 -54.94,68.63 -56.46,66.45 -57.06,66.08 -57.04,66.07 -58.96,63.31 -59.03,63.46 -59.27,63.26 -61.12,60.21 -61.61,59.1 -62.84,57.79 -62.81,58.01 -64.35,55.84 -64.22,55.96 -64.03,55.75 -65.86,52.31 -67.42,49.52 -68.29,48.62 -67.64,49.73 -69.22,46.36 -69.51,46.4 -70.3,43.79 -70.34,44.14 -70.96,42.72 -72.02,38.99 -71.42,40.68 -72.86,36.6 -72.98,36.21 -73.97,34.77 -74.45,32.06 -74.43,32.26 -75.32,28.81 -76.01,27.63 -75.38,29.49 -75.83,27.71 -76.73,24.65 -76.84,22.76 -76.92,21.98 -77.16,21.44 -77.36,20.84 -77.92,18.08 -78.27,15.88 -78.2,14.94 -78.38,13.3 -78.3,12.68 -78.72,10.91 -78.71,11.77 -78.97,5.07 -78.91,5.64 -79.06,3.16 -79.05,3.34 -79.04,1.58 -79.29,-2.61 -79.41,-2.05 -79.01,-0.94 -78.99,-4.66 -78.88,-5.84 -78.78,-9.63 -78.89,-9.8 -78.69,-9.66 -78.51,-11.26 -78.37,-14.53 -77.93,-15.74 -78.14,-17.47 -77.62,-18.4 -77.76,-18.45 -77.18,-20.23 -76.98,-21.69 -77.06,-22.66 -76.48,-24.61 -76.29,-25.31 -75.74,-28.62 -75.75,-27.72 -75.05,-30.01 -74.92,-30.36 -73.84,-33.48 -73.83,-35.02 -73.38,-35.87 -72.47,-38.48 -72.15,-39.28 -72.1,-38.97 -71.16,-42.35 -70.09,-44.25 -70.42,-44.12 -68.97,-46.78 -68.79,-47.02 -67.35,-50.09 -67.82,-49.38 -67.71,-49.25 -66.16,-51.97 -65.39,-53.33 -65.01,-53.56 -63.98,-56.25 -62.34,-58.49 -62.6,-58.12 -60.97,-60.96 -61.91,-59.27 -61.14,-60.45 -59.29,-62.61 -57.81,-64.53 -57.2,-65.84 -55.6,-67.28 -55.58,-67.4 -56.08,-67.1 -54.53,-69.24 -52.9,-70.55 -51.9,-71.94 -51.88,-72.11 -51.36,-72.03 -49.6,-74.11 -47.04,-76.15 -47.92,-75.7 -47.45,-75.85 -44.41,-78.36 -44.56,-78.77 -43.33,-79.85 -43.81,-79 -41.03,-81.1 -40.91,-81.61 -39.01,-82.64 -38.01,-82.99 -39.03,-82.7 -35.88,-84.47 -35.03,-84.93 -33.4,-86.29 -31.77,-87.09 -31.8,-87.05 -31.16,-87.55 -29.73,-88.24 -27.64,-89.22 -27.1,-89.23 -26.28,-89.45 -25.36,-90.1 -24.25,-90.68 -22.06,-91.29 -19.89,-92.13 -20.09,-92.06 -18.32,-92.27 -16.87,-92.78 -15.73,-93.16 -14.34,-93.56 -12.61,-93.9 -11.31,-94.17 -10.63,-94.11 -10.13,-93.92 -8.39,-94.34 -7.29,-94.73 -7.62,-94.35 -5.69,-94.74 -2.51,-95.05 -3.43,-94.72 -0.31,-95.12 1.23,-94.88 -0.05,-95.15 2.2,-95.1 5.13,-94.91 6.32,-94.69 5.97,-94.58 7.46,-94.48 9.59,-93.97 9.96,-94.33 10.35,-94.08 12.51,-93.64 14.12,-93.36 13.73,-93.42 16.72,-92.55 15.93,-92.79 18.4,-92.53 19.37,-91.92 21.1,-91.68 21.09,-91.77 22.43,-91.28 24.28,-90.5 24.44,-90.16 25.36,-90.06 27.05,-89.36 28.63,-88.48 30.58,-87.75 31.3,-87.16 31.57,-87.11 34.52,-85.62 34.3,-85.82 35.45,-85.16 36.67,-84.57 39.02,-82.55 39.79,-82.22 39.88,-82.1 41.47,-81.12 42.2,-80.13 43.54,-79.17 44.68,-78.47 46.19,-77.51 47.72,-76.17 47.04,-75.97 48.61,-75.29 49.48,-74.08 49.89,-73.64 51.82,-71.86 51.48,-72.39 52.99,-70.4 53.59,-70.12 55.43,-67.61 56.42,-66.95 56.64,-66.21 56.69,-66.19 57.67,-65.26 59.46,-63.03 60.43,-61.11 61.66,-59.57 62.05,-59.35 63.19,-57.75 62.61,-58.29 63.86,-56.02 65.05,-54.74 65.82,-52.91 66.42,-52.07 67.03,-50.47 68.78,-47.56 68.66,-48.17 68.88,-46.85 69.92,-44.59 69.66,-45.28 70.37,-43.58 70.72,-42.59 71.11,-41.57 72.22,-39.26 73.01,-37.88 72.92,-37.41 73.9,-34.96 73.81,-34.23 74.69,-31.27 75.76,-29.18 75.01,-30.47 75.9,-27.91 76.25,-26.39 76.34,-24.83 76.4,-25.5 76.8,-22.49 77.16,-21.39 77.42,-20.71 78.19,-16.97 78.02,-18.14 78.49,-13.71 78.6,-13.55 78.75,-9.9 78.76,-11.43 78.97,-7.35 79.14,-8.3 79.06,-6.97 79.31,-6.17 79.39,-1.58 79.29,-2.78 79.27,0.74 79.12,1.24" fill="rgb(233, 150, 122)" stroke="black" stroke-width="1.6666666666666665" stroke-linejoin="round" filter="url(#fuzzy)" />
    <g transform="translate(43.839999999999996 -29.73)">
      <polyline id="rightCountour" points="-48.5,-2.77 -48.2,-2.78 -47.87,-2.79 -47.5,-2.8 -47.09,-2.82 -46.65,-2.83 -46.18,-2.84 -45.66,-2.85 -45.11,-2.85 -44.52,-2.86 -43.89,-2.87 -43.22,-2.88 -42.52,-2.89 -41.79,-2.89 -41.01,-2.9 -40.2,-2.9 -39.51,-2.91 -38.75,-2.92 -37.93,-2.92 -37.03,-2.92 -36.08,-2.93 -35.06,-2.93 -33.98,-2.94 -32.85,-2.94 -31.66,-2.94 -30.43,-2.95 -29.15,-2.95 -27.83,-2.95 -26.47,-2.95 -25.08,-2.95 -23.67,-2.96 -22.23,-2.96 -20.76,-2.96 -19.29,-2.96 -17.8,-2.96 -16.3,-2.96 -14.81,-2.96 -13.31,-2.95 -11.82,-2.95 -10.34,-2.95 -8.87,-2.95 -7.41,-2.95 -5.98,-2.94 -4.56,-2.94 -3.17,-2.94 -1.81,-2.93 -0.48,-2.93 0.81,-2.92 2.08,-2.92 3.31,-2.91 4.5,-2.91 5.65,-2.9 6.76,-2.89 7.84,-2.88 8.87,-2.87 9.86,-2.87 10.81,-2.86 11.72,-2.85 12.59,-2.84 13.43,-2.82 14.22,-2.81 14.98,-2.8 15.7,-2.79 16.39,-2.77 17.05,-2.76 17.68,-2.75 18.29,-2.73 18.86,-2.72 19.4,-2.7 19.92,-2.68 20.41,-2.67 20.87,-2.65 21.3,-2.63 21.72,-2.61 22.11,-2.59 22.47,-2.57 22.82,-2.55 23.14,-2.52 23.44,-2.5 23.73,-2.48 25.5,-1.58 25.36,-1.5 25.22,-1.42 25.06,-1.34 24.9,-1.25 24.73,-1.16 24.54,-1.07 24.35,-0.97 24.15,-0.88 23.94,-0.78 23.72,-0.68 23.48,-0.57 23.24,-0.46 22.98,-0.35 22.7,-0.24 22.42,-0.13 22.12,-0.01 21.8,0.11 21.47,0.23 21.12,0.36 20.75,0.49 20.36,0.62 19.95,0.75 19.52,0.88 19.07,1.02 18.59,1.16 18.08,1.29 17.55,1.43 16.99,1.57 16.41,1.71 15.79,1.84 15.15,1.98 14.47,2.11 13.77,2.25 13.03,2.37 12.26,2.5 11.46,2.62 10.63,2.73 9.76,2.84 8.87,2.95 7.93,3.05 6.97,3.14 5.98,3.22 4.95,3.29 3.89,3.36 2.8,3.41 1.68,3.46 0.54,3.49 -0.64,3.51 -1.84,3.52 -3.07,3.52 -4.33,3.51 -5.61,3.48 -6.9,3.44 -8.22,3.38 -9.56,3.31 -10.91,3.23 -12.28,3.13 -13.66,3.01 -15.05,2.89 -16.45,2.74 -17.85,2.59 -19.25,2.42 -20.66,2.24 -22.05,2.04 -23.21,1.93 -24.37,1.81 -25.52,1.68 -26.66,1.55 -27.79,1.42 -28.91,1.28 -30.01,1.13 -31.1,0.99 -32.17,0.84 -33.22,0.68 -34.25,0.53 -35.26,0.38 -36.23,0.22 -37.18,0.07 -38.09,-0.08" fill="white" stroke="white" stroke-width="0" stroke-linejoin="round" filter="url(#fuzzy)" />
    </g>
    <g transform="translate(-36.35 -23.349999999999998)">
      <polyline id="leftCountour" points="45.59,-3.08 45.26,-3.09 44.9,-3.1 44.51,-3.11 44.08,-3.12 43.62,-3.13 43.12,-3.14 42.58,-3.15 42.01,-3.16 41.4,-3.17 40.76,-3.17 40.08,-3.18 39.36,-3.19 38.61,-3.19 37.82,-3.2 37,-3.2 36.3,-3.21 35.52,-3.22 34.68,-3.22 33.78,-3.23 32.81,-3.23 31.79,-3.23 30.7,-3.24 29.57,-3.24 28.38,-3.24 27.14,-3.25 25.86,-3.25 24.54,-3.25 23.18,-3.25 21.79,-3.25 20.37,-3.25 18.93,-3.25 17.48,-3.25 16,-3.25 14.52,-3.25 13.03,-3.25 11.53,-3.25 10.04,-3.25 8.56,-3.24 7.08,-3.24 5.61,-3.24 4.16,-3.23 2.73,-3.23 1.33,-3.22 -0.06,-3.22 -1.41,-3.21 -2.74,-3.2 -4.03,-3.19 -5.29,-3.19 -6.51,-3.18 -7.7,-3.17 -8.85,-3.16 -9.96,-3.14 -11.03,-3.13 -12.06,-3.12 -13.05,-3.11 -14,-3.09 -14.91,-3.08 -15.78,-3.06 -16.61,-3.04 -17.4,-3.03 -18.16,-3.01 -18.88,-2.99 -19.57,-2.97 -20.23,-2.95 -20.86,-2.93 -21.46,-2.9 -22.04,-2.88 -22.58,-2.86 -23.1,-2.83 -23.59,-2.8 -24.05,-2.78 -24.49,-2.75 -24.9,-2.72 -25.29,-2.69 -25.66,-2.66 -26,-2.62 -26.33,-2.59 -26.63,-2.56 -26.92,-2.52 -27.97,-1.44 -27.76,-1.35 -27.55,-1.25 -27.32,-1.15 -27.09,-1.05 -26.83,-0.95 -26.57,-0.84 -26.29,-0.73 -26,-0.62 -25.69,-0.51 -25.36,-0.39 -25.02,-0.27 -24.66,-0.15 -24.28,-0.03 -23.88,0.09 -23.47,0.22 -23.04,0.35 -22.58,0.48 -22.11,0.61 -21.61,0.74 -21.08,0.88 -20.54,1.01 -19.96,1.15 -19.36,1.29 -18.73,1.42 -18.07,1.56 -17.38,1.7 -16.66,1.84 -15.91,1.97 -15.13,2.11 -14.31,2.24 -13.47,2.37 -12.59,2.49 -11.68,2.62 -10.75,2.73 -9.78,2.85 -8.78,2.95 -7.75,3.05 -6.7,3.15 -5.61,3.24 -4.5,3.32 -3.37,3.39 -2.21,3.45 -1.03,3.5 0.17,3.55 1.39,3.58 2.62,3.6 3.88,3.62 5.14,3.62 6.42,3.6 7.7,3.58 9,3.54 10.29,3.49 11.59,3.43 12.89,3.35 14.18,3.26 15.47,3.16 16.76,3.04 18.03,2.91 19.29,2.77 20.53,2.61 21.76,2.44 22.96,2.26 24.15,2.07 25.3,1.87 26.34,1.75 27.37,1.61 28.38,1.48 29.37,1.34 30.35,1.19 31.3,1.04 32.24,0.89 33.15,0.74 34.04,0.58 34.9,0.42 35.74,0.26 36.55,0.11 37.33,-0.05 38.09,-0.21 38.8,-0.36" fill="white" stroke="white" stroke-width="0" stroke-linejoin="round" filter="url(#fuzzy)" />
    </g>
    <g transform="translate(43.839999999999996 -29.73)">
      <polyline id="rightUpper" points="-49.92,-2.59 -49.88,-2.61 -49.82,-2.63 -49.74,-2.65 -49.64,-2.67 -49.52,-2.69 -49.38,-2.71 -49.2,-2.72 -49,-2.74 -48.77,-2.75 -48.5,-2.77 -48.2,-2.78 -47.87,-2.79 -47.5,-2.8 -47.09,-2.82 -46.65,-2.83 -46.18,-2.84 -45.66,-2.85 -45.11,-2.85 -44.52,-2.86 -43.89,-2.87 -43.22,-2.88 -42.52,-2.89 -41.79,-2.89 -41.01,-2.9 -40.2,-2.9 -39.51,-2.91 -38.75,-2.92 -37.93,-2.92 -37.03,-2.92 -36.08,-2.93 -35.06,-2.93 -33.98,-2.94 -32.85,-2.94 -31.66,-2.94 -30.43,-2.95 -29.15,-2.95 -27.83,-2.95 -26.47,-2.95 -25.08,-2.95 -23.67,-2.96 -22.23,-2.96 -20.76,-2.96 -19.29,-2.96 -17.8,-2.96 -16.3,-2.96 -14.81,-2.96 -13.31,-2.95 -11.82,-2.95 -10.34,-2.95 -8.87,-2.95 -7.41,-2.95 -5.98,-2.94 -4.56,-2.94 -3.17,-2.94 -1.81,-2.93 -0.48,-2.93 0.81,-2.92 2.08,-2.92 3.31,-2.91 4.5,-2.91 5.65,-2.9 6.76,-2.89 7.84,-2.88 8.87,-2.87 9.86,-2.87 10.81,-2.86 11.72,-2.85 12.59,-2.84 13.43,-2.82 14.22,-2.81 14.98,-2.8 15.7,-2.79 16.39,-2.77 17.05,-2.76 17.68,-2.75 18.29,-2.73 18.86,-2.72 19.4,-2.7 19.92,-2.68 20.41,-2.67 20.87,-2.65 21.3,-2.63 21.72,-2.61 22.11,-2.59 22.47,-2.57 22.82,-2.55 23.14,-2.52 23.44,-2.5 23.73,-2.48 23.99,-2.45 24.24,-2.43 24.48,-2.4 24.69,-2.38 24.89,-2.35 25.08,-2.32 25.26,-2.3 25.42,-2.27 25.57,-2.24 25.71,-2.21" fill="none" stroke="black" stroke-width="1.6666666666666665" stroke-linejoin="round" filter="url(#fuzzy)" />
      <polyline id="rightLower" points="-44.78,-1.28 -44.36,-1.2 -43.87,-1.11 -43.33,-1.01 -42.73,-0.9 -42.07,-0.78 -41.36,-0.65 -40.61,-0.52 -39.81,-0.38 -38.97,-0.23 -38.09,-0.08 -37.18,0.07 -36.23,0.22 -35.26,0.38 -34.25,0.53 -33.22,0.68 -32.17,0.84 -31.1,0.99 -30.01,1.13 -28.91,1.28 -27.79,1.42 -26.66,1.55 -25.52,1.68 -24.37,1.81 -23.21,1.93 -22.05,2.04 -20.66,2.24 -19.25,2.42 -17.85,2.59 -16.45,2.74 -15.05,2.89 -13.66,3.01 -12.28,3.13 -10.91,3.23 -9.56,3.31 -8.22,3.38 -6.9,3.44 -5.61,3.48 -4.33,3.51 -3.07,3.52 -1.84,3.52 -0.64,3.51 0.54,3.49 1.68,3.46 2.8,3.41 3.89,3.36 4.95,3.29 5.98,3.22 6.97,3.14 7.93,3.05 8.87,2.95 9.76,2.84 10.63,2.73 11.46,2.62 12.26,2.5 13.03,2.37 13.77,2.25 14.47,2.11 15.15,1.98 15.79,1.84 16.41,1.71 16.99,1.57 17.55,1.43 18.08,1.29 18.59,1.16 19.07,1.02 19.52,0.88 19.95,0.75 20.36,0.62 20.75,0.49 21.12,0.36 21.47,0.23 21.8,0.11 22.12,-0.01 22.42,-0.13 22.7,-0.24 22.98,-0.35 23.24,-0.46 23.48,-0.57 23.72,-0.68 23.94,-0.78 24.15,-0.88 24.35,-0.97 24.54,-1.07 24.73,-1.16 24.9,-1.25 25.06,-1.34 25.22,-1.42 25.36,-1.5 25.5,-1.58 25.63,-1.65 25.76,-1.73 25.88,-1.8 25.99,-1.87 26.1,-1.93 26.2,-2 26.3,-2.06 26.39,-2.12 26.48,-2.17 26.56,-2.23" fill="none" stroke="black" stroke-width="2.2222222222222223" stroke-linejoin="round" filter="url(#fuzzy)" />
      <circle r="4.6739999999999995" cx="-4.408582752174782" cy="2.4287998226349314" stroke="black" fill="none" stroke-width="1.0" filter="url(#fuzzy)" clip-path="url(#rightEyeClipPath)" /><circle r="3.08" cx="-8.293582752174782" cy="-0.011200177365068953" stroke="black" fill="none" stroke-width="1.0" filter="url(#fuzzy)" clip-path="url(#rightEyeClipPath)" /><circle r="3.624" cx="-8.178582752174782" cy="0.3887998226349314" stroke="black" fill="none" stroke-width="1.0" filter="url(#fuzzy)" clip-path="url(#rightEyeClipPath)" /><circle r="3.822" cx="-8.918582752174782" cy="-1.1912001773650691" stroke="black" fill="none" stroke-width="1.0" filter="url(#fuzzy)" clip-path="url(#rightEyeClipPath)" /><circle r="3.7439999999999998" cx="-7.148582752174782" cy="2.7087998226349317" stroke="black" fill="none" stroke-width="1.0" filter="url(#fuzzy)" clip-path="url(#rightEyeClipPath)" /><circle r="3.71" cx="-4.813582752174781" cy="2.738799822634931" stroke="black" fill="none" stroke-width="1.0" filter="url(#fuzzy)" clip-path="url(#rightEyeClipPath)" /><circle r="4.3" cx="-7.403582752174781" cy="1.4387998226349312" stroke="black" fill="none" stroke-width="1.0" filter="url(#fuzzy)" clip-path="url(#rightEyeClipPath)" /><circle r="4.744" cx="-7.0135827521747816" cy="-0.9212001773650691" stroke="black" fill="none" stroke-width="1.0" filter="url(#fuzzy)" clip-path="url(#rightEyeClipPath)" /><circle r="3.574" cx="-8.468582752174783" cy="2.9237998226349307" stroke="black" fill="none" stroke-width="1.0" filter="url(#fuzzy)" clip-path="url(#rightEyeClipPath)" /><circle r="4.712" cx="-5.553582752174782" cy="1.6937998226349311" stroke="black" fill="none" stroke-width="1.0" filter="url(#fuzzy)" clip-path="url(#rightEyeClipPath)" />
      </g>
    <g transform="translate(-36.35 -23.349999999999998)">
      <polyline id="leftUpper" points="47.37,-2.92 47.29,-2.94 47.19,-2.96 47.07,-2.98 46.93,-3 46.78,-3.01 46.59,-3.03 46.39,-3.04 46.15,-3.05 45.89,-3.07 45.59,-3.08 45.26,-3.09 44.9,-3.1 44.51,-3.11 44.08,-3.12 43.62,-3.13 43.12,-3.14 42.58,-3.15 42.01,-3.16 41.4,-3.17 40.76,-3.17 40.08,-3.18 39.36,-3.19 38.61,-3.19 37.82,-3.2 37,-3.2 36.3,-3.21 35.52,-3.22 34.68,-3.22 33.78,-3.23 32.81,-3.23 31.79,-3.23 30.7,-3.24 29.57,-3.24 28.38,-3.24 27.14,-3.25 25.86,-3.25 24.54,-3.25 23.18,-3.25 21.79,-3.25 20.37,-3.25 18.93,-3.25 17.48,-3.25 16,-3.25 14.52,-3.25 13.03,-3.25 11.53,-3.25 10.04,-3.25 8.56,-3.24 7.08,-3.24 5.61,-3.24 4.16,-3.23 2.73,-3.23 1.33,-3.22 -0.06,-3.22 -1.41,-3.21 -2.74,-3.2 -4.03,-3.19 -5.29,-3.19 -6.51,-3.18 -7.7,-3.17 -8.85,-3.16 -9.96,-3.14 -11.03,-3.13 -12.06,-3.12 -13.05,-3.11 -14,-3.09 -14.91,-3.08 -15.78,-3.06 -16.61,-3.04 -17.4,-3.03 -18.16,-3.01 -18.88,-2.99 -19.57,-2.97 -20.23,-2.95 -20.86,-2.93 -21.46,-2.9 -22.04,-2.88 -22.58,-2.86 -23.1,-2.83 -23.59,-2.8 -24.05,-2.78 -24.49,-2.75 -24.9,-2.72 -25.29,-2.69 -25.66,-2.66 -26,-2.62 -26.33,-2.59 -26.63,-2.56 -26.92,-2.52 -27.19,-2.48 -27.44,-2.45 -27.67,-2.41 -27.89,-2.37 -28.1,-2.33 -28.29,-2.29 -28.46,-2.25 -28.63,-2.2 -28.78,-2.16 -28.92,-2.12" fill="none" stroke="black" stroke-width="2.2222222222222223" stroke-linejoin="round" filter="url(#fuzzy)" />
      <polyline id="leftLower" points="43.92,-1.57 43.6,-1.49 43.23,-1.4 42.82,-1.3 42.37,-1.19 41.87,-1.07 41.33,-0.94 40.75,-0.8 40.14,-0.66 39.49,-0.51 38.8,-0.36 38.09,-0.21 37.33,-0.05 36.55,0.11 35.74,0.26 34.9,0.42 34.04,0.58 33.15,0.74 32.24,0.89 31.3,1.04 30.35,1.19 29.37,1.34 28.38,1.48 27.37,1.61 26.34,1.75 25.3,1.87 24.15,2.07 22.96,2.26 21.76,2.44 20.53,2.61 19.29,2.77 18.03,2.91 16.76,3.04 15.47,3.16 14.18,3.26 12.89,3.35 11.59,3.43 10.29,3.49 9,3.54 7.7,3.58 6.42,3.6 5.14,3.62 3.88,3.62 2.62,3.6 1.39,3.58 0.17,3.55 -1.03,3.5 -2.21,3.45 -3.37,3.39 -4.5,3.32 -5.61,3.24 -6.7,3.15 -7.75,3.05 -8.78,2.95 -9.78,2.85 -10.75,2.73 -11.68,2.62 -12.59,2.49 -13.47,2.37 -14.31,2.24 -15.13,2.11 -15.91,1.97 -16.66,1.84 -17.38,1.7 -18.07,1.56 -18.73,1.42 -19.36,1.29 -19.96,1.15 -20.54,1.01 -21.08,0.88 -21.61,0.74 -22.11,0.61 -22.58,0.48 -23.04,0.35 -23.47,0.22 -23.88,0.09 -24.28,-0.03 -24.66,-0.15 -25.02,-0.27 -25.36,-0.39 -25.69,-0.51 -26,-0.62 -26.29,-0.73 -26.57,-0.84 -26.83,-0.95 -27.09,-1.05 -27.32,-1.15 -27.55,-1.25 -27.76,-1.35 -27.97,-1.44 -28.16,-1.53 -28.34,-1.62 -28.51,-1.71 -28.67,-1.79 -28.83,-1.88 -28.97,-1.96 -29.11,-2.03 -29.24,-2.11 -29.36,-2.18 -29.47,-2.25" fill="none" stroke="black" stroke-width="2.2222222222222223" stroke-linejoin="round" filter="url(#fuzzy)" />
      <circle r="4.48" cx="29.765284207210655" cy="-2.3927684168780377" stroke="black" fill="none" stroke-width="1.0" filter="url(#fuzzy)" clip-path="url(#leftEyeClipPath)" /><circle r="3.586" cx="27.070284207210655" cy="1.6472315831219628" stroke="black" fill="none" stroke-width="1.0" filter="url(#fuzzy)" clip-path="url(#leftEyeClipPath)" /><circle r="3.738" cx="25.095284207210653" cy="-0.8727684168780374" stroke="black" fill="none" stroke-width="1.0" filter="url(#fuzzy)" clip-path="url(#leftEyeClipPath)" /><circle r="4.914" cx="27.395284207210654" cy="-2.6677684168780376" stroke="black" fill="none" stroke-width="1.0" filter="url(#fuzzy)" clip-path="url(#leftEyeClipPath)" /><circle r="3.492" cx="26.610284207210654" cy="-0.2677684168780381" stroke="black" fill="none" stroke-width="1.0" filter="url(#fuzzy)" clip-path="url(#leftEyeClipPath)" /><circle r="4.828" cx="28.905284207210652" cy="0.9872315831219627" stroke="black" fill="none" stroke-width="1.0" filter="url(#fuzzy)" clip-path="url(#leftEyeClipPath)" /><circle r="4.532" cx="25.485284207210654" cy="-2.2977684168780375" stroke="black" fill="none" stroke-width="1.0" filter="url(#fuzzy)" clip-path="url(#leftEyeClipPath)" /><circle r="4.102" cx="26.215284207210654" cy="0.4722315831219621" stroke="black" fill="none" stroke-width="1.0" filter="url(#fuzzy)" clip-path="url(#leftEyeClipPath)" /><circle r="4.9399999999999995" cx="25.310284207210653" cy="0.8322315831219624" stroke="black" fill="none" stroke-width="1.0" filter="url(#fuzzy)" clip-path="url(#leftEyeClipPath)" /><circle r="3.4" cx="27.645284207210654" cy="-1.7527684168780377" stroke="black" fill="none" stroke-width="1.0" filter="url(#fuzzy)" clip-path="url(#leftEyeClipPath)" />
    </g>
    <g id="hairs">
      <polyline points="60.43,-61.11 61.32,-60.04 61.87,-59.35 62.19,-58.81 62.36,-58.33 62.42,-57.9 62.33,-57.58 62.03,-57.46 61.46,-57.63 60.56,-58.15 59.28,-59.1 57.57,-60.51 55.43,-62.39 52.86,-64.74 49.85,-67.56 46.4,-70.84 42.49,-74.59 38.06,-78.85 32.96,-83.72" fill="none" stroke="rgb(167, 133, 106)" stroke-width="2" stroke-linejoin="round" filter="url(#fuzzy)" /><polyline points="-7.62,-94.35 -5.72,-94.63 -4.26,-94.73 -3.25,-94.69 -2.62,-94.56 -2.32,-94.32 -2.32,-93.97 -2.62,-93.49 -3.25,-92.88 -4.28,-92.14 -5.77,-91.26 -7.76,-90.24 -10.23,-89.08 -13.2,-87.78 -16.69,-86.3 -20.72,-84.63 -25.33,-82.76 -30.55,-80.71 -36.45,-78.43 -43.31,-75.66" fill="none" stroke="rgb(167, 133, 106)" stroke-width="2" stroke-linejoin="round" filter="url(#fuzzy)" /><polyline points="56.69,-66.19 57.85,-64.86 59.15,-63.12 60.35,-61.42 61.4,-59.93 62.27,-58.68 62.98,-57.62 63.58,-56.7 64.08,-55.91 64.47,-55.27 64.72,-54.84 64.78,-54.68 64.63,-54.86 64.19,-55.47 63.38,-56.65 62.09,-58.56 60.25,-61.37" fill="none" stroke="rgb(167, 133, 106)" stroke-width="2" stroke-linejoin="round" filter="url(#fuzzy)" /><polyline points="57.67,-65.26 58.75,-63.37 58.77,-61.95 57.83,-61.01 55.92,-60.43 53.1,-60.07 49.4,-59.82 44.83,-59.63 39.37,-59.48 32.96,-59.43 25.56,-59.54 17.12,-59.84 7.61,-60.37 -3.03,-61.11 -14.83,-62.04 -27.67,-63.24 -41.3,-64.93" fill="none" stroke="rgb(167, 133, 106)" stroke-width="2" stroke-linejoin="round" filter="url(#fuzzy)" /><polyline points="-22.06,-91.29 -20.61,-91.82 -19.54,-92.12 -18.43,-92.4 -17.3,-92.68 -16.21,-92.95 -15.25,-93.16 -14.45,-93.29 -13.87,-93.33 -13.52,-93.28 -13.4,-93.15 -13.5,-92.94 -13.81,-92.65 -14.34,-92.26 -15.11,-91.76 -16.17,-91.14 -17.57,-90.38 -19.34,-89.48 -21.51,-88.46 -24.08,-87.32 -27.05,-86.05 -30.47,-84.59 -34.43,-82.9 -38.94,-81.1" fill="none" stroke="rgb(167, 133, 106)" stroke-width="2" stroke-linejoin="round" filter="url(#fuzzy)" /><polyline points="61.66,-59.57 61.98,-59.16 61.92,-58.75 61.48,-58.42 60.7,-58.18 59.49,-58.08 57.77,-58.24 55.47,-58.72 52.54,-59.58 48.95,-60.87 44.67,-62.62 39.69,-64.86 34,-67.56 27.58,-70.73 20.39,-74.34 12.38,-78.35 3.49,-82.73 -6.28,-87.51" fill="none" stroke="rgb(167, 133, 106)" stroke-width="2" stroke-linejoin="round" filter="url(#fuzzy)" /><polyline points="-38.01,-82.99 -37.55,-83.24 -35.61,-83.87 -33.11,-84.48 -30.31,-84.91 -27.27,-85.15 -23.95,-85.21 -20.33,-85.15 -16.39,-85 -12.16,-84.78 -7.69,-84.5 -2.99,-84.15 1.91,-83.75 7.01,-83.31 12.26,-82.82 17.62,-82.27 23.03,-81.66 28.41,-81.01 33.68,-80.38 38.71,-79.81" fill="none" stroke="rgb(167, 133, 106)" stroke-width="2" stroke-linejoin="round" filter="url(#fuzzy)" /><polyline points="10.35,-94.08 11.99,-93.7 12.88,-93.35 13.31,-92.94 13.41,-92.46 13.19,-91.9 12.63,-91.25 11.67,-90.49 10.26,-89.61 8.37,-88.59 5.98,-87.43 3.07,-86.12 -0.34,-84.65 -4.28,-83.02 -8.75,-81.22 -13.8,-79.25 -19.45,-77.12 -25.74,-74.88 -32.65,-72.59 -40.21,-70.23 -48.6,-67.6" fill="none" stroke="rgb(167, 133, 106)" stroke-width="2" stroke-linejoin="round" filter="url(#fuzzy)" /><polyline points="-39.03,-82.7 -36.52,-83.98 -34.3,-84.83 -32.02,-85.43 -29.57,-85.82 -26.9,-86.04 -23.93,-86.16 -20.66,-86.2 -17.1,-86.17 -13.29,-86.08 -9.27,-85.93 -5.05,-85.73 -0.64,-85.51 3.92,-85.24 8.54,-84.95 13.17,-84.62 17.73,-84.27 22.2,-83.93 26.6,-83.61 30.93,-83.3 35.25,-82.91" fill="none" stroke="rgb(167, 133, 106)" stroke-width="2" stroke-linejoin="round" filter="url(#fuzzy)" /><polyline points="18.4,-92.53 19.19,-92.04 19.41,-91.6 19.01,-91.02 18.01,-90.25 16.36,-89.29 14.03,-88.14 10.99,-86.78 7.2,-85.23 2.6,-83.46 -2.88,-81.49 -9.36,-79.3 -16.87,-76.9 -25.36,-74.35 -34.77,-71.74 -45.22,-69.05" fill="none" stroke="rgb(167, 133, 106)" stroke-width="2" stroke-linejoin="round" filter="url(#fuzzy)" /><polyline points="-14.34,-93.56 -12.68,-93.76 -10.93,-93.71 -8.97,-93.49 -6.7,-93.15 -4.11,-92.74 -1.23,-92.26 1.92,-91.73 5.3,-91.14 8.84,-90.52 12.46,-89.86 16.08,-89.17 19.63,-88.46 23.06,-87.77 26.31,-87.15 29.3,-86.65 31.96,-86.25" fill="none" stroke="rgb(167, 133, 106)" stroke-width="2" stroke-linejoin="round" filter="url(#fuzzy)" /><polyline points="46.19,-77.51 46.96,-76.62 47.18,-76.08 47.18,-75.65 46.93,-75.3 46.33,-75.05 45.33,-74.94 43.9,-74.96 42.03,-75.12 39.68,-75.44 36.8,-75.96 33.35,-76.74 29.26,-77.8 24.51,-79.11 19.08,-80.64 12.95,-82.33 6.06,-84.24 -1.67,-86.44 -10.34,-89.03" fill="none" stroke="rgb(167, 133, 106)" stroke-width="2" stroke-linejoin="round" filter="url(#fuzzy)" /><polyline points="-10.13,-93.92 -8.7,-94.25 -7.51,-94.42 -6.18,-94.52 -4.65,-94.6 -2.99,-94.65 -1.33,-94.68 0.25,-94.7 1.75,-94.69 3.15,-94.66 4.45,-94.61 5.62,-94.55 6.62,-94.48 7.42,-94.42 7.98,-94.36 8.29,-94.33 8.35,-94.32 8.12,-94.34 7.56,-94.4 6.61,-94.48 5.24,-94.59 3.57,-94.71 1.82,-94.84" fill="none" stroke="rgb(167, 133, 106)" stroke-width="2" stroke-linejoin="round" filter="url(#fuzzy)" /><polyline points="49.48,-74.08 50.19,-73.39 50.94,-72.65 51.59,-71.94 52.16,-71.22 52.61,-70.54 52.88,-69.98 52.92,-69.58 52.73,-69.35 52.32,-69.25 51.7,-69.27 50.86,-69.41 49.75,-69.71 48.31,-70.24 46.51,-71.03 44.33,-72.11 41.77,-73.45 38.84,-75.05 35.53,-76.89 31.83,-79 27.71,-81.4 23.17,-84.12 18.13,-87.19 12.42,-90.68" fill="none" stroke="rgb(167, 133, 106)" stroke-width="2" stroke-linejoin="round" filter="url(#fuzzy)" /><polyline points="35.45,-85.16 36.6,-84.33 37.21,-83.53 37.03,-83 36.11,-82.67 34.52,-82.46 32.27,-82.33 29.28,-82.31 25.47,-82.42 20.72,-82.69 14.95,-83.12 8.17,-83.75 0.39,-84.6 -8.36,-85.7 -18.24,-86.99" fill="none" stroke="rgb(167, 133, 106)" stroke-width="2" stroke-linejoin="round" filter="url(#fuzzy)" /><polyline points="-0.31,-95.12 0.74,-94.89 2.16,-94.48 4.36,-93.8 7.06,-92.85 10.01,-91.66 13.1,-90.3 16.35,-88.81 19.73,-87.24 23.24,-85.6 26.87,-83.88 30.62,-82.07 34.43,-80.18 38.24,-78.27 41.92,-76.45 45.38,-74.82 48.6,-73.4" fill="none" stroke="rgb(167, 133, 106)" stroke-width="2" stroke-linejoin="round" filter="url(#fuzzy)" /><polyline points="16.72,-92.55 16.85,-92.6 17.69,-92.44 18.45,-92.22 18.9,-92.02 18.99,-91.83 18.73,-91.64 18.09,-91.46 17.09,-91.3 15.68,-91.17 13.83,-91.09 11.48,-91.06 8.51,-91.11 4.8,-91.23 0.28,-91.42 -5.07,-91.66 -11.24,-91.95" fill="none" stroke="rgb(167, 133, 106)" stroke-width="2" stroke-linejoin="round" filter="url(#fuzzy)" /><polyline points="39.79,-82.22 40.29,-81.84 41.12,-81.18 41.99,-80.47 42.77,-79.83 43.38,-79.31 43.71,-78.96 43.69,-78.8 43.27,-78.88 42.45,-79.2 41.22,-79.77 39.59,-80.6 37.53,-81.7 35.01,-83.11 31.99,-84.84 28.46,-86.88 24.38,-89.2" fill="none" stroke="rgb(167, 133, 106)" stroke-width="2" stroke-linejoin="round" filter="url(#fuzzy)" /><polyline points="60.43,-61.11 61.33,-60.03 61.88,-59.31 62.23,-58.71 62.47,-58.12 62.61,-57.54 62.64,-57 62.5,-56.6 62.14,-56.39 61.5,-56.45 60.56,-56.81 59.28,-57.52 57.64,-58.58 55.65,-59.99 53.33,-61.74 50.68,-63.8 47.73,-66.16 44.44,-68.83 40.8,-71.82 36.75,-75.17 32.22,-78.93 27.17,-83.13 21.75,-87.72" fill="none" stroke="rgb(167, 133, 106)" stroke-width="2" stroke-linejoin="round" filter="url(#fuzzy)" /><polyline points="35.45,-85.16 36.85,-84.27 38.2,-83.3 39.27,-82.53 40.15,-81.89 40.89,-81.32 41.52,-80.82 41.98,-80.43 42.21,-80.19 42.13,-80.15 41.66,-80.33 40.76,-80.78 39.41,-81.52 37.55,-82.58 35.14,-83.98 32.11,-85.75 28.47,-87.88" fill="none" stroke="rgb(167, 133, 106)" stroke-width="2" stroke-linejoin="round" filter="url(#fuzzy)" /><polyline points="34.52,-85.62 34.69,-85.53 35.27,-85.03 35.87,-84.36 36.23,-83.67 36.21,-83.05 35.8,-82.51 35.04,-82 33.93,-81.52 32.47,-81.08 30.6,-80.68 28.29,-80.34 25.49,-80.07 22.19,-79.87 18.37,-79.74 14.01,-79.65 9.1,-79.58 3.61,-79.54 -2.46,-79.54 -9.09,-79.62 -16.24,-79.81 -23.94,-80.12 -32.28,-80.53" fill="none" stroke="rgb(167, 133, 106)" stroke-width="2" stroke-linejoin="round" filter="url(#fuzzy)" /><polyline points="-33.4,-86.29 -32.2,-86.85 -31.09,-87.32 -29.69,-87.88 -28,-88.52 -26.14,-89.17 -24.24,-89.81 -22.35,-90.43 -20.51,-91.05 -18.72,-91.65 -17.04,-92.21 -15.52,-92.7 -14.22,-93.1 -13.2,-93.4 -12.48,-93.63 -12.07,-93.82 -12.04,-93.95" fill="none" stroke="rgb(167, 133, 106)" stroke-width="2" stroke-linejoin="round" filter="url(#fuzzy)" /><polyline points="-8.39,-94.34 -7.61,-94.52 -6.69,-94.6 -5.51,-94.69 -4.27,-94.77 -3.13,-94.82 -2.19,-94.83 -1.44,-94.8 -0.88,-94.72 -0.51,-94.58 -0.36,-94.39 -0.48,-94.13 -0.92,-93.82 -1.68,-93.45 -2.78,-93.03 -4.21,-92.56 -5.98,-92.03 -8.09,-91.45 -10.59,-90.81 -13.49,-90.1 -16.8,-89.33 -20.5,-88.51 -24.62,-87.61 -29.37,-86.5" fill="none" stroke="rgb(167, 133, 106)" stroke-width="2" stroke-linejoin="round" filter="url(#fuzzy)" /><polyline points="53.59,-70.12 54.86,-68.45 55.31,-67.69 55.21,-67.42 54.74,-67.36 53.97,-67.42 52.85,-67.63 51.24,-68.14 49.03,-69.07 46.15,-70.52 42.55,-72.5 38.24,-74.95 33.24,-77.84 27.53,-81.18 21.02,-85.05 13.77,-89.55" fill="none" stroke="rgb(167, 133, 106)" stroke-width="2" stroke-linejoin="round" filter="url(#fuzzy)" /><polyline points="24.44,-90.16 25.63,-89.8 27.23,-89.09 28.96,-88.23 30.66,-87.32 32.28,-86.43 33.84,-85.56 35.32,-84.71 36.72,-83.9 38.01,-83.13 39.13,-82.43 40.03,-81.86 40.64,-81.46 40.95,-81.27 40.94,-81.29 40.65,-81.51 40.05,-81.94 38.91,-82.78" fill="none" stroke="rgb(167, 133, 106)" stroke-width="2" stroke-linejoin="round" filter="url(#fuzzy)" /><polyline points="39.02,-82.55 39.54,-82.26 39.91,-81.86 40.18,-81.34 40.29,-80.79 40.14,-80.27 39.63,-79.84 38.7,-79.51 37.28,-79.29 35.36,-79.2 32.93,-79.22 29.98,-79.35 26.51,-79.58 22.49,-79.9 17.91,-80.32 12.76,-80.84 7.05,-81.49 0.73,-82.29 -6.31,-83.25 -14.15,-84.37 -22.77,-85.63" fill="none" stroke="rgb(167, 133, 106)" stroke-width="2" stroke-linejoin="round" filter="url(#fuzzy)" /><polyline points="56.64,-66.21 56.88,-65.81 57.25,-64.79 57.39,-63.52 57.09,-62.32 56.26,-61.31 54.88,-60.5 52.97,-59.82 50.56,-59.19 47.68,-58.56 44.33,-57.94 40.49,-57.33 36.12,-56.77 31.2,-56.31 25.71,-55.97 19.62,-55.76 12.91,-55.67 5.54,-55.65 -2.49,-55.66 -11.17,-55.69 -20.44,-55.79 -30.21,-56.07 -40.44,-56.58 -51.19,-57.28" fill="none" stroke="rgb(167, 133, 106)" stroke-width="2" stroke-linejoin="round" filter="url(#fuzzy)" /><polyline points="7.46,-94.48 8.98,-94.21 10.11,-94.06 11.27,-93.86 12.53,-93.6 13.79,-93.32 15.01,-93.04 16.17,-92.78 17.23,-92.54 18.18,-92.32 18.97,-92.14 19.56,-91.98 19.93,-91.86 20.05,-91.78 19.9,-91.75 19.48,-91.78 18.77,-91.88 17.76,-92.06 16.4,-92.32 14.67,-92.67 12.45,-93.14 9.56,-93.78" fill="none" stroke="rgb(167, 133, 106)" stroke-width="2" stroke-linejoin="round" filter="url(#fuzzy)" /><polyline points="61.66,-59.57 62.08,-59.1 62.33,-58.54 62.42,-57.94 62.38,-57.32 62.16,-56.75 61.7,-56.31 60.94,-56.08 59.84,-56.11 58.35,-56.44 56.45,-57.1 54.12,-58.1 51.35,-59.42 48.14,-61.04 44.52,-62.94 40.47,-65.1 35.97,-67.53 30.97,-70.25 25.45,-73.28 19.38,-76.67 12.81,-80.43 5.8,-84.58 -1.71,-89.09" fill="none" stroke="rgb(167, 133, 106)" stroke-width="2" stroke-linejoin="round" filter="url(#fuzzy)" /><polyline points="69.66,-45.28 70.22,-43.89 70.7,-42.7 71.19,-41.54 71.63,-40.46 71.97,-39.51 72.19,-38.71 72.26,-38.1 72.18,-37.73 71.94,-37.67 71.5,-37.97 70.87,-38.66 70.05,-39.73 69.01,-41.2 67.75,-43.06 66.26,-45.36 64.51,-48.11 62.51,-51.32 60.28,-54.99 57.78,-59.14 55.01,-63.84 51.94,-69.17" fill="none" stroke="rgb(167, 133, 106)" stroke-width="2" stroke-linejoin="round" filter="url(#fuzzy)" /><polyline points="14.12,-93.36 14.59,-93.2 15.56,-92.93 16.54,-92.7 17.45,-92.48 18.24,-92.26 18.84,-92.04 19.24,-91.81 19.42,-91.58 19.38,-91.34 19.13,-91.1 18.67,-90.86 17.98,-90.63 17.03,-90.43 15.76,-90.27 14.12,-90.15 12.07,-90.1 9.55,-90.09 6.55,-90.12 3.06,-90.18 -0.91,-90.27 -5.35,-90.42 -10.27,-90.68 -15.71,-91.05" fill="none" stroke="rgb(167, 133, 106)" stroke-width="2" stroke-linejoin="round" filter="url(#fuzzy)" /><polyline points="6.32,-94.69 6.66,-94.56 7.75,-94.38 9,-94.2 10.24,-94.02 11.44,-93.82 12.57,-93.6 13.61,-93.38 14.5,-93.19 15.2,-93.03 15.7,-92.91 15.94,-92.85 15.89,-92.85 15.5,-92.91 14.75,-93.02 13.59,-93.19 12.02,-93.44 10.07,-93.79 7.83,-94.27" fill="none" stroke="rgb(167, 133, 106)" stroke-width="2" stroke-linejoin="round" filter="url(#fuzzy)" /><polyline points="65.05,-54.74 65.57,-53.37 65.77,-52.35 65.6,-51.6 64.97,-51.23 63.81,-51.29 62.1,-51.76 59.86,-52.61 57.07,-53.83 53.74,-55.38 49.85,-57.25 45.39,-59.46 40.35,-62.04 34.7,-65.02 28.41,-68.47 21.44,-72.41 13.79,-76.87 5.39,-81.87 -3.9,-87.42" fill="none" stroke="rgb(167, 133, 106)" stroke-width="2" stroke-linejoin="round" filter="url(#fuzzy)" /><polyline points="-0.05,-95.15 1.96,-95.01 3.24,-94.7 3.63,-94.25 3.29,-93.66 2.39,-92.92 0.93,-92.01 -1.12,-90.91 -3.82,-89.59 -7.2,-88.02 -11.33,-86.18 -16.27,-84.07 -22.07,-81.7 -28.68,-79.12 -36.14,-76.29 -44.61,-73.06" fill="none" stroke="rgb(167, 133, 106)" stroke-width="2" stroke-linejoin="round" filter="url(#fuzzy)" /><polyline points="-15.73,-93.16 -14.2,-93.48 -12.46,-93.66 -10.67,-93.7 -8.81,-93.65 -6.82,-93.56 -4.7,-93.45 -2.44,-93.33 -0.06,-93.2 2.39,-93.07 4.87,-92.94 7.27,-92.81 9.53,-92.69 11.62,-92.57 13.53,-92.46 15.27,-92.36 16.81,-92.28 18.09,-92.19 19.03,-92.06" fill="none" stroke="rgb(167, 133, 106)" stroke-width="2" stroke-linejoin="round" filter="url(#fuzzy)" /><polyline points="34.3,-85.82 35.49,-85.12 36.84,-84.23 38.11,-83.36 39.13,-82.63 39.9,-82.07 40.44,-81.64 40.75,-81.36 40.8,-81.26 40.52,-81.36 39.81,-81.73 38.58,-82.41 36.77,-83.46 34.33,-84.92 31.13,-86.85" fill="none" stroke="rgb(167, 133, 106)" stroke-width="2" stroke-linejoin="round" filter="url(#fuzzy)" /><polyline points="9.59,-93.97 10.13,-94.08 11.14,-93.91 12.4,-93.64 13.7,-93.34 14.97,-93.04 16.17,-92.76 17.32,-92.49 18.39,-92.25 19.33,-92.03 20.11,-91.84 20.69,-91.67 21.05,-91.53 21.16,-91.43 21.03,-91.39 20.64,-91.4 19.97,-91.5 18.98,-91.68 17.61,-91.98 15.83,-92.39 13.65,-92.92 11.04,-93.55" fill="none" stroke="rgb(167, 133, 106)" stroke-width="2" stroke-linejoin="round" filter="url(#fuzzy)" /><polyline points="35.45,-85.16 36.71,-84.25 37.61,-83.28 37.96,-82.45 37.84,-81.68 37.38,-80.86 36.57,-79.99 35.41,-79.05 33.83,-78.08 31.79,-77.08 29.26,-76.08 26.21,-75.05 22.65,-74.01 18.59,-72.93 14.03,-71.81 8.96,-70.64 3.35,-69.39 -2.84,-68.03 -9.64,-66.55 -17.08,-64.96 -25.13,-63.38 -33.73,-61.94 -42.83,-60.67 -52.43,-59.44" fill="none" stroke="rgb(167, 133, 106)" stroke-width="2" stroke-linejoin="round" filter="url(#fuzzy)" /><polyline points="15.93,-92.79 17.94,-92.38 19.63,-91.82 21.25,-91.17 22.91,-90.41 24.67,-89.52 26.53,-88.53 28.46,-87.47 30.44,-86.38 32.46,-85.28 34.47,-84.17 36.39,-83.1 38.17,-82.1 39.77,-81.19 41.17,-80.41 42.35,-79.77 43.27,-79.29 43.85,-79.02 43.94,-78.98" fill="none" stroke="rgb(167, 133, 106)" stroke-width="2" stroke-linejoin="round" filter="url(#fuzzy)" /><polyline points="68.66,-48.17 68.59,-47.02 67.67,-46.45 65.76,-46.44 62.88,-46.81 59.01,-47.48 54.1,-48.44 48.1,-49.78 40.95,-51.55 32.61,-53.81 23.02,-56.55 12.13,-59.77 -0.08,-63.5 -13.62,-67.86 -28.41,-73.06" fill="none" stroke="rgb(167, 133, 106)" stroke-width="2" stroke-linejoin="round" filter="url(#fuzzy)" /><polyline points="2.2,-95.1 4.44,-94.85 6.03,-94.5 7.55,-94.07 9.23,-93.56 11.09,-92.98 13.09,-92.34 15.18,-91.63 17.35,-90.86 19.56,-90.06 21.77,-89.24 23.96,-88.43 26.09,-87.64 28.11,-86.89 29.99,-86.22 31.69,-85.62 33.19,-85.09 34.51,-84.64 35.65,-84.24 36.56,-83.92 37.08,-83.86" fill="none" stroke="rgb(167, 133, 106)" stroke-width="2" stroke-linejoin="round" filter="url(#fuzzy)" /><polyline points="59.46,-63.03 60.39,-61.44 61.16,-60.33 61.73,-59.52 62.13,-58.87 62.42,-58.27 62.63,-57.7 62.72,-57.19 62.67,-56.82 62.43,-56.64 61.95,-56.71 61.21,-57.1 60.16,-57.82 58.8,-58.91 57.11,-60.36 55.1,-62.16 52.77,-64.27 50.14,-66.7 47.19,-69.46 43.87,-72.59 40.11,-76.15 35.81,-80.23 30.89,-84.87" fill="none" stroke="rgb(167, 133, 106)" stroke-width="2" stroke-linejoin="round" filter="url(#fuzzy)" /><polyline points="-39.03,-82.7 -36.55,-84 -34.45,-84.93 -32.36,-85.65 -30.18,-86.21 -27.86,-86.65 -25.31,-87.01 -22.53,-87.34 -19.54,-87.63 -16.38,-87.89 -13.09,-88.14 -9.68,-88.38 -6.19,-88.63 -2.64,-88.86 0.93,-89.07 4.46,-89.23 7.89,-89.36 11.21,-89.48 14.34,-89.63 17.24,-89.82 19.83,-90.03 22.17,-90.21" fill="none" stroke="rgb(167, 133, 106)" stroke-width="2" stroke-linejoin="round" filter="url(#fuzzy)" /><polyline points="65.05,-54.74 65.74,-53.24 66.44,-51.88 67.13,-50.56 67.72,-49.41 68.16,-48.47 68.46,-47.73 68.63,-47.19 68.68,-46.82 68.63,-46.61 68.48,-46.54 68.23,-46.63 67.85,-46.9 67.31,-47.4 66.57,-48.17 65.61,-49.26 64.43,-50.7 63,-52.51 61.34,-54.73 59.43,-57.4 57.27,-60.5 54.86,-64.03 52.26,-67.98 49.48,-72.4" fill="none" stroke="rgb(167, 133, 106)" stroke-width="2" stroke-linejoin="round" filter="url(#fuzzy)" /><polyline points="47.04,-75.97 48.06,-75.27 48.34,-74.63 48.02,-74.12 47.13,-73.78 45.65,-73.58 43.56,-73.5 40.81,-73.55 37.32,-73.77 33.03,-74.23 27.9,-74.95 21.95,-75.92 15.18,-77.09 7.55,-78.43 -1.02,-79.97 -10.55,-81.81 -20.9,-84.13" fill="none" stroke="rgb(167, 133, 106)" stroke-width="2" stroke-linejoin="round" filter="url(#fuzzy)" /><polyline points="-62.6,-58.12 -12.76,-80.23 7.58,-86.34 15.75,-84.57 19.37,-79.88 21.11,-75.97 21.88,-74.12 21.63,-73.84 19.95,-74.24 16.75,-75.05 12.63,-76.52 8.74,-78.78 6.53,-81.35 7.54,-83.22 12.91,-83.26 22.45,-80.85 33.84,-76.52 43.37,-72.12 48.93,-69.14 54.49,-63.35 72.22,-39.26" fill="none" stroke="rgb(167, 133, 106)" stroke-width="2" stroke-linejoin="round" filter="url(#fuzzy)" /><polyline points="56.69,-66.19 21.97,-77.12 3.8,-78.05 3.9,-75.17 13.94,-70.21 25.53,-65.87 31.9,-64.31 29.42,-65.57 17.92,-67.98 0.73,-69.5 -15.62,-69.15 -22.94,-67.8 -15.96,-68.18 1.04,-73.63 12.3,-85.01 13.73,-93.42" fill="none" stroke="rgb(167, 133, 106)" stroke-width="2" stroke-linejoin="round" filter="url(#fuzzy)" /><polyline points="66.42,-52.07 58.04,-52.65 33.83,-67.65 12.96,-79.65 1.76,-86.61 -1.05,-90.11 0.63,-91.8 3.24,-92.61 4.82,-92.95 4.98,-92.86 4.3,-92.12 3.53,-90.46 2.96,-87.71 2.2,-84.07 0.48,-80.12 -2.6,-76.75 -6.28,-74.75 -8.6,-74.4 -7.67,-75.34 -3.08,-76.7 4.13,-77.39 13.81,-76.47 27.64,-74.1 41.25,-73.85 31.57,-87.11" fill="none" stroke="rgb(167, 133, 106)" stroke-width="2" stroke-linejoin="round" filter="url(#fuzzy)" /><polyline points="-44.56,-78.77 6.52,-78.43 33.1,-68.91 34.63,-62.71 20.17,-61.9 2.21,-65.26 -10.78,-70.87 -16.3,-76.96 -15.61,-82.15 -10.96,-85.45 -4.33,-86.2 2.43,-84.25 7.34,-80.1 8.87,-74.95 7.82,-70.11 8.46,-66.63 15.64,-65.71 29.31,-67.45 65.05,-54.74" fill="none" stroke="rgb(167, 133, 106)" stroke-width="2" stroke-linejoin="round" filter="url(#fuzzy)" /><polyline points="-33.4,-86.29 17.51,-65.01 23.29,-62.38 20.84,-62.38 21.48,-63.2 27.82,-62.93 37.41,-60.76 46.08,-57.72 50.35,-55.52 48.63,-55.05 41.61,-55.98 32.14,-57.3 24.12,-58.16 20.49,-58.58 21.13,-59.64 22.85,-62.69 21.97,-67.78 17.14,-72.61 8.5,-74.53 -1.54,-76.64 22.43,-91.28" fill="none" stroke="rgb(167, 133, 106)" stroke-width="2" stroke-linejoin="round" filter="url(#fuzzy)" /><polyline points="47.72,-76.17 7.73,-85.64 -8.07,-87.97 -11.36,-88.04 -13.78,-86.12 -18.04,-82.87 -21.25,-79.54 -20.8,-76.93 -16.84,-75.1 -10.97,-73.73 -4.08,-72.46 4.19,-71.16 13.91,-69.94 23.34,-69.52 29,-71.28 27.5,-76.66 18.44,-85.03 6.02,-91.98 -10.13,-93.92" fill="none" stroke="rgb(167, 133, 106)" stroke-width="2" stroke-linejoin="round" filter="url(#fuzzy)" /><polyline points="24.44,-90.16 13.75,-79.73 21.17,-70.63 23.7,-66.11 27.25,-63.3 33.85,-61.59 40.22,-61.63 42.76,-63.95 40.33,-68.22 34.27,-73.29 27.09,-77.69 21.17,-80.34 18.02,-81.02 17.92,-80.38 19.75,-79.5 21.19,-79.2 19.5,-79.31 12.72,-78.59 0.85,-75.51 -11.25,-69.87 -4.61,-62.91 65.82,-52.91" fill="none" stroke="rgb(167, 133, 106)" stroke-width="2" stroke-linejoin="round" filter="url(#fuzzy)" /><polyline points="19.37,-91.92 9.71,-91.02 6.7,-84.94 10.14,-78.59 16.06,-74.73 19.76,-73.5 19.8,-73.59 16.99,-73.81 12.82,-73.95 8.92,-74.42 6.82,-75.54 7.48,-77.13 10.77,-78.68 15.69,-79.68 20.95,-79.87 25.7,-79.26 29.66,-78.01 32.79,-76.49 35.05,-75.16 36.39,-74.49 36.7,-74.76 34.96,-76.14 28.72,-79.35 18.16,-85.5 24.44,-90.16" fill="none" stroke="rgb(167, 133, 106)" stroke-width="2" stroke-linejoin="round" filter="url(#fuzzy)" /><polyline points="24.44,-90.16 43.43,-72.46 35.98,-67.84 17,-68.91 2.1,-70.24 -4.72,-71.27 -6.68,-73.14 -7,-76.29 -6.57,-79.95 -5.63,-83.01 -5.27,-84.91 -6.87,-85.79 -10.92,-85.77 -17.54,-84.56 -27.66,-81.72 -41.24,-76.43 -59.29,-62.61" fill="none" stroke="rgb(167, 133, 106)" stroke-width="2" stroke-linejoin="round" filter="url(#fuzzy)" /><polyline points="74.69,-31.27 37.92,-69.71 28.74,-81.41 24.65,-85.02 19.92,-86.23 14.8,-86.01 10.33,-84.88 6.59,-83.7 2.89,-83.11 -1.4,-83.22 -6.22,-83.71 -10.82,-84.32 -14.26,-84.97 -15.93,-85.62 -15.57,-86.1 -13.09,-85.98 -8.3,-84.73 -1.24,-81.87 7.12,-77.14 14.61,-70.81 19.18,-64.19 21.23,-60.32 23.94,-63.6 27.85,-76.3 35.45,-85.16" fill="none" stroke="rgb(167, 133, 106)" stroke-width="2" stroke-linejoin="round" filter="url(#fuzzy)" /><polyline points="-33.4,-86.29 -8.52,-83.21 20.7,-76.82 36.53,-73.62 39.56,-74.32 34.92,-77.36 27.6,-80.89 20.54,-83.7 14.48,-85.39 9.26,-86.1 5.08,-86.25 2.78,-86.16 2.97,-85.96 5.14,-85.62 7.77,-85.07 9.69,-84.37 11.55,-83.45 15.52,-81.99 22,-79.81 24.97,-78.74 11.78,-83.63 -22.06,-91.29" fill="none" stroke="rgb(167, 133, 106)" stroke-width="2" stroke-linejoin="round" filter="url(#fuzzy)" /><polyline points="-44.56,-78.77 -27.97,-81.4 -13.69,-76.62 -3.08,-74.29 2.34,-73.89 4.77,-73.92 6.31,-74 7.99,-74.13 9.64,-74.3 10.26,-74.55 9.05,-74.95 6.34,-75.48 3.59,-75.9 2.4,-75.94 3.62,-75.52 7.04,-74.78 11.95,-73.91 17.95,-72.73 25.41,-70.5 34.97,-66.24 46.44,-59.53 57.74,-51.62 64.95,-46.63 63.47,-51.86 49.48,-74.08" fill="none" stroke="rgb(167, 133, 106)" stroke-width="2" stroke-linejoin="round" filter="url(#fuzzy)" /><polyline points="21.1,-91.68 29.87,-84.8 32.39,-77.85 27.98,-74.09 17.14,-74.99 5.44,-78.21 -2.35,-80.75 -4.52,-80.86 -2.04,-78.62 2.43,-75.5 5.8,-73.27 6.11,-72.92 3.56,-74.3 0.25,-76.53 -1.35,-78.77 0.05,-80.64 4.23,-82.12 10.41,-83.24 18.04,-83.99 26.1,-84.36 32.49,-84.09 37.55,-81.56 53.59,-70.12" fill="none" stroke="rgb(167, 133, 106)" stroke-width="2" stroke-linejoin="round" filter="url(#fuzzy)" /><polyline points="-14.34,-93.56 18.51,-77.82 29.99,-62.6 20,-58.33 6.42,-60.09 0.49,-62.59 3.44,-63.58 11.63,-63.3 20.9,-62.91 28.21,-63.46 31.92,-65.26 31.64,-67.92 27.96,-70.7 21.88,-73.01 14.35,-74.74 6.37,-76.31 -0.67,-78.27 -4.77,-80.88 -4.03,-83.86 1.74,-86.6 9.87,-88.57 15.66,-89.7 16.06,-90.23 15.53,-89.72 35.45,-85.16" fill="none" stroke="rgb(167, 133, 106)" stroke-width="2" stroke-linejoin="round" filter="url(#fuzzy)" /><polyline points="-10.63,-94.11 26.33,-82.06 41.32,-72.4 41.92,-64.94 34.68,-60.86 26.35,-60.17 20.59,-61.68 17.14,-63.84 14,-65.49 10.63,-65.93 9.53,-64.91 13.88,-62.87 22.44,-61.61 26.66,-64.35 16.64,-73.45 -3.46,-85.85 -0.05,-95.15" fill="none" stroke="rgb(167, 133, 106)" stroke-width="2" stroke-linejoin="round" filter="url(#fuzzy)" /><polyline points="6.32,-94.69 45.17,-65.02 52.95,-60.22 46.73,-62.84 35.31,-67.45 23.92,-72.13 14.07,-75.97 5.29,-78.75 -2.48,-80.54 -8.15,-81.33 -10.45,-81.03 -9.08,-79.71 -4.65,-77.74 2.04,-75.78 9.97,-74.63 16.36,-75.23 15.77,-78.2 3.28,-82.06 -20.7,-80.13 -61.91,-59.27" fill="none" stroke="rgb(167, 133, 106)" stroke-width="2" stroke-linejoin="round" filter="url(#fuzzy)" /><polyline points="25.36,-90.06 35.66,-73.14 17.45,-78.21 3.04,-82.83 -0.52,-83.38 2.01,-81.82 4.26,-80.81 3.55,-81.61 0.87,-83.85 -1.57,-86.32 -2.54,-87.87 -1.9,-87.71 1.15,-85.24 9.72,-80.02 27.91,-71.48 53.55,-58.81 69.92,-44.59" fill="none" stroke="rgb(167, 133, 106)" stroke-width="2" stroke-linejoin="round" filter="url(#fuzzy)" /><polyline points="70.72,-42.59 14.22,-68.38 5.44,-72.54 1.41,-71.76 -4.08,-72.29 -6.61,-74.12 -3.81,-76.14 3.15,-77.87 11.6,-79.26 19.29,-80.19 25.05,-80.37 28.52,-79.63 29.65,-78.17 28.54,-76.63 25.68,-75.76 22.34,-75.84 20.51,-76.39 22.19,-76.29 28.21,-74.61 37.18,-71.47 45.3,-68.35 47,-67.53 34.04,-72.6 -12.61,-93.9" fill="none" stroke="rgb(167, 133, 106)" stroke-width="2" stroke-linejoin="round" filter="url(#fuzzy)" /><polyline points="24.44,-90.16 49.57,-68.19 55.91,-62.32 53.74,-61.32 44.89,-62.41 30.31,-64.28 13.07,-65.9 -2.18,-66.7 -11.54,-66.44 -13.66,-65.03 -9.62,-62.49 -1.51,-59.09 8.87,-55.42 20.12,-52.38 29.96,-51.1 34.24,-52.7 28.12,-57.64 10.54,-64.79 -9.2,-71.13 -6.96,-73.94 51.48,-72.39" fill="none" stroke="rgb(167, 133, 106)" stroke-width="2" stroke-linejoin="round" filter="url(#fuzzy)" /><polyline points="56.64,-66.21 -16.26,-64.75 -34.05,-67.68 -25.83,-73.46 -9.26,-77.41 6.61,-76.76 17.24,-72.23 20.48,-66.75 17.2,-63.07 11.35,-62.13 7.68,-63.25 8.52,-65.39 12.67,-68.14 17.43,-71.57 21.97,-75.26 28,-77.55 33.26,-78.54 13.73,-93.42" fill="none" stroke="rgb(167, 133, 106)" stroke-width="2" stroke-linejoin="round" filter="url(#fuzzy)" /><polyline points="-60.97,-60.96 -29.63,-69.03 2.93,-74.52 21.85,-77.59 30.2,-78.6 31.48,-78.35 27.87,-77.48 21.31,-76.59 14.51,-76.19 11.08,-76.17 13.97,-75.65 22.81,-73.79 32.59,-71.32 36.05,-70.98 31.03,-73.94 30.54,-72.05 70.72,-42.59" fill="none" stroke="rgb(167, 133, 106)" stroke-width="2" stroke-linejoin="round" filter="url(#fuzzy)" /><polyline points="53.59,-70.12 35.62,-81.93 22.87,-83.72 5.56,-82.5 -11.22,-81.48 -22.56,-81.62 -28.22,-82.34 -30.66,-82.52 -31.84,-81.43 -31.66,-79.2 -28.56,-76.52 -21.53,-73.99 -11.62,-71.68 -1.89,-69.4 4.66,-67.31 7.69,-66.24 10.87,-67.13 19.52,-69.6 30.42,-73.48 9.59,-93.97" fill="none" stroke="rgb(167, 133, 106)" stroke-width="2" stroke-linejoin="round" filter="url(#fuzzy)" /><polyline points="-61.91,-59.27 -28.78,-77.22 -8.26,-84.9 -0.62,-87.64 3.71,-87.23 9.61,-84.35 17.58,-79.53 26.06,-73.62 32.65,-67.79 35.13,-63.32 32.61,-61.09 26.16,-61.28 18.42,-63.25 12.11,-65.93 8.36,-68.45 6.18,-70.52 3.65,-72.38 0.26,-74.19 -1.3,-75.47 3.53,-75.11 16.3,-71.92 29.07,-65.74 20.34,-60.12 -49.6,-74.11" fill="none" stroke="rgb(167, 133, 106)" stroke-width="2" stroke-linejoin="round" filter="url(#fuzzy)" /><polyline points="9.96,-94.33 20.6,-66.4 -2.24,-68.03 -13.94,-73.05 -10.42,-75.28 0.46,-75.04 10.3,-74.27 14.7,-74.13 13.49,-74.77 8.7,-75.96 2.63,-77.59 -3.23,-79.61 -8.12,-81.77 -11.6,-83.65 -13.27,-84.9 -12.89,-85.47 -10.85,-85.51 -8.45,-85.11 -7.32,-84.2 -8.34,-82.92 -10.83,-82.23 -12.63,-83.9 -8.75,-89.25 5.97,-94.58" fill="none" stroke="rgb(167, 133, 106)" stroke-width="2" stroke-linejoin="round" filter="url(#fuzzy)" /><polyline points="56.64,-66.21 22.22,-79.74 24.99,-77.42 26.89,-72.97 19.79,-71.27 9.32,-71.89 1.73,-73.4 -0.81,-74.77 0.34,-75.52 2.44,-75.67 3.04,-75.78 0.92,-76.63 -3.46,-78.64 -8.16,-81.43 -10.73,-84.04 -9.38,-85.45 -3.64,-85.16 5.83,-83.11 18.53,-79.13 35.13,-72.13 55.23,-59.75 73.01,-37.88" fill="none" stroke="rgb(167, 133, 106)" stroke-width="2" stroke-linejoin="round" filter="url(#fuzzy)" /><polyline points="-7.29,-94.73 7.13,-88.48 0.16,-80.81 -12.28,-77.66 -16.18,-78.14 -9.89,-79.53 1.52,-80.15 12.42,-79.64 19.34,-78.31 20.99,-76.81 17.38,-76.02 9.72,-76.7 0.86,-79.02 -5.07,-82.15 -4.36,-84.53 4.52,-84.32 20.97,-79.76 42.77,-70.74 56.64,-66.21" fill="none" stroke="rgb(167, 133, 106)" stroke-width="2" stroke-linejoin="round" filter="url(#fuzzy)" /><polyline points="39.79,-82.22 6.58,-83.13 8.82,-75.24 23.97,-69.3 36.15,-67.17 41.22,-67.9 40.48,-70.15 36.14,-72.64 29.36,-74.48 20.24,-75.42 9,-75.83 -3.03,-76.15 -13.38,-76.57 -19.32,-76.9 -19.02,-76.71 -12.49,-75.59 -1.92,-73.45 8.64,-70.71 14.81,-68.33 14.7,-67.28 10.98,-67.99 6.91,-70.19 -7.56,-71.96 -61.91,-59.27" fill="none" stroke="rgb(167, 133, 106)" stroke-width="2" stroke-linejoin="round" filter="url(#fuzzy)" /><polyline points="-10.63,-94.11 25.88,-77.8 26.97,-72.45 17.92,-73.75 14.68,-75.84 18.85,-76.39 26.22,-74.9 32.29,-72.04 33.6,-69.44 28.08,-68.79 16.04,-70.75 0.61,-74.53 -13.28,-78.71 -21.36,-82.27 -21.92,-84.98 -15.41,-86.62 -2.02,-86.72 18.39,-85.76 31.3,-87.16" fill="none" stroke="rgb(167, 133, 106)" stroke-width="2" stroke-linejoin="round" filter="url(#fuzzy)" /><polyline points="41.47,-81.12 0.52,-75.71 -7.51,-77 -17.12,-77.73 -25.09,-77.49 -26.8,-77.44 -22.51,-78.18 -15.09,-79.52 -7.49,-80.85 -1.87,-81.55 0.55,-81.28 -0.12,-80.17 -2.24,-78.61 -3.21,-76.95 -1.07,-74.96 4.04,-71.95 10.34,-67.49 18.33,-62.93 34.71,-62.78 47.72,-76.17" fill="none" stroke="rgb(167, 133, 106)" stroke-width="2" stroke-linejoin="round" filter="url(#fuzzy)" /><polyline points="10.35,-94.08 2.73,-72.83 27.16,-60.68 40.88,-58.93 40.31,-63.42 31.92,-69.81 22.61,-75.13 16.19,-78.07 13.09,-78.77 12.01,-78.17 11.79,-77.24 12.23,-76.47 13.68,-75.86 16.2,-75.19 19.15,-74.38 21.48,-73.55 22.33,-72.93 21.62,-72.55 20.37,-72.23 20.2,-71.79 21.64,-71.65 22.26,-72.99 17.84,-76.35 5.61,-79.86 -35.88,-84.47" fill="none" stroke="rgb(167, 133, 106)" stroke-width="2" stroke-linejoin="round" filter="url(#fuzzy)" /><polyline points="-0.31,-95.12 4.44,-88.01 -2.57,-82.94 -1.62,-79.64 2.77,-79.09 7.66,-80.23 13.21,-81.12 19.24,-80.7 24.38,-79.19 27.56,-77.35 29.12,-75.65 30.36,-74.09 31.86,-72.57 32.35,-71.42 29.14,-71.39 20.16,-72.98 5.99,-75.76 -9.47,-78.42 -19.99,-80.06 -18.24,-80.81 4.21,-78.82 59.46,-63.03" fill="none" stroke="rgb(167, 133, 106)" stroke-width="2" stroke-linejoin="round" filter="url(#fuzzy)" /><polyline points="69.92,-44.59 27.36,-76.78 12.09,-88.07 7.71,-90.67 10.84,-89.06 19.38,-84.84 30.38,-79.02 40.75,-72.87 48.05,-67.74 50.9,-64.58 49.17,-63.83 44.06,-65.51 38.15,-69.17 34.68,-73.58 36.47,-76.11 56.64,-66.21" fill="none" stroke="rgb(167, 133, 106)" stroke-width="2" stroke-linejoin="round" filter="url(#fuzzy)" /><polyline points="21.1,-91.68 -0.95,-81.84 -1.8,-76.05 0.72,-70.46 8.12,-64.81 15.35,-61.23 16.97,-60.99 12.48,-63.77 5.33,-68.46 -0.61,-73.89 -3.39,-79.12 -3.01,-83.35 -0.45,-85.99 3.16,-86.65 6.8,-85.26 9.81,-81.99 12.16,-77.47 14.43,-72.84 16.98,-69.7 18.4,-69.64 15.09,-73.45 3.18,-80.23 -17.32,-85.69 -43.33,-79.85" fill="none" stroke="rgb(167, 133, 106)" stroke-width="2" stroke-linejoin="round" filter="url(#fuzzy)" /><polyline points="25.36,-90.06 9.6,-89.17 13.23,-88.35 14.04,-87.27 10.72,-84.69 6.58,-80.97 4.71,-77.5 5.79,-75.54 8.65,-75.47 12.07,-76.45 16,-77 21.04,-75.96 27.24,-73.19 33.45,-69.67 37.78,-66.79 38.78,-65.39 36.26,-65.33 30.95,-65.83 23.53,-66.28 14.48,-66.89 5.84,-68.27 2.33,-69.9 0.45,-69.7 -49.6,-74.11" fill="none" stroke="rgb(167, 133, 106)" stroke-width="2" stroke-linejoin="round" filter="url(#fuzzy)" /><polyline points="-26.28,-89.45 23.77,-75.92 42.83,-69.98 45.41,-72.09 41.06,-77.06 34.39,-81.77 27.45,-84.92 20.87,-86.01 14.28,-85.09 6.95,-82.72 -1.23,-79.8 -9.11,-77.26 -14.91,-75.69 -17.47,-75.13 -17.24,-75.25 -15.67,-75.73 -13.7,-76.65 -10.8,-78.36 -6.23,-80.72 -1.18,-82.22 1.08,-80.02 -6.08,-72.35 -59.29,-62.61" fill="none" stroke="rgb(167, 133, 106)" stroke-width="2" stroke-linejoin="round" filter="url(#fuzzy)" /><polyline points="5.13,-94.91 -5.9,-84.2 -28.01,-74.53 -38.01,-72.01 -36.93,-73.56 -29.76,-75.55 -20.07,-76.42 -9.92,-76.4 -0.85,-76.29 5.65,-76.63 8.38,-77.4 7.07,-78.36 2.66,-79.4 -2.92,-80.61 -7.6,-82 -9.86,-83.18 -9.14,-83.47 -5.64,-82.37 -0.11,-80.24 6.29,-78.56 12.73,-79.13 20.02,-82.12 27.7,-85.41 21.1,-91.68" fill="none" stroke="rgb(167, 133, 106)" stroke-width="2" stroke-linejoin="round" filter="url(#fuzzy)" /><polyline points="-51.36,-72.03 -6.09,-78.87 -1.43,-82.98 0.02,-82.43 4.14,-79.62 10.11,-77.09 15.68,-75.92 18.81,-75.91 19.02,-76.54 17.13,-77.56 13.81,-78.97 8.91,-80.73 2.35,-82.46 -4.98,-83.61 -12.81,-83.68 -23.89,-81.95 -40.39,-77.25 -52.9,-70.55" fill="none" stroke="rgb(167, 133, 106)" stroke-width="2" stroke-linejoin="round" filter="url(#fuzzy)" /><polyline points="-44.41,-78.36 -20.85,-87.08 -10.82,-87.85 -5.92,-85.85 -2.9,-82.86 -0.81,-80.2 -0.02,-78.63 0.04,-77.82 1.13,-76.8 4.67,-75.02 10.12,-72.93 15.02,-71.62 16.57,-71.8 13.68,-73.08 7.82,-74.21 2.03,-74.08 -1.22,-72.86 -1.5,-72.12 0.36,-73.45 4.27,-76.04 9.88,-75.68 6.32,-69.53 -51.88,-72.11" fill="none" stroke="rgb(167, 133, 106)" stroke-width="2" stroke-linejoin="round" filter="url(#fuzzy)" /><polyline points="57.67,-65.26 2.55,-78.24 -24.27,-76.54 -28.03,-73.92 -18.28,-74.46 -6.01,-77.58 2.52,-81.24 7.1,-83.62 10.51,-83.84 14.57,-82.24 18.27,-80.1 18.97,-79 15.1,-79.89 8.08,-82.58 1.57,-85.86 -1.64,-88.2 -2.71,-88.61 -6.05,-87.18 -12.38,-86.4 2.2,-95.1" fill="none" stroke="rgb(167, 133, 106)" stroke-width="2" stroke-linejoin="round" filter="url(#fuzzy)" /><polyline points="7.46,-94.48 24.56,-71.31 7.33,-72.73 -6.04,-75.66 -10.76,-76.95 -8.85,-77.23 -3.38,-77 2.26,-76.13 5.7,-74.29 6.42,-71.54 5.17,-68.6 2.75,-66.56 -0.2,-66.09 -2.1,-66.42 0.77,-65.03 13.28,-59.39 36.02,-51.23 56.31,-50.91 48.61,-75.29" fill="none" stroke="rgb(167, 133, 106)" stroke-width="2" stroke-linejoin="round" filter="url(#fuzzy)" /><polyline points="-39.03,-82.7 -26.51,-87.07 -17.95,-89.26 -12.83,-88.74 -7.06,-86.12 -0.84,-82.75 3.73,-79.93 5.44,-78.29 4.38,-77.8 1.21,-78.08 -3.4,-78.67 -8.66,-79.22 -13.64,-79.48 -17.36,-79.47 -19.08,-79.46 -18.67,-79.75 -16.84,-80.13 -14.52,-79.73 -11.37,-77.53 -4.61,-73.68 8.66,-69.65 28.19,-63.61 73.9,-34.96" fill="none" stroke="rgb(167, 133, 106)" stroke-width="2" stroke-linejoin="round" filter="url(#fuzzy)" /><polyline points="57.67,-65.26 53.07,-63.47 40.56,-73.51 32.41,-79.48 26.44,-80.74 20.38,-79.46 14.06,-77.62 8.62,-76.31 5.81,-75.33 7.04,-73.56 11.98,-70.05 17.81,-65.07 20.58,-60.19 18.43,-57.16 14.51,-56.62 15.68,-57.74 25.54,-59.46 35.5,-62.27 23.46,-68.36 -39.01,-82.64" fill="none" stroke="rgb(167, 133, 106)" stroke-width="2" stroke-linejoin="round" filter="url(#fuzzy)" /><polyline points="71,10.15 71.49,8.64 72.54,7.46 73.22,6.32 73.61,5.11 74.01,3.78 74.6,2.32 75.36,0.79 76.17,-0.79 76.91,-2.37 77.51,-3.92 77.94,-5.38 78.2,-6.71 78.3,-7.92 78.27,-9.04 78.16,-10.17 78.11,-11.39 78.21,-12.72 78.49,-13.71" fill="none" stroke="rgb(167, 133, 106)" stroke-width="2" stroke-linejoin="round" filter="url(#fuzzy)" /><polyline points="-3.43,-94.72 -1.15,-96.09 0.17,-96.18 1.31,-96.28 2.56,-96.46 3.88,-96.6 5.16,-96.64 6.35,-96.54 7.48,-96.36 8.58,-96.14 9.67,-95.93 10.78,-95.76 11.91,-95.66 13.07,-95.64 14.26,-95.73 15.46,-95.92 16.69,-96.14 17.92,-96.3 19.16,-96.28 20.36,-96.08 21.45,-95.79 22.42,-95.67 23.54,-95.78" fill="none" stroke="rgb(167, 133, 106)" stroke-width="2" stroke-linejoin="round" filter="url(#fuzzy)" /><polyline points="-5.69,-94.74 -7.1,-96.83 -8.04,-98.1 -8.99,-98.58 -10.01,-98.82 -11.12,-99.19 -12.33,-99.77 -13.64,-100.41 -15.04,-100.96 -16.5,-101.42 -18.03,-101.87 -19.6,-102.4 -21.2,-102.97 -22.82,-103.46 -24.45,-103.82 -26.08,-104.07 -27.72,-104.3 -29.34,-104.6 -30.92,-104.99 -32.45,-105.34 -33.95,-105.47 -35.39,-105.25 -36.73,-104.84 -37.85,-104.82 -38.58,-105.75" fill="none" stroke="rgb(167, 133, 106)" stroke-width="2" stroke-linejoin="round" filter="url(#fuzzy)" /><polyline points="-39.13,-107.11 -37.67,-106.72 -36.03,-106.84 -34.17,-106.05 -32.3,-104.68 -30.51,-103.29 -28.79,-102.16 -27.08,-101.28 -25.34,-100.51 -23.62,-99.8 -21.99,-99.26 -20.48,-98.99 -19.06,-98.97 -17.67,-99 -16.22,-98.78 -14.71,-98.21 -13.18,-97.29 -11.75,-95.87 -10.63,-94.11 -11.31,-94.17 -12.66,-93.98 -14.04,-93.65 -15.38,-93.3 -16.67,-93 -17.94,-92.75 -19.2,-92.54 -20.49,-92.33 -21.81,-92.08 -23.14,-91.76 -24.43,-91.4 -25.64,-91 -26.76,-90.61 -27.85,-90.23 -28.97,-89.82 -30.11,-89.38 -31.2,-88.94 -32.02,-88.65 -32.35,-88.69 -35.1,-76.65 -35.08,-77.37 -34.14,-78.58 -33.01,-79.73 -31.94,-80.7 -30.99,-81.61 -30.16,-82.55 -29.37,-83.56 -28.57,-84.55 -27.71,-85.45 -26.78,-86.19 -25.78,-86.81 -24.72,-87.37 -23.6,-87.95 -22.43,-88.57 -21.24,-89.22 -20.04,-89.87 -18.86,-90.5 -17.68,-91.07 -16.47,-91.6 -15.23,-92.15 -13.94,-92.86 -12.63,-93.67 -11.31,-94.17" fill="none" stroke="rgb(167, 133, 106)" stroke-width="2" stroke-linejoin="round" filter="url(#fuzzy)" /><polyline points="-20.09,-92.06 -19.21,-96.05 -18.37,-99.47 -17.07,-100.16 -15.63,-100.16 -14.35,-101.13 -13.32,-103.31 -12.44,-105.93 -11.57,-107.98 -10.58,-108.9 -9.46,-108.8 -8.2,-108.31 -6.84,-108.1 -5.39,-108.61 -3.87,-109.89 -2.33,-111.81 -0.84,-114.45 0.24,-118.05 -0.07,-122.24" fill="none" stroke="rgb(167, 133, 106)" stroke-width="2" stroke-linejoin="round" filter="url(#fuzzy)" /><polyline points="2.59,-111.61 1.13,-110.16 0.22,-108.75 -0.93,-107.8 -2.31,-107.06 -3.77,-106.32 -5.2,-105.43 -6.5,-104.27 -7.65,-102.85 -8.68,-101.36 -9.65,-100.07 -10.62,-99.14 -11.63,-98.55 -12.72,-98.14 -13.9,-97.78 -15.19,-97.5 -16.54,-97.23 -17.83,-96.49 -18.92,-94.43 -20.09,-92.06" fill="none" stroke="rgb(167, 133, 106)" stroke-width="2" stroke-linejoin="round" filter="url(#fuzzy)" /><polyline points="-58.76,-108.28 -55.85,-103.95 -53.68,-103.34 -51.53,-102.75 -49.16,-101.29 -46.64,-99.18 -44.07,-96.86 -41.53,-94.71 -39.13,-92.95 -37,-91.7 -35.18,-90.96 -33.69,-90.69 -32.42,-90.75 -31.25,-90.98 -30.05,-91.13 -28.78,-91.01 -27.49,-90.63 -26.31,-90.28 -25.27,-90.28 -24.25,-90.68" fill="none" stroke="rgb(167, 133, 106)" stroke-width="2" stroke-linejoin="round" filter="url(#fuzzy)" /><polyline points="78.19,-16.97 78.55,-16.64 79.17,-15.15 79.66,-13.54 80.03,-12.06 80.49,-10.75 81.19,-9.58 82.12,-8.47 83.21,-7.31 84.38,-6.01 85.66,-4.52 87.17,-2.87 88.98,-1.11 90.86,0.77 92.23,2.75 92.64,4.67 93.32,5.62" fill="none" stroke="rgb(167, 133, 106)" stroke-width="2" stroke-linejoin="round" filter="url(#fuzzy)" /><polyline points="-35.88,-84.47 -37.63,-83.31 -38.42,-82.61 -39.11,-81.85 -39.89,-80.93 -40.7,-79.9 -41.48,-78.84 -42.2,-77.81 -42.93,-76.83 -43.7,-75.92 -44.51,-75.02 -45.29,-74.05 -45.99,-72.94 -46.63,-71.64 -47.3,-70.21 -48,-68.84 -48.56,-67.92 -48.83,-67.69 -39.03,-82.7 -36.21,-82.68 -34.29,-82.74 -32.74,-82.76 -31.46,-82.79 -30.4,-82.97 -29.46,-83.34 -28.49,-83.67 -27.38,-83.7 -26.14,-83.26 -24.82,-82.42 -23.5,-81.43 -22.14,-80.53 -20.65,-79.79 -18.95,-79.24 -16.98,-78.62 -43.33,-79.85 -44.31,-78.96 -45.32,-78 -46.35,-77.05 -47.33,-76.16 -48.3,-75.29 -49.28,-74.4 -50.26,-73.5 -51.22,-72.6 -52.14,-71.71 -53.04,-70.82 -53.92,-69.94 -54.76,-69.07 -55.56,-68.2 -56.35,-67.32 -57.16,-66.37 -58.04,-65.31 -59,-64.13 -60,-62.91 -60.92,-61.75 -61.67,-60.79 -62.22,-60.04 -62.67,-59.36 -62.91,-59.02" fill="none" stroke="rgb(167, 133, 106)" stroke-width="2" stroke-linejoin="round" filter="url(#fuzzy)" /><polyline points="77.16,-21.39 78.14,-20.24 78.81,-18.68 79.42,-17.1 80.01,-15.49 80.57,-13.92 81.08,-12.44 81.55,-11.09 81.99,-9.83 82.45,-8.62 82.96,-7.38 83.47,-6.04 83.91,-4.55 84.25,-2.92 84.51,-1.19 84.8,0.62 85.17,2.51 85.5,4.32 85.58,5.15" fill="none" stroke="rgb(167, 133, 106)" stroke-width="2" stroke-linejoin="round" filter="url(#fuzzy)" /><polyline points="-47.45,-75.85 -46.03,-78.46 -45.49,-80.28 -44.99,-81.55 -44.6,-83.12 -44.37,-85.31 -44.16,-87.73 -43.79,-89.8 -43.14,-91.28 -42.29,-92.43 -41.41,-93.8 -40.58,-95.79 -39.8,-98.34 -39.11,-101.16 -38.7,-104.12 -38.83,-106.29 -47.04,-76.15 -49.36,-74.78 -50.86,-73.68 -52.19,-73.28 -53.58,-73.21 -54.95,-73.01 -56.19,-72.55 -57.33,-71.98 -58.46,-71.49 -59.67,-71.13 -61.04,-70.79 -62.59,-70.34 -64.35,-69.76 -66.26,-69.17 -68.11,-68.7 -69.47,-68.31 -70.13,-67.67 -70.87,-65.79" fill="none" stroke="rgb(167, 133, 106)" stroke-width="2" stroke-linejoin="round" filter="url(#fuzzy)" /><polyline points="-49.6,-74.11 -50.93,-72.92 -52.03,-72.61 -53.1,-72.32 -54.12,-71.69 -55.07,-70.86 -55.99,-70.03 -56.93,-69.29 -57.9,-68.56 -58.89,-67.72 -59.91,-66.74 -60.95,-65.68 -62.03,-64.65 -63.13,-63.74 -64.25,-62.97 -65.35,-62.25 -66.41,-61.45 -67.43,-60.46 -68.4,-59.25 -69.32,-57.88 -70.24,-56.47 -71.25,-55.22 -72.38,-54.36 -73.41,-54.18 -73.76,-54.87" fill="none" stroke="rgb(167, 133, 106)" stroke-width="2" stroke-linejoin="round" filter="url(#fuzzy)" /><polyline points="-51.36,-72.03 -51.73,-71.87 -52.25,-71.26 -53.01,-70.33 -53.83,-69.29 -54.59,-68.28 -55.28,-67.36 -55.97,-66.47 -56.73,-65.52 -57.59,-64.44 -58.52,-63.25 -59.44,-62.04 -60.26,-60.9 -60.93,-59.91 -61.48,-59.01 -61.99,-58.08 -62.61,-56.91 -63.44,-55.32 -64.41,-53.06 -51.9,-71.94 -51.56,-72.13 -50.62,-72.62 -49.33,-73.23 -48.03,-73.8 -46.86,-74.37 -45.8,-75 -44.82,-75.68 -43.85,-76.33 -42.86,-76.88 -41.82,-77.3 -40.7,-77.6 -39.55,-77.84 -38.4,-78.08 -37.29,-78.38 -36.23,-78.76 -35.14,-79.22 -33.95,-79.7 -32.62,-80.14 -31.22,-80.42 -29.94,-80.39 -29.17,-79.86 -51.9,-71.94 -53.31,-70.95 -55.2,-70.63 -56.82,-70.52 -58.16,-70.39 -59.43,-70.16 -60.72,-69.68 -61.99,-68.9 -63.23,-67.9 -64.5,-66.95 -65.92,-66.26 -67.52,-65.88 -69.22,-65.66 -70.88,-65.33 -72.39,-64.67 -73.78,-63.7 -75.23,-62.6 -76.96,-61.69 -79.06,-61.18 -81.36,-61.09 -83.52,-61.26 -85.47,-61.33 -87.74,-59.98 -56.08,-67.1 -55.65,-66.88 -55.47,-65.81 -55.33,-63.94 -55.42,-61.85 -55.84,-59.97 -56.49,-58.51 -57.23,-57.45 -57.91,-56.62 -58.39,-55.75 -58.6,-54.53 -58.57,-52.87 -58.44,-50.89 -58.37,-48.93 -58.28,-47.23 -57.87,-45.47" fill="none" stroke="rgb(167, 133, 106)" stroke-width="2" stroke-linejoin="round" filter="url(#fuzzy)" /><polyline points="-57.81,-64.53 -59.68,-63.22 -61.73,-62.75 -63.25,-62.51 -64.54,-62.38 -66.34,-62.59 -69,-63.25 -72.31,-64.14 -75.74,-64.86 -78.85,-65.16 -81.44,-64.97 -83.48,-64.43 -85.12,-63.83 -86.76,-63.61 -89.05,-63.88 -91.8,-62.76" fill="none" stroke="rgb(167, 133, 106)" stroke-width="2" stroke-linejoin="round" filter="url(#fuzzy)" /><polyline points="-59.29,-62.61 -60.84,-61.28 -61.76,-60.69 -62.52,-60.24 -63.45,-59.72 -64.55,-59.01 -65.74,-58.1 -66.9,-57.04 -67.96,-55.9 -68.92,-54.75 -69.77,-53.64 -70.56,-52.6 -71.34,-51.62 -72.17,-50.65 -73.08,-49.65 -74.1,-48.61 -75.23,-47.53 -76.52,-46.45 -77.96,-45.41 -79.49,-44.45 -80.95,-43.52 -82.16,-42.46 -83.13,-41.11 -84.09,-39.89" fill="none" stroke="rgb(167, 133, 106)" stroke-width="2" stroke-linejoin="round" filter="url(#fuzzy)" /><polyline points="-61.91,-59.27 -61.93,-61.76 -61.41,-64.16 -60.25,-65.71 -59.07,-66.87 -58.22,-67.96 -57.68,-69.1 -57.3,-70.36 -56.95,-71.78 -56.56,-73.31 -56.11,-74.85 -55.58,-76.25 -54.94,-77.51 -54.14,-78.82 -53.24,-80.45 -52.58,-82.4 -52.98,-83.7 -63.74,-30.24 -64.76,-32.04 -64.81,-33.5 -64.73,-34.83 -64.65,-36.2 -64.49,-37.61 -64.18,-39 -63.78,-40.33 -63.38,-41.62 -63.07,-42.89 -62.87,-44.16 -62.79,-45.44 -62.81,-46.78 -62.87,-48.23 -62.91,-49.82 -62.8,-51.47 -62.42,-53.07 -61.76,-54.56 -61.09,-56.08 -61.02,-58.14 -60.97,-60.96" fill="none" stroke="rgb(167, 133, 106)" stroke-width="2" stroke-linejoin="round" filter="url(#fuzzy)" /><polyline points="-62.34,-58.49 -63.85,-56.53 -65.31,-55.17 -67.29,-54.6 -69.6,-54.49 -71.54,-54.3 -72.68,-53.65 -73.13,-52.51 -73.32,-51.1 -73.68,-49.67 -74.44,-48.39 -75.57,-47.26 -76.94,-46.23 -78.38,-45.23 -79.79,-44.19 -81.11,-43.09 -82.29,-41.87 -83.33,-40.5 -84.27,-38.99 -85.26,-37.43 -86.4,-35.94 -87.64,-34.63 -88.84,-33.49 -90.06,-32.39 -92.19,-30.58 -65.01,-53.56 -63.7,-55.54 -62.63,-56.92 -61.85,-57.94 -61.14,-58.7 -60.27,-59.27 -59.11,-59.74 -57.64,-60.13 -56.01,-60.47 -54.43,-60.83 -53.06,-61.24 -51.97,-61.75 -51.07,-62.36 -50.25,-63.02 -49.34,-63.62 -48.26,-64.03 -47,-64.12 -45.55,-63.87 -43.9,-63.5 -41.82,-63.26 -38.82,-62.83 -92.22,-36.87 -89.71,-37.34 -87.81,-38.69 -85.61,-39.8 -83.36,-40.67 -81.3,-41.47 -79.53,-42.29 -77.98,-43.21 -76.61,-44.22 -75.36,-45.33 -74.25,-46.5 -73.27,-47.7 -72.33,-48.81 -71.33,-49.73 -70.23,-50.36 -69.05,-50.77 -67.83,-51.21 -66.55,-52.06 -65.39,-53.33" fill="none" stroke="rgb(167, 133, 106)" stroke-width="2" stroke-linejoin="round" filter="url(#fuzzy)" /><polyline points="-66.16,-51.97 -66.33,-53.77 -66.7,-55.97 -67.14,-58.56 -67.91,-61.44 -68.81,-64.21 -69.45,-66.52 -69.54,-68.29 -69.08,-69.69 -68.19,-70.95 -67.11,-72.28 -66.12,-73.77 -65.48,-75.5 -65.35,-77.5 -65.72,-79.86 -66.36,-82.67 -66.93,-85.95 -67.04,-89.38 -66.24,-91.82" fill="none" stroke="rgb(167, 133, 106)" stroke-width="2" stroke-linejoin="round" filter="url(#fuzzy)" /><polyline points="-67.82,-49.38 -68.52,-49.44 -69.42,-48.47 -70.01,-47.08 -70.51,-45.62 -71.1,-44.2 -71.87,-42.88 -72.79,-41.67 -73.81,-40.54 -74.88,-39.43 -75.94,-38.28 -77.01,-37.07 -78.08,-35.78 -79.13,-34.46 -80.12,-33.13 -80.98,-31.82 -81.7,-30.53 -82.36,-29.23 -83.13,-27.92 -84.12,-26.6 -85.23,-25.34 -86.14,-24.28 -68.97,-46.78 -68.98,-47.98 -69.55,-49.77 -69.92,-51.26 -69.77,-52.5 -69.29,-53.76 -68.69,-55.16 -68.03,-56.64 -67.36,-58.16 -66.78,-59.7 -66.38,-61.3 -66.17,-62.96 -66.08,-64.72 -65.99,-66.55 -65.77,-68.43 -65.36,-70.3 -64.8,-72.09 -64.19,-73.74 -63.65,-75.23 -63.2,-76.59 -62.67,-77.87 -61.82,-79.2 -60.69,-80.82 -59.84,-82.95 -48.99,-58.62 -49.04,-58.9 -49.68,-58.78 -50.82,-58.45 -52.19,-57.91 -53.64,-57.31 -55.1,-56.83 -56.53,-56.51 -57.86,-56.25 -59.06,-55.88 -60.12,-55.27 -61.06,-54.39 -61.89,-53.28 -62.62,-52.01 -63.26,-50.7 -63.89,-49.5 -64.57,-48.52 -65.35,-47.77 -66.2,-47.12 -67.01,-46.25 -67.89,-45.02 -70.42,-44.12 -86.85,-16.11 -85.31,-17.22 -84.35,-18.33 -83.72,-19.35 -83.2,-20.39 -82.63,-21.48 -81.94,-22.63 -81.13,-23.81 -80.28,-25.02 -79.47,-26.26 -78.76,-27.53 -78.14,-28.82 -77.57,-30.14 -76.96,-31.49 -76.31,-32.88 -75.6,-34.29 -74.9,-35.71 -74.24,-37.11 -73.69,-38.49 -73.29,-39.9 -72.95,-41.39 -72.4,-42.88 -71.32,-43.96 -70.42,-44.12" fill="none" stroke="rgb(167, 133, 106)" stroke-width="2" stroke-linejoin="round" filter="url(#fuzzy)" /><polyline points="-70.42,-44.12 -69.23,-45.93 -68.46,-47.27 -67.77,-48.25 -67.08,-49.05 -66.38,-49.89 -65.67,-50.89 -64.93,-52.04 -64.14,-53.26 -63.28,-54.46 -62.39,-55.58 -61.51,-56.57 -60.66,-57.43 -59.82,-58.21 -58.95,-59 -58.01,-59.9 -57,-60.98 -55.98,-62.18 -55.01,-63.31 -54.16,-64.11 -53.59,-64.37 -53.57,-64.09" fill="none" stroke="rgb(167, 133, 106)" stroke-width="2" stroke-linejoin="round" filter="url(#fuzzy)" /><polyline points="73.01,-37.88 75.69,-41.29 74.25,-42.4 72.62,-43.13 71.66,-44.03 71.47,-45.28 72.01,-46.96 73.17,-49.14 74.75,-51.74 76.37,-54.57 77.63,-57.34 78.22,-59.8 78.07,-61.85 77.4,-63.58 76.6,-65.23 76.13,-67.07 76.19,-69.22 76.66,-71.54 77.04,-73.73 76.86,-75.59 76.22,-77.53 76.16,-80.74" fill="none" stroke="rgb(167, 133, 106)" stroke-width="2" stroke-linejoin="round" filter="url(#fuzzy)" /><polyline points="73.01,-37.88 73.02,-39.85 72.23,-41.32 71.64,-42.63 71.32,-43.88 71.08,-45.05 70.79,-46.13 70.37,-47.17 69.84,-48.24 69.24,-49.38 68.59,-50.63 67.94,-52 67.31,-53.46 66.7,-54.95 66.11,-56.41 65.54,-57.8 64.99,-59.1 64.45,-60.35 63.92,-61.64 63.35,-63.05 62.66,-64.63 61.82,-66.32 60.85,-67.93 60.04,-69.22 59.95,-70.08" fill="none" stroke="rgb(167, 133, 106)" stroke-width="2" stroke-linejoin="round" filter="url(#fuzzy)" /><polyline points="73.01,-37.88 79.87,-43.67 80.56,-46.09 79.45,-47.21 77.82,-47.76 76.09,-48.08 74.67,-48.56 73.93,-49.54 74.06,-51.24 74.92,-53.63 76.21,-56.49 77.5,-59.54 78.51,-62.51 79.1,-65.25 79.34,-67.73 79.41,-70.02 79.48,-72.21 79.64,-74.39 79.88,-76.69 80.11,-79.23 80.09,-82.08 79.53,-85.18 78.72,-89.08" fill="none" stroke="rgb(167, 133, 106)" stroke-width="2" stroke-linejoin="round" filter="url(#fuzzy)" /><polyline points="72.22,-39.26 71.3,-40.98 70.49,-42.12 69.66,-42.95 68.86,-43.67 68.16,-44.41 67.54,-45.25 66.94,-46.18 66.28,-47.21 65.57,-48.33 64.84,-49.55 64.11,-50.85 63.37,-52.15 62.6,-53.36 61.78,-54.42 60.92,-55.31 60.04,-56.04 59.13,-56.7 58.09,-57.37 56.86,-58.2 55.51,-59.42 54.09,-61.21 49.48,-55.99 51.3,-54.89 52.92,-54.14 54.3,-53.62 55.39,-53.11 56.34,-52.58 57.32,-52.02 58.39,-51.41 59.55,-50.71 60.71,-49.9 61.76,-48.95 62.62,-47.86 63.28,-46.66 63.82,-45.47 64.39,-44.43 65.17,-43.63 66.21,-43.1 67.46,-42.74 68.8,-42.39 70.08,-41.85 71.2,-40.91 72.22,-39.26 70.37,-43.58 66.76,-42.58 66.12,-43.21 66.18,-44.43 66.21,-45.76 65.99,-47.09 65.49,-48.36 64.67,-49.51 63.52,-50.45 62.12,-51.16 60.57,-51.67 59.01,-52.02 57.51,-52.23 56.1,-52.37 54.76,-52.51 53.48,-52.82 52.15,-53.39 50.55,-54.09 48.1,-54.44" fill="none" stroke="rgb(167, 133, 106)" stroke-width="2" stroke-linejoin="round" filter="url(#fuzzy)" /><polyline points="97.16,-32.42 94.3,-31.61 93.21,-32.47 92.7,-33.86 91.88,-35.14 90.45,-36.17 88.55,-37.11 86.46,-38.08 84.43,-39.12 82.54,-40.17 80.71,-41.14 78.92,-42.04 77.15,-42.89 75.32,-43.63 73.17,-44.06 70.92,-44.3 69.66,-45.28 68.88,-46.85 71.43,-49.71 70.99,-50.8 70.22,-52.12 69.48,-53.62 68.7,-55.09 67.82,-56.43 66.93,-57.65 66.1,-58.81 65.41,-60 64.88,-61.33 64.48,-62.87 64.2,-64.69 64.03,-66.79 64,-69.13 64.14,-71.62 64.44,-74.14 64.77,-76.57 64.93,-78.83 64.7,-80.94 64.05,-82.95 63.08,-84.87 62.02,-87.21 65.82,-52.91 66.23,-51.62 66.84,-50.11 67.4,-48.7 67.85,-47.47 68.17,-46.32 68.35,-45.17 68.42,-43.97 68.4,-42.69 68.31,-41.3 68.16,-39.79 67.92,-38.17 67.55,-36.46 67.05,-34.65 66.43,-32.8 65.78,-30.94 65.18,-29.14 64.65,-27.45 64.19,-25.92 63.8,-24.54 63.55,-23.29 63.46,-22.15 63.26,-21.23 62.63,-20.9 63.86,-56.02 63.13,-57.4 62.63,-58.19 62.01,-58.98 61.25,-59.97 60.38,-61.15 59.45,-62.43 58.54,-63.68 57.67,-64.82 56.85,-65.83 56.06,-66.76 55.23,-67.67 54.35,-68.61 53.42,-69.57 52.48,-70.51 51.56,-71.39 50.67,-72.21 49.78,-72.98 48.85,-73.75 47.85,-74.52 46.58,-75.24" fill="none" stroke="rgb(167, 133, 106)" stroke-width="2" stroke-linejoin="round" filter="url(#fuzzy)" /><polyline points="62.61,-58.29 63.65,-59.34 63.52,-60.42 62.63,-61.33 61.57,-62.46 60.66,-63.89 60,-65.54 59.59,-67.27 59.31,-68.99 59,-70.61 58.54,-72.09 57.88,-73.43 57.08,-74.66 56.24,-75.86 55.48,-77.15 54.88,-78.59 54.42,-80.19 54.05,-81.88 53.7,-83.55 53.31,-85.15 52.82,-86.7 52.19,-88.33 51.42,-90.17 50.56,-91.92 60.43,-61.11 59.31,-62.93 58.23,-64.39 57.37,-65.46 56.65,-66.34 55.92,-67.21 55.12,-68.14 54.24,-69.13 53.34,-70.13 52.43,-71.11 51.55,-72.03 50.69,-72.91 49.85,-73.75 49.01,-74.56 48.18,-75.36 47.33,-76.15 46.43,-76.94 45.46,-77.76 44.43,-78.59 43.35,-79.44 42.27,-80.27 41.26,-81.06 40.37,-81.74 39.65,-82.23 39.02,-82.55 60.43,-61.11 64.42,-62.9 67.39,-64.19 68.49,-63.73 69.13,-62.64 69.89,-61.41 70.81,-60.12 71.83,-58.81 72.9,-57.49 74.02,-56.25 75.22,-55.15 76.47,-54.2 77.79,-53.4 79.2,-52.74 80.8,-52.23 82.73,-51.87 85.05,-51.63 87.67,-51.42 90.29,-51.04 92.54,-50.29 94.13,-49.09 95.06,-47.48 95.75,-45.63 97.21,-43.85 101.3,-42.41 80.52,-49.87 79.63,-50.84 78.97,-51.64 78.28,-52.59 77.49,-53.63 76.52,-54.71 75.33,-55.77 73.96,-56.81 72.53,-57.83 71.1,-58.8 69.71,-59.7 68.35,-60.48 67.02,-61.16 65.71,-61.8 64.43,-62.49 63.16,-63.27 61.88,-64.15 60.59,-65.05 59.34,-65.9 58.21,-66.66 57.23,-67.36 56.35,-68.09 55.38,-68.95 54.14,-69.84 52.99,-70.4 52.99,-70.4 51.44,-70.85 50.37,-71.22 49.26,-71.56 48.22,-72.04 47.31,-72.66 46.45,-73.32 45.52,-73.92 44.5,-74.47 43.42,-75.03 42.31,-75.65 41.24,-76.33 40.2,-77.01 39.16,-77.63 38.08,-78.1 36.92,-78.43 35.68,-78.68 34.41,-78.91 33.16,-79.16 31.96,-79.36 30.76,-79.43 29.52,-79.31 28.35,-79.01 27.46,-78.79 49.89,-73.64 51.14,-72.55 51.98,-71.74 52.85,-70.8 53.78,-69.75 54.7,-68.7 55.56,-67.72 56.37,-66.8 57.17,-65.87 58.02,-64.86 58.93,-63.76 59.89,-62.58 60.85,-61.41 61.73,-60.32 62.53,-59.31 63.25,-58.36 63.95,-57.37 64.7,-56.24 65.52,-54.95 66.33,-53.62 67,-52.52 31.32,-96.8 32.48,-94.9 33.36,-93.52 34.29,-92.42 35.32,-91.53 36.37,-90.69 37.39,-89.69 38.34,-88.46 39.23,-87.08 40.1,-85.72 40.96,-84.49 41.85,-83.41 42.8,-82.44 43.82,-81.54 44.93,-80.71 46.09,-79.94 47.21,-79.22 48.18,-78.49 48.85,-77.52 49.15,-75.97 49.48,-74.08 44.68,-78.47 46.46,-78.28 48.27,-78.81 50.2,-79.84 51.75,-80.26 52.73,-79.69 53.34,-78.44 53.92,-77.06 54.71,-75.88 55.8,-75.03 57.21,-74.52 58.91,-74.35 60.86,-74.5 63.01,-74.87 65.28,-75.34 67.64,-75.72 69.99,-75.87 72.25,-75.69 74.25,-75.15 75.85,-74.31 77.06,-73.33 78.13,-72.43 79.52,-71.83 81.7,-71.52 85.45,-71.91" fill="none" stroke="rgb(167, 133, 106)" stroke-width="2" stroke-linejoin="round" filter="url(#fuzzy)" /><polyline points="31.84,-98.39 32.96,-96.38 33.74,-94.74 34.6,-93.47 35.51,-92.31 36.43,-91.17 37.41,-90.08 38.47,-89.07 39.56,-88.08 40.56,-86.99 41.35,-85.73 41.97,-84.29 42.56,-82.8 43.24,-81.37 43.93,-79.85 44.68,-78.47 43.54,-79.17 46.1,-80.78 48.16,-81.41 49.65,-81.44 50.7,-80.98 51.58,-80.31 52.53,-79.65 53.66,-79.17 55.02,-78.95 56.59,-78.93 58.25,-78.9 59.88,-78.65 61.41,-78.13 62.84,-77.48 64.19,-77 65.57,-77 67.25,-77.7 69.56,-78.72" fill="none" stroke="rgb(167, 133, 106)" stroke-width="2" stroke-linejoin="round" filter="url(#fuzzy)" /><polyline points="42.2,-80.13 41.37,-81.09 40.69,-82.24 40.1,-83.65 39.35,-85.02 38.37,-86.13 37.24,-86.99 36.08,-87.71 34.97,-88.44 33.9,-89.25 32.85,-90.19 31.8,-91.27 30.73,-92.52 29.66,-93.88 28.57,-95.22 27.5,-96.39 26.43,-97.29 25.37,-97.99 24.31,-98.65 23.4,-99.42 23.12,-100.45" fill="none" stroke="rgb(167, 133, 106)" stroke-width="2" stroke-linejoin="round" filter="url(#fuzzy)" /><polyline points="41.47,-81.12 42.14,-79.83 43.06,-78.68 44.14,-77.76 45.19,-76.93 46.13,-76.12 46.96,-75.34 47.76,-74.56 48.55,-73.79 49.35,-72.99 50.14,-72.14 50.93,-71.22 51.7,-70.21 52.47,-69.08 53.23,-67.86 53.95,-66.63 54.54,-65.51 54.95,-64.59 55.23,-63.84 55.58,-62.9" fill="none" stroke="rgb(167, 133, 106)" stroke-width="2" stroke-linejoin="round" filter="url(#fuzzy)" /><polyline points="39.88,-82.1 40.85,-80.58 41.69,-79.18 42.72,-78.16 43.7,-77.14 44.45,-75.87 44.92,-74.34 45.19,-72.68 45.41,-71.04 45.68,-69.52 46.04,-68.15 46.47,-66.89 46.97,-65.68 47.48,-64.45 48,-63.17 48.47,-61.81 48.85,-60.41 49.11,-59.05 49.3,-57.86 49.54,-56.82 49.91,-55.58 50.17,-53.19" fill="none" stroke="rgb(167, 133, 106)" stroke-width="2" stroke-linejoin="round" filter="url(#fuzzy)" /><polyline points="6.78,-125.45 7.72,-123.66 8.52,-121.21 9.49,-118.35 10.52,-115.33 11.58,-112.59 12.68,-110.43 13.85,-108.96 15.08,-108.1 16.34,-107.57 17.56,-107.03 18.69,-106.11 19.7,-104.66 20.63,-102.79 21.49,-100.76 22.34,-98.83 23.17,-97.11 24,-95.55 24.82,-94.07 25.68,-92.68 26.68,-91.49 27.89,-90.58 29.3,-89.9 30.71,-89.16 31.3,-87.16" fill="none" stroke="rgb(167, 133, 106)" stroke-width="2" stroke-linejoin="round" filter="url(#fuzzy)" /><polyline points="12.88,-117.01 14.69,-114.1 15.92,-111.63 16.96,-109.66 17.95,-107.86 18.94,-106.1 19.96,-104.44 20.97,-102.91 21.91,-101.36 22.74,-99.62 23.46,-97.65 24.13,-95.61 24.85,-93.81 25.75,-92.56 26.96,-92.04 28.59,-92.42 30.66,-93.62 32.5,-94.21 31.3,-87.16" fill="none" stroke="rgb(167, 133, 106)" stroke-width="2" stroke-linejoin="round" filter="url(#fuzzy)" /><polyline points="8.09,-121.07 8.46,-121.43 9.43,-118.67 10.53,-115.52 11.65,-113.17 12.82,-111.7 14.01,-110.67 15.19,-109.66 16.34,-108.51 17.49,-107.4 18.68,-106.55 19.89,-105.87 21.01,-104.88 21.89,-102.98 22.46,-100.01 22.88,-96.61 23.38,-93.68 24.03,-91.54 24.44,-90.16 21.09,-91.77 20.65,-92.2 19.86,-93.9 19,-96.09 18.06,-97.86 17.04,-99.05 15.97,-100.02 14.9,-101.1 13.84,-102.3 12.75,-103.38 11.64,-104.13 10.49,-104.58 9.33,-104.99 8.16,-105.69 6.97,-106.8 5.71,-108.17 4.35,-109.47 2.9,-110.52 1.49,-111.48 0.17,-112.66 -1.41,-114.02 -4.19,-115.69 29.73,-74.38 29.78,-76.1 29.28,-77.94 28.49,-79.06 27.51,-79.75 26.41,-80.34 25.27,-80.91 24.17,-81.48 23.17,-82.13 22.31,-83.06 21.61,-84.36 20.98,-85.89 20.37,-87.4 19.75,-88.92 19.14,-90.81 18.4,-92.53" fill="none" stroke="rgb(167, 133, 106)" stroke-width="2" stroke-linejoin="round" filter="url(#fuzzy)" /><polyline points="33.06,-81.99 31.2,-83 30.08,-83.74 29.05,-84.5 27.95,-85.39 26.83,-86.33 25.74,-87.23 24.72,-88 23.74,-88.64 22.77,-89.14 21.81,-89.55 20.84,-89.96 19.88,-90.5 18.89,-91.21 17.84,-91.96 16.88,-92.49 16.72,-92.55" fill="none" stroke="rgb(167, 133, 106)" stroke-width="2" stroke-linejoin="round" filter="url(#fuzzy)" /><polyline points="14.12,-93.36 14.22,-91.16 14.97,-89.44 16.07,-89.24 17.24,-89.35 18.28,-88.95 19.13,-87.83 19.8,-86.18 20.38,-84.36 20.98,-82.65 21.65,-81.23 22.42,-80.09 23.32,-79.17 24.34,-78.42 25.42,-77.72 26.37,-76.8 26.99,-75.27 27.42,-73.04 28.69,-71.15 35.3,-81.4 34.43,-82.32 33.61,-83.03 32.7,-83.69 31.71,-84.35 30.65,-85.04 29.54,-85.75 28.38,-86.5 27.22,-87.23 26.07,-87.91 24.96,-88.5 23.89,-89.01 22.86,-89.48 21.86,-89.96 20.87,-90.47 19.87,-91.03 18.84,-91.59 17.77,-92.1 16.67,-92.53 15.6,-92.87 14.57,-93.17 13.61,-93.42 12.51,-93.64" fill="none" stroke="rgb(167, 133, 106)" stroke-width="2" stroke-linejoin="round" filter="url(#fuzzy)" /><polyline points="9.96,-94.33 10.78,-93.72 11.97,-93.19 13.14,-92.81 14.21,-92.45 15.25,-92.04 16.28,-91.61 17.35,-91.2 18.44,-90.87 19.52,-90.6 20.56,-90.34 21.55,-89.99 22.49,-89.49 23.36,-88.83 24.19,-88.13 25.09,-87.56 26.37,-87.1" fill="none" stroke="rgb(167, 133, 106)" stroke-width="2" stroke-linejoin="round" filter="url(#fuzzy)" /><polyline points="5.13,-94.91 5.98,-95.58 6.85,-96.76 8.04,-98.89 9.39,-101.34 10.71,-103.17 11.99,-104.05 13.24,-104.29 14.54,-104.44 15.9,-104.91 17.33,-105.73 18.8,-106.69 20.28,-107.51 21.77,-108.15 23.32,-108.88 25,-110.18 26.91,-112.4 29.04,-115.48 31.2,-118.7 33,-120.97 34.46,-122.38" fill="none" stroke="rgb(167, 133, 106)" stroke-width="2" stroke-linejoin="round" filter="url(#fuzzy)" />
    </g>
    
        <g id="lineNose">
        <path d="M -9.67,35.22 Q 10.8, 52.83 0.5650000000000004, -5.19" fill="none" stroke="black" stroke-width="3" stroke-linejoin="round" filter="url(#fuzzy)"></path>
        </g>
      
    <g id="mouth">
      <polyline points="-28.43,78.06 -27.86,76.62 -27.28,75.23 -26.69,73.88 -26.1,72.57 -25.5,71.3 -24.9,70.06 -24.3,68.87 -23.69,67.71 -23.08,66.6 -22.47,65.52 -21.85,64.47 -21.23,63.47 -20.6,62.5 -19.98,61.57 -19.35,60.67 -18.72,59.81 -18.08,58.98 -17.45,58.19 -16.81,57.44 -16.17,56.71 -15.54,56.02 -14.9,55.37 -14.25,54.74 -13.61,54.15 -12.97,53.6 -12.33,53.07 -11.69,52.57 -11.04,52.11 -10.4,51.68 -9.76,51.27 -9.12,50.9 -8.48,50.55 -7.85,50.24 -7.21,49.95 -6.58,49.69 -5.94,49.46 -5.31,49.26 -4.69,49.09 -4.06,48.94 -3.44,48.82 -2.82,48.72 -2.2,48.65 -1.59,48.61 -0.98,48.59 -0.37,48.59 0.23,48.62 0.82,48.67 1.42,48.75 2.01,48.85 2.59,48.97 3.17,49.12 3.74,49.28 4.31,49.47 4.87,49.68 5.43,49.91 5.98,50.16 6.52,50.43 7.06,50.72 7.59,51.03 8.11,51.36 8.63,51.71 9.14,52.08 9.64,52.46 10.13,52.86 10.62,53.28 11.1,53.71 11.57,54.16 12.03,54.63 12.48,55.11 12.92,55.61 13.36,56.12 13.78,56.65 14.2,57.19 14.6,57.75 15,58.32 15.38,58.9 15.76,59.49 16.12,60.1 16.47,60.71 16.81,61.34 17.15,61.98 17.46,62.63 17.77,63.3 18.07,63.97 18.35,64.65 18.62,65.34 18.88,66.04 19.12,66.74 19.36,67.46 19.58,68.18 19.78,68.91 19.98,69.65 20.15,70.39 20.32,71.14 20.47,71.9 20.61,72.66 20.73,73.43 20.83,74.2 20.93,74.97 20.93,74.97 20.43,74.96 19.94,74.95 19.44,74.95 18.95,74.94 18.46,74.93 17.96,74.92 17.47,74.91 16.98,74.9 16.48,74.9 15.99,74.89 15.5,74.88 15,74.88 14.51,74.87 14.02,74.87 13.52,74.86 13.03,74.86 12.53,74.85 12.04,74.85 11.55,74.85 11.05,74.85 10.56,74.84 10.07,74.84 9.57,74.84 9.08,74.84 8.59,74.84 8.09,74.85 7.6,74.85 7.11,74.85 6.61,74.85 6.12,74.86 5.62,74.86 5.13,74.87 4.64,74.88 4.14,74.88 3.65,74.89 3.16,74.9 2.66,74.91 2.17,74.92 1.68,74.93 1.18,74.95 0.69,74.96 0.2,74.98 -0.3,74.99 -0.79,75.01 -1.29,75.03 -1.78,75.05 -2.27,75.07 -2.77,75.09 -3.26,75.11 -3.75,75.13 -4.25,75.16 -4.74,75.18 -5.23,75.21 -5.73,75.24 -6.22,75.26 -6.71,75.29 -7.21,75.33 -7.7,75.36 -8.2,75.39 -8.69,75.43 -9.18,75.47 -9.68,75.5 -10.17,75.54 -10.66,75.58 -11.16,75.63 -11.65,75.67 -12.14,75.71 -12.64,75.76 -13.13,75.81 -13.62,75.86 -14.12,75.91 -14.61,75.96 -15.11,76.02 -15.6,76.07 -16.09,76.13 -16.59,76.19 -17.08,76.25 -17.57,76.31 -18.07,76.37 -18.56,76.44 -19.05,76.51 -19.55,76.58 -20.04,76.65 -20.53,76.72 -21.03,76.79 -21.52,76.87 -22.02,76.95 -22.51,77.03 -23,77.11 -23.5,77.19 -23.99,77.28 -24.48,77.36 -24.98,77.45 -25.47,77.54 -25.96,77.64 -26.46,77.73 -26.95,77.83 -27.44,77.93 -27.94,78.03" fill="rgb(215,127,140)" stroke="black" stroke-width="3" stroke-linejoin="round" filter="url(#fuzzy)" />
    </g>
  </svg>
  