
  <svg viewBox="-100 -100 200 200" xmlns="http://www.w3.org/2000/svg" width="500" height="500" id="face-svg">
    <defs>
      <clipPath id="leftEyeClipPath">
        <polyline points="23.55,-0.56 23.27,-0.76 22.97,-0.98 22.65,-1.21 22.31,-1.46 21.94,-1.71 21.56,-1.97 21.16,-2.25 20.75,-2.53 20.31,-2.83 19.87,-3.13 19.4,-3.44 18.93,-3.77 18.44,-4.1 17.94,-4.44 17.43,-4.78 16.85,-5.11 16.25,-5.45 15.64,-5.82 15.02,-6.2 14.38,-6.59 13.74,-7 13.08,-7.42 12.41,-7.85 11.73,-8.28 11.05,-8.72 10.36,-9.16 9.66,-9.6 8.95,-10.03 8.24,-10.46 7.53,-10.88 6.82,-11.29 6.1,-11.69 5.38,-12.08 4.66,-12.45 3.94,-12.8 3.22,-13.13 2.51,-13.44 1.8,-13.73 1.09,-13.99 0.38,-14.23 -0.32,-14.44 -1.01,-14.62 -1.7,-14.78 -2.37,-14.9 -3.05,-15 -3.71,-15.07 -4.36,-15.1 -5.01,-15.11 -5.64,-15.08 -6.27,-15.03 -6.88,-14.95 -7.49,-14.84 -8.08,-14.7 -8.65,-14.53 -9.22,-14.34 -9.77,-14.13 -10.31,-13.89 -10.84,-13.63 -11.36,-13.35 -11.86,-13.05 -12.35,-12.73 -12.82,-12.4 -13.28,-12.06 -13.73,-11.71 -14.16,-11.34 -14.59,-10.97 -15,-10.59 -15.4,-10.19 -15.78,-9.78 -16.16,-9.36 -16.52,-8.93 -16.88,-8.5 -17.22,-8.05 -17.55,-7.6 -17.87,-7.15 -18.17,-6.69 -18.47,-6.22 -18.75,-5.75 -19.03,-5.28 -17.97,4.55 -17.74,5.06 -17.49,5.56 -17.24,6.06 -16.97,6.55 -16.69,7.03 -16.4,7.5 -16.1,7.96 -15.78,8.42 -15.46,8.86 -15.12,9.29 -14.77,9.71 -14.41,10.11 -14.04,10.5 -13.66,10.88 -13.27,11.25 -12.86,11.6 -12.44,11.95 -12.01,12.28 -11.57,12.59 -11.11,12.89 -10.64,13.17 -10.16,13.43 -9.66,13.67 -9.16,13.89 -8.64,14.09 -8.12,14.27 -7.58,14.42 -7.03,14.54 -6.47,14.64 -5.9,14.72 -5.32,14.76 -4.73,14.79 -4.13,14.78 -3.53,14.75 -2.91,14.7 -2.29,14.62 -1.66,14.51 -1.03,14.38 -0.38,14.23 0.26,14.06 0.92,13.86 1.58,13.64 2.24,13.4 2.91,13.15 3.58,12.88 4.26,12.59 4.93,12.29 5.61,11.97 6.29,11.65 6.98,11.32 7.66,10.98 8.34,10.64 9.02,10.29 9.7,9.94 10.38,9.59 11.06,9.25 11.73,8.91 12.4,8.58 13.06,8.25 13.72,7.94 14.37,7.63 15.02,7.34 15.66,7.07 16.28,6.81 16.82,6.53 17.34,6.26 17.85,5.99 18.36,5.73 18.85,5.48 19.33,5.24 19.8,5 20.25,4.77 20.69,4.54 21.12,4.33 21.53,4.12 21.92,3.92 22.3,3.73 22.65,3.55 22.98,3.38" />
      </clipPath>
      <clipPath id="rightEyeClipPath">
        <polyline points="-21.98,1.42 -21.61,1.24 -21.22,1.05 -20.8,0.86 -20.37,0.65 -19.91,0.43 -19.43,0.21 -18.94,-0.03 -18.43,-0.27 -17.9,-0.52 -17.36,-0.78 -16.8,-1.05 -16.23,-1.32 -15.65,-1.6 -15.06,-1.89 -14.46,-2.19 -13.76,-2.46 -13.04,-2.75 -12.32,-3.06 -11.58,-3.38 -10.84,-3.71 -10.09,-4.06 -9.33,-4.42 -8.57,-4.78 -7.8,-5.15 -7.04,-5.53 -6.27,-5.9 -5.5,-6.28 -4.73,-6.66 -3.96,-7.03 -3.2,-7.39 -2.44,-7.75 -1.69,-8.1 -0.94,-8.43 -0.19,-8.75 0.54,-9.06 1.27,-9.35 1.99,-9.63 2.7,-9.88 3.4,-10.11 4.09,-10.33 4.77,-10.52 5.44,-10.69 6.1,-10.83 6.74,-10.95 7.37,-11.04 7.98,-11.11 8.59,-11.16 9.18,-11.18 9.75,-11.17 10.31,-11.14 10.85,-11.09 11.39,-11.01 11.9,-10.91 12.4,-10.79 12.89,-10.65 13.36,-10.48 13.81,-10.3 14.26,-10.1 14.68,-9.88 15.1,-9.65 15.49,-9.4 15.88,-9.14 16.25,-8.87 16.61,-8.6 16.95,-8.31 17.28,-8.02 17.6,-7.72 17.91,-7.41 18.21,-7.09 18.5,-6.76 18.77,-6.43 19.03,-6.09 19.29,-5.75 19.53,-5.4 19.76,-5.04 19.98,-4.68 20.19,-4.32 20.39,-3.96 20.57,-3.6 16.63,2.26 16.31,2.66 15.98,3.05 15.63,3.44 15.27,3.82 14.9,4.19 14.52,4.55 14.12,4.91 13.71,5.25 13.29,5.59 12.86,5.92 12.42,6.24 11.96,6.55 11.5,6.85 11.02,7.14 10.53,7.42 10.03,7.69 9.52,7.95 8.99,8.2 8.45,8.45 7.9,8.68 7.34,8.9 6.77,9.1 6.18,9.3 5.59,9.48 4.99,9.64 4.38,9.79 3.76,9.93 3.13,10.05 2.5,10.15 1.85,10.24 1.21,10.31 0.56,10.37 -0.1,10.41 -0.76,10.43 -1.42,10.44 -2.09,10.44 -2.76,10.41 -3.43,10.38 -4.09,10.33 -4.76,10.26 -5.43,10.18 -6.1,10.09 -6.76,9.99 -7.42,9.87 -8.08,9.74 -8.73,9.61 -9.38,9.46 -10.02,9.3 -10.66,9.14 -11.29,8.97 -11.91,8.79 -12.53,8.61 -13.13,8.43 -13.73,8.24 -14.32,8.05 -14.9,7.86 -15.46,7.67 -16.02,7.48 -16.56,7.29 -17.1,7.11 -17.62,6.92 -18.12,6.75 -18.61,6.58 -19.09,6.41 -19.51,6.25 -19.91,6.09 -20.3,5.93 -20.67,5.77 -21.03,5.61 -21.38,5.46 -21.71,5.31 -22.02,5.16 -22.32,5.02 -22.59,4.88 -22.85,4.74 -23.09,4.61 -23.31,4.48 -23.5,4.36 -23.68,4.23" />
      </clipPath>
      <filter id="fuzzy">
        <feTurbulence id="turbulence" baseFrequency="0.05" numOctaves="3" type="noise" result="noise" />
        <feDisplacementMap in="SourceGraphic" in2="noise" scale="2" />
      </filter>
      <linearGradient id="rainbowGradient" x1="0%" y1="0%" x2="100%" y2="0%">
        <stop offset="0%" style="stop-color: rgb(220, 208, 186); stop-opacity: 1" />
        <stop offset="50%" style="stop-color: rgb(185, 55, 55); stop-opacity: 1" />
        <stop offset="100%" style="stop-color: rgb(80, 68, 68); stop-opacity: 1" />
      </linearGradient>
    </defs>
    <rect x="-100" y="-100" width="100%" height="100%" fill="rgb(250, 235, 215)" />
    <polyline id="faceContour" points="56.7,0.74 56.83,0.46 56.86,0.89 56.67,3.82 56.78,5.53 56.5,8.1 56.72,7.93 56.43,10.49 56.37,10.03 56.14,11.82 56.29,12.22 56.17,14.48 55.5,17.43 55.48,18.15 55.42,19.44 55.16,21.04 55.29,20.48 55.02,22.19 54.25,25.14 54.56,24.43 53.66,28.67 54.08,26.5 53.22,30.65 53.38,30.11 52.78,31.48 52.48,33.32 51.95,35.07 51.82,34.87 51.38,36.9 51,38.17 50.69,39.52 49.8,41.73 50.5,39.33 49.54,42.57 49.18,43.21 48.3,45 47.98,46.02 48.08,46.37 47.34,47.51 46.49,49.82 45.98,51.14 44.95,52.64 44.64,52.95 44.05,54.88 43.44,55.44 43.9,55.04 42.36,57.69 42.48,57.1 41.76,58.65 40.47,60.18 40.15,61.25 38.74,63.18 39.15,62.62 38.56,63.61 37.48,64.91 37.25,65.47 35.93,67.17 36.37,66.21 35.45,67.38 33.92,69.31 33.72,69.75 32.79,70.64 31.75,71.83 31.06,71.98 30.72,72.31 28.65,74.47 28.02,74.79 28.29,74.74 26.34,76.27 25.99,76.56 25.71,77.06 24.22,77.62 25.27,77.3 23.22,78.71 22.13,79.25 21.17,80.23 21.67,80.13 19.58,80.71 18.86,81.37 19.46,80.92 17.45,82.06 16.37,82.58 16.79,82.47 13.76,83.46 15.39,82.9 14.21,83.32 13.03,83.78 12.71,83.87 9.66,84.85 10.81,84.4 8.64,85.21 9.52,84.9 6.66,85.72 4.44,85.86 5.25,86 5.4,85.62 3.21,85.97 3.2,86.13 2.77,85.98 1.64,85.99 -0.79,86.42 -0.31,86.1 -2.78,86.26 -2.62,85.89 -3.08,86.02 -5.47,85.84 -5.94,85.58 -7.61,85.24 -7.3,85.67 -6.78,85.4 -9.57,85.16 -9.51,85.05 -10.11,84.84 -11.33,84.59 -12.47,84.22 -12.47,84.31 -13.59,83.54 -15.13,83.23 -16.06,82.87 -17.2,81.88 -17.83,81.66 -18.72,81.55 -18.63,81.65 -19.9,81.08 -20.41,80.41 -21.43,79.72 -21.9,79.72 -23.54,78.45 -24.54,77.88 -25.19,77.1 -26.41,76.66 -25.95,76.64 -27.28,75.68 -28.15,74.85 -28.43,74.89 -29.29,73.79 -30.64,72.62 -31.67,71.53 -31.46,71.62 -32,71.01 -33.21,69.98 -33.13,70.19 -34.94,68.14 -36.59,65.99 -37.18,65.31 -36.76,65.92 -37.79,64.61 -37.31,65.47 -38.79,63.32 -39.73,61.76 -40.49,60.61 -40.43,60.87 -42.19,58.17 -42.77,56.98 -42.91,56.68 -43.53,55.28 -43.64,55.64 -44.09,54.68 -45.73,51.32 -45.6,51.42 -46.43,49.73 -46.23,49.93 -47.6,47.62 -47.23,47.83 -48.14,45.94 -47.86,46.08 -48.91,44.21 -49.41,42.57 -49.91,41.16 -49.93,41.54 -50.64,39.43 -51.48,36.65 -51.99,35.06 -52.18,34.94 -52.6,33.11 -52.38,33.23 -53.26,30.64 -52.93,31.56 -53.3,29.3 -53.43,29.66 -54.04,27.44 -54.57,25.36 -54.58,24.04 -54.93,23.07 -55.15,20.22 -55.41,19.59 -55.45,18.4 -55.75,17.11 -55.99,15.67 -56.14,14.66 -56.25,12.68 -56.23,12.46 -56.38,10.45 -56.58,9.7 -56.63,7.78 -56.62,7.63 -56.84,3.52 -56.69,5.61 -56.81,3.44 -56.95,0.28 -56.9,-0.7 -56.98,-2.08 -56.78,-3.27 -56.95,-3.6 -56.95,-3.05 -56.86,-4.96 -56.54,-7.1 -56.6,-8.03 -56.2,-12.22 -56.43,-10.42 -55.94,-13.98 -55.85,-16.71 -55.66,-17.87 -55.92,-16.25 -55.48,-18.88 -55.58,-18.95 -55.4,-20.56 -54.67,-23.35 -54.51,-25.06 -54.27,-25.13 -54.2,-26.8 -53.79,-28.71 -53.29,-29.93 -53.4,-30.33 -52.61,-32.08 -52.91,-31.98 -52.45,-33.58 -51.35,-37.2 -51.14,-37.95 -51.37,-36.62 -51.27,-37.16 -50.04,-41 -49.33,-42.4 -48.92,-43.9 -49.2,-43.35 -48.43,-45.43 -47.84,-46.71 -47.6,-47.16 -47.67,-47.54 -46.34,-49.84 -45.58,-51.4 -45.32,-52.2 -44.84,-52.51 -43.75,-54.81 -42.74,-56.85 -42.78,-56.77 -43.05,-56.05 -41.98,-57.91 -40.59,-60.11 -41.67,-58.58 -40.02,-61.63 -40.56,-60.26 -38.05,-64.06 -37.58,-64.48 -37.73,-63.88 -37.4,-64.69 -36.4,-66.49 -34.61,-68.3 -34.33,-68.49 -33.69,-69.32 -33.55,-69.42 -32.94,-69.94 -32.64,-70.57 -32.17,-71.01 -29.69,-73.38 -29.24,-73.89 -27.86,-75.43 -28.55,-74.83 -26.81,-75.64 -26.84,-75.66 -25.44,-77.33 -23.99,-78.08 -24.18,-78.22 -22.55,-79.15 -23.03,-78.57 -22.14,-78.88 -21.3,-80.03 -19.92,-80.51 -19.09,-80.88 -18.08,-81.62 -17.02,-82.07 -17.24,-82.04 -15.84,-82.33 -14.89,-82.87 -14.85,-83.27 -13.74,-83.6 -12.38,-84.24 -11.57,-84.52 -11.19,-84.3 -8.99,-84.94 -9.21,-85.07 -8.82,-85.17 -7.1,-85.21 -6.27,-85.47 -4.1,-85.79 -3.86,-86.06 -4.57,-85.7 -2.14,-85.98 -2.09,-85.78 -1.58,-86.15 0.57,-86.08 0.69,-86.06 1.66,-86.08 2.67,-85.76 2.91,-86.09 5.56,-85.89 5.04,-85.52 5.6,-85.78 6.85,-85.48 7.15,-85.32 9.57,-84.95 8.58,-85.12 11.01,-84.56 11.65,-84.15 12.27,-84.22 13.2,-83.71 12.95,-83.93 14.84,-82.99 17.25,-82.04 17.34,-82.15 17.59,-82.06 17.41,-81.83 18.54,-81.64 21.24,-80.14 20.74,-79.97 22.29,-79.3 22.18,-79.42 22.82,-78.76 24.97,-77.48 24.82,-77.61 26.08,-76.75 26.78,-75.65 27.84,-75.13 28.87,-74.09 29.73,-73.28 30.76,-72.49 30.62,-72.66 30.84,-72.29 32.36,-70.66 32.28,-71.01 33.83,-69.3 33.5,-69.55 34.88,-67.88 35.43,-67.34 37,-65.42 36.98,-65.57 37.1,-65.15 37.91,-63.96 38.21,-63.6 39.35,-61.85 40.1,-61.16 40.99,-59.35 41.08,-59.07 42.57,-57.35 42.26,-57.65 43.31,-55.94 43.91,-54.82 44.63,-53.33 44.45,-53.16 44.66,-53.11 45.78,-51.16 46.49,-49.52 46.76,-49.07 47.09,-47.91 48.43,-44.88 48.61,-44.77 48.48,-45.04 49.62,-41.42 50.18,-40.78 50.11,-40.55 50.1,-40.85 51.31,-37.03 51.34,-36.41 52.4,-32.87 52.09,-33.83 52.79,-32.13 52.64,-32.39 53.62,-29.43 53.37,-29.96 53.69,-28.62 53.75,-28.39 54.18,-24.83 54.56,-24.82 54.65,-23.16 54.82,-21.8 55.23,-20.73 55.51,-17.85 55.66,-18.17 55.77,-16.14 56.03,-15 56.05,-14.08 56.13,-13.25 56.59,-9.26 56.35,-9.14 56.4,-8.87 56.64,-8.37 56.78,-4.77 56.77,-5.25 56.67,-3.48 56.77,-1.52 56.7,0.74 56.83,0.46" fill="rgb(255, 203, 164)" stroke="black" stroke-width="1.6666666666666665" stroke-linejoin="round" filter="url(#fuzzy)" />
    <g transform="translate(25.73 -28.65)">
      <polyline id="rightCountour" points="-21.98,1.42 -21.61,1.24 -21.22,1.05 -20.8,0.86 -20.37,0.65 -19.91,0.43 -19.43,0.21 -18.94,-0.03 -18.43,-0.27 -17.9,-0.52 -17.36,-0.78 -16.8,-1.05 -16.23,-1.32 -15.65,-1.6 -15.06,-1.89 -14.46,-2.19 -13.76,-2.46 -13.04,-2.75 -12.32,-3.06 -11.58,-3.38 -10.84,-3.71 -10.09,-4.06 -9.33,-4.42 -8.57,-4.78 -7.8,-5.15 -7.04,-5.53 -6.27,-5.9 -5.5,-6.28 -4.73,-6.66 -3.96,-7.03 -3.2,-7.39 -2.44,-7.75 -1.69,-8.1 -0.94,-8.43 -0.19,-8.75 0.54,-9.06 1.27,-9.35 1.99,-9.63 2.7,-9.88 3.4,-10.11 4.09,-10.33 4.77,-10.52 5.44,-10.69 6.1,-10.83 6.74,-10.95 7.37,-11.04 7.98,-11.11 8.59,-11.16 9.18,-11.18 9.75,-11.17 10.31,-11.14 10.85,-11.09 11.39,-11.01 11.9,-10.91 12.4,-10.79 12.89,-10.65 13.36,-10.48 13.81,-10.3 14.26,-10.1 14.68,-9.88 15.1,-9.65 15.49,-9.4 15.88,-9.14 16.25,-8.87 16.61,-8.6 16.95,-8.31 17.28,-8.02 17.6,-7.72 17.91,-7.41 18.21,-7.09 18.5,-6.76 18.77,-6.43 19.03,-6.09 19.29,-5.75 19.53,-5.4 19.76,-5.04 19.98,-4.68 20.19,-4.32 20.39,-3.96 20.57,-3.6 16.63,2.26 16.31,2.66 15.98,3.05 15.63,3.44 15.27,3.82 14.9,4.19 14.52,4.55 14.12,4.91 13.71,5.25 13.29,5.59 12.86,5.92 12.42,6.24 11.96,6.55 11.5,6.85 11.02,7.14 10.53,7.42 10.03,7.69 9.52,7.95 8.99,8.2 8.45,8.45 7.9,8.68 7.34,8.9 6.77,9.1 6.18,9.3 5.59,9.48 4.99,9.64 4.38,9.79 3.76,9.93 3.13,10.05 2.5,10.15 1.85,10.24 1.21,10.31 0.56,10.37 -0.1,10.41 -0.76,10.43 -1.42,10.44 -2.09,10.44 -2.76,10.41 -3.43,10.38 -4.09,10.33 -4.76,10.26 -5.43,10.18 -6.1,10.09 -6.76,9.99 -7.42,9.87 -8.08,9.74 -8.73,9.61 -9.38,9.46 -10.02,9.3 -10.66,9.14 -11.29,8.97 -11.91,8.79 -12.53,8.61 -13.13,8.43 -13.73,8.24 -14.32,8.05 -14.9,7.86 -15.46,7.67 -16.02,7.48 -16.56,7.29 -17.1,7.11 -17.62,6.92 -18.12,6.75 -18.61,6.58 -19.09,6.41 -19.51,6.25 -19.91,6.09 -20.3,5.93 -20.67,5.77 -21.03,5.61 -21.38,5.46 -21.71,5.31 -22.02,5.16 -22.32,5.02 -22.59,4.88 -22.85,4.74 -23.09,4.61 -23.31,4.48 -23.5,4.36 -23.68,4.23" fill="white" stroke="white" stroke-width="0" stroke-linejoin="round" filter="url(#fuzzy)" />
    </g>
    <g transform="translate(-33.58 -31.99)">
      <polyline id="leftCountour" points="23.55,-0.56 23.27,-0.76 22.97,-0.98 22.65,-1.21 22.31,-1.46 21.94,-1.71 21.56,-1.97 21.16,-2.25 20.75,-2.53 20.31,-2.83 19.87,-3.13 19.4,-3.44 18.93,-3.77 18.44,-4.1 17.94,-4.44 17.43,-4.78 16.85,-5.11 16.25,-5.45 15.64,-5.82 15.02,-6.2 14.38,-6.59 13.74,-7 13.08,-7.42 12.41,-7.85 11.73,-8.28 11.05,-8.72 10.36,-9.16 9.66,-9.6 8.95,-10.03 8.24,-10.46 7.53,-10.88 6.82,-11.29 6.1,-11.69 5.38,-12.08 4.66,-12.45 3.94,-12.8 3.22,-13.13 2.51,-13.44 1.8,-13.73 1.09,-13.99 0.38,-14.23 -0.32,-14.44 -1.01,-14.62 -1.7,-14.78 -2.37,-14.9 -3.05,-15 -3.71,-15.07 -4.36,-15.1 -5.01,-15.11 -5.64,-15.08 -6.27,-15.03 -6.88,-14.95 -7.49,-14.84 -8.08,-14.7 -8.65,-14.53 -9.22,-14.34 -9.77,-14.13 -10.31,-13.89 -10.84,-13.63 -11.36,-13.35 -11.86,-13.05 -12.35,-12.73 -12.82,-12.4 -13.28,-12.06 -13.73,-11.71 -14.16,-11.34 -14.59,-10.97 -15,-10.59 -15.4,-10.19 -15.78,-9.78 -16.16,-9.36 -16.52,-8.93 -16.88,-8.5 -17.22,-8.05 -17.55,-7.6 -17.87,-7.15 -18.17,-6.69 -18.47,-6.22 -18.75,-5.75 -19.03,-5.28 -17.97,4.55 -17.74,5.06 -17.49,5.56 -17.24,6.06 -16.97,6.55 -16.69,7.03 -16.4,7.5 -16.1,7.96 -15.78,8.42 -15.46,8.86 -15.12,9.29 -14.77,9.71 -14.41,10.11 -14.04,10.5 -13.66,10.88 -13.27,11.25 -12.86,11.6 -12.44,11.95 -12.01,12.28 -11.57,12.59 -11.11,12.89 -10.64,13.17 -10.16,13.43 -9.66,13.67 -9.16,13.89 -8.64,14.09 -8.12,14.27 -7.58,14.42 -7.03,14.54 -6.47,14.64 -5.9,14.72 -5.32,14.76 -4.73,14.79 -4.13,14.78 -3.53,14.75 -2.91,14.7 -2.29,14.62 -1.66,14.51 -1.03,14.38 -0.38,14.23 0.26,14.06 0.92,13.86 1.58,13.64 2.24,13.4 2.91,13.15 3.58,12.88 4.26,12.59 4.93,12.29 5.61,11.97 6.29,11.65 6.98,11.32 7.66,10.98 8.34,10.64 9.02,10.29 9.7,9.94 10.38,9.59 11.06,9.25 11.73,8.91 12.4,8.58 13.06,8.25 13.72,7.94 14.37,7.63 15.02,7.34 15.66,7.07 16.28,6.81 16.82,6.53 17.34,6.26 17.85,5.99 18.36,5.73 18.85,5.48 19.33,5.24 19.8,5 20.25,4.77 20.69,4.54 21.12,4.33 21.53,4.12 21.92,3.92 22.3,3.73 22.65,3.55 22.98,3.38" fill="white" stroke="white" stroke-width="0" stroke-linejoin="round" filter="url(#fuzzy)" />
    </g>
    <g transform="translate(25.73 -28.65)">
      <polyline id="rightUpper" points="-23.98,2.77 -23.94,2.66 -23.86,2.55 -23.74,2.44 -23.59,2.32 -23.4,2.19 -23.17,2.05 -22.92,1.9 -22.63,1.75 -22.32,1.59 -21.98,1.42 -21.61,1.24 -21.22,1.05 -20.8,0.86 -20.37,0.65 -19.91,0.43 -19.43,0.21 -18.94,-0.03 -18.43,-0.27 -17.9,-0.52 -17.36,-0.78 -16.8,-1.05 -16.23,-1.32 -15.65,-1.6 -15.06,-1.89 -14.46,-2.19 -13.76,-2.46 -13.04,-2.75 -12.32,-3.06 -11.58,-3.38 -10.84,-3.71 -10.09,-4.06 -9.33,-4.42 -8.57,-4.78 -7.8,-5.15 -7.04,-5.53 -6.27,-5.9 -5.5,-6.28 -4.73,-6.66 -3.96,-7.03 -3.2,-7.39 -2.44,-7.75 -1.69,-8.1 -0.94,-8.43 -0.19,-8.75 0.54,-9.06 1.27,-9.35 1.99,-9.63 2.7,-9.88 3.4,-10.11 4.09,-10.33 4.77,-10.52 5.44,-10.69 6.1,-10.83 6.74,-10.95 7.37,-11.04 7.98,-11.11 8.59,-11.16 9.18,-11.18 9.75,-11.17 10.31,-11.14 10.85,-11.09 11.39,-11.01 11.9,-10.91 12.4,-10.79 12.89,-10.65 13.36,-10.48 13.81,-10.3 14.26,-10.1 14.68,-9.88 15.1,-9.65 15.49,-9.4 15.88,-9.14 16.25,-8.87 16.61,-8.6 16.95,-8.31 17.28,-8.02 17.6,-7.72 17.91,-7.41 18.21,-7.09 18.5,-6.76 18.77,-6.43 19.03,-6.09 19.29,-5.75 19.53,-5.4 19.76,-5.04 19.98,-4.68 20.19,-4.32 20.39,-3.96 20.57,-3.6 20.75,-3.24 20.92,-2.87 21.08,-2.51 21.23,-2.15 21.37,-1.79 21.5,-1.43 21.62,-1.08 21.73,-0.72 21.83,-0.37 21.93,-0.02" fill="none" stroke="black" stroke-width="1.6666666666666665" stroke-linejoin="round" filter="url(#fuzzy)" />
      <polyline id="rightLower" points="-23.91,3.24 -24.03,3.32 -24.11,3.41 -24.16,3.5 -24.18,3.59 -24.16,3.69 -24.12,3.79 -24.05,3.89 -23.95,4 -23.83,4.12 -23.68,4.23 -23.5,4.36 -23.31,4.48 -23.09,4.61 -22.85,4.74 -22.59,4.88 -22.32,5.02 -22.02,5.16 -21.71,5.31 -21.38,5.46 -21.03,5.61 -20.67,5.77 -20.3,5.93 -19.91,6.09 -19.51,6.25 -19.09,6.41 -18.61,6.58 -18.12,6.75 -17.62,6.92 -17.1,7.11 -16.56,7.29 -16.02,7.48 -15.46,7.67 -14.9,7.86 -14.32,8.05 -13.73,8.24 -13.13,8.43 -12.53,8.61 -11.91,8.79 -11.29,8.97 -10.66,9.14 -10.02,9.3 -9.38,9.46 -8.73,9.61 -8.08,9.74 -7.42,9.87 -6.76,9.99 -6.1,10.09 -5.43,10.18 -4.76,10.26 -4.09,10.33 -3.43,10.38 -2.76,10.41 -2.09,10.44 -1.42,10.44 -0.76,10.43 -0.1,10.41 0.56,10.37 1.21,10.31 1.85,10.24 2.5,10.15 3.13,10.05 3.76,9.93 4.38,9.79 4.99,9.64 5.59,9.48 6.18,9.3 6.77,9.1 7.34,8.9 7.9,8.68 8.45,8.45 8.99,8.2 9.52,7.95 10.03,7.69 10.53,7.42 11.02,7.14 11.5,6.85 11.96,6.55 12.42,6.24 12.86,5.92 13.29,5.59 13.71,5.25 14.12,4.91 14.52,4.55 14.9,4.19 15.27,3.82 15.63,3.44 15.98,3.05 16.31,2.66 16.63,2.26 16.94,1.85 17.24,1.44 17.52,1.02 17.79,0.6 18.05,0.17 18.3,-0.26 18.54,-0.7 18.76,-1.14 18.97,-1.59 19.17,-2.04" fill="none" stroke="black" stroke-width="2.2222222222222223" stroke-linejoin="round" filter="url(#fuzzy)" />
      <circle r="4.406" cx="1.124188846554055" cy="-2.9024895617401936" stroke="black" fill="none" stroke-width="1.0" filter="url(#fuzzy)" clip-path="url(#rightEyeClipPath)" /><circle r="3.79" cx="5.0441888465540545" cy="-1.5374895617401938" stroke="black" fill="none" stroke-width="1.0" filter="url(#fuzzy)" clip-path="url(#rightEyeClipPath)" /><circle r="3.632" cx="2.2441888465540547" cy="-3.9624895617401936" stroke="black" fill="none" stroke-width="1.0" filter="url(#fuzzy)" clip-path="url(#rightEyeClipPath)" /><circle r="3.154" cx="2.0041888465540545" cy="-4.2574895617401936" stroke="black" fill="none" stroke-width="1.0" filter="url(#fuzzy)" clip-path="url(#rightEyeClipPath)" /><circle r="3.14" cx="4.2941888465540545" cy="-1.202489561740193" stroke="black" fill="none" stroke-width="1.0" filter="url(#fuzzy)" clip-path="url(#rightEyeClipPath)" /><circle r="3.5380000000000003" cx="2.2541888465540545" cy="-4.337489561740194" stroke="black" fill="none" stroke-width="1.0" filter="url(#fuzzy)" clip-path="url(#rightEyeClipPath)" /><circle r="3.136" cx="3.394188846554055" cy="-5.487489561740194" stroke="black" fill="none" stroke-width="1.0" filter="url(#fuzzy)" clip-path="url(#rightEyeClipPath)" /><circle r="4.6899999999999995" cx="3.439188846554055" cy="-3.3724895617401933" stroke="black" fill="none" stroke-width="1.0" filter="url(#fuzzy)" clip-path="url(#rightEyeClipPath)" /><circle r="4.046" cx="3.2841888465540547" cy="-4.612489561740194" stroke="black" fill="none" stroke-width="1.0" filter="url(#fuzzy)" clip-path="url(#rightEyeClipPath)" /><circle r="4.01" cx="1.1741888465540549" cy="-0.9524895617401938" stroke="black" fill="none" stroke-width="1.0" filter="url(#fuzzy)" clip-path="url(#rightEyeClipPath)" />
      </g>
    <g transform="translate(-33.58 -31.99)">
      <polyline id="leftUpper" points="24.91,0.95 24.91,0.84 24.87,0.72 24.81,0.6 24.71,0.46 24.59,0.32 24.43,0.16 24.25,0 24.04,-0.17 23.81,-0.36 23.55,-0.56 23.27,-0.76 22.97,-0.98 22.65,-1.21 22.31,-1.46 21.94,-1.71 21.56,-1.97 21.16,-2.25 20.75,-2.53 20.31,-2.83 19.87,-3.13 19.4,-3.44 18.93,-3.77 18.44,-4.1 17.94,-4.44 17.43,-4.78 16.85,-5.11 16.25,-5.45 15.64,-5.82 15.02,-6.2 14.38,-6.59 13.74,-7 13.08,-7.42 12.41,-7.85 11.73,-8.28 11.05,-8.72 10.36,-9.16 9.66,-9.6 8.95,-10.03 8.24,-10.46 7.53,-10.88 6.82,-11.29 6.1,-11.69 5.38,-12.08 4.66,-12.45 3.94,-12.8 3.22,-13.13 2.51,-13.44 1.8,-13.73 1.09,-13.99 0.38,-14.23 -0.32,-14.44 -1.01,-14.62 -1.7,-14.78 -2.37,-14.9 -3.05,-15 -3.71,-15.07 -4.36,-15.1 -5.01,-15.11 -5.64,-15.08 -6.27,-15.03 -6.88,-14.95 -7.49,-14.84 -8.08,-14.7 -8.65,-14.53 -9.22,-14.34 -9.77,-14.13 -10.31,-13.89 -10.84,-13.63 -11.36,-13.35 -11.86,-13.05 -12.35,-12.73 -12.82,-12.4 -13.28,-12.06 -13.73,-11.71 -14.16,-11.34 -14.59,-10.97 -15,-10.59 -15.4,-10.19 -15.78,-9.78 -16.16,-9.36 -16.52,-8.93 -16.88,-8.5 -17.22,-8.05 -17.55,-7.6 -17.87,-7.15 -18.17,-6.69 -18.47,-6.22 -18.75,-5.75 -19.03,-5.28 -19.29,-4.81 -19.54,-4.34 -19.78,-3.86 -20.01,-3.39 -20.22,-2.91 -20.43,-2.44 -20.63,-1.97 -20.82,-1.5 -20.99,-1.03 -21.16,-0.57" fill="none" stroke="black" stroke-width="2.2222222222222223" stroke-linejoin="round" filter="url(#fuzzy)" />
      <polyline id="leftLower" points="24.87,2.08 24.82,2.18 24.74,2.28 24.62,2.4 24.47,2.51 24.29,2.64 24.08,2.77 23.84,2.91 23.58,3.06 23.29,3.22 22.98,3.38 22.65,3.55 22.3,3.73 21.92,3.92 21.53,4.12 21.12,4.33 20.69,4.54 20.25,4.77 19.8,5 19.33,5.24 18.85,5.48 18.36,5.73 17.85,5.99 17.34,6.26 16.82,6.53 16.28,6.81 15.66,7.07 15.02,7.34 14.37,7.63 13.72,7.94 13.06,8.25 12.4,8.58 11.73,8.91 11.06,9.25 10.38,9.59 9.7,9.94 9.02,10.29 8.34,10.64 7.66,10.98 6.98,11.32 6.29,11.65 5.61,11.97 4.93,12.29 4.26,12.59 3.58,12.88 2.91,13.15 2.24,13.4 1.58,13.64 0.92,13.86 0.26,14.06 -0.38,14.23 -1.03,14.38 -1.66,14.51 -2.29,14.62 -2.91,14.7 -3.53,14.75 -4.13,14.78 -4.73,14.79 -5.32,14.76 -5.9,14.72 -6.47,14.64 -7.03,14.54 -7.58,14.42 -8.12,14.27 -8.64,14.09 -9.16,13.89 -9.66,13.67 -10.16,13.43 -10.64,13.17 -11.11,12.89 -11.57,12.59 -12.01,12.28 -12.44,11.95 -12.86,11.6 -13.27,11.25 -13.66,10.88 -14.04,10.5 -14.41,10.11 -14.77,9.71 -15.12,9.29 -15.46,8.86 -15.78,8.42 -16.1,7.96 -16.4,7.5 -16.69,7.03 -16.97,6.55 -17.24,6.06 -17.49,5.56 -17.74,5.06 -17.97,4.55 -18.19,4.04 -18.4,3.52 -18.6,3 -18.78,2.47 -18.96,1.94 -19.12,1.4 -19.27,0.87 -19.42,0.33 -19.55,-0.21 -19.67,-0.76" fill="none" stroke="black" stroke-width="2.2222222222222223" stroke-linejoin="round" filter="url(#fuzzy)" />
      <circle r="4.718" cx="10.671824811064006" cy="7.642400491182464" stroke="black" fill="none" stroke-width="1.0" filter="url(#fuzzy)" clip-path="url(#leftEyeClipPath)" /><circle r="3.518" cx="6.976824811064006" cy="6.602400491182463" stroke="black" fill="none" stroke-width="1.0" filter="url(#fuzzy)" clip-path="url(#leftEyeClipPath)" /><circle r="3.118" cx="6.491824811064006" cy="7.632400491182462" stroke="black" fill="none" stroke-width="1.0" filter="url(#fuzzy)" clip-path="url(#leftEyeClipPath)" /><circle r="4.128" cx="7.001824811064006" cy="6.357400491182464" stroke="black" fill="none" stroke-width="1.0" filter="url(#fuzzy)" clip-path="url(#leftEyeClipPath)" /><circle r="3.648" cx="7.661824811064006" cy="6.0424004911824625" stroke="black" fill="none" stroke-width="1.0" filter="url(#fuzzy)" clip-path="url(#leftEyeClipPath)" /><circle r="3.164" cx="6.796824811064006" cy="8.227400491182463" stroke="black" fill="none" stroke-width="1.0" filter="url(#fuzzy)" clip-path="url(#leftEyeClipPath)" /><circle r="3.144" cx="7.041824811064005" cy="5.2924004911824625" stroke="black" fill="none" stroke-width="1.0" filter="url(#fuzzy)" clip-path="url(#leftEyeClipPath)" /><circle r="4.286" cx="8.301824811064005" cy="6.127400491182463" stroke="black" fill="none" stroke-width="1.0" filter="url(#fuzzy)" clip-path="url(#leftEyeClipPath)" /><circle r="3.7359999999999998" cx="6.0768248110640055" cy="6.602400491182463" stroke="black" fill="none" stroke-width="1.0" filter="url(#fuzzy)" clip-path="url(#leftEyeClipPath)" /><circle r="4.438" cx="6.906824811064006" cy="6.652400491182462" stroke="black" fill="none" stroke-width="1.0" filter="url(#fuzzy)" clip-path="url(#leftEyeClipPath)" />
    </g>
    <g id="hairs">
      <polyline points="-12.38,-84.24 -24.06,-74.93 -21.66,-72.81 -12.5,-74.1 -4.1,-74.97 1.27,-74.81 4.11,-74.5 5.12,-74.74 4.59,-75.33 2.98,-75.63 1.23,-75.19 0.39,-74.22 0.88,-73.39 2.09,-73.37 2.6,-74.17 1,-75.13 -3.19,-75.28 -8.85,-74.22 -13.15,-72.61 -12.28,-71.76 -3.31,-72.01 13.17,-71.07 31.43,-65.43 40.99,-59.35" fill="none" stroke="rgb(80, 68, 68)" stroke-width="2" stroke-linejoin="round" filter="url(#fuzzy)" /><polyline points="-44.84,-52.51 -10.97,-71.29 -1.13,-72.16 1.95,-67.95 3.62,-65.73 6.12,-66.1 10.68,-67.13 16.55,-67.75 21.44,-68.32 23.23,-69.55 21.4,-71.33 17.49,-72.58 14.47,-72.03 14.96,-69.44 18.24,-66.56 17.25,-66.34 0.06,-67.78 -42.74,-56.85" fill="none" stroke="rgb(80, 68, 68)" stroke-width="2" stroke-linejoin="round" filter="url(#fuzzy)" /><polyline points="44.45,-53.16 12.77,-72.78 2.78,-79.15 -0.21,-80.92 -1.34,-81.14 -2.49,-80.72 -3.33,-79.88 -3.07,-78.6 -1.39,-76.79 1.44,-74.48 4.74,-71.92 7.55,-69.29 8.89,-66.57 8.54,-63.67 7.3,-60.96 6.55,-59.55 7.17,-60.86 9.25,-65.19 13.39,-70.26 23.11,-70.44 42.57,-57.35" fill="none" stroke="rgb(80, 68, 68)" stroke-width="2" stroke-linejoin="round" filter="url(#fuzzy)" /><polyline points="13.2,-83.71 12.14,-77.38 14.35,-72.07 8.92,-71.98 2.13,-74.26 -1.64,-76.6 -2.32,-78.05 -1.65,-78.44 -0.81,-78.06 0.16,-77.33 1.77,-76.57 4.18,-75.9 6.8,-75.27 8.53,-74.56 8.39,-73.75 6.08,-72.85 2.31,-71.86 -1.11,-70.72 -1.8,-69.46 2.14,-68.43 10.52,-68.17 20.31,-68.59 28.16,-67.46 36.34,-58.31 53.62,-29.43" fill="none" stroke="rgb(80, 68, 68)" stroke-width="2" stroke-linejoin="round" filter="url(#fuzzy)" /><polyline points="-37.73,-63.88 -3.67,-70.18 2.07,-70.52 8.79,-65.77 16.35,-61.32 19.04,-60.14 15.56,-61.81 9.37,-64.2 5.17,-65.45 5.44,-65.14 9.04,-64.13 12.35,-63.79 11.97,-65.08 7.13,-67.97 0.01,-71.5 -6.19,-74.32 -9.87,-75.3 -11.67,-74.23 -14.41,-71.84 -37.73,-63.88" fill="none" stroke="rgb(80, 68, 68)" stroke-width="2" stroke-linejoin="round" filter="url(#fuzzy)" /><polyline points="-43.05,-56.05 -6.67,-68.36 10.71,-64.64 9.15,-61.69 0,-62.85 -6.84,-66.56 -8.12,-70.66 -5.44,-73.6 -1.48,-74.68 2.26,-74.22 5.69,-73.19 9.15,-72.57 12.71,-72.65 16.23,-72.87 19.73,-72.37 23.21,-70.84 25.91,-69.09 26.2,-68.61 21.82,-71.1 0.69,-86.06" fill="none" stroke="rgb(80, 68, 68)" stroke-width="2" stroke-linejoin="round" filter="url(#fuzzy)" /><polyline points="-29.69,-73.38 5.26,-67.05 12.04,-59.27 9.69,-58.14 9.43,-60.12 13.66,-62.05 20.75,-62.8 28.19,-62.28 34.16,-60.78 37.81,-58.85 38.85,-57.28 37.31,-56.8 33.92,-57.59 30.6,-59.06 29.71,-60.84 31.61,-63.8 40.99,-59.35" fill="none" stroke="rgb(80, 68, 68)" stroke-width="2" stroke-linejoin="round" filter="url(#fuzzy)" /><polyline points="-40.59,-60.11 -16.59,-52.11 13.58,-46.89 29.59,-49.02 33.71,-55.09 31.34,-61.24 26.25,-65.14 20.29,-66.22 14.12,-65.32 7.99,-63.99 2.36,-63.64 -2.09,-64.93 -4.77,-67.5 -5.5,-70.26 -4.57,-71.97 -2.43,-71.82 0.64,-69.72 4.62,-66.38 9.5,-63.05 15.15,-61.05 21.01,-61.2 26.02,-63.27 29.38,-65.02 34.69,-59.28 53.37,-29.96" fill="none" stroke="rgb(80, 68, 68)" stroke-width="2" stroke-linejoin="round" filter="url(#fuzzy)" /><polyline points="14.84,-82.99 26.44,-73.05 27.05,-70.49 22.11,-68.71 14.11,-68.13 6.97,-69.1 2.57,-71.29 0.08,-74.02 -2.1,-76.61 -4.63,-78.37 -7.07,-78.73 -8.53,-77.4 -8.35,-74.59 -6.25,-70.98 -2.3,-67.54 2.93,-64.94 8.31,-63.06 12.48,-61.02 15.61,-58.46 20.03,-59.49 9.57,-84.95" fill="none" stroke="rgb(80, 68, 68)" stroke-width="2" stroke-linejoin="round" filter="url(#fuzzy)" /><polyline points="8.58,-85.12 -6.92,-81.17 -1.33,-80.58 7.57,-79.84 13.19,-79.06 15.69,-78.36 17.24,-77.48 18.82,-76.41 19.64,-75.53 18.22,-75.35 13.96,-75.91 7.99,-76.49 2.6,-75.92 -0.49,-73.49 -1.85,-69.98 -4.17,-67.44 -11.23,-66.08 -42.74,-56.85" fill="none" stroke="rgb(80, 68, 68)" stroke-width="2" stroke-linejoin="round" filter="url(#fuzzy)" /><polyline points="52.09,-33.83 29.74,-47.97 8.06,-61.97 -0.55,-70.06 -1.49,-71.74 0.51,-69.57 3.38,-66.5 6.48,-64.08 9.86,-62.41 13.91,-60.95 18.94,-59.33 24.72,-57.6 30.4,-56.15 34.72,-55.39 36.45,-55.74 34.69,-57.54 28.97,-60.95 19.47,-65.67 7.47,-70.83 -4.53,-75.19 -13.47,-77.79 -17.21,-78.53 -13.91,-78.8 7.15,-85.32" fill="none" stroke="rgb(80, 68, 68)" stroke-width="2" stroke-linejoin="round" filter="url(#fuzzy)" /><polyline points="40.1,-61.16 5.72,-66.71 10.19,-69.99 19.16,-69.74 22.52,-67.54 19.26,-64.55 12.31,-61.54 5.66,-59.13 2.16,-57.7 2.56,-57.17 5.9,-56.98 10.52,-56.33 14.93,-54.78 18.41,-52.74 20.89,-51.38 22.56,-51.99 23.29,-55.07 22.47,-59.74 19.2,-64.04 12.46,-65.91 3.22,-63.87 2.86,-55.77 50.1,-40.85" fill="none" stroke="rgb(80, 68, 68)" stroke-width="2" stroke-linejoin="round" filter="url(#fuzzy)" /><polyline points="12.27,-84.22 6.58,-77.85 -4.55,-75.52 -10.23,-74.77 -10.8,-74.02 -7.98,-73.56 -4.11,-73.37 -1.02,-72.72 0.88,-70.87 2.21,-67.72 3.6,-63.95 4.95,-60.61 5.53,-58.83 4.68,-59.38 2.54,-62.35 -0.06,-67 -2.47,-71.81 -4.53,-75.03 -5.11,-75.16 0.47,-71.05 19.99,-60.36 52.79,-32.13" fill="none" stroke="rgb(80, 68, 68)" stroke-width="2" stroke-linejoin="round" filter="url(#fuzzy)" /><polyline points="-26.84,-75.66 -18.87,-67.58 2.46,-64.82 12.97,-63.94 11.46,-65.78 5.32,-68.92 1.23,-71.22 1.81,-71.47 6.32,-69.82 12.8,-67.25 19.63,-64.68 26.04,-62.37 31.86,-59.99 37,-57 41.38,-53.22 44.84,-48.94 47.21,-44.89 48.07,-42.25 46.08,-43.06 37.51,-52.03 11.65,-84.15" fill="none" stroke="rgb(80, 68, 68)" stroke-width="2" stroke-linejoin="round" filter="url(#fuzzy)" /><polyline points="56.05,-14.08 56.54,-10.66 56.82,-8.12 56.99,-5.69 57.14,-3.24 57.29,-0.78 57.39,1.72 57.41,4.27 57.36,6.86 57.23,9.51 57.02,12.2 56.76,14.92 56.43,17.66 56.04,20.38 55.61,23.08 55.13,25.7 54.62,28.22 54.09,30.61 53.57,32.88 53.06,35.02 52.57,37.08 52.07,39.09 51.5,41.13 50.79,43.31 49.92,45.61 49.16,47.51" fill="none" stroke="rgb(80, 68, 68)" stroke-width="2" stroke-linejoin="round" filter="url(#fuzzy)" /><polyline points="-1.58,-86.15 0.48,-86.02 2.25,-85.9 3.75,-85.76 5.13,-85.55 6.5,-85.24 7.92,-84.83 9.37,-84.32 10.83,-83.75 12.26,-83.1 13.64,-82.39 14.98,-81.61 16.29,-80.77 17.61,-79.85 18.95,-78.85 20.27,-77.77 21.54,-76.59 22.7,-75.36 23.66,-74.12 24.36,-72.92 24.82,-71.77 25.25,-70.59 25.82,-69.18 26.05,-67.34" fill="none" stroke="rgb(80, 68, 68)" stroke-width="2" stroke-linejoin="round" filter="url(#fuzzy)" /><polyline points="-4.57,-85.7 -2.24,-85.82 -0.2,-85.92 1.69,-85.92 3.7,-85.81 5.9,-85.61 8.22,-85.33 10.63,-84.98 13.17,-84.57 15.97,-84.09 19.14,-83.53 22.69,-82.9 26.52,-82.19 30.45,-81.4 34.39,-80.53 38.36,-79.56 42.43,-78.49 46.6,-77.33 50.69,-76.09 54.47,-74.79 58.03,-73.46 62.06,-72.11 67.64,-70.71 75.69,-69.3" fill="none" stroke="rgb(80, 68, 68)" stroke-width="2" stroke-linejoin="round" filter="url(#fuzzy)" /><polyline points="-7.1,-85.21 -5.42,-85.56 -4.09,-85.72 -2.4,-85.82 -0.54,-85.87 1.36,-85.84 3.28,-85.73 5.28,-85.53 7.35,-85.26 9.48,-84.9 11.6,-84.48 13.68,-83.98 15.7,-83.4 17.72,-82.74 19.8,-82 22.02,-81.18 24.41,-80.26 26.98,-79.26 29.69,-78.16 32.47,-76.99 35.26,-75.74 38.04,-74.44 40.79,-73.08 43.53,-71.69 46.29,-70.27 49.04,-68.82 51.74,-67.35 54.36,-65.86 56.93,-64.33 59.59,-62.71 62.45,-60.98 65.46,-59.12 68.63,-57.15 73.12,-54.82" fill="none" stroke="rgb(80, 68, 68)" stroke-width="2" stroke-linejoin="round" filter="url(#fuzzy)" /><polyline points="-8.99,-84.94 -8.06,-85.2 -6.39,-85.49 -4.64,-85.72 -2.93,-85.86 -1.2,-85.92 0.58,-85.9 2.42,-85.82 4.3,-85.68 6.22,-85.45 8.22,-85.15 10.33,-84.76 12.57,-84.28 14.92,-83.73 17.34,-83.09 19.77,-82.39 22.17,-81.62 24.53,-80.77 26.88,-79.85 29.26,-78.85 31.75,-77.77 34.38,-76.6 37.12,-75.38 39.82,-74.15 42.3,-72.92 44.45,-71.71 46.46,-70.45 48.68,-69.03 51.48,-67.36 55.25,-65.57" fill="none" stroke="rgb(80, 68, 68)" stroke-width="2" stroke-linejoin="round" filter="url(#fuzzy)" /><polyline points="-14.85,-83.27 -13.99,-83.95 -13.22,-84.42 -11.6,-84.81 -9.54,-85.14 -7.34,-85.4 -5.13,-85.59 -2.92,-85.72 -0.73,-85.78 1.46,-85.77 3.71,-85.69 6.07,-85.52 8.57,-85.28 11.19,-84.96 13.89,-84.57 16.62,-84.1 19.35,-83.56 22.15,-82.95 25.14,-82.25 28.46,-81.48 32.24,-80.62 36.5,-79.66 41.12,-78.6 45.84,-77.44 50.41,-76.2 54.77,-74.89 59.21,-73.56 64.02,-72.22 68.07,-70.66" fill="none" stroke="rgb(80, 68, 68)" stroke-width="2" stroke-linejoin="round" filter="url(#fuzzy)" /><polyline points="-15.84,-82.33 -14.69,-83.18 -13.04,-83.83 -11.3,-84.35 -9.52,-84.76 -7.72,-85.1 -5.92,-85.37 -4.13,-85.57 -2.32,-85.7 -0.5,-85.77 1.36,-85.76 3.26,-85.68 5.23,-85.52 7.25,-85.28 9.33,-84.97 11.44,-84.59 13.55,-84.13 15.63,-83.59 17.68,-82.98 19.74,-82.3 21.86,-81.53 24.11,-80.68 26.55,-79.73 29.14,-78.67 31.82,-77.51 34.49,-76.26 37.11,-74.94 39.6,-73.64 41.97,-72.66" fill="none" stroke="rgb(80, 68, 68)" stroke-width="2" stroke-linejoin="round" filter="url(#fuzzy)" /><polyline points="-17.02,-82.07 -16.3,-82.54 -14.92,-83.18 -13.35,-83.78 -11.64,-84.29 -9.84,-84.71 -7.99,-85.06 -6.15,-85.34 -4.32,-85.55 -2.48,-85.69 -0.59,-85.77 1.39,-85.77 3.48,-85.7 5.67,-85.55 7.94,-85.33 10.26,-85.03 12.59,-84.66 14.91,-84.21 17.25,-83.69 19.64,-83.09 22.08,-82.43 24.57,-81.69 27.12,-80.88 29.75,-79.95 32.57,-78.9 35.63,-77.75 38.56,-76.75" fill="none" stroke="rgb(80, 68, 68)" stroke-width="2" stroke-linejoin="round" filter="url(#fuzzy)" /><polyline points="-23.03,-78.57 -21.83,-79.79 -20.23,-80.77 -19.18,-81.62 -18.42,-82.36 -17.5,-83.04 -16.22,-83.64 -14.61,-84.16 -12.76,-84.6 -10.72,-84.97 -8.54,-85.26 -6.24,-85.48 -3.87,-85.64 -1.46,-85.72 0.98,-85.73 3.48,-85.67 6.06,-85.53 8.78,-85.31 11.66,-85.02 14.73,-84.66 18.01,-84.21 21.47,-83.7 25.1,-83.1 28.83,-82.44 32.59,-81.71 36.34,-80.89 40.2,-79.96 44.42,-78.91 49.18,-77.76 54.18,-76.75" fill="none" stroke="rgb(80, 68, 68)" stroke-width="2" stroke-linejoin="round" filter="url(#fuzzy)" /><polyline points="-23.03,-78.57 -21.36,-79.79 -19.98,-80.78 -19.04,-81.62 -18.27,-82.37 -17.38,-83.04 -16.15,-83.64 -14.49,-84.16 -12.45,-84.6 -10.17,-84.97 -7.78,-85.26 -5.38,-85.48 -2.99,-85.62 -0.57,-85.7 1.91,-85.71 4.49,-85.63 7.19,-85.49 10.03,-85.26 13.04,-84.96 16.2,-84.58 19.55,-84.13 23.09,-83.6 26.85,-82.99 30.83,-82.31 34.98,-81.55 39.21,-80.69 43.4,-79.74 47.48,-78.69 51.51,-77.53 55.63,-76.28 59.9,-74.96 64.03,-73.65 67.9,-72.66" fill="none" stroke="rgb(80, 68, 68)" stroke-width="2" stroke-linejoin="round" filter="url(#fuzzy)" /><polyline points="-28.55,-74.83 -29.84,-76.03 -29.11,-77.32 -27.46,-78.41 -25.52,-79.34 -23.68,-80.21 -22.04,-81.04 -20.5,-81.82 -18.95,-82.55 -17.32,-83.23 -15.57,-83.83 -13.7,-84.36 -11.71,-84.81 -9.59,-85.17 -7.35,-85.46 -4.97,-85.66 -2.45,-85.79 0.21,-85.85 2.99,-85.83 5.89,-85.76 8.88,-85.61 11.99,-85.39 15.26,-85.08 18.81,-84.66 22.68,-84.15 26.85,-83.56 31.22,-82.9 36.15,-82.15" fill="none" stroke="rgb(80, 68, 68)" stroke-width="2" stroke-linejoin="round" filter="url(#fuzzy)" /><polyline points="-29.24,-73.89 -28.46,-74.87 -27.1,-76.06 -26.03,-77.25 -25.61,-78.32 -25.75,-79.27 -26.05,-80.16 -26.01,-80.99 -25.32,-81.78 -23.9,-82.52 -21.92,-83.19 -19.6,-83.8 -17.15,-84.33 -14.66,-84.79 -12.11,-85.16 -9.45,-85.45 -6.61,-85.66 -3.59,-85.8 -0.4,-85.86 2.89,-85.85 6.18,-85.78 9.37,-85.64 12.46,-85.43 15.61,-85.13 19.13,-84.72 23.29,-84.21 27.85,-83.62 31.81,-82.99" fill="none" stroke="rgb(80, 68, 68)" stroke-width="2" stroke-linejoin="round" filter="url(#fuzzy)" /><polyline points="-29.69,-73.38 -28.67,-74.85 -27.44,-75.94 -26.33,-76.93 -25.26,-77.88 -24.08,-78.8 -22.77,-79.69 -21.37,-80.56 -19.91,-81.38 -18.4,-82.14 -16.8,-82.83 -15.08,-83.45 -13.25,-84 -11.32,-84.46 -9.33,-84.85 -7.31,-85.17 -5.29,-85.41 -3.26,-85.59 -1.2,-85.69 0.91,-85.72 3.08,-85.67 5.33,-85.55 7.67,-85.35 10.08,-85.07 12.55,-84.72 15.08,-84.29 17.64,-83.78 20.24,-83.2 22.82,-82.55 25.31,-81.84 27.66,-81.08 29.98,-80.22 32.18,-79.42" fill="none" stroke="rgb(80, 68, 68)" stroke-width="2" stroke-linejoin="round" filter="url(#fuzzy)" /><polyline points="-29.69,-73.38 -31.08,-74.85 -32.96,-75.93 -32.54,-76.91 -30.68,-77.86 -28.52,-78.77 -26.55,-79.67 -24.79,-80.53 -23.09,-81.35 -21.32,-82.12 -19.41,-82.82 -17.34,-83.44 -15.15,-83.99 -12.89,-84.47 -10.63,-84.87 -8.38,-85.2 -6.15,-85.45 -3.88,-85.64 -1.51,-85.76 0.99,-85.81 3.66,-85.78 6.53,-85.67 9.66,-85.49 13.11,-85.23 16.84,-84.91 20.59,-84.57 23.78,-84.23 25.51,-83.93" fill="none" stroke="rgb(80, 68, 68)" stroke-width="2" stroke-linejoin="round" filter="url(#fuzzy)" /><polyline points="-32.64,-70.57 -32.75,-72.89 -33.08,-74.52 -32.07,-75.77 -30.02,-76.84 -27.62,-77.82 -25.28,-78.76 -23.18,-79.66 -21.36,-80.53 -19.75,-81.34 -18.29,-82.11 -16.85,-82.8 -15.34,-83.42 -13.71,-83.97 -11.94,-84.44 -10.04,-84.84 -8.02,-85.15 -5.9,-85.4 -3.67,-85.58 -1.34,-85.68 1.08,-85.71 3.6,-85.67 6.21,-85.54 8.9,-85.34 11.68,-85.07 14.54,-84.72 17.48,-84.29 20.5,-83.79 23.6,-83.2 26.76,-82.55 29.94,-81.85 33.07,-81.08 36.16,-80.22 39.39,-79.42" fill="none" stroke="rgb(80, 68, 68)" stroke-width="2" stroke-linejoin="round" filter="url(#fuzzy)" /><polyline points="-32.94,-69.94 -32.02,-71.42 -31.9,-73.05 -32.45,-74.52 -32.66,-75.86 -32.17,-77.07 -31.06,-78.17 -29.47,-79.16 -27.54,-80.07 -25.39,-80.92 -23.12,-81.71 -20.84,-82.46 -18.61,-83.14 -16.45,-83.75 -14.32,-84.29 -12.19,-84.75 -10,-85.13 -7.72,-85.43 -5.31,-85.65 -2.76,-85.78 -0.09,-85.85 2.7,-85.84 5.58,-85.77 8.53,-85.64 11.53,-85.43 14.7,-85.13 18.2,-84.72 22.18,-84.21 26.54,-83.62 30.93,-82.99" fill="none" stroke="rgb(80, 68, 68)" stroke-width="2" stroke-linejoin="round" filter="url(#fuzzy)" /><polyline points="-40.59,-60.11 -39.9,-61.69 -39.84,-63.18 -40.21,-64.64 -40.31,-66.13 -40.16,-67.66 -40.1,-69.21 -40.31,-70.76 -40.67,-72.28 -40.87,-73.72 -40.64,-75.05 -39.82,-76.25 -38.45,-77.34 -36.63,-78.34 -34.5,-79.29 -32.18,-80.19 -29.75,-81.05 -27.33,-81.86 -25.02,-82.62 -22.89,-83.31 -20.96,-83.93 -19.01,-84.47 -16.59,-84.91 -13.43,-85.21" fill="none" stroke="rgb(80, 68, 68)" stroke-width="2" stroke-linejoin="round" filter="url(#fuzzy)" /><polyline points="-42.78,-56.77 -43.95,-57.84 -43.19,-59.25 -42.24,-61.05 -41.32,-63 -40.38,-64.91 -39.39,-66.69 -38.4,-68.33 -37.42,-69.86 -36.36,-71.32 -35.16,-72.73 -33.75,-74.09 -32.14,-75.39 -30.39,-76.62 -28.58,-77.76 -26.79,-78.81 -25.07,-79.78 -23.41,-80.68 -21.8,-81.51 -20.16,-82.27 -18.43,-82.97 -16.56,-83.61 -14.54,-84.17 -12.39,-84.66 -10.12,-85.06 -7.78,-85.39 -5.39,-85.63 -2.95,-85.79 -0.45,-85.87 2.13,-85.88 4.76,-85.82 7.38,-85.71 9.92,-85.53 12.47,-85.26 15.45,-84.84 19.56,-84.15" fill="none" stroke="rgb(80, 68, 68)" stroke-width="2" stroke-linejoin="round" filter="url(#fuzzy)" /><polyline points="-43.75,-54.81 -42.95,-56.39 -42.27,-57.73 -41.43,-59.21 -40.35,-60.94 -39.14,-62.81 -37.9,-64.68 -36.68,-66.45 -35.48,-68.09 -34.25,-69.61 -32.98,-71.06 -31.65,-72.46 -30.26,-73.84 -28.82,-75.18 -27.33,-76.45 -25.81,-77.62 -24.3,-78.69 -22.78,-79.65 -21.23,-80.55 -19.66,-81.39 -18.08,-82.17 -16.53,-82.89 -15.11,-83.6" fill="none" stroke="rgb(80, 68, 68)" stroke-width="2" stroke-linejoin="round" filter="url(#fuzzy)" /><polyline points="-45.32,-52.2 -40.52,-54.41 -39.07,-56.12 -38.49,-57.63 -37.92,-59.2 -37.14,-60.93 -36.1,-62.77 -34.83,-64.61 -33.43,-66.37 -32.02,-68.02 -30.64,-69.55 -29.28,-71.01 -27.86,-72.43 -26.28,-73.81 -24.54,-75.15 -22.69,-76.42 -20.85,-77.6 -19.11,-78.67 -17.51,-79.64 -15.99,-80.54 -14.45,-81.39 -12.88,-82.17 -11.37,-82.89 -10.05,-83.6" fill="none" stroke="rgb(80, 68, 68)" stroke-width="2" stroke-linejoin="round" filter="url(#fuzzy)" /><polyline points="-46.34,-49.84 -45.34,-52.15 -44.38,-54.22 -43.53,-56 -42.7,-57.64 -41.81,-59.31 -40.81,-61.08 -39.72,-62.9 -38.54,-64.71 -37.3,-66.46 -36,-68.11 -34.64,-69.68 -33.2,-71.16 -31.68,-72.59 -30.09,-73.96 -28.46,-75.27 -26.81,-76.5 -25.18,-77.65 -23.57,-78.71 -21.99,-79.7 -20.41,-80.61 -18.83,-81.45 -17.23,-82.22 -15.57,-82.94 -13.86,-83.59 -12.08,-84.16 -10.24,-84.66 -8.35,-85.07 -6.43,-85.41 -4.51,-85.66 -2.59,-85.83 -0.65,-85.91 1.33,-85.92 3.34,-85.87 5.26,-85.78 6.88,-85.63 8.32,-85.32" fill="none" stroke="rgb(80, 68, 68)" stroke-width="2" stroke-linejoin="round" filter="url(#fuzzy)" /><polyline points="-49.2,-43.35 -48.57,-45.95 -48.08,-48.21 -48.22,-50.47 -48.8,-52.68 -49.46,-54.82 -50.02,-56.86 -50.42,-58.8 -50.56,-60.64 -50.33,-62.39 -49.72,-64.06 -48.77,-65.68 -47.6,-67.26 -46.3,-68.82 -44.95,-70.38 -43.64,-71.9 -42.42,-73.37 -41.27,-74.74 -40.07,-76 -38.66,-77.13 -36.96,-78.16 -35.07,-79.12 -33.21,-80.05 -31.5,-80.94 -29.83,-81.78 -27.91,-82.52 -25.64,-83.27" fill="none" stroke="rgb(80, 68, 68)" stroke-width="2" stroke-linejoin="round" filter="url(#fuzzy)" /><polyline points="-48.92,-43.9 -48.53,-45.5 -48.31,-47.42 -48.37,-49.52 -48.77,-51.64 -49.46,-53.64 -50.14,-55.48 -50.51,-57.21 -50.31,-58.91 -49.5,-60.65 -48.24,-62.44 -46.76,-64.25 -45.33,-66.02 -44.09,-67.69 -43.04,-69.24 -42.04,-70.72 -40.88,-72.14 -39.43,-73.56 -37.72,-74.96 -35.95,-76.33 -34.43,-77.61 -33.38,-78.6 -33.31,-78.88" fill="none" stroke="rgb(80, 68, 68)" stroke-width="2" stroke-linejoin="round" filter="url(#fuzzy)" /><polyline points="-50.04,-41 -49.99,-43.35 -50.38,-45.36 -50.37,-47.38 -49.86,-49.48 -49.01,-51.56 -48.06,-53.55 -47.18,-55.41 -46.41,-57.16 -45.73,-58.89 -45.01,-60.65 -44.15,-62.44 -43.08,-64.24 -41.8,-66 -40.38,-67.67 -38.9,-69.24 -37.44,-70.73 -36.02,-72.16 -34.65,-73.58 -33.27,-74.97 -31.88,-76.31 -30.54,-77.55 -29.4,-78.6 -28.46,-79.45 -27.04,-80.51" fill="none" stroke="rgb(80, 68, 68)" stroke-width="2" stroke-linejoin="round" filter="url(#fuzzy)" /><polyline points="-50.04,-41 -49.15,-43.36 -48.4,-45.38 -47.67,-47.41 -46.89,-49.52 -46.02,-51.6 -45.07,-53.59 -44.08,-55.46 -43.06,-57.23 -41.99,-58.97 -40.83,-60.74 -39.59,-62.53 -38.27,-64.32 -36.91,-66.07 -35.55,-67.73 -34.19,-69.31 -32.82,-70.81 -31.41,-72.26 -29.93,-73.66 -28.4,-75.02 -26.82,-76.31 -25.24,-77.51 -23.68,-78.6 -22.15,-79.59 -20.63,-80.5 -19.13,-81.37 -17.59,-82.15 -15.74,-82.87" fill="none" stroke="rgb(80, 68, 68)" stroke-width="2" stroke-linejoin="round" filter="url(#fuzzy)" /><polyline points="54.65,-23.16 55.53,-20.72 56.81,-18.17 58.15,-15.6 58.97,-13.04 59.3,-10.49 59.52,-7.89 59.91,-5.22 60.56,-2.48 61.41,0.31 62.37,3.11 63.38,5.88 64.43,8.6 65.57,11.24 66.81,13.82 68.13,16.33 69.43,18.79 70.57,21.23 71.4,23.66 71.8,26.11 71.72,28.58 71.22,31.09 70.47,33.6 69.67,36.1 69.01,38.55 68.62,40.93 68.52,43.23 68.59,45.49 68.68,47.72 68.64,49.93 68.39,52.06 67.92,54.03 67.14,55.81 65.66,57.67 63.62,60.18" fill="none" stroke="rgb(80, 68, 68)" stroke-width="2" stroke-linejoin="round" filter="url(#fuzzy)" /><polyline points="-51.27,-37.16 -60.89,-40.92 -60.33,-43.51 -57.14,-45.8 -54.51,-48.02 -52.96,-50.23 -52.18,-52.42 -51.81,-54.54 -51.62,-56.58 -51.45,-58.54 -51.22,-60.4 -50.88,-62.16 -50.37,-63.84 -49.58,-65.45 -48.45,-67.02 -46.97,-68.58 -45.25,-70.15 -43.49,-71.72 -41.9,-73.26 -40.63,-74.71 -39.72,-76.01 -39.14,-77.11 -38.69,-78.01 -37.79,-78.57" fill="none" stroke="rgb(80, 68, 68)" stroke-width="2" stroke-linejoin="round" filter="url(#fuzzy)" /><polyline points="-51.27,-37.16 -50.5,-40.94 -50.81,-43.55 -50.97,-45.86 -50.69,-48.1 -50.05,-50.33 -49.21,-52.53 -48.3,-54.66 -47.43,-56.7 -46.64,-58.66 -45.88,-60.52 -45.05,-62.29 -44.04,-63.98 -42.78,-65.62 -41.27,-67.21 -39.58,-68.79 -37.84,-70.34 -36.12,-71.86 -34.51,-73.32 -33.01,-74.7 -31.61,-75.96 -30.28,-77.1 -28.95,-78.15 -27.57,-79.12 -26.05,-80.05 -24.33,-80.94 -22.43,-81.78 -20.51,-82.57 -18.64,-83.36 -16.36,-84.24" fill="none" stroke="rgb(80, 68, 68)" stroke-width="2" stroke-linejoin="round" filter="url(#fuzzy)" /><polyline points="-52.91,-31.98 -52.57,-30.23 -51.73,-28.05 -50.81,-25.55 -50.07,-22.91 -49.64,-20.22 -49.5,-17.52 -49.49,-14.82 -49.46,-12.13 -49.29,-9.48 -49.02,-6.89 -48.73,-4.33 -48.5,-1.79 -48.32,0.75 -48.07,3.31 -47.62,5.88 -46.87,8.45 -45.78,11.01 -44.41,13.56 -42.85,16.12 -41.2,18.7 -39.51,21.29 -37.8,23.89 -36.07,26.45 -34.34,28.96 -32.6,31.4 -30.9,33.77 -29.24,36.12 -27.62,38.48 -26.09,40.87 -24.75,43.27 -23.69,45.62 -22.84,47.84 -21.78,49.94 -19.93,52.07 -17.32,54.68" fill="none" stroke="rgb(80, 68, 68)" stroke-width="2" stroke-linejoin="round" filter="url(#fuzzy)" /><polyline points="-52.61,-32.08 -53.49,-29.75 -54.79,-27.2 -56.27,-24.62 -57.48,-22.07 -58.33,-19.57 -59.04,-17.02 -59.81,-14.39 -60.7,-11.68 -61.6,-8.95 -62.33,-6.26 -62.81,-3.65 -63.05,-1.12 -63.14,1.37 -63.2,3.86 -63.31,6.35 -63.51,8.89 -63.81,11.45 -64.18,14.03 -64.59,16.64 -64.97,19.25 -65.26,21.83 -65.44,24.38 -65.55,26.85 -65.7,29.24 -66.02,31.58 -66.53,33.93 -67.13,36.37 -67.56,38.91 -67.54,41.47 -67.1,43.89 -67.17,45.94" fill="none" stroke="rgb(80, 68, 68)" stroke-width="2" stroke-linejoin="round" filter="url(#fuzzy)" /><polyline points="53.75,-28.39 56.01,-25.09 59.74,-21.99 62.17,-19.11 62.99,-16.4 63.04,-13.77 63.09,-11.2 63.6,-8.66 64.79,-6.14 66.6,-3.64 68.79,-1.13 70.94,1.4 72.68,3.96 73.75,6.56 74.18,9.21 74.2,11.9 74.23,14.62 74.61,17.36 75.54,20.1 76.92,22.8 78.49,25.45 79.94,28 81.15,30.43 82.28,32.72 83.58,34.89 85.18,36.95 86.84,38.93 88.07,40.94 88.17,43.26 87.35,46.02" fill="none" stroke="rgb(80, 68, 68)" stroke-width="2" stroke-linejoin="round" filter="url(#fuzzy)" /><polyline points="43.91,-54.82 46.23,-53.07 47.11,-51.02 47.69,-48.81 48.36,-46.57 49.22,-44.35 50.34,-42.12 51.76,-39.87 53.45,-37.59 55.29,-35.29 57.17,-32.96 59,-30.58 60.74,-28.14 62.36,-25.6 63.83,-22.99 65.1,-20.33 66.11,-17.65 66.87,-14.99 67.48,-12.36 68.07,-9.78 68.78,-7.24 69.66,-4.72 70.62,-2.23 71.53,0.27 72.27,2.79 72.83,5.33 73.37,7.89 73.97,10.51 74.31,13.42 74.03,17.43" fill="none" stroke="rgb(80, 68, 68)" stroke-width="2" stroke-linejoin="round" filter="url(#fuzzy)" /><polyline points="43.91,-54.82 44.89,-53.06 45.94,-51 47.21,-48.77 48.81,-46.53 50.68,-44.29 52.57,-42.05 54.18,-39.78 55.37,-37.49 56.22,-35.17 56.98,-32.82 57.88,-30.42 59.1,-27.95 60.64,-25.39 62.39,-22.78 64.11,-20.12 65.59,-17.44 66.68,-14.78 67.36,-12.15 67.75,-9.56 68.06,-6.99 68.46,-4.45 69.07,-1.92 69.89,0.61 70.8,3.17 71.67,5.77 72.43,8.4 73.14,11.09 73.92,13.83 74.92,16.59 76.16,19.38 77.48,22.21 78.58,25.15 79.34,28.15 79.81,30.65" fill="none" stroke="rgb(80, 68, 68)" stroke-width="2" stroke-linejoin="round" filter="url(#fuzzy)" /><polyline points="40.1,-61.16 41.95,-59.29 46.6,-57.39 51.99,-55.42 55.91,-53.39 58.21,-51.3 59.97,-49.15 62.09,-46.97 64.76,-44.79 67.73,-42.59 70.67,-40.37 73.48,-38.12 76.36,-35.86 79.57,-33.59 83.21,-31.31 87.13,-28.96 91.08,-26.49 95.17,-23.88 100.03,-21.16 106.43,-18.42 114.28,-15.75 121.67,-12.95 123.7,-9.26" fill="none" stroke="rgb(80, 68, 68)" stroke-width="2" stroke-linejoin="round" filter="url(#fuzzy)" /><polyline points="30.84,-72.29 32.28,-70.94 34.04,-69.37 36.42,-67.65 39.32,-65.86 42.31,-64.01 44.99,-62.12 47.2,-60.22 49.12,-58.32 51.09,-56.43 53.36,-54.52 56.02,-52.56 58.95,-50.5 62.03,-48.32 65.23,-46.03 68.64,-43.64 72.38,-41.18 76.35,-38.71 80.17,-36.25 83.27,-33.88 85.25,-31.62 86.29,-29.46 87.39,-27.34 89.87,-25.16 94.16,-22.95 99.06,-20.73" fill="none" stroke="rgb(80, 68, 68)" stroke-width="2" stroke-linejoin="round" filter="url(#fuzzy)" /><polyline points="29.73,-73.28 30.8,-72.26 31.88,-70.88 32.65,-69.4 33.01,-67.9 33.01,-66.4 32.78,-64.85 32.45,-63.23 32.09,-61.5 31.81,-59.69 31.69,-57.78 31.84,-55.81 32.3,-53.78 33.05,-51.69 33.96,-49.56 34.93,-47.39 35.88,-45.2 36.74,-42.98 37.46,-40.74 37.95,-38.48 38.1,-36.2 37.81,-33.91 37.05,-31.61 35.86,-29.25 34.46,-26.77 33.18,-24.14 32.42,-21.36 32.21,-18.6 31.75,-16.13 29.86,-14.08" fill="none" stroke="rgb(80, 68, 68)" stroke-width="2" stroke-linejoin="round" filter="url(#fuzzy)" /><polyline points="22.18,-79.42 27.78,-77.88 31.5,-76.54 32.5,-75.2 32.75,-73.83 33.37,-72.43 34.7,-71.01 36.73,-69.56 39.34,-68.08 42.34,-66.58 45.53,-65.02 48.73,-63.4 51.78,-61.69 54.57,-59.9 57.11,-58.03 59.5,-56.08 61.98,-54.06 64.84,-51.99 68.31,-49.87 72.46,-47.71 77.14,-45.52 82.04,-43.31 86.81,-41.08 91.17,-38.81 94.87,-36.51 97.72,-34.24 99.71,-32.04 101.22,-29.9 103.44,-27.65 109.43,-24.82" fill="none" stroke="rgb(80, 68, 68)" stroke-width="2" stroke-linejoin="round" filter="url(#fuzzy)" /><polyline points="17.41,-81.83 20.74,-80.5 23.3,-79.47 25.09,-78.41 26.49,-77.23 27.82,-75.96 29.26,-74.67 30.86,-73.38 32.6,-72.08 34.45,-70.71 36.34,-69.26 38.24,-67.69 40.11,-66.02 41.89,-64.26 43.56,-62.43 45.09,-60.56 46.5,-58.67 47.86,-56.75 49.24,-54.81 50.73,-52.82 52.34,-50.74 54.03,-48.57 55.73,-46.29 57.35,-43.91 58.86,-41.45 60.3,-38.96 61.72,-36.47 63.18,-34.06 64.76,-31.77 66.46,-29.62 68.25,-27.5 70.01,-25.27 71.93,-23.16" fill="none" stroke="rgb(80, 68, 68)" stroke-width="2" stroke-linejoin="round" filter="url(#fuzzy)" /><polyline points="17.34,-82.15 18.74,-81.46 21.74,-80.51 25.58,-79.53 29.63,-78.47 33.37,-77.32 36.48,-76.08 38.93,-74.82 41.02,-73.56 43.27,-72.29 46.12,-70.98 49.78,-69.59 54.16,-68.08 59.05,-66.45 64.19,-64.71 69.29,-62.89 74.01,-61.02 78.06,-59.13 81.42,-57.27 84.62,-55.45 88.52,-53.67 93.42,-51.84 97.91,-49.86 98.79,-47.91" fill="none" stroke="rgb(80, 68, 68)" stroke-width="2" stroke-linejoin="round" filter="url(#fuzzy)" /><polyline points="17.34,-82.15 20.22,-81.46 22.96,-80.5 25.35,-79.5 27.27,-78.44 28.92,-77.27 30.47,-76.03 32,-74.76 33.58,-73.49 35.3,-72.2 37.22,-70.86 39.36,-69.43 41.75,-67.89 44.43,-66.24 47.51,-64.5 51.1,-62.68 55.23,-60.81 59.72,-58.93 64.28,-57.05 68.53,-55.17 72.28,-53.26 75.57,-51.26 78.73,-49.15 82.13,-46.88 85.95,-44.49 90.04,-42.08 94.49,-39.73 100.59,-37.03" fill="none" stroke="rgb(80, 68, 68)" stroke-width="2" stroke-linejoin="round" filter="url(#fuzzy)" /><polyline points="14.84,-82.99 16.93,-82.25 19.15,-81.42 21.6,-80.5 24.01,-79.51 26.17,-78.45 28.03,-77.29 29.7,-76.06 31.3,-74.81 32.95,-73.54 34.69,-72.24 36.56,-70.9 38.63,-69.48 40.94,-67.95 43.51,-66.31 46.34,-64.56 49.44,-62.75 52.81,-60.89 56.45,-59 60.22,-57.13 63.94,-55.25 67.42,-53.36 70.61,-51.39 73.66,-49.28 76.7,-46.99 79.7,-44.55 82.77,-42.18 85.97,-40.55" fill="none" stroke="rgb(80, 68, 68)" stroke-width="2" stroke-linejoin="round" filter="url(#fuzzy)" /><polyline points="11.65,-84.15 13.23,-83.62 14.9,-82.97 16.61,-82.22 18.32,-81.39 19.99,-80.48 21.63,-79.49 23.24,-78.42 24.82,-77.27 26.38,-76.06 27.9,-74.81 29.38,-73.53 30.8,-72.22 32.19,-70.85 33.56,-69.4 34.95,-67.86 36.35,-66.21 37.76,-64.47 39.17,-62.66 40.56,-60.8 41.9,-58.92 43.18,-57.02 44.39,-55.1 45.54,-53.14 46.66,-51.11 47.78,-48.97 48.89,-46.7 50,-44.31 51.06,-41.82 52.08,-39.25 53.06,-36.57 53.99,-33.92 54.72,-32.13" fill="none" stroke="rgb(80, 68, 68)" stroke-width="2" stroke-linejoin="round" filter="url(#fuzzy)" /><polyline points="2.67,-85.76 4.6,-85.78 5.94,-85.6 7.26,-85.27 8.61,-84.82 9.93,-84.28 11.18,-83.67 12.36,-82.99 13.42,-82.25 14.31,-81.43 14.95,-80.55 15.34,-79.59 15.54,-78.55 15.67,-77.43 15.89,-76.26 16.33,-75.04 17.07,-73.78 18.01,-72.5 18.98,-71.16 19.69,-69.76 19.96,-68.25 19.71,-66.64 19.03,-64.91 18.05,-63.1 16.84,-61.21 15.4,-59.31 13.76,-57.42 12.12,-55.59 10.73,-53.84 9.54,-52.03 8.02,-49.52" fill="none" stroke="rgb(80, 68, 68)" stroke-width="2" stroke-linejoin="round" filter="url(#fuzzy)" />
    </g>
    
        <g id="pointNose">
          <g id="rightNose"><circle r="1.072" cx="6.396000000000001" cy="23.278" stroke="black" fill="none" stroke-width="1.0" filter="url(#fuzzy)" /><circle r="1.504" cx="5.36" cy="22.686" stroke="black" fill="none" stroke-width="1.0" filter="url(#fuzzy)" /><circle r="1.478" cx="8.136" cy="26.086" stroke="black" fill="none" stroke-width="1.0" filter="url(#fuzzy)" /><circle r="1.746" cx="6.368" cy="25.654" stroke="black" fill="none" stroke-width="1.0" filter="url(#fuzzy)" /><circle r="2.082" cx="5.808" cy="23.054" stroke="black" fill="none" stroke-width="1.0" filter="url(#fuzzy)" /><circle r="2.958" cx="7.295999999999999" cy="25.226" stroke="black" fill="none" stroke-width="1.0" filter="url(#fuzzy)" /><circle r="1.888" cx="5.448" cy="23.726" stroke="black" fill="none" stroke-width="1.0" filter="url(#fuzzy)" /><circle r="1.646" cx="5.476" cy="24.558" stroke="black" fill="none" stroke-width="1.0" filter="url(#fuzzy)" /><circle r="1.718" cx="8.108" cy="22.354" stroke="black" fill="none" stroke-width="1.0" filter="url(#fuzzy)" /><circle r="2.51" cx="8.208" cy="24.362" stroke="black" fill="none" stroke-width="1.0" filter="url(#fuzzy)" /></g>
          <g id="leftNose"><circle r="2.168" cx="-7.438" cy="28.386" stroke="black" fill="none" stroke-width="1.0" filter="url(#fuzzy)" /><circle r="1.9300000000000002" cx="-8.282" cy="26.63" stroke="black" fill="none" stroke-width="1.0" filter="url(#fuzzy)" /><circle r="2.996" cx="-8.574" cy="26.593999999999998" stroke="black" fill="none" stroke-width="1.0" filter="url(#fuzzy)" /><circle r="1.494" cx="-7.097999999999999" cy="27.438" stroke="black" fill="none" stroke-width="1.0" filter="url(#fuzzy)" /><circle r="2.444" cx="-8.042" cy="25.694" stroke="black" fill="none" stroke-width="1.0" filter="url(#fuzzy)" /><circle r="2.1879999999999997" cx="-6.065999999999999" cy="27.281999999999996" stroke="black" fill="none" stroke-width="1.0" filter="url(#fuzzy)" /><circle r="2.58" cx="-7.7379999999999995" cy="24.894" stroke="black" fill="none" stroke-width="1.0" filter="url(#fuzzy)" /><circle r="1.6640000000000001" cx="-6.462" cy="24.99" stroke="black" fill="none" stroke-width="1.0" filter="url(#fuzzy)" /><circle r="2.282" cx="-8.102" cy="28.362" stroke="black" fill="none" stroke-width="1.0" filter="url(#fuzzy)" /><circle r="2.484" cx="-6.286" cy="28.657999999999998" stroke="black" fill="none" stroke-width="1.0" filter="url(#fuzzy)" /></g>
        </g>
      
    <g id="mouth">
      <polyline points="-18.22,46.06 -17.86,46.54 -17.5,47.04 -17.13,47.55 -16.77,48.07 -16.4,48.6 -16.03,49.13 -15.65,49.68 -15.28,50.24 -14.9,50.8 -14.52,51.36 -14.14,51.94 -13.76,52.51 -13.38,53.1 -12.99,53.68 -12.61,54.27 -12.22,54.86 -11.83,55.45 -11.44,56.03 -11.05,56.62 -10.66,57.21 -10.26,57.8 -9.87,58.38 -9.47,58.96 -9.07,59.53 -8.68,60.1 -8.28,60.66 -7.88,61.22 -7.48,61.76 -7.08,62.3 -6.68,62.83 -6.28,63.35 -5.88,63.86 -5.47,64.36 -5.07,64.85 -4.67,65.32 -4.27,65.78 -3.87,66.23 -3.46,66.66 -3.06,67.07 -2.66,67.47 -2.26,67.85 -1.86,68.21 -1.45,68.55 -1.05,68.87 -0.65,69.17 -0.25,69.45 0.15,69.71 0.54,69.95 0.94,70.16 1.34,70.35 1.73,70.51 2.13,70.64 2.52,70.75 2.92,70.84 3.31,70.89 3.7,70.91 4.09,70.91 4.48,70.87 4.86,70.81 5.25,70.71 5.63,70.58 6.02,70.41 6.4,70.21 6.78,69.98 7.15,69.71 7.53,69.4 7.9,69.05 8.27,68.67 8.64,68.25 9.01,67.79 9.37,67.28 9.74,66.74 10.1,66.15 10.46,65.53 10.81,64.85 11.17,64.14 11.52,63.38 11.86,62.57 12.21,61.72 12.55,60.82 12.89,59.87 13.23,58.87 13.56,57.82 13.89,56.72 14.22,55.57 14.55,54.37 14.87,53.12 15.19,51.81 15.5,50.45 15.81,49.03 16.12,47.56 16.43,46.03 16.73,44.44 17.03,42.8 17.32,41.1 17.61,39.33 17.9,37.51 18.18,35.63 18.46,33.68 18.73,31.67 18.46,33.68 18.18,35.63 17.9,37.51 17.61,39.33 17.32,41.1 17.03,42.8 16.73,44.44 16.43,46.03 16.12,47.56 15.81,49.03 15.5,50.45 15.19,51.81 14.87,53.12 14.55,54.37 14.22,55.57 13.89,56.72 13.56,57.82 13.23,58.87 12.89,59.87 12.55,60.82 12.21,61.72 11.86,62.57 11.52,63.38 11.17,64.14 10.81,64.85 10.46,65.53 10.1,66.15 9.74,66.74 9.37,67.28 9.01,67.79 8.64,68.25 8.27,68.67 7.9,69.05 7.53,69.4 7.15,69.71 6.78,69.98 6.4,70.21 6.02,70.41 5.63,70.58 5.25,70.71 4.86,70.81 4.48,70.87 4.09,70.91 3.7,70.91 3.31,70.89 2.92,70.84 2.52,70.75 2.13,70.64 1.73,70.51 1.34,70.35 0.94,70.16 0.54,69.95 0.15,69.71 -0.25,69.45 -0.65,69.17 -1.05,68.87 -1.45,68.55 -1.86,68.21 -2.26,67.85 -2.66,67.47 -3.06,67.07 -3.46,66.66 -3.87,66.23 -4.27,65.78 -4.67,65.32 -5.07,64.85 -5.47,64.36 -5.88,63.86 -6.28,63.35 -6.68,62.83 -7.08,62.3 -7.48,61.76 -7.88,61.22 -8.28,60.66 -8.68,60.1 -9.07,59.53 -9.47,58.96 -9.87,58.38 -10.26,57.8 -10.66,57.21 -11.05,56.62 -11.44,56.03 -11.83,55.45 -12.22,54.86 -12.61,54.27 -12.99,53.68 -13.38,53.1 -13.76,52.51 -14.14,51.94 -14.52,51.36 -14.9,50.8 -15.28,50.24 -15.65,49.68 -16.03,49.13 -16.4,48.6 -16.77,48.07 -17.13,47.55 -17.5,47.04 -17.86,46.54" fill="rgb(215,127,140)" stroke="black" stroke-width="3" stroke-linejoin="round" filter="url(#fuzzy)" />
    </g>
  </svg>
  