
  <svg viewBox="-100 -100 200 200" xmlns="http://www.w3.org/2000/svg" width="500" height="500" id="face-svg">
    <defs>
      <clipPath id="leftEyeClipPath">
        <polyline points="25.42,-1.9 25.3,-2.03 25.15,-2.16 24.97,-2.3 24.76,-2.45 24.51,-2.6 24.24,-2.75 23.94,-2.91 23.6,-3.07 23.24,-3.24 22.84,-3.4 22.42,-3.57 21.96,-3.74 21.48,-3.9 20.97,-4.07 20.43,-4.23 19.97,-4.46 19.45,-4.69 18.89,-4.91 18.28,-5.12 17.62,-5.33 16.92,-5.53 16.18,-5.72 15.39,-5.9 14.57,-6.07 13.71,-6.24 12.82,-6.39 11.9,-6.53 10.95,-6.66 9.98,-6.77 8.99,-6.88 7.98,-6.97 6.96,-7.04 5.92,-7.1 4.88,-7.15 3.84,-7.19 2.79,-7.21 1.74,-7.21 0.7,-7.21 -0.34,-7.18 -1.36,-7.15 -2.38,-7.09 -3.38,-7.03 -4.36,-6.95 -5.33,-6.86 -6.27,-6.75 -7.19,-6.63 -8.09,-6.5 -8.96,-6.36 -9.81,-6.2 -10.62,-6.04 -11.41,-5.86 -12.17,-5.67 -12.89,-5.47 -13.59,-5.26 -14.25,-5.04 -14.88,-4.81 -15.48,-4.57 -16.05,-4.33 -16.59,-4.08 -17.1,-3.82 -17.58,-3.55 -18.03,-3.28 -18.46,-3.01 -18.86,-2.73 -19.23,-2.44 -19.59,-2.16 -19.91,-1.86 -20.22,-1.56 -20.5,-1.26 -20.75,-0.95 -20.98,-0.63 -21.19,-0.32 -21.38,0.01 -21.55,0.33 -21.7,0.67 -21.83,1 -21.93,1.34 -22.02,1.68 -22.09,2.02 -21.96,5.07 -21.62,5.27 -21.28,5.46 -20.92,5.65 -20.55,5.84 -20.16,6.02 -19.77,6.2 -19.36,6.38 -18.94,6.55 -18.5,6.72 -18.06,6.87 -17.6,7.03 -17.12,7.17 -16.63,7.31 -16.13,7.44 -15.62,7.56 -15.09,7.68 -14.54,7.79 -13.98,7.89 -13.4,7.99 -12.8,8.07 -12.19,8.15 -11.56,8.21 -10.91,8.26 -10.25,8.3 -9.57,8.32 -8.88,8.33 -8.17,8.32 -7.44,8.31 -6.7,8.27 -5.94,8.22 -5.17,8.16 -4.39,8.08 -3.59,7.99 -2.79,7.88 -1.97,7.76 -1.15,7.63 -0.32,7.48 0.52,7.32 1.36,7.15 2.21,6.96 3.06,6.77 3.91,6.57 4.76,6.36 5.61,6.14 6.46,5.91 7.3,5.69 8.13,5.45 8.96,5.22 9.78,4.98 10.58,4.74 11.38,4.51 12.15,4.27 12.92,4.05 13.66,3.82 14.39,3.6 15.09,3.39 15.78,3.19 16.44,3 17.08,2.81 17.69,2.64 18.28,2.48 18.84,2.34 19.37,2.2 19.88,2.08 20.39,1.9 20.88,1.73 21.36,1.55 21.82,1.38 22.26,1.21 22.68,1.04 23.09,0.87 23.48,0.71 23.85,0.54 24.2,0.37 24.53,0.21 24.84,0.04 25.14,-0.13 25.41,-0.31 25.67,-0.49" />
      </clipPath>
      <clipPath id="rightEyeClipPath">
        <polyline points="-25.43,-0.59 -25.42,-0.77 -25.36,-0.97 -25.27,-1.18 -25.14,-1.39 -24.98,-1.61 -24.78,-1.83 -24.54,-2.05 -24.27,-2.28 -23.96,-2.52 -23.62,-2.75 -23.25,-2.98 -22.84,-3.22 -22.4,-3.45 -21.93,-3.68 -21.43,-3.91 -20.99,-4.22 -20.5,-4.52 -19.97,-4.82 -19.38,-5.11 -18.74,-5.4 -18.06,-5.67 -17.33,-5.93 -16.56,-6.18 -15.76,-6.42 -14.92,-6.64 -14.04,-6.85 -13.13,-7.04 -12.2,-7.22 -11.24,-7.39 -10.26,-7.53 -9.27,-7.66 -8.26,-7.77 -7.23,-7.87 -6.2,-7.94 -5.16,-8 -4.12,-8.04 -3.08,-8.07 -2.04,-8.07 -1.01,-8.06 0.01,-8.03 1.02,-7.99 2.02,-7.93 3.01,-7.85 3.97,-7.75 4.92,-7.64 5.85,-7.52 6.75,-7.38 7.63,-7.23 8.49,-7.06 9.32,-6.88 10.12,-6.69 10.9,-6.49 11.64,-6.28 12.36,-6.05 13.05,-5.82 13.71,-5.59 14.34,-5.34 14.95,-5.09 15.52,-4.83 16.07,-4.57 16.6,-4.3 17.09,-4.03 17.57,-3.75 18.02,-3.48 18.45,-3.2 18.85,-2.93 19.24,-2.64 19.61,-2.36 19.95,-2.08 20.28,-1.79 20.58,-1.5 20.87,-1.21 21.14,-0.92 21.39,-0.63 21.62,-0.34 21.84,-0.05 22.04,0.24 22.22,0.53 22.39,0.82 21.67,6.15 21.4,6.3 21.11,6.46 20.82,6.61 20.52,6.76 20.2,6.91 19.87,7.05 19.53,7.19 19.17,7.33 18.8,7.46 18.42,7.59 18.02,7.71 17.61,7.83 17.19,7.94 16.75,8.04 16.29,8.14 15.82,8.24 15.33,8.33 14.83,8.41 14.3,8.49 13.76,8.56 13.2,8.63 12.62,8.68 12.02,8.73 11.4,8.76 10.77,8.79 10.11,8.81 9.43,8.81 8.74,8.81 8.02,8.79 7.29,8.76 6.54,8.73 5.77,8.68 4.98,8.62 4.18,8.55 3.37,8.46 2.54,8.37 1.7,8.27 0.85,8.16 -0.01,8.03 -0.88,7.9 -1.76,7.76 -2.64,7.61 -3.52,7.46 -4.41,7.3 -5.3,7.13 -6.19,6.96 -7.07,6.78 -7.95,6.6 -8.82,6.41 -9.68,6.23 -10.54,6.04 -11.38,5.85 -12.21,5.65 -13.02,5.46 -13.81,5.28 -14.58,5.09 -15.34,4.9 -16.07,4.72 -16.77,4.54 -17.45,4.36 -18.1,4.19 -18.73,4.02 -19.32,3.86 -19.89,3.69 -20.45,3.49 -20.99,3.28 -21.51,3.06 -22.02,2.84 -22.51,2.62 -22.97,2.38 -23.42,2.14 -23.85,1.89 -24.25,1.64 -24.63,1.37 -25,1.09 -25.33,0.8 -25.65,0.5 -25.94,0.19 -26.21,-0.14" />
      </clipPath>
      <filter id="fuzzy">
        <feTurbulence id="turbulence" baseFrequency="0.05" numOctaves="3" type="noise" result="noise" />
        <feDisplacementMap in="SourceGraphic" in2="noise" scale="2" />
      </filter>
      <linearGradient id="rainbowGradient" x1="0%" y1="0%" x2="100%" y2="0%">
        <stop offset="0%" style="stop-color: rgb(167, 133, 106); stop-opacity: 1" />
        <stop offset="50%" style="stop-color: rgb(255, 127, 80); stop-opacity: 1" />
        <stop offset="100%" style="stop-color: rgb(220, 20, 60); stop-opacity: 1" />
      </linearGradient>
    </defs>
    <rect x="-100" y="-100" width="100%" height="100%" fill="rgb(255, 255, 240)" />
    <polyline id="faceContour" points="57.96,1.32 57.71,-0.49 57.77,3.37 57.86,3.01 57.72,5.55 57.72,5.88 57.66,7.47 57.25,9.98 57.42,8.97 57.13,11.61 56.97,12.7 56.82,14.14 56.79,14.36 57,13.86 56.44,17.55 56.34,18.05 56.28,18.76 55.79,20.78 55.09,23.47 55.35,23.2 54.84,24.7 54.62,26.12 54.06,27.6 54.28,27.49 53.65,29.5 53.23,31.15 52.97,31.37 52.61,32.19 52.41,33.16 51.51,36.07 51.86,34.42 51.16,36.53 51.58,35.76 50.45,38.65 50.06,39.59 49.05,41.26 48.42,42.89 48.76,42.39 47.76,44.47 47.24,45.19 46.66,46.2 45.87,47.64 45.65,48 44.93,49.39 45.03,49.49 43.95,51.32 43.81,51.19 42.67,52.98 42.53,53.31 40.62,55.83 41.7,54.56 39.81,57.02 39.21,57.66 38.43,58.82 38.63,58.36 38.21,58.94 36.33,61.38 36.11,61.46 34.69,62.86 35.14,62.42 33.5,64.15 33.2,64.34 33.71,63.71 32.05,65.43 30.13,66.92 29.8,67.42 29.74,67.45 29.55,67.41 28.04,68.61 26.63,69.85 25.06,70.93 24.92,71 24.02,71.31 22.57,72.4 22.39,72.42 22.46,72.54 20.54,73.59 21.22,73.13 19.89,73.77 17.73,74.71 17.43,74.92 16.08,75.67 15.93,75.54 15.95,75.69 13.77,76.24 13.24,76.57 12.03,76.83 11.5,77.27 11.12,77.31 10.09,77.46 9.33,77.49 8.03,77.79 7.23,77.92 5.36,78.19 5.38,78.17 6.21,78.15 4.28,78.47 2.45,78.62 2.42,78.72 0.04,78.64 0.14,78.47 -1.62,78.62 -2.11,78.56 -2.23,78.44 -4.31,78.4 -5.41,78.23 -5.14,78.39 -7.42,77.85 -6.89,78.01 -6.91,78.08 -8.63,77.57 -9.19,77.76 -10.66,77.43 -11.41,76.91 -12.14,76.76 -15.01,75.84 -15.21,75.96 -14.01,76.49 -16.3,75.63 -18.39,74.73 -19.01,74.32 -18.92,74.35 -18.83,74.36 -20.18,73.87 -21.83,72.87 -21.99,72.72 -22.01,72.74 -24.25,71.51 -23.69,71.71 -26.27,70.11 -25.72,70.3 -27.37,69.18 -27.39,69.17 -29.54,67.67 -30.05,67.28 -29.21,68.01 -31.51,65.95 -31.88,65.46 -32.7,64.9 -33.58,63.97 -33.66,63.95 -34.1,63.47 -34.68,62.75 -35.86,61.38 -36.42,60.85 -37.26,60.34 -37.98,59.44 -39.14,57.98 -40.21,56.45 -40.54,56.1 -40.41,56.07 -41.26,55.04 -42.73,53.01 -43.13,52.39 -42.66,52.9 -44.03,51.14 -44.61,50.32 -45.12,49.21 -45.41,48.96 -46.23,47.02 -46.59,46.41 -47.24,45.38 -48.5,42.7 -48.56,42.64 -48.97,41.9 -49.38,40.96 -49.84,39.7 -49.55,40.09 -50.85,37.42 -51.24,36.77 -51.42,35.73 -51.53,35.86 -52.3,33.63 -52.17,33.8 -53.17,31.08 -53.19,31.19 -54.14,28.32 -54.22,27.25 -54.38,26.4 -54.51,26.17 -55.04,24.2 -55.19,24.05 -55.41,22.06 -55.74,20.2 -55.91,20.36 -56.07,19.25 -56.49,15.74 -56.82,15.51 -57.04,13.86 -57.02,13.33 -57.05,13.15 -57.46,10.48 -57.68,7.31 -57.37,8.75 -57.73,7.46 -57.5,6.38 -57.63,5.75 -57.71,2.81 -57.83,1.58 -57.93,0.75 -57.81,0.11 -57.77,-2.08 -57.68,-2.74 -57.89,-3.33 -57.73,-4.17 -57.54,-6.3 -57.62,-9.02 -57.58,-8.33 -57.34,-11.38 -57.22,-11.17 -56.99,-13.25 -56.73,-15.7 -56.76,-15.28 -56.44,-17.93 -56.79,-15.37 -56.25,-17.93 -56.1,-19.29 -56.05,-19.71 -55.53,-21.58 -55.76,-21.31 -55.09,-23.77 -54.66,-25.41 -54.29,-26.77 -54.24,-27.09 -53.75,-29.36 -53.54,-30.12 -53.65,-29.58 -52.45,-32.95 -52.44,-33.13 -52.22,-33.79 -51.92,-34.79 -50.93,-37.1 -50.76,-38.2 -50.15,-39.66 -50.17,-39.15 -49.23,-41.48 -49.05,-41.83 -48.47,-42.96 -48.29,-43.52 -46.92,-45.9 -46.98,-45.76 -46.76,-46.69 -46.32,-47.08 -45.88,-47.67 -44.95,-49.37 -43.72,-51.6 -42.94,-53.13 -42.39,-53.81 -41.86,-54.44 -42.43,-53.85 -41.45,-54.75 -40.09,-56.78 -39.44,-57.76 -39.04,-58.34 -38.58,-58.73 -36.63,-61.09 -37.07,-60.67 -36.58,-61.08 -35.39,-62.48 -34.64,-63.18 -34.41,-63.35 -33.53,-64.2 -31.78,-65.88 -31.5,-65.93 -31.41,-65.94 -30.36,-67.25 -30.82,-66.78 -29.36,-67.81 -29,-68.46 -27.08,-69.5 -26.09,-70.1 -25.51,-70.72 -23.7,-71.94 -23.64,-72.12 -22.35,-72.58 -21.18,-73.42 -20.14,-73.69 -20.65,-73.58 -18.88,-74.5 -19.16,-74.27 -16.62,-75.43 -16.84,-75.4 -16.52,-75.55 -15.31,-76.12 -14.16,-76.33 -13.41,-76.62 -13.13,-76.72 -10.53,-77.6 -11.2,-77.19 -9.75,-77.78 -7.99,-78.21 -8.43,-78.02 -7.57,-78.15 -6.84,-78.12 -5.13,-78.45 -4.82,-78.58 -3.06,-78.52 -3.55,-78.51 -1.99,-78.66 -0.42,-78.86 1.13,-78.66 1.93,-78.92 1.72,-78.63 1.82,-78.69 4,-78.61 4.11,-78.75 5,-78.59 6.67,-78.16 6.94,-78.39 7.49,-78.12 9.37,-77.85 9.75,-77.71 10.48,-77.48 13.28,-76.89 13.55,-76.52 13.92,-76.6 13.67,-76.63 15.27,-75.93 16.23,-75.56 17.21,-75.22 17.62,-75.18 18.81,-74.54 19.2,-74.39 20.63,-73.64 21.39,-73.22 21.79,-73.06 22.97,-72.47 24.96,-71.22 23.64,-71.85 25.52,-70.75 25.8,-70.64 26.99,-69.49 28.83,-68.22 29.54,-67.77 29.76,-67.48 30.08,-67.32 31.32,-66.27 31.23,-66.08 33.6,-64.11 33.43,-64.04 33.83,-64.09 34.21,-63.45 35.56,-62.02 36.62,-61.18 37.57,-59.84 37.52,-60.17 37.55,-59.84 38.6,-58.92 39.02,-58.17 40.3,-56.31 39.95,-56.98 41.88,-54.6 43.23,-52.46 42.81,-52.97 43.12,-52.38 44.86,-49.96 45.55,-48.68 44.98,-49.76 45.59,-48.79 46.3,-47.19 46.64,-46.21 47.18,-45.76 47.38,-45.12 47.96,-43.81 49.2,-41.61 49.36,-40.87 49.5,-40.72 51.09,-37.17 51.11,-37.29 51.21,-36.2 51.52,-35.65 52.53,-33.14 52.48,-33.2 52.94,-32 52.89,-31.74 52.91,-31.65 54.2,-27.81 54.25,-27.72 54.85,-25.64 54.84,-25.15 54.91,-24.48 55.29,-23.02 55.68,-21.4 56.05,-19.65 55.88,-19.57 56.13,-18.53 56.62,-15.38 56.56,-16.94 56.99,-13.86 57.12,-13.53 57.14,-10.9 57.13,-12.09 57.66,-7.91 57.51,-7.86 57.6,-7 57.85,-5.45 57.71,-6.37 57.8,-2.82 57.83,-3.24 57.67,-2.11 57.96,1.32 57.71,-0.49" fill="rgb(205, 92, 92)" stroke="black" stroke-width="1.6666666666666665" stroke-linejoin="round" filter="url(#fuzzy)" />
    <g transform="translate(26.58 -24.47)">
      <polyline id="rightCountour" points="-25.43,-0.59 -25.42,-0.77 -25.36,-0.97 -25.27,-1.18 -25.14,-1.39 -24.98,-1.61 -24.78,-1.83 -24.54,-2.05 -24.27,-2.28 -23.96,-2.52 -23.62,-2.75 -23.25,-2.98 -22.84,-3.22 -22.4,-3.45 -21.93,-3.68 -21.43,-3.91 -20.99,-4.22 -20.5,-4.52 -19.97,-4.82 -19.38,-5.11 -18.74,-5.4 -18.06,-5.67 -17.33,-5.93 -16.56,-6.18 -15.76,-6.42 -14.92,-6.64 -14.04,-6.85 -13.13,-7.04 -12.2,-7.22 -11.24,-7.39 -10.26,-7.53 -9.27,-7.66 -8.26,-7.77 -7.23,-7.87 -6.2,-7.94 -5.16,-8 -4.12,-8.04 -3.08,-8.07 -2.04,-8.07 -1.01,-8.06 0.01,-8.03 1.02,-7.99 2.02,-7.93 3.01,-7.85 3.97,-7.75 4.92,-7.64 5.85,-7.52 6.75,-7.38 7.63,-7.23 8.49,-7.06 9.32,-6.88 10.12,-6.69 10.9,-6.49 11.64,-6.28 12.36,-6.05 13.05,-5.82 13.71,-5.59 14.34,-5.34 14.95,-5.09 15.52,-4.83 16.07,-4.57 16.6,-4.3 17.09,-4.03 17.57,-3.75 18.02,-3.48 18.45,-3.2 18.85,-2.93 19.24,-2.64 19.61,-2.36 19.95,-2.08 20.28,-1.79 20.58,-1.5 20.87,-1.21 21.14,-0.92 21.39,-0.63 21.62,-0.34 21.84,-0.05 22.04,0.24 22.22,0.53 22.39,0.82 21.67,6.15 21.4,6.3 21.11,6.46 20.82,6.61 20.52,6.76 20.2,6.91 19.87,7.05 19.53,7.19 19.17,7.33 18.8,7.46 18.42,7.59 18.02,7.71 17.61,7.83 17.19,7.94 16.75,8.04 16.29,8.14 15.82,8.24 15.33,8.33 14.83,8.41 14.3,8.49 13.76,8.56 13.2,8.63 12.62,8.68 12.02,8.73 11.4,8.76 10.77,8.79 10.11,8.81 9.43,8.81 8.74,8.81 8.02,8.79 7.29,8.76 6.54,8.73 5.77,8.68 4.98,8.62 4.18,8.55 3.37,8.46 2.54,8.37 1.7,8.27 0.85,8.16 -0.01,8.03 -0.88,7.9 -1.76,7.76 -2.64,7.61 -3.52,7.46 -4.41,7.3 -5.3,7.13 -6.19,6.96 -7.07,6.78 -7.95,6.6 -8.82,6.41 -9.68,6.23 -10.54,6.04 -11.38,5.85 -12.21,5.65 -13.02,5.46 -13.81,5.28 -14.58,5.09 -15.34,4.9 -16.07,4.72 -16.77,4.54 -17.45,4.36 -18.1,4.19 -18.73,4.02 -19.32,3.86 -19.89,3.69 -20.45,3.49 -20.99,3.28 -21.51,3.06 -22.02,2.84 -22.51,2.62 -22.97,2.38 -23.42,2.14 -23.85,1.89 -24.25,1.64 -24.63,1.37 -25,1.09 -25.33,0.8 -25.65,0.5 -25.94,0.19 -26.21,-0.14" fill="white" stroke="white" stroke-width="0" stroke-linejoin="round" filter="url(#fuzzy)" />
    </g>
    <g transform="translate(-21.03 -25.56)">
      <polyline id="leftCountour" points="25.42,-1.9 25.3,-2.03 25.15,-2.16 24.97,-2.3 24.76,-2.45 24.51,-2.6 24.24,-2.75 23.94,-2.91 23.6,-3.07 23.24,-3.24 22.84,-3.4 22.42,-3.57 21.96,-3.74 21.48,-3.9 20.97,-4.07 20.43,-4.23 19.97,-4.46 19.45,-4.69 18.89,-4.91 18.28,-5.12 17.62,-5.33 16.92,-5.53 16.18,-5.72 15.39,-5.9 14.57,-6.07 13.71,-6.24 12.82,-6.39 11.9,-6.53 10.95,-6.66 9.98,-6.77 8.99,-6.88 7.98,-6.97 6.96,-7.04 5.92,-7.1 4.88,-7.15 3.84,-7.19 2.79,-7.21 1.74,-7.21 0.7,-7.21 -0.34,-7.18 -1.36,-7.15 -2.38,-7.09 -3.38,-7.03 -4.36,-6.95 -5.33,-6.86 -6.27,-6.75 -7.19,-6.63 -8.09,-6.5 -8.96,-6.36 -9.81,-6.2 -10.62,-6.04 -11.41,-5.86 -12.17,-5.67 -12.89,-5.47 -13.59,-5.26 -14.25,-5.04 -14.88,-4.81 -15.48,-4.57 -16.05,-4.33 -16.59,-4.08 -17.1,-3.82 -17.58,-3.55 -18.03,-3.28 -18.46,-3.01 -18.86,-2.73 -19.23,-2.44 -19.59,-2.16 -19.91,-1.86 -20.22,-1.56 -20.5,-1.26 -20.75,-0.95 -20.98,-0.63 -21.19,-0.32 -21.38,0.01 -21.55,0.33 -21.7,0.67 -21.83,1 -21.93,1.34 -22.02,1.68 -22.09,2.02 -21.96,5.07 -21.62,5.27 -21.28,5.46 -20.92,5.65 -20.55,5.84 -20.16,6.02 -19.77,6.2 -19.36,6.38 -18.94,6.55 -18.5,6.72 -18.06,6.87 -17.6,7.03 -17.12,7.17 -16.63,7.31 -16.13,7.44 -15.62,7.56 -15.09,7.68 -14.54,7.79 -13.98,7.89 -13.4,7.99 -12.8,8.07 -12.19,8.15 -11.56,8.21 -10.91,8.26 -10.25,8.3 -9.57,8.32 -8.88,8.33 -8.17,8.32 -7.44,8.31 -6.7,8.27 -5.94,8.22 -5.17,8.16 -4.39,8.08 -3.59,7.99 -2.79,7.88 -1.97,7.76 -1.15,7.63 -0.32,7.48 0.52,7.32 1.36,7.15 2.21,6.96 3.06,6.77 3.91,6.57 4.76,6.36 5.61,6.14 6.46,5.91 7.3,5.69 8.13,5.45 8.96,5.22 9.78,4.98 10.58,4.74 11.38,4.51 12.15,4.27 12.92,4.05 13.66,3.82 14.39,3.6 15.09,3.39 15.78,3.19 16.44,3 17.08,2.81 17.69,2.64 18.28,2.48 18.84,2.34 19.37,2.2 19.88,2.08 20.39,1.9 20.88,1.73 21.36,1.55 21.82,1.38 22.26,1.21 22.68,1.04 23.09,0.87 23.48,0.71 23.85,0.54 24.2,0.37 24.53,0.21 24.84,0.04 25.14,-0.13 25.41,-0.31 25.67,-0.49" fill="white" stroke="white" stroke-width="0" stroke-linejoin="round" filter="url(#fuzzy)" />
    </g>
    <g transform="translate(26.58 -24.47)">
      <polyline id="rightUpper" points="-23.62,0.53 -23.95,0.5 -24.26,0.45 -24.53,0.38 -24.76,0.29 -24.97,0.18 -25.13,0.05 -25.26,-0.09 -25.36,-0.24 -25.41,-0.41 -25.43,-0.59 -25.42,-0.77 -25.36,-0.97 -25.27,-1.18 -25.14,-1.39 -24.98,-1.61 -24.78,-1.83 -24.54,-2.05 -24.27,-2.28 -23.96,-2.52 -23.62,-2.75 -23.25,-2.98 -22.84,-3.22 -22.4,-3.45 -21.93,-3.68 -21.43,-3.91 -20.99,-4.22 -20.5,-4.52 -19.97,-4.82 -19.38,-5.11 -18.74,-5.4 -18.06,-5.67 -17.33,-5.93 -16.56,-6.18 -15.76,-6.42 -14.92,-6.64 -14.04,-6.85 -13.13,-7.04 -12.2,-7.22 -11.24,-7.39 -10.26,-7.53 -9.27,-7.66 -8.26,-7.77 -7.23,-7.87 -6.2,-7.94 -5.16,-8 -4.12,-8.04 -3.08,-8.07 -2.04,-8.07 -1.01,-8.06 0.01,-8.03 1.02,-7.99 2.02,-7.93 3.01,-7.85 3.97,-7.75 4.92,-7.64 5.85,-7.52 6.75,-7.38 7.63,-7.23 8.49,-7.06 9.32,-6.88 10.12,-6.69 10.9,-6.49 11.64,-6.28 12.36,-6.05 13.05,-5.82 13.71,-5.59 14.34,-5.34 14.95,-5.09 15.52,-4.83 16.07,-4.57 16.6,-4.3 17.09,-4.03 17.57,-3.75 18.02,-3.48 18.45,-3.2 18.85,-2.93 19.24,-2.64 19.61,-2.36 19.95,-2.08 20.28,-1.79 20.58,-1.5 20.87,-1.21 21.14,-0.92 21.39,-0.63 21.62,-0.34 21.84,-0.05 22.04,0.24 22.22,0.53 22.39,0.82 22.55,1.11 22.69,1.39 22.82,1.68 22.94,1.96 23.04,2.24 23.14,2.52 23.22,2.8 23.29,3.08 23.36,3.35 23.41,3.62" fill="none" stroke="black" stroke-width="1.6666666666666665" stroke-linejoin="round" filter="url(#fuzzy)" />
      <polyline id="rightLower" points="-27.56,-4.53 -27.53,-3.98 -27.48,-3.46 -27.41,-2.96 -27.31,-2.49 -27.19,-2.05 -27.04,-1.63 -26.87,-1.23 -26.67,-0.85 -26.45,-0.49 -26.21,-0.14 -25.94,0.19 -25.65,0.5 -25.33,0.8 -25,1.09 -24.63,1.37 -24.25,1.64 -23.85,1.89 -23.42,2.14 -22.97,2.38 -22.51,2.62 -22.02,2.84 -21.51,3.06 -20.99,3.28 -20.45,3.49 -19.89,3.69 -19.32,3.86 -18.73,4.02 -18.1,4.19 -17.45,4.36 -16.77,4.54 -16.07,4.72 -15.34,4.9 -14.58,5.09 -13.81,5.28 -13.02,5.46 -12.21,5.65 -11.38,5.85 -10.54,6.04 -9.68,6.23 -8.82,6.41 -7.95,6.6 -7.07,6.78 -6.19,6.96 -5.3,7.13 -4.41,7.3 -3.52,7.46 -2.64,7.61 -1.76,7.76 -0.88,7.9 -0.01,8.03 0.85,8.16 1.7,8.27 2.54,8.37 3.37,8.46 4.18,8.55 4.98,8.62 5.77,8.68 6.54,8.73 7.29,8.76 8.02,8.79 8.74,8.81 9.43,8.81 10.11,8.81 10.77,8.79 11.4,8.76 12.02,8.73 12.62,8.68 13.2,8.63 13.76,8.56 14.3,8.49 14.83,8.41 15.33,8.33 15.82,8.24 16.29,8.14 16.75,8.04 17.19,7.94 17.61,7.83 18.02,7.71 18.42,7.59 18.8,7.46 19.17,7.33 19.53,7.19 19.87,7.05 20.2,6.91 20.52,6.76 20.82,6.61 21.11,6.46 21.4,6.3 21.67,6.15 21.93,5.99 22.18,5.83 22.41,5.67 22.64,5.51 22.86,5.34 23.07,5.18 23.27,5.02 23.47,4.85 23.65,4.69 23.83,4.52" fill="none" stroke="black" stroke-width="2.2222222222222223" stroke-linejoin="round" filter="url(#fuzzy)" />
      <circle r="3.922" cx="-8.631822027890104" cy="-4.398635790633415" stroke="black" fill="none" stroke-width="1.0" filter="url(#fuzzy)" clip-path="url(#rightEyeClipPath)" /><circle r="3.346" cx="-10.426822027890104" cy="-5.158635790633415" stroke="black" fill="none" stroke-width="1.0" filter="url(#fuzzy)" clip-path="url(#rightEyeClipPath)" /><circle r="4.818" cx="-9.496822027890104" cy="-3.338635790633415" stroke="black" fill="none" stroke-width="1.0" filter="url(#fuzzy)" clip-path="url(#rightEyeClipPath)" /><circle r="4.014" cx="-8.486822027890103" cy="-5.078635790633415" stroke="black" fill="none" stroke-width="1.0" filter="url(#fuzzy)" clip-path="url(#rightEyeClipPath)" /><circle r="4.218" cx="-8.576822027890104" cy="-0.4536357906334154" stroke="black" fill="none" stroke-width="1.0" filter="url(#fuzzy)" clip-path="url(#rightEyeClipPath)" /><circle r="4.352" cx="-6.886822027890103" cy="-1.973635790633415" stroke="black" fill="none" stroke-width="1.0" filter="url(#fuzzy)" clip-path="url(#rightEyeClipPath)" /><circle r="4.384" cx="-9.536822027890103" cy="-3.9736357906334154" stroke="black" fill="none" stroke-width="1.0" filter="url(#fuzzy)" clip-path="url(#rightEyeClipPath)" /><circle r="4.3740000000000006" cx="-9.416822027890102" cy="-0.4086357906334155" stroke="black" fill="none" stroke-width="1.0" filter="url(#fuzzy)" clip-path="url(#rightEyeClipPath)" /><circle r="3.842" cx="-10.391822027890104" cy="-2.558635790633415" stroke="black" fill="none" stroke-width="1.0" filter="url(#fuzzy)" clip-path="url(#rightEyeClipPath)" /><circle r="3.558" cx="-9.966822027890103" cy="-1.4536357906334154" stroke="black" fill="none" stroke-width="1.0" filter="url(#fuzzy)" clip-path="url(#rightEyeClipPath)" />
      </g>
    <g transform="translate(-21.03 -25.56)">
      <polyline id="leftUpper" points="25.1,-1.3 25.24,-1.29 25.36,-1.3 25.46,-1.33 25.53,-1.37 25.58,-1.43 25.61,-1.5 25.6,-1.59 25.57,-1.68 25.51,-1.79 25.42,-1.9 25.3,-2.03 25.15,-2.16 24.97,-2.3 24.76,-2.45 24.51,-2.6 24.24,-2.75 23.94,-2.91 23.6,-3.07 23.24,-3.24 22.84,-3.4 22.42,-3.57 21.96,-3.74 21.48,-3.9 20.97,-4.07 20.43,-4.23 19.97,-4.46 19.45,-4.69 18.89,-4.91 18.28,-5.12 17.62,-5.33 16.92,-5.53 16.18,-5.72 15.39,-5.9 14.57,-6.07 13.71,-6.24 12.82,-6.39 11.9,-6.53 10.95,-6.66 9.98,-6.77 8.99,-6.88 7.98,-6.97 6.96,-7.04 5.92,-7.1 4.88,-7.15 3.84,-7.19 2.79,-7.21 1.74,-7.21 0.7,-7.21 -0.34,-7.18 -1.36,-7.15 -2.38,-7.09 -3.38,-7.03 -4.36,-6.95 -5.33,-6.86 -6.27,-6.75 -7.19,-6.63 -8.09,-6.5 -8.96,-6.36 -9.81,-6.2 -10.62,-6.04 -11.41,-5.86 -12.17,-5.67 -12.89,-5.47 -13.59,-5.26 -14.25,-5.04 -14.88,-4.81 -15.48,-4.57 -16.05,-4.33 -16.59,-4.08 -17.1,-3.82 -17.58,-3.55 -18.03,-3.28 -18.46,-3.01 -18.86,-2.73 -19.23,-2.44 -19.59,-2.16 -19.91,-1.86 -20.22,-1.56 -20.5,-1.26 -20.75,-0.95 -20.98,-0.63 -21.19,-0.32 -21.38,0.01 -21.55,0.33 -21.7,0.67 -21.83,1 -21.93,1.34 -22.02,1.68 -22.09,2.02 -22.15,2.37 -22.19,2.72 -22.21,3.07 -22.21,3.43 -22.21,3.79 -22.18,4.15 -22.14,4.51 -22.09,4.87 -22.03,5.24 -21.96,5.6" fill="none" stroke="black" stroke-width="2.2222222222222223" stroke-linejoin="round" filter="url(#fuzzy)" />
      <polyline id="leftLower" points="27.15,-2.73 27.08,-2.45 27,-2.18 26.9,-1.93 26.78,-1.7 26.64,-1.47 26.49,-1.26 26.31,-1.06 26.12,-0.86 25.9,-0.67 25.67,-0.49 25.41,-0.31 25.14,-0.13 24.84,0.04 24.53,0.21 24.2,0.37 23.85,0.54 23.48,0.71 23.09,0.87 22.68,1.04 22.26,1.21 21.82,1.38 21.36,1.55 20.88,1.73 20.39,1.9 19.88,2.08 19.37,2.2 18.84,2.34 18.28,2.48 17.69,2.64 17.08,2.81 16.44,3 15.78,3.19 15.09,3.39 14.39,3.6 13.66,3.82 12.92,4.05 12.15,4.27 11.38,4.51 10.58,4.74 9.78,4.98 8.96,5.22 8.13,5.45 7.3,5.69 6.46,5.91 5.61,6.14 4.76,6.36 3.91,6.57 3.06,6.77 2.21,6.96 1.36,7.15 0.52,7.32 -0.32,7.48 -1.15,7.63 -1.97,7.76 -2.79,7.88 -3.59,7.99 -4.39,8.08 -5.17,8.16 -5.94,8.22 -6.7,8.27 -7.44,8.31 -8.17,8.32 -8.88,8.33 -9.57,8.32 -10.25,8.3 -10.91,8.26 -11.56,8.21 -12.19,8.15 -12.8,8.07 -13.4,7.99 -13.98,7.89 -14.54,7.79 -15.09,7.68 -15.62,7.56 -16.13,7.44 -16.63,7.31 -17.12,7.17 -17.6,7.03 -18.06,6.87 -18.5,6.72 -18.94,6.55 -19.36,6.38 -19.77,6.2 -20.16,6.02 -20.55,5.84 -20.92,5.65 -21.28,5.46 -21.62,5.27 -21.96,5.07 -22.28,4.87 -22.6,4.67 -22.9,4.47 -23.19,4.27 -23.47,4.07 -23.74,3.86 -24.01,3.66 -24.26,3.46 -24.5,3.25 -24.74,3.05" fill="none" stroke="black" stroke-width="2.2222222222222223" stroke-linejoin="round" filter="url(#fuzzy)" />
      <circle r="4.728" cx="-18.325420312988342" cy="1.7690175505922223" stroke="black" fill="none" stroke-width="1.0" filter="url(#fuzzy)" clip-path="url(#leftEyeClipPath)" /><circle r="4.962" cx="-20.975420312988344" cy="0.3490175505922224" stroke="black" fill="none" stroke-width="1.0" filter="url(#fuzzy)" clip-path="url(#leftEyeClipPath)" /><circle r="4.426" cx="-20.210420312988344" cy="-0.6309824494077778" stroke="black" fill="none" stroke-width="1.0" filter="url(#fuzzy)" clip-path="url(#leftEyeClipPath)" /><circle r="3.186" cx="-20.645420312988342" cy="1.614017550592222" stroke="black" fill="none" stroke-width="1.0" filter="url(#fuzzy)" clip-path="url(#leftEyeClipPath)" /><circle r="4.462" cx="-21.070420312988343" cy="2.5140175505922215" stroke="black" fill="none" stroke-width="1.0" filter="url(#fuzzy)" clip-path="url(#leftEyeClipPath)" /><circle r="4.12" cx="-19.070420312988343" cy="0.4240175505922221" stroke="black" fill="none" stroke-width="1.0" filter="url(#fuzzy)" clip-path="url(#leftEyeClipPath)" /><circle r="3.566" cx="-21.475420312988344" cy="3.2290175505922214" stroke="black" fill="none" stroke-width="1.0" filter="url(#fuzzy)" clip-path="url(#leftEyeClipPath)" /><circle r="3.964" cx="-19.395420312988342" cy="1.6040175505922223" stroke="black" fill="none" stroke-width="1.0" filter="url(#fuzzy)" clip-path="url(#leftEyeClipPath)" /><circle r="4.46" cx="-21.335420312988344" cy="-0.550982449407778" stroke="black" fill="none" stroke-width="1.0" filter="url(#fuzzy)" clip-path="url(#leftEyeClipPath)" /><circle r="4.664" cx="-18.385420312988344" cy="2.909017550592223" stroke="black" fill="none" stroke-width="1.0" filter="url(#fuzzy)" clip-path="url(#leftEyeClipPath)" />
    </g>
    <g id="hairs">
      <polyline points="20.63,-73.64 21.11,-73.26 21.29,-72.78 21.1,-72.16 20.42,-71.46 19.21,-70.69 17.51,-69.82 15.32,-68.81 12.61,-67.68 9.31,-66.45 5.33,-65.13 0.62,-63.74 -4.83,-62.23 -11.02,-60.56 -17.91,-58.75 -25.44,-56.94 -33.55,-55.34" fill="none" stroke="rgb(185, 55, 55)" stroke-width="2" stroke-linejoin="round" filter="url(#fuzzy)" /><polyline points="51.52,-35.65 51.91,-34.19 51.46,-33.79 50.36,-33.9 48.7,-34.3 46.49,-34.91 43.69,-35.8 40.24,-37.06 36.08,-38.81 31.19,-41.08 25.57,-43.87 19.19,-47.14 12.03,-50.9 4.04,-55.15 -4.81,-59.95 -14.56,-65.24" fill="none" stroke="rgb(185, 55, 55)" stroke-width="2" stroke-linejoin="round" filter="url(#fuzzy)" /><polyline points="-31.5,-65.93 -31.1,-66.26 -30.36,-66.77 -29.34,-67.35 -28.02,-68.02 -26.42,-68.78 -24.63,-69.59 -22.72,-70.41 -20.75,-71.21 -18.75,-71.98 -16.74,-72.7 -14.77,-73.37 -12.86,-74 -11.03,-74.58 -9.29,-75.13 -7.62,-75.66 -6.02,-76.17 -4.51,-76.65 -3.1,-77.11 -1.83,-77.53 -0.72,-77.9 0.21,-78.21 0.93,-78.46" fill="none" stroke="rgb(185, 55, 55)" stroke-width="2" stroke-linejoin="round" filter="url(#fuzzy)" /><polyline points="22.97,-72.47 24.09,-71.68 24.83,-71.02 25.8,-70.15 27.01,-69.06 28.37,-67.81 29.76,-66.5 31.11,-65.2 32.4,-63.93 33.64,-62.67 34.85,-61.42 36.04,-60.18 37.19,-58.97 38.27,-57.84 39.26,-56.8 40.13,-55.88 40.86,-55.12 41.44,-54.56 41.87,-54.18 42.13,-54.01" fill="none" stroke="rgb(185, 55, 55)" stroke-width="2" stroke-linejoin="round" filter="url(#fuzzy)" /><polyline points="33.43,-64.04 33.9,-63.77 34.63,-63.04 35.51,-62.13 36.34,-61.24 37.04,-60.48 37.61,-59.85 38.08,-59.3 38.5,-58.79 38.87,-58.32 39.19,-57.89 39.42,-57.55 39.5,-57.38 39.37,-57.43 38.99,-57.76 38.36,-58.38 37.51,-59.27 36.41,-60.45 34.98,-62.02 33.15,-64.06" fill="none" stroke="rgb(185, 55, 55)" stroke-width="2" stroke-linejoin="round" filter="url(#fuzzy)" /><polyline points="-16.62,-75.43 -16.47,-75.44 -15.65,-75.5 -14.38,-75.53 -12.82,-75.48 -11.05,-75.35 -9.11,-75.13 -7.03,-74.83 -4.85,-74.46 -2.58,-74.01 -0.26,-73.51 2.12,-72.96 4.54,-72.37 7.02,-71.75 9.55,-71.11 12.12,-70.44 14.72,-69.73 17.34,-68.99 19.96,-68.22 22.54,-67.46 24.98,-66.76 27.22,-66.16 29.26,-65.63 31.26,-65.01" fill="none" stroke="rgb(185, 55, 55)" stroke-width="2" stroke-linejoin="round" filter="url(#fuzzy)" /><polyline points="-20.14,-73.69 -20.02,-73.84 -19.4,-74.17 -18.7,-74.49 -18.09,-74.75 -17.62,-74.93 -17.3,-74.99 -17.12,-74.96 -17.06,-74.82 -17.16,-74.57 -17.43,-74.2 -17.94,-73.7 -18.71,-73.03 -19.8,-72.18 -21.24,-71.11 -23.06,-69.82 -25.24,-68.3 -27.76,-66.57 -30.59,-64.67 -33.65,-62.73" fill="none" stroke="rgb(185, 55, 55)" stroke-width="2" stroke-linejoin="round" filter="url(#fuzzy)" /><polyline points="33.43,-64.04 33.81,-63.86 34.25,-63.36 34.65,-62.82 34.8,-62.44 34.61,-62.33 34.04,-62.5 33.14,-62.9 31.9,-63.49 30.29,-64.27 28.27,-65.27 25.8,-66.54 22.85,-68.12 19.36,-70.06 15.31,-72.43 10.61,-75.26" fill="none" stroke="rgb(185, 55, 55)" stroke-width="2" stroke-linejoin="round" filter="url(#fuzzy)" /><polyline points="46.64,-46.21 47.04,-45.71 47.4,-45 47.74,-44.21 48,-43.51 48.1,-43.02 48,-42.82 47.67,-42.96 47.09,-43.46 46.25,-44.36 45.14,-45.69 43.73,-47.47 41.99,-49.75 39.93,-52.54 37.57,-55.81 34.95,-59.49 32.1,-63.55" fill="none" stroke="rgb(185, 55, 55)" stroke-width="2" stroke-linejoin="round" filter="url(#fuzzy)" /><polyline points="41.88,-54.6 42.6,-53.36 42.84,-52.74 42.98,-52.16 42.99,-51.66 42.77,-51.33 42.28,-51.21 41.54,-51.24 40.56,-51.4 39.34,-51.69 37.85,-52.1 36.09,-52.65 34.04,-53.34 31.69,-54.21 29.02,-55.28 26,-56.58 22.62,-58.14 18.86,-59.99 14.72,-62.13 10.19,-64.56 5.23,-67.25 -0.18,-70.21 -6.09,-73.45" fill="none" stroke="rgb(185, 55, 55)" stroke-width="2" stroke-linejoin="round" filter="url(#fuzzy)" /><polyline points="-18.88,-74.5 -18.42,-74.65 -17.56,-75.03 -16.77,-75.38 -16.02,-75.69 -15.27,-75.98 -14.52,-76.24 -13.82,-76.48 -13.2,-76.66 -12.69,-76.8 -12.33,-76.87 -12.14,-76.87 -12.16,-76.77 -12.38,-76.59 -12.83,-76.31 -13.5,-75.94 -14.42,-75.47 -15.63,-74.88 -17.18,-74.14 -19.09,-73.24 -21.38,-72.15 -24.02,-70.88" fill="none" stroke="rgb(185, 55, 55)" stroke-width="2" stroke-linejoin="round" filter="url(#fuzzy)" /><polyline points="38.6,-58.92 39.11,-58.03 39.56,-57.17 39.9,-56.35 40.06,-55.58 39.97,-54.92 39.59,-54.42 38.92,-54.09 37.93,-53.93 36.63,-53.94 35.01,-54.11 33.07,-54.42 30.81,-54.86 28.25,-55.42 25.37,-56.08 22.18,-56.87 18.65,-57.77 14.77,-58.82 10.52,-60.03 5.89,-61.44 0.84,-63.06 -4.67,-64.91 -10.7,-66.98 -17.17,-69.3" fill="none" stroke="rgb(185, 55, 55)" stroke-width="2" stroke-linejoin="round" filter="url(#fuzzy)" /><polyline points="47.96,-43.81 48.74,-42.25 49.1,-41.25 49.28,-40.41 49.27,-39.72 49.03,-39.26 48.56,-39.04 47.86,-39.06 46.93,-39.32 45.75,-39.82 44.33,-40.55 42.66,-41.47 40.75,-42.59 38.6,-43.9 36.16,-45.45 33.42,-47.27 30.33,-49.4 26.87,-51.83 23.04,-54.59 18.86,-57.65 14.35,-61.05 9.48,-64.79 4.21,-68.87 -1.51,-73.28" fill="none" stroke="rgb(185, 55, 55)" stroke-width="2" stroke-linejoin="round" filter="url(#fuzzy)" /><polyline points="-16.84,-75.4 -16.16,-75.65 -15.05,-75.96 -13.75,-76.25 -12.33,-76.52 -10.83,-76.79 -9.26,-77.03 -7.67,-77.26 -6.1,-77.47 -4.61,-77.65 -3.22,-77.8 -1.93,-77.94 -0.74,-78.07 0.35,-78.2 1.3,-78.31 2.05,-78.42 2.57,-78.52 2.84,-78.61 2.77,-78.66" fill="none" stroke="rgb(185, 55, 55)" stroke-width="2" stroke-linejoin="round" filter="url(#fuzzy)" /><polyline points="-4.82,-78.58 -3.63,-78.53 -2.55,-78.52 -1.2,-78.5 0.32,-78.47 1.81,-78.41 3.16,-78.32 4.37,-78.22 5.49,-78.12 6.5,-78.02 7.35,-77.96 7.94,-77.94 8.22,-77.96 8.14,-78.02 7.66,-78.16" fill="none" stroke="rgb(185, 55, 55)" stroke-width="2" stroke-linejoin="round" filter="url(#fuzzy)" /><polyline points="-27.08,-69.5 -26.11,-70.12 -24.95,-70.82 -23.65,-71.5 -22.25,-72.12 -20.78,-72.68 -19.27,-73.19 -17.73,-73.66 -16.17,-74.11 -14.59,-74.55 -13.01,-74.99 -11.45,-75.43 -9.92,-75.85 -8.45,-76.26 -7.02,-76.65 -5.67,-77.02 -4.39,-77.36 -3.23,-77.67 -2.21,-77.96 -1.34,-78.2 -0.6,-78.4 0.09,-78.57 0.74,-78.69" fill="none" stroke="rgb(185, 55, 55)" stroke-width="2" stroke-linejoin="round" filter="url(#fuzzy)" /><polyline points="4.11,-78.75 5.08,-78.55 5.97,-78.39 6.69,-78.26 7.28,-78.11 7.78,-77.95 8.13,-77.77 8.29,-77.58 8.17,-77.39 7.7,-77.24 6.87,-77.11 5.68,-77 4.14,-76.9 2.23,-76.79 -0.09,-76.68 -2.89,-76.57 -6.2,-76.47 -10,-76.38" fill="none" stroke="rgb(185, 55, 55)" stroke-width="2" stroke-linejoin="round" filter="url(#fuzzy)" /><polyline points="-11.2,-77.19 -6.67,-77.48 1.11,-75.17 11.88,-70.01 20.81,-64.07 24.13,-59.87 21.49,-58.47 15.71,-59.26 10.77,-60.9 9.44,-62.24 12.14,-62.77 17.23,-62.7 22.22,-62.65 24.87,-63.26 23.72,-64.81 18.16,-67.06 8.44,-69.26 -3.56,-70.21 -12.74,-68.9 -8.52,-66.29 29.54,-67.77" fill="none" stroke="rgb(185, 55, 55)" stroke-width="2" stroke-linejoin="round" filter="url(#fuzzy)" /><polyline points="1.72,-78.63 -19.84,-68.53 -20.25,-67.46 -12.15,-69.52 -2.53,-70.29 5.5,-69.08 10.39,-67.12 12.13,-65.61 12.03,-64.96 11.55,-64.94 11.08,-65.25 9.98,-65.7 7.54,-66.19 4.19,-66.63 1.53,-66.99 1.42,-67.38 4.55,-68.08 9.78,-69.25 14.87,-70.74 18.3,-71.9 20.63,-71.78 24.21,-69.38 31.16,-64.33 37.55,-59.84" fill="none" stroke="rgb(185, 55, 55)" stroke-width="2" stroke-linejoin="round" filter="url(#fuzzy)" /><polyline points="42.81,-52.97 -4.91,-58.34 -14.01,-59.2 -9.11,-59.92 -6.49,-60.83 -9.93,-61.67 -16.19,-62.38 -20.93,-63.35 -21.79,-65.01 -18.83,-67.33 -13.61,-69.68 -7.97,-71.12 -3.26,-70.81 -0.32,-68.33 0.25,-63.94 -2.26,-58.74 -8.54,-54.55 -18.16,-53.25 -26.93,-55.78 -24.34,-62.62 4,-78.61" fill="none" stroke="rgb(185, 55, 55)" stroke-width="2" stroke-linejoin="round" filter="url(#fuzzy)" /><polyline points="52.91,-31.65 40.66,-50.65 30.39,-60.07 18.78,-66.36 6.62,-69.17 -4.79,-69.26 -13.56,-68.57 -18.19,-68.68 -18.81,-69.94 -17.22,-71.64 -15.8,-72.67 -15.99,-72.23 -17.91,-70.15 -22.02,-66.45 -30.89,-60.84 -40.09,-56.78" fill="none" stroke="rgb(185, 55, 55)" stroke-width="2" stroke-linejoin="round" filter="url(#fuzzy)" /><polyline points="1.13,-78.66 -8.23,-73 -7.58,-67.96 -6.77,-63.8 -7.52,-61.99 -9.98,-62.26 -13.02,-63.47 -14.96,-64.67 -14.51,-65.58 -11.28,-66.24 -5.61,-66.51 1.97,-65.88 11.02,-63.68 20.68,-59.74 29.1,-54.69 33.22,-49.7 29.16,-45.88 12.64,-44.52 -17.73,-47.96 -41.45,-54.75" fill="none" stroke="rgb(185, 55, 55)" stroke-width="2" stroke-linejoin="round" filter="url(#fuzzy)" /><polyline points="49.36,-40.87 25.31,-61.11 15.41,-67.14 11.25,-68.8 7.04,-69.67 2.52,-70.13 -1.45,-69.81 -4.48,-68.61 -6.36,-66.81 -6.65,-64.76 -5.05,-62.73 -1.72,-60.87 2.61,-59.24 6.97,-57.85 10.55,-56.67 12.85,-55.74 13.6,-55.19 12.71,-55.11 10.48,-55.36 8.24,-55.48 8.49,-55.26 13.3,-55.47 21.32,-57.5 26.8,-61.83 17.21,-75.22" fill="none" stroke="rgb(185, 55, 55)" stroke-width="2" stroke-linejoin="round" filter="url(#fuzzy)" /><polyline points="26.99,-69.49 10.83,-65.82 12.83,-63.38 10.32,-63.89 6.36,-63.72 5.5,-61.73 8.3,-58.98 12.46,-56.87 15.48,-55.84 16.44,-55.59 15.82,-55.67 14.31,-56.05 12.1,-57.05 9.34,-59.02 7.12,-62.1 7.02,-65.99 8.8,-70.01 8.27,-73.57 0.68,-76.59 -8.43,-78.02" fill="none" stroke="rgb(185, 55, 55)" stroke-width="2" stroke-linejoin="round" filter="url(#fuzzy)" /><polyline points="-16.52,-75.55 -15.58,-72.61 -10.68,-71.54 -7.68,-68.93 -4.03,-66.54 0.62,-65.88 5.45,-66.82 9.67,-68.32 12.59,-69.55 13.57,-70.31 12.29,-70.7 9,-70.67 4.5,-69.8 -0.42,-67.62 -5.51,-64.18 -11.05,-60.37 -16.76,-57.73 -20.82,-57.61 -20.8,-60.3 -17.44,-64.74 -16.81,-69.42 -14.16,-76.33" fill="none" stroke="rgb(185, 55, 55)" stroke-width="2" stroke-linejoin="round" filter="url(#fuzzy)" /><polyline points="-36.63,-61.09 -7.87,-68.6 -1.03,-69.46 3.54,-66.65 8.88,-63.14 12.99,-61.1 14.11,-61.08 12.77,-62.36 10.91,-63.81 10.3,-64.58 11.49,-64.31 13.89,-63.15 16.49,-61.59 18.5,-60.24 19.6,-59.58 19.72,-59.9 18.8,-61.24 16.91,-63.44 14.51,-66.14 12.26,-68.89 10.37,-71.34 8.77,-73.26 7.8,-74.74 -1.99,-78.66" fill="none" stroke="rgb(185, 55, 55)" stroke-width="2" stroke-linejoin="round" filter="url(#fuzzy)" /><polyline points="31.23,-66.08 22.02,-70.75 19.51,-70.15 17.98,-69.42 15.26,-69.55 11.72,-69.8 8.08,-69.87 4.99,-69.81 2.94,-69.69 2.14,-69.47 2.44,-69.08 3.64,-68.43 5.71,-67.41 8.69,-65.85 12.19,-63.71 14.9,-61.2 15.13,-58.71 12.2,-56.63 7.72,-55.04 5.01,-53.81 5.67,-52.71 6.85,-50.59 9.84,-43.32 54.84,-25.15" fill="none" stroke="rgb(185, 55, 55)" stroke-width="2" stroke-linejoin="round" filter="url(#fuzzy)" /><polyline points="49.5,-40.72 12.6,-57.31 8.04,-63.06 3.21,-64.8 -2.9,-65.64 -6.27,-66.37 -5.72,-66.84 -2.6,-66.81 1.02,-66.39 3.72,-65.98 5.23,-66.01 6.25,-66.67 7.68,-67.73 10.03,-68.67 12.95,-69.01 15.45,-68.55 16.2,-67.38 14.06,-65.87 8.53,-64.8 0.37,-65.47 -9.06,-68.06 -31.5,-65.93" fill="none" stroke="rgb(185, 55, 55)" stroke-width="2" stroke-linejoin="round" filter="url(#fuzzy)" /><polyline points="29.54,-67.77 35.6,-55.85 24.83,-56.89 11.44,-60.45 1.41,-63.49 -4.82,-66.14 -8.92,-68.53 -12.72,-70.12 -17.1,-70.44 -21.66,-69.7 -25.18,-68.73 -26.6,-68.37 -25.63,-68.87 -22.46,-69.88 -16.17,-71.25 -3.36,-73.72 17.21,-75.22" fill="none" stroke="rgb(185, 55, 55)" stroke-width="2" stroke-linejoin="round" filter="url(#fuzzy)" /><polyline points="-38.58,-58.73 -29.35,-64.09 -12.74,-67.22 2.53,-65.11 10.48,-61.35 11.21,-59.47 9.43,-59.98 9.87,-60.89 14.08,-59.85 20.19,-56.2 25.07,-51.33 27.17,-47.47 28.09,-45.85 30.77,-46.16 34.33,-48.09 29.79,-54.29 -0.42,-78.86" fill="none" stroke="rgb(185, 55, 55)" stroke-width="2" stroke-linejoin="round" filter="url(#fuzzy)" /><polyline points="1.13,-78.66 -21.99,-68.43 -30.34,-64.39 -32.5,-62.12 -29.69,-61.28 -22.89,-61.53 -14.41,-62.07 -7.05,-62.44 -2.64,-62.74 -1.28,-63.24 -1.93,-63.87 -3.5,-64.31 -5.55,-64.29 -8.09,-63.98 -11.14,-63.95 -14.5,-64.65 -17.89,-65.83 -21.15,-66.34 -25.92,-63.8 -44.95,-49.37" fill="none" stroke="rgb(185, 55, 55)" stroke-width="2" stroke-linejoin="round" filter="url(#fuzzy)" /><polyline points="31.23,-66.08 -3.37,-62.21 2.38,-60.8 14.24,-60.43 20.87,-61.98 21.72,-64.48 18.93,-66.71 14.69,-67.95 10.76,-67.91 8.08,-66.59 6.72,-64.22 6.36,-61.23 6.98,-58.14 9.07,-55.58 12.94,-54.28 17.97,-54.92 22.47,-57.69 24.67,-61.79 24.03,-65.36 21.9,-66.09 23.6,-60.52 51.09,-37.17" fill="none" stroke="rgb(185, 55, 55)" stroke-width="2" stroke-linejoin="round" filter="url(#fuzzy)" /><polyline points="46.64,-46.21 5.28,-64.26 -9.6,-69.6 -15.41,-68.51 -14.25,-65.71 -6.74,-63.59 4.04,-62.7 14.06,-62.82 20.47,-63.65 22.38,-64.9 20.35,-66.19 15.68,-67.05 9.85,-67.16 4.22,-66.63 -0.23,-65.94 -3.19,-65.74 -5.22,-66.29 -7.14,-67.17 -8.2,-67.45 -3.76,-66.04 14.78,-60.75 49.2,-41.61" fill="none" stroke="rgb(185, 55, 55)" stroke-width="2" stroke-linejoin="round" filter="url(#fuzzy)" /><polyline points="37.57,-59.84 33.57,-59.03 24.03,-64.28 17.88,-65.76 11.6,-64.35 3.4,-62.19 -4.92,-60.56 -11.1,-59.99 -14.32,-60.63 -14.7,-62.32 -12.47,-64.64 -8.11,-66.92 -2.68,-68.32 3.1,-68.14 10.17,-66.32 19.44,-64.41 25.8,-66.35 18.81,-74.54" fill="none" stroke="rgb(185, 55, 55)" stroke-width="2" stroke-linejoin="round" filter="url(#fuzzy)" /><polyline points="17.62,-75.18 -1.26,-63.05 4.16,-62.79 2.92,-65.4 -2.97,-67.32 -6.29,-68.16 -3.83,-67.9 3.1,-66.16 11.32,-62.76 18.13,-58.3 21.86,-54.07 20.88,-51.61 12.96,-51.95 -2.92,-54.59 -22.77,-57.1 -36.44,-57.87 -36.58,-61.08" fill="none" stroke="rgb(185, 55, 55)" stroke-width="2" stroke-linejoin="round" filter="url(#fuzzy)" /><polyline points="57.14,-10.9 57.28,-10.59 57.53,-9.34 57.83,-8.17 58.26,-7.17 58.86,-6.24 59.65,-5.29 60.58,-4.27 61.52,-3.16 62.34,-1.98 62.96,-0.74 63.39,0.56 63.7,1.89 63.95,3.26 64.17,4.65 64.38,6.06 64.63,7.5 65.04,8.96 65.78,10.48 66.91,12.08 68.23,13.79 69.16,15.56 68.97,17.16" fill="none" stroke="rgb(185, 55, 55)" stroke-width="2" stroke-linejoin="round" filter="url(#fuzzy)" /><polyline points="-3.55,-78.51 -3.71,-78.4 -4.4,-77.7 -5.17,-76.39 -5.95,-75.16 -6.72,-74.5 -7.47,-74.39 -8.22,-74.47 -8.96,-74.38 -9.7,-73.95 -10.42,-73.21 -11.14,-72.28 -11.85,-71.26 -12.51,-70.16 -13.13,-68.96 -13.68,-67.73 -14.2,-66.72 -14.73,-66.1 -15.36,-65.54 -16.43,-63.69 -8.43,-78.02 -7.66,-79.07 -6.87,-81.46 -6.01,-83.1 -5.09,-83.65 -4.14,-83.69 -3.17,-83.64 -2.15,-83.65 -1.11,-83.74 -0.09,-84.07 0.87,-84.81 1.78,-86.09 2.66,-87.86 3.58,-89.95 4.58,-92.14 5.67,-94.34 6.84,-96.59 8.07,-98.91 9.34,-101.11 10.65,-102.78 12.06,-104.16 13.5,-107.6" fill="none" stroke="rgb(185, 55, 55)" stroke-width="2" stroke-linejoin="round" filter="url(#fuzzy)" /><polyline points="-10.53,-77.6 -10.46,-77.43 -9.71,-77.29 -8.86,-76.93 -8.06,-76.44 -7.27,-76.02 -6.46,-75.77 -5.62,-75.72 -4.77,-75.8 -3.9,-75.91 -3.01,-76.01 -2.09,-76.06 -1.16,-76.07 -0.24,-76.03 0.6,-75.9 1.36,-75.66 2.05,-75.28 2.72,-74.79 3.42,-74.26 4.19,-73.75 5.01,-73.28 5.85,-72.92 6.44,-72.77 -10.53,-77.6 -12.3,-77.19 -13.38,-77.02 -14.33,-77.11 -15.31,-77.56 -16.32,-78.28 -17.3,-79.01 -18.23,-79.48 -19.14,-79.64 -20.05,-79.69 -20.98,-79.88 -21.95,-80.35 -22.96,-80.99 -24.05,-81.49 -25.27,-81.55 -26.47,-80.75" fill="none" stroke="rgb(185, 55, 55)" stroke-width="2" stroke-linejoin="round" filter="url(#fuzzy)" /><polyline points="-14.16,-76.33 -15.09,-75.54 -15.68,-74.18 -16.23,-73.18 -16.89,-72.67 -17.62,-72.33 -18.34,-71.91 -19.02,-71.37 -19.67,-70.75 -20.34,-70.1 -21.05,-69.47 -21.84,-68.89 -22.68,-68.32 -23.57,-67.74 -24.45,-67.05 -25.28,-66.2 -26.02,-65.14 -26.64,-63.92 -27.13,-62.65 -27.51,-61.46 -27.81,-60.45 -28.04,-59.55 -28.19,-58.56 -28.37,-57.27 -29.28,-56.06 -0.51,-96.39 -2.15,-95.58 -3.36,-95.65 -4.32,-95.12 -5.2,-93.65 -6.07,-91.65 -6.94,-89.75 -7.79,-88.35 -8.61,-87.43 -9.39,-86.65 -10.13,-85.6 -10.83,-84.1 -11.52,-82.25 -12.22,-80.37 -12.97,-78.79 -13.75,-77.66 -14.58,-76.88 -15.48,-76.24 -16.52,-75.55 -21.18,-73.42 -20.59,-73.78 -20.17,-74.48 -19.65,-75.38 -19.06,-76.44 -18.45,-77.62 -17.87,-78.85 -17.28,-79.99 -16.63,-80.98 -15.9,-81.78 -15.07,-82.45 -14.2,-83.1 -13.31,-83.91 -12.46,-85.07 -11.66,-86.74 -10.74,-89.01 -9.38,-91.81" fill="none" stroke="rgb(185, 55, 55)" stroke-width="2" stroke-linejoin="round" filter="url(#fuzzy)" /><polyline points="-22.35,-72.58 -22.59,-70.02 -23.16,-68.73 -23.94,-67.79 -24.84,-67 -25.75,-66.21 -26.62,-65.43 -27.42,-64.72 -28.13,-64.1 -28.72,-63.5 -29.19,-62.8 -29.56,-61.94 -29.91,-60.96 -30.3,-59.92 -30.75,-58.92 -31.23,-57.94 -31.65,-56.91 -31.94,-55.73 -32.11,-54.46 -32.25,-53.29 -32.53,-52.28 -33.42,-50.87" fill="none" stroke="rgb(185, 55, 55)" stroke-width="2" stroke-linejoin="round" filter="url(#fuzzy)" /><polyline points="-47.34,-62.52 -45.61,-63.54 -44.43,-64.26 -43.39,-64.8 -42.38,-65.3 -41.46,-65.87 -40.66,-66.52 -39.88,-67.15 -39.03,-67.64 -38.07,-67.97 -37.04,-68.2 -36,-68.44 -35.01,-68.72 -34.11,-69.01 -33.25,-69.2 -32.41,-69.24 -31.54,-69.17 -30.65,-69.17 -29.73,-69.42 -28.81,-70.06 -27.85,-70.98 -26.84,-71.65 -25.51,-70.72" fill="none" stroke="rgb(185, 55, 55)" stroke-width="2" stroke-linejoin="round" filter="url(#fuzzy)" /><polyline points="-26.09,-70.1 -27.66,-70.53 -29.16,-70.65 -30.4,-70.67 -31.3,-70.44 -31.9,-69.92 -32.4,-69.33 -32.99,-68.86 -33.78,-68.59 -34.78,-68.49 -35.91,-68.48 -37.11,-68.53 -38.35,-68.63 -39.56,-68.73 -40.68,-68.79 -41.65,-68.73 -42.57,-68.39 -44.21,-67.29" fill="none" stroke="rgb(185, 55, 55)" stroke-width="2" stroke-linejoin="round" filter="url(#fuzzy)" /><polyline points="-45.47,-60.06 -44.07,-61.39 -43.05,-62.25 -42.15,-62.92 -41.24,-63.5 -40.35,-64.04 -39.5,-64.54 -38.67,-65.01 -37.83,-65.47 -36.98,-65.93 -36.12,-66.42 -35.26,-66.96 -34.41,-67.5 -33.59,-67.94 -32.78,-68.18 -31.99,-68.18 -31.2,-68.01 -30.4,-67.83 -29.61,-67.93 -29,-68.46" fill="none" stroke="rgb(185, 55, 55)" stroke-width="2" stroke-linejoin="round" filter="url(#fuzzy)" /><polyline points="-51.46,-65.32 -50.61,-65.05 -49.39,-64.4 -47.71,-63.82 -45.92,-63.44 -44.22,-63.23 -42.69,-63.14 -41.37,-63.23 -40.31,-63.61 -39.56,-64.36 -39.09,-65.52 -38.78,-66.9 -38.4,-68.18 -37.71,-68.95 -36.59,-69.05 -35.2,-68.68 -33.84,-68.32 -32.73,-68.12 -31.64,-67.58 -30.36,-67.25 -15.92,-90.98 -16.83,-90.27 -17.59,-88.54 -18.31,-87.17 -19.06,-86.3 -19.84,-85.68 -20.63,-85.01 -21.35,-84.12 -21.97,-82.92 -22.5,-81.47 -23.02,-79.93 -23.6,-78.46 -24.28,-77.19 -25.06,-76.09 -25.88,-75.03 -26.68,-73.79 -27.41,-72.3 -28.12,-70.66 -28.87,-69.17 -29.65,-68.07 -30.29,-67.4 -30.36,-67.25 -55.57,-73.4 -51.76,-71.99 -50.18,-72.48 -49.23,-73.4 -48.09,-73.88 -46.67,-73.83 -45.09,-73.37 -43.44,-72.67 -41.8,-71.91 -40.22,-71.27 -38.73,-70.76 -37.18,-70.17 -35.48,-69.25 -33.72,-68.08 -32.23,-67.09 -31.23,-66.73 -30.36,-67.25" fill="none" stroke="rgb(185, 55, 55)" stroke-width="2" stroke-linejoin="round" filter="url(#fuzzy)" /><polyline points="-19.61,-87.82 -19.88,-86.21 -20.76,-85.09 -21.6,-84.17 -22.29,-83.24 -22.89,-82.17 -23.48,-80.96 -24.12,-79.69 -24.83,-78.45 -25.61,-77.26 -26.45,-76.13 -27.38,-75.1 -28.4,-74.24 -29.49,-73.56 -30.55,-72.95 -31.38,-72.15 -31.84,-70.93 -31.9,-69.28 -31.71,-67.38 -31.5,-65.93" fill="none" stroke="rgb(185, 55, 55)" stroke-width="2" stroke-linejoin="round" filter="url(#fuzzy)" /><polyline points="56.62,-15.38 55.99,-17.52 54.77,-18.5 53.4,-19.17 52.53,-20.03 52.24,-21.13 52.23,-22.3 52.13,-23.37 51.72,-24.28 50.88,-25.01 49.6,-25.59 48.05,-26.07 46.5,-26.48 45.3,-26.88 44.58,-27.26 44.16,-27.59 43.63,-27.53" fill="none" stroke="rgb(185, 55, 55)" stroke-width="2" stroke-linejoin="round" filter="url(#fuzzy)" /><polyline points="-20.69,-62.81 -22.53,-63.78 -23.78,-63.93 -24.92,-63.79 -26.09,-63.76 -27.28,-63.97 -28.37,-64.31 -29.3,-64.59 -30.08,-64.71 -30.77,-64.66 -31.47,-64.44 -32.22,-64.05 -33.03,-63.52 -33.84,-63 -34.63,-62.72 -35.39,-62.48 -52.29,-47.12 -50.82,-48.23 -50.14,-48.91 -49.7,-49.58 -49.15,-50.31 -48.4,-51.15 -47.53,-52.14 -46.65,-53.25 -45.84,-54.34 -45.1,-55.26 -44.4,-55.97 -43.68,-56.51 -42.92,-56.98 -42.04,-57.43 -41.05,-57.88 -40.01,-58.32 -39,-58.84 -38.09,-59.52 -37.31,-60.33 -37.07,-60.67" fill="none" stroke="rgb(185, 55, 55)" stroke-width="2" stroke-linejoin="round" filter="url(#fuzzy)" /><polyline points="-40.09,-56.78 -40.75,-59.42 -41.75,-62.61 -41.89,-64.71 -41.37,-65.83 -40.61,-66.49 -39.8,-67.02 -38.96,-67.51 -38.11,-68.06 -37.32,-68.8 -36.69,-69.91 -36.31,-71.5 -36.2,-73.53 -36.3,-75.8 -36.47,-78.03 -36.54,-80.01 -36.38,-81.67 -35.93,-83.19 -35.23,-85.03 -34.14,-87.61" fill="none" stroke="rgb(185, 55, 55)" stroke-width="2" stroke-linejoin="round" filter="url(#fuzzy)" /><polyline points="-42.39,-53.81 -43,-52.8 -43.71,-51.32 -44.43,-49.8 -45.06,-48.47 -45.55,-47.33 -45.91,-46.32 -46.19,-45.35 -46.47,-44.37 -46.78,-43.39 -47.13,-42.41 -47.51,-41.42 -47.88,-40.44 -48.22,-39.43 -48.54,-38.41 -48.85,-37.33 -49.14,-36.19 -49.4,-34.98 -49.64,-33.76 -49.86,-32.56 -50.05,-31.4 -50.25,-30.23 -50.5,-29.04 -50.69,-28.52" fill="none" stroke="rgb(185, 55, 55)" stroke-width="2" stroke-linejoin="round" filter="url(#fuzzy)" /><polyline points="-42.39,-53.81 -42.07,-54.09 -41.62,-54.3 -40.75,-54.55 -39.61,-54.77 -38.41,-54.95 -37.27,-55.15 -36.24,-55.4 -35.32,-55.69 -34.5,-56.05 -33.74,-56.42 -32.97,-56.72 -32.11,-56.89 -31.14,-56.87 -30.08,-56.74 -28.98,-56.58 -27.95,-56.45 -27.09,-56.37 -26.36,-56.29 -25.27,-55.97 -42.39,-53.81 -43.5,-53.41 -45.24,-53.02 -47.53,-53.1 -49.5,-53.1 -50.67,-52.61 -51.21,-51.71 -51.49,-50.66 -51.84,-49.64 -52.37,-48.72 -53.14,-47.92 -54.18,-47.31 -55.45,-46.89 -56.85,-46.57 -58.14,-46.18 -59.2,-45.53 -60.09,-44.58 -61.2,-43.49 -62.8,-42.49 -63.91,-41.35 -56.83,-26.42 -56.39,-27.48 -56.01,-28.51 -55.67,-29.56 -55.31,-30.59 -54.88,-31.58 -54.37,-32.56 -53.83,-33.55 -53.28,-34.57 -52.75,-35.64 -52.27,-36.76 -51.82,-37.89 -51.4,-39.01 -50.97,-40.07 -50.51,-41.06 -50,-41.99 -49.45,-42.88 -48.88,-43.77 -48.32,-44.63 -47.77,-45.44 -47.25,-46.16 -46.75,-46.77 -46.25,-47.37 -45.69,-48.14 -44.95,-49.37 -49.05,-41.83 -49.78,-41.37 -51.12,-41.13 -52.61,-41 -53.95,-40.63 -55.03,-39.91 -55.79,-38.89 -56.34,-37.73 -56.84,-36.59 -57.45,-35.56 -58.19,-34.63 -58.95,-33.75 -59.59,-32.82 -60.15,-31.84 -60.91,-30.92 -62.04,-30.19 -62.87,-29.23 -50.17,-39.15 -50.98,-39.5 -51.48,-38.67 -52.32,-37.71 -53.72,-37.04 -55.68,-36.76 -58,-36.75 -60.3,-36.74 -62.18,-36.46 -63.46,-35.8 -64.26,-34.81 -64.85,-33.62 -65.51,-32.37 -66.32,-31.12 -67.21,-29.87 -68.03,-28.57 -68.74,-27.25 -69.39,-25.95 -70.13,-24.75 -71.04,-23.68 -72.1,-22.79 -73.17,-22.09 -74.27,-21.6 -75.67,-21.29 -77.97,-21.57 -50.17,-39.15 -49.66,-40.92 -49.69,-42.47 -49.86,-44.02 -49.78,-45.35 -49.43,-46.4 -49.01,-47.35 -48.67,-48.37 -48.41,-49.57 -48.16,-50.96 -47.86,-52.48 -47.5,-54.05 -47.09,-55.58 -46.71,-57 -46.37,-58.28 -46.07,-59.48 -45.77,-60.7 -45.46,-62.05 -45.11,-63.56 -44.74,-65.17 -44.39,-66.86 -43.96,-68.84 -42.95,-71.64" fill="none" stroke="rgb(185, 55, 55)" stroke-width="2" stroke-linejoin="round" filter="url(#fuzzy)" /><polyline points="-50.17,-39.15 -49.89,-38.69 -49.81,-37.5 -50.01,-36.19 -50.32,-34.9 -50.62,-33.7 -50.91,-32.58 -51.18,-31.52 -51.45,-30.48 -51.7,-29.45 -51.88,-28.41 -51.98,-27.31 -51.99,-26.14 -51.99,-24.88 -52.05,-23.55 -52.19,-22.16 -52.28,-20.86 -51.8,-20.13" fill="none" stroke="rgb(185, 55, 55)" stroke-width="2" stroke-linejoin="round" filter="url(#fuzzy)" /><polyline points="-50.15,-39.66 -50.84,-40.73 -51.08,-42.18 -50.64,-43.17 -50.1,-44.12 -49.88,-45.37 -50.07,-46.99 -50.53,-48.79 -50.94,-50.53 -51.06,-52.07 -50.83,-53.46 -50.37,-54.91 -49.92,-56.59 -49.65,-58.54 -49.64,-60.62 -49.87,-62.64 -50.27,-64.49 -50.64,-66.23 -50.74,-68.28 -50.82,-71.98" fill="none" stroke="rgb(185, 55, 55)" stroke-width="2" stroke-linejoin="round" filter="url(#fuzzy)" /><polyline points="-50.76,-38.2 -55.2,-42.99 -54.37,-43.44 -52.72,-43.38 -51.71,-43.96 -51.55,-45.32 -51.94,-47.17 -52.43,-49.08 -52.81,-50.82 -53.13,-52.48 -53.63,-54.4 -54.48,-56.92 -55.61,-60.17 -56.67,-63.87 -57.22,-67.43 -57.01,-70.09 -56.27,-71.42 -51.92,-34.79 -48.7,-34.73 -48.5,-36.18 -48.55,-37.49 -48.22,-38.37 -47.52,-38.97 -46.66,-39.46 -45.8,-39.97 -44.96,-40.49 -44.14,-40.97 -43.3,-41.35 -42.44,-41.59 -41.48,-41.64 -40.33,-41.53 -38.92,-41.37 -37.36,-41.52 -36.31,-42.85" fill="none" stroke="rgb(185, 55, 55)" stroke-width="2" stroke-linejoin="round" filter="url(#fuzzy)" /><polyline points="-52.45,-32.95 -53.52,-31.08 -54.4,-30.28 -55.18,-29.55 -55.95,-28.7 -56.78,-27.75 -57.69,-26.73 -58.68,-25.69 -59.73,-24.67 -60.83,-23.69 -61.98,-22.79 -63.22,-21.98 -64.58,-21.26 -66,-20.64 -67.36,-20.05 -68.48,-19.38 -69.31,-18.51 -69.99,-17.4 -70.9,-16.09 -72.41,-14.76 -74.51,-13.53 -76.49,-12.44 -77.76,-12.17" fill="none" stroke="rgb(185, 55, 55)" stroke-width="2" stroke-linejoin="round" filter="url(#fuzzy)" /><polyline points="-53.65,-29.58 -52.91,-31.8 -52.57,-33.06 -52.34,-34.19 -52.12,-35.42 -51.87,-36.73 -51.62,-38.02 -51.39,-39.28 -51.2,-40.49 -51.04,-41.7 -50.87,-42.9 -50.63,-44.07 -50.29,-45.16 -49.84,-46.16 -49.37,-47.07 -48.97,-47.93 -48.72,-48.8 -48.56,-49.78 -48.32,-50.94 -47.68,-52.38" fill="none" stroke="rgb(185, 55, 55)" stroke-width="2" stroke-linejoin="round" filter="url(#fuzzy)" /><polyline points="-53.75,-29.36 -54.3,-27.85 -54.91,-26.79 -55.56,-25.69 -56.19,-24.5 -56.77,-23.33 -57.25,-22.21 -57.64,-21.14 -57.93,-20.13 -58.18,-19.17 -58.42,-18.3 -58.73,-17.52 -59.15,-16.8 -59.68,-16.01 -60.28,-15.06 -60.93,-13.9 -61.6,-12.61 -62.35,-11.22 -63.13,-9.14" fill="none" stroke="rgb(185, 55, 55)" stroke-width="2" stroke-linejoin="round" filter="url(#fuzzy)" /><polyline points="54.2,-27.81 54.52,-27.26 54.9,-26.35 55.33,-25.44 55.83,-24.49 56.35,-23.47 56.86,-22.39 57.33,-21.29 57.76,-20.17 58.15,-19.06 58.51,-17.93 58.88,-16.78 59.26,-15.61 59.67,-14.42 60.09,-13.2 60.51,-11.97 60.9,-10.72 61.28,-9.51 61.66,-8.36 62.08,-7.32 62.59,-6.35 63.16,-5.33 63.74,-4.2 64.48,-3.61" fill="none" stroke="rgb(185, 55, 55)" stroke-width="2" stroke-linejoin="round" filter="url(#fuzzy)" /><polyline points="54.2,-27.81 53.54,-30.34 53.41,-31.65 53.75,-32.83 54.41,-34.22 55.1,-35.77 55.56,-37.3 55.71,-38.72 55.62,-40.06 55.41,-41.42 55.15,-42.85 54.88,-44.38 54.68,-46.05 54.67,-47.94 54.99,-50.13 55.67,-52.54 56.58,-54.96 57.33,-57.04 57.18,-58.29" fill="none" stroke="rgb(185, 55, 55)" stroke-width="2" stroke-linejoin="round" filter="url(#fuzzy)" /><polyline points="52.89,-31.74 54.88,-33.49 54.6,-34.26 54.72,-35.57 55.41,-37.4 56.13,-39.32 56.49,-41.06 56.4,-42.56 55.91,-43.84 55.13,-44.96 54.28,-46.04 53.54,-47.22 53.09,-48.6 53,-50.24 53.26,-52.14 53.84,-54.3 54.7,-56.68 55.72,-59.19 56.72,-61.64 57.41,-63.92 57.67,-66.22 57.58,-68.84 56.99,-70.5" fill="none" stroke="rgb(185, 55, 55)" stroke-width="2" stroke-linejoin="round" filter="url(#fuzzy)" /><polyline points="52.53,-33.14 52.68,-32.9 52.97,-32.37 53.3,-31.6 53.69,-30.58 54.13,-29.4 54.57,-28.18 54.97,-26.99 55.31,-25.84 55.62,-24.72 55.92,-23.59 56.25,-22.46 56.6,-21.33 56.98,-20.22 57.38,-19.12 57.75,-18.02 58.08,-16.9 58.36,-15.75 58.6,-14.56 58.83,-13.36 59.07,-12.15 59.32,-10.77 59.69,-8.19 51.09,-37.17 51.63,-40.8 52.61,-43.48 52.89,-45.4 52.73,-47.01 52.42,-48.44 52,-49.62 51.47,-50.59 50.99,-51.54 50.8,-52.73 51,-54.24 51.43,-55.92 51.73,-57.58 51.58,-59.22 51.05,-61.05 50.88,-62.94" fill="none" stroke="rgb(185, 55, 55)" stroke-width="2" stroke-linejoin="round" filter="url(#fuzzy)" /><polyline points="51.09,-37.17 51.43,-37.09 52.53,-36.96 53.77,-36.61 54.64,-35.96 55.09,-35.08 55.29,-34.09 55.41,-33.01 55.6,-31.85 55.94,-30.64 56.49,-29.47 57.25,-28.4 58.19,-27.46 59.2,-26.59 60.19,-25.7 61.07,-24.71 61.78,-23.62 62.3,-22.46 62.65,-21.25 62.9,-19.72 63.07,-17.14 49.2,-41.61 49.62,-41.02 50.38,-40.16 51.61,-39.46 53.42,-39.23 55.5,-39.29 57.37,-39.24 58.72,-38.86 59.5,-38.12 59.92,-37.13 60.29,-36.04 60.88,-34.96 61.87,-33.96 63.24,-33.06 64.81,-32.25 66.33,-31.45 67.68,-30.59 68.95,-29.63 70.39,-28.62 72.24,-27.62 74.49,-26.87 77.09,-26.99 38.43,-86 39.03,-83.75 39.75,-82.13 40.31,-80.45 40.75,-78.85 41.17,-77.39 41.6,-75.92 41.97,-74.31 42.22,-72.51 42.31,-70.6 42.31,-68.68 42.32,-66.89 42.44,-65.29 42.73,-63.87 43.15,-62.53 43.63,-61.15 44.11,-59.67 44.59,-58.15 45.18,-56.78 45.92,-55.68 46.7,-54.72 47.12,-53.5 46.76,-51.72 45.83,-49.86 45.59,-48.79" fill="none" stroke="rgb(185, 55, 55)" stroke-width="2" stroke-linejoin="round" filter="url(#fuzzy)" /><polyline points="45.55,-48.68 44.85,-50.26 44,-51.53 43.3,-52.52 42.66,-53.48 41.98,-54.51 41.26,-55.59 40.54,-56.66 39.86,-57.66 39.25,-58.58 38.73,-59.42 38.31,-60.17 37.96,-60.82 37.61,-61.46 37.06,-62.22 36.16,-63.06 43.23,-52.46 41.93,-54.38 40.9,-55.79 40.11,-56.86 39.43,-57.77 38.83,-58.57 38.29,-59.3 37.78,-59.97 37.25,-60.64 36.67,-61.34 36.02,-62.06 35.33,-62.78 34.64,-63.47 33.95,-64.13 33.27,-64.77 32.59,-65.43 31.89,-66.13 31.21,-66.83 30.59,-67.48 30.07,-68.01 29.62,-68.44 29.09,-68.85" fill="none" stroke="rgb(185, 55, 55)" stroke-width="2" stroke-linejoin="round" filter="url(#fuzzy)" /><polyline points="39.95,-56.98 41.46,-55 42.38,-53.67 43.02,-52.69 43.6,-51.79 44.16,-50.9 44.69,-50.07 45.16,-49.29 45.58,-48.54 46,-47.76 46.42,-46.95 46.87,-46.08 47.33,-45.16 47.83,-44.16 48.36,-43.08 48.91,-41.93 49.48,-40.73 50.06,-39.46 50.69,-38.11 51.11,-37.29 39.02,-58.17 37.36,-57.14 37.06,-58.03 36.9,-58.94 36.49,-59.57 35.79,-60 34.9,-60.32 33.96,-60.59 33.05,-60.84 32.2,-61.1 31.39,-61.36 30.58,-61.65 29.78,-61.97 29.01,-62.28 28.26,-62.54 27.49,-62.68 26.61,-62.67 25.54,-62.5 24.27,-62.22 23,-61.88 21.98,-60.95 25.09,-84.14 26.09,-82.35 26.74,-80.75 27.18,-79.26 27.76,-78.08 28.59,-77.21 29.56,-76.49 30.52,-75.75 31.35,-74.88 32,-73.87 32.51,-72.71 32.93,-71.43 33.33,-70.07 33.76,-68.74 34.26,-67.61 34.84,-66.81 35.5,-66.26 36.09,-65.43 36.36,-63.5 36.62,-61.18" fill="none" stroke="rgb(185, 55, 55)" stroke-width="2" stroke-linejoin="round" filter="url(#fuzzy)" /><polyline points="52.08,-47.57 51.24,-48.34 50.69,-49.08 50.12,-49.79 49.45,-50.43 48.73,-50.99 48.02,-51.54 47.36,-52.14 46.71,-52.84 46.02,-53.61 45.24,-54.39 44.37,-55.13 43.38,-55.82 42.34,-56.48 41.29,-57.15 40.32,-57.85 39.47,-58.56 38.77,-59.25 38.23,-59.87 37.85,-60.4 37.5,-60.85 36.62,-61.18 34.21,-63.45 34.58,-65.25 34.4,-66.14 33.88,-66.88 33.13,-67.52 32.36,-68.16 31.67,-68.92 31.08,-69.83 30.49,-70.83 29.85,-71.87 29.14,-72.97 28.42,-74.15 27.74,-75.43 27.11,-76.76 26.51,-78.03 25.88,-79.2 25.2,-80.32 24.49,-81.49 23.79,-82.81 23.09,-84.18 22.32,-85.41 21.5,-86.56 20.75,-88.56" fill="none" stroke="rgb(185, 55, 55)" stroke-width="2" stroke-linejoin="round" filter="url(#fuzzy)" /><polyline points="42.97,-41.67 43.11,-42.85 43.05,-44.04 42.94,-45.15 42.8,-46.13 42.57,-47.05 42.22,-47.96 41.77,-48.91 41.25,-49.9 40.67,-50.91 40.06,-51.95 39.43,-53.01 38.81,-54.07 38.24,-55.13 37.76,-56.18 37.36,-57.22 37.02,-58.22 36.69,-59.19 36.3,-60.14 35.8,-61.09 35.19,-62.04 34.55,-62.93 33.98,-63.62 33.63,-63.99 33.6,-64.11 31.32,-66.27 30.71,-67.59 30.59,-69.17 30.49,-70.97 30.3,-73.2 30.03,-75.71 29.66,-78.08 29.17,-80.04 28.66,-81.78 28.26,-83.75 28.02,-86.3 27.87,-89.31 27.65,-92.33 27.26,-95.01 26.69,-97.28 25.96,-99.13 25.51,-101.11" fill="none" stroke="rgb(185, 55, 55)" stroke-width="2" stroke-linejoin="round" filter="url(#fuzzy)" /><polyline points="31.32,-66.27 32.7,-67.33 34.2,-67.92 35.02,-67.56 35.62,-66.92 36.43,-66.48 37.61,-66.45 39.08,-66.85 40.75,-67.66 42.57,-68.84 44.56,-70.34 46.74,-72.03 49.01,-73.6 51.14,-74.64 52.92,-74.82 54.5,-74.16 56.5,-73.14 58.65,-71.17 15.82,-69.14 16.57,-69.83 17.45,-70.2 18.33,-70.28 19.2,-70.2 20.07,-70.08 20.94,-69.93 21.76,-69.67 22.52,-69.27 23.22,-68.75 23.92,-68.22 24.71,-67.76 25.66,-67.43 26.75,-67.23 27.89,-67.14 28.91,-67.18 29.66,-67.3 30.08,-67.32" fill="none" stroke="rgb(185, 55, 55)" stroke-width="2" stroke-linejoin="round" filter="url(#fuzzy)" /><polyline points="21.79,-73.06 21.29,-73.49 20.62,-74.27 19.91,-75.23 19.2,-76.17 18.48,-76.99 17.73,-77.68 16.96,-78.31 16.2,-78.92 15.47,-79.56 14.75,-80.27 14.02,-81.12 13.25,-82.12 12.42,-83.27 11.53,-84.48 10.59,-85.67 9.63,-86.79 8.68,-87.85 7.75,-88.88 6.81,-89.9 5.87,-90.92 4.88,-91.99 3.86,-93.18 2.8,-94.49 2.1,-95.79 18.81,-74.54 20.42,-77.58 22.47,-81.27 23.83,-82.43 24.75,-81.92 25.57,-81.06 26.45,-80.44 27.42,-80.15 28.5,-80.1 29.65,-80.09 30.81,-79.94 31.9,-79.54 32.9,-78.96 33.89,-78.44 34.99,-78.27 36.32,-78.61 37.91,-79.43 39.64,-80.48 41.37,-81.52 43.01,-82.41 44.56,-83.12 46.02,-83.35 47.36,-82.64 48.82,-81.56" fill="none" stroke="rgb(185, 55, 55)" stroke-width="2" stroke-linejoin="round" filter="url(#fuzzy)" /><polyline points="17.62,-75.18 17.07,-75.44 16.31,-75.94 15.53,-76.58 14.82,-77.13 14.16,-77.54 13.46,-77.88 12.67,-78.23 11.77,-78.61 10.79,-79.02 9.79,-79.42 8.82,-79.78 7.89,-80.12 7.01,-80.49 6.14,-80.93 5.27,-81.41 4.39,-81.79 3.41,-82 1.91,-82.46" fill="none" stroke="rgb(185, 55, 55)" stroke-width="2" stroke-linejoin="round" filter="url(#fuzzy)" /><polyline points="17.21,-75.22 18.43,-77.55 19.63,-78.96 20.37,-78.25 20.96,-76.82 21.65,-75.71 22.55,-75.29 23.63,-75.54 24.86,-76.28 26.16,-77.27 27.49,-78.24 28.87,-79.03 30.36,-79.66 31.99,-80.27 33.69,-81.01 35.28,-81.92 36.49,-82.8 36.99,-82.77" fill="none" stroke="rgb(185, 55, 55)" stroke-width="2" stroke-linejoin="round" filter="url(#fuzzy)" /><polyline points="1.81,-78.04 3.25,-78.06 4.18,-78.05 5.04,-77.99 5.89,-77.91 6.73,-77.85 7.6,-77.77 8.5,-77.67 9.46,-77.51 10.47,-77.3 11.49,-77.04 12.44,-76.76 13.21,-76.51 13.76,-76.3 14.27,-76.12 15.27,-75.93" fill="none" stroke="rgb(185, 55, 55)" stroke-width="2" stroke-linejoin="round" filter="url(#fuzzy)" /><polyline points="13.55,-76.52 13.84,-76.5 14.33,-76.2 15.03,-75.72 15.82,-75.21 16.62,-74.74 17.41,-74.31 18.2,-73.87 18.97,-73.38 19.74,-72.83 20.51,-72.24 21.27,-71.64 22.03,-71.05 22.77,-70.48 23.5,-69.92 24.2,-69.31 24.92,-68.6 25.68,-67.77 26.48,-66.84 27.29,-65.92 27.96,-65.09 28.38,-64.43 28.59,-63.97 9.37,-77.85 8.06,-78.57 7.21,-79.47 6.43,-80.55 5.62,-82.05 4.81,-83.95 4.02,-85.72 3.24,-86.84 2.47,-87.16 1.66,-86.98 0.77,-86.79 -0.21,-86.94 -1.27,-87.47 -2.37,-88.27 -3.48,-89.23 -4.6,-90.39 -5.75,-91.88 -6.95,-93.75 -8.19,-95.83 -9.34,-97.8 -10.15,-99.29 -10.24,-100.27 -18.49,-84.58 -17.06,-84.02 -15.88,-83.77 -14.83,-83.8 -13.82,-83.95 -12.81,-84.03 -11.81,-83.98 -10.84,-83.78 -9.9,-83.45 -8.99,-83.01 -8.08,-82.52 -7.18,-82.07 -6.26,-81.73 -5.33,-81.52 -4.4,-81.37 -3.45,-81.17 -2.46,-80.83 -1.43,-80.35 -0.39,-79.82 0.57,-79.37 1.35,-79.07 1.95,-78.86 2.62,-78.7 4,-78.61" fill="none" stroke="rgb(185, 55, 55)" stroke-width="2" stroke-linejoin="round" filter="url(#fuzzy)" />
    </g>
    
        <g id="pointNose">
          <g id="rightNose"><circle r="2.7199999999999998" cx="6.298" cy="3.7199999999999998" stroke="black" fill="none" stroke-width="1.0" filter="url(#fuzzy)" /><circle r="2.7439999999999998" cx="6.43" cy="2.896" stroke="black" fill="none" stroke-width="1.0" filter="url(#fuzzy)" /><circle r="1.452" cx="7.050000000000001" cy="2.92" stroke="black" fill="none" stroke-width="1.0" filter="url(#fuzzy)" /><circle r="1.642" cx="9.746" cy="3.928" stroke="black" fill="none" stroke-width="1.0" filter="url(#fuzzy)" /><circle r="2.662" cx="7.85" cy="3.2560000000000002" stroke="black" fill="none" stroke-width="1.0" filter="url(#fuzzy)" /><circle r="2.74" cx="9.018" cy="2.096" stroke="black" fill="none" stroke-width="1.0" filter="url(#fuzzy)" /><circle r="1.626" cx="9.738" cy="2.768" stroke="black" fill="none" stroke-width="1.0" filter="url(#fuzzy)" /><circle r="2.326" cx="6.022" cy="0.34799999999999986" stroke="black" fill="none" stroke-width="1.0" filter="url(#fuzzy)" /><circle r="2.2640000000000002" cx="7.974" cy="3.6839999999999993" stroke="black" fill="none" stroke-width="1.0" filter="url(#fuzzy)" /><circle r="2.348" cx="7.622" cy="2.6799999999999997" stroke="black" fill="none" stroke-width="1.0" filter="url(#fuzzy)" /></g>
          <g id="leftNose"><circle r="2.932" cx="-6.394" cy="-3.7960000000000003" stroke="black" fill="none" stroke-width="1.0" filter="url(#fuzzy)" /><circle r="2.96" cx="-5.77" cy="-0.5520000000000005" stroke="black" fill="none" stroke-width="1.0" filter="url(#fuzzy)" /><circle r="1.968" cx="-8.698" cy="-2.176" stroke="black" fill="none" stroke-width="1.0" filter="url(#fuzzy)" /><circle r="1.1" cx="-7.7379999999999995" cy="-0.036000000000000476" stroke="black" fill="none" stroke-width="1.0" filter="url(#fuzzy)" /><circle r="2.502" cx="-9.074" cy="-2.184" stroke="black" fill="none" stroke-width="1.0" filter="url(#fuzzy)" /><circle r="2.366" cx="-8.702" cy="-1.8920000000000003" stroke="black" fill="none" stroke-width="1.0" filter="url(#fuzzy)" /><circle r="1.112" cx="-7.574" cy="-2.8080000000000003" stroke="black" fill="none" stroke-width="1.0" filter="url(#fuzzy)" /><circle r="1.1360000000000001" cx="-9.43" cy="-2.748" stroke="black" fill="none" stroke-width="1.0" filter="url(#fuzzy)" /><circle r="2.0940000000000003" cx="-6.266" cy="-3.2720000000000002" stroke="black" fill="none" stroke-width="1.0" filter="url(#fuzzy)" /><circle r="2.372" cx="-5.465999999999999" cy="-3.1000000000000005" stroke="black" fill="none" stroke-width="1.0" filter="url(#fuzzy)" /></g>
        </g>
      
    <g id="mouth">
      <polyline points="-32.13,25.72 -31.93,27.03 -31.69,28.29 -31.43,29.5 -31.14,30.67 -30.82,31.8 -30.48,32.88 -30.11,33.92 -29.71,34.91 -29.28,35.87 -28.83,36.78 -28.36,37.66 -27.86,38.5 -27.34,39.29 -26.8,40.05 -26.23,40.78 -25.65,41.46 -25.04,42.11 -24.41,42.73 -23.77,43.31 -23.1,43.86 -22.42,44.37 -21.72,44.86 -21,45.31 -20.27,45.73 -19.52,46.12 -18.75,46.48 -17.97,46.82 -17.18,47.12 -16.38,47.4 -15.56,47.65 -14.73,47.88 -13.88,48.08 -13.03,48.26 -12.17,48.41 -11.3,48.54 -10.42,48.65 -9.53,48.74 -8.63,48.81 -7.72,48.85 -6.81,48.88 -5.9,48.89 -4.98,48.88 -4.05,48.86 -3.12,48.81 -2.19,48.75 -1.25,48.68 -0.31,48.59 0.63,48.49 1.57,48.38 2.51,48.25 3.45,48.11 4.39,47.97 5.32,47.81 6.26,47.64 7.19,47.46 8.12,47.28 9.05,47.09 9.97,46.89 10.88,46.69 11.79,46.48 12.69,46.27 13.59,46.05 14.47,45.83 15.35,45.61 16.22,45.38 17.08,45.16 17.93,44.94 18.77,44.71 19.6,44.49 20.42,44.27 21.22,44.05 22.01,43.84 22.78,43.63 23.54,43.42 24.29,43.22 25.02,43.03 25.73,42.85 26.43,42.67 27.11,42.5 27.77,42.34 28.41,42.19 29.03,42.05 29.63,41.92 30.21,41.8 30.77,41.7 31.31,41.61 31.82,41.53 32.31,41.47 32.78,41.42 33.22,41.39 33.64,41.38 34.03,41.39 34.4,41.41 34.74,41.45 35.05,41.52 35.33,41.6 35.59,41.7 35.81,41.83 36.01,41.98 36.01,41.98 35.32,41.82 34.64,41.67 33.96,41.52 33.28,41.39 32.6,41.25 31.92,41.13 31.24,41.01 30.56,40.9 29.87,40.79 29.19,40.68 28.51,40.59 27.83,40.49 27.15,40.4 26.47,40.32 25.79,40.24 25.1,40.16 24.42,40.09 23.74,40.02 23.06,39.96 22.38,39.9 21.7,39.84 21.02,39.78 20.33,39.72 19.65,39.67 18.97,39.62 18.29,39.57 17.61,39.53 16.93,39.48 16.25,39.44 15.57,39.39 14.88,39.35 14.2,39.3 13.52,39.26 12.84,39.22 12.16,39.18 11.48,39.13 10.8,39.09 10.11,39.04 9.43,39 8.75,38.95 8.07,38.9 7.39,38.85 6.71,38.8 6.03,38.74 5.34,38.69 4.66,38.62 3.98,38.56 3.3,38.5 2.62,38.43 1.94,38.35 1.26,38.28 0.58,38.2 -0.11,38.11 -0.79,38.02 -1.47,37.93 -2.15,37.83 -2.83,37.72 -3.51,37.61 -4.19,37.5 -4.88,37.38 -5.56,37.25 -6.24,37.12 -6.92,36.98 -7.6,36.83 -8.28,36.68 -8.96,36.52 -9.65,36.35 -10.33,36.18 -11.01,36 -11.69,35.81 -12.37,35.61 -13.05,35.4 -13.73,35.19 -14.41,34.96 -15.1,34.73 -15.78,34.48 -16.46,34.23 -17.14,33.97 -17.82,33.7 -18.5,33.42 -19.18,33.12 -19.87,32.82 -20.55,32.51 -21.23,32.18 -21.91,31.85 -22.59,31.5 -23.27,31.14 -23.95,30.77 -24.64,30.38 -25.32,29.99 -26,29.58 -26.68,29.16 -27.36,28.72 -28.04,28.28 -28.72,27.82 -29.4,27.34 -30.09,26.85 -30.77,26.35 -31.45,25.83" fill="rgb(215,127,140)" stroke="black" stroke-width="3" stroke-linejoin="round" filter="url(#fuzzy)" />
    </g>
  </svg>
  