
  <svg viewBox="-100 -100 200 200" xmlns="http://www.w3.org/2000/svg" width="500" height="500" id="face-svg">
    <defs>
      <clipPath id="leftEyeClipPath">
        <polyline points="28.42,8.89 28.14,8.35 27.83,7.79 27.48,7.21 27.1,6.62 26.68,6.01 26.23,5.4 25.75,4.78 25.24,4.15 24.7,3.52 24.14,2.9 23.54,2.28 22.92,1.66 22.27,1.05 21.59,0.45 20.89,-0.14 20.19,-0.98 19.45,-1.81 18.66,-2.6 17.84,-3.37 16.98,-4.1 16.09,-4.8 15.17,-5.46 14.22,-6.09 13.24,-6.67 12.24,-7.21 11.22,-7.7 10.19,-8.16 9.13,-8.56 8.07,-8.92 6.99,-9.23 5.91,-9.5 4.83,-9.71 3.75,-9.88 2.66,-10.01 1.59,-10.09 0.52,-10.12 -0.54,-10.11 -1.59,-10.05 -2.63,-9.96 -3.64,-9.82 -4.64,-9.64 -5.62,-9.42 -6.58,-9.17 -7.51,-8.88 -8.42,-8.56 -9.3,-8.21 -10.15,-7.83 -10.98,-7.42 -11.77,-6.99 -12.54,-6.53 -13.27,-6.05 -13.98,-5.56 -14.65,-5.04 -15.29,-4.51 -15.9,-3.97 -16.48,-3.42 -17.03,-2.86 -17.55,-2.3 -18.04,-1.72 -18.51,-1.15 -18.94,-0.58 -19.35,-0.01 -19.74,0.56 -20.1,1.12 -20.45,1.68 -20.77,2.23 -21.07,2.77 -21.34,3.31 -21.6,3.85 -21.84,4.38 -22.05,4.91 -22.25,5.43 -22.43,5.93 -22.59,6.43 -22.73,6.92 -22.86,7.4 -22.97,7.87 -23.07,8.33 -23.15,8.77 -20.55,10.43 -20.17,10.52 -19.77,10.6 -19.37,10.66 -18.95,10.72 -18.52,10.76 -18.08,10.8 -17.63,10.82 -17.17,10.83 -16.7,10.84 -16.21,10.83 -15.71,10.82 -15.2,10.81 -14.68,10.78 -14.15,10.75 -13.6,10.71 -13.04,10.66 -12.47,10.61 -11.88,10.55 -11.28,10.49 -10.66,10.43 -10.02,10.36 -9.37,10.29 -8.71,10.22 -8.03,10.16 -7.34,10.09 -6.63,10.03 -5.91,9.97 -5.18,9.91 -4.43,9.86 -3.67,9.82 -2.89,9.78 -2.11,9.75 -1.31,9.73 -0.51,9.72 0.31,9.72 1.13,9.73 1.96,9.75 2.8,9.78 3.64,9.82 4.49,9.87 5.34,9.93 6.2,10.01 7.05,10.1 7.91,10.19 8.76,10.3 9.61,10.42 10.46,10.55 11.31,10.69 12.14,10.84 12.97,11 13.79,11.16 14.6,11.33 15.4,11.51 16.18,11.69 16.96,11.87 17.71,12.06 18.45,12.24 19.17,12.43 19.87,12.61 20.55,12.79 21.21,12.96 21.84,13.13 22.45,13.28 23.04,13.43 23.59,13.51 24.11,13.58 24.62,13.64 25.11,13.69 25.58,13.72 26.03,13.73 26.46,13.72 26.87,13.7 27.26,13.65 27.62,13.58 27.96,13.49 28.27,13.37 28.56,13.22 28.82,13.04 29.05,12.83" />
      </clipPath>
      <clipPath id="rightEyeClipPath">
        <polyline points="-29.11,4.82 -28.85,4.06 -28.55,3.28 -28.22,2.49 -27.86,1.68 -27.47,0.88 -27.05,0.07 -26.6,-0.74 -26.12,-1.54 -25.61,-2.33 -25.07,-3.1 -24.5,-3.86 -23.9,-4.61 -23.27,-5.33 -22.62,-6.03 -21.94,-6.7 -21.31,-7.79 -20.63,-8.82 -19.9,-9.8 -19.13,-10.71 -18.31,-11.56 -17.45,-12.34 -16.55,-13.05 -15.62,-13.7 -14.65,-14.27 -13.65,-14.76 -12.62,-15.19 -11.57,-15.54 -10.49,-15.83 -9.4,-16.04 -8.29,-16.19 -7.17,-16.26 -6.04,-16.27 -4.9,-16.22 -3.76,-16.11 -2.62,-15.94 -1.48,-15.71 -0.35,-15.43 0.77,-15.09 1.88,-14.71 2.97,-14.28 4.05,-13.81 5.11,-13.3 6.15,-12.76 7.16,-12.18 8.15,-11.57 9.12,-10.93 10.05,-10.27 10.96,-9.59 11.84,-8.89 12.68,-8.18 13.49,-7.46 14.27,-6.72 15.02,-5.98 15.73,-5.23 16.42,-4.48 17.06,-3.74 17.68,-2.99 18.26,-2.25 18.81,-1.52 19.33,-0.79 19.82,-0.07 20.29,0.63 20.73,1.32 21.14,2.01 21.53,2.67 21.89,3.33 22.23,3.97 22.55,4.6 22.85,5.22 23.12,5.82 23.37,6.41 23.6,6.98 23.81,7.54 24,8.09 24.17,8.62 24.33,9.14 24.46,9.63 24.58,10.12 24.68,10.58 23.12,14.9 22.75,14.97 22.38,15.05 21.99,15.11 21.58,15.16 21.17,15.21 20.74,15.25 20.3,15.28 19.84,15.3 19.36,15.32 18.88,15.33 18.37,15.33 17.85,15.33 17.32,15.32 16.77,15.31 16.2,15.29 15.62,15.26 15.02,15.23 14.39,15.2 13.75,15.16 13.09,15.11 12.41,15.07 11.71,15.02 10.99,14.96 10.25,14.91 9.49,14.86 8.71,14.8 7.91,14.75 7.08,14.69 6.24,14.64 5.39,14.59 4.51,14.54 3.62,14.49 2.72,14.45 1.79,14.41 0.86,14.38 -0.08,14.35 -1.04,14.32 -2,14.3 -2.97,14.28 -3.95,14.27 -4.93,14.26 -5.91,14.26 -6.89,14.27 -7.87,14.27 -8.84,14.29 -9.81,14.31 -10.77,14.33 -11.72,14.35 -12.66,14.38 -13.58,14.41 -14.49,14.45 -15.38,14.48 -16.25,14.51 -17.09,14.55 -17.91,14.58 -18.7,14.61 -19.47,14.63 -20.2,14.65 -20.9,14.66 -21.57,14.67 -22.21,14.66 -22.81,14.64 -23.38,14.61 -23.9,14.57 -24.45,14.45 -24.98,14.32 -25.49,14.16 -25.97,13.99 -26.43,13.79 -26.87,13.56 -27.28,13.31 -27.67,13.02 -28.03,12.7 -28.37,12.35 -28.69,11.97 -28.98,11.54 -29.24,11.08 -29.48,10.57 -29.69,10.01" />
      </clipPath>
      <filter id="fuzzy">
        <feTurbulence id="turbulence" baseFrequency="0.05" numOctaves="3" type="noise" result="noise" />
        <feDisplacementMap in="SourceGraphic" in2="noise" scale="2" />
      </filter>
      <linearGradient id="rainbowGradient" x1="0%" y1="0%" x2="100%" y2="0%">
        <stop offset="0%" style="stop-color: rgb(80, 68, 68); stop-opacity: 1" />
        <stop offset="50%" style="stop-color: rgb(0, 0, 0); stop-opacity: 1" />
        <stop offset="100%" style="stop-color: rgb(123, 104, 238); stop-opacity: 1" />
      </linearGradient>
    </defs>
    <rect x="-100" y="-100" width="100%" height="100%" fill="rgb(85, 107, 47)" />
    <polyline id="faceContour" points="62.08,2.14 62.28,2.75 62.32,1.81 62.16,4.9 62.03,3.68 62.11,8.15 61.9,7.38 61.74,10.22 61.62,11.4 61.65,10.5 61.31,15.33 61.01,16.67 61.2,15.13 60.56,18.83 60.92,18.46 60.5,20.83 59.89,23.15 60.28,21.77 60.35,21.71 59.72,23.43 58.86,27.52 58.83,28.26 58.87,28.4 57.98,31.31 57.53,32.87 57.43,33.2 57.62,32.98 56.46,35.6 56.67,35.17 55.04,39.8 54.84,40.35 54.9,40.57 54.72,40.47 53.22,44.55 53.45,44.18 53.41,43.99 52.59,45.39 52.88,45.2 51.5,48.09 50.55,49.64 51,49.19 50.07,50.94 49.89,51.43 48.6,53.74 47.84,54.85 47.35,55.75 47.46,55.92 45.42,58.77 45.36,58.45 43.93,60.54 43.15,61.87 42.76,62.24 43.38,61.17 41.21,64.05 41.03,64.41 41.22,64.44 39.57,65.87 39.31,66.55 38.25,67.85 37.27,68.4 36.59,69.36 36.91,69.15 34.59,71.03 33.31,72.35 33.94,71.98 33.08,72.88 30.49,74.87 32.05,73.63 29.71,75.36 29.19,75.61 29.02,75.88 26.64,77.46 26.38,77.63 26.37,77.73 25.4,78.28 23.01,79.63 22.45,79.84 22.75,79.89 21.5,80.33 20.69,80.65 17.79,82.39 18.3,81.96 17.76,82.21 16.92,82.6 15.15,82.92 14.2,83.26 12.54,84.04 11.9,84.24 12.05,83.98 10.83,84.49 9.35,84.58 9.08,84.78 8.8,84.93 7.14,85.28 6.2,85.21 6.22,85.19 4.97,85.46 2.98,85.56 2.57,85.76 2.36,85.7 -0.08,85.85 -0.2,85.5 -1.9,85.72 -2.32,85.62 -3.74,85.73 -5.32,85.54 -5.33,85.46 -6.12,85.29 -8.32,85.07 -7.06,85.27 -10.27,84.57 -11.14,84.36 -10.28,84.43 -12.16,84.05 -12.97,84.03 -15.42,82.81 -15.93,82.84 -15.72,82.87 -18.12,81.91 -18.5,81.92 -18.61,81.8 -20.55,81.01 -20.65,80.99 -21.38,80.32 -22.27,80.16 -24.44,78.63 -23.31,79.32 -25.44,78.35 -27.14,77.13 -27.6,76.59 -27.3,77.35 -29.21,75.69 -30.62,74.86 -31.4,74.24 -31.3,74.37 -32.29,73.44 -33.21,72.44 -34.31,71.3 -34.27,71.63 -36.2,70.06 -37.49,68.7 -37.54,68.5 -37.12,68.81 -39.16,66.43 -40.06,65.92 -40.57,64.81 -41.31,63.85 -41.63,63.64 -43,62.43 -43.47,61.38 -44.87,59.66 -44.84,59.64 -46.31,57.29 -45.97,58.23 -46.34,57.15 -48.16,54.53 -47.83,55.11 -48.97,53.51 -49.67,51.78 -49.69,51.67 -50.36,50.49 -51.49,47.61 -51.57,48.23 -51.8,47.65 -52.05,47.16 -52.61,45.44 -53.57,44.09 -53.84,42.99 -54.06,42.8 -54.73,40.35 -55.67,38.65 -56.01,37.46 -56.11,36.56 -56.72,35.68 -57.12,34.62 -57.98,31.34 -58.14,30.23 -58.43,29.78 -58.68,28.73 -58.88,27.87 -59.02,27.41 -60.04,23.23 -59.53,24.63 -60.29,20.82 -60.26,21.8 -60.67,19.12 -61.07,17.23 -60.99,18.29 -61.08,15.54 -61.21,15.5 -61.65,12.62 -61.86,11.07 -61.72,10.28 -61.71,10.54 -61.81,8.52 -62,5.2 -62.25,4.56 -62.07,4.64 -62.13,2.09 -62.24,0.02 -62.33,-0.42 -62.18,-2.08 -62.34,-2.05 -62.18,-4.24 -62.2,-3.92 -62.2,-5.3 -61.94,-8.63 -61.87,-9.88 -61.74,-9.52 -61.71,-11.9 -61.64,-13.13 -61.47,-13.36 -61.05,-15.99 -61.16,-15.96 -60.8,-18.86 -60.67,-19.44 -60.38,-20.08 -60.12,-22.13 -60.04,-22.6 -59.64,-24.41 -59.6,-24.72 -58.97,-27.65 -58.51,-29.6 -58.68,-28.65 -57.54,-32.96 -57.63,-32.35 -57.16,-34.15 -56.85,-35.39 -56.34,-36.18 -55.91,-37.53 -54.95,-40.25 -54.58,-41.6 -54.96,-40.68 -54.09,-42.73 -53.23,-44.39 -52.63,-45.84 -52.26,-46.94 -51.99,-47.27 -51.97,-47.29 -51.12,-49.16 -50.12,-50.79 -50.21,-50.91 -49.94,-51.75 -49.1,-53.13 -47.81,-54.97 -47.68,-55.25 -47.26,-55.57 -45.19,-59.11 -46.11,-57.59 -44.74,-59.46 -44.55,-59.81 -43.06,-61.72 -42.48,-62.44 -41.76,-63.85 -40.97,-64.44 -41.15,-64.44 -39.5,-66.18 -37.73,-68.05 -38.84,-66.98 -38.46,-67.69 -35.68,-70.21 -34.73,-71.08 -35.02,-70.76 -34.07,-71.44 -32.76,-73.2 -32.51,-73.27 -30.8,-74.62 -29.83,-75.14 -29.58,-75.68 -29.34,-75.73 -28.1,-76.43 -27.49,-77.12 -27.41,-76.83 -25.56,-78.2 -25.78,-78.03 -23.49,-79.42 -23.07,-79.79 -22.42,-79.85 -20.89,-80.67 -20.55,-81 -17.67,-82.27 -17.02,-82.52 -18.94,-81.78 -16.6,-82.6 -15.96,-82.96 -15.51,-83.18 -13.69,-83.58 -11.01,-84.14 -11.04,-84.44 -10.25,-84.7 -8.76,-84.96 -7.85,-84.98 -8.67,-85.06 -6.2,-85.24 -6.55,-85.4 -6.09,-85.1 -5.31,-85.5 -2.65,-85.83 -2.7,-85.72 -0.72,-85.76 0.35,-85.75 1.46,-85.88 3.36,-85.8 1.84,-85.89 2.96,-85.48 4.03,-85.6 6.34,-85.17 8.19,-84.81 7.61,-85.03 9.23,-84.9 9.45,-84.53 10.43,-84.6 11.01,-84.32 13.1,-83.65 14.22,-83.27 15.44,-83.14 16.27,-82.56 16.32,-82.59 17.66,-82.14 17.54,-82.08 18.9,-81.65 19.18,-81.49 21.69,-80.26 21.68,-80.31 23.53,-79.25 23.5,-79.53 24.22,-79.01 25.93,-78.04 25.47,-78.1 25.82,-78.02 28.93,-75.9 28.44,-76.32 30.9,-74.26 31.54,-74.03 30.58,-74.56 31.57,-73.94 32.27,-73.3 33.79,-72.21 34.93,-70.68 34.53,-71.54 35.67,-70.28 37.84,-68.3 39,-66.81 38.74,-66.99 39.99,-65.76 40.25,-65.26 41.1,-64.05 41.22,-63.81 41.96,-62.81 43.11,-61.99 44.72,-59.81 44.36,-60.12 44.62,-59.83 46.57,-56.85 46.63,-57.06 47.05,-56.12 48.41,-53.86 48.31,-54.03 50.03,-51.29 49.38,-52.73 50.07,-50.98 50.93,-49.05 52.17,-46.91 52,-47.07 52.3,-46.58 53.41,-44.1 53.67,-43.67 53.36,-44.26 54.69,-40.98 55.42,-38.86 55.59,-38.47 56.02,-37.34 56.05,-37.56 56.8,-34.87 57.19,-33.65 57.61,-32.16 57.72,-32.19 58.45,-28.88 58.71,-28.54 59.22,-26.95 59.27,-26.61 59.52,-25.04 59.44,-25.4 60.02,-22.98 60.36,-20.29 60.59,-19.64 60.84,-18.36 61.17,-16.66 61,-16.88 61.46,-14.46 61.31,-14.49 61.68,-11.04 61.65,-11.1 61.66,-10.06 61.91,-8.76 62.01,-6.65 62.15,-4.72 62.03,-6.17 62.3,-2.56 62.25,-2.86 62.08,2.14 62.28,2.75" fill="rgb(255, 99, 71)" stroke="black" stroke-width="1.6666666666666665" stroke-linejoin="round" filter="url(#fuzzy)" />
    <g transform="translate(31.119999999999997 -28.1)">
      <polyline id="rightCountour" points="-29.11,4.82 -28.85,4.06 -28.55,3.28 -28.22,2.49 -27.86,1.68 -27.47,0.88 -27.05,0.07 -26.6,-0.74 -26.12,-1.54 -25.61,-2.33 -25.07,-3.1 -24.5,-3.86 -23.9,-4.61 -23.27,-5.33 -22.62,-6.03 -21.94,-6.7 -21.31,-7.79 -20.63,-8.82 -19.9,-9.8 -19.13,-10.71 -18.31,-11.56 -17.45,-12.34 -16.55,-13.05 -15.62,-13.7 -14.65,-14.27 -13.65,-14.76 -12.62,-15.19 -11.57,-15.54 -10.49,-15.83 -9.4,-16.04 -8.29,-16.19 -7.17,-16.26 -6.04,-16.27 -4.9,-16.22 -3.76,-16.11 -2.62,-15.94 -1.48,-15.71 -0.35,-15.43 0.77,-15.09 1.88,-14.71 2.97,-14.28 4.05,-13.81 5.11,-13.3 6.15,-12.76 7.16,-12.18 8.15,-11.57 9.12,-10.93 10.05,-10.27 10.96,-9.59 11.84,-8.89 12.68,-8.18 13.49,-7.46 14.27,-6.72 15.02,-5.98 15.73,-5.23 16.42,-4.48 17.06,-3.74 17.68,-2.99 18.26,-2.25 18.81,-1.52 19.33,-0.79 19.82,-0.07 20.29,0.63 20.73,1.32 21.14,2.01 21.53,2.67 21.89,3.33 22.23,3.97 22.55,4.6 22.85,5.22 23.12,5.82 23.37,6.41 23.6,6.98 23.81,7.54 24,8.09 24.17,8.62 24.33,9.14 24.46,9.63 24.58,10.12 24.68,10.58 23.12,14.9 22.75,14.97 22.38,15.05 21.99,15.11 21.58,15.16 21.17,15.21 20.74,15.25 20.3,15.28 19.84,15.3 19.36,15.32 18.88,15.33 18.37,15.33 17.85,15.33 17.32,15.32 16.77,15.31 16.2,15.29 15.62,15.26 15.02,15.23 14.39,15.2 13.75,15.16 13.09,15.11 12.41,15.07 11.71,15.02 10.99,14.96 10.25,14.91 9.49,14.86 8.71,14.8 7.91,14.75 7.08,14.69 6.24,14.64 5.39,14.59 4.51,14.54 3.62,14.49 2.72,14.45 1.79,14.41 0.86,14.38 -0.08,14.35 -1.04,14.32 -2,14.3 -2.97,14.28 -3.95,14.27 -4.93,14.26 -5.91,14.26 -6.89,14.27 -7.87,14.27 -8.84,14.29 -9.81,14.31 -10.77,14.33 -11.72,14.35 -12.66,14.38 -13.58,14.41 -14.49,14.45 -15.38,14.48 -16.25,14.51 -17.09,14.55 -17.91,14.58 -18.7,14.61 -19.47,14.63 -20.2,14.65 -20.9,14.66 -21.57,14.67 -22.21,14.66 -22.81,14.64 -23.38,14.61 -23.9,14.57 -24.45,14.45 -24.98,14.32 -25.49,14.16 -25.97,13.99 -26.43,13.79 -26.87,13.56 -27.28,13.31 -27.67,13.02 -28.03,12.7 -28.37,12.35 -28.69,11.97 -28.98,11.54 -29.24,11.08 -29.48,10.57 -29.69,10.01" fill="white" stroke="white" stroke-width="0" stroke-linejoin="round" filter="url(#fuzzy)" />
    </g>
    <g transform="translate(-40.75 -28.69)">
      <polyline id="leftCountour" points="28.42,8.89 28.14,8.35 27.83,7.79 27.48,7.21 27.1,6.62 26.68,6.01 26.23,5.4 25.75,4.78 25.24,4.15 24.7,3.52 24.14,2.9 23.54,2.28 22.92,1.66 22.27,1.05 21.59,0.45 20.89,-0.14 20.19,-0.98 19.45,-1.81 18.66,-2.6 17.84,-3.37 16.98,-4.1 16.09,-4.8 15.17,-5.46 14.22,-6.09 13.24,-6.67 12.24,-7.21 11.22,-7.7 10.19,-8.16 9.13,-8.56 8.07,-8.92 6.99,-9.23 5.91,-9.5 4.83,-9.71 3.75,-9.88 2.66,-10.01 1.59,-10.09 0.52,-10.12 -0.54,-10.11 -1.59,-10.05 -2.63,-9.96 -3.64,-9.82 -4.64,-9.64 -5.62,-9.42 -6.58,-9.17 -7.51,-8.88 -8.42,-8.56 -9.3,-8.21 -10.15,-7.83 -10.98,-7.42 -11.77,-6.99 -12.54,-6.53 -13.27,-6.05 -13.98,-5.56 -14.65,-5.04 -15.29,-4.51 -15.9,-3.97 -16.48,-3.42 -17.03,-2.86 -17.55,-2.3 -18.04,-1.72 -18.51,-1.15 -18.94,-0.58 -19.35,-0.01 -19.74,0.56 -20.1,1.12 -20.45,1.68 -20.77,2.23 -21.07,2.77 -21.34,3.31 -21.6,3.85 -21.84,4.38 -22.05,4.91 -22.25,5.43 -22.43,5.93 -22.59,6.43 -22.73,6.92 -22.86,7.4 -22.97,7.87 -23.07,8.33 -23.15,8.77 -20.55,10.43 -20.17,10.52 -19.77,10.6 -19.37,10.66 -18.95,10.72 -18.52,10.76 -18.08,10.8 -17.63,10.82 -17.17,10.83 -16.7,10.84 -16.21,10.83 -15.71,10.82 -15.2,10.81 -14.68,10.78 -14.15,10.75 -13.6,10.71 -13.04,10.66 -12.47,10.61 -11.88,10.55 -11.28,10.49 -10.66,10.43 -10.02,10.36 -9.37,10.29 -8.71,10.22 -8.03,10.16 -7.34,10.09 -6.63,10.03 -5.91,9.97 -5.18,9.91 -4.43,9.86 -3.67,9.82 -2.89,9.78 -2.11,9.75 -1.31,9.73 -0.51,9.72 0.31,9.72 1.13,9.73 1.96,9.75 2.8,9.78 3.64,9.82 4.49,9.87 5.34,9.93 6.2,10.01 7.05,10.1 7.91,10.19 8.76,10.3 9.61,10.42 10.46,10.55 11.31,10.69 12.14,10.84 12.97,11 13.79,11.16 14.6,11.33 15.4,11.51 16.18,11.69 16.96,11.87 17.71,12.06 18.45,12.24 19.17,12.43 19.87,12.61 20.55,12.79 21.21,12.96 21.84,13.13 22.45,13.28 23.04,13.43 23.59,13.51 24.11,13.58 24.62,13.64 25.11,13.69 25.58,13.72 26.03,13.73 26.46,13.72 26.87,13.7 27.26,13.65 27.62,13.58 27.96,13.49 28.27,13.37 28.56,13.22 28.82,13.04 29.05,12.83" fill="white" stroke="white" stroke-width="0" stroke-linejoin="round" filter="url(#fuzzy)" />
    </g>
    <g transform="translate(31.119999999999997 -28.1)">
      <polyline id="rightUpper" points="-30.15,10.14 -30.17,9.89 -30.16,9.56 -30.13,9.15 -30.07,8.68 -29.99,8.15 -29.87,7.56 -29.73,6.93 -29.55,6.26 -29.35,5.55 -29.11,4.82 -28.85,4.06 -28.55,3.28 -28.22,2.49 -27.86,1.68 -27.47,0.88 -27.05,0.07 -26.6,-0.74 -26.12,-1.54 -25.61,-2.33 -25.07,-3.1 -24.5,-3.86 -23.9,-4.61 -23.27,-5.33 -22.62,-6.03 -21.94,-6.7 -21.31,-7.79 -20.63,-8.82 -19.9,-9.8 -19.13,-10.71 -18.31,-11.56 -17.45,-12.34 -16.55,-13.05 -15.62,-13.7 -14.65,-14.27 -13.65,-14.76 -12.62,-15.19 -11.57,-15.54 -10.49,-15.83 -9.4,-16.04 -8.29,-16.19 -7.17,-16.26 -6.04,-16.27 -4.9,-16.22 -3.76,-16.11 -2.62,-15.94 -1.48,-15.71 -0.35,-15.43 0.77,-15.09 1.88,-14.71 2.97,-14.28 4.05,-13.81 5.11,-13.3 6.15,-12.76 7.16,-12.18 8.15,-11.57 9.12,-10.93 10.05,-10.27 10.96,-9.59 11.84,-8.89 12.68,-8.18 13.49,-7.46 14.27,-6.72 15.02,-5.98 15.73,-5.23 16.42,-4.48 17.06,-3.74 17.68,-2.99 18.26,-2.25 18.81,-1.52 19.33,-0.79 19.82,-0.07 20.29,0.63 20.73,1.32 21.14,2.01 21.53,2.67 21.89,3.33 22.23,3.97 22.55,4.6 22.85,5.22 23.12,5.82 23.37,6.41 23.6,6.98 23.81,7.54 24,8.09 24.17,8.62 24.33,9.14 24.46,9.63 24.58,10.12 24.68,10.58 24.77,11.04 24.84,11.47 24.9,11.89 24.95,12.29 24.98,12.68 25,13.05 25.01,13.41 25.01,13.75 24.99,14.08 24.97,14.39" fill="none" stroke="black" stroke-width="1.6666666666666665" stroke-linejoin="round" filter="url(#fuzzy)" />
      <polyline id="rightLower" points="-30.41,1.33 -30.45,2.5 -30.46,3.59 -30.45,4.62 -30.42,5.57 -30.36,6.46 -30.28,7.28 -30.17,8.05 -30.03,8.75 -29.87,9.41 -29.69,10.01 -29.48,10.57 -29.24,11.08 -28.98,11.54 -28.69,11.97 -28.37,12.35 -28.03,12.7 -27.67,13.02 -27.28,13.31 -26.87,13.56 -26.43,13.79 -25.97,13.99 -25.49,14.16 -24.98,14.32 -24.45,14.45 -23.9,14.57 -23.38,14.61 -22.81,14.64 -22.21,14.66 -21.57,14.67 -20.9,14.66 -20.2,14.65 -19.47,14.63 -18.7,14.61 -17.91,14.58 -17.09,14.55 -16.25,14.51 -15.38,14.48 -14.49,14.45 -13.58,14.41 -12.66,14.38 -11.72,14.35 -10.77,14.33 -9.81,14.31 -8.84,14.29 -7.87,14.27 -6.89,14.27 -5.91,14.26 -4.93,14.26 -3.95,14.27 -2.97,14.28 -2,14.3 -1.04,14.32 -0.08,14.35 0.86,14.38 1.79,14.41 2.72,14.45 3.62,14.49 4.51,14.54 5.39,14.59 6.24,14.64 7.08,14.69 7.91,14.75 8.71,14.8 9.49,14.86 10.25,14.91 10.99,14.96 11.71,15.02 12.41,15.07 13.09,15.11 13.75,15.16 14.39,15.2 15.02,15.23 15.62,15.26 16.2,15.29 16.77,15.31 17.32,15.32 17.85,15.33 18.37,15.33 18.88,15.33 19.36,15.32 19.84,15.3 20.3,15.28 20.74,15.25 21.17,15.21 21.58,15.16 21.99,15.11 22.38,15.05 22.75,14.97 23.12,14.9 23.47,14.81 23.81,14.71 24.14,14.61 24.45,14.5 24.76,14.38 25.06,14.25 25.34,14.11 25.62,13.96 25.89,13.81 26.14,13.65" fill="none" stroke="black" stroke-width="2.2222222222222223" stroke-linejoin="round" filter="url(#fuzzy)" />
      <circle r="3.564" cx="7.8172777228230075" cy="-3.2412698887297946" stroke="black" fill="none" stroke-width="1.0" filter="url(#fuzzy)" clip-path="url(#rightEyeClipPath)" /><circle r="4.888" cx="9.292277722823009" cy="-5.541269888729794" stroke="black" fill="none" stroke-width="1.0" filter="url(#fuzzy)" clip-path="url(#rightEyeClipPath)" /><circle r="4.098" cx="8.39727772282301" cy="-4.251269888729794" stroke="black" fill="none" stroke-width="1.0" filter="url(#fuzzy)" clip-path="url(#rightEyeClipPath)" /><circle r="3.296" cx="10.892277722823009" cy="-4.1212698887297945" stroke="black" fill="none" stroke-width="1.0" filter="url(#fuzzy)" clip-path="url(#rightEyeClipPath)" /><circle r="4.746" cx="6.342277722823008" cy="-3.2012698887297946" stroke="black" fill="none" stroke-width="1.0" filter="url(#fuzzy)" clip-path="url(#rightEyeClipPath)" /><circle r="4.632" cx="8.512277722823008" cy="-5.0362698887297945" stroke="black" fill="none" stroke-width="1.0" filter="url(#fuzzy)" clip-path="url(#rightEyeClipPath)" /><circle r="4.53" cx="7.207277722823008" cy="-4.986269888729795" stroke="black" fill="none" stroke-width="1.0" filter="url(#fuzzy)" clip-path="url(#rightEyeClipPath)" /><circle r="3.412" cx="8.707277722823008" cy="-1.9862698887297947" stroke="black" fill="none" stroke-width="1.0" filter="url(#fuzzy)" clip-path="url(#rightEyeClipPath)" /><circle r="4.0920000000000005" cx="10.477277722823008" cy="-3.7112698887297944" stroke="black" fill="none" stroke-width="1.0" filter="url(#fuzzy)" clip-path="url(#rightEyeClipPath)" /><circle r="3.022" cx="8.437277722823008" cy="-4.791269888729794" stroke="black" fill="none" stroke-width="1.0" filter="url(#fuzzy)" clip-path="url(#rightEyeClipPath)" />
      </g>
    <g transform="translate(-40.75 -28.69)">
      <polyline id="leftUpper" points="29.21,12.33 29.3,12.21 29.35,12.02 29.36,11.78 29.34,11.49 29.28,11.15 29.18,10.77 29.05,10.35 28.88,9.89 28.67,9.4 28.42,8.89 28.14,8.35 27.83,7.79 27.48,7.21 27.1,6.62 26.68,6.01 26.23,5.4 25.75,4.78 25.24,4.15 24.7,3.52 24.14,2.9 23.54,2.28 22.92,1.66 22.27,1.05 21.59,0.45 20.89,-0.14 20.19,-0.98 19.45,-1.81 18.66,-2.6 17.84,-3.37 16.98,-4.1 16.09,-4.8 15.17,-5.46 14.22,-6.09 13.24,-6.67 12.24,-7.21 11.22,-7.7 10.19,-8.16 9.13,-8.56 8.07,-8.92 6.99,-9.23 5.91,-9.5 4.83,-9.71 3.75,-9.88 2.66,-10.01 1.59,-10.09 0.52,-10.12 -0.54,-10.11 -1.59,-10.05 -2.63,-9.96 -3.64,-9.82 -4.64,-9.64 -5.62,-9.42 -6.58,-9.17 -7.51,-8.88 -8.42,-8.56 -9.3,-8.21 -10.15,-7.83 -10.98,-7.42 -11.77,-6.99 -12.54,-6.53 -13.27,-6.05 -13.98,-5.56 -14.65,-5.04 -15.29,-4.51 -15.9,-3.97 -16.48,-3.42 -17.03,-2.86 -17.55,-2.3 -18.04,-1.72 -18.51,-1.15 -18.94,-0.58 -19.35,-0.01 -19.74,0.56 -20.1,1.12 -20.45,1.68 -20.77,2.23 -21.07,2.77 -21.34,3.31 -21.6,3.85 -21.84,4.38 -22.05,4.91 -22.25,5.43 -22.43,5.93 -22.59,6.43 -22.73,6.92 -22.86,7.4 -22.97,7.87 -23.07,8.33 -23.15,8.77 -23.22,9.2 -23.27,9.62 -23.31,10.03 -23.34,10.43 -23.36,10.81 -23.36,11.18 -23.36,11.53 -23.34,11.88 -23.31,12.21 -23.28,12.52" fill="none" stroke="black" stroke-width="2.2222222222222223" stroke-linejoin="round" filter="url(#fuzzy)" />
      <polyline id="leftLower" points="29.68,8.6 29.77,9.23 29.82,9.81 29.84,10.34 29.82,10.82 29.77,11.26 29.69,11.65 29.57,12 29.43,12.32 29.25,12.59 29.05,12.83 28.82,13.04 28.56,13.22 28.27,13.37 27.96,13.49 27.62,13.58 27.26,13.65 26.87,13.7 26.46,13.72 26.03,13.73 25.58,13.72 25.11,13.69 24.62,13.64 24.11,13.58 23.59,13.51 23.04,13.43 22.45,13.28 21.84,13.13 21.21,12.96 20.55,12.79 19.87,12.61 19.17,12.43 18.45,12.24 17.71,12.06 16.96,11.87 16.18,11.69 15.4,11.51 14.6,11.33 13.79,11.16 12.97,11 12.14,10.84 11.31,10.69 10.46,10.55 9.61,10.42 8.76,10.3 7.91,10.19 7.05,10.1 6.2,10.01 5.34,9.93 4.49,9.87 3.64,9.82 2.8,9.78 1.96,9.75 1.13,9.73 0.31,9.72 -0.51,9.72 -1.31,9.73 -2.11,9.75 -2.89,9.78 -3.67,9.82 -4.43,9.86 -5.18,9.91 -5.91,9.97 -6.63,10.03 -7.34,10.09 -8.03,10.16 -8.71,10.22 -9.37,10.29 -10.02,10.36 -10.66,10.43 -11.28,10.49 -11.88,10.55 -12.47,10.61 -13.04,10.66 -13.6,10.71 -14.15,10.75 -14.68,10.78 -15.2,10.81 -15.71,10.82 -16.21,10.83 -16.7,10.84 -17.17,10.83 -17.63,10.82 -18.08,10.8 -18.52,10.76 -18.95,10.72 -19.37,10.66 -19.77,10.6 -20.17,10.52 -20.55,10.43 -20.93,10.33 -21.29,10.22 -21.64,10.09 -21.99,9.96 -22.32,9.81 -22.64,9.65 -22.96,9.47 -23.27,9.29 -23.56,9.09 -23.85,8.88" fill="none" stroke="black" stroke-width="2.2222222222222223" stroke-linejoin="round" filter="url(#fuzzy)" />
      <circle r="4.6739999999999995" cx="-17.41873922811282" cy="5.922508160391796" stroke="black" fill="none" stroke-width="1.0" filter="url(#fuzzy)" clip-path="url(#leftEyeClipPath)" /><circle r="3.636" cx="-19.30873922811282" cy="7.067508160391798" stroke="black" fill="none" stroke-width="1.0" filter="url(#fuzzy)" clip-path="url(#leftEyeClipPath)" /><circle r="4.32" cx="-17.95373922811282" cy="8.357508160391797" stroke="black" fill="none" stroke-width="1.0" filter="url(#fuzzy)" clip-path="url(#leftEyeClipPath)" /><circle r="4.8260000000000005" cx="-17.163739228112817" cy="6.102508160391798" stroke="black" fill="none" stroke-width="1.0" filter="url(#fuzzy)" clip-path="url(#leftEyeClipPath)" /><circle r="4.402" cx="-19.463739228112818" cy="9.357508160391797" stroke="black" fill="none" stroke-width="1.0" filter="url(#fuzzy)" clip-path="url(#leftEyeClipPath)" /><circle r="3.074" cx="-17.00873922811282" cy="6.037508160391797" stroke="black" fill="none" stroke-width="1.0" filter="url(#fuzzy)" clip-path="url(#leftEyeClipPath)" /><circle r="4.856" cx="-16.94373922811282" cy="8.367508160391797" stroke="black" fill="none" stroke-width="1.0" filter="url(#fuzzy)" clip-path="url(#leftEyeClipPath)" /><circle r="4.5760000000000005" cx="-18.96873922811282" cy="4.9525081603917975" stroke="black" fill="none" stroke-width="1.0" filter="url(#fuzzy)" clip-path="url(#leftEyeClipPath)" /><circle r="3.356" cx="-18.69873922811282" cy="9.532508160391796" stroke="black" fill="none" stroke-width="1.0" filter="url(#fuzzy)" clip-path="url(#leftEyeClipPath)" /><circle r="3.32" cx="-17.35373922811282" cy="8.082508160391797" stroke="black" fill="none" stroke-width="1.0" filter="url(#fuzzy)" clip-path="url(#leftEyeClipPath)" />
    </g>
    <g id="hairs">
      <polyline points="50.07,-50.98 50.71,-49.41 50.78,-48.58 50.29,-48.37 49.29,-48.57 47.8,-49.13 45.78,-50.01 43.2,-51.24 40.02,-52.83 36.21,-54.85 31.75,-57.41 26.63,-60.55 20.86,-64.27 14.44,-68.53 7.37,-73.33 -0.32,-78.77" fill="none" stroke="rgb(165, 42, 42)" stroke-width="2" stroke-linejoin="round" filter="url(#fuzzy)" /><polyline points="-28.1,-76.43 -27.53,-76.9 -26.76,-77.36 -25.79,-77.93 -24.69,-78.55 -23.55,-79.19 -22.4,-79.8 -21.27,-80.37 -20.2,-80.9 -19.25,-81.38 -18.44,-81.78 -17.82,-82.09 -17.35,-82.31 -17.01,-82.46 -16.77,-82.54 -16.64,-82.55 -16.69,-82.46 -17,-82.26 -17.63,-81.91 -18.61,-81.42 -19.95,-80.79 -21.64,-79.99 -23.68,-79.02" fill="none" stroke="rgb(165, 42, 42)" stroke-width="2" stroke-linejoin="round" filter="url(#fuzzy)" /><polyline points="-23.49,-79.42 -22.79,-79.68 -21.51,-79.92 -19.76,-80.19 -17.7,-80.4 -15.47,-80.49 -13.14,-80.45 -10.69,-80.29 -8.06,-80.08 -5.21,-79.85 -2.17,-79.62 1.03,-79.39 4.29,-79.14 7.57,-78.86 10.79,-78.53 13.96,-78.15 17.11,-77.68 20.3,-77.12 23.51,-76.48 26.48,-76.01" fill="none" stroke="rgb(165, 42, 42)" stroke-width="2" stroke-linejoin="round" filter="url(#fuzzy)" /><polyline points="46.63,-57.06 47.11,-55.93 47.38,-54.87 47.3,-54.04 46.84,-53.41 46.01,-52.88 44.85,-52.4 43.35,-51.98 41.47,-51.68 39.18,-51.53 36.46,-51.53 33.3,-51.66 29.71,-51.9 25.67,-52.23 21.18,-52.66 16.21,-53.21 10.74,-53.91 4.76,-54.78 -1.72,-55.83 -8.7,-57.04 -16.21,-58.37 -24.26,-59.86 -32.78,-61.66" fill="none" stroke="rgb(165, 42, 42)" stroke-width="2" stroke-linejoin="round" filter="url(#fuzzy)" /><polyline points="-17.02,-82.52 -17.55,-82.3 -16.84,-82.54 -15.75,-82.89 -14.48,-83.27 -13.13,-83.65 -11.83,-84.01 -10.66,-84.32 -9.65,-84.59 -8.82,-84.8 -8.14,-84.96 -7.6,-85.07 -7.17,-85.15 -6.84,-85.2 -6.6,-85.22 -6.47,-85.21 -6.49,-85.16 -6.71,-85.05 -7.22,-84.86 -8.1,-84.6 -9.39,-84.25 -11.1,-83.82 -13.18,-83.31 -15.65,-82.67" fill="none" stroke="rgb(165, 42, 42)" stroke-width="2" stroke-linejoin="round" filter="url(#fuzzy)" /><polyline points="6.34,-85.17 7.36,-84.95 7.74,-84.76 7.88,-84.45 7.84,-83.99 7.62,-83.39 7.2,-82.63 6.52,-81.71 5.49,-80.66 4.05,-79.47 2.13,-78.15 -0.26,-76.68 -3.1,-75.04 -6.38,-73.24 -10.09,-71.24 -14.22,-69.02 -18.82,-66.59 -23.94,-63.92 -29.65,-61.03 -35.99,-57.88 -42.92,-54.45" fill="none" stroke="rgb(165, 42, 42)" stroke-width="2" stroke-linejoin="round" filter="url(#fuzzy)" /><polyline points="4.03,-85.6 5.93,-85.25 7.2,-85.04 8.12,-84.9 8.9,-84.76 9.64,-84.61 10.38,-84.43 11.09,-84.23 11.73,-84.03 12.2,-83.85 12.41,-83.72 12.31,-83.66 11.89,-83.67 11.19,-83.74 10.24,-83.87 9.05,-84.03 7.54,-84.22 5.61,-84.46 3.16,-84.77 0.27,-85.21" fill="none" stroke="rgb(165, 42, 42)" stroke-width="2" stroke-linejoin="round" filter="url(#fuzzy)" /><polyline points="21.68,-80.31 22.89,-79.67 23.67,-79.29 24.34,-78.92 24.94,-78.54 25.46,-78.19 25.89,-77.87 26.17,-77.61 26.19,-77.49 25.84,-77.57 25.06,-77.91 23.86,-78.5 22.28,-79.31 20.4,-80.3 18.19,-81.51" fill="none" stroke="rgb(165, 42, 42)" stroke-width="2" stroke-linejoin="round" filter="url(#fuzzy)" /><polyline points="43.11,-61.99 43.99,-60.71 44.28,-60.11 44.42,-59.6 44.41,-59.16 44.17,-58.87 43.63,-58.79 42.78,-58.95 41.59,-59.39 40.05,-60.11 38.13,-61.12 35.8,-62.4 33.03,-63.97 29.78,-65.89 26.03,-68.2 21.83,-70.94 17.26,-74.08 12.31,-77.62 6.75,-81.54" fill="none" stroke="rgb(165, 42, 42)" stroke-width="2" stroke-linejoin="round" filter="url(#fuzzy)" /><polyline points="30.58,-74.56 31.41,-73.93 32.09,-73.22 32.57,-72.51 32.78,-71.86 32.78,-71.23 32.54,-70.59 32.03,-69.96 31.2,-69.39 30,-68.91 28.41,-68.54 26.45,-68.27 24.13,-68.07 21.47,-67.94 18.47,-67.88 15.13,-67.89 11.43,-67.98 7.33,-68.15 2.8,-68.41 -2.19,-68.73 -7.68,-69.09 -13.7,-69.47 -20.26,-69.86 -27.36,-70.25" fill="none" stroke="rgb(165, 42, 42)" stroke-width="2" stroke-linejoin="round" filter="url(#fuzzy)" /><polyline points="-23.49,-79.42 -22.9,-79.74 -21.97,-80.15 -20.81,-80.67 -19.58,-81.22 -18.42,-81.73 -17.4,-82.16 -16.46,-82.53 -15.53,-82.86 -14.58,-83.19 -13.6,-83.51 -12.64,-83.82 -11.79,-84.08 -11.11,-84.28 -10.69,-84.41 -10.57,-84.43 -10.77,-84.36 -11.29,-84.19 -12.09,-83.93 -13.11,-83.6 -14.28,-83.22 -15.45,-82.86 -16.46,-82.58" fill="none" stroke="rgb(165, 42, 42)" stroke-width="2" stroke-linejoin="round" filter="url(#fuzzy)" /><polyline points="16.32,-82.59 17.14,-82.28 17.6,-82.03 17.96,-81.76 18.2,-81.46 18.23,-81.16 17.95,-80.92 17.27,-80.75 16.16,-80.66 14.6,-80.63 12.56,-80.65 10.02,-80.7 6.92,-80.77 3.22,-80.85 -1.09,-80.99 -6.06,-81.21 -11.82,-81.51" fill="none" stroke="rgb(165, 42, 42)" stroke-width="2" stroke-linejoin="round" filter="url(#fuzzy)" /><polyline points="32.27,-73.3 33.46,-72.29 34.22,-71.56 34.85,-70.92 35.44,-70.22 35.93,-69.54 36.23,-68.95 36.27,-68.52 36.06,-68.26 35.61,-68.14 34.92,-68.16 34,-68.31 32.85,-68.58 31.45,-68.99 29.8,-69.54 27.88,-70.25 25.65,-71.13 23.07,-72.18 20.1,-73.4 16.69,-74.82 12.83,-76.44 8.51,-78.28 3.74,-80.33 -1.37,-82.66" fill="none" stroke="rgb(165, 42, 42)" stroke-width="2" stroke-linejoin="round" filter="url(#fuzzy)" /><polyline points="-23.07,-79.79 -22.16,-80.08 -20.91,-80.62 -19.53,-81.21 -18.18,-81.76 -16.96,-82.21 -15.81,-82.6 -14.69,-82.96 -13.53,-83.32 -12.36,-83.68 -11.23,-84.03 -10.22,-84.34 -9.39,-84.6 -8.77,-84.8 -8.4,-84.93 -8.28,-84.98 -8.44,-84.97 -8.91,-84.89 -9.8,-84.73" fill="none" stroke="rgb(165, 42, 42)" stroke-width="2" stroke-linejoin="round" filter="url(#fuzzy)" /><polyline points="19.18,-81.49 20.7,-80.68 21.27,-80.19 21.27,-79.8 20.75,-79.44 19.75,-79.09 18.25,-78.71 16.25,-78.29 13.74,-77.82 10.7,-77.31 7.04,-76.79 2.69,-76.32 -2.41,-75.95 -8.3,-75.69 -14.92,-75.5 -22.12,-75.33" fill="none" stroke="rgb(165, 42, 42)" stroke-width="2" stroke-linejoin="round" filter="url(#fuzzy)" /><polyline points="7.61,-85.03 8.83,-84.79 9.89,-84.4 11.12,-83.86 12.59,-83.17 14.21,-82.36 15.89,-81.48 17.57,-80.55 19.19,-79.59 20.78,-78.6 22.35,-77.6 23.93,-76.58 25.53,-75.55 27.14,-74.52 28.74,-73.5 30.27,-72.51 31.7,-71.58 32.99,-70.73 34.14,-69.96 35.17,-69.28 36.1,-68.68 36.94,-68.16 37.66,-67.74 38.26,-67.38" fill="none" stroke="rgb(165, 42, 42)" stroke-width="2" stroke-linejoin="round" filter="url(#fuzzy)" /><polyline points="52.3,-46.58 52.97,-45.01 53.15,-44.25 53.13,-43.63 52.93,-43.07 52.48,-42.73 51.75,-42.73 50.71,-43.07 49.36,-43.72 47.7,-44.65 45.71,-45.88 43.36,-47.43 40.62,-49.34 37.5,-51.65 34,-54.39 30.12,-57.57 25.85,-61.19 21.11,-65.25 15.83,-69.72 9.98,-74.58 3.67,-79.89" fill="none" stroke="rgb(165, 42, 42)" stroke-width="2" stroke-linejoin="round" filter="url(#fuzzy)" /><polyline points="-2.65,-85.83 -2.05,-85.76 -0.87,-85.73 0.39,-85.7 1.55,-85.66 2.6,-85.58 3.61,-85.46 4.65,-85.3 5.75,-85.14 6.83,-84.97 7.84,-84.82 8.69,-84.69 9.37,-84.59 9.88,-84.51 10.25,-84.44 10.48,-84.37 10.55,-84.32 10.41,-84.3 9.97,-84.33 9.16,-84.43 7.99,-84.61 6.58,-84.86 5.11,-85.17 3.64,-85.51" fill="none" stroke="rgb(165, 42, 42)" stroke-width="2" stroke-linejoin="round" filter="url(#fuzzy)" /><polyline points="54.69,-40.98 55.22,-39.5 55.56,-38.57 55.84,-37.78 56.09,-36.99 56.31,-36.21 56.48,-35.53 56.55,-35.03 56.52,-34.78 56.37,-34.82 56.08,-35.19 55.63,-35.94 54.99,-37.11 54.16,-38.68 53.13,-40.65 51.92,-43.02 50.51,-45.81 48.91,-49.08 47.06,-52.94 44.79,-57.52" fill="none" stroke="rgb(165, 42, 42)" stroke-width="2" stroke-linejoin="round" filter="url(#fuzzy)" /><polyline points="-10.25,-84.7 -9.15,-84.86 -8.53,-84.94 -8.12,-84.97 -7.83,-84.95 -7.67,-84.87 -7.62,-84.73 -7.7,-84.51 -7.94,-84.2 -8.44,-83.78 -9.25,-83.23 -10.44,-82.55 -12.07,-81.75 -14.16,-80.83 -16.74,-79.77 -19.76,-78.56 -23.23,-77.16 -27.33,-75.48" fill="none" stroke="rgb(165, 42, 42)" stroke-width="2" stroke-linejoin="round" filter="url(#fuzzy)" /><polyline points="-29.58,-75.68 -29.02,-75.95 -28.16,-76.44 -27.2,-76.99 -26.13,-77.59 -24.95,-78.23 -23.69,-78.91 -22.4,-79.59 -21.12,-80.24 -19.9,-80.85 -18.78,-81.4 -17.83,-81.87 -17.11,-82.25 -16.68,-82.49 -16.52,-82.62 -16.57,-82.64 -16.75,-82.6 -16.98,-82.51 -17.32,-82.36 -18.15,-82" fill="none" stroke="rgb(165, 42, 42)" stroke-width="2" stroke-linejoin="round" filter="url(#fuzzy)" /><polyline points="55.59,-38.47 55.85,-37.74 55.96,-37.1 55.94,-36.51 55.74,-36.14 55.31,-36.11 54.63,-36.47 53.65,-37.28 52.36,-38.58 50.74,-40.39 48.78,-42.73 46.49,-45.58 43.85,-48.91 40.85,-52.72 37.45,-57.07 33.58,-62.07 29.16,-67.84 24.16,-74.42" fill="none" stroke="rgb(165, 42, 42)" stroke-width="2" stroke-linejoin="round" filter="url(#fuzzy)" /><polyline points="52,-47.07 52.38,-46.22 52.61,-45.4 52.55,-44.86 52.24,-44.48 51.68,-44.27 50.85,-44.31 49.68,-44.71 48.17,-45.48 46.28,-46.6 44,-48.07 41.32,-49.87 38.24,-52.06 34.76,-54.64 30.89,-57.66 26.6,-61.14 21.81,-65.09 16.43,-69.53 10.42,-74.47 3.89,-79.9" fill="none" stroke="rgb(165, 42, 42)" stroke-width="2" stroke-linejoin="round" filter="url(#fuzzy)" /><polyline points="28.93,-75.9 29.16,-75.7 29.66,-75.22 29.78,-74.97 29.49,-74.93 28.9,-75 28.03,-75.14 26.81,-75.37 25.2,-75.77 23.14,-76.37 20.58,-77.18 17.43,-78.2 13.53,-79.51 8.76,-81.19 3.2,-83.3" fill="none" stroke="rgb(165, 42, 42)" stroke-width="2" stroke-linejoin="round" filter="url(#fuzzy)" /><polyline points="39.99,-65.76 40.38,-65.12 40.87,-64.41 41.4,-63.71 41.98,-63.01 42.51,-62.38 42.91,-61.86 43.14,-61.5 43.17,-61.32 43.01,-61.31 42.65,-61.5 42.07,-61.93 41.27,-62.61 40.22,-63.59 38.87,-64.9 37.15,-66.62 34.96,-68.78 32.25,-71.43 28.98,-74.59" fill="none" stroke="rgb(165, 42, 42)" stroke-width="2" stroke-linejoin="round" filter="url(#fuzzy)" /><polyline points="-8.67,-85.06 -7.24,-85.16 -6.68,-85.14 -6.3,-85.02 -5.94,-84.83 -5.65,-84.52 -5.54,-84.07 -5.7,-83.46 -6.2,-82.68 -7.08,-81.71 -8.36,-80.55 -10.04,-79.16 -12.06,-77.55 -14.43,-75.71 -17.14,-73.66 -20.25,-71.39 -23.84,-68.88 -27.96,-66.13 -32.61,-63.1 -37.79,-59.76 -43.55,-56.01" fill="none" stroke="rgb(165, 42, 42)" stroke-width="2" stroke-linejoin="round" filter="url(#fuzzy)" /><polyline points="-15.51,-83.18 -13.52,-83.51 -11.48,-83.66 -9.48,-83.62 -7.36,-83.38 -5.06,-82.96 -2.56,-82.41 0.13,-81.73 2.99,-80.97 6.01,-80.17 9.18,-79.35 12.47,-78.55 15.83,-77.77 19.22,-76.96 22.6,-76.13 25.82,-75.32 28.78,-74.63" fill="none" stroke="rgb(165, 42, 42)" stroke-width="2" stroke-linejoin="round" filter="url(#fuzzy)" /><polyline points="-20.89,-80.67 -19.96,-81.19 -18.94,-81.67 -18.32,-81.94 -17.91,-82.08 -17.54,-82.16 -17.15,-82.21 -16.77,-82.19 -16.49,-82.08 -16.41,-81.85 -16.6,-81.46 -17.13,-80.89 -18.01,-80.12 -19.26,-79.15 -20.87,-77.96 -22.82,-76.56 -25.1,-74.95 -27.7,-73.14 -30.65,-71.08 -33.98,-68.78 -37.67,-66.34" fill="none" stroke="rgb(165, 42, 42)" stroke-width="2" stroke-linejoin="round" filter="url(#fuzzy)" /><polyline points="17.66,-82.14 18,-81.95 18.84,-81.58 19.89,-81.1 20.97,-80.59 21.95,-80.12 22.73,-79.74 23.29,-79.46 23.58,-79.3 23.59,-79.26 23.28,-79.36 22.65,-79.62 21.71,-80.03 20.45,-80.6 18.77,-81.4" fill="none" stroke="rgb(165, 42, 42)" stroke-width="2" stroke-linejoin="round" filter="url(#fuzzy)" /><polyline points="-11.01,-84.14 -10.53,-84.32 -9.26,-84.3 -7.53,-84.08 -5.52,-83.69 -3.25,-83.16 -0.73,-82.51 2.03,-81.79 5.02,-81.04 8.2,-80.26 11.54,-79.48 14.97,-78.66 18.41,-77.8 21.76,-76.95 24.93,-76.14 27.88,-75.37" fill="none" stroke="rgb(165, 42, 42)" stroke-width="2" stroke-linejoin="round" filter="url(#fuzzy)" /><polyline points="33.79,-72.21 34.38,-71.42 34.64,-71.02 34.81,-70.55 34.71,-70.12 34.14,-69.92 33.02,-70.04 31.33,-70.51 29.09,-71.28 26.25,-72.35 22.77,-73.71 18.62,-75.36 13.74,-77.32 8.04,-79.6 1.38,-82.21" fill="none" stroke="rgb(165, 42, 42)" stroke-width="2" stroke-linejoin="round" filter="url(#fuzzy)" /><polyline points="1.46,-85.88 2.53,-85.69 3.42,-85.23 4.88,-84.51 6.91,-83.56 9.31,-82.43 11.87,-81.15 14.49,-79.75 17.15,-78.26 19.86,-76.69 22.67,-75.04 25.56,-73.33 28.51,-71.59 31.45,-69.83 34.27,-68.11 36.83,-66.53 39.08,-65.12" fill="none" stroke="rgb(165, 42, 42)" stroke-width="2" stroke-linejoin="round" filter="url(#fuzzy)" /><polyline points="28.93,-75.9 29.3,-75.61 30.2,-74.88 31,-74.24 31.71,-73.64 32.45,-73.01 33.27,-72.3 34.11,-71.57 34.9,-70.88 35.57,-70.28 36.07,-69.82 36.38,-69.52 36.44,-69.44 36.2,-69.61 35.62,-70.09 34.7,-70.89 33.52,-71.93 32.29,-73.09" fill="none" stroke="rgb(165, 42, 42)" stroke-width="2" stroke-linejoin="round" filter="url(#fuzzy)" /><polyline points="38.74,-66.99 39.58,-66.07 40.03,-65.42 40.25,-64.95 40.31,-64.62 40.21,-64.44 39.89,-64.42 39.29,-64.62 38.36,-65.07 37.08,-65.78 35.44,-66.77 33.38,-68.08 30.84,-69.74 27.74,-71.81 24.03,-74.34 19.69,-77.34 14.8,-80.81" fill="none" stroke="rgb(165, 42, 42)" stroke-width="2" stroke-linejoin="round" filter="url(#fuzzy)" /><polyline points="-20.55,-81 -18.5,-81.74 -17.18,-81.86 -15.77,-81.72 -13.9,-81.51 -11.53,-81.25 -8.73,-80.94 -5.59,-80.54 -2.23,-80.06 1.25,-79.49 4.78,-78.83 8.33,-78.1 11.86,-77.36 15.34,-76.62 18.8,-75.91 22.27,-75.17 25.78,-74.39 29.23,-73.69" fill="none" stroke="rgb(165, 42, 42)" stroke-width="2" stroke-linejoin="round" filter="url(#fuzzy)" /><polyline points="39,-66.81 39.03,-66.66 39.11,-66.31 38.9,-66.06 38.32,-66 37.34,-66.17 35.96,-66.57 34.13,-67.23 31.8,-68.2 28.88,-69.51 25.29,-71.17 20.96,-73.2 15.85,-75.62 9.9,-78.49 3.03,-81.79" fill="none" stroke="rgb(165, 42, 42)" stroke-width="2" stroke-linejoin="round" filter="url(#fuzzy)" /><polyline points="10.43,-84.6 11.4,-84.23 12.67,-83.81 13.81,-83.45 14.72,-83.16 15.37,-82.93 15.78,-82.76 16.02,-82.64 16.1,-82.55 16.02,-82.48 15.74,-82.45 15.18,-82.48 14.25,-82.61 12.91,-82.85 11.2,-83.23 9.18,-83.73 6.86,-84.32 4,-85" fill="none" stroke="rgb(165, 42, 42)" stroke-width="2" stroke-linejoin="round" filter="url(#fuzzy)" /><polyline points="-17.02,-82.52 -17.57,-82.3 -16.91,-82.53 -15.9,-82.88 -14.74,-83.25 -13.54,-83.61 -12.41,-83.94 -11.43,-84.21 -10.65,-84.42 -10.09,-84.55 -9.73,-84.61 -9.56,-84.6 -9.54,-84.54 -9.66,-84.42 -9.89,-84.25 -10.28,-84.02 -10.84,-83.71 -11.65,-83.3 -12.76,-82.78 -14.2,-82.16 -16,-81.43 -18.19,-80.57 -20.81,-79.57 -23.81,-78.39" fill="none" stroke="rgb(165, 42, 42)" stroke-width="2" stroke-linejoin="round" filter="url(#fuzzy)" /><polyline points="28.44,-76.32 30.11,-74.98 30.9,-74.37 31.46,-73.92 32.09,-73.4 32.83,-72.76 33.62,-72.08 34.38,-71.41 35.08,-70.77 35.67,-70.2 36.13,-69.72 36.42,-69.37 36.5,-69.2 36.35,-69.23 35.98,-69.46 35.36,-69.9 34.47,-70.6 33.25,-71.59 31.65,-72.9 29.7,-74.51 27.63,-76.3" fill="none" stroke="rgb(165, 42, 42)" stroke-width="2" stroke-linejoin="round" filter="url(#fuzzy)" /><polyline points="53.41,-44.1 32.92,-47.48 14.29,-57.01 5.88,-66.08 1.35,-72.65 -1.52,-76.95 -2.67,-79.58 -2.05,-80.91 -0.16,-81.07 2.14,-80.19 3.86,-78.54 4.22,-76.56 2.97,-74.81 0.61,-73.73 -1.74,-73.45 -3.01,-73.76 -2.87,-74.12 -1.92,-73.87 -1.02,-72.4 -0.16,-69.49 1.41,-65.85 3.07,-63.47 1.45,-64.54 -1.44,-68.56 28.93,-75.9" fill="none" stroke="rgb(165, 42, 42)" stroke-width="2" stroke-linejoin="round" filter="url(#fuzzy)" /><polyline points="16.27,-82.56 0.01,-77.17 1.77,-75.13 6.42,-74.81 11.82,-74.99 15.23,-75.25 14.53,-75.16 9.43,-74.37 1.48,-72.93 -6.14,-71.48 -9.66,-70.82 -7.05,-71.42 -0.43,-73.05 3.5,-74.58 -3,-74.24 -21.85,-71.03 -37.73,-68.05" fill="none" stroke="rgb(165, 42, 42)" stroke-width="2" stroke-linejoin="round" filter="url(#fuzzy)" /><polyline points="54.69,-40.98 20.47,-68.1 3.92,-74.66 -1.75,-73.28 0.54,-69.53 4.84,-66.46 7.06,-65.63 6.79,-66.87 5.55,-68.65 4.9,-69.18 5.73,-67.72 8.1,-65.09 10.86,-63.04 11.8,-62.79 9.47,-63.84 6.6,-64.02 11.5,-60.94 30.66,-55.3 43.11,-61.99" fill="none" stroke="rgb(165, 42, 42)" stroke-width="2" stroke-linejoin="round" filter="url(#fuzzy)" /><polyline points="-6.55,-85.4 -0.92,-78.58 -6.36,-75.95 -9.61,-76.77 -11.1,-78.02 -11.43,-77.7 -10.8,-75.2 -9.52,-71.27 -7.94,-67.44 -6.1,-64.91 -3.55,-63.84 0.25,-63.47 5.19,-62.94 10.26,-61.94 14.49,-60.56 18.35,-58.59 23.9,-55.3 32.77,-50.36 43.26,-45.21 50.63,-42.74 52.63,-43.57 56.05,-37.56" fill="none" stroke="rgb(165, 42, 42)" stroke-width="2" stroke-linejoin="round" filter="url(#fuzzy)" /><polyline points="-16.6,-82.6 -7.51,-82.42 6.61,-77.67 16.01,-72.42 16.22,-69.08 10.31,-67.33 3.81,-66.21 0.46,-65.3 1.11,-64.75 4.58,-64.8 9.05,-65.41 12.89,-66.23 15.19,-66.78 15.94,-66.69 16.04,-65.89 16.83,-64.62 19.14,-63.36 22.4,-62.64 24.57,-62.93 23.15,-64.56 16.75,-67.7 6.2,-72.09 -6.01,-75.7 -19.91,-72.46 -49.94,-51.75" fill="none" stroke="rgb(165, 42, 42)" stroke-width="2" stroke-linejoin="round" filter="url(#fuzzy)" /><polyline points="34.53,-71.54 12.13,-68.3 13.74,-66.68 9.12,-69.25 0.04,-72.7 -7.6,-75.18 -10.36,-76.46 -7.65,-76.84 -0.89,-76.56 7.58,-75.71 15.5,-74.37 21.2,-72.77 23.75,-71.37 22.85,-70.79 18.71,-71.42 12.06,-73.17 4.08,-75.34 -3.72,-77.06 -9.45,-78.07 -10.87,-79.15 -6.93,-81.43 -1.07,-84.51 1.84,-85.89" fill="none" stroke="rgb(165, 42, 42)" stroke-width="2" stroke-linejoin="round" filter="url(#fuzzy)" /><polyline points="-35.02,-70.76 14.74,-57.5 16.46,-55.71 3.74,-57.75 -2.72,-57.77 1.37,-55.37 10.5,-52.76 17.58,-52.04 19.24,-53.79 16.26,-57.09 10.88,-60.5 4.31,-63.21 -3.41,-65.48 -11.39,-68.15 -16.48,-71.89 -14.98,-76.62 -6.54,-81.3 3.72,-84.27 8.19,-84.81" fill="none" stroke="rgb(165, 42, 42)" stroke-width="2" stroke-linejoin="round" filter="url(#fuzzy)" /><polyline points="58.71,-28.54 27.75,-63.55 18.07,-74.25 17.59,-73.27 22.86,-66.83 28.99,-60.35 31.42,-57.35 28.37,-58.48 20.78,-62.31 10.95,-66.83 1.18,-70.55 -6.78,-72.75 -11.69,-73.26 -12.73,-72.14 -9.57,-69.79 -2.59,-67.06 7.07,-64.82 17.69,-63.03 27.07,-59.95 30.9,-53.96 16.77,-48.98 -45.19,-59.11" fill="none" stroke="rgb(165, 42, 42)" stroke-width="2" stroke-linejoin="round" filter="url(#fuzzy)" /><polyline points="57.72,-32.19 11.65,-63.85 2.25,-73.86 4.01,-76.03 4.25,-76.5 1.9,-77.26 0.27,-78.08 1.74,-78.1 6.24,-76.77 11.61,-74.42 14.71,-72.04 12.72,-70.48 4.75,-69.7 -6.92,-68.88 -16.84,-67.45 -18.55,-65.94 -9.69,-65.03 -1.61,-64.05 -37.73,-68.05" fill="none" stroke="rgb(165, 42, 42)" stroke-width="2" stroke-linejoin="round" filter="url(#fuzzy)" /><polyline points="16.27,-82.56 2.91,-81.21 -1.51,-79.35 2.6,-77.92 9.92,-74.86 16.23,-70.22 18.91,-65.74 17.61,-62.92 13.7,-62.16 8.86,-63.06 4.24,-65.02 0.7,-67.47 -0.76,-69.77 0.59,-71.29 4.31,-71.57 8.16,-70.62 9.19,-68.89 6.39,-67 3.51,-65.38 9.2,-63.67 29.25,-60.53 44.72,-59.81" fill="none" stroke="rgb(165, 42, 42)" stroke-width="2" stroke-linejoin="round" filter="url(#fuzzy)" /><polyline points="-16.6,-82.6 23.83,-61.56 27.72,-62.44 20.05,-69.08 11.03,-74.12 4.44,-76.08 2.08,-75.64 4.01,-74.01 8.49,-72.3 13.28,-71.16 17.13,-70.5 20.21,-69.64 23.23,-67.9 26.14,-65.34 27.58,-62.88 25.59,-61.79 19.05,-62.8 8.87,-65.66 -1.95,-69.54 -10.06,-73.52 -14.3,-76.44 -15.48,-77.8 -0.72,-85.76" fill="none" stroke="rgb(165, 42, 42)" stroke-width="2" stroke-linejoin="round" filter="url(#fuzzy)" /><polyline points="34.93,-70.68 0.2,-72.33 2.77,-70.56 13.8,-68.65 23.45,-67.26 30.1,-65.9 33.86,-64.44 34.72,-63.1 32.52,-62.26 27.57,-62.24 21.13,-63.18 15.22,-64.87 11.63,-66.79 10.82,-68.41 11.38,-69.39 10.77,-69.73 6.9,-69.66 -0.04,-69.31 -6.67,-68.49 -7.42,-66.8 2.14,-64.19 19.92,-62.07 32.81,-64.84 21.69,-80.26" fill="none" stroke="rgb(165, 42, 42)" stroke-width="2" stroke-linejoin="round" filter="url(#fuzzy)" /><polyline points="34.53,-71.54 4.31,-78.77 -1.67,-78.1 5.49,-73.76 16.67,-69.34 26.01,-66.27 30.96,-65.01 31.18,-65.71 27.79,-67.81 22.6,-69.89 17.05,-70.54 11.29,-69.61 4.3,-68.6 -4.71,-69.74 -15.35,-72.67 -38.84,-66.98" fill="none" stroke="rgb(165, 42, 42)" stroke-width="2" stroke-linejoin="round" filter="url(#fuzzy)" /><polyline points="32.27,-73.3 7.61,-76.37 12.15,-68.87 19.47,-61.02 21.32,-58.44 20.48,-60.28 20.74,-63.18 23,-64.63 25.8,-64.19 27.19,-62.96 25.87,-62.29 21.54,-62.74 14.64,-63.74 6.35,-64.17 -1.17,-63.05 -4.42,-59.46 3.94,-51.29 56.02,-37.34" fill="none" stroke="rgb(165, 42, 42)" stroke-width="2" stroke-linejoin="round" filter="url(#fuzzy)" /><polyline points="49.38,-52.73 24.69,-65.33 19.14,-66.53 18.59,-67.99 20.59,-69.8 21.33,-71.76 18.3,-73.89 12.12,-75.77 5.76,-76.68 2.45,-76.13 3.57,-74.23 7.56,-71.86 10.83,-70.35 10.52,-70.63 7.69,-72.21 8.15,-72.94 18.25,-70.07 36.73,-61.59 52.17,-46.91" fill="none" stroke="rgb(165, 42, 42)" stroke-width="2" stroke-linejoin="round" filter="url(#fuzzy)" /><polyline points="21.69,-80.26 40.75,-54.8 36.42,-57.67 22.54,-65.71 7.11,-71.65 -5.14,-75.09 -12.22,-77.15 -14.34,-78.5 -12.9,-79.18 -9.5,-78.98 -5.41,-77.74 -1.38,-75.5 2.3,-72.45 5.66,-68.92 8.89,-65.28 12.37,-61.92 16.38,-59.24 20.53,-57.66 23.09,-57.9 21.23,-60.93 13.24,-67.28 2.58,-75.5 0.04,-81.95 13.1,-83.65" fill="none" stroke="rgb(165, 42, 42)" stroke-width="2" stroke-linejoin="round" filter="url(#fuzzy)" /><polyline points="-22.42,-79.85 11.41,-75.61 28.09,-69.31 32.52,-66.91 28.01,-68.85 19.08,-72.58 10.46,-75.68 5.28,-76.86 4.15,-75.89 5.55,-73.2 7.4,-69.54 8.67,-65.77 9.98,-62.61 12.5,-60.51 15.91,-59.75 17.37,-60.53 13.04,-62.88 2.41,-66.54 -7.53,-71.32 -3.55,-77.68 17.54,-82.08" fill="none" stroke="rgb(165, 42, 42)" stroke-width="2" stroke-linejoin="round" filter="url(#fuzzy)" /><polyline points="34.93,-70.68 -4.61,-67.18 1.09,-68.36 16.31,-67.11 27.81,-64.95 32.7,-62.83 31.41,-60.91 25.53,-59.55 17.71,-59.27 11.12,-60.17 8.13,-61.7 9.18,-63 12.76,-63.53 16.56,-63.47 18.6,-63.53 17.76,-64.38 13.67,-65.99 7,-67.4 0.06,-67.41 -3.73,-65.94 -3.44,-65.57 -3.34,-71.24 9.23,-84.9" fill="none" stroke="rgb(165, 42, 42)" stroke-width="2" stroke-linejoin="round" filter="url(#fuzzy)" /><polyline points="32.27,-73.3 -0.34,-74.93 1.11,-77.21 7.25,-76.92 8.64,-75.46 5.75,-74.2 1.85,-73.62 -0.77,-73.46 -1.49,-73.26 -0.56,-72.63 1.55,-71.26 4.56,-69.01 8.22,-65.96 11.91,-62.62 14.25,-59.95 13.47,-58.98 8.53,-60.24 0.53,-63.17 -7.17,-66.25 -10.48,-67.68 -7.28,-66.27 0.83,-61.44 12.91,-51.64 58.71,-28.54" fill="none" stroke="rgb(165, 42, 42)" stroke-width="2" stroke-linejoin="round" filter="url(#fuzzy)" /><polyline points="-47.81,-54.97 -33.62,-68.5 -20.4,-69.71 -4.37,-66.22 8.09,-64.6 13.09,-67.04 12.29,-72.06 9.28,-77.16 6.18,-80.81 3.04,-82.54 -1.11,-82.18 -7.24,-79.33 -15.44,-73.79 -22.15,-67.07 -14.5,-64.32 33.79,-72.21" fill="none" stroke="rgb(165, 42, 42)" stroke-width="2" stroke-linejoin="round" filter="url(#fuzzy)" /><polyline points="4.03,-85.6 10.86,-79.5 5.31,-73.66 -4.41,-72.12 -11.13,-73.27 -14.97,-74.83 -17.7,-75.3 -19.57,-74.04 -19.88,-71.05 -18.42,-67.02 -16.24,-63.32 -15.04,-61.72 -15.37,-63.41 -15.52,-68.06 -12.79,-73.71 -7.35,-78.04 -2.32,-80.36 14.22,-83.27" fill="none" stroke="rgb(165, 42, 42)" stroke-width="2" stroke-linejoin="round" filter="url(#fuzzy)" /><polyline points="53.36,-44.26 41.51,-46.88 32.73,-52.47 32.29,-56.01 32.72,-59.12 29.92,-61.96 23.08,-64.26 13.14,-65.93 2.37,-66.98 -5.76,-67.47 -7.37,-67.34 -0.18,-66.15 13.99,-63.34 28.19,-59.67 31.89,-58.52 14.12,-63.91 -35.68,-70.21" fill="none" stroke="rgb(165, 42, 42)" stroke-width="2" stroke-linejoin="round" filter="url(#fuzzy)" /><polyline points="53.67,-43.67 6.16,-65.85 -1.47,-74.12 6.17,-73.92 16.7,-70.45 23.71,-67.21 25.87,-65.31 24.64,-64.47 21.83,-64.19 18.34,-64.31 14.43,-64.83 10.61,-65.58 8.02,-66.18 8,-66.33 11.17,-66.04 16.88,-65.59 23.41,-65.34 28.68,-65.41 30.89,-65.82 28.71,-66.9 21.57,-69.29 10.89,-73.26 2.32,-77.77 5.16,-81.1 19.18,-81.49" fill="none" stroke="rgb(165, 42, 42)" stroke-width="2" stroke-linejoin="round" filter="url(#fuzzy)" /><polyline points="46.57,-56.85 17.94,-59.08 28.57,-52.96 38.25,-50.15 39.62,-52.36 35.03,-57.09 28.21,-61.47 21.35,-64.16 14.97,-65.38 9.04,-66.09 3.84,-67.18 -0.07,-69.13 -2.38,-71.93 -3.4,-75.15 -3.84,-78.13 -4.26,-80.2 -4.56,-81.05 -4.02,-80.87 -1.78,-80.34 2.36,-80.24 7.28,-80.94 10.1,-82.19 1.46,-85.88" fill="none" stroke="rgb(165, 42, 42)" stroke-width="2" stroke-linejoin="round" filter="url(#fuzzy)" /><polyline points="53.35,16.59 53.75,14.77 54.01,13.74 54.48,12.63 55.06,11.43 55.57,10.22 55.95,9.02 56.26,7.82 56.59,6.62 57.03,5.44 57.61,4.3 58.29,3.17 59,2.01 59.67,0.77 60.25,-0.56 60.69,-1.95 60.97,-3.35 61.11,-4.7 61.15,-5.99 61.18,-7.26 61.24,-8.53 61.34,-9.77 61.43,-10.94 61.46,-12.24 61.31,-14.49 61.31,-14.49 63.09,-12.56 63.62,-11.36 64.37,-10.29 65.47,-9.17 66.49,-7.98 67.22,-6.75 67.94,-5.45 69.06,-4.04 70.68,-2.47 72.5,-0.76 74.12,0.95 75.39,2.46 76.37,3.67 76.95,4.61 77.96,4.63" fill="none" stroke="rgb(165, 42, 42)" stroke-width="2" stroke-linejoin="round" filter="url(#fuzzy)" /><polyline points="0.35,-85.75 -0.91,-90.25 -2.16,-90.66 -3.36,-89.96 -4.5,-89.6 -5.56,-90.03 -6.54,-91.21 -7.47,-92.81 -8.36,-94.43 -9.25,-95.82 -10.19,-96.92 -11.2,-97.8 -12.33,-98.54 -13.58,-99.08 -14.96,-99.39 -16.44,-99.55 -17.98,-99.82 -19.5,-100.4 -20.86,-101.18 -21.82,-102.09 -21.46,-104.03 -0.72,-85.76 -2.21,-88.53 -3.4,-89.24 -4.55,-89.34 -5.58,-89.68 -6.45,-90.17 -7.2,-90.47 -7.9,-90.55 -8.63,-90.61 -9.44,-90.92 -10.39,-91.61 -11.48,-92.62 -12.71,-93.67 -14.08,-94.38 -15.54,-94.54 -16.97,-94.41 -18.24,-94.79 -19.48,-96.91 -0.72,-85.76 0.33,-85.73 1.28,-85.35 2,-84.36 2.62,-82.97 3.34,-81.61 4.2,-80.59 5.16,-79.97 6.13,-79.61 7.03,-79.3 7.85,-78.85 8.6,-78.16 9.33,-77.26 10.09,-76.27 10.89,-75.31 11.73,-74.44 12.55,-73.64 13.27,-72.82 13.86,-71.83 14.29,-70.64 14.63,-69.34 14.98,-68.23 15.39,-67.41 15.51,-65.92" fill="none" stroke="rgb(165, 42, 42)" stroke-width="2" stroke-linejoin="round" filter="url(#fuzzy)" /><polyline points="-2.7,-85.72 -1.1,-85.85 0.16,-86.14 1.17,-86.47 1.98,-86.68 2.74,-86.7 3.56,-86.61 4.5,-86.48 5.55,-86.4 6.61,-86.41 7.64,-86.55 8.62,-86.78 9.57,-87.07 10.54,-87.34 11.55,-87.51 12.63,-87.52 13.76,-87.4 14.88,-87.2 15.92,-87.03 16.82,-86.94 17.59,-86.9 18.26,-86.97 18.69,-87.49 20.03,-107.81 18.24,-106.38 16.36,-104.57 14.57,-102.54 13.08,-101.19 11.89,-100.55 10.84,-100.1 9.79,-99.42 8.65,-98.45 7.41,-97.31 6.13,-96.04 4.89,-94.55 3.78,-92.75 2.86,-90.77 2.03,-88.96 1.17,-87.62 0.14,-86.77 -1.11,-86.15 -2.7,-85.72 -2.65,-85.83 -2.1,-85.63 -1.04,-85.55 0.05,-85.3 1,-84.77 1.8,-83.95 2.53,-82.96 3.29,-81.93 4.13,-80.99 5.06,-80.21 5.99,-79.56 6.87,-78.97 7.67,-78.32 8.38,-77.51 9.07,-76.52 9.78,-75.38 10.55,-74.16 11.38,-72.94 12.21,-71.78 12.95,-70.73 13.45,-69.65 13.39,-67.8 -19.53,-90.96 -19.1,-89.45 -18.75,-88.45 -17.99,-87.65 -16.95,-87.06 -15.75,-86.81 -14.5,-86.96 -13.29,-87.4 -12.15,-87.91 -11.12,-88.32 -10.18,-88.49 -9.32,-88.4 -8.53,-88.02 -7.78,-87.37 -7.06,-86.56 -6.48,-85.77 -6.09,-85.1" fill="none" stroke="rgb(165, 42, 42)" stroke-width="2" stroke-linejoin="round" filter="url(#fuzzy)" /><polyline points="61.46,-14.46 61.68,-13.66 62.64,-12.49 64.39,-11.5 66.49,-10.55 68.4,-9.5 69.86,-8.32 70.96,-7.02 71.9,-5.61 72.88,-4.06 73.92,-2.38 74.91,-0.65 75.72,1.04 76.35,2.62 76.95,4.12 77.73,5.64 78.77,7.28 80.02,9.12 81.3,11.14 82.38,13.3 83.62,15.47" fill="none" stroke="rgb(165, 42, 42)" stroke-width="2" stroke-linejoin="round" filter="url(#fuzzy)" /><polyline points="-11.04,-84.44 -9.97,-82.99 -8.94,-81.72 -8.15,-81.07 -7.47,-80.43 -6.81,-79.77 -6.13,-79.25 -5.4,-78.83 -4.57,-78.32 -3.64,-77.58 -2.63,-76.62 -1.58,-75.58 -0.56,-74.59 0.4,-73.74 1.22,-72.99 1.79,-72.22 2.06,-71.08 2.37,-68.54" fill="none" stroke="rgb(165, 42, 42)" stroke-width="2" stroke-linejoin="round" filter="url(#fuzzy)" /><polyline points="8.34,-112.11 5.98,-111.36 4.52,-110.45 3.55,-108.75 2.68,-106.78 1.71,-105.22 0.56,-104.38 -0.7,-104.04 -2.02,-103.7 -3.31,-102.93 -4.5,-101.53 -5.55,-99.58 -6.46,-97.39 -7.23,-95.33 -7.95,-93.79 -8.67,-93.01 -9.46,-93.03 -10.34,-93.58 -11.24,-93.93 -12,-92.67 -12.51,-88.36 -13.69,-83.58" fill="none" stroke="rgb(165, 42, 42)" stroke-width="2" stroke-linejoin="round" filter="url(#fuzzy)" /><polyline points="-15.96,-82.96 -15.11,-83.4 -13.77,-83.81 -12.46,-84.2 -11.34,-84.51 -10.39,-84.76 -9.55,-84.97 -8.8,-85.17 -8.12,-85.37 -7.48,-85.56 -6.86,-85.73 -6.2,-85.88 -5.45,-86.02 -4.49,-86.2 -3.38,-86.4 -2.72,-86.48 -3.12,-99.31 -3.88,-99.14 -5.11,-98.27 -6.12,-96.97 -6.9,-95.67 -7.56,-94.52 -8.17,-93.39 -8.75,-92.07 -9.35,-90.52 -10.01,-88.96 -10.8,-87.7 -11.79,-87 -13.01,-86.94 -14.39,-87.22 -15.67,-87.02 -16.36,-85.14 -16.6,-82.6" fill="none" stroke="rgb(165, 42, 42)" stroke-width="2" stroke-linejoin="round" filter="url(#fuzzy)" /><polyline points="-18.94,-81.78 -17.29,-82.45 -16.16,-82.99 -15.05,-83.56 -13.88,-84.18 -12.71,-84.82 -11.63,-85.44 -10.67,-86 -9.81,-86.48 -9.04,-86.83 -8.33,-87.07 -7.67,-87.26 -7.02,-87.49 -6.36,-87.84 -5.6,-88.33 -4.64,-88.93 -3.51,-89.48 -2.82,-89.58 -18.94,-81.78 -17.92,-81.22 -18.4,-81.04 -19.4,-80.65 -20.45,-80.02 -21.39,-79.2 -22.22,-78.27 -22.99,-77.27 -23.74,-76.29 -24.47,-75.36 -25.15,-74.47 -25.74,-73.55 -26.22,-72.56 -26.6,-71.47 -26.87,-70.28 -27.01,-69.09 -27.12,-68.31 -17.02,-82.52 -17.55,-82.04 -16.93,-81.93 -15.95,-81.82 -14.83,-81.8 -13.63,-81.9 -12.43,-81.96 -11.29,-81.84 -10.25,-81.5 -9.32,-81.05 -8.5,-80.59 -7.76,-80.11 -7.08,-79.52 -6.43,-78.75 -5.89,-77.99 -5.56,-77.71" fill="none" stroke="rgb(165, 42, 42)" stroke-width="2" stroke-linejoin="round" filter="url(#fuzzy)" /><polyline points="54.78,9.33 54.76,9.39 55.04,8.61 55.55,7.53 56.26,6.36 57.01,5.22 57.63,4.12 58.04,3.04 58.29,1.89 58.52,0.65 58.84,-0.7 59.29,-2.1 59.8,-3.49 60.26,-4.83 60.57,-6.11 60.71,-7.35 60.71,-8.57 60.66,-9.78 60.68,-11 60.83,-12.28 61.04,-13.66 61.17,-15.12 61,-16.88" fill="none" stroke="rgb(165, 42, 42)" stroke-width="2" stroke-linejoin="round" filter="url(#fuzzy)" /><polyline points="61,-16.88 61.32,-17.36 62.08,-18.64 62.97,-20.26 63.66,-22.02 64.17,-23.79 64.58,-25.49 64.97,-27.08 65.36,-28.58 65.91,-30.15 66.77,-31.95 67.97,-34.05 69.27,-36.32 70.29,-38.53 70.68,-40.47 70.36,-42.09 69.66,-43.53 69.16,-45.03 69.45,-46.74 70.28,-48.64" fill="none" stroke="rgb(165, 42, 42)" stroke-width="2" stroke-linejoin="round" filter="url(#fuzzy)" /><polyline points="-7.13,-114.79 -7.81,-112.97 -8.26,-110.6 -8.77,-108.4 -9.38,-106.58 -10.04,-104.92 -10.72,-102.95 -11.4,-100.43 -12.13,-97.57 -12.96,-94.78 -13.92,-92.33 -14.92,-90.17 -15.86,-88.1 -16.63,-86.01 -17.2,-84.13 -17.54,-82.89 -17.6,-82.44 -17.67,-82.27 -23.07,-79.79 -23.91,-79.26 -24.99,-78.82 -26.07,-78.71 -27.11,-78.83 -28.08,-78.99 -28.98,-79.12 -29.86,-79.23 -30.77,-79.35 -31.75,-79.52 -32.88,-79.77 -34.22,-80.19 -35.76,-80.83 -37.41,-81.6 -38.96,-82.28 -40.2,-82.69 -41.22,-83.09 -42.96,-84.54" fill="none" stroke="rgb(165, 42, 42)" stroke-width="2" stroke-linejoin="round" filter="url(#fuzzy)" /><polyline points="-25.56,-78.2 -24.96,-77.96 -23.8,-77.73 -22.75,-77.86 -21.79,-78.28 -20.81,-78.64 -19.75,-78.64 -18.67,-78.27 -17.66,-77.71 -16.78,-77.21 -15.98,-76.94 -15.18,-76.9 -14.28,-76.9 -13.21,-76.72 -11.99,-76.2 -10.73,-75.32 -9.58,-74.28 -8.61,-73.49 -7.58,-73.54 -27.49,-77.12 -26.72,-76.47 -25.76,-76.54 -24.87,-77.12 -23.98,-77.74 -23.04,-78.21 -22.07,-78.55 -21.07,-78.87 -20.04,-79.17 -19.03,-79.37 -18.12,-79.42 -17.37,-79.32 -16.73,-79.18 -16.06,-79.09 -15.32,-79.05 -14.66,-78.65" fill="none" stroke="rgb(165, 42, 42)" stroke-width="2" stroke-linejoin="round" filter="url(#fuzzy)" /><polyline points="51.45,2.28 53,0.96 53.92,-0.82 54.63,-2.39 55.4,-3.71 56.27,-4.91 57.08,-6.08 57.64,-7.26 57.9,-8.43 58,-9.59 58.15,-10.76 58.41,-11.99 58.58,-13.22 58.34,-14.34 58.05,-15.33 61.17,-16.66" fill="none" stroke="rgb(165, 42, 42)" stroke-width="2" stroke-linejoin="round" filter="url(#fuzzy)" /><polyline points="-29.58,-75.68 -29.09,-75.95 -28.43,-76.46 -27.79,-77.11 -27.15,-77.94 -26.5,-78.97 -25.8,-80.1 -25.03,-81.19 -24.18,-82.1 -23.24,-82.81 -22.24,-83.37 -21.24,-83.88 -20.29,-84.41 -19.43,-84.97 -18.66,-85.51 -17.93,-85.99 -17.14,-86.44 -16.23,-86.95 -15.14,-87.58 -13.91,-88.3 -12.64,-88.99 -11.62,-89.64 -10.94,-90.42 -29.83,-75.14 -30.75,-74.18 -31.47,-72.74 -32.09,-71.35 -32.71,-70.21 -33.35,-69.25 -34.01,-68.34 -34.72,-67.42 -35.46,-66.48 -36.15,-65.54 -36.74,-64.55 -37.25,-63.51 -37.75,-62.43 -38.3,-61.42 -38.82,-60.51 -39.19,-59.48 -39.56,-58.14 -32.76,-73.2 -32.31,-74.12 -31.73,-75.58 -31.19,-76.88 -30.72,-77.99 -30.29,-79.08 -29.85,-80.19 -29.34,-81.21 -28.7,-82.07 -27.93,-82.79 -27.08,-83.5 -26.18,-84.3 -25.27,-85.17 -24.33,-86.08 -23.36,-86.96 -22.38,-87.84 -21.44,-88.79 -20.64,-89.92 -20.02,-91.3 -19.57,-93 -19.14,-94.89 -18.54,-96.64 -17.63,-97.89 -16.3,-99.53" fill="none" stroke="rgb(165, 42, 42)" stroke-width="2" stroke-linejoin="round" filter="url(#fuzzy)" /><polyline points="-32.76,-73.2 -34.08,-72.54 -35.39,-72.88 -36.93,-73.75 -38.47,-74.26 -39.89,-74.3 -41.25,-74.27 -42.67,-74.43 -44.16,-74.71 -45.59,-74.86 -46.84,-74.69 -47.84,-74.1 -48.67,-73.19 -49.61,-72.3 -51.1,-71.93 -53.23,-72.39 -54.83,-72.87 -34.07,-71.44 -33.17,-72.87 -32.45,-74.13 -31.85,-75.55 -31.44,-77.19 -31.22,-79.04 -31.11,-81.03 -30.99,-83.03 -30.81,-85.03 -30.58,-87.15 -30.35,-89.68 -30.19,-92.77 -30.04,-96.26 -29.77,-99.55 -29.18,-101.89 -28.14,-102.92 -26.72,-103.12 -25.1,-104.07 -23.17,-107.92" fill="none" stroke="rgb(165, 42, 42)" stroke-width="2" stroke-linejoin="round" filter="url(#fuzzy)" /><polyline points="-34.07,-71.44 -34.11,-69.86 -34.77,-69.47 -35.66,-68.85 -36.51,-67.9 -37.17,-66.82 -37.66,-65.67 -38.04,-64.42 -38.34,-63.03 -38.51,-61.47 -38.52,-59.72 -38.37,-57.79 -38.18,-55.74 -38.09,-53.73 -38.18,-51.99 -37.9,-50.36" fill="none" stroke="rgb(165, 42, 42)" stroke-width="2" stroke-linejoin="round" filter="url(#fuzzy)" /><polyline points="-19.27,-68.65 -20.35,-70.18 -21.53,-71.15 -22.66,-71.58 -23.64,-71.62 -24.52,-71.53 -25.37,-71.56 -26.28,-71.84 -27.22,-72.29 -28.17,-72.75 -29.11,-73.06 -30.05,-73.14 -31.01,-72.98 -32,-72.62 -32.97,-72.12 -33.88,-71.57 -34.57,-71.12 -34.73,-71.08 -38.84,-66.98 -40.11,-69.45 -42.45,-71.31 -43.73,-71.06 -44.1,-69.52 -44.32,-67.84 -44.91,-66.66 -45.99,-66.1 -47.45,-66 -49.03,-66.08 -50.48,-66.09 -51.76,-65.9 -53.02,-65.57 -54.5,-65.35 -56.18,-65.51 -57.06,-65.61" fill="none" stroke="rgb(165, 42, 42)" stroke-width="2" stroke-linejoin="round" filter="url(#fuzzy)" /><polyline points="-38.84,-66.98 -39.31,-68.19 -40.01,-67.36 -40.78,-66.3 -41.54,-65.4 -42.33,-64.67 -43.26,-64.08 -44.32,-63.59 -45.46,-63.15 -46.56,-62.68 -47.52,-62.1 -48.35,-61.38 -49.11,-60.54 -49.9,-59.68 -50.8,-58.88 -51.81,-58.12 -52.96,-57.25 -54.24,-56.21 -18.71,-73.75 -19.33,-73.47 -20.29,-73.6 -21.28,-73.73 -22.27,-73.7 -23.22,-73.53 -24.13,-73.3 -24.99,-73.09 -25.82,-72.92 -26.6,-72.78 -27.36,-72.62 -28.12,-72.43 -28.9,-72.17 -29.71,-71.84 -30.57,-71.46 -31.47,-71.03 -32.37,-70.56 -33.24,-70.02 -34.05,-69.34 -34.83,-68.5 -35.64,-67.57 -36.53,-66.79 -37.44,-66.47 -38.27,-66.56 -39.5,-66.18" fill="none" stroke="rgb(165, 42, 42)" stroke-width="2" stroke-linejoin="round" filter="url(#fuzzy)" /><polyline points="-39.5,-66.18 -40.57,-65.06 -41.22,-64.34 -41.85,-63.6 -42.54,-62.73 -43.25,-61.76 -43.97,-60.78 -44.68,-59.81 -45.36,-58.88 -46.02,-57.95 -46.68,-57.01 -47.34,-56.04 -48.01,-55.05 -48.66,-54.06 -49.3,-53.06 -49.9,-52.08 -50.46,-51.12 -51,-50.17 -51.51,-49.25 -51.99,-48.38 -52.42,-47.59 -52.8,-46.85 -53.21,-46 -53.75,-44.84 -41.15,-64.44 -40.71,-67.55 -40.53,-69.78 -40.73,-72.12 -40.83,-74.49 -40.46,-76.34 -39.67,-77.49 -38.72,-78.26 -37.85,-79.07 -37.1,-80.16 -36.44,-81.57 -35.86,-83.33 -35.5,-85.64 -35.54,-88.59 -35.93,-91.62 -35.89,-92.64" fill="none" stroke="rgb(165, 42, 42)" stroke-width="2" stroke-linejoin="round" filter="url(#fuzzy)" /><polyline points="-41.76,-63.85 -42.78,-63.15 -44.18,-62.91 -45.9,-63.12 -47.5,-63.31 -48.81,-63.22 -49.97,-62.9 -51.14,-62.51 -52.46,-62.16 -53.94,-61.92 -55.59,-61.78 -57.42,-61.8 -59.41,-62.07 -61.38,-62.53 -62.98,-62.69 -64.12,-61.67" fill="none" stroke="rgb(165, 42, 42)" stroke-width="2" stroke-linejoin="round" filter="url(#fuzzy)" /><polyline points="-27.01,-60.87 -27.91,-61.4 -29.2,-62.18 -30.25,-62.48 -31.04,-62.16 -31.75,-61.46 -32.55,-60.77 -33.5,-60.42 -34.68,-60.56 -36.08,-61.12 -37.65,-61.88 -39.19,-62.56 -40.53,-62.95 -41.58,-62.91 -42.41,-62.43 -43.06,-61.72" fill="none" stroke="rgb(165, 42, 42)" stroke-width="2" stroke-linejoin="round" filter="url(#fuzzy)" /><polyline points="60.59,-19.64 60.28,-18.24 60.33,-17.11 60.37,-16.02 60.38,-14.86 60.33,-13.63 60.14,-12.36 59.84,-11.09 59.46,-9.83 59.08,-8.58 58.75,-7.34 58.49,-6.12 58.28,-4.88 58.09,-3.6 57.91,-2.24 57.69,-0.84 57.35,0.52 56.84,1.73 56.17,2.74 55.43,3.66 54.86,4.83 54.86,7.2 60.59,-19.64 60.31,-20.84 59.99,-22.45 59.71,-23.89 59.48,-25.05 59.25,-26.06 58.99,-27.04 58.68,-28.06 58.32,-29.16 57.92,-30.33 57.49,-31.54 57.06,-32.76 56.63,-33.99 56.2,-35.2 55.81,-36.34 55.48,-37.29 55.19,-38.01 54.91,-38.5 -21.96,-67.17 -23.41,-67.55 -24.32,-67.81 -25.08,-67.94 -25.83,-68 -26.61,-68.07 -27.44,-68.07 -28.3,-67.93 -29.16,-67.61 -30.02,-67.18 -30.9,-66.73 -31.8,-66.3 -32.74,-65.92 -33.71,-65.53 -34.68,-65.12 -35.62,-64.67 -36.54,-64.2 -37.44,-63.75 -38.34,-63.31 -39.24,-62.86 -40.08,-62.35 -40.88,-61.75 -41.76,-61.14 -42.96,-60.62 -44.55,-59.81" fill="none" stroke="rgb(165, 42, 42)" stroke-width="2" stroke-linejoin="round" filter="url(#fuzzy)" /><polyline points="-44.55,-59.81 -43.72,-61.72 -42.86,-62.76 -42.11,-63.61 -41.44,-64.46 -40.78,-65.35 -40.12,-66.29 -39.46,-67.25 -38.79,-68.24 -38.11,-69.25 -37.4,-70.31 -36.7,-71.42 -36.02,-72.59 -35.38,-73.82 -34.77,-75.1 -34.13,-76.38 -33.45,-77.59 -32.74,-78.65 -32.02,-79.52 -31.37,-80.25 -30.78,-81 -30.17,-81.87 -29.49,-82.73" fill="none" stroke="rgb(165, 42, 42)" stroke-width="2" stroke-linejoin="round" filter="url(#fuzzy)" /><polyline points="-44.55,-59.81 -45.18,-59.47 -45.98,-59.1 -46.7,-58.47 -47.42,-57.63 -48.2,-56.76 -49.05,-55.92 -49.89,-55.09 -50.68,-54.25 -51.39,-53.39 -52.05,-52.53 -52.66,-51.65 -53.28,-50.81 -53.94,-50.08 -54.68,-49.56 -55.53,-49.22 -56.43,-48.76 -57.24,-47.74 -44.55,-59.81 -42.38,-59.78 -41.35,-60.54 -40.75,-61.57 -40.18,-62.5 -39.48,-63.25 -38.71,-63.91 -37.91,-64.57 -37.14,-65.28 -36.38,-66.08 -35.62,-66.93 -34.84,-67.76 -34.04,-68.54 -33.23,-69.24 -32.39,-69.85 -31.5,-70.37 -30.56,-70.77 -29.6,-71.02 -28.66,-71.09 -27.79,-71.02 -26.97,-70.93 -26.16,-70.95 -25.38,-71.2 -38.46,-99.28 -37.79,-96.31 -37.73,-93.81 -38.24,-91.9 -39.02,-90.34 -39.82,-88.84 -40.51,-87.23 -41.08,-85.5 -41.6,-83.7 -42.11,-81.84 -42.56,-79.92 -42.95,-77.98 -43.32,-76.12 -43.7,-74.41 -44.09,-72.79 -44.38,-71.1 -44.55,-69.3 -44.81,-67.67 -45.47,-66.57 -46.17,-65.24 -44.55,-59.81 -73.58,-61.38 -69.43,-59.93 -67.53,-59.83 -66.34,-60.09 -65.02,-60.28 -63.39,-60.3 -61.6,-60.25 -59.9,-60.28 -58.36,-60.47 -56.87,-60.7 -55.18,-60.73 -53.17,-60.39 -50.99,-59.85 -49,-59.47 -47.45,-59.4 -46.14,-59.27 -44.74,-59.46 -47.68,-55.25 -50.65,-57.35 -52.83,-57.77 -54.09,-57.26 -54.38,-55.95 -54.39,-54.43 -54.74,-53.25 -55.64,-52.62 -56.98,-52.45 -58.6,-52.53 -60.44,-52.7 -62.56,-52.86 -64.96,-53 -67.53,-53.18 -70.03,-53.51 -72.34,-54.15 -75.81,-55.52 -42.79,-75.31 -42.76,-74.71 -42.66,-73.58 -42.79,-71.93 -42.99,-70.07 -43.19,-68.25 -43.42,-66.56 -43.73,-65.03 -44.16,-63.62 -44.68,-62.31 -45.25,-61.13 -45.87,-60.1 -46.58,-59.25 -47.41,-58.54 -48.35,-57.93 -49.28,-57.31 -49.9,-56.34 -49.1,-53.13" fill="none" stroke="rgb(165, 42, 42)" stroke-width="2" stroke-linejoin="round" filter="url(#fuzzy)" /><polyline points="-49.1,-53.13 -48.16,-54.35 -47.46,-55.24 -46.79,-56.16 -46.14,-57.11 -45.51,-58.05 -44.87,-58.97 -44.2,-59.9 -43.5,-60.85 -42.77,-61.79 -42.05,-62.7 -41.34,-63.58 -40.63,-64.43 -39.91,-65.25 -39.18,-66.05 -38.44,-66.83 -37.66,-67.61 -36.83,-68.41 -35.95,-69.22 -35.08,-69.97 -34.3,-70.62 -33.51,-71.31 -32.43,-72.48" fill="none" stroke="rgb(165, 42, 42)" stroke-width="2" stroke-linejoin="round" filter="url(#fuzzy)" /><polyline points="60.36,-20.29 60.58,-19.45 60.79,-18.41 60.95,-17.35 61.07,-16.26 61.16,-15.1 61.23,-13.89 61.29,-12.66 61.34,-11.42 61.39,-10.19 61.43,-8.96 61.46,-7.73 61.48,-6.5 61.46,-5.24 61.43,-3.92 61.38,-2.48 61.33,-0.92 61.29,0.63 61.24,1.96 61.18,3.04 61.07,4.81 60.36,-20.29 59.82,-22.49 59.32,-23.97 58.98,-25.04 58.75,-26.01 58.54,-27 58.27,-28.07 57.94,-29.21 57.56,-30.41 57.16,-31.64 56.72,-32.85 56.26,-34.02 55.78,-35.14 55.28,-36.21 54.76,-37.23 54.2,-38.27 53.61,-39.35 53,-40.47 52.4,-41.58 51.84,-42.6 51.29,-43.55 50.65,-44.51 50.01,-45.27" fill="none" stroke="rgb(165, 42, 42)" stroke-width="2" stroke-linejoin="round" filter="url(#fuzzy)" /><polyline points="-51.97,-47.29 -52.07,-47.1 -52.31,-46.53 -52.66,-45.61 -53.11,-44.47 -53.58,-43.27 -54.02,-42.12 -54.43,-41 -54.8,-39.85 -55.18,-38.61 -55.59,-37.3 -56,-36 -56.39,-34.79 -56.73,-33.69 -56.98,-32.83 -57.04,-32.68 -53.37,-81.61 -52.52,-77.62 -52.07,-74.31 -52.07,-71.76 -52.2,-69.69 -52.24,-67.73 -52.15,-65.71 -52.06,-63.67 -52.14,-61.8 -52.54,-60.27 -53.24,-59.11 -54.07,-58.17 -54.69,-57.14 -54.77,-55.66 -54.19,-53.55 -53.17,-50.91 -52.27,-48.4 -51.99,-47.27 -52.26,-46.94 -55.39,-48.03 -56.87,-47.4 -57.23,-45.9 -57.08,-44.15 -56.92,-42.48 -57,-40.96 -57.34,-39.57 -57.87,-38.28 -58.56,-37.11 -59.38,-36.02 -60.31,-35.01 -61.34,-34.03 -62.39,-33.01 -63.4,-31.9 -64.31,-30.68 -65.07,-29.36 -65.72,-27.98 -66.31,-26.62 -66.93,-25.35 -67.63,-24.17 -68.41,-23.08 -69.19,-21.98 -69.82,-20.63 -70.38,-18.36 -52.26,-46.94 -51.55,-46.86 -50.83,-47.19 -50.19,-47.94 -49.68,-48.89 -49.26,-49.91 -48.85,-50.96 -48.38,-52 -47.8,-53.01 -47.13,-53.95 -46.4,-54.82 -45.63,-55.61 -44.88,-56.34 -44.16,-57.03 -43.41,-57.71 -42.57,-58.42 -41.6,-59.16 -40.62,-59.7 -46.22,-81.36 -45.58,-79.61 -45.59,-78.5 -46.1,-77.27 -46.64,-75.79 -47,-74.06 -47.2,-72.15 -47.36,-70.18 -47.57,-68.28 -47.86,-66.51 -48.22,-64.89 -48.6,-63.4 -48.98,-61.95 -49.31,-60.48 -49.6,-58.98 -49.88,-57.46 -50.17,-55.97 -50.51,-54.57 -50.88,-53.29 -51.23,-52.07 -51.51,-50.83 -51.71,-49.51 -51.87,-48.25 -52.06,-47.35 -52.26,-46.94" fill="none" stroke="rgb(165, 42, 42)" stroke-width="2" stroke-linejoin="round" filter="url(#fuzzy)" /><polyline points="-52.63,-45.84 -53.47,-44.54 -54.59,-43.56 -55.46,-42.68 -56.09,-41.71 -56.72,-40.65 -57.48,-39.57 -58.42,-38.53 -59.47,-37.56 -60.59,-36.65 -61.71,-35.73 -62.77,-34.75 -63.74,-33.66 -64.58,-32.45 -65.29,-31.11 -65.92,-29.7 -66.58,-28.3 -67.34,-26.99 -68.25,-25.81 -69.25,-24.73 -70.27,-23.7 -71.3,-22.64 -72.28,-21.34 -72.98,-19.04 -52.63,-45.84 -52.24,-46.56 -51.67,-46.93 -50.95,-47.36 -50.25,-48 -49.62,-48.78 -48.98,-49.56 -48.27,-50.29 -47.48,-50.99 -46.69,-51.74 -45.95,-52.6 -45.3,-53.53 -44.68,-54.46 -44,-55.26 -43.2,-55.84 -42.23,-56.22 -41.11,-56.5 -39.97,-56.9 -39,-57.55 -38.21,-58.42 -58.87,-22.16 -58.75,-23.62 -58.52,-25.03 -58.24,-26.51 -57.95,-27.96 -57.65,-29.34 -57.36,-30.67 -57.07,-31.95 -56.79,-33.21 -56.49,-34.45 -56.14,-35.71 -55.75,-36.99 -55.31,-38.26 -54.88,-39.49 -54.48,-40.63 -54.09,-41.71 -53.66,-42.9 -53.17,-44.34 -52.63,-45.84 -54.11,-14.18 -54.42,-14.93 -54.45,-16.1 -54.6,-17.3 -54.92,-18.53 -55.35,-19.82 -55.8,-21.17 -56.18,-22.59 -56.45,-24.06 -56.61,-25.55 -56.63,-27.02 -56.55,-28.45 -56.38,-29.83 -56.17,-31.17 -55.98,-32.5 -55.81,-33.83 -55.63,-35.2 -55.39,-36.57 -55.03,-37.9 -54.58,-39.13 -54.1,-40.2 -53.71,-41.22 -53.53,-42.57 -53.23,-44.39" fill="none" stroke="rgb(165, 42, 42)" stroke-width="2" stroke-linejoin="round" filter="url(#fuzzy)" /><polyline points="-44.01,-68.91 -43.81,-68.09 -44.08,-66.98 -44.62,-65.79 -45.28,-64.58 -45.94,-63.39 -46.56,-62.23 -47.16,-61.12 -47.76,-60.03 -48.33,-58.93 -48.88,-57.77 -49.38,-56.55 -49.84,-55.29 -50.27,-54.04 -50.71,-52.85 -51.18,-51.76 -51.7,-50.77 -52.23,-49.87 -52.72,-48.99 -53.11,-48.08 -53.41,-47.07 -53.71,-45.92 -54.1,-44.54 -54.5,-42.78 -54.96,-40.68" fill="none" stroke="rgb(165, 42, 42)" stroke-width="2" stroke-linejoin="round" filter="url(#fuzzy)" /><polyline points="68.04,-69.27 69.08,-66.82 69.83,-64.97 69.65,-62.91 68.82,-60.45 67.83,-57.88 66.97,-55.38 66.19,-52.91 65.42,-50.43 64.7,-48 64.11,-45.74 63.72,-43.72 63.44,-41.88 63.11,-40.07 62.58,-38.16 61.88,-36.15 61.15,-34.13 60.58,-32.22 60.26,-30.53 60.18,-29.08 60.25,-27.85 60.35,-26.8 60.38,-25.84 60.21,-24.75 60.02,-22.98" fill="none" stroke="rgb(165, 42, 42)" stroke-width="2" stroke-linejoin="round" filter="url(#fuzzy)" /><polyline points="-47.32,-72.35 -48.03,-70.87 -48.78,-69.43 -49.43,-67.95 -49.94,-66.49 -50.39,-65.1 -50.84,-63.74 -51.29,-62.39 -51.72,-60.99 -52.11,-59.54 -52.46,-58.07 -52.81,-56.65 -53.17,-55.32 -53.55,-54.07 -53.9,-52.88 -54.16,-51.67 -54.3,-50.4 -54.32,-49.07 -54.29,-47.67 -54.28,-46.19 -54.35,-44.67 -54.53,-43.22 -54.76,-42 -54.91,-41.16 -54.95,-40.25" fill="none" stroke="rgb(165, 42, 42)" stroke-width="2" stroke-linejoin="round" filter="url(#fuzzy)" /><polyline points="-56.34,-36.18 -56.82,-38.51 -56.94,-40.5 -56.4,-41.65 -55.78,-42.62 -55.41,-43.84 -55.32,-45.34 -55.33,-46.89 -55.25,-48.28 -54.99,-49.42 -54.56,-50.38 -54.05,-51.28 -53.56,-52.25 -53.14,-53.34 -52.8,-54.58 -52.52,-55.97 -52.29,-57.49 -52.09,-59.15 -51.9,-60.89 -51.65,-62.67 -51.4,-64.31 -51.92,-64.85" fill="none" stroke="rgb(165, 42, 42)" stroke-width="2" stroke-linejoin="round" filter="url(#fuzzy)" /><polyline points="-56.34,-36.18 -56.08,-37.97 -56.54,-40.24 -57.64,-42.64 -58.5,-44.72 -58.56,-46.26 -57.91,-47.3 -56.96,-48.1 -56.1,-48.91 -55.51,-49.85 -55.15,-50.95 -54.9,-52.14 -54.67,-53.4 -54.45,-54.74 -54.29,-56.23 -54.27,-57.97 -54.42,-59.99 -54.69,-62.27 -54.97,-64.63 -55.05,-66.82 -54.81,-68.56 -54.35,-69.78 -53.85,-71.57 -61.84,-71.66 -62.13,-70.4 -62.13,-68.05 -61.77,-65.49 -61.22,-63.03 -60.62,-60.69 -60.1,-58.52 -59.76,-56.59 -59.68,-54.97 -59.84,-53.6 -60.11,-52.3 -60.31,-50.88 -60.35,-49.25 -60.25,-47.49 -60.26,-45.8 -60.73,-44.45 -61.91,-43.52 -63.49,-42.79 -64.33,-41.59 -62.69,-38.98 -57.16,-34.15 -57.16,-34.15 -56.73,-35.18 -56.09,-36.23 -55.45,-37.44 -54.92,-38.7 -54.46,-39.89 -54.01,-40.97 -53.49,-42 -52.9,-43 -52.24,-43.92 -51.55,-44.71 -50.86,-45.37 -50.18,-45.96 -49.52,-46.58 -48.87,-47.28 -48.25,-48.02 -47.79,-48.66 -47.39,-49.11" fill="none" stroke="rgb(165, 42, 42)" stroke-width="2" stroke-linejoin="round" filter="url(#fuzzy)" /><polyline points="-57.54,-32.96 -57.02,-32.88 -56.76,-33.79 -56.38,-34.89 -55.8,-36.02 -55.08,-37.1 -54.3,-38.12 -53.56,-39.11 -52.91,-40.1 -52.34,-41.12 -51.81,-42.15 -51.3,-43.15 -50.79,-44.08 -50.28,-44.93 -49.74,-45.7 -49.14,-46.41 -48.47,-47.06 -47.71,-47.64 -46.88,-48.18 -46,-48.72 -45.13,-49.34 -44.34,-50.02 -43.68,-50.55 -43.17,-50.76" fill="none" stroke="rgb(165, 42, 42)" stroke-width="2" stroke-linejoin="round" filter="url(#fuzzy)" /><polyline points="-45.14,-46.78 -45.69,-46.5 -46.32,-46.06 -46.96,-45.4 -47.51,-44.66 -48.05,-43.96 -48.67,-43.34 -49.37,-42.7 -50.08,-41.97 -50.72,-41.1 -51.29,-40.14 -51.85,-39.14 -52.48,-38.17 -53.26,-37.24 -54.17,-36.33 -55.1,-35.43 -55.93,-34.5 -56.58,-33.53 -57.12,-32.49 -57.74,-31.2 -58.68,-28.65" fill="none" stroke="rgb(165, 42, 42)" stroke-width="2" stroke-linejoin="round" filter="url(#fuzzy)" /><polyline points="59.44,-25.4 61.75,-23.87 62.37,-22.09 63.41,-20.79 65.11,-19.9 67.07,-19.17 68.82,-18.36 70.1,-17.36 70.91,-16.16 71.37,-14.83 71.62,-13.44 71.84,-12.03 72.24,-10.63 73.04,-9.25 74.32,-7.92 75.98,-6.6 77.76,-5.17 79.44,-3.45 80.89,-1.22 81.96,1.49 82.65,3.66 57.17,1.66 57.4,1.75 57.67,0.63 58.11,-0.96 58.64,-2.52 59.11,-3.93 59.42,-5.2 59.57,-6.41 59.59,-7.6 59.53,-8.79 59.41,-9.96 59.25,-11.13 59.07,-12.29 58.92,-13.46 58.86,-14.64 58.92,-15.83 59.09,-17.05 59.25,-18.29 59.26,-19.6 59.08,-21.02 58.87,-22.61 59.03,-24.24 59.52,-25.04 59.27,-26.61 59.12,-27.3 58.9,-28.4 58.76,-29.76 58.82,-31.33 59.2,-33.12 59.87,-35.09 60.64,-37.11 61.24,-39 61.55,-40.7 61.67,-42.32 61.85,-44.11 62.36,-46.27 63.28,-48.83 64.42,-51.56 65.47,-54.16 66.21,-56.43 66.65,-58.41 66.94,-60.2 67.01,-61.83 65.97,-63.55" fill="none" stroke="rgb(165, 42, 42)" stroke-width="2" stroke-linejoin="round" filter="url(#fuzzy)" /><polyline points="74.88,3.31 73.38,1.34 72.76,-1.13 72.37,-3.19 71.76,-4.83 70.86,-6.21 69.85,-7.5 68.92,-8.78 68.19,-10.08 67.65,-11.38 67.21,-12.66 66.76,-13.93 66.28,-15.17 65.78,-16.37 65.31,-17.56 64.88,-18.74 64.53,-20 64.29,-21.39 64.08,-22.9 63.58,-24.36 62.33,-25.42 60.44,-25.91 59.27,-26.61 59.22,-26.95 59.46,-26.41 60.04,-25.71 60.78,-24.79 61.48,-23.6 62.07,-22.26 62.61,-20.93 63.22,-19.71 63.92,-18.59 64.67,-17.54 65.37,-16.46 65.91,-15.3 66.26,-14.06 66.5,-12.77 66.81,-11.49 67.39,-10.2 68.28,-8.9 69.3,-7.61 70.11,-6.66 70.46,-7.01" fill="none" stroke="rgb(165, 42, 42)" stroke-width="2" stroke-linejoin="round" filter="url(#fuzzy)" /><polyline points="59.22,-26.95 58.58,-28.15 57.98,-29.37 57.46,-30.65 56.92,-31.85 56.28,-32.94 55.59,-33.96 54.9,-34.93 54.25,-35.88 53.65,-36.86 53.09,-37.89 52.58,-39 52.1,-40.14 51.65,-41.27 51.17,-42.3 50.64,-43.22 50.03,-44.05 49.36,-44.84 48.62,-45.65 47.85,-46.52 47.11,-47.42 46.44,-48.2 45.77,-48.78 44.6,-49.88 58.71,-28.54 58.73,-29.79 58.35,-31.21 57.92,-32.52 57.58,-33.83 57.36,-35.2 57.28,-36.62 57.28,-38.07 57.3,-39.54 57.26,-41.04 57.14,-42.54 56.95,-44.02 56.74,-45.48 56.57,-46.94 56.49,-48.43 56.46,-49.98 56.44,-51.57 56.33,-53.16 56.08,-54.7 55.67,-56.1 55.17,-57.33 54.68,-58.47 54.27,-59.73 53.95,-61.38 53.36,-63.65" fill="none" stroke="rgb(165, 42, 42)" stroke-width="2" stroke-linejoin="round" filter="url(#fuzzy)" /><polyline points="54.77,-66.86 55.11,-66.66 55.05,-64.94 54.94,-62.85 54.98,-60.96 55.12,-59.33 55.27,-57.77 55.35,-56.12 55.39,-54.38 55.43,-52.64 55.52,-51.01 55.66,-49.52 55.87,-48.18 56.19,-46.95 56.61,-45.74 57.09,-44.46 57.47,-43 57.53,-41.33 57.11,-39.58 56.39,-38.1 56.05,-37.56" fill="none" stroke="rgb(165, 42, 42)" stroke-width="2" stroke-linejoin="round" filter="url(#fuzzy)" /><polyline points="55.42,-38.86 54.62,-40.92 53.93,-42.47 53.39,-43.54 52.85,-44.4 52.24,-45.18 51.54,-45.91 50.72,-46.6 49.81,-47.27 48.82,-47.89 47.8,-48.42 46.74,-48.81 45.63,-49.07 44.47,-49.26 43.28,-49.45 42.14,-49.72 41.13,-50.1 40.1,-50.58 38.2,-51.21" fill="none" stroke="rgb(165, 42, 42)" stroke-width="2" stroke-linejoin="round" filter="url(#fuzzy)" /><polyline points="53.36,-44.26 53.5,-44.25 53.45,-45.12 53.33,-46.33 53.16,-47.61 52.95,-48.98 52.76,-50.48 52.61,-52.06 52.5,-53.68 52.46,-55.34 52.51,-57.13 52.66,-59.09 52.87,-61.19 52.99,-63.27 52.88,-65.11 52.47,-66.62 51.84,-67.84 51.17,-68.99 50.56,-70.3 50.01,-71.97 49.61,-74.15 49.65,-76.87" fill="none" stroke="rgb(165, 42, 42)" stroke-width="2" stroke-linejoin="round" filter="url(#fuzzy)" /><polyline points="53.67,-43.67 53.22,-44.56 52.69,-45.67 52.21,-46.67 51.71,-47.69 51.17,-48.78 50.61,-49.91 50.07,-51 49.54,-51.99 49.01,-52.92 48.45,-53.86 47.85,-54.85 47.23,-55.86 46.61,-56.86 45.89,-57.95 44.62,-59.83 61.18,-19.83 60.86,-21.05 60.48,-22.67 60.15,-24.09 59.87,-25.26 59.62,-26.29 59.36,-27.31 59.06,-28.38 58.71,-29.52 58.33,-30.72 57.93,-31.96 57.53,-33.22 57.15,-34.47 56.77,-35.68 56.4,-36.84 56.02,-37.96 55.61,-39.09 55.13,-40.31 54.58,-41.63 54.05,-42.91 53.65,-43.77 53.41,-44.1" fill="none" stroke="rgb(165, 42, 42)" stroke-width="2" stroke-linejoin="round" filter="url(#fuzzy)" /><polyline points="34.83,-59.66 35,-59.44 35.8,-59.42 36.69,-59.37 37.55,-59.2 38.37,-58.86 39.12,-58.28 39.79,-57.51 40.43,-56.63 41.1,-55.79 41.85,-55.04 42.7,-54.4 43.6,-53.8 44.52,-53.22 45.43,-52.61 46.31,-51.99 47.14,-51.33 47.86,-50.58 48.42,-49.65 48.86,-48.5 49.28,-47.24 49.82,-46.14 50.64,-45.46 51.9,-45.13 53.41,-44.1" fill="none" stroke="rgb(165, 42, 42)" stroke-width="2" stroke-linejoin="round" filter="url(#fuzzy)" /><polyline points="53.41,-44.1 53.66,-43.8 54.21,-43.11 55.16,-42.14 56.39,-41.27 57.71,-40.61 59.02,-40.08 60.3,-39.54 61.61,-38.92 62.99,-38.21 64.44,-37.46 65.91,-36.65 67.23,-35.69 68.24,-34.46 68.91,-33.07 69.7,-31.73 52,-47.07 51.56,-47.45 50.77,-48.52 49.91,-49.56 49.14,-50.43 48.46,-51.18 47.81,-51.93 47.14,-52.73 46.44,-53.58 45.74,-54.47 45.02,-55.36 44.29,-56.2 43.53,-56.93 42.79,-57.46 42.06,-57.91 40.96,-58.91 47.12,-92.85 48.49,-89.31 49.44,-87.26 49.82,-85.32 49.77,-83.01 49.6,-80.61 49.62,-78.51 49.95,-76.83 50.55,-75.49 51.26,-74.27 51.9,-72.96 52.35,-71.41 52.58,-69.59 52.59,-67.52 52.45,-65.26 52.19,-62.89 51.85,-60.5 51.47,-58.17 51.08,-55.96 50.78,-53.97 50.69,-52.23 50.88,-50.68 51.33,-49.18 51.86,-47.78 52,-47.07" fill="none" stroke="rgb(165, 42, 42)" stroke-width="2" stroke-linejoin="round" filter="url(#fuzzy)" /><polyline points="52,-47.07 52.09,-48.02 52.41,-50.29 52.61,-52.46 52.49,-54.08 52.16,-55.37 51.79,-56.64 51.4,-57.95 50.92,-59.23 50.3,-60.37 49.55,-61.39 48.79,-62.39 48.11,-63.51 47.6,-64.85 47.27,-66.47 47.12,-68.38 47.13,-70.52 47.26,-72.79 47.45,-75.08 47.61,-77.28 47.7,-79.37 47.79,-81.44 47.94,-83.66 47.53,-85.79 50.93,-49.05 51.79,-47.78 52.48,-47.16 53.18,-46.55 53.89,-45.82 54.6,-45 55.31,-44.04 55.98,-42.95 56.65,-41.82 57.36,-40.74 58.17,-39.79 59.04,-38.92 59.9,-38.03 60.62,-36.98 61.12,-35.74 61.47,-34.36 61.87,-32.95 62.5,-31.62 63.42,-30.45 64.64,-29.42" fill="none" stroke="rgb(165, 42, 42)" stroke-width="2" stroke-linejoin="round" filter="url(#fuzzy)" /><polyline points="49.38,-52.73 49.47,-52.63 49.45,-54.02 49.66,-56.06 49.84,-58.14 49.84,-60.04 49.73,-61.84 49.63,-63.67 49.59,-65.57 49.59,-67.53 49.59,-69.59 49.52,-71.71 49.3,-73.64 48.86,-75.08 48.4,-76.28 48.78,-79.1 48.41,-53.86 47.53,-55.64 47.3,-57.39 47.82,-60 48.88,-63.34 49.92,-66.67 50.46,-69.36 50.32,-71.21 49.64,-72.36 48.74,-73.19 47.95,-74.14 47.51,-75.55 47.48,-77.59 47.72,-80.16 48.02,-83.05 48.11,-86.03 47.77,-88.86 47.04,-91.4 46.51,-93.71 47.7,-96.52" fill="none" stroke="rgb(165, 42, 42)" stroke-width="2" stroke-linejoin="round" filter="url(#fuzzy)" /><polyline points="48.41,-53.86 47.21,-55.24 46.5,-56.32 45.77,-57.21 44.96,-57.97 44.16,-58.68 43.38,-59.39 42.6,-60.11 41.78,-60.8 40.97,-61.43 40.18,-61.99 39.44,-62.5 38.73,-62.97 38.03,-63.42 37.29,-63.83 36.39,-64.2 35.14,-64.68 33.31,-65.63" fill="none" stroke="rgb(165, 42, 42)" stroke-width="2" stroke-linejoin="round" filter="url(#fuzzy)" /><polyline points="48.41,-53.86 47.51,-55.61 46.93,-56.86 46.42,-58.07 45.97,-59.35 45.6,-60.69 45.25,-62.08 44.89,-63.48 44.47,-64.85 44.01,-66.13 43.53,-67.26 43,-68.25 42.45,-69.14 41.9,-70.06 41.36,-71.14 40.76,-72.47 39.9,-74.01 38.62,-75.61 37.35,-77.38 73.31,-40.92 71.55,-41.94 69.34,-42.62 67.29,-43.14 65.79,-43.81 64.82,-44.78 64.16,-46.03 63.58,-47.41 62.9,-48.71 61.97,-49.71 60.68,-50.29 59.03,-50.47 57.15,-50.4 55.24,-50.31 53.52,-50.4 52.1,-50.78 50.99,-51.4 50.13,-52.15 49.42,-52.96 48.76,-53.84 48.08,-54.85 47.33,-55.99 46.63,-57.06" fill="none" stroke="rgb(165, 42, 42)" stroke-width="2" stroke-linejoin="round" filter="url(#fuzzy)" /><polyline points="44.36,-60.12 45.43,-59.74 46.74,-59.14 48.01,-58.67 49.42,-58.44 50.82,-58.22 52.02,-57.82 52.96,-57.19 53.74,-56.39 54.56,-55.54 55.53,-54.72 56.68,-53.99 57.9,-53.37 59.02,-52.75 59.89,-51.91 60.58,-50.73 61.58,-50.11 44.36,-60.12 44.98,-59.15 45.79,-57.93 46.51,-56.83 47.17,-55.77 47.8,-54.74 48.4,-53.73 48.96,-52.73 49.51,-51.72 50.04,-50.67 50.56,-49.57 51.08,-48.46 51.58,-47.36 52.05,-46.3 52.5,-45.25 52.94,-44.19 53.38,-43.08 53.84,-41.9 54.31,-40.64 54.77,-39.38 55.17,-38.24 55.51,-37.27 55.82,-36.27 56.26,-34.54 41.96,-62.81 42.27,-64.92 42.29,-66.42 42.16,-67.79 41.91,-69.13 41.69,-70.75 41.56,-72.84 41.42,-75.24 41.1,-77.53 40.53,-79.39 39.8,-80.86 39.14,-82.42 38.75,-84.59 38.73,-87.64 39.16,-91.38 40.13,-95.29 41.83,-98.2" fill="none" stroke="rgb(165, 42, 42)" stroke-width="2" stroke-linejoin="round" filter="url(#fuzzy)" /><polyline points="41.1,-64.05 40.47,-65.09 40.05,-66.22 39.72,-67.59 39.3,-69.1 38.71,-70.62 37.98,-72.07 37.2,-73.35 36.38,-74.44 35.57,-75.36 34.77,-76.16 34.02,-76.87 33.34,-77.54 32.71,-78.24 32.1,-79.07 31.46,-80.12 30.73,-81.43 29.94,-82.92 29.16,-84.47 28.55,-85.95 28.15,-87.45 27.31,-89.11" fill="none" stroke="rgb(165, 42, 42)" stroke-width="2" stroke-linejoin="round" filter="url(#fuzzy)" /><polyline points="38.74,-66.99 39.58,-65.92 40.04,-64.88 40.4,-63.8 40.78,-62.72 41.25,-61.63 41.79,-60.54 42.31,-59.42 42.78,-58.28 43.2,-57.1 43.59,-55.89 43.95,-54.64 44.26,-53.31 44.45,-51.85 44.5,-50.24 44.43,-48.57 44.28,-47.14 44.14,-47.14 38.74,-66.99 39.95,-70.13 40.36,-73.76 39.74,-75.88 38.71,-76.98 37.65,-77.66 36.66,-78.26 35.76,-78.87 34.96,-79.51 34.3,-80.32 33.76,-81.44 33.3,-82.91 32.84,-84.68 32.33,-86.64 31.76,-88.67 31.19,-90.71 30.63,-92.66 30.06,-94.4 29.44,-95.85 28.74,-97.08 27.98,-98.41 27.23,-100.25 26.46,-102.78 25.58,-105.52 24.67,-106.58" fill="none" stroke="rgb(165, 42, 42)" stroke-width="2" stroke-linejoin="round" filter="url(#fuzzy)" /><polyline points="44.95,-37.12 44.81,-39.01 45.09,-40.54 45.32,-42.04 45.49,-43.68 45.63,-45.37 45.73,-46.98 45.72,-48.42 45.53,-49.69 45.17,-50.8 44.67,-51.81 44.09,-52.79 43.52,-53.8 42.97,-54.85 42.48,-55.96 42.05,-57.16 41.68,-58.46 41.36,-59.86 41.09,-61.31 40.81,-62.69 40.46,-63.86 40.01,-64.8 39.48,-65.57 39,-66.26 39,-66.81 39,-66.81 37.7,-68.36 36.46,-69.73 35.47,-70.74 34.62,-71.54 33.81,-72.24 33.03,-72.89 32.3,-73.49 31.63,-74.04 30.98,-74.56 30.28,-75.11 29.49,-75.72 28.62,-76.37 27.69,-77.04 26.79,-77.7 25.95,-78.32 25.19,-78.89 24.49,-79.42 23.8,-79.9 23.08,-80.35 22.35,-80.76 21.9,-81.04 34.93,-70.68 36.38,-73.26 38.17,-73.96 40.14,-74.34 41.8,-74.4 42.97,-73.98 43.83,-73.3 44.64,-72.65 45.52,-72.1 46.49,-71.62 47.55,-71.16 48.77,-70.79 50.22,-70.65 51.92,-70.79 53.79,-71.09 55.71,-71.4 57.58,-71.54 59.31,-71.41 60.86,-70.96 62.28,-70.26 63.78,-69.63 65.45,-69.6 65.6,-70.05 34.93,-70.68 34.27,-73.04 34.44,-76.8 34.94,-80.57 35.1,-82.96 34.72,-83.98 33.98,-84.53 33.14,-85.41 32.35,-86.85 31.63,-88.67 31.02,-90.64 30.52,-92.66 30.11,-94.71 29.71,-96.68 29.29,-98.63 28.95,-101.07 28.95,-104.8 29.55,-109.33 34.93,-70.68 34.3,-69.12 34.97,-67.93 36.05,-66.98 37.06,-66.14 37.86,-65.34 38.45,-64.48 38.86,-63.48 39.12,-62.29 39.31,-60.96 39.5,-59.55 39.74,-58.13 39.97,-56.68 40.05,-55.12 39.91,-53.35 39.65,-51.39 39.63,-49.59 39.97,-48.91" fill="none" stroke="rgb(165, 42, 42)" stroke-width="2" stroke-linejoin="round" filter="url(#fuzzy)" /><polyline points="32.27,-73.3 33.66,-72.67 34.63,-72.13 35.46,-71.46 36.35,-70.6 37.33,-69.66 38.29,-68.77 39.18,-67.99 40.01,-67.34 40.8,-66.82 41.62,-66.4 42.49,-66.03 43.41,-65.61 44.36,-65.05 45.31,-64.35 46.18,-63.69 46.91,-63.44 47.59,-63.8 31.54,-74.03 30.46,-74.44 29.12,-74.88 27.84,-75.28 26.71,-75.68 25.77,-76.11 24.97,-76.55 24.24,-76.94 23.5,-77.23 22.69,-77.38 21.79,-77.41 20.8,-77.36 19.74,-77.27 18.67,-77.17 17.68,-77.09 16.84,-77.05 16.1,-76.92 15.07,-76.3 31.54,-74.03 31.93,-75.72 33.22,-77.26 34.37,-77.47 35.4,-76.98 36.64,-76.75 38.27,-77.17 40.18,-77.97 42.09,-78.63 43.72,-78.79 44.97,-78.38 45.95,-77.67 46.87,-77.01 47.93,-76.66 49.21,-76.64 50.65,-76.73 52.22,-76.7 53.89,-76.45 55.56,-76.23 56.99,-77.23" fill="none" stroke="rgb(165, 42, 42)" stroke-width="2" stroke-linejoin="round" filter="url(#fuzzy)" /><polyline points="30.9,-74.26 33.25,-79.15 33.26,-78.61 33.41,-77.47 34.01,-76.61 34.96,-76.12 36.19,-76.03 37.67,-76.32 39.33,-76.75 41.02,-77.06 42.67,-77.19 44.3,-77.36 46,-77.82 47.75,-78.59 49.41,-79.33 50.75,-79.64 51.77,-79.48 52.42,-78.46" fill="none" stroke="rgb(165, 42, 42)" stroke-width="2" stroke-linejoin="round" filter="url(#fuzzy)" /><polyline points="28.93,-75.9 29.56,-76.37 30.97,-77.21 32.2,-78.13 33.1,-78.54 33.78,-78.3 34.47,-77.67 35.32,-77.03 36.44,-76.72 37.85,-76.81 39.54,-77.23 41.43,-77.86 43.48,-78.66 45.65,-79.7 47.88,-81.01 50.06,-82.41 52,-83.52 53.48,-83.94 54.58,-83.78 56.61,-84.74 28.93,-75.9 29.44,-76.06 30.64,-76.4 31.75,-76.99 32.84,-77.77 34.04,-78.66 35.41,-79.5 36.9,-80.21 38.42,-80.72 39.92,-80.93 41.34,-80.77 42.64,-80.22 43.84,-79.46 45.05,-78.8 46.42,-78.58 48.12,-79.08 50.2,-80.32 52.48,-81.87 54.54,-82.93 56.09,-82.73 57.52,-81.44 60.34,-80.71" fill="none" stroke="rgb(165, 42, 42)" stroke-width="2" stroke-linejoin="round" filter="url(#fuzzy)" /><polyline points="13.19,-100.94 15,-99.24 16.35,-98.06 17.39,-97.01 18.23,-96.11 18.88,-94.98 19.35,-93.3 19.75,-91.19 20.23,-89.1 20.88,-87.43 21.72,-86.29 22.64,-85.45 23.46,-84.5 24.08,-83.15 24.52,-81.47 24.89,-79.84 25.28,-78.7 25.61,-78.17 25.82,-78.02 25.47,-78.1 26.53,-77.7 28.18,-77.73 29.93,-78.43 31.53,-79.37 32.8,-80.08 33.76,-80.27 34.5,-79.89 35.17,-79.12 35.86,-78.14 36.64,-77.12 37.55,-76.19 38.6,-75.42 39.81,-74.86 41.13,-74.5 42.47,-74.28 43.75,-74.13 44.95,-74 46.13,-73.9 47.41,-73.92 48.93,-74.17 50.79,-74.61 52.92,-75.08 55.01,-75.48 56.19,-76.14" fill="none" stroke="rgb(165, 42, 42)" stroke-width="2" stroke-linejoin="round" filter="url(#fuzzy)" /><polyline points="25.93,-78.04 23.96,-76.39 22.65,-75.21 21.73,-75.07 20.91,-75.45 20.04,-75.95 19.12,-76.34 18.21,-76.54 17.34,-76.58 16.54,-76.46 15.77,-76.14 14.97,-75.61 14.11,-74.91 13.15,-74.2 12.12,-73.66 11.02,-73.28 9.89,-72.79 8.83,-71.95 7.99,-71.43" fill="none" stroke="rgb(165, 42, 42)" stroke-width="2" stroke-linejoin="round" filter="url(#fuzzy)" /><polyline points="2.43,-113.33 3.86,-111.85 5.41,-108.67 6.92,-105.66 8.21,-103.35 9.26,-101.58 10.15,-99.96 10.94,-98.19 11.74,-96.24 12.62,-94.35 13.59,-92.8 14.62,-91.7 15.66,-90.96 16.61,-90.41 17.47,-89.9 18.24,-89.41 18.99,-88.97 19.78,-88.56 20.65,-88.06 21.65,-87.5 22.85,-87.22 23.99,-86.64 23.53,-79.25 23.53,-79.25 23.86,-79.46 24.62,-79.56 25.4,-79.37 26.14,-78.86 26.96,-78.18 27.91,-77.52 28.94,-76.98 29.96,-76.6 30.88,-76.33 31.68,-76.11 32.42,-75.85 33.17,-75.51 33.99,-75.07 34.88,-74.57 35.77,-74.09 36.67,-73.58 37.77,-72.78 39.48,-71.27" fill="none" stroke="rgb(165, 42, 42)" stroke-width="2" stroke-linejoin="round" filter="url(#fuzzy)" /><polyline points="-3.28,-104.12 -1.34,-103.18 0.15,-102.35 1.33,-101.46 2.25,-100.31 3.07,-98.93 3.96,-97.55 4.97,-96.4 6.09,-95.55 7.22,-94.95 8.3,-94.48 9.29,-94.01 10.21,-93.47 11.12,-92.77 12.05,-91.85 12.99,-90.63 13.93,-89.1 14.82,-87.38 15.6,-85.66 16.25,-84.14 16.79,-82.98 17.28,-82.31 17.54,-82.08" fill="none" stroke="rgb(165, 42, 42)" stroke-width="2" stroke-linejoin="round" filter="url(#fuzzy)" /><polyline points="17.66,-82.14 18,-82.08 18.82,-81.94 19.88,-81.83 21.06,-81.91 22.28,-82.29 23.49,-82.85 24.63,-83.38 25.7,-83.77 26.74,-84.03 27.84,-84.22 29.02,-84.4 30.29,-84.57 31.59,-84.67 32.84,-84.67 33.95,-84.57 34.91,-84.36 35.77,-84.07 36.65,-83.73 37.66,-83.42 38.81,-83.18 39.92,-83.02 40.81,-82.84 41.76,-82.28 -6.62,-106.64 -4.37,-106.59 -2.82,-105.53 -1.4,-104.02 -0.07,-102.62 1.09,-101.64 2.11,-100.97 3.04,-100.35 3.98,-99.6 5.01,-98.65 6.1,-97.52 7.18,-96.25 8.19,-94.85 9.09,-93.34 9.92,-91.83 10.74,-90.49 11.66,-89.52 12.72,-88.97 13.86,-88.57 14.92,-87.71 15.71,-85.91 16.14,-83.65 16.32,-82.59" fill="none" stroke="rgb(165, 42, 42)" stroke-width="2" stroke-linejoin="round" filter="url(#fuzzy)" /><polyline points="16.27,-82.56 16.65,-82.56 17.28,-82.51 17.98,-82.3 18.77,-81.95 19.66,-81.5 20.61,-81.02 21.57,-80.59 22.5,-80.24 23.37,-79.96 24.2,-79.73 24.98,-79.5 25.75,-79.21 26.56,-78.8 27.47,-78.25 28.54,-77.57 29.76,-76.77 31.46,-75.59" fill="none" stroke="rgb(165, 42, 42)" stroke-width="2" stroke-linejoin="round" filter="url(#fuzzy)" /><polyline points="10.43,-84.6 11.55,-85.36 13.18,-87.14 14.74,-88.88 15.95,-89.59 16.89,-89.59 17.8,-89.85 18.86,-91.04 20.12,-93.04 21.55,-95.29 23.06,-97.17 24.63,-98.48 26.24,-99.39 27.88,-100.35 29.53,-101.87 30.44,-103.02" fill="none" stroke="rgb(165, 42, 42)" stroke-width="2" stroke-linejoin="round" filter="url(#fuzzy)" /><polyline points="-6.84,-89.14 -6.13,-88.66 -5.04,-88.56 -3.81,-88.54 -2.57,-88.44 -1.38,-88.22 -0.26,-87.92 0.75,-87.58 1.63,-87.28 2.43,-87.04 3.22,-86.84 4.12,-86.64 5.17,-86.43 6.32,-86.24 7.4,-86.1 8.29,-85.91 8.99,-85.39 9.45,-84.53 9.23,-84.9 8.17,-84.65 7.24,-84.47 6.1,-84.41 4.93,-84.18 3.87,-83.67 2.96,-83.02 2.14,-82.35 1.32,-81.7 0.45,-81.02 -0.48,-80.23 -1.46,-79.32 -2.44,-78.35 -3.39,-77.43 -4.26,-76.68 -5.05,-76.15 -5.75,-75.81 -6.38,-75.54 -6.95,-75.15 -7.49,-74.46 -8.02,-73.4 -8.57,-72.07 -9.15,-70.7 -9.86,-69.45 -11.19,-68.36 7.61,-85.03 7.31,-84.65 6.14,-84.43 4.87,-84.47 3.8,-84.64 2.94,-84.79 2.16,-84.81 1.35,-84.65 0.45,-84.27 -0.53,-83.7 -1.56,-82.95 -2.58,-82.07 -3.56,-81.15 -4.46,-80.28 -5.26,-79.51 -5.97,-78.87 -6.62,-78.35 -7.23,-77.89 -7.84,-77.4 -8.46,-76.79 -9.12,-75.97 -9.86,-75.02 -10.75,-74.02 -11.91,-72.86 -13.23,-70.96 -18.03,-93.7 -16.8,-92.95 -15.16,-92.6 -13.59,-92.13 -12.24,-91.54 -11.1,-91.01 -10.12,-90.69 -9.27,-90.6 -8.49,-90.67 -7.74,-90.79 -6.97,-90.86 -6.12,-90.81 -5.17,-90.65 -4.12,-90.4 -2.99,-90.13 -1.82,-89.84 -0.67,-89.53 0.4,-89.15 1.36,-88.71 2.19,-88.27 2.95,-87.95 3.8,-87.78 4.92,-87.48 6.43,-86.38 8.19,-84.81 6.34,-85.17 7.55,-85.92 8.28,-86.28 9.07,-87.09 9.98,-88.19 11.01,-89.2 12.13,-89.83 13.28,-89.99 14.42,-89.77 15.49,-89.42 16.5,-89.23 17.46,-89.42 18.38,-89.96 19.29,-90.6 20.2,-91.05 21.21,-91.3 22.66,-91.82 25.21,-93.29" fill="none" stroke="rgb(165, 42, 42)" stroke-width="2" stroke-linejoin="round" filter="url(#fuzzy)" />
    </g>
    
        <g id="lineNose">
        <path d="M -9.12,5.9399999999999995 Q 10.2, 0.8250000000000001 0.54, -5.370000000000001" fill="none" stroke="black" stroke-width="3" stroke-linejoin="round" filter="url(#fuzzy)"></path>
        </g>
      
    <g id="mouth">
      <polyline points="-30.9,43.65 -30.62,45.47 -30.32,47.22 -30.01,48.91 -29.68,50.54 -29.33,52.1 -28.97,53.6 -28.6,55.03 -28.22,56.41 -27.82,57.73 -27.4,58.98 -26.97,60.18 -26.54,61.33 -26.08,62.41 -25.62,63.44 -25.14,64.42 -24.66,65.34 -24.16,66.22 -23.65,67.03 -23.13,67.8 -22.59,68.52 -22.05,69.19 -21.5,69.82 -20.94,70.39 -20.37,70.92 -19.79,71.41 -19.2,71.85 -18.6,72.24 -18,72.6 -17.38,72.91 -16.76,73.18 -16.13,73.42 -15.5,73.61 -14.86,73.77 -14.21,73.89 -13.55,73.97 -12.89,74.02 -12.23,74.04 -11.55,74.02 -10.88,73.97 -10.2,73.88 -9.51,73.77 -8.82,73.63 -8.13,73.46 -7.43,73.26 -6.73,73.04 -6.02,72.78 -5.32,72.51 -4.61,72.21 -3.89,71.89 -3.18,71.54 -2.47,71.17 -1.75,70.79 -1.03,70.38 -0.31,69.96 0.4,69.51 1.12,69.05 1.84,68.58 2.56,68.09 3.28,67.58 4,67.07 4.71,66.54 5.43,66 6.14,65.45 6.85,64.89 7.55,64.32 8.26,63.74 8.96,63.16 9.66,62.57 10.36,61.98 11.05,61.39 11.73,60.79 12.42,60.18 13.1,59.58 13.77,58.98 14.44,58.38 15.1,57.78 15.75,57.18 16.41,56.58 17.05,55.99 17.69,55.41 18.32,54.83 18.94,54.26 19.55,53.7 20.16,53.14 20.76,52.6 21.35,52.06 21.93,51.54 22.51,51.03 23.07,50.54 23.63,50.05 24.17,49.59 24.71,49.14 25.23,48.71 25.74,48.29 26.24,47.9 26.74,47.52 27.21,47.17 27.68,46.84 28.14,46.53 28.14,46.53 27.55,46.66 26.96,46.8 26.37,46.96 25.78,47.12 25.19,47.3 24.59,47.48 24,47.68 23.41,47.88 22.82,48.09 22.23,48.3 21.64,48.52 21.05,48.75 20.46,48.99 19.87,49.23 19.28,49.48 18.69,49.73 18.1,49.98 17.51,50.24 16.92,50.51 16.33,50.77 15.74,51.04 15.15,51.31 14.56,51.58 13.97,51.86 13.38,52.13 12.79,52.4 12.2,52.68 11.61,52.95 11.02,53.22 10.43,53.5 9.84,53.77 9.25,54.03 8.65,54.3 8.06,54.56 7.47,54.82 6.88,55.07 6.29,55.32 5.7,55.56 5.11,55.8 4.52,56.04 3.93,56.26 3.34,56.48 2.75,56.7 2.16,56.9 1.57,57.1 0.98,57.29 0.39,57.47 -0.2,57.64 -0.79,57.8 -1.38,57.95 -1.97,58.09 -2.56,58.22 -3.15,58.34 -3.74,58.44 -4.33,58.54 -4.92,58.62 -5.51,58.68 -6.1,58.74 -6.69,58.78 -7.29,58.8 -7.88,58.81 -8.47,58.8 -9.06,58.78 -9.65,58.74 -10.24,58.69 -10.83,58.62 -11.42,58.53 -12.01,58.42 -12.6,58.29 -13.19,58.14 -13.78,57.98 -14.37,57.79 -14.96,57.59 -15.55,57.36 -16.14,57.11 -16.73,56.85 -17.32,56.55 -17.91,56.24 -18.5,55.9 -19.09,55.54 -19.68,55.16 -20.27,54.75 -20.86,54.32 -21.45,53.86 -22.04,53.38 -22.63,52.87 -23.23,52.33 -23.82,51.77 -24.41,51.17 -25,50.56 -25.59,49.91 -26.18,49.23 -26.77,48.53 -27.36,47.8 -27.95,47.03 -28.54,46.24 -29.13,45.41 -29.72,44.55 -30.31,43.66" fill="rgb(215,127,140)" stroke="black" stroke-width="3" stroke-linejoin="round" filter="url(#fuzzy)" />
    </g>
  </svg>
  