
  <svg viewBox="-100 -100 200 200" xmlns="http://www.w3.org/2000/svg" width="500" height="500" id="face-svg">
    <defs>
      <clipPath id="leftEyeClipPath">
        <polyline points="33.5,-7.36 33.23,-7.76 32.94,-8.16 32.62,-8.56 32.28,-8.97 31.91,-9.37 31.51,-9.77 31.08,-10.16 30.63,-10.55 30.14,-10.92 29.63,-11.29 29.09,-11.64 28.53,-11.99 27.93,-12.31 27.31,-12.63 26.66,-12.93 26.1,-13.43 25.49,-13.91 24.83,-14.35 24.11,-14.76 23.35,-15.13 22.54,-15.46 21.68,-15.76 20.77,-16.02 19.83,-16.24 18.84,-16.42 17.82,-16.57 16.76,-16.68 15.68,-16.76 14.56,-16.8 13.42,-16.81 12.26,-16.78 11.07,-16.73 9.88,-16.64 8.67,-16.52 7.45,-16.38 6.22,-16.21 4.99,-16.02 3.76,-15.8 2.53,-15.57 1.31,-15.31 0.1,-15.04 -1.1,-14.74 -2.29,-14.44 -3.47,-14.12 -4.62,-13.79 -5.76,-13.45 -6.88,-13.1 -7.97,-12.75 -9.04,-12.39 -10.08,-12.02 -11.09,-11.65 -12.08,-11.28 -13.04,-10.91 -13.97,-10.54 -14.87,-10.17 -15.74,-9.81 -16.58,-9.44 -17.39,-9.08 -18.17,-8.73 -18.92,-8.38 -19.64,-8.04 -20.34,-7.7 -21.01,-7.37 -21.65,-7.04 -22.27,-6.72 -22.87,-6.41 -23.44,-6.1 -23.99,-5.8 -24.52,-5.51 -25.03,-5.22 -25.51,-4.94 -25.97,-4.66 -26.42,-4.4 -26.84,-4.13 -27.24,-3.88 -27.63,-3.63 -27.99,-3.39 -28.34,-3.15 -28.68,-2.92 -26.95,5.24 -26.6,5.53 -26.23,5.83 -25.86,6.13 -25.46,6.43 -25.06,6.74 -24.64,7.04 -24.2,7.35 -23.75,7.66 -23.29,7.97 -22.81,8.28 -22.31,8.59 -21.8,8.9 -21.28,9.21 -20.73,9.52 -20.18,9.83 -19.6,10.14 -19.01,10.44 -18.39,10.75 -17.76,11.06 -17.11,11.36 -16.44,11.66 -15.75,11.95 -15.05,12.24 -14.32,12.53 -13.57,12.8 -12.8,13.07 -12.02,13.32 -11.21,13.57 -10.39,13.8 -9.55,14.03 -8.69,14.23 -7.82,14.43 -6.93,14.61 -6.02,14.77 -5.1,14.91 -4.17,15.04 -3.23,15.15 -2.28,15.24 -1.31,15.31 -0.34,15.36 0.64,15.39 1.62,15.39 2.61,15.38 3.6,15.34 4.59,15.28 5.58,15.2 6.58,15.09 7.56,14.96 8.55,14.81 9.52,14.64 10.49,14.44 11.45,14.22 12.4,13.98 13.33,13.71 14.25,13.43 15.15,13.12 16.04,12.8 16.91,12.45 17.76,12.09 18.59,11.71 19.39,11.32 20.17,10.91 20.93,10.49 21.66,10.06 22.35,9.75 23.03,9.43 23.69,9.1 24.34,8.77 24.97,8.43 25.58,8.09 26.17,7.75 26.74,7.41 27.3,7.07 27.84,6.73 28.35,6.39 28.85,6.05 29.32,5.72 29.77,5.39 30.21,5.07" />
      </clipPath>
      <clipPath id="rightEyeClipPath">
        <polyline points="-35.61,-7.79 -35.33,-8.15 -35.03,-8.51 -34.7,-8.88 -34.34,-9.24 -33.96,-9.6 -33.54,-9.95 -33.11,-10.3 -32.64,-10.64 -32.15,-10.97 -31.62,-11.29 -31.07,-11.6 -30.5,-11.89 -29.89,-12.17 -29.26,-12.44 -28.6,-12.7 -28.03,-13.14 -27.4,-13.56 -26.73,-13.94 -26,-14.29 -25.22,-14.61 -24.4,-14.89 -23.54,-15.13 -22.62,-15.34 -21.67,-15.52 -20.68,-15.66 -19.66,-15.76 -18.6,-15.83 -17.51,-15.87 -16.4,-15.87 -15.26,-15.85 -14.1,-15.79 -12.92,-15.71 -11.73,-15.6 -10.52,-15.46 -9.31,-15.3 -8.1,-15.12 -6.88,-14.92 -5.66,-14.69 -4.44,-14.45 -3.23,-14.2 -2.03,-13.92 -0.84,-13.64 0.33,-13.35 1.49,-13.04 2.63,-12.73 3.75,-12.41 4.85,-12.08 5.93,-11.75 6.98,-11.42 8.01,-11.09 9.01,-10.76 9.98,-10.42 10.92,-10.09 11.83,-9.76 12.72,-9.44 13.57,-9.12 14.4,-8.8 15.19,-8.49 15.96,-8.19 16.69,-7.89 17.4,-7.6 18.09,-7.32 18.74,-7.04 19.37,-6.77 19.98,-6.5 20.57,-6.25 21.13,-6 21.67,-5.75 22.19,-5.52 22.69,-5.29 23.16,-5.06 23.62,-4.85 24.05,-4.64 24.47,-4.43 24.87,-4.24 25.25,-4.05 25.61,-3.86 25.96,-3.68 26.28,-3.51 26.32,2.6 26.07,2.83 25.8,3.07 25.51,3.32 25.21,3.57 24.9,3.83 24.58,4.1 24.24,4.36 23.88,4.64 23.51,4.92 23.13,5.2 22.73,5.49 22.31,5.79 21.87,6.09 21.42,6.39 20.95,6.7 20.47,7.01 19.96,7.33 19.43,7.65 18.89,7.98 18.32,8.31 17.73,8.65 17.12,8.98 16.48,9.32 15.82,9.66 15.14,10 14.44,10.34 13.71,10.68 12.95,11.02 12.18,11.35 11.38,11.68 10.56,12 9.71,12.31 8.84,12.62 7.96,12.92 7.05,13.2 6.12,13.47 5.18,13.73 4.21,13.97 3.23,14.2 2.24,14.4 1.23,14.59 0.21,14.76 -0.82,14.9 -1.86,15.02 -2.9,15.11 -3.95,15.18 -5.01,15.22 -6.07,15.23 -7.13,15.22 -8.18,15.17 -9.24,15.09 -10.28,14.98 -11.32,14.83 -12.35,14.65 -13.37,14.44 -14.37,14.2 -15.36,13.92 -16.34,13.61 -17.29,13.26 -18.22,12.89 -19.13,12.48 -20.02,12.04 -20.88,11.57 -21.71,11.07 -22.49,10.76 -23.26,10.44 -24.01,10.11 -24.74,9.76 -25.46,9.41 -26.16,9.04 -26.84,8.67 -27.49,8.29 -28.13,7.9 -28.75,7.51 -29.34,7.11 -29.92,6.72 -30.46,6.33 -30.99,5.93 -31.49,5.55" />
      </clipPath>
      <filter id="fuzzy">
        <feTurbulence id="turbulence" baseFrequency="0.05" numOctaves="3" type="noise" result="noise" />
        <feDisplacementMap in="SourceGraphic" in2="noise" scale="2" />
      </filter>
      <linearGradient id="rainbowGradient" x1="0%" y1="0%" x2="100%" y2="0%">
        <stop offset="0%" style="stop-color: rgb(44, 34, 43); stop-opacity: 1" />
        <stop offset="50%" style="stop-color: rgb(145, 85, 61); stop-opacity: 1" />
        <stop offset="100%" style="stop-color: rgb(144, 238, 144); stop-opacity: 1" />
      </linearGradient>
    </defs>
    <rect x="-100" y="-100" width="100%" height="100%" fill="rgb(105, 105, 105)" />
    <polyline id="faceContour" points="71.96,1.08 71.88,0.17 72.01,1 71.83,3.77 71.54,6.16 71.6,7.54 71.46,10.14 71.34,11.39 71.07,12.48 71.26,12.57 71.31,12.19 70.99,13.77 70.99,14.76 70.47,17.11 70.18,19.72 69.59,21.35 69.69,21.3 69.61,22.77 68.79,25.03 68.99,25.2 68.52,26.42 67.98,28.93 67.31,31.32 67.59,30.47 67.17,31.87 65.95,35.71 65.76,35.56 65.62,36.05 64.34,39.58 64.96,37.58 63.26,41.58 62.92,42.94 62.63,43.93 62.89,42.7 61.87,45.34 61,47.26 60.91,47.34 60.73,47.4 58.41,51.68 59.03,50.37 58.09,52.01 57.44,53.42 56.07,55.46 55.41,56.39 55.01,56.54 55.55,56.04 55.17,56.65 53.82,58.69 52.6,60.36 51.15,62.03 50.76,62.5 50.93,62.48 49.37,64.53 47.58,66.34 48.38,65.32 46.81,66.82 44.44,69.84 45.26,68.89 42.88,71.21 43.6,70.39 41.82,72.27 41.05,72.82 40.65,72.8 39.96,73.72 36.88,75.77 37.34,75.48 36.23,76.37 36.07,76.34 35.24,77 34.37,77.92 31.73,79.43 32.12,79.33 31.92,79.2 29.77,80.6 29.32,80.79 26.67,82.3 26.38,82.15 23.99,83.55 24.29,83.14 21.81,84.49 22.72,84.2 19.52,85.15 20.51,84.91 19.65,85.05 19.07,85.42 16.07,86.14 16.37,86.02 14.97,86.59 13.59,86.94 12.95,87.21 10.69,87.58 10.62,87.34 10.02,87.73 7.61,87.9 5.67,88.1 5.44,88.43 3.76,88.32 4.43,88.23 1.38,88.45 2.02,88.49 -0.78,88.58 -1.72,88.72 -1.33,88.62 -4.4,88.26 -3.72,88.54 -5.68,88.19 -4.99,88.28 -8.17,87.78 -10.39,87.81 -10.78,87.65 -11.32,87.54 -13.36,86.72 -13.06,86.98 -15.47,86.45 -14.3,86.69 -17.16,85.92 -18.47,85.58 -19.63,85.3 -20.61,84.9 -19.61,85.37 -22.31,84.2 -23.84,83.5 -25.17,82.97 -24.65,83.18 -27.41,81.61 -27.77,81.53 -28.68,81.1 -30.18,80.35 -30.37,80.11 -30.97,79.75 -31.8,79.51 -33.27,78.6 -35.23,76.94 -35.73,76.52 -36.04,76.42 -37.41,75.76 -39.39,74.14 -39.68,73.56 -40.85,72.69 -41.33,72.54 -42.69,71.53 -42.87,70.87 -43.92,70.18 -45.16,68.95 -46.33,68.06 -47.33,66.72 -47.16,66.75 -49.23,64.62 -48.95,64.57 -49.63,64.41 -50.34,63.13 -52.39,60.53 -52.26,60.42 -53.67,58.9 -53.68,58.73 -53.6,59.23 -56.2,55.28 -56.52,54.8 -57.38,53.67 -56.51,54.71 -58.59,51.6 -59.7,49.12 -59.78,49.09 -60.3,48.32 -61.2,46.5 -61.04,46.86 -61.68,45.35 -63,42.96 -63.08,42.06 -63.92,41.12 -63.83,41.05 -64.83,38.21 -64.87,38.55 -65.53,36.81 -66.13,34.52 -66.12,35.21 -66.9,32.44 -66.58,33.39 -67.67,30.34 -67.9,28.4 -68.59,26.64 -68.61,26.87 -69.03,24.86 -69.22,24.67 -69.67,21.31 -70.1,20.15 -70.17,18.98 -70.78,16.69 -70.84,16.03 -70.93,13.86 -70.94,13.97 -71.22,11.94 -71.45,10.7 -71.39,10.71 -71.56,8.03 -71.66,7.28 -71.76,7.53 -71.98,3.39 -71.78,1 -71.89,1.73 -71.95,0.48 -71.9,-0.59 -71.73,-2.78 -71.82,-3.1 -71.72,-5.94 -71.8,-6.65 -71.43,-9.74 -71.51,-10.34 -71.3,-12.03 -71.16,-13.57 -70.85,-13.76 -71.01,-13.52 -70.65,-15.97 -70.57,-17.65 -70.2,-19.32 -69.61,-21.57 -69.21,-23.52 -69.78,-21.35 -68.57,-26.54 -68.86,-25.57 -68.17,-28.09 -67.57,-29.76 -67.84,-29.48 -67.2,-30.77 -66.37,-33.69 -66.6,-32.82 -65.51,-36.47 -65.77,-35.48 -64.42,-39.68 -64.81,-38.07 -63.73,-40.86 -64.36,-39.55 -62.4,-43.67 -62.69,-43.17 -61.52,-45.2 -60.8,-46.97 -60.23,-48.17 -60.13,-48.26 -59.11,-50.41 -59.25,-49.8 -57.67,-52.85 -58.27,-51.76 -56.4,-54.98 -56.74,-54.65 -54.99,-56.87 -55.25,-56.48 -53.03,-59.97 -52.38,-60.5 -52.83,-60.36 -51.11,-62.41 -51.27,-62.06 -50.05,-63.43 -48.43,-65.16 -48.78,-64.9 -47.37,-66.52 -47.32,-66.6 -44.72,-69.07 -44.81,-69.37 -44.37,-69.76 -42.67,-70.96 -42.27,-71.58 -40.98,-72.37 -39.81,-73.64 -39.63,-73.74 -37.99,-75.29 -35.92,-76.33 -36.29,-76.44 -35.04,-77.06 -34.13,-77.89 -34.14,-77.8 -33.68,-78.12 -32.29,-79.17 -28.83,-81.08 -29.63,-80.48 -27.17,-81.93 -27.52,-81.55 -27.14,-81.85 -23.82,-83.39 -25.03,-82.68 -22.54,-83.99 -21.25,-84.58 -21.22,-84.59 -19.53,-84.81 -18.28,-85.56 -17.88,-85.54 -16.68,-86.01 -14.78,-86.3 -14.73,-86.37 -13.73,-86.52 -13.76,-86.61 -11.15,-87.37 -11.47,-87.38 -8.41,-87.58 -8.24,-87.75 -5.89,-88.2 -4.8,-88.09 -3.93,-88.33 -2.05,-88.51 -1.91,-88.49 -1.14,-88.24 1.37,-88.55 0.73,-88.44 2.02,-88.33 4.38,-88.37 2.75,-88.55 4.54,-88.02 6.31,-88.27 7.24,-87.83 9.66,-87.57 10.12,-87.63 10.41,-87.35 10.98,-87.38 12.7,-87.13 14.96,-86.22 15.8,-86.32 15.78,-86.26 16.43,-86.15 17.73,-85.83 20.89,-84.53 20.66,-84.46 21.7,-84.24 23.06,-83.88 24.79,-82.82 27.11,-81.76 26.24,-82.24 27.52,-81.66 29.59,-80.37 29.18,-80.87 31.73,-79.24 31.44,-79.5 32.02,-79.01 32.73,-78.76 35.74,-76.97 34.29,-77.86 37.6,-75.59 36.33,-76.34 38.31,-74.82 39.77,-73.86 41,-72.68 42.08,-71.51 41.93,-71.67 44.09,-70.03 44.06,-69.93 45,-68.94 46.31,-67.44 47.36,-66.46 47.77,-65.83 49,-64.44 48.55,-65.32 50.96,-62.7 49.68,-63.54 51.22,-62.04 52.5,-60.05 52.75,-60.03 54.36,-58.03 53.99,-58.39 55.04,-56.6 57.03,-54.01 56.65,-54.44 57.73,-52.94 58.56,-51.32 59.42,-49.88 59.95,-48.64 60.41,-48.32 60.49,-47.32 61.9,-45.01 61.26,-46.28 61.61,-45.41 63.63,-41.52 63.16,-42.58 63.71,-40.72 64.71,-38.71 65.22,-37.11 64.82,-37.71 66.3,-33.77 66.55,-33.2 67.22,-30.83 67.13,-31.13 67.99,-29.23 67.92,-29.45 67.77,-29.28 68.38,-27.01 68.54,-25.93 68.96,-24.14 69.5,-22.98 69.76,-20.3 70.17,-19.32 70.5,-18.14 70.54,-16.51 70.91,-15.24 70.9,-13.82 71.37,-11.03 71.15,-11.48 71.6,-7.49 71.32,-10.34 71.62,-7.48 71.72,-5.59 71.79,-3.79 71.99,-1.28 71.83,-1.63 71.96,1.08 71.88,0.17" fill="rgb(139, 69, 19)" stroke="black" stroke-width="1.6666666666666665" stroke-linejoin="round" filter="url(#fuzzy)" />
    <g transform="translate(44.03 -21.29)">
      <polyline id="rightCountour" points="-35.61,-7.79 -35.33,-8.15 -35.03,-8.51 -34.7,-8.88 -34.34,-9.24 -33.96,-9.6 -33.54,-9.95 -33.11,-10.3 -32.64,-10.64 -32.15,-10.97 -31.62,-11.29 -31.07,-11.6 -30.5,-11.89 -29.89,-12.17 -29.26,-12.44 -28.6,-12.7 -28.03,-13.14 -27.4,-13.56 -26.73,-13.94 -26,-14.29 -25.22,-14.61 -24.4,-14.89 -23.54,-15.13 -22.62,-15.34 -21.67,-15.52 -20.68,-15.66 -19.66,-15.76 -18.6,-15.83 -17.51,-15.87 -16.4,-15.87 -15.26,-15.85 -14.1,-15.79 -12.92,-15.71 -11.73,-15.6 -10.52,-15.46 -9.31,-15.3 -8.1,-15.12 -6.88,-14.92 -5.66,-14.69 -4.44,-14.45 -3.23,-14.2 -2.03,-13.92 -0.84,-13.64 0.33,-13.35 1.49,-13.04 2.63,-12.73 3.75,-12.41 4.85,-12.08 5.93,-11.75 6.98,-11.42 8.01,-11.09 9.01,-10.76 9.98,-10.42 10.92,-10.09 11.83,-9.76 12.72,-9.44 13.57,-9.12 14.4,-8.8 15.19,-8.49 15.96,-8.19 16.69,-7.89 17.4,-7.6 18.09,-7.32 18.74,-7.04 19.37,-6.77 19.98,-6.5 20.57,-6.25 21.13,-6 21.67,-5.75 22.19,-5.52 22.69,-5.29 23.16,-5.06 23.62,-4.85 24.05,-4.64 24.47,-4.43 24.87,-4.24 25.25,-4.05 25.61,-3.86 25.96,-3.68 26.28,-3.51 26.32,2.6 26.07,2.83 25.8,3.07 25.51,3.32 25.21,3.57 24.9,3.83 24.58,4.1 24.24,4.36 23.88,4.64 23.51,4.92 23.13,5.2 22.73,5.49 22.31,5.79 21.87,6.09 21.42,6.39 20.95,6.7 20.47,7.01 19.96,7.33 19.43,7.65 18.89,7.98 18.32,8.31 17.73,8.65 17.12,8.98 16.48,9.32 15.82,9.66 15.14,10 14.44,10.34 13.71,10.68 12.95,11.02 12.18,11.35 11.38,11.68 10.56,12 9.71,12.31 8.84,12.62 7.96,12.92 7.05,13.2 6.12,13.47 5.18,13.73 4.21,13.97 3.23,14.2 2.24,14.4 1.23,14.59 0.21,14.76 -0.82,14.9 -1.86,15.02 -2.9,15.11 -3.95,15.18 -5.01,15.22 -6.07,15.23 -7.13,15.22 -8.18,15.17 -9.24,15.09 -10.28,14.98 -11.32,14.83 -12.35,14.65 -13.37,14.44 -14.37,14.2 -15.36,13.92 -16.34,13.61 -17.29,13.26 -18.22,12.89 -19.13,12.48 -20.02,12.04 -20.88,11.57 -21.71,11.07 -22.49,10.76 -23.26,10.44 -24.01,10.11 -24.74,9.76 -25.46,9.41 -26.16,9.04 -26.84,8.67 -27.49,8.29 -28.13,7.9 -28.75,7.51 -29.34,7.11 -29.92,6.72 -30.46,6.33 -30.99,5.93 -31.49,5.55" fill="white" stroke="white" stroke-width="0" stroke-linejoin="round" filter="url(#fuzzy)" />
    </g>
    <g transform="translate(-32.970000000000006 -24.259999999999998)">
      <polyline id="leftCountour" points="33.5,-7.36 33.23,-7.76 32.94,-8.16 32.62,-8.56 32.28,-8.97 31.91,-9.37 31.51,-9.77 31.08,-10.16 30.63,-10.55 30.14,-10.92 29.63,-11.29 29.09,-11.64 28.53,-11.99 27.93,-12.31 27.31,-12.63 26.66,-12.93 26.1,-13.43 25.49,-13.91 24.83,-14.35 24.11,-14.76 23.35,-15.13 22.54,-15.46 21.68,-15.76 20.77,-16.02 19.83,-16.24 18.84,-16.42 17.82,-16.57 16.76,-16.68 15.68,-16.76 14.56,-16.8 13.42,-16.81 12.26,-16.78 11.07,-16.73 9.88,-16.64 8.67,-16.52 7.45,-16.38 6.22,-16.21 4.99,-16.02 3.76,-15.8 2.53,-15.57 1.31,-15.31 0.1,-15.04 -1.1,-14.74 -2.29,-14.44 -3.47,-14.12 -4.62,-13.79 -5.76,-13.45 -6.88,-13.1 -7.97,-12.75 -9.04,-12.39 -10.08,-12.02 -11.09,-11.65 -12.08,-11.28 -13.04,-10.91 -13.97,-10.54 -14.87,-10.17 -15.74,-9.81 -16.58,-9.44 -17.39,-9.08 -18.17,-8.73 -18.92,-8.38 -19.64,-8.04 -20.34,-7.7 -21.01,-7.37 -21.65,-7.04 -22.27,-6.72 -22.87,-6.41 -23.44,-6.1 -23.99,-5.8 -24.52,-5.51 -25.03,-5.22 -25.51,-4.94 -25.97,-4.66 -26.42,-4.4 -26.84,-4.13 -27.24,-3.88 -27.63,-3.63 -27.99,-3.39 -28.34,-3.15 -28.68,-2.92 -26.95,5.24 -26.6,5.53 -26.23,5.83 -25.86,6.13 -25.46,6.43 -25.06,6.74 -24.64,7.04 -24.2,7.35 -23.75,7.66 -23.29,7.97 -22.81,8.28 -22.31,8.59 -21.8,8.9 -21.28,9.21 -20.73,9.52 -20.18,9.83 -19.6,10.14 -19.01,10.44 -18.39,10.75 -17.76,11.06 -17.11,11.36 -16.44,11.66 -15.75,11.95 -15.05,12.24 -14.32,12.53 -13.57,12.8 -12.8,13.07 -12.02,13.32 -11.21,13.57 -10.39,13.8 -9.55,14.03 -8.69,14.23 -7.82,14.43 -6.93,14.61 -6.02,14.77 -5.1,14.91 -4.17,15.04 -3.23,15.15 -2.28,15.24 -1.31,15.31 -0.34,15.36 0.64,15.39 1.62,15.39 2.61,15.38 3.6,15.34 4.59,15.28 5.58,15.2 6.58,15.09 7.56,14.96 8.55,14.81 9.52,14.64 10.49,14.44 11.45,14.22 12.4,13.98 13.33,13.71 14.25,13.43 15.15,13.12 16.04,12.8 16.91,12.45 17.76,12.09 18.59,11.71 19.39,11.32 20.17,10.91 20.93,10.49 21.66,10.06 22.35,9.75 23.03,9.43 23.69,9.1 24.34,8.77 24.97,8.43 25.58,8.09 26.17,7.75 26.74,7.41 27.3,7.07 27.84,6.73 28.35,6.39 28.85,6.05 29.32,5.72 29.77,5.39 30.21,5.07" fill="white" stroke="white" stroke-width="0" stroke-linejoin="round" filter="url(#fuzzy)" />
    </g>
    <g transform="translate(44.03 -21.29)">
      <polyline id="rightUpper" points="-37.3,-4.88 -37.2,-5.08 -37.09,-5.3 -36.97,-5.55 -36.83,-5.82 -36.68,-6.11 -36.51,-6.42 -36.31,-6.75 -36.1,-7.09 -35.87,-7.44 -35.61,-7.79 -35.33,-8.15 -35.03,-8.51 -34.7,-8.88 -34.34,-9.24 -33.96,-9.6 -33.54,-9.95 -33.11,-10.3 -32.64,-10.64 -32.15,-10.97 -31.62,-11.29 -31.07,-11.6 -30.5,-11.89 -29.89,-12.17 -29.26,-12.44 -28.6,-12.7 -28.03,-13.14 -27.4,-13.56 -26.73,-13.94 -26,-14.29 -25.22,-14.61 -24.4,-14.89 -23.54,-15.13 -22.62,-15.34 -21.67,-15.52 -20.68,-15.66 -19.66,-15.76 -18.6,-15.83 -17.51,-15.87 -16.4,-15.87 -15.26,-15.85 -14.1,-15.79 -12.92,-15.71 -11.73,-15.6 -10.52,-15.46 -9.31,-15.3 -8.1,-15.12 -6.88,-14.92 -5.66,-14.69 -4.44,-14.45 -3.23,-14.2 -2.03,-13.92 -0.84,-13.64 0.33,-13.35 1.49,-13.04 2.63,-12.73 3.75,-12.41 4.85,-12.08 5.93,-11.75 6.98,-11.42 8.01,-11.09 9.01,-10.76 9.98,-10.42 10.92,-10.09 11.83,-9.76 12.72,-9.44 13.57,-9.12 14.4,-8.8 15.19,-8.49 15.96,-8.19 16.69,-7.89 17.4,-7.6 18.09,-7.32 18.74,-7.04 19.37,-6.77 19.98,-6.5 20.57,-6.25 21.13,-6 21.67,-5.75 22.19,-5.52 22.69,-5.29 23.16,-5.06 23.62,-4.85 24.05,-4.64 24.47,-4.43 24.87,-4.24 25.25,-4.05 25.61,-3.86 25.96,-3.68 26.28,-3.51 26.6,-3.35 26.9,-3.19 27.18,-3.03 27.45,-2.89 27.71,-2.74 27.95,-2.6 28.18,-2.47 28.4,-2.34 28.61,-2.22 28.8,-2.1" fill="none" stroke="black" stroke-width="1.6666666666666665" stroke-linejoin="round" filter="url(#fuzzy)" />
      <polyline id="rightLower" points="-34.99,2.46 -34.77,2.67 -34.52,2.9 -34.24,3.16 -33.93,3.45 -33.59,3.76 -33.23,4.09 -32.83,4.43 -32.41,4.79 -31.96,5.17 -31.49,5.55 -30.99,5.93 -30.46,6.33 -29.92,6.72 -29.34,7.11 -28.75,7.51 -28.13,7.9 -27.49,8.29 -26.84,8.67 -26.16,9.04 -25.46,9.41 -24.74,9.76 -24.01,10.11 -23.26,10.44 -22.49,10.76 -21.71,11.07 -20.88,11.57 -20.02,12.04 -19.13,12.48 -18.22,12.89 -17.29,13.26 -16.34,13.61 -15.36,13.92 -14.37,14.2 -13.37,14.44 -12.35,14.65 -11.32,14.83 -10.28,14.98 -9.24,15.09 -8.18,15.17 -7.13,15.22 -6.07,15.23 -5.01,15.22 -3.95,15.18 -2.9,15.11 -1.86,15.02 -0.82,14.9 0.21,14.76 1.23,14.59 2.24,14.4 3.23,14.2 4.21,13.97 5.18,13.73 6.12,13.47 7.05,13.2 7.96,12.92 8.84,12.62 9.71,12.31 10.56,12 11.38,11.68 12.18,11.35 12.95,11.02 13.71,10.68 14.44,10.34 15.14,10 15.82,9.66 16.48,9.32 17.12,8.98 17.73,8.65 18.32,8.31 18.89,7.98 19.43,7.65 19.96,7.33 20.47,7.01 20.95,6.7 21.42,6.39 21.87,6.09 22.31,5.79 22.73,5.49 23.13,5.2 23.51,4.92 23.88,4.64 24.24,4.36 24.58,4.1 24.9,3.83 25.21,3.57 25.51,3.32 25.8,3.07 26.07,2.83 26.32,2.6 26.57,2.37 26.81,2.14 27.03,1.92 27.24,1.71 27.44,1.5 27.63,1.3 27.81,1.1 27.99,0.9 28.15,0.72 28.3,0.53" fill="none" stroke="black" stroke-width="2.2222222222222223" stroke-linejoin="round" filter="url(#fuzzy)" />
      <circle r="3.516" cx="-3.7228858795819217" cy="10.57716860287641" stroke="black" fill="none" stroke-width="1.0" filter="url(#fuzzy)" clip-path="url(#rightEyeClipPath)" /><circle r="4.214" cx="-3.612885879581922" cy="7.69716860287641" stroke="black" fill="none" stroke-width="1.0" filter="url(#fuzzy)" clip-path="url(#rightEyeClipPath)" /><circle r="3.396" cx="-2.9178858795819216" cy="8.512168602876411" stroke="black" fill="none" stroke-width="1.0" filter="url(#fuzzy)" clip-path="url(#rightEyeClipPath)" /><circle r="3.394" cx="-2.462885879581922" cy="10.64216860287641" stroke="black" fill="none" stroke-width="1.0" filter="url(#fuzzy)" clip-path="url(#rightEyeClipPath)" /><circle r="3.556" cx="-1.1128858795819214" cy="6.54216860287641" stroke="black" fill="none" stroke-width="1.0" filter="url(#fuzzy)" clip-path="url(#rightEyeClipPath)" /><circle r="3.926" cx="-0.6578858795819222" cy="10.19216860287641" stroke="black" fill="none" stroke-width="1.0" filter="url(#fuzzy)" clip-path="url(#rightEyeClipPath)" /><circle r="4.6080000000000005" cx="-1.2578858795819219" cy="9.98716860287641" stroke="black" fill="none" stroke-width="1.0" filter="url(#fuzzy)" clip-path="url(#rightEyeClipPath)" /><circle r="3" cx="-2.502885879581922" cy="10.32216860287641" stroke="black" fill="none" stroke-width="1.0" filter="url(#fuzzy)" clip-path="url(#rightEyeClipPath)" /><circle r="4.038" cx="-2.8478858795819217" cy="8.64716860287641" stroke="black" fill="none" stroke-width="1.0" filter="url(#fuzzy)" clip-path="url(#rightEyeClipPath)" /><circle r="4.952" cx="-3.0978858795819217" cy="6.637168602876411" stroke="black" fill="none" stroke-width="1.0" filter="url(#fuzzy)" clip-path="url(#rightEyeClipPath)" />
      </g>
    <g transform="translate(-32.970000000000006 -24.259999999999998)">
      <polyline id="leftUpper" points="35.11,-4.18 35.01,-4.39 34.9,-4.63 34.79,-4.9 34.66,-5.19 34.51,-5.51 34.35,-5.85 34.17,-6.21 33.97,-6.58 33.75,-6.96 33.5,-7.36 33.23,-7.76 32.94,-8.16 32.62,-8.56 32.28,-8.97 31.91,-9.37 31.51,-9.77 31.08,-10.16 30.63,-10.55 30.14,-10.92 29.63,-11.29 29.09,-11.64 28.53,-11.99 27.93,-12.31 27.31,-12.63 26.66,-12.93 26.1,-13.43 25.49,-13.91 24.83,-14.35 24.11,-14.76 23.35,-15.13 22.54,-15.46 21.68,-15.76 20.77,-16.02 19.83,-16.24 18.84,-16.42 17.82,-16.57 16.76,-16.68 15.68,-16.76 14.56,-16.8 13.42,-16.81 12.26,-16.78 11.07,-16.73 9.88,-16.64 8.67,-16.52 7.45,-16.38 6.22,-16.21 4.99,-16.02 3.76,-15.8 2.53,-15.57 1.31,-15.31 0.1,-15.04 -1.1,-14.74 -2.29,-14.44 -3.47,-14.12 -4.62,-13.79 -5.76,-13.45 -6.88,-13.1 -7.97,-12.75 -9.04,-12.39 -10.08,-12.02 -11.09,-11.65 -12.08,-11.28 -13.04,-10.91 -13.97,-10.54 -14.87,-10.17 -15.74,-9.81 -16.58,-9.44 -17.39,-9.08 -18.17,-8.73 -18.92,-8.38 -19.64,-8.04 -20.34,-7.7 -21.01,-7.37 -21.65,-7.04 -22.27,-6.72 -22.87,-6.41 -23.44,-6.1 -23.99,-5.8 -24.52,-5.51 -25.03,-5.22 -25.51,-4.94 -25.97,-4.66 -26.42,-4.4 -26.84,-4.13 -27.24,-3.88 -27.63,-3.63 -27.99,-3.39 -28.34,-3.15 -28.68,-2.92 -28.99,-2.7 -29.29,-2.48 -29.58,-2.27 -29.85,-2.06 -30.1,-1.86 -30.35,-1.67 -30.58,-1.48 -30.79,-1.29 -31,-1.12 -31.19,-0.94" fill="none" stroke="black" stroke-width="2.2222222222222223" stroke-linejoin="round" filter="url(#fuzzy)" />
      <polyline id="leftLower" points="33.21,2.59 33.02,2.76 32.81,2.95 32.57,3.16 32.3,3.39 32.01,3.63 31.7,3.9 31.36,4.17 31,4.46 30.61,4.76 30.21,5.07 29.77,5.39 29.32,5.72 28.85,6.05 28.35,6.39 27.84,6.73 27.3,7.07 26.74,7.41 26.17,7.75 25.58,8.09 24.97,8.43 24.34,8.77 23.69,9.1 23.03,9.43 22.35,9.75 21.66,10.06 20.93,10.49 20.17,10.91 19.39,11.32 18.59,11.71 17.76,12.09 16.91,12.45 16.04,12.8 15.15,13.12 14.25,13.43 13.33,13.71 12.4,13.98 11.45,14.22 10.49,14.44 9.52,14.64 8.55,14.81 7.56,14.96 6.58,15.09 5.58,15.2 4.59,15.28 3.6,15.34 2.61,15.38 1.62,15.39 0.64,15.39 -0.34,15.36 -1.31,15.31 -2.28,15.24 -3.23,15.15 -4.17,15.04 -5.1,14.91 -6.02,14.77 -6.93,14.61 -7.82,14.43 -8.69,14.23 -9.55,14.03 -10.39,13.8 -11.21,13.57 -12.02,13.32 -12.8,13.07 -13.57,12.8 -14.32,12.53 -15.05,12.24 -15.75,11.95 -16.44,11.66 -17.11,11.36 -17.76,11.06 -18.39,10.75 -19.01,10.44 -19.6,10.14 -20.18,9.83 -20.73,9.52 -21.28,9.21 -21.8,8.9 -22.31,8.59 -22.81,8.28 -23.29,7.97 -23.75,7.66 -24.2,7.35 -24.64,7.04 -25.06,6.74 -25.46,6.43 -25.86,6.13 -26.23,5.83 -26.6,5.53 -26.95,5.24 -27.29,4.95 -27.61,4.66 -27.92,4.38 -28.22,4.1 -28.51,3.82 -28.79,3.55 -29.05,3.28 -29.31,3.02 -29.55,2.76 -29.78,2.5" fill="none" stroke="black" stroke-width="2.2222222222222223" stroke-linejoin="round" filter="url(#fuzzy)" />
      <circle r="4.966" cx="-7.119492736029447" cy="-3.6296421844784668" stroke="black" fill="none" stroke-width="1.0" filter="url(#fuzzy)" clip-path="url(#leftEyeClipPath)" /><circle r="4.484" cx="-6.789492736029447" cy="-2.459642184478467" stroke="black" fill="none" stroke-width="1.0" filter="url(#fuzzy)" clip-path="url(#leftEyeClipPath)" /><circle r="4.9399999999999995" cx="-5.489492736029447" cy="-4.724642184478467" stroke="black" fill="none" stroke-width="1.0" filter="url(#fuzzy)" clip-path="url(#leftEyeClipPath)" /><circle r="4.208" cx="-5.474492736029447" cy="-5.244642184478467" stroke="black" fill="none" stroke-width="1.0" filter="url(#fuzzy)" clip-path="url(#leftEyeClipPath)" /><circle r="4.16" cx="-5.429492736029447" cy="-3.614642184478467" stroke="black" fill="none" stroke-width="1.0" filter="url(#fuzzy)" clip-path="url(#leftEyeClipPath)" /><circle r="4.978" cx="-4.294492736029447" cy="-3.784642184478467" stroke="black" fill="none" stroke-width="1.0" filter="url(#fuzzy)" clip-path="url(#leftEyeClipPath)" /><circle r="3.862" cx="-4.634492736029447" cy="-3.119642184478467" stroke="black" fill="none" stroke-width="1.0" filter="url(#fuzzy)" clip-path="url(#leftEyeClipPath)" /><circle r="4.82" cx="-6.374492736029447" cy="-3.2396421844784666" stroke="black" fill="none" stroke-width="1.0" filter="url(#fuzzy)" clip-path="url(#leftEyeClipPath)" /><circle r="3.362" cx="-5.119492736029447" cy="-1.7146421844784667" stroke="black" fill="none" stroke-width="1.0" filter="url(#fuzzy)" clip-path="url(#leftEyeClipPath)" /><circle r="4.178" cx="-5.894492736029448" cy="-2.454642184478467" stroke="black" fill="none" stroke-width="1.0" filter="url(#fuzzy)" clip-path="url(#leftEyeClipPath)" />
    </g>
    <g id="hairs">
      <polyline points="45,-68.94 45.92,-67.77 46.23,-66.99 45.97,-66.49 45.18,-66.22 43.87,-66.12 42.04,-66.14 39.68,-66.27 36.76,-66.51 33.25,-66.88 29.1,-67.41 24.27,-68.13 18.72,-69.05 12.44,-70.19 5.44,-71.57 -2.34,-73.24 -10.97,-75.2 -20.67,-77.32" fill="none" stroke="rgb(167, 133, 106)" stroke-width="2" stroke-linejoin="round" filter="url(#fuzzy)" /><polyline points="37.6,-75.59 37.08,-75.63 36.93,-74.98 36.34,-74.16 34.96,-73.38 32.68,-72.71 29.46,-72.12 25.29,-71.59 20.16,-71.07 14.05,-70.55 6.92,-70.03 -1.28,-69.56 -10.62,-69.17 -21.09,-68.92 -32.56,-68.88" fill="none" stroke="rgb(167, 133, 106)" stroke-width="2" stroke-linejoin="round" filter="url(#fuzzy)" /><polyline points="44.09,-70.03 44.44,-69.57 45.25,-68.64 46.22,-67.56 47.18,-66.5 48.06,-65.52 48.85,-64.64 49.57,-63.83 50.23,-63.08 50.82,-62.36 51.35,-61.71 51.8,-61.14 52.15,-60.68 52.37,-60.37 52.45,-60.21 52.36,-60.23 52.09,-60.47 51.59,-60.97 50.82,-61.78 49.76,-62.95 48.41,-64.5 46.76,-66.4 44.76,-68.7" fill="none" stroke="rgb(167, 133, 106)" stroke-width="2" stroke-linejoin="round" filter="url(#fuzzy)" /><polyline points="-1.14,-88.24 0.32,-88.39 1.02,-88.38 1.49,-88.31 1.76,-88.18 1.82,-88 1.69,-87.73 1.35,-87.39 0.7,-86.97 -0.36,-86.48 -1.89,-85.92 -3.93,-85.29 -6.48,-84.56 -9.57,-83.7 -13.3,-82.67 -17.76,-81.47 -22.93,-80.15 -28.51,-78.89" fill="none" stroke="rgb(167, 133, 106)" stroke-width="2" stroke-linejoin="round" filter="url(#fuzzy)" /><polyline points="-39.63,-73.74 -37.8,-74.87 -35.72,-75.4 -33.35,-75.53 -30.55,-75.37 -27.25,-75 -23.37,-74.48 -18.9,-73.84 -13.86,-73.1 -8.34,-72.24 -2.46,-71.25 3.7,-70.11 10.11,-68.84 16.76,-67.47 23.64,-66.04 30.73,-64.59 38.02,-63.08 45.5,-61.45" fill="none" stroke="rgb(167, 133, 106)" stroke-width="2" stroke-linejoin="round" filter="url(#fuzzy)" /><polyline points="-36.29,-76.44 -34.99,-76.94 -33.4,-77.17 -31.29,-77.24 -28.5,-77.25 -25.05,-77.21 -21.08,-77.07 -16.73,-76.77 -12.09,-76.29 -7.17,-75.67 -1.95,-74.92 3.56,-74.09 9.34,-73.2 15.36,-72.24 21.59,-71.18 28,-69.99 34.55,-68.66 41.22,-67.18" fill="none" stroke="rgb(167, 133, 106)" stroke-width="2" stroke-linejoin="round" filter="url(#fuzzy)" /><polyline points="-21.22,-84.59 -19.78,-84.93 -18.62,-85.3 -17.56,-85.62 -16.55,-85.9 -15.62,-86.14 -14.78,-86.35 -14.02,-86.54 -13.3,-86.71 -12.65,-86.85 -12.06,-86.95 -11.6,-87 -11.32,-86.98 -11.28,-86.88 -11.53,-86.69 -12.11,-86.4 -13.06,-86 -14.38,-85.49 -16.06,-84.88 -18.1,-84.17 -20.46,-83.39 -23.13,-82.55 -26.06,-81.67" fill="none" stroke="rgb(167, 133, 106)" stroke-width="2" stroke-linejoin="round" filter="url(#fuzzy)" /><polyline points="-18.28,-85.56 -17.46,-85.62 -16.05,-85.65 -14.39,-85.55 -12.58,-85.33 -10.55,-85.01 -8.25,-84.61 -5.68,-84.14 -2.86,-83.6 0.17,-82.98 3.34,-82.29 6.6,-81.53 9.9,-80.71 13.2,-79.83 16.49,-78.88 19.77,-77.88 23.02,-76.84 26.24,-75.77 29.39,-74.72 32.45,-73.73 35.37,-72.84 38.15,-72.03 40.94,-71.2" fill="none" stroke="rgb(167, 133, 106)" stroke-width="2" stroke-linejoin="round" filter="url(#fuzzy)" /><polyline points="17.73,-85.83 19.69,-84.99 20.67,-84.54 21.44,-84.16 22.11,-83.74 22.6,-83.31 22.8,-82.92 22.68,-82.57 22.23,-82.27 21.46,-82.01 20.36,-81.8 18.91,-81.64 17.1,-81.52 14.89,-81.44 12.29,-81.4 9.27,-81.38 5.8,-81.39 1.85,-81.44 -2.62,-81.52 -7.64,-81.62 -13.2,-81.75 -19.41,-81.93" fill="none" stroke="rgb(167, 133, 106)" stroke-width="2" stroke-linejoin="round" filter="url(#fuzzy)" /><polyline points="63.16,-42.58 63.32,-41 62.52,-39.93 60.67,-39.35 57.78,-39.14 53.86,-39.26 48.86,-39.77 42.73,-40.77 35.42,-42.3 26.91,-44.3 17.18,-46.71 6.21,-49.43 -5.97,-52.44 -19.32,-55.78 -33.87,-59.53" fill="none" stroke="rgb(167, 133, 106)" stroke-width="2" stroke-linejoin="round" filter="url(#fuzzy)" /><polyline points="-25.03,-82.68 -23.01,-83.63 -21.41,-84.14 -19.83,-84.45 -18.12,-84.67 -16.25,-84.84 -14.26,-84.99 -12.18,-85.09 -10.03,-85.16 -7.82,-85.19 -5.55,-85.21 -3.23,-85.23 -0.85,-85.24 1.57,-85.25 3.98,-85.26 6.32,-85.27 8.52,-85.29 10.53,-85.33 12.29,-85.38 13.8,-85.43 15.07,-85.49 16.01,-85.61 16.46,-85.86" fill="none" stroke="rgb(167, 133, 106)" stroke-width="2" stroke-linejoin="round" filter="url(#fuzzy)" /><polyline points="10.41,-87.35 11.46,-87.16 13.11,-86.65 14.86,-85.99 16.58,-85.25 18.33,-84.43 20.2,-83.5 22.22,-82.45 24.35,-81.33 26.52,-80.15 28.69,-78.95 30.83,-77.74 32.9,-76.55 34.84,-75.4 36.62,-74.35 38.18,-73.44 39.52,-72.7 40.65,-72.12 41.55,-71.69 42.14,-71.43" fill="none" stroke="rgb(167, 133, 106)" stroke-width="2" stroke-linejoin="round" filter="url(#fuzzy)" /><polyline points="9.66,-87.57 10.18,-87.49 11.03,-87.25 12.31,-86.88 13.89,-86.42 15.55,-85.92 17.15,-85.42 18.67,-84.93 20.13,-84.43 21.55,-83.93 22.87,-83.44 24.01,-83.02 24.89,-82.7 25.48,-82.49 25.77,-82.4 25.65,-82.48 24.82,-82.9" fill="none" stroke="rgb(167, 133, 106)" stroke-width="2" stroke-linejoin="round" filter="url(#fuzzy)" /><polyline points="50.96,-62.7 50.66,-62.67 51.32,-61.72 52.22,-60.52 53.14,-59.3 54.03,-58.09 54.88,-56.88 55.7,-55.69 56.46,-54.56 57.13,-53.55 57.68,-52.7 58.08,-52.06 58.3,-51.66 58.32,-51.56 58.14,-51.77 57.73,-52.32 57.11,-53.19 56.28,-54.39 55.23,-55.9 53.88,-57.81 52.1,-60.3" fill="none" stroke="rgb(167, 133, 106)" stroke-width="2" stroke-linejoin="round" filter="url(#fuzzy)" /><polyline points="15.78,-86.26 16.85,-85.9 18.6,-85.09 20.59,-84.03 22.66,-82.83 24.82,-81.51 27.1,-80.06 29.45,-78.53 31.81,-76.95 34.11,-75.38 36.33,-73.83 38.47,-72.32 40.5,-70.88 42.41,-69.55 44.18,-68.31 45.8,-67.17 47.29,-66.06" fill="none" stroke="rgb(167, 133, 106)" stroke-width="2" stroke-linejoin="round" filter="url(#fuzzy)" /><polyline points="-14.78,-86.3 -14.3,-86.34 -13.19,-86.35 -11.55,-86.34 -9.46,-86.26 -7.01,-86.1 -4.3,-85.86 -1.41,-85.54 1.57,-85.17 4.58,-84.76 7.56,-84.32 10.5,-83.85 13.37,-83.35 16.18,-82.84 18.91,-82.32 21.52,-81.81 23.99,-81.32 26.37,-80.81 28.84,-80.19" fill="none" stroke="rgb(167, 133, 106)" stroke-width="2" stroke-linejoin="round" filter="url(#fuzzy)" /><polyline points="58.56,-51.32 59.08,-50.25 59.09,-49.73 58.63,-49.67 57.7,-50.04 56.27,-50.85 54.35,-52.09 51.91,-53.74 48.9,-55.83 45.25,-58.43 40.88,-61.61 35.79,-65.42 30.01,-69.91 23.54,-75.11 16.16,-81.03" fill="none" stroke="rgb(167, 133, 106)" stroke-width="2" stroke-linejoin="round" filter="url(#fuzzy)" /><polyline points="-8.41,-87.58 -7.68,-87.77 -6.6,-87.91 -5.66,-87.96 -4.95,-87.92 -4.5,-87.77 -4.31,-87.53 -4.37,-87.18 -4.69,-86.72 -5.31,-86.15 -6.22,-85.45 -7.43,-84.62 -8.94,-83.66 -10.74,-82.54 -12.85,-81.27 -15.32,-79.83 -18.19,-78.2 -21.52,-76.4 -25.33,-74.42 -29.59,-72.26 -34.32,-69.91 -39.53,-67.35 -45.24,-64.68" fill="none" stroke="rgb(167, 133, 106)" stroke-width="2" stroke-linejoin="round" filter="url(#fuzzy)" /><polyline points="14.96,-86.22 15.53,-86.26 16.03,-86.18 16.72,-85.97 17.51,-85.66 18.23,-85.33 18.76,-85.02 19.06,-84.76 19.08,-84.54 18.79,-84.37 18.14,-84.27 17.07,-84.27 15.55,-84.36 13.56,-84.54 11.07,-84.8 8.03,-85.14 4.35,-85.58 0,-86.1 -5.1,-86.7" fill="none" stroke="rgb(167, 133, 106)" stroke-width="2" stroke-linejoin="round" filter="url(#fuzzy)" /><polyline points="32.73,-78.76 34.5,-77.68 35.56,-76.95 36.57,-76.18 37.62,-75.35 38.7,-74.49 39.74,-73.63 40.65,-72.87 41.36,-72.26 41.82,-71.86 41.98,-71.7 41.84,-71.78 41.38,-72.11 40.61,-72.7 39.5,-73.56 38.01,-74.75 36,-76.33" fill="none" stroke="rgb(167, 133, 106)" stroke-width="2" stroke-linejoin="round" filter="url(#fuzzy)" /><polyline points="-19.53,-84.81 -18.65,-85.25 -18.07,-85.4 -17.69,-85.35 -17.64,-85.09 -18.01,-84.63 -18.8,-83.93 -20.01,-83 -21.63,-81.79 -23.73,-80.25 -26.39,-78.34 -29.68,-76.05 -33.67,-73.37 -38.48,-70.25 -44.3,-66.53" fill="none" stroke="rgb(167, 133, 106)" stroke-width="2" stroke-linejoin="round" filter="url(#fuzzy)" /><polyline points="29.59,-80.37 29.96,-80.28 30.8,-79.82 31.59,-79.36 32.35,-78.92 33.09,-78.48 33.75,-78.08 34.24,-77.74 34.5,-77.52 34.49,-77.44 34.17,-77.51 33.51,-77.78 32.44,-78.3 30.85,-79.14 28.55,-80.42 25.47,-82.17" fill="none" stroke="rgb(167, 133, 106)" stroke-width="2" stroke-linejoin="round" filter="url(#fuzzy)" /><polyline points="-4.8,-88.09 -3.69,-88.26 -2.46,-88.31 -1.18,-88.26 0.16,-88.16 1.56,-88.05 2.96,-87.91 4.36,-87.76 5.73,-87.61 7.07,-87.44 8.39,-87.28 9.66,-87.13 10.83,-86.99 11.84,-86.87 12.65,-86.79 13.24,-86.74 13.63,-86.7 13.78,-86.69 13.64,-86.74 13.1,-86.87 12.17,-87.08 11.07,-87.33" fill="none" stroke="rgb(167, 133, 106)" stroke-width="2" stroke-linejoin="round" filter="url(#fuzzy)" /><polyline points="29.18,-80.87 30.83,-79.8 31.9,-79.07 33.03,-78.26 34.36,-77.31 35.81,-76.26 37.27,-75.16 38.7,-74.04 40.07,-72.93 41.38,-71.85 42.56,-70.85 43.55,-70.01 44.24,-69.44 44.57,-69.22 44.55,-69.34 44.29,-69.72" fill="none" stroke="rgb(167, 133, 106)" stroke-width="2" stroke-linejoin="round" filter="url(#fuzzy)" /><polyline points="-33.68,-78.12 -31.81,-79.19 -29.78,-79.97 -27.82,-80.42 -25.81,-80.67 -23.61,-80.81 -21.15,-80.88 -18.44,-80.9 -15.5,-80.88 -12.38,-80.79 -9.11,-80.66 -5.73,-80.46 -2.27,-80.23 1.27,-79.95 4.85,-79.64 8.46,-79.3 12.07,-78.94 15.63,-78.58 19.13,-78.27 22.52,-78.01 25.83,-77.81 29.1,-77.61 32.23,-77.44" fill="none" stroke="rgb(167, 133, 106)" stroke-width="2" stroke-linejoin="round" filter="url(#fuzzy)" /><polyline points="15.78,-86.26 16.61,-86.05 17.62,-85.65 18.38,-85.23 18.67,-84.88 18.49,-84.59 17.84,-84.34 16.67,-84.13 14.88,-83.98 12.42,-83.92 9.29,-83.96 5.5,-84.09 1.03,-84.33 -4.24,-84.68 -10.52,-85.11" fill="none" stroke="rgb(167, 133, 106)" stroke-width="2" stroke-linejoin="round" filter="url(#fuzzy)" /><polyline points="49,-64.44 49.05,-64.45 49.05,-63.97 48.63,-63.51 47.8,-63.13 46.51,-62.87 44.7,-62.78 42.3,-62.88 39.3,-63.17 35.65,-63.65 31.32,-64.33 26.28,-65.24 20.5,-66.41 13.96,-67.87 6.66,-69.63 -1.43,-71.74 -10.38,-74.18 -20.4,-76.82" fill="none" stroke="rgb(167, 133, 106)" stroke-width="2" stroke-linejoin="round" filter="url(#fuzzy)" /><polyline points="17.73,-85.83 19.48,-84.94 19.87,-84.33 19.62,-83.65 18.86,-82.81 17.51,-81.79 15.42,-80.63 12.51,-79.35 8.78,-77.92 4.23,-76.33 -1.17,-74.56 -7.45,-72.62 -14.67,-70.5 -22.84,-68.19 -31.92,-65.68 -41.84,-62.99" fill="none" stroke="rgb(167, 133, 106)" stroke-width="2" stroke-linejoin="round" filter="url(#fuzzy)" /><polyline points="57.73,-52.94 58.27,-51.65 58.28,-50.87 57.7,-50.6 56.54,-50.79 54.79,-51.4 52.46,-52.42 49.52,-53.83 45.95,-55.62 41.71,-57.79 36.74,-60.38 30.95,-63.43 24.27,-67 16.67,-71.13 8.09,-75.87 -1.37,-81.24" fill="none" stroke="rgb(167, 133, 106)" stroke-width="2" stroke-linejoin="round" filter="url(#fuzzy)" /><polyline points="-11.15,-87.37 -10.41,-87.41 -8.73,-87.45 -6.74,-87.47 -4.6,-87.43 -2.38,-87.33 -0.12,-87.16 2.16,-86.92 4.43,-86.64 6.7,-86.32 8.92,-85.99 11.08,-85.66 13.13,-85.35 15.04,-85.06 16.75,-84.82 18.18,-84.66 19.29,-84.6 20.09,-84.58" fill="none" stroke="rgb(167, 133, 106)" stroke-width="2" stroke-linejoin="round" filter="url(#fuzzy)" /><polyline points="37.6,-75.59 37.25,-75.6 37.58,-74.89 37.78,-73.99 37.53,-73.09 36.75,-72.25 35.45,-71.46 33.64,-70.68 31.31,-69.9 28.47,-69.08 25.09,-68.24 21.12,-67.39 16.55,-66.56 11.35,-65.75 5.51,-64.95 -0.97,-64.16 -8.1,-63.34 -15.86,-62.5 -24.25,-61.66 -33.23,-60.9 -42.78,-60.31" fill="none" stroke="rgb(167, 133, 106)" stroke-width="2" stroke-linejoin="round" filter="url(#fuzzy)" /><polyline points="20.66,-84.46 21.54,-84.15 22.12,-83.6 22.14,-82.94 21.41,-82.27 19.89,-81.62 17.62,-80.96 14.63,-80.26 10.86,-79.52 6.24,-78.72 0.68,-77.85 -5.86,-76.86 -13.37,-75.73 -21.85,-74.47 -31.42,-73.09" fill="none" stroke="rgb(167, 133, 106)" stroke-width="2" stroke-linejoin="round" filter="url(#fuzzy)" /><polyline points="-3.93,-88.33 -2.6,-88.42 -1.57,-88.42 -0.51,-88.39 0.56,-88.37 1.6,-88.34 2.58,-88.31 3.51,-88.27 4.39,-88.21 5.22,-88.13 5.97,-88.05 6.61,-87.98 7.08,-87.9 7.35,-87.84 7.39,-87.79 7.2,-87.74 6.77,-87.71 6.06,-87.69 5.02,-87.7 3.61,-87.75 1.83,-87.82 -0.32,-87.89 -2.87,-87.97" fill="none" stroke="rgb(167, 133, 106)" stroke-width="2" stroke-linejoin="round" filter="url(#fuzzy)" /><polyline points="45,-68.94 45.78,-67.75 45.67,-66.89 44.69,-66.25 42.9,-65.75 40.28,-65.34 36.83,-64.96 32.55,-64.6 27.4,-64.24 21.36,-63.91 14.36,-63.63 6.35,-63.4 -2.73,-63.23 -12.85,-63.14 -24.01,-63.17 -36.27,-63.38" fill="none" stroke="rgb(167, 133, 106)" stroke-width="2" stroke-linejoin="round" filter="url(#fuzzy)" /><polyline points="35.74,-76.97 35.43,-77.04 35.66,-76.59 35.67,-76.1 35.37,-75.61 34.66,-75.18 33.45,-74.87 31.66,-74.73 29.24,-74.78 26.17,-75 22.44,-75.38 18.03,-75.9 12.9,-76.57 7.01,-77.43 0.3,-78.48 -7.28,-79.73 -15.62,-81.23" fill="none" stroke="rgb(167, 133, 106)" stroke-width="2" stroke-linejoin="round" filter="url(#fuzzy)" /><polyline points="29.59,-80.37 29.63,-80.27 29.46,-79.76 28.58,-79.16 26.98,-78.47 24.68,-77.66 21.61,-76.71 17.68,-75.64 12.82,-74.44 6.98,-73.09 0.13,-71.6 -7.73,-69.96 -16.66,-68.24 -26.79,-66.43 -38.3,-64.43" fill="none" stroke="rgb(167, 133, 106)" stroke-width="2" stroke-linejoin="round" filter="url(#fuzzy)" /><polyline points="-16.68,-86.01 -15.47,-86.2 -14.86,-86.29 -14.47,-86.34 -14.19,-86.33 -14.03,-86.23 -14.07,-86.01 -14.36,-85.63 -15.01,-85.09 -16.11,-84.37 -17.76,-83.43 -20.05,-82.22 -23.04,-80.73 -26.74,-78.91 -31.13,-76.78 -36.22,-74.34" fill="none" stroke="rgb(167, 133, 106)" stroke-width="2" stroke-linejoin="round" filter="url(#fuzzy)" /><polyline points="57.73,-52.94 58.33,-51.56 58.48,-50.56 58.16,-49.93 57.38,-49.58 56.15,-49.47 54.48,-49.56 52.37,-49.83 49.81,-50.24 46.77,-50.8 43.23,-51.52 39.16,-52.44 34.53,-53.6 29.33,-55 23.52,-56.67 17.07,-58.59 9.93,-60.78 2.07,-63.26 -6.45,-66.11 -15.47,-69.41 -24.92,-73.15" fill="none" stroke="rgb(167, 133, 106)" stroke-width="2" stroke-linejoin="round" filter="url(#fuzzy)" /><polyline points="61.26,-46.28 61.92,-44.88 62.55,-43.52 62.95,-42.52 63.15,-41.76 63.18,-41.21 63.05,-40.89 62.72,-40.85 62.19,-41.14 61.41,-41.83 60.37,-43 59.02,-44.69 57.35,-46.91 55.33,-49.66 52.94,-52.92 50.16,-56.68 47,-60.94 43.49,-65.73 39.56,-71.16" fill="none" stroke="rgb(167, 133, 106)" stroke-width="2" stroke-linejoin="round" filter="url(#fuzzy)" /><polyline points="-17.88,-85.54 -16.58,-85.92 -15.31,-86.2 -14.15,-86.43 -13.01,-86.68 -11.81,-86.95 -10.56,-87.22 -9.34,-87.47 -8.27,-87.68 -7.46,-87.82 -7.04,-87.89 -7.1,-87.89 -7.72,-87.79 -8.93,-87.6 -10.8,-87.27" fill="none" stroke="rgb(167, 133, 106)" stroke-width="2" stroke-linejoin="round" filter="url(#fuzzy)" /><polyline points="-14.78,-86.3 -14.27,-86.36 -13.06,-86.42 -11.27,-86.48 -8.98,-86.51 -6.33,-86.49 -3.42,-86.4 -0.36,-86.27 2.74,-86.1 5.81,-85.9 8.74,-85.7 11.44,-85.51 13.87,-85.35 16.09,-85.17 18.33,-84.92" fill="none" stroke="rgb(167, 133, 106)" stroke-width="2" stroke-linejoin="round" filter="url(#fuzzy)" /><polyline points="10.12,-87.63 10.42,-87.41 10.83,-87.14 11.12,-86.74 10.98,-86.26 10.24,-85.72 8.9,-85.11 7.03,-84.38 4.64,-83.54 1.68,-82.56 -1.96,-81.45 -6.4,-80.21 -11.69,-78.8 -17.85,-77.21 -24.92,-75.47 -33.01,-73.6" fill="none" stroke="rgb(167, 133, 106)" stroke-width="2" stroke-linejoin="round" filter="url(#fuzzy)" /><polyline points="63.63,-41.52 63.36,-41.66 63.14,-40.96 62.64,-40.19 61.73,-39.58 60.36,-39.2 58.52,-39.06 56.18,-39.23 53.3,-39.78 49.87,-40.72 45.86,-42.04 41.26,-43.67 36.07,-45.55 30.26,-47.62 23.86,-49.89 16.88,-52.4 9.36,-55.22 1.28,-58.43 -7.38,-62.07 -16.69,-66.15 -26.74,-70.62" fill="none" stroke="rgb(167, 133, 106)" stroke-width="2" stroke-linejoin="round" filter="url(#fuzzy)" /><polyline points="52.75,-60.03 53.57,-58.76 53.69,-57.87 53.44,-56.98 52.77,-56.17 51.62,-55.5 49.96,-54.97 47.77,-54.6 45,-54.38 41.65,-54.35 37.67,-54.5 33.08,-54.82 27.86,-55.3 22.04,-55.92 15.6,-56.65 8.53,-57.49 0.83,-58.45 -7.55,-59.53 -16.66,-60.72 -26.56,-62.02 -37.25,-63.48" fill="none" stroke="rgb(167, 133, 106)" stroke-width="2" stroke-linejoin="round" filter="url(#fuzzy)" /><polyline points="50.96,-62.7 50.64,-62.71 51.23,-61.86 52.04,-60.83 52.79,-59.88 53.39,-59.08 53.84,-58.46 54.12,-58.02 54.2,-57.82 54.04,-57.93 53.6,-58.4 52.82,-59.27 51.67,-60.61 50.06,-62.58 47.88,-65.3" fill="none" stroke="rgb(167, 133, 106)" stroke-width="2" stroke-linejoin="round" filter="url(#fuzzy)" /><polyline points="46.31,-67.44 47.17,-66.56 47.92,-65.74 48.63,-64.96 49.33,-64.19 50.01,-63.39 50.69,-62.56 51.35,-61.73 51.97,-60.92 52.53,-60.18 53.01,-59.54 53.38,-59.01 53.63,-58.6 53.74,-58.34 53.68,-58.27 53.43,-58.42 52.95,-58.84 52.23,-59.55 51.26,-60.58 50.03,-61.93 48.54,-63.59 46.8,-65.57 44.81,-67.88 42.51,-70.62" fill="none" stroke="rgb(167, 133, 106)" stroke-width="2" stroke-linejoin="round" filter="url(#fuzzy)" /><polyline points="44.09,-70.03 44.43,-69.59 45.21,-68.7 46.12,-67.7 47,-66.75 47.77,-65.91 48.43,-65.2 48.99,-64.58 49.44,-64.05 49.79,-63.61 50.02,-63.28 50.1,-63.09 50.02,-63.08 49.73,-63.28 49.2,-63.72 48.43,-64.41 47.35,-65.42 45.92,-66.8 44.08,-68.61 41.82,-70.84 39.39,-73.34" fill="none" stroke="rgb(167, 133, 106)" stroke-width="2" stroke-linejoin="round" filter="url(#fuzzy)" /><polyline points="10.98,-87.38 12.76,-86.94 14.41,-86.41 15.84,-85.87 17.27,-85.28 18.84,-84.56 20.57,-83.73 22.43,-82.8 24.35,-81.83 26.27,-80.81 28.17,-79.79 30.01,-78.78 31.74,-77.82 33.32,-76.94 34.74,-76.16 35.98,-75.48 37.06,-74.91 37.94,-74.44 38.62,-74.1 39.07,-73.92 39.25,-73.94 39.07,-74.23" fill="none" stroke="rgb(167, 133, 106)" stroke-width="2" stroke-linejoin="round" filter="url(#fuzzy)" /><polyline points="-23.82,-83.39 -23.78,-83.32 -22.61,-83.75 -21.16,-84.22 -19.62,-84.63 -18.01,-85.01 -16.36,-85.36 -14.69,-85.71 -13.02,-86.03 -11.4,-86.33 -9.86,-86.61 -8.42,-86.89 -7.06,-87.17 -5.77,-87.43 -4.56,-87.68 -3.45,-87.9 -2.51,-88.07 -1.82,-88.21 -1.47,-88.31 -1.49,-88.38 -1.79,-88.44" fill="none" stroke="rgb(167, 133, 106)" stroke-width="2" stroke-linejoin="round" filter="url(#fuzzy)" /><polyline points="6.31,-88.27 7.51,-87.93 8.65,-87.73 9.5,-87.58 10.17,-87.43 10.77,-87.27 11.29,-87.08 11.64,-86.89 11.73,-86.7 11.54,-86.52 11.05,-86.32 10.28,-86.1 9.2,-85.87 7.79,-85.64 6.03,-85.42 3.88,-85.23 1.32,-85.08 -1.73,-84.98 -5.35,-84.94 -9.54,-84.94 -14.22,-84.94" fill="none" stroke="rgb(167, 133, 106)" stroke-width="2" stroke-linejoin="round" filter="url(#fuzzy)" /><polyline points="35.74,-76.97 35.58,-77 36.23,-76.47 36.98,-75.86 37.7,-75.21 38.32,-74.6 38.75,-74.08 38.92,-73.71 38.81,-73.5 38.43,-73.45 37.76,-73.54 36.8,-73.77 35.52,-74.17 33.88,-74.76 31.84,-75.58 29.4,-76.65 26.56,-77.97 23.31,-79.52 19.57,-81.3 15.24,-83.33 10.26,-85.6" fill="none" stroke="rgb(167, 133, 106)" stroke-width="2" stroke-linejoin="round" filter="url(#fuzzy)" /><polyline points="60.49,-47.32 61.15,-46.22 61.23,-45.91 61.11,-45.67 60.78,-45.57 60.13,-45.77 59.12,-46.35 57.71,-47.38 55.86,-48.89 53.55,-50.93 50.76,-53.54 47.44,-56.79 43.51,-60.77 38.88,-65.57 33.47,-71.21 27.34,-77.57" fill="none" stroke="rgb(167, 133, 106)" stroke-width="2" stroke-linejoin="round" filter="url(#fuzzy)" /><polyline points="-40.98,-72.37 -39.88,-73.26 -38.38,-73.93 -36.45,-74.51 -34.22,-74.93 -31.78,-75.18 -29.13,-75.29 -26.23,-75.31 -23.03,-75.28 -19.52,-75.22 -15.7,-75.15 -11.63,-75.04 -7.39,-74.86 -3.01,-74.61 1.47,-74.27 6.06,-73.86 10.76,-73.38 15.57,-72.84 20.45,-72.26 25.35,-71.66 30.21,-71.09 34.96,-70.6 39.56,-70.24" fill="none" stroke="rgb(167, 133, 106)" stroke-width="2" stroke-linejoin="round" filter="url(#fuzzy)" /><polyline points="21.7,-84.24 23.21,-83.6 24.91,-82.69 26.52,-81.73 28.07,-80.75 29.65,-79.71 31.29,-78.61 32.93,-77.48 34.56,-76.34 36.13,-75.23 37.66,-74.15 39.15,-73.08 40.56,-72.06 41.83,-71.12 42.91,-70.31 43.72,-69.73 44.21,-69.44 44.32,-69.52" fill="none" stroke="rgb(167, 133, 106)" stroke-width="2" stroke-linejoin="round" filter="url(#fuzzy)" /><polyline points="15.78,-86.26 16.78,-86 18.26,-85.46 19.81,-84.84 21.28,-84.23 22.71,-83.63 24.11,-83.01 25.46,-82.4 26.7,-81.83 27.8,-81.31 28.74,-80.85 29.51,-80.46 30.13,-80.15 30.55,-79.93 30.78,-79.81 30.79,-79.8 30.56,-79.9 30.09,-80.13 29.33,-80.5 28.21,-81.05 26.59,-81.86 24.37,-82.98" fill="none" stroke="rgb(167, 133, 106)" stroke-width="2" stroke-linejoin="round" filter="url(#fuzzy)" /><polyline points="54.36,-58.03 6.8,-69.49 3.58,-76.85 10.5,-77.8 18.86,-74.44 24.27,-70.19 24.34,-67.49 19.7,-67.17 13.42,-68.89 8.64,-71.89 6.55,-75.36 6.27,-78.65 6.48,-81.14 6.9,-82.28 7.99,-81.97 9.7,-80.93 11.86,-80.64 16.9,-81.96 21.7,-84.24" fill="none" stroke="rgb(167, 133, 106)" stroke-width="2" stroke-linejoin="round" filter="url(#fuzzy)" /><polyline points="-27.14,-81.85 0.49,-70.19 25.62,-56.63 32.16,-52.4 25.68,-53.47 14.32,-56.18 4.17,-59.12 -1.56,-61.69 -2.1,-63.3 1.77,-63.64 8.2,-63.19 14.07,-63.23 15.72,-65.12 11.2,-68.94 2.8,-72.78 -2.49,-73.91 3.29,-71.55 19.01,-70.3 10.12,-87.63" fill="none" stroke="rgb(167, 133, 106)" stroke-width="2" stroke-linejoin="round" filter="url(#fuzzy)" /><polyline points="-50.05,-63.43 16.13,-59.71 33.92,-64.19 34.84,-68.82 30.95,-70.99 25.06,-71.32 17.82,-71.15 10.42,-71.32 4.46,-72.02 1.19,-73.03 1.08,-73.95 3.82,-74.33 8.37,-73.97 13.26,-72.98 17.04,-71.82 18.9,-70.95 19.04,-70.49 18.44,-70.12 17.91,-69.51 16.96,-69.03 13.46,-69.95 4.97,-73.55 -7.88,-79.12 -17.47,-83.64 -11.47,-87.38" fill="none" stroke="rgb(167, 133, 106)" stroke-width="2" stroke-linejoin="round" filter="url(#fuzzy)" /><polyline points="-29.63,-80.48 -23.85,-71.8 -0.79,-70.63 12.67,-72.12 15.3,-74.61 11.45,-75.96 3.86,-75.39 -6.06,-73.69 -16.7,-72.03 -25.97,-71.06 -32.03,-70.64 -33.92,-70.28 -31.54,-69.61 -25.55,-68.51 -17.44,-66.87 -9.58,-64.88 -4.37,-63.94 -0.38,-67.36 32.73,-78.76" fill="none" stroke="rgb(167, 133, 106)" stroke-width="2" stroke-linejoin="round" filter="url(#fuzzy)" /><polyline points="34.29,-77.86 32.62,-55.66 22.85,-56.55 20.17,-62.71 16.1,-68.31 7.39,-71.16 -3.49,-71.65 -12.12,-71.42 -15.27,-71.7 -12.59,-72.36 -6.57,-72.56 -1.35,-71.93 -0.64,-71.3 -5.56,-71.91 -13.48,-74.16 -19.1,-77.24 -17.71,-80.37 -7.73,-84.42 4.38,-88.37" fill="none" stroke="rgb(167, 133, 106)" stroke-width="2" stroke-linejoin="round" filter="url(#fuzzy)" /><polyline points="26.24,-82.24 7.16,-75.81 -16.23,-70.19 -27.39,-69.11 -30.74,-70.22 -30.3,-71.75 -27.25,-73.38 -22.29,-75.16 -16.43,-76.76 -10.29,-77.63 -3.65,-77.4 3.86,-76.32 11.56,-75.11 17.34,-74.68 18.78,-75.54 15.14,-77.33 8.15,-78.58 0.05,-77.17 -11,-71.82 -32.1,-63.7 -55.25,-56.48" fill="none" stroke="rgb(167, 133, 106)" stroke-width="2" stroke-linejoin="round" filter="url(#fuzzy)" /><polyline points="44.06,-69.93 31.25,-73.41 10.79,-70.94 -3.94,-68.89 -7.5,-69.23 -4.79,-71.48 -1.83,-74.69 -1.38,-77.91 -3.45,-80.29 -6.96,-81.2 -10.61,-80.42 -12.96,-78.26 -12.51,-75.43 -8.21,-72.8 -0.13,-71 10.32,-70.24 20.98,-70.32 29.87,-70.78 35.93,-71.24 39.28,-71.44 40.86,-71.17 42.1,-70.11 44.19,-68.06 47.29,-65.31 54.36,-58.03" fill="none" stroke="rgb(167, 133, 106)" stroke-width="2" stroke-linejoin="round" filter="url(#fuzzy)" /><polyline points="52.75,-60.03 -7.58,-66.85 -23.73,-69.23 -20.07,-70.31 -10.45,-70.46 -0.83,-69.33 7.45,-67.85 13.51,-67.7 15.89,-69.87 14.05,-73.98 9.45,-78.65 4.94,-82.43 2.95,-84.4 3.64,-84.27 3.71,-82.04 -3.2,-78.28 -21.65,-74.99 -35.04,-77.06" fill="none" stroke="rgb(167, 133, 106)" stroke-width="2" stroke-linejoin="round" filter="url(#fuzzy)" /><polyline points="-44.37,-69.76 12.94,-57.91 24.4,-64.31 26.14,-69.61 26.07,-72.31 25.7,-73.74 25.04,-74.67 23.5,-75.22 20.37,-75.38 15.33,-75.24 8.89,-74.96 2.24,-74.7 -3.03,-74.62 -5.05,-74.68 -1.88,-74.31 7.6,-72.34 21.95,-67.68 35.91,-60.54 40.27,-53.49 21.37,-51.27 -48.78,-64.9" fill="none" stroke="rgb(167, 133, 106)" stroke-width="2" stroke-linejoin="round" filter="url(#fuzzy)" /><polyline points="7.24,-87.83 35.02,-70.75 41.89,-63.63 34.24,-64.59 20.14,-68.36 6.4,-71.39 -2.71,-72.9 -5.88,-73.49 -4.58,-73.77 -1.84,-73.81 0.09,-73.12 1.42,-71.09 3.66,-67.79 5.79,-64.5 3.75,-62.51 4.02,-59.72 56.65,-54.44" fill="none" stroke="rgb(167, 133, 106)" stroke-width="2" stroke-linejoin="round" filter="url(#fuzzy)" /><polyline points="16.43,-86.15 13.18,-79.02 18.06,-69.84 11.88,-66.55 1.79,-68.81 -5.58,-73.48 -8.93,-77.78 -9.46,-80.28 -8.19,-80.74 -5.33,-79.45 -0.81,-76.86 4.95,-73.44 10.88,-69.66 15.77,-66.07 18.86,-63.31 20,-62.03 19.37,-62.79 17.2,-65.75 14.07,-70.23 11.64,-74.56 12.37,-76.54 17.07,-74.95 21.02,-71.44 9.7,-70.73 -40.98,-72.37" fill="none" stroke="rgb(167, 133, 106)" stroke-width="2" stroke-linejoin="round" filter="url(#fuzzy)" /><polyline points="-48.43,-65.16 -4.76,-63.78 3.09,-67.49 9.28,-72.34 13.34,-76.12 14.62,-77.5 14.9,-76.17 15.22,-73.31 15.62,-71.09 16.59,-70.94 19.24,-72.53 23.07,-74.31 24.03,-75.35 15.47,-76.13 -8.09,-76.85 -42.67,-70.96" fill="none" stroke="rgb(167, 133, 106)" stroke-width="2" stroke-linejoin="round" filter="url(#fuzzy)" /><polyline points="48.55,-65.32 9.78,-64.58 13.62,-68.01 17.69,-71.04 17.7,-71.91 15.66,-72.02 12.48,-72.99 8.12,-75.01 2.82,-77.14 -2.37,-78.3 -5.75,-78.01 -5.53,-76.32 -0.7,-73.56 8.25,-70.15 19.03,-66.7 28.17,-64.14 32.27,-63.59 29.59,-65.82 21.28,-70.65 11.38,-76.73 5.07,-82.16 5.24,-85.58 9.96,-86.81 12.7,-87.13" fill="none" stroke="rgb(167, 133, 106)" stroke-width="2" stroke-linejoin="round" filter="url(#fuzzy)" /><polyline points="-11.15,-87.37 2.28,-82.92 -3.16,-81.89 -8.09,-81.34 -8.85,-80.33 -5.51,-78.53 -0.43,-76.21 2.95,-74.1 2.36,-72.81 -1.9,-72.29 -7.15,-71.97 -9.98,-71.22 -8.28,-69.91 -2.33,-68.46 5.52,-67.48 12.49,-67.16 17.34,-67.13 20.78,-66.97 23.51,-67.11 23.02,-68.98 13.92,-73.65 -2.61,-80.2 1.37,-88.55" fill="none" stroke="rgb(167, 133, 106)" stroke-width="2" stroke-linejoin="round" filter="url(#fuzzy)" /><polyline points="-14.78,-86.3 -8.13,-82.1 0.66,-72.94 9.88,-66.55 14.9,-64.09 15.89,-64.33 14.68,-65.85 12.48,-67.86 9.73,-69.98 7.01,-71.86 5.4,-72.96 6.22,-72.85 10.23,-71.48 17.19,-69.21 25.88,-66.53 34.67,-63.79 42.11,-61.18 47.33,-58.82 49.8,-57.12 48.54,-57.08 40.53,-60 18.06,-65.85 -39.81,-73.64" fill="none" stroke="rgb(167, 133, 106)" stroke-width="2" stroke-linejoin="round" filter="url(#fuzzy)" /><polyline points="-13.76,-86.61 -4.73,-84.27 3.11,-77.57 -1.22,-70.78 -9.29,-66.34 -11.82,-64.63 -6.97,-65.38 1.33,-68.14 8.29,-72.1 11.58,-76.08 11.7,-78.8 10.7,-79.4 10.63,-77.77 12.69,-74.6 17.08,-71.15 22.94,-68.74 28.18,-68.31 28.86,-70.21 19.26,-73.62 -6.35,-74.16 -53.03,-59.97" fill="none" stroke="rgb(167, 133, 106)" stroke-width="2" stroke-linejoin="round" filter="url(#fuzzy)" /><polyline points="27.52,-81.66 51.94,-50.99 54.85,-46.65 45.94,-52.88 32.02,-60.45 18.04,-65.53 7.19,-68 0.91,-69.09 -0.96,-69.97 0.12,-71.27 2.03,-73.17 2.75,-75.5 0.88,-77.69 -4.15,-79.05 -11.41,-79.26 -16.96,-78.92 -13.38,-79.12 6.52,-79.15 42.08,-71.51" fill="none" stroke="rgb(167, 133, 106)" stroke-width="2" stroke-linejoin="round" filter="url(#fuzzy)" /><polyline points="-44.72,-69.07 -37.04,-64.74 -12.06,-54.34 13.02,-47.38 25.08,-46.59 24.21,-50.67 16.5,-57.13 7.97,-63.9 2.38,-69.52 1.12,-73.06 3.64,-74.24 8.03,-73.49 11.85,-71.93 13.06,-70.79 10.67,-70.76 5.1,-71.58 -1.92,-72.3 -7.27,-71.97 -6.63,-70.09 3.59,-66.9 21.05,-64.25 30.16,-67.97 2.75,-88.55" fill="none" stroke="rgb(167, 133, 106)" stroke-width="2" stroke-linejoin="round" filter="url(#fuzzy)" /><polyline points="-16.68,-86.01 21.15,-74.49 30.6,-69.31 22.9,-70.99 10.87,-74.73 0.41,-77.31 -7.96,-77.63 -14.47,-76.02 -17.78,-73.54 -15.85,-71.31 -7.86,-69.84 4.78,-68.89 19,-67.78 31.39,-66.13 39.55,-64.31 42.7,-63.11 41.85,-62.74 38.99,-62.38 33.78,-62.02 16.14,-65.86 -37.99,-75.29" fill="none" stroke="rgb(167, 133, 106)" stroke-width="2" stroke-linejoin="round" filter="url(#fuzzy)" /><polyline points="38.31,-74.82 27.52,-76.9 10.05,-81.16 -1.28,-83.57 -6.69,-83.91 -8.62,-82.77 -8.43,-81.04 -6.84,-79.35 -4.37,-77.75 -1.25,-75.86 2.75,-73.33 7.95,-70.29 14.19,-67.35 20.53,-65.3 25.46,-64.86 27.49,-66.43 26.01,-69.93 21.7,-74.59 16.07,-79.09 10.14,-82.11 3.75,-82.96 -2.23,-81.29 0.7,-76.73 41.93,-71.67" fill="none" stroke="rgb(167, 133, 106)" stroke-width="2" stroke-linejoin="round" filter="url(#fuzzy)" /><polyline points="63.16,-42.58 24.3,-71.34 15.06,-80.11 17.03,-79.38 22.48,-75.49 27.22,-72.31 29.71,-70.99 29.69,-71.15 27.11,-72.28 22.18,-74.13 15.74,-76.36 9.36,-78.46 4.93,-79.94 3.99,-80.66 6.82,-80.83 11.7,-80.67 15.69,-80.27 17.64,-79.81 19.89,-80.26 12.7,-87.13" fill="none" stroke="rgb(167, 133, 106)" stroke-width="2" stroke-linejoin="round" filter="url(#fuzzy)" /><polyline points="60.49,-47.32 24.9,-64.13 0.51,-70.13 -5.59,-73.61 -5.54,-76.4 -6.94,-78.6 -10.39,-79.93 -13.84,-80.04 -15.7,-78.74 -15.64,-76.25 -14.07,-73.29 -11.48,-70.76 -7.89,-69.27 -2.83,-68.89 4.11,-69.33 12.59,-70.23 20.94,-71.3 21.73,-73.77 -11.15,-87.37" fill="none" stroke="rgb(167, 133, 106)" stroke-width="2" stroke-linejoin="round" filter="url(#fuzzy)" /><polyline points="-28.83,-81.08 -6.93,-74.84 -2.64,-69.66 0.83,-70.14 0.27,-73.24 -4.82,-76.26 -11.67,-78.43 -17.14,-79.97 -19.81,-81.01 -20.18,-81.13 -19.31,-79.57 -17.17,-75.79 -12.59,-70 -4.94,-63.04 8.42,-54.67 63.71,-40.72" fill="none" stroke="rgb(167, 133, 106)" stroke-width="2" stroke-linejoin="round" filter="url(#fuzzy)" /><polyline points="-18.28,-85.56 19.45,-72.17 24.42,-74.21 24.36,-74.64 21.58,-72.93 15.85,-71.87 9.6,-72.68 5.35,-74.72 3.25,-76.81 1.8,-78.23 0.37,-78.84 0.58,-78.59 4.8,-77.26 12.58,-74.5 18.42,-70.07 11.08,-65.25 -40.98,-72.37" fill="none" stroke="rgb(167, 133, 106)" stroke-width="2" stroke-linejoin="round" filter="url(#fuzzy)" /><polyline points="63.71,-40.72 5.67,-67.1 -18.16,-74.3 -24.56,-73.8 -20.69,-70.83 -12.78,-68.4 -6.01,-68.14 -2.37,-70.17 -0.78,-73.47 0.68,-76.79 2.77,-79.34 4.55,-81.01 4.51,-81.93 2.01,-82.09 -2.39,-81.14 -7.33,-78.69 -8.76,-75.01 5.82,-70.06 56.65,-54.44" fill="none" stroke="rgb(167, 133, 106)" stroke-width="2" stroke-linejoin="round" filter="url(#fuzzy)" /><polyline points="-5.89,-88.2 14.76,-82.33 21.2,-78.78 20.88,-77.33 20.93,-75.98 21.2,-74.92 19.3,-74.54 14.35,-74.56 7.25,-74.49 -0.67,-74.22 -8.63,-73.94 -16.34,-73.68 -23.42,-73.09 -28.88,-71.72 -30.71,-69.79 -26.13,-68.38 -13.78,-68.6 0.93,-69.8 -1.55,-68.32 -54.99,-56.87" fill="none" stroke="rgb(167, 133, 106)" stroke-width="2" stroke-linejoin="round" filter="url(#fuzzy)" /><polyline points="45,-68.94 45.6,-65.82 38.05,-71.04 30.75,-75.07 23.11,-77.66 14.63,-79.39 5.95,-80.02 -1.98,-79.16 -8.31,-76.99 -12.6,-74.27 -15.33,-71.94 -17.96,-70.76 -21.76,-70.99 -26.46,-72.45 -30.33,-74.53 -31.55,-76.43 -28.42,-77.94 -16.13,-80.29 17.73,-85.83" fill="none" stroke="rgb(167, 133, 106)" stroke-width="2" stroke-linejoin="round" filter="url(#fuzzy)" /><polyline points="10.12,-87.63 -4.02,-72.01 6.64,-67.3 13.72,-64.08 21.53,-59.27 31.99,-54.17 41.15,-50.86 44.25,-50.5 39.51,-53.07 29.36,-57.49 19.68,-61.95 16.59,-64.71 20.82,-65.78 23.8,-68.56 15.12,-77.79 10.98,-87.38" fill="none" stroke="rgb(167, 133, 106)" stroke-width="2" stroke-linejoin="round" filter="url(#fuzzy)" />
    </g>
    
        <g id="lineNose">
        <path d="M -11.87,14.36 Q 9.38, 29.384999999999998 -1.2449999999999992, -4.776" fill="none" stroke="black" stroke-width="3" stroke-linejoin="round" filter="url(#fuzzy)"></path>
        </g>
      
    <g id="mouth">
      <polyline points="12.76,55.53 12.49,55.79 12.43,56.35 11.86,57.18 11.91,56.99 11.78,57.29 11.78,57.42 11.1,57.87 11.49,57.69 11.15,57.92 10.51,58.48 9.95,58.62 9.44,58.99 10.03,58.79 9.33,59.09 7.62,59.64 8.4,59.42 7.7,59.6 6.21,60.07 7.13,59.83 5.23,60.22 5.67,60.11 5.22,60.24 3.03,60.46 3.17,60.52 3.67,60.45 1.85,60.57 1.62,60.57 0.61,60.54 0.98,60.6 0.49,60.59 -1.74,60.45 -1.39,60.51 -2.77,60.42 -2.5,60.4 -3.08,60.39 -5.78,60.04 -6.72,59.9 -7.15,59.8 -7.08,59.83 -8.53,59.53 -8.85,59.49 -9.03,59.43 -10.13,59.18 -10.56,59.1 -11.21,58.93 -13.4,58.35 -12.36,58.64 -13.61,58.29 -15.62,57.66 -16.32,57.43 -17.28,57.09 -17.64,56.96 -17.74,56.93 -18.97,56.46 -19.76,56.13 -21.88,55.24 -21.2,55.54 -22.16,55.11 -21.45,55.43 -23.39,54.54 -25.12,53.65 -24.81,53.79 -25.09,53.65 -27.32,52.41 -26.27,53.01 -26.11,53.1 -27.75,52.14 -29.3,51.14 -29.67,50.87 -29.87,50.8 -30.68,50.18 -31.52,49.53 -31.75,49.37 -31.26,49.74 -33.23,48.14 -33.22,48.05 -32.53,48.68 -34.33,46.96 -33.77,47.57 -35.05,46.33 -34.92,46.45 -35.59,45.66 -35.74,45.3 -35.86,45.25 -36.48,44.23 -36,44.88 -36.75,43.8 -36.52,44.17 -37.38,42.51 -37.38,42.61 -37.54,41.89 -37.21,42.63 -37.72,41.36 -37.7,40.8 -37.66,41.35 -37.76,40.31 -37.53,40.14 -37.74,39.95 -37.49,39.68 -37.27,38.95 -37.46,39.43 -37.23,38.71 -37.09,38.4 -36.74,37.95 -36.5,37.57 -36.39,37.59 -36.49,37.43 -35.8,36.77 -35.76,36.77 -35.63,36.69 -34.85,36.3 -34.39,35.91 -34.22,35.95 -33.93,35.73 -32.98,35.43 -31.92,35.18 -32.21,35.17 -32,35.13 -31.33,34.96 -31.02,34.96 -31.03,34.85 -28.45,34.57 -29.36,34.67 -27.9,34.49 -28.73,34.61 -27.28,34.44 -26.37,34.43 -25.24,34.43 -26.08,34.43 -23.8,34.5 -23.54,34.51 -23.59,34.49 -21.91,34.63 -22.4,34.57 -20.88,34.74 -20.99,34.75 -18.53,35.09 -18.75,35.05 -17.03,35.35 -16.4,35.49 -15.75,35.61 -15.62,35.64 -15.83,35.6 -14.44,35.9 -11.48,36.69 -12.64,36.35 -10.14,37.09 -9.48,37.3 -10.66,36.93 -7.88,37.84 -7.6,37.94 -8.85,37.51 -7.44,38 -6.8,38.24 -5.75,38.64 -5.18,38.86 -4.44,39.17 -1.65,40.43 -2.66,39.94 -1.97,40.27 0.07,41.29 -0.38,41.02 -0.47,41 2.04,42.33 1.14,41.84 1.97,42.32 3.98,43.55 4.69,44.05 4.01,43.52 5.72,44.75 5.01,44.18 5.59,44.58 6.89,45.6 6.95,45.63 8.08,46.64 7.99,46.46 8.29,46.81 9.25,47.65 9.93,48.33 9.9,48.34 10.57,49.22 10.41,48.9 10.7,49.2 11.1,49.82 11.59,50.7 11.65,50.73 12.23,51.55 11.84,50.92 12.16,51.67 12.24,51.92 12.64,52.7 12.76,53.08 12.69,53.08 12.78,53.78 12.72,53.66 12.89,54.06 12.94,54.76 12.81,54.73 12.58,55.68" fill="rgb(215,127,140)" stroke="black" stroke-width="3" stroke-linejoin="round" filter="url(#fuzzy)" />
    </g>
  </svg>
  