
  <svg viewBox="-100 -100 200 200" xmlns="http://www.w3.org/2000/svg" width="500" height="500" id="face-svg">
    <defs>
      <clipPath id="leftEyeClipPath">
        <polyline points="29.33,3.99 29.24,3.62 29.11,3.23 28.96,2.83 28.76,2.42 28.54,2 28.28,1.57 27.99,1.14 27.66,0.7 27.3,0.25 26.91,-0.2 26.48,-0.66 26.02,-1.12 25.53,-1.58 25,-2.04 24.44,-2.51 24,-3.03 23.5,-3.57 22.94,-4.1 22.32,-4.64 21.64,-5.18 20.92,-5.72 20.14,-6.26 19.31,-6.78 18.44,-7.3 17.52,-7.81 16.56,-8.3 15.57,-8.78 14.55,-9.25 13.49,-9.69 12.41,-10.11 11.31,-10.51 10.19,-10.89 9.06,-11.24 7.92,-11.56 6.76,-11.86 5.61,-12.13 4.45,-12.36 3.3,-12.57 2.15,-12.74 1.02,-12.89 -0.11,-13 -1.22,-13.08 -2.31,-13.12 -3.39,-13.13 -4.44,-13.12 -5.46,-13.06 -6.46,-12.98 -7.44,-12.87 -8.38,-12.73 -9.29,-12.55 -10.18,-12.35 -11.03,-12.13 -11.84,-11.88 -12.63,-11.6 -13.38,-11.3 -14.1,-10.98 -14.78,-10.64 -15.43,-10.29 -16.05,-9.91 -16.64,-9.53 -17.2,-9.13 -17.74,-8.72 -18.24,-8.3 -18.72,-7.88 -19.18,-7.46 -19.61,-7.03 -20.02,-6.59 -20.41,-6.14 -20.77,-5.69 -21.11,-5.23 -21.43,-4.77 -21.73,-4.31 -22.01,-3.84 -22.27,-3.38 -22.51,-2.91 -22.73,-2.44 -22.94,-1.98 -23.13,-1.51 -23.3,-1.05 -21.05,9.58 -20.78,9.7 -20.5,9.82 -20.21,9.95 -19.91,10.07 -19.6,10.19 -19.28,10.31 -18.95,10.43 -18.6,10.54 -18.25,10.66 -17.88,10.78 -17.51,10.89 -17.12,11 -16.72,11.11 -16.3,11.22 -15.88,11.32 -15.44,11.43 -14.98,11.53 -14.51,11.63 -14.03,11.73 -13.53,11.83 -13.02,11.92 -12.49,12.02 -11.94,12.1 -11.37,12.19 -10.79,12.27 -10.2,12.35 -9.58,12.42 -8.95,12.49 -8.3,12.55 -7.64,12.61 -6.96,12.67 -6.27,12.71 -5.56,12.76 -4.83,12.79 -4.1,12.82 -3.34,12.85 -2.58,12.87 -1.8,12.88 -1.02,12.89 -0.22,12.89 0.59,12.88 1.4,12.87 2.23,12.85 3.05,12.82 3.89,12.79 4.73,12.74 5.57,12.7 6.41,12.64 7.25,12.58 8.09,12.52 8.93,12.44 9.76,12.36 10.59,12.27 11.42,12.18 12.23,12.08 13.04,11.98 13.83,11.87 14.62,11.75 15.39,11.63 16.15,11.5 16.89,11.37 17.61,11.23 18.32,11.09 19.01,10.95 19.65,10.82 20.27,10.69 20.88,10.55 21.48,10.41 22.07,10.27 22.64,10.12 23.2,9.97 23.75,9.81 24.28,9.64 24.8,9.48 25.3,9.3 25.78,9.13 26.24,8.94 26.69,8.76 27.11,8.56" />
      </clipPath>
      <clipPath id="rightEyeClipPath">
        <polyline points="-28.77,5.83 -28.67,5.46 -28.53,5.08 -28.37,4.69 -28.17,4.28 -27.94,3.86 -27.67,3.43 -27.38,2.99 -27.05,2.53 -26.68,2.07 -26.28,1.59 -25.85,1.11 -25.39,0.62 -24.9,0.12 -24.37,-0.38 -23.81,-0.89 -23.37,-1.41 -22.86,-1.96 -22.3,-2.52 -21.68,-3.09 -21,-3.67 -20.28,-4.27 -19.5,-4.87 -18.68,-5.47 -17.81,-6.07 -16.9,-6.67 -15.95,-7.26 -14.96,-7.85 -13.95,-8.42 -12.9,-8.98 -11.83,-9.53 -10.74,-10.05 -9.63,-10.56 -8.51,-11.04 -7.38,-11.49 -6.24,-11.92 -5.09,-12.31 -3.94,-12.68 -2.8,-13.01 -1.66,-13.31 -0.54,-13.57 0.58,-13.8 1.68,-13.98 2.77,-14.14 3.83,-14.25 4.88,-14.33 5.9,-14.36 6.89,-14.36 7.86,-14.32 8.8,-14.25 9.71,-14.14 10.59,-13.99 11.44,-13.81 12.26,-13.6 13.04,-13.35 13.79,-13.08 14.51,-12.78 15.2,-12.45 15.85,-12.09 16.48,-11.72 17.07,-11.33 17.64,-10.91 18.17,-10.49 18.68,-10.05 19.17,-9.6 19.63,-9.15 20.07,-8.69 20.48,-8.21 20.87,-7.73 21.24,-7.23 21.59,-6.73 21.91,-6.21 22.22,-5.7 22.5,-5.18 22.77,-4.65 23.01,-4.12 23.24,-3.59 23.45,-3.06 23.65,-2.53 23.83,-2.01 21.7,9.6 21.41,9.74 21.12,9.88 20.81,10.02 20.48,10.15 20.15,10.29 19.81,10.42 19.46,10.56 19.09,10.69 18.71,10.82 18.32,10.94 17.92,11.07 17.5,11.19 17.08,11.32 16.63,11.44 16.18,11.55 15.71,11.67 15.23,11.79 14.73,11.9 14.22,12.02 13.69,12.13 13.14,12.23 12.58,12.34 11.99,12.44 11.4,12.54 10.78,12.64 10.15,12.73 9.5,12.83 8.84,12.91 8.15,13 7.46,13.07 6.74,13.15 6.01,13.22 5.27,13.29 4.51,13.35 3.74,13.4 2.95,13.45 2.16,13.5 1.35,13.54 0.54,13.57 -0.29,13.6 -1.12,13.62 -1.96,13.63 -2.81,13.64 -3.66,13.64 -4.51,13.64 -5.36,13.62 -6.22,13.6 -7.07,13.58 -7.92,13.54 -8.77,13.5 -9.61,13.45 -10.45,13.4 -11.27,13.34 -12.09,13.26 -12.9,13.19 -13.69,13.1 -14.47,13.01 -15.23,12.91 -15.98,12.8 -16.71,12.69 -17.43,12.57 -18.12,12.44 -18.79,12.31 -19.44,12.17 -20.06,12.06 -20.66,11.94 -21.25,11.82 -21.82,11.69 -22.38,11.56 -22.93,11.43 -23.46,11.29 -23.98,11.15 -24.48,11 -24.96,10.84 -25.43,10.69 -25.88,10.52 -26.31,10.36 -26.72,10.19 -27.12,10.01" />
      </clipPath>
      <filter id="fuzzy">
        <feTurbulence id="turbulence" baseFrequency="0.05" numOctaves="3" type="noise" result="noise" />
        <feDisplacementMap in="SourceGraphic" in2="noise" scale="2" />
      </filter>
      <linearGradient id="rainbowGradient" x1="0%" y1="0%" x2="100%" y2="0%">
        <stop offset="0%" style="stop-color: rgb(233, 236, 239); stop-opacity: 1" />
        <stop offset="50%" style="stop-color: rgb(255, 215, 0); stop-opacity: 1" />
        <stop offset="100%" style="stop-color: rgb(0, 0, 0); stop-opacity: 1" />
      </linearGradient>
    </defs>
    <rect x="-100" y="-100" width="100%" height="100%" fill="rgb(25, 25, 112)" />
    <polyline id="faceContour" points="59.38,-0.37 59.2,1.4 59.33,1.67 59.17,3.64 59.15,6.77 59.14,6.04 58.94,9.72 58.99,12.65 59.12,9.94 58.79,14.9 58.38,16.57 58.37,17.44 58.38,16.73 58.29,19.1 58.04,20.28 57.8,22.62 57.24,24.39 57.4,23.86 56.83,26.12 56.65,28.16 56.61,28.46 55.95,31.4 55.43,33.52 55.6,32.85 54.99,35.88 54.9,35.93 54.27,38.31 53.91,39.21 53.19,41.64 53.33,40.87 53.08,42.2 52.08,44.79 52.25,45.01 52.18,45.7 51.45,47.15 50.67,49.39 50.83,48.3 49.28,52.12 49.41,52.31 48.54,54.26 47.87,55.23 47.44,57.05 46.27,59.51 45.98,59.67 45.47,61.02 44.77,62.13 44.51,61.8 43.33,64.16 43.75,64.02 42.31,66.11 42.73,65.75 41.77,66.93 41.34,67.81 40.03,69.86 40.41,69.24 38.36,72.15 38.02,72.92 37.86,72.42 36.07,74.66 35.73,75.6 35.51,75.36 33.94,77.61 33.25,77.92 32.36,78.64 32.11,79.32 30.45,80.82 30.43,80.84 29.33,81.98 27.51,83.59 26.99,84.04 26.89,84.39 26.81,84.01 26.21,84.87 24.71,86.01 23.43,86.35 21.67,87.74 20.77,88.32 21.14,88.02 19.98,88.87 19.07,89.6 19.14,89.28 18.47,89.32 16.48,90.63 16.23,90.61 13.75,91.49 15.2,91.31 12.8,92.2 12.01,92.46 10.92,92.66 11.08,92.48 9.72,93.06 9.28,93.2 8.75,93.09 5.89,93.84 6.33,93.73 5.37,94.07 2.43,94.21 2.17,94.12 1.62,94.15 0.68,94.25 -0.71,94.24 0.05,94.09 -1.97,94.03 -3.94,94.16 -2.84,94.06 -3.94,94.02 -5.62,93.87 -7.3,93.47 -9.26,93 -8.36,93.42 -8.99,93.04 -11.28,92.43 -11.28,92.37 -11.68,92.2 -12.8,91.88 -13.22,92.03 -14.35,91.68 -16.44,90.91 -16.02,90.94 -17.54,90.33 -19.11,89.18 -20.04,88.97 -19.98,88.86 -20.97,88.31 -21.62,87.84 -22.91,87.13 -24.18,86.07 -25.4,85.54 -23.89,86.38 -24.72,85.7 -28.4,82.72 -27.25,83.35 -27.47,83.77 -30.2,80.96 -30.25,80.92 -32.36,79.17 -31.93,79.57 -33.24,78.11 -33.9,77.26 -35.22,75.98 -34.2,77.19 -36.04,75.25 -36.47,74.32 -37.16,73.69 -37.44,72.97 -38.41,71.59 -39.36,70.66 -39.58,70.29 -40.71,68.64 -41.08,67.98 -42.92,64.8 -42.82,65.24 -43.35,64.1 -44.08,62.91 -44.39,62.52 -45.64,60.34 -45.1,61.31 -46.34,58.38 -47.13,57.04 -46.55,58.51 -47.96,55.69 -48.31,54.78 -49.1,53.34 -48.93,53.45 -50.16,50.06 -50.04,50.57 -51.9,46.16 -51.7,46.57 -52.14,45.06 -52.72,43.57 -52.58,43.25 -53.71,39.63 -54.09,38.4 -53.54,40.27 -54.99,36.12 -54.66,36.98 -55.44,33.84 -55.95,32.03 -55.7,33.06 -56.19,29.91 -56.31,30.66 -56.79,27.76 -57.14,26.1 -57.05,26.06 -57.48,23.35 -57.66,22.09 -57.9,22.08 -58.17,18.68 -58.53,16.77 -58.59,15.92 -58.4,16.78 -59.04,11.79 -58.88,12.79 -58.98,10.06 -58.99,8.35 -59.07,8.88 -59.23,6.09 -59.22,5.15 -59.16,3.67 -59.26,-0.21 -59.43,-2.53 -59.23,-3.19 -59.44,-2.24 -59.4,-4.54 -59.38,-5.79 -59.22,-8.8 -59.15,-9.21 -58.93,-10.43 -58.87,-12.75 -58.76,-12.9 -58.73,-13.81 -58.63,-16.38 -58.18,-18.45 -58,-20.15 -57.95,-19.94 -57.66,-21.82 -57.66,-22.57 -57.5,-23.69 -57.23,-24.53 -57.02,-26.05 -56.38,-30.12 -56.27,-30.14 -55.47,-33.5 -55.41,-34.29 -55.22,-34.83 -54.7,-36.21 -54.19,-38.04 -54.35,-38.06 -53.84,-40.04 -53.1,-41.82 -53.5,-40.78 -52.69,-43.34 -51.65,-46.26 -51.06,-47.77 -51.13,-47.79 -50.3,-50.08 -50.52,-49.32 -49.21,-52.46 -49.3,-52.98 -48.01,-55.37 -48.59,-54.27 -46.53,-58.95 -46.74,-58.31 -46.46,-58.66 -45.7,-60.49 -45.69,-60.75 -44.76,-61.83 -44.4,-62.25 -43.42,-64.54 -42.92,-65.54 -41.57,-67.2 -41.22,-67.92 -39.76,-70.31 -40.6,-68.87 -38.47,-71.87 -38.65,-71.62 -39.03,-70.97 -36.53,-74.6 -35.99,-74.56 -36.4,-74.8 -34.59,-76.67 -34.22,-76.98 -32.91,-78.07 -32.02,-79.16 -32.4,-79.22 -29.36,-81.72 -30.27,-80.99 -29.36,-81.85 -30.05,-81.48 -27.59,-83.47 -26.59,-84.41 -26.82,-84.08 -25.15,-85.3 -23.85,-86.42 -23.61,-86.52 -22.99,-86.81 -21.98,-87.37 -22.01,-87.47 -20.54,-88.21 -20.4,-88.68 -17.06,-90.19 -17.58,-90.28 -16.66,-90.59 -15.98,-90.67 -16.1,-90.72 -13.71,-91.84 -12.04,-92.34 -12.3,-92.49 -10.18,-92.77 -11.92,-92.21 -9.37,-93.16 -8.27,-93.62 -6.31,-93.68 -5.65,-93.71 -4.91,-93.95 -4.67,-94.05 -3.83,-93.96 -3.48,-93.97 -2.58,-94.34 -0.2,-94.19 0.88,-94.52 0.62,-94.44 0.81,-94.29 3.81,-94.39 4.32,-94.08 3.32,-94 5.52,-94.05 5.97,-93.96 7.54,-93.55 8.54,-93.12 10.07,-93.17 10.27,-92.95 10.22,-92.81 12.81,-92.09 13.81,-91.87 13.33,-92.09 15.38,-91.27 16.56,-90.41 16.84,-90.63 17.81,-89.9 17.53,-89.96 18.93,-89.24 20.49,-88.59 20.28,-88.51 21.36,-88.28 21.57,-88.08 23.18,-86.53 25.06,-85.38 25.12,-85.7 25.9,-85.1 26.92,-84.12 27.52,-83.43 28.63,-82.82 30.34,-81.05 31.4,-80.29 30.79,-80.84 31.59,-79.71 32.43,-79.01 33.39,-77.83 33.03,-78.67 35.07,-75.93 36.9,-73.86 36.55,-74.49 37.43,-73.26 37.94,-72.44 39.11,-70.65 38.93,-71.17 40.21,-69.22 41.22,-68.27 40.18,-69.27 42.98,-65.31 43.11,-64.86 43.39,-64.06 43.58,-64.15 44.15,-63.64 44.82,-61.96 45.69,-60.45 46.45,-58.69 47.11,-56.86 47.67,-56.42 47.98,-55.16 47.79,-55.79 49.48,-52.03 50.42,-50.05 50.62,-48.7 51.32,-47.69 51.48,-46.85 51.2,-47.65 51.77,-45.88 52.22,-44.94 53.44,-41.26 52.95,-42.31 53.88,-39.95 54.12,-38.67 54.27,-38.59 54.89,-35.93 55.29,-34.06 55.99,-31.39 56.04,-30.78 56.25,-30.8 56.03,-31.11 56.3,-29.04 57.02,-26.23 57.28,-24.42 57.77,-20.95 57.9,-21.69 57.86,-20.71 58.29,-17.64 58.13,-18.21 58.35,-17.87 58.69,-15.52 58.58,-14.63 58.91,-10.6 59.1,-10.48 58.98,-8.2 59.19,-7.22 59.21,-5.85 59.21,-4.74 59.3,-2.36 59.24,-2.16 59.38,-0.37 59.2,1.4" fill="rgb(233, 150, 122)" stroke="black" stroke-width="1.6666666666666665" stroke-linejoin="round" filter="url(#fuzzy)" />
    <g transform="translate(39.11 -27.16)">
      <polyline id="rightCountour" points="-28.77,5.83 -28.67,5.46 -28.53,5.08 -28.37,4.69 -28.17,4.28 -27.94,3.86 -27.67,3.43 -27.38,2.99 -27.05,2.53 -26.68,2.07 -26.28,1.59 -25.85,1.11 -25.39,0.62 -24.9,0.12 -24.37,-0.38 -23.81,-0.89 -23.37,-1.41 -22.86,-1.96 -22.3,-2.52 -21.68,-3.09 -21,-3.67 -20.28,-4.27 -19.5,-4.87 -18.68,-5.47 -17.81,-6.07 -16.9,-6.67 -15.95,-7.26 -14.96,-7.85 -13.95,-8.42 -12.9,-8.98 -11.83,-9.53 -10.74,-10.05 -9.63,-10.56 -8.51,-11.04 -7.38,-11.49 -6.24,-11.92 -5.09,-12.31 -3.94,-12.68 -2.8,-13.01 -1.66,-13.31 -0.54,-13.57 0.58,-13.8 1.68,-13.98 2.77,-14.14 3.83,-14.25 4.88,-14.33 5.9,-14.36 6.89,-14.36 7.86,-14.32 8.8,-14.25 9.71,-14.14 10.59,-13.99 11.44,-13.81 12.26,-13.6 13.04,-13.35 13.79,-13.08 14.51,-12.78 15.2,-12.45 15.85,-12.09 16.48,-11.72 17.07,-11.33 17.64,-10.91 18.17,-10.49 18.68,-10.05 19.17,-9.6 19.63,-9.15 20.07,-8.69 20.48,-8.21 20.87,-7.73 21.24,-7.23 21.59,-6.73 21.91,-6.21 22.22,-5.7 22.5,-5.18 22.77,-4.65 23.01,-4.12 23.24,-3.59 23.45,-3.06 23.65,-2.53 23.83,-2.01 21.7,9.6 21.41,9.74 21.12,9.88 20.81,10.02 20.48,10.15 20.15,10.29 19.81,10.42 19.46,10.56 19.09,10.69 18.71,10.82 18.32,10.94 17.92,11.07 17.5,11.19 17.08,11.32 16.63,11.44 16.18,11.55 15.71,11.67 15.23,11.79 14.73,11.9 14.22,12.02 13.69,12.13 13.14,12.23 12.58,12.34 11.99,12.44 11.4,12.54 10.78,12.64 10.15,12.73 9.5,12.83 8.84,12.91 8.15,13 7.46,13.07 6.74,13.15 6.01,13.22 5.27,13.29 4.51,13.35 3.74,13.4 2.95,13.45 2.16,13.5 1.35,13.54 0.54,13.57 -0.29,13.6 -1.12,13.62 -1.96,13.63 -2.81,13.64 -3.66,13.64 -4.51,13.64 -5.36,13.62 -6.22,13.6 -7.07,13.58 -7.92,13.54 -8.77,13.5 -9.61,13.45 -10.45,13.4 -11.27,13.34 -12.09,13.26 -12.9,13.19 -13.69,13.1 -14.47,13.01 -15.23,12.91 -15.98,12.8 -16.71,12.69 -17.43,12.57 -18.12,12.44 -18.79,12.31 -19.44,12.17 -20.06,12.06 -20.66,11.94 -21.25,11.82 -21.82,11.69 -22.38,11.56 -22.93,11.43 -23.46,11.29 -23.98,11.15 -24.48,11 -24.96,10.84 -25.43,10.69 -25.88,10.52 -26.31,10.36 -26.72,10.19 -27.12,10.01" fill="white" stroke="white" stroke-width="0" stroke-linejoin="round" filter="url(#fuzzy)" />
    </g>
    <g transform="translate(-32.14 -25.5)">
      <polyline id="leftCountour" points="29.33,3.99 29.24,3.62 29.11,3.23 28.96,2.83 28.76,2.42 28.54,2 28.28,1.57 27.99,1.14 27.66,0.7 27.3,0.25 26.91,-0.2 26.48,-0.66 26.02,-1.12 25.53,-1.58 25,-2.04 24.44,-2.51 24,-3.03 23.5,-3.57 22.94,-4.1 22.32,-4.64 21.64,-5.18 20.92,-5.72 20.14,-6.26 19.31,-6.78 18.44,-7.3 17.52,-7.81 16.56,-8.3 15.57,-8.78 14.55,-9.25 13.49,-9.69 12.41,-10.11 11.31,-10.51 10.19,-10.89 9.06,-11.24 7.92,-11.56 6.76,-11.86 5.61,-12.13 4.45,-12.36 3.3,-12.57 2.15,-12.74 1.02,-12.89 -0.11,-13 -1.22,-13.08 -2.31,-13.12 -3.39,-13.13 -4.44,-13.12 -5.46,-13.06 -6.46,-12.98 -7.44,-12.87 -8.38,-12.73 -9.29,-12.55 -10.18,-12.35 -11.03,-12.13 -11.84,-11.88 -12.63,-11.6 -13.38,-11.3 -14.1,-10.98 -14.78,-10.64 -15.43,-10.29 -16.05,-9.91 -16.64,-9.53 -17.2,-9.13 -17.74,-8.72 -18.24,-8.3 -18.72,-7.88 -19.18,-7.46 -19.61,-7.03 -20.02,-6.59 -20.41,-6.14 -20.77,-5.69 -21.11,-5.23 -21.43,-4.77 -21.73,-4.31 -22.01,-3.84 -22.27,-3.38 -22.51,-2.91 -22.73,-2.44 -22.94,-1.98 -23.13,-1.51 -23.3,-1.05 -21.05,9.58 -20.78,9.7 -20.5,9.82 -20.21,9.95 -19.91,10.07 -19.6,10.19 -19.28,10.31 -18.95,10.43 -18.6,10.54 -18.25,10.66 -17.88,10.78 -17.51,10.89 -17.12,11 -16.72,11.11 -16.3,11.22 -15.88,11.32 -15.44,11.43 -14.98,11.53 -14.51,11.63 -14.03,11.73 -13.53,11.83 -13.02,11.92 -12.49,12.02 -11.94,12.1 -11.37,12.19 -10.79,12.27 -10.2,12.35 -9.58,12.42 -8.95,12.49 -8.3,12.55 -7.64,12.61 -6.96,12.67 -6.27,12.71 -5.56,12.76 -4.83,12.79 -4.1,12.82 -3.34,12.85 -2.58,12.87 -1.8,12.88 -1.02,12.89 -0.22,12.89 0.59,12.88 1.4,12.87 2.23,12.85 3.05,12.82 3.89,12.79 4.73,12.74 5.57,12.7 6.41,12.64 7.25,12.58 8.09,12.52 8.93,12.44 9.76,12.36 10.59,12.27 11.42,12.18 12.23,12.08 13.04,11.98 13.83,11.87 14.62,11.75 15.39,11.63 16.15,11.5 16.89,11.37 17.61,11.23 18.32,11.09 19.01,10.95 19.65,10.82 20.27,10.69 20.88,10.55 21.48,10.41 22.07,10.27 22.64,10.12 23.2,9.97 23.75,9.81 24.28,9.64 24.8,9.48 25.3,9.3 25.78,9.13 26.24,8.94 26.69,8.76 27.11,8.56" fill="white" stroke="white" stroke-width="0" stroke-linejoin="round" filter="url(#fuzzy)" />
    </g>
    <g transform="translate(39.11 -27.16)">
      <polyline id="rightUpper" points="-28.33,8.66 -28.48,8.45 -28.6,8.22 -28.71,7.97 -28.79,7.71 -28.85,7.43 -28.89,7.14 -28.9,6.83 -28.89,6.51 -28.84,6.18 -28.77,5.83 -28.67,5.46 -28.53,5.08 -28.37,4.69 -28.17,4.28 -27.94,3.86 -27.67,3.43 -27.38,2.99 -27.05,2.53 -26.68,2.07 -26.28,1.59 -25.85,1.11 -25.39,0.62 -24.9,0.12 -24.37,-0.38 -23.81,-0.89 -23.37,-1.41 -22.86,-1.96 -22.3,-2.52 -21.68,-3.09 -21,-3.67 -20.28,-4.27 -19.5,-4.87 -18.68,-5.47 -17.81,-6.07 -16.9,-6.67 -15.95,-7.26 -14.96,-7.85 -13.95,-8.42 -12.9,-8.98 -11.83,-9.53 -10.74,-10.05 -9.63,-10.56 -8.51,-11.04 -7.38,-11.49 -6.24,-11.92 -5.09,-12.31 -3.94,-12.68 -2.8,-13.01 -1.66,-13.31 -0.54,-13.57 0.58,-13.8 1.68,-13.98 2.77,-14.14 3.83,-14.25 4.88,-14.33 5.9,-14.36 6.89,-14.36 7.86,-14.32 8.8,-14.25 9.71,-14.14 10.59,-13.99 11.44,-13.81 12.26,-13.6 13.04,-13.35 13.79,-13.08 14.51,-12.78 15.2,-12.45 15.85,-12.09 16.48,-11.72 17.07,-11.33 17.64,-10.91 18.17,-10.49 18.68,-10.05 19.17,-9.6 19.63,-9.15 20.07,-8.69 20.48,-8.21 20.87,-7.73 21.24,-7.23 21.59,-6.73 21.91,-6.21 22.22,-5.7 22.5,-5.18 22.77,-4.65 23.01,-4.12 23.24,-3.59 23.45,-3.06 23.65,-2.53 23.83,-2.01 24,-1.48 24.15,-0.96 24.29,-0.44 24.41,0.07 24.53,0.58 24.63,1.09 24.72,1.59 24.8,2.08 24.87,2.56 24.93,3.04" fill="none" stroke="black" stroke-width="1.6666666666666665" stroke-linejoin="round" filter="url(#fuzzy)" />
      <polyline id="rightLower" points="-29.94,8.06 -29.76,8.27 -29.55,8.48 -29.32,8.68 -29.06,8.88 -28.79,9.08 -28.5,9.27 -28.18,9.46 -27.85,9.65 -27.49,9.83 -27.12,10.01 -26.72,10.19 -26.31,10.36 -25.88,10.52 -25.43,10.69 -24.96,10.84 -24.48,11 -23.98,11.15 -23.46,11.29 -22.93,11.43 -22.38,11.56 -21.82,11.69 -21.25,11.82 -20.66,11.94 -20.06,12.06 -19.44,12.17 -18.79,12.31 -18.12,12.44 -17.43,12.57 -16.71,12.69 -15.98,12.8 -15.23,12.91 -14.47,13.01 -13.69,13.1 -12.9,13.19 -12.09,13.26 -11.27,13.34 -10.45,13.4 -9.61,13.45 -8.77,13.5 -7.92,13.54 -7.07,13.58 -6.22,13.6 -5.36,13.62 -4.51,13.64 -3.66,13.64 -2.81,13.64 -1.96,13.63 -1.12,13.62 -0.29,13.6 0.54,13.57 1.35,13.54 2.16,13.5 2.95,13.45 3.74,13.4 4.51,13.35 5.27,13.29 6.01,13.22 6.74,13.15 7.46,13.07 8.15,13 8.84,12.91 9.5,12.83 10.15,12.73 10.78,12.64 11.4,12.54 11.99,12.44 12.58,12.34 13.14,12.23 13.69,12.13 14.22,12.02 14.73,11.9 15.23,11.79 15.71,11.67 16.18,11.55 16.63,11.44 17.08,11.32 17.5,11.19 17.92,11.07 18.32,10.94 18.71,10.82 19.09,10.69 19.46,10.56 19.81,10.42 20.15,10.29 20.48,10.15 20.81,10.02 21.12,9.88 21.41,9.74 21.7,9.6 21.98,9.46 22.25,9.31 22.51,9.17 22.77,9.03 23.01,8.88 23.24,8.73 23.47,8.59 23.68,8.44 23.89,8.29 24.09,8.14" fill="none" stroke="black" stroke-width="2.2222222222222223" stroke-linejoin="round" filter="url(#fuzzy)" />
      <circle r="3.484" cx="-9.85661315705876" cy="3.326653128659192" stroke="black" fill="none" stroke-width="1.0" filter="url(#fuzzy)" clip-path="url(#rightEyeClipPath)" /><circle r="3.182" cx="-10.821613157058758" cy="1.3666531286591912" stroke="black" fill="none" stroke-width="1.0" filter="url(#fuzzy)" clip-path="url(#rightEyeClipPath)" /><circle r="3.706" cx="-14.156613157058759" cy="-0.7033468713408086" stroke="black" fill="none" stroke-width="1.0" filter="url(#fuzzy)" clip-path="url(#rightEyeClipPath)" /><circle r="4.41" cx="-10.936613157058758" cy="2.2816531286591903" stroke="black" fill="none" stroke-width="1.0" filter="url(#fuzzy)" clip-path="url(#rightEyeClipPath)" /><circle r="4.082" cx="-12.266613157058758" cy="3.7766531286591913" stroke="black" fill="none" stroke-width="1.0" filter="url(#fuzzy)" clip-path="url(#rightEyeClipPath)" /><circle r="3.592" cx="-10.05661315705876" cy="1.1316531286591913" stroke="black" fill="none" stroke-width="1.0" filter="url(#fuzzy)" clip-path="url(#rightEyeClipPath)" /><circle r="3.638" cx="-11.291613157058759" cy="0.09165312865919129" stroke="black" fill="none" stroke-width="1.0" filter="url(#fuzzy)" clip-path="url(#rightEyeClipPath)" /><circle r="3.634" cx="-12.901613157058758" cy="1.0116531286591912" stroke="black" fill="none" stroke-width="1.0" filter="url(#fuzzy)" clip-path="url(#rightEyeClipPath)" /><circle r="4.396" cx="-10.68161315705876" cy="0.2616531286591912" stroke="black" fill="none" stroke-width="1.0" filter="url(#fuzzy)" clip-path="url(#rightEyeClipPath)" /><circle r="4.814" cx="-13.871613157058759" cy="3.4316531286591907" stroke="black" fill="none" stroke-width="1.0" filter="url(#fuzzy)" clip-path="url(#rightEyeClipPath)" />
      </g>
    <g transform="translate(-32.14 -25.5)">
      <polyline id="leftUpper" points="28.79,6.91 28.94,6.7 29.08,6.46 29.19,6.21 29.29,5.94 29.36,5.66 29.41,5.36 29.44,5.04 29.43,4.7 29.4,4.35 29.33,3.99 29.24,3.62 29.11,3.23 28.96,2.83 28.76,2.42 28.54,2 28.28,1.57 27.99,1.14 27.66,0.7 27.3,0.25 26.91,-0.2 26.48,-0.66 26.02,-1.12 25.53,-1.58 25,-2.04 24.44,-2.51 24,-3.03 23.5,-3.57 22.94,-4.1 22.32,-4.64 21.64,-5.18 20.92,-5.72 20.14,-6.26 19.31,-6.78 18.44,-7.3 17.52,-7.81 16.56,-8.3 15.57,-8.78 14.55,-9.25 13.49,-9.69 12.41,-10.11 11.31,-10.51 10.19,-10.89 9.06,-11.24 7.92,-11.56 6.76,-11.86 5.61,-12.13 4.45,-12.36 3.3,-12.57 2.15,-12.74 1.02,-12.89 -0.11,-13 -1.22,-13.08 -2.31,-13.12 -3.39,-13.13 -4.44,-13.12 -5.46,-13.06 -6.46,-12.98 -7.44,-12.87 -8.38,-12.73 -9.29,-12.55 -10.18,-12.35 -11.03,-12.13 -11.84,-11.88 -12.63,-11.6 -13.38,-11.3 -14.1,-10.98 -14.78,-10.64 -15.43,-10.29 -16.05,-9.91 -16.64,-9.53 -17.2,-9.13 -17.74,-8.72 -18.24,-8.3 -18.72,-7.88 -19.18,-7.46 -19.61,-7.03 -20.02,-6.59 -20.41,-6.14 -20.77,-5.69 -21.11,-5.23 -21.43,-4.77 -21.73,-4.31 -22.01,-3.84 -22.27,-3.38 -22.51,-2.91 -22.73,-2.44 -22.94,-1.98 -23.13,-1.51 -23.3,-1.05 -23.47,-0.59 -23.61,-0.14 -23.75,0.31 -23.87,0.75 -23.98,1.19 -24.07,1.63 -24.16,2.06 -24.24,2.48 -24.31,2.89 -24.37,3.3" fill="none" stroke="black" stroke-width="2.2222222222222223" stroke-linejoin="round" filter="url(#fuzzy)" />
      <polyline id="leftLower" points="30.22,6.35 30.02,6.6 29.78,6.84 29.53,7.07 29.25,7.3 28.95,7.52 28.62,7.74 28.28,7.96 27.91,8.16 27.52,8.37 27.11,8.56 26.69,8.76 26.24,8.94 25.78,9.13 25.3,9.3 24.8,9.48 24.28,9.64 23.75,9.81 23.2,9.97 22.64,10.12 22.07,10.27 21.48,10.41 20.88,10.55 20.27,10.69 19.65,10.82 19.01,10.95 18.32,11.09 17.61,11.23 16.89,11.37 16.15,11.5 15.39,11.63 14.62,11.75 13.83,11.87 13.04,11.98 12.23,12.08 11.42,12.18 10.59,12.27 9.76,12.36 8.93,12.44 8.09,12.52 7.25,12.58 6.41,12.64 5.57,12.7 4.73,12.74 3.89,12.79 3.05,12.82 2.23,12.85 1.4,12.87 0.59,12.88 -0.22,12.89 -1.02,12.89 -1.8,12.88 -2.58,12.87 -3.34,12.85 -4.1,12.82 -4.83,12.79 -5.56,12.76 -6.27,12.71 -6.96,12.67 -7.64,12.61 -8.3,12.55 -8.95,12.49 -9.58,12.42 -10.2,12.35 -10.79,12.27 -11.37,12.19 -11.94,12.1 -12.49,12.02 -13.02,11.92 -13.53,11.83 -14.03,11.73 -14.51,11.63 -14.98,11.53 -15.44,11.43 -15.88,11.32 -16.3,11.22 -16.72,11.11 -17.12,11 -17.51,10.89 -17.88,10.78 -18.25,10.66 -18.6,10.54 -18.95,10.43 -19.28,10.31 -19.6,10.19 -19.91,10.07 -20.21,9.95 -20.5,9.82 -20.78,9.7 -21.05,9.58 -21.32,9.45 -21.57,9.33 -21.81,9.2 -22.05,9.08 -22.28,8.95 -22.49,8.83 -22.71,8.7 -22.91,8.57 -23.11,8.45 -23.29,8.32" fill="none" stroke="black" stroke-width="2.2222222222222223" stroke-linejoin="round" filter="url(#fuzzy)" />
      <circle r="4.274" cx="-10.97235206675698" cy="2.5666901715305306" stroke="black" fill="none" stroke-width="1.0" filter="url(#fuzzy)" clip-path="url(#leftEyeClipPath)" /><circle r="3.084" cx="-13.057352066756978" cy="7.02169017153053" stroke="black" fill="none" stroke-width="1.0" filter="url(#fuzzy)" clip-path="url(#leftEyeClipPath)" /><circle r="3.15" cx="-13.897352066756978" cy="4.80669017153053" stroke="black" fill="none" stroke-width="1.0" filter="url(#fuzzy)" clip-path="url(#leftEyeClipPath)" /><circle r="4.848" cx="-9.677352066756978" cy="6.04669017153053" stroke="black" fill="none" stroke-width="1.0" filter="url(#fuzzy)" clip-path="url(#leftEyeClipPath)" /><circle r="3.004" cx="-12.207352066756979" cy="5.9466901715305305" stroke="black" fill="none" stroke-width="1.0" filter="url(#fuzzy)" clip-path="url(#leftEyeClipPath)" /><circle r="3.802" cx="-14.367352066756979" cy="2.7766901715305305" stroke="black" fill="none" stroke-width="1.0" filter="url(#fuzzy)" clip-path="url(#leftEyeClipPath)" /><circle r="3.588" cx="-12.412352066756979" cy="2.9866901715305305" stroke="black" fill="none" stroke-width="1.0" filter="url(#fuzzy)" clip-path="url(#leftEyeClipPath)" /><circle r="3.6959999999999997" cx="-10.967352066756979" cy="5.86669017153053" stroke="black" fill="none" stroke-width="1.0" filter="url(#fuzzy)" clip-path="url(#leftEyeClipPath)" /><circle r="4.416" cx="-14.202352066756978" cy="2.80169017153053" stroke="black" fill="none" stroke-width="1.0" filter="url(#fuzzy)" clip-path="url(#leftEyeClipPath)" /><circle r="3.426" cx="-12.227352066756978" cy="5.86169017153053" stroke="black" fill="none" stroke-width="1.0" filter="url(#fuzzy)" clip-path="url(#leftEyeClipPath)" />
    </g>
    <g id="hairs">
      <polyline points="39.11,-70.65 45.38,-55.1 37.89,-59.37 26.27,-69.29 18.27,-76.12 15.38,-78.15 15.15,-77.65 14.56,-77.38 11.98,-78.44 7.69,-79.9 3.55,-80.03 2.85,-77.72 9.6,-72.81 24.98,-65.98 41.17,-60.31 43.39,-64.06" fill="none" stroke="rgb(128, 128, 128)" stroke-width="2" stroke-linejoin="round" filter="url(#fuzzy)" /><polyline points="10.22,-92.81 13.92,-85.99 15.28,-79.73 23.01,-71.15 30.69,-64.85 34.52,-63.33 34.29,-65.65 30.85,-69.6 24.81,-73.38 16.92,-76.16 8.79,-77.89 2.98,-79.02 1.81,-79.95 5.69,-80.81 12.02,-81.46 16.03,-81.82 13.83,-81.6 6.93,-78.8 8.26,-68.07 52.95,-42.31" fill="none" stroke="rgb(128, 128, 128)" stroke-width="2" stroke-linejoin="round" filter="url(#fuzzy)" /><polyline points="12.81,-92.09 30.69,-72.14 32.21,-65.85 25.96,-68.07 18.67,-72.78 13.99,-77.29 12.55,-80.64 12.75,-82.58 12.34,-83.2 10,-82.64 5.93,-80.97 1.54,-78.32 -1.49,-75.03 -2.19,-71.72 -0.66,-69.04 2.06,-67.42 4.7,-66.97 6.3,-67.61 6.59,-69.2 5.79,-71.52 4.32,-74.16 3.57,-76.3 8.17,-75.88 25.87,-67.61 52.95,-42.31" fill="none" stroke="rgb(128, 128, 128)" stroke-width="2" stroke-linejoin="round" filter="url(#fuzzy)" /><polyline points="7.54,-93.55 11.49,-91.11 11.63,-89.33 10.82,-87.76 11.6,-84.52 13.94,-79.19 16.9,-72.98 19.24,-67.89 19.74,-65.47 17.98,-65.92 14.67,-68.02 11.2,-70 8.6,-70.81 6.91,-70.7 5.66,-70.84 4.87,-72.2 5.36,-74.58 7.63,-76.63 10.59,-76.88 12.67,-74.6 16.28,-69.67 29.74,-62.49 46.45,-58.69" fill="none" stroke="rgb(128, 128, 128)" stroke-width="2" stroke-linejoin="round" filter="url(#fuzzy)" /><polyline points="43.11,-64.86 9.57,-71.76 2.85,-70.76 0.19,-69.32 -0.22,-68.74 2.52,-68.55 7.64,-68.57 12.46,-69.07 14.36,-70.18 12.65,-71.55 9.01,-72.58 6.12,-72.86 5.87,-72.54 8.21,-72.14 11.35,-72.25 13.18,-72.98 12.56,-73.92 9.74,-74.51 6.05,-74.84 3.56,-75.75 4.82,-77.77 10.07,-79.73 9.54,-80.54 -23.61,-86.52" fill="none" stroke="rgb(128, 128, 128)" stroke-width="2" stroke-linejoin="round" filter="url(#fuzzy)" /><polyline points="25.12,-85.7 39.43,-63.89 36.97,-62.41 29.44,-64.82 23.46,-66.14 19.97,-66.31 17.7,-66.69 15.61,-68.19 13.23,-71.02 10.58,-74.87 8.07,-79.21 6.33,-83.33 5.92,-86.56 7.04,-88.46 9.45,-88.88 12.68,-87.98 16.15,-86.05 19.35,-83.36 22.19,-79.99 25.27,-76.12 28.91,-73.4 29.7,-76.81 21.57,-88.08" fill="none" stroke="rgb(128, 128, 128)" stroke-width="2" stroke-linejoin="round" filter="url(#fuzzy)" /><polyline points="0.88,-94.52 -3.39,-91.38 0.15,-85.78 8.15,-79.76 16.88,-74.26 23.72,-70.65 26.53,-69.81 24.35,-71.3 17.84,-73.84 9.31,-76.18 2.03,-77.53 -1.74,-77.61 -3.02,-76.26 -3.92,-72.35 3.99,-60.98 56.04,-30.78" fill="none" stroke="rgb(128, 128, 128)" stroke-width="2" stroke-linejoin="round" filter="url(#fuzzy)" /><polyline points="43.39,-64.06 15.56,-71.45 17.09,-73.12 17.07,-74.92 13.3,-76.22 9.4,-76.45 7.44,-75.44 7.2,-73.62 7.72,-71.96 8.56,-71.31 9.81,-71.89 11.35,-73.4 12.53,-75.42 12.59,-77.58 11.5,-79.56 10.2,-81.31 10.37,-83.51 15.21,-86.11 25.12,-85.7" fill="none" stroke="rgb(128, 128, 128)" stroke-width="2" stroke-linejoin="round" filter="url(#fuzzy)" /><polyline points="-22.99,-86.81 -4.52,-86.68 9.33,-83.64 15.53,-80.13 15.19,-77.05 10.6,-76.01 5.7,-77.57 3.6,-80.69 4.43,-83.59 5.79,-84.87 4.99,-84.3 1.26,-82.96 -3.16,-82.49 -3.53,-83.33 4.99,-82.51 24.46,-72.35 53.44,-41.26" fill="none" stroke="rgb(128, 128, 128)" stroke-width="2" stroke-linejoin="round" filter="url(#fuzzy)" /><polyline points="-35.99,-74.56 -18.39,-77.96 -8.35,-72.28 -2.39,-72.25 -1.99,-76.98 -4.41,-82.32 -6.73,-85.89 -7.34,-87.38 -5.56,-87.4 -1.32,-86.4 4.43,-84.42 9.42,-81.36 10.31,-77.51 3.99,-73.74 -10.12,-70.88 -27.54,-68.97 -39.23,-67.83 -40.6,-68.87" fill="none" stroke="rgb(128, 128, 128)" stroke-width="2" stroke-linejoin="round" filter="url(#fuzzy)" />
    </g>
    
        <g id="lineNose">
        <path d="M -8.44,16.43 Q 8.8, 11.955 0.1800000000000006, -4.800000000000001" fill="none" stroke="black" stroke-width="3" stroke-linejoin="round" filter="url(#fuzzy)"></path>
        </g>
      
    <g id="mouth">
      <polyline points="9.26,47.81 9.35,48.14 9.5,48.67 9.46,48.69 9.56,49.24 9.54,49.26 9.68,49.68 9.68,50.8 9.59,51.06 9.57,51.41 9.56,51.75 9.61,51.64 9.58,51.88 9.41,52.27 9.1,53.42 9.34,52.84 8.79,54.04 8.89,53.83 8.54,54.54 8.76,54.29 8.03,55.57 8.4,54.91 8.1,55.48 7.39,56.51 6.76,57.22 7.28,56.65 6.87,57.12 6.13,57.98 6.04,58.1 5.59,58.53 6.12,58.02 4.72,59.29 4.64,59.38 4.8,59.22 4,59.84 4.2,59.73 3.92,59.94 2.68,60.81 2.97,60.63 2.03,61.25 1.8,61.41 1.66,61.46 0.15,62.31 -0.28,62.5 -0.34,62.55 -1.01,62.85 -1.91,63.24 -1.27,62.96 -2.08,63.3 -1.8,63.19 -3.32,63.75 -3.4,63.77 -3.87,63.93 -4.46,64.1 -5.49,64.37 -6.14,64.52 -6.77,64.64 -6.99,64.68 -7.36,64.75 -7.86,64.82 -7.27,64.74 -8.37,64.89 -9.81,65 -9.58,65.01 -9.58,65 -10.7,65.05 -11.55,65.06 -12.37,65.04 -12.83,65 -11.89,65.04 -13.34,64.89 -14.5,64.78 -14.11,64.85 -14.63,64.73 -15.48,64.54 -15.03,64.61 -15.48,64.52 -16.22,64.34 -17.19,63.96 -17.05,64.08 -17.26,63.96 -18.31,63.47 -18.68,63.29 -18.33,63.54 -19.43,62.91 -19.53,62.73 -19.04,63.06 -19.68,62.75 -19.94,62.41 -19.95,62.4 -21.05,61.48 -20.96,61.65 -21.38,61.01 -21.1,61.34 -21.26,61.16 -21.38,60.97 -22.03,60.06 -22.2,59.76 -22,60.24 -22.16,59.72 -22.45,59.35 -22.58,58.7 -22.63,58.93 -22.77,58.06 -22.89,57.75 -22.87,56.84 -22.83,56.59 -22.88,56.26 -22.92,56.26 -22.96,56.58 -22.89,56.22 -22.7,55.06 -22.69,55.15 -22.41,54 -22.54,54.14 -22.49,54.1 -22.13,53.37 -22.07,53.13 -21.82,52.56 -21.82,52.64 -21.4,51.75 -21.58,52.16 -20.68,50.7 -21.17,51.45 -20.63,50.66 -20.16,50.09 -19.88,49.75 -19.22,49.08 -19.54,49.39 -19.46,49.28 -18.83,48.64 -18.12,48.01 -18.56,48.4 -17.26,47.3 -17.48,47.47 -17.39,47.38 -16.52,46.77 -16.38,46.67 -15.77,46.23 -14.89,45.69 -15.46,46.07 -14.01,45.19 -13.64,45.01 -13.5,44.93 -13.71,45.05 -12.15,44.3 -12.64,44.52 -11.29,43.93 -10.83,43.76 -11.14,43.88 -9.97,43.45 -9.63,43.34 -9.33,43.24 -7.93,42.85 -7.22,42.68 -7.05,42.65 -6.12,42.45 -5.89,42.43 -5.91,42.41 -4.71,42.27 -4.82,42.27 -3.69,42.17 -4.81,42.25 -2.54,42.07 -3.66,42.14 -3.15,42.1 -1.2,42.12 -2.16,42.07 -0.59,42.12 -0.78,42.13 0.54,42.28 -0.24,42.15 0.15,42.22 1.83,42.46 1.9,42.44 2.71,42.66 2.6,42.62 3.14,42.78 2.86,42.72 3.81,43.01 3.95,43.06 4.62,43.3 4.89,43.5 5.35,43.74 6.23,44.25 6.45,44.39 6.25,44.27 6.56,44.38 6.93,44.69 6.91,44.71 7.69,45.42 7.76,45.62 8.44,46.29 7.92,45.6 8.07,45.89 8.74,46.67 8.52,46.43 8.84,47.12 9.07,47.62 9.08,47.29" fill="rgb(215,127,140)" stroke="black" stroke-width="3" stroke-linejoin="round" filter="url(#fuzzy)" />
    </g>
  </svg>
  