
  <svg viewBox="-100 -100 200 200" xmlns="http://www.w3.org/2000/svg" width="500" height="500" id="face-svg">
    <defs>
      <clipPath id="leftEyeClipPath">
        <polyline points="35.73,-5.26 35.36,-5.82 34.95,-6.36 34.48,-6.87 33.98,-7.37 33.43,-7.85 32.85,-8.32 32.23,-8.76 31.58,-9.19 30.9,-9.6 30.19,-10 29.45,-10.38 28.69,-10.75 27.91,-11.1 27.1,-11.44 26.28,-11.77 25.29,-12.12 24.27,-12.46 23.24,-12.79 22.19,-13.11 21.13,-13.41 20.06,-13.7 18.98,-13.98 17.89,-14.25 16.79,-14.5 15.69,-14.74 14.59,-14.96 13.48,-15.17 12.38,-15.36 11.28,-15.55 10.19,-15.71 9.1,-15.87 8.01,-16 6.94,-16.13 5.87,-16.23 4.82,-16.33 3.77,-16.41 2.74,-16.47 1.72,-16.52 0.72,-16.56 -0.27,-16.58 -1.24,-16.59 -2.2,-16.58 -3.13,-16.57 -4.05,-16.53 -4.95,-16.49 -5.84,-16.43 -6.7,-16.36 -7.54,-16.28 -8.37,-16.19 -9.17,-16.09 -9.95,-15.98 -10.71,-15.85 -11.46,-15.72 -12.18,-15.58 -12.88,-15.44 -13.55,-15.28 -14.21,-15.12 -14.85,-14.95 -15.47,-14.78 -16.07,-14.6 -16.65,-14.41 -17.21,-14.23 -17.75,-14.04 -18.27,-13.85 -18.78,-13.65 -19.26,-13.46 -19.73,-13.26 -20.19,-13.06 -20.63,-12.85 -21.06,-12.65 -21.47,-12.44 -21.86,-12.23 -22.24,-12.02 -22.6,-11.81 -22.95,-11.6 -23.29,-11.38 -23.61,-11.17 -23.92,-10.96 -24.21,-10.74 -23.46,-3.59 -23.12,-3.21 -22.76,-2.82 -22.4,-2.43 -22.02,-2.02 -21.63,-1.6 -21.23,-1.17 -20.81,-0.73 -20.38,-0.29 -19.94,0.17 -19.48,0.64 -19.01,1.12 -18.53,1.61 -18.04,2.1 -17.53,2.61 -17.01,3.13 -16.47,3.65 -15.92,4.19 -15.35,4.74 -14.77,5.29 -14.17,5.86 -13.55,6.43 -12.92,7.01 -12.27,7.6 -11.6,8.2 -10.92,8.79 -10.23,9.4 -9.51,10 -8.79,10.6 -8.04,11.2 -7.28,11.8 -6.5,12.38 -5.71,12.96 -4.9,13.53 -4.08,14.09 -3.24,14.63 -2.38,15.15 -1.51,15.65 -0.63,16.13 0.27,16.58 1.18,17 2.11,17.39 3.05,17.75 4,18.07 4.97,18.35 5.94,18.58 6.93,18.78 7.93,18.92 8.94,19.01 9.96,19.06 10.99,19.04 12.03,18.98 13.07,18.85 14.12,18.66 15.17,18.42 16.23,18.11 17.29,17.74 18.35,17.31 19.41,16.81 20.47,16.25 21.52,15.63 22.57,14.95 23.61,14.2 24.65,13.4 25.67,12.55 26.49,12.04 27.29,11.5 28.08,10.94 28.85,10.35 29.6,9.73 30.32,9.1 31.03,8.45 31.7,7.78 32.35,7.09 32.97,6.4 33.55,5.69 34.1,4.97 34.61,4.26 35.07,3.54 35.5,2.82" />
      </clipPath>
      <clipPath id="rightEyeClipPath">
        <polyline points="-36.64,-3.45 -36.62,-3.94 -36.55,-4.42 -36.42,-4.89 -36.23,-5.35 -35.99,-5.8 -35.7,-6.23 -35.35,-6.66 -34.96,-7.07 -34.53,-7.47 -34.04,-7.86 -33.52,-8.24 -32.95,-8.61 -32.34,-8.97 -31.7,-9.32 -31.02,-9.66 -30.3,-10.04 -29.52,-10.41 -28.7,-10.78 -27.83,-11.13 -26.91,-11.47 -25.96,-11.8 -24.97,-12.12 -23.94,-12.43 -22.88,-12.72 -21.79,-13 -20.67,-13.27 -19.53,-13.52 -18.36,-13.76 -17.18,-13.98 -15.98,-14.19 -14.77,-14.38 -13.55,-14.55 -12.33,-14.71 -11.09,-14.85 -9.86,-14.97 -8.63,-15.08 -7.4,-15.17 -6.17,-15.24 -4.95,-15.29 -3.75,-15.33 -2.55,-15.35 -1.37,-15.35 -0.21,-15.33 0.94,-15.3 2.06,-15.25 3.17,-15.19 4.25,-15.11 5.31,-15.02 6.34,-14.91 7.35,-14.79 8.34,-14.65 9.29,-14.51 10.22,-14.35 11.12,-14.18 11.99,-14 12.83,-13.81 13.64,-13.61 14.43,-13.4 15.18,-13.19 15.91,-12.97 16.61,-12.74 17.29,-12.51 17.94,-12.28 18.56,-12.04 19.17,-11.8 19.74,-11.56 20.3,-11.32 20.83,-11.07 21.35,-10.82 21.84,-10.57 22.3,-10.31 22.75,-10.05 23.18,-9.79 23.59,-9.54 23.98,-9.28 24.34,-9.02 24.69,-8.76 25.03,-8.5 25.34,-8.24 23.53,0.09 23.15,0.44 22.77,0.8 22.37,1.16 21.97,1.53 21.56,1.9 21.14,2.28 20.72,2.67 20.29,3.06 19.85,3.45 19.41,3.85 18.96,4.26 18.51,4.66 18.05,5.08 17.59,5.49 17.12,5.91 16.65,6.33 16.16,6.76 15.67,7.19 15.17,7.63 14.67,8.06 14.15,8.5 13.64,8.94 13.11,9.38 12.59,9.82 12.05,10.26 11.51,10.69 10.97,11.12 10.41,11.54 9.85,11.95 9.29,12.35 8.71,12.75 8.13,13.13 7.54,13.5 6.94,13.85 6.32,14.19 5.7,14.5 5.06,14.8 4.41,15.08 3.75,15.33 3.07,15.55 2.37,15.76 1.66,15.93 0.92,16.07 0.17,16.18 -0.61,16.26 -1.41,16.31 -2.23,16.32 -3.07,16.29 -3.94,16.23 -4.84,16.13 -5.76,15.99 -6.72,15.81 -7.7,15.59 -8.7,15.33 -9.74,15.03 -10.8,14.68 -11.9,14.3 -13.02,13.87 -14.16,13.41 -15.34,12.9 -16.54,12.36 -17.76,11.78 -19,11.17 -20.26,10.52 -21.18,10.1 -22.11,9.65 -23.04,9.19 -23.96,8.72 -24.88,8.22 -25.79,7.72 -26.69,7.2 -27.58,6.67 -28.45,6.13 -29.31,5.58 -30.15,5.03 -30.96,4.47 -31.74,3.91 -32.49,3.35 -33.2,2.79" />
      </clipPath>
      <filter id="fuzzy">
        <feTurbulence id="turbulence" baseFrequency="0.05" numOctaves="3" type="noise" result="noise" />
        <feDisplacementMap in="SourceGraphic" in2="noise" scale="2" />
      </filter>
      <linearGradient id="rainbowGradient" x1="0%" y1="0%" x2="100%" y2="0%">
        <stop offset="0%" style="stop-color: rgb(44, 34, 43); stop-opacity: 1" />
        <stop offset="71.5%" style="stop-color: rgb(255, 20, 147); stop-opacity: 1" />
        <stop offset="100%" style="stop-color: rgb(50, 205, 50); stop-opacity: 1" />
      </linearGradient>
    </defs>
    <rect x="-100" y="-100" width="100%" height="100%" fill="rgb(85, 107, 47)" />
    <polyline id="faceContour" points="84.75,0.4 84.59,2.25 84.32,1.55 84.54,3.81 84.29,4.61 84.41,5.81 84.33,8.93 83.99,8.3 83.78,9.9 83.96,11.8 83.2,14.66 83.75,13.37 83.1,16.15 82.74,17.24 82.77,18.37 81.86,20.6 82.56,18.75 82.02,21.54 81.45,22.74 80.94,23.91 80.81,24.18 79.79,27.1 79.41,28.65 79.18,29.95 78.28,32.06 77.93,32.97 77.18,34.26 77.35,33.81 76.05,36.62 76.06,37.45 75.16,37.96 74.68,38.76 74.5,39.71 73.29,42.29 72.57,42.64 72.27,43.48 71.98,44.24 70.59,45.47 69.93,47.25 69.24,47.48 68.71,48.84 67.17,50.7 67.6,49.8 65.98,52.57 64.66,53.61 64.26,54.71 64.58,54.25 62.52,56.7 60.29,58.66 60.32,58.36 58.93,60.28 58.17,61.07 58.15,60.56 55.91,62.89 56.55,62.37 54.48,64.03 53.89,64.48 51.79,66.4 52.95,65.54 49.84,67.33 48.6,68.62 48.54,68.99 46.39,69.84 47.47,69.72 44.45,71.19 43.9,71.68 44.55,71.25 42.16,72.18 40.42,74.1 40.39,73.62 36.97,75.58 37.99,74.67 34.06,76.84 34.75,76.76 34.3,76.71 32.24,77.31 31.74,77.39 28.92,78.57 28.42,78.95 27.11,79.35 25.26,79.88 23.88,80.42 25.03,80.21 21.28,80.96 22.11,80.9 19.89,81.38 18.66,81.54 15.99,82.32 15.28,82.45 14.49,82.59 12.64,82.76 13.03,82.78 11.1,83.34 9.64,83.41 6.31,83.68 6.21,83.61 5.43,83.62 4.88,83.84 0.95,83.98 -0.14,83.9 -0.47,83.93 -2,83.96 -3.2,83.77 -2.61,83.63 -5.72,83.69 -5.66,83.49 -6.67,83.64 -8.1,83.41 -9.33,82.99 -9.65,83.36 -12.04,82.84 -15.81,82.1 -16.47,82.34 -18.74,81.73 -19.02,81.83 -18.77,81.47 -21.68,80.86 -22.46,80.61 -24.18,80.35 -24.09,80.2 -26.19,79.46 -27.41,79.2 -29.33,78.74 -30.2,78.41 -30.98,78 -32.87,77.41 -33.08,77.15 -34.22,76.87 -36.16,75.55 -36.49,75.64 -36.7,75.61 -39.14,74.1 -41.38,72.85 -41.68,73.08 -42.42,72.18 -45.19,70.9 -46.5,69.82 -47.23,69.12 -46.91,69.33 -48.2,68.95 -50.02,67.32 -52.02,65.91 -51.82,66.08 -53.53,64.81 -54.2,64.13 -55.11,63.44 -54.41,64.11 -57.67,61.12 -58.54,60.29 -58.75,60.16 -58.32,60.57 -61.46,57.34 -62.08,57.21 -62.84,56.2 -63.87,55.01 -63.78,55.36 -64.18,54.32 -65.5,53.33 -66.58,51.76 -68.35,48.81 -67.5,50.57 -69.37,47.98 -69.95,46.91 -70.66,45.74 -72.38,42.81 -71.74,44.09 -73.49,41.48 -72.92,41.83 -74.24,39.86 -74.16,40.49 -75.95,36.51 -75.77,37.25 -76.53,34.97 -77.6,33.37 -78.05,31.43 -78.84,30.04 -78.72,29.92 -78.58,31.31 -79.42,28.87 -80.42,26.01 -80.46,25.88 -80.66,25.52 -81.64,22.29 -81.32,22.45 -82.34,19.1 -82.03,19.47 -82.28,18.44 -82.59,17.12 -82.53,17.57 -83.18,14.99 -83.31,12.17 -83.23,12.74 -83.42,11.71 -83.88,9.48 -83.83,9.7 -84.2,7.31 -84.16,5.47 -84.59,3.23 -84.44,3.43 -84.35,-0.15 -84.35,-2 -84.48,-3.66 -84.5,-3.64 -84.44,-3.88 -84.18,-3.74 -84.26,-7.88 -84.18,-6 -83.97,-10.01 -83.67,-11.19 -83.56,-12.03 -83.15,-13.94 -83.09,-13.71 -82.86,-16.54 -82.37,-17.29 -82.64,-17.17 -82.22,-19.38 -81.94,-21.06 -81.72,-22.16 -81.23,-22.45 -80.58,-26 -80.22,-25.41 -80.07,-26.18 -79.9,-27.7 -78.72,-30.45 -78.59,-29.6 -78.42,-31.22 -77.11,-32.8 -77.62,-33.32 -76.09,-35.65 -75.55,-37.59 -75.74,-37.42 -74.94,-39.18 -74.39,-39.42 -73.76,-40.9 -72.59,-42.86 -72.93,-42.1 -71.65,-44.85 -70.01,-47.24 -69.26,-47.46 -69.27,-47.58 -68.14,-48.61 -67.24,-49.99 -66.66,-51.8 -66.9,-51.59 -64.15,-54.01 -65.36,-53.03 -63.34,-55.35 -63.12,-56.11 -60.98,-57.57 -61.65,-56.91 -59,-60 -57.7,-61.19 -56.2,-62.53 -57.25,-61.23 -55.66,-63.43 -54.77,-63.64 -53.86,-64.44 -52.49,-65.51 -51.94,-65.69 -50.68,-67.2 -50.74,-66.81 -48.28,-68.92 -47.13,-69.57 -47.16,-69.42 -44.67,-71.13 -44.72,-71.45 -43.26,-72.1 -41.52,-72.89 -41.1,-73.3 -40.82,-73.44 -37.16,-75.09 -37.78,-75.17 -37.68,-75.14 -34.69,-76.6 -32.88,-77.11 -32.71,-77.25 -31.02,-77.73 -29.57,-78.43 -28.09,-79.37 -26.54,-79.57 -27.55,-78.95 -24.34,-80.27 -23.42,-80.26 -23.81,-80.54 -22.02,-80.77 -20.48,-81.37 -17.01,-81.93 -16.91,-81.96 -16.09,-82.32 -14.74,-82.2 -12.92,-82.81 -11.75,-82.81 -9.82,-83.05 -8.51,-83.21 -7.63,-83.35 -8.03,-83.35 -4.66,-83.41 -3.08,-83.67 -1.5,-83.99 -1.17,-83.91 0.47,-83.97 2.48,-83.52 1.14,-84 4.03,-83.69 5.57,-83.39 6.33,-83.7 8.46,-83.24 9.22,-83.36 10.43,-82.92 12.38,-83.06 13.98,-82.54 14.52,-82.63 14.71,-82.37 15.04,-82.4 19.88,-81.59 20.86,-81.2 22,-81.07 20.43,-81.45 24.25,-80.52 25.41,-80.15 24.05,-80.44 29.4,-78.42 29.04,-78.65 28.54,-79.03 31.44,-77.66 32.38,-77.59 34.36,-76.74 35.17,-76.19 36.09,-75.73 36.57,-75.48 39.5,-74.39 39.91,-73.72 40.22,-73.58 42.01,-72.5 42.24,-72.76 44.6,-71.08 45.06,-71.05 47.3,-69.29 46.65,-69.74 48.29,-68.29 50.03,-67.96 51.58,-66.59 51.74,-66.18 53.39,-64.71 54.31,-64.26 55.58,-63 55.39,-63.34 58.32,-60.38 58.32,-60.59 58.26,-60.67 58.6,-60.49 60.08,-58.69 62.7,-55.99 61.34,-57.54 62.24,-56.63 64.18,-54.42 65.74,-52.17 66.07,-52.74 67.02,-51.33 66.85,-51.4 67.72,-50.12 68.75,-48.49 70.57,-46.28 71.21,-45.06 71.93,-44.18 72.02,-43.37 72.25,-43.29 72.94,-42.89 73.16,-42.01 74.4,-40.21 75.04,-38.89 75.41,-38.56 76.38,-36.23 76.74,-34.97 77.29,-33.2 77.91,-32.54 78.42,-31.97 79.91,-28.16 79.66,-27.86 80.15,-26.54 81.12,-23.67 81.54,-23.1 81.55,-23.17 81.24,-23.24 81.86,-21.3 82.14,-20.06 82.78,-16.94 82.9,-15.87 82.96,-15.74 83.54,-14.4 83.35,-13.46 83.87,-10.92 83.92,-10.69 84.25,-9.1 84.01,-8.32 84.13,-6.23 84.49,-4.73 84.4,-4.79 84.52,-2.65 84.77,-1.75 84.75,0.4 84.59,2.25" fill="rgb(255, 114, 86)" stroke="black" stroke-width="1.6666666666666665" stroke-linejoin="round" filter="url(#fuzzy)" />
    <g transform="translate(34.25 -21.15)">
      <polyline id="rightCountour" points="-36.64,-3.45 -36.62,-3.94 -36.55,-4.42 -36.42,-4.89 -36.23,-5.35 -35.99,-5.8 -35.7,-6.23 -35.35,-6.66 -34.96,-7.07 -34.53,-7.47 -34.04,-7.86 -33.52,-8.24 -32.95,-8.61 -32.34,-8.97 -31.7,-9.32 -31.02,-9.66 -30.3,-10.04 -29.52,-10.41 -28.7,-10.78 -27.83,-11.13 -26.91,-11.47 -25.96,-11.8 -24.97,-12.12 -23.94,-12.43 -22.88,-12.72 -21.79,-13 -20.67,-13.27 -19.53,-13.52 -18.36,-13.76 -17.18,-13.98 -15.98,-14.19 -14.77,-14.38 -13.55,-14.55 -12.33,-14.71 -11.09,-14.85 -9.86,-14.97 -8.63,-15.08 -7.4,-15.17 -6.17,-15.24 -4.95,-15.29 -3.75,-15.33 -2.55,-15.35 -1.37,-15.35 -0.21,-15.33 0.94,-15.3 2.06,-15.25 3.17,-15.19 4.25,-15.11 5.31,-15.02 6.34,-14.91 7.35,-14.79 8.34,-14.65 9.29,-14.51 10.22,-14.35 11.12,-14.18 11.99,-14 12.83,-13.81 13.64,-13.61 14.43,-13.4 15.18,-13.19 15.91,-12.97 16.61,-12.74 17.29,-12.51 17.94,-12.28 18.56,-12.04 19.17,-11.8 19.74,-11.56 20.3,-11.32 20.83,-11.07 21.35,-10.82 21.84,-10.57 22.3,-10.31 22.75,-10.05 23.18,-9.79 23.59,-9.54 23.98,-9.28 24.34,-9.02 24.69,-8.76 25.03,-8.5 25.34,-8.24 23.53,0.09 23.15,0.44 22.77,0.8 22.37,1.16 21.97,1.53 21.56,1.9 21.14,2.28 20.72,2.67 20.29,3.06 19.85,3.45 19.41,3.85 18.96,4.26 18.51,4.66 18.05,5.08 17.59,5.49 17.12,5.91 16.65,6.33 16.16,6.76 15.67,7.19 15.17,7.63 14.67,8.06 14.15,8.5 13.64,8.94 13.11,9.38 12.59,9.82 12.05,10.26 11.51,10.69 10.97,11.12 10.41,11.54 9.85,11.95 9.29,12.35 8.71,12.75 8.13,13.13 7.54,13.5 6.94,13.85 6.32,14.19 5.7,14.5 5.06,14.8 4.41,15.08 3.75,15.33 3.07,15.55 2.37,15.76 1.66,15.93 0.92,16.07 0.17,16.18 -0.61,16.26 -1.41,16.31 -2.23,16.32 -3.07,16.29 -3.94,16.23 -4.84,16.13 -5.76,15.99 -6.72,15.81 -7.7,15.59 -8.7,15.33 -9.74,15.03 -10.8,14.68 -11.9,14.3 -13.02,13.87 -14.16,13.41 -15.34,12.9 -16.54,12.36 -17.76,11.78 -19,11.17 -20.26,10.52 -21.18,10.1 -22.11,9.65 -23.04,9.19 -23.96,8.72 -24.88,8.22 -25.79,7.72 -26.69,7.2 -27.58,6.67 -28.45,6.13 -29.31,5.58 -30.15,5.03 -30.96,4.47 -31.74,3.91 -32.49,3.35 -33.2,2.79" fill="white" stroke="white" stroke-width="0" stroke-linejoin="round" filter="url(#fuzzy)" />
    </g>
    <g transform="translate(-54.54 -25.2)">
      <polyline id="leftCountour" points="35.73,-5.26 35.36,-5.82 34.95,-6.36 34.48,-6.87 33.98,-7.37 33.43,-7.85 32.85,-8.32 32.23,-8.76 31.58,-9.19 30.9,-9.6 30.19,-10 29.45,-10.38 28.69,-10.75 27.91,-11.1 27.1,-11.44 26.28,-11.77 25.29,-12.12 24.27,-12.46 23.24,-12.79 22.19,-13.11 21.13,-13.41 20.06,-13.7 18.98,-13.98 17.89,-14.25 16.79,-14.5 15.69,-14.74 14.59,-14.96 13.48,-15.17 12.38,-15.36 11.28,-15.55 10.19,-15.71 9.1,-15.87 8.01,-16 6.94,-16.13 5.87,-16.23 4.82,-16.33 3.77,-16.41 2.74,-16.47 1.72,-16.52 0.72,-16.56 -0.27,-16.58 -1.24,-16.59 -2.2,-16.58 -3.13,-16.57 -4.05,-16.53 -4.95,-16.49 -5.84,-16.43 -6.7,-16.36 -7.54,-16.28 -8.37,-16.19 -9.17,-16.09 -9.95,-15.98 -10.71,-15.85 -11.46,-15.72 -12.18,-15.58 -12.88,-15.44 -13.55,-15.28 -14.21,-15.12 -14.85,-14.95 -15.47,-14.78 -16.07,-14.6 -16.65,-14.41 -17.21,-14.23 -17.75,-14.04 -18.27,-13.85 -18.78,-13.65 -19.26,-13.46 -19.73,-13.26 -20.19,-13.06 -20.63,-12.85 -21.06,-12.65 -21.47,-12.44 -21.86,-12.23 -22.24,-12.02 -22.6,-11.81 -22.95,-11.6 -23.29,-11.38 -23.61,-11.17 -23.92,-10.96 -24.21,-10.74 -23.46,-3.59 -23.12,-3.21 -22.76,-2.82 -22.4,-2.43 -22.02,-2.02 -21.63,-1.6 -21.23,-1.17 -20.81,-0.73 -20.38,-0.29 -19.94,0.17 -19.48,0.64 -19.01,1.12 -18.53,1.61 -18.04,2.1 -17.53,2.61 -17.01,3.13 -16.47,3.65 -15.92,4.19 -15.35,4.74 -14.77,5.29 -14.17,5.86 -13.55,6.43 -12.92,7.01 -12.27,7.6 -11.6,8.2 -10.92,8.79 -10.23,9.4 -9.51,10 -8.79,10.6 -8.04,11.2 -7.28,11.8 -6.5,12.38 -5.71,12.96 -4.9,13.53 -4.08,14.09 -3.24,14.63 -2.38,15.15 -1.51,15.65 -0.63,16.13 0.27,16.58 1.18,17 2.11,17.39 3.05,17.75 4,18.07 4.97,18.35 5.94,18.58 6.93,18.78 7.93,18.92 8.94,19.01 9.96,19.06 10.99,19.04 12.03,18.98 13.07,18.85 14.12,18.66 15.17,18.42 16.23,18.11 17.29,17.74 18.35,17.31 19.41,16.81 20.47,16.25 21.52,15.63 22.57,14.95 23.61,14.2 24.65,13.4 25.67,12.55 26.49,12.04 27.29,11.5 28.08,10.94 28.85,10.35 29.6,9.73 30.32,9.1 31.03,8.45 31.7,7.78 32.35,7.09 32.97,6.4 33.55,5.69 34.1,4.97 34.61,4.26 35.07,3.54 35.5,2.82" fill="white" stroke="white" stroke-width="0" stroke-linejoin="round" filter="url(#fuzzy)" />
    </g>
    <g transform="translate(34.25 -21.15)">
      <polyline id="rightUpper" points="-33.09,2.2 -33.77,1.57 -34.38,0.96 -34.91,0.36 -35.36,-0.23 -35.75,-0.8 -36.06,-1.35 -36.3,-1.9 -36.48,-2.43 -36.59,-2.94 -36.64,-3.45 -36.62,-3.94 -36.55,-4.42 -36.42,-4.89 -36.23,-5.35 -35.99,-5.8 -35.7,-6.23 -35.35,-6.66 -34.96,-7.07 -34.53,-7.47 -34.04,-7.86 -33.52,-8.24 -32.95,-8.61 -32.34,-8.97 -31.7,-9.32 -31.02,-9.66 -30.3,-10.04 -29.52,-10.41 -28.7,-10.78 -27.83,-11.13 -26.91,-11.47 -25.96,-11.8 -24.97,-12.12 -23.94,-12.43 -22.88,-12.72 -21.79,-13 -20.67,-13.27 -19.53,-13.52 -18.36,-13.76 -17.18,-13.98 -15.98,-14.19 -14.77,-14.38 -13.55,-14.55 -12.33,-14.71 -11.09,-14.85 -9.86,-14.97 -8.63,-15.08 -7.4,-15.17 -6.17,-15.24 -4.95,-15.29 -3.75,-15.33 -2.55,-15.35 -1.37,-15.35 -0.21,-15.33 0.94,-15.3 2.06,-15.25 3.17,-15.19 4.25,-15.11 5.31,-15.02 6.34,-14.91 7.35,-14.79 8.34,-14.65 9.29,-14.51 10.22,-14.35 11.12,-14.18 11.99,-14 12.83,-13.81 13.64,-13.61 14.43,-13.4 15.18,-13.19 15.91,-12.97 16.61,-12.74 17.29,-12.51 17.94,-12.28 18.56,-12.04 19.17,-11.8 19.74,-11.56 20.3,-11.32 20.83,-11.07 21.35,-10.82 21.84,-10.57 22.3,-10.31 22.75,-10.05 23.18,-9.79 23.59,-9.54 23.98,-9.28 24.34,-9.02 24.69,-8.76 25.03,-8.5 25.34,-8.24 25.64,-7.98 25.91,-7.72 26.18,-7.47 26.42,-7.21 26.65,-6.96 26.87,-6.71 27.07,-6.46 27.26,-6.22 27.43,-5.98 27.59,-5.73" fill="none" stroke="black" stroke-width="1.6666666666666665" stroke-linejoin="round" filter="url(#fuzzy)" />
      <polyline id="rightLower" points="-37.38,-2.15 -37.29,-1.75 -37.1,-1.33 -36.84,-0.87 -36.5,-0.4 -36.09,0.1 -35.62,0.61 -35.09,1.14 -34.51,1.68 -33.88,2.23 -33.2,2.79 -32.49,3.35 -31.74,3.91 -30.96,4.47 -30.15,5.03 -29.31,5.58 -28.45,6.13 -27.58,6.67 -26.69,7.2 -25.79,7.72 -24.88,8.22 -23.96,8.72 -23.04,9.19 -22.11,9.65 -21.18,10.1 -20.26,10.52 -19,11.17 -17.76,11.78 -16.54,12.36 -15.34,12.9 -14.16,13.41 -13.02,13.87 -11.9,14.3 -10.8,14.68 -9.74,15.03 -8.7,15.33 -7.7,15.59 -6.72,15.81 -5.76,15.99 -4.84,16.13 -3.94,16.23 -3.07,16.29 -2.23,16.32 -1.41,16.31 -0.61,16.26 0.17,16.18 0.92,16.07 1.66,15.93 2.37,15.76 3.07,15.55 3.75,15.33 4.41,15.08 5.06,14.8 5.7,14.5 6.32,14.19 6.94,13.85 7.54,13.5 8.13,13.13 8.71,12.75 9.29,12.35 9.85,11.95 10.41,11.54 10.97,11.12 11.51,10.69 12.05,10.26 12.59,9.82 13.11,9.38 13.64,8.94 14.15,8.5 14.67,8.06 15.17,7.63 15.67,7.19 16.16,6.76 16.65,6.33 17.12,5.91 17.59,5.49 18.05,5.08 18.51,4.66 18.96,4.26 19.41,3.85 19.85,3.45 20.29,3.06 20.72,2.67 21.14,2.28 21.56,1.9 21.97,1.53 22.37,1.16 22.77,0.8 23.15,0.44 23.53,0.09 23.9,-0.26 24.27,-0.6 24.62,-0.94 24.97,-1.27 25.3,-1.59 25.63,-1.91 25.95,-2.22 26.26,-2.53 26.56,-2.83 26.85,-3.13" fill="none" stroke="black" stroke-width="2.2222222222222223" stroke-linejoin="round" filter="url(#fuzzy)" />
      <circle r="3.958" cx="3.854875190901959" cy="-0.022387336127918545" stroke="black" fill="none" stroke-width="1.0" filter="url(#fuzzy)" clip-path="url(#rightEyeClipPath)" /><circle r="3.306" cx="6.319875190901959" cy="-3.257387336127919" stroke="black" fill="none" stroke-width="1.0" filter="url(#fuzzy)" clip-path="url(#rightEyeClipPath)" /><circle r="3.988" cx="5.479875190901959" cy="-1.4873873361279193" stroke="black" fill="none" stroke-width="1.0" filter="url(#fuzzy)" clip-path="url(#rightEyeClipPath)" /><circle r="3.942" cx="4.799875190901958" cy="0.08761266387208089" stroke="black" fill="none" stroke-width="1.0" filter="url(#fuzzy)" clip-path="url(#rightEyeClipPath)" /><circle r="4.712" cx="4.384875190901958" cy="-0.5973873361279187" stroke="black" fill="none" stroke-width="1.0" filter="url(#fuzzy)" clip-path="url(#rightEyeClipPath)" /><circle r="3.45" cx="6.32487519090196" cy="0.21761266387208167" stroke="black" fill="none" stroke-width="1.0" filter="url(#fuzzy)" clip-path="url(#rightEyeClipPath)" /><circle r="4.164" cx="7.44987519090196" cy="-0.5623873361279186" stroke="black" fill="none" stroke-width="1.0" filter="url(#fuzzy)" clip-path="url(#rightEyeClipPath)" /><circle r="4.7" cx="6.254875190901959" cy="-2.302387336127919" stroke="black" fill="none" stroke-width="1.0" filter="url(#fuzzy)" clip-path="url(#rightEyeClipPath)" /><circle r="4.9399999999999995" cx="6.554875190901958" cy="-3.632387336127919" stroke="black" fill="none" stroke-width="1.0" filter="url(#fuzzy)" clip-path="url(#rightEyeClipPath)" /><circle r="4.884" cx="5.079875190901959" cy="-1.0523873361279188" stroke="black" fill="none" stroke-width="1.0" filter="url(#fuzzy)" clip-path="url(#rightEyeClipPath)" />
      </g>
    <g transform="translate(-54.54 -25.2)">
      <polyline id="leftUpper" points="36.18,1.57 36.45,0.77 36.64,0 36.75,-0.74 36.8,-1.46 36.77,-2.15 36.68,-2.82 36.53,-3.46 36.32,-4.09 36.05,-4.68 35.73,-5.26 35.36,-5.82 34.95,-6.36 34.48,-6.87 33.98,-7.37 33.43,-7.85 32.85,-8.32 32.23,-8.76 31.58,-9.19 30.9,-9.6 30.19,-10 29.45,-10.38 28.69,-10.75 27.91,-11.1 27.1,-11.44 26.28,-11.77 25.29,-12.12 24.27,-12.46 23.24,-12.79 22.19,-13.11 21.13,-13.41 20.06,-13.7 18.98,-13.98 17.89,-14.25 16.79,-14.5 15.69,-14.74 14.59,-14.96 13.48,-15.17 12.38,-15.36 11.28,-15.55 10.19,-15.71 9.1,-15.87 8.01,-16 6.94,-16.13 5.87,-16.23 4.82,-16.33 3.77,-16.41 2.74,-16.47 1.72,-16.52 0.72,-16.56 -0.27,-16.58 -1.24,-16.59 -2.2,-16.58 -3.13,-16.57 -4.05,-16.53 -4.95,-16.49 -5.84,-16.43 -6.7,-16.36 -7.54,-16.28 -8.37,-16.19 -9.17,-16.09 -9.95,-15.98 -10.71,-15.85 -11.46,-15.72 -12.18,-15.58 -12.88,-15.44 -13.55,-15.28 -14.21,-15.12 -14.85,-14.95 -15.47,-14.78 -16.07,-14.6 -16.65,-14.41 -17.21,-14.23 -17.75,-14.04 -18.27,-13.85 -18.78,-13.65 -19.26,-13.46 -19.73,-13.26 -20.19,-13.06 -20.63,-12.85 -21.06,-12.65 -21.47,-12.44 -21.86,-12.23 -22.24,-12.02 -22.6,-11.81 -22.95,-11.6 -23.29,-11.38 -23.61,-11.17 -23.92,-10.96 -24.21,-10.74 -24.49,-10.53 -24.75,-10.32 -25,-10.11 -25.24,-9.9 -25.47,-9.69 -25.68,-9.48 -25.88,-9.27 -26.07,-9.06 -26.24,-8.86 -26.41,-8.65" fill="none" stroke="black" stroke-width="2.2222222222222223" stroke-linejoin="round" filter="url(#fuzzy)" />
      <polyline id="leftLower" points="36.56,-3.23 36.77,-2.79 36.89,-2.29 36.94,-1.76 36.92,-1.18 36.83,-0.57 36.68,0.07 36.47,0.74 36.2,1.42 35.87,2.12 35.5,2.82 35.07,3.54 34.61,4.26 34.1,4.97 33.55,5.69 32.97,6.4 32.35,7.09 31.7,7.78 31.03,8.45 30.32,9.1 29.6,9.73 28.85,10.35 28.08,10.94 27.29,11.5 26.49,12.04 25.67,12.55 24.65,13.4 23.61,14.2 22.57,14.95 21.52,15.63 20.47,16.25 19.41,16.81 18.35,17.31 17.29,17.74 16.23,18.11 15.17,18.42 14.12,18.66 13.07,18.85 12.03,18.98 10.99,19.04 9.96,19.06 8.94,19.01 7.93,18.92 6.93,18.78 5.94,18.58 4.97,18.35 4,18.07 3.05,17.75 2.11,17.39 1.18,17 0.27,16.58 -0.63,16.13 -1.51,15.65 -2.38,15.15 -3.24,14.63 -4.08,14.09 -4.9,13.53 -5.71,12.96 -6.5,12.38 -7.28,11.8 -8.04,11.2 -8.79,10.6 -9.51,10 -10.23,9.4 -10.92,8.79 -11.6,8.2 -12.27,7.6 -12.92,7.01 -13.55,6.43 -14.17,5.86 -14.77,5.29 -15.35,4.74 -15.92,4.19 -16.47,3.65 -17.01,3.13 -17.53,2.61 -18.04,2.1 -18.53,1.61 -19.01,1.12 -19.48,0.64 -19.94,0.17 -20.38,-0.29 -20.81,-0.73 -21.23,-1.17 -21.63,-1.6 -22.02,-2.02 -22.4,-2.43 -22.76,-2.82 -23.12,-3.21 -23.46,-3.59 -23.78,-3.96 -24.1,-4.32 -24.4,-4.67 -24.69,-5.01 -24.97,-5.35 -25.23,-5.67 -25.49,-5.99 -25.73,-6.3 -25.96,-6.6 -26.18,-6.9" fill="none" stroke="black" stroke-width="2.2222222222222223" stroke-linejoin="round" filter="url(#fuzzy)" />
      <circle r="4.112" cx="-7.830951333955344" cy="-7.159279778736932" stroke="black" fill="none" stroke-width="1.0" filter="url(#fuzzy)" clip-path="url(#leftEyeClipPath)" /><circle r="3.082" cx="-9.480951333955343" cy="-6.399279778736933" stroke="black" fill="none" stroke-width="1.0" filter="url(#fuzzy)" clip-path="url(#leftEyeClipPath)" /><circle r="3.616" cx="-11.775951333955344" cy="-6.094279778736933" stroke="black" fill="none" stroke-width="1.0" filter="url(#fuzzy)" clip-path="url(#leftEyeClipPath)" /><circle r="4.082" cx="-11.730951333955344" cy="-6.029279778736933" stroke="black" fill="none" stroke-width="1.0" filter="url(#fuzzy)" clip-path="url(#leftEyeClipPath)" /><circle r="4.172" cx="-10.785951333955344" cy="-5.119279778736933" stroke="black" fill="none" stroke-width="1.0" filter="url(#fuzzy)" clip-path="url(#leftEyeClipPath)" /><circle r="3.122" cx="-11.270951333955344" cy="-5.044279778736933" stroke="black" fill="none" stroke-width="1.0" filter="url(#fuzzy)" clip-path="url(#leftEyeClipPath)" /><circle r="4.758" cx="-11.625951333955344" cy="-6.504279778736933" stroke="black" fill="none" stroke-width="1.0" filter="url(#fuzzy)" clip-path="url(#leftEyeClipPath)" /><circle r="3.092" cx="-7.825951333955344" cy="-4.869279778736933" stroke="black" fill="none" stroke-width="1.0" filter="url(#fuzzy)" clip-path="url(#leftEyeClipPath)" /><circle r="3.332" cx="-7.335951333955343" cy="-7.774279778736933" stroke="black" fill="none" stroke-width="1.0" filter="url(#fuzzy)" clip-path="url(#leftEyeClipPath)" /><circle r="3.914" cx="-9.050951333955343" cy="-8.999279778736934" stroke="black" fill="none" stroke-width="1.0" filter="url(#fuzzy)" clip-path="url(#leftEyeClipPath)" />
    </g>
    <g id="hairs">
      <polyline points="42.01,-72.5 42.85,-72.17 44.18,-71.33 45.56,-70.38 46.91,-69.4 48.26,-68.4 49.65,-67.37 51.06,-66.32 52.44,-65.26 53.73,-64.23 54.92,-63.27 55.96,-62.4 56.86,-61.65 57.59,-61.04 58.14,-60.59 58.49,-60.31 58.67,-60.18 58.67,-60.18 58.5,-60.33 58.1,-60.68 57.39,-61.31 56.35,-62.25 55.03,-63.41" fill="none" stroke="url(#rainbowGradient)" stroke-width="2" stroke-linejoin="round" filter="url(#fuzzy)" /><polyline points="36.57,-75.48 38.35,-74.6 38.89,-73.94 38.82,-73.34 38.33,-72.7 37.43,-72 36.06,-71.23 34.15,-70.4 31.67,-69.54 28.59,-68.65 24.9,-67.72 20.59,-66.76 15.63,-65.76 9.96,-64.71 3.54,-63.61 -3.69,-62.43 -11.76,-61.16 -20.67,-59.79 -30.42,-58.38 -41.01,-56.94 -52.57,-55.32" fill="none" stroke="url(#rainbowGradient)" stroke-width="2" stroke-linejoin="round" filter="url(#fuzzy)" /><polyline points="51.58,-66.59 52.22,-65.87 53.32,-64.87 54.52,-63.82 55.72,-62.75 56.9,-61.69 57.98,-60.7 58.91,-59.82 59.69,-59.09 60.31,-58.48 60.8,-58.01 61.11,-57.7 61.19,-57.62 60.97,-57.84 60.5,-58.31 59.87,-58.95 59.15,-59.64" fill="none" stroke="url(#rainbowGradient)" stroke-width="2" stroke-linejoin="round" filter="url(#fuzzy)" /><polyline points="34.36,-76.74 35.14,-76.26 35.99,-75.81 36.89,-75.34 37.71,-74.88 38.33,-74.48 38.73,-74.14 38.91,-73.86 38.88,-73.65 38.61,-73.5 38.07,-73.43 37.19,-73.46 35.94,-73.61 34.3,-73.89 32.25,-74.3 29.74,-74.85 26.76,-75.55 23.27,-76.43 19.3,-77.5 14.84,-78.78 9.85,-80.28 4.32,-82" fill="none" stroke="url(#rainbowGradient)" stroke-width="2" stroke-linejoin="round" filter="url(#fuzzy)" /><polyline points="47.3,-69.29 47.4,-69.19 48.23,-68.65 49.15,-68.03 49.88,-67.44 50.34,-66.94 50.51,-66.57 50.37,-66.36 49.92,-66.31 49.11,-66.45 47.92,-66.8 46.29,-67.37 44.19,-68.17 41.61,-69.18 38.57,-70.4 35.09,-71.84 31.17,-73.52 26.74,-75.49 21.66,-77.72 15.8,-80.27" fill="none" stroke="url(#rainbowGradient)" stroke-width="2" stroke-linejoin="round" filter="url(#fuzzy)" /><polyline points="42.24,-72.76 43.73,-71.58 44.26,-70.74 44.08,-69.97 43.32,-69.21 42.04,-68.42 40.19,-67.58 37.71,-66.7 34.55,-65.78 30.68,-64.85 26.07,-63.9 20.68,-62.92 14.47,-61.9 7.4,-60.83 -0.56,-59.73 -9.39,-58.59 -19.05,-57.4 -29.51,-56.11 -40.77,-54.77 -52.98,-53.44" fill="none" stroke="url(#rainbowGradient)" stroke-width="2" stroke-linejoin="round" filter="url(#fuzzy)" /><polyline points="20.43,-81.45 23.15,-80.73 24.91,-80.12 26.54,-79.45 28.21,-78.73 29.9,-78 31.59,-77.25 33.3,-76.5 34.99,-75.73 36.63,-74.97 38.17,-74.24 39.57,-73.57 40.8,-72.97 41.85,-72.46 42.69,-72.04 43.31,-71.74 43.69,-71.58 43.81,-71.56 43.63,-71.7 43.12,-71.99 42.27,-72.44 41.12,-73.06" fill="none" stroke="url(#rainbowGradient)" stroke-width="2" stroke-linejoin="round" filter="url(#fuzzy)" /><polyline points="40.22,-73.58 41.6,-72.83 42.88,-72.12 44.2,-71.33 45.48,-70.51 46.66,-69.73 47.73,-69.01 48.68,-68.38 49.5,-67.83 50.1,-67.4 50.45,-67.12 50.49,-67.02 50.2,-67.15 49.53,-67.55 48.44,-68.22 46.9,-69.18 44.9,-70.44 42.48,-72.01" fill="none" stroke="url(#rainbowGradient)" stroke-width="2" stroke-linejoin="round" filter="url(#fuzzy)" /><polyline points="45.06,-71.05 46.15,-69.99 46.24,-69.39 45.83,-68.85 44.84,-68.32 43.15,-67.81 40.66,-67.35 37.34,-66.97 33.16,-66.69 28.09,-66.51 22.09,-66.43 15.11,-66.47 7.12,-66.64 -1.92,-66.92 -12,-67.26 -23.05,-67.62 -35.07,-68.11" fill="none" stroke="url(#rainbowGradient)" stroke-width="2" stroke-linejoin="round" filter="url(#fuzzy)" /><polyline points="-3.08,-83.67 -1.6,-83.69 0.3,-83.24 2.74,-82.42 5.67,-81.3 9.08,-79.9 12.96,-78.28 17.25,-76.47 21.85,-74.52 26.68,-72.45 31.71,-70.26 36.93,-67.92 42.28,-65.43 47.68,-62.83 52.95,-60.28 57.85,-58.11" fill="none" stroke="url(#rainbowGradient)" stroke-width="2" stroke-linejoin="round" filter="url(#fuzzy)" /><polyline points="55.39,-63.34 57.14,-61.6 57.71,-61.04 57.83,-60.84 57.8,-60.67 57.6,-60.54 57.11,-60.59 56.22,-60.91 54.89,-61.5 53.09,-62.4 50.76,-63.65 47.82,-65.33 44.17,-67.52 39.75,-70.22 34.59,-73.38 28.48,-77.03" fill="none" stroke="url(#rainbowGradient)" stroke-width="2" stroke-linejoin="round" filter="url(#fuzzy)" /><polyline points="20.43,-81.45 23.18,-80.69 25.01,-79.98 26.78,-79.14 28.66,-78.19 30.6,-77.17 32.62,-76.09 34.7,-74.95 36.84,-73.76 39,-72.52 41.14,-71.26 43.24,-70 45.25,-68.76 47.16,-67.57 48.94,-66.47 50.56,-65.47 52.04,-64.57 53.36,-63.79 54.5,-63.13 55.47,-62.59 56.36,-62.05 57.3,-61.33" fill="none" stroke="url(#rainbowGradient)" stroke-width="2" stroke-linejoin="round" filter="url(#fuzzy)" /><polyline points="36.57,-75.48 38.46,-74.65 39.34,-74.11 39.81,-73.74 40.02,-73.47 39.96,-73.28 39.59,-73.19 38.81,-73.23 37.52,-73.43 35.66,-73.84 33.19,-74.46 30.08,-75.31 26.26,-76.4 21.64,-77.76 16.09,-79.42 9.43,-81.47" fill="none" stroke="url(#rainbowGradient)" stroke-width="2" stroke-linejoin="round" filter="url(#fuzzy)" /><polyline points="28.54,-79.03 30.81,-78.03 32.62,-77.25 34.26,-76.45 35.84,-75.62 37.42,-74.74 39.03,-73.83 40.63,-72.9 42.19,-71.98 43.7,-71.07 45.15,-70.19 46.52,-69.36 47.77,-68.59 48.87,-67.92 49.75,-67.38 50.39,-67.01 50.77,-66.82 50.88,-66.84 50.62,-67.09 49.9,-67.59 48.58,-68.39" fill="none" stroke="url(#rainbowGradient)" stroke-width="2" stroke-linejoin="round" filter="url(#fuzzy)" /><polyline points="75.04,-38.89 75.4,-38.15 75.54,-37.22 75.35,-36.58 74.78,-36.36 73.81,-36.55 72.42,-37.14 70.54,-38.14 68.13,-39.64 65.12,-41.72 61.5,-44.47 57.22,-47.92 52.3,-52.07 46.77,-56.85 40.64,-62.17 33.77,-68.04 25.64,-74.66" fill="none" stroke="url(#rainbowGradient)" stroke-width="2" stroke-linejoin="round" filter="url(#fuzzy)" /><polyline points="22,-81.07 21.87,-81.03 22.58,-80.6 23.03,-80.03 23.07,-79.36 22.64,-78.63 21.72,-77.83 20.3,-76.97 18.38,-76.01 15.93,-74.96 12.93,-73.79 9.32,-72.52 5.05,-71.12 0.1,-69.58 -5.58,-67.87 -12,-66 -19.17,-64 -27.07,-61.87 -35.69,-59.62 -45.02,-57.24 -55.16,-54.74" fill="none" stroke="url(#rainbowGradient)" stroke-width="2" stroke-linejoin="round" filter="url(#fuzzy)" /><polyline points="2.48,-83.52 2.55,-83.71 3.9,-83.63 5.55,-83.48 7.23,-83.3 8.9,-83.11 10.53,-82.9 12.07,-82.7 13.5,-82.51 14.78,-82.34 15.9,-82.17 16.86,-82.02 17.66,-81.89 18.23,-81.79 18.48,-81.74 18.36,-81.76 17.88,-81.85 17.07,-81.98 15.93,-82.17 14.29,-82.42 12.03,-82.77" fill="none" stroke="url(#rainbowGradient)" stroke-width="2" stroke-linejoin="round" filter="url(#fuzzy)" /><polyline points="46.65,-69.74 48.26,-68.6 49.82,-67.59 51.24,-66.54 52.57,-65.45 53.84,-64.36 55.05,-63.3 56.17,-62.31 57.16,-61.44 58,-60.7 58.64,-60.13 59.1,-59.73 59.38,-59.48 59.49,-59.37 59.44,-59.42 59.15,-59.67 58.54,-60.22 57.54,-61.14 56.17,-62.42" fill="none" stroke="url(#rainbowGradient)" stroke-width="2" stroke-linejoin="round" filter="url(#fuzzy)" /><polyline points="-26.54,-79.57 -26.43,-79.47 -25.64,-79.67 -25.08,-79.78 -24.84,-79.72 -24.86,-79.48 -25.19,-79.05 -25.96,-78.38 -27.33,-77.42 -29.37,-76.17 -32.1,-74.6 -35.55,-72.7 -39.75,-70.45 -44.73,-67.83 -50.4,-64.95" fill="none" stroke="url(#rainbowGradient)" stroke-width="2" stroke-linejoin="round" filter="url(#fuzzy)" /><polyline points="-23.81,-80.54 -22.02,-80.87 -20.05,-81.3 -18.18,-81.68 -16.53,-82 -15.07,-82.26 -13.73,-82.48 -12.49,-82.68 -11.42,-82.84 -10.59,-82.95 -10.12,-83.01 -10.05,-83.01 -10.4,-82.94 -11.14,-82.81 -12.28,-82.63 -13.92,-82.37 -16.37,-81.99" fill="none" stroke="url(#rainbowGradient)" stroke-width="2" stroke-linejoin="round" filter="url(#fuzzy)" /><polyline points="-9.82,-83.05 -8.49,-83.04 -6.73,-82.71 -4.26,-82.11 -1.08,-81.25 2.6,-80.16 6.63,-78.81 10.92,-77.25 15.42,-75.51 20.14,-73.63 25.07,-71.64 30.24,-69.55 35.64,-67.32 41.23,-64.95 46.89,-62.47 52.43,-60.05 57.63,-57.98" fill="none" stroke="url(#rainbowGradient)" stroke-width="2" stroke-linejoin="round" filter="url(#fuzzy)" /><polyline points="64.18,-54.42 65.15,-53.17 65.43,-52.76 65.23,-52.65 64.66,-52.69 63.73,-52.84 62.43,-53.18 60.63,-53.84 58.24,-54.96 55.13,-56.62 51.24,-58.87 46.52,-61.68 41.03,-64.99 34.9,-68.74 28.22,-72.91 20.89,-77.59" fill="none" stroke="url(#rainbowGradient)" stroke-width="2" stroke-linejoin="round" filter="url(#fuzzy)" /><polyline points="6.33,-83.7 8,-83.4 9.41,-83.21 10.83,-83.02 12.21,-82.83 13.49,-82.64 14.69,-82.44 15.86,-82.24 16.99,-82.03 18.03,-81.83 18.9,-81.65 19.53,-81.51 19.9,-81.4 20.01,-81.32 19.87,-81.26 19.44,-81.24 18.67,-81.27 17.51,-81.38 15.94,-81.56 13.93,-81.84 11.45,-82.19 8.48,-82.63 5.17,-83.13" fill="none" stroke="url(#rainbowGradient)" stroke-width="2" stroke-linejoin="round" filter="url(#fuzzy)" /><polyline points="67.72,-50.12 68.49,-48.65 68.45,-47.61 67.37,-47.2 65.22,-47.43 62.05,-48.23 57.88,-49.49 52.73,-51.12 46.55,-53.06 39.34,-55.31 31.06,-57.95 21.65,-61.03 11.05,-64.62 -0.79,-68.78 -13.76,-73.67" fill="none" stroke="url(#rainbowGradient)" stroke-width="2" stroke-linejoin="round" filter="url(#fuzzy)" /><polyline points="44.6,-71.08 45.44,-70.62 46.44,-69.92 47.45,-69.21 48.5,-68.51 49.52,-67.82 50.41,-67.19 51.11,-66.65 51.56,-66.24 51.74,-66.01 51.62,-65.99 51.16,-66.2 50.32,-66.67 49.09,-67.42 47.44,-68.47 45.38,-69.81 42.83,-71.44 39.68,-73.41" fill="none" stroke="url(#rainbowGradient)" stroke-width="2" stroke-linejoin="round" filter="url(#fuzzy)" /><polyline points="67.02,-51.33 67.17,-50.97 67.7,-50.09 68.3,-49.08 68.73,-48.24 68.82,-47.76 68.53,-47.71 67.85,-48.1 66.82,-48.86 65.46,-49.93 63.76,-51.28 61.73,-52.9 59.31,-54.85 56.44,-57.19 53.05,-59.99 49.1,-63.31 44.63,-67.18 39.71,-71.64" fill="none" stroke="url(#rainbowGradient)" stroke-width="2" stroke-linejoin="round" filter="url(#fuzzy)" /><polyline points="14.71,-82.37 16.03,-82.13 17.58,-81.66 18.35,-81.17 18.37,-80.65 17.84,-80.04 16.9,-79.29 15.55,-78.4 13.76,-77.37 11.46,-76.21 8.59,-74.91 5.1,-73.47 0.98,-71.87 -3.79,-70.09 -9.23,-68.13 -15.37,-66.03 -22.22,-63.77 -29.78,-61.38 -38.06,-58.85 -47.1,-56.18 -56.86,-53.33" fill="none" stroke="url(#rainbowGradient)" stroke-width="2" stroke-linejoin="round" filter="url(#fuzzy)" /><polyline points="67.02,-51.33 67.24,-50.89 67.98,-49.78 68.93,-48.39 69.88,-47.02 70.68,-45.84 71.29,-44.91 71.74,-44.22 72.06,-43.74 72.27,-43.4 72.38,-43.17 72.41,-43.04 72.31,-43.03 72.06,-43.19 71.6,-43.58 70.91,-44.28 69.96,-45.34 68.75,-46.78 67.3,-48.6 65.57,-50.84 63.43,-53.64 60.85,-57.08" fill="none" stroke="url(#rainbowGradient)" stroke-width="2" stroke-linejoin="round" filter="url(#fuzzy)" /><polyline points="-11.75,-82.81 -10.05,-82.99 -8.55,-83.06 -6.98,-83.07 -5.16,-83.04 -3.09,-82.99 -0.89,-82.9 1.34,-82.78 3.53,-82.62 5.67,-82.42 7.76,-82.2 9.8,-81.97 11.79,-81.73 13.71,-81.51 15.52,-81.3 17.18,-81.12 18.66,-80.96 19.91,-80.84 20.89,-80.78 21.55,-80.79 21.83,-80.87 21.74,-81.02 21.41,-81.17" fill="none" stroke="url(#rainbowGradient)" stroke-width="2" stroke-linejoin="round" filter="url(#fuzzy)" /><polyline points="-7.63,-83.35 -6.84,-83.38 -5.01,-83.46 -3.05,-83.56 -1.21,-83.61 0.5,-83.62 2.09,-83.58 3.57,-83.51 4.95,-83.44 6.25,-83.37 7.42,-83.3 8.41,-83.25 9.1,-83.21 9.42,-83.2 9.33,-83.21 8.8,-83.27 7.79,-83.35 6.23,-83.46" fill="none" stroke="url(#rainbowGradient)" stroke-width="2" stroke-linejoin="round" filter="url(#fuzzy)" /><polyline points="67.72,-50.12 68.75,-48.53 69.48,-47.23 69.68,-46.39 69.38,-46 68.64,-45.98 67.53,-46.22 66.08,-46.64 64.29,-47.18 62.15,-47.86 59.61,-48.69 56.64,-49.73 53.19,-51.01 49.23,-52.57 44.73,-54.44 39.65,-56.63 33.98,-59.16 27.74,-62.04 20.93,-65.3 13.54,-68.98 5.47,-73.09 -3.38,-77.68" fill="none" stroke="url(#rainbowGradient)" stroke-width="2" stroke-linejoin="round" filter="url(#fuzzy)" /><polyline points="31.44,-77.66 32.47,-77.37 33.32,-76.91 33.8,-76.45 33.92,-76.01 33.71,-75.58 33.14,-75.17 32.15,-74.8 30.72,-74.46 28.83,-74.16 26.47,-73.89 23.59,-73.63 20.15,-73.39 16.11,-73.19 11.41,-73.02 6.06,-72.9 0.02,-72.83 -6.69,-72.79 -14.09,-72.82 -22.26,-72.89 -31.38,-72.98" fill="none" stroke="url(#rainbowGradient)" stroke-width="2" stroke-linejoin="round" filter="url(#fuzzy)" /><polyline points="54.31,-64.26 55.27,-63.35 56.21,-62.47 57.11,-61.65 57.85,-60.97 58.48,-60.37 59.06,-59.8 59.59,-59.24 60.01,-58.76 60.29,-58.41 60.37,-58.22 60.23,-58.23 59.82,-58.48 59.06,-59.03 57.93,-59.9 56.41,-61.08 54.55,-62.54 52.36,-64.31 49.76,-66.45 46.53,-69.14" fill="none" stroke="url(#rainbowGradient)" stroke-width="2" stroke-linejoin="round" filter="url(#fuzzy)" /><polyline points="-28.09,-79.37 -27.1,-79.44 -26.11,-79.62 -24.92,-79.93 -23.67,-80.29 -22.41,-80.65 -21.11,-80.99 -19.84,-81.31 -18.68,-81.58 -17.75,-81.78 -17.11,-81.9 -16.77,-81.94 -16.74,-81.89 -17,-81.76 -17.61,-81.54 -18.61,-81.24 -20.04,-80.86 -21.91,-80.38 -24.27,-79.76 -27.24,-78.9" fill="none" stroke="url(#rainbowGradient)" stroke-width="2" stroke-linejoin="round" filter="url(#fuzzy)" /><polyline points="-29.57,-78.43 -27.95,-78.91 -25.93,-78.83 -23.3,-78.47 -20,-77.94 -16.11,-77.24 -11.65,-76.39 -6.62,-75.4 -1.07,-74.26 4.93,-72.94 11.25,-71.44 17.81,-69.8 24.54,-68.07 31.43,-66.32 38.51,-64.49 45.83,-62.47 53.32,-60.24" fill="none" stroke="url(#rainbowGradient)" stroke-width="2" stroke-linejoin="round" filter="url(#fuzzy)" /><polyline points="65.74,-52.17 66.09,-52.22 66.3,-51.89 66.37,-51.44 66.34,-50.91 66.13,-50.41 65.64,-50.09 64.74,-50.08 63.38,-50.45 61.55,-51.19 59.28,-52.27 56.6,-53.62 53.5,-55.2 49.96,-57.01 45.93,-59.07 41.36,-61.42 36.22,-64.11 30.47,-67.17 24.06,-70.65 17.01,-74.6 9.49,-78.98" fill="none" stroke="url(#rainbowGradient)" stroke-width="2" stroke-linejoin="round" filter="url(#fuzzy)" /><polyline points="14.52,-82.63 15.08,-82.41 16.49,-82.13 18.14,-81.81 19.56,-81.53 20.67,-81.29 21.56,-81.06 22.31,-80.83 22.94,-80.58 23.42,-80.33 23.69,-80.11 23.71,-79.93 23.47,-79.8 22.94,-79.72 22.12,-79.69 20.98,-79.72 19.48,-79.81 17.61,-79.97 15.3,-80.19 12.52,-80.47 9.19,-80.82 5.27,-81.25 0.86,-81.79 -3.77,-82.46" fill="none" stroke="url(#rainbowGradient)" stroke-width="2" stroke-linejoin="round" filter="url(#fuzzy)" /><polyline points="-47.16,-69.42 -45.38,-70.65 -43.94,-71.5 -42.37,-72.26 -40.66,-73.01 -38.82,-73.78 -36.88,-74.57 -34.88,-75.36 -32.85,-76.16 -30.82,-76.94 -28.8,-77.69 -26.83,-78.4 -24.95,-79.07 -23.24,-79.69 -21.74,-80.23 -20.51,-80.69 -19.57,-81.06 -18.93,-81.33 -18.53,-81.51 -18.39,-81.62 -18.76,-81.62" fill="none" stroke="url(#rainbowGradient)" stroke-width="2" stroke-linejoin="round" filter="url(#fuzzy)" /><polyline points="4.03,-83.69 5.21,-83.54 6.09,-83.42 6.69,-83.24 6.95,-82.98 6.8,-82.66 6.16,-82.27 4.96,-81.81 3.16,-81.26 0.78,-80.62 -2.15,-79.86 -5.68,-78.99 -9.93,-78.01 -15.02,-76.94 -21.01,-75.77 -27.87,-74.49 -35.68,-73.05" fill="none" stroke="url(#rainbowGradient)" stroke-width="2" stroke-linejoin="round" filter="url(#fuzzy)" /><polyline points="14.71,-82.37 16.32,-82.07 18.73,-81.43 20.96,-80.67 23,-79.84 25.07,-78.9 27.29,-77.82 29.68,-76.61 32.21,-75.3 34.79,-73.92 37.38,-72.53 39.91,-71.15 42.38,-69.81 44.78,-68.51 47.07,-67.26 49.2,-66.1 51.14,-65.04 52.9,-64.08 54.63,-63.08 56.45,-61.85" fill="none" stroke="url(#rainbowGradient)" stroke-width="2" stroke-linejoin="round" filter="url(#fuzzy)" /><polyline points="-14.74,-82.2 -13.14,-82.6 -11.61,-82.84 -10.19,-83.01 -8.95,-83.15 -7.89,-83.27 -6.96,-83.36 -6.16,-83.42 -5.6,-83.46 -5.42,-83.46 -5.73,-83.38 -6.6,-83.23 -8.01,-83 -9.93,-82.73 -12.37,-82.39 -15.55,-81.98" fill="none" stroke="url(#rainbowGradient)" stroke-width="2" stroke-linejoin="round" filter="url(#fuzzy)" /><polyline points="-11.75,-82.81 -9.86,-82.86 -7.76,-82.58 -5.23,-82.03 -2.09,-81.24 1.66,-80.25 5.89,-79.06 10.46,-77.66 15.26,-76.08 20.22,-74.36 25.34,-72.54 30.63,-70.62 36.1,-68.62 41.7,-66.57 47.26,-64.62 52.66,-62.82" fill="none" stroke="url(#rainbowGradient)" stroke-width="2" stroke-linejoin="round" filter="url(#fuzzy)" /><polyline points="-37.68,-75.14 -35.15,-76.2 -32.99,-76.88 -30.82,-77.44 -28.47,-78 -25.93,-78.58 -23.28,-79.14 -20.54,-79.66 -17.74,-80.14 -14.92,-80.6 -12.13,-81.06 -9.4,-81.52 -6.76,-81.97 -4.25,-82.41 -1.96,-82.82 -0.1,-83.19 1.07,-83.55" fill="none" stroke="url(#rainbowGradient)" stroke-width="2" stroke-linejoin="round" filter="url(#fuzzy)" /><polyline points="55.58,-63 56.13,-62.53 56.92,-61.77 57.36,-61.29 57.52,-60.99 57.53,-60.75 57.37,-60.56 56.99,-60.47 56.34,-60.54 55.36,-60.8 54.03,-61.28 52.29,-62.01 50.12,-63.04 47.46,-64.36 44.28,-65.99 40.53,-67.89 36.17,-70.1 31.18,-72.64 25.7,-75.56 19.98,-78.89" fill="none" stroke="url(#rainbowGradient)" stroke-width="2" stroke-linejoin="round" filter="url(#fuzzy)" /><polyline points="-8.51,-83.21 -7.62,-83.23 -6.02,-83.08 -3.74,-82.82 -1.13,-82.45 1.64,-81.95 4.5,-81.32 7.49,-80.55 10.6,-79.69 13.86,-78.73 17.28,-77.71 20.83,-76.62 24.47,-75.49 28.11,-74.34 31.71,-73.2 35.2,-72.1 38.57,-71.05 41.77,-70.06 44.77,-69.18 47.57,-68.42" fill="none" stroke="url(#rainbowGradient)" stroke-width="2" stroke-linejoin="round" filter="url(#fuzzy)" /><polyline points="62.24,-56.63 63.55,-54.85 63.8,-53.88 63.04,-53.57 61.4,-53.66 58.98,-53.96 55.8,-54.41 51.83,-55.03 46.97,-55.94 41.12,-57.23 34.24,-59 26.29,-61.27 17.29,-64.01 7.25,-67.16 -3.81,-70.68 -15.97,-74.5" fill="none" stroke="url(#rainbowGradient)" stroke-width="2" stroke-linejoin="round" filter="url(#fuzzy)" /><polyline points="-32.71,-77.25 -30.96,-77.73 -28.92,-78.12 -26.64,-78.3 -24.11,-78.27 -21.28,-78.1 -18.13,-77.83 -14.66,-77.5 -10.87,-77.1 -6.76,-76.64 -2.37,-76.11 2.24,-75.5 7,-74.81 11.85,-74.04 16.76,-73.22 21.69,-72.38 26.63,-71.53 31.53,-70.7 36.34,-69.89 41.05,-69.12 45.65,-68.42" fill="none" stroke="url(#rainbowGradient)" stroke-width="2" stroke-linejoin="round" filter="url(#fuzzy)" /><polyline points="-41.1,-73.3 -39.96,-73.82 -38.43,-74.54 -36.93,-75.21 -35.3,-75.87 -33.5,-76.54 -31.62,-77.21 -29.73,-77.86 -27.89,-78.48 -26.14,-79.06 -24.51,-79.59 -23.01,-80.07 -21.68,-80.48 -20.53,-80.84 -19.59,-81.14 -18.85,-81.39 -18.33,-81.58 -18.03,-81.7 -18.04,-81.74 -18.54,-81.65 -19.69,-81.4 -21.52,-80.98" fill="none" stroke="url(#rainbowGradient)" stroke-width="2" stroke-linejoin="round" filter="url(#fuzzy)" /><polyline points="42.24,-72.76 43.8,-71.62 44.53,-70.9 44.68,-70.34 44.37,-69.89 43.63,-69.52 42.41,-69.19 40.66,-68.94 38.32,-68.77 35.35,-68.72 31.73,-68.81 27.41,-69.03 22.38,-69.4 16.56,-69.91 9.91,-70.58 2.41,-71.4 -5.94,-72.34 -15.15,-73.36 -25.5,-74.34" fill="none" stroke="url(#rainbowGradient)" stroke-width="2" stroke-linejoin="round" filter="url(#fuzzy)" /><polyline points="25.41,-80.15 25.83,-79.86 27.2,-79.32 28.3,-78.91 29.13,-78.59 29.81,-78.3 30.33,-78.02 30.61,-77.79 30.58,-77.62 30.17,-77.54 29.36,-77.56 28.12,-77.69 26.4,-77.94 24.16,-78.32 21.39,-78.85 18.09,-79.52 14.29,-80.34 9.97,-81.31 4.94,-82.5" fill="none" stroke="url(#rainbowGradient)" stroke-width="2" stroke-linejoin="round" filter="url(#fuzzy)" /><polyline points="42.01,-72.5 42.5,-72.26 42.82,-71.68 42.5,-71.12 41.42,-70.65 39.57,-70.27 36.95,-69.97 33.53,-69.72 29.22,-69.54 23.94,-69.44 17.66,-69.44 10.33,-69.56 1.94,-69.8 -7.56,-70.16 -18.18,-70.65 -29.95,-71.32" fill="none" stroke="url(#rainbowGradient)" stroke-width="2" stroke-linejoin="round" filter="url(#fuzzy)" /><polyline points="44.6,-71.08 45.42,-70.63 46.39,-69.96 47.32,-69.31 48.27,-68.67 49.16,-68.06 49.91,-67.52 50.42,-67.09 50.66,-66.8 50.61,-66.7 50.24,-66.8 49.5,-67.14 48.36,-67.75 46.76,-68.67 44.68,-69.9 42.16,-71.42 39.17,-73.21 35.61,-75.29" fill="none" stroke="url(#rainbowGradient)" stroke-width="2" stroke-linejoin="round" filter="url(#fuzzy)" /><polyline points="62.24,-56.63 63.72,-54.82 64.45,-53.8 64.51,-53.4 64.04,-53.36 63.12,-53.53 61.8,-53.85 60.03,-54.36 57.74,-55.19 54.85,-56.43 51.29,-58.17 47.02,-60.44 42,-63.21 36.23,-66.43 29.72,-70.06 22.44,-74.08 14.36,-78.53" fill="none" stroke="url(#rainbowGradient)" stroke-width="2" stroke-linejoin="round" filter="url(#fuzzy)" /><polyline points="-11.75,-82.81 -14.58,-82.32 -17.73,-81.84 -21.21,-81.32 -24.62,-80.73 -27.73,-80.07 -30.56,-79.31 -33.23,-78.46 -35.82,-77.51 -38.38,-76.48 -40.98,-75.39 -43.71,-74.23 -46.67,-73.03 -49.87,-71.78 -53.22,-70.47 -56.58,-69.12 -59.81,-67.69 -62.88,-66.18 -65.9,-64.58 -69.1,-62.9 -72.69,-61.12 -76.73,-59.26 -81.13,-57.32 -85.68,-55.34 -90.26,-53.38 -94.85,-51.49 -99.15,-49.63 -102.93,-47.58" fill="none" stroke="url(#rainbowGradient)" stroke-width="2" stroke-linejoin="round" filter="url(#fuzzy)" /><polyline points="-16.09,-82.32 -19.68,-81.73 -22.26,-80.98 -24.94,-80.22 -27.87,-79.47 -30.89,-78.67 -33.92,-77.8 -37.12,-76.84 -40.73,-75.81 -44.93,-74.7 -49.66,-73.52 -54.7,-72.26 -59.79,-70.93 -64.77,-69.55 -69.58,-68.12 -74.23,-66.66 -78.74,-65.17 -83.05,-63.64 -87.12,-62.04 -90.96,-60.35 -94.7,-58.58 -98.57,-56.71 -102.8,-54.75 -107.54,-52.73 -112.74,-50.65 -118.22,-48.52 -123.73,-46.34 -129.09,-44.11 -134.29,-41.84 -139.55,-39.53 -145.36,-37.19 -152.28,-34.81 -160.33,-32.39 -168.43,-29.96 -174.77,-27.61 -179.75,-25.41" fill="none" stroke="url(#rainbowGradient)" stroke-width="2" stroke-linejoin="round" filter="url(#fuzzy)" /><polyline points="-24.34,-80.27 -26.7,-79.45 -29.24,-78.47 -31.73,-77.44 -34.11,-76.35 -36.4,-75.21 -38.6,-74.01 -40.65,-72.78 -42.48,-71.5 -44.05,-70.16 -45.35,-68.76 -46.46,-67.29 -47.49,-65.73 -48.54,-64.08 -49.67,-62.35 -50.84,-60.55 -51.98,-58.68 -52.99,-56.78 -53.8,-54.85 -54.42,-52.91 -54.93,-50.96 -55.45,-48.99 -56.07,-46.99 -56.81,-44.92 -57.6,-42.81 -58.27,-40.65 -58.68,-38.45 -58.77,-36.19 -58.65,-33.88 -58.49,-31.59 -58.24,-29.27 -58.03,-26.18" fill="none" stroke="url(#rainbowGradient)" stroke-width="2" stroke-linejoin="round" filter="url(#fuzzy)" /><polyline points="-32.71,-77.25 -36.01,-76.35 -41.45,-75.17 -46.85,-73.95 -50.94,-72.7 -53.89,-71.42 -56.19,-70.08 -58.12,-68.69 -59.83,-67.21 -61.54,-65.64 -63.6,-63.98 -66.34,-62.23 -69.92,-60.41 -74.24,-58.53 -79.02,-56.62 -83.87,-54.69 -88.5,-52.75 -92.8,-50.8 -96.92,-48.82 -101.19,-46.81 -105.97,-44.74 -111.51,-42.62 -117.83,-40.46 -124.79,-38.26 -132.08,-36.01 -139.29,-33.75 -145.89,-31.49 -151.42,-29.28 -155.91,-27.12 -159.53,-24.93 -161.14,-22.16" fill="none" stroke="url(#rainbowGradient)" stroke-width="2" stroke-linejoin="round" filter="url(#fuzzy)" /><polyline points="-37.68,-75.14 -43.01,-74.56 -50.97,-73.47 -55.27,-72.21 -56.59,-70.83 -57.24,-69.36 -58.75,-67.88 -61.51,-66.4 -65.09,-64.93 -68.77,-63.43 -71.98,-61.85 -74.61,-60.17 -76.97,-58.36 -79.57,-56.47 -82.85,-54.49 -86.94,-52.45 -91.69,-50.37 -96.75,-48.24 -101.74,-46.06 -106.51,-43.84 -111.17,-41.57 -116.08,-39.27 -121.58,-36.93 -127.72,-34.57 -134.04,-32.18 -139.89,-29.79 -144.97,-27.41 -150.02,-25.09 -156.49,-22.88 -163.92,-21.06" fill="none" stroke="url(#rainbowGradient)" stroke-width="2" stroke-linejoin="round" filter="url(#fuzzy)" /><polyline points="-40.82,-73.44 -46.79,-72.58 -51.77,-71.35 -53.39,-70.01 -54.14,-68.62 -55.79,-67.13 -59,-65.55 -63.8,-63.86 -69.74,-62.1 -76.03,-60.25 -81.73,-58.36 -86.1,-56.43 -88.93,-54.49 -90.67,-52.54 -92.15,-50.59 -94.22,-48.6 -97.39,-46.58 -101.65,-44.51 -106.62,-42.38 -111.85,-40.21 -117.09,-38.01 -122.33,-35.78 -127.71,-33.53 -133.29,-31.27 -138.98,-29.01 -144.63,-26.74 -149.96,-24.41 -154.39,-21.97 -157.18,-19.41 -158.33,-16.73 -161.93,-13.71" fill="none" stroke="url(#rainbowGradient)" stroke-width="2" stroke-linejoin="round" filter="url(#fuzzy)" /><polyline points="-44.67,-71.13 -47.48,-69.36 -50.13,-67.62 -52.67,-66.11 -55.53,-64.72 -58.77,-63.3 -62.11,-61.75 -65.21,-60.04 -67.96,-58.2 -70.54,-56.26 -73.21,-54.26 -76.12,-52.2 -79.26,-50.11 -82.48,-47.97 -85.55,-45.78 -88.35,-43.55 -90.83,-41.28 -93.06,-38.97 -95.13,-36.64 -97.11,-34.28 -99.02,-31.91 -100.88,-29.53 -102.81,-27.17 -104.92,-24.83 -107.29,-22.51 -109.83,-20.24 -112.54,-18.06 -115.62,-16.03 -118.78,-13.94" fill="none" stroke="url(#rainbowGradient)" stroke-width="2" stroke-linejoin="round" filter="url(#fuzzy)" /><polyline points="-50.74,-66.81 -52.13,-65.7 -53.7,-64.55 -55.38,-63.25 -57.23,-61.72 -59.23,-59.97 -61.3,-58.08 -63.34,-56.1 -65.31,-54.06 -67.23,-51.99 -69.08,-49.87 -70.89,-47.72 -72.64,-45.51 -74.29,-43.27 -75.84,-40.98 -77.27,-38.66 -78.59,-36.32 -79.81,-33.96 -80.99,-31.59 -82.17,-29.22 -83.36,-26.86 -84.57,-24.52 -85.77,-22.2 -86.91,-19.88 -87.93,-17.54 -88.81,-15.12 -89.58,-12.59 -90.32,-9.93 -91.05,-7.28 -91.75,-4.96 -92.42,-3.3 -93.19,-2" fill="none" stroke="url(#rainbowGradient)" stroke-width="2" stroke-linejoin="round" filter="url(#fuzzy)" /><polyline points="-50.68,-67.2 -52.12,-65.51 -52.45,-63.76 -51.27,-61.98 -49.59,-60.13 -48.71,-58.21 -49.15,-56.26 -50.59,-54.32 -52.27,-52.4 -53.37,-50.49 -53.37,-48.56 -52.15,-46.57 -49.97,-44.52 -47.23,-42.41 -44.24,-40.26 -41.1,-38.07 -37.79,-35.85 -34.35,-33.61 -30.91,-31.38 -27.59,-29.2 -24.33,-27.07 -21.12,-24.9 -18.4,-22.16" fill="none" stroke="url(#rainbowGradient)" stroke-width="2" stroke-linejoin="round" filter="url(#fuzzy)" /><polyline points="-52.49,-65.51 -55.14,-63.65 -59.08,-61.84 -63.41,-59.96 -66.83,-57.98 -69.13,-55.99 -70.61,-54 -71.64,-52.04 -72.49,-50.08 -73.34,-48.08 -74.36,-46.02 -75.65,-43.91 -77.27,-41.75 -79.19,-39.55 -81.36,-37.32 -83.7,-35.07 -86.12,-32.79 -88.55,-30.5 -90.94,-28.17 -93.25,-25.82 -95.52,-23.44 -97.8,-21.03 -100.13,-18.61 -102.55,-16.18 -105.02,-13.77 -107.45,-11.38 -109.75,-8.99 -111.82,-6.57 -113.6,-4.08 -115.04,-1.5 -116.13,1.2 -116.9,4.01 -117.46,6.88 -118.03,9.72 -118.81,12.42 -119.82,14.92 -120.73,17.23 -122,19.47" fill="none" stroke="url(#rainbowGradient)" stroke-width="2" stroke-linejoin="round" filter="url(#fuzzy)" /><polyline points="-59,-60 -61.05,-57.77 -63.03,-55.74 -64.97,-53.72 -66.86,-51.65 -68.61,-49.52 -70.18,-47.33 -71.59,-45.1 -72.9,-42.82 -74.15,-40.5 -75.4,-38.16 -76.64,-35.79 -77.85,-33.41 -79.01,-31.03 -80.09,-28.66 -81.05,-26.29 -81.92,-23.93 -82.68,-21.56 -83.38,-19.18 -84.02,-16.77 -84.63,-14.31 -85.2,-11.82 -85.73,-9.3 -86.21,-6.76 -86.59,-4.21 -86.86,-1.63 -87,0.98 -87.01,3.62 -86.91,6.27 -86.73,8.9 -86.51,11.44 -86.28,13.86 -86.04,16.15 -85.76,18.36 -85.36,20.57 -84.78,23.01 -84.02,25.84 -83.23,28.87" fill="none" stroke="url(#rainbowGradient)" stroke-width="2" stroke-linejoin="round" filter="url(#fuzzy)" /><polyline points="-66.9,-51.59 -67.65,-49.89 -68.55,-48.02 -69.39,-45.95 -70.35,-43.77 -71.5,-41.58 -72.7,-39.38 -73.74,-37.17 -74.53,-34.94 -75.06,-32.69 -75.43,-30.43 -75.79,-28.16 -76.22,-25.86 -76.7,-23.5 -77.15,-21.1 -77.46,-18.67 -77.59,-16.24 -77.53,-13.86 -77.36,-11.54 -77.15,-9.26 -76.91,-6.99 -76.59,-4.72 -76.16,-2.39 -75.6,0.17 -74.77,3.23" fill="none" stroke="url(#rainbowGradient)" stroke-width="2" stroke-linejoin="round" filter="url(#fuzzy)" /><polyline points="81.86,-21.3 82.83,-18.06 85.34,-15.65 89.74,-13.32 94.38,-10.9 97.56,-8.39 98.81,-5.85 98.83,-3.32 98.71,-0.79 99.41,1.75 101.57,4.32 105.48,6.89 111.1,9.45 117.92,11.94 125.08,14.37 131.52,16.74 136.41,19.09 139.41,21.48 140.77,23.95 141.12,26.5 141.1,29.09 141.07,31.64 141.16,34.07 141.47,36.34 142.23,38.47 143.56,40.53 145.18,42.62 146.7,44.76 148.07,46.93 146.9,48.84" fill="none" stroke="url(#rainbowGradient)" stroke-width="2" stroke-linejoin="round" filter="url(#fuzzy)" /><polyline points="-72.59,-42.86 -74.56,-40.03 -77.27,-37.66 -80.45,-35.34 -83.39,-32.97 -85.83,-30.57 -87.76,-28.19 -89.1,-25.84 -89.83,-23.51 -90.05,-21.19 -90.01,-18.84 -90.01,-16.45 -90.31,-14.01 -91.06,-11.51 -92.26,-8.98 -93.82,-6.45 -95.57,-3.91 -97.36,-1.35 -99.04,1.24 -100.57,3.87 -101.96,6.51 -103.3,9.11 -104.71,11.62 -106.3,14.02 -108.12,16.3 -110.12,18.52 -112.13,20.77 -113.88,23.16 -115.13,25.72 -115.7,28.21 -115.59,29.92" fill="none" stroke="url(#rainbowGradient)" stroke-width="2" stroke-linejoin="round" filter="url(#fuzzy)" /><polyline points="-74.39,-39.42 -75.77,-37.49 -77.68,-35.34 -79.56,-33 -81.02,-30.61 -82.07,-28.24 -82.92,-25.92 -83.76,-23.63 -84.69,-21.35 -85.75,-19.07 -86.93,-16.73 -88.18,-14.32 -89.42,-11.82 -90.58,-9.3 -91.6,-6.8 -92.47,-4.35 -93.17,-1.91 -93.7,0.63 -94.13,3.35 -94.61,6.18 -95.39,8.89 -96.7,11.06 -98.64,12.17" fill="none" stroke="url(#rainbowGradient)" stroke-width="2" stroke-linejoin="round" filter="url(#fuzzy)" /><polyline points="-75.74,-37.42 -80.69,-35.34 -83.64,-32.9 -85.55,-30.44 -86.65,-28.04 -87.73,-25.7 -89.34,-23.39 -91.51,-21.1 -93.93,-18.78 -96.29,-16.4 -98.53,-13.96 -100.91,-11.46 -103.79,-8.93 -107.34,-6.4 -111.37,-3.88 -115.32,-1.34 -118.6,1.25 -120.94,3.88 -122.56,6.53 -124.13,9.14 -126.29,11.65 -129.3,14.03 -132.88,16.28 -136.36,18.45 -138.98,20.64 -140.31,23.05 -140.72,25.87 -142.76,28.87" fill="none" stroke="url(#rainbowGradient)" stroke-width="2" stroke-linejoin="round" filter="url(#fuzzy)" /><polyline points="-78.59,-29.6 -82.61,-27.58 -84.65,-25.34 -87.76,-23.05 -91.22,-20.75 -93.78,-18.42 -94.94,-16.02 -94.99,-13.54 -94.59,-10.99 -94.29,-8.43 -94.4,-5.86 -94.98,-3.3 -95.99,-0.72 -97.32,1.88 -98.83,4.5 -100.32,7.1 -101.56,9.65 -102.34,12.14 -102.53,14.55 -102.17,16.91 -101.49,19.23 -100.77,21.54 -100.32,23.84 -100.31,26.13 -100.72,28.42 -101.35,30.68 -101.89,32.94 -102.04,35.19 -101.69,37.46 -100.92,39.76 -100.01,42.13 -99.24,44.57 -98.79,47.09 -98.64,49.58 -98.54,51.88 -97.92,53.77 -97.3,55.01" fill="none" stroke="url(#rainbowGradient)" stroke-width="2" stroke-linejoin="round" filter="url(#fuzzy)" /><polyline points="-78.72,-30.45 -81.32,-27.4 -85.52,-24.97 -88.39,-22.49 -90.32,-19.95 -92.98,-17.44 -97.07,-14.98 -102.04,-12.59 -106.87,-10.22 -110.85,-7.82 -113.84,-5.36 -116.05,-2.81 -117.78,-0.18 -119.31,2.53 -120.82,5.27 -122.45,8.01 -124.27,10.7 -126.33,13.33 -128.61,15.89 -130.99,18.38 -133.27,20.83 -135.17,23.23 -136.35,25.59 -136.54,27.95 -135.66,30.3 -133.94,32.66 -131.87,35.03 -130.05,37.4 -129.01,39.72 -129.06,41.97 -130.22,44.12 -132.26,46.22 -134.65,48.3 -136.53,50.42 -136.89,52.57 -135.33,54.59 -132.96,56.19 -133.28,57.34" fill="none" stroke="url(#rainbowGradient)" stroke-width="2" stroke-linejoin="round" filter="url(#fuzzy)" /><polyline points="-79.9,-27.7 -83.83,-25.37 -86.23,-23.03 -86.42,-20.74 -85.98,-18.45 -85.69,-16.09 -85.72,-13.63 -86.05,-11.08 -86.58,-8.52 -87.18,-5.98 -87.76,-3.45 -88.34,-0.9 -88.97,1.69 -89.71,4.31 -90.57,6.93 -91.52,9.5 -92.45,11.98 -93.22,14.36 -93.71,16.67 -93.85,18.94 -93.65,21.21 -93.23,23.52 -92.75,25.84 -92.4,28.12 -92.31,30.33 -92.56,32.5 -93,34.72 -93.22,37.1 -93.37,39.86" fill="none" stroke="url(#rainbowGradient)" stroke-width="2" stroke-linejoin="round" filter="url(#fuzzy)" /><polyline points="-80.07,-26.18 -80.96,-24.86 -81.64,-22.5 -82.21,-19.93 -82.77,-17.39 -83.45,-14.95 -84.31,-12.58 -85.32,-10.24 -86.39,-7.88 -87.4,-5.45 -88.22,-2.93 -88.79,-0.3 -89.06,2.41 -89.06,5.16 -88.86,7.91 -88.53,10.61 -88.19,13.23 -87.89,15.78 -87.68,18.26 -87.55,20.69 -87.48,23.07 -87.42,25.41 -87.3,27.72 -87.06,30.04 -86.65,32.38 -86.02,34.79 -85.15,37.25 -84.06,39.68 -82.86,41.96 -81.74,44.04 -80.92,45.97 -80.27,47.98" fill="none" stroke="url(#rainbowGradient)" stroke-width="2" stroke-linejoin="round" filter="url(#fuzzy)" /><polyline points="81.54,-23.1 91.94,-22.06 92.39,-19.75 91.54,-17.11 91.58,-14.5 93.06,-11.98 95.91,-9.53 99.66,-7.1 103.58,-4.67 107.04,-2.22 109.69,0.24 111.56,2.71 113.05,5.18 114.77,7.67 117.32,10.18 121.09,12.71 126.01,15.26 131.52,17.8 136.77,20.31 140.95,22.8 143.77,25.27 145.5,27.72 146.8,30.16 148.16,32.56 149.57,34.89 150.69,37.19 151.31,39.47 152.43,41.7 157.21,43.48" fill="none" stroke="url(#rainbowGradient)" stroke-width="2" stroke-linejoin="round" filter="url(#fuzzy)" /><polyline points="79.91,-28.16 81.57,-26.24 82.55,-24.21 83.29,-22.06 84.33,-19.71 85.67,-17.22 87,-14.69 88.01,-12.19 88.6,-9.73 88.81,-7.29 88.75,-4.85 88.57,-2.4 88.36,0.06 88.21,2.53 88.18,4.99 88.28,7.48 88.53,9.99 88.91,12.53 89.36,15.08 89.84,17.62 90.29,20.13 90.64,22.62 90.88,25.09 91,27.56 91.01,30.03 90.99,32.43 90.89,34.72 90.51,36.92 89.39,38.76" fill="none" stroke="url(#rainbowGradient)" stroke-width="2" stroke-linejoin="round" filter="url(#fuzzy)" /><polyline points="78.42,-31.97 80.87,-28.3 84.78,-25.43 89.99,-23.03 94.88,-20.75 99.26,-18.46 103.65,-16.14 108.1,-13.78 112.14,-11.37 115.38,-8.92 118.07,-6.43 121.07,-3.94 125.3,-1.44 131.06,1.06 137.62,3.61 143.56,6.19 147.47,8.8 148.89,11.37 148.54,13.82 147.89,16.08 148.26,18.14 150.68,20.13 156.55,22.23 168.44,24.18" fill="none" stroke="url(#rainbowGradient)" stroke-width="2" stroke-linejoin="round" filter="url(#fuzzy)" /><polyline points="77.91,-32.54 79.47,-29.13 80.39,-26.57 81.11,-24.3 81.81,-22.03 82.53,-19.64 83.23,-17.16 83.84,-14.64 84.32,-12.13 84.66,-9.65 84.9,-7.18 85.05,-4.71 85.13,-2.24 85.16,0.24 85.14,2.73 85.07,5.23 84.97,7.74 84.81,10.27 84.58,12.81 84.25,15.36 83.82,17.91 83.29,20.44 82.66,22.94 81.96,25.43 81.2,27.89 80.39,30.32 79.52,32.71 78.57,35.05 77.52,37.34 76.39,39.57 75.19,41.75 73.92,43.88 72.58,46.01 71.15,48.17 69.67,50.4 68.18,52.62 66.66,54.71" fill="none" stroke="url(#rainbowGradient)" stroke-width="2" stroke-linejoin="round" filter="url(#fuzzy)" /><polyline points="76.74,-34.97 79.47,-32.21 81.38,-29.4 83.55,-26.88 86.27,-24.57 88.89,-22.29 90.8,-19.94 91.88,-17.51 92.46,-15.03 93.02,-12.56 93.94,-10.11 95.49,-7.69 97.76,-5.27 100.61,-2.84 103.77,-0.4 106.85,2.04 109.59,4.47 111.84,6.89 113.53,9.36 114.61,11.91 115.02,14.56 114.97,17.27 115.46,19.83 117.73,21.54" fill="none" stroke="url(#rainbowGradient)" stroke-width="2" stroke-linejoin="round" filter="url(#fuzzy)" /><polyline points="76.38,-36.23 73.69,-33.68 69.13,-31.09 67.72,-28.38 68.64,-25.77 69.62,-23.29 69.61,-20.91 68.75,-18.57 67.44,-16.21 65.81,-13.83 63.71,-11.4 61.03,-8.94 57.82,-6.45 54.26,-3.94 50.46,-1.43 46.44,1.11 42.33,3.67 38.46,6.25 35.28,8.84 32.97,11.37 31.09,13.81 28.75,16.12 25.33,18.32 21.23,20.51 17.72,22.86 15.28,25.53 12.11,28.65 7.88,32.06" fill="none" stroke="url(#rainbowGradient)" stroke-width="2" stroke-linejoin="round" filter="url(#fuzzy)" /><polyline points="75.04,-38.89 60.4,-36.29 65.35,-33.72 71.53,-31.07 75.33,-28.4 76.83,-25.79 76.65,-23.29 75.34,-20.87 73.26,-18.48 70.65,-16.08 67.65,-13.67 64.33,-11.21 60.76,-8.73 57.07,-6.22 53.49,-3.69 50.36,-1.14 48.02,1.42 46.66,3.99 46.21,6.56 46.37,9.11 46.64,11.61 46.6,14.07 45.97,16.49 44.74,18.89 43.08,21.31 41.11,23.79 38.88,26.34 36.22,28.92 32.98,31.48 29.09,33.93 24.68,36.23 20.06,38.39 15.61,40.48 11.68,42.58 8.47,44.73 5.96,46.91 4.88,48.84" fill="none" stroke="url(#rainbowGradient)" stroke-width="2" stroke-linejoin="round" filter="url(#fuzzy)" /><polyline points="74.4,-40.21 74.59,-38.02 75,-35.27 75.56,-32.42 75.95,-29.67 76.17,-27.1 76.3,-24.66 76.34,-22.25 76.3,-19.83 76.22,-17.37 76.23,-14.89 76.39,-12.4 76.67,-9.92 76.94,-7.45 76.98,-4.98 76.61,-2.51 75.77,-0.04 74.51,2.44 72.97,4.93 71.36,7.44 69.85,9.96 68.51,12.51 67.32,15.06 66.19,17.61 65.02,20.14 63.72,22.65 62.22,25.13 60.56,27.61 58.75,30.06 56.76,32.47 54.51,34.83 51.88,37.14 49,39.44 46.46,41.69 44.86,43.48" fill="none" stroke="url(#rainbowGradient)" stroke-width="2" stroke-linejoin="round" filter="url(#fuzzy)" /><polyline points="73.16,-42.01 81.43,-39.16 92.52,-36.51 100.76,-33.91 105.25,-31.29 106.62,-28.66 106.4,-26.09 106.28,-23.61 107.32,-21.22 109.62,-18.86 112.53,-16.51 115.29,-14.14 117.72,-11.74 120.43,-9.29 124.47,-6.81 130.62,-4.32 138.72,-1.83 147.42,0.67 154.77,3.2 159.29,5.8 161.11,8.48 162.19,11.2 165.48,13.84 173.01,16.26 182.31,18.37" fill="none" stroke="url(#rainbowGradient)" stroke-width="2" stroke-linejoin="round" filter="url(#fuzzy)" /><polyline points="72.25,-43.29 74.28,-41.49 78.33,-39.12 84,-36.6 90.14,-34.03 95.51,-31.42 99.38,-28.81 101.85,-26.25 103.65,-23.77 105.64,-21.37 108.19,-19.01 111.09,-16.67 113.75,-14.31 115.74,-11.91 117.03,-9.47 118.07,-6.99 119.57,-4.5 122.25,-2.03 126.51,0.44 132.1,2.93 138.03,5.53 142.85,8.25 145.99,11.11 151.36,14.66" fill="none" stroke="url(#rainbowGradient)" stroke-width="2" stroke-linejoin="round" filter="url(#fuzzy)" /><polyline points="64.18,-54.42 65.93,-52.77 67.65,-50.79 69.51,-48.61 71.48,-46.45 73.43,-44.38 75.31,-42.34 77.16,-40.22 79.11,-37.96 81.22,-35.54 83.48,-33.02 85.84,-30.46 88.25,-27.93 90.69,-25.44 93.18,-22.98 95.78,-20.54 98.55,-18.09 101.56,-15.62 104.81,-13.15 108.13,-10.68 111.2,-8.23 113.64,-5.79 115.22,-3.33 116.07,-0.86 116.72,1.61 117.76,4.04 119.48,6.43 121.62,8.85 123.55,11.29 125.54,13.37" fill="none" stroke="url(#rainbowGradient)" stroke-width="2" stroke-linejoin="round" filter="url(#fuzzy)" /><polyline points="60.08,-58.69 74.38,-57.05 79.23,-55.07 81.79,-53.04 83.17,-50.95 84.06,-48.82 85.29,-46.72 87.4,-44.66 90.34,-42.62 93.59,-40.52 96.56,-38.29 99.02,-35.91 101.17,-33.41 103.42,-30.86 106.09,-28.33 109.29,-25.86 113.03,-23.45 117.28,-21.06 121.93,-18.63 126.6,-16.14 130.55,-13.62 133,-11.14 133.79,-8.77 134.31,-6.58 138.43,-4.79" fill="none" stroke="url(#rainbowGradient)" stroke-width="2" stroke-linejoin="round" filter="url(#fuzzy)" /><polyline points="60.08,-58.69 63.88,-57.02 70.2,-55.01 74.61,-52.94 77.17,-50.82 79.2,-48.68 81.07,-46.55 82.5,-44.45 83.34,-42.34 83.79,-40.16 84.23,-37.86 84.98,-35.44 86.19,-32.95 87.91,-30.42 90.09,-27.89 92.7,-25.38 95.64,-22.89 98.82,-20.42 102.09,-17.95 105.3,-15.47 108.39,-12.99 111.37,-10.51 114.3,-8.03 117.22,-5.56 120.04,-3.09 122.61,-0.61 124.76,1.86 126.46,4.34 127.94,6.84 129.6,9.36 131.91,11.93 135.06,14.54 138.74,17.15 142.08,19.67 143.95,22.04 143.75,24.37 142.61,27.1" fill="none" stroke="url(#rainbowGradient)" stroke-width="2" stroke-linejoin="round" filter="url(#fuzzy)" /><polyline points="58.32,-60.38 61.14,-59.92 64.43,-58.62 66.98,-56.92 69.26,-55.02 71.85,-53 74.88,-50.92 78.19,-48.8 81.53,-46.69 84.71,-44.59 87.63,-42.46 90.27,-40.27 92.66,-37.97 94.87,-35.58 96.98,-33.1 99.1,-30.58 101.31,-28.06 103.61,-25.56 105.96,-23.07 108.27,-20.6 110.47,-18.13 112.52,-15.65 114.46,-13.17 116.34,-10.7 118.2,-8.22 120.01,-5.76 121.69,-3.28 123.14,-0.81 124.32,1.66 125.32,4.12 126.39,6.58 127.93,9.07 130.22,11.64 132.83,14.36 134.61,17.34 136.82,20.6" fill="none" stroke="url(#rainbowGradient)" stroke-width="2" stroke-linejoin="round" filter="url(#fuzzy)" /><polyline points="55.39,-63.34 61.28,-61.27 65.73,-59.42 67.47,-57.49 68.18,-55.53 68.91,-53.56 70.07,-51.57 71.77,-49.58 73.98,-47.58 76.54,-45.58 79.28,-43.55 82.07,-41.46 84.85,-39.27 87.68,-36.97 90.64,-34.56 93.81,-32.07 97.15,-29.53 100.57,-26.99 103.87,-24.49 106.8,-22.03 109.16,-19.61 110.89,-17.23 112.13,-14.84 113.25,-12.43 114.78,-9.97 117.12,-7.45 120.36,-4.92 124.06,-2.43 127.41,-0.08 129.73,2.15 130.7,4.61" fill="none" stroke="url(#rainbowGradient)" stroke-width="2" stroke-linejoin="round" filter="url(#fuzzy)" /><polyline points="54.31,-64.26 56.49,-62.91 59.79,-61.22 62.56,-59.4 64.67,-57.5 66.56,-55.55 68.53,-53.57 70.72,-51.58 73.19,-49.58 76,-47.58 79.13,-45.56 82.58,-43.5 86.29,-41.39 90.2,-39.18 94.19,-36.87 98.09,-34.46 101.7,-31.97 104.87,-29.45 107.58,-26.92 109.97,-24.41 112.28,-21.94 114.77,-19.5 117.55,-17.09 120.55,-14.67 123.47,-12.24 125.97,-9.77 127.83,-7.27 129.09,-4.76 130.08,-2.25 131.32,0.26 133.22,2.79 135.73,5.42 138.25,8.17 140.14,11.07 141.35,14.66" fill="none" stroke="url(#rainbowGradient)" stroke-width="2" stroke-linejoin="round" filter="url(#fuzzy)" /><polyline points="51.74,-66.18 54.25,-64.54 56.34,-62.95 58.18,-61.26 59.99,-59.47 61.9,-57.6 63.98,-55.67 66.27,-53.72 68.72,-51.74 71.31,-49.76 73.99,-47.77 76.72,-45.77 79.45,-43.76 82.11,-41.68 84.62,-39.52 86.9,-37.24 88.93,-34.84 90.72,-32.35 92.34,-29.81 93.83,-27.25 95.26,-24.73 96.68,-22.28 98.13,-19.88 99.64,-17.54 101.22,-15.21 102.81,-12.87 104.28,-10.44 105.44,-7.8 106.68,-4.73" fill="none" stroke="url(#rainbowGradient)" stroke-width="2" stroke-linejoin="round" filter="url(#fuzzy)" /><polyline points="51.58,-66.59 55.1,-64.78 60.27,-63.08 63.52,-61.55 64.64,-60.07 64.99,-58.52 65.76,-56.83 67.57,-55 70.66,-53.04 74.95,-51.01 80.09,-48.93 85.54,-46.84 90.77,-44.72 95.41,-42.58 99.3,-40.37 102.45,-38.07 104.95,-35.69 106.89,-33.23 108.46,-30.72 109.94,-28.21 111.68,-25.7 114.02,-23.21 117.1,-20.74 120.82,-18.26 124.89,-15.78 129,-13.29 133.06,-10.81 137.22,-8.34 141.79,-5.87 146.86,-3.39 152.07,-0.91 156.78,1.57 160.42,4.03 163.04,6.47 165.18,8.93 167.05,11.46 168.1,14.11 170.56,17.24" fill="none" stroke="url(#rainbowGradient)" stroke-width="2" stroke-linejoin="round" filter="url(#fuzzy)" /><polyline points="46.65,-69.74 51.2,-68.02 58.76,-66.33 65.6,-64.69 69.68,-63.02 71.62,-61.31 72.88,-59.52 74.63,-57.66 77.37,-55.75 81.16,-53.8 85.95,-51.83 91.58,-49.85 97.88,-47.86 104.51,-45.85 111.08,-43.82 117.23,-41.74 122.66,-39.56 127.23,-37.29 130.97,-34.9 134.08,-32.41 136.93,-29.87 139.96,-27.31 143.48,-24.79 147.53,-22.32 151.82,-19.92 155.86,-17.57 159.42,-15.23 162.86,-12.88 167.23,-10.45 173.41,-7.81 179.8,-4.73" fill="none" stroke="url(#rainbowGradient)" stroke-width="2" stroke-linejoin="round" filter="url(#fuzzy)" /><polyline points="39.91,-73.72 37.33,-75.13 35.44,-76.27 34.1,-77.28 33.18,-78.2 32.18,-79.04 30.66,-79.82 28.49,-80.54 25.81,-81.18 22.85,-81.75 19.78,-82.23 16.68,-82.63 13.54,-82.94 10.33,-83.17 6.99,-83.33 3.51,-83.4 -0.14,-83.4 -3.96,-83.33 -7.97,-83.19 -12.2,-82.97 -16.68,-82.68 -21.42,-82.33 -26.4,-81.91 -31.57,-81.43 -36.83,-80.89 -42.08,-80.28 -47.21,-79.59 -52.16,-78.81 -56.94,-77.95 -61.66,-76.99 -66.53,-75.95 -71.77,-74.83 -77.55,-73.65 -83.98,-72.43 -91.07,-71.15 -98.32,-69.87 -103.07,-68.92" fill="none" stroke="url(#rainbowGradient)" stroke-width="2" stroke-linejoin="round" filter="url(#fuzzy)" /><polyline points="36.09,-75.73 35.18,-76.7 32.37,-77.68 29.4,-78.65 26.72,-79.52 24.3,-80.25 21.97,-80.88 19.61,-81.42 17.17,-81.89 14.63,-82.3 12.01,-82.66 9.36,-82.96 6.68,-83.2 4.02,-83.36 1.36,-83.45 -1.29,-83.45 -3.95,-83.36 -6.63,-83.19 -9.36,-82.94 -12.15,-82.61 -15.01,-82.2 -17.91,-81.72 -20.83,-81.16 -23.75,-80.53 -26.62,-79.85 -29.44,-79.1 -32.23,-78.3 -35.04,-77.42 -37.91,-76.48 -40.84,-75.46 -43.74,-74.39 -46.52,-73.27 -49.13,-72.11 -51.6,-70.91 -54.38,-69.57" fill="none" stroke="url(#rainbowGradient)" stroke-width="2" stroke-linejoin="round" filter="url(#fuzzy)" /><polyline points="36.09,-75.73 34.45,-76.69 31.98,-77.67 29.38,-78.63 26.92,-79.5 24.59,-80.23 22.29,-80.86 19.94,-81.4 17.5,-81.88 14.98,-82.29 12.37,-82.66 9.69,-82.97 6.97,-83.23 4.22,-83.42 1.43,-83.53 -1.43,-83.55 -4.4,-83.48 -7.56,-83.34 -10.93,-83.11 -14.51,-82.82 -18.27,-82.45 -22.17,-81.99 -26.21,-81.43 -30.41,-80.78 -34.73,-80.09 -38.81,-79.49 -41.34,-79.37" fill="none" stroke="url(#rainbowGradient)" stroke-width="2" stroke-linejoin="round" filter="url(#fuzzy)" /><polyline points="29.04,-78.65 25.56,-79.83 22.6,-80.5 19.29,-81.03 16.16,-81.52 13.6,-81.96 11.53,-82.37 9.65,-82.72 7.73,-83.03 5.71,-83.28 3.64,-83.47 1.61,-83.58 -0.31,-83.59 -2.1,-83.52 -3.77,-83.36 -5.28,-83.14 -6.59,-82.85 -7.67,-82.49 -8.45,-82.04 -8.96,-81.48 -9.34,-80.79 -9.84,-79.98 -10.3,-78.95" fill="none" stroke="url(#rainbowGradient)" stroke-width="2" stroke-linejoin="round" filter="url(#fuzzy)" /><polyline points="29.4,-78.42 25.67,-79.82 22.48,-80.76 19.72,-81.43 17.19,-81.96 14.77,-82.42 12.38,-82.79 9.99,-83.09 7.57,-83.31 5.13,-83.45 2.64,-83.52 0.1,-83.52 -2.48,-83.45 -5.09,-83.31 -7.72,-83.1 -10.35,-82.82 -13,-82.48 -15.64,-82.07 -18.27,-81.62 -20.81,-81.11 -23.22,-80.56 -25.5,-79.94 -27.78,-79.21 -30.34,-78.32 -33.3,-77.25" fill="none" stroke="url(#rainbowGradient)" stroke-width="2" stroke-linejoin="round" filter="url(#fuzzy)" /><polyline points="25.41,-80.15 22,-80.99 19.43,-81.55 16.98,-82.04 14.58,-82.47 12.19,-82.84 9.77,-83.12 7.32,-83.32 4.83,-83.45 2.29,-83.5 -0.29,-83.48 -2.91,-83.39 -5.57,-83.23 -8.25,-82.99 -10.95,-82.69 -13.66,-82.32 -16.36,-81.9 -19.04,-81.41 -21.68,-80.85 -24.29,-80.23 -26.88,-79.53 -29.49,-78.75 -32.14,-77.87 -34.84,-76.91 -37.57,-75.87 -40.27,-74.75 -42.88,-73.58 -45.37,-72.36 -47.75,-71.1 -50.03,-69.83 -52.22,-68.57 -54.58,-67.2" fill="none" stroke="url(#rainbowGradient)" stroke-width="2" stroke-linejoin="round" filter="url(#fuzzy)" /><polyline points="20.43,-81.45 19.21,-81.61 16.9,-82.07 14.56,-82.5 12.25,-82.87 9.92,-83.15 7.54,-83.36 5.09,-83.49 2.53,-83.55 -0.17,-83.54 -3.04,-83.46 -6.07,-83.31 -9.23,-83.09 -12.51,-82.8 -15.83,-82.45 -19.14,-82.04 -22.42,-81.58 -25.71,-81.06 -29.1,-80.5 -32.71,-79.86 -36.58,-79.13 -40.57,-78.29 -44.48,-77.39 -48.51,-76.6" fill="none" stroke="url(#rainbowGradient)" stroke-width="2" stroke-linejoin="round" filter="url(#fuzzy)" /><polyline points="19.88,-81.59 16.21,-82.15 13.53,-82.53 10.96,-82.85 8.37,-83.14 5.78,-83.37 3.22,-83.52 0.68,-83.59 -1.9,-83.55 -4.56,-83.43 -7.32,-83.22 -10.19,-82.94 -13.12,-82.57 -16.07,-82.14 -18.99,-81.63 -21.86,-81.04 -24.67,-80.4 -27.45,-79.69 -30.24,-78.92 -33.08,-78.09 -36.02,-77.19 -39.08,-76.22 -42.23,-75.19 -45.46,-74.08 -48.7,-72.89 -51.94,-71.61 -55.14,-70.24 -58.32,-68.79 -61.46,-67.29 -64.52,-65.85 -67.44,-64.56 -69.94,-63.46 -71.08,-62.53" fill="none" stroke="url(#rainbowGradient)" stroke-width="2" stroke-linejoin="round" filter="url(#fuzzy)" /><polyline points="12.38,-83.06 9.46,-83.33 6.85,-83.51 4.4,-83.59 1.99,-83.61 -0.37,-83.57 -2.6,-83.45 -4.65,-83.25 -6.51,-82.98 -8.19,-82.65 -9.74,-82.25 -11.23,-81.79 -12.71,-81.26 -14.22,-80.67 -15.78,-80 -17.4,-79.26 -19.07,-78.42 -20.8,-77.51 -22.6,-76.51 -24.46,-75.44 -26.3,-74.31 -28.03,-73.11 -29.47,-71.86 -30.47,-70.55 -30.87,-69.18 -30.58,-67.75 -29.56,-66.23 -27.87,-64.63 -25.68,-62.94 -23.28,-61.15 -20.99,-59.29 -19.1,-57.36 -17.72,-55.39 -16.64,-53.43 -15.34,-51.55 -13.3,-49.78 -10.61,-48.21 -7.99,-47.24" fill="none" stroke="url(#rainbowGradient)" stroke-width="2" stroke-linejoin="round" filter="url(#fuzzy)" /><polyline points="10.43,-82.92 8.14,-83.2 5.48,-83.46 2.89,-83.64 0.36,-83.7 -2.26,-83.64 -5.06,-83.48 -8.02,-83.25 -11.07,-82.94 -14.11,-82.56 -17.13,-82.1 -20.13,-81.57 -23.12,-80.97 -26.1,-80.3 -29.08,-79.57 -32.06,-78.78 -35.06,-77.93 -38.1,-77 -41.21,-76.01 -44.4,-74.95 -47.7,-73.81 -51.09,-72.59 -54.57,-71.3 -58.07,-69.95 -61.56,-68.54 -64.98,-67.11 -68.33,-65.66 -71.67,-64.2 -75.1,-62.69 -78.68,-61.08 -82.42,-59.34 -86.2,-57.47 -89.8,-55.51 -93.03,-53.49 -95.89,-51.3 -98.3,-48.61" fill="none" stroke="url(#rainbowGradient)" stroke-width="2" stroke-linejoin="round" filter="url(#fuzzy)" /><polyline points="4.03,-83.69 1.88,-83.66 -0.94,-83.65 -3.97,-83.53 -7.02,-83.33 -10.14,-83.04 -13.33,-82.69 -16.51,-82.27 -19.56,-81.8 -22.42,-81.27 -25.12,-80.68 -27.77,-80 -30.51,-79.25 -33.43,-78.41 -36.64,-77.49 -40.17,-76.48 -44.04,-75.4 -48.23,-74.26 -52.66,-73.06 -57.25,-71.8 -61.93,-70.49 -66.66,-69.11 -71.47,-67.67 -76.39,-66.15 -81.42,-64.54 -86.51,-62.84 -91.57,-61.06 -96.54,-59.2 -101.44,-57.28 -106.25,-55.33 -110.83,-53.39 -114.94,-51.49 -118.57,-49.65 -122.12,-47.79 -126.11,-45.61 -130.26,-42.1" fill="none" stroke="url(#rainbowGradient)" stroke-width="2" stroke-linejoin="round" filter="url(#fuzzy)" /><polyline points="1.14,-84 -0.08,-83.95 -2.26,-83.79 -5.02,-83.58 -8.04,-83.32 -11.14,-83.02 -14.24,-82.66 -17.32,-82.22 -20.35,-81.7 -23.32,-81.1 -26.27,-80.44 -29.25,-79.74 -32.35,-78.99 -35.6,-78.17 -39.01,-77.29 -42.55,-76.34 -46.24,-75.32 -50.15,-74.25 -54.4,-73.13 -59.11,-71.93 -64.46,-70.61 -70.58,-69 -76.69,-66.81" fill="none" stroke="url(#rainbowGradient)" stroke-width="2" stroke-linejoin="round" filter="url(#fuzzy)" /><polyline points="2.48,-83.52 -0.76,-83.68 -3.72,-83.58 -6.51,-83.35 -9.23,-83.06 -11.95,-82.69 -14.69,-82.27 -17.45,-81.8 -20.22,-81.26 -23.03,-80.66 -25.89,-79.98 -28.82,-79.22 -31.8,-78.37 -34.81,-77.44 -37.81,-76.42 -40.81,-75.33 -43.81,-74.18 -46.83,-72.97 -49.9,-71.71 -53.06,-70.38 -56.37,-68.99 -59.84,-67.54 -63.47,-66 -67.18,-64.38 -70.88,-62.67 -74.44,-60.89 -77.81,-59.03 -80.98,-57.13 -83.98,-55.2 -86.77,-53.26 -89.32,-51.32 -91.64,-49.38 -93.93,-47.38 -96.59,-45.3 -99.96,-43.15 -103.85,-41.05 -107.41,-39.19 -109.03,-37.59" fill="none" stroke="url(#rainbowGradient)" stroke-width="2" stroke-linejoin="round" filter="url(#fuzzy)" />
    </g>
    
        <g id="pointNose">
          <g id="rightNose"><circle r="1.178" cx="8.684" cy="25.268" stroke="black" fill="none" stroke-width="1.0" filter="url(#fuzzy)" /><circle r="1.858" cx="12.016" cy="22.9" stroke="black" fill="none" stroke-width="1.0" filter="url(#fuzzy)" /><circle r="1.42" cx="10.251999999999999" cy="26.548" stroke="black" fill="none" stroke-width="1.0" filter="url(#fuzzy)" /><circle r="2.402" cx="8.408" cy="26.68" stroke="black" fill="none" stroke-width="1.0" filter="url(#fuzzy)" /><circle r="2.058" cx="9.776" cy="26.804" stroke="black" fill="none" stroke-width="1.0" filter="url(#fuzzy)" /><circle r="2.548" cx="8.276" cy="25.648" stroke="black" fill="none" stroke-width="1.0" filter="url(#fuzzy)" /><circle r="1.696" cx="9.012" cy="23.276" stroke="black" fill="none" stroke-width="1.0" filter="url(#fuzzy)" /><circle r="1.078" cx="12.16" cy="26.372" stroke="black" fill="none" stroke-width="1.0" filter="url(#fuzzy)" /><circle r="1.174" cx="10.492" cy="24.023999999999997" stroke="black" fill="none" stroke-width="1.0" filter="url(#fuzzy)" /><circle r="1.986" cx="8.788" cy="26.555999999999997" stroke="black" fill="none" stroke-width="1.0" filter="url(#fuzzy)" /></g>
          <g id="leftNose"><circle r="2.2199999999999998" cx="-11.856" cy="29.188" stroke="black" fill="none" stroke-width="1.0" filter="url(#fuzzy)" /><circle r="1.576" cx="-9.643999999999998" cy="31.664" stroke="black" fill="none" stroke-width="1.0" filter="url(#fuzzy)" /><circle r="2.278" cx="-9.5" cy="32.028" stroke="black" fill="none" stroke-width="1.0" filter="url(#fuzzy)" /><circle r="2.15" cx="-8.58" cy="32.212" stroke="black" fill="none" stroke-width="1.0" filter="url(#fuzzy)" /><circle r="1.9340000000000002" cx="-9.82" cy="31.728" stroke="black" fill="none" stroke-width="1.0" filter="url(#fuzzy)" /><circle r="1.8319999999999999" cx="-9.931999999999999" cy="29.06" stroke="black" fill="none" stroke-width="1.0" filter="url(#fuzzy)" /><circle r="1.02" cx="-10.416" cy="31.060000000000002" stroke="black" fill="none" stroke-width="1.0" filter="url(#fuzzy)" /><circle r="1.1280000000000001" cx="-8.408" cy="30.415999999999997" stroke="black" fill="none" stroke-width="1.0" filter="url(#fuzzy)" /><circle r="2.33" cx="-9.448" cy="29.244" stroke="black" fill="none" stroke-width="1.0" filter="url(#fuzzy)" /><circle r="2.9" cx="-10.548" cy="30.387999999999998" stroke="black" fill="none" stroke-width="1.0" filter="url(#fuzzy)" /></g>
        </g>
      
    <g id="mouth">
      <polyline points="-2.54,59.88 -2.58,60.48 -2.61,60.04 -2.54,60.96 -2.61,61.33 -2.62,61.92 -2.56,61.47 -2.77,62.77 -2.62,62.76 -2.86,63.26 -2.82,63.16 -3.18,64.33 -3.19,64.35 -3.05,64.12 -3.52,65.07 -3.45,64.97 -3.39,64.87 -4.03,65.92 -4.4,66.59 -4.74,67.04 -4.82,67.07 -4.95,67.21 -5.02,67.32 -5.39,67.76 -5.91,68.39 -6.73,69.04 -6.87,69.24 -7.09,69.37 -8.05,70.14 -8.36,70.34 -8.18,70.25 -8.36,70.36 -8.58,70.54 -9.75,71.31 -9.37,71.01 -9.52,71.17 -10.6,71.75 -10.74,71.83 -10.89,71.92 -11.91,72.38 -13.38,72.98 -13.1,72.87 -12.9,72.81 -14.35,73.34 -15,73.55 -14.41,73.36 -15.34,73.65 -15.52,73.71 -15.7,73.74 -17.5,74.17 -18.49,74.35 -19.03,74.44 -17.93,74.26 -18.31,74.32 -19.91,74.55 -19.59,74.51 -20.91,74.63 -22.26,74.7 -22.66,74.68 -22.71,74.69 -22.84,74.71 -24.28,74.63 -24.4,74.65 -24.83,74.59 -24.86,74.59 -26.16,74.42 -25.34,74.57 -27.44,74.24 -26.76,74.34 -28.24,73.98 -27.82,74.09 -28.11,74.07 -29.26,73.72 -29.84,73.51 -30.51,73.23 -30.91,73.13 -30.68,73.24 -30.71,73.15 -31.27,72.99 -31.86,72.65 -32.8,72.08 -32.96,72 -32.56,72.19 -33.81,71.35 -33.63,71.5 -34.76,70.57 -34.11,71.16 -35.16,70.19 -34.64,70.71 -35.02,70.35 -36.01,69.1 -35.7,69.36 -35.73,69.35 -36.3,68.32 -36.69,67.81 -36.41,68.42 -36.58,68.1 -36.81,67.09 -36.91,66.98 -36.92,66.97 -37.16,66.19 -37.08,66.16 -37.18,66.04 -37.21,65.46 -37.17,64.52 -37.12,64.04 -37.24,64.84 -37.11,63.44 -37.13,63.43 -36.92,63.15 -36.91,62.7 -36.82,62.55 -36.91,62.66 -36.7,62.28 -36.38,61.36 -36.12,60.98 -36.06,60.75 -36.05,60.84 -35.3,59.59 -35.65,60.03 -34.8,58.82 -34.37,58.45 -35.02,59.2 -34.58,58.56 -34.03,58 -33.27,57.27 -33.07,57.07 -33.48,57.45 -31.98,56.18 -32.34,56.45 -31.01,55.57 -31.68,56.02 -31.28,55.74 -29.94,54.87 -30.22,55.03 -30.32,55.1 -29.63,54.68 -29.24,54.5 -28.73,54.2 -27.08,53.48 -26.66,53.29 -26.98,53.45 -25.94,53.03 -25.25,52.8 -25.93,53.02 -24.72,52.63 -23.32,52.25 -23.74,52.36 -23.19,52.23 -22.22,52.01 -20.9,51.77 -21.69,51.91 -20.12,51.67 -20.55,51.73 -20.07,51.66 -19.5,51.61 -18.76,51.55 -17.61,51.48 -18.65,51.53 -17.09,51.48 -15.96,51.48 -15.52,51.52 -14.66,51.59 -14.37,51.59 -15.11,51.55 -13.19,51.75 -13.83,51.66 -11.92,52 -12.09,51.98 -12.16,51.94 -11.58,52.1 -10.87,52.32 -10.46,52.39 -9.77,52.65 -9.1,52.85 -8.74,53.04 -8.22,53.3 -8.87,53.01 -7.83,53.42 -7.22,53.77 -6.74,54.17 -7.28,53.81 -6.87,54.03 -5.83,54.72 -6.14,54.59 -5.43,55.08 -4.76,55.7 -5.18,55.37 -4.86,55.64 -4.6,55.82 -4.32,56.21 -3.74,56.88 -3.38,57.5 -3.29,57.84 -3.46,57.44 -3.29,57.87 -2.87,58.84 -3.03,58.65 -2.68,59.41 -2.55,59.98" fill="rgb(215,127,140)" stroke="black" stroke-width="3" stroke-linejoin="round" filter="url(#fuzzy)" />
    </g>
  </svg>
  